<svg xmlns="http://www.w3.org/2000/svg" viewBox="0 0 300 300">
  <defs><clipPath id="a"><path d="M128 5.8h166.5v166.5H128Zm0 0"/></clipPath><clipPath id="b"><path d="M111.4 70h123v120.8h-123Zm0 0"/></clipPath><clipPath id="c"><path d="M74.8 219H153v78.4H74.8Zm0 0"/></clipPath><clipPath id="d"><path d="M230.6 242.2h37.2v36h-37.2Zm0 0"/></clipPath><clipPath id="e"><path d="M262 158.3h3v2.7h-3Zm0 0"/></clipPath><clipPath id="f"><path d="M285.5 191.6h2.4v2.7h-2.4Zm0 0"/></clipPath><clipPath id="g"><path d="M75 85h15v14.5H75Zm0 0"/></clipPath><clipPath id="h"><path d="M105 5.8h14V19h-14Zm0 0"/></clipPath><clipPath id="i"><path d="M4 252h38v37.8H4Zm0 0"/></clipPath><clipPath id="j"><path d="M5 250h41v39.8H5Zm0 0"/></clipPath><clipPath id="k"><path d="M56 255h29.5v29H56Zm0 0"/></clipPath></defs><g clip-path="url(#a)"><path fill="#000000" d="M294.5 89a79.2 79.2 0 0 1-4.9 28 85.2 85.2 0 0 1-22.5 33.7 80.6 80.6 0 0 1-31.7 18 85.2 85.2 0 0 1-44.4 1 83.7 83.7 0 0 1-61.4-64.4 82.6 82.6 0 0 1 20-72.2A84 84 0 0 1 207 6a79.2 79.2 0 0 1 28.3 3.5 81.9 81.9 0 0 1 40.2 26.8A80 80 0 0 1 290.9 65a76.4 76.4 0 0 1 3.5 20v4Zm0 0"/></g><path fill="#fff" d="M211.2 164.3a75.3 75.3 0 1 1 .1-150.7 75.3 75.3 0 0 1 0 150.7Zm0-148.7a73.4 73.4 0 1 0 0 146.9 73.4 73.4 0 0 0 0-147Zm0 0"/><path fill="#000000" d="M44.9 135c50.7-59.4 165.5 44.4 70.4 99.2-57.6 34.6-115.3-43.3-75-92.3l4.6-6.8M225 288.5c-12.8 19-49.8-7.3-24-26.6 15.8-12 35.2 8.7 25.1 24.4l-1 2.2"/><g clip-path="url(#b)"><path fill="#000000" d="M114 132.8a48.5 48.5 0 0 1 7.6-34.7 60.6 60.6 0 0 1 27.5-21.3c21.4-8.8 49.2-8 67.2 8a51.4 51.4 0 0 1 16 33.6c.8 8.5 0 17-1.5 25.4a59.7 59.7 0 0 1-9.4 23.7C203 194 164 195 139.2 177.5a56.7 56.7 0 0 1-17.7-20.8c-3.8-7.5-5.2-15.9-7.4-24-.2-.6-2-.1-1.8.5 1.9 6.7 3 13.6 5.6 20a56.5 56.5 0 0 0 12.8 19.2 64.9 64.9 0 0 0 81.1 6.8c13.6-10 19.6-25.3 21.8-41.6 1.9-14.1.8-29.1-6.3-41.7a49.3 49.3 0 0 0-25.6-21.6 74.6 74.6 0 0 0-67.1 9.2 49.4 49.4 0 0 0-22.3 49.8c0 .6 1.9.2 1.8-.5"/></g><path fill="#000000" d="M118.3 119.2c1-12.6 6.8-24 16.7-31.9a59.7 59.7 0 0 1 33.7-12c23.8-1.5 50.6 9.4 59 33.3 5 14.3 1.9 30-3.7 43.7a59.4 59.4 0 0 1-15.2 22.7c-6 5.3-13.5 8.9-21.4 10.5a59.4 59.4 0 0 1-45.4-10.3 54.9 54.9 0 0 1-23.5-41.5c-.3-4.8 0-9.7-.3-14.6 0-.6-1.8-.3-1.7.4.2 7.1-.3 14.3 1 21.3 1.4 8 4.7 15.5 9.4 22a62 62 0 0 0 38.9 23.9 53.5 53.5 0 0 0 42.6-9.8c6.8-5.3 12-12.6 15.5-20.4a89.7 89.7 0 0 0 7.5-24.3 48.7 48.7 0 0 0-8.4-36A55.1 55.1 0 0 0 194.4 77c-22.2-6.8-50-2.8-66.2 14.8a46.5 46.5 0 0 0-11.7 27.5c-.1.8 1.7.5 1.8-.2"/><path fill="#000000" d="M143.8 130.4c-1.8-12.9 5.5-23.9 17-29.2 10.8-4.9 24.5-5 34.2 2.2 12.3 8.8 12.8 27.5 7.6 40.5-6.4 15.8-25.5 20.1-40 13.5-5.5-2.5-10-6.4-13.3-11.4-3-4.8-4-10.2-5.5-15.6-.2-.7-2-.2-1.8.4 1 3.2 1.5 6.5 2.6 9.7 1.3 3.6 3.3 7 5.8 9.9a33.6 33.6 0 0 0 19 10.5c14.6 2.9 29.8-4 35.3-18.1 5-12.9 4-30.5-7.3-39.6-9-7.3-22-7.9-32.7-4.5-14.2 4.4-24.9 16.7-22.7 32.1.1.7 2 .3 1.8-.4"/><path fill="#000000" d="M148.6 123.6c1.2-13.6 13-21.3 26-21.3 12.4 0 24.9 7.2 27 20.2 1.2 8-1.6 17-5.8 23.6a22.8 22.8 0 0 1-21.3 10.3c-8-.6-15.6-5-20.5-11.3a26 26 0 0 1-5-11c-.6-3.4-.3-7-.4-10.6 0-.6-1.8-.3-1.8.4.1 3.6-.1 7.2.5 10.7.7 4 2.4 7.6 4.7 10.8a30.2 30.2 0 0 0 19.3 11.7c7.1 1.3 14.8-.3 20.6-4.8a35 35 0 0 0 11.4-22.1 24 24 0 0 0-4-18 27 27 0 0 0-14-9.5c-11-3.4-24.6-1.3-32.6 7.3a23.2 23.2 0 0 0-6 13.8c0 .8 1.8.5 1.9-.2"/><path fill="#000000" d="M127.6 106a42 42 0 0 1 29-26.5 61 61 0 0 1 39.7 3.9 53.5 53.5 0 0 1 28.2 26.6c6.1 14 2.8 29.6-4.6 42.5a66.8 66.8 0 0 1-20.3 22.6 43 43 0 0 1-26 6.8c-17.7-1-34.1-12-43.2-27a50 50 0 0 1-7.2-26.2c0-7.8 2.7-15.2 4.4-22.7.2-.8-1.6-.5-1.8.1-1.7 7.6-4.2 15-4.4 22.8a50.5 50.5 0 0 0 6.3 24.8c8.2 15 23.6 26 40.5 28.8 8 1.3 16.4.5 24.1-2.4a52.1 52.1 0 0 0 21.8-16.9c10-12.3 17.4-27.8 15-44-4.2-26.7-33.3-42.4-58.3-42.5a52 52 0 0 0-26.9 7 43.2 43.2 0 0 0-18 22.4c-.3.7 1.5.5 1.7-.1"/><path fill="#000000" d="M156.2 130.4c-1.6-13.5 12.8-22.2 25-20a15.2 15.2 0 0 1 12.2 11.4c2 8-.4 18.2-7.1 23.2a19.4 19.4 0 0 1-20 1.2c-3-1.5-5.6-4-7.3-7-1.6-2.6-2-5.8-2.8-8.8-.2-.7-2-.3-1.8.4.9 3.3 1.4 6.6 3.2 9.6 1.8 3.1 4.8 5.5 8 7 6.4 3 14.2 2.6 20.3-.8 11.6-6.6 14.3-28.1 1.8-35.2-13.4-7.7-35.3 2.9-33.3 19.4 0 .7 1.9.3 1.8-.4"/><path fill="#000000" d="M152.1 124.3c1.4-13.9 15.4-20 28-17.7 6 1.1 11.6 4.2 15 9.3 4.2 6 3.6 13.7 1.4 20.4a23.2 23.2 0 0 1-12 14.5c-5.2 2.4-11.3 2-16.6 0-5.4-2-10-5.9-13-10.9-2.8-5-2.6-10.2-2.8-15.7 0-.7-1.8-.3-1.7.4 0 3.7-.1 7.4.8 11 1 3.7 3.2 7.2 5.8 10a26.8 26.8 0 0 0 20.2 7.9c7.9-.3 14.7-4.8 18.5-11.6a29 29 0 0 0 3.4-21.8c-3.2-11-15.5-15.6-26-15-11.2.6-21.6 7.6-22.7 19.4-.1.8 1.7.5 1.7-.2"/><path fill="#000000" d="M162.2 122.9c5.4-14.2 29.2-7.3 28.2 7.1-.4 4.3-3 8.3-5.8 11.3-3.7 3.8-9 4.5-13.8 2.6a16.4 16.4 0 0 1-9-9.3c-1.6-4-.6-7.7.4-11.7.1-.8-1.7-.5-1.8.1-1 4-1.8 7.5-.6 11.5a17 17 0 0 0 7.7 9.3 16 16 0 0 0 11.2 1.9c4.4-.9 7.7-4 10.1-7.5 4.2-6 4.7-13.4-.7-18.8a19.8 19.8 0 0 0-17.4-5c-4.8.8-8.6 4.1-10.3 8.6-.3.7 1.5.5 1.8-.1"/><path fill="#000000" d="M136.5 97.4a39.8 39.8 0 0 1 38-17.4 60.7 60.7 0 0 1 38.1 19.8 42.7 42.7 0 0 1 10.8 39.4c-2.2 8.5-7.4 16-13.6 22.2a57.5 57.5 0 0 1-27.3 16.7c-18.7 4.2-37.4-6.5-47.7-21.8a51.4 51.4 0 0 1-8.7-26 44 44 0 0 1 1.7-14.5c1.3-4.7 3.7-8.6 5.9-12.9l2.8-5.5c.4-.8-1.4-.7-1.7-.1-3.6 7-7.7 13.7-9.5 21.5-2 9-1 18.3 2 27a52.7 52.7 0 0 0 38 33.5c19.4 3.8 37.5-7.2 49.6-21.5a42.9 42.9 0 0 0 9.5-41.7c-8.7-26-41.4-43.6-67.7-35.5a41 41 0 0 0-21.9 16.7c-.5.7 1.3.6 1.7 0"/><path fill="#000000" d="M135.3 110a36 36 0 0 1 30.9-23.4 54 54 0 0 1 38.1 11.3A37 37 0 0 1 219 133a54.2 54.2 0 0 1-11 23.5 41.6 41.6 0 0 1-24.2 16.7c-16.5 3.6-33.7-5.2-43.5-18.3-5-6.7-8-14.7-8.5-23-.5-7.6 2-14.7 3.6-22 .2-.7-1.6-.5-1.8.2-1.7 7.6-4 14.9-3.6 22.8a44 44 0 0 0 9.6 24 46.2 46.2 0 0 0 44.5 17.3 40 40 0 0 0 22.6-14 63.3 63.3 0 0 0 13.1-23c3.9-13.1 0-26.6-9.5-36.3-17.4-17.8-52-23-69.7-2.8a38 38 0 0 0-7 12c-.2.6 1.6.5 1.8-.2"/><path fill="#000000" d="M142.8 102.8c18.5-27.4 60.3-12.7 71.5 14a33 33 0 0 1 1.6 20.8c-2.1 8.8-8 16.2-14.7 22.1a40.3 40.3 0 0 1-28.7 11.8c-9.3-.5-18-5-24.7-11.3a44 44 0 0 1-13.7-28.9c-.4-5.6.6-11.3 2.6-16.5 1.6-4.2 4.1-8 6-12 .5-.8-1.3-.7-1.6 0-3.6 7.2-7.7 13.9-8.7 22.2-1 8.9 1.3 17.9 5.7 25.6a41.4 41.4 0 0 0 44 21 51.5 51.5 0 0 0 25-15.7c5.5-5.9 9.7-13 11.2-21 2.5-14.2-5.2-27.6-15.9-36.3a50.6 50.6 0 0 0-32-11.7c-12 .2-22.6 5.9-29.3 15.8-.5.7 1.3.6 1.7.1"/><path fill="#000000" d="M153.4 97.7c24.4-21.2 61.4 6.6 60.7 35.1-.4 18.1-17.8 30.7-34.2 34.2-18.1 4-34.3-9.2-39.8-25.8a39.3 39.3 0 0 1-.2-24.2c2.5-8 8.1-13.3 13.5-19.3.7-.8-1-.9-1.5-.4-5.1 5.8-10.5 11-13.3 18.4-3 7.8-3 16.5-.7 24.5 4.4 15.7 18 28.4 34.8 28.6a50 50 0 0 0 26.3-9c6.5-4.1 12-9.9 14.8-17.1 5.3-13.2 0-27.9-8.9-38a45.3 45.3 0 0 0-25.2-15c-10-2-20 1-27.8 7.6-.7.7 1 .8 1.5.4"/><path fill="#000000" d="M162 95.4c25.6-13.2 51.4 16.3 48.8 41a28.5 28.5 0 0 1-7.8 16.8 40 40 0 0 1-21.4 10.4 34.2 34.2 0 0 1-25.5-3.6 34.4 34.4 0 0 1-13.8-18.1 39 39 0 0 1 .6-27c1.9-4.7 4.9-8.8 8.6-12.2 3.1-2.8 7-5 10.5-7.3 1-.7-.5-1-1-.7-6.2 4.2-12.2 7.8-16.5 14a37.1 37.1 0 0 0-6 21.4c.1 15 9.2 29.8 23.9 34.3a44.2 44.2 0 0 0 25.3-1.2 38 38 0 0 0 18-11c8.3-9.6 8.5-23 4.2-34.3a44.3 44.3 0 0 0-19.5-23c-9.3-5.1-20.1-5-29.5-.2-1 .6.5 1 1.1.7M35.7 85.3c15.9 12.9-10.5 43.6-25.5 19.1C.8 89.5 20.8 73.9 34 84.2l1.8 1.1"/><g clip-path="url(#c)"><path fill="#000000" d="M94.3 226c24.9-17.9 57.1 9.7 56.7 36.7a29.6 29.6 0 0 1-7.1 18.6c-6 7-14.7 11-23.4 13.5a32.4 32.4 0 0 1-25.7-2.9c-7-4.1-12.2-11-15.2-18.5-3.5-8.5-4-18.1-1.2-26.9 1.6-4.7 4.2-9 7.5-12.7 2.6-2.8 5.7-5.2 8.5-7.8.8-.8-1-.9-1.4-.4-5.6 5.2-11.2 9.8-14.6 16.8a38.7 38.7 0 0 0-3 23.1 37.5 37.5 0 0 0 30 31.5c9 1.4 18.3-1.4 26.3-5.2 6.8-3.3 13-8.1 16.9-14.6 7-11.5 4.4-25.8-2.3-36.8a45.7 45.7 0 0 0-23.7-19.5 32.2 32.2 0 0 0-29.4 4.6c-1 .7.5 1 1 .6"/></g><path fill="#000000" d="M226.1 193c-20.2-.2-29.5 22-25 39.4 4.1 16.3 30.2 28.5 45.3 19.2 12.7-8.1 19.7-34.8 9.8-46.4-4.6-5.2-16-14-25.5-12.2h-4.6"/><g clip-path="url(#d)"><path fill="#000000" d="M234 251.4c-7.6 9-1 21.3 8.5 25.7 8.7 4.1 23.8-3.1 25.2-13.3 1-8.7-8.4-21.7-17.2-21.5-4 .1-12.1 2-14.8 7l-1.7 2"/></g><path fill="#000000" d="M254.6 161.9c1.6 0 1.6-2.5 0-2.5s-1.6 2.5 0 2.5m7.6 6.1c1.6 0 1.6-2.4 0-2.4s-1.6 2.4 0 2.4m-5.3 2c1.6 0 1.6-2.5 0-2.5s-1.6 2.4 0 2.4m1.5-6.1c1.6 0 1.6-2.5 0-2.5s-1.6 2.5 0 2.5m-7.3 11.5c1.6 0 1.6-2.5 0-2.5s-1.6 2.5 0 2.5m7.3 6.2c1.6 0 1.6-2.5 0-2.5s-1.6 2.5 0 2.5m1.9-3.9c1.6 0 1.6-2.5 0-2.5s-1.6 2.5 0 2.5m3.9-3.8c1.5 0 1.5-2.5 0-2.5-1.6 0-1.6 2.5 0 2.5m6.1-.4c1.6 0 1.6-2.5 0-2.5s-1.6 2.5 0 2.5m-4.3 6.9c1.7 0 1.7-2.5 0-2.5-1.5 0-1.5 2.5 0 2.5m-1 6.1c1.5 0 1.5-2.4 0-2.4-1.7 0-1.7 2.4 0 2.4m-9.7.4c1.6 0 1.6-2.4 0-2.4-1.5 0-1.5 2.4 0 2.4m-11.1-3c1.6 0 1.6-2.5 0-2.5s-1.6 2.5 0 2.5m-.7-8.5c1.6 0 1.6-2.5 0-2.5s-1.6 2.5 0 2.5m1.5-6.1c1.6 0 1.6-2.5 0-2.5s-1.6 2.5 0 2.5m5.4 0c1.6 0 1.6-2.5 0-2.5s-1.6 2.5 0 2.5m-4.2-6.9c1.5 0 1.5-2.5 0-2.5-1.6 0-1.6 2.5 0 2.5m-7.3 3c1.6 0 1.6-2.4 0-2.4s-1.6 2.4 0 2.4"/><g clip-path="url(#e)"><path fill="#000000" d="M263.4 160.7c1.6 0 1.6-2.4 0-2.4s-1.6 2.4 0 2.4"/></g><path fill="#000000" d="M271.4 162.3c1.6 0 1.6-2.5 0-2.5s-1.6 2.5 0 2.5m5.4 5.3c1.6 0 1.6-2.4 0-2.4s-1.6 2.4 0 2.4m-8.4 0c1.6 0 1.6-2.4 0-2.4s-1.6 2.4 0 2.4m14.9 6.9c1.6 0 1.6-2.4 0-2.4s-1.6 2.4 0 2.4m-4.6-2.3c1.6 0 1.6-2.4 0-2.4s-1.6 2.4 0 2.4m-3.1 5c1.6 0 1.6-2.4 0-2.4-1.5 0-1.5 2.4 0 2.4m-.3 9.2c1.6 0 1.6-2.4 0-2.4s-1.6 2.4 0 2.4m6.5 2c1.6 0 1.6-2.5 0-2.5s-1.6 2.5 0 2.5m-2.8 5.3c1.7 0 1.7-2.4 0-2.4-1.5 0-1.5 2.4 0 2.4m-9.9.8c1.6 0 1.6-2.5 0-2.5s-1.6 2.5 0 2.5m-.7 6.5c1.6 0 1.6-2.5 0-2.5s-1.6 2.5 0 2.5m-10.4 8c1.6 0 1.6-2.4 0-2.4s-1.6 2.5 0 2.5m4.2 3.9c1.6 0 1.6-2.6 0-2.6s-1.6 2.5 0 2.5m-2.2 4.2c1.5 0 1.5-2.4 0-2.4-1.6 0-1.6 2.4 0 2.4m-8.5 2.3c1.6 0 1.6-2.4 0-2.4s-1.6 2.4 0 2.4m-6.1-5c1.6 0 1.6-2.4 0-2.4s-1.6 2.4 0 2.4m7.3 1.6c1.6 0 1.6-2.5 0-2.5s-1.6 2.5 0 2.5m-8.8-7c1.5 0 1.5-2.4 0-2.4-1.6 0-1.6 2.5 0 2.5m4.9-4.6c1.6 0 1.6-2.5 0-2.5s-1.6 2.5 0 2.5m6.9-4.3c1.6 0 1.6-2.4 0-2.4s-1.6 2.4 0 2.4m-16.1-7.2c1.6 0 1.6-2.5 0-2.5-1.5 0-1.5 2.5 0 2.5m-4.6 5.7c1.6 0 1.6-2.5 0-2.5-1.5 0-1.5 2.5 0 2.5m-6-10c1.5 0 1.5-2.4 0-2.4-1.7 0-1.7 2.4 0 2.4m1.4-4.2c1.6 0 1.6-2.4 0-2.4-1.5 0-1.5 2.4 0 2.4m7.3-7.7c1.6 0 1.6-2.4 0-2.4s-1.6 2.4 0 2.4m-3-4.6c1.6 0 1.6-2.4 0-2.4s-1.6 2.4 0 2.4m28.7 22.3c1.6 0 1.6-2.5 0-2.5s-1.6 2.5 0 2.5m-11.1 1.1c1.6 0 1.6-2.4 0-2.4s-1.6 2.4 0 2.4m-3.1-3.4c1.6 0 1.6-2.5 0-2.5s-1.6 2.5 0 2.5m-3.8 5.4c1.6 0 1.6-2.5 0-2.5s-1.6 2.5 0 2.5m1.9-12.7c1.6 0 1.6-2.5 0-2.5s-1.6 2.5 0 2.5m-11.1 3.1c1.6 0 1.6-2.5 0-2.5s-1.6 2.5 0 2.5m0 16.9c1.6 0 1.6-2.5 0-2.5s-1.6 2.5 0 2.5m30.6 2.6c1.6 0 1.6-2.4 0-2.4s-1.6 2.4 0 2.4m8.1 1.5c1.6 0 1.6-2.4 0-2.4s-1.6 2.5 0 2.5m0-5.4c1.6 0 1.6-2.5 0-2.5s-1.6 2.5 0 2.5m7.3 0c1.5 0 1.5-2.5 0-2.5-1.6 0-1.6 2.5 0 2.5m-2.3 9.6c1.5 0 1.5-2.5 0-2.5-1.6 0-1.6 2.5 0 2.5m-4.6 3.4c1.6 0 1.6-2.4 0-2.4s-1.6 2.4 0 2.4M266 219c1.7 0 1.7-2.4 0-2.4-1.5 0-1.5 2.4 0 2.4m2.4-8c1.6 0 1.6-2.5 0-2.5s-1.6 2.5 0 2.5m17.2-31.9c1.6 0 1.6-2.4 0-2.4s-1.6 2.4 0 2.4"/>
  <g clip-path="url(#f)"><path fill="#000000" d="M286.8 194.1c1.5 0 1.5-2.5 0-2.5-1.6 0-1.6 2.5 0 2.5"/></g><path fill="#000000" d="M230.4 196.4c1.6 0 1.6-2.5 0-2.5-1.5 0-1.5 2.5 0 2.5m6.6-14.2c1.5 0 1.5-2.4 0-2.4-1.6 0-1.6 2.4 0 2.4m40.6.4c1.5 0 1.5-2.5 0-2.5-1.6 0-1.6 2.5 0 2.5M262.2 201c1.6 0 1.6-2.5 0-2.5s-1.6 2.5 0 2.5m-7.2-10c1.6 0 1.6-2.4 0-2.4s-1.6 2.4 0 2.4m30.2-3.8c1.6 0 1.6-2.5 0-2.5s-1.6 2.5 0 2.5m-1.2 11.5c1.7 0 1.7-2.5 0-2.5-1.5 0-1.5 2.5 0 2.5m-14.1-9.6c1.6 0 1.6-2.4 0-2.4s-1.6 2.4 0 2.4M250.4 210c1.2 0 1.2-2 0-2s-1.2 2 0 2m-12.3.3c1.2 0 1.2-1.9 0-1.9s-1.2 1.9 0 1.9m2.7-7.3c1.2 0 1.2-1.8 0-1.8s-1.2 1.8 0 1.8m-10-26c1.2 0 1.2-2 0-2s-1.2 2 0 2m22.2 3c1.2 0 1.2-1.9 0-1.9-1.1 0-1.1 1.9 0 1.9m16.1 3c1.2 0 1.2-1.8 0-1.8s-1.2 1.9 0 1.9m12.3-2.7c1.2 0 1.2-1.9 0-1.9s-1.2 1.9 0 1.9m-3.1 19.9c1.2 0 1.2-1.8 0-1.8s-1.2 1.8 0 1.8m3.6 8.5c1.2 0 1.2-1.9 0-1.9s-1.2 1.9 0 1.9m-21.2-19.6c1.2 0 1.2-1.9 0-1.9s-1.2 1.9 0 1.9m-1.9 5.4c1.2 0 1.2-1.9 0-1.9s-1.2 1.9 0 1.9m-15.8-5.8a.9.9 0 0 0 0-1.8c-1.1 0-1.1 1.8 0 1.8m-9.5 3.5c1.2 0 1.2-1.9 0-1.9s-1.2 1.9 0 1.9M110.8 67.4l.3-.3.4-.6c.8-.9 1.4-1.7 1.7-2.6.4-1 .4-2 .1-3.2l-.5-1.7a9.2 9.2 0 0 0-1.3-2.4 8.4 8.4 0 0 0-5-3 11.3 11.3 0 0 0-6.6.6c-.9.4-1.9 1-2.7 1.8l-1.1 1-1 1.5-.4 1.6-.2 1.5v.2a10.2 10.2 0 0 0 3.8 7c.5.5 1.3 1 2.2 1.2l1.4.4a9.6 9.6 0 0 0 7.3-1.3l1-1 .6-.8Zm0 0"/><g clip-path="url(#g)"><path fill="#000000" d="m79.3 99 1.4.4 1.6.1a8.2 8.2 0 0 0 3.7-1 8 8 0 0 0 2.3-1.8c.6-.8 1-1.8 1.3-3 .2-1 0-2 0-2.8v-.5c0-.3 0-.6-.2-.8v-.1a6 6 0 0 0-3-3.5h-.2a6.7 6.7 0 0 0-5.3-.5l-.7.4a9 9 0 0 0-4.5 7.7c0 1.3.4 2.5 1 3.5.6.7 1.5 1.4 2.6 1.9Zm0 0"/></g><path fill="#000000" d="M45.7 90c.3.6.8 1 1.2 1.3l1.7 1a9.8 9.8 0 0 0 8.3-.2l1.4-.9a11.5 11.5 0 0 0 3.6-4.7 17.2 17.2 0 0 0 1-4.6c0-.7 0-1.4-.3-2.3a11 11 0 0 0-2-3.8l-.6-.6-1-.7c0-.2-.3-.3-.5-.4l-.3-.2a7 7 0 0 0-3.2-1 8.3 8.3 0 0 0-4.6 1l-2 1.4a16.5 16.5 0 0 0-3.5 5.2c-.8 2.2-1 4.5-.6 6.5a7 7 0 0 0 1.4 3ZM60 60.1c.7.3 1.4.4 2 .3 1.3-.2 2.4-1 3-2 .4-.7.6-1.4.7-2.3v-.6l-.1-.6-.3-.9-.5-.7-.5-.5a3.2 3.2 0 0 0-3.6-.5h-.1c-.6.2-1 .5-1.6 1l-.6.8-.4 1a5.2 5.2 0 0 0 0 2c.1.6.4 1.2.7 1.8.4.5.8 1 1.4 1.2Zm0 0"/><g clip-path="url(#h)"><path fill="#000000" d="M108.3 18c.8.6 1.8.8 2.6.9h1.4a9.1 9.1 0 0 0 2.9-.9l.6-.4c.6-.3 1-.6 1.3-1l1-1.5c.3-.5.4-1 .5-1.7v-.8l-.1-.7-.5-1.3-.7-1.3-.1-.2a6.1 6.1 0 0 0-2.6-2.6 5.6 5.6 0 0 0-5.2 0l-.5.3a7 7 0 0 0-1.8 2l-1 2.3-.2 1.3a9.2 9.2 0 0 0 1 4.3l.5.6.9.8Zm0 0"/></g><path fill="#000000" d="M74.4 34.6a9.7 9.7 0 0 0 2.2 8l1.2 1.2a5 5 0 0 0 2.7 1.2c1.2.1 2.5 0 3.6-.7 1.6-.7 3-2 4.7-3.7l.2-.3 1.4-2c.4-.9.7-1.8.9-2.9v-1.6l-.5-1.6-.1-.3c0-.4 0-.7-.3-1l-.6-.8-.1-.2c-.9-1-1.7-1.9-2.6-2.5-1-.6-2-1-3.2-1.1-1 0-2.2.1-3.4.7a10 10 0 0 0-4.8 4.4c-.6 1-1 2-1.3 3.2Zm8.4 30.9c-.1-.3-.4-.4-.6-.6-.3-.3-.8-.5-1.2-.7-1-.4-2.2-.7-3.4-.6-.9 0-1.7.3-2.6.7a8.2 8.2 0 0 0-3 3c-.6 1-1 2-1 3a7 7 0 0 0 .8 3.4c.5.9 1.2 1.6 2.1 2.1a6 6 0 0 0 3.5.8 9 9 0 0 0 3.7-1.1l1.2-.8a7.5 7.5 0 0 0 2.3-3.2 6 6 0 0 0 0-3.5c-.3-.9-.8-1.7-1.6-2.3l-.2-.2ZM111.2 32l-.5-.4c-.4-.3-.8-.4-1.4-.6l-.3-.1c-1-.3-2.3-.1-3.5.4l-.2.1a6.3 6.3 0 0 0-2.3 2.3c-.6.8-1 2-1 3a8 8 0 0 0 .4 3.1l.6 1.4c.4.6.9 1.1 1.5 1.6.7.5 1.7.7 3 .7 1 0 2.1-.3 3.1-.8a5.8 5.8 0 0 0 3-4.2c0-.7.2-1.4.1-2 0-1-.2-1.9-.6-2.6-.3-.7-.8-1.2-1.5-1.6l-.4-.3Zm23.1-12.8 1.3.3c.6 0 1.2 0 1.8-.2a6.3 6.3 0 0 0 2.8-1.3c.5-.5 1-1 1.3-1.8.2-.2.2-.5.3-.8l.2-1v-.7c-.1-.8-.4-1.6-.6-2.2l-.4-.8c-.2-.5-.6-1-1-1.3l-.2-.4-1.2-1c-.9-.6-2-.8-3-.8s-2 .3-3 .8l-.2.2c-1 .5-1.8 1.4-2.4 2.6a5.5 5.5 0 0 0 .2 6c.9 1.2 2.2 2 4.1 2.4Zm-3.7 28.4.3-.2c.8-.5 1.5-1.2 2-2 .4-.6.6-1.3.8-2l.2-1.7c0-.8-.2-1.7-.6-2.5-.2-.5-.5-1-.9-1.4-.4-.6-1-1-2-1.4-.4-.3-1.1-.6-2-.7-.8-.2-1.7-.2-2.7 0-.4 0-.7.2-1.1.4a6.5 6.5 0 0 0-2.9 3.8c-.5 1.7-.3 3.4.4 5a6.3 6.3 0 0 0 4 3.3 7 7 0 0 0 4.5-.6Zm0 0"/><g clip-path="url(#i)"><path fill="#000000" d="M22.8 252.6a18.5 18.5 0 1 1 0 37 18.6 18.6 0 0 1-18.6-18.5c0-10.2 8.3-18.5 18.6-18.5"/></g><path fill="#000000" d="M68 257.8a13 13 0 0 1 13 12.8 13 13 0 0 1-26 0 13 13 0 0 1 13-12.8"/><g clip-path="url(#j)"><path fill="#000000" d="M43.2 269.9a17.3 17.3 0 0 1-33.5 5.8c-1.9-5.2-1-11 2-15.6a17.3 17.3 0 0 1 31.5 9.7c0 1.8 2.8 1.8 2.8 0A20.2 20.2 0 0 0 24.6 250a20 20 0 0 0-18.4 22.6 20.2 20.2 0 0 0 21.1 17.1A20.1 20.1 0 0 0 46 270c0-1.8-2.7-1.8-2.8 0"/></g><g clip-path="url(#k)"><path fill="#000000" d="M82.7 269.4c0 5.5-3.9 10-9.2 11.3-5.3 1.1-11-2-13-6.9-2.1-5-.2-11 4.3-14a12 12 0 0 1 14.7 1.6c2 2.1 3.2 5 3.2 8 0 1.8 2.8 1.8 2.8 0a14.3 14.3 0 0 0-8.2-12.8 14.6 14.6 0 0 0-15.4 2 14.3 14.3 0 0 0-4.5 14.7c1.5 5.2 6.1 9.2 11.4 10.1a14.4 14.4 0 0 0 16.7-14c0-1.7-2.8-1.7-2.8 0"/></g>
  </svg>