<?xml version="1.0" encoding="UTF-8"?>
<!DOCTYPE svg PUBLIC "-//W3C//DTD SVG 1.1//EN" "http://www.w3.org/Graphics/SVG/1.1/DTD/svg11.dtd">
<!-- Creator: luisangelmaciel -->
<svg xmlns="http://www.w3.org/2000/svg" xml:space="preserve" width="60.5458mm" height="69.2962mm" version="1.1" style="shape-rendering:geometricPrecision; text-rendering:geometricPrecision; image-rendering:optimizeQuality; fill-rule:evenodd; clip-rule:evenodd"
viewBox="0 0 6054.58 6929.62"
 xmlns:xlink="http://www.w3.org/1999/xlink"
 xmlns:xodm="http://www.corel.com/coreldraw/odm/2003">
 <g id="Capa_x0020_1">
  <metadata id="CorelCorpID_0Corel-Layer"/>
  <path fill="#191919" d="M3461.44 6590.56l1.5 -673.9 -1.74 -140.55 658.2 0.47c2.94,274.14 -4.83,550.3 1.93,823.68 5.21,210.31 -51.74,171.51 -240.84,173.4 -139.49,1.4 -278.78,3.41 -418.42,4.36l-0.63 -187.46zm-1.17 -1716.86c58.18,0.62 293.41,-6.09 326.28,-62.66 12.62,-21.72 18.46,-78.59 -2.16,-99.25 -41.2,-41.28 -201.12,73.64 -254.44,104.91 -62.38,36.6 -51.77,16.91 -69.68,57zm-1273.15 1900.95c-49.87,-7.58 -57.81,-28.78 -76.12,-81.3 -23.11,-71.06 -4.53,-788.11 0.05,-914.62l668.11 -4.31 3.08 998.45 -595.12 1.78zm711.98 -859.56l3.69 -138.79 433.31 3.38 5.75 993.68 -442.59 -0.11 -0.16 -858.16zm1497.86 382.12c24.55,-27.56 15.92,-46.27 45.88,-66.05l40.23 116.26 -68.43 -12.53 37.33 141.52 -75.15 -1.82 -44.69 -53.14 -1.38 69.73c-85.64,-8.27 -66.27,-47.22 -64.4,-132.97l82.78 9.59c-11.24,-26.61 -66.6,-46.26 -52.82,-87.49 17.17,-51.34 68.3,6.25 100.65,16.9zm-2524.02 75.58c65.77,8.12 27.77,-17.38 92.49,-12.77l0.88 105.89c-29.48,16.64 -32.6,22.51 -71.4,29.58l2.08 -85.53c-20.55,52.78 -58.89,68.36 -122.56,70.83 7.9,-54.17 40.08,-77.36 37.61,-141.19l-61.88 17.9 35.48 -127.47c40.41,31.79 22.91,49.79 45.92,79.03 24.7,-31.42 34.67,-53.05 67.73,-68.5 99.53,47.9 12.01,95.76 -26.35,132.23zm12.19 -405.21l74.22 -47.84c7.02,80.34 -16.6,89.4 -34.78,147.12 9.53,5.57 -0.61,8.49 40.94,-0.9l3.02 145.55c-76.03,11.91 -38.33,0.24 -60.77,-29.61l-77.64 39.23 18.2 -94.83c-38.16,20.61 -44.5,21.32 -97.77,29.27 20.06,-69.84 49.74,-110.74 41.5,-148.25 -10.71,-48.73 24.15,-85.81 40.22,-138.19l61.97 -7.5 -9.11 105.95zm2589.78 192.79l-103.37 -29.56 19.53 88.4c-47.16,-7.54 -24.11,-15.82 -59.86,-26.58 -54.17,-16.3 -2.35,8.41 -64.24,23.17l-3.08 -130.56c32.78,-10.87 56.94,2.66 29.43,-49.39 -37.03,-70.07 -35.66,-26.37 -16.14,-178.01 11.91,-92.54 -52.57,-51.64 66.76,-78.75 30.95,-7.03 22.44,-14.73 69.76,-15.39l17.42 62.86c-57.95,-18.37 -25.15,-18.77 -73.71,-33.97 23.47,81.1 90.54,190.72 117.5,367.78zm-1009.91 -621.85l-1.03 -383.43 811.98 -5.16 -0.26 499.16 -812.69 7.33 2 -117.9zm-124.54 -330.54l-2.26 441.82 -378.8 4.17 -59.26 -0.58 0.5 -496.3 437.85 -5.45 1.97 56.34zm-1399.04 -59.73l845.88 5.46 -11.65 493.08 -831.39 6.67 -2.84 -505.21zm-609.39 136.62c39.2,62.11 87.21,119.28 78.92,225.91 129.92,-34.85 146.6,28.79 201.14,115.55 35.3,56.16 45.58,60.93 12.98,122.63 -24.53,46.44 -40.06,70.24 -83.33,96.52 -106.76,64.83 -157.53,60.19 -215.81,-43.15 -71.75,-127.22 -9.91,-187.52 46.41,-253.8 -12,-17.08 -20.28,-42.77 -35.7,-55.4 -43.55,-35.66 -17.47,4.16 -42.84,19.24 -60.83,-152.39 -15.03,-95.48 38.23,-227.5zm3504.54 255.01c59.57,72.63 122.81,133.99 60.36,257.15 -33.18,65.41 -118.42,133.8 -217.52,119.05 -82.17,-12.24 -158.83,-103.91 -118.81,-203.07 29.65,-73.46 103.06,-172.96 146.29,-214.73l99.02 15.52c-16.81,-76.14 25.02,-211.24 79.89,-232.01l71.2 139.77c-41.35,22.44 -10.6,-10.71 -35.57,12.34 -15.52,14.33 -9.63,22.78 -24.55,39.95l-60.31 66.03zm-402.73 35.13c-18.22,-85.2 -7.96,-420.62 0.87,-520.98 16.28,19.36 38.02,41.23 56.45,63.53 27.5,33.29 139.9,212.36 149.34,245.62 -96.79,57.08 -150.22,128.39 -206.66,211.83zm-2647.67 -521.01c17.41,200.28 9.88,308.78 6.99,520.47 -66.64,-59.25 -121.78,-180.88 -227.66,-208.16 38.98,-98.16 160.77,-254.24 220.67,-312.31zm1201.07 -272.43c-24.48,-173.33 200.95,-168.2 238.83,-81.24 20.47,23.68 19.61,28.62 21.94,65.81 5.22,83.52 16.17,164.92 -86.68,170.29 -39.91,2.09 -132.62,2.38 -158.35,-16.43 -27.98,-20.47 -36.84,-104.87 -15.74,-138.43zm1365.93 241.06c-27.49,1.38 -131.04,6.33 -144.65,4.79l-19.42 -171.18c115.06,-92.62 88.83,-29.29 170.38,11.97 -14.39,15.2 -0.59,18.56 -62.04,16.54 -1.5,51.22 37.52,91.9 55.73,137.88zm-2411.8 -215.6l85.8 49.28 -15.34 179.46c-29.06,0.98 -28.01,1.71 -33.88,-24.68 -0.31,-1.39 -0.46,-4.16 -0.68,-5.51 -0.22,-1.3 -0.43,-4.16 -0.59,-5.33l-1.19 -10.07c-49.87,16.01 -43.06,31.85 -111.08,33.49 16.99,-56.92 43.96,-63.29 57.51,-125.21l-62.43 -19.2c22.14,-30.9 51.52,-47.57 81.88,-72.23zm490.14 -72.88c52.36,-34.58 134.08,18.12 182.21,50.61 48.84,32.96 115.03,66.58 156.27,103.13 -82.43,2.22 -158.41,-7.83 -233.38,-17.99 -79.27,-10.76 -150.28,-35.63 -105.1,-135.75zm2600.45 439.33c-93.22,-102.53 -16.42,-118.09 40.3,-201.22 15.34,-22.47 24.47,-46.84 40,-69.75 32.67,-48.19 64.17,-76.72 92.23,-120.1 17.77,-27.46 20.8,-44.73 38.84,-70.33 23.84,-33.84 36.94,-23.79 46.99,-63.4 68.41,80.65 -64.08,223.78 -94.74,277.17 -68.24,118.8 -39.12,46.97 -82.3,121.17 -15.35,26.39 -23.81,36.78 -40.02,61.83l-41.3 64.63zm-1094.68 -689.84c74.88,99.6 151.29,382.14 107.43,545.01 -125.55,22.01 -626.48,44.77 -694.52,-34.21 -22.57,-0.78 269.03,-3.79 358.04,-22.9 59.13,-12.69 108.86,-29.05 130.3,-73.13 21.55,-44.32 36.53,-118.7 23.91,-175.52 -48.88,-220.22 -529.11,48.77 -544.6,86.03 -13.95,-99.53 -29.49,-161.48 32.07,-212.26 154.21,-127.22 424.74,-274.19 587.37,-113.02zm-1049.89 511.11c-109.17,56.44 -186.14,52.72 -327.39,45.01 -58.64,-3.2 -362.69,3.4 -384.23,-20.67 -34.53,-38.67 21.09,-313.74 38.84,-372.37 35.14,-116.06 85.76,-217.14 217.95,-234.1 155.07,-19.9 365.45,106.93 471.65,200.91 40.55,35.88 21.49,112.69 14.36,186.82 -63.42,-38.59 -500.77,-299.33 -548.19,-82.87 -26.61,121.47 38.15,224.61 137.03,249.35 123.41,30.88 254.64,14.27 379.98,27.92zm-1732.25 234c-36.68,-40.23 -40.92,-70.38 -68.99,-117.62 -27.6,-46.45 -49.37,-68.9 -78.05,-109.88 -38.69,-55.26 -46.63,-102.07 -105.09,-173.53l-175.11 -306.69c-22.78,-36.19 -45.2,-67.25 -74.67,-113 -42.59,-66.11 -20.73,-137.6 25.64,-85.9 43.14,48.1 164.2,252.77 256.09,347.63l60.1 90.5c29.05,44.65 57.74,62.19 81.21,107.16 21.85,41.9 50.4,74.15 78.6,113.91 105.13,148.22 62.88,102.94 0.27,247.42zm-457.68 -1525.33c168.9,-104.57 518.43,-168.22 766.86,-147.01 -15.16,74.66 -35.29,95.92 -36.39,190.47 -1.04,89.68 12.44,122.24 20.99,200.22 -399.94,-166.53 -315.92,-143.1 -751.46,-243.68zm853.93 196.61c-18.99,-118.49 -47.75,-220.72 4.18,-343.8 48.13,-114.07 102.6,-155.11 250.17,-145.14l4.29 41.63 3.57 91.07c-10,7.48 -7.93,5.24 -22.78,11.55 -38.22,16.23 -121.41,22.89 -130.23,131.62l145 -5.41 3.15 87.22c-44.58,-7.82 -79.98,-16.2 -102.43,29.02 97.55,66.39 121.84,34.7 103.45,325.9 -138.96,22.3 -223.37,-119.4 -258.37,-223.66zm2866.16 -446.04l4.15 -44.18c141.13,-8.14 196.29,27.59 247.02,124.72 51.1,97.84 50.68,195.72 33.78,313.72 -34.15,156.04 -122.4,266.09 -282.29,287.4 -4.2,-62.27 -5.58,-167.14 0.35,-228.49 4.47,-46.21 64.49,-118.84 113.42,-103.45 -69.43,-102.5 -136.91,7.18 -108.7,-120.91 44.1,-19.1 96.52,-2.12 146.92,2.13 -11.14,-99.22 -66.84,-113.4 -155.33,-133.05l0.68 -97.89zm1086.83 -6.53c-31.91,-2.15 -91.38,-24.32 -128.95,-33.12 -59.1,-13.83 -79.14,-11.42 -132.03,-20.87 -99.02,-17.68 -206.01,-26.76 -311.86,-11.56 6.58,-31.85 29.5,-59.73 54.43,-78.48 -10.34,-45.55 -15.08,3.88 -9.9,-44.74l46.48 -52.05c128.54,15.88 391.82,180.91 481.83,240.82zm-3279.96 -225.44c76.38,65.73 35.72,29.8 133.48,2.38 254.54,-71.4 430.33,97.78 455.79,105.38 30.42,-31.02 55.28,-50.79 35.06,-89.09l-17.23 -29.33c62.78,-49.14 127.26,-117.06 204.57,-173.38 139.74,-101.79 627.85,-384.67 735.39,-398.1l82.69 277.66 -83.49 19.29c-156.68,49.46 -383.42,215.21 -415.01,337.96l59.16 45.23c77.66,-26.16 171.66,-118.63 299.99,-112.28l62.43 -8.45 -14.28 139.46 367.54 -214.22 -3.94 375.98 149.73 -68.86c-1.22,64.57 1.07,131.94 2.18,196.81 0.41,23.68 4.38,73.14 1.69,93.62 -14.02,106.7 -77.64,-73.67 25.76,245.26l-92.05 -2.8c24.6,36.07 71.39,46.52 78.61,103.91l-54.58 -20.31 86.91 205.35 -124.56 -25.86c0.04,56.26 -16.08,43.13 -3.84,82.24 9.21,29.42 17.09,6.88 15.93,57.49 -59.16,11.57 -20.45,-39.43 -64.02,40.03 14.47,33.23 52.89,64.75 41.61,121.57 -96.25,7.61 -100.63,-92.56 -158.46,-145.89 -132.92,-122.56 -146.21,-77.66 -201.65,-114.52l-135.81 1.07 -53.89 -122.91c10.25,38.72 41.4,87.92 24.22,121.07 -62.94,22.88 -62.28,4.42 -88.66,-37.01 -32.96,45.42 5.93,67.17 -63.66,104.01 -108.37,57.37 -211.59,130.49 -293.49,213.85 -317.78,-10.8 -150.11,13.32 -362.61,-132.98 -135.22,-93.09 -266.83,-164.28 -448.47,-145.23 -116.9,12.26 -130.27,53.76 -193.59,103.32l-13.39 -77.29c-21.62,31.31 -54.68,74.45 -95.38,83.2 -20.67,-45.97 -21.2,3.56 -15.54,-51.71 2.79,-27.28 9.41,-30.67 9.41,-60.7 -23.24,33.13 -37.48,59.28 -85.99,67.39l32.05 -91.27 -141.92 19.48c10.58,-50.33 27.73,-66.27 46.23,-101.7 19.78,-37.88 10.35,-65.92 29,-100.88l-47.71 -3.12 62.91 -56.19 1.36 -35.5 -38.56 0.93 -47.61 -2.25 85.08 -183.27c-24.47,-46.05 -36.89,3.38 -45.43,-58.77l2.46 -284.46 152.79 75.83 -0.26 -308.63c7.4,-158.77 -13.73,-118.34 78,-208.71 273.99,-269.95 377.42,-261.59 469.09,-337.53 -2.76,74.89 -53.86,146.44 -38.43,329.63 -105.85,-13.9 -191.49,-86.61 -325.07,-13.75 -157.4,85.86 -109.4,99.56 -62.54,247.55zm2770.61 -636.54c-107.36,32.01 -320.29,119.37 -336.49,123.69l-73.92 -253.6c161.12,1.05 711.45,-10.84 806.74,67.08 -206.27,9.03 -225.95,12.04 -396.33,62.83zm-4584.19 122.64l-30.85 -5.49c114.49,-66.59 163.18,-186.22 545.51,-327.82 157.63,-58.39 588.28,-146.08 740.41,-76.83l206.26 47.1c-19.34,49.21 -89.63,127.75 -124.09,217.44 -28.18,73.34 -77.06,179.4 -88.61,258.66 -78.24,-17.16 -179.44,-68.2 -282.7,-92.59 -343.84,-81.23 -625.48,-79.42 -965.93,-20.47zm3217.06 -2366.51l53.42 -58.22 162.65 815.12 69.6 305.24 35.17 196.35 51.27 267.29c-168.82,77.79 -333.4,88.46 -522.86,78.61 -156.06,-19.82 -285.57,-45.72 -419.4,-102.21 -79.83,-33.69 -288.21,-141.32 -318.96,-189.86l-114.07 -107.27 1003.18 -1205.05zm-1145.47 1103.9l-60.69 44.21c58.04,63.27 80.72,144.17 143.17,220.84 51.89,63.7 163.87,126.39 197.91,173.48l287.16 144.26c143.71,25.65 255.45,81.53 432.4,96.54 93.52,7.93 468.31,-6.27 492.1,2 167.51,58.25 265.17,324.39 213.31,544.23 -15.2,64.44 -51.4,128.43 -65.01,181.6 5.42,-28.28 37.25,-56.25 67.68,-68.46 -13.92,116.44 -115.93,207.24 -204.75,264.49 79.15,-382.67 64.68,-416.47 -72.48,-748.67 -237.74,96.3 -453.21,198.11 -649,331.99 -99.39,67.96 -193.64,133.99 -277.27,213.28 -41.91,39.74 -83.13,79.96 -122.69,122.53 -25.96,27.94 -93.4,122.87 -113.62,137.28l-20.9 36.55c-8.88,-234.58 12.67,-377.47 96.31,-575.77 54.56,-129.36 214.53,-331.95 292.86,-371.75l-50.75 -4.97c-5.51,8.05 -287.05,210.01 -300.35,215.43 -223.56,91.14 -454,231.44 -622.4,386.3 -45.1,41.48 -82.14,79.75 -122.65,131.24 -36.2,46.01 -65.07,97.52 -103.62,144.98l-98.64 208.59 -35.79 -96.03c-3.24,-140.54 -47.01,-223.6 -20.72,-388.19 20.19,-126.33 53.42,-212.6 106.65,-317.67 104.89,-207.06 250.45,-290.99 422.97,-421.7 -29.39,-97.92 -155.27,-294.78 -203.26,-368.14 -57.29,-87.59 -258.54,-325.14 -321.4,-372.39l-333.87 -368.5c-38.88,-41.33 -106.53,-105.21 -136.93,-148.97l-16.36 -9.85c198.51,4.62 571.92,119.44 734.84,195.59 255.02,119.19 384.93,209.36 564.29,360.34l-98.5 105.31zm-2172.53 2342.12c288.41,28.35 748.18,143.17 967.28,266.64l-13.75 187.01c205.67,45.82 472.32,82.49 615.63,199.98l-32.3 100.75 77.82 60.85c-12.79,27.92 -27.02,32.82 -52.79,56.78 -44.93,41.76 -15.31,25.59 -31.76,57.22 -36.82,3.73 -72.91,8.79 -97.27,25.69 -48.14,33.39 -19.65,35.4 -2.67,63.34 -66.49,27.83 -141.28,108 -177.37,153.28l47.02 28.86 -143.81 118.76c-21.23,-26.88 -32.54,-59.68 -62,-85.63 -89.91,-79.23 9.1,88.37 -235.62,-238.43 -122.88,-164.09 -298.93,-378.73 -407.09,-532.77 -45.5,-64.79 -125.28,-96.51 -204.58,-33.68 -131.61,104.27 49.63,328.1 109.67,425.11 123.04,198.82 223.87,392.33 352.63,587.05 46.62,70.5 56.5,162.04 105.04,208.26 130.25,124.02 -97.55,210.56 75.27,466.82 87.6,129.88 220.96,210.22 438.32,138.33 -6.11,38.85 -23.68,87.82 -34.02,127.75 -28.9,111.58 -16.26,70.07 35.21,117.39 -54.47,93.78 -59.44,96.42 -35.48,125.99 8.37,10.32 32.09,-35.47 -3.8,65.33 -10.71,30.1 -15.23,54.41 -12.4,87.72l150.3 5.09c19.94,53.5 154.02,190.17 200.13,227.78 128.36,104.69 99.11,104.97 310.83,121.53 262.04,20.49 579.15,14.87 844.75,15.32 283.43,0.49 562.46,-5.52 846.88,-14.39 232.97,-7.26 240.67,-8.13 440.79,-210.28 56.82,-57.41 58.45,-45.33 92.4,-123.19l158.67 6.02c17.24,-82.9 -32.87,-154.24 -21.86,-173 12.34,-21.01 51.82,2.81 11.88,-69.6 -16.15,-29.27 -31.26,-40.89 -36.76,-72.79l55.58 -17.68 -60.14 -225.4c179.04,89.51 353.74,-12.57 432.09,-123.86 40.67,-57.77 79.82,-145.98 70.83,-242.37 -10.22,-109.8 -80.44,-122.81 1.92,-226.39 60.73,-76.39 49.55,-128.05 103.94,-209.39 92.79,-138.75 268.16,-441.07 356.41,-591.46 63.72,-108.59 231.47,-291.16 115.88,-415.32 -143.52,-154.18 -258.81,93.77 -336.73,194.4 -104.74,135.28 -310.18,398.45 -401.71,538.15 -42.76,65.26 -45.47,9.83 -104.82,55.61 -34.43,26.56 -39.4,65.44 -67.95,95.52l-140.09 -123.76 46.43 -28.49c-21.07,-37.52 -124.42,-134.41 -176.08,-154.35 19.38,-29.81 47.64,-22.64 -6,-58.54 -33.94,-22.71 -51.99,-24.44 -95.76,-24.49 -7.24,-60.36 -59.73,-83.71 -91.33,-119.97l86.38 -54.97 -27.76 -114.01c105.61,23.58 67.7,29.37 169.04,-7.63 112.74,-41.16 390.42,-142.25 473.79,-186.06l-54.34 -185.61 331.64 -180.92c93.2,-78.32 597.19,-252.62 637.96,-285.4 -49.84,-75 -229.74,-224.41 -321.73,-288.1 -58.59,-40.56 -119.86,-80.5 -186.34,-118.52 -27.86,-15.93 -190.24,-93.23 -201.38,-104.18l730.81 -578.69c-79.78,-60.3 -506.86,-147.25 -640.68,-171.61 -238.28,-43.38 -507.79,-45.31 -757.89,-46.39 -73.07,-123.97 -196.78,-261.42 -298.8,-336 -74.65,-54.58 -70.87,-126.42 -93.8,-227.59 -19.49,-86 -34.83,-171.12 -54.81,-258.07 -79.59,-346.4 -150.46,-703.09 -222.02,-1048.09 -15.14,-72.98 -32.47,-209.6 -69.64,-252.46 -56.49,-65.12 -163.57,-52.74 -220.75,9.27 -99.11,107.49 -203.49,222.92 -294.7,340.17l-577.38 683.27c-420.35,-352.84 -1024.28,-599.03 -1757.75,-622.3 20.88,92.08 111.7,288.3 152.15,383.15 49.71,116.57 104.68,253.96 148.55,376.05 58.77,163.59 238.42,625.92 268.57,767.92 -71.23,12.59 -169.13,10.7 -248.24,21.39 -213.73,28.87 -430.57,99.39 -609.46,203.25 -201.98,117.25 -460.25,320.87 -544.85,530.13 322.79,49.29 791.3,248.25 1016.54,407.2 -45.34,31.11 -281.88,89.46 -469.06,217.12 -101.29,69.08 -193.59,144.14 -280.82,227.12 -69.01,65.67 -84.36,68.31 -60.89,87.46z"/>
  <path fill="#DADADA" d="M2344.03 3662.33c-76.39,-318.68 379.07,-408.52 441,-114.71 65.6,311.25 -370.22,410.03 -441,114.71zm504.72 -421.64c20.22,38.3 -4.64,58.07 -35.06,89.09 -25.46,-7.6 -201.25,-176.78 -455.79,-105.38 -97.76,27.42 -57.1,63.35 -133.48,-2.38l-42.36 -2.33 -3.32 -48.46c-23.95,-0.01 -37.54,-2.76 -56.29,12.99 -1.36,1.14 -3.45,3.19 -4.69,4.33l-14.39 16.28 0.26 308.63 -152.79 -75.83 -2.46 284.46c8.54,62.15 20.96,12.72 45.43,58.77l-85.08 183.27 47.61 2.25 38.35 -15.2 14.69 -168.51 296.91 7.59 0.21 139.55 162.42 16.11c-25.18,48.31 -92.5,96.98 -97.49,165.36l310.35 1.17 -41.1 -217.74 942.49 -4.14 -24.3 199.68c7.06,33.9 -19.42,19.34 25.29,24.21l268.32 -7.12c-8.64,-85.49 -69.53,-103.16 -98.23,-165.65l157.37 -12.25 -16.9 -141.09 195.67 -4.78 -26.39 -178.6 -52.19 50.76c10.23,-52.33 73.78,-216.07 12.62,-259.96 -7.46,-2.45 -114.42,-1.83 -151.55,11.92l-36.94 24.84c176.54,146.94 2.76,506.49 -262.46,384.69 -214.49,-98.49 -145.72,-491.78 146.4,-449.39 2.74,-30.64 4.66,-60.35 7.14,-88.27 3.51,-39.41 13.05,-62.08 -12.2,-71.82 -128.33,-6.35 -222.33,86.12 -299.99,112.28l-59.16 -45.23c31.59,-122.75 258.33,-288.5 415.01,-337.96l-40.81 -97.32c-98.49,-9.13 -382.34,118.36 -457.03,155.27 -160.52,79.33 -226.47,155.62 -341.62,267.02l-78.87 -57.78 -3.6 36.67z"/>
  <path fill="#818182" d="M1784.72 3179.68l35.79 96.03 98.64 -208.59c-0.57,-1.75 -2.85,-3.62 -3.45,-4.28l-6.4 -7.23c-9.44,-9.4 -26.56,-14.39 -4.84,-57.7 149.86,-298.69 460.63,-555 758.47,-696.83 140.61,-66.96 245.6,-92.97 405.24,-111.91l50.75 4.97c56.92,-21.48 6.26,-39.02 117.89,-37.47 54.3,0.76 90.9,-8.84 125.51,0.62 56.44,15.43 206.9,26.69 245.32,48.77 -33.36,31.4 -212.55,118.53 -277.61,160.64 -242.82,157.14 -532.15,411.59 -579.38,738.41 20.22,-14.41 87.66,-109.34 113.62,-137.28 39.56,-42.57 80.78,-82.79 122.69,-122.53 83.63,-79.29 177.88,-145.32 277.27,-213.28 195.79,-133.88 411.26,-235.69 649,-331.99 137.16,332.2 151.63,366 72.48,748.67 88.82,-57.25 190.83,-148.05 204.75,-264.49 -30.43,12.21 -62.26,40.18 -67.68,68.46 13.61,-53.17 49.81,-117.16 65.01,-181.6 51.86,-219.84 -45.8,-485.98 -213.31,-544.23 -23.79,-8.27 -398.58,5.93 -492.1,-2 -176.95,-15.01 -288.69,-70.89 -432.4,-96.54 -21.82,23.76 -11.93,11.42 -57.27,17.88 -106.21,15.13 -257.57,63.74 -351.47,105.81 -123.72,55.42 -229.83,118.75 -328.42,196.56 -128.59,101.5 -276.2,277.05 -351.07,436.44 -68.58,146.01 -51.92,123.18 -135.52,123.39 -8.26,38.18 -17.42,90.01 -19.76,130.41l-5.19 107.55c-8.32,29.12 0.86,14.01 -16.56,33.34z"/>
  <path fill="#818182" d="M2111 6693.35c18.31,52.52 26.25,73.72 76.12,81.3l-10.39 -117.4c-47.6,104.99 550.72,-38.87 599.36,-40.8l2.5 -701.95 -667.59 1.16 0 777.69z"/>
  <path fill="#818182" d="M2293.62 2052.12c64.5,-24.31 126.4,-71.2 216.76,-100.67 75.97,-24.78 185.48,-57.33 252.44,-67.41 -34.04,-47.09 -146.02,-109.78 -197.91,-173.48 -62.45,-76.67 -85.13,-157.57 -143.17,-220.84l60.69 -44.21c-44.03,-13.68 -207.21,-165.44 -272.93,-209.19 -161.26,-107.35 -43.3,9.95 -147.24,-54.73 -49.42,-30.74 -92.53,-58.49 -144.17,-85.38 -104.47,-54.39 -208.31,-103.85 -313.52,-151.91 -57.69,-26.35 -93.44,-50.58 -155.81,-69.54 -35.67,-10.84 -105.9,-58.54 -150.6,-80.64 30.4,43.76 98.05,107.64 136.93,148.97l333.87 368.5c62.86,47.25 264.11,284.8 321.4,372.39 47.99,73.36 173.87,270.22 203.26,368.14z"/>
  <path fill2="#FBFCFC" d="M2738.79 1653.93c40.61,-6.38 142.48,-166.38 184.97,-208.8 106.31,59.82 167.87,118.8 313.44,167.69 120.74,40.55 263.9,71.3 410.93,64.75l6.36 -252.76c-171.94,33.56 -496.77,-85.91 -586.04,-175.48l151.71 -218.98c112.66,34.19 155.48,114.07 424.8,110.63l-3.94 -251.9c-112.86,-10.4 -189.94,-19.71 -268.64,-71.55l214.36 -361.62c9.77,-16.45 72.24,-118.46 41.16,-114.3l-1003.18 1205.05 114.07 107.27z"/>
  <polygon fill="#818182" points="1944.26,5653.46 2775.65,5646.79 2787.3,5153.71 1941.42,5148.25 "/>
  <path fill="#595959" d="M3462.94 5916.66l417.09 7.56c17.34,58.71 6.49,196.29 7.11,269.63 0.94,110.15 -12.82,147.18 -68.41,209.12 -57.95,64.56 -235.32,187.68 -357.29,187.59l0.63 187.46c139.64,-0.95 278.93,-2.96 418.42,-4.36 189.1,-1.89 246.05,36.91 240.84,-173.4 -6.76,-273.38 1.01,-549.54 -1.93,-823.68l-658.2 -0.47 1.74 140.55z"/>
  <path fill="#DADADA" d="M2293.62 2052.12c-172.52,130.71 -318.08,214.64 -422.97,421.7 -53.23,105.07 -86.46,191.34 -106.65,317.67 -26.29,164.59 17.48,247.65 20.72,388.19 17.42,-19.33 8.24,-4.22 16.56,-33.34l5.19 -107.55c2.34,-40.4 11.5,-92.23 19.76,-130.41 83.6,-0.21 66.94,22.62 135.52,-123.39 74.87,-159.39 222.48,-334.94 351.07,-436.44 98.59,-77.81 204.7,-141.14 328.42,-196.56 93.9,-42.07 245.26,-90.68 351.47,-105.81 45.34,-6.46 35.45,5.88 57.27,-17.88l-287.16 -144.26c-66.96,10.08 -176.47,42.63 -252.44,67.41 -90.36,29.47 -152.26,76.36 -216.76,100.67z"/>
  <path fill="#818182" d="M3714.82 3207.74c25.25,9.74 15.71,32.41 12.2,71.82 -2.48,27.92 -4.4,57.63 -7.14,88.27 51.67,15.61 82.2,44.68 116.06,64.7l36.94 -24.84c37.13,-13.75 144.09,-14.37 151.55,-11.92 61.16,43.89 -2.39,207.63 -12.62,259.96l52.19 -50.76 26.39 178.6 -195.67 4.78 16.9 141.09 -157.37 12.25c28.7,62.49 89.59,80.16 98.23,165.65l-268.32 7.12c-44.71,-4.87 -18.23,9.69 -25.29,-24.21l-16.1 44.33c29.15,-10.91 286.56,-11.85 303.43,-8.25 46.91,10 15.95,21.9 68.35,39.2l-37.96 -129.62c51.84,-4.2 120.38,-14.95 153.02,19.03 18.8,19.57 51.55,86.6 53.86,122.97 -68.81,-12.33 -51.85,-54.34 -121.26,-60.66 6.58,64.45 62.26,73 51.15,148.98 -96.55,1.96 -69.67,27.06 -141.33,-24.87l-42.2 27.19c55.44,36.86 68.73,-8.04 201.65,114.52 57.83,53.33 62.21,153.5 158.46,145.89 11.28,-56.82 -27.14,-88.34 -41.61,-121.57 43.57,-79.46 4.86,-28.46 64.02,-40.03 1.16,-50.61 -6.72,-28.07 -15.93,-57.49 -12.24,-39.11 3.88,-25.98 3.84,-82.24l124.56 25.86 -86.91 -205.35 54.58 20.31c-7.22,-57.39 -54.01,-67.84 -78.61,-103.91l92.05 2.8c-103.4,-318.93 -39.78,-138.56 -25.76,-245.26 2.69,-20.48 -1.28,-69.94 -1.69,-93.62 -1.11,-64.87 -3.4,-132.24 -2.18,-196.81l-149.73 68.86 3.94 -375.98 -367.54 214.22 14.28 -139.46 -62.43 8.45z"/>
  <path fill="#818182" d="M3627.9 341.61c31.08,-4.16 -31.39,97.85 -41.16,114.3l-214.36 361.62c78.7,51.84 155.78,61.15 268.64,71.55l3.94 251.9c-269.32,3.44 -312.14,-76.44 -424.8,-110.63l-151.71 218.98c89.27,89.57 414.1,209.04 586.04,175.48l4.03 -276.87c59.27,-14.97 150.06,-15.04 185.45,-49.43l-162.65 -815.12 -53.42 58.22z"/>
  <path fill="#191919" d="M2920.52 4365.06c29.37,-120.77 346.99,-113.07 391.67,-8.47 -57.26,85.85 -313.94,79.38 -391.67,8.47zm536.31 -406.4c-16.9,106.64 -203.81,87.23 -312.94,86.57 -103.65,-0.63 -306.49,16.79 -359.64,-49.37 -55.77,-69.44 35.92,-51.11 97.16,-50.23 67.47,0.98 132.51,-4.36 200.12,1.36 79.06,6.69 316.68,-21.87 375.3,11.67zm-775.05 153.79l7.62 14.28c51.65,168.5 211.27,329.83 421.49,338.75 117.73,4.99 206.24,-53.55 272.26,-106.53 88.79,-71.25 97.54,-122.31 159.62,-224.37l16.1 -44.33 24.3 -199.68 -942.49 4.14 41.1 217.74z"/>
  <path fill="#DADADA" d="M1993.54 4000.95l-62.91 56.19 47.71 3.12c-18.65,34.96 -9.22,63 -29,100.88 -18.5,35.43 -35.65,51.37 -46.23,101.7l141.92 -19.48 -32.05 91.27c48.51,-8.11 62.75,-34.26 85.99,-67.39 0,30.03 -6.62,33.42 -9.41,60.7 -5.66,55.27 -5.13,5.74 15.54,51.71 40.7,-8.75 73.76,-51.89 95.38,-83.2l13.39 77.29c63.32,-49.56 76.69,-91.06 193.59,-103.32 181.64,-19.05 313.25,52.14 448.47,145.23 212.5,146.3 44.83,122.18 362.61,132.98 81.9,-83.36 185.12,-156.48 293.49,-213.85 69.59,-36.84 30.7,-58.59 63.66,-104.01 26.38,41.43 25.72,59.89 88.66,37.01 17.18,-33.15 -13.97,-82.35 -24.22,-121.07l53.89 122.91 135.81 -1.07 42.2 -27.19c71.66,51.93 44.78,26.83 141.33,24.87 11.11,-75.98 -44.57,-84.53 -51.15,-148.98 69.41,6.32 52.45,48.33 121.26,60.66 -2.31,-36.37 -35.06,-103.4 -53.86,-122.97 -32.64,-33.98 -101.18,-23.23 -153.02,-19.03l37.96 129.62c-52.4,-17.3 -21.44,-29.2 -68.35,-39.2 -16.87,-3.6 -274.28,-2.66 -303.43,8.25 -62.08,102.06 -70.83,153.12 -159.62,224.37 -66.02,52.98 -154.53,111.52 -272.26,106.53 -210.22,-8.92 -369.84,-170.25 -421.49,-338.75l-378.1 11.51 40.05 -105.34c-81.2,-0.4 -166.04,-29.15 -194.18,32.6 3.35,-36.33 -18.45,-41.53 -49,-27.8 -34.34,15.43 0.63,27.52 -39.54,41.93 -35.72,-60.76 33.98,-116.97 -75.09,-78.68z"/>
  <path fill="#818182" d="M3654.49 1424.81l-6.36 252.76c-147.03,6.55 -290.19,-24.2 -410.93,-64.75 -145.57,-48.89 -207.13,-107.87 -313.44,-167.69 -42.49,42.42 -144.36,202.42 -184.97,208.8 30.75,48.54 239.13,156.17 318.96,189.86 133.83,56.49 263.34,82.39 419.4,102.21 94.34,-60.58 135.54,-114.48 203.8,-188.67l-22.07 -75.86c82.49,-2.72 261.12,-14.66 289.86,-81.37l-35.17 -196.35 -14.96 -23.5 -244.12 44.56z"/>
  <path fill="#DADADA" d="M2887.39 4994.75c-125.34,-13.65 -256.57,2.96 -379.98,-27.92 -98.88,-24.74 -163.64,-127.88 -137.03,-249.35 47.42,-216.46 484.77,44.28 548.19,82.87 7.13,-74.13 26.19,-150.94 -14.36,-186.82 -106.2,-93.98 -316.58,-220.81 -471.65,-200.91 -132.19,16.96 -182.81,118.04 -217.95,234.1 -17.75,58.63 -73.37,333.7 -38.84,372.37 21.54,24.07 325.59,17.47 384.23,20.67 141.25,7.71 218.22,11.43 327.39,-45.01z"/>
  <path fill="#818182" d="M3461.44 6590.56c121.97,0.09 299.34,-123.03 357.29,-187.59 55.59,-61.94 69.35,-98.97 68.41,-209.12 -0.62,-73.34 10.23,-210.92 -7.11,-269.63l-417.09 -7.56 -1.5 673.9z"/>
  <path fill="#818182" d="M2899.1 5915.09l318.59 9.96c-2.73,112.69 14.03,392.09 -8.04,477.83 -26.41,102.61 -188.45,177.23 -311.36,188.87l0.81 -676.66zm0 0l0.16 858.16 442.59 0.11 -5.75 -993.68 -433.31 -3.38 -3.69 138.79z"/>
  <path fill="#DADADA" d="M410.84 2708.12c16.19,-25.75 217.69,-118.74 234.63,-115.54l-85.91 35.03c28.43,18.25 128.63,-40.5 236.7,-61.2 234.27,-44.88 645.53,-45.83 857.5,18.31 14.97,-23.34 33.88,-103.22 43.9,-139.75 17.48,-63.77 -18.12,-99.63 -31.75,-146.99 -152.13,-69.25 -582.78,18.44 -740.41,76.83 -382.33,141.6 -431.02,261.23 -545.51,327.82l30.85 5.49z"/>
  <path fill="#B3B3B3" d="M3465 5538.52l556.61 -1.46c25.07,-36.02 9.35,-266.46 8.47,-328.14l248.31 -1.51 -2.44 -57.48 -811.98 5.16 1.03 383.43z"/>
  <path fill="#DADADA" d="M3118.92 2194.14c-78.33,39.8 -238.3,242.39 -292.86,371.75 -83.64,198.3 -105.19,341.19 -96.31,575.77l20.9 -36.55c47.23,-326.82 336.56,-581.27 579.38,-738.41 65.06,-42.11 244.25,-129.24 277.61,-160.64 -38.42,-22.08 -188.88,-33.34 -245.32,-48.77 -34.61,-9.46 -71.21,0.14 -125.51,-0.62 -111.63,-1.55 -60.97,15.99 -117.89,37.47z"/>
  <path fill="#818182" d="M410.84 2708.12c340.45,-58.95 622.09,-60.76 965.93,20.47 103.26,24.39 204.46,75.43 282.7,92.59 11.55,-79.26 60.43,-185.32 88.61,-258.66 34.46,-89.69 104.75,-168.23 124.09,-217.44l-206.26 -47.1c13.63,47.36 49.23,83.22 31.75,146.99 -10.02,36.53 -28.93,116.41 -43.9,139.75 -211.97,-64.14 -623.23,-63.19 -857.5,-18.31 -108.07,20.7 -208.27,79.45 -236.7,61.2l85.91 -35.03c-16.94,-3.2 -218.44,89.79 -234.63,115.54z"/>
  <path fill="#DADADA" d="M2899.1 5915.09l-0.81 676.66c122.91,-11.64 284.95,-86.26 311.36,-188.87 22.07,-85.74 5.31,-365.14 8.04,-477.83l-318.59 -9.96z"/>
  <path fill="#595959" d="M3465 5538.52l-2 117.9 812.69 -7.33 0.26 -499.16 2.44 57.48 -248.31 1.51c0.88,61.68 16.6,292.12 -8.47,328.14l-556.61 1.46z"/>
  <path fill="#191919" d="M3835.94 3432.53c-33.86,-20.02 -64.39,-49.09 -116.06,-64.7 -292.12,-42.39 -360.89,350.9 -146.4,449.39 265.22,121.8 439,-237.75 262.46,-384.69z"/>
  <path fill="#191919" d="M2344.03 3662.33c70.78,295.32 506.6,196.54 441,-114.71 -61.93,-293.81 -517.39,-203.97 -441,114.71z"/>
  <path fill2="#FBFCFC" d="M1298.16 794.12c44.7,22.1 114.93,69.8 150.6,80.64 62.37,18.96 98.12,43.19 155.81,69.54 105.21,48.06 209.05,97.52 313.52,151.91 51.64,26.89 94.75,54.64 144.17,85.38 103.94,64.68 -14.02,-52.62 147.24,54.73 65.72,43.75 228.9,195.51 272.93,209.19l98.5 -105.31c-179.36,-150.98 -309.27,-241.15 -564.29,-360.34 -162.92,-76.15 -536.33,-190.97 -734.84,-195.59l16.36 9.85z"/>
  <path fill="#595959" d="M2111 6693.35l0 -777.69 667.59 -1.16 -2.5 701.95c-48.64,1.93 -646.96,145.79 -599.36,40.8l10.39 117.4 595.12 -1.78 -3.08 -998.45 -668.11 4.31c-4.58,126.51 -23.16,843.56 -0.05,914.62z"/>
  <path fill="#818182" d="M697.46 3703.42c435.54,100.58 351.52,77.15 751.46,243.68 -8.55,-77.98 -22.03,-110.54 -20.99,-200.22 1.1,-94.55 21.23,-115.81 36.39,-190.47 -248.43,-21.21 -597.96,42.44 -766.86,147.01z"/>
  <path fill="#DADADA" d="M3350.19 4994.44c153.9,37.11 379.97,34.08 481.76,-51.87 31.39,-26.5 43.22,-45.15 59.11,-61.07 26.75,-26.8 33.81,-62.17 35.68,-109.67 3.29,-83.21 -10.74,-179.76 -51.9,-226.5 55.17,38.72 63.98,4.75 62.44,-61.69 -162.63,-161.17 -433.16,-14.2 -587.37,113.02 -61.56,50.78 -46.02,112.73 -32.07,212.26 15.49,-37.26 495.72,-306.25 544.6,-86.03 12.62,56.82 -2.36,131.2 -23.91,175.52 -21.44,44.08 -71.17,60.44 -130.3,73.13 -89.01,19.11 -380.61,22.12 -358.04,22.9z"/>
  <path fill="#595959" d="M1919.15 3067.12c38.55,-47.46 67.42,-98.97 103.62,-144.98 40.51,-51.49 77.55,-89.76 122.65,-131.24 168.4,-154.86 398.84,-295.16 622.4,-386.3 13.3,-5.42 294.84,-207.38 300.35,-215.43 -159.64,18.94 -264.63,44.95 -405.24,111.91 -297.84,141.83 -608.61,398.14 -758.47,696.83 -21.72,43.31 -4.6,48.3 4.84,57.7l6.4 7.23c0.6,0.66 2.88,2.53 3.45,4.28z"/>
  <path fill="#B3B3B3" d="M4896.88 5473.85c14.92,-17.17 9.03,-25.62 24.55,-39.95 24.97,-23.05 -5.78,10.1 35.57,-12.34l-71.2 -139.77c-54.87,20.77 -96.7,155.87 -79.89,232.01l-99.02 -15.52c-43.23,41.77 -116.64,141.27 -146.29,214.73 -40.02,99.16 36.64,190.83 118.81,203.07 99.1,14.75 184.34,-53.64 217.52,-119.05 62.45,-123.16 -0.79,-184.52 -60.36,-257.15l60.31 -66.03z"/>
  <polygon fill="#DADADA" points="2959.4,5653.97 2957.62,5539.08 3215.15,5539.33 3218.74,5207.84 3340.46,5207.98 3338.49,5151.64 2900.64,5157.09 2900.14,5653.39 "/>
  <path fill="#818182" d="M2848.75 3240.69l3.6 -36.67 78.87 57.78c115.15,-111.4 181.1,-187.69 341.62,-267.02 74.69,-36.91 358.54,-164.4 457.03,-155.27l40.81 97.32 83.49 -19.29 -82.69 -277.66c-107.54,13.43 -595.65,296.31 -735.39,398.1 -77.31,56.32 -141.79,124.24 -204.57,173.38l17.23 29.33z"/>
  <path fill="#B3B3B3" d="M1332.03 5284.87c-53.26,132.02 -99.06,75.11 -38.23,227.5 25.37,-15.08 -0.71,-54.9 42.84,-19.24 15.42,12.63 23.7,38.32 35.7,55.4 -56.32,66.28 -118.16,126.58 -46.41,253.8 58.28,103.34 109.05,107.98 215.81,43.15 43.27,-26.28 58.8,-50.08 83.33,-96.52 32.6,-61.7 22.32,-66.47 -12.98,-122.63 -54.54,-86.76 -71.22,-150.4 -201.14,-115.55 8.29,-106.63 -39.72,-163.8 -78.92,-225.91z"/>
  <path fill="#B3B3B3" d="M903.01 4827.72c58.46,71.46 66.4,118.27 105.09,173.53 28.68,40.98 50.45,63.43 78.05,109.88 28.07,47.24 32.31,77.39 68.99,117.62 62.61,-144.48 104.86,-99.2 -0.27,-247.42 -28.2,-39.76 -56.75,-72.01 -78.6,-113.91 -23.47,-44.97 -52.16,-62.51 -81.21,-107.16l-60.1 -90.5c-91.89,-94.86 -212.95,-299.53 -256.09,-347.63 -46.37,-51.7 -68.23,19.79 -25.64,85.9 29.47,45.75 51.89,76.81 74.67,113l175.11 306.69z"/>
  <path fill="#DADADA" d="M4658.54 2709.17c16.2,-4.32 229.13,-91.68 336.49,-123.69 170.38,-50.79 190.06,-53.8 396.33,-62.83 -95.29,-77.92 -645.62,-66.03 -806.74,-67.08l73.92 253.6z"/>
  <path fill="#818182" d="M1956.34 3966.38l38.56 -0.93 -1.36 35.5c109.07,-38.29 39.37,17.92 75.09,78.68 40.17,-14.41 5.2,-26.5 39.54,-41.93 30.55,-13.73 52.35,-8.53 49,27.8 28.14,-61.75 112.98,-33 194.18,-32.6l-40.05 105.34 378.1 -11.51 -7.62 -14.28 -310.35 -1.17c4.99,-68.38 72.31,-117.05 97.49,-165.36l-162.42 -16.11 -0.21 -139.55 -296.91 -7.59 -14.69 168.51 -38.35 15.2z"/>
  <path fill="#595959" d="M3477.15 1946c189.46,9.85 354.04,-0.82 522.86,-78.61l-51.27 -267.29c-28.74,66.71 -207.37,78.65 -289.86,81.37l22.07 75.86c-68.26,74.19 -109.46,128.09 -203.8,188.67z"/>
  <path fill="#818182" d="M4702.5 3848.25c-16.05,-18.86 -12.21,-35.18 -43.07,-49.14 -36.94,62.8 -81.14,145.34 -153.77,162.15 13.47,-51.76 53.37,-72.38 72.8,-134.89 13.1,-42.15 29.59,-114.71 20.94,-157.75 -20.34,-101.28 -108,-185.15 -181.85,-214.63l-0.68 97.89c88.49,19.65 144.19,33.83 155.33,133.05 -50.4,-4.25 -102.82,-21.23 -146.92,-2.13 -28.21,128.09 39.27,18.41 108.7,120.91 -48.93,-15.39 -108.95,57.24 -113.42,103.45 -5.93,61.35 -4.55,166.22 -0.35,228.49 159.89,-21.31 248.14,-131.36 282.29,-287.4z"/>
  <path fill="#818182" d="M3350.19 4994.44c68.04,78.98 568.97,56.22 694.52,34.21 43.86,-162.87 -32.55,-445.41 -107.43,-545.01 1.54,66.44 -7.27,100.41 -62.44,61.69 41.16,46.74 55.19,143.29 51.9,226.5 -1.87,47.5 -8.93,82.87 -35.68,109.67 -15.89,15.92 -27.72,34.57 -59.11,61.07 -101.79,85.95 -327.86,88.98 -481.76,51.87z"/>
  <path fill="#818182" d="M1551.39 3900.03c35,104.26 119.41,245.96 258.37,223.66 18.39,-291.2 -5.9,-259.51 -103.45,-325.9 22.45,-45.22 57.85,-36.84 102.43,-29.02l-3.15 -87.22 -145 5.41c8.82,-108.73 92.01,-115.39 130.23,-131.62 14.85,-6.31 12.78,-4.07 22.78,-11.55l-3.57 -91.07c-64.57,27.22 -167.21,126.14 -176.49,219.32 -5.11,51.33 11.63,122.49 28.61,168.05 21.98,58.96 62.21,91.76 71.15,122.25 -89.32,-5.52 -131.03,-150.3 -164.21,-161.68 -15.4,34.69 1.48,72.45 -17.7,99.37z"/>
  <polygon fill="#818182" points="2959.4,5653.97 3338.2,5649.8 3340.46,5207.98 3218.74,5207.84 3215.15,5539.33 2957.62,5539.08 "/>
  <path fill="#818182" d="M2103.37 3204.83l14.39 -16.28c1.24,-1.14 3.33,-3.19 4.69,-4.33 18.75,-15.75 32.34,-13 56.29,-12.99l3.32 48.46 42.36 2.33c-46.86,-147.99 -94.86,-161.69 62.54,-247.55 133.58,-72.86 219.22,-0.15 325.07,13.75 -15.43,-183.19 35.67,-254.74 38.43,-329.63 -91.67,75.94 -195.1,67.58 -469.09,337.53 -91.73,90.37 -70.6,49.94 -78,208.71z"/>
  <path fill2="#FBFCFC" d="M3143.89 4045.23c109.13,0.66 296.04,20.07 312.94,-86.57 -58.62,-33.54 -296.24,-4.98 -375.3,-11.67 -67.61,-5.72 -132.65,-0.38 -200.12,-1.36 -61.24,-0.88 -152.93,-19.21 -97.16,50.23 53.15,66.16 255.99,48.74 359.64,49.37z"/>
  <path fill="#818182" d="M4474.91 6160.37c-26.96,-177.06 -94.03,-286.68 -117.5,-367.78 48.56,15.2 15.76,15.6 73.71,33.97l-17.42 -62.86c-47.32,0.66 -38.81,8.36 -69.76,15.39 -119.33,27.11 -54.85,-13.79 -66.76,78.75 -19.52,151.64 -20.89,107.94 16.14,178.01 27.51,52.05 3.35,38.52 -29.43,49.39l3.08 130.56c61.89,-14.76 10.07,-39.47 64.24,-23.17 35.75,10.76 12.7,19.04 59.86,26.58l-19.53 -88.4 103.37 29.56z"/>
  <path fill="#595959" d="M3654.49 1424.81l244.12 -44.56 14.96 23.5 -69.6 -305.24c-35.39,34.39 -126.18,34.46 -185.45,49.43l-4.03 276.87z"/>
  <path fill="#DADADA" d="M1786.17 5054c-59.9,58.07 -181.69,214.15 -220.67,312.31 105.88,27.28 161.02,148.91 227.66,208.16 2.89,-211.69 10.42,-320.19 -6.99,-520.47z"/>
  <path fill="#DADADA" d="M4417.55 3453.99c73.85,29.48 161.51,113.35 181.85,214.63 8.65,43.04 -7.84,115.6 -20.94,157.75 -19.43,62.51 -59.33,83.13 -72.8,134.89 72.63,-16.81 116.83,-99.35 153.77,-162.15 30.86,13.96 27.02,30.28 43.07,49.14 16.9,-118 17.32,-215.88 -33.78,-313.72 -50.73,-97.13 -105.89,-132.86 -247.02,-124.72l-4.15 44.18z"/>
  <path fill="#DADADA" d="M1551.39 3900.03c19.18,-26.92 2.3,-64.68 17.7,-99.37 33.18,11.38 74.89,156.16 164.21,161.68 -8.94,-30.49 -49.17,-63.29 -71.15,-122.25 -16.98,-45.56 -33.72,-116.72 -28.61,-168.05 9.28,-93.18 111.92,-192.1 176.49,-219.32l-4.29 -41.63c-147.57,-9.97 -202.04,31.07 -250.17,145.14 -51.93,123.08 -23.17,225.31 -4.18,343.8z"/>
  <path fill="#DADADA" d="M4433.84 5575.01c56.44,-83.44 109.87,-154.75 206.66,-211.83 -9.44,-33.26 -121.84,-212.33 -149.34,-245.62 -18.43,-22.3 -40.17,-44.17 -56.45,-63.53 -8.83,100.36 -19.09,435.78 -0.87,520.98z"/>
  <path fill2="#FBFCFC" d="M4976.07 3258.69c-5.18,48.62 -0.44,-0.81 9.9,44.74 -24.93,18.75 -47.85,46.63 -54.43,78.48 105.85,-15.2 212.84,-6.12 311.86,11.56 52.89,9.45 72.93,7.04 132.03,20.87 37.57,8.8 97.04,30.97 128.95,33.12 -90.01,-59.91 -353.29,-224.94 -481.83,-240.82l-46.48 52.05z"/>
  <path fill="#DADADA" d="M1894.24 5861.63l-61.97 7.5c-16.07,52.38 -50.93,89.46 -40.22,138.19 8.24,37.51 -21.44,78.41 -41.5,148.25 53.27,-7.95 59.61,-8.66 97.77,-29.27l-18.2 94.83 77.64 -39.23c22.44,29.85 -15.26,41.52 60.77,29.61l-3.02 -145.55c-41.55,9.39 -31.41,6.47 -40.94,0.9 18.18,-57.72 41.8,-66.78 34.78,-147.12l-74.22 47.84 9.11 -105.95z"/>
  <path fill="#818182" d="M2920.52 4365.06c77.73,70.91 334.41,77.38 391.67,-8.47 -44.68,-104.6 -362.3,-112.3 -391.67,8.47z"/>
  <path fill="#DADADA" d="M5073.26 5108.85c16.21,-25.05 24.67,-35.44 40.02,-61.83 43.18,-74.2 14.06,-2.37 82.3,-121.17 30.66,-53.39 163.15,-196.52 94.74,-277.17 -10.05,39.61 -23.15,29.56 -46.99,63.4 -18.04,25.6 -21.07,42.87 -38.84,70.33 -28.06,43.38 -59.56,71.91 -92.23,120.1 -15.53,22.91 -24.66,47.28 -40,69.75 -56.72,83.13 -133.52,98.69 -40.3,201.22l41.3 -64.63z"/>
  <path fill="#818182" d="M2987.24 4781.57c-21.1,33.56 -12.24,117.96 15.74,138.43 25.73,18.81 118.44,18.52 158.35,16.43 102.85,-5.37 91.9,-86.77 86.68,-170.29 -2.33,-37.19 -1.47,-42.13 -21.94,-65.81 -21.2,124.67 -129.05,114.95 -230.68,120.51l-8.15 -39.27z"/>
  <path fill="#DADADA" d="M1872.94 6372.79c38.36,-36.47 125.88,-84.33 26.35,-132.23 -33.06,15.45 -43.03,37.08 -67.73,68.5 -23.01,-29.24 -5.51,-47.24 -45.92,-79.03l-35.48 127.47 61.88 -17.9c2.47,63.83 -29.71,87.02 -37.61,141.19 63.67,-2.47 102.01,-18.05 122.56,-70.83l-2.08 85.53c38.8,-7.07 41.92,-12.94 71.4,-29.58l-0.88 -105.89c-64.72,-4.61 -26.72,20.89 -92.49,12.77z"/>
  <path fill="#DADADA" d="M2987.24 4781.57l8.15 39.27c101.63,-5.56 209.48,4.16 230.68,-120.51 -37.88,-86.96 -263.31,-92.09 -238.83,81.24z"/>
  <path fill="#818182" d="M4396.96 6297.21c-32.35,-10.65 -83.48,-68.24 -100.65,-16.9 -13.78,41.23 41.58,60.88 52.82,87.49l-82.78 -9.59c-1.87,85.75 -21.24,124.7 64.4,132.97l1.38 -69.73 44.69 53.14 75.15 1.82 -37.33 -141.52 68.43 12.53 -40.23 -116.26c-29.96,19.78 -21.33,38.49 -45.88,66.05z"/>
  <path fill="#B3B3B3" d="M4353.17 5022.63c-18.21,-45.98 -57.23,-86.66 -55.73,-137.88 61.45,2.02 47.65,-1.34 62.04,-16.54 -81.55,-41.26 -55.32,-104.59 -170.38,-11.97l19.42 171.18c13.61,1.54 117.16,-3.41 144.65,-4.79z"/>
  <path fill="#DADADA" d="M1921.92 4898.46c-13.55,61.92 -40.52,68.29 -57.51,125.21 68.02,-1.64 61.21,-17.48 111.08,-33.49l1.19 10.07c0.16,1.17 0.37,4.03 0.59,5.33 0.22,1.35 0.37,4.12 0.68,5.51 5.87,26.39 4.82,25.66 33.88,24.68l15.34 -179.46 -85.8 -49.28c-30.36,24.66 -59.74,41.33 -81.88,72.23l62.43 19.2z"/>
  <path fill="#818182" d="M4727.2 910.36c-12.82,39.39 -45.13,61.51 -67.32,80.93 -123.09,107.67 -213.87,100.52 -272.77,132.03 11.08,13.28 130.45,63.93 164.08,88.51 228.36,166.89 174.51,461.59 197.41,530.5 5.08,15.29 3.93,10.91 9.69,19.02 7.35,-11.32 1.29,2.44 9.11,-20l11.61 -56.39c25.51,-134.38 100.31,-342.68 211.24,-409.4 20.77,-24.03 59.57,-48.53 91.37,-66.36 95.41,-53.49 75.26,-25.56 114.53,-45.85 -11.31,-30.17 -27.72,-23.75 -57.8,-38.47 -122.08,-59.74 -193.87,-155.88 -253.44,-280.16 -17.42,-36.35 -17.16,-39.86 -27.42,-83.4l-15.5 -68.8c-0.71,-2.88 -1.44,-5.2 -2.15,-7.8l-5.35 -15.27c-36.21,14.64 -20.39,45.49 -46.73,128.51 -9.51,29.94 -43.66,96.06 -60.56,112.4z"/>
  <path fill="#DADADA" d="M5217.47 1538.25l6.44 -2.92c-55.73,9.6 -10.41,6.78 -44.86,102.49 -53.93,149.87 -165.41,158.64 -212.42,196.7 6.65,6.01 5.67,5.46 17.08,12.32 65.78,39.51 144.2,49.91 193.66,201.15 10.97,33.55 5.28,89.4 21.18,112.96 29.8,-13.82 0.36,-35.44 34.19,-114.55 59.41,-138.92 152.11,-158.04 218.2,-196 19.83,-11.39 10.5,-5.55 19.61,-15.88 -159.42,-99.32 -190.52,-44.86 -253.08,-296.27z"/>
  <path fill="#BDBFC1" d="M5455.01 1410.04c-8.39,12.03 -5.71,11.01 -11.47,26.55 75.49,41.52 66.69,16.05 101.62,60.85 94.38,121.08 47.76,135.42 84.54,191.61 22.85,-55.29 30.04,-145.72 111.58,-210.41 21.23,-16.85 52.13,-20.04 70.74,-42.05 -10.23,-21.58 -3.28,-7.65 -19,-20.28 -1.49,-1.2 -22.39,-14.35 -25.34,-16.2 -56.41,-35.47 -87.43,-58.28 -107.84,-126.62 -21.67,-57.58 0.71,-41.14 -29.49,-58.08 -25.73,16.26 -16.63,104.65 -113.75,167.31 -21.79,14.06 -43.44,22.77 -61.59,27.32z"/>
  <path fill="#BDBFC1" d="M4253.31 1614.39c57.05,19.51 42.07,-1.53 70.34,45.2 12.39,20.48 24.03,61.81 45.17,75.78 17.42,-23.78 19.17,-47.4 38.86,-74.03 16.24,-21.96 40.48,-33.22 50.19,-55.42 -14.49,-33.03 -27.03,-25.7 -50.9,-55.29 -20.61,-25.55 -21.4,-41.78 -38.15,-60.45 -16.93,17.72 -29.95,55.48 -49.62,74.27 -24.92,23.8 -56.31,20.83 -65.89,49.94z"/>
 </g>
</svg>
