<?xml version="1.0" encoding="UTF-8"?>
<!DOCTYPE svg PUBLIC "-//W3C//DTD SVG 1.1//EN" "http://www.w3.org/Graphics/SVG/1.1/DTD/svg11.dtd">
<!-- Creator: CorelDRAW 2017 -->
<svg xmlns="http://www.w3.org/2000/svg" xml:space="preserve" width="84.667mm" height="84.667mm" version="1.1" style="shape-rendering:geometricPrecision; text-rendering:geometricPrecision; image-rendering:optimizeQuality; fill-rule:evenodd; clip-rule:evenodd"
viewBox="0 0 8466.7 8466.7"
 xmlns:xlink="http://www.w3.org/1999/xlink">
 <defs>
  <style type="text/css">
   <![CDATA[
    .str0 {stroke:#FEFEFE;stroke-width:20;stroke-miterlimit:22.9256}
    .fil0 {fill:#FEFEFE}
    .fil3 {fill:#255FDA}
    .fil1 {fill:#4285F4}
    .fil4 {fill:#EE8D00}
    .fil2 {fill:#FABB05}
   ]]>
  </style>
 </defs>
 <g id="Capa_x0020_1">
  <metadata id="CorelCorpID_0Corel-Layer"/>
  <ellipse class="fil0 str0" cx="4233.35" cy="4233.35" rx="4233.35" ry="4233.34"/>
  <g id="_2563038110288">
   <path class="fil1" d="M1828.87 1996.33c111.1,-6.13 178.21,-41.9 345.17,-41.38l1117.1 0.34c-18.73,139.92 -73.42,207.87 -76.48,374.8 -2.37,130.16 10.88,333.57 -7.44,452.47l-1485.18 -4.03c-28,-224.06 4.27,-459.62 18.57,-675.07 -32.46,30.17 -4.5,-22.4 -38.53,42.66 -17.46,33.39 -13.25,30.37 -16.2,74.96l6.49 5222.27c12.7,43.97 -1.89,13.58 19.95,41.05l4.05 -958.48 3512.65 -4.09c0.68,208.82 0.1,413.11 0.1,617.32 0,557.98 -17.77,295.13 -126.53,523.84 126.88,-55.85 158.24,-107.49 159.6,-288.14 3.45,-460.49 -22.15,-2915.1 0.98,-3084.7 -285.47,18.59 -494.94,39.71 -782.43,-55.48 -322.05,-106.63 -635.36,-295.6 -844.38,-565.61 -143.96,-185.97 -335.77,-470.75 -376.43,-758.76 -26.34,-186.66 -48.4,-302.62 -37.01,-526.04 5.78,-113.45 89.17,-405.74 83.16,-453.54l-1150.11 -1.63c-109.08,-0.19 -216.59,-16.99 -292.41,36.9 -26.43,18.78 -15.33,9.98 -34.69,30.34z"/>
   <path class="fil2" d="M3306.08 1930.72c6.01,47.8 -77.38,340.09 -83.16,453.54 -11.39,223.42 10.67,339.38 37.01,526.04 40.66,288.01 232.47,572.79 376.43,758.76 209.02,270.01 522.33,458.98 844.38,565.61 287.49,95.19 496.96,74.07 782.43,55.48 27.74,-13.92 195.79,-46.48 238.91,-56.38 226.7,-52.01 435.52,-185.02 612.52,-312.45 767.56,-552.54 898.65,-1791.94 252.99,-2548.74 -527.29,-618.08 -1445.5,-814.31 -2207.34,-417.4 -127.44,66.4 -262.78,167.46 -360.92,253.49 -341.59,299.43 -439.68,668.7 -493.25,722.05z"/>
   <path class="fil3" d="M1712.32 7484.4c5.39,119.83 123.26,185.22 232.6,213.24 120.45,30.86 2017.71,10.41 2289.89,10.41 209.33,0 733.29,40.52 867.78,-45.06 108.76,-228.71 126.53,34.14 126.53,-523.84 0,-204.21 0.58,-408.5 -0.1,-617.32l-3512.65 4.09 -4.05 958.48z"/>
   <path class="fil4" d="M3945.58 2183.57c-65.32,84.48 -77.36,108.93 64.54,244.75 472.08,451.86 386.7,294.72 353.54,699.17 -12.53,152.77 -47.26,110 -40.78,107.07l-30.15 324.73c70.49,57.8 87.18,69.12 253.95,-17.28 22.75,-11.79 343.54,-224.51 434.98,-248.19 107.35,-27.81 228.88,72.44 376.56,153.53 157.48,86.47 264.88,166.81 391.4,143.07 52.36,-237.48 -183.09,-668.61 -39.59,-833.33 37.43,-42.96 76.43,-72.15 124.2,-111.92l237.2 -248.96c53.78,-58.94 92.62,-58.72 76.33,-171.1 -98.92,-50.9 -245.74,-36.74 -370.74,-66.05 -112.66,-26.4 -239.5,-41.24 -372.8,-58.95 -59.22,-91.53 -282.67,-623.25 -298.97,-640.93 -40.64,-44.08 -51.93,-31.07 -111.12,-29.04 -104.31,139.02 -247.61,517.41 -293.09,589.13 -77.29,121.9 -394.35,100.86 -546.98,129.96 -62.84,11.98 -109.9,26.93 -208.48,34.34z"/>
   <path class="fil3" d="M1828.87 1996.33c-30.05,10.71 -26.77,2.58 -58.65,39.91 -33.55,39.3 -25.86,20.34 -29.61,67.22 -14.3,215.45 -46.57,451.01 -18.57,675.07l1485.18 4.03c18.32,-118.9 5.07,-322.31 7.44,-452.47 3.06,-166.93 57.75,-234.88 76.48,-374.8l-1117.1 -0.34c-166.96,-0.52 -234.07,35.25 -345.17,41.38z"/>
   <path class="fil1" d="M3367.12 7371.4c220.17,0 610.02,68.68 615.93,-250.38 1.99,-106.72 -40.11,-156.2 -96.25,-196.2 -131.36,-93.62 -292.36,-62.76 -517.42,-62.76 -175.77,0 -315.79,102.39 -317.14,258.78 -1.33,153.29 129.72,250.56 314.88,250.56z"/>
  </g>
 </g>
</svg>
