<?xml version="1.0" encoding="UTF-8"?>
<!DOCTYPE svg PUBLIC "-//W3C//DTD SVG 1.1//EN" "http://www.w3.org/Graphics/SVG/1.1/DTD/svg11.dtd">
<!-- Creator: CorelDRAW 2017 -->
<svg xmlns="http://www.w3.org/2000/svg" xml:space="preserve" width="100mm" height="100mm" version="1.1" style="shape-rendering:geometricPrecision; text-rendering:geometricPrecision; image-rendering:optimizeQuality; fill-rule:evenodd; clip-rule:evenodd"
viewBox="0 0 10000 10000"
 xmlns:xlink="http://www.w3.org/1999/xlink">
 <defs>
  <style type="text/css">
   <![CDATA[
    .fil0 {fill:none}
    .fil1 {fill:#19191E}
    .fil6 {fill:#840FAD}
    .fil4 {fill:#A37776}
    .fil5 {fill:#ADABAB}
    .fil3 {fill:#DDD6DD}
    .fil2 {fill:#E42DF4}
    .fil9 {fill:#F95904}
    .fil8 {fill:#FBCAA6}
    .fil7 {fill:white}
   ]]>
  </style>
 </defs>
 <g id="Capa_x0020_1">
  <metadata id="CorelCorpID_0Corel-Layer"/>
  <rect class="fil0" width="10000" height="10000"/>
  <g id="_1212722641968">
   <path class="fil1" d="M4561.68 1917.34l-439.85 54.71c-64.85,-115.25 -767.1,-659.77 -952.48,-783.09 -132.16,-87.92 -620.06,-329.75 -775.39,-387.3 -169.18,-62.68 -510.68,-139.13 -707.46,-172.49 -110.73,-18.77 -162.25,3.43 -174.86,114.11 -110.56,970.24 -30.01,1731.47 539.28,2598.92 -33.27,21.85 -277.91,90.59 -338.72,107.74 -134.03,37.78 -223.64,84.23 -343.36,123.89 -292.76,96.97 -405.84,144.61 -636.55,284.31 -332.28,201.21 -189.06,264.03 -52.03,544.57 56.46,115.57 103.74,198.92 172.9,295.52l215.92 252.27c305.81,324.6 674.79,574.57 1083.69,774.56 227.06,111.05 105.18,40.74 235.73,216.47 194.04,261.2 393.92,515.84 809.62,594.95 -18.81,64.4 -53.98,114.71 -79.89,176.04 -74.91,177.29 -126.1,417.34 -145.48,612.41 -195.02,-26.15 -374.32,-86.76 -623.16,98.82 -147.67,110.13 -79.73,26.47 -302.55,90.79 -480.88,138.8 -770.03,805.03 -256.94,1204.14 19.96,241.74 29.23,401.11 272.07,585.21 180.8,137.08 375.65,214.63 661.85,216.73 91.6,120.95 223.49,216.14 465.92,192.56 149.95,-14.59 103.79,31.25 232.62,72.6 114.16,36.64 202.97,29.95 314.24,10.06 428.58,-76.6 202.87,-152.93 481.24,-184.3 192.73,-21.72 337.09,-152.14 422.32,-258.41 118.04,0.39 239.81,26.05 377.49,26.48 59.48,71.15 65.29,116.73 138.79,166.79 63.18,43.02 144.96,71.6 233.18,85.94 175.46,28.52 159.67,152.57 473.62,151.99 172.43,-0.3 302.43,-51.68 419.07,-148.15 110.72,-91.57 128.17,-28.34 280.16,-96.63 45.25,-20.33 98.72,-64.48 125.02,-73.99 114.68,-41.44 454.05,164.73 832.2,-283.28 54.25,-64.26 121.01,-136.87 165.04,-212.77 84.97,-146.46 51.42,-235.89 101.49,-289.82 55.03,-59.29 84.65,-37.91 168.47,-210.31 181.92,-374.19 0.43,-834.74 -402.46,-986.87 -48.04,-18.14 -94.82,-25.87 -128.22,-52.54 -39.54,-31.58 -54.49,-63.52 -99.74,-97 -197.14,-145.85 -355.35,-141.14 -627.11,-103.89 0.32,-570.56 -143.17,-567.89 -163.24,-706.53 338.68,-26.77 624.83,-272.99 747.76,-492.73 51.11,-91.34 30.44,-105.71 107,-149.44 238.92,-136.46 670.92,-444.47 849.43,-646.16 70.88,-80.08 162.23,-155.33 253.79,-244.59 44.95,-43.83 65.07,-78.95 113.27,-128.74 228.43,-235.98 377.49,-413.68 587.9,-665.17 221.6,-264.86 428.99,-443.5 126.4,-565.44 -294.28,-118.58 -816.02,-290.97 -1141.57,-357.43 -70.29,-14.35 -138.37,-25.83 -213.58,-36.93 -76.89,-11.34 -169.76,-7.75 -221.99,-44.75 63.56,-99.29 129.92,-160.17 201.29,-275.48 306.18,-494.72 544.31,-1188.27 572.95,-1777.65 7.09,-145.91 12.44,-296.56 27.26,-438.24 21.85,-208.84 -90.02,-237.5 -280.13,-214.63 -353.82,42.57 -451.15,60.59 -749.69,188.24 -700.48,299.51 -562.37,190.24 -1240.02,632.79 -219.04,143.04 -479.25,398.17 -536.02,427.73 31.42,-283.13 107.3,-564.83 138.12,-779.76 39.63,-276.32 60.89,-308.02 100.01,-522 18.23,-99.76 -27.14,-191.23 -74.2,-224.86 -227.19,-162.35 -808.49,745.82 -901.42,913.15l-439 796.88z"/>
   <path class="fil2" d="M2566.88 5700.16c132.96,7.64 415.95,225.71 529.38,289.01 111.14,62.01 421.36,248.83 440.11,372.6 306.53,22.82 85.82,-16.34 314.07,111.82 513.84,288.52 1119.82,441.43 1709.08,205.24 87.07,-34.9 201.66,-115.13 268.24,-170.51 47.65,-39.62 167.14,-182.53 243.35,-189.65 27.79,-80.84 162.97,-152.87 235.56,-207.4 84.38,-63.38 163.44,-106.87 259.55,-163.32 101.18,-59.43 448.17,-262.26 580.11,-242.35 54.76,-67.19 80.07,-254.14 89.85,-354.15 12.94,-132.38 -37.37,-358.62 -9.32,-418.69 91.32,-16.52 94.61,43.67 109.17,128.17 52.28,303.61 -48.88,507.94 -61.21,629.39 66.35,-30.36 422.53,-254.08 494.17,-321.39 5.62,-5.29 26.58,-27.53 29.4,-30.1 2.34,-2.12 5.61,-5.17 8.04,-7.24l26.55 -19.66c91.22,-65.34 369.07,-338.91 495.14,-456.29 89.19,-83.04 139.07,-154.86 233.07,-235.4l451.16 -514.78c52.8,-63.7 195.47,-201.92 202.54,-279.99 -163.16,-107.53 -587.81,-228.09 -795.54,-288.79 -255.31,-74.59 -685.56,-140.51 -973.08,-118.22 -33.87,40.31 -120.77,190.13 -193.2,151.53 -0.09,-0.08 -48.98,-2.63 6.29,-83.55 37.34,-54.67 79.94,-76.5 158.21,-207.11 55.48,-92.58 139.97,-174.92 203.91,-278.08 329.81,-532.03 717.05,-1578.62 703.99,-2241.88 -563.4,48.6 -1103.23,217.81 -1566.42,488.37 -347.82,203.17 -590.57,374.48 -891.73,648.42l-274.9 237.04c204.15,5.67 450.47,-104.67 354.18,144.58 -21.66,56.07 -39.47,91.21 -60.28,136.06 -76.11,164.04 -304.26,706.12 -302.62,831 60.77,21.2 305.53,116.77 318.2,165.67l28.96 646.93c-130.79,107.93 -336.51,228.41 -470.39,332.16 -68.58,53.13 -151.39,122.58 -216.25,175.98 -66.88,55.07 -162.03,114.75 -227.41,181.15 29.32,65.55 83.24,161.15 118.24,212.25 305.49,24.1 671.92,-1.57 985.08,-2.13l709.68 12.43c41.86,-0.09 79.46,-1.2 121.17,-3.22l88.42 2.65c62.55,15.62 89.58,74.13 -56.08,97.12 -268.53,1019.53 -1245.72,1064.79 -1609.09,698.85 -173.83,-175.06 -215.14,-400.05 -224.67,-685.7 -94.49,-80.67 -65.53,25.64 -199.2,-249.49 -100.7,24.44 -103.58,90.11 -166.25,105.88 -70.87,17.83 -90.41,-48.11 -173.95,-67.64 -31.45,34.03 -59.47,92.96 -91.21,135.1 -35.84,47.59 -79.51,62.22 -98.07,146.06 -77.58,350.4 -187.34,751.75 -604.81,841.58 -591.24,127.22 -1026.91,-333.64 -1070.14,-835.98 -63.98,-37.59 -89.73,10.13 -81.44,-90.61 126.12,-80.26 1268.78,4.56 1534.46,-25.14 170.67,-19.07 281.35,-75.78 310.62,-239.68 -71.36,-46.62 -164.66,-99.97 -246.96,-158.18l-481.44 -333.54c-336.16,-188.73 -381.25,-46.98 89.59,-889.23 43.9,-78.53 369.49,-654.21 407.21,-666.98 102.53,-4.02 238.2,107.69 362.39,119.4 33.84,-55.17 200.44,-417.34 204.38,-464.69 -47.53,-38.89 -89.95,-63.83 -145.41,-103.81 -181.96,-131.15 -79.95,-61.38 -119.37,-148.57 -451.22,-32.27 -672.58,315.7 -746.62,244.13 -81.34,-77.23 153.34,-159.32 200.26,-218.29 -117.01,-199.75 -752.51,-671.51 -977.75,-801.93 -297.63,-172.35 -881.42,-504.16 -1329.73,-471.12 -10.6,15.96 -8.2,9.53 -16.52,35.03l-14.57 134.92c-29.83,813.36 110.67,1493.38 556.17,2179.28 28.8,44.34 158.66,185.42 163.32,252.84 -72.51,85.76 -311.31,70.92 -446.33,89.94 -189.48,26.68 -635.03,216.29 -822.82,295.73 -153.08,64.76 -224.37,99.99 -348.08,203.33 2.47,74.03 18.01,80.42 50.86,123.04 27.86,36.16 48.63,76.53 78.68,118.29 105.74,146.97 292.96,308.81 359.89,396.14 106.9,139.48 925.08,782.89 1073,809.73 -0.76,-140.71 -71.64,-357.06 -5.23,-399.11 122.2,-77.35 88.15,152.57 117.24,334.33 18.77,117.31 28.61,166.17 95.15,220.42z"/>
   <path class="fil3" d="M4344.26 2876.1c-33.42,38.58 29.04,31.02 -11.75,128.66 -91.75,219.61 -431.42,819.8 -458.41,983.24 174.24,101.47 324.62,173.89 468.81,285.7 539.59,418.42 355.11,389.53 753.3,98.41 171.73,-125.54 270.15,-217.07 447.81,-337.49 157.55,-106.8 116.44,-91.65 150.89,-383.88 8.64,-73.22 43.78,-174.73 2.5,-242.46 -73.66,-53.41 -166.85,-60.62 -232.33,-119.32 -31.38,-62.86 224.57,-673.69 274.6,-794.91 32.09,-77.75 96.46,-192.22 111.97,-269.05 -78,0.91 -169.2,7.94 -245.93,14.85 -71.23,6.42 -104.22,32.57 -153.12,17.68 -38.45,-11.71 -31.61,-14.36 -47.96,-29.17 -34.52,-93.07 265.1,-1354.9 283.2,-1610.29 -150.8,73.06 -953.44,1410.31 -970.13,1561.23 317.39,295.56 346.19,15.15 67.54,625.66 -31.88,69.86 -57.68,140.38 -92.9,210.84 -34.92,69.87 -63.17,188.89 -141.49,145.76 -50.21,-66.33 20.18,-110.86 34.23,-198.88l-240.83 -86.58z"/>
   <path class="fil2" d="M3161.65 7664.47c-82.66,49.41 -80.98,70.49 -99.71,257.41 -11.34,113.16 -25.05,229.21 -30.83,344.17 -13.81,275.26 68.88,626.86 49.44,688.07 -91.84,8.59 -109.43,-86.4 -196.78,46.66 -172.9,263.4 41.34,504.88 341.37,447.5 2.99,-54.83 -106.09,-262.26 48.24,-223.08 20.45,37.54 22.29,107.72 41.99,152.85 72.87,166.98 157.03,240.17 360.77,204.86 125.09,-21.68 214.06,-30.16 287.03,-106.81 116,-121.87 85.48,-92.8 113.08,-279.97l86.69 -7.84c21.85,82.82 8.36,111.73 1.23,186.85 107.98,-9.28 193.45,-55.94 236.37,-126.04 67.2,-109.74 25.27,-192.17 -17.16,-287.65 -153.72,5.97 -117.44,23.5 -117.89,-182.36 -0.87,-396.56 -74.94,-926.3 -168.23,-1282.46 -26.63,-101.67 -49.11,-171.3 -92.84,-272.04 -76.94,-177.21 -126.11,-99.67 -268.4,-455.82 -17.86,-44.72 -82.47,-220.29 -107.34,-253.97 -167.1,61.93 -295.77,289.69 -350.62,462.76 -147.64,465.77 -6.38,376.12 -79.59,509.52 -60.86,110.88 -28.33,50.23 -36.82,177.39z"/>
   <path class="fil2" d="M5431.24 9400.43c-8.11,-87.77 -48.8,-128.38 -12.76,-204.02 123.44,-116.8 30.39,319.77 370.51,369.32 172.26,25.1 329.07,-36.42 391.12,-184.07 29.69,-70.65 16.04,-97.31 91.02,-102.09l45.3 87.58c326.44,-21.24 403.47,-454.01 173.65,-520.81 -177.64,-51.64 -219.64,5.37 -253.86,-82.36 39.29,-83.05 104.8,-33.05 246.3,-29.21 125.44,-180.55 116.24,-779.62 77.82,-1019.26 -51.03,-318.27 -88.14,-207.42 -115.91,-265.44 -29.64,-61.95 121.22,-243.17 -7.39,-588.72 -48.67,-130.74 -180.05,-341.36 -271.61,-402.91 -50.83,49.05 -93.4,248.26 -291.93,458.23 -138.98,146.98 -322.44,689.38 -370.38,911.21 -69.51,321.66 -68.21,593.99 -72.83,937.31 -1.99,148.11 -131.72,121.8 -195.27,321.71 -54.46,171.3 51.48,308.55 196.22,313.53z"/>
   <path class="fil4" d="M4806.46 8111.65c-280.49,-1.25 -291.66,-27.03 -502.88,-105.59 10.96,199.39 48,403.48 60.41,607.13 13.9,228.11 -24.38,142.73 75.77,260.8 84.52,99.64 58,149.58 110,236.41 100.38,33.3 451.59,49.59 558.69,24.32 37.04,-61.62 51.85,-139.24 97.52,-212.2 127.83,-204.24 108.41,21.28 121.13,-369.97l38.01 -579.73c-93.35,33.76 -127.36,70.23 -254.35,99.87 -88.41,20.63 -205.16,39.41 -304.3,38.96z"/>
   <path class="fil5" d="M5697.41 3408.28c41.28,67.73 6.14,169.24 -2.5,242.46 -34.45,292.23 6.66,277.08 -150.89,383.88 -177.66,120.42 -276.08,211.95 -447.81,337.49 -398.19,291.12 -213.71,320.01 -753.3,-98.41 -144.19,-111.81 -294.57,-184.23 -468.81,-285.7 26.99,-163.44 366.66,-763.63 458.41,-983.24 40.79,-97.64 -21.67,-90.08 11.75,-128.66l-39.78 -21.16c-30.12,98.74 -120.31,224.07 -169.94,313.85 -116.24,210.28 -474.15,762.33 -499.36,940.76 86.21,63.42 184.06,92.5 282.29,167 87.05,66.01 182.07,131.15 274,194.43 90.72,62.44 493.77,334.98 588.17,352.01 67.65,-80.5 156.71,-149.14 246.89,-218.45l801.66 -599.36 -18.86 -542.04 -111.92 -54.86z"/>
   <path class="fil2" d="M4150.03 7304.23l99.79 433.81c11.82,58.63 14.04,103.89 55.45,138.14 140.18,115.94 378.83,156.4 602.63,127.69 171.55,-22.02 465.08,-89.03 508.61,-228.92 33.48,-107.55 47.65,-193.61 84.07,-295.1 29.59,-82.47 85.62,-198.78 97.23,-292.88 -71.92,17.28 -244.73,124.41 -329.84,166.45 -83.35,41.17 -248.54,127.18 -341.28,144.55 -313.72,58.79 -667.41,-159.97 -776.66,-193.74z"/>
   <path class="fil6" d="M2577.75 8386.42c-94.23,57.83 -123.48,-25.58 -201.09,16.68 -54.87,29.88 -80.89,68.93 -153.53,82.44 -440.2,81.9 -485.68,-492.43 -143.05,-620.32 109.03,-40.69 153.53,15.48 159.65,-98.08 -261.85,-28.37 -464.69,151.27 -490.51,382.78 -15.39,137.96 37.72,232.84 106.15,318.06 127.23,158.43 159.58,68.73 333.13,106.23 23.69,117.15 -54.55,72.31 -126.48,114.26 -75.87,484.52 360.22,651.04 659.73,603.12 8.39,-251.86 -59.88,-89.58 -204.83,-231.73 -210.78,-206.71 -197.79,-713.14 310.27,-668.8 68.11,5.95 123.81,46.34 103.4,-198.33 -102.99,14.45 -202.08,89.31 -343.06,11.18 -192.66,-106.79 -189.7,-449.75 60.77,-541 162.94,-59.36 241.92,38.69 344.32,58.17 15,-36.92 27.88,-64.08 29.72,-119.03 -490.15,-237.16 -810.07,171 -679.32,544.98 79.48,227.32 227.91,100.68 234.73,239.39z"/>
   <path class="fil7" d="M6868.86 5071.16l-201.78 -2.13c-111.29,204.98 -155.54,551.41 -652.1,604.81 -415.35,44.67 -648.99,-214.13 -659.72,-602.66l-105.93 -8.85c-41.36,1008.15 969.64,930.32 1345.08,536.46 87.76,-92.06 266.15,-352.15 274.45,-527.63z"/>
   <path class="fil3" d="M3759.24 6543.64c31.6,196.31 205.96,501.97 388.94,628.54 151.58,104.85 535.83,286.48 781.21,218.65 193.92,-53.61 541.94,-252.42 673.66,-352.63 129.59,-98.59 379.94,-372.51 437.38,-583.69 -42.5,24.86 -110.63,109.71 -245.94,201.85 -109.02,74.23 -48.8,136.99 -175.47,277.33 -120.48,133.49 -408.76,252.46 -660.77,268.29 -285.32,17.92 -547.83,-80.07 -717.65,-212.73 -331.53,-259 -201,-299.81 -316.62,-362.48 -54.6,-29.59 -107.42,-63.81 -164.74,-83.13z"/>
   <path class="fil6" d="M7437.15 7827.74c100.3,63.37 160.33,67.73 219.36,186.06 132.18,264.96 -119.63,512.87 -316.67,435.3 -173.86,-68.44 -61.07,-152.21 -290.52,-83.4 42.28,95.76 95.89,41.48 169.94,220.85 116.13,281.27 -146.91,489.41 -405.47,509.5 -90.24,7.02 -101.26,-1.3 -108.24,93.32 210.28,17.39 418.83,-20.39 554.22,-116.41 112.04,-79.47 267.95,-247.11 274.22,-409.41 -76.78,0.37 -153.94,24.28 -205.89,-7.1 -28.84,-65.53 26.63,-79.26 85.92,-89.49 187.38,-32.33 315.03,-114.82 362.62,-321.49 62.18,-269.98 -111.66,-534.1 -338.75,-533.42l-0.74 115.69z"/>
   <path class="fil7" d="M2949.2 5135.3l-98.48 8.04c-20.51,260.85 192.08,550.52 433.76,687.49 81.48,46.18 193.35,67.89 300.33,75.75 471.76,34.66 680.5,-359.61 735.83,-784.42l-123.98 14.22c-31.19,56.87 -43.7,151.54 -76.16,222.31 -33.86,73.85 -70.28,142.86 -118.23,199.38 -238.75,281.41 -821.92,361.5 -1015.96,-290.59l-23.57 -98.03c-1.15,-3.71 -2.91,-8.21 -4.04,-11.51l-9.5 -22.64z"/>
   <path class="fil8" d="M6071.11 6318.67c233.91,68.95 505.74,6.51 693.66,-111.97 100.67,-63.47 177.11,-122.46 236.17,-201.3 24.09,-32.15 62.08,-98.2 71.52,-143.42 12.18,-58.37 -12.02,-35.27 19.91,-83.92 35.39,-53.89 25.29,14.42 53.96,-72.46 -131.94,-19.91 -478.93,182.92 -580.11,242.35 -96.11,56.45 -175.17,99.94 -259.55,163.32 -72.59,54.53 -207.77,126.56 -235.56,207.4z"/>
   <path class="fil6" d="M6673.88 7791.64c48.94,-90.94 134.14,-238.04 260.26,-231.6 320.71,16.37 368.61,437.7 89.68,538.82 -182.31,66.1 -234.11,-6.33 -339.61,-87.21l-5.46 377.95c114.26,-2.05 32.11,-36.17 302.06,-26.44 2.71,-3.83 4.86,-15.17 5.88,-12.78 6.72,15.82 -5.59,-36.08 47,-77.87 136.1,-108.15 132.7,-12.77 229.82,-208.92 283.09,-571.74 -321.56,-804.39 -579.19,-502.47 -54.99,64.44 -26.35,146.34 -10.44,230.52z"/>
   <path class="fil9" d="M5597.72 6778.56c-120.6,-0.4 -577.14,247.72 -1310.54,13.32 -60.68,-19.39 -104.22,-49.75 -156.59,-61.39 79.76,181.9 435.99,361.03 705.49,371.82 308.74,12.34 662.73,-115.09 761.64,-323.75z"/>
   <path class="fil6" d="M5466.48 5075.4c-42.25,567.4 628.22,620.01 899.19,339.34 60.01,-62.16 182.12,-243.35 172.94,-345.16l-128.92 -1.39c-52.93,79.09 -58.49,180.52 -146.96,259.71 -63.9,57.22 -191.67,115.69 -301.87,91.23 -229.8,-51 -272.69,-132.64 -335.94,-280.89 -33.2,-77.85 -57.22,-73.57 -158.44,-62.84z"/>
   <path class="fil3" d="M6589.7 8763.98c27.53,35.41 60.41,50.65 86.11,93.96 25.19,42.43 34.87,103.03 49.04,144.6 621.67,-29.28 487.52,-632.09 43.91,-525.47 -139.45,33.51 -96.73,11.07 -179.06,286.91z"/>
   <path class="fil6" d="M4069.04 5151.5l-108.17 -2.11c-60.27,88.9 -115.98,303.56 -407.49,307.36 -315.65,4.1 -331.19,-202.42 -396.85,-327.34l-90.24 3.02c-14.07,138.34 143.59,531.38 471.49,533.3 151.84,0.9 283.99,-67.5 366.85,-145.08 67.93,-63.6 162.32,-239.65 164.41,-369.15z"/>
   <path class="fil3" d="M2737.8 9038.68c32,-34.07 63.16,-97.41 95.81,-133.58 56.05,-62.1 77.97,-49.51 133.63,-95.81 -5.5,-61.39 -18.29,-113.75 -23.05,-177.62 -6.58,-88.51 14.8,-111.01 -62.78,-132.85 -119.56,-33.66 -254.3,-4.92 -327.8,65.54 -132.86,127.35 -60.27,470.13 184.19,474.32z"/>
   <path class="fil8" d="M3536.37 6361.77c-18.75,-123.77 -328.97,-310.59 -440.11,-372.6 -113.43,-63.3 -396.42,-281.37 -529.38,-289.01 40.99,98.22 -19.64,89.23 146.35,264.24 53.64,56.56 151.09,133.12 224.08,183.02 167.12,114.24 353.87,188.57 599.06,214.35z"/>
   <path class="fil3" d="M2676.87 7762.75c-252.29,116.13 -96.83,474.73 164.2,349.04 67.05,-32.29 161,-147.54 112.14,-257.72 -31.85,-71.8 -180.95,-135.22 -276.34,-91.32z"/>
   <path class="fil3" d="M2314.69 8326.24c-14.8,-62.48 -51.84,-105 -72.64,-167.74 -26.72,-80.6 -29.62,-124.19 -32.58,-212.32 -358.81,-19.65 -354.3,645.99 105.22,380.06z"/>
   <path class="fil3" d="M6907.3 7676.61c-220.88,110.06 -175.12,398.73 70.49,330.79 238.87,-66.08 95.5,-413.51 -70.49,-330.79z"/>
   <path class="fil3" d="M7258.45 8250.5c18.19,37.08 80.94,100.57 147.04,108.41 215.7,25.59 264.38,-383.22 13.21,-421.94 -23.91,58.71 -41.5,120.93 -65.36,171.87 -30.82,65.79 -55.61,85.67 -94.89,141.66z"/>
  </g>
 </g>
</svg>
