<?xml version="1.0" encoding="UTF-8"?>
<!DOCTYPE svg PUBLIC "-//W3C//DTD SVG 1.1//EN" "http://www.w3.org/Graphics/SVG/1.1/DTD/svg11.dtd">
<!-- Creator: CorelDRAW 2017 -->
<svg xmlns="http://www.w3.org/2000/svg" xml:space="preserve" width="84.667mm" height="84.667mm" version="1.1" style="shape-rendering:geometricPrecision; text-rendering:geometricPrecision; image-rendering:optimizeQuality; fill-rule:evenodd; clip-rule:evenodd"
viewBox="0 0 8466.7 8466.7"
 xmlns:xlink="http://www.w3.org/1999/xlink">
 <defs>
  <style type="text/css">
   <![CDATA[
    .str0 {stroke:#FEFEFE;stroke-width:20;stroke-miterlimit:22.9256}
    .fil0 {fill:#FEFEFE}
    .fil6 {fill:#164EA6}
    .fil4 {fill:#185ABC}
    .fil7 {fill:#3776E0}
    .fil1 {fill:#4184F3}
    .fil8 {fill:#C92622}
    .fil3 {fill:#EA4335}
    .fil5 {fill:#F39B00}
    .fil2 {fill:#FAB905}
   ]]>
  </style>
 </defs>
 <g id="Capa_x0020_1">
  <metadata id="CorelCorpID_0Corel-Layer"/>
  <ellipse class="fil0 str0" cx="4233.35" cy="4233.35" rx="4233.35" ry="4233.34"/>
  <g id="_2562967464736">
   <path class="fil1" d="M2567.08 3227.92l4.44 2939.88 3018.22 0 -0.12 -2232.35c-198.42,-289.98 -286.92,-450.38 -249.9,-892.89l-2436.1 -8.83 -336.54 194.19z"/>
   <path class="fil2" d="M2567.08 3227.92l336.54 -194.19c132.16,-262.95 209.8,-313.86 259.73,-712.33 -117.12,-1114.98 -1294.8,-1366.62 -1853.22,-653.56 -669.51,854.92 318.09,2053.66 1256.95,1560.08z"/>
   <path class="fil3" d="M5541.25 2518.44l-201.53 524.12c-37.02,442.51 51.48,602.91 249.9,892.89 1144.79,789.05 1805.09,-155.89 1786.29,-762.08 -20.97,-676.13 -807.9,-1435.2 -1834.66,-654.93z"/>
   <path class="fil4" d="M5589.74 6167.8l-3018.22 0c59.92,1291.66 172.12,1004.39 1509.11,1004.39 1336.99,0 1449.18,287.27 1509.11,-1004.39z"/>
   <path class="fil4" d="M2903.62 3033.73l2436.1 8.83 201.53 -524.12c-242.99,-284.14 -527.58,-198.74 -1037.19,-197.2 -446.83,1.34 -893.85,0.16 -1340.71,0.16 -49.93,398.47 -127.57,449.38 -259.73,712.33z"/>
   <path class="fil5" d="M2676.85 2645.93c-313.13,-97.34 -635.42,28.35 -825.12,-432.49 233.27,-60.62 292.04,-151.7 484.88,-191.43 159.08,-32.78 505.05,24.55 320.45,-310.4 -247.27,-448.62 -197.98,205.22 -920.74,387 -159.75,40.19 -426.59,68.04 -286.8,312.87 124.53,218.11 206.26,25.43 492.95,143.95 307.32,127.01 715.17,949.39 734.38,90.5z"/>
   <path class="fil6" d="M3592.12 5501.29l-79.27 460.82 1096.1 22.47c8.1,-49.89 17.54,-101.03 18.5,-90.86l3.52 -233.61c-1.2,-4.87 -39.91,-94.08 -41.77,-98.31 -5.44,-12.46 -18.16,-32.18 -23.48,-42.77l-45.59 -77.07c-325.99,-34.19 -627,-46.33 -928.01,59.33z"/>
   <path class="fil6" d="M3603.31 5402.55l142.39 -110.76 -89.92 -456.58c-548.06,-24.41 -790.79,-18.45 -768.73,584.74l716.26 -17.4z"/>
   <path class="fil6" d="M4432.31 5151.52l32.16 157.17c5.69,21.58 20.69,78.06 25.27,69.43 4.4,-8.26 18.82,43.33 30.39,63.84 281.04,-9.66 470.64,35.79 719.39,-52.29 79.1,-252.48 23.41,-263.52 -75.35,-478.15l-515.9 -102.9c-148.51,115.55 -45.19,40.41 -136.21,191.5 -87.99,146.03 83.3,0.28 -79.75,151.4z"/>
   <path class="fil6" d="M3304.52 4696.98c575.51,57.69 559.82,-325.15 282.22,-601.67 -538.77,-58.86 -594.35,291.3 -282.22,601.67z"/>
   <path class="fil6" d="M3808.37 4796.88l-2.56 352.11c225.83,120.05 268.68,165.32 529.34,3.87 161.73,-227.07 59.87,-335.22 -39.33,-493.31 -345.08,-59.93 -307.27,-75.98 -487.45,137.33z"/>
   <path class="fil6" d="M4970.18 4183.5c-137.53,-84.67 -228.23,-116.3 -451.55,-79.17 -511.64,674.86 728.41,904.07 451.55,79.17z"/>
   <path class="fil1" d="M3686.79 6745.56c211.42,220.21 578.14,224.53 787.67,0 -19.43,-437.71 -760.35,-447.28 -787.67,0z"/>
   <path class="fil7" d="M3655.78 4835.21l89.92 456.58 -142.39 110.76 -11.19 98.74c301.01,-105.66 602.02,-93.52 928.01,-59.33 -11.57,-20.51 -25.99,-72.1 -30.39,-63.84 -4.58,8.63 -19.58,-47.85 -25.27,-69.43l-32.16 -157.17 -97.16 1.34c-260.66,161.45 -303.51,116.18 -529.34,-3.87l2.56 -352.11 -152.59 38.33z"/>
   <path class="fil8" d="M5803.45 3309.13l238.71 179.4c163.67,175.22 -150.56,115.69 215.94,178.34 12.07,-187.46 -40.71,-102.7 60.52,-220.63 124.86,-145.49 -142.87,105.93 82.21,-56.69l93.17 -52.15c9.98,-5.96 32.84,-16.22 46.31,-28.27l-95.95 -44.16c-296.8,-171.94 -174.45,136.72 -186.26,-298.85 -419.29,60.65 65.62,4.76 -324.37,275.68 -288.28,200.26 48.45,-67.87 -130.28,67.33z"/>
   <path class="fil8" d="M6540.43 2799.5c77.89,202.63 162.23,115.11 183.19,438.76 23.21,358.36 -129.94,377.44 169.48,428.61l0 -912.42 -352.67 45.05z"/>
  </g>
 </g>
</svg>
