<?xml version="1.0" encoding="UTF-8"?>
<!DOCTYPE svg PUBLIC "-//W3C//DTD SVG 1.1//EN" "http://www.w3.org/Graphics/SVG/1.1/DTD/svg11.dtd">
<!-- Creator: CorelDRAW 2017 -->
<svg xmlns="http://www.w3.org/2000/svg" xml:space="preserve" width="84.667mm" height="84.667mm" version="1.1" style="shape-rendering:geometricPrecision; text-rendering:geometricPrecision; image-rendering:optimizeQuality; fill-rule:evenodd; clip-rule:evenodd"
viewBox="0 0 8466.7 8466.7"
 xmlns:xlink="http://www.w3.org/1999/xlink">
 <defs>
  <style type="text/css">
   <![CDATA[
    .str0 {stroke:#FEFEFE;stroke-width:20;stroke-miterlimit:22.9256}
    .fil0 {fill:#FEFEFE}
    .fil12 {fill:#3E52B2}
    .fil11 {fill:#4567C6}
    .fil7 {fill:#4683EA}
    .fil2 {fill:#565757}
    .fil19 {fill:#649AF5}
    .fil1 {fill:#696F73}
    .fil17 {fill:#6976C5}
    .fil15 {fill:#6E99E2}
    .fil10 {fill:#78A7F2}
    .fil8 {fill:#7D7D7D}
    .fil3 {fill:#8A98A4}
    .fil16 {fill:#97BBF7}
    .fil13 {fill:#9AB1C2}
    .fil9 {fill:#AECDE7}
    .fil18 {fill:#BBDEFA}
    .fil4 {fill:#C2C3C3}
    .fil14 {fill:#D9E5FC}
    .fil5 {fill:#E1E1E1}
    .fil6 {fill:#FEFEFF}
   ]]>
  </style>
 </defs>
 <g id="Capa_x0020_1">
  <metadata id="CorelCorpID_0Corel-Layer"/>
  <ellipse class="fil0 str0" cx="4233.35" cy="4233.35" rx="4233.35" ry="4233.34"/>
  <g id="_2563119256576">
   <path class="fil1" d="M1465.79 2208.71l-5.24 73.1c7.44,296.18 -0.24,606.42 -0.24,904.96l0 2257.83c0,123.26 -12.1,330.1 9,440.18l5528.44 3.26c27.44,-87.64 12.74,-1570.04 12.74,-1789.93 0,-209.76 14.12,-1735.01 -11.34,-1796.36 4.29,-34.3 0.24,-36.98 -5.1,-73.02 -22.11,-41.67 -35.75,-21.8 -50.81,-77.26 -16.71,-15.69 -26.02,-13.09 -48.33,-26.75 -37.74,-23.1 -12.53,-25.21 -44.36,-45.74 -64.21,-41.39 -418.48,-25.89 -515.58,-25.89 -1436.8,0 -2873.6,0 -4310.41,0 -117.07,0 -245.99,-5.07 -361.64,1.28 -64.33,3.53 -87.97,26.82 -119.53,60.06 -15.2,16.01 -71.99,75.7 -77.6,94.28z"/>
   <path class="fil2" d="M6999.15 2301.75c-71.4,-65.46 -18.7,38.13 -70.88,-83.35 -21.33,-49.68 -45.05,-56.56 -89.58,-79.77 -38.93,-20.29 -26.97,-30.14 -53.76,-50.68 -31.72,-15.29 -1152.41,-5.11 -1287.41,-5.11 -429.67,0 -859.34,0 -1289.02,0 -862.17,0 -1730.03,-9.76 -2591.5,1.39l-11.41 59.82c-59.92,6.62 -52.91,-8.77 -69.11,39.03 -16.54,48.83 -10.7,31.75 -54.7,54.77 -19.01,167.28 -7.22,2427.27 -7.22,2705.92 0,155.19 -7.87,801.79 4.16,900.45l5510.91 3.35c24.91,-110.46 -11.77,-3481.03 9.52,-3545.82z"/>
   <path class="fil3" d="M1699.28 5590.49c-6.88,30.41 6.93,60.71 32.24,64.34 342.27,10.75 700.18,4.52 1048.39,4.52l3653.58 0c148.01,0 305.22,31.92 312.04,-67.76 2.7,-39.43 0,-89.91 0,-130.57 0,-347.57 0,-695.14 0,-1042.71 0,-207.84 13.92,-2021.99 -11.2,-2066.04 -33.57,-58.87 -146.57,-41.88 -218.73,-41.88l-4441.78 0c-334.46,0 -373.53,-35.18 -372.91,145.62 1.21,347.5 0.03,695.23 0.03,1042.75 0,156.09 8.82,1992.41 -1.66,2091.73z"/>
   <path class="fil4" d="M1747.73 5614.34c6.22,41.33 28,27.32 129.05,27.26l3587.9 0c160.14,0 1182.79,21.78 1237.21,-18.21 42.17,-35.67 25.34,-314.77 25.34,-384.05 0,-431.56 12.48,-2839.92 -7.49,-2871.59 -17.47,-27.32 -52.47,-33.8 -89.36,-37.09 -39.48,-3.52 -90.48,-0.83 -131.2,-0.82l-4433.57 0c-386.32,0 -345.48,-31.2 -345.47,183.69 0,164.75 -6.44,3010.77 3.55,3059.54 6.77,33.1 14.69,35.22 24.04,41.27z"/>
   <path class="fil5" d="M1756.81 2368.92c-28.25,3.99 -16.11,122.2 -16.11,177.45l0 2873.6c0,37.65 9.48,183.7 7.03,194.37 172.51,13.71 795.81,4.02 1015.76,4.02 1195.97,0 2391.93,0 3587.9,0 81.98,0 174.63,4.16 255.17,0.53 107.44,-4.83 97.69,-115.8 97.53,-157.86l-0.02 -3078.87c-28.13,-50.32 -214.02,-32.84 -278.79,-32.84l-4523.87 0c-35.07,0 -137.31,-15.91 -144.6,19.6z"/>
   <path class="fil6" d="M1756.81 2368.92c9.41,148.6 0.81,617.36 0.81,801.43 0,199.96 -12.86,2312.44 7.74,2404.22l4873.39 1.11c14.29,-19.72 1.53,-8.26 20.64,-19.94l2.18 -3181.83c-68.51,-20.72 -2320.85,-8.07 -2453.07,-8.07 -81.6,0 -2364.95,-7.75 -2451.69,3.08z"/>
   <path class="fil7" d="M5518.64 4063.59l1.29 -26.69c-118.33,12.1 -232.57,11.8 -318.68,-45.43l-14.61 -10.18c-93.29,-58.95 -54.39,-53.48 -99.53,-121.24 -10.24,-15.38 -27.61,-37.28 -38.33,-51.74l-5.09 35.28c-30.86,5.42 25.25,-20.04 -20.53,-2.76 -6.89,31.51 -28.04,57.61 -44.63,81.33 -0.54,0.78 -1.89,2.71 -2.44,3.53 -27.47,40.96 -0.44,17.2 -41.13,36.41 -50.51,23.84 -11.44,3.52 -30.6,24.32l-38.08 29.87c-39.76,19.63 -135.11,24.76 -181.84,25.26 -201.61,2.18 -187.52,-46.74 -219.79,-67.91 -22.45,-14.73 -20.74,-1.81 -45.87,-28.42l-30.03 -35.5c-32.48,-36.83 -51.9,-31.62 -57.2,-84.93 -6.94,2.52 -16.27,4.78 -23.94,8.63 -27.4,13.74 1.54,-9.25 -11.86,9.14l-27.91 51.56c-34.23,73.78 -89.56,79.09 -111.15,111.6 -13.14,19.79 -8.29,28.08 -35.34,37.31 -63.93,21.79 -118.3,-8.15 -167.37,46.5l-65.76 -23.77c-21.85,-7.74 -48.1,-10.62 -73.99,-14.94 -133.43,-22.31 -91.83,-25.53 -119.95,-54.3 -20.74,-21.22 -36.55,-16.77 -56.94,-32.92 -26.49,-20.99 -15.7,-33.15 -34.28,-56.79 -18.92,-24.06 -29.79,-9.61 -41.34,-49.54 -7.47,-25.82 2.08,-22.12 -12.98,-54.02l-7.65 -10.49c-22.83,64.86 -33.13,50.38 -51.48,97.21 -10.29,26.27 -4.85,30.32 -32.56,46.87l-45.02 20.89c-38.06,20.7 -15.08,19.88 -85.78,53.96 -47.26,22.78 -65.57,18.51 -127.57,18.62 -70.84,0.13 -119.1,2.24 -172.46,-14.49 -40.43,46.3 -31.01,54.16 -30.49,131.52l-0.01 936.01c-0.07,99.65 -7.43,70.42 33.21,153.88 0.84,1.73 1.59,4.08 2.49,5.73 25.95,47.89 164.31,30.83 249.32,30.83l1568.17 1.1c751.52,-4.03 667.61,81.47 667.61,-273.65 0,-255.13 -12.38,-729.87 2.12,-937.65z"/>
   <path class="fil8" d="M6999.15 2301.75c25.46,61.35 11.34,1586.6 11.34,1796.36 0,219.89 14.7,1702.29 -12.74,1789.93l-5528.44 -3.26c-21.1,-110.08 -9,-316.92 -9,-440.18l0 -2257.83c0,-298.54 7.68,-608.78 0.24,-904.96 -7.28,9.78 -4.66,2.04 -9.17,19.39 -20.41,78.57 26.29,3539.17 -17.96,3581.27 -61.84,24.34 -356.53,5.74 -454.53,11.22 -2.6,68.16 -1.33,139.32 -0.96,207.74 1.04,191.01 56.18,131.1 121.54,203.06 46.6,51.3 169.63,31.87 284.69,32.58 284.61,1.75 569.27,1.67 853.87,3.33 1411.32,8.26 2846.73,0.64 4261.15,-0.53 142.33,-0.12 284.61,-0.97 426.93,-1.5 139.55,-0.51 284.69,5.23 418.73,-9.42 11.31,-12.63 14.88,-23.06 28.73,-34.5 25.57,-21.14 23.07,-4.41 45.16,-29.17 13.81,-15.48 11.79,-25.42 25.16,-40.29 28.41,-31.58 19.48,1.69 40.65,-34.41 19.36,-38.02 8.94,-235.04 6.57,-293.3 -84.84,-19.19 -336.6,-2.67 -444.37,-7.29 -42.65,-56.64 -25.86,-341.61 -25.86,-428.97l0.02 -3013.17c0.07,-39.81 0.1,-75.48 -3.64,-115.3 -5.35,-57 -4.22,-73.61 -23.21,-103.82 5.34,36.04 9.39,38.72 5.1,73.02z"/>
   <path class="fil9" d="M1616.23 2031.78c49.47,-1.71 42.33,-8.49 77.68,-19.81 26.65,-8.53 219.98,-4.24 256.76,-4.24l4721.14 -0.15c41.83,-0.14 191.27,31.5 213.43,46.9 9.48,6.59 12.91,11.95 20.38,19.64 25.4,26.12 68.74,44.08 103.45,116.68 30.91,24.11 33.76,64.57 27.17,125.05 1.59,1.73 3.18,4.35 4.11,5.75l7.68 11.42c36.02,58.07 22.87,94.08 22.87,180.51l0 3119.91c-0.01,51.51 -8.16,119.75 12.66,162.47 8.7,17.85 8.21,34.36 63.66,38.31 249.98,17.83 401.16,-73 399.64,127.43 -0.45,60.15 2.43,130.24 -5.66,182.42 -25.2,162.55 -42.35,120.68 -79.5,165.07 -20.28,24.23 -5.72,11.33 -18.63,31.47 -41.69,65.07 -314.69,40.55 -426.64,40.75l-5763.64 -1.39c-180.19,-2.7 -167.27,3.44 -277.67,-99.14 -42.58,-39.55 -25.81,-84.83 -61.33,-135.89 -26.66,-38.34 -15.44,-118.5 -15.93,-174.97 -1.32,-152.45 52.92,-128.25 264.62,-128.25 146.28,0 250.61,35.47 249.78,-125.92l-0.2 -1913.26c0,-160.42 -7.72,-1409.97 5.28,-1535.28 -37.31,1.45 -36.25,6.3 -41.65,39.28 -1.95,11.93 0.19,60.06 0.27,75.65l0.03 3218.4c0,232.34 54.69,199.65 -345.05,198.03 -85.87,-0.35 -64.91,10.55 -108.65,36.38 -41.88,24.74 -47.52,39.97 -47.59,101.93 -0.1,87.67 -17.63,234.96 41.51,246.59 0.53,20.18 5.87,42.82 7.22,47.3l10.9 29.52c31.57,79.05 33.69,17.11 57.63,67.25 21.32,44.67 -4.82,68.71 154,72.5 177.25,4.23 186.14,60.06 256.8,70.2 73.85,10.6 427.17,-4.86 486.65,6.46 1.14,0.21 17.87,4.66 18.76,4.95 97.07,31.84 329.91,14.05 461.23,14.05 1316.34,0 2632.82,0 3949.15,0 143.2,0 305.54,6.51 436.22,-7.73 133.07,-14.5 304.11,7.03 442.23,-1.41 71.45,-4.36 119.91,-17.75 205.35,-17.06 89.5,0.72 77.83,8.25 128.24,-42.74l8.21 -8.15c11.89,-10.97 1,-7.02 18.15,-14.69l0 -13.83c-38.61,-9.27 -31.63,-12.95 -48.19,-25.46 -1.35,-1.02 -3.36,-2.39 -4.7,-3.41 -28.28,-21.48 -12.45,6.34 -27.41,-29.96 26.61,-38.93 43.97,4 63.4,-77.44 3.53,-14.78 7.79,-37.83 13.97,-50.42 19.22,-39.17 13.65,-1.04 28.38,-45.32 15.85,-47.64 13.47,-216.08 7.76,-278.39 -41.8,-28.37 -60.97,-90.76 -146.29,-91.94 -83.91,-1.16 -171.34,-0.39 -255.36,0.76 -97.98,1.35 -80.63,-0.33 -80.62,-171.55l0 -3103.48c0,-203.35 13.12,-164.39 -48.68,-213.47 -5.61,-49.57 -9.01,-119.46 -26.04,-157.91 -14.06,-31.77 -5.93,-15.32 -33.92,-28.55 -64,-30.24 -19.68,-64.5 -123.64,-83.97 -107.09,-20.05 -28.27,-21.11 -81.21,-49.07 -46.91,-24.77 -2181.13,-10.44 -2314.96,-10.44 -900.07,0 -1826.77,7.02 -2725.91,-0.14 -51.77,-0.42 -76.24,-5.34 -110.47,29.83 -7.57,7.77 -5.51,5.96 -12.59,14.37l-9.3 11.56c-1.26,1.55 -3.28,4.04 -4.94,6.04z"/>
   <path class="fil10" d="M3170.87 2720.97c-20.17,3.22 -2.76,-3.34 -17.45,11.42 -2.43,2.44 -11.07,15.43 -17.58,22.12 -23.76,24.37 -29.74,12.17 -42.5,31 2.79,42.08 -1.52,112.47 -41.56,139.02 -9.42,6.25 -0.45,-2.24 -15.08,7.72 -5.26,44.21 -13.84,183.51 -31.33,217.28 -9.26,17.89 -6.38,11.08 -19.02,22.09 -38.96,33.93 -24.63,47.96 -28.8,112.38 -2.83,43.74 -12.68,88.39 -16.13,130.08l-44.98 13.08c-6.69,70.58 -11.63,144.56 -25.59,213.71 -21.22,105.08 5.06,135.64 13.14,223.1 74.89,12.11 77.68,106.3 75.33,168.23l1.31 1141.67c5.11,30.77 18.29,33.5 49.35,82.7 31.26,49.51 131.59,34.34 221.5,34.33 283.48,-0.01 2234.92,19.39 2281.34,-10.55 55.08,-62.6 37.77,-184.45 37.77,-279.11 0,-268.62 -11.86,-716.86 2.39,-946.56l-22.55 -5.51 -11.79 14.42c-14.5,207.78 -2.12,682.52 -2.12,937.65 0,355.12 83.91,269.62 -667.61,273.65l-1568.17 -1.1c-85.01,0 -223.37,17.06 -249.32,-30.83 -0.9,-1.65 -1.65,-4 -2.49,-5.73 -40.64,-83.46 -33.28,-54.23 -33.21,-153.88l0.01 -936.01c-0.52,-77.36 -9.94,-85.22 30.49,-131.52 53.36,16.73 101.62,14.62 172.46,14.49 62,-0.11 80.31,4.16 127.57,-18.62 70.7,-34.08 47.72,-33.26 85.78,-53.96l45.02 -20.89c27.71,-16.55 22.27,-20.6 32.56,-46.87 18.35,-46.83 28.65,-32.35 51.48,-97.21 5.56,-70.84 5.13,-128.52 20.99,-187.02 2.44,-39.25 -0.53,-85.66 4.55,-122.46 4.09,-29.63 15.2,-62.65 19.63,-93.65 30.11,-210.66 55.79,-452.37 56.05,-662.29l33.86 -19.72c-27.79,4.6 -27.17,9.98 -50.82,15.62 -56.38,13.44 -423.83,5.28 -454.48,-2.27z"/>
   <path class="fil11" d="M3656.75 2995.64c-20.24,10.46 -14.11,7.42 -14.82,76.13l-33.87 318.6c-8.75,51.17 -23.17,74.9 -22.89,149.7 0.27,72.3 -12.08,58.1 -23.09,65.67 -15.86,58.5 -15.43,116.18 -20.99,187.02l7.65 10.49c15.06,31.9 5.51,28.2 12.98,54.02 11.55,39.93 22.42,25.48 41.34,49.54 18.58,23.64 7.79,35.8 34.28,56.79 20.39,16.15 36.2,11.7 56.94,32.92 28.12,28.77 -13.48,31.99 119.95,54.3 25.89,4.32 52.14,7.2 73.99,14.94l65.76 23.77c49.07,-54.65 103.44,-24.71 167.37,-46.5 27.05,-9.23 22.2,-17.52 35.34,-37.31 21.59,-32.51 76.92,-37.82 111.15,-111.6l27.91 -51.56c2.03,-39.54 32.21,-73.65 12.77,-125.13 -9.54,-25.27 -32.67,-27.61 -34.64,-111.55 -4.08,-173.46 14.32,-805.01 -3.84,-880.6 -67.65,-27.48 -520.41,-19.66 -592.59,4.93 0,130.85 -10.92,63.91 -18.86,128.01 -3.98,32.12 -5.78,107.68 -1.84,137.42z"/>
   <path class="fil12" d="M5048.78 3808.31c10.72,14.46 28.09,36.36 38.33,51.74 45.14,67.76 6.24,62.29 99.53,121.24l14.61 10.18c86.11,57.23 200.35,57.53 318.68,45.43l25.6 -24.16c65.12,-45.91 7.58,-41.86 75.09,-66.03 76.67,-27.47 28.34,-57.09 98.62,-78.49 26.51,-132.29 44.67,-157.44 16.97,-255.23 -8,-28.24 -8.18,-56.07 -10.1,-89.25 -4.92,-85.34 -15.19,-61.11 -26.31,-72.01 -11.34,-11.1 1.46,4.16 -11.7,-11.84l-9.85 -14.23c-34.31,-55.29 -21.17,-144.8 -25.88,-215.96 -60.03,-11.5 -65.63,-14.33 -67.07,-79.8 -1.21,-54.58 -0.8,-103.94 -6.32,-158.61 -36.58,-23.34 -13.44,5.54 -34.87,-27.25 -26.22,-40.13 -26.93,-104.75 -30.63,-151.87 -49.39,-23.41 -48.14,5.63 -76.69,-53.45 -0.64,-1.34 -2.47,-2.77 -2.94,-5.97 -4.29,-29.26 -430.97,-19.53 -445.37,-7.55 -8.62,13.01 -3.63,-1.02 -6.61,18.55 -0.29,1.95 -0.52,4.31 -0.66,6.39 -0.13,2.12 0.13,4.36 0.16,6.56l25.88 520.96c1.92,68.12 25.98,39.58 26.64,122.66 0.49,62.77 14.56,62.43 16.1,122.71 1.91,74.62 7.61,216.87 -1.21,285.28z"/>
   <path class="fil12" d="M3656.75 2995.64c10.47,101.47 -8.79,270.92 -11.08,380.28 -1.72,81.9 -21.25,87.63 -23.48,164.3 -1.7,58.34 -5.97,24.5 -27.58,68.77 -18.2,37.27 -17.3,131.96 -10.61,176.17 7.04,46.53 10.23,39.98 32.68,67.3 51.79,63.06 -5.95,57.7 95.49,102.95 72.1,32.17 54.43,61.6 126.51,67.93 75.88,6.67 152.92,12.87 222.39,-13.46 17.37,-6.58 22.66,-8.46 33.64,-16.81 74.72,-56.84 65.63,-30.11 110.93,-85.97 33.06,-40.76 90.92,-78.11 57.87,-217.62 -24.76,-104.47 10.71,-931.96 -13.19,-962.53 -14.26,-18.22 -526.23,-26.74 -529.37,2.87l-7.41 30.04c-1.18,11.79 0.4,27.27 -0.64,40.63 -3.13,40.54 -12.54,36.97 -22.37,57.05 -20.7,42.28 1.52,91.29 -33.78,138.1z"/>
   <path class="fil10" d="M3170.87 2720.97c30.65,7.55 398.1,15.71 454.48,2.27 23.65,-5.64 23.03,-11.02 50.82,-15.62 97.23,-28.77 212.11,-17.01 318.86,-17.01 54.73,0 109.5,0.23 164.22,-0.04 89.06,-0.46 69.76,3.17 135.09,23.69 68.31,18.37 44.73,32.21 44.73,226.2l0 525.46c-0.01,43.54 -1.26,88.69 1.17,131.99 3.98,71.14 13.2,38.51 32.47,93.16l626.28 0.81c11.88,-54.35 -3.85,-63.45 -6.18,-119.23 -13.62,-2.99 15.92,-10.78 -3.24,4.08 -14.08,10.91 7.57,9.1 -8.17,4.14l-19.59 -212.37c-2.55,-39.43 -10.76,-306.11 -20.53,-331.22 -35.38,-90.93 -6.3,-30.3 -34.08,-140.33 -5.08,-20.14 -5.1,-33.7 -7.11,-54.28 -4.1,-42.1 -7.37,-76.14 -8.79,-123.01 172.01,-52.54 148.21,-35.3 351.7,-35.34 56.54,-0.01 141.66,-3.76 187.51,12.86 28.47,10.32 95.82,63.95 108.02,92.95 17.17,43.55 7.8,31.63 30.71,70.17 36.53,61.42 25.84,170.64 67.05,244.67 33.93,60.96 31.9,91.11 45.14,167.96 13.69,79.47 38.9,83.64 53.92,149.81 14.7,64.75 14.71,121.27 39.81,175.57 21.98,47.56 44.33,101.87 8.08,161.87 -25.3,41.88 -37.66,140.4 -120.27,191.46 -26.76,16.53 -56.2,18.3 -49.88,47.28 43.86,-18.8 72.14,-28.6 101.79,-68.98 85.84,-116.92 21.48,-32.59 63.51,-117.22 26.82,-53.99 41.29,-52.53 40.38,-133.36 -0.96,-84.75 -24.39,-73.91 -44.14,-136.7 -30.55,-97.13 9.97,-139.05 -57.17,-247.7 -34.28,-55.48 -22.66,-123.53 -38.21,-186.62 -19.44,-78.88 -43.09,-49.1 -49.23,-136.72 -9.19,-24.33 -10.65,-75.13 -20.98,-109.97 -10.23,-34.47 -89.22,-130.33 -119.99,-158.97 -37.78,-35.17 -66.58,-20.71 -90.09,-37.36l-431.06 2.38c-47.6,5.97 -79.72,19.57 -126.82,20.72l-435.53 -0.25c-91.91,-0.19 -65.08,4.68 -131.78,-16.75 -49.16,-15.8 -499.13,-9.68 -567.43,-1.68 -137.02,16.06 24.05,31.03 -253.18,31.03l-222.19 -0.39c-2.17,0 -32.55,1.05 -32.61,1.06 -36.42,8.78 -15.32,-13.2 -27.49,19.53z"/>
   <path class="fil13" d="M1616.23 2031.78c-106.21,-4.28 -83.58,42.49 -134.64,78.85 -67.65,48.16 -50.72,55.26 -64.25,156.63 -13,125.31 -5.28,1374.86 -5.28,1535.28l0.2 1913.26c0.83,161.39 -103.5,125.92 -249.78,125.92 -211.7,0 -265.94,-24.2 -264.62,128.25 0.49,56.47 -10.73,136.63 15.93,174.97 35.52,51.06 18.75,96.34 61.33,135.89 110.4,102.58 97.48,96.44 277.67,99.14l5763.64 1.39c111.95,-0.2 384.95,24.32 426.64,-40.75 12.91,-20.14 -1.65,-7.24 18.63,-31.47 37.15,-44.39 54.3,-2.52 79.5,-165.07 8.09,-52.18 5.21,-122.27 5.66,-182.42 1.52,-200.43 -149.66,-109.6 -399.64,-127.43 -55.45,-3.95 -54.96,-20.46 -63.66,-38.31 -20.82,-42.72 -12.67,-110.96 -12.66,-162.47l0 -3119.91c0,-86.43 13.15,-122.44 -22.87,-180.51l-7.68 -11.42c-0.93,-1.4 -2.52,-4.02 -4.11,-5.75 -3.43,30.13 4.86,127.2 4.86,173.05l0 2709.39c0,63.48 -11.74,578.16 12.83,625.41 9.96,19.14 -3.34,1.05 10.86,15.18 54.14,53.86 295.55,0.77 408.8,22.99 52.54,10.3 43.68,75.52 43.52,132.81 -0.43,152.7 19.52,212.43 -72.45,288.61 -37.03,30.68 -50.23,60.94 -109.2,70.9 -86.47,14.62 -254.07,5.69 -351.88,6.04 -240.8,0.87 -481.69,1.76 -722.5,1.76 -963.34,-0.02 -1926.69,0 -2890.03,0 -710.39,0 -1450.44,5.86 -2159.25,-5.67 -152.24,-2.48 -124.22,-27.05 -194.73,-76.34 -30.54,-21.35 -28.62,-11.27 -44.41,-46.47 -47.25,-105.3 -39.33,-188.11 -39.33,-320.93 23.48,-72.55 139.54,-51.38 220.94,-51.38 301.59,0 275.18,26.97 275.17,-235.97l0 -2528.77c0,-118.8 -13.3,-738.12 12.26,-847.16 10.62,-45.27 11.82,-35.25 24.09,-40.59 5.61,-18.58 62.4,-78.27 77.6,-94.28 31.56,-33.24 55.2,-56.53 119.53,-60.06 115.65,-6.35 244.57,-1.28 361.64,-1.28 1436.81,0 2873.61,0 4310.41,0 97.1,0 451.37,-15.5 515.58,25.89 31.83,20.53 6.62,22.64 44.36,45.74 22.31,13.66 31.62,11.06 48.33,26.75 32.2,15.69 -1.34,-3.07 18.42,13.37 1.14,0.95 12.6,12.49 14,13.5 15.15,10.9 -1.66,16.3 33.41,12.46 -34.71,-72.6 -78.05,-90.56 -103.45,-116.68 -7.47,-7.69 -10.9,-13.05 -20.38,-19.64 -22.16,-15.4 -171.6,-47.04 -213.43,-46.9l-4721.14 0.15c-36.78,0 -230.11,-4.29 -256.76,4.24 -35.35,11.32 -28.21,18.1 -77.68,19.81z"/>
   <path class="fil8" d="M1699.28 5590.49c10.48,-99.32 1.66,-1935.64 1.66,-2091.73 0,-347.52 1.18,-695.25 -0.03,-1042.75 -0.62,-180.8 38.45,-145.62 372.91,-145.62l4441.78 0c72.16,0 185.16,-16.99 218.73,41.88 25.12,44.05 11.2,1858.2 11.2,2066.04 0,347.57 0,695.14 0,1042.71 0,40.66 2.7,91.14 0,130.57 -6.82,99.68 -164.03,67.76 -312.04,67.76l-3653.58 0c-348.21,0 -706.12,6.23 -1048.39,-4.52 23.56,33.44 63.12,22.51 120.63,22.36l4647.03 -0.01c301.62,0.01 263.29,29.32 263.29,-273.63 0,-193.38 10.93,-3007.38 -6.13,-3056.53 -13.22,-38.09 -25.55,-32.84 -44.77,-54.41 -8.01,-8.98 -7.09,-12.13 -15.35,-23.19 -341.5,-9.2 -692.02,-1.91 -1034.49,-1.91 -396.32,0 -3875.93,-6.4 -3905.69,2.57l-36.32 28.83c-59.41,60.31 -51.84,61.29 -51.37,148.92l0.05 2085.43c0,345.71 -7.94,700.86 1.06,1045.4 13.81,7.45 15.41,5.56 29.82,11.83z"/>
   <path class="fil14" d="M5630.02 2971.62c6.14,87.62 29.79,57.84 49.23,136.72 15.55,63.09 3.93,131.14 38.21,186.62 67.14,108.65 26.62,150.57 57.17,247.7 19.75,62.79 43.18,51.95 44.14,136.7 0.91,80.83 -13.56,79.37 -40.38,133.36 -42.03,84.63 22.33,0.3 -63.51,117.22 -29.65,40.38 -57.93,50.18 -101.79,68.98 5.78,58.7 -19.14,21.16 -24.49,82.2 -7.5,85.39 -0.01,821.59 0,969.39 0,113.1 12.78,117.08 -24.18,189.71 -36.75,72.22 -45.94,66.93 -148.99,67.64 -73.85,0.5 -147.82,-0.03 -221.69,0.1 -185.76,0.33 -2060.61,9.09 -2151.53,-2.69 -44.21,-5.73 -46,-27.84 -87.47,-68.78 -44.32,-43.76 -25.12,-142.25 -25.12,-251.67 0,-287.36 0.07,-574.72 -0.01,-862.08 -0.07,-248.51 -22.61,-173.21 -67.13,-254.99 -13.71,-25.17 -52.8,-116.29 -54.89,-163.4 -2.24,-50.27 2.89,-60.6 21.96,-89.4 51.61,-77.91 14.71,-158.06 59.7,-235.89 26.22,-45.36 19.86,-40.11 36.26,-102.28 16.18,-61.35 7.8,-121.74 39.02,-176.05 54.55,-94.91 41.39,-191.48 75.79,-243.97 55.15,-84.16 7.43,-51.63 53.02,-71.25 12.76,-18.83 18.74,-6.63 42.5,-31 6.51,-6.69 15.15,-19.68 17.58,-22.12 14.69,-14.76 -2.72,-8.2 17.45,-11.42 12.17,-32.73 -8.93,-10.75 27.49,-19.53 0.06,-0.01 30.44,-1.06 32.61,-1.06l222.19 0.39c277.23,0 116.16,-14.97 253.18,-31.03 68.3,-8 518.27,-14.12 567.43,1.68 66.7,21.43 39.87,16.56 131.78,16.75l435.53 0.25c47.1,-1.15 79.22,-14.75 126.82,-20.72l431.06 -2.38c-15.17,-62.11 -42.38,-42.6 -188.8,-42.6 -73.79,0 -147.93,-0.72 -221.68,0.4 -81.48,1.23 -130.38,12.01 -213.46,11.9l-435.62 -0.41c-45.73,-2.36 -38.93,-11.02 -86.64,-18.6 -55.2,-8.77 -497.73,-6.51 -553.95,-3.86 -99.65,4.71 34.78,22.96 -188.18,22.87 -74.05,-0.03 -148.13,-0.44 -222.14,-0.5 -76.27,-0.07 -37.48,8.52 -84.49,23 -55.4,17.07 -60.61,-10.58 -125.71,63.72 -1.25,1.43 -2.9,3.18 -4.11,4.69l-35.63 55.94c-35.03,53.91 -47.18,36.94 -53.14,108.51 -15.95,191.6 -53.37,99.61 -71.72,255.48 -6.09,51.79 3.66,80.44 -33.42,124.35l-11.92 13.29c-22.17,31.94 -38.42,179.48 -39.14,223.47 -84.88,35.45 -71.33,278.63 -38.9,317.81 16.57,20.02 20.63,13.11 32.17,32.99 22.16,38.14 0.44,34.19 39.72,76.29 73.77,79.07 43.77,119.85 43.77,303.63 0,227.46 -10.33,755.97 0.86,944.76 3.1,52.34 46.25,117.39 96.08,137.9 53.66,22.08 1547.25,9.21 1640.74,9.22 132.93,0 860.77,20.74 917.77,-18.1 51.83,-35.33 65.02,-83.53 64.71,-170.65l-0.1 -714.3c0,-103.69 -24.62,-377.35 37.01,-424.26 7.29,-5.55 90.35,-28.82 116.68,-117.58 34.59,-116.58 88.34,-9.48 62.3,-280.32 -4.88,-50.79 -6.5,-60.53 -32.82,-88.69 -37.85,-40.48 -30.28,-132.42 -39.31,-197.29 -6.4,-46 -14.53,-53.12 -39.96,-77.2 -45.46,-43.04 -0.14,-168.98 -59.17,-235.71l-40.74 -33.85z"/>
   <path class="fil3" d="M6994.05 2228.73c18.99,30.21 17.86,46.82 23.21,103.82 3.74,39.82 3.71,75.49 3.64,115.3l-0.02 3013.17c0,87.36 -16.79,372.33 25.86,428.97 107.77,4.62 359.53,-11.9 444.37,7.29 2.37,58.26 12.79,255.28 -6.57,293.3 -21.17,36.1 -12.24,2.83 -40.65,34.41 -13.37,14.87 -11.35,24.81 -25.16,40.29 -22.09,24.76 -19.59,8.03 -45.16,29.17 -13.85,11.44 -17.42,21.87 -28.73,34.5 -134.04,14.65 -279.18,8.91 -418.73,9.42 -142.32,0.53 -284.6,1.38 -426.93,1.5 -1414.42,1.17 -2849.83,8.79 -4261.15,0.53 -284.6,-1.66 -569.26,-1.58 -853.87,-3.33 -115.06,-0.71 -238.09,18.72 -284.69,-32.58 -65.36,-71.96 -120.5,-12.05 -121.54,-203.06 -0.37,-68.42 -1.64,-139.58 0.96,-207.74 98,-5.48 392.69,13.12 454.53,-11.22 44.25,-42.1 -2.45,-3502.7 17.96,-3581.27 4.51,-17.35 1.89,-9.61 9.17,-19.39l5.24 -73.1c-12.27,5.34 -13.47,-4.68 -24.09,40.59 -25.56,109.04 -12.26,728.36 -12.26,847.16l0 2528.77c0.01,262.94 26.42,235.97 -275.17,235.97 -81.4,0 -197.46,-21.17 -220.94,51.38 0,132.82 -7.92,215.63 39.33,320.93 15.79,35.2 13.87,25.12 44.41,46.47 70.51,49.29 42.49,73.86 194.73,76.34 708.81,11.53 1448.86,5.67 2159.25,5.67 963.34,0 1926.69,-0.02 2890.03,0 240.81,0 481.7,-0.89 722.5,-1.76 97.81,-0.35 265.41,8.58 351.88,-6.04 58.97,-9.96 72.17,-40.22 109.2,-70.9 91.97,-76.18 72.02,-135.91 72.45,-288.61 0.16,-57.29 9.02,-122.51 -43.52,-132.81 -113.25,-22.22 -354.66,30.87 -408.8,-22.99 -14.2,-14.13 -0.9,3.96 -10.86,-15.18 -24.57,-47.25 -12.83,-561.93 -12.83,-625.41l0 -2709.39c0,-45.85 -8.29,-142.92 -4.86,-173.05 6.59,-60.48 3.74,-100.94 -27.17,-125.05 -35.07,3.84 -18.26,-1.56 -33.41,-12.46 -1.4,-1.01 -12.86,-12.55 -14,-13.5 -19.76,-16.44 13.78,2.32 -18.42,-13.37 15.06,55.46 28.7,35.59 50.81,77.26z"/>
   <path class="fil15" d="M4294.34 2714.26c11.65,291.86 -7.58,608.59 1.4,891.79 2.85,89.85 32.24,50.36 46.99,101.83 16.83,58.74 -9.16,94.8 -11.18,116.91 5.3,53.31 24.72,48.1 57.2,84.93l30.03 35.5c25.13,26.61 23.42,13.69 45.87,28.42 32.27,21.17 18.18,70.09 219.79,67.91 46.73,-0.5 142.08,-5.63 181.84,-25.26l38.08 -29.87c19.16,-20.8 -19.91,-0.48 30.6,-24.32 40.69,-19.21 13.66,4.55 41.13,-36.41 0.55,-0.82 1.9,-2.75 2.44,-3.53 16.59,-23.72 37.74,-49.82 44.63,-81.33 8.44,-79.2 17.18,-287.74 -8.4,-368.21 -34.01,-106.99 -6.43,-64.34 -20.5,-127.03 -5.83,-25.97 -13.79,-31.5 -16.88,-54.01l-18.87 -293.42c-7.01,-159.18 -26.32,-152.49 -32.74,-198.03 -2.75,-19.49 -1.72,-52.76 -1.43,-73.13 72.01,-46.63 236.67,-29.32 335.08,-29.36 234.72,-0.08 149.22,-0.45 279.11,92.49 -12.2,-29 -79.55,-82.63 -108.02,-92.95 -45.85,-16.62 -130.97,-12.87 -187.51,-12.86 -203.49,0.04 -179.69,-17.2 -351.7,35.34 1.42,46.87 4.69,80.91 8.79,123.01 2.01,20.58 2.03,34.14 7.11,54.28 27.78,110.03 -1.3,49.4 34.08,140.33 9.77,25.11 17.98,291.79 20.53,331.22l19.59 212.37c15.74,4.96 -5.91,6.77 8.17,-4.14 19.16,-14.86 -10.38,-7.07 3.24,-4.08 2.33,55.78 18.06,64.88 6.18,119.23l-626.28 -0.81c-19.27,-54.65 -28.49,-22.02 -32.47,-93.16 -2.43,-43.3 -1.18,-88.45 -1.17,-131.99l0 -525.46c0,-193.99 23.58,-207.83 -44.73,-226.2z"/>
   <path class="fil6" d="M5090.78 4972.06c-97.68,-11.68 -192.43,37 -283.1,-95.46 -30.78,-44.95 -59.5,-52 -63.11,-129.37 -6.69,-143.44 12.16,-157.11 83.71,-250.58 50.21,-65.6 81.71,-63.55 176.64,-63.42 98.3,0.14 218.9,41.74 235.89,-17 6.9,-23.86 7.34,-68.49 -16.63,-73.51 -92.41,1.98 -178.74,-50.39 -276.59,-41.12 -27.47,2.6 -18.69,5.91 -36.7,16.01 -26.68,14.96 -77.17,25.49 -112,28.54 -28.65,56.4 -8.13,46.23 -78.13,67.26 -6.83,24.2 -7.91,37.41 -21.72,51.98 -32.6,34.39 -43.8,-18.49 -64.36,167.2 -12.41,112.16 14.02,187.15 22.41,281.94 55.05,20.22 55.01,12.97 65.78,80.68 52.24,3.59 66.38,15.68 75.21,62.84 81.24,5.97 121,25.76 215.11,26.05 75.44,0.23 133.93,-18.42 213.59,-26.39 27.91,-71.89 1.41,-37.41 69.71,-68.4 10.6,-10.57 2.19,-10.64 12.3,-39.2 18.98,-53.68 45.57,-34.15 60.4,-86.32 26.81,-94.27 0.42,-200.24 -8.18,-185.35l-19.86 -5.55c-9.45,-1.31 -30.1,-0.84 -40.41,-0.74l-229.05 2.04 -7.05 104.43c91.67,4.97 179.77,-11.87 199.6,66.63 -14.31,45.63 -30.49,24.24 -62.36,81.34 -22.28,39.94 -49.7,47.26 -111.1,45.47z"/>
   <path class="fil16" d="M5613.09 3998.92l-60.11 55.76c-14.25,229.7 -2.39,677.94 -2.39,946.56 0,94.66 17.31,216.51 -37.77,279.11 -46.42,29.94 -1997.86,10.54 -2281.34,10.55 -89.91,0.01 -190.24,15.18 -221.5,-34.33 -31.06,-49.2 -44.24,-51.93 -49.35,-82.7l-1.31 -1141.67c2.35,-61.93 -0.44,-156.12 -75.33,-168.23 -8.08,-87.46 -34.36,-118.02 -13.14,-223.1 13.96,-69.15 18.9,-143.13 25.59,-213.71l44.98 -13.08c3.45,-41.69 13.3,-86.34 16.13,-130.08 4.17,-64.42 -10.16,-78.45 28.8,-112.38 12.64,-11.01 9.76,-4.2 19.02,-22.09 17.49,-33.77 26.07,-173.07 31.33,-217.28 14.63,-9.96 5.66,-1.47 15.08,-7.72 40.04,-26.55 44.35,-96.94 41.56,-139.02 -45.59,19.62 2.13,-12.91 -53.02,71.25 -34.4,52.49 -21.24,149.06 -75.79,243.97 -31.22,54.31 -22.84,114.7 -39.02,176.05 -16.4,62.17 -10.04,56.92 -36.26,102.28 -44.99,77.83 -8.09,157.98 -59.7,235.89 -19.07,28.8 -24.2,39.13 -21.96,89.4 2.09,47.11 41.18,138.23 54.89,163.4 44.52,81.78 67.06,6.48 67.13,254.99 0.08,287.36 0.01,574.72 0.01,862.08 0,109.42 -19.2,207.91 25.12,251.67 41.47,40.94 43.26,63.05 87.47,68.78 90.92,11.78 1965.77,3.02 2151.53,2.69 73.87,-0.13 147.84,0.4 221.69,-0.1 103.05,-0.71 112.24,4.58 148.99,-67.64 36.96,-72.63 24.18,-76.61 24.18,-189.71 -0.01,-147.8 -7.5,-884 0,-969.39 5.35,-61.04 30.27,-23.5 24.49,-82.2z"/>
   <path class="fil10" d="M4663.18 4370.97c-82.28,24.99 -44.14,81.35 -77.46,128.99 -28.14,40.24 -55.74,6.6 -55.96,164.63 -0.49,363.05 51.05,137.32 69.36,311.88 8.47,80.72 49.49,25.6 78.87,82.1 20.61,39.67 3.23,36.59 55.26,48.57 31.65,7.29 62.76,5.65 81.96,26.59 30.66,33.42 4.45,33.36 73.46,42.68 59.53,8.04 247.28,16.56 307.44,-9.34 38.71,-16.66 33.69,-22.93 60.31,-44.73l36.85 -21.31c51.87,-29.6 28.75,-37.93 83.21,-81.24 77.69,-61.76 19.11,-89.27 71.77,-150.05 39.48,-45.56 36.86,-113.32 35.78,-180.7 -0.68,-42.76 1.64,-64.55 -22.24,-87.19 -48.19,-45.71 -220.55,-28.86 -300.89,-28.64 -62.84,0.16 -164.33,-14.31 -192.31,30.83 -19.06,30.73 -29.51,161.64 -5.5,200.89 26.8,43.81 133.74,23.79 192.56,30.57 7.5,28.8 -9.98,28.85 -47.78,63.47 -7.94,7.27 -13.25,12.96 -21.74,16.8 -34.05,15.38 -115.6,6.75 -155.12,3.41 -27.88,-60.55 -33.43,-40.18 -70.78,-69.71l-22.31 -27.86c-37.14,-54.73 -71.06,-26.08 -47.39,-195.55 65.74,-35.61 42.48,-51.69 66.27,-77.53 28.1,-30.51 42.58,-5.37 67.47,-68.56 36.28,2.57 80.75,-4.97 119.31,-2.32 78.09,5.38 42.74,62.8 130.89,51.83 3.66,-0.45 38.24,-7.04 44.3,-9.25 12.7,-4.61 27.69,-15.75 35.06,-24.07 21.53,-24.27 20.84,5.27 21.97,-40.33 -45.59,14.28 -84,57.23 -123.11,52.2 -17.95,-2.32 -48.27,-70.65 -213.6,-43.26 -75.59,12.52 -114.42,101.95 -138.58,126.66 -49.01,50.12 -39.05,177.35 -5.19,216.8 34.1,39.72 57.55,92.19 127.89,130.5 100.09,12.98 243.79,16.81 272.15,-103.2 -68.27,-35.57 -167.4,-5.4 -199.56,-38.21 -37.87,-38.63 -16.84,-138.78 0.89,-183.28 57.97,-11.73 321.13,-17.98 377.72,-8.3 128.7,22.01 39.9,237.88 32.34,279.84 -12.9,71.65 -21.94,59.4 -47.89,92 -10.25,12.88 -9.58,16.01 -19.55,30.19 -62.56,89.05 -129,91.98 -167.29,110.94 -24.72,12.23 -39.28,23.75 -66.29,31.92 -73.36,22.18 -171.93,12.36 -245.59,-29.11 -65,-36.6 -86.2,-13.07 -175.51,-111.97 -91.45,-101.26 -171.38,-305.92 -106.23,-425.54 20.03,-36.78 39.59,-103.57 57.63,-131.93 41.19,-64.76 137.8,-153.11 234.72,-160.14 30.04,-1.65 15.71,-13.67 41.71,-13.24 15.63,-33.03 27.62,-26.26 100.72,-25.32 54.3,0.69 65.96,1.06 107.26,16.1 25.26,9.21 138.83,56.21 161.68,74.94 3.46,52.92 -1.47,71.97 -9.96,114.9 57.77,-22.42 52.61,-26.63 49.62,-120.72 -44.69,-27.78 -38.2,-30.72 -74.15,-43.2 -118.02,-40.96 -43.78,-34.73 -105.5,-56.18 -9.55,-3.32 -43.3,-8.04 -54.81,-8.9 -251.81,-18.93 -228.75,34.31 -278.61,56.18l-40.72 15.25c-13.76,6.79 -21.77,11.85 -35.77,24.36 -22.54,20.14 -15.56,21.12 -45.52,35.27l-23.52 9.59z"/>
   <path class="fil1" d="M4676.45 6134.22c26.13,-70.54 -78.18,-97.59 -106.69,-97.59 -99.5,0 -684.79,-5.27 -738.85,5.28 -54.65,10.66 -84.76,60.48 -43.41,109.89l13.24 13.03c49.02,36.23 233.81,18.65 309.24,18.65 62.31,0 450.13,11.94 497.26,-9.58 2.45,-1.12 13.35,-7.88 15.53,-8.96 14.43,-7.13 18.02,-6.35 28.06,-11.41 20.48,-10.33 12.51,-0.58 25.62,-19.31z"/>
   <path class="fil14" d="M4870.75 4291.94c-30.43,48.69 -55.84,10.37 -104.11,61.33 -41.12,43.41 -116.8,84.21 -137.91,174.51 -4.4,18.86 -9.91,43.77 -16.31,58.29 -5.82,13.2 -3.46,5.91 -15.04,24.52 -20.13,32.34 -20.4,101.41 -14.51,144.91 7.02,51.96 18.07,23.99 52.15,146.76 11.56,41.61 113.49,156.65 197.24,185.93 80.83,28.26 53.69,47.37 189.38,47.99 77.74,0.36 62.32,-5.14 118.36,-33.03 41.73,-20.76 79.3,-14.15 111.68,-44.13 46.34,-42.93 121.68,-111.08 135.93,-174.87 18.89,-84.53 47.02,-184.09 -5.03,-255.41 -57.56,-12.66 -204.77,-6.09 -271.24,-5.48 -49.21,0.46 -83.27,5.99 -99.34,38.98 -12.8,26.28 -15.01,86.39 -7.14,117.37 30.04,20.07 121.91,16.52 170.3,21.39 37.58,8.71 33.88,11.57 59.54,36.04 -6.59,27.28 -35.98,59.29 -57.02,83.24 -27.96,31.83 -30.49,22.9 -59.56,35.87l-27.34 15.91c61.4,1.79 88.82,-5.53 111.1,-45.47 31.87,-57.1 48.05,-35.71 62.36,-81.34 -19.83,-78.5 -107.93,-61.66 -199.6,-66.63l7.05 -104.43 229.05 -2.04c10.31,-0.1 30.96,-0.57 40.41,0.74l19.86 5.55c8.6,-14.89 34.99,91.08 8.18,185.35 -14.83,52.17 -41.42,32.64 -60.4,86.32 -10.11,28.56 -1.7,28.63 -12.3,39.2 -68.3,30.99 -41.8,-3.49 -69.71,68.4 -79.66,7.97 -138.15,26.62 -213.59,26.39 -94.11,-0.29 -133.87,-20.08 -215.11,-26.05 -8.83,-47.16 -22.97,-59.25 -75.21,-62.84 -10.77,-67.71 -10.73,-60.46 -65.78,-80.68 -8.39,-94.79 -34.82,-169.78 -22.41,-281.94 20.56,-185.69 31.76,-132.81 64.36,-167.2 13.81,-14.57 14.89,-27.78 21.72,-51.98 70,-21.03 49.48,-10.86 78.13,-67.26 34.83,-3.05 85.32,-13.58 112,-28.54 18.01,-10.1 9.23,-13.41 36.7,-16.01 97.85,-9.27 184.18,43.1 276.59,41.12 -9.55,-26.52 2.74,-8.45 -30.8,-18.07 -21.84,-6.27 -16.18,-2.75 -39.07,-11.94 -109.66,-44.03 -106.95,-38.2 -241.85,-34.01 -26,-0.43 -11.67,11.59 -41.71,13.24z"/>
   <path class="fil17" d="M5023.16 3840.83c45.78,-17.28 -10.33,8.18 20.53,2.76l5.09 -35.28c8.82,-68.41 3.12,-210.66 1.21,-285.28 -1.54,-60.28 -15.61,-59.94 -16.1,-122.71 -0.66,-83.08 -24.72,-54.54 -26.64,-122.66l-25.88 -520.96c-0.03,-2.2 -0.29,-4.44 -0.16,-6.56 0.14,-2.08 0.37,-4.44 0.66,-6.39 2.98,-19.57 -2.01,-5.54 6.61,-18.55 14.4,-11.98 441.08,-21.71 445.37,7.55 0.47,3.2 2.3,4.63 2.94,5.97 28.55,59.08 27.3,30.04 76.69,53.45 3.7,47.12 4.41,111.74 30.63,151.87 21.43,32.79 -1.71,3.91 34.87,27.25 5.52,54.67 5.11,104.03 6.32,158.61 1.44,65.47 7.04,68.3 67.07,79.8 4.71,71.16 -8.43,160.67 25.88,215.96l9.85 14.23c13.16,16 0.36,0.74 11.7,11.84 11.12,10.9 21.39,-13.33 26.31,72.01 1.92,33.18 2.1,61.01 10.1,89.25 27.7,97.79 9.54,122.94 -16.97,255.23 -70.28,21.4 -21.95,51.02 -98.62,78.49 -67.51,24.17 -9.97,20.12 -75.09,66.03l-25.6 24.16 -1.29 26.69 11.79 -14.42 22.55 5.51 60.11 -55.76c-6.32,-28.98 23.12,-30.75 49.88,-47.28 82.61,-51.06 94.97,-149.58 120.27,-191.46 36.25,-60 13.9,-114.31 -8.08,-161.87 -25.1,-54.3 -25.11,-110.82 -39.81,-175.57 -15.02,-66.17 -40.23,-70.34 -53.92,-149.81 -13.24,-76.85 -11.21,-107 -45.14,-167.96 -41.21,-74.03 -30.52,-183.25 -67.05,-244.67 -22.91,-38.54 -13.54,-26.62 -30.71,-70.17 -129.89,-92.94 -44.39,-92.57 -279.11,-92.49 -98.41,0.04 -263.07,-17.27 -335.08,29.36 -0.29,20.37 -1.32,53.64 1.43,73.13 6.42,45.54 25.73,38.85 32.74,198.03l18.87 293.42c3.09,22.51 11.05,28.04 16.88,54.01 14.07,62.69 -13.51,20.04 20.5,127.03 25.58,80.47 16.84,289.01 8.4,368.21z"/>
   <path class="fil2" d="M3806.24 6117.84c35.33,32.62 45.22,38.81 98.48,38.81l656.83 0c56.79,0 88,-11.65 74.8,-72.22 -63.32,-28.45 -622.29,-14.28 -731.63,-14.28 -42.02,0 -80.95,7.71 -98.48,47.69z"/>
   <path class="fil9" d="M4923.21 4938.73c4.72,4.95 -3.27,13.31 48.21,17.25 98.4,7.53 221.91,-7.53 243.48,-124.11l-34.75 -26.01c-0.87,-3.08 -3.42,-3.14 -4.99,-4.86 -48.39,-4.87 -140.26,-1.32 -170.3,-21.39 -7.87,-30.98 -5.66,-91.09 7.14,-117.37 16.07,-32.99 50.13,-38.52 99.34,-38.98 66.47,-0.61 213.68,-7.18 271.24,5.48 52.05,71.32 23.92,170.88 5.03,255.41 -14.25,63.79 -89.59,131.94 -135.93,174.87 -32.38,29.98 -69.95,23.37 -111.68,44.13 -56.04,27.89 -40.62,33.39 -118.36,33.03 -135.69,-0.62 -108.55,-19.73 -189.38,-47.99 -83.75,-29.28 -185.68,-144.32 -197.24,-185.93 -34.08,-122.77 -45.13,-94.8 -52.15,-146.76 -5.89,-43.5 -5.62,-112.57 14.51,-144.91 11.58,-18.61 9.22,-11.32 15.04,-24.52 6.4,-14.52 11.91,-39.43 16.31,-58.29 21.11,-90.3 96.79,-131.1 137.91,-174.51 48.27,-50.96 73.68,-12.64 104.11,-61.33 -96.92,7.03 -193.53,95.38 -234.72,160.14 -18.04,28.36 -37.6,95.15 -57.63,131.93 -65.15,119.62 14.78,324.28 106.23,425.54 89.31,98.9 110.51,75.37 175.51,111.97 73.66,41.47 172.23,51.29 245.59,29.11 27.01,-8.17 41.57,-19.69 66.29,-31.92 38.29,-18.96 104.73,-21.89 167.29,-110.94 9.97,-14.18 9.3,-17.31 19.55,-30.19 25.95,-32.6 34.99,-20.35 47.89,-92 7.56,-41.96 96.36,-257.83 -32.34,-279.84 -56.59,-9.68 -319.75,-3.43 -377.72,8.3 -17.73,44.5 -38.76,144.65 -0.89,183.28 32.16,32.81 131.29,2.64 199.56,38.21 -28.36,120.01 -172.06,116.18 -272.15,103.2z"/>
   <path class="fil17" d="M3676.17 2707.62l-33.86 19.72c-0.26,209.92 -25.94,451.63 -56.05,662.29 -4.43,31 -15.54,64.02 -19.63,93.65 -5.08,36.8 -2.11,83.21 -4.55,122.46 11.01,-7.57 23.36,6.63 23.09,-65.67 -0.28,-74.8 14.14,-98.53 22.89,-149.7l33.87 -318.6c0.71,-68.71 -5.42,-65.67 14.82,-76.13 -3.94,-29.74 -2.14,-105.3 1.84,-137.42 7.94,-64.1 18.86,2.84 18.86,-128.01 72.18,-24.59 524.94,-32.41 592.59,-4.93 18.16,75.59 -0.24,707.14 3.84,880.6 1.97,83.94 25.1,86.28 34.64,111.55 19.44,51.48 -10.74,85.59 -12.77,125.13 13.4,-18.39 -15.54,4.6 11.86,-9.14 7.67,-3.85 17,-6.11 23.94,-8.63 2.02,-22.11 28.01,-58.17 11.18,-116.91 -14.75,-51.47 -44.14,-11.98 -46.99,-101.83 -8.98,-283.2 10.25,-599.93 -1.4,-891.79 -65.33,-20.52 -46.03,-24.15 -135.09,-23.69 -54.72,0.27 -109.49,0.04 -164.22,0.04 -106.75,0 -221.63,-11.76 -318.86,17.01z"/>
   <path class="fil18" d="M4912.46 4278.7c134.9,-4.19 132.19,-10.02 241.85,34.01 22.89,9.19 17.23,5.67 39.07,11.94 33.54,9.62 21.25,-8.45 30.8,18.07 23.97,5.02 23.53,49.65 16.63,73.51 -16.99,58.74 -137.59,17.14 -235.89,17 -94.93,-0.13 -126.43,-2.18 -176.64,63.42 -71.55,93.47 -90.4,107.14 -83.71,250.58 3.61,77.37 32.33,84.42 63.11,129.37 90.67,132.46 185.42,83.78 283.1,95.46l27.34 -15.91c29.07,-12.97 31.6,-4.04 59.56,-35.87 21.04,-23.95 50.43,-55.96 57.02,-83.24 -25.66,-24.47 -21.96,-27.33 -59.54,-36.04 1.57,1.72 4.12,1.78 4.99,4.86l34.75 26.01c-21.57,116.58 -145.08,131.64 -243.48,124.11 -51.48,-3.94 -43.49,-12.3 -48.21,-17.25 -70.34,-38.31 -93.79,-90.78 -127.89,-130.5 -33.86,-39.45 -43.82,-166.68 5.19,-216.8 24.16,-24.71 62.99,-114.14 138.58,-126.66 165.33,-27.39 195.65,40.94 213.6,43.26 39.11,5.03 77.52,-37.92 123.11,-52.2l-3.64 3.49c8.49,-42.93 13.42,-61.98 9.96,-114.9 -22.85,-18.73 -136.42,-65.73 -161.68,-74.94 -41.3,-15.04 -52.96,-15.41 -107.26,-16.1 -73.1,-0.94 -85.09,-7.71 -100.72,25.32z"/>
   <path class="fil19" d="M4663.18 4370.97l23.52 -9.59c29.96,-14.15 22.98,-15.13 45.52,-35.27 14,-12.51 22.01,-17.57 35.77,-24.36l40.72 -15.25c49.86,-21.87 26.8,-75.11 278.61,-56.18 11.51,0.86 45.26,5.58 54.81,8.9 61.72,21.45 -12.52,15.22 105.5,56.18 35.95,12.48 29.46,15.42 74.15,43.2 2.99,94.09 8.15,98.3 -49.62,120.72l3.64 -3.49c-1.13,45.6 -0.44,16.06 -21.97,40.33 -7.37,8.32 -22.36,19.46 -35.06,24.07 -6.06,2.21 -40.64,8.8 -44.3,9.25 -88.15,10.97 -52.8,-46.45 -130.89,-51.83 -38.56,-2.65 -83.03,4.89 -119.31,2.32 -24.89,63.19 -39.37,38.05 -67.47,68.56 -23.79,25.84 -0.53,41.92 -66.27,77.53 -23.67,169.47 10.25,140.82 47.39,195.55l22.31 27.86c-7.23,-104.72 -47.05,-76.92 -61.72,-119.17 -7.26,-55.4 -4.34,-63.84 24.92,-91.38 35.94,-33.83 35.78,-19.66 39.51,-83.97 82.95,-20.23 47.4,-13.3 84.49,-63.02 161.28,-12.03 31.84,27.86 143.18,51.88 25.04,5.4 44.08,7.72 70.18,8.01 141.23,1.52 87.04,-34.52 130.67,-68.64 14.77,-11.56 30.12,-10.27 49.24,-23.81 10.78,-35.33 20.83,-111.73 0.82,-147.33 -22.11,-22.27 -20.39,-15.32 -60.07,-23.63 -84.77,-17.74 -49.09,-7.26 -63.24,-25.93 -28.24,-37.29 -21.59,-46.43 -131.04,-47.22 -60.43,-0.43 -120.64,-0.4 -181.05,0.75 -123.37,2.34 -86.64,45.95 -114.69,63.16 -29.46,5.75 -62.05,12.83 -83.91,22.52 -38.94,17.27 -26.19,25.38 -44.34,69.28z"/>
  </g>
 </g>
</svg>
