<?xml version="1.0" encoding="UTF-8"?>
<!DOCTYPE svg PUBLIC "-//W3C//DTD SVG 1.1//EN" "http://www.w3.org/Graphics/SVG/1.1/DTD/svg11.dtd">
<!-- Creator: CorelDRAW 2017 -->
<svg xmlns="http://www.w3.org/2000/svg" xml:space="preserve" width="84.667mm" height="84.667mm" version="1.1" style="shape-rendering:geometricPrecision; text-rendering:geometricPrecision; image-rendering:optimizeQuality; fill-rule:evenodd; clip-rule:evenodd"
viewBox="0 0 8466.7 8466.7"
 xmlns:xlink="http://www.w3.org/1999/xlink">
 <defs>
  <style type="text/css">
   <![CDATA[
    .str0 {stroke:#FEFEFE;stroke-width:20;stroke-miterlimit:22.9256}
    .fil0 {fill:#FEFEFE}
    .fil3 {fill:#255FDA}
    .fil1 {fill:#4285F4}
    .fil4 {fill:#EE8D00}
    .fil2 {fill:#FABB05}
   ]]>
  </style>
 </defs>
 <g id="Capa_x0020_1">
  <metadata id="CorelCorpID_0Corel-Layer"/>
  <ellipse class="fil0 str0" cx="4233.35" cy="4233.35" rx="4233.35" ry="4233.34"/>
  <path class="fil1" d="M1828.87 1996.33c111.1,-6.13 178.21,-41.9 345.17,-41.38l1117.1 0.34c-18.73,139.92 -73.42,207.87 -76.48,374.8 -2.37,130.16 10.88,333.57 -7.44,452.47l-1485.18 -4.03c-28,-224.06 4.27,-459.62 18.57,-675.07 -32.46,30.17 -4.5,-22.4 -38.53,42.66 -17.46,33.39 -13.25,30.37 -16.2,74.96l6.49 5222.27c12.7,43.97 -1.89,13.58 19.95,41.05l4.05 -958.48 3512.65 -4.09c0.68,208.82 0.1,413.11 0.1,617.32 0,557.98 -17.77,295.13 -126.53,523.84 126.88,-55.85 158.24,-107.49 159.6,-288.14 3.45,-460.49 -22.15,-2915.1 0.98,-3084.7 -285.47,18.59 -494.94,39.71 -782.43,-55.48 -322.05,-106.63 -635.36,-295.6 -844.38,-565.61 -143.96,-185.97 -335.77,-470.75 -376.43,-758.76 -26.34,-186.66 -48.4,-302.62 -37.01,-526.04 5.78,-113.45 89.17,-405.74 83.16,-453.54l-1150.11 -1.63c-109.08,-0.19 -216.59,-16.99 -292.41,36.9 -26.43,18.78 -15.33,9.98 -34.69,30.34z"/>
  <path class="fil2" d="M3306.08 1930.72c6.01,47.8 -77.38,340.09 -83.16,453.54 -11.39,223.42 10.67,339.38 37.01,526.04 40.66,288.01 232.47,572.79 376.43,758.76 209.02,270.01 522.33,458.98 844.38,565.61 287.49,95.19 496.96,74.07 782.43,55.48 27.74,-13.92 195.79,-46.48 238.91,-56.38 226.7,-52.01 435.52,-185.02 612.52,-312.45 767.56,-552.54 898.65,-1791.94 252.99,-2548.74 -527.29,-618.08 -1445.5,-814.31 -2207.34,-417.4 -127.44,66.4 -262.78,167.46 -360.92,253.49 -341.59,299.43 -439.68,668.7 -493.25,722.05z"/>
  <path class="fil3" d="M1712.32 7484.4c5.39,119.83 123.26,185.22 232.6,213.24 120.45,30.86 2017.71,10.41 2289.89,10.41 209.33,0 733.29,40.52 867.78,-45.06 108.76,-228.71 126.53,34.14 126.53,-523.84 0,-204.21 0.58,-408.5 -0.1,-617.32l-3512.65 4.09 -4.05 958.48z"/>
  <path class="fil3" d="M1828.87 1996.33c-30.05,10.71 -26.77,2.58 -58.65,39.91 -33.55,39.3 -25.86,20.34 -29.61,67.22 -14.3,215.45 -46.57,451.01 -18.57,675.07l1485.18 4.03c18.32,-118.9 5.07,-322.31 7.44,-452.47 3.06,-166.93 57.75,-234.88 76.48,-374.8l-1117.1 -0.34c-166.96,-0.52 -234.07,35.25 -345.17,41.38z"/>
  <path class="fil1" d="M3367.12 7371.4c220.17,0 610.02,68.68 615.93,-250.38 1.99,-106.72 -40.11,-156.2 -96.25,-196.2 -131.36,-93.62 -292.36,-62.76 -517.42,-62.76 -175.77,0 -315.79,102.39 -317.14,258.78 -1.33,153.29 129.72,250.56 314.88,250.56z"/>
  <g id="_2563038071856">
   <path class="fil4" d="M3625.95 2065.71c-16.18,19.35 -13.02,13.75 -12.71,53.15 52.03,8.3 74.57,14.65 114.39,33.61 40.4,19.23 93.25,4.78 116.05,37.12 25.55,36.23 2.75,76.71 0.07,121.07 -4.59,75.84 -11.68,302.03 12.29,366.45 16.23,43.63 16.59,88.16 24.96,128.5 6.84,32.94 12.12,26.53 22.28,55.16 6.03,16.97 9.84,41.77 16.9,60.1 9.73,25.3 18.11,20.97 27.17,48.92 10.18,31.4 0.28,27.21 18.22,53.29 7,10.18 9.55,10.08 15.77,22.45 67.17,133.57 37.6,75.57 115.3,185.88 29.25,41.54 105.17,119.01 144.35,157.14l21.2 17.32c38.84,30.52 85.29,75.08 128.68,101.72 26.48,16.26 22.27,4.98 48.48,28.97 11.71,10.72 81.38,47.22 97.55,48.19 71.53,1.09 16.75,13.07 115.76,38.45 53.08,13.59 37.43,26.8 114.49,34.46 100.86,10.03 9.57,36.37 256.81,36.28 80.14,-0.03 212.87,11.84 277.71,-16.3 17.91,-7.77 32.58,-15.19 51.01,-18.48 22.36,-3.99 46.79,-2.45 66.35,-11 40.32,-17.62 -8.7,-17.47 110.97,-36.97 -3.86,-31.39 -13.68,-38.59 -21.95,-67.85 -20.5,-72.47 -10.19,-31.2 -29.69,-65.42 -21.29,-37.35 9.41,-18.61 -36.83,-98.1 -7.87,-13.52 -11.01,-24.63 -15.92,-35.33 -74.89,-4.25 -18.68,16.3 -165.81,41.61 -36.71,6.32 -34.74,11.62 -91.8,20.77 -96.18,15.41 -104.45,8.82 -195.58,2.6 -54.78,-3.74 -46.24,-16.34 -84.59,-23.19 -35.21,-6.3 -69.01,-1.2 -97.35,-14.8l-51.85 -23.81c-21.98,-9.53 -11.63,-1.29 -24.18,-17.78 -19.26,-3.82 -19.27,-23.22 -63.2,-25.7 -37.44,-2.8 -86.81,-45.42 -132.55,-69.73l-156.61 -141.04c-22.36,-17.55 -7.33,0.49 -24.72,-25.52 -19.21,-28.74 -10.32,-7.68 -26.62,-24.44 -10.9,-11.2 -7.19,-19.02 -15.17,-35.54 -10.24,-21.2 -12.14,-12.67 -23.05,-28.55 -11.93,-17.36 -5.05,-19.33 -17.07,-35.08 -15.82,-20.72 -10.74,3.83 -22.96,-25.98 -15.16,-36.96 0.71,-32.09 -27.09,-71.14 -19.68,-27.65 -11.79,-50.13 -26.46,-76.53 -18.17,-32.7 -20.78,-17.34 -24.86,-69.66 -11.38,-145.75 -34.06,-37.55 -33.76,-268.46 0.03,-28.05 1.4,-70.85 8.09,-94.87 3.83,-13.73 33.13,-49.92 43.13,-58.01 48.47,-2.33 19.75,7 48.48,19.78 15.06,6.7 47.85,7.02 65.95,12.06 34.73,9.69 27.19,15.71 45.2,23.29 18.56,7.8 51.52,8.65 73.18,10.28 -3.06,-30.73 -4.63,-18.68 -18.64,-37.25 -16.57,-21.96 -7.28,-16.73 -15.28,-41.2 -13.77,-42.1 -33.94,-9.95 -33.75,-82.22 -0.73,-34.34 -10.52,-12.59 -24.53,-39.18 -19.71,-37.43 12.77,-14.72 -30.96,-79.07 -14.01,-20.61 -7.89,-22.11 -36.1,-66.02 -16.32,-25.41 -6.83,-26.48 -18.07,-54.83 -9.39,-23.67 -12.47,-10.41 -27.94,-40.13l-47.32 -93.8c-61.48,-0.56 -42.89,4.33 -75.75,25.84 -12.79,8.37 -22.39,8.24 -35.98,15.64 -17.62,9.6 -12.14,11.14 -24.6,19.75 -22.26,15.38 -39.02,8.71 -67.88,28.58 -18.74,12.92 -8.73,7.02 -33.25,18.65 -8.43,4 -19.84,10.32 -27.86,16.34 -23.59,17.7 -62.7,23.73 -126.11,65.81 -35.27,23.4 -11.35,19.57 -60.76,34.7 -44.68,13.67 -20.55,22.13 -73.63,29.05z"/>
   <path class="fil4" d="M5988.12 2225c-13.04,63.61 24.34,132.73 23.81,194.61 -0.32,36.2 0.92,73.44 0.07,109.38 -0.97,41.68 -16.35,56.59 -13.17,95.89 -0.54,51.92 -5.84,52.52 -25.92,83.54 -32.39,-1.57 -31.67,-9.72 -64.47,-14.53 -24.92,-3.66 -47.71,-4.04 -70.53,-6.97 -70.71,-9.07 -16.49,-32.71 -130.93,-33.06 5.14,40.27 8.05,20.88 22.9,48.15 11.15,20.48 4.52,24.08 20.08,43.25 31.19,38.4 46.45,83.89 72.46,119.61 15.14,20.8 13.4,14.56 24.37,41.71 17.42,43.15 38.87,34.88 40.52,90.88l69.96 116.99c42.82,3.89 31.14,24.35 47.29,57.05 41.03,-10.11 108.8,-60.5 109.01,-60.6 10.7,-5.08 19.35,-5.82 27.44,-10.43l52.69 -36.51c11.34,-8.34 8.49,-12.53 23.72,-19.77 8.09,-3.84 22.05,-5.92 30.71,-9.16 37.89,-14.18 5.81,2.6 25.27,-20.34 19.54,-23.04 12.36,-8.68 41.86,-20.76 27.2,-11.13 12.31,-16.19 36.86,-27.77 12.07,-5.7 18.79,-3.84 33.37,-12.11 31.21,-17.72 10.65,-22.91 64.58,-31.84l4.56 -0.14c11.17,-36.52 21.88,-31.08 60.19,-42.55 -3.18,-8.84 -13.12,-27.28 -17.05,-34.59 -45.23,-9.88 -88.17,-1.84 -122.97,-19.64 -21.41,-10.95 -13.63,-16.03 -49.77,-21.98 -24.73,-4.07 -29,-0.15 -49.53,-11.82 -10.13,-22.39 -11.8,-102.4 -1.03,-129.91 10.34,-26.43 20.61,-3.65 25.12,-38.67 6.03,-46.79 4.84,-307.57 -3.05,-337.46 -4.94,-18.7 -14.39,-29.88 -20.32,-49.86 -5.56,-18.73 -7.67,-38.99 -9.76,-59.92 -10.36,-103.96 -21.19,-50.2 -33.8,-108.64 -26.09,-120.96 -25.97,-42.49 -38.64,-102.54 -9.13,-43.27 4.46,-22.87 -18.97,-48.66 -17.83,-19.64 -16.32,-21.55 -16.63,-53.68 -23.8,-6.83 -23.84,-15.66 -34.38,-30.57l-15.34 -17.22c-0.88,-0.8 -2.54,-1.82 -3.41,-2.61 -5.8,-5.29 -7.51,-4.9 -12.89,-16.46 -11.63,-24.95 -1.81,-25.66 -23.86,-48.29 -14.72,-15.11 -5.03,-0.91 -17.24,-20.88 -5.01,-8.18 1.5,-1.54 -7.5,-12.81l-6.67 -6.75c-36.62,-34.25 -50.96,-71.91 -98.92,-111.77l-146.76 -128.58c-17.08,-14.93 -23.56,-8.62 -44.03,-20.37 -34.44,-19.76 2.6,-14.3 -43.86,-28.7 -44.19,-13.71 -5.82,-5.21 -40.6,-27.53 -19.01,-12.2 -34.77,-7.13 -54.99,-17.19 -19.23,-9.56 -9.46,-13.81 -34.95,-26.57 -33.69,-16.87 -64.8,-32.98 -100.44,-38.57 -60.47,-9.48 -45.31,-29.18 -101.98,-34.24 -33.47,-2.99 -110.44,-0.15 -136.17,-8.37 -30.29,-9.68 -7.95,-16.52 -43.56,-25.22l-206.02 -1.86c-42.4,4.98 -12.99,21.87 -172.41,34.38 -39.13,3.07 -33.94,5.06 -53.47,17.39 -32.53,20.52 -77.57,12.63 -106.5,28.02 -1.72,16.36 -3.77,28.25 -1.03,44.9 8.84,53.77 23.81,-10.45 36.83,101.39 27.01,13.59 25.66,8.43 30.8,40.21 8.22,50.77 4.57,64.65 37.14,70.84 13.05,2.47 15.33,2.47 28.53,-2.06 23.56,-8.08 10.17,-14.16 39.68,-23.89 31.19,-10.3 78.79,-4.45 115.65,-14.29 48.54,-12.96 -19.43,-7.29 104.55,-24.13 86.24,-11.71 139.02,17.53 165.84,24.1 36.82,9.02 81.98,1.41 120.05,10.52 37.93,9.09 19.66,8.4 39.72,22.18 28.3,19.42 52.14,2.2 96.03,32.52 10.62,7.33 -0.83,3.12 21.23,11.76 67.27,26.35 21.56,16.7 55.33,33.23 21.1,10.33 29.27,1.36 45.02,18.73 13.62,15.02 -14.35,1.08 34.22,28.89l72.58 56.97c25.03,20.79 23.67,4.99 38.62,24.58 7.24,9.49 -0.03,8.9 20.22,25.97 1.06,0.89 2.8,1.76 3.84,2.63 1,0.83 2.67,1.76 3.62,2.61 0.92,0.82 2.41,1.95 3.26,2.81 12.86,13.01 1.83,5.6 13.03,18.5 13.97,16.09 3.67,3.14 18.72,14.37l126.29 193.37c23.65,75.79 26.87,26.91 38.49,90.12 10.08,54.79 33.26,55.86 27.39,100.79z"/>
   <path class="fil4" d="M4359.88 2189.64c6.12,25.95 14.72,20.85 28.03,56.9l27.58 56.8c12.35,28.11 2.26,38.88 21.71,68.08 -46.43,7.14 -18.33,12.08 -57.58,-6.48 -23.06,-10.9 -47.33,-11.4 -72.85,-17.61 -31.56,-7.69 -81.9,-38.17 -115.51,-33.82 -47.47,6.13 37.54,-14.88 -16.85,5.41 -39.87,14.88 -14.93,300.33 -7.98,349.5l44.25 140.57c11.6,27.53 15.52,21.63 27.52,62.48 10.8,36.79 21.08,28.91 34.81,61.6 17.18,40.91 46.83,67.64 74.97,111.35 16.52,25.67 67.54,75.32 88.66,97.13 21.58,22.29 128.66,106.37 156.52,119.7 23.39,11.2 36.09,10.68 58.09,42.94 43.93,2.48 43.94,21.88 63.2,25.7 104.26,11.53 46.05,26.73 175.57,43.44 61.67,7.96 117.3,27.84 185.24,27.13 138.78,-1.45 301.3,-72.72 356.44,-74.32 24.54,56.21 34.29,43.36 49.13,100.53 4.81,18.55 5.81,21.73 16.82,37.55 19.8,28.47 7.29,-3.16 15.26,32.55 19,85.17 41.82,53.37 31.28,121.5 -19.14,8.75 2.36,2.69 -14.34,9.2 -11.8,4.6 -15.67,2.66 -31.34,6.5 -32.94,8.07 -24.77,16.3 -52.72,25.52 -18.45,6.1 -44.08,6.4 -63.53,14.35 -29.22,11.94 2.43,6.37 -54,21.27 -67.22,17.75 -216.42,14.87 -297.88,14.9 -53.63,0.02 -89.93,-3.83 -141.06,-7.07l-188.89 -40.89c-27.53,-7.99 -31.09,-14.68 -54.4,-23.31 -42.04,-15.56 -59.66,-6.78 -104.65,-49.36 -1.25,-1.18 -3.09,-3 -4.48,-4.63 -16.17,-0.97 -85.84,-37.47 -97.55,-48.19 -26.21,-23.99 -22,-12.71 -48.48,-28.97 -43.39,-26.64 -89.84,-71.2 -128.68,-101.72l-21.2 -17.32c-39.18,-38.13 -115.1,-115.6 -144.35,-157.14 -77.7,-110.31 -48.13,-52.31 -115.3,-185.88 -6.22,-12.37 -8.77,-12.27 -15.77,-22.45 -17.94,-26.08 -8.04,-21.89 -18.22,-53.29 -9.06,-27.95 -17.44,-23.62 -27.17,-48.92 -7.06,-18.33 -10.87,-43.13 -16.9,-60.1 -10.16,-28.63 -15.44,-22.22 -22.28,-55.16 -8.37,-40.34 -8.73,-84.87 -24.96,-128.5 -23.97,-64.42 -16.88,-290.61 -12.29,-366.45 2.68,-44.36 25.48,-84.84 -0.07,-121.07 -22.8,-32.34 -75.65,-17.89 -116.05,-37.12 -39.82,-18.96 -62.36,-25.31 -114.39,-33.61 -0.31,-39.4 -3.47,-33.8 12.71,-53.15 9.77,-13.49 -2.06,-0.81 16.47,-15.5 7.19,-5.7 1.4,0.81 11.48,-7.79 16.99,-14.48 8.69,-4.99 17.71,-24.55l-22.86 1.17c-31.18,46.17 -35.31,20.31 -76.33,44.76l-8.95 59.71c27.72,22.06 25.23,15.38 68.37,23.38 30.94,5.74 29.85,23.12 55.55,30.74 24.75,7.33 57.22,1.55 83.59,9.81 11.07,3.47 46.2,26.56 53.72,33.63 3.71,31.72 0.41,100.62 -2.27,134.4 -0.9,11.31 -33.45,108.66 -13.02,176.31 28.32,93.87 6.87,98.25 20.39,189.88 7.33,49.63 24.21,40.11 31.64,101.92 11.26,93.66 25.94,48.44 35.85,102.54 12.64,69.01 25.67,41.95 37.15,96.95 12.95,62.08 33.34,22.23 38,102.39 34.34,24.57 18.01,-14.26 38.64,39.93 9.78,25.72 -2.33,9.66 22.39,32.36l50.32 59.42c23.02,33.11 12.39,-2.65 36.1,48.8 11.92,25.86 98.01,101.94 123.61,117.2 27.42,16.35 1.95,-2.27 20.94,18.94l68.17 54.32c20.52,17.78 8.98,24.21 46.01,34.19 56.01,15.1 16.66,13.31 55.69,31.41 40.74,18.91 -4.15,-11.03 55.27,27.5 20.15,13.06 37.83,10.57 55.31,21.47 25.47,15.88 6.59,17.49 53.52,28.88 50.34,12.22 22.03,17.2 52.06,29.92 15.72,6.66 58.08,7.54 78.68,10.57 15.56,7.02 -6.68,24.76 71.04,30.74 37.94,2.91 79.58,2.4 117.87,3.1 18.26,23.45 18.09,28.87 60.59,28.9 64.09,0.06 129.09,0.06 193.18,0 42.49,-0.03 42.33,-5.45 60.58,-28.9 26.93,-0.67 135.44,-0.88 157.52,-8.19 21.16,-7.01 25.01,-25.1 31.4,-27.9 38.41,-1.47 45.64,2.31 67.9,-17.54 18.78,-16.74 3.02,-15.54 67.37,-22.58 19.83,-122.19 -22.79,-85.88 -35.07,-166.52 -4.62,-30.29 -9.75,-30.24 -30.64,-42.25 -6.74,-96.57 -9.08,-64.37 -39.25,-104.21 -8.37,-11.06 -12.31,-19.67 -20.34,-30.21 -43.76,-1.49 -25.55,11.51 -53.28,24.73 -18.88,9 -55.75,4.97 -75.58,14.05 -10.35,4.73 -5.55,3.5 -14.21,10.36 -18.68,14.78 7.05,3.62 -20.61,13.02 -30.54,10.38 -187.91,9.9 -230.84,9.35 -41.47,-0.53 -149.66,5.39 -182.61,-20.83 -44.24,-35.21 -80.01,-7.55 -121.14,-27.41 -18.25,-8.81 -2.67,-11.07 -34.76,-24.11 -29.01,-11.78 -89.76,-39.09 -114.66,-61.89l-64.26 -50.01c-1.69,-0.93 -7.14,-3.24 -8.8,-4.3l-124.89 -126.6c-14.22,-19.41 -6.14,-5.62 -15.91,-14.77l-6.81 -6.53c-10.67,-13.01 -4.47,-14.11 -17.84,-27.25 -23.5,-23.11 -6.14,15.13 -25.11,-34.25 -16.27,-42.3 -19.81,-23.71 -32.67,-49.74 -35.5,-71.8 -17.85,-5.66 -34.62,-55.06 -4.76,-14.03 -4.28,-33.12 -8.88,-49.64l-28.04 -35.26c-7.77,-49.88 -3.19,-56.59 -25.03,-95.41 -18.5,-32.89 -13.64,-70.34 -16.89,-110.76 -3.58,-44.58 -5.91,-203.24 4.1,-240.92l47.6 -2.57c33.62,47.28 44.45,27.2 106.27,37.95 2.45,0.42 136.73,72.29 126.81,-3.26 -1.98,-15.12 -8.01,-15.92 -13.78,-24.46 -31.77,-47.02 10.23,-40.02 -32.57,-82.87 -43.44,-43.49 0.95,-57.32 -52.41,-66.73z"/>
   <path class="fil4" d="M5988.12 2225c5.87,-44.93 -17.31,-46 -27.39,-100.79 -11.62,-63.21 -14.84,-14.33 -38.49,-90.12l-126.29 -193.37c-15.05,-11.23 -4.75,1.72 -18.72,-14.37 -11.2,-12.9 -0.17,-5.49 -13.03,-18.5 -0.85,-0.86 -2.34,-1.99 -3.26,-2.81 -0.95,-0.85 -2.62,-1.78 -3.62,-2.61 -1.04,-0.87 -2.78,-1.74 -3.84,-2.63 -20.25,-17.07 -12.98,-16.48 -20.22,-25.97 -14.95,-19.59 -13.59,-3.79 -38.62,-24.58l-72.58 -56.97c-48.57,-27.81 -20.6,-13.87 -34.22,-28.89 -15.75,-17.37 -23.92,-8.4 -45.02,-18.73 -33.77,-16.53 11.94,-6.88 -55.33,-33.23 -22.06,-8.64 -10.61,-4.43 -21.23,-11.76 -43.89,-30.32 -67.73,-13.1 -96.03,-32.52 -20.06,-13.78 -1.79,-13.09 -39.72,-22.18 -38.07,-9.11 -83.23,-1.5 -120.05,-10.52 -26.82,-6.57 -79.6,-35.81 -165.84,-24.1 -123.98,16.84 -56.01,11.17 -104.55,24.13 -36.86,9.84 -84.46,3.99 -115.65,14.29 -29.51,9.73 -16.12,15.81 -39.68,23.89 -13.2,4.53 -15.48,4.53 -28.53,2.06 -32.57,-6.19 -28.92,-20.07 -37.14,-70.84 -5.14,-31.78 -3.79,-26.62 -30.8,-40.21 -13.02,-111.84 -27.99,-47.62 -36.83,-101.39 -2.74,-16.65 -0.69,-28.54 1.03,-44.9 28.93,-15.39 73.97,-7.5 106.5,-28.02 19.53,-12.33 14.34,-14.32 53.47,-17.39 159.42,-12.51 130.01,-29.4 172.41,-34.38l206.02 1.86c35.61,8.7 13.27,15.54 43.56,25.22 25.73,8.22 102.7,5.38 136.17,8.37 56.67,5.06 41.51,24.76 101.98,34.24 35.64,5.59 66.75,21.7 100.44,38.57 25.49,12.76 15.72,17.01 34.95,26.57 20.22,10.06 35.98,4.99 54.99,17.19 34.78,22.32 -3.59,13.82 40.6,27.53 46.46,14.4 9.42,8.94 43.86,28.7 20.47,11.75 26.95,5.44 44.03,20.37l146.76 128.58c47.96,39.86 62.3,77.52 98.92,111.77l6.67 6.75c9,11.27 2.49,4.63 7.5,12.81 12.21,19.97 2.52,5.77 17.24,20.88 22.05,22.63 12.23,23.34 23.86,48.29 5.38,11.56 7.09,11.17 12.89,16.46 0.87,0.79 2.53,1.81 3.41,2.61l15.34 17.22c10.54,14.91 10.58,23.74 34.38,30.57 0.31,32.13 -1.2,34.04 16.63,53.68 23.43,25.79 9.84,5.39 18.97,48.66 12.67,60.05 12.55,-18.42 38.64,102.54 12.61,58.44 23.44,4.68 33.8,108.64 2.09,20.93 4.2,41.19 9.76,59.92 5.93,19.98 15.38,31.16 20.32,49.86 7.89,29.89 9.08,290.67 3.05,337.46 -4.51,35.02 -14.78,12.24 -25.12,38.67 -10.77,27.51 -9.1,107.52 1.03,129.91 20.53,11.67 24.8,7.75 49.53,11.82 36.14,5.95 28.36,11.03 49.77,21.98 34.8,17.8 77.74,9.76 122.97,19.64 3.93,7.31 13.87,25.75 17.05,34.59 -38.31,11.47 -49.02,6.03 -60.19,42.55 2.2,-0.6 5.26,-4.03 6.47,-2.28l20.68 -9.82c56.98,-32.33 48.22,-8.29 46.55,-60.8 -21.05,-19.05 -29.34,-17.67 -62.52,-21.29 -26.16,-2.85 -42.31,-5.84 -61.57,-13.64 -32.05,-12.97 -96.77,-23.43 -118.55,-40.6 -4.43,-47.33 8.39,-46.56 16.64,-82.51 16.8,-73.15 8.46,-250.23 15.42,-328.61 16.03,-91.17 -24.73,-165.6 -32.28,-196.78 -11.18,-46.19 2.29,-63.06 -22.85,-100.08 -25.35,-37.33 -6.11,-57.29 -30.66,-91.41 -38.3,-53.21 -10.95,-34.98 -38.28,-76.75 -22.29,-34.07 -51.84,-101.53 -79.37,-132.19 -22.97,-25.58 -2.96,-12.88 -38.05,-51.65l-123.17 -146.06c-26.54,-27.6 -89.03,-68.87 -120.94,-91.3 -18.38,-12.91 -17.66,-20.76 -31.88,-31.34 -36.94,-27.46 -117.65,-66.39 -150.77,-86.91 -20.25,-12.54 -10.32,-12.4 -35.36,-22.56l-84.68 -37.63c-19.85,-4.07 -36.77,-5.93 -46.46,-9.78l-196.69 -52.59c-60.2,-13.17 -286.59,-15.76 -360.21,-5.12l-292.09 80.6c-8.43,84.22 20.94,89.34 37.45,140.3 13.56,41.89 4.29,31.05 25.67,64.03 14.22,21.95 14.84,48.42 24.3,72.98 94.7,10.87 115.69,-24.35 155.17,-31.15 48.71,-8.4 112.34,-7.2 165.21,-22.22 49.58,-14.09 58.62,7.65 110.28,9.35 35.41,1.16 78.35,4.6 110.04,10.22l195.07 63.95c87.44,23.15 5.27,5.59 84.43,42.38 50.54,23.5 107.45,77.11 142.68,105.41 25.07,20.15 107.61,100.53 121.97,126.39 12.73,22.92 12.57,15.08 26.06,33l73.99 118.06c7.93,16.93 7.63,29.94 16.67,47.39 8.96,17.29 15.45,19.84 22.82,40.46 7.78,21.76 13.11,62.39 29.08,81.54 11.91,14.26 -5.98,-0.07 13.22,11.94z"/>
   <path class="fil4" d="M6132.91 3131.46c-24.68,2.64 -9.69,1.04 -31.14,13.32 -71.61,40.99 -58.47,50.58 -107.86,41.67 -10.25,-17.74 -32.09,-54.4 -36.64,-72l-69.96 -116.99c-24.2,-19.61 -81.68,-131.25 -110.87,-175.81 -11.37,-17.35 -12.61,-30.43 -23.5,-46.74 -15.17,-22.73 -103.06,-137.92 -36.96,-141.79 8.6,-0.5 7.86,0.49 15.79,1.86l104.33 19.84c39.74,12.7 78.08,36.14 136.42,26.79 14.5,-21.93 8.32,-20.07 18.96,-44.08l7.35 -12.65c-3.18,-39.3 12.2,-54.21 13.17,-95.89 0.85,-35.94 -0.39,-73.18 -0.07,-109.38 0.53,-61.88 -36.85,-131 -23.81,-194.61 -19.2,-12.01 -1.31,2.32 -13.22,-11.94 -15.97,-19.15 -21.3,-59.78 -29.08,-81.54 -7.37,-20.62 -13.86,-23.17 -22.82,-40.46 -9.04,-17.45 -8.74,-30.46 -16.67,-47.39l-73.99 -118.06c-13.49,-17.92 -13.33,-10.08 -26.06,-33 -14.36,-25.86 -96.9,-106.24 -121.97,-126.39 -35.23,-28.3 -92.14,-81.91 -142.68,-105.41 -79.16,-36.79 3.01,-19.23 -84.43,-42.38l-195.07 -63.95c-31.69,-5.62 -74.63,-9.06 -110.04,-10.22 -51.66,-1.7 -60.7,-23.44 -110.28,-9.35 -52.87,15.02 -116.5,13.82 -165.21,22.22 -39.48,6.8 -60.47,42.02 -155.17,31.15 -9.46,-24.56 -10.08,-51.03 -24.3,-72.98 -21.38,-32.98 -12.11,-22.14 -25.67,-64.03 -16.51,-50.96 -45.88,-56.08 -37.45,-140.3l292.09 -80.6c73.62,-10.64 300.01,-8.05 360.21,5.12l196.69 52.59c-3.37,-19.83 2.78,-8.62 -6.62,-25.36 -27.72,-7.28 -84.28,-11.74 -105.11,-19.08 -24.98,-8.79 -14.79,-14.69 -40.75,-22.14 -42.87,-12.29 -367.75,-13.61 -437.04,-6.38 -51.86,5.4 -61.38,16.77 -101.94,27.34 -47.06,12.28 -66.72,1.59 -103.62,26.16 -35.2,23.43 -55.97,12.7 -90.24,38.62 -4.22,97.77 16.22,-7.22 34.23,144.73 16.14,4.92 14.15,2.09 27.85,9.21l5.14 87.7c34.15,25.31 22.16,-16.59 35.77,36.24 7.07,27.45 4.46,27.57 20.08,47.65l66.08 -0.09 12.82 -30.22c133.15,-10.35 54.15,-3.85 106.31,-30.99 28.73,-14.95 309.82,-14.98 354.2,-1.07 25.88,8.11 16.53,14.63 51.85,24.08 19.27,5.16 41.51,4.18 61.01,10.02 31.55,9.44 8.91,12.85 46.29,25.08 23.61,7.73 33.57,2.24 51.17,17.3 33.48,28.64 5.23,9.55 47.86,27.97l61.54 42.18c15.01,13.37 -4.1,4.96 18.35,18.34 33.45,19.92 18.25,-7.82 44.54,28.67 23.46,32.54 16.12,1.99 42.88,32.86l105.52 105.37c36.27,44.75 46.09,70.07 59.89,87.08 24.17,29.79 8.02,22.24 19.36,54.14 13.75,38.69 16.68,0.25 29.97,38.32 11.93,34.18 -8.5,33.08 19.91,56.39 10.96,8.99 17.36,-9.53 21.08,44.39 6.46,93.5 30.85,-11.67 34.48,192.3 1.36,75.82 6.72,224.34 -5.55,293.64 -97.26,9.9 -29.25,-30.16 -144.91,-34.42 -110.8,-4.07 -69.45,-20.11 -110.65,-27.82 -19.58,-3.66 -31.31,-1.26 -44.19,5.74 -17.84,16.53 -0.74,30.7 13.05,84.43 14.57,56.77 2.32,-15.99 40.5,75.37 8.24,19.71 16.97,17.22 25.7,30.67 14.71,22.64 1.54,37.66 23.83,59.09l16.47 15.69c10.76,16.31 -1.52,10.16 21.34,36.61 21.38,24.74 7.44,5.14 18.64,41.37 12.53,40.57 19.66,6.47 35.56,46.38 15.81,39.69 53.06,88.2 84.57,143.82 31.41,55.44 63.06,88.61 123.19,35.66 18.67,-16.44 11.46,-7.82 33.81,-16.99 5.67,-2.32 12.08,-4.12 16.89,-9.1 13.29,-13.77 9.9,-3.69 8.8,-23.57z"/>
   <path class="fil4" d="M4651.25 3304.19c-22,-32.26 -34.7,-31.74 -58.09,-42.94 -27.86,-13.33 -134.94,-97.41 -156.52,-119.7 -21.12,-21.81 -72.14,-71.46 -88.66,-97.13 -28.14,-43.71 -57.79,-70.44 -74.97,-111.35 -13.73,-32.69 -24.01,-24.81 -34.81,-61.6 -12,-40.85 -15.92,-34.95 -27.52,-62.48l-44.25 -140.57c-6.95,-49.17 -31.89,-334.62 7.98,-349.5 54.39,-20.29 -30.62,0.72 16.85,-5.41 33.61,-4.35 83.95,26.13 115.51,33.82 25.52,6.21 49.79,6.71 72.85,17.61 39.25,18.56 11.15,13.62 57.58,6.48 -19.45,-29.2 -9.36,-39.97 -21.71,-68.08 -47.79,-24.69 -17.06,-52.61 -78.8,-118.96 -0.19,72.27 19.98,40.12 33.75,82.22 8,24.47 -1.29,19.24 15.28,41.2 14.01,18.57 15.58,6.52 18.64,37.25 -21.66,-1.63 -54.62,-2.48 -73.18,-10.28 -18.01,-7.58 -10.47,-13.6 -45.2,-23.29 -18.1,-5.04 -50.89,-5.36 -65.95,-12.06 -28.73,-12.78 -0.01,-22.11 -48.48,-19.78 -10,8.09 -39.3,44.28 -43.13,58.01 -6.69,24.02 -8.06,66.82 -8.09,94.87 -0.3,230.91 22.38,122.71 33.76,268.46 4.08,52.32 6.69,36.96 24.86,69.66 14.67,26.4 6.78,48.88 26.46,76.53 27.8,39.05 11.93,34.18 27.09,71.14 12.22,29.81 7.14,5.26 22.96,25.98 12.02,15.75 5.14,17.72 17.07,35.08 10.91,15.88 12.81,7.35 23.05,28.55 7.98,16.52 4.27,24.34 15.17,35.54 16.3,16.76 7.41,-4.3 26.62,24.44 17.39,26.01 2.36,7.97 24.72,25.52l156.61 141.04c45.74,24.31 95.11,66.93 132.55,69.73z"/>
   <path class="fil4" d="M4714.45 3329.89c12.55,16.49 2.2,8.25 24.18,17.78l51.85 23.81c28.34,13.6 62.14,8.5 97.35,14.8 38.35,6.85 29.81,19.45 84.59,23.19 91.13,6.22 99.4,12.81 195.58,-2.6 57.06,-9.15 55.09,-14.45 91.8,-20.77 147.13,-25.31 90.92,-45.86 165.81,-41.61 4.91,10.7 8.05,21.81 15.92,35.33 46.24,79.49 15.54,60.75 36.83,98.1 19.5,34.22 9.19,-7.05 29.69,65.42 8.27,29.26 18.09,36.46 21.95,67.85 -119.67,19.5 -70.65,19.35 -110.97,36.97 -19.56,8.55 -43.99,7.01 -66.35,11 -18.43,3.29 -33.1,10.71 -51.01,18.48 -64.84,28.14 -197.57,16.27 -277.71,16.3 -247.24,0.09 -155.95,-26.25 -256.81,-36.28 -77.06,-7.66 -61.41,-20.87 -114.49,-34.46 -99.01,-25.38 -44.23,-37.36 -115.76,-38.45 1.39,1.63 3.23,3.45 4.48,4.63 44.99,42.58 62.61,33.8 104.65,49.36 23.31,8.63 26.87,15.32 54.4,23.31l188.89 40.89c51.13,3.24 87.43,7.09 141.06,7.07 81.46,-0.03 230.66,2.85 297.88,-14.9 56.43,-14.9 24.78,-9.33 54,-21.27 19.45,-7.95 45.08,-8.25 63.53,-14.35 27.95,-9.22 19.78,-17.45 52.72,-25.52 15.67,-3.84 19.54,-1.9 31.34,-6.5 16.7,-6.51 -4.8,-0.45 14.34,-9.2 10.54,-68.13 -12.28,-36.33 -31.28,-121.5 -7.97,-35.71 4.54,-4.08 -15.26,-32.55 -11.01,-15.82 -12.01,-19 -16.82,-37.55 -14.84,-57.17 -24.59,-44.32 -49.13,-100.53 -55.14,1.6 -217.66,72.87 -356.44,74.32 -67.94,0.71 -123.57,-19.17 -185.24,-27.13 -129.52,-16.71 -71.31,-31.91 -175.57,-43.44z"/>
   <path class="fil4" d="M3671.61 2017.87c-9.02,19.56 -0.72,10.07 -17.71,24.55 -10.08,8.6 -4.29,2.09 -11.48,7.79 -18.53,14.69 -6.7,2.01 -16.47,15.5 53.08,-6.92 28.95,-15.38 73.63,-29.05 49.41,-15.13 25.49,-11.3 60.76,-34.7 63.41,-42.08 102.52,-48.11 126.11,-65.81 8.02,-6.02 19.43,-12.34 27.86,-16.34 24.52,-11.63 14.51,-5.73 33.25,-18.65 28.86,-19.87 45.62,-13.2 67.88,-28.58 12.46,-8.61 6.98,-10.15 24.6,-19.75 13.59,-7.4 23.19,-7.27 35.98,-15.64 32.86,-21.51 14.27,-26.4 75.75,-25.84l47.32 93.8c15.47,29.72 18.55,16.46 27.94,40.13 11.24,28.35 1.75,29.42 18.07,54.83 28.21,43.91 22.09,45.41 36.1,66.02 43.73,64.35 11.25,41.64 30.96,79.07 14.01,26.59 23.8,4.84 24.53,39.18 61.74,66.35 31.01,94.27 78.8,118.96l-27.58 -56.8c-13.31,-36.05 -21.91,-30.95 -28.03,-56.9 3.13,-58.95 -27.84,-47.7 -42.71,-98.74l-49.6 -100.07c-16.63,-22.25 -13.96,-15.02 -22.51,-46.91l-53.55 -101.87c-22.77,-27.48 -23.38,-70.25 -108.3,-38.27l-114.77 65.28c-46.25,14.23 -78.27,38.6 -118.34,62.44 -20.87,12.43 -40.85,13.69 -61.66,27.91 -21.83,14.91 -40.36,19.05 -57.82,32.02 -29.19,21.68 -8.89,19.34 -59.01,26.44z"/>
   <path class="fil4" d="M6454.63 2922.07l-4.56 0.14c-1.33,1.72 -3.47,1.84 -4.33,4.88l-195.6 122.3c-19.04,11.5 -14.11,15.56 -38.02,26.69l-60.99 35.08c-19.46,13.06 -13.66,1.09 -18.22,20.3 36.61,-1.89 109.33,-61.22 146.24,-77.72l145.55 -85.69c17.24,-14.66 2.13,-9.63 24.07,-19.43 66.05,-29.51 36.86,-24.25 63.31,-35.59 13.89,-5.95 19.43,-4.15 33.72,-11.01 22.24,-10.69 27.64,-34.23 26.57,-65.67 -58.12,-46.58 -72.88,-0.87 -130.99,-33.36 -60.85,-34.02 -45.39,-8.01 -135.62,-30.7 -2.44,-36.98 8.31,-53.43 12.81,-87.25 4.19,-31.55 2.47,-69.1 6.76,-102.01 4.86,-37.26 5.44,-64.39 5.42,-105.59l-13 -114.92c-6.96,78.38 1.38,255.46 -15.42,328.61 -8.25,35.95 -21.07,35.18 -16.64,82.51 21.78,17.17 86.5,27.63 118.55,40.6 19.26,7.8 35.41,10.79 61.57,13.64 33.18,3.62 41.47,2.24 62.52,21.29 1.67,52.51 10.43,28.47 -46.55,60.8l-20.68 9.82c-1.21,-1.75 -4.27,1.68 -6.47,2.28z"/>
   <path class="fil4" d="M5887.31 2997.46c-1.65,-56 -23.1,-47.73 -40.52,-90.88 -10.97,-27.15 -9.23,-20.91 -24.37,-41.71 -26.01,-35.72 -41.27,-81.21 -72.46,-119.61 -15.56,-19.17 -8.93,-22.77 -20.08,-43.25 -14.85,-27.27 -17.76,-7.88 -22.9,-48.15 114.44,0.35 60.22,23.99 130.93,33.06 22.82,2.93 45.61,3.31 70.53,6.97 32.8,4.81 32.08,12.96 64.47,14.53 20.08,-31.02 25.38,-31.62 25.92,-83.54l-7.35 12.65c-10.64,24.01 -4.46,22.15 -18.96,44.08 -58.34,9.35 -96.68,-14.09 -136.42,-26.79l-104.33 -19.84c-7.93,-1.37 -7.19,-2.36 -15.79,-1.86 -66.1,3.87 21.79,119.06 36.96,141.79 10.89,16.31 12.13,29.39 23.5,46.74 29.19,44.56 86.67,156.2 110.87,175.81z"/>
   <path class="fil4" d="M5957.27 3114.45c4.55,17.6 26.39,54.26 36.64,72 49.39,8.91 36.25,-0.68 107.86,-41.67 21.45,-12.28 6.46,-10.68 31.14,-13.32 4.56,-19.21 -1.24,-7.24 18.22,-20.3l60.99 -35.08c23.91,-11.13 18.98,-15.19 38.02,-26.69l195.6 -122.3c0.86,-3.04 3,-3.16 4.33,-4.88 -53.93,8.93 -33.37,14.12 -64.58,31.84 -14.58,8.27 -21.3,6.41 -33.37,12.11 -24.55,11.58 -9.66,16.64 -36.86,27.77 -29.5,12.08 -22.32,-2.28 -41.86,20.76 -19.46,22.94 12.62,6.16 -25.27,20.34 -8.66,3.24 -22.62,5.32 -30.71,9.16 -15.23,7.24 -12.38,11.43 -23.72,19.77l-52.69 36.51c-8.09,4.61 -16.74,5.35 -27.44,10.43 -0.21,0.1 -67.98,50.49 -109.01,60.6 -16.15,-32.7 -4.47,-53.16 -47.29,-57.05z"/>
  </g>
 </g>
</svg>
