<?xml version="1.0" encoding="UTF-8"?>
<!DOCTYPE svg PUBLIC "-//W3C//DTD SVG 1.1//EN" "http://www.w3.org/Graphics/SVG/1.1/DTD/svg11.dtd">
<!-- Creator: CorelDRAW 2017 -->
<svg xmlns="http://www.w3.org/2000/svg" xml:space="preserve" width="100mm" height="100mm" version="1.1" style="shape-rendering:geometricPrecision; text-rendering:geometricPrecision; image-rendering:optimizeQuality; fill-rule:evenodd; clip-rule:evenodd"
viewBox="0 0 10000 10000"
 xmlns:xlink="http://www.w3.org/1999/xlink">
 <defs>
  <style type="text/css">
   <![CDATA[
    .str0 {stroke:black;stroke-width:250;stroke-miterlimit:22.9256}
    .fil0 {fill:none}
    .fil1 {fill:#BEA6C2}
    .fil2 {fill:#EEDFF1}
   ]]>
  </style>
 </defs>
 <g id="Capa_x0020_1">
  <metadata id="CorelCorpID_0Corel-Layer"/>
  <rect class="fil0" width="10000" height="10000"/>
  <g id="_1212722596208">
   <path class="fil1 str0" d="M4862.37 3919.88c227.16,171.66 606.31,281.27 848.27,401.26 -21.15,96.13 -660.7,1142.34 -776.23,1243.48 -260.69,-57.46 -505.89,-325.38 -789.26,-373.26 -202.38,429.13 -1314.8,2174 -1366.1,2652.67 351.21,275.28 738.56,500.22 1119.67,763.45 220.81,152.5 888.82,589.19 1172.44,680.18 168.89,-149.92 2108.03,-1600.57 2149.79,-1763.03l-26.76 -980.53c-190.32,-205.63 -500.74,-220.47 -734.37,-360.72 14.3,-161.72 289.94,-858.72 362.44,-1051.35 87.93,-233.64 392.06,-919.21 393.1,-1110.99l-856.43 -39.73c-6.56,-28.22 -14.46,-55.85 -15.83,-49.38 -0.35,1.56 -56.33,51.63 14.31,-319.32l259.5 -1256.19c111.7,-487.51 281.52,-1154.9 331.5,-1644.07 -125.82,101.37 -489.26,639.28 -576.73,766.89 -311.36,454.3 -1448.73,2118.27 -1509.31,2440.64z"/>
   <path class="fil2" d="M5330.67 3691.74l353.91 300.06c121.77,89.27 272.59,194.94 393.97,278.45 -57.22,186.92 -337.58,691.23 -457.06,886.96 -163.33,267.55 -336.67,587.21 -453.73,856.69l-937.4 -347.11c-152.4,347.65 -887.37,1781.7 -896.18,1994.72 246.69,180.36 1542.66,1050.74 1736.98,1094.84l867.7 -775.1c148.42,-154.59 840.12,-736.76 867.06,-821.66l-22.68 -527.65 -823.86 -313.93 730.57 -1989.49 -756.21 -269.95 386.7 -1951.95c-171.43,165.24 -894.46,1359.27 -989.77,1585.12z"/>
  </g>
 </g>
</svg>
