<?xml version="1.0" encoding="UTF-8"?>
<!DOCTYPE svg PUBLIC "-//W3C//DTD SVG 1.1//EN" "http://www.w3.org/Graphics/SVG/1.1/DTD/svg11.dtd">
<!-- Creator: CorelDRAW 2017 -->
<svg xmlns="http://www.w3.org/2000/svg" xml:space="preserve" width="46.15mm" height="33.8mm" version="1.1" style="shape-rendering:geometricPrecision; text-rendering:geometricPrecision; image-rendering:optimizeQuality; fill-rule:evenodd; clip-rule:evenodd"
viewBox="0 0 4615 3380"
 xmlns:xlink="http://www.w3.org/1999/xlink">
 <defs>
  <style type="text/css">
   <![CDATA[
    .fil4 {fill:none}
    .fil2 {fill:#6E4D8B}
    .fil7 {fill:#017DBB}
    .fil3 {fill:#4EF298}
    .fil6 {fill:#EE4552}
    .fil1 {fill:#D2D3D5;fill-rule:nonzero}
    .fil5 {fill:#848688;fill-rule:nonzero}
    .fil8 {fill:#00558C;fill-rule:nonzero}
    .fil0 {fill:#017DBB;fill-rule:nonzero}
   ]]>
  </style>
    <clipPath id="id0">
     <path d="M328.07 1324.11c-118.4,-186.33 -203.83,-270.61 -276.01,-572.12 -171.83,-717.79 183.65,-1084.47 470.79,-308.6 103.24,278.89 91.72,421.88 85.69,729.31l107.62 -4.29c31.47,-244.62 135.34,-526.76 258.63,-657.54 101.41,-107.54 476.5,-284.83 703.66,-165.76 144.39,75.72 93.36,202.85 -25.98,269.35 -303.41,169 -266.09,198.23 -444.73,452.77 -78.05,111.21 -139.48,139.89 -221.21,234.13 40.02,87.08 174.64,209.04 102.01,439.72 -223.08,-87.84 -404.04,-150.13 -676.64,-59.29 -45.2,15.09 -65.62,28.92 -102.6,42.35 -197.8,71.96 -49.26,-327.52 18.77,-400.03z"/>
    </clipPath>
    <clipPath id="id1">
     <path d="M2046.41 1034.42c-157.9,55.5 -82.03,294.23 80.23,245.21 16.89,-5.1 33.19,-14.87 41.65,-22.12 115.77,-99.33 7.06,-268.41 -121.88,-223.09z"/>
    </clipPath>
    <clipPath id="id2">
     <path d="M2359.82 1034.48c-157.9,55.5 -82.03,294.23 80.23,245.21 16.89,-5.1 33.19,-14.87 41.65,-22.13 115.76,-99.32 7.05,-268.4 -121.88,-223.08z"/>
    </clipPath>
 </defs>
 <g id="Capa_x0020_1">
  <metadata id="CorelCorpID_0Corel-Layer"/>
  <g id="_2198587391024">
   <path class="fil0" d="M2108.82 3047.26l-70.6 57.97 -78.02 64.35c-32.7,63.14 -59.13,107.41 -79.59,132.71 -20.5,24.89 -40.6,43.63 -60.29,56.08 -10.51,6.3 -19.17,9.86 -25.87,10.57 -10,1.06 -15.61,-4.33 -16.86,-16.17 -2.17,-20.5 12.06,-51.92 42.72,-93.97 19.49,-27.06 52.87,-63.42 100.27,-109.24l44.17 -113.14c-26.83,30.48 -48.04,52.39 -63.49,65.99 -35.17,30.84 -62.95,47.33 -83.2,49.46 -8.67,0.92 -17.71,-1.58 -27.12,-7.63 -9.27,-5.94 -16.91,-14.04 -23.05,-24.3 -5.33,-9.01 -9.36,-20.81 -12.26,-35.52 -0.4,-3.82 -0.73,-6.98 -0.97,-9.21 -0.57,-5.39 -1.04,-13.72 -1.45,-25.11 4.75,-35.6 21.22,-67.25 49.53,-94.96 33.11,-32.75 72.3,-60.82 117.54,-84.34 18.01,-9.47 34.05,-14.9 48.12,-16.38 11.84,-1.25 21.83,0.23 29.97,4.29 5.45,2.48 8.47,5.88 8.9,9.96 1.22,11.56 -8.13,25.05 -28.04,40.44 -4.55,3.54 -30.44,21.44 -77.98,53.45 -37.98,25.67 -59.58,41.38 -64.93,47.39 -18.56,20.71 -26.49,43.75 -23.84,68.86 0.09,2.12 0.4,5.01 0.77,8.56 7.45,0.01 13.01,-0.17 16.7,-0.56 25.63,-2.71 54.31,-21.96 85.89,-57.86 24.19,-27.68 50.06,-62.19 77.99,-103.69 10.58,-15.61 19.57,-23.74 27.06,-24.53 6.44,-0.68 13.06,2.88 19.87,10.67 8.25,8.83 12.77,17.66 13.72,26.6 0.59,5.65 -2.27,16.32 -8.73,32.03l-52.06 126.35c37.71,-26.85 75.33,-54.62 112.69,-83.56 -0.08,10.64 0.23,18.59 0.77,23.72 0.24,2.24 0.75,5.9 1.67,10.72zm306.74 -32.38c-35.5,33.93 -58.72,55.79 -69.89,65.87 -32.08,28.52 -57.59,43.84 -76.39,45.83 -15.39,1.62 -29.31,-4.35 -41.63,-17.81 -8.55,-9.2 -13.47,-20.51 -14.88,-33.93 -2.39,-22.61 2.09,-45.55 13.47,-68.82 7.76,-15.85 23.17,-41.13 46.38,-75.76l-85.79 28.6c-22.04,29.32 -48.17,58.8 -78.28,88.43 -0.99,-4.28 -1.61,-7.67 -1.84,-9.91 -0.54,-5.12 -0.75,-13.35 -0.6,-24.53 16.42,-15.69 29.96,-31.08 40.23,-45.86 -7.87,-0.24 -13.37,-1.92 -16.74,-4.88 -3.37,-2.97 -5.39,-8.34 -6.21,-16.1 -2.61,-24.72 8.87,-51.99 34.58,-81.69 9.49,-10.83 19.39,-20.39 29.55,-28.64 10.16,-8.25 17.54,-12.62 22.14,-13.11 3.56,-0.37 7.3,1.09 10.97,4.3 3.67,3.33 5.75,6.7 6.14,10.38 0.54,5.13 -0.62,11.77 -3.51,19.65l95.15 -23.07c5.83,-1.42 10.13,-2.27 12.63,-2.53 8.29,-0.87 15.56,2.61 22.11,10.43 9.29,11.24 14.53,23.06 15.86,35.68 0.75,7.1 -0.81,13.78 -4.55,19.89 -5.11,8.25 -13.2,18.41 -24.34,30.09 -24.41,25.71 -40.37,50.8 -47.75,75.37 -2.05,7 -2.79,13.86 -2.1,20.43 1.49,14.07 9.08,20.44 22.75,19 18.41,-1.95 51.74,-22.48 100.1,-61.75 0.28,11.4 0.74,19.6 1.3,24.86 0.39,2.48 0.72,5.63 1.14,9.58zm395.63 -41.76c-11.6,11.06 -21.72,20.9 -30.38,29.53 -44.6,43.53 -73.3,70.09 -86.28,79.44 -15.73,10.96 -28.65,16.98 -38.64,18.03 -10.52,1.11 -19.83,-2.69 -27.67,-11.44 -6.15,-6.66 -9.77,-14.52 -10.75,-23.72 -2.05,-19.46 4.6,-51 20.07,-94.52l-21.55 21.29c-44.14,42.81 -70.94,68.51 -80.4,77.09 -20.88,18.83 -35.67,28.62 -44.09,29.51 -7.49,0.79 -16.64,-2.76 -27.32,-10.8 -10.68,-7.92 -20.83,-18.42 -30.18,-31.39 -8.87,-12.35 -14.98,-26.07 -18.44,-41.26 -0.73,-4.31 -1.22,-7.71 -1.45,-9.95 -0.54,-5.12 -0.75,-13.35 -0.6,-24.53 1.99,-12.71 7.81,-25.55 17.33,-38.66 9.51,-13.1 24.47,-28.91 44.88,-47.15 36.64,-33.25 81.81,-62.47 135.12,-87.65 31.42,-14.75 57.11,-23.17 76.84,-25.25 17.76,-1.88 32.01,3.52 42.92,16.2 5.94,7.09 9.15,12.33 9.52,15.88 0.64,6.04 -7.85,13.73 -25.47,23.16 15.97,5.1 24.62,14.15 26,27.17 0.9,8.55 -3.25,19.49 -12.47,32.96 -31.85,45.91 -46.91,77.01 -45.18,93.44 0.71,6.71 3.91,11.83 9.49,15.62 5.58,3.67 12.11,5.11 19.87,4.29 10.78,-1.14 23.99,-8.26 39.76,-21.35 12.83,-10.66 31.78,-27.55 56.63,-50.39 0.4,11.39 0.89,19.72 1.46,25.11 0.25,2.37 0.57,5.39 0.98,9.34zm-141.54 -111.63c-42.28,16.43 -75.49,31.77 -99.78,46.03 -46.02,27.46 -75.38,51.57 -88.07,72.45 -5.55,9.1 -7.35,22.31 -5.53,39.53 0.89,8.43 2.66,13.82 5.17,16.21 1.78,1.81 4.92,2.54 9.26,2.08 11.57,-1.22 36.46,-19.8 74.55,-55.72 35.32,-33.12 61.47,-61.27 78.57,-84.35 4.3,-5.9 13,-17.99 25.83,-36.23zm426.2 81.58c-39.34,36.59 -70.19,62.98 -92.72,78.79 -36.29,25.24 -68.45,39.26 -96.19,42.19 -24.2,2.55 -45.5,-5.3 -64.05,-23.68 -15.44,-15.26 -26.05,-37.67 -31.7,-67.25 -0.72,-4.31 -1.2,-7.59 -1.45,-9.96 -0.54,-5.12 -0.87,-13.33 -0.99,-24.49 0.1,-17.96 1.67,-30.75 4.43,-38.62 6.39,-18.89 20.04,-39.34 41,-61.23 21.08,-22.03 45.69,-41.92 74.01,-59.66 39.13,-24.74 69.74,-38.21 91.84,-40.54 20.9,-2.21 32.56,8.8 35.13,33.12 1.51,14.33 -3.11,30.91 -13.92,49.47 -22.9,40.03 -42.24,60.82 -57.89,62.47 -15.51,1.64 -25.67,-8.99 -30.75,-31.85 -18.01,17.06 -40.55,37.79 -67.47,62.3 -15.99,14.72 -23.29,28.78 -21.87,42.19 1.16,11.05 7.23,20.64 18.3,28.51 11.82,8.73 27.32,12.01 46.26,10.01 24.32,-2.56 49.82,-10.44 76.85,-23.8 24,-11.97 53.58,-32.78 88.74,-62.42 0.35,12.2 0.74,20.93 1.31,26.32 0.45,2.88 0.85,5.5 1.13,8.13zm228.78 -24.15c-30.2,28.85 -54.4,51.47 -72.37,67.6 -31,27.46 -56.56,42.26 -76.94,44.41 -18.02,1.9 -34.62,-4.32 -49.95,-18.52 -14.45,-13.5 -24.21,-36.67 -29.52,-69.34 -0.7,-4.05 -1.17,-7.32 -1.41,-9.56 -0.57,-5.39 -0.77,-13.61 -0.6,-24.53 3.42,-35.6 20.92,-72.67 52.36,-111.09 27.02,-33.69 53.67,-51.93 79.71,-54.68 10.52,-1.11 19.48,0.61 26.62,5.3 4.7,2.96 7.44,7.45 8.07,13.51 0.82,7.76 -1.54,16.91 -7.19,27.61 -7.3,13.93 -37.47,51.82 -90.5,113.66 -2.6,9.44 -3.69,16.74 -3.15,21.86 0.96,9.08 4.5,16.15 10.49,21.24 10.18,8.35 22.9,11.67 38.02,10.07 18.93,-2 41.08,-12.58 66.31,-31.73 12.31,-9.41 28.19,-22.65 47.65,-39.86 0.03,10.36 0.34,18.31 0.91,23.71 0.23,2.22 0.74,5.76 1.49,10.34zm-35.17 -294.1c8.81,-0.93 15.89,0.72 21.4,4.92 5.49,4.21 8.66,10.39 9.53,18.55 1.83,17.35 -4.17,34.87 -18.14,52.3 -11.08,13.53 -23.31,21.07 -36.59,22.47 -8.94,0.95 -16.9,-1.41 -23.75,-7.2 -6.88,-5.92 -10.78,-13.89 -11.79,-23.48 -1.57,-14.86 4.95,-29.91 19.69,-45.15 13.2,-13.5 26.38,-21 39.65,-22.41zm430.4 252.37c-11.6,11.06 -21.72,20.91 -30.38,29.54 -44.6,43.53 -73.3,70.09 -86.28,79.43 -15.73,10.97 -28.65,16.99 -38.64,18.04 -10.52,1.11 -19.83,-2.69 -27.67,-11.44 -6.15,-6.66 -9.77,-14.52 -10.75,-23.72 -2.05,-19.46 4.6,-51.01 20.07,-94.52l-21.55 21.29c-44.14,42.81 -70.94,68.51 -80.4,77.09 -20.88,18.82 -35.66,28.62 -44.09,29.51 -7.49,0.79 -16.64,-2.76 -27.32,-10.8 -10.68,-7.93 -20.83,-18.42 -30.17,-31.39 -8.88,-12.36 -14.98,-26.07 -18.45,-41.26 -0.72,-4.31 -1.21,-7.72 -1.45,-9.95 -0.54,-5.13 -0.75,-13.35 -0.6,-24.54 1.99,-12.71 7.81,-25.55 17.33,-38.65 9.52,-13.1 24.47,-28.91 44.88,-47.15 36.64,-33.25 81.81,-62.48 135.12,-87.65 31.42,-14.75 57.11,-23.17 76.84,-25.26 17.76,-1.87 32.01,3.53 42.92,16.21 5.94,7.08 9.15,12.32 9.52,15.87 0.64,6.05 -7.85,13.74 -25.47,23.17 15.97,5.1 24.62,14.15 26,27.17 0.9,8.55 -3.25,19.49 -12.47,32.96 -31.85,45.91 -46.91,77.01 -45.18,93.44 0.71,6.71 3.91,11.82 9.49,15.62 5.58,3.66 12.12,5.1 19.87,4.29 10.78,-1.14 23.99,-8.26 39.76,-21.36 12.83,-10.65 31.78,-27.54 56.63,-50.38 0.4,11.39 0.89,19.72 1.46,25.11 0.25,2.36 0.57,5.39 0.98,9.33zm-141.54 -111.62c-42.28,16.43 -75.49,31.77 -99.78,46.03 -46.02,27.46 -75.38,51.56 -88.07,72.45 -5.55,9.1 -7.35,22.31 -5.53,39.53 0.89,8.42 2.66,13.82 5.17,16.21 1.78,1.81 4.92,2.54 9.26,2.08 11.57,-1.22 36.47,-19.8 74.55,-55.73 35.32,-33.11 61.47,-61.26 78.57,-84.34 4.3,-5.91 13,-18 25.83,-36.23zm448.95 79.17c-37.57,34.55 -61.94,56.8 -73.12,66.75 -36.6,32.45 -72.45,50.46 -107.56,54.17 -29.45,3.11 -56.51,-2.55 -80.76,-17.01 -20.26,-11.81 -31.24,-26.34 -33.04,-43.44 -1.17,-11.05 1.69,-20.52 8.68,-28.57 7.34,-8.48 17.08,-13.36 29.17,-14.64 10.65,-1.12 22.79,1.85 36.31,8.93 11.13,6 19.27,10.06 24.17,12.34 12.54,-9.57 21.98,-18.41 28.34,-26.26 14.35,-18.93 20.14,-42.15 17.24,-69.63 -1.32,-12.49 -5.15,-32.43 -11.33,-59.43 -51.33,57.8 -99.66,107.58 -145.12,149.2 -0.98,-4.28 -1.6,-7.67 -1.84,-9.91 -0.54,-5.12 -0.74,-13.34 -0.6,-24.53 60.97,-57.22 107.48,-106.53 139.81,-147.84 3.31,-25.34 9.52,-43.41 18.77,-53.96 4.85,-5.69 13.91,-9.32 26.92,-10.69 8.55,-0.9 15.09,0.67 19.63,4.58 3.48,2.69 6.23,9.85 8.5,21.3 0.75,4.58 3.49,12.93 8.11,25.21 11.22,29.52 17.39,50.14 18.64,61.97 3.79,35.9 -8.75,70.72 -37.67,104.09 -9.12,10.54 -26.25,27.23 -51.77,49.87 10.22,-0.15 17.64,-0.4 22.51,-0.91 19.06,-2.02 37.43,-9.4 55.37,-22.07 15.95,-11.26 42.03,-32.49 78.2,-63.96 0.19,10.62 0.64,18.68 1.21,24.08 0.24,2.22 0.61,5.77 1.23,10.36z"/>
   <path class="fil1" d="M1383.05 2269.19l-30.35 87.9 59.75 0 -29.4 -87.9zm-36.43 -52.31l75.4 0 88.74 234.47 -66.84 0 -16.66 -49.67 -90.21 0 -17.52 49.67 -61.82 0 88.91 -234.47zm283.51 0l77.99 0 67.96 140.6c2.31,4.73 4.96,11.26 8.05,19.71 3.1,8.39 6.48,18.69 10.25,30.91 -2.02,-11.54 -3.49,-22.13 -4.39,-31.81 -0.96,-9.69 -1.41,-18.53 -1.41,-26.58l0 -132.83 56.43 0 0 234.47 -77.71 0 -70.5 -145.73c-3.32,-6.7 -6.37,-13.97 -9.12,-21.85 -2.71,-7.83 -5.24,-16.38 -7.55,-25.62 2.2,13.97 3.83,26.8 4.84,38.52 1.07,11.71 1.58,22.01 1.58,30.91l0 123.77 -56.42 0 0 -234.47zm365.32 0l62.5 0 0 234.47 -62.5 0 0 -234.47zm193.63 0l65.26 0 52.32 182.5 51.58 -182.5 63.96 0 -79.45 234.47 -78.33 0 -75.34 -234.47zm362.01 0l162.85 0 0 43.92 -100.35 0 0 47.3 94.6 0 0 44.59 -94.6 0 0 53.39 104.06 0 0 45.27 -166.56 0 0 -234.47zm373.04 41.21l0 60.14 21.96 0c13.51,0 23.65,-2.47 30.41,-7.37 6.75,-4.9 10.13,-12.22 10.13,-22.02 0,-10.59 -3.77,-18.36 -11.31,-23.31 -7.49,-4.96 -19.43,-7.44 -35.71,-7.44l-15.48 0zm-61.15 -41.21l93.13 0c31.09,0 54.12,5.01 69.15,15.09 15.04,10.08 22.53,25.39 22.53,45.95 0,15.2 -3.95,27.7 -11.89,37.5 -7.94,9.8 -19.42,16.33 -34.4,19.65 12.33,4.5 22.24,17.29 29.73,38.4l0 0.17 28.04 77.71 -65.2 0 -20.61 -64.19c-3.33,-10.31 -7.83,-17.46 -13.52,-21.46 -5.74,-3.94 -14.64,-5.91 -26.74,-5.91l-9.07 0 0 91.56 -61.15 0 0 -234.47zm483.29 2.7l-4.62 48.37c-9.57,-4.11 -18.75,-7.15 -27.53,-9.18 -8.79,-2.03 -17.35,-3.04 -25.57,-3.04 -12.67,0 -22.52,2.03 -29.62,6.02 -7.09,4 -10.64,9.52 -10.64,16.56 0,4.95 1.8,9.29 5.41,12.95 3.66,3.72 9.06,6.76 16.33,9.18 2.42,0.79 5.85,1.86 10.36,3.27 26.86,8.72 44.65,16.33 53.44,22.97 8.27,6.36 14.3,13.63 18.13,21.79 3.88,8.22 5.8,17.8 5.8,28.78 0,25.84 -8.56,45.55 -25.74,59.12 -17.11,13.57 -42,20.39 -74.55,20.39 -11.71,0 -23.54,-0.85 -35.36,-2.48 -11.83,-1.63 -23.54,-4.11 -35.2,-7.43l5.3 -52.26c10.98,4.95 21.68,8.73 32.04,11.32 10.41,2.59 20.21,3.88 29.45,3.88 12.27,0 22.01,-2.31 29.17,-6.92 7.15,-4.62 10.69,-10.87 10.69,-18.81 0,-9.8 -11.43,-18.64 -34.23,-26.58 -5.52,-1.86 -9.74,-3.32 -12.67,-4.45 -22.36,-7.99 -38.29,-17.34 -47.87,-27.93 -9.57,-10.64 -14.35,-24.21 -14.35,-40.71 0,-23.54 8.39,-41.61 25.22,-54.28 16.84,-12.67 41,-18.98 72.42,-18.98 11.54,0 22.69,0.68 33.33,2.09 10.7,1.35 20.95,3.49 30.86,6.36zm249.49 49.61l-30.35 87.9 59.75 0 -29.4 -87.9zm-36.43 -52.31l75.4 0 88.74 234.47 -66.84 0 -16.66 -49.67 -90.21 0 -17.52 49.67 -61.82 0 88.91 -234.47zm344.66 41.21l0 60.14 21.96 0c13.51,0 23.65,-2.47 30.41,-7.37 6.75,-4.9 10.13,-12.22 10.13,-22.02 0,-10.59 -3.77,-18.36 -11.31,-23.31 -7.49,-4.96 -19.43,-7.44 -35.71,-7.44l-15.48 0zm-61.15 -41.21l93.13 0c31.09,0 54.12,5.01 69.15,15.09 15.04,10.08 22.53,25.39 22.53,45.95 0,15.2 -3.95,27.7 -11.89,37.5 -7.94,9.8 -19.42,16.33 -34.4,19.65 12.33,4.5 22.24,17.29 29.73,38.4l0 0.17 28.04 77.71 -65.2 0 -20.61 -64.19c-3.33,-10.31 -7.83,-17.46 -13.52,-21.46 -5.74,-3.94 -14.64,-5.91 -26.74,-5.91l-9.07 0 0 91.56 -61.15 0 0 -234.47zm327.54 0l62.5 0 0 234.47 -62.5 0 0 -234.47zm321.4 39.86c-16.16,0 -29.17,6.99 -39.02,20.89 -9.86,13.91 -14.76,32.49 -14.76,55.81 0,23.42 4.9,42.12 14.7,56.08 9.8,13.97 22.8,20.95 39.08,20.95 16.22,0 29.11,-6.98 38.8,-20.89 9.68,-13.91 14.52,-32.61 14.52,-56.14 0,-23.2 -4.84,-41.79 -14.58,-55.75 -9.74,-13.96 -22.64,-20.95 -38.74,-20.95zm0 -45.61c36.43,0 64.87,10.87 85.42,32.61 20.5,21.67 30.75,51.8 30.75,90.26 0,38.63 -10.25,68.75 -30.75,90.32 -20.55,21.62 -48.99,32.44 -85.42,32.44 -36.6,0 -65.21,-10.82 -85.76,-32.44 -20.56,-21.57 -30.86,-51.69 -30.86,-90.32 0,-38.46 10.3,-68.59 30.91,-90.26 20.67,-21.74 49.22,-32.61 85.71,-32.61z"/>
   <path class="fil2" d="M328.07 1324.11c-118.4,-186.33 -203.83,-270.61 -276.01,-572.12 -171.83,-717.79 183.65,-1084.47 470.79,-308.6 103.24,278.89 91.72,421.88 85.69,729.31l107.62 -4.29c31.47,-244.62 135.34,-526.76 258.63,-657.54 101.41,-107.54 476.5,-284.83 703.66,-165.76 144.39,75.72 93.36,202.85 -25.98,269.35 -303.41,169 -266.09,198.23 -444.73,452.77 -78.05,111.21 -139.48,139.89 -221.21,234.13 40.02,87.08 174.64,209.04 102.01,439.72 -223.08,-87.84 -404.04,-150.13 -676.64,-59.29 -45.2,15.09 -65.62,28.92 -102.6,42.35 -197.8,71.96 -49.26,-327.52 18.77,-400.03z"/>
   <g style="clip-path:url(#id0)">
    <g>
     <circle class="fil3" transform="matrix(1.03221 -0.0645688 0.0645688 1.03221 -514.137 1542.41)" r="578.6"/>
    </g>
   </g>
   <path class="fil4" d="M328.07 1324.11c-118.4,-186.33 -203.83,-270.61 -276.01,-572.12 -171.83,-717.79 183.65,-1084.47 470.79,-308.6 103.24,278.89 91.72,421.88 85.69,729.31l107.62 -4.29c31.47,-244.62 135.34,-526.76 258.63,-657.54 101.41,-107.54 476.5,-284.83 703.66,-165.76 144.39,75.72 93.36,202.85 -25.98,269.35 -303.41,169 -266.09,198.23 -444.73,452.77 -78.05,111.21 -139.48,139.89 -221.21,234.13 40.02,87.08 174.64,209.04 102.01,439.72 -223.08,-87.84 -404.04,-150.13 -676.64,-59.29 -45.2,15.09 -65.62,28.92 -102.6,42.35 -197.8,71.96 -49.26,-327.52 18.77,-400.03z"/>
   <path class="fil5" d="M1730.23 2049.06l-149.75 -209.4 -154.83 209.4 -215.74 0 262.7 -343.92 -253.82 -338.85 222.09 0 144.68 199.25 148.48 -199.25 210.67 0 -253.82 333.77 263.97 349 -224.63 0zm257.82 -682.77l197.98 0 0 682.77 -197.98 0 0 -682.77zm98.99 -95.18c-36.38,0 -65.99,-10.58 -88.83,-31.73 -22.85,-21.15 -34.27,-47.38 -34.27,-78.68 0,-31.31 11.42,-57.54 34.27,-78.69 22.84,-21.15 52.45,-31.72 88.83,-31.72 36.38,0 66,10.15 88.84,30.45 22.84,20.31 34.27,45.69 34.27,76.15 0,33 -11.43,60.28 -34.27,81.86 -22.84,21.57 -52.46,32.36 -88.84,32.36zm219.75 95.18l197.98 0 0 682.77 -197.98 0 0 -682.77zm98.99 -95.18c-36.38,0 -65.99,-10.58 -88.83,-31.73 -22.85,-21.15 -34.27,-47.38 -34.27,-78.68 0,-31.31 11.42,-57.54 34.27,-78.69 22.84,-21.15 52.45,-31.72 88.83,-31.72 36.38,0 66,10.15 88.84,30.45 22.84,20.31 34.27,45.69 34.27,76.15 0,33 -11.43,60.28 -34.27,81.86 -22.84,21.57 -52.46,32.36 -88.84,32.36zm623.33 85.03c63.45,0 121.19,14.59 173.23,43.78 52.03,29.19 92.85,70.22 122.46,123.1 29.62,52.88 44.42,114.43 44.42,184.65 0,70.23 -14.8,131.78 -44.42,184.66 -29.61,52.88 -70.43,93.91 -122.46,123.1 -52.04,29.19 -109.78,43.78 -173.23,43.78 -93.92,0 -165.41,-29.61 -214.48,-88.83l0 78.68 -189.1 0 0 -941.66 197.98 0 0 331.23c49.92,-55 118.45,-82.49 205.6,-82.49zm-34.27 540.63c50.76,0 92.43,-17.13 125.01,-51.4 32.57,-34.26 48.85,-80.16 48.85,-137.7 0,-57.53 -16.28,-103.43 -48.85,-137.69 -32.58,-34.27 -74.25,-51.4 -125.01,-51.4 -50.76,0 -92.43,17.13 -125.01,51.4 -32.57,34.26 -48.86,80.16 -48.86,137.69 0,57.54 16.29,103.44 48.86,137.7 32.58,34.27 74.25,51.4 125.01,51.4zm787.03 3.81c35.53,0 67.05,-5.29 94.55,-15.87 27.49,-10.57 53.09,-27.28 76.78,-50.13l105.33 114.22c-64.3,73.61 -158.21,110.41 -281.74,110.41 -76.99,0 -145.1,-15.01 -204.32,-45.05 -59.23,-30.04 -104.91,-71.7 -137.06,-125.01 -32.15,-53.3 -48.23,-113.79 -48.23,-181.48 0,-66.83 15.86,-127.12 47.59,-180.84 31.73,-53.73 75.3,-95.61 130.72,-125.64 55.41,-30.04 117.81,-45.05 187.19,-45.05 65.15,0 124.37,13.75 177.67,41.24 53.3,27.5 95.82,67.26 127.54,119.3 31.73,52.03 47.6,113.58 47.6,184.65l-505.1 97.72c14.38,33.84 37.01,59.22 67.89,76.14 30.89,16.93 68.75,25.39 113.59,25.39zm-29.19 -394.69c-49.92,0 -90.53,16.07 -121.83,48.22 -31.31,32.16 -47.81,76.57 -49.5,133.26l332.5 -64.72c-9.3,-35.54 -28.34,-63.88 -57.11,-85.03 -28.76,-21.15 -63.45,-31.73 -104.06,-31.73zm611.9 -49.5c23.69,-32.99 55.63,-57.95 95.82,-74.87 40.18,-16.92 86.5,-25.38 138.96,-25.38l0 182.75c-22,-1.7 -36.8,-2.54 -44.42,-2.54 -56.68,0 -101.1,15.86 -133.25,47.59 -32.15,31.73 -48.23,79.32 -48.23,142.77l0 322.35 -197.98 0 0 -682.77 189.1 0 0 90.1z"/>
   <path class="fil2" d="M2046.41 1034.42c-157.9,55.5 -82.03,294.23 80.23,245.21 16.89,-5.1 33.19,-14.87 41.65,-22.12 115.77,-99.33 7.06,-268.41 -121.88,-223.09z"/>
   <g style="clip-path:url(#id1)">
    <g>
     <ellipse class="fil6" cx="2110.25" cy="1654.99" rx="360.47" ry="312.24"/>
    </g>
   </g>
   <path class="fil4" d="M2046.41 1034.42c-157.9,55.5 -82.03,294.23 80.23,245.21 16.89,-5.1 33.19,-14.87 41.65,-22.12 115.77,-99.33 7.06,-268.41 -121.88,-223.09z"/>
   <path class="fil7" d="M2359.82 1034.48c-157.9,55.5 -82.03,294.23 80.23,245.21 16.89,-5.1 33.19,-14.87 41.65,-22.13 115.76,-99.32 7.05,-268.4 -121.88,-223.08z"/>
   <g style="clip-path:url(#id2)">
    <g>
     <ellipse class="fil6" cx="2423.66" cy="1655.05" rx="360.47" ry="312.24"/>
    </g>
   </g>
   <path class="fil4" d="M2359.82 1034.48c-157.9,55.5 -82.03,294.23 80.23,245.21 16.89,-5.1 33.19,-14.87 41.65,-22.13 115.76,-99.32 7.05,-268.4 -121.88,-223.08z"/>
   <path class="fil8" d="M521.46 2190.03c0,46.66 14.06,84.05 42.18,112.17 27.81,28.11 65.2,41.87 112.16,41.87 39.48,0 75.07,-13.76 106.78,-41.87 31.4,-28.12 47.25,-65.51 47.25,-112.17 0,-39.78 -15.85,-75.37 -47.25,-107.07 -31.71,-31.41 -67.3,-47.26 -106.78,-47.26 -46.96,0 -84.35,15.85 -112.16,47.26 -28.12,31.7 -42.18,67.29 -42.18,107.07zm0 623.92c0,46.66 14.06,84.05 42.18,112.17 27.81,27.81 65.2,41.87 112.16,41.87 39.48,0 75.07,-14.06 106.78,-41.87 31.4,-28.12 47.25,-65.51 47.25,-112.17 0,-39.78 -15.85,-75.37 -47.25,-107.07 -31.71,-31.41 -67.3,-47.26 -106.78,-47.26 -46.96,0 -84.35,15.85 -112.16,47.26 -28.12,31.7 -42.18,67.29 -42.18,107.07zm157.63 -1100.68c128.61,0 239.28,46.06 332.3,138.48 92.72,92.43 139.08,203.99 139.08,334.7 0,82.85 -13.16,148.95 -39.18,198 -26.32,49.05 -53.54,88.83 -81.66,119.34 33.8,32.6 62.81,74.47 86.74,125.32 23.93,50.55 35.29,112.46 34.1,184.84 0,131.91 -46.06,244.07 -138.48,336.49 -92.13,92.12 -203.09,137.88 -332.9,136.69 -130.71,0 -242.27,-46.36 -334.69,-138.49 -92.42,-92.42 -138.48,-202.78 -138.48,-331.4 3.58,-80.45 17.34,-146.26 41.27,-197.1 23.93,-50.85 49.95,-90.33 78.07,-118.15 -23.33,-22.43 -48.46,-59.82 -74.48,-113.06 -26.32,-53.23 -41.28,-120.83 -44.86,-202.48 0,-130.71 46.06,-242.27 138.48,-333.8 92.42,-91.82 203.98,-138.18 334.69,-139.38z"/>
  </g>
 </g>
</svg>
