<?xml version="1.0" encoding="UTF-8"?>
<!DOCTYPE svg PUBLIC "-//W3C//DTD SVG 1.1//EN" "http://www.w3.org/Graphics/SVG/1.1/DTD/svg11.dtd">
<!-- Creator: CorelDRAW 2017 -->
<svg xmlns="http://www.w3.org/2000/svg" xml:space="preserve" width="22mm" height="22mm" version="1.1" style="shape-rendering:geometricPrecision; text-rendering:geometricPrecision; image-rendering:optimizeQuality; fill-rule:evenodd; clip-rule:evenodd"
viewBox="0 0 2200 2200"
 xmlns:xlink="http://www.w3.org/1999/xlink">
 <defs>
  <style type="text/css">
   <![CDATA[
    .str0 {stroke:#373435;stroke-width:7.62;stroke-miterlimit:22.9256}
    .str1 {stroke:#FEFEFE;stroke-width:100;stroke-linecap:round;stroke-linejoin:round;stroke-miterlimit:22.9256}
    .fil1 {fill:none}
    .fil0 {fill:black}
   ]]>
  </style>
 </defs>
 <g id="Capa_x0020_1">
  <metadata id="CorelCorpID_0Corel-Layer"/>
  <g id="_2198585299584">
   <path class="fil0 str0" d="M1356.74 548.85l0.46 111.21c-5.33,5.84 -11.8,-9.13 -6.03,10.69l-12.42 -19.13c-12.99,-11.54 -2.18,-4.71 -21.21,-8.23 -26.02,-4.82 -54.03,-25.98 -78.18,-24.17 -50.89,3.82 -19.09,0.09 -40.94,-2.08 -10.08,-1.01 -12.46,0.1 -30.62,9.29 -23.73,11.99 -3.97,7.4 -23.81,14.95 -45.28,17.21 -18.36,19.92 -34.89,44.06 -1.77,2.58 -40.36,24.69 -42.32,67.25 -5.25,114.3 -17.02,77.6 19.12,160.13 8.13,18.53 13.22,17.87 25.41,37.64l24.5 25.15c14.4,10.02 -12.11,2.66 19.64,8.36 6.73,1.21 19.76,1.68 22.27,2.15l14.31 7.26 -0.61 130.17c-76.55,-15.75 -112.47,-51.33 -152.14,-87.27l-39.83 -71.6 -26.76 -48.07c-22.43,-146.5 -5.07,-228.56 75.92,-314.56 29.17,-30.96 73.14,-58.99 129.69,-72.09 80.09,-18.56 111.65,-0.23 178.44,18.89z"/>
   <path class="fil0 str0" d="M1531.98 1551.65l-5.54 -0.29 -1.13 -19.85c-19.52,-3.29 -30.64,-0.6 -47.29,-10.67 -21,-12.71 -19.07,-20.84 -32.45,-32.61l-5.51 22.27c-1.05,6.89 -1.04,13.7 -1.81,19 -1.35,9.14 0.59,-0.43 -1.35,8.09 -1.89,8.33 -2.07,7.65 -3.45,9.79l-1.49 -25.03c-0.59,-42.01 -19.75,-78.14 -65.6,-62.5l-3.8 -6.5c-15.88,-23.79 -15.34,-5.82 -46.33,-16.9 -20.58,-7.36 -24.05,-21.25 -35.8,-37.19l-4.47 12.48 -8.61 -9.97c-15.14,-12.93 -30.62,-54.12 -70.36,-29.23 -12.17,-15.74 -5.48,-230.43 -5.57,-248.99l0.61 -130.17c0.63,-14.7 1.76,-30.34 5.11,-45.03 2.13,-9.36 8.58,-24.86 12.42,-37.67 34.06,-42.83 52.98,-69.35 117.59,-36.74 12.51,13.46 18.02,23.64 29.92,37.32l0.13 -251.2 -0.46 -111.21c0.16,-62.35 -10.11,-137.62 17.49,-190.27 27.54,-52.52 84.21,-79.17 130.25,-25.01 38.03,44.74 33.83,107 33.83,173.88l0.04 994.97c0.29,31.78 4.1,35.75 -6.37,49.23z"/>
   <path class="fil0 str0" d="M1765.64 1669.71c-17.64,-16.01 -7.03,-17.52 -32.72,-29 -12.19,-5.56 -22.63,-6.13 -33.44,1.4 -7.15,-6.63 -5.18,-0.41 -6.68,-12.71 -1.36,-28.03 -20.79,20.59 -75.9,-45.69l-11.87 14.47 -5.62 0.21c-3.15,-21.43 -2.73,-20.5 -14.49,-33.8 -8.01,-124.97 -0.79,-275.09 -0.79,-402.8 0,-52.62 -6.41,-150.97 8.76,-194.38 40.71,-116.52 173.35,-108.54 173.01,86.82 -0.37,200.2 4.32,420.27 -0.26,615.48z"/>
   <path class="fil0 str0" d="M1327.15 873.94c-64.61,-32.61 -83.53,-6.09 -117.59,36.74 -59.13,4.34 -32.49,-11.73 -56.59,-37.54 -14.58,-15.61 -15.58,-0.93 -17.68,-29.44 -3.11,-42.06 -26.86,-104 53.8,-150.38l24.54 -6.65c24.42,-1.32 57.59,-2.79 74.07,11.21 30.78,26.16 21.46,9.46 32.28,35.59l19.79 43.21c19.29,63.8 -12.53,72.94 -12.62,97.26z"/>
   <path class="fil0 str0" d="M884.44 1916.16l-29.64 -0.18 0.03 -423.6c-18.91,12.28 -10.39,19.78 -24.56,27.07 -10.1,-59.6 26.31,-39.03 24.06,-83.16 -23.94,10.32 -22.88,20.11 -39.23,38.65 -22.17,-44.89 35.16,-66.58 39.8,-71.14l-0.77 -20.59c-14.54,1.64 -22.58,5.11 -32.27,13.9l-25.1 30.61c-3.77,-45.94 11.13,-74.96 58.12,-63.53l-0.07 -104.47 29.44 -0.19 0.19 656.63z"/>
   <path class="fil0 str0" d="M244.42 1820.81c-5.65,-11.4 -4.3,-24.49 1.05,-35.89 -0.43,11.67 -0.84,23.73 -1.05,35.89z"/>
   <path class="fil0 str0" d="M456 1778.72c-4.24,1.56 -8.31,3.64 -12.15,6.79 -12.99,10.65 -12.09,20.17 -22.66,28.87l0 -36.97c7.49,-19.21 21.65,-27.32 34.81,-26.73l0 28.04z"/>
   <path class="fil0 str0" d="M628.54 1580.25l2.38 -2.06c14.92,-13.36 12.68,-17.06 25.03,-30.06 0.55,-0.58 1.77,-1.63 2.71,-2.38 1.53,26.91 1.53,45.65 -18.28,59.89 -4.06,2.92 -7.85,4.92 -11.37,6.22l-0.47 -31.61z"/>
   <path class="fil0 str0" d="M715.98 1475.51c-14.59,13.4 -31.79,3.82 -51.36,33.37 -2.18,3.29 -3.15,5.97 -5.07,8.4 -6.04,7.62 -0.86,4.04 -8.83,7.3 -3.72,-26.15 0.34,-45.04 17.33,-57.45 24.45,-17.86 33.12,-5.24 47.93,8.38z"/>
   <path class="fil0 str0" d="M752.09 1543.98c20.21,-20.66 21.71,8.52 58.33,-41.81 6.98,-9.58 0.84,-3.37 9.41,-9.86 1.37,25.14 -2.89,48.69 -17.84,59.76 -23.37,17.33 -33.01,2.58 -49.9,-8.09z"/>
   <path class="fil0 str0" d="M445.96 1679.94c-10.56,0.61 -18.53,1.78 -24.77,3.52l0 -25.93c9.33,1.55 18.32,8.42 24.77,22.41z"/>
   <path class="fil0 str0" d="M456 1729.4c-10.85,2.62 -21.13,3.13 -34.81,17.69l0 -35.98c11.56,-6.77 25.1,-5.04 34.81,3.3l0 14.99z"/>
   <path class="fil0 str0" d="M734.26 1524.8c-25.58,23.8 -3.17,-19.13 -58.03,45.79l-5.44 5.42c-3.92,-48.51 21.63,-92.77 63.47,-51.21z"/>
   <path class="fil0 str0" d="M756.6 1568.95c-8.65,7.58 3.28,1.24 -9.37,5.25 -14.52,4.59 -15.41,-1.11 -31.09,12.85l-27.49 33.34c-4.87,-56.57 30.94,-89.78 67.95,-51.44z"/>
   <path class="fil0 str0" d="M435.86 1645.3c8.6,-6.25 14.17,-5.85 20.14,-6.69l0 23.4c-6.56,-2.67 -13.38,-8.05 -20.14,-16.71z"/>
   <path class="fil0 str0" d="M184.93 1892.31c13.82,-6.99 25.02,-3.05 40.23,-16.29 8.79,-7.63 12.31,-16.61 19.21,-25.98 0.19,12.06 0.69,23.95 1.67,35.34 -12.66,28.66 -46,39.97 -61.11,6.93z"/>
   <path class="fil0 str0" d="M173.48 1873.79c-14.26,11.55 -19.54,-0.78 -39.77,18.27 -8.69,8.19 -16.44,23.52 -25.57,31.31 -7.64,-39.58 9.58,-67.75 49.04,-66.28l16.3 16.7z"/>
   <path class="fil0 str0" d="M737.92 1497.91c12.2,-9.09 21.33,-4.97 38,-16.68 13.55,-9.5 15.04,-19.64 25.74,-31.5 16.61,38.3 -33.71,94.99 -63.74,48.18z"/>
   <path class="fil0 str0" d="M629.3 1632.9c5.68,-1.6 12.08,-3.91 19.86,-9.68 9.34,-6.92 7.79,-6.34 12.52,-14.07 1.98,-3.23 2.51,-5.88 4.74,-9.07 7.49,-10.75 1.09,-3.75 10.09,-10.15 2.94,46.42 -22.07,75.93 -46.92,66.95l-0.29 -23.98z"/>
   <path class="fil0 str0" d="M716.68 1449.32c14.37,-14.89 18.24,-0.6 40.58,-18.06 5.57,-4.36 9.02,-7.99 13.14,-13.8l11.72 -17.07c0.6,-0.72 1.79,-1.92 2.75,-2.83 3.49,56.15 -32.49,90.1 -68.19,51.76z"/>
   <path class="fil0 str0" d="M627.51 1511.54c0.33,-0.67 0.75,-1.45 1.38,-2.48 1.51,-2.51 2.15,-3.74 4.03,-6.38l5.44 -6.39c3.66,20.9 -1.33,39.17 -10.31,51.53l-0.54 -36.28z"/>
   <path class="fil0 str0" d="M169.55 1851.97c6.86,-11.88 24.42,-15.54 35.13,-23.43 15.05,-11.11 9.87,-20.04 23.32,-33.64 17.52,32.82 -21.54,90.34 -58.45,57.07z"/>
   <polygon class="fil0 str0" points="929.97,1913.86 899.88,1916.44 899.83,1259.72 929.79,1260.74 "/>
   <path class="fil0 str0" d="M1431.96 1522.35c-10.44,1.24 -14.66,-15.48 -28.65,-25.52 -14.21,-10.18 -30.6,-15.11 -53.4,-14.17 7.39,-24.89 16.35,-7.42 8.5,-25.08 -8.87,-2.99 2.21,-2.57 -8.37,2.01 -41.41,17.89 -69.39,-0.52 -74.08,-47.85l4.47 -12.48c11.75,15.94 15.22,29.83 35.8,37.19 30.99,11.08 30.45,-6.89 46.33,16.9l3.8 6.5c45.85,-15.64 65.01,20.49 65.6,62.5z"/>
   <path class="fil0 str0" d="M1526.44 1551.36l-4.95 -8.2c-11.71,15.13 -30.71,19.62 -51.93,8.62 -22.15,-11.5 -18.23,-22.16 -29.5,-41.28l5.51 -22.27c13.38,11.77 11.45,19.9 32.45,32.61 16.65,10.07 27.77,7.38 47.29,10.67l1.13 19.85z"/>
   <path class="fil0 str0" d="M1692.8 1629.4c-25.17,28.55 -62.56,26.44 -81.03,-18.48 -4.96,-12.07 2.95,-3.26 -6.74,-12.74l11.87 -14.47c55.11,66.28 74.54,17.66 75.9,45.69z"/>
   <path class="fil0 str0" d="M1267.35 1401.77l-3.59 32.76c-14.66,-12.93 -31.37,-47.27 -80.03,-41.4 2.24,-11.42 6.47,-13 13.26,-20.59 39.74,-24.89 55.22,16.3 70.36,29.23z"/>
   <path class="fil0 str0" d="M2097.58 1857.46c0.1,4.52 0.71,7.77 -0.18,12.56 -3.31,17.96 9.97,-8.9 -5,13.75 -21.11,-24.09 -26.23,-43.27 -77.46,-39.81 6.37,-15.05 5.58,-15.25 19.21,-22.25 30.36,-20.51 54.12,13.83 63.43,35.75z"/>
   <path class="fil0 str0" d="M2025.49 1811.14c-13.36,10.76 -30.32,24.43 -55.71,11.38 -23.36,-12 -21.91,-29.57 -29.95,-54.39l8.95 -9.96c11.78,28.94 32.27,47.22 75.67,42.22l1.04 10.75z"/>
   <path class="fil0 str0" d="M1025.75 1281.66c43.09,-7.47 61.74,19 60.31,62.32 -19.2,-13.53 -16.83,-33.29 -66.04,-40.54 1.04,45.14 4.05,15.36 32.72,37.61 13.17,10.23 19.63,29.6 16.42,53.11 -18.78,-9.98 -12.77,-24.23 -49.14,-36.99 1.31,37.05 5.42,16.87 22.66,38.8 9.04,11.49 12.98,29.21 5.48,43.09 -14.66,-14.74 -6.34,-18.27 -27.66,-25.91l0.15 501.6 -30.94 1.37 0.01 -655.88 27.06 -0.48c8.85,17.7 -7.37,-16.08 3.33,10.14l5.64 11.76z"/>
   <polygon class="fil0 str0" points="976.3,1915.47 944.98,1915.95 945.05,1260.22 975.9,1259.94 "/>
   <path class="fil0 str0" d="M1765.64 1669.71l-3.07 34.26c-4.93,-2.77 -4.21,-1.31 -8.51,-6.71 -37.58,-47.37 -38.88,-23.6 -70.77,-38 9.73,-21.4 19.95,-21.19 49.63,-18.55 25.69,11.48 15.08,12.99 32.72,29z"/>
   <path class="fil0 str0" d="M1554.59 1708.36c-25.06,-17.12 -16.02,-38.18 -79.79,-40.17 17.28,-49.11 98.85,-15.25 79.79,40.17z"/>
   <path class="fil0 str0" d="M1406.7 1573.95c-25.14,-19.42 -13.86,-38.54 -78.79,-41.47 16.95,-50.35 102.11,-10.59 78.79,41.47z"/>
   <path class="fil0 str0" d="M1433.45 1547.38c10.39,24.36 33.27,38.66 70.48,37.05 -14.34,40.81 -87.94,32.3 -80.39,-42.53 14.19,5.7 1.69,-1.27 9.91,5.48z"/>
   <path class="fil0 str0" d="M1318.68 1540.81c-19.98,52.46 -103.56,4.7 -77.8,-42.35 14.96,15.26 5.01,16.08 28.02,29.63 15.81,9.32 28.58,10.55 49.78,12.72z"/>
   <path class="fil0 str0" d="M1720.42 1798.62l-7.05 -6.73c-40.12,-42.67 -33.23,-23.87 -66.93,-36.73 -0.85,-0.33 -2.26,-1.09 -3.3,-1.79 30.45,-45.49 96.67,-0.55 77.28,45.25z"/>
   <path class="fil0 str0" d="M1890.19 1888.93c-23.63,-7.6 -6.81,-10.39 -30.87,-28.03 -13.63,-10 -29.64,-12.9 -50.85,-11.56 23.63,-47.12 86.08,-24.83 81.72,39.59z"/>
   <path class="fil0 str0" d="M1912.31 1739.1c15.29,12.32 9.69,15.29 20.04,27.63 -0.16,0.89 -0.56,17.48 -5.78,26.51 -25.13,-23.22 -12.01,-31.25 -62.72,-40.25l-14.31 -4.09c15.45,-24.9 35.08,-24.62 62.77,-9.8z"/>
   <path class="fil0 str0" d="M1572.52 1663.86c-28.99,-25.95 -12.3,-30.27 -62.78,-40.12l-14.46 -4.82c31.6,-48.43 99.71,3.85 77.24,44.94z"/>
   <path class="fil0 str0" d="M1485.35 1629.88c-24.5,52.59 -100.39,7.51 -78.65,-41.53 16.21,12.73 2.82,15.13 28.05,29.37 14.22,8.03 29.44,12.2 50.6,12.16z"/>
   <path class="fil0 str0" d="M1389.84 1587.57c0.31,3.44 1.9,13.63 1,17.58 -3.28,14.46 0.67,7.25 -9.26,15.03 -4.82,-27.69 -35.63,-42.96 -73.13,-41.6 7.27,-15.36 21.01,-26.87 43.94,-22.78 20.53,3.67 27.6,17.33 37.45,31.77z"/>
   <path class="fil0 str0" d="M1837.17 1764.57c-19.05,50.99 -93.6,17.08 -79.44,-41.27 26.42,19.12 21.29,44.44 79.44,41.27z"/>
   <path class="fil0 str0" d="M1584.92 1564.59c11.76,13.3 11.34,12.37 14.49,33.8l-9.25 16.71c-10.92,-27.93 -32.81,-44.15 -74.36,-42.5l16.18 -20.95c28.5,-4.59 36.66,-2.11 52.94,12.94z"/>
   <path class="fil0 str0" d="M1669.98 1677.19c-18.13,39.83 -87.84,25.22 -79.94,-45.59 4.92,4.02 2.89,1.78 7.51,6.96 2.29,2.55 6.3,8.14 7.95,10.08 27.15,32.02 44.19,20.74 64.48,28.55z"/>
   <path class="fil0 str0" d="M1909.03 1845.04c-23.67,-12.47 -19.97,-44 -81.93,-40.99 5,-11.81 7.12,-17.47 20.94,-21.82 28.99,-9.17 63.44,8.52 60.99,62.81z"/>
   <path class="fil0 str0" d="M2003.7 1854.69c-23.04,44.68 -84.06,29.08 -81.77,-40.75 14.97,6.93 3.42,-1 15.63,13.62 17.21,20.63 32.33,29.45 66.14,27.13z"/>
   <path class="fil0 str0" d="M1817.28 1811.64c-15.68,43.49 -92.91,20.68 -78.58,-44.03 18.12,15.2 3.92,16.73 30.16,31.29 23.64,13.11 28.65,7.08 48.42,12.74z"/>
   <path class="fil0 str0" d="M1240.88 1483.79l-6.76 -6.13c-1.96,-2.18 -3.49,-4.55 -5.86,-7.36 -21.53,-25.6 -35.56,-27.3 -66.42,-27.44 28.66,-52.81 96.96,-7.83 79.04,40.93z"/>
   <path class="fil0 str0" d="M1143.34 1449.53c-12.63,41.33 -82.49,36.07 -81.74,-38.54 8.36,3.35 3.99,0.77 9.42,5.36 12.91,10.95 24.71,40.51 72.32,33.18z"/>
   <path class="fil0 str0" d="M1160.96 1403.8c-14.33,50.47 -94.23,23.56 -80.03,-38.95 20.63,21.26 32.35,46.91 80.03,38.95z"/>
   <path class="fil0 str0" d="M1742.82 1754.8c-28.22,-12.33 -14.82,-44.14 -82.07,-40.5 20.04,-45.52 85.35,-27.53 82.07,40.5z"/>
   <path class="fil0 str0" d="M1649.87 1726.48c-33.95,41.58 -95.12,-1.39 -77.35,-47.71 3.71,2.52 2.26,0.31 6.45,5.68 10.11,12.97 2.87,13.2 24.31,24.69 29.99,16.07 32.01,5.41 46.59,17.34z"/>
   <path class="fil0 str0" d="M1223.66 1530.39c-8.16,-5.35 -2.16,-0.22 -8.33,-6.68 -17.78,-18.56 -26.13,-39.58 -73.29,-34.61 6.7,-14.12 7.46,-11.64 16.71,-22.54 46.38,-5.78 68.47,17.97 64.91,63.83z"/>
   <path class="fil0 str0" d="M1336.85 1497.91l-14.79 17.35c-41.22,5.66 -78.13,-16.19 -63.26,-61.5 14.62,9.65 9.59,15.66 28.8,28.9 7.89,5.44 12.4,7.81 21.39,9.9l27.86 5.35z"/>
   <path class="fil0 str0" d="M1181.85 1353.78c-19.68,55.15 -99.47,9.56 -79.91,-38.94l12.19 14.06c20.47,26.02 35.94,26.22 67.72,24.88z"/>
   <path class="fil0 str0" d="M1791.12 1682.45c6,13.06 7.46,11.36 18.88,21.93 14.97,6.83 32.5,12.6 41.84,22.1 -37.12,32.15 -78.99,-3.29 -74.06,-54.92 1.01,0.82 2.61,0.71 3.08,2.4l10.26 8.49z"/>
   <path class="fil0 str0" d="M2097.58 1857.46c-9.31,-21.92 -33.07,-56.26 -63.43,-35.75 -14.26,-3.42 -7.1,5 -8.66,-10.57l-1.04 -10.75c-43.4,5 -63.89,-13.28 -75.67,-42.22l-8.95 9.96 -7.48 -1.4c-10.35,-12.34 -4.75,-15.31 -20.04,-27.63 -24.48,-20.04 -23.35,-6.05 -51.67,-13.93 -10.15,-2.82 -9.02,-5.15 -23.8,-11.17 -9.1,-3.69 -16.22,-7.33 -26.84,-9.62 -11.42,-10.57 -12.88,-8.87 -18.88,-21.93 23.46,-42.97 46.18,-72.16 92.98,-92.65 97.51,-42.7 201.91,14.2 231.7,113.29 15.69,52.22 10.17,118.6 -18.22,154.37z"/>
   <g>
    <path class="fil1 str1" d="M149.7 1308.84c25.08,0 44.17,-12.72 56.65,-26.89 16.48,-18.7 16.59,-37.27 16.46,-70.56l-0.13 -386.48c0.03,-20.13 3.18,-23.71 3.71,-41.53 1.07,-35.49 -7.68,-76.69 10.33,-76.69 17.06,0 10.44,39.53 10.44,73.09l0 946.73c0,16.73 -0.9,36.88 -1.69,58.41l-0.02 0.52 0 0.03 -0.02 0.55 -0.02 0.54 -0.02 0.55 -0.02 0.55 -0.02 0.55 -0.02 0.55 -0.02 0.55 -0.01 0.22 -0.01 0.34 -0.02 0.55 -0.02 0.55 -0.02 0.55 -0.02 0.56 -0.02 0.55 -0.02 0.56 -0.02 0.46 0 0.09 -0.02 0.56 -0.03 1.11 -0.02 0.56 -0.02 0.55 -0.02 0.56 -0.02 0.56 -0.01 0.16 -0.01 0.4 -0.01 0.56 -0.02 0.56 -0.02 0.56 -0.02 0.56 -0.02 0.56 -0.01 0.56 -0.02 0.41 0 0.15 -0.02 0.56 -0.01 0.56 -0.02 0.57 -0.02 0.56 -0.01 0.56 -0.02 0.57 -0.02 0.56 0 0.1 -0.01 0.46 -0.02 0.57 -0.01 0.56 -0.02 0.57 -0.02 0.56 -0.01 0.57 -0.01 0.56 -0.01 0.36 -0.01 0.21 -0.01 0.57 -0.02 0.56 -0.01 0.57 -0.03 1.13 -0.01 0.57 -0.01 0.57 0 0.04 -0.02 0.53 -0.01 0.57 -0.01 0.57 -0.01 0.56 -0.03 1.14 -0.01 0.57 0 0.29 -0.01 0.28 -0.01 0.57 -0.01 0.57 -0.01 0.57c-0.17,9.74 -0.22,19.54 -0.05,29.23l0.01 0.57 0.01 0.56 0.14 6.2 0.01 0.04c1.21,43.08 6.98,83.08 24.42,104.88 14.47,17.98 35.56,27.13 57.44,28.75l14.35 0c41.02,-2.99 80.44,-31.3 80.44,-76.57l0 -100.09 0 -36.97 0 -30.32 0 -35.98 0 -27.65 0 -25.93 0 -428.75 34.81 0 0 409.83 0 23.4 0 52.4 0 14.99 0 21.28 0 28.04 0 128.79c0,50.74 37.49,79.61 77.41,83.53l18.72 0c19.79,-1.95 38.83,-10.19 52.81,-25.09 40.79,-43.46 25.09,-158.37 25.09,-232.47 0,-26.48 -0.18,-52.51 -0.47,-78.33l-0.02 -1.89 -0.02 -1.89 -0.02 -1.89 -0.02 -1.89 -0.02 -1.88 -0.03 -1.89 -0.02 -1.88 -0.02 -1.89 -0.03 -1.88 -0.02 -1.88 -0.02 -1.88 -0.02 -1.51 -0.29 -21.04 -0.01 -0.89 -0.15 -10.52 -0.08 -5.26 -0.08 -5.25 -0.08 -5.25 -0.07 -4.44c-0.95,-61.57 -1.99,-123.16 -1.99,-187.88 0,-229.72 0,-459.44 0,-689.16 11.68,8.55 15.53,25.6 23.25,39.4 8.83,15.77 14.72,26.09 23.16,42.97 15.91,31.83 96.82,197.33 114.57,212.61 30.01,25.86 65.74,22.62 95.67,-0.04 14.06,-10.65 25.87,-20.16 39.24,-30.37l170.07 -136.24c92.69,-73.04 -1.15,-187.64 -92.49,-113.36l-115.9 92.93c-10.42,8.2 -11.7,10.7 -24.37,17.4 -4.57,-19.62 -30.44,-63.83 -40.76,-88.02 -12.38,-29.02 -28.99,-58.3 -42.77,-86.01 -28.56,-57.44 -67.21,-107.9 -153.15,-107.9l-355.02 0c-48.86,0 -68.68,6.29 -102.19,23.12 -23.57,11.84 -35.33,25.61 -50.21,43.76 -49.34,60.17 -35.56,158.46 -35.56,256.82 0,42.93 -0.05,85.86 0,128.78 0.06,48.61 -9.53,214.84 -0.94,251.55 8.27,35.32 36.35,58.23 70.55,58.23z"/>
   </g>
   <path class="fil0" d="M292.41 344.7c0,68.46 24.3,119.46 89.43,147.26 14.34,6.12 42.24,12.65 59.93,12.19 45.49,-1.18 77.36,-18.89 102.15,-43.68 57.48,-57.49 57.9,-145.89 6.95,-203.67 -24.53,-27.82 -60.21,-43.93 -96.53,-47.84l-34.57 0c-17.67,1.94 -34.67,6.91 -49.73,14.98 -17.52,9.39 -23.52,16.26 -36.75,29.38 -20.9,20.71 -40.88,51.65 -40.88,91.38zm-142.71 964.14c25.08,0 44.17,-12.72 56.65,-26.89 16.48,-18.7 16.59,-37.27 16.46,-70.56l-0.13 -386.48c0.03,-20.13 3.18,-23.71 3.71,-41.53 1.07,-35.49 -7.68,-76.69 10.33,-76.69 17.06,0 10.44,39.53 10.44,73.09l0 946.73c0,67.45 -14.61,190.53 21.8,235.78 14.47,17.98 35.56,27.13 57.44,28.75l14.35 0c41.02,-2.99 80.44,-31.3 80.44,-76.57l0 -685.69 34.81 0 0 678.73c0,50.74 37.49,79.61 77.41,83.53l18.72 0c19.79,-1.95 38.83,-10.19 52.81,-25.09 40.79,-43.46 25.09,-158.37 25.09,-232.47 0,-115.85 -3.48,-223.28 -3.48,-341.11 0,-229.72 0,-459.44 0,-689.16 11.68,8.55 15.53,25.6 23.25,39.4 8.83,15.77 14.72,26.09 23.16,42.97 15.91,31.83 96.82,197.33 114.57,212.61 30.01,25.86 65.74,22.62 95.67,-0.04 14.06,-10.65 25.87,-20.16 39.24,-30.37l170.07 -136.24c92.69,-73.04 -1.15,-187.64 -92.49,-113.36l-115.9 92.93c-10.42,8.2 -11.7,10.7 -24.37,17.4 -4.57,-19.62 -30.44,-63.83 -40.76,-88.02 -12.38,-29.02 -28.99,-58.3 -42.77,-86.01 -28.56,-57.44 -67.21,-107.9 -153.15,-107.9l-355.02 0c-48.86,0 -68.68,6.29 -102.19,23.12 -23.57,11.84 -35.33,25.61 -50.21,43.76 -49.34,60.17 -35.56,158.46 -35.56,256.82 0,42.93 -0.05,85.86 0,128.78 0.06,48.61 -9.53,214.84 -0.94,251.55 8.27,35.32 36.35,58.23 70.55,58.23z"/>
  </g>
 </g>
</svg>
