<?xml version="1.0" encoding="UTF-8"?>
<!DOCTYPE svg PUBLIC "-//W3C//DTD SVG 1.1//EN" "http://www.w3.org/Graphics/SVG/1.1/DTD/svg11.dtd">
<!-- Creator: CorelDRAW 2017 -->
<svg xmlns="http://www.w3.org/2000/svg" xml:space="preserve" width="80mm" height="80mm" version="1.1" style="shape-rendering:geometricPrecision; text-rendering:geometricPrecision; image-rendering:optimizeQuality; fill-rule:evenodd; clip-rule:evenodd"
viewBox="0 0 8000 8000"
 xmlns:xlink="http://www.w3.org/1999/xlink">
 <defs>
  <style type="text/css">
   <![CDATA[
    .str0 {stroke:#FEFEFE;stroke-width:7.62;stroke-miterlimit:22.9256}
    .fil3 {fill:#FEFEFE}
    .fil1 {fill:#FEFEFE}
    .fil0 {fill:#0067C5}
    .fil2 {fill:#201E1E;fill-rule:nonzero}
   ]]>
  </style>
 </defs>
 <g id="Capa_x0020_1">
  <metadata id="CorelCorpID_0Corel-Layer"/>
  <g id="_1697751143232">
   <path class="fil0" d="M1248.05 6233.04c0,18.33 5.52,23.86 23.85,23.86l5456.2 0c18.33,0 23.85,-5.53 23.85,-23.86l0 -3491.64c0,-289.68 -34.66,-398.13 -100.1,-623.67 -26.96,-92.87 -98.19,-254.59 -146.8,-338.38l-93.95 -152.62c-68.53,-98.89 -137.6,-187 -221.87,-271.26 -203.98,-203.98 -362.48,-320.99 -648.87,-448.72 -29.45,-13.13 -59.34,-22.54 -85.94,-33.36 -159.47,-64.94 -429.63,-120.4 -619.29,-120.4l-3587.08 0 0 5480.05z"/>
   <path class="fil1" d="M4021.92 3669.41l-72.34 130.67c-14.46,-45.69 -8.19,-72.51 -27.56,-119.02l-46.48 -94.68c-4.7,-67.02 -268.78,-614.61 -340.57,-744.09 -129.35,-233.28 -263.93,-459.9 -424.17,-667.78 -46.48,-60.29 -301.86,-363.34 -349.35,-393.98 -32.61,39.66 -40.77,97.46 -22.65,156.11 29.58,95.75 93.95,168.17 158.56,241.28l15.45 21.43c11.59,17.2 2.45,7.95 18.66,28.71 30.09,38.51 71.95,58.5 105.52,87.18l20.8 27.7c51.65,95.98 133.97,158.75 193.59,253.15 51.91,82.19 108.6,171.67 142.29,259.58l32.82 63.45c34.57,67.96 62.66,125.57 129.33,160.52 73.94,38.76 76.49,10.47 108.42,97.71 44.81,122.43 190.7,472.94 199.19,594.74 -37.13,-29.21 -272.93,-409.46 -309.67,-480.13l-336.53 -449.21c-104.35,-123.45 -700.54,-752.29 -809.23,-770.89 -7.34,91.92 43.43,138.52 86.97,209.32l45.05 63.74c27.97,41.15 41.11,73.5 83.96,108.23l73.49 71.64c15.66,19.9 55.94,61.28 77.94,78.68 64.82,51.24 93.23,50.31 165.84,134.16 22.43,25.89 32.97,56.7 57.53,88.51 40.23,52.11 61.31,38.71 85.99,68.58 36.84,44.57 -5.52,42.22 54.09,92.74l103.58 115.46c61.97,88.54 79.39,80.59 113.05,123.22 61.9,78.41 86.78,98.4 190.46,111.41 62.4,134.02 263.71,465.88 295.26,573.48 -57.95,-31.52 -350.6,-378.65 -399.27,-450.72 -93.12,-137.94 -499.23,-504.27 -643.18,-621.18 -226.03,-183.55 -224.88,-196.28 -482.66,-357.23 -65.75,-41.05 -199.18,-147.23 -272.31,-154.25 31.77,142.14 170.85,222.22 242.57,310.04 108.58,132.96 93.95,70.36 172.47,150.35 50.74,51.69 85.51,49.85 127.7,112.79 59.2,88.31 107.14,84.78 149.62,107.65 18.32,9.87 8.38,23.16 28.33,37.58 37.35,-17.41 31.79,-41.08 78.29,-53.08 -13.58,39.94 -29.32,42.61 -48.1,83.53 36.66,43.93 48.54,46.43 92.47,77.58 54.66,38.74 40.81,72.26 121.99,54.22 -18.84,62.75 -7.06,47.52 44.27,92.34 44.26,38.66 54.68,56.8 95.03,32.25 18.53,33.62 3.35,33.39 40.33,61.02l70.4 49.15c61.31,37.85 85.73,43.3 169.88,41.49 39.24,85.29 117.87,171.17 175.95,249.76 34.27,46.35 163.87,219.37 178,258.52 -73.6,-43.93 -391.41,-342.36 -453.55,-413.68 -97.92,-112.37 -355.75,-303.43 -469.03,-396.29 -72.12,-59.13 -418.7,-285.46 -523.03,-338.59 -93.22,-47.47 -520.04,-272.67 -582.59,-284.71 -43.24,74.63 0.97,107.53 49.69,151.85 17.73,16.13 -1,3.46 24.92,23.57 13.04,10.12 33.47,19.44 45.5,25.47l116.64 61.14c45.17,14.01 44.66,104.01 181.69,159.03 2.79,1.13 6.04,2.08 8.75,3.27 3.43,1.48 13.05,5.88 16.14,7.63 4.22,2.39 16.97,12 20.27,14.62 12.2,9.63 5.36,4.86 18.65,16.34 31.65,27.36 82.31,85.43 119.97,50.71 2.6,2.83 5.87,3.65 6.91,9.32l19.2 34.2c0.73,1.52 1.66,5.28 3.08,7.6 28.36,-21.39 46.3,-44.06 71.93,-60.53 -19.64,34.98 -28.85,42.46 -41.54,80.18 21.51,-7.33 10.92,-8.61 25.27,-19.68 48.16,-37.18 -3.41,-13.72 58.22,-31.51 -20.31,58.68 -28.01,39.1 -39.15,82.85 123.56,85.54 83.59,13.8 155.43,3.69l-42.47 65.3c81.27,4.77 17.91,-8.85 89.64,-35.79 -12.8,61.1 -18.11,28.29 -26.73,73.53 37.68,27.41 77.9,41.27 113.92,64.24 84.52,53.89 46.87,55.99 122.18,23.98 -12.8,75.83 -3.76,57.98 57.81,96.8 78.46,49.47 30.74,27.93 108.51,33.81 -9.87,43.12 -6.96,18.99 6.81,41.43 31.17,5.35 52.46,3.57 60.7,8.59 25.82,15.74 32.27,74.58 205.33,47.61 61.01,91.11 430.83,448.11 458.08,521.9 -166.89,-68.54 -431.19,-336.41 -611.37,-435.98l-404.26 -240.41c-279.53,-156.52 -567.18,-272.52 -855.68,-410 -47.17,-22.47 -258.6,-130.77 -281.49,-116.01 -20.53,23.34 -6.84,-4.56 -4.33,23.23 10.09,111.58 52.07,134.42 128.87,195.76 142.98,114.2 102.6,29.81 205.47,104.99 15.76,11.51 21.06,14.26 36.96,22.67 74.05,39.18 41,54.02 114.48,18.65 -6.44,58.15 -13.42,26.66 7.86,61.8 38.11,2.42 6.03,5.56 37.54,-4.89 1.22,-0.4 29.7,-14.94 36.73,-18.31l-16.9 60.2c45.67,-2.51 54.23,1.2 81.46,-15.24l67.69 48.36c68.34,24.14 80.02,-14.78 116.21,-76.35l-44.27 95.8c33.49,41.76 58.83,69.1 106.63,47.3l11.73 43.71c41.89,0.81 17.75,-1.58 62.93,-20.07 -6.7,92.92 15.4,72.63 90,113.84 15.37,8.49 48.62,35.91 67.44,41.79 29,9.05 33.92,-2.89 43.03,-10.4l20.13 -22.26c-3.74,83.58 -8.32,65.48 157.05,121.73 328.67,111.81 232.07,-27.32 345.94,68.64 67.25,56.68 369.03,298.37 397.58,349.41l-489.42 -240.21c-72.38,-42.35 -167.95,-75.07 -249.18,-109.13 -88.59,-37.13 -167.07,-69.8 -261.05,-107.86 -167.44,-67.81 -381.54,-104.77 -566.65,-157.24 -75.27,-21.34 -568.71,-95.13 -637.44,-91.56 -3.17,163.89 43.36,150.56 145.24,214.12 27.46,17.14 53.98,34.88 88.71,47.22l50.39 -42.82c2.83,36.19 -2.81,25.2 11.53,49.07 1.23,2.05 3.38,4.92 4.86,6.75 9.74,12.05 61.02,47.48 146.25,52.87 28.43,1.8 37.24,-3.36 68.42,-0.85 37.75,3.04 21.39,2.62 59.55,14.38 68.71,21.18 80.57,32.48 100.03,-16.84 30.52,39.53 44.13,71.38 98.4,15.29l8.57 19.46c22.55,37.69 49.79,68.16 108.69,9.03 16.28,21.11 13.7,27.46 35.18,35.12 12.92,-21.13 25.41,-37.34 37.66,-57.18l7.41 72.64c204.49,16.1 110.87,22.4 233.12,57.73 43.44,12.55 31.57,19.01 62.31,-19.08 -1.2,104.53 29.54,40.11 71.72,94.41l34.09 -33.26 22.76 53.18 150.48 27.56c74.16,-1.06 118.4,-53.68 143.29,-103.45 177.74,90.19 389.35,248.24 541.23,379.93 48.85,42.37 27.51,42.18 63.77,93.09 27.68,38.84 55.53,48.78 78.01,80.37l200.83 -0.27c59.23,-34.68 87.23,-107.88 115.34,-143.39 62.23,-78.62 437.94,-327.75 524.68,-380.16 72.83,51.5 96.81,88.56 201.08,67.62 87.51,-17.56 19.9,9.61 187.19,-49.46 52.19,-18.43 97.49,-50.56 151.53,-61.12l182.49 -55.26c1.72,-0.8 5.12,-2.03 6.76,-2.73 40.89,-17.37 -0.8,20.72 44.91,-42.68 2.01,2.37 4.43,3.55 5.36,7.69 5.86,26.37 35.65,24.99 52.31,17.28l188.16 -52.27c42.59,-12.49 7.87,-3.95 38.98,-17.92l53.73 1.33c37.6,10.17 26.08,14.58 72.33,6.89 50,-8.31 95.48,-23.02 129.02,-49.43 3.13,-2.47 26.09,-29.79 31.6,-12.46 15.55,48.86 285.73,-94.97 314.34,-123.4 0.95,-42.08 -11.68,-67.63 -26.5,-102.6 -171.6,0.5 -503.48,15.82 -644.62,57.46 -189.49,55.9 -375.33,89.12 -545.57,166.01 -327.98,148.13 -620.44,299.69 -941.64,467.36 41.62,-14.48 307.91,-240.24 376.26,-296.18 109.65,-89.77 50.54,-21.51 169.47,-25.22 72.06,-2.25 130.67,-59.32 191.38,-89.53l111.89 -69.24c99,-66.52 122.46,-70.84 225.15,-107.18 40.57,-14.35 38.34,-36.76 57.63,-69.43 26,22.08 10.44,24.16 53.84,27.23l4.8 -59.02c13.7,29.64 14.99,47.41 63.63,33.52 50.6,-14.46 41.56,-33.48 37.48,-85.33 3.4,1.56 7.79,1.55 9.29,6.46 1.42,4.65 6.93,4.93 8.78,6.1 40.66,25.7 13.11,9 48.63,3.63l37.21 -13.03c39.02,-17.37 84.18,-17.63 125.03,-37.96 59.18,-29.44 85.98,-5.21 149.32,-24.84 122.28,-37.88 58.43,-43.78 95.23,-104.24 11.01,11.92 6.31,6.18 17.53,23.91 8.98,14.2 8.68,17.63 17.65,31.71 72.59,-31.08 156.98,-80.49 213,-146.06 25.87,-30.27 37.81,-37.7 25.63,-93.93 -66.57,-14.16 -564.38,104.66 -613.15,129.25 -169.42,85.43 -346.71,156.99 -506.18,258.71l-692.31 457.37c-64.52,42.14 -183.6,129.9 -253.36,155.62 22.94,-38.62 93.92,-111.65 125.03,-142.09l252.55 -253.6c96.73,-106.33 41.55,-64.35 170.46,-64.49 119.45,-0.12 255.52,-107.03 341.4,-176.14l153.11 -98.72c54.77,-24.06 37.64,-8.77 76.64,-52.39l9.86 -10.41c47.71,-42.58 -9.78,12.17 16.08,-10.36 1.07,-0.93 3.96,-2.77 4.97,-3.83l19.58 -36.9c35.19,44.63 80.87,25.54 79.21,-40.62 88.4,36.15 -14.23,-30.01 71.94,6.01l-9.08 -62c33.39,36.32 4.56,23.74 45.55,35.33 21.63,-15.39 60.27,-34.9 83.78,-47.77 21.42,-11.73 -1.31,-3.41 24.76,-11.79 68.19,-21.93 166.6,-22.63 196.46,-88.37l19.94 -52.04c9.15,-16.16 9.21,-13.46 15.13,-21.45 30.59,41.69 -0.22,24.18 35.18,51.74l241.98 -194.17c43.76,-44.85 24.02,-61.18 0.91,-102.18 -32.67,1.55 -567.91,204.34 -610.06,227.79 -191.21,106.41 -711.53,463.11 -887.97,609.66 -167.5,139.14 -419.76,410.28 -591.25,498.62 41.65,-80.79 147.52,-207.7 203.5,-275.36l213.54 -269.62c129.53,-2.07 182.81,-15.51 271.57,-85.9l34.01 -25.8c1.79,-1.58 4.36,-4.04 6.09,-5.69l161.65 -140.09c87.45,-55.35 134.4,-134.4 223.71,-183.66 2.41,-1.33 5.44,-2.97 7.98,-4.2 58.05,-28.07 176.6,-56.36 149.68,-137.85 107.5,25.77 102.07,-42.03 178.89,-74.44 2.91,-1.23 6.19,-2.02 9.2,-3.09 97.12,-34.61 173.51,-113.27 241.89,-188.29 138.89,-152.37 148.07,-279.11 40.95,-219.04l-450.87 269.67c-106.65,67.69 -378.96,269.3 -471.9,355.92 -96.43,89.86 -342.26,314.37 -409.54,409.74 -44.24,62.71 -347.52,394.53 -407.01,432.6 16.8,-44.98 283.61,-502.07 333.37,-512.31 66.98,-13.78 105.14,-19.49 155.83,-68.3 45.2,-43.53 74.8,-24.36 47.8,-98.96 70.42,16.92 52.88,18.76 94.18,-36.34 44.05,-58.75 46.77,-25.87 39.21,-94.51 71.14,-1.53 55.74,-22.9 73.92,-45.6 53.84,-67.24 106.23,-57.98 71.19,-147.36 68.92,2.86 64.69,12.93 50.3,-45.1 77.79,1.72 112.14,-61.32 143.4,-122.43l51.22 -70.48c126.15,-115.76 91.52,-77.74 215.21,-169.63l43.98 -45.38c28.57,-48.68 65.14,-30.73 152.17,-155.86 1.5,-2.14 3.53,-5.11 5.05,-7.2 52.02,-71.31 96.82,-141.08 37.88,-229.2 -38.43,12.42 -371.98,311.21 -435.73,366.66 -156.75,136.32 -251.76,252.13 -398.57,409.12 -104.19,111.41 -249.11,329.44 -345.17,465.55l-170.09 241.05c-65.08,83.71 -122.32,169.25 -182.92,222.94 52.42,-173.18 167.14,-382.65 242.53,-555.85 53.42,-122.71 88.01,-8.57 198.24,-202.29 24.68,-43.39 28.37,-17.81 0.4,-57.69 59.75,4.67 53.66,-11.94 82.99,-61.59 28.42,-48.14 74.2,-80.51 85.6,-137.6 9.71,-48.62 27.18,-40.67 45.99,-70.57 21.93,-34.85 17.2,-9.99 -5.15,-56.08 86.22,-5.29 103.97,-129.64 126.64,-154.44 28.17,-30.83 6.99,22.92 21.87,-21.29 1.82,-5.42 20.82,10.17 -10.78,-48.38 74.78,8.44 60.91,-37.32 82.11,-88.01 8.84,-21.15 4.33,-7.17 30.9,-27.67 52.41,-40.42 75.54,-108.04 109.06,-157.89 17.87,-26.57 220.6,-208.2 123.37,-329.62 -51.37,19.21 -294.68,343.62 -345.5,403.45 -114.9,135.25 -483.43,800.88 -551.59,952.47 -68.3,151.89 -206.25,341.99 -258.13,488.84z"/>
   <path class="fil1" d="M3875.54 3628l46.48 94.69c19.37,46.5 13.1,73.33 27.56,119.02l72.34 -130.67c-20.94,-26.44 -3.3,-49.28 15.27,-125.84 12.95,-53.36 23.54,-94.55 39.52,-142.76l112.83 -364.81c14.61,-25.65 3.02,-11.93 24.54,-25.64 58.07,-37 54.48,-5.85 102.94,-74.48 48.01,-67.99 84.95,-152.64 113.28,-250.73 15.72,-54.42 29.39,-64.07 47.29,-123.49 14.02,-46.52 26.29,-94.19 43.39,-140.49 63.23,-171.15 74.5,-226.89 162.86,-374.24 24.53,-40.91 39.23,-74.79 59.32,-123.46 32.22,-78.01 86.65,-205.12 27.32,-275 -42.21,18.1 -8.59,-13.74 -41.97,37.03 -12.68,19.3 -19.28,39.1 -28.55,56.49l-175.1 324.03c-73.67,140.31 -126.56,324.47 -182.48,474.85 -104.4,280.75 -260.23,679.74 -349.63,964.07 -19.3,-44.46 47.61,-433.87 58.39,-516.68 18.17,-139.7 65.38,-48.76 101.18,-188.91l73.2 -528.37c5.93,-192.34 242.77,-643.94 79.95,-684.69 -255.93,760.01 -271.66,1514.58 -326.32,1687.6 -4.86,-10.46 -63.91,-824.12 -74.27,-925.79 -44.87,-440.29 -53.4,-390.76 -115.94,-742.25 -1.79,-10.01 -6.56,-42.24 -8.9,-49.58 -19,-59.69 6.66,-25.79 -33.55,-46.46 -71.6,80.5 11.89,366.74 27.83,472.27 28.88,191.26 53.97,722.81 99.48,847.46 54.55,149.41 54.13,-30.64 53.98,359 -0.02,50.64 23.23,206.21 -5.39,247.14 -53.86,-152.41 -72.07,-351.61 -121.61,-504.77 -79.2,-244.87 -247.29,-708.32 -353.07,-914.36l-160.57 -313.28c-22.03,-43.82 -23.76,-76.51 -68.35,-93.86 -40.58,34.92 -42.76,48.44 -2.02,180.79 94.86,308.15 185.23,456.32 299.61,712.8 26.36,59.12 47.61,116.4 69.21,184.84l75.95 180.87c36.51,60.74 61.62,92.54 128.04,124.87 12.21,107.81 37.9,202.8 54.78,304.52l49.79 255.05c-7.9,48.68 21.53,2.36 -18.61,33.22z"/>
   <polygon class="fil1 str0" points="6260.08,4623.08 6260.15,4511.14 3962.83,4510.97 3939.78,4511 3916.73,4511.15 1949.78,4511.22 1919.06,4510.65 1919.12,4622.92 "/>
   <path class="fil2" d="M1702.49 7236.35l0 -494.54 -201.01 0 0 -112.96 562.13 0 0 112.96 -201.01 0 0 494.54 -160.11 0zm397.72 0l0 -607.5 406.49 0 0 112.07 -254.39 0 0 123.64 242.82 0 0 112.96 -242.82 0 0 144.98 261.5 0 0 113.85 -413.6 0zm706.52 -355.78c28.61,0 49.81,-5.79 63.74,-17.2 13.79,-11.41 20.76,-28.76 20.76,-52.18 0,-22.24 -7.27,-39.43 -21.65,-51.44 -14.53,-12.01 -35.13,-17.94 -62.11,-17.94l-72.79 0 0 138.76 72.05 0zm-225.04 355.78l0 -607.5 224.15 0c82.27,0 143.05,14.97 182.63,44.77 39.58,29.8 59.3,75.31 59.3,136.83 0,63 -21.2,110.29 -63.45,141.57 -42.25,31.28 -105.84,46.84 -190.64,46.84l-59 0 0 237.49 -152.99 0zm648.7 -303.31c0,54.11 16.3,98.73 48.77,133.57 32.61,34.84 74.12,52.33 124.52,52.33 50.55,0 92.21,-17.49 124.82,-52.33 32.47,-34.84 48.78,-79.46 48.78,-133.57 0,-54.4 -16.31,-99.17 -48.78,-134.16 -32.61,-35.13 -74.27,-52.62 -124.82,-52.62 -50.4,0 -91.91,17.49 -124.52,52.62 -32.47,34.99 -48.77,79.76 -48.77,134.16zm-156.55 0c0,-45.21 8.01,-86.87 23.87,-125.26 16.01,-38.4 39.73,-72.64 71.3,-102.73 30.69,-28.91 65.53,-50.56 104.52,-64.64 38.98,-14.23 82.27,-21.35 130.15,-21.35 48.33,0 92.06,7.12 131.2,21.5 39.14,14.38 73.97,35.87 104.66,64.49 31.28,30.09 55,64.33 71.01,102.73 16.16,38.39 24.16,80.05 24.16,125.26 0,44.92 -8,86.43 -24.16,124.83 -16.01,38.39 -39.73,72.34 -71.01,101.84 -30.98,28.91 -66.12,50.7 -105.4,65.37 -39.14,14.68 -82.72,21.94 -130.46,21.94 -47.58,0 -90.72,-7.26 -129.71,-21.64 -38.99,-14.53 -73.97,-36.47 -104.96,-65.67 -31.27,-29.5 -54.99,-63.45 -71,-101.84 -16.16,-38.4 -24.17,-79.91 -24.17,-124.83zm663.67 303.31l334.29 -494.54 -306.72 0 0 -112.96 565.7 0 -331.92 490.09 330.14 0 0 117.41 -591.49 0zm784.63 0l0 -494.54 -201.01 0 0 -112.96 562.13 0 0 112.96 -201.01 0 0 494.54 -160.11 0zm397.72 0l0 -607.5 152.1 0 0 490.09 261.5 0 0 117.41 -413.6 0zm629.88 -222.36l179.37 0 -85.09 -231.26 -94.28 231.26zm-254.39 222.36l264.91 -607.5 175.37 0 236.6 607.5 -161.14 0 -43.44 -118.3 -261.79 0 -48.63 118.3 -161.88 0zm839.93 -381.73l0 381.73 -150.32 0 0 -607.5 133.27 0 325.7 362.16 0 -362.16 150.31 0 0 607.5 -119.04 0 -339.92 -381.73z"/>
   <path class="fil3" d="M3027.19 5105.79l0.22 -271.92c90.23,13.52 96.5,26.15 97.26,128.56 0.77,101.9 2.08,138.91 -97.48,143.36zm-104.22 -266.01l1.24 592.9c-24.54,-0.08 -35.77,-3.27 -52.09,5.98 20.18,7.46 206.42,8.27 226.71,0l-71.18 -7.19 -0.42 -315.08c67.53,-0.8 122.93,-9.96 162.12,-47.11 38.84,-36.83 59.47,-107.86 22.52,-168.23 -58.28,-95.21 -212.37,-80.11 -342.53,-75.46 24.97,15.34 26.61,1.51 53.63,14.19z"/>
   <path class="fil3" d="M5149.54 4835.63c91.45,3.83 95.66,36.35 96.84,134.64 1.11,93.49 -5.98,131.16 -97.47,135.3l0.63 -269.94zm-103.4 11.83l0.17 585.35c-25.61,-0.23 -36.28,-3.36 -52.92,5.85l155.76 -7.22 -0.17 -315.44c256.11,1.05 246.62,-220.25 110.54,-274.67 -61.47,-24.59 -191.87,-16.89 -269.65,-16.4l12.16 4.41c53.31,13.92 28.82,-6.98 44.11,18.12z"/>
   <path class="fil3" d="M3880.46 5008.45c43.23,-53.38 -10.05,-171.34 175.73,-171.32 -20.09,102.85 -202.39,558.05 -200.51,604.68l295.87 0.75c3.81,-37.8 7.78,-190 -2.22,-215.84 -23.69,6.97 -4.59,-19.09 -26.01,69.58 -24.85,102.84 -68.45,131.29 -169.5,134.72l208.39 -606.18 -290.07 -0.64 8.32 184.25z"/>
   <path class="fil3" d="M5815.7 4893.56c-1.01,84.28 -41.07,154.93 -78.34,196.12 -7.62,8.42 -135.8,139.67 -169.83,62.95 -28.3,-63.81 25.6,-184.02 52.4,-217.76 55.63,-70.03 101.95,-59.4 195.77,-41.31zm-31.78 187.17c-3.44,45.39 -21.42,96.6 -10.64,138.07 35.53,69.38 201.24,-62.99 178.2,-111.2 -39.25,18.75 -35.73,75.42 -101.14,70.99 -0.39,-109.74 49.9,-240.87 55.34,-336.41 -451.88,-72.66 -536.27,473.11 -306.97,385.18 41.46,-15.89 68.22,-38.77 99.77,-63.66 35.95,-28.36 53.16,-58.73 85.44,-82.97z"/>
   <path class="fil3" d="M4440 5225.77c-12.98,20.65 -14.13,195.69 0,216.98 25.34,-21.15 4.61,-57.31 46.27,-46.44 9.77,2.54 130.55,106.9 223.34,12.33 96.76,-98.6 -10.97,-230.7 -62.13,-288.73 -31.17,-35.36 -193.57,-174.96 -148.12,-255.77 29.86,-53.09 143.92,-62.45 194.64,106.34 9.14,30.41 1.29,27.7 22.13,37.77l0 -183.63c-21.83,14.58 -8.05,17.81 -23.12,43.28 -53.82,-7.15 -54.45,-53.99 -151.45,-45.03 -54.3,5.01 -98.51,43.15 -107.4,95.28 -17.96,105.33 102.29,211.35 144.25,259.1 27.05,30.78 186.59,220.16 53.11,256.68 -140.91,38.55 -161.33,-190.87 -191.52,-208.16z"/>
   <path class="fil3" d="M3530.07 4874.92c170.66,-46.24 151.96,275.77 13.28,306.96 -169.22,38.07 -154.51,-268.69 -13.28,-306.96zm38.5 -45.12c-244.1,61.23 -334.12,467.19 -56.46,396.16 85.79,-21.95 173.21,-116.21 203.41,-192.2 52,-130.83 -4.74,-239.64 -146.95,-203.96z"/>
   <path class="fil3" d="M2453.38 5033.1c6.77,-54.57 24.83,-87.64 53.01,-117.27 86.7,-91.16 193.43,18.55 77.86,90.16 -42.35,26.24 -73.94,31.47 -130.87,27.11zm239.67 62.81c-16.44,3.11 -9.66,-0.06 -26.56,19.55 -26.2,30.41 -41.97,56.26 -93.88,63.99 -78.56,11.7 -111.37,-22.19 -119.33,-96.63 92.01,-15.23 227.33,-93.8 242.4,-175.44 17.35,-93.99 -64.61,-91.03 -123.81,-67.86 -129.52,50.71 -281.1,305.02 -137.2,383.94 51.92,28.48 117.85,10.73 160.74,-13.64 38.5,-21.88 106.64,-67.53 97.64,-113.91z"/>
   <path class="fil3" d="M3335.45 5439c128.9,-112.55 267.64,102.85 421.63,-46.41 -9.66,-25.21 -24.33,-34.18 -43.76,-47.65 -44.3,15.51 -37.62,40.29 -109.03,33.83 -53.3,-4.81 -271.64,-99.29 -319.77,21.5 18.83,18.97 29.22,28.42 50.93,38.73z"/>
   <path class="fil3" d="M5498.75 5438.56c37.22,-14.33 53.45,-41.61 109.41,-36.09 35.19,3.48 77.19,20.6 110.19,28.89 37.34,9.38 77.7,18.82 119.71,10.1 51.26,-10.64 61.22,-28.15 93.21,-46.24 -13.18,-30.43 -28.9,-38.88 -55.2,-50.45 -109.52,117.19 -274.55,-103.38 -418.25,47.82 5.05,9.66 0.77,2.88 9.31,13l31.62 32.97z"/>
   <path class="fil3" d="M1936.94 4998.46c32.68,-23.15 7.25,-151.51 117.33,-169.97l0.44 593.99 101.78 -1.83 0.31 -590.63c91.89,4.54 99.27,133.21 104.67,147.42 8.48,22.36 -3.67,13.94 17.01,19.21l4.25 -178.32 -354.11 -4.19c-1.16,36.01 -6.75,145.36 5.64,179.07 0.47,1.28 1.52,3.68 2.68,5.25z"/>
   <path class="fil3" d="M2366.45 5439.76c44.93,-20.33 46.84,-43.26 112.18,-32.27 38.33,6.44 73.08,20.86 110.64,30.41 84.68,21.52 162.08,10.75 204.27,-48.77 -14.1,-12.74 -29.29,-28.18 -49.22,-39.08 -94.81,58.89 -112.69,33.84 -221.27,3.77 -104.09,-28.82 -140.62,-7.51 -205.35,43.39 18.62,22.76 20.64,25.61 48.75,42.55z"/>
  </g>
 </g>
</svg>
