<?xml version="1.0" encoding="UTF-8"?>
<!DOCTYPE svg PUBLIC "-//W3C//DTD SVG 1.1//EN" "http://www.w3.org/Graphics/SVG/1.1/DTD/svg11.dtd">
<!-- Creator: CorelDRAW 2017 -->
<svg xmlns="http://www.w3.org/2000/svg" xml:space="preserve" width="7.8738mm" height="7.8738mm" version="1.1" style="shape-rendering:geometricPrecision; text-rendering:geometricPrecision; image-rendering:optimizeQuality; fill-rule:evenodd; clip-rule:evenodd"
viewBox="0 0 787.38 787.38"
 xmlns:xlink="http://www.w3.org/1999/xlink">
 <defs>
  <style type="text/css">
   <![CDATA[
    .fil0 {fill:none}
    .fil1 {fill:black}
   ]]>
  </style>
 </defs>
 <g id="Capa_x0020_1">
  <metadata id="CorelCorpID_0Corel-Layer"/>
  <rect class="fil0" x="-0" y="-0" width="787.39" height="787.39"/>
  <g id="_2839245928688">
  </g>
  <g id="_2839245925456">
  </g>
  <g id="_2839245925936">
  </g>
  <g id="_2839245921808">
  </g>
  <g id="_2839245921680">
  </g>
  <g id="_2839245921488">
  </g>
  <g id="_2839245919632">
  </g>
  <g id="_2839245919824">
  </g>
  <g id="_2839245920592">
  </g>
  <g id="_2839245918640">
  </g>
  <g id="_2839245918832">
  </g>
  <g id="_2839245918992">
  </g>
  <g id="_2839245917712">
  </g>
  <g id="_2839245918224">
  </g>
  <g id="_2839245917168">
  </g>
  <g id="_2839245916432">
   <g>
    <path class="fil1" d="M276.86 425.98l0 73.8 -101.48 0c-25.71,0 -31.1,49.2 6.15,49.2l528.9 0c14.44,0 9.23,-18.89 9.23,-55.35 0,-50.87 -36.81,-52.12 -83.13,-55.24 -34.47,-2.33 -331.38,-35.62 -342.3,-32.14 -7.66,2.44 -17.37,11.51 -17.37,19.73z"/>
    <path class="fil1" d="M67.76 367.55l0 372.08 47.6 0c5.14,-1.21 7.75,-3.86 7.75,-9.22l0 -92.25 538.13 0 0 92.25c0,5.36 2.6,8.01 7.75,9.22l47.6 0 0 -153.75 -593.48 0 0 -209.1c0,-47.43 -55.35,-41.32 -55.35,-9.23z"/>
    <path class="fil1" d="M46.23 216.88c1.16,13.97 21.08,49.03 27.68,61.5 13.96,-3.25 135.62,-66.27 158.87,-77.9 20.78,-10.39 150.39,-78.6 160.5,-77.96 14.96,0.95 299.2,150.96 320.23,155.86l27.64 -58.44c-31.06,-16.44 -341.24,-172.19 -347.44,-172.19 -12.83,0 -327.65,164.51 -347.48,169.13z"/>
    <path class="fil1" d="M153.86 422.91c0,58.6 60.54,63.66 83.94,37.81 27.59,-30.46 13.51,-80.86 -40.89,-80.86 -20.34,0 -43.05,22.71 -43.05,43.05z"/>
   </g>
  </g>
 </g>
</svg>
