<?xml version="1.0" encoding="UTF-8"?>
<!DOCTYPE svg PUBLIC "-//W3C//DTD SVG 1.1//EN" "http://www.w3.org/Graphics/SVG/1.1/DTD/svg11.dtd">
<!-- Creator: CorelDRAW 2017 -->
<svg xmlns="http://www.w3.org/2000/svg" xml:space="preserve" width="50mm" height="50mm" version="1.1" style="shape-rendering:geometricPrecision; text-rendering:geometricPrecision; image-rendering:optimizeQuality; fill-rule:evenodd; clip-rule:evenodd"
viewBox="0 0 5000 5000"
 xmlns:xlink="http://www.w3.org/1999/xlink">
 <defs>
  <style type="text/css">
   <![CDATA[
    .fil2 {fill:#282829}
    .fil1 {fill:#E10613}
    .fil0 {fill:white}
   ]]>
  </style>
 </defs>
 <g id="Capa_x0020_1">
  <metadata id="CorelCorpID_0Corel-Layer"/>
  <path class="fil0" d="M3347.98 2867.14l150.91 13.06 18.46 189.26 -164.56 -15.47 -4.81 -186.85zm153.63 -151.43c-200.04,-14.36 -160.39,3.76 -165.18,-203.26l157.22 14.05 7.96 189.21zm-881.58 269.57c-40.2,-94.57 -34.51,-596.81 -31.08,-734.95 217.99,8.76 199.18,2.67 290.95,166.2 50.47,89.94 100.02,205.79 168.3,279.63l-5.48 -395.5 150.45 15.01 21.76 726.63 -162.94 -13.74c-28.95,-57.71 -236.75,-450.38 -296.28,-498.41l10.14 472.52 -145.82 -17.39zm997.49 -649.06c159.52,10.26 158.53,-0.02 223.89,118.95 96.33,175.38 136.05,389.41 89.53,585.06 -26.23,110.31 -79,170.34 -109.97,248.76l-168.64 -5.69c34.31,-98.1 275.08,-312.13 95.16,-734.49 -17.32,-40.65 -114.38,-198.16 -129.97,-212.59zm-1476.75 482.76c4.63,-1.57 9.83,-2.91 14.45,-4.33l57.02 -13.39 -10.43 -460.96 -116.53 -19.83 -2.41 -132 405.31 50.11 4.6 123.12c-18.54,0.05 -50.43,-0.96 -67.11,0.81 -43.09,4.52 -19.64,0.57 -44.14,10.33l11.59 459.29 113.83 23.64 1.78 119.36c-113.46,1.07 -323.47,4.09 -407.08,-48.83l39.12 -107.32zm-618.65 -691.43c123.73,6.85 419.94,22.3 512.83,66.62l4.11 133.65 -325.27 -27.32c2.34,130.5 -26.98,134.06 100.56,146.21 72.47,6.9 147.6,4.32 204.79,33.17l3.39 132.82 -301.42 -28.19 2.17 323.95 -185.66 -24.31 -15.5 -756.6zm2249.01 -163.43l-10.99 -367.41 144.7 18.53 25.7 700.52 -153.21 -15.25 -283.24 -496.14 12.57 457.08c-93.93,2.76 -141.05,14.51 -153.29,-65.98l-17.28 -660.62c248.55,35.91 170.97,-12.08 304.66,228.06 33.22,59.68 79.74,160.84 130.38,201.21zm-1033.88 -511.13c24.15,90.17 31.75,419.12 16.6,527.98 -23.3,167.42 -164.33,207.3 -341.24,170.05 -334.26,-70.35 -267.53,-390.44 -273.85,-785.53l165.67 20.04c77.7,208.02 -104.71,704.41 236.74,621.76 81.02,-101.45 33.32,-419.04 31.72,-579.43l164.36 25.13zm77.59 6.62l469.49 73.81 5.35 131.35 -301.92 -37.11 4.49 102.37c42.1,30.04 -6,10.64 64.17,27.16l217.05 34.32 1.21 131.47 -278.37 -30.32 6.77 170.16c92.61,21.52 232.05,16.94 302.83,60.01l2.25 120.92 -474.85 -55.63 -18.47 -728.51zm-1311.41 -184.86c120.95,11.16 362.52,38.57 454.95,81.25 110.55,51.06 180.75,207.16 25.49,315.71 66.98,46.28 122.72,60.26 138.93,166.85 49.48,325.43 -408.25,236.27 -603.48,188.46l-15.89 -752.27zm1595.14 -336.55c148.11,-77.57 271.53,213.99 118.46,264.97 -144.99,48.29 -255.06,-193.45 -118.46,-264.97zm-974.18 66.41c-193.94,92.34 -298,-112.91 -220.23,-221.99 73.24,-102.76 302.9,-20.75 220.23,221.99zm-1629.05 -601.68c6.29,589.41 20.37,1184.28 27.81,1772.86 2.53,199.97 -16.98,751.91 11.83,910.84 13.7,75.49 76.52,53.74 171.22,60.36 696.91,48.74 3823.07,332.95 3922.78,296.88l-96.54 -2373.9 -4037.1 -667.04z"/>
  <path class="fil1" d="M4089.89 3688.76l126.4 11.3 24.34 644.31 -120.73 -6.96 -30.01 -648.65zm-2175.32 380.62l140.63 8.36 5.66 160.74 -129.49 -0.57 -16.8 -168.53zm2161 132.12c-9.06,218.47 -277.16,121.42 -291.18,114.21 -112.36,-57.69 -201.59,-586.79 191.22,-442.76 105.08,38.53 98.39,143.87 101.44,257.62l-242.73 -11.08c1.52,222.92 69.18,52.44 241.25,82.01zm-1152.11 -185.31l-121.43 -8.83c-35.13,-87.01 18.25,-80.26 -78.1,-95.65 -45.77,76.74 -15.73,251.88 -13.47,358.15l-140.21 -4.75 -12.11 -483.59c110.76,4.89 104.75,-18.49 147.58,53.27 67.08,-77.23 130.78,-56.62 192.16,12.39l28.4 34.15c25.01,-74.97 48.78,-79.47 156.88,-74.79 68.65,2.97 140.16,15.41 176.28,52.59 60.32,62.09 49.41,334.93 42.15,441.24 -52.53,-1.5 -126.48,-19.27 -145.99,-19.56 -40.3,-0.6 -74.83,29.16 -152.09,10.71 -118.97,-28.42 -106.81,-165.12 -80.05,-275.33zm356.12 -183.28l143.79 1.23 80.51 339.62 72.06 -325.56 135.81 5.44c-14.64,125.92 -66.65,320.34 -101.63,455.43l-190.77 -1.84 -139.77 -474.32zm-1197.47 -285.37l490.31 32.91 15.13 152.96 -159.28 -8.62 10.12 533.23 -162.8 -4.57 -23.2 -531.61 -157.57 -21.22 -12.71 -153.08zm-239.42 299.58c63.99,219.9 -5.31,387.29 -240.08,383.53 -243.55,-3.91 -333.8,-55.4 -348.66,-303.74 -13.86,-232.03 -15.72,-424.21 222.58,-429.97 210.48,-5.08 368.97,48.18 371.95,250.16 -29.53,-0.63 -110.64,-1.03 -135.5,-7.96 -72.42,-20.21 -96.64,-122.51 -263.53,-54.7 -26.71,86.61 -29.19,266.49 9.76,347.59 38.18,24.08 80.52,36.41 141.97,31.39 68.92,-5.64 77.38,-17.57 79.71,-83.74 -33.45,-15.96 -21.38,-4.27 -44.82,-12.25l-56.18 -23.44 -0.51 -112.16 263.31 15.29zm-607.53 88.13c1.67,4.86 2.9,11.3 3.45,15.03 33.18,228.99 -143.02,271.07 -351,245.14 -217.16,-27.07 -231.39,-158.35 -235.12,-376.27 -4.01,-232.8 -8.45,-370.81 252.94,-363.99 224.68,5.88 329.94,53.4 324.75,293.47l-167.77 -8.63 -43.81 -106.8 -150.4 6.09c-13.16,45.8 -93.67,437.6 122.4,389.44 77.53,-17.28 45.36,-36.11 75.95,-109.85l168.61 16.37zm3402.79 80.14c22.95,-98.4 17.82,-440 -17.99,-516.65 -66.38,-36.33 -3693.32,-317.73 -4081.77,-334.24l18.8 1235.67c118.85,31.97 1677.44,75.36 1938.5,84.78 648.41,23.43 1301.49,60.32 1952.79,74.85l-20.26 -490.81 209.93 -53.6z"/>
  <path class="fil2" d="M4485.25 4463.61l-27.2 -372.19 174.3 -38.51 -147.1 410.7zm-57.23 -394.62l20.26 490.81c-651.3,-14.53 -1304.38,-51.42 -1952.79,-74.85 -261.06,-9.42 -1819.65,-52.81 -1938.5,-84.78l-18.8 -1235.67c388.45,16.51 4015.39,297.91 4081.77,334.24 35.81,76.65 40.94,418.25 17.99,516.65l-209.93 53.6zm-3932.68 -3666.06l4037.1 667.04 96.54 2373.9c-99.71,36.07 -3225.87,-248.14 -3922.78,-296.88 -94.7,-6.62 -157.52,15.13 -171.22,-60.36 -28.81,-158.93 -9.3,-710.87 -11.83,-910.84 -7.44,-588.58 -21.52,-1183.45 -27.81,-1772.86zm-140.35 4163.14l4283.05 141.89c18.27,-45.76 -1.87,-42.59 26.79,-89.93 98.04,-161.86 14.95,88.42 40.11,-49.07l-141.88 -3499.53 -59.73 -59.28c-3,-2.68 -6.5,-6.61 -9.72,-9.17 -70.52,-55.8 -1924.56,-337.01 -2022.25,-352.87 -545.19,-88.56 -1718.22,-308.41 -2185.43,-356.07l69.06 4274.03z"/>
  <path class="fil2" d="M1904.3 1910.51c-59.5,35.7 -111.42,15.59 -188.37,7.23l-16.91 -189.08c98.54,7.89 160.01,20.19 224,53.48l-18.72 128.37zm-209.69 -467.14c101.61,-0.71 135.36,4.83 185.62,59.17 11.74,128.39 -79.33,128.57 -180.02,86.17l-5.6 -145.34zm-175.29 583.65c195.23,47.81 652.96,136.97 603.48,-188.46 -16.21,-106.59 -71.95,-120.57 -138.93,-166.85 155.26,-108.55 85.06,-264.65 -25.49,-315.71 -92.43,-42.68 -334,-70.09 -454.95,-81.25l15.89 752.27z"/>
  <path class="fil2" d="M2620.03 2985.28l145.82 17.39 -10.14 -472.52c59.53,48.03 267.33,440.7 296.28,498.41l162.94 13.74 -21.76 -726.63 -150.45 -15.01 5.48 395.5c-68.28,-73.84 -117.83,-189.69 -168.3,-279.63 -91.77,-163.53 -72.96,-157.44 -290.95,-166.2 -3.43,138.14 -9.12,640.38 31.08,734.95z"/>
  <path class="fil0" d="M1842.69 3847.12l-263.31 -15.29 0.51 112.16 56.18 23.44c23.44,7.98 11.37,-3.71 44.82,12.25 -2.33,66.17 -10.79,78.1 -79.71,83.74 -61.45,5.02 -103.79,-7.31 -141.97,-31.39 -38.95,-81.1 -36.47,-260.98 -9.76,-347.59 166.89,-67.81 191.11,34.49 263.53,54.7 24.86,6.93 105.97,7.33 135.5,7.96 -2.98,-201.98 -161.47,-255.24 -371.95,-250.16 -238.3,5.76 -236.44,197.94 -222.58,429.97 14.86,248.34 105.11,299.83 348.66,303.74 234.77,3.76 304.07,-163.63 240.08,-383.53z"/>
  <path class="fil2" d="M3506.66 2261.45l-12.57 -457.08 283.24 496.14 153.21 15.25 -25.7 -700.52 -144.7 -18.53 10.99 367.41c-50.64,-40.37 -97.16,-141.53 -130.38,-201.21 -133.69,-240.14 -56.11,-192.15 -304.66,-228.06l17.28 660.62c12.24,80.49 59.36,68.74 153.29,65.98z"/>
  <path class="fil0" d="M1235.16 3935.25l-168.61 -16.37c-30.59,73.74 1.58,92.57 -75.95,109.85 -216.07,48.16 -135.56,-343.64 -122.4,-389.44l150.4 -6.09 43.81 106.8 167.77 8.63c5.19,-240.07 -100.07,-287.59 -324.75,-293.47 -261.39,-6.82 -256.95,131.19 -252.94,363.99 3.73,217.92 17.96,349.2 235.12,376.27 207.98,25.93 384.18,-16.15 351,-245.14 -0.55,-3.73 -1.78,-10.17 -3.45,-15.03z"/>
  <path class="fil2" d="M2737.25 1452.99l-164.36 -25.13c1.6,160.39 49.3,477.98 -31.72,579.43 -341.45,82.65 -159.04,-413.74 -236.74,-621.76l-165.67 -20.04c6.32,395.09 -60.41,715.18 273.85,785.53 176.91,37.25 317.94,-2.63 341.24,-170.05 15.15,-108.86 7.55,-437.81 -16.6,-527.98z"/>
  <path class="fil0" d="M3053.36 4087.66l103.15 6.02 -1.23 101.14 -91.45 -13.7c-10.12,-18.26 -6.06,17.95 -15.36,-40.73 -5.11,-32.28 0.35,-21.72 4.89,-52.73zm-129.9 -71.47l-2.83 -90.65c118.71,5.24 151.76,-29.43 233.72,-12.84l6.7 107.66c-86.5,-33.34 -162.67,-28.77 -237.59,-4.17zm0 0c-26.76,110.21 -38.92,246.91 80.05,275.33 77.26,18.45 111.79,-11.31 152.09,-10.71 19.51,0.29 93.46,18.06 145.99,19.56 7.26,-106.31 18.17,-379.15 -42.15,-441.24 -36.12,-37.18 -107.63,-49.62 -176.28,-52.59 -108.1,-4.68 -131.87,-0.18 -156.88,74.79l-28.4 -34.15c-61.38,-69.01 -125.08,-89.62 -192.16,-12.39 -42.83,-71.76 -36.82,-48.38 -147.58,-53.27l12.11 483.59 140.21 4.75c-2.26,-106.27 -32.3,-281.41 13.47,-358.15 96.35,15.39 42.97,8.64 78.1,95.65l121.43 8.83z"/>
  <path class="fil2" d="M2833.31 2188.12l474.85 55.63 -2.25 -120.92c-70.78,-43.07 -210.22,-38.49 -302.83,-60.01l-6.77 -170.16 278.37 30.32 -1.21 -131.47 -217.05 -34.32c-70.17,-16.52 -22.07,2.88 -64.17,-27.16l-4.49 -102.37 301.92 37.11 -5.35 -131.35 -469.49 -73.81 18.47 728.51z"/>
  <path class="fil2" d="M1537.62 2884.15l185.66 24.31 -2.17 -323.95 301.42 28.19 -3.39 -132.82c-57.19,-28.85 -132.32,-26.27 -204.79,-33.17 -127.54,-12.15 -98.22,-15.71 -100.56,-146.21l325.27 27.32 -4.11 -133.65c-92.89,-44.32 -389.1,-59.77 -512.83,-66.62l15.5 756.6z"/>
  <path class="fil2" d="M2085.28 2320.47l116.53 19.83 10.43 460.96 -57.02 13.39c-4.62,1.42 -9.82,2.76 -14.45,4.33l-39.12 107.32c83.61,52.92 293.62,49.9 407.08,48.83l-1.78 -119.36 -113.83 -23.64 -11.59 -459.29c24.5,-9.76 1.05,-5.81 44.14,-10.33 16.68,-1.77 48.57,-0.76 67.11,-0.81l-4.6 -123.12 -405.31 -50.11 2.41 132z"/>
  <polygon class="fil0" points="2094.82,3700.62 2252.39,3721.84 2275.59,4253.45 2438.39,4258.02 2428.27,3724.79 2587.55,3733.41 2572.42,3580.45 2082.11,3547.54 "/>
  <path class="fil1" d="M3617.52 2336.22c15.59,14.43 112.65,171.94 129.97,212.59 179.92,422.36 -60.85,636.39 -95.16,734.49l168.64 5.69c30.97,-78.42 83.74,-138.45 109.97,-248.76 46.52,-195.65 6.8,-409.68 -89.53,-585.06 -65.36,-118.97 -64.37,-108.69 -223.89,-118.95z"/>
  <path class="fil0" d="M3834.38 3959.01c89.13,-11.88 111.23,-5.08 113.87,85.53l-116.78 -11.34 2.91 -74.19zm241.19 242.49c-172.07,-29.57 -239.73,140.91 -241.25,-82.01l242.73 11.08c-3.05,-113.75 3.64,-219.09 -101.44,-257.62 -392.81,-144.03 -303.58,385.07 -191.22,442.76 14.02,7.21 282.12,104.26 291.18,-114.21z"/>
  <path class="fil0" d="M3419.35 4307.23l190.77 1.84c34.98,-135.09 86.99,-329.51 101.63,-455.43l-135.81 -5.44 -72.06 325.56 -80.51 -339.62 -143.79 -1.23 139.77 474.32z"/>
  <polygon class="fil0" points="4119.9,4337.41 4240.63,4344.37 4216.29,3700.06 4089.89,3688.76 "/>
  <path class="fil2" d="M2124.39 1004.61c82.67,-242.74 -146.99,-324.75 -220.23,-221.99 -77.77,109.08 26.29,314.33 220.23,221.99z"/>
  <path class="fil2" d="M3098.57 938.2c-136.6,71.52 -26.53,313.26 118.46,264.97 153.07,-50.98 29.65,-342.54 -118.46,-264.97z"/>
  <path class="fil0" d="M1923.02 1782.14c-63.99,-33.29 -125.46,-45.59 -224,-53.48l16.91 189.08c76.95,8.36 128.87,28.47 188.37,-7.23l18.72 -128.37z"/>
  <polygon class="fil0" points="4632.35,4052.91 4458.05,4091.42 4485.25,4463.61 "/>
  <path class="fil1" d="M3501.61 2715.71l-7.96 -189.21 -157.22 -14.05c4.79,207.02 -34.86,188.9 165.18,203.26z"/>
  <polygon class="fil1" points="3352.79,3053.99 3517.35,3069.46 3498.89,2880.2 3347.98,2867.14 "/>
  <path class="fil0" d="M1700.21 1588.71c100.69,42.4 191.76,42.22 180.02,-86.17 -50.26,-54.34 -84.01,-59.88 -185.62,-59.17l5.6 145.34z"/>
  <polygon class="fil0" points="1931.37,4237.91 2060.86,4238.48 2055.2,4077.74 1914.57,4069.38 "/>
  <path class="fil1" d="M2923.46 4016.19c74.92,-24.6 151.09,-29.17 237.59,4.17l-6.7 -107.66c-81.96,-16.59 -115.01,18.08 -233.72,12.84l2.83 90.65z"/>
  <path class="fil1" d="M3063.83 4181.12l91.45 13.7 1.23 -101.14 -103.15 -6.02c-4.54,31.01 -10,20.45 -4.89,52.73 9.3,58.68 5.24,22.47 15.36,40.73z"/>
  <path class="fil1" d="M3831.47 4033.2l116.78 11.34c-2.64,-90.61 -24.74,-97.41 -113.87,-85.53l-2.91 74.19z"/>
 </g>
</svg>
