<?xml version="1.0" encoding="UTF-8"?>
<!DOCTYPE svg PUBLIC "-//W3C//DTD SVG 1.1//EN" "http://www.w3.org/Graphics/SVG/1.1/DTD/svg11.dtd">
<!-- Creator: CorelDRAW 2017 -->
<svg xmlns="http://www.w3.org/2000/svg" xml:space="preserve" width="42.895mm" height="45mm" version="1.1" style="shape-rendering:geometricPrecision; text-rendering:geometricPrecision; image-rendering:optimizeQuality; fill-rule:evenodd; clip-rule:evenodd"
viewBox="0 0 4289.5 4500"
 xmlns:xlink="http://www.w3.org/1999/xlink">
 <defs>
  <style type="text/css">
   <![CDATA[
    .fil5 {fill:#00A141}
    .fil3 {fill:#038BF3}
    .fil2 {fill:#101112}
    .fil7 {fill:#52C5A9}
    .fil8 {fill:#636363}
    .fil1 {fill:#74CACF}
    .fil9 {fill:#84C9F9}
    .fil0 {fill:#8B8B89}
    .fil4 {fill:#FE8100}
    .fil6 {fill:#FEFEFE}
   ]]>
  </style>
 </defs>
 <g id="Capa_x0020_1">
  <metadata id="CorelCorpID_0Corel-Layer"/>
  <g id="_2199642531680">
   <g>
    <path class="fil0" d="M2675.33 4203.79c-27.63,-23.05 -34.06,-2.24 -39.93,-40.41 12.63,-9.33 5.06,-12.23 48.09,-13.03 12.94,-0.24 29.84,0.91 43.45,1.2l-4.09 92.42c13.75,-13.1 10.6,14.05 12.5,-26.21l-0.95 -68.19c-33.19,-14.23 -68.98,-11.38 -104.12,-3.25l-4.7 44.1 49.75 13.37z"/>
    <path class="fil0" d="M1680.52 4274.01l-4.12 -88.98c-14.5,-2.58 -20.81,-6.3 -35.55,-5.63 -49.86,2.28 -26.18,3.91 -36.58,15.46l64.52 -6.59 -0.39 56.69c1.21,54.54 -1.02,12.04 12.12,29.05z"/>
    <path class="fil0" d="M1605.54 4120.08c13.67,17 -21.36,13.09 26.78,14.86l40.64 -2.44 10.46 -77.63c-23.79,-0.23 -14.67,43.38 -16.11,69.58l-61.77 -4.37z"/>
    <path class="fil0" d="M2384.17 3681.15l-9.51 -66.97 -62.51 -3.52c-50.7,1.39 -11.82,-0.59 -28.18,12.35l85.1 -2.6c1.68,34.26 -8.38,49.8 15.1,60.74z"/>
    <path class="fil0" d="M3043.54 1698.69c9.56,-10.52 5.76,-2.85 13.45,-20.58 5.14,-11.85 1.12,-3.15 1.73,-24.07l-42.01 16.95 32.79 -5.15 -5.96 32.85z"/>
   </g>
   <g>
    <path class="fil1" d="M1561.34 2589.94c51.77,-10.59 63.24,-14.42 105.54,9.7 -2.32,-23.83 -4.46,-21.07 10.97,-28.56 -8.27,-8.25 -5.83,-13.54 -12.21,-21.94 13.08,0.5 34.92,3 47.07,0.43 63.51,-13.44 14.74,-2.65 33.78,-21.94 -100.37,11.93 -71.33,0.38 -90.14,36.24l-7.33 10.87c-36.94,-19.38 -65.87,-13.69 -87.68,15.2z"/>
    <path class="fil1" d="M1332.32 2745.81l8.21 0c-3.49,-31.99 10.11,-14.38 47.54,-22.28 7.42,-1.57 21.48,-5.34 26.7,-8.7 18.23,-11.73 12.51,-8.76 22.21,-24.23 -54.34,21.16 -41.88,20.13 -105.68,20.49l1.02 34.72z"/>
   </g>
   <g>
    <path class="fil2" d="M3298.66 3743.51c17.4,-9.94 37.25,-12.6 60.49,-2.54 43.47,18.82 38.93,145.21 -7.52,157.88 -99.26,27.05 -112.58,-121.31 -52.97,-155.34zm83.97 192.39c-2.37,97.5 -82.02,66.81 -155.04,56.72l-18.87 50.41c59.54,18.69 117.96,28.76 180.34,10.1 111.05,-33.19 87.03,-154.84 84.9,-324.82l-1.14 -45.46c-75.88,-0.2 -54.14,-11.65 -92.17,26.91 -79.3,-79.2 -199.9,-15.03 -205.8,100.85 -6.99,137.08 95.03,171.8 207.78,125.29z"/>
    <path class="fil2" d="M1755.64 3840.27c4.14,68.01 -50.29,66.14 -99.44,54.2 -12.66,-62.63 41.9,-59.83 99.44,-54.2zm-176.86 -77.3c113.74,6.25 69.72,-6.17 104.43,-21.15 51.23,-22.1 72.39,3.11 73.6,48.48 -85.26,10.99 -206.21,-4.14 -194.13,99.09 4.74,40.51 32.81,62.14 78.69,68.1 56.77,7.37 89.6,-18.7 117.85,-34.5l15.57 31.07 84.18 -0.21c-14.33,-98.2 10.27,-223.18 -57.93,-258.3 -77.84,-40.07 -218.59,-17.93 -222.26,67.42z"/>
    <path class="fil2" d="M3651.51 3742.83c96.82,-54.79 131.2,122.6 59.83,152.88 -96.19,40.82 -126.51,-115.14 -59.83,-152.88zm-34.62 -53.98c-171.12,58.7 -91.86,333.93 131.17,260.69 168.6,-55.36 96.08,-338.63 -131.17,-260.69z"/>
    <path class="fil2" d="M2560.6 3846.14c-24.59,-133.98 114.22,-145.5 128.64,-52.61 20.72,133.34 -113,137.84 -128.64,52.61zm-8.51 -152.83c-182.99,86.61 -48.03,337.08 149.26,252.09 170.46,-73.43 52.56,-347.61 -149.26,-252.09z"/>
    <path class="fil2" d="M1263.17 3855.2c-27.55,84.94 -160.8,54.03 -122.97,-75.67 25.27,-86.64 162.35,-45.71 122.97,75.67zm-134.13 -162.16c-182.12,82.2 -49.28,339.87 149.16,252.21 166.39,-73.51 55.91,-344.77 -149.16,-252.21z"/>
    <path class="fil2" d="M1910.19 3953.84l89.09 -1.24c3.3,-65.16 -9.95,-143.93 7.67,-202.89 144.55,-68.05 94.75,107.7 104.85,203.71l84.62 0.58c5.92,-51.58 11.57,-187.48 -8.43,-227.16 -30.59,-60.7 -129.57,-66.2 -174.94,-17.12 -43.7,-15.24 24.73,-27.1 -100.5,-26.65l-2.36 270.77z"/>
    <path class="fil2" d="M2834.83 3953.69l89.28 -1.16c3.68,-63.83 -9.26,-145.28 7.49,-202.25 142.91,-70.65 95.71,110.63 103.97,204.17l85.7 -0.53c4.47,-46.98 9.54,-189.52 -9.44,-227.6 -29.81,-59.76 -128.02,-65.36 -174.36,-16.75 -33,-12.48 10.25,-27.89 -100.47,-26.39l-2.17 270.51z"/>
    <path class="fil2" d="M675.96 3601.41l1.1 36.28c31.61,15 75.8,7.93 123.24,8.32l1.79 304.45 87.77 4.05 2.88 -305.15 122.43 -4.31 3.07 -54.55 -256.12 -1.82c-33.48,-0.52 -61.21,-4.74 -86.16,12.73z"/>
    <path class="fil2" d="M2372.56 3738.71c2.2,-1.23 5.18,-2.4 6.93,-3.03 1.77,-0.63 4.94,-2 7.13,-2.76l15.69 -4.38c22.47,-7.59 10.65,-2.26 23.4,-9.67l-11.09 -36.69 -30.45 -1.03c-23.48,-10.94 -13.42,-26.48 -15.1,-60.74l-85.1 2.6 -1.82 50.92c-42.25,28.31 -37.49,-18.82 -45.64,29.75 -8.83,52.62 0.65,23.65 43.89,33.69 13.36,139.59 -37.09,243.66 149.94,216.28 1.42,-74.83 -3.81,-41.05 -54.16,-60.75l-3.62 -154.19z"/>
    <polygon class="fil2" points="1415.31,3952.28 1503.71,3953.54 1505.38,3565.84 1416.54,3564.62 "/>
    <path class="fil2" d="M1957.49 4108.04c75.59,0.46 72.52,58.89 46.7,110.14l-46.81 1.59 0.11 -111.73zm-65.03 165.22c105.49,4.16 192.25,10.37 190.3,-110.1 -2,-123.98 -80.58,-111.24 -188.08,-107.9l-2.22 218z"/>
    <path class="fil2" d="M2901.95 4208.7c-46.35,61.67 -102.26,-39.35 -63.62,-90.64 44.25,-58.74 101.41,40.36 63.62,90.64zm-86.79 -142.88c-24.54,15.4 -39.68,20.19 -48.78,62.65 -7.08,33.06 -4.83,69.76 8.31,97.76 20.36,43.38 86.56,72.58 149.62,41.99 112.05,-54.37 35.5,-293.17 -109.15,-202.4z"/>
    <path class="fil2" d="M2292.02 1736.43c82.41,24.18 109.96,14.71 173.81,-19.57l0.53 -106.54 -81.24 -1.05 -22.91 7.12 0.47 36.5 51.09 0.56c1.54,34.62 3.04,38.96 -24.52,48.73 -25.07,8.9 -37.73,5.94 -57.44,-4.31 -106.33,-52.98 8.41,-256.51 79.59,-136.02 22.34,11.35 14.88,11.6 45.88,0.16 -0.11,-37.81 -9.03,-40.06 -29.13,-61.23 -81.39,-35.56 -149.31,-14.25 -175.55,55.84 -32,85.46 0.92,124.6 39.42,179.81z"/>
    <path class="fil2" d="M2722.85 4243.97l4.09 -92.42c-13.61,-0.29 -30.51,-1.44 -43.45,-1.2 -43.03,0.8 -35.46,3.7 -48.09,13.03 5.87,38.17 12.3,17.36 39.93,40.41 -61.69,80.74 -132.64,-55.33 -61.05,-94.3 53.55,-26.43 32.11,39.08 109.73,-0.49 -24.09,-96.56 -200.63,-85.92 -202.23,54.25 -1.55,134.7 153.39,143.47 201.07,80.72z"/>
    <path class="fil2" d="M1604.27 4194.86c10.4,-11.55 -13.28,-13.18 36.58,-15.46 14.74,-0.67 21.05,3.05 35.55,5.63l4.12 88.98 57.81 -2 0.06 -214.04 -54.97 -3.1 -10.46 77.63 -40.64 2.44c-48.14,-1.77 -13.11,2.14 -26.78,-14.86l-1.52 -63.52 -62.33 -2.12 -1.96 218.82 64.32 -0.19 0.22 -78.21z"/>
    <path class="fil2" d="M2201.98 4125.83l23.34 62.05 -39.31 0.01 15.97 -62.06zm-103.16 148.68c77.64,-0.44 44.29,9.32 77.34,-36.08 144.12,-4.56 -1.13,36.79 139.39,35.67l-73.09 -218.18c-85.08,-2.83 -66.25,-13.18 -105.88,95.93 -14.36,39.54 -31.36,77.7 -37.76,122.66z"/>
    <path class="fil2" d="M3016.71 1670.99l42.01 -16.95c-0.61,20.92 3.41,12.22 -1.73,24.07 -7.69,17.73 -3.89,10.06 -13.45,20.58 -24.42,21.5 -33.91,25.12 -49.64,-9.79l22.81 -17.91zm-64.24 -63.66c64.28,31.32 41.67,-49.84 98.79,0 -17.14,60.9 -136.38,-0.71 -96.24,128.64 59.98,31.15 67.41,4.35 98.24,4.41 3.43,0.01 29.15,6.6 54.21,7.52 -8.87,-50.4 5.44,-157.07 -29.07,-181.55 -49.42,-35.06 -111.89,-7.21 -125.93,40.98z"/>
    <path class="fil2" d="M2795 1745.65c8.06,-41.41 11.4,-148.06 -2.48,-183.36l-36.26 -1.37c-15.03,43.91 -1.29,108.24 -16.95,147.1 -65.34,14.76 -51.14,-20.89 -52.16,-92l-12.46 -55.69 -27.21 0.29c-3.33,6.17 -61.22,239.47 87.77,179.48 51.14,-20.59 -17.15,12.87 59.75,5.55z"/>
    <path class="fil2" d="M3241.61 1704.25c-76.44,45.7 -38.47,-41.89 -110.79,-6.28 20.99,77.28 171.75,86.29 157.17,-34.55 -14.75,-15.52 -22.51,-22.87 -48.37,-31.21 -42.9,-13.82 -48.07,-5.52 -57.08,-33.95 62.28,-26.05 20.67,21.18 100.69,9.79 -17.17,-73.32 -120.04,-66.6 -141.82,-22.14 -45.57,93 87.84,68.33 100.2,118.34z"/>
    <polygon class="fil2" points="2337.97,4272.58 2501.1,4273.81 2500.55,4220.74 2403.94,4218.01 2402.37,4056.28 2339.89,4054.8 "/>
    <path class="fil2" d="M2824.99 1580.13c24.14,44.48 14.75,-6.56 21.53,45.46 2.54,19.51 -1.54,51.7 -0.22,72.96 3.75,60.13 33.56,60.72 83.32,47.48 -14.21,-102.22 -34.24,57.63 -34.27,-138.7l30.27 -27.2c-41.26,-74.81 40.93,50.92 -15.34,-16.6 -17.32,-20.79 -1.94,8.13 -11.87,-15.38 -6.12,-14.49 -3.42,-35.38 -3.83,-51.8 -27.75,10.73 -31.53,8.01 -44.79,32.39l-24.8 51.39z"/>
    <polygon class="fil2" points="1781.74,4274.35 1844.96,4274.49 1845.97,4054.11 1784.36,4054.4 "/>
    <path class="fil2" d="M2509.86 1560.45c-2.14,37 -11.1,155.58 10.74,187.07 70.88,-4.49 18.63,-0.93 43.57,-134.33 31.09,-11.01 -23.15,9.04 22.03,-4.03l25.99 -11.76c14.96,-16.5 12.88,-30.1 -5.01,-39.11 -22.05,-11.09 -27.43,3.97 -43.43,6.24 -15.82,2.23 -23.89,-3.8 -53.89,-4.08z"/>
   </g>
   <g>
    <path class="fil3" d="M2669.32 2476.5c-14,-15.02 -9.95,21.93 -13.54,-26.09 -1.92,-25.7 6.4,-23.57 9.84,-30.5 39.83,7.24 18.21,-1.26 32,18.71 45.16,10.62 43.83,32.52 74.11,71.84 11.84,-40.6 3.9,-76.52 -18.17,-102.93 -28.18,-33.7 -49.49,-26.76 -92.5,-24.06l-0.55 -204.86 -56.1 1.44c-11.58,78.8 -9.15,1255.83 2.35,1298.76l47.6 1.19c20.45,-66.15 6.92,-713.6 6.28,-836.33 37.08,11.59 16.4,30.2 48.77,50.25 19.06,-111.35 -49.29,-76.76 -47.56,-164.12 25.42,11.96 30.92,13.71 46.8,31.94 4.72,5.43 10.09,14.84 14.96,21.14 18.74,24.2 -3.86,9.15 21.99,22.19 4.96,-68.85 -16.03,-115.39 -76.28,-128.57z"/>
    <path class="fil3" d="M2330.25 2221.3c-85.78,-3.54 -137.98,36 -124.68,127.07 37.65,-34.82 55.49,-73.93 126.49,-79.83 1.97,82.08 -10.27,30.98 -64.06,74.48 -26.4,21.34 -39.75,58.79 -26.13,103.86 30.54,-39.82 35.7,-57.39 90.74,-71.98 -1.71,88.79 -67.66,31.52 -60.94,160.78l27.21 -26.16c16.68,-15.71 13.4,-14.18 33.94,-25.21l0.05 993.45 55.93 1.68 3.92 -1298.53c-77.32,-6 -52.89,3.36 -62.47,40.39z"/>
    <path class="fil3" d="M2516.44 3478.44l52.05 0.13 2.75 -1295.27 -56.86 -3.9c-11.79,82.03 -9.92,1252.47 2.06,1299.04z"/>
    <polygon class="fil3" points="2421.39,3478.66 2478.43,3478.77 2481.61,2183.1 2422.54,2178.94 "/>
    <path class="fil3" d="M1166.62 2851.06l-10.49 -41.93c-25.65,59.05 -76.55,81.91 -149.23,86.52 -2.68,5.7 -6.65,17.06 -6.85,17.47 -7.83,15.96 -3.37,8.18 -11.27,17.6 -93.15,-24.59 -117.88,55.46 -124.35,44.86 -1.12,-1.84 -4.27,3.56 -7.01,5.06l3.75 -1314.66c-13.23,40.85 -4.73,1087.85 -6.06,1319.15l5.97 53.44c5.91,16.06 3.9,10.8 9.86,18.28 37.17,-50.27 59.05,-82.26 149.36,-77.9 -8.74,-24.55 -15.79,-29.65 -15.64,-57.97 74.08,39.38 141.08,40.85 161.96,-69.92z"/>
    <path class="fil3" d="M197.2 3356.13l4.29 56.42c26.58,-11.71 3.66,3.75 29.77,-24.64 42.59,-46.3 62.72,-54.04 129.24,-52.66 -15.26,-62.05 -37.73,4.73 -15.67,-59.39 140.77,88.41 153.99,-58.26 169.58,-90.99 -17.27,-14.98 2.02,17.85 -15.09,-14.89 -45.16,40.43 -30.47,80.59 -154.09,81.71l-18.13 35.86c-79.49,-20.65 -96.72,27.6 -129.9,68.58z"/>
    <path class="fil3" d="M1216.34 2778.49c-20.31,21.18 -23.23,34.89 -30.86,68.04l8 33.49c36.02,-11.32 32.37,-84.23 157.68,-81.2 -11.23,-29.44 -14.62,-19.14 -18.34,-45.09l-24.42 -3.83c-52.51,4.06 -53.1,6.03 -92.06,28.59z"/>
    <path class="fil3" d="M532.08 3177.46l1.58 60.54c51.87,-47.3 52.19,-84.12 157.24,-81.16 -12.91,-38.04 -17.17,-18.66 -32.45,-53.47 -75.8,0.14 -100.93,16.46 -126.37,74.09z"/>
    <path class="fil3" d="M1887.2 2412.41c-29.8,21.12 -21.62,29.96 -45.94,52.36 2.67,6.47 3.1,2.24 6.32,21.96 1.36,8.36 2.42,27.59 3.55,37.44 34.87,-21.02 33.58,-80.27 159.33,-82.96 -21.64,-59.14 -67.91,-53.03 -123.26,-28.8z"/>
    <path class="fil3" d="M2087.71 2559.19c35.28,89.34 173.68,50.76 160.5,-80.84 -69.13,48.92 -38.56,71.27 -160.5,80.84z"/>
    <path class="fil3" d="M1744.57 2734.88c7.19,25.82 11.35,23.09 28.87,42.19 90.48,7.9 143.57,-30.46 126.67,-123.67 -52.4,24.42 -23.28,76.59 -155.54,81.48z"/>
    <path class="fil3" d="M719.21 3178.97c14.65,85.47 181.33,53.43 154.78,-79.38 -43.08,12.86 -27.92,81.32 -154.78,79.38z"/>
    <path class="fil3" d="M617.15 3425.92c48.13,-40.39 47.16,-85.42 153.23,-79.73 -34.51,-107.08 -200.94,-15.33 -153.23,79.73z"/>
    <path class="fil3" d="M1412.4 2911.14c38,105.71 197.42,18.15 156.47,-79.19 -27.64,19.79 -24.1,33.58 -59.3,57.66 -30.4,20.81 -54.42,22.87 -97.17,21.53z"/>
    <path class="fil3" d="M754.25 3267.63c25.32,84.89 178.59,57.58 158.4,-80.15 -50.15,22.58 -26.51,83.63 -158.4,80.15z"/>
    <path class="fil3" d="M1568.87 2801.61c47.01,-45.93 46.56,-82.71 153.67,-80.37 -37.22,-109.26 -203.5,-9.11 -153.67,80.37z"/>
    <path class="fil3" d="M1270.65 3068.65c59.46,-25.93 15.87,-71.33 161,-82.16 -35.27,-79.18 -172.89,-54.4 -161,82.16z"/>
    <path class="fil3" d="M1706.51 2649.69c41,91.4 198.16,13.94 152.41,-84.67 -1.71,1.71 -4.28,1.95 -5.07,5.19 -5.48,22.62 -2.35,2.1 -9.76,10.06 -86.66,93.04 -71.22,43.38 -137.58,69.42z"/>
    <path class="fil3" d="M385.68 3359.77c28.02,82.45 177.76,52.8 158.63,-84.48 -58.12,46.24 -40.83,80.38 -158.63,84.48z"/>
    <path class="fil3" d="M2056.33 2467.39c42.27,111.77 194.89,13.03 156.09,-77.08 -50.13,40.94 -45.13,82.22 -156.09,77.08z"/>
    <path class="fil3" d="M1436.98 2690.6c-9.7,15.47 -3.98,12.5 -22.21,24.23 -5.22,3.36 -19.28,7.13 -26.7,8.7 -37.43,7.9 -51.03,-9.71 -47.54,22.28 95.05,53.79 124.34,7.62 162.01,-69.11l-15.24 -42.86c-22.64,27.24 -27.72,39.44 -50.32,56.76z"/>
    <path class="fil3" d="M1931.26 2714.1c59.44,-38.82 21.14,-75.18 161.12,-83.32 -44.02,-85.84 -176.02,-47.94 -161.12,83.32z"/>
    <path class="fil3" d="M1507.32 2771.4c-28.45,25.88 -45.58,42.03 -84.62,49.14l-45.54 10.43c55.62,100.61 207.8,-16.77 148.72,-90.13l-18.56 30.56z"/>
    <path class="fil3" d="M1605.13 2890.64c19.8,-14.63 37.16,-63.32 101.4,-77.08l52.38 -9.78c-49.84,-92.64 -198.89,-6.17 -153.78,86.86z"/>
    <path class="fil3" d="M1045.9 3003.18c30.16,81.03 170.39,56.14 160.18,-83.75 -33.53,18.55 -21.37,33.47 -61.27,58.44 -37.6,23.53 -52,21.3 -98.91,25.31z"/>
    <path class="fil3" d="M575.37 3336.51c27.39,-10.86 17.98,-31.47 56.63,-55.69 28.33,-17.75 58.9,-25.2 101.54,-24.76 -34.24,-85.1 -175.69,-51.84 -158.17,80.45z"/>
    <path class="fil3" d="M1086.68 3102.89c62.14,74.84 164.79,23.64 157.6,-93.84 -54.86,28.46 3.94,44.98 -129.3,81.06 -0.01,0.01 -8.68,-2.95 -28.3,12.78z"/>
    <path class="fil3" d="M805.15 3014.59c-16.4,54.88 -90.95,51.97 -130.91,86.78 32.9,11.27 70.08,39.54 114.21,10.11 36.36,-24.26 49.08,-55.55 46.07,-112.73 -9.68,5.4 -20.94,10.27 -29.37,15.84z"/>
    <path class="fil3" d="M1233.14 2978.56c65.46,-29.12 -16.97,-34.62 128.83,-79.22 24.25,-7.42 14.71,-3.03 26.67,-13.99 -67.33,-74.3 -162.9,-15.19 -155.5,93.21z"/>
    <path class="fil3" d="M943.53 3248.57c32.51,-24.05 44.06,-63.98 103.6,-77.73 9.21,-2.13 17.87,-2.29 23.54,-3.57l27.83 -10c-57.6,-83.54 -173.58,-18.92 -154.97,91.3z"/>
    <path class="fil3" d="M1892.75 2624.39c16.5,-11.16 4.29,-0.89 17.05,-14.08 45.35,-46.88 45.79,-67.6 141.21,-67.74 -45.53,-93.71 -169.78,-41.81 -158.26,81.82z"/>
    <path class="fil3" d="M2014.92 2367.4c33.71,92.85 176.09,47.02 159.28,-78.75 -28.35,16.04 -24.41,36.29 -56.93,57.83 -35.87,23.75 -58.43,21.56 -102.35,20.92z"/>
    <path class="fil3" d="M907.2 3156.13l27.54 -25.64c57.17,-65.08 70.87,-38.42 120.56,-60.06 1.49,-0.64 4.14,-2.33 5.98,-3.8 -77.92,-83.9 -184.01,6.88 -154.08,89.5z"/>
    <path class="fil3" d="M1561.34 2589.94c-35.76,20.52 -43.51,43.98 -43.37,104.54l15.37 1.13c35.41,-49.31 62.35,-78.74 146.27,-73.91l-12.73 -22.06c-42.3,-24.12 -53.77,-20.29 -105.54,-9.7z"/>
    <path class="fil3" d="M1746.49 2527.63c-19.04,19.29 29.73,8.5 -33.78,21.94 -12.15,2.57 -33.99,0.07 -47.07,-0.43 6.38,8.4 3.94,13.69 12.21,21.94 75.59,51.77 144.74,-9.15 147.59,-89.88 -7.14,-41.71 -0.47,-12.14 -13.9,-23.68 -15.93,35.46 -29.17,59.56 -65.05,70.11z"/>
    <path class="fil3" d="M3488.59 2939.74c-31.37,-12.62 -57.48,-12.78 -80.98,-35.08 -11.54,-10.96 -31.38,-53.11 -46.73,-58.46 -24.39,114.4 94.63,180.55 127.71,93.54z"/>
    <path class="fil3" d="M3128.03 2994.12c1.94,0.91 5.04,-0.25 6.05,2.16 3.81,9.09 5.88,-0.86 36.35,9.11 49.97,16.34 63.29,59.43 84.35,79.42 39.09,-82.9 -79.05,-187.97 -126.75,-90.69z"/>
    <path class="fil3" d="M3143.91 2930.67c-51.71,-31.49 -36.98,19.18 -111.02,-77.34 -8.05,-10.51 -8.62,-10.49 -13.77,-15.29 -35.48,81.03 69.66,184.61 124.79,92.63z"/>
    <path class="fil3" d="M3667.14 3383.88c11.16,9.71 -6.9,0.94 15.54,8.25 117.09,38.15 64.93,60.01 113.08,88.98 19.15,-96.84 -69.45,-183.91 -128.62,-97.23z"/>
    <path class="fil3" d="M3416.16 3130.97c-13.43,-11.23 3.73,-2.44 -17.52,-9.85 -30.97,-10.81 -28.55,0.85 -61.23,-28.13 -7.02,-6.24 -18.76,-17.42 -26.54,-28.23 -15.68,-21.79 -2.31,-19.79 -25.9,-32.22 -12.8,92.22 48.55,181.28 131.19,98.43z"/>
    <path class="fil3" d="M3432.07 3107.23c102.22,14.12 79.58,35.63 127.73,92.17 31.68,-116.09 -97.33,-182.85 -127.73,-92.17z"/>
    <path class="fil3" d="M3702.32 3302.3c29.38,11.69 48.71,4.6 77.52,27.91 20.15,16.31 27.67,49.2 53.25,62.47 16.9,-111.53 -96.89,-180.69 -130.77,-90.38z"/>
    <path class="fil3" d="M3759.48 3139.15c-9.74,-7.21 2.41,-2.24 -17.09,-7.79 -26.57,-7.56 -34.71,-2.1 -62.87,-27.11 -18.97,-16.86 -30.64,-49.1 -50.56,-63.85 -16.8,101.58 69.46,186.87 130.52,98.75z"/>
    <path class="fil3" d="M3472.91 3003.19c23.82,16.35 48.99,6.45 81.8,35.46 16.48,14.57 27.78,53.18 47.81,58.91 16.87,-102.37 -74.2,-180.98 -129.61,-94.37z"/>
    <path class="fil3" d="M3206.18 2803.78c8.01,5.9 4.04,4.65 21.08,11.48 124.59,49.91 55.52,60.5 105.99,87 16.89,-109.27 -80.85,-178.45 -127.07,-98.48z"/>
    <path class="fil3" d="M3420.25 3074.53c20.44,-18.77 16.85,-12.92 29.42,-35.09 -27.27,-15.91 -42.25,-1.27 -79.82,-33.46 -25.04,-21.46 -27.92,-42.93 -48.18,-63.73 -15.92,81.11 18.59,137.55 98.58,132.28z"/>
    <path class="fil3" d="M3681.79 3329.49c-12.43,-11.48 2.39,-3.31 -18.44,-12.23 -1.06,-0.46 -16.87,-4.98 -20.08,-6.1 -62.73,-22.06 -55.01,-58.16 -90.29,-84.47 -8.59,106.47 64.09,181.1 128.81,102.8z"/>
    <path class="fil3" d="M3745.2 3208.59c88.42,4.43 90.29,44.5 111.93,71.86 9.92,12.55 4.58,6.21 15.43,15.22 18.37,-138.85 -112.97,-169.07 -127.36,-87.08z"/>
    <path class="fil3" d="M3399.22 3184.47c26.37,23.97 36.32,5.38 73.5,35.74 34.78,28.4 27.32,41.43 54.27,64.38 16.97,-107.29 -71.57,-177.42 -127.77,-100.12z"/>
    <path class="fil3" d="M2931.37 2549.98c-8.26,-4.63 2.17,-1.52 -21.38,-8.35 -88.57,-25.68 -56.93,-29.46 -106.87,-89.55 -19.64,96.57 66.22,190.05 128.25,97.9z"/>
    <path class="fil3" d="M3164.46 2903.48c7.27,5.19 2.01,3.52 18.63,9.2 6.47,2.21 13.5,3.16 21.37,5.69 15.72,5.06 25.97,10.02 35.97,17.51 29.85,22.39 27.16,43.79 50.61,63.66 31.75,-74.19 -61.02,-185.97 -126.58,-96.06z"/>
    <path class="fil3" d="M3181.91 2851.33c-27.73,-30.03 -39.36,-7.02 -79.32,-40.36 -14.63,-12.2 -14.51,-13.72 -25.19,-29.6 -18.77,-27.92 -4.29,-21.91 -26.94,-29.39 -9.78,101.21 58.34,167.29 131.45,99.35z"/>
    <path class="fil3" d="M4014.42 3392.94l39.64 17.96c66.87,23.08 54.13,61.97 86.88,81.65 17.82,-113.16 -79.57,-174.31 -126.52,-99.61z"/>
    <path class="fil3" d="M3989.72 3440.94c-28.12,-27.6 -37.13,-7.36 -75.62,-36.29 -24.46,-18.38 -23.27,-27.55 -37.56,-44.78l-14.47 -14.13c-18.51,44.52 3.35,84.18 31.15,106.86 44.6,36.38 60.49,12.46 96.5,-11.66z"/>
    <path class="fil3" d="M2892.6 2649.69c-24.36,-16.93 -45.28,-6.96 -77.34,-31.95l-36.92 -45.23c-9.29,-11.54 -5.81,-7.36 -15.16,-15.65 -10.17,105.17 73.34,177.54 129.42,92.83z"/>
    <path class="fil3" d="M3218.33 2749.39c-43.31,-34.32 -62.34,8.12 -111.84,-78.17 -17.73,-30.91 -2.96,-9.2 -14.86,-19.58 -29.5,84.3 71.56,184.3 126.7,97.75z"/>
    <path class="fil3" d="M2859.58 2740.33c-26.96,-20.88 -47.16,-12.6 -77.05,-35.33 -30.38,-23.1 -23.11,-43.69 -50.66,-63.11 -15.14,106.48 78.82,178.25 127.71,98.44z"/>
    <path class="fil3" d="M2937.17 2604.37c24.9,24.7 39.71,10.73 73.19,35.89 32.99,24.78 22.48,44.1 54.98,65.25 12.62,-96.37 -57.48,-174.94 -128.17,-101.14z"/>
    <path class="fil3" d="M3717.56 3238.85c-23.04,-15.1 -46.61,-10.6 -75.69,-33.49 -19.31,-15.19 -12.29,-11.37 -24.41,-29.34l-31.65 -33.41c-2.49,132.35 90.29,163.2 131.75,96.24z"/>
    <path class="fil3" d="M2858.98 2794.71c23.39,17.11 39.73,1.75 74.68,30.7 37.55,31.1 23.6,44.15 57.27,62.28 5.69,-101.19 -62.56,-172.42 -131.95,-92.98z"/>
    <path class="fil3" d="M2900.77 2704.07c31.67,28.83 58.7,7.04 97.68,66.44 17.65,26.89 2.8,20.6 26.62,31.97 13.12,-91.72 -59.27,-175.77 -124.3,-98.41z"/>
    <path class="fil3" d="M4019.15 3347.62l-35.73 -22.11c-31.68,-17.35 -43.14,-21.19 -59.22,-49l-26.05 -39.15c-7.54,47.75 -2.77,81.41 26.58,111.19 30.03,30.46 68.29,33.75 94.42,-0.93z"/>
   </g>
   <g>
    <path class="fil4" d="M1666.64 771.26l-0.47 712.53c38.08,-29.28 56.19,-91.35 138.72,-95.95 239.55,-13.36 180.66,407.95 188.95,522.39 63.19,-11.82 127.33,-39.27 172.55,-67.93 59.96,-38.02 83.18,-64.59 125.63,-105.87 -38.5,-55.21 -71.42,-94.35 -39.42,-179.81 26.24,-70.09 94.16,-91.4 175.55,-55.84 15.75,-149.59 42.99,-201.38 -1.29,-360.84 -54.74,-197.18 -202.09,-356.26 -403.87,-404.16 -158.49,-37.63 -230.29,1.63 -356.35,35.48z"/>
    <path class="fil4" d="M2331.81 1697.87l30.87 -44.98 -0.47 -36.5 22.91 -7.12c9.79,-33.91 2.95,-27.88 26.28,-47.42 -71.18,-120.49 -185.92,83.04 -79.59,136.02z"/>
   </g>
   <g>
    <path class="fil5" d="M1308.4 2749.9l24.42 3.83 -0.5 -7.92 -1.02 -34.72c63.8,-0.36 51.34,0.67 105.68,-20.49 22.6,-17.32 27.68,-29.52 50.32,-56.76l15.24 42.86 0.64 17.14 14.79 0.64c-0.14,-60.56 7.61,-84.02 43.37,-104.54 21.81,-28.89 50.74,-34.58 87.68,-15.2l7.33 -10.87c18.81,-35.86 -10.23,-24.31 90.14,-36.24 35.88,-10.55 49.12,-34.65 65.05,-70.11 13.43,11.54 6.76,-18.03 13.9,23.68l15.82 -16.43c24.32,-22.4 16.14,-31.24 45.94,-52.36 46.95,-34.77 49.65,-21.74 107.86,-12.72l-1.22 -489.46c-8.29,-114.44 50.6,-535.75 -188.95,-522.39 -82.53,4.6 -100.64,66.67 -138.72,95.95l0.47 -712.53c-0.03,-122.51 17.51,-273.62 -31.99,-371.6 -52.06,-103.07 -162.38,-160.67 -257.92,-53.9 -75.98,84.9 -69.23,204.76 -69.23,337.04l0 1241.77c0,270.99 -8.55,556.08 0.9,825.33z"/>
    <path class="fil5" d="M861.17 1665.98l-3.75 1314.66c2.74,-1.5 5.89,-6.9 7.01,-5.06 6.47,10.6 31.2,-69.45 124.35,-44.86 7.9,-9.42 3.44,-1.64 11.27,-17.6 0.2,-0.41 4.17,-11.77 6.85,-17.47 72.68,-4.61 123.58,-27.47 149.23,-86.52l10.49 41.93 18.86 -4.53c7.63,-33.15 10.55,-46.86 30.86,-68.04 1.12,-314.79 0.08,-629.76 0.09,-944.56 0.01,-162.19 -2.8,-292.53 -111.65,-360.73 -131.33,-82.28 -229.06,75.81 -243.61,192.78z"/>
    <path class="fil5" d="M197.2 3356.13c33.18,-40.98 50.41,-89.23 129.9,-68.58l18.13 -35.86c123.62,-1.12 108.93,-41.28 154.09,-81.71 17.11,32.74 -2.18,-0.09 15.09,14.89l17.67 -7.41c25.44,-57.63 50.57,-73.95 126.37,-74.09l15.79 -2c39.96,-34.81 114.51,-31.9 130.91,-86.78 -54.86,-82.72 -77.92,-135.87 -181.25,-181.31 -243.74,-107.19 -507.68,101.58 -475.38,386.06 2.94,25.89 7.93,47.99 15.77,72.83 7.21,22.83 15,48.43 32.91,63.96z"/>
   </g>
   <g>
    <path class="fil6" d="M1416.54 3564.62l88.84 1.22 -1.67 387.7 -88.4 -1.26 1.23 -387.66zm1049.67 363.09l0 0zm1150.68 -238.86c227.25,-77.94 299.77,205.33 131.17,260.69 -223.03,73.24 -302.29,-201.99 -131.17,-260.69zm-1064.8 4.46c201.82,-95.52 319.72,178.66 149.26,252.09 -197.29,84.99 -332.25,-165.48 -149.26,-252.09zm-140.26 80.32l27.19 0 0 90.64 -27.19 0 0 -90.64zm-1282.79 -80.59c205.07,-92.56 315.55,178.7 149.16,252.21 -198.44,87.66 -331.28,-170.01 -149.16,-252.21zm2253.59 242.86c-112.75,46.51 -214.77,11.79 -207.78,-125.29 5.9,-115.88 126.5,-180.05 205.8,-100.85 38.03,-38.56 16.29,-27.11 92.17,-26.91l1.14 45.46c2.13,169.98 26.15,291.63 -84.9,324.82 -62.38,18.66 -120.8,8.59 -180.34,-10.1l18.87 -50.41c73.02,10.09 152.67,40.78 155.04,-56.72zm-1840.95 -116.95l0 0zm1295.32 -135.77c110.72,-1.5 67.47,13.91 100.47,26.39 46.34,-48.61 144.55,-43.01 174.36,16.75 18.98,38.08 13.91,180.62 9.44,227.6l-85.7 0.53c-8.26,-93.54 38.94,-274.82 -103.97,-204.17 -16.75,56.97 -3.81,138.42 -7.49,202.25l-89.28 1.16 2.17 -270.51zm-924.45 -0.11c125.23,-0.45 56.8,11.41 100.5,26.65 45.37,-49.08 144.35,-43.58 174.94,17.12 20,39.68 14.35,175.58 8.43,227.16l-84.62 -0.58c-10.1,-96.01 39.7,-271.76 -104.85,-203.71 -17.62,58.96 -4.37,137.73 -7.67,202.89l-89.09 1.24 2.36 -270.77zm-333.77 79.9c3.67,-85.35 144.42,-107.49 222.26,-67.42 68.2,35.12 43.6,160.1 57.93,258.3l-84.18 0.21 -15.57 -31.07c-28.25,15.8 -61.08,41.87 -117.85,34.5 -45.88,-5.96 -73.95,-27.59 -78.69,-68.1 -12.08,-103.23 108.87,-88.1 194.13,-99.09 -1.21,-45.37 -22.37,-70.58 -73.6,-48.48 -34.71,14.98 9.31,27.4 -104.43,21.15zm705.19 -139.96c16.36,-12.94 -22.52,-10.96 28.18,-12.35l62.51 3.52 9.51 66.97 30.45 1.03c17.5,15.34 11.65,-0.83 17.61,27.41 2.39,11.3 -2.48,16.6 -4.04,26.54l-55.63 2.58 3.62 154.19c50.35,19.7 55.58,-14.08 54.16,60.75 -187.03,27.38 -136.58,-76.69 -149.94,-216.28 -43.24,-10.04 -52.72,18.93 -43.89,-33.69 8.15,-48.57 3.39,-1.44 45.64,-29.75l1.82 -50.92zm232.47 -144.57c-11.98,-46.57 -13.85,-1217.01 -2.06,-1299.04l56.86 3.9 -2.75 1295.27 -52.05 -0.13zm-93.9 -1299.5l59.07 4.16 -3.18 1295.67 -57.04 -0.11 1.15 -1299.72zm1718.4 1313.61c-32.75,-19.68 -20.01,-58.57 -86.88,-81.65l-39.64 -17.96c46.95,-74.7 144.34,-13.55 126.52,99.61zm-226.84 -87.9c38.49,28.93 47.5,8.69 75.62,36.29 -36.01,24.12 -51.9,48.04 -96.5,11.66 -27.8,-22.68 -49.66,-62.34 -31.15,-106.86l14.47 14.13c14.29,17.23 13.1,26.4 37.56,44.78zm-246.96 -20.77c59.17,-86.68 147.77,0.39 128.62,97.23 -48.15,-28.97 4.01,-50.83 -113.08,-88.98 -22.44,-7.31 -4.38,1.46 -15.54,-8.25zm-3049.99 42.04c-47.71,-95.06 118.72,-186.81 153.23,-79.73 -106.07,-5.69 -105.1,39.34 -153.23,79.73zm-231.47 -66.15c117.8,-4.1 100.51,-38.24 158.63,-84.48 19.13,137.28 -130.61,166.93 -158.63,84.48zm3539.05 -11.22c-29.35,-29.78 -34.12,-63.44 -26.58,-111.19l26.05 39.15c16.08,27.81 27.54,31.65 59.22,49l35.73 22.11c-26.13,34.68 -64.39,31.39 -94.42,0.93zm-91.64 44.13c-25.58,-13.27 -33.1,-46.16 -53.25,-62.47 -28.81,-23.31 -48.14,-16.22 -77.52,-27.91 33.88,-90.31 147.67,-21.15 130.77,90.38zm-280.11 -165.99c35.28,26.31 27.56,62.41 90.29,84.47 3.21,1.12 19.02,5.64 20.08,6.1 20.83,8.92 6.01,0.75 18.44,12.23 -64.72,78.3 -137.4,3.67 -128.81,-102.8zm-2977.61 109.82c-17.52,-132.29 123.93,-165.55 158.17,-80.45 -42.64,-0.44 -73.21,7.01 -101.54,24.76 -38.65,24.22 -29.24,44.83 -56.63,55.69zm178.88 -68.88c131.89,3.48 108.25,-57.57 158.4,-80.15 20.19,137.73 -133.08,165.04 -158.4,80.15zm2863.21 -91.61c12.12,17.97 5.1,14.15 24.41,29.34 29.08,22.89 52.65,18.39 75.69,33.49 -41.46,66.96 -134.24,36.11 -131.75,-96.24l31.65 33.41zm255.1 119.65c-10.85,-9.01 -5.51,-2.67 -15.43,-15.22 -21.64,-27.36 -23.51,-67.43 -111.93,-71.86 14.39,-81.99 145.73,-51.77 127.36,87.08zm-345.57 -11.08c-26.95,-22.95 -19.49,-35.98 -54.27,-64.38 -37.18,-30.36 -47.13,-11.77 -73.5,-35.74 56.2,-77.3 144.74,-7.17 127.77,100.12zm-2583.46 -36.02c-18.61,-110.22 97.37,-174.84 154.97,-91.3l-27.83 10c-5.67,1.28 -14.33,1.44 -23.54,3.57 -59.54,13.75 -71.09,53.68 -103.6,77.73zm-224.32 -69.6c126.86,1.94 111.7,-66.52 154.78,-79.38 26.55,132.81 -140.13,164.85 -154.78,79.38zm2909.75 -138.57c19.92,14.75 31.59,46.99 50.56,63.85 28.16,25.01 36.3,19.55 62.87,27.11 19.5,5.55 7.35,0.58 17.09,7.79 -61.06,88.12 -147.32,2.83 -130.52,-98.75zm-196.89 66.83c30.4,-90.68 159.41,-23.92 127.73,92.17 -48.15,-56.54 -25.51,-78.05 -127.73,-92.17zm-94.66 -14.24c32.68,28.98 30.26,17.32 61.23,28.13 21.25,7.41 4.09,-1.38 17.52,9.85 -82.64,82.85 -143.99,-6.21 -131.19,-98.43 23.59,12.43 10.22,10.43 25.9,32.22 7.78,10.81 19.52,21.99 26.54,28.23zm-2250.73 9.9c19.62,-15.73 28.29,-12.77 28.3,-12.78 133.24,-36.08 74.44,-52.6 129.3,-81.06 7.19,117.48 -95.46,168.68 -157.6,93.84zm-179.48 53.24c-29.93,-82.62 76.16,-173.4 154.08,-89.5 -1.84,1.47 -4.49,3.16 -5.98,3.8 -49.69,21.64 -63.39,-5.02 -120.56,60.06l-27.54 25.64zm-232.96 -54.76l-15.79 2c15.28,34.81 19.54,15.43 32.45,53.47 -105.05,-2.96 -105.37,33.86 -157.24,81.16l-1.58 -60.54 -17.67 7.41c-15.59,32.73 -28.81,179.4 -169.58,90.99 -22.06,64.12 0.41,-2.66 15.67,59.39 -66.52,-1.38 -86.65,6.36 -129.24,52.66 -26.11,28.39 -3.19,12.93 -29.77,24.64l-4.29 -56.42c-17.91,-15.53 -25.7,-41.13 -32.91,-63.96 -7.84,-24.84 -12.83,-46.94 -15.77,-72.83 -32.3,-284.48 231.64,-493.25 475.38,-386.06 103.33,45.44 126.39,98.59 181.25,181.31 8.43,-5.57 19.69,-10.44 29.37,-15.84 3.01,57.18 -9.71,88.47 -46.07,112.73 -44.13,29.43 -81.31,1.16 -114.21,-10.11zm2928.28 -3.81c-20.03,-5.73 -31.33,-44.34 -47.81,-58.91 -32.81,-29.01 -57.98,-19.11 -81.8,-35.46 55.41,-86.61 146.48,-8 129.61,94.37zm-232.67 -91.58c37.57,32.19 52.55,17.55 79.82,33.46 -12.57,22.17 -8.98,16.32 -29.42,35.09 -79.99,5.27 -114.5,-51.17 -98.58,-132.28 20.26,20.8 23.14,42.27 48.18,63.73zm-115.07 78.83c-21.06,-19.99 -34.38,-63.08 -84.35,-79.42 -30.47,-9.97 -32.54,-0.02 -36.35,-9.11 -1.01,-2.41 -4.11,-1.25 -6.05,-2.16 47.7,-97.28 165.84,7.79 126.75,90.69zm-1984.13 -16.16c-11.89,-136.56 125.73,-161.34 161,-82.16 -145.13,10.83 -101.54,56.23 -161,82.16zm-224.75 -65.47c46.91,-4.01 61.31,-1.78 98.91,-25.31 39.9,-24.97 27.74,-39.89 61.27,-58.44 10.21,139.89 -130.02,164.78 -160.18,83.75zm2314.98 -156.98c15.35,5.35 35.19,47.5 46.73,58.46 23.5,22.3 49.61,22.46 80.98,35.08 -33.08,87.01 -152.1,20.86 -127.71,-93.54zm-156.42 72.17c-7.87,-2.53 -14.9,-3.48 -21.37,-5.69 -16.62,-5.68 -11.36,-4.01 -18.63,-9.2 65.56,-89.91 158.33,21.87 126.58,96.06 -23.45,-19.87 -20.76,-41.27 -50.61,-63.66 -10,-7.49 -20.25,-12.45 -35.97,-17.51zm-185.34 -80.33c5.15,4.8 5.72,4.78 13.77,15.29 74.04,96.52 59.31,45.85 111.02,77.34 -55.13,91.98 -160.27,-11.6 -124.79,-92.63zm-1785.98 140.52c-7.4,-108.4 88.17,-167.51 155.5,-93.21 -11.96,10.96 -2.42,6.57 -26.67,13.99 -145.8,44.6 -63.37,50.1 -128.83,79.22zm179.26 -67.42c42.75,1.34 66.77,-0.72 97.17,-21.53 35.2,-24.08 31.66,-37.87 59.3,-57.66 40.95,97.34 -118.47,184.9 -156.47,79.19zm1665 -129.77c10.68,15.88 10.56,17.4 25.19,29.6 39.96,33.34 51.59,10.33 79.32,40.36 -73.11,67.94 -141.23,1.86 -131.45,-99.35 22.65,7.48 8.17,1.47 26.94,29.39zm255.85 120.89c-50.47,-26.5 18.6,-37.09 -105.99,-87 -17.04,-6.83 -13.07,-5.58 -21.08,-11.48 46.22,-79.97 143.96,-10.79 127.07,98.48zm-1728.12 -11.62c-45.11,-93.03 103.94,-179.5 153.78,-86.86l-52.38 9.78c-64.24,13.76 -81.6,62.45 -101.4,77.08zm1253.85 -95.93c69.39,-79.44 137.64,-8.21 131.95,92.98 -33.67,-18.13 -19.72,-31.18 -57.27,-62.28 -34.95,-28.95 -51.29,-13.59 -74.68,-30.7zm-1114.41 -59.83c132.26,-4.89 103.14,-57.06 155.54,-81.48 16.9,93.21 -36.19,131.57 -126.67,123.67 -17.52,-19.1 -21.68,-16.37 -28.87,-42.19zm-175.7 66.73c-49.83,-89.48 116.45,-189.63 153.67,-80.37 -107.11,-2.34 -106.66,34.44 -153.67,80.37zm1522.76 -149.97c11.9,10.38 -2.87,-11.33 14.86,19.58 49.5,86.29 68.53,43.85 111.84,78.17 -55.14,86.55 -156.2,-13.45 -126.7,-97.75zm-66.56 150.84c-23.82,-11.37 -8.97,-5.08 -26.62,-31.97 -38.98,-59.4 -66.01,-37.61 -97.68,-66.44 65.03,-77.36 137.42,6.69 124.3,98.41zm-293.2 -160.59c27.55,19.42 20.28,40.01 50.66,63.11 29.89,22.73 50.09,14.45 77.05,35.33 -48.89,79.81 -142.85,8.04 -127.71,-98.44zm31.31 -85.03c9.35,8.29 5.87,4.11 15.16,15.65l36.92 45.23c32.06,24.99 52.98,15.02 77.34,31.95 -56.08,84.71 -139.59,12.34 -129.42,-92.83zm-831.92 157.24c-14.9,-131.26 117.1,-169.16 161.12,-83.32 -139.98,8.14 -101.68,44.5 -161.12,83.32zm-224.75 -64.41c66.36,-26.04 50.92,23.62 137.58,-69.42 7.41,-7.96 4.28,12.56 9.76,-10.06 0.79,-3.24 3.36,-3.48 5.07,-5.19 45.75,98.61 -111.41,176.07 -152.41,84.67zm1358.83 55.82c-32.5,-21.15 -21.99,-40.47 -54.98,-65.25 -33.48,-25.16 -48.29,-11.19 -73.19,-35.89 70.69,-73.8 140.79,4.77 128.17,101.14zm-977.63 -146.32c121.94,-9.57 91.37,-31.92 160.5,-80.84 13.18,131.6 -125.22,170.18 -160.5,80.84zm-194.96 65.2c-11.52,-123.63 112.73,-175.53 158.26,-81.82 -95.42,0.14 -95.86,20.86 -141.21,67.74 -12.76,13.19 -0.55,2.92 -17.05,14.08zm1038.62 -74.41c-62.03,92.15 -147.89,-1.33 -128.25,-97.9 49.94,60.09 18.3,63.87 106.87,89.55 23.55,6.83 13.12,3.72 21.38,8.35zm-875.04 -82.59c110.96,5.14 105.96,-36.14 156.09,-77.08 38.8,90.11 -113.82,188.85 -156.09,77.08zm612.99 9.11c60.25,13.18 81.24,59.72 76.28,128.57 -25.85,-13.04 -3.25,2.01 -21.99,-22.19 -4.87,-6.3 -10.24,-15.71 -14.96,-21.14 -15.88,-18.23 -21.38,-19.98 -46.8,-31.94 -1.73,87.36 66.62,52.77 47.56,164.12 -32.37,-20.05 -11.69,-38.66 -48.77,-50.25 0.64,122.73 14.17,770.18 -6.28,836.33l-47.6 -1.19c-11.5,-42.93 -13.93,-1219.96 -2.35,-1298.76l56.1 -1.44 0.55 204.86c43.01,-2.7 64.32,-9.64 92.5,24.06 22.07,26.41 30.01,62.33 18.17,102.93 -30.28,-39.32 -28.95,-61.22 -74.11,-71.84l-33.81 -11.43 5.51 49.31zm-654.4 -109.1c43.92,0.64 66.48,2.83 102.35,-20.92 32.52,-21.54 28.58,-41.79 56.93,-57.83 16.81,125.77 -125.57,171.6 -159.28,78.75zm315.33 -146.1c9.58,-37.03 -14.85,-46.39 62.47,-40.39l-3.92 1298.53 -55.93 -1.68 -0.05 -993.45c-20.54,11.03 -17.26,9.5 -33.94,25.21l-27.21 26.16c-6.72,-129.26 59.23,-71.99 60.94,-160.78 -55.04,14.59 -60.2,32.16 -90.74,71.98 -13.62,-45.07 -0.27,-82.52 26.13,-103.86 53.79,-43.5 66.03,7.6 64.06,-74.48 -71,5.9 -88.84,45.01 -126.49,79.83 -13.3,-91.07 38.9,-130.61 124.68,-127.07zm405 -481.2c-148.99,59.99 -91.1,-173.31 -87.77,-179.48l27.21 -0.29 12.46 55.69c1.02,71.11 -13.18,106.76 52.16,92 15.66,-38.86 1.92,-103.19 16.95,-147.1l36.26 1.37c13.88,35.3 10.54,141.95 2.48,183.36 -76.9,7.32 -8.61,-26.14 -59.75,-5.55zm217.22 -132.77c14.04,-48.19 76.51,-76.04 125.93,-40.98 34.51,24.48 20.2,131.15 29.07,181.55 -25.06,-0.92 -50.78,-7.51 -54.21,-7.52 -30.83,-0.06 -38.26,26.74 -98.24,-4.41 -40.14,-129.35 79.1,-67.74 96.24,-128.64 -57.12,-49.84 -34.51,31.32 -98.79,0zm-42.19 -43.8c56.27,67.52 -25.92,-58.21 15.34,16.6l-30.27 27.2c0.03,196.33 20.06,36.48 34.27,138.7 -49.76,13.24 -79.57,12.65 -83.32,-47.48 -1.32,-21.26 2.76,-53.45 0.22,-72.96 -6.78,-52.02 2.61,-0.98 -21.53,-45.46l24.8 -51.39c13.26,-24.38 17.04,-21.66 44.79,-32.39 0.41,16.42 -2.29,37.31 3.83,51.8 9.93,23.51 -5.45,-5.41 11.87,15.38zm331.33 140.72c-12.36,-50.01 -145.77,-25.34 -100.2,-118.34 21.78,-44.46 124.65,-51.18 141.82,22.14 -80.02,11.39 -38.41,-35.84 -100.69,-9.79 9.01,28.43 14.18,20.13 57.08,33.95 25.86,8.34 33.62,15.69 48.37,31.21 14.58,120.84 -136.18,111.83 -157.17,34.55 72.32,-35.61 34.35,51.98 110.79,6.28zm-731.75 -143.8c30,0.28 38.07,6.31 53.89,4.08 16,-2.27 21.38,-17.33 43.43,-6.24 17.89,9.01 19.97,22.61 5.01,39.11l-25.99 11.76c-45.18,13.07 9.06,-6.98 -22.03,4.03 -24.94,133.4 27.31,129.84 -43.57,134.33 -21.84,-31.49 -12.88,-150.07 -10.74,-187.07zm-81.71 -59.67c20.1,21.17 29.02,23.42 29.13,61.23 -31,11.44 -23.54,11.19 -45.88,-0.16 -23.33,19.54 -16.49,13.51 -26.28,47.42l81.24 1.05 -0.53 106.54c-63.85,34.28 -91.4,43.75 -173.81,19.57 -42.45,41.28 -65.67,67.85 -125.63,105.87 -45.22,28.66 -109.36,56.11 -172.55,67.93l1.22 489.46c-58.21,-9.02 -60.91,-22.05 -107.86,12.72 55.35,-24.23 101.62,-30.34 123.26,28.8 -125.75,2.69 -124.46,61.94 -159.33,82.96 -1.13,-9.85 -2.19,-29.08 -3.55,-37.44 -3.22,-19.72 -3.65,-15.49 -6.32,-21.96l-15.82 16.43c-2.85,80.73 -72,141.65 -147.59,89.88 -15.43,7.49 -13.29,4.73 -10.97,28.56l12.73 22.06c-83.92,-4.83 -110.86,24.6 -146.27,73.91l-11.56 17.64 4.1 27.59c59.08,73.36 -93.1,190.74 -148.72,90.13l45.54 -10.43c39.04,-7.11 56.17,-23.26 84.62,-49.14l-4.14 -77.56 -0.64 -17.14c-37.67,76.73 -66.96,122.9 -162.01,69.11l-8.21 0 0.5 7.92c3.72,25.95 7.11,15.65 18.34,45.09 -125.31,-3.03 -121.66,69.88 -157.68,81.2l-8 -33.49 -18.86 4.53c-20.88,110.77 -87.88,109.3 -161.96,69.92 -0.15,28.32 6.9,33.42 15.64,57.97 -90.31,-4.36 -112.19,27.63 -149.36,77.9 -5.96,-7.48 -3.95,-2.22 -9.86,-18.28l-5.97 -53.44c1.33,-231.3 -7.17,-1278.3 6.06,-1319.15 14.55,-116.97 112.28,-275.06 243.61,-192.78 108.85,68.2 111.66,198.54 111.65,360.73 -0.01,314.8 1.03,629.77 -0.09,944.56 38.96,-22.56 39.55,-24.53 92.06,-28.59 -9.45,-269.25 -0.9,-554.34 -0.9,-825.33l0 -1241.77c0,-132.28 -6.75,-252.14 69.23,-337.04 95.54,-106.77 205.86,-49.17 257.92,53.9 49.5,97.98 31.96,249.09 31.99,371.6 126.06,-33.85 197.86,-73.11 356.35,-35.48 201.78,47.9 349.13,206.98 403.87,404.16 44.28,159.46 17.04,211.25 1.29,360.84zm38.06 2426.93c58.18,38.97 76.34,69.24 181.45,63.86 79.53,-4.06 115.45,-46.79 153.92,-91.05 0,45.01 -11.15,70.51 23.25,85.54 24,10.48 83.59,10.48 107.59,0 34.26,-14.97 23.99,-48.36 23.41,-94.44 -0.5,-39.27 -0.16,-78.7 -0.16,-117.99l45.32 0c0,42.89 -13.93,189.7 17.16,209.45 13.52,8.58 73.01,12.08 99.28,6.82 43.81,-8.76 37.65,-28.13 37.65,-80.31 17.82,20.5 16.29,37.57 45.32,45.32 -7.37,15.35 -25.42,78.34 -27.19,99.7 39.82,26.67 28.68,36.65 99.19,36.77 95.14,0.16 160.09,11.54 218.29,-72.78 1.1,-1.58 2.67,-3.71 3.69,-5.38 1.03,-1.68 2.49,-3.86 3.41,-5.65 16.35,-31.52 10.78,-64.21 10.78,-97.98 42.86,49.3 115.41,101.57 224.54,79.53 89.76,-18.14 139.79,-83.41 139,-179.47 -1.12,-138.66 -152.62,-191.08 -269.9,-150.86 -72.93,25.01 -50.38,40.55 -93.64,69.52 0,-42.73 -1.61,-40.55 -9.06,-72.52 -36.9,-8.59 -48.32,-12.94 -97.5,-6.32 -79.81,10.77 -101.85,-29.94 -182.01,16.86 -26.17,15.28 -47.44,30.43 -55.86,61.98 -52.99,-35.49 -66.06,-111.75 -180.06,-80.49 -57,15.63 -60.25,-6.61 -128.22,-1.62 -64.35,4.72 -54.28,26.94 -54.28,91.17 -6.74,-7.75 -2.77,-2.38 -12.1,-15.08 -20.86,-28.39 -19.81,-33.08 -50.73,-48.98 -22.34,-11.49 -74.9,-31.32 -102.02,-33.24 -65.24,-4.61 -140.68,34.41 -179.58,79.17 0,-56.97 3.53,-71.22 -54.39,-72.51 14.69,-30.61 2.17,-44.2 -18.12,-63.45 459.85,0 380.69,89.01 380.69,-652.61 9.51,5.04 37.18,20.34 49.84,23.44l44.05 2.51c58.66,1.4 -8.21,30.83 94.1,94.24l108.8 72.48c28.66,20.77 -5.12,6.51 36.63,17.75 31.14,8.38 38.74,-0.66 61.85,46.92 15.83,32.59 72.56,66.57 101.81,88.53 39.84,29.91 107.39,81.27 155.52,71.08 2.83,33.99 14.31,58.41 36.56,72.22l69.96 47.86c69.38,62.17 156.26,81.06 170.25,92.61 56.49,46.66 71.98,38.23 150.37,35.87 83.2,-2.51 124.48,27.46 198.28,-21.96 67.58,45.25 197.48,40.39 200.1,-71.84 1.18,-50.86 3.27,-102.57 -21.26,-143.26 -28.42,-47.17 -36.49,-58.72 -84.28,-87.93 -33.08,-20.21 -81.91,-24.2 -116.9,-46.25 -35.49,-22.37 -1.51,-44.22 -78.52,-93.7l-42.6 -38.98c-17.85,-13.98 -33.6,-15.81 -52.1,-29.48 -44.91,-33.18 -39.83,-58.42 -112.62,-41.47 -10.56,-45.36 -27.22,-68.43 -62.77,-91.31 -54.79,-35.28 -104,-82.29 -167.91,-104.01 -56.44,-19.18 -27.07,-37.96 -115.1,-102.44 -22.98,-16.83 -41.82,-27.43 -64.54,-44.23 -17.2,-12.72 -5.93,-4.92 -14.65,-12.54l-51.9 -29.68c-58.09,-13.75 -47.25,12.55 -67.8,-31.89 -13.63,-29.47 -17.16,-42.65 -47.14,-61.64 -30.76,-19.47 -33.78,-29.77 -62.33,-46.43 -32.17,-18.79 -42.46,-11.4 -73.16,-35.61 -31.94,-25.19 -28.22,-28.89 -70.83,-32.99 -32.69,-3.15 -19.23,12.56 -38.49,-29.28 -16.7,-36.28 -42.61,-46.92 -70.69,-65.9 -29.78,-20.13 -24.8,-36.16 -62.53,-46.23 0,-140.12 -2.4,-226.56 -167.72,-214.42 -23.87,1.76 -87.71,0.08 -109.47,-0.74l-105.12 -1.35c-79.79,-4.89 -89.75,27.42 -149.21,47.55 -71.73,24.29 -75.75,52.3 -139.22,69.25l0 -199.41 122.99 -49.22 101.51 -79.77c67.66,-67.86 18,-34.38 115.92,-57.44 52.18,-12.29 65.45,5.15 149.04,5.15l27.19 -45.32c20.39,76.39 166.32,39.35 238.61,43.32 32.94,1.81 63.42,2.07 96.74,2.02 61.23,-0.11 145.88,-4.13 190.36,-4.13 63.78,0.01 123.02,24.04 170.62,-24.67 49.75,-50.9 33.67,-76.83 29.27,-152.95 -11.62,-200.79 -214.29,-104.67 -224.37,-106.19 -67.33,-10.15 -20.52,-42.94 -156.8,-11.19 -2.02,-90.76 -82.01,-80.01 -131.98,-41.34 -43.35,33.55 -0.7,29.82 -80.02,38.41 -31.27,3.38 -63.85,-4.41 -105.28,-6.71l-108.73 0.58c5.46,-65.56 27.37,-112.77 27.72,-181.18 0.54,-106.26 -36.57,-259.5 -88.2,-347.5 -11.73,-19.99 -12.35,-17.21 -21.9,-32.48 -126.88,-202.83 -246.76,-275.14 -477.46,-329.24 -76.84,-18.02 -131.36,2.12 -201.54,2.12 0,-96.57 -1.56,-171.24 -33.43,-238.48 -9.54,-20.13 -11.7,-19.46 -24.58,-38.87 -75.08,-113.12 -167.89,-198.14 -321.33,-129.18 -62.72,28.18 -99.67,85.44 -135.82,145.16 -68.46,113.04 -55.87,316.84 -55.87,497.04 0,187.32 0,374.65 0,561.97 -35.28,-23.62 -110.94,-67.19 -171.66,-63.73 -60.78,3.46 -130.4,46.71 -166.19,79.38 -30.53,27.87 -76.11,115.13 -86.12,158.61 -38.92,169.08 -20.17,984.83 -20.17,1203.47 -55.46,-37.14 -85.2,-61.89 -166.78,-77.95 -158,-31.09 -261.04,7.46 -383.56,98.64 -67.47,50.21 -80.18,71.33 -107.93,145.86 -28.76,77.22 -49.3,97.77 -48.94,204.87 0.14,40.6 -3.15,86.14 5.69,121.63l33.64 93.25c23.45,68.47 -14.2,155.42 51.42,202.37 53.25,38.1 142.1,32.86 190.45,-9.16 53.89,36.07 130.75,44.84 206.64,34.42 38.57,-5.3 46.86,-20.12 76.98,-39.91 27.61,-18.14 15.22,7.85 39.69,-24.11 7.61,-9.94 5.6,-12.13 18.55,-27.24 32.47,-37.84 62,-42.87 129.47,-42.87l0 -36.25c82.91,0 129.53,-4.22 135.96,-81.58 12.66,14.56 16.45,21.9 36.26,27.19 8.95,-33.52 25.06,-46.79 51.13,-66.7 40.12,-30.66 39.66,-23.94 102.96,-23.94l0 -36.26c62.85,30.16 130.27,-13.2 135.96,-81.57l8.08 10.05c0.87,0.96 3.11,3.69 4.21,4.85 1.1,1.16 3.1,3.48 4.34,4.72 11.43,11.4 7.25,8.35 19.62,16.63 36.42,-75.89 70.1,-90.64 163.16,-90.64l0 -36.25c78.15,0 121.22,-18.33 135.96,-81.58 10.26,14.77 9.11,19.9 27.19,27.19 15.69,-29.66 29.98,-48.66 56.39,-70.5 33.63,-27.82 51.31,-20.14 106.76,-20.14l0 -36.25c104.91,50.33 285.05,-158.23 381.17,-171.74 51.77,-7.27 25.46,6.51 62.97,-18.61l-0.01 707.01c-0.22,84.41 -4.33,156.74 72.52,163.14 -1.95,1.24 -5.41,-0.09 -6.42,2.65 -5.35,14.6 1.17,-1.22 -12.86,5.32 -48.4,22.55 -23.77,41.08 -51.52,67.21 -21.36,20.11 -16.42,-13.17 -28.9,33.59 -28.57,-15.12 -43.55,-28.02 -80.22,-38.4 -62.01,-17.57 -63.31,20.99 -130.76,5.54 -55.75,-12.77 -118.76,-7.69 -124.39,60.05 -15.19,-11.13 2.06,2.18 -14.05,-13.15 -1.15,-1.1 -3.31,-3.25 -4.6,-4.46 -80.49,-75.69 -238.4,-68.81 -297.78,27.49 -0.99,1.6 -2.49,4.24 -3.36,5.71l-6.52 11.6c0,-71.25 4.48,-141.29 -9.06,-199.41 -194.04,-45.2 -154.09,27.95 -154.09,199.41 -38.32,-28.07 -85.59,-119.03 -211.05,-93.86 -85.62,17.19 -154.72,76.2 -159.96,167.52 -11.05,192.55 255.93,237.35 358.95,104.62 9.91,-12.76 3.58,-5.37 12.06,-15.13 0,62.07 -1.36,82.8 55.11,90.38 46.98,6.31 96.5,4.5 108.04,-45.06 50.9,13.6 51,61.04 153.17,44.19 56.76,-9.36 15.68,-21.34 70.43,-5.93 39.54,11.13 55.68,8.47 99.15,2.97 46.84,-5.92 133.02,24.03 163.81,-16.93 23.45,-31.18 11.96,-145.37 11.96,-196.51l36.26 0c0,72.92 -4.77,149.08 9.06,208.47 43.08,10.04 129.14,25.05 143.23,-19.93 5.15,-16.45 1.8,-159.58 1.8,-188.54l9.06 0c0,135.7 20.58,230.09 163.11,217.97 46.97,-3.99 62.42,-15.53 63.49,-63.89z"/>
    <path class="fil6" d="M2339.89 4054.8l62.48 1.48 1.57 161.73 96.61 2.73 0.55 53.07 -163.13 -1.23 1.92 -217.78zm-555.53 -0.4l61.61 -0.29 -1.01 220.38 -63.22 -0.14 2.62 -219.95zm314.46 220.11c6.4,-44.96 23.4,-83.12 37.76,-122.66 39.63,-109.11 20.8,-98.76 105.88,-95.93l73.09 218.18c-140.52,1.12 4.73,-40.23 -139.39,-35.67 -33.05,45.4 0.3,35.64 -77.34,36.08zm716.34 -208.69c144.65,-90.77 221.2,148.03 109.15,202.4 -63.06,30.59 -129.26,1.39 -149.62,-41.99 -13.14,-28 -15.39,-64.7 -8.31,-97.76 9.1,-42.46 24.24,-47.25 48.78,-62.65zm-920.48 -10.56c107.5,-3.34 186.08,-16.08 188.08,107.9 1.95,120.47 -84.81,114.26 -190.3,110.1l2.22 -218zm-289.14 64.82l61.77 4.37c1.44,-26.2 -7.68,-69.81 16.11,-69.58l54.97 3.1 -0.06 214.04 -57.81 2c-13.14,-17.01 -10.91,25.49 -12.12,-29.05l0.39 -56.69 -64.52 6.59 -0.22 78.21 -64.32 0.19 1.96 -218.82 62.33 2.12 1.52 63.52zm1069.79 83.71l-49.75 -13.37 4.7 -44.1c35.14,-8.13 70.93,-10.98 104.12,3.25l0.95 68.19c-1.9,40.26 1.25,13.11 -12.5,26.21 -47.68,62.75 -202.62,53.98 -201.07,-80.72 1.6,-140.17 178.14,-150.81 202.23,-54.25 -77.62,39.57 -56.18,-25.94 -109.73,0.49 -71.59,38.97 -0.64,175.04 61.05,94.3zm-1169.9 -149.18c0,202.94 -26.97,262.86 72.51,262.86 65.69,0 54.38,-37.21 54.38,-99.71l9.07 0c0,103.31 11.72,99.71 81.57,99.71 30.71,0 4.49,-11.77 34.69,-11.2 41.24,0.78 -12.4,11.2 65.02,11.2 47.69,0 9.6,-9.45 47.15,-11.49 28.3,-1.53 13.93,11.49 52.55,11.49 56.25,0 97.43,6.3 135.96,-27.19 17.05,11.41 50.05,46.27 111.23,20.59 26.02,-10.93 22.17,-7.89 24.73,-38.72l27.19 0c16.13,69.23 65.72,40.75 108.77,40.84 103.99,0.22 182.41,31.89 199.41,-31.78 122.27,81.88 156.54,9.65 226.6,-9.06 53.32,35.7 40.31,45.32 117.83,45.32 143.08,0 164.06,-181.33 106.85,-251.87 -57.97,-71.47 -203.58,-62.82 -224.68,16.2l-15.15 -21.1c-56.16,-70.98 -188.68,-49.26 -224.85,7.71 -20.25,31.89 -41.28,83.76 -22.85,122.16l-54.39 0c0,-167.5 18.12,-172.21 -81.58,-172.21 -65.69,0 -54.38,37.21 -54.38,99.7 -27.7,-31.87 -13.91,-44.06 -36.26,-90.64 -74.34,-17.32 -136.07,-26 -145.02,81.58l-18.13 0c-9.99,-120.03 -171.1,-87.65 -228.6,-84.51 -30.26,1.65 -26.03,-6.13 -61.45,-6.13 -22.19,0 -34.99,5.08 -46.43,5.34 -86.53,2.03 -125.78,-44.49 -125.78,76.23l-9.07 -72.51c-31.33,-7.3 -126.89,-27.93 -126.89,27.19z"/>
    <path class="fil6" d="M800.3 3646.01c-47.44,-0.39 -91.63,6.68 -123.24,-8.32l-1.1 -36.28c24.95,-17.47 52.68,-13.25 86.16,-12.73l256.12 1.82 -3.07 54.55 -122.43 4.31 -2.88 305.15 -87.77 -4.05 -1.79 -304.45zm-155.95 -53.66c0,89.36 -10.25,90.64 126.89,90.64 -19.37,40.37 -8.75,125.38 -9.13,181.34 -0.85,126.79 7,126.83 108.83,126.83 27.84,0 54.39,-8.39 54.39,-36.25l0 -271.92c78.99,0 126.89,11.6 126.89,-72.51 0,-27.84 -8.39,-54.39 -36.25,-54.39l-335.37 0c-21.22,0 -36.25,15.04 -36.25,36.26z"/>
    <path class="fil6" d="M3300.1 3837.07l0 -18.12c0,-24.48 4.33,-24.99 9.07,-45.32l36.25 0 0 90.64c-29.05,-0.65 -45.32,2.95 -45.32,-27.2zm-1.44 -93.56c-59.61,34.03 -46.29,182.39 52.97,155.34 46.45,-12.67 50.99,-139.06 7.52,-157.88 -23.24,-10.06 -43.09,-7.4 -60.49,2.54z"/>
    <path class="fil6" d="M3653.6 3837.07c0,-67.26 -5.14,-63.44 54.38,-63.44l0 90.64c-36.72,0 -54.38,5.03 -54.38,-27.2zm-2.09 -94.24c-66.68,37.74 -36.36,193.7 59.83,152.88 71.37,-30.28 36.99,-207.67 -59.83,-152.88z"/>
    <path class="fil6" d="M2593.11 3837.07l9.06 -63.44c58.28,0 54.39,-2.79 54.39,63.44 0,38.67 -63.45,38.67 -63.45,0zm-32.51 9.07c15.64,85.23 149.36,80.73 128.64,-52.61 -14.42,-92.89 -153.23,-81.37 -128.64,52.61z"/>
    <path class="fil6" d="M1224.44 3864.27c-58.27,0 -54.38,2.78 -54.38,-63.45 0,-44.16 41.18,-23.32 63.45,-18.13 0,32.82 0.91,59.25 -9.07,81.58zm38.73 -9.07c39.38,-121.38 -97.7,-162.31 -122.97,-75.67 -37.83,129.7 95.42,160.61 122.97,75.67z"/>
    <path class="fil6" d="M2865.03 4136.19c26.21,19.2 18.13,7.38 18.13,54.38l-18.13 0 0 -54.38zm36.92 72.51c37.79,-50.28 -19.37,-149.38 -63.62,-90.64 -38.64,51.29 17.27,152.31 63.62,90.64z"/>
    <path class="fil6" d="M1957.38 4219.77l46.81 -1.59c25.82,-51.25 28.89,-109.68 -46.7,-110.14l-0.11 111.73z"/>
    <path class="fil6" d="M1755.64 3840.27c-57.54,-5.63 -112.1,-8.43 -99.44,54.2 49.15,11.94 103.58,13.81 99.44,-54.2z"/>
    <path class="fil6" d="M2331.81 1697.87c19.71,10.25 32.37,13.21 57.44,4.31 27.56,-9.77 26.06,-14.11 24.52,-48.73l-51.09 -0.56 -30.87 44.98z"/>
    <path class="fil6" d="M3043.54 1698.69l5.96 -32.85 -32.79 5.15 -22.81 17.91c15.73,34.91 25.22,31.29 49.64,9.79z"/>
    <polygon class="fil6" points="2186.01,4187.89 2225.32,4187.88 2201.98,4125.83 "/>
   </g>
   <polygon class="fil7" points="1507.32,2771.4 1525.88,2740.84 1521.78,2713.25 1533.34,2695.61 1517.97,2694.48 1503.18,2693.84 "/>
   <path class="fil8" d="M2372.56 3738.71l55.63 -2.58c1.56,-9.94 6.43,-15.24 4.04,-26.54 -5.96,-28.24 -0.11,-12.07 -17.61,-27.41l11.09 36.69c-12.75,7.41 -0.93,2.08 -23.4,9.67l-15.69 4.38c-2.19,0.76 -5.36,2.13 -7.13,2.76 -1.75,0.63 -4.73,1.8 -6.93,3.03z"/>
   <path class="fil9" d="M2669.32 2476.5l-5.51 -49.31 33.81 11.43c-13.79,-19.97 7.83,-11.47 -32,-18.71 -3.44,6.93 -11.76,4.8 -9.84,30.5 3.59,48.02 -0.46,11.07 13.54,26.09z"/>
  </g>
 </g>
</svg>
