<?xml version="1.0" encoding="UTF-8"?>
<!DOCTYPE svg PUBLIC "-//W3C//DTD SVG 1.1//EN" "http://www.w3.org/Graphics/SVG/1.1/DTD/svg11.dtd">
<!-- Creator: CorelDRAW 2017 -->
<svg xmlns="http://www.w3.org/2000/svg" xml:space="preserve" width="7.1966mm" height="3.8098mm" version="1.1" style="shape-rendering:geometricPrecision; text-rendering:geometricPrecision; image-rendering:optimizeQuality; fill-rule:evenodd; clip-rule:evenodd"
viewBox="0 0 719.66 380.98"
 xmlns:xlink="http://www.w3.org/1999/xlink">
 <defs>
  <style type="text/css">
   <![CDATA[
    .fil3 {fill:#86215B;fill-rule:nonzero}
    .fil2 {fill:#8FC74A;fill-rule:nonzero}
    .fil0 {fill:#00B0C7;fill-rule:nonzero}
    .fil5 {fill:#666366;fill-rule:nonzero}
    .fil4 {fill:#E3BA12;fill-rule:nonzero}
    .fil1 {fill:#E70778;fill-rule:nonzero}
   ]]>
  </style>
 </defs>
 <g id="Capa_x0020_1">
  <metadata id="CorelCorpID_0Corel-Layer"/>
  <g id="_2839423544688">
   <path class="fil0" d="M97.67 282.21c-21.69,-0.45 -34.35,21.07 -20.89,34.98 -4.58,-29.23 34.6,-20.71 25.03,4.27 -9.57,24.96 -41.17,20.83 -51.49,-2.02 -9.74,-21.61 -3.14,-41.94 4.88,-52.78 -52.09,39.41 -17.11,90.17 -15.7,92.17 0.04,0.03 0.04,0.04 0.06,0.08 46.18,34.06 81.69,1.03 87.96,-24.09 6.27,-25.1 -8.14,-52.16 -29.85,-52.61z"/>
   <path class="fil1" d="M39.56 53.13c-0.51,5.66 -12.44,10.78 -19.43,20.43 -7,9.64 7.84,23.51 9.04,23.08 -11,-14.64 1.66,-19.19 4.56,-25.19 2.91,-5.97 5.83,-9.33 5.83,-18.32z"/>
   <path class="fil1" d="M57.51 93.56c9.28,-11.92 6.29,-16.8 0.5,-21.19 -6.68,-5.06 -19.63,-13.22 -18.45,-19.24 -1.2,4.5 -1.97,8.12 5.8,15.98 7.76,7.87 -7.73,20.69 -22.25,32.55 -0.36,0.32 -0.69,0.69 -1.03,1.01 -0.23,0.24 -0.49,0.48 -0.72,0.71 -0.32,0.37 -0.65,0.72 -0.96,1.1 -10.81,12.43 -8.89,31.9 -0.41,57.11 0.27,0.79 0.5,1.57 0.77,2.35 -0.05,-0.13 -0.06,-0.26 -0.09,-0.39 0.87,2.52 1.77,5.06 2.75,7.68 -3.97,-20.24 2.27,-37.78 10.46,-51.05 6.91,-9.07 14.59,-16.22 18.48,-20.6 0.28,-0.33 0.57,-0.65 0.87,-0.98 1.65,-1.8 3.05,-3.46 4.26,-5.01 0.01,-0.02 0.03,-0.03 0.03,-0.03l-0.01 0z"/>
   <path class="fil1" d="M31.38 240.69c4.35,-4.33 12.55,-9.62 20.48,-13.39 7.95,-3.79 29.9,-7.4 21.9,-25.62 0.04,-0.06 -0.04,-0.13 -0.08,-0.2 -2.37,-5.81 -0.05,-10.02 5.71,-13.73 4.94,-50.48 -21.81,-81.23 -32.53,-90.17 34.04,39.41 -2,90.8 -21.1,116.05 -19.14,25.25 -18.86,79.21 -18.86,79.21 0,-0.01 0.01,-0.02 0.01,-0.02 0.38,-22.88 13.1,-40.86 24.47,-52.13z"/>
   <path class="fil2" d="M197.89 62.2c-1.93,-2.4 -17.03,-1.43 -20.94,-4.03 -7.41,-4.97 -15.52,-28.18 -20.18,-36.61 -4.65,-8.43 -16.23,0.12 -19.08,-3.57 -2.87,-3.71 -5.74,-11.09 -13.33,-10.45 -7.58,0.65 -8.4,11.65 -14.34,15.21 -5.02,2.99 -15.98,-4.98 -19.98,5.74 -4.01,10.68 -5.06,24.93 -11.06,25.45 -5.99,0.5 -14.32,5.23 -11.26,20.22 2.44,11.89 4.02,29.45 -6.18,40.14 10.62,15.53 21.1,40.21 17.85,73.45 -0.12,0.08 -0.2,0.14 -0.32,0.23 7.06,-4.69 19.56,-8.6 35.22,-13.87 2.95,-1 5.42,-2.16 7.44,-3.41 17.04,-10.58 -0.65,-23.97 -7.67,-44.83 -2.72,-8.08 -7.77,-18.87 -8.14,-30.13 1.33,-12.09 3.28,-18.51 9.6,-24.41 5.45,-5.09 12.3,-6.63 19.81,-8.15 0.8,-0.15 3.16,-0.8 8.28,-0.33 5.11,0.47 12.42,1.41 16.85,3.31 7.66,3.31 4.92,3.91 14.11,10.02 3.95,2.13 10.42,3.41 18.56,-3.33 6.54,-5.41 6.69,-8.23 4.76,-10.65z"/>
   <path class="fil3" d="M29.19 96.64c3.72,-3.11 7.26,-6.25 10.23,-9.28 -0.1,-0.12 -0.22,-0.23 -0.33,-0.33 -7.16,-7.03 -7.16,-11.2 -5.31,-15.66 0,0.03 -0.04,0.06 -0.04,0.08 -2.92,6 -15.57,10.55 -4.57,25.19l0.02 0z"/>
   <path class="fil3" d="M50.23 101.87c-4.18,4.42 -10.52,10.67 -16.35,18.31 -8.19,13.28 -14.42,30.81 -10.46,51.05l-0.01 0c8.09,24.06 -4.82,54.97 -4.82,54.97 0.01,-0.01 0.01,-0.02 0.02,-0.02 2.02,-4.61 4.37,-8.9 7.15,-12.55 18.43,-24.34 52.54,-72.97 24.47,-111.76z"/>
   <path class="fil4" d="M39.56 358.89l0 0c-54.47,-54.47 -28.97,-97.61 -8.19,-118.25 4.38,-4.32 12.56,-9.62 20.49,-13.4 7.93,-3.77 29.9,-7.39 21.9,-25.61 0.04,-0.06 -0.05,-0.13 -0.07,-0.2 -5.34,-12.97 12.71,-17.96 40.61,-27.39 2.94,-0.98 5.41,-2.14 7.43,-3.38 17.04,-10.59 -0.67,-23.97 -7.65,-44.83 -2.74,-8.09 -7.78,-18.88 -8.15,-30.13 1.34,-12.1 3.27,-18.51 9.57,-24.39 5.46,-5.11 12.32,-6.66 19.82,-8.17 1.84,-0.36 3.7,-0.51 5.31,-0.43 24.44,1.08 24.62,7.33 34.49,13.79 -44.27,-28.55 -57.41,13.09 -48.9,30.31 7.07,14.25 11.82,19.85 17.92,27.85 6.08,7.97 16.3,25.7 6.71,48.09 -9.24,21.54 -46.19,19.08 -35.29,38.25 0.55,0.96 0.95,1.96 1.24,3.02 5.11,19.82 -41.73,18.82 -74.11,54.16 -34.07,37.22 -3.13,80.71 -3.13,80.71z"/>
   <path class="fil5" d="M267.94 180.95c0.74,2.47 2.06,4.69 3.88,6.59 4.49,4.71 12.42,6.99 24.26,6.99 7.69,0 13.86,-0.98 18.3,-2.96 4.62,-2.05 7.81,-5.33 9.49,-9.75 0.89,-2.44 1.33,-5.83 1.33,-10.36l-0.01 -41.74 -9.33 0 0.02 40.36c0,3.54 -0.16,6.06 -0.46,7.54 -0.29,1.27 -0.82,2.41 -1.64,3.33 -2.63,3 -8.5,4.53 -17.45,4.53 -8.25,0 -13.91,-1.32 -16.77,-3.9 -1.1,-0.99 -1.81,-2.12 -2.15,-3.47 -0.38,-1.47 -0.57,-4.18 -0.57,-8.03l0 -40.36 -9.96 0 0 41.74c0,3.92 0.34,7.12 1.06,9.49zm-55.77 12.54l0 -27.37 20.67 0c5.69,0 10.16,-0.46 13.31,-1.41 3.28,-0.99 6.02,-2.75 8.16,-5.25 2.78,-3.22 4.17,-7.14 4.17,-11.65 0,-3.26 -0.76,-6.27 -2.27,-8.93 -1.37,-2.38 -3.21,-4.28 -5.43,-5.63 -2.1,-1.34 -4.53,-2.28 -7.2,-2.79 -2.58,-0.5 -6.21,-0.74 -10.74,-0.74l-30.71 0 0 63.77 10.04 0zm0 -55.01l21.33 0c3.32,0 5.78,0.14 7.34,0.37 1.42,0.24 2.74,0.71 3.89,1.39 2.56,1.49 3.82,4.03 3.82,7.72 0,3.64 -1.26,6.16 -3.82,7.66 -1.15,0.69 -2.44,1.14 -3.92,1.38 -1.57,0.25 -4.02,0.38 -7.31,0.38l-21.33 0 0 -18.9zm330.24 47.29c6.79,5.82 15.79,8.76 26.75,8.76 6.25,0 11.91,-0.94 16.87,-2.84 6.71,-2.58 12.04,-6.82 15.83,-12.66 3.42,-5.25 5.18,-11 5.18,-17.06 0,-4.46 -0.8,-8.67 -2.39,-12.54 -1.91,-4.7 -4.84,-8.73 -8.68,-12.01 -6.82,-5.82 -15.87,-8.77 -26.91,-8.77 -6.37,0.1 -12,1.06 -16.73,2.86 -6.78,2.62 -12.13,6.87 -15.84,12.61 -3.42,5.3 -5.16,11.16 -5.16,17.45 0,4.24 0.8,8.34 2.39,12.21 1.96,4.67 4.88,8.71 8.69,11.99zm6.06 -40.8c4.98,-4.81 11.93,-7.26 20.61,-7.26 4.51,0.04 8.57,0.65 12.09,1.85 3.11,1.03 6.06,2.85 8.8,5.41 4.52,4.26 6.8,9.97 6.8,16.97 0,6.51 -2.23,11.86 -6.8,16.29 -5.01,4.81 -12.01,7.25 -20.81,7.25 -8.76,0 -15.73,-2.44 -20.69,-7.24 -4.62,-4.44 -6.87,-9.89 -6.87,-16.67 0,-6.75 2.25,-12.18 6.87,-16.6zm-54.38 48.52l9.99 0 -0.01 -55.01 25.83 -0.03 0 -8.73 -61.61 0 0 8.73 25.83 0.03 -0.03 55.01zm-78.41 -27.37l20.94 0c1.51,2.42 6.68,10.72 11.73,19.21 6.53,10.94 14.74,16.71 23.73,16.71 4.01,0 8.16,-1.17 12.33,-3.46l-1.43 -2.59c-0.01,0.01 -1.91,1 -4.89,1 -4.51,0 -11.41,-2.27 -18.58,-12.97l-11.75 -18.48c4.59,-0.73 8.35,-2.45 11.18,-5.15 3.36,-3.21 5.05,-7.38 5.05,-12.41 0,-3.34 -0.77,-6.41 -2.31,-9.1 -1.37,-2.37 -3.19,-4.27 -5.42,-5.63 -2.1,-1.33 -4.64,-2.24 -7.44,-2.76 -2.74,-0.51 -6.48,-0.77 -11.12,-0.77l-31.98 0 0 63.77 9.95 0 0.01 -27.37zm0 -27.64l22.52 0c3.5,0 6.1,0.14 7.73,0.37 1.52,0.24 2.92,0.71 4.15,1.4 2.66,1.5 3.96,4.03 3.96,7.71 0,3.64 -1.25,6.15 -3.83,7.65 -1.14,0.66 -2.5,1.1 -4.03,1.36 -1.61,0.28 -4.08,0.41 -7.35,0.41l-23.15 0 0 -18.9zm81.2 86.43l-5.08 -11.12 -8.89 0 -29.46 63.75 10.44 0 7.87 -17.03 30.62 0 7.77 17.03 11.02 0 -23.86 -51.76 -0.43 -0.87zm-21.18 26.83l11.38 -24.98 11.38 24.98 -22.76 0zm-68.1 -37.95l-9.97 0 0 63.75 54.05 0.01 0 -8.76 -44.1 0.01 0.02 -55.01zm245.12 8.72l0 -8.74 -61.64 0 0 8.74 25.84 0.01 0 55.02 9.96 0 0 -55.02 25.84 -0.01zm-51.79 58.46c-4.52,0 -11.41,-2.26 -18.58,-12.98l-11.76 -18.48c4.59,-0.72 8.34,-2.44 11.16,-5.14 3.37,-3.2 5.08,-7.39 5.08,-12.43 0,-3.33 -0.79,-6.39 -2.33,-9.08 -1.36,-2.36 -3.2,-4.26 -5.42,-5.63 -2.08,-1.32 -4.59,-2.26 -7.42,-2.78 -2.75,-0.5 -6.39,-0.75 -11.12,-0.75l-31.99 0 0 63.75 9.96 0 0 -27.35 20.94 0c1.51,2.41 6.69,10.72 11.75,19.21 6.5,10.94 14.71,16.7 23.71,16.7 4,0 8.15,-1.15 12.33,-3.44l-1.41 -2.62c-0.02,0.02 -1.92,1.02 -4.9,1.02zm-39.27 -39.61l-23.15 0 0 -18.9 22.52 0c3.52,0 6.11,0.11 7.72,0.38 1.51,0.23 2.91,0.69 4.17,1.38 2.67,1.52 3.96,4.03 3.96,7.7 0,3.65 -1.26,6.17 -3.84,7.66 -1.12,0.66 -2.48,1.11 -4.03,1.37 -1.63,0.27 -4.11,0.41 -7.35,0.41zm-305.22 -27.57l-22.11 50.64 -22.01 -50.64 -10.97 0 27.9 63.75 9.5 0 28.1 -63.75 -10.41 0zm432.47 11.99l-0.42 -0.87 -5.09 -11.12 -8.88 0 -29.48 63.75 10.44 0 7.88 -17.03 30.62 0 7.79 17.03 11 0 -23.86 -51.76zm-21.61 25.96l11.36 -24.98 11.4 24.98 -22.76 0zm-368.53 -37.95l-8.87 0 -29.46 63.75 10.44 0 7.85 -17.03 30.64 0 7.78 17.03 10.99 0 -23.87 -51.76 -5.5 -11.99zm-16.08 37.95l11.35 -24.98 11.4 24.98 -22.75 0zm67.34 -86.64l30.44 0 0 -8.75 -30.44 0.01 0 -17.88 43.65 -0.03 0 -8.73 -53.6 0 0.02 63.77 54.16 -0.02 0 -8.77 -44.23 0.02 0 -19.62zm-4.36 48.69l-9.96 0 0 63.75 54.06 0.01 0 -8.76 -44.1 0.01 0 -55.01z"/>
  </g>
 </g>
</svg>
