<?xml version="1.0" encoding="UTF-8"?>
<!DOCTYPE svg PUBLIC "-//W3C//DTD SVG 1.1//EN" "http://www.w3.org/Graphics/SVG/1.1/DTD/svg11.dtd">
<!-- Creator: CorelDRAW 2017 -->
<svg xmlns="http://www.w3.org/2000/svg" xml:space="preserve" width="14.8166mm" height="14.8166mm" version="1.1" style="shape-rendering:geometricPrecision; text-rendering:geometricPrecision; image-rendering:optimizeQuality; fill-rule:evenodd; clip-rule:evenodd"
viewBox="0 0 1481.66 1481.66"
 xmlns:xlink="http://www.w3.org/1999/xlink">
 <defs>
  <style type="text/css">
   <![CDATA[
    .fil0 {fill:none}
    .fil1 {fill:#232122}
   ]]>
  </style>
 </defs>
 <g id="Capa_x0020_1">
  <metadata id="CorelCorpID_0Corel-Layer"/>
  <rect class="fil0" width="1481.66" height="1481.66"/>
  <g>
   <path class="fil1" d="M776.3 1333.91c8.67,2.41 14.39,-3.47 9,-8.84 -4.56,-4.55 -11.83,-0.63 -9,8.84zm-109.44 -505.67l-3.54 -2.81c-1.89,-1.17 -3.32,-1.64 -4.86,-2.36 -3.9,-1.82 -6.14,-3.15 -9.55,-4.66 -6.93,-2.88 -44.2,-20.01 -47.78,-23.47 -0.02,-0.05 -1.53,-58.98 1.25,-61.47 4.74,-4.26 178.25,-21.43 184.22,-25.33 4.84,-0.06 8.46,-0.16 13.19,-0.91 1.44,-0.23 4.19,-0.63 5.46,-0.9l5.06 -1.92c6.56,0.96 7.46,0.92 10.87,-1.39 11.68,2.09 141.97,-17.42 164.53,-20.43 22.93,-3.06 153.68,-21.65 165.02,-20.8l-0.04 338.23c9.84,0.41 14.07,2.47 12.77,13.61 -3.2,5.67 -4.92,6.59 -12.88,7.23l0.08 35.39c-8.48,-1.34 -15.19,-8.86 -23.82,-9.41l-8.72 -0.4c-1.4,3.85 -0.51,6.47 -2.88,10.04 -2.33,3.51 -1.09,1.44 -4.07,3.26 -0.27,0.16 -0.67,0.33 -0.93,0.49l-3.24 2.24 43.49 20.18 0.15 237.86c-17.37,4.25 -22.29,-2.67 -36.11,-8.6l-103.13 -47.18c-38.67,-18.99 -96.12,-44.13 -137.28,-62.79 -94.51,-42.82 -182.93,-83.31 -273.08,-125.33l-0.04 -248.15c7.06,1.5 114.5,52.24 122.95,56.31 40.62,19.6 83.87,39.41 124.03,57.41l184.57 85.6c11.99,5.52 53.23,26.57 62.76,28.27 4.46,-5.11 -1.18,-2.36 1.92,-10.37 1.43,-3.68 3.93,-4.27 7.43,-5.26l-2.44 -6.11 -325.56 -155.08c-14.82,-6.89 -103.81,-50.79 -109.8,-50.99zm-27.08 -598.36c8.57,-0.68 38.73,-1.35 43.36,-4.47l14.82 -0.32 0.07 11.53 -169.89 13.6c-5.95,-10.33 -14.97,-22.07 -22.07,-32.28 -7.42,-10.66 -63.61,-90.4 -63.5,-95.31l352.03 -33.07c8.3,0.04 36.46,-0.63 41.35,-4.31 -5.57,-1.24 -6.93,0.84 -10.55,-2.42 -2,-1.8 -3.86,-5.96 -7.02,-7.1 11.5,-5.59 10.06,12.08 18.97,0.26 -5.83,-5.62 -1.28,2.59 -7.52,-3.56l-17.95 1.63 -5.27 0.31 -389.3 35.53c-4.19,6.94 -82.68,266.56 -82.69,271.97 6.65,9.75 15.37,19.18 23.05,28.81 8.5,10.65 18.52,24.62 23.33,27.5 1.04,-4.41 1.83,-6.13 6.31,-7.79 -0.99,-3.87 -16.65,-22.37 -19.39,-25.67 -7.57,-9.09 -14.13,-16.27 -21.1,-25.85l79.97 -248.18c4.94,4.64 84.41,121.62 85.95,126.83l-46.98 73.57c-8.13,12.64 -15.44,24.61 -23.42,36.62 -2.96,4.46 -21.68,31.53 -22.4,36.83l8.86 0.55c-0.14,-14.17 4.78,-11.64 14.83,-14.83 2.47,-5.35 -2.87,-7.53 7.14,-9.79 1.36,2.41 2.54,-0.27 -1.49,7.48 10.31,-1.43 12.04,-1.2 11.73,9.24 0.31,-10.44 -1.42,-10.67 -11.73,-9.24 4.03,-7.75 2.85,-5.07 1.49,-7.48 -10.01,2.26 -4.67,4.44 -7.14,9.79 -10.05,3.19 -14.97,0.66 -14.83,14.83l-8.86 -0.55 -4.47 4.96c-4.47,6.1 -16.19,27.53 -19.64,29.13 2.33,1.99 1.43,-1.47 1.84,3.23 0.16,1.88 -0.15,3.14 -1.21,4.3 -2.87,3.1 -3.88,1.35 -8.52,0.51 1.75,5.18 -0.11,3.53 5.05,6.4 1.82,7.95 4.34,3.4 4.19,18.82 -0.08,8.03 0.38,16.17 -0.44,24.14l-10.77 1.07c-2.77,10.32 -0.91,397.34 -0.83,417.9 0.5,139.83 -0.42,279.6 0.06,419.48 8.53,1.35 190.61,112.68 199.53,115.44 5.28,1.63 148.13,-26.78 160.49,-29.2 70.82,-13.91 140.41,-26.4 211.83,-40.44 71.04,-13.96 142.87,-27.99 214.67,-40.81l1.64 -0.96 0.32 -701.72 -13.07 -2.77c-2.1,-28.4 3.18,-215 -1.17,-221.22l-12.08 -1.72c0.39,8.72 -0.44,9.26 -6.9,15.15 -3.22,2.93 2.25,3.74 -3.75,2.41l8.98 -0.57 -0.1 207.31c-38.08,3.86 -283.19,40.89 -295.52,37.78l-0.6 1.72c-4.64,0.19 -7.43,0.56 -11.61,1.09 -1.23,0.16 -4.49,0.45 -5.44,0.68 -2.72,0.67 -1.77,0.62 -3.18,1.57l-1.38 -1.06c-3.73,0.55 -6.71,0.88 -10.24,1.25 -2.29,0.24 -2.77,0.19 -5.14,0.81 -3.29,0.86 -2.18,0.61 -3.68,1.46l-7.9 0.03 -206.28 27.1 0.21 -218.74c25.55,-2.71 27.55,2.99 33.89,23.74 10.82,35.39 27.29,97.15 44.91,124.99 9.52,15.03 20.17,16.12 41.82,13.21 25.08,-3.37 141.02,-20.5 149.51,-18.7l4.79 -1.79 12.59 -1.58c5.29,-0.51 3.35,-0.96 4.49,-1.67l2.48 0.79 8.55 -2.27c14.17,1.4 66.16,-7.74 84.09,-10.06 80.06,-10.31 81.68,-0.98 102.81,-82.93 3.43,-13.31 16.65,-65.88 16.01,-76.31l0.52 -4.59c-5.02,-4.66 -9.35,-10.72 -3.22,-17.15l4.9 -4.29c-2.46,-4.64 -3.42,-3.76 -5.44,-8.57 1.73,-1.21 1.6,-1.23 3.46,-2.27 4.73,3.91 6.59,7.28 10.51,11.51 -1.15,-7.87 1.89,-11.34 7.63,-13.21 -0.07,0 -5.07,0.18 -5.17,0.15 -4.51,-1.29 -1.08,2.9 -2.91,-2.48 1.84,-18.72 -17.97,-30.47 -31.99,-36.1 -24.76,-9.94 -31.82,-6.53 -57.6,-5.22 8.03,-17.27 4.71,-15.67 -1.71,-31.47 14.34,4.46 101.72,61.28 110.13,61.94l11.12 0.83c1.75,-2.23 4.05,3.68 0.53,-3.7l-0.12 -0.64c-10.29,-5.6 -21.05,-11.99 -30.63,-17.79 -9.62,-5.82 -19.89,-11.22 -30.83,-17.71 -10.73,-6.36 -19.86,-11.48 -30.73,-17.88 -8.34,-4.92 -22.21,-11.48 -29.37,-17.44l50.8 -90.4c15.42,-27.33 14.78,-22.78 -3.06,-46.29 -9.48,-12.48 -19.94,-26.17 -30.4,-39.62l-68.83 -89.81c-4.14,-5.1 -3.93,-4.32 -11.85,-3.54 -10.8,1.06 -21.37,2.01 -32.43,3.02 -12.41,1.13 -55.46,6.82 -64.34,4.71l-15.29 2.71c-4.57,0.54 -10.61,0.71 -14.62,1.24 6.24,6.15 1.69,-2.06 7.52,3.56 -8.91,11.82 -7.47,-5.85 -18.97,-0.26 3.16,1.14 5.02,5.3 7.02,7.1 3.62,3.26 4.98,1.18 10.55,2.42 18.43,1.84 114.17,-12.29 120.71,-9.99 2.52,0.88 69.5,88.62 77.6,98.91 4.9,6.21 22.47,27.14 24.48,33.35l-267.14 20.82 -0.25 -10.99 245.27 -20.43c-0.96,-4.61 -16.85,-23.1 -21.15,-28.24 -8.06,-9.61 -14.37,-17.9 -22.35,-27.68 -7.37,-9.02 -14.58,-18.34 -22.25,-27.79 -6.77,-8.35 -15.88,-21.13 -22.81,-27.31l-138.6 12.88 -1.54 2.29c-0.23,0.33 -0.48,0.71 -0.73,1.05 -0.29,0.38 -1.11,1.45 -1.42,1.78 -4.35,4.73 -8.02,3.68 -13.64,3.08 0.44,8.21 -0.02,10.84 -7.57,13.01 1.76,6.5 1.9,2.41 3.03,9.88 -9.35,-2.12 -22.57,-18.94 -12.42,-25.79l-6.22 -0.56c-6.77,-1.69 -303.53,25.88 -308.49,28.22 5.93,12.86 69.88,95.57 74.23,106.91l105.09 -8.77zm-217.13 341.04c-3.04,22.23 0.27,19.25 9.64,30.97l97.76 109.45c6.28,6.66 12.78,15.63 19.22,22.23 5.26,5.39 15.69,18.46 19.95,21.07 0.85,-20.42 1.08,-20.97 -9.18,-31.84l-137.39 -151.88zm-26.37 -146.62c9.08,-12.15 73.05,-118.41 84.61,-136.68 25.11,-39.68 22.54,-25.55 -5.72,-67.39l-44.4 -65.41c-0.22,0.24 -0.48,0.62 -0.58,0.79l-36.78 110.25c-7.6,25.1 -32.58,94.11 -36.26,111.72 5.84,8.5 13.01,16.5 19.55,24.07 6.97,8.08 12.13,16.17 19.58,22.65zm600.39 416.37c-1.99,-2.68 -1.12,0.12 -2.64,-5.63 -2.98,-11.25 2.04,-17.58 14.11,-17.56 22.65,0.02 15.32,20.52 14.24,21.76 -5.93,3.22 -19.2,3.61 -25.71,1.43zm-207.11 -114.79l-3.15 3.29c-0.05,0.04 -2.21,1.29 -2.46,1.45 1.47,5.65 2.22,1.85 2.54,8.5 -5.26,0.01 -7.92,-2.84 -11.37,-9.15l-6.32 -0.21 0.03 8.53 6.34 -5.13c4.51,9.66 -6.32,11.45 -14.58,10.04 0.66,10.35 -6.59,18.95 -16.57,12.95 -9.58,-5.76 -3.63,-16.18 3.37,-18.95l-2.22 -5.51 -128.12 16.34 0.06 33.6 258.04 121.96c31.17,14.12 247.82,118.55 257.62,120.45l1.51 -341.84 -344.72 43.68zm-43.12 16.13c-2.43,4.39 -2.44,13.08 5.54,10.23 4.36,-1.55 8.27,-12.95 -5.54,-10.23zm22.36 -12.25l6.32 0.21c3.45,6.31 6.11,9.16 11.37,9.15 -0.32,-6.65 -1.07,-2.85 -2.54,-8.5 0.25,-0.16 2.41,-1.41 2.46,-1.45l3.15 -3.29c-3.43,0.52 -7.13,1.07 -10.56,1.46 -5.81,0.66 -8.32,-0.2 -10.2,2.42zm-22.36 12.25c13.81,-2.72 9.9,8.68 5.54,10.23 -7.98,2.85 -7.97,-5.84 -5.54,-10.23zm-1.27 -10.32l2.22 5.51c-7,2.77 -12.95,13.19 -3.37,18.95 9.98,6 17.23,-2.6 16.57,-12.95 8.26,1.41 19.09,-0.38 14.58,-10.04l-6.34 5.13 -0.03 -8.53c-7.69,-1.25 -16.03,0.8 -23.63,1.93zm149.46 -115.85c-0.74,0.12 -3.29,0.52 -3.77,0.65 -3.42,0.9 -2.56,0.97 -3.47,1.44l-2.91 -1.65 -1.47 -160.8c14.43,1.19 24.8,3.34 39.89,1.39 18.31,-2.36 16.76,-6.61 29.07,-11.74 1.14,15.97 1.15,157.01 -0.98,162.4 -6.2,3.55 -46.65,7.71 -56.36,8.31zm102.04 224.83c6.51,2.18 19.78,1.79 25.71,-1.43 1.08,-1.24 8.41,-21.74 -14.24,-21.76 -12.07,-0.02 -17.09,6.31 -14.11,17.56 1.52,5.75 0.65,2.95 2.64,5.63zm-95.75 401.51c8.05,6.3 186.86,82.18 194.51,88.87 -39.75,9.1 -82.72,15.52 -122.22,23.29 -26.09,5.12 -361.54,69.97 -372.23,69.56l0.02 -315.5 37.4 16.78c4.84,1.16 21.44,7.84 25.44,11.93 6.05,0.08 96.34,41.96 110.69,48.65 18.33,8.54 37.29,16.56 55.17,24.86 11.05,5.13 47.91,22.74 55.51,23.9 1.33,1.52 0.58,0.97 2.55,2.3 1.08,0.74 2.88,1.6 3.77,2.02 4.29,2.05 4.95,2.29 9.39,3.34zm-102.58 -739.89c13.75,3.27 21.14,7.59 38.31,6.8 20.34,-0.94 25.75,-7.97 33.55,-10.89l1.3 120.95 -73.2 8.82 0.04 -125.68zm169.41 -58.91c12.95,2.47 19.56,4.88 34.18,3.9 16.02,-1.08 18.36,-5.69 28.93,-8.2l0.55 158.83 -61.9 7.73c-2.31,-6.88 -2.67,-136.6 -1.76,-162.26zm-500.47 245.68c1.49,4.36 40.14,45.51 47.86,54.38 2.74,3.15 5.18,4.7 7.94,7.73 13.13,14.43 27.72,32.44 42.08,46.56 20.1,19.76 12.37,28.49 12.38,75.82 0,57.53 1.42,124.35 -0.1,179.78 -2.83,-1.35 -16.34,-16.09 -18.77,-18.97 -6.23,-7.38 -12.81,-13.69 -18.88,-21.16l-37.86 -40.05c-7.61,0.02 -3.67,-1.28 -9.24,-5.32 1.77,8.82 -0.45,12.61 -7.62,15.78 4.82,6.25 2.09,3.3 4.28,11.47 1.68,6.3 50.16,54.36 59.7,66.06 35.63,43.68 28.48,7.41 28.48,99.71 0,85.12 1.78,172.15 -0.08,257.04 -4.28,-1.04 -161.26,-92.99 -166.71,-98.39l-0.25 -407.45c5.79,3.44 35.99,38.74 43.88,46.54 4.35,4.3 10.86,13.91 15.01,15.02 7.39,3.6 -5.34,-5.23 14.17,-11.44l3.71 -1.43c-3.75,-5.57 -6.93,-5.25 -8.23,-13.23l-0.92 -3.34c-4.16,-2.11 -8.28,-7.28 -11.3,-10.89 -3.89,-4.63 -7.64,-7.93 -11.71,-12.59l-22.93 -25.7c-30.35,-30.19 -21.67,-23.22 -21.67,-74.32 0,-30.46 -1.61,-174.01 0.49,-191.2l41.71 44.95c0.87,1.04 1.71,2.22 2.61,3.11l3.52 2.54c1.6,2.73 1.6,2.78 3.38,4.79 3.03,3.44 1.53,2.11 5.07,4.2zm11.28 -19.76c-2.36,-7.59 -66.66,-71.21 -67.92,-78.76 -1.18,-7.16 -0.5,-40.37 0.23,-48.57l48.25 53.09c19.45,23.38 52.94,57.58 70.72,79.36l46.89 52.99c1.94,4.63 1.12,41.04 0.54,48.36 -5.62,-3.42 -17.37,-19.22 -22.85,-24.49l-65.91 -72.67c-2.44,-2.24 -1.28,-1.3 -2.83,-1.93 -1.54,-2.47 -1.79,-2.97 -3.5,-4.67 -3.66,-3.65 -0.41,-0.75 -3.62,-2.71zm170.1 -129.25c-4.02,-4.12 -6.8,-17.1 -8.27,-23.82 -2.06,-2.58 -6.59,-20.87 -8.05,-25.75 -3.54,-11.84 -5.02,-16.12 -4.29,-30.03 4.8,1.32 10.25,6.07 16.81,8.87 28.55,12.18 39.72,2.94 55.93,-6.41l4.57 176.12c-20.82,-0.95 -30.18,-23.39 -37.45,-41.23 -4.16,-10.21 -19.4,-49.62 -19.25,-57.75zm63.5 -120.91c14.91,4.61 19.42,8.58 38.72,7.91 21.34,-0.75 21.67,-6.84 35.46,-10.5l0.32 214.58c-14.01,-1.74 -49.21,6.97 -67.02,7.49l-7.48 -219.48zm-155.4 9.49c34.99,-5.59 77.55,21.43 36.39,34.14 -21.36,6.6 -26.18,-0.76 -39.35,-9.55 -5.09,-3.4 -13.15,-6.43 -12.25,-13.48 1.04,-8.22 7.22,-9.83 15.21,-11.11zm86.62 -4.55c13.63,-4.12 31.61,0.12 40.68,7.46 11.19,9.07 9.89,24.44 -5.43,29.5 -30.79,10.17 -68.99,-26.77 -35.25,-36.96zm239.61 -3.07c22.37,-11.25 56.2,-4.65 58.2,9.64 2.99,21.41 -47.32,16.58 -58.5,6.96l0.3 -16.6zm162.24 10.31c24.53,1.16 22.31,6.56 48.26,-1.94 -2.5,13.67 -7.03,29.06 -9.96,43.57 -3.04,15.1 -5.75,29.2 -8.97,44.18 -4.88,22.62 -13.21,68.67 -30.27,77.26l0.94 -163.07zm-81.09 -21.08c12.48,-2.9 27.92,-1.21 39.2,3.59 9.84,4.2 22.93,16.06 3.87,21.52 -33.64,9.64 -75.01,-17.71 -43.07,-25.11zm-379.42 2.68c22.03,1.86 22.84,2.8 42.03,-4.14 -2.11,5.12 -4.54,7.11 -6.96,12.18 -1.86,3.9 -2.49,10.14 -4.67,13.45 -5.99,-5.32 -14.47,-12.21 -22.11,-16.1l-8.29 -5.39zm455.91 -21.84c33.62,-7.55 71.99,20.87 38.6,27.57 -33.81,6.78 -70.9,-20.31 -38.6,-27.57zm-245.71 -83.78c14.31,1.64 20.67,5.26 37.23,3.75 13.85,-1.25 23.04,-7.05 32.67,-8.1l1.92 163.6c-9.14,5.11 -16.59,13.2 -31.86,14.88 -13.66,1.51 -30.57,-2.75 -36.56,-10.61l-3.4 -163.52zm86.2 70.3c-0.87,-25.02 -1.56,-25.86 16.99,-24.35 13.14,1.07 22.79,5.81 28.19,13.26 11.82,16.29 -9.53,31.77 -45.18,11.09zm76.39 -30.99c29.27,-6.65 72.66,18.61 39.1,27.91 -33.55,9.29 -68.14,-21.32 -39.1,-27.91zm-162.28 -70.51c15.44,-9.36 59.82,-4.48 61.45,11.66 1.07,10.62 -17.38,14.19 -27.16,14.72 -13.68,0.75 -23.6,-1.63 -34.36,-6.16l0.07 -20.22zm217.16 -48.41c-14.77,2.95 -13.26,-9.72 -6.49,-12.24 4.58,-1.71 7.21,-1.39 8.86,2.64 1.68,4.11 -0.05,6.2 -2.37,9.6zm-272.94 -48.06c40.59,-4.23 48.13,23.35 6.97,27.79 -9.96,1.08 -35.3,-0.39 -36.91,-10.24 -1.73,-10.64 19.33,-16.45 29.94,-17.55zm17.83 -58.69c3.4,-6.67 4.1,-7.68 12.64,-7.6l-0.95 14.56c6.07,-3.22 -0.42,0.02 3.76,-2.78 2.48,-1.66 0.69,-1.28 3.94,-2.2 0.48,10.52 -4.84,11.7 -15.12,10.65 0.56,15.08 -11.01,18.63 -20.89,8.81 -1.81,-11.99 1.15,-10.75 7.13,-16.36 -2.36,-4.16 -4.44,-4.05 -5.19,-9.64 7.03,-1.86 8.66,4.1 12.56,8.43l2.12 -3.87zm-46.62 192.32l-1.88 -99.33c60.44,12.15 52.59,-3.5 71.43,-5.86 2.14,29.33 1.81,61.76 2.17,89.39 0.34,26.25 3.57,63.98 1.36,88.69 -5,5.43 -17.22,8.35 -27.09,9.09 -13.73,1.04 -24.04,-3.03 -33.32,-2.71 -3.56,-3.18 -4.46,-1.96 -8.47,-4.73 -2.66,-1.82 -0.41,0.41 -2.92,-2.39l-1.28 -72.15zm-12.37 76.61l0.03 3.43c-10.17,5.27 -28.83,4.45 -39.93,1.04 -18.34,-5.64 -16.77,-14.5 -16.7,-23.73 10.06,-5.81 13.84,-9.48 30.58,-8.47 9.82,0.59 21.5,3.7 25.87,12.57 -1.32,10.48 -0.96,14.01 0.15,15.16zm-71.54 -4.25c-1.71,8.69 -0.85,12.25 -9.54,15.7 -6.2,2.46 -14.42,2.69 -22.14,1.86 -18.59,-2.01 -24.12,-7.6 -32.98,-15.6 -2.49,-18.59 15.14,-20.35 31.64,-18.92 25.48,2.2 27.67,12.55 33.02,16.96zm-88.17 16.26c-3.3,13.46 -23.06,15.18 -38.22,10.22 -6.47,-2.11 -12.83,-5.35 -16.84,-10.1 -6.16,-7.3 -2.68,-13.58 3.35,-16.16 11.58,-4.32 17.13,-3.43 29.38,-2.34l-2.62 -1.55c-2.6,-1.03 -0.91,-0.76 -4.19,-1.39 -0.95,-0.18 -6.16,-0.26 -7.27,-0.2 -5,0.25 -8.26,0.92 -12.81,2.49 -1.53,-1.6 -0.48,-0.15 -2.2,-3.17 -1.82,-3.21 -1,-1.3 -2.36,-4.96 24.11,-18.39 -10.44,-29.81 -12.95,-12.71 -1.32,9.01 4.28,8.79 8.65,17.93 1.62,0.71 -0.16,-1.27 3.19,1.89 3.38,3.18 1.23,1.1 3.18,4.01l51.71 16.04zm-80.6 -0.88l125.11 88.06 -0.2 209.46c-5.58,-3.48 -116.93,-134.38 -127.85,-146.55 -9.15,-10.18 -16.93,-19.08 -25.2,-29.12 -23.92,-29.04 -19.03,-10.1 -19.34,-62.37 -0.1,-15.94 0.28,-11.17 4.28,-22.49 3.51,-2.9 3.28,-3.11 5.73,-7.88 2.07,-4.03 3.01,-5.81 5.12,-9.57 -5.75,-0.03 -11.92,-2.2 -6.46,-8.76 3.72,-4.46 7.21,-0.75 9.6,1.68 1.6,-1.23 1.01,-0.61 2.49,-2.33l5.32 -7.78c2.44,-3.71 3.92,-7.89 7.05,-10.8 5.28,1.81 9.69,5.5 14.35,8.45zm327.5 -284.94c-4.3,0.59 -6.32,2.37 -8.66,-1.91 -2.43,-4.45 1.73,-14.37 11.22,-5.11l-2.56 7.02zm-16.53 -12.54l6.22 0.56c-10.15,6.85 3.07,23.67 12.42,25.79 -1.13,-7.47 -1.27,-3.38 -3.03,-9.88 7.55,-2.17 8.01,-4.8 7.57,-13.01 5.62,0.6 9.29,1.65 13.64,-3.08 0.31,-0.33 1.13,-1.4 1.42,-1.78 0.25,-0.34 0.5,-0.72 0.73,-1.05l1.54 -2.29c-6.02,0.39 -35.69,1.71 -40.51,4.74zm-14.68 38.22c-9.85,2.68 -11.06,-2.89 -6.26,-9.74 7.94,-0.92 9.85,3.86 6.26,9.74zm0.89 -16.93c-3.9,-4.33 -5.53,-10.29 -12.56,-8.43 0.75,5.59 2.83,5.48 5.19,9.64 -5.98,5.61 -8.94,4.37 -7.13,16.36 9.88,9.82 21.45,6.27 20.89,-8.81 10.28,1.05 15.6,-0.13 15.12,-10.65 -3.25,0.92 -1.46,0.54 -3.94,2.2 -4.18,2.8 2.31,-0.44 -3.76,2.78l0.95 -14.56c-8.54,-0.08 -9.24,0.93 -12.64,7.6l-2.12 3.87zm30.32 -8.75l2.56 -7.02c-9.49,-9.26 -13.65,0.66 -11.22,5.11 2.34,4.28 4.36,2.5 8.66,1.91zm-31.21 25.68c3.59,-5.88 1.68,-10.66 -6.26,-9.74 -4.8,6.85 -3.59,12.42 6.26,9.74zm-310.65 864.67c-7.58,-1.79 -13.66,2.76 -8.27,8.22 6.04,6.11 10.66,-0.87 8.27,-8.22zm25.73 -6.72l1.48 1.07c-2.53,-4.67 -4.09,-6.09 -7.3,-9.91 -1.73,-2.06 -2.15,-2.58 -4.07,-4.46l-5.26 -4.15c-0.61,6.33 -1.92,5.6 2.98,10.69 3.27,3.41 4.79,5.57 7.88,8.27 2.54,-0.98 0.8,0.06 4.29,-1.51zm-10.01 8.39l0.62 -0.18c3.88,-11.27 -0.85,-11.23 -10.91,-10.81l4.25 -7.55c-4.21,0.79 -10.39,1.41 -8.42,8.13 1.83,6.22 6.63,2.81 11.66,4.51 -0.31,2.37 -1.75,0.47 -4.07,6.9l6.87 -1zm21.25 -30.16c-1.68,-0.82 -4.02,-3.26 -3.12,-6.45 1.49,-5.18 12.33,-8.74 10.5,5.24 -2.46,1.11 -4.4,2.66 -7.38,1.21zm-11.21 -4.31c2.83,5.12 14.16,18.14 19.97,21.47 -2.19,-8.17 0.54,-5.22 -4.28,-11.47 7.17,-3.17 9.39,-6.96 7.62,-15.78 5.57,4.04 1.63,5.34 9.24,5.32l0.85 -2.06c-6.26,-2.69 -12.51,-12.01 -17.67,-17.49l-6.08 -6.09c1.3,7.98 4.48,7.66 8.23,13.23l-3.71 1.43c-19.51,6.21 -6.78,15.04 -14.17,11.44zm-25.76 32.8c2.39,7.35 -2.23,14.33 -8.27,8.22 -5.39,-5.46 0.69,-10.01 8.27,-8.22zm-19.15 7.77l0 28.69 4.88 -0.24 -3.17 -7.68c4.35,-3.82 8.09,-5.48 7.6,-14.41 9.92,0.74 10.39,1.1 15.74,-5.49 0.18,-8.65 -0.69,-14.68 -10.14,-14.3 -9.1,0.38 -10.19,6.15 -9.75,13.61l-5.16 -0.18zm0 0l5.16 0.18c-0.44,-7.46 0.65,-13.23 9.75,-13.61 9.45,-0.38 10.32,5.65 10.14,14.3 3.21,-3.69 2.68,5.28 2.68,-5.71 -0.34,0.2 1.74,3.06 7.14,-1.26l-6.87 1c2.32,-6.43 3.76,-4.53 4.07,-6.9 -5.03,-1.7 -9.83,1.71 -11.66,-4.51 -1.97,-6.72 4.21,-7.34 8.42,-8.13l-4.25 7.55c10.06,-0.42 14.79,-0.46 10.91,10.81l3.87 -3.58c1.18,-0.46 1.88,-0.23 5.52,0.72l0 -5.35c-3.49,1.57 -1.75,0.53 -4.29,1.51 -3.09,-2.7 -4.61,-4.86 -7.88,-8.27 -4.9,-5.09 -3.59,-4.36 -2.98,-10.69 -2.53,-5.69 -9.08,-11 -13.86,-16.78 -2.1,-2.54 -12.23,-14.35 -15.06,-15.9l-0.81 64.62zm63.5 -37.47c1.83,-13.98 -9.01,-10.42 -10.5,-5.24 -0.9,3.19 1.44,5.63 3.12,6.45 2.98,1.45 4.92,-0.1 7.38,-1.21zm662.78 39.16l7.46 -0.67c1.32,-4.75 1.98,-5 -0.79,-9.42l-6.74 -0.46 0.07 10.55zm-38.59 30.62c-6.62,-3.97 -11.5,-2.3 -11.03,7.18 4.31,2.51 4.34,3.2 10.29,1.49l0.74 -8.67zm0 0l-0.74 8.67c-5.95,1.71 -5.98,1.02 -10.29,-1.49 -0.47,-9.48 4.41,-11.15 11.03,-7.18zm-16.85 9.56c3.01,3.21 7.13,4.36 11.69,6.42l3.24 -2.24c0.26,-0.16 0.66,-0.33 0.93,-0.49 2.98,-1.82 1.74,0.25 4.07,-3.26 2.37,-3.57 1.48,-6.19 2.88,-10.04l8.72 0.4c-2.79,-2.83 -2.27,-2.16 -6.37,-4.12 -2.12,-1.01 -3.79,-1.74 -5.8,-2.79 -4.65,-2.43 -7.46,-3.95 -12.45,-5.62l2.44 6.11c-3.5,0.99 -6,1.58 -7.43,5.26 -3.1,8.01 2.54,5.26 -1.92,10.37zm55.37 -50.73l6.74 0.46c2.77,4.42 2.11,4.67 0.79,9.42l-7.46 0.67 -0.17 4.99c7.96,-0.64 9.68,-1.56 12.88,-7.23 1.3,-11.14 -2.93,-13.2 -12.77,-13.61l-0.01 5.3zm-690.24 274.93l-0.52 15.61 23.57 -1.03 -1.19 -13.15c-3.81,1.07 3.58,3.93 -2.23,-1.35 -6.24,-5.68 -12.54,-2.48 -19.63,-0.08zm0 0c7.09,-2.4 13.39,-5.6 19.63,0.08 5.81,5.28 -1.58,2.42 2.23,1.35l1.19 13.15 -23.57 1.03 0.52 -15.61zm-0.48 -272.35l-0.62 0.18c-5.4,4.32 -7.48,1.46 -7.14,1.26 0,10.99 0.53,2.02 -2.68,5.71 -5.35,6.59 -5.82,6.23 -15.74,5.49 0.49,8.93 -3.25,10.59 -7.6,14.41l3.17 7.68 -4.88 0.24 -1.49 268.06c5.5,5.17 135.71,81.74 140.19,82.77 1.3,-39.31 -0.54,-81.74 -0.91,-121.36 -0.37,-40.04 -0.67,-80 -1.06,-120.07 -0.13,-12.79 2.84,-49.1 -4.67,-57.19l-71.6 -79.89c-2.59,-3.14 -5.02,-5.09 -7.61,-8.13 -2.57,-3 -3.29,-5.36 -6.49,-6.3l-1.48 -1.07 0 5.35c-3.64,-0.95 -4.34,-1.18 -5.52,-0.72l-3.87 3.58zm678.35 -593.98l-6.89 0.29 0.21 4.05c6.71,6.37 12.56,0.67 10.32,-7.32 -1.5,5.35 0.95,1.44 -3.64,2.98zm-8.43 -9.18c3.71,4.59 2.22,1.44 5.4,4.33 2.69,2.44 1.93,0.85 3.03,4.85 4.59,-1.54 2.14,2.37 3.64,-2.98 2.24,7.99 -3.61,13.69 -10.32,7.32l-0.21 -4.05 -10.99 1.79 7.67 -1.4c0.42,5.92 1.4,8.17 5.91,11.51l-3.89 2.47c-0.23,0.14 -0.71,0.39 -1.05,0.59l7.64 -0.53c6,1.33 0.53,0.52 3.75,-2.41 6.46,-5.89 7.29,-6.43 6.9,-15.15l12.08 1.72 -2.15 -3.31 -15.76 -7.62c3.52,7.38 1.22,1.47 -0.53,3.7l-11.12 -0.83zm-29.11 51.75l3.43 -9.7c-2.1,-1.34 -5.14,-2.28 -3.58,-6.92 0.39,-1.15 1.01,-2.5 2.4,-3.17 4.31,-2.1 0.8,-1.6 3.05,0.81 3.08,-2.25 -0.35,1.59 3.43,-2.94 2.56,-3.08 0.99,-1.11 2,-3.44 -3.92,-4.23 -5.78,-7.6 -10.51,-11.51 -1.86,1.04 -1.73,1.06 -3.46,2.27 2.02,4.81 2.98,3.93 5.44,8.57l-4.9 4.29c-6.13,6.43 -1.8,12.49 3.22,17.15l-0.52 4.59zm10.73 -25.36l17.57 -1.96c0.34,-0.2 0.82,-0.45 1.05,-0.59l3.89 -2.47c-4.51,-3.34 -5.49,-5.59 -5.91,-11.51l-7.67 1.4 -9.38 -0.41c1.83,5.38 -1.6,1.19 2.91,2.48 0.1,0.03 5.1,-0.15 5.17,-0.15 -5.74,1.87 -8.78,5.34 -7.63,13.21zm-7.3 15.66c0.94,-4.81 1.83,-4.91 1.87,-9.28 -2.25,-2.41 1.26,-2.91 -3.05,-0.81 -1.39,0.67 -2.01,2.02 -2.4,3.17 -1.56,4.64 1.48,5.58 3.58,6.92zm-610.86 -100.63c-0.14,12.59 6.51,6.11 7.69,17.27 -7.28,-0.51 -9.77,-5.89 -12.86,-10.36 -2.79,-4.03 -8.45,-9.28 -9.1,-14.03 6.12,-0.06 6.33,2.07 8.42,6.31 6.38,-3.34 5.48,-7.1 13.98,-2.76 5.76,2.95 9.61,3.95 11.65,9.26l-4.38 0.62c-5.16,-0.86 -6.13,-6.27 -15.4,-6.31zm16.66 0.32c-3.15,-3.77 -6.9,-6.84 -4.12,-13.77 1.64,-4.07 6.72,-7.39 13.12,-5.04 8.18,3 10.75,21.44 -9,18.81zm24.93 -39.41c13.3,-8.33 20.76,11.45 10.71,16.9 -5.64,3.06 -11.53,1.39 -13.98,-3.06 -3.07,-5.56 -1.98,-10.56 3.27,-13.84zm-6.61 18.66c6.01,6.91 3.67,0.23 8.93,3.25 -2.37,9.58 -8.76,3.45 -12.63,-0.93 -5.17,-5.86 -7.65,-3.34 -8.7,-13.98 0.51,0.07 1.09,0.24 1.52,0.34 0.39,0.1 0.96,0.23 1.43,0.34l3.49 0.84c1.42,0.23 1.66,0.08 3.33,-0.07 1.48,5.39 -1.33,5.67 2.63,10.21zm29.13 -19.56c-5.88,-0.68 -10.99,1.42 -11.97,-4.71 -0.93,-5.85 3.23,-6.81 8.54,-7.05 -0.92,3.65 -0.62,1.98 -2.14,4.35 -5.49,8.58 0.69,-4.55 -1.79,2.53 5.71,-0.23 11.21,-1.1 12.06,5.08 0.58,4.19 -2.14,8.95 -9.3,5.46 2.95,-4.93 0.14,-0.1 2.93,-3.38 1.46,-1.71 0.51,0.35 1.67,-2.28zm-96.44 91.02c1.79,-1.83 3.8,4.32 2.31,-4.46l4.1 -1.13 1.14 -4.01 -7.65 -7.29c-4.05,-4.6 -1.21,-4.67 -6.79,-5.13 -2.77,8.74 4.36,7.93 9.2,17.56 -4.84,-9.63 -11.97,-8.82 -9.2,-17.56 5.58,0.46 2.74,0.53 6.79,5.13l7.65 7.29c-0.08,-0.56 -0.1,-1.03 -0.1,-1.43 0.04,-2.14 1,-1.84 -0.53,-0.01l0.53 0.01c0.97,0.02 2.86,0.05 3.55,-0.17 3.42,-1.12 2.67,-1.03 4.48,-2.28l1.59 -0.42c0.92,-8.86 0.91,-2.83 -1.58,-5.14 -11.65,0.86 -9.02,-9.26 -8.46,-12.27 -5.68,0.39 -6.09,-0.21 -10.67,-1.83 0.37,9.85 1.23,7.65 6.32,12.04 5.09,4.39 2.59,7.34 12.8,7.62 -10.21,-0.28 -7.71,-3.23 -12.8,-7.62 -5.09,-4.39 -5.95,-2.19 -6.32,-12.04 4.58,1.62 4.99,2.22 10.67,1.83 -0.56,3.01 -3.19,13.13 8.46,12.27 2.49,2.31 2.5,-3.72 1.58,5.14 2.34,-1.88 3.6,2.67 2.42,-3.35 -4.37,-9.14 -9.97,-8.92 -8.65,-17.93 2.51,-17.1 37.06,-5.68 12.95,12.71 1.36,3.66 0.54,1.75 2.36,4.96 1.72,3.02 0.67,1.57 2.2,3.17 4.55,-1.57 7.81,-2.24 12.81,-2.49 1.11,-0.06 6.32,0.02 7.27,0.2 3.28,0.63 1.59,0.36 4.19,1.39l2.62 1.55c10.6,2.42 23.19,7.59 22.33,18.38l-77.57 -4.69zm237.28 -7.32c0.96,0.99 2.48,0.2 3.99,0.58 0.5,8.17 0.09,-5.57 14.7,4.21 0.27,0.18 0.73,0.47 1.03,0.78 -2.37,-4.41 -1.64,-1.58 0,-3.57 0.42,0.19 0.99,0.15 1.23,0.62 0.24,0.47 1.01,0.36 1.3,0.36l2.79 -0.32 -25.04 -2.66zm-163.28 -78.26c-1.56,13.88 12.71,12.98 9.96,0.22 -3.36,-2.3 -6.92,-2.99 -9.96,-0.22zm-24.08 30.04c6.88,2.03 12.18,-1.01 7.88,-9.28 -9.61,-2.88 -10.54,2.6 -7.88,9.28zm24.08 -30.04c3.04,-2.77 6.6,-2.08 9.96,0.22 2.75,12.76 -11.52,13.66 -9.96,-0.22zm-0.08 -4.54c-5.25,3.28 -6.34,8.28 -3.27,13.84 2.45,4.45 8.34,6.12 13.98,3.06 10.05,-5.45 2.59,-25.23 -10.71,-16.9zm-57.92 53.59c4.81,-3.27 14.03,-4.28 10.91,5.16 -1.99,6.01 -12.28,6.68 -10.91,-5.16zm33.92 -19.01c-2.66,-6.68 -1.73,-12.16 7.88,-9.28 4.3,8.27 -1,11.31 -7.88,9.28zm-0.93 4.83c19.75,2.63 17.18,-15.81 9,-18.81 -6.4,-2.35 -11.48,0.97 -13.12,5.04 -2.78,6.93 0.97,10 4.12,13.77zm47.45 -40.31c-1.16,2.63 -0.21,0.57 -1.67,2.28 -2.79,3.28 0.02,-1.55 -2.93,3.38 7.16,3.49 9.88,-1.27 9.3,-5.46 -0.85,-6.18 -6.35,-5.31 -12.06,-5.08 2.48,-7.08 -3.7,6.05 1.79,-2.53 1.52,-2.37 1.22,-0.7 2.14,-4.35 -5.31,0.24 -9.47,1.2 -8.54,7.05 0.98,6.13 6.09,4.03 11.97,4.71zm-20.2 22.81c-5.26,-3.02 -2.92,3.66 -8.93,-3.25 -3.96,-4.54 -1.15,-4.82 -2.63,-10.21 -1.67,0.15 -1.91,0.3 -3.33,0.07l-3.49 -0.84c-0.47,-0.11 -1.04,-0.24 -1.43,-0.34 -0.43,-0.1 -1.01,-0.27 -1.52,-0.34 1.05,10.64 3.53,8.12 8.7,13.98 3.87,4.38 10.26,10.51 12.63,0.93zm-36.22 34.45c-1.18,-11.16 -7.83,-4.68 -7.69,-17.27 9.27,0.04 10.24,5.45 15.4,6.31l4.38 -0.62c-2.04,-5.31 -5.89,-6.31 -11.65,-9.26 -8.5,-4.34 -7.6,-0.58 -13.98,2.76 -2.09,-4.24 -2.3,-6.37 -8.42,-6.31 0.65,4.75 6.31,10 9.1,14.03 3.09,4.47 5.58,9.85 12.86,10.36zm-43.05 37.57c1.41,-3.44 -0.65,-2.37 3.03,-3.81l-3.03 3.81zm-76.98 37.18c1.88,4.29 3.24,6.29 6.94,8.49 4.64,0.84 5.65,2.59 8.52,-0.51 1.06,-1.16 1.37,-2.42 1.21,-4.3 -0.41,-4.7 0.49,-1.24 -1.84,-3.23l-8.52 -8.24c-4.48,1.66 -5.27,3.38 -6.31,7.79zm96.01 -77.52c-1.37,11.84 8.92,11.17 10.91,5.16 3.12,-9.44 -6.1,-8.43 -10.91,-5.16zm-51.38 59.88c2.35,-3.44 2.75,-2.44 3.14,-7.08 -2.39,-2.43 -5.88,-6.14 -9.6,-1.68 -5.46,6.56 0.71,8.73 6.46,8.76zm350.67 913.37c-2.83,-9.47 4.44,-13.39 9,-8.84 5.39,5.37 -0.33,11.25 -9,8.84zm16.47 -23.11l8.23 0.2c1.1,2.76 1.63,4.26 0.8,7.98 -6.7,4.2 -13.53,1.12 -9.03,-8.18zm-1.6 14.32c22.35,2.6 15.35,-14.81 12.7,-17.19 -8.29,-7.43 -16.72,-0.59 -16.82,11.91 -9.89,-2.14 -19.16,2.33 -15.86,13.43 0.11,0.36 7.84,14.68 14.82,14.19 0.76,-4.92 -0.44,-5.14 -3.04,-7.95 6.12,-4.31 8.51,-4.09 8.2,-14.39zm46.87 -41.78c-6.27,-5.13 -3.69,-13.08 4.12,-11.15 6.48,1.59 5.17,11.47 -4.12,11.15zm7.15 13.09c1.15,-4.49 -1.08,-3.23 -2.48,-8.37 18.41,-8.25 2.1,-29.24 -9.82,-18.1 -8.38,7.83 4.54,26.1 12.3,26.47zm12.61 -18.77c4.36,-8.69 -9.11,-5.99 -5.9,-17.4 7.92,-0.88 9.61,6.54 19.17,6.53 -0.9,-4.75 1.47,-2.31 -4.39,-6.09 -3.94,-2.54 -10.24,-6.67 -14.12,-5.97 -7.03,1.29 -0.05,-0.64 -3.06,1.53 -0.36,0.26 -1.26,1.28 -1.53,1.55 -0.19,0.19 -0.54,0.62 -0.69,0.79 -0.15,0.16 -0.4,0.57 -0.66,0.79 -5.19,-6.01 -4.25,-5.8 -8.62,-6.91 -2.39,6.16 14.94,24.08 19.8,25.18zm-32.45 1.54c-9.05,2.34 -4.41,0.15 -9.66,-0.94 -0.67,9.07 1.65,7.42 7.89,14.26 2.02,2.22 4.01,4.47 6.38,4.99 5.03,1.11 5.52,-1.62 6.56,-3.74 -7.46,-5.49 -2.75,3.65 -8.91,-3.82 -4.47,-5.43 -2.11,-3.9 -2.26,-10.75zm-1.28 26.68c3.19,-5.49 -7.29,-15.04 -11.44,-17.57 -4.09,5.06 -0.09,6.48 3.22,10.57 4.01,4.97 3.29,7.82 8.22,7zm-77.48 54.39c-5.02,-8.16 -0.66,-13.01 8.09,-8.9 2.01,8.16 -0.09,10.52 -8.09,8.9zm8.57 -16.04c-3.11,-3.38 -6.03,-9.5 -10.48,-9.98 -7.73,-0.84 1.12,7.47 2.51,9.55l-3.23 3.01c-2.46,2.26 -4.46,3.34 -4.58,8.52 -0.32,13.61 21.82,16.58 20.78,-3.73 10.41,1.11 15.02,0.21 15.86,-10.24 -6.64,2.74 -2.82,2.39 -8.17,5.29l1.24 -15.26c-14.37,1.47 -10.46,4.8 -13.93,12.84zm147.58 -119.54c1.53,7.61 -0.44,11.92 -9.63,9.16l0.31 -9.55 9.32 0.39zm-95.5 75.28c-2.32,-0.1 0.29,0.27 1.44,-1.02 1.92,-2.14 1.24,-0.41 2.05,-3.86 -5.26,-0.65 -9.89,0.51 -8.74,7.19 1.14,6.6 6.82,4.14 12.08,3.73 -3.25,7.02 -3.68,0.33 -4.16,7.52 10.8,0.28 9.14,-5.01 7.34,-11.7 -9.1,-1.35 -6.78,1.48 -10.01,-1.86zm78.14 -45.61c-1.86,-1.9 0.74,-0.53 -3.67,-2.85 -1.59,-0.83 -3.86,-1.48 -5.94,-2.2 0.25,0.41 0.61,0.97 0.74,1.24l0.87 2.23c0.07,-0.19 0.04,0.66 0.14,0.97 -5.57,5.7 -10.5,2.66 -10.36,-5.1l3.67 -0.62c-3.8,-3.91 -3.4,-2.89 -8.11,-4.34 0.01,0.05 0.46,29.09 18.1,12.99 2.5,-2.29 0.35,-1.63 4.56,-2.32zm-47.34 28.98c9.29,0.32 10.6,-9.56 4.12,-11.15 -7.81,-1.93 -10.39,6.02 -4.12,11.15zm-91.45 76.93c8,1.62 10.1,-0.74 8.09,-8.9 -8.75,-4.11 -13.11,0.74 -8.09,8.9zm8.57 -16.04c3.47,-8.04 -0.44,-11.37 13.93,-12.84l-1.24 15.26c5.35,-2.9 1.53,-2.55 8.17,-5.29 -0.84,10.45 -5.45,11.35 -15.86,10.24 1.04,20.31 -21.1,17.34 -20.78,3.73 0.12,-5.18 2.12,-6.26 4.58,-8.52l3.23 -3.01c-1.39,-2.08 -10.24,-10.39 -2.51,-9.55 4.45,0.48 7.37,6.6 10.48,9.98zm36.01 -19.11c0.31,10.3 -2.08,10.08 -8.2,14.39 2.6,2.81 3.8,3.03 3.04,7.95 -6.98,0.49 -14.71,-13.83 -14.82,-14.19 -3.3,-11.1 5.97,-15.57 15.86,-13.43 0.1,-12.5 8.53,-19.34 16.82,-11.91 2.65,2.38 9.65,19.79 -12.7,17.19zm16.07 -25.15c3.23,3.34 0.91,0.51 10.01,1.86 1.8,6.69 3.46,11.98 -7.34,11.7 0.48,-7.19 0.91,-0.5 4.16,-7.52 -5.26,0.41 -10.94,2.87 -12.08,-3.73 -1.15,-6.68 3.48,-7.84 8.74,-7.19 -0.81,3.45 -0.13,1.72 -2.05,3.86 -1.15,1.29 -3.76,0.92 -1.44,1.02zm5.39 -11.66c4.15,2.53 14.63,12.08 11.44,17.57 -4.93,0.82 -4.21,-2.03 -8.22,-7 -3.31,-4.09 -7.31,-5.51 -3.22,-10.57zm32.56 8.12c-7.76,-0.37 -20.68,-18.64 -12.3,-26.47 11.92,-11.14 28.23,9.85 9.82,18.1 1.4,5.14 3.63,3.88 2.48,8.37zm-29.5 -18.17c5.25,1.09 0.61,3.28 9.66,0.94 0.15,6.85 -2.21,5.32 2.26,10.75 6.16,7.47 1.45,-1.67 8.91,3.82 -1.04,2.12 -1.53,4.85 -6.56,3.74 -2.37,-0.52 -4.36,-2.77 -6.38,-4.99 -6.24,-6.84 -8.56,-5.19 -7.89,-14.26zm36.21 -18c-3.21,11.41 10.26,8.71 5.9,17.4 -4.86,-1.1 -22.19,-19.02 -19.8,-25.18 4.37,1.11 3.43,0.9 8.62,6.91 0.26,-0.22 0.51,-0.63 0.66,-0.79 0.15,-0.17 0.5,-0.6 0.69,-0.79 0.27,-0.27 1.17,-1.29 1.53,-1.55 3.01,-2.17 -3.97,-0.24 3.06,-1.53 3.88,-0.7 10.18,3.43 14.12,5.97 5.86,3.78 3.49,1.34 4.39,6.09 -9.56,0.01 -11.25,-7.41 -19.17,-6.53zm33.48 -5.9c-4.21,0.69 -2.06,0.03 -4.56,2.32 -17.64,16.1 -18.09,-12.94 -18.1,-12.99 -3.67,-3.16 -44.98,-20.65 -53.28,-24.3 -17.82,-7.86 -36.03,-16.07 -54.32,-24.2 -13.59,-6.05 -104.84,-45.9 -107.5,-48.78 -2.91,-0.74 -2.89,-0.54 -5.09,-1.59 -6.27,-3.01 -0.94,0.04 -3.84,-2.83 -7.11,-0.02 -13.48,-5.83 -21.49,-7.55l0.73 272.99c12.39,0.69 296.05,-55.6 321.84,-60.62l106.42 -22.46c-17.06,-4.33 -151.47,-69.69 -160.81,-69.99zm-83.58 64.62c0.83,-3.72 0.3,-5.22 -0.8,-7.98l-8.23 -0.2c-4.5,9.3 2.33,12.38 9.03,8.18zm91.62 -94.68l-0.31 9.55c9.19,2.76 11.16,-1.55 9.63,-9.16l-9.32 -0.39zm-17.65 25.01l-4.94 -1.28 -3.67 0.62c-0.14,7.76 4.79,10.8 10.36,5.1 -0.1,-0.31 -0.07,-1.16 -0.14,-0.97l-0.87 -2.23c-0.13,-0.27 -0.49,-0.83 -0.74,-1.24z"/>
  </g>
 </g>
</svg>
