<?xml version="1.0" encoding="UTF-8"?>
<!DOCTYPE svg PUBLIC "-//W3C//DTD SVG 1.1//EN" "http://www.w3.org/Graphics/SVG/1.1/DTD/svg11.dtd">
<!-- Creator: CorelDRAW 2017 -->
<svg xmlns="http://www.w3.org/2000/svg" xml:space="preserve" width="14.8166mm" height="14.8166mm" version="1.1" style="shape-rendering:geometricPrecision; text-rendering:geometricPrecision; image-rendering:optimizeQuality; fill-rule:evenodd; clip-rule:evenodd"
viewBox="0 0 1481.66 1481.66"
 xmlns:xlink="http://www.w3.org/1999/xlink">
 <defs>
  <style type="text/css">
   <![CDATA[
    .fil3 {fill:none}
    .fil0 {fill:#0E0E0E}
    .fil1 {fill:white}
    .fil2 {fill:#373435;fill-rule:nonzero}
   ]]>
  </style>
 </defs>
 <g id="Capa_x0020_1">
  <metadata id="CorelCorpID_0Corel-Layer"/>
  <g id="_2455284129088">
   <path class="fil0" d="M684.18 896.15c-138.73,5.02 -360.53,22.49 -481.22,90.54 -38.24,21.55 -86.35,62.29 -41.65,113.57 48.15,55.23 183.17,86.86 278.43,101.52 213.97,32.92 487.96,31.01 698.53,-18.95 73.57,-17.45 261.12,-75.55 181.87,-164.65 -53.53,-60.19 -213.22,-91.03 -278.93,-101.05 -113.46,-17.3 -239.86,-25.22 -357.03,-20.98z"/>
   <path class="fil0" d="M322.15 166.63c-165.31,12 -301.32,153.22 -288.87,333.07 4.46,64.41 36.47,142.57 82.21,188.17 37.2,37.08 62.3,57.77 115.62,78.62 40.32,15.76 87.33,23.64 135.2,20.23 162.89,-11.64 300.12,-153.59 287.6,-332.12 -11.48,-163.49 -153.86,-300.89 -331.76,-287.97z"/>
   <path class="fil0" d="M1109.96 168.74c-65.03,6.2 -118.81,29.39 -166.01,66.69 -44.14,34.88 -78.31,82.18 -97.88,135.58 -14.75,40.25 -22.49,88.73 -17.85,135.99 21.35,217.5 255.9,351.19 456.86,245.02 49.95,-26.39 91.11,-65.91 119.12,-112.6 33.48,-55.83 50.12,-121.46 43.55,-190.12 -15.37,-160.75 -157.24,-297.77 -337.79,-280.56z"/>
   <path class="fil1" d="M668.79 909.8c-133.66,5.2 -347.37,23.8 -463.08,89.91 -43.15,24.65 -75.13,64.05 -21.85,105.28 118.85,91.97 450.57,110.06 629.81,104.48 132.52,-4.13 347.91,-25.08 462.43,-90 44.41,-25.17 73.64,-65.6 21.01,-105.56 -118.83,-90.24 -447.53,-111.13 -628.32,-104.11z"/>
   <path class="fil1" d="M1356.27 658.15c-118.39,-15.08 -185.07,-49.1 -269.11,-125.93 -53.69,-49.07 -111.34,-136.39 -143.41,-202.42 -4.66,-9.6 -11.41,-27.27 -16.58,-34.69 -4.47,2.67 -10.68,11.85 -14.26,16.59 -18.97,25.12 -16.48,28.12 -7.7,78.7 11.57,66.71 37.92,128.56 77.61,179.75 40.2,51.83 80.99,85.98 134.35,122.88 25.4,17.57 52.14,33.93 80.07,49.39 9.15,5.07 11.58,10.08 23.35,6.53 35.66,-10.74 78.41,-33.13 104.24,-57.73 7.39,-7.04 26.99,-24.04 31.44,-33.07z"/>
   <path class="fil1" d="M125.68 655.83c2.6,13.52 50.28,49.99 67.08,60.39 19.39,12 43.76,24.16 66.57,30.57 12.9,3.62 13.66,-0.18 23.47,-5.57 145.54,-80.04 263.63,-179.49 293.99,-353.51 1.83,-10.49 8.11,-48.39 5.3,-57.39 -1.98,-6.33 -21.46,-33.93 -28.42,-37.24 -8.89,30.1 -51.2,101.57 -69.27,128.43 -28.66,42.61 -56.88,76.33 -89.7,107.94 -8.66,8.35 -15.98,16.31 -25.54,23.83 -30.46,23.98 -52.09,40.87 -88.96,59.28 -45.38,22.67 -96.04,39.47 -154.52,43.27z"/>
   <path class="fil1" d="M990.68 240.92c22.5,38.46 41.97,74.3 68.64,102.82 13.73,14.67 26.22,30.18 42.2,42.99 17.5,14.01 28.83,25 49.41,37.41 36.8,22.19 72.16,39.48 119.78,52.38 36.39,9.85 110.52,23.75 150.35,22.12 1.52,-30.5 -4.06,-101.77 -20.3,-122.97 -19.07,2.34 -37.63,7.21 -58.31,9.05 -58.89,5.22 -98.17,-0.99 -151.65,-19.48 -50.68,-17.52 -90.9,-46.87 -125.71,-81.79 -16.09,-16.15 -35.55,-38.23 -47.78,-57.53 -8.98,2.42 -21.55,9.27 -26.63,15z"/>
   <path class="fil1" d="M80.12 373.88c-14.99,34.79 -21.39,79.17 -19.37,122.15 24.18,5.27 125.21,-14.29 149.79,-21.3 47.85,-13.65 110.67,-40.47 144.99,-69.61 23.13,-19.63 21.5,-15.79 45.4,-39.81 23.36,-23.48 38.73,-42.69 57.91,-71.51 10.41,-15.64 24.4,-37.06 32.13,-54.7 -2.07,-2.33 -1.72,-2.19 -5.52,-4.59l-19.94 -10.33 -29.92 37.83c-59.56,66.69 -132.56,111.77 -226.93,120.93 -50.85,4.94 -81.81,-2.4 -128.54,-9.06z"/>
   <path class="fil0" d="M503.95 756.18c1.47,16 5.35,32.04 7.01,48.53 1.45,14.4 -2.07,43.42 2.68,52.26 17.06,5.04 31.72,-18.41 37.5,-29.74 8.31,-16.3 9.3,-41.34 16.73,-51.11 18.12,-1.14 24.53,25.83 44.14,23.67 10.06,-7.12 14.54,-23.12 14.83,-39.72 13.4,0.35 44.06,-3.1 40.7,-19.35 -2.69,-13 -23.02,-22.92 -22.54,-38.08 6.86,-6.99 37.7,-8.95 52.41,-15.29 13.04,-5.61 34.77,-18.92 31.63,-35.58 -8.61,-5.97 -39.9,-3.53 -54.07,-5.64 -16.73,-2.5 -35.73,-8.02 -51.64,-9.33 -5.68,18.68 -39.55,57.09 -51.09,68.46 -12.08,11.91 -48.83,44.9 -68.29,50.92z"/>
   <path class="fil0" d="M835.68 703.83c7.28,20.33 -65.03,50.06 19.46,58.33 0.03,16.84 4.06,33.21 15.81,39.64 19.66,-1.02 23.73,-24.59 43.16,-24.34 6.37,8.39 16.33,89.89 53.99,81.6 4.69,-10.03 0.81,-34.76 2.28,-50.2 1.63,-17.1 4.72,-33.71 7.24,-49.84 -33.76,-22.99 -37.13,-21.37 -68.25,-52.4 -15.58,-15.53 -42.06,-45.5 -52.21,-68.5 -25.45,2.85 -53.47,13.81 -83.33,11.9 -8.67,-0.56 -23.08,-2.82 -21.8,9.36 1.76,16.87 37.21,34.33 58.18,36.93 10.1,1.25 20.55,1.07 25.47,7.52z"/>
   <path class="fil0" d="M653.23 767.17l57.13 58.06 -9.45 9.93c-13.89,-12.12 -57.94,-61.25 -68.19,-66.33 -0.54,12.8 -4.59,15.82 2.31,22.97 5.09,5.25 9.47,9.36 14.63,14.38 10.3,9.99 18.98,18.83 29.14,28.79l43.67 43.18c8.86,9.4 7.75,6.97 24.12,6.95 7,-1.52 -4.52,-2.15 10.39,-13.68 4.85,3.97 13.06,17.18 21.37,13.29 -36.6,-38.21 -78.42,-76.77 -114.49,-114.97 -3.82,-4.05 -4.25,-6.12 -10.63,-2.57z"/>
   <path class="fil0" d="M1093.09 1207.11c10.43,9.65 78.59,76.55 81.13,83.55l-8.27 7.72c-9.16,-4.7 -73.29,-73.5 -90.57,-88.7l-18.07 2.43c15.75,17.66 33.32,34.09 50.18,51.02 8.89,8.93 16.65,16.59 25.58,25.54 8.13,8.15 17.26,18.45 25.79,25.33 5.85,-2.99 20.3,-16.95 24.95,-23.87 -3.31,-6.12 -62.41,-63.42 -76.57,-77.88 -3.73,-3.8 -6.38,-8.89 -14.15,-5.14z"/>
   <path class="fil0" d="M298.25 1291.84l23.79 24.04 103.86 -103.26c-23.52,-4.61 -20.73,0.05 -32.73,12 -22.73,22.65 -54.14,56.01 -75.53,75.34 -4.71,-2.64 -8,-5.3 -10.39,-10.3l82.65 -82.57c-7.55,-2.66 -8.9,0.75 -12.81,4.82l-34.04 34.14c-9.08,9.1 -39.56,37.08 -44.8,45.79z"/>
   <path class="fil0" d="M751.32 836.47c2.99,7.3 18.31,21.29 24.23,26.08 6.48,-3.49 51.93,-50.67 63.68,-62.37 13.78,-13.72 10.96,-6.1 9.83,-29.69l-67.94 66.72 -9.54 -9.96 50.83 -50.75c4.48,-4.36 5.48,-3.94 5.16,-8.57 -9.28,-2.71 -19.77,14 -29.69,23.26 -4.5,4.19 -6.13,5.24 -9.82,8.92 -9.3,9.28 -28.58,30.83 -36.74,36.36z"/>
   <path class="fil1" d="M752.78 1081.36c55.61,-11.07 40.34,-65.54 10.84,-29.71 -7.06,8.57 -9.57,17.18 -10.84,29.71z"/>
   <path class="fil1" d="M653.67 1081.5c18.98,-4.39 39.96,-15.22 36.56,-38.57 -19.85,-9.4 -36.95,17.98 -36.56,38.57z"/>
   <path class="fil1" d="M917.44 1081.18c18.84,-3.18 39.85,-16.02 36.34,-37.51 -18.73,-12.36 -34.41,16.67 -36.34,37.51z"/>
   <path class="fil0" d="M239.29 1048c-5.6,2.71 -10.29,8.08 -6.07,17.78 2.37,5.45 10.26,8.99 18.23,5.33 13.82,-6.35 5.32,-31.6 -12.16,-23.11z"/>
   <path class="fil0" d="M1230.9 1048.16c-4.14,2.16 -3.93,-0.48 -6.34,6.26 -4.32,12.07 6.67,22.25 18.3,16.65 13.7,-6.61 5.07,-31.8 -11.96,-22.91z"/>
   <path class="fil2" d="M446.31 1102.14l-10.67 55.35 -19.01 -0.28 1.59 -8.31c-2.99,3.33 -6.12,5.78 -9.35,7.38 -3.22,1.58 -6.62,2.36 -10.2,2.3 -5.02,-0.06 -8.99,-1.57 -11.96,-4.54 -2.96,-2.95 -4.4,-6.82 -4.33,-11.59 0.02,-0.69 0.06,-1.36 0.12,-2.06 0.08,-0.67 0.2,-1.34 0.33,-1.99l7.08 -37.09 19.23 0.29 -6.08 31.45c0,0.07 0,0.16 0,0.29 -0.34,1.97 -0.54,3.46 -0.55,4.49 -0.03,1.68 0.43,3.01 1.4,3.99 0.95,0.99 2.25,1.49 3.94,1.51 3.2,0.04 6.09,-1.21 8.68,-3.81 2.58,-2.59 4.3,-6.05 5.13,-10.4l5.32 -27.26 19.33 0.28zm2.98 55.55l10.63 -55.35 18.97 0.28 -1.54 8.3c3.03,-3.32 6.15,-5.77 9.36,-7.37 3.21,-1.59 6.59,-2.36 10.16,-2.3 5.01,0.07 8.99,1.57 11.98,4.54 2.96,2.94 4.41,6.82 4.35,11.59 -0.01,0.61 -0.06,1.26 -0.16,1.99 -0.09,0.71 -0.18,1.38 -0.28,2l-7.13 37.15 -19.24 -0.29 6.13 -31.45c0,-0.08 0.02,-0.18 0.04,-0.36 0.33,-1.92 0.49,-3.39 0.51,-4.42 0.02,-1.68 -0.43,-3.02 -1.38,-3.99 -0.96,-0.99 -2.28,-1.49 -3.96,-1.51 -3.16,-0.05 -6.03,1.24 -8.66,3.85 -2.6,2.61 -4.3,6.09 -5.15,10.48l-5.34 27.14 -19.29 -0.28zm113.7 -36.38c-0.96,-2.04 -2.14,-3.55 -3.53,-4.56 -1.42,-1.01 -3.06,-1.52 -4.94,-1.54 -3.93,-0.06 -7.31,1.92 -10.12,5.94 -2.81,4.04 -4.25,9.09 -4.34,15.17 -0.05,3.19 0.69,5.76 2.22,7.72 1.53,1.96 3.61,2.96 6.24,3 2.98,0.03 5.57,-1.22 7.77,-3.73 2.18,-2.54 3.73,-6.16 4.62,-10.81l2.08 -11.19zm22.57 -17.13l-10.52 55.35 -19.25 -0.28 1.07 -5.76c-3.01,2.7 -5.86,4.66 -8.53,5.88 -2.69,1.24 -5.42,1.83 -8.21,1.79 -5.76,-0.09 -10.36,-2.38 -13.82,-6.88 -3.47,-4.51 -5.14,-10.41 -5.04,-17.72 0.15,-10.13 2.88,-18.52 8.18,-25.16 5.32,-6.62 11.89,-9.89 19.73,-9.77 3.09,0.04 5.88,0.7 8.4,1.93 2.53,1.26 5.1,3.25 7.74,6l0.93 -5.66 19.32 0.28zm62.1 39.01c1.91,1.84 3.68,3.18 5.29,4.07 1.64,0.88 3.16,1.35 4.61,1.37 3.54,0.05 6.57,-1.9 9.11,-5.88 2.53,-3.95 3.85,-8.91 3.94,-14.87 0.05,-3.1 -0.66,-5.62 -2.1,-7.53 -1.47,-1.92 -3.38,-2.9 -5.82,-2.94 -1.68,-0.02 -3.42,0.43 -5.21,1.35 -1.8,0.91 -3.74,2.34 -5.82,4.22l-4 20.21zm-27.74 43.86l15.69 -82.14 19.33 0.29 -1.14 5.79c2.99,-2.72 5.84,-4.69 8.53,-5.91 2.68,-1.24 5.44,-1.84 8.28,-1.8 5.65,0.09 10.21,2.38 13.65,6.88 3.44,4.52 5.12,10.43 5.02,17.72 -0.15,10.07 -2.82,18.52 -8.01,25.41 -5.2,6.88 -11.36,10.27 -18.5,10.17 -3.17,-0.05 -6.21,-0.8 -9.15,-2.25 -2.94,-1.45 -5.67,-3.56 -8.17,-6.3l-6.26 32.42 -19.27 -0.28zm118.35 -63.18c-0.97,-2.03 -2.15,-3.54 -3.53,-4.55 -1.43,-1.01 -3.06,-1.51 -4.94,-1.54 -3.94,-0.06 -7.31,1.93 -10.12,5.94 -2.82,4.04 -4.26,9.09 -4.35,15.16 -0.04,3.2 0.7,5.77 2.23,7.72 1.52,1.97 3.6,2.97 6.24,3 2.98,0.05 5.56,-1.21 7.76,-3.73 2.19,-2.54 3.73,-6.15 4.63,-10.8l2.08 -11.2zm22.56 -17.12l-10.52 55.35 -19.25 -0.29 1.07 -5.76c-3,2.71 -5.85,4.67 -8.53,5.89 -2.69,1.24 -5.41,1.84 -8.21,1.79 -5.76,-0.08 -10.35,-2.38 -13.81,-6.89 -3.47,-4.51 -5.15,-10.4 -5.04,-17.72 0.15,-10.12 2.87,-18.5 8.19,-25.14 5.31,-6.62 11.87,-9.89 19.72,-9.79 3.09,0.05 5.87,0.71 8.39,1.94 2.53,1.26 5.11,3.25 7.74,6l0.94 -5.66 19.31 0.28zm3.21 55.54l17.23 -90.31 19.65 0.29 -17.34 90.31 -19.54 -0.29zm55.12 -32.23l23.44 0.34c0.05,-0.37 0.08,-0.76 0.11,-1.13 0.02,-0.41 0.05,-0.76 0.05,-1.1 0.05,-2.83 -0.85,-5.18 -2.69,-7.04 -1.84,-1.85 -4.23,-2.81 -7.13,-2.85 -3.05,-0.05 -5.82,1.01 -8.35,3.15 -2.53,2.16 -4.34,5.03 -5.43,8.63zm30.29 30.95c-3.56,1.69 -7.12,2.92 -10.69,3.73 -3.59,0.81 -7.15,1.2 -10.67,1.14 -8.58,-0.12 -15.5,-2.78 -20.76,-8 -5.27,-5.2 -7.84,-11.95 -7.72,-20.19 0.13,-9.11 3.42,-16.82 9.88,-23.14 6.47,-6.32 14.27,-9.4 23.43,-9.26 7.67,0.11 13.76,2.49 18.26,7.14 4.48,4.65 6.66,10.86 6.55,18.62 -0.01,1.03 -0.05,1.95 -0.1,2.77 -0.06,0.82 -0.13,1.66 -0.23,2.52l-1.12 1.96 -38.75 -0.57 -0.02 0.92c-0.06,4.11 1.13,7.28 3.56,9.54 2.42,2.26 5.93,3.42 10.54,3.49 2.79,0.05 5.89,-0.37 9.28,-1.22 3.41,-0.88 7.15,-2.21 11.19,-4.02l-2.63 14.57zm50.34 1.82c-2.77,0.92 -5.38,1.59 -7.82,2.02 -2.46,0.44 -4.79,0.64 -6.99,0.61 -5.26,-0.08 -9.36,-1.4 -12.26,-3.96 -2.93,-2.57 -4.36,-6.09 -4.29,-10.53 0.01,-0.78 0.1,-1.77 0.25,-2.96 0.17,-1.19 0.45,-2.75 0.86,-4.72l3.98 -20.76 -10.6 -0.16 2.59 -14.08 10.74 0.15 3.15 -17 20.07 -3.6 -3.95 20.88 13.39 0.2 -2.73 14.09 -13.39 -0.2 -3.66 19.17c-0.14,0.48 -0.23,1.01 -0.26,1.58 -0.03,0.53 -0.04,1.24 -0.06,2.05 -0.02,1.79 0.37,3.16 1.15,4.07 0.79,0.92 2,1.38 3.66,1.4 0.94,0.01 2.08,-0.12 3.41,-0.41 1.35,-0.28 3.12,-0.78 5.36,-1.48l-2.6 13.64zm21.38 -74.8c0.04,-2.84 1.06,-5.21 3.09,-7.18 2.02,-1.96 4.44,-2.91 7.28,-2.88 2.88,0.04 5.28,1.07 7.2,3.07 1.95,1.98 2.91,4.41 2.86,7.29 -0.04,2.84 -1.06,5.23 -3.09,7.19 -2.03,1.97 -4.43,2.92 -7.27,2.89 -2.8,-0.05 -5.18,-1.09 -7.17,-3.12 -1.96,-2.05 -2.94,-4.46 -2.9,-7.26zm-13.1 76.38l10.52 -55.34 19.68 0.29 -10.65 55.34 -19.55 -0.29zm70.53 -0.41c-2.76,0.9 -5.38,1.57 -7.82,2.01 -2.45,0.44 -4.79,0.63 -6.99,0.6 -5.26,-0.08 -9.36,-1.39 -12.26,-3.96 -2.93,-2.57 -4.36,-6.08 -4.29,-10.53 0.01,-0.78 0.1,-1.77 0.26,-2.96 0.16,-1.18 0.44,-2.75 0.85,-4.72l3.98 -20.76 -10.59 -0.15 2.58 -14.09 10.74 0.16 3.15 -17 20.07 -3.61 -3.94 20.89 13.39 0.2 -2.74 14.08 -13.39 -0.2 -3.66 19.17c-0.14,0.48 -0.23,1.01 -0.25,1.58 -0.04,0.54 -0.05,1.24 -0.07,2.06 -0.01,1.79 0.37,3.15 1.15,4.06 0.79,0.93 2,1.39 3.66,1.41 0.94,0.02 2.08,-0.13 3.41,-0.42 1.35,-0.27 3.12,-0.77 5.36,-1.48l-2.6 13.66zm52.11 -35.84c-0.97,-2.04 -2.15,-3.55 -3.54,-4.55 -1.42,-1.01 -3.05,-1.51 -4.93,-1.54 -3.94,-0.06 -7.31,1.93 -10.12,5.94 -2.83,4.04 -4.26,9.08 -4.35,15.16 -0.04,3.19 0.7,5.77 2.23,7.72 1.53,1.96 3.6,2.96 6.24,3 2.98,0.04 5.56,-1.21 7.76,-3.73 2.19,-2.54 3.73,-6.15 4.62,-10.81l2.09 -11.19zm22.56 -17.12l-10.53 55.34 -19.24 -0.28 1.06 -5.76c-3,2.7 -5.84,4.67 -8.53,5.89 -2.69,1.24 -5.41,1.82 -8.2,1.79 -5.76,-0.09 -10.35,-2.39 -13.81,-6.89 -3.47,-4.51 -5.15,-10.4 -5.04,-17.72 0.14,-10.12 2.87,-18.52 8.18,-25.15 5.31,-6.62 11.87,-9.89 19.72,-9.78 3.09,0.05 5.87,0.7 8.4,1.93 2.53,1.26 5.11,3.25 7.73,6l0.95 -5.66 19.31 0.29z"/>
   <path class="fil2" d="M474.57 1064.43c-5.11,4.35 -10.7,7.71 -16.78,10 -6.07,2.3 -12.36,3.46 -18.81,3.47 -16.13,0.05 -29.35,-5.23 -39.59,-15.87 -10.23,-10.64 -15.4,-24.37 -15.44,-41.23 -0.02,-9.74 1.6,-18.92 4.85,-27.55 3.3,-8.61 8.01,-16.22 14.19,-22.83 5.65,-6 12.23,-10.57 19.8,-13.79 7.56,-3.2 15.6,-4.81 24.11,-4.83 7.05,-0.02 13.73,1.13 20.13,3.46 6.41,2.32 12.91,5.98 19.48,10.97l-11.31 24.08c-4.47,-4.44 -9.01,-7.77 -13.67,-9.99 -4.66,-2.21 -9.42,-3.31 -14.23,-3.3 -9.69,0.03 -17.92,4.13 -24.68,12.34 -6.78,8.16 -10.15,18.11 -10.12,29.8 0.03,9.55 2.69,17.37 8.02,23.44 5.31,6.09 12.08,9.11 20.26,9.09 4.04,-0.01 8.09,-1.06 12.18,-3.1 4.11,-2.04 8.29,-5.08 12.5,-9.16l9.11 25zm13.08 9.52l20.58 -118.29 27.72 -0.07 -7.54 43.6 45.72 -0.11 7.58 -43.61 27.73 -0.06 -20.42 118.28 -27.72 0.06 8.66 -50.45 -45.89 0.12 -8.7 50.45 -27.72 0.08zm136.28 -56.77l10.7 -61.84 27.72 -0.07 -11.01 63.46c-0.43,2.51 -0.74,4.84 -0.95,7.02 -0.21,2.16 -0.33,3.98 -0.33,5.39 0.02,6.9 1.82,12.22 5.37,15.91 3.53,3.72 8.6,5.58 15.25,5.56 8.11,-0.02 14.33,-2.71 18.7,-8.1 4.34,-5.35 7.67,-14.63 9.92,-27.86l10.7 -61.49 24.54 -0.07 -11.49 66.79c-3.44,19.56 -9.35,33.68 -17.76,42.44 -8.42,8.73 -20.24,13.13 -35.46,13.17 -15.12,0.04 -26.84,-3.63 -35.2,-11.04 -8.38,-7.42 -12.58,-17.75 -12.62,-31.09 0,-2.44 0.16,-5.21 0.49,-8.27 0.29,-3.09 0.79,-6.37 1.43,-9.91zm154.36 -7.76c0.47,0 1.23,0.02 2.2,0.08 2.34,0.16 3.84,0.24 4.48,0.24 6.44,-0.02 11.54,-1.65 15.42,-4.86 3.85,-3.21 5.77,-7.42 5.75,-12.57 -0.01,-4.62 -1.64,-8.18 -4.85,-10.64 -3.2,-2.44 -7.77,-3.68 -13.69,-3.67 -0.98,0.01 -1.73,0.04 -2.26,0.06 -0.5,0.03 -0.97,0.06 -1.41,0.11l-5.64 31.25zm-3.62 21.38l-7.41 42.44 -27.73 0.07 20.59 -118.29 25.05 -0.06c15.22,-0.03 27.06,3.17 35.56,9.63 8.51,6.43 12.76,15.49 12.79,27.18 0.03,11.85 -4.4,21.3 -13.25,28.37 -8.87,7.07 -20.94,10.6 -36.22,10.64l-9.38 0.02zm115.99 5.39l-9.64 -32.2 -20.95 32.28 30.59 -0.08zm-53.88 36.87l-27.56 0.08 81.22 -122.29 2.67 0 36.69 121.98 -28.53 0.08 -4.94 -17.36 -48.59 0.13 -10.96 17.38zm113.38 -0.28l16.5 -94.07 -38.74 0.11 4.25 -24.23 104.23 -0.26 -4.08 24.22 -37.94 0.09 -16.5 94.07 -27.72 0.07zm79.83 -0.2l20.57 -118.28 71.81 -0.18 -4.13 23.89 -44.76 0.12 -3.79 22.04 42.62 -0.11 -4.28 23.9 -42.59 0.1 -4.11 24.4 46.42 -0.12 -4.09 24.06 -73.67 0.18z"/>
   <path class="fil2" d="M163.41 937.75l0.95 2.85c4.29,12.87 4.56,23.11 0.79,30.66 -3.76,7.56 -12.03,13.48 -24.88,17.76l-8.95 2.98c-13.95,4.65 -24.71,4.92 -32.3,0.84 -7.59,-4.08 -13.88,-13.61 -18.88,-28.61l-6.8 -20.44c-5,-14.99 -5.67,-26.37 -2.04,-34.18 3.62,-7.82 12.4,-14.03 26.36,-18.68l7.3 -2.43c13.84,-4.61 24.36,-5.23 31.57,-1.83 7.2,3.38 13,11.67 17.39,24.83l0.64 1.93 -26.32 8.76 -0.6 -1.78c-1.49,-4.5 -3.6,-7.35 -6.3,-8.51 -2.67,-1.17 -6.62,-0.88 -11.77,0.84 -5.7,1.89 -9.13,4.27 -10.3,7.09 -1.16,2.85 -0.34,8.48 2.47,16.92l5.4 16.21c2.8,8.41 5.52,13.41 8.15,14.97 2.63,1.56 6.79,1.38 12.49,-0.52 5.33,-1.78 8.68,-4.02 10.04,-6.71 1.37,-2.69 1.2,-6.6 -0.51,-11.74l-0.76 -2.26 26.86 -8.95zm80 -59.8l-26.43 8.81c-1.12,-3.07 -3,-4.93 -5.66,-5.6 -2.65,-0.65 -6.41,-0.18 -11.32,1.46l-6.63 2.2c-6.06,2.02 -9.67,4.45 -10.88,7.3 -1.21,2.86 -0.4,8.52 2.41,16.95l5.4 16.24c2.78,8.34 5.52,13.31 8.2,14.88 2.68,1.54 7.02,1.33 13.08,-0.69l7.35 -2.45c5.2,-1.73 8.6,-3.67 10.17,-5.82 1.58,-2.14 1.76,-4.99 0.57,-8.56l-1.28 -3.84 -15.11 5.03 -6.14 -18.45 40.88 -13.62 5.62 16.87c4.43,13.32 4.76,24.04 0.94,32.09 -3.81,8.08 -12.05,14.21 -24.66,18.41l-17.96 5.98c-11.12,3.71 -20.71,2.98 -28.79,-2.14 -8.07,-5.15 -14.41,-14.59 -18.98,-28.32l-5 -14.99c-5.12,-15.37 -5.83,-27.62 -2.16,-36.73 3.68,-9.09 12.04,-15.82 25.11,-20.17l14.36 -4.78c10.61,-3.53 20.17,-3.78 28.71,-0.77 8.54,3.03 14.14,8.53 16.81,16.53l1.39 4.18zm47.55 59.53l-25.53 -76.66 -25.37 8.45 -7.33 -21.97 77.34 -25.76 7.32 21.98 -25.24 8.4 25.53 76.66 -26.72 8.9z"/>
  </g>
  <rect class="fil3" width="1481.66" height="1481.66"/>
 </g>
</svg>
