<?xml version="1.0" encoding="UTF-8"?>
<!DOCTYPE svg PUBLIC "-//W3C//DTD SVG 1.1//EN" "http://www.w3.org/Graphics/SVG/1.1/DTD/svg11.dtd">
<!-- Creator: CorelDRAW 2017 -->
<svg xmlns="http://www.w3.org/2000/svg" xml:space="preserve" width="14.8166mm" height="14.8166mm" version="1.1" style="shape-rendering:geometricPrecision; text-rendering:geometricPrecision; image-rendering:optimizeQuality; fill-rule:evenodd; clip-rule:evenodd"
viewBox="0 0 1481.66 1481.66"
 xmlns:xlink="http://www.w3.org/1999/xlink">
 <defs>
  <style type="text/css">
   <![CDATA[
    .fil0 {fill:none}
    .fil3 {fill:#18171D}
    .fil2 {fill:#F4F3F5}
    .fil1 {fill:#373435;fill-rule:nonzero}
   ]]>
  </style>
 </defs>
 <g id="Capa_x0020_1">
  <metadata id="CorelCorpID_0Corel-Layer"/>
  <rect class="fil0" width="1481.66" height="1481.66"/>
  <path class="fil1" d="M275.02 974.08c0,6.13 -1.48,12.76 -4.52,19.88 -3,7.12 -7.75,14.11 -14.24,20.96 -6.45,6.9 -14.74,12.45 -24.77,16.75 -10.08,4.25 -21.81,6.4 -35.2,6.4 -10.12,0 -19.35,-0.94 -27.67,-2.86 -8.29,-1.93 -15.86,-4.93 -22.62,-9 -6.76,-4.03 -13.03,-9.41 -18.72,-16.04 -5.06,-6.04 -9.4,-12.76 -12.99,-20.24 -3.58,-7.48 -6.27,-15.49 -8.06,-23.96 -1.79,-8.51 -2.68,-17.51 -2.68,-27.05 0,-15.45 2.23,-29.33 6.76,-41.55 4.48,-12.28 10.97,-22.75 19.34,-31.44 8.42,-8.69 18.23,-15.32 29.52,-19.89 11.28,-4.52 23.33,-6.8 36.09,-6.8 15.59,0 29.42,3.09 41.6,9.31 12.14,6.18 21.46,13.88 27.95,23.02 6.45,9.14 9.72,17.73 9.72,25.88 0,4.48 -1.61,8.38 -4.75,11.83 -3.13,3.4 -6.94,5.1 -11.42,5.1 -4.97,0 -8.73,-1.21 -11.19,-3.54 -2.51,-2.37 -5.29,-6.44 -8.33,-12.22 -5.11,-9.54 -11.07,-16.66 -17.92,-21.41 -6.89,-4.7 -15.31,-7.07 -25.39,-7.07 -16.03,0 -28.75,6.09 -38.24,18.22 -9.5,12.18 -14.25,29.47 -14.25,51.86 0,14.96 2.11,27.41 6.32,37.35 4.16,9.94 10.12,17.33 17.82,22.26 7.7,4.88 16.71,7.34 27.05,7.34 11.2,0 20.65,-2.77 28.39,-8.33 7.75,-5.55 13.57,-13.7 17.51,-24.49 1.66,-5.06 3.72,-9.18 6.18,-12.41 2.42,-3.18 6.36,-4.79 11.78,-4.79 4.66,0 8.65,1.61 11.96,4.88 3.31,3.23 4.97,7.26 4.97,12.05zm161.67 -101.52l-87.78 0 0 47.29 80.83 0c5.96,0 10.39,1.34 13.3,3.98 2.96,2.64 4.39,6.18 4.39,10.53 0,4.34 -1.43,7.92 -4.3,10.65 -2.91,2.74 -7.34,4.12 -13.39,4.12l-80.83 0 0 54.82 90.78 0c6.13,0 10.74,1.43 13.83,4.25 3.14,2.83 4.71,6.63 4.71,11.33 0,4.53 -1.57,8.24 -4.71,11.07 -3.09,2.82 -7.7,4.25 -13.83,4.25l-105.87 0c-8.47,0 -14.56,-1.88 -18.27,-5.64 -3.72,-3.76 -5.6,-9.86 -5.6,-18.23l0 -144.65c0,-5.6 0.85,-10.17 2.51,-13.7 1.65,-3.54 4.25,-6.14 7.79,-7.75 3.54,-1.61 8.06,-2.42 13.57,-2.42l102.87 0c6.22,0 10.83,1.39 13.83,4.12 3,2.78 4.53,6.4 4.53,10.84 0,4.57 -1.53,8.24 -4.53,11.02 -3,2.73 -7.61,4.12 -13.83,4.12zm104.83 80.07l-13.66 0 0 61.71c0,8.15 -1.79,14.11 -5.37,17.96 -3.59,3.85 -8.29,5.77 -14.02,5.77 -6.22,0 -11.06,-2.01 -14.46,-6.04 -3.41,-4.03 -5.11,-9.9 -5.11,-17.69l0 -148.01c0,-8.37 1.88,-14.46 5.64,-18.23 3.76,-3.76 9.85,-5.64 18.23,-5.64l63.37 0c8.73,0 16.21,0.36 22.43,1.12 6.23,0.76 11.83,2.24 16.8,4.52 6.04,2.56 11.37,6.18 16.03,10.89 4.61,4.74 8.15,10.25 10.52,16.48 2.42,6.27 3.63,12.89 3.63,19.92 0,14.34 -4.03,25.8 -12.13,34.4 -8.11,8.55 -20.38,14.64 -36.82,18.23 6.9,3.67 13.53,9.09 19.84,16.25 6.27,7.17 11.92,14.82 16.84,22.89 4.93,8.1 8.78,15.36 11.56,21.89 2.73,6.5 4.12,10.98 4.12,13.44 0,2.51 -0.81,5.02 -2.42,7.52 -1.61,2.51 -3.81,4.48 -6.63,5.91 -2.78,1.44 -6.05,2.15 -9.72,2.15 -4.34,0 -8.01,-1.03 -11.02,-3.09 -2.95,-2.06 -5.5,-4.65 -7.65,-7.79 -2.15,-3.13 -5.06,-7.79 -8.74,-13.88l-15.63 -25.98c-5.59,-9.49 -10.61,-16.74 -15,-21.72 -4.43,-5.01 -8.91,-8.41 -13.48,-10.25 -4.52,-1.84 -10.25,-2.73 -17.15,-2.73zm22.3 -80.88l-35.96 0 0 52.93 34.89 0c9.36,0 17.24,-0.8 23.64,-2.42 6.36,-1.61 11.24,-4.38 14.6,-8.28 3.36,-3.9 5.06,-9.27 5.06,-16.08 0,-5.37 -1.34,-10.07 -4.07,-14.15 -2.69,-4.07 -6.45,-7.12 -11.29,-9.13 -4.52,-1.93 -13.48,-2.87 -26.87,-2.87zm140.45 -6.94l43.52 128.93 43.67 -129.83c2.28,-6.85 3.98,-11.6 5.1,-14.24 1.17,-2.69 3.05,-5.06 5.65,-7.21 2.64,-2.15 6.22,-3.22 10.74,-3.22 3.32,0 6.41,0.85 9.27,2.5 2.83,1.66 5.07,3.86 6.68,6.63 1.61,2.73 2.42,5.51 2.42,8.33 0,1.88 -0.27,3.99 -0.81,6.23 -0.49,2.19 -1.16,4.39 -1.93,6.54 -0.8,2.14 -1.61,4.34 -2.37,6.62l-46.53 125.67c-1.7,4.79 -3.36,9.35 -5.02,13.7 -1.65,4.3 -3.58,8.1 -5.77,11.42 -2.15,3.27 -5.06,5.95 -8.69,8.06 -3.63,2.1 -8.06,3.13 -13.3,3.13 -5.29,0 -9.72,-1.03 -13.35,-3.09 -3.62,-2.06 -6.53,-4.74 -8.77,-8.1 -2.2,-3.4 -4.17,-7.21 -5.83,-11.51 -1.65,-4.26 -3.31,-8.82 -4.97,-13.61l-45.76 -124.64c-0.81,-2.24 -1.62,-4.48 -2.42,-6.67 -0.85,-2.19 -1.53,-4.57 -2.11,-7.08 -0.58,-2.55 -0.85,-4.7 -0.85,-6.44 0,-4.44 1.79,-8.51 5.38,-12.19 3.58,-3.67 8.1,-5.5 13.52,-5.5 6.63,0 11.33,2.01 14.06,6.09 2.78,4.07 5.6,10.57 8.47,19.48zm283.08 7.75l-87.78 0 0 47.29 80.83 0c5.96,0 10.39,1.34 13.3,3.98 2.96,2.64 4.39,6.18 4.39,10.53 0,4.34 -1.43,7.92 -4.3,10.65 -2.91,2.74 -7.34,4.12 -13.39,4.12l-80.83 0 0 54.82 90.78 0c6.13,0 10.74,1.43 13.83,4.25 3.14,2.83 4.71,6.63 4.71,11.33 0,4.53 -1.57,8.24 -4.71,11.07 -3.09,2.82 -7.7,4.25 -13.83,4.25l-105.87 0c-8.47,0 -14.56,-1.88 -18.27,-5.64 -3.72,-3.76 -5.6,-9.86 -5.6,-18.23l0 -144.65c0,-5.6 0.85,-10.17 2.51,-13.7 1.65,-3.54 4.25,-6.14 7.79,-7.75 3.54,-1.61 8.06,-2.42 13.57,-2.42l102.87 0c6.22,0 10.83,1.39 13.83,4.12 3,2.78 4.53,6.4 4.53,10.84 0,4.57 -1.53,8.24 -4.53,11.02 -3,2.73 -7.61,4.12 -13.83,4.12zm47.42 117.37l98.83 -118.18 -84.9 0c-5.96,0 -10.44,-1.3 -13.44,-3.94 -3.04,-2.64 -4.52,-6.09 -4.52,-10.39 0,-4.44 1.48,-8.06 4.52,-10.84 3,-2.73 7.48,-4.12 13.44,-4.12l109.45 0c14.15,0 21.22,6.63 21.22,19.84 0,6.31 -1.16,11.33 -3.53,15.09 -2.38,3.76 -7.12,9.85 -14.29,18.27l-92.39 109.9 101.84 0c6,0 10.52,1.26 13.48,3.76 3,2.47 4.48,5.96 4.48,10.44 0,4.61 -1.48,8.28 -4.48,11.01 -2.96,2.74 -7.48,4.08 -13.48,4.08l-124.95 0c-8.46,0 -14.86,-1.93 -19.12,-5.73 -4.3,-3.81 -6.45,-8.87 -6.45,-15.27 0,-2.2 0.36,-4.21 1.03,-6.05 0.72,-1.84 1.66,-3.58 2.82,-5.19 1.21,-1.62 2.82,-3.68 4.93,-6.14 2.1,-2.51 3.94,-4.7 5.51,-6.54zm301.75 23.11l-9.18 -24.14 -78.19 0 -9.18 24.63c-3.59,9.63 -6.63,16.13 -9.19,19.48 -2.5,3.36 -6.67,5.06 -12.45,5.06 -4.88,0 -9.22,-1.79 -12.98,-5.37 -3.76,-3.58 -5.65,-7.66 -5.65,-12.18 0,-2.64 0.45,-5.37 1.3,-8.15 0.9,-2.82 2.33,-6.67 4.35,-11.69l49.17 -124.86c1.43,-3.58 3.09,-7.88 5.06,-12.89 1.97,-5.06 4.08,-9.23 6.31,-12.54 2.24,-3.32 5.15,-6 8.78,-8.06 3.63,-2.06 8.11,-3.09 13.44,-3.09 5.46,0 9.98,1.03 13.61,3.09 3.63,2.06 6.54,4.7 8.78,7.92 2.24,3.23 4.12,6.72 5.64,10.44 1.52,3.71 3.49,8.69 5.82,14.87l50.25 124.09c3.94,9.45 5.91,16.3 5.91,20.6 0,4.43 -1.83,8.55 -5.55,12.27 -3.72,3.72 -8.24,5.55 -13.48,5.55 -3.05,0 -5.69,-0.53 -7.88,-1.65 -2.15,-1.08 -3.99,-2.56 -5.51,-4.44 -1.48,-1.88 -3.05,-4.79 -4.75,-8.64 -1.75,-3.9 -3.18,-7.34 -4.43,-10.3zm-77.12 -53.43l57.46 0 -28.98 -79.26 -28.48 79.26z"/>
  <path class="fil2" d="M653.77 1417.63c61.57,-2.78 156.82,10.86 212.22,-8.69 -72.1,-8.15 -131.73,-4.07 -201.39,-6.36l-73.35 7.73 62.52 7.32z"/>
  <path class="fil3" d="M633.6 530.35c-3.69,-71.78 16.74,-227.94 26.37,-312.98l10.75 -37.48c0.65,81.82 -14.82,280.54 -37.12,350.46zm200.32 -13.63c-2.54,-3.83 -4.19,-4.69 -7.22,-13.3l-5.03 -32.91c-12.88,-89.37 -30.58,-230.53 -24.75,-313.14 15.52,108.59 37.55,247.56 37,359.35zm-192.94 -351.37c4.04,27.86 -11.29,163.4 -18.09,191.57 -1.46,32.15 -6.54,129.99 -19.77,149.83 8.27,61.2 -15.21,101.04 -39.01,139.55 -31.49,50.96 -29.27,79.8 -29.76,144.95 59.79,0.54 356.9,3.79 394.01,-1.89 -0.6,-45.83 0.98,-82.4 -19.76,-124.33 -8.58,-17.38 -12.06,-15.17 -14.05,-32.15 -15.18,-9.87 -11.72,-6.31 -20.17,-25.68 -16,-36.62 -14.99,-69.92 -20.07,-109.57 -6.4,-49.91 -12.04,-100.45 -17.18,-150.56 -5.09,-49.57 -29,-187.21 -15.81,-228.77 8.04,-25.34 -3.57,-36.43 -25.68,-45.2 24.93,-11.89 15.98,6.17 25.71,-14 -18.08,-19.35 -59.63,-15.35 -91.75,-15.35 -40.09,0 -73.03,-4.59 -88.38,15.35 11.74,19.22 1.01,1.81 24.25,15.28 -66.24,26.38 2.9,49.49 -24.49,90.97zm23.63 1237.24c69.65,2.28 129.27,-1.8 201.39,6.36 -55.41,19.53 -150.65,5.89 -212.23,8.67 -5.63,14 4.16,7.13 -10.82,18.17 60.09,5.42 142.45,0.46 205.81,0.91 92.65,0.67 78.98,-29.67 79.47,-133.51l-393.65 1.24c63.27,0 49.08,-3.12 82.67,31.11 10.25,10.46 16.53,16.53 27.21,26.7 17.36,16.56 18.24,12.13 20.15,40.35zm-21.66 33.2c14.98,-11.04 5.19,-4.17 10.82,-18.17l-62.52 -7.31 73.36 -7.72c-1.91,-28.22 -2.79,-23.79 -20.15,-40.35 -10.68,-10.17 -16.96,-16.24 -27.21,-26.7 -33.59,-34.23 -19.4,-31.11 -82.67,-31.11 0.32,31.21 -5.25,86.51 8.8,110.54 18.28,31.23 57.07,19.18 99.57,20.82z"/>
  <path class="fil1" d="M389.87 1137.23c0,2.78 -0.67,5.79 -2.06,9.03 -1.36,3.23 -3.52,6.4 -6.46,9.51 -2.93,3.13 -6.69,5.65 -11.25,7.61 -4.57,1.93 -9.9,2.9 -15.98,2.9 -4.6,0 -8.78,-0.42 -12.57,-1.3 -3.76,-0.87 -7.19,-2.23 -10.26,-4.08 -3.07,-1.83 -5.92,-4.27 -8.5,-7.28 -2.3,-2.75 -4.27,-5.8 -5.9,-9.19 -1.63,-3.4 -2.85,-7.04 -3.66,-10.88 -0.81,-3.87 -1.22,-7.95 -1.22,-12.28 0,-7.02 1.02,-13.32 3.07,-18.87 2.03,-5.57 4.98,-10.33 8.78,-14.28 3.83,-3.94 8.28,-6.95 13.4,-9.03 5.13,-2.05 10.6,-3.09 16.39,-3.09 7.08,0 13.36,1.41 18.89,4.23 5.51,2.81 9.74,6.31 12.69,10.45 2.93,4.15 4.41,8.06 4.41,11.76 0,2.03 -0.73,3.8 -2.15,5.37 -1.43,1.54 -3.15,2.31 -5.19,2.31 -2.25,0 -3.96,-0.55 -5.08,-1.6 -1.14,-1.08 -2.4,-2.93 -3.78,-5.55 -2.32,-4.33 -5.03,-7.57 -8.14,-9.72 -3.13,-2.14 -6.95,-3.22 -11.53,-3.22 -7.27,0 -13.05,2.77 -17.36,8.28 -4.31,5.53 -6.47,13.38 -6.47,23.55 0,6.79 0.96,12.44 2.87,16.95 1.89,4.52 4.6,7.87 8.09,10.11 3.5,2.22 7.59,3.33 12.28,3.33 5.09,0 9.38,-1.26 12.9,-3.78 3.51,-2.52 6.16,-6.22 7.95,-11.12 0.75,-2.3 1.68,-4.17 2.8,-5.63 1.1,-1.45 2.89,-2.18 5.35,-2.18 2.11,0 3.92,0.73 5.43,2.22 1.5,1.46 2.26,3.29 2.26,5.47zm54.29 -61.23c9.06,0 16.83,1.83 23.32,5.51 6.48,3.66 11.41,8.89 14.74,15.66 3.33,6.77 5,14.72 5,23.85 0,6.75 -0.91,12.89 -2.74,18.4 -1.83,5.53 -4.56,10.31 -8.22,14.36 -3.66,4.05 -8.13,7.14 -13.46,9.29 -5.33,2.14 -11.41,3.21 -18.28,3.21 -6.83,0 -12.95,-1.09 -18.34,-3.31 -5.41,-2.2 -9.9,-5.31 -13.52,-9.31 -3.62,-4.01 -6.34,-8.83 -8.19,-14.48 -1.86,-5.63 -2.77,-11.73 -2.77,-18.28 0,-6.71 0.96,-12.85 2.89,-18.46 1.93,-5.59 4.71,-10.35 8.37,-14.3 3.64,-3.92 8.1,-6.93 13.34,-9 5.23,-2.1 11.19,-3.14 17.86,-3.14zm25.13 44.9c0,-6.38 -1.04,-11.94 -3.09,-16.63 -2.08,-4.68 -5.03,-8.22 -8.85,-10.64 -3.82,-2.4 -8.23,-3.6 -13.19,-3.6 -3.52,0 -6.8,0.68 -9.78,2 -3.01,1.34 -5.6,3.27 -7.75,5.81 -2.16,2.54 -3.86,5.8 -5.13,9.74 -1.24,3.97 -1.87,8.4 -1.87,13.32 0,4.98 0.63,9.46 1.87,13.48 1.27,4.01 3.03,7.34 5.31,9.98 2.28,2.65 4.9,4.62 7.85,5.92 2.97,1.32 6.2,1.97 9.74,1.97 4.53,0 8.68,-1.13 12.48,-3.39 3.79,-2.26 6.8,-5.76 9.05,-10.49 2.24,-4.72 3.36,-10.56 3.36,-17.47zm56.83 6.59l-6.21 0 0 28.02c0,3.7 -0.81,6.4 -2.44,8.15 -1.62,1.75 -3.76,2.62 -6.36,2.62 -2.83,0 -5.02,-0.91 -6.57,-2.74 -1.54,-1.83 -2.32,-4.49 -2.32,-8.03l0 -67.2c0,-3.81 0.86,-6.57 2.57,-8.28 1.7,-1.71 4.47,-2.56 8.27,-2.56l28.77 0c3.97,0 7.36,0.16 10.19,0.51 2.83,0.34 5.37,1.01 7.63,2.05 2.74,1.16 5.16,2.81 7.27,4.94 2.1,2.16 3.71,4.66 4.78,7.48 1.1,2.85 1.65,5.86 1.65,9.05 0,6.51 -1.83,11.71 -5.51,15.62 -3.68,3.88 -9.25,6.65 -16.71,8.27 3.13,1.67 6.14,4.13 9,7.38 2.85,3.26 5.41,6.74 7.65,10.4 2.24,3.68 3.98,6.97 5.24,9.94 1.24,2.95 1.88,4.98 1.88,6.1 0,1.14 -0.37,2.28 -1.1,3.41 -0.73,1.14 -1.73,2.04 -3.01,2.69 -1.26,0.65 -2.75,0.97 -4.41,0.97 -1.98,0 -3.64,-0.46 -5.01,-1.4 -1.34,-0.93 -2.5,-2.11 -3.47,-3.54 -0.98,-1.42 -2.3,-3.53 -3.97,-6.3l-7.09 -11.79c-2.55,-4.31 -4.82,-7.61 -6.82,-9.87 -2.01,-2.27 -4.04,-3.82 -6.12,-4.65 -2.05,-0.84 -4.65,-1.24 -7.78,-1.24zm10.12 -36.72l-16.33 0 0 24.03 15.84 0c4.25,0 7.83,-0.37 10.74,-1.1 2.89,-0.73 5.1,-1.99 6.63,-3.76 1.52,-1.77 2.3,-4.21 2.3,-7.3 0,-2.44 -0.61,-4.57 -1.85,-6.42 -1.22,-1.85 -2.93,-3.24 -5.13,-4.15 -2.05,-0.88 -6.12,-1.3 -12.2,-1.3zm104.52 1.34l-19.3 0 0 63.4c0,3.66 -0.81,6.36 -2.46,8.13 -1.63,1.77 -3.74,2.64 -6.32,2.64 -2.63,0 -4.78,-0.89 -6.43,-2.68 -1.65,-1.79 -2.48,-4.47 -2.48,-8.09l0 -63.4 -19.3 0c-3.03,0 -5.26,-0.67 -6.73,-1.99 -1.46,-1.35 -2.21,-3.12 -2.21,-5.31 0,-2.26 0.77,-4.05 2.29,-5.37 1.53,-1.32 3.75,-1.97 6.65,-1.97l56.29 0c3.07,0 5.32,0.67 6.83,2.03 1.48,1.36 2.23,3.13 2.23,5.31 0,2.19 -0.77,3.96 -2.27,5.31 -1.51,1.32 -3.76,1.99 -6.79,1.99zm77.04 -0.98l-39.85 0 0 21.47 36.7 0c2.7,0 4.71,0.61 6.04,1.81 1.34,1.2 1.99,2.81 1.99,4.78 0,1.97 -0.65,3.6 -1.95,4.84 -1.32,1.24 -3.34,1.87 -6.08,1.87l-36.7 0 0 24.89 41.21 0c2.79,0 4.88,0.65 6.28,1.93 1.43,1.28 2.14,3.01 2.14,5.15 0,2.05 -0.71,3.74 -2.14,5.02 -1.4,1.28 -3.49,1.93 -6.28,1.93l-48.07 0c-3.84,0 -6.6,-0.85 -8.29,-2.56 -1.69,-1.71 -2.54,-4.48 -2.54,-8.28l0 -65.67c0,-2.55 0.38,-4.62 1.13,-6.23 0.76,-1.6 1.94,-2.78 3.54,-3.51 1.61,-0.74 3.66,-1.1 6.16,-1.1l46.71 0c2.83,0 4.92,0.63 6.28,1.87 1.36,1.26 2.06,2.91 2.06,4.92 0,2.07 -0.7,3.74 -2.06,5 -1.36,1.24 -3.45,1.87 -6.28,1.87zm90.19 47.5c0,5.27 -1.36,10 -4.08,14.21 -2.71,4.21 -6.69,7.51 -11.94,9.89 -5.24,2.37 -11.47,3.55 -18.64,3.55 -8.63,0 -15.74,-1.62 -21.33,-4.86 -3.97,-2.33 -7.18,-5.47 -9.66,-9.37 -2.48,-3.9 -3.72,-7.71 -3.72,-11.41 0,-2.13 0.75,-3.96 2.23,-5.51 1.49,-1.52 3.38,-2.27 5.68,-2.27 1.87,0 3.43,0.59 4.71,1.79 1.3,1.17 2.4,2.94 3.32,5.3 1.1,2.77 2.32,5.11 3.6,6.96 1.3,1.87 3.11,3.41 5.45,4.63 2.35,1.2 5.43,1.81 9.25,1.81 5.22,0 9.49,-1.22 12.77,-3.66 3.27,-2.44 4.92,-5.49 4.92,-9.15 0,-2.91 -0.88,-5.26 -2.65,-7.05 -1.76,-1.81 -4.06,-3.2 -6.87,-4.15 -2.78,-0.96 -6.55,-1.97 -11.22,-3.05 -6.26,-1.47 -11.53,-3.19 -15.74,-5.15 -4.23,-1.97 -7.58,-4.65 -10.07,-8.05 -2.48,-3.39 -3.72,-7.6 -3.72,-12.67 0,-4.79 1.31,-9.06 3.93,-12.81 2.62,-3.72 6.42,-6.58 11.38,-8.6 4.97,-2.01 10.8,-3.01 17.51,-3.01 5.35,0 9.99,0.68 13.91,2 3.9,1.34 7.16,3.11 9.74,5.3 2.56,2.2 4.45,4.52 5.65,6.94 1.18,2.42 1.79,4.8 1.79,7.09 0,2.1 -0.75,4.01 -2.24,5.7 -1.48,1.68 -3.35,2.52 -5.57,2.52 -2.03,0 -3.55,-0.51 -4.61,-1.51 -1.06,-1.01 -2.2,-2.68 -3.42,-4.98 -1.6,-3.29 -3.5,-5.87 -5.73,-7.72 -2.22,-1.85 -5.8,-2.77 -10.74,-2.77 -4.55,0 -8.25,1 -11.04,3.01 -2.81,2.01 -4.21,4.41 -4.21,7.24 0,1.75 0.47,3.25 1.43,4.53 0.95,1.26 2.27,2.36 3.94,3.28 1.67,0.91 3.35,1.62 5.06,2.15 1.71,0.51 4.54,1.26 8.46,2.26 4.92,1.16 9.4,2.42 13.38,3.82 3.99,1.38 7.38,3.07 10.19,5.06 2.8,1.98 4.98,4.5 6.55,7.53 1.56,3.05 2.35,6.77 2.35,11.18zm15.74 16.88l0 -68.79c0,-3.58 0.81,-6.24 2.44,-8.03 1.62,-1.79 3.74,-2.69 6.32,-2.69 2.64,0 4.8,0.88 6.45,2.65 1.64,1.77 2.48,4.45 2.48,8.07l0 68.79c0,3.62 -0.84,6.3 -2.48,8.09 -1.65,1.79 -3.81,2.68 -6.45,2.68 -2.54,0 -4.63,-0.89 -6.28,-2.7 -1.65,-1.81 -2.48,-4.49 -2.48,-8.07zm93.35 -0.59l-4.17 -10.96 -35.5 0 -4.17 11.18c-1.62,4.37 -3.01,7.32 -4.16,8.85 -1.14,1.52 -3.03,2.29 -5.66,2.29 -2.21,0 -4.19,-0.81 -5.89,-2.44 -1.71,-1.62 -2.57,-3.47 -2.57,-5.53 0,-1.2 0.21,-2.44 0.59,-3.7 0.41,-1.28 1.06,-3.03 1.98,-5.3l22.32 -56.69c0.65,-1.63 1.4,-3.58 2.3,-5.86 0.89,-2.3 1.85,-4.19 2.87,-5.69 1.01,-1.51 2.33,-2.73 3.98,-3.66 1.65,-0.94 3.68,-1.41 6.1,-1.41 2.48,0 4.54,0.47 6.18,1.41 1.65,0.93 2.97,2.13 3.99,3.6 1.02,1.46 1.87,3.05 2.56,4.73 0.69,1.69 1.59,3.95 2.64,6.75l22.82 56.35c1.79,4.29 2.68,7.4 2.68,9.35 0,2.01 -0.83,3.89 -2.52,5.57 -1.69,1.69 -3.74,2.52 -6.12,2.52 -1.38,0 -2.58,-0.24 -3.58,-0.75 -0.97,-0.49 -1.81,-1.16 -2.5,-2.01 -0.67,-0.86 -1.38,-2.18 -2.15,-3.93 -0.8,-1.76 -1.45,-3.33 -2.02,-4.67zm-35.01 -24.26l26.09 0 -13.16 -35.99 -12.93 35.99zm108.32 -53.19l23.05 0c6,0 11.15,0.55 15.44,1.67 4.31,1.11 8.19,3.21 11.69,6.26 9.09,7.79 13.64,19.64 13.64,35.52 0,5.25 -0.45,10.02 -1.36,14.36 -0.92,4.33 -2.34,8.23 -4.23,11.71 -1.91,3.47 -4.35,6.59 -7.34,9.33 -2.34,2.1 -4.9,3.78 -7.69,5.04 -2.78,1.28 -5.77,2.18 -8.96,2.69 -3.2,0.51 -6.81,0.77 -10.82,0.77l-23.06 0c-3.21,0 -5.63,-0.49 -7.28,-1.46 -1.62,-0.98 -2.68,-2.34 -3.17,-4.11 -0.51,-1.77 -0.75,-4.07 -0.75,-6.87l0 -64.07c0,-3.81 0.85,-6.57 2.56,-8.28 1.71,-1.71 4.47,-2.56 8.28,-2.56zm6.85 14.03l0 59.29 13.42 0c2.93,0 5.24,-0.08 6.91,-0.24 1.67,-0.17 3.4,-0.55 5.19,-1.18 1.79,-0.65 3.33,-1.55 4.63,-2.69 5.92,-5 8.89,-13.62 8.89,-25.86 0,-8.62 -1.3,-15.09 -3.91,-19.38 -2.6,-4.29 -5.81,-7.01 -9.61,-8.19 -3.83,-1.16 -8.44,-1.75 -13.83,-1.75l-11.69 0zm130.03 -0.37l-39.85 0 0 21.47 36.7 0c2.7,0 4.71,0.61 6.04,1.81 1.34,1.2 1.99,2.81 1.99,4.78 0,1.97 -0.65,3.6 -1.95,4.84 -1.32,1.24 -3.34,1.87 -6.08,1.87l-36.7 0 0 24.89 41.21 0c2.79,0 4.88,0.65 6.28,1.93 1.43,1.28 2.14,3.01 2.14,5.15 0,2.05 -0.71,3.74 -2.14,5.02 -1.4,1.28 -3.49,1.93 -6.28,1.93l-48.07 0c-3.84,0 -6.6,-0.85 -8.29,-2.56 -1.69,-1.71 -2.54,-4.48 -2.54,-8.28l0 -65.67c0,-2.55 0.38,-4.62 1.13,-6.23 0.76,-1.6 1.94,-2.78 3.54,-3.51 1.61,-0.74 3.66,-1.1 6.16,-1.1l46.71 0c2.83,0 4.92,0.63 6.28,1.87 1.36,1.26 2.06,2.91 2.06,4.92 0,2.07 -0.7,3.74 -2.06,5 -1.36,1.24 -3.45,1.87 -6.28,1.87zm-670.54 158.18c0,2.78 -0.67,5.79 -2.06,9.03 -1.36,3.23 -3.52,6.4 -6.46,9.51 -2.93,3.13 -6.69,5.65 -11.25,7.61 -4.57,1.93 -9.9,2.9 -15.98,2.9 -4.6,0 -8.78,-0.42 -12.57,-1.3 -3.76,-0.87 -7.19,-2.23 -10.26,-4.08 -3.07,-1.83 -5.92,-4.27 -8.5,-7.28 -2.3,-2.75 -4.27,-5.8 -5.9,-9.19 -1.63,-3.4 -2.85,-7.04 -3.66,-10.88 -0.81,-3.87 -1.22,-7.95 -1.22,-12.28 0,-7.02 1.02,-13.32 3.07,-18.87 2.03,-5.57 4.98,-10.33 8.78,-14.28 3.83,-3.94 8.28,-6.95 13.4,-9.03 5.13,-2.05 10.6,-3.09 16.39,-3.09 7.08,0 13.36,1.41 18.89,4.23 5.51,2.81 9.74,6.31 12.69,10.45 2.93,4.15 4.41,8.06 4.41,11.76 0,2.03 -0.73,3.8 -2.15,5.37 -1.43,1.54 -3.15,2.31 -5.19,2.31 -2.25,0 -3.96,-0.55 -5.08,-1.6 -1.14,-1.08 -2.4,-2.93 -3.78,-5.55 -2.32,-4.33 -5.03,-7.57 -8.14,-9.72 -3.13,-2.14 -6.95,-3.22 -11.53,-3.22 -7.27,0 -13.05,2.77 -17.36,8.28 -4.31,5.53 -6.47,13.38 -6.47,23.55 0,6.79 0.96,12.44 2.87,16.95 1.89,4.52 4.6,7.87 8.09,10.11 3.5,2.22 7.59,3.33 12.28,3.33 5.09,0 9.38,-1.26 12.9,-3.78 3.51,-2.52 6.16,-6.22 7.95,-11.12 0.75,-2.3 1.68,-4.17 2.8,-5.63 1.1,-1.45 2.89,-2.18 5.35,-2.18 2.11,0 3.92,0.73 5.43,2.22 1.5,1.46 2.26,3.29 2.26,5.47zm95.64 -7.91l0 16.73c0,2.24 -0.22,4.01 -0.65,5.33 -0.44,1.34 -1.24,2.54 -2.42,3.6 -1.18,1.08 -2.68,2.11 -4.51,3.11 -5.27,2.85 -10.35,4.92 -15.23,6.24 -4.88,1.3 -10.21,1.95 -15.96,1.95 -6.71,0 -12.83,-1.03 -18.34,-3.09 -5.53,-2.07 -10.23,-5.06 -14.11,-9 -3.91,-3.93 -6.9,-8.69 -8.97,-14.28 -2.1,-5.61 -3.13,-11.85 -3.13,-18.77 0,-6.79 1.01,-12.99 3.03,-18.64 2.03,-5.63 5,-10.41 8.94,-14.36 3.93,-3.92 8.71,-6.93 14.36,-9 5.63,-2.1 12.02,-3.14 19.17,-3.14 5.88,0 11.09,0.8 15.6,2.36 4.53,1.57 8.21,3.54 11.02,5.92 2.83,2.38 4.94,4.9 6.38,7.56 1.43,2.67 2.14,5.03 2.14,7.1 0,2.22 -0.83,4.11 -2.48,5.67 -1.65,1.59 -3.62,2.36 -5.94,2.36 -1.26,0 -2.48,-0.28 -3.66,-0.89 -1.18,-0.59 -2.15,-1.43 -2.95,-2.48 -2.19,-3.42 -4.02,-6 -5.53,-7.75 -1.52,-1.73 -3.56,-3.21 -6.1,-4.39 -2.56,-1.2 -5.83,-1.79 -9.8,-1.79 -4.08,0 -7.74,0.71 -10.96,2.11 -3.21,1.41 -5.96,3.46 -8.23,6.14 -2.28,2.67 -4.03,5.96 -5.25,9.84 -1.2,3.91 -1.81,8.22 -1.81,12.94 0,10.24 2.36,18.11 7.06,23.64 4.69,5.51 11.26,8.28 19.66,8.28 4.09,0 7.93,-0.53 11.53,-1.61 3.58,-1.07 7.24,-2.6 10.92,-4.59l0 -14.17 -13.69 0c-3.29,0 -5.79,-0.49 -7.48,-1.49 -1.69,-0.99 -2.52,-2.68 -2.52,-5.08 0,-1.93 0.71,-3.56 2.11,-4.82 1.41,-1.28 3.32,-1.91 5.76,-1.91l20.07 0c2.46,0 4.55,0.22 6.26,0.65 1.71,0.45 3.09,1.42 4.13,2.93 1.06,1.5 1.58,3.78 1.58,6.79zm104.09 -37.21l-19.3 0 0 63.4c0,3.66 -0.81,6.36 -2.46,8.13 -1.63,1.77 -3.74,2.64 -6.32,2.64 -2.63,0 -4.78,-0.89 -6.43,-2.68 -1.65,-1.79 -2.48,-4.47 -2.48,-8.09l0 -63.4 -19.3 0c-3.03,0 -5.26,-0.67 -6.73,-1.99 -1.46,-1.35 -2.21,-3.12 -2.21,-5.31 0,-2.26 0.77,-4.05 2.29,-5.37 1.53,-1.32 3.75,-1.97 6.65,-1.97l56.29 0c3.07,0 5.32,0.67 6.83,2.03 1.48,1.36 2.23,3.13 2.23,5.31 0,2.19 -0.77,3.96 -2.27,5.31 -1.51,1.32 -3.76,1.99 -6.79,1.99zm43.27 35.38l-6.21 0 0 28.02c0,3.7 -0.81,6.4 -2.44,8.15 -1.62,1.75 -3.76,2.62 -6.36,2.62 -2.83,0 -5.02,-0.91 -6.57,-2.74 -1.54,-1.83 -2.32,-4.49 -2.32,-8.03l0 -67.2c0,-3.81 0.86,-6.57 2.57,-8.28 1.7,-1.71 4.47,-2.56 8.27,-2.56l28.77 0c3.97,0 7.36,0.16 10.19,0.51 2.83,0.34 5.37,1.01 7.63,2.05 2.74,1.16 5.16,2.81 7.27,4.94 2.1,2.16 3.71,4.66 4.78,7.48 1.1,2.85 1.65,5.86 1.65,9.05 0,6.51 -1.83,11.71 -5.51,15.62 -3.68,3.88 -9.25,6.65 -16.71,8.27 3.13,1.67 6.14,4.13 9,7.38 2.85,3.26 5.41,6.74 7.65,10.4 2.24,3.68 3.98,6.97 5.24,9.94 1.24,2.95 1.88,4.98 1.88,6.1 0,1.14 -0.37,2.28 -1.1,3.41 -0.73,1.14 -1.73,2.04 -3.01,2.69 -1.26,0.65 -2.75,0.97 -4.41,0.97 -1.98,0 -3.64,-0.46 -5.01,-1.4 -1.34,-0.93 -2.5,-2.11 -3.47,-3.54 -0.98,-1.42 -2.3,-3.53 -3.97,-6.3l-7.09 -11.79c-2.55,-4.31 -4.82,-7.61 -6.82,-9.87 -2.01,-2.27 -4.04,-3.82 -6.12,-4.65 -2.05,-0.84 -4.65,-1.24 -7.78,-1.24zm10.12 -36.72l-16.33 0 0 24.03 15.84 0c4.25,0 7.83,-0.37 10.74,-1.1 2.89,-0.73 5.1,-1.99 6.63,-3.76 1.52,-1.77 2.3,-4.21 2.3,-7.3 0,-2.44 -0.61,-4.57 -1.85,-6.42 -1.22,-1.85 -2.93,-3.24 -5.13,-4.15 -2.05,-0.88 -6.12,-1.3 -12.2,-1.3zm109.74 64.15l-4.17 -10.96 -35.5 0 -4.17 11.18c-1.62,4.37 -3.01,7.32 -4.16,8.85 -1.14,1.52 -3.03,2.29 -5.66,2.29 -2.21,0 -4.19,-0.81 -5.89,-2.44 -1.71,-1.62 -2.57,-3.47 -2.57,-5.53 0,-1.2 0.21,-2.44 0.59,-3.7 0.41,-1.28 1.06,-3.03 1.98,-5.3l22.32 -56.69c0.65,-1.63 1.4,-3.58 2.3,-5.86 0.89,-2.3 1.85,-4.19 2.87,-5.69 1.01,-1.51 2.33,-2.73 3.98,-3.66 1.65,-0.94 3.68,-1.41 6.1,-1.41 2.48,0 4.54,0.47 6.18,1.41 1.65,0.93 2.97,2.13 3.99,3.6 1.02,1.46 1.87,3.05 2.56,4.73 0.69,1.69 1.59,3.95 2.64,6.75l22.82 56.35c1.79,4.29 2.68,7.4 2.68,9.35 0,2.01 -0.83,3.89 -2.52,5.57 -1.69,1.69 -3.74,2.52 -6.12,2.52 -1.38,0 -2.58,-0.24 -3.58,-0.75 -0.97,-0.49 -1.81,-1.16 -2.5,-2.01 -0.67,-0.86 -1.38,-2.18 -2.15,-3.93 -0.8,-1.76 -1.45,-3.33 -2.02,-4.67zm-35.01 -24.26l26.09 0 -13.16 -35.99 -12.93 35.99zm73.61 -43.05l19.76 58.54 19.83 -58.94c1.03,-3.11 1.81,-5.27 2.32,-6.47 0.52,-1.22 1.38,-2.3 2.56,-3.27 1.2,-0.98 2.82,-1.47 4.88,-1.47 1.5,0 2.9,0.39 4.21,1.14 1.28,0.76 2.29,1.75 3.03,3.01 0.73,1.24 1.09,2.5 1.09,3.78 0,0.86 -0.12,1.81 -0.36,2.83 -0.23,1 -0.53,1.99 -0.88,2.97 -0.36,0.98 -0.73,1.97 -1.07,3.01l-21.13 57.05c-0.77,2.18 -1.53,4.25 -2.28,6.23 -0.75,1.95 -1.62,3.68 -2.62,5.18 -0.98,1.49 -2.3,2.71 -3.95,3.66 -1.64,0.96 -3.66,1.42 -6.03,1.42 -2.4,0 -4.42,-0.46 -6.06,-1.4 -1.65,-0.93 -2.97,-2.15 -3.99,-3.68 -1,-1.54 -1.89,-3.27 -2.64,-5.22 -0.75,-1.94 -1.51,-4.01 -2.26,-6.19l-20.78 -56.58c-0.37,-1.02 -0.73,-2.04 -1.1,-3.03 -0.38,-1 -0.69,-2.08 -0.95,-3.22 -0.27,-1.16 -0.39,-2.13 -0.39,-2.92 0,-2.02 0.81,-3.87 2.44,-5.53 1.63,-1.67 3.68,-2.51 6.14,-2.51 3.01,0 5.14,0.92 6.39,2.77 1.26,1.85 2.54,4.8 3.84,8.84zm128.53 3.52l-39.85 0 0 21.47 36.7 0c2.7,0 4.71,0.61 6.04,1.81 1.34,1.2 1.99,2.81 1.99,4.78 0,1.97 -0.65,3.6 -1.95,4.84 -1.32,1.24 -3.34,1.87 -6.08,1.87l-36.7 0 0 24.89 41.21 0c2.79,0 4.88,0.65 6.28,1.93 1.43,1.28 2.14,3.01 2.14,5.15 0,2.05 -0.71,3.74 -2.14,5.02 -1.4,1.28 -3.49,1.93 -6.28,1.93l-48.07 0c-3.84,0 -6.6,-0.85 -8.29,-2.56 -1.69,-1.71 -2.54,-4.48 -2.54,-8.28l0 -65.67c0,-2.55 0.38,-4.62 1.13,-6.23 0.76,-1.6 1.94,-2.78 3.54,-3.51 1.61,-0.74 3.66,-1.1 6.16,-1.1l46.71 0c2.83,0 4.92,0.63 6.28,1.87 1.36,1.26 2.06,2.91 2.06,4.92 0,2.07 -0.7,3.74 -2.06,5 -1.36,1.24 -3.45,1.87 -6.28,1.87zm41.15 -4.41l0 63.58 35.87 0c2.84,0 5.04,0.69 6.57,2.08 1.54,1.4 2.29,3.15 2.29,5.24 0,2.14 -0.75,3.89 -2.25,5.21 -1.51,1.32 -3.72,1.99 -6.61,1.99l-42.72 0c-3.85,0 -6.61,-0.85 -8.3,-2.56 -1.69,-1.71 -2.54,-4.48 -2.54,-8.28l0 -67.26c0,-3.56 0.81,-6.24 2.42,-8.03 1.61,-1.79 3.72,-2.69 6.34,-2.69 2.65,0 4.8,0.88 6.45,2.65 1.65,1.77 2.48,4.47 2.48,8.07z"/>
 </g>
</svg>
