<?xml version="1.0" encoding="UTF-8"?>
<!DOCTYPE svg PUBLIC "-//W3C//DTD SVG 1.1//EN" "http://www.w3.org/Graphics/SVG/1.1/DTD/svg11.dtd">
<!-- Creator: CorelDRAW 2017 -->
<svg xmlns="http://www.w3.org/2000/svg" xml:space="preserve" width="70mm" height="100mm" version="1.1" style="shape-rendering:geometricPrecision; text-rendering:geometricPrecision; image-rendering:optimizeQuality; fill-rule:evenodd; clip-rule:evenodd"
viewBox="0 0 7000 10000"
 xmlns:xlink="http://www.w3.org/1999/xlink">
 <defs>
  <style type="text/css">
   <![CDATA[
    .str0 {stroke:#E6E7E8;stroke-width:7.62;stroke-miterlimit:22.9256}
    .fil2 {fill:#96989A}
    .fil3 {fill:#848688}
    .fil4 {fill:#546D82}
    .fil0 {fill:#647B8B}
    .fil1 {fill:#D2D3D5;fill-rule:nonzero}
   ]]>
  </style>
 </defs>
 <g id="Capa_x0020_1">
  <metadata id="CorelCorpID_0Corel-Layer"/>
  <g id="_2477667703104">
   <path class="fil0" d="M5749.69 4017.18l-2.87 228.04c-253.6,6.46 -289.38,-151.56 2.87,-228.04zm30.04 761.88c-8.12,23.47 -17.04,63.28 -38,92.92 -165.86,234.43 -275.13,-479.35 38,-92.92zm-2702.22 -3166.33c292.91,-41.79 2251.54,-140.37 2465.22,-67.48 201.81,250.36 137.22,789.96 154.06,1153.23l218.12 4573.23c-44.47,130.18 -1.82,59.53 -113.98,116.09 -154.53,77.94 -120.89,-53.6 -157.27,181.29 166.8,-26.4 178.47,-49.51 294.33,16.35 -8.9,250.72 124.93,745.81 -46.83,929.19 -161.61,191.12 -264.85,47.93 -463.65,121.6 -169.31,62.75 -17.56,-36.5 -138.13,101.47 871.14,-74.15 759.92,-41.25 758.04,-791.87 -1.08,-431.11 -51.16,-2175.1 -146.15,-2380.64l-57.04 180.32c-2.87,34.9 6.92,182.44 9.54,226.22 7.89,131.34 14.81,255.46 18.04,387.07 6.8,277.19 37.73,520.97 33.79,799.36l-110.51 -2068.27c83.17,226.68 -36.15,-192.97 25.06,76.81 30.04,132.36 -19.18,248.15 81.12,357.94 40.9,-119.98 -0.08,-412.09 -7.1,-570.86 -20.3,-459.34 11.8,-1532.38 -105.97,-1894.98 98.17,-55.45 36.68,-2.35 77.37,-16.16 107.11,-36.33 -24.77,51.58 74.23,-35.99 -380.2,-243.16 114.7,-1426.08 -419.39,-1579.8 -160.84,-46.3 -1587.88,44.52 -1859.48,58.06 -3121.78,155.65 -2791.97,-89.59 -2750.92,1147.21 12.78,384.98 77.78,1035.83 27.44,1367.46 -12.8,84.29 46.71,158.89 60.8,356.39l171.83 3767.78c11.2,319.63 -67.91,629.88 221.66,752.38 136.09,57.58 803.26,14.91 928.26,-35.79 -104,-158.65 -211.5,-70.31 -406.44,-48.4 -705.35,79.26 -648.16,-61.33 -686.07,-1158.97 -38.42,-1112.43 -286.13,-5251.27 -201.9,-5924.2l2051.92 -96.04z"/>
   <path class="fil1 str0" d="M1569.63 4619.95c6.24,-6.4 17.41,-11.58 33.55,-15.52 22.28,-5 35.34,-8.42 39.2,-10.27 14.24,-5.51 23.77,-14.53 28.56,-27.08 -1.92,0.35 -4.03,0.51 -6.32,0.47 -8.79,-0.14 -19.89,-5.69 -33.3,-16.61 -13.41,-10.94 -23.93,-16.47 -31.58,-16.59 -3.07,-0.05 -6.33,0.47 -9.79,1.56l-2.5 -22.42 -11.58 6.12 -4.29 -19.01 -14.41 4.36c-2.47,-12.67 -3.63,-23.98 -3.46,-33.92 0.35,-21.43 6.74,-38.16 19.18,-50.2 48.64,20.7 117.19,52.62 205.63,95.77 14.31,-9.33 38.22,-20.6 71.72,-33.83 30.81,-12.13 54.55,-24.56 71.21,-37.3 7.27,0.12 18.53,-4.19 33.79,-12.93 15.26,-8.74 26.13,-13.07 32.64,-12.96 8.8,0.14 15.97,5.62 21.54,16.42 -2.89,13.35 -5.79,26.6 -8.68,39.75 -2.89,13.16 -4.43,24.9 -4.6,35.22 -0.08,4.98 0.21,10.15 0.89,15.52 -9.95,0.6 -23.99,5.34 -42.12,14.23 -16.97,7.76 -31.38,11.54 -43.24,11.35 -3.93,6.43 -12.22,10.32 -24.87,11.64 -11.12,1.35 -17.34,7.38 -18.65,18.06 14.49,2.15 35.2,11.48 62.09,28 26.9,16.5 48.56,25.85 64.97,28.03 -1.58,3.42 -2.42,7.81 -2.5,13.16 -0.08,4.59 0.36,12.26 1.34,22.98 0.97,10.73 1.42,18.77 1.33,24.13 -0.39,23.72 -10.14,35.42 -29.27,35.11l-10.9 -0.19c-0.38,-0.38 0.62,-3.04 2.99,-7.98 -16.38,-4.09 -43.89,-18.31 -82.52,-42.67 -33.33,-20.83 -61.66,-31.42 -85,-31.81 0.81,-2.28 1.22,-4.38 1.25,-6.3 0.08,-4.96 -3.96,-9.05 -12.13,-12.25 -8.18,-3.19 -11.84,-7.65 -10.98,-13.37l-16.45 23.25 -6.18 -8.13c-9.78,12.85 -23.55,24.1 -41.3,33.76 -16.19,7.39 -32.39,14.78 -48.58,22.17l-6.18 -8.14c-7.31,2.94 -20.26,11.15 -38.86,24.62 -15.1,10.85 -27.81,16.19 -38.14,16.02 -5.35,-0.09 -10.88,-1.32 -16.58,-3.72 -1.67,-14.94 -4.97,-35.09 -9.92,-60.42 8.07,-1.79 12.14,-5.73 12.24,-11.85 0.02,-1.15 -0.23,-3.16 -0.75,-6.04 -0.53,-2.88 -0.79,-5.08 -0.76,-6.62 0.1,-6.5 4.2,-11.03 12.27,-13.57zm46.07 -382.04l46.22 8.46c-2.36,3.98 -3.82,8.63 -4.39,13.96 -0.5,4.57 -0.77,11.46 -0.81,20.69 -0.02,9.23 -0.29,16.13 -0.78,20.69 -2.1,19.4 -10.3,32.95 -24.69,40.62l-3 -15.9c-3.42,-0.37 -8.91,-0.29 -16.57,0.23 -7.56,0.53 -13.14,0.6 -16.57,0.23 -6.08,-0.66 -11.35,-2.58 -15.64,-5.74 -7.7,-0.83 -11.13,-4.66 -10.39,-11.51 0.29,-2.66 1.56,-7.33 3.82,-14.01 2.26,-6.68 3.58,-11.74 3.95,-15.16 0.78,-7.23 -1.1,-13.01 -5.63,-17.35 2.63,-10.1 8.09,-17.01 16.38,-20.74 5.38,-2.5 14.76,-3.98 28.1,-4.47zm93.37 10.1l-19.99 8.8c-3.92,4.2 -6.19,9.15 -6.81,14.85 -0.49,4.57 0.33,11.29 2.44,20.18 2.12,8.88 2.97,15.23 2.56,19.03 -0.45,4.19 -2.17,7.66 -5.16,10.41 2.15,1.39 3.9,3.98 5.22,7.78 1.32,3.8 2.7,6.16 4.13,7.09 10.26,-5.82 15.77,-8.69 16.52,-8.6 2.67,0.28 5.18,1.9 7.56,4.85l-4.94 2.93c4.16,4.3 8.51,6.69 13.08,7.19 5.7,0.61 14.01,-2.34 24.91,-8.85 10.9,-6.52 19.02,-9.5 24.34,-8.92 2.29,0.24 4.53,0.88 6.72,1.88l-3.97 4.77c10.77,0 27.12,0.04 49.05,0.11 -0.2,1.89 -2.31,4.46 -6.31,7.68 -4.01,3.23 -6.12,5.79 -6.32,7.68 -0.29,2.67 2.11,5.43 7.18,8.29 4.66,-0.27 22.64,-2.94 53.97,-8.02 25.05,-3.84 45.37,-4.92 60.96,-3.23 11.79,1.27 22.47,3.97 32.03,8.09l-12.32 12.52c4.89,-2.56 9.24,-3.63 13.05,-3.22 4.18,0.46 8.88,4.14 14.1,11.05 5.22,6.92 9.92,10.6 14.1,11.05 4.18,0.45 8.97,-1.14 14.37,-4.8 1.33,-5.23 2.33,-10.9 2.99,-16.99 0.25,-2.28 0.64,-5.89 1.18,-10.84 0.1,-4.6 0.29,-8.04 0.53,-10.33 1.52,-14.07 6.27,-25.87 14.22,-35.4 0.79,-3.77 -1.26,-7.06 -6.14,-9.91 -4.89,-2.83 -6.92,-6.32 -6.09,-10.46 -40.79,-7.11 -92.78,-13.88 -155.96,-20.32 -88.29,-9.16 -138.69,-14.61 -151.2,-16.34zm288.24 110.22l-0.49 4.57 -12.55 -1.36 0.49 -4.56 12.55 1.35zm-349.37 -309.36l45.19 12.9c-2.73,3.73 -4.64,8.22 -5.73,13.46 -0.93,4.5 -1.87,11.34 -2.8,20.52 -0.92,9.19 -1.86,16.03 -2.8,20.52 -3.97,19.11 -13.44,31.79 -28.5,38.03l-1.45 -16.12c-3.37,-0.7 -8.84,-1.15 -16.51,-1.38 -7.58,-0.21 -13.15,-0.68 -16.52,-1.38 -5.99,-1.24 -11.05,-3.66 -15,-7.22 -7.59,-1.58 -10.63,-5.73 -9.23,-12.47 0.54,-2.62 2.26,-7.14 5.15,-13.57 2.91,-6.44 4.71,-11.34 5.41,-14.71 1.48,-7.12 0.17,-13.05 -3.92,-17.82 3.6,-9.8 9.71,-16.15 18.32,-19.04 5.59,-1.97 15.08,-2.54 28.39,-1.72zm91.96 19.11l-20.75 6.81c-4.31,3.8 -7.05,8.51 -8.22,14.12 -0.92,4.5 -0.77,11.27 0.47,20.32 1.25,9.05 1.48,15.46 0.7,19.2 -0.86,4.12 -2.9,7.41 -6.15,9.86 2.01,1.59 3.49,4.34 4.44,8.25 0.95,3.9 2.1,6.39 3.43,7.45 10.77,-4.8 16.53,-7.11 17.28,-6.96 2.62,0.55 4.97,2.4 7.05,5.57l-5.2 2.43c3.72,4.69 7.82,7.49 12.31,8.43 5.62,1.16 14.17,-0.97 25.66,-6.4 11.48,-5.42 19.84,-7.6 25.09,-6.51 2.25,0.46 4.42,1.31 6.51,2.53l-4.42 4.36c10.73,1.05 26.99,2.67 48.81,4.87 -0.39,1.86 -2.73,4.21 -7.03,7.03 -4.3,2.82 -6.64,5.16 -7.04,7.04 -0.54,2.62 1.58,5.6 6.36,8.94 4.65,0.18 22.81,-0.74 54.49,-2.75 25.29,-1.39 45.62,-0.48 60.98,2.71 11.61,2.41 21.98,6.13 31.09,11.15l-13.48 11.27c5.12,-2.07 9.56,-2.71 13.3,-1.93 4.12,0.85 8.44,4.98 12.96,12.36 4.53,7.39 8.84,11.51 12.96,12.37 4.13,0.85 9.05,-0.27 14.77,-3.38 1.84,-5.09 3.39,-10.63 4.63,-16.62 0.47,-2.25 1.21,-5.81 2.23,-10.68 0.55,-4.57 1.06,-7.98 1.53,-10.23 2.88,-13.86 8.74,-25.14 17.59,-33.85 1.14,-3.68 -0.57,-7.16 -5.16,-10.46 -4.58,-3.3 -6.27,-6.97 -5.04,-11 -39.91,-11.04 -90.99,-22.82 -153.25,-35.37 -86.98,-17.68 -136.62,-27.99 -148.9,-30.93zm276.18 137.68l-0.93 4.49 -12.36 -2.56 0.93 -4.5 12.36 2.57zm-144.02 -454.59c-14.93,4.12 -29.84,8.15 -44.66,11.91 -12.27,4.56 -26.08,12.75 -41.37,24.38 -7.9,7.24 -13.78,17.02 -17.71,29.52 -6.21,19.7 -6.93,43.04 -2.15,69.91 -4.29,-2.95 -8.8,-5.17 -13.55,-6.67 -8.76,-2.75 -23.54,-4.2 -44.35,-4.33 -19.25,-0.04 -35.02,-2.8 -47.33,-8.28 -2.11,4.15 -7.19,11.37 -15.25,21.67 -6.39,8.82 -10.5,16.15 -12.34,21.99 -2.98,9.49 -1.43,19.2 4.67,29.14 1.6,8.93 8.06,15.17 19.37,18.73 1.83,0.58 7.23,1.88 16.22,3.91 6.68,1.7 11.73,3.49 15.16,5.37 1.34,0.82 2.74,1.46 4.2,1.92 3.28,1.03 8.26,-0.11 14.91,-3.43 6.67,-3.31 11.46,-4.51 14.38,-3.6 2.55,0.81 4.76,2.71 6.62,5.7l-5.93 3.55c2.47,2.38 5.15,4.03 8.08,4.95 4.38,1.38 10.9,1.02 19.58,-1.06 8.67,-2.07 14.66,-2.6 17.94,-1.57 3.28,1.04 6.04,3.1 8.27,6.22 -2.53,0.4 -5.25,2.05 -8.18,4.94 -2.91,2.9 -5.27,4.65 -7.07,5.3 14.69,3.02 30.61,7.22 47.76,12.62 17.89,5.63 44.67,15.16 80.34,28.6 35.68,13.43 62.46,22.96 80.34,28.6 25.55,8.04 48.94,14 70.18,17.88l19.64 -8.87c-0.43,-3.74 0.05,-7.8 1.42,-12.18 1.27,-4.01 4.35,-9.97 9.23,-17.85 4.9,-7.88 7.97,-13.84 9.24,-17.85 3.9,-12.41 -0.65,-24.07 -13.66,-34.98 7.27,1.09 12.09,-1.81 14.47,-8.68 2.36,-6.88 6.14,-10.3 11.34,-10.27 1.5,-4.74 4.01,-12.08 7.53,-22 3.53,-9.91 6.09,-17.43 7.7,-22.54 6.2,-19.71 8.56,-37.41 7.09,-53.12 -17.22,-38.31 -54.11,-66.37 -110.67,-84.17 -13.14,-4.13 -35.02,-9.81 -65.63,-17.05 -28.68,-7.02 -50.62,-13.12 -65.83,-18.31zm144.27 128.44c0.08,4.84 2.29,13.45 6.6,25.84 4.33,12.39 5.63,21.33 3.9,26.79 -1.6,5.12 -5.1,9.23 -10.49,12.34 -16.24,13.34 -35.85,16.4 -58.84,9.16 -6.94,-2.18 -17.93,-6.75 -32.99,-13.69 -15.06,-6.96 -26.42,-11.63 -34.08,-14.04 -8.4,-2.65 -16.11,-4.27 -23.14,-4.88 -0.15,-7.17 -6.3,-13.41 -18.44,-18.84 -12.13,-5.42 -17.82,-13.13 -17.08,-23.12 0.6,-5.73 1.57,-10.74 2.92,-15.03 4.63,-14.69 16.26,-19.14 34.87,-13.29 2.92,0.92 7.48,2.35 13.68,4.31 6.2,1.95 10.95,3.44 14.24,4.48 14.6,4.6 25.59,4.05 33,-1.64 3.06,1.76 6.78,3.33 11.15,4.71 6.57,2.07 16.85,3.5 30.84,4.29 13.99,0.79 23.72,2.05 29.2,3.77 6.2,1.96 11.09,4.9 14.66,8.84zm31.62 -265.35c13.43,-26.29 21.01,-53.02 22.75,-80.19 8.89,-0.33 15.46,-5.42 19.7,-15.24 0.61,-1.41 2.59,-5.98 5.92,-13.7 2.07,-5.78 3.96,-10.17 5.68,-13.17 0.37,-5.68 0.45,-11.9 0.24,-18.66 -0.3,-6.79 -2.33,-11.01 -6.19,-12.67 -1.41,-0.61 -2.72,-0.97 -3.92,-1.06 -27.93,-9.15 -55.86,-18.29 -83.8,-27.44 -35.07,-8.05 -63.81,-4.21 -86.05,11.6 -0.56,2.26 -4.13,6.66 -10.53,13.28 -6.39,6.61 -10.42,11.85 -12.09,15.72 -2.58,5.96 -1.59,11.39 2.96,16.28 -14.35,12.97 -25.85,29.46 -34.49,49.49 -2.28,5.26 -4.2,10.69 -5.77,16.26 1.32,14.32 4.38,35.23 9.17,62.72 1.1,7.14 7,15.41 17.72,24.84 10.73,9.42 15.91,16.97 15.55,22.64 19.96,-7.63 42.76,-5.91 68.4,5.16 5.27,2.27 12.93,6 22.99,11.18 10.06,5.18 17.72,8.9 22.99,11.17 18.61,8.04 35.26,11.47 49.93,10.31 46.72,20.17 79.09,21.43 97.13,3.8 9.3,-2.23 16.97,-10.38 23.04,-24.43 0.6,-1.41 1.26,-3.41 1.98,-6.02 1.21,-2.81 2.12,-4.92 2.73,-6.32 5.46,-12.65 12.08,-21.24 19.88,-25.79 10.86,-38.66 7.73,-72.93 -9.36,-102.81 -7.54,-2.84 -16.18,-10.32 -25.94,-22.45 -9.77,-12.13 -17.63,-19.49 -23.61,-22.07 -5.26,-2.27 -11.04,-2.89 -17.32,-1.85 -8.3,1.83 -13.43,5.03 -15.4,9.6 -0.76,1.76 -1.33,4.53 -1.72,8.33 -0.39,3.78 -1.03,6.73 -1.95,8.84 -1.51,3.51 -4.71,6.09 -9.59,7.74 3.61,6.13 3.44,13.98 -0.47,23.55 -3.92,9.55 -3.43,16.85 1.48,21.89 6.28,1.88 12.36,5.65 18.25,11.31 5.89,5.67 9.45,11.9 10.69,18.68 -0.03,8.74 -1.48,16.44 -4.36,23.12 -3.34,7.73 -8.56,12.35 -15.67,13.86 -7.11,1.52 -16.31,1.09 -27.58,-1.28 -11.28,-2.37 -19.52,-2.8 -24.75,-1.31 -3.61,-3.22 -7.46,-6.87 -11.54,-10.92 -4.08,-4.05 -6.44,-8.71 -7.08,-13.99zm-110.75 -63.44c1.92,-2.51 3.66,-6.55 5.23,-12.13 3.04,-7.02 4.85,-11.23 5.46,-12.64 3.94,-9.13 10.81,-12 20.59,-8.6 1.96,4.17 4.15,6.78 6.62,7.85 2.1,0.91 6.08,0.12 11.94,-2.35 5.86,-2.47 10.19,-3.09 13,-1.88 2.46,1.06 4.54,3 6.25,5.82 0.28,8.04 -1.78,17.15 -6.18,27.33 -1.51,3.52 -3.63,8.43 -6.37,14.76 -2.72,6.32 -4.7,10.89 -5.91,13.69 -1.52,3.52 -2.8,6.5 -3.87,8.96 -3.9,-0.85 -7.66,-2.05 -11.34,-3.65 -15.9,-6.86 -27.74,-19.26 -35.42,-37.16zm190.48 -350.24c-1.6,1.31 -2.76,2.64 -3.49,3.98 -1.48,2.67 -0.32,5.93 3.47,9.76 3.79,3.84 5.81,6.69 6.09,8.59 -4.71,2.21 -8.26,5.49 -10.66,9.85 -1.84,3.36 -3.42,8.82 -4.74,16.39 -1.32,7.56 -2.64,12.95 -3.96,16.15 -4.06,7.38 -0.99,16.5 9.21,27.32 13.33,13.88 20.75,23.41 22.26,28.61 15.05,0.41 26.77,2.92 35.16,7.53 5.36,2.94 11.76,7.98 19.19,15.12l-6.19 0.53c16.03,10.55 32.41,16.49 49.14,17.83 3.79,8.19 13.54,17.47 29.23,27.84 18.68,12.88 30.07,21.54 34.18,25.98 9.52,10.47 11.16,21.41 4.9,32.8 -3.14,5.71 -8.16,11.67 -15.08,17.92 -4.8,-0.02 -7.84,1.14 -9.13,3.49 -1.29,2.35 -0.82,5.88 1.39,10.58 -11.39,11.21 -25.64,12.12 -42.73,2.72 -6.38,-3.5 -12.2,-8 -17.46,-13.52 3.82,-1.4 6.46,-3.43 7.94,-6.11 1.29,-2.35 -0.8,-10.48 -6.25,-24.39 -2.2,-0.77 -5.67,2.78 -10.43,10.64 -4.75,7.87 -10.35,10.91 -16.79,9.11 -0.15,-0.51 2.14,-2.31 6.89,-5.38 -0.23,-2.75 -2.2,-5.14 -5.89,-7.16 -5.88,-2.8 -9.16,-4.38 -9.83,-4.74l-12.29 5.67c-1.08,-7.57 -7,-14.86 -17.78,-21.86 -10.77,-7.02 -16.39,-13.27 -16.87,-18.77 -2.34,-1.29 -5.33,-1.4 -8.97,-0.35 -5.38,1.85 -8.5,2.76 -9.35,2.72l1.23 -11.76 -26.22 7.2c2.69,-12.05 3.85,-17.74 3.48,-17.07 1.84,-3.35 5,-5.54 9.5,-6.57 -17.47,0.01 -39.06,-5.96 -64.8,-17.91 -31.95,-14.94 -53.79,-23.66 -65.51,-26.17 -3.2,-18.79 0.9,-38.58 12.32,-59.37 4.24,-7.71 11.74,-19.19 22.52,-34.44 10.78,-15.25 18.29,-26.74 22.52,-34.45 7.92,-14.41 12.23,-28.2 12.9,-41.36l70.9 33.05zm41.82 -364.36c7.43,-5.42 14.48,-12.56 21.15,-21.43 5.53,-7.33 12.9,-19.51 21.99,-36.37 9.15,-16.92 16.57,-29.18 22.33,-36.82 9.65,-12.83 20.68,-22.38 32.92,-28.48 1.83,3.29 4.89,6.55 9.17,9.77 3.36,2.53 8.87,6.19 16.51,10.98 7.64,4.8 13.15,8.47 16.51,11 14.67,11.03 16.91,23.01 6.71,35.94 -1.15,3.44 -3.11,6.98 -5.87,10.66 -2.76,3.67 -7.42,8.42 -13.97,14.26 -6.55,5.85 -10.86,10.14 -12.93,12.89 -5.52,7.34 -5.22,15.22 0.88,23.65 19.65,11.91 40.51,26.18 62.44,42.68 17.73,13.34 43.33,34.04 76.73,62.05 33.38,28 58.6,48.42 75.72,61.3 19.56,14.72 38.21,27.33 56.1,37.91l-11.25 1.59c-0.16,2.76 2.2,5.97 7.1,9.65 -0.62,1.45 -7.71,12.16 -21.29,32.1 -8.59,12.69 -11.82,22.71 -9.69,30.06 -15.7,8.77 -32.72,6.26 -51.06,-7.55 -4.28,-3.22 -10.03,-8.14 -17.25,-14.77 -7.22,-6.63 -12.67,-11.33 -16.33,-14.09 -4.28,-3.22 -8.3,-5.52 -12.04,-6.91 -5.36,-3.06 -13.99,-10.05 -25.91,-20.93 -14.13,-13.03 -24.41,-21.96 -30.82,-26.79 -9.78,-7.37 -18.39,-12.16 -25.81,-14.39 0.15,-0.84 3.03,-4.66 8.63,-11.47 3.75,-4.35 3.46,-8.4 -0.89,-12.16l-15.75 7.55c-1.06,-1.76 1.48,-7.04 7.6,-15.83 4.38,-5.81 4.42,-10.32 0.15,-13.54 -1.53,-1.15 -3.75,-2.34 -6.66,-3.57 -1.83,0.53 -3.21,1.41 -4.13,2.63 -1.38,1.84 -2.63,5.08 -3.74,9.75 -1.12,4.67 -2.15,7.61 -3.07,8.83 -2.53,3.37 -6.39,3.09 -11.59,-0.82 -5.19,-3.91 -13.51,-8.13 -24.94,-12.67 -11.43,-4.53 -19.13,-8.29 -23.11,-11.29 -6.72,-5.06 -10.5,-11.49 -11.33,-19.29 -2.44,-1.85 -4.74,-3.57 -6.88,-5.18 -8.56,-6.44 -12.59,-15.71 -12.12,-27.8 -12.54,-1.78 -22.33,1.99 -29.4,11.39 -2.3,3.07 -5.52,8.78 -9.61,17.07 -4.14,8.37 -7.54,14.32 -10.31,17.99 -5.51,7.33 -12.16,12.02 -20.05,14.23 -5.74,-0.01 -11.47,-0.02 -17.16,-0.1 -7.65,-0.01 -13.46,-1.51 -17.43,-4.5 -2.14,-1.61 -3.93,-3.68 -5.38,-6.21 2.69,0.23 4.76,-0.61 6.08,-2.36 2.02,-2.68 1.77,-6.81 -0.72,-12.41 -2.5,-5.58 -5.63,-9.37 -9.45,-11.29 -3,-0.47 -5,-0.05 -5.86,1.09 -0.92,1.23 -1.04,3.29 -0.47,6.36 0.63,2.98 0.57,4.97 -0.07,5.81 -0.92,1.22 -3.34,0.95 -7.4,-0.66 -5.11,-5.29 -5.64,-11.9 -1.57,-19.86 4.74,-9.48 6.36,-16.4 4.91,-20.84 8.04,-3.05 14.36,-7.63 18.95,-13.74 3,-3.98 6.34,-10.8 9.91,-20.32 3.58,-9.53 6.86,-16.27 9.85,-20.25 5.06,-6.72 12.09,-11.6 20.97,-14.5zm370.4 -159.95c-1.86,0.87 -3.32,1.87 -4.36,3 -2.09,2.23 -1.76,5.67 0.96,10.32 2.73,4.64 4,7.9 3.8,9.81 -5.12,0.98 -9.36,3.29 -12.76,6.93 -2.62,2.8 -5.49,7.71 -8.63,14.72 -3.15,7 -5.75,11.9 -7.82,14.68 -5.74,6.16 -5.01,15.74 2.2,28.75 9.52,16.73 14.36,27.79 14.55,33.2 14.48,4.1 25.22,9.42 32.22,15.95 4.47,4.18 9.43,10.63 14.88,19.38l-6.13 -1.01c12.94,14.17 27.35,23.96 43.23,29.37 1.66,8.88 8.83,20.27 21.48,34.18 14.94,17.09 23.85,28.28 26.74,33.6 6.65,12.49 5.54,23.49 -3.33,33 -4.44,4.76 -10.78,9.3 -19.03,13.65 -4.63,-1.2 -7.87,-0.82 -9.7,1.14 -1.82,1.96 -2.25,5.5 -1.25,10.6 -13.81,8.06 -27.84,5.42 -42.1,-7.89 -5.32,-4.96 -9.85,-10.76 -13.59,-17.4 4.04,-0.41 7.11,-1.73 9.2,-3.97 1.83,-1.96 1.81,-10.35 -0.06,-25.17 -1.93,-1.29 -6.17,1.3 -12.72,7.75 -6.54,6.45 -12.72,8.02 -18.51,4.69 -0.02,-0.54 2.64,-1.71 7.99,-3.52 0.46,-2.72 -0.86,-5.52 -3.94,-8.4 -5.01,-4.15 -7.81,-6.49 -8.36,-7.01l-13.31 2.48c0.82,-7.6 -3.13,-16.13 -11.85,-25.57 -8.71,-9.45 -12.63,-16.89 -11.73,-22.34 -1.96,-1.83 -4.83,-2.67 -8.61,-2.54 -5.67,0.46 -8.92,0.58 -9.73,0.34l4.09 -11.11 -27.19 0.53c5.57,-11.02 8.09,-16.25 7.57,-15.69 2.61,-2.8 6.22,-4.14 10.83,-4.03 -16.93,-4.29 -36.4,-15.39 -58.4,-33.31 -27.29,-22.34 -46.31,-36.17 -57.06,-41.49 1.52,-18.99 10.37,-37.17 26.56,-54.51 6,-6.43 16.1,-15.71 30.3,-27.84 14.21,-12.13 24.31,-21.41 30.31,-27.84 11.23,-12.03 18.79,-24.33 22.68,-36.91l60.58 49.48zm406.24 -36.21c-39.34,-33.06 -78.33,-72.62 -116.97,-118.66l4.49 -0.16c-10.34,-4.09 -18.83,-9.85 -25.46,-17.26 -3.32,-3.71 -7.41,-9.42 -12.26,-17.13 -4.86,-7.73 -8.94,-13.44 -12.26,-17.15 -6.12,-6.84 -13.27,-12.25 -21.45,-16.23 -13.61,-3.73 -27.1,-7.33 -40.45,-10.77 -16.66,-2.56 -30.19,-0.46 -40.58,6.28 -1.55,3.43 -3.75,6.42 -6.6,8.98 -3.99,3.57 -11.19,7.57 -21.59,12.01 -10.41,4.43 -17.61,8.44 -21.6,12.01 -5.7,5.1 -8.78,11.7 -9.23,19.81 -6.06,1.83 -11.37,4.78 -15.93,8.86 -9.41,8.42 -16.3,22.54 -20.64,42.35 -3.29,15.26 -6.43,30.39 -9.43,45.4 4.01,1.04 7.16,2.84 9.46,5.4 2.55,2.85 4.02,8.08 4.41,15.69 0.39,7.61 1.86,12.84 4.41,15.69 2.04,2.28 4.92,4.07 8.64,5.36 11.86,10.95 23.92,10.94 36.18,-0.04 2.28,-2.03 5.44,-5.24 9.47,-9.63 4.04,-4.38 7.2,-7.58 9.48,-9.63 5.7,-5.1 11.14,-7.92 16.32,-8.44 1.38,-5.34 -0.15,-14.51 -4.57,-27.49 -4.43,-12.97 -5.18,-23.85 -2.26,-32.64 2.28,-2.03 5.23,-5.06 8.83,-9.06 3.62,-3.99 6.27,-6.76 7.98,-8.29 7.7,-6.89 16.78,-9.36 27.24,-7.43 3.27,-0.36 5.92,0.6 7.97,2.89 1.78,1.99 3.21,6.88 4.27,14.65 1.05,7.78 2.76,12.42 5.11,13.91 -12.12,23.16 -24.1,46.21 -35.93,69.12 -13.54,29.06 -20.4,54.96 -20.57,77.7 -0.01,5.15 2.66,13.02 8.04,23.62 6.39,11.73 9.97,20.33 10.76,25.79 7.67,3.4 15.46,6.96 23.39,10.65 5.53,2.74 9.97,5.97 13.27,9.67 3.32,3.71 7.59,9.91 12.79,18.6 9.61,2.69 19.2,5.67 28.77,8.91 13.36,3.45 23.31,2.24 29.87,-3.63 2.28,-2.05 4.18,-4.51 5.7,-7.41 11.98,3.66 22.68,1.27 32.09,-7.15 3.42,-3.06 7.97,-8.17 13.65,-15.3 5.68,-7.14 9.62,-12.21 11.82,-15.19 2.19,-3 4.48,-11.21 6.85,-24.62 1.94,-10.46 5.32,-17.85 10.17,-22.19 2.57,-2.3 5.52,-4.17 8.85,-5.61 11.34,0.63 22.4,-3.37 33.17,-11.98 12.2,-9.89 23.08,-15.52 32.64,-16.88 -1.3,-0.89 -2.34,-1.75 -3.11,-2.61 -2.04,-2.28 -1.79,-6.74 0.74,-13.37 2.54,-6.64 2.66,-11.23 0.37,-13.8 -1.28,-1.42 -3.38,-2.63 -6.31,-3.6zm-127.01 11.24c2.92,23.05 1.08,40.37 -5.38,51.79 -17.53,9.53 -31.95,8.05 -43.17,-4.49 -2.3,-2.57 -4.17,-5.52 -5.61,-8.85 -6.97,-6.08 -9.97,-13.16 -8.98,-21.22 0.56,-5.13 3.14,-12.7 7.76,-22.74 4.62,-10.04 7.34,-17.48 8.15,-22.31 6.99,-8.82 14.44,-8.81 22.35,0.03 1.79,1.99 4.57,5.53 8.35,10.62 3.79,5.09 6.82,8.91 9.12,11.47 2.29,2.57 4.77,4.47 7.41,5.7zm232.84 -446.35c9.29,31.05 24.15,73.78 44.55,128.18 22.7,59.31 38.14,102.23 46.41,128.92 -1.71,0.19 -3.44,4.52 -5.23,13l11.6 2.03c2.63,12.44 5.43,24.77 8.43,37.09 2.2,14.56 -1.73,24.65 -11.76,30.28 -7.86,0.56 -16.28,3.76 -25.25,9.61 -2.56,1.68 -6.4,4.18 -11.53,7.53 -5.13,3.34 -8.98,5.85 -11.54,7.52 -14.42,9.41 -27.86,10.87 -40.26,4.45 -13.49,-14.38 -35.85,-33.94 -67.11,-58.77 -31.27,-24.83 -53.82,-45.06 -67.62,-60.61l17.66 -14.94c-10.57,-9.9 -21.87,-14.97 -33.96,-15.3l16.86 16.4c-8.07,1.62 -16.13,-2.5 -24.15,-12.34 -8.02,-9.84 -16.49,-13.91 -25.42,-12.19 3.78,-6.13 4.61,-10.78 2.52,-13.99 -1.25,-1.92 -4.07,-3.97 -8.45,-6.13 -4.37,-2.17 -7.19,-4.21 -8.45,-6.14 -2.3,-3.53 -2.04,-8.72 0.79,-15.58 -8.33,5.43 -14.06,5.74 -17.2,0.93 -0.83,-1.28 -1.97,-4.08 -3.41,-8.38 -1.45,-4.31 -2.79,-7.43 -4.05,-9.36 -2.93,-4.48 -7.36,-6.39 -13.31,-5.71 -0.84,-11.78 3.55,-20.81 13.16,-27.08 3.53,-2.3 9.87,-5.17 19.04,-8.64 9.16,-3.46 15.5,-6.35 19.02,-8.64 3.85,-2.51 6.63,-5.24 8.36,-8.2 39.99,22.8 86.21,64.6 138.64,125.39 1.5,-0.51 4.21,-0.56 8.12,-0.15 3.93,0.4 6.54,0.2 7.81,-0.63 1.93,-1.26 2.86,-3.7 2.78,-7.31 -1.14,-2.45 -3.2,-4.19 -6.15,-5.23 -2.96,-1.04 -6.08,-1.97 -9.26,-2.64 7.01,-10.96 6.74,-22.21 -0.83,-33.83 -1.88,-2.88 -5.36,-7.35 -10.44,-13.4 -5.09,-6.04 -8.68,-10.67 -10.82,-13.96 -2.51,-3.84 -4.32,-7.68 -5.46,-11.51 1.14,-8.06 -2.19,-19.81 -10.04,-35.36 -8.89,-18.52 -14.06,-31.36 -15.58,-38.6 -2.45,-14.95 1.82,-28.02 12.75,-39.26 11.31,-5.09 22.5,-10.33 33.59,-15.74 14.17,-5.58 25.9,-6.16 35.19,-1.71z"/>
   <path class="fil1 str0" d="M3277.28 2278.47c27.13,-11.64 50.05,-27.36 68.74,-47.15 7.05,5.43 15.35,5.71 24.9,0.87 1.37,-0.7 5.8,-2.96 13.3,-6.76 5.28,-3.13 9.55,-5.29 12.79,-6.51 3.91,-4.14 7.94,-8.86 12.1,-14.2 4.11,-5.41 5.24,-9.95 3.34,-13.7 -0.7,-1.37 -1.48,-2.48 -2.34,-3.33 -15.64,-24.87 -31.29,-49.75 -46.93,-74.64 -21.84,-28.59 -46.4,-44.01 -73.62,-46.05 -1.87,1.38 -7.43,2.48 -16.57,3.48 -9.15,1 -15.6,2.46 -19.35,4.36 -5.8,2.95 -8.5,7.76 -8.13,14.42 -19.32,0.82 -38.71,6.16 -58.15,16.03 -5.12,2.61 -10.06,5.55 -14.82,8.83 -8.14,11.86 -19.14,29.9 -33.02,54.11 -3.72,6.19 -4.47,16.33 -2.23,30.43 2.22,14.1 1.38,23.22 -2.53,27.35 20.24,6.89 36.68,22.78 49.33,47.67 2.6,5.12 6.12,12.89 10.55,23.3 4.43,10.4 7.94,18.16 10.54,23.28 9.19,18.07 19.79,31.35 31.83,39.83 23.05,45.36 47.15,67.02 72.28,64.97 8.58,4.23 19.7,2.87 33.34,-4.06 1.36,-0.7 3.16,-1.82 5.37,-3.37 2.73,-1.39 4.77,-2.42 6.14,-3.12 12.28,-6.24 22.87,-8.62 31.77,-7.13 33.05,-22.81 52.55,-51.16 58.49,-85.08 -3.99,-6.99 -5.86,-18.26 -5.61,-33.84 0.23,-15.57 -1.12,-26.26 -4.07,-32.06 -2.6,-5.11 -6.65,-9.28 -12.14,-12.49 -7.55,-3.89 -13.54,-4.7 -17.98,-2.45 -1.7,0.86 -3.92,2.63 -6.64,5.3 -2.72,2.67 -5.1,4.53 -7.15,5.57 -3.41,1.73 -7.52,1.67 -12.32,-0.18 -1.15,7.02 -6.29,12.96 -15.41,17.81 -9.12,4.84 -13.4,10.78 -12.85,17.79 3.63,5.45 5.9,12.24 6.81,20.36 0.91,8.12 -0.33,15.19 -3.71,21.19 -5.61,6.71 -11.64,11.72 -18.13,15.01 -7.5,3.81 -14.47,4.03 -20.91,0.65 -6.44,-3.38 -13.24,-9.58 -20.39,-18.6 -7.17,-9.03 -13.23,-14.64 -18.21,-16.82 -0.72,-4.79 -1.35,-10.06 -1.9,-15.78 -0.54,-5.73 0.61,-10.82 3.49,-15.29zm-44.66 -119.57c3.08,-0.7 7,-2.69 11.77,-5.98 6.82,-3.46 10.92,-5.54 12.28,-6.23 8.87,-4.51 15.98,-2.33 21.34,6.53 -1.17,4.46 -1.15,7.88 0.07,10.27 1.04,2.04 4.6,3.98 10.69,5.83 6.08,1.84 9.83,4.13 11.21,6.86 1.21,2.38 1.57,5.2 1.08,8.46 -4.92,6.37 -12.32,12.06 -22.22,17.09 -3.41,1.73 -8.18,4.15 -14.33,7.27 -6.13,3.12 -10.56,5.38 -13.29,6.76 -3.42,1.74 -6.31,3.21 -8.7,4.42 -2.46,-3.15 -4.58,-6.47 -6.4,-10.05 -7.84,-15.43 -9.02,-32.55 -3.5,-51.23zm225.17 -263.63c8.72,20.01 18,42.46 27.83,67.38 9.97,25.26 25.1,64.43 45.43,117.48 20.31,53.07 35.67,92.76 46.07,119.1 14.31,36.3 27.69,68.65 40.14,97.06 -3.65,4.31 -8.68,7.73 -15.08,10.26 -2.85,1.12 -7.65,2.51 -14.4,4.14 -6.76,1.64 -11.74,3.09 -14.94,4.35 -8.55,3.38 -15.18,8.46 -19.89,15.26l-16.04 -10.95c3.22,-5.38 3.92,-10.39 2.09,-15.02 -1.54,-3.91 -6.69,-8.87 -15.44,-14.88 -8.75,-6.01 -14.03,-11.33 -15.86,-15.96 -1.54,-3.91 -1.48,-8.45 0.18,-13.63 1.84,0.5 4.43,2.88 7.74,7.12 3.32,4.24 6.4,5.8 9.25,4.68 1.42,-0.56 2.42,-1.68 3,-3.34 0.57,-1.67 0.45,-3.57 -0.4,-5.71 -5.2,-13.16 -15.92,-22.1 -32.16,-26.79 0.21,-0.49 0.5,-0.81 0.86,-0.95 0.71,-0.28 4.11,1.04 10.2,3.98 6.1,2.95 10.93,3.72 14.49,2.31 1.42,-0.56 2.82,-1.73 4.17,-3.49 -4.99,-11.61 -15.5,-22.88 -31.55,-33.83 -16.03,-10.95 -25.87,-22.07 -29.51,-33.39l14.93 -5.89c-1.46,-2.71 -4.87,-5.06 -10.19,-7.08 -6.8,-2.67 -10.77,-4.39 -11.9,-5.17 10.6,-5.42 14.01,-12.94 10.22,-22.54 -1.12,-2.85 -2.84,-5.67 -5.27,-8.41 -13.81,-6.07 -23.7,-16.56 -29.6,-31.51 -2.67,-6.76 -5.35,-17.73 -8.05,-32.92 -2.7,-15.18 -5.39,-26.15 -8.06,-32.91 -1.54,-3.91 -2.94,-7.47 -4.21,-10.68l9.35 3.1c3.93,-0.73 5.81,-3 5.45,-6.78 -0.35,-3.76 -0.52,-7.3 -0.66,-10.53l-9.36 -4.95c7.79,-8.41 9.86,-17.25 6.2,-26.5 -1.26,-3.21 -3.41,-7.09 -6.36,-11.68l-25.1 -5.52c3.93,-3.6 5.47,-6.47 4.63,-8.61 -0.43,-1.07 -3.05,-2.5 -7.88,-4.3 -4.81,-1.8 -7.65,-3.76 -8.5,-5.9 -0.69,-1.78 -0.62,-3.66 0.25,-5.65 -0.4,-5.19 3.59,-9.64 11.82,-13.3 8.31,-3.69 11.44,-9.04 9.49,-16.08 4.98,2.97 13.89,3.16 26.91,0.48 14.46,-3.23 24.39,-3.86 29.71,-1.85z"/>
   <path class="fil0" d="M1183.86 6300.34l2.87 -228.05c253.61,-6.45 289.38,151.57 -2.87,228.05zm-30.03 -761.88c8.12,-23.47 17.03,-63.28 38,-92.92 165.85,-234.44 275.12,479.35 -38,92.92zm2702.22 3166.33c-292.92,41.79 -2251.55,140.37 -2465.22,67.47 -201.81,-250.35 -137.22,-789.95 -154.07,-1153.22l-218.12 -4573.23 -23.07 -313.73c8.89,-250.72 -124.93,-745.81 46.83,-929.19 161.61,-191.12 264.85,-47.93 463.64,-121.6 169.32,-62.75 17.56,36.49 138.14,-101.47 -871.14,74.15 -759.93,41.25 -758.05,791.87 1.08,431.11 51.17,2175.1 146.16,2380.63l57.04 -180.31c2.87,-34.9 -6.93,-182.45 -9.54,-226.23 -7.89,-131.33 -14.82,-255.46 -18.04,-387.06 -6.8,-277.2 -37.73,-520.97 -33.8,-799.36l110.52 2068.27c-83.18,-226.68 36.14,192.97 -25.07,-76.81 -30.03,-132.37 19.19,-248.15 -81.11,-357.94 -40.9,119.98 0.07,412.09 7.1,570.85 20.3,459.34 -11.81,1532.39 105.96,1894.99 -98.16,55.45 -36.67,2.35 -77.37,16.16 -107.11,36.33 24.78,-51.58 -74.23,35.99 380.21,243.16 -114.69,1426.08 419.4,1579.8 160.84,46.29 1587.88,-44.52 1859.47,-58.06 3121.78,-155.65 2791.98,89.59 2750.93,-1147.22 -12.78,-384.98 -77.79,-1035.82 -27.44,-1367.46 12.79,-84.28 -46.71,-158.88 -60.8,-356.38l-171.83 -3767.78c-11.21,-319.63 67.9,-629.89 -221.67,-752.38 -136.09,-57.58 -803.25,-14.92 -928.25,35.79 103.99,158.65 211.5,70.3 406.43,48.4 705.35,-79.26 648.17,61.32 686.08,1158.97 38.42,1112.43 286.13,5251.27 201.9,5924.2l-2051.92 96.04z"/>
   <g>
    <path class="fil2" d="M5338.5 7148.83c-106.07,-145.79 -309.54,-529.65 -394.33,-721.37 -183.93,-118.05 -181.17,-12.41 -252.72,109.51l-57.13 168.87c84.55,49.18 -52.92,45.54 49.21,-13.43 19.19,-11.09 -3.28,-15.81 67,-49.59 89.46,75.4 143.05,215.15 187.36,322.38 -118.16,95.15 -282.47,103.67 -450.65,109.5 -27.82,103.18 -125.14,272.86 -189.85,317.52 -254.86,175.94 -538.19,-18.69 -426.07,-476.9 63.66,-260.17 223.09,-343.48 301.44,-188.01 53.84,106.85 29,264.19 17.02,371.81 585.8,-139.71 -148.15,-816.87 -489,-364.69 -125.24,166.15 -78.39,280.88 -143.92,402.23 -62.48,-172.28 -259.5,-627.2 -431.83,-671.58 -118.28,70.01 -171.69,236.78 -195.56,386.58 31.35,-41.67 64.56,-88.65 117.15,-117.32 93.37,57.97 160.7,225.07 198.36,337.45 -154.01,69.52 -257.91,88.14 -440.94,100.42 -133.29,187.9 31.41,43.23 -244.84,338.42 376,-93.72 466.81,-242.73 716.98,-395.76l127.75 235.04c123.99,174.43 117.77,47.08 306.21,106.93 68.87,21.88 302.5,265.61 581.27,16.91 209.72,-187.09 120.41,-63.8 347.97,-207.36 131.12,-82.71 211.24,-169.27 345.67,-244.17 74.2,188.11 107.49,333.7 338.98,331.85l14.47 -205.24z"/>
    <path class="fil2" d="M4287.02 6120.92c12.92,8.68 40.61,5.41 58.69,5.8 -1.19,0.77 -3.03,0.35 -3.73,2.07l-28.46 7.98c-12.19,1.42 -23.79,1.52 -35.9,3.02l-47.07 99.94 81.86 9.51c-28.02,11.13 -62.04,9.25 -91.31,7.63l-34.85 86.19c41.46,8.38 59,10.08 102.55,10.1 -31.89,19.1 -76.75,8.48 -111.02,12.31l-14.33 30.21c-107.52,0.26 -89.93,-9.53 -235.38,-0.65l-10.39 -43.38 -29.99 -3.99 -2.47 -13.74c-0.23,-13.75 -4.52,-5.16 2.77,-10.88 -0.44,30.51 2.22,2.69 -11.87,11.78 -10.64,9.35 -22.25,23.63 -36.38,33.41 -37.59,26.04 -20.64,-0.95 -27.03,47.26 -60.82,24.01 -74.17,19.35 -144.39,55.93l-42.76 22.97 15.36 10.5c52.53,27.31 19.69,8.54 52.03,36.62 85.81,-70.56 116.2,-23.09 162.73,-19.3 30.09,2.45 36.66,12.5 53.77,22.78 12.63,-18.71 15.27,-33.17 41.61,-36.11 27.05,-3.03 35.34,15.63 61.48,7.29 59.1,-18.85 75.16,-17.66 118.48,21.71l7.71 -6.86c26.64,-25.08 39.65,-24.91 104.15,-17.61 39.05,4.41 86.9,-1.04 129.36,5.06l21.1 -62.4 -71.98 -25.07c4.85,-68.59 38.29,-198.7 59.78,-269.45 8.26,-27.22 22.23,-59.91 27.26,-86.09l2.13 -8.54 -26.63 -6.91 -9.25 -24.03c-9.45,26.63 -6.53,28.74 -41.35,27.33l-0.49 -29.21c-14.6,9.56 -39.08,68.88 -45.79,86.82z"/>
    <polygon class="fil2" points="3502,6530.09 3539.17,6508.76 3511.91,6482.49 "/>
    <path class="fil2" d="M4374.65 6035.98l-11.31 -0.99c-0.13,17.98 -2.87,21.97 -20.29,20.18l-0.59 -20.63 -9.65 -0.44 0.49 29.21c34.82,1.41 31.9,-0.7 41.35,-27.33z"/>
    <path class="fil2" d="M4406.91 5889.22l-8.98 10.46 -3.89 12.64c10.7,7.07 5.39,10.35 1.59,26.15l23.83 6.77 1.84 -82.76 -14.39 26.74z"/>
    <path class="fil2" d="M4793.04 5491.5c-41.67,-1.9 -47.42,-2.71 -61.54,27.6 -8.36,-9.68 -5.01,-7.42 -9.73,-24.53 -25.29,1.66 -54.55,23.81 -72.42,39.04l-19.76 17.21c-0.82,0.61 -2.3,1.74 -3.55,2.43 -6.35,-42.94 -23.9,-77.65 -37.59,-115.84 -8.32,0.7 -7.71,1.84 -10.55,3.11l-10.99 5.93c-0.96,0.54 -2.46,1.71 -3.79,2.39 5.13,-39.11 14.28,-50.1 -52.59,-103.63l-7.23 26.99c-25.61,-24.97 -24.27,-38.1 -61.41,-58.13 -80.34,-43.32 -237.47,-47.63 -325.25,-38.13 74.24,34.14 73.37,19.43 156.7,71.17 21.47,13.33 21.23,5.96 68.13,1.98l-22.51 25.37c7.44,9.81 32.97,26.3 64.08,60.6 33.44,0.54 45.14,-4.55 78.09,6.62l-53.91 22.39c11.81,29.69 31.22,30.03 35.27,62.42 -34.66,-24.54 -17.61,-32.15 -90.86,-24.5 -41.64,4.36 -29.04,6.56 -35.59,12.58l20.96 16.69c-103.75,9.63 -92.23,9.92 -161.42,59.08 -33.82,24.02 -81.42,79.24 -107.65,112.69 -14.5,14.06 -45.66,56.84 -56.16,76.95 36.45,-16.66 69.1,-41.95 108.94,-61.34 86.44,-42.08 36.49,5.81 91.94,-70.11 0.68,1.05 1.25,2.64 1.54,3.41l8.73 29.27c27.3,-9.01 61.06,-18.94 94.11,-16.05 8.35,-21.78 31.51,-51.05 55.54,-59.39 -5.84,19.77 -13.89,36.33 -13.78,58.73l179.81 7.42 -48.47 74.62 -52.43 89.34 36.12 12.2c-17.54,1.63 -27.51,3.28 -41.45,-5.87 -3.55,6.18 -7.68,13.03 -11.07,20.27l-1.84 82.76 5.46 3.79 -19.76 2.15 -1.68 14.54c30.87,-7.76 18.57,-16.79 27.27,18.59l4.22 14.01c0.46,1.35 1.11,3.16 1.95,4.61 26.72,-68.26 105.43,-253.48 144.06,-299.31 27.65,27.33 56.13,80.49 75.48,105.36 14.59,18.76 1.62,7.38 17.42,14.35 8.65,-11.64 19.98,-25.52 27.86,-40.35 16.32,27.07 -16.56,62.97 -9.71,84.36 9.75,30.45 21.6,45.78 27.93,85.45l31.69 -12.51c-26.18,78.19 -18.83,30.75 -9.18,110.64 5.62,46.51 5.3,94.2 5.62,141.47 19.86,-29.15 50.87,-151.14 58.91,-196.68 17.66,-100.08 15.13,-138.97 -26.27,-216l24.87 -4.56c-27.38,-69.42 -26.62,-82.99 -74.81,-91.95 1.01,-1.25 2.76,-4.47 3.29,-3.51 2.12,3.87 10.85,-22.46 19.84,-23.95l71.36 2.76c-4.34,-26.38 -12.55,-39.51 -21.16,-59.81l128.36 69.94 30.96 5.51c0.86,-18.69 -1.45,-20.37 9.21,-32.65 4.34,12.19 21.58,41.48 36.43,48.93 16.47,8.26 44.21,14.86 64.06,24.48 39.06,18.95 75.64,45.97 111.08,61.71 -18.1,-35.07 -25.91,-21.03 -30.37,-45.89 -14.9,-9.49 -5.36,-3.53 -16.75,-15.22 -64.21,-65.9 -120.28,-133.07 -208.47,-175.72 -36.45,-17.62 -46.91,-1.75 -65.22,-38.34l-70.37 -9.94z"/>
    <path class="fil2" d="M3876.12 6334.82c14.09,-9.09 11.43,18.73 11.87,-11.78 -7.29,5.72 -3,-2.87 -2.77,10.88l2.47 13.74 29.99 3.99c-8.26,-67.79 -60.86,-184.44 -87.83,-243.69 -17.25,-37.89 -36.08,-77.84 -54.99,-111.58 -19.82,-35.36 -41.64,-71.12 -59.57,-106.47l-6.76 -13.96 99.04 -10.94 -10.98 -29.27c17.5,5.64 24.72,11.41 34.96,22.52l28.65 1.9 21.32 -17.61c0.51,-1.54 2.29,-1.08 3.28,-1.85 1.48,-22.57 6.78,-19.77 2.66,-38.77 -28.4,-8.13 -33.9,-9.16 -65.7,-6.81 -7.89,-15.4 4.54,-1.66 0.19,-13.45 -41.5,-2.52 -51.57,-5.37 -73.03,15.65 1.2,-15.82 9.79,-18.04 17.94,-32.52l-30.93 -9.89c11.12,-6.03 59.35,-4.37 77.13,-37.33 3.92,-7.28 1.58,0.31 1.23,-9.73l-1.03 -7.02c32.22,-0.83 21.16,0.92 45.99,-10.33 10.45,-10.38 58.97,-28.77 81.38,-38.66 -38.23,-1.87 -96.78,5.29 -133.9,13.38 -54.72,11.94 -71.7,18 -99.02,53.55l-16.53 -7.78c-13.4,19.19 -32.56,21.4 -23.32,47.9 -14.33,8.52 -10.1,-14.21 -23.65,18.44 -5.26,12.65 -7.73,31.96 -14.75,42.58 -8.44,-5.11 -21.81,-14.32 -34.17,-18.93 -29.2,-10.89 -24.23,-5.39 -27.38,6 -28.56,-11.94 -33.45,-13.87 -71.1,-3.35 -1.92,6.04 -0.1,2.85 -0.11,7.15 -0.01,6.43 2.98,1.63 -0.09,6.94 -83.46,6.33 -166.5,89.95 -206.93,146.91 20.42,-8.37 42.06,-24.04 64.78,-35.69 44.63,-22.88 33.24,-2.65 64.81,-43.47 8.64,15.47 -0.27,6.5 12.18,14.85 14.69,-5.12 41.37,-9.64 51.37,-14.33 17.44,-8.17 18.52,-21.58 37.75,-30.56l-11.06 29.52c51.42,0.03 23.69,-11.3 60.5,5.44 -14.6,11.79 -14.77,3.56 -26.19,18.6 -6.31,8.31 -10.77,23.74 -14.82,34.89l13.46 2.77c-40.91,68.35 14.49,185.26 37.33,210.09 -1.45,-84.61 9.05,-87.56 -10.49,-124.69l20.12 -3.64c17.98,-61.67 12.35,-25.26 1.7,-81.57l26.53 16.66c15.54,-22.06 34.54,-55.64 55.59,-71.4l12.73 29.51 24.27 -5.9 -19.01 15.29 20.21 53.65 27.54 -7.4 -23.31 17.34 28.31 81.01 26.69 90.62c22.19,-6.8 24.82,-13.64 42.76,-21.87 -12.19,15.13 -24.8,26.95 -37.13,39.31l19.54 87.86 50.55 -25.02c-8.24,19.13 -24.17,30.26 -46.7,40.62 1.28,22.37 3.17,60.78 13.91,77.54 20.06,-6.95 52.76,-28.47 62.52,-29.84z"/>
    <path class="fil2" d="M4376.4 6027.3c28.6,-12.87 36.69,-19.16 44.98,16.39 -26.64,-1.37 -23.97,-8.13 -31.74,8.31 16.4,8.33 11.37,6.02 28.21,-1.5l19.07 -47.57c-0.84,-1.45 -1.49,-3.26 -1.95,-4.61l-4.22 -14.01c-8.7,-35.38 3.6,-26.35 -27.27,-18.59l1.68 -14.54c-40.47,5.2 -44.19,7.86 -64.8,63.38l36.04 12.74z"/>
    <path class="fil2" d="M4376.4 6027.3l-1.75 8.68 9.25 24.03 26.63 6.91 -2.13 8.54c4.54,-6.01 0.74,5.89 6.24,-10.09 3.71,-10.76 0.09,1.47 3.21,-14.87 -16.84,7.52 -11.81,9.83 -28.21,1.5 7.77,-16.44 5.1,-9.68 31.74,-8.31 -8.29,-35.55 -16.38,-29.26 -44.98,-16.39z"/>
    <path class="fil2" d="M4363.34 6034.99l-20.88 -0.45 0.59 20.63c17.42,1.79 20.16,-2.2 20.29,-20.18z"/>
    <path class="fil2" d="M3806.05 7642.47l-50.57 -83.84c-39.76,-1.21 -64.63,-6.72 -102.91,3.68 -67.17,18.23 -39.32,-22.16 -52.58,42.93l21.48 336.79c-0.6,189.26 18.22,327.82 -201.17,308.07l-46.75 -84.67c-68.14,-498.21 105.15,-621.05 -223.99,-583.08l20.88 254.09c-190.11,-106.36 -266.56,-158.55 -599.8,-91.07 59.8,100.27 65.14,339.02 55.33,491.91l-11.51 163.35 -22.92 131.11 269.53 -11.83c-67.78,-162.98 -120.45,-603.91 -25.69,-739.77 350.18,-4.8 91.53,378.53 73.93,413.7 178.07,-30.41 149.9,-46.99 250.66,-125.91 14.29,444.71 341.86,234.63 464.68,263.17 102.38,23.79 98.07,13.05 226.82,10.15 -42.63,-265.88 -36.46,-436.6 -45.42,-698.78z"/>
    <path class="fil2" d="M4404.6 8248.16c-51.52,35.5 -126.09,104.91 -201.01,118.64 -127.15,23.29 -32.21,16.2 -72.33,-10.89 -129.16,-161.2 -2.75,-510.73 -68.97,-682.17l-208.2 0.95c51.7,75.31 110.32,698.14 -11.18,794.71 513.92,14.04 523.75,-9.13 594.76,-189.28 235.74,2.91 316.35,66.48 445.36,-150.09 63.15,63.02 172.06,357.74 477.19,251.36 396.99,-138.4 240.96,-889.09 -215.77,-760.81 -240.22,67.47 -216.95,239.98 -264.51,480.13 -149.64,130.18 -357.81,150.87 -402.7,-93.37 -34.92,-189.91 11.38,-447.22 220.18,-446.04 61.75,140.07 54.39,178.37 46.79,354.83 375.17,-93.9 44.79,-533.71 -282.88,-381.53 -98.87,45.91 -186.94,187.24 -197.05,315.59 -17.46,221.7 68.35,278.59 140.32,397.97zm877.69 -458.55c94.89,0 171.81,104.65 171.81,233.74 0,129.09 -76.92,233.74 -171.81,233.74 -94.89,0 -171.81,-104.65 -171.81,-233.74 0,-129.09 76.92,-233.74 171.81,-233.74z"/>
   </g>
   <path class="fil3" d="M4095.48 2374.84c27.8,-4.54 31.47,-8.6 64.61,-6.67 52.02,3.05 42.55,8.2 52.3,12.55l76.9 -1.62 -61.07 101.17c-26.48,57.75 -17.87,92.09 -49.15,146.51 -82.79,144.07 -105.03,73.21 -111.41,291.75 45.59,-52.39 86.02,-174.91 162.54,-294.08 80.22,-124.92 143.03,-158.57 236.51,-259.86 82.95,5.85 -12.53,-2.92 40.03,19.29 2.29,0.96 8.03,3.26 10.24,4.13 2.39,0.95 9.28,3.12 11.31,3.89 2.13,0.79 7.79,3.51 11.96,3.77 27.74,-51 132.8,-181.47 176.01,-218.35 238.47,-203.53 39.87,195.46 495.86,-283.23 38.19,-40.09 66.12,-66.62 117.27,-98.42 128.7,-80.03 93.46,-6.54 115.82,-16.48 106.91,-74.73 36.3,-164.01 230.5,-301.75l519.98 -342.34c75.45,-53.84 153.5,-378.08 238.69,-509.08 0.1,75.22 -31.15,139.57 -52.08,205.2 -37.78,118.4 -15.76,115.47 -18.86,237.76l-366.25 233.68c-65.68,48.38 -104.72,79.35 -167.14,127.74 -97.88,75.89 -196.72,52.18 -299.22,290.28 -47.15,109.53 -1.24,22.58 10.59,58 0.58,1.73 48.35,-16.63 -12.22,22.6 -71.3,46.17 -247.94,13.37 -321.1,192.39 -34.28,83.89 0.45,23.06 -1.94,83.37 -163.65,157.7 -189.82,72.62 -329.8,156.15 -119.79,71.47 -129.38,167.72 -288.92,149.57l17.7 49.27c43.04,56.25 86.16,42.19 153.06,84.47 50.34,31.81 108.18,61.41 146.74,114.03 32.56,23.69 14.3,7.54 39.15,31.35l186.75 -136.84c15.8,-12.26 12.92,0.76 29.51,-27.07 23.56,-39.56 4.04,-41.13 28.52,-82.62 27.82,-47.12 34.24,-30.94 64.77,-67.66 89.81,-107.98 -9.47,-39.02 138.43,-130.56 53.91,-33.37 47.25,-41.49 61.94,-63.29l-132.85 50.74c58.95,-58.11 120.74,-97.13 175.1,-159.83 255.28,-294.42 407.64,-327.99 733.01,-704.75 103.27,-119.59 31.35,-83.72 200.18,-167.94 66.24,-33.04 137.04,-123.54 183.86,-175.27 83.42,-92.17 131.2,-133.68 113.32,-212.75 -173.45,4.03 -82.83,157.13 -217.92,123.49l119.26 -285.69c-0.33,-16.11 -16.83,-74.11 -36,-95.58 -54.65,26.82 -57.51,59.12 -103.67,105.33 8.33,-146.83 32.08,-102.94 -24.15,-134.61l-228.38 486.03c-84.73,178.07 -286.69,235.68 -480.17,364.65 -382.54,255 -130.17,247.82 -412.95,399.82 -259.73,139.6 -222.42,295.51 -498.53,334.14 101.82,-20.25 246.04,-153.85 283.98,-229.13 -98.36,-71.73 -189.78,-103.02 -356.37,-4.88 -153.7,90.56 -225.32,307.7 -203.28,367.17 0.01,0.03 42.93,83.56 -38.34,75.32 -76.19,-7.73 -24.3,-2.97 -35.48,-69.82 -17.7,-105.77 -9.18,-93.96 -5.86,-192.62 3.61,-106.91 -23.59,-108.99 -61.34,-204.97 203.03,-224.43 33.17,-472.44 214.39,-648.35 46.15,-44.8 43.76,-42.32 97.05,-77.18 41.39,-27.08 68.35,-38.1 85.99,-86.72 -96.94,-49.38 -92.49,14.1 -200.09,45.51 -22.75,-106.81 3.37,-286.58 -39.06,-327.08 -48.28,44.2 -52.9,141.78 -48.98,170.88l-19.01 -120.18c-1.03,-3.73 -2.71,-9 -3.98,-12.39l-12.32 -21.4c-1.18,-2.13 -4.47,-7.05 -7.55,-9.8 -45.02,37.79 -32.63,15.76 -27.86,93.54 -3.87,-3.77 -9.69,-15.94 -10.03,-12.72 -5.97,55.25 4.26,-39.4 -65.56,-49.3 -3.84,24.08 -3.1,33.96 -5.69,68.48 -5.43,72.51 19.18,23.13 -14.94,80.46 13.03,44.37 11.96,-27.59 -55.68,-30.91 81.83,537.09 118.24,199.66 -38.77,583.52 -36.29,88.74 -20.03,90.45 -29.73,185.18 -8.82,86.15 -34.92,95.66 -52.47,173.68 -17.27,76.75 -6.44,108.94 -32.56,184.35 -23.09,66.68 -45.65,103.16 -48.46,176.03 -3.32,86.09 10.49,108.67 -16.64,186.55zm-817.66 2540.89l-7.61 -27.9c-30.77,-75.74 -126,-99.38 -179.25,-184.91 -121.48,140.18 -74.77,-15.67 -412.21,250.01 -73.11,57.57 -282.45,218.34 -234.79,332.53l19.91 28.41c-49.96,71.24 -98.53,142.67 -159.54,217.82 -135.14,166.46 -44.2,10.97 -157.12,224.95 -38.22,-79.97 -20.24,-37.12 -2.08,-109.78 -50.35,26.69 -182.21,87.35 -190.52,140.46l0.18 33.46c-74.58,-43.02 -156.35,-27.19 -124.53,92.97 28.94,109.24 71.77,110.44 82.71,244.5 22.38,274.36 -41.15,551.48 295.78,504.15l65.34 -3.96c152.94,-46.9 -119.58,13.69 -22.02,-506.96 27.42,-146.37 -30.81,-183.93 121.07,-382.34 79.92,-104.41 179.96,-201.08 262.11,-306.78 272.44,-350.57 315,-324.39 642.57,-546.63zm-263.28 -282.22c-18.28,-34.36 -39.37,-69.91 -60.24,-101.13 -16.24,-24.29 -15.25,-24.91 -33.27,-42.95 -32.19,-32.26 8.19,-3.44 -30.29,-21.22 -68.1,115.2 -59.93,174.42 -181.68,285.32 -142.99,130.23 -418.87,241.07 -535.84,492.26 -56.82,122.03 13.16,113.23 -161.97,303.76 -107.15,116.59 -169.85,128.56 -303.48,226.95 -146.92,108.19 -73.98,178.79 -5.97,331.89 67.5,151.96 2.47,259.17 45.63,415 43.57,157.3 141.95,251.52 287.86,189.12 -23.33,-44.11 -123.65,-99.04 -144.24,-320.82 -13.33,-143.58 33.55,-187.07 -46.11,-364.34 -164.81,-366.71 -0.35,-205.68 299.66,-493.2 255.28,-244.64 49.34,-234.83 322.64,-506.67 158.15,-157.3 409.01,-221.84 547.3,-393.97zm861.08 -1820.44l-84.09 342.24c-186.46,394.45 -139.95,247.44 -289.98,436.41 -19.9,25.06 -11.18,12.19 -23.91,35.66 130.47,-39.91 208.38,-12.59 312.81,-21.31 95.76,-76.68 81.68,-156.26 275.53,-212.71 123.51,-35.95 277.5,-15.16 354.22,39.39 50.24,-47.56 98.28,-66.26 143.33,-113.18 50.79,-52.91 64.19,-91.24 105.6,-136.28l-6.19 -19.28c-65.81,-23.24 -48.54,-23.55 -93.75,-48.41 -27.31,-15.02 -67.14,-33.74 -103.1,-48.41 -58.73,-23.96 -128.91,-33.22 -204.41,-53.25 -48.74,44.55 -79.16,87.72 -140.1,141.92 -212.45,188.94 -126.92,283.81 -403.37,391.06 52.16,-83.41 106.26,-126.85 122.68,-229.58 -68.72,47.73 -79.97,89.68 -144.98,142.4 36.68,-84.8 97.67,-166.88 136.22,-269.08 55.71,-147.66 111.27,-224 124.9,-265.15 45.77,-138.17 -6.8,-189.01 100.97,-290.85 120.58,-113.96 75.68,-126.67 154.39,-253.94 -9.75,-4.35 -0.28,-9.5 -52.3,-12.55 -33.14,-1.93 -36.81,2.13 -64.61,6.67 -14.39,110.92 -138.6,288.44 -196.77,403.2 -14.65,28.89 -8.82,24.12 -23.09,35.03zm-784.66 1889.85c53.25,85.53 148.48,109.17 179.25,184.91 150.1,-105.54 248.31,-93.71 412.17,-241.02l1.33 -23.71c-83.92,-23.39 -120.6,-62.02 -194.45,-120.75 -58.72,-46.69 -115.52,-108.75 -165.51,-173.32 -113.31,62.25 -202.4,257.86 -232.79,373.89zm699.49 -1096.85c131.87,71.76 256.74,84.19 320.12,293.26 34.64,-24.55 17.31,-6.4 43.94,-35.66 24.29,-45.03 38.73,-81.14 72.94,-118.1 51.63,-97.19 80.5,-217.82 188.98,-297.04l3.77 -15.78c-76.72,-54.55 -230.71,-75.34 -354.22,-39.39 -193.85,56.45 -179.77,136.03 -275.53,212.71zm610.67 -834.29c63.36,37.24 118.56,40.89 195.17,76.79 65.82,30.85 138.19,53.48 174.37,109.89l23.52 -9.54c9.61,-63.24 25.85,-116.07 42.43,-174.72 7.93,-28.04 10.85,-42.79 22.8,-74.94 24.88,-66.89 -8.05,-35.45 45.53,-68.73 -38.56,-52.62 -96.4,-82.22 -146.74,-114.03 -66.9,-42.28 -110.02,-28.22 -153.06,-84.47l-21.15 78.32c-81.61,19.28 -139.39,-22.59 -158.38,73.35l-24.49 188.08zm-139.44 242.16c75.5,20.03 145.68,29.29 204.41,53.25 35.96,14.67 75.79,33.39 103.1,48.41 45.21,24.86 27.94,25.17 93.75,48.41 26.22,-34.32 26.89,-53.5 48.97,-96.7 23.72,-46.42 52.18,-64.79 58.75,-108.85 -36.18,-56.41 -108.55,-79.04 -174.37,-109.89 -76.61,-35.9 -131.81,-39.55 -195.17,-76.79 -77.44,66.79 -83.13,103.77 -187.45,174.3l48.01 67.86zm-1105.89 796.62l-14.53 83.06c8.56,131.73 67.75,230.05 119.42,343.77 46.45,-61.27 91.09,-85.32 91.64,-164.27 0.87,-124.11 -20.2,-117.1 80.07,-190.31l-11.9 -223.51c-127.19,54.56 -180.1,103.88 -264.7,151.26zm-244.16 626.11c-41.63,19.99 -6.52,-4.72 -20.89,31.54 38.48,17.78 -1.9,-11.04 30.29,21.22 18.02,18.04 17.03,18.66 33.27,42.95 20.87,31.22 41.96,66.77 60.24,101.13 109.9,-118.02 115.12,-248.61 246.14,-396.12 -51.67,-113.72 -110.86,-212.04 -119.42,-343.77 -36.98,40.67 -24.43,14.16 -38.85,72.85 -9.79,39.87 -9.74,37.59 -9.09,82.74l81.35 6.09c-3.08,5.96 -8.33,11.37 -12.37,15.89 -3.95,4.42 -7.62,10.02 -12.5,15.17l-238.17 350.31zm520.76 -553.86c111.11,-64.16 238.67,-75.06 338.19,-67.3 -35.79,-102.36 -0.69,-82 1.13,-167.01 -105.61,-38.48 -229.54,-24.92 -351.22,10.8l11.9 223.51zm338.19 -67.3c121.63,32.62 188.96,73.59 247.31,226.66l84.82 -104.25c-51.27,-164.05 -205.15,-272.71 -331,-289.42 -1.82,85.01 -36.92,64.65 -1.13,167.01zm-232.13 343.75c158.17,126.48 115.86,177.99 325.56,228.16 52.03,-61.82 58.08,-136.31 109.18,-195.67 88.24,-213.53 -93.54,-356.93 -189.54,-356.45 -150.08,0.76 -384.07,183.73 -196.9,281 -86.84,37.06 -33.88,15.62 -48.3,42.96zm-214.7 169.77c49.99,64.57 106.79,126.63 165.51,173.32 73.85,58.73 110.53,97.36 194.45,120.75 109.3,-60.96 106.91,-146.83 185.67,-216.99l-5.37 -18.69c-209.7,-50.17 -167.39,-101.68 -325.56,-228.16 -69.25,14.46 -73.36,31.95 -124.73,75 -22.93,19.22 -33.71,24 -54.09,44.45 -30.58,30.67 -21.44,18.66 -35.88,50.32z"/>
   <path class="fil4" d="M2018.28 1039.36c66.65,19.11 71.61,92.86 309.76,93.62l1038.04 -58c254.27,-7.72 502.37,-32.32 755.59,-51.75l0 -153.55 -56.27 3.14c-345.79,19.52 -264.77,73.16 -401.1,88.28l-65.21 -1.51c-824.9,-52.98 -825.49,-22.25 -1715.26,17.89 -585.64,26.42 -1126.72,-56.42 -1471.23,463.41 -235.46,355.27 -116.98,1296.5 -83.11,1778.61 83.92,1194.53 105.41,2336.24 169.02,3636.48 92.5,1890.37 -238.22,2814.65 1698.03,2622.02l217.43 -30.79c8.63,-0.08 21.35,0.93 30.56,1.19 591.5,16.99 2290.02,-85.7 2935.04,-117.53 325.19,-16.03 891.69,-17.11 1033.73,-376.44l58.68 -106.94c41.06,-42.61 156.39,27.32 124.98,-293.78 -7.94,-81.18 -14.49,9.59 -4.01,-68.26 11.77,-87.39 46.36,-56.22 48.59,-283.38 3.14,-319.34 -72.43,-243.3 -67.61,-401.11 1.23,-40.31 31.71,-83.48 37.72,-225.52l-140.45 -2797.35c-13.39,-112.56 5.05,-217.07 -1.19,-385.16l-136.5 -2754.37 -187.64 41c22.65,140.85 36.62,309.7 45.82,512.2l212.01 3681.74c39.03,134.79 1.57,78.12 -17.34,225.64 -20.62,160.96 10.28,495.77 21.19,666.56 43.74,684.74 1.53,352.43 140.67,582.65l-69.38 76.49c-66.45,120.08 -34.39,232.96 -22.87,416.02 24.29,385.36 90.61,705.81 -138.53,1026.01 -150.88,210.83 -428.72,302.41 -694.41,300.12 -1270.69,-10.95 -2740.95,161.1 -4008.96,173.1 -354.57,3.35 -582.99,-65.66 -773.44,-409.85 -174.64,-315.57 -195.08,-2664.08 -221.85,-3150.84 -52.8,-959.98 -106.22,-292.17 -63.26,-909.57 49.01,-704.32 -203.16,-2715.36 -72.57,-3240.11 112.13,-450.59 741.92,-459.06 1106.51,-476.11 482.92,-22.59 293.22,-12.84 428.82,-114.25zm4116.69 114.06c-51.38,-61.47 -110.51,-116.06 -175.47,-166.59 -90.99,-70.78 -222.9,-140.59 -359.94,-142.83 -280.03,-4.56 0.68,14.07 -171.82,18.81l-151.83 -13.09c-4.47,1.36 -232.24,3.1 -436.77,4.28l0 139.17c548.24,-10.16 873.46,1.28 1068.14,160.25l227.69 0z"/>
  </g>
 </g>
</svg>
