<?xml version="1.0" encoding="UTF-8"?>
<!DOCTYPE svg PUBLIC "-//W3C//DTD SVG 1.1//EN" "http://www.w3.org/Graphics/SVG/1.1/DTD/svg11.dtd">
<!-- Creator: CorelDRAW 2017 -->
<svg xmlns="http://www.w3.org/2000/svg" xml:space="preserve" width="14.8166mm" height="14.8166mm" version="1.1" style="shape-rendering:geometricPrecision; text-rendering:geometricPrecision; image-rendering:optimizeQuality; fill-rule:evenodd; clip-rule:evenodd"
viewBox="0 0 1481.66 1481.66"
 xmlns:xlink="http://www.w3.org/1999/xlink">
 <defs>
  <style type="text/css">
   <![CDATA[
    .fil0 {fill:none}
    .fil1 {fill:#201E1E}
   ]]>
  </style>
 </defs>
 <g id="Capa_x0020_1">
  <metadata id="CorelCorpID_0Corel-Layer"/>
  <rect class="fil0" width="1481.66" height="1481.66"/>
  <g id="_2455456216576">
   <path class="fil1" d="M1117.99 1018.31l190.79 -41.17c-33.82,236.25 -213.39,422.81 -440.25,469.35 -228.37,46.85 -462.64,-59.22 -586.09,-265.36l213.56 -38.62c12.14,11.11 24.06,21.37 35.83,30.91 -6.06,27.04 -18.49,38.55 17.16,91.84 17.4,25.99 48.12,49.94 68.15,28.53 9.63,-10.3 4.58,-15.27 4.27,-29.07 14.89,0 22.82,-7.2 26.49,-17.27 18.05,8.21 35.66,14.62 52.84,19.36 -0.47,11.27 2.84,20.74 13.59,30.78 9.1,8.5 23.93,14.86 41.34,15.9l10.06 0c2.13,-0.12 4.3,-0.33 6.48,-0.62 23.01,-3.07 43.69,-5.73 44.3,-32.75 16.44,1.37 75.24,5.33 82.14,-20.54 13.04,6.9 23.97,15.93 41.7,17.41 34.21,2.85 94.44,-31.33 72.28,-95.45 -1.95,-5.64 -3.6,-11.4 -5.06,-17.19 41.04,-42.25 77.7,-92.94 110.42,-146.04zm-228.48 302.87l19.79 -4.06 11.39 55.55 17.65 -3.62 2.64 12.87 -37.43 7.68 -14.04 -68.42zm-87.98 41.47l8.76 42.67 8.1 -1.66 -8.75 -42.68 -8.11 1.67zm-9.44 -11.49l21.23 -4.35 15.28 7.3 9.95 48.52 -10.48 12.46 -21.94 4.5 -15.02 -7.23 -9.96 -48.51 10.94 -12.69zm-101.62 0.07l-7.15 1.47 3.98 19.43 7.15 -1.47 -3.98 -19.43zm-0.53 33.77l4.77 23.25 -19.55 4.01 -14.04 -68.42 32.31 -6.63 15.4 7.27 5.22 25.39 -11.35 12.52 -12.76 2.61zm463.27 -304.59l36.36 -7.46 2.64 12.88 -16.57 3.4 2.64 12.87 13.71 -2.81 2.64 12.87 -13.71 2.82 3.47 16.92 17.05 -3.49 2.64 12.87 -36.83 7.56 -14.04 -68.43zm-70.95 111.47l41.84 -8.59 2.65 12.88 -11.09 2.27 11.4 55.55 -19.55 4.01 -11.4 -55.55 -11.21 2.3 -2.64 -12.87zm-89.88 75.44l19.79 -4.06 14.03 68.43 -19.78 4.06 -14.04 -68.43zm-443.86 45.47l19.79 -4.07 14.04 68.43 -19.79 4.06 -14.04 -68.42zm-88.36 -63.97l-20.75 4.26 -2.64 -12.88 31.59 -6.47 14.61 9.42 -19.18 49.4 23 -4.72 2.64 12.88 -35.16 7.21 -13.41 -9.67 19.3 -49.43z"/>
   <path class="fil1" d="M1129.42 885.22l190.3 -38.72c-2.66,-30.79 -7.48,-62.47 -14.72,-94.36l-197.9 40.61c9.08,28.74 16.62,59.53 22.32,92.47zm59.82 -243.1l-33.21 17.92 6.47 9.45 28.17 -25.27 -1.43 -2.1zm-39.83 38.65l-8.62 -12.6 -15.16 7.69 -14.56 -21.25 84.46 -38.19 21.56 31.48 -65.77 65.48 -14.64 -21.39 12.73 -11.22zm-19.13 -144.85l38.29 40.6 -12.5 11.78 -10.14 -10.76 -53.9 50.83 -17.89 -18.97 53.9 -50.83 -10.25 -10.87 12.49 -11.78zm-51.78 -51.26l-8.56 -6.87 -11.67 14.51 13.97 12.83 5.86 21.64 -17.43 21.69 -21.65 -0.47 -22.68 -18.23 -5.11 -21.04 10.06 -12.52 20.57 16.53 -7.57 9.42 8.55 6.87 11.95 -14.87 -14.07 -12.94 -6.09 -21.62 17.14 -21.31 21.99 0.54 21.44 17.24 5.52 21.56 -10.06 12.52 -19.83 -15.94 7.67 -9.54zm-82.56 -68.13l23.63 11.76 -40.64 81.71 -23.63 -11.75 40.64 -81.72zm-63.89 -21.45l-10.4 -2.95 -15.54 54.75 10.4 2.96 15.54 -54.76zm-30.79 -26.59l43.59 12.38 13.63 17.75 -17.67 62.25 -19.97 8.05 -44.51 -12.64 24.93 -87.79zm-62.62 67.41l7.64 -73.7 26.26 2.73 -8.06 77.64 -18.28 11.37 -29.42 -3.05 -15.87 -14.91 8.05 -77.65 26.25 2.72 -7.64 73.7 11.07 1.15zm-100.31 -32.59l-2.09 44.47 -24.77 -1.17 4.27 -91.16 22.13 1.01 15.2 44.75 2.06 -43.91 24.46 1.15 -4.28 91.16 -21.6 -1.01 -15.38 -45.29zm-364.03 125.09l31.41 20.91 5.3 -10.15 -35.53 -13.02 -1.18 2.26zm52.82 17.02l-7.07 13.53 13.9 9.78 -11.94 22.83 -73.36 -56.65 17.68 -33.82 88.69 27.34 -12.01 22.97 -15.89 -5.98zm-114.92 63.22l5.47 -25.49 47.02 33.18 37.47 8.05 -5.54 25.8 -37.47 -8.04 -56.53 11.12 5.54 -25.81 34.21 -2.57 -30.17 -16.24zm-49.48 286.58l0.16 -26.39 74.08 0.44 0.14 -23.54 17.17 0.1 -0.29 49.93 -91.26 -0.54zm20.11 77.04l1.07 9.48 25.75 -2.91 -1.07 -9.47 -25.75 2.9zm43.88 4.65l30.81 -3.47 2.92 25.91 -90.68 10.22 -4.83 -42.81 11.27 -19.19 33.66 -3.8 14.95 16.24 1.9 16.9zm-40.14 -229.96l36.2 10.68 2.06 -11.26 -37.8 -1.92 -0.46 2.5zm55.49 0.64l-2.75 15.01 16.18 5.23 -4.65 25.33 -86.84 -32.4 6.88 -37.54 92.81 -0.12 -4.68 25.49 -16.95 -1zm954.79 -27.69c-58.53,-210.38 -225.49,-419.26 -572.91,-427.93 8.97,21.36 12.82,41.7 7.08,50.37 -4.32,6.52 -17.01,12.13 -25.72,9.49 -8.32,-2.51 -27.53,-19.77 -45.38,-29.21 3.54,15.23 38.64,82.26 -5.24,84.91 -27.24,1.64 -44.75,-33.57 -92.31,-33.57 0,25.56 8.92,96.41 14.36,121.69 1.35,6.25 2.94,13.31 4.77,20.77 172.75,-90.62 414.69,-21.22 514.67,244.65l200.68 -41.17zm-943.97 -299.91c-131.72,132.71 -193.96,351.28 -150.95,560.88 5.99,29.22 14,57.99 23.97,86.05l184.73 -33.21c-49.63,-205.54 -3.79,-359.31 84.74,-452.25 -10.68,-48.32 -17.71,-99.31 -17.71,-153.6 -6.24,8.98 -11.57,29.43 -16.08,40.41 -5.27,12.83 -12.15,27.21 -30.03,26.53 -27.66,-1.06 -33.47,-56.43 -33.47,-79.77 -19.14,22.02 -34.72,20.03 -45.2,4.96zm822.52 372.43l8.3 -1.7 12.97 63.23 -8.65 1.78 -9.72 -47.36 1.02 2.69 -8.23 38.99 -6.18 1.26 -22.73 -31.72 -0.32 -3.74 9.72 47.35 -8.66 1.78 -12.97 -63.24 8.31 -1.7 27.14 37.94 10 -45.56zm23.96 -4.92l8.88 -1.82 12.97 63.24 -8.88 1.82 -12.97 -63.24zm15.55 53.93l36.32 -7.46 1.73 8.44 -36.32 7.45 -1.73 -8.43zm-5.58 -27.19l31.53 -6.46 1.73 8.43 -31.53 6.47 -1.73 -8.44zm-5.66 -27.62l36.32 -7.45 1.73 8.45 -36.32 7.45 -1.73 -8.45zm71.63 22.24l-1.78 -1.91 -27.36 -29.05 9.96 -2.04 20.55 22.62 1.92 2.05 28.82 30.7 -9.96 2.05 -22.15 -24.42zm-2.1 -8.27l10.31 -30.35 9.96 -2.04 -13.89 38.52 -11.02 32.48 -9.94 2.04 14.58 -40.65z"/>
   <path class="fil1" d="M1350.39 841.13c25.53,-39.88 11.07,-76.82 -6.62,-140.78 -83.92,-303.34 -390.87,-498.71 -735.79,-429.3 27.86,17.92 -7.28,8.17 29.89,11.95 42.93,4.36 87.61,-25.89 234.16,1.25 267.29,49.5 439.56,270.77 478.36,556.88z"/>
   <path class="fil1" d="M150.68 1054.86c7.62,-12.88 17.48,14.19 1.09,-60.11 -17.1,-77.5 -23.08,-114.46 -15.89,-197.53 6.89,-79.68 31.36,-149.85 56.09,-212.88 11.33,-28.87 9.62,-22.33 26.89,-44.01 23.75,-29.8 11.31,-14.22 28.26,-44.8 15.79,-28.48 42.38,-49.77 70.7,-77.06 34.24,-33 48.57,-43.68 86.69,-68.38l75.73 -42.25c30.76,-21.57 10.44,-2.39 25.92,-31.67 -306.39,120.81 -461.34,445.38 -355.48,778.69z"/>
   <path class="fil1" d="M209.93 218.17c36.52,-15.85 116.63,-84.31 168.28,-114.91l33 -12.65c101.64,-47.57 137.26,-39.84 229.46,-66.34 -72.04,-1.54 -194.56,28.54 -245.02,54.86 -55.87,29.15 -142.26,97.16 -185.72,139.04z"/>
   <path class="fil1" d="M746.86 228c15.22,-15.02 31.62,1.59 42.94,13 -4.7,-37.16 3.05,-34.34 30.59,-49l-2.37 -8.02c-12.91,-3.86 -34.76,4.81 -36.71,31.76 -0.06,0.84 -0.14,3.43 -0.23,4.24 -0.07,0.69 -0.19,1.47 -0.28,2.09l-0.85 4.04c-14.22,-17.01 -32.12,-22.63 -55.2,-1.23l6.01 10.46c7.21,-3.89 7.69,-6.1 16.1,-7.34z"/>
   <path class="fil1" d="M895.98 108.14l1.5 14.91c-10.32,4.5 -12.87,-12.6 -32.84,-13.9 -15.19,-0.99 -32.55,8.48 -38.82,18.44l6.57 12.06c21.55,-9.68 41.74,-35.87 75.14,8.17 -7.54,-61.37 22.09,-48.96 38.79,-65.21l-6.52 -10.1 -11.06 1.72c-8.25,3.72 -15.25,6.48 -21.16,12.75 -6.85,7.28 -10.21,19.64 -11.6,21.16z"/>
   <path class="fil1" d="M789.92 114.69c-0.61,-16.22 3.88,-21.82 19.89,-27.52 5.37,-3.08 4.59,-0.3 1.8,-8.29 -20.91,-3.17 -27.85,13.11 -27.76,31.44 -7.33,-4.92 -19,-18.32 -36.96,-5.12 -5.63,4.14 -5.41,3.65 -3.49,9.36 4.28,1.39 -0.43,2.12 5.97,0.64 7.19,-1.67 9.64,-7.57 21.34,-6.71 8.87,0.66 13.53,7 19.07,13.44l0.14 -7.24z"/>
   <path class="fil1" d="M516.16 179.62c-2.09,-2.44 -0.2,0.27 -3.64,-4.7l-11.5 -19.39c-6.45,-10.33 -10.34,-13.71 -19.13,-18.65l6.47 48.92c-44.08,-15.47 -73.81,-37.88 -119.35,-2.61 -23.7,18.35 -53.55,57.96 -56.36,102.07 26.99,-12.74 66.11,-60.56 125.61,-41.33 11.27,3.64 -3.82,-1.97 3.75,1.4 6.9,3.08 2.6,1.19 4.75,2.84 -20.26,21.11 -55,17.21 -76.14,52.11 -16.21,26.77 -13.4,80.72 1.53,106.28 15.73,-11.38 41.54,-74.14 75.97,-77.6 -8.68,17.07 -23.38,42.59 -26.42,63.19 -3.14,21.28 2.98,61.49 11.5,78.29 14.96,-19.61 25.13,-91.54 71.01,-110.08 2.7,82.37 -11.04,111.12 12.21,208.4l48.65 172.28c-20.02,15.6 -15.75,19.6 -29.16,55.6 -6.54,17.57 -6.96,62.01 -6.38,80.44 0.83,26.04 -11.81,43.67 -12.25,71.78 -0.43,27.62 -7.33,56.84 -0.1,81.3 12.9,43.66 45.52,75.49 40.14,131.95 -2.78,29.18 -16.95,41.2 -1.26,70.48 8.83,16.47 23.84,41.55 43.12,45.23 -4.33,-25.13 -21.7,-51.69 1.69,-69.28 12.6,12.26 7.1,25.9 23.84,33.28 6.11,-31.21 -9.65,-52.16 -15.64,-80.34 -4.02,-18.89 -6.2,-22.28 -11.17,-37.51 -6.3,-19.28 0.03,-52.18 -11.03,-89.11 -3.88,-12.94 -14.07,-27.27 -14.99,-37.17 -1.44,-15.58 7.89,-26.66 12.87,-39.13 4.41,-11.03 7.32,-28.37 12.7,-37.07 30.01,54.08 13.83,64.74 20.76,123.59 2.66,22.6 8.76,35.06 17.27,54.06 10.01,22.33 10.26,29.53 34.61,37.35 60.3,19.37 59.84,6.65 62.52,82 0.7,19.52 -13.67,48.57 -4.93,60.57 9.43,12.97 45.35,12.23 63.16,5.77 19.25,-16.03 -14.61,-73.45 -10.49,-113.11 17.44,-1.02 25.31,4.69 27.16,18.55l-10.63 3.87c5.73,10.52 12.2,15.68 16.1,27.89 4.41,13.77 4.1,24.52 10.21,35.26 9.86,1.72 20.95,1.72 31.76,-0.15 12.8,-2.22 22.49,-2.61 25.29,-13.71 -13.77,-10.47 -33.75,-8.88 -25.78,-38.82 35.64,-16.61 62.97,83.41 123.3,36.53 23.38,-18.17 15.28,-40.87 6.48,-69.74 -6.43,-21.1 -7.04,-62.96 -22.92,-72.56 -0.38,16.67 2.84,22.69 -6.43,24.4 -9.16,1.68 -6.9,-0.6 -14.97,-38.57 -5.91,-27.81 -7.99,-44.19 -21.15,-65.98 -19.14,-31.69 12.51,-35.05 -0.86,-65.86 -5.54,-12.77 -15.2,-17.61 -19.01,-24.65 -5.14,-9.48 -0.2,-25.44 -1.51,-37.63 -2.29,-21.17 -19.19,-34.67 -26.35,-57.74 -21.71,-69.97 -10.95,-105.62 -67.35,-107.2 -34.19,-0.96 -45.65,-6.68 -50.37,-40.09l23.22 -4.47c1,-10.98 1.42,-21.27 2.33,-31.58 1.95,-21.96 3.36,-10.84 11.33,-23.95 -2.14,-9.49 -6.58,-11.47 -7.41,-20.74 -1,-11.27 4.11,-13.09 0.35,-25.47 -2.45,-8.07 -7.25,-13.25 -7.14,-23.1 0.15,-11.67 4.63,-9.52 3.63,-25.23 -8.52,-17.89 -72.49,-18.32 -89.03,-16.43 -9.69,1.1 -25.07,15.87 -33.17,21.21 -20.32,13.4 -14.01,8.75 -19.2,34.71 -9.46,47.3 8.83,44.31 23.3,76.6 14.59,32.56 14.54,59.62 -16.01,72.4 -15.51,-21.89 -66.04,-131.29 -75.94,-160.25 -21.67,-63.43 -29.79,-137.02 -30.41,-209.56 79.1,-1.69 83.41,26.41 113.82,34.68 -10.1,-78.06 -40.43,-60.02 -65.01,-77.13 5.67,-6.07 20.76,-10.01 28.96,-12.2 22.08,-5.88 46.97,0.9 65.52,12.76 11.1,7.09 15.62,12.71 27.01,18.41 -4.79,-27.43 -19.46,-54.42 -35.23,-69.24 -22.42,-21.07 -49.36,-15.95 -83.2,-14.32 5.18,-20.59 31.05,-32.45 54.3,-39.89 39.9,-12.76 42.18,-7.39 80.13,-0.07 -10.68,-16.48 -46.28,-49.1 -71.96,-55.74 -42.68,-11.04 -66.7,22.43 -92.95,31.55 7.1,-37.62 29.37,-49.1 38.42,-63.65 -55.98,8.81 -65.96,46.48 -82.82,64.8z"/>
  </g>
 </g>
</svg>
