<?xml version="1.0" encoding="UTF-8"?>
<!DOCTYPE svg PUBLIC "-//W3C//DTD SVG 1.1//EN" "http://www.w3.org/Graphics/SVG/1.1/DTD/svg11.dtd">
<!-- Creator: CorelDRAW 2017 -->
<svg xmlns="http://www.w3.org/2000/svg" xml:space="preserve" width="14.8166mm" height="14.8166mm" version="1.1" style="shape-rendering:geometricPrecision; text-rendering:geometricPrecision; image-rendering:optimizeQuality; fill-rule:evenodd; clip-rule:evenodd"
viewBox="0 0 1481.66 1481.66"
 xmlns:xlink="http://www.w3.org/1999/xlink">
 <defs>
  <style type="text/css">
   <![CDATA[
    .fil0 {fill:none}
    .fil1 {fill:#201E1E}
   ]]>
  </style>
 </defs>
 <g id="Capa_x0020_1">
  <metadata id="CorelCorpID_0Corel-Layer"/>
  <rect class="fil0" width="1481.66" height="1481.66"/>
  <path class="fil1" d="M1419.1 1187.41l37.14 0.65 -0.97 -43.74c-21.93,1.43 -18.37,4.98 -36.07,4.84l-0.1 38.25zm-576.99 93.73l0.06 -0.86c84.22,4.55 169.76,0.07 254.01,1.16 46.08,0.6 205.55,9.66 234.49,-12.02 10.13,16.6 -5.38,9.21 23.74,12.23l101.95 0.19 0.13 -91.93c-52.11,17.97 -38.07,11.02 -37.36,55.62l-147.08 -2.39c-8.72,9.41 -5.6,4.37 -8.52,20.48 -16.05,-11.13 -10.71,-11.89 -30.79,-17.3 1.89,11.52 6.11,19.64 6.18,20.32l-18.77 -17.3c-0.34,-2.37 -1,-3.01 -1.84,-4.34 -131.86,0.94 -355.12,-4.88 -479.19,0.14 -7.36,0.3 -11.75,1.07 -17.92,1.58 -14.26,1.19 -4.27,0.71 -10.54,0.66l-415.82 -2.04c-36.75,-0.53 -82.59,-8 -81.88,35.28 24.66,-7.25 -2.76,-13.06 24.09,-15.84 14.96,-1.54 9.2,3.55 9.61,4.03 14.04,16.66 -5.01,-9.97 2.53,5.54l12.11 6.74c57.62,0.16 53.81,-5.05 63.48,-5.31 7.31,-0.2 13.44,6.33 63.01,5.57 74.28,-1.14 103.07,12.1 127.04,-18.15 12.23,7.61 4.68,4.02 9.09,9.77 0.72,0.94 -0.19,16.19 3.78,5.84 0.29,-0.75 1.03,2.15 1.78,2.85l312.63 -0.52zm-94.38 -52.49l0.05 -0.85c91.13,4.54 183.68,0.06 274.84,1.15 49.85,0.6 222.4,9.67 253.71,-12.01 10.97,16.59 -5.82,9.21 25.69,12.22l110.31 0.2 0.14 -91.94c-56.38,17.97 -41.2,11.02 -40.43,55.62l-159.14 -2.39c-9.43,9.41 -6.05,4.37 -9.22,20.49 -17.36,-11.14 -11.58,-11.89 -33.3,-17.3 2.04,11.51 6.6,19.64 6.68,20.31l-20.31 -17.29c-0.36,-2.38 -1.08,-3.02 -1.99,-4.35 -142.66,0.94 -384.23,-4.87 -518.47,0.15 -7.96,0.29 -12.72,1.06 -19.39,1.58 -15.43,1.18 -4.62,0.7 -11.4,0.65l-449.91 -2.03c-39.76,-0.53 -89.36,-8.01 -88.6,35.27 26.69,-7.25 -2.98,-13.06 26.07,-15.83 16.19,-1.55 9.95,3.54 10.4,4.03 15.19,16.66 -5.43,-9.98 2.73,5.53l13.11 6.74c62.34,0.16 58.21,-5.05 68.69,-5.31 7.9,-0.2 14.54,6.34 68.16,5.57 80.38,-1.14 111.53,12.11 137.46,-18.14 13.23,7.6 5.07,4.01 9.84,9.76 0.78,0.94 -0.21,16.2 4.09,5.84 0.31,-0.75 1.11,2.15 1.92,2.86l338.27 -0.53zm387.7 -901.03l11.51 10.27c16.75,15.86 27.1,16.97 53.94,24.69 25.69,7.39 53.31,16.37 80.94,21.98 12.24,-17.35 7.51,-28.77 38.86,-20.52 -7.09,-12.78 -24.87,-13.1 -40.35,-17.13 -15.63,-4.06 -29.47,-8.46 -46.05,-13.17 -27.07,-7.67 -67.32,-21.64 -97.35,-24.87 -5.29,10.99 -2.58,0.61 -1.5,18.75zm73.08 76.42l11.5 10.27c16.76,15.86 27.11,16.97 53.94,24.69 25.69,7.39 53.32,16.36 80.94,21.98 12.25,-17.36 7.51,-28.77 38.86,-20.52 -7.09,-12.78 -24.86,-13.11 -40.35,-17.13 -15.63,-4.07 -29.47,-8.47 -46.04,-13.17 -27.08,-7.68 -67.32,-21.65 -97.36,-24.88 -5.28,11 -2.57,0.62 -1.49,18.76zm-1097.13 409.7l6.93 -10.1c10.95,-14.88 9.32,-22.42 9.8,-42.88 0.45,-19.59 1.92,-40.85 0.15,-61.47 -19.95,-5.35 -29.74,0.17 -29.93,-23.59 -10.49,7.46 -6.18,20.1 -6.04,31.82 0.15,11.84 -0.5,22.47 -0.72,35.1 -0.37,20.63 -3.38,51.77 1.31,73.64 12,1.64 1.27,1.7 18.5,-2.52zm1345.3 326.19c-1.48,-53.71 -13.9,-42.58 -0.52,-52.83l0.33 -74.02 -36.15 9.42 -1.67 116.44c24.52,-2.93 12.78,-4.62 38.01,0.99zm-47.82 -716.61c10.19,8.19 6.16,18.12 19.19,24.32 11.98,5.69 6.4,-3.03 21.14,-10.44 -18.53,47.79 -36.92,-6.11 -27.16,76.57l-1.11 40.84c-0.9,33.69 -1.63,66.69 -2.31,100.3 8.92,-3.83 6.31,-8.43 15.72,-8.25 14.93,0.29 6.97,-2.32 7.53,15.04 -27.36,15.89 3.33,-11.58 -22.68,5.47l-0.3 58.59 25.27 10.1 -25.74 1.45c2.03,52.14 0.71,107.47 0.74,159.36 0.01,26.01 -0.46,52.3 -0.33,78.48 0.07,14.58 -2.84,23.9 5.84,33.34 14.21,15.45 2.24,2.93 31.06,-0.77 -5.97,-166.32 5.93,-337.52 -2.47,-504.49l0.32 -14.73c2.39,-25.14 5.78,-66.1 0.61,-91.39 -28.08,-13.44 -102.99,-31.77 -133.5,-33.07l3.06 16.84c-4.22,-1.15 -21.6,-12.72 -31.94,-3.59 6.19,21.44 -5.94,4.24 21.68,14.84l95.38 31.19zm-1342.04 160.56c-5.02,-20.91 -2.09,-14.26 -16.92,-23.91 15.68,-5.65 14.61,-2.3 13.97,-24.16 -0.22,-7.59 -1.94,-12.48 -2.43,-17.07l4.19 -90.84 285.11 -86.4c72.5,-22.14 74.89,-9.13 90.81,-36.41 23.8,15.2 126.46,-23.44 157.21,-32.6 24.45,-7.28 57.24,-12.55 79.74,-22.67 27.88,-12.54 2.02,-5.96 36.24,-11.01 18.85,-2.77 24.48,-6.56 45.02,-1.16l130.01 35.12c2.26,1.19 16.44,8.08 17.55,8.47l115.3 29.88c21.38,5.1 22.78,7.97 40.77,-3.76l18.13 21.67 7.91 -9.91c0.25,-0.33 3.72,-5.45 3.76,-5.5l16.26 19.77c7.94,9.73 15.86,8.63 30.16,10.42l-6.08 -13.51 -15.41 -22.46c-0.22,-0.59 -0.65,-2.13 -0.83,-2.67l-1.57 -5.29c-104.99,-25.27 -225.99,-61.04 -326.79,-91.9 -62.6,-19.16 -66.29,-10.17 -162.9,18.61 -53.08,15.8 -111.87,31.81 -168.34,47.69 -4.34,24.89 1.48,-22.36 0.37,10.21 -0.3,8.76 4.44,1.11 -1.44,12.13 -37.86,2.33 -4.69,-1.15 -27.24,-7.53 -19.21,-5.43 -59.11,10.04 -80.92,16.19l-322.25 98.2 0.24 59.66c10.36,-3.75 18.48,-5.73 28.48,-9.29 -1.75,9.32 -2.09,8.46 -14.45,17.82l-6.41 4.42c-0.73,0.51 -2.25,1.38 -3.29,2.19 1.75,6 -11.27,-7.67 6.31,2.93 0.73,0.44 2.3,1.44 3.07,1.92l-11.24 6.24c-0.26,38.91 0.02,79.92 -0.69,103.6 25.14,-13.9 -9.2,-8.21 28.66,-10.37 -8.22,11.55 -10.17,17.39 -1.29,34.42 0.68,-0.92 1.09,-3.84 1.25,-3.21l9.97 -29.93zm58.46 72.44c-5.03,-20.91 -2.09,-14.25 -16.92,-23.9 15.67,-5.65 14.6,-2.31 13.96,-24.17 -0.22,-7.59 -1.93,-12.47 -2.42,-17.07l4.19 -90.84 285.11 -86.4c72.5,-22.13 74.88,-9.12 90.8,-36.4 23.81,15.19 126.46,-23.45 157.22,-32.61 24.45,-7.28 57.24,-12.55 79.74,-22.66 27.87,-12.54 2.02,-5.97 36.24,-11.01 18.85,-2.78 24.48,-6.57 45.02,-1.17l130 35.13c2.27,1.19 16.45,8.08 17.56,8.47l115.29 29.88c21.39,5.09 22.79,7.97 40.78,-3.77l18.13 21.67 7.91 -9.91c0.25,-0.33 3.72,-5.45 3.76,-5.5l16.26 19.77c7.94,9.73 15.85,8.63 30.16,10.42l-6.08 -13.51 -15.41 -22.45c-0.22,-0.6 -0.65,-2.14 -0.83,-2.68l-1.57 -5.28c-104.99,-25.28 -225.99,-61.05 -326.79,-91.9 -62.6,-19.17 -66.3,-10.18 -162.9,18.6 -53.08,15.81 -111.87,31.81 -168.34,47.7 -4.35,24.88 1.48,-22.36 0.37,10.21 -0.3,8.75 4.43,1.11 -1.44,12.12 -37.86,2.33 -4.69,-1.15 -27.24,-7.52 -19.21,-5.44 -59.12,10.03 -80.92,16.19l-322.25 98.2 0.24 59.66c10.36,-3.76 18.48,-5.73 28.48,-9.29 -1.75,9.31 -2.09,8.46 -14.45,17.81l-6.41 4.42c-0.73,0.51 -2.25,1.38 -3.29,2.19 1.75,6 -11.27,-7.66 6.31,2.93 0.73,0.44 2.3,1.44 3.07,1.93l-11.24 6.23c-0.26,38.92 0.02,79.92 -0.69,103.61 25.14,-13.91 -9.21,-8.21 28.66,-10.38 -8.22,11.55 -10.18,17.39 -1.29,34.42 0.68,-0.92 1.09,-3.84 1.25,-3.21l9.97 -29.93zm-65.48 -17.13c-23.02,2.4 -14.47,-0.46 -31.98,-4.22 -8.76,70.48 4.1,133.69 3.75,137.86l-5.45 110.84 14.99 9.43 -14.26 3.56 0.38 205.56c13.48,-5.14 15.86,-4.55 29.67,2.75l-30.46 1.07 1.56 175.81 159.51 -1.52c0.53,-0.95 0.93,-2.55 1.17,-3.05 15.27,-31.6 10.66,2.37 22.29,-32.46l-39.73 5.67c-3.91,0.31 2.33,0.28 -9.61,-2.58l-97.99 -2.17 -3.19 -62.88c3.53,-46.41 -11.28,-22.24 -0.77,-45.83 6.56,-14.7 1.16,-62.6 1.27,-84.49l-0.3 -48.64c-1.04,-31.61 5.49,-139.2 1.65,-180.66l-3.14 -21.32c-0.02,-0.78 -0.01,-2.14 0.02,-2.94 0.85,-25.15 9.61,-39.69 2.28,-88.35 -7.19,-47.65 -13.19,-5.15 3.19,-43.46l-5.2 -5.65c-0.45,-0.53 -1.65,-1.85 -2.08,-2.37 -4.94,-6.17 -3.95,7.31 -3.53,-6.63 9.93,-2.38 1,0.97 5.96,-13.33zm868.92 -74.12l17.59 0.22c-3.68,-18.83 1.18,-12.77 -7.25,-23.43 -22.53,4.44 -18.06,4.1 -10.34,23.21zm-444.61 233.72c0.65,8.3 2.4,-0.58 -0.32,13.34 5.37,-9.46 0.41,-3.63 7.78,-9.17 0.01,-2.93 -0.94,-6.64 1.44,-7.38l-2.2 -4.61c-4.73,1.26 -4.56,3.1 -6.7,7.82zm145.97 13.91l-0.73 0.1c4.71,1.44 1.29,0.4 6,1.36 0.8,-4.84 1.76,-0.05 1.39,-6.07l-7.65 0.02 0.99 4.59zm176.3 29.38c2.23,2.1 1.01,-2.04 1.88,3.99 0.12,0.85 -0.06,3.16 -0.13,4.09 -0.19,2.82 -0.63,5.86 -0.83,8.8l7.3 -0.16 0.28 -23.84 -2.44 -2.77c-1.41,4.91 3.8,3.89 -1.94,4.16 -1.42,4.72 0.12,2.14 -4.12,5.73zm485.05 -75.49c2.07,0.93 1.44,-1 2.17,1.01 0,-6.52 -0.27,-10.75 -6.66,-11.84 1.05,5.76 2.95,4.92 4.49,10.83zm-507.06 92.02l0.69 -0.58c2.81,-2.57 3.08,-3.33 5.57,-5.41l1.15 6.45 2.68 -0.4c0.82,-2.13 3.64,-7.09 4.77,-8.55 1.23,-1.6 5.91,-6.93 7.15,-8.04 4.24,-3.59 2.7,-1.01 4.12,-5.73 5.74,-0.27 0.53,0.75 1.94,-4.16 -1.47,-2.64 1.84,-3.13 5.42,-3.8l-0.44 -3.93c-7.23,0.27 -1.37,-0.29 -6.54,4.07 -2.09,1.77 -12.59,4.56 -15.54,16.41l-1.31 -8.61c-0.14,-5.56 1,-4.95 2.74,-8.82l-4.36 -4.1c-1.97,2.72 -1.27,2.73 -5.19,3.48 0.24,0.45 0.62,0.89 0.87,1.26 8.6,12.92 -0.43,22.53 -3.72,30.46zm-71.39 -49.72c7.03,1.49 3.73,0.68 5.39,-0.35 -2.88,0.57 -2.86,-0.7 -7.74,4.16 6.18,3.69 4.83,1.21 9.14,0 4.68,0.48 0.06,-0.21 2.14,1.91 6.51,-1.2 9.88,-1.67 14.91,-4.83 1.95,1.68 0.72,-0.78 1.16,3l2.4 -2.75 -5.29 -7.44c-2.75,-0.6 0.06,0.39 -2.44,-2.51 -3.93,4.22 -7.95,5.26 -15.09,7.34 1.7,-2.02 1.22,-0.7 1.84,-2.38 1.27,-3.43 0.86,0.07 -0.65,-2.11 -1.86,1.87 -1.39,1.14 -2.9,2.61 -2.17,2.09 -1.4,1.28 -2.87,3.35zm-229.79 83.2l4.01 0.73 1.03 -18.9c-2.2,-2.89 0.68,-0.72 -3.28,-1.69 -0.26,4.28 -1.33,5.64 -1.48,6.67 -0.89,5.75 1.26,-3.12 0.31,4.67l-0.59 8.52zm897.47 3.19l-1.81 16.86c4.68,-2.35 -0.1,-0.2 7.13,0.39 1.19,0.09 4.02,-0.04 5.16,-0.38 4.03,-1.22 0.82,2.5 3.07,-2.05l-6.44 0.17 0.48 -8.39c6.23,1.56 3.08,0.76 5.41,6.56l5.3 0.56c-0.25,-0.35 -0.64,-0.74 -0.84,-0.98l-2.58 -3.46c-0.86,-1.71 -0.71,-2.09 -1.13,-3.96l-4.97 -20.32c-1.22,-6.69 -0.1,-6.41 -3.55,-10.53 -2.89,5.1 -3.71,17.62 -5.23,25.53zm-686.34 22.36l-0.89 7.08c6.76,-0.38 4.29,0.37 7.25,3.33 5.41,-4.12 2.44,-0.06 11.01,-8.33l-1.65 -2.68 -0.89 -3.3 -3.37 1.23c-0.15,0.14 -0.55,0.52 -0.74,0.69l-3.16 2.45c-2.55,1.73 -1.26,-0.02 -3.98,2.95 -0.23,-0.4 -1.37,-1.86 -1.72,-2.22 -0.14,-0.14 -0.76,-0.16 -0.88,-0.63 -0.12,-0.49 -0.65,-0.38 -0.98,-0.57zm-66.12 -127.35c1.8,4.29 0.31,11.65 0.89,17.82l7.65 -0.02c-3.9,-6.75 -1.38,-10.06 -1.14,-17.42l-0.55 0.32 -6.85 -0.7zm-201.32 -18.89c0.7,0.72 1.46,-0.03 2.11,4 0.6,3.72 0.44,3.94 -0.72,6.16 -4.09,-1.64 -2.93,-6.58 -1.39,-10.16zm7.21 -24.98c-9.3,-1.4 -4.98,-3.52 -2.12,-12.65l2.12 12.65zm-7.67 -11.59c-0.05,12.41 -4.1,1.35 -2.52,20.88 0.29,3.63 -0.23,8.73 -0.37,12.52 -0.17,4.66 0.46,9.17 -1.69,11.61 -0.69,2.21 -1.13,4.6 -1.21,8.86l10.4 0.38 -0.08 21.54c2.44,-1.39 2.03,1.49 2.98,-9 0.5,-5.62 3.05,-8.07 9.28,-12.33l4 -2.64c-5.17,0.22 -4.65,2.61 -5.91,-14.01 -0.27,-3.5 -1.08,-0.29 -0.25,-5.38l-1.34 -3.46c-0.45,-1.71 -0.68,-3.39 -0.93,-5.15l-3.32 -26.65 -0.12 -7.31c-9.72,-0.05 -5.4,-0.83 -7.14,3.2l-1.78 6.94zm876.57 72.12c0.14,-2.94 0.28,-1.91 1.02,-3.9 0.67,-1.83 0.82,-1.77 1.26,-4.22l-9.1 -0.04c0.62,3.93 -0.08,3.42 1.73,5.86 2.97,4 -0.99,3.39 5.09,2.3zm-818.88 -8.16l-17.01 30.39c2.9,-0.63 8.51,-9.69 10.48,-13.74l-6.19 18.35c0,7.46 -1.89,1.95 -1.33,6.93l1.29 3.97c3.64,-3.03 3.58,-4.36 5.02,-9.41 0.91,-3.21 1.81,-5.58 2.92,-9.06l-7.92 25.68c-0.19,6.94 -0.25,2.13 0.99,3.64 1.21,5.38 -4.45,22.68 -6.37,29.66l-4.25 0.54 -3.45 7.35 14.45 -1.39c-0.42,-0.31 -1.03,-1.33 -1.24,-0.93l-3.26 -1.55 18.45 -68.76c0.07,5.42 -0.45,10.6 -0.63,16.01 -0.2,6.14 -0.3,8.21 -3.71,11.02 5.11,4 2.63,-1.28 3.23,5.56l-4.21 2.81c5.54,5.54 3.6,-1.04 2.31,7.26l0.19 7.92c9.08,-0.64 -0.88,-13.16 4.16,-23.75 0.14,0.33 0.25,0.49 0.28,1.03l0.71 44.63 6.86 -0.82 -1.67 -64.99 -1.2 -31.56c-2.38,0.74 -1.43,4.45 -1.44,7.38 -7.37,5.54 -2.41,-0.29 -7.78,9.17 2.72,-13.92 0.97,-5.04 0.32,-13.34zm380.59 81.82c2.46,7.28 3.6,6.05 -0.01,14.69l-28.08 -0.45c2.18,4.77 30.26,1.89 30.57,1.81 6.35,-1.77 -0.2,-5.14 7.99,0.41 -0.81,-5.95 0.02,-12.53 -0.61,-19.34 -9.77,-1.01 -8,-1.56 -9.86,2.88zm-413.28 11.66c1.42,-8.92 -0.43,-7.19 6.78,-7.66 0.83,6.76 0.02,7.32 -6.78,7.66zm-2.29 -1c-0.06,-3.71 0.05,-4.89 0.41,-8.45l0.97 -5.46 4.69 0.13c-0.67,2.63 -1.42,5.56 -2.35,8.15 -1.81,5.1 -1.58,3.64 -3.72,5.63zm428.07 -40.04l6.97 0.18c0.02,2.59 0.27,6.24 0.15,8.69 -0.1,1.79 -0.17,2.22 -0.53,3.93l-1.03 2.22c-7.31,-0.88 -3.65,2.61 -4.93,-4.84 -0.56,9.11 1.57,3.15 -3.25,4.13 0.03,-7.43 -0.92,-9 2.62,-14.31zm-422.05 32.87c-0.35,-1.89 6.96,-27 12.03,-30.3 2.53,5.34 -3.68,19.87 -5.74,25.38 -2.74,7.31 0.12,4.22 -6.29,4.92zm422.05 -34.66c-0.97,-1.66 -1.16,-0.43 -1.92,-4.68 -0.48,-2.68 -0.07,-3.28 0.07,-6.3l8.24 -0.19c0.29,2.13 0.67,4.22 0.51,6.45 -0.24,3.35 0.15,-0.58 -0.43,2.57l-6.47 2.15zm-410.08 -1.82c1.99,-2.85 1.22,-2.09 4.67,-3.43 -0.66,6.05 -0.09,6.91 -5.14,9.24l0.47 -5.81zm120.74 -140.22c-0.94,14.15 -4.35,10.67 -4.99,14.87 0.31,5.88 3.94,7.72 2.4,17.88 -1.86,12.33 -4.27,38.03 -7,45.97 -0.41,1.2 -0.82,0.9 -0.5,3.42l1.12 2.65 7.71 0.96 3.9 0.5c0.52,6.73 0.71,5.92 -2.06,9.65 -6.35,8.57 2.36,-1.88 2.43,13.45l-0.43 40.48c-2.17,2.29 -0.69,0.53 -6.14,3.03l-1.76 15.47 4.55 2.13c1.49,0.61 1.82,0.79 3.54,1.45 -2.31,5.64 0.63,0.15 -4.97,4.22 5.89,0.86 5.65,-1.78 3.98,14.25l-8.12 0.03 -3.15 2.7c-9.13,-4.88 -11.6,0.27 -15.89,-1.48 -6.34,-0.93 -7.58,0.36 -12.3,0.37 -5.56,0.01 -2.28,-1.48 -10.72,-2.06 -6.52,-13.8 -4.66,-8 -4.62,-33.26 0.01,-5.43 -0.81,-6.12 1.84,-9.34 4.13,1.36 2.94,-2.69 2.68,4.8 -0.04,1.1 -2.68,11.14 -2.1,15.92 1.12,9.23 -1.34,3.76 3.59,5.77 1.55,-2.08 0.65,0.06 1.51,-3.32l1.24 -20.81c0.82,-7.4 -0.96,-6.4 -0.91,-11.13 0.1,-9.47 2.28,1.44 2.19,-9.46 -4.72,0.19 -5.05,0.13 -6.27,4.37 -1.44,4.98 0.43,5.02 -2.45,8.41 0.68,-10.1 -0.16,-23.21 4.78,-21.92 -0.26,-7.43 -0.9,-3.53 -1.54,-8.01 -0.41,-2.9 -0.34,-3.58 -0.11,-6.62 0.28,-3.8 0.86,-8.81 1.39,-12.56l3.82 -48.58c0.19,-0.34 0.49,-0.76 0.6,-0.98l0.89 -1.92c0.67,-1.83 0.32,-0.68 0.42,-2.94 -4.07,2.25 -2.39,2.48 -8.16,4.11l-0.16 -1.16 -1.82 5.56c2.02,10.99 -3.21,37.45 -4.55,50.09 -3.47,2.01 -0.16,-1.27 -5.51,2.06 -0.15,4.37 0.15,8.83 -0.47,13.11 -0.39,2.74 -1.29,5.74 -1.29,9.87 -0.04,5.28 1.45,15.28 -1.67,19.66 -2.01,-4.3 -0.25,-1.94 -1.25,-5.72 -0.12,-0.44 -0.21,-0.85 -0.33,-1.25l-1.5 -3.64c-0.1,26.69 -4.11,25.48 -4.65,34.17 -0.59,9.35 2.91,8.33 3.56,8.59 5.84,-2.87 1.43,-8 2.85,-16.99 0.03,-0.22 0.01,-2.91 1.8,-4.51l0.14 30.9c-0.28,0.13 -0.75,0.1 -0.9,0.11 -0.14,0.01 -0.68,0.07 -0.84,0.08 -0.27,0.02 -1.15,0.02 -1.43,0.04l-1.21 0.09c-13.24,2.29 -9.41,0.66 -23.14,1.2l-6.86 0.82 -0.71 -44.63c-0.03,-0.54 -0.14,-0.7 -0.28,-1.03 -5.04,10.59 4.92,23.11 -4.16,23.75l1.08 1.19c3.96,0.97 1.08,-1.2 3.28,1.69l-1.03 18.9 -4.01 -0.73 -10.45 -0.39 -14.45 1.39 3.45 -7.35c0.57,-5.98 6.39,-27 10.62,-30.2 -1.24,-1.51 -1.18,3.3 -0.99,-3.64l7.92 -25.68c-1.11,3.48 -2.01,5.85 -2.92,9.06 -1.44,5.05 -1.38,6.38 -5.02,9.41l-1.29 -3.97c-0.56,-4.98 1.33,0.53 1.33,-6.93 -1.13,2.31 1.39,-0.39 -1.51,1.47 -0.29,0.18 -2.34,0.92 -2.77,1.09 2.36,3.8 1.61,5.8 0.01,11.27l-5.25 14.53 -1.94 -4.79c-4.41,-9.9 -5.77,2.42 -4.39,-7.73 -5.43,1.36 -3.48,-0.24 -6.25,3.57 0.35,-9.15 -0.12,-19.96 -0.16,-29.37 -0.07,-16.56 2.08,-13.45 1.74,-17.65 -0.21,-2.64 -0.23,0.89 -1.73,-4.61 0.42,-3.97 8.01,-1.74 4.75,-10.22 -0.33,-0.85 -5.34,-8.17 -6.04,-8.72l-0.64 4.02 -4 2.64c-6.23,4.26 -8.78,6.71 -9.28,12.33 -0.95,10.49 -0.54,7.61 -2.98,9l-3.75 0.69c0.19,9.93 1.3,0.11 3.63,8.55 0.55,2.01 0.33,8.48 0.3,10.92 -0.06,6.3 1.38,14.65 -1.21,20.47l-1.65 2.18c-6.43,-6.43 -7.18,14.35 -2.8,20.41 1.9,2.63 1.41,3.24 5.64,3.89 -1.54,4.04 -3.59,4.19 -3.6,4.17 -0.14,-0.26 -0.69,0.29 -1.01,0.48 6.66,0.85 4.79,1.62 4.44,9.71 -13.76,0.67 -8.49,-4.35 -16.73,-1.39 -4.19,1.51 -2.01,1.64 -10.9,1.62l-53.82 -0.49 -1.84 -14.69 -2.37 7.06c-0.83,3.13 -0.86,5.29 -1.8,7.43 -1.21,-2.6 -0.25,-1.33 -1.04,-3.94l-1.24 -3.63c-0.08,-0.69 -0.27,-0.87 -0.49,-1.26l-2.84 8.03c-4.2,5.42 -5.93,-2.13 -5.75,-5.58 0.2,-4.07 1,-4.24 2.22,-7.93l-6.07 0.51c2.98,6.63 1.4,-1.02 2.74,5.95 0.45,2.37 0.14,5.78 0.06,8.25l-0.72 -2.09c-0.09,-0.31 -0.21,-0.75 -0.31,-1.09l-0.53 -2.25c-0.92,-3.39 0.76,-1.03 -1.31,-3.97 -3.61,2.01 -2.36,4.19 -2.67,9.25l-2.89 -5.19 -2.78 5.62 -13.87 -0.27 -0.14 -40.27c-4.88,-0.4 -9.91,0.07 -14.72,-0.68 -3.93,-0.62 -7.35,-2.2 -11.09,-2.84 -20.54,-8.39 -31.2,-6.2 -54.69,-6.2 -19.93,0.01 -39.85,0 -59.77,0.01 -39.38,0 -78.76,-0.02 -118.14,0l0 128.27 1117.46 0c84.35,0 172.11,0 257.13,0l0 -34.95c-5.67,-0.53 -2.09,0.24 -4.15,-1.64 0.27,-4.56 1.86,-7.99 0.35,-12.88 -1.45,-4.68 -0.36,-1.55 -4.55,-6.68l-1.38 -1.79c-3.13,1.68 -2.26,3.44 -5.56,5.05 -8.69,-4.93 1.95,-0.51 -6.31,-6.71 -3.37,-2.52 -0.67,3.18 -1.47,-1.73l-5.3 -0.56 0.55 1.66c-2.25,4.55 0.96,0.83 -3.07,2.05 -1.14,0.34 -3.97,0.47 -5.16,0.38 -7.23,-0.59 -2.45,-2.74 -7.13,-0.39 0.94,6.12 0.25,1.91 -1.3,3.35 -4.88,-5.44 0.23,-5.22 -8.34,-5.29l-2.35 6.07c-0.09,0.24 -0.24,0.73 -0.43,1.06 -4.44,-2.14 -1.17,-0.2 -4.17,-4.24 -0.23,0.24 -0.55,0.32 -0.65,0.76l-3.71 4.57c-0.09,0.12 -1.77,2.29 -1.79,2.31l-9.38 5.87 0.18 -7.04c-2.14,-4.14 -1.58,-4.3 -1.73,-9.64l-21.37 -0.45c-5.41,-0.14 -2.51,1.94 -5.55,-1.77 -2.27,1.69 -0.94,0.68 -3.91,1.87 -3.09,1.24 -0.92,0.67 -3.69,1.13 -0.23,0.04 -7.71,0.61 -8.17,0.62l-4.16 -1.41c-0.17,0.25 -0.23,0.71 -0.28,0.87 -0.05,0.15 -0.22,0.66 -0.28,0.84l-1.47 3.74c-3.26,6.69 -1.72,7.33 -2.13,15.87 -4.01,0.11 -4.34,0.11 -8.13,-0.55 -5.98,-1.04 -6.25,-0.28 -11.14,-2.44l-2.36 -0.94c-1.29,-0.44 0.36,5.65 -1.46,-0.37 -0.07,-0.26 -0.48,-0.03 -0.69,-0.14l22.13 -29.01 -3.98 -1.79c-0.39,-0.16 -1.53,-0.64 -1.87,-0.75l-1.53 -0.45c-2.63,-0.32 0.38,-0.23 -2.83,0.54 -4.66,1.13 -16.2,2.16 -20.77,0.19l-7.53 -0.87c-7.46,2.69 -6.41,-2 -6.39,-8.59 0.13,-20.21 -1.98,-14.49 3.34,-21.88 -6.08,-4.67 -1.29,0.21 -4.06,-6.45 -2.62,7.04 1.93,2.05 -4.1,6.45 3.72,4.94 1.66,-1.34 3.22,5.5l-2.05 25.13c-1.93,0.12 -0.93,0.14 -1.89,0.22 -2.79,0.21 2.93,1.01 -2.06,0.11 -3.56,-0.64 0.48,0.32 -2.26,-0.89 -8.36,-3.69 -1.49,-0.34 -11.62,-0.94 0.05,-4.15 0.26,-1.65 0.73,-3.6 3.18,-13.01 -0.99,1.4 -0.62,-8.75 0.31,-8.29 2.31,0.66 4.23,-8.49 1.02,-4.85 -0.27,-8.38 -2.17,-12.05 -2.67,-5.17 3.26,-6.66 2.91,-15.42 0.52,-5.61 6.72,-18.93 -3.69,-18.43 -3.62,0.18 -1.99,0.14 -5.93,2.82 -3.26,-1.08 -3.59,-5.8 -4.77,-10.23 -0.95,-3.59 -1.78,-7.96 -3.25,-10.64 -6.46,5.43 -3.78,-3.02 -15.26,2.79l-0.87 5.01c-0.48,6.36 1.29,10.63 2.1,17.25 6.04,18.48 -0.76,18.76 2.47,24.87l-20.01 3.35 0.04 18.98 20.02 0.48c-0.04,3.18 0.74,1.9 -2.27,5.35 -0.13,0.15 -0.7,0.87 -0.8,0.63 -0.11,-0.24 -0.6,0.37 -0.87,0.6 5.27,3.43 3.38,-1.14 4.19,5.68l-1.92 7.43c-1.54,1.51 -2.65,-0.26 -5.71,0.32l-3.37 1.66c-0.18,-4.67 0.61,-7.22 -1.4,-10.53 -2.4,3.29 -1.48,5.45 -1.53,10.64l-8.21 -0.08c-0.08,-3.52 0.01,-6.18 0.15,-9.63 0.28,-6.71 2.11,-3.69 -1.53,-5.55 -2.03,3.3 -0.8,10.98 -0.91,15.31l-12.31 -1.1c-7.16,-0.99 0.29,0.68 -8.96,1.07l-0.06 -15.5c-4.81,2.23 -1.82,-5.07 -2,14.94 -7.06,1.59 -23.02,0.57 -31.36,0.61l-17.45 -1.24c-2.15,-0.04 -1.63,1.68 -4.78,-2.81 -1.85,1.27 -2.67,2.25 -4.17,3.94l-1.03 -1.83c-5.2,-7.97 -7.3,-0.96 -7.8,-0.14l-5.46 -2.77c-3.18,4.47 -0.5,3.17 -5.17,4.84 -10,1.74 -12.01,-2.44 -13.9,-6.82 -2.31,2.3 -1.16,3.98 -12.26,4.06 -0.11,-3.05 -0.04,-5.31 0.05,-8.32l-0.3 -6.05c-4.37,2.17 -0.53,-0.8 -2.05,3.48l-3.29 11.12 -4.72 -1.74c-1.39,-0.05 -0.54,3.81 -3.63,-1.34 -2.44,-4.04 -0.74,-2.8 -0.93,-6.58 -0.36,-7.3 0.86,-3.58 -2.06,-5.03 -0.1,0.27 -0.14,0.69 -0.16,0.86l-0.03 12.23c-7.04,6.25 -12.5,4.14 -26.21,4.13 -18.82,0 -21.47,2.32 -26.41,-4.19l-1.73 2.49c-0.1,0.15 -0.46,1 -0.53,0.79 -0.08,-0.2 -0.35,0.52 -0.52,0.79l-4.17 -3.87c-5.13,4.71 -9.13,2.49 -19.45,2.51 -7.68,0.01 -15.47,0.34 -23.12,-0.28 -2.49,-7.65 -2.47,-7.69 -0.72,-16.17 -7,0.54 -2.55,-1.01 -3.95,1.84 3.33,4.03 2.37,6.64 1.73,12.09 -4.6,-0.26 -6.34,-0.3 -9.44,-1.72 -5.07,4.05 -2.91,-9.23 -4.82,-12.56 -4.52,2.34 -0.81,-1.76 -1.51,12.76l-6.83 5.47c-3.79,-0.81 -17.49,-2.84 -20.66,-6.94 -0.3,-5.32 -1.92,-11.87 -0.13,-18.61l6.89 0.91c3.96,-1.9 1.14,0.62 2.71,-3.09 1.76,-8.79 -1.81,-7.16 -4.07,-8.49 -6.68,-3.92 -3.2,2.06 -5.26,-4.03 -1.29,-7.94 4.12,-14.65 -2.56,-29.58 -1.48,-1.41 -1.65,1.88 -2.2,-4.81 -5.36,2.06 0.78,-0.48 -3.54,3.98 -3.7,3.83 0.18,1.25 -4.69,3.21l0.21 32.01c-11.79,0.62 -6.34,-0.51 -11.35,4.93l-3.18 2.78c0.32,0.26 0.82,0.47 1.08,0.63l2.01 1.2c0.25,0.16 0.65,0.38 0.88,0.55 0.2,0.15 0.57,0.39 0.74,0.54 2.34,2.01 1.25,-0.39 1.44,2.38 1.86,-4.44 0.09,-3.89 9.86,-2.88 0.63,6.81 -0.2,13.39 0.61,19.34 -8.19,-5.55 -1.64,-2.18 -7.99,-0.41 -0.31,0.08 -28.39,2.96 -30.57,-1.81l-5.04 -0.36c0.94,-3.39 1.82,-2.51 0.5,-5.82 -1.47,-3.66 0.24,0.25 -1.81,-2.59 -1.46,-2.04 -0.68,1.48 -2.24,-2.98 3.15,-1.76 5.07,-2.83 8.53,-5.33 4.08,-2.94 4.31,-2.02 4.83,-8.53 -3.47,-1.37 -4.22,-0.39 -9.42,-0.91 -2.03,-0.2 -5.9,-0.74 -10.36,-0.89l-1.87 -8.3 -5.13 -0.34 -7.3 0.16 -12.84 -0.29 -2.68 0.4c-2.81,2.4 -5.08,2.5 -10.46,2.45 -17.72,-0.17 -11.03,-2.32 -31.65,18.31l-8.28 8.41c-2.16,2.53 -1.09,3.88 -3.19,0.99 1.48,0.99 3.46,1.96 4.58,3.73 2.76,4.37 1.3,-0.22 2.37,7.39 -3.55,-1.04 -6.16,-0.24 -9.72,-6.96 -1.93,3.64 -8.12,8.81 -11.47,12.17 -5.51,5.51 -7.64,9.17 -13.92,11.48l1.65 2.68c-8.57,8.27 -5.6,4.21 -11.01,8.33 -2.96,-2.96 -0.49,-3.71 -7.25,-3.33l0.89 -7.08c-7.33,0.71 -3.57,-1.13 -8.72,-0.34 -0.02,0 -0.83,0.49 -2.5,0.63 -0.36,-5.88 0.65,-14.65 0,-18.15 -15.21,-6.7 -40.13,-3.23 -57.46,-2.17l-5.57 0.6 -2.18 6.89c-4.2,-2.25 -4.67,-3.92 -8.91,-5.96l0.63 -16.51c0.81,-6.7 3.52,-5.28 10.63,-5.69 0,-3.31 0.2,-6.94 0.16,-10.16 -0.1,-8.66 -2.36,-7.3 -2.36,-7.3 -5.23,-5.12 -1.06,4.03 -4.42,-5.75 -0.58,-1.7 -1.11,-4.02 -1.97,-6.13 -2.79,-6.83 -3.33,-24.97 -2.58,-33.52 4.75,-0.06 3.27,0.7 6.53,-1.38 -0.01,-5.72 -1.28,-6.23 -2.47,-10.88 3.62,-2.88 3.05,3.09 3.03,-3.69 -5.37,-2.03 -2.72,-20 -2.79,-25.94 -5.72,7.04 -1.81,10.11 -1.76,16.66 -5.41,0.04 -3.24,-0.83 -6.45,1.08l-2.86 -22.03c-0.45,-6.68 1.32,-3.9 -0.55,-9.32 -1.12,-3.23 -1.72,-4.87 -2.33,-8.49l-2.21 -26.23 4.37 0.2c-0.6,-5.58 -0.1,-3.4 -6.23,-6.11l-1.96 -16.55 4.68 -3.71 -5.41 -0.28 -0.28 6.09c0.12,-0.39 0.78,0.46 1.17,0.68 0.62,21.64 0.32,11.7 -2.67,15.3 -4.82,-5.83 -0.27,8.08 -3.02,-12.08zm139.24 367.12c7.34,3.31 5.55,5.33 9.44,15 4.53,11.25 2.3,7.7 -0.44,10.58l-0.9 1.04c-0.07,0.09 -0.24,0.41 -0.44,0.56l7.54 3.21c0.48,7.27 -0.44,2.67 -0.8,4.41 -0.03,0.17 -0.09,0.48 -0.12,0.64 -1.54,6.72 -19.64,15.71 -26.19,20.05l-33.85 21.43c-2.96,-3.05 -4.77,-5.79 -8.17,-8.69 2.69,-1.34 29.21,-37.25 33.75,-42.33 3.55,-3.98 2.82,-2.7 8.56,-1.17 -4.27,-6.24 -3.9,0.02 -2.88,-5.44 1.94,1.67 4.17,1.54 8.49,2.33l-2.9 -2.36c-0.81,-0.85 -1.63,-0.47 -2.03,-3.05 -0.5,-3.25 7.15,-9.32 10.94,-16.21zm154.27 -8.49c1.94,1.85 1.56,0.62 2.45,3.99 0.04,0.18 0.24,5.36 0.25,5.61l-10.11 -0.95c2.61,-6.19 -1.86,-7.98 7.41,-8.65zm-833.93 -95.7l0 101.69 61.24 0.3c0.25,-6.03 3.33,-6.43 1.81,-11.95 -0.93,-3.33 -4.66,-5.52 -3.44,-10.49 0.99,-4.04 30.91,-25.73 34.99,-29.18 3.26,-2.76 3.74,-5.54 12.23,-4.45 7.79,1 4.1,4.03 13.46,2.97 5.19,-0.59 8.76,-2.61 13.94,-0.17l27.28 21.16c8,5.64 9.83,9.98 1.43,16.91 -4.61,3.8 -13.76,11.2 -18.41,13.82l1.31 2.03c23.75,-4.91 50.6,4.58 86.19,-5.15 12.65,-3.46 13.41,-1.91 25.96,-3.61 0.4,-5.35 0.17,-10.74 0.14,-16.09 -0.01,-3.51 -0.86,-10.04 0.35,-13.07 1.24,-3.13 -2.05,-0.71 2.05,-2.67l11.89 0.01 8.34 7.61c1.82,-2.34 1.09,-5.26 3,-7.38 0.91,10.58 -0.68,8 -2.43,11.44l4.89 -0.35c-1.54,-4.28 -1.71,-4.03 -1.63,-9.9 2.38,-0.98 -0.22,-0.16 2.6,-0.21 0.17,0 0.61,0.04 0.77,0.04 2.25,-0.02 1.64,0.67 3.44,-0.64 0.42,3.73 -0.51,4.43 1.87,7.05l2.03 -3.89c0.63,-1.87 -0.49,-0.74 0.74,-2.97 2.03,3.58 1.89,8.35 4.62,11.35l1.23 -11.82c9.73,1.37 51.24,-2.77 64.07,0.74 12.85,3.52 1.33,-1.92 17.95,-0.85l-0.27 10c-2.68,1.99 -3.08,0.43 -6.07,4.9 -2.75,4.11 -1.92,8.51 -1.6,13.64l1.18 2.63c3.7,0.19 1.84,-0.16 6.84,-0.46 0.12,4.79 0.91,24.42 -1.32,28.09 -1.55,2.54 -4.11,0.26 -2.33,5.67 4.05,1.08 2.46,-0.38 3.8,2.74l-0.17 14.79 -10.18 0.45c-0.68,5.39 0.17,2.61 1.13,5.07 0.09,0.24 0.25,0.53 0.34,0.78 0.09,0.26 0.22,0.55 0.3,0.82l0.61 5.64c0.1,4.62 1.01,13.62 -0.18,16.15 -2.46,6.55 -0.42,4.3 5.23,9.45l-1.91 3.04c2.03,2.71 2.05,5.5 2.5,8.72l6.02 0.35c0.63,-5.8 -1.79,-8.6 0.8,-14.2l0.08 -6.14c4.36,-8.24 4.76,-20.06 6.54,-29.03l5.87 2.42c0.18,0.14 0.46,0.48 0.73,0.7 1.47,-3.72 1.43,-3.21 4.79,-4.94 0.21,-0.88 0.59,-4.02 0.67,-6.37 -3.16,-1.83 -2.08,-0.81 -5.21,-2.2 -0.09,-7.98 2.99,0.58 0.55,-7.21 -1.04,-3.34 -1.15,-6.52 -1.3,-10.38 -0.32,-7.81 -0.02,-15.34 0.28,-23.11 3.1,-0.67 3.15,3.72 1.83,0.63l5.57 -1.64c0.35,-0.16 1.24,-0.58 1.49,-0.8 1.96,-1.65 1.4,-3.81 1.7,-6.64 0.49,0.3 5.83,0.16 2.26,1.85 -7.1,-15.75 -1.5,-13.12 -12.47,-13.52l-1 -11.93c10.98,-0.88 8.82,0.73 9.6,2.63 0.96,-2.14 0.38,-1.69 3.57,-3.51 6.14,1.08 19.53,0.63 26.17,0.33l-0.79 34.47c0.84,2.87 -0.18,0.71 1.03,2.13 2.51,-3.3 1.32,-19.65 0.97,-24.91 0.17,-0.14 0.53,-0.54 0.56,-0.39 0.03,0.14 0.43,-0.34 0.46,-0.4l-1.52 -11.03 6.48 0.65c6.14,-0.46 20.78,-0.81 29.1,0.14l-1.03 21.03c4.61,0.01 8.75,0.28 12.45,1.19 0.16,-5.23 0.52,-2.07 -0.94,-5.94 -1.49,-3.96 -0.01,0.69 0.27,-5.26 0.99,-20.85 2.55,-5.21 3.22,-15.24 11.22,-1.38 7.51,-1.89 17.89,-0.81l2.72 -0.05c8.85,-9.74 17.39,-4.89 21.1,4.04 1.4,-3.29 -1.25,-0.78 1.17,-2.75l4.48 -1.68c-3.13,-3.05 -9.33,-7.99 -11.18,-11 2.83,-4.27 8.38,-8.54 12.48,-11.01 1.2,1.15 1.03,0.9 2.68,2.21 -5.93,4.07 -11.76,5.94 -7.1,12.26 6.03,0.18 5.73,-0.6 8.94,-3.32 0.29,-0.24 2.29,-1.9 2.59,-2.05 2.21,-1.06 3.9,-0.79 2.27,1.76 -1.11,1.74 -3.72,2.42 -7.24,6.75 2.24,4.32 4.5,4.53 7.08,7.7 -1.06,1.35 -2.35,1.83 -2.37,1.86 -8.91,7.71 3.05,5.16 -8.25,7.64 5.97,1.75 3.07,-1.41 5.4,2.49l-7.29 3.07c-0.15,-0.23 -0.66,0.21 -1.48,0.34l-0.67 25.42c-0.11,-3.59 -0.93,-6.95 0.44,-10.09 1.32,-3.04 0.03,-1.12 2.22,-3.2l5.57 0.3c0.22,0.39 0.45,0.5 0.53,1.05 0.08,0.55 0.39,0.7 0.49,0.98 0.1,0.28 0.31,0.66 0.41,1.01 0.11,0.35 0.22,0.64 0.32,1.04l0.25 14.3c-0.12,6.57 -0.48,13.31 -0.51,19.8 -0.65,3.09 2.97,-0.59 -1.72,1.16l-1.39 0.22c-0.04,0.02 -0.28,0.13 -0.31,0.17 -1.39,1.74 1.01,4.59 1.01,4.6 2.74,4.21 2.48,1.84 1.89,8.01 -6.83,1.58 -6.39,0.04 -12.94,3.76 1.33,3.66 2.84,0.65 3.44,13.39l5.65 26.91c0.1,3.69 -0.94,6.78 -2.19,9.86l0.72 3.91c0.16,0.26 0.52,0.64 0.67,0.86 0.16,0.23 0.5,0.58 0.76,0.86 1.19,0.11 -4.02,-0.42 2.87,-0.41 6.76,0 -1.38,0.01 5.86,0.48 1.76,-0.48 4.67,-1.8 6.23,-2.64l-5.96 -3.61c3.59,-2.96 -1.52,-0.36 3.92,-2.62 -4.96,-2.61 -1.59,0.54 -3.37,-3.69l2.86 -5.53c0.16,-0.22 0.39,-0.61 0.68,-0.86 -2.52,-13.88 3.69,-10.39 2.48,-17.61l1.63 -18.52c4.35,-2.27 4.43,-1.83 9.31,-1.04 -0.52,-4.36 -1.77,-5.68 2.77,-7.98 -2.82,-5.99 -3.64,-0.26 -0.23,-8.16l0.26 -3.07 -6.65 -1.75c-0.32,-4.79 0.44,-11.3 0.37,-14.42 -0.04,-1.38 -3.39,-5.91 3.69,-11.36 -0.34,-9.53 4.59,-8.34 6.93,-9.43l-0.5 -13.16c-11.42,-0.37 -9.96,-1.81 -10.85,-8.93 -1.06,-8.49 1.15,-10.3 8.41,-12.83l2.78 4.61c22.11,-0.3 37.47,4.69 63.19,-1.12 -0.52,-5.52 -2.28,-8.52 0.34,-15.11 0.55,0.48 -3.51,-0.62 2.12,1.2 2.69,0.87 3.63,-0.21 9.2,-1.14 -1.74,-5.73 -2.13,-2.4 3.65,-5.63 0.7,-0.39 1.89,-1.18 2.11,-1.34 3.63,2.13 6.89,3.08 10.71,6.15 -1.8,5.27 -3.95,7.21 -4.53,14.99l15.77 1.63c2.57,13.93 -1.23,17.59 -1.96,22.09 -0.07,0.38 -0.11,1.54 -0.13,1.96 -0.21,6.5 1.58,7.82 -2.4,13.5 -2.01,3.84 -16.6,24.21 -18.28,25.05 -2,4.54 0.01,0.62 -2.74,4.97 -0.41,0.65 -1.68,2.43 -2.38,3.47 -2.57,3.8 -3.25,5.21 -6.12,7.43 -1.33,6.49 -15.46,22.1 -19.81,29.5l-7.83 1.61c-0.41,7.02 -1.2,2.54 2.17,10.22l0.31 -1.98c8.69,5.28 1.35,1.95 7.73,2.69 2.98,0.35 5.93,3.88 7.48,5.89 -1.5,1.03 2.76,1.8 -3.4,1.24 6.3,2.12 4.48,-0.51 8.13,3.42l1.86 -2.49c1.12,-1.67 -0.16,-0.42 1.96,-3.02 3.94,-4.85 19.78,-12.26 26.47,-17.54 6.19,-4.89 3.84,-4.43 11.43,-6.88 2.6,-3.73 13.37,-9.07 17.94,-13.68l34.4 -0.11 0.43 -6.49c-6.77,-1.53 -12.29,0.08 -20.22,-1.63l-9.4 -37.02c-3.75,-11.74 -3.62,-10.74 1.06,-11.09 6.81,1.5 3.02,-1.14 4.31,3.92 0.42,1.64 -0.11,4.4 0.27,6.53 0.69,3.98 2.76,4.36 3.99,9.21 6.43,-3.51 -0.3,-1.28 3.99,-4.85 2.53,-2.09 1.76,-0.65 5.64,-2.03l0.07 -12.36 24.42 0.85 -0.45 3.31 3.17 -3.29c0.08,-0.41 0.27,-0.55 0.45,-0.97l23.86 -0.2 1 -0.09 0.94 -6.44c5.8,-0.19 17.04,-0.42 20.2,-1.39 -0.46,-4.42 -0.69,-3.7 -4.14,-5.94 -6.18,-4.01 -12.35,-5.39 -8.5,-14.03 0.13,0.18 0.05,0.51 0.05,0.61 0.1,6.68 -0.89,4.83 2.73,5.66 2.3,-2.88 1.16,-2.48 0.56,-6.95 2.82,0.03 23.75,-2.81 35.64,-0.66l3.97 0.93c8.33,1.44 -2.79,-1.84 2.69,0.25 2.94,15.57 -1.03,12.06 -15.09,14.3 1,2.6 3.16,1.89 4.03,6.7l9.82 0.07 0.37 10.7 -0.04 14.44c1.56,1.07 2.87,1.96 4.14,3.14 1.35,1.26 0,-0.07 1.66,1.79 0.16,0.17 0.64,0.87 0.9,1.18 2.61,-2.98 0.5,-3.92 6.02,-5.24l-0.04 -1.74c-2.33,-8.06 2.63,-8.62 -0.07,-17.56l-2.82 4.71c-1.56,1.63 3.57,1.22 -4.48,1.57 -2.94,-3.4 -0.7,-6.07 -0.02,-10.37l4.25 -1.01c1.42,-6.58 4.11,-4.55 2.7,-10.78 -0.07,-0.33 -0.21,-0.61 -0.28,-0.96l0.25 -11.02c2.02,-5.32 14.15,-6.9 20.62,-6.17 3.12,0.36 2.25,0.47 2.64,0.53 12.94,2.29 4.63,-12.97 29.33,-5.83 12.37,3.58 15.07,-8.05 28.2,6.16l4.46 1.82c3.71,-4.12 1.73,-0.66 2.47,-0.77 8.86,-1.35 3.24,-4.45 8.23,0.71 4,-3.47 3.67,-2.85 11.01,-2.88 10.92,-0.05 38.1,-1.57 41.42,3.21 1.39,6.63 -2.58,9.22 1.77,10.7 2.82,-3.44 -2.86,-6.08 1.92,-10.24 3.37,-2.92 1.29,-0.85 4.14,-0.65l3.91 0.19c2.04,5.74 -0.47,-1.68 1.95,2.92 3.53,6.69 -0.61,3.93 1.98,7.72 5.13,-1.58 -0.01,1.96 1.61,-11.49 3.45,-0.05 8.09,-0.1 10.55,1.26l1.74 1.6c2.68,-3.65 3.44,-5.75 11.04,-5.23 11.59,0.8 1.82,5.38 12.59,0.5 1.01,1.18 2.42,4.14 5.82,3.12l14.2 -2.51c19.49,-2.22 26.64,-1.22 46.78,-0.85 1.16,3.89 0.51,3.84 0.69,7.46 0.27,5.7 -2.52,2.85 2.36,4.89 0.66,-1.91 -1.24,-7.99 -0.05,-12.29 4.57,0.01 3.4,0.38 6.55,0.41 19.74,0.19 12.83,-3.18 14.46,8.04 0.53,3.7 -1.88,2.05 2.52,3.21l0.04 -11.76 7.74 0.06c0.82,3.83 -0.28,5.67 2.33,8.01l1.01 -8.03c0.72,0.28 2.51,1.01 3.19,1.11 8.79,1.18 -7.13,-0.39 2.94,-0.18 3.28,0.07 0.14,0.23 4.53,2.03 0.72,6.35 1.66,6.51 -3.84,8.8l1.54 1.02c0.15,0.14 0.5,0.39 0.65,0.55l1.31 3.61c-8.02,0.6 -11.91,-0.75 -19.85,1.24l0.01 14.49c3.32,0.88 2.91,-0.23 5.77,1.57 8.38,-2.46 3.84,-0.4 6.84,-0.14 3.16,0.27 3.09,0.5 7.03,0.41 -1.07,6.49 3.33,11.41 -1.58,19.04l-6.23 26.3 -19.23 0.53 -0.46 6.27c8.62,3.64 5.56,-0.18 13.1,6.47 3.07,2.7 5.98,5.78 9.63,8.44 3.34,-0.2 4.79,-1.57 7.61,-2.3 3.28,4.83 2.3,0.28 7.91,5.81 4.19,4.11 3.53,5 6.45,4.95l0.55 -0.34c0.57,-4.8 -9.81,-14.18 -13.22,-18.71 3.73,-2.98 1.4,-2.43 4.25,-6.08 4.13,-5.28 2.1,-0.11 5.98,-3.82 -1.1,-6.56 -4.44,-1.17 -1.19,-11.71 1.26,-4.1 2.59,-8.88 5.29,-11.9 0.28,0.23 0.67,0.28 0.78,0.75 0.11,0.45 0.59,0.55 0.74,0.74l7.43 14.01c2.57,4.9 5.03,9.95 8.05,15.53 3.38,6.24 15.56,26.98 16.63,32l0.34 -0.18 3.59 -0.54c0.42,-0.15 0.96,-0.44 1.35,-0.58 0.41,-0.16 0.92,-0.48 1.38,-0.71 0.24,-2.21 -0.23,-1.96 -0.4,-2.85 -0.06,-0.32 -0.29,-1.38 -0.36,-1.75 -0.97,-4.95 -1.06,-5.77 -4.71,-10.74l-1.07 -1.37c-3.08,-3.51 -2.08,-0.55 -3.31,-3.74 -0.67,-1.72 0.63,-5.48 0.64,-7.46 -0.2,-9.48 -17.17,-33.13 -19.94,-46.43 -0.92,-1.95 -4.9,-8.49 -3.82,-9.96 6.07,-8.25 1.76,-11.54 -0.07,-13.94 -0.71,-0.93 -2.05,2.25 -1.48,-3.88 0.44,-4.63 0.76,-1.06 1.07,-2.77 0.59,-3.23 -1.42,1.57 -1.13,-6.2 3.12,-0.21 5.54,0.28 6.81,0.2 8.22,-0.53 -0.36,-2.45 16.66,-2.2l1.02 0.86c0.05,0.02 0.36,0.09 0.42,0.11 3.45,0.82 -1.18,-0.42 1.56,0.03l1.2 0.24c13.8,4.3 -1.68,-0.35 11.03,-1.56 18.58,-1.76 17.38,4.21 27.46,-1.01l-21.74 -23.1c0.3,-0.13 0.72,-0.27 0.91,-0.34l1.81 -0.68c0.03,-0.01 2.6,-0.86 2.71,-0.88l18.22 -1.55c2.03,22.06 1.58,5.5 3.25,16.31l2.45 -0.35c2.48,-0.53 6.28,-0.29 8.75,-0.16 5.34,0.28 2.51,0.45 8.97,2.11l26.68 -1.14c2.3,-3.87 1.58,-8.94 2.05,-13.39 0.33,0.16 0.71,0.44 0.93,0.55l2.63 1.38c0.37,0.15 1.82,0.63 2.7,0.9 0.44,0.13 2.7,0.75 3.42,0.96 0.89,0.26 1.64,1.92 2.66,0.82 0.28,-0.3 0.9,0.32 1.36,0.45 1.61,-1.31 3.71,-3.4 5.45,-4.08 2.97,4.45 -1.75,0.9 -5.13,9.58 3.9,-1.91 1.94,-1.5 5.98,-3.1 0.23,0.25 0.44,0.66 0.58,0.81 5.9,6.3 5.98,-3 9.78,3.43l1.13 -2.73 13.24 2.7c4.08,0.31 5.68,2.7 14.18,-2.71 0.7,-2.23 -1.89,-0.08 1.4,-1.48 5.04,2.02 1.44,3.19 5.56,4.24 8.1,-7.64 6.17,-8.53 5.42,-17.15 2.45,-1.88 -3.76,-1.5 4.31,-1.52l0 -27.86c-85.02,0 -172.78,0 -257.13,0l-1117.46 0zm687.65 -167.74l5.29 7.44 -2.4 2.75 -8.12 26.5c-4.01,-3.33 -5.95,-7.81 -9.46,-12.94 -3.61,-5.28 -8.07,-9.89 1.51,-11.73 -2.08,-2.12 2.54,-1.43 -2.14,-1.91 -4.31,1.21 -2.96,3.69 -9.14,0 4.88,-4.86 4.86,-3.59 7.74,-4.16 -1.66,1.03 1.64,1.84 -5.39,0.35l-3.59 0.64c-4.55,-7.03 -33.59,-50.1 -34.51,-56.2 -0.62,-4.15 2.65,-8.18 6.34,-12.39 3.23,1.51 52.56,42.68 55.88,46.72 -1.84,2.91 -0.83,1.84 -4.04,4.73 -1.61,1.46 -2.76,2.12 -4.26,3.28 5.47,-3.09 4.98,-5.35 11.43,-6.68 1.06,1.22 0.74,0.9 1.62,2.9l0.51 1.38c0.72,2.22 1.08,2.95 -0.53,7.9l-6.74 1.42zm-53.87 -66.32c-3.52,3.16 4.38,2.69 -4.16,2.69l0.78 -0.16c0.03,0.03 0.31,0.2 0.34,0.25 1.68,3.35 -1.58,8.34 -10.85,9.65 1.39,-4.98 -1.99,-4.57 2.14,-3.81l-2.32 0.56c0.06,3.45 0.67,1.17 -1.52,3.82l-4.02 3.36 0.15 -0.01c0.89,3.04 -0.41,0.58 2.06,2.24 0.64,0.43 1.77,1.29 1.96,0.92 0.16,-0.32 0.76,0.26 1.12,0.44 -1.79,3.47 -1.35,3.65 -4.21,5.97 2.79,-1.45 2.05,-1.45 0.92,1.31 2.48,-2.17 1.45,-1.54 5.11,-2.42 3.46,9.44 12.49,23.18 17.49,32.71 6.16,11.75 12.62,20.62 17.33,32.82 2.59,1.56 9.33,15.24 11.33,19.2 5.14,10.23 7.78,10.77 5.36,26.27 4.44,7.92 2.54,16.19 2.73,26.84 -15.6,2.91 -18.73,-0.09 -13.81,14.82l0.89 3.3c6.28,-2.31 8.41,-5.97 13.92,-11.48 3.35,-3.36 9.54,-8.53 11.47,-12.17 3.56,6.72 6.17,5.92 9.72,6.96 -1.07,-7.61 0.39,-3.02 -2.37,-7.39 -1.12,-1.77 -3.1,-2.74 -4.58,-3.73 2.1,2.89 1.03,1.54 3.19,-0.99l8.28 -8.41c20.62,-20.63 13.93,-18.48 31.65,-18.31 5.38,0.05 7.65,-0.05 10.46,-2.45l-6.72 -1.04 -0.69 0.58 -16.98 0.27 0.11 -15.57 -7.97 -6.49c-0.11,-0.61 -0.26,-0.81 -0.47,-1.17 -10.78,10.24 -3,14.1 -6.95,23.19l-4.17 0.24c-0.19,-0.33 -0.34,-0.81 -0.4,-1.06 -0.06,-0.25 -0.29,-0.76 -0.35,-1.08l0.14 -5.65c1.93,-10.67 9.31,-49.21 12.13,-53.37l18.31 -1.15c2.63,-17.6 -15.29,-3.95 -32.37,-9.07 -1.53,-0.46 -20.47,-14.13 -23.12,-19.42 -8.11,-3.36 -12.85,-9.55 -19.25,-14.95 -5.23,-4.41 -12.39,-11.15 -17.77,-14.14l1.11 -3.77c-0.78,-2.59 1.79,-1.87 -3.09,-2.07 -1.19,2.28 1.76,-0.5 -2.06,2.92zm519.99 41.52c-0.78,5.25 0.89,4.54 -5.45,4.18 2.19,-5.51 0.59,-3.69 5.45,-4.18zm90.22 -11.2c-1.54,-5.91 -3.44,-5.07 -4.49,-10.83 6.39,1.09 6.66,5.32 6.66,11.84 -0.73,-2.01 -0.1,-0.08 -2.17,-1.01zm-16.73 -36.05c4.05,1.7 8.77,12.07 10.76,16.76 -7.43,0.77 -5.47,-0.57 -8.87,-6.05 -2.42,-3.9 -4.9,-5.86 -1.89,-10.71zm4.84 -0.29c5.05,0.2 7.09,-3.59 9.29,16.41l-5.63 -7.86c-2.02,-3.47 -2.4,-4.09 -3.66,-8.55zm-66.44 48.47c2.14,-7.73 18.55,-28.18 23.67,-35.98 4.5,-6.84 19.08,-28.82 24.08,-32.73 3.89,12.89 5.8,13.98 -0.48,17.83 1.8,3.87 3.65,2.7 1.11,8.82l-27.09 60.78 -6.79 -4.39c-1.74,-1.68 -2.98,-3.07 -4.74,-4.95 -3.67,-3.91 -5.93,-6.11 -9.76,-9.38zm66.51 -64.15c4.08,4.03 4.84,7.44 4.8,14.21l-7.89 -4.07 3.09 -10.14zm-11.07 4.07c0.81,3.28 -2.47,4 -2.66,4.17l-1.41 -8.07c0.8,0.57 3.35,0.99 4.07,3.9zm1.65 -0.14c-1.96,-4.37 -2.01,-3.95 -5.62,-6.78l2.88 -3.81c0.1,-0.47 0.37,-0.56 0.57,-0.9l10.38 2.2c-1.29,6.3 -2.21,6.73 -8.21,9.29zm-15.09 -16.18c6.5,1.21 -1.63,9.27 -3.59,12.05 -3.25,4.6 -5.38,7.93 -8.58,12.26 -6.02,8.15 -11.77,18.64 -17.62,24.84 -3.28,5.32 -5.91,9.07 -9.25,13.68 -6.17,8.54 -1.77,5.54 -11.64,9.64 -0.96,3.82 2.7,1.96 -3.21,3l-2.95 -3.99c-4.07,2.77 -7.19,7.33 -11.03,11.19 -5.39,5.4 -4.36,5.67 -13.15,7.76l0.23 8.08 18.39 0.43c3.17,5.4 1.6,11.02 4.75,15.06l0.87 -5.01c11.48,-5.81 8.8,2.64 15.26,-2.79 1.56,-3.76 -2.71,-2.83 2.67,-3.24l0.05 -7.52 -6.05 -0.05c-0.98,-8.99 -1.96,-7.54 -4.79,-10.05 5.08,-3.89 2.39,-2.36 6.63,1.14 -4.17,-4.63 -4.22,-3.55 -1.31,-9.62 6.15,1.12 8.88,5.49 12.6,9.76 8.13,9.33 8.85,5.22 9.71,12.25l-0.49 3.17c-3.97,3.71 3.63,0.97 -3.47,2.99 0.65,2.69 -6.1,15.91 -7.53,22.04 3.94,-2.68 2.31,-2.64 5.93,-2.82 10.41,-0.5 4.21,12.82 3.69,18.43 0.25,-0.29 0.58,-1.13 0.68,-0.91 0.1,0.22 0.52,-0.69 0.65,-0.92 1.79,-3.06 0.37,-0.23 1.57,-2.93 1.87,-4.23 3.31,-12.19 5.72,-15.02l31.48 -85.57c0.08,-0.46 0.39,-0.54 0.6,-0.8l17.53 25.68c0.15,0.18 0.52,0.57 0.64,0.72l1.34 1.34c2.39,8.9 1.04,1.79 0.87,11.94l4.37 0.52 8.6 0.29c0.31,-6.72 1.14,-3.74 -2,-7.54 -1.31,-1.57 -2.13,-1.83 -2.83,-2.81 -2.26,-3.18 -1.04,0.3 -1.53,-3.86 -5.93,-4.75 -11.33,-28.49 -11.23,-37.35 -2.95,-3.17 -4.59,-13.24 -6.04,-19.23l-4.87 -0.85 -2.84 -1.66c-7.78,-1.54 -3.57,-0.27 -5.67,-3.24 -2.86,-2.07 -1.26,-0.54 -3.25,-1.62 -10.91,-5.93 -8.99,-3.64 -9.91,1.14zm-677.28 98.67l-0.07 25.21 -3.93 70.43c-4.62,0.44 -8.02,1.2 -11.34,2.4 4.29,1.75 6.76,-3.4 15.89,1.48l3.15 -2.7 1.02 -22.08 1.76 -15.47c5.45,-2.5 3.97,-0.74 6.14,-3.03l-7.13 0.54c0.76,-5.17 1.86,-27.64 1.42,-32.33l1.87 -32.29 -7.71 -0.96 -1.07 8.8zm50.38 -10.7l6.85 0.7 0.55 -0.32c5.09,-1.63 5.8,-9.29 19.98,-20.31 3.97,-3.08 4.07,-2.11 8.03,-6.86 1.13,-2.76 1.87,-2.76 -0.92,-1.31 -3.86,2.87 -3.21,2.73 -7.18,4.44 5.4,-5.09 4.58,-7.22 11.39,-10.41 -0.36,-0.18 -0.96,-0.76 -1.12,-0.44 -0.19,0.37 -1.32,-0.49 -1.96,-0.92 -2.47,-1.66 -1.17,0.8 -2.06,-2.24 -6.26,4.53 -5.72,6.87 -12.45,10.32 1.35,-4.12 8.52,-18.59 10.79,-21.42l1.51 11.11 4.02 -3.36c2.19,-2.65 1.58,-0.37 1.52,-3.82l-1.97 -4.7c-0.17,-0.39 -0.39,-0.91 -0.54,-1.24 -0.15,-0.34 -0.39,-0.83 -0.57,-1.25l10.09 0.61 -4.69 6.02c-4.13,-0.76 -0.75,-1.17 -2.14,3.81 9.27,-1.31 12.53,-6.3 10.85,-9.65 -0.03,-0.05 -0.31,-0.22 -0.34,-0.25l-0.78 0.16c8.54,0 0.64,0.47 4.16,-2.69l-20.83 -0.8c-8.77,11.87 -12.02,23.85 -16.51,31.58 -1.93,3.33 -2.91,3.4 -4.2,5.49 -3.3,5.34 1.85,8.39 -7.44,10.1 1.38,-2.28 0.65,-1.02 2.04,-2.89 1.52,-2.05 1.15,-1.22 2.59,-3.36 -5.45,4.1 -8.72,6.32 -8.67,13.9zm93.71 24.32c-9.58,1.84 -5.12,6.45 -1.51,11.73 3.51,5.13 5.45,9.61 9.46,12.94l8.12 -26.5c-0.44,-3.78 0.79,-1.32 -1.16,-3 -5.03,3.16 -8.4,3.63 -14.91,4.83zm605.54 93.59c1.69,-2.6 1.01,-1.21 3.08,-3.42l8.42 -10.84 1.29 14.35 -12.79 -0.09zm-9.19 -0.5c3.04,3.71 0.14,1.63 5.55,1.77l21.37 0.45c0.15,5.34 -0.41,5.5 1.73,9.64l-0.21 -10 -5.44 -2.25c-0.04,-4.94 0.58,-5.35 1.1,-9.73 1.23,-10.38 -1.6,-8.55 -3.65,-9.74 -1.73,5.84 -0.82,2.17 -4.51,5.24 -3.56,2.96 -1.55,2.57 -4.47,5.26 -4.06,3.73 -4.86,0.93 -11.47,9.36zm-731.54 -211.55c0.21,1.97 -0.49,0.07 0.5,2.28 0.05,0.11 1.52,2.69 1.71,2.97l-1.07 6c2.75,20.16 -1.8,6.25 3.02,12.08 2.99,-3.6 3.29,6.34 2.67,-15.3 -0.39,-0.22 -1.05,-1.07 -1.17,-0.68l0.28 -6.09 5.41 0.28c-1.44,-1.86 -2.98,-4.03 -4.07,-6.57l2.49 -0.26 1 -5.37 -9.3 0.26c0.08,1.69 0.9,5.03 0.91,5.14 0.25,8.69 0.8,2.72 -2.38,5.26zm629.58 101.61l-0.05 7.52 12.88 2.07c7.1,-2.02 -0.5,0.72 3.47,-2.99l0.49 -3.17c-11.13,-0.94 -11.27,-5.42 -19.16,-10.23 3.54,9.09 2.08,2.64 5.85,8.15l-3.48 -1.35zm-330.58 98.34c2.41,-3.09 -0.34,3.23 2.88,-4.38 0.47,-1.11 0.76,-2.75 1.2,-4.41 0.83,-3.18 1.58,-5.63 2.68,-8.91l-6.89 -0.91c-1.79,6.74 -0.17,13.29 0.13,18.61zm-347.47 -146.23c5.77,-1.63 4.09,-1.86 8.16,-4.11 -0.1,2.26 0.25,1.11 -0.42,2.94l-0.89 1.92c-0.11,0.22 -0.41,0.64 -0.6,0.98l4.02 -1.23c0.47,-10.51 -1.34,-0.89 -3.91,-10.86 -7.23,-0.28 -6.25,2.54 -6.36,10.36zm381.29 147.5c3.1,1.42 4.84,1.46 9.44,1.72 0.64,-5.45 1.6,-8.06 -1.73,-12.09 0.3,7.3 0.58,3.95 -1.29,6.61 -0.18,0.25 -0.49,0.66 -0.65,0.92 -2.28,3.56 -0.37,-0.16 -1.4,3.47 -1.51,-1.01 -1.09,-0.8 -2.64,-1.12l-1.73 0.49zm-134.48 -39.34l6.72 1.04 -1.15 -6.45c-2.49,2.08 -2.76,2.84 -5.57,5.41zm-609.88 -287.11c0,2.98 0.55,7.03 1.64,12.15 1.09,5.11 1.64,8.88 1.64,11.29 0,2.3 -0.29,4.42 -0.87,6.38l3.28 1.55c-0.92,0.8 -1.38,1.66 -1.38,2.58 0,0.81 0.72,2.16 2.15,4.06 1.44,1.89 1.99,3.53 1.64,4.91l-0.86 -1.55c0,1.72 0.37,3.79 1.12,6.2 0.75,2.42 1.12,4.2 1.12,5.35 0,1.49 -0.46,3.1 -1.38,4.82 1.61,0.81 2.7,3.34 3.28,7.59 0.57,3.79 1.43,5.69 2.58,5.69 1.04,0 2.65,-1.04 4.83,-3.11l0 -3.44 0.86 1.55c-0.46,-1.27 -0.69,-2.47 -0.69,-3.62 0,-2.88 1.64,-6.58 4.91,-11.12 3.28,-4.54 4.92,-7.9 4.92,-10.09 0,-2.29 -1.09,-4.48 -3.28,-6.55 0.58,0.35 1.09,0.52 1.55,0.52 1.5,0 3.39,-2.58 5.69,-7.76 -1.03,-0.11 -1.55,-0.69 -1.55,-1.72 0,-1.72 0,-2.59 0,-2.59l1.55 1.04 1.9 -5.86 1.38 1.55 1.03 -13.96c0.35,0.57 0.75,0.86 1.21,0.86 0,0 1.21,-0.81 3.62,-2.42 -1.27,-1.03 -1.78,-2.24 -1.55,-3.62 0.46,-1.83 0.46,-3.21 0,-4.13l-4.31 -3.79c3.1,-1.27 5.8,-1.9 8.1,-1.9 0.46,0 1.03,0.06 1.72,0.17 0.81,0 1.38,0 1.73,0 2.53,0 5.57,-0.86 9.13,-2.58 4.03,0.69 6.04,2.58 6.04,5.68 0,1.04 -0.32,2.85 -0.95,5.43 -0.63,2.59 -0.95,4.57 -0.95,5.95 0,1.38 0.23,2.59 0.69,3.62 -4.83,12.3 -9.19,28.16 -13.1,47.58 -6.55,31.72 -9.88,47.81 -10,48.26l-1.38 -0.86c0.35,1.27 0.52,2.59 0.52,3.97 0,2.53 -0.72,5.23 -2.16,8.1 -1.43,2.87 -2.84,5.75 -4.22,8.62 -1.72,-1.5 -4.02,-2.24 -6.89,-2.24 -2.3,0 -5.95,0.63 -10.95,1.89 -5,1.27 -8.59,1.9 -10.77,1.9 -6.55,0 -10,-4.71 -10.35,-14.14 -1.38,-3.79 -2.47,-10.91 -3.27,-21.37 -0.69,-9.08 -2.36,-15.92 -5,-20.51 0.57,0.92 1.38,1.38 2.41,1.38 0.23,-0.35 0.35,-0.81 0.35,-1.38 0,-1.73 -0.58,-3.34 -1.73,-4.83 -1.15,-1.49 -2.58,-2.13 -4.31,-1.9l4.31 -3.44c-5.86,-9.89 -10.05,-24.14 -12.58,-42.75 -0.12,0.17 -0.17,0.31 -0.17,0.48 0,0.26 0.34,0.38 1.03,0.38 1.04,0 2.36,-0.35 3.97,-1.04 1.61,-0.66 2.41,-1.29 2.41,-1.86 0,-0.66 -1.61,-0.89 -4.83,-0.66 -6.78,-7.5 -10.17,-13.62 -10.17,-18.39 0,-1.27 0.26,-2.47 0.78,-3.68 0.52,-1.18 1.46,-1.78 2.84,-1.78 0.46,0 1.07,0.09 1.81,0.26 0.75,0.17 1.24,0.26 1.47,0.26 0.8,0 1.2,-0.46 1.2,-1.38 0,-0.46 -0.11,-0.98 -0.34,-1.55 5.4,0.46 10.8,0.86 16.2,1.2 6.32,0.92 10.12,4.37 11.38,10.35zm118.48 -109.17c0.8,-0.12 8.22,-0.12 22.24,0 9.07,0.11 16.37,-0.69 21.89,-2.41 0.92,1.83 2.47,2.93 4.65,3.27 0.23,0 2.13,0 5.69,0l0 21.89c-4.83,1.73 -12.18,2.53 -22.06,2.42 -15.17,-0.12 -22.99,-0.18 -23.45,-0.18 -0.57,5.06 -0.86,9.43 -0.86,13.11 0,5.28 0.63,9.65 1.9,13.1 3.9,1.03 8.85,1.2 14.82,0.51 8.51,-0.92 13.39,-1.38 14.65,-1.38 3.8,0 7.24,0.58 10.35,1.73 0.92,3.1 1.38,6.49 1.38,10.17 0,7.12 0,10.69 0,10.69 -2.76,3.33 -7.24,5 -13.45,5 -2.64,0 -6.58,-0.38 -11.81,-1.13 -5.23,-0.74 -8.82,-1.12 -10.77,-1.12 -4.48,0 -7.3,1.27 -8.45,3.8 -1.38,3.21 -0.63,8.62 2.24,16.2 -1.61,0.69 -2.41,1.55 -2.41,2.59 0,0.46 0.26,1.29 0.77,2.5 0.52,1.2 0.78,2.15 0.78,2.84 0,0.69 -0.17,1.38 -0.52,2.07 3.8,0.8 8.51,1.2 14.14,1.2 1.15,0 2.93,0 5.34,0 2.3,0 4.02,0 5.17,0 9.2,0 16.61,1.21 22.24,3.65 -0.11,1.96 0.23,4.54 1.03,7.73 0.81,3.16 1.21,5.4 1.21,6.67 0,2.78 -1.21,5.14 -3.62,7.12 -2.76,-0.69 -5.51,-1.03 -8.27,-1.03 -6.55,0 -12.47,1.49 -17.76,4.48 -1.49,-1.61 -3.16,-2.41 -5,-2.41 -0.57,0 -1.43,0.11 -2.58,0.34 -1.15,0.23 -2.01,0.35 -2.59,0.35 -1.72,0 -3.27,-0.58 -4.65,-1.73 -1.96,0.69 -4.2,1.04 -6.73,1.04 -1.26,0 -3.18,-0.18 -5.77,-0.52 -2.59,-0.35 -4.51,-0.52 -5.77,-0.52 -2.53,0 -4.77,0.35 -6.73,1.04 -1.72,-1.04 -3.33,-1.99 -4.82,-2.85 -1.5,-0.86 -2.59,-2.27 -3.28,-4.22 1.61,-20.34 1.61,-37.69 0,-52.06l1.38 0.86c0.46,-3.1 0.69,-6.32 0.69,-9.65 0,-5.4 -0.81,-13.36 -2.41,-23.88 -1.61,-10.51 -2.42,-18.47 -2.42,-23.87 0,-3.79 0.29,-7.41 0.86,-10.86 2.88,-0.35 4.72,-1.26 5.52,-2.76 0.69,-2.07 1.38,-4.14 2.07,-6.2 3.68,2.06 7.07,3.1 10.17,3.1 1.61,0 3.27,-0.23 5,-0.69zm195.29 39.76c9.54,-6.67 14.31,-17.47 14.31,-32.41 0,-3.79 -0.4,-7.35 -1.2,-10.69 -2.65,-4.82 -5.35,-9.68 -8.11,-14.56 -2.75,-4.89 -6.66,-8.25 -11.72,-10.09 -1.61,0.46 -4.65,0.52 -9.13,0.17 -4.6,-0.34 -7.82,-0.34 -9.66,0 -3.1,0.58 -4.94,2.13 -5.51,4.66l-5.69 -5.69c-2.3,1.49 -3.45,2.24 -3.45,2.24 -0.57,0 -1.09,-0.46 -1.55,-1.38 -0.58,1.38 -1.44,2.07 -2.59,2.07 -0.92,0 -1.98,-0.46 -3.19,-1.38 -1.2,-0.92 -2.32,-1.78 -3.36,-2.58 -2.3,1.6 -5.97,2.35 -11.03,2.24 -5.06,-0.12 -8.33,0.28 -9.83,1.2 -2.29,1.04 -3.44,2.65 -3.44,4.83 0,1.15 0.4,2.87 1.2,5.17 0.81,2.3 1.21,3.91 1.21,4.83 0,1.72 -0.92,2.87 -2.76,3.45 1.15,3.67 1.27,11.32 0.35,22.92 -0.69,9.66 0.8,16.72 4.48,21.21 -3.22,1.49 -4.02,3.84 -2.41,7.06 1.6,3.22 1.26,5.52 -1.04,6.9l-1.38 -0.86c1.04,3.21 1.55,7.7 1.55,13.44 0,2.07 -0.08,5.35 -0.25,9.83 -0.18,4.48 -0.26,7.93 -0.26,10.34 0,5.98 0.46,11.03 1.38,15.17 1.6,7.01 7.58,10.51 17.92,10.51 1.84,0 3.62,-0.11 5.35,-0.34 4.02,-4.94 6.03,-11.72 6.03,-20.34 0,-2.07 -0.14,-5.14 -0.43,-9.22 -0.29,-4.08 -0.43,-7.16 -0.43,-9.23 0,-10.45 3.27,-18.33 9.82,-23.61 0.46,0.23 1.27,1.03 2.42,2.41 1.15,1.38 2.07,2.07 2.76,2.07 0.68,0 1.37,-0.34 2.06,-1.03 4.95,1.38 8.22,3.9 9.83,7.58 1.03,2.3 1.55,5.98 1.55,11.03 0.12,5.52 0.52,9.31 1.21,11.38l-3.45 -1.03c0.23,0.69 1.03,1.89 2.41,3.62 1.38,1.72 2.07,3.1 2.07,4.13 0,0.81 -0.34,1.61 -1.03,2.42l-1.04 0c1.96,2.18 2.24,4.91 0.87,8.18 -1.38,3.28 -0.87,6.01 1.55,8.19 2.75,2.53 7.41,3.79 13.96,3.79 1.61,0 4.48,0 8.62,0 3.22,-0.45 5.4,-0.57 6.55,-0.34 -1.72,-4.25 -2.59,-10.29 -2.59,-18.1 0,-1.61 0.06,-4.19 0.18,-7.76 0,-3.44 0,-6.03 0,-7.75 0,-16.44 -4.37,-27.99 -13.11,-34.65zm-19.3 -10.69c-1.98,-0.69 -5.03,-0.8 -9.11,-0.34 -4.42,0.45 -7.33,0.57 -8.73,0.34 -2.93,-0.57 -4.86,-2.47 -5.78,-5.69 0.81,-1.61 1.21,-3.45 1.21,-5.51 0,-1.61 -0.2,-4.03 -0.6,-7.24 -0.41,-3.22 -0.61,-5.64 -0.61,-7.24 0,-3.34 0.75,-6.04 2.21,-8.11 1.61,0.81 4.86,1.21 9.77,1.21 4.23,0 7.24,0.86 9.05,2.59 0.69,0.69 1.04,1.6 1.04,2.75 0,0.35 0,0.75 0,1.21 0,0.46 0,0.81 0,1.03 0,1.38 1.15,2.02 3.44,1.9 -0.8,2.41 -1.14,5.69 -1.03,9.83 0.12,5.28 0.12,8.62 0,9.99 -0.23,1.38 -0.52,2.48 -0.86,3.28zm501.45 -31.65c9.54,-6.67 14.31,-17.47 14.31,-32.41 0,-3.79 -0.4,-7.35 -1.2,-10.69 -2.65,-4.82 -5.35,-9.68 -8.11,-14.56 -2.75,-4.89 -6.66,-8.25 -11.72,-10.09 -1.61,0.46 -4.65,0.52 -9.13,0.17 -4.6,-0.34 -7.82,-0.34 -9.66,0 -3.1,0.58 -4.94,2.13 -5.51,4.66l-5.69 -5.69c-2.3,1.49 -3.45,2.24 -3.45,2.24 -0.57,0 -1.09,-0.46 -1.55,-1.38 -0.58,1.38 -1.44,2.07 -2.59,2.07 -0.92,0 -1.98,-0.46 -3.19,-1.38 -1.2,-0.92 -2.32,-1.78 -3.36,-2.58 -2.3,1.6 -5.97,2.35 -11.03,2.24 -5.06,-0.12 -8.33,0.28 -9.83,1.2 -2.29,1.04 -3.44,2.65 -3.44,4.83 0,1.15 0.4,2.87 1.2,5.17 0.81,2.3 1.21,3.91 1.21,4.83 0,1.72 -0.92,2.87 -2.76,3.45 1.15,3.67 1.27,11.32 0.35,22.92 -0.69,9.66 0.8,16.72 4.48,21.21 -3.22,1.49 -4.02,3.84 -2.41,7.06 1.6,3.22 1.26,5.52 -1.04,6.9l-1.38 -0.86c1.04,3.21 1.55,7.7 1.55,13.44 0,2.07 -0.08,5.35 -0.25,9.83 -0.18,4.48 -0.26,7.93 -0.26,10.34 0,5.98 0.46,11.03 1.38,15.17 1.6,7.01 7.58,10.51 17.92,10.51 1.84,0 3.62,-0.11 5.35,-0.34 4.02,-4.94 6.03,-11.72 6.03,-20.34 0,-2.07 -0.14,-5.14 -0.43,-9.22 -0.29,-4.08 -0.43,-7.16 -0.43,-9.23 0,-10.45 3.27,-18.33 9.82,-23.61 0.46,0.23 1.27,1.03 2.42,2.41 1.15,1.38 2.07,2.07 2.76,2.07 0.68,0 1.37,-0.34 2.06,-1.03 4.95,1.38 8.22,3.9 9.83,7.58 1.03,2.3 1.55,5.98 1.55,11.03 0.12,5.52 0.52,9.31 1.21,11.38l-3.45 -1.03c0.23,0.69 1.03,1.89 2.41,3.62 1.38,1.72 2.07,3.1 2.07,4.13 0,0.81 -0.34,1.61 -1.03,2.42l-1.04 0c1.96,2.18 2.24,4.91 0.87,8.18 -1.38,3.28 -0.87,6.01 1.55,8.19 2.75,2.53 7.41,3.79 13.96,3.79 1.61,0 4.48,0 8.62,0 3.22,-0.45 5.4,-0.57 6.55,-0.34 -1.72,-4.25 -2.59,-10.29 -2.59,-18.1 0,-1.61 0.06,-4.19 0.18,-7.76 0,-3.44 0,-6.03 0,-7.75 0,-16.44 -4.37,-27.99 -13.11,-34.65zm-19.3 -10.69c-1.98,-0.69 -5.03,-0.8 -9.11,-0.34 -4.42,0.45 -7.33,0.57 -8.73,0.34 -2.93,-0.57 -4.86,-2.47 -5.78,-5.69 0.81,-1.61 1.21,-3.45 1.21,-5.51 0,-1.61 -0.2,-4.03 -0.6,-7.24 -0.41,-3.22 -0.61,-5.64 -0.61,-7.24 0,-3.34 0.75,-6.04 2.21,-8.11 1.61,0.81 4.86,1.21 9.77,1.21 4.23,0 7.24,0.86 9.05,2.59 0.69,0.69 1.04,1.6 1.04,2.75 0,0.35 0,0.75 0,1.21 0,0.46 0,0.81 0,1.03 0,1.38 1.15,2.02 3.44,1.9 -0.8,2.41 -1.14,5.69 -1.03,9.83 0.12,5.28 0.12,8.62 0,9.99 -0.23,1.38 -0.52,2.48 -0.86,3.28zm203.8 4.86l3.45 10.69c0,2.3 -0.29,5.74 -0.86,10.34 -0.58,4.6 -0.86,7.99 -0.86,10.17 0,3.68 0.57,6.9 1.72,9.65l-1.72 -1.03c-0.46,5.86 0.46,12.53 2.75,20 -2.52,9.76 -3.79,17.18 -3.79,22.23 0,3.57 0.46,7.07 1.38,10.52l1.38 -1.04c0.12,2.65 -0.32,5.58 -1.29,8.8 -0.98,3.21 -1.47,5.8 -1.47,7.75 0,1.38 0,2.88 0,4.48 -1.61,1.96 -3.16,3.85 -4.62,5.69 -1.84,2.42 -2.59,4.37 -2.24,5.86 -3.22,2.76 -6.47,5.52 -9.8,8.28 -3.88,3.22 -6.92,4.71 -9.08,4.48 -6.87,1.15 -13.04,1.72 -18.56,1.72 -11.89,0 -21.58,-2.87 -28.99,-8.62l-10.66 -14.99 1.38 0c-0.63,-0.69 -1.06,-3.22 -1.32,-7.59 -0.11,-2.64 -1.06,-4.54 -2.81,-5.69 1.14,-1.26 1.72,-3.04 1.72,-5.34 0,-1.38 -0.29,-3.59 -0.86,-6.64 -0.58,-3.04 -0.86,-5.25 -0.86,-6.63 0,-3.57 1.72,-5.92 5.17,-7.07l-3.45 -2.07c1.61,0 2.76,-0.46 3.45,-1.38 -1.5,-0.46 -3.08,-1.87 -4.74,-4.22 -1.67,-2.36 -2.85,-4.86 -3.54,-7.5l1.38 1.38c0.58,-6.21 1.09,-12.47 1.55,-18.79 0.69,-7.35 2.13,-13.27 4.31,-17.76 -1.61,-0.45 -2.41,-1.14 -2.41,-2.06 0,-0.35 0.2,-0.95 0.6,-1.81 0.4,-0.87 0.61,-1.53 0.61,-1.99 0,-0.92 -0.98,-1.72 -2.93,-2.41l3.82 -18.44 25.48 3.44c1.03,8.51 1.55,17.47 1.55,26.89 0,5.98 -0.29,14.97 -0.86,26.98 -0.58,12.01 -0.86,21.41 -0.86,28.19 0,4.36 0.05,8.67 0.17,12.92 0.34,0.58 1.26,3.74 2.73,9.49 1.03,3.9 2.87,6.89 5.49,8.96 7.29,0.8 11.69,0 13.18,-2.41 3.08,-0.81 4.63,-3.11 4.63,-6.9 0,-0.8 0,-1.55 0,-2.24 0.69,-0.23 1.49,0.09 2.41,0.95 0.92,0.86 1.55,1.29 1.9,1.29 0.57,0 1.09,-0.46 1.55,-1.38 0.23,-1.26 -0.26,-2.67 -1.47,-4.22 -1.2,-1.55 -1.86,-2.73 -1.98,-3.54l6.9 1.9c-0.92,-0.69 -1.38,-1.72 -1.38,-3.1 0,-0.46 0.11,-1.29 0.34,-2.5 0.23,-1.21 0.35,-2.1 0.35,-2.67 0,-2.88 -1.73,-4.66 -5.17,-5.35 1.95,-1.95 2.93,-4.54 2.93,-7.75 0,-3.22 -0.98,-5.81 -2.93,-7.76l1.46 1.38c0.98,-0.58 1.47,-1.32 1.47,-2.24 0,-0.46 -0.2,-1.12 -0.61,-1.99 -0.4,-0.86 -0.6,-1.4 -0.6,-1.63 0,-0.92 1.15,-1.38 3.45,-1.38 -1.21,-1.04 -2.53,-2.16 -3.97,-3.36 -1.43,-1.21 -2.15,-2.68 -2.15,-4.4 -1.67,-5.52 -2.5,-12.53 -2.5,-21.03 0,-9.77 1.15,-21.95 3.45,-36.54 2.41,0.8 5.28,1.2 8.62,1.2 1.49,0 3.7,-0.11 6.63,-0.34 2.93,-0.23 5.15,-0.35 6.64,-0.35 1.95,0 3.73,0.18 5.34,0.52zm155.14 56.24c2.18,1.15 3.51,1.89 3.97,2.24 2.41,1.49 3.79,3.16 4.13,5 -0.57,7.47 -2.99,15.97 -7.24,25.51 -0.69,1.84 -4.36,9.36 -11.03,22.58 -4.48,3.1 -8.22,8.91 -11.2,17.41 -2.99,8.5 -5.52,13.62 -7.59,15.34l-1.03 -1.38c0.46,1.15 0.69,2.24 0.69,3.28 0,2.76 -1.87,5.86 -5.61,9.31 -3.73,3.44 -5.6,5.92 -5.6,7.41 0,2.07 1.9,4.25 5.69,6.55 10.46,-2.18 17.93,-3.28 22.41,-3.28 5.17,0 9.77,0.75 13.79,2.25 0.46,0.23 1.32,0.57 2.59,1.03 0.8,0.23 1.46,0.6 1.98,1.12 0.52,0.52 0.89,1.41 1.12,2.67 0.11,2.88 0.17,5.69 0.17,8.45 -0.11,3.45 -0.98,6.72 -2.58,9.82 -12.99,1.73 -26.03,2.59 -39.13,2.59 -13.22,0 -26.32,-0.86 -39.31,-2.59 0.12,-2.29 -0.46,-5.83 -1.72,-10.6 -1.27,-4.77 -1.9,-8.19 -1.9,-10.25 0,-2.76 0.75,-5.12 2.24,-7.07 8.85,-7.47 13.51,-15.17 13.97,-23.1l1.38 1.38c-0.12,-2.76 1.37,-6.26 4.48,-10.52 3.1,-4.25 4.65,-7.64 4.65,-10.17 0.46,-0.34 0.92,-0.51 1.38,-0.51 0.8,0 1.7,0.86 2.67,2.58 0.98,1.73 1.75,2.59 2.33,2.59 0.8,0 1.72,-0.92 2.76,-2.76 -3.45,-0.58 -5.17,-1.9 -5.17,-3.97 0,-1.26 1.2,-3.79 3.62,-7.58 2.41,-3.79 3.62,-6.78 3.62,-8.96 0,-1.27 -0.35,-2.42 -1.04,-3.45 0.92,0.23 1.67,-0.12 2.24,-1.04 0.58,-0.92 0.92,-1.37 1.04,-1.37 0.34,0 0.86,0.45 1.55,1.37 2.41,-1.6 3.62,-4.13 3.62,-7.58 0,-0.57 -0.06,-1.9 -0.17,-3.97 -0.12,-1.6 -0.18,-2.87 -0.18,-3.79 -1.72,-0.69 -3.39,-1.03 -5,-1.03 -2.64,0 -5.11,0.8 -7.41,2.41 -1.95,-1.26 -4.36,-1.89 -7.24,-1.89 -1.26,0 -3.07,0.14 -5.43,0.43 -2.35,0.28 -4.05,0.43 -5.08,0.43 -4.6,0 -7.53,-2.36 -8.79,-7.07 -0.69,-2.41 -1.04,-5 -1.04,-7.76 0,-5.63 1.44,-9.65 4.31,-12.06 3.79,0 11,0.4 21.63,1.2 10.63,0.81 18.82,1.21 24.57,1.21 8.96,0 16.26,-0.81 21.89,-2.41zm-680.35 -121.47c-0.46,0.8 -0.92,1.21 -1.38,1.21 -0.46,0 -1.06,-0.61 -1.81,-1.81 -0.74,-1.21 -1.12,-1.81 -1.12,-1.81 -4.14,0.34 -8.22,0.63 -12.24,0.86 -4.82,0.23 -8.56,-0.06 -11.2,-0.86 -2.99,-0.12 -5.17,1.09 -6.55,3.62 -0.58,1.03 -1.21,3.33 -1.9,6.89 -0.57,2.53 -1.32,3.74 -2.24,3.62 -0.57,0.69 -0.86,1.44 -0.86,2.24 0,0.92 0.57,2.47 1.72,4.66 1.15,2.18 1.73,3.85 1.73,5 0,1.14 -0.41,2.24 -1.21,3.27l-3.79 -1.03c-0.35,0.8 -0.52,1.78 -0.52,2.93 0,2.64 0.63,5.05 1.9,7.24 -1.5,2.87 -3.91,5.34 -7.24,7.41 -0.81,6.66 -4.14,18.85 -10,36.54 -5.06,15.63 -7.59,28.27 -7.59,37.93 -0.92,0 -1.63,0.74 -2.15,2.24 -0.52,1.49 -0.89,2.24 -1.12,2.24 -0.35,0 -0.75,-0.35 -1.21,-1.04l-1.38 10.69c3.11,1.04 7.41,1.67 12.93,1.9 5.52,0.23 9.48,0.75 11.9,1.55 3.56,-1.03 5.91,-3.1 7.06,-6.21 0.46,-1.49 0.81,-4.65 1.04,-9.48 0.23,-4.48 0.97,-7.87 2.24,-10.17 1.15,-3.1 3.68,-4.65 7.58,-4.65 0.58,0 1.5,0 2.76,0 1.15,0.11 2.01,0.17 2.59,0.17 2.87,0 4.88,-0.75 6.03,-2.24 4.37,1.49 13.62,3.74 27.75,6.72l-4.48 3.97c-2.18,4.36 -2.99,10.23 -2.41,17.58 2.3,1.38 5.17,2.07 8.62,2.07 1.72,0 4.48,-0.2 8.27,-0.6 3.79,-0.41 6.72,-0.61 8.79,-0.61 1.61,0 3.16,0 4.66,0 -3.8,-11.6 -9.31,-33.67 -16.55,-66.19 -6.32,-28.27 -12.53,-50.22 -18.62,-65.85zm-10.17 80.5c-1.49,0.81 -2.99,1.21 -4.48,1.21 -1.84,0 -4.02,-0.63 -6.55,-1.9 -3.45,-1.72 -5.29,-2.64 -5.52,-2.76 0.92,-4.36 2.44,-10.94 4.57,-19.73 2.13,-8.8 3.65,-15.37 4.57,-19.74 0.34,0.11 0.98,0.57 1.89,1.38 0.58,0.57 1.27,0.74 2.07,0.51l1.04 -0.86c-0.58,2.53 -0.86,5.06 -0.86,7.59 0,3.56 0.66,8.3 1.98,14.22 1.32,5.92 1.98,10.37 1.98,13.36 0,2.18 -0.23,4.42 -0.69,6.72zm172.35 -119.93c0.81,-0.8 2.62,-0.92 5.43,-0.34 2.82,0.57 5.09,-0.12 6.81,-2.07l14.65 7.07c4.25,1.37 7.47,5.57 9.66,12.58 1.72,5.86 3.39,11.78 4.99,17.75l-0.86 12.76c-2.3,-0.8 -4.36,-1.21 -6.2,-1.21 -1.15,0 -2.79,0.26 -4.92,0.78 -2.12,0.52 -3.99,0.78 -5.6,0.78 -1.15,0 -2.35,-0.12 -3.62,-0.35 -3.45,-1.95 -5.8,-6.43 -7.07,-13.44 -1.26,-6.67 -3.79,-10.86 -7.58,-12.59 -3.56,0 -7.07,0 -10.52,0 -3.79,0.46 -6.78,2.36 -8.96,5.69 -0.11,5.17 -0.63,13.79 -1.55,25.86 -0.92,11.14 -1.38,19.76 -1.38,25.85 0,10 0.98,18.79 2.93,26.38 4.14,4.6 8.79,6.89 13.96,6.89 2.42,0 4.54,-0.74 6.38,-2.24 1.95,-2.41 3.45,-6.38 4.48,-11.89 1.38,-6.55 2.59,-10.92 3.62,-13.1 0.12,-1.61 2.01,-2.88 5.69,-3.79 4.94,-1.27 7.93,-2.25 8.97,-2.94 2.52,0.69 5.11,1.38 7.75,2.07 2.65,0.69 4.66,2.5 6.04,5.49 -0.35,9.4 -2.13,18.16 -5.35,26.29 -3.79,9.74 -8.85,15.83 -15.17,18.21 -1.61,2.07 -3.56,3.11 -5.86,3.11 -0.69,0 -1.75,-0.09 -3.19,-0.26 -1.43,-0.17 -2.5,-0.26 -3.19,-0.26 -1.84,0 -3.39,0.75 -4.65,2.24 -2.76,-1.15 -6.09,-1.72 -10,-1.72 -1.03,0 -2.53,0 -4.48,0 -1.95,0 -3.45,0 -4.48,0 -6.44,0 -11.49,-2.16 -15.17,-6.5 -0.58,-0.77 -1.84,-2.04 -3.79,-3.73 -1.5,-1.27 -2.25,-2.42 -2.25,-3.42 0,-0.92 0.41,-1.93 1.21,-3.07 -0.57,0.23 -1.09,0.34 -1.55,0.34 -1.03,0 -2.07,-0.75 -3.1,-2.24 -1.27,-1.95 -2.36,-3.22 -3.28,-3.79 0,-1.5 -0.43,-4.23 -1.29,-8.19 -0.86,-3.97 -1.29,-6.98 -1.29,-9.05 0,-3.45 0.92,-6.38 2.75,-8.79l-3.62 -6.73c0.23,0 1.04,0.35 2.42,1.04 0.8,-1.95 1.2,-4.31 1.2,-7.07 0,-5.51 -1.49,-9.65 -4.48,-12.41l3.28 3.45c0.23,-1.61 0.34,-3.34 0.34,-5.17 0,-2.3 -0.26,-5.72 -0.77,-10.26 -0.52,-4.54 -0.78,-7.96 -0.78,-10.26 0,-5.51 1.21,-10.22 3.62,-14.13l4.31 2.41c-0.34,-1.49 -0.52,-2.9 -0.52,-4.28 0,-3.07 0.98,-6.18 2.93,-9.25 1.84,-2.53 3.68,-5.09 5.52,-7.73 1.38,-0.32 4.6,-1.69 9.65,-4.11 4.14,-2.04 7.59,-3.07 10.35,-3.07 2.64,0 5.17,0.8 7.58,2.41z"/>
 </g>
</svg>
