<?xml version="1.0" encoding="UTF-8"?>
<!DOCTYPE svg PUBLIC "-//W3C//DTD SVG 1.1//EN" "http://www.w3.org/Graphics/SVG/1.1/DTD/svg11.dtd">
<!-- Creator: CorelDRAW 2017 -->
<svg xmlns="http://www.w3.org/2000/svg" xml:space="preserve" width="14.8166mm" height="14.8166mm" version="1.1" style="shape-rendering:geometricPrecision; text-rendering:geometricPrecision; image-rendering:optimizeQuality; fill-rule:evenodd; clip-rule:evenodd"
viewBox="0 0 1481.66 1481.66"
 xmlns:xlink="http://www.w3.org/1999/xlink">
 <defs>
  <style type="text/css">
   <![CDATA[
    .fil5 {fill:none}
    .fil2 {fill:#FEFEFE}
    .fil0 {fill:#373435}
    .fil4 {fill:#FEFEFE;fill-rule:nonzero}
    .fil1 {fill:#FEFEFE;fill-rule:nonzero}
    .fil3 {fill:#201E1E;fill-rule:nonzero}
   ]]>
  </style>
 </defs>
 <g id="Capa_x0020_1">
  <metadata id="CorelCorpID_0Corel-Layer"/>
  <g id="_2455230640656">
   <path class="fil0" d="M81.92 363.47l1325.31 14.34 -7.6 740.39 -1325.33 -14.23 7.62 -740.5zm846.85 -9.91c-6.45,-5.83 -4.55,-8.63 -8.55,-14.86l-44.25 -0.38c-4.36,7.92 -1.21,8.62 -9.71,14.95 -5.18,3.87 -10.96,6.6 -19.95,6.37 -22.1,-0.58 -23.54,-14.55 -28.05,-22.07l-44.19 -0.35c-5.19,9.4 -8.26,21.93 -29.65,21.28 -21.89,-0.67 -23.18,-13.61 -28,-22.04l-44.25 -0.33c-4.83,6.95 -6.26,21.82 -29.73,21.29 -20.45,-0.46 -23.54,-12.72 -28.04,-22.07l-44.12 -0.36c-4.96,7.03 -6.19,21.85 -29.72,21.34 -17.48,-0.38 -23.35,-10.02 -28.1,-22.11l-44.08 -0.37c-4.39,5.89 -2.26,9.66 -9.5,15.19 -16.08,12.31 -40.68,7.36 -48.41,-15.91l-44.93 -0.56c-6.5,29.23 -48.17,29.27 -56.99,-0.58l-44.61 -0.34c-4.4,12.55 -11.6,21.6 -29.05,21.34 -17.26,-0.26 -24.58,-9.58 -28.32,-22.07l-44.68 -0.37c-4.06,12.41 -11.79,21.56 -28.94,21.33 -17.17,-0.23 -24.58,-9.74 -28.34,-22.06l-33.74 -0.16c-1.04,9.44 -2.3,13.25 -8.9,18.44 -8.91,7.02 -11.44,3.89 -20.23,7.58l-0.15 24.68c8.52,4.97 25.69,5.48 25.54,23.83 -0.05,7.04 -4.17,12.71 -8.2,16 -6.92,5.65 -9.52,3.81 -17.97,7.27l-0.39 35.93c14.4,2.49 26.24,10.09 25.63,23.8 -0.61,13.56 -12.2,19.79 -26.14,22.11l-0.2 36.01c7.51,2.64 12.23,2.8 17.66,7.56 10.45,9.18 9.97,23.15 -0.7,31.93 -6.89,5.67 -10.49,3.97 -17.67,7.53l-0.34 34.77c6.16,3.71 11.56,3.06 17.43,7.96 4.33,3.61 8.23,8.59 8.2,15.87 -0.06,18.14 -17.2,19.92 -26.15,23.28l-0.36 35.97c8.24,1.9 13.13,2.83 17.99,7.41 16.22,15.25 5.16,34.77 -18.56,38.64l-0.28 35.75c9.01,4.28 25.87,6.26 25.67,23.83 -0.2,17.55 -16.26,18.74 -26.22,23.27l-0.31 35.83c34.05,6.19 34.01,40.44 -0.67,45.87l-0.11 36.07c9.09,3.53 10.66,1.79 17.63,7.61 17.62,14.7 4.76,34.61 -18.37,38.65l-0.28 35.62c10.64,6.05 25.59,6.22 25.53,23.83 -0.06,18.06 -16.52,19.38 -26.14,23.27l-0.38 27.01c19.87,2.32 28.56,8.38 30.5,24.87l31.99 0.1c9.17,-30.36 51.6,-26.87 56.79,0.84l45.37 0.46c2.41,-12.29 13.12,-21.98 29.81,-21.38 21.23,0.77 21.91,13.57 27.9,22.04l44.26 0.43c6.14,-25.52 44.02,-28.9 54.48,-6.66 5.12,10.9 -1.69,7.32 47.51,7.78 2.71,-12.33 12.82,-22.03 29.64,-21.37 21.53,0.86 21.92,13.31 27.91,22.06l44.24 0.11c4.09,-7.62 2.27,-9.86 9.59,-15.14 4.48,-3.23 11.42,-6.23 20.17,-5.93 17.95,0.61 22.34,10.28 27.74,22.01l44.64 0.49c2.93,-12.17 12.35,-21.93 29.51,-21.39 21.78,0.69 22.88,14.09 27.9,22.06l44.25 0.17c4.24,-7.17 2.56,-9.83 9.72,-15.1 4.5,-3.32 11.29,-6.25 20.03,-6.01 17.08,0.47 24.04,9.89 27.66,22.03l44.8 0.46c4.54,-12.05 10.7,-21.84 29.44,-21.39 20.16,0.48 22.66,11.35 27.9,22.05l44.25 0.19c4.65,-6.61 1.84,-8.91 9.84,-14.99 18.11,-13.74 43.25,-3.68 47.62,15.88l44.43 0.4c4.44,-6.28 6.94,-21.87 29.75,-21.32 16.95,0.4 24.51,9.96 27.93,22.04l44.22 0.37c4.37,-5.53 2.66,-9.5 9.87,-15.13 17.62,-13.75 43.56,-4.12 47.7,15.89 54.52,0.61 41.7,4.19 48.07,-7.55 11.62,-21.45 48.75,-16.21 53.94,8.66l44.22 0.41c4.56,-5.46 2.22,-8.76 10.12,-14.99 17.69,-13.97 43.12,-3.98 47.66,15.71l34.14 -0.02c1.05,-16.02 10.49,-23.48 29.04,-25.15l-0.02 -25.7c-7.92,-3.61 -10.63,-1.7 -17.61,-7.6 -9.98,-8.46 -9.22,-23.95 0.63,-32.06 6.49,-5.33 11.42,-4.04 17.79,-7.44l0.26 -34.77c-7.4,-4.39 -25.61,-5.73 -25.52,-23.83 0.09,-17.78 15.18,-19.23 26.17,-23.28l-0.03 -35.89c-9.24,-3.24 -10.41,-1.65 -17.53,-7.58 -14.26,-11.85 -10.96,-32.31 18.45,-38.47l0.21 -35.83c-8.6,-4.22 -26.8,-6 -25.42,-24.97 0.53,-7.3 4.42,-11.91 8.98,-15.24 21.33,-15.57 17.01,11.54 17.41,-42.71 -14.3,-2.22 -26.16,-10.49 -25.53,-23.92 0.67,-14.29 12.68,-19.24 26.11,-22.03l0.49 -36.18c-36.79,-8.5 -33.39,-40.4 0.41,-46l0.31 -35.69c-6.7,-3.71 -10.79,-2.31 -17.51,-7.85 -10.66,-8.78 -10.31,-23.25 0.09,-31.99 5.2,-4.36 10.18,-4.94 18.02,-6.97l0.41 -36.26c-34.36,-5.73 -35.08,-40.09 0.49,-45.85l0.21 -35.96c-9.53,-4.42 -25.54,-5.44 -25.46,-23.84 0.08,-18.14 17.74,-18.75 26.12,-23.26l0.32 -26.89c-18.76,-1.55 -28.63,-8.5 -30.25,-24.58l-32.15 -0.46c-9.12,29.17 -48.76,29.3 -57.16,-0.59l-44.81 -0.46c-4.46,12.26 -11.46,21.53 -28.69,21.4 -17.25,-0.13 -25,-9.22 -28.46,-22.07l-44.75 -0.46c-4.55,12.31 -12.27,22.17 -29.93,21.44 -21.97,-0.9 -22.23,-13.8 -28.02,-22.11l-43.92 -0.44c-4,7.86 -2.3,9.24 -9.93,15.16 -18.28,14.18 -42.55,4.09 -47.31,-15.79l-44.77 -0.44c-3.51,7.86 -3.18,10.04 -9.72,15.18 -10.42,8.18 -30.01,7.64 -39.59,-0.99z"/>
   <g>
    <path class="fil1" d="M1407.61 384.91l-1325.77 -14.42 0.16 -14.04 1325.77 14.42 6.97 7.1 -7.13 6.94zm0.16 -14.04c3.89,0.04 7.01,3.23 6.97,7.1 -0.04,3.87 -3.24,6.98 -7.13,6.94l0.16 -14.04zm-15.19 747.25l8.06 -740.31 14.1 0.16 -8.06 740.31 -7.13 6.94 -6.97 -7.1zm14.1 0.16c-0.04,3.87 -3.24,6.98 -7.13,6.94 -3.89,-0.04 -7.01,-3.23 -6.97,-7.1l14.1 0.16zm-1332.74 -21.53l1325.77 14.43 -0.16 14.04 -1325.77 -14.43 -6.97 -7.1 7.13 -6.94zm-0.16 14.04c-3.89,-0.04 -7.01,-3.23 -6.97,-7.1 0.04,-3.87 3.24,-6.98 7.13,-6.94l-0.16 14.04zm15.19 -747.24l-8.06 740.3 -14.1 -0.16 8.06 -740.3 7.13 -6.94 6.97 7.1zm-14.1 -0.16c0.04,-3.87 3.24,-6.98 7.13,-6.94 3.89,0.04 7.01,3.23 6.97,7.1l-14.1 -0.16z"/>
    <polygon id="1" class="fil2" points="81.92,363.47 1407.69,377.89 1399.63,1118.2 73.86,1103.77 "/>
   </g>
   <rect class="fil0" transform="matrix(0.123116 0.00133965 -0.00163115 0.149906 125.958 918.322)" width="10089.44" height="884.84"/>
   <path class="fil0" d="M451.99 543.24c-0.21,-0.28 -0.55,-1.02 -0.68,-0.8l-3.97 -3.88 8.39 0.89 1.73 -7.91c1.27,1.64 0.53,0.26 1.56,3.07 0.25,0.65 0.83,3.29 1.16,4.48 5.15,0.86 4.31,0.17 8.37,-0.32 -1.73,3.54 -1.59,0.53 -4.73,4.58l-1.58 0.85c0.65,5.03 1.78,4.58 2.55,7.57 -2.84,-0.55 -1.79,-1.67 -6.35,-4.55 -7.38,2.15 -2.51,3.27 -7.69,4.53 1.07,-4.2 -0.29,0.77 1.64,-3.28 1.12,-2.35 0.89,-1.8 1.53,-4.64l-1.93 -0.59zm2.78 70.19c6.3,-2.25 8.38,-5.82 17.02,-7.46l1.05 6.55c3.89,2.8 6.37,9.83 14.63,8.25 3.48,-0.67 10.95,-8.55 13.52,-10.96 8.32,-7.8 16.38,-15.87 24.79,-23.74 27.07,-25.34 17.63,-21.95 0.89,-40.04 -4.72,-5.09 -7.5,-9.17 -13.09,-11.81 -1.08,-2.88 -4.19,-5.06 -6.89,-7.51 -2.8,-2.55 -3.93,-3.91 -6.83,-7.01 -19.52,-20.89 -20.5,-18.08 -38.61,-18.25 -88.07,-0.84 -99.49,-13.51 -100.03,39.34l-0.95 85.54c-0.2,10.09 -0.94,17.34 9.34,18.58 10.96,1.33 15.12,-3.77 15.2,-13.63 0.12,-14.26 -0.94,-77.54 1.93,-82.01l3.47 0.11c2.91,4.19 -1.16,215.95 -1.41,239.11l35.11 0.38 2.32 -145.52 9.24 0.16 -1.11 145.47 35.1 0.38 0.6 -104.86c-6.54,0.46 -15.82,-5.8 -19.89,-9.81 -12.65,-12.43 -13.9,-27.66 -6.92,-44.31 4.17,-9.94 10.24,-13.34 11.52,-16.95zm36.38 -67.35c4.17,7.76 15.18,13.52 18.63,20.6 -3.56,4.84 -4.66,4.98 -8.94,9.08l-29.17 28.6 0.26 -65.15 5.1 0.25c12.25,0.86 7.1,3.36 14.12,6.62z"/>
   <path class="fil0" d="M459.38 669.55c4.32,0.91 6.18,4.12 10.86,4.71 1.96,-14.32 -1.43,-51.11 1.67,-61.05 -5.96,1.23 -13.94,15.24 -16.18,22.84 -3.41,11.58 0.22,24.56 3.65,33.5z"/>
   <path class="fil0" d="M827.48 793.26l35.05 0.38 1.79 -174.49c-16.03,-3.41 -25.95,11.77 -31.27,21.44 -6.99,12.66 -4.71,30.59 -4.86,47.47 -0.3,35.05 -0.21,70.17 -0.71,105.2z"/>
   <path class="fil0" d="M781.95 792.76l35 0.38 1.99 -131.77c0.21,-11.73 -0.01,-12.9 -4.57,-21.75 -4.33,-8.39 -16.82,-23.35 -30.28,-22.18l-2.14 175.32z"/>
   <path class="fil0" d="M843.21 566.26c-28.57,-0.31 -9.48,-0.95 -19.63,-3.28l-6.84 -1.07c-12.63,-3.56 -13.29,0.41 -21.02,-3.01 -0.31,-0.14 -0.59,-0.26 -0.88,-0.41 -0.29,-0.16 -0.57,-0.3 -0.84,-0.47 -2.72,-1.79 -1.41,-0.57 -2.58,-2.6 -2.31,-4.02 0.02,-5.08 -1.74,-8.77 -0.1,-0.21 -0.44,-0.72 -0.55,-0.89 -2.58,-4.01 5.55,1.11 -1.18,-1.49l-0.58 53.18c1.42,1.4 5.33,5.32 6.88,5.86 2.27,-3.65 2.27,-2.15 6.94,-1.08l3.41 5.81 -3.52 4.59 47.4 0.52c0.25,-0.91 0.09,-4.29 -0.03,-4.65 -0.09,-0.3 -0.25,-0.58 -0.36,-0.89l-1.81 -4.89c1.88,0.11 5.34,0.18 6.42,0.24 0.46,0.02 0.73,0.03 1.15,0.06l-2.03 -1.99c3.08,-8.19 0.66,-15.32 1.76,-18.16 1.79,-4.63 -3.99,4.43 1.45,-1.92 0.12,-0.16 0.61,-0.2 0.72,-0.63 0.11,-0.45 0.55,-0.38 0.79,-0.62 0.11,-0.24 1.03,-11.96 -0.58,-15.32l-3.02 -4.37c6.36,-4.57 8.56,2.33 6.58,-5.55l-1.31 1.05c-4.8,2.71 -4.75,1.37 -6.8,0.53 -0.23,4.01 -0.14,3.41 -1.23,6.24 -3.74,-0.52 -3.53,-0.47 -5.99,-1.16l-0.98 5.14zm21.29 41.8l0.58 -64.39c15.41,-0.07 14.28,3.1 22.07,11.05 3.16,3.21 14.72,13.37 15.72,16.24 -3.78,4.89 -36.07,35.85 -38.37,37.1zm-21.29 -41.8l0.98 -5.14c2.46,0.69 2.25,0.64 5.99,1.16 1.09,-2.83 1,-2.23 1.23,-6.24 2.05,0.84 2,2.18 6.8,-0.53l1.31 -1.05c1.98,7.88 -0.22,0.98 -6.58,5.55l3.02 4.37c1.61,3.36 0.69,15.08 0.58,15.32 -0.24,0.24 -0.68,0.17 -0.79,0.62 -0.11,0.43 -0.6,0.47 -0.72,0.63 -5.44,6.35 0.34,-2.71 -1.45,1.92 -1.1,2.84 1.32,9.97 -1.76,18.16l2.03 1.99c-0.42,-0.03 -0.69,-0.04 -1.15,-0.06 -1.08,-0.06 -4.54,-0.13 -6.42,-0.24l1.81 4.89c0.11,0.31 0.27,0.59 0.36,0.89 0.12,0.36 0.28,3.74 0.03,4.65l-47.4 -0.52 3.52 -4.59 -3.41 -5.81c-4.67,-1.07 -4.67,-2.57 -6.94,1.08 -1.55,-0.54 -5.46,-4.46 -6.88,-5.86l0.58 -53.18c6.73,2.6 -1.4,-2.52 1.18,1.49 0.11,0.17 0.45,0.68 0.55,0.89 1.76,3.69 -0.57,4.75 1.74,8.77 1.17,2.03 -0.14,0.81 2.58,2.6 0.27,0.17 0.55,0.31 0.84,0.47 0.29,0.15 0.57,0.27 0.88,0.41 7.73,3.42 8.39,-0.55 21.02,3.01l6.84 1.07c10.15,2.33 -8.94,2.97 19.63,3.28zm57.89 -39.81c-10.32,-1.95 -8.25,-2.48 -13.93,-8.35 -2.79,-2.88 -6.39,-6.49 -10.4,-9.27 -7.52,-5.24 -63.87,-3.74 -76.83,-4.08 -19.48,-0.51 -17.84,-0.66 -30.15,8.85 -6.64,-2.33 -7.14,-8.11 -19.56,-6.89 -13.82,1.35 -8.91,7.98 -18.02,6.47 -0.66,-46.9 9.3,-62.33 -20.09,-58.32 -5.24,4.57 -5.34,3.25 -5.32,14.52 0.04,13.32 -1.3,54.7 0.44,62.39 2.53,11.14 14.03,8.13 34.52,8.14 13.42,0.01 29.78,-0.73 42.86,0.46l-0.53 74.09c4.92,1.25 32.94,1.18 40.08,1.36 10.24,0.25 35.06,2.25 41.96,-0.8 1.53,5.01 8.28,12.78 16.18,9.46l41.33 -38.54c18.37,-16.87 13.52,-19.52 1.48,-30.64 -11.05,-10.21 -3.99,-4.41 -9.68,-16.78 -2.56,-5.59 -7.83,-10.72 -14.34,-12.07z"/>
   <path class="fil0" d="M853.11 480.25l3.68 -7.31c1.34,-19.73 -6.39,-31.66 -21.76,-36.39 -36.4,-11.2 -55.41,42.45 -21.31,57.4 16.79,7.36 34.47,-1.04 39.39,-13.7z"/>
   <path class="fil0" d="M990.77 462.47l0.52 0.78c-1.99,22.09 10,39.31 33.01,37.67 10.01,-0.71 18.07,-6.88 22.18,-12.71 8.41,-11.95 3.68,-16.28 5.15,-27.34 -5.07,-0.26 -0.63,-0.8 -5.84,0.93 -1.39,0.46 -3.62,1.48 -4.94,1.99 -3.14,1.19 -6.29,2.12 -10.45,2.7 -7.51,1.52 -23.1,1.77 -28.87,-1.82 -6.07,-1.83 -3.52,-2.15 -8.03,-5 -1.63,2.77 -2.14,2.19 -2.73,2.8z"/>
   <path class="fil0" d="M1004.12 440.35l-3.16 0.67c-6.61,7.69 -7.47,1.92 -6.4,7.45l2.67 -0.08c3.02,-0.61 -0.63,0.12 2.52,-0.76 2.5,-0.7 4.36,-1.07 6.78,-1.21 16.4,-0.94 29.37,4.3 43.41,6.29l-1.45 -4.91 -20.1 -7.59c-11.37,-0.88 -12.64,-1.59 -24.27,0.14z"/>
   <path class="fil0" d="M548.9 546.3c-0.14,20.41 -0.43,40.84 -0.66,61.26 -0.1,9.85 -0.59,20.35 -0.39,30.11 0.25,11.87 8.28,11.94 18.9,10.44l3.19 -1.41c6,-13.64 1.55,-69.47 3.25,-88.66 0.02,-0.35 -1,-6.48 4.26,-4.77 3.24,1.05 1.87,4.53 1.72,13l-0.54 45.87 80.37 0.62c0.12,-9.88 0.23,-19.65 0.33,-29.42 0.05,-4.97 -0.89,-24.99 1.35,-29.05l3.47 -0.06c1.11,1.64 0.57,0.15 1.13,2.75 0.31,1.39 0.31,1.8 0.38,3.23 0.1,2.27 -0.15,5.75 -0.19,8.16 -0.17,11.43 -1.89,72.18 0.13,76.24 3.42,6.89 17.08,7.37 21.4,2.2 4.72,-5.66 4.06,-108.92 2.85,-123.25 -5.17,-16.48 -10.67,-18.27 -30.95,-18.43 -16.95,-0.13 -33.91,-0.35 -50.86,-0.55 -46.64,-0.52 -59.02,-8.88 -59.14,41.72z"/>
   <polygon class="fil0" points="622.12,791.02 657.21,791.41 658.6,627.89 623.2,647.68 "/>
   <polygon class="fil0" points="576.57,790.53 611.57,790.91 613.64,647.28 578.48,628.29 "/>
   <path class="fil0" d="M1164.32 599.47c-5.43,-3.18 -24.19,-24.09 -26.45,-27.11 2.54,-5.08 9.97,-10.64 14.81,-15.32 6.36,-6.14 7.46,-10.94 20.64,-10.16 -4.76,23.34 -7.76,3.57 -9,52.59zm94.36 -51.17c12.48,-1.09 14.29,4.67 19.94,9.95 3.48,3.26 12.88,11.58 15.3,15.81 -1.96,2.99 -22.2,24.95 -26.38,26.17 -0.32,-17.58 -2.41,-38.21 -8.86,-51.93zm-28.67 -10.21c0.08,0.02 0.48,0.02 0.62,0.6l3.8 9.21c-0.03,0.2 -0.13,0.63 -0.28,0.9 -9.86,2.51 2.96,-2.23 -6.82,-0.38 -1.51,0.29 -1.9,0.62 -2.84,1.41 -2.32,1.96 0.47,-0.57 -1.18,1.28l-1.27 1.61c-0.18,0.21 -0.44,0.59 -0.66,0.89 -4.08,-6.02 2.57,-1.27 -6.75,-7.01l-5.95 5.33 -7.82 -3.16c3.02,-1.61 4.45,0.47 6.4,-4.15l-6.26 0.68c0.82,-2.83 2.35,-8.52 4.5,-9.64 6.75,-3.52 -3.1,3.68 2.63,-0.56 0.31,-0.23 1.07,-2.78 4.06,-4.01 2.1,3.19 5.52,1.59 1.68,10.87 0.33,-0.24 0.76,-1.04 0.94,-0.78l2.58 -2.1c5.7,-4.18 0.31,1.51 7.68,-6.24 2.44,2.18 4.53,4.41 7.61,2.87l-2.67 2.38zm-71.21 -23.35c-2.28,5.62 -52.97,47.89 -54.6,52.63 -4.62,13.41 32.5,35.99 35.22,45.23 7.89,4.26 21.37,31.11 35.28,2.06l81.7 0.63c2.57,7.81 10.8,19.4 20.86,11.84 2.65,-1.99 7.24,-6.91 9.48,-9.06 3.29,-3.16 6.08,-5.66 9.54,-8.95 6.92,-6.59 12.52,-11.7 19.02,-17.93 7.25,-6.96 16.91,-13.45 10.17,-24.88 -3.94,-1.22 -22.88,-21.36 -27.48,-25.9 -3.15,-3.11 -26.63,-23.6 -27.3,-27.51 -9.81,-4.11 -69.58,-3.87 -88.13,-4.05 -24.87,-0.25 -13.85,2.34 -23.76,5.89z"/>
   <path class="fil0" d="M1218.73 797.52l36.38 0.39 0.71 -153.52c-3.67,0.16 -11.99,4.69 -16.27,5.95 -6.45,1.91 -12.55,3.01 -19.8,3.43l-1.02 143.75z"/>
   <path class="fil0" d="M1171.24 797l36.9 0.4 0.88 -143.79c-5.69,-2.08 -13.04,-2.15 -19.19,-4.05 -9.21,-2.84 -9.43,-5.9 -15.66,-6.71l-2.93 154.15z"/>
   <path class="fil0" d="M1217.53 482.86c-6.28,2.5 -11.12,6.95 -16.07,-1.14l7.16 -4.32c6.21,-2.93 4.55,0.46 8.84,0.35 9.47,-0.24 0.29,-3.21 12.45,2.21 3.84,1.71 0.81,-0.61 3.6,0.95 -2.42,8.74 -11.4,4.84 -15.98,1.95zm-21.05 -35.85c-0.96,2.74 -1.11,1.96 -3.54,5.07 -8.64,11.08 -7.96,27.61 1.5,38.68 4.41,5.15 7.72,5.23 11.35,8.43 13.94,3.08 21.67,2.61 31.56,-5.24 16.6,-13.17 14.71,-42.76 -8.26,-52.01 -16.14,-6.5 -22.6,1.36 -32.61,5.07z"/>
   <path class="fil0" d="M242.72 566.61c-3.56,-2.03 -5.62,-6.31 -6.16,-10.03l3.12 -40.69c6.08,0.44 4.08,-1.59 5.39,3.88l1.3 21.04c1.22,17.17 1.41,12.03 -3.65,25.8zm-55.06 161.88l0.6 -79.15 -15.48 0.06 -0.29 78.31 15.17 0.78zm47.04 -296.45c-7.13,4.17 -15.68,5.49 -20.62,20.04 -1.91,5.63 -2.38,11.86 -0.8,17.45 1.88,6.63 5.73,9.97 7.03,14.37 5.14,2.21 7.13,5.6 13.88,7.54 30.67,8.79 53.16,-28.5 30.47,-51.54 -7.82,-7.94 -16.3,-9.14 -29.96,-7.86zm5.62 80.46c-4.45,-3.95 -3.23,-4.87 -1.55,-9.55l7.62 0.6c1.98,6.02 1.17,9.42 -6.07,8.95zm-41.41 273.92l34.88 0.38 2.06 -145.05 9.45 -0.22 -0.91 145.38 35.03 0.39c0.97,-76.44 2.59,-153.74 2.33,-230.1 -0.02,-3.65 -0.99,-11.02 3.91,-9.54 3.56,1.08 2.4,6.74 2.27,10.79l-0.69 57.83c-0.08,8.24 -2.37,21.31 3.76,25.43 7.14,4.79 17.59,2.95 19.88,-3.94 1.33,-4.02 1.42,-77.09 1.5,-84.8 0.19,-17.46 3.6,-39.57 -7.86,-49.15 -9.51,-7.96 -38.65,-4.63 -53.65,-4.9 -65.48,-1.17 -78.91,-9.32 -79.44,35.18l-0.94 86.69c-0.12,9.87 -2.07,19.58 7.35,21.81 9.6,2.27 16.77,-2.77 17.02,-11.06 0.48,-15.64 -1.36,-79.31 2.31,-84.44l3.47 0.26c3.04,5.6 -1.45,213.27 -1.73,239.06z"/>
   <path class="fil0" d="M977.17 794.89l34.91 0.38c0.16,-14.91 3.92,-140.09 0.68,-148.4 -3.1,-7.97 -6.31,-7.81 -14.84,-10.7 -6.33,-2.15 -13.17,-5.92 -19.39,-6.33l-1.36 165.05z"/>
   <path class="fil0" d="M1022.73 795.38l34.96 0.38 1.66 -164.33c-1.4,-0.11 -28.63,7.69 -31.13,9.98 -1.38,1.27 -1.73,2.3 -2.63,4.3 -3.73,8.28 -1.94,37.52 -2,49.1 -0.2,33.52 -0.49,67.06 -0.86,100.57z"/>
   <path class="fil0" d="M443.61 405.47c4.69,3.23 7.7,2.97 6.11,6.96 -1.63,1.82 -6.11,0.48 -8.2,-0.35 -2.89,-1.15 -4.09,-2.19 -6.86,-3.78l0.27 -9.75c3.06,1.96 5.15,4.48 8.68,6.92zm10.24 78.21c6.86,-1.9 11.98,-19.02 9.65,-26.84 -0.7,-5.78 -0.32,-2.29 0.59,-3.64 7.25,0.03 26.1,-0.29 31.24,-2.88 5.18,-7.59 -1.02,-14.17 -5.14,-18.79 -12.15,-11.12 -20.49,-1.16 -30.63,1.06 -0.78,-4.31 -2.1,-8.97 -3.18,-13.31 -2.86,-11.55 -3.83,-9.7 -13.6,-19.87 -7.77,-8.08 -7.23,-14.18 -19.15,-1.91 -14.2,14.61 -9.14,-3.67 -17.76,25.14 -0.36,1.18 -0.68,2.37 -1.14,3.45l-1.2 2.23c-0.08,0.15 -0.28,0.48 -0.45,0.7 -22.74,-7.53 -38.98,2.85 -32.52,20.6 6.13,1.9 25.54,2.88 33.37,2.93l-0.95 3.15c-2.92,42.51 42.63,42.51 50.87,27.98zm-39.34 -71.6c-1.33,-4.16 2.7,-4.27 7.07,-7.31 3.71,-2.59 4.59,-4.6 8.36,-6.5l-0.53 9.92c-8.21,5.68 -11.92,5.53 -14.9,3.89z"/>
   <path class="fil0" d="M979.63 624.65c6.13,1.66 11.59,4.5 17.71,6.52 11.47,3.78 8.42,2.39 18.95,0.34 -0.75,-8.5 1.6,-35.79 -0.81,-39.26 -4.81,-0.47 -1.07,1.4 -4.67,-2.01 -1.04,-0.98 -1.01,-0.24 -1.36,-3.1l-17.26 -0.86 -12.31 -0.59c-1.11,8.84 -1.14,32.42 -0.25,38.96zm-27.83 -106.79c-0.15,4.82 -1.79,6.8 -2.11,13.09l-0.87 113.21c1.76,8 14.08,9.58 20.96,4.12 8.8,-7 -1.05,-82.27 5.33,-92.52l3.47 -0.11c3.19,5.25 0.73,17.13 1.15,24.08 6.52,0.92 10.46,0.05 16.01,-0.5l12.5 -0.21c3.29,1.22 1.26,-1.06 2.6,2.36 -2.65,5.67 -13.44,0.25 -18.65,4.9l17.26 0.86c0.35,2.86 0.32,2.12 1.36,3.1 3.6,3.41 -0.14,1.54 4.67,2.01 1.75,-1.57 1.69,-1.61 6.99,-1.35l-1.13 40.31 8.34 3.54c5.45,-0.71 24.3,-7.23 29.72,-10.34l0.38 -37.3 -28.18 -3.13c-3.16,-1.21 -1.26,0.82 -3.11,-2.41 1.95,-3.66 -1.6,-3.39 14.57,-1.95 5.55,0.5 11.11,0.68 16.68,0.74l0.27 -23.38 5.9 -0.35c1.69,21.85 -0.43,50.31 -0.57,72.74 -0.08,12.58 -2.24,23.26 12.76,23.34 14.26,0.07 11.67,-12.79 11.78,-25.38 0.23,-24.28 0.51,-48.55 0.78,-72.83 0.27,-24.12 2.95,-51.02 -28.33,-45.85 -8.27,8.57 -13.6,21.95 -19,32.46 -6.49,12.61 -5.29,16.68 -12.7,27.94 -3.29,5 -0.38,5.34 -4.14,6.32 -9.54,2.5 0.63,-8.64 6.08,-23.38 2.56,-6.9 20.55,-38.18 21.02,-44.25 -13.09,-0.64 -56.45,-2.29 -67.11,-0.18l22.77 48.95c2.95,6.59 6.64,10.86 8.78,17.14l-4.93 2.22 -8.69 -16.97c-2.47,-7.35 -3.43,-10.13 -7.22,-18.09 -6.33,-13.31 -10.91,-22.41 -18.13,-33.66 -5.23,-0.63 -11.91,-0.47 -16.7,1.46 -7.34,2.95 -6.09,5.65 -10.56,9.25z"/>
   <path class="fil0" d="M1048.49 447.8l1.45 4.91c-14.04,-1.99 -27.01,-7.23 -43.41,-6.29 -2.42,0.14 -4.28,0.51 -6.78,1.21 -3.15,0.88 0.5,0.15 -2.52,0.76l-2.67 0.08c-1.07,-5.53 -0.21,0.24 6.4,-7.45l-8.05 1.43c0.44,-10.68 11.89,-15.37 20.77,-16.41 1.94,6.05 4.12,4.95 3.13,10.9l-8.84 0.91c-4.91,2.06 -2.02,0.97 -3.85,2.5 11.63,-1.73 12.9,-1.02 24.27,-0.14 -2.7,-2.02 -5.52,-3.03 -9.68,-3.25 -0.58,-6.03 -2.79,-5.36 -2.75,-11.64 11.21,2.06 25.15,6.92 33.19,15.59 5.58,6.02 0.37,6.45 -0.66,6.89zm-56.29 5.19l-1.43 9.48c0.59,-0.61 1.1,-0.03 2.73,-2.8 4.51,2.85 1.96,3.17 8.03,5 -0.16,-0.3 -0.34,-1.13 -0.41,-0.93l-1.77 -3.46c-3.27,-5.11 -2.24,0.61 -2.29,-4.8 6.25,-2.52 18.36,-3.51 25.48,-2.86 5.14,0.47 7.16,1.5 11.65,2.44 2.49,0.53 3.5,0.47 5.75,1.47 1.27,0.57 1.44,0.79 2.16,1.3 0.29,0.2 1.13,0.9 1.37,1.1l1.41 1.22c-12.15,2.19 -18.66,4.46 -32.73,3.61 2.43,0.52 6.08,0.58 9.04,0.61 9.92,0.1 7.55,0.03 9.21,2.12 4.16,-0.58 7.31,-1.51 10.45,-2.7 1.32,-0.51 3.55,-1.53 4.94,-1.99 5.21,-1.73 0.77,-1.19 5.84,-0.93l1.41 -17.73c-9.45,-9.42 -31.37,-24.07 -49.14,-15.62l-6.48 3.54c-2.72,2.11 -0.23,0.17 -1.78,1.61 -10.83,10.02 1.21,12.58 -3.44,20.32z"/>
   <path class="fil0" d="M453.23 661.24c-1.01,-11.78 -3.73,-15.4 0.77,-28.19 2.44,-6.93 8.83,-16.46 12.44,-20.32 -7.41,4.74 -13,8.45 -16.21,19.89 -4.16,14.79 -1.48,17.75 3,28.62z"/>
   <path class="fil0" d="M469.71 679.68l1.18 -2.37c-1.98,-0.86 -4.48,-1.46 -6.69,-2.66 -0.7,-0.39 -2.15,-1.38 -2.79,-1.89l-2.44 -2.67c-4.22,-1.76 -5.01,-2.85 -7.28,-6.09 -1.56,-2.23 -3.85,-5.95 -4.45,-8.6 0.4,6.69 7.72,17.96 12.79,21.06 3.46,2.12 5.62,2.23 9.68,3.22z"/>
   <path class="fil3" d="M164.72 901.02l-30.59 -102.03 27.28 0.3 13.11 54.34c0.65,2.42 1.24,5.3 1.84,8.56 0.59,3.27 1.17,6.83 1.73,10.64 0.58,-4.07 1.15,-7.64 1.73,-10.74 0.62,-3.07 1.25,-5.89 1.91,-8.38l14.7 -54.04 25.67 0.28 -32.74 101.34 -24.64 -0.27zm68.8 0.75l1.11 -101.69 25.82 0.28 -1.11 101.69 -25.82 -0.28zm37.69 0.41l36 -101.31 31.49 0.35 33.8 102.06 -27.02 -0.3 -4.01 -14.81 -39.11 -0.43 -4.24 14.73 -26.91 -0.29zm37.22 -33.54l27.41 0.3 -13.19 -47.25 -14.22 46.95zm70.14 14.74l5.97 0.07c6.72,0.07 11.51,-1.37 14.35,-4.31 2.85,-2.94 4.33,-7.96 4.4,-15.06l0.46 -41.53 -22.89 -0.24 0.22 -20.63 48.45 0.52 -0.69 63.71c-0.15,13.22 -3.41,23.14 -9.81,29.8 -6.37,6.66 -15.75,9.9 -28.15,9.77l-12.55 -0.14 0.24 -21.96zm69.15 20.72l1.11 -101.69 56.95 0.62 -0.21 19.7 -31.41 -0.34 -0.22 20.76 31.4 0.34 -0.21 19.7 -31.41 -0.34 -0.23 20.9 31.41 0.34 -0.22 20.63 -56.96 -0.62zm168.21 1.83l0.56 -51.66c0.03,-2.42 0.23,-5.51 0.61,-9.25 0.4,-3.74 0.93,-7.82 1.65,-12.23 -1.5,4.32 -3.89,9.79 -7.22,16.43l-0.38 0.84 -28.41 57.4 -26.83 -57.94c-0.19,-0.53 -0.58,-1.38 -1.12,-2.54 -2.76,-5.84 -4.79,-10.83 -6.1,-14.95 0.66,4.78 1.14,9.02 1.46,12.71 0.33,3.7 0.48,6.65 0.46,8.81l-0.56 51.66 -23.42 -0.25 1.1 -101.69 31.36 0.34 24.31 56.02 26.87 -55.46 30.19 0.33 -1.11 101.68 -23.42 -0.25zm94.76 -19.73c7.97,0.08 14.54,-2.64 19.68,-8.2 5.16,-5.55 7.79,-12.76 7.89,-21.58 0.09,-8.83 -2.38,-16.09 -7.42,-21.77 -5.01,-5.66 -11.52,-8.52 -19.49,-8.61 -8.03,-0.09 -14.62,2.63 -19.76,8.19 -5.17,5.56 -7.8,12.76 -7.9,21.59 -0.09,8.78 2.38,16.02 7.45,21.7 5.05,5.7 11.57,8.59 19.55,8.68zm0.9 -82.92c7.61,0.09 14.59,1.42 20.93,4 6.33,2.57 11.97,6.38 16.91,11.43 4.88,4.91 8.56,10.56 11.04,17.03 2.48,6.43 3.7,13.41 3.62,20.96 -0.09,7.49 -1.45,14.39 -4.07,20.75 -2.62,6.35 -6.43,11.96 -11.41,16.83 -5,4.9 -10.72,8.58 -17.19,11.06 -6.45,2.48 -13.46,3.7 -20.98,3.62 -7.54,-0.09 -14.53,-1.45 -20.98,-4.07 -6.44,-2.62 -12.08,-6.43 -16.94,-11.44 -4.87,-4.97 -8.55,-10.67 -11.03,-17.07 -2.48,-6.42 -3.7,-13.35 -3.62,-20.84 0.08,-7.5 1.43,-14.43 4.03,-20.84 2.62,-6.38 6.38,-11.97 11.33,-16.82 4.99,-4.89 10.71,-8.56 17.16,-11.04 6.46,-2.46 13.53,-3.64 21.2,-3.56zm89.13 75.11c0.1,3.35 1.27,6.02 3.53,8.01 2.24,1.99 5.29,3 9.15,3.05 3.81,0.04 6.84,-0.78 9.08,-2.42 2.21,-1.66 3.34,-3.91 3.37,-6.77 0.03,-2.53 -1.01,-4.69 -3.14,-6.49 -2.14,-1.82 -6.56,-4 -13.35,-6.54 -0.64,-0.23 -1.66,-0.59 -3.05,-1.07 -7.86,-2.82 -13.71,-5.72 -17.59,-8.72 -3.4,-2.58 -5.97,-5.8 -7.73,-9.66 -1.74,-3.83 -2.61,-8.15 -2.56,-12.92 0.1,-9.18 3.36,-16.57 9.74,-22.2 6.38,-5.64 14.73,-8.38 25.05,-8.27 11.4,0.12 20.11,2.9 26.13,8.33 6.04,5.44 9.06,13.16 9.09,23.19l-23.16 -0.18c-0.05,-3.75 -1.11,-6.69 -3.15,-8.8 -2.06,-2.13 -4.93,-3.21 -8.59,-3.25 -3.51,-0.04 -6.33,0.8 -8.44,2.51 -2.13,1.71 -3.19,4.01 -3.22,6.91 -0.05,4.15 4.93,8.11 14.93,11.83 2.01,0.78 3.6,1.37 4.71,1.8 0.62,0.24 1.54,0.6 2.78,1.08 9.15,3.49 15.54,7.24 19.17,11.28 2.29,2.49 3.97,5.29 5.06,8.4 1.1,3.11 1.62,6.55 1.58,10.32 -0.11,9.9 -3.61,17.81 -10.49,23.7 -6.89,5.91 -16.02,8.81 -27.4,8.68 -10.69,-0.11 -19.16,-3.04 -25.4,-8.77 -6.24,-5.72 -9.45,-13.51 -9.66,-23.35l23.56 0.32zm120.65 30.86l0.89 -81.05 -22.89 -0.25 0.22 -20.63 71.34 0.77 -0.23 20.63 -22.89 -0.25 -0.88 81.06 -25.56 -0.28zm109.7 -19.57c7.97,0.09 14.54,-2.64 19.68,-8.19 5.16,-5.56 7.79,-12.77 7.89,-21.59 0.09,-8.83 -2.38,-16.08 -7.41,-21.76 -5.02,-5.66 -11.53,-8.53 -19.5,-8.61 -8.03,-0.09 -14.62,2.63 -19.76,8.18 -5.17,5.57 -7.8,12.77 -7.9,21.6 -0.09,8.78 2.38,16.02 7.45,21.7 5.05,5.7 11.57,8.59 19.55,8.67zm0.91 -82.91c7.6,0.08 14.58,1.42 20.92,4 6.34,2.57 11.97,6.38 16.91,11.42 4.88,4.91 8.57,10.57 11.05,17.03 2.48,6.44 3.69,13.41 3.61,20.96 -0.08,7.49 -1.45,14.4 -4.07,20.76 -2.62,6.34 -6.43,11.96 -11.41,16.83 -5,4.89 -10.72,8.58 -17.18,11.06 -6.46,2.48 -13.47,3.69 -20.98,3.61 -7.54,-0.08 -14.54,-1.45 -20.99,-4.07 -6.44,-2.62 -12.08,-6.43 -16.94,-11.43 -4.86,-4.97 -8.55,-10.67 -11.03,-17.07 -2.48,-6.42 -3.7,-13.35 -3.62,-20.84 0.09,-7.5 1.43,-14.44 4.03,-20.84 2.62,-6.38 6.38,-11.97 11.33,-16.83 4.99,-4.88 10.71,-8.55 17.17,-11.03 6.45,-2.46 13.53,-3.64 21.2,-3.56zm95.68 84.09l7.72 0.09c8.13,0.09 14.62,-2.57 19.43,-7.98 4.82,-5.4 7.28,-12.76 7.38,-22.08 0.11,-9.58 -2.21,-17.04 -6.92,-22.44 -4.73,-5.37 -11.35,-8.1 -19.87,-8.19l-7.08 -0.08 -0.66 60.68zm-25.78 20.36l1.11 -101.95 31.28 0.34c7.14,0.08 13.18,0.68 18.17,1.81 4.95,1.14 9.26,2.88 12.92,5.22 7.53,4.88 13.21,11.1 17.05,18.65 3.85,7.52 5.71,16.17 5.6,25.9 -0.1,9.41 -2.19,17.82 -6.24,25.22 -4.07,7.42 -10.06,13.65 -17.95,18.71 -3.4,2.18 -7.68,3.83 -12.83,4.9 -5.14,1.09 -11.09,1.61 -17.83,1.54l-31.28 -0.34zm92.88 1.01l31.31 -54.24 -26.57 -47.41 29.23 0.32 10.03 20.76c0.94,1.83 1.67,3.55 2.23,5.13 0.53,1.6 0.92,3.13 1.1,4.61 0.29,-1.35 0.67,-2.73 1.16,-4.16 0.5,-1.42 1.12,-2.9 1.86,-4.46l10.78 -21.58 28.84 0.31 -27.93 46.82 30.05 54.9 -29.68 -0.32 -14.02 -29.73c-0.63,-1.3 -1.16,-2.58 -1.51,-3.88 -0.39,-1.29 -0.66,-2.6 -0.83,-3.93 -0.25,1.46 -0.63,2.9 -1.11,4.31 -0.46,1.4 -1.05,2.83 -1.75,4.28l-14.15 28.58 -29.04 -0.31zm124.09 -28.21c0.1,3.36 1.27,6.03 3.52,8.01 2.25,2 5.3,3.01 9.16,3.05 3.81,0.04 6.84,-0.77 9.08,-2.41 2.21,-1.66 3.34,-3.91 3.37,-6.77 0.03,-2.53 -1.01,-4.69 -3.14,-6.5 -2.14,-1.81 -6.56,-3.99 -13.35,-6.53 -0.64,-0.23 -1.66,-0.59 -3.05,-1.08 -7.86,-2.81 -13.71,-5.71 -17.59,-8.71 -3.4,-2.58 -5.97,-5.8 -7.73,-9.66 -1.74,-3.83 -2.61,-8.15 -2.56,-12.92 0.1,-9.18 3.35,-16.57 9.74,-22.21 6.38,-5.64 14.73,-8.38 25.05,-8.26 11.4,0.12 20.11,2.9 26.13,8.33 6.04,5.44 9.06,13.16 9.09,23.19l-23.16 -0.18c-0.05,-3.75 -1.11,-6.69 -3.15,-8.81 -2.06,-2.12 -4.93,-3.2 -8.59,-3.24 -3.51,-0.04 -6.33,0.8 -8.44,2.51 -2.13,1.71 -3.19,4 -3.23,6.9 -0.04,4.15 4.94,8.12 14.94,11.84 2.01,0.78 3.6,1.37 4.71,1.8 0.61,0.24 1.54,0.6 2.78,1.08 9.15,3.49 15.54,7.24 19.17,11.28 2.29,2.48 3.97,5.29 5.06,8.39 1.1,3.12 1.62,6.56 1.58,10.33 -0.11,9.9 -3.61,17.8 -10.49,23.7 -6.89,5.9 -16.02,8.81 -27.4,8.68 -10.69,-0.11 -19.16,-3.05 -25.4,-8.78 -6.24,-5.71 -9.45,-13.5 -9.66,-23.34l23.56 0.31z"/>
   <path class="fil4" d="M163.24 1031.83l0.77 -70.74 24.74 0.27c7.47,0.08 13.38,2.28 17.74,6.59 4.36,4.31 6.51,10.09 6.43,17.32 -0.09,7.83 -2.3,13.77 -6.64,17.83 -4.33,4.04 -10.61,6.03 -18.87,5.94l-6.14 -0.07 -0.25 23.05 -17.78 -0.19zm18.18 -37.21l2.72 0.03c3.42,0.03 6.09,-0.8 7.96,-2.49 1.87,-1.7 2.83,-4.14 2.86,-7.32 0.04,-3.26 -0.85,-5.67 -2.64,-7.27 -1.79,-1.61 -4.57,-2.42 -8.33,-2.46l-2.35 -0.02 -0.22 19.53zm142.76 24.52c5.53,0.06 10.11,-1.84 13.69,-5.7 3.59,-3.87 5.42,-8.88 5.48,-15.02 0.07,-6.14 -1.65,-11.19 -5.15,-15.14 -3.5,-3.94 -8.03,-5.93 -13.57,-5.99 -5.59,-0.06 -10.17,1.83 -13.75,5.69 -3.59,3.87 -5.42,8.88 -5.49,15.02 -0.06,6.11 1.65,11.15 5.18,15.11 3.52,3.96 8.06,5.97 13.61,6.03zm0.62 -57.69c5.29,0.06 10.15,0.99 14.55,2.79 4.41,1.79 8.34,4.44 11.78,7.95 3.38,3.42 5.95,7.35 7.67,11.84 1.73,4.48 2.57,9.33 2.51,14.58 -0.06,5.22 -1,10.02 -2.83,14.45 -1.81,4.4 -4.47,8.31 -7.92,11.71 -3.49,3.4 -7.47,5.96 -11.96,7.69 -4.5,1.72 -9.37,2.57 -14.6,2.51 -5.25,-0.06 -10.11,-1.01 -14.6,-2.83 -4.48,-1.83 -8.4,-4.47 -11.77,-7.95 -3.39,-3.47 -5.96,-7.43 -7.68,-11.87 -1.73,-4.47 -2.57,-9.29 -2.51,-14.51 0.05,-5.22 0.98,-10.04 2.79,-14.49 1.82,-4.44 4.44,-8.33 7.89,-11.71 3.46,-3.4 7.44,-5.95 11.94,-7.68 4.48,-1.71 9.4,-2.53 14.74,-2.48zm138.64 16.7l-4.83 -0.05 -0.21 19.56 5.28 0.06c3.39,0.03 6.03,-0.8 7.89,-2.49 1.87,-1.7 2.83,-4.14 2.86,-7.33 0.04,-3.26 -0.84,-5.69 -2.66,-7.29 -1.8,-1.61 -4.58,-2.42 -8.33,-2.46zm-23.23 56.69l0.77 -70.73 25.94 0.28c7.94,0.09 14.2,2.2 18.79,6.34 4.61,4.17 6.86,9.7 6.78,16.64 -0.06,5.45 -1.51,9.86 -4.35,13.24 -2.85,3.36 -6.68,5.25 -11.52,5.66l18.22 29.17 -21.42 -0.24 -15.1 -30.25 -0.33 30.09 -17.78 -0.2zm222.89 2.43l0.39 -35.94c0.02,-1.68 0.16,-3.83 0.43,-6.43 0.27,-2.6 0.64,-5.44 1.13,-8.5 -1.03,3 -2.69,6.8 -5.01,11.42l-0.27 0.58 -19.75 39.93 -18.67 -40.3c-0.13,-0.37 -0.41,-0.96 -0.79,-1.77 -1.91,-4.06 -3.33,-7.53 -4.24,-10.39 0.47,3.31 0.81,6.27 1.02,8.83 0.24,2.58 0.34,4.63 0.32,6.13l-0.39 35.94 -16.3 -0.18 0.77 -70.73 21.82 0.23 16.91 38.97 18.69 -38.58 21.01 0.23 -0.77 70.74 -16.3 -0.18zm99 1.08l0.77 -70.74 39.63 0.43 -0.15 13.7 -21.85 -0.24 -0.16 14.45 21.85 0.24 -0.15 13.7 -21.84 -0.24 -0.16 14.54 21.85 0.24 -0.16 14.35 -39.63 -0.43zm35.28 -93.52l-14.89 16.6 -6.96 -0.07 8.87 -16.67 12.98 0.14zm79 94.76l21.78 -37.73 -18.49 -32.98 20.34 0.22 6.97 14.45c0.65,1.27 1.16,2.46 1.55,3.57 0.38,1.11 0.64,2.17 0.77,3.19 0.19,-0.93 0.46,-1.89 0.81,-2.89 0.35,-0.98 0.77,-2.01 1.29,-3.1l7.49 -15.01 20.06 0.22 -19.42 32.57 20.91 38.19 -20.65 -0.23 -9.75 -20.68c-0.44,-0.9 -0.8,-1.79 -1.05,-2.7 -0.27,-0.89 -0.46,-1.8 -0.58,-2.73 -0.18,1.01 -0.44,2.01 -0.78,3 -0.32,0.96 -0.73,1.97 -1.22,2.99l-9.84 19.87 -20.19 -0.22zm139.73 1.52l0.77 -70.74 17.97 0.2 -0.77 70.74 -17.97 -0.2zm149.74 -48.2c-1.94,-2.19 -4.13,-3.85 -6.54,-4.93 -2.4,-1.09 -5.06,-1.66 -7.91,-1.69 -5.71,-0.06 -10.39,1.83 -14.07,5.69 -3.67,3.87 -5.55,8.88 -5.61,15.02 -0.07,6.14 1.69,11.19 5.28,15.13 3.6,3.94 8.24,5.94 13.95,6.01 3.04,0.03 5.79,-0.53 8.26,-1.67 2.48,-1.16 4.61,-2.87 6.42,-5.13l11.54 11.97c-3.51,3.57 -7.52,6.26 -12.05,8.05 -4.53,1.78 -9.51,2.66 -14.92,2.6 -5.22,-0.06 -10.05,-0.99 -14.49,-2.8 -4.44,-1.82 -8.36,-4.47 -11.75,-7.98 -3.4,-3.41 -5.97,-7.35 -7.69,-11.84 -1.73,-4.48 -2.57,-9.32 -2.51,-14.54 0.05,-5.25 1,-10.1 2.82,-14.57 1.82,-4.47 4.48,-8.37 7.95,-11.71 3.44,-3.41 7.4,-5.94 11.86,-7.65 4.47,-1.67 9.33,-2.48 14.61,-2.43 5.29,0.06 10.19,1.01 14.66,2.85 4.47,1.85 8.42,4.54 11.8,8.07l-11.61 11.55zm123 36.73c5.54,0.06 10.11,-1.84 13.69,-5.7 3.59,-3.88 5.42,-8.89 5.48,-15.03 0.07,-6.14 -1.64,-11.18 -5.15,-15.13 -3.5,-3.94 -8.03,-5.93 -13.57,-5.99 -5.59,-0.06 -10.17,1.83 -13.75,5.69 -3.59,3.87 -5.42,8.88 -5.48,15.02 -0.07,6.11 1.65,11.15 5.17,15.11 3.52,3.96 8.06,5.97 13.61,6.03zm0.63 -57.69c5.29,0.06 10.15,0.99 14.55,2.79 4.41,1.79 8.33,4.44 11.77,7.95 3.38,3.41 5.95,7.34 7.67,11.84 1.73,4.48 2.57,9.33 2.51,14.58 -0.05,5.22 -1,10.02 -2.82,14.45 -1.82,4.4 -4.47,8.31 -7.93,11.7 -3.49,3.41 -7.47,5.96 -11.96,7.69 -4.49,1.73 -9.36,2.57 -14.59,2.52 -5.25,-0.06 -10.11,-1.01 -14.6,-2.83 -4.48,-1.83 -8.41,-4.47 -11.78,-7.95 -3.39,-3.47 -5.96,-7.44 -7.68,-11.88 -1.73,-4.47 -2.57,-9.28 -2.51,-14.5 0.05,-5.22 0.99,-10.04 2.8,-14.49 1.81,-4.45 4.44,-8.34 7.88,-11.71 3.46,-3.4 7.44,-5.95 11.94,-7.68 4.49,-1.71 9.41,-2.54 14.75,-2.48z"/>
   <path class="fil0" d="M611.26 436.81c-7.13,4.17 -15.68,5.49 -20.62,20.04 -1.92,5.63 -2.39,11.85 -0.8,17.45 1.88,6.63 5.73,9.97 7.02,14.37 5.14,2.21 7.13,5.59 13.89,7.53 30.67,8.8 53.16,-28.5 30.47,-51.53 -7.83,-7.94 -16.31,-9.14 -29.96,-7.86z"/>
  </g>
  <rect class="fil5" width="1481.66" height="1481.66"/>
 </g>
</svg>
