<?xml version="1.0" encoding="UTF-8"?>
<!DOCTYPE svg PUBLIC "-//W3C//DTD SVG 1.1//EN" "http://www.w3.org/Graphics/SVG/1.1/DTD/svg11.dtd">
<!-- Creator: CorelDRAW 2017 -->
<svg xmlns="http://www.w3.org/2000/svg" xml:space="preserve" width="53.3398mm" height="53.3398mm" version="1.1" style="shape-rendering:geometricPrecision; text-rendering:geometricPrecision; image-rendering:optimizeQuality; fill-rule:evenodd; clip-rule:evenodd"
viewBox="0 0 5333.98 5333.98"
 xmlns:xlink="http://www.w3.org/1999/xlink">
 <defs>
  <style type="text/css">
   <![CDATA[
    .fil0 {fill:#D2D3D5}
   ]]>
  </style>
 </defs>
 <g id="Capa_x0020_1">
  <metadata id="CorelCorpID_0Corel-Layer"/>
  <path class="fil0" d="M4769.59 1434.75l-3.92 -49.97 -28.15 -2.64c5.77,16.15 1.92,10.06 11.43,27.77 1.31,2.44 5.98,10.36 7.75,12.55 9.29,11.53 -0.13,1.57 12.89,12.29zm-4101.86 2710.13l13.84 25.97c18.7,-0.68 18.57,6.94 22.93,-12.18 2.06,-8.94 -1.14,-14.52 -6.84,-20.03 -14.89,-14.41 -22.65,-6.55 -29.93,6.24zm-322.78 -218.11l-6.43 -21.38c30.33,0.04 22.86,6.83 33.58,-12.19l-1.55 -28.78 -34.62 -2.25 5.19 -21.93c-17.72,11.36 -11.62,15.89 -11.39,39.55 0.29,31.19 -4.33,31.87 15.22,46.98zm1501.48 -3688.35c-1.25,-29.78 10.47,-31.99 37.3,-28.55l-0.74 37.66c-25.55,3.97 -19.04,5.97 -36.56,-9.11zm35.6 26.37c24.54,-3.77 17.25,1.33 22.19,-10.58 -15.92,-26.18 3.44,-48.82 10.49,-66 -30.05,3.62 -9.69,6.43 -34.13,-6.09 8.19,13.55 1.14,2.65 9.48,20.83 -36.71,-11.4 -25.52,-10.08 -54.9,6.85 -0.52,3.11 -10.53,28.02 10.77,43.55 19.4,14.17 10.58,4.87 20.22,7.39 15.84,4.16 7.84,-1.6 15.88,4.05zm-1235.82 3861.77c8.1,11.09 1.44,4 11.67,13.25 0.93,0.86 4.08,4.03 4.81,2.79 0.72,-1.25 3.37,1.5 5.04,2.28 7.28,-12.79 15.04,-20.65 29.93,-6.24 5.7,5.51 8.9,11.09 6.84,20.03 -4.36,19.12 -4.23,11.5 -22.93,12.18 12.46,19.5 5.43,11.26 21.73,21.73l8.76 -5.49c0.83,-0.52 3.01,-1.78 3.87,-2.33l8.47 -5.8c-10.32,-18.04 -6.54,-23.59 -3.98,-47.09 -2.31,-5.98 -4.39,-10.06 -7.44,-15.13 -0.63,-1.06 -3.05,-1.63 -3.55,-4.26 -0.51,-2.64 -2.61,-2.65 -3.87,-4.02 -5.72,17.77 5.88,8.79 -8.77,12.14l-50.58 5.96zm4137.69 -1827.49l95.36 -44.29c-10.85,-13.74 -73.75,-14.86 -110.18,-12.9 1.2,11.4 1.88,23.12 4.23,33.03l10.59 24.16zm-1843.99 2521.69l47.64 -6.51c-0.61,-23.2 -22.68,-69.16 -39.58,-84.33l-8.06 90.84zm-2574.27 -853.52c54.16,45.5 102.75,8.17 88.87,81.12 25.22,1.64 56.57,5.67 71.1,-13.37 16.73,6.78 15.74,5.05 27.18,12.17 -9.97,-19.16 -10.88,-16.35 -22.71,-33.5 -5.17,-7.48 -5.85,-9.33 -10.7,-16.26 -9.01,-12.86 -2.01,-4.46 -9.85,-12.69 -28.18,69.34 -135.57,-43.5 -45.06,-75.19 -4.96,-15.29 -4.73,-15.38 -12.75,-30.09l-14.39 -21.89c-12.95,27.39 -25.33,20.9 -42.06,46.66 -11.97,18.42 -6.64,16.44 -11.71,33.28 -12.39,41.22 8.94,18.48 -17.92,29.76zm1599.23 1239.7c11.88,12.59 -7.83,-0.08 16.82,14.14 7.16,4.13 15.2,6.39 23.38,9.13 29.04,9.72 34.3,8.85 67.6,3.9l1.98 -10.11 -43.94 5.7 20.22 -22.53c8.88,-8.63 3.63,-2.92 10.34,-10.89l6.05 -10.07c-121.33,-0.95 -51.68,28.15 -102.45,20.73zm-85.48 -53.53c23.9,-13.9 6.04,-10.66 35.85,-10.84 13.13,11.9 4.42,3.43 13.77,17.61 13.59,20.64 1.07,7.48 15.62,19.17l-2.76 -73.11 -41.94 -0.73 -9.71 28.13c-3.98,10.98 -3.43,9.15 -10.83,19.77zm-1368.9 -3727.59c54.92,-23.85 62.62,-45.95 70.4,-113.7 -10.13,6.68 -0.8,-3.87 -13.21,12.94l-57.19 100.76zm142.7 2615.68l-64.42 -100.1c3.36,52.16 20.55,84.96 64.42,100.1zm-320.87 -2613.64l34.5 -3.4c0.16,-32.59 -13.23,-25.09 3.13,-57.07 -19.78,11.93 -13.07,2.04 -25.48,26.72 -6.47,12.87 -8.67,19.33 -12.15,33.75zm4541.42 8.7l21.08 41.65 31.98 2.11c-8.07,21.55 -6.46,11.44 -8.54,36.54l9.31 29.44c9.03,4.92 9.62,0.74 15.8,6.51 5.04,-31.17 5.42,-28.78 -6.77,-51.94l97.17 1.98c10.64,22.29 7.56,17.85 9.25,44.84 10.23,4.35 2.26,4.34 8.03,-10.79l-6.68 -35.88c-17.73,-15.14 -15.25,-25.24 -39.14,-42.04 -15.83,-11.13 -45.78,-15.44 -57.19,-26.31l-8.07 -5.73c-17.84,-5.82 -15.11,-5.84 -38.08,-1.56 -25.82,4.81 -17.84,1.03 -28.15,11.18zm-4503.79 -69.17c-16.36,31.98 -2.97,24.48 -3.13,57.07l-34.5 3.4c-6.38,59.67 13.43,59.1 11.38,103.24 23.33,-14.13 12.72,-7.92 7.96,-10.18l0 46.48c28.22,11.96 14.57,-4.26 24.5,21.61 6.65,-6.38 3.55,-2.54 10.47,-12.31l67.61 -133.91c3.29,-30.08 11.22,-9.16 -18.97,-25.74 -11.69,-6.41 -16.71,-8.62 -24.16,-15.58 -20.94,-19.55 -17.4,-41.7 -39.36,-33.42l-1.8 -0.66zm4578.78 218.51c27.05,74.11 65.63,147.14 100.72,247.77 217.7,624.08 181.81,1289.77 -90.06,1889.29 -17.41,38.37 -43.5,82.38 -55.26,114.73l-5.69 24.32c51.64,6.98 35.98,28.93 82.72,24.91 34.41,-13.38 38.21,-34.14 65.22,-51.88 0.45,-26.4 11.66,-38.53 6.92,-72.47 -6.33,-45.18 -40.79,-61.6 14.01,-84.56 140.75,-58.97 41.96,-184.85 59.14,-210.08 44.89,-31.18 67.29,-21.92 86.04,-84.52 23.1,-77.16 -21.78,-86.43 -27.39,-128.12 2.72,-22.98 126.21,-73.05 73.56,-182.04 -16.03,-33.22 -28.54,-19.69 -29.05,-57.19 16.64,-35.76 65.46,-34.9 70.6,-107.09 5.62,-79.01 -44.01,-83.83 -50.02,-125.49 11.05,-39.79 62.43,-40.71 60.86,-119.6 -1.49,-74.21 -49.52,-74.59 -60.86,-112.97 5.6,-41.52 55.11,-46.96 50.05,-125.5 -4.77,-74 -54.09,-72.28 -70.6,-107.08 0.3,-36.94 16.43,-26.84 30.85,-61.89 45,-109.38 -67.82,-154.03 -72.67,-170.69 -1.3,-47.96 50.32,-58.11 23.07,-140.2 -22.62,-68.1 -57.56,-47.19 -84.99,-85.73 -12,-31.53 14.62,-36.39 19.24,-79.53 5.09,-47.5 -12.89,-53.29 -18.7,-87.99 -16.88,-10.52 -21.79,-18.35 -40.38,-28.42 -22.3,-12.08 -29.33,-6.36 -44.57,-23.35 -14.17,-33.62 4.74,-23.69 5.99,-59.32 -11.53,-32.3 2.03,-1.76 -28.48,-20.42 8.81,-20.4 13.22,-29.38 -2.53,-48.99 -29.96,16.23 -13.91,21.73 -9.64,53.75l-27.68 -0.55c2.7,-17.45 5.3,-8.1 5.96,-24.71l-8.51 -28.24c-25.18,12.35 -19.6,24.85 -9.27,48.74 -22.93,18.12 -21.24,-12.38 -18.6,25.11zm-3443.38 -1286.15c-1.59,15.75 0.91,4.68 -8.16,28.24 -0.56,1.45 -6.38,15.09 -7.32,16.78 -24.75,72.04 -53.18,-20.62 -144.87,29.83 -73.17,40.28 -44.02,91.2 -75.21,111.72 -28.15,15.73 -150.97,-44.65 -178.78,105.12 -5.65,30.42 4.79,35.96 -55,34.72 -144.06,-3 -119.84,135.33 -133.61,149.84 -43.51,22.87 -76.13,-14.02 -129.48,43.16 -51.04,54.7 -17.75,90.03 -38.88,127.85 -36.44,21.63 -76.44,-6.96 -121.4,50.85 -40.23,51.71 -9.26,97.91 -28.07,131 -13.44,14.98 -104.1,8.46 -127.21,87.94 -0.71,36.84 -1.46,11.43 7.23,21.15 22.79,-0.58 37.05,-0.77 55.37,7.69 31.34,14.46 12.84,19.61 45.28,19.87 245.97,-379.47 649.51,-719.69 1062.58,-900.55 26.27,-11.5 182.96,-72.64 192.4,-79.86l9.62 -15.38c-28.43,-1.76 6.93,2.8 -16.85,-2.22l-12.71 -5.98 -39.06 -3c-29.19,10.37 -12.77,12.31 -53.66,9.21 0.73,-2.43 2.11,-5.05 2.94,-7.01 0.79,-1.81 1.92,-4.41 2.8,-6.49l6.17 -14.08c2.95,-9.69 2.32,-6.18 -2.98,-8.41 -19.51,21.31 -0.47,37.86 -35.51,39.77 -16.44,0.9 -31.65,-12.25 -60.03,-14.73 -86.11,-7.53 -106.79,46.98 -110.87,39.82 -0.76,-1.33 -3.09,2.2 -4.73,3.15zm-877.86 942.4c-9.85,29.96 -3.87,6.45 3.23,13.85 26.71,-16.26 36.09,-13 67.2,-24.76 35.73,-40.06 74.72,-95.39 110.13,-137.76 21.39,-25.6 38.09,-45.43 58.75,-67.46 23.71,-25.3 39.32,-48.91 66.69,-62.7 13.38,-36.5 219.05,-203.48 244.96,-223.72 278.03,-217.2 615.52,-376.61 981.5,-454.4 278.49,-59.2 589.36,-69.79 875.4,-24.79 135.77,21.36 263.03,52.08 384.85,91.58 58.87,19.08 306.42,110.99 333.74,140.07l106.25 49.88c10.64,12.12 77.21,48.63 94.96,59.96 163.9,104.6 322.15,228.2 453.24,364.21 24.51,25.43 140.38,147.18 147.34,174.31 46.42,29.97 58.81,82.07 82.88,94.79l23.79 6.44 -1.77 -60.41c-43.37,-89.2 -280.37,-318.1 -361.43,-391.7 -122.64,-111.34 -287.38,-223.54 -451.03,-313.19 -143.82,-78.8 -378.57,-181.87 -549.12,-215.89 -279.98,-55.85 -366.44,-86.51 -681.46,-81.95 -542.79,7.86 -1035.91,196 -1424.99,482.3 -77.7,57.18 -144.73,116.14 -211.54,173.79 -75.03,64.75 -322.42,330.39 -353.57,407.55zm84.84 785.43c-0.39,-15.12 -19.92,-21.84 -24.32,-37.2 -2.98,-10.4 9.55,-34 12.51,-47.11 -17.09,1.97 -38.13,15.26 -52.3,9.25 -12.67,-5.38 -19.95,-19.79 -37,-25.93 -0.7,17.24 3.33,44.27 -7.12,54.33 -9.06,8.72 -28.41,14.3 -32.49,28.07 56.49,25.71 39.28,-5.81 63.4,61.8 11.58,-7.23 22.07,-31.31 30.98,-41.46l46.34 -1.75zm813.72 -1091.99c-2.7,-16.36 -14.8,-39.35 -6.71,-53.18 5.9,-10.07 25.72,-23.05 24.22,-34.19l-44.48 -3.05 -18.63 -40.48c-14.74,8.45 -18.03,31.13 -27.54,42.53l-45.68 6.33c3.56,14.73 20.97,19.91 28.81,32.2 7.8,12.21 -0.36,36.73 -1.24,54.07 14.18,-4.35 35.71,-20.49 44.74,-20.8 8.89,-0.31 32.44,13.59 46.51,16.57zm-468.6 3192.58c8.36,39.18 41.21,59.07 44.47,84.9 2.38,18.79 -21.36,69.25 -26.52,93.77 34.84,-2.65 76.57,-28.75 103.98,-20 22.56,7.21 41.82,36.12 77.14,47.02l-2.95 -96.78 75.76 -56.77c-6.58,-6.42 -2.79,-3.94 -12.83,-9.5l-30.36 -9.97c-58.29,-14.19 -42.54,-1.93 -70.66,-100.74 -20.76,10.12 -44.53,53.24 -66.5,73.17l-91.53 -5.1zm-284.1 -295.31c8.36,39.18 41.21,59.07 44.47,84.9 2.38,18.79 -21.36,69.25 -26.52,93.77 34.84,-2.65 76.57,-28.75 103.98,-20 22.56,7.21 41.82,36.12 77.14,47.02l-2.95 -96.78 75.76 -56.77c-6.58,-6.42 -2.79,-3.94 -12.83,-9.5l-30.36 -9.97c-58.29,-14.19 -42.54,-1.93 -70.65,-100.74 -20.77,10.12 -44.54,53.24 -66.51,73.17l-91.53 -5.1zm4078.15 -2537.87c-47.73,40.44 10.18,117.77 62.23,76.81 47.04,-37.02 -8.79,-122.1 -62.23,-76.81zm-100.86 2804.13l-9.84 22.72c33.76,-6.22 14.09,-14.38 35.53,-19.64 11.72,52.75 4.74,15.4 2.71,44.69 -0.95,13.83 1.01,14.68 1.22,23.26 0.39,16.27 1.53,10.04 -3.01,19.11 -21.56,-13.3 -9.27,9.01 -14.7,-29.97 -2.93,-21.02 4.91,-6.72 -5.24,-26.9 -18.89,4.44 -19.87,1.27 -14.93,31 4.44,26.8 21.42,20.84 -11.64,22.69 -8.58,-30.8 6.1,-27.49 -15.81,-46.11 -25.11,57.98 -230.47,274.8 -273.41,321.28 -162.52,175.88 -481.69,391.4 -694.74,487.91 -63.26,28.66 -360.68,156.29 -430.98,155.09 3.99,41.7 0.03,64.77 -46.69,56.89 -9.93,-12.36 -10.8,-11.91 -13.69,-34.3l-22.21 2.31c-59.81,5.67 -136.33,28.26 -197.8,36.27 -851.61,110.93 -1628.4,-161.51 -2208.97,-770.21 -40.27,-42.22 -73.29,-78.93 -109.4,-123.15l-100.31 -126.36 -17.73 -7.53c-2.34,22.63 0.89,33.19 7.31,49.35l-33.1 2.38c12.86,-43.36 14.14,-44.5 -2.3,-56.58 -27.44,15.94 -14.83,34.5 -5.52,55.26l-16.42 5.13c42.47,0.99 43.89,11.06 40.47,47.52 -3.63,38.64 2.52,47.62 9.71,80.48 4.68,3.4 -3.97,-5.05 8.2,7.82 77,81.43 113.84,30.78 133.21,65.38 7.91,66.56 -9.2,82.03 39.38,126.6 52.28,47.97 82.03,15.35 123.05,36.62 20.48,48.97 -9.24,72.55 45.05,120.87 57.08,50.79 105.45,12.62 131.43,34.36 28.17,25.08 -9.49,63.44 59.2,113.85 64.73,47.5 102.06,2.65 136.62,22.34 22.74,20.44 -1.67,68.48 66.04,107.95 67.13,39.14 89.24,-3.38 138.55,8.1 28.01,39.24 11.59,74.22 75.6,103.67 68.85,31.67 93.99,-16.18 142.55,-2.59 14.05,22.38 10.68,35.48 31.72,59.78 18.48,21.33 26.97,21.14 50.6,36.46 55.86,5.66 51.57,2.6 99.04,-9.51 7.4,-10.62 6.85,-8.79 10.83,-19.77l9.71 -28.13 41.94 0.73 2.76 73.11c6.23,18.64 4.98,14.63 20.24,27.59 50.77,7.42 -18.88,-21.68 102.45,-20.73l-6.05 10.07c-6.71,7.97 -1.46,2.26 -10.34,10.89l-20.22 22.53 43.94 -5.7c33.74,2.71 26.62,-25.51 71.15,-21.65 15.5,6.35 34.5,71.15 107.12,78.09 81.86,7.82 77.6,-47.49 132.1,-40.87 98.46,147.63 201.62,10.85 225.93,14.29 38.54,15.69 37.81,61.85 119.73,57.21 73.72,-4.18 70.14,-44.61 106.2,-62.34 46.24,1.95 50.14,57.57 132.44,46.49 70.99,-9.56 85.95,-66.49 100.14,-72.1 43.56,-2.98 32.02,19.9 78.39,32.7 44.83,12.38 55.52,-3.34 88.57,-3.84 10.12,-14.68 12.42,-12.51 19.71,-23.85l8.32 -40.29 23.49 -5.23 38.4 -8.52c18.33,-6.53 6.18,0.22 15.48,-17.69 7.7,-14.86 8.2,-36.94 50.45,-49.5 43.16,-12.82 80.07,2.96 109.26,16.39 -5.48,17.61 -9.75,19.62 -16.65,36.54 -27.94,-5.64 -64.85,-25.62 -87.48,-0.97 -30.68,33.44 18.85,38.72 46.15,35.55 72.21,-17.86 52.46,-76.34 90.01,-88.05 26.86,-6.08 51.86,30.77 147.22,7.34 1.73,-4.71 0.07,-1.53 8.82,-9.28 46.28,-41.05 26.36,-37.45 52.71,-85.59 51.33,-12.85 73.53,36.67 147.38,-6.5 58.72,-34.32 41.67,-83.96 70.21,-104.01 34.04,-14.41 79.86,29.35 139.79,-18.07 51.7,-40.91 35.18,-89.6 59.57,-109.42 20.41,-13.75 133.72,23.88 167.57,-76.15 11.97,-35.35 -7.22,-67.14 38.92,-73.6 26.6,-3.74 63.49,13.28 110.39,-35.7 49.96,-52.17 15.42,-83.5 45.34,-127.15 64.09,-7.5 89.64,-0.62 122.46,-43.99 42.59,-56.26 12.04,-99.02 33.04,-125.89 19.58,-23.72 89.03,3.54 125.47,-73.75 34.31,-72.75 -39.51,-132.48 64.21,-128.43l48.85 -39.89c-13.08,-11.07 15.39,-3.9 -31.8,-7.35 -84.94,-6.22 -40.03,-25.45 -88.17,-27.8l-44.9 77.99zm-2317.45 -4062.03l-27.76 29.11c-47.75,54.76 -36.08,27.43 -87.37,-0.21 -20.48,-11.04 -44.28,-15.43 -70.81,-11.73 -56,7.82 -73.42,43.37 -98.61,78.19 -35.52,1.74 -22.79,2.85 -45.76,-13.73 -35.67,0.58 -8.38,0.97 -31.84,3.63 -8.23,0.94 -16.77,1.57 -25.1,1.48 -22.02,-0.2 -23.87,0.1 -40,-12.98l-21.08 5.78c-43.27,7.04 -42.55,61.44 -70.15,71.58 -7.05,17.18 -26.41,39.82 -10.49,66l2.38 2.14c7.18,-13.4 0,-21.14 7.93,-57.17 22.97,-6.42 29.36,-7.68 56.36,-3.28 7.75,12.45 9.99,23.71 21.47,32.21 43.76,-1.27 303.92,-78.18 605.3,-84.69 175.08,-3.77 316.86,5.67 485.98,33.48 38.31,6.3 123.05,27.13 152.09,25.85l33.56 6.31c-1.13,-15.15 -7.68,-15.93 -0.47,-35.17 17.27,8.33 13.34,4.33 19.93,21.65l46.62 1.42 6.5 34.03c3.62,2.75 201.78,67.83 228.13,78.07 70.13,27.25 147.67,60 217.51,95.62 152.33,77.68 263.47,146.96 386.8,237.39 120.52,88.36 231.32,189.12 330.56,293.98 48.62,51.37 97.52,109.57 143.82,168.51 24.91,31.69 41.17,52.78 68.45,90.86 27.78,38.77 56.78,64.02 60.14,94.63 33.47,-9.01 5.1,5.84 33.88,-21.46 20.16,-19.11 0.74,-9.55 29.17,-18.72 -1.62,-1.45 -3.65,-6.21 -4.39,-4.84 -0.71,1.32 -3.36,-3.71 -4.22,-4.65 -0.91,-0.98 -6.21,-6.85 -7.78,-8.4l-13.48 -9.42c-3.88,-57.18 19.67,-81.16 -20.45,-133.18 -36.8,-47.72 -70.68,-35.6 -116.2,-49.53 -18.28,-48.6 11.14,-80.17 -32.79,-133.67 -46.38,-56.51 -102.76,-25.27 -125.33,-49.77 -19.26,-24.63 9.6,-152.47 -130.74,-153.39 -30.47,-0.19 -19.4,9.56 -38.32,-7.47 -33.39,-25.81 8.87,-64.3 -56.38,-116.27 -63.25,-50.36 -86.13,-9.7 -133.56,-25.75 -27.47,-34.94 -2.95,-74.58 -64.7,-115.41 -65.4,-43.26 -98.2,3.74 -138.73,-15.45 -31.93,-49.28 -2.95,-74.71 -76.36,-107.89 -73.31,-33.14 -129.55,38.33 -142.33,-21.27 -21.53,-16.54 -9.05,-6.25 -33.84,-15.23l11.32 -19.68c-7.67,-28.9 -29.72,-36.09 -59.67,-42.43l-16.75 2.15c-2.19,40.09 19.91,34.93 -7.98,43.27 -12.99,-15.35 -7.89,-24.26 -8.54,-47 -22.23,8.29 7.51,25.1 -61.75,17.61l-0.13 -3.01c12.05,39.43 23.37,5.89 46.09,15.87 -15.76,25.94 -49.61,32.02 -62.12,-9.28 -3.84,4.98 -4.79,5.44 -9.32,14.45 -0.67,1.35 -3.8,10.25 -3.91,10.52 -26.18,-10.5 -62.04,21.34 -81.12,-21.31 -6.29,-14.05 -5.9,-32.83 3.39,-45.44 20.03,-27.15 34.84,0.54 24.6,-35.22l-6.7 -13.31c-123,-37.35 -108.09,18.42 -166.1,13.13 -17.82,-13.57 -16.97,-22.13 -32.35,-40.59 -14.42,-17.31 -21.12,-18.63 -32.84,-35.65 -27.61,-1.16 -62.1,-13.46 -94.01,-2.86 -39.37,13.08 -31.21,34.23 -73.38,31.36 -19.39,-15.22 -22.2,-31.66 -43.73,-48.1 -96.17,-73.47 -160.01,28.31 -188.85,22.62 -34.9,-16.42 -31.59,-61.71 -113.01,-62.79 -79.02,-1.06 -75.15,49.84 -119.56,57.54 -33.13,-7.83 -29.16,-32.4 -73.23,-47.23 -44.77,-15.05 -64.91,4.82 -97.89,4.19zm-2089.49 1494.01c-19.89,19.42 -15.25,6.91 -45.35,22.79 -17.75,9.38 -29.76,17.51 -44.16,24.67 -7.12,26.96 -25.75,37.19 -25.4,81.93 0.33,40.29 23.14,59.39 18.79,80.17 -11.1,31.22 -25.13,17.69 -55.05,39.92 -88.77,65.92 -18.09,158.75 -19.61,195.37 -33.79,30.8 -69.99,25.04 -84.63,92.74 -17.53,81.13 33.38,84.65 31.54,139.83 -35.5,30 -67.2,34.88 -74.79,96.73 -10.68,86.99 52.42,96.43 43.1,132.69 -10.83,42.09 -88.9,21.55 -54.75,169.86 102.11,84.96 -10.65,70.53 -10.49,175.69 0.1,73.14 44.6,76 65.16,112.96 5.95,24.67 -93,109.96 -15.59,192.74 16.17,17.29 36.2,23.83 46.8,39.83 3.22,41.71 -14.33,30.18 -27.33,65.76 -38.24,104.74 63.93,148.98 81.34,163.5 1.13,55.44 -48.47,75.1 -17.46,146.18 29.59,67.82 59.54,46.5 91.09,80.75 11.25,22.04 -69.25,127.19 42.68,192.16 45.57,21.16 60.24,3.88 51.53,62.87l-5.19 21.93 34.62 2.25 1.55 28.78c-10.72,19.02 -3.25,12.23 -33.58,12.19l6.43 21.38c-0.54,18.29 11.82,27.03 20.69,40.47 26.86,-11.28 5.53,11.46 17.92,-29.76 5.07,-16.84 -0.26,-14.86 11.71,-33.28 16.73,-25.76 29.11,-19.27 42.06,-46.66 -13.95,-37.24 -39.08,-76.95 -58.22,-118.51 -233.1,-506.13 -302.91,-1082.67 -176.14,-1630.52 21.55,-93.15 48.3,-182.45 77.96,-272.56 14.69,-44.63 94.66,-228.81 95.23,-246.94 -9.93,-25.87 3.72,-9.65 -24.5,-21.61l0 -46.48c4.76,2.26 15.37,-3.95 -7.96,10.18zm3489.11 -662.83c4.01,13.45 15.55,38.45 11.41,48.04 -4.93,11.43 -23.69,22.84 -24.76,34.32l48.58 1.96 25.8 39.91c2.42,-2.17 1.79,-1.16 4.51,-5.46 0.37,-0.58 0.89,-1.45 1.25,-2.08l5.57 -14.32c1.96,-5.62 5.93,-17.98 8.78,-21.15 9.02,-9.99 31.31,-10.36 45.39,-16.72 -4.76,-13.8 -28.11,-21.62 -38.07,-33.22l-1.11 -47.43c-15.23,4.9 -26.93,22.59 -37.97,26.11 -10.74,3.42 -35.13,-7.58 -49.38,-9.96zm-3064.09 2501.64c-22.05,6.56 -73.4,41.43 -90.38,40.68 -16.03,-0.7 -65.12,-32.09 -84.41,-39.05 -3.19,34.85 20.77,74.62 6.59,105.15 -9.98,21.5 -43.99,40.31 -56.18,70.98 34.18,3.83 86.24,0.45 104.82,21.68 20.19,23.07 23.07,50.32 48.01,70.09 15.72,-24.12 19.96,-69.62 38.83,-86.43 11.93,-10.63 81.67,-20.03 84.74,-29.1 0.7,-2.1 2.94,-1.76 4.29,-2.82 -16.91,-20.82 -42.7,-38.65 -67.79,-55.36l11.48 -95.82zm3704.29 -573.14c-50.77,562.58 -303.9,951.66 -593.06,1215.86 -292.37,267.14 -774.55,502.09 -1343.29,461.68 -973.64,-69.18 -1743.55,-900.29 -1678.13,-1943.63 59.09,-942.39 906.02,-1750.19 1940.54,-1670.87 551.03,42.25 957.91,312.88 1213.91,594.75 262.64,289.17 510.01,788.39 460.03,1342.21zm-3654.29 19.94c52.01,576.75 319.91,963.52 616.06,1236 352.27,324.11 871.36,501.88 1378.28,461.3 753.68,-60.35 1348.57,-561.37 1586.25,-1191.48 185.02,-490.5 154.11,-1063.13 -95.19,-1521.24 -354.11,-650.72 -1030.12,-1041.5 -1781.61,-981.6 -516.32,41.17 -920.46,269.22 -1240.64,614.78 -275.78,297.66 -514.24,815.79 -463.15,1382.24zm-115.42 1375.87c6.76,24.42 148.29,180.87 166.68,199.03 201.95,199.5 362.68,331.79 624.33,471.59 907.57,484.92 2000.85,357.99 2780.09,-296.67 69.06,-58.01 327.22,-305.42 353.68,-373.47l-9.31 -8.01 -52.54 7.16c-17.4,13.09 -50.73,56.56 -66.16,75.08 -224.97,269.92 -580.79,519.41 -914.18,653.99 -69.4,28.01 -362.5,135.17 -435.89,126.31 -1.49,1.06 -3.95,0.47 -4.79,2.66 -0.86,2.2 -3.68,2.04 -4.87,2.51l-95.8 19.19c-35.03,5.56 -72.87,10.66 -109.27,14.63 -160.54,17.53 -333.71,20.53 -495.18,4.82l-207.71 -29.62c-23.88,-8.54 -5.93,-1.14 -15.6,-7.29 -26.18,4.26 -59.85,-5.17 -84.31,-13.17l-169.1 -43.36c-419.34,-109.55 -843.65,-403.93 -1127.07,-725.59l-115.88 -140.5c-2.56,23.5 -6.34,29.05 3.98,47.09l-8.47 5.8c-0.86,0.55 -3.04,1.81 -3.87,2.33l-8.76 5.49zm4010.48 -2850.25c3.05,16.11 9.71,30.68 23.74,39.81l28.15 2.64 3.92 49.97c4.4,36.29 70.68,104.01 77.08,163.68 25.56,15.35 87.27,182.7 96.81,208.11 89.41,238.1 146.12,502.62 154.3,764.27 20.05,372.83 -69.05,796.81 -223.18,1120.57 -24.49,51.44 -49.5,101.43 -76,149.77l-79.85 136.17c-0.23,34 14.73,31.66 45.87,24.12l17.04 -28.71c8.33,-62.53 15.38,-87.75 65.74,-106.26 339.71,-594.63 399.32,-1360.33 163.65,-2034.46 -42.48,-121.55 -202.58,-477.09 -278.43,-547.83l-19.2 4.17 0.36 53.98zm-4203.29 83.49c-26.29,23.16 -106.99,198.66 -129.19,250.86 -39.68,93.34 -73.01,181.16 -102.4,282.86 -126.62,438.22 -139.55,912.19 -17.89,1352.59 30.05,108.77 159.5,485.03 219.02,541.25 23.05,9.59 53.19,22.85 72.47,24.07 -40.95,-83.75 -83.48,-156.34 -121.23,-243.03 -116.84,-268.28 -188.75,-575.1 -198.45,-877.24 -13.34,-415.96 63.79,-756.67 226.98,-1121.58 5.58,-12.47 8.38,-20.18 14.61,-32.07l14.11 -20.31c12.15,-45.16 31.78,-67.15 50.07,-101.21 14.83,-27.6 39.99,-59.16 47.94,-89.04 16.57,-34.38 2.24,-37.81 6.02,-78.05 -7.62,-7.23 12.44,-17.58 -11.66,-2.8 -7.78,67.75 -15.48,89.85 -70.4,113.7zm4083.98 258.48l-46.54 -30.74 15.02 54.68c-15.33,14.75 -32.88,21.58 -42.79,37.62l56.89 -0.21 19.71 54.05 19.69 -54.84 56.93 -1.89c-4.15,-11.13 -31.97,-26.88 -44.4,-33.12l13.7 -57.85 -48.21 32.3zm-4139.96 2364.06c-15.44,50.19 8.14,94.24 36.08,115.3 26.37,-9.93 6.81,-48.7 2.21,-62.71l31.64 -1.03c-6.51,22.52 -21.72,58.79 6.6,80.06 18.5,-20.43 7.54,-36.62 2.96,-57.42l56.88 -9.73c-2.34,-16.17 -29.01,-48.69 -38.09,-65.67 -11.44,-7.12 -10.45,-5.39 -27.18,-12.17 -14.53,19.04 -45.88,15.01 -71.1,13.37zm119.56 -35.83l72.14 114.03 50.58 -5.96c14.65,-3.35 3.05,5.63 8.77,-12.14 -21.25,-22.03 -31.13,-46.26 -52.37,-66.96 -43.87,-15.14 -61.06,-47.94 -64.42,-100.1l-10 -9.67 -4.7 80.8zm645.58 -2323.04c11.14,-25.93 10.99,-28.65 31.95,-42.9 5.35,-29.37 94.93,-129.72 113.81,-148.67 26.54,-26.61 40.23,-43.78 64.66,-68.08 549.43,-546.38 1379.38,-670.25 2078.71,-294.77 225.67,121.18 386.16,271.69 540.18,462.83 13.79,17.11 22.92,24.24 26.83,44.7 37.27,20.83 137.15,208.44 163.45,262.82 164.37,340 214.37,715.34 143.18,1095.56 -53.96,288.25 -176.28,528.68 -333.41,735.54 -60.16,79.2 -257.4,292.96 -332.54,321.99 -15.08,32.15 -209.64,142.16 -264.58,170.11 -666.48,339.03 -1453.07,210.47 -1989.93,-296.03 -34.19,-32.26 -193.62,-192.01 -204.48,-236.82 -10.36,-7.09 -4.15,-1.66 -12.69,-10.26 -0.01,-0.02 -9.56,-11.14 -9.59,-11.17 -6.59,-9.35 -9.35,-16.26 -15.15,-29.59 -60.16,-45.15 -194.07,-365.19 -212.54,-420.61 -123.55,-370.51 -118.75,-739.05 -2.07,-1109.09 24.07,-76.33 61.26,-162.29 93.4,-225.66 19.41,-38.28 35.78,-67.33 56.3,-103.55 11.43,-20.18 46.86,-84.76 64.51,-96.35zm1314.47 -781.53c-928.7,69.32 -1707.62,879.41 -1626.9,1900.58 46.28,585.45 368.14,1066.58 835.83,1361.52 297.61,187.68 697.44,288.83 1060.56,255.7 568.61,-51.87 1078.43,-358.13 1364.56,-836.21 54.79,-91.55 107.66,-188.55 147.64,-297.81 88.17,-240.99 129.19,-484.85 108.85,-760.5 -68.26,-925.31 -881.22,-1698.62 -1890.54,-1623.28zm-817.63 -676.22c5.3,2.23 5.93,-1.28 2.98,8.41l-6.17 14.08c-0.88,2.08 -2.01,4.68 -2.8,6.49 -0.83,1.96 -2.21,4.58 -2.94,7.01 40.89,3.1 24.47,1.16 53.66,-9.21 -13.72,-33.18 -14.8,-30.97 5.81,-59.27l57.42 -2.3c-12.36,22.34 -11.63,41.61 0.35,62.61l-24.52 1.96 12.71 5.98c23.78,5.02 -11.58,0.46 16.85,2.22l-9.62 15.38 61.81 -20.31c-8.04,-5.65 -0.04,0.11 -15.88,-4.05 -9.64,-2.52 -0.82,6.78 -20.22,-7.39 -21.3,-15.53 -11.29,-40.44 -10.77,-43.55 29.38,-16.93 18.19,-18.25 54.9,-6.85 -8.34,-18.18 -1.29,-7.28 -9.48,-20.83 -80.46,-36.45 -135.65,-6.54 -164.09,49.62zm-1262.59 1095.44l-21.65 19.37c12.48,26.68 25.74,37.65 60.06,33.24 10.19,-14.85 25.31,-38.54 29.93,-52.05l-8.61 -34.74c-21.47,-7.52 -37.01,-18.67 -54.23,3.05l-5.5 31.13zm3280.67 -1033.67c-7.97,-26.79 -4.19,-22.22 -22.52,-34.91l-11.32 19.68c24.79,8.98 12.31,-1.31 33.84,15.23zm-1846.8 1774.69c14,37.68 76.28,19.98 119.49,0 -91.72,-114.93 -118.4,-1.49 -119.49,0zm997.78 -546.68c-33.99,33.73 16.09,158.03 11.33,226.71 -21.3,306.66 -287.63,1581.57 -97.26,1798.95 16.2,-35.64 -20.34,-531.42 -16.76,-635.84 6.82,-198.95 32.23,-433.39 91.63,-613.11 203.88,-3.59 479.47,41.26 493.2,246.85 22.59,338.16 -65.09,386.04 -370.72,374.5 60.35,52.68 -65.89,19.44 103.07,46.3 14.78,2.34 90.81,-3.29 107.57,-6.5 82.21,-15.68 89.11,-33.77 142.62,-64.77l-77.21 656.83c66.23,-63.62 107.97,-505.33 114.43,-608.95 13.54,127.76 41.27,523.92 99.55,604.61 33.12,-56.35 -54.2,-531.45 -62.9,-655.98 40.41,24.6 77.35,57.18 149.02,69.39 206.06,35.1 190.91,-33.24 194.74,-37.26 -133.8,-3.07 -264.39,28.85 -328.68,-92.58 -49.82,-94.08 -51.23,-285.47 -23.17,-373.59 40.43,-79.59 243.24,-144.84 359.8,-156.04 26.35,-2.53 45.54,-3.27 71.6,0.04 236.67,30.11 75.79,1175.14 134.32,1250.22 143.57,-429.54 -43.2,-1166.62 -70.66,-1560.9 -16.17,-232.06 -58.66,-84.35 -24.08,-380.31 15.99,-136.66 15.33,-55.89 -17.5,-94.58 -78.95,322.01 45.43,446.27 13.44,739.89 -192.78,7.14 -383.7,42.2 -475.54,168.31 -89.88,-37.36 -120.56,-82.75 -234.42,-121.28 -95.11,-32.17 -198.99,-29.51 -288.45,-56.36 -10.48,-209.32 110.95,-592.36 1.03,-724.55zm-734.4 1010.95c-68.66,507.14 -350.13,501.57 -406.58,-0.43l406.58 0.43zm-678.28 -666.49c24.24,-115.11 57.48,-268.77 -26.49,-363.49 -29.87,31.43 17.14,162.97 13,225.09 -20.67,309.83 -288.83,1563.5 -98.92,1800.06 22.24,-46.86 -18.33,-448.24 -17.34,-551.27 1.92,-201.67 21.58,-350.69 53,-547.37 65.52,-12.79 134.71,27.59 200.15,54.26 105.22,42.89 92.85,22.26 124.34,131.98 48.17,167.95 74.66,246.43 183.81,339.68 -9,104.19 -23.63,208.99 -38.94,309.36 -19.27,126.44 -56.47,213.71 -5.44,268.49l89.79 -569.9c14.78,120.64 46.43,487.97 98,564.59 40.37,-67.27 -46.97,-443.22 -57.61,-572.54 140,-137.87 87.4,-14.47 184.93,-346.92 30.02,-102.26 26.32,-84.17 129.61,-125.87 64.22,-25.92 120.31,-52.92 191.91,-69.24 70.94,541.48 69.95,508.42 29.84,1007.92l15.37 105.91c83.21,-169.91 39.26,-844.79 4.23,-1044.75l-112.74 -752.81c-6.76,-121.27 46.76,-173.02 2.3,-230.89 -46.79,146.39 -45.72,211.49 -12.58,373.75 44.95,219.95 -43.88,180.16 -82.31,335.4l65.66 -56.54c16.93,-18.3 10.41,-19.39 33.91,-44.62l40.53 268.49c-282.34,91.73 -212.78,117.45 -562.13,118.68 -169.22,0.61 -397.48,-29.79 -500.95,-139.49l37.1 -251.15c56.56,63.47 20.23,67.09 98.07,101.44 -42.18,-164.26 -131.4,-94.54 -80.1,-338.25zm1383.92 2945.15c-26.85,-29.45 -29.11,-32.94 -20.71,-56.42 5.13,2.85 0.74,-0.15 5.01,3.56l38.25 43.37c45.87,44.39 47.09,41.37 93.02,75.87 21.66,16.27 27.85,9.51 39.86,45.87 -46.3,-16.34 -122.13,-75.73 -155.43,-112.25zm297.06 94.59c3.87,-39.8 10.1,-32.13 28.83,-55.62 35.07,-43.95 69.15,-81.52 93.05,-138.4l6.75 -12.38c24.24,23.71 -3.33,57.12 -22.89,88.92 -6.34,10.29 -10.9,15.35 -17.94,25.15 -16.02,22.31 -59.95,75.96 -87.8,92.33zm-308.17 -166.33c18.47,-32.07 29.08,-25.18 54.67,-25.54 29.16,-0.4 25.21,-3.62 30.67,7.67 4.02,8.31 8.35,19.84 12.07,28.93 8.5,20.77 45.59,108.28 47.06,123.35l-38.93 -27.73c-29.91,-22 -90.55,-73.94 -105.54,-106.68zm338.93 -57.53c51.65,-12.49 59.62,-21.74 85.98,4.58 -2.65,24.42 -35.5,71.85 -46.21,89.62 -15.5,25.72 -59.84,74.15 -61.2,76.24 -2.46,-22.21 18.71,-137.49 21.43,-170.44zm-128.84 21.92c38.8,-4.76 77.24,-13.96 115,-18.54 -2.02,24.9 -7.26,52.41 -10.57,77.5 -3.32,25.24 -6.42,50.04 -9.57,75.5 -6.41,51.88 -6.83,108.08 -63.8,114.62 -55.84,6.41 -70.44,-50.45 -89.22,-99.12 -9.19,-23.81 -18.09,-47.08 -27.49,-70.8 -8.58,-21.67 -21.69,-48.39 -28.37,-69.91 38.53,-2.86 75.03,-4.47 114.02,-9.25zm231.16 -47.23c6.64,8.96 8.92,23.95 9.37,36.67l-32.04 -30.94 22.67 -5.73zm-465.96 56.65l25.2 0.41 -24.91 38.16 -0.29 -38.57zm6.85 -52.6c30.23,-3.52 76.84,-0.11 110.4,-1.58 80.24,-3.54 146.84,-12.14 225.39,-28.32 34.02,-7.01 72.81,-20.13 104.52,-25.16l14.9 38.26c-149.77,41.31 -303.67,64.21 -460.11,56.09l4.9 -39.29zm446.74 -70.08c-26.67,3.83 -64.87,16.74 -93.41,23.22 -104.52,23.74 -203.01,34.17 -310.31,33.78 -62.28,-0.22 -52.7,-11.99 -59.23,37.68 -4.65,35.36 -9.46,59.65 6.75,94.23 26.18,55.84 121.76,123.15 174.73,149.61 10.27,5.12 26.88,10.66 35.25,16.14 14.67,9.6 34.34,33.33 81.62,15.58 26.66,-10.01 20.33,-21.1 45.08,-38.64 4.65,-3.3 1.66,-0.95 7.07,-5.38 60.13,-49.33 161.22,-159.85 145.1,-242.31 -3.85,-19.72 -24.01,-70.03 -32.65,-83.91zm-1019.08 185.11l10.04 12.98c23.03,45.98 16.08,87.86 -9.8,129.28 -5.81,-7.53 -9.24,-20.64 -14.39,-30.18 -6.71,-12.43 -15.74,-17.76 -12.14,-32.36 5.84,-23.73 18.84,-56.09 26.29,-79.72zm-9.94 179.83c-32.13,-33.08 -72.66,-106.62 -144.43,-157.94 24.37,-3.77 141.2,61 144.43,157.94zm159.9 19.01c15.01,-75.64 106.61,-135.39 189.1,-130.02 -13.53,9.11 -33.51,18.28 -48.81,27.35 -15.74,9.34 -35.57,21.31 -49.14,31.65 -16.45,12.53 -24.21,17.58 -44.69,33.9l-46.46 37.12zm-23.23 21.58c-20.94,1.1 -42.05,1.02 -63.74,-1.75 -59.71,-7.61 -55.98,-6.49 -57.91,-47.75 -0.99,-21.33 70.84,-80.18 13.15,-175.24 -13.97,-23.03 -11.51,-15.34 -0.82,-47.68 5.41,-16.36 10.77,-34.43 17.36,-50.92l138.79 15.09c6.57,15.18 19.07,142.59 22.71,169.77 2.84,21.27 -5.41,22.44 -15.9,33.27 -38.68,39.93 -37.28,60.22 -53.64,105.21zm-166.83 -148.12c-40.63,-35.54 -80.13,-64.61 -150.37,-79.76 2.32,-19.79 21.16,-116.78 29.69,-128.35l178.08 30.57 -57.4 177.54zm410.97 -148.24l0.1 129.16c-47.55,-2.55 -83.14,1.07 -124.87,17.73 -11.86,4.74 -21.78,11.8 -33.6,15.96l-21.16 -173.19 179.53 10.34zm-523.88 -112.94c145.9,25.49 246.26,43.22 394.08,51.93 42.15,2.49 89.12,2.12 130.08,6.34l-1.5 36.89c-87.54,-1.18 -179.53,-7.39 -267.38,-17.19 -47.05,-5.26 -223.99,-28.71 -261.81,-41.52l6.53 -36.45zm-54.63 190.35c27.87,22.82 31.47,19.61 69.98,55.28 58.31,54.01 71.11,76.14 114.87,134.01 8.99,11.88 12.49,25.82 29.51,32.07 15.38,5.64 43.03,10.05 60.4,11.91 62.47,6.69 66.83,4.13 94.66,-23.28 53.91,-53.1 152.33,-117.45 224.54,-144.25l-0.31 -210.84c-7.21,-3.41 -243.21,-16.48 -289.56,-21.57 -77.72,-8.55 -163.32,-21.48 -239.39,-38.08 -32.87,-7.17 -21.66,2.49 -41.41,89.42 -6.79,29.85 -21.97,86.94 -23.29,115.33zm-382.03 -32.3c43.46,-88.78 153.09,-116.29 234.27,-96.66 -77.92,27.6 -71.48,11.07 -178.53,65.51l-55.74 31.15zm-131.09 -63.66c-5.05,-9.9 -10.29,-47.75 -13.55,-62.02 -20.06,-87.75 -60.13,-149.46 -66.94,-173.83 65.75,49.37 113.05,150.53 80.49,235.85zm314.33 -53.13c-32.38,-0.11 -58.29,3.51 -83.78,12.9 -65.43,24.08 -85.12,45.83 -128.25,124.85 -35.76,-3.04 -78,-14.02 -98.65,-46.64 12.91,-37.08 22.28,-60.63 22.87,-97.16 2.06,-127.77 -105.86,-186.9 -126.08,-215.33l24.11 -33.29c14.84,6.58 38.93,24.54 54.22,33.92 95.56,58.68 210.35,112.31 315.61,150.46 25.81,9.36 106.87,31.16 121.8,39.76l-9.34 39.66c-16.36,1.45 -69.01,-9.05 -92.51,-9.13zm-30.14 -90.67c-104.05,-39.03 -201.28,-85.19 -296.25,-142.93 -9.46,-5.75 -59.73,-39.98 -64.34,-39.94 -9.61,0.08 -41.27,50.51 -44.49,57.18 52.07,73.9 91.87,185.24 104.01,275.16 3.71,27.51 -3.75,53.98 60.1,82.1 62.25,27.41 75.99,4.42 100.16,-11.51 70.58,-46.53 145.45,-75.17 226.64,-93.16 14.41,-3.19 31.83,-5.19 47.4,-9.38 7.27,-12.01 16.17,-58.16 15.34,-69.58l-148.57 -47.94zm-1128.01 -1556.94l-246.62 21.98 0 0 -1.1 -12.4 0 0 -4.66 -52.27c-2.18,-24.44 1.66,-44.03 11.6,-58.8 9.9,-14.77 24.66,-23.04 44.32,-24.79 19.67,-1.75 35.67,3.77 48.01,16.56 2.15,2.21 4.16,4.72 6.11,7.52l0 0c2.42,-7.89 5.66,-14.91 9.7,-21.08 10.93,-16.16 27.31,-25.22 49.25,-27.18 21.77,-1.93 39.46,3.65 52.95,16.84 13.55,13.18 21.43,32.4 23.67,57.63l5.66 63.59 0 0 1.11 12.4zm-226.83 -4.66l84.32 -7.51 0 0 -3.88 -43.54c-1.38,-15.44 -6.17,-27.22 -14.34,-35.34 -8.17,-8.06 -18.89,-11.53 -32.06,-10.36 -13.26,1.19 -23.23,6.77 -29.85,16.82 -6.67,10 -9.23,23.33 -7.75,39.94l3.56 39.99zm106.32 -9.47l96.32 -8.58 0 0 -4.57 -51.27c-1.55,-17.5 -7,-30.78 -16.36,-39.86 -9.33,-9.07 -21.6,-12.91 -36.71,-11.57 -15.05,1.35 -26.41,7.78 -33.99,19.39 -7.54,11.54 -10.48,26.85 -8.78,45.95l4.09 45.94zm104.83 -176.26l-247.41 9.71 0 0 -0.49 -12.36 -0.48 -12.37 0 0 247.41 -9.72 0 0 0.48 12.37 0.49 12.37zm-4.05 -77.29l-247.58 -2.57 0 0 0.12 -12.38 0.13 -12.38 0 0 142.86 1.48 0 0 -141.68 -116.24 0 0 0.17 -15.51 0.16 -15.55 0 0 120.25 100.46 0 0 127.33 -97.89 0 0 -0.16 15.71 -0.16 15.67 0 0 -108.93 81.85 0 0 38.1 31.86 0 0 69.65 0.72 0 0 -0.13 12.38 -0.13 12.39zm6.56 -197.8l-246.11 -27.1 0 0 1.35 -12.3 1.36 -12.31 0 0 246.11 27.09 0 0 -1.35 12.31 -1.36 12.31zm9.69 -97.87l0 0 -1.96 12.23 -1.97 12.23 0 0 -244.47 -39.24 0 0 2.67 -16.58 2.68 -16.74 0 0 224.1 -104.38 0 0 0 0 -202.13 -32.45 0 0 1.96 -12.22 1.96 -12.23 0 0 244.48 39.25 -1.98 12.22 -1.98 12.39 -238.1 111.05 0 0 0 0 214.74 34.47zm40.65 -219.35l-239.33 -63.47 0 0 3.17 -11.96 3.18 -11.97 0 0 239.32 63.47 0 0 -3.17 11.96 -3.17 11.97zm90.83 -281.16l-206.22 -90.47 0 0 -22.72 51.77 0 0 -10.21 -4.48 -10.31 -4.53 0 0 55.38 -126.22 0 0 10.17 4.44 10.36 4.56 0 0 -22.71 51.78 0 0 206.21 90.47 0 0 -4.97 11.34 -4.98 11.34zm30.57 -83.52l-163.45 -214.24 6.66 -11.8 6.66 -11.8 267.94 28.92 0 0 -6.68 11.86 -6.69 11.86 0 0 -90.17 -10.4 0 0 -57.09 101.24 0 0 55.66 71.59 0 0 -6.43 11.41 -6.41 11.36zm-134.84 -213.09l77.15 99.46 0 0 48.05 -85.21 0 0 -125.3 -14.06 0.1 -0.19zm279.81 -38.15l0 0 -7.1 10.14 -7.1 10.15 0 0 -202.78 -142.09 0 0 9.63 -13.74 9.72 -13.89 0 0 247.19 3.99 0 0 0 0 -167.66 -117.49 0 0 7.11 -10.13 7.1 -10.14 0 0 202.78 142.08 -7.12 10.15 -7.19 10.26 -262.69 -4.09 0 0 0 0 178.11 124.8zm219.67 -269.57c-25.73,27.35 -56.44,41.93 -92.21,43.81 -35.79,1.92 -66.72,-9.39 -92.88,-34.01 -26.11,-24.56 -39.23,-54.9 -39.39,-90.95 -0.15,-36.06 12.73,-67.81 38.64,-95.35 16.66,-17.71 37.24,-29.98 61.72,-36.81 24.49,-6.82 47.25,-6.6 68.31,0.64l0 0 -19.72 20.96 0 0c-15.93,-3.57 -32.55,-2.67 -49.93,2.79 -17.4,5.47 -31.84,14.31 -43.34,26.53 -21.4,22.75 -32,48.99 -31.81,78.73 0.16,29.79 11.11,54.86 32.72,75.18 21.65,20.37 47.22,29.8 76.77,28.27 29.51,-1.49 54.86,-13.46 76.03,-35.97 19.9,-21.16 29.16,-46.06 27.86,-74.71 -0.9,-17.76 -5.5,-33.8 -13.86,-48.09l0 0 -94.68 100.64 -16.09 -15.13 114.71 -121.93c21.65,23.2 32.8,50.84 33.33,82.82 0.81,35.2 -11.23,66.07 -36.18,92.58zm99.37 -111.56l-71.53 -259.79 10.59 -8.47 10.59 -8.46 237.71 126.98 0 0 -10.63 8.49 -10.64 8.5 0 0 -79.75 -43.34 0 0 -90.78 72.56 0 0 24.87 87.21 0 0 -10.24 8.18 -10.19 8.14zm-45.42 -248.04l34.39 121.09 0 0 76.41 -61.08 0 0 -110.97 -59.87 0.17 -0.14zm417.21 -228.67l0 0c-7.8,-11.58 -17.22,-19.03 -28.1,-22.44 -10.94,-3.43 -21.87,-2.27 -32.81,3.5 -11.21,5.9 -18.76,14.43 -22.73,25.66 -3.98,11.24 -3.2,22.05 2.23,32.36 5.31,10.07 12.94,16.38 22.89,18.88 9.96,2.51 24.15,1.7 42.63,-2.49 24.68,-5.44 44.76,-5.5 60.16,-0.07 15.36,5.47 27.64,16.89 36.84,34.36 9.37,17.76 10.84,36.22 4.38,55.31 -6.44,19.09 -19.02,33.61 -37.73,43.47 -19.87,10.47 -39.13,12.95 -57.88,7.37 -18.68,-5.52 -33.12,-17.97 -43.28,-37.25l0 0 21.6 -11.38 0 0c9.47,14.04 20.15,22.91 31.93,26.59 11.73,3.72 24.21,2.05 37.34,-4.87 12.78,-6.74 21.34,-16.55 25.79,-29.41 4.46,-12.94 3.53,-25.33 -2.73,-37.21 -6.51,-12.33 -15.55,-20.17 -27.07,-23.49 -11.47,-3.23 -27.67,-2.5 -48.67,2.14 -22.29,4.95 -40.36,5.13 -54.17,0.44 -13.72,-4.62 -24.57,-14.53 -32.6,-29.78 -8.53,-16.18 -9.84,-33.01 -3.91,-50.45 5.99,-17.47 17.55,-30.69 34.68,-39.71 17.46,-9.21 35,-11.21 52.6,-6.06 17.65,5.14 30.95,16.28 39.93,33.3l0 0 -21.32 11.23zm261.87 -16.07c11.79,28.73 14.17,53.63 7.06,74.68 -7.04,21.04 -23.09,36.72 -48,46.95 -23.89,9.79 -46.12,9.52 -66.82,-0.85 -20.67,-10.4 -36.65,-29.34 -47.95,-56.9l-58.82 -143.36 0 0 11.47 -4.71 11.45 -4.69 0 0 60.09 146.46c8.31,20.28 19.89,34.4 34.73,42.23 14.8,7.85 30.59,8.31 47.47,1.38 17.49,-7.17 28.71,-18.46 33.5,-33.81 4.86,-15.37 2.89,-33.67 -5.81,-54.88l-60.1 -146.48 0 0 11.46 -4.69 11.46 -4.7 0 0 58.81 143.37zm128.86 -138.65l0 0c-5.42,-12.87 -13.23,-21.99 -23.24,-27.43 -10.09,-5.47 -21.04,-6.44 -32.89,-2.88 -12.12,3.65 -21.18,10.57 -27.23,20.82 -6.06,10.27 -7.38,21.02 -4.03,32.19 3.28,10.9 9.54,18.56 18.84,22.93 9.29,4.38 23.37,6.31 42.31,5.75 25.26,-0.6 44.98,3.2 59.05,11.49 14.02,8.31 23.88,21.89 29.55,40.79 5.77,19.24 3.68,37.63 -6.33,55.13 -10,17.5 -25.13,29.33 -45.39,35.4 -21.51,6.47 -40.88,5.19 -58.22,-3.88 -17.26,-9.01 -29.04,-24 -35.31,-44.88l0 0 23.39 -7.03 0 0c6.6,15.61 15.37,26.37 26.22,32.25 10.81,5.9 23.38,6.67 37.58,2.4 13.83,-4.16 24.13,-12.14 30.96,-23.91 6.86,-11.85 8.34,-24.18 4.48,-37.05 -4.02,-13.35 -11.4,-22.77 -22.05,-28.25 -10.64,-5.37 -26.68,-7.76 -48.18,-7.25 -22.83,0.57 -40.59,-2.72 -53.25,-9.97 -12.58,-7.18 -21.31,-18.99 -26.26,-35.5 -5.27,-17.52 -3.31,-34.29 5.86,-50.26 9.23,-15.99 23.12,-26.74 41.66,-32.31 18.91,-5.68 36.5,-4.27 52.78,4.17 16.34,8.43 27.26,21.92 32.79,40.34l0 0 -23.09 6.94zm112.87 154.72l-47.37 -243.01 0 0 12.21 -2.39 0 0 59.99 -11.69c27.7,-5.4 50.63,-3.16 68.74,6.65 18.12,9.88 29.4,26.15 33.85,48.92 4.44,22.82 0.08,42.13 -13.01,57.98 -13.15,15.92 -33.59,26.54 -61.27,31.94l-47.85 9.32 0 0 19.01 97.55 0 0 -12.15 2.37 -12.15 2.36zm1.07 -123.95l0 0 47.89 -9.33c20.03,-3.9 34.76,-11.44 44.27,-22.66 9.49,-11.17 12.67,-24.8 9.56,-40.78 -3.11,-15.93 -11.19,-27.37 -24.19,-34.26 -13.02,-6.84 -29.51,-8.34 -49.55,-4.44l-47.89 9.34 0 0 19.91 102.13zm190.81 90.79l0 0 -35.09 -245.1 0 0 134.15 -19.2 0 0 1.57 10.98 1.6 11.2 0 0 -109.63 15.69 0 0 12.61 88.12 0 0 106.33 -15.22 1.57 10.99 1.6 11.2 0 0 -106.33 15.23 0 0 12.94 90.41 0 0 109.64 -15.69 0 0 1.57 10.99 1.6 11.21 0 0 -134.13 19.19zm207.08 -26.18l0 0 -12.37 -0.14 -12.4 -0.15 0 0 2.89 -247.57 0 0 16.79 0.18 16.95 0.2 0 0 136.18 206.33 0 0 0 0 2.39 -204.71 0 0 12.38 0.14 12.37 0.15 0 0 -2.87 247.58 -12.39 -0.15 -12.53 -0.14 -144.85 -219.19 0 0 0 0 -2.54 217.47zm346.59 -167.35l0 0c0.11,-13.97 -3.43,-25.44 -10.48,-34.4 -7.09,-9.02 -16.75,-14.24 -29.04,-15.67 -12.58,-1.47 -23.63,1.3 -33.26,8.31 -9.63,7.03 -15.11,16.37 -16.45,27.95 -1.31,11.3 1.4,20.82 8.19,28.53 6.8,7.69 18.96,15.06 36.58,22.04 23.43,9.47 40.02,20.77 49.65,33.96 9.58,13.19 13.24,29.57 10.96,49.17 -2.33,19.95 -11.55,36 -27.67,48.1 -16.11,12.1 -34.7,16.96 -55.7,14.52 -22.31,-2.6 -39.59,-11.46 -51.92,-26.65 -12.27,-15.12 -17.15,-33.55 -14.62,-55.21l0 0 24.25 2.82 0 0c-0.11,16.95 3.67,30.3 11.3,40 7.57,9.7 18.81,15.39 33.54,17.1 14.36,1.67 26.97,-1.58 37.9,-9.68 11,-8.16 17.24,-18.88 18.8,-32.23 1.61,-13.85 -1.42,-25.43 -9.04,-34.68 -7.63,-9.14 -21.41,-17.7 -41.35,-25.75 -21.19,-8.53 -36.19,-18.59 -44.93,-30.27 -8.71,-11.58 -12.04,-25.88 -10.05,-43 2.11,-18.17 10.56,-32.79 25.32,-43.81 14.81,-11.03 31.82,-15.39 51.04,-13.15 19.61,2.28 35.22,10.54 46.8,24.75 11.66,14.21 16.34,30.93 14.12,50.04l0 0 -23.94 -2.79zm159.1 216.47c-35.7,-8.02 -63.24,-26.88 -82.58,-56.6 -19.34,-29.71 -25.04,-62.09 -17.18,-97.13 7.85,-34.99 26.85,-61.82 57.03,-80.43 30.18,-18.65 63.15,-23.94 98.85,-15.93 35.8,8.04 63.34,26.91 82.61,56.66 19.28,29.7 25,62.07 17.14,97.07 -7.85,35.03 -26.86,61.87 -56.98,80.48 -30.13,18.61 -63.09,23.91 -98.89,15.88zm4.83 -21.56c29.01,6.52 55.74,2 80.19,-13.49 24.41,-15.55 39.85,-37.81 46.37,-66.81 6.49,-28.95 2.03,-55.66 -13.39,-80.16 -15.48,-24.51 -37.71,-40.01 -66.73,-46.53 -28.88,-6.48 -55.61,-1.95 -80.08,13.58 -24.47,15.55 -39.97,37.78 -46.46,66.74 -6.51,29 -2,55.73 13.48,80.24 15.49,24.45 37.73,39.95 66.62,46.43zm160.31 58.51l76.56 -235.47 0 0 11.83 3.85 0 0 59.98 19.5c27.52,8.95 46.97,22.54 58.22,40.8 11.25,18.26 13.02,39.13 5.38,62.61 -7.61,23.4 -21.36,39.16 -41.17,47.27 -15.24,6.12 -32.86,7.31 -52.88,3.55l0 0 39.01 108.91 0 0 -14.9 -4.84 -14.96 -4.86 0 0 -45.75 -133.45 0 0 25.36 8.24c20.1,6.54 37.32,6.93 51.69,1.16 14.36,-5.72 24.31,-17.02 29.76,-33.78 5.5,-16.91 4.1,-31.91 -4.12,-45.08 -8.2,-13.17 -22.37,-22.99 -42.52,-29.55l-48.21 -15.67 0 0 -69.73 214.46 0 0 -11.78 -3.82 -11.77 -3.83zm192.96 66.08l95.21 -228.57 0 0 11.43 4.76 11.43 4.77 0 0 -95.21 228.55 0 0 -11.43 -4.75 -11.43 -4.76zm175.62 89.69c-32.56,-16.68 -54.51,-41.83 -65.79,-75.44 -11.29,-33.6 -8.73,-66.38 7.65,-98.34 16.35,-31.92 41.45,-53.14 75.31,-63.61 33.9,-10.52 67.15,-7.4 99.7,9.28 32.66,16.74 54.61,41.89 65.83,75.52 11.24,33.58 8.68,66.36 -7.68,98.27 -16.37,31.96 -41.47,53.19 -75.3,63.69 -33.82,10.48 -67.06,7.36 -99.72,-9.37zm10.07 -19.66c26.46,13.57 53.47,15.87 81.02,6.99 27.52,-8.95 48.05,-26.65 61.6,-53.09 13.52,-26.41 15.89,-53.39 7.09,-80.97 -8.86,-27.59 -26.52,-48.17 -52.97,-61.73 -26.36,-13.49 -53.37,-15.8 -80.94,-6.88 -27.58,8.94 -48.15,26.59 -61.69,53 -13.55,26.45 -15.86,53.46 -7,81.07 8.89,27.54 26.53,48.11 52.89,61.61zm289.38 205.3l158.78 -189.99 0 0 9.54 7.98 0 0 40.26 33.64c18.84,15.74 29.98,32.32 33.41,49.79 3.45,17.43 -1.15,33.71 -13.81,48.86 -12.66,15.16 -27.87,22.57 -45.64,22.26 -3.08,-0.03 -6.28,-0.39 -9.63,-1l0 0c3.86,7.29 6.54,14.55 8.05,21.77 3.69,19.14 -1.46,37.14 -15.59,54.05 -14.02,16.77 -30.48,25.33 -49.34,25.55 -18.91,0.27 -38.07,-7.75 -57.5,-23.99l-48.99 -40.95 0 0 -9.54 -7.97zm163.61 -157.17l-54.27 64.95 0 0 33.54 28.04c11.9,9.94 23.62,14.88 35.13,14.83 11.48,-0.07 21.51,-5.21 29.99,-15.35 8.54,-10.23 11.64,-21.23 9.21,-33 -2.37,-11.78 -9.98,-23.03 -22.78,-33.72l-30.82 -25.75zm-68.44 81.9l-62.02 74.2 0 0 39.5 33.01c13.48,11.27 26.72,16.81 39.77,16.6 13.01,-0.19 24.39,-6.15 34.13,-17.79 9.69,-11.6 13.15,-24.18 10.31,-37.75 -2.83,-13.48 -11.59,-26.39 -26.3,-38.69l-35.39 -29.58zm48.87 199.64l175.34 -174.82 0 0 8.78 8.81 0 0 44.53 44.67c20.43,20.49 31.57,41.45 33.27,62.83 1.7,21.36 -6.21,40.75 -23.71,58.2 -17.42,17.37 -36.83,25.14 -58.16,23.34 -16.36,-1.49 -32.59,-8.45 -48.7,-20.89l0 0 -14.84 114.72 0 0 -11.06 -11.09 -11.11 -11.15 0 0 20 -139.64 0 0 18.83 18.88c14.92,14.97 30.08,23.15 45.51,24.56 15.37,1.45 29.38,-4.1 41.85,-16.54 12.61,-12.56 18.19,-26.55 16.86,-42.01 -1.31,-15.46 -9.45,-30.65 -24.41,-45.67l-35.79 -35.89 0 0 -159.71 159.23 0 0 -8.74 -8.77 -8.74 -8.77zm143.27 149.8l189.69 -159.13 0 0 7.96 9.49 7.96 9.48 0 0 -189.7 159.13 0 0 -7.95 -9.49 -7.96 -9.48zm47.67 55.5l0 0 199.1 -147.19 0 0 80.56 108.96 0 0 -8.92 6.59 -9.1 6.74 0 0 -65.84 -89.06 0 0 -71.57 52.92 0 0 63.85 86.36 -8.93 6.61 -9.1 6.72 0 0 -63.85 -86.36 0 0 -73.45 54.29 0 0 65.84 89.06 0 0 -8.93 6.59 -9.1 6.74 0 0 -80.56 -108.97zm104.76 144.99l210.46 -130.45 0 0 65.93 106.37 0 0 -9.43 5.84 -9.62 5.96 0 0 -52.88 -85.32 0 0 -75.66 46.89 0 0 50.95 82.2 -9.44 5.85 -9.62 5.96 0 0 -50.94 -82.19 0 0 -96.69 59.93 -6.53 -10.52 -6.53 -10.52zm377.57 337.13l0 0c12.39,-6.44 20.87,-14.93 25.49,-25.36 4.65,-10.49 4.74,-21.47 0.25,-33.01 -4.59,-11.8 -12.21,-20.27 -22.92,-25.49 -10.72,-5.22 -21.54,-5.68 -32.4,-1.45 -10.61,4.14 -17.74,11 -21.36,20.6 -3.62,9.61 -4.43,23.8 -2.37,42.64 2.61,25.13 0.4,45.09 -6.76,59.78 -7.16,14.63 -19.92,25.54 -38.31,32.7 -18.7,7.29 -37.21,6.65 -55.44,-1.92 -18.25,-8.58 -31.24,-22.73 -38.92,-42.42 -8.15,-20.94 -8.42,-40.36 -0.75,-58.36 7.61,-17.93 21.6,-30.86 41.92,-38.77l0 0 8.87 22.75 0 0c-15.03,7.84 -25.06,17.43 -30.05,28.71 -5.03,11.24 -4.79,23.83 0.59,37.65 5.24,13.46 14.02,23.09 26.3,28.96 12.35,5.9 24.76,6.39 37.29,1.51 12.98,-5.06 21.79,-13.16 26.41,-24.22 4.5,-11.03 5.61,-27.21 3.38,-48.6 -2.38,-22.72 -0.52,-40.68 5.71,-53.88 6.15,-13.1 17.24,-22.75 33.29,-29.01 17.04,-6.64 33.92,-6.02 50.57,1.86 16.68,7.92 28.49,20.91 35.52,38.94 7.16,18.4 7.16,36.06 0.04,52.96 -7.1,16.95 -19.67,28.91 -37.61,35.89l0 0 -8.74 -22.46zm-139.97 156.44l214.93 -67.19 0 0 -16.87 -53.96 0 0 10.64 -3.33 10.75 -3.36 0 0 41.12 131.57 0 0 -10.58 3.31 -10.8 3.38 0 0 -16.87 -53.96 0 0 -214.94 67.18 0 0 -3.69 -11.81 -3.69 -11.83zm30.94 103.32l240.93 -57.07 0 0 2.87 12.1 0 0 14.53 61.37c6.68,28.16 5.19,51.84 -4.56,70.95 -9.74,19.09 -26.64,31.47 -50.68,37.16 -23.94,5.67 -44.55,2.13 -61.77,-10.58 -13.17,-9.84 -23.35,-24.27 -30.54,-43.31l0 0 -72.74 89.96 0 0 -3.61 -15.25 -3.63 -15.31 0 0 90.19 -108.48 0 0 6.14 25.95c4.87,20.56 13.51,35.48 25.9,44.75 12.35,9.29 27.18,11.91 44.32,7.85 17.32,-4.11 29.4,-13.11 36.37,-26.97 6.98,-13.85 8,-31.06 3.12,-51.69l-11.69 -49.32 0 0 -219.45 51.99 0 0 -2.84 -12.05 -2.86 -12.05zm41.72 199.86l244.47 -39.25 0 0 1.96 12.22 1.96 12.22 0 0 -244.47 39.25 0 0 -1.96 -12.21 -1.96 -12.23zm16.49 98.71l0 0 -1.01 -12.33 -1.01 -12.35 0 0 246.76 -20.22 0 0 1.38 16.74 1.38 16.89 0 0 -192.71 154.83 0 0 0 0 204.02 -16.72 0 0 1.01 12.35 1.02 12.34 0 0 -246.77 20.21 -1.02 -12.34 -1.02 -12.49 204.73 -164.66 0 0 0 0 -216.76 17.75zm4.87 345.36c2.18,-37.48 16.39,-68.38 42.61,-92.77 26.23,-24.44 57.22,-35.6 93.07,-33.51 35.79,2.09 65.32,16.94 88.57,44.49 23.25,27.56 33.75,60.17 31.55,97.93 -1.42,24.27 -9.33,46.88 -23.73,67.83 -14.41,20.95 -32.01,35.38 -52.8,43.34l0 0 1.68 -28.73 0 0c14.51,-7.48 26.67,-18.83 36.51,-34.17 9.83,-15.36 15.23,-31.42 16.22,-48.16 1.81,-31.19 -6.9,-58.11 -26.13,-80.8 -19.24,-22.74 -43.72,-34.95 -73.33,-36.67 -29.67,-1.73 -55.35,7.44 -77.03,27.58 -21.67,20.06 -33.43,45.53 -35.23,76.37 -1.69,29 7.19,54.04 26.57,75.17 12.08,13.05 25.9,22.4 41.49,28.01l0 0 8.04 -137.96 22.04 1.28 -9.74 167.13c-31.5,-3.9 -57.77,-17.95 -78.7,-42.13 -23.2,-26.49 -33.77,-57.89 -31.66,-94.23zm149.36 304.05l0 0c13.94,1.01 25.61,-1.81 35,-8.26 9.46,-6.5 15.29,-15.8 17.5,-27.99 2.27,-12.45 0.22,-23.66 -6.16,-33.71 -6.4,-10.07 -15.37,-16.13 -26.85,-18.21 -11.19,-2.04 -20.87,0.07 -28.98,6.36 -8.12,6.29 -16.25,17.95 -24.35,35.08 -10.94,22.78 -23.29,38.62 -37.07,47.38 -13.77,8.72 -30.34,11.33 -49.76,7.79 -19.76,-3.59 -35.19,-13.83 -46.23,-30.69 -11.05,-16.86 -14.71,-35.72 -10.93,-56.52 4.03,-22.1 13.97,-38.77 29.92,-50.1 15.87,-11.28 34.58,-14.97 56.03,-11.06l0 0 -4.37 24.02 0 0c-16.9,-1.2 -30.47,1.72 -40.63,8.71 -10.18,6.95 -16.57,17.8 -19.22,32.39 -2.59,14.21 -0.14,27.01 7.23,38.44 7.44,11.5 17.75,18.41 30.97,20.82 13.72,2.5 25.47,0.21 35.19,-6.81 9.61,-7.03 19.03,-20.22 28.34,-39.62 9.87,-20.59 20.87,-34.91 33.09,-42.9 12.1,-7.94 26.6,-10.35 43.55,-7.27 18,3.27 32.04,12.64 42.1,28.07 10.05,15.48 13.32,32.74 9.85,51.79 -3.52,19.42 -12.77,34.46 -27.7,45.12 -14.92,10.72 -31.9,14.32 -50.83,10.88l0 0 4.31 -23.71zm-2253.77 798.34c-42.25,-1.41 -256.73,-80.56 -282.64,-119.04 123.92,4.91 229.34,36.62 282.64,119.04zm147.13 0.23c35.25,-65.38 175.06,-130.67 289.09,-120.14 -60.7,38.83 -206.13,110.05 -289.09,120.14zm-602.03 -133.52c2.64,-49.16 9.76,-40.8 43.56,-18.92 21.14,13.69 39.73,23.81 59.92,35.55 269.72,156.88 416.82,212.66 699.67,78.16l240.11 -131.75 9.42 36.62c-27.94,21.39 -104.41,55.12 -162.55,97.72 -47.92,35.11 -99.94,77.89 -135.47,122.44 -166.84,209.26 -75.66,287.06 -225.72,289.5 -119.64,1.94 -107.71,-64.74 -132.68,-124.05 -26.77,-63.57 -59.49,-117.65 -96.9,-160.95 -41.44,-47.97 -78.18,-83.46 -134.25,-123.69 -50.94,-36.54 -147.64,-85.65 -165.11,-100.63zm493.73 141.23c-38.66,-105.57 -189.97,-150.55 -300.68,-156.53 -24.13,-1.3 -56.4,0.57 -78.54,-1.87 -20.97,-2.31 -38.08,-13.09 -48.62,-29.77l920.23 0.19 -27.26 22.09c-18.02,7.81 -83.22,6.78 -114.69,10.08 -46.81,4.92 -94.93,14.74 -135.63,31.13 -175.76,70.76 -87.17,133.44 -214.81,124.68zm-480.79 -218.35c-32.07,1.1 -28.69,4 -36.17,34.73 -4.74,19.45 -11.36,38.13 -10.93,56.89l171.24 103.07c109.27,72.64 192.6,173.29 239.4,299.02 12.58,33.81 15.53,75.7 42.1,92.39 64.04,40.22 153.25,38.81 214.89,-0.91 64.11,-41.31 -17.18,-246.67 451.21,-490.29 -0.36,-28.18 -11.69,-75.96 -25.14,-93.2 -77.93,-6.9 -484.12,-1.18 -597.58,-1.18l-449.02 -0.52zm2125.56 114.68c8.36,39.17 41.21,59.07 44.47,84.9 2.38,18.78 -21.36,69.25 -26.52,93.77 34.84,-2.65 76.57,-28.75 103.98,-20 22.56,7.21 41.82,36.11 77.14,47.01l-2.95 -96.78 75.76 -56.76c-6.58,-6.42 -2.79,-3.95 -12.83,-9.5l-30.36 -9.98c-58.29,-14.19 -42.54,-1.92 -70.66,-100.73 -20.76,10.11 -44.53,53.23 -66.5,73.17l-91.53 -5.1zm-0.4 534.77c-5.88,-35.6 -31.54,-77.35 -21.48,-105.18 8.33,-23.03 34.56,-41.16 43.8,-74.87l-99.13 2.33 -62.7 -71.23 -25.99 90.77c-17.18,3.84 -30.13,7.36 -48.23,12.26 -4.03,1.09 -16.09,4.4 -20.26,6.28 -19.67,8.85 -9.49,4.17 -16.78,11.85l74.39 58.84 -2.93 95.02c35.25,-10.95 57.86,-41.87 80.7,-49.01 17.09,-5.34 68.82,18.11 98.61,22.94zm254.58 -854.42c-4.85,14.03 -10.54,10.3 -25.02,26.52 23.23,18.06 71.04,13.56 91.9,32.73 14.13,13 22.61,65.31 40.77,86.4l41.34 -57.55c13.97,-36.45 26.67,-26.5 106.13,-34.05 -6.5,-24.22 -12.94,-24.94 -28.57,-41.55 -5.81,-6.19 -24.85,-26.93 -27.19,-31.95 -9.96,-21.26 7.65,-73.07 8.87,-101.6 -27,7.87 -64.99,39.17 -93.99,34.87 -13.95,-2.06 -59.37,-30.72 -81.82,-38.42l8.68 99.02 -41.1 25.58zm-613.78 -126.32c0.15,0.18 8.09,12.79 11.82,16.98 16.14,18.12 31.8,27.03 54.54,32.24 17.64,-33.99 20.54,-10.95 20.87,-62.02 0.17,-25.07 0.1,-53 -1.62,-77.86 -14.76,7.24 -76.08,75.06 -85.61,90.66zm-304.25 1238.98c112.93,-44.22 65.82,-10.21 193.08,-88.23 10.06,37.96 15.28,85.69 20.94,125.02 6.56,45.65 17.42,78.99 -35.29,101.81 -52.17,22.58 -68.25,-7.03 -99.19,-41.98 -22,-24.85 -62.93,-70.15 -79.54,-96.62zm87.51 -47.1c-35.74,19.35 -115.04,40.79 -149.16,40.74 -33.05,-0.05 -104.49,-12.91 -123.39,-27.73 75,-36.07 162.15,-67.63 240.74,-82.68l31.81 69.67zm-17.54 -76.36c44.48,-40.72 157.37,-100.88 218.62,-126.26 -0.79,21.66 -38.62,86.68 -61.29,111.89 -22.07,24.55 -90.49,72.67 -125.96,84.21l-31.37 -69.84zm140.5 24.22c1.17,-2.49 64.01,-57.29 86.72,-125.09 9.03,-26.96 17.83,-35.23 8.62,-47.08 -30.55,2.14 -156.84,75.11 -189.74,96.45 -42.82,27.8 -46.03,38.88 -85.15,47.86 -32.38,7.43 -64.61,16.96 -97.07,28.02 -34.35,11.69 -67.25,24.55 -100.56,39.6 -51.12,23.1 -68.12,27.97 -13.81,46.53 23.37,7.99 51.51,15.36 79.53,19.08 48.58,6.45 60.31,-1.9 84.62,-0.99 18.38,22.95 115.22,145.83 137.63,153.12 42.09,13.69 105.54,-19.24 112.98,-55.54 4.07,-19.87 -11.26,-110.81 -15.45,-135.59 -1.95,-11.61 -3.75,-23.77 -5.77,-34.64 -2.35,-12.72 -6.41,-23.54 -2.55,-31.73zm-1507.96 -3062.53l-57.47 -80.18 -59.42 80.18 -82.78 0 100.8 -131.69 -97.39 -129.75 85.22 0 55.52 76.3 56.98 -76.3 80.83 0 -97.39 127.81 101.29 133.63 -86.19 0zm98.93 -261.44l75.96 0 0 261.44 -75.96 0 0 -261.44zm37.98 -36.44c-13.96,0 -25.32,-4.05 -34.08,-12.15 -8.77,-8.1 -13.16,-18.14 -13.16,-30.13 0,-11.98 4.39,-22.03 13.16,-30.13 8.76,-8.1 20.12,-12.14 34.08,-12.14 13.96,0 25.32,3.88 34.09,11.66 8.76,7.77 13.15,17.49 13.15,29.15 0,12.64 -4.39,23.09 -13.15,31.35 -8.77,8.26 -20.13,12.39 -34.09,12.39zm84.33 36.44l75.96 0 0 261.44 -75.96 0 0 -261.44zm37.98 -36.44c-13.96,0 -25.32,-4.05 -34.08,-12.15 -8.77,-8.1 -13.16,-18.14 -13.16,-30.13 0,-11.98 4.39,-22.03 13.16,-30.13 8.76,-8.1 20.12,-12.14 34.08,-12.14 13.96,0 25.33,3.88 34.1,11.66 8.76,7.77 13.14,17.49 13.14,29.15 0,12.64 -4.38,23.09 -13.14,31.35 -8.77,8.26 -20.14,12.39 -34.1,12.39zm239.2 32.56c24.34,0 46.5,5.59 66.47,16.76 19.96,11.18 35.63,26.89 46.99,47.14 11.37,20.25 17.05,43.81 17.05,70.7 0,26.89 -5.68,50.46 -17.05,70.71 -11.36,20.24 -27.03,35.96 -46.99,47.13 -19.97,11.18 -42.13,16.77 -66.47,16.77 -36.04,0 -63.48,-11.34 -82.31,-34.02l0 30.13 -72.56 0 0 -360.57 75.97 0 0 126.83c19.16,-21.05 45.46,-31.58 78.9,-31.58zm-13.15 207.01c19.47,0 35.47,-6.56 47.96,-19.68 12.5,-13.12 18.75,-30.7 18.75,-52.73 0,-22.03 -6.25,-39.6 -18.75,-52.72 -12.49,-13.12 -28.49,-19.68 -47.96,-19.68 -19.48,0 -35.48,6.56 -47.97,19.68 -12.5,13.12 -18.75,30.69 -18.75,52.72 0,22.03 6.25,39.61 18.75,52.73 12.49,13.12 28.49,19.68 47.97,19.68zm302.01 1.46c13.63,0 25.73,-2.03 36.28,-6.08 10.55,-4.05 20.37,-10.45 29.46,-19.19l40.42 43.73c-24.67,28.19 -60.71,42.28 -108.11,42.28 -29.55,0 -55.68,-5.75 -78.4,-17.25 -22.73,-11.5 -40.26,-27.46 -52.6,-47.87 -12.33,-20.41 -18.51,-43.57 -18.51,-69.49 0,-25.59 6.09,-48.67 18.26,-69.24 12.18,-20.58 28.91,-36.61 50.16,-48.11 21.27,-11.5 45.22,-17.25 71.84,-17.25 25,0 47.72,5.26 68.17,15.79 20.46,10.53 36.77,25.75 48.95,45.68 12.17,19.92 18.26,43.49 18.26,70.7l-193.82 37.42c5.52,12.96 14.2,22.68 26.06,29.16 11.84,6.48 26.37,9.72 43.58,9.72zm-11.2 -151.13c-19.16,0 -34.74,6.15 -46.75,18.46 -12.02,12.31 -18.34,29.32 -19,51.03l127.6 -24.79c-3.58,-13.6 -10.88,-24.45 -21.92,-32.55 -11.04,-8.1 -24.35,-12.15 -39.93,-12.15zm234.8 -18.95c9.09,-12.64 21.35,-22.2 36.77,-28.67 15.42,-6.48 33.2,-9.72 53.33,-9.72l0 69.97c-8.44,-0.65 -14.12,-0.97 -17.05,-0.97 -21.75,0 -38.79,6.07 -51.13,18.22 -12.34,12.15 -18.51,30.37 -18.51,54.67l0 123.43 -75.96 0 0 -261.44 72.55 0 0 34.51zm380.41 854.76c27.92,-90.9 53.81,-135.66 49.3,-269.1 -10.73,-317.67 -200.65,-429.26 -231.24,-74.29 -11.01,127.6 10.16,185.64 47.89,312.6l-45.27 10.52c-41.12,-97.96 -116.66,-203.22 -182.94,-243.42 -54.52,-33.06 -230.9,-63.78 -311.78,11.64 -51.41,47.95 -15.61,94.89 41.67,108.85 145.6,35.48 133.42,51.88 236.91,137.14 45.22,37.25 74.07,42.13 118.87,71.91 -6.67,40.73 -48.72,106.76 7.93,194.24 82.76,-61.98 150.92,-108.54 274.75,-102 20.54,1.1 30.62,4.51 47.55,5.85 90.54,7.26 -17.03,-141.61 -53.64,-163.94z"/>
 </g>
</svg>
