<?xml version="1.0" encoding="UTF-8"?>
<!DOCTYPE svg PUBLIC "-//W3C//DTD SVG 1.1//EN" "http://www.w3.org/Graphics/SVG/1.1/DTD/svg11.dtd">
<!-- Creator: CorelDRAW 2017 -->
<svg xmlns="http://www.w3.org/2000/svg" xml:space="preserve" width="43.1798mm" height="43.1798mm" version="1.1" style="shape-rendering:geometricPrecision; text-rendering:geometricPrecision; image-rendering:optimizeQuality; fill-rule:evenodd; clip-rule:evenodd"
viewBox="0 0 4317.98 4317.98"
 xmlns:xlink="http://www.w3.org/1999/xlink">
 <defs>
  <style type="text/css">
   <![CDATA[
    .fil1 {fill:none}
    .fil2 {fill:#D2D3D5}
    .fil3 {fill:#3E4095}
    .fil0 {fill:#D2D3D5;fill-rule:nonzero}
   ]]>
  </style>
    <clipPath id="id0">
     <path d="M3756.45 1641.43c14.18,-79.16 31.35,-119.38 13.97,-230.95 -41.39,-265.6 -212.21,-339.93 -201.72,-38.8 3.76,108.24 27.46,154.82 72.07,257.56l-36.93 13.45c-44.51,-78.06 -118.66,-158.73 -178.4,-185.72 -49.14,-22.2 -200.36,-30.01 -260.57,41.54 -38.27,45.5 -3.43,81.27 46.08,87.15 125.86,14.94 117.3,29.95 212.88,90.98 41.76,26.67 66.47,27.83 107.12,48.26 -1.45,34.88 -30.02,94.6 26.45,162.27 63.17,-60.47 115.65,-106.51 220.28,-113.63 17.36,-1.18 26.16,0.66 40.51,0.06 76.76,-3.13 -28.72,-117.16 -61.74,-132.17z"/>
    </clipPath>
 </defs>
 <g id="Capa_x0020_1">
  <metadata id="CorelCorpID_0Corel-Layer"/>
  <g id="_1697743889520">
   <path class="fil0" d="M764.83 1963.77c-3.86,20.5 -6.67,49 -8.56,85.58l-2.15 31.89c-0.44,4.51 -2.13,9.12 -5.15,13.78 -2.94,4.65 -5.85,7.12 -8.64,7.34 -3.48,0.28 -7.49,-1.17 -12.22,-4.3 -4.67,-3.17 -7.06,-5.79 -7.22,-7.9 -0.5,-6.15 0.19,-14.7 2.11,-25.76 13.75,-83.86 18.16,-156.95 13.18,-219.13l-1.3 -14.01c-1.19,-12 0.21,-20.95 4.22,-26.72 4.07,-5.84 8.92,-8.98 14.73,-9.44 2.68,-0.22 5.42,1.68 8.2,5.65 2.79,3.96 4.46,9.8 5.08,17.48 0.86,10.78 0.82,23.97 -0.17,39.48 -1.35,19.61 -1.93,30.9 -1.83,33.76 14.27,-30.22 30.01,-54.26 47.29,-72 17.28,-17.72 33.9,-27.26 49.86,-28.54 11.22,-0.9 21.02,2.55 29.45,10.32 8.42,7.81 13.13,17.92 14.13,30.41 2.91,36.25 -8.35,70.37 -33.85,102.18 -25.43,31.86 -51.38,48.8 -77.71,50.91 -6.61,0.53 -11.93,-0.71 -16.01,-3.7 -4.15,-3.06 -8.63,-8.83 -13.44,-17.28zm92.9 -142.7c-15.68,1.25 -33.93,17.51 -54.72,48.72 -20.78,31.27 -30.51,55.05 -29.2,71.41 0.32,4.05 2.91,7.73 7.77,11.13 4.87,3.45 10.78,4.87 17.79,4.3 15.96,-1.28 33.31,-14.53 52.1,-39.74 18.87,-25.2 27.33,-49.11 25.51,-71.85 -0.65,-8.15 -2.81,-14.23 -6.41,-18.41 -3.66,-4.12 -7.93,-5.96 -12.84,-5.56zm182.59 78.96c-13.88,22.16 -28.08,39.08 -42.45,50.79 -14.44,11.65 -27.99,18.01 -40.7,19.03 -8.54,0.69 -16.24,-2.31 -23.03,-9.05 -6.85,-6.73 -10.68,-15.77 -11.59,-27.18 -2.35,-29.23 8.18,-61.8 31.63,-97.7 23.45,-35.89 48.09,-54.85 73.9,-56.92 9.35,-0.75 16.73,4 22.2,14.34 1.71,3.43 4.14,5.07 7.27,4.82 8.89,-0.71 13.61,2.35 14.16,9.25 0.28,3.46 0.09,8.24 -0.5,14.31 -3.41,33.32 -4.52,56.75 -3.44,70.2 2.16,26.97 8.53,42.69 19.21,47.22 5.12,2.28 7.84,5.34 8.15,9.22 0.28,3.46 -1.84,7.13 -6.35,11.06 -4.51,3.85 -8.98,5.99 -13.42,6.35 -8.61,0.69 -16.15,-4.67 -22.63,-16.03 -6.53,-11.35 -10.67,-27.94 -12.41,-49.71zm-17.69 -93.22c-14.7,1.18 -30.7,16.33 -47.98,45.43 -17.29,29.14 -25.19,52.78 -23.74,70.9 1.02,12.77 5.82,18.87 14.25,18.19 12.25,-0.98 28.24,-14.7 47.97,-41.18 19.74,-26.43 28.74,-50.03 27.08,-70.72 -1.27,-15.9 -7.15,-23.46 -17.58,-22.62zm116.51 79.73c0.97,-2.09 2.06,-4.98 3.37,-8.7 6.19,-17.93 12.05,-32.11 17.59,-42.48 5.53,-10.37 11.79,-20.34 18.71,-29.95 6.85,-9.67 13.31,-17.07 19.2,-22.25 5.9,-5.18 11.34,-8.88 16.32,-11.12 4.98,-2.23 9.87,-3.6 14.65,-3.98 9.69,-0.78 17.79,1.55 24.42,6.88 6.56,5.38 10.19,11.91 10.81,19.72 0.28,3.48 -0.56,6.64 -2.5,9.61 -1.94,2.96 -5.14,4.59 -9.58,4.95 -4.68,0.37 -9.17,-1.33 -13.37,-5.12 -4.32,-3.79 -8.7,-5.5 -13.04,-5.15 -11.56,0.92 -26.46,16.23 -44.67,45.92 -18.27,29.68 -28.27,61.57 -30.01,95.67 -0.39,8.75 -2.03,14.67 -4.95,17.72 -2.91,2.98 -7.19,4.76 -12.83,5.22 -5.47,0.43 -9.73,-3.3 -12.83,-11.26 -3.11,-7.94 -5.46,-21.52 -7.01,-40.79 -0.41,-5.18 -1.05,-16.78 -1.91,-34.6 -1.06,-21.09 -1.05,-38.18 -0.1,-51.28 0.18,-2.13 0.35,-7.14 0.47,-14.94 0.11,-8.67 0.6,-14.68 1.53,-18.14 0.88,-3.4 3.02,-6.73 6.43,-9.92 3.36,-3.2 7.18,-4.94 11.4,-5.28 4.09,-0.33 7.34,0.74 9.6,3.19 2.27,2.46 3.52,5.17 3.76,8.19 0.35,4.34 -0.31,10.52 -1.9,18.62 -1.86,8.99 -2.85,15.2 -3.05,18.54 -0.03,3.85 -0.28,7.83 -0.86,12 -0.76,4.89 -0.83,17.56 -0.34,38l0.33 6.23 0.36 4.5zm230.85 -12.95c-13.88,22.16 -28.08,39.08 -42.45,50.79 -14.44,11.65 -27.98,18.01 -40.69,19.03 -8.55,0.69 -16.25,-2.31 -23.04,-9.04 -6.85,-6.74 -10.68,-15.78 -11.59,-27.18 -2.35,-29.24 8.18,-61.81 31.63,-97.71 23.46,-35.89 48.09,-54.85 73.91,-56.92 9.35,-0.75 16.72,4 22.19,14.35 1.71,3.42 4.14,5.06 7.27,4.81 8.89,-0.71 13.61,2.35 14.17,9.25 0.27,3.47 0.09,8.25 -0.51,14.31 -3.41,33.32 -4.52,56.76 -3.44,70.2 2.16,26.97 8.53,42.69 19.22,47.22 5.12,2.29 7.83,5.34 8.14,9.22 0.28,3.47 -1.84,7.14 -6.35,11.06 -4.5,3.85 -8.98,6 -13.42,6.35 -8.6,0.69 -16.15,-4.67 -22.63,-16.03 -6.52,-11.34 -10.66,-27.94 -12.41,-49.71zm-17.69 -93.22c-14.7,1.18 -30.7,16.34 -47.98,45.43 -17.29,29.14 -25.19,52.78 -23.74,70.9 1.03,12.77 5.82,18.87 14.25,18.19 12.25,-0.98 28.25,-14.7 47.97,-41.18 19.74,-26.43 28.75,-50.03 27.09,-70.71 -1.28,-15.91 -7.16,-23.47 -17.59,-22.63z"/>
   <path class="fil1" d="M592.25 1810.27c36.07,-163.51 97.32,-320.37 181.55,-464.93"/>
   <path class="fil1" d="M3270.97 997.91c150.15,145.04 270.72,318.06 354.97,509.38"/>
   <path class="fil0" d="M1062.17 772.99c-29.6,20.75 -56.41,37.69 -80.7,51.1 -24.28,13.15 -39.21,19.98 -45.28,19.98 -11.89,0 -23.78,-15.93 -35.67,-47.81 -11.64,-31.87 -17.7,-66.02 -17.7,-102.7 0,-23.02 20.49,-52.12 61.47,-86.52 11.88,-9.86 21.24,-17.96 28.33,-23.78 43.25,-37.44 84.74,-68.8 123.95,-94.1 39.21,-25.29 64,-37.69 74.37,-37.69 28.84,0 56.67,13.41 83.74,40.22 27.32,27.07 40.72,58.94 40.72,95.88 0,48.06 -15.18,148.23 -45.53,300.52 -30.36,152.29 -45.53,275.23 -45.53,368.57 0,17.71 2.52,45.53 7.33,82.97 1.01,6.08 1.52,10.12 1.52,12.65 45.53,-55.91 84.49,-121.67 116.62,-197.57 32.37,-75.63 60.46,-165.69 84.23,-269.91 -5.06,-5.06 -11.89,-11.64 -20.74,-19.98 -28.59,-28.08 -43,-57.42 -43,-87.53 0,-41.49 2.78,-80.44 8.59,-117.38 5.57,-36.68 12.4,-62.22 20.24,-76.65 16.95,-28.58 42.5,-58.43 76.65,-89.29 34.4,-30.86 57.68,-46.3 70.07,-46.3 7.59,0 22.77,6.33 46.04,19.23 23.27,12.9 43.51,27.07 60.71,43.01 14.43,13.4 25.05,27.82 31.88,43.25 6.83,15.69 10.37,33.9 10.37,54.65 0,16.69 -1.77,37.18 -5.06,60.96 -3.54,24.03 -8.85,52.61 -15.68,85.5 17.71,2.02 29.85,5.06 35.92,9.36 6.07,4.3 9.36,11.13 9.36,21.25 0,30.1 -8.35,59.7 -24.79,89.04 -16.7,29.6 -35.42,45.29 -56.16,47.05 -44.78,178.35 -108.27,328.86 -190.23,451.8 -81.96,122.94 -148.49,184.41 -199.34,184.41 -11.89,0 -33.9,-10.62 -66.03,-31.87 -31.87,-21.25 -65.51,-47.56 -100.67,-79.18 -25.05,-22.76 -43.01,-45.53 -53.38,-68.55 -10.37,-23.02 -15.43,-52.11 -15.43,-87.78 0,-71.59 6.07,-153.8 18.22,-246.64 12.13,-92.84 28.83,-182.9 50.59,-270.17zm784.49 -38.45c-24.79,0 -44.77,-8.86 -60.46,-26.31 -15.43,-17.46 -23.27,-39.97 -23.27,-67.54 0,-30.61 9.61,-56.41 28.59,-77.66 18.97,-21.25 41.73,-31.88 68.3,-31.88 22.26,0 41.23,9.11 56.91,27.07 15.94,17.96 23.78,39.72 23.78,65.27 0,32.12 -9.11,58.69 -27.06,79.68 -17.96,21 -40.23,31.37 -66.79,31.37zm-39.21 594.97c11.39,-1.01 23.28,-3.03 36.18,-5.82 12.9,-3.03 20.23,-4.55 22.26,-4.55 6.58,0 10.87,1.01 13.41,3.29 2.53,2.28 3.54,6.33 3.54,12.4 0,9.87 -4.05,29.84 -12.15,59.95 -8.09,30.1 -18.21,59.45 -29.84,88.03 -9.62,21.76 -24.04,38.45 -43.51,49.84 -19.48,11.38 -43.01,16.94 -70.58,16.94 -37.69,0 -66.79,-13.91 -87.53,-41.99 -20.74,-27.83 -31.11,-67.54 -31.11,-118.89 0,-47.3 10.37,-115.1 30.86,-203.39 20.49,-88.03 47.56,-178.59 81.71,-271.68 11.88,-32.38 21.75,-55.65 29.34,-69.06 7.59,-13.66 14.92,-20.49 21.75,-20.49 6.58,0 16.45,4.3 30.11,12.65 13.41,8.35 30.86,20.99 52.11,37.69 14.92,11.38 24.03,20.74 27.83,27.83 3.79,7.08 5.56,18.21 5.56,32.88 0,18.47 -7.34,65.02 -22.26,139.89 -14.67,74.88 -34.15,159.62 -57.68,254.48zm494.6 -377.93c-65.77,24.54 -122.69,73.87 -170.75,147.74 -48.32,73.86 -72.35,147.73 -72.35,221.34 0,5.82 0.25,12.14 1.01,18.47 0.76,6.32 2.03,13.41 3.54,20.74 49.33,-21.25 91.83,-61.97 127.75,-121.93 35.92,-59.95 72.85,-155.57 110.8,-286.36zm-115.61 460.15c-44.52,44.27 -83.47,76.65 -117.37,96.88 -33.9,20.24 -65.52,30.36 -95.37,30.36 -40.48,0 -72.35,-15.69 -95.37,-47.05 -23.27,-31.37 -34.91,-74.88 -34.91,-130.79 0,-62.73 14.93,-130.02 44.78,-201.86 29.85,-71.85 70.57,-137.36 121.93,-196.55 32.13,-37.19 65.27,-67.8 99.41,-92.34 33.9,-24.54 59.2,-36.68 75.39,-36.68 13.4,0 31.62,8.1 54.64,24.03 22.77,16.19 46.8,37.95 71.33,65.52 5.57,-16.69 10.12,-36.68 14.17,-59.95 4.55,-24.54 11.89,-37.19 22.26,-37.69 16.19,0 41.23,12.39 75.13,36.93 33.9,24.79 50.85,47.56 50.85,68.3 0,31.88 -8.6,86.26 -26.05,163.16 -17.21,76.65 -40.48,158.36 -69.57,244.62l14.92 0c11.64,0 23.27,-0.5 34.66,-1.52 11.38,-1.01 17.2,-1.51 17.2,-1.51 6.83,0 10.88,0.75 11.89,2.02 1.01,1.01 1.52,4.55 2.02,9.86 0,9.36 -4.81,23.78 -14.67,43.01 -9.86,19.48 -23.78,41.99 -41.49,67.54 -22.77,33.14 -40.47,54.89 -53.12,65.26 -12.65,10.38 -25.8,15.69 -39.71,15.69 -41.49,0 -72.61,-8.34 -93.35,-24.79 -20.74,-16.44 -31.11,-41.49 -31.11,-75.13 0,-7.34 0.25,-13.15 0.5,-16.95 0.25,-4.05 0.51,-7.59 1.01,-10.37zm492.58 -677.19c-24.79,0 -44.78,-8.86 -60.46,-26.31 -15.43,-17.46 -23.27,-39.97 -23.27,-67.54 0,-30.61 9.61,-56.41 28.58,-77.66 18.97,-21.25 41.74,-31.88 68.3,-31.88 22.26,0 41.49,9.11 57.68,27.07 16.44,17.96 24.54,39.72 24.54,65.27 0,32.12 -9.11,58.69 -27.32,79.68 -18.22,21 -40.98,31.37 -68.05,31.37zm-267.39 940.78c0,-73.61 8.6,-169.74 25.55,-287.88 16.95,-118.13 39.97,-233.74 68.55,-346.31 20.75,-80.44 37.45,-136.35 50.34,-167.46 12.91,-31.11 25.05,-46.55 36.43,-46.55 19.23,0 46.04,11.89 80.19,35.93 34.41,24.03 51.61,48.56 51.61,73.61 0,38.7 -8.35,115.1 -25.3,229.19 -16.69,114.33 -39.21,234.24 -67.29,359.71 -22.26,101.19 -40.72,174.55 -55.15,220.08 -14.67,45.29 -27.06,68.05 -37.43,68.05 -19.23,0 -45.28,-14.92 -78.17,-44.52 -32.89,-29.6 -49.33,-60.97 -49.33,-93.85zm487.01 -453.57c34.66,-13.91 64.76,-42.75 90.56,-86.51 25.81,-44.02 38.71,-85.51 38.71,-124.46l0 -16.44 0 -15.44c-29.09,18.22 -54.9,48.32 -77.16,90.06 -22.51,41.48 -39.71,92.58 -52.11,152.79zm-8.85 127.5c9.35,2.02 18.97,3.54 28.83,4.55 9.87,1.01 19.99,1.52 30.36,1.52 41.23,0 83.48,-11.64 127.24,-34.91 44.02,-23.28 66.28,-34.91 67.29,-34.91 3.54,0 6.08,2.02 7.84,5.82 1.78,4.04 2.53,9.86 2.53,17.2 0,17.2 -5.82,43.26 -17.45,77.91 -11.64,34.66 -23.78,60.21 -36.68,77.16 -19.23,24.03 -48.57,44.27 -87.53,60.46 -38.96,15.93 -79.43,24.03 -120.92,24.03 -60.71,0 -108.52,-20.24 -143.43,-60.46 -34.91,-40.22 -52.36,-95.37 -52.36,-165.69 0,-57.17 12.65,-119.91 37.94,-187.71 25.05,-68.04 58.95,-130.27 101.44,-187.19 30.61,-40.47 62.49,-71.84 95.37,-94.1 32.89,-22.27 64.51,-33.4 94.61,-33.4 41.99,0 79.68,16.7 112.82,50.34 33.14,33.65 49.59,73.62 49.59,119.91 0,79.18 -27.83,146.72 -83.23,203.14 -55.4,56.15 -126.73,87.01 -214.26,92.58 -0.51,2.02 -0.76,4.3 -0.76,6.58 -1.52,10.87 -2.28,18.97 -2.28,23.77 0,4.56 0.76,13.66 2.28,27.58 0.51,2.53 0.76,4.55 0.76,5.82z"/>
   <path class="fil0" d="M602.86 3083.28c-83.62,8.31 -150.03,-9.95 -199.02,-54.65 -49.02,-44.87 -80.32,-109.58 -94.08,-194.09l129.58 -46.51c19.75,132.23 70.65,194.27 152.68,186.11 66.44,-6.6 96.46,-43.04 89.86,-109.48 -1.96,-19.66 -6.43,-37.65 -13.6,-53.94 -6.98,-16.3 -16.67,-30.9 -29.22,-43.79 -12.37,-12.91 -23.58,-23.06 -33.46,-30.67 -9.88,-7.61 -23.14,-16.85 -39.99,-27.88l-179.21 -116.39c-32.84,-20.71 -60.14,-48.77 -82.05,-83.82 -21.73,-35.05 -35.12,-76.13 -39.79,-123.08 -6.81,-68.57 9.05,-125.07 47.72,-169.89 38.48,-44.79 92.82,-70.59 163.16,-77.58 75.31,-7.49 137.2,4.97 185.33,37.41 48.13,32.43 80.79,81.97 97.77,148.45 12.38,49.67 -71.7,57.72 -122.88,76.09 -0.93,-5.81 -2.69,-14.58 -5.28,-26.13 -10.05,-41.77 -26.7,-74.29 -49.77,-97.58 -23.09,-23.47 -54.65,-33.22 -94.34,-29.28 -31.89,3.17 -55.62,14.65 -71.05,34.08 -15.58,19.62 -21.8,45.29 -18.63,77.18 5.19,52.27 31.68,93.83 79.49,124.69l179.39 116.37c95.7,62.77 148.51,144.12 158.41,243.7 6.78,68.22 -9.01,123.64 -47.18,166.26 -38.36,42.46 -92.79,67.37 -163.84,74.42z"/>
   <path class="fil0" d="M1120.88 3031.81c-46.77,4.64 -87.52,1.55 -122.41,-9.3 -34.72,-10.87 -63.38,-29.13 -85.75,-54.46 -22.56,-25.32 -40.1,-55.95 -52.8,-91.91 -12.52,-35.98 -21.38,-78.4 -26.24,-127.3l-33.52 -337.34c-4.84,-48.73 -4.46,-91.7 0.77,-129.09 5.43,-37.21 16.65,-70.18 33.83,-98.9 17,-28.88 41.59,-51.55 73.53,-68.5 32.15,-16.8 71.53,-27.51 118.3,-32.15 90.54,-8.99 158.51,10.55 203.88,58.46 45.38,47.92 72.85,120.88 82.62,219.21l33.52 337.35c4.79,48.19 4.4,91.17 -1.15,128.94 -5.55,37.77 -16.72,71.27 -33.63,100.85 -17.12,29.44 -41.62,52.99 -73.5,70.65 -32.06,17.68 -71.22,28.9 -117.45,33.49zm-111.93 -141.5c20.67,26.22 54.31,37.01 101.08,32.36 46.61,-4.62 77.46,-21.82 92.57,-51.6 14.94,-29.75 19.87,-71.93 14.44,-126.68l-40.13 -403.78c-5.36,-54.04 -18.24,-93.56 -38.6,-118.38 -20.18,-24.83 -53.95,-35.08 -100.89,-30.41 -47.13,4.68 -78.22,21.37 -93.12,49.69 -15.07,28.34 -19.92,69.62 -14.55,123.65l40.12 403.79c5.44,54.74 18.58,95.13 39.08,121.36zm410.44 100.23l-92.42 -930.19 132.88 -13.2 82.51 830.43 232.63 -23.12 9.91 99.75 -365.51 36.33zm459.71 -45.68l-80.65 -811.83 -166.2 16.51 -11.76 -118.35 465.09 -46.21 11.76 118.35 -166.01 16.49 80.66 811.83 -132.89 13.21zm313.2 -31.12l-92.43 -930.18 365.53 -36.32 9.89 99.57 -232.63 23.12 29.71 299.07 166.19 -16.51 9.9 99.57 -166.19 16.51 33 332.21 232.64 -23.11 9.91 99.75 -365.52 36.32zm475.3 -584.01l33.31 -3.31c55.28,-5.49 95.58,-21.3 121.07,-47.45 25.32,-26.14 35.35,-65.6 30.09,-118.57 -5.26,-52.98 -22.87,-89.7 -52.83,-110.35 -30.15,-20.62 -72.77,-28.2 -128.04,-22.7l-33.31 3.31 29.71 299.07zm-80.07 544.74l-92.42 -930.18 166.19 -16.52c98.86,-9.82 175.36,1.91 229.32,35.37 53.96,33.47 85.46,94.75 94.33,184.05 5.51,55.45 0.18,102.68 -15.77,142.03 -15.95,39.33 -42.28,67.89 -79,85.5l195.75 450.23 -132 13.12 -176.69 -418.67 -99.74 9.91 42.91 431.96 -132.88 13.2zm764.33 -66.46c-46.77,4.64 -87.52,1.54 -122.41,-9.31 -34.72,-10.87 -63.37,-29.13 -85.75,-54.46 -22.55,-25.31 -40.09,-55.96 -52.79,-91.91 -12.52,-35.98 -21.39,-78.39 -26.25,-127.29l-33.51 -337.35c-4.85,-48.73 -4.46,-91.71 0.77,-129.09 5.42,-37.21 16.64,-70.18 33.83,-98.9 16.99,-28.89 41.58,-51.55 73.53,-68.5 32.15,-16.79 71.52,-27.5 118.3,-32.15 90.53,-8.99 158.5,10.55 203.88,58.47 45.38,47.92 72.84,120.87 82.61,219.21l33.52 337.34c4.79,48.19 4.4,91.17 -1.14,128.94 -5.56,37.77 -16.72,71.27 -33.64,100.86 -17.12,29.43 -41.62,52.98 -73.5,70.64 -32.06,17.68 -71.2,28.9 -117.45,33.5zm-111.92 -141.51c20.67,26.22 54.3,37.02 101.08,32.37 46.6,-4.63 77.45,-21.83 92.57,-51.61 14.94,-29.75 19.87,-71.93 14.43,-126.68l-40.12 -403.79c-5.37,-54.03 -18.24,-93.55 -38.6,-118.37 -20.18,-24.83 -53.94,-35.07 -100.89,-30.41 -47.14,4.68 -78.22,21.37 -93.12,49.69 -15.08,28.34 -19.92,69.61 -14.55,123.65l40.11 403.79c5.45,54.75 18.58,95.14 39.09,121.36z"/>
   <path class="fil0" d="M3894.06 2752.03c-81.07,8.31 -145.44,-9.96 -192.94,-54.65 -47.51,-44.87 -77.85,-109.58 -91.2,-194.1l125.62 -46.51c19.15,132.23 68.48,194.27 148.01,186.12 64.41,-6.6 93.51,-43.04 87.1,-109.48 -1.89,-19.67 -6.23,-37.66 -13.17,-53.94 -6.77,-16.31 -16.16,-30.91 -28.33,-43.79 -12,-12.91 -22.86,-23.07 -32.44,-30.67 -9.58,-7.61 -22.43,-16.85 -38.76,-27.88l-173.73 -116.39c-31.83,-20.71 -58.3,-48.78 -79.54,-83.82 -21.07,-35.06 -34.05,-76.13 -38.57,-123.08 -6.6,-68.57 8.77,-125.07 46.26,-169.89 37.31,-44.8 89.98,-70.6 158.17,-77.59 72.99,-7.48 132.99,4.98 179.65,37.42 46.66,32.43 78.32,81.97 94.78,148.45 1.73,7.16 3.89,16.96 6.49,29.58l-125.6 46.51c-0.91,-5.82 -2.62,-14.58 -5.12,-26.14 -9.75,-41.76 -25.89,-74.28 -48.25,-97.58 -22.39,-23.47 -52.98,-33.22 -91.46,-29.28 -30.91,3.18 -53.92,14.66 -68.87,34.09 -15.11,19.62 -21.13,45.28 -18.06,77.17 5.03,52.28 30.71,93.83 77.05,124.69l173.91 116.37c92.77,62.78 143.96,144.13 153.56,243.7 6.57,68.22 -8.74,123.65 -45.74,166.26 -37.19,42.46 -89.95,67.37 -158.82,74.43z"/>
   <path class="fil2" d="M574.88 3131.2c-105.38,-20.93 -182.55,-11.47 -259.92,-149.59 -128.12,-228.73 36.23,-183.28 87.02,-230.94 -7.63,-38.51 -24.85,-72.88 -28.21,-116.14 -65.66,-41.72 -128.08,-106.64 -147.72,-217.43 -9.48,-53.44 -7.43,-113.54 12.35,-160.54 25.05,-59.54 60.52,-77.02 77.7,-109.19 4.5,-399.14 165.06,-823.12 415.13,-1129.27l157.82 -174.35c-50.22,-13.41 -50.98,-157.75 -32.33,-195.7 16.41,-33.38 96.95,-99.42 128.52,-122.9 29.57,-22 119.07,-92.13 157.01,-93.07 40.48,-1.01 180.53,20.23 180.53,102.75 180.3,-95.4 102.09,-75.41 309.34,-144.57 414.55,-138.33 1006.46,-74.27 1401.48,124.33 104.2,52.38 163.88,87.5 254.12,155.27 15.67,11.78 25.03,18.63 41.13,30.7 237.58,178.09 445.97,483.05 547.17,767.18 29.72,83.41 86.86,245.33 88.93,327.69 14.8,20.63 43.07,39.77 64.21,64.92 18.96,22.53 34.14,51.42 45.42,83.95 53.34,153.79 -19.36,95.58 -71.12,145.6l-2.6 158.01c11.58,28.14 72.09,70.93 101.77,127.8 26.79,51.35 43.74,119.52 38.79,187.8 -9.72,134.52 -102.43,205.28 -226.8,229.49 -3.79,47.57 -54.53,152.27 -57.46,187.5 65.81,34.82 172.3,99.59 179.55,186.74l14.37 0c24.99,-107.23 216.28,-209.06 237.04,-617.65 19.45,-382.53 23.3,-624.02 -126.22,-979.89 -196.59,-467.88 -570.28,-944.34 -994.21,-1225.11 -90.68,-60.06 -211.29,-133.16 -313.01,-175.38 -31.35,-13.02 -51.75,-23.65 -85.11,-36.99 -35.21,-14.08 -57.51,-22.04 -94.76,-34.52 -297.28,-99.53 -579.05,-105.53 -880.03,-55.82 -449.23,74.18 -833.17,285.9 -1139.1,591.83l-93.05 93.68c-13.31,15.93 -13.81,19.61 -29.05,35.6 -38.84,40.78 -73.1,90.44 -107.55,136.63 -201.27,269.77 -342.59,630.45 -387.78,969.67 -72.04,540.7 74.05,1006.78 394.02,1433.38 206.13,274.82 485.22,522.4 780.4,699.14 197.37,118.18 443.59,231.84 709.43,281.72 237.94,44.64 690.25,20.17 903.34,-36.44 257.1,-68.29 352.03,-162.72 546.43,-315.43 21.35,-16.77 51.8,-46.94 75.91,-53.38 -21.07,-39.79 -59.14,-72.39 -76.04,-117.89 -12.7,-34.2 -0.91,-40.67 -48.53,-53.19 -27.38,-7.21 -20.81,-7.44 -64.14,25.44 -189.5,143.8 -424.53,236.54 -658.13,282.78 -108.08,21.39 -153.63,18.19 -241.82,31.1 -156.61,22.94 -389.73,-2.1 -515.07,-22.52 -313.58,-51.09 -616.24,-205.81 -828.8,-377.8 -26.86,-21.73 -49.33,-43.43 -74.08,-62.39 -56.94,-43.59 -150.05,-145.76 -200.17,-209.21 -40.83,-51.68 -152.78,-193 -166.12,-243.4z"/>
   <path class="fil0" d="M2464.44 3786.04c-3.75,4.16 -8.52,7.53 -14.32,10.12 -5.79,2.59 -12.01,4.24 -18.62,4.93 -15.32,1.61 -27.56,-1.29 -36.71,-8.68 -9.14,-7.4 -14.5,-18.63 -16.09,-33.71l-16.01 -152.74 22.05 -2.31 3.73 35.62 49.37 -5.17 1.95 18.59 -49.37 5.17 10.2 97.29c1.02,9.71 4.17,16.83 9.47,21.4 5.28,4.56 12.49,6.36 21.6,5.41 9.93,-1.05 17.71,-4.68 23.34,-10.91l9.41 14.99zm34.13 -126.04c4.04,-11.5 10.88,-20.57 20.54,-27.21 9.66,-6.66 22.05,-10.78 37.16,-12.36l2.24 21.38 -5.31 0.24c-17.18,1.8 -30.08,8.48 -38.71,20.04 -8.62,11.55 -11.94,26.83 -9.94,45.82l8.7 83.04 -22.05 2.31 -17.08 -162.97 21.11 -2.21 3.34 31.92zm230.72 -56.46l17.09 162.97 -21.11 2.21 -3.38 -32.22c-5.48,11.64 -13.34,20.92 -23.61,27.85 -10.26,6.92 -22.22,11.1 -35.88,12.53 -15.32,1.61 -29.55,-0.45 -42.72,-6.17 -13.15,-5.73 -23.91,-14.51 -32.27,-26.38 -8.35,-11.86 -13.38,-25.84 -15.07,-41.95 -1.69,-16.12 0.33,-30.84 6.04,-44.18 5.72,-13.33 14.42,-24.11 26.12,-32.33 11.7,-8.23 25.2,-13.14 40.52,-14.75 13.25,-1.39 25.49,0.1 36.72,4.46 11.23,4.35 20.82,11.44 28.75,21.25l-3.24 -30.98 22.04 -2.31zm-67.07 153.62c11.38,-1.19 21.4,-4.9 30.06,-11.13 8.66,-6.24 15.11,-14.49 19.38,-24.75 4.26,-10.26 5.74,-21.58 4.44,-33.98 -1.3,-12.39 -5.09,-23.16 -11.39,-32.31 -6.3,-9.16 -14.32,-15.89 -24.09,-20.19 -9.77,-4.3 -20.34,-5.85 -31.72,-4.66 -11.59,1.21 -21.72,4.94 -30.38,11.17 -8.66,6.23 -15.12,14.48 -19.38,24.74 -4.26,10.26 -5.74,21.59 -4.44,33.98 1.3,12.39 5.1,23.17 11.39,32.32 6.3,9.15 14.33,15.88 24.09,20.19 9.76,4.29 20.45,5.84 32.04,4.62zm251.45 -172.95l-55.56 170.59 -22.67 2.37 -89.43 -155.38 22.97 -2.41 75.72 132.39 47.24 -145.28 21.73 -2.28zm97.12 136.41c10.15,-1.06 19.33,-3.86 27.54,-8.37 8.2,-4.51 14.94,-10.59 20.21,-18.25l13.92 12.95c-6.34,9.44 -14.65,16.99 -24.93,22.66 -10.29,5.67 -21.96,9.2 -35,10.56 -16.77,1.76 -32.04,-0.24 -45.83,-6 -13.79,-5.75 -24.97,-14.56 -33.53,-26.4 -8.57,-11.84 -13.68,-25.71 -15.35,-41.61 -1.67,-15.91 0.31,-30.52 5.92,-43.85 5.61,-13.33 14.16,-24.14 25.63,-32.44 11.47,-8.31 24.98,-13.28 40.51,-14.9 14.48,-1.52 27.92,0.42 40.31,5.79 12.39,5.39 22.66,13.61 30.84,24.65 8.17,11.05 13.24,24.09 15.24,39.13l-131.41 40.08c5.54,12.79 14.12,22.38 25.78,28.78 11.66,6.4 25.04,8.8 40.15,7.22zm-18.93 -126.75c-11.39,1.2 -21.31,4.9 -29.76,11.11 -8.45,6.21 -14.72,14.28 -18.8,24.21 -4.09,9.93 -5.5,20.99 -4.23,33.17 0.33,3.1 0.68,5.36 1.04,6.79l112.85 -34.39c-3.91,-13.37 -11.41,-23.92 -22.46,-31.63 -11.07,-7.71 -23.95,-10.8 -38.64,-9.26zm170.28 130.62c-14.7,1.54 -26.46,-1.41 -35.3,-8.83 -8.83,-7.43 -14.02,-18.48 -15.56,-33.14l-19.36 -184.65 22.05 -2.32 19.16 182.8c1.02,9.71 4.07,16.85 9.15,21.44 5.09,4.58 12.18,6.39 21.29,5.44 5.8,-0.61 10.67,-2.06 14.62,-4.35l3.46 18.12c-6.18,2.95 -12.68,4.77 -19.51,5.49z"/>
   <path class="fil2" d="M3756.45 1641.43c14.18,-79.16 31.35,-119.38 13.97,-230.95 -41.39,-265.6 -212.21,-339.93 -201.72,-38.8 3.76,108.24 27.46,154.82 72.07,257.56l-36.93 13.45c-44.51,-78.06 -118.66,-158.73 -178.4,-185.72 -49.14,-22.2 -200.36,-30.01 -260.57,41.54 -38.27,45.5 -3.43,81.27 46.08,87.15 125.86,14.94 117.3,29.95 212.88,90.98 41.76,26.67 66.47,27.83 107.12,48.26 -1.45,34.88 -30.02,94.6 26.45,162.27 63.17,-60.47 115.65,-106.51 220.28,-113.63 17.36,-1.18 26.16,0.66 40.51,0.06 76.76,-3.13 -28.72,-117.16 -61.74,-132.17z"/>
   <g style="clip-path:url(#id0)">
    <g>
     <circle class="fil3" transform="matrix(-0.357499 0.121116 0.121153 0.356687 4084.99 1695.02)" r="578.6"/>
    </g>
   </g>
   <path class="fil1" d="M3756.45 1641.43c14.18,-79.16 31.35,-119.38 13.97,-230.95 -41.39,-265.6 -212.21,-339.93 -201.72,-38.8 3.76,108.24 27.46,154.82 72.07,257.56l-36.93 13.45c-44.51,-78.06 -118.66,-158.73 -178.4,-185.72 -49.14,-22.2 -200.36,-30.01 -260.57,41.54 -38.27,45.5 -3.43,81.27 46.08,87.15 125.86,14.94 117.3,29.95 212.88,90.98 41.76,26.67 66.47,27.83 107.12,48.26 -1.45,34.88 -30.02,94.6 26.45,162.27 63.17,-60.47 115.65,-106.51 220.28,-113.63 17.36,-1.18 26.16,0.66 40.51,0.06 76.76,-3.13 -28.72,-117.16 -61.74,-132.17z"/>
   <path class="fil0" d="M1596.73 3622.38l-91.43 -102.93 -70.81 119.94 -114.92 12.05 120.77 -197.47 -154.08 -165.93 118.3 -12.4 88.16 97.82 68 -114.19 112.21 -11.76 -116.6 191.57 160.06 170.76 -119.66 12.54zm99.28 -377.29l105.46 -11.06 38.05 362.9 -105.46 11.06 -38.05 -362.9zm47.43 -56.13c-19.38,2.04 -35.74,-1.93 -49.09,-11.9 -13.35,-9.96 -20.89,-23.27 -22.63,-39.91 -1.75,-16.64 2.87,-31.21 13.86,-43.73 10.99,-12.52 26.17,-19.79 45.56,-21.82 19.37,-2.03 35.71,1.7 49.01,11.22 13.3,9.51 20.8,22.37 22.5,38.56 1.84,17.54 -2.73,32.68 -13.7,45.42 -10.97,12.74 -26.13,20.13 -45.51,22.16zm122.35 38.33l105.46 -11.06 38.04 362.9 -105.46 11.06 -38.04 -362.9zm47.43 -56.12c-19.39,2.03 -35.74,-1.94 -49.09,-11.91 -13.35,-9.96 -20.89,-23.27 -22.64,-39.91 -1.74,-16.64 2.88,-31.21 13.87,-43.73 10.99,-12.52 26.17,-19.79 45.55,-21.82 19.38,-2.03 35.71,1.7 49.01,11.22 13.31,9.51 20.81,22.37 22.51,38.56 1.84,17.54 -2.73,32.68 -13.7,45.42 -10.97,12.74 -26.14,20.13 -45.51,22.17zm336.75 10.38c33.8,-3.54 65.38,0.99 94.71,13.6 29.34,12.61 53.38,32.14 72.09,58.59 18.73,26.45 30.04,58.34 33.95,95.66 3.92,37.33 -0.54,70.88 -13.37,100.64 -12.82,29.75 -32.28,53.84 -58.37,72.27 -26.08,18.42 -56.03,29.4 -89.84,32.94 -50.02,5.25 -89.74,-6.51 -119.19,-35.24l4.39 41.82 -100.73 10.56 -52.47 -500.51 105.46 -11.05 18.46 176.05c23.52,-32.02 58.49,-50.46 104.91,-55.33zm11.87 289.27c27.04,-2.84 48.28,-14.27 63.73,-34.3 15.44,-20.03 21.55,-45.34 18.35,-75.92 -3.21,-30.57 -14.44,-54.06 -33.7,-70.46 -19.26,-16.39 -42.41,-23.16 -69.45,-20.33 -27.04,2.83 -48.28,14.26 -63.73,34.29 -15.43,20.04 -21.55,45.35 -18.35,75.92 3.21,30.58 14.45,54.07 33.7,70.46 19.26,16.39 42.41,23.17 69.45,20.34zm419.45 -41.92c18.92,-1.99 35.41,-6.56 49.47,-13.72 14.06,-7.15 26.76,-17.46 38.11,-30.93l62.46 54.83c-30.14,42.71 -78.11,67.52 -143.92,74.42 -41,4.3 -78.12,0.11 -111.34,-12.54 -33.21,-12.66 -59.88,-32.25 -79.97,-58.79 -20.1,-26.53 -32.04,-57.79 -35.81,-93.77 -3.72,-35.53 1.37,-68.45 15.28,-98.78 13.9,-30.33 34.78,-55.02 62.63,-74.08 27.84,-19.05 60.24,-30.52 97.2,-34.4 34.69,-3.64 67.01,0.37 96.93,12 29.93,11.64 54.79,30.4 74.59,56.29 19.8,25.89 31.68,57.71 35.64,95.48l-263.6 80.16c9.54,17.18 23.01,29.41 40.4,36.67 17.4,7.27 38.03,9.66 61.93,7.16zm-37.55 -208.16c-26.59,2.78 -47.32,13.59 -62.2,32.44 -14.89,18.83 -21.2,43.37 -18.95,73.59l173.5 -52.97c-6.93,-18.37 -18.65,-32.38 -35.15,-42.01 -16.5,-9.63 -35.57,-13.32 -57.2,-11.05zm323.17 -60.48c10.78,-18.86 26.41,-33.91 46.87,-45.14 20.47,-11.25 44.67,-18.33 72.61,-21.26l10.19 97.14c-11.82,0.32 -19.75,0.7 -23.81,1.13 -30.2,3.16 -52.97,14.08 -68.33,32.74 -15.35,18.65 -21.26,44.85 -17.73,78.58l17.96 171.33 -105.46 11.05 -38.04 -362.9 100.72 -10.56 5.02 47.89z"/>
   <path class="fil2" d="M2747.35 4214.13c237.05,-49.14 646.12,-243.68 821.71,-377.03 211.85,-160.89 150.45,-84.49 272.23,-299.63 13.37,-23.62 30.06,-63.1 49.91,-78.22 -34.61,-28.81 -82.21,-44.49 -115.13,-80.15 -24.75,-26.8 -16.3,-37.27 -65.1,-30.76 -28.07,3.75 -22.08,1.03 -49.66,47.91 -120.63,205.04 -189.46,180.32 -387.96,311.88 -91.84,60.87 -135.18,75.22 -211.85,120.68 -136.14,80.74 -361.28,146.18 -484.97,174.93l170.82 210.39z"/>
   <circle class="fil2" cx="3858.36" cy="3216.19" r="122.97"/>
  </g>
 </g>
</svg>
