<?xml version="1.0" encoding="UTF-8"?>
<!DOCTYPE svg PUBLIC "-//W3C//DTD SVG 1.1//EN" "http://www.w3.org/Graphics/SVG/1.1/DTD/svg11.dtd">
<!-- Creator: CorelDRAW 2017 -->
<svg xmlns="http://www.w3.org/2000/svg" xml:space="preserve" width="64.3466mm" height="49.1066mm" version="1.1" style="shape-rendering:geometricPrecision; text-rendering:geometricPrecision; image-rendering:optimizeQuality; fill-rule:evenodd; clip-rule:evenodd"
viewBox="0 0 6434.66 4910.66"
 xmlns:xlink="http://www.w3.org/1999/xlink">
 <defs>
  <style type="text/css">
   <![CDATA[
    .str2 {stroke:#FEFEFE;stroke-width:12.37;stroke-linecap:round;stroke-linejoin:round;stroke-miterlimit:22.9256}
    .str1 {stroke:#FEFEFE;stroke-width:12.37;stroke-linecap:round;stroke-linejoin:round;stroke-miterlimit:22.9256}
    .str0 {stroke:#FEFEFE;stroke-width:12.37;stroke-linecap:round;stroke-linejoin:round;stroke-miterlimit:22.9256}
    .fil6 {fill:none}
    .fil0 {fill:none;fill-rule:nonzero}
    .fil2 {fill:#E6E7E8}
    .fil3 {fill:#D2D3D5}
    .fil5 {fill:#3E4095}
    .fil1 {fill:#E6E7E8;fill-rule:nonzero}
    .fil4 {fill:#D2D3D5;fill-rule:nonzero}
   ]]>
  </style>
   <clipPath id="id0">
    <path d="M3550.78 1780.24c31.72,-56.64 55.45,-82.78 71.66,-172.47 38.59,-213.54 -72.07,-315.36 -143.62,-82.89 -25.72,83.57 -19.95,125.35 -13.06,215.51l-31.73 0.5c-13.32,-71.3 -48.58,-152.42 -87.02,-188.79 -31.62,-29.91 -144.9,-75.82 -209.73,-37.14 -41.21,24.59 -24.09,61.08 12.13,78.64 92.05,44.65 81.56,53.84 138.35,125.64 24.8,31.37 43.35,38.78 68.96,65.11 -10.32,26.22 -47.89,64.23 -22.69,130.76 64.16,-29.44 116.35,-50.69 198.05,-28.49 13.54,3.69 19.78,7.42 30.88,10.75 59.38,17.89 9.04,-96.95 -12.18,-117.13z"/>
   </clipPath>
 </defs>
 <g id="Capa_x0020_1">
  <metadata id="CorelCorpID_0Corel-Layer"/>
  <g>
   <path class="fil0 str0" d="M2834.15 1865.81c3.35,-9.99 0.17,-18.44 -9.51,-25.34 -2.05,-1.46 -4.97,-3.28 -8.8,-5.5 -3.78,-2.18 -6.35,-3.75 -7.78,-4.77 0.2,-6.05 -1.94,-10.65 -6.27,-13.74 -2.28,-1.63 -6.88,-3.61 -13.72,-5.93 -6.87,-2.31 -11.86,-4.59 -15.11,-6.9 -2.96,-2.11 -5.3,-4.63 -7.05,-7.59 -6.79,-3.14 -11.63,-2.62 -14.55,1.48 -0.98,1.37 -2.19,4.03 -3.63,7.99 -1.44,3.94 -2.81,6.84 -4.11,8.66 -2.12,2.97 -4.82,4.82 -8.1,5.57 -0.68,1.92 -1.37,6.75 -2.08,14.5 -0.81,5.96 -2.19,10.3 -4.13,13.04 -2.12,2.96 -5.49,4.68 -10.18,5.11l0.12 -4.03c-0.49,0.69 -1.5,3.91 -3.04,9.69 -1.18,4.32 -2.5,7.5 -3.97,9.55 -1.78,2.51 -4.21,4.22 -7.26,5.12l-7.09 -8.14 -14.19 14.13 0.33 -14.21c-5.49,6.74 -13.61,18.14 -24.36,34.19l-6.17 -11.61c4.08,11.16 3.52,20.38 -1.67,27.68 -2.28,3.19 -6.24,7.06 -11.91,11.62 -0.39,-2.34 -1.38,-4.08 -2.98,-5.22 -2.05,-1.46 -5.53,-1.88 -10.44,-1.26 -3.83,1.05 -7.6,1.98 -11.27,2.8 0.09,-0.62 1.18,-4.31 3.26,-11.08 1.36,-3.85 0.9,-7.79 -1.38,-11.82 4.06,-3.28 7.56,-6.98 10.47,-11.09 4.23,-5.92 8.27,-15.33 12.13,-28.22 3.86,-12.87 7.74,-22.06 11.64,-27.53 1.3,-1.82 2.69,-3.75 4.14,-5.81 -1.28,-11.23 2.22,-22.65 10.51,-34.28 1.13,-1.59 2.68,-3.76 4.63,-6.49 2.1,-2.96 3.65,-5.13 4.63,-6.49 8.93,-12.54 12.04,-25.1 9.39,-37.65 -3.23,-1.27 -6.56,-5.02 -9.97,-11.23 -4.04,-7.34 -7.25,-11.86 -9.76,-13.65 -3.42,-2.44 -7.56,-3.16 -12.34,-2.11 0,0 -0.14,-1.73 -0.42,-5.19 -0.47,-2.22 -1.45,-3.52 -2.91,-3.87 -2.97,2.25 -6.82,2.09 -11.47,-0.45 -3.64,-2.59 -7.18,-5.12 -10.52,-7.5 -2.22,-1.24 -4.08,-1.53 -5.57,-0.88 0.55,2.12 0.26,3.98 -0.88,5.57 -0.97,1.37 -3.24,2.85 -6.78,4.45 -3.54,1.6 -5.84,2.88 -6.87,3.86l-0.52 -17.38c-5.55,-0.87 -10.28,1.44 -14.19,6.9 -2.27,3.19 -2.75,6.28 -1.45,9.28l-16.59 5.18c0.31,10.18 -2.14,18.93 -7.34,26.22 -4.38,6.15 -10.07,8.81 -17.03,7.97 4.14,4.33 4.58,8.77 1.34,13.32 -0.81,1.14 -1.77,2.01 -2.88,2.6 -5.49,6.74 -11.16,14.21 -17.01,22.41 -10.4,14.59 -33.31,52.05 -68.76,112.37 0,0 -1.33,0.07 -4.02,0.23 -2.68,0.16 -4.51,-0.29 -5.49,-1.34 -5.55,11.17 -14.07,27.94 -25.57,50.34 7.2,3.41 9.17,8.6 5.92,15.57 3.35,-0.36 7.08,0.92 11.18,3.83 1.15,0.82 2.94,2.28 5.4,4.37 2.46,2.1 4.37,3.64 5.74,4.61 5.92,4.22 11.67,5.56 17.23,4.03 11.73,-10.2 23.05,-22.92 33.94,-38.21 4.86,-6.82 11.57,-17.08 20.12,-30.76 8.53,-13.67 15.08,-23.7 19.64,-30.08 10.22,-14.36 20.72,-25.95 31.49,-34.79 -2.63,14.3 -12.38,41.72 -29.25,82.27 -14.64,35.97 -22.63,65.5 -23.97,88.61 1.56,-0.27 2.69,-0.16 3.37,0.33 0.91,0.65 1.47,2.52 1.69,5.59 0.21,3.08 0.58,4.97 1.1,5.68 1.96,2.09 3.96,3.86 6.01,5.32 9.11,6.5 22.81,6.81 41.09,0.93 3.21,-5.96 5.95,-10.52 8.23,-13.72 2.92,-4.11 12.67,-12.45 29.22,-25.07l1.13 4.94c10.42,-15.6 25.14,-31.91 44.16,-48.95 16.89,-14.07 33.81,-28.16 50.71,-42.22 1.38,8.19 0.11,15.02 -3.79,20.5 -0.65,0.9 -2.36,3.3 -5.12,7.17 -2.34,2.8 -4.21,5.43 -5.6,7.87 0.42,1.34 0.39,7.17 -0.02,17.52 -0.27,7.37 2.26,12.26 7.52,14.64 -1.04,3.38 -3.53,5.31 -7.51,5.73 -3.99,0.41 -7.75,0.74 -11.22,1.02l1.73 -25.58 -18.91 30.86c-1.59,-3.53 -2.58,-5.27 -2.98,-5.2 -1.88,0.71 -3.39,1.88 -4.53,3.47 -0.64,0.9 -1.5,2.1 -2.56,3.58 -1.06,1.48 -1.91,2.68 -2.55,3.59 -1.14,1.6 -2.6,2.79 -4.31,3.64l-0.34 -4.37 -2.03 12.99c-1.73,0.49 -4.41,-0.56 -8.06,-3.16l3.43 9.65c-3.63,7.03 -9.74,10.77 -18.29,11.2 -1.45,9.27 -2.94,18.36 -4.47,27.23 -2.23,11.82 -5.54,20.8 -9.92,26.95 8.21,5.86 10.86,11.53 7.97,17.03 5.34,-1.7 12.25,0.05 20.75,5.25 8.5,5.19 15.7,6.29 21.62,3.3 37.1,-53.99 94.29,-134.22 171.54,-240.69zm-126.43 105.79l-2.57 -26.06c-0.82,-1.26 -0.97,-2.75 -0.45,-4.44l0.45 4.44c1.75,0.91 3.81,2.38 6.16,4.39 -1.5,0.65 -2.49,1.32 -2.98,2.01 -1.14,1.59 -0.22,4.4 2.76,8.41 2.98,4.02 3.9,6.82 2.77,8.41 -0.81,1.14 -2.86,2.08 -6.14,2.84z"/>
   <path id="1" class="fil1" d="M2834.15 1865.81c3.35,-9.99 0.17,-18.44 -9.51,-25.34 -2.05,-1.46 -4.97,-3.28 -8.8,-5.5 -3.78,-2.18 -6.35,-3.75 -7.78,-4.77 0.2,-6.05 -1.94,-10.65 -6.27,-13.74 -2.28,-1.63 -6.88,-3.61 -13.72,-5.93 -6.87,-2.31 -11.86,-4.59 -15.11,-6.9 -2.96,-2.11 -5.3,-4.63 -7.05,-7.59 -6.79,-3.14 -11.63,-2.62 -14.55,1.48 -0.98,1.37 -2.19,4.03 -3.63,7.99 -1.44,3.94 -2.81,6.84 -4.11,8.66 -2.12,2.97 -4.82,4.82 -8.1,5.57 -0.68,1.92 -1.37,6.75 -2.08,14.5 -0.81,5.96 -2.19,10.3 -4.13,13.04 -2.12,2.96 -5.49,4.68 -10.18,5.11l0.12 -4.03c-0.49,0.69 -1.5,3.91 -3.04,9.69 -1.18,4.32 -2.5,7.5 -3.97,9.55 -1.78,2.51 -4.21,4.22 -7.26,5.12l-7.09 -8.14 -14.19 14.13 0.33 -14.21c-5.49,6.74 -13.61,18.14 -24.36,34.19l-6.17 -11.61c4.08,11.16 3.52,20.38 -1.67,27.68 -2.28,3.19 -6.24,7.06 -11.91,11.62 -0.39,-2.34 -1.38,-4.08 -2.98,-5.22 -2.05,-1.46 -5.53,-1.88 -10.44,-1.26 -3.83,1.05 -7.6,1.98 -11.27,2.8 0.09,-0.62 1.18,-4.31 3.26,-11.08 1.36,-3.85 0.9,-7.79 -1.38,-11.82 4.06,-3.28 7.56,-6.98 10.47,-11.09 4.23,-5.92 8.27,-15.33 12.13,-28.22 3.86,-12.87 7.74,-22.06 11.64,-27.53 1.3,-1.82 2.69,-3.75 4.14,-5.81 -1.28,-11.23 2.22,-22.65 10.51,-34.28 1.13,-1.59 2.68,-3.76 4.63,-6.49 2.1,-2.96 3.65,-5.13 4.63,-6.49 8.93,-12.54 12.04,-25.1 9.39,-37.65 -3.23,-1.27 -6.56,-5.02 -9.97,-11.23 -4.04,-7.34 -7.25,-11.86 -9.76,-13.65 -3.42,-2.44 -7.56,-3.16 -12.34,-2.11 0,0 -0.14,-1.73 -0.42,-5.19 -0.47,-2.22 -1.45,-3.52 -2.91,-3.87 -2.97,2.25 -6.82,2.09 -11.47,-0.45 -3.64,-2.59 -7.18,-5.12 -10.52,-7.5 -2.22,-1.24 -4.08,-1.53 -5.57,-0.88 0.55,2.12 0.26,3.98 -0.88,5.57 -0.97,1.37 -3.24,2.85 -6.78,4.45 -3.54,1.6 -5.84,2.88 -6.87,3.86l-0.52 -17.38c-5.55,-0.87 -10.28,1.44 -14.19,6.9 -2.27,3.19 -2.75,6.28 -1.45,9.28l-16.59 5.18c0.31,10.18 -2.14,18.93 -7.34,26.22 -4.38,6.15 -10.07,8.81 -17.03,7.97 4.14,4.33 4.58,8.77 1.34,13.32 -0.81,1.14 -1.77,2.01 -2.88,2.6 -5.49,6.74 -11.16,14.21 -17.01,22.41 -10.4,14.59 -33.31,52.05 -68.76,112.37 0,0 -1.33,0.07 -4.02,0.23 -2.68,0.16 -4.51,-0.29 -5.49,-1.34 -5.55,11.17 -14.07,27.94 -25.57,50.34 7.2,3.41 9.17,8.6 5.92,15.57 3.35,-0.36 7.08,0.92 11.18,3.83 1.15,0.82 2.94,2.28 5.4,4.37 2.46,2.1 4.37,3.64 5.74,4.61 5.92,4.22 11.67,5.56 17.23,4.03 11.73,-10.2 23.05,-22.92 33.94,-38.21 4.86,-6.82 11.57,-17.08 20.12,-30.76 8.53,-13.67 15.08,-23.7 19.64,-30.08 10.22,-14.36 20.72,-25.95 31.49,-34.79 -2.63,14.3 -12.38,41.72 -29.25,82.27 -14.64,35.97 -22.63,65.5 -23.97,88.61 1.56,-0.27 2.69,-0.16 3.37,0.33 0.91,0.65 1.47,2.52 1.69,5.59 0.21,3.08 0.58,4.97 1.1,5.68 1.96,2.09 3.96,3.86 6.01,5.32 9.11,6.5 22.81,6.81 41.09,0.93 3.21,-5.96 5.95,-10.52 8.23,-13.72 2.92,-4.11 12.67,-12.45 29.22,-25.07l1.13 4.94c10.42,-15.6 25.14,-31.91 44.16,-48.95 16.89,-14.07 33.81,-28.16 50.71,-42.22 1.38,8.19 0.11,15.02 -3.79,20.5 -0.65,0.9 -2.36,3.3 -5.12,7.17 -2.34,2.8 -4.21,5.43 -5.6,7.87 0.42,1.34 0.39,7.17 -0.02,17.52 -0.27,7.37 2.26,12.26 7.52,14.64 -1.04,3.38 -3.53,5.31 -7.51,5.73 -3.99,0.41 -7.75,0.74 -11.22,1.02l1.73 -25.58 -18.91 30.86c-1.59,-3.53 -2.58,-5.27 -2.98,-5.2 -1.88,0.71 -3.39,1.88 -4.53,3.47 -0.64,0.9 -1.5,2.1 -2.56,3.58 -1.06,1.48 -1.91,2.68 -2.55,3.59 -1.14,1.6 -2.6,2.79 -4.31,3.64l-0.34 -4.37 -2.03 12.99c-1.73,0.49 -4.41,-0.56 -8.06,-3.16l3.43 9.65c-3.63,7.03 -9.74,10.77 -18.29,11.2 -1.45,9.27 -2.94,18.36 -4.47,27.23 -2.23,11.82 -5.54,20.8 -9.92,26.95 8.21,5.86 10.86,11.53 7.97,17.03 5.34,-1.7 12.25,0.05 20.75,5.25 8.5,5.19 15.7,6.29 21.62,3.3 37.1,-53.99 94.29,-134.22 171.54,-240.69zm-126.43 105.79l-2.57 -26.06c-0.82,-1.26 -0.97,-2.75 -0.45,-4.44l0.45 4.44c1.75,0.91 3.81,2.38 6.16,4.39 -1.5,0.65 -2.49,1.32 -2.98,2.01 -1.14,1.59 -0.22,4.4 2.76,8.41 2.98,4.02 3.9,6.82 2.77,8.41 -0.81,1.14 -2.86,2.08 -6.14,2.84z"/>
  </g>
  <g>
   <path class="fil0 str1" d="M3241.68 2089.2c4.46,4.78 7.84,13.12 10.15,25.05 2.86,16.45 4.9,26.13 6.12,29.02 3.52,10.6 9.77,17.87 18.77,21.82 -0.19,-1.41 -0.23,-2.95 -0.12,-4.63 0.41,-6.43 4.86,-14.34 13.33,-23.75 8.45,-9.4 12.87,-16.9 13.24,-22.49 0.14,-2.23 -0.12,-4.64 -0.8,-7.21l16.47 -1.03 -4.06 -8.67 14.04 -2.46 -2.68 -10.7c9.36,-1.35 17.66,-1.8 24.91,-1.32 15.66,1.01 27.65,6.28 36,15.8 -16.83,34.8 -42.6,83.75 -77.26,146.87 6.31,10.78 13.7,28.65 22.18,53.61 7.77,22.94 16.01,40.72 24.72,53.35 -0.34,5.3 2.42,13.69 8.26,25.14 5.85,11.46 8.62,19.57 8.32,24.31 -0.42,6.42 -4.68,11.48 -12.77,15.16 -9.64,-2.59 -19.22,-5.17 -28.74,-7.76 -9.5,-2.58 -18.03,-4.11 -25.58,-4.61 -3.62,-0.23 -7.4,-0.19 -11.35,0.11 -0.09,-7.29 -3.06,-17.73 -8.92,-31.29 -5.06,-12.67 -7.31,-23.33 -6.75,-31.99 -4.57,-3.1 -7.12,-9.3 -7.63,-18.58 -0.6,-8.18 -4.77,-12.94 -12.54,-14.28 -2.08,10.52 -9.63,25.32 -22.65,44.38 -13.02,19.07 -20.62,34.57 -22.79,46.49 -2.45,-1.28 -5.63,-2.05 -9.53,-2.31 -3.35,-0.21 -8.96,-0.15 -16.85,0.17 -7.86,0.34 -13.75,0.38 -17.66,0.12 -17.32,-1.12 -25.53,-8.66 -24.62,-22.63l0.51 -7.97c0.3,-0.26 2.22,0.57 5.73,2.48 3.58,-11.83 14.94,-31.42 34.11,-58.78 16.4,-23.62 25.15,-43.95 26.27,-60.99 1.63,0.67 3.14,1.05 4.54,1.13 3.63,0.24 6.76,-2.57 9.38,-8.43 2.63,-5.86 6.01,-8.37 10.17,-7.54l-16.42 -12.84 6.17 -4.23c-9.04,-7.61 -16.78,-18.06 -23.21,-31.38 -4.83,-12.1 -9.65,-24.18 -14.47,-36.28l6.16 -4.22c-1.88,-5.46 -7.43,-15.22 -16.61,-29.27 -7.39,-11.43 -10.85,-20.91 -10.36,-28.44 0.26,-3.91 1.36,-7.91 3.31,-11.99 10.98,-0.69 25.82,-2.4 44.5,-5.1 1.02,5.95 3.76,9.07 8.23,9.36 0.84,0.06 2.32,-0.06 4.43,-0.34 2.13,-0.29 3.75,-0.4 4.87,-0.32 4.75,0.31 7.91,3.46 9.48,9.46z"/>
   <path id="1" class="fil1" d="M3241.68 2089.2c4.46,4.78 7.84,13.12 10.15,25.05 2.86,16.45 4.9,26.13 6.12,29.02 3.52,10.6 9.77,17.87 18.77,21.82 -0.19,-1.41 -0.23,-2.95 -0.12,-4.63 0.41,-6.43 4.86,-14.34 13.33,-23.75 8.45,-9.4 12.87,-16.9 13.24,-22.49 0.14,-2.23 -0.12,-4.64 -0.8,-7.21l16.47 -1.03 -4.06 -8.67 14.04 -2.46 -2.68 -10.7c9.36,-1.35 17.66,-1.8 24.91,-1.32 15.66,1.01 27.65,6.28 36,15.8 -16.83,34.8 -42.6,83.75 -77.26,146.87 6.31,10.78 13.7,28.65 22.18,53.61 7.77,22.94 16.01,40.72 24.72,53.35 -0.34,5.3 2.42,13.69 8.26,25.14 5.85,11.46 8.62,19.57 8.32,24.31 -0.42,6.42 -4.68,11.48 -12.77,15.16 -9.64,-2.59 -19.22,-5.17 -28.74,-7.76 -9.5,-2.58 -18.03,-4.11 -25.58,-4.61 -3.62,-0.23 -7.4,-0.19 -11.35,0.11 -0.09,-7.29 -3.06,-17.73 -8.92,-31.29 -5.06,-12.67 -7.31,-23.33 -6.75,-31.99 -4.57,-3.1 -7.12,-9.3 -7.63,-18.58 -0.6,-8.18 -4.77,-12.94 -12.54,-14.28 -2.08,10.52 -9.63,25.32 -22.65,44.38 -13.02,19.07 -20.62,34.57 -22.79,46.49 -2.45,-1.28 -5.63,-2.05 -9.53,-2.31 -3.35,-0.21 -8.96,-0.15 -16.85,0.17 -7.86,0.34 -13.75,0.38 -17.66,0.12 -17.32,-1.12 -25.53,-8.66 -24.62,-22.63l0.51 -7.97c0.3,-0.26 2.22,0.57 5.73,2.48 3.58,-11.83 14.94,-31.42 34.11,-58.78 16.4,-23.62 25.15,-43.95 26.27,-60.99 1.63,0.67 3.14,1.05 4.54,1.13 3.63,0.24 6.76,-2.57 9.38,-8.43 2.63,-5.86 6.01,-8.37 10.17,-7.54l-16.42 -12.84 6.17 -4.23c-9.04,-7.61 -16.78,-18.06 -23.21,-31.38 -4.83,-12.1 -9.65,-24.18 -14.47,-36.28l6.16 -4.22c-1.88,-5.46 -7.43,-15.22 -16.61,-29.27 -7.39,-11.43 -10.85,-20.91 -10.36,-28.44 0.26,-3.91 1.36,-7.91 3.31,-11.99 10.98,-0.69 25.82,-2.4 44.5,-5.1 1.02,5.95 3.76,9.07 8.23,9.36 0.84,0.06 2.32,-0.06 4.43,-0.34 2.13,-0.29 3.75,-0.4 4.87,-0.32 4.75,0.31 7.91,3.46 9.48,9.46z"/>
  </g>
  <g>
   <path class="fil0 str2" d="M3832.76 2059.62c1.01,-2.54 4.9,-4.51 11.65,-5.93 6.76,-1.4 11.13,-5.08 13.07,-11.03l39.05 1.67c10.7,-1 21.79,5.19 33.28,18.6 9.37,11.29 18.69,22.77 27.92,34.43l10.21 28.98c-5.84,0.4 -10.78,1.49 -14.83,3.24 -2.54,1.09 -5.91,3.22 -10.11,6.38 -4.21,3.15 -8.08,5.5 -11.64,7.03 -2.52,1.09 -5.3,1.99 -8.3,2.69 -9.47,-1.04 -18.94,-8.69 -28.4,-22.96 -9.12,-13.52 -18.69,-20.37 -28.69,-20.57 -7.88,3.39 -15.6,6.72 -23.22,10 -7.93,4.61 -12.72,11.64 -14.37,21.08 4.66,11.52 11.71,31.04 21.16,58.55 8.56,25.48 15.75,44.94 21.54,58.37 9.5,22.07 20.02,40.56 31.54,55.44 13.5,6.22 25.96,6.86 37.38,1.94 5.33,-2.29 9.31,-5.96 11.95,-11.01 2.01,-7.18 1.54,-17.35 -1.42,-30.51 -3.19,-15.77 -4.68,-26.56 -4.47,-32.36 -1.28,-3.66 1.71,-8.26 8.95,-13.78 9.71,-7.5 15.37,-12.49 16.99,-14.99 6.25,-0.89 12.6,-1.82 19.09,-2.8 6.5,-1 12.66,1.08 18.54,6.37 8.18,21.06 12.57,42.09 13.2,63.09 0.89,25.11 -4.48,43.36 -16.17,54.64 -1.58,6.08 -4.9,10.23 -9.98,12.42 -1.52,0.66 -3.95,1.47 -7.28,2.46 -3.34,0.98 -5.76,1.8 -7.29,2.45 -4.07,1.75 -6.77,4.88 -8.13,9.38 -7.18,0.08 -15.09,1.99 -23.72,5.7 -2.29,0.98 -5.58,2.41 -9.89,4.27 -4.31,1.85 -7.61,3.28 -9.9,4.26 -14.19,6.11 -27.41,6.17 -39.65,0.08 -2,-1.16 -6,-2.75 -11.93,-4.63 -4.5,-1.37 -7.23,-3.2 -8.19,-5.41 -0.87,-2.04 -0.95,-4.64 -0.26,-7.94 -1.05,1.04 -2.08,1.8 -3.09,2.23 -2.29,0.99 -5.28,0.33 -8.99,-1.99 -4.64,-3.11 -8.26,-4.86 -10.83,-5.26 -1.42,-3.3 -4.96,-8.92 -10.64,-16.84 -5.67,-7.94 -9.48,-14.18 -11.45,-18.76 -3.28,-7.6 -4.04,-14.95 -2.27,-22.03l-14.39 -11.38c0.51,-0.21 2.61,-0.22 6.32,-0.02 -0.08,-5.06 -1.44,-10.65 -4.06,-16.74 -5.25,-12.18 -12.47,-19.89 -21.71,-23.13l10.53 4.5c-1.03,-3.78 -2.41,-7.69 -4.17,-11.74 -2.19,-5.08 -6,-12.38 -11.46,-21.91 -5.45,-9.53 -9.28,-16.83 -11.45,-21.91 -5.25,-12.17 -7.07,-23.71 -5.46,-34.64l11.8 1.24c-2.18,-2.97 -3.9,-5.92 -5.21,-8.96 -2.92,-6.78 -3.71,-14.56 -2.32,-23.2 1.65,-7.34 3.28,-14.74 4.82,-22.31 2.74,-2.01 8.54,-8.11 17.41,-18.24 7.18,-8.44 13.82,-14 19.91,-16.62 5.83,-2.52 12.16,-3.15 19.03,-1.89z"/>
   <path id="1" class="fil1" d="M3832.76 2059.62c1.01,-2.54 4.9,-4.51 11.65,-5.93 6.76,-1.4 11.13,-5.08 13.07,-11.03l39.05 1.67c10.7,-1 21.79,5.19 33.28,18.6 9.37,11.29 18.69,22.77 27.92,34.43l10.21 28.98c-5.84,0.4 -10.78,1.49 -14.83,3.24 -2.54,1.09 -5.91,3.22 -10.11,6.38 -4.21,3.15 -8.08,5.5 -11.64,7.03 -2.52,1.09 -5.3,1.99 -8.3,2.69 -9.47,-1.04 -18.94,-8.69 -28.4,-22.96 -9.12,-13.52 -18.69,-20.37 -28.69,-20.57 -7.88,3.39 -15.6,6.72 -23.22,10 -7.93,4.61 -12.72,11.64 -14.37,21.08 4.66,11.52 11.71,31.04 21.16,58.55 8.56,25.48 15.75,44.94 21.54,58.37 9.5,22.07 20.02,40.56 31.54,55.44 13.5,6.22 25.96,6.86 37.38,1.94 5.33,-2.29 9.31,-5.96 11.95,-11.01 2.01,-7.18 1.54,-17.35 -1.42,-30.51 -3.19,-15.77 -4.68,-26.56 -4.47,-32.36 -1.28,-3.66 1.71,-8.26 8.95,-13.78 9.71,-7.5 15.37,-12.49 16.99,-14.99 6.25,-0.89 12.6,-1.82 19.09,-2.8 6.5,-1 12.66,1.08 18.54,6.37 8.18,21.06 12.57,42.09 13.2,63.09 0.89,25.11 -4.48,43.36 -16.17,54.64 -1.58,6.08 -4.9,10.23 -9.98,12.42 -1.52,0.66 -3.95,1.47 -7.28,2.46 -3.34,0.98 -5.76,1.8 -7.29,2.45 -4.07,1.75 -6.77,4.88 -8.13,9.38 -7.18,0.08 -15.09,1.99 -23.72,5.7 -2.29,0.98 -5.58,2.41 -9.89,4.27 -4.31,1.85 -7.61,3.28 -9.9,4.26 -14.19,6.11 -27.41,6.17 -39.65,0.08 -2,-1.16 -6,-2.75 -11.93,-4.63 -4.5,-1.37 -7.23,-3.2 -8.19,-5.41 -0.87,-2.04 -0.95,-4.64 -0.26,-7.94 -1.05,1.04 -2.08,1.8 -3.09,2.23 -2.29,0.99 -5.28,0.33 -8.99,-1.99 -4.64,-3.11 -8.26,-4.86 -10.83,-5.26 -1.42,-3.3 -4.96,-8.92 -10.64,-16.84 -5.67,-7.94 -9.48,-14.18 -11.45,-18.76 -3.28,-7.6 -4.04,-14.95 -2.27,-22.03l-14.39 -11.38c0.51,-0.21 2.61,-0.22 6.32,-0.02 -0.08,-5.06 -1.44,-10.65 -4.06,-16.74 -5.25,-12.18 -12.47,-19.89 -21.71,-23.13l10.53 4.5c-1.03,-3.78 -2.41,-7.69 -4.17,-11.74 -2.19,-5.08 -6,-12.38 -11.46,-21.91 -5.45,-9.53 -9.28,-16.83 -11.45,-21.91 -5.25,-12.17 -7.07,-23.71 -5.46,-34.64l11.8 1.24c-2.18,-2.97 -3.9,-5.92 -5.21,-8.96 -2.92,-6.78 -3.71,-14.56 -2.32,-23.2 1.65,-7.34 3.28,-14.74 4.82,-22.31 2.74,-2.01 8.54,-8.11 17.41,-18.24 7.18,-8.44 13.82,-14 19.91,-16.62 5.83,-2.52 12.16,-3.15 19.03,-1.89z"/>
  </g>
  <g>
   <path class="fil0 str0" d="M2974.51 1938c1.75,0.9 16.46,11.38 44.1,31.42 17.85,13.07 33.45,21.79 46.83,26.17 -0.77,4.95 0.75,9.3 4.6,13.07 0.46,0.33 4.22,3.01 11.28,8.04l-30.94 43.43c-12.02,-3.41 -27.74,-12.21 -47.18,-26.41 -29.92,-21.67 -45.33,-32.83 -46.24,-33.48 -8.29,9.22 -15.04,17.47 -20.23,24.77 -7.48,10.48 -12.4,20.04 -14.76,28.66 6.28,7.57 15.84,14.9 28.67,21.98 18.16,10.19 28.5,16.19 31.01,17.97 7.51,5.37 13.54,11.37 18.07,18.05 -2.56,7.46 -6.44,14.83 -11.63,22.12 -10.08,14.13 -15.11,21.2 -15.11,21.2 -10.19,2.71 -21.43,-0.33 -33.74,-9.1 -5.25,-3.73 -12.52,-10.03 -21.83,-18.91 -9.32,-8.87 -15.92,-14.69 -19.8,-17.45 -8.88,-6.33 -16.26,-7.81 -22.11,-4.42 -7.28,4.43 -13.43,16.2 -18.45,35.3 -4.17,-0.9 -6.98,-0.33 -8.45,1.72 -0.64,0.91 -1.31,2.93 -1.99,6.05 -0.68,3.12 -1.51,5.38 -2.48,6.74 -0.98,1.37 -2.29,2.49 -3.95,3.37 6.38,6.97 15.15,14.42 26.33,22.37 2.27,1.63 5.81,4.15 10.6,7.56 4.56,3.25 7.97,5.69 10.25,7.31 18.24,13 31.23,25.87 38.94,38.66 -2.98,3.71 -5.96,9.34 -8.87,16.8 -2.87,7.4 -5.24,12.41 -7.02,14.92 -3.95,5.53 -9.68,8.5 -17.26,9.01 -4.49,-5.26 -9.48,-9.84 -14.95,-13.74 -12.98,-9.27 -26.83,-14.67 -41.54,-16.21 -0.69,-5.3 -2.86,-9.25 -6.51,-11.86 -1.13,-0.81 -3.01,-1.8 -5.6,-2.96 -2.61,-1.17 -4.49,-2.16 -5.62,-2.98 -3.43,-2.44 -5.7,-5.77 -6.81,-10 -4.84,-1.39 -9.77,-3.88 -14.79,-7.45 -2.51,-1.78 -6.08,-4.84 -10.72,-9.19 -4.64,-4.34 -8.21,-7.39 -10.72,-9.18 -5.02,-3.58 -9.94,-6.06 -14.8,-7.45 -1.95,-4.49 -3.8,-8.65 -5.56,-12.47 -1.73,-3.81 -1.91,-8.16 -0.51,-13 31.94,-38.07 56.47,-72.48 73.59,-103.25l1.52 3.66c5.3,-5.5 10.29,-11.55 15.01,-18.17 7.64,-10.71 17.29,-27.63 28.95,-50.77 11.68,-23.12 21.34,-40.05 28.97,-50.75 5.36,-7.53 11.05,-14.3 17.06,-20.32 6.18,3.37 11.12,4.15 14.83,2.32 4.3,-3.14 8.59,-6.26 12.88,-9.38 4.38,9.29 9.63,16.13 15.78,20.52 3.2,2.28 6.83,4.18 10.9,5.71z"/>
   <path id="1" class="fil1" d="M2974.51 1938c1.75,0.9 16.46,11.38 44.1,31.42 17.85,13.07 33.45,21.79 46.83,26.17 -0.77,4.95 0.75,9.3 4.6,13.07 0.46,0.33 4.22,3.01 11.28,8.04l-30.94 43.43c-12.02,-3.41 -27.74,-12.21 -47.18,-26.41 -29.92,-21.67 -45.33,-32.83 -46.24,-33.48 -8.29,9.22 -15.04,17.47 -20.23,24.77 -7.48,10.48 -12.4,20.04 -14.76,28.66 6.28,7.57 15.84,14.9 28.67,21.98 18.16,10.19 28.5,16.19 31.01,17.97 7.51,5.37 13.54,11.37 18.07,18.05 -2.56,7.46 -6.44,14.83 -11.63,22.12 -10.08,14.13 -15.11,21.2 -15.11,21.2 -10.19,2.71 -21.43,-0.33 -33.74,-9.1 -5.25,-3.73 -12.52,-10.03 -21.83,-18.91 -9.32,-8.87 -15.92,-14.69 -19.8,-17.45 -8.88,-6.33 -16.26,-7.81 -22.11,-4.42 -7.28,4.43 -13.43,16.2 -18.45,35.3 -4.17,-0.9 -6.98,-0.33 -8.45,1.72 -0.64,0.91 -1.31,2.93 -1.99,6.05 -0.68,3.12 -1.51,5.38 -2.48,6.74 -0.98,1.37 -2.29,2.49 -3.95,3.37 6.38,6.97 15.15,14.42 26.33,22.37 2.27,1.63 5.81,4.15 10.6,7.56 4.56,3.25 7.97,5.69 10.25,7.31 18.24,13 31.23,25.87 38.94,38.66 -2.98,3.71 -5.96,9.34 -8.87,16.8 -2.87,7.4 -5.24,12.41 -7.02,14.92 -3.95,5.53 -9.68,8.5 -17.26,9.01 -4.49,-5.26 -9.48,-9.84 -14.95,-13.74 -12.98,-9.27 -26.83,-14.67 -41.54,-16.21 -0.69,-5.3 -2.86,-9.25 -6.51,-11.86 -1.13,-0.81 -3.01,-1.8 -5.6,-2.96 -2.61,-1.17 -4.49,-2.16 -5.62,-2.98 -3.43,-2.44 -5.7,-5.77 -6.81,-10 -4.84,-1.39 -9.77,-3.88 -14.79,-7.45 -2.51,-1.78 -6.08,-4.84 -10.72,-9.19 -4.64,-4.34 -8.21,-7.39 -10.72,-9.18 -5.02,-3.58 -9.94,-6.06 -14.8,-7.45 -1.95,-4.49 -3.8,-8.65 -5.56,-12.47 -1.73,-3.81 -1.91,-8.16 -0.51,-13 31.94,-38.07 56.47,-72.48 73.59,-103.25l1.52 3.66c5.3,-5.5 10.29,-11.55 15.01,-18.17 7.64,-10.71 17.29,-27.63 28.95,-50.77 11.68,-23.12 21.34,-40.05 28.97,-50.75 5.36,-7.53 11.05,-14.3 17.06,-20.32 6.18,3.37 11.12,4.15 14.83,2.32 4.3,-3.14 8.59,-6.26 12.88,-9.38 4.38,9.29 9.63,16.13 15.78,20.52 3.2,2.28 6.83,4.18 10.9,5.71z"/>
  </g>
  <g>
   <path class="fil0 str1" d="M3608.46 2090.69c2.85,3.55 8.3,6.15 16.32,7.79 6.09,1.24 9.62,5.11 10.61,11.63 0,0 -3.34,51.39 -10.01,154.17 -4.02,62 -6.26,113.89 -6.73,155.65 -21.37,5.06 -36.63,6.74 -45.77,5.02 -1.58,-1.5 -6.26,-2.93 -14.03,-4.27 -7.76,-1.35 -12.91,-4.06 -15.45,-8.16l-0.86 -25.72c1.15,-0.49 2.64,0.31 4.48,2.39 -1.2,-7.64 -1.42,-17.06 -0.7,-28.22 0.26,-3.92 0.77,-9.7 1.55,-17.36 0.77,-7.66 1.28,-13.31 1.52,-16.94 0.67,-10.34 0.25,-19.06 -1.25,-26.17 3.16,-1.2 5.94,-4.94 8.31,-11.25 1.69,-4.36 5.43,-5.95 11.24,-4.73 -3.33,-4.99 -4.78,-10.69 -4.37,-17.11 0.21,-3.08 1.2,-7.64 3,-13.69 1.8,-6.06 2.79,-10.62 2.99,-13.69 0.58,-8.94 -3.13,-16.61 -11.12,-23.03l5.7 2.9c6.62,-32.94 10.27,-54.59 10.94,-64.92 1.4,-21.5 -1.54,-41.18 -8.78,-59.05 3.91,0.26 8.5,-0.29 13.77,-1.63 5.28,-1.34 9.18,-1.93 11.69,-1.77 4.47,0.29 9.24,2.29 14.34,5.98l2.61 -7.82z"/>
   <path id="1" class="fil1" d="M3608.46 2090.69c2.85,3.55 8.3,6.15 16.32,7.79 6.09,1.24 9.62,5.11 10.61,11.63 0,0 -3.34,51.39 -10.01,154.17 -4.02,62 -6.26,113.89 -6.73,155.65 -21.37,5.06 -36.63,6.74 -45.77,5.02 -1.58,-1.5 -6.26,-2.93 -14.03,-4.27 -7.76,-1.35 -12.91,-4.06 -15.45,-8.16l-0.86 -25.72c1.15,-0.49 2.64,0.31 4.48,2.39 -1.2,-7.64 -1.42,-17.06 -0.7,-28.22 0.26,-3.92 0.77,-9.7 1.55,-17.36 0.77,-7.66 1.28,-13.31 1.52,-16.94 0.67,-10.34 0.25,-19.06 -1.25,-26.17 3.16,-1.2 5.94,-4.94 8.31,-11.25 1.69,-4.36 5.43,-5.95 11.24,-4.73 -3.33,-4.99 -4.78,-10.69 -4.37,-17.11 0.21,-3.08 1.2,-7.64 3,-13.69 1.8,-6.06 2.79,-10.62 2.99,-13.69 0.58,-8.94 -3.13,-16.61 -11.12,-23.03l5.7 2.9c6.62,-32.94 10.27,-54.59 10.94,-64.92 1.4,-21.5 -1.54,-41.18 -8.78,-59.05 3.91,0.26 8.5,-0.29 13.77,-1.63 5.28,-1.34 9.18,-1.93 11.69,-1.77 4.47,0.29 9.24,2.29 14.34,5.98l2.61 -7.82z"/>
  </g>
  <g>
   <path class="fil0 str2" d="M4311.27 1897.2c-5.19,-5.67 -14.44,-10.53 -27.75,-14.55 -11.22,-3.39 -22.36,-6.67 -33.48,-9.81 -5.85,-0.84 -12.61,0.41 -20.33,3.73 -2.57,1.11 -6.48,3.02 -11.7,5.72 -5.23,2.72 -9.14,4.63 -11.71,5.74 -7.72,3.32 -14.48,4.56 -20.33,3.73 -3.09,1.33 -5.7,4.29 -7.85,8.86 -2.14,4.59 -2.6,8.28 -1.37,11.11 0.33,0.78 0.79,1.49 1.38,2.15 -1.65,0.41 -4.77,0.6 -9.35,0.6 -4.57,-0.02 -7.89,0.42 -9.95,1.31 -2.05,0.88 -3.65,2.49 -4.78,4.8 5.59,3.09 8.94,5.91 10.05,8.48 0.87,2.05 -0.11,5.6 -2.96,10.64 -2.86,5.04 -4.12,10.08 -3.77,15.12l-12.59 -6.92c-1.22,1.43 -1.65,2.53 -1.32,3.3 0.34,0.78 1.61,1.45 3.83,2 2.23,0.57 3.64,1.19 4.23,1.85l-15.99 26.54c-3.65,15.6 -1.31,33.02 6.98,52.3 1.67,3.85 4.49,9.89 8.48,18.07 3.98,8.18 6.86,14.34 8.63,18.44 1.99,4.64 3.69,8.93 5.09,12.9l12.34 -5.31 -0.18 19.72 -12.24 0.25c3.64,-0.04 7.48,1.81 11.53,5.55 1.89,2.24 3.95,4.55 6.19,6.94l5.71 18.57c9.9,6.7 17.92,16.5 24.09,29.39 8.08,16.63 13.05,26.06 14.94,28.3 7.15,8.82 18.14,13.82 32.99,15.05 8.86,0.75 20.82,-0.28 35.91,-3.13 15.08,-2.84 26.94,-4.14 35.57,-3.89 -0.05,-5.78 2.24,-9.66 6.87,-11.65 2.06,-0.89 5.9,-1.7 11.51,-2.45 5.62,-0.74 9.73,-1.67 12.3,-2.78 2.06,-0.89 3.81,-2.1 5.29,-3.65 15.97,-9.61 24.89,-25.66 26.81,-48.11 0.42,-7.5 -0.94,-26.57 -4.08,-57.22 -1.62,-4.47 -7.66,-21.68 -18.12,-51.62 -7.06,-21.33 -13.41,-38.56 -19.06,-51.67 -12.29,-28.54 -26.22,-51.33 -41.81,-68.4zm-3.13 243.18c-6.16,2.65 -12.17,2.87 -17.99,0.67 -5.83,-2.21 -11.51,-4.42 -17.02,-6.62 -10.68,-14.9 -22.36,-36.69 -35.02,-65.37 -18.11,-40.65 -28.7,-63.82 -31.77,-69.51 2.3,-5.26 1.54,-14.83 -2.31,-28.72 -3.48,-11.6 -1.86,-20.22 4.86,-25.86 2.75,-2.11 5.54,-3.76 8.36,-4.98 6.68,-2.88 13.62,-3.42 20.79,-1.64 7.16,1.8 12.92,5.26 17.27,10.39 12,7.33 21.43,18.96 28.29,34.9 1.88,4.37 4.36,11 7.42,19.89 3.07,8.89 5.54,15.52 7.42,19.89 7.43,17.21 18.04,29.11 31.82,35.66 -1.67,5.3 -1.57,14.4 0.34,27.28 1.93,14.4 2.55,24.34 1.86,29.83 -1.59,10.44 -6.89,17.59 -15.89,21.47 -2.57,1.1 -5.38,2.01 -8.43,2.72z"/>
   <path id="1" class="fil1" d="M4311.27 1897.2c-5.19,-5.67 -14.44,-10.53 -27.75,-14.55 -11.22,-3.39 -22.36,-6.67 -33.48,-9.81 -5.85,-0.84 -12.61,0.41 -20.33,3.73 -2.57,1.11 -6.48,3.02 -11.7,5.72 -5.23,2.72 -9.14,4.63 -11.71,5.74 -7.72,3.32 -14.48,4.56 -20.33,3.73 -3.09,1.33 -5.7,4.29 -7.85,8.86 -2.14,4.59 -2.6,8.28 -1.37,11.11 0.33,0.78 0.79,1.49 1.38,2.15 -1.65,0.41 -4.77,0.6 -9.35,0.6 -4.57,-0.02 -7.89,0.42 -9.95,1.31 -2.05,0.88 -3.65,2.49 -4.78,4.8 5.59,3.09 8.94,5.91 10.05,8.48 0.87,2.05 -0.11,5.6 -2.96,10.64 -2.86,5.04 -4.12,10.08 -3.77,15.12l-12.59 -6.92c-1.22,1.43 -1.65,2.53 -1.32,3.3 0.34,0.78 1.61,1.45 3.83,2 2.23,0.57 3.64,1.19 4.23,1.85l-15.99 26.54c-3.65,15.6 -1.31,33.02 6.98,52.3 1.67,3.85 4.49,9.89 8.48,18.07 3.98,8.18 6.86,14.34 8.63,18.44 1.99,4.64 3.69,8.93 5.09,12.9l12.34 -5.31 -0.18 19.72 -12.24 0.25c3.64,-0.04 7.48,1.81 11.53,5.55 1.89,2.24 3.95,4.55 6.19,6.94l5.71 18.57c9.9,6.7 17.92,16.5 24.09,29.39 8.08,16.63 13.05,26.06 14.94,28.3 7.15,8.82 18.14,13.82 32.99,15.05 8.86,0.75 20.82,-0.28 35.91,-3.13 15.08,-2.84 26.94,-4.14 35.57,-3.89 -0.05,-5.78 2.24,-9.66 6.87,-11.65 2.06,-0.89 5.9,-1.7 11.51,-2.45 5.62,-0.74 9.73,-1.67 12.3,-2.78 2.06,-0.89 3.81,-2.1 5.29,-3.65 15.97,-9.61 24.89,-25.66 26.81,-48.11 0.42,-7.5 -0.94,-26.57 -4.08,-57.22 -1.62,-4.47 -7.66,-21.68 -18.12,-51.62 -7.06,-21.33 -13.41,-38.56 -19.06,-51.67 -12.29,-28.54 -26.22,-51.33 -41.81,-68.4zm-3.13 243.18c-6.16,2.65 -12.17,2.87 -17.99,0.67 -5.83,-2.21 -11.51,-4.42 -17.02,-6.62 -10.68,-14.9 -22.36,-36.69 -35.02,-65.37 -18.11,-40.65 -28.7,-63.82 -31.77,-69.51 2.3,-5.26 1.54,-14.83 -2.31,-28.72 -3.48,-11.6 -1.86,-20.22 4.86,-25.86 2.75,-2.11 5.54,-3.76 8.36,-4.98 6.68,-2.88 13.62,-3.42 20.79,-1.64 7.16,1.8 12.92,5.26 17.27,10.39 12,7.33 21.43,18.96 28.29,34.9 1.88,4.37 4.36,11 7.42,19.89 3.07,8.89 5.54,15.52 7.42,19.89 7.43,17.21 18.04,29.11 31.82,35.66 -1.67,5.3 -1.57,14.4 0.34,27.28 1.93,14.4 2.55,24.34 1.86,29.83 -1.59,10.44 -6.89,17.59 -15.89,21.47 -2.57,1.1 -5.38,2.01 -8.43,2.72z"/>
  </g>
  <path class="fil2" d="M6255.49 4455.62l166.34 2.91 -4.34 -195.9c-98.24,6.38 -82.29,22.29 -161.59,21.68l-0.41 171.31z"/>
  <path class="fil2" d="M3671.04 4875.45l0.23 -3.82c377.24,20.36 760.39,0.3 1137.77,5.19 206.39,2.67 920.7,43.28 1050.35,-53.84 45.38,74.33 -24.1,41.26 106.32,54.75l456.68 0.88 0.56 -411.8c-233.39,80.51 -170.53,49.37 -167.34,249.15l-658.82 -10.71c-39.05,42.15 -25.05,19.59 -38.16,91.76 -71.88,-49.87 -47.96,-53.26 -137.88,-77.5 8.45,51.59 27.34,87.98 27.66,90.99l-84.07 -77.46c-1.52,-10.64 -4.47,-13.5 -8.25,-19.45 -590.6,4.21 -1590.63,-21.85 -2146.38,0.64 -32.95,1.32 -52.65,4.78 -80.28,7.08 -63.88,5.31 -19.12,3.15 -47.2,2.93l-1862.54 -9.11c-164.6,-2.38 -369.94,-35.86 -366.78,158 110.48,-32.49 -12.33,-58.49 107.92,-70.92 67.01,-6.93 41.21,15.86 43.05,18.04 62.87,74.62 -22.45,-44.68 11.31,24.8l54.26 30.2c258.09,0.7 241.01,-22.64 284.36,-23.81 32.72,-0.89 60.2,28.39 282.2,24.97 332.75,-5.12 461.7,54.2 569.03,-81.28 54.8,34.07 21,17.99 40.76,43.75 3.23,4.19 -0.89,72.52 16.91,26.15 1.3,-3.38 4.6,9.62 7.98,12.78l1400.35 -2.36z"/>
  <path class="fil2" d="M3248.25 4640.35l0.25 -3.82c408.17,20.37 822.73,0.3 1231.04,5.19 223.31,2.68 996.18,43.28 1136.46,-53.84 49.1,74.33 -26.08,41.26 115.03,54.75l494.12 0.88 0.61 -411.8c-252.53,80.51 -184.51,49.37 -181.06,249.15l-712.83 -10.71c-42.24,42.15 -27.1,19.59 -41.29,91.76 -77.76,-49.87 -51.89,-53.26 -149.18,-77.5 9.14,51.6 29.58,87.98 29.92,90.99l-90.95 -77.46c-1.65,-10.64 -4.84,-13.5 -8.93,-19.45 -639.02,4.22 -1721.03,-21.85 -2322.33,0.64 -35.66,1.32 -56.97,4.78 -86.87,7.08 -69.12,5.31 -20.69,3.15 -51.07,2.94l-2015.22 -9.12c-178.09,-2.38 -400.27,-35.86 -396.86,158 119.54,-32.49 -13.34,-58.49 116.77,-70.92 72.51,-6.93 44.59,15.86 46.58,18.04 68.03,74.62 -24.29,-44.68 12.24,24.8l58.71 30.2c279.24,0.7 260.76,-22.64 307.67,-23.81 35.4,-0.88 65.13,28.39 305.34,24.97 360.02,-5.12 499.55,54.21 615.68,-81.28 59.28,34.07 22.71,17.99 44.09,43.75 3.49,4.19 -0.95,72.52 18.3,26.15 1.4,-3.38 4.98,9.63 8.64,12.78l1515.14 -2.36z"/>
  <path class="fil2" d="M397.93 2781.88l31.02 -45.24c49.06,-66.67 41.79,-100.42 43.9,-192.07 2.01,-87.75 8.61,-182.97 0.69,-275.33 -89.35,-23.98 -133.2,0.77 -134.06,-105.65 -47.02,33.4 -27.69,90.02 -27.04,142.53 0.64,53.02 -2.26,100.65 -3.26,157.21 -1.64,92.38 -15.15,231.87 5.9,329.83 53.73,7.36 5.66,7.64 82.85,-11.28z"/>
  <path class="fil2" d="M6423.81 4242.96c-6.63,-240.59 -62.25,-190.71 -2.35,-236.64l1.48 -331.55 -161.89 42.18 -7.51 521.57c109.83,-13.14 57.24,-20.69 170.27,4.44z"/>
  <path class="fil2" d="M6209.62 1033.09c45.63,36.69 27.57,81.21 85.94,108.94 53.68,25.5 28.65,-13.55 94.68,-46.75 -82.97,214.08 -165.36,-27.37 -121.65,342.99l-4.97 182.91c-4.03,150.92 -7.29,298.71 -10.32,449.27 39.92,-17.14 28.22,-37.74 70.41,-36.93 66.86,1.26 31.22,-10.42 33.7,67.33 -122.54,71.19 14.91,-51.84 -101.57,24.5l-1.35 262.43 113.17 45.27 -115.27 6.48c9.07,233.56 3.18,481.39 3.29,713.79 0.06,116.53 -2.05,234.3 -1.47,351.55 0.34,65.31 -12.72,107.04 26.16,149.33 63.65,69.21 10.03,13.14 139.13,-3.42 -26.72,-744.99 26.55,-1511.84 -11.05,-2259.73l1.41 -66c10.7,-112.58 25.91,-296.06 2.76,-409.33 -125.77,-60.21 -461.31,-142.32 -597.98,-148.13l13.71 75.44c-18.93,-5.17 -96.78,-56.97 -143.07,-16.08 27.7,96.03 -26.6,19 97.11,66.45l427.23 139.69z"/>
  <path class="fil2" d="M198.33 1752.29c-22.5,-93.66 -9.36,-63.85 -75.78,-107.08 70.21,-25.31 65.41,-10.33 62.55,-108.24 -0.99,-33.99 -8.66,-55.88 -10.88,-76.44l18.77 -406.92 1277.08 -386.98c324.73,-99.16 335.43,-40.88 406.74,-163.08 106.61,68.06 566.44,-105.01 704.18,-146.04 109.54,-32.62 256.4,-56.21 357.18,-101.53 124.87,-56.16 9.06,-26.72 162.35,-49.31 84.41,-12.44 109.64,-29.41 201.64,-5.23l582.32 157.35c10.15,5.33 73.67,36.19 78.64,37.93l516.42 133.84c95.79,22.83 102.08,35.7 182.66,-16.87l81.18 97.08 35.43 -44.39c1.13,-1.5 16.67,-24.42 16.85,-24.65l72.85 88.57c35.54,43.56 71,38.64 135.06,46.66l-27.2 -60.51 -69.05 -100.58c-1,-2.68 -2.9,-9.57 -3.72,-11.97l-7.03 -23.69c-470.28,-113.22 -1012.25,-273.42 -1463.75,-411.63 -280.39,-85.83 -296.95,-45.57 -729.67,83.32 -237.77,70.8 -501.09,142.49 -754.01,213.65 -19.48,111.45 6.6,-100.16 1.62,45.73 -1.33,39.21 19.89,4.98 -6.42,54.32 -169.58,10.43 -21.02,-5.17 -122.04,-33.72 -86.01,-24.33 -264.77,44.95 -362.44,72.52l-1443.44 439.86 1.09 267.23c46.41,-16.81 82.76,-25.66 127.57,-41.61 -7.84,41.72 -9.36,37.89 -64.72,79.78l-28.71 19.81c-3.28,2.29 -10.08,6.2 -14.74,9.82 7.83,26.87 -50.48,-34.35 28.25,13.11 3.28,1.99 10.32,6.46 13.76,8.63l-50.35 27.92c-1.15,174.31 0.08,358 -3.1,464.08 112.62,-62.3 -41.22,-36.79 128.41,-46.47 -36.84,51.73 -45.6,77.87 -5.79,154.16 3.05,-4.12 4.87,-17.19 5.57,-14.36l44.67 -134.07z"/>
  <path class="fil2" d="M460.18 2076.77c-22.5,-93.65 -9.36,-63.84 -75.78,-107.08 70.21,-25.3 65.41,-10.32 62.55,-108.24 -0.99,-33.98 -8.66,-55.87 -10.88,-76.44l18.77 -406.91 1277.08 -386.99c324.72,-99.15 335.42,-40.87 406.73,-163.07 106.62,68.06 566.45,-105.02 704.19,-146.05 109.54,-32.62 256.4,-56.2 357.18,-101.52 124.86,-56.16 9.06,-26.72 162.35,-49.31 84.41,-12.44 109.64,-29.41 201.63,-5.23l582.33 157.34c10.15,5.34 73.66,36.19 78.64,37.94l516.42 133.84c95.79,22.83 102.07,35.7 182.66,-16.88l81.18 97.09 35.43 -44.4c1.12,-1.49 16.67,-24.42 16.85,-24.64l72.85 88.57c35.54,43.56 71,38.64 135.06,46.66l-27.21 -60.51 -69.04 -100.59c-1,-2.67 -2.9,-9.56 -3.72,-11.96l-7.04 -23.69c-470.27,-113.22 -1012.24,-273.42 -1463.74,-411.64 -280.4,-85.83 -296.95,-45.56 -729.68,83.33 -237.76,70.8 -501.08,142.49 -754.01,213.64 -19.47,111.46 6.61,-100.15 1.63,45.74 -1.34,39.21 19.88,4.97 -6.43,54.32 -169.57,10.42 -21.02,-5.17 -122.03,-33.72 -86.01,-24.33 -264.77,44.95 -362.44,72.52l-1443.44 439.86 1.08 267.23c46.42,-16.82 82.77,-25.66 127.58,-41.62 -7.84,41.73 -9.36,37.9 -64.72,79.79l-28.71 19.81c-3.29,2.28 -10.08,6.19 -14.74,9.82 7.83,26.87 -50.48,-34.35 28.24,13.1 3.29,2 10.32,6.47 13.76,8.63l-50.34 27.93c-1.15,174.31 0.08,358 -3.1,464.08 112.62,-62.3 -41.22,-36.79 128.4,-46.47 -36.83,51.73 -45.59,77.87 -5.78,154.16 3.05,-4.13 4.87,-17.19 5.57,-14.36l44.67 -134.08z"/>
  <path class="fil2" d="M166.91 2000.06c-103.12,10.71 -64.85,-2.09 -143.28,-18.94 -39.2,315.73 18.37,598.86 16.82,617.53l-24.44 496.44 67.17 42.27 -63.88 15.95 1.72 920.74c60.38,-23.03 71.04,-20.38 132.87,12.29l-136.45 4.82 7 787.5 714.48 -6.84c2.4,-4.25 4.16,-11.38 5.26,-13.65 68.37,-141.54 47.72,10.61 99.85,-145.39l-177.98 25.41c-17.49,1.39 10.43,1.25 -43.05,-11.57l-438.9 -9.72 -14.28 -281.66c15.79,-207.85 -50.56,-99.62 -3.47,-205.27 29.38,-65.87 5.19,-280.4 5.68,-378.44l-1.33 -217.88c-4.64,-141.57 24.58,-623.48 7.4,-809.2l-14.08 -95.53c-0.11,-3.48 -0.05,-9.56 0.08,-13.15 3.8,-112.66 43.06,-177.77 10.21,-395.73 -32.18,-213.45 -59.08,-23.09 14.31,-194.69l-23.29 -25.28c-2.03,-2.37 -7.4,-8.28 -9.3,-10.64 -22.15,-27.63 -17.72,32.77 -15.84,-29.7 44.47,-10.64 4.49,4.35 26.72,-59.67z"/>
  <path class="fil2" d="M2067.46 2714.92c2.93,37.18 10.75,-2.59 -1.44,59.74 24.06,-42.34 1.86,-16.26 34.87,-41.05 0.04,-13.15 -4.21,-29.76 6.42,-33.08l-9.83 -20.63c-21.17,5.64 -20.42,13.88 -30.02,35.02z"/>
  <path class="fil2" d="M2721.28 2777.21l-3.25 0.45c21.09,6.45 5.76,1.82 26.88,6.12 3.56,-21.71 7.86,-0.22 6.22,-27.22l-34.27 0.11 4.42 20.54z"/>
  <path class="fil2" d="M3510.97 2908.8c9.98,9.42 4.53,-9.13 8.43,17.9 0.56,3.82 -0.29,14.16 -0.57,18.33 -0.86,12.64 -2.83,26.25 -3.74,39.4l32.7 -0.71 1.28 -106.8 -10.93 -12.4c-6.32,22.02 17.01,17.41 -8.73,18.66 -6.35,21.11 0.55,9.58 -18.44,25.62z"/>
  <path class="fil2" d="M5683.61 2570.7c9.28,4.13 6.44,-4.49 9.7,4.5 0.05,-29.18 -1.21,-48.14 -29.81,-53.02 4.71,25.79 13.24,22.05 20.11,48.52z"/>
  <path class="fil2" d="M3412.41 2982.86l3.06 -2.6c12.62,-11.52 13.81,-14.9 24.95,-24.23l5.14 28.89 12.03 -1.77c3.65,-9.57 16.31,-31.78 21.34,-38.31 5.54,-7.19 26.49,-31.03 32.04,-36.04 18.99,-16.04 12.09,-4.51 18.44,-25.62 25.74,-1.25 2.41,3.36 8.73,-18.66 -6.61,-11.83 8.23,-14.03 24.27,-17l-1.98 -17.63c-32.38,1.23 -6.13,-1.3 -29.28,18.24 -9.4,7.94 -56.4,20.41 -69.63,73.52l-5.85 -38.6c-0.62,-24.88 4.46,-22.14 12.26,-39.51l-19.51 -18.33c-8.85,12.17 -5.7,12.21 -23.25,15.57 1.07,2.01 2.77,3.99 3.87,5.63 38.52,57.9 -1.92,100.92 -16.63,136.45z"/>
  <path class="fil2" d="M3092.6 2760.17c31.52,6.65 16.74,3.04 24.18,-1.59 -12.92,2.59 -12.81,-3.14 -34.68,18.66 27.68,16.53 21.63,5.4 40.95,-0.03 20.93,2.15 0.23,-0.94 9.57,8.55 29.16,-5.35 44.26,-7.45 66.78,-21.62 8.72,7.53 3.22,-3.49 5.18,13.46l10.75 -12.32 -23.68 -33.36c-12.3,-2.69 0.28,1.75 -10.93,-11.2 -17.59,18.86 -35.62,23.53 -67.57,32.86 7.58,-9.04 5.45,-3.12 8.24,-10.66 5.69,-15.38 3.85,0.31 -2.92,-9.44 -8.32,8.37 -6.24,5.08 -13.01,11.66 -9.69,9.4 -6.28,5.76 -12.86,15.03z"/>
  <path class="fil2" d="M2063.36 3132.83l17.96 3.26 4.62 -84.64c-9.89,-12.94 3.03,-3.21 -14.73,-7.56 -1.13,19.14 -5.93,25.24 -6.64,29.84 -3.97,25.8 5.65,-13.96 1.41,20.92l-2.62 38.18z"/>
  <path class="fil2" d="M6083.27 3147.11l-8.07 75.54c20.96,-10.54 -0.48,-0.89 31.94,1.71 5.3,0.43 17.97,-0.14 23.09,-1.69 18.06,-5.44 3.7,11.22 13.76,-9.17l-28.84 0.76 2.16 -37.56c27.88,6.98 13.78,3.38 24.21,29.38l23.74 2.51c-1.1,-1.59 -2.88,-3.32 -3.75,-4.41l-11.56 -15.5c-3.87,-7.66 -3.18,-9.37 -5.05,-17.75l-22.29 -91.01c-5.46,-29.97 -0.45,-28.71 -15.88,-47.14 -12.95,22.83 -16.63,78.91 -23.46,114.33z"/>
  <path class="fil2" d="M3009.04 3247.26l-4 31.71c30.28,-1.68 19.21,1.69 32.5,14.92 24.2,-18.44 10.91,-0.27 49.3,-37.31l-7.39 -11.98 -3.97 -14.81 -15.11 5.53c-0.69,0.63 -2.45,2.33 -3.31,3.08l-14.18 10.98c-11.43,7.73 -5.62,-0.07 -17.8,13.21 -1.05,-1.79 -6.13,-8.33 -7.72,-9.94 -0.63,-0.64 -3.42,-0.72 -3.93,-2.81 -0.53,-2.2 -2.93,-1.72 -4.39,-2.58z"/>
  <path class="fil2" d="M2712.89 2676.86c8.03,19.19 1.35,52.18 3.97,79.81l34.27 -0.11c-17.47,-30.2 -6.19,-45.04 -5.1,-78.03l-2.49 1.46 -30.65 -3.13z"/>
  <path class="fil2" d="M1811.11 2592.23c3.13,3.24 6.55,-0.14 9.45,17.92 2.68,16.68 1.96,17.63 -3.23,27.6 -18.3,-7.36 -13.1,-29.5 -6.22,-45.52zm32.32 -111.88c-41.66,-6.29 -22.32,-15.77 -9.53,-56.65l9.53 56.65zm-34.36 -51.94c-0.22,55.59 -18.36,6.09 -11.3,93.53 1.31,16.29 -1.05,39.13 -1.67,56.1 -0.76,20.85 2.08,41.09 -7.58,52.01 -3.08,9.89 -5.02,20.61 -5.39,39.66l46.59 1.7 -0.37 96.5c10.91,-6.21 9.09,6.65 13.33,-40.33 2.27,-25.17 13.69,-36.15 41.57,-55.21l17.94 -11.84c-23.19,1.01 -20.82,11.69 -26.49,-62.74 -1.19,-15.67 -4.81,-1.31 -1.13,-24.1l-5.98 -15.5c-2.02,-7.65 -3.07,-15.18 -4.19,-23.05l-14.87 -119.38 -0.52 -32.73c-43.52,-0.25 -24.18,-3.73 -31.97,14.29l-7.97 31.09z"/>
  <path class="fil2" d="M5735.39 2751.47c0.62,-13.18 1.27,-8.53 4.57,-17.48 3.01,-8.18 3.69,-7.9 5.65,-18.87l-40.75 -0.22c2.75,17.61 -0.35,15.34 7.75,26.26 13.3,17.92 -4.44,15.17 22.78,10.31z"/>
  <path class="fil2" d="M2067.46 2714.92l-76.19 136.12c12.99,-2.82 38.11,-43.38 46.95,-61.55l-27.75 82.19c0.03,33.41 -8.46,8.77 -5.94,31.04l5.79 17.8c16.28,-13.59 16.02,-19.53 22.46,-42.15 4.09,-14.37 8.11,-24.98 13.09,-40.59l-35.49 115.01c-0.83,31.12 -1.11,9.57 4.45,16.33 5.43,24.09 -19.94,101.59 -28.52,132.86l-19.03 2.39 -15.49 32.95 64.73 -6.24c-1.86,-1.37 -4.62,-5.96 -5.54,-4.17l-14.6 -6.92 82.64 -308.02c0.33,24.27 -2,47.52 -2.81,71.72 -0.93,27.52 -1.34,36.78 -16.61,49.35 22.86,17.95 11.76,-5.71 14.45,24.92l-18.88 12.59c24.84,24.81 16.15,-4.67 10.37,32.52l0.85 35.46c40.68,-2.85 -3.96,-58.95 18.64,-106.37 0.61,1.47 1.12,2.21 1.26,4.61l3.17 199.91 30.7 -3.67 -7.47 -291.11 -5.38 -141.37c-10.63,3.32 -6.38,19.93 -6.42,33.08 -33.01,24.79 -10.81,-1.29 -34.87,41.05 12.19,-62.33 4.37,-22.56 1.44,-59.74z"/>
  <path class="fil2" d="M3772.19 3081.42c11.02,32.58 16.12,27.09 -0.05,65.78l-125.77 -2.01c9.79,21.38 135.57,8.49 136.92,8.11 28.45,-7.95 -0.87,-23.04 35.8,1.83 -3.62,-26.65 0.11,-56.12 -2.7,-86.63 -43.76,-4.53 -35.85,-6.97 -44.2,12.92z"/>
  <path class="fil2" d="M1921.02 3133.65c6.36,-39.97 -1.91,-32.23 30.39,-34.32 3.71,30.26 0.07,32.77 -30.39,34.32zm-10.23 -4.49c-0.27,-16.62 0.21,-21.92 1.83,-37.84l4.32 -24.46 21.01 0.59c-2.99,11.78 -6.36,24.9 -10.49,36.51 -8.14,22.83 -7.1,16.28 -16.67,25.2zm1917.38 -179.37l31.22 0.83c0.11,11.58 1.23,27.96 0.67,38.91 -0.4,8.05 -0.74,9.96 -2.35,17.59l-4.63 9.96c-32.72,-3.95 -16.35,11.7 -22.05,-21.67 -2.54,40.78 7,14.1 -14.56,18.49 0.11,-33.25 -4.13,-40.3 11.7,-64.11zm-1890.44 147.23c-1.57,-8.45 31.18,-120.93 53.92,-135.68 11.33,23.89 -16.49,89 -25.74,113.67 -12.26,32.75 0.54,18.9 -28.18,22.01zm1890.45 -155.22c-4.33,-7.44 -5.17,-1.92 -8.58,-20.97 -2.15,-12.02 -0.32,-14.7 0.29,-28.22l36.94 -0.86c1.29,9.55 3,18.91 2.29,28.92 -1.08,14.99 0.65,-2.61 -1.94,11.47l-29 9.66zm-1836.81 -8.15c8.91,-12.77 5.45,-9.38 20.91,-15.37 -2.96,27.07 -0.43,30.95 -23.03,41.4l2.12 -26.03zm540.8 -628.1c-4.22,63.4 -19.46,47.79 -22.36,66.62 1.4,26.33 17.68,34.59 10.79,80.09 -8.37,55.21 -19.16,170.34 -31.38,205.93 -1.84,5.37 -3.69,4 -2.25,15.28l5.05 11.9 34.53 4.28 17.45 2.26c2.35,30.11 3.17,26.49 -9.22,43.21 -28.44,38.39 10.57,-8.43 10.88,60.25l-1.91 181.32c-9.73,10.25 -3.12,2.38 -27.53,13.58l-7.87 69.29 20.36 9.53c6.69,2.73 8.19,3.55 15.89,6.51 -10.36,25.23 2.8,0.64 -22.26,18.9 26.36,3.86 25.29,-7.98 17.81,63.82l-36.38 0.12 -14.08 12.12c-40.92,-21.86 -51.96,1.2 -71.18,-6.65 -28.41,-4.16 -33.97,1.63 -55.11,1.67 -24.9,0.04 -10.22,-6.62 -48.03,-9.22 -29.19,-61.85 -20.85,-35.84 -20.68,-148.97 0.04,-24.33 -3.63,-27.45 8.23,-41.87 18.52,6.1 13.17,-12.04 12.01,21.49 -0.17,4.97 -12.02,49.94 -9.41,71.33 5.02,41.33 -5.99,16.86 16.08,25.83 6.95,-9.31 2.93,0.28 6.8,-14.85l5.51 -93.23c3.67,-33.15 -4.29,-28.64 -4.06,-49.85 0.45,-42.41 10.22,6.45 9.8,-42.34 -21.11,0.85 -22.6,0.57 -28.08,19.55 -6.44,22.3 1.96,22.49 -10.98,37.67 3.05,-45.25 -0.72,-103.97 21.42,-98.17 -1.17,-33.27 -4.03,-15.82 -6.88,-35.89 -1.84,-12.99 -1.53,-16.06 -0.52,-29.65 1.27,-17.02 3.88,-39.46 6.23,-56.29l17.12 -217.58c0.83,-1.49 2.2,-3.39 2.67,-4.39l4.03 -8.58c2.99,-8.22 1.39,-3.06 1.87,-13.19 -18.25,10.1 -10.73,11.13 -36.55,18.41l-0.73 -5.19 -8.13 24.91c9.04,49.22 -14.42,167.73 -20.4,224.34 -15.56,9.02 -0.71,-5.68 -24.69,9.26 -0.69,19.55 0.67,39.55 -2.08,58.73 -1.76,12.24 -5.81,25.67 -5.8,44.21 -0.18,23.64 6.51,68.41 -7.48,88.05 -9.01,-19.27 -1.1,-8.69 -5.59,-25.63 -0.52,-1.97 -0.97,-3.8 -1.49,-5.59l-6.71 -16.31c-0.43,119.56 -18.39,114.14 -20.85,153.06 -2.64,41.85 13.07,37.29 15.96,38.45 26.18,-12.82 6.39,-35.81 12.75,-76.11 0.15,-0.97 0.06,-13.03 8.1,-20.18l0.59 138.43c-1.22,0.57 -3.35,0.43 -4.01,0.49 -0.62,0.04 -3.03,0.28 -3.76,0.34 -1.2,0.08 -5.17,0.09 -6.42,0.2l-5.42 0.4c-59.3,10.23 -42.14,2.92 -103.66,5.36l-30.7 3.67 -3.17 -199.91c-0.14,-2.4 -0.65,-3.14 -1.26,-4.61 -22.6,47.42 22.04,103.52 -18.64,106.37l4.82 5.36c17.76,4.35 4.84,-5.38 14.73,7.56l-4.62 84.64 -17.96 -3.26 -46.84 -1.75 -64.73 6.24 15.49 -32.95c2.52,-26.75 28.59,-120.92 47.55,-135.25 -5.56,-6.76 -5.28,14.79 -4.45,-16.33l35.49 -115.01c-4.98,15.61 -9,26.22 -13.09,40.59 -6.44,22.62 -6.18,28.56 -22.46,42.15l-5.79 -17.8c-2.52,-22.27 5.97,2.37 5.94,-31.04 -5.04,10.37 6.24,-1.76 -6.77,6.59 -1.29,0.83 -10.46,4.12 -12.38,4.91 10.57,17.02 7.2,25.98 0.05,50.47l-23.52 65.09 -8.69 -21.49c-19.78,-44.31 -25.86,10.87 -19.66,-34.63 -24.33,6.11 -15.6,-1.04 -28.01,16.03 1.59,-41.02 -0.51,-89.4 -0.7,-131.58 -0.35,-74.19 9.29,-60.24 7.8,-79.06 -0.94,-11.79 -1.05,3.98 -7.78,-20.62 1.88,-17.8 35.91,-7.81 21.3,-45.78 -1.48,-3.84 -23.94,-36.62 -27.06,-39.09l-2.86 18.01 -17.94 11.84c-27.88,19.06 -39.3,30.04 -41.57,55.21 -4.24,46.98 -2.42,34.12 -13.33,40.33l-16.8 3.1c0.87,44.49 5.81,0.46 16.24,38.31 2.48,8.97 1.49,37.96 1.38,48.88 -0.3,28.22 6.16,65.63 -5.42,91.71l-7.39 9.76c-28.84,-28.8 -32.2,64.28 -12.57,91.43 8.5,11.76 6.33,14.48 25.29,17.4 -6.9,18.12 -16.11,18.78 -16.15,18.7 -0.62,-1.16 -3.09,1.3 -4.53,2.16 29.86,3.79 21.46,7.25 19.88,43.47 -61.6,3.02 -38.03,-19.49 -74.92,-6.22 -18.76,6.75 -8.98,7.33 -48.81,7.24l-241.06 -2.18 -8.24 -65.8 -10.66 31.62c-3.68,14 -3.82,23.68 -8.02,33.26 -5.42,-11.63 -1.14,-5.94 -4.67,-17.64l-5.55 -16.24c-0.38,-3.1 -1.23,-3.89 -2.23,-5.66l-12.69 36c-18.83,24.25 -26.55,-9.57 -25.78,-25.03 0.9,-18.23 4.48,-18.99 9.97,-35.5l-27.18 2.27c13.31,29.7 6.25,-4.56 12.25,26.67 2.03,10.62 0.63,25.88 0.28,36.95l-3.23 -9.37c-0.41,-1.39 -0.96,-3.34 -1.39,-4.89l-2.35 -10.06c-4.14,-15.21 3.36,-4.62 -5.91,-17.81 -16.15,9.02 -10.57,18.79 -11.96,41.46l-12.94 -23.24 -12.45 25.14 -62.13 -1.19 -0.6 -180.38c-21.89,-1.78 -44.41,0.32 -65.96,-3.06 -17.59,-2.77 -32.9,-9.84 -49.66,-12.7 -92.01,-37.59 -139.74,-27.76 -244.99,-27.76 -89.23,0.01 -178.46,0 -267.7,0.01 -176.38,0.01 -352.78,-0.07 -529.17,0l0 574.54 5005.33 0c377.81,0 770.93,0 1151.73,0l0 -156.53c-25.37,-2.35 -9.37,1.09 -18.56,-7.32 1.19,-20.43 8.32,-35.83 1.54,-57.71 -6.49,-20.98 -1.62,-6.95 -20.37,-29.91l-6.19 -8.04c-14,7.55 -10.09,15.41 -24.9,22.63 -38.9,-22.07 8.73,-2.28 -28.28,-30.04 -15.06,-11.29 -2.96,14.22 -6.57,-7.75l-23.74 -2.51 2.47 7.42c-10.06,20.39 4.3,3.73 -13.76,9.17 -5.12,1.55 -17.79,2.12 -23.09,1.69 -32.42,-2.6 -10.98,-12.25 -31.94,-1.71 4.22,27.39 1.11,8.52 -5.83,15 -21.85,-24.37 1.03,-23.4 -37.35,-23.7l-10.52 27.17c-0.44,1.11 -1.08,3.29 -1.93,4.77 -19.88,-9.6 -5.27,-0.9 -18.68,-19.01 -1.02,1.1 -2.48,1.43 -2.92,3.43l-16.61 20.44c-0.43,0.55 -7.94,10.27 -8.03,10.36l-42.02 26.29 0.79 -31.54c-9.55,-18.52 -7.06,-19.27 -7.74,-43.18l-95.69 -1.98c-24.24,-0.65 -11.28,8.69 -24.89,-7.96 -10.14,7.59 -4.18,3.07 -17.51,8.41 -13.82,5.52 -4.11,2.99 -16.5,5.03 -1.06,0.17 -34.56,2.73 -36.61,2.76l-18.64 -6.29c-0.75,1.14 -1.05,3.19 -1.27,3.88 -0.22,0.68 -0.95,2.97 -1.22,3.78l-6.62 16.73c-14.6,29.99 -7.67,32.84 -9.51,71.09 -17.95,0.49 -19.45,0.52 -36.43,-2.44 -26.79,-4.67 -27.98,-1.27 -49.89,-10.94l-10.57 -4.2c-5.81,-1.98 1.59,25.3 -6.53,-1.68 -0.34,-1.16 -2.18,-0.13 -3.12,-0.62l99.13 -129.93 -17.83 -8.02c-1.72,-0.7 -6.83,-2.86 -8.38,-3.37l-6.83 -1.99c-11.8,-1.43 1.68,-1.05 -12.67,2.42 -20.91,5.06 -72.56,9.68 -93.06,0.85l-33.74 -3.91c-33.37,12.03 -28.71,-8.95 -28.61,-38.5 0.61,-90.49 -8.84,-64.87 14.96,-97.98 -27.23,-20.93 -5.76,0.96 -18.16,-28.9 -11.75,31.52 8.62,9.19 -18.38,28.9 16.66,22.14 7.44,-6 14.41,24.62l-9.19 112.58c-8.63,0.53 -4.15,0.64 -8.44,0.97 -12.52,0.97 13.13,4.52 -9.22,0.49 -15.94,-2.87 2.16,1.43 -10.12,-3.98 -37.47,-16.5 -6.69,-1.5 -52.06,-4.2 0.22,-18.6 1.14,-7.37 3.27,-16.12 14.23,-58.28 -4.42,6.25 -2.76,-39.23 1.36,-37.12 10.32,2.99 18.94,-37.99 4.57,-21.73 -1.22,-37.53 -9.73,-54 -11.97,-23.13 14.58,-29.84 13.03,-69.08 2.33,-25.1 30.08,-84.77 -16.53,-82.52 -16.2,0.79 -8.92,0.62 -26.56,12.63 -14.58,-4.84 -16.09,-25.97 -21.36,-45.83 -4.27,-16.06 -7.97,-35.65 -14.54,-47.65 -28.95,24.33 -16.97,-13.54 -68.38,12.49l-3.88 22.44c-2.14,28.48 5.75,47.63 9.4,77.25 27.04,82.81 -3.42,84.03 11.04,111.42l-89.6 15.01 0.18 85.03 89.68 2.12c-0.18,14.25 3.32,8.52 -10.17,23.96 -0.59,0.69 -3.14,3.89 -3.62,2.83 -0.48,-1.09 -2.69,1.67 -3.88,2.7 23.59,15.37 15.14,-5.1 18.76,25.41l-8.6 33.28c-6.88,6.8 -11.87,-1.13 -25.58,1.45l-15.08 7.45c-0.8,-20.93 2.73,-32.36 -6.28,-47.16 -10.74,14.71 -6.62,24.4 -6.84,47.65l-36.78 -0.36c-0.37,-15.79 0.04,-27.67 0.68,-43.13 1.26,-30.06 9.43,-16.55 -6.86,-24.85 -9.08,14.74 -3.57,49.14 -4.07,68.56l-55.15 -4.95c-32.05,-4.43 1.31,3.08 -40.12,4.83l-0.27 -69.44c-21.55,9.97 -8.14,-22.73 -8.96,66.93 -31.64,7.1 -103.1,2.52 -140.48,2.72l-78.17 -5.55c-9.62,-0.17 -7.27,7.51 -21.41,-12.59 -8.27,5.67 -11.94,10.07 -18.68,17.66l-4.58 -8.19c-23.29,-35.73 -32.72,-4.31 -34.94,-0.64l-24.49 -12.43c-14.24,20.06 -2.24,14.23 -23.14,21.7 -44.77,7.76 -53.82,-10.92 -62.26,-30.54 -10.34,10.3 -5.19,17.83 -54.94,18.15 -0.45,-13.65 -0.17,-23.78 0.27,-37.23l-1.36 -27.11c-19.57,9.71 -2.38,-3.57 -9.19,15.56l-14.71 49.83 -21.15 -7.79c-6.25,-0.24 -2.43,17.05 -16.28,-5.99 -10.9,-18.13 -3.31,-12.54 -4.16,-29.49 -1.63,-32.71 3.86,-16.03 -9.22,-22.54 -0.46,1.23 -0.65,3.11 -0.74,3.88l-0.11 54.77c-31.53,27.98 -56.01,18.52 -117.43,18.5 -84.27,-0.01 -96.14,10.37 -118.29,-18.78l-7.73 11.14c-0.46,0.68 -2.05,4.5 -2.39,3.58 -0.34,-0.91 -1.56,2.33 -2.33,3.5l-18.67 -17.33c-22.99,21.1 -40.88,11.16 -87.13,11.24 -34.4,0.07 -69.28,1.55 -103.53,-1.25 -11.16,-34.27 -11.07,-34.46 -3.23,-72.41 -31.37,2.39 -11.44,-4.54 -17.72,8.25 14.91,18.05 10.63,29.73 7.78,54.14 -20.63,-1.16 -28.42,-1.33 -42.32,-7.7 -22.71,18.13 -13.01,-41.37 -21.55,-56.26 -20.27,10.46 -3.65,-7.88 -6.8,57.15l-30.56 24.52c-17,-3.67 -78.34,-12.74 -92.54,-31.11 -1.38,-23.82 -8.64,-53.15 -0.58,-83.36l30.84 4.09c17.75,-8.51 5.13,2.77 12.15,-13.85 7.89,-39.36 -8.1,-32.07 -18.23,-38.01 -29.94,-17.56 -14.32,9.23 -23.57,-18.07 -5.78,-35.55 18.45,-65.64 -11.45,-132.48 -6.63,-6.33 -7.41,8.43 -9.88,-21.56 -24.01,9.23 3.49,-2.13 -15.83,17.83 -16.6,17.16 0.8,5.59 -21.03,14.35l0.94 143.42c-52.81,2.77 -28.38,-2.28 -50.85,22.06l-14.24 12.46c1.47,1.15 3.71,2.12 4.84,2.81l9.02 5.37c1.13,0.75 2.9,1.7 3.93,2.47 0.91,0.68 2.55,1.77 3.32,2.43 10.49,9 5.59,-1.74 6.44,10.67 8.35,-19.89 0.44,-17.45 44.2,-12.92 2.81,30.51 -0.92,59.98 2.7,86.63 -36.67,-24.87 -7.35,-9.78 -35.8,-1.83 -1.35,0.38 -127.13,13.27 -136.92,-8.11l-22.54 -1.61c4.19,-15.19 8.15,-11.25 2.2,-26.08 -6.58,-16.4 1.08,1.14 -8.09,-11.61 -6.56,-9.12 -3.03,6.67 -10.02,-13.33 14.11,-7.88 22.69,-12.68 38.19,-23.86 18.27,-13.18 19.33,-9.08 21.64,-38.23 -15.56,-6.14 -18.89,-1.75 -42.19,-4.07 -9.08,-0.9 -26.44,-3.31 -46.4,-3.98l-8.41 -37.16 -22.96 -1.54 -32.7 0.71 -57.5 -1.28 -12.03 1.77c-12.57,10.75 -22.72,11.21 -46.81,10.98 -79.39,-0.76 -49.45,-10.38 -141.8,81.99l-37.07 37.68c-9.68,11.33 -4.89,17.41 -14.29,4.45 6.63,4.44 15.51,8.78 20.52,16.7 12.37,19.57 5.83,-0.98 10.61,33.09 -15.91,-4.65 -27.59,-1.04 -43.55,-31.16 -8.64,16.33 -36.35,39.47 -51.39,54.54 -24.65,24.68 -34.21,41.04 -62.33,51.41l7.39 11.98c-38.39,37.04 -25.1,18.87 -49.3,37.31 -13.29,-13.23 -2.22,-16.6 -32.5,-14.92l4 -31.71c-32.85,3.18 -16.01,-5.03 -39.05,-1.52 -0.12,0.02 -3.74,2.22 -11.2,2.83 -1.63,-26.35 2.91,-65.63 -0.01,-81.28 -68.12,-30.02 -179.73,-14.47 -257.39,-9.74l-24.93 2.71 -9.76 30.87c-18.8,-10.09 -20.92,-17.58 -39.92,-26.72l2.82 -73.94c3.63,-30.01 15.77,-23.67 47.61,-25.49 0,-14.85 0.92,-31.08 0.74,-45.52 -0.48,-38.8 -10.59,-32.7 -10.6,-32.71 -23.41,-22.92 -4.75,18.08 -19.78,-25.75 -2.61,-7.62 -4.99,-18 -8.85,-27.45 -12.49,-30.59 -14.91,-111.84 -11.54,-150.15 21.26,-0.24 14.66,3.16 29.25,-6.16 -0.04,-25.63 -5.71,-27.92 -11.07,-48.74 16.25,-12.93 13.65,13.85 13.59,-16.54 -24.07,-9.08 -12.19,-89.58 -12.51,-116.16 -25.63,31.5 -8.1,45.26 -7.86,74.61 -24.23,0.17 -14.53,-3.73 -28.91,4.84l-12.83 -98.7c-1.98,-29.9 5.95,-17.46 -2.45,-41.73 -5.01,-14.48 -7.68,-21.82 -10.45,-38.04l-9.88 -117.48 19.59 0.9c-2.69,-25 -0.49,-15.22 -27.93,-27.37l-8.79 -74.14 21 -16.6 -24.27 -1.27 -1.22 27.29c0.5,-1.77 3.49,2.04 5.24,3.05 2.77,96.92 1.4,52.38 -11.96,68.51 -21.61,-26.09 -1.2,36.21 -13.55,-54.12z"/>
  <path class="fil3" d="M3155.85 3949.99c32.88,14.8 24.9,23.84 42.32,67.19 20.25,50.36 10.27,34.47 -2.01,47.38l-4 4.66c-0.34,0.39 -1.1,1.81 -1.99,2.49l33.79 14.37c2.13,32.58 -1.98,11.95 -3.59,19.78 -0.16,0.76 -0.39,2.13 -0.56,2.86 -6.89,30.1 -87.94,70.36 -117.31,89.82l-151.58 95.95c-13.26,-13.66 -21.41,-25.9 -36.64,-38.92 12.07,-6 130.84,-166.84 151.18,-189.6 15.92,-17.82 12.63,-12.09 38.37,-5.21 -19.13,-27.99 -17.5,0.05 -12.91,-24.41 8.67,7.51 18.69,6.91 38.04,10.47l-13.02 -10.6c-3.62,-3.77 -7.3,-2.08 -9.09,-13.63 -2.25,-14.55 32.05,-41.74 49,-72.6zm691 -38.05c8.72,8.29 7.02,2.78 10.98,17.88 0.2,0.79 1.07,24 1.16,25.11l-45.32 -4.23c11.7,-27.74 -8.33,-35.77 33.18,-38.76zm-3735.32 -428.68l0 455.49 274.3 1.39c1.11,-27.05 14.92,-28.82 8.09,-53.56 -4.12,-14.92 -20.84,-24.72 -15.38,-46.97 4.43,-18.09 138.43,-115.27 156.71,-130.72 14.62,-12.37 16.76,-24.79 54.79,-19.91 34.9,4.48 18.35,18.03 60.28,13.3 23.24,-2.63 39.24,-11.7 62.43,-0.77l122.2 94.78c35.86,25.26 44.06,44.72 6.42,75.76 -20.64,17.03 -61.63,50.17 -82.47,61.88l5.86 9.08c106.4,-21.98 226.64,20.53 386.07,-23.07 56.66,-15.49 60.09,-8.54 116.3,-16.17 1.76,-23.93 0.73,-48.08 0.62,-72.07 -0.07,-15.68 -3.86,-44.93 1.54,-58.53 5.57,-14.03 -9.18,-3.16 9.2,-11.96l53.25 0.06 37.35 34.07c8.18,-10.49 4.88,-23.54 13.48,-33.04 4.07,47.38 -3.08,35.83 -10.91,51.23l21.89 -1.54c-6.87,-19.19 -7.65,-18.09 -7.28,-44.36 10.64,-4.4 -1.01,-0.74 11.63,-0.94 0.76,-0.01 2.72,0.16 3.46,0.16 10.09,-0.08 7.36,3.01 15.4,-2.84 1.91,16.69 -2.29,19.81 8.36,31.56l9.09 -17.43c2.83,-8.38 -2.16,-3.31 3.36,-13.31 9.08,16.04 8.46,37.4 20.67,50.87l5.53 -52.95c43.59,6.15 229.49,-12.4 286.96,3.32 57.56,15.76 5.95,-8.6 80.4,-3.83l-1.22 44.82c-11.97,8.88 -13.78,1.9 -27.18,21.94 -12.3,18.39 -8.57,38.09 -7.15,61.11l5.3 11.75c16.55,0.86 8.24,-0.7 30.61,-2.05 0.54,21.46 4.1,109.36 -5.9,125.8 -6.93,11.38 -18.43,1.18 -10.44,25.4 18.13,4.84 11.02,-1.69 17.03,12.3l-0.76 66.22 -45.6 2.02c-3.05,24.17 0.77,11.68 5.03,22.71 0.42,1.07 1.14,2.39 1.53,3.5 0.41,1.16 0.99,2.48 1.35,3.68l2.73 25.28c0.45,20.67 4.53,60.98 -0.78,72.32 -11.05,29.36 -1.88,19.27 23.39,42.33l-8.54 13.6c9.08,12.14 9.17,24.63 11.2,39.08l26.98 1.56c2.8,-25.99 -8.01,-38.51 3.55,-63.62l0.36 -27.5c19.53,-36.89 21.33,-89.84 29.33,-130l26.28 10.82c0.79,0.62 2.05,2.17 3.25,3.12 6.6,-16.66 6.41,-14.34 21.47,-22.13 0.95,-3.93 2.65,-17.98 3,-28.5 -14.15,-8.21 -9.32,-3.64 -23.33,-9.85 -0.39,-35.78 13.4,2.59 2.47,-32.33 -4.67,-14.94 -5.14,-29.19 -5.85,-46.48 -1.42,-34.98 -0.09,-68.7 1.26,-103.52 13.9,-3 14.11,16.68 8.22,2.82l24.93 -7.34c1.56,-0.71 5.55,-2.61 6.67,-3.56 8.78,-7.41 6.28,-17.11 7.61,-29.76 2.22,1.34 26.12,0.71 10.12,8.27 -31.77,-70.54 -6.68,-58.77 -55.83,-60.52l-4.49 -53.45c49.2,-3.93 39.49,3.25 43,11.79 4.29,-9.59 1.71,-7.59 16.01,-15.75 27.48,4.85 87.46,2.81 117.22,1.47l-3.55 154.42c3.78,12.84 -0.81,3.19 4.62,9.52 11.24,-14.75 5.92,-87.99 4.34,-111.54 0.75,-0.66 2.36,-2.46 2.5,-1.78 0.13,0.62 1.92,-1.5 2.05,-1.76l-6.79 -49.41 29.03 2.88c27.5,-2.04 93.08,-3.63 130.34,0.66l-4.64 94.17c20.66,0.04 39.23,1.26 55.79,5.36 0.7,-23.45 2.35,-9.3 -4.19,-26.61 -6.71,-17.77 -0.08,3.09 1.19,-23.59 4.44,-93.36 11.4,-23.32 14.44,-68.23 50.25,-6.21 33.6,-8.51 80.12,-3.63l12.17 -0.25c39.65,-43.61 77.92,-21.88 94.53,18.12 6.27,-14.77 -5.6,-3.53 5.23,-12.34l20.08 -7.51c-14.02,-13.69 -41.81,-35.81 -50.08,-49.28 12.68,-19.13 37.53,-38.25 55.9,-49.3 5.35,5.14 4.62,4.01 11.99,9.88 -26.55,18.22 -52.68,26.6 -31.82,54.93 27.03,0.78 25.69,-2.72 40.08,-14.87 1.29,-1.1 10.26,-8.53 11.6,-9.18 9.91,-4.78 17.48,-3.53 10.16,7.87 -4.99,7.79 -16.69,10.81 -32.42,30.24 10,19.34 20.13,20.31 31.7,34.49 -4.77,6.04 -10.51,8.2 -10.63,8.31 -39.91,34.54 13.69,23.11 -36.93,34.23 26.74,7.86 13.75,-6.32 24.16,11.17l-32.65 13.73c-0.66,-1 -2.93,0.93 -6.6,1.52l-3.01 113.89c-0.51,-16.12 -4.18,-31.16 1.95,-45.21 5.93,-13.6 0.16,-5.03 9.97,-14.33l24.93 1.35c0.99,1.74 2.01,2.24 2.37,4.71 0.36,2.46 1.76,3.14 2.21,4.39 0.44,1.25 1.37,2.93 1.84,4.5 0.49,1.58 0.96,2.87 1.41,4.65l1.14 64.06c-0.55,29.43 -2.17,59.62 -2.29,88.7 -2.91,13.85 13.3,-2.67 -7.73,5.18l-6.2 0.98c-0.16,0.11 -1.28,0.6 -1.4,0.76 -6.23,7.82 4.51,20.59 4.53,20.62 12.26,18.85 11.13,8.26 8.48,35.86 -30.62,7.08 -28.63,0.21 -57.98,16.85 5.97,16.42 12.73,2.92 15.42,59.97l25.31 120.57c0.43,16.51 -4.23,30.34 -9.83,44.14l3.26 17.51c0.69,1.19 2.32,2.87 2.99,3.86 0.69,1.03 2.21,2.62 3.41,3.87 5.32,0.49 -18.03,-1.89 12.86,-1.87 30.27,0.02 -6.19,0.06 26.23,2.18 7.9,-2.14 20.91,-8.08 27.89,-11.85l-26.7 -16.17c16.08,-13.24 -6.77,-1.59 17.57,-11.71 -22.23,-11.69 -7.11,2.4 -15.08,-16.54l12.82 -24.76c0.69,-1 1.74,-2.74 3.03,-3.86 -11.28,-62.17 16.53,-46.56 11.09,-78.89l7.32 -82.92c19.49,-10.2 19.83,-8.22 41.68,-4.7 -2.3,-19.52 -7.89,-25.42 12.42,-35.74 -12.6,-26.81 -16.31,-1.15 -1.04,-36.55l1.16 -13.74 -29.74 -7.83c-1.45,-21.44 1.95,-50.64 1.62,-64.59 -0.15,-6.21 -15.19,-26.48 16.55,-50.89 -1.54,-42.69 20.54,-37.34 31.05,-42.23l-2.24 -58.94c-51.17,-1.67 -44.65,-8.14 -48.62,-40.03 -4.75,-38.02 5.17,-46.12 37.67,-57.45l12.46 20.65c99.03,-1.35 167.85,20.98 283.02,-5.01 -2.33,-24.73 -10.22,-38.15 1.56,-67.67 2.45,2.15 -15.73,-2.78 9.48,5.36 12.07,3.9 16.25,-0.93 41.18,-5.11 -7.76,-25.68 -9.51,-10.75 16.39,-25.21 3.13,-1.75 8.45,-5.28 9.45,-5.99 16.25,9.54 30.86,13.79 47.97,27.52 -8.07,23.61 -17.7,32.31 -20.3,67.17l70.65 7.26c11.49,62.42 -5.54,78.82 -8.82,98.96 -0.27,1.69 -0.48,6.91 -0.54,8.79 -0.94,29.11 7.06,35.04 -10.79,60.45 -9,17.21 -74.32,108.45 -81.88,112.2 -8.92,20.34 0.05,2.81 -12.27,22.29 -1.82,2.88 -7.51,10.89 -10.65,15.54 -11.51,17.02 -14.56,23.35 -27.4,33.27 -5.95,29.07 -69.27,99.01 -88.75,132.14l-35.08 7.22c-1.8,31.44 -5.36,11.36 9.74,45.77l1.37 -8.89c38.92,23.68 6.07,8.73 34.65,12.09 13.33,1.57 26.56,17.37 33.5,26.36 -6.73,4.62 12.36,8.06 -15.25,5.57 28.23,9.5 20.06,-2.3 36.43,15.29l8.32 -11.16c5.04,-7.46 -0.72,-1.87 8.77,-13.52 17.69,-21.71 88.62,-54.89 118.57,-78.54 27.76,-21.92 17.21,-19.85 51.22,-30.84 11.63,-16.7 59.89,-40.63 80.35,-61.26l154.08 -0.51 1.93 -29.07c-30.33,-6.84 -55.04,0.39 -90.54,-7.28l-42.13 -165.82c-16.79,-52.61 -16.23,-48.12 4.74,-49.68 30.5,6.72 13.52,-5.11 19.3,17.54 1.88,7.38 -0.47,19.73 1.2,29.29 3.12,17.79 12.36,19.5 17.89,41.23 28.82,-15.71 -1.34,-5.75 17.89,-21.71 11.3,-9.37 7.87,-2.91 25.23,-9.12l0.32 -55.35 109.38 3.79 -2 14.84 14.19 -14.74c0.36,-1.82 1.23,-2.46 2.04,-4.34l106.85 -0.9 4.5 -0.39 4.19 -28.84c25.97,-0.87 76.35,-1.88 90.47,-6.25 -2.04,-19.8 -3.09,-16.56 -18.54,-26.6 -27.66,-17.97 -55.31,-24.15 -38.05,-62.82 0.57,0.78 0.2,2.25 0.21,2.72 0.45,29.9 -3.99,21.62 12.24,25.35 10.31,-12.9 5.2,-11.13 2.49,-31.15 12.64,0.13 106.39,-12.55 159.67,-2.94l17.77 4.18c37.32,6.45 -12.49,-8.26 12.02,1.11 13.17,69.72 -4.6,54.02 -67.58,64.03 4.48,11.65 14.14,8.46 18.08,30.02l43.95 0.32 1.68 47.94 -0.19 64.66c7,4.79 12.87,8.8 18.53,14.08 6.07,5.65 0,-0.32 7.47,8.02 0.68,0.76 2.86,3.89 4,5.26 11.72,-13.32 2.28,-17.53 26.99,-23.45l-0.19 -7.8c-10.45,-36.12 11.78,-38.61 -0.33,-78.64l-12.62 21.09c-6.96,7.27 16,5.47 -20.08,7 -13.15,-15.22 -3.14,-27.16 -0.05,-46.44l19.02 -4.52c6.37,-29.47 18.4,-20.38 12.09,-48.3 -0.33,-1.47 -0.92,-2.7 -1.26,-4.26l1.13 -49.4c9.03,-23.81 63.38,-30.86 92.38,-27.59 13.96,1.57 10.05,2.06 11.79,2.37 57.96,10.23 20.74,-58.13 131.39,-26.13 55.41,16.02 67.48,-36.04 126.31,27.57l19.98 8.16c16.62,-18.44 7.76,-2.95 11.06,-3.45 39.69,-6.06 14.5,-19.92 36.85,3.2 17.94,-15.55 16.45,-12.79 49.34,-12.93 48.9,-0.2 170.64,-7.02 185.5,14.41 6.27,29.68 -11.52,41.27 7.96,47.93 12.62,-15.42 -12.81,-27.23 8.59,-45.86 15.07,-13.12 5.78,-3.81 18.53,-2.94l17.51 0.87c9.14,25.71 -2.1,-7.54 8.75,13.05 15.83,30.01 -2.71,17.6 8.88,34.6 22.95,-7.09 -0.05,8.76 7.2,-51.45 15.46,-0.25 36.23,-0.45 47.24,5.62l7.81 7.19c11.99,-16.36 15.41,-25.78 49.45,-23.43 51.93,3.59 8.14,24.1 56.38,2.21 4.55,5.3 10.85,18.56 26.1,13.99l63.57 -11.25c87.31,-9.95 119.34,-5.43 209.56,-3.8 5.19,17.43 2.3,17.2 3.07,33.42 1.23,25.52 -11.26,12.76 10.57,21.91 2.95,-8.56 -5.55,-35.81 -0.23,-55.04 20.5,0.04 15.26,1.67 29.36,1.81 88.44,0.88 57.46,-14.25 64.76,36.03 2.4,16.55 -8.41,9.18 11.32,14.39l0.16 -52.71 34.66 0.28c3.7,17.18 -1.27,25.42 10.46,35.86l4.49 -35.93c3.26,1.26 11.24,4.53 14.3,4.94 39.37,5.3 -31.94,-1.74 13.2,-0.8 14.67,0.3 0.62,1.04 20.24,9.11 3.27,28.44 7.48,29.13 -17.17,39.42l6.89 4.56c0.67,0.61 2.26,1.76 2.9,2.47l5.9 16.15c-35.95,2.68 -53.36,-3.36 -88.93,5.58l0.06 64.87c14.85,3.95 13.01,-1.03 25.85,7.05 37.51,-11.03 17.2,-1.8 30.63,-0.64 14.16,1.22 13.85,2.26 31.46,1.85 -4.77,29.08 14.94,51.09 -7.06,85.28l-27.92 117.79 -86.14 2.38 -2.02 28.07c38.58,16.31 24.87,-0.76 58.67,29 13.75,12.11 26.79,25.89 43.11,37.82 14.98,-0.9 21.49,-7.04 34.12,-10.33 14.67,21.66 10.26,1.27 35.42,26.02 18.74,18.45 15.8,22.44 28.9,22.2l2.43 -1.54c2.57,-21.5 -43.94,-63.49 -59.2,-83.77 16.7,-13.37 6.25,-10.92 19.03,-27.26 18.51,-23.66 9.39,-0.5 26.8,-17.09 -4.92,-29.41 -19.9,-5.25 -5.36,-52.46 5.66,-18.37 11.62,-39.78 23.7,-53.3 1.27,1.03 3,1.26 3.52,3.33 0.5,2.02 2.65,2.48 3.29,3.34l33.31 62.72c11.48,21.98 22.53,44.59 36.06,69.61 15.11,27.94 69.67,120.83 74.46,143.33l1.55 -0.83 16.08 -2.42c1.88,-0.66 4.3,-1.95 6.03,-2.6 1.85,-0.71 4.11,-2.14 6.2,-3.18 1.07,-9.89 -1.03,-8.75 -1.79,-12.76 -0.27,-1.43 -1.31,-6.19 -1.63,-7.83 -4.35,-22.17 -4.76,-25.85 -21.1,-48.11l-4.8 -6.14c-13.77,-15.7 -9.3,-2.46 -14.83,-16.74 -2.98,-7.71 2.83,-24.56 2.88,-33.42 -0.92,-42.45 -76.89,-148.42 -89.32,-207.99 -4.13,-8.72 -21.96,-38.02 -17.12,-44.6 27.22,-36.97 7.89,-51.7 -0.29,-62.43 -3.19,-4.19 -9.19,10.08 -6.62,-17.39 1.93,-20.72 3.37,-4.73 4.78,-12.41 2.65,-14.47 -6.38,7.01 -5.06,-27.77 13.97,-0.92 24.82,1.24 30.51,0.88 36.82,-2.35 -1.63,-10.97 74.59,-9.85l4.59 3.88c0.23,0.09 1.62,0.41 1.88,0.47 15.46,3.67 -5.29,-1.87 6.97,0.15l5.41 1.09c61.81,19.23 -7.57,-1.58 49.38,-6.99 83.22,-7.9 77.85,18.84 123.01,-4.53l-97.39 -103.49c1.33,-0.56 3.25,-1.2 4.09,-1.51l8.11 -3.05c0.14,-0.04 11.62,-3.84 12.12,-3.96l81.62 -6.91c9.09,98.81 7.06,24.6 14.56,73.03l10.96 -1.55c11.13,-2.39 28.16,-1.32 39.2,-0.74 23.93,1.28 11.25,2.02 40.17,9.46l119.53 -5.11c10.3,-17.3 7.06,-40.05 9.19,-59.97 1.46,0.73 3.18,1.97 4.13,2.49l11.82 6.16c1.62,0.69 8.13,2.82 12.09,4.03 1.97,0.6 12.06,3.34 15.3,4.3 3.97,1.17 7.35,8.59 11.91,3.68 1.26,-1.36 4.04,1.41 6.11,2.02 7.22,-5.88 16.58,-15.25 24.39,-18.29 13.33,19.94 -7.82,4.03 -22.96,42.93 17.47,-8.57 8.69,-6.74 26.79,-13.88 1.02,1.12 1.95,2.93 2.59,3.61 26.42,28.2 26.78,-13.43 43.79,15.34l5.09 -12.21 59.26 12.11c18.31,1.36 25.45,12.09 63.55,-12.15 3.15,-9.97 -8.47,-0.36 6.26,-6.61 22.57,9.02 6.46,14.27 24.9,18.95 36.27,-34.22 27.64,-38.17 24.26,-76.81 11.01,-8.4 -16.83,-6.69 19.32,-6.79l0 -124.82c-380.8,0 -773.92,0 -1151.73,0l-5005.33 0z"/>
  <path class="fil2" d="M3191.65 2731.92l23.68 33.36 -10.75 12.32 -36.35 118.67c-17.97,-14.92 -26.66,-34.99 -42.38,-57.96 -16.19,-23.65 -36.16,-44.29 6.77,-52.55 -9.34,-9.49 11.36,-6.4 -9.57,-8.55 -19.32,5.43 -13.27,16.56 -40.95,0.03 21.87,-21.8 21.76,-16.07 34.68,-18.66 -7.44,4.63 7.34,8.24 -24.18,1.59l-16.07 2.87c-20.38,-31.48 -150.45,-224.43 -154.56,-251.73 -2.79,-18.58 11.85,-36.67 28.41,-55.52 14.43,6.76 235.39,191.17 250.28,209.27 -8.24,13.05 -3.73,8.23 -18.1,21.2 -7.22,6.53 -12.34,9.49 -19.1,14.67 24.53,-13.83 22.31,-23.96 51.24,-29.93 4.71,5.51 3.28,4.05 7.21,13.03l2.32 6.16c3.22,9.96 4.8,13.21 -2.37,35.41l-30.21 6.32zm-241.3 -297.04c-15.75,14.15 19.61,12.04 -18.65,12.04l3.54 -0.71c0.13,0.12 1.38,0.9 1.49,1.12 7.54,15.03 -7.08,37.37 -48.57,43.21 6.21,-22.28 -8.93,-20.45 9.59,-17.06l-10.41 2.52c0.27,15.46 3.02,5.23 -6.79,17.12l-18.02 15.03 0.66 -0.02c4,13.61 -1.84,2.58 9.25,10.03 2.83,1.9 7.92,5.76 8.74,4.12 0.72,-1.42 3.44,1.13 5.06,1.95 -8.03,15.54 -6.06,16.37 -18.87,26.77 12.5,-6.51 9.18,-6.51 4.09,5.83 11.14,-9.72 6.54,-6.89 22.93,-10.84 15.46,42.29 55.92,103.86 78.3,146.54 27.6,52.62 56.56,92.36 77.63,147 11.61,6.98 41.82,68.25 50.75,86 23.02,45.81 34.84,48.25 24.01,117.69 19.88,35.48 11.4,72.5 12.26,120.21 -69.88,13.05 -83.9,-0.41 -61.86,66.36l3.97 14.81c28.12,-10.37 37.68,-26.73 62.33,-51.41 15.04,-15.07 42.75,-38.21 51.39,-54.54 15.96,30.12 27.64,26.51 43.55,31.16 -4.78,-34.07 1.76,-13.52 -10.61,-33.09 -5.01,-7.92 -13.89,-12.26 -20.52,-16.7 9.4,12.96 4.61,6.88 14.29,-4.45l37.07 -37.68c92.35,-92.37 62.41,-82.75 141.8,-81.99 24.09,0.23 34.24,-0.23 46.81,-10.98l-30.09 -4.66 -3.06 2.6 -76.07 1.21 0.47 -69.73 -35.7 -29.06c-0.46,-2.74 -1.13,-3.64 -2.1,-5.26 -48.29,45.85 -13.41,63.14 -31.11,103.89l-18.69 1.07c-0.84,-1.48 -1.53,-3.63 -1.81,-4.77 -0.27,-1.12 -1.27,-3.41 -1.53,-4.8l0.62 -25.32c8.61,-47.79 41.67,-220.42 54.34,-239.06l81.99 -5.14c11.79,-78.84 -68.5,-17.7 -144.96,-40.65 -6.9,-2.07 -91.7,-63.26 -103.59,-86.99 -36.31,-15.04 -57.53,-42.76 -86.21,-66.93 -23.45,-19.76 -55.52,-49.97 -79.6,-63.38l4.97 -16.88c-3.49,-11.61 8.03,-8.37 -13.84,-9.24 -5.32,10.2 7.88,-2.26 -9.24,13.06z"/>
  <path class="fil2" d="M5279.48 2620.87c-3.48,23.49 4,20.31 -24.4,18.7 9.8,-24.67 2.66,-16.52 24.4,-18.7zm404.13 -50.17c-6.87,-26.47 -15.4,-22.73 -20.11,-48.52 28.6,4.88 29.86,23.84 29.81,53.02 -3.26,-8.99 -0.42,-0.37 -9.7,-4.5zm-74.93 -161.5c18.13,7.65 39.29,54.08 48.18,75.07 -33.27,3.47 -24.49,-2.53 -39.73,-27.08 -10.84,-17.46 -21.93,-26.23 -8.45,-47.99zm21.67 -1.3c22.64,0.92 31.77,-16.06 41.63,73.53l-25.22 -35.22c-9.07,-15.55 -10.76,-18.33 -16.41,-38.31zm-297.57 217.14c9.57,-34.66 83.05,-126.24 106.02,-161.16 20.15,-30.64 85.43,-129.1 107.84,-146.62 17.4,57.72 25.99,62.61 -2.17,79.84 8.09,17.37 16.36,12.1 4.99,39.51l-121.32 272.26 -30.45 -19.67c-7.76,-7.5 -13.33,-13.73 -21.23,-22.15 -16.42,-17.52 -26.56,-27.37 -43.68,-42.01zm297.9 -287.38c18.27,18.08 21.69,33.36 21.5,63.65l-35.35 -18.22 13.85 -45.43zm-49.59 18.25c3.63,14.69 -11.08,17.9 -11.92,18.68l-6.32 -36.14c3.59,2.56 15.02,4.41 18.24,17.46zm7.4 -0.62c-8.8,-19.56 -9.01,-17.68 -25.17,-30.4l12.89 -17.06c0.44,-2.09 1.66,-2.49 2.55,-4.02l46.49 9.86c-5.78,28.21 -9.88,30.16 -36.76,41.62zm-67.62 -72.46c29.13,5.39 -7.29,41.52 -16.06,53.95 -14.56,20.63 -24.08,35.53 -38.43,54.94 -26.96,36.47 -52.75,83.48 -78.91,111.23 -14.69,23.83 -26.5,40.63 -41.45,61.31 -27.65,38.23 -7.92,24.8 -52.12,43.14 -4.3,17.15 12.06,8.78 -14.42,13.47l-13.21 -17.87c-18.21,12.4 -32.17,32.81 -49.4,50.1 -24.12,24.21 -19.5,25.41 -58.89,34.78l1.04 36.16 82.35 1.94c14.22,24.21 7.18,49.36 21.3,67.46l3.88 -22.44c51.41,-26.03 39.43,11.84 68.38,-12.49 6.97,-16.83 -12.14,-12.66 11.96,-14.51l0.2 -33.68 -27.11 -0.22c-4.38,-40.29 -8.79,-33.81 -21.44,-45.04 22.76,-17.41 10.7,-10.54 29.68,5.11 -18.68,-20.76 -18.89,-15.91 -5.84,-43.11 27.52,5.02 39.78,24.6 56.42,43.72 36.42,41.83 39.62,23.4 43.49,54.9l-2.19 14.17c-17.78,16.63 16.24,4.38 -15.56,13.43 2.94,12.04 -27.29,71.23 -33.71,98.71 17.64,-12.01 10.36,-11.84 26.56,-12.63 46.61,-2.25 18.86,57.42 16.53,82.52 1.11,-1.27 2.6,-5.04 3.04,-4.05 0.44,0.97 2.34,-3.11 2.92,-4.1 8,-13.72 1.67,-1.07 7.03,-13.17 8.39,-18.94 14.82,-54.59 25.61,-67.27l141.03 -383.29c0.35,-2.05 1.74,-2.41 2.68,-3.56l78.53 115.03c0.66,0.82 2.31,2.56 2.86,3.21l5.99 6.02c10.69,39.85 4.66,7.99 3.88,53.48l19.61 2.33 38.51 1.3c1.37,-30.1 5.12,-16.76 -8.97,-33.78 -5.84,-7.05 -9.55,-8.18 -12.68,-12.59 -10.11,-14.25 -4.62,1.35 -6.83,-17.27 -26.59,-21.29 -50.76,-127.63 -50.32,-167.31 -13.18,-14.19 -20.57,-59.33 -27.03,-86.13l-21.81 -3.8 -12.73 -7.45c-34.86,-6.9 -15.99,-1.21 -25.4,-14.52 -12.84,-9.28 -5.66,-2.44 -14.55,-7.27 -48.88,-26.55 -40.29,-16.28 -44.42,5.14z"/>
  <path class="fil2" d="M2487.19 2724.76l-0.32 112.93 -17.59 315.46c-20.69,2 -35.91,5.41 -50.77,10.76 19.22,7.85 30.26,-15.21 71.18,6.65l14.08 -12.12 4.58 -98.88 7.87 -69.29c24.41,-11.2 17.8,-3.33 27.53,-13.58l-31.93 2.42c3.38,-23.16 8.33,-123.82 6.34,-144.81l8.39 -144.65 -34.53 -4.28 -4.83 39.39z"/>
  <path class="fil2" d="M2712.89 2676.86l30.65 3.13 2.49 -1.46c22.78,-7.28 25.97,-41.61 89.5,-90.95 17.77,-13.8 18.22,-9.47 35.93,-30.75 5.09,-12.34 8.41,-12.34 -4.09,-5.83 -17.29,12.84 -14.41,12.19 -32.18,19.86 24.21,-22.79 20.53,-32.32 51.05,-46.63 -1.62,-0.82 -4.34,-3.37 -5.06,-1.95 -0.82,1.64 -5.91,-2.22 -8.74,-4.12 -11.09,-7.45 -5.25,3.58 -9.25,-10.03 -28.05,20.26 -25.62,30.75 -55.76,46.23 6.06,-18.49 38.18,-83.31 48.33,-95.96l6.77 49.75 18.02 -15.03c9.81,-11.89 7.06,-1.66 6.79,-17.12l-8.81 -21.04c-0.77,-1.76 -1.79,-4.08 -2.45,-5.58 -0.68,-1.51 -1.75,-3.71 -2.55,-5.6l45.21 2.74 -20.99 26.96c-18.52,-3.39 -3.38,-5.22 -9.59,17.06 41.49,-5.84 56.11,-28.18 48.57,-43.21 -0.11,-0.22 -1.36,-1 -1.49,-1.12l-3.54 0.71c38.26,0 2.9,2.11 18.65,-12.04l-93.31 -3.6c-39.27,53.19 -53.83,106.86 -73.93,141.49 -8.64,14.88 -13.03,15.21 -18.8,24.55 -14.79,23.94 8.26,37.59 -33.33,45.25 6.17,-10.19 2.89,-4.55 9.12,-12.95 6.81,-9.17 5.13,-5.45 11.6,-15.05 -24.42,18.36 -39.05,28.31 -38.81,62.29z"/>
  <path class="fil2" d="M3132.62 2785.76c-42.93,8.26 -22.96,28.9 -6.77,52.55 15.72,22.97 24.41,43.04 42.38,57.96l36.35 -118.67c-1.96,-16.95 3.54,-5.93 -5.18,-13.46 -22.52,14.17 -37.62,16.27 -66.78,21.62z"/>
  <path class="fil2" d="M5844.94 3205c7.58,-11.63 4.55,-5.44 13.83,-15.31l37.71 -48.56 5.76 64.27 -57.3 -0.4zm-41.16 -2.26c13.61,16.65 0.65,7.31 24.89,7.96l95.69 1.98c0.68,23.91 -1.81,24.66 7.74,43.18l-0.9 -44.77 -24.39 -10.09c-0.18,-22.13 2.6,-23.97 4.92,-43.58 5.5,-46.48 -7.16,-38.29 -16.34,-43.63 -7.75,26.18 -3.68,9.74 -20.21,23.47 -15.95,13.26 -6.93,11.52 -20.03,23.57 -18.17,16.69 -21.77,4.15 -51.37,41.91z"/>
  <path class="fil2" d="M2679.85 2402.61c0.95,8.84 -2.2,0.31 2.26,10.24 0.21,0.46 6.77,12.02 7.63,13.29l-4.79 26.86c12.35,90.33 -8.06,28.03 13.55,54.12 13.36,-16.13 14.73,28.41 11.96,-68.51 -1.75,-1.01 -4.74,-4.82 -5.24,-3.05l1.22 -27.29 24.27 1.27c-6.45,-8.35 -13.36,-18.09 -18.23,-29.44l11.13 -1.15 4.47 -24.06 -41.63 1.13c0.33,7.6 4.04,22.55 4.05,23.07 1.12,38.88 3.61,12.17 -10.65,23.52z"/>
  <path class="fil2" d="M5347.09 2710.32l-0.2 33.68 57.65 9.28c31.8,-9.05 -2.22,3.2 15.56,-13.43l2.19 -14.17c-49.84,-4.23 -50.49,-24.29 -85.81,-45.84 15.87,40.72 9.31,11.84 26.21,36.5l-15.6 -6.02z"/>
  <path class="fil2" d="M3866.37 3150.79c10.78,-13.83 -1.55,14.48 12.89,-19.6 2.12,-5 3.41,-12.35 5.35,-19.77 3.72,-14.23 7.1,-25.21 12.02,-39.9l-30.84 -4.09c-8.06,30.21 -0.8,59.54 0.58,83.36z"/>
  <path class="fil2" d="M2309.98 2495.79c25.82,-7.28 18.3,-8.31 36.55,-18.41 -0.48,10.13 1.12,4.97 -1.87,13.19l-4.03 8.58c-0.47,1 -1.84,2.9 -2.67,4.39l17.99 -5.52c2.14,-47.04 -5.99,-3.97 -17.49,-48.65 -32.4,-1.25 -28.02,11.38 -28.48,46.42z"/>
  <path class="fil2" d="M4017.82 3156.49c13.9,6.37 21.69,6.54 42.32,7.7 2.85,-24.41 7.13,-36.09 -7.78,-54.14 1.36,32.69 2.61,17.68 -5.77,29.59 -0.78,1.11 -2.18,2.95 -2.92,4.11 -10.18,15.96 -1.65,-0.71 -6.24,15.57 -6.8,-4.54 -4.89,-3.62 -11.83,-5.06l-7.78 2.23z"/>
  <path class="fil2" d="M3415.47 2980.26l30.09 4.66 -5.14 -28.89c-11.14,9.33 -12.33,12.71 -24.95,24.23z"/>
  <path class="fil1" d="M683.71 1694.18c0,13.39 2.44,31.53 7.33,54.44 4.9,22.91 7.34,39.77 7.34,50.58 0,10.29 -1.29,19.82 -3.86,28.57l14.67 6.95c-4.12,3.6 -6.18,7.46 -6.18,11.58 0,3.61 3.22,9.65 9.66,18.15 6.43,8.49 8.88,15.83 7.33,22l-3.86 -6.94c0,7.72 1.67,16.98 5.02,27.79 3.35,10.81 5.02,18.79 5.02,23.94 0,6.69 -2.06,13.9 -6.18,21.62 7.21,3.61 12.1,14.93 14.67,33.98 2.58,16.99 6.44,25.48 11.59,25.48 4.63,0 11.84,-4.63 21.62,-13.9l0 -15.44 3.86 6.95c-2.06,-5.67 -3.09,-11.07 -3.09,-16.22 0,-12.87 7.33,-29.47 22.01,-49.8 14.67,-20.34 22,-35.4 22,-45.18 0,-10.29 -4.89,-20.07 -14.67,-29.34 2.58,1.54 4.89,2.32 6.95,2.32 6.69,0 15.19,-11.59 25.48,-34.75 -4.63,-0.52 -6.95,-3.09 -6.95,-7.72 0,-7.72 0,-11.59 0,-11.59l6.95 4.64 8.5 -26.26 6.17 6.95 4.64 -62.54c1.54,2.57 3.34,3.86 5.4,3.86 0,0 5.41,-3.61 16.22,-10.81 -5.66,-4.64 -7.98,-10.04 -6.95,-16.22 2.06,-8.24 2.06,-14.41 0,-18.53l-19.31 -16.99c13.9,-5.66 26,-8.49 36.3,-8.49 2.06,0 4.63,0.25 7.72,0.77 3.6,0 6.18,0 7.72,0 11.33,0 24.97,-3.86 40.93,-11.58 18.01,3.08 27.02,11.58 27.02,25.48 0,4.63 -1.41,12.74 -4.24,24.32 -2.84,11.58 -4.25,20.46 -4.25,26.64 0,6.18 1.03,11.58 3.09,16.22 -21.62,55.08 -41.19,126.12 -58.69,213.12 -29.34,142.08 -44.27,214.15 -44.78,216.21l-6.18 -3.86c1.54,5.66 2.31,11.58 2.31,17.76 0,11.32 -3.21,23.42 -9.65,36.29 -6.43,12.87 -12.74,25.74 -18.92,38.61 -7.72,-6.69 -18.01,-10.04 -30.88,-10.04 -10.3,0 -26.64,2.83 -49.04,8.5 -22.39,5.66 -38.48,8.49 -48.26,8.49 -29.34,0 -44.78,-21.11 -46.33,-63.32 -6.18,-16.99 -11.07,-48.9 -14.67,-95.75 -3.09,-40.67 -10.55,-71.3 -22.39,-91.89 2.57,4.12 6.17,6.18 10.81,6.18 1.03,-1.55 1.54,-3.6 1.54,-6.18 0,-7.72 -2.57,-14.93 -7.72,-21.62 -5.15,-6.69 -11.58,-9.52 -19.31,-8.49l19.31 -15.45c-26.25,-44.27 -45.04,-108.1 -56.37,-191.5 -0.51,0.77 -0.77,1.42 -0.77,2.19 0,1.16 1.54,1.67 4.63,1.67 4.63,0 10.55,-1.54 17.76,-4.63 7.21,-2.96 10.81,-5.79 10.81,-8.37 0,-2.96 -7.21,-3.98 -21.62,-2.96 -30.37,-33.59 -45.56,-61 -45.56,-82.36 0,-5.66 1.16,-11.07 3.48,-16.47 2.31,-5.28 6.56,-7.98 12.74,-7.98 2.06,0 4.76,0.38 8.11,1.15 3.34,0.78 5.53,1.16 6.56,1.16 3.6,0 5.4,-2.06 5.4,-6.17 0,-2.06 -0.51,-4.38 -1.54,-6.95 24.2,2.06 48.39,3.86 72.59,5.4 28.31,4.12 45.3,19.56 50.96,46.33z"/>
  <path class="fil1" d="M5770.15 1419.42c9.78,5.14 15.7,8.49 17.76,10.03 10.81,6.7 16.99,14.16 18.53,22.4 -2.57,33.46 -13.38,71.55 -32.43,114.28 -3.09,8.24 -19.56,41.96 -49.42,101.16 -20.07,13.9 -36.8,39.89 -50.19,77.99 -13.38,38.09 -24.71,61 -33.98,68.72l-4.63 -6.18c2.06,5.15 3.09,10.04 3.09,14.67 0,12.36 -8.36,26.26 -25.1,41.7 -16.73,15.45 -25.09,26.51 -25.09,33.21 0,9.26 8.49,19.04 25.48,29.34 46.85,-9.78 80.31,-14.67 100.38,-14.67 23.17,0 43.76,3.34 61.78,10.04 2.06,1.02 5.92,2.57 11.58,4.63 3.6,1.03 6.56,2.7 8.88,5.02 2.32,2.31 3.99,6.3 5.02,11.97 0.52,12.87 0.77,25.48 0.77,37.83 -0.51,15.45 -4.37,30.12 -11.58,44.02 -58.17,7.72 -116.6,11.58 -175.28,11.58 -59.21,0 -117.89,-3.86 -176.06,-11.58 0.51,-10.3 -2.06,-26.13 -7.72,-47.49 -5.67,-21.37 -8.5,-36.68 -8.5,-45.95 0,-12.35 3.35,-22.9 10.04,-31.66 39.64,-33.46 60.49,-67.95 62.55,-103.47l6.17 6.18c-0.51,-12.36 6.18,-28.06 20.08,-47.1 13.9,-19.05 20.85,-34.24 20.85,-45.56 2.06,-1.55 4.12,-2.32 6.18,-2.32 3.6,0 7.59,3.86 11.97,11.58 4.37,7.73 7.85,11.59 10.42,11.59 3.6,0 7.72,-4.12 12.36,-12.36 -15.45,-2.57 -23.17,-8.49 -23.17,-17.76 0,-5.66 5.41,-16.99 16.22,-33.97 10.81,-16.99 16.21,-30.38 16.21,-40.16 0,-5.66 -1.54,-10.81 -4.63,-15.44 4.12,1.03 7.46,-0.52 10.04,-4.63 2.57,-4.12 4.12,-6.18 4.63,-6.18 1.54,0 3.86,2.06 6.95,6.18 10.81,-7.21 16.22,-18.54 16.22,-33.98 0,-2.57 -0.26,-8.49 -0.78,-17.76 -0.51,-7.21 -0.77,-12.87 -0.77,-16.99 -7.72,-3.09 -15.19,-4.63 -22.39,-4.63 -11.84,0 -22.91,3.6 -33.21,10.81 -8.75,-5.66 -19.56,-8.49 -32.43,-8.49 -5.66,0 -13.77,0.64 -24.32,1.93 -10.55,1.28 -18.15,1.93 -22.78,1.93 -20.59,0 -33.72,-10.56 -39.38,-31.66 -3.09,-10.81 -4.63,-22.4 -4.63,-34.75 0,-25.23 6.43,-43.24 19.3,-54.05 16.99,0 49.29,1.8 96.91,5.4 47.62,3.6 84.29,5.41 110.03,5.41 40.16,0 72.85,-3.61 98.07,-10.81z"/>
  <path class="fil2" d="M2942.67 1234.85c-3.12,4.31 -5.44,3.8 -11.71,4.17 -4.8,0.28 -9.57,0.04 -14.32,0.8 -9.64,1.54 -17.62,5.59 -18.11,-8.41 8.41,-1.62 14.96,0.45 23.59,0.14 19.1,-0.7 8.59,-2.73 20.55,3.3z"/>
  <path class="fil2" d="M2894.81 1144.13c-2.91,2.25 -6.45,4.47 -10.05,5.64l-0.09 -24.01 10.17 3.15 -0.03 15.22z"/>
  <path class="fil2" d="M2997.23 1238.06c3.49,-5.27 3.93,-5.6 11.25,-6.89 -1.37,9.67 -3.31,9.07 -9.14,12.08l-2.11 -5.19z"/>
  <path class="fil2" d="M2885.62 1231.41l0.94 3.47c-8.28,-9.31 -11.13,-7.69 -12.6,-25.75 -0.94,-11.64 -1.15,-23.7 -1.83,-35.45l6.49 -3.46c3.05,8.16 2.04,23.06 2.59,33.14 0.4,7.27 -1.8,23.06 4.41,28.05z"/>
  <path class="fil2" d="M2926.74 1248.62c-4.62,7.18 -2.38,6.96 -8.97,8.85 -7.88,-8.12 -6.26,-11.6 4.35,-15.06l4.62 6.21z"/>
  <polygon class="fil2" points="2994.09,1226.14 2994.84,1223.65 3008.43,1219.8 3007.52,1227.66 2995.19,1229.65 "/>
  <path class="fil2" d="M2849.29 1247.58c2.49,3.42 4.34,3.01 9.33,3.29 3.83,0.21 7.63,0.01 11.41,0.6 7.68,1.21 14.05,4.41 14.4,-6.73 -6.7,-1.27 -11.91,0.39 -18.79,0.16 -15.2,-0.51 -6.84,-2.15 -16.35,2.68z"/>
  <path class="fil2" d="M2887.2 1175.22c2.32,1.78 5.14,3.55 8.01,4.47l0.02 -19.12 -8.1 2.53 0.07 12.12z"/>
  <path class="fil2" d="M2805.84 1250.26c-2.79,-4.2 -3.14,-4.45 -8.97,-5.47 1.11,7.7 2.66,7.22 7.31,9.6l1.66 -4.13z"/>
  <path class="fil2" d="M2894.72 1244.71l-0.75 2.76c6.58,-7.43 8.85,-6.14 9.98,-20.53 0.72,-9.27 0.85,-18.88 1.38,-28.24l-5.18 -2.74c-2.41,6.51 -1.57,18.37 -1.99,26.4 -0.3,5.79 1.49,18.36 -3.44,22.35z"/>
  <path class="fil2" d="M2862 1258.5c3.7,5.71 1.92,5.55 7.17,7.04 6.25,-6.49 4.96,-9.26 -3.5,-11.99l-3.67 4.95z"/>
  <polygon class="fil2" points="2808.32,1240.76 2807.71,1238.77 2796.88,1235.74 2797.63,1241.99 2807.45,1243.55 "/>
  <path class="fil2" d="M2933.45 1238.89c-3.13,4.31 -5.45,3.8 -11.71,4.16 -4.81,0.28 -9.58,0.04 -14.33,0.8 -9.64,1.54 -17.62,5.59 -18.11,-8.4 8.41,-1.62 14.97,0.45 23.59,0.13 19.1,-0.7 8.59,-2.72 20.56,3.31z"/>
  <path class="fil2" d="M2885.58 1148.16c-2.91,2.25 -6.45,4.48 -10.05,5.64l-0.09 -24.01 10.18 3.15 -0.04 15.22z"/>
  <path class="fil2" d="M2988 1242.1c3.49,-5.28 3.94,-5.6 11.26,-6.9 -1.38,9.67 -3.32,9.08 -9.15,12.08l-2.11 -5.18z"/>
  <path class="fil2" d="M2876.39 1235.44l0.94 3.47c-8.28,-9.31 -11.13,-7.68 -12.6,-25.74 -0.94,-11.65 -1.14,-23.71 -1.83,-35.46l6.49 -3.45c3.05,8.16 2.04,23.06 2.59,33.13 0.4,7.27 -1.8,23.07 4.41,28.05z"/>
  <path class="fil2" d="M2917.51 1252.65c-4.61,7.18 -2.37,6.97 -8.97,8.86 -7.87,-8.13 -6.26,-11.6 4.36,-15.06l4.61 6.2z"/>
  <polygon class="fil2" points="2984.86,1230.18 2985.62,1227.68 2999.2,1223.84 2998.29,1231.69 2985.97,1233.68 "/>
  <path class="fil2" d="M2840.06 1251.61c2.5,3.43 4.34,3.02 9.33,3.29 3.83,0.22 7.63,0.01 11.41,0.61 7.68,1.2 14.05,4.41 14.41,-6.74 -6.71,-1.27 -11.92,0.4 -18.79,0.17 -15.21,-0.52 -6.85,-2.16 -16.36,2.67z"/>
  <path class="fil2" d="M2877.97 1179.25c2.32,1.79 5.14,3.55 8.01,4.47l0.02 -19.12 -8.1 2.53 0.07 12.12z"/>
  <path class="fil2" d="M2796.62 1254.29c-2.79,-4.19 -3.15,-4.45 -8.98,-5.46 1.12,7.69 2.66,7.22 7.31,9.6l1.67 -4.14z"/>
  <path class="fil2" d="M2885.49 1248.74l-0.74 2.77c6.57,-7.44 8.84,-6.15 9.97,-20.53 0.73,-9.28 0.86,-18.89 1.38,-28.25l-5.18 -2.73c-2.41,6.5 -1.57,18.37 -1.98,26.39 -0.3,5.79 1.48,18.37 -3.45,22.35z"/>
  <path class="fil2" d="M2793.66 1099.43c-18.59,9.65 -11.68,132.19 -7.66,136.87 2.61,3.02 4.96,1.37 9.56,4.12l2.92 2.39 0.61 1.98 1.81 1.53c5.73,3.69 34.26,7.36 39.16,5.29 3.29,-7.9 10,-4.84 19.49,-5.02 -5.07,-7.04 -4.59,-0.86 -5.78,-12.82 -3.27,-32.74 -1.92,-108.64 2.3,-136.66 -19.21,0.83 -44.09,-1.17 -62.41,2.32z"/>
  <path class="fil2" d="M2852.78 1262.54c3.69,5.71 1.91,5.54 7.17,7.03 6.25,-6.49 4.95,-9.25 -3.51,-11.98l-3.66 4.95z"/>
  <polygon class="fil2" points="2799.09,1244.79 2798.48,1242.81 2787.66,1239.78 2788.4,1246.03 2798.22,1247.59 "/>
  <path class="fil2" d="M4984.88 604.45l51.52 46.01c75.06,71.05 121.42,76.01 241.61,110.6 115.09,33.11 238.82,73.3 362.55,98.45 54.85,-77.75 33.66,-128.88 174.08,-91.92 -31.77,-57.26 -111.38,-58.7 -180.73,-76.73 -70.02,-18.2 -132.02,-37.92 -206.27,-58.97 -121.28,-34.39 -301.53,-96.98 -436.07,-111.44 -23.67,49.26 -11.53,2.75 -6.69,84z"/>
  <path class="fil2" d="M5312.18 946.74l51.52 46c75.07,71.05 121.42,76.02 241.61,110.6 115.09,33.11 238.82,73.3 362.55,98.46 54.86,-77.75 33.67,-128.89 174.09,-91.92 -31.77,-57.26 -111.39,-58.71 -180.74,-76.73 -70.01,-18.21 -132.01,-37.92 -206.26,-58.98 -121.29,-34.39 -301.54,-96.97 -436.07,-111.44 -23.68,49.27 -11.54,2.76 -6.7,84.01z"/>
  <path class="fil2" d="M4058.95 1668.06l78.82 0.97c-16.48,-84.33 5.29,-57.2 -32.48,-104.93 -100.94,19.87 -80.91,18.36 -46.34,103.96z"/>
  <path class="fil1" d="M1214.41 1205.21c3.6,-0.52 36.81,-0.52 99.61,0 40.67,0.51 73.36,-3.09 98.07,-10.81 4.12,8.23 11.07,13.12 20.85,14.67 1.03,0 9.52,0 25.48,0l0 98.06c-21.62,7.73 -54.57,11.33 -98.84,10.81 -67.95,-0.51 -102.96,-0.77 -105.02,-0.77 -2.57,22.65 -3.86,42.22 -3.86,58.69 0,23.68 2.83,43.24 8.5,58.68 17.5,4.64 39.64,5.41 66.4,2.32 38.1,-4.12 59.98,-6.18 65.64,-6.18 16.99,0 32.43,2.58 46.33,7.72 4.12,13.9 6.18,29.09 6.18,45.56 0,31.92 0,47.88 0,47.88 -12.36,14.93 -32.43,22.39 -60.23,22.39 -11.84,0 -29.47,-1.67 -52.9,-5.02 -23.42,-3.34 -39.51,-5.02 -48.26,-5.02 -20.07,0 -32.69,5.67 -37.83,16.99 -6.18,14.42 -2.84,38.61 10.03,72.59 -7.2,3.09 -10.81,6.95 -10.81,11.58 0,2.06 1.16,5.79 3.48,11.2 2.32,5.4 3.47,9.65 3.47,12.74 0,3.09 -0.77,6.17 -2.31,9.26 16.98,3.61 38.09,5.41 63.32,5.41 5.14,0 13.12,0 23.93,0 10.3,0 18.02,0 23.17,0 41.18,0 74.39,5.4 99.61,16.34 -0.52,8.75 1.03,20.34 4.63,34.62 3.61,14.16 5.41,24.2 5.41,29.86 0,12.48 -5.41,23.04 -16.22,31.92 -12.35,-3.09 -24.71,-4.64 -37.06,-4.64 -29.35,0 -55.86,6.7 -79.54,20.08 -6.69,-7.21 -14.15,-10.81 -22.39,-10.81 -2.57,0 -6.43,0.51 -11.58,1.54 -5.15,1.03 -9.01,1.55 -11.59,1.55 -7.72,0 -14.67,-2.58 -20.84,-7.72 -8.76,3.09 -18.79,4.63 -30.12,4.63 -5.66,0 -14.28,-0.77 -25.87,-2.32 -11.58,-1.54 -20.2,-2.31 -25.87,-2.31 -11.32,0 -21.36,1.54 -30.11,4.63 -7.72,-4.63 -14.93,-8.88 -21.62,-12.74 -6.69,-3.86 -11.58,-10.17 -14.67,-18.92 7.2,-91.12 7.2,-168.85 0,-233.2l6.17 3.86c2.06,-13.9 3.09,-28.31 3.09,-43.24 0,-24.19 -3.6,-59.84 -10.81,-106.95 -7.2,-47.1 -10.81,-82.75 -10.81,-106.94 0,-16.99 1.29,-33.21 3.86,-48.65 12.87,-1.55 21.11,-5.66 24.71,-12.36 3.09,-9.26 6.18,-18.53 9.27,-27.79 16.47,9.26 31.66,13.9 45.56,13.9 7.2,0 14.67,-1.03 22.39,-3.09z"/>
  <path class="fil1" d="M2089.19 1383.3c42.72,-29.86 64.09,-78.25 64.09,-145.17 0,-16.99 -1.8,-32.95 -5.41,-47.88 -11.84,-21.62 -23.93,-43.37 -36.29,-65.25 -12.35,-21.88 -29.86,-36.93 -52.51,-45.17 -7.21,2.06 -20.85,2.32 -40.92,0.77 -20.6,-1.54 -35.01,-1.54 -43.25,0 -13.89,2.58 -22.13,9.53 -24.71,20.85l-25.48 -25.48c-10.29,6.69 -15.44,10.04 -15.44,10.04 -2.57,0 -4.89,-2.06 -6.95,-6.18 -2.57,6.18 -6.44,9.27 -11.58,9.27 -4.12,0 -8.88,-2.06 -14.29,-6.18 -5.4,-4.12 -10.42,-7.98 -15.06,-11.58 -10.29,7.2 -26.76,10.55 -49.42,10.03 -22.65,-0.51 -37.32,1.29 -44.01,5.41 -10.3,4.63 -15.44,11.84 -15.44,21.62 0,5.15 1.8,12.87 5.4,23.17 3.61,10.29 5.41,17.5 5.41,21.62 0,7.72 -4.12,12.87 -12.36,15.44 5.15,16.47 5.66,50.71 1.55,102.7 -3.09,43.24 3.6,74.9 20.07,94.98 -14.41,6.69 -18.01,17.24 -10.81,31.66 7.21,14.41 5.67,24.71 -4.63,30.89l-6.18 -3.87c4.64,14.42 6.95,34.5 6.95,60.23 0,9.27 -0.38,23.94 -1.16,44.02 -0.77,20.08 -1.15,35.52 -1.15,46.33 0,26.77 2.05,49.42 6.17,67.95 7.21,31.4 33.98,47.1 80.31,47.1 8.24,0 16.22,-0.51 23.94,-1.54 18.01,-22.14 27.02,-52.51 27.02,-91.12 0,-9.26 -0.64,-23.03 -1.93,-41.31 -1.28,-18.27 -1.93,-32.04 -1.93,-41.31 0,-46.85 14.67,-82.11 44.02,-105.79 2.06,1.03 5.66,4.63 10.81,10.81 5.15,6.18 9.26,9.27 12.35,9.27 3.09,0 6.18,-1.55 9.27,-4.64 22.13,6.18 36.81,17.51 44.01,33.98 4.64,10.3 6.95,26.77 6.95,49.42 0.52,24.71 2.32,41.7 5.41,50.96l-15.45 -4.63c1.03,3.09 4.64,8.49 10.81,16.22 6.18,7.72 9.27,13.9 9.27,18.53 0,3.6 -1.54,7.21 -4.63,10.81l-4.64 0c8.76,9.78 10.04,22.01 3.87,36.68 -6.18,14.67 -3.87,26.9 6.94,36.68 12.36,11.32 33.21,16.98 62.55,16.98 7.21,0 20.08,0 38.61,0 14.41,-2.05 24.2,-2.57 29.34,-1.54 -7.72,-19.05 -11.58,-46.07 -11.58,-81.08 0,-7.21 0.26,-18.79 0.77,-34.75 0,-15.44 0,-27.02 0,-34.75 0,-73.61 -19.56,-125.35 -58.68,-155.2zm-86.49 -47.88c-8.88,-3.09 -22.52,-3.6 -40.79,-1.54 -19.82,2.06 -32.82,2.57 -39.13,1.54 -13.12,-2.57 -21.75,-11.07 -25.87,-25.48 3.61,-7.21 5.41,-15.44 5.41,-24.71 0,-7.21 -0.9,-18.02 -2.7,-32.43 -1.8,-14.42 -2.71,-25.23 -2.71,-32.43 0,-14.93 3.35,-27.03 9.91,-36.3 7.21,3.61 21.75,5.41 43.76,5.41 18.92,0 32.43,3.86 40.54,11.58 3.09,3.09 4.63,7.21 4.63,12.36 0,1.54 0,3.34 0,5.4 0,2.06 0,3.61 0,4.64 0,6.17 5.15,9 15.45,8.49 -3.61,10.81 -5.15,25.48 -4.64,44.01 0.52,23.68 0.52,38.61 0,44.79 -1.03,6.18 -2.31,11.07 -3.86,14.67z"/>
  <path class="fil1" d="M4248.83 1193.68c42.72,-29.86 64.09,-78.25 64.09,-145.17 0,-16.99 -1.8,-32.95 -5.41,-47.88 -11.84,-21.62 -23.93,-43.37 -36.29,-65.25 -12.35,-21.88 -29.86,-36.93 -52.51,-45.17 -7.21,2.06 -20.85,2.32 -40.92,0.77 -20.6,-1.54 -35.01,-1.54 -43.25,0 -13.89,2.58 -22.13,9.53 -24.71,20.85l-25.48 -25.48c-10.29,6.69 -15.44,10.04 -15.44,10.04 -2.57,0 -4.89,-2.06 -6.95,-6.18 -2.57,6.18 -6.44,9.27 -11.58,9.27 -4.12,0 -8.88,-2.06 -14.29,-6.18 -5.4,-4.12 -10.42,-7.98 -15.06,-11.58 -10.29,7.2 -26.76,10.55 -49.42,10.03 -22.65,-0.51 -37.32,1.29 -44.01,5.41 -10.3,4.63 -15.44,11.84 -15.44,21.62 0,5.15 1.8,12.87 5.4,23.17 3.61,10.29 5.41,17.5 5.41,21.62 0,7.72 -4.12,12.87 -12.36,15.44 5.15,16.47 5.66,50.71 1.55,102.7 -3.09,43.24 3.6,74.9 20.07,94.98 -14.41,6.69 -18.01,17.24 -10.81,31.66 7.21,14.41 5.67,24.71 -4.63,30.89l-6.18 -3.87c4.64,14.42 6.95,34.5 6.95,60.23 0,9.27 -0.38,23.94 -1.16,44.02 -0.77,20.08 -1.15,35.52 -1.15,46.33 0,26.77 2.05,49.42 6.17,67.95 7.21,31.4 33.98,47.1 80.31,47.1 8.24,0 16.22,-0.51 23.94,-1.54 18.01,-22.14 27.02,-52.51 27.02,-91.12 0,-9.26 -0.64,-23.03 -1.93,-41.31 -1.28,-18.27 -1.93,-32.04 -1.93,-41.31 0,-46.85 14.67,-82.11 44.02,-105.79 2.06,1.03 5.66,4.63 10.81,10.81 5.15,6.18 9.26,9.27 12.35,9.27 3.09,0 6.18,-1.55 9.27,-4.64 22.13,6.18 36.81,17.51 44.01,33.98 4.64,10.3 6.95,26.77 6.95,49.42 0.52,24.71 2.32,41.7 5.41,50.96l-15.45 -4.63c1.03,3.09 4.64,8.49 10.81,16.22 6.18,7.72 9.27,13.9 9.27,18.53 0,3.6 -1.54,7.21 -4.63,10.81l-4.64 0c8.76,9.78 10.04,22.01 3.87,36.68 -6.18,14.67 -3.87,26.9 6.94,36.68 12.36,11.32 33.21,16.98 62.55,16.98 7.21,0 20.08,0 38.61,0 14.41,-2.05 24.2,-2.57 29.34,-1.54 -7.72,-19.05 -11.58,-46.07 -11.58,-81.08 0,-7.21 0.26,-18.79 0.77,-34.75 0,-15.44 0,-27.02 0,-34.75 0,-73.61 -19.56,-125.35 -58.68,-155.2zm-86.49 -47.88c-8.88,-3.09 -22.52,-3.6 -40.79,-1.54 -19.82,2.06 -32.82,2.57 -39.13,1.54 -13.12,-2.57 -21.75,-11.07 -25.87,-25.48 3.61,-7.21 5.41,-15.44 5.41,-24.71 0,-7.21 -0.9,-18.02 -2.7,-32.43 -1.8,-14.42 -2.71,-25.23 -2.71,-32.43 0,-14.93 3.35,-27.03 9.91,-36.3 7.21,3.61 21.75,5.41 43.76,5.41 18.92,0 32.43,3.86 40.54,11.58 3.09,3.09 4.63,7.21 4.63,12.36 0,1.54 0,3.34 0,5.4 0,2.06 0,3.61 0,4.64 0,6.17 5.15,9 15.45,8.49 -3.61,10.81 -5.15,25.48 -4.64,44.01 0.52,23.68 0.52,38.61 0,44.79 -1.03,6.18 -2.31,11.07 -3.86,14.67z"/>
  <path class="fil1" d="M5075.23 1167.56l15.44 47.87c0,10.3 -1.28,25.74 -3.86,46.34 -2.57,20.59 -3.86,35.77 -3.86,45.55 0,16.48 2.57,30.89 7.72,43.25l-7.72 -4.64c-2.06,26.26 2.06,56.11 12.36,89.58 -11.33,43.75 -16.99,76.96 -16.99,99.61 0,15.96 2.06,31.66 6.18,47.1l6.17 -4.63c0.52,11.84 -1.41,24.96 -5.79,39.38 -4.37,14.41 -6.56,25.99 -6.56,34.75 0,6.17 0,12.87 0,20.07 -7.21,8.75 -14.16,17.25 -20.72,25.48 -8.24,10.82 -11.58,19.57 -10.04,26.26 -14.41,12.35 -28.96,24.71 -43.89,37.06 -17.37,14.42 -31.01,21.11 -40.66,20.08 -30.76,5.15 -58.43,7.72 -83.14,7.72 -53.28,0 -96.65,-12.87 -129.86,-38.61l-47.74 -67.18 6.17 0c-2.83,-3.09 -4.76,-14.41 -5.92,-33.97 -0.51,-11.84 -4.76,-20.34 -12.61,-25.48 5.15,-5.67 7.72,-13.65 7.72,-23.94 0,-6.18 -1.28,-16.09 -3.86,-29.73 -2.57,-13.64 -3.86,-23.55 -3.86,-29.73 0,-15.96 7.72,-26.51 23.17,-31.66l-15.45 -9.27c7.21,0 12.36,-2.05 15.45,-6.17 -6.7,-2.06 -13.77,-8.37 -21.24,-18.92 -7.46,-10.55 -12.74,-21.75 -15.83,-33.59l6.18 6.18c2.57,-27.8 4.89,-55.86 6.95,-84.17 3.09,-32.95 9.52,-59.46 19.3,-79.54 -7.2,-2.06 -10.81,-5.14 -10.81,-9.26 0,-1.55 0.9,-4.25 2.71,-8.11 1.8,-3.86 2.7,-6.82 2.7,-8.88 0,-4.12 -4.38,-7.72 -13.13,-10.81l17.12 -82.62 114.15 15.44c4.64,38.09 6.95,78.25 6.95,120.46 0,26.77 -1.29,67.05 -3.86,120.85 -2.57,53.79 -3.86,95.87 -3.86,126.25 0,19.56 0.26,38.86 0.77,57.91 1.55,2.57 5.66,16.73 12.23,42.47 4.63,17.5 12.87,30.89 24.58,40.15 32.69,3.61 52.38,0 59.07,-10.81 13.77,-3.6 20.72,-13.9 20.72,-30.88 0,-3.61 0,-6.95 0,-10.04 3.09,-1.03 6.69,0.38 10.81,4.24 4.12,3.87 6.95,5.8 8.5,5.8 2.57,0 4.89,-2.06 6.95,-6.18 1.02,-5.66 -1.16,-11.97 -6.57,-18.92 -5.4,-6.95 -8.36,-12.23 -8.88,-15.83l30.89 8.49c-4.12,-3.08 -6.18,-7.72 -6.18,-13.89 0,-2.06 0.52,-5.8 1.55,-11.2 1.03,-5.41 1.54,-9.4 1.54,-11.97 0,-12.87 -7.72,-20.85 -23.17,-23.94 8.76,-8.75 13.13,-20.33 13.13,-34.75 0,-14.41 -4.37,-25.99 -13.13,-34.74l6.57 6.17c4.37,-2.57 6.56,-5.92 6.56,-10.03 0,-2.06 -0.9,-5.02 -2.7,-8.88 -1.8,-3.87 -2.7,-6.31 -2.7,-7.34 0,-4.12 5.14,-6.18 15.44,-6.18 -5.41,-4.63 -11.33,-9.65 -17.76,-15.06 -6.43,-5.4 -9.65,-11.96 -9.65,-19.69 -7.47,-24.71 -11.2,-56.11 -11.2,-94.2 0,-43.76 5.15,-98.33 15.44,-163.7 10.82,3.6 23.68,5.4 38.61,5.4 6.7,0 16.61,-0.51 29.73,-1.54 13.13,-1.03 23.04,-1.55 29.73,-1.55 8.75,0 16.73,0.77 23.94,2.32z"/>
  <path class="fil1" d="M2722.72 875.36c-2.06,3.6 -4.12,5.4 -6.18,5.4 -2.06,0 -4.76,-2.7 -8.11,-8.11 -3.34,-5.4 -5.02,-8.1 -5.02,-8.1 -18.53,1.54 -36.8,2.83 -54.82,3.86 -21.62,1.03 -38.35,-0.26 -50.19,-3.86 -13.39,-0.52 -23.17,4.89 -29.34,16.21 -2.58,4.63 -5.41,14.93 -8.5,30.89 -2.57,11.32 -5.92,16.73 -10.04,16.21 -2.57,3.09 -3.86,6.44 -3.86,10.04 0,4.12 2.58,11.07 7.72,20.85 5.15,9.78 7.73,17.25 7.73,22.4 0,5.14 -1.81,10.03 -5.41,14.67l-16.99 -4.64c-1.54,3.61 -2.31,7.98 -2.31,13.13 0,11.84 2.83,22.65 8.49,32.43 -6.69,12.87 -17.5,23.94 -32.43,33.21 -3.6,29.85 -18.53,84.42 -44.79,163.7 -22.65,70.01 -33.97,126.64 -33.97,169.88 -4.12,0 -7.34,3.34 -9.66,10.04 -2.31,6.69 -3.99,10.03 -5.02,10.03 -1.54,0 -3.34,-1.54 -5.4,-4.63l-6.18 47.88c13.9,4.63 33.21,7.46 57.92,8.49 24.71,1.03 42.47,3.35 53.28,6.95 15.95,-4.63 26.51,-13.9 31.66,-27.8 2.05,-6.69 3.6,-20.85 4.63,-42.47 1.03,-20.08 4.37,-35.26 10.04,-45.56 5.14,-13.9 16.47,-20.85 33.97,-20.85 2.58,0 6.7,0 12.36,0 5.15,0.52 9.01,0.78 11.58,0.78 12.87,0 21.88,-3.35 27.03,-10.04 19.56,6.69 61,16.73 124.32,30.11l-20.08 17.76c-9.78,19.57 -13.38,45.82 -10.81,78.77 10.3,6.17 23.17,9.26 38.61,9.26 7.72,0 20.08,-0.9 37.06,-2.7 16.99,-1.8 30.12,-2.7 39.39,-2.7 7.2,0 14.15,0 20.84,0 -16.98,-52 -41.69,-150.84 -74.13,-296.52 -28.31,-126.64 -56.11,-224.96 -83.39,-294.97zm-45.56 360.6c-6.69,3.61 -13.38,5.41 -20.08,5.41 -8.23,0 -18.01,-2.83 -29.34,-8.49 -15.44,-7.73 -23.68,-11.84 -24.71,-12.36 4.12,-19.56 10.94,-49.03 20.46,-88.41 9.53,-39.38 16.35,-68.86 20.47,-88.42 1.54,0.52 4.37,2.58 8.49,6.18 2.57,2.57 5.66,3.35 9.27,2.32l4.63 -3.87c-2.57,11.33 -3.86,22.66 -3.86,33.98 0,15.96 2.96,37.19 8.88,63.71 5.92,26.51 8.88,46.46 8.88,59.84 0,9.78 -1.03,19.82 -3.09,30.11z"/>
  <path class="fil1" d="M3449.13 698.76c3.6,-3.6 11.71,-4.12 24.32,-1.55 12.61,2.58 22.78,-0.51 30.5,-9.26l65.64 31.66c19.04,6.17 33.46,24.96 43.24,56.37 7.72,26.25 15.19,52.76 22.39,79.53l-3.86 57.14c-10.29,-3.6 -19.56,-5.4 -27.8,-5.4 -5.14,0 -12.48,1.16 -22,3.47 -9.53,2.32 -17.89,3.48 -25.1,3.48 -5.15,0 -10.55,-0.52 -16.22,-1.55 -15.44,-8.75 -25.99,-28.83 -31.65,-60.23 -5.67,-29.86 -16.99,-48.64 -33.98,-56.37 -15.96,0 -31.66,0 -47.1,0 -16.99,2.06 -30.38,10.56 -40.16,25.49 -0.51,23.16 -2.83,61.77 -6.95,115.82 -4.11,49.94 -6.17,88.55 -6.17,115.83 0,44.79 4.37,84.17 13.12,118.14 18.54,20.59 39.38,30.89 62.55,30.89 10.81,0 20.33,-3.35 28.57,-10.04 8.75,-10.81 15.44,-28.57 20.08,-53.28 6.17,-29.34 11.58,-48.9 16.21,-58.68 0.52,-7.21 9.01,-12.87 25.48,-16.99 22.14,-5.66 35.53,-10.04 40.16,-13.13 11.32,3.09 22.91,6.18 34.75,9.27 11.84,3.09 20.85,11.19 27.02,24.58 -1.54,42.08 -9.52,81.33 -23.93,117.76 -16.99,43.62 -39.64,70.91 -67.96,81.59 -7.2,9.27 -15.96,13.9 -26.25,13.9 -3.09,0 -7.85,-0.39 -14.29,-1.16 -6.43,-0.77 -11.19,-1.16 -14.28,-1.16 -8.24,0 -15.19,3.35 -20.85,10.04 -12.36,-5.15 -27.28,-7.72 -44.79,-7.72 -4.63,0 -11.32,0 -20.07,0 -8.75,0 -15.45,0 -20.08,0 -28.83,0 -51.48,-9.65 -67.95,-29.09 -2.58,-3.47 -8.24,-9.13 -16.99,-16.73 -6.69,-5.66 -10.04,-10.81 -10.04,-15.31 0,-4.12 1.8,-8.63 5.41,-13.77 -2.58,1.03 -4.89,1.54 -6.95,1.54 -4.64,0 -9.27,-3.35 -13.9,-10.04 -5.66,-8.75 -10.56,-14.41 -14.67,-16.99 0,-6.69 -1.93,-18.91 -5.79,-36.67 -3.87,-17.76 -5.8,-31.28 -5.8,-40.54 0,-15.45 4.12,-28.57 12.36,-39.38l-16.22 -30.12c1.03,0 4.64,1.54 10.81,4.63 3.61,-8.75 5.41,-19.3 5.41,-31.66 0,-24.71 -6.69,-43.24 -20.08,-55.59l14.67 15.44c1.03,-7.21 1.55,-14.93 1.55,-23.16 0,-10.3 -1.16,-25.62 -3.48,-45.95 -2.31,-20.33 -3.47,-35.65 -3.47,-45.94 0,-24.71 5.4,-45.82 16.21,-63.32l19.31 10.81c-1.55,-6.69 -2.32,-13 -2.32,-19.18 0,-13.77 4.38,-27.67 13.13,-41.44 8.24,-11.32 16.47,-22.78 24.71,-34.62 6.18,-1.41 20.59,-7.59 43.24,-18.4 18.53,-9.14 33.98,-13.77 46.33,-13.77 11.84,0 23.17,3.6 33.98,10.81z"/>
  <path class="fil4" d="M4508.55 2967.08c-2.79,3.09 -6.33,5.59 -10.65,7.52 -4.31,1.92 -8.93,3.15 -13.85,3.67 -11.38,1.19 -20.48,-0.96 -27.28,-6.47 -6.79,-5.49 -10.78,-13.84 -11.96,-25.05l-11.9 -113.54 16.39 -1.72 2.77 26.48 36.7 -3.84 1.45 13.81 -36.7 3.85 7.58 72.32c0.76,7.22 3.11,12.53 7.04,15.91 3.93,3.39 9.28,4.73 16.05,4.02 7.39,-0.77 13.17,-3.47 17.36,-8.1l7 11.14zm25.37 -93.71c2.99,-8.53 8.08,-15.28 15.27,-20.22 7.18,-4.94 16.38,-8.01 27.62,-9.19l1.67 15.89 -3.95 0.19c-12.78,1.34 -22.37,6.3 -28.78,14.89 -6.41,8.58 -8.88,19.94 -7.39,34.08l6.47 61.72 -16.39 1.72 -12.7 -121.15 15.69 -1.65 2.49 23.72zm171.5 -41.96l12.7 121.15 -15.69 1.64 -2.51 -23.94c-4.07,8.65 -9.92,15.55 -17.55,20.69 -7.63,5.15 -16.51,8.25 -26.67,9.32 -11.39,1.19 -21.97,-0.34 -31.76,-4.59 -9.77,-4.25 -17.77,-10.79 -23.98,-19.61 -6.21,-8.81 -9.95,-19.21 -11.21,-31.19 -1.26,-11.98 0.25,-22.92 4.5,-32.84 4.25,-9.91 10.71,-17.92 19.4,-24.03 8.7,-6.11 18.74,-9.77 30.13,-10.96 9.85,-1.04 18.94,0.07 27.29,3.31 8.36,3.23 15.49,8.5 21.38,15.8l-2.41 -23.03 16.38 -1.72zm-49.86 114.2c8.47,-0.88 15.92,-3.64 22.35,-8.28 6.44,-4.63 11.24,-10.76 14.41,-18.39 3.17,-7.63 4.26,-16.05 3.3,-25.26 -0.97,-9.21 -3.79,-17.22 -8.47,-24.02 -4.68,-6.81 -10.65,-11.82 -17.91,-15.01 -7.25,-3.2 -15.11,-4.36 -23.58,-3.47 -8.62,0.91 -16.15,3.68 -22.58,8.31 -6.44,4.63 -11.24,10.76 -14.41,18.39 -3.17,7.63 -4.26,16.05 -3.3,25.26 0.97,9.22 3.79,17.23 8.47,24.02 4.68,6.81 10.65,11.82 17.91,15.01 7.25,3.2 15.19,4.35 23.81,3.44zm186.93 -128.57l-41.3 126.81 -16.86 1.77 -66.48 -115.51 17.08 -1.79 56.29 98.42 35.11 -108 16.16 -1.7zm72.2 101.41c7.54,-0.79 14.36,-2.86 20.46,-6.22 6.11,-3.37 11.12,-7.88 15.04,-13.57l10.34 9.62c-4.71,7.02 -10.89,12.64 -18.54,16.85 -7.65,4.22 -16.31,6.84 -26.01,7.85 -12.46,1.31 -23.82,-0.18 -34.08,-4.46 -10.24,-4.28 -18.55,-10.82 -24.92,-19.63 -6.37,-8.8 -10.17,-19.11 -11.41,-30.94 -1.24,-11.81 0.23,-22.68 4.4,-32.58 4.17,-9.91 10.52,-17.95 19.06,-24.12 8.53,-6.17 18.56,-9.87 30.1,-11.08 10.78,-1.13 20.77,0.31 29.98,4.31 9.2,4 16.85,10.11 22.92,18.32 6.07,8.21 9.85,17.91 11.33,29.08l-97.68 29.8c4.11,9.51 10.49,16.64 19.16,21.4 8.66,4.75 18.61,6.55 29.85,5.37zm-14.08 -94.23c-8.47,0.89 -15.84,3.64 -22.12,8.25 -6.28,4.62 -10.94,10.62 -13.98,18.01 -3.04,7.38 -4.08,15.6 -3.13,24.66 0.24,2.3 0.49,3.98 0.76,5.04l83.89 -25.56c-2.9,-9.94 -8.47,-17.78 -16.7,-23.51 -8.22,-5.74 -17.8,-8.03 -28.72,-6.89zm126.58 97.1c-10.92,1.15 -19.67,-1.04 -26.24,-6.57 -6.57,-5.51 -10.42,-13.72 -11.56,-24.63l-14.39 -137.26 16.38 -1.72 14.25 135.88c0.75,7.23 3.02,12.54 6.8,15.94 3.78,3.41 9.05,4.75 15.83,4.04 4.3,-0.45 7.93,-1.52 10.85,-3.23l2.58 13.47c-4.58,2.19 -9.42,3.55 -14.5,4.08z"/>
  <path class="fil3" d="M3550.78 1780.24c31.72,-56.64 55.45,-82.78 71.66,-172.47 38.59,-213.54 -72.07,-315.36 -143.62,-82.89 -25.72,83.57 -19.95,125.35 -13.06,215.51l-31.73 0.5c-13.32,-71.3 -48.58,-152.42 -87.02,-188.79 -31.62,-29.91 -144.9,-75.82 -209.73,-37.14 -41.21,24.59 -24.09,61.08 12.13,78.64 92.05,44.65 81.56,53.84 138.35,125.64 24.8,31.37 43.35,38.78 68.96,65.11 -10.32,26.22 -47.89,64.23 -22.69,130.76 64.16,-29.44 116.35,-50.69 198.05,-28.49 13.54,3.69 19.78,7.42 30.88,10.75 59.38,17.89 9.04,-96.95 -12.18,-117.13z"/>
  <g style="clip-path:url(#id0)">
   <g>
    <circle class="fil5" transform="matrix(-0.304691 -0.00205063 -0.00180771 0.304082 3787.23 1907.91)" r="578.6"/>
   </g>
  </g>
  <path class="fil6" d="M3550.78 1780.24c31.72,-56.64 55.45,-82.78 71.66,-172.47 38.59,-213.54 -72.07,-315.36 -143.62,-82.89 -25.72,83.57 -19.95,125.35 -13.06,215.51l-31.73 0.5c-13.32,-71.3 -48.58,-152.42 -87.02,-188.79 -31.62,-29.91 -144.9,-75.82 -209.73,-37.14 -41.21,24.59 -24.09,61.08 12.13,78.64 92.05,44.65 81.56,53.84 138.35,125.64 24.8,31.37 43.35,38.78 68.96,65.11 -10.32,26.22 -47.89,64.23 -22.69,130.76 64.16,-29.44 116.35,-50.69 198.05,-28.49 13.54,3.69 19.78,7.42 30.88,10.75 59.38,17.89 9.04,-96.95 -12.18,-117.13z"/>
  <path class="fil4" d="M3863.47 2845.41l-67.96 -76.52 -52.65 89.17 -85.42 8.95 89.77 -146.8 -114.54 -123.35 87.94 -9.22 65.54 72.73 50.55 -84.9 83.42 -8.74 -86.68 142.41 118.99 126.95 -88.96 9.32zm73.81 -280.48l78.4 -8.22 28.28 269.78 -78.4 8.22 -28.28 -269.78zm35.26 -41.73c-14.4,1.51 -26.57,-1.43 -36.49,-8.85 -9.93,-7.41 -15.54,-17.29 -16.84,-29.67 -1.29,-12.36 2.15,-23.2 10.32,-32.51 8.16,-9.3 19.46,-14.71 33.86,-16.22 14.41,-1.51 26.55,1.27 36.44,8.35 9.89,7.08 15.46,16.63 16.72,28.66 1.37,13.04 -2.02,24.29 -10.17,33.77 -8.16,9.47 -19.43,14.96 -33.84,16.47zm90.96 28.49l78.4 -8.22 28.29 269.79 -78.4 8.22 -28.29 -269.79zm35.26 -41.72c-14.4,1.51 -26.57,-1.44 -36.49,-8.85 -9.93,-7.41 -15.54,-17.3 -16.83,-29.67 -1.3,-12.36 2.14,-23.2 10.31,-32.51 8.17,-9.3 19.46,-14.71 33.86,-16.22 14.41,-1.51 26.56,1.27 36.45,8.34 9.88,7.08 15.45,16.63 16.72,28.67 1.36,13.04 -2.03,24.29 -10.18,33.76 -8.16,9.47 -19.43,14.97 -33.84,16.48zm250.35 7.72c25.13,-2.64 48.6,0.74 70.42,10.11 21.81,9.37 39.68,23.9 53.59,43.55 13.92,19.67 22.33,43.38 25.24,71.13 2.91,27.75 -0.4,52.68 -9.94,74.8 -9.53,22.13 -24,40.03 -43.39,53.73 -19.41,13.7 -41.67,21.85 -66.79,24.49 -37.19,3.9 -66.72,-4.83 -88.61,-26.2l3.26 31.09 -74.88 7.85 -39.01 -372.08 78.4 -8.22 13.72 130.88c17.49,-23.8 43.49,-37.51 77.99,-41.13zm8.83 215.04c20.11,-2.11 35.89,-10.6 47.37,-25.5 11.48,-14.89 16.04,-33.69 13.65,-56.43 -2.38,-22.73 -10.74,-40.2 -25.06,-52.38 -14.31,-12.18 -31.52,-17.23 -51.62,-15.12 -20.11,2.11 -35.9,10.61 -47.38,25.5 -11.48,14.89 -16.02,33.7 -13.64,56.44 2.38,22.73 10.73,40.19 25.05,52.37 14.32,12.2 31.53,17.23 51.63,15.12zm311.81 -31.16c14.07,-1.48 26.33,-4.87 36.79,-10.2 10.44,-5.32 19.89,-12.99 28.32,-22.99l46.44 40.76c-22.4,31.75 -58.08,50.19 -106.98,55.32 -30.49,3.19 -58.08,0.09 -82.78,-9.32 -24.7,-9.41 -44.51,-23.97 -59.46,-43.7 -14.94,-19.73 -23.81,-42.96 -26.61,-69.71 -2.77,-26.41 1.02,-50.89 11.35,-73.43 10.34,-22.55 25.86,-40.91 46.56,-55.08 20.7,-14.16 44.78,-22.69 72.26,-25.57 25.8,-2.7 49.82,0.27 72.07,8.92 22.24,8.65 40.72,22.6 55.44,41.84 14.72,19.25 23.56,42.91 26.5,71l-195.97 59.57c7.1,12.78 17.12,21.87 30.05,27.27 12.93,5.41 28.27,7.18 46.02,5.32zm-27.9 -154.74c-19.78,2.07 -35.19,10.1 -46.26,24.11 -11.05,14 -15.75,32.24 -14.07,54.71l128.98 -39.38c-5.16,-13.65 -13.87,-24.06 -26.14,-31.23 -12.26,-7.16 -26.44,-9.9 -42.51,-8.21zm240.25 -44.97c8.01,-14.02 19.63,-25.2 34.85,-33.56 15.2,-8.36 33.2,-13.62 53.97,-15.8l7.57 72.21c-8.78,0.25 -14.68,0.53 -17.7,0.84 -22.44,2.36 -39.38,10.47 -50.79,24.34 -11.41,13.87 -15.81,33.34 -13.18,58.42l13.35 127.37 -78.4 8.22 -28.28 -269.79 74.88 -7.85 3.73 35.6z"/>
 </g>
</svg>
