<?xml version="1.0" encoding="UTF-8"?>
<!DOCTYPE svg PUBLIC "-//W3C//DTD SVG 1.1//EN" "http://www.w3.org/Graphics/SVG/1.1/DTD/svg11.dtd">
<!-- Creator: CorelDRAW 2017 -->
<svg xmlns="http://www.w3.org/2000/svg" xml:space="preserve" width="61.722mm" height="39.7932mm" version="1.1" style="shape-rendering:geometricPrecision; text-rendering:geometricPrecision; image-rendering:optimizeQuality; fill-rule:evenodd; clip-rule:evenodd"
viewBox="0 0 6172.2 3979.32"
 xmlns:xlink="http://www.w3.org/1999/xlink">
 <defs>
  <style type="text/css">
   <![CDATA[
    .str2 {stroke:#FEFEFE;stroke-width:100;stroke-linecap:round;stroke-linejoin:round;stroke-miterlimit:22.9256}
    .str0 {stroke:#FEFEFE;stroke-width:29.48;stroke-linecap:round;stroke-linejoin:round;stroke-miterlimit:22.9256}
    .str1 {stroke:#FEFEFE;stroke-width:22.12;stroke-linecap:round;stroke-linejoin:round;stroke-miterlimit:22.9256}
    .fil0 {fill:none}
    .fil3 {fill:#201E1E}
    .fil1 {fill:black}
    .fil4 {fill:#060608}
    .fil7 {fill:#18191B}
    .fil6 {fill:#282828}
    .fil8 {fill:#616162}
    .fil5 {fill:#FBFBFB}
    .fil2 {fill:white}
    .fil9 {fill:#373435;fill-rule:nonzero}
   ]]>
  </style>
 </defs>
 <g id="Capa_x0020_1">
  <metadata id="CorelCorpID_0Corel-Layer"/>
  <rect class="fil0" y="-0" width="6172.2" height="3979.33"/>
  <path class="fil1" d="M3741.27 3565.5c1.35,237.05 22.29,430.4 354.62,385.51 240.85,-32.54 373.9,-124.9 337.7,-398.22 18.32,-15.79 1.64,7.01 45.17,-32.25 26.07,-23.51 111.26,-20 132.88,-4.38 17.7,12.79 2.73,9.46 20.25,21.14 12.87,8.57 16.45,4.78 29.29,9.67 -4.95,135.92 -20.59,211.09 66.5,295.43 61.06,59.14 156.54,92.15 265.11,107.67 302.3,43.22 363.19,-101.47 361.48,-374 9.89,-23.74 -4.01,-5.44 21.7,-15.06 31.23,-11.69 44.71,-34.31 29.77,-76.04 -21.03,-58.72 -295.22,-81.86 -353.42,-84.11 -94.72,-3.66 -184.74,-0.21 -269.9,20.82 -44.39,10.96 -72.3,25.84 -108.52,38.11 -18.89,6.4 -78.9,-20.36 -122.09,-20.77 -91.04,-0.86 -94.3,26.48 -120.57,23.69 -7.14,-0.76 -85.25,-32.4 -106.89,-38.15 -167.3,-44.51 -362.25,-24.15 -529.29,10.65 -38.56,8.03 -88.48,14.64 -103.21,43.14 -7.28,14.08 -8.77,47.75 -1.63,63.21 9.36,20.26 24.91,19.13 51.05,23.94zm1287.19 335.85c206.69,26.9 290.02,-66.71 276.79,-265.46 -8.61,71.23 -40.54,149.34 -81,187.8 -64.88,61.68 -130.98,42.24 -195.79,77.66zm-843.8 -23.65c113.98,-26.08 218.4,-94.21 202.7,-242.07 -30.3,51.34 -33.54,94.38 -74.65,143.71 -44.56,53.47 -73.72,57.1 -128.05,98.36zm530.13 -330.55c-6,44.91 -12.67,120.47 3.33,156.11 6.29,-133.79 8.68,-143.91 121.19,-177.67l59.95 -15.61c1.55,-0.5 3.07,-0.91 4.57,-1.48l17.04 -8.75c-83.53,0.54 -140.05,18.77 -206.08,47.4zm-925.86 10.88c-5.54,52.15 -11.37,111 3.42,156.26 7.15,-134.31 2.46,-150.12 162.32,-188.48l40.61 -14.48c-97.09,-1.16 -135.08,21.81 -206.35,46.7z"/>
  <path class="fil1" d="M2035.12 272.24c88.43,7.89 169.63,65.01 211.73,107.03 99.59,99.41 105.67,207.34 110.21,211.27l203.58 55.95c16.7,4.55 35,6.91 40.8,23.73 7.43,21.54 -5.87,34.51 -21.93,39.36 -31.73,9.57 -72.84,19.53 -105.21,26.39 -0.96,25.02 14.06,69 -0.05,86.16 -15.91,19.36 -60.31,4.76 -85.95,3.31 1.12,24.69 17.43,64 0.82,81.95 -15.92,17.21 -59.67,7.25 -86.44,11.25 -5.27,26.01 -8.97,87.1 -24.13,98.92 -35.63,27.78 -52.49,-27.52 -61.53,-49.74l-71.56 -168.86c-9.07,-12.92 -54.45,-10.15 -116.12,-45.83 -64.88,-37.53 -118,-88.49 -155.09,-154.94 -21.11,-37.83 -31.43,-67.43 -40.6,-115.82 -58.39,-24.64 -116.65,-50.49 -174.89,-73.83 -22.38,-8.97 -79.15,-25.5 -50.99,-61.84 15.33,-19.77 72.3,-13.88 99.51,-25.84 2.69,-105.38 -7.61,-95.03 92.14,-83.7 -1.43,-26.85 -14.39,-67.83 2.29,-84.71 16.6,-16.8 61.95,-1.64 85.97,-1.38 23.75,-43.09 12.95,-144.13 66.25,-127.55 17.11,5.32 20.05,23.88 24.96,42.44 12.34,46.6 49.5,171.77 56.23,206.28z"/>
  <path class="fil2" d="M1974.39 273.19c-79.2,19.3 -127.56,60.11 -140.66,143.65l-93.88 -37.88c15.41,-9.72 23.43,-9.16 25.55,-31.52 1.62,-17.03 0.11,-36.57 1.33,-54.13 23.78,-2.14 65.68,17.64 85.91,2.11 19.56,-15.01 4.14,-59.85 3.96,-87.73 14.02,1.09 47.58,7.6 61.09,4.9 23.28,-4.66 17.62,-24.78 28.68,-41.61l28.02 102.21z"/>
  <path class="fil2" d="M2452.52 680.34c-53.54,20.12 -40.23,11.48 -35.23,88.09 -26.68,-1.17 -72.1,-14.98 -87.43,4.26 -13.96,17.51 1.57,60.78 2.36,85.81 -23.51,0.32 -62,-3.81 -74.84,9.31l-12.21 16.92 -36.83 -89.93c21.5,-7.41 33.47,-7.01 54.25,-16.78 50.97,-23.99 79.92,-65.62 91.86,-125.94l72.73 18.99c4.52,1.23 9.29,2.26 13.24,3.5l12.1 5.77z"/>
  <path class="fil2" d="M2278.45 531.67l-186.32 186.6c-13.7,-5.18 -36.6,-15.83 -45.29,-24.56 5.39,-11.22 148.89,-151.25 180.35,-182.94 9.5,-9.57 15.9,-20.65 30.45,-25.41 4.51,15.12 16.86,28.89 20.81,46.31z"/>
  <path class="fil2" d="M2136.49 369.62c-4.86,10.76 -200.04,203.7 -207.13,206.66 -6.5,-11.74 -19.07,-32.34 -21.92,-47.41l181.35 -181.81c13.42,1.78 39.27,14.71 47.7,22.56z"/>
  <path class="fil2" d="M2217.59 436.68c-11.98,16.17 -38.46,39.53 -54.04,55.14 -26.49,26.54 -157.34,160.34 -167.64,165.13 -5.87,-5.04 -22.75,-22.2 -28.77,-30.29 2.93,-5.81 204.19,-208.92 219.49,-220.61 8.43,3.94 26.43,22.08 30.96,30.63z"/>
  <path class="fil2" d="M2160.61 736.42c4.3,-9.84 6.18,-9.26 16.13,-19.04 21.67,-21.3 111.22,-113.44 120.51,-117.64 6.75,94.05 -43.51,141.39 -136.64,136.68z"/>
  <path class="fil2" d="M1890.75 459.63c-4.27,-84.47 44.58,-133.47 129.11,-129.73 -6.67,14.8 -18.58,21.42 -31.41,34.33 -19.7,19.85 -85.74,89.51 -97.7,95.4z"/>
  <path class="fil3" d="M3838.02 2587.07c71.62,3.98 147.8,11.17 150.17,83.88 2.66,81.29 -83.59,84.09 -149.18,87.51l1.49 100.21c140.57,-2.81 279.61,-36.98 278.43,-188.28 -1.15,-148.76 -140.43,-180.6 -281.75,-181.93l0.84 98.61zm-1582.12 450.53c252.77,-8.82 236.06,219.23 -0.74,200.36l1.19 120.04c172.63,-10.48 334.45,-38.73 332.3,-222.05 -2.2,-187.59 -153.93,-201.64 -333.23,-218.11l0.48 119.76zm-0.6 -447.7c200.68,-10.74 211.63,174.54 0.56,166.57l1.01 103.08c149.66,-6.66 277.59,-31.8 277.6,-188.87 0.01,-151.12 -140.98,-177.88 -279.5,-183.23l0.33 102.45zm1583.48 445.5c80.19,4.43 128.49,9.91 169.16,55.47 33.24,134.17 -58.83,146.5 -169.85,149.91l0.13 115.92c178.17,-2.87 333.61,-37.32 332.57,-220.59 -1.02,-177.68 -161.41,-212.9 -332.74,-216.04l0.73 115.33zm-1582.43 322.6l-1.19 -120.04 0.74 -200.36 -0.48 -119.76 1.45 -58.29 -1.01 -103.08 -0.56 -166.57 -0.33 -102.45c-77.89,-1.98 -198.05,-18.12 -245.14,32.37 -21.98,23.56 -31.73,57.15 -14.88,89.51 32.58,62.54 92.92,6 69.45,208.72 -6.07,52.42 -56.32,27.17 -73.97,87.93 -11.8,40.59 16.06,62.95 39.67,90.48 1.73,2.01 4.64,5.56 6.05,7.22 1.43,1.69 4.33,4.73 6.09,7.39 -135.27,139.69 2.75,126.67 22.28,193.03l-0.55 154.05 192.38 -0.15zm534.82 -585.37c35.69,14.32 71.18,9.13 117.86,8.82 78.16,-272.12 279.07,-150.34 227.73,82.02 -124.98,36.95 -501.35,47.99 -462.6,327.26 20.8,149.87 199.98,232.37 362.84,117.41 69.13,-48.79 50.2,-54.27 100.49,-106.15 34.55,64.97 36.17,110.78 110.64,142.17 65.82,27.74 144.82,19.3 216.51,4.18l5.26 -121.51c-90.45,-47.53 -149.29,-18.93 -123.38,-293.06 11.37,-120.36 11.44,-270.84 -55.95,-359.37 -66.41,-87.25 -186.97,-122.6 -328.09,-67.64 -96.74,37.68 -170.81,132.56 -171.31,265.87zm1047.05 584.07l-0.13 -115.92 0.69 -205.38 -0.73 -115.33 2.45 -61.4 -1.49 -100.21 -0.99 -171.39 -0.84 -98.61 -186.25 -2.23 -1.19 167.7c-18.21,46.92 -144.28,36.12 -29.73,174.29 2.08,2.52 4.79,6.29 6.51,8.42 1.76,2.19 4.55,5.71 6.62,8.72 -36.36,12.54 -70.74,35.42 -59.92,93.94 10.09,54.51 49.23,53.7 77.21,83.13l-0.11 147.6c-23.46,30.67 -132.81,76.22 -57.42,157.27 43.04,46.27 178.81,35.4 245.32,29.4zm581.57 -418.06l209.99 0.43c34.08,-49.83 90.13,-158.76 121.9,-221.66 38.88,-76.95 97.45,-157.66 125.76,-234.55l-139.04 1.52c-43.84,71.43 -147.83,277.59 -181.62,317.64 -65.94,-76.74 -114.19,-232.48 -181.67,-316.02l-200.95 -3.46 245.63 456.1zm210.24 279.75l-210.27 0.25 -0.45 143.49 209.77 0.5 0.95 -144.24zm-210.27 0.25l210.27 -0.25 0.48 -140.27 -210.95 0.64 0.2 139.88zm-0.2 -139.88l210.95 -0.64 -0.73 -139.05 -209.99 -0.43 -0.23 140.12zm-1277.92 -127.29c-82.21,7.15 -146.32,20.69 -213.31,54.99 -47.6,24.37 -128.94,106.23 -52.79,175.73 54.77,49.98 145.14,7.14 192.2,-25.28 89.66,-61.79 73.75,-77.75 73.9,-205.44z"/>
  <path class="fil3" d="M4917.17 1581.95l-88.9 249.03c-17.43,-21.41 -18.31,-34.64 -28.4,-59.23 -18.77,-45.72 -67.78,-153.66 -71.62,-189.8 112.49,-62.05 62.89,-140.41 13.65,-146.25 -52.02,-6.17 -217.14,-10.38 -242.52,20.63 -22.72,27.77 -10.96,78.61 8.21,97.45 32.43,31.87 46.78,3.94 71.25,59.59 28.23,64.22 53.44,125.55 81.68,188.16 26.01,57.66 56.56,122.64 79,183.13 27.71,74.68 -9.39,160.51 -84.81,157.17 -77.83,-3.45 -42.57,-117.33 -157.74,-97.81 -78.14,13.24 -84.32,110.29 -41.38,173.78 82.28,121.7 281.32,87.83 365.31,-2.97 59.4,-64.21 117.24,-275.37 152.31,-379.67 21.83,-64.95 46.62,-127.54 68.93,-193.08 19.31,-56.7 6.43,-48.22 55.16,-75.99 26.41,-15.04 53.17,-36.46 44.93,-84.91 -7.44,-43.82 -38.66,-46.02 -87.01,-46.09 -40.57,-0.06 -92.5,-2.44 -131.74,0.39 -42.09,3.03 -67.65,20.73 -64.61,65.71 2.95,43.69 33.46,57.13 58.3,80.76zm-2959.56 213.1l1.99 231.3c-15.9,23.39 -69.05,19.47 -92.1,39.79 -28.58,25.2 -29.2,78.89 -6.2,108.64 61.56,79.64 532.75,60.66 676.92,-71.62 215.4,-197.61 221.75,-583.36 47.66,-805.9 -154.16,-197.08 -532.75,-290.06 -802.4,-109.07 -91.53,61.44 -195.37,206.48 -151.58,378.37 37.76,148.19 154.62,208.4 325.71,228.49zm1143.25 -156c-457,-6.31 -446.77,311.99 -246.31,365.87 93.31,25.08 176.07,4.17 241.75,-34.22 20.3,17.49 37.93,41.43 77.21,49.63 114.59,23.95 187.74,-41.03 121.28,-91.64 -25.76,-19.61 -40.58,-16.3 -41.21,-98.83 -1.39,-182.35 28.21,-341.7 -123.23,-406.81 -122.26,-52.56 -407.32,10.52 -345.41,147.81 13.46,29.85 53.2,38 95.73,29.42 45.97,-9.28 52.25,-31.3 78.7,-52.08 28.8,-22.62 73.44,-27.11 105.77,-8.96 32.44,18.2 36.94,52.72 35.72,99.81zm581.91 -154.45c-53.94,-43.2 -141.82,-136.89 -270.64,-44.78 -171.71,122.77 -151.7,435.73 -9.86,541.73 73.96,55.26 214.54,59.19 272.27,-17.3 115.09,103.91 240.87,69.35 243.32,3.4 1.63,-43.79 -33.41,-47.69 -55.47,-67.26 -33.29,-29.53 -18.68,-177.75 -18.68,-231.02l0.04 -487.91c-11.17,-122.01 -177.56,11.34 -219.41,48.25 -25.1,22.15 -33.02,47.19 -5.23,75.78 28.88,29.71 59.08,22.22 64.55,58.27 3.26,21.48 0.5,96.18 -0.89,120.84zm602.61 -0.78c-23.1,-13.15 -133.07,-148.78 -274.67,-42.65 -69.27,51.92 -117.48,146.99 -119.97,264.61 -3.35,158.93 89.43,324.3 245.82,318.45 71.21,-2.66 104.98,-27.02 138.87,-58.31 31.33,19.43 58.94,45.87 104.68,57.7 90.98,23.53 159.39,-24.63 134.16,-82.55 -12.69,-29.14 -17.44,-19.63 -43.83,-36.74 -38.2,-24.76 -24.95,-88.45 -24.93,-132.96 0.06,-120.73 15.5,-562.37 -14.42,-635.92 -69.68,-16.01 -170.82,52.47 -214.02,104.42 -44.01,52.95 16.46,76.37 45.41,92.86 39.56,22.53 22.93,107.14 22.9,151.09zm-140.17 66.78c-176.7,48.52 -111.35,358.09 61.88,306.04 61.64,-18.53 106.64,-99.39 92.85,-183.04 -11.77,-71.4 -70.88,-146.03 -154.73,-123zm-1143.53 203.99c-154.56,29.93 -135.97,149.16 4.78,124.4 142.48,-25.07 131.42,-150.79 -4.78,-124.4zm-1036.35 -143.47l0.76 -96.66c-158.46,-12.74 12.74,-242.14 185.76,-191.26l1.17 730.22c456.2,-22.14 446.96,-496.64 264.55,-675.31 -53.59,-52.49 -96.63,-88.75 -181.4,-109.36 -142.49,-34.63 -367.12,-10.48 -393.19,174.92 -13.47,95.84 39.44,158.77 122.35,167.45zm1560.46 -53.12c-168.69,60.71 -89.79,357.88 72.68,301.82 63.28,-21.83 108.29,-97.96 92.15,-188.3 -13.01,-72.74 -80.31,-143.94 -164.83,-113.52z"/>
  <g>
   <path class="fil0 str0" d="M3700.35 1002.96c-18.71,43.32 -80.37,26.99 -152.98,23.07 7.16,-94.88 30.94,-143.04 39.07,-232.03l-31.79 -22.48c6.67,-49.52 15.73,-86.98 -29.95,-110.32 -41.19,-21.05 -100.24,-7.12 -129.29,16.46 -63.04,51.17 -97.31,114.27 -97.6,231.74 -37.13,14.65 -51.89,46.66 -98.82,54.49 -18.51,-84.57 81.19,-176.12 18.23,-241.69 -88.97,-12.82 -69.62,58.67 -88.76,130.72 -10.92,41.08 -68.61,114.07 -105.81,123.63 -42.02,-97.68 43.37,-225.8 -10.56,-259.72 -57.28,-28.71 -65.92,44.73 -69.61,91.98 -4.12,52.76 -19.34,104.2 -9.62,159.99 25.23,144.81 176.81,-39.78 185.59,-43.71 7.18,215.38 127.39,42.33 185.4,7.13 15.62,33.55 8.73,42.17 35.52,58.51 48.88,24.75 88.41,-17.37 113.17,-46.17 6.75,-7.87 6.41,-8.82 13.88,-16.15 16.17,-15.89 2.51,-4.94 17.91,-14.52l-28.31 106.66c-56.04,20.4 -74.45,10.79 -137.37,67.15 -118.37,106.01 37.08,238.77 134.73,150.13 29.48,-26.77 59.6,-89.92 85.5,-124.72 33.86,-13.26 69.95,-5.47 109.92,-24.68 35.89,-17.24 54.66,-29.98 67.52,-69.65l-15.97 -15.82z"/>
   <path id="1" class="fil4" d="M3700.35 1002.96c-18.71,43.32 -80.37,26.99 -152.98,23.07 7.16,-94.88 30.94,-143.04 39.07,-232.03l-31.79 -22.48c6.67,-49.52 15.73,-86.98 -29.95,-110.32 -41.19,-21.05 -100.24,-7.12 -129.29,16.46 -63.04,51.17 -97.31,114.27 -97.6,231.74 -37.13,14.65 -51.89,46.66 -98.82,54.49 -18.51,-84.57 81.19,-176.12 18.23,-241.69 -88.97,-12.82 -69.62,58.67 -88.76,130.72 -10.92,41.08 -68.61,114.07 -105.81,123.63 -42.02,-97.68 43.37,-225.8 -10.56,-259.72 -57.28,-28.71 -65.92,44.73 -69.61,91.98 -4.12,52.76 -19.34,104.2 -9.62,159.99 25.23,144.81 176.81,-39.78 185.59,-43.71 7.18,215.38 127.39,42.33 185.4,7.13 15.62,33.55 8.73,42.17 35.52,58.51 48.88,24.75 88.41,-17.37 113.17,-46.17 6.75,-7.87 6.41,-8.82 13.88,-16.15 16.17,-15.89 2.51,-4.94 17.91,-14.52l-28.31 106.66c-56.04,20.4 -74.45,10.79 -137.37,67.15 -118.37,106.01 37.08,238.77 134.73,150.13 29.48,-26.77 59.6,-89.92 85.5,-124.72 33.86,-13.26 69.95,-5.47 109.92,-24.68 35.89,-17.24 54.66,-29.98 67.52,-69.65l-15.97 -15.82z"/>
  </g>
  <g>
   <path class="fil0 str1" d="M3484.62 2439.17c-14.04,32.51 -60.31,20.25 -114.8,17.31 5.37,-71.2 23.21,-107.34 29.32,-174.13l-23.86 -16.86c5.01,-37.17 11.81,-65.28 -22.48,-82.8 -30.91,-15.79 -75.22,-5.34 -97.02,12.36 -47.31,38.4 -73.03,85.75 -73.25,173.9 -27.86,11 -38.94,35.02 -74.15,40.89 -13.9,-63.45 60.92,-132.16 13.67,-181.37 -66.76,-9.62 -52.24,44.03 -66.61,98.1 -8.19,30.83 -51.49,85.61 -79.4,92.78 -31.54,-73.3 32.54,-169.45 -7.93,-194.91 -42.98,-21.55 -49.47,33.57 -52.24,69.03 -3.09,39.6 -14.51,78.2 -7.21,120.06 18.93,108.67 132.68,-29.85 139.27,-32.8 5.39,161.63 95.6,31.77 139.14,5.35 11.72,25.18 6.54,31.65 26.65,43.91 36.68,18.58 66.35,-13.03 84.93,-34.65 5.07,-5.9 4.81,-6.62 10.41,-12.12 12.14,-11.92 1.89,-3.71 13.45,-10.9l-21.25 80.05c-42.05,15.31 -55.87,8.1 -103.09,50.39 -88.83,79.56 27.83,179.19 101.11,112.67 22.13,-20.09 44.73,-67.48 64.17,-93.6 25.41,-9.95 52.49,-4.11 82.48,-18.52 26.94,-12.94 41.02,-22.5 50.68,-52.27l-11.99 -11.87z"/>
   <path id="1" class="fil4" d="M3484.62 2439.17c-14.04,32.51 -60.31,20.25 -114.8,17.31 5.37,-71.2 23.21,-107.34 29.32,-174.13l-23.86 -16.86c5.01,-37.17 11.81,-65.28 -22.48,-82.8 -30.91,-15.79 -75.22,-5.34 -97.02,12.36 -47.31,38.4 -73.03,85.75 -73.25,173.9 -27.86,11 -38.94,35.02 -74.15,40.89 -13.9,-63.45 60.92,-132.16 13.67,-181.37 -66.76,-9.62 -52.24,44.03 -66.61,98.1 -8.19,30.83 -51.49,85.61 -79.4,92.78 -31.54,-73.3 32.54,-169.45 -7.93,-194.91 -42.98,-21.55 -49.47,33.57 -52.24,69.03 -3.09,39.6 -14.51,78.2 -7.21,120.06 18.93,108.67 132.68,-29.85 139.27,-32.8 5.39,161.63 95.6,31.77 139.14,5.35 11.72,25.18 6.54,31.65 26.65,43.91 36.68,18.58 66.35,-13.03 84.93,-34.65 5.07,-5.9 4.81,-6.62 10.41,-12.12 12.14,-11.92 1.89,-3.71 13.45,-10.9l-21.25 80.05c-42.05,15.31 -55.87,8.1 -103.09,50.39 -88.83,79.56 27.83,179.19 101.11,112.67 22.13,-20.09 44.73,-67.48 64.17,-93.6 25.41,-9.95 52.49,-4.11 82.48,-18.52 26.94,-12.94 41.02,-22.5 50.68,-52.27l-11.99 -11.87z"/>
  </g>
  <g>
   <path class="fil0 str0" d="M2725.04 928.61c-65.15,-33.68 -120.67,-43.15 -157.09,30.91 -24.29,49.41 -47.93,119.84 -19.77,175.58 30.04,59.48 48.98,107.31 108.66,124.11 80.48,22.67 133.33,-12.77 173.36,-52.87 105.54,-105.74 76.33,-217.45 7.21,-337.3 -32.36,-56.11 -51.99,-88.56 -76.58,-155.84 -21.76,-59.53 -22.88,-167.59 57.46,-147.46l-20.22 16.46c-12.89,10.56 -34.55,24.59 -24,80.61 9.36,49.74 50.87,54.32 96.42,42.43 74.28,-159.02 -92.36,-275.16 -179.95,-155.31 -49.99,68.4 -26.21,211.47 0.81,292.84 10.52,31.69 30.02,63.8 33.69,85.84z"/>
   <path id="1" class="fil4" d="M2725.04 928.61c-65.15,-33.68 -120.67,-43.15 -157.09,30.91 -24.29,49.41 -47.93,119.84 -19.77,175.58 30.04,59.48 48.98,107.31 108.66,124.11 80.48,22.67 133.33,-12.77 173.36,-52.87 105.54,-105.74 76.33,-217.45 7.21,-337.3 -32.36,-56.11 -51.99,-88.56 -76.58,-155.84 -21.76,-59.53 -22.88,-167.59 57.46,-147.46l-20.22 16.46c-12.89,10.56 -34.55,24.59 -24,80.61 9.36,49.74 50.87,54.32 96.42,42.43 74.28,-159.02 -92.36,-275.16 -179.95,-155.31 -49.99,68.4 -26.21,211.47 0.81,292.84 10.52,31.69 30.02,63.8 33.69,85.84z"/>
  </g>
  <g>
   <path class="fil0 str1" d="M2752.7 2383.37c-48.9,-25.28 -90.56,-32.38 -117.89,23.2 -18.23,37.08 -35.97,89.93 -14.84,131.77 22.54,44.63 36.76,80.52 81.54,93.13 60.4,17.01 100.06,-9.58 130.1,-39.68 79.2,-79.35 57.29,-163.18 5.41,-253.12 -24.28,-42.11 -39.02,-66.46 -57.47,-116.95 -16.32,-44.68 -17.17,-125.77 43.13,-110.67l-15.18 12.35c-9.68,7.93 -25.93,18.46 -18.01,60.5 7.03,37.33 38.18,40.77 72.36,31.84 55.74,-119.33 -69.31,-206.49 -135.05,-116.55 -37.51,51.33 -19.66,158.7 0.61,219.76 7.9,23.79 22.53,47.89 25.29,64.42z"/>
   <path id="1" class="fil4" d="M2752.7 2383.37c-48.9,-25.28 -90.56,-32.38 -117.89,23.2 -18.23,37.08 -35.97,89.93 -14.84,131.77 22.54,44.63 36.76,80.52 81.54,93.13 60.4,17.01 100.06,-9.58 130.1,-39.68 79.2,-79.35 57.29,-163.18 5.41,-253.12 -24.28,-42.11 -39.02,-66.46 -57.47,-116.95 -16.32,-44.68 -17.17,-125.77 43.13,-110.67l-15.18 12.35c-9.68,7.93 -25.93,18.46 -18.01,60.5 7.03,37.33 38.18,40.77 72.36,31.84 55.74,-119.33 -69.31,-206.49 -135.05,-116.55 -37.51,51.33 -19.66,158.7 0.61,219.76 7.9,23.79 22.53,47.89 25.29,64.42z"/>
  </g>
  <g>
   <path class="fil0 str0" d="M3700.35 1002.96c20.08,-16.7 29.37,-25.87 46.47,-48.72 14.8,-19.77 22.97,-43.26 42.12,-60.72l4.38 15.25c8.65,43.46 1.32,34.51 25.15,80.86 67.83,-5.05 147.62,-155.02 211.96,-180.74 39.29,48.28 9.79,94.18 -3.73,148 -42.8,170.4 108.93,196.16 174.31,91.75 25.45,-40.64 42.11,-129.86 -27.7,-125.45 -20.01,48.73 -5.66,38.71 19.83,65.62 -6.71,38.56 -22.93,82.83 -67.36,53.34l-2.59 -19.74c1.79,-13.81 39.5,-99.32 47.33,-161.84 14.47,-115.5 -64.96,-64.62 -131.49,-115.12 -1.62,-53.05 28.85,-98.27 -32.8,-121.03 -56.6,24.34 -66.55,127.66 -7.63,169.05 -25.05,42.14 -97.02,122.92 -153.5,139.06 3.66,-55.22 15.6,-93.15 -2.93,-131.06 -40.5,9.14 -38.81,37.4 -71.64,71.54 -23.21,24.13 -56.82,64.17 -77.27,69.97 12.6,-67.06 26.89,-150.93 80.7,-173.04 0.74,1.62 0.98,2.73 1.14,5.23 0.16,2.43 0.85,4.15 1.08,5.09 5.73,23.23 3.52,20.53 20.25,31.06 13.02,-15.78 27.22,-41.04 19.52,-66.56 -14.28,-47.26 -92.06,-67.42 -160.37,28.21 -49.87,69.8 -99.78,232.83 44.77,229.99z"/>
   <path id="1" class="fil4" d="M3700.35 1002.96c20.08,-16.7 29.37,-25.87 46.47,-48.72 14.8,-19.77 22.97,-43.26 42.12,-60.72l4.38 15.25c8.65,43.46 1.32,34.51 25.15,80.86 67.83,-5.05 147.62,-155.02 211.96,-180.74 39.29,48.28 9.79,94.18 -3.73,148 -42.8,170.4 108.93,196.16 174.31,91.75 25.45,-40.64 42.11,-129.86 -27.7,-125.45 -20.01,48.73 -5.66,38.71 19.83,65.62 -6.71,38.56 -22.93,82.83 -67.36,53.34l-2.59 -19.74c1.79,-13.81 39.5,-99.32 47.33,-161.84 14.47,-115.5 -64.96,-64.62 -131.49,-115.12 -1.62,-53.05 28.85,-98.27 -32.8,-121.03 -56.6,24.34 -66.55,127.66 -7.63,169.05 -25.05,42.14 -97.02,122.92 -153.5,139.06 3.66,-55.22 15.6,-93.15 -2.93,-131.06 -40.5,9.14 -38.81,37.4 -71.64,71.54 -23.21,24.13 -56.82,64.17 -77.27,69.97 12.6,-67.06 26.89,-150.93 80.7,-173.04 0.74,1.62 0.98,2.73 1.14,5.23 0.16,2.43 0.85,4.15 1.08,5.09 5.73,23.23 3.52,20.53 20.25,31.06 13.02,-15.78 27.22,-41.04 19.52,-66.56 -14.28,-47.26 -92.06,-67.42 -160.37,28.21 -49.87,69.8 -99.78,232.83 44.77,229.99z"/>
  </g>
  <g>
   <path class="fil0 str1" d="M3484.62 2439.17c15.07,-12.53 22.04,-19.42 34.87,-36.57 11.11,-14.83 17.24,-32.46 31.61,-45.56l3.29 11.45c6.49,32.61 0.99,25.89 18.87,60.67 50.91,-3.78 110.79,-116.33 159.07,-135.64 29.48,36.24 7.35,70.69 -2.8,111.07 -32.12,127.88 81.75,147.21 130.82,68.86 19.09,-30.5 31.6,-97.45 -20.79,-94.15 -15.02,36.57 -4.25,29.06 14.87,49.25 -5.03,28.94 -17.2,62.16 -50.54,40.03l-1.95 -14.82c1.35,-10.36 29.65,-74.53 35.52,-121.45 10.86,-86.67 -48.75,-48.49 -98.68,-86.39 -1.21,-39.82 21.65,-73.75 -24.61,-90.83 -42.47,18.27 -49.94,95.8 -5.73,126.87 -18.79,31.62 -72.81,92.24 -115.19,104.36 2.75,-41.45 11.71,-69.91 -2.2,-98.36 -30.39,6.86 -29.12,28.06 -53.76,53.68 -17.42,18.12 -42.64,48.17 -57.99,52.52 9.45,-50.33 20.18,-113.27 60.56,-129.86 0.55,1.22 0.73,2.05 0.86,3.92 0.11,1.82 0.64,3.12 0.81,3.82 4.3,17.43 2.64,15.41 15.2,23.31 9.76,-11.84 20.42,-30.8 14.64,-49.95 -10.72,-35.46 -69.09,-50.59 -120.35,21.17 -37.42,52.39 -74.87,174.73 33.6,172.6z"/>
   <path id="1" class="fil4" d="M3484.62 2439.17c15.07,-12.53 22.04,-19.42 34.87,-36.57 11.11,-14.83 17.24,-32.46 31.61,-45.56l3.29 11.45c6.49,32.61 0.99,25.89 18.87,60.67 50.91,-3.78 110.79,-116.33 159.07,-135.64 29.48,36.24 7.35,70.69 -2.8,111.07 -32.12,127.88 81.75,147.21 130.82,68.86 19.09,-30.5 31.6,-97.45 -20.79,-94.15 -15.02,36.57 -4.25,29.06 14.87,49.25 -5.03,28.94 -17.2,62.16 -50.54,40.03l-1.95 -14.82c1.35,-10.36 29.65,-74.53 35.52,-121.45 10.86,-86.67 -48.75,-48.49 -98.68,-86.39 -1.21,-39.82 21.65,-73.75 -24.61,-90.83 -42.47,18.27 -49.94,95.8 -5.73,126.87 -18.79,31.62 -72.81,92.24 -115.19,104.36 2.75,-41.45 11.71,-69.91 -2.2,-98.36 -30.39,6.86 -29.12,28.06 -53.76,53.68 -17.42,18.12 -42.64,48.17 -57.99,52.52 9.45,-50.33 20.18,-113.27 60.56,-129.86 0.55,1.22 0.73,2.05 0.86,3.92 0.11,1.82 0.64,3.12 0.81,3.82 4.3,17.43 2.64,15.41 15.2,23.31 9.76,-11.84 20.42,-30.8 14.64,-49.95 -10.72,-35.46 -69.09,-50.59 -120.35,21.17 -37.42,52.39 -74.87,174.73 33.6,172.6z"/>
  </g>
  <g>
   <path class="fil0 str0" d="M2747.66 967.25c-9.47,21.06 14.09,75.78 -23.71,103.66 -31.74,23.41 -70.81,13.71 -72.88,-37.14 27.63,-22.17 15.99,-2.55 40.67,-17.2 4.38,-33.01 0.87,-40.64 -10.53,-64.8 -54.64,1.83 -106.6,68.02 -98.18,125.33 12.45,84.67 72.69,183.01 174.42,124.05 93.99,-54.47 28.55,-166.66 -9.79,-233.9z"/>
   <path id="1" class="fil5" d="M2747.66 967.25c-9.47,21.06 14.09,75.78 -23.71,103.66 -31.74,23.41 -70.81,13.71 -72.88,-37.14 27.63,-22.17 15.99,-2.55 40.67,-17.2 4.38,-33.01 0.87,-40.64 -10.53,-64.8 -54.64,1.83 -106.6,68.02 -98.18,125.33 12.45,84.67 72.69,183.01 174.42,124.05 93.99,-54.47 28.55,-166.66 -9.79,-233.9z"/>
  </g>
  <g>
   <path class="fil0 str1" d="M2769.67 2412.37c-7.11,15.8 10.58,56.87 -17.79,77.79 -23.82,17.57 -53.14,10.29 -54.7,-27.87 20.74,-16.64 12.01,-1.91 30.52,-12.91 3.29,-24.77 0.66,-30.49 -7.9,-48.63 -41,1.38 -79.99,51.05 -73.67,94.05 9.33,63.55 54.54,137.35 130.89,93.1 70.53,-40.88 21.43,-125.07 -7.35,-175.53z"/>
   <path id="1" class="fil5" d="M2769.67 2412.37c-7.11,15.8 10.58,56.87 -17.79,77.79 -23.82,17.57 -53.14,10.29 -54.7,-27.87 20.74,-16.64 12.01,-1.91 30.52,-12.91 3.29,-24.77 0.66,-30.49 -7.9,-48.63 -41,1.38 -79.99,51.05 -73.67,94.05 9.33,63.55 54.54,137.35 130.89,93.1 70.53,-40.88 21.43,-125.07 -7.35,-175.53z"/>
  </g>
  <g>
   <path class="fil0 str0" d="M4303.91 614.18c12.29,5 10.53,-8.24 23.89,0 -8.52,12.88 -8.3,15.32 -16.73,27.74 -27.53,-4.37 24.48,-16.61 -19.79,-7.33 -12.88,2.7 -43.13,68.37 -46.87,80.31 51.79,-28.29 92.2,-45.44 152.19,-69.53 69.56,-27.93 109.79,-51.69 91.01,-116.66 -84.36,-45.43 -148.71,40.75 -183.7,85.47z"/>
   <path id="1" class="fil6" d="M4303.91 614.18c12.29,5 10.53,-8.24 23.89,0 -8.52,12.88 -8.3,15.32 -16.73,27.74 -27.53,-4.37 24.48,-16.61 -19.79,-7.33 -12.88,2.7 -43.13,68.37 -46.87,80.31 51.79,-28.29 92.2,-45.44 152.19,-69.53 69.56,-27.93 109.79,-51.69 91.01,-116.66 -84.36,-45.43 -148.71,40.75 -183.7,85.47z"/>
  </g>
  <g>
   <path class="fil0 str0" d="M4269.16 853.89c24.07,-8.9 36.09,-28.24 67.24,-16.11 28.58,11.13 31.25,25.05 71.41,34.68 62.47,14.98 122.44,-18.54 114.43,-77.06 -13.75,-100.52 -239.05,-12.22 -253.08,58.49z"/>
   <path id="1" class="fil7" d="M4269.16 853.89c24.07,-8.9 36.09,-28.24 67.24,-16.11 28.58,11.13 31.25,25.05 71.41,34.68 62.47,14.98 122.44,-18.54 114.43,-77.06 -13.75,-100.52 -239.05,-12.22 -253.08,58.49z"/>
  </g>
  <g>
   <path class="fil0 str0" d="M4163.73 693.05c42.6,-19.85 72,-130.86 99.33,-175.34 16.47,-26.81 20.79,-44.48 12.81,-75.77 -59.35,-17.39 -97.62,23.5 -108.6,81.68 -5.07,26.84 -6.55,61.72 -6.51,91.02 0.07,38.83 -4.58,57.19 2.97,78.41z"/>
   <path id="1" class="fil8" d="M4163.73 693.05c42.6,-19.85 72,-130.86 99.33,-175.34 16.47,-26.81 20.79,-44.48 12.81,-75.77 -59.35,-17.39 -97.62,23.5 -108.6,81.68 -5.07,26.84 -6.55,61.72 -6.51,91.02 0.07,38.83 -4.58,57.19 2.97,78.41z"/>
  </g>
  <g>
   <path class="fil0 str0" d="M3391.89 951.57c32.04,-18.07 127.53,-120.12 131.46,-157.03 25.7,-241.63 -132.38,33.71 -131.46,157.03z"/>
   <path id="1" class="fil5" d="M3391.89 951.57c32.04,-18.07 127.53,-120.12 131.46,-157.03 25.7,-241.63 -132.38,33.71 -131.46,157.03z"/>
  </g>
  <g>
   <path class="fil0 str1" d="M3253.14 2400.61c24.04,-13.57 95.7,-90.15 98.65,-117.85 19.29,-181.33 -99.34,25.3 -98.65,117.85z"/>
   <path id="1" class="fil5" d="M3253.14 2400.61c24.04,-13.57 95.7,-90.15 98.65,-117.85 19.29,-181.33 -99.34,25.3 -98.65,117.85z"/>
  </g>
  <g>
   <path class="fil0 str0" d="M2949.09 1191.23c51.87,2.31 81.83,-76.73 247.2,-63.2 21.01,1.71 87.25,-1.3 37.94,-25.78 -42.7,-21.2 -330.33,-9.23 -285.14,88.98z"/>
   <path id="1" class="fil4" d="M2949.09 1191.23c51.87,2.31 81.83,-76.73 247.2,-63.2 21.01,1.71 87.25,-1.3 37.94,-25.78 -42.7,-21.2 -330.33,-9.23 -285.14,88.98z"/>
  </g>
  <g>
   <path class="fil0 str0" d="M3321.48 1221.44c66.07,3.37 101.37,-68.25 116.1,-130.09 -91.25,4.36 -150.12,37.32 -116.1,130.09z"/>
   <path id="1" class="fil5" d="M3321.48 1221.44c66.07,3.37 101.37,-68.25 116.1,-130.09 -91.25,4.36 -150.12,37.32 -116.1,130.09z"/>
  </g>
  <g>
   <path class="fil0 str1" d="M3200.3 2603.12c49.58,2.54 76.07,-51.21 87.13,-97.62 -68.48,3.28 -112.67,28.01 -87.13,97.62z"/>
   <path id="1" class="fil5" d="M3200.3 2603.12c49.58,2.54 76.07,-51.21 87.13,-97.62 -68.48,3.28 -112.67,28.01 -87.13,97.62z"/>
  </g>
  <g>
   <path class="fil0 str2" d="M714.53 2274.94c-174.29,-6.24 -148.73,259.47 105.71,298.48 197.98,30.36 361.59,-73.15 425.26,-189.36 6.57,5.03 3.22,1.76 9.05,8.36 5.33,6.03 5.32,6.69 9.22,12.36 153.79,224.2 508.12,221.32 604.86,52.75 49.32,-85.94 26.12,-190.18 -88.29,-182.24 124.69,38.86 43.19,151.93 1.18,168.53 -49.16,19.43 -80.56,-17.27 -98.33,-41.62 -21.78,-29.85 -38.89,-57.35 -62.29,-85.42 -217.48,-260.85 -335.63,-81.32 -374.81,-59.77 -46.56,-43.76 -101.29,-104.94 -206.4,-69.48 -185.23,62.49 -216.75,302.42 -326.57,255.68 -28.13,-11.97 -56.06,-48.02 -61.09,-86.77 -7.16,-55.23 25.59,-67.69 62.5,-81.5z"/>
   <path id="1" class="fil1" d="M714.53 2274.94c-174.29,-6.24 -148.73,259.47 105.71,298.48 197.98,30.36 361.59,-73.15 425.26,-189.36 6.57,5.03 3.22,1.76 9.05,8.36 5.33,6.03 5.32,6.69 9.22,12.36 153.79,224.2 508.12,221.32 604.86,52.75 49.32,-85.94 26.12,-190.18 -88.29,-182.24 124.69,38.86 43.19,151.93 1.18,168.53 -49.16,19.43 -80.56,-17.27 -98.33,-41.62 -21.78,-29.85 -38.89,-57.35 -62.29,-85.42 -217.48,-260.85 -335.63,-81.32 -374.81,-59.77 -46.56,-43.76 -101.29,-104.94 -206.4,-69.48 -185.23,62.49 -216.75,302.42 -326.57,255.68 -28.13,-11.97 -56.06,-48.02 -61.09,-86.77 -7.16,-55.23 25.59,-67.69 62.5,-81.5z"/>
  </g>
  <path class="fil9" d="M5356.49 2372.61l-135.94 0c-4.33,0 -8.37,-0.69 -12.12,-2.17 -3.74,-1.38 -6.79,-3.25 -9.16,-5.71l-17.14 -17.54c-15.37,11.43 -33.69,19.9 -54.97,25.42 -21.27,5.52 -42.75,8.27 -64.42,8.27 -39.8,0 -74.47,-8.66 -104.03,-26 -35.85,-21.28 -53.78,-51.03 -53.78,-89.25 0,-25.22 12.02,-47.88 36.05,-67.97 7.1,-5.91 29.56,-20.1 67.38,-42.56 -14.18,-16.55 -24.43,-30.34 -30.73,-41.37 -10.25,-17.73 -15.37,-34.48 -15.37,-50.24 0,-34.67 11.03,-63.83 33.1,-87.47 22.07,-23.65 49.85,-35.47 83.34,-35.47 28.37,0 53,7.69 73.88,23.05 23.64,17.34 35.46,40.98 35.46,70.93 0,25.61 -11.23,47.68 -33.69,66.2 -13,10.64 -34.48,22.26 -64.42,34.87l114.66 120.57c2.37,-3.15 3.84,-6.79 4.43,-10.93 0.6,-4.14 0.89,-9.36 0.89,-15.66 0,-20.89 -4.23,-36.35 -12.71,-46.4 -8.47,-10.05 -22.75,-18.23 -42.85,-24.53l0 -10.64 139.49 0c0,23.74 -4.73,47.38 -14.18,70.73 -9.46,23.35 -22.66,45.51 -39.61,66.59 13.8,13.79 33.3,29.46 58.52,46.89 18.12,12.32 31.13,21.38 39.01,27.39 4.73,1.97 11.03,2.95 18.91,2.95l0 10.05zm-243.51 -344.58c0,-18.52 -3.55,-34.28 -10.64,-47.29 -8.27,-14.97 -19.7,-22.46 -34.28,-22.46 -13.4,0 -24.04,6.21 -31.92,18.62 -7.88,12.41 -11.82,26.3 -11.82,41.67 0,17.73 5.12,35.27 15.37,52.6 4.33,7.1 15.17,21.48 32.51,43.15 13.39,-11.03 23.54,-23.74 30.44,-38.12 6.89,-14.38 10.34,-30.44 10.34,-48.17zm-48.47 -80.38c-24.62,5.12 -44.92,18.61 -60.97,40.48 -16.06,21.87 -24.14,46.99 -24.14,75.36 0,15.76 4.93,32.31 14.78,49.65 6.7,11.82 17.14,25.81 31.32,41.96 -37.43,22.07 -59.59,36.06 -66.59,41.97 -24.53,20.49 -36.84,43.34 -36.84,68.56 0,30.34 12.9,54.57 38.81,72.7 20,14.18 47.48,24.63 82.36,31.32 -29.95,-7.88 -53.4,-18.91 -70.34,-33.09 -22.46,-18.52 -33.69,-42.17 -33.69,-70.93 0,-25.61 11.23,-48.27 33.69,-67.97 8.67,-7.88 30.34,-21.87 65.02,-41.97 -12.12,-13.79 -21.87,-27.77 -29.16,-41.96 -8.57,-16.94 -12.81,-33.69 -12.81,-50.24l0 -2.36c0,-31.92 6.4,-57.73 19.11,-77.43 11.53,-17.73 27.98,-29.75 49.45,-36.05zm96.94 381.81l-138.21 -145.99c-4.93,7.49 -8.47,15.86 -10.54,25.12 -2.07,9.26 -3.15,19.61 -3.15,31.03 0,34.68 8.76,61.97 26.3,81.86 17.53,19.9 42.45,29.85 74.76,29.85 8.67,0 17.83,-1.87 27.49,-5.61 9.65,-3.75 17.43,-9.16 23.35,-16.26z"/>
 </g>
</svg>
