<?xml version="1.0" encoding="UTF-8"?>
<!DOCTYPE svg PUBLIC "-//W3C//DTD SVG 1.1//EN" "http://www.w3.org/Graphics/SVG/1.1/DTD/svg11.dtd">
<!-- Creator: CorelDRAW 2017 -->
<svg xmlns="http://www.w3.org/2000/svg" xml:space="preserve" width="61.722mm" height="39.7932mm" version="1.1" style="shape-rendering:geometricPrecision; text-rendering:geometricPrecision; image-rendering:optimizeQuality; fill-rule:evenodd; clip-rule:evenodd"
viewBox="0 0 6172.2 3979.32"
 xmlns:xlink="http://www.w3.org/1999/xlink">
 <defs>
  <style type="text/css">
   <![CDATA[
    .fil0 {fill:none}
    .fil1 {fill:black}
    .fil2 {fill:black;fill-rule:nonzero}
   ]]>
  </style>
 </defs>
 <g id="Capa_x0020_1">
  <metadata id="CorelCorpID_0Corel-Layer"/>
  <rect class="fil0" y="-0" width="6172.2" height="3979.33"/>
  <polygon class="fil1" points="3248.91,3320.74 3459.18,3320.49 3459.66,3180.22 3248.71,3180.86 "/>
  <path class="fil1" d="M3387.06 690.88c12.29,5 10.53,-8.24 23.89,0 -8.52,12.88 -8.3,15.32 -16.73,27.74 -27.53,-4.37 24.48,-16.61 -19.79,-7.33 -12.88,2.7 -43.13,68.37 -46.87,80.31 51.79,-28.29 92.2,-45.44 152.19,-69.53 69.56,-27.93 109.79,-51.69 91.01,-116.66 -84.36,-45.43 -148.71,40.75 -183.7,85.47zm-34.75 239.71c24.07,-8.9 36.09,-28.24 67.24,-16.11 28.58,11.13 31.25,25.05 71.41,34.68 62.47,14.98 122.44,-18.54 114.43,-77.06 -13.75,-100.52 -239.05,-12.22 -253.08,58.49zm-105.43 -160.84c42.6,-19.85 72,-130.86 99.33,-175.34 16.47,-26.81 20.79,-44.48 12.81,-75.77 -59.35,-17.39 -97.62,23.5 -108.6,81.68 -5.07,26.84 -6.55,61.72 -6.51,91.02 0.07,38.83 -4.58,57.19 2.97,78.41z"/>
  <path class="fil1" d="M4408.17 1363.52c-174.29,-6.24 -148.73,259.47 105.71,298.48 197.98,30.36 361.59,-73.15 425.26,-189.36 6.57,5.03 3.22,1.76 9.05,8.36 5.33,6.03 5.32,6.69 9.22,12.36 153.79,224.2 508.12,221.32 604.86,52.75 49.32,-85.94 26.12,-190.18 -88.29,-182.24 124.69,38.86 43.19,151.93 1.18,168.53 -49.16,19.43 -80.56,-17.27 -98.33,-41.62 -21.78,-29.85 -38.89,-57.35 -62.29,-85.42 -217.48,-260.85 -335.63,-81.32 -374.81,-59.77 -46.56,-43.76 -101.29,-104.94 -206.4,-69.48 -185.23,62.49 -216.75,302.42 -326.57,255.68 -28.13,-11.97 -56.06,-48.02 -61.09,-86.77 -7.16,-55.23 25.59,-67.69 62.5,-81.5z"/>
  <path class="fil2" d="M4242.21 2851.93l-135.94 0c-4.33,0 -8.37,-0.69 -12.12,-2.17 -3.74,-1.38 -6.79,-3.25 -9.16,-5.71l-17.14 -17.54c-15.37,11.43 -33.69,19.9 -54.97,25.42 -21.27,5.52 -42.75,8.27 -64.42,8.27 -39.8,0 -74.47,-8.66 -104.03,-26 -35.85,-21.28 -53.78,-51.03 -53.78,-89.25 0,-25.22 12.02,-47.88 36.05,-67.97 7.1,-5.91 29.56,-20.1 67.38,-42.56 -14.18,-16.55 -24.43,-30.34 -30.73,-41.37 -10.25,-17.73 -15.37,-34.48 -15.37,-50.24 0,-34.67 11.03,-63.83 33.1,-87.47 22.07,-23.65 49.85,-35.47 83.34,-35.47 28.37,0 53,7.69 73.88,23.05 23.64,17.34 35.46,40.98 35.46,70.93 0,25.61 -11.23,47.68 -33.69,66.2 -13,10.64 -34.48,22.26 -64.42,34.87l114.66 120.57c2.37,-3.15 3.84,-6.79 4.43,-10.93 0.6,-4.14 0.89,-9.36 0.89,-15.66 0,-20.89 -4.23,-36.35 -12.71,-46.4 -8.47,-10.05 -22.75,-18.23 -42.85,-24.53l0 -10.64 139.49 0c0,23.74 -4.73,47.38 -14.18,70.73 -9.46,23.35 -22.66,45.51 -39.61,66.59 13.8,13.79 33.3,29.46 58.52,46.89 18.12,12.32 31.13,21.38 39.01,27.39 4.73,1.97 11.03,2.95 18.91,2.95l0 10.05zm-243.51 -344.58c0,-18.52 -3.55,-34.28 -10.64,-47.29 -8.27,-14.97 -19.7,-22.46 -34.28,-22.46 -13.4,0 -24.04,6.21 -31.92,18.62 -7.88,12.41 -11.82,26.3 -11.82,41.67 0,17.73 5.12,35.27 15.37,52.6 4.33,7.1 15.17,21.48 32.51,43.15 13.39,-11.03 23.54,-23.74 30.44,-38.12 6.89,-14.38 10.34,-30.44 10.34,-48.17zm-48.47 -80.38c-24.62,5.12 -44.92,18.61 -60.97,40.48 -16.06,21.87 -24.14,46.99 -24.14,75.36 0,15.76 4.93,32.31 14.78,49.65 6.7,11.82 17.14,25.81 31.32,41.96 -37.43,22.07 -59.59,36.06 -66.59,41.97 -24.53,20.49 -36.84,43.34 -36.84,68.56 0,30.34 12.9,54.57 38.81,72.7 20,14.18 47.48,24.63 82.36,31.32 -29.95,-7.88 -53.4,-18.91 -70.34,-33.09 -22.46,-18.52 -33.69,-42.17 -33.69,-70.93 0,-25.61 11.23,-48.27 33.69,-67.97 8.67,-7.88 30.34,-21.87 65.02,-41.97 -12.12,-13.79 -21.87,-27.77 -29.16,-41.96 -8.57,-16.94 -12.81,-33.69 -12.81,-50.24l0 -2.36c0,-31.92 6.4,-57.73 19.11,-77.43 11.53,-17.73 27.98,-29.75 49.45,-36.05zm96.94 381.81l-138.21 -145.99c-4.93,7.49 -8.47,15.86 -10.54,25.12 -2.07,9.26 -3.15,19.61 -3.15,31.03 0,34.68 8.76,61.97 26.3,81.86 17.53,19.9 42.45,29.85 74.76,29.85 8.67,0 17.83,-1.87 27.49,-5.61 9.65,-3.75 17.43,-9.16 23.35,-16.26z"/>
  <path class="fil1" d="M2783.5 1079.66c-18.71,43.32 -80.37,26.99 -152.98,23.07 7.16,-94.88 30.94,-143.04 39.07,-232.03l-31.79 -22.48c6.67,-49.52 15.73,-86.98 -29.95,-110.32 -41.19,-21.05 -100.24,-7.12 -129.29,16.46 -63.04,51.17 -97.31,114.27 -97.6,231.74 -37.13,14.65 -51.89,46.66 -98.82,54.49 -18.51,-84.57 81.19,-176.12 18.23,-241.69 -88.97,-12.82 -69.62,58.67 -88.76,130.72 -10.92,41.08 -68.61,114.07 -105.81,123.63 -42.02,-97.68 43.37,-225.8 -10.56,-259.72 -57.28,-28.71 -65.92,44.73 -69.61,91.98 -4.12,52.76 -19.34,104.2 -9.62,159.99 25.23,144.81 176.81,-39.78 185.59,-43.71 7.18,215.38 127.39,42.33 185.4,7.13 15.62,33.55 8.73,42.17 35.52,58.51 48.88,24.75 88.41,-17.37 113.17,-46.17 6.75,-7.87 6.41,-8.82 13.88,-16.15 16.17,-15.89 2.51,-4.94 17.91,-14.52l-28.31 106.66c-56.04,20.4 -74.45,10.79 -137.37,67.15 -118.37,106.01 37.08,238.77 134.73,150.13 29.48,-26.77 59.6,-89.92 85.5,-124.72 33.86,-13.26 69.95,-5.47 109.92,-24.68 35.89,-17.24 54.66,-29.98 67.52,-69.65l-15.97 -15.82zm-308.46 -76.79c32.04,-18.07 127.53,-120.12 131.46,-157.03 25.7,-241.63 -132.38,33.71 -131.46,157.03zm-70.41 269.87c66.07,3.37 101.37,-68.25 116.1,-130.09 -91.25,4.36 -150.12,37.32 -116.1,130.09zm-596.44 -267.43c-65.15,-33.68 -120.67,-43.15 -157.09,30.91 -24.29,49.41 -47.93,119.84 -19.77,175.58 30.04,59.48 48.98,107.31 108.66,124.11 80.48,22.67 133.33,-12.77 173.36,-52.87 105.54,-105.74 76.33,-217.45 7.21,-337.3 -32.36,-56.11 -51.99,-88.56 -76.58,-155.84 -21.76,-59.53 -22.88,-167.59 57.46,-147.46l-20.22 16.46c-12.89,10.56 -34.55,24.59 -24,80.61 9.36,49.74 50.87,54.32 96.42,42.43 74.28,-159.02 -92.36,-275.16 -179.95,-155.31 -49.99,68.4 -26.21,211.47 0.81,292.84 10.52,31.69 30.02,63.8 33.69,85.84zm22.62 13.24c-9.47,21.06 14.09,75.78 -23.71,103.66 -31.74,23.41 -70.81,13.71 -72.88,-37.14 27.63,-22.17 15.99,-2.55 40.67,-17.2 4.38,-33.01 0.87,-40.64 -10.53,-64.8 -54.64,1.83 -106.6,68.02 -98.18,125.33 12.45,84.67 72.69,183.01 174.42,124.05 93.99,-54.47 28.55,-166.66 -9.79,-233.9zm952.69 35.71c20.08,-16.7 29.37,-25.87 46.47,-48.72 14.8,-19.77 22.97,-43.26 42.12,-60.72l4.38 15.25c8.65,43.46 1.32,34.51 25.15,80.86 67.83,-5.05 147.62,-155.02 211.96,-180.74 39.29,48.28 9.79,94.18 -3.73,148 -42.8,170.4 108.93,196.16 174.31,91.75 25.45,-40.64 42.11,-129.86 -27.7,-125.45 -20.01,48.73 -5.66,38.71 19.83,65.62 -6.71,38.56 -22.93,82.83 -67.36,53.34l-2.59 -19.74c1.79,-13.81 39.5,-99.32 47.33,-161.84 14.47,-115.5 -64.96,-64.62 -131.49,-115.12 -1.62,-53.05 28.85,-98.27 -32.8,-121.03 -56.6,24.34 -66.55,127.66 -7.63,169.05 -25.05,42.14 -97.02,122.92 -153.5,139.06 3.66,-55.22 15.6,-93.15 -2.93,-131.06 -40.5,9.14 -38.81,37.4 -71.64,71.54 -23.21,24.13 -56.82,64.17 -77.27,69.97 12.6,-67.06 26.89,-150.93 80.7,-173.04 0.74,1.62 0.98,2.73 1.14,5.23 0.16,2.43 0.85,4.15 1.08,5.09 5.73,23.23 3.52,20.53 20.25,31.06 13.02,-15.78 27.22,-41.04 19.52,-66.56 -14.28,-47.26 -92.06,-67.42 -160.37,28.21 -49.87,69.8 -99.78,232.83 44.77,229.99zm-751.26 188.27c51.87,2.31 81.83,-76.73 247.2,-63.2 21.01,1.71 87.25,-1.3 37.94,-25.78 -42.7,-21.2 -330.33,-9.23 -285.14,88.98z"/>
  <path class="fil1" d="M2131.8 2452.31c15.7,22.44 13.38,90.14 91.35,44.61l4.14 7.74c8.22,20.94 18.11,100 101,84.72 94.85,-17.48 134.22,-151.12 176.2,-228.3 27.35,-50.29 66.64,-103.79 -25.31,-114.08 -7.76,11.78 -2.1,5.28 -7.61,17.41 -2.35,5.16 -1.94,5.23 -4.97,9.93 -4.4,6.82 -2.66,4.28 -7.11,8.42 -19.79,-27.11 -23.23,-50.15 -73.95,-25.76 -48.31,23.22 -92.64,77.92 -116.52,124.9 -9.86,19.39 -8.03,23.74 -14.52,44.87 -2.21,7.19 -4.58,21.21 -21.87,20.88 -65.24,-1.24 52.96,-138.24 39.35,-170.89 -14.62,-17.46 -25.73,-24.54 -55.56,-26.83 -10.73,44.8 -50.25,116.56 -82.89,148.95 -4.94,4.9 -14.59,13 -22.47,17.42 -2.16,1.21 -10.79,4.82 -12.85,5.02 -52.55,5.24 51.84,-114.79 40.51,-145.54 -17.12,-18.59 -28.4,-23.52 -58.36,-28.21 -3.98,5.61 -68.27,175.67 -71.03,189.37 -8.08,40.11 13.19,72.31 50.83,70.68 30.93,-1.33 62.99,-34.37 71.64,-55.31zm205.67 -33.8c46.51,1.42 100.31,-58.79 108.65,-102.29 -44.06,4.33 -108.41,62.05 -108.65,102.29zm-85.49 44.9l-16.05 24.59c50.79,76.83 131.59,47.35 150.64,-36.18 -18.91,12.24 -67.2,65.56 -106.32,38.88 -12.87,-8.78 -10.35,-15.83 -28.27,-27.29zm-334.28 -53.71c-13.36,29.06 -72.75,32.76 -112.59,28.68 -60.65,-6.21 -67.44,-29.38 -88.36,-49.44 -0.7,-0.66 -2.21,-1.9 -2.8,-2.44 -0.58,-0.54 -1.87,-1.66 -2.86,-2.41 -18.75,10.98 -40.39,42.12 -29.11,78.69 37.18,120.49 396.86,19.19 319.65,-97.26 -28.72,-43.31 -120.17,-31.86 -142.72,-78.92 3.08,-40.86 69.13,-72.82 115.13,-80.91 -4.49,46.74 1.38,72.53 47.24,77.2 24.8,-32.69 90.86,-132.53 16.71,-151.18 -60.07,-15.1 -145.65,22.33 -187.27,48.34 -37.58,23.47 -104.58,77.06 -93.88,144.89 13.31,84.42 140.43,37.06 160.86,84.76zm796.49 34.33c-1.12,-43.18 64.45,-114.89 -23.96,-112.11 -12.12,17.32 -45.12,109.06 -89.59,93.99 -10.92,-31.24 26.07,-72.51 41.19,-84.98 34.94,-28.81 51.86,-25.83 102.25,-25.51 35.05,-72.31 -34.83,-75.03 -89.36,-55.41 -40.48,14.58 -84.64,46.97 -106.08,76.35 -82.19,112.6 -3.17,232.11 93.02,132.71l7.97 11.22c30.81,49.61 69.48,24.38 84.24,2.05 22.76,10.19 23.97,20.74 60.43,22.2 5.23,-6.13 0.87,2.76 8.41,-13.01 1.28,-2.68 3.76,-10.15 5.16,-14.35l35.02 -87.94c35.58,-70.36 98.41,-98.47 87.61,-40.87 -1.66,8.85 -6.44,17.92 -9.17,27.15 27.9,-8.92 44.69,-23.83 58.88,-45.8 13.34,-20.65 28.18,-60.59 0.21,-77.83 -34.39,-19.92 -78.26,31.43 -97.49,39.35 -11.91,-32.4 -10.43,-50.05 -49.24,-55.14l-49.2 114.67c-8.43,18.8 -15.47,34.3 -23.96,54.87 -10.84,26.27 -14.42,35.07 -46.34,38.39z"/>
  <path class="fil1" d="M4003.32 1684.67l-88.9 249.03c-17.43,-21.41 -18.31,-34.64 -28.4,-59.23 -18.77,-45.72 -67.78,-153.66 -71.62,-189.8 112.49,-62.05 62.89,-140.41 13.65,-146.25 -52.02,-6.17 -217.14,-10.38 -242.52,20.63 -22.72,27.77 -10.96,78.61 8.21,97.45 32.43,31.87 46.78,3.94 71.25,59.59 28.23,64.22 53.44,125.55 81.68,188.16 26.01,57.66 56.56,122.64 79,183.13 27.71,74.68 -9.39,160.51 -84.81,157.17 -77.83,-3.45 -42.57,-117.33 -157.74,-97.81 -78.14,13.24 -84.32,110.29 -41.38,173.78 82.28,121.7 281.32,87.83 365.31,-2.97 59.4,-64.21 117.24,-275.37 152.31,-379.67 21.83,-64.95 46.62,-127.54 68.93,-193.08 19.31,-56.7 6.43,-48.22 55.16,-75.99 26.41,-15.04 53.17,-36.46 44.93,-84.91 -7.44,-43.82 -38.66,-46.02 -87.01,-46.09 -40.57,-0.06 -92.5,-2.44 -131.74,0.39 -42.09,3.03 -67.65,20.73 -64.61,65.71 2.95,43.69 33.46,57.13 58.3,80.76zm-2959.56 213.1l1.99 231.3c-15.9,23.39 -69.05,19.47 -92.1,39.79 -28.58,25.2 -29.2,78.89 -6.2,108.64 61.56,79.64 532.75,60.66 676.92,-71.62 215.4,-197.61 221.75,-583.36 47.66,-805.9 -154.16,-197.08 -532.75,-290.06 -802.4,-109.07 -91.53,61.44 -195.37,206.48 -151.58,378.37 37.76,148.19 154.62,208.4 325.71,228.49zm1143.25 -156c-457,-6.31 -446.77,311.99 -246.31,365.87 93.31,25.08 176.07,4.17 241.75,-34.22 20.3,17.49 37.93,41.43 77.21,49.63 114.59,23.95 187.74,-41.03 121.28,-91.64 -25.76,-19.61 -40.58,-16.3 -41.21,-98.83 -1.39,-182.35 28.21,-341.7 -123.23,-406.81 -122.26,-52.56 -407.32,10.52 -345.41,147.81 13.46,29.85 53.2,38 95.73,29.42 45.97,-9.28 52.25,-31.3 78.7,-52.08 28.8,-22.62 73.44,-27.11 105.77,-8.96 32.44,18.2 36.94,52.72 35.72,99.81zm581.91 -154.45c-53.94,-43.2 -141.82,-136.89 -270.64,-44.78 -171.71,122.77 -151.7,435.73 -9.86,541.73 73.96,55.26 214.54,59.19 272.27,-17.3 115.09,103.91 240.87,69.35 243.32,3.4 1.63,-43.79 -33.41,-47.69 -55.47,-67.26 -33.29,-29.53 -18.68,-177.75 -18.68,-231.02l0.04 -487.91c-11.17,-122.01 -177.56,11.34 -219.41,48.25 -25.1,22.15 -33.02,47.19 -5.23,75.78 28.88,29.71 59.08,22.22 64.55,58.27 3.26,21.48 0.5,96.18 -0.89,120.84zm602.61 -0.78c-23.1,-13.15 -133.07,-148.78 -274.67,-42.65 -69.27,51.92 -117.48,146.99 -119.97,264.61 -3.35,158.93 89.43,324.3 245.82,318.45 71.21,-2.66 104.98,-27.02 138.87,-58.31 31.33,19.43 58.94,45.87 104.68,57.7 90.98,23.53 159.39,-24.63 134.16,-82.55 -12.69,-29.14 -17.44,-19.63 -43.83,-36.74 -38.2,-24.76 -24.95,-88.45 -24.93,-132.96 0.06,-120.73 15.5,-562.37 -14.42,-635.92 -69.68,-16.01 -170.82,52.47 -214.02,104.42 -44.01,52.95 16.46,76.37 45.41,92.86 39.56,22.53 22.93,107.14 22.9,151.09zm-140.17 66.78c-176.7,48.52 -111.35,358.09 61.88,306.04 61.64,-18.53 106.64,-99.39 92.85,-183.04 -11.77,-71.4 -70.88,-146.03 -154.73,-123zm-1143.53 203.99c-154.56,29.93 -135.97,149.16 4.78,124.4 142.48,-25.07 131.42,-150.79 -4.78,-124.4zm-1036.35 -143.47l0.76 -96.66c-158.46,-12.74 12.74,-242.14 185.76,-191.26l1.17 730.22c456.2,-22.14 446.96,-496.64 264.55,-675.31 -53.59,-52.49 -96.63,-88.75 -181.4,-109.36 -142.49,-34.63 -367.12,-10.48 -393.19,174.92 -13.47,95.84 39.44,158.77 122.35,167.45zm1560.46 -53.12c-168.69,60.71 -89.79,357.88 72.68,301.82 63.28,-21.83 108.29,-97.96 92.15,-188.3 -13.01,-72.74 -80.31,-143.94 -164.83,-113.52z"/>
  <path class="fil1" d="M2667.54 2746.83c71.62,3.98 147.8,11.17 150.17,83.88 2.66,81.29 -83.59,84.09 -149.18,87.51l1.49 100.21c140.57,-2.81 279.61,-36.98 278.43,-188.28 -1.15,-148.76 -140.43,-180.6 -281.75,-181.93l0.84 98.61zm-1582.12 450.53c252.77,-8.82 236.06,219.23 -0.74,200.36l1.19 120.04c172.63,-10.48 334.45,-38.73 332.3,-222.05 -2.2,-187.59 -153.93,-201.64 -333.23,-218.11l0.48 119.76zm-0.6 -447.7c200.68,-10.74 211.63,174.54 0.56,166.57l1.01 103.08c149.66,-6.66 277.59,-31.8 277.6,-188.87 0.01,-151.12 -140.98,-177.88 -279.5,-183.23l0.33 102.45zm1583.48 445.5c80.19,4.43 128.49,9.91 169.16,55.47 33.24,134.17 -58.83,146.5 -169.85,149.91l0.13 115.92c178.17,-2.87 333.61,-37.32 332.57,-220.59 -1.02,-177.68 -161.41,-212.9 -332.74,-216.04l0.73 115.33zm-1582.43 322.6l-1.19 -120.04 0.74 -200.36 -0.48 -119.76 1.45 -58.29 -1.01 -103.08 -0.56 -166.57 -0.33 -102.45c-77.89,-1.98 -198.05,-18.12 -245.14,32.37 -21.98,23.56 -31.73,57.15 -14.88,89.51 32.58,62.54 92.92,6 69.45,208.72 -6.07,52.42 -56.32,27.17 -73.97,87.93 -11.8,40.59 16.06,62.95 39.67,90.48 1.73,2.01 4.64,5.56 6.05,7.22 1.43,1.69 4.33,4.73 6.09,7.39 -135.27,139.69 2.75,126.67 22.28,193.03l-0.55 154.05 192.38 -0.15zm534.82 -585.37c35.69,14.32 71.18,9.13 117.86,8.82 78.16,-272.12 279.07,-150.34 227.73,82.02 -124.98,36.95 -501.35,47.99 -462.6,327.26 20.8,149.87 199.98,232.37 362.84,117.41 69.13,-48.79 50.2,-54.27 100.49,-106.15 34.55,64.97 36.17,110.78 110.64,142.17 65.82,27.74 144.82,19.3 216.51,4.18l5.26 -121.51c-90.45,-47.53 -149.29,-18.93 -123.38,-293.06 11.37,-120.36 11.44,-270.84 -55.95,-359.37 -66.41,-87.25 -186.97,-122.6 -328.09,-67.64 -96.74,37.68 -170.81,132.56 -171.31,265.87zm1047.05 584.07l-0.13 -115.92 0.69 -205.38 -0.73 -115.33 2.45 -61.4 -1.49 -100.21 -0.99 -171.39 -0.84 -98.61 -186.25 -2.23 -1.19 167.7c-18.21,46.92 -144.28,36.12 -29.73,174.29 2.08,2.52 4.79,6.29 6.51,8.42 1.76,2.19 4.55,5.71 6.62,8.72 -36.36,12.54 -70.74,35.42 -59.92,93.94 10.09,54.51 49.23,53.7 77.21,83.13l-0.11 147.6c-23.46,30.67 -132.81,76.22 -57.42,157.27 43.04,46.27 178.81,35.4 245.32,29.4zm581.57 -418.06l209.99 0.43c34.08,-49.83 90.13,-158.76 121.9,-221.66 38.88,-76.95 97.45,-157.66 125.76,-234.55l-139.04 1.52c-43.84,71.43 -147.83,277.59 -181.62,317.64 -65.94,-76.74 -114.19,-232.48 -181.67,-316.02l-200.95 -3.46 245.63 456.1zm210.24 279.75l-210.27 0.25 -0.45 143.49 209.77 0.5 0.95 -144.24zm-210.27 0.25l210.27 -0.25 0.48 -140.27 -210.95 0.64 0.2 139.88zm-0.2 -139.88l210.95 -0.64 -0.73 -139.05 -209.99 -0.43 -0.23 140.12zm-1277.92 -127.29c-82.21,7.15 -146.32,20.69 -213.31,54.99 -47.6,24.37 -128.94,106.23 -52.79,175.73 54.77,49.98 145.14,7.14 192.2,-25.28 89.66,-61.79 73.75,-77.75 73.9,-205.44z"/>
  <path class="fil1" d="M5270.55 2276.79l-73.34 116.77c-15,-4.27 -253.62,-158.37 -288.28,-180.23 -94.63,-59.68 -192.89,-126.97 -289.92,-183.26 6.24,-20.5 57.96,-94.23 72.48,-118.55l579.06 365.27zm-13.22 -83.05l-483.85 -305.78c12.51,-14.71 56.4,-31.01 73.47,-35.89 162.96,-46.55 325.54,30.64 386.13,172.91 15.59,36.63 37.46,116.27 24.25,168.76zm-484.61 305.72l-534.24 845.48 -69.42 -42.38 535.14 -847.16 68.52 44.06zm345.55 -79.45c-31.38,29.83 -108.51,51.59 -159.2,54.47 -130.25,7.43 -259.85,-71.31 -307.69,-189.63 -22.15,-54.74 -37.2,-113.33 -23.89,-174.52l490.78 309.68zm57.64 37.04c-68.26,62.46 -192.53,91.16 -287.71,76.9 -67.2,-10.07 -41.92,-31.6 -91.99,46.95l-117.87 186.38c-52.43,83.29 -104.62,167 -157.75,249.25l-233.96 369.62c-14.35,22.97 -25.44,43.66 -54.39,30.27l-124.69 -78.66c-22.23,-16.78 -13.96,-35.32 1.94,-60.1l235.38 -371.84c52.36,-82.73 104.26,-164.84 156.34,-247.05 29.93,-47.25 139.1,-214.31 156.44,-248.27 -38.32,-50.93 -64.78,-83.5 -82.61,-150.4 -29.75,-111.72 -3.22,-171.96 -6.72,-184.51 -3.43,-12.29 -45.08,-16.17 -12.19,-67.27l90.17 -142.48c21.19,-34.03 30.09,-34.99 67.4,-16.89 7.27,-2.97 7.57,-3.78 15.65,-9.23 74.13,-50.08 166.64,-73.55 259.85,-62.17 194.01,23.69 330.93,186.84 334.13,371.75 0.19,10.75 -6.02,79.1 -5.66,80.11 5.94,16.7 48.84,15.03 14.75,68.14l-89.96 141.83c-21.31,34.25 -29.99,37.51 -66.55,17.67z"/>
 </g>
</svg>
