<?xml version="1.0" encoding="UTF-8"?>
<!DOCTYPE svg PUBLIC "-//W3C//DTD SVG 1.1//EN" "http://www.w3.org/Graphics/SVG/1.1/DTD/svg11.dtd">
<!-- Creator: CorelDRAW 2017 -->
<svg xmlns="http://www.w3.org/2000/svg" xml:space="preserve" width="73.6598mm" height="37.4226mm" version="1.1" style="shape-rendering:geometricPrecision; text-rendering:geometricPrecision; image-rendering:optimizeQuality; fill-rule:evenodd; clip-rule:evenodd"
viewBox="0 0 7365.98 3742.26"
 xmlns:xlink="http://www.w3.org/1999/xlink">
 <defs>
  <style type="text/css">
   <![CDATA[
    .fil0 {fill:#8B9E93}
   ]]>
  </style>
 </defs>
 <g id="Capa_x0020_1">
  <metadata id="CorelCorpID_0Corel-Layer"/>
  <path class="fil0" d="M353.82 1175.68c0,63.48 75.28,35.1 75.28,86.06l0 86.05c-224.45,-5.01 -231.35,-441.02 204.38,-441.02 523.15,0 642.39,621.02 400.9,863.42 -89.86,90.19 -196.62,134.28 -357.86,147.69l0.36 -839.38c1.73,-104.98 12.29,-96.44 -97.17,-96.44 -67.05,0 -103.13,28.4 -144.8,59.58 -38.56,28.84 -81.09,73 -81.09,134.04zm1355.33 -322.7c83.71,0 96.51,-45.38 189.2,-68.95 65.78,-16.75 158.07,7.24 208.79,-17.1 -50.6,-75.58 -220.63,-38.29 -288.68,-19.77 -60.12,16.36 -107.52,25.03 -109.31,105.82zm4625.35 -365.72c0,67.03 57.42,229.31 96.81,258.16 37.35,-70.59 21.5,-182.92 21.5,-301.19 0,-34.96 -9.31,-8.12 -21.5,-53.78 -52.83,12.31 -96.81,31.58 -96.81,96.81zm301.19 387.24c28.45,-20.85 28.89,-53.79 75.28,-53.79 54.79,0 71.93,18 132.4,-7.3 135.11,-56.53 65.52,-292.37 -129.91,-97.77 -41.22,41.05 -77.77,79.54 -77.77,158.86zm-64.54 -279.67c-29.82,16.43 -22.78,-9.35 -37.06,37.31 -9.44,30.9 -5.97,57.25 -5.97,91.76 31.92,-21.37 33.93,-28.08 58.34,-59.97 46.16,-60.33 156.78,-141.12 156.78,-219.7 0,-130.87 -159.48,-57.02 -188.62,93.38 -5.07,26.11 -9.62,8.45 0.4,35.28 14.63,39.1 -4.52,-40.34 16.13,21.94zm-354.97 1850.13c55.99,-116.69 34.6,-126.76 -21.52,-139.84 -48.35,35.42 -36.98,111.55 -118.32,118.32 2.82,-126.61 111.32,-129.08 182.86,-129.08 12.46,-52.04 32.09,-86.05 -64.54,-86.05 -210.83,0 -325.1,322.7 -150.59,322.7 48.87,0 56.1,-22.97 86.05,-43.03 25.04,93.79 92.52,29.54 118.59,27.4 28.01,-2.29 24.12,15.63 53.52,15.63 62.3,0 46.67,-204.91 182.85,-236.65 0,45.27 4.53,43.46 -10.74,75.3 42.19,-9.83 67.52,-31.87 86.38,-64.79 30.41,-53.11 17.36,-64.83 -11.1,-107.32 -52.16,4.35 -78.62,32.79 -118.31,53.79 -22.83,-47.58 -2.76,-50.14 -64.54,-64.54l-91.62 209.57c-17.05,40.13 -10.17,44.53 -58.97,48.59zm-1903.93 -215.14c0,-73.76 35.22,-84.27 86.05,-118.32 30.85,20.66 118.37,121.22 129.08,161.35 -20.9,31.2 -76.77,66.8 -125.3,60.54 -53.81,-6.95 -89.83,-48.14 -89.83,-103.57zm64.54 -311.94c0,-69.02 80.65,-51.79 118.32,-43.01 16.56,71.05 27.67,91.04 -64.54,139.82 -13.17,-19.68 -53.78,-71.07 -53.78,-96.81zm-75.3 0c0,99.56 37.82,80.04 53.78,139.84 -84.93,56.88 -129.08,71.59 -129.08,193.62 0,92.63 91.51,150.59 204.38,150.59 80.85,0 113.67,-43.37 161.35,-75.3 20.18,30.14 46.37,64.71 86.05,75.3 21.7,-15.89 34.99,-34.42 43.03,-64.54 -58.68,-39.29 -46.75,-27.36 -86.05,-86.05 12.76,-14.68 14.61,-16.6 25.21,-39.52 51.53,-111.47 6.11,-85.5 -57.48,-100.32 -2.74,32.98 -10.2,51.71 -21.52,75.3 -26.37,-17.67 -87.47,-94.13 -96.81,-129.08 49.9,-13.32 107.57,-92.72 107.57,-129.08 0,-176.06 -290.43,-168.5 -290.43,-10.76zm-1301.54 -1688.78c0,86.16 8.22,63.32 43.02,129.08 -14.02,20.92 -58.22,76.2 -77.63,94.47 -25.99,24.47 -68.05,58.21 -105.23,66.88 0,-54.67 10.76,-49.07 10.76,-96.81 0,-40.52 -7.09,-20.34 -10.76,-64.54 -38.8,3.23 -35.52,4.75 -56.21,29.84 -36.19,43.92 -75.48,125.73 -137.41,142.27 21.81,-93.63 25.38,-156.56 96.81,-204.38l12.07 42.61 30.96 0.42c4.15,-17.87 69.58,-129.08 -75.3,-129.08 -141.72,0 -281.97,376.48 -86.05,376.48 84.78,0 86.21,-89.8 139.83,-129.08 4.48,53.84 22.51,76.44 32.27,118.32 85.89,-20.01 143.05,-115.26 201.56,-174.93 28.72,-29.3 32.63,-47.18 78.12,-50.96 43.27,90.19 -21.52,128.99 -21.52,268.92 0,126.45 173.97,153.31 244.36,7.56 30.62,-63.4 39.17,-139.92 -50.74,-147.4 -26.16,109.3 21.52,58.41 21.52,96.81 0,71.54 -36.38,64.54 -75.3,64.54 0,-116.76 121.97,-288.59 16.42,-339.1l-123.99 -37.38c0,-105.17 25.13,-115.71 -43.02,-161.35 -35.96,19.02 -64.54,40.93 -64.54,96.81zm-1667.29 419.51c25.59,109.83 129.08,115.41 129.08,-64.54l43.17 75.15c120.4,268.31 -247.54,324.51 -247.54,21.66 0,-47.28 34.31,-89.4 64.71,-108.66 65.64,-41.62 64.37,-13.64 64.37,65.63 -20.44,1.7 -37.67,4.51 -53.79,10.76zm21.52 -473.29c0,151.83 1.44,226.16 75.29,365.72 -67.51,-5.62 -13.34,-21.51 -118.32,-21.51 -48.34,0 -201.3,173.41 -60.21,382.91 117.43,174.34 404.42,50.62 404.42,-200.05 0,-120.63 -81.2,-226.82 -125.53,-315.48 -38.07,-76.13 -132.74,-265.04 7.21,-297.65 -27.61,41.23 -51.73,38.63 -47.34,103.17 7.3,106.94 154.91,157.59 154.91,-38.63 0,-75.02 -115.6,-232.95 -245.4,-94.8 -27.22,28.96 -45.03,62.75 -45.03,116.32zm4345.68 2387.96c-33.13,0 -75.12,-22.24 -80.46,-48.92 -13.62,-68.15 35.74,5.89 80.46,5.89 48.87,0 56.1,-22.97 86.05,-43.02 -3.69,44.28 -41.25,86.05 -86.05,86.05zm-387.24 -118.32l0 0zm430.26 -32.27c14.21,-61.02 68.01,-104.1 129.08,-118.33 -12.68,54.43 -67,113.16 -129.08,118.33zm-430.26 32.27c1.19,53.5 22.22,90.99 65.67,93.92 42.6,2.85 77.97,-42.59 106.43,-61.65 7.67,32.89 16.74,41.34 32.27,64.54 42.47,0 43.65,-3.39 75.3,-10.76 26.35,54.92 29.42,111.4 118,109.05 154.2,-4.1 280,-368.29 280,-410.24 -30.07,-20.14 -32.79,-17.02 -64.54,-32.27 -33.06,24.22 -17.36,-6.92 -21.52,43.03l-21.51 0c-36.53,-136.81 -247.32,84.97 -258.16,215.13 -52.47,-4.36 -55.19,-20.4 -12.47,-98.44 24.83,-45.33 44.74,-59.24 44.74,-127.45 -28.51,-15.08 -31.28,-20.53 -75.3,-21.51 -38.29,79.83 -67.35,193.24 -161.35,215.13 1.65,-74.03 33.16,-78.41 54.98,-129 37.55,-87.02 -20.27,-75.07 -65.73,-96.89 -16.58,34.56 -72,175.39 -75.3,215.14 -51.05,-80.46 40.87,-47.35 -140.15,-118.02 -137.26,-53.59 1.45,-122.86 75.61,-140.14 0,68.51 11.67,91.52 75.3,96.81 20.87,-78.21 53.78,-38.28 53.78,-172.11 -72.19,-48.34 -93.25,-38.05 -181.77,-9.65 -92.75,29.75 -263.03,135.28 -209.76,261.21 19.17,45.31 129.61,55.59 187.15,60.38 -3.23,38.78 -2.02,37.77 -37.45,48.66 -122.63,37.71 -192.58,-51.9 -220.71,-59.41 -100.63,73.73 -8.37,240.57 258.53,140.2 68.23,-25.66 68.97,-42.85 117.96,-75.66zm-3097.91 -1559.71c-54.66,0 -66.36,-150.59 118.32,-150.59 -13.35,57.35 -54.11,150.59 -118.32,150.59zm64.54 -344.21l52.05 -173.84c23.61,-59.34 50.49,-105.92 98.54,-138.1 44.32,83.77 15.9,137.78 -33.66,203 -27.78,36.56 -70.05,96.42 -116.93,108.94zm-118.32 -10.75c-51.14,13.64 -68.91,50.51 -129.08,64.54 0.78,-35.09 12.71,-88.86 22.82,-117.01 25.06,-69.71 30.96,-46.21 30.96,-141.15 0,-22.32 -31.47,-53.79 -43.03,-53.79 -130.33,0 -38.98,128.41 -153.55,265.96 -23.52,28.25 -38.23,53 -83.09,56.74 -0.93,-41.37 -12.84,-50.73 -8.42,-93.78 12.63,-123.13 73.3,-214.54 -34.61,-239.67 -65.58,43.91 -53.89,106.49 -65.47,203.47 -8.88,74.36 -27.36,143.29 43.96,205.28 108.26,-9.01 122.42,-99.31 193.62,-118.32 0,99.69 4.44,71.45 43.02,129.07 48.52,-11.3 72.92,-25.53 105.04,-56.31 38.47,-36.88 44.51,-43.26 88.58,-72.76 44.8,192.25 202.44,-2.26 215.14,-10.76 -12.17,146.24 -59.75,118.51 -129.38,150.28 -292.62,133.54 -6.17,409.09 129.75,215.8 71.04,-101.04 51.9,-128.21 129.8,-139.1 51.33,-7.18 171.01,-30.21 171.01,-97.9 0,-60.06 12.5,0 -172.1,0 -83.08,0 10.75,-151.5 10.75,-279.67 0,-32.22 -16.51,-21.95 -26.31,-48.99 -11.32,-31.21 -2.94,-46.36 -6.79,-79.26 -15.71,-134.56 -332.62,-119.63 -332.62,257.33zm-537.84 1118.69c0,-123.52 258.16,-138.46 258.16,-64.54 0,133.33 -258.16,138.88 -258.16,64.54zm-161.35 -398c0,123.3 139.5,119.6 212.41,51.06 94.87,-89.18 196.35,-43.11 196.35,34.99l0 53.79c-708.83,0 -525.9,593.05 -92.69,466.64 44.11,-12.87 51.29,-26.74 92.69,-36.39 64.55,43.24 72.49,64.54 172.1,64.54 51.76,0 118.33,-29.5 118.33,-75.28 0,-66.4 -87.57,-25.25 -86.52,-182.42 1.45,-214.94 50.97,-538.28 -289.97,-538.28 -111.43,0 -322.7,48.6 -322.7,161.35zm4668.38 1979.21l0 505.56 268.92 0 0 -505.56c0,-50.1 204.44,-396.98 236.1,-452.31 30,-52.42 60.46,-94.83 75.83,-160.82l-182.85 0 -192.37 356.23c-22.08,37.29 -0.92,30.2 -44.28,41.77 -9.63,-36.11 -36.42,-62.79 -53.94,-96.66l-100.15 -201.04c-21.24,-39.84 -40.59,-61.64 -61.04,-100.3l-258.16 0c17.25,74.07 311.94,553.92 311.94,613.13zm-2495.53 -2022.24c0,113.31 76.87,76.08 111.85,135.54l77.14 181.02c33.22,79.8 144.45,290.5 144.45,371.86 0,90.36 -49.47,129.08 -129.08,129.08 -34.97,0 -49.42,-44.04 -68.72,-71.1 -84.51,-118.5 -210.95,-28.6 -210.95,60.34 0,259.65 403.23,282.72 529.5,77.72 96.46,-156.59 246.65,-709.74 284,-759.4 50.19,-66.76 100.82,-13.12 100.82,-146.57 0,-78.51 -186.76,-53.78 -290.43,-53.78 -87.09,0 -116.79,104.65 0,182.86l-52.42 151.96c-19.36,53.59 -41.62,101.9 -55.15,159.97 -23.01,-26.47 -54.44,-108.88 -69.21,-145.91 -22.68,-56.88 -46.02,-106.58 -59.87,-166.02 77.77,-20.76 192.23,-193.62 -96.81,-193.62 -87.39,0 -215.12,2.22 -215.12,86.05zm-1333.83 258.15c0,-233.37 322.7,-243.66 322.7,-10.74 0,66.48 0.45,123.71 -50.71,175.17 -111.65,112.28 -271.99,16.79 -271.99,-164.43zm215.14 -548.58c0,36.51 10.99,48.88 31.62,65.17 16.06,12.68 46.16,29.67 65.19,42.4l0 161.35c-97.09,-65.01 -86.35,-96.81 -215.14,-96.81 -146.5,0 -279.67,182.12 -279.67,365.73 0,119.81 8.44,224.53 89.03,319.7 26.18,30.91 48.46,55.95 86.15,75.21 145.57,74.4 230.32,19.86 319.63,-39.94 86.15,117.58 342.66,99.1 303.56,-23.94 -24.38,-76.72 -70.9,2.87 -95.14,-163.05l6.71 -802.63c0,-171.67 -217.38,-7.04 -267.92,33.27 -20.92,16.69 -44.02,27.58 -44.02,63.54zm559.34 559.35c0,-54.93 11.93,-100.91 38.52,-133.59 27.67,-33.99 60.15,-59.7 116.36,-64.02 211.62,-16.24 241.34,391.22 -4.28,391.22 -88.54,0 -150.6,-100.45 -150.6,-193.61zm193.62 -548.59c32.74,61.86 16.08,32.74 71.03,68.81 74.61,48.98 40.72,139.11 36.54,189.35 -97.09,-65.01 -86.36,-96.81 -215.13,-96.81 -151.37,0 -279.68,198.16 -279.68,354.97l0 86.04c0,208.26 190.44,425.36 408.92,333.63 42.37,-17.79 53.11,-32 85.89,-53.94 196.94,171.18 406.67,18.29 258.71,-75.84 -63.38,-40.32 -43.74,-71.62 -43.59,-171.56 0.36,-235.95 22.77,-627.49 -21.5,-817.51 -88.67,0 -126.44,19.61 -181.08,55.56 -59.37,39.05 -86.97,64.68 -120.11,127.3zm-1635.01 1409.11c-57.23,0 -95.74,-49.33 -109.08,-96.52 -25.42,-90.03 31.24,-81.85 66.05,-129.37 -69.42,16.18 -139.83,41.31 -139.83,129.08 0,93.92 61.06,163.97 120.04,202.65 210.86,138.32 573.92,52.36 697.46,-181.14 27.73,20.32 52.3,66.54 78.93,93.18 13.25,13.25 30.94,24.86 47.56,38.51 244.27,200.67 701.78,132.87 701.78,-163.96 0,-78.77 -65.58,-112.14 -139.84,-118.32 22.56,30.8 75.3,45.09 75.3,96.81 0,46.63 -91.68,235.24 -219.63,47.52 -76.98,-112.96 -195.59,-262.65 -350.48,-262.65 -95.36,0 -129.02,62.63 -193.62,96.81 -108.65,-94.44 -172.39,-141.65 -337.23,-46.8 -121.18,69.72 -214.89,294.2 -297.41,294.2zm3829.36 1237.01l-64.54 0 0 -247.4c108.6,0 215.13,22.23 215.13,129.08 0,80.55 -71.43,118.32 -150.59,118.32zm-10.76 -613.12l-53.78 0 0 -204.38c255.62,0 216.98,204.38 53.78,204.38zm-301.18 -139.84c0,61.07 -164.25,63.26 -70.89,199.97 19.64,28.75 21.18,25.23 38.62,58.19 -108.21,57.25 -80.33,148.35 -19.35,191.45 65.79,46.51 51.62,9.59 51.62,206.54 0,38.71 -107.57,74.08 -107.57,139.84 0,147.08 213.13,118.32 333.46,118.32 582.59,0 473.24,-407.39 333.35,-494.7 -90,-56.15 -198.6,-64.64 -311.84,-64.64l0 -75.3c83.02,0 184.04,-20.07 240.45,-49.98 37.82,-20.05 56.66,-36.02 78.35,-72.24 87.05,-145.42 12.56,-296.92 -159.8,-337.96 -66.79,-15.9 -122.45,-13.44 -202.17,-12.97 -81.62,0.5 -119.68,-10.9 -204.23,-10.9l0 204.38zm-1699.54 752.96l-64.54 0 0 -247.4c317.45,0 259.02,247.4 64.54,247.4zm-21.53 -613.12l-43.01 0 0 -204.38c86.17,0 182.86,23.66 182.86,107.57l0 10.75c0,47.5 -82.74,86.06 -139.85,86.06zm-397.98 -236.65c0,144.99 107.56,23.38 107.56,258.16 0,138.23 -43.76,84.26 -88.45,148.76 -43.38,62.57 12.34,123.07 56.18,152.42 -17.79,26.58 -75.29,80.86 -75.29,118.33 0,90.62 96.81,63.23 96.81,150.59l0 182.86c160.22,0 391.73,9.19 530.72,-50.14 182.19,-77.76 260.03,-446.27 -131.97,-499.2 -153.11,-20.67 -140.59,11.38 -140.59,-85.3 215.53,0 390.4,-75.3 343.4,-300.11 -46.84,-224.14 -541.67,-202.76 -631.01,-159.6 -20.28,9.79 -28.65,15.18 -41.83,33.48 -3.67,5.11 -25.53,49.56 -25.53,49.75zm1226.24 806.75c-154.81,0 -186.94,-166.76 3.28,-254.88 56.08,-25.98 167.43,-57.07 244.13,-57.07 0,136.28 15.86,175.09 -85.74,247.73 -35.3,25.21 -101.65,64.22 -161.67,64.22zm-204.37 -537.83c54.25,4.51 90.55,10.75 161.35,10.75 4.53,-54.38 63.44,-193.62 150.59,-193.62 144.66,0 153.96,183.66 129.08,290.43 -134.8,31.4 -257.73,48.62 -376.78,96.52 -362.24,145.72 -207.27,538.12 21.81,538.12 267.72,0 274.7,-132.67 365.73,-193.62 56.22,241.31 266.38,194.71 408.75,182.87 71.48,-306.79 -144.74,-80.68 -151.02,-354.55 -3.11,-136.09 11.18,-237.78 11.18,-376.9 0,-529.7 -710.01,-479.12 -720.69,0zm2570.84 -1161.72c41.03,-9.56 45.01,-22.71 86.04,-32.27 13.42,57.56 104.03,218.8 136.26,283.26l276.09 562.93c39.71,79.44 117.13,211.95 136.24,294.01 -41.03,9.57 -45.01,22.72 -86.05,32.27l-276.08 -562.93c-48.5,-96.99 -87.65,-186.06 -136.26,-283.25 -32.52,-65.06 -128.15,-230.91 -136.24,-294.02zm-129.08 -53.77c-81.31,0 -122.06,4.8 -200.2,-25.71 -43.71,-17.06 -78.82,-28.38 -90.23,-71.1l645.39 -311.96c0,235.79 -189.22,408.77 -354.96,408.77zm-408.75 -139.85l-64.54 -150.58 577.18 -283.34c68.7,-34.64 132.29,-58.75 197.3,-93.15l75.5 150.48c-22.86,12.1 -736.83,372.55 -785.44,376.59zm-43.03 -258.15c2.46,-110.46 53.98,-206.3 109.02,-267.46 179.67,-199.64 472.38,-140.05 536.37,-44.48l-476.88 233.05c-45.89,22.96 -123.69,68.44 -168.51,78.89zm-118.32 86.04c0,33.49 111.63,254.2 123.93,264.01 54.16,43.21 14.45,-21.23 85.05,20.96 70.7,42.24 32.59,47.72 165.9,93.13 79.98,27.23 131.95,19.9 238.25,19.9 8.25,30.93 20.88,40.79 36.09,71.48l412.23 846.29c42.37,84.68 97.65,252.76 164.8,297.73 48.9,-11.4 175.41,-80.97 215.13,-107.57 -2.89,-34.86 -116.8,-266.04 -139.82,-311.94l-451.8 -925.07c59.91,-40.1 102.92,-114.25 132.46,-190.24 48.46,-124.64 18.49,-155.63 31.98,-204.67 19.6,-71.32 73.04,9.53 -35.36,-207.45 -105.48,-211.17 -40.3,-54.38 -174.55,-148.15 -23.03,-16.09 -39.38,-29.06 -65.44,-42.12 -254.87,-127.76 -658.16,-11.13 -704.41,418.33 -2.91,27.06 0.47,32.35 -8.31,56.23 -9.46,25.8 -26.13,18.45 -26.13,49.15zm-5926.9 -301.17c0,332.47 172.78,372.78 419.51,430.25 0,111.5 10.74,180.41 10.74,290.43 -52.82,27.95 -150.58,29.33 -150.58,107.57 0,66.21 21.33,90.7 71.47,111.39 168.61,69.54 668.13,25.47 834.98,-140.76 369.74,-368.37 253.09,-1272.18 -572.99,-1272.18 -164.35,0 -310.28,59.45 -411.1,126.74 -90.35,60.27 -202.03,201.3 -202.03,346.56z"/>
 </g>
</svg>
