<?xml version="1.0" encoding="UTF-8"?>
<!DOCTYPE svg PUBLIC "-//W3C//DTD SVG 1.1//EN" "http://www.w3.org/Graphics/SVG/1.1/DTD/svg11.dtd">
<!-- Creator: CorelDRAW 2017 -->
<svg xmlns="http://www.w3.org/2000/svg" xml:space="preserve" width="215.9mm" height="215.9mm" version="1.1" style="shape-rendering:geometricPrecision; text-rendering:geometricPrecision; image-rendering:optimizeQuality; fill-rule:evenodd; clip-rule:evenodd"
viewBox="0 0 21590 21590"
 xmlns:xlink="http://www.w3.org/1999/xlink">
 <defs>
  <style type="text/css">
   <![CDATA[
    .fil8 {fill:#050404}
    .fil5 {fill:#189C61}
    .fil1 {fill:#373538}
    .fil4 {fill:#3E4095}
    .fil7 {fill:#8B7692}
    .fil3 {fill:#B4B3B4}
    .fil6 {fill:#CD914C}
    .fil2 {fill:#E5E2E6}
    .fil9 {fill:#F4DE61}
    .fil0 {fill:#FDD1A2}
   ]]>
  </style>
 </defs>
 <g id="Capa_x0020_1">
  <metadata id="CorelCorpID_0Corel-Layer"/>
  <path class="fil0" d="M8595.27 9614.11l-101.59 359.22c30.32,35.72 36.52,50.16 37.96,134.94l-13.36 473.55c-16.81,266.61 -84.45,240 -245.47,365.74l-17.95 -50.74 -142.06 560.52 163.03 -97.84c50.97,-29.36 114.22,-66.71 169.15,-95.69 108.88,-57.44 239.77,-131.59 343.7,-188.1 357.42,-194.36 113.58,-632.96 222.42,-840.14 67.93,86.94 29.22,555.71 28.74,713.96 -0.8,259.34 10.71,509.89 13.66,766.58l1417.76 377.74c-38.85,-198.84 1.38,-736.43 -3.37,-980.32 -4.13,-211.65 -76.54,-821.73 39.56,-950.81 199.16,-112.93 1030.81,74.29 1325.78,-24.99l-7.09 72.49 288.64 -1052.71c-187.97,87.75 -344.73,463.72 -558.91,480.52 -85.11,6.68 -245.72,0.92 -331.01,-9.33 -303.82,-36.5 -1135.26,3.6 -1241.32,-34.19 -89.82,-32 -32.7,-11.82 -68.93,-38.91 32.96,-49.93 52.94,-44.39 110.08,-76.73 42.54,-24.08 51.66,-36.88 81.51,-60.35 184.85,-145.36 292.68,-329.34 248.87,-618.17 -118.16,-779.1 -1209.62,-651.71 -1258.83,37.92 -12.8,179.34 43.9,350.99 125.31,465.91 96.61,136.36 180.77,150.02 353.65,230.92 -11.99,96.88 -88.62,72.67 -194.27,74.08 -199.2,2.66 -648.37,-18.13 -758.43,47.66 -28.84,-20.04 -18.58,31.25 -27.23,-42.73z"/>
  <path class="fil1" d="M8165.26 12958.44l4505.33 -1089.12 479.58 1982.64 -4529.36 1083.55c-55.01,-319.17 -162.71,-673.53 -233.75,-983.51 -43.88,-191.48 -236.62,-859.16 -221.8,-993.56zm1274.69 -903.58c81.37,-19.26 235.22,36.8 299.98,70.1l-16.44 100.81 -303.21 -73.88 19.67 -97.03zm1637.99 -4935.02l-58.64 81.38 -91.6 -15.29c-20.21,-68.43 -29.65,-51.03 8.17,-110.65 0.06,-0.02 65.08,-106.8 142.07,44.56zm-3064.1 3969.59c-15.57,78.71 -41.98,124.58 -19.08,196.89 22.61,71.44 58.93,66.73 42.35,175.3 -21.46,140.56 -105.66,80.94 -198.14,215.92 15.92,417.28 257.35,452.08 718.18,567.12 154.99,38.69 932.92,232.55 1019.79,277.93l-1531.14 366.57 510.08 2152.94 4694.02 -1126.75 -508.04 -2150.37 -1172.04 275.31 674.14 -2522.29 101.92 -466.32c-91.65,-38.42 -96.04,-55.8 -135.05,-164.48l-29.06 -0.29 -66.99 270.6 -288.64 1052.71c-67.77,311.37 -171.86,627.83 -254.04,947.29 -80.02,311.07 -168.19,651.08 -246.02,942.2 -89.08,24.86 -337.14,98.15 -429.22,104.06 -51.9,3.33 -378.2,-85 -425.6,-109.92l-1417.76 -377.74 -940.7 -258.77 142.06 -560.52 238.82 -923.49 101.59 -359.22 733.68 -2728.2 3156.02 838.74c-22.56,285.79 -259.35,800.1 -250.42,1022.91 58.44,-40.52 49.2,-56.46 101.81,-87.3 75.05,-43.97 76.7,-12.3 141.43,-54.15 42.8,-91.02 124.45,-444.8 150.35,-559.52 48.4,-214.42 144.62,-374.88 17.58,-587.78 -78.24,-131.1 -292.31,-174.72 -493.29,-228.74 -181.69,-48.84 -373.45,-103.5 -565.57,-151.65 -375.2,-94.03 -759.63,-193.78 -1132.44,-299.88 -190.56,-54.24 -375.68,-98.28 -565.18,-150.06 -444.83,-121.52 -677.31,-195.67 -817.49,468.98 -41.42,196.39 -98.2,383.97 -152.83,562.31l-300.51 1153.74c-193.07,755.03 -425.04,1522.96 -604.57,2275.92z"/>
  <path class="fil2" d="M10691.93 14161.16c53.69,-55.96 -31.89,44.39 3.45,-26.3 0.5,-1 3.98,-5.55 4.53,-6.6 0.59,-1.13 4.54,-5.81 5.05,-6.97 4.2,-9.58 51.98,41.92 0.74,-26.98 -1.87,-2.51 -25.78,-15.15 -32.19,-17.49 41.48,-6.98 80.34,-8.33 112.57,-13.03l92.85 -20.16c34.93,-2.53 70.19,35.67 100.39,57.75l254.34 -80.74c-95.03,-44.26 -88.4,10.8 -246.42,34.74 62.62,-147.61 309.7,-33.26 319.53,-31.85 -14.49,-46.36 -24.55,-50.79 -20.5,-81.24 85.25,-31.32 260.88,-29.17 341.9,-84.43 -20.12,97.38 -33.45,52.79 -135.14,69.9 79.32,49.31 187.43,-1.73 276.55,-19.29l-286.57 88.08c-87.72,22.83 -184.9,42.82 -279.63,68.22 -118.74,31.85 -458.78,135.59 -572.94,123.64 -47.14,-81.07 -30.26,-64.12 -48.05,-155.49 -17.58,-90.28 -29.75,-95.32 -4.94,-156.2 -207.35,43.89 16.77,102.45 -14.92,332.16 -89.73,41.08 -1292.78,336 -1394.01,334.42 -15.09,-90.92 -57.03,-203.66 -52.21,-293.42l189.28 -68.6c-98.42,15.26 -117.77,45.79 -208.6,20.35 -45.1,-86.66 -38.86,-215.54 -85.89,-293.09 -15.71,23.66 -14.46,11.76 -7.12,60.73 13.98,93.36 55.79,168.73 50.64,265.57 -30.14,6.43 -62.19,12.04 -98.54,22.91l109.26 6.78c47.08,61.5 71.57,212.07 72.11,299.13 -125.31,26.53 -406.21,115.64 -516.1,104.97l-74.61 -292.67 241.37 -67.91c-100.21,7.82 -144.66,44.17 -227.97,33.09 -28.61,-71.41 -70.13,-169.08 -78.52,-257.27l-3.44 -56.08c-11.04,-69.64 -76.14,-190.07 -62.78,-291.64 46.88,-31.39 1304.14,-336.08 1415.62,-341.44l58.9 244.7c25.93,68.98 -34.73,38.91 43.59,52.1 75.91,-74.08 9.67,50.9 15.05,-37.87 0.25,-4.14 -6.3,-37.56 -8.08,-43.69l-61.46 -239.53 784.06 -178.14c22.01,57.62 34.97,117.85 49.04,178.69 25.1,108.52 38.73,103.81 -29.38,130.87l130.93 -40.12c-78.73,-36.92 -96.87,-198.64 -108.8,-294.54 187.98,-34.76 345.6,-72.56 524.83,-118.79 124.42,-32.1 269.97,-77.97 392.04,-86.87 52.12,-3.8 -26.09,15.44 50.13,-5.21 5.35,-1.45 34.68,-13.74 40.62,-16.09 209.91,-83.02 791.84,-195.82 1044.34,-261.27 -21.89,163.67 120.31,466.16 134.48,637.94l-278.82 77.45c113.94,-15.29 189.43,-48.24 300.77,-64.95l56.91 317.69c-88.55,12.35 -196.23,36.42 -276.98,60.37l-866.38 207.79c45.52,-45.68 107.17,-55.55 169.39,-67.91l166.57 -52.18c-65.72,-21.57 -51.7,-3.6 -151.03,20.5 18.01,-104.08 128.41,-48.96 232.26,-97.81l43.01 -14.81c2.39,-0.31 9.03,-0.8 11.65,-1.09l62.83 -5.95c34.45,45.7 -22.43,29.9 -9.22,67.96 85.63,-17.38 184.58,-24.53 244.89,-92.06l-147.41 34 -34.75 -65.56c80.72,29.04 168.23,17.33 266.82,-16.88 5.21,-1.81 10.65,-4.06 15.63,-5.98l64 -27.16c24.24,-6.05 57.42,-1.66 77.56,3.6 -33.49,50.62 11.92,5.17 -54.2,35.06 -43.57,19.68 -91.61,21.83 -147.77,66.81l299.18 -73.86c2.91,-80.09 -26.06,-151.06 -35.16,-233 -6.05,-2.55 -13.78,-5.15 -18.7,-6.2 -123.09,-26.25 -896.8,196.72 -1012.12,221.72l-1004.06 255.96c22,1.81 70.78,-4.57 77.64,-3.72 5.69,0.71 12.15,1.92 17.43,2.91l36.84 12.74c3.86,-5.99 13.49,4.77 19.48,8.57 -43.08,65.19 -72.27,63.6 -249.25,104.18l-137.78 39.21c-17.96,-53.44 -13.97,-82.09 -20.6,-114.86 -28.19,47 -23.64,239.44 81.99,251.73zm-1904.22 -1156.55c54.48,2.99 11.67,-18.11 44.81,15.33 -31.62,115.47 -34,55.54 -8.92,180.77l-290.83 3.23c24.87,-64.43 25.93,-70.12 109.36,-101.85 36.37,27.54 47.09,42.48 100.92,63.54 -4.45,-73.22 20.94,-39.42 -42.18,-77.8 -111.29,-21.25 -21.87,-29.84 -97.46,-29.28 -69.44,0.52 -47.64,10.2 -88.37,49.38 -38.71,31.25 -24.6,21.08 -51.7,56.68l29.95 85.07c86.03,-5.1 324.56,37.75 369.69,-22.77 -15.48,-47.74 -6.19,-0.14 -2.59,-52.38l4.82 -32.26c0.26,-6.55 0.37,-11.56 0.39,-18.56 0.15,-47.92 -7.19,-67.85 -2.55,-126.19 81.21,19.67 32.23,20.27 120.22,63.41 -35.85,70.7 -38.46,93.42 -62.42,171.89l4.49 54.73c-65.58,30 -72.35,12.74 -103.68,73.92l-33.46 -48.5 -293.51 -30.89 15.47 90.59 -101.03 25.12c-9.6,-51.06 -7.92,-14.38 -0.63,-61.48 1.27,-8.18 10.97,-28.22 18.68,-70.39l-71.33 -11.85c-35.02,-8.04 -23.2,-5.59 -51.54,-29.14 12.69,-111.63 59.35,-3.59 67.41,-149.37 2.89,-52.18 -26.88,-72.19 126.23,-80.51 104.32,-14.09 -9.5,66.17 62.09,-36.52l-19.97 -0.78c170.37,39.28 140.28,-20.65 151.98,-57.33l95.66 104.19zm1590.87 -176.73c210.76,27.1 123.64,-10.71 251.76,-33.33 -30.54,101.02 14.36,50.08 -73.79,90.83 -27.09,12.52 -0.02,-5.04 -50.32,17.86 -4.56,2.08 -13.18,15.77 -16.46,10.85 -3.47,-5.2 -11.35,8.01 -16.61,12.55l210.86 -50.09c14.83,67.31 1.25,76.93 -79.69,93.34 -202.03,40.97 -16.06,-32.04 -176.38,54.26l-16 -106.12c-12.7,-42.5 -24.41,28.62 -33.37,-90.15zm-770.1 62.6c45.22,-66.16 14.74,-48.9 117.87,-76.3 56.11,-14.91 104,-26.26 163.11,-27.25 0.66,179.67 -96.72,-15.98 -55.86,180.77 25.34,121.98 60.09,96.91 17.92,177.52 -117.1,15.99 -88.33,-125.52 -128.86,-242.99 -125.85,18.73 -44.21,30.45 -123.51,51.72 -80.72,21.64 -46.17,-17.15 -145.2,14.19l-7.94 35.21c-7.65,74.91 9.31,97.8 37.77,147.71l102.67 -20.76c-60.24,-116.13 -24.16,34.07 -63.43,-97.5l130.98 -22.44c83.77,237.36 -127.69,267.21 -289.08,175.04 -18.06,108.44 -96.08,132.26 -229.03,113.77 -63.8,-65.31 -95.78,-172.93 -75.74,-287.1 10.27,-20.38 136,-130.03 260.42,-29.26 2.97,2.4 9.64,16.06 11.73,12.25 2.12,-3.88 7.59,8.68 11.47,12.95 23.58,-124.34 155.19,-180.36 264.71,-117.53zm376.66 88.46c-23.95,-115.87 -69.24,-103.43 -0.63,-176.56 3.79,2.36 8.16,7.71 9.32,9.61l18.52 54.42c0.31,-2.67 0.77,8.43 3.15,11.69 12.52,-87.89 -3.09,-32.11 61.39,-83.55 14.54,79.2 -29.62,64.76 41.1,47.94 11.83,97.92 -3.87,17.57 20.6,73.7 68.69,-16.86 104.19,-31.77 158.02,-46.08 88.11,-23.42 62.46,22.45 79.94,67.73 -99.54,-1.51 -130.54,4.38 -193.72,57.83 100.97,9.22 43.6,-43.48 55.26,71.57 -144.8,41.74 -122.41,3.13 -213.82,25.92 -37.94,-131.67 -5.11,7.14 12.17,-70.77 8.41,-37.94 31.21,6.96 -8.21,-43.45 20.67,-77.06 -3.09,-0.28 -4.64,-0.24 -2.04,0.05 4.05,96.47 -22.58,0.6 -1.46,-5.25 -10.7,0.78 -15.87,-0.36zm1451.03 -282.01c-9.64,84.09 42.16,46.89 -50.03,82.5 -2.82,1.09 -59.93,9.05 -100.31,42.31l-32.54 -88.69c111.69,-19.22 -13.47,30 182.88,-36.12zm-1153.49 77.02c4.2,-2.08 9.99,-4.66 12.94,-5.46 3.11,-0.85 9.97,-3.81 13.99,-4.74 47.25,-11.03 71.04,1.75 141.46,-39.23 30.92,-17.99 6.64,42.6 23.83,-16.02 1.8,-6.15 8.07,-5.85 12.48,-8.96l20.85 74.41c-270.99,75.82 -220.32,87.01 -225.55,0zm528.81 -138.64c75.76,4.21 52.03,-10.34 92.38,-15.01 60.45,-7.01 9.35,-14.81 56.3,10.16 -9.4,35.96 9.27,36.27 -59.82,57.78l-339.15 75.7 -24.7 -51.49 274.99 -77.14zm1400.62 -22.4c27.21,-160.24 21.55,-77.27 36.49,-77.77l308.65 -68.78c35.9,60.48 46.5,57.52 84.69,74.66l22.96 7.44c-29.52,79 -162.61,75.24 -251.14,108.59 -53.04,-34.68 -20.64,-10.01 -61.49,-77.62 -105,24.86 -70.61,-9.83 -140.16,33.48zm341.99 -573.33c70.93,41.94 110.8,209.65 70.31,289.71 -41.73,82.5 -179.35,99.84 -245.85,15.53 98.23,-55.44 72.51,-13.28 141.49,-14.36 8.95,-14 27.99,-3.49 20.17,-92.37 -362.99,150.06 -220.89,-337.33 13.88,-198.51zm-461.98 222.51c87.56,-28.11 215.48,-64.68 220.34,82.28 3.31,100.42 -122.22,179.51 -225.35,120.77 -174.96,-99.66 -76.95,-498.14 160.68,-326.66 -77.53,132.87 -153.46,-87.19 -155.67,123.61zm-3926.86 696.35c-14.82,134.4 177.92,802.08 221.8,993.56 71.04,309.98 178.74,664.34 233.75,983.51l4529.36 -1083.55 -479.58 -1982.64 -4505.33 1089.12z"/>
  <path class="fil3" d="M8588.2 14401.35l408.57 -102.71c23.66,0.91 6.51,0.03 34.08,4.56 5.11,0.84 12.79,3.56 16.93,4.42 4.2,0.87 11.52,2.83 17.01,5.03 8.45,91.77 43.74,143.75 42.23,236.92 -48.74,5.91 -79.63,27.44 -119.98,26.59 -86.77,-1.84 -14.61,-14.53 -57.93,-67.77 -39.92,27.14 -49.63,90.99 -61.49,97.7 -230.36,29.44 -249.46,128.16 -279.42,-204.74zm-86.32 -331.34l484.01 -124.38c1.14,66.02 10.72,89.3 23.4,147.13 17.28,78.86 19.18,79.48 -3.1,125.46l-111.66 -5.24c56.35,-38.48 28.74,-1.82 42.11,-37.16 -30.05,-12.03 -21.47,-21.3 -78.08,4.83 -67.87,31.33 -40.12,-1.92 -16.47,79.66l-288.73 68.64c-8.52,-43.23 -51.08,-231.42 -51.48,-258.94zm1302.91 -651.09c32.62,41.48 61.63,202.64 59.75,257.51l-566.47 139.62c-14.28,-44.32 1.65,-20.49 7.03,-37.77 11.72,-37.58 53.02,-50.11 -28.01,-36.68l-177.74 29.66c24.14,55.43 -1.71,16.85 60.04,30.63l97.58 30.47c-183.14,-4.78 -551.12,148.84 -768.66,167.08l-11.54 -72.65c54.07,53.99 -4.85,29.53 77.69,27.2 28.43,-0.81 94.47,-18.58 100.37,-20.08 13.68,-3.49 85.94,-24.05 95.9,-28.02 89.02,-35.53 47.99,-57.61 81.75,-28.76 -57.64,-54.41 -62.71,-21.66 -135.28,-1.96 -60.56,16.44 -39.9,9.37 -90.32,18.3 -17.07,3.02 -59.52,11.56 -70.22,12.58 -26.6,2.54 -28.75,5.43 -48.31,-6.86 -18.56,-11.68 -4.88,33.99 -41,-51.91 -41.82,-99.46 -15.08,-95 65.24,-113.89 -5.74,3.7 -26.29,23.72 -28.87,29.44 -47.31,105.11 8.68,85.57 14.93,94.11 4.18,-5.8 8.52,-13.19 10.25,-18.85 12.75,-41.9 26.17,-46.9 -9.73,-112.29l1305.62 -306.88zm1256.21 278.85c61.61,60.47 -13.07,12.09 58.61,42.93l34.42 8.94c3.79,1.06 10.81,-0.26 16.05,0.86l-395.77 88.31c-47.83,-53.34 -23.41,54.8 9.53,-15.48 32.28,-68.89 41.41,33.99 10.59,-34.43 -488.91,127.92 -264.26,53.8 -446.25,26.16 37.14,73.44 -39.51,-1.89 51.04,50.79l34.75 12.67c-3.64,0.57 -74.23,10.94 -77.76,12.34 -75.24,29.76 -26.97,2.07 -70.92,45.56l147.6 -11.67c-41.8,14 -58.21,15.67 -102.69,24.06l37.49 5.52c86.97,4.69 65.41,-11.19 134.48,8.56 14.44,82.46 41.38,168.27 31.6,232.57l-374.79 94.23c-196.28,-9.79 153.31,-102.79 -285.72,6.71 -249.02,62.11 -177.07,28.47 -166.91,10.35 -7.44,9.14 -87.05,-25.93 -5.23,46.68 34.07,30.23 -29.89,-14.26 23.54,11.31l-114.91 -10.71c-36.36,12 -63.91,18.92 -101.66,29.09l-100.93 26.15c-119.09,31.45 -106.1,28.51 -196.93,19.39 -7.1,88.45 11.86,47.35 66.21,78.34 -105.86,12 -85.34,-1.26 -113.6,-124.03 -21.09,-91.63 -52.4,-122.05 41.23,-124.85 -3.67,2.76 -7.66,4.46 -8.21,11.04 -0.8,9.55 -10.53,21.06 -11.01,26.59 -7.31,83.05 -6.47,29.76 10.84,77.02 8.1,-2.78 18.72,-16.57 23.59,-10.22l78.6 -35.7c24.22,-5.85 -13.35,9.51 62.99,9.44l182.31 -86.41c-25.36,-19.35 -14.49,-30.82 -120.15,-25 -79.49,4.38 46.23,2.51 -51.62,7.45l-47.4 -2.95c96.09,-44.93 65.26,-39.49 171.13,-34.77l-76.82 -42.97c-0.62,-1.2 -1.19,-6.44 -1.47,-7.7l-227.91 28.98c22.06,-17.74 56.66,-26.67 77.28,-35.76 28.95,-12.75 42.52,-10.41 88.37,-65.95l-47.53 -7.33c-3.17,0.16 -10.24,0.46 -13.56,0.88 -25.06,3.15 -23.32,21.79 -152.3,30.05 -4.9,66.61 -5.93,49.91 42.25,81.56 -94.83,2.63 -67.37,24.58 -91.03,-88.3 -40.54,-193.49 -46.41,-122.57 0.67,-158.61l-5.16 94.15 128.2 -24.94c92.14,-17.58 -82.36,-2.41 29.02,-2.14 73.72,0.17 172.1,-25.16 208.29,-95.13l-97.26 -11.72c-32.84,3.48 -75.83,15.7 -113.32,11.72 110.61,-56.59 840.86,-217.08 1025.3,-263 354.55,-88.27 699.11,-180.09 1059.11,-249.38 2.08,120.61 34.58,155.42 37.73,260.93 -91.64,35.61 -203.81,59.34 -304,47.82zm-1156.5 -316.1c231,-12.22 498.63,-147.54 744.32,-163.84 18.38,64.95 47.54,181.83 57.35,254.25l-412.89 98.82c4.51,-5.56 12.04,-10.07 16.31,-13.97 64.39,-58.88 60.79,-43.24 64.43,-83.1 -59.62,-51.83 -89.03,3.86 -98.3,8.5 -0.6,0.31 -8.67,59.9 -113.01,-11.31l73.24 116.17c-90.93,20.02 -195.33,58.84 -267.69,37.24 -31.85,-63.49 -50.15,-161.63 -63.76,-242.76zm2918.97 -320.74c9.07,120.27 33.41,122.44 30.43,187.6 -5.25,114.94 -93.75,30.65 -134.39,28.28 -83.08,-4.85 -48.14,8.57 -128.26,30.61 -110.92,30.5 -113.55,-39.23 -156.65,44.74l-13.41 28.57c-1.09,-3.36 -3.95,10.81 -7.43,15.29 -74.38,-44.91 -76.82,-45.59 -191.57,-6.07l-162.87 45.63c-68.7,11.69 -50.9,30.18 -74.73,-12.78 -30.51,33.56 -27.47,-14.03 3.3,76.11 -114.08,13.41 -92.82,-30.88 -221.3,3.09 -104.67,27.67 -147.57,67.31 -254.74,32.36l-61.39 71.83c-4.28,-103.18 -36.1,-143.24 -42.9,-241.67l1415.91 -303.59zm-2088.18 143.5c103.28,-67.04 738.59,-197.18 899.53,-222.96 11.47,41.79 14.63,72.65 25.64,115.24 17.44,67.46 25.12,53.14 28.99,128.22 -95.77,50.14 -780.65,214.24 -887.04,212.9 -22.55,-34.61 -58.69,-184.51 -67.12,-233.4zm1126.34 -266.49c5.35,-3.69 12.45,-7.22 17.03,-9.5 82.21,-40.9 318.15,-93.27 412.21,-115.45 90.18,-21.27 357.23,-95.04 431.41,-91.42l60.03 254.44c-106.46,34.97 -921.34,239.29 -1015.34,220.94l-65.46 -246.34 97.32 -12.65c1.71,2.05 -0.39,6.9 -0.43,8l0.08 59.28c0.04,-2.97 -0.75,10.19 1.21,14.7 5.5,1.65 14.3,0.01 17.23,-0.4 2.52,-0.37 12.22,-0.5 14.78,-1.05l8.22 -19.05c4.83,6.1 10.79,14.53 13.78,18.83l113.11 9.73c5.63,-2.88 10.49,-4.95 15.34,-7.98 4.23,-2.65 9.01,-5.71 12.47,-8.49 40.64,-32.75 16.94,51.62 29.58,-57.72l-36.81 -8.51c-5.68,-0.82 -11.72,-2.03 -18,-2.72l-107.76 -4.64zm-1156.76 229.24c11.93,95.9 30.07,257.62 108.8,294.54l-130.93 40.12c68.11,-27.06 54.48,-22.35 29.38,-130.87 -14.07,-60.84 -27.03,-121.07 -49.04,-178.69l-784.06 178.14 61.46 239.53c1.78,6.13 8.33,39.55 8.08,43.69 -5.38,88.77 60.86,-36.21 -15.05,37.87 -78.32,-13.19 -17.66,16.88 -43.59,-52.1l-58.9 -244.7c-111.48,5.36 -1368.74,310.05 -1415.62,341.44 -13.36,101.57 51.74,222 62.78,291.64l3.44 56.08c8.39,88.19 49.91,185.86 78.52,257.27 83.31,11.08 127.76,-25.27 227.97,-33.09l-241.37 67.91 74.61 292.67c109.89,10.67 390.79,-78.44 516.1,-104.97 -0.54,-87.06 -25.03,-237.63 -72.11,-299.13l-109.26 -6.78c36.35,-10.87 68.4,-16.48 98.54,-22.91 5.15,-96.84 -36.66,-172.21 -50.64,-265.57 -7.34,-48.97 -8.59,-37.07 7.12,-60.73 47.03,77.55 40.79,206.43 85.89,293.09 90.83,25.44 110.18,-5.09 208.6,-20.35l-189.28 68.6c-4.82,89.76 37.12,202.5 52.21,293.42 101.23,1.58 1304.28,-293.34 1394.01,-334.42 31.69,-229.71 -192.43,-288.27 14.92,-332.16 -24.81,60.88 -12.64,65.92 4.94,156.2 17.79,91.37 0.91,74.42 48.05,155.49 114.16,11.95 454.2,-91.79 572.94,-123.64 94.73,-25.4 191.91,-45.39 279.63,-68.22l286.57 -88.08c-89.12,17.56 -197.23,68.6 -276.55,19.29 101.69,-17.11 115.02,27.48 135.14,-69.9 -81.02,55.26 -256.65,53.11 -341.9,84.43 -4.05,30.45 6.01,34.88 20.5,81.24 -9.83,-1.41 -256.91,-115.76 -319.53,31.85 158.02,-23.94 151.39,-79 246.42,-34.74l-254.34 80.74c-30.2,-22.08 -65.46,-60.28 -100.39,-57.75l-92.85 20.16c-32.23,4.7 -71.09,6.05 -112.57,13.03 6.41,2.34 30.32,14.98 32.19,17.49 51.24,68.9 3.46,17.4 -0.74,26.98 -0.51,1.16 -4.46,5.84 -5.05,6.97 -0.55,1.05 -4.03,5.6 -4.53,6.6 -35.34,70.69 50.24,-29.66 -3.45,26.3 -105.63,-12.29 -110.18,-204.73 -81.99,-251.73 6.63,32.77 2.64,61.42 20.6,114.86l137.78 -39.21c176.98,-40.58 206.17,-38.99 249.25,-104.18 -5.99,-3.8 -15.62,-14.56 -19.48,-8.57l-36.84 -12.74c-5.28,-0.99 -11.74,-2.2 -17.43,-2.91 -6.86,-0.85 -55.64,5.53 -77.64,3.72l1004.06 -255.96c115.32,-25 889.03,-247.97 1012.12,-221.72 4.92,1.05 12.65,3.65 18.7,6.2 9.1,81.94 38.07,152.91 35.16,233l-299.18 73.86c56.16,-44.98 104.2,-47.13 147.77,-66.81 66.12,-29.89 20.71,15.56 54.2,-35.06 -20.14,-5.26 -53.32,-9.65 -77.56,-3.6l-64 27.16c-4.98,1.92 -10.42,4.17 -15.63,5.98 -98.59,34.21 -186.1,45.92 -266.82,16.88l34.75 65.56 147.41 -34c-60.31,67.53 -159.26,74.68 -244.89,92.06 -13.21,-38.06 43.67,-22.26 9.22,-67.96l-62.83 5.95c-2.62,0.29 -9.26,0.78 -11.65,1.09l-43.01 14.81c-103.85,48.85 -214.25,-6.27 -232.26,97.81 99.33,-24.1 85.31,-42.07 151.03,-20.5l-166.57 52.18c-62.22,12.36 -123.87,22.23 -169.39,67.91l866.38 -207.79c80.75,-23.95 188.43,-48.02 276.98,-60.37l-56.91 -317.69c-111.34,16.71 -186.83,49.66 -300.77,64.95l278.82 -77.45c-14.17,-171.78 -156.37,-474.27 -134.48,-637.94 -252.5,65.45 -834.43,178.25 -1044.34,261.27 -5.94,2.35 -35.27,14.64 -40.62,16.09 -76.22,20.65 1.99,1.41 -50.13,5.21 -122.07,8.9 -267.62,54.77 -392.04,86.87 -179.23,46.23 -336.85,84.03 -524.83,118.79z"/>
  <path class="fil2" d="M11061 13697.77c100.19,11.52 212.36,-12.21 304,-47.82 -3.15,-105.51 -35.65,-140.32 -37.73,-260.93 -360,69.29 -704.56,161.11 -1059.11,249.38 -184.44,45.92 -914.69,206.41 -1025.3,263 37.49,3.98 80.48,-8.24 113.32,-11.72l97.26 11.72c-36.19,69.97 -134.57,95.3 -208.29,95.13 -111.38,-0.27 63.12,-15.44 -29.02,2.14l-128.2 24.94 5.16 -94.15c-47.08,36.04 -41.21,-34.88 -0.67,158.61 23.66,112.88 -3.8,90.93 91.03,88.3 -48.18,-31.65 -47.15,-14.95 -42.25,-81.56 128.98,-8.26 127.24,-26.9 152.3,-30.05 3.32,-0.42 10.39,-0.72 13.56,-0.88l47.53 7.33c-45.85,55.54 -59.42,53.2 -88.37,65.95 -20.62,9.09 -55.22,18.02 -77.28,35.76l227.91 -28.98c0.28,1.26 0.85,6.5 1.47,7.7l76.82 42.97c-105.87,-4.72 -75.04,-10.16 -171.13,34.77l47.4 2.95c97.85,-4.94 -27.87,-3.07 51.62,-7.45 105.66,-5.82 94.79,5.65 120.15,25l-182.31 86.41c-76.34,0.07 -38.77,-15.29 -62.99,-9.44l-78.6 35.7c-4.87,-6.35 -15.49,7.44 -23.59,10.22 -17.31,-47.26 -18.15,6.03 -10.84,-77.02 0.48,-5.53 10.21,-17.04 11.01,-26.59 0.55,-6.58 4.54,-8.28 8.21,-11.04 -93.63,2.8 -62.32,33.22 -41.23,124.85 28.26,122.77 7.74,136.03 113.6,124.03 -54.35,-30.99 -73.31,10.11 -66.21,-78.34 90.83,9.12 77.84,12.06 196.93,-19.39l100.93 -26.15c37.75,-10.17 65.3,-17.09 101.66,-29.09l114.91 10.71c-53.43,-25.57 10.53,18.92 -23.54,-11.31 -81.82,-72.61 -2.21,-37.54 5.23,-46.68 -10.16,18.12 -82.11,51.76 166.91,-10.35 439.03,-109.5 89.44,-16.5 285.72,-6.71l374.79 -94.23c9.78,-64.3 -17.16,-150.11 -31.6,-232.57 -69.07,-19.75 -47.51,-3.87 -134.48,-8.56l-37.49 -5.52c44.48,-8.39 60.89,-10.06 102.69,-24.06l-147.6 11.67c43.95,-43.49 -4.32,-15.8 70.92,-45.56 3.53,-1.4 74.12,-11.77 77.76,-12.34l-34.75 -12.67c-90.55,-52.68 -13.9,22.65 -51.04,-50.79 181.99,27.64 -42.66,101.76 446.25,-26.16 30.82,68.42 21.69,-34.46 -10.59,34.43 -32.94,70.28 -57.36,-37.86 -9.53,15.48l395.77 -88.31c-5.24,-1.12 -12.26,0.2 -16.05,-0.86l-34.42 -8.94c-71.68,-30.84 3,17.54 -58.61,-42.93z"/>
  <path class="fil2" d="M8499.17 13725.8c35.9,65.39 22.48,70.39 9.73,112.29 -1.73,5.66 -6.07,13.05 -10.25,18.85 -6.25,-8.54 -62.24,11 -14.93,-94.11 2.58,-5.72 23.13,-25.74 28.87,-29.44 -80.32,18.89 -107.06,14.43 -65.24,113.89 36.12,85.9 22.44,40.23 41,51.91 19.56,12.29 21.71,9.4 48.31,6.86 10.7,-1.02 53.15,-9.56 70.22,-12.58 50.42,-8.93 29.76,-1.86 90.32,-18.3 72.57,-19.7 77.64,-52.45 135.28,1.96 -33.76,-28.85 7.27,-6.77 -81.75,28.76 -9.96,3.97 -82.22,24.53 -95.9,28.02 -5.9,1.5 -71.94,19.27 -100.37,20.08 -82.54,2.33 -23.62,26.79 -77.69,-27.2l11.54 72.65c217.54,-18.24 585.52,-171.86 768.66,-167.08l-97.58 -30.47c-61.75,-13.78 -35.9,24.8 -60.04,-30.63l177.74 -29.66c81.03,-13.43 39.73,-0.9 28.01,36.68 -5.38,17.28 -21.31,-6.55 -7.03,37.77l566.47 -139.62c1.88,-54.87 -27.13,-216.03 -59.75,-257.51l-1305.62 306.88z"/>
  <path class="fil2" d="M11407.56 13364.52c6.8,98.43 38.62,138.49 42.9,241.67l61.39 -71.83c107.17,34.95 150.07,-4.69 254.74,-32.36 128.48,-33.97 107.22,10.32 221.3,-3.09 -30.77,-90.14 -33.81,-42.55 -3.3,-76.11 23.83,42.96 6.03,24.47 74.73,12.78l162.87 -45.63c114.75,-39.52 117.19,-38.84 191.57,6.07 3.48,-4.48 6.34,-18.65 7.43,-15.29l13.41 -28.57c43.1,-83.97 45.73,-14.24 156.65,-44.74 80.12,-22.04 45.18,-35.46 128.26,-30.61 40.64,2.37 129.14,86.66 134.39,-28.28 2.98,-65.16 -21.36,-67.33 -30.43,-187.6l-1415.91 303.59z"/>
  <path class="fil2" d="M11861.63 12937.94l107.76 4.64c6.28,0.69 12.32,1.9 18,2.72l36.81 8.51c-12.64,109.34 11.06,24.97 -29.58,57.72 -3.46,2.78 -8.24,5.84 -12.47,8.49 -4.85,3.03 -9.71,5.1 -15.34,7.98l-113.11 -9.73c-2.99,-4.3 -8.95,-12.73 -13.78,-18.83l-8.22 19.05c-2.56,0.55 -12.26,0.68 -14.78,1.05 -2.93,0.41 -11.73,2.05 -17.23,0.4 -1.96,-4.51 -1.17,-17.67 -1.21,-14.7l-0.08 -59.28c0.04,-1.1 2.14,-5.95 0.43,-8l-97.32 12.65 65.46 246.34c94,18.35 908.88,-185.97 1015.34,-220.94l-60.03 -254.44c-74.18,-3.62 -341.23,70.15 -431.41,91.42 -94.06,22.18 -330,74.55 -412.21,115.45 -4.58,2.28 -11.68,5.81 -17.03,9.5z"/>
  <path class="fil2" d="M10735.29 13204.43c8.43,48.89 44.57,198.79 67.12,233.4 106.39,1.34 791.27,-162.76 887.04,-212.9 -3.87,-75.08 -11.55,-60.76 -28.99,-128.22 -11.01,-42.59 -14.17,-73.45 -25.64,-115.24 -160.94,25.78 -796.25,155.92 -899.53,222.96z"/>
  <path class="fil0" d="M12234.55 8747.56c-3.63,60.09 3.6,102.51 -23.72,139.64 39.01,108.68 43.4,126.06 135.05,164.48l-101.92 466.32c49.62,-20.62 19.68,-4.42 52.67,-38.79l273.73 -402.25c252.94,-306.23 -12.66,-408.11 -92.57,-470.85 -64.73,41.85 -66.38,10.18 -141.43,54.15 -52.61,30.84 -43.37,46.78 -101.81,87.3z"/>
  <path class="fil2" d="M9904.5 13381.67c13.61,81.13 31.91,179.27 63.76,242.76 72.36,21.6 176.76,-17.22 267.69,-37.24l-73.24 -116.17c104.34,71.21 112.41,11.62 113.01,11.31 9.27,-4.64 38.68,-60.33 98.3,-8.5 -3.64,39.86 -0.04,24.22 -64.43,83.1 -4.27,3.9 -11.8,8.41 -16.31,13.97l412.89 -98.82c-9.81,-72.42 -38.97,-189.3 -57.35,-254.25 -245.69,16.3 -513.32,151.62 -744.32,163.84z"/>
  <path class="fil1" d="M9155.45 13040.91c30.32,-18.3 63.32,-0.07 93.25,6.22 27.34,5.74 33.26,4.33 50.66,7.65 67.55,12.88 32.18,5.24 56.54,15.65 0.96,127.41 23.06,20.93 -64.75,88.99 -51.21,39.69 -15.67,47.93 -95.57,52.65 -39.99,-60.36 -41.31,-98.79 -40.13,-171.16zm453.03 -150.43c-109.52,-62.83 -241.13,-6.81 -264.71,117.53 -3.88,-4.27 -9.35,-16.83 -11.47,-12.95 -2.09,3.81 -8.76,-9.85 -11.73,-12.25 -124.42,-100.77 -250.15,8.88 -260.42,29.26 -20.04,114.17 11.94,221.79 75.74,287.1 132.95,18.49 210.97,-5.33 229.03,-113.77 161.39,92.17 372.85,62.32 289.08,-175.04l-130.98 22.44c39.27,131.57 3.19,-18.63 63.43,97.5l-102.67 20.76c-28.46,-49.91 -45.42,-72.8 -37.77,-147.71l7.94 -35.21c99.03,-31.34 64.48,7.45 145.2,-14.19 79.3,-21.27 -2.34,-32.99 123.51,-51.72 40.53,117.47 11.76,258.98 128.86,242.99 42.17,-80.61 7.42,-55.54 -17.92,-177.52 -40.86,-196.75 56.52,-1.1 55.86,-180.77 -59.11,0.99 -107,12.34 -163.11,27.25 -103.13,27.4 -72.65,10.14 -117.87,76.3z"/>
  <path class="fil0" d="M7838.97 11677.54c92.48,-134.98 176.68,-75.36 198.14,-215.92 16.58,-108.57 -19.74,-103.86 -42.35,-175.3 -22.9,-72.31 3.51,-118.18 19.08,-196.89 -14.81,2.82 -451.66,160.21 -338.94,442.29 26.63,66.62 92.06,82.23 173.14,88.12l-9.07 57.7z"/>
  <path class="fil2" d="M8588.2 14401.35c29.96,332.9 49.06,234.18 279.42,204.74 11.86,-6.71 21.57,-70.56 61.49,-97.7 43.32,53.24 -28.84,65.93 57.93,67.77 40.35,0.85 71.24,-20.68 119.98,-26.59 1.51,-93.17 -33.78,-145.15 -42.23,-236.92 -5.49,-2.2 -12.81,-4.16 -17.01,-5.03 -4.14,-0.86 -11.82,-3.58 -16.93,-4.42 -27.57,-4.53 -10.42,-3.65 -34.08,-4.56l-408.57 102.71z"/>
  <path class="fil2" d="M8501.88 14070.01c0.4,27.52 42.96,215.71 51.48,258.94l288.73 -68.64c-23.65,-81.58 -51.4,-48.33 16.47,-79.66 56.61,-26.13 48.03,-16.86 78.08,-4.83 -13.37,35.34 14.24,-1.32 -42.11,37.16l111.66 5.24c22.28,-45.98 20.38,-46.6 3.1,-125.46 -12.68,-57.83 -22.26,-81.11 -23.4,-147.13l-484.01 124.38z"/>
  <path class="fil4" d="M12434.26 12091.21c85.3,0.54 110.19,20.9 61.5,110.37 -85.42,3.01 -110.34,-25.94 -61.5,-110.37zm105.96 146.88c7.82,88.88 -11.22,78.37 -20.17,92.37 -68.98,1.08 -43.26,-41.08 -141.49,14.36 66.5,84.31 204.12,66.97 245.85,-15.53 40.49,-80.06 0.62,-247.77 -70.31,-289.71 -234.77,-138.82 -376.87,348.57 -13.88,198.51z"/>
  <path class="fil4" d="M12219.29 12343.79c23.63,100.27 -24.27,66.46 -31,75.41 -88.5,-30.65 -93.37,-46.82 -41,-122.63 33.99,6.33 56.2,-19.83 72,47.22zm-127.17 -81.7c2.21,-210.8 78.14,9.26 155.67,-123.61 -237.63,-171.48 -335.64,227 -160.68,326.66 103.13,58.74 228.66,-20.35 225.35,-120.77 -4.86,-146.96 -132.78,-110.39 -220.34,-82.28z"/>
  <path class="fil3" d="M9985.14 12978.94c5.17,1.14 14.41,-4.89 15.87,0.36 26.63,95.87 20.54,-0.55 22.58,-0.6 1.55,-0.04 25.31,-76.82 4.64,0.24 39.42,50.41 16.62,5.51 8.21,43.45 -17.28,77.91 -50.11,-60.9 -12.17,70.77 91.41,-22.79 69.02,15.82 213.82,-25.92 -11.66,-115.05 45.71,-62.35 -55.26,-71.57 63.18,-53.45 94.18,-59.34 193.72,-57.83 -17.48,-45.28 8.17,-91.15 -79.94,-67.73 -53.83,14.31 -89.33,29.22 -158.02,46.08 -24.47,-56.13 -8.77,24.22 -20.6,-73.7 -70.72,16.82 -26.56,31.26 -41.1,-47.94 -64.48,51.44 -48.87,-4.34 -61.39,83.55 -2.38,-3.26 -2.84,-14.36 -3.15,-11.69l-18.52 -54.42c-1.16,-1.9 -5.53,-7.25 -9.32,-9.61 -68.61,73.13 -23.32,60.69 0.63,176.56z"/>
  <path class="fil5" d="M8494.69 13282.08l-1.4 -32.4 -29.95 -85.07c27.1,-35.6 12.99,-25.43 51.7,-56.68 14.88,-59.21 8.62,-68.99 -17.09,-112.88 -153.11,8.32 -123.34,28.33 -126.23,80.51 -8.06,145.78 -54.72,37.74 -67.41,149.37 28.34,23.55 16.52,21.1 51.54,29.14l71.33 11.85c-7.71,42.17 -17.41,62.21 -18.68,70.39 -7.29,47.1 -8.97,10.42 0.63,61.48l101.03 -25.12 -15.47 -90.59z"/>
  <path class="fil3" d="M12212.11 12612.91c69.55,-43.31 35.16,-8.62 140.16,-33.48 40.85,67.61 8.45,42.94 61.49,77.62 88.53,-33.35 221.62,-29.59 251.14,-108.59l-22.96 -7.44c-38.19,-17.14 -48.79,-14.18 -84.69,-74.66l-308.65 68.78c-14.94,0.5 -9.28,-82.47 -36.49,77.77z"/>
  <path class="fil3" d="M10378.58 12827.88c8.96,118.77 20.67,47.65 33.37,90.15l16 106.12c160.32,-86.3 -25.65,-13.29 176.38,-54.26 80.94,-16.41 94.52,-26.03 79.69,-93.34l-210.86 50.09c5.26,-4.54 13.14,-17.75 16.61,-12.55 3.28,4.92 11.9,-8.77 16.46,-10.85 50.3,-22.9 23.23,-5.34 50.32,-17.86 88.15,-40.75 43.25,10.19 73.79,-90.83 -128.12,22.62 -41,60.43 -251.76,33.33z"/>
  <path class="fil6" d="M8700.87 13087.83c63.12,38.38 37.73,4.58 42.18,77.8 -53.83,-21.06 -64.55,-36 -100.92,-63.54 -83.43,31.73 -84.49,37.42 -109.36,101.85l290.83 -3.23c-25.08,-125.23 -22.7,-65.3 8.92,-180.77 -33.14,-33.44 9.67,-12.34 -44.81,-15.33 -28.05,55.48 -36.27,43.9 -86.84,83.22z"/>
  <path class="fil3" d="M8497.95 12995.05c25.71,43.89 31.97,53.67 17.09,112.88 40.73,-39.18 18.93,-48.86 88.37,-49.38 75.59,-0.56 -13.83,8.03 97.46,29.28 50.57,-39.32 58.79,-27.74 86.84,-83.22l-95.66 -104.19c-11.7,36.68 18.39,96.61 -151.98,57.33l19.97 0.78c-71.59,102.69 42.23,22.43 -62.09,36.52z"/>
  <path class="fil7" d="M10536.5 12712.45l24.7 51.49 339.15 -75.7c69.09,-21.51 50.42,-21.82 59.82,-57.78 -46.95,-24.97 4.15,-17.17 -56.3,-10.16 -40.35,4.67 -16.62,19.22 -92.38,15.01l-274.99 77.14z"/>
  <path class="fil2" d="M9155.45 13040.91c-1.18,72.37 0.14,110.8 40.13,171.16 79.9,-4.72 44.36,-12.96 95.57,-52.65 87.81,-68.06 65.71,38.42 64.75,-88.99 -24.36,-10.41 11.01,-2.77 -56.54,-15.65 -17.4,-3.32 -23.32,-1.91 -50.66,-7.65 -29.93,-6.29 -62.93,-24.52 -93.25,-6.22z"/>
  <path class="fil8" d="M8493.29 13249.68l1.4 32.4 293.51 30.89 33.46 48.5c31.33,-61.18 38.1,-43.92 103.68,-73.92l-4.49 -54.73 -57.87 -5.91c-45.13,60.52 -283.66,17.67 -369.69,22.77z"/>
  <path class="fil9" d="M8862.98 13226.91l57.87 5.91c23.96,-78.47 26.57,-101.19 62.42,-171.89 -87.99,-43.14 -39.01,-43.74 -120.22,-63.41 -4.64,58.34 2.7,78.27 2.55,126.19 -0.02,7 -0.13,12.01 -0.39,18.56l-4.82 32.26c-3.6,52.24 -12.89,4.64 2.59,52.38z"/>
  <path class="fil7" d="M10282.68 12773.95c5.23,87.01 -45.44,75.82 225.55,0l-20.85 -74.41c-4.41,3.11 -10.68,2.81 -12.48,8.96 -17.19,58.62 7.09,-1.97 -23.83,16.02 -70.42,40.98 -94.21,28.2 -141.46,39.23 -4.02,0.93 -10.88,3.89 -13.99,4.74 -2.95,0.8 -8.74,3.38 -12.94,5.46z"/>
  <path class="fil3" d="M11253.29 12733.05l32.54 88.69c40.38,-33.26 97.49,-41.22 100.31,-42.31 92.19,-35.61 40.39,1.59 50.03,-82.5 -196.35,66.12 -71.19,16.9 -182.88,36.12z"/>
  <path class="fil2" d="M12188.29 12419.2c6.73,-8.95 54.63,24.86 31,-75.41 -15.8,-67.05 -38.01,-40.89 -72,-47.22 -52.37,75.81 -47.5,91.98 41,122.63z"/>
  <path class="fil2" d="M12495.76 12201.58c48.69,-89.47 23.8,-109.83 -61.5,-110.37 -48.84,84.43 -23.92,113.38 61.5,110.37z"/>
  <path class="fil2" d="M13843.85 14762.67c99.51,-5.07 84.72,4.13 89.82,-100.34 -97.01,6.41 -85.2,-6.11 -89.82,100.34z"/>
 </g>
</svg>
