<?xml version="1.0" encoding="UTF-8"?>
<!DOCTYPE svg PUBLIC "-//W3C//DTD SVG 1.1//EN" "http://www.w3.org/Graphics/SVG/1.1/DTD/svg11.dtd">
<!-- Creator: CorelDRAW 2017 -->
<svg xmlns="http://www.w3.org/2000/svg" xml:space="preserve" width="7.8738mm" height="7.8738mm" version="1.1" style="shape-rendering:geometricPrecision; text-rendering:geometricPrecision; image-rendering:optimizeQuality; fill-rule:evenodd; clip-rule:evenodd"
viewBox="0 0 787.38 787.38"
 xmlns:xlink="http://www.w3.org/1999/xlink">
 <defs>
  <style type="text/css">
   <![CDATA[
    .fil0 {fill:none}
    .fil1 {fill:black}
   ]]>
  </style>
 </defs>
 <g id="Capa_x0020_1">
  <metadata id="CorelCorpID_0Corel-Layer"/>
  <rect class="fil0" x="-0" y="-0" width="787.39" height="787.39"/>
  <g id="_2839119903088">
   <g>
    <path class="fil1" d="M150.76 399.86c0,24.91 7.33,22.2 18.45,36.14l2.52 -2.32c-6.55,-15.5 -10.36,-23.1 -2.52,-40.23 -12.64,0.25 -13.64,-1.64 -18.45,6.41z"/>
    <path class="fil1" d="M178.43 425.05c3.8,-2.93 5.04,-2.08 5.88,-10.23 0.84,-8.11 -0.64,-7.18 -2.8,-10.7 -0.44,0.42 -1.36,0.24 -1.53,0.99 -0.18,0.79 -1.33,0.95 -1.55,1.14 -5.87,5.05 -2.35,13.36 0,18.8z"/>
    <path class="fil1" d="M160.69 378.34c7.18,5.38 11,5.4 21.7,6.15l-10.11 -11.97c-4.48,2.08 -7.16,3.1 -11.59,5.82z"/>
   </g>
   <g>
    <path class="fil1" d="M356.79 513.64c3.26,-3.27 11.66,4.88 3.42,1.59 -0.07,-0.02 -8.57,3.56 -3.42,-1.59zm-64.58 27.67c0.33,-14.92 5.82,-31.2 6.15,-46.12 22.88,10.98 44.8,11.32 52.28,21.52 -25.51,0.57 -36.55,19.5 -58.43,24.6zm-6.15 -49.2c3.27,-3.27 11.66,4.88 3.43,1.6 -0.07,-0.03 -8.58,3.55 -3.43,-1.6zm-12.3 -3.08c3.33,-3.32 16.79,4.61 5.06,1.59 -2.72,-0.7 -10.25,3.6 -5.06,-1.59zm-9.22 -3.07c3.26,-3.27 11.66,4.88 3.42,1.6 -0.07,-0.03 -8.57,3.55 -3.42,-1.6zm12.3 -46.12c3.32,-3.33 16.78,4.6 5.06,1.58 -2.72,-0.7 -10.25,3.6 -5.06,-1.58zm-33.83 21.52c0.46,-20.45 6.85,-24.6 27.67,-24.6l-27.67 24.6zm-113.77 -33.82l0 0zm49.19 -2.49c-2.22,8.42 0.01,4.48 -6.7,8.63l-2.52 2.32c-9.64,-1.1 -20.28,-3.49 -24.93,-11.49 -1.93,-3.32 -4.01,-7.94 -2.46,-14.76 2.84,-12.43 2.78,-7.59 8.94,-9.89 4.81,-8.05 5.81,-6.16 18.45,-6.41 12.22,7.08 5.62,-0.81 12.3,10.67 2.16,3.52 3.64,2.59 2.8,10.7 -0.84,8.15 -2.08,7.3 -5.88,10.23zm-49.19 2.49c-14.1,-9.44 -18.43,-30.95 -5.58,-45.56 8.72,-9.91 27.62,-15.59 41.75,-12.31 7.52,1.75 2.46,-0.25 6.87,2.85l10.11 11.97c-10.7,-0.75 -14.52,-0.77 -21.7,-6.15 -29.46,2.23 -38.1,20.66 -31.45,49.2zm-46.13 -30.76c0,39.45 5.65,28.44 21.52,58.43 -28.74,15.21 -52.27,36.53 -52.27,76.88 0,32.14 16.94,60.53 31.15,79.54 16.09,21.53 43.45,40.38 70.32,40.38 15.91,0 31.86,-12.52 43.05,-18.45 8.88,5.94 24.67,22.57 27.68,33.83 -52.46,0 -92.25,-7.35 -92.25,36.9 0,44.48 94.47,33.82 141.45,33.82 123.96,0 24.45,-85.15 18.45,-107.62 5.67,-7.74 30.26,-22.54 39.98,-27.68 5.02,9.5 32.82,84.27 26.87,97.57l-2.27 3.91c23.66,12.52 20.54,36.9 52.27,36.9 14.91,0 24.25,-14.85 24.6,-30.75l276.75 0c11.15,0 17.17,-2.59 24.6,-6.15 -11.05,-15.09 -62.34,-9.23 -95.32,-9.23 -38.31,0.01 -65.62,-3.07 -104.55,-3.07l0 -119.93c0,-37.75 3.15,-66.58 3.07,-101.47 -0.02,-13.17 2.09,-121.56 -1.44,-127.64 -8.82,-15.23 3.84,3.71 -18.98,-2.4 -51.12,-13.67 -32.64,17.85 -31.85,53.16l15.37 0c0,17.54 3.08,21.27 3.08,39.97 0,104.27 2.37,158.92 -6.15,261.38 -14.29,-6.85 -44.9,-3.07 -64.58,-3.07l-42.63 -135.72c-5.22,-15.85 -8.74,-32.14 -25.02,-36.48 23.28,-16.18 16.17,-10.11 36.95,-52.23 14.01,-28.41 19.44,-57.04 24.55,-67.7 -48.12,-32.23 -40.42,1.49 -73.8,64.58 -27.12,-2.26 -45.64,-16.88 -64.58,-18.45l15.38 -3.08c-8.69,-37.29 -30.54,-30.75 -55.35,-30.75 -9.07,-18.91 -11.3,-30.72 -33.03,-49.99 -64.67,-57.3 -133.02,4.66 -133.02,34.61z"/>
    <path class="fil1" d="M608.94 175.39l-199.88 0c-10.6,0 -11.91,-2.28 -21.52,-3.08l-3.08 -89.18 239.85 0c9.74,0 16.88,13.91 22.48,20.57 7.52,8.94 14.22,13.3 17.5,25.56 -5.62,8.39 -15.08,18.66 -22.19,27.01 -10.34,12.15 -10.92,19.12 -33.16,19.12zm-147.6 -104.56l-89.18 0 0 116.85c41.72,0 70.97,-1.3 111.24,2.59 21.56,2.08 19.04,0.9 14.84,18.94 -53.09,0 -88.23,-15.17 -113.85,18.38 -30.3,39.66 -36,34.11 -11.37,63.78 7.46,8.99 11.47,13.38 23.74,16.24 -5.15,-22.12 -14.6,-21.97 -24.6,-36.9 29.57,-55.88 37.23,-49.21 116.85,-49.2 30.9,0 51.75,-3.24 79.93,-3.1 31.28,0.17 55.29,3.1 83.05,3.1l0 92.25 -83.03 0c-15.45,0 -13.77,2.77 -27.67,3.07l0 6.16c51.67,12.03 68.79,3.07 123,3.07l0 -116.85 -116.85 0c-12.27,0 -1.52,0.54 -6.26,-2.97l-6.04 -6.26c20.57,-30.72 75.01,7.24 103.97,-19.03 12.9,-11.7 32.39,-36.25 40.55,-51.69 -3.66,-13.75 -24.55,-38.64 -34.45,-48.58 -21.44,-21.52 -35.16,-9.85 -70.1,-9.85 -18.7,0 -22.43,-3.07 -39.97,-3.07 1.24,-14.9 2.81,-5.16 0,-18.45 -40.8,-9.5 -26.05,4.68 -39.83,15.52 -7.31,5.75 -21.59,6 -33.97,6z"/>
    <path class="fil1" d="M252.23 341.44c0,77.96 75.83,76.04 103.62,48.25 62.93,-62.94 -44.64,-135.13 -87.49,-84.41 -5.78,6.85 -16.13,25.06 -16.13,36.16z"/>
    <path class="fil1" d="M418.29 372.18c0,13.74 16.5,8.66 27.18,15.88 15.05,10.17 3.6,19.24 25.09,21.02l0 -86.09 -52.27 0 0 49.19z"/>
   </g>
  </g>
 </g>
</svg>
