<?xml version="1.0" encoding="UTF-8"?>
<!DOCTYPE svg PUBLIC "-//W3C//DTD SVG 1.1//EN" "http://www.w3.org/Graphics/SVG/1.1/DTD/svg11.dtd">
<!-- Creator: CorelDRAW 2017 -->
<svg xmlns="http://www.w3.org/2000/svg" xml:space="preserve" width="91.75mm" height="80mm" version="1.1" style="shape-rendering:geometricPrecision; text-rendering:geometricPrecision; image-rendering:optimizeQuality; fill-rule:evenodd; clip-rule:evenodd"
viewBox="0 0 9175 8000"
 xmlns:xlink="http://www.w3.org/1999/xlink">
 <defs>
  <style type="text/css">
   <![CDATA[
    .str0 {stroke:#FEFEFE;stroke-width:7.62;stroke-miterlimit:22.9256}
    .fil5 {fill:#FEFEFE}
    .fil3 {fill:#FEFEFE}
    .fil1 {fill:#0067C5}
    .fil0 {fill:#0067C5}
    .fil2 {fill:#FEFEFE}
    .fil4 {fill:#201E1E;fill-rule:nonzero}
   ]]>
  </style>
 </defs>
 <g id="Capa_x0020_1">
  <metadata id="CorelCorpID_0Corel-Layer"/>
  <path class="fil0" d="M5799.27 2999.5c131.47,-30.63 326.82,-15.61 483.87,-15.61 13.47,50.46 187.07,411.35 218.53,546.3 -80.26,53.74 -426.66,25.99 -517.69,26.01 -234.36,0.08 -184.71,75.34 -184.71,-556.7zm-140.47 -23.65l43.5 25.19c21.35,85.47 21.21,457.79 0.16,543.55 -78.04,44 -638.15,34.74 -677.45,16.81 -61.96,-66.93 -37.43,-88.18 -37.38,-265.35 0.03,-113.86 -6.09,-203.44 15.6,-296.55 188.22,-43.85 447.17,17.98 655.57,-23.65zm-3074.89 523.12l0 -452.65c0,-47.98 45.72,-62.43 93.65,-62.43 161.61,0 449.31,-17.89 593.12,15.61 32.41,139.1 15.61,321.44 15.61,468.25 0,123.14 -88.21,88.45 -340.79,88.45l-291.77 1.15c-26.87,-1.22 -69.82,-2.89 -69.82,-58.38zm811.64 52.15c-52.36,-48.91 -26.36,-361.92 -26.89,-442.9 -0.94,-147.08 9.84,-94.92 26.89,-113.44 77.96,-23.88 521.86,-10.89 655.56,-10.89 71.94,107.43 45.84,173.61 46.93,359.1 1.61,273.69 -21.02,213.89 -153.58,213.23l-405.84 -0.01c-37.11,0.06 -108.8,3.82 -143.07,-5.09zm1498.42 -395.54l-2.57 319.5c-0.12,2.35 -0.38,8.5 -0.54,11.38 -0.16,2.86 0.03,8.22 -0.19,11.32 -3.69,50.5 41.12,60.06 -124.15,58.47l-416.25 -0.05c-33.25,0.04 -17.73,-0.54 -52.08,0.26l-53.09 1.97c-110.81,-8.28 -69.12,-212.99 -69.12,-465.28 0,-52.6 27.58,-109.26 78.04,-109.26l546.3 0c103.91,0 93.65,50.11 93.65,171.69zm-2700.29 998.96c0,562.74 -97.03,468.25 515.09,468.25 0,-72.15 -63.25,-236.94 106.75,-423.94 203.92,-224.31 636.12,-129.47 717.36,208.98 27.92,116.29 3.14,97.48 3.14,214.96l2044.73 0c0,-122.3 -43.32,-203.33 81.92,-370.73 169.4,-226.43 482.91,-231.36 638.78,-37.8 173.45,215.38 106.56,296.7 106.56,408.53 143.19,0 288.3,22.98 368.41,-84.24 92.36,-123.6 36.39,-575.1 37.44,-743.04 1.41,-226.66 -18.98,-202.45 -124.64,-437.28l-241.6 -585.64c-34.7,-99.76 -56.86,-147.7 -133.26,-147.7l-3761.67 0c-146.94,0 -256.39,64.85 -312.39,155.87 -79.14,128.6 -29.95,254.5 -30.64,421.28 -1.36,330.55 -15.98,615.34 -15.98,952.5z"/>
  <path class="fil0" d="M2657.52 1256.85c9.72,-6.6 15.46,-9.71 26.36,-17.57 2.5,-1.8 5.93,-4.41 8.4,-6.25 21.72,-16.25 -4.93,3.74 16.35,-12.93l224.5 -141.56c543.9,-270.71 891.3,-422.86 1568.49,-422.86 294.37,0 444.94,23.55 677.31,69.44 206.65,40.83 399.2,112.19 572.29,189.12l426.79 217.48c176.19,98.05 454.07,355.33 490.68,362.52l157.43 157.12c4.71,25.77 -9.5,6.44 19.17,42.61l386.56 521.7c119.67,203.85 267.29,529.09 324.26,759.27 36.75,148.53 105.02,434.3 108.26,579.92l-265.31 -217.88c-2.2,-2.06 -5.38,-5 -7.59,-7.05 -10.8,-10 -13.07,-11.88 -22.98,-20.95 -36.07,-33.06 -65.13,-54.67 -104.01,-86.34l-151.42 -113.17c-139.67,-95.65 -231.23,65.89 -183.9,154.86 21.03,39.55 58.06,55.74 94.9,81.59l613.11 499.71c46.38,37.88 144.64,155.34 244.42,58.27l160.11 -205.98c32.17,-39.37 53.73,-64.73 86.76,-103.6 28.4,-33.4 49.17,-66.87 75.66,-100.04 95.2,-119.21 318.34,-345.3 325.29,-423.42 11.2,-125.93 -122.52,-236.02 -288.72,6.07 -24.1,35.1 -9.66,18.09 -39.73,48.13l-15.07 14.2c-2.14,2.13 -5.24,5.15 -7.35,7.31 -78.4,80.24 -236.71,303.44 -279.89,335.08 -19.6,-235.53 -115.57,-639.55 -200.45,-853.8 -9.68,-24.43 -14.93,-34.75 -26.71,-61.15l-25.76 -62.08c-11.8,-27.52 -0.57,-2.73 -13.94,-30.01l-45.88 -101.21c-11.71,-25.37 -15.67,-31.27 -25.84,-57.05 -38.6,-97.88 -149.22,-280.55 -205.98,-369.35 -52.75,-82.53 -253.16,-359.2 -319.34,-395.35 -51.99,-35.43 -85.1,-88.09 -131.72,-134.63 -46.7,-46.62 -99.71,-79.68 -135.45,-131.72 -26.99,-52.94 -47.87,-53.51 -94.34,-92.4 -292.82,-244.99 -355.21,-250.31 -625.36,-412.71l-222.04 -101.64c-574.72,-261.2 -1421.56,-345.74 -2033,-189.89 -264,67.29 -331.99,79.69 -569.41,177.34l-239.1 105.7c-58.95,30.56 -180.36,101.16 -309.26,183.28 -641.84,408.88 -1153.42,1072.42 -17.55,301.87z"/>
  <path class="fil0" d="M2075.1 6476.28c42.5,31.64 70.33,71.79 110.33,111.17 40.15,39.53 80.99,66.54 111.52,110.37 41.71,73 350.5,298.19 437.81,350.66 214.7,129.02 274.08,156.32 522.39,268.3 484.58,218.52 1149.56,322.57 1677.7,249.44 352.9,-48.87 619.53,-102.41 938.8,-247.24 117.14,-53.14 133.16,-47.07 271.18,-124.17l192.71 -100.13c91.96,-58 458.31,-309.94 509.01,-396.86l-53.97 -155.18c-101.49,-291.8 -324.54,195.39 -559.47,330.47l-267.85 142.14c-741.86,370.58 -1615.59,431.07 -2387.42,171.17 -388.16,-130.71 -732.27,-339.27 -1046.78,-593.15 -81.65,-65.91 -136.37,-124.95 -210.7,-199.29 -151.91,-151.89 -360.02,-376.67 -443.06,-569.55 -0.7,-1.63 -2.17,-5.56 -2.91,-7.16 -48.02,-104.51 -119.07,-191.01 -200.93,-387.04 -121.03,-289.84 -250.26,-672.8 -257.26,-987.34 32.04,21.46 66.97,49.86 99.29,76.41l375.83 312.36c239.55,187.75 337.61,-23.73 232.67,-130.13 -53.52,-54.28 -114.94,-85.73 -172.7,-134.82l-31.85 -26.72c-75.12,-65.09 -538.31,-473.09 -620.89,-478.63 -119.26,-8.01 -141.74,101.17 -280.94,261.2l-319.1 383.69c-49.41,61.24 -139.72,134.91 -147.36,220.64 -6,67.39 13.94,111.04 65.51,126.42 123.42,36.78 180.75,-80.25 244.46,-155.16l61.08 -70.7c81.11,-85.35 171.23,-246.52 259.71,-311.34 29.03,348.76 117.14,669.1 255.11,974.85 22.59,50.06 35.13,82.83 57.28,133.08 9.85,22.34 16.41,38.64 27.07,60.77l228.47 401.15c61.52,91.37 246.44,344.2 325.26,390.32z"/>
  <path class="fil0" d="M5970.97 4388.66c154.9,0 168.52,141.99 105.59,199.24 -106.97,97.32 -267.2,-42.57 -180.82,-148.3 11.92,-14.57 59.71,-50.94 75.23,-50.94zm0 483.86c304.28,0 473.63,-264.9 349.29,-536.59 -20.07,-43.82 -36.73,-80.35 -74.96,-110.7 -19.33,-15.37 -12.26,-8.22 -21.58,-13.71l-14.24 -7.47c-323.16,-183.77 -588.1,55.69 -595.05,295.14 -5.47,188.29 168.92,373.33 356.54,373.33z"/>
  <path class="fil0" d="M3005.34 4513.54c0,-162.73 218.52,-165.22 218.52,-15.62 0,187.51 -218.52,137.69 -218.52,15.62zm-249.74 -62.44l0 93.65c0,260.53 423.26,510.84 679.16,150.11 66.85,-94.23 59.4,-335.62 -39.93,-445.95l-158.23 -98.61c-34.12,-12.9 -166.48,-15.59 -230.45,5.05 -115.24,37.18 -250.55,142.61 -250.55,295.75z"/>
  <path class="fil1" d="M1471.42 3044.12c-17.38,13.29 -25.45,42.14 -35.92,66.81 -10.51,24.79 -21.02,50.13 -47.82,54.83 -53.03,9.29 -55.74,-31.43 -59.17,-41.21 -32.81,-3.9 -78.28,-2.45 -112.74,-3.19l-553.66 -12.58c-27.04,-0.63 -87.03,4.24 -98.94,-13.39 -9.14,-13.52 -9.49,-86.32 0.52,-99.7 5.06,-6.77 27.46,-14.62 35.74,-21.89 6.92,-6.06 7.84,-10.85 7.72,-22.29 -2.03,-204.71 174.29,-411.55 400.62,-419.21 -3.37,-11.66 -22.84,-32.15 -27.78,-52.33 -6.4,-26.13 -3.83,-38.22 -25.21,-54.3 -17.19,-12.93 -16.03,-37 -18.46,-61.91 -2.35,-24.15 -4.03,-49.1 -5.06,-73.8 -1.76,-42.77 1.88,-112.58 8.65,-153.35 4.1,-24.71 31.18,-114.01 29.48,-126.72 -12.76,-10.43 -30.91,-5.38 -32.18,-20.64 -3.78,-45.24 74.37,-7.86 121.06,-22.48 23.17,-7.26 45.61,-26.61 54.73,-47.57 9.75,-22.42 -2.03,-25.75 -3.54,-45.05 -1.35,-17.34 6.46,-27.79 0.7,-44.93 -7.88,-23.45 -0.11,-57.56 21.9,-71.45 74.83,-47.2 124.09,59.37 93.36,120.93 -5.99,11.99 -15.74,21.72 -19.7,30.46 -7.93,17.52 6.64,23.13 10.58,36.61 3.24,11.06 0.42,9.65 7.71,17.78 2.47,2.75 9.47,9.54 13.63,11.34 55.51,24.07 102.64,-59.65 142.34,38.07 27.71,68.19 23.49,99 4.12,172.24 -7.55,28.51 -10.01,59.3 -13.35,89.61 -7.37,66.69 -13.26,123.85 0.21,190.79 13.07,64.91 28.59,110.48 21.53,182.36 -1.06,10.88 -4.18,34.15 -9.17,42.44 -9.74,16.19 -26.19,4.7 -40.13,10.27 -23.13,9.24 -4.34,65.25 -13.13,89.38 -10.7,29.38 -59.86,-13 -57.55,46 1.01,25.81 3.26,71.47 7.33,95.41 2.75,16.22 17.82,20.83 33.59,14.81 12.29,-4.69 15.36,-16.72 20.55,-29.62 29.79,-74.19 102.01,-44.35 112.66,1.55 6.71,28.91 11.66,97.35 52.95,102.39 16.99,2.07 24.3,-7.88 36.43,-12.22 29.84,-10.67 45.76,38.26 12.51,46.25 -22.97,5.51 -43.87,-35.92 -77.11,-10.5zm-1202.63 240.42c0,5.77 1.74,7.51 7.51,7.51l1718.61 0c5.77,0 7.51,-1.74 7.51,-7.51l0 -1099.8c0,-91.25 -10.92,-125.41 -31.53,-196.45 -8.49,-29.25 -30.93,-80.19 -46.24,-106.58l-29.59 -48.08c-21.59,-31.14 -43.35,-58.9 -69.89,-85.44 -64.25,-64.25 -114.17,-101.1 -204.38,-141.34 -9.28,-4.13 -18.69,-7.1 -27.07,-10.5 -50.23,-20.46 -135.33,-37.93 -195.07,-37.93l-1129.86 0 0 1726.12z"/>
  <path class="fil1" d="M963.93 2615.3c-19.55,3.1 -61.68,11.04 -73.82,20.41 -18.81,14.51 5.39,50.05 13.14,66.99 8.23,18 53.78,121.85 62.75,127.57 10.19,6.5 28.48,3.92 42,3.7 20.83,-0.32 23.03,-4.45 23.82,-24.82 1.08,-28.06 12.7,-165.52 8.66,-180.64 -4.19,-15.68 -14.43,-15.94 -32.59,-15.88 -16.34,0.06 -28.45,0.22 -43.96,2.67z"/>
  <path class="fil1" d="M827.8 2667.81c-18.67,8.82 -46.12,35.49 -57.67,48.31 -62.54,69.4 -52.75,52.96 95.6,151.87 41.48,27.66 35.84,17.68 63.95,-9.86 19.53,-19.14 6.08,-30.02 -15.09,-69.07 -13.07,-24.11 -24.31,-44.75 -36.63,-68.63 -9.54,-18.5 -24.86,-64.57 -50.16,-52.62z"/>
  <path class="fil1" d="M681.72 2941.32c0,43.86 27.36,33.2 90.63,31.51l101.87 -2.86c9.58,-1.5 7.06,-1.09 11.46,-5.82 6.15,-11.04 5.58,-38.35 3.77,-52.64 -2.51,-4.53 -118.96,-65.98 -133.59,-73.95 -29.25,-15.95 -49.96,-35.64 -62.12,10.04 -7.57,28.47 -12.02,63.13 -12.02,93.72z"/>
  <path class="fil2" d="M681.72 2941.32c0,-30.59 4.45,-65.25 12.02,-93.72 12.16,-45.68 32.87,-25.99 62.12,-10.04 14.63,7.97 131.08,69.42 133.59,73.95 1.81,14.29 2.38,41.6 -3.77,52.64 -4.4,4.73 -1.88,4.32 -11.46,5.82l-101.87 2.86c-63.27,1.69 -90.63,12.35 -90.63,-31.51zm146.08 -273.51c25.3,-11.95 40.62,34.12 50.16,52.62 12.32,23.88 23.56,44.52 36.63,68.63 21.17,39.05 34.62,49.93 15.09,69.07 -28.11,27.54 -22.47,37.52 -63.95,9.86 -148.35,-98.91 -158.14,-82.47 -95.6,-151.87 11.55,-12.82 39,-39.49 57.67,-48.31zm136.13 -52.51c15.51,-2.45 27.62,-2.61 43.96,-2.67 18.16,-0.06 28.4,0.2 32.59,15.88 4.04,15.12 -7.58,152.58 -8.66,180.64 -0.79,20.37 -2.99,24.5 -23.82,24.82 -13.52,0.22 -31.81,2.8 -42,-3.7 -8.97,-5.72 -54.52,-109.57 -62.75,-127.57 -7.75,-16.94 -31.95,-52.48 -13.14,-66.99 12.14,-9.37 54.27,-17.31 73.82,-20.41zm5.46 -605.41c1.7,12.71 -25.38,102.01 -29.48,126.72 -6.77,40.77 -10.41,110.58 -8.65,153.35 1.03,24.7 2.71,49.65 5.06,73.8 2.43,24.91 1.27,48.98 18.46,61.91 21.38,16.08 18.81,28.17 25.21,54.3 4.94,20.18 24.41,40.67 27.78,52.33 -226.33,7.66 -402.65,214.5 -400.62,419.21 0.12,11.44 -0.8,16.23 -7.72,22.29 -8.28,7.27 -30.68,15.12 -35.74,21.89 -10.01,13.38 -9.66,86.18 -0.52,99.7 11.91,17.63 71.9,12.76 98.94,13.39l553.66 12.58c34.46,0.74 79.93,-0.71 112.74,3.19 3.43,9.78 6.14,50.5 59.17,41.21 26.8,-4.7 37.31,-30.04 47.82,-54.83 10.47,-24.67 18.54,-53.52 35.92,-66.81 33.24,-25.42 54.14,16.01 77.11,10.5 33.25,-7.99 17.33,-56.92 -12.51,-46.25 -12.13,4.34 -19.44,14.29 -36.43,12.22 -41.29,-5.04 -46.24,-73.48 -52.95,-102.39 -10.65,-45.9 -82.87,-75.74 -112.66,-1.55 -5.19,12.9 -8.26,24.93 -20.55,29.62 -15.77,6.02 -30.84,1.41 -33.59,-14.81 -4.07,-23.94 -6.32,-69.6 -7.33,-95.41 -2.31,-59 46.85,-16.62 57.55,-46 8.79,-24.13 -10,-80.14 13.13,-89.38 13.94,-5.57 30.39,5.92 40.13,-10.27 4.99,-8.29 8.11,-31.56 9.17,-42.44 7.06,-71.88 -8.46,-117.45 -21.53,-182.36 -13.47,-66.94 -7.58,-124.1 -0.21,-190.79 3.34,-30.31 5.8,-61.1 13.35,-89.61 19.37,-73.24 23.59,-104.05 -4.12,-172.24 -39.7,-97.72 -86.83,-14 -142.34,-38.07 -4.16,-1.8 -11.16,-8.59 -13.63,-11.34 -7.29,-8.13 -4.47,-6.72 -7.71,-17.78 -3.94,-13.48 -18.51,-19.09 -10.58,-36.61 3.96,-8.74 13.71,-18.47 19.7,-30.46 30.73,-61.56 -18.53,-168.13 -93.36,-120.93 -22.01,13.89 -29.78,48 -21.9,71.45 5.76,17.14 -2.05,27.59 -0.7,44.93 1.51,19.3 13.29,22.63 3.54,45.05 -9.12,20.96 -31.56,40.31 -54.73,47.57 -46.69,14.62 -124.84,-22.76 -121.06,22.48 1.27,15.26 19.42,10.21 32.18,20.64z"/>
  <path class="fil1" d="M7172.58 5939.41c0,5.78 1.74,7.52 7.51,7.52l1718.61 0c5.77,0 7.51,-1.74 7.51,-7.52l0 -1099.8c0,-91.24 -10.92,-125.4 -31.53,-196.44 -8.49,-29.26 -30.93,-80.19 -46.24,-106.58l-29.59 -48.08c-21.59,-31.15 -43.34,-58.9 -69.89,-85.44 -64.25,-64.25 -114.17,-101.1 -204.38,-141.34 -9.27,-4.13 -18.69,-7.1 -27.07,-10.51 -50.23,-20.45 -135.33,-37.92 -195.06,-37.92l-1129.87 0 0 1726.11z"/>
  <path class="fil3" d="M8046.3 5131.92l-22.78 41.16c-4.56,-14.39 -2.59,-22.84 -8.69,-37.49l-14.64 -29.82c-1.48,-21.11 -84.66,-193.59 -107.27,-234.38 -40.74,-73.48 -83.13,-144.86 -133.61,-210.34 -14.64,-18.99 -95.08,-114.44 -110.03,-124.09 -10.28,12.49 -12.85,30.69 -7.14,49.17 9.32,30.16 29.59,52.97 49.94,76l4.87 6.75c3.65,5.41 0.77,2.5 5.88,9.04 9.48,12.13 22.66,18.42 33.24,27.46l6.55 8.73c16.27,30.23 42.19,50 60.97,79.73 16.35,25.89 34.21,54.08 44.82,81.77l10.34 19.98c10.89,21.41 19.74,39.55 40.74,50.56 23.29,12.21 24.09,3.3 34.15,30.78 14.11,38.56 60.06,148.97 62.74,187.33 -11.7,-9.2 -85.97,-128.97 -97.54,-151.23l-106 -141.5c-32.87,-38.88 -220.66,-236.95 -254.9,-242.81 -2.31,28.95 13.69,43.63 27.4,65.93l14.19 20.08c8.81,12.96 12.95,23.15 26.45,34.09l23.14 22.57c4.94,6.26 17.62,19.3 24.55,24.78 20.42,16.14 29.37,15.84 52.24,42.25 7.06,8.16 10.38,17.86 18.12,27.88 12.67,16.42 19.31,12.2 27.09,21.61 11.6,14.04 -1.74,13.29 17.03,29.21l32.63 36.36c19.52,27.89 25.01,25.39 35.61,38.82 19.49,24.7 27.33,30.99 59.99,35.09 19.65,42.21 83.06,146.74 93,180.63 -18.25,-9.92 -110.43,-119.26 -125.76,-141.97 -29.33,-43.44 -157.25,-158.83 -202.59,-195.65 -71.2,-57.82 -70.83,-61.83 -152.03,-112.52 -20.71,-12.94 -62.74,-46.38 -85.78,-48.59 10.01,44.77 53.82,69.99 76.41,97.66 34.2,41.87 29.59,22.16 54.32,47.35 15.99,16.29 26.94,15.71 40.23,35.53 18.64,27.81 33.75,26.7 47.13,33.91 5.77,3.11 2.63,7.29 8.92,11.83 11.76,-5.48 10.01,-12.93 24.66,-16.71 -4.28,12.58 -9.24,13.42 -15.15,26.31 11.54,13.83 15.29,14.62 29.13,24.43 17.21,12.21 12.85,22.76 38.42,17.08 -5.94,19.77 -2.22,14.97 13.94,29.09 13.95,12.17 17.23,17.89 29.94,10.15 5.83,10.59 1.05,10.52 12.7,19.22l22.17 15.49c19.32,11.92 27.01,13.63 53.51,13.06 12.36,26.87 37.13,53.92 55.43,78.67 10.79,14.6 51.61,69.1 56.06,81.43 -23.18,-13.83 -123.29,-107.84 -142.86,-130.3 -30.84,-35.39 -112.05,-95.57 -147.73,-124.82 -22.72,-18.63 -131.89,-89.92 -164.75,-106.65 -29.36,-14.95 -163.8,-85.89 -183.51,-89.68 -13.61,23.51 0.31,33.87 15.66,47.83 5.58,5.08 -0.32,1.09 7.85,7.42 4.1,3.19 10.54,6.13 14.33,8.03l36.74 19.25c14.23,4.42 14.06,32.77 57.23,50.1 0.88,0.35 1.9,0.65 2.75,1.02 1.08,0.47 4.11,1.86 5.09,2.41 1.33,0.75 5.34,3.78 6.38,4.6 3.84,3.04 1.69,1.53 5.88,5.15 9.97,8.62 25.92,26.91 37.78,15.97 0.82,0.9 1.85,1.15 2.18,2.94l6.05 10.77c0.23,0.48 0.52,1.67 0.97,2.39 8.93,-6.73 14.58,-13.87 22.65,-19.06 -6.18,11.02 -9.08,13.37 -13.08,25.26 6.77,-2.31 3.44,-2.72 7.96,-6.2 15.17,-11.71 -1.07,-4.33 18.34,-9.93 -6.4,18.48 -8.83,12.32 -12.33,26.1 38.91,26.94 26.33,4.34 48.95,1.16l-13.37 20.57c25.6,1.5 5.64,-2.79 28.23,-11.28 -4.03,19.25 -5.7,8.92 -8.42,23.17 11.87,8.63 24.54,12.99 35.89,20.23 26.62,16.97 14.76,17.63 38.48,7.55 -4.03,23.89 -1.19,18.26 18.21,30.49 24.71,15.59 9.68,8.8 34.18,10.65 -3.11,13.59 -2.19,5.98 2.14,13.05 9.82,1.69 16.53,1.13 19.12,2.71 8.14,4.96 10.17,23.49 64.68,14.99 19.21,28.7 135.7,141.15 144.28,164.39 -52.56,-21.58 -135.81,-105.96 -192.57,-137.32l-127.33 -75.73c-88.05,-49.3 -178.65,-85.84 -269.53,-129.14 -14.85,-7.08 -81.45,-41.19 -88.66,-36.54 -6.46,7.35 -2.15,-1.44 -1.36,7.32 3.17,35.14 16.4,42.33 40.59,61.66 45.04,35.97 32.32,9.39 64.72,33.07 4.96,3.62 6.63,4.49 11.64,7.14 23.32,12.34 12.91,17.01 36.06,5.87 -2.03,18.32 -4.23,8.4 2.48,19.47 12,0.76 1.89,1.75 11.82,-1.54 0.38,-0.13 9.35,-4.71 11.57,-5.77l-5.32 18.96c14.38,-0.79 17.08,0.38 25.65,-4.8l21.33 15.24c21.52,7.6 25.2,-4.66 36.6,-24.05l-13.95 30.17c10.55,13.16 18.53,21.77 33.59,14.9l3.7 13.77c13.19,0.25 5.59,-0.5 19.82,-6.32 -2.11,29.26 4.85,22.87 28.35,35.85 4.84,2.68 15.31,11.31 21.24,13.17 9.13,2.85 10.68,-0.91 13.55,-3.28l6.34 -7.01c-1.17,26.32 -2.62,20.62 49.47,38.34 103.53,35.22 73.1,-8.6 108.96,21.62 21.19,17.86 116.24,93.98 125.24,110.06l-154.16 -75.66c-22.8,-13.34 -52.9,-23.65 -78.49,-34.37 -27.9,-11.7 -52.62,-21.99 -82.22,-33.98 -52.75,-21.36 -120.19,-33 -178.49,-49.53 -23.71,-6.72 -179.13,-29.96 -200.78,-28.84 -1,51.63 13.65,47.43 45.74,67.45 8.66,5.39 17.01,10.98 27.95,14.87l15.87 -13.49c0.89,11.4 -0.89,7.94 3.63,15.46 0.39,0.64 1.07,1.55 1.53,2.12 3.07,3.8 19.22,14.96 46.07,16.66 8.95,0.56 11.73,-1.06 21.55,-0.27 11.89,0.96 6.74,0.82 18.76,4.53 21.64,6.67 25.38,10.23 31.51,-5.3 9.61,12.45 13.89,22.48 30.99,4.81l2.7 6.13c7.1,11.87 15.68,21.47 34.23,2.84 5.13,6.66 4.32,8.65 11.09,11.07 4.06,-6.66 8,-11.76 11.86,-18.01l2.33 22.88c64.41,5.07 34.92,7.05 73.43,18.18 13.68,3.95 9.94,5.99 19.63,-6.01 -0.38,32.93 9.3,12.63 22.58,29.74l10.74 -10.48 7.17 16.75 47.4 8.68c23.36,-0.33 37.3,-16.91 45.13,-32.58 55.99,28.41 122.64,78.19 170.48,119.67 15.39,13.34 8.67,13.29 20.09,29.32 8.72,12.23 17.49,15.37 24.57,25.32l63.26 -0.09c18.65,-10.92 27.48,-33.98 36.33,-45.16 19.6,-24.77 137.94,-103.24 165.26,-119.75 22.94,16.22 30.5,27.9 63.34,21.3 27.56,-5.53 6.27,3.03 58.96,-15.58 16.44,-5.8 30.71,-15.92 47.73,-19.25l57.48 -17.4c0.54,-0.26 1.61,-0.64 2.13,-0.86 12.88,-5.47 -0.25,6.52 14.15,-13.45 0.63,0.75 1.39,1.12 1.68,2.42 1.85,8.31 11.23,7.87 16.48,5.45l59.27 -16.47c13.41,-3.93 2.48,-1.24 12.28,-5.64l16.92 0.42c11.84,3.2 8.22,4.59 22.78,2.17 15.75,-2.62 30.08,-7.25 40.64,-15.57 0.99,-0.78 8.22,-9.39 9.96,-3.93 4.89,15.39 89.99,-29.91 99.01,-38.87 0.3,-13.25 -3.68,-21.3 -8.35,-32.31 -54.05,0.16 -158.59,4.98 -203.04,18.1 -59.69,17.61 -118.22,28.07 -171.85,52.29 -103.31,46.66 -195.42,94.39 -296.6,147.21 13.11,-4.56 96.99,-75.67 118.52,-93.3 34.54,-28.27 15.92,-6.77 53.38,-7.94 22.7,-0.71 41.16,-18.68 60.28,-28.2l35.24 -21.81c31.19,-20.95 38.57,-22.31 70.92,-33.76 12.78,-4.52 12.08,-11.58 18.15,-21.87 8.19,6.96 3.29,7.61 16.96,8.58l1.51 -18.59c4.32,9.34 4.73,14.93 20.05,10.56 15.93,-4.56 13.08,-10.55 11.8,-26.88 1.07,0.49 2.45,0.49 2.93,2.04 0.45,1.46 2.18,1.55 2.76,1.92 12.81,8.09 4.13,2.83 15.32,1.14l11.72 -4.11c12.29,-5.47 26.51,-5.55 39.38,-11.95 18.64,-9.27 27.08,-1.64 47.04,-7.82 38.51,-11.94 18.4,-13.79 29.99,-32.84 3.47,3.76 1.99,1.95 5.52,7.53 2.83,4.48 2.74,5.56 5.56,9.99 22.87,-9.79 49.45,-25.35 67.09,-46.01 8.15,-9.53 11.91,-11.87 8.08,-29.58 -20.97,-4.46 -177.77,32.96 -193.14,40.71 -53.36,26.91 -109.2,49.45 -159.43,81.49l-218.07 144.06c-20.32,13.27 -57.83,40.92 -79.8,49.02 7.23,-12.17 29.58,-35.17 39.38,-44.76l79.55 -79.88c30.47,-33.49 13.09,-20.27 53.69,-20.31 37.63,-0.04 80.49,-33.71 107.54,-55.48l48.22 -31.1c17.25,-7.57 11.86,-2.76 24.14,-16.5l3.11 -3.28c15.03,-13.41 -3.08,3.84 5.07,-3.26 0.33,-0.29 1.24,-0.87 1.56,-1.2l6.17 -11.63c11.08,14.06 25.47,8.05 24.95,-12.79 27.84,11.38 -4.49,-9.46 22.66,1.89l-2.86 -19.53c10.51,11.44 1.43,7.48 14.34,11.13 6.82,-4.85 18.99,-10.99 26.39,-15.05 6.75,-3.69 -0.41,-1.07 7.8,-3.71 21.48,-6.91 52.48,-7.13 61.88,-27.84l6.28 -16.39c2.89,-5.09 2.91,-4.24 4.77,-6.75 9.64,13.13 -0.07,7.61 11.08,16.29l76.22 -61.16c13.78,-14.12 7.57,-19.27 0.29,-32.18 -10.29,0.49 -178.89,64.36 -192.16,71.75 -60.23,33.52 -224.12,145.87 -279.7,192.03 -52.75,43.83 -132.21,129.23 -186.23,157.06 13.12,-25.45 46.47,-65.43 64.1,-86.74l67.26 -84.92c40.8,-0.66 57.58,-4.89 85.54,-27.06l10.71 -8.12c0.57,-0.5 1.38,-1.28 1.92,-1.8l50.92 -44.12c27.54,-17.44 42.33,-42.34 70.46,-57.85 0.76,-0.42 1.72,-0.94 2.52,-1.33 18.28,-8.84 55.62,-17.75 47.14,-43.42 33.86,8.12 32.15,-13.23 56.35,-23.45 0.92,-0.38 1.95,-0.63 2.9,-0.97 30.59,-10.9 54.65,-35.68 76.19,-59.3 43.75,-48 46.64,-87.92 12.9,-69l-142.02 84.94c-33.59,21.32 -119.36,84.83 -148.64,112.11 -30.37,28.31 -107.8,99.02 -129,129.06 -13.93,19.75 -109.46,124.27 -128.2,136.26 5.3,-14.17 89.34,-158.14 105.01,-161.36 21.1,-4.35 33.12,-6.14 49.08,-21.52 14.24,-13.71 23.56,-7.67 15.06,-31.17 22.18,5.33 16.65,5.91 29.66,-11.45 13.88,-18.5 14.74,-8.15 12.35,-29.77 22.41,-0.48 17.56,-7.21 23.29,-14.36 16.96,-21.18 33.46,-18.26 22.42,-46.41 21.71,0.9 20.38,4.07 15.84,-14.21 24.51,0.54 35.33,-19.32 45.17,-38.56l16.14 -22.2c39.73,-36.46 28.82,-24.49 67.78,-53.43l13.86 -14.3c9,-15.33 20.51,-9.68 47.93,-49.09 0.47,-0.67 1.11,-1.61 1.59,-2.27 16.38,-22.46 30.49,-44.44 11.93,-72.19 -12.11,3.91 -117.17,98.02 -137.25,115.49 -49.37,42.94 -79.3,79.42 -125.54,128.86 -32.82,35.1 -78.47,103.77 -108.72,146.64l-53.58 75.93c-20.5,26.37 -38.53,53.31 -57.61,70.22 16.51,-54.55 52.64,-120.52 76.39,-175.08 16.82,-38.65 27.72,-2.7 62.44,-63.72 7.78,-13.66 8.94,-5.61 0.13,-18.17 18.82,1.47 16.9,-3.76 26.14,-19.4 8.95,-15.16 23.37,-25.36 26.96,-43.34 3.06,-15.32 8.56,-12.81 14.49,-22.23 6.9,-10.98 5.41,-3.15 -1.63,-17.66 27.16,-1.67 32.75,-40.84 39.89,-48.65 8.88,-9.71 2.2,7.22 6.89,-6.71 0.58,-1.7 6.56,3.21 -3.39,-15.23 23.55,2.66 19.18,-11.76 25.86,-27.73 2.78,-6.66 1.36,-2.25 9.73,-8.71 16.51,-12.73 23.8,-34.03 34.36,-49.73 5.62,-8.37 69.48,-65.58 38.85,-103.83 -16.18,6.05 -92.81,108.24 -108.82,127.08 -36.19,42.6 -152.28,252.27 -173.74,300.01 -21.52,47.85 -64.97,107.72 -81.31,153.98z"/>
  <path class="fil3" d="M8000.19 5118.88l14.64 29.82c6.1,14.65 4.13,23.1 8.69,37.49l22.78 -41.16c-6.59,-8.33 -1.04,-15.52 4.81,-39.64 4.08,-16.8 7.42,-29.78 12.45,-44.96l35.54 -114.91c4.6,-8.08 0.95,-3.76 7.73,-8.08 18.29,-11.65 17.16,-1.84 32.42,-23.46 15.12,-21.41 26.76,-48.07 35.68,-78.97 4.95,-17.14 9.26,-20.18 14.9,-38.9 4.41,-14.65 8.28,-29.67 13.67,-44.25 19.91,-53.91 23.46,-71.47 51.29,-117.88 7.73,-12.88 12.36,-23.56 18.69,-38.89 10.15,-24.57 27.29,-64.61 8.6,-86.62 -13.29,5.7 -2.7,-4.33 -13.22,11.67 -3.99,6.07 -6.07,12.31 -8.99,17.79l-55.15 102.06c-23.21,44.2 -39.87,102.2 -57.48,149.57 -32.88,88.43 -81.97,214.11 -110.13,303.67 -6.08,-14.01 15,-136.67 18.39,-162.75 5.73,-44 20.6,-15.36 31.87,-59.5l23.06 -166.43c1.87,-60.58 76.47,-202.83 25.18,-215.66 -80.61,239.39 -85.56,477.06 -102.78,531.56 -1.53,-3.3 -20.13,-259.58 -23.39,-291.61 -14.14,-138.68 -16.83,-123.08 -36.53,-233.79 -0.56,-3.16 -2.06,-13.31 -2.8,-15.62 -5.98,-18.8 2.1,-8.12 -10.57,-14.63 -22.55,25.35 3.75,115.51 8.77,148.75 9.1,60.25 17,227.68 31.34,266.94 17.18,47.06 17.05,-9.65 17,113.08 -0.01,15.95 7.31,64.95 -1.7,77.84 -16.96,-48.01 -22.7,-110.75 -38.31,-158.99 -24.94,-77.13 -77.89,-223.11 -111.2,-288.01l-50.58 -98.68c-6.94,-13.8 -7.48,-24.1 -21.53,-29.56 -12.78,11 -13.47,15.26 -0.64,56.94 29.88,97.07 58.35,143.74 94.37,224.52 8.31,18.62 15,36.67 21.8,58.22l23.93 56.97c11.5,19.14 19.41,29.15 40.33,39.34 3.84,33.96 11.93,63.88 17.25,95.92l15.69 80.33c-2.49,15.34 6.78,0.74 -5.87,10.47z"/>
  <polygon class="fil3 str0" points="8751.28,5432.31 8751.3,5397.05 8027.69,5396.99 8020.43,5397.01 8013.17,5397.05 7393.61,5397.07 7383.94,5396.89 7383.96,5432.26 "/>
  <path class="fil4" d="M7282.18 6255.44l0 -155.77 -63.32 0 0 -35.59 177.07 0 0 35.59 -63.32 0 0 155.77 -50.43 0zm125.28 0l0 -191.36 128.04 0 0 35.31 -80.13 0 0 38.94 76.49 0 0 35.58 -76.49 0 0 45.67 82.37 0 0 35.86 -130.28 0zm222.54 -112.07c9.02,0 15.69,-1.82 20.08,-5.41 4.35,-3.6 6.54,-9.06 6.54,-16.44 0,-7.01 -2.29,-12.42 -6.82,-16.2 -4.57,-3.79 -11.06,-5.65 -19.56,-5.65l-22.93 0 0 43.7 22.69 0zm-70.88 112.07l0 -191.36 70.6 0c25.92,0 45.06,4.72 57.53,14.11 12.47,9.38 18.68,23.72 18.68,43.1 0,19.84 -6.68,34.74 -19.98,44.59 -13.31,9.85 -33.35,14.75 -60.05,14.75l-18.59 0 0 74.81 -48.19 0zm204.34 -95.54c0,17.05 5.13,31.1 15.36,42.07 10.27,10.98 23.35,16.49 39.22,16.49 15.92,0 29.05,-5.51 39.32,-16.49 10.23,-10.97 15.36,-25.02 15.36,-42.07 0,-17.14 -5.13,-31.24 -15.36,-42.26 -10.27,-11.06 -23.4,-16.57 -39.32,-16.57 -15.87,0 -28.95,5.51 -39.22,16.57 -10.23,11.02 -15.36,25.12 -15.36,42.26zm-49.31 0c0,-14.24 2.52,-27.36 7.51,-39.46 5.05,-12.09 12.52,-22.88 22.46,-32.35 9.67,-9.11 20.64,-15.93 32.92,-20.36 12.28,-4.49 25.92,-6.73 41,-6.73 15.22,0 29,2.24 41.33,6.77 12.32,4.53 23.3,11.3 32.96,20.32 9.86,9.47 17.33,20.26 22.37,32.35 5.09,12.1 7.61,25.22 7.61,39.46 0,14.15 -2.52,27.23 -7.61,39.32 -5.04,12.09 -12.51,22.79 -22.37,32.08 -9.76,9.1 -20.82,15.97 -33.2,20.59 -12.32,4.62 -26.05,6.91 -41.09,6.91 -14.99,0 -28.58,-2.29 -40.86,-6.82 -12.28,-4.57 -23.3,-11.48 -33.06,-20.68 -9.85,-9.29 -17.32,-19.99 -22.36,-32.08 -5.09,-12.09 -7.61,-25.17 -7.61,-39.32zm209.05 95.54l105.3 -155.77 -96.61 0 0 -35.59 178.18 0 -104.55 154.38 103.99 0 0 36.98 -186.31 0zm247.16 0l0 -155.77 -63.32 0 0 -35.59 177.07 0 0 35.59 -63.32 0 0 155.77 -50.43 0zm125.28 0l0 -191.36 47.91 0 0 154.38 82.37 0 0 36.98 -130.28 0zm198.41 -70.04l56.5 0 -26.81 -72.85 -29.69 72.85zm-80.13 70.04l83.44 -191.36 55.24 0 74.53 191.36 -50.76 0 -13.68 -37.26 -82.47 0 -15.31 37.26 -50.99 0zm264.57 -120.24l0 120.24 -47.35 0 0 -191.36 41.98 0 102.59 114.08 0 -114.08 47.35 0 0 191.36 -37.5 0 -107.07 -120.24zm181.27 119.12c-4.16,-1.26 -7.43,-3.78 -9.86,-7.52 -2.38,-3.73 -3.59,-8.17 -3.59,-13.26 0,-6.72 2.38,-12.51 7.1,-17.37 4.76,-4.81 10.55,-7.24 17.37,-7.24 7.93,0 14.24,2.66 18.91,7.99 4.71,5.37 7.05,12.56 7.05,21.71 0,14.38 -4.86,27.04 -14.52,37.96 -9.67,10.88 -22.14,17.56 -37.36,20.03l0 -8.07c5,-5.47 8.73,-10.84 11.21,-16.16 2.47,-5.28 3.69,-10.65 3.69,-16.11l0 -1.96zm-1426.24 336.95l0 -191.36 42.26 0 61.4 77.05 61.69 -77.05 42.26 0 0 191.36 -47.07 0 0 -118.42 -56.88 69.95 -56.31 -69.95 0 118.42 -47.35 0zm275.74 -95.54c0,17.05 5.13,31.1 15.36,42.07 10.27,10.98 23.35,16.49 39.22,16.49 15.92,0 29.05,-5.51 39.32,-16.49 10.23,-10.97 15.36,-25.02 15.36,-42.07 0,-17.14 -5.13,-31.24 -15.36,-42.26 -10.27,-11.06 -23.4,-16.57 -39.32,-16.57 -15.87,0 -28.95,5.51 -39.22,16.57 -10.23,11.02 -15.36,25.12 -15.36,42.26zm-49.31 0c0,-14.24 2.52,-27.36 7.51,-39.46 5.05,-12.09 12.52,-22.88 22.46,-32.35 9.67,-9.11 20.64,-15.93 32.92,-20.36 12.28,-4.49 25.92,-6.73 41,-6.73 15.22,0 29,2.24 41.33,6.77 12.32,4.53 23.3,11.3 32.96,20.32 9.86,9.47 17.33,20.26 22.37,32.35 5.09,12.1 7.61,25.22 7.61,39.46 0,14.15 -2.52,27.23 -7.61,39.32 -5.04,12.09 -12.51,22.79 -22.37,32.08 -9.76,9.1 -20.82,15.97 -33.2,20.59 -12.32,4.62 -26.05,6.91 -41.09,6.91 -14.99,0 -28.58,-2.29 -40.86,-6.82 -12.28,-4.57 -23.3,-11.48 -33.06,-20.68 -9.85,-9.29 -17.32,-19.99 -22.36,-32.08 -5.09,-12.09 -7.61,-25.17 -7.61,-39.32zm299.03 -17.37c8.87,0 15.46,-1.87 19.8,-5.56 4.34,-3.68 6.49,-9.29 6.49,-16.85 0,-7.19 -2.24,-12.7 -6.77,-16.49 -4.53,-3.78 -11.02,-5.65 -19.52,-5.65l-23.02 0 0 44.55 23.02 0zm-70.93 112.91l0 -191.36 70.65 0c25.96,0 45.16,4.53 57.58,13.55 12.37,9.01 18.58,23.02 18.58,41.97 0,10.56 -2.75,19.62 -8.22,27.13 -5.46,7.52 -13.82,13.87 -25.12,19.06 4.76,1.72 9.01,4.62 12.8,8.68 3.78,4.06 7.05,9.2 9.89,15.41l30.54 65.56 -54.02 0 -24.38 -55.15c-3.92,-8.78 -8.4,-14.8 -13.4,-18.07 -5.04,-3.31 -12.14,-4.95 -21.39,-4.95 -0.7,0 -1.68,0.05 -2.84,0.14 -1.22,0.1 -2.11,0.14 -2.76,0.14l0 77.89 -47.91 0zm172.58 0l0 -191.36 128.04 0 0 35.31 -80.13 0 0 38.94 76.49 0 0 35.58 -76.49 0 0 45.67 82.37 0 0 35.86 -130.28 0zm151.66 0l0 -191.36 47.91 0 0 154.38 82.37 0 0 36.98 -130.28 0zm172.45 -95.54c0,17.05 5.13,31.1 15.36,42.07 10.27,10.98 23.35,16.49 39.22,16.49 15.92,0 29.05,-5.51 39.32,-16.49 10.23,-10.97 15.36,-25.02 15.36,-42.07 0,-17.14 -5.13,-31.24 -15.36,-42.26 -10.27,-11.06 -23.4,-16.57 -39.32,-16.57 -15.87,0 -28.95,5.51 -39.22,16.57 -10.23,11.02 -15.36,25.12 -15.36,42.26zm-49.31 0c0,-14.24 2.52,-27.36 7.51,-39.46 5.05,-12.09 12.52,-22.88 22.46,-32.35 9.67,-9.11 20.64,-15.93 32.92,-20.36 12.28,-4.49 25.92,-6.73 41,-6.73 15.22,0 29,2.24 41.33,6.77 12.32,4.53 23.3,11.3 32.96,20.32 9.86,9.47 17.33,20.26 22.37,32.35 5.09,12.1 7.61,25.22 7.61,39.46 0,14.15 -2.52,27.23 -7.61,39.32 -5.04,12.09 -12.51,22.79 -22.37,32.08 -9.76,9.1 -20.82,15.97 -33.2,20.59 -12.32,4.62 -26.05,6.91 -41.09,6.91 -14.99,0 -28.58,-2.29 -40.86,-6.82 -12.28,-4.57 -23.3,-11.48 -33.06,-20.68 -9.85,-9.29 -17.32,-19.99 -22.36,-32.08 -5.09,-12.09 -7.61,-25.17 -7.61,-39.32zm223.9 80.32l0 -42.5c14.43,8.97 26.57,15.18 36.47,18.78 9.9,3.55 19.47,5.32 28.81,5.32 9.38,0 16.48,-1.45 21.34,-4.3 4.81,-2.89 7.24,-7.14 7.24,-12.79 0,-4.58 -1.5,-8.27 -4.53,-11.02 -2.99,-2.8 -10,-6.12 -21.02,-9.95 -27.27,-9.57 -46.04,-19.38 -56.31,-29.37 -10.23,-9.99 -15.36,-22.74 -15.36,-38.24 0,-16.34 6.67,-29.61 20.03,-39.83 13.35,-10.23 30.72,-15.32 52.16,-15.32 10.83,0 21.76,1.31 32.68,3.97 10.93,2.66 21.76,6.54 32.41,11.63l0 39.32c-12.84,-6.5 -24.37,-11.3 -34.6,-14.39 -10.18,-3.13 -19.47,-4.67 -27.88,-4.67 -9.1,0 -16.06,1.31 -20.82,3.97 -4.81,2.66 -7.19,6.45 -7.19,11.35 0,4.02 2.14,7.8 6.44,11.3 4.25,3.55 10.74,6.86 19.38,10.09 1.82,0.74 4.62,1.77 8.36,3.12 18.25,6.78 31.33,12.57 39.27,17.38 8.31,5.08 14.57,11.67 18.82,19.7 4.24,8.03 6.35,17.42 6.35,28.16 0,17.69 -6.68,31.56 -20.04,41.7 -13.4,10.13 -31.94,15.17 -55.66,15.17 -11.86,0 -23.3,-1.54 -34.41,-4.62 -11.07,-3.13 -21.71,-7.75 -31.94,-13.96z"/>
  <path class="fil4" d="M709.37 3595.28c-11.68,8.78 -24.05,15.27 -37.17,19.52 -13.08,4.25 -27.41,6.35 -43.01,6.35 -15.08,0 -28.9,-2.29 -41.51,-6.91 -12.56,-4.62 -23.49,-11.3 -32.69,-20.03 -9.66,-9.2 -17.04,-19.99 -22.08,-32.27 -5.09,-12.32 -7.61,-25.54 -7.61,-39.69 0,-29.84 9.94,-53.79 29.79,-71.95 19.84,-18.17 46.13,-27.23 78.91,-27.23 11.96,0 23.77,1.4 35.44,4.25 11.68,2.8 23.58,7.19 35.72,13.12l0 42.03c-12.7,-6.49 -24.74,-11.35 -36.28,-14.52 -11.48,-3.23 -22.22,-4.81 -32.26,-4.81 -19.38,0 -34.51,5.23 -45.53,15.73 -10.97,10.51 -16.48,24.94 -16.48,43.38 0,17.98 5.23,32.27 15.73,42.91 10.46,10.6 24.56,15.93 42.26,15.93 4.72,0 9.43,-0.52 14.06,-1.5 4.67,-1.02 9.29,-2.47 13.96,-4.39l0 -24.09 -26.34 0 0 -35.86 75.09 0 0 80.03zm33.47 22.51l0 -191.36 128.04 0 0 35.31 -80.13 0 0 38.94 76.49 0 0 35.58 -76.49 0 0 45.67 82.37 0 0 35.86 -130.28 0zm208.3 -120.24l0 120.24 -47.35 0 0 -191.36 41.98 0 102.59 114.08 0 -114.08 47.35 0 0 191.36 -37.5 0 -107.07 -120.24zm182.15 120.24l0 -191.36 128.04 0 0 35.31 -80.13 0 0 38.94 76.49 0 0 35.58 -76.49 0 0 45.67 82.37 0 0 35.86 -130.28 0zm233 -112.91c8.87,0 15.46,-1.87 19.8,-5.56 4.34,-3.68 6.49,-9.29 6.49,-16.85 0,-7.19 -2.24,-12.7 -6.77,-16.49 -4.53,-3.78 -11.02,-5.65 -19.52,-5.65l-23.02 0 0 44.55 23.02 0zm-70.93 112.91l0 -191.36 70.65 0c25.96,0 45.16,4.53 57.58,13.55 12.37,9.01 18.58,23.02 18.58,41.97 0,10.56 -2.75,19.62 -8.22,27.13 -5.46,7.52 -13.82,13.87 -25.12,19.06 4.76,1.72 9.01,4.62 12.8,8.68 3.78,4.06 7.05,9.2 9.89,15.41l30.54 65.56 -54.02 0 -24.38 -55.15c-3.92,-8.78 -8.4,-14.8 -13.4,-18.07 -5.04,-3.31 -12.14,-4.95 -21.39,-4.95 -0.7,0 -1.68,0.05 -2.84,0.14 -1.22,0.1 -2.11,0.14 -2.76,0.14l0 77.89 -47.91 0zm237.63 -70.04l56.5 0 -26.81 -72.85 -29.69 72.85zm-80.13 70.04l83.44 -191.36 55.24 0 74.53 191.36 -50.76 0 -13.68 -37.26 -82.47 0 -15.31 37.26 -50.99 0zm226.51 0l0 -191.36 47.91 0 0 154.38 82.37 0 0 36.98 -130.28 0zm-926.89 265.79l56.5 0 -26.81 -72.85 -29.69 72.85zm-80.13 70.04l83.44 -191.36 55.24 0 74.53 191.36 -50.76 0 -13.68 -37.26 -82.47 0 -15.31 37.26 -50.99 0zm273.86 -120.24l0 120.24 -47.35 0 0 -191.36 41.98 0 102.59 114.08 0 -114.08 47.35 0 0 191.36 -37.5 0 -107.07 -120.24zm237.91 50.2l56.5 0 -26.81 -72.85 -29.69 72.85zm-80.13 70.04l83.44 -191.36 55.24 0 74.53 191.36 -50.76 0 -13.68 -37.26 -82.47 0 -15.31 37.26 -50.99 0zm254.39 0l0 -86.57 -75.36 -104.79 57.43 0 42.03 61.97 43.1 -61.97 56.92 0 -76.21 104.51 0 86.85 -47.91 0zm164.65 -70.04l56.5 0 -26.81 -72.85 -29.69 72.85zm-80.13 70.04l83.44 -191.36 55.24 0 74.53 191.36 -50.76 0 -13.68 -37.26 -82.47 0 -15.31 37.26 -50.99 0z"/>
  <path class="fil5" d="M7732.98 5584.35l0.07 -85.65c28.42,4.26 30.39,8.24 30.63,40.5 0.24,32.09 0.66,43.75 -30.7,45.15zm-32.83 -83.79l0.39 186.76c-7.73,-0.03 -11.27,-1.03 -16.41,1.88 6.36,2.35 65.02,2.6 71.41,0l-22.42 -2.26 -0.13 -99.25c21.27,-0.25 38.72,-3.14 51.06,-14.84 12.24,-11.6 18.74,-33.97 7.1,-52.99 -18.36,-29.99 -66.89,-25.23 -107.89,-23.77 7.86,4.84 8.38,0.48 16.89,4.47z"/>
  <path class="fil5" d="M8401.48 5499.26c28.8,1.2 30.13,11.45 30.5,42.41 0.35,29.44 -1.88,41.31 -30.7,42.61l0.2 -85.02zm-32.57 3.72l0.05 184.38c-8.06,-0.07 -11.42,-1.06 -16.67,1.84l49.07 -2.28 -0.06 -99.35c80.67,0.33 77.68,-69.38 34.82,-86.52 -19.36,-7.74 -60.43,-5.32 -84.93,-5.16l3.83 1.39c16.79,4.38 9.08,-2.2 13.89,5.7z"/>
  <path class="fil5" d="M8001.74 5553.69c13.62,-16.81 -3.16,-53.97 55.35,-53.96 -6.32,32.4 -63.74,175.78 -63.15,190.46l93.19 0.24c1.2,-11.91 2.45,-59.85 -0.7,-67.99 -7.46,2.2 -1.44,-6.01 -8.19,21.92 -7.83,32.39 -21.56,41.35 -53.39,42.43l65.64 -190.93 -91.37 -0.2 2.62 58.03z"/>
  <path class="fil5" d="M8611.31 5517.5c-0.32,26.55 -12.94,48.8 -24.68,61.78 -2.4,2.65 -42.77,43.99 -53.49,19.83 -8.91,-20.1 8.06,-57.97 16.5,-68.59 17.53,-22.06 32.12,-18.71 61.67,-13.02zm-10.01 58.96c-1.08,14.3 -6.75,30.43 -3.35,43.49 11.19,21.85 63.38,-19.84 56.13,-35.03 -12.37,5.91 -11.26,23.76 -31.86,22.36 -0.12,-34.56 15.72,-75.87 17.43,-105.96 -142.33,-22.89 -168.91,149.02 -96.69,121.33 13.06,-5.01 21.49,-12.22 31.43,-20.06 11.32,-8.93 16.74,-18.5 26.91,-26.13z"/>
  <path class="fil5" d="M8177.99 5622.14c-4.09,6.51 -4.45,61.64 0,68.35 7.98,-6.66 1.45,-18.05 14.57,-14.63 3.08,0.8 41.12,33.67 70.35,3.89 30.48,-31.06 -3.45,-72.67 -19.57,-90.95 -9.82,-11.14 -60.97,-55.11 -46.65,-80.56 9.4,-16.73 45.33,-19.67 61.3,33.49 2.88,9.58 0.41,8.73 6.98,11.9l0 -57.84c-6.88,4.59 -2.54,5.61 -7.29,13.63 -16.95,-2.25 -17.15,-17 -47.7,-14.18 -17.11,1.57 -31.03,13.59 -33.83,30.01 -5.66,33.18 32.22,66.57 45.44,81.61 8.51,9.7 58.77,69.35 16.72,80.85 -44.38,12.14 -50.81,-60.12 -60.32,-65.57z"/>
  <path class="fil5" d="M7891.38 5511.63c53.75,-14.56 47.86,86.86 4.18,96.69 -53.3,11.99 -48.67,-84.63 -4.18,-96.69zm12.12 -14.21c-76.88,19.29 -105.24,147.16 -17.78,124.78 27.02,-6.91 54.56,-36.6 64.07,-60.54 16.38,-41.2 -1.49,-75.48 -46.29,-64.24z"/>
  <path class="fil5" d="M7552.24 5561.46c2.13,-17.19 7.82,-27.61 16.7,-36.94 27.3,-28.71 60.92,5.84 24.52,28.4 -13.34,8.26 -23.29,9.91 -41.22,8.54zm75.49 19.78c-5.18,0.98 -3.04,-0.02 -8.36,6.16 -8.26,9.58 -13.23,17.72 -29.58,20.15 -24.74,3.69 -35.07,-6.99 -37.58,-30.43 28.98,-4.8 71.6,-29.55 76.35,-55.26 5.46,-29.61 -20.35,-28.68 -39,-21.38 -40.79,15.97 -88.54,96.08 -43.22,120.94 16.36,8.97 37.13,3.38 50.63,-4.3 12.13,-6.89 33.59,-21.27 30.76,-35.88z"/>
  <path class="fil5" d="M7830.07 5689.31c40.61,-35.45 84.31,32.39 132.81,-14.62 -3.04,-7.94 -7.66,-10.77 -13.78,-15.01 -13.96,4.88 -11.85,12.69 -34.35,10.66 -16.79,-1.52 -85.56,-31.28 -100.72,6.77 5.93,5.97 9.21,8.95 16.04,12.2z"/>
  <path class="fil5" d="M8511.48 5689.17c11.72,-4.52 16.83,-13.11 34.46,-11.37 11.08,1.1 24.31,6.49 34.7,9.1 11.77,2.95 24.48,5.93 37.71,3.18 16.15,-3.35 19.29,-8.86 29.36,-14.56 -4.15,-9.59 -9.1,-12.25 -17.39,-15.89 -34.49,36.91 -86.47,-32.57 -131.74,15.06 1.59,3.04 0.25,0.9 2.94,4.09l9.96 10.39z"/>
  <path class="fil5" d="M7389.57 5550.54c10.29,-7.29 2.28,-47.72 36.96,-53.53l0.14 187.09 32.05 -0.57 0.1 -186.04c28.94,1.43 31.27,41.96 32.97,46.43 2.67,7.05 -1.15,4.39 5.36,6.05l1.34 -56.16 -111.54 -1.32c-0.37,11.34 -2.13,45.78 1.78,56.4 0.14,0.4 0.47,1.16 0.84,1.65z"/>
  <path class="fil5" d="M7524.86 5689.55c14.15,-6.41 14.75,-13.63 35.33,-10.17 12.07,2.03 23.02,6.57 34.85,9.58 26.68,6.78 51.06,3.39 64.34,-15.36 -4.44,-4.01 -9.22,-8.88 -15.5,-12.31 -29.86,18.55 -35.5,10.66 -69.7,1.19 -32.78,-9.08 -44.29,-2.37 -64.68,13.67 5.87,7.16 6.5,8.06 15.36,13.4z"/>
  <path class="fil0" d="M2320.53 861.47c265.35,0 480.45,215.1 480.45,480.45 0,265.34 -215.1,480.44 -480.45,480.44 -265.34,0 -480.44,-215.1 -480.44,-480.44 0,-265.35 215.1,-480.45 480.44,-480.45z"/>
  <path class="fil0" d="M6649.27 6198.05c265.34,0 480.44,215.1 480.44,480.44 0,265.35 -215.1,480.44 -480.44,480.44 -265.35,0 -480.45,-215.09 -480.45,-480.44 0,-265.34 215.1,-480.44 480.45,-480.44z"/>
 </g>
</svg>
