<?xml version="1.0" encoding="UTF-8"?>
<!DOCTYPE svg PUBLIC "-//W3C//DTD SVG 1.1//EN" "http://www.w3.org/Graphics/SVG/1.1/DTD/svg11.dtd">
<!-- Creator: CorelDRAW 2017 -->
<svg xmlns="http://www.w3.org/2000/svg" xml:space="preserve" width="7.8738mm" height="7.8738mm" version="1.1" style="shape-rendering:geometricPrecision; text-rendering:geometricPrecision; image-rendering:optimizeQuality; fill-rule:evenodd; clip-rule:evenodd"
viewBox="0 0 787.38 787.38"
 xmlns:xlink="http://www.w3.org/1999/xlink">
 <defs>
  <style type="text/css">
   <![CDATA[
    .fil0 {fill:none}
    .fil1 {fill:black}
   ]]>
  </style>
 </defs>
 <g id="Capa_x0020_1">
  <metadata id="CorelCorpID_0Corel-Layer"/>
  <rect class="fil0" x="-0" y="-0" width="787.39" height="787.39"/>
  <path class="fil1" d="M413.68 524.42l98.4 0 0 12.3 -89.18 0c-9.58,0 -8.12,-3.67 -9.22,-12.3zm67.65 -101.48l107.62 0c-8.99,-16.99 -23.62,-30.75 -49.19,-30.75l-3.08 0c-30.09,0 -44.88,10.96 -55.35,30.75zm9.22 -126.07c0,8.89 -0.68,-7.55 7.31,14.21 19.39,52.78 58.27,37.56 70.74,2.33 0.71,-2.01 2.36,-6.75 3.4,-8.9 4.49,-9.2 4.65,-0.84 4.65,-7.64 0,-64.08 -86.1,-64.51 -86.1,0zm264.45 -21.53l0 60.16c-2,12.59 -7.58,19.79 -21.52,19.79 -56.4,0 -43.05,-2.13 -43.05,-92.25 6.52,-4.37 15.37,-6.67 15.37,-15.38 0,-25.97 -10.16,-42.31 -43.05,-43.05l15.38 369.01 12.3 0 0 73.8c-18.89,1.57 -8.93,3.07 -39.98,3.07 0,50.14 3.29,57.54 -36.84,58.43l-43.11 0c-45.42,0 -30.99,-47.49 -30.74,-58.43l-279.83 0c0,52.57 3.26,57.99 -47.45,58.43l-32.5 0c-43.51,0 -34.11,-51.43 -30.75,-58.43 -10.21,0 -21.06,0.48 -31.1,0.35 -24.32,-0.33 -18.1,1.7 -18.1,-77.22l12.3 0 3.23 -208.94c4.29,-51.83 9.07,-104.46 9.07,-160.07 -37.28,0.84 -43.05,21.39 -43.05,49.21 23.82,6.36 18.45,40.1 18.45,70.72 0,43.56 -49.77,31.71 -64.58,24.6 -1.58,-6.79 -3.03,-7.06 -3.07,-14.99l0 -0.38 0 -60.96c2,-12.96 8.11,-18.63 24.6,-18.99 0,-44.23 13.94,-61.68 49.23,-70.7 30.56,-7.82 16.99,-1.13 25.74,-32.68 4.18,-15.09 12.56,-27.81 23.24,-35.19 26.9,-18.6 149.62,-36.71 200.06,-36.71 100.1,0 121.6,-2.41 224.26,18.67 49.28,10.12 81.95,24.97 83.24,82.81 19.1,0 41.93,9.3 51.7,19.03 12.45,12.4 15.96,30.68 15.96,54.77 16.31,0.36 24.59,5.16 24.59,21.52zm-378.22 261.38l-89.18 0 0 -12.3 98.4 0c-0.72,8.68 0.07,12.3 -9.22,12.3zm-215.25 -24.61c0,-44.09 67.65,-46.28 67.65,0 0,44.67 -67.65,40.9 -67.65,0zm436.65 -33.82c43.18,0 50.28,64.58 -3.08,64.58 -39.73,0 -37.6,-64.58 3.08,-64.58zm-184.5 12.3l98.4 0 0 12.3 -98.4 0 0 -12.3zm-126.08 0l98.4 0 0 12.3 -98.4 0 0 -12.3zm126.08 -276.75l221.4 0c0,53.5 12.3,163.38 12.3,218.32l-233.7 0 0 -218.32zm-258.3 0l224.47 0 0 218.32 -236.77 0c0,-50.18 12.3,-164.08 12.3,-218.32zm132.22 -98.4l206.03 0 0 52.27 -206.03 0 0 -52.27z"/>
 </g>
</svg>
