<?xml version="1.0" encoding="UTF-8"?>
<!DOCTYPE svg PUBLIC "-//W3C//DTD SVG 1.1//EN" "http://www.w3.org/Graphics/SVG/1.1/DTD/svg11.dtd">
<!-- Creator: CorelDRAW 2017 -->
<svg xmlns="http://www.w3.org/2000/svg" xml:space="preserve" width="62.865mm" height="40.64mm" version="1.1" style="shape-rendering:geometricPrecision; text-rendering:geometricPrecision; image-rendering:optimizeQuality; fill-rule:evenodd; clip-rule:evenodd"
viewBox="0 0 6286.5 4064"
 xmlns:xlink="http://www.w3.org/1999/xlink">
 <defs>
  <style type="text/css">
   <![CDATA[
    .str0 {stroke:#E25680;stroke-width:7.62;stroke-miterlimit:22.9256}
    .fil3 {fill:#292929}
    .fil0 {fill:#E25680}
    .fil2 {fill:#FEFEFE;fill-rule:nonzero}
    .fil6 {fill:#373435;fill-rule:nonzero}
    .fil1 {fill:#292929;fill-rule:nonzero}
    .fil4 {fill:#E25680;fill-rule:nonzero}
    .fil5 {fill:white;fill-rule:nonzero}
   ]]>
  </style>
 </defs>
 <g id="Capa_x0020_1">
  <metadata id="CorelCorpID_0Corel-Layer"/>
  <path class="fil0 str0" d="M2998.81 290.49c-49.04,38.39 -95.18,52.96 -170.4,56.73 -34.09,44.23 0.12,40.4 -144.21,70.86 -38.21,13.08 -64.76,25.17 -111.14,37.61 -21.39,5.74 -42.89,12.92 -65.14,15.17 -66.25,6.69 -39.92,17.22 -49.69,-14.1l-42.86 14.1c-163.18,51.52 -126.35,-6.95 -175.36,20.41 -25.38,14.17 -6.58,15.51 -44.22,18.27l-27.12 -1.18c-120.75,5.72 -580.94,83.17 -710.24,138.74 -102.51,44.07 -465.52,118.76 -638.23,192.81 -55.88,23.96 -61.84,10.84 -86.56,45.99 68.9,16.45 106.37,-35.61 166.16,-7.5l-193.23 52.42c-8.88,7.55 -8.69,10.02 -30.25,19.36l-99.68 31.29c-11.25,-24.84 6.55,-36.93 7.35,-28.77 -157.2,-3.96 -173.62,65.3 -228.9,49.91 28.54,-19.39 46.74,-23.87 70.84,-48.42l-32.97 2.67 -84.96 51.82c18.29,94.78 70.64,2.19 24.13,76.78 -41.86,67.15 -139.15,2.98 -136.87,110.87 0.63,29.72 16.5,81.39 27.37,85.15l55.8 9.5c-5.91,68.78 -25.05,-41.07 -17.31,88.34l100.25 -20.49c5,-33.55 -1.97,-30.25 -12.35,-64.52 -12.5,-41.27 19.35,-56.73 -1.68,-29.92 19.88,13.22 4.99,-3.38 13.18,24.65 51.16,175.16 -2.3,113.65 121.86,137.8l15.45 74.93c48.32,33.25 -26.69,-3.44 10.39,26.67 7.15,5.82 -46.85,53.76 43.15,4.37 39.91,-21.9 31.84,-59.7 18.9,-114.32l31.35 -2.86c-30.99,41.36 -20.22,27.78 -9.56,94.06 3.04,1.21 7.14,3.03 8.99,3.92 68.5,32.66 40.62,31.87 67.52,49.04 -28.78,-19.97 -4.3,-20.26 -56.72,-15.17 -41.65,4.05 -38.95,6.96 -51.79,28.8 -28.15,47.87 6.93,71.19 21.87,86.04 51.81,114.27 -15.49,-11.1 3.4,136.05 36.71,-19.91 75.04,-37.27 108.2,-50.83 53.41,24.38 6.09,3.83 51.07,34.04l146.39 -79.19c50.72,-20.5 90.29,-69.52 156.13,-33.84 -15.47,17.43 -7.78,10.81 -32.9,24.5 -11.49,6.26 -21.68,9.68 -33.44,14.3 -201.4,79.11 27.41,33.33 -189.22,66.68 -11.06,67.98 52.84,-14.82 -35.49,96.18l-17.57 23.49c-35.82,-36.68 -74.97,-11.91 -105.13,15.63l-23.89 35.92c2.03,39.53 109.61,-9.37 177.61,1.43 -8.12,66.66 54.14,41.72 -65.84,66.25 20.26,-39.06 103.6,-0.81 220.55,-24.96 34.75,-7.18 81.21,4.86 139.47,-15.63 12.66,-84.11 -3.31,8.12 41.81,-79.78l13.29 -32.83c11.7,15.29 18.18,16.92 59.74,16.44 1.83,-3.43 35.88,-42.64 11.6,-88.51 -27.54,-52.03 -10.47,45.45 -18.96,-31.37 -12.91,-116.88 113.05,-43.89 188.81,-79.76l1.35 -61.73c-68.42,11.25 24.28,2.11 -52.51,15.63 -133.94,23.59 -230.19,73.16 -291.23,40.56 51.7,-64.32 136.38,-60.74 255.02,-111.81 35.8,-15.41 34.6,-20.12 90.07,-11.58l-0.2 88.7c-0.56,5.11 -2.07,10.4 -2.01,15.67l145.48 -37.64c30.36,1.62 24.11,1.58 44.97,13.8 -29.5,117.79 32.77,-16.53 -111.61,100.02 -32.01,25.84 -25.82,27.69 -40.2,15.26l-130.41 17.2c21.2,13.82 6.23,7.52 33.89,15.35 6.94,1.96 21.97,2.7 28.13,3.02 -58.69,48.09 -46.71,73.04 -43.26,111.03 136.6,-36.55 23.11,-24.79 87.65,-55.92 21.2,-10.23 97.3,-13.2 115.6,-15.28 -1.27,-19.81 0.68,-27.92 -5.07,-45.99 -13.11,-41.22 -12.74,-27.16 -17.94,-35l25.48 79.09c28.82,-34.88 7.74,-49.95 23.68,-3.84 161.56,-47.16 137.78,-1.17 178.79,-42.44 46,-46.28 7.35,34.27 8.48,-34.24l-2.81 -17.39c0.1,-1.93 -0.43,-5.89 -0.06,-7.69 5.92,-28.7 44.03,-36.5 58.04,-40.24 172.4,-46.05 184.87,-18.58 246.03,-22.12 28.23,-1.64 68.54,-13.09 86.25,-12.26l-123.21 29.2c-39.67,24.29 -21.61,7.31 -43.1,44.42 50.69,4.23 227.28,-19.38 241.22,-49.31 195.38,-39.94 109.2,-2.05 192.44,-18.92l193.8 -50.19 8.68 56.03c-42.81,28.56 -48.88,41.76 -82.4,44.6 -50.98,4.34 -70.68,29.91 -55.3,61.5 28.32,73.38 -23.2,43.4 72.22,36.04 19.94,-1.54 45.99,-12.66 71.86,-12.57l-74.64 41.72c69.11,63.57 48.65,19.78 193.08,-10.35l22.82 33.39c0.02,0.17 -2.04,0.15 -2.85,-0.38 47.79,-10.12 12.2,-1.73 32.67,-16.27l20.24 -19.27c2.61,2.42 5.77,2.61 7.8,7.29 2.03,4.68 6.14,5.63 7.89,7.21l16 14.43c1.76,1.58 5.38,4.74 8.05,7.13 36.9,4.89 93.36,-25.56 138.68,-33.87 1.91,7.89 -9.05,8.86 4.88,23.9l342.91 -112.55c43.43,-13.55 16.65,-16.6 55.78,12.58l15.28 12.23c1.69,1.35 5.92,3.77 7.75,6.63 62.69,-23.77 66.17,-3.25 138.22,-44.32 264.83,-150.96 431.17,-63.52 903.45,-281.59 82,-37.86 138.86,-37.58 221.16,-63.72 65.01,-20.65 180.29,-92.6 281.18,-132.42 98.55,-38.9 45.28,33.45 73.77,-16.15 16.14,-29.63 -4.43,-169.32 -12.42,-211.77 -28.51,-27.75 -28.57,-45.26 -41.86,-72.88 -66.19,37.79 -18.89,46.11 -123.12,63.99 -59.71,10.24 -89.68,38.96 -143.91,54.67 2.17,-39.22 4.96,-32.46 -0.53,-80.38 103.71,-25.12 72.1,-5.31 132.21,-79.52 -7.07,-51.35 5.33,-82.5 -4.99,-144.9 -8.43,-50.94 -35.71,-114.58 -36.02,-163.14 -0.3,-45.61 37.23,-152.57 -88.31,-166.9l-45.42 -6.33 -23.78 -96.47c112.57,-74.74 104.27,-172.64 5.81,-272.76 -76.05,6.69 -143.81,46.59 -239.79,60.63 -185.85,27.16 -267.69,17.47 -444.61,93.56 -56.41,24.26 -166.73,77.75 -212.09,87.24 -153.29,26.9 45.88,31.45 -163.45,53.44 -71.92,7.55 -23.84,8.33 -58.06,16.7 -67.83,16.59 4.71,-20.99 -99.6,5.71 -7.4,-16.61 -11.43,-20.53 -4.73,-51.74 -3.42,-0.67 -23.21,-2.3 -23.87,-2.44 -2.1,-0.47 -6.51,-1.31 -8.8,-1.9l-28.07 -9.7c0.43,-60.53 -36.73,-88.25 -60.49,-143.53l-122.91 32.7c2.6,30.08 -21.38,-16.57 10.26,11.38 17.6,15.55 9.73,-0.96 26.13,23.88l-94.25 15.94c-24.95,16.76 -79.97,46.37 -94.01,61.9z"/>
  <path class="fil0 str0" d="M1081.27 1972.34c30.98,-1.97 39.78,-41.06 24,41.6 -20.35,-14.27 7.3,-8.66 -38.99,-4.7 -26.34,2.25 -53.8,9.11 -76.81,20.51l-49.03 83.97c48.37,56.46 41.65,-13.64 203.08,-41.63l178.72 -34.32c73.65,3.07 31.94,0.11 55.91,20.29l-117.79 27.93 70.56 -1.63c57.47,-9.12 164.99,-29.2 196.06,41.83l72.4 -2.67c-47.74,-20.44 -25.42,5.99 -40.8,-16.73 -16.26,-24.02 82.68,-11.46 185.89,-50.94 31.06,-11.87 23.59,-14.94 64.07,-19.28 70.29,-7.54 5.08,14.8 57.82,-4.52 78.1,-28.6 6.81,-42.39 112.18,-17.33 11.66,-19.76 9.02,-32.32 44.46,-39.11 45.46,-8.71 18.45,0.03 57.03,17.81 27.47,-13.19 49.61,-29.08 96.56,-37.77 14.28,87.2 12.19,70.63 -6.2,91.82 20.57,-43.31 171.67,-69.88 234.32,-83.73 2.19,3.17 6.01,4.57 6.71,9.42 4.49,30.84 -0.13,16.61 -10.12,19.79 81.42,-22.84 47.03,-15.9 52.8,-36.51 0.22,-0.78 -0.01,-4.28 0.77,-6.21 125.69,-30.99 159.35,-74.27 199.84,-79.77 64.42,-8.74 21.29,-4.41 40.37,25.16l28.81 -19.05c2.05,-0.96 5.63,-2.59 7.86,-3.47 2.27,-0.91 5.86,-1.96 8.3,-2.8l76.38 -27.91c-2.67,-2.39 -6.29,-5.55 -8.05,-7.13l-16 -14.43c-1.75,-1.58 -5.86,-2.53 -7.89,-7.21 -2.03,-4.68 -5.19,-4.87 -7.8,-7.29l-20.24 19.27c-20.47,14.54 15.12,6.15 -32.67,16.27 0.81,0.53 2.87,0.55 2.85,0.38l-22.82 -33.39c-144.43,30.13 -123.97,73.92 -193.08,10.35l74.64 -41.72c-25.87,-0.09 -51.92,11.03 -71.86,12.57 -95.42,7.36 -43.9,37.34 -72.22,-36.04 -15.38,-31.59 4.32,-57.16 55.3,-61.5 33.52,-2.84 39.59,-16.04 82.4,-44.6l-8.68 -56.03 -193.8 50.19c-83.24,16.87 2.94,-21.02 -192.44,18.92 -13.94,29.93 -190.53,53.54 -241.22,49.31 21.49,-37.11 3.43,-20.13 43.1,-44.42l123.21 -29.2c-17.71,-0.83 -58.02,10.62 -86.25,12.26 -61.16,3.54 -73.63,-23.93 -246.03,22.12 -14.01,3.74 -52.12,11.54 -58.04,40.24 -0.37,1.8 0.16,5.76 0.06,7.69l2.81 17.39c-1.13,68.51 37.52,-12.04 -8.48,34.24 -41.01,41.27 -17.23,-4.72 -178.79,42.44 -15.94,-46.11 5.14,-31.04 -23.68,3.84l-25.48 -79.09c5.2,7.84 4.83,-6.22 17.94,35 5.75,18.07 3.8,26.18 5.07,45.99 -18.3,2.08 -94.4,5.05 -115.6,15.28 -64.54,31.13 48.95,19.37 -87.65,55.92 -3.45,-37.99 -15.43,-62.94 43.26,-111.03 -6.16,-0.32 -21.19,-1.06 -28.13,-3.02 -27.66,-7.83 -12.69,-1.53 -33.89,-15.35l130.41 -17.2c14.38,12.43 8.19,10.58 40.2,-15.26 144.38,-116.55 82.11,17.77 111.61,-100.02 -20.86,-12.22 -14.61,-12.18 -44.97,-13.8l-145.48 37.64c-0.06,-5.27 1.45,-10.56 2.01,-15.67l0.2 -88.7c-55.47,-8.54 -54.27,-3.83 -90.07,11.58 -118.64,51.07 -203.32,47.49 -255.02,111.81 61.04,32.6 157.29,-16.97 291.23,-40.56 76.79,-13.52 -15.91,-4.38 52.51,-15.63l-1.35 61.73c-75.76,35.87 -201.72,-37.12 -188.81,79.76 8.49,76.82 -8.58,-20.66 18.96,31.37 24.28,45.87 -9.77,85.08 -11.6,88.51 -41.56,0.48 -48.04,-1.15 -59.74,-16.44l-13.29 32.83c-45.12,87.9 -29.15,-4.33 -41.81,79.78z"/>
  <path class="fil0 str0" d="M246.42 1903.23c151.46,52.83 218.49,-38.28 331.45,-16.33l-90.58 125.71c-15.58,32.52 -14.5,24.42 -5.45,62.55 45.67,5.11 135.76,-20.35 232.98,-20.69 21.99,-0.08 11.3,-1.56 33.44,0.9l31.93 6.55c2.55,0.59 7.06,1.85 10.51,3.02 -33.72,64.01 -109.11,104.5 -111.85,162.29 119.06,-2.67 171.53,-55.77 275.33,-71.48 97.99,-14.82 231.95,-30.01 306.18,-69.76l117.79 -27.93c-23.97,-20.18 17.74,-17.22 -55.91,-20.29l-178.72 34.32c-161.43,27.99 -154.71,98.09 -203.08,41.63l49.03 -83.97c23.01,-11.4 50.47,-18.26 76.81,-20.51 46.29,-3.96 18.64,-9.57 38.99,4.7 15.78,-82.66 6.98,-43.57 -24,-41.6 -58.26,20.49 -104.72,8.45 -139.47,15.63 -116.95,24.15 -200.29,-14.1 -220.55,24.96 119.98,-24.53 57.72,0.41 65.84,-66.25 -68,-10.8 -175.58,38.1 -177.61,-1.43l23.89 -35.92c30.16,-27.54 69.31,-52.31 105.13,-15.63l17.57 -23.49c88.33,-111 24.43,-28.2 35.49,-96.18 216.63,-33.35 -12.18,12.43 189.22,-66.68 11.76,-4.62 21.95,-8.04 33.44,-14.3 25.12,-13.69 17.43,-7.07 32.9,-24.5 -65.84,-35.68 -105.41,13.34 -156.13,33.84l-146.39 79.19c-44.98,-30.21 2.34,-9.66 -51.07,-34.04 -33.16,13.56 -71.49,30.92 -108.2,50.83 -18.89,-147.15 48.41,-21.78 -3.4,-136.05 -41.63,7.57 -226.2,65.54 -276.25,105.89 -6.77,5.46 -15.38,14.55 -17.72,16.31l-95.32 32.29c19.97,61.04 21.19,65.29 53.78,86.42z"/>
  <path class="fil0 str0" d="M222.63 1281.48c31.69,141.91 25.16,154.67 92.07,272.18 -58.03,119.36 -132.43,86.53 -161.15,194.89 -28.34,106.87 -39.38,92.42 -27.15,161.12 18.26,6.38 7.81,4.8 35.27,6.54l84.75 -12.98c-32.59,-21.13 -33.81,-25.38 -53.78,-86.42l95.32 -32.29c2.34,-1.76 10.95,-10.85 17.72,-16.31 50.05,-40.35 234.62,-98.32 276.25,-105.89 -14.94,-14.85 -50.02,-38.17 -21.87,-86.04 12.84,-21.84 10.14,-24.75 51.79,-28.8 52.42,-5.09 27.94,-4.8 56.72,15.17 -26.9,-17.17 0.98,-16.38 -67.52,-49.04 -1.85,-0.89 -5.95,-2.71 -8.99,-3.92 -10.66,-66.28 -21.43,-52.7 9.56,-94.06l-31.35 2.86c12.94,54.62 21.01,92.42 -18.9,114.32 -90,49.39 -36,1.45 -43.15,-4.37 -37.08,-30.11 37.93,6.58 -10.39,-26.67l-15.45 -74.93c-124.16,-24.15 -70.7,37.36 -121.86,-137.8 -8.19,-28.03 6.7,-11.43 -13.18,-24.65 21.03,-26.81 -10.82,-11.35 1.68,29.92 10.38,34.27 17.35,30.97 12.35,64.52l-100.25 20.49c-7.74,-129.41 11.4,-19.56 17.31,-88.34l-55.8 -9.5z"/>
  <path class="fil0 str0" d="M1526.98 2126.19c41.54,29.36 -5.4,-2.2 42.02,15.84 47.7,18.16 9.92,-18.23 44.07,21.85 8.16,-5.87 15.76,-29.68 42.4,-37.19l17.29 -1.91c2.76,-0.66 6.87,-0.94 9.7,-1.76 52.03,-15.23 48.74,-63.26 88.72,12.87 2.26,-3.2 3.82,-12.39 5.79,-10.23 25.36,27.86 -10.2,-12.56 34.85,-40.38l232.57 -72.07c47.39,30.93 -6.66,-33.86 15.12,21.05 0.34,0.84 9.89,41.14 11.57,47.03 90.16,-38.3 55.39,-1.45 84.83,-10.07 97.74,-28.62 43.72,-6.86 159.41,-30.03 86.96,-17.41 50.17,1.03 99.35,2.88 85.06,3.21 131.52,-70.79 227.52,-80.77 190.35,-19.78 160.77,-56.91 329.72,-95.25 51.9,-11.78 122.31,5.66 266.27,-69.61 83.18,-43.49 10.84,-22.3 96.93,-30.03 62.25,-5.6 -54.26,17.75 19.62,-3.1 70.43,-19.88 -0.96,14.24 26.98,-14 -1.83,-2.86 -6.06,-5.28 -7.75,-6.63l-15.28 -12.23c-39.13,-29.18 -12.35,-26.13 -55.78,-12.58l-342.91 112.55c-13.93,-15.04 -2.97,-16.01 -4.88,-23.9 -45.32,8.31 -101.78,38.76 -138.68,33.87l-76.38 27.91c-2.44,0.84 -6.03,1.89 -8.3,2.8 -2.23,0.88 -5.81,2.51 -7.86,3.47l-28.81 19.05c-19.08,-29.57 24.05,-33.9 -40.37,-25.16 -40.49,5.5 -74.15,48.78 -199.84,79.77 -0.78,1.93 -0.55,5.43 -0.77,6.21 -5.77,20.61 28.62,13.67 -52.8,36.51 9.99,-3.18 14.61,11.05 10.12,-19.79 -0.7,-4.85 -4.52,-6.25 -6.71,-9.42 -62.65,13.85 -213.75,40.42 -234.32,83.73 18.39,-21.19 20.48,-4.62 6.2,-91.82 -46.95,8.69 -69.09,24.58 -96.56,37.77 -38.58,-17.78 -11.57,-26.52 -57.03,-17.81 -35.44,6.79 -32.8,19.35 -44.46,39.11 -105.37,-25.06 -34.08,-11.27 -112.18,17.33 -52.74,19.32 12.47,-3.02 -57.82,4.52 -40.48,4.34 -33.01,7.41 -64.07,19.28 -103.21,39.48 -202.15,26.92 -185.89,50.94 15.38,22.72 -6.94,-3.71 40.8,16.73l-72.4 2.67z"/>
  <path class="fil0 str0" d="M392.96 956.86l32.97 -2.67c-24.1,24.55 -42.3,29.03 -70.84,48.42 55.28,15.39 71.7,-53.87 228.9,-49.91 -0.8,-8.16 -18.6,3.93 -7.35,28.77l99.68 -31.29c21.56,-9.34 21.37,-11.81 30.25,-19.36l-26.27 -1.57c71.5,-34.08 28.22,-19.21 41.15,-51.69l-92.65 20.23 -16.68 -66.36c-65.14,18.24 -174.5,65.88 -219.16,125.43z"/>
  <path class="fil0 str0" d="M4987.07 1001.34l-20.8 -81.41c-88.27,-32.09 -34.21,43.74 -84.08,-39.64 -62.05,7.47 -24.19,22.55 -72.33,6.93 -60.11,74.21 -28.5,54.4 -132.21,79.52 5.49,47.92 2.7,41.16 0.53,80.38 54.23,-15.71 84.2,-44.43 143.91,-54.67 104.23,-17.88 56.93,-26.2 123.12,-63.99 13.29,27.62 13.35,45.13 41.86,72.88z"/>
  <path class="fil0 str0" d="M3399.55 354c104.31,-26.7 31.77,10.88 99.6,-5.71 34.22,-8.37 -13.86,-9.15 58.06,-16.7 209.33,-21.99 10.16,-26.54 163.45,-53.44 -17.64,-16.18 -1.47,-22.36 -74.66,-9.07 -13.18,2.39 -59.55,14.3 -70.56,15.78 -32.83,4.44 -102.85,3.82 -149.83,6.68 -0.86,2.94 -3.73,4.67 -2.82,8.74l14.51 28.5c-87.96,-0.12 -8.47,-5.1 -37.75,25.22z"/>
  <path class="fil1" d="M819.56 1353.34c31.75,-6.69 72.41,-19.51 116.78,-34.82 -2.39,53.22 -13,131.97 -22.75,198.63 -24.95,176.14 -36.07,268.59 -39.74,339.93 32.82,34.74 66.93,51.35 105.57,49.17 -4.73,-95.07 -0.85,-193.66 16.01,-347.68 8.81,-79.22 27.73,-207.33 45.62,-275.71 34.96,-11.61 70.26,-21.6 104.45,-28.81 19.54,-4.12 50,-8.84 78.19,-12.22 -19.42,-47.78 -40.93,-77.24 -80.82,-68.84 -28.49,6 -210.09,68.07 -321.61,91.57 -36.63,7.72 -66.45,11.45 -81.66,7.85 -2.35,9 -2.53,24.34 -0.81,32.48 7.37,35 37.63,57.54 80.77,48.45zm618.55 -187.3c-24.35,-18.67 -97.91,-32.93 -135.7,-26.67 -44.96,149.75 -64.07,385.87 -35.25,522.61 24.69,117.22 95.66,163.48 194.96,142.56 97.68,-20.58 155.04,-91.33 192.46,-196.14 51.39,-143.45 59.54,-350.89 35.48,-517.55 -26.36,-8.05 -78.54,-5.56 -85.87,-4.02 4.03,11.06 9.1,27 18.01,69.33 27.96,132.68 37.67,299.81 0.46,425.82 -28.22,96.06 -68.35,159.77 -138.36,174.52 -60.23,12.69 -90.74,-19.13 -108.41,-102.98 -28.64,-135.93 -6.73,-338.63 62.22,-487.48zm829.21 -71c-19.55,-92.8 -107.43,-134.65 -236.85,-107.37 -96.05,20.23 -222.86,80.12 -277.91,137.62 7.76,24.72 42.26,63.36 63.73,72.44 22.69,-29.44 63.65,-61.03 109.7,-88.58 -2.17,74.42 -8.81,111.52 -26.02,199.31 -57.18,293.45 -61.42,309.64 -70.07,341.22 32.36,36.54 63.04,53.02 101.38,53.45 -0.57,-103.6 12.6,-202.44 43.81,-340.79 5.1,4.03 10.03,7.24 14.61,8.83 6.86,0.25 19.88,-2.49 32.09,-5.06 104.62,210.04 160.41,289.25 207.62,279.3 25.24,-5.32 56.38,-39.08 61.69,-62.31 -67.95,-40.09 -154.99,-142.46 -208.95,-233.12 125.65,-45.17 206.96,-151.56 185.17,-254.94zm-213.02 -26.53l-13.03 -13.4c19.84,-6.74 38.22,-12.31 56.12,-16.08 80.6,-16.98 126.01,4.9 137.33,58.63 19.04,90.35 -84.62,179.36 -247.43,213.66 23.59,-101.89 56.48,-220.18 67.01,-242.81zm331.12 421.61c3.94,18.73 22.2,65.04 38.06,67.64 22.06,3.86 18.3,34.4 66.03,26.9 -2.14,-2.11 -3.99,-6.82 -6.05,-16.58 -25.39,-120.48 -3.82,-514.38 71.79,-619.57 -13.07,-17.65 -77.86,-34.61 -99.36,-31.78 -48.32,77.34 -95.34,455.36 -70.47,573.39zm656.9 -662.95c-73.92,-15.88 -147.74,-23.28 -218.55,-8.35 -38.26,8.06 -77.59,23.14 -109.5,45.17 -63.19,43.07 -89.1,109.74 -76.24,170.79 16.3,77.33 82.85,106.66 233.1,137.91 100.38,20.51 189.33,39.17 200.05,81.97 2.88,25.75 -7.27,102.7 -128.55,128.26 -55.36,11.66 -125.19,11.07 -191.99,-11.41 -71.37,-24.06 -113.58,-67.03 -123.7,-98.9 -24.85,43.48 -27.88,81.53 -23.25,103.5 19.56,92.81 220.5,134.63 340.97,109.24 124.54,-26.24 183.69,-128.82 160.19,-240.33 -20.24,-96.05 -77.39,-117.17 -198.09,-145.29 -96.49,-22.18 -213.92,-50.99 -230.38,-96.83 -7.25,-38.43 49.64,-75.08 125.34,-91.03 76.52,-16.12 170.39,-10.39 226.05,39.94 24.12,-18.68 34.01,-56.47 26.46,-92.29 -2.4,-11.4 -4.71,-14.31 -11.91,-32.35zm505.16 529.47c-26.98,-196.66 78.83,-553.9 161.37,-618.05 0.31,29.69 0.45,58.56 -0.36,74.89 -8.47,161.61 2.22,297.07 27.61,417.55 3.26,15.47 6.69,31.74 10.77,47.04 16.15,16.15 79.81,19.74 109.93,13.39 -7.8,-28.96 -13.46,-55.82 -18.77,-81.06 -32.08,-152.22 -48.45,-411.46 -5.33,-549.76 -7.16,-13.8 -96.92,-32.3 -127.04,-25.95 -62.1,68.35 -166.85,337.81 -204.82,532.84 -11.64,-164.18 5.93,-375.31 22.54,-441.72 -7.15,-13.79 -96.92,-32.29 -127.03,-25.94 -66.61,59.09 -119.15,201.08 -172.98,377.35 -47.36,154.5 -74.54,271.6 -66.31,310.67 4.63,21.98 24.47,31.4 79.82,35.89 -21.88,-192.62 98.4,-537.61 162.87,-614.97 0.78,27.9 0.4,54.33 -0.58,69.85 -8.46,161.6 2.23,297.07 27.61,417.54 3.26,15.47 6.69,31.75 10.77,47.04 8.61,12.64 70.22,22.61 100.34,16.27 6.51,-1.38 7.33,-1.55 9.59,-2.87zm658.54 -820.57c-18.64,-3.73 -33.8,-3.08 -50.9,0.52 -160.35,33.79 -239.05,346.22 -197.03,545.65 25.9,122.91 94.16,176.54 193.47,155.61 67.56,-14.23 138.67,-64.07 191.79,-134.77 82.41,-109.18 128.4,-270.2 96.32,-422.41 -19.55,-92.8 -64.2,-102.94 -93.8,-110.31 4.03,11.06 12.34,26.3 23.49,79.21 27.96,132.69 12.13,291.59 -44.53,397.9 -39.54,74.64 -102.25,132.06 -155.15,143.21 -53.73,11.32 -91.61,-23.21 -109.44,-107.87 -41,-194.53 54.54,-455.25 202.69,-486.47 14.65,-3.09 34.53,-5.58 54.11,-5.45 -6.05,-16.58 -66.72,-46.3 -111.02,-54.82z"/>
  <path class="fil2" d="M778.84 1312.61c31.74,-6.69 72.4,-19.51 116.78,-34.82 -2.39,53.22 -13,131.97 -22.76,198.63 -24.95,176.14 -36.07,268.59 -39.74,339.93 32.82,34.74 66.93,51.35 105.57,49.17 -4.72,-95.07 -0.85,-193.66 16.01,-347.68 8.81,-79.22 27.73,-207.32 45.62,-275.71 34.96,-11.61 70.26,-21.6 104.45,-28.8 19.54,-4.12 50,-8.84 78.19,-12.23 -19.42,-47.77 -40.93,-77.24 -80.82,-68.83 -28.48,6 -210.09,68.06 -321.61,91.56 -36.63,7.72 -66.45,11.46 -81.66,7.86 -2.35,9 -2.52,24.33 -0.81,32.47 7.38,35 37.63,57.54 80.78,48.45zm618.54 -187.3c-24.34,-18.67 -97.9,-32.93 -135.69,-26.66 -44.96,149.75 -64.07,385.86 -35.26,522.61 24.7,117.21 95.66,163.47 194.96,142.55 97.69,-20.58 155.04,-91.33 192.47,-196.13 51.38,-143.45 59.53,-350.9 35.47,-517.56 -26.36,-8.05 -78.53,-5.56 -85.86,-4.01 4.02,11.06 9.09,26.99 18.01,69.32 27.95,132.68 37.66,299.81 0.45,425.82 -28.22,96.06 -68.34,159.77 -138.36,174.53 -60.22,12.69 -90.74,-19.14 -108.41,-102.98 -28.64,-135.94 -6.73,-338.63 62.22,-487.49zm829.22 -71c-19.56,-92.79 -107.43,-134.64 -236.86,-107.37 -96.05,20.24 -222.86,80.12 -277.91,137.62 7.77,24.72 42.27,63.36 63.73,72.44 22.7,-29.44 63.65,-61.02 109.7,-88.58 -2.17,74.43 -8.8,111.52 -26.01,199.32 -57.19,293.44 -61.43,309.63 -70.08,341.22 32.36,36.53 63.04,53.02 101.38,53.44 -0.57,-103.6 12.6,-202.44 43.81,-340.78 5.1,4.02 10.03,7.24 14.61,8.82 6.86,0.25 19.89,-2.49 32.09,-5.06 104.62,210.04 160.41,289.25 207.63,279.3 25.23,-5.32 56.37,-39.08 61.69,-62.31 -67.96,-40.09 -155,-142.46 -208.96,-233.11 125.66,-45.18 206.96,-151.57 185.18,-254.95zm-213.03 -26.53l-13.02 -13.4c19.83,-6.74 38.21,-12.3 56.12,-16.08 80.59,-16.98 126.01,4.91 137.33,58.63 19.03,90.35 -84.63,179.36 -247.44,213.66 23.59,-101.89 56.48,-220.18 67.01,-242.81zm331.12 421.61c3.95,18.73 22.21,65.04 38.07,67.65 22.06,3.85 18.29,34.39 66.02,26.89 -2.14,-2.1 -3.99,-6.81 -6.05,-16.58 -25.38,-120.47 -3.81,-514.37 71.79,-619.57 -13.07,-17.65 -77.86,-34.6 -99.36,-31.78 -48.32,77.35 -95.34,455.36 -70.47,573.39zm656.9 -662.94c-73.91,-15.88 -147.73,-23.28 -218.55,-8.36 -38.26,8.06 -77.58,23.14 -109.5,45.18 -63.19,43.06 -89.1,109.73 -76.23,170.78 16.29,77.34 82.84,106.66 233.09,137.92 100.39,20.5 189.33,39.16 200.05,81.96 2.88,25.75 -7.26,102.71 -128.55,128.26 -55.35,11.67 -125.19,11.07 -191.99,-11.41 -71.37,-24.06 -113.58,-67.03 -123.7,-98.9 -24.84,43.49 -27.87,81.53 -23.24,103.51 19.55,92.8 220.49,134.62 340.96,109.23 124.54,-26.24 183.69,-128.82 160.19,-240.33 -20.23,-96.05 -77.39,-117.17 -198.09,-145.29 -96.48,-22.18 -213.92,-50.99 -230.38,-96.83 -7.25,-38.43 49.65,-75.08 125.34,-91.03 76.52,-16.12 170.39,-10.39 226.06,39.94 24.11,-18.68 34,-56.47 26.46,-92.28 -2.41,-11.4 -4.72,-14.32 -11.92,-32.35zm505.17 529.46c-26.99,-196.65 78.82,-553.89 161.37,-618.05 0.31,29.69 0.44,58.57 -0.37,74.89 -8.46,161.61 2.23,297.08 27.61,417.55 3.26,15.47 6.69,31.74 10.77,47.04 16.15,16.15 79.82,19.74 109.94,13.39 -7.8,-28.96 -13.46,-55.82 -18.78,-81.06 -32.07,-152.21 -48.45,-411.46 -5.32,-549.76 -7.16,-13.79 -96.92,-32.29 -127.04,-25.95 -62.1,68.36 -166.86,337.81 -204.82,532.84 -11.64,-164.18 5.92,-375.3 22.54,-441.72 -7.16,-13.79 -96.92,-32.29 -127.04,-25.94 -66.61,59.09 -119.15,201.09 -172.98,377.35 -47.36,154.51 -74.54,271.61 -66.31,310.68 4.64,21.97 24.47,31.4 79.83,35.88 -21.89,-192.62 98.4,-537.61 162.86,-614.96 0.78,27.9 0.4,54.32 -0.58,69.84 -8.46,161.61 2.23,297.07 27.61,417.55 3.26,15.47 6.69,31.74 10.78,47.04 8.61,12.63 70.22,22.6 100.33,16.26 6.51,-1.37 7.33,-1.55 9.6,-2.87zm658.53 -820.57c-18.64,-3.73 -33.8,-3.08 -50.89,0.53 -160.36,33.79 -239.06,346.21 -197.03,545.64 25.89,122.92 94.16,176.54 193.47,155.62 67.55,-14.24 138.67,-64.08 191.78,-134.78 82.41,-109.18 128.4,-270.2 96.33,-422.41 -19.56,-92.8 -64.21,-102.94 -93.81,-110.3 4.03,11.05 12.35,26.29 23.49,79.2 27.96,132.69 12.14,291.6 -44.52,397.9 -39.54,74.64 -102.25,132.06 -155.16,143.21 -53.73,11.32 -91.6,-23.2 -109.44,-107.86 -40.99,-194.54 54.55,-455.26 202.69,-486.48 14.65,-3.08 34.53,-5.58 54.11,-5.45 -6.05,-16.58 -66.72,-46.3 -111.02,-54.82z"/>
  <path class="fil3" d="M4877.99 2997.06c6.45,14.41 66.91,-20.58 75.23,-23.53l188.88 -64.32c35.93,-12.25 44.25,-22.67 87.78,-34.73l183.63 -62.68c39.3,-16.47 133.01,-61.04 179.72,-66.11 7.53,-14.96 10.26,-9.49 20.46,-19.02 -20.81,-3.38 -54.98,-9.01 -66.67,-16.77 -33.27,10.45 -2.7,1.32 -21.92,-1.31 -32.66,-4.45 -75.18,-4.47 -105.25,-11.99l-80.76 -12.75c-28.64,-2.83 -93.97,-6.15 -113.35,-15.35l-6.78 -4.11c-23.06,4.15 -36.83,-5.32 -65.2,-5.75 -25.47,-0.37 -39.3,-7.83 -64.11,-3.53 -27.85,4.06 -38.99,-2.96 -65.18,-3.29 -31.23,-0.39 -38.67,4.75 -56.52,-9.99 -17.03,5.15 -120.19,0.58 -127.69,-0.88 -39.28,-7.64 -29.54,-0.8 -31.95,3.56 -4.91,30.21 57.6,300.72 69.68,352.55z"/>
  <path class="fil3" d="M5641.82 2772.25c-15.62,3.25 -234.54,121.57 -268.55,127.4l-12.79 10.54c-36.23,23.37 -71.17,29.08 -112.36,52.65 -19.72,11.29 -52.02,16.45 -76.07,24.3l-60.65 35.78 1174.61 -240.92c-4.6,-37.29 -11.57,-21.97 -22.69,-43 -11.5,-21.75 -5.7,-6.1 -5.54,-22.54 -6.36,-2.89 -0.1,3.45 -12.19,-7.71 -5.93,-5.49 -3.97,-4.36 -9.21,-11.78 -7.24,-10.26 -8.3,-11.87 -15.73,-21.1 -11.38,-14.13 -23.66,-29.48 -31.91,-40.46 -11.17,-14.84 -22.28,-31.8 -31.29,-43.92l-64.97 -89.23c-10.34,-12.24 -21.36,-28.06 -32.1,-41.81 -17.01,-21.76 -54.57,-69.62 -63.05,-90.23 -13.88,-33.74 -33.9,-27.5 -36.38,-79.89l32.69 -129.15c0.15,-2.33 2.01,-2.61 3.03,-3.9l-4.43 -3.37c-1.68,-14.77 18.92,-100 21.83,-104.31 10.14,-15.06 -6.14,1.55 9.12,-7.08 -3.88,-14.84 15.19,-104.2 19.21,-120.25 7.99,-31.88 15.77,-29.87 16.62,-30.58 -4.45,-23.54 -0.63,-8.31 4.06,-30.66 2.21,-10.51 2.58,-21.37 3.23,-28.94 -0.23,-36.81 17.39,-51.76 8.2,-77.5 -75.12,6.61 -195.45,38.82 -274.08,54.94 -34.27,7.02 -248.82,41.73 -258.75,61.97 -9.31,18.98 108.08,551.93 127.67,647.55 11.77,57.4 38.08,155.92 39.89,210.08 -9.74,14.64 -42.51,36.41 -67.42,43.12z"/>
  <path class="fil3" d="M2474.13 1684.61l-97.9 20.7 -801.68 286.59c-28.98,9.7 -32.87,16.8 -50.98,24.66l-124.64 47.07 -9.98 -1.89 -169.12 85.12c-24.83,14.19 -148.87,76.72 -170.51,81.47 -29.47,10.51 -41.44,24.71 -78.02,34.89l2.79 -3.05c-14.79,20.2 -32.73,26.7 -57.6,38.44 -27.78,13.1 -33.13,24.2 -67.29,32.03 -11.38,6.65 -24.21,17.47 -38.94,21.78 -17.06,26.18 -69.6,49.11 -105.94,69.5 -25.24,14.16 -167.41,101.64 -170.94,114.22 -3.57,12.72 152.01,750.08 168.76,831.8 11.5,56.09 40.95,235.06 60.12,274.8 14.09,0.38 69.76,-38.94 87.43,-47.72 19.13,-9.49 22.15,-16 45.04,-26.74 23.19,-10.88 33.76,-22.96 53.28,-24.9l176.38 -95.48 34.7 -14.71c4.24,-15.73 -7.98,-5.31 17.23,-18.83 5.42,-2.91 11.94,-4.05 19.56,-8.27 16.31,-9.03 11.66,-12.16 36.32,-21.54l120.21 -58.35c48.77,-26.41 248.85,-108.8 285.11,-129.34 28.11,-15.91 54.81,-19.85 85.15,-33.8 33.91,-15.59 49.68,-25.43 91.83,-33.8 32.67,-2.71 28,-15.36 56.65,-24.45 25.88,-8.22 45.82,-13.96 72.2,-21.88 28.4,-8.52 34.11,-18.94 60.96,-26.41 27.86,-7.74 46.98,-13.35 72.51,-21.65 60.58,-19.71 222.69,-76.72 272.59,-88.58 20.19,-28.54 208.77,-68.96 251.67,-81.62 208.35,-61.48 621.52,-143.19 828.87,-176.27 42.58,-6.79 85.75,-9.26 131.51,-15.73 45.2,-6.38 95.41,-18.43 139.53,-22.36 78.07,-6.96 174.66,-18.42 255.91,-22.76 76.54,-4.09 181.72,-21.88 259.31,-20.88l246.52 -5.04c28.04,-11.21 81.79,-12.52 109.97,-10.2 45.53,3.75 238.54,-4.35 294.69,2.31l290.41 9.99c61.12,6.38 77.2,-5.86 92.61,16.42 37.47,-9.19 45.41,6.15 71.02,0.89 43.79,-8.12 37.41,-0.2 70.74,2.56 10.69,0.89 22.98,-0.97 34.37,0.48 15.48,1.96 11.02,4.89 29.15,6.33 11.43,0.9 23.4,-0.96 35.46,-0.05 12.15,0.92 17.01,4.82 28.93,6.16 26.11,2.92 41.7,-2.08 62.32,14.5l-3.85 -2.12c34.63,-5.15 31.73,8.89 57.11,-3.29l-226.65 -1108.77c-16.67,-5.42 -19.21,-11.36 -42.62,-14.2l-147.5 -22.63c-11.86,-6.49 -4.77,-1.83 -10.83,-9.72 -14.44,3.21 -65.94,-3.01 -85.61,-5.74 -16.23,-2.25 -23.73,-5.23 -37.45,-6.74 -17.75,-1.95 -27.31,-5.21 -40.78,-4.65l-476.14 -31.3c-53.49,-7.77 -239.97,0.36 -269.03,-5.28l-19.09 -5.02 -5.74 3.81c-42.45,8.49 -255.09,4.81 -320.51,11.02 -30,2.85 -79.23,13.13 -106.25,-1.44l-40.6 9.2c-60.43,15.47 -107.25,8.08 -170.63,17.97 -56.52,8.83 -105.64,9.77 -158.88,16.45 -53.28,6.68 -114.97,20.59 -165.47,25.79 -161.96,16.7 -343.13,57.28 -503.71,90l-334.04 80.25z"/>
  <path class="fil3" d="M941.32 3616.32l-4.16 -1.6c-12.97,20.83 -79.29,58.5 -96.87,64.62 -4.58,9.49 1.03,8.01 -16.09,20.77 -12.99,9.68 -7.19,1.46 -17,14.62 29.16,-2.28 17.22,-4.94 37.09,3.22l276.1 -14.63c31.17,-0.11 60.58,-2.45 93.54,-6.35 38.17,-4.52 59.69,-0.18 96.65,-3.97l187.86 -13.26c30.71,-2.29 55.26,5.68 85.74,-4.89 3.41,-23.67 -60.28,-336.72 -72.98,-361.83 -28.2,2.71 -79.97,36.98 -106.63,51.32 -53.95,29.01 -110.48,46.4 -179.51,94.2 -13.57,9.4 -24.43,10 -37.46,18.02 -11.49,7.06 -17.86,14.73 -31.35,20.52 -81.01,34.8 -161.66,102.84 -214.93,119.24z"/>
  <path class="fil3" d="M14.75 3035.03c5.67,21.47 14.24,18.11 27.51,42.35 12.75,23.29 20.18,20.87 29.21,40.22 6.97,2.53 11.91,-2.04 25.44,18.92 18.51,28.68 106.77,137.9 112.84,162.68 2.59,9.46 16.63,27.52 23.64,36.86 9.07,12.06 16.65,15.44 22.45,31.11 14.2,4.32 5.83,-0.38 16.1,7.85l61.72 84.37c3.93,11.99 -5.28,48.12 -8.36,61.65 -7.73,33.99 -8.01,41.27 -23.89,55.49 -0.14,0.91 -1.6,19.14 -2.57,23.4 -2.83,12.49 -3.66,10.51 -5.92,22.3 -2.14,11.17 -8.27,35.36 -7.77,41.59 2.88,21.9 1.22,17.94 -3.5,34.31 -3.91,13.56 -3.44,15.72 -5.61,27.68l-13.08 55.42c-9.41,37.78 -17.03,89.6 -33,104.79 -1.45,15.7 -18.2,67.07 -16.3,78.73 2.22,33.62 -10.04,32.7 -2.93,62.54l1213.91 -248.83c-32.63,-6.11 -42.75,14.14 -74.98,-14.91l-207.03 11.54c-9.86,-2.52 -4.71,-0.36 -12.07,-4.4 -16.06,7.6 -28.06,9.47 -43.51,7.12 -20.34,3.19 -42.33,7.85 -62.35,7.18 -20.61,-0.68 -24.3,-4.23 -48.48,1.91 -27.61,5.46 -224.61,14.24 -242.33,1.86 -29.59,-20.68 -173.91,-877.39 -196.05,-894.68 -30.18,-10.67 -472.86,87.82 -537.34,104.91 2.9,25.9 4.88,12.14 14.25,36.04z"/>
  <g id="_2443661042688">
   <path class="fil4" d="M1500.76 2455.86c-32.5,-88.64 -130.55,-125.62 -263.84,-95.03 -99.34,22.8 -226.84,85.2 -278.18,142.86 10.5,23.66 52.22,59.98 76.1,68 20.51,-29.44 60.15,-61.67 106.16,-89.94 6.9,72.16 4.34,108.38 -3.28,194.49 -25.66,290.1 -28.46,306.34 -33.54,338.01 38.91,34.64 74.14,49.53 115.46,48.19 -13.65,-102.05 -11.82,-199.82 4.61,-336.51 5.58,3.79 11.48,6.72 16.33,8.11 7.66,0.01 21.28,-3.2 33.66,-6.08 138.26,201.32 207.43,277.04 256.75,265.24 26.11,-6.25 54.87,-40.85 57.39,-63.87 -76.94,-36.61 -182.86,-133.2 -251.41,-219.62 127.14,-48.64 200.02,-155.06 163.79,-253.85zm-228.66 -17.92c-5.17,-4.1 -10.35,-8.21 -15.12,-12.47 20.21,-7.23 38.5,-13.08 57.37,-17.45 82.91,-19.23 133.32,0.21 152.2,51.55 31.82,86.53 -66.84,176.47 -235.45,216.16 12.39,-99.9 32.84,-215.56 41,-237.79zm563.87 -208.16c-19.79,-2.84 -35.66,-1.8 -53.22,2.26 -81.34,18.79 -132.95,103.65 -155.07,207.73 -22.22,104.54 -15.38,228.57 19.76,324.75 43.43,118.84 122.97,168.78 225.47,144.19 69.45,-16.67 137.27,-68.12 183.6,-138.93 35.64,-54.45 59.39,-121.08 67.96,-191.95 8.53,-70.57 1.41,-145.78 -25.74,-218 -32.96,-87.66 -80.84,-95.94 -112.49,-101.99 5.68,10.43 16.38,24.73 35.07,74.69 23.55,62.94 36.19,132.63 38.09,199.62 1.9,67.3 -7.87,132.13 -29.98,184.54 -31.15,73.9 -89.66,132.25 -143.76,145.13 -55.75,13.28 -100.13,-18.82 -130.55,-100.71 -34.67,-93.36 -34.53,-204.23 -7.96,-295.43 26.47,-90.84 80.81,-162.88 156.45,-180.26 14.73,-3.38 35.38,-6.52 55.57,-7.03 -8.94,-15.57 -75.9,-41.83 -123.2,-48.61zm763.14 -130.87c-78.09,-12.52 -154.97,-17.26 -225.72,-0.98 -37.85,8.72 -76.7,24.33 -106.43,45.98 -58.92,42.9 -76.98,106.96 -55.22,164.46 27.68,73.16 101.09,99.16 261.02,123.46 106.98,16.25 203.28,29.76 218.51,71.01 8.8,23.84 7.94,98.44 -113.45,127.42 -56.24,13.43 -128.67,15.41 -201.63,-3.76 -77.81,-20.43 -127.34,-60.25 -142.77,-90.51 -19.7,42.65 -17.59,79.4 -9.63,100.5 33.47,88.74 248.95,121.36 370.67,92.3 125.3,-29.92 171.4,-130.74 130.39,-236.39 -35.21,-90.7 -97.23,-108.88 -225.49,-131.32 -102.87,-18.01 -231.42,-39.76 -252.12,-84.21 -16.31,-35.02 40.77,-72.93 116.6,-90.45 76.56,-17.69 174.28,-15.31 238.62,30.47 21.65,-18.41 26.33,-54.44 13.48,-88 -4.05,-10.59 -6.68,-13.29 -16.83,-29.98zm299.95 556.83c-13.74,-44 -21.3,-98.75 -22.58,-151.33 -1.21,-49.21 3.88,-101.58 12.29,-152.77 68.89,-13.64 143.99,-28.18 174.54,-32.83 15.78,71.43 37,138.25 61.86,201.3 5.41,13.74 10.73,26.92 16.64,39.73 10.85,11.79 74.92,18.82 104.78,11.79 6.54,-1.53 7.38,-1.65 9.28,-2.98 -11.34,-25.05 -20.72,-48.79 -29.52,-71.11 -25.36,-64.3 -42.06,-117.31 -52.38,-158.88 -20.79,-83.8 -33.68,-158.01 -40.6,-219.61 -6.89,-61.28 -6.3,-110.22 0.05,-143.24 -9.63,-12.58 -103.16,-27.18 -132.71,-20.44 0.79,2.36 2.1,7.77 4.05,14.71 -69.88,64.64 -134.97,200.46 -167.91,352.71 -45.91,20.03 -73.54,38.23 -73.87,55.09 13.88,-3.28 37.26,-8 65.57,-13.71 -24.01,127.85 -30.15,226.21 -17.47,259.51 8.2,21.56 29.77,29.96 87.98,32.06zm132.02 -533.51c4.9,46.02 10.92,91.04 19.25,134.72 -56.44,14.15 -107.38,28.55 -151.16,42.88 26.87,-117.76 74.42,-218.12 120.72,-249.33 5.02,28.52 9.55,56.39 11.19,71.73z"/>
   <path class="fil5" d="M3620.43 1958.11c-30.43,-74.8 -108.39,-112.05 -195.15,-92.17 -99.72,22.87 -174.14,112.98 -143.76,189.08 18.05,45.22 67.85,70.53 117.74,59 7.29,-1.68 13.67,-3.9 19.86,-7.16 -24.57,-15.84 -40.24,-32.72 -50.16,-57.58 -27.24,-68.25 8.65,-140.38 68.81,-154.31 42.81,-9.91 83.76,13.32 103.43,61.99 31.58,78.08 -16.56,163.93 -101.76,289.77 -76.33,112.73 -108.42,160.57 -98.92,222.66 18.33,23.4 50.78,42.35 80.86,46.89 24.64,-32.69 92.34,-51.5 154.99,-67.19 65.06,-16.29 128.13,-31.4 138.24,-59.01 4,-10.95 0.18,-23.24 -4.34,-34.49 -11.91,-29.65 -42.02,-61.47 -55.61,-69.1 -39.26,64.08 -116.93,120.18 -199.65,144.9 4.49,-43.66 14.78,-74.38 54.22,-137.05 86.83,-137.97 150.49,-239.63 111.2,-336.23zm352.95 406.96c104.3,-17.75 163.33,-109.29 189.19,-206.65 25.79,-97.11 17.23,-209.55 -19.51,-297.94 -37.23,-89.57 -104.92,-144.37 -191.29,-124.55 -88.05,20.2 -150.37,98.39 -181.19,194.31 -30.94,96.29 -30.85,210.97 6.18,302.5 43.75,108.1 116.24,146.01 196.62,132.33zm-85.38 -124.68c-26.84,-65.6 -35,-171.96 -19.45,-267.4 15.54,-95.31 54.95,-180.21 122.98,-204.79 32.24,-0.06 59.85,33.16 82.19,87.21 21.37,51.74 38.14,157.68 32.57,256.08 -5.6,98.87 -32.69,196.44 -103.74,210.85 -50.49,10.25 -86.77,-14.03 -114.55,-81.95zm671.78 -500.09c-30.95,-73.24 -107.87,-110.51 -192.36,-91.04 -96.57,22.24 -168.08,110.64 -136.86,185.24 18.64,44.53 68.03,69.75 117.11,58.21 6.45,-1.52 12.73,-3.82 18.86,-6.9 -24.34,-15.56 -39.55,-32.28 -49.72,-56.64 -28.01,-67.12 5,-137.99 63.52,-151.46 41.68,-9.59 82.41,13.23 102.49,60.98 32.29,76.75 -13.36,161.12 -93.71,284.36 -72.13,110.62 -103.35,157.58 -92.43,218.44 18.23,22.91 50.92,41.58 80.14,46.28 23.2,-32.11 89.13,-50.42 150.07,-65.78 63.34,-15.96 124.59,-30.38 133.93,-57.47 3.71,-10.79 -0.73,-22.94 -5.31,-33.98 -12.06,-29.02 -42.08,-60.47 -55.34,-68.04 -37.67,62.99 -112.11,117.73 -192.48,141.84 3.34,-42.75 13.01,-73.15 50.12,-134.43 82.11,-135.57 142.13,-234.56 101.97,-329.61zm83.75 -103.13c0.91,4.64 2.43,9.07 4.3,13.47 13.5,31.59 36.44,53.56 62.07,60.42 22.66,-48.52 80.97,-94.17 130.1,-105.53 26.37,-6.09 49.6,-2.8 63.35,15.6 48.14,120.9 -60.64,185.07 -153.32,206.62 17.5,39.88 44.49,55.2 67.39,49.96 14.07,-3.22 42.36,-17.41 65.15,-42.21 49.37,-4.96 79.99,12.16 93.73,44.46 37.34,87.73 -93.36,170.92 -197.66,195.86 -23.79,5.67 -45.61,8.42 -64.83,7.23 1.56,3.67 1.86,6.78 3.2,9.94 18.93,44.46 53.9,79.5 93.88,71.81 132.8,-25.52 296.04,-134.36 230.98,-284.81 -22.87,-52.88 -65.82,-78.51 -135.49,-70.24 45.68,-56.51 58.31,-130.34 37.43,-178.57 -19.84,-45.85 -71.95,-87.85 -155.33,-68.46 -48.32,11.24 -123.56,47.1 -144.95,74.45z"/>
  </g>
  <path class="fil6" d="M2139.9 3435.87c-6.62,-62.69 -61.52,-100.25 -143.49,-91.59 -69.13,7.29 -152.06,37.73 -190.85,70.53 3.35,16.44 23.02,43.62 36.25,50.9 17.12,-17.52 45,-35.63 77.09,-49.86 -6.14,44.54 -13.29,69.13 -30.51,126.75 -38.06,127.01 -56.23,185.81 -67.76,215.2 16.48,22.64 34.31,37.56 61.78,41.16 6.41,-62.44 21.59,-129.06 48.81,-209.95 14.27,12.04 22.7,14.94 40.38,13.07 100.21,-10.57 176.61,-87.45 168.3,-166.21zm-102.16 -54.24c48.76,-5.14 77.08,16.79 80.98,53.76 5.88,55.73 -64.97,108.18 -175.89,119.89 26.17,-75.37 48.35,-137.31 60.89,-157.05l-7.44 -8.97c14.24,-3.67 28.06,-6.21 41.46,-7.63zm91.86 336.51c5.96,10.21 34.02,24.58 46.99,24.3 10.5,-100.8 29.52,-141.27 92.11,-195.02 9.17,20.16 27.23,37.22 47.54,44.83 9.59,-11.85 18.77,-27.44 18.85,-31.79 -5.67,-7.53 -9.05,-19.09 -10.69,-34.63 -1.81,-17.15 -0.35,-34.1 4.26,-51.92 -3.78,-5.02 -14.88,-7.64 -25.07,-6.56 -5.89,0.62 -8.51,1.44 -10.97,3.86 -21.64,41.3 -47.52,73.28 -81.95,111.59 10.2,-47.12 20.71,-75.86 37.62,-100.4 -9.65,-9.28 -36.13,-18.95 -56.3,-20.06 -7.67,9.47 -12.9,21.4 -19.69,44.33 -19.27,63.8 -40.14,168.95 -42.7,211.47zm295.14 -1.35c83.81,-27.27 137.34,-110.4 127.89,-199.88 -3.62,-34.29 -14.42,-49.41 -33.71,-47.38 -3.22,0.34 -6.37,1.22 -9.59,1.56 -12.7,-17.62 -25.89,-29.78 -37.77,-34.48 -16.61,1.76 -35.11,11.29 -52.87,27.8 -46.47,42.29 -76.14,115.31 -70.09,172.64 5.09,48.22 34.96,79.75 76.14,79.74zm9.51 -171.67c15.25,-24.91 38,-50.61 68.12,-63 5.61,6.99 8.83,16.95 10.75,35.17 8.83,83.58 -30.55,157.09 -92.84,177.76 -7.2,-1.42 -16.14,-19.44 -17.95,-36.58 -2.99,-28.39 10.73,-78.07 31.92,-113.35zm143.53 -251.92c-24.8,52.46 -59.36,94.58 -89.73,109.71 9.31,6.05 18.76,8.31 30.54,7.07 22.5,-2.38 45.91,-16.77 96.71,-58.98 -2.09,-19.82 -21.55,-50.27 -37.52,-57.8zm176.32 366.61c-20.6,-30.88 -38.83,-59.84 -51.36,-86.15 50.33,-62.2 83.3,-119.32 87.89,-152.85 -4.06,-7.7 -19.32,-13.68 -37.34,-15.02 -19.67,60.04 -39.17,101.12 -65.08,137.98 -14.23,-32.09 -21.51,-60.03 -24.45,-87.9 -1.13,-10.72 -1.58,-15 -1.3,-22.61 -16.64,-3.67 -45.12,-6.61 -60.13,-5.03 -9.11,0.96 -10.43,3.81 -9.41,13.45 2.94,27.87 28.57,96.13 58.67,150.38 -23.51,33.91 -73.56,78.21 -100.31,96.74 1.73,11.2 8.41,18.08 16.08,18.88 29.16,-21.48 64.25,-53.37 97.24,-89.9 16.85,31.27 36.17,55.24 49.44,67.93 14.88,-2.66 33.86,-12.79 40.06,-25.9zm56.02 -38.97c3.33,31.61 38.57,41.98 43.92,41.42 3.22,-0.34 2.71,-5.16 1.35,-18.02 -1.1,-15.6 4.5,-39.49 9.91,-60.11 13.24,-49.08 18.87,-88.13 47.71,-128.02 -16.14,-19.42 -41.5,-28.67 -53.56,-30.1 -30.46,19.46 -40.12,76.83 -41.86,91.1 -7.15,65.77 -8.77,91.41 -7.47,103.73zm77.79 -243.35c0.62,5.9 8.87,12.06 17.61,12.77 4.11,-12.35 38.19,-64.17 52.68,-80.87 -12.41,-14.95 -52.18,-32.42 -68.79,-30.66 -6.68,24 -10.51,59.62 -9.21,71.94 0.62,5.9 4.16,13.65 8.3,17 -0.62,4.4 -0.82,7.68 -0.59,9.82zm344.26 68.77c-10.82,30.94 -35.2,82.27 -30.05,131.04 3.11,29.46 16.42,52.98 50.19,49.41 18.22,-1.92 31.77,-12.02 45.05,-24.8 -0.34,-3.21 -0.9,-8.57 -5.47,-10.8 -3.75,0.4 -11.28,6.07 -19.85,6.97 -8.04,0.85 -12.67,-1.91 -14.25,-16.92 -4.84,-50.95 39.75,-141.8 48.14,-185.49 -6.34,-13.96 -21.07,-19.99 -35.54,-18.47 -40.72,4.3 -87.09,73.13 -146.68,175.86 1.65,-30.52 47.4,-115.53 51.37,-144.66 -2.06,-4.11 -27.64,-15.5 -45.33,-13.63 -46.07,4.86 -108.03,115.96 -142.7,177.6 1.81,-59.79 49.99,-121.77 59.28,-167.18 -19.55,-15.81 -35.45,-22.8 -55.73,-25 -19.65,44.88 -43.4,102.11 -53.98,155.78 -5.7,28.24 -7.63,56.07 -6.36,73.27 5.79,18.89 12.25,33.92 32.42,45.34 6.99,-5.61 21.87,-39.15 44.22,-78.9 34.25,-60.5 82.66,-130.63 104.51,-134.01 -37.33,67.33 -48.14,118.85 -50.94,164.13 6.75,17.69 20.43,29.26 36.64,34.05 29.89,-45.42 101.05,-187.3 135.06,-193.59zm182.77 166c83.81,-27.27 137.34,-110.4 127.89,-199.88 -3.62,-34.29 -14.43,-49.41 -33.71,-47.38 -3.22,0.35 -6.38,1.22 -9.59,1.56 -12.7,-17.62 -25.9,-29.78 -37.78,-34.47 -16.6,1.75 -35.1,11.28 -52.86,27.79 -46.47,42.29 -76.15,115.31 -70.09,172.64 5.09,48.22 34.96,79.75 76.14,79.74zm9.51 -171.67c15.25,-24.91 38,-50.61 68.12,-63 5.61,6.99 8.83,16.95 10.75,35.17 8.83,83.58 -30.55,157.09 -92.84,177.76 -7.2,-1.42 -16.14,-19.44 -17.95,-36.58 -3,-28.39 10.73,-78.07 31.92,-113.35zm379.49 -141.38c-53.24,19.17 -112.98,140.87 -105.18,214.82 4.81,45.55 34.43,69.51 84.28,69.67 71.04,-19.97 135.87,-165.51 124.05,-277.5 -7.81,-73.94 -50.51,-165.33 -95.87,-204.97 -17.88,5.14 -42.35,29.93 -45.76,43.84 60.74,77.56 77.79,115.86 90.21,171.98 -15.88,-11.87 -37.79,-19.31 -51.73,-17.84zm-27.45 263.5c-16.35,-0.98 -25.4,-9.78 -27.33,-28 -5.88,-55.72 58.95,-180.67 108.07,-208.07 0.82,2.62 0.87,3.15 2.17,15.48 8.83,83.59 -34.4,197.59 -82.91,220.59zm337.48 -267.51c-16.39,-16.69 -33.01,-25.23 -49.3,-25.67 -70.73,7.46 -140.19,119.35 -130.91,207.23 4.53,42.87 37.02,73.57 86.88,73.72 32.96,-11.06 71,-45.96 98.68,-91.69 -3.01,-2.93 -5.98,-5.32 -10.07,-8.14 -19.96,26.49 -52.86,68.97 -91.44,73.04 -20.36,2.15 -27.24,-22.04 -29.17,-40.26 -0.51,-4.82 -0.49,-9.7 -0.94,-13.99 87.25,-46.05 130.19,-85.8 126.27,-174.24zm-35.1 21.59c2.46,49.04 -35.23,97.44 -89.03,131.84 10.14,-68.26 50.47,-122.35 89.03,-131.84zm245.52 -35.13c-6.04,-16.17 -51.72,-53.6 -68.24,-56.19 -36.66,12 -65.52,56.76 -61.51,94.8 3.17,30.01 23.06,59.34 26.91,95.77 -61.71,10.84 -105.06,62.02 -99.29,116.67 7.98,19.2 34.78,36.97 55.31,36.43 56.7,-11.95 87.47,-54.21 81.19,-113.68 -0.91,-8.57 -2.01,-13.88 -2.57,-19.24 -0.85,-8.03 1.71,-9.39 34.14,-20.4 0.95,-1.18 1.69,-4.51 1.41,-7.19 -0.29,-2.68 -0.34,-3.22 -0.99,-4.23 -11.25,1.18 -22.45,2.91 -37.39,5.03 -0.65,-1.02 -0.76,-2.08 -1.22,-6.37 -7.24,-68.59 4.39,-107.2 32.79,-110.2 7.5,-0.79 13.66,6.15 14.73,16.33 0.91,8.57 -5.97,25.55 -5.52,29.84 1.05,4.77 3.47,7.22 7.81,7.3 11.26,-1.19 23.71,-37.17 22.44,-64.67zm-151.03 263c-7.48,-4.09 -11.91,-10.12 -12.76,-18.17 -2.6,-24.64 38.57,-76.12 66.03,-82.81 3.9,36.97 -20.45,83.42 -53.27,100.98zm214.56 -261.58c-20.36,68.78 -32.56,143.21 -28.88,178.04 2.66,25.19 46.61,51.43 82.08,48.76 11.67,-2.3 47.54,-32.1 54.28,-45.27 -0.76,-2.09 -2.72,-5.14 -4.6,-7.64 -13.76,13.36 -32.68,24.03 -53.83,28.98 -11.42,-0.43 -18.76,-8.32 -20.46,-24.39 -4.64,-43.94 9.44,-115.86 37.58,-188.17 24.58,-3.14 46.15,-9.21 62.62,-17.45 -0.62,-5.9 -3.92,-11.51 -7.47,-14.39 -14.84,3.2 -29.79,5.32 -43.72,6.79 14.51,-31.87 25.7,-54.19 44.31,-83.25 -7.81,-7.29 -43.29,-14.92 -57.76,-13.39 -11.11,7.66 -37.32,57.03 -54.28,101.62 -14.53,0.99 -31.84,1.19 -50.71,2.1 1.02,9.65 6.63,26.93 10.3,30.88l30.54 -3.22zm144.87 155.91c3.33,31.61 38.57,41.98 43.92,41.42 3.22,-0.34 2.71,-5.17 1.35,-18.02 -1.1,-15.61 4.5,-39.5 9.91,-60.11 13.24,-49.08 18.87,-88.13 47.71,-128.02 -16.14,-19.43 -41.5,-28.67 -53.57,-30.11 -30.45,19.47 -40.11,76.84 -41.85,91.11 -7.15,65.77 -8.78,91.41 -7.47,103.73zm77.79 -243.35c0.62,5.89 8.86,12.06 17.61,12.77 4.11,-12.35 38.19,-64.17 52.68,-80.87 -12.41,-14.95 -52.18,-32.42 -68.79,-30.67 -6.68,24.01 -10.51,59.63 -9.21,71.95 0.62,5.9 4.16,13.65 8.3,17 -0.62,4.4 -0.82,7.68 -0.59,9.82zm111.29 -3.08c-5.61,3.3 -26.84,43.46 -47.55,109.04 -18.29,57.74 -28.02,119.44 -25.19,146.23 4.91,15.75 13.15,32.21 29.05,39.2 8.08,-5.73 18.11,-23.58 31.32,-47.19 23.79,-41.53 45.87,-73.65 75.69,-109.31 18.75,-22.56 38.58,-34.95 40.18,-35.12 -18.65,59.4 -21.15,81.87 -19.29,99.55 3.34,31.62 15.65,55.79 56.91,51.44 12.32,-1.31 34.06,-16.07 43.75,-26.84 -0.34,-3.22 -3.1,-8.88 -5.95,-10.21 -4.83,0.51 -14.43,6.95 -21.94,7.74 -8.57,0.9 -13.74,-1.8 -15.6,-19.49 -4.64,-43.94 24.33,-118.51 40.96,-145.73 8.46,-12.27 14.29,-13.43 14.12,-15.03 -8.37,-12.66 -22.87,-26.85 -41.09,-24.93 -34.83,3.68 -79.6,62.04 -103.87,93.87 -10.96,14.16 -42.65,63.01 -62.61,89.5 0.84,-33.14 49.07,-115.16 61.01,-155.97 -9.98,-22.79 -30.52,-42.84 -49.9,-46.75zm295.18 250.57c83.81,-27.27 137.34,-110.39 127.89,-199.88 -3.62,-34.29 -14.43,-49.41 -33.71,-47.37 -3.22,0.34 -6.38,1.22 -9.59,1.56 -12.7,-17.63 -25.9,-29.78 -37.78,-34.48 -16.61,1.75 -35.11,11.29 -52.86,27.79 -46.47,42.3 -76.15,115.32 -70.1,172.65 5.1,48.22 34.97,79.75 76.15,79.73zm9.51 -171.66c15.25,-24.91 37.99,-50.61 68.12,-63 5.6,6.99 8.83,16.94 10.75,35.16 8.82,83.59 -30.56,157.1 -92.84,177.76 -7.2,-1.41 -16.14,-19.43 -17.95,-36.58 -3,-28.39 10.72,-78.06 31.92,-113.34zm178.73 153.41c12.32,-1.3 41.45,-28.21 50.71,-58.45 -15.54,-18.94 -58.29,-33.93 -74.91,-32.18 -1.85,13.2 -9.88,55.22 -8.01,72.9 4.23,9.31 20.79,17.32 32.21,17.73zm129.13 -13.63c12.32,-1.3 41.45,-28.21 50.72,-58.45 -15.55,-18.94 -58.3,-33.94 -74.92,-32.18 -1.85,13.2 -9.87,55.22 -8.01,72.9 4.23,9.31 20.8,17.32 32.21,17.73zm129.14 -13.63c12.32,-1.3 41.44,-28.21 50.71,-58.45 -15.54,-18.94 -58.3,-33.94 -74.91,-32.18 -1.86,13.19 -9.88,55.22 -8.01,72.9 4.23,9.31 20.79,17.31 32.21,17.73z"/>
 </g>
</svg>
