<?xml version="1.0" encoding="UTF-8"?>
<!DOCTYPE svg PUBLIC "-//W3C//DTD SVG 1.1//EN" "http://www.w3.org/Graphics/SVG/1.1/DTD/svg11.dtd">
<!-- Creator: CorelDRAW 2017 -->
<svg xmlns="http://www.w3.org/2000/svg" xml:space="preserve" width="7.8738mm" height="7.8738mm" version="1.1" style="shape-rendering:geometricPrecision; text-rendering:geometricPrecision; image-rendering:optimizeQuality; fill-rule:evenodd; clip-rule:evenodd"
viewBox="0 0 787.38 787.38"
 xmlns:xlink="http://www.w3.org/1999/xlink">
 <defs>
  <style type="text/css">
   <![CDATA[
    .fil0 {fill:none}
    .fil1 {fill:black}
   ]]>
  </style>
 </defs>
 <g id="Capa_x0020_1">
  <metadata id="CorelCorpID_0Corel-Layer"/>
  <rect class="fil0" x="-0" y="-0" width="787.39" height="787.39"/>
  <path class="fil1" d="M89.26 422.89l0 2.71c0.03,18.65 0.92,43.42 27.68,43.42 37.75,0 27.67,-53.28 27.67,-98.4l-0.1 -92.35c-0.23,-16.29 -3.06,-20.75 6.25,-27.58l0 372.08c0,23.34 -9.75,95.33 30.75,95.33 17.17,0 33.83,-9.57 33.83,-27.68l0 -249.08 12.3 0 0 246.01c0,15.74 16.17,30.75 30.75,30.75 41.75,0 33.82,-47.86 33.82,-89.18l0 -375.15c2.85,3.28 -0.03,-1.01 3.93,5.3 22.45,35.77 42.17,110.92 74.16,103.82 13.42,-2.98 44.06,-30.43 55.88,-39.72 17.4,-13.67 66.38,-42.44 41.83,-69.92 -20.24,-22.63 -47.04,3.88 -56.84,11.85 -9.15,7.45 -25.49,22.78 -35.93,25.57 -62.41,-117.95 -18.57,-98.4 -230.63,-98.4 -17,0 -35.75,16.93 -43.2,27.52 -8.08,11.48 -11.38,30.57 -12.15,50.48l0 18.09c0.92,20.67 4.99,38.68 2.91,63.65 -1.84,22.24 -2.88,43.19 -2.91,69.62l0 1.26zm79.95 -310.57c0,34.76 8.85,64.57 55.35,64.57 71,0 64.96,-107.62 6.15,-107.62l-18.45 0c-19.2,0 -43.05,23.85 -43.05,43.05zm199.88 273.67c0,16.33 3.73,25.79 -3.08,39.98 -19.59,-1.63 -15.37,-15.03 -15.37,-43.05 -9.55,-5.05 -12.58,-9.91 -21.53,-12.3 0,23.57 0.06,47.16 0,70.73 -0.16,60.99 -10.72,49.2 138.38,49.2 11.29,0 14.87,-4.77 21.53,-9.23l0 -178.35c-9.4,2.51 -48.45,35.25 -58.43,43.05 -18.61,14.54 -41.83,38.34 -61.5,39.97zm-18.45 -209.1l0 -43.05c0,-15.16 3.35,-15.37 18.45,-15.37l0 73.8c-15.1,0 -18.45,-0.22 -18.45,-15.38zm-21.53 -89.17l0 89.17c0,9.61 5.53,7.57 12.97,14.72 9.77,9.39 29.98,45.43 33.16,59.08 53.06,0 26.28,-24.59 76.88,-24.59 44.19,0 36.9,92.51 36.9,-144.53 0,-7.2 -5.11,-12.3 -12.3,-12.3l-135.3 0c-9.46,0 -12.31,9.01 -12.31,18.45zm227.55 86.1c0,-18.16 -4.19,-55.35 12.31,-55.35 15.16,0 9.22,24.24 9.22,64.57 0,14.94 -21.53,13.36 -21.53,-9.22zm141.46 -92.25l0 139.02c-0.64,11.32 -1.62,20.76 -3.08,27.03 -28.83,6.72 -104.31,3.07 -138.38,3.07 -9.43,0 -18.45,-2.84 -18.45,-12.3l0 -156.82c0,-7.2 5.11,-12.3 12.31,-12.3l135.3 0c7.19,0 12.3,5.1 12.3,12.3zm-341.33 571.95c0,-40.33 -5.94,-64.57 9.22,-64.57 15.17,0 9.23,24.24 9.23,64.57 0,13.03 -18.45,13.03 -18.45,0zm119.93 64.58l-119.42 0c-10.11,-0.64 -18.81,-1.61 -25.11,-3.08 -5.76,-24.72 -5.76,-150.55 0,-175.28 22.01,-10.91 94.92,-6.14 129.15,-6.14 12.46,0 27.68,3.31 27.68,15.37l0 150.68c0,9.44 -2.85,18.45 -12.3,18.45zm79.94 -316.73c0,-19.28 -4.3,-49.2 12.31,-49.2 14.68,0 9.22,20.59 9.22,58.42 0,8.31 -1.47,8.48 -3.08,15.38 -5.4,-0.12 -18.45,6.65 -18.45,-24.6zm-18.45 -92.25l0 166.05c0,9.94 11.17,15.38 21.53,15.38l116.85 0c10.37,0 21.53,-5.44 21.53,-15.38l0 -166.05c0,-21.31 -40.51,-8.66 -81.83,-13.7 -12.8,-1.56 -23.48,1.65 -41.16,1.41 -16.54,-0.22 -36.92,-3.98 -36.92,12.29z"/>
 </g>
</svg>
