<?xml version="1.0" encoding="UTF-8"?>
<!DOCTYPE svg PUBLIC "-//W3C//DTD SVG 1.1//EN" "http://www.w3.org/Graphics/SVG/1.1/DTD/svg11.dtd">
<!-- Creator: CorelDRAW 2017 -->
<svg xmlns="http://www.w3.org/2000/svg" xml:space="preserve" width="14.859mm" height="7.9586mm" version="1.1" style="shape-rendering:geometricPrecision; text-rendering:geometricPrecision; image-rendering:optimizeQuality; fill-rule:evenodd; clip-rule:evenodd"
viewBox="0 0 1485.9 795.86"
 xmlns:xlink="http://www.w3.org/1999/xlink">
 <defs>
  <style type="text/css">
   <![CDATA[
    .fil4 {fill:#3E4095}
    .fil12 {fill:#015696}
    .fil11 {fill:#015699}
    .fil3 {fill:#018E40}
    .fil5 {fill:#055596}
    .fil14 {fill:#055599}
    .fil10 {fill:#058D41}
    .fil7 {fill:#7A2774}
    .fil16 {fill:#D88638}
    .fil9 {fill:#EA2C11}
    .fil15 {fill:#EA8C30}
    .fil0 {fill:#EE2843}
    .fil13 {fill:#F58A19}
    .fil2 {fill:#FC8A1C}
    .fil8 {fill:#FE8918}
    .fil6 {fill:#FEF013}
    .fil17 {fill:#FEFEFE;fill-rule:nonzero}
    .fil1 {fill:black;fill-rule:nonzero}
   ]]>
  </style>
 </defs>
 <g id="Capa_x0020_1">
  <metadata id="CorelCorpID_0Corel-Layer"/>
  <polygon class="fil0" points="0.51,636.07 1485.38,636.07 1485.38,794.63 0.51,794.63 "/>
  <path class="fil1" d="M46.62 614.88l-37.9 -121.57 32.62 0 16.39 64.79c0.8,2.89 1.54,6.31 2.31,10.21 0.74,3.9 1.48,8.14 2.2,12.7 0.64,-4.88 1.27,-9.15 1.94,-12.86 0.68,-3.68 1.4,-7.05 2.17,-10.05l16.87 -64.79 30.68 0 -37.82 121.57 -29.46 0zm82.26 0l0 -121.57 30.87 0 0 121.57 -30.87 0zm45.06 0l41.71 -121.57 37.66 0 41.72 121.57 -32.3 0 -4.99 -17.66 -46.75 0 -4.88 17.66 -32.17 0zm44.05 -40.58l32.78 0 -16.39 -56.3 -16.39 56.3zm84.04 16.71l7.13 0c8.04,0 13.74,-1.77 17.11,-5.33 3.36,-3.55 5.06,-9.57 5.06,-18.06l0 -49.64 -27.37 0 0 -24.67 57.92 0 0 76.17c0,15.8 -3.76,27.71 -11.32,35.75 -7.53,8.03 -18.7,12.04 -33.52,12.04l-15.01 0 0 -26.26zm82.92 23.87l0 -121.57 68.11 0 0 23.55 -37.55 0 0 24.82 37.55 0 0 23.55 -37.55 0 0 24.99 37.55 0 0 24.66 -68.11 0zm201.1 0l0 -61.77c0,-2.89 0.22,-6.57 0.61,-11.05 0.43,-4.49 1.01,-9.37 1.81,-14.64 -1.73,5.17 -4.51,11.75 -8.41,19.73l-0.45 1.01 -33.2 68.97 -32.84 -68.89c-0.23,-0.64 -0.71,-1.65 -1.37,-3.03 -3.37,-6.95 -5.87,-12.89 -7.48,-17.79 0.85,5.7 1.48,10.76 1.91,15.17 0.45,4.43 0.66,7.95 0.66,10.52l0 61.77 -28.01 0 0 -121.57 37.5 0 29.79 66.65 31.4 -66.65 36.09 0 0 121.57 -28.01 0zm113.03 -24.82c9.52,0 17.34,-3.34 23.42,-10.05 6.1,-6.71 9.15,-15.36 9.15,-25.91 0,-10.56 -3.05,-19.2 -9.15,-25.91 -6.08,-6.71 -13.9,-10.05 -23.42,-10.05 -9.6,0 -17.45,3.34 -23.52,10.05 -6.1,6.71 -9.15,15.35 -9.15,25.91 0,10.5 3.05,19.12 9.17,25.85 6.13,6.74 13.95,10.11 23.5,10.11zm0 -99.13c9.1,0 17.45,1.51 25.06,4.5 7.61,3 14.4,7.48 20.37,13.45 5.88,5.81 10.37,12.52 13.42,20.21 3.05,7.66 4.58,15.99 4.58,25.01 0,8.96 -1.53,17.23 -4.58,24.87 -3.05,7.61 -7.54,14.38 -13.42,20.26 -5.92,5.92 -12.71,10.4 -20.4,13.45 -7.69,3.05 -16.04,4.59 -25.03,4.59 -9.02,0 -17.4,-1.54 -25.14,-4.59 -7.75,-3.05 -14.54,-7.53 -20.4,-13.45 -5.88,-5.88 -10.37,-12.65 -13.42,-20.26 -3.04,-7.64 -4.58,-15.91 -4.58,-24.87 0,-8.97 1.51,-17.27 4.53,-24.96 3.05,-7.66 7.48,-14.4 13.34,-20.26 5.89,-5.91 12.68,-10.37 20.37,-13.42 7.69,-3.02 16.12,-4.53 25.3,-4.53zm107.51 88.63c0.16,4 1.59,7.18 4.32,9.52 2.71,2.36 6.37,3.52 10.98,3.52 4.56,0 8.17,-1 10.82,-2.99 2.63,-2.02 3.95,-4.72 3.95,-8.15 0,-3.02 -1.27,-5.59 -3.84,-7.71 -2.57,-2.15 -7.91,-4.7 -16.05,-7.64 -0.77,-0.27 -1.99,-0.69 -3.66,-1.25 -9.44,-3.26 -16.47,-6.65 -21.13,-10.18 -4.11,-3.05 -7.22,-6.87 -9.36,-11.46 -2.15,-4.56 -3.24,-9.7 -3.24,-15.41 0,-10.97 3.79,-19.86 11.35,-26.67 7.56,-6.82 17.5,-10.21 29.84,-10.21 13.63,0 24.08,3.2 31.34,9.62 7.3,6.42 11.01,15.62 11.17,27.61l-27.69 0.08c-0.11,-4.48 -1.41,-7.98 -3.87,-10.48 -2.49,-2.52 -5.94,-3.76 -10.32,-3.76 -4.19,0 -7.56,1.03 -10.05,3.1 -2.52,2.07 -3.77,4.83 -3.77,8.3 0,4.96 6,9.63 18.01,13.95 2.42,0.9 4.32,1.59 5.65,2.1 0.74,0.26 1.86,0.69 3.34,1.24 10.98,4.06 18.67,8.46 23.07,13.24 2.76,2.94 4.8,6.28 6.16,9.97 1.35,3.71 2.01,7.82 2.01,12.33 0,11.83 -4.08,21.32 -12.22,28.46 -8.17,7.16 -19.04,10.74 -32.65,10.74 -12.78,0 -22.94,-3.4 -30.47,-10.16 -7.53,-6.76 -11.48,-16.02 -11.85,-27.79l28.16 0.08zm144.64 35.32l0 -96.9 -27.37 0 0 -24.67 85.29 0 0 24.67 -27.37 0 0 96.9 -30.55 0zm130.88 -24.82c9.52,0 17.34,-3.34 23.42,-10.05 6.1,-6.71 9.15,-15.36 9.15,-25.91 0,-10.56 -3.05,-19.2 -9.15,-25.91 -6.08,-6.71 -13.9,-10.05 -23.42,-10.05 -9.6,0 -17.45,3.34 -23.52,10.05 -6.1,6.71 -9.15,15.35 -9.15,25.91 0,10.5 3.05,19.12 9.17,25.85 6.13,6.74 13.95,10.11 23.5,10.11zm0 -99.13c9.1,0 17.45,1.51 25.06,4.5 7.61,3 14.4,7.48 20.37,13.45 5.88,5.81 10.37,12.52 13.42,20.21 3.05,7.66 4.58,15.99 4.58,25.01 0,8.96 -1.53,17.23 -4.58,24.87 -3.05,7.61 -7.54,14.38 -13.42,20.26 -5.92,5.92 -12.71,10.4 -20.4,13.45 -7.69,3.05 -16.04,4.59 -25.03,4.59 -9.02,0 -17.4,-1.54 -25.14,-4.59 -7.75,-3.05 -14.54,-7.53 -20.4,-13.45 -5.88,-5.88 -10.37,-12.65 -13.42,-20.26 -3.04,-7.64 -4.58,-15.91 -4.58,-24.87 0,-8.97 1.51,-17.27 4.53,-24.96 3.05,-7.66 7.48,-14.4 13.34,-20.26 5.89,-5.91 12.68,-10.37 20.37,-13.42 7.69,-3.02 16.12,-4.53 25.3,-4.53zm115.47 99.29l9.22 0c9.74,0 17.45,-3.27 23.13,-9.79 5.7,-6.52 8.54,-15.35 8.54,-26.49 0,-11.46 -2.86,-20.34 -8.57,-26.74 -5.73,-6.36 -13.68,-9.54 -23.86,-9.54l-8.46 0 0 72.56zm-30.56 24.66l0 -121.89 37.4 0c8.54,0 15.78,0.64 21.74,1.94 5.94,1.3 11.12,3.32 15.52,6.07 9.07,5.73 15.94,13.1 20.63,22.07 4.69,8.94 7.03,19.25 7.03,30.89 0,11.25 -2.39,21.33 -7.14,30.24 -4.77,8.91 -11.85,16.44 -21.21,22.59 -4.03,2.65 -9.12,4.67 -15.28,6.02 -6.12,1.38 -13.23,2.07 -21.29,2.07l-37.4 0zm111.04 0l36.73 -65.24 -32.38 -56.33 34.96 0 12.25 24.69c1.14,2.18 2.04,4.22 2.73,6.1 0.66,1.91 1.14,3.74 1.38,5.49 0.32,-1.62 0.77,-3.26 1.33,-4.98 0.58,-1.7 1.3,-3.48 2.17,-5.36l12.6 -25.94 34.47 0 -32.77 56.33 36.65 65.24 -35.49 0 -17.16 -35.35c-0.77,-1.54 -1.4,-3.08 -1.85,-4.62 -0.48,-1.53 -0.82,-3.1 -1.04,-4.69 -0.29,1.75 -0.71,3.47 -1.27,5.17 -0.53,1.67 -1.22,3.4 -2.04,5.15l-16.55 34.34 -34.72 0zm147.99 -35.32c0.16,4 1.59,7.18 4.32,9.52 2.71,2.36 6.37,3.52 10.98,3.52 4.56,0 8.17,-1 10.82,-2.99 2.63,-2.02 3.95,-4.72 3.95,-8.15 0,-3.02 -1.27,-5.59 -3.84,-7.71 -2.57,-2.15 -7.91,-4.7 -16.05,-7.64 -0.77,-0.27 -1.99,-0.69 -3.66,-1.25 -9.44,-3.26 -16.47,-6.65 -21.13,-10.18 -4.11,-3.05 -7.22,-6.87 -9.36,-11.46 -2.15,-4.56 -3.24,-9.7 -3.24,-15.41 0,-10.97 3.79,-19.86 11.35,-26.67 7.56,-6.82 17.5,-10.21 29.84,-10.21 13.63,0 24.08,3.2 31.34,9.62 7.3,6.42 11.01,15.62 11.17,27.61l-27.69 0.08c-0.11,-4.48 -1.41,-7.98 -3.87,-10.48 -2.49,-2.52 -5.94,-3.76 -10.32,-3.76 -4.19,0 -7.56,1.03 -10.05,3.1 -2.52,2.07 -3.77,4.83 -3.77,8.3 0,4.96 6,9.63 18.01,13.95 2.42,0.9 4.32,1.59 5.65,2.1 0.74,0.26 1.86,0.69 3.34,1.24 10.98,4.06 18.67,8.46 23.07,13.24 2.76,2.94 4.8,6.28 6.16,9.97 1.35,3.71 2.01,7.82 2.01,12.33 0,11.83 -4.08,21.32 -12.22,28.46 -8.17,7.16 -19.04,10.74 -32.65,10.74 -12.78,0 -22.94,-3.4 -30.47,-10.16 -7.53,-6.76 -11.48,-16.02 -11.85,-27.79l28.16 0.08z"/>
  <path class="fil2" d="M395.8 334.39c5.17,1.04 7.43,4.84 13.04,5.49 2.16,-17.14 -2.38,-61.06 1.2,-72.99 -7.11,1.55 -16.47,18.39 -19.04,27.51 -3.93,13.89 0.58,29.35 4.8,39.99z"/>
  <path class="fil3" d="M837.37 477.47l41.9 0 -0.13 -208.58c-19.19,-3.87 -30.86,14.4 -37.1,26.02 -8.18,15.23 -5.23,36.63 -5.18,56.81 0.09,41.9 0.66,83.87 0.51,125.75z"/>
  <path class="fil3" d="M782.95 477.47l41.84 0 0.66 -157.53c0.1,-14.02 -0.18,-15.42 -5.75,-25.93 -5.28,-9.98 -20.39,-27.7 -36.47,-26.13l-0.28 209.59z"/>
  <path class="fil3" d="M863.94 103.01l4.3 -8.79c1.34,-23.59 -8.05,-37.75 -26.49,-43.21 -43.64,-12.9 -65.67,51.47 -24.71,68.89 20.16,8.58 41.19,-1.69 46.9,-16.89z"/>
  <path class="fil4" d="M1072.92 52.88l24.12 8.81c1.23,-0.54 7.45,-1.13 0.7,-8.25 -9.72,-10.26 -26.45,-15.88 -39.87,-18.2 0.03,7.51 2.67,6.68 3.44,13.87 4.98,0.21 8.36,1.39 11.61,3.77z"/>
  <path class="fil5" d="M982.38 146.68c-0.11,5.77 -2.04,8.16 -2.34,15.67l0.43 135.34c2.21,9.53 16.95,11.26 25.1,4.64 10.43,-8.48 -2.32,-98.31 5.17,-110.65l4.15 -0.18c3.87,6.23 1.09,20.47 1.68,28.77 7.81,1.02 12.51,-0.07 19.13,-0.8l14.94 -0.43c3.94,1.42 1.49,-1.28 3.13,2.8 -3.08,6.8 -16.05,0.47 -22.22,6.09l20.65 0.81c0.45,3.41 0.4,2.53 1.66,3.69 4.34,4.02 -0.15,1.83 5.61,2.33 2.07,-1.9 1.99,-1.94 8.33,-1.7l-0.82 48.19 10.01 4.13c6.5,-0.92 28.96,-8.96 35.39,-12.75l-0.03 -44.59 -33.73 -3.37c-3.79,-1.4 -1.49,1 -3.74,-2.83 2.28,-4.41 -1.95,-4.03 17.39,-2.52 6.64,0.51 13.29,0.66 19.94,0.67l0.03 -27.96 7.04 -0.49c2.3,26.09 0.14,60.14 0.26,86.95 0.07,15.03 -2.37,27.83 15.56,27.72 17.04,-0.1 13.78,-15.43 13.75,-30.48 -0.04,-29.02 -0.02,-58.04 -0.02,-87.06 0.01,-28.83 2.87,-61.01 -34.45,-54.44 -9.78,10.35 -15.97,26.41 -22.3,39.05 -7.58,15.16 -6.1,20 -14.81,33.57 -3.86,6.01 -0.38,6.38 -4.87,7.6 -11.36,3.11 0.65,-10.34 6.98,-28.02 2.96,-8.29 24.05,-45.91 24.54,-53.17 -15.65,-0.59 -67.5,-2 -80.21,0.66l27.84 58.21c3.62,7.84 8.09,12.89 10.73,20.38l-5.87 2.71 -10.6 -20.17c-3.05,-8.76 -4.24,-12.06 -8.87,-21.53 -7.75,-15.83 -13.34,-26.65 -22.11,-39.99 -6.26,-0.68 -14.24,-0.41 -19.94,1.96 -8.74,3.62 -7.2,6.83 -12.51,11.19z"/>
  <path class="fil5" d="M1028.24 79.97l0.64 0.93c-2.1,26.43 12.46,46.86 39.95,44.59 11.94,-0.98 21.5,-8.45 26.33,-15.48 9.9,-14.39 4.19,-19.5 5.81,-32.74 -6.06,-0.25 -0.76,-0.95 -6.97,1.18 -1.66,0.57 -4.31,1.82 -5.88,2.44 -3.74,1.47 -7.49,2.62 -12.46,3.37 -8.95,1.91 -27.59,2.42 -34.52,-1.8 -7.29,-2.1 -4.24,-2.53 -9.67,-5.87 -1.91,3.33 -2.53,2.64 -3.23,3.38z"/>
  <path class="fil4" d="M1043.91 53.35l-3.76 0.85c-7.8,9.28 -8.91,2.39 -7.55,8.99l3.18 -0.13c3.61,-0.77 -0.75,0.14 3,-0.94 2.99,-0.87 5.2,-1.34 8.09,-1.54 19.59,-1.34 35.16,4.76 51.97,6.96l-1.8 -5.85 -24.12 -8.81c-13.61,-0.9 -15.13,-1.74 -29.01,0.47z"/>
  <path class="fil6" d="M501.19 185.92c0.1,24.4 0.02,48.82 0.02,73.23 0,11.77 -0.45,24.32 -0.08,35.99 0.45,14.19 10.05,14.16 22.73,12.23l3.79 -1.72c6.99,-16.39 0.95,-83.06 2.72,-106.03 0.03,-0.4 -1.27,-7.72 5.04,-5.74 3.88,1.21 2.3,5.38 2.23,15.51l-0.05 54.84 96.07 -0.31c0.01,-11.81 0.01,-23.49 0,-35.17 0,-5.94 -1.38,-29.85 1.24,-34.74l4.14 -0.12c1.36,1.95 0.69,0.18 1.4,3.28 0.38,1.66 0.39,2.15 0.49,3.85 0.15,2.71 -0.1,6.87 -0.11,9.76 -0.07,13.66 -1.32,86.29 1.13,91.12 4.18,8.19 20.52,8.59 25.61,2.35 5.57,-6.83 3.44,-130.24 1.81,-147.35 -6.39,-19.63 -12.99,-21.7 -37.23,-21.62 -20.27,0.06 -40.54,0.01 -60.8,0.01 -55.76,-0.03 -70.66,-9.86 -70.15,50.63z"/>
  <polygon class="fil6" points="591.89,477.47 633.83,477.47 633.37,282.01 591.32,306.13 "/>
  <polygon class="fil6" points="537.44,477.47 579.28,477.47 579.89,305.77 537.61,283.53 "/>
  <path class="fil7" d="M1237.46 241.46c-6.53,-3.73 -29.23,-28.48 -31.96,-32.06 2.97,-6.11 11.77,-12.85 17.49,-18.5 7.53,-7.42 8.78,-13.18 24.54,-12.42 -5.39,27.97 -9.22,4.37 -10.07,62.98zm112.12 -62.38c14.9,-1.48 17.14,5.39 23.96,11.63 4.2,3.85 15.54,13.67 18.49,18.69 -2.3,3.61 -26.2,30.11 -31.19,31.63 -0.61,-21.01 -3.37,-45.64 -11.26,-61.95zm-34.41 -11.84c0.1,0.03 0.58,0.03 0.76,0.71l4.65 10.96c-0.03,0.25 -0.13,0.76 -0.32,1.08 -11.75,3.13 3.51,-2.7 -8.15,-0.36 -1.8,0.36 -2.26,0.76 -3.38,1.72 -2.75,2.37 0.56,-0.69 -1.39,1.55l-1.5 1.93c-0.21,0.26 -0.51,0.72 -0.78,1.07 -4.95,-7.14 3.06,-1.55 -8.15,-8.29l-7.05 6.45 -9.38 -3.68c3.58,-1.95 5.32,0.51 7.59,-5.03l-7.47 0.89c0.94,-3.4 2.69,-10.22 5.25,-11.58 8.02,-4.3 -3.65,4.44 3.14,-0.71 0.37,-0.28 1.24,-3.34 4.79,-4.85 2.56,3.8 6.62,1.84 2.16,12.98 0.39,-0.29 0.89,-1.26 1.11,-0.95l3.06 -2.54c6.76,-5.06 0.39,1.8 9.1,-7.56 2.93,2.58 5.46,5.21 9.13,3.34l-3.17 2.87zm-85.41 -26.98c-2.66,6.74 -62.69,57.93 -64.57,63.61 -5.35,16.1 39.31,42.6 42.68,53.61 9.49,4.98 25.95,36.9 42.2,2l97.65 -0.31c3.18,9.31 13.17,23.05 25.09,13.89 3.14,-2.42 8.57,-8.37 11.21,-10.95 3.9,-3.83 7.2,-6.86 11.29,-10.83 8.19,-7.97 14.81,-14.14 22.49,-21.68 8.58,-8.41 20.05,-16.29 11.84,-29.87 -4.72,-1.4 -27.63,-25.23 -33.18,-30.6 -3.81,-3.68 -32.13,-27.86 -32.99,-32.52 -11.78,-4.79 -83.22,-3.73 -105.39,-3.7 -29.72,0.03 -16.52,2.98 -28.32,7.35z"/>
  <path class="fil7" d="M1305.07 477.47l43.49 0 -1.15 -183.51c-4.39,0.24 -14.28,5.76 -19.38,7.33 -7.67,2.36 -14.95,3.75 -23.62,4.35l0.66 171.83z"/>
  <path class="fil7" d="M1248.3 477.47l44.11 0 -0.82 -171.88c-6.83,-2.42 -15.62,-2.4 -22.99,-4.59 -11.04,-3.28 -11.34,-6.93 -18.8,-7.82l-1.5 184.29z"/>
  <path class="fil7" d="M1299.54 101.39c-7.47,3.07 -13.19,8.45 -19.22,-1.15l8.51 -5.26c7.37,-3.58 5.44,0.5 10.56,0.31 11.32,-0.41 0.3,-3.85 14.91,2.48 4.61,1.99 0.96,-0.75 4.32,1.09 -2.78,10.48 -13.56,5.93 -19.08,2.53zm-25.62 -42.57c-1.11,3.29 -1.3,2.35 -4.17,6.11 -10.19,13.34 -9.15,33.1 2.3,46.2 5.33,6.1 9.29,6.15 13.68,9.94 16.7,3.49 25.92,2.83 37.64,-6.68 19.68,-15.96 17.03,-51.3 -10.54,-62.05 -19.38,-7.56 -27,1.92 -38.91,6.48z"/>
  <path class="fil8" d="M312.99 477.47l41.97 0 0.88 -173.96 11.04 0.07 0.57 173.89 41.95 0 -0.65 -125.35c-7.81,0.64 -18.97,-6.73 -23.9,-11.46 -15.28,-14.7 -16.97,-32.88 -8.83,-52.88 4.85,-11.93 12.05,-16.07 13.54,-20.4 -0.62,-6.09 -2.18,-2.74 5.1,-6.65 -3.93,-0.59 -5.35,-2.23 -2.96,-5.72l1.25 2.02c3.52,4.25 2.46,2.21 3.66,2.34 5.35,0.59 -2.25,-3.21 4.76,-0.23l-4.96 -4.71c-0.56,-0.29 -12.17,-0.99 -1.94,-10.48 1.85,1.78 1.54,-1.4 2.16,7.95 0.37,-0.14 0.74,-0.54 0.95,-0.68l1.77 -1.2c5.39,-2.96 5.92,2.33 6.32,-5.85l-1.52 -58.27c-1.29,-1.86 1.59,-0.68 -4.68,-2.41l-1.88 1.04c0.83,6 2.18,5.45 3.14,9.02 -3.39,-0.62 -2.16,-1.98 -7.65,-5.36 -8.79,2.67 -2.95,3.94 -9.12,5.52 1.21,-5.04 -0.34,0.92 1.91,-3.95 1.31,-2.82 1.04,-2.16 1.76,-5.56l-2.31 -0.68 -13.81 1c2.28,-17.5 5.84,-11.04 16.06,-11.04 2.61,-9.27 2.03,-7.32 5.36,-8 10.35,-2.11 1.6,-1.05 7.31,3.14l2.51 2.08c2.68,-4.86 1.23,-6.27 7.7,-4.13 0.12,1.71 -0.32,3.93 -2.23,4.7 -3.31,1.32 -1.22,0.65 -5.46,-0.55 2.77,3.36 -2.73,1.96 4.32,3.73 3.29,0.82 3.59,-4.74 13.63,-0.97 -2.07,5.56 -0.34,2.09 -2.74,4.71 -0.29,0.3 -1.09,0.7 -1.32,0.44 -0.23,-0.28 -0.96,0.02 -1.45,0.05 14.66,0.86 8.53,3.92 16.97,7.73l5.15 -2.32c3.12,-4.8 4.48,-0.49 4.53,-0.46 8.11,6.24 -6.58,-1.05 3.06,2.41l7.59 0.73c-0.37,5.72 0.96,5.29 5.33,7.42 -0.35,-13.79 0.21,-3.22 -6.21,-9.66 5.28,-2.95 3.79,-3.39 4.47,-6.26 0.05,-0.2 0.07,-0.62 0.13,-0.81l0.56 -1.31c0.07,-0.16 0.34,-0.48 0.42,-0.63 2.09,-4.09 0.69,6.2 1.62,-3.58 -1.32,-3.44 -5.07,-6 -8.33,-8.89 -3.39,-3.01 -4.75,-4.62 -8.26,-8.29 -23.6,-24.72 -24.73,-21.34 -46.38,-21.31 -105.27,0.14 -119.09,-14.86 -119.05,48.31l-0.02 102.26c-0.11,12.07 -0.91,20.74 11.4,22.09 13.12,1.44 18.02,-4.7 17.99,-16.49 -0.04,-17.05 -2.13,-92.67 1.24,-98.04l4.15 0.08c3.53,4.97 1.43,258.13 1.43,285.81zm72.33 -293.95c-0.25,-0.34 -0.67,-1.22 -0.82,-0.94l-4.79 -4.6 10.04 0.96 1.96 -9.48c1.54,1.94 0.63,0.31 1.91,3.65 0.3,0.77 1.03,3.92 1.44,5.34 6.17,0.96 5.15,0.14 10,-0.49 -2.02,4.25 -1.9,0.65 -5.59,5.53 6.27,1.73 3.39,0.55 4.68,2.41l1.52 58.27c-0.4,8.18 -0.93,2.89 -6.32,5.85l-1.77 1.2c-0.21,0.14 -0.58,0.54 -0.95,0.68 -0.62,-9.35 -0.31,-6.17 -2.16,-7.95 -10.23,9.49 1.38,10.19 1.94,10.48l4.96 4.71c-7.01,-2.98 0.59,0.82 -4.76,0.23 -1.2,-0.13 -0.14,1.91 -3.66,-2.34l-1.25 -2.02c-2.39,3.49 -0.97,5.13 2.96,5.72 -7.28,3.91 -5.72,0.56 -5.1,6.65 7.5,-2.77 9.94,-7.07 20.24,-9.14l1.35 7.81c4.68,3.3 7.73,11.67 17.59,9.67 4.15,-0.84 12.97,-10.36 16.01,-13.27 9.84,-9.43 19.38,-19.19 29.33,-28.7 32.02,-30.64 20.79,-26.46 0.54,-47.87 -5.71,-6.03 -9.09,-10.86 -15.8,-13.94 -0.93,9.78 0.47,-0.51 -1.62,3.58 -0.08,0.15 -0.35,0.47 -0.42,0.63l-0.56 1.31c-0.06,0.19 -0.08,0.61 -0.13,0.81 -0.68,2.87 0.81,3.31 -4.47,6.26 6.42,6.44 5.86,-4.13 6.21,9.66 -4.37,-2.13 -5.7,-1.7 -5.33,-7.42l-7.59 -0.73c-9.64,-3.46 5.05,3.83 -3.06,-2.41 -0.05,-0.03 -1.41,-4.34 -4.53,0.46l-5.15 2.32c5.08,9.22 18.32,15.96 22.53,24.37 -4.2,5.83 -5.51,6.01 -10.57,10.97l-34.49 34.57 -0.54 -77.88 6.1 0.24c0.49,-0.03 1.22,-0.33 1.45,-0.05 0.23,0.26 1.03,-0.14 1.32,-0.44 2.4,-2.62 0.67,0.85 2.74,-4.71 -10.04,-3.77 -10.34,1.79 -13.63,0.97 -7.05,-1.77 -1.55,-0.37 -4.32,-3.73 4.24,1.2 2.15,1.87 5.46,0.55 1.91,-0.77 2.35,-2.99 2.23,-4.7 -6.47,-2.14 -5.02,-0.73 -7.7,4.13l-2.51 -2.08c-5.71,-4.19 3.04,-5.25 -7.31,-3.14 -3.33,0.68 -2.75,-1.27 -5.36,8 -10.22,0 -13.78,-6.46 -16.06,11.04l13.81 -1z"/>
  <path class="fil9" d="M135.5 214.17c-4.28,-2.38 -6.8,-7.46 -7.5,-11.9l3.21 -48.68c7.27,0.44 4.86,-1.95 6.49,4.57l1.83 25.13c1.67,20.5 1.83,14.36 -4.03,30.88zm-63.71 194.2l-0.3 -94.6 -18.51 0.26 0.67 93.6 18.14 0.74zm52.37 -354.94c-8.46,5.08 -18.66,6.77 -24.38,24.23 -2.22,6.75 -2.7,14.19 -0.73,20.86 2.33,7.9 6.98,11.84 8.58,17.08 6.18,2.58 8.6,6.6 16.7,8.83 36.77,10.12 63.16,-34.75 35.74,-61.99 -9.45,-9.39 -19.6,-10.71 -35.91,-9.01zm7.77 96.09c-5.38,-4.65 -3.93,-5.78 -1.98,-11.38l9.12 0.61c2.43,7.18 1.52,11.25 -7.14,10.77zm-45.94 327.95l41.69 0 0.58 -173.4 11.29 -0.38 0.81 173.78 41.88 0c0.15,-91.37 1.09,-183.79 -0.22,-275.05 -0.06,-4.36 -1.32,-13.16 4.56,-11.45 4.26,1.24 2.95,8.01 2.85,12.86l-0.08 69.13c0.02,9.85 -2.55,25.5 4.83,30.34 8.6,5.64 21.06,3.3 23.71,-4.96 1.54,-4.83 0.69,-92.16 0.69,-101.38 0,-20.87 3.79,-47.34 -10.03,-58.64 -11.48,-9.39 -46.26,-5.04 -64.19,-5.16 -78.28,-0.54 -94.44,-10.12 -94.49,43.08l0 103.63c-0.01,11.8 -2.22,23.43 9.07,25.97 11.51,2.59 20,-3.53 20.2,-13.43 0.37,-18.71 -2.66,-94.78 1.66,-100.96l4.15 0.26c3.71,6.65 1.04,254.93 1.04,285.76z"/>
  <path class="fil10" d="M879.21 255.62l-0.14 -76.97c18.41,-0.28 17.11,3.53 26.52,12.92 3.82,3.81 17.77,15.79 19,19.21 -4.45,5.9 -42.65,43.33 -45.38,44.84zm-25.99 -49.67l1.11 -6.17c2.95,0.8 2.7,0.74 7.17,1.32 1.26,-3.4 1.17,-2.68 1.39,-7.47 2.46,0.96 2.42,2.57 8.13,-0.73l1.55 -1.27c2.46,9.39 -0.26,1.17 -7.79,6.72l3.66 5.19c1.96,3.98 1.02,18.01 0.9,18.3 -0.29,0.28 -0.82,0.21 -0.94,0.75 -0.12,0.51 -0.71,0.57 -0.86,0.75 -6.42,7.67 0.38,-3.23 -1.7,2.32 -1.28,3.41 1.7,11.9 -1.87,21.74l2.45 2.34c-0.5,-0.03 -0.82,-0.03 -1.38,-0.06 -1.29,-0.05 -5.42,-0.09 -7.67,-0.2l2.22 5.82c0.14,0.38 0.33,0.7 0.45,1.06 0.14,0.43 0.38,4.47 0.1,5.55l-56.67 0 4.14 -5.53 -4.14 -6.9c-5.6,-1.22 -5.61,-3.01 -8.29,1.38 -1.85,-0.62 -6.58,-5.25 -8.29,-6.92l0 -63.56c8.08,3.02 -1.7,-2.99 1.43,1.77 0.13,0.19 0.55,0.8 0.67,1.05 2.14,4.39 -0.62,5.68 2.19,10.46 1.42,2.41 -0.16,0.97 3.12,3.07 0.32,0.21 0.66,0.37 1.01,0.55 0.35,0.19 0.69,0.32 1.06,0.48 9.28,3.99 10.02,-0.76 25.17,3.33l8.18 1.19c12.17,2.65 -10.64,3.67 23.5,3.67zm68.68 -48.34c-12.37,-2.2 -9.89,-2.86 -16.76,-9.8 -3.37,-3.41 -7.72,-7.67 -12.54,-10.95 -9.07,-6.16 -76.4,-3.64 -91.89,-3.87 -23.3,-0.36 -21.33,-0.56 -35.92,10.96 -7.98,-2.69 -8.64,-9.59 -23.48,-7.98 -16.49,1.79 -10.54,9.66 -21.45,7.98 -1.39,-56.06 10.31,-74.63 -24.77,-69.45 -6.2,5.53 -6.34,3.95 -6.16,17.42 0.21,15.92 -0.85,65.4 1.33,74.56 3.17,13.28 16.87,9.54 41.36,9.29 16.04,-0.17 35.59,-1.26 51.24,-0.01l0.33 88.56c5.9,1.43 39.39,0.99 47.92,1.1 12.24,0.17 41.93,2.24 50.14,-1.5 1.9,5.98 10.06,15.17 19.47,11.1l48.9 -46.6c21.73,-20.41 15.9,-23.51 1.36,-36.64 -13.34,-12.06 -4.82,-5.22 -11.78,-19.94 -3.14,-6.64 -9.5,-12.7 -17.3,-14.23zm-68.68 48.34c-34.14,0 -11.33,-1.02 -23.5,-3.67l-8.18 -1.19c-15.15,-4.09 -15.89,0.66 -25.17,-3.33 -0.37,-0.16 -0.71,-0.29 -1.06,-0.48 -0.35,-0.18 -0.69,-0.34 -1.01,-0.55 -3.28,-2.1 -1.7,-0.66 -3.12,-3.07 -2.81,-4.78 -0.05,-6.07 -2.19,-10.46 -0.12,-0.25 -0.54,-0.86 -0.67,-1.05 -3.13,-4.76 6.65,1.25 -1.43,-1.77l0 63.56c1.71,1.67 6.44,6.3 8.29,6.92 2.68,-4.39 2.69,-2.6 8.29,-1.38l4.14 6.9 -4.14 5.53 56.67 0c0.28,-1.08 0.04,-5.12 -0.1,-5.55 -0.12,-0.36 -0.31,-0.68 -0.45,-1.06l-2.22 -5.82c2.25,0.11 6.38,0.15 7.67,0.2 0.56,0.03 0.88,0.03 1.38,0.06l-2.45 -2.34c3.57,-9.84 0.59,-18.33 1.87,-21.74 2.08,-5.55 -4.72,5.35 1.7,-2.32 0.15,-0.18 0.74,-0.24 0.86,-0.75 0.12,-0.54 0.65,-0.47 0.94,-0.75 0.12,-0.29 1.06,-14.32 -0.9,-18.3l-3.66 -5.19c7.53,-5.55 10.25,2.67 7.79,-6.72l-1.55 1.27c-5.71,3.3 -5.67,1.69 -8.13,0.73 -0.22,4.79 -0.13,4.07 -1.39,7.47 -4.47,-0.58 -4.22,-0.52 -7.17,-1.32l-1.11 6.17z"/>
  <path class="fil11" d="M1016.32 477.47l41.72 0c0,-17.82 2.87,-167.49 -1.11,-177.39 -3.81,-9.48 -7.65,-9.25 -17.88,-12.59 -7.6,-2.49 -15.81,-6.9 -23.26,-7.31l0.53 197.29z"/>
  <path class="fil12" d="M1070.78 477.47l41.79 0 -0.16 -196.44c-1.67,-0.11 -34.12,9.55 -37.07,12.33 -1.64,1.54 -2.04,2.77 -3.09,5.17 -4.35,9.95 -1.83,44.87 -1.76,58.72 0.21,40.06 0.29,80.16 0.29,120.22z"/>
  <path class="fil13" d="M373.52 18.96c5.64,3.79 9.24,3.45 7.38,8.23 -1.92,2.21 -7.29,0.66 -9.79,-0.3 -3.48,-1.34 -4.92,-2.56 -8.26,-4.43l0.2 -11.65c3.68,2.29 6.22,5.28 10.47,8.15zm-34.7 8.28c-1.64,-4.96 3.17,-5.14 8.36,-8.84 4.4,-3.13 5.42,-5.55 9.91,-7.87l-0.51 11.86c-9.74,6.9 -14.18,6.77 -17.76,4.85zm-13.21 52.28c-2.94,50.85 51.5,50.26 61.17,32.79 -7.97,-1.87 -3.03,2.58 -14.41,4.5 -4.9,-8.15 -4.84,3.99 -5.54,-8.29 -6.31,0.64 -13.15,9.82 -21.47,1.97 -1.08,-1.02 -1.34,-1.41 -1.94,-2.07 -0.11,-0.11 -2.49,-2.78 -2.53,-2.82l-2.3 -2.31c-0.25,-0.24 -0.65,-0.63 -0.85,-0.83 -0.2,-0.2 -0.64,-0.51 -0.87,-0.84l2.61 -6.8c-5.41,-3.32 -7.94,-4.65 -4.77,-8.72l6.58 -5.92c0.19,-0.33 0.35,-0.91 0.67,-1.27 6.97,2.24 31.79,1.41 41.44,0.88 2.52,-0.14 4.27,-0.36 6.89,-0.32l7.66 0.62c-0.9,-6.89 -0.41,-2.73 0.66,-4.35 8.67,-0.06 31.2,-0.68 37.31,-3.85 6.08,-9.14 -1.41,-16.92 -6.39,-22.39 -14.67,-13.13 -24.51,-1.11 -36.6,1.67 -0.98,-5.14 -2.62,-10.7 -3.97,-15.87 -3.57,-13.77 -4.7,-11.54 -16.51,-23.57 -9.39,-9.56 -8.83,-16.86 -22.92,-2.04 -16.79,17.65 -10.97,-4.26 -20.9,30.28 -0.41,1.42 -0.78,2.85 -1.32,4.13l-1.4 2.69c-0.1,0.18 -0.33,0.58 -0.53,0.84 -27.28,-8.7 -46.56,3.92 -38.6,25.05 7.35,2.19 30.56,3.1 39.92,3.06l-1.09 3.78zm61.17 32.79c8.17,-2.37 14.07,-22.89 11.17,-32.22l-7.66 -0.62c-2.62,-0.04 -4.37,0.18 -6.89,0.32 -9.65,0.53 -34.47,1.36 -41.44,-0.88 -0.32,0.36 -0.48,0.94 -0.67,1.27l-6.58 5.92c-3.17,4.07 -0.64,5.4 4.77,8.72l-2.61 6.8c0.23,0.33 0.67,0.64 0.87,0.84 0.2,0.2 0.6,0.59 0.85,0.83l2.3 2.31c0.04,0.04 2.42,2.71 2.53,2.82 0.6,0.66 0.86,1.05 1.94,2.07 8.32,7.85 15.16,-1.33 21.47,-1.97 0.7,12.28 0.64,0.14 5.54,8.29 11.38,-1.92 6.44,-6.37 14.41,-4.5z"/>
  <path class="fil14" d="M1017.04 273.97c7.35,1.89 13.91,5.21 21.25,7.55 13.76,4.37 10.1,2.76 22.65,0.17 -1,-10.16 1.45,-42.81 -1.47,-46.93 -5.76,-0.5 -1.27,1.69 -5.61,-2.33 -1.26,-1.16 -1.21,-0.28 -1.66,-3.69l-20.65 -0.81 -14.72 -0.53c-1.21,10.57 -0.94,38.75 0.21,46.57z"/>
  <path class="fil5" d="M1097.04 61.69l1.8 5.85c-16.81,-2.2 -32.38,-8.3 -51.97,-6.96 -2.89,0.2 -5.1,0.67 -8.09,1.54 -3.75,1.08 0.61,0.17 -3,0.94l-3.18 0.13c-1.36,-6.6 -0.25,0.29 7.55,-8.99l-9.6 1.81c0.38,-12.76 14,-18.52 24.61,-19.88 2.39,7.21 4.98,5.86 3.87,12.98l-10.55 1.21c-5.85,2.53 -2.4,1.18 -4.57,3.03 13.88,-2.21 15.4,-1.37 29.01,-0.47 -3.25,-2.38 -6.63,-3.56 -11.61,-3.77 -0.77,-7.19 -3.41,-6.36 -3.44,-13.87 13.42,2.32 30.15,7.94 39.87,18.2 6.75,7.12 0.53,7.71 -0.7,8.25zm-67.21 6.93l-1.59 11.35c0.7,-0.74 1.32,-0.05 3.23,-3.38 5.43,3.34 2.38,3.77 9.67,5.87 -0.2,-0.35 -0.43,-1.34 -0.51,-1.11l-2.15 -4.11c-3.99,-6.07 -2.68,0.76 -2.81,-5.71 7.44,-3.09 21.9,-4.43 30.42,-3.74 6.15,0.49 8.58,1.69 13.96,2.76 2.97,0.59 4.19,0.51 6.89,1.69 1.52,0.66 1.73,0.92 2.6,1.52 0.35,0.23 1.35,1.06 1.65,1.29l1.7 1.44c-14.49,2.77 -22.25,5.58 -39.07,4.75 2.91,0.58 7.27,0.6 10.8,0.6 11.86,0 9.04,-0.05 11.04,2.42 4.97,-0.75 8.72,-1.9 12.46,-3.37 1.57,-0.62 4.22,-1.87 5.88,-2.44 6.21,-2.13 0.91,-1.43 6.97,-1.18l1.45 -21.21c-11.42,-11.14 -37.81,-28.37 -58.94,-18.04l-7.7 4.32c-3.22,2.56 -0.27,0.21 -2.1,1.95 -12.82,12.11 1.61,15.02 -3.85,24.33z"/>
  <path class="fil4" d="M1041.14 82.46c6.93,4.22 25.57,3.71 34.52,1.8 -2,-2.47 0.82,-2.42 -11.04,-2.42 -3.53,0 -7.89,-0.02 -10.8,-0.6 16.82,0.83 24.58,-1.98 39.07,-4.75l-1.7 -1.44c-0.3,-0.23 -1.3,-1.06 -1.65,-1.29 -0.87,-0.6 -1.08,-0.86 -2.6,-1.52 -2.7,-1.18 -3.92,-1.1 -6.89,-1.69 -5.38,-1.07 -7.81,-2.27 -13.96,-2.76 -8.52,-0.69 -22.98,0.65 -30.42,3.74 0.13,6.47 -1.18,-0.36 2.81,5.71l2.15 4.11c0.08,-0.23 0.31,0.76 0.51,1.11z"/>
  <path class="fil4" d="M1040.15 54.2l3.76 -0.85c2.17,-1.85 -1.28,-0.5 4.57,-3.03l10.55 -1.21c1.11,-7.12 -1.48,-5.77 -3.87,-12.98 -10.61,1.36 -24.23,7.12 -24.61,19.88l9.6 -1.81z"/>
  <path class="fil15" d="M388.34 324.54c-1.36,-14.06 -4.66,-18.36 0.55,-33.7 2.82,-8.32 10.34,-19.8 14.61,-24.45 -8.8,5.75 -15.43,10.26 -19.12,23.98 -4.78,17.74 -1.53,21.24 3.96,34.17z"/>
  <path class="fil16" d="M408.28 346.37l1.37 -2.85c-2.37,-1 -5.37,-1.69 -8.02,-3.1 -0.84,-0.45 -2.59,-1.61 -3.37,-2.22l-2.94 -3.16c-5.07,-2.04 -6.03,-3.34 -8.79,-7.18 -1.89,-2.64 -4.68,-7.07 -5.43,-10.22 0.57,7.99 9.46,21.36 15.56,25 4.17,2.49 6.75,2.6 11.62,3.73z"/>
  <path class="fil17" d="M46.55 771.26l0 -84.57 29.58 0c8.93,0 16.03,2.54 21.29,7.63 5.27,5.11 7.91,11.98 7.91,20.63 0,9.35 -2.56,16.49 -7.69,21.4 -5.13,4.89 -12.62,7.35 -22.49,7.35l-7.35 0 0 27.56 -21.25 0zm21.25 -44.72l3.25 0c4.1,0 7.27,-1.04 9.49,-3.08 2.21,-2.05 3.32,-4.99 3.32,-8.79 0,-3.89 -1.09,-6.77 -3.25,-8.65 -2.16,-1.9 -5.5,-2.84 -10,-2.84l-2.81 0 0 23.36zm171 27.45c6.62,0 12.07,-2.32 16.29,-6.99 4.25,-4.67 6.37,-10.68 6.37,-18.03 0,-7.34 -2.12,-13.36 -6.37,-18.02 -4.22,-4.67 -9.67,-7 -16.29,-7 -6.68,0 -12.14,2.33 -16.36,7 -4.25,4.66 -6.37,10.68 -6.37,18.02 0,7.31 2.12,13.31 6.38,17.99 4.27,4.69 9.71,7.03 16.35,7.03zm0 -68.97c6.33,0 12.14,1.06 17.44,3.14 5.29,2.09 10.01,5.2 14.17,9.36 4.09,4.04 7.21,8.7 9.33,14.05 2.12,5.34 3.19,11.13 3.19,17.4 0,6.24 -1.07,12 -3.19,17.31 -2.12,5.29 -5.24,10 -9.33,14.09 -4.12,4.12 -8.84,7.24 -14.19,9.36 -5.35,2.12 -11.16,3.19 -17.42,3.19 -6.27,0 -12.1,-1.07 -17.49,-3.19 -5.39,-2.12 -10.11,-5.24 -14.19,-9.36 -4.09,-4.09 -7.21,-8.8 -9.33,-14.09 -2.13,-5.31 -3.2,-11.07 -3.2,-17.31 0,-6.23 1.06,-12.01 3.16,-17.36 2.12,-5.33 5.2,-10.02 9.28,-14.09 4.1,-4.12 8.82,-7.22 14.17,-9.34 5.35,-2.1 11.22,-3.16 17.6,-3.16zm165.98 18.16l-5.78 0 0 23.39 6.31 0c4.06,0 7.2,-1.03 9.41,-3.08 2.22,-2.05 3.33,-4.98 3.33,-8.8 0,-3.89 -1.09,-6.79 -3.27,-8.67 -2.18,-1.9 -5.52,-2.84 -10,-2.84zm-27.03 68.08l0 -84.57 31.01 0c9.49,0 17,2.45 22.55,7.34 5.55,4.91 8.32,11.49 8.32,19.8 0,6.51 -1.68,11.8 -5.04,15.88 -3.35,4.06 -7.91,6.37 -13.69,6.92l22.16 34.63 -25.61 0 -18.45 -35.98 0 35.98 -21.25 0zm266.51 0l0 -42.97c0,-2.01 0.15,-4.58 0.42,-7.69 0.3,-3.12 0.71,-6.52 1.26,-10.19 -1.2,3.6 -3.14,8.18 -5.85,13.73l-0.31 0.7 -23.1 47.99 -22.84 -47.93c-0.17,-0.45 -0.5,-1.15 -0.96,-2.11 -2.35,-4.83 -4.08,-8.96 -5.21,-12.38 0.59,3.97 1.04,7.49 1.33,10.56 0.32,3.08 0.46,5.53 0.46,7.32l0 42.97 -19.48 0 0 -84.57 26.09 0 20.72 46.36 21.84 -46.36 25.11 0 0 84.57 -19.48 0zm118.39 0l0 -84.57 47.38 0 0 16.38 -26.13 0 0 17.27 26.13 0 0 16.38 -26.13 0 0 17.38 26.13 0 0 17.16 -47.38 0zm40.96 -112.25l-17.58 20.04 -8.32 0 10.38 -20.04 15.52 0zm95.68 112.25l25.56 -45.39 -22.53 -39.18 24.32 0 8.52 17.17c0.79,1.52 1.42,2.94 1.9,4.25 0.46,1.32 0.79,2.6 0.96,3.81 0.22,-1.12 0.54,-2.26 0.92,-3.46 0.41,-1.18 0.91,-2.42 1.52,-3.73l8.76 -18.04 23.98 0 -22.8 39.18 25.5 45.39 -24.69 0 -11.93 -24.59c-0.54,-1.07 -0.98,-2.14 -1.3,-3.21 -0.33,-1.07 -0.57,-2.16 -0.72,-3.27 -0.2,1.22 -0.49,2.42 -0.88,3.6 -0.37,1.16 -0.85,2.36 -1.42,3.58l-11.51 23.89 -24.16 0zm167.11 0l0 -84.57 21.48 0 0 84.57 -21.48 0zm178.41 -59.58c-2.35,-2.6 -4.98,-4.53 -7.88,-5.81 -2.9,-1.27 -6.07,-1.92 -9.48,-1.92 -6.83,0 -12.4,2.33 -16.76,7 -4.33,4.66 -6.51,10.68 -6.51,18.02 0,7.35 2.18,13.36 6.51,18.03 4.36,4.67 9.93,6.99 16.76,6.99 3.63,0 6.91,-0.7 9.87,-2.1 2.93,-1.4 5.46,-3.49 7.6,-6.22l13.95 14.17c-4.16,4.32 -8.92,7.58 -14.3,9.78 -5.39,2.19 -11.33,3.3 -17.81,3.3 -6.23,0 -12.03,-1.05 -17.36,-3.15 -5.33,-2.13 -10.05,-5.24 -14.15,-9.4 -4.11,-4.04 -7.23,-8.7 -9.35,-14.05 -2.13,-5.34 -3.2,-11.11 -3.2,-17.35 0,-6.27 1.07,-12.08 3.2,-17.45 2.12,-5.37 5.24,-10.07 9.35,-14.12 4.06,-4.11 8.76,-7.19 14.08,-9.28 5.31,-2.06 11.12,-3.1 17.43,-3.1 6.33,0 12.2,1.07 17.57,3.21 5.37,2.16 10.11,5.32 14.2,9.51l-13.72 13.94zm147.54 42.31c6.62,0 12.07,-2.32 16.29,-6.99 4.25,-4.67 6.37,-10.68 6.37,-18.03 0,-7.34 -2.12,-13.36 -6.37,-18.02 -4.22,-4.67 -9.67,-7 -16.29,-7 -6.68,0 -12.14,2.33 -16.36,7 -4.25,4.66 -6.37,10.68 -6.37,18.02 0,7.31 2.12,13.31 6.38,17.99 4.27,4.69 9.71,7.03 16.35,7.03zm0 -68.97c6.33,0 12.14,1.06 17.44,3.14 5.29,2.09 10.01,5.2 14.17,9.36 4.09,4.04 7.21,8.7 9.33,14.05 2.12,5.34 3.19,11.13 3.19,17.4 0,6.24 -1.07,12 -3.19,17.31 -2.12,5.29 -5.24,10 -9.33,14.09 -4.12,4.12 -8.84,7.24 -14.19,9.36 -5.35,2.12 -11.16,3.19 -17.42,3.19 -6.27,0 -12.1,-1.07 -17.49,-3.19 -5.39,-2.12 -10.11,-5.24 -14.19,-9.36 -4.09,-4.09 -7.21,-8.8 -9.33,-14.09 -2.13,-5.31 -3.2,-11.07 -3.2,-17.31 0,-6.23 1.06,-12.01 3.16,-17.36 2.12,-5.33 5.2,-10.02 9.28,-14.09 4.1,-4.12 8.82,-7.22 14.17,-9.34 5.35,-2.1 11.22,-3.16 17.6,-3.16z"/>
  <path class="fil6" d="M574.3 54.23c-8.46,5.08 -18.66,6.77 -24.38,24.23 -2.22,6.75 -2.7,14.2 -0.73,20.86 2.33,7.9 6.98,11.85 8.58,17.09 6.18,2.57 8.59,6.59 16.7,8.82 36.77,10.12 63.16,-34.75 35.74,-61.99 -9.45,-9.39 -19.6,-10.71 -35.91,-9.01z"/>
 </g>
</svg>
