<?xml version="1.0" encoding="UTF-8"?>
<!DOCTYPE svg PUBLIC "-//W3C//DTD SVG 1.1//EN" "http://www.w3.org/Graphics/SVG/1.1/DTD/svg11.dtd">
<!-- Creator: CorelDRAW 2017 -->
<svg xmlns="http://www.w3.org/2000/svg" xml:space="preserve" width="5.5878mm" height="5.5878mm" version="1.1" style="shape-rendering:geometricPrecision; text-rendering:geometricPrecision; image-rendering:optimizeQuality; fill-rule:evenodd; clip-rule:evenodd"
viewBox="0 0 558.78 558.78"
 xmlns:xlink="http://www.w3.org/1999/xlink">
 <defs>
  <style type="text/css">
   <![CDATA[
    .str0 {stroke:#848688;stroke-width:0.31;stroke-linecap:round;stroke-linejoin:round;stroke-miterlimit:22.9256}
    .fil3 {fill:none;fill-rule:nonzero}
    .fil1 {fill:#848688}
    .fil5 {fill:#727376}
    .fil4 {fill:#A9ABAE;fill-rule:nonzero}
    .fil0 {fill:#848688;fill-rule:nonzero}
    .fil2 {fill:#727376;fill-rule:nonzero}
   ]]>
  </style>
 </defs>
 <g id="Capa_x0020_1">
  <metadata id="CorelCorpID_0Corel-Layer"/>
  <path class="fil0" d="M271.67 437.78c0,-5.92 1.72,-11.61 5.18,-17.11 3.47,-5.47 8.03,-9.87 13.72,-13.12 5.71,-3.28 11.71,-4.9 18.07,-4.9 5.88,0 11.28,1.39 16.18,4.18 4.9,2.82 8.79,6.62 11.66,11.45 2.87,4.85 4.3,10.21 4.3,16.08 0,6.17 -1.67,11.95 -5.04,17.36 -3.37,5.42 -7.88,9.75 -13.57,12.95 -5.72,3.23 -11.76,4.85 -18.14,4.85 -5.88,0 -11.31,-1.41 -16.28,-4.2 -4.97,-2.8 -8.89,-6.63 -11.78,-11.45 -2.87,-4.83 -4.3,-10.21 -4.3,-16.09zm33.96 -30.23c-3.63,0 -7.15,0.72 -10.54,2.13 -3.37,1.43 -6.36,3.44 -8.96,6.02 -2.59,2.58 -4.62,5.54 -6.1,8.89 -1.46,3.35 -2.2,6.79 -2.2,10.32 0,5.19 1.29,10.09 3.9,14.68 2.58,4.59 6.12,8.22 10.56,10.9 4.47,2.65 9.23,3.99 14.32,3.99 5.09,0 9.8,-1.2 14.15,-3.59 4.35,-2.36 7.74,-5.61 10.18,-9.7 2.46,-4.09 3.68,-8.56 3.68,-13.41 0,-4.06 -0.74,-7.96 -2.25,-11.68 -1.48,-3.73 -3.58,-6.98 -6.26,-9.78 -2.68,-2.77 -5.78,-4.92 -9.32,-6.48 -3.51,-1.53 -7.24,-2.29 -11.16,-2.29z"/>
  <path class="fil1" d="M268.04 494.85c7.41,-2.46 8.96,-7.58 22.33,-5.75 7.43,1.01 15.81,3.44 23.12,4.74 19.92,3.55 35.84,-9.64 36.3,-13.15 -10.15,-5.5 -11.07,3.72 -22.31,3.97 -16.17,0.37 -31.57,-12.38 -54.36,-0.61 -4.63,2.39 -18.38,8.35 -5.08,10.8z"/>
  <path class="fil2" d="M75.4 406.28l0 28.49 -2.11 0 0 -0.92 -0.11 -3.53c-0.24,-6.17 -2.11,-10.75 -5.66,-13.75 -1.9,-1.68 -4.52,-3.03 -7.87,-4 -3.35,-0.99 -6.92,-1.5 -10.68,-1.5 -5.18,0 -9.99,0.94 -14.47,2.81 -4.47,1.87 -8.36,4.46 -11.68,7.81 -3.31,3.35 -5.88,7.27 -7.71,11.77 -1.82,4.48 -2.73,9.37 -2.73,14.67 0,5.21 1.01,10.16 3.06,14.85 2.02,4.68 4.85,8.81 8.47,12.38 3.61,3.58 7.78,6.37 12.49,8.36 4.74,2 9.69,3 14.91,3 4.8,0 9.39,-0.82 13.78,-2.48 4.4,-1.65 8.26,-4.03 11.57,-7.11l1.87 1.95c-2.43,2.4 -5.16,4.4 -8.2,6.04 -3.06,1.64 -6.27,2.88 -9.68,3.72 -3.41,0.84 -7.04,1.25 -10.88,1.25 -8.14,0 -15.59,-1.79 -22.35,-5.4 -6.76,-3.58 -12.08,-8.5 -15.98,-14.69 -3.91,-6.22 -5.86,-13.08 -5.86,-20.62 0,-4.29 0.8,-8.61 2.39,-12.92 1.6,-4.32 3.9,-8.32 6.88,-12 3,-3.67 6.53,-6.86 10.6,-9.55 3.65,-2.48 7.6,-4.31 11.85,-5.5 4.23,-1.17 8.83,-1.75 13.78,-1.75 7.42,0 14.79,1.64 22.1,4.91l0 -6.29 2.22 0zm25.12 27.8l0 42.19 0 1.89c0,2.24 0.17,3.88 0.54,4.87 0.35,1.02 1.03,1.7 2.03,2.07 0.99,0.35 2.55,0.55 4.68,0.55l0.38 0 0 2.1 -21.06 0 0 -2.1 7.03 0 0 -64.41 0 -1.89c-0.07,-2.28 -0.29,-3.92 -0.62,-4.91 -0.35,-0.99 -1.01,-1.66 -1.99,-2.03 -0.95,-0.35 -2.51,-0.54 -4.63,-0.54l-0.47 0 0 -2.11 21.12 0 0 2.11 -7.01 0 0 19.76 25.62 0 0 -10.39 0 -1.89c-0.08,-2.28 -0.27,-3.92 -0.62,-4.91 -0.35,-0.99 -1,-1.66 -1.97,-2.03 -0.97,-0.35 -2.51,-0.54 -4.66,-0.54l-0.45 0 0 -2.11 21.13 0 0 2.11 -6.98 0 0 64.4 0 1.89c0,2.24 0.2,3.88 0.55,4.87 0.37,1.02 1.03,1.7 2.02,2.07 1,0.35 2.56,0.55 4.68,0.55l0.35 0 0 2.1 -21.06 0 0 -2.1 7.01 0 0 -51.57 -25.62 0zm61.6 -22.09l0 64.28 0 1.89c0,2.24 0.17,3.88 0.54,4.87 0.35,1.02 1.03,1.7 2.03,2.07 0.99,0.35 2.55,0.55 4.68,0.55l0.38 0 0 2.1 -21.06 0 0 -2.1 7.03 0 0 -64.41 0 -1.89c-0.07,-2.24 -0.29,-3.86 -0.62,-4.81 -0.35,-0.98 -1.01,-1.64 -1.99,-2.01 -0.95,-0.35 -2.51,-0.54 -4.63,-0.54l-0.47 0 0 -2.23 21.12 0 0 2.23 -7.01 0zm86.09 -5.71l0 28.49 -2.11 0 0 -0.92 -0.11 -3.53c-0.24,-6.17 -2.11,-10.75 -5.66,-13.75 -1.9,-1.68 -4.52,-3.03 -7.87,-4 -3.35,-0.99 -6.92,-1.5 -10.68,-1.5 -5.18,0 -9.99,0.94 -14.47,2.81 -4.47,1.87 -8.36,4.46 -11.68,7.81 -3.31,3.35 -5.88,7.27 -7.71,11.77 -1.82,4.48 -2.73,9.37 -2.73,14.67 0,5.21 1.01,10.16 3.06,14.85 2.02,4.68 4.85,8.81 8.47,12.38 3.61,3.58 7.78,6.37 12.49,8.36 4.74,2 9.69,3 14.91,3 4.8,0 9.39,-0.82 13.78,-2.48 4.4,-1.65 8.26,-4.03 11.57,-7.11l1.87 1.95c-2.43,2.4 -5.16,4.4 -8.2,6.04 -3.06,1.64 -6.27,2.88 -9.68,3.72 -3.41,0.84 -7.04,1.25 -10.88,1.25 -8.14,0 -15.59,-1.79 -22.35,-5.4 -6.76,-3.58 -12.08,-8.5 -15.98,-14.69 -3.91,-6.22 -5.86,-13.08 -5.86,-20.62 0,-4.29 0.8,-8.61 2.39,-12.92 1.6,-4.32 3.9,-8.32 6.88,-12 3,-3.67 6.53,-6.86 10.6,-9.55 3.65,-2.48 7.6,-4.31 11.85,-5.5 4.23,-1.17 8.83,-1.75 13.78,-1.75 7.42,0 14.79,1.64 22.1,4.91l0 -6.29 2.22 0zm156.83 -1.66l0 30.26 -2.34 0 0 -7.13 0 -2.45c-0.12,-9.98 -4.05,-14.97 -11.81,-14.97 -1.95,0 -3.68,0.43 -5.2,1.29 -1.52,0.85 -2.71,2.04 -3.57,3.56 -0.86,1.52 -1.28,3.26 -1.28,5.2 0,2.25 0.52,4.29 1.59,6.14 1.08,1.85 2.87,3.74 5.4,5.67 2.53,1.95 6.04,4.13 10.52,6.57l5.95 3.25c5.43,2.91 9.53,6.24 12.27,10 2.75,3.76 4.12,7.95 4.12,12.55 0,4.78 -1.41,9.14 -4.23,13.12 -2.81,3.97 -6.65,7.11 -11.5,9.41 -4.85,2.3 -10.17,3.47 -15.96,3.47 -5.9,0 -11.22,-1.13 -15.96,-3.36 -4.73,-2.22 -8.42,-5.33 -11.07,-9.33 -2.65,-3.99 -3.97,-8.5 -3.97,-13.52 0,-3.04 0.58,-5.91 1.75,-8.6 1.15,-2.69 2.75,-5.06 4.79,-7.13 2.03,-2.08 4.41,-3.7 7.1,-4.85 2.71,-1.17 5.55,-1.76 8.57,-1.76 2.93,0 5.63,0.61 8.13,1.82 2.49,1.19 4.48,2.8 5.94,4.85 1.46,2.03 2.2,4.23 2.2,6.59 0,1.71 -0.39,3.23 -1.17,4.56 -0.78,1.34 -1.85,2.37 -3.19,3.13 -1.37,0.78 -2.91,1.15 -4.66,1.15 -1.87,0 -3.55,-0.31 -5.03,-0.91l0.51 -1.99c0.7,0.21 1.46,0.33 2.3,0.33 1.85,0 3.37,-0.62 4.56,-1.91 1.19,-1.27 1.77,-2.84 1.77,-4.72 0,-2.72 -1.09,-5.08 -3.29,-7.03 -2.18,-1.97 -4.91,-2.94 -8.18,-2.94 -2.97,0 -5.73,0.84 -8.25,2.53 -2.53,1.7 -4.54,3.98 -6,6.82 -1.46,2.87 -2.2,5.98 -2.2,9.37 0,4.25 1.15,8.21 3.43,11.85 2.28,3.63 5.4,6.53 9.35,8.67 3.98,2.15 8.26,3.22 12.92,3.22 4.48,0 8.65,-0.94 12.49,-2.83 3.84,-1.87 6.88,-4.4 9.08,-7.58 2.21,-3.17 3.32,-6.7 3.32,-10.54 0,-3.72 -1.21,-7.27 -3.61,-10.62 -2.16,-3 -6.29,-6.2 -12.37,-9.59l-6.45 -3.64c-5.34,-2.98 -9.24,-6.04 -11.71,-9.24 -2.48,-3.17 -3.73,-6.76 -3.73,-10.75 0,-2.89 0.7,-5.5 2.07,-7.82 1.36,-2.32 3.29,-4.15 5.79,-5.47 2.49,-1.35 5.34,-2.01 8.53,-2.01 3.39,0 6.7,0.66 9.94,2.01l0 -4.7 2.34 0zm37.51 9.26l0.39 -0.24c6.1,-3.6 12.76,-5.42 19.99,-5.42 4.91,0 9.49,0.8 13.76,2.4 4.26,1.6 7.95,3.84 11.05,6.71 3.09,2.88 5.51,6.29 7.26,10.28 1.76,3.98 2.64,8.25 2.64,12.81 0,6.14 -1.62,11.84 -4.86,17.16 -3.23,5.31 -7.6,9.49 -13.07,12.59 -5.48,3.08 -11.44,4.62 -17.87,4.62 -6.59,0 -13.02,-1.52 -19.29,-4.56l0 6.04 0 1.89c0,2.24 0.17,3.88 0.54,4.87 0.35,1.02 1.03,1.7 2.03,2.07 0.99,0.35 2.55,0.55 4.68,0.55l4.11 0 0 2.1 -24.79 0 0 -2.1 7.03 0 0 -64.41 0 -1.89c-0.07,-2.24 -0.29,-3.86 -0.62,-4.81 -0.35,-0.98 -1.01,-1.64 -1.99,-2.01 -0.95,-0.35 -2.51,-0.54 -4.63,-0.54l-0.47 0 0 -2.23 14.11 0 0 4.12zm0 50c3,2.36 6.25,4.19 9.76,5.46 3.51,1.28 7.03,1.9 10.62,1.9 5.12,0 9.92,-1.28 14.32,-3.83 4.43,-2.58 7.87,-6.04 10.39,-10.37 2.51,-4.35 3.78,-9.1 3.78,-14.28 0,-5.64 -1.35,-10.86 -4.03,-15.69 -2.69,-4.83 -6.3,-8.67 -10.82,-11.52 -4.52,-2.82 -9.43,-4.25 -14.73,-4.25 -3.43,0 -6.88,0.67 -10.37,2.01 -3.47,1.33 -6.45,3.12 -8.92,5.36l0 45.21zm78.1 -29.8l-10.29 37.91c-0.82,3.02 -1.25,5.55 -1.25,7.6 0,2.66 1.21,4.42 3.61,5.26 1.2,0.41 3.5,0.68 6.89,0.8l0 2.1 -21.06 0 0 -2.1 5.03 0 21.51 -79.26 2.01 0 19.64 66.63c0.95,3.12 1.69,5.4 2.24,6.86 0.57,1.44 1.15,2.57 1.75,3.37 0.61,0.8 1.31,1.34 2.09,1.64 0.78,0.31 1.91,0.56 3.39,0.76l0 2.1 -19.53 0 0 -2.1 7.49 0 -14.85 -51.57 -8.67 0zm0.74 -2.45l7.25 0 -3.88 -12.4 -3.37 12.4z"/>
  <g>
   <path class="fil3 str0" d="M85.6 512.29l-10.67 27.92 -11.43 -26.78 0 33.15c0,1.1 0.07,2.03 0.2,2.76 0.14,0.74 0.37,1.31 0.69,1.7 0.31,0.38 0.78,0.66 1.4,0.84 0.62,0.16 1.39,0.28 2.33,0.33l0 1.26 -10.78 0 0 -1.26 4.28 0 0 -37.83c0,-1.84 -0.12,-3.19 -0.37,-4.02 -0.23,-0.83 -0.7,-1.4 -1.36,-1.72 -0.68,-0.3 -1.79,-0.49 -3.35,-0.56l0 -1.4 8.36 0 11.1 26.38 9.79 -26.38 7.89 0 0 1.26 -4.21 0 0 38.64 0 1.14c0,1.34 0.1,2.32 0.31,2.92 0.22,0.61 0.63,1.02 1.22,1.24 0.59,0.21 1.53,0.33 2.82,0.33l0.19 0 0 1.26 -12.63 0 0 -1.26 4.22 0 0 -39.92zm20.2 10.52l0 23.84c0,1.61 0.09,2.79 0.29,3.57 0.19,0.77 0.56,1.3 1.09,1.57 0.54,0.28 1.37,0.42 2.49,0.42l0.34 0 0 1.26 -10.99 0 0 -1.26 3.55 0 0 -25.6 -2.87 3.36 -0.96 -0.85 7.84 -9.25 1 0.85 -1.78 2.09zm-2.16 -15.79c0.69,0 1.27,0.24 1.75,0.72 0.48,0.48 0.71,1.07 0.71,1.75 0,0.69 -0.23,1.27 -0.71,1.75 -0.48,0.48 -1.06,0.71 -1.75,0.71 -0.64,0 -1.21,-0.23 -1.71,-0.71 -0.5,-0.48 -0.76,-1.06 -0.76,-1.75 0,-0.68 0.26,-1.27 0.76,-1.75 0.5,-0.48 1.07,-0.72 1.71,-0.72zm14.3 19.59l-2.87 3.36 -0.96 -0.85 7.84 -9.25 1 0.85 -1.78 2.09 0 3.36c2.01,-2.85 4.63,-4.28 7.88,-4.28 1.09,0 2.17,0.21 3.23,0.64 1.06,0.45 1.95,1.04 2.65,1.83 0.64,0.68 1.11,1.32 1.39,1.92 0.29,0.59 0.49,1.34 0.6,2.24 0.11,0.9 0.17,2.19 0.17,3.85l0 14.28c0,1.61 0.1,2.79 0.29,3.57 0.2,0.77 0.57,1.3 1.1,1.57 0.54,0.28 1.36,0.42 2.48,0.42l0.34 0 0 1.26 -10.99 0 0 -1.26 3.57 0 0 -17.2 0 -1.81 -0.07 -2.41c0,-1.46 -0.13,-2.56 -0.4,-3.32 -0.26,-0.75 -0.74,-1.42 -1.42,-1.99 -1.09,-1.02 -2.47,-1.53 -4.15,-1.53 -1.73,0 -3.21,0.55 -4.43,1.66 -1.22,1.1 -1.97,2.58 -2.24,4.43l0 16.61c0,1.61 0.09,2.79 0.29,3.57 0.19,0.77 0.56,1.3 1.09,1.57 0.54,0.28 1.37,0.42 2.49,0.42l0.41 0 0 1.26 -10.93 0 0 -1.26 3.42 0 0 -25.6zm59.83 4.97l-28.77 0c-0.84,1.73 -1.26,3.67 -1.26,5.83 0,2.03 0.38,3.92 1.14,5.7 0.76,1.77 1.83,3.32 3.18,4.68 1.37,1.34 2.96,2.39 4.81,3.14 1.84,0.76 3.75,1.14 5.76,1.14 1.97,0 3.87,-0.37 5.71,-1.08 1.84,-0.72 3.47,-1.76 4.9,-3.12 1.42,-1.36 2.63,-3.02 3.61,-4.98l1.4 0.68c-1.39,3.32 -3.59,5.97 -6.59,7.96 -3,2 -6.31,3 -9.95,3 -2.4,0 -4.59,-0.38 -6.59,-1.14 -2,-0.77 -3.76,-1.87 -5.26,-3.3 -1.5,-1.43 -2.68,-3.1 -3.51,-5.03 -0.83,-1.93 -1.25,-4.02 -1.25,-6.25 0,-2.99 0.83,-5.8 2.46,-8.43 1.65,-2.62 3.86,-4.7 6.63,-6.24 2.77,-1.55 5.78,-2.32 8.99,-2.32 2.2,0 4.28,0.42 6.27,1.25 1.99,0.83 3.72,1.99 5.18,3.46 1.46,1.48 2.51,3.16 3.14,5.05zm-4.41 -1.47c-0.99,-1.85 -2.55,-3.33 -4.69,-4.43 -2.15,-1.11 -4.49,-1.67 -7.03,-1.67 -2.47,0 -4.69,0.52 -6.68,1.56 -1.98,1.04 -3.64,2.55 -4.96,4.54l23.36 0zm15.69 -1.47l0 18.01c0,1.61 0.09,2.79 0.29,3.57 0.19,0.77 0.56,1.3 1.09,1.57 0.54,0.28 1.37,0.42 2.49,0.42l0.71 0 0 1.26 -11.36 0 0 -1.26 3.55 0 0 -25.6 -2.87 3.36 -0.96 -0.85 7.84 -9.25 1 0.85 -1.78 2.09 0 3.15c1.27,-1.49 2.52,-2.55 3.73,-3.22 1.21,-0.66 2.52,-0.99 3.94,-0.99 1.37,0 2.71,0.35 4.04,1.06l0 -2.8 1.34 0 0.07 13.39 -1.24 0 0 -0.48 -0.17 -2.19c-0.07,-1.38 -0.18,-2.4 -0.36,-3.09 -0.17,-0.69 -0.44,-1.31 -0.81,-1.88 -0.93,-1.3 -2.22,-1.95 -3.87,-1.95 -1.25,0 -2.47,0.43 -3.66,1.3 -1.19,0.86 -2.19,2.04 -3.01,3.53zm34.59 5.48l0 -0.86 0 -0.82c0,-1.71 -0.15,-3.14 -0.44,-4.27 -0.3,-1.12 -0.74,-2.02 -1.31,-2.69 -1.27,-1.41 -2.91,-2.12 -4.89,-2.12 -2.36,0 -4.31,0.85 -5.85,2.54 -1.56,1.68 -2.51,4 -2.86,6.95l-1.06 0 0 -13.05 1.41 0 0 6.44c2.14,-3.09 5.14,-4.63 8.97,-4.63 1.26,0 2.43,0.2 3.52,0.58 1.08,0.39 2.02,0.96 2.84,1.72 0.81,0.75 1.45,1.63 1.93,2.63 0.57,1.22 0.89,2.72 0.96,4.49l0 1.96c0.05,0.79 0.07,1.45 0.07,1.95l0 11.71c0,1.61 0.1,2.79 0.3,3.57 0.21,0.77 0.59,1.3 1.13,1.57 0.53,0.28 1.34,0.42 2.44,0.42l0.34 0 0 1.26 -7.43 0 0 -2.16c-2.26,1.9 -4.8,2.85 -7.64,2.85 -1.94,0 -3.71,-0.46 -5.32,-1.34 -1.62,-0.89 -2.89,-2.1 -3.84,-3.63 -0.94,-1.53 -1.42,-3.19 -1.42,-4.97 0,-1.94 0.58,-3.77 1.75,-5.52 1.16,-1.73 2.71,-3.14 4.67,-4.23 1.95,-1.07 3.99,-1.62 6.11,-1.62 2.17,0 4.05,0.42 5.62,1.27zm0.07 3.55c-0.83,-0.91 -1.85,-1.63 -3.12,-2.18 -1.25,-0.55 -2.51,-0.82 -3.76,-0.82 -1.53,0 -2.95,0.35 -4.25,1.08 -1.31,0.71 -2.32,1.71 -3.05,3.01 -0.73,1.29 -1.1,2.67 -1.1,4.13 0,1.64 0.41,3.18 1.22,4.61 0.81,1.42 1.9,2.56 3.27,3.39 1.37,0.83 2.84,1.25 4.42,1.25 2.12,0 4.25,-0.96 6.37,-2.88l0 -11.59zm18.01 -33.73l0 42.71c0,1.61 0.1,2.79 0.31,3.57 0.2,0.77 0.58,1.3 1.11,1.57 0.54,0.28 1.36,0.42 2.45,0.42l0.35 0 0 1.26 -10.93 0 0 -1.26 3.49 0 0 -44.47 -2.8 3.36 -1 -0.85 7.81 -9.25 0.96 0.85 -1.75 2.09zm51.14 3.8l-2.81 3.36 -0.99 -0.85 7.77 -9.25 1 0.85 -1.76 2.09 0 42.71c0,1.61 0.11,2.79 0.29,3.55 0.2,0.77 0.57,1.29 1.09,1.57 0.52,0.29 1.36,0.44 2.49,0.44l0.35 0 0 1.26 -7.36 0 -0.07 -4.76c-3.18,3.88 -7.15,5.82 -11.93,5.82 -2.9,0 -5.56,-0.69 -8.01,-2.07 -2.44,-1.39 -4.38,-3.26 -5.82,-5.63 -1.44,-2.39 -2.16,-4.96 -2.16,-7.74 0,-2.99 0.85,-5.82 2.57,-8.49 1.71,-2.65 3.99,-4.78 6.82,-6.38 2.82,-1.6 5.82,-2.4 8.97,-2.4 1.85,0 3.62,0.29 5.29,0.89 1.68,0.6 3.1,1.4 4.27,2.43l0 -17.4zm0 21.59c-1.3,-1.68 -2.91,-2.96 -4.82,-3.88 -1.91,-0.92 -3.95,-1.37 -6.15,-1.37 -2.62,0 -5.02,0.61 -7.17,1.8 -2.16,1.2 -3.84,2.85 -5.07,4.97 -1.22,2.11 -1.84,4.43 -1.84,6.96 0,2.59 0.63,4.97 1.89,7.18 1.26,2.2 2.95,3.96 5.09,5.26 2.13,1.3 4.43,1.96 6.9,1.96 2.26,0 4.32,-0.54 6.19,-1.62 1.85,-1.07 3.51,-2.71 4.98,-4.89l0 -16.37zm44.17 2.25l-28.77 0c-0.84,1.73 -1.26,3.67 -1.26,5.83 0,2.03 0.38,3.92 1.14,5.7 0.76,1.77 1.83,3.32 3.18,4.68 1.37,1.34 2.96,2.39 4.81,3.14 1.84,0.76 3.75,1.14 5.76,1.14 1.97,0 3.87,-0.37 5.71,-1.08 1.84,-0.72 3.47,-1.76 4.9,-3.12 1.42,-1.36 2.63,-3.02 3.61,-4.98l1.4 0.68c-1.39,3.32 -3.59,5.97 -6.59,7.96 -3,2 -6.31,3 -9.95,3 -2.4,0 -4.59,-0.38 -6.59,-1.14 -2,-0.77 -3.76,-1.87 -5.26,-3.3 -1.5,-1.43 -2.68,-3.1 -3.51,-5.03 -0.83,-1.93 -1.25,-4.02 -1.25,-6.25 0,-2.99 0.83,-5.8 2.46,-8.43 1.65,-2.62 3.86,-4.7 6.63,-6.24 2.77,-1.55 5.78,-2.32 8.99,-2.32 2.2,0 4.28,0.42 6.27,1.25 1.99,0.83 3.72,1.99 5.18,3.46 1.46,1.48 2.51,3.16 3.14,5.05zm-4.41 -1.47c-0.99,-1.85 -2.55,-3.33 -4.69,-4.43 -2.15,-1.11 -4.49,-1.67 -7.03,-1.67 -2.47,0 -4.69,0.52 -6.68,1.56 -1.98,1.04 -3.64,2.55 -4.96,4.54l23.36 0zm15.41 -26.17l0 42.71c0,1.61 0.1,2.79 0.31,3.57 0.2,0.77 0.58,1.3 1.11,1.57 0.54,0.28 1.36,0.42 2.45,0.42l0.35 0 0 1.26 -10.93 0 0 -1.26 3.49 0 0 -44.47 -2.8 3.36 -1 -0.85 7.81 -9.25 0.96 0.85 -1.75 2.09zm65.59 0.65l0 17.09 -1.27 0 0 -0.55 -0.07 -2.12c-0.14,-3.7 -1.26,-6.45 -3.39,-8.25 -1.14,-1.01 -2.71,-1.81 -4.72,-2.4 -2.01,-0.59 -4.15,-0.9 -6.41,-0.9 -3.11,0 -5.99,0.56 -8.68,1.69 -2.68,1.12 -5.02,2.67 -7.01,4.69 -1.98,2.01 -3.53,4.36 -4.63,7.06 -1.08,2.69 -1.63,5.62 -1.63,8.8 0,3.12 0.6,6.09 1.83,8.91 1.22,2.81 2.91,5.28 5.09,7.42 2.16,2.16 4.66,3.83 7.49,5.02 2.84,1.2 5.81,1.8 8.95,1.8 2.87,0 5.63,-0.49 8.26,-1.48 2.64,-1 4.96,-2.42 6.95,-4.27l1.12 1.17c-1.46,1.44 -3.1,2.64 -4.92,3.62 -1.84,0.98 -3.77,1.73 -5.81,2.23 -2.05,0.51 -4.22,0.75 -6.53,0.75 -4.88,0 -9.35,-1.07 -13.41,-3.24 -4.05,-2.15 -7.25,-5.09 -9.58,-8.81 -2.35,-3.73 -3.52,-7.85 -3.52,-12.37 0,-2.57 0.48,-5.17 1.43,-7.75 0.96,-2.6 2.34,-4.99 4.13,-7.2 1.8,-2.2 3.92,-4.12 6.36,-5.73 2.19,-1.49 4.56,-2.59 7.11,-3.3 2.54,-0.7 5.3,-1.05 8.27,-1.05 4.45,0 8.87,0.98 13.25,2.94l0 -3.77 1.34 0zm13.46 23.36l0 18.7c0,1.61 0.09,2.79 0.29,3.57 0.2,0.77 0.55,1.3 1.06,1.57 0.52,0.28 1.34,0.42 2.45,0.42l0.35 0 0 1.26 -10.93 0 0 -1.26 3.56 0 0 -44.47 -2.87 3.36 -1 -0.85 7.81 -9.25 0.96 0.85 -1.68 2.09 0 21.34c1.76,-2.35 4.17,-3.53 7.22,-3.53 3.41,0 5.91,1.38 7.51,4.15 0.43,0.75 0.71,1.57 0.85,2.44 0.14,0.88 0.21,2.46 0.21,4.72l0 13.59c0,1.61 0.11,2.79 0.31,3.57 0.21,0.77 0.57,1.3 1.11,1.57 0.54,0.28 1.35,0.42 2.45,0.42l0.34 0 0 1.26 -10.95 0 0 -1.26 3.52 0 0 -16.69 0 -2.8c0,-1.99 -0.1,-3.44 -0.3,-4.34 -0.18,-0.9 -0.6,-1.71 -1.24,-2.42 -1.23,-1.44 -2.91,-2.15 -5,-2.15 -1.32,0 -2.51,0.36 -3.57,1.1 -1.05,0.72 -1.87,1.74 -2.46,3.04zm30.94 -5.14l0 23.84c0,1.61 0.09,2.79 0.29,3.57 0.19,0.77 0.56,1.3 1.09,1.57 0.54,0.28 1.37,0.42 2.49,0.42l0.34 0 0 1.26 -10.99 0 0 -1.26 3.55 0 0 -25.6 -2.87 3.36 -0.96 -0.85 7.84 -9.25 1 0.85 -1.78 2.09zm-2.16 -15.79c0.69,0 1.27,0.24 1.75,0.72 0.48,0.48 0.71,1.07 0.71,1.75 0,0.69 -0.23,1.27 -0.71,1.75 -0.48,0.48 -1.06,0.71 -1.75,0.71 -0.64,0 -1.21,-0.23 -1.71,-0.71 -0.5,-0.48 -0.76,-1.06 -0.76,-1.75 0,-0.68 0.26,-1.27 0.76,-1.75 0.5,-0.48 1.07,-0.72 1.71,-0.72zm35.14 19.93c-1.2,-0.82 -2.53,-1.47 -4.01,-1.95 -1.49,-0.48 -3,-0.71 -4.53,-0.71 -1.8,0 -3.54,0.36 -5.2,1.07 -1.67,0.73 -3.11,1.69 -4.32,2.9 -1.21,1.21 -2.16,2.63 -2.86,4.26 -0.7,1.64 -1.04,3.35 -1.04,5.15 0,2.59 0.65,5.01 1.99,7.27 1.32,2.26 3.11,4.06 5.37,5.4 2.26,1.33 4.67,2 7.23,2 1.96,0 3.81,-0.39 5.57,-1.16 1.74,-0.78 3.37,-1.91 4.91,-3.39l1.02 0.92c-1.39,1.87 -3.19,3.33 -5.41,4.39 -2.21,1.05 -4.63,1.57 -7.26,1.57 -2.26,0 -4.36,-0.38 -6.3,-1.15 -1.94,-0.76 -3.67,-1.87 -5.19,-3.34 -1.52,-1.46 -2.67,-3.14 -3.46,-5.03 -0.79,-1.9 -1.18,-3.92 -1.18,-6.06 0,-2.25 0.48,-4.41 1.43,-6.51 0.96,-2.11 2.28,-3.97 3.94,-5.59 1.68,-1.62 3.58,-2.89 5.75,-3.8 2.16,-0.91 4.36,-1.37 6.62,-1.37 2.79,0 5.09,0.47 6.93,1.4l0 -3.42 1.4 0 0 17.82 -1.4 0 0 -10.67zm7.19 12.2c0,-2.9 0.84,-5.68 2.53,-8.37 1.7,-2.68 3.93,-4.83 6.71,-6.42 2.8,-1.6 5.73,-2.4 8.84,-2.4 2.88,0 5.52,0.68 7.92,2.05 2.4,1.38 4.3,3.24 5.7,5.6 1.41,2.37 2.11,4.99 2.11,7.87 0,3.01 -0.82,5.84 -2.47,8.48 -1.65,2.66 -3.86,4.77 -6.64,6.34 -2.79,1.58 -5.75,2.37 -8.87,2.37 -2.88,0 -5.53,-0.69 -7.96,-2.05 -2.44,-1.37 -4.35,-3.24 -5.77,-5.6 -1.4,-2.37 -2.1,-5 -2.1,-7.87zm16.61 -14.79c-1.78,0 -3.5,0.35 -5.16,1.04 -1.64,0.7 -3.11,1.68 -4.38,2.94 -1.26,1.27 -2.26,2.72 -2.98,4.35 -0.71,1.64 -1.08,3.32 -1.08,5.05 0,2.54 0.63,4.94 1.91,7.18 1.26,2.25 2.99,4.03 5.17,5.33 2.18,1.3 4.51,1.96 7,1.96 2.49,0 4.79,-0.59 6.92,-1.76 2.13,-1.15 3.79,-2.74 4.98,-4.74 1.21,-2 1.8,-4.19 1.8,-6.56 0,-1.99 -0.36,-3.9 -1.1,-5.72 -0.72,-1.82 -1.75,-3.41 -3.06,-4.78 -1.31,-1.36 -2.83,-2.41 -4.56,-3.17 -1.72,-0.75 -3.54,-1.12 -5.46,-1.12z"/>
   <path id="1" class="fil4" d="M85.6 512.29l-10.67 27.92 -11.43 -26.78 0 33.15c0,1.1 0.07,2.03 0.2,2.76 0.14,0.74 0.37,1.31 0.69,1.7 0.31,0.38 0.78,0.66 1.4,0.84 0.62,0.16 1.39,0.28 2.33,0.33l0 1.26 -10.78 0 0 -1.26 4.28 0 0 -37.83c0,-1.84 -0.12,-3.19 -0.37,-4.02 -0.23,-0.83 -0.7,-1.4 -1.36,-1.72 -0.68,-0.3 -1.79,-0.49 -3.35,-0.56l0 -1.4 8.36 0 11.1 26.38 9.79 -26.38 7.89 0 0 1.26 -4.21 0 0 38.64 0 1.14c0,1.34 0.1,2.32 0.31,2.92 0.22,0.61 0.63,1.02 1.22,1.24 0.59,0.21 1.53,0.33 2.82,0.33l0.19 0 0 1.26 -12.63 0 0 -1.26 4.22 0 0 -39.92zm20.2 10.52l0 23.84c0,1.61 0.09,2.79 0.29,3.57 0.19,0.77 0.56,1.3 1.09,1.57 0.54,0.28 1.37,0.42 2.49,0.42l0.34 0 0 1.26 -10.99 0 0 -1.26 3.55 0 0 -25.6 -2.87 3.36 -0.96 -0.85 7.84 -9.25 1 0.85 -1.78 2.09zm-2.16 -15.79c0.69,0 1.27,0.24 1.75,0.72 0.48,0.48 0.71,1.07 0.71,1.75 0,0.69 -0.23,1.27 -0.71,1.75 -0.48,0.48 -1.06,0.71 -1.75,0.71 -0.64,0 -1.21,-0.23 -1.71,-0.71 -0.5,-0.48 -0.76,-1.06 -0.76,-1.75 0,-0.68 0.26,-1.27 0.76,-1.75 0.5,-0.48 1.07,-0.72 1.71,-0.72zm14.3 19.59l-2.87 3.36 -0.96 -0.85 7.84 -9.25 1 0.85 -1.78 2.09 0 3.36c2.01,-2.85 4.63,-4.28 7.88,-4.28 1.09,0 2.17,0.21 3.23,0.64 1.06,0.45 1.95,1.04 2.65,1.83 0.64,0.68 1.11,1.32 1.39,1.92 0.29,0.59 0.49,1.34 0.6,2.24 0.11,0.9 0.17,2.19 0.17,3.85l0 14.28c0,1.61 0.1,2.79 0.29,3.57 0.2,0.77 0.57,1.3 1.1,1.57 0.54,0.28 1.36,0.42 2.48,0.42l0.34 0 0 1.26 -10.99 0 0 -1.26 3.57 0 0 -17.2 0 -1.81 -0.07 -2.41c0,-1.46 -0.13,-2.56 -0.4,-3.32 -0.26,-0.75 -0.74,-1.42 -1.42,-1.99 -1.09,-1.02 -2.47,-1.53 -4.15,-1.53 -1.73,0 -3.21,0.55 -4.43,1.66 -1.22,1.1 -1.97,2.58 -2.24,4.43l0 16.61c0,1.61 0.09,2.79 0.29,3.57 0.19,0.77 0.56,1.3 1.09,1.57 0.54,0.28 1.37,0.42 2.49,0.42l0.41 0 0 1.26 -10.93 0 0 -1.26 3.42 0 0 -25.6zm59.83 4.97l-28.77 0c-0.84,1.73 -1.26,3.67 -1.26,5.83 0,2.03 0.38,3.92 1.14,5.7 0.76,1.77 1.83,3.32 3.18,4.68 1.37,1.34 2.96,2.39 4.81,3.14 1.84,0.76 3.75,1.14 5.76,1.14 1.97,0 3.87,-0.37 5.71,-1.08 1.84,-0.72 3.47,-1.76 4.9,-3.12 1.42,-1.36 2.63,-3.02 3.61,-4.98l1.4 0.68c-1.39,3.32 -3.59,5.97 -6.59,7.96 -3,2 -6.31,3 -9.95,3 -2.4,0 -4.59,-0.38 -6.59,-1.14 -2,-0.77 -3.76,-1.87 -5.26,-3.3 -1.5,-1.43 -2.68,-3.1 -3.51,-5.03 -0.83,-1.93 -1.25,-4.02 -1.25,-6.25 0,-2.99 0.83,-5.8 2.46,-8.43 1.65,-2.62 3.86,-4.7 6.63,-6.24 2.77,-1.55 5.78,-2.32 8.99,-2.32 2.2,0 4.28,0.42 6.27,1.25 1.99,0.83 3.72,1.99 5.18,3.46 1.46,1.48 2.51,3.16 3.14,5.05zm-4.41 -1.47c-0.99,-1.85 -2.55,-3.33 -4.69,-4.43 -2.15,-1.11 -4.49,-1.67 -7.03,-1.67 -2.47,0 -4.69,0.52 -6.68,1.56 -1.98,1.04 -3.64,2.55 -4.96,4.54l23.36 0zm15.69 -1.47l0 18.01c0,1.61 0.09,2.79 0.29,3.57 0.19,0.77 0.56,1.3 1.09,1.57 0.54,0.28 1.37,0.42 2.49,0.42l0.71 0 0 1.26 -11.36 0 0 -1.26 3.55 0 0 -25.6 -2.87 3.36 -0.96 -0.85 7.84 -9.25 1 0.85 -1.78 2.09 0 3.15c1.27,-1.49 2.52,-2.55 3.73,-3.22 1.21,-0.66 2.52,-0.99 3.94,-0.99 1.37,0 2.71,0.35 4.04,1.06l0 -2.8 1.34 0 0.07 13.39 -1.24 0 0 -0.48 -0.17 -2.19c-0.07,-1.38 -0.18,-2.4 -0.36,-3.09 -0.17,-0.69 -0.44,-1.31 -0.81,-1.88 -0.93,-1.3 -2.22,-1.95 -3.87,-1.95 -1.25,0 -2.47,0.43 -3.66,1.3 -1.19,0.86 -2.19,2.04 -3.01,3.53zm34.59 5.48l0 -0.86 0 -0.82c0,-1.71 -0.15,-3.14 -0.44,-4.27 -0.3,-1.12 -0.74,-2.02 -1.31,-2.69 -1.27,-1.41 -2.91,-2.12 -4.89,-2.12 -2.36,0 -4.31,0.85 -5.85,2.54 -1.56,1.68 -2.51,4 -2.86,6.95l-1.06 0 0 -13.05 1.41 0 0 6.44c2.14,-3.09 5.14,-4.63 8.97,-4.63 1.26,0 2.43,0.2 3.52,0.58 1.08,0.39 2.02,0.96 2.84,1.72 0.81,0.75 1.45,1.63 1.93,2.63 0.57,1.22 0.89,2.72 0.96,4.49l0 1.96c0.05,0.79 0.07,1.45 0.07,1.95l0 11.71c0,1.61 0.1,2.79 0.3,3.57 0.21,0.77 0.59,1.3 1.13,1.57 0.53,0.28 1.34,0.42 2.44,0.42l0.34 0 0 1.26 -7.43 0 0 -2.16c-2.26,1.9 -4.8,2.85 -7.64,2.85 -1.94,0 -3.71,-0.46 -5.32,-1.34 -1.62,-0.89 -2.89,-2.1 -3.84,-3.63 -0.94,-1.53 -1.42,-3.19 -1.42,-4.97 0,-1.94 0.58,-3.77 1.75,-5.52 1.16,-1.73 2.71,-3.14 4.67,-4.23 1.95,-1.07 3.99,-1.62 6.11,-1.62 2.17,0 4.05,0.42 5.62,1.27zm0.07 3.55c-0.83,-0.91 -1.85,-1.63 -3.12,-2.18 -1.25,-0.55 -2.51,-0.82 -3.76,-0.82 -1.53,0 -2.95,0.35 -4.25,1.08 -1.31,0.71 -2.32,1.71 -3.05,3.01 -0.73,1.29 -1.1,2.67 -1.1,4.13 0,1.64 0.41,3.18 1.22,4.61 0.81,1.42 1.9,2.56 3.27,3.39 1.37,0.83 2.84,1.25 4.42,1.25 2.12,0 4.25,-0.96 6.37,-2.88l0 -11.59zm18.01 -33.73l0 42.71c0,1.61 0.1,2.79 0.31,3.57 0.2,0.77 0.58,1.3 1.11,1.57 0.54,0.28 1.36,0.42 2.45,0.42l0.35 0 0 1.26 -10.93 0 0 -1.26 3.49 0 0 -44.47 -2.8 3.36 -1 -0.85 7.81 -9.25 0.96 0.85 -1.75 2.09zm51.14 3.8l-2.81 3.36 -0.99 -0.85 7.77 -9.25 1 0.85 -1.76 2.09 0 42.71c0,1.61 0.11,2.79 0.29,3.55 0.2,0.77 0.57,1.29 1.09,1.57 0.52,0.29 1.36,0.44 2.49,0.44l0.35 0 0 1.26 -7.36 0 -0.07 -4.76c-3.18,3.88 -7.15,5.82 -11.93,5.82 -2.9,0 -5.56,-0.69 -8.01,-2.07 -2.44,-1.39 -4.38,-3.26 -5.82,-5.63 -1.44,-2.39 -2.16,-4.96 -2.16,-7.74 0,-2.99 0.85,-5.82 2.57,-8.49 1.71,-2.65 3.99,-4.78 6.82,-6.38 2.82,-1.6 5.82,-2.4 8.97,-2.4 1.85,0 3.62,0.29 5.29,0.89 1.68,0.6 3.1,1.4 4.27,2.43l0 -17.4zm0 21.59c-1.3,-1.68 -2.91,-2.96 -4.82,-3.88 -1.91,-0.92 -3.95,-1.37 -6.15,-1.37 -2.62,0 -5.02,0.61 -7.17,1.8 -2.16,1.2 -3.84,2.85 -5.07,4.97 -1.22,2.11 -1.84,4.43 -1.84,6.96 0,2.59 0.63,4.97 1.89,7.18 1.26,2.2 2.95,3.96 5.09,5.26 2.13,1.3 4.43,1.96 6.9,1.96 2.26,0 4.32,-0.54 6.19,-1.62 1.85,-1.07 3.51,-2.71 4.98,-4.89l0 -16.37zm44.17 2.25l-28.77 0c-0.84,1.73 -1.26,3.67 -1.26,5.83 0,2.03 0.38,3.92 1.14,5.7 0.76,1.77 1.83,3.32 3.18,4.68 1.37,1.34 2.96,2.39 4.81,3.14 1.84,0.76 3.75,1.14 5.76,1.14 1.97,0 3.87,-0.37 5.71,-1.08 1.84,-0.72 3.47,-1.76 4.9,-3.12 1.42,-1.36 2.63,-3.02 3.61,-4.98l1.4 0.68c-1.39,3.32 -3.59,5.97 -6.59,7.96 -3,2 -6.31,3 -9.95,3 -2.4,0 -4.59,-0.38 -6.59,-1.14 -2,-0.77 -3.76,-1.87 -5.26,-3.3 -1.5,-1.43 -2.68,-3.1 -3.51,-5.03 -0.83,-1.93 -1.25,-4.02 -1.25,-6.25 0,-2.99 0.83,-5.8 2.46,-8.43 1.65,-2.62 3.86,-4.7 6.63,-6.24 2.77,-1.55 5.78,-2.32 8.99,-2.32 2.2,0 4.28,0.42 6.27,1.25 1.99,0.83 3.72,1.99 5.18,3.46 1.46,1.48 2.51,3.16 3.14,5.05zm-4.41 -1.47c-0.99,-1.85 -2.55,-3.33 -4.69,-4.43 -2.15,-1.11 -4.49,-1.67 -7.03,-1.67 -2.47,0 -4.69,0.52 -6.68,1.56 -1.98,1.04 -3.64,2.55 -4.96,4.54l23.36 0zm15.41 -26.17l0 42.71c0,1.61 0.1,2.79 0.31,3.57 0.2,0.77 0.58,1.3 1.11,1.57 0.54,0.28 1.36,0.42 2.45,0.42l0.35 0 0 1.26 -10.93 0 0 -1.26 3.49 0 0 -44.47 -2.8 3.36 -1 -0.85 7.81 -9.25 0.96 0.85 -1.75 2.09zm65.59 0.65l0 17.09 -1.27 0 0 -0.55 -0.07 -2.12c-0.14,-3.7 -1.26,-6.45 -3.39,-8.25 -1.14,-1.01 -2.71,-1.81 -4.72,-2.4 -2.01,-0.59 -4.15,-0.9 -6.41,-0.9 -3.11,0 -5.99,0.56 -8.68,1.69 -2.68,1.12 -5.02,2.67 -7.01,4.69 -1.98,2.01 -3.53,4.36 -4.63,7.06 -1.08,2.69 -1.63,5.62 -1.63,8.8 0,3.12 0.6,6.09 1.83,8.91 1.22,2.81 2.91,5.28 5.09,7.42 2.16,2.16 4.66,3.83 7.49,5.02 2.84,1.2 5.81,1.8 8.95,1.8 2.87,0 5.63,-0.49 8.26,-1.48 2.64,-1 4.96,-2.42 6.95,-4.27l1.12 1.17c-1.46,1.44 -3.1,2.64 -4.92,3.62 -1.84,0.98 -3.77,1.73 -5.81,2.23 -2.05,0.51 -4.22,0.75 -6.53,0.75 -4.88,0 -9.35,-1.07 -13.41,-3.24 -4.05,-2.15 -7.25,-5.09 -9.58,-8.81 -2.35,-3.73 -3.52,-7.85 -3.52,-12.37 0,-2.57 0.48,-5.17 1.43,-7.75 0.96,-2.6 2.34,-4.99 4.13,-7.2 1.8,-2.2 3.92,-4.12 6.36,-5.73 2.19,-1.49 4.56,-2.59 7.11,-3.3 2.54,-0.7 5.3,-1.05 8.27,-1.05 4.45,0 8.87,0.98 13.25,2.94l0 -3.77 1.34 0zm13.46 23.36l0 18.7c0,1.61 0.09,2.79 0.29,3.57 0.2,0.77 0.55,1.3 1.06,1.57 0.52,0.28 1.34,0.42 2.45,0.42l0.35 0 0 1.26 -10.93 0 0 -1.26 3.56 0 0 -44.47 -2.87 3.36 -1 -0.85 7.81 -9.25 0.96 0.85 -1.68 2.09 0 21.34c1.76,-2.35 4.17,-3.53 7.22,-3.53 3.41,0 5.91,1.38 7.51,4.15 0.43,0.75 0.71,1.57 0.85,2.44 0.14,0.88 0.21,2.46 0.21,4.72l0 13.59c0,1.61 0.11,2.79 0.31,3.57 0.21,0.77 0.57,1.3 1.11,1.57 0.54,0.28 1.35,0.42 2.45,0.42l0.34 0 0 1.26 -10.95 0 0 -1.26 3.52 0 0 -16.69 0 -2.8c0,-1.99 -0.1,-3.44 -0.3,-4.34 -0.18,-0.9 -0.6,-1.71 -1.24,-2.42 -1.23,-1.44 -2.91,-2.15 -5,-2.15 -1.32,0 -2.51,0.36 -3.57,1.1 -1.05,0.72 -1.87,1.74 -2.46,3.04zm30.94 -5.14l0 23.84c0,1.61 0.09,2.79 0.29,3.57 0.19,0.77 0.56,1.3 1.09,1.57 0.54,0.28 1.37,0.42 2.49,0.42l0.34 0 0 1.26 -10.99 0 0 -1.26 3.55 0 0 -25.6 -2.87 3.36 -0.96 -0.85 7.84 -9.25 1 0.85 -1.78 2.09zm-2.16 -15.79c0.69,0 1.27,0.24 1.75,0.72 0.48,0.48 0.71,1.07 0.71,1.75 0,0.69 -0.23,1.27 -0.71,1.75 -0.48,0.48 -1.06,0.71 -1.75,0.71 -0.64,0 -1.21,-0.23 -1.71,-0.71 -0.5,-0.48 -0.76,-1.06 -0.76,-1.75 0,-0.68 0.26,-1.27 0.76,-1.75 0.5,-0.48 1.07,-0.72 1.71,-0.72zm35.14 19.93c-1.2,-0.82 -2.53,-1.47 -4.01,-1.95 -1.49,-0.48 -3,-0.71 -4.53,-0.71 -1.8,0 -3.54,0.36 -5.2,1.07 -1.67,0.73 -3.11,1.69 -4.32,2.9 -1.21,1.21 -2.16,2.63 -2.86,4.26 -0.7,1.64 -1.04,3.35 -1.04,5.15 0,2.59 0.65,5.01 1.99,7.27 1.32,2.26 3.11,4.06 5.37,5.4 2.26,1.33 4.67,2 7.23,2 1.96,0 3.81,-0.39 5.57,-1.16 1.74,-0.78 3.37,-1.91 4.91,-3.39l1.02 0.92c-1.39,1.87 -3.19,3.33 -5.41,4.39 -2.21,1.05 -4.63,1.57 -7.26,1.57 -2.26,0 -4.36,-0.38 -6.3,-1.15 -1.94,-0.76 -3.67,-1.87 -5.19,-3.34 -1.52,-1.46 -2.67,-3.14 -3.46,-5.03 -0.79,-1.9 -1.18,-3.92 -1.18,-6.06 0,-2.25 0.48,-4.41 1.43,-6.51 0.96,-2.11 2.28,-3.97 3.94,-5.59 1.68,-1.62 3.58,-2.89 5.75,-3.8 2.16,-0.91 4.36,-1.37 6.62,-1.37 2.79,0 5.09,0.47 6.93,1.4l0 -3.42 1.4 0 0 17.82 -1.4 0 0 -10.67zm7.19 12.2c0,-2.9 0.84,-5.68 2.53,-8.37 1.7,-2.68 3.93,-4.83 6.71,-6.42 2.8,-1.6 5.73,-2.4 8.84,-2.4 2.88,0 5.52,0.68 7.92,2.05 2.4,1.38 4.3,3.24 5.7,5.6 1.41,2.37 2.11,4.99 2.11,7.87 0,3.01 -0.82,5.84 -2.47,8.48 -1.65,2.66 -3.86,4.77 -6.64,6.34 -2.79,1.58 -5.75,2.37 -8.87,2.37 -2.88,0 -5.53,-0.69 -7.96,-2.05 -2.44,-1.37 -4.35,-3.24 -5.77,-5.6 -1.4,-2.37 -2.1,-5 -2.1,-7.87zm16.61 -14.79c-1.78,0 -3.5,0.35 -5.16,1.04 -1.64,0.7 -3.11,1.68 -4.38,2.94 -1.26,1.27 -2.26,2.72 -2.98,4.35 -0.71,1.64 -1.08,3.32 -1.08,5.05 0,2.54 0.63,4.94 1.91,7.18 1.26,2.25 2.99,4.03 5.17,5.33 2.18,1.3 4.51,1.96 7,1.96 2.49,0 4.79,-0.59 6.92,-1.76 2.13,-1.15 3.79,-2.74 4.98,-4.74 1.21,-2 1.8,-4.19 1.8,-6.56 0,-1.99 -0.36,-3.9 -1.1,-5.72 -0.72,-1.82 -1.75,-3.41 -3.06,-4.78 -1.31,-1.36 -2.83,-2.41 -4.56,-3.17 -1.72,-0.75 -3.54,-1.12 -5.46,-1.12z"/>
  </g>
  <g>
   <g id="_2839245935024">
    <polygon class="fil5" points="302.83,268.29 303.34,268.29 302.92,267.7 "/>
    <polygon class="fil5" points="282.61,284.97 282.33,283.88 "/>
   </g>
   <g id="_2839245935504">
    <polygon class="fil5" points="280.59,258.17 280.59,258.68 281.18,258.26 "/>
    <polygon class="fil5" points="305.36,261.21 305.36,261.71 305.95,261.29 "/>
   </g>
   <g id="_2839245936176">
    <path class="fil5" d="M308.9 282.44l1.62 -1.41c-1.9,-1.06 -2.07,-0.92 -2.13,-3.64l-1.01 0c0.23,2.79 1.29,2.25 1.52,5.05z"/>
    <path class="fil5" d="M297.78 260.7c1.44,-0.34 0.76,0.08 1.51,-1.01 -1.44,0.35 -0.76,-0.08 -1.51,1.01z"/>
   </g>
   <g id="_2839245933424">
    <path class="fil5" d="M276.04 273.34c-0.28,-1.2 -1.47,-7.37 -3.09,-5.74 -0.57,0.57 0.23,2.15 0.61,3.16 0.62,1.67 0.62,2.08 2.48,2.58z"/>
    <path class="fil5" d="M340.75 292.55c1.65,-0.6 0.37,0.66 1.51,-1.51l-3.94 0.91c1.17,0.28 1.23,-0.16 2.43,0.6z"/>
    <polygon class="fil5" points="307.89,274.86 307.38,275.36 "/>
   </g>
   <g id="_2839245931536">
    <path class="fil5" d="M241.66 247.05c0,-1.37 1.81,0 0.45,0.03 -0.51,0.01 -0.45,1.12 -0.45,-0.03zm1.52 -2.02l0 0zm0 0l-2.14 -1.91c1.86,0.35 1.67,0.16 2.14,1.91zm-11.13 -0.51c0.07,-3.17 0.57,-2.22 3.04,-2.02 -0.94,1.78 -0.33,1.96 -3.04,2.02zm14.16 2.53c0,-2.74 0.26,-0.74 -1.01,-1.51 -0.07,-0.01 -0.21,-0.08 -0.2,-0.02 0.01,0.02 -0.01,-0.08 0,-0.09l0.7 -0.4 0 0c-1.62,-2.12 0.93,1.06 -3.14,-2.39 -1.67,-1.42 -2.18,-1.15 -4.94,-1.15 -0.21,0.59 -0.01,0.13 0,0.51 0,0.37 0.2,-0.09 0,0.5 -2.4,-0.05 -1.99,0.52 -2.53,-1.51 -2.11,0 -3.19,0.35 -4.55,1.01 0.48,2.05 0.52,2.05 1.51,3.54 4.97,0 3.34,-3.87 8.12,-1.59 2.25,1.07 0.84,-0.1 2,2.09 -4.04,0 -3.61,-0.13 -6.07,1.52 0.06,2.89 0.46,3.92 6.07,4.04 -0.05,-2.22 -0.35,-1.57 -0.51,-3.54 1.56,1.05 2.04,1.44 2.53,3.54l1.01 0c-0.25,-3 -1.44,-2.2 -1.52,-5.56 0.88,0.93 0.64,0.87 2.53,1.01z"/>
    <path class="fil5" d="M179.48 268.29c3.06,0.25 2.21,1.36 5.05,2.02 -1.52,2.27 -1.01,2.49 -1.01,6.06 2.07,-0.55 1.52,-0.22 1.52,-5.56 3.24,0.76 10.01,5.56 16.68,5.56l-5.96 -2.63c-3.74,-1.14 -13.91,-6.77 -16.28,-6.97l0 1.52z"/>
    <path class="fil5" d="M279.58 281.94c0.66,-1.41 -1.78,-3.57 -2.03,-6.58l-1.51 0 2.21 5.94c1.31,1.96 0.69,0.92 1.33,0.64z"/>
    <path class="fil5" d="M205.77 307.72l1.51 0c0.13,-1.55 0.48,-2.43 1.01,-3.54 -2.35,0.2 -2.47,1.13 -2.52,3.54z"/>
   </g>
   <g id="_2839245932560">
    <path class="fil5" d="M415.06 236.94l-2.02 0c1.15,2.4 1.84,5.6 3.04,8.09 -4.67,0 -10.4,-0.76 -13.65,0 0.27,-3.26 2.94,-5.54 3.03,-9.61 -2.43,0.59 -0.79,0.35 -1.52,0l1.49 -3.61c0.83,-3.07 -1.48,1.4 0.53,-6.5l3.48 -11.05c0.55,0.83 0.17,0.17 0.59,0.93l4.53 14.67c-3.18,0.76 0.42,3.32 0.5,7.08zm-13.14 0c0.71,1.77 0.67,-0.06 1.52,2.02 -0.07,0.1 -0.16,0.15 -0.19,0.32l-0.64 1.38c-0.31,0.8 -0.42,1.3 -0.64,1.9 -0.56,1.54 -1.02,1.95 -1.06,3.99 6.12,-0.51 6.57,-3.85 6.57,4.04l4.55 0c-0.05,-2.28 -0.5,-2.01 -0.5,-4.55 3.07,0 3.68,0.51 6.57,0.51 -0.9,-1.69 -2.56,-6.05 -3.04,-8.09l2.03 0c-0.05,-2.02 -1.76,-5.61 -2.53,-7.08 2.35,-0.19 0.88,0.54 2.02,-1.01 -1.01,-1.17 -1.59,-3.04 -1.88,-4.7 -0.2,-1.21 -0.07,-1.46 -0.42,-2.6 -0.96,-3.1 -3.41,-10.66 -5.28,-11.91 -1.61,3.04 -4.76,14.77 -5.43,18.84 -0.23,1.38 -0.06,2.31 -0.33,3.71l-1.32 3.23z"/>
    <path class="fil5" d="M391.3 160.6c1.36,5.83 5.63,2.4 10.11,2.03l-0.58 -3.02c-3.7,-0.02 -5.51,0.99 -9.53,0.99z"/>
   </g>
   <g id="_2839245932784">
    <path class="fil5" d="M301.82 278.9l-0.91 1.11c-0.91,-1.3 -0.71,-0.62 -1.11,-2.12 1.2,0.81 0.52,0.61 2.02,1.01zm-3.54 -1.01l0.58 0.99 -0.58 -0.99zm-5.05 1.01l0 0zm4.55 -2.02l0.5 1.01 -0.5 -1.01zm4.04 2.02c1.13,-2.8 -1.48,2.01 0.48,-0.56 0.71,-0.93 0.3,-0.09 0.59,-0.79 0.38,-0.96 0.36,0.13 -0.06,-1.68 1.47,1.07 0.95,-0.07 1.01,2.53 -1.56,0.13 -0.95,-0.01 -2.02,0.5zm-4.04 -2.02l-0.59 -0.99 0.59 0.99zm-8.09 -0.51l0.15 0.15c-0.01,0 -0.2,-0.1 -0.15,-0.15zm9.1 -1.01l0 0zm-7.08 0l-0.91 1.12c-0.1,-0.39 -0.11,-0.93 -0.07,-1.08 0.26,-0.9 0.17,-0.56 0.47,-1.05l0.51 1.01zm-2.53 0l0.15 0.15c-0.01,-0.01 -0.2,-0.1 -0.15,-0.15zm13.15 -0.5l0.15 0.15c-0.01,-0.01 -0.2,-0.1 -0.15,-0.15zm-3.54 0.5l-0.58 -0.98 0.58 0.98zm-7.08 0l0 0zm-3.03 -1.51l0.58 0.98 -0.58 -0.98zm6.06 -0.51l0 0zm-4.55 0l0.15 0.15c-0.01,-0.01 -0.2,-0.1 -0.15,-0.15zm4.55 0l0 0zm-5.05 -1.01l0.15 0.15c-0.01,-0.01 -0.2,-0.1 -0.15,-0.15zm6.57 2.53l1.52 -4.55c1.4,0.67 0.98,0.5 3.03,0.5l0 1.01c-3.72,0.31 -2.11,1.41 -4.55,3.04zm-7.08 -3.54l0 0zm-0.5 2.53c-0.38,-0.44 -0.29,-0.11 -0.85,-1.18 -0.53,-1 -0.42,-0.77 -0.67,-1.86 1.22,0.89 1.35,1.01 1.52,3.04zm7.58 -4.05l-0.99 0.58 0.99 -0.58zm0 0l0.98 -0.58 -0.98 0.58zm-7.08 1.52c-1.39,-1.02 -1.96,-1.48 -0.5,-2.53 0.26,1.15 0.39,1.16 0.5,2.53zm7.08 -3.54l0.58 0.99 -0.58 -0.99zm0 0l0 0zm-1.01 -1.52l0.15 0.15c-0.01,-0.01 -0.2,-0.1 -0.15,-0.15zm-0.51 -1.01l0.15 0.15c-0.01,-0.01 -0.2,-0.1 -0.15,-0.15zm-0.5 -1.01c0,-1.29 0.8,-0.08 0.3,0 -0.01,0 -0.3,1.41 -0.3,0zm-1.01 14.66c1.69,1.25 1.12,1.68 2.02,3.54l3.76 -0.53c1.62,0.25 1.25,-0.66 3.31,0.53 2.38,-0.02 -0.01,0.35 1.01,-1.01 -2.54,0 -0.97,0.14 -1.51,-0.51 1.35,-0.9 1.69,-1.58 2.92,-2.64 1.62,-1.41 2.07,-0.77 2.64,-2.92 -1.74,0.72 -1.54,-0.75 -2.74,-2.81 -0.47,-0.81 -0.94,-1.42 -1.38,-2.22 -1.07,-1.92 -1.1,-0.42 -0.43,-2.04 -0.98,0.26 -0.78,0.09 -1.52,0.5 0.83,-3.07 0.89,-1.26 0.32,-2.35 -0.03,-0.04 -0.54,-0.77 -0.59,-0.84 -1.11,-1.57 -1.39,-1.75 -2.25,-3.38 -1.46,0.48 -1.03,-0.94 -0.51,1.52l-1.45 -1.09c0.33,-1.42 0.14,-0.74 0.95,-1.95 -4.31,1.15 -3.92,3.78 -7.08,4.05 -0.38,-1.44 -1.99,-4.29 -3.03,-5.06 -0.61,1.47 0.29,2.15 1.32,3.75 1.39,2.16 1.41,2.02 0.19,3.83 -2.57,-0.68 -1.75,-1.72 -3.54,-3.03 0.45,1.93 1.07,2.12 1.52,4.05 -1.35,0.71 -2.66,1.33 -3.54,2.52 4.4,0 2.12,1.44 5.56,6.58 -1.74,0.46 -2.66,1.72 -3.54,3.03 2.62,-0.61 4.16,-2.86 7.08,-3.54 -1.61,2.19 -1.33,-0.01 -1.21,1.85 0.11,1.55 0.76,1.57 2.22,1.69 -0.38,-0.68 -0.27,-0.56 -0.5,-1.52z"/>
    <path class="fil5" d="M342.26 279.91c0.53,-0.35 0.57,-0.44 1.15,-0.65 1.49,-0.56 -0.58,1.11 1.25,-0.48 0.43,-0.37 1.65,-2.2 1.65,-2.91 0,-1.93 0.15,-0.19 -0.51,-1.52 -2.05,1.09 -3.33,3.06 -3.54,5.56z"/>
   </g>
   <g id="_2839245928112">
    <path class="fil5" d="M306.37 257.16c2.42,0.57 6.63,2 8.59,3.04 -0.55,2.38 -1.82,4.65 -2.02,7.07l-6.57 -10.11zm-8.09 -2.52c0.79,-0.38 -0.35,-0.44 0.77,-0.05l1.74 1.66c0.4,0.94 0.92,0.13 -0.02,1.06 -1.09,1.09 -1.48,0.06 -2.01,-0.61 -0.84,-1.06 -0.42,-1.94 -0.48,-2.06zm-2.02 -1.02c-0.6,1.6 1.1,0.73 -1.52,1.02 0.75,-0.69 0.64,-0.49 1.52,-1.02zm-6.57 0c0,-1.29 0.8,-0.08 0.3,0 -0.01,0.01 -0.3,1.42 -0.3,0zm-20.73 0.51c-0.51,-0.68 -0.51,1.06 -0.51,-1.52 0.47,0.62 0.33,-0.56 0.51,1.52zm-79.37 -4.55c1.98,-0.04 1.18,0.14 2.53,-0.51 0.42,1.18 0.17,0.73 1.15,1.37l5.42 2.17c-0.3,1.28 -0.51,3.01 -1.01,4.05 -2.74,-0.06 -3.5,-0.2 -4.05,-2.53 -1.99,2.1 -2.21,0.51 -6.57,-0.51 0.9,-1.34 1.63,-2.69 2.53,-4.04zm-14.66 3.54l-0.51 0.5 0.51 -0.5zm0 0c0.32,-1.24 -0.23,-0.68 1.01,-1.01l-1.01 1.01zm107.68 -3.54l0.15 0.15c-0.01,-0.01 -0.2,-0.1 -0.15,-0.15zm-93.02 0l0 0zm98.09 0.06c0.66,0.95 0.91,1.34 1.5,2.47 -2.2,-0.24 -1.5,-0.58 -2.53,-2.53 1.21,-0.64 1.73,-1.17 3.04,-1.52l1.81 1.73c1.07,1.08 1.29,1.43 2.74,1.81l0 1.52c-2.47,0.57 -1.84,1.07 -4.55,-4.05l-2.01 0.57zm-4.06 -0.06c1.28,-2.42 0.51,-1.19 1.01,-1.01 0.24,0.55 0.93,-0.16 0.01,0.6 -1.24,1.02 0.37,-0.22 -1.02,0.41zm2.53 -2.53c0.67,0.39 0.54,0.33 1.52,0.51 -0.64,0.57 -0.66,0.58 -1.52,1.01l0 -1.52zm2.02 0l-0.5 0.51 0.5 -0.51zm-14.16 0l0.16 0.15c-0.01,-0.01 -0.21,-0.1 -0.16,-0.15zm14.16 0l0.99 -0.58 -0.99 0.58zm-2.02 0l0 0zm-10.11 -0.5l0.15 0.15c-0.01,-0.01 -0.2,-0.1 -0.15,-0.15zm-86.45 0l0.15 0.15c-0.01,-0.01 -0.2,-0.1 -0.15,-0.15zm-1.01 0l0 0zm83.41 -1.52l1.63 1.41 -1.63 0.11 0 -1.52zm-83.41 1.52l0 0zm2.02 -1.01l0 0zm91.5 -0.51l0 0zm-91 -0.51l-0.5 1.02 0.5 -1.02zm91 0.51l-0.58 -0.99 0.58 0.99zm-5.56 -0.51l0 0zm-4.55 0.51l-0.5 -0.51 0.5 0.51zm11.63 -1.01l0 0zm-7.08 0.5l0 -0.5 0 0.5zm-5.05 0l0 0zm-79.37 4.55l-1.09 -1.45c0.89,-1.6 0.71,-2.08 2.1,-3.1 -0.52,2.46 -0.96,1.04 0.5,1.52 0.45,-1.67 1.37,-2.59 3.04,-3.03 0.7,1.52 0.16,1.05 0,3.03 2.29,-1.68 0.41,-2.68 3.53,-2.02 -1.03,1.96 -2.29,3.27 -2.52,6.07 -2.55,-0.22 -2.45,-1.02 -5.56,-1.02zm-0.51 -5.05l-0.51 0.5 0.51 -0.5zm84.93 0l0 0zm-84.42 -0.51l-0.51 0.51 0.51 -0.51zm91.5 0.51l-1.11 -0.91c1.41,0.25 0.66,-0.29 1.11,0.91zm-13.14 -1.01l0.15 0.15c-0.01,-0.01 -0.2,-0.1 -0.15,-0.15zm-76.34 0l0 0zm-1.52 0l-0.5 0.5 0.5 -0.5zm1.52 0l0 -0.51 0 0.51zm-1.01 -0.51l-0.51 0.51 0.51 -0.51zm92.01 0.51c-1.31,0.16 -0.16,-1.71 -0.02,-0.63 0,0.01 0.02,0.13 0.02,0.15 0,0.04 0.42,0.43 0,0.48zm-15.17 -1.01l0 0zm-75.83 0.5l-1.01 0c0.77,-0.71 0.23,-0.71 1.01,0zm82.4 -1.51c1.72,0.45 1.67,1.24 2.53,2.52 -1.23,-0.32 -0.74,0.08 -1.67,-0.86 -1.33,-1.34 -0.51,-1 -0.86,-1.66zm-77.85 -0.51l0 1.52c-2.67,0 -0.76,-0.01 -1.52,-0.51l1.52 -1.01zm71.28 1.52c-1.09,-0.76 -0.66,-0.08 -1.01,-1.52 1.12,0.78 0.63,0.08 1.01,1.52zm-72.8 -1.52l0 1.01c-1.58,-0.52 -1.33,-0.05 0,-1.01zm1.52 0l0 0zm-1.01 -1.01l-0.51 1.01 0.51 -1.01zm-4.55 0.5l0.15 0.16c-0.01,-0.01 -0.2,-0.11 -0.15,-0.16zm69.76 -1.01l1.12 0.91c-1.42,-0.24 -0.67,0.29 -1.12,-0.91zm-65.21 0.51l0 0zm65.21 -0.51l0 0zm-67.24 -0.5l0.16 0.15c-0.01,-0.01 -0.21,-0.1 -0.16,-0.15zm3.04 -1.01l0.15 0.15c-0.01,-0.01 -0.2,-0.1 -0.15,-0.15zm70.27 0.5c-1.31,0.16 -0.15,-1.71 -0.02,-0.62 0,0 0.02,0.13 0.02,0.14 0,0.05 0.42,0.43 0,0.48zm-6.57 -3.03l0 0zm-61.17 0.5l0 0zm-2.53 -0.5c0.54,-0.54 1.92,0.8 0.56,0.26 -0.01,0 -1.41,0.59 -0.56,-0.26zm63.7 0l-0.51 -0.51 0.51 0.51zm-65.22 -0.51l0.15 0.15c-0.01,-0.01 -0.2,-0.1 -0.15,-0.15zm64.71 0l-0.58 -0.98 0.58 0.98zm-2.02 -2.52c0,-1.3 0.8,-0.09 0.3,0 -0.01,0 -0.3,1.41 -0.3,0zm4.04 -1.01c-0.83,0.58 0.8,-0.01 -1.33,0.68 -1.16,0.38 -0.25,0.21 -1.7,0.33 1.72,-1.63 0.41,-1.23 3.03,-1.01zm0 0l0.51 -1.02c1.83,0.61 1.07,0.59 -0.51,1.02zm0.51 -1.02l-0.51 -0.5 0.51 0.5zm-0.51 -0.5l-0.5 -0.51 0.5 0.51zm-0.5 -0.51l0 0zm-1.52 -1.01l0 0zm-5.05 0c0.53,-0.54 1.91,0.8 0.56,0.26 -0.01,0 -1.41,0.59 -0.56,-0.26zm5.05 0l0 0zm-47.52 -1.51l0 0zm28.31 1.01l0 1.51c-7.48,1.75 -15.06,1.52 -24.27,1.52 1.18,-5.06 5.09,-4.82 9.05,-4.45 3.13,0.28 2.02,-0.25 5.14,-0.57 2.59,-0.27 3.89,-0.54 6.54,-0.54 0.34,1.26 0.45,1.96 2.02,2.53 -0.48,-1.01 -0.72,-1.81 -1.01,-3.04l4.05 0c0.9,1.35 1.62,2.7 2.53,4.05 -1.19,0.27 -1.5,0.47 -3.04,0.5 -0.35,-1.48 0.07,-0.73 -1.01,-1.51zm2.53 -3.54c5.39,-0.83 3.72,-1.48 7.08,3.54 -0.91,0.43 -3.3,0.9 -4.55,1.01 -0.42,-1.55 -1.72,-3.02 -2.53,-4.55zm6.07 -0.51l0.15 0.15c-0.01,-0.01 -0.21,-0.1 -0.15,-0.15zm-24.78 1.01c0.41,-1.51 2.84,-3.91 4.05,-5.05 1.7,1.14 2.31,1.92 2.53,4.55 -2.29,0.19 -3.52,0.5 -6.58,0.5zm7.08 -3.54c-0.51,-0.67 -0.5,1.07 -0.5,-1.51 0.46,0.62 0.32,-0.57 0.5,1.51zm3.03 0.51c-0.26,-1.15 -0.39,-1.16 -0.5,-2.53 1.47,1.69 2.44,2.48 3.54,4.55 -1.33,-0.31 -1.49,-0.46 -2.53,-1.01 -0.25,1.03 -0.41,2.25 -2.21,1.32 -1.03,-0.52 -1.07,-1.71 -1.33,-2.84 1.97,1.44 0.03,0.8 2.02,1.52 -0.53,-1.11 -0.88,-1.99 -1.01,-3.54 1.14,1.31 0.45,1.38 2.02,2.53zm-22.24 5.06c0.17,-2.03 3.86,-8.53 -9.9,-0.3 -4.78,2.87 -7.37,3.92 -12.21,7.51 -1.87,1.39 -3.56,2.78 -5.3,4.3 -1.77,1.54 -3.72,3.34 -5.45,4.66 -1.23,0.94 -8.35,8.05 -9.61,11.12 0.02,2.38 -0.35,-0.02 1.02,1.01l1.51 -1.01 0 1.52 1.01 0.51 1.46 -1.09c1.09,3.94 2.48,-1.18 3.09,-2.45 1.65,0.87 3.36,1.44 5.35,2.24 4.7,1.88 4.51,1.23 8.33,3.29 1.12,0.61 7.37,2.87 9.07,2.05 -0.97,-1.45 -1.82,-1.84 -4.04,-2.02 0.7,-2.62 1.79,-1.7 1.01,-5.06l13.79 2.93c2.48,0.36 3.39,0.48 4.41,-0.9 -2.09,0 -2.84,-0.31 -4.91,-0.66 -11.72,-1.98 -3.42,-0.25 -9.31,-2.31 -0.99,-0.35 -3.93,-0.99 -4.99,-1.08 1.24,-2.34 1.5,-3.78 3.03,-6.07 1.29,0.62 2.96,0.7 4.57,1.01 2.65,0.51 2.53,1.47 4.53,0.51 -0.54,-2.03 -0.14,-1.46 -2.53,-1.52 1.08,-2.03 2.01,-2.29 2.53,-4.55 -1.6,1.08 -2.53,1.88 -3.03,4.05 -1.99,0 -2.89,-0.13 -4.48,-0.58 -0.63,-0.19 -0.99,-0.31 -1.85,-0.68 -1.79,-0.77 0.29,-0.21 -1.76,-0.76 0.94,-1.41 1.7,-2.49 2.53,-4.05 2.99,0 6.06,0.67 9.01,1.1 7.55,1.12 20.13,-1.6 28.4,-1.6 0.03,0.06 0.05,0.12 0.06,0.22 0.02,0.15 0.14,0.38 0.17,0.44l2.71 2.46c1.28,0.85 3.67,1.89 5.65,1.93 0,-2.74 0.35,-2.9 -0.74,-4.82 -0.66,-1.17 0.02,0.94 -0.77,-1.24 2.14,-0.5 7.12,0.01 8.59,-2.03 -1.92,-0.92 -14.04,1.73 -17.68,2.04 -2.9,0.25 -17.85,0.84 -19.23,1.5 0.15,-1.71 0.39,-1.85 1.02,-3.03 -3.79,1.01 2.29,4.58 -13.44,1.81 -0.56,-0.1 -1.91,-0.33 -2.55,-0.49 -0.05,-0.01 -1.17,-0.33 -1.18,-0.34 -1.12,-0.4 -0.46,-0.11 -1.03,-0.48l2.02 0c3.5,-6.62 3.96,-3.83 12.65,-3.55 3.59,0.11 3.25,1.1 4.54,2.04 0.4,-1.5 0.2,-0.82 1.01,-2.02 3.03,0 6.09,0.05 9.12,0.02 3.55,-0.04 4.87,-0.89 8.57,-1.04 2.27,-0.09 6.16,-0.53 8.1,-1 1.97,-0.47 6.09,-1.36 8.08,-1.52 0.4,1.51 1.15,1.95 2.02,3.11 1.81,2.41 0.77,0.07 0,2.95 2.06,0 1.63,0.17 3.04,-0.5 -0.2,2.23 0.66,1.47 -1.52,1.01 0.73,2.75 2.35,2.63 3.03,5.56l-12.38 2.28c-2.73,0.37 -2.73,-0.33 -3.29,1.76l11.64 -1.51c3.85,-0.73 -1.09,-0.48 4.45,-1.25 2.24,-0.3 1.57,-1.28 5.14,-1.28 0.54,2 2.25,5.87 4.55,6.07l-4.04 1.51c-1.75,0.86 -2.43,1.03 -4.55,1.52l0 1.52 3.51 -1.08c0.08,2.33 0.69,4.63 2.05,5.63l0 -1.52 1.52 1.52c-0.18,-2.16 -0.62,-2.2 -1.5,-3.56l-1.03 -2.51c1.68,-0.81 3.34,-1.11 5.05,-2.02l0.29 1.34c0.24,0.8 0.41,1.13 0.71,1.67 0.55,0.97 1.41,2.11 2.04,3.05 -1.63,0.38 -2.16,0.79 -3.44,1.62 -2.59,1.68 -2.67,1.2 -3.64,2.43l0.51 0c1.99,-0.61 4.33,-1.62 6.06,-2.02 0.49,2.09 3.08,8.95 5.56,5.56 -2.33,-0.26 -0.94,0.27 -2.23,-2.32 -0.77,-1.54 -1.26,-1.63 -1.31,-3.75 2.67,0.71 0.77,1.37 3.04,3.03 -0.45,-1.92 -1.07,-2.11 -1.52,-4.04 2.46,0.52 1.03,0.95 1.52,-0.51l1.51 0c0.45,1.66 1.71,2.74 2.14,4.04 1.18,3.59 -1.52,-0.04 -2.14,-0.5 0.21,2.44 0.81,1.61 1.02,4.05 3.37,-1.79 1.15,-0.1 4.04,2.02 -0.44,-1.87 -0.83,-1.41 -1.01,-3.54 1.11,-1.17 1.78,-1.48 3.1,-2.46 1.45,-1.08 1.93,-1.61 3.98,-2.09 0.16,0.24 2.66,3.78 2.72,3.83 1,0.86 0.53,0.08 0.89,-0.09 2.34,-1.06 2.09,-0.08 2.45,0.81 1.13,-0.6 1.52,-0.84 2.53,-1.52l3.54 3.04c-0.26,-0.98 -0.09,-0.78 -0.51,-1.52 2.88,0.77 0.92,1.56 3.2,3.88 1.88,1.91 3.25,4.03 3.88,6.74l-4.04 4.55c2.7,-0.72 1.85,-2.31 4.55,-3.04 1.02,0.69 0.62,0.57 1.31,1.2 0.99,0.9 -0.46,0.16 1.72,1.33l1.01 0c-0.58,-1.73 -1.13,-2.39 -1.52,-4.04 4.65,-1.08 3.51,-0.33 7.08,0.5 -0.2,2.42 -0.5,3.89 -0.5,7.08 2.2,-0.05 3.16,-0.5 6.06,-0.5l0 -7.59c1.05,0.55 1.2,0.7 2.53,1.01 1.5,-2.83 1.5,-2.49 5.06,-1.01 3.74,0 0.89,0.22 2.02,-1.01 -2.23,-0.13 -3.18,-0.73 -4.71,-0.93 -3.15,-0.39 -1.55,0.31 -3.89,0.93 -0.99,-0.86 -1.92,-1.79 -3.03,-2.53 -6.96,6.06 -2.24,1.33 -9.12,2.55 -2.82,0.49 -3.37,0.65 -2.37,-2.32 1.14,-3.39 2.66,-7.66 3.4,-10.84 -2.22,0.05 -1.57,0.34 -3.54,0.5l4.05 -10.61c-0.78,-1.12 -0.08,-0.63 -1.52,-1.02 0.31,-3.76 3,-7.54 2.62,-9.82 -0.4,-2.38 0.74,-5.27 2.14,-10.19 0.66,-2.34 1.19,-5.07 2.82,-6.27l1.85 4.25c0.91,1.33 -0.19,0.29 1.19,1.31l0 -0.51c-0.84,-2.75 -2.39,-5.87 -2.53,-7.58 -1.79,1.2 -2.13,1.98 -3.04,4.03 -3,6.77 1.29,5.71 -6.42,8.75l-15.49 6.76c-5.96,3.02 -5.79,4.14 -8.92,6.24 -1.23,-1.07 -2.23,-1.93 -3.61,-2.96 -10.4,-7.72 -8.46,-6.8 -21.16,-13.22 -6.96,-3.51 -23.71,-8.89 -31.87,-9.12 -1.53,-0.04 -9.77,1.81 -11.32,2.34 -2.2,0.76 -2.12,1.59 -4.34,2.73 -2.39,1.22 -2.35,1.16 -3.03,4.05 1.19,0.28 1.49,0.47 3.03,0.51 0,-2.79 -0.69,-1.53 2.22,-3.88 1.11,-0.9 -0.41,-0.17 1.16,-0.81 1.68,-0.68 1.43,0.57 3.5,-0.6 1.05,-0.59 0.33,-0.31 1.21,-0.78 -0.45,1.7 -1.5,2.3 -2.62,3.44 -1.72,1.75 -1.24,1.62 -4.45,1.62 0.44,2.12 0.66,0.94 -0.82,2.67 -0.9,1.05 -1.35,1.52 -1.71,2.89l-3.04 0 2.63 -2.94c-1.3,-0.9 -0.62,-0.71 -2.12,-1.1z"/>
    <path class="fil5" d="M277.55 95.89c3,-0.69 5.08,-3.6 5.48,-6.69 0.26,-2.02 -0.93,-8.14 -0.93,-11.51 0,-3.46 0.79,-3.57 0.23,-7.28 -0.98,-6.5 0.64,-8.16 -1.74,-9.91 -3.02,0.81 -2.03,3.74 -2.03,7.59 0.01,3.71 -0.23,6.16 -0.47,9.12 -0.25,3 0.08,6.53 -0.01,9.6 -0.09,3 -0.53,5.34 -0.53,9.08z"/>
    <path class="fil5" d="M294.24 89.32c4.07,0.95 4.81,3.84 5.92,-5.2l1.87 -15.31c0.89,-5.65 2.14,-6.28 -2.74,-6.28 0,6.52 -4.96,22.81 -5.05,26.79z"/>
    <path class="fil5" d="M220.43 265.25c0,5.98 0.05,6.57 11.62,6.57l0 -7.07c-3.52,0.82 -1.86,0 -5.05,0 -3.08,0 -3.69,0.5 -6.57,0.5z"/>
    <path class="fil5" d="M164.82 141.9c3.45,1.83 12.07,4.4 16.17,6.57 0.78,-1.17 2.17,-2.7 2.53,-4.04 -4.73,-0.11 -13.32,-4.95 -18.2,-5.06 -0.11,1.36 -0.23,1.38 -0.5,2.53z"/>
    <path class="fil5" d="M159.25 162.63c5.03,1.17 8.93,2.92 10.12,-1.52 -10.62,-2.47 -10.12,-1.92 -10.12,1.52z"/>
    <path class="fil5" d="M258.34 252.61c2.83,5.35 4.06,4.01 6.07,3.54 0,-3.98 -0.34,-2.04 -1.01,-4.55 -2.01,0.17 -3.05,0.85 -5.06,1.01z"/>
    <path class="fil5" d="M196.67 297.61c2.22,-1.18 1.51,-0.52 1.51,-4.05l-1.51 0 0 4.05z"/>
   </g>
   <g id="_2839245919440">
    <path class="fil5" d="M237.62 322.89l0.98 0.54 0.03 -1.56 0.87 1.65c0.56,1.31 0.34,0.57 0.64,1.89 -2.23,-0.18 -2.04,-0.43 -2.52,-2.52zm0 0l0 0zm-16.69 -1.52c1.53,0.4 1.11,-0.01 1.52,1.52 -2.66,-1.41 -0.42,-0.09 -1.52,-1.52zm17.7 0.5l-0.58 -0.98 0.58 0.98zm-1.01 -2.52l0.58 0.98 -0.58 -0.98zm-2.03 0l0.15 0.15c-0.01,-0.01 -0.2,-0.1 -0.15,-0.15zm16.18 0l0.99 -0.59 -0.99 0.59zm-14.15 0l0 0zm-8.09 2.02l-6.07 0 0 -2.53c2.41,-0.05 1.72,-0.57 3.97,-0.43 1.43,0.08 1.87,0.43 4.12,0.43 -0.68,1.42 -0.22,2.53 -2.02,2.53zm5.56 -3.54l0.58 0.99 -0.58 -0.99zm1.01 -1.01c0,-1.29 0.8,-0.08 0.3,0 -0.01,0 -0.3,1.41 -0.3,0zm-1.01 1.01c-1.09,-0.76 -0.67,-0.07 -1.01,-1.52 1.11,0.78 0.62,0.09 1.01,1.52zm16.68 1.52c-2.19,4.13 -1.01,-1.04 -2.02,2.02l-6.07 0c0,-8.59 -9.8,-10.38 -11.63,-3.54 -2.72,-1.31 -5.45,0.23 -8.59,-0.51l0 -5.56c3.2,0 3.05,0.81 6.78,0.22 6.19,-0.97 10.57,0.53 14.48,0.21 2.51,-0.2 2.5,-1.3 2.5,4.63 2.56,-0.68 1.23,-0.46 1.01,-3.03 1.46,1.07 1.01,0.41 1.01,3.03l1.52 -2.53 0 3.03c-3.53,0.83 -4.28,-0.14 -7.08,0.51 2.03,2.76 4.8,-0.06 8.09,1.52zm11.63 -5.56c0.11,-0.07 0.3,-0.26 0.36,-0.15l4.19 -0.87c-0.76,1.43 0.23,2.13 -4.55,1.02zm-58.14 -2.03l4.04 0 0 0.51 -4.04 0 0 -0.51zm62.18 -0.5c0.76,-0.36 -0.3,-0.35 0.78,-0.1 1.68,0.4 0.67,0.2 1.25,0.6 -2.23,0.47 -0.9,1.05 -2.03,-0.5zm-65.72 -1.52l4.55 0 0 0.51 -4.55 0 0 -0.51zm86.45 -1.01l2.53 0 0 0.5 -2.53 0 0 -0.5zm0.51 -1.52l4.55 0 0 0.51 -4.55 0 0 -0.51zm6.06 -2.52c0.55,1.35 -0.3,0.49 1.1,0.92 0.49,0.16 1.86,0.09 2.44,0.09l-5.56 0.5 2.02 -1.51zm4.05 0.5l3.54 0 0 0.51 -3.54 0 0 -0.51zm-35.39 -0.5c0.58,-0.59 2.88,0.85 0.63,0.2 -0.06,-0.02 -1.51,0.67 -0.63,-0.2zm20.22 -4.05c0.23,0.36 0.6,0.08 0.67,1.89 0.05,1.59 0.99,0.59 -0.67,1.14l0 -3.03zm33.87 0.51c2.7,0.22 0.61,0.51 3.11,0.94 1.12,0.19 3.25,0.07 4.48,0.07l0 0.5c-2.88,0 -6.46,-0.45 -8.29,-0.23 -2.89,0.36 -5.89,0.23 -8.9,0.23l9.6 -1.51zm-12.64 0.5c0.59,-0.58 2.89,0.86 0.64,0.21 -0.07,-0.02 -1.51,0.67 -0.64,-0.21zm15.17 -0.5l3.54 0 0 0.5 -3.54 0 0 -0.5zm4.04 -0.51l3.54 0 0 0.51 -3.54 0 0 -0.51zm-6.57 0.51l-11.12 -0.51c2.18,0 9.71,-0.39 11.12,0.51zm-33.87 2.52c-0.7,0.61 -0.73,0.72 -1.92,1.12 -0.76,0.25 -1.34,0.37 -2.63,0.4 0,-2.69 0.56,-2.89 -1.01,-4.04 0,2.54 0.45,2.26 0.5,4.55 -1.33,-0.54 -0.94,1.04 -1.01,-2.03l-1.01 2.53c-4.25,0 -5.59,2.02 -10.61,2.02 0,-8 -1.09,-1.16 8.43,-5.72 9.16,-4.38 8.25,-4.17 8.25,0.67l1.01 0.5zm0 -4.55l0 1.52c-0.07,-0.1 -0.21,-0.38 -0.21,-0.3 0,0.07 -0.13,-0.25 -0.13,-0.31 0.08,-1 -0.05,-0.31 0.34,-0.91zm-51.57 3.04c2.86,-1.52 2.63,-2.53 8.09,-2.53 5.8,0 11.93,-1.5 9.55,4.95 -0.39,1.07 -0.3,0.87 -0.95,1.62 1.36,2.03 1.51,0.62 1.51,4.05 0,2.99 -1.07,0.3 -4.38,0.62 -3.39,0.33 -3.18,-0.09 -6.72,-0.14 -5.03,-0.07 -10.14,0.02 -15.18,0.02 -0.47,-0.96 -0.9,-2.7 -1.02,-4.04 6.48,-1.51 16.28,0.49 22.75,-1.01 -2.28,-1.99 -4.42,-0.51 -9.6,-0.51l-13.15 0c0.04,-1.64 0.49,-3.45 1.02,-4.55 2.74,0 6.67,0.42 8.59,-0.5 0.44,0.99 -0.46,0.39 -0.51,2.02zm52.58 -3.04l0.58 0.99 -0.58 -0.99zm0 0l-1.01 0c0.77,-0.71 0.24,-0.71 1.01,0zm-23.76 -1.01c-0.18,-0.95 0.64,-1.79 0.32,-0.32 -0.01,0.04 0.02,2.09 -0.32,0.32zm22.25 -1.01l-3.79 1.78c-1.72,0.75 -2.82,0.78 -4.6,1.46 -2.75,1.06 -6.06,2.05 -9.31,2.32 0,-2.71 0.59,-3.38 -1.01,-4.55l0 5.06 -2.02 0c0.03,-1.58 0.22,-1.91 0.38,-3.17 0.54,-4.43 -1.5,-1.23 7.61,-3.5 8.67,-2.17 10.21,-4.12 10.21,1.11l0.5 0c0,-0.56 -0.05,-1.47 0.03,-2l0.48 -1.54c0.09,0.38 0.33,1.55 0.37,1.64 0.59,1.4 -0.2,0.85 1.15,1.39zm10.61 0c0.04,1.54 0.23,1.85 0.51,3.04 -2.56,0.59 -6.59,2.82 -9.1,3.03l0 -2.53c0.67,0.97 0.37,1.06 1.51,1.52 -0.16,-2.01 -0.84,-3.05 -1.01,-5.06 1.71,-0.4 3.07,-1.18 4.64,-1.93l2.31 -1.24c1.38,-0.73 0.85,-0.72 2.66,-0.87l0.5 6.57c-1.45,-0.97 -1.34,-1.55 -2.02,-2.53zm-28.31 -1.01l0 0zm17.7 1.01l0 -1.51c0.05,-0.03 0.16,-0.04 0.18,0.03l1.54 -0.03c0.84,-0.04 -0.34,-0.45 0.8,0 -0.9,1.23 -0.69,1.08 -2.52,1.51zm-61.68 -1.01l0 0zm18.7 2.53c-2.88,0 -3.49,0.5 -6.57,0.5l-7.58 0 -3.04 0 0 -3.03 1.52 1.52 0 -2.02c8.97,0 16.54,-0.51 25.78,-0.51 -0.73,1.3 -0.5,1.36 -0.5,3.54l-8.6 0 -1.01 0zm95.55 -4.05c0.24,-0.23 2.87,0.28 0.91,0.28l-0.28 -0.07c-0.06,-0.02 -1.51,0.67 -0.63,-0.21zm-80.38 0l0 0zm-4.55 0c2.6,0.23 0.95,-0.49 1.52,1.02 -0.85,-0.43 -0.89,-0.47 -1.52,-1.02zm78.87 -0.5c0.53,-0.54 1.91,0.8 0.56,0.26 -0.01,0 -1.41,0.59 -0.56,-0.26zm-145.1 0.5l0 0zm79.37 -1.51c0,-1.3 0.8,-0.08 0.3,0 0,0 -0.3,1.41 -0.3,0zm-8.59 1.51c-0.26,-0.98 -0.09,-0.78 -0.51,-1.51 0.85,0.07 0.78,-0.1 1.6,0.16 1,0.32 0.43,-0.65 0.93,0.85l-2.02 0.5zm69.26 -3.03c-0.62,0.47 0.57,0.33 -1.52,0.51l2.03 1.51 -3.17 -0.99c0.98,-0.96 -0.52,-1.03 2.66,-1.03zm-26.29 3.54c-1.05,-0.73 -1.01,0.18 -1.01,-2.53 0,-2.74 4.08,-1.93 6.07,-1.51 0.21,2.58 0.38,0.68 1.01,3.03 -1.75,2.62 -1.93,1.44 -4.56,2.52 -0.11,0.04 -0.25,0.12 -0.35,0.16 -0.09,0.04 -0.26,0.14 -0.33,0.17 -0.07,0.04 -0.21,0.14 -0.32,0.18 0.86,-3.72 0.86,-0.75 0.5,-5.05l-1.01 0c0.46,2.18 0.21,0.58 0,3.03zm-10.11 -5.06c0.05,2.36 0.59,2.67 1.52,4.05 -1.2,0.63 -2.06,1.17 -3.54,1.52 0,-3.18 -0.47,-2.23 -1.01,-4.55 1.57,-0.37 1.46,-0.65 3.03,-1.02zm37.41 -0.5l2.53 0 0 0.5 -2.53 0 0 -0.5zm-34.88 0l0.15 0.15c-0.01,-0.01 -0.2,-0.1 -0.15,-0.15zm-2.53 0.5c0.68,-0.51 -1.06,-0.5 1.52,-0.5 -0.62,0.47 0.57,0.33 -1.52,0.5zm53.08 -1.01l0.15 0.15c-0.01,-0.01 -0.2,-0.1 -0.15,-0.15zm-7.07 0c-1.41,0.9 -3.89,0.51 -5.57,0.51l5.57 -0.51zm0 0c1.59,-1.01 3.52,0 5.56,0l0 0.51c-2.81,0 -3.49,-0.33 -5.56,-0.51zm-43.99 -0.5l0.15 0.15c-0.01,-0.01 -0.2,-0.1 -0.15,-0.15zm-47.01 -0.51l0 -2.02c2.44,0 3.87,-0.81 5.56,0 -0.45,1.23 0.06,0.98 -1.89,1.65 -0.87,0.29 -2.16,0.37 -3.67,0.37zm69.76 -3.54c0.52,0.68 0.51,-1.06 0.51,1.52 -0.47,-0.62 -0.33,0.57 -0.51,-1.52zm-82.91 -3.03c1.79,0.15 2.95,0.72 4.63,0.93 1.84,0.24 3.47,0.55 4.98,0.59 0,1.99 -0.16,2.05 -0.51,3.54 2.93,0 3.32,-0.68 3.54,2.02 -2.72,0 -3.38,-0.59 -4.55,1.01 3.25,0 3.83,1.14 5.06,0.74 1.85,-0.61 -1.92,0.23 1.01,-0.74 0.38,0.27 0.22,0.27 0.95,0.56 1.69,0.67 2.72,0.45 4.61,0.45 -0.62,2.64 -0.22,0.86 0,3.54 -2.91,0 -3.7,-0.58 -6.05,-0.53l-13.39 0.84c-1.96,0.24 -3.64,-0.31 -6.34,-0.31 0,-2.98 -0.57,-2.94 2.02,-3.54l-0.91 -0.61c-0.62,-0.65 -0.15,0.23 -0.61,-0.91 3.89,-0.9 1.24,-1.42 5.65,-0.1 3.05,0.92 5.18,1.38 6.48,-0.4 -5.44,-0.46 -4.68,-0.62 -5.05,-2.02 -1.78,1.19 -1.1,1.01 -4.05,1.01 -0.39,-1.5 -0.2,-0.82 -1.01,-2.03 0.62,-0.34 1.12,-0.01 1.52,-1.51 1.68,0.56 0.68,-0.06 0.51,2.02l1.01 0c0.05,-2.29 0.5,-2.01 0.5,-4.55zm17.7 2.02l0.15 0.15c-0.01,-0.01 -0.2,-0.1 -0.15,-0.15zm1.01 -1.01l0.58 0.99 -0.58 -0.99zm-19.72 -0.5c-0.33,1.23 0.23,0.68 -1.01,1.01 -0.8,-1.43 -0.2,-1.53 1.01,-1.01zm0.51 -0.51l-0.51 0.51 0.51 -0.51zm0.5 0l-0.5 0 0.5 0zm83.42 -3.03l2.01 -1.04c1.63,1.22 1.67,2.27 2.54,4.07l-1.52 0c0.28,1.19 0.47,1.49 0.51,3.03 -1.88,0.5 -0.66,0.51 -2.53,1.01 0.04,-0.11 0.16,-0.38 0.18,-0.3 0.01,0.05 0.86,-0.67 0.06,-2.9 -0.69,-1.91 -0.98,-1.79 -1.25,-3.87zm-64.71 4.04c-0.98,0.26 -0.78,0.09 -1.52,0.51 0.11,-1.37 0.24,-1.38 0.51,-2.53 -2.55,0.21 -2.45,1.01 -5.56,1.01 1.55,0.99 1.02,0.09 2.34,1.19 1.37,1.14 -0.01,0.59 1.7,1.84 -0.11,-1.36 -0.24,-1.37 -0.51,-2.52 1.47,1.07 1.02,0.41 1.02,3.03 -4.86,0 -6.07,2.61 -6.07,-3.03l-4.05 0 0 -2.03c-0.46,0.62 -0.32,-0.56 -0.5,1.52 -3.09,0 -4.47,-0.53 -5.06,-3.03 4.21,0 1.82,0.11 4.05,-1.52 5.71,1.33 6.31,-0.19 8.82,0.29 2.34,0.46 -0.89,0.89 2.3,0.22 -1.21,1.65 -0.76,0.86 -3.47,1.07 -1.66,0.14 -2.19,0.44 -4.11,0.44 0,0.01 0.08,1 2.82,0.8l4.55 -0.29c1.62,-0.12 2.52,0.45 2.74,3.03zm-17.7 -4.04c-0.94,-0.25 -1.89,0.54 -0.25,-1.15 0.95,-0.98 1.17,-0.84 2.78,-0.88 -0.9,1.72 -1.76,1.54 -2.53,2.03zm11.63 -4.05l0.99 -0.58 -0.99 0.58zm-69.76 -0.5l-0.51 -0.51 0.51 0.51zm67.74 -1.01c0.54,-0.54 1.92,0.8 0.56,0.26 -0.01,-0.01 -1.41,0.58 -0.56,-0.26zm-73.31 -2.53c1.22,0.32 1.51,0.62 2.71,1.34 1,0.59 0.35,0.14 1.24,0.78 0.53,0.38 0.76,0.6 1.11,0.91 -1.12,0.41 -0.8,0.18 -1.39,1.14 -0.56,0.91 -0.54,1.27 -0.63,2.4 -1.23,-0.33 -1.35,-0.53 -2.59,-2.5 -1.3,-2.07 -0.67,-1.44 -0.45,-4.07zm0 0c-0.73,0.41 -0.53,0.24 -1.51,0.5l-0.57 -2c1.76,0.88 1,0.02 2.08,1.5zm-3.03 -2.02l0 0zm11.12 -4.05c-2.4,0 -0.96,0.01 -1.51,-0.5l1.45 -1.09 0.06 1.59zm-8.59 3.54c-1.39,-0.12 -1.1,-0.05 -2.02,-0.51 0.2,-2.49 0.98,-4.33 3.54,-4.55 -0.29,3.45 -1.44,1.56 -1.52,5.06zm7.08 -4.04c-1.45,-0.35 -0.76,0.07 -1.52,-1.02 1.48,0.36 0.73,-0.06 1.52,1.02zm2.02 -3.04l-0.28 1.09 0.28 -1.09zm0.5 -0.5l-0.5 0.5 0.5 -0.5zm0 0c0.26,-1.22 0.1,-0.76 -0.04,-1.25 -0.98,-3.34 -1.36,2.11 -0.46,-0.78l2.02 0c-0.47,1.77 -0.19,1.14 -1.52,2.03zm66.74 -3.54l0 0zm1.51 -1.01l0 0zm0 0c0,-2.58 0,-0.84 0.51,-1.52 0,2.67 -0.01,0.75 -0.51,1.52zm2.03 -3.54l0.58 0.98 -0.58 -0.98zm121.83 -25.78c-1.44,1.96 -0.79,0.03 -1.51,2.02 0.07,0.1 0.16,0.14 0.18,0.32 0.03,0.17 0.15,0.25 0.19,0.32l0.94 2.09c0.52,1.37 0.68,2.22 1.21,3.33l-11.62 -0.5c0.87,-3.76 2.89,-4.86 2.17,-7.74 -0.8,-3.25 0.25,-1.59 0.5,-4.47 0.73,-8.16 1.03,-5.59 2.89,-13.58 0.36,0.53 0.03,-0.15 0.54,0.98l3.77 10.37c0.43,2.77 0.15,-0.22 -0.37,2.13 -0.48,2.13 0.61,2.54 1.11,4.73zm-106.16 -13.66l1.01 0 0 1.52 -1.01 0 0 -1.52zm17.69 -12.13l2.7 7.44c0.81,3.2 -0.17,0.21 -0.17,2.67 0,2.58 0.23,0.5 0.59,2.49 0.59,3.29 -1.57,1.4 0.93,6.61l-8.09 0c1.13,-4.86 1.56,-1.53 1.79,-9.91 0.08,-2.91 1.55,-6.28 2.25,-9.3zm-40.95 6.07l1.01 0c-0.19,2.35 0.55,0.88 -1.01,2.02 -1.04,-2.51 0.08,0.76 0,-2.02zm145.1 -4.05c0.87,-0.87 1.69,1.37 0.44,0.39 -0.04,-0.03 -1.19,0.36 -0.44,-0.39zm-32.36 -2.02l0 2.02 -1.01 0c0.19,-2.25 -0.55,-0.93 1.01,-2.02zm-6.07 1.52l0 -1.52 1.01 0c-0.48,2.02 -0.98,1.46 -1.01,1.52zm-34.88 -3.03l0 0zm-43.98 4.55c-2.59,3.85 0.19,3.76 0.5,7.58 -2.19,-0.05 -2.07,-0.45 -4.53,-0.52 -1.64,-0.05 -3.42,0.01 -5.07,0.01 0.88,-3.78 2.3,-3.29 1.59,-6.99 -0.28,-1.51 0.23,-1.12 0.42,-3.62 0.38,-5.27 2.17,-8.18 2.54,-12.64 1.53,1.12 1.62,2.25 2.07,4.5 0.22,1.07 1.47,5.22 1.47,5.61 0,4.25 -1.63,2.13 1.01,6.07zm43.98 -4.55l0.28 -1.09 -0.28 1.09zm52.58 -12.14c3.44,0.92 2.68,7.1 3.16,9.99 0.22,1.31 0.73,1.88 0.88,3.66 -2.39,-1.15 -3.83,0 -6.57,0 1.08,-2.26 0.44,-3.76 0.92,-6.64 0.45,-2.73 1.43,-4.82 1.61,-7.01zm-219.92 5.06l0 5.56c-0.79,-1.5 -0.79,-4.06 0,-5.56zm244.18 9.1l-6.57 0c1.49,-6.39 1.54,-13.08 3.37,-17.36 0.04,-0.07 0.1,-0.23 0.17,-0.34 0.67,2.88 1.57,3.34 2.02,8.61 0.47,5.58 -0.19,3.9 1.01,9.09zm-11.62 0.5l-6.58 0c1.77,-7.59 0.51,-7.08 2.15,-14.54 0.31,-1.42 0.85,-2.76 0.89,-4.67l1.58 3.98c1.91,6.15 0.25,7.92 1.96,15.23zm-88.98 -7.58l0 0zm68.75 7.58c0.95,-1.96 1.83,-12.51 3.04,-17.69 0.89,0.65 0.92,-0.08 1.82,4.25 0.4,1.91 -0.29,11.21 -0.57,12.21 -0.67,2.38 -1,1.23 -4.29,1.23zm-68.75 -7.58l0.63 -7.97c0.3,-2.28 0.75,-5.48 2.4,-6.69 0.22,2.64 1.39,3.95 1.52,7.08 0.25,6.31 0.77,4.72 1.01,7.58l-5.56 0zm-44.99 0c0,1.64 0.93,3.45 1.51,4.55 -1.48,0.35 -0.73,-0.07 -1.51,1.01 0.47,2.02 1.33,3.42 1.51,5.56 -3.49,0 -6.82,-0.53 -9.1,0 0.23,-2.75 1.22,-3.16 1.74,-5.37 0.31,-1.26 -0.04,-4.04 0.23,-6.29 0.63,-5.24 1.58,-7.79 2.58,-12.1 1.24,1.43 2.61,7.08 3.14,9.04 0.83,3.03 -0.1,1.76 -0.1,3.6zm-68.25 -11.12c2.49,1.82 2.61,4.92 3.18,7.43 0.27,1.2 0.53,1.27 0.86,2.68l-6.57 0c0.38,-1.62 0.59,-3.49 0.99,-5.07 0.47,-1.86 1.1,-3.18 1.54,-5.04zm213.84 7.58l25.5 2.82 19.77 7.75c0.03,0.01 0.16,0.01 0.23,0.05 0,11.35 -3.13,26.43 -5.99,34.95 -0.68,2.01 -10.14,28.75 -12.71,28.75 -6.83,0 -38.96,-5.68 -46.61,-7.49 -7.39,-1.74 -25.58,-5.43 -31.55,-9.39 -3.62,-2.4 -4.25,-8.26 -4.25,-12.45 0,-6.3 35.03,-16.22 12.82,-26.97 -2.79,-1.35 -5.26,-1.9 -8.49,-2.6 -2.69,-0.58 -0.7,0.79 -2.81,-1.26 9.78,0 19.54,1.01 29.32,1.01 -0.32,3.82 -3.01,8.77 -4.26,15.49 -0.44,2.37 0.14,1.62 -0.25,3.32 -0.41,1.8 -1.09,1.82 -0.67,3.62 0.11,0.42 1.17,0.24 -0.2,3.49 -0.65,1.52 -1.04,2.05 -1.19,3.9 2.2,-0.04 2.76,-0.5 5.56,-0.5 0,4.51 -0.47,4.04 4.05,4.04l0 -4.04c0.53,0.12 4.04,1.01 4.55,0.5 0.03,-0.07 0.04,-0.29 0.04,-0.24l-2.07 -6.33 2.01 -0.56c-0.34,-1.47 -0.6,-1.38 -1.03,-2.49 -0.3,-0.75 -0.39,-0.43 -0.38,-1.54 0.02,-2.86 1.29,-0.63 0.27,-3.78l-4.91 -14.88c18.64,0 29.74,1.01 48.53,-0.01l15.7 0.04c3.95,0.06 4.02,0.38 4.02,-3.07 -7.83,0 -13.87,0.51 -21.74,0.51l-21.74 0c-1.87,0 -2.28,-0.49 -3.03,-1.52 1.15,0.27 1.16,0.39 2.53,0.51 -0.04,-1.73 -0.38,-3.76 -0.56,-6.04 -0.1,-1.33 -0.28,-5.19 -0.46,-5.59zm-39.93 3.03l3.03 -10.61c2.96,2.17 2.2,8.14 3.02,12.65 0.36,2.04 0.86,2.63 1.02,4.54 -5.27,-1.23 -6.17,1.86 -7.07,-1.52 -1.37,0.95 -1.47,1.72 -5.06,0 1.3,-2.7 1.18,-8.15 2.14,-12.52 0.27,-1.19 0.77,-2.65 0.89,-4.16 1.35,1.55 1.64,3.08 1.99,5.12 0.52,3.07 0.04,2.99 0.04,6.5zm-91.51 -17.18c0.52,2.21 1.7,3.93 1.96,6.63 0.8,8.19 -0.42,3.09 2.09,6.51l-1.09 2.5 -5.99 0.03c0.17,-2.08 0.5,-1.13 0.5,-3.04 0,-2.31 -0.45,-0.73 -0.16,-3.18 0.18,-1.53 0.37,-2.24 0.66,-3.4 1.21,-4.94 0.43,-4.88 2.03,-6.05zm5.06 9.1l0.15 0.15c-0.01,-0.01 -0.2,-0.1 -0.15,-0.15zm-48.54 -10.12c2.18,1.6 2.67,6.3 2.98,9.67 0.48,5.14 4.19,5 -5.5,5 0.17,-2.1 0.4,-1.27 0.37,-3.76 -0.04,-3.41 1.37,-7.56 2.15,-10.91zm14.16 13.65l-2.96 0.52c-0.2,-0.01 -1.89,-0.52 -3.61,-0.52 1.84,-3.84 1.08,-3.59 1.58,-8.53 0.22,-2.25 0.85,-6.46 2.46,-7.64 2.81,12.07 1.44,10.97 1.85,13.34 0.33,1.93 0.49,0.61 0.68,2.83zm37.92 -14.66c0.19,2.33 2.65,8.01 2.35,12.54 -0.12,1.8 -0.91,2.39 0.17,4.65 -2.56,-0.21 -2.35,-1.49 -2.92,-3.65 -1.03,-3.95 -1.92,-2.67 -2.4,-3.47 -0.49,-0.83 0.44,-4.17 0.66,-5.12 0.57,-2.4 0.5,-3.75 2.14,-4.95zm109.19 8.09c2.72,1.82 4.61,4.49 7.59,6.07 0,2.88 -0.47,5.75 -1.01,8.09 -6.69,-3.54 -3.91,-8.19 -6.58,-14.16zm-192.11 9.1c-3.43,0 -3.27,0.25 -4.02,-2.61 -0.88,-3.35 1.79,-5.83 5.04,-8 0,3.01 -0.95,7.67 -1.02,10.61zm63.7 -9.6c3.71,0.99 0.86,3.08 4.05,9.1l-2.53 0c-0.16,-1.9 -0.68,-2.3 -1,-3.63 -0.4,-1.64 0.26,-1.55 0.32,-1.64 2.1,-3 -0.42,1.92 0.68,-0.8 -0.38,-0.44 -0.28,-0.1 -0.85,-1.17 -0.44,-0.85 -0.47,-1.44 -0.67,-1.86zm51.57 11.62c-2.94,-0.06 -1.52,0.64 -1.59,-2.97l0.28 -4.74c0.17,-1.8 -0.18,-1.61 0.48,-4.21 0.41,-1.6 0.78,-3.6 1.34,-4.76 3.6,2.64 -0.51,7.79 -0.51,16.68zm-61.68 -3.03c-1.99,0 -2.05,-0.16 -3.54,-0.5 0.05,-1.89 0.49,-2.53 0.81,-4.26 0.56,-3.05 0.63,-10.89 2.73,-12.43 3.47,14.88 0.92,6.17 0,17.19zm-4.04 -2.02c-1.3,-0.73 -1.36,-0.51 -3.54,-0.51 0.06,-2.46 0.71,-2.62 0.96,-4.6 0.39,-3.22 -0.12,-12.12 2.58,-14.1 2.4,10.32 0,10.52 0,19.21zm10.62 -16.68c1.27,1.46 1.21,1.94 1.74,3.82 2.92,10.37 0.2,1.05 1.17,8.89 0.34,2.71 0.16,2.97 1.13,4.98 -3.3,0 -3.06,-0.72 -5.13,-7.52 -0.21,-0.68 -0.46,-1.28 -0.58,-2.43 -0.3,-2.77 1.28,-3.13 1.67,-7.74zm-35.9 17.18c1.4,-2.91 1.33,-13.57 1.88,-16.32 0.39,-2 0.75,-3.17 1.15,-4.91 3.28,3.77 1.38,11.78 0.53,15.72 -1.06,4.9 1.99,5.51 -3.56,5.51zm110.72 -38.92c-3.54,-0.08 -3.78,-2.85 -7.1,-1.5 -1.99,0.8 -1.68,1.75 -2.38,-0.1 -0.14,-0.36 -0.6,-3.92 -0.63,-4.49 -0.19,-3.55 -0.41,-4.7 0.12,-8.45 0.3,-2.17 1.47,-5.42 2.39,-7.22 3.58,-6.99 12.78,-15.15 23.27,-15.15 10.38,0 15.41,1.4 22.63,8.71 7.12,7.21 10.12,19.91 5.17,30.22 -2.63,-1.76 -3.59,-3.58 -8.46,-1.9 -1.58,0.55 -1.71,0.24 -2.15,1.9 -8.67,-2.32 -17.59,-15.17 -18.2,-15.17 -3.29,0 -7.26,2.83 -9.19,4.46 -1.55,1.3 -4.92,6.61 -5.47,8.69zm10.11 73.3l0 0.51c-0.74,3.04 2.96,7.07 3.19,10.17 0.65,8.62 2.01,6.72 2.37,11.06l-1.52 0c0.27,3.27 2.31,6.48 3.04,9.61l-3.03 -1.54 4.69 13.48c0.9,2.3 -0.19,0.73 1.37,2.21 -1.13,1.23 1.72,1.01 -2.02,1.01 1.73,0 1.96,0.38 3.54,0.51 -0.82,-1.71 -1.21,-3.86 -2.03,-5.56 2.71,0.63 5.71,0.99 8.55,1.56 2.78,0.55 5.61,1.04 8.57,1.54 5.7,0.94 11.7,2.04 17.69,3.04 10.36,1.73 22.58,2.53 33.45,1.95 2.28,-0.13 2.39,-0.51 5.05,-0.51 -1.07,4.02 -10.63,15.48 -14.28,19.09 -18.71,18.5 -33.99,30.75 -60.86,39.75 -16.12,5.39 -36.96,9.07 -58.3,7.36 -9.64,-0.77 -19.64,-2.93 -28.05,-5.32 -6.73,-1.91 -12.45,-4.21 -18.56,-6.71 -2.07,-0.85 -4.03,-2.15 -5.99,-2.6l0 -1.01c1.92,0 2.05,-0.06 3.7,0.34l2.85 0.68c4.88,1.29 2.66,0.62 6.6,2.53 1.93,0.93 4.46,-0.02 7.58,-0.01 1.64,0.01 3.24,-0.17 4.2,-0.35 0.66,-0.13 1.03,-0.17 1.66,-0.37l-8.39 -0.8c1.64,-1.43 5.43,-1.84 7.29,-1.25 1,0.32 -0.45,0.11 0.95,0.3l3.32 0.51c2.49,0.78 1.39,-0.38 3.27,-0.83 1.71,-0.41 1.2,0.03 1.56,0.05 2.41,0.1 1.04,0.93 2.31,-0.8 -1.56,-0.75 -1.85,-0.51 -4.04,-0.51 1.19,-2.25 -0.34,-1.47 2.19,-1.28l18.01 1.3c1.22,0.03 2.9,0.06 4.11,0.03 2.61,-0.06 1.94,0.37 2.99,-1.06 -2.53,0 -3.51,-0.51 -6.58,-0.51l0 -0.5c2.69,0 2.99,-0.03 5.06,-0.51 -2.18,-1.9 -3.65,-0.29 -9.17,-0.93 -3.05,-0.36 -7.82,-0.08 -11.05,-0.08l0 -0.5c1.01,0 2.62,0.1 3.55,0.01 1.75,-0.16 1.49,-0.14 2.51,-1.03l-6.06 -0.5c6.51,0 12.3,0.46 17.55,0.22 0.99,-0.05 3.39,-0.55 3.78,-0.57l14.06 -0.66c-4.38,0 -11.5,-0.42 -15.54,0.14 -5.6,0.76 -9.62,-0.14 -15.3,-0.14l0 -0.51c3.03,0 6.06,0 9.1,0 3.75,0.01 6.02,-0.5 9.1,-0.5l0 -1.01c-2.99,-0.7 -5.83,0.27 -9.06,0.55 -1.97,0.16 -1.28,0.36 -3.17,0.47 -2.78,0.17 -4.46,-1.68 -1.22,-1.72 1.37,-0.02 1.7,0.68 2.74,-0.2 1.15,-0.98 0.18,0.03 0.02,-0.5 -0.01,-0.07 -0.18,-0.27 -0.22,-0.33l4.84 -0.3c0.04,-0.06 0.1,-0.25 0.12,-0.19 0.1,0.45 1.05,-1.31 0.94,-2.15 0,-0.02 -0.07,-0.12 -0.05,-0.19 1.59,-0.36 4.19,-1.14 3.38,0.84 -0.03,0.06 -0.14,0.26 -0.17,0.32 -0.02,0.07 -0.13,0.24 -0.17,0.36 3.97,0.33 3.61,0.33 7.58,0 0.18,-0.59 0.51,0.03 -0.67,-0.81 -0.06,-0.04 -0.23,-0.12 -0.34,-0.2 4.81,0 0.66,-0.19 3.03,1.52 3.32,-0.78 8.81,-0.78 12.13,0l-0.67 0.24c-0.08,0.01 -0.26,0.06 -0.36,0.07l-2.07 -0.23c-3.12,-0.17 -0.9,0.24 -3.47,0.93 1.23,1.68 1.31,0.96 5.56,0.73 0.93,-0.05 1.87,-0.54 2.66,-0.62 1.88,-0.2 0.99,0.2 2.9,0.9 -0.49,-1.85 -0.53,-1.06 -1.51,-2.53l3.03 -0.5c0.32,-1.53 0.68,-1.65 -1.08,-1.97 -4.04,-0.76 0.36,1.27 -7.12,0.07 -1.44,-0.23 -2.97,-0.13 -4.44,-0.13l0 0.51c2.87,0 1.94,-0.44 2.53,1.01 -3.21,0 -5.22,0.45 -7.58,0.51 0.67,-1.62 -0.53,-2.03 3.53,-2.03l0 -1.01c2.26,-0.19 3.57,-1.02 5.89,-0.78 0.92,0.1 1.65,0.66 2.98,0.04 1.6,-0.74 -0.57,-0.83 -1.28,-1.28 3.33,0 5.78,-0.8 9.3,-1.31 3.36,-0.48 6.97,-0.03 10.42,-0.2 2.19,-0.1 2.3,-0.52 4.27,-0.79 2.49,-0.35 1.81,0.75 3.66,-0.84 3.39,-2.92 2.19,-1.91 9.25,-1.91l0 -0.51c-2.95,0 -3.53,-0.51 -6.06,-0.51 1.04,-1.42 1.01,-0.71 1.45,-1.3 0.45,-0.61 1.13,-2.11 2.49,-3.35 1.6,-1.45 1.03,-0.31 1.62,-1.92 -3.29,0.08 -1.93,0.85 -5.56,0 -0.34,-0.96 -0.31,0.72 0.5,-1.51l4.11 -0.56c2.52,-0.12 1.92,-1.08 2.46,0.56l1.46 -1.09c-0.1,-1.83 -0.66,-2.43 -0.45,-4.95 0.18,-2.18 0.84,-2.42 1.02,-4.58l-13.61 1.56c-2.06,0.44 -2.12,1.01 -4.09,1.47 0.88,-2.43 0.13,0.41 1.01,-2.02 -2.15,0.18 -2.56,0.28 -3.03,2.02 -5.59,-1.3 -4.25,-1.18 -6.75,-6.41 -0.43,-0.91 -0.71,-2.13 -1.34,-2.69l-1.01 0c-0.73,1.63 -0.24,1.09 -1.52,2.02 -1.61,-1.18 -0.41,-0.84 -2.02,-2.02l1.08 3.52 -2.18 2.46c0.97,0.71 2.57,-1.35 2.13,1.03 -0.12,0.67 -0.12,-0.59 -0.26,1.01 -0.05,0.69 0.13,0.76 0.24,2.09 -0.8,-0.93 -0.73,-1.55 -2.02,-2.02 0.38,1.64 0.86,2.22 1.01,4.05 -1.3,-0.61 -0.98,-0.36 -2.53,0 -0.16,-1.98 0.31,-1.54 -1.51,-2.03l0 2.53c-0.62,-2.66 -0.62,-1.38 0,-4.04 -1.37,0.11 -1.38,0.23 -2.53,0.5 -0.82,-1.54 -0.64,-2.02 -2.02,-3.03l-0.01 1.01c-1.02,1.36 1.37,0.99 -1.01,1.01 -0.33,1.37 -0.19,0.5 0.06,1.95 0.18,1.08 0.29,0.11 0.45,2.1 -1.51,1.01 -2.29,2.34 -4.55,2.52 -0.16,-1.9 -0.73,-2.36 -1.52,-3.54 -1.88,1.27 -1.06,1.92 -3.03,1.02 0.81,-1.11 3.03,-2.63 4.55,-3.04l0 -1.01c-1.72,0.14 -1.85,0.39 -3.03,1.01l-1.91 -2.13c0.1,2.7 0.27,0.79 0.9,3.14 -1.55,1.04 -2.88,1.89 -4.8,2.79 -5.14,2.4 -2.01,2.03 -4.81,2.77l-1.84 -4.73c-0.03,-0.07 -0.11,-0.22 -0.18,-0.32 0.04,1.97 0.86,4.19 1.52,5.56 -2.21,1.17 -15.65,5.56 -18.71,5.56 0,-3 -0.45,-4.33 -0.5,-6.57 -0.96,0.64 -2.22,1.57 -2.69,0.2 -0.99,-2.94 0.66,1.3 0.66,-4.25 -2.91,-1.2 -1.98,-4.14 -2.91,-0.95 -0.95,3.3 2.45,4.66 -1.64,5 0,-10.5 -0.32,-6.55 -4.55,-5.56 -0.81,-3.48 -3.43,-5.71 -5.68,-7.96 -7.35,-7.35 -3.96,-4.51 -7.97,-4.18l0.37 -0.65c0.6,-1.63 0.21,-0.82 0.01,-2.07 -0.89,-5.67 5.39,-3.54 15.67,-6.51l7.11 -1.99c1.58,-0.43 5.27,-1.77 6.17,-2.93l-0.51 0c-1.86,-0.63 -1.48,-0.26 -3.41,0.62 -1.14,0.52 -2.18,0.96 -3.17,1.39 -3.19,1.42 -3.44,1.05 -7.37,1.73l-14.87 3.34c3.86,-5.77 1.16,-1.75 4.31,-4.29 1.35,-1.08 0.49,-1.08 2.28,-2.27 1.33,-0.88 1.44,-0.44 2.63,-1.93 4.2,-5.27 -1.95,-8.11 -2.31,-8.55 -0.86,-1.05 -0.47,-1.9 -1.35,-2.68l0 0 -0.5 0.51c1.27,0.77 1.01,-1.23 1.01,1.51 -0.47,1.22 -0.77,1.81 -0.48,3.43 0.65,3.62 -0.03,-1.42 0.99,1.63 -0.56,0.22 -0.25,0.68 -1.64,0.89 -0.03,0.01 -0.17,-0.02 -0.21,-0.01l-1.58 1.2c-1.27,1.7 -0.96,0.52 -1.12,2.47l1.01 0 -2.06 1.51c-1.98,1.85 0.28,2.53 -2.57,3.94 -1.99,0.99 0.46,0.38 -2.45,-0.4 0,3.25 0.91,4.98 2.02,7.08 -1.26,1.89 -1.45,0.65 -1.52,3.54l0.95 -0.52c2.52,-0.79 1.99,0.65 2.09,1.53 -1.43,-0.68 -0.89,-0.17 -2.04,-0.52 -1.93,-0.58 -3.08,-3.05 -4.03,0.52 1.54,0.36 2.79,1.04 4.26,1.34 2.13,0.43 2.84,-0.28 4.84,-0.33l0 1.52c-2.47,0.2 -3.1,0.92 -6.31,0.24 -3.97,-0.83 -2.53,-0.92 -3.29,-2.77 -6.27,4.2 -6.89,10.42 -8.35,12.89 -1.21,2.06 -2.07,1.77 -2.78,4.81 -2.86,-1.52 -11.72,-4.05 -16.17,-4.05 -0.09,3.79 -1.11,5.02 -1.52,6.57 2.01,0.17 1.74,0.51 3.48,1.07 0.83,0.27 0.72,0.17 1.61,0.41l1.17 0.35c0.12,0.04 0.24,0.1 0.36,0.14 2.15,0.74 6.04,1.07 8.55,1.07 0.48,-1.01 0.72,-1.81 1.01,-3.04l0.86 2.17c0.03,0.08 0.08,0.25 0.15,0.36l0 15.17c-7.78,-0.65 -25.15,-3.95 -30.01,-9.47 -1.63,-1.86 -0.46,-1.06 -0.56,-2.39 -0.14,-1.89 0.43,-2.01 -1.84,-1 -0.98,0.44 0.56,0.82 -0.84,0.09 -0.73,-0.38 -3.18,-3.21 -3.66,-3.92 3.56,0.83 5.31,3.45 9.61,3.54 -2.5,-3.41 -10.17,-3.59 -15.8,-9.99 -0.92,-1.05 -1.04,-1.42 -2.03,-2.51 -1.31,-1.44 -0.98,-0.94 -1.89,-2.66 1.78,0.41 3.5,1.11 5.21,1.86 2.51,1.11 2.3,2.11 5.41,2.18 -0.75,-2.79 -1.88,-1.73 -5.79,-3.81l-2.3 -1.24c-1.35,-0.03 -2.28,-0.18 -3.38,-0.67 -4.4,-1.95 -1.33,-4.58 -0.66,-7.42 1.75,0.41 2.4,1.02 4.36,1.7 3.96,1.39 9.32,5.06 12.82,5.88 -0.63,-1.74 0.08,-0.43 -1.46,-1.57 -4.31,-3.2 -6.5,-3.16 -10.07,-5.1 -1.53,-0.82 -2.67,-1.65 -4.14,-2.43 1.2,-1.78 1.45,-2.09 2.02,-4.55 -2.19,1.61 0.18,0.92 -2.02,2.53 0.08,-3.48 0.76,-1.02 1.01,-4.05 -1.9,0.16 -2.22,0.77 -2.7,2.46 -0.29,1.03 -0.58,1.45 0.59,2.65 0.06,0.06 0.23,0.18 0.29,0.23 0.06,0.05 0.21,0.14 0.31,0.22 -3.86,0.32 -0.31,0.83 -3.45,-1.59 -2.11,-1.63 -2,-0.01 -3.63,-2.45 1.09,-0.8 2.33,-3.23 3.03,-4.55l9.1 4.04c-0.79,-1.5 -0.11,-0.75 -1.31,-1.72l-2.23 -1.31c3,-0.8 1.35,-3.85 4.05,-4.55 2.11,-0.55 10.67,4.43 12.13,4.55l-6.58 -4.04c0.29,-1.19 0.48,-1.5 0.51,-3.04l-1.08 2.51c-0.81,-0.18 -1.33,-0.31 -2.27,-0.67 -2.9,-1.13 -1.56,-1.66 -4.27,-2.3 -2.39,-0.56 -1.02,0.96 -2.49,-1.05l-1.01 -0.51c-0.71,-0.35 -0.51,-0.35 -1.51,-0.51 -1.37,-1.03 -1,1.37 -1.02,-1.01 -0.94,0.03 -0.36,-0.27 -1.31,0.69 -1.66,1.68 -6.22,10.06 -8.29,11.45 -0.24,-1.03 -8.94,-16.8 -12.43,-29.03 -1.45,-5.1 -7.89,-30.21 -5.77,-35.68l0.5 2.02c3.9,-0.91 7.65,-2.16 11.93,-3.24 11.29,-2.82 20.89,-4.78 32.58,-5.34 2.36,-0.11 1.2,-0.1 2.9,-0.63 1.32,-0.42 2.04,-0.37 3.15,-0.9 -0.59,-2.53 -0.15,-1.67 -2.01,-2.07 -1.5,-0.31 -2.17,-0.13 -3.37,-0.22 -3.01,-0.21 -0.54,-0.32 -2.44,-0.92 -1.17,-0.37 -1.8,0.18 -3.81,0.18 0.05,-2.2 0.39,-1.79 0.5,-4.06l0.89 -8.2c0.46,-1.86 0.76,-1.77 1.14,-3.42 0.45,0.52 0.28,0.16 0.85,1.18l1.68 5.4c1,-1.59 0.41,-1.88 -0.07,-3.49 -1.05,-3.5 0.19,-3.27 3.91,-8.85 2.32,-3.48 5.12,-7.53 6.34,-11.86 0.93,-3.29 0.55,-3.69 2.65,-6.44 2.29,-3 11.83,-12.57 12.44,-14.86 3.07,0.81 2.76,3.76 6.07,4.04 2.74,-0.73 2.41,-2.51 4.18,-3.91 1.44,-1.14 2.57,-0.71 5.31,-3.28 2.54,-2.4 6.14,-6.76 8.71,-8.48l0.51 -0.51 0.5 -0.5 6.57 -9.1c2.82,0.65 4.78,2.11 6.88,3.74 5.59,4.32 6.94,17.01 13.35,18.5 0.53,-1.98 2.03,-3.54 3.54,-4.55 1.9,0.51 5.65,3.46 7.36,4.77 1.43,1.1 2.14,1.82 3.9,2.16 5.1,0.99 2.93,0.26 9.39,8.81 6.13,8.12 11.01,17.34 16.65,25.82l1.92 2.64c0.55,0.59 0.26,0.32 0.78,0.72 3.05,2.36 3.27,2.44 4.48,7.66l1.01 0c0,-8.72 -1.27,-5.98 -3.84,-12.34 -1.32,-3.28 -2.39,-9.43 -2.73,-13.44 -0.84,1.32 -1.32,4.22 -1.51,6.57 -2.12,-0.57 -5.64,-7.27 -6.07,-9.1 3.89,0 5.15,-1.86 7.89,-3.24 3.69,-1.86 5.42,0.14 7.78,1.72 5.91,-3.95 5.73,-12.19 14.16,-14.15 4.17,3.05 7.53,9.41 14.17,13.12 4.55,2.54 2.1,3.05 6.55,3.05 0.9,-1.86 0.73,-3.95 3.97,-3.53 1.71,0.22 3.44,1.96 4.42,3.24 3.5,4.6 4.46,2.64 4.76,10.41 0.27,7.23 7.59,10.69 7.63,15.14 0.01,1.28 -1.17,5.26 -1.56,6.09 -7.01,-0.59 -12.27,-11.01 -13.96,-16.89 -1.01,-3.52 0.03,-6.51 -3.23,-7.38 -1.91,1.4 -10.48,16.53 -11.63,18.71 -1.67,-0.45 -2.44,-1.68 -4.05,-2.53 0.58,2.46 0.53,4.03 0.56,7.12 0.03,4.13 -0.2,3.5 -4.09,3.5 0,-2.76 1.14,-8.26 -2.03,-9.1 -0.98,4.21 -0.09,4.84 0.8,8.8l1.73 8.89c-4.23,0.09 -1.75,1.36 -4.04,3.03 -0.73,-3.13 -1.81,-2.18 -4.71,-2.26 -3.67,-0.1 1.06,-0.51 -2.84,-0.64 -1.97,-0.07 -1.11,1.05 -3.58,-0.13 -0.16,1.98 0.31,1.54 -1.51,2.02 -0.85,-2.34 -1.75,-0.09 -2.53,-3.03l-9.61 0c-0.48,-0.33 -0.39,-0.15 -0.8,-0.64 -0.52,-0.62 -0.28,-0.35 -0.44,-0.72 -0.03,-0.06 -0.07,-0.2 -0.09,-0.26 -0.02,-0.07 -0.06,-0.21 -0.08,-0.28 -0.02,-0.07 -0.06,-0.22 -0.08,-0.29 -0.53,-1.86 -1.48,-5.82 -1.03,-7.42 1.1,-3.89 0.96,4.68 1.63,-7.54 0.12,-2.24 0.21,-1.89 -3.01,-5.24 -1.71,-1.79 -3.15,-2.37 -4.81,-4.28l-4.57 -5.04c-4.42,-4.58 -7.88,-11.51 -10.47,-17.34 -8.18,-18.4 -9.95,-9.71 -3.84,4.86l8.37 19.93c2.87,6.43 -0.49,8.38 -0.49,15.16 -0.96,0.5 -2.19,0.66 -2.7,1.85 -0.55,1.29 0.27,1.45 0.68,3.2l-5.12 0.43c-3.17,0.26 -6.57,-0.43 -11.06,-0.43 0.45,-1.96 0.61,-4.05 0.99,-6.08 0.47,-2.53 1.32,-2.99 1.54,-5.54 1.3,0.95 2.1,2.74 2.52,4.55 3.12,-2.09 3.56,-9.08 1.76,-11.87 -0.99,-1.52 0.1,0.69 -0.8,-1.23l-3.35 -7.26c-1.37,-3.63 -2.03,-7.07 -2.97,-11.19 -0.8,-3.5 -1.92,-8.39 -2.22,-11.93l-0.6 1.93c-0.18,0.85 -0.24,1.34 -0.33,2.19 -0.2,1.99 -0.28,3.06 -0.5,4.56 -0.48,3.38 -0.87,5.61 -1.6,8.51 -0.69,2.77 -1.35,5.1 -2.13,7.99 -0.53,1.99 -2.27,5.82 -2.42,7.68 -1.88,-0.5 -0.66,-0.51 -2.53,-1.01 -0.56,2.38 -1.82,4.65 -2.02,7.08l-1.01 0c-0.68,-2.92 -0.28,-3.7 -0.64,-6.42 -0.46,-3.57 -0.18,-3.71 0.11,-7.25 1.12,-13.36 7.9,-12.67 3.44,-34.74 -0.38,-1.86 -1.22,-5.14 -1.4,-7.2 -1.35,0.99 -1.04,1.27 -1.41,3.13 -3.56,17.99 -1.51,14.69 -12.74,29.23 -1.55,2 -12.7,13.12 -14.66,13.64 -1.84,-7.89 -9.79,-14.83 -11.63,-22.75 -4.79,1.12 -3.16,8.53 -6.64,17.63 -0.3,0.78 -2.02,5.88 -2.81,5.46 -0.43,-0.23 -0.6,-1.38 -1.66,0.1 -0.69,0.96 -1.02,2.87 -1.02,4.62l2.02 -3.04c0.59,2.57 1.57,4.92 1.76,7.57 0.12,1.7 0.56,6.1 0.77,8.61 -1.51,0 -3.56,-0.17 -4.98,0.12l-4.12 0.39 0 2.52 28.31 0.01c3.84,0.01 5.72,-0.51 9.1,-0.51 1.4,6.03 -0.54,9.44 -1.52,13.65 2.23,-0.05 2.36,-0.51 5.06,-0.51 0.04,2.22 0.34,1.58 0.5,3.54l3.03 0 0 -3.54c2.55,0 2.27,0.46 4.55,0.51 -0.53,-2.31 -1.55,-4.06 -2.02,-6.07 1.48,-0.35 0.73,0.07 1.52,-1.01l-1.59 -5.03c4.19,-0.13 3.36,-0.69 8.46,0.19 5.08,0.87 6.52,-0.15 6.74,1.75 0.21,1.83 -1.28,6.67 -1.33,8.15 -0.07,2.08 0.78,1.06 -0.18,3.97 -0.51,1.56 -0.93,1.94 -0.98,4.11 4.96,-2.38 5.06,-0.58 5.06,3.04 3.27,0 4.68,-0.09 3.03,-3.54 2.56,0 2.6,0.34 4.55,0.5 -0.07,-3.02 -1.29,-3.78 -1.52,-6.57 1.48,-0.35 0.73,0.07 1.52,-1.01 -0.36,-0.51 -0.06,0.07 -0.56,-0.98 -1.09,-2.34 -0.07,-3.55 -0.6,-5.37 -0.32,-1.14 -0.6,-1.6 -0.86,-2.75 3.08,0 9.97,0.9 12.64,1.52 -1.23,5.26 -4.12,12.81 -3.86,17.96 0.13,2.54 -1.13,2.54 -1.2,5.8 1.95,-0.16 1.63,-0.51 4.04,-0.51 0.04,1.54 0.23,1.85 0.51,3.04l2.53 0 0.58 -3.02c1.87,0.15 1.55,0.49 3.97,0.49 -2.49,-4.69 -1.17,-3.95 -0.92,-5.72 0.21,-1.56 -0.39,-1.35 -0.71,-2.68 -0.65,-2.61 1.17,-4.77 -4.44,-15.36 2.6,0 5.97,0.72 8.6,1.01 7.93,0.87 54.96,5.59 55.1,14.15 0.07,4.19 -13,10.5 -16.68,10.62zm-107.68 -88.98c-3.38,-2.25 -3.63,-6.83 -9.46,0.15l-11.66 13.12c-1.64,1.77 -1.74,2.57 -3.87,4.22l-13.55 11.22c-3.01,2.63 -5.77,4.77 -8.87,7.3l-23.27 17.68c-1.98,1.36 -3,2.3 -5.16,3.44 0,-26.7 9.22,-55.55 22.54,-76.04 7.9,-12.14 23.38,-29.15 34.51,-37.28 1.88,-1.37 3.38,-2.41 5.27,-3.83 12.1,-9.05 34.64,-18.86 49.87,-21.92 36.06,-7.25 59.87,-4.48 93.28,9.43 16.11,6.71 31.12,18.67 43.39,30.93 19.51,19.51 33,45.64 38.43,72.8 0.88,4.41 2.15,11.22 2.39,16.31 0.14,2.95 0.28,16.29 1.01,18.2 -0.12,-0.1 -0.25,-0.45 -0.3,-0.36l-1.07 -1.32c-1.19,-1.24 -5.55,-2.6 -7.3,-3.3l-48.28 -25.53c-2.07,-1.05 -10.6,-5.44 -9.94,-8.14l0.67 -1.29c-1.96,-0.52 -6.57,-6.64 -6.57,-7.08 0,-2.05 0.59,-4.03 2.52,-4.55 -1.02,-4.38 2.22,-14.98 -5.71,-24.62 -2.6,-3.15 -1.03,-2.35 -3.16,-3.91 -0.99,-0.73 -1.16,-0.7 -2.1,-1.45 -3.82,-3.11 -6.77,-4.67 -11.76,-5.93 -7.56,-1.93 -10.89,-0.66 -18.04,1.71 -3.37,1.12 -6.13,3.45 -8.63,5.53 -4.33,3.6 -9.24,13.1 -9.24,19.06 0,3.94 0.55,1.89 0.3,7.36l-0.02 0.73c0.01,0.09 0.04,0.23 0.06,0.31 0.21,0.91 0.79,1.06 1.18,2.73 -3.38,1.78 -3.27,3.03 -8.6,3.03 -0.67,-2.89 -5.96,-9.05 -6.55,-10.49 -1.62,-3.95 0.02,0.52 -4.33,-5.42 -3.24,-4.41 -3.37,-0.74 -8.44,-4.19l-6.21 -4.42c-1.46,-1.13 -1.09,-0.18 -1.26,-2.27 -6.76,0 -3.42,2.56 -7.08,3.53 -0.44,-1.63 -5.57,-11.15 -6.71,-12.49 -2.82,-3.32 -6.62,-7.22 -12.5,-7.22 -3.72,0 -4.41,3.74 -6.06,6.07 -3.45,4.87 -8.46,8.54 -12.2,13.08 -1.64,1.98 -1.5,1.1 -3.83,2.24 -1.97,0.96 -2.06,1.78 -3.69,2.87zm182.5 -46.51c1.93,-0.45 2.12,-1.06 4.04,-1.51l1.54 3.02c-1.19,0.63 -2.84,1.7 -4.06,2.03l-1.52 -3.54zm-118.3 -70.27l-8.59 0 0 8.6 -8.6 0 0 9.1 -8.59 0 0 7.07c-8.13,0.19 -25.24,6.93 -32.86,10.62 -2.94,1.43 -7.08,3.84 -10.11,4.55 -0.48,-5.67 -8.24,-12.31 -9.61,-18.2 3.11,-1.64 11.35,-7.35 14.16,-7.58 0.87,1.3 3.17,5.01 3.53,6.57 -2.22,1.18 -4.54,2.95 -7.07,3.54 0.31,3.8 3.29,5.38 4.04,8.59 1.78,-0.41 2.75,-1.22 4.07,-1.99 3.38,-1.97 8.52,-5.76 12.11,-6.6l-13.15 -23.26c-5.86,1.37 -16.8,9.24 -22.64,12.74 -2.44,1.46 -5.21,3.7 -8.19,3.95 0.3,3.65 3.22,4.76 3.53,8.59 -2.25,1.2 -4.28,2.33 -6.57,3.54 0.33,3.97 3.46,4.87 3.54,8.59 -2.7,0.23 -4.88,2.38 -7.08,3.54 1.36,2.57 3.37,5.17 4.05,8.09 -2.18,1.05 -4.16,2.47 -6.57,3.04 0,4.56 2.16,4.37 3.03,8.08 -3.79,1.02 -9.14,7.81 -11.74,11.01 -4.65,5.7 -15.07,15.93 -16.57,22.36 -5.04,-0.42 -12.61,-8.3 -18.2,-9.6 0.25,-3.05 2.06,-5.37 3.38,-7.74 1.31,-2.36 2.8,-4.83 4.2,-6.93 1.6,0.85 4.79,2.89 6.57,3.04 -0.18,2.18 -0.84,2.67 -1.8,4.26 -0.93,1.54 -1.32,2.45 -2.24,3.83 2.15,1.44 5.33,3.9 8.09,4.55 2.59,-3.88 8.75,-11.95 9.1,-16.18 -6.54,-0.55 -17.48,-11.99 -23.76,-12.13 -0.69,2.55 -2.77,5.23 -4.14,7.49 -2.94,4.85 -12.18,18.97 -12.55,23.34 2.99,0.7 3.59,2.34 6.58,3.04 -0.1,4.12 -3.23,4.85 -3.54,8.59 2.06,1.09 4.8,3.01 7.08,3.54 -0.95,4.06 -3.54,3.96 -3.54,8.59 2.72,0.64 3.94,2.82 6.57,3.04 -1.01,4.33 -3.21,5.02 -4.05,8.59 1.28,0.3 6.07,2.57 6.07,3.54 0,4.18 -4.1,15.44 -4.99,20.79 -0.63,3.81 -1.16,7.04 -1.62,11.02 -0.41,3.45 -0.97,8.43 -0.97,12.17l-20.73 0 0 -16.68 7.58 0c0,11.18 -1.69,9.1 9.61,9.1l0 -18.2 -26.8 0 0 33.87c0,3.1 6.65,2.03 8.6,2.03l0 8.08 8.59 0 0 8.6 9.1 0 0 8.59 7.08 0c2.67,11.48 5.53,22.58 10.61,32.87 1.47,2.99 3.76,6.69 4.56,10.1 -2.16,0.51 -6.46,3.63 -8.77,4.89 -2.54,1.38 -6.73,4.09 -9.43,4.72 -1.4,-2.64 -2.12,-4.21 -3.84,-6.78 -1.39,-2.06 -3.16,-4.34 -3.75,-6.87 0.87,-1.18 4.95,-3.61 6.58,-4.04 1.09,2.06 3,4.8 3.54,7.07 3.6,-0.3 5.92,-3.33 8.59,-4.04 -1.39,-5.98 -7.2,-10.94 -8.59,-16.18 -3.08,0.82 -19.74,11.28 -23.26,13.15 0.46,1.99 0.65,2.37 1.61,3.95 2.7,4.45 14.81,23.68 15.07,26.88 4.08,-0.33 4.86,-3.44 9.1,-3.53 0.53,2.26 2.05,4.51 3.04,6.57 3.83,-0.32 4.93,-3.24 8.59,-3.54 0.52,1.95 2.63,5.19 3.54,7.08 1.32,-0.7 2.72,-1.29 4.02,-2.05 1.37,-0.8 2.2,-1.56 4.07,-2 0.83,1.58 2.51,6.57 4.55,6.57 2.47,0 4.15,-2.38 6.57,-3.03 1.71,3.23 4.63,5.38 7.2,7.96 4.81,4.81 21.11,19.17 26.17,20.35 -0.13,1.48 -8.93,18.2 -10.11,18.2 -1.86,0 -12.17,-6.25 -14.16,-7.58 1.19,-2.26 2.39,-4.4 3.54,-6.57 1.31,0.3 6.55,3.23 8.09,4.04 0.91,-1.9 0.79,-2.24 2.02,-4.05 0.86,-1.26 1.61,-2.28 2.02,-4.04 -1.33,-0.89 -1.83,-1.64 -3.42,-2.64 -2.06,-1.29 -10.31,-6.01 -12.25,-6.46 -2.5,4.74 -12.54,19.46 -12.64,23.76 5.58,1.49 24.98,16.2 30.84,16.69 0.55,-2.05 2.33,-5.43 4.04,-6.58 2.8,0.66 4.28,2.89 7.08,3.54 1.55,-1.13 3.53,-4.87 4.05,-7.08 2.9,0.68 5.83,3.54 7.58,3.54 1.65,0 3.9,-4.87 4.04,-6.57 3.32,0.77 5.41,3.3 8.6,4.05 4.6,-8.69 2,-6.64 13.75,-3.65 10.98,2.79 22.12,5.16 33.77,5.16l0 20.73 -16.68 0 0 -7.58c11.17,0 9.1,1.69 9.1,-9.61l-18.2 0 0 26.8 35.39 0 0 -8.6c9.88,0 9.1,1.28 9.1,-8.59l8.08 0 0 -9.1 8.6 0 0 -7.08c19.14,-4.46 21.71,-6.19 37.7,-12.86 1.79,-0.74 3.77,-1.51 5.27,-2.31 0.44,1.63 3.67,7.04 4.77,8.89 1.5,2.54 4.6,6.44 4.84,9.31l-6.73 3.89c-2.03,1.2 -4.71,3.18 -6.92,3.7 -1.18,-0.87 -3.61,-4.95 -4.05,-6.58 2.22,-1.17 4.55,-2.95 7.08,-3.54 -0.26,-3.09 -2.68,-6.01 -4.04,-8.59 -2.33,0.54 -6.24,2.88 -8.12,4.02 -1.71,1.03 -6.42,4.14 -8.06,4.57l13.14 23.26c1.71,-0.4 2.69,-0.75 4.03,-1.53l11.43 -6.77c2.94,-1.81 12.28,-8.13 15.38,-8.38 -0.32,-3.84 -3.23,-4.94 -3.54,-8.6 2.57,-1.35 4.73,-2.47 7.08,-4.04 -0.98,-1.86 -3.87,-5.95 -4.04,-8.09 2.52,-0.59 4.96,-2.42 7.07,-3.54 -1.27,-2.65 -3.36,-5.17 -4.04,-8.09 1.48,-0.78 5.73,-3.18 7.08,-3.54 -0.22,-2.6 -2.92,-4.9 -3.54,-7.58 4.08,-1.09 8.85,-7.89 11.75,-11 1.58,-1.7 2.29,-2.43 3.8,-4.28l13.26 -18.09c3.18,0.74 9.98,5.5 13.24,7.49 1.86,1.13 2.61,1.57 4.96,2.12 -0.46,1.99 -2.8,5.23 -3.87,7.24 -1.41,2.65 -2.68,5.13 -4.22,7.42 -2.33,-1.24 -4.41,-2.09 -6.57,-3.54 1.12,-2.33 3.51,-5.8 4.05,-8.09l-4.02 -2.05c-1.42,-0.87 -2.39,-1.81 -4.58,-1.99 -2.24,4.24 -7.98,11.52 -8.09,16.18 1.57,0.41 4.23,2.22 5.59,3 2,1.15 3.73,2.03 5.83,3.28 1.98,1.17 3.6,1.87 5.47,3.11 1.89,1.26 3.58,2.68 6.37,2.74 1.1,-4.11 6.39,-10.89 8.6,-15.17 1.63,-3.16 8.01,-12.26 8.08,-15.67 -2.17,-0.58 -4.6,-2.49 -6.57,-3.54 0.22,-2.69 2.82,-4.5 3.54,-7.58 -1.14,-1.55 -4.88,-3.53 -7.08,-4.05 0.84,-3.58 3.36,-5.12 4.05,-8.09 -1.63,-1.08 -4.8,-3.34 -7.08,-3.53 0.9,-3.88 3.25,-5.21 4.04,-8.6 -10.21,-5.4 -5.37,-0.88 -0.88,-24.13 1.25,-6.43 2.4,-15.61 2.4,-23.39l20.73 0 0 16.68 -7.59 0c0,-11.17 1.7,-9.1 -9.6,-9.1l0 18.2 26.79 0 0 -33.87c0,-3.09 -6.64,-2.02 -8.59,-2.02l0 -8.09 -7.08 0c-3.37,0 -0.32,-3.89 -2.49,-9.64 -0.3,-0.81 -0.35,-1.19 -0.52,-2.01 -1.05,-5.22 -5,-18.34 -5.08,-21.72 -2.96,0.07 -4.27,1.11 -6.28,2.31 -2.08,1.25 -3.84,2.19 -5.85,3.25 -2,-8.55 -5.27,-16.61 -9.1,-24.26 -1.13,-2.25 -2.93,-5.48 -3.54,-8.09 5.79,-0.48 12.42,-9.13 18.2,-9.61 1.5,2.84 7.08,11.5 7.58,13.65 -0.86,1.18 -4.94,3.61 -6.57,4.05l-3.55 -7.07c-3.6,0.29 -5.92,3.32 -8.58,4.03 0.41,1.79 1.23,2.76 1.99,4.08 0.78,1.33 1.41,2.44 2.21,3.86 1.1,1.96 3.97,6.45 4.39,8.24 2.71,-0.72 21.14,-11.72 23.26,-13.14 -0.27,-3.17 -9.93,-18.5 -12.54,-22.85 -1.15,-1.92 -3.96,-5.75 -4.15,-7.99 -3.83,0.32 -4.93,3.23 -8.59,3.54 -1.21,-2.29 -2.35,-4.32 -3.54,-6.57 -3.97,0.33 -4.87,3.45 -8.59,3.54 -0.59,-2.53 -2.42,-4.97 -3.54,-7.08 -2.57,1.35 -5.17,3.36 -8.09,4.04 -0.36,-1.54 -0.79,-1.94 -1.52,-3.03 1.59,-0.84 2.9,-1.66 4.55,-2.53 -2.42,-4.57 -9.53,-11.27 -13.26,-15.04 -1.54,-1.55 -3.35,-3.61 -5.44,-4.17l-5.56 10.11c-3.15,-2.1 -7.62,-6.6 -11.05,-9.17 -4.02,-3 -8.08,-5.75 -12.21,-8.52 0.7,-3.02 3.21,-6.17 4.72,-8.93 5.33,-9.75 3.53,-10.75 12.57,-5.33 2.04,1.22 4.6,3.09 6.98,3.64 -0.25,3.01 -2.76,3.78 -3.04,7.08 -2.14,-0.18 -6.23,-3.06 -8.09,-4.05 -1.57,2.36 -3.82,5.5 -4.55,8.6 3.66,1.93 12.43,8 16.18,8.09 0.58,-2.16 4.82,-8.6 6.23,-10.97 1.61,-2.7 5.64,-8.56 5.91,-11.78 -4.17,-2.79 -26.64,-16.84 -30.84,-17.19l-3.21 6.48c-4.11,-0.01 -4.22,-3.1 -8.42,-3.45 -1.09,2.06 -3.01,4.8 -3.54,7.08 -1.54,-0.81 -6.78,-3.74 -8.09,-4.05 -1.14,1.71 -3.02,4.87 -3.54,7.08 -4.33,-1.01 -5.02,-3.21 -8.59,-4.04 -0.3,1.28 -2.57,6.06 -3.54,6.06 -1.93,0 -22.92,-7.58 -43.98,-7.58l0 -20.73 16.68 0 0 7.59c-10.02,0 -9.1,-2.14 -9.1,7.58 0,1.18 0.84,2.02 2.02,2.02l16.18 0 0 -26.79 -35.39 0 0 8.59z"/>
    <path class="fil5" d="M325.08 351.7l0 6.57c-4.36,0 -4.96,-0.34 -8.6,0.51l0 7.58c3.89,1.87 14.84,-1.95 19.21,-3.03l6.57 -2.02 -7.07 -13.65c-2.62,0.21 -10.11,1.63 -10.11,4.04z"/>
    <path class="fil5" d="M325.08 35.73c0,2 2,2.29 3.9,2.67 7.41,1.48 4.62,3.98 9.75,-5.7 3.23,0.75 4.62,3.25 8.08,3.54 1.03,-1.54 3.61,-5.72 4.05,-7.59 -4.46,-1.04 -7.89,-2.45 -12.43,-3.75 -4.37,-1.25 -8,-2.82 -13.35,-2.82l0 13.65z"/>
    <path class="fil5" d="M442.36 239.97c2.2,1.17 4.38,3.32 7.08,3.54 -0.3,3.66 -3.22,4.76 -3.54,8.6 1.65,1.1 5.21,3.34 7.59,3.54 0.16,-1.93 3.02,-9.28 3.86,-11.81 1.16,-3.55 2.71,-9.17 2.71,-13.47 -14.92,0 -15.26,-1.44 -16.32,3.9 -0.35,1.74 -1.23,3.89 -1.38,5.7z"/>
    <path class="fil5" d="M238.63 354.73c-3.17,-0.26 -5.19,-3.25 -8.6,-4.04 -0.67,2.53 -3.28,4.96 -3.54,8.09 5.68,0.47 15.75,6.57 25.28,6.57 0,-15.49 1.38,-15.14 -3.9,-16.32 -1.72,-0.39 -3.54,-1.19 -5.7,-1.37 -1.17,2.19 -3.32,4.37 -3.54,7.07z"/>
    <path class="fil5" d="M235.09 25.62c0.07,3.02 1.96,5.23 3.19,7.43 1.37,2.46 2.66,4.41 3.89,6.73 1.94,-0.17 3.11,-0.85 5.27,-1.3 5.24,-1.07 4.33,-0.72 4.33,-9.83l8.6 0 0 -8.59c-3.54,0 -9.77,1.68 -12.75,2.43l-12.53 3.13z"/>
    <path class="fil5" d="M398.76 310.63c0.79,2.97 3.38,4.84 3.67,8.21 -3.28,0.27 -3.44,2.3 -6.58,3.03 0.31,3.64 2.78,5.23 3.54,8.09 2.55,-0.68 18.39,-15.6 19.21,-18.7 -2.34,-1.24 -10.93,-6.57 -13.14,-7.08l-6.7 6.45z"/>
    <path class="fil5" d="M158.75 76.68c3.3,0.77 9.43,5.83 12.64,6.57l6.69 -6.45c-0.46,-1.56 -1.05,-2.7 -1.84,-3.95 -1,-1.57 -1.77,-1.9 -1.82,-4.26 2.27,-0.19 5.14,-2.51 7.08,-3.54 -0.41,-1.52 -3.12,-5.7 -4.05,-7.07 -1.96,0.45 -4.1,2.33 -5.44,3.65 -3.54,3.51 -13.16,10.56 -13.26,15.05z"/>
    <path class="fil5" d="M152.68 304.69c0.68,2.92 15.29,18.43 18.2,19.21l7.08 -13.15 -6.45 -6.69c-2.72,0.72 -4.61,2.94 -7.7,3.66 -1.2,-2.26 -2.33,-4.29 -3.54,-6.57 -3.26,0.27 -5.45,2.1 -7.59,3.54z"/>
    <path class="fil5" d="M321.03 161.61c0,4.67 -0.2,5.85 0.63,10.49 0.47,2.64 0.58,2.71 1.9,4.68 7.87,-0.65 1.7,0.81 8.34,-0.17 1.97,-0.3 0.46,-0.02 2.78,0.17 -0.08,-3.58 -4.8,-6.69 -7.68,-12.04 -1.14,-2.11 -1.49,-5.21 -1.84,-7.76 -0.27,-1.95 -0.34,-2.57 -0.64,-4.42 -0.3,-1.89 -0.17,-2.63 -1.47,-3.58 -1.13,4.84 -2.02,7.03 -2.02,12.63z"/>
    <path class="fil5" d="M186.05 106c1.97,0.53 12.49,10.68 15.02,12.79 3.47,2.9 3.07,3.8 9.25,7.94 1.3,-0.87 2.56,-1.8 3.03,-3.54 -1.23,-1.83 -10.23,-8.43 -12.76,-10.5 -2.48,-2.03 -11.01,-9.13 -13.53,-9.72 -0.63,2.35 -0.8,0.45 -1.01,3.03z"/>
    <path class="fil5" d="M201.32 89.42c0.13,2.69 9.61,13.65 11.74,16.37l7.87 9.82 3.66 -3.42 -7.82 -9.1c-1.39,-1.39 -1.64,-1.73 -2.84,-3.23 -1.71,-2.14 -3.91,-3.77 -5.76,-5.87 -1.67,-1.89 -3.39,-5 -5.94,-5.68l-0.91 1.11z"/>
    <path class="fil5" d="M237.11 68.59l5.5 16.75c2.94,8.13 2.11,10.27 5.26,11.42 1.86,0.67 2.34,1.11 4.41,1.16l-12.14 -30.34c-1.19,0.57 -1.84,0.44 -3.03,1.01z"/>
    <path class="fil5" d="M308.39 97.92c2.68,-0.23 2.5,-1.02 6.07,-1.02 0.24,-2.92 5.02,-16.42 6.51,-21.29 0.7,-2.29 2.03,-4.95 2.08,-7.52 -1.54,-0.04 -1.84,-0.23 -3.03,-0.51 -0.61,2.63 -1.67,4.97 -2.6,7.51l-6.15 15.09c-0.52,1.34 -0.88,2.52 -1.36,3.7 -0.5,1.25 -1.2,2.68 -1.52,4.04z"/>
    <path class="fil5" d="M231.55 103.98c3.22,-0.27 1.61,-1.74 4.55,-2.53 -0.53,-2.28 -11.04,-18.22 -13.29,-22.1 -1.62,-2.8 -1.74,-2.67 -4.41,-2.67 0,2.24 0.21,2.67 1.02,4.05 0.57,0.98 1.26,2.02 1.93,3.12 1.34,2.2 2.26,4.23 3.46,6.65 1.73,3.5 5.93,10.03 6.74,13.48z"/>
    <path class="fil5" d="M325.08 100.44c0,1.42 2.1,2.92 3.03,3.54 3,-4.49 6.76,-11.86 9.44,-16.85 0.77,-1.43 1.06,-2.27 1.9,-3.66 1.76,-2.93 4.3,-6.79 0.79,-6.79 -1.68,0 -2.23,2.5 -4.14,5.46l-11.02 18.3z"/>
    <path class="fil5" d="M238.63 123.19l-0.51 0.51c-1.11,4.17 -7.58,4.01 -7.58,22.75 3,-0.7 6.93,-4.71 7.74,-8.95l1.26 -13.7c-0.23,-1.09 -0.02,-0.5 -0.41,-1.11l-0.5 0.5z"/>
    <path class="fil5" d="M205.77 286.99c-1.37,-1.24 -0.41,0.11 -1.02,-1.52 4.86,0 5.49,2.22 10.12,0 0,-2.74 0.19,-3.95 -2.03,-4.55 -0.07,-0.03 -0.21,-0.12 -0.24,-0.04 -0.02,0.09 -0.21,-0.03 -0.25,-0.02l-2.13 0.42c-3.24,0.52 -9.85,0.09 -11.03,0.66 1.06,3.94 3.64,0.63 4.55,4.04 -1.89,-0.16 -1.63,-0.52 -3.26,-0.82 -1.74,-0.32 -2.26,0.11 -3.81,0.16 -1.22,0.04 -1.79,-0.66 -2.36,0.9 -0.7,1.92 3.03,4.44 3.55,4.69 2.01,0.95 2.02,0.52 3.24,0.06 3.23,-1.22 1.07,0.3 2.4,-1.69 1.29,-1.92 0.06,-1.7 2.27,-2.29z"/>
    <path class="fil5" d="M173.92 122.69l18.7 12.13c1.39,-0.93 2.37,-1.84 4.55,-2.02 -0.67,-2.51 -2.67,-2.61 -4.89,-3.7 -5.28,-2.59 -12.79,-7.76 -17.86,-8.94 -0.11,1.36 -0.23,1.38 -0.5,2.53z"/>
    <path class="fil5" d="M346.31 164.14c-3.3,-4.92 -8.62,-14.66 -13.15,-17.69 0,5.35 -0.48,10.12 2.44,12.73 1.52,1.37 8.16,4.75 10.71,4.96z"/>
    <path class="fil5" d="M362.49 108.03c0.6,0.82 2.14,1.93 3.03,2.52l7.99 -4.64c6.48,-4.16 5.91,-3.45 5.66,-6.48 -3,0.07 -9.44,4.19 -12.66,6.05 -1.63,0.93 -2.97,1.11 -4.02,2.55z"/>
    <path class="fil5" d="M375.13 122.18c0.78,1.17 1.69,2.29 2.52,3.54 3.28,-1.57 15.68,-4.9 15.68,-7.58 0,-2.24 -1.91,-1.27 -3.71,-0.71l-14.49 4.75z"/>
    <path class="fil5" d="M377.65 144.43c0.21,2.51 0.32,0.82 2.03,4.04 3.58,-1.9 15.67,-4.94 15.67,-7.58 0,-4.25 -11.45,3.02 -17.7,3.54z"/>
    <path class="fil5" d="M346.81 101.96c4.72,1.1 2.25,3.17 8.68,-5.48 1.35,-1.82 3.94,-5.39 4.47,-7.67l-1.63 -1.4c-1.45,0.94 -11.06,12.85 -11.52,14.55z"/>
   </g>
   <path class="fil5" d="M257.84 63.54c0,4.16 4.88,35.49 5.56,38.42 3.62,0.84 3.82,2.43 6.07,3.03 -0.07,-2.74 -1.47,-7.73 -2.13,-10.51l-6.47 -31.95c-1.27,0 -3.03,-0.25 -3.03,1.01z"/>
   <path class="fil5" d="M236.1 254.64l0 6.06c1.33,-0.35 1.31,-0.03 1.51,-1.53 0.18,-1.38 -1.48,-4.03 4.05,-4.03 -1.26,-1.09 -0.74,-1.01 -2.3,-0.83 -1.15,0.13 -1.65,0.33 -3.26,0.33z"/>
   <path class="fil5" d="M176.95 281.94l1.01 0c0.05,-2.23 0.51,-2.37 0.51,-5.06l-1.52 0 0 5.06z"/>
   <path class="fil5" d="M190.09 288l2.53 -5.56c-1.76,0.15 -2.53,0.39 -2.53,5.56z"/>
   <path class="fil5" d="M287.16 263.23c0.17,2.02 0.3,2.14 1.52,3.03 -0.23,-0.97 -0.15,-0.84 -0.48,-1.54l-1.04 -1.49z"/>
   <path class="fil5" d="M293.73 297.1l0 -1.51 -0.5 0c0,2.67 0,0.75 0.5,1.51z"/>
   <path class="fil5" d="M242.17 226.33c-0.35,-1.45 0.07,-0.77 -1.02,-1.52 0.36,1.48 -0.06,0.73 1.02,1.52z"/>
   <polygon class="fil5" points="307.89,282.95 308.39,282.95 307.97,282.36 "/>
   <path class="fil5" d="M303.84 267.27l0.15 -0.15c-0.01,0.01 -0.2,0.1 -0.15,0.15z"/>
   <path class="fil5" d="M284.63 263.23l0.15 -0.15c-0.01,0.01 -0.2,0.1 -0.15,0.15z"/>
   <polygon class="fil5" points="311.93,274.35 311.65,273.27 "/>
   <polygon class="fil5" points="242.67,227.34 242.17,226.33 "/>
   <polygon class="fil5" points="237.11,222.28 236.6,221.27 "/>
  </g>
 </g>
</svg>
