<?xml version="1.0" encoding="UTF-8"?>
<!DOCTYPE svg PUBLIC "-//W3C//DTD SVG 1.1//EN" "http://www.w3.org/Graphics/SVG/1.1/DTD/svg11.dtd">
<!-- Creator: CorelDRAW 2017 -->
<svg xmlns="http://www.w3.org/2000/svg" xml:space="preserve" width="21.1666mm" height="21.1666mm" version="1.1" style="shape-rendering:geometricPrecision; text-rendering:geometricPrecision; image-rendering:optimizeQuality; fill-rule:evenodd; clip-rule:evenodd"
viewBox="0 0 2116.66 2116.66"
 xmlns:xlink="http://www.w3.org/1999/xlink">
 <defs>
  <style type="text/css">
   <![CDATA[
    .fil0 {fill:#2B2A29}
    .fil1 {fill:#AA1018}
   ]]>
  </style>
 </defs>
 <g id="Capa_x0020_1">
  <metadata id="CorelCorpID_0Corel-Layer"/>
  <path class="fil0" d="M1022.19 1423.48c-3.28,4.92 -23.79,31.18 -44.3,49.23 -38.56,33.64 -77.94,46.76 -95.99,46.76 -27.08,0 -34.46,-26.25 -34.46,-56.61 0,-31.17 7.38,-69.73 12.31,-98.45 36.92,-11.49 67.27,-27.9 67.27,-29.54 0,-1.64 0,-2.46 -1.64,-2.46 -2.46,0 -35.28,13.13 -63.17,18.05 13.94,-74.66 41.84,-165.73 64.81,-221.52 1.64,-5.74 9.85,-23.79 9.85,-31.17 0,-2.46 -0.82,-4.1 -2.46,-4.1 -1.64,0 -4.11,0.82 -9.03,3.28 -22.97,10.66 -25.43,13.12 -54.97,56.61 -33.64,49.22 -127.17,159.98 -186.24,214.95 -96.81,90.25 -168.19,160.81 -265.82,219.88 -0.82,0.82 -0.82,1.64 -0.82,3.28 0,7.38 1.64,18.87 7.38,18.87 0.82,0 2.46,0 4.11,-1.64 95.17,-65.63 184.59,-153.42 265.82,-228.08 9.02,0.82 17.23,0.82 25.43,0.82 44.31,0 82.87,-4.92 111.58,-10.67 -5.74,32 -15.59,77.12 -15.59,114.86 0,36.92 6.57,56.62 36.92,56.62 59.9,0 129.63,-59.9 173.11,-117.33 0.83,-1.64 0.83,-1.64 0.83,-2.46 0,-0.82 -0.83,-1.64 -1.65,-1.64 -0.82,0 -1.64,0 -3.28,2.46zm-312.58 -61.53c53.32,-53.33 136.19,-151.78 183.77,-226.44 4.93,-7.39 9.85,-10.67 11.49,-10.67 0.82,0 0.82,0.82 0.82,2.46 0,4.93 -4.92,18.87 -11.49,37.74 -19.69,53.33 -44.3,128.81 -58.25,190.34 -31.17,5.75 -49.22,7.39 -75.48,7.39 -13.94,0 -29.53,0 -50.86,-0.82zm297.81 1.64c13.13,-9.03 27.08,-18.87 36.1,-18.87 6.57,0 11.49,5.74 11.49,11.49 0,13.12 -16.41,38.56 -32.82,67.27 -17.23,29.54 -40.2,79.58 -50.04,90.25 -2.46,2.46 -2.46,5.74 -2.46,7.38 0,5.75 5.74,7.39 11.48,7.39 6.56,0 14.77,-2.46 17.23,-5.75 3.28,-4.1 41.02,-86.96 58.25,-105.83 11.49,-12.31 42.66,-43.49 58.25,-43.49 4.93,0 6.57,5.75 6.57,10.67 0,13.95 -11.49,34.46 -13.95,40.2 -1.64,4.1 -2.46,6.57 -3.28,8.21 -3.28,4.1 -7.39,0.82 -7.39,4.92 0,2.46 -0.82,4.1 -0.82,5.74 0,1.64 1.64,2.46 2.46,2.46 14.77,0 27.9,-12.3 35.28,-21.33 16.41,-19.69 50.87,-47.58 70.56,-52.51 4.1,-0.82 7.38,-1.64 9.85,-1.64 6.56,0 9.84,3.28 9.84,9.03 0,7.38 -5.74,18.87 -13.95,32.82 -15.58,26.25 -41.02,66.45 -55.79,111.58 -6.56,19.69 -9.84,45.94 -9.84,64.81 0,50.87 34.46,86.15 79.58,86.15 15.59,0 30.36,-2.47 51.69,-13.95 38.56,-20.51 64.81,-41.02 95.17,-81.23 0.82,-1.64 0.82,-1.64 0.82,-2.46 0,-0.82 -0.82,-1.64 -1.64,-1.64 -0.82,0 -1.64,0 -3.28,2.46 -3.28,4.93 -18.87,24.62 -40.2,43.49 -24.62,21.33 -64.82,44.3 -91.07,44.3 -45.95,0 -64,-45.12 -64,-82.04 0,-21.33 4.93,-42.67 11.49,-61.54 10.66,-31.17 34.46,-79.58 61.53,-114.86 12.31,-16.41 17.23,-29.53 17.23,-39.38 0,-12.31 -8.2,-18.87 -21.33,-18.87 -6.56,0 -14.77,1.64 -23.79,4.92 -22.15,9.03 -57.43,34.46 -76.3,51.69 -1.65,1.64 -1.65,1.64 -2.47,1.64 -0.82,0 -0.82,-0.82 0,-1.64 4.93,-8.2 9.03,-21.33 9.03,-32.82 0,-11.48 -3.28,-21.33 -12.31,-21.33 -25.43,0 -53.32,27.9 -70.55,45.13 -1.64,1.64 -2.47,1.64 -3.29,1.64 0,-0.82 0,-1.64 1.65,-4.1 5.74,-9.03 15.58,-25.44 15.58,-38.57 0,-13.94 -8.2,-20.51 -24.61,-20.51 -11.49,0 -26.25,9.85 -36.1,16.41 -4.92,3.28 -14.77,9.85 -14.77,11.49 0,0.82 0,1.64 1.64,1.64 0.82,0 1.64,0 3.28,-0.82l0 0zm488.17 -12.31c-4.11,2.46 -25.44,18.05 -32.82,22.15 -10.67,6.57 -23.8,13.95 -36.1,13.95 -2.46,0 -6.57,0 -8.21,-0.82 1.64,-5.74 2.46,-12.3 2.46,-18.87 0,-20.51 -4.1,-31.18 -9.84,-43.48 -4.92,-9.03 -9.03,-10.67 -13.13,-10.67 -14.76,0 -20.51,20.51 -21.33,30.36 -71.38,1.64 -134.55,77.94 -134.55,146.86 0,28.71 20.51,41.84 45.12,41.84 28.72,0 57.44,-18.05 82.87,-50.87 20.51,-26.25 39.38,-60.71 46.76,-88.6 15.59,-0.82 27.9,-4.93 39.38,-10.67 10.67,-5.74 19.7,-12.31 29.54,-18.87 4.92,-3.28 14.77,-9.85 14.77,-11.49 0,-0.82 -0.82,-1.64 -1.64,-1.64 -0.82,0 -1.64,0 -3.28,0.82zm-86.15 41.03c-5.74,21.33 -17.23,48.4 -38.56,77.11 -26.25,35.28 -54.97,53.33 -74.66,53.33 -18.05,0 -23.79,-17.22 -23.79,-29.53 0,-15.59 5.74,-35.28 12.3,-54.15 13.13,-36.1 45.13,-85.33 91.89,-85.33 0,5.75 0.82,11.49 2.46,15.59 6.57,13.95 18.05,20.51 30.36,22.98l0 0zm2.46 -9.03c-6.56,-4.1 -13.13,-12.31 -13.13,-22.97 0.82,0 1.64,0.82 2.46,0.82 0.82,0 4.93,-2.46 4.93,-4.92 0,-3.29 -4.11,-7.39 -7.39,-8.21 0,-4.92 1.64,-18.05 6.57,-18.05 4.92,0 9.02,27.9 9.02,32.82 0,6.56 -0.82,13.13 -2.46,20.51zm117.32 -9.02c-4.92,4.92 -22.97,38.56 -28.71,49.22 -12.31,22.15 -24.61,44.3 -36.1,67.28 -8.21,16.41 -15.59,27.89 -15.59,33.64 0,7.38 9.85,8.2 14.77,8.2 7.38,0 7.38,-2.46 16.41,-18.87 11.48,-21.33 54.15,-95.99 67.27,-115.68 6.57,-9.85 21.33,-34.46 35.28,-41.02 8.21,-4.11 24.62,-9.85 36.92,-9.85 9.03,0 17.23,4.1 17.23,12.31 0,3.28 -0.82,7.38 -3.28,9.84 -3.28,4.1 -4.92,7.39 -4.92,8.21 0,0.82 0,0.82 0.82,0.82 0.82,0 2.46,-0.82 4.92,-2.46l18.05 -12.31c4.92,-3.28 7.38,-4.92 7.38,-7.38 0,-11.49 -22.97,-15.59 -36.1,-15.59 -24.61,0 -45.12,5.74 -63.99,13.94 -15.59,6.57 -25.43,13.95 -30.36,19.7z"/>
  <path class="fil0" d="M340.16 1185.95c0,15.06 -7.53,27.21 -22.59,36.44 -13.11,8.26 -27.69,12.38 -43.72,12.38 -12.63,0 -23.32,-4.61 -32.06,-13.84 -8.74,-9.23 -13.12,-20.16 -13.12,-32.79 0,-11.66 4.01,-23.68 12.03,-36.07 8.01,-12.39 17.36,-18.58 28.05,-18.58 9.23,0 21.13,5.59 35.71,16.76 17.97,14.09 29.39,22.1 34.24,24.04 0.97,3.89 1.46,7.78 1.46,11.66zm37.16 175.73c0,27.81 -26.23,57.93 -78.69,90.6 -9.23,5.35 -57.81,30.61 -145.74,75.91 -52.46,26.83 -78.7,47.24 -78.7,61.33 0,13.23 11.42,23.44 34.25,30.72 16.52,5.34 33.28,8.02 50.28,8.02 24.29,0 47.97,-5.1 71.05,-15.43 23.07,-10.2 40.92,-24.89 53.55,-43.96 6.32,-13.12 12.63,-26.35 18.95,-39.59 9.72,-20.04 17.97,-30 24.77,-30 7.78,0 13.97,3.52 18.58,10.57 4.62,7.04 6.93,14.69 6.93,22.95 0,45.18 -19.92,81.85 -59.75,110.03 -35.95,24.78 -77.49,37.16 -124.61,37.16 -65.09,0 -113.67,-18.94 -145.73,-56.83 -11.17,-13.12 -16.76,-25.26 -16.76,-36.44 0,-26.23 26.23,-55.13 78.7,-86.71 48.57,-24.77 97.15,-49.79 145.73,-75.05 52.47,-27.21 78.7,-49.07 78.7,-65.58 0,-9.72 -5.35,-17.49 -16.03,-23.32 -8.26,-4.37 -17.74,-6.56 -28.42,-6.56 -23.32,0 -48.09,8.26 -74.33,24.78 -1.45,0.97 -3.88,2.42 -7.28,4.37l-0.73 -1.46c5.83,-19.92 17.73,-35.7 35.7,-47.36 17.98,-11.66 37.65,-17.49 59.03,-17.49 21.37,0 42.75,6.07 64.12,18.22 24.29,14.21 36.43,31.21 36.43,51.12z"/>
  <path class="fil0" d="M2110.96 1294.6c0,26.12 -26.12,54.9 -78.35,86.33 -48.36,24.67 -96.96,49.33 -145.81,74 -52.23,27.08 -78.35,49.08 -78.35,66.01 0,9.67 5.32,17.41 15.96,23.22 8.22,4.35 17.65,6.52 28.3,6.52 15.95,0 30.34,-3.14 43.16,-9.43 12.81,-6.28 25.51,-12.81 38.08,-19.58l0.73 1.45c-6.29,19.83 -18.38,35.54 -36.27,47.15 -17.9,11.61 -37.48,17.41 -58.76,17.41 -21.28,0 -42.32,-6.04 -63.12,-18.13 -24.18,-13.67 -36.27,-30.35 -36.27,-50.18 0,-28.17 26.12,-58.16 78.35,-90.2 7.74,-4.83 56.1,-29.74 145.09,-74.84 52.23,-26.72 78.35,-47.27 78.35,-61.78 0,-13.18 -11.13,-23.34 -33.37,-30.59 -16.45,-5.32 -33.13,-7.98 -50.06,-7.98 -24.18,0 -47.4,4.84 -69.64,14.63 -24.18,10.64 -42.32,25.51 -54.41,44.49 -6.29,13.06 -12.57,26.24 -18.86,39.42 -9.68,19.95 -17.9,29.86 -24.67,29.86 -7.74,0 -14.02,-3.62 -18.86,-10.88 -4.83,-7.25 -7.25,-14.99 -7.25,-23.21 0,-44.98 20.07,-81.25 60.21,-108.82 35.3,-24.66 76.41,-37 123.32,-37 64.81,0 113.41,18.86 145.82,56.59 11.12,13.06 16.68,24.9 16.68,35.54zm-223.43 399c0,11.6 -3.63,22.97 -10.89,34.09 -7.73,13.06 -17.16,19.59 -28.29,19.59 -9.19,0 -21.04,-5.56 -35.54,-16.69 -18.38,-14.02 -29.75,-22 -34.1,-23.94 -0.97,-3.86 -1.45,-7.74 -1.45,-11.6 0,-15 7.49,-27.09 22.49,-36.28 12.57,-8.22 26.84,-12.33 42.8,-12.33 12.57,0 23.21,4.72 31.92,14.15 8.7,9.43 13.06,20.43 13.06,33.01z"/>
  <path class="fil1" d="M199.73 1712.51c12.93,0 24.62,4.86 35.13,14.64 9.95,10.51 14.92,22.3 14.92,35.43 0,18.74 -8.9,33.52 -26.67,44.27 -7.66,3.86 -15.12,5.81 -22.34,5.81l-2.95 0c-13.44,0 -25.96,-6.31 -37.59,-18.98 -7.08,-10.04 -10.61,-20.42 -10.61,-31.1 0,-16.25 7.19,-29.92 21.56,-40.94 9.17,-6.08 18.71,-9.13 28.55,-9.13zm-35.4 49l0 1.74c0,13.37 6.45,23.72 19.35,31.07 4.67,2.42 9.64,3.63 14.95,3.63l2.14 0c13.84,0 24.42,-7.19 31.74,-21.53 1.72,-4.5 2.55,-8.9 2.55,-13.17l0 -1.74c0,-11.15 -5.1,-20.52 -15.31,-28.11 -5.98,-4.14 -12.8,-6.18 -20.45,-6.18 -15.12,0 -26.2,7.89 -33.19,23.67 -1.17,3.87 -1.78,7.39 -1.78,10.62zm200.01 -49.81c19.41,0 34.49,9.24 45.27,27.67 3.67,7.23 5.51,15.05 5.51,23.51l0 1.88c-0.87,4.94 -3.19,7.39 -6.98,7.39l-77.66 0c2.89,9.81 9.14,17.34 18.71,22.54 5.64,2.18 10.92,3.26 15.82,3.26 5.71,0 12.26,-1.85 19.58,-5.51l2.19 0c4.39,0.84 6.58,3.09 6.58,6.68l0 1.08c0,6.01 -8.84,10.18 -26.47,12.46l-2.55 0c-18.1,0 -32.61,-8.46 -43.5,-25.43 -4.39,-7.99 -6.58,-16.35 -6.58,-25.12 0,-18.44 8.7,-33.15 26.17,-44.1 8.46,-4.19 16.42,-6.31 23.91,-6.31zm-35.03 46.15l70.73 0c0,-5.07 -2.95,-11.59 -8.83,-19.62 -8.1,-7.62 -16.06,-11.42 -23.92,-11.42l-4.03 0c-11.82,0 -21.53,5.78 -29.15,17.33 -2.62,4.61 -4.23,9.17 -4.8,13.71zm111.34 -45.95c4.63,1.18 6.95,3.29 6.95,6.31l0.07 8.1c10.61,-9.61 22.23,-14.41 34.83,-14.41 13.87,0 26.13,5.78 36.81,17.33 7.82,9.67 11.72,19.82 11.72,30.43l0 46.79c0,3.22 -2.32,5.3 -6.95,6.21l-0.41 0c-4.63,-0.84 -6.95,-3.19 -6.95,-6.99l0 -41.14c0,-18.47 -7.96,-30.6 -23.84,-36.44 -3.9,-0.97 -7.36,-1.48 -10.38,-1.48l-1.08 0c-13.33,0 -23.67,6.89 -30.96,20.69 -1.92,4.2 -2.86,10.92 -2.86,20.15l0 38.63c0,3.59 -2.32,5.81 -6.95,6.58l-0.4 0c-3.73,0 -6.05,-2.45 -6.96,-7.39l0 -84.9c0.61,-5.65 3.03,-8.47 7.36,-8.47zm157.35 0.2c18.98,0 34.03,9.3 45.11,27.91 3.39,7.56 5.1,15.38 5.1,23.51l0 42.56c0,3.59 -2.31,5.81 -6.95,6.58l-0.4 0c-3.13,0 -5.44,-1.85 -6.95,-5.51l0 -0.4 0.4 -9.14 0 -0.4c-10.82,10.31 -22.47,15.45 -34.93,15.45l-2.86 0c-17.02,0 -31.27,-8.56 -42.65,-25.66 -4.13,-8.26 -6.21,-16.56 -6.21,-24.96 0,-18.67 9.17,-33.48 27.5,-44.43 7.83,-3.66 15.42,-5.51 22.84,-5.51zm-36.04 49.54l0 1.08c0,14.64 7.36,25.66 22.04,33.08 4.67,1.71 8.83,2.55 12.52,2.55l2.82 0c12.23,0 22.31,-6.11 30.23,-18.3 2.89,-5.78 4.34,-11.29 4.34,-16.53l0 -1.48c0,-14.1 -6.96,-24.92 -20.86,-32.37 -4.87,-2.18 -9.88,-3.26 -15.05,-3.26l-0.4 0c-14.85,0 -26,7.73 -33.45,23.14 -1.45,4.77 -2.19,8.8 -2.19,12.09zm112.89 -47.93c4.6,1.18 6.92,3.23 6.92,6.12l-0.04 3.66c8,-6.52 16.7,-9.78 26.07,-9.78 12.46,0 23.41,5.78 32.84,17.33 3.9,-7.15 11.83,-12.56 23.85,-16.25l8.26 -1.08c15.12,0 27.07,7.23 35.87,21.63 2.89,6.05 4.34,11.83 4.34,17.33l0 53.88c0,3.15 -2.32,5.2 -6.93,6.11l-0.26 0c-4.6,-0.77 -6.92,-3.09 -6.92,-6.89l0 -52.36c0,-11.85 -6.28,-20.05 -18.81,-24.58l-5 -0.61 -3.66 0c-9.98,0 -17.57,5.78 -22.84,17.3 -0.71,2.55 -1.08,4.74 -1.08,6.48l0 53.47c-0.84,4.8 -3.12,7.19 -6.82,7.19l-0.37 0c-4.6,-0.77 -6.91,-2.96 -6.91,-6.48l0 -44.44c0,-12.32 -1.69,-20.02 -5.01,-23.1 -5.17,-6.96 -11.92,-10.42 -20.25,-10.42l-1.08 0c-11.45,0 -19.51,6.12 -24.18,18.38 -0.7,2.95 -1.07,6.81 -1.07,11.62l0 47.96c0,3.52 -2.32,5.71 -6.92,6.48l-0.27 0c-3.7,0 -6.01,-2.39 -6.92,-7.19l0 -83.49c0.54,-5.51 2.92,-8.27 7.19,-8.27zm205.31 -1.2c12.93,0 24.62,4.86 35.13,14.64 9.94,10.51 14.92,22.3 14.92,35.43 0,18.74 -8.91,33.52 -26.67,44.27 -7.66,3.86 -15.12,5.81 -22.34,5.81l-2.95 0c-13.44,0 -25.97,-6.31 -37.59,-18.98 -7.08,-10.04 -10.61,-20.42 -10.61,-31.1 0,-16.25 7.19,-29.92 21.56,-40.94 9.17,-6.08 18.71,-9.13 28.55,-9.13zm-35.4 49l0 1.74c0,13.37 6.45,23.72 19.35,31.07 4.66,2.42 9.64,3.63 14.94,3.63l2.15 0c13.84,0 24.42,-7.19 31.74,-21.53 1.71,-4.5 2.55,-8.9 2.55,-13.17l0 -1.74c0,-11.15 -5.1,-20.52 -15.31,-28.11 -5.98,-4.14 -12.8,-6.18 -20.46,-6.18 -15.11,0 -26.19,7.89 -33.18,23.67 -1.17,3.87 -1.78,7.39 -1.78,10.62zm113.66 -50.41c4.73,1.17 7.12,3.29 7.12,6.31l0 8.19c10.81,-9.67 22.4,-14.5 34.73,-14.5 6.61,0 13.66,1.61 21.16,4.83 1.98,2.05 2.95,4.03 2.95,5.95l0 0.37c-0.8,4.66 -3.12,7.01 -6.98,7.01l-0.41 0c-6.75,-2.18 -11.82,-3.25 -15.25,-3.25l-2.15 0c-14.51,0 -25.12,7.52 -31.9,22.53 -1.45,4.03 -2.15,8.57 -2.15,13.71l0 43.73c0,3.66 -2.39,5.91 -7.12,6.68l-0.37 0c-3.76,0 -6.11,-2.45 -7.02,-7.39l0 -85.61c0.6,-5.71 3.05,-8.56 7.39,-8.56zm128.53 1c18.98,0 34.03,9.3 45.11,27.91 3.39,7.56 5.1,15.38 5.1,23.51l0 42.56c0,3.59 -2.31,5.81 -6.95,6.58l-0.4 0c-3.13,0 -5.44,-1.85 -6.95,-5.51l0 -0.4 0.4 -9.14 0 -0.4c-10.81,10.31 -22.47,15.45 -34.93,15.45l-2.85 0c-17.03,0 -31.28,-8.56 -42.66,-25.66 -4.13,-8.26 -6.21,-16.56 -6.21,-24.96 0,-18.67 9.17,-33.48 27.5,-44.43 7.83,-3.66 15.42,-5.51 22.84,-5.51zm-36.04 49.54l0 1.08c0,14.64 7.36,25.66 22.04,33.08 4.67,1.71 8.83,2.55 12.53,2.55l2.82 0c12.22,0 22.3,-6.11 30.22,-18.3 2.89,-5.78 4.34,-11.29 4.34,-16.53l0 -1.48c0,-14.1 -6.96,-24.92 -20.86,-32.37 -4.87,-2.18 -9.88,-3.26 -15.05,-3.26l-0.4 0c-14.85,0 -26,7.73 -33.45,23.14 -1.45,4.77 -2.19,8.8 -2.19,12.09zm112.89 -47.93c4.6,1.18 6.92,3.23 6.92,6.12l-0.04 3.66c8,-6.52 16.7,-9.78 26.07,-9.78 12.46,0 23.41,5.78 32.84,17.33 3.9,-7.15 11.83,-12.56 23.85,-16.25l8.26 -1.08c15.12,0 27.07,7.23 35.87,21.63 2.89,6.05 4.34,11.83 4.34,17.33l0 53.88c0,3.15 -2.32,5.2 -6.92,6.11l-0.27 0c-4.6,-0.77 -6.92,-3.09 -6.92,-6.89l0 -52.36c0,-11.85 -6.28,-20.05 -18.81,-24.58l-5 -0.61 -3.66 0c-9.98,0 -17.57,5.78 -22.84,17.3 -0.71,2.55 -1.08,4.74 -1.08,6.48l0 53.47c-0.84,4.8 -3.12,7.19 -6.82,7.19l-0.37 0c-4.6,-0.77 -6.91,-2.96 -6.91,-6.48l0 -44.44c0,-12.32 -1.68,-20.02 -5.01,-23.1 -5.17,-6.96 -11.92,-10.42 -20.25,-10.42l-1.08 0c-11.45,0 -19.51,6.12 -24.18,18.38 -0.7,2.95 -1.07,6.81 -1.07,11.62l0 47.96c0,3.52 -2.32,5.71 -6.92,6.48l-0.27 0c-3.69,0 -6.01,-2.39 -6.92,-7.19l0 -83.49c0.54,-5.51 2.92,-8.27 7.19,-8.27zm168.84 -27.6c4.73,1.17 7.12,3.29 7.12,6.28l0 2.18c0,3.46 -2.59,5.58 -7.8,6.28 -3.35,0 -5.6,-2.45 -6.71,-7.35 0.97,-4.94 3.46,-7.39 7.39,-7.39zm0 25.19c4.73,1.21 7.12,3.29 7.12,6.31l0 88.37c0,3.66 -2.39,5.91 -7.12,6.68l-0.37 0c-3.77,0 -6.12,-2.45 -7.02,-7.39l0 -85.51c0.6,-5.64 3.05,-8.46 7.39,-8.46zm78.38 0.4c19.42,0 34.5,9.24 45.28,27.67 3.66,7.23 5.51,15.05 5.51,23.51l0 1.88c-0.87,4.94 -3.19,7.39 -6.99,7.39l-77.65 0c2.89,9.81 9.14,17.34 18.71,22.54 5.64,2.18 10.91,3.26 15.82,3.26 5.71,0 12.26,-1.85 19.58,-5.51l2.18 0c4.4,0.84 6.58,3.09 6.58,6.68l0 1.08c0,6.01 -8.83,10.18 -26.46,12.46l-2.56 0c-18.1,0 -32.61,-8.46 -43.49,-25.43 -4.4,-7.99 -6.58,-16.35 -6.58,-25.12 0,-18.44 8.7,-33.15 26.16,-44.1 8.47,-4.19 16.43,-6.31 23.91,-6.31zm-35.02 46.15l70.73 0c0,-5.07 -2.96,-11.59 -8.84,-19.62 -8.09,-7.62 -16.05,-11.42 -23.91,-11.42l-4.03 0c-11.82,0 -21.53,5.78 -29.15,17.33 -2.62,4.61 -4.23,9.17 -4.8,13.71zm111.33 -45.95c4.64,1.18 6.96,3.29 6.96,6.31l0.06 8.1c10.62,-9.61 22.24,-14.41 34.83,-14.41 13.87,0 26.14,5.78 36.81,17.33 7.83,9.67 11.73,19.82 11.73,30.43l0 46.79c0,3.22 -2.32,5.3 -6.96,6.21l-0.4 0c-4.63,-0.84 -6.95,-3.19 -6.95,-6.99l0 -41.14c0,-18.47 -7.96,-30.6 -23.85,-36.44 -3.89,-0.97 -7.35,-1.48 -10.38,-1.48l-1.07 0c-13.34,0 -23.68,6.89 -30.97,20.69 -1.91,4.2 -2.85,10.92 -2.85,20.15l0 38.63c0,3.59 -2.32,5.81 -6.96,6.58l-0.4 0c-3.73,0 -6.04,-2.45 -6.95,-7.39l0 -84.9c0.6,-5.65 3.02,-8.47 7.35,-8.47zm129.35 -36.07l1.37 0c4.34,0.91 6.52,2.85 6.52,5.81l0 32.48 14.85 0 3.25 -0.41c3.36,0 5.61,2.46 6.79,7.29 0,3.3 -2.02,5.71 -6.08,7.22l-5.44 -0.4 -13.37 0 0 53.03c0,9.27 3.02,14.95 9.07,17.03l8.26 0.71 4.03 0c3.12,0 5.17,2.28 6.08,6.88l0 0.3c-0.77,4.61 -3.06,6.89 -6.88,6.89l-7.56 0c-11.49,0 -20.02,-6.28 -25.63,-18.81 -0.97,-3.09 -1.48,-6.68 -1.48,-10.81l0 -55.22 -7.18 0 -5.81 0.4c-4.07,-1.44 -6.08,-3.86 -6.08,-7.18 0.77,-4.6 2.95,-6.92 6.48,-6.92l0 -0.41 3.63 0.41 8.96 0 0 -30.33c0.61,-5.31 2.66,-7.96 6.22,-7.96zm96.66 36.68c12.93,0 24.62,4.86 35.13,14.64 9.94,10.51 14.91,22.3 14.91,35.43 0,18.74 -8.9,33.52 -26.66,44.27 -7.66,3.86 -15.12,5.81 -22.34,5.81l-2.96 0c-13.43,0 -25.96,-6.31 -37.58,-18.98 -7.09,-10.04 -10.61,-20.42 -10.61,-31.1 0,-16.25 7.19,-29.92 21.56,-40.94 9.17,-6.08 18.71,-9.13 28.55,-9.13zm-35.4 49l0 1.74c0,13.37 6.45,23.72 19.35,31.07 4.66,2.42 9.63,3.63 14.94,3.63l2.15 0c13.84,0 24.42,-7.19 31.74,-21.53 1.71,-4.5 2.55,-8.9 2.55,-13.17l0 -1.74c0,-11.15 -5.1,-20.52 -15.31,-28.11 -5.98,-4.14 -12.8,-6.18 -20.46,-6.18 -15.11,0 -26.19,7.89 -33.18,23.67 -1.18,3.87 -1.78,7.39 -1.78,10.62z"/>
  <path class="fil1" d="M806.46 671.48c0,67.95 6.85,117.38 43.62,172.29 -14.87,17.11 -50.76,100.96 -52.34,119.95 -8.07,-0.67 -41.44,-18.6 -52.36,-23.98l-79.22 -36.36c-58.64,-29.72 -123.95,-52.67 -165.98,-106.64 -35.12,-45.09 -61.05,-118.34 -27.03,-168.51 40.79,-60.17 144.68,-4.85 163.2,30.16 12.36,-6.54 25.84,-13.53 37.52,-21.36 23.52,-15.77 15.12,-6.56 22.64,-36.25 25.31,-99.92 130.05,-175.75 188.47,-88.51 -19.19,10.16 -42.18,45.32 -53.06,64.71 -11.08,19.73 -25.46,64.66 -25.46,94.5zm-405.65 18.39l0 -9.6c1.27,-38.44 17.65,-72.94 53.89,-90.13 74.29,-35.24 177.72,18.67 196.92,20.27 2.96,-35.61 27.37,-96.33 51.76,-120.53 39.37,-39.05 78.49,-49.58 133.62,-49.58 33.93,0 69.46,17.08 87.23,43.62 10.08,-2.35 15.88,-5.91 26.15,-8.75 75.89,-21.03 162.77,-14.19 232.78,13.71 28.17,11.23 56.47,25.64 77.51,46.8 7.25,7.29 13.04,14.73 21.23,20.21l-18.08 23.35c-5,6.64 -11.43,18.5 -16.81,22.45 -4.25,-18.25 -20.55,-31.19 -33.26,-43.08 -25.79,-24.14 -68.62,-41.36 -103.96,-48.7 -141.52,-29.41 -264.07,24.64 -264.07,187.74 0,102.15 46.43,165.04 108.47,227.39 18.5,18.59 39.74,34.57 60.14,51.08l46.75 38.31c52.81,49.1 74.81,76.09 104.3,146.51l33.65 77.57 121.6 -140.1c19.26,-21.88 44.3,-44.34 65.41,-65.45 18.54,-18.54 62.44,-62.24 78.73,-82.65 14.15,-17.72 32.12,-33.84 46.15,-52 19.01,-24.62 38.79,-47.39 57.93,-72.92 83.18,-110.97 99.66,-263.97 -4.73,-368.53l-11.27 -10.54c-75.95,-67.67 -187.24,-59.45 -262.92,2.01 -12.34,10.02 -47.92,39.09 -51.65,53.04 -7.19,-1.68 -26.28,-15.07 -34.89,-19.63 17.43,-26.03 38.64,-48.37 63.24,-67.61 8.92,-6.98 14.75,-11.77 25.47,-18.15 34.26,-20.41 78.3,-40.73 131.56,-40.73 50.75,0 111.58,19.23 155.59,42.87 41.62,22.36 77.63,52.39 101.12,95.16 24.38,44.39 28.99,81.62 28.99,132.4 0,68.76 -29.96,130.28 -60.32,186.12l-57.94 81.64c-57.54,66.03 -68.61,68.4 -122.19,122.07 -12.45,12.48 -23.6,21.41 -35.98,33.81 -12.43,12.44 -23.55,21.37 -35.99,33.8 -29.28,29.29 -77.26,76.03 -102.28,107.08 -20.53,25.48 -43.13,51.87 -58.56,81.03 -12.04,-0.27 -27.46,-5.33 -40.17,-7.81 -17.19,-3.37 -29.11,-1.91 -33.36,-14.62 -19.9,-59.42 -21.34,-79.76 -56.87,-132.88 -31.29,-46.78 -105.21,-115.52 -152.47,-155.03l-60.06 -59.89c-5.88,-6.67 -15.03,-20.33 -21.28,-24.52 5.65,24.24 -12.54,4.7 -32.46,67.87 -13.56,42.99 -4.93,47.78 -24.98,53.53 -10.63,3.04 -9.6,4.69 -16.71,9.46 -23.93,-20.8 -58.24,-34.51 -85.77,-49.45 -10.15,-5.51 -19.99,-8.82 -29.83,-13.79 -49.49,-24.99 -102.62,-46.22 -151.94,-72.7 -9.98,-5.35 -18.16,-11.28 -27.01,-16.6 -19.47,-11.7 -32.55,-25.33 -48.41,-41.01 -32.33,-31.95 -52.6,-79.75 -53.97,-123.92z"/>
 </g>
</svg>
