<?xml version="1.0" encoding="UTF-8"?>
<!DOCTYPE svg PUBLIC "-//W3C//DTD SVG 1.1//EN" "http://www.w3.org/Graphics/SVG/1.1/DTD/svg11.dtd">
<!-- Creator: CorelDRAW 2017 -->
<svg xmlns="http://www.w3.org/2000/svg" xml:space="preserve" width="21.1666mm" height="21.1666mm" version="1.1" style="shape-rendering:geometricPrecision; text-rendering:geometricPrecision; image-rendering:optimizeQuality; fill-rule:evenodd; clip-rule:evenodd"
viewBox="0 0 2116.66 2116.66"
 xmlns:xlink="http://www.w3.org/1999/xlink">
 <defs>
  <style type="text/css">
   <![CDATA[
    .fil0 {fill:none}
    .fil1 {fill:#AA1018}
   ]]>
  </style>
 </defs>
 <g id="Capa_x0020_1">
  <metadata id="CorelCorpID_0Corel-Layer"/>
  <rect class="fil0" width="2116.66" height="2116.66"/>
  <path class="fil1" d="M426.22 1656.1c0.71,57.36 -19.36,105.98 -60.21,145.96 -40.86,39.88 -90.95,60.04 -150.27,60.38l-132.16 1.04 0 -412.17 131.09 0c58.61,0 108.35,19.89 149.21,59.6 40.85,39.8 61.63,88.17 62.34,145.19zm-71.93 0.51c-0.36,-37.98 -13.95,-69.99 -40.77,-96.12 -26.82,-26.04 -59.78,-39.1 -98.85,-39.1l-59.15 0 0 270.97 59.69 0c39.07,-0.34 72.11,-13.58 99.11,-39.62 27,-26.13 40.32,-58.15 39.97,-96.13zm220.34 5.8c-19.54,0 -36.23,6.67 -50.09,19.99 -13.85,13.32 -20.78,29.42 -20.78,48.45l0 131.07 -71.93 0 0 -131.07c0,-38.68 13.85,-71.38 41.56,-98.2 27.71,-26.74 61.45,-40.15 101.24,-40.15l0 69.91zm326.4 199.51l-76.47 0 -15.1 -40.49c-28.42,32.54 -64.66,48.8 -108.8,48.8 -39.78,0 -73.45,-13.5 -100.97,-40.49 -27.54,-26.99 -41.3,-59.7 -41.3,-98.11 0,-29.42 8.52,-55.98 25.57,-79.69 17.05,-23.7 39.79,-40.58 68.21,-50.61 16.7,-5.89 33.04,-8.83 49.03,-8.83 30.19,0 57.46,8.39 81.79,25.18 24.34,16.79 41.66,39.02 51.97,66.71l66.07 177.53zm-129.49 -130.55c0,-24.31 -10.13,-43.26 -30.38,-56.76 -11.72,-8.04 -25.22,-12.02 -40.5,-12.02 -24.86,0 -44.05,9.69 -57.55,29.15 -8.52,12.2 -12.79,25.35 -12.79,39.63 0,23.96 10.13,42.74 30.38,56.23 12.43,8.4 25.75,12.55 39.96,12.55 19.54,0 36.24,-6.66 50.09,-20.07 13.86,-13.33 20.79,-29.59 20.79,-48.71zm399.93 199.6c0,49.83 -20.96,88.25 -62.88,115.24 -24.16,15.57 -50.62,23.36 -79.4,23.36 -50.44,0 -89.88,-20.59 -118.3,-61.78 -16.34,-23.87 -24.51,-49.48 -24.51,-76.82 0,-18 3.55,-35.3 10.65,-51.92l66.61 25.96c-3.55,8.31 -5.32,16.96 -5.32,25.96 0,19.03 6.92,35.21 20.78,48.54 13.85,13.32 30.55,19.98 50.09,19.98 19.18,0 35.71,-6.75 49.56,-20.33 13.85,-13.59 20.78,-29.68 20.78,-48.45 0,-30.54 -14.75,-51.92 -44.14,-64.11 -8.88,2.07 -17.67,3.11 -26.56,3.11 -40.05,0 -73.8,-13.41 -101.24,-40.23 -27.45,-26.82 -41.21,-59.78 -41.21,-98.89 0,-38.76 13.76,-71.55 41.38,-98.37 27.62,-26.83 61.28,-40.24 100.9,-40.24l41.56 -96.03 56.93 23.53 -37.83 86c25.04,11.77 45.03,28.9 59.86,51.39 14.83,22.5 22.29,47.07 22.29,73.72 0,39.45 -14.74,72.68 -44.23,99.67 29.49,27.34 44.23,60.91 44.23,100.71zm-71.94 -200.38c0,-18.69 -6.93,-34.78 -20.78,-48.28 -13.85,-13.49 -30.38,-20.24 -49.56,-20.24 -19.54,0 -36.24,6.66 -50.09,19.98 -13.86,13.32 -20.78,29.51 -20.78,48.54 0,19.03 6.92,35.3 20.78,48.79 13.85,13.5 30.55,20.25 50.09,20.25 19.54,0 36.15,-6.75 49.82,-20.25 13.68,-13.49 20.52,-29.76 20.52,-48.79zm301.34 -138.09l-131.62 269.42 -133.21 -269.42 85.25 0 48.5 110.58 48.49 -110.58 82.59 0zm250.19 138.17c0,6.84 -0.52,13.76 -1.59,20.68l-208.36 0c4.62,14.54 13.15,26.22 25.58,35.04 12.43,8.83 26.47,13.24 42.1,13.24 21.67,0 39.61,-8.13 53.82,-24.4l43.7 56.58c-27.35,25.27 -59.86,37.9 -97.52,37.9 -40.14,0 -73.98,-13.41 -101.52,-40.15 -27.53,-26.81 -41.29,-59.69 -41.29,-98.71 0,-38.68 13.85,-71.38 41.56,-98.2 27.71,-26.74 61.46,-40.15 101.25,-40.15 39.79,0 73.45,13.33 100.98,40.06 27.53,26.74 41.29,59.44 41.29,98.11zm-80.46 -31.75c-13.14,-24.22 -33.74,-36.33 -61.81,-36.33 -28.42,0 -49.2,12.11 -62.35,36.33l124.16 0zm281.63 83.4c0,16.62 -5.68,31.67 -17.05,45.25 -22.73,27.09 -55.06,40.06 -96.98,39.03 -16.7,-0.35 -34.91,-3.98 -54.62,-10.9 -19.72,-6.92 -35.8,-15.58 -48.23,-25.96l39.97 -50.36c19.18,17.66 39.61,26.48 61.28,26.48l1.6 0c8.87,0 16.87,-1.55 23.97,-4.67 9.24,-4.15 13.86,-10.04 13.86,-17.65l0 -2.08c-1.06,-7.96 -6.57,-13.67 -16.52,-17.13 -3.91,-0.69 -12.25,-2.25 -25.05,-4.67 -15.98,-3.11 -29.48,-6.92 -40.5,-11.42 -32.32,-13.5 -48.49,-37.2 -48.49,-71.12 0,-32.53 16.52,-56.93 49.56,-73.2 14.57,-7.26 30.38,-11.07 47.43,-11.42 17.76,-0.34 36.23,2.6 55.42,8.83 22.02,7.27 37.66,16.78 46.9,28.55l-47.97 42.05c-12.43,-12.46 -25.93,-18.69 -40.5,-18.69 -22.73,0 -34.1,7.27 -34.1,21.89l0 1.04c0,6.92 9.23,12.8 27.71,17.65 1.42,0.34 13.14,2.59 35.17,6.75 44.77,8.39 67.14,35.03 67.14,80.2l0 1.55zm127.63 79.6c-39.79,0 -73.53,-13.4 -101.25,-40.14 -27.71,-26.82 -41.56,-59.61 -41.56,-98.29l0 -272.18 71.93 0 0 141.19 70.88 0 0 59.7 -70.88 0 0 71.12c0,19.03 6.93,35.22 20.79,48.54 13.85,13.32 30.55,19.98 50.09,19.98l0 70.08zm62.08 -329.11c0,11.76 -4.09,21.71 -12.25,29.84 -8.18,8.14 -18.3,12.21 -30.37,12.21 -12.09,0 -22.3,-4.07 -30.65,-12.21 -8.35,-8.13 -12.52,-18.08 -12.52,-29.84 0,-11.77 4.17,-21.64 12.52,-29.59 8.35,-7.96 18.56,-11.94 30.65,-11.94 11.72,0 21.75,4.06 30.1,12.19 8.35,8.14 12.52,17.92 12.52,29.34zm-6.39 329.11l-71.94 0 0 -269.42 71.94 0 0 269.42z"/>
 </g>
</svg>
