<?xml version="1.0" encoding="UTF-8"?>
<!DOCTYPE svg PUBLIC "-//W3C//DTD SVG 1.1//EN" "http://www.w3.org/Graphics/SVG/1.1/DTD/svg11.dtd">
<!-- Creator: CorelDRAW 2017 -->
<svg xmlns="http://www.w3.org/2000/svg" xml:space="preserve" width="21.1666mm" height="21.1666mm" version="1.1" style="shape-rendering:geometricPrecision; text-rendering:geometricPrecision; image-rendering:optimizeQuality; fill-rule:evenodd; clip-rule:evenodd"
viewBox="0 0 2116.66 2116.66"
 xmlns:xlink="http://www.w3.org/1999/xlink">
 <defs>
  <style type="text/css">
   <![CDATA[
    .fil0 {fill:none}
    .fil1 {fill:#AA1018}
   ]]>
  </style>
 </defs>
 <g id="Capa_x0020_1">
  <metadata id="CorelCorpID_0Corel-Layer"/>
  <rect class="fil0" width="2116.66" height="2116.66"/>
  <path class="fil1" d="M776.04 686.84l1.48 -1.54c-0.16,1.96 1.06,4.59 0.96,5.81l-6.06 7.48c0.35,-0.45 -1.93,-13.51 11.71,11.7 -18.64,7.89 -9.98,-0.89 -7.67,9.92 3.69,17.19 -7.31,6.86 8.34,29.19l-41.99 27.42c-7.09,4.59 -0.22,0.84 -5.61,2.63 -12.64,4.21 -0.61,-3.27 -11.1,3.4 -0.96,0.65 -2.09,1.93 -2.89,2.54l-5.45 6.96c20.53,7.7 13.76,1.8 33.84,1.31 -1.15,18.1 2.15,2.19 -9.37,16.27l-29.96 39.04c-0.58,0.96 -1.41,2.31 -1.89,3.11 -0.51,0.86 -1.73,3.94 -2.12,3.3 -0.38,-0.7 -1.34,2.34 -2.24,3.37 -0.9,-1.22 -1.61,-2.79 -2.02,-4.01 -8.18,-25.69 -4.11,-10.2 -0.52,-16.55 0.87,-1.54 9.95,-8.69 14.25,-10.68 -16.11,-17.58 -30.32,-8.47 -31.89,-11.55 -0.55,-1.12 -2.15,-0.23 -3.24,-0.16l6.42 14.21c3.3,7.83 0.89,3.94 3.97,9.24 -6.99,9.3 -14.37,8.59 -14.46,8.47 -0.65,-1 -2.51,0.32 -3.76,0.64 5.94,-7.57 2.99,8.75 1.8,-6.1 -0.8,-10.07 -5.1,-3.01 -12.22,-14.75 5.87,-16.14 -1.83,-1.29 7.89,-11.01 14.85,-14.85 3.5,-6.03 13.66,-22.45l8.38 -9.5c-20.85,11.49 -4.3,5.81 -19.92,6 -7.41,1.25 -0.26,-4.07 -10.4,10.33l-7.44 11.77c-3.72,6.9 -1.22,-2.53 -2.69,6.68 -4.62,9.91 0.93,6.06 -10.3,10.52 -39.33,0 -212.36,6.57 -235.58,-5.2 -7.96,-21.07 -2.66,-105.28 -2.73,-133.86 -0.09,-28.13 -6.25,-120.77 7.64,-128.89 0.51,-22.9 10.45,-46.77 19.6,-62.81 35.15,-61.59 86.35,-86.8 164.17,-86.9l914.13 0c28.58,0 53.95,-3.17 70.35,8.15 21.36,1.89 33.77,10.39 49.62,21.4 13.95,9.68 24.35,18.12 34.74,32.56 20.95,29.19 32.91,46.03 37.56,87.6 -1.25,-4.43 -2.56,-7.15 2.35,-11.68 0.38,-0.32 1.47,-1.25 1.92,-1.44 14.21,-5.58 10.65,33.59 10.55,40.45l-0.06 222.65c0.61,-0.22 1.15,-1.09 1.38,-1.31 0.26,-0.23 1.19,-1.09 1.54,-1.38 0.64,-0.55 3.27,-2.66 4.04,-3.27 2.21,-1.7 5.04,-4.3 8.69,-5.74l2.92 11.64c3.63,20.56 -3.04,11.16 -6.73,28.23 -3.6,16.42 10.55,15.94 -0.07,7.02 -8.43,14.02 -3.37,8.22 -31.02,6.48 -20.21,-1.28 -7.54,-0.64 -8.08,1.32 2.12,-10.23 11.61,-16.68 -4.78,-19.7l-248.57 -0.41c-0.36,0.19 -1.22,0.86 -1.57,1.09 -0.36,0.25 -1.1,1.09 -1.45,1.34 -7.57,6.39 0.74,5.07 -9.27,8.57 -5,-14.82 4.75,-8.21 3.91,-26.05 -4.61,-3.37 -10.84,-0.09 -20.14,-4.04l-13.95 -12.61c-0.71,-0.86 -1.96,-1.28 -2.47,-3.3 -0.55,-2.12 -1.58,-2.37 -2.47,-3.47 -2.51,11.2 -0.36,8.22 -9.18,12.48l-18.19 7.03c4.75,21.91 -1.73,0.99 9.08,20.82 -14.24,9.11 -9.69,8.79 -15.24,26.27 -1.89,28.68 38.5,40.61 43.63,129.91 7.8,-0.16 1.83,-3.68 4.94,7l2.44 46.48c0.51,65.95 -3.47,93.92 -28.2,157.98 -11.03,28.49 -76.99,117.06 -101.3,127.67 -7.67,3.37 -1.76,0.84 -7.41,2.09 -14.5,17.96 -15.05,14.75 -32.56,25.53 -33.81,20.82 -78.05,40.93 -117.57,45.39l-125.07 -0.03c-20.08,-2.21 -36.89,-10.91 -58.38,-15.69 -16.17,-3.59 -34.55,-14.82 -47.15,-22.35 -7.54,-4.49 -13.67,-7.77 -22.17,-12.96 -6.74,-4.14 -0.48,-0.07 -7.15,-4.78 -0.97,-0.68 -3.56,-2.76 -4.49,-3.44l-42.7 -35.15c-0.55,-0.61 -1.38,-1.41 -1.96,-1.99 -22.23,-22.74 -47.67,-51.36 -61.3,-79.68 -15.75,-32.66 -31.98,-63.23 -34.35,-105.67 -7.67,0.1 -1.83,3.59 -4.94,-7.02l-1.77 -97.42c3.21,-60.98 27.94,-115.55 62.91,-164.79 9.75,-13.76 11.13,-18.19 23.54,-30.73l11.9 -11.96c0.61,-0.61 1.48,-1.38 2.06,-1.99 2.31,-2.41 0.96,-0.26 3.85,-3.98l5.26 -11.77c-1.29,-3.82 -4.56,-10.53 -5.1,-11.55 -0.39,-0.71 -0.93,-1.67 -1.32,-2.38l-9.01 -17c-4.21,-15.01 3.27,17.36 -1.7,-13.21l37.72 -3.95c-8.79,-10.91 15.01,-15.81 -22.61,-9.14 -16.04,2.82 5.8,6.9 -12.52,5.26 -1.25,-12.29 -7.12,9.98 3.02,-2.44 5.04,-6.19 -0.8,-6.9 4.78,-9.94 17.67,-9.69 41.28,12.28 58.57,-14.95 -1.25,-0.51 -2.69,-1.12 -3.81,-1.35l-11.17 -1.76c-14.88,0.9 -4.55,4.07 -20.27,6.03 -7.51,0.96 -2.28,2.47 -10.3,-1.64 3.34,-11.51 11.29,-3.78 17.04,-15.11 5.35,-10.58 3.01,1.93 1.18,-5.71 -11.1,1.9 -5.35,1.42 -13.63,4.72l-6.54 2.89c-0.64,-0.93 -2.12,1.12 -3.24,1.5 -15.75,-19.53 -17.58,-1.38 -22.71,-17.09 -0.74,-2.22 21.94,-7.25 -20.57,0.12zm-326.29 -368.06c-3.73,8.5 -35.42,29.51 -44.62,35.61l-18.16 13.15c-0.61,0.55 -1.44,1.32 -2.02,1.89l-21.3 24.09c-4.3,11.74 -0.19,6.1 -7.54,13.99 -8.69,9.4 1.19,1.35 -11.2,7.51 -4.74,13.92 -29.86,39.45 -46.44,114.26 -11.26,50.78 -5.23,424.33 -5.26,493.55 -0.04,54.53 -6.77,529.45 5.99,571.08l20.79 68.01c10.87,-3.5 6.58,10.87 5.93,16.33 13.32,5.29 3.92,-1.83 14.22,11.42 11.54,14.85 8.98,20.94 36.85,48.95 0.58,0.58 1.41,1.38 1.99,1.99 0.61,0.57 1.45,1.38 2.02,1.99l12.42 11.03c36.6,28.68 81.76,49.08 125.33,65.22 20.88,7.73 878.04,4.1 1003.72,3.52 61.68,-0.28 68.84,-2.75 113.87,-20.94 14.5,-5.84 31.95,-12.55 43.98,-11.81 1.77,-16.23 17.16,-17.38 43.56,-37.88l22.17 -21.14c5.33,-5.74 1.89,-1.99 5.49,-6.29l34.74 -50.84c14.11,-29.61 6.48,-33.49 19.69,-35.74 -1.28,-26.08 7.8,-13.66 5.62,-38.07 7.73,-7.41 2.5,2.92 7.44,-13.12 6.54,-21.24 2.95,-682.59 2.95,-704.34 0.06,-104.03 13.76,-312.73 -15.3,-388.95 -5.39,-14.14 -6.64,-19.24 -12.1,-35.57 -5.45,-16.36 -23.99,-38.27 -35.02,-54.41 -2.31,-3.33 -5.71,-8.56 -8.12,-11.61l-17.19 -18.35c-0.61,-0.57 -1.42,-1.41 -2.03,-1.98l-59.34 -41.8c-16.78,-8.89 -8.31,2.95 -12.99,-11.49 -11.39,0.81 -4.97,2.15 -18,-1.31l-13.82 -5.68c-63.26,-25.47 -181.79,-16.62 -257.94,-16.62l-785.21 0c-33.36,0.1 -72.78,5.17 -102.2,16.59 -22.58,8.76 -16.81,10.74 -32.97,7.76zm541.6 522.55l-0.42 3.15 -0.32 18.86c16.62,0.48 16.75,0.22 31.5,7.73 24.03,12.22 30.16,15.43 35.8,30.63l-1.41 2.57c14.24,5.04 4.59,-1.51 15.43,10.87 26.21,29.84 11.36,91.62 2.05,117.02 -3.27,11.78 -2.79,15.85 -16.26,20.57l-47.03 31.5c-5.29,16.13 0.42,8.24 -15.04,12.89l-55.21 -0.06c16.65,9.01 2.73,5.16 14.21,4.49l40.97 -1.99c15.97,2.41 7.28,-0.64 11.19,11.16 -18.12,-4.17 -46.48,-3.2 -64.54,0.81l-18.8 1.95c-1.95,0 -14.14,-0.77 -14.3,-0.77 1.83,22.17 4.78,19.92 3.91,42.92 23.45,-3.27 13.95,-1.41 11.71,-3.88 -10.2,14.34 -10.43,15.78 -11.71,34.49 9.56,3.46 13.28,9.2 19.5,15.26l30.61 -6.8c-0.36,-9.68 -0.9,0.13 -2.57,3.92l7.28 1.73c1.09,0.32 2.34,0.61 3.47,0.96l11.7 5.13c-7.66,7.83 -15.68,6.61 -22.45,7.83l9.88 10.2c0.45,0.19 23.1,-5.55 15.98,16.59 -0.23,0.64 -0.74,1.73 -1.03,2.4 -0.29,0.68 -0.9,1.73 -1.25,2.44l-10.56 16.65c1.48,5.71 -6.64,5.13 33.62,13.89 27.59,6 133.25,5.1 134.25,-13.96 2.89,-17.51 -8.86,-0.41 -14.21,-27.17 -3.53,-17.64 1.86,-8.46 7.44,-21.26l3.69 -10.27c0.26,-2.05 0.54,-2.66 1.22,-3.85 4.87,1.96 16.93,7.99 19.82,7.96 12.13,-0.03 1.89,0.8 15.34,-8.28 8.85,2.41 10.2,5.01 15.62,10.43 7.57,-12.26 11.93,-17.23 26.69,-17.93l-6.29 -4.75c-16.1,-14.82 -4.68,-13.7 -19.02,-29.64l16.2 -4.01c-9.08,-18.67 -5.33,-18.83 -2.6,-22.78 10.23,1.35 0.19,4.3 8.47,13.03l-14.31 15.62c0.71,0.93 1.76,1.99 2.31,2.69l4.23 5.49c0.61,0.9 1.25,1.79 1.8,2.72l6.26 13.25c0.16,-0.54 0.48,1.8 1.02,2.51 23.55,-7.83 11.9,-3.95 14.24,-22.3 2.51,-19.66 -2.05,-8.79 -1.89,-27.81 7.76,-7.12 9.59,-10.68 17.13,-8.08 19.12,6.67 -2.28,2.95 17.48,13.89l5.23 3.56c3.95,-33.81 12.54,-43.63 13.25,-79.56 0.93,-48.11 -11,-96.74 -38.11,-134.44 -9.4,-13.05 -28.58,-36.37 -39.97,-43.27l-6.83 -2.76c-17.77,-8.53 -16.17,-10.97 -20.27,-18.86l-48.15 -19.98c-55.08,-15.5 -44.59,-13 -108.75,-10.05 -10.2,3.5 -17.19,5.3 -27.2,4.75zm711.68 -279.43l0.16 259.51 -224.12 0 -16.49 -0.93c-3.27,-11.19 -24.77,-39.61 -32.63,-49.24 -7.31,-8.92 -7.73,-6.25 -7.79,-15.91 -21.24,-9.37 -7.92,-6.64 -29.83,-28 -0.58,-0.58 -1.42,-1.41 -1.99,-1.96 -20.5,-18.96 -46.58,-33.91 -53.19,-51.29 -9.11,0.48 -54.37,-29.45 -74.19,-39.81l-50.27 -20.56c-79.97,-30.8 -203.44,-33.04 -282.99,-8.09 -36.8,11.52 -64.8,21.05 -100.05,40.71 -17.04,9.5 -47.03,23.55 -53.61,40.51 42.51,-7.37 19.83,-2.34 20.57,-0.12 5.13,15.71 6.96,-2.44 22.71,17.09 1.12,-0.38 2.6,-2.43 3.24,-1.5l6.54 -2.89c8.28,-3.3 2.53,-2.82 13.63,-4.72 1.83,7.64 4.17,-4.87 -1.18,5.71 -5.75,11.33 -13.7,3.6 -17.04,15.11 8.02,4.11 2.79,2.6 10.3,1.64 15.72,-1.96 5.39,-5.13 20.27,-6.03l11.17 1.76c1.12,0.23 2.56,0.84 3.81,1.35 -17.29,27.23 -40.9,5.26 -58.57,14.95 -5.58,3.04 0.26,3.75 -4.78,9.94 -10.14,12.42 -4.27,-9.85 -3.02,2.44 18.32,1.64 -3.52,-2.44 12.52,-5.26 37.62,-6.67 13.82,-1.77 22.61,9.14l-37.72 3.95c4.97,30.57 -2.51,-1.8 1.7,13.21l9.01 17c0.39,0.71 0.93,1.67 1.32,2.38 0.54,1.02 3.81,7.73 5.1,11.55 13.57,-4.3 18.86,-9.15 30.63,-18.32 23.51,-18.35 59.73,-42.28 91.29,-49.4 19.67,-4.43 27.75,-12.22 47.1,-14.72 45.1,-5.84 124.62,-8.95 169.72,9.2 9.88,4.01 46.77,6.45 50.91,21.88 35.57,5.81 76.09,45.13 102.49,71.05l27.3 30.86c4.65,8.24 -0.17,3.3 5.64,10.07l12.86 8.73c5.55,-17.48 1,-17.16 15.24,-26.27 -10.81,-19.83 -4.33,1.09 -9.08,-20.82l18.19 -7.03c8.82,-4.26 6.67,-1.28 9.18,-12.48 0.89,1.1 1.92,1.35 2.47,3.47 0.51,2.02 1.76,2.44 2.47,3.3l13.95 12.61c9.3,3.95 15.53,0.67 20.14,4.04 0.84,17.84 -8.91,11.23 -3.91,26.05 10.01,-3.5 1.7,-2.18 9.27,-8.57 0.35,-0.25 1.09,-1.09 1.45,-1.34 0.35,-0.23 1.21,-0.9 1.57,-1.09l248.57 0.41c16.39,3.02 6.9,9.47 4.78,19.7 0.54,-1.96 -12.13,-2.6 8.08,-1.32 27.65,1.74 22.59,7.54 31.02,-6.48 10.62,8.92 -3.53,9.4 0.07,-7.02 3.69,-17.07 10.36,-7.67 6.73,-28.23l-2.92 -11.64c-3.65,1.44 -6.48,4.04 -8.69,5.74 -0.77,0.61 -3.4,2.72 -4.04,3.27 -0.35,0.29 -1.28,1.15 -1.54,1.38 -0.23,0.22 -0.77,1.09 -1.38,1.31l0.06 -222.65c0.1,-6.86 3.66,-46.03 -10.55,-40.45 -0.45,0.19 -1.54,1.12 -1.92,1.44 -4.91,4.53 -3.6,7.25 -2.35,11.68zm-266.47 -82.7c-12.19,7.12 -19.12,20.41 -23.8,31.89 -1.51,32.49 -0.71,65.12 -0.74,97.64 -0.19,111.44 17.87,95.92 191.57,94.51 7.83,-6.42 22.65,-13.35 32.59,-24.19 5.49,-20.85 8.38,-3.82 8.18,-50.75 -0.61,-144.89 13.64,-157.12 -106.24,-157.02l-81.45 1.28c-21.13,4.14 2.8,0.84 -20.11,6.64zm-600.98 547.58c-2.08,49.78 -0.32,85.26 17.29,122.37 13.38,28.2 37.37,63.49 59.73,79.11 10.36,3.46 5.26,-0.07 14.85,7.05 13.28,9.85 3.24,-1.82 9.14,12 12.64,7.32 22.59,13.41 37.05,15.24l10.56 -16.65c0.35,-0.71 0.96,-1.76 1.25,-2.44 0.29,-0.67 0.8,-1.76 1.03,-2.4 7.12,-22.14 -15.53,-16.4 -15.98,-16.59l-9.88 -10.2c6.77,-1.22 14.79,0 22.45,-7.83l-11.7 -5.13c-1.13,-0.35 -2.38,-0.64 -3.47,-0.96l-7.28 -1.73c1.67,-3.79 2.21,-13.6 2.57,-3.92l-30.61 6.8c-6.22,-6.06 -9.94,-11.8 -19.5,-15.26 1.28,-18.71 1.51,-20.15 11.71,-34.49 2.24,2.47 11.74,0.61 -11.71,3.88 0.87,-23 -2.08,-20.75 -3.91,-42.92 0.16,0 12.35,0.77 14.3,0.77l18.8 -1.95c18.06,-4.01 46.42,-4.98 64.54,-0.81 -3.91,-11.8 4.78,-8.75 -11.19,-11.16l-40.97 1.99c-11.48,0.67 2.44,4.52 -14.21,-4.49l55.21 0.06c15.46,-4.65 9.75,3.24 15.04,-12.89 -54.5,5.45 -100.4,0.9 -131.36,-46.8l-9.88 -17.58c-0.38,-0.81 -0.89,-1.8 -1.25,-2.6 -14.34,-31.92 4.46,-59.67 -14.98,-59.86 2.79,17.87 -0.16,9.94 -3.3,17.84 -1.32,3.36 -5.49,12.51 -6.9,16.45 -4.65,13.19 -5.74,20.21 -7.44,35.1zm-161.22 -236.23c15.62,-0.19 -0.93,5.49 19.92,-6l-8.38 9.5c-10.16,16.42 1.19,7.6 -13.66,22.45 -9.72,9.72 -2.02,-5.13 -7.89,11.01 7.12,11.74 11.42,4.68 12.22,14.75 1.19,14.85 4.14,-1.47 -1.8,6.1 1.25,-0.32 3.11,-1.64 3.76,-0.64 0.09,0.12 7.47,0.83 14.46,-8.47 -3.08,-5.3 -0.67,-1.41 -3.97,-9.24l-6.42 -14.21c1.09,-0.07 2.69,-0.96 3.24,0.16 1.57,3.08 15.78,-6.03 31.89,11.55 -4.3,1.99 -13.38,9.14 -14.25,10.68 -3.59,6.35 -7.66,-9.14 0.52,16.55 0.41,1.22 1.12,2.79 2.02,4.01 0.9,-1.03 1.86,-4.07 2.24,-3.37 0.39,0.64 1.61,-2.44 2.12,-3.3 0.48,-0.8 1.31,-2.15 1.89,-3.11l29.96 -39.04c11.52,-14.08 8.22,1.83 9.37,-16.27 -20.08,0.49 -13.31,6.39 -33.84,-1.31l5.45 -6.96c0.8,-0.61 1.93,-1.89 2.89,-2.54 10.49,-6.67 -1.54,0.81 11.1,-3.4 5.39,-1.79 -1.48,1.96 5.61,-2.63l41.99 -27.42c-15.65,-22.33 -4.65,-12 -8.34,-29.19 -2.31,-10.81 -10.97,-2.03 7.67,-9.92 -13.64,-25.21 -11.36,-12.15 -11.71,-11.7l6.06 -7.48c0.1,-1.22 -1.12,-3.85 -0.96,-5.81 -18.67,5.52 -46.87,32.53 -60.69,47.74l-38.72 47.44c-3.02,5.68 -1.73,1.57 -3.75,10.07zm467.15 471.93c19.31,-2.4 32.14,-12.76 47.54,-22.51 17.61,-11.14 21.3,-21.59 36.66,-31.86l32.72 -51.16c3.44,-9.53 2.25,-3.56 3.72,-15.01 -19.76,-10.94 1.64,-7.22 -17.48,-13.89 -7.54,-2.6 -9.37,0.96 -17.13,8.08 -0.16,19.02 4.4,8.15 1.89,27.81 -2.34,18.35 9.31,14.47 -14.24,22.3 -0.54,-0.71 -0.86,-3.05 -1.02,-2.51l-6.26 -13.25c-0.55,-0.93 -1.19,-1.82 -1.8,-2.72l-4.23 -5.49c-0.55,-0.7 -1.6,-1.76 -2.31,-2.69l14.31 -15.62c-8.28,-8.73 1.76,-11.68 -8.47,-13.03 -2.73,3.95 -6.48,4.11 2.6,22.78l-16.2 4.01c14.34,15.94 2.92,14.82 19.02,29.64l6.29 4.75c-14.76,0.7 -19.12,5.67 -26.69,17.93 -5.42,-5.42 -6.77,-8.02 -15.62,-10.43 -13.45,9.08 -3.21,8.25 -15.34,8.28 -2.89,0.03 -14.95,-6 -19.82,-7.96 -0.68,1.19 -0.96,1.8 -1.22,3.85l-3.69 10.27c-5.58,12.8 -10.97,3.62 -7.44,21.26 5.35,26.76 17.1,9.66 14.21,27.17zm-150.9 -399.14l0.32 -18.86c-14.17,2.4 -25.37,8.34 -34.58,14.27 6.87,4.2 2.12,3.37 15.05,4.52 5.77,0.55 13.31,0.1 19.21,0.07zm211.94 24.89l-3.04 -6.51c-6.55,-10.17 -12.32,-11.07 -24.06,-15.11 4.1,7.89 2.5,10.33 20.27,18.86l6.83 2.76zm-265.96 359.08c-5.9,-13.82 4.14,-2.15 -9.14,-12 -9.59,-7.12 -4.49,-3.59 -14.85,-7.05 0.48,1.09 1.15,1.57 1.48,3.27 0.28,1.57 1.12,2.37 1.57,2.98l5.61 6.61c6.9,5.33 7.54,4.07 15.33,6.19zm121.13 -194.58c13.47,-4.72 12.99,-8.79 16.26,-20.57 -11.29,6.39 -1.09,-3.68 -10.65,8.02 -7.37,9.05 -1.73,0.87 -5.61,12.55z"/>
 </g>
</svg>
