<?xml version="1.0" encoding="UTF-8"?>
<!DOCTYPE svg PUBLIC "-//W3C//DTD SVG 1.1//EN" "http://www.w3.org/Graphics/SVG/1.1/DTD/svg11.dtd">
<!-- Creator: CorelDRAW 2017 -->
<svg xmlns="http://www.w3.org/2000/svg" xml:space="preserve" width="21.1666mm" height="21.1666mm" version="1.1" style="shape-rendering:geometricPrecision; text-rendering:geometricPrecision; image-rendering:optimizeQuality; fill-rule:evenodd; clip-rule:evenodd"
viewBox="0 0 2116.66 2116.66"
 xmlns:xlink="http://www.w3.org/1999/xlink">
 <defs>
  <style type="text/css">
   <![CDATA[
    .fil0 {fill:#2B2A29}
   ]]>
  </style>
 </defs>
 <g id="Capa_x0020_1">
  <metadata id="CorelCorpID_0Corel-Layer"/>
  <path class="fil0" d="M919.76 825.68l-5.71 9.38c-2.18,0.82 -5.03,1.23 -8.57,1.23 -2.99,0 -7.55,-0.48 -13.67,-1.43 -6.12,-0.95 -10.26,-1.43 -12.44,-1.43 -9.52,0 -21.35,2.31 -35.49,6.94 -19.86,6.52 -31.96,10.19 -36.31,11.01 -10.07,2.18 -16.46,3.67 -19.18,4.49 -8.43,2.72 -15.5,6.05 -21.21,10.13 -5.71,29.37 -18.5,81.93 -38.35,157.75 -19.04,73.37 -31.28,124.7 -36.72,154.01 -4.35,2.99 -8.7,5.98 -13.05,8.98 -5.72,4.08 -11.02,6.11 -15.92,6.11 -4.35,0 -11.55,-4.07 -21.62,-12.24 -7.61,-6.46 -15.23,-13.12 -22.84,-19.92 -11.43,-8.43 -25.3,-15.3 -41.62,-20.74 -4.89,-1.9 -19.58,-5.98 -44.06,-12.24 -34.54,-8.9 -76.56,-16.11 -126.06,-21.55 0,-1.09 -0.89,-2.92 -2.65,-5.51 -1.77,-2.58 -2.66,-5.98 -2.66,-10.33 0,-14.15 16.46,-29.04 49.37,-44.81 28.28,-13.26 47.87,-19.92 58.75,-19.92 8.16,0 16.72,1.9 25.7,5.71 0,7.88 -0.68,13.32 -2.04,16.32 -2.45,-0.27 -6.39,1.08 -11.83,4.08 1.09,2.44 3.81,6.11 8.16,11.01 24.48,1.36 47.46,9.11 68.95,23.26 16.31,11.96 32.77,23.79 49.36,35.49 6.53,-19.31 22.03,-62.42 46.51,-129.33 19.04,-52.22 28.69,-80.5 28.96,-84.86l0 -26.92c-4.07,-2.45 -16.18,-3.67 -36.31,-3.67 -2.17,0 -12.91,3.8 -32.23,11.42 -21.75,8.7 -35.22,15.5 -40.38,20.4 -1.09,1.36 -2.18,2.58 -3.27,3.67 -2.17,1.9 -5.71,2.86 -10.61,2.86 -4.62,0 -8.97,-0.89 -13.05,-2.66 -4.08,-1.76 -6.66,-2.65 -7.75,-2.65l0 -22.44c41.34,-17.68 75.34,-29.64 101.99,-35.9 0.82,0 4.08,-2.99 9.79,-8.97 5.71,-5.99 10.61,-8.98 14.69,-8.98 4.08,0 6.12,0.82 6.12,2.45 0,1.63 1.9,2.45 5.71,2.45 4.08,0 27.33,-8.03 69.76,-24.07 42.43,-16.05 65.69,-24.07 69.77,-24.07 10.06,0 18.9,2.31 26.52,6.93 4.62,2.72 10.54,7.55 17.74,14.48 7.21,6.94 13.13,11.63 17.75,14.08zm269.26 139.66c0,11.49 -8.43,34.07 -25.29,67.86 -15.78,30.8 -25.71,47.8 -29.79,51.07 -11.69,10.06 -30.19,20.8 -55.48,32.29 -23.93,10.61 -39.84,15.91 -47.73,15.91l-53.85 0c-22.04,0 -32.51,0 -31.42,0 -1.63,-0.27 -5.3,-2.44 -11.01,-6.52 -8.98,-6.53 -23.12,-14.28 -42.43,-23.26 -7.89,-16.59 -13.19,-42.15 -15.91,-76.7 -0.28,-0.81 -1.84,-4.35 -4.7,-10.6 -2.85,-6.26 -4.28,-12.38 -4.28,-18.36 0,-5.17 3.26,-15.78 9.79,-31.82 4.9,-12.24 9.79,-24.35 14.69,-36.31 6.73,-17.95 26.86,-35.91 60.24,-53.86 30.74,-16.59 55.15,-24.88 73.37,-24.88 30.66,0 64.26,10.74 100.63,32.29 42.09,24.48 63.17,52.16 63.17,82.89zm-63.24 14.35c0,-14.76 -3.53,-30.12 -10.6,-46.24 -9.52,-21.01 -22.3,-31.48 -38.35,-31.48 -12.24,0 -22.17,3.67 -29.78,11.02 -4.08,4.08 -9.39,12.1 -15.92,24.06 -5.98,10.88 -11.83,18.36 -17.54,22.44 -7.34,-7.34 -13.46,-16.99 -18.36,-28.96 -0.81,-2.18 -4.08,-11.7 -9.79,-28.56 -11.69,8.43 -25.7,20.47 -42.02,35.97 -6.26,9.52 -12.92,23.53 -19.99,41.95 -7.07,18.36 -10.61,30.87 -10.61,37.4 0,11.42 9.93,33.93 29.79,67.45 5.43,1.09 14.68,1.63 27.74,1.63 14.68,0 23.25,-0.68 25.7,-2.04 2.45,-5.16 6.66,-9.51 12.65,-13.05 20.94,-1.43 44.33,-10.27 70.17,-26.59 31.28,-19.65 46.91,-41.34 46.91,-65zm274.16 -58.89c0,17.48 -1.77,31.76 -5.3,42.91 -5.44,13.67 -13.4,35.43 -23.87,65.41 -10.47,29.92 -17.88,60.31 -22.23,91.12 -2.45,0 -6.67,2.44 -12.65,7.34 -8.98,7.07 -14.82,11.42 -17.54,13.05l-12.65 0c-1.9,-1.9 -3.81,-3.94 -5.71,-6.12 -1.9,-2.17 -2.86,-5.16 -2.86,-8.97 0,-1.63 7.01,-17.88 21.01,-48.75 14.01,-30.87 21.01,-51.07 21.01,-60.59l0 -10.61c-1.08,-1.35 -2.03,-2.72 -2.85,-4.07 -0.82,-1.36 -3.13,-2.04 -6.94,-2.04 -4.35,0 -8.97,2.17 -13.87,6.52 -14.14,1.91 -28.28,3.95 -42.43,6.12 -11.69,2.45 -19.51,8.03 -23.46,16.73 -3.94,8.7 -7.81,20.94 -11.62,36.72 -3.54,14.68 -6.94,29.37 -10.2,44.06l-25.3 0c-5.71,-8.98 -8.56,-17.68 -8.56,-26.18 0,-13.05 2.85,-35.49 8.56,-67.38 1.09,-5.72 4.36,-14.01 9.8,-24.96 5.98,-11.96 9.65,-20.26 11.01,-24.88 0.27,-1.36 0.82,-6.94 1.63,-16.8 0.55,-7.89 2.04,-13.87 4.49,-17.95 2.45,-4.08 12.78,-15.23 31.01,-33.52 9.79,-9.79 23.25,-20.81 40.39,-33.11 17.13,-12.25 27.87,-18.36 32.22,-18.36 10.34,0 24.48,11.42 42.43,34.33 16.32,20.95 24.48,34.27 24.48,39.98zm-45.69 19.32c0,-31.96 -7.62,-47.94 -22.85,-47.94 -11.15,0 -24.2,6.87 -39.16,20.67 -11.7,10.74 -21.49,22.3 -29.38,34.75l0 36.78c12.79,-1.9 24.07,-2.45 33.87,-1.63 14.68,1.09 20.53,1.63 17.54,1.63 26.65,0 39.98,-14.75 39.98,-44.26zm360.24 -66.71c0,4.08 -6.8,30.19 -20.4,78.33 -19.85,70.72 -33.05,118.18 -39.57,142.38 0,0 -4.63,3.27 -13.87,9.8 -6.8,4.62 -13.06,7.61 -18.77,8.97 0,0.27 -5.17,-1.36 -15.5,-4.89 -4.63,-4.08 -6.94,-10.34 -6.94,-18.77 0.27,-10.06 -0.41,-16.59 -2.04,-19.58 -23.39,-47.06 -46.37,-85.13 -68.95,-114.24 -7.07,3.27 -14.28,19.72 -21.62,49.37 -8.43,32.91 -17,54.26 -25.7,64.05 -7.07,7.89 -13.87,18.09 -20.4,30.6 -5.71,11.15 -11.29,22.44 -16.73,33.86l-26.52 0c-7.34,-7.34 -11.01,-14.41 -11.01,-21.21 0,-4.08 7.82,-24.48 23.46,-61.2 15.64,-36.72 29.17,-66.5 40.59,-89.35 1.36,-2.72 9.25,-13.87 23.66,-33.45 9.79,-13.33 14.69,-25.43 14.69,-36.31 0,-2.45 -0.27,-5.03 -0.81,-7.75 1.08,0 3.33,-1.77 6.73,-5.3 3.4,-3.54 7.41,-5.31 12.03,-5.31 4.08,0 8.23,0.95 12.44,2.86 4.22,1.9 7.82,2.85 10.82,2.85 0,11.16 3.8,28.97 11.42,53.45 4.35,3.26 9.79,8.16 16.32,14.69 1.9,10.87 7.21,23.93 15.91,39.16 9.52,16.59 18.49,27.06 26.92,31.41 3.54,-1.36 7.69,-5.64 12.45,-12.85 4.76,-7.2 7.55,-12.85 8.36,-16.93 -0.54,-6.25 0.27,-15.09 2.45,-26.52 25.84,-51.13 38.35,-89.89 37.53,-116.27 11.43,-0.27 20.27,3.4 26.52,11.02 4.35,5.44 6.53,11.15 6.53,17.13zm236.62 246.42c-15.23,4.62 -34.4,8.97 -57.52,13.05 -21.76,4.08 -35.77,6.12 -42.02,6.12l-74.66 0c-20.67,0 -36.04,-15.64 -46.1,-46.92 -7.07,-21.48 -10.61,-46.64 -10.61,-75.47 0,-2.45 0.95,-15.78 2.86,-39.98 1.9,-24.21 2.85,-40.66 2.85,-49.37 6.8,-8.97 17.95,-14.95 33.46,-17.95 14.14,-1.63 28.28,-3.4 42.43,-5.3 16.86,-2.99 29.91,-8.7 39.16,-17.14 6.53,-0.81 19.31,-2.85 38.35,-6.11 17.95,-3.27 28.42,-4.9 31.41,-4.9 4.36,0 10.48,1.77 18.36,5.3 5.99,3 11.83,5.85 17.55,8.57l0 26.52c-6.53,3.54 -12.92,7.07 -19.18,10.61 -9.52,5.16 -16.59,7.75 -21.21,7.75 -3.81,0 -6.46,-1.5 -7.96,-4.49 -1.5,-2.99 -4.15,-4.49 -7.96,-4.49 -2.71,0 -16.86,2.99 -42.42,8.98 -27.2,6.53 -45.97,10.2 -56.3,11.01 -7.89,0.55 -16.59,5.31 -26.11,14.28l0 22.44c1.63,1.63 3.53,3.2 5.71,4.69 2.17,1.5 5.57,2.25 10.2,2.25 3.8,0 12.92,-2.25 27.33,-6.74 14.42,-4.48 23.53,-6.73 27.34,-6.73 5.16,0 24.07,8.16 56.7,24.48 -11.15,16.59 -21.08,24.89 -29.78,24.89 -2.99,0 -4.49,-0.27 -4.49,-0.82 0,-0.27 0.07,-0.68 0.21,-1.22 0.13,-0.55 0.2,-0.95 0.2,-1.23 0,-0.54 -1.63,-0.81 -4.89,-0.81 -7.35,0 -20.27,1.77 -38.76,5.3 -22.3,4.63 -40.53,9.93 -54.67,15.91 0.54,19.04 3.33,31.55 8.36,37.54 5.03,5.98 16.12,8.97 33.25,8.97 9.52,0 25.16,-1.77 46.92,-5.3 2.99,-0.55 7.68,-3.54 14.07,-8.98 6.4,-5.44 11.77,-8.16 16.12,-8.16 2.99,0 7.28,3.06 12.85,9.18 5.58,6.12 10.27,9.18 14.08,9.18 2.99,0 4.48,-0.68 4.48,-2.04 0,-0.81 -0.34,-1.83 -1.02,-3.06 -0.68,-1.22 -1.02,-1.97 -1.02,-2.24 0,-1.36 1.5,-2.04 4.49,-2.04 3.27,0 8.09,1.7 14.49,5.1 6.39,3.4 10.81,5.37 13.25,5.91 1.64,1.09 3.4,3.81 5.31,8.16 2.17,5.17 3.81,8.3 4.89,9.39l0 15.91zm-112.6 -303.53c-0.54,1.63 -2.85,5.57 -6.93,11.83 -3.54,5.44 -6.94,11.01 -10.2,16.72 -4.08,6.26 -7.48,15.64 -10.2,28.15 -0.27,1.91 -0.55,3.95 -0.82,6.12 -0.81,2.72 -1.77,4.76 -2.85,6.12 -1.64,0.55 -4.08,1.63 -7.35,3.27 -2.44,1.36 -4.48,2.04 -6.12,2.04 -3.26,0 -5.71,-1.77 -7.34,-5.31 -0.82,-2.72 -1.09,-4.76 -0.82,-6.12 0.28,-1.08 3.81,-7.88 10.61,-20.39 7.62,-13.33 12.24,-22.04 13.87,-26.12 1.36,-2.99 3.13,-7.95 5.31,-14.89 2.17,-6.93 3.8,-11.76 4.89,-14.48 2.18,-4.62 4.49,-7.75 6.94,-9.38 4.08,0 7.07,3.4 8.97,10.2 1.91,5.71 2.59,9.79 2.04,12.24zm-1500.93 591.35c0,39.71 -16.73,72.62 -50.18,98.73 -29.37,22.57 -60.92,33.86 -94.65,33.86l-34.68 0c-22.03,0 -46.91,-3.67 -74.66,-11.01 -36.98,-9.8 -55.48,-22.58 -55.48,-38.35 0,-4.36 4.22,-10.61 12.65,-18.77 6.8,-6.53 13.73,-13.06 20.8,-19.58 0.82,-5.17 3.27,-13.2 7.35,-24.07 7.61,-13.88 11.42,-29.11 11.42,-45.7 0,-5.17 -0.41,-12.58 -1.22,-22.23 -0.82,-9.66 -1.23,-17.07 -1.23,-22.24 0,-4.35 0.27,-8.43 0.82,-12.24 2.72,-25.56 12.78,-53.3 30.19,-83.22 1.36,-1.36 2.72,-2.86 4.08,-4.49 2.45,-1.9 6.12,-2.86 11.01,-2.86 4.36,0 12.38,4.76 24.07,14.28 10.07,8.44 20.13,16.73 30.19,24.89 23.67,-11.7 50.73,-27.33 81.19,-46.92l0 -28.96c-13.33,-11.7 -31.41,-17.55 -54.26,-17.55 -16.32,0 -54.4,17 -114.23,51 -3.27,1.9 -4.9,7.75 -4.9,17.54 -4.62,-2.44 -11.01,-3.67 -19.17,-3.67 -8.16,0 -15.78,1.23 -22.85,3.67 0,-1.08 -1.02,-2.99 -3.06,-5.71 -2.04,-2.72 -3.06,-6.39 -3.06,-11.01 0,-6.53 5.03,-12.92 15.1,-19.18 8.43,-4.62 16.86,-9.11 25.29,-13.46 1.36,-0.82 8.43,-6.94 21.22,-18.36 10.6,-8.98 20.12,-15.09 28.55,-18.36 17.41,-6.25 38.49,-12.92 63.24,-19.99 26.38,-7.62 42.43,-11.42 48.14,-11.42 15.5,0 32.77,5.84 51.81,17.54 21.22,13.06 31.82,26.93 31.82,41.61 0,8.16 -2.31,17 -6.93,26.52 -11.15,22.58 -28.56,45.69 -52.22,69.36 3.81,4.35 12.78,12.3 26.92,23.86 14.15,11.56 24.07,21.01 29.79,28.36 8.43,11.15 13.6,22.71 15.5,34.68 1.09,5.71 1.63,16.86 1.63,33.45zm-54.26 -24.89c0,-13.6 -8.57,-26.92 -25.7,-39.98 -16.05,-12.51 -31.14,-18.76 -45.29,-18.76 -5.98,0 -15.23,2.71 -27.74,8.15 -8.7,3.81 -17.54,7.76 -26.52,11.83 -3.8,4.08 -5.71,11.84 -5.71,23.26 0,3.81 0.27,10.2 0.82,19.17 0.54,8.98 0.81,15.91 0.81,20.81 0,30.46 -10.74,47.19 -32.23,50.18l0 17.95c5.44,1.36 16.05,5.31 31.83,11.83 13.87,5.99 22.71,8.98 26.51,8.98 16.59,0 37.95,-14.48 64.05,-43.45 26.12,-28.97 39.17,-52.29 39.17,-69.97zm311.28 -51.4c0,5.98 -3.26,18.49 -9.79,37.53 -6.8,20.13 -13.46,36.31 -19.99,48.55 -0.54,2.18 0,5.58 1.64,10.2 1.08,3.26 2.31,6.53 3.67,9.79 -11.16,18.77 -21.08,28.15 -29.79,28.15 -4.35,0 -6.93,-0.88 -7.75,-2.65 -0.81,-1.77 -3.4,-2.65 -7.75,-2.65 -4.35,0 -13.8,3.47 -28.35,10.4 -14.55,6.94 -24.01,10.4 -28.36,10.4 -50.31,0 -84.58,-20.12 -102.81,-60.38 -12.24,-26.38 -18.36,-68.13 -18.36,-125.24 0,-3 1.03,-16.05 3.07,-39.17 2.04,-23.12 3.05,-39.03 3.05,-47.73 3.54,0 8.98,-3.54 16.32,-10.61 2.72,0 6.67,1.29 11.83,3.88 5.17,2.58 8.57,5.23 10.2,7.95 0.55,5.17 3,12.92 7.35,23.26 4.35,10.33 7.07,18.08 8.16,23.25 1.36,6.26 2.04,13.19 2.04,20.81 0,8.97 -1.23,22.71 -3.67,41.2 -2.45,18.5 -3.68,32.23 -3.68,41.21 0,3.53 0.14,7.07 0.41,10.61 1.09,13.59 8.02,30.05 20.81,49.36 15.5,-2.72 31.55,-8.43 48.14,-17.14 22.03,-11.69 38.62,-26.24 49.77,-43.65 8.7,-13.6 13.06,-40.25 13.06,-79.96 0,-4.35 0,-10.88 0,-19.58 0,-8.98 0,-15.64 0,-19.99 0,-21.22 0.95,-38.35 2.85,-51.41 11.56,0 21.49,4.22 29.85,12.65 2.72,4.89 4.29,18.08 4.83,39.57 1.09,31.82 1.9,51.13 2.45,57.93 0.27,3 3.81,8.23 10.61,15.71 6.79,7.48 10.19,13.4 10.19,17.75zm302.72 -133c-5.98,5.98 -8.91,12.51 -8.91,19.58 -11.96,2.99 -32.64,10.07 -62.15,21.22 -25.97,9.79 -40.72,14.68 -44.26,14.68 -10.27,0 -23.8,4.08 -40.59,12.24 -2.45,28.29 -6.74,67.45 -12.99,117.5 0,-2.72 0,7.48 0,30.6 0,45.15 -8.57,67.72 -25.7,67.72 -3,0 -5.51,-0.34 -7.55,-1.02 -2.04,-0.68 -3.2,-1.02 -3.47,-1.02 -0.54,0 -1.49,0.68 -2.85,2.04 -1.09,-4.62 -4.08,-14.28 -8.98,-28.97 -3.81,-11.69 -5.71,-19.58 -5.71,-23.66 0,-3.54 1.63,-8.43 4.89,-14.69 3.81,-7.61 5.99,-12.37 6.53,-14.28 4.08,-14.68 7.75,-34.54 11.02,-59.56 2.44,-20.94 3.67,-35.22 3.67,-42.84 0,-4.89 -1.77,-9.04 -5.31,-12.44 -3.53,-3.4 -7.61,-5.1 -12.23,-5.1 -3.81,0 -9.25,2.72 -16.32,8.16 -9.52,7.89 -14.69,11.97 -15.51,12.24 -4.35,2.72 -11.01,4.76 -19.99,6.12 -10.88,1.63 -17.81,2.99 -20.8,4.08l-10.2 -10.2 0 -15.03c25.84,-21.14 51.4,-36.85 76.7,-47.12 81.86,-33.38 128.51,-50.04 139.93,-50.04 4.62,0 7.62,0.81 8.98,2.51 1.36,1.7 2.58,3.27 3.67,4.83 16.86,-3.53 34.81,-4.08 53.85,-1.63 4.35,2.72 9.11,4.08 14.28,4.08zm272.93 0c-5.98,5.98 -8.9,12.51 -8.9,19.58 -11.97,2.99 -32.64,10.07 -62.15,21.22 -25.98,9.79 -40.73,14.68 -44.27,14.68 -10.26,0 -23.8,4.08 -40.59,12.24 -2.45,28.29 -6.73,67.45 -12.99,117.5 0,-2.72 0,7.48 0,30.6 0,45.15 -8.56,67.72 -25.7,67.72 -2.99,0 -5.51,-0.34 -7.55,-1.02 -2.04,-0.68 -3.19,-1.02 -3.47,-1.02 -0.54,0 -1.49,0.68 -2.85,2.04 -1.09,-4.62 -4.08,-14.28 -8.98,-28.97 -3.8,-11.69 -5.71,-19.58 -5.71,-23.66 0,-3.54 1.63,-8.43 4.9,-14.69 3.81,-7.61 5.98,-12.37 6.53,-14.28 4.08,-14.68 7.75,-34.54 11.01,-59.56 2.45,-20.94 3.67,-35.22 3.67,-42.84 0,-4.89 -1.77,-9.04 -5.3,-12.44 -3.54,-3.4 -7.62,-5.1 -12.24,-5.1 -3.81,0 -9.25,2.72 -16.32,8.16 -9.52,7.89 -14.69,11.97 -15.5,12.24 -4.35,2.72 -11.02,4.76 -19.99,6.12 -10.88,1.63 -17.82,2.99 -20.81,4.08l-10.2 -10.2 0 -15.03c25.84,-21.14 51.41,-36.85 76.7,-47.12 81.87,-33.38 128.51,-50.04 139.93,-50.04 4.63,0 7.62,0.81 8.98,2.51 1.36,1.7 2.58,3.27 3.67,4.83 16.86,-3.53 34.82,-4.08 53.85,-1.63 4.36,2.72 9.12,4.08 14.28,4.08zm298.23 109.06c0,11.49 -8.43,34.07 -25.29,67.86 -15.78,30.81 -25.7,47.8 -29.78,51.07 -11.7,10.06 -30.19,20.8 -55.49,32.3 -23.93,10.6 -39.84,15.91 -47.73,15.91l-53.85 0c-22.03,0 -32.51,0 -31.42,0 -1.63,-0.28 -5.3,-2.45 -11.01,-6.53 -8.98,-6.53 -23.12,-14.28 -42.43,-23.25 -7.89,-16.6 -13.19,-42.16 -15.91,-76.7 -0.27,-0.82 -1.84,-4.36 -4.69,-10.61 -2.86,-6.26 -4.29,-12.38 -4.29,-18.36 0,-5.17 3.27,-15.78 9.79,-31.82 4.9,-12.24 9.8,-24.34 14.69,-36.31 6.73,-17.95 26.86,-35.9 60.24,-53.85 30.74,-16.6 55.15,-24.89 73.37,-24.89 30.67,0 64.26,10.74 100.63,32.3 42.09,24.48 63.17,52.15 63.17,82.88zm-63.23 14.35c0,-14.76 -3.54,-30.12 -10.61,-46.24 -9.52,-21.01 -22.3,-31.48 -38.35,-31.48 -12.24,0 -22.17,3.67 -29.78,11.02 -4.08,4.08 -9.39,12.1 -15.91,24.07 -5.99,10.88 -11.83,18.36 -17.55,22.44 -7.34,-7.35 -13.46,-17 -18.36,-28.97 -0.81,-2.18 -4.07,-11.7 -9.79,-28.56 -11.69,8.43 -25.7,20.47 -42.02,35.97 -6.25,9.52 -12.92,23.53 -19.99,41.96 -7.07,18.35 -10.61,30.86 -10.61,37.39 0,11.42 9.93,33.93 29.79,67.45 5.44,1.09 14.68,1.64 27.74,1.64 14.69,0 23.25,-0.69 25.7,-2.04 2.45,-5.17 6.66,-9.52 12.65,-13.06 20.94,-1.43 44.33,-10.27 70.17,-26.59 31.28,-19.65 46.92,-41.34 46.92,-65zm375.74 -106.28c0,4.08 -6.8,30.19 -20.4,78.33 -19.85,70.72 -33.05,118.18 -39.57,142.39 0,0 -4.63,3.26 -13.87,9.79 -6.8,4.62 -13.06,7.61 -18.77,8.97 0,0.27 -5.17,-1.36 -15.5,-4.89 -4.63,-4.08 -6.94,-10.34 -6.94,-18.77 0.27,-10.06 -0.41,-16.59 -2.04,-19.58 -23.39,-47.05 -46.37,-85.13 -68.95,-114.23 -7.07,3.26 -14.28,19.72 -21.62,49.36 -8.43,32.91 -17,54.26 -25.7,64.05 -7.07,7.89 -13.87,18.09 -20.4,30.6 -5.71,11.15 -11.29,22.44 -16.73,33.86l-26.52 0c-7.34,-7.34 -11.01,-14.41 -11.01,-21.21 0,-4.08 7.82,-24.48 23.46,-61.2 15.64,-36.72 29.17,-66.5 40.59,-89.34 1.36,-2.72 9.25,-13.87 23.66,-33.46 9.79,-13.33 14.69,-25.43 14.69,-36.31 0,-2.45 -0.27,-5.03 -0.81,-7.75 1.08,0 3.33,-1.77 6.73,-5.3 3.4,-3.54 7.41,-5.31 12.03,-5.31 4.08,0 8.23,0.96 12.44,2.86 4.22,1.9 7.82,2.86 10.82,2.86 0,11.15 3.8,28.96 11.42,53.44 4.35,3.26 9.79,8.16 16.32,14.69 1.9,10.88 7.21,23.93 15.91,39.16 9.52,16.59 18.49,27.06 26.92,31.42 3.54,-1.36 7.69,-5.65 12.45,-12.85 4.76,-7.21 7.55,-12.86 8.36,-16.94 -0.54,-6.25 0.27,-15.09 2.45,-26.51 25.84,-51.14 38.35,-89.89 37.53,-116.28 11.43,-0.27 20.27,3.4 26.52,11.02 4.35,5.44 6.53,11.15 6.53,17.13zm319.85 15.51c0,7.34 -5.85,15.77 -17.54,25.29 -8.71,6.8 -17.95,12.65 -27.74,17.54 -7.62,-10.33 -15.37,-20.53 -23.26,-30.59 -4.62,-4.9 -14.96,-7.35 -31.01,-7.35 -13.32,0 -41.74,10.47 -85.26,31.42l0 22.44c6.25,2.99 16.18,5.57 29.78,7.75 15.5,2.72 25.57,4.89 30.19,6.52 16.32,5.44 32.23,20.54 47.73,45.29 13.6,21.76 20.4,38.48 20.4,50.18 0,11.15 -2.45,19.17 -7.34,24.07 -5.44,5.98 -14.42,14.01 -26.93,24.07 -13.32,8.16 -28.83,15.98 -46.51,23.46 -17.68,7.48 -29.51,11.22 -35.49,11.22l-30.6 0c-12.51,0 -43.52,-6.8 -93.02,-20.4 -1.63,-0.27 -4.35,-2.99 -8.16,-8.16 -4.62,-5.71 -8.29,-9.52 -11.01,-11.42 -1.09,-3.27 -1.63,-8.16 -1.63,-14.69 0,-8.16 3.94,-16.46 11.83,-24.89 9.25,-8.97 18.36,-18.08 27.33,-27.33 3.54,-0.55 8.71,-2.86 15.5,-6.94 4.9,7.35 9.66,14.69 14.28,22.03 5.72,7.62 10.75,12.65 15.1,15.1 9.79,5.17 23.53,9.79 41.2,13.87 15.51,4.08 26.66,6.12 33.46,6.12 12.78,0 25.09,-4.35 36.92,-13.06 11.83,-8.7 17.75,-17.81 17.75,-27.33 0,-4.08 -1.36,-8.63 -4.08,-13.67 -2.72,-5.03 -5.71,-8.77 -8.98,-11.22 -8.7,-5.44 -25.56,-11.96 -50.59,-19.58 -25.83,-7.89 -43.65,-14.82 -53.44,-20.81 -16.86,-10.06 -25.3,-23.11 -25.3,-39.16 0,-4.9 3.13,-11.42 9.39,-19.58 5.17,-7.35 10.81,-13.53 16.93,-18.57 6.12,-5.03 16.38,-9.72 30.8,-14.07 17.14,-5.17 28.56,-9.38 34.27,-12.65 28.01,-15.5 58.07,-23.25 90.16,-23.25 3.54,0 8.57,0.13 15.1,0.4 6.53,0.28 11.29,0.41 14.28,0.41 4.62,0 11.69,5.04 21.21,15.1 9.52,10.06 14.28,17.54 14.28,22.44z"/>
 </g>
</svg>
