<?xml version="1.0" encoding="UTF-8"?>
<!DOCTYPE svg PUBLIC "-//W3C//DTD SVG 1.1//EN" "http://www.w3.org/Graphics/SVG/1.1/DTD/svg11.dtd">
<!-- Creator: CorelDRAW 2017 -->
<svg xmlns="http://www.w3.org/2000/svg" xml:space="preserve" width="21.1666mm" height="21.1666mm" version="1.1" style="shape-rendering:geometricPrecision; text-rendering:geometricPrecision; image-rendering:optimizeQuality; fill-rule:evenodd; clip-rule:evenodd"
viewBox="0 0 2116.66 2116.66"
 xmlns:xlink="http://www.w3.org/1999/xlink">
 <defs>
  <style type="text/css">
   <![CDATA[
    .fil0 {fill:none}
    .fil1 {fill:#AA1018}
   ]]>
  </style>
 </defs>
 <g id="Capa_x0020_1">
  <metadata id="CorelCorpID_0Corel-Layer"/>
  <rect class="fil0" width="2116.66" height="2116.66"/>
  <g id="_1936497182352">
   <path class="fil1" d="M772.4 1162.27c-0.35,155.44 -6.08,456.75 1.55,588.28 227.3,16.75 359.73,83.57 419.15,83.57l314.97 -0.04c92.32,-0.03 152.93,-15.74 196.2,-66.32 21.17,-24.74 45.84,-44.41 48.34,-85.89 4.47,-74.14 -2.3,-51.03 38.68,-94.81 83.95,-89.7 42.89,-111.48 42.01,-196.68 -0.87,-82.88 9.9,-50.86 30.45,-101.53 12.89,-31.8 -9.26,-67.78 -9.21,-158.3 0.07,-82.63 50.19,-63.34 2.67,-144.42 -29.52,-50.37 -45.72,-76.97 -120.79,-77.03 -172.97,-0.13 -546.19,84.68 -418.93,-197.33 36.44,-80.75 79.8,-152.57 100.77,-245.7 22.12,-98.23 -3.12,-210.58 -101.27,-235.68 -0.51,98.81 -40.67,207.23 -77.81,284.63 -94.72,197.43 -128.97,77.95 -297.17,443.45 -39.12,85 -70,176.04 -169.61,203.8z"/>
   <path class="fil1" d="M240.29 1114.8c22.86,136.22 48.98,450.29 61.22,582.99 15.24,165.17 4.91,187.54 135.55,186.65 309.58,-2.11 232.8,85.63 237.57,-730.34 0.89,-152.49 -59.09,-123.13 -198.08,-123.13 -51.78,0 -114.5,-3.25 -164.89,-0.1 -45.45,2.83 -79.88,33.2 -71.37,83.93z"/>
  </g>
 </g>
</svg>
