<?xml version="1.0" encoding="UTF-8"?>
<!DOCTYPE svg PUBLIC "-//W3C//DTD SVG 1.1//EN" "http://www.w3.org/Graphics/SVG/1.1/DTD/svg11.dtd">
<!-- Creator: CorelDRAW 2017 -->
<svg xmlns="http://www.w3.org/2000/svg" xml:space="preserve" width="21.1666mm" height="21.1666mm" version="1.1" style="shape-rendering:geometricPrecision; text-rendering:geometricPrecision; image-rendering:optimizeQuality; fill-rule:evenodd; clip-rule:evenodd"
viewBox="0 0 2116.66 2116.66"
 xmlns:xlink="http://www.w3.org/1999/xlink">
 <defs>
  <style type="text/css">
   <![CDATA[
    .fil0 {fill:none}
    .fil1 {fill:#2B2A29}
   ]]>
  </style>
 </defs>
 <g id="Capa_x0020_1">
  <metadata id="CorelCorpID_0Corel-Layer"/>
  <rect class="fil0" width="2116.66" height="2116.66"/>
  <path class="fil1" d="M1656.69 459.55c0,84.9 -84.9,178.44 -254.69,280.63 -157.21,80.18 -315.21,160.36 -474,240.54 -169.79,88.04 -254.69,159.57 -254.69,214.6 0,31.44 17.29,56.59 51.88,75.46 26.73,14.15 57.38,21.22 91.97,21.22 51.88,0 98.66,-10.22 140.32,-30.65 41.66,-20.44 82.93,-41.66 123.8,-63.67l2.36 4.71c-20.44,64.46 -59.74,115.56 -117.91,153.28 -58.17,37.74 -121.84,56.6 -191.02,56.6 -69.17,0 -137.56,-19.65 -205.16,-58.95 -78.61,-44.41 -117.91,-98.66 -117.91,-163.11 0,-91.58 84.89,-189.05 254.69,-293.21 25.15,-15.72 182.36,-96.68 471.64,-243.28 169.79,-86.87 254.69,-153.69 254.69,-200.84 0,-42.85 -36.16,-75.86 -108.48,-99.44 -53.46,-17.3 -107.69,-25.95 -162.72,-25.95 -78.61,0 -154.07,15.73 -226.38,47.56 -78.61,34.59 -137.57,82.93 -176.87,144.64 -20.44,42.45 -40.88,85.29 -61.31,128.13 -31.45,64.85 -58.17,97.08 -80.18,97.08 -25.16,0 -45.6,-11.79 -61.32,-35.38 -15.72,-23.58 -23.58,-48.73 -23.58,-75.46 0,-146.21 65.24,-264.12 195.73,-353.73 114.76,-80.18 248.4,-120.27 400.9,-120.27 210.66,0 368.66,61.31 474,183.94 36.15,42.45 54.24,80.97 54.24,115.55zm-726.33 1297.02c0,37.73 -11.79,74.68 -35.38,110.84 -25.15,42.44 -55.81,63.67 -91.97,63.67 -29.87,0 -68.39,-18.08 -115.55,-54.24 -59.74,-45.59 -96.69,-71.53 -110.84,-77.82 -3.14,-12.58 -4.71,-25.16 -4.71,-37.73 0,-48.74 24.36,-88.04 73.1,-117.91 40.88,-26.73 87.26,-40.09 139.13,-40.09 40.88,0 75.47,15.33 103.77,45.98 28.3,30.66 42.45,66.43 42.45,107.3z"/>
 </g>
</svg>
