<?xml version="1.0" encoding="UTF-8"?>
<!DOCTYPE svg PUBLIC "-//W3C//DTD SVG 1.1//EN" "http://www.w3.org/Graphics/SVG/1.1/DTD/svg11.dtd">
<!-- Creator: CorelDRAW 2017 -->
<svg xmlns="http://www.w3.org/2000/svg" xml:space="preserve" width="21.1666mm" height="21.1666mm" version="1.1" style="shape-rendering:geometricPrecision; text-rendering:geometricPrecision; image-rendering:optimizeQuality; fill-rule:evenodd; clip-rule:evenodd"
viewBox="0 0 2116.66 2116.66"
 xmlns:xlink="http://www.w3.org/1999/xlink">
 <defs>
  <style type="text/css">
   <![CDATA[
    .fil0 {fill:none}
    .fil1 {fill:#262038}
   ]]>
  </style>
 </defs>
 <g id="Capa_x0020_1">
  <metadata id="CorelCorpID_0Corel-Layer"/>
  <rect class="fil0" width="2116.66" height="2116.66"/>
  <path class="fil1" d="M728.87 810.87c167.04,-58.44 175.03,-105.55 228.14,-281.49l167.42 0.42 5.09 264.71 258.63 0.03 -0.02 197.84 -258.61 0.18c-29.26,342.67 -34.04,493.82 257.94,382.69l0.62 136.48c-55.39,115.08 -373.5,81.74 -461.91,-5.24 -95.94,-94.39 -54.99,-384.64 -59.26,-543.45l-138.44 0.04 0.4 -152.21zm-549.84 142.63l0 209.67c26.88,56.75 19.37,136.51 97.21,292.24 219.25,438.67 618.18,446.84 697.23,482.23l169.73 0c79.17,-35.51 581.76,-59.56 756.51,-628.75 14.39,-46.86 18.32,-122.1 37.93,-165.69l0 -169.73c-19.61,-43.59 -23.54,-118.82 -37.93,-165.69 -72.7,-236.79 -233.85,-427.73 -453.51,-536.15 -50.53,-24.93 -89.69,-40.97 -147.75,-57.91 -46.79,-13.65 -114.52,-16.42 -155.25,-34.69l-169.73 0c-43.82,19.62 -119.54,23.75 -165.79,37.89 -53.53,16.38 -89.01,30.91 -137.2,54.71 -102.2,50.47 -152.83,90.18 -224.46,160.55 -71.85,70.59 -119.02,127.53 -169.78,229.08 -22.57,45.16 -39.58,84.61 -55.96,136.17 -15.22,47.9 -22.93,117.39 -41.25,156.07z"/>
 </g>
</svg>
