<?xml version="1.0" encoding="UTF-8"?>
<!DOCTYPE svg PUBLIC "-//W3C//DTD SVG 1.1//EN" "http://www.w3.org/Graphics/SVG/1.1/DTD/svg11.dtd">
<!-- Creator: CorelDRAW 2017 -->
<svg xmlns="http://www.w3.org/2000/svg" xml:space="preserve" width="21.1666mm" height="21.1666mm" version="1.1" style="shape-rendering:geometricPrecision; text-rendering:geometricPrecision; image-rendering:optimizeQuality; fill-rule:evenodd; clip-rule:evenodd"
viewBox="0 0 2116.66 2116.66"
 xmlns:xlink="http://www.w3.org/1999/xlink">
 <defs>
  <style type="text/css">
   <![CDATA[
    .fil0 {fill:none}
    .fil1 {fill:#AA1018}
   ]]>
  </style>
 </defs>
 <g id="Capa_x0020_1">
  <metadata id="CorelCorpID_0Corel-Layer"/>
  <rect class="fil0" width="2116.66" height="2116.66"/>
  <path class="fil1" d="M1734.36 573.25c51.72,-56.82 106.54,-87.68 131.72,-184.56 -43.51,13.15 -87.23,39.58 -133.21,55.64 -74.17,25.9 -76.14,31.41 -123.08,-8.72 -66.16,-56.54 -169.44,-92.72 -281.34,-74.72 -200.49,32.25 -314.13,197.57 -290.36,429.24 -480.69,-29.12 -661.64,-328.92 -732.3,-366.82 -27.8,101.99 -65.08,154.47 -25.66,283.21 26.61,86.9 75.89,136.9 130.63,183.07 -73.95,1.67 -95.08,-26.27 -149.85,-35.7 8.12,209.77 116.03,283.6 267.19,347.2 -39.44,13.35 -91.03,11.29 -139.75,7.91 35.72,150.78 169.17,223.25 315.1,247.53 -122.03,119.2 -296.83,143.42 -502.11,145.86 80.68,89 375.18,157.73 533.05,158.03 383.36,0.74 694.81,-186.78 875.39,-506.67 111.3,-197.16 110.45,-298.88 134.9,-545.12 35.33,-39.03 63.09,-47.28 98.25,-86.21 25.82,-28.58 48.46,-64.77 72.38,-94.69 -47.73,4.74 -109.95,38.38 -180.95,45.52z"/>
 </g>
</svg>
