<?xml version="1.0" encoding="utf-8"?>
<!-- Generator: Adobe Illustrator 21.0.0, SVG Export Plug-In . SVG Version: 6.00 Build 0)  -->
<svg version="1.1" id="Capa_1" xmlns="http://www.w3.org/2000/svg" xmlns:xlink="http://www.w3.org/1999/xlink" x="0px" y="0px"
	 viewBox="0 0 512 512" style="enable-background:new 0 0 512 512;" xml:space="preserve">
<style type="text/css">
	.st0{fill:#C1C1C1;}
</style>
<g>
	<path class="st0" d="M488.1,443.9V512H23.9v-68.1c0-32.2,27.7-71.7,61.6-87.8l75.4-35.8l52.3,109l26.8-72.6c5.3,1,10.5,2.3,16,2.3
		c5.5,0,10.7-1.3,16-2.3l25.4,69.1L348.7,319l77.8,37C460.4,372.1,488.1,411.7,488.1,443.9z M92.4,205.2V156
		c0-8.3,4.3-15.6,10.9-19.9C112.1,59.7,177.2,0,256,0s144,59.7,152.8,136.2c6.5,4.2,10.9,11.5,10.9,19.9v49.2
		c0,13.1-10.6,23.7-23.7,23.7c-13.1,0-23.7-10.6-23.7-23.7v-10.3c-12.8,64.4-59.9,124.2-116.3,124.2s-103.5-59.8-116.3-124.2v10.3
		c0,10.6-7,19.5-16.6,22.5c9.4,32,30.3,59.7,59.1,77.9c5.3-1.8,12-1.4,18.6,2c10.5,5.4,15.8,16,11.8,23.6
		c-3.9,7.6-15.6,9.3-26.2,3.8c-7.7-4-12.6-10.7-13.1-17c-33-21.1-56.5-53.5-66.1-90.8C98.6,223.7,92.4,215.2,92.4,205.2z
		 M119.4,130.7c0.7,0,1.4,0.1,2.1,0.3c1.7,0.6,3,1.9,3.8,3.3c5.1,2.2,9.2,6.2,11.7,11.1c7-65.4,57.5-100,119-100s112,34.6,119,100
		c3.5-6.8,10-11.7,17.9-12.7C382.7,66.2,325.3,15.1,256,15.1C187.4,15.1,130.5,65.2,119.4,130.7z"/>
</g>
</svg>
