<?xml version="1.0" encoding="utf-8"?>
<!-- Generator: Adobe Illustrator 21.0.0, SVG Export Plug-In . SVG Version: 6.00 Build 0)  -->
<svg version="1.1" id="Layer_1" xmlns="http://www.w3.org/2000/svg" xmlns:xlink="http://www.w3.org/1999/xlink" x="0px" y="0px"
	 viewBox="0 0 512 512" style="enable-background:new 0 0 512 512;" xml:space="preserve">
<style type="text/css">
	.st0{fill:#C1C1C1;}
</style>
<g>
	<g>
		<path class="st0" d="M435.7,147.1H283.8c-4.5,0-8.2,3.7-8.2,8.2s3.7,8.2,8.2,8.2h151.9c4.5,0,8.2-3.7,8.2-8.2
			S440.3,147.1,435.7,147.1z"/>
	</g>
</g>
<g>
	<g>
		<path class="st0" d="M495.8,212.4h-19.2v-81.7h2.7c4.5,0,8.2-3.7,8.2-8.2s-3.7-8.2-8.2-8.2h-13.9c-4-52.1-45.7-93.8-97.7-97.7V8.2
			c0-4.5-3.7-8.2-8.2-8.2s-8.2,3.7-8.2,8.2v8.5c-52.1,4-93.8,45.7-97.7,97.7h-13.9c-4.5,0-8.2,3.7-8.2,8.2s3.7,8.2,8.2,8.2h2.7v81.7
			h-57.2c3.6-4.8,6.1-10.3,7.4-16.3h3.5c4.5,0,8.2-3.7,8.2-8.2s-3.7-8.2-8.2-8.2h-10.9c3.6-4.8,6.1-10.3,7.4-16.3h3.5
			c4.5,0,8.2-3.7,8.2-8.2s-3.7-8.2-8.2-8.2h-10.9c3.6-4.8,6.1-10.3,7.4-16.3h3.5c4.5,0,8.2-3.7,8.2-8.2s-3.7-8.2-8.2-8.2h-10.9
			c3.6-4.8,6.1-10.3,7.4-16.3h3.5c4.5,0,8.2-3.7,8.2-8.2s-3.7-8.2-8.2-8.2H32.7c-4.5,0-8.2,3.7-8.2,8.2s3.7,8.2,8.2,8.2h3.5
			c1.2,6,3.8,11.6,7.4,16.3H32.7c-4.5,0-8.2,3.7-8.2,8.2s3.7,8.2,8.2,8.2h3.5c1.2,6,3.8,11.6,7.4,16.3H32.7c-4.5,0-8.2,3.7-8.2,8.2
			s3.7,8.2,8.2,8.2h3.5c1.2,6,3.8,11.6,7.4,16.3H32.7c-4.5,0-8.2,3.7-8.2,8.2s3.7,8.2,8.2,8.2h3.5c1.2,6,3.8,11.6,7.4,16.3H16.2
			c-4.5,0-8.2,3.7-8.2,8.2V286c0,4.5,3.7,8.2,8.2,8.2h403.3c4.5,0,8.2-3.7,8.2-8.2s-3.7-8.2-8.2-8.2H24.4v-49h463.2v49h-35.4
			c-4.5,0-8.2,3.7-8.2,8.2s3.7,8.2,8.2,8.2h32.6v168.5c-12.3-1.2-19.4-5.1-27.4-9.5c-10.1-5.6-21.6-11.9-43.4-11.9
			s-33.3,6.3-43.4,11.9c-9.6,5.3-17.9,9.9-35.5,9.9s-25.9-4.6-35.5-9.9c-10.1-5.6-21.6-11.9-43.4-11.9s-33.3,6.3-43.4,11.9
			c-9.6,5.3-17.9,9.9-35.5,9.9c-17.6,0-25.9-4.6-35.5-9.9c-10.1-5.6-21.6-11.9-43.4-11.9s-33.3,6.3-43.4,11.9
			c-2.3,1.3-4.5,2.5-6.8,3.6c-5.7,2.8-11.8,5.1-20.6,5.9v-144c0-4.5-3.7-8.2-8.2-8.2s-8.2,3.7-8.2,8.2v152.5c0,4.5,3.7,8.2,8.2,8.2
			c10.1,0,18-1.4,24.5-3.4v27.9c0,4.5,3.7,8.2,8.2,8.2s8.2-3.7,8.2-8.2v-35c0.9-0.5,1.7-0.9,2.6-1.4c9.6-5.3,17.9-9.9,35.5-9.9
			s25.9,4.6,35.5,9.9c10.1,5.6,21.6,11.9,43.4,11.9c21.9,0,33.3-6.3,43.4-11.9c9.6-5.3,17.9-9.9,35.5-9.9s25.9,4.6,35.5,9.9
			c10.1,5.6,21.6,11.9,43.4,11.9c21.8,0,33.3-6.3,43.4-11.9c9.6-5.3,17.9-9.9,35.5-9.9s25.9,4.6,35.5,9.9c0.8,0.5,1.7,0.9,2.6,1.4
			v35c0,4.5,3.7,8.2,8.2,8.2s8.2-3.7,8.2-8.2V476c6.6,2,14.4,3.4,24.5,3.4c4.5,0,8.2-3.7,8.2-8.2v-179c1.7-1.5,2.8-3.7,2.8-6.2
			v-65.4C503.9,216.1,500.3,212.4,495.8,212.4z M152.5,212.4H76.3c-10.7,0-19.7-6.8-23.1-16.3h122.5
			C172.2,205.6,163.2,212.4,152.5,212.4z M152.5,179.7H76.3c-10.7,0-19.7-6.8-23.1-16.3h122.5C172.2,172.9,163.2,179.7,152.5,179.7z
			 M152.5,147.1H76.3c-10.7,0-19.7-6.8-23.1-16.3h122.5C172.2,140.2,163.2,147.1,152.5,147.1z M152.5,114.4H76.3
			c-10.7,0-19.7-6.8-23.1-16.3h122.5C172.2,107.6,163.2,114.4,152.5,114.4z M359.5,32.7c46.8,0,85.3,36,89.5,81.7H270
			C274.1,68.6,312.7,32.7,359.5,32.7z M460.3,212.4H258.7v-81.7h201.5V212.4z"/>
	</g>
</g>
<g>
	<g>
		<circle class="st0" cx="446.6" cy="373.1" r="8.2"/>
	</g>
</g>
<g>
	<g>
		<circle class="st0" cx="414" cy="405.8" r="8.2"/>
	</g>
</g>
</svg>
