<?xml version="1.0" encoding="utf-8"?>
<!-- Generator: Adobe Illustrator 21.0.0, SVG Export Plug-In . SVG Version: 6.00 Build 0)  -->
<svg version="1.1" id="Capa_1" xmlns="http://www.w3.org/2000/svg" xmlns:xlink="http://www.w3.org/1999/xlink" x="0px" y="0px"
	 viewBox="0 0 512 512" style="enable-background:new 0 0 512 512;" xml:space="preserve">
<style type="text/css">
	.st0{fill:#C1C1C1;}
</style>
<g>
	<g>
		<path class="st0" d="M160.7,393.7h1.8v-19.8C82.7,366.5,20,299.1,20,217.4c0-86.7,70.5-157.3,157.3-157.3
			c85.7,0,155.4,68.9,157.1,154.1h20c-1.7-96.2-80.4-174.1-177.1-174.1C79.5,40.2,0,119.7,0,217.4C0,309.6,70.7,385.4,160.7,393.7
			L160.7,393.7z"/>
		<path class="st0" d="M179.5,149.2c8.9,0.2,17.7,0.7,26.5,1.5c3.3,21.1,4.6,42.3,4.2,63.5h19.9c0.3-20.7-1.9-41.4-6.6-61.6
			c10,1.3,20.1,3,30.1,5c9.5,1.8,19,4,28.4,6.3c3.6,16.5,4.9,33.2,4.1,50.1c0,0.1,0,0.2,0,0.2h20c0.6-15.2-0.9-30.5-4.6-45.3
			c8.7,2.3,17.3,4.8,26.1,7.3c-9.2-6.3-18.9-11.9-28.9-17c-1.6-4.9-3.4-9.7-5.5-14.5c-9.8-21.8-24.7-40.8-43-54.8
			c12.1,19.6,22.1,39.4,28.3,60.1c-6.9-2.8-13.8-5.4-21-7.7c-12.9-4.1-26.2-7.3-39.6-9.5c-3.5-10.5-7.7-20.7-12.8-30.5
			c-3-5.8-6.3-11.5-10-16.9c-3.6-5.4-7.5-10.7-12.1-15.4c5.3,11.8,9.4,23.8,13,35.9c2.4,8.2,4.5,16.5,6.2,24.8
			c-7.4-0.8-14.9-1.3-22.3-1.5c-15.4-0.4-30.9,0.7-46.1,3c1.9-9.5,4.2-18.9,7-28.2c3.6-12.1,7.7-24.1,12.9-35.9
			c-4.5,4.7-8.4,9.9-12,15.3c-3.7,5.4-6.9,11.1-10,16.9c-5.8,11.2-10.5,22.9-14.2,35c-5.3,1.2-10.6,2.6-15.8,4.1
			c-9.8,3-19.4,6.6-28.6,10.9c6.2-20.2,16-39.5,27.8-58.5c-18.3,14-33.2,33.1-43,54.8c-2.2,4.9-4.1,9.9-5.7,15.1
			c-1.3,0.8-2.6,1.6-3.9,2.4c-5.4,3.6-10.7,7.5-15.4,12.1c5.6-2.5,11.3-4.8,17-6.8c-4.1,15.4-5.7,31.5-5,47.4
			c0.7,15.3,3.4,30.2,7.8,44.7c-7.6-2.5-15.1-5.4-22.5-8.7c4.7,4.5,10,8.4,15.4,12.1c3.4,2.2,6.8,4.3,10.4,6.3
			c1.8,4.9,3.6,9.6,5.7,14.3c4.8,10.7,10.5,20.9,16.9,30.6c3.3,4.8,6.7,9.5,10.4,14c3.7,4.5,7.5,8.9,11.8,12.8
			c-9.6-20.3-17.6-40.7-23.9-61.4c7.2,3.1,14.6,5.8,22.2,8c7.1,2.2,14.3,3.9,21.5,5.4c8,24.1,18.9,47.1,33.1,67.9
			c-6.3-21.9-12.2-43.5-16.9-65.1c8.5,1.1,17.1,1.7,25.6,2v-19.8c-9.8-0.1-19.6-0.5-29.4-1.4c-3.7-21.2-6-42.5-6.5-63.7
			c-0.5-21.2,0.7-42.5,3.9-63.5C146.8,149.5,163.1,148.8,179.5,149.2z M102.8,274.4c-10-1.8-19.9-4.1-29.7-6.7
			c-4.4-17.1-7.3-34.4-8.1-51.7c-0.8-17.8,0.7-35.5,4.7-52.9c11.8-3.4,23.7-6.2,35.7-8.3c2.4-0.4,4.9-0.9,7.3-1.2
			c-4.5,20.2-6.5,40.9-6,61.7c0.5,20.7,3.4,41.2,8.5,61.1C111.1,275.8,106.9,275.2,102.8,274.4z"/>
		<path class="st0" d="M481.1,389.6v-90.5v-75H275.3H175v76.6v88.9h193.3H481.1z M184.7,303.2v-66.4H269h202.4v58.7l0,0V377h-96.7
			h-190V303.2L184.7,303.2z"/>
		<polygon class="st0" points="146.5,471.8 507.1,471.8 509.7,462.9 143.1,462.9 		"/>
		<path class="st0" d="M492.7,403.6H167.8l-24.7,54.7h368l0.9-3L492.7,403.6z M298.1,455.9l5.8-17.5h35.9l6.9,17.5H298.1z
			 M167.7,435.5l12.1-25.6h295.7l10.4,25.6H167.7z"/>
	</g>
</g>
</svg>
