<?xml version="1.0" encoding="UTF-8"?>
<!DOCTYPE svg PUBLIC "-//W3C//DTD SVG 1.0//EN" "http://www.w3.org/TR/2001/REC-SVG-20010904/DTD/svg10.dtd">
<!-- Creator: CorelDRAW 2017 -->
<svg xmlns="http://www.w3.org/2000/svg" xml:space="preserve" width="153.723mm" height="50.7998mm" version="1.0" style="shape-rendering:geometricPrecision; text-rendering:geometricPrecision; image-rendering:optimizeQuality; fill-rule:evenodd; clip-rule:evenodd"
viewBox="0 0 15372.28 5079.98"
 xmlns:xlink="http://www.w3.org/1999/xlink">
 <defs>
  <style type="text/css">
   <![CDATA[
    .str0 {stroke:#FEFEFE;stroke-width:20;stroke-miterlimit:22.9256}
    .str1 {stroke:#FEFEFE;stroke-width:115.04;stroke-linecap:round;stroke-linejoin:round;stroke-miterlimit:22.9256}
    .fil1 {fill:none}
    .fil6 {fill:none;fill-rule:nonzero}
    .fil7 {fill:#005DAA}
    .fil0 {fill:#FEFEFE}
    .fil3 {fill:#005DAA;fill-rule:nonzero}
    .fil4 {fill:#DD1486;fill-rule:nonzero}
    .fil5 {fill:#FEC02D;fill-rule:nonzero}
    .fil2 {fill:#FEFEFE;fill-rule:nonzero}
   ]]>
  </style>
 </defs>
 <g id="Capa_x0020_1">
  <metadata id="CorelCorpID_0Corel-Layer"/>
  <g id="_2527054738816">
   <g>
    <path class="fil0 str0" d="M10061 1071.22c2525.05,0 4572.04,678.98 4572.04,1516.51 0,837.6 -2046.99,1516.57 -4572.04,1516.57 -2525.05,0 -4571.98,-678.97 -4571.98,-1516.57 0,-837.53 2046.93,-1516.51 4571.98,-1516.51z"/>
    <path class="fil1 str1" d="M6167.16 694.55c139.6,0 264.21,35.44 373.91,106.32 109.63,70.95 194.95,170.65 255.91,299.18 60.89,128.46 91.34,276.91 91.34,445.33 0,166.19 -29.91,312.41 -89.72,438.71 -59.81,126.3 -144.59,223.78 -254.22,292.44 -109.7,68.71 -235.45,103.07 -377.22,103.07 -121.91,0 -229.31,-26.05 -322.4,-78.1 -93.09,-52.11 -163.97,-126.84 -212.71,-224.38l0 877.42 -335.7 0 0 -2220.1 335.7 0 0 265.9c48.74,-97.54 119.62,-172.87 212.71,-226 93.09,-53.2 200.49,-79.79 322.4,-79.79zm-79.79 1419.15c146.22,0 259.22,-49.28 339.01,-147.9 79.79,-98.62 119.62,-238.76 119.62,-420.42 0,-183.89 -40.43,-326.79 -121.3,-428.73 -80.88,-101.93 -193.28,-152.89 -337.33,-152.89 -146.22,0 -258.68,49.82 -337.32,149.52 -78.65,99.77 -118,241.53 -118,425.42 0,183.94 39.35,325.71 118,425.41 78.64,99.71 191.1,149.59 337.32,149.59zm1577.17 -1419.15c217.16,0 378.36,54.27 483.6,162.82 105.24,108.61 157.83,273.67 157.83,495.22l0 1003.72 -322.34 0 0 -269.2c-42.12,95.25 -104.7,167.81 -187.8,217.7 -83.1,49.82 -180.03,74.79 -290.81,74.79 -106.38,0 -203.86,-21.6 -292.49,-64.8 -88.64,-43.21 -157.84,-103.62 -207.72,-181.18 -49.82,-77.5 -74.79,-163.97 -74.79,-259.22 0,-117.46 30.51,-209.94 91.4,-277.51 60.95,-67.58 161.74,-115.78 302.48,-144.6 140.69,-28.76 334.02,-43.2 579.94,-43.2l76.42 0 0 -96.34c0,-124.13 -26,-213.85 -78.1,-269.2 -52.05,-55.42 -136.78,-83.1 -254.23,-83.1 -183.89,0 -367.83,56.5 -551.72,169.5l-99.7 -235.99c86.41,-59.81 191.1,-108.01 314.1,-144.59 122.93,-36.53 240.92,-54.82 353.93,-54.82zm-99.71 1435.76c121.85,0 221.55,-41.52 299.12,-124.62 77.56,-83.09 116.31,-190.02 116.31,-320.71l0 -86.41 -59.81 0c-172.82,0 -305.74,7.76 -398.82,23.23 -93.03,15.52 -159.52,41.58 -199.41,78.1 -39.9,36.58 -59.81,89.17 -59.81,157.89 0,77.56 28.22,142.37 84.72,194.42 56.5,52.04 129.07,78.1 217.7,78.1zm1912.86 -1153.25l-202.71 19.91c-159.58,15.53 -274.21,64.27 -344.01,146.28 -69.8,81.95 -104.7,186.11 -104.7,312.41l0 900.65 -335.69 0 0 -1621.87 325.71 0 0 282.51c86.4,-190.56 262.59,-295.81 528.48,-315.78l109.64 -6.62 23.28 282.51zm623.32 -282.51c217.16,0 378.36,54.27 483.61,162.82 105.24,108.61 157.83,273.67 157.83,495.22l0 1003.72 -322.34 0 0 -269.2c-42.12,95.25 -104.7,167.81 -187.8,217.7 -83.1,49.82 -180.03,74.79 -290.81,74.79 -106.38,0 -203.86,-21.6 -292.5,-64.8 -88.63,-43.21 -157.83,-103.62 -207.71,-181.18 -49.82,-77.5 -74.79,-163.97 -74.79,-259.22 0,-117.46 30.5,-209.94 91.4,-277.51 60.95,-67.58 161.74,-115.78 302.48,-144.6 140.68,-28.76 334.02,-43.2 579.94,-43.2l76.42 0 0 -96.34c0,-124.13 -26,-213.85 -78.11,-269.2 -52.05,-55.42 -136.77,-83.1 -254.22,-83.1 -183.89,0 -367.83,56.5 -551.72,169.5l-99.7 -235.99c86.4,-59.81 191.1,-108.01 314.09,-144.59 122.93,-36.53 240.93,-54.82 353.93,-54.82zm-99.7 1435.76c121.85,0 221.55,-41.52 299.11,-124.62 77.57,-83.09 116.32,-190.02 116.32,-320.71l0 -86.41 -59.81 0c-172.82,0 -305.74,7.76 -398.82,23.23 -93.03,15.52 -159.52,41.58 -199.41,78.1 -39.9,36.58 -59.81,89.17 -59.81,157.89 0,77.56 28.22,142.37 84.72,194.42 56.5,52.04 129.07,78.1 217.7,78.1zm925.74 226l0 -2343.09 335.7 0 0 2343.09 -335.7 0zm1234.91 23.29c-159.52,0 -299.66,-34.36 -420.42,-103.07 -120.77,-68.66 -213.85,-166.74 -279.2,-294.12 -65.34,-127.39 -98.02,-275.29 -98.02,-443.71 0,-170.59 32.68,-319.57 98.02,-447.02 65.35,-127.38 158.43,-225.4 279.2,-294.12 120.76,-68.65 260.9,-103.01 420.42,-103.01 159.52,0 299.66,34.36 420.42,103.01 120.77,68.72 213.79,166.74 279.2,294.12 65.34,127.45 98.02,276.43 98.02,447.02 0,168.42 -32.68,316.32 -98.02,443.71 -65.41,127.38 -158.43,225.46 -279.2,294.12 -120.76,68.71 -260.9,103.07 -420.42,103.07zm0 -265.9c148.44,0 261.99,-48.74 340.63,-146.22 78.71,-97.53 118,-240.44 118,-428.78 0,-186.11 -39.89,-328.48 -119.62,-427.04 -79.79,-98.62 -192.79,-147.9 -339.01,-147.9 -146.22,0 -259.22,49.28 -339.01,147.9 -79.73,98.56 -119.62,240.93 -119.62,427.04 0,188.34 39.29,331.25 118,428.78 78.64,97.48 192.19,146.22 340.63,146.22zm1467.53 265.9c-281.42,0 -506.28,-68.72 -674.71,-206.09l103.02 -242.61c166.19,128.53 360.07,192.79 581.62,192.79 108.61,0 191.65,-18.29 249.29,-54.88 57.59,-36.52 86.41,-88.03 86.41,-154.52 0,-57.64 -19.38,-103.01 -58.19,-136.29 -38.75,-33.21 -105.78,-60.89 -201.03,-83.09l-269.21 -59.82c-144.05,-33.21 -252.6,-87.49 -325.71,-162.82 -73.11,-75.34 -109.69,-170.65 -109.69,-285.82 0,-146.27 59.26,-264.81 177.8,-355.61 118.54,-90.86 274.21,-136.29 467,-136.29 115.17,0 224.86,18.29 329.02,54.82 104.09,36.58 193.87,88.09 269.21,154.58l-103.08 235.93c-159.51,-126.3 -324.57,-189.42 -495.15,-189.42 -101.93,0 -182.26,19.92 -240.99,59.81 -58.73,39.89 -88.09,94.17 -88.09,162.89 0,55.35 18.29,100.24 54.87,134.6 36.53,34.3 94.71,60.35 174.44,78.1l275.89 63.12c157.29,35.44 272.52,90.32 345.63,164.51 73.11,74.25 109.69,171.19 109.69,290.81 0,146.22 -59.27,261.99 -177.81,347.31 -118.54,85.33 -278.65,127.99 -480.23,127.99zm703.11 -418.8l395.51 0 0 395.51 -395.51 0 0 -395.51z"/>
    <path id="_1" class="fil2" d="M6167.16 694.55c139.6,0 264.21,35.44 373.91,106.32 109.63,70.95 194.95,170.65 255.91,299.18 60.89,128.46 91.34,276.91 91.34,445.33 0,166.19 -29.91,312.41 -89.72,438.71 -59.81,126.3 -144.59,223.78 -254.22,292.44 -109.7,68.71 -235.45,103.07 -377.22,103.07 -121.91,0 -229.31,-26.05 -322.4,-78.1 -93.09,-52.11 -163.97,-126.84 -212.71,-224.38l0 877.42 -335.7 0 0 -2220.1 335.7 0 0 265.9c48.74,-97.54 119.62,-172.87 212.71,-226 93.09,-53.2 200.49,-79.79 322.4,-79.79zm-79.79 1419.15c146.22,0 259.22,-49.28 339.01,-147.9 79.79,-98.62 119.62,-238.76 119.62,-420.42 0,-183.89 -40.43,-326.79 -121.3,-428.73 -80.88,-101.93 -193.28,-152.89 -337.33,-152.89 -146.22,0 -258.68,49.82 -337.32,149.52 -78.65,99.77 -118,241.53 -118,425.42 0,183.94 39.35,325.71 118,425.41 78.64,99.71 191.1,149.59 337.32,149.59zm1577.17 -1419.15c217.16,0 378.36,54.27 483.6,162.82 105.24,108.61 157.83,273.67 157.83,495.22l0 1003.72 -322.34 0 0 -269.2c-42.12,95.25 -104.7,167.81 -187.8,217.7 -83.1,49.82 -180.03,74.79 -290.81,74.79 -106.38,0 -203.86,-21.6 -292.49,-64.8 -88.64,-43.21 -157.84,-103.62 -207.72,-181.18 -49.82,-77.5 -74.79,-163.97 -74.79,-259.22 0,-117.46 30.51,-209.94 91.4,-277.51 60.95,-67.58 161.74,-115.78 302.48,-144.6 140.69,-28.76 334.02,-43.2 579.94,-43.2l76.42 0 0 -96.34c0,-124.13 -26,-213.85 -78.1,-269.2 -52.05,-55.42 -136.78,-83.1 -254.23,-83.1 -183.89,0 -367.83,56.5 -551.72,169.5l-99.7 -235.99c86.41,-59.81 191.1,-108.01 314.1,-144.59 122.93,-36.53 240.92,-54.82 353.93,-54.82zm-99.71 1435.76c121.85,0 221.55,-41.52 299.12,-124.62 77.56,-83.09 116.31,-190.02 116.31,-320.71l0 -86.41 -59.81 0c-172.82,0 -305.74,7.76 -398.82,23.23 -93.03,15.52 -159.52,41.58 -199.41,78.1 -39.9,36.58 -59.81,89.17 -59.81,157.89 0,77.56 28.22,142.37 84.72,194.42 56.5,52.04 129.07,78.1 217.7,78.1zm1912.86 -1153.25l-202.71 19.91c-159.58,15.53 -274.21,64.27 -344.01,146.28 -69.8,81.95 -104.7,186.11 -104.7,312.41l0 900.65 -335.69 0 0 -1621.87 325.71 0 0 282.51c86.4,-190.56 262.59,-295.81 528.48,-315.78l109.64 -6.62 23.28 282.51zm623.32 -282.51c217.16,0 378.36,54.27 483.61,162.82 105.24,108.61 157.83,273.67 157.83,495.22l0 1003.72 -322.34 0 0 -269.2c-42.12,95.25 -104.7,167.81 -187.8,217.7 -83.1,49.82 -180.03,74.79 -290.81,74.79 -106.38,0 -203.86,-21.6 -292.5,-64.8 -88.63,-43.21 -157.83,-103.62 -207.71,-181.18 -49.82,-77.5 -74.79,-163.97 -74.79,-259.22 0,-117.46 30.5,-209.94 91.4,-277.51 60.95,-67.58 161.74,-115.78 302.48,-144.6 140.68,-28.76 334.02,-43.2 579.94,-43.2l76.42 0 0 -96.34c0,-124.13 -26,-213.85 -78.11,-269.2 -52.05,-55.42 -136.77,-83.1 -254.22,-83.1 -183.89,0 -367.83,56.5 -551.72,169.5l-99.7 -235.99c86.4,-59.81 191.1,-108.01 314.09,-144.59 122.93,-36.53 240.93,-54.82 353.93,-54.82zm-99.7 1435.76c121.85,0 221.55,-41.52 299.11,-124.62 77.57,-83.09 116.32,-190.02 116.32,-320.71l0 -86.41 -59.81 0c-172.82,0 -305.74,7.76 -398.82,23.23 -93.03,15.52 -159.52,41.58 -199.41,78.1 -39.9,36.58 -59.81,89.17 -59.81,157.89 0,77.56 28.22,142.37 84.72,194.42 56.5,52.04 129.07,78.1 217.7,78.1zm925.74 226l0 -2343.09 335.7 0 0 2343.09 -335.7 0zm1234.91 23.29c-159.52,0 -299.66,-34.36 -420.42,-103.07 -120.77,-68.66 -213.85,-166.74 -279.2,-294.12 -65.34,-127.39 -98.02,-275.29 -98.02,-443.71 0,-170.59 32.68,-319.57 98.02,-447.02 65.35,-127.38 158.43,-225.4 279.2,-294.12 120.76,-68.65 260.9,-103.01 420.42,-103.01 159.52,0 299.66,34.36 420.42,103.01 120.77,68.72 213.79,166.74 279.2,294.12 65.34,127.45 98.02,276.43 98.02,447.02 0,168.42 -32.68,316.32 -98.02,443.71 -65.41,127.38 -158.43,225.46 -279.2,294.12 -120.76,68.71 -260.9,103.07 -420.42,103.07zm0 -265.9c148.44,0 261.99,-48.74 340.63,-146.22 78.71,-97.53 118,-240.44 118,-428.78 0,-186.11 -39.89,-328.48 -119.62,-427.04 -79.79,-98.62 -192.79,-147.9 -339.01,-147.9 -146.22,0 -259.22,49.28 -339.01,147.9 -79.73,98.56 -119.62,240.93 -119.62,427.04 0,188.34 39.29,331.25 118,428.78 78.64,97.48 192.19,146.22 340.63,146.22zm1467.53 265.9c-281.42,0 -506.28,-68.72 -674.71,-206.09l103.02 -242.61c166.19,128.53 360.07,192.79 581.62,192.79 108.61,0 191.65,-18.29 249.29,-54.88 57.59,-36.52 86.41,-88.03 86.41,-154.52 0,-57.64 -19.38,-103.01 -58.19,-136.29 -38.75,-33.21 -105.78,-60.89 -201.03,-83.09l-269.21 -59.82c-144.05,-33.21 -252.6,-87.49 -325.71,-162.82 -73.11,-75.34 -109.69,-170.65 -109.69,-285.82 0,-146.27 59.26,-264.81 177.8,-355.61 118.54,-90.86 274.21,-136.29 467,-136.29 115.17,0 224.86,18.29 329.02,54.82 104.09,36.58 193.87,88.09 269.21,154.58l-103.08 235.93c-159.51,-126.3 -324.57,-189.42 -495.15,-189.42 -101.93,0 -182.26,19.92 -240.99,59.81 -58.73,39.89 -88.09,94.17 -88.09,162.89 0,55.35 18.29,100.24 54.87,134.6 36.53,34.3 94.71,60.35 174.44,78.1l275.89 63.12c157.29,35.44 272.52,90.32 345.63,164.51 73.11,74.25 109.69,171.19 109.69,290.81 0,146.22 -59.27,261.99 -177.81,347.31 -118.54,85.33 -278.65,127.99 -480.23,127.99zm703.11 -418.8l395.51 0 0 395.51 -395.51 0 0 -395.51z"/>
    <path class="fil3" d="M6167.16 694.55c139.6,0 264.21,35.44 373.91,106.32 109.63,70.95 194.95,170.65 255.91,299.18 60.89,128.46 91.34,276.91 91.34,445.33 0,166.19 -29.91,312.41 -89.72,438.71 -59.81,126.3 -144.59,223.78 -254.22,292.44 -109.7,68.71 -235.45,103.07 -377.22,103.07 -121.91,0 -229.31,-26.05 -322.4,-78.1 -93.09,-52.11 -163.97,-126.84 -212.71,-224.38l0 877.42 -335.7 0 0 -2220.1 335.7 0 0 265.9c48.74,-97.54 119.62,-172.87 212.71,-226 93.09,-53.2 200.49,-79.79 322.4,-79.79zm-79.79 1419.15c146.22,0 259.22,-49.28 339.01,-147.9 79.79,-98.62 119.62,-238.76 119.62,-420.42 0,-183.89 -40.43,-326.79 -121.3,-428.73 -80.88,-101.93 -193.28,-152.89 -337.33,-152.89 -146.22,0 -258.68,49.82 -337.32,149.52 -78.65,99.77 -118,241.53 -118,425.42 0,183.94 39.35,325.71 118,425.41 78.64,99.71 191.1,149.59 337.32,149.59zm1577.17 -1419.15c217.16,0 378.36,54.27 483.6,162.82 105.24,108.61 157.83,273.67 157.83,495.22l0 1003.72 -322.34 0 0 -269.2c-42.12,95.25 -104.7,167.81 -187.8,217.7 -83.1,49.82 -180.03,74.79 -290.81,74.79 -106.38,0 -203.86,-21.6 -292.49,-64.8 -88.64,-43.21 -157.84,-103.62 -207.72,-181.18 -49.82,-77.5 -74.79,-163.97 -74.79,-259.22 0,-117.46 30.51,-209.94 91.4,-277.51 60.95,-67.58 161.74,-115.78 302.48,-144.6 140.69,-28.76 334.02,-43.2 579.94,-43.2l76.42 0 0 -96.34c0,-124.13 -26,-213.85 -78.1,-269.2 -52.05,-55.42 -136.78,-83.1 -254.23,-83.1 -183.89,0 -367.83,56.5 -551.72,169.5l-99.7 -235.99c86.41,-59.81 191.1,-108.01 314.1,-144.59 122.93,-36.53 240.92,-54.82 353.93,-54.82zm-99.71 1435.76c121.85,0 221.55,-41.52 299.12,-124.62 77.56,-83.09 116.31,-190.02 116.31,-320.71l0 -86.41 -59.81 0c-172.82,0 -305.74,7.76 -398.82,23.23 -93.03,15.52 -159.52,41.58 -199.41,78.1 -39.9,36.58 -59.81,89.17 -59.81,157.89 0,77.56 28.22,142.37 84.72,194.42 56.5,52.04 129.07,78.1 217.7,78.1zm1912.86 -1153.25l-202.71 19.91c-159.58,15.53 -274.21,64.27 -344.01,146.28 -69.8,81.95 -104.7,186.11 -104.7,312.41l0 900.65 -335.69 0 0 -1621.87 325.71 0 0 282.51c86.4,-190.56 262.59,-295.81 528.48,-315.78l109.64 -6.62 23.28 282.51zm623.32 -282.51c217.16,0 378.36,54.27 483.61,162.82 105.24,108.61 157.83,273.67 157.83,495.22l0 1003.72 -322.34 0 0 -269.2c-42.12,95.25 -104.7,167.81 -187.8,217.7 -83.1,49.82 -180.03,74.79 -290.81,74.79 -106.38,0 -203.86,-21.6 -292.5,-64.8 -88.63,-43.21 -157.83,-103.62 -207.71,-181.18 -49.82,-77.5 -74.79,-163.97 -74.79,-259.22 0,-117.46 30.5,-209.94 91.4,-277.51 60.95,-67.58 161.74,-115.78 302.48,-144.6 140.68,-28.76 334.02,-43.2 579.94,-43.2l76.42 0 0 -96.34c0,-124.13 -26,-213.85 -78.11,-269.2 -52.05,-55.42 -136.77,-83.1 -254.22,-83.1 -183.89,0 -367.83,56.5 -551.72,169.5l-99.7 -235.99c86.4,-59.81 191.1,-108.01 314.09,-144.59 122.93,-36.53 240.93,-54.82 353.93,-54.82zm-99.7 1435.76c121.85,0 221.55,-41.52 299.11,-124.62 77.57,-83.09 116.32,-190.02 116.32,-320.71l0 -86.41 -59.81 0c-172.82,0 -305.74,7.76 -398.82,23.23 -93.03,15.52 -159.52,41.58 -199.41,78.1 -39.9,36.58 -59.81,89.17 -59.81,157.89 0,77.56 28.22,142.37 84.72,194.42 56.5,52.04 129.07,78.1 217.7,78.1z"/>
    <path class="fil4" d="M10927.05 2356.31l0 -2343.09 335.7 0 0 2343.09 -335.7 0zm1234.91 23.29c-159.52,0 -299.66,-34.36 -420.42,-103.07 -120.77,-68.66 -213.85,-166.74 -279.2,-294.12 -65.34,-127.39 -98.02,-275.29 -98.02,-443.71 0,-170.59 32.68,-319.57 98.02,-447.02 65.35,-127.38 158.43,-225.4 279.2,-294.12 120.76,-68.65 260.9,-103.01 420.42,-103.01 159.52,0 299.66,34.36 420.42,103.01 120.77,68.72 213.79,166.74 279.2,294.12 65.34,127.45 98.02,276.43 98.02,447.02 0,168.42 -32.68,316.32 -98.02,443.71 -65.41,127.38 -158.43,225.46 -279.2,294.12 -120.76,68.71 -260.9,103.07 -420.42,103.07zm0 -265.9c148.44,0 261.99,-48.74 340.63,-146.22 78.71,-97.53 118,-240.44 118,-428.78 0,-186.11 -39.89,-328.48 -119.62,-427.04 -79.79,-98.62 -192.79,-147.9 -339.01,-147.9 -146.22,0 -259.22,49.28 -339.01,147.9 -79.73,98.56 -119.62,240.93 -119.62,427.04 0,188.34 39.29,331.25 118,428.78 78.64,97.48 192.19,146.22 340.63,146.22zm1467.53 265.9c-281.42,0 -506.28,-68.72 -674.71,-206.09l103.02 -242.61c166.19,128.53 360.07,192.79 581.62,192.79 108.61,0 191.65,-18.29 249.29,-54.88 57.59,-36.52 86.41,-88.03 86.41,-154.52 0,-57.64 -19.38,-103.01 -58.19,-136.29 -38.75,-33.21 -105.78,-60.89 -201.03,-83.09l-269.21 -59.82c-144.05,-33.21 -252.6,-87.49 -325.71,-162.82 -73.11,-75.34 -109.69,-170.65 -109.69,-285.82 0,-146.27 59.26,-264.81 177.8,-355.61 118.54,-90.86 274.21,-136.29 467,-136.29 115.17,0 224.86,18.29 329.02,54.82 104.09,36.58 193.87,88.09 269.21,154.58l-103.08 235.93c-159.51,-126.3 -324.57,-189.42 -495.15,-189.42 -101.93,0 -182.26,19.92 -240.99,59.81 -58.73,39.89 -88.09,94.17 -88.09,162.89 0,55.35 18.29,100.24 54.87,134.6 36.53,34.3 94.71,60.35 174.44,78.1l275.89 63.12c157.29,35.44 272.52,90.32 345.63,164.51 73.11,74.25 109.69,171.19 109.69,290.81 0,146.22 -59.27,261.99 -177.81,347.31 -118.54,85.33 -278.65,127.99 -480.23,127.99z"/>
    <path class="fil5" d="M14332.6 1960.8l395.51 0 0 395.51 -395.51 0 0 -395.51z"/>
    <path class="fil6 str1" d="M6717.61 3193.97c363.38,0 545.1,218.24 545.1,654.72l0 1007.04 -335.7 0 0 -993.74c0,-137.37 -23.83,-237.62 -71.42,-300.8 -47.66,-63.12 -124.68,-94.71 -231,-94.71 -121.85,0 -218.25,42.12 -289.13,126.3 -70.94,84.18 -106.38,199.41 -106.38,345.63l0 917.32 -335.7 0 0 -993.74c0,-137.37 -24.37,-237.62 -73.11,-300.8 -48.74,-63.12 -125.16,-94.71 -229.32,-94.71 -124.07,0 -221.55,42.12 -292.43,126.3 -70.94,84.18 -106.38,199.41 -106.38,345.63l0 917.32 -335.7 0 0 -1621.87 329.08 0 0 245.92c50.9,-90.86 119.62,-161.2 206.03,-211.02 86.4,-49.88 185.02,-74.79 295.8,-74.79 250.38,0 413.2,104.15 488.54,312.41 50.96,-97.48 124.07,-173.96 219.38,-229.32 95.25,-55.42 202.72,-83.09 322.34,-83.09zm1434.32 1685.05c-159.52,0 -299.66,-34.36 -420.42,-103.08 -120.77,-68.65 -213.85,-166.73 -279.2,-294.12 -65.35,-127.38 -98.02,-275.28 -98.02,-443.7 0,-170.59 32.67,-319.58 98.02,-447.02 65.35,-127.38 158.43,-225.4 279.2,-294.12 120.76,-68.66 260.9,-103.01 420.42,-103.01 159.51,0 299.65,34.35 420.42,103.01 120.76,68.72 213.79,166.74 279.2,294.12 65.34,127.44 98.02,276.43 98.02,447.02 0,168.42 -32.68,316.32 -98.02,443.7 -65.41,127.39 -158.44,225.47 -279.2,294.12 -120.77,68.72 -260.91,103.08 -420.42,103.08zm0 -265.9c148.44,0 261.99,-48.74 340.63,-146.22 78.71,-97.54 118,-240.45 118,-428.78 0,-186.12 -39.9,-328.48 -119.62,-427.04 -79.79,-98.63 -192.79,-147.91 -339.01,-147.91 -146.22,0 -259.22,49.28 -339.01,147.91 -79.73,98.56 -119.62,240.92 -119.62,427.04 0,188.33 39.29,331.24 118,428.78 78.64,97.48 192.18,146.22 340.63,146.22zm1769.95 -1419.15c387.75,0 581.62,218.24 581.62,654.72l0 1007.04 -335.69 0 0 -990.43c0,-137.37 -27.14,-238.16 -81.42,-302.42 -54.27,-64.26 -139.05,-96.4 -254.22,-96.4 -135.21,0 -243.76,42.12 -325.71,126.3 -82.02,84.18 -122.99,197.19 -122.99,339.01l0 923.94 -335.7 0 0 -1621.87 329.08 0 0 259.22c53.13,-97.48 127.38,-171.73 222.63,-222.7 95.31,-50.96 202.72,-76.41 322.4,-76.41zm1337.92 1685.05c-281.42,0 -506.28,-68.72 -674.7,-206.09l103.01 -242.61c166.2,128.52 360.07,192.79 581.62,192.79 108.61,0 191.65,-18.3 249.29,-54.88 57.59,-36.52 86.41,-88.03 86.41,-154.52 0,-57.65 -19.37,-103.02 -58.19,-136.29 -38.75,-33.22 -105.78,-60.89 -201.03,-83.1l-269.21 -59.81c-144.05,-33.21 -252.6,-87.49 -325.71,-162.82 -73.11,-75.34 -109.69,-170.65 -109.69,-285.82 0,-146.28 59.27,-264.82 177.81,-355.62 118.53,-90.85 274.2,-136.28 466.99,-136.28 115.17,0 224.86,18.29 329.02,54.81 104.1,36.59 193.87,88.09 269.21,154.58l-103.08 235.94c-159.51,-126.3 -324.56,-189.42 -495.15,-189.42 -101.93,0 -182.26,19.91 -240.99,59.81 -58.73,39.89 -88.09,94.17 -88.09,162.88 0,55.36 18.29,100.25 54.88,134.61 36.52,34.29 94.71,60.35 174.43,78.1l275.89 63.12c157.29,35.44 272.52,90.32 345.63,164.51 73.11,74.25 109.69,171.19 109.69,290.81 0,146.22 -59.27,261.99 -177.8,347.31 -118.54,85.33 -278.66,127.99 -480.24,127.99zm1507.37 -259.28c50.96,0 100.85,-3.31 149.59,-9.93l-16.61 255.91c-55.42,8.84 -113,13.3 -172.82,13.3 -210.54,0 -367.28,-51.51 -470.3,-154.58 -103.01,-103.02 -154.52,-252 -154.52,-447.02l0 -784.34 -315.78 0 0 -259.22 315.78 0 0 -488.6 335.64 0 0 488.6 445.39 0 0 259.22 -445.39 0 0 771.04c0,237.08 109.69,355.62 329.02,355.62zm1520.72 -518.44l-1146.63 0c24.43,343.4 195.01,515.13 511.82,515.13 186.17,0 354.53,-60.9 505.2,-182.8l103.02 235.99c-75.34,64.26 -168.37,115.23 -279.14,152.9 -110.78,37.66 -223.78,56.5 -339.01,56.5 -259.22,0 -463.62,-74.26 -613.21,-222.7 -149.53,-148.44 -224.32,-353.39 -224.32,-614.83 0,-166.2 32.67,-313.56 98.02,-442.03 65.34,-128.52 157.35,-228.23 275.89,-299.17 118.53,-70.88 253.14,-106.32 403.81,-106.32 219.33,0 391.6,70.88 516.75,212.7 125.22,141.83 187.8,337.87 187.8,588.24l0 106.39zm-697.93 -661.41c-128.53,0 -231,40.43 -307.42,121.3 -76.42,80.88 -122.45,196.65 -137.91,347.32l854.14 0c-6.68,-150.67 -44.89,-266.44 -114.69,-347.32 -69.8,-80.87 -167.82,-121.3 -294.12,-121.3zm1779.94 36.58l-202.72 19.92c-159.57,15.52 -274.2,64.26 -344,146.28 -69.8,81.95 -104.7,186.11 -104.7,312.41l0 900.65 -335.7 0 0 -1621.87 325.71 0 0 282.51c86.41,-190.57 262.59,-295.81 528.49,-315.79l109.63 -6.61 23.29 282.5z"/>
    <path id="_1_0" class="fil2" d="M6717.61 3193.97c363.38,0 545.1,218.24 545.1,654.72l0 1007.04 -335.7 0 0 -993.74c0,-137.37 -23.83,-237.62 -71.42,-300.8 -47.66,-63.12 -124.68,-94.71 -231,-94.71 -121.85,0 -218.25,42.12 -289.13,126.3 -70.94,84.18 -106.38,199.41 -106.38,345.63l0 917.32 -335.7 0 0 -993.74c0,-137.37 -24.37,-237.62 -73.11,-300.8 -48.74,-63.12 -125.16,-94.71 -229.32,-94.71 -124.07,0 -221.55,42.12 -292.43,126.3 -70.94,84.18 -106.38,199.41 -106.38,345.63l0 917.32 -335.7 0 0 -1621.87 329.08 0 0 245.92c50.9,-90.86 119.62,-161.2 206.03,-211.02 86.4,-49.88 185.02,-74.79 295.8,-74.79 250.38,0 413.2,104.15 488.54,312.41 50.96,-97.48 124.07,-173.96 219.38,-229.32 95.25,-55.42 202.72,-83.09 322.34,-83.09zm1434.32 1685.05c-159.52,0 -299.66,-34.36 -420.42,-103.08 -120.77,-68.65 -213.85,-166.73 -279.2,-294.12 -65.35,-127.38 -98.02,-275.28 -98.02,-443.7 0,-170.59 32.67,-319.58 98.02,-447.02 65.35,-127.38 158.43,-225.4 279.2,-294.12 120.76,-68.66 260.9,-103.01 420.42,-103.01 159.51,0 299.65,34.35 420.42,103.01 120.76,68.72 213.79,166.74 279.2,294.12 65.34,127.44 98.02,276.43 98.02,447.02 0,168.42 -32.68,316.32 -98.02,443.7 -65.41,127.39 -158.44,225.47 -279.2,294.12 -120.77,68.72 -260.91,103.08 -420.42,103.08zm0 -265.9c148.44,0 261.99,-48.74 340.63,-146.22 78.71,-97.54 118,-240.45 118,-428.78 0,-186.12 -39.9,-328.48 -119.62,-427.04 -79.79,-98.63 -192.79,-147.91 -339.01,-147.91 -146.22,0 -259.22,49.28 -339.01,147.91 -79.73,98.56 -119.62,240.92 -119.62,427.04 0,188.33 39.29,331.24 118,428.78 78.64,97.48 192.18,146.22 340.63,146.22zm1769.95 -1419.15c387.75,0 581.62,218.24 581.62,654.72l0 1007.04 -335.69 0 0 -990.43c0,-137.37 -27.14,-238.16 -81.42,-302.42 -54.27,-64.26 -139.05,-96.4 -254.22,-96.4 -135.21,0 -243.76,42.12 -325.71,126.3 -82.02,84.18 -122.99,197.19 -122.99,339.01l0 923.94 -335.7 0 0 -1621.87 329.08 0 0 259.22c53.13,-97.48 127.38,-171.73 222.63,-222.7 95.31,-50.96 202.72,-76.41 322.4,-76.41zm1337.92 1685.05c-281.42,0 -506.28,-68.72 -674.7,-206.09l103.01 -242.61c166.2,128.52 360.07,192.79 581.62,192.79 108.61,0 191.65,-18.3 249.29,-54.88 57.59,-36.52 86.41,-88.03 86.41,-154.52 0,-57.65 -19.37,-103.02 -58.19,-136.29 -38.75,-33.22 -105.78,-60.89 -201.03,-83.1l-269.21 -59.81c-144.05,-33.21 -252.6,-87.49 -325.71,-162.82 -73.11,-75.34 -109.69,-170.65 -109.69,-285.82 0,-146.28 59.27,-264.82 177.81,-355.62 118.53,-90.85 274.2,-136.28 466.99,-136.28 115.17,0 224.86,18.29 329.02,54.81 104.1,36.59 193.87,88.09 269.21,154.58l-103.08 235.94c-159.51,-126.3 -324.56,-189.42 -495.15,-189.42 -101.93,0 -182.26,19.91 -240.99,59.81 -58.73,39.89 -88.09,94.17 -88.09,162.88 0,55.36 18.29,100.25 54.88,134.61 36.52,34.29 94.71,60.35 174.43,78.1l275.89 63.12c157.29,35.44 272.52,90.32 345.63,164.51 73.11,74.25 109.69,171.19 109.69,290.81 0,146.22 -59.27,261.99 -177.8,347.31 -118.54,85.33 -278.66,127.99 -480.24,127.99zm1507.37 -259.28c50.96,0 100.85,-3.31 149.59,-9.93l-16.61 255.91c-55.42,8.84 -113,13.3 -172.82,13.3 -210.54,0 -367.28,-51.51 -470.3,-154.58 -103.01,-103.02 -154.52,-252 -154.52,-447.02l0 -784.34 -315.78 0 0 -259.22 315.78 0 0 -488.6 335.64 0 0 488.6 445.39 0 0 259.22 -445.39 0 0 771.04c0,237.08 109.69,355.62 329.02,355.62zm1520.72 -518.44l-1146.63 0c24.43,343.4 195.01,515.13 511.82,515.13 186.17,0 354.53,-60.9 505.2,-182.8l103.02 235.99c-75.34,64.26 -168.37,115.23 -279.14,152.9 -110.78,37.66 -223.78,56.5 -339.01,56.5 -259.22,0 -463.62,-74.26 -613.21,-222.7 -149.53,-148.44 -224.32,-353.39 -224.32,-614.83 0,-166.2 32.67,-313.56 98.02,-442.03 65.34,-128.52 157.35,-228.23 275.89,-299.17 118.53,-70.88 253.14,-106.32 403.81,-106.32 219.33,0 391.6,70.88 516.75,212.7 125.22,141.83 187.8,337.87 187.8,588.24l0 106.39zm-697.93 -661.41c-128.53,0 -231,40.43 -307.42,121.3 -76.42,80.88 -122.45,196.65 -137.91,347.32l854.14 0c-6.68,-150.67 -44.89,-266.44 -114.69,-347.32 -69.8,-80.87 -167.82,-121.3 -294.12,-121.3zm1779.94 36.58l-202.72 19.92c-159.57,15.52 -274.2,64.26 -344,146.28 -69.8,81.95 -104.7,186.11 -104.7,312.41l0 900.65 -335.7 0 0 -1621.87 325.71 0 0 282.51c86.41,-190.57 262.59,-295.81 528.49,-315.79l109.63 -6.61 23.29 282.5z"/>
    <path class="fil3" d="M6717.61 3193.97c363.38,0 545.1,218.24 545.1,654.72l0 1007.04 -335.7 0 0 -993.74c0,-137.37 -23.83,-237.62 -71.42,-300.8 -47.66,-63.12 -124.68,-94.71 -231,-94.71 -121.85,0 -218.25,42.12 -289.13,126.3 -70.94,84.18 -106.38,199.41 -106.38,345.63l0 917.32 -335.7 0 0 -993.74c0,-137.37 -24.37,-237.62 -73.11,-300.8 -48.74,-63.12 -125.16,-94.71 -229.32,-94.71 -124.07,0 -221.55,42.12 -292.43,126.3 -70.94,84.18 -106.38,199.41 -106.38,345.63l0 917.32 -335.7 0 0 -1621.87 329.08 0 0 245.92c50.9,-90.86 119.62,-161.2 206.03,-211.02 86.4,-49.88 185.02,-74.79 295.8,-74.79 250.38,0 413.2,104.15 488.54,312.41 50.96,-97.48 124.07,-173.96 219.38,-229.32 95.25,-55.42 202.72,-83.09 322.34,-83.09zm1434.32 1685.05c-159.52,0 -299.66,-34.36 -420.42,-103.08 -120.77,-68.65 -213.85,-166.73 -279.2,-294.12 -65.35,-127.38 -98.02,-275.28 -98.02,-443.7 0,-170.59 32.67,-319.58 98.02,-447.02 65.35,-127.38 158.43,-225.4 279.2,-294.12 120.76,-68.66 260.9,-103.01 420.42,-103.01 159.51,0 299.65,34.35 420.42,103.01 120.76,68.72 213.79,166.74 279.2,294.12 65.34,127.44 98.02,276.43 98.02,447.02 0,168.42 -32.68,316.32 -98.02,443.7 -65.41,127.39 -158.44,225.47 -279.2,294.12 -120.77,68.72 -260.91,103.08 -420.42,103.08zm0 -265.9c148.44,0 261.99,-48.74 340.63,-146.22 78.71,-97.54 118,-240.45 118,-428.78 0,-186.12 -39.9,-328.48 -119.62,-427.04 -79.79,-98.63 -192.79,-147.91 -339.01,-147.91 -146.22,0 -259.22,49.28 -339.01,147.91 -79.73,98.56 -119.62,240.92 -119.62,427.04 0,188.33 39.29,331.24 118,428.78 78.64,97.48 192.18,146.22 340.63,146.22zm1769.95 -1419.15c387.75,0 581.62,218.24 581.62,654.72l0 1007.04 -335.69 0 0 -990.43c0,-137.37 -27.14,-238.16 -81.42,-302.42 -54.27,-64.26 -139.05,-96.4 -254.22,-96.4 -135.21,0 -243.76,42.12 -325.71,126.3 -82.02,84.18 -122.99,197.19 -122.99,339.01l0 923.94 -335.7 0 0 -1621.87 329.08 0 0 259.22c53.13,-97.48 127.38,-171.73 222.63,-222.7 95.31,-50.96 202.72,-76.41 322.4,-76.41zm1337.92 1685.05c-281.42,0 -506.28,-68.72 -674.7,-206.09l103.01 -242.61c166.2,128.52 360.07,192.79 581.62,192.79 108.61,0 191.65,-18.3 249.29,-54.88 57.59,-36.52 86.41,-88.03 86.41,-154.52 0,-57.65 -19.37,-103.02 -58.19,-136.29 -38.75,-33.22 -105.78,-60.89 -201.03,-83.1l-269.21 -59.81c-144.05,-33.21 -252.6,-87.49 -325.71,-162.82 -73.11,-75.34 -109.69,-170.65 -109.69,-285.82 0,-146.28 59.27,-264.82 177.81,-355.62 118.53,-90.85 274.2,-136.28 466.99,-136.28 115.17,0 224.86,18.29 329.02,54.81 104.1,36.59 193.87,88.09 269.21,154.58l-103.08 235.94c-159.51,-126.3 -324.56,-189.42 -495.15,-189.42 -101.93,0 -182.26,19.91 -240.99,59.81 -58.73,39.89 -88.09,94.17 -88.09,162.88 0,55.36 18.29,100.25 54.88,134.61 36.52,34.29 94.71,60.35 174.43,78.1l275.89 63.12c157.29,35.44 272.52,90.32 345.63,164.51 73.11,74.25 109.69,171.19 109.69,290.81 0,146.22 -59.27,261.99 -177.8,347.31 -118.54,85.33 -278.66,127.99 -480.24,127.99zm1507.37 -259.28c50.96,0 100.85,-3.31 149.59,-9.93l-16.61 255.91c-55.42,8.84 -113,13.3 -172.82,13.3 -210.54,0 -367.28,-51.51 -470.3,-154.58 -103.01,-103.02 -154.52,-252 -154.52,-447.02l0 -784.34 -315.78 0 0 -259.22 315.78 0 0 -488.6 335.64 0 0 488.6 445.39 0 0 259.22 -445.39 0 0 771.04c0,237.08 109.69,355.62 329.02,355.62zm1520.72 -518.44l-1146.63 0c24.43,343.4 195.01,515.13 511.82,515.13 186.17,0 354.53,-60.9 505.2,-182.8l103.02 235.99c-75.34,64.26 -168.37,115.23 -279.14,152.9 -110.78,37.66 -223.78,56.5 -339.01,56.5 -259.22,0 -463.62,-74.26 -613.21,-222.7 -149.53,-148.44 -224.32,-353.39 -224.32,-614.83 0,-166.2 32.67,-313.56 98.02,-442.03 65.34,-128.52 157.35,-228.23 275.89,-299.17 118.53,-70.88 253.14,-106.32 403.81,-106.32 219.33,0 391.6,70.88 516.75,212.7 125.22,141.83 187.8,337.87 187.8,588.24l0 106.39zm-697.93 -661.41c-128.53,0 -231,40.43 -307.42,121.3 -76.42,80.88 -122.45,196.65 -137.91,347.32l854.14 0c-6.68,-150.67 -44.89,-266.44 -114.69,-347.32 -69.8,-80.87 -167.82,-121.3 -294.12,-121.3zm1779.94 36.58l-202.72 19.92c-159.57,15.52 -274.2,64.26 -344,146.28 -69.8,81.95 -104.7,186.11 -104.7,312.41l0 900.65 -335.7 0 0 -1621.87 325.71 0 0 282.51c86.41,-190.57 262.59,-295.81 528.49,-315.79l109.63 -6.61 23.29 282.5z"/>
   </g>
   <path class="fil7" d="M1766.94 4754.02c-151.5,-6.21 -367.88,-194.95 -454.73,-296.12 -57,-66.46 -97.36,-152.22 -223.95,-151.36 -108.01,0.72 -220.77,66.78 -231.83,154.71 -22.47,178.69 229.84,346.09 352.16,407.93 171.76,86.94 385.73,141.45 620.19,140.99 136.87,-0.27 413.05,-34.61 506.65,-94.1 -115.71,-43.67 -199.75,-58.71 -306.85,-116.29 -94.87,-50.97 -174.39,-118.21 -241.66,-181.72 -100.45,-94.83 -331.73,-446.58 -476.07,-291.77 88.89,161.42 292.53,352.79 456.09,427.73zm-50.93 312.74l221.05 0c152,-9.97 300.24,-41.32 417.53,-99.26 40.46,-20.03 77.75,-39.01 89.62,-83.46 -45.9,-10.69 -81.28,-20.56 -132.29,-31.17 -214.98,-44.8 -369.38,-138.72 -519.2,-288.55 -116.89,-116.93 -108.19,-82.86 -108.19,-209.17 48.88,25.87 88.98,58.67 135.01,86.17 44.53,26.55 87.25,54.37 134.05,77.52 158.48,78.29 525.18,153.22 701.97,153.99 127.3,0.54 276.77,-21.25 327.15,-96.5 -33.67,-7.84 -49.07,-20.8 -80.06,-35.34 -95.32,-44.71 -109.46,-42.49 -214.25,-112.72 -103.38,-69.27 -154.94,-114.3 -230.6,-211.76 -257.06,-331.13 -153.9,-270.97 -121.78,-450.33 27.72,-154.63 2.4,-102.35 2.4,-189.97l142.12 98.32c188.88,179.04 157.8,181.99 386.68,334.53l150.82 89.62c51.24,28.58 106.56,55.27 160.11,80.28 72.31,33.7 273.47,116.52 362.31,118.52 -16.54,-31.22 -30.72,-65.47 -48.43,-95.83 -149.28,-256.24 -171.71,-476.2 -240.07,-769.64 18.71,-27.96 19.48,-12.91 30.58,-51.74l-20.98 -8.61 -27.95 5.48c-11.51,-62.97 -44.4,-99.85 -88.67,-136.05 -44.98,-36.74 -95.68,-51.33 -148.05,-83.23 -94.42,-57.49 -148.56,-146.42 -266.31,-185.57 -140.63,-46.8 -237.94,69.46 -286.24,142.53 -76.79,116.26 -73.3,222.09 -48.2,376.54 -132.48,-78.2 -121.28,-366.39 -86.22,-510.82 24.19,-99.49 82.68,-258.38 142.99,-338.07 24.1,-31.85 56.04,-48.07 74.07,-81.73 -102.35,15.81 -170.8,62.3 -230.47,136.73 -6.93,8.7 -14.95,20.66 -23.69,33.89 -5.8,8.74 -5.35,9.11 -11.56,17.71 -1.31,1.82 -2.99,4.22 -4.3,5.94 -1.36,1.81 -3.4,4.3 -4.67,5.89l-10.1 11.69c-3.85,-209.36 -43.95,-459.13 135.78,-589.47 202.65,-147.02 417.35,-53.64 480.15,96.27l-80.6 -11.14c140.94,206.73 109.32,161.1 185.21,422.61 -62.12,-35.11 -158.66,-150.92 -264.54,-74.53 127.67,87.44 84.36,-13.37 355.83,225.35 126.44,111.22 185.79,203.96 236.4,359.54 1.4,1.95 2.36,5.17 3.08,6.48 0.77,1.31 2.31,4.85 3.26,6.39 21.34,33.66 24.15,24.96 51.38,25.6l0 -115.4c60.03,-1.36 68.82,-19.25 201.93,-19.25 91.2,190.05 -29.05,272.56 149.77,532.97 78.11,113.67 189.06,152.63 220.19,183.71 20.11,20.12 38.69,59.99 56.9,87.31 55.32,83 44.67,59.21 89.66,112.31l87.67 114.3c111,168.59 59.35,307.4 59.35,459.9 74.3,-49.75 91.88,-77.61 134.6,-163.46 122.46,-246.06 146.2,-362.31 174.47,-623.72 24.92,-230.74 -27.77,-141.4 52.56,-245.51 50.6,-65.6 84.4,-172.25 97.36,-258.42 25.73,-170.89 4.93,-264.22 -100.99,-384.24 -17.44,-19.84 -17.03,-14.77 -31.08,-37.74 -28.45,-24.33 -31.44,-38.96 -40,-85.13 -29.77,-68.68 -54.37,-99.8 -106.74,-151.36 -123.73,-121.78 -154.86,-279.94 -343.69,-406.39 10.96,-22.83 22.43,-58.99 28.86,-86.53 -57.22,0 -72.4,18.07 -125,19.25 -28.13,-53.19 -19.75,-85.94 -19.16,-163.55 0.59,-79.28 2.35,-100.85 -46.26,-136.51 -66.51,-48.74 -175.65,-71.49 -223.08,-142.3 43.49,0.95 38.24,9.61 86.53,9.61 -42.63,-80.65 -57.9,-199.89 -76.25,-289.14 -37.87,-184.76 -19.89,-153.04 -19.89,-316.69l-111.27 -61.84c-51.15,-20.16 -69.49,-26.46 -109.91,-53.55 0,-62.16 22.2,-56.81 48.07,-105.74 -88.53,-46.89 -147.92,-95.91 -210.17,-174.47 -15.31,-19.3 -18.21,-19.44 -34.25,-42.68 -18.85,-27.32 -45.62,-60.39 -53.69,-90.61 -26.46,19.43 -32.75,50.42 -55.68,78.92 -20.25,25.14 -44.31,38.06 -78.92,46.12 0,74.03 -19.25,166.36 -19.25,240.39 31.48,-21.07 29.94,-38.1 67.32,-48.07 1.54,67.78 26.28,112.59 -37.15,164.78 -17.9,14.77 -34.07,24.14 -34.3,53.91 0,1.72 0.18,4.71 0.32,6.61 0.09,1.36 4.21,19.03 4.98,22.25l27.68 156.3c34.94,-18.44 81.24,-38.42 134.65,-38.42 -19.75,73.9 -95.23,96.87 -153.85,125 9.37,40.32 19.07,83.68 28.81,125 3.58,15.27 8.15,48.93 13.09,63.88 9.74,29.49 11.24,29.49 44.63,32.26 -4.62,55.72 -11.42,101.25 38.46,134.64 24.92,-6.66 34.84,-16.76 57.68,-28.85 0,37.96 3.03,39.05 9.65,67.32 43.9,3.67 42.13,3.9 54.54,41.59 16.5,50.02 10.42,60.48 55.91,50.7 17.04,-3.67 27.14,-3.54 42.23,-6.66 33.11,-6.89 31.89,-11.6 49.24,-37.56 -9.69,-41.59 -17.98,-42.82 -45.57,-69.82 -60.94,-59.71 -49.48,-67.64 -136.01,-69.22 -46.44,-0.86 -31.81,-10.42 -78.06,14.04 -13.82,-51.74 -66.28,-74.07 38.46,-144.25 28.77,21.07 6.89,2.04 23.02,25.41 28.22,41.05 17.12,41.64 5.84,89.98 41.68,0 52.28,-12.46 77.16,-0.54 37.28,17.8 116.52,111 134.37,144.79 -62.7,118.57 -187.15,179.37 -249.99,298.11 37.96,0 39.01,-3.03 67.32,-9.6 10.74,40.27 31.53,32.75 29.49,86.17 -3.8,100.21 -128.12,133.79 -144.7,185.43l105.56 -11.96c0,134.6 27.64,216.02 38.51,346.18 -47.57,11.06 -67.82,37.92 -105.79,48.07 -13.36,-27.91 -30.85,-73.03 -38.46,-105.79 41.54,-62.07 106.92,-95.18 86.53,-182.71 -74.71,-17.4 -76.84,-5.62 -144.25,0 0,-55.19 -8.7,-73.44 -9.61,-115.4 33.98,-9.06 52.79,-35.06 74.35,-60.25 23.06,-26.91 37.47,-50.7 41.05,-93.6 -51.11,-4.26 -109.73,-24.38 -163.46,-28.82 20.88,-43.58 21.2,-115.26 40.09,-161.87 14.27,-35.12 20.57,-23.43 52.28,-43.95 78.97,-51.24 25.74,-101.62 -76.25,0.81 -32.25,32.44 -20.66,16.5 -27.41,68.69 -3.62,28.13 -11.14,51.06 -17.57,78.6 -32.08,-8.56 -30.4,-18.84 -64.97,-31.53 -54.78,-20.12 -41.77,11.82 -44.13,-37.38 -3.08,-62.84 -28.77,-75.02 -54.41,-123.41 29.49,-2.45 46.26,-9.11 67.32,-19.25 -17.49,-26.14 -87.03,-88.58 -115.39,-96.14 9.2,-34.34 59.12,-58.58 86.58,-76.93 -97.95,-204.06 -65.92,-109.05 -211.58,-105.79l-38.46 -86.53c70.13,0 100.62,9.6 163.46,9.6 -3.04,-36.42 -27.86,-62.93 -46.53,-88.07 -41.41,-55.82 -117.52,-176.15 -186.2,-188.83 -48.53,-9.02 -98.14,15.13 -76.16,-39.6 13.05,-32.39 35.65,-53.32 3.98,-89.84 -40.54,-46.66 -149.82,-19.93 -204.73,-7.16 33.66,-50.29 104.16,-82.09 153.86,-115.39 -26.33,-39.33 -57.36,-56.68 -88.62,-103.71 -79.56,-119.92 -34.61,-113.67 -142.17,-88.61 -7.38,-27.68 -22.11,-46.67 -52.37,-54.87 -45.94,-12.41 -46.03,8.2 -72.63,26.01 -22.33,-14.95 -43.63,-32.21 -67.32,-48.07 1.54,-69.73 41.59,-130.71 75.34,-184.3 17.31,-27.46 19.89,-23.38 20.8,-65.74 -59.85,-15.95 -76.89,-67.42 -123.37,-97.77 -22.56,-14.68 -56.77,-17.49 -78.65,-25.82 -20.02,-7.66 -10.55,5.12 -31.44,-27.05 -7.79,-12.05 -10.74,-21.02 -16.54,-32.03 -66.14,5.34 -57.13,6.75 -107.33,-56.18 -25.82,-32.35 -43.76,-77.07 -84.99,-88.07 3.72,44.67 19.21,74.3 19.21,124.99 -34.75,-9.24 -49.61,-27.54 -70.63,-54.86 -22.88,-29.68 -32.8,-34.39 -63.97,-50.92 2.31,105.56 38.06,70.9 -13.18,179.22 -45.49,96.14 6.47,104.25 41.99,157.35 -38.1,3.17 -58.03,16.08 -96.13,19.25 51.6,77.07 255.97,183.58 278.85,269.25 -37.97,51.79 -131.07,56.73 -222.09,56.77 -75.66,0.05 -51.55,11.42 -62.25,82 -7.56,50.11 -13.77,65.74 -13.77,120.88l144.25 9.6c-31.3,65.24 13.01,76.66 76.8,77.07 74.61,0.5 83.67,0.36 115.52,47.93 -79.69,0 -169.3,-36.65 -249.99,-38.46 -0.54,23.6 -12.19,139.13 -19.26,153.85 42.82,9.97 74.21,30.81 112.86,50.65l12.14 7.07c-40,9.33 -65.24,9.43 -86.53,38.47 32.39,2.67 94.82,12.18 125,19.21 67.46,140.58 -29.68,177.77 99.08,333.67 84.22,101.94 156.62,226.89 178.09,361.13 9.02,56.45 2.18,54.41 -18.66,82.95 -43.63,59.72 -35.29,95.69 2.67,153.5 74.53,113.35 113.85,35.61 113.85,309.25 47.3,25.01 47.8,5.76 62.25,62.75 32.12,126.58 34.84,185.89 24.33,312.29l-56.4 -107.1c-16.09,-40.28 -40.51,-75.84 -49.39,-114.08 -48.34,0 -43.08,8.65 -86.53,9.6 6.75,-81.73 79.38,-91.02 96.14,-153.85 -109.91,0 -226.75,-24.74 -326.97,-48.07l0 -19.26c47.53,-3.94 58.76,-26.55 113.26,-17.85 60.94,9.7 41.05,33.98 88.71,46.71 0,-78.87 -22.65,-165.91 -28.86,-240.39 -47.61,-1.09 -35.34,5.53 -49.88,-46.3 -5.71,-20.34 -11.1,-44.63 -18.53,-68 -7.93,-24.88 -34.57,-105.29 -50.74,-122.37 -41.14,-43.32 -172.34,-19.62 -236.81,-22.79 -43.04,-2.13 -34.53,-8.88 -76.75,-9.79l0 -19.25c43.18,-10.06 104.47,-32.08 140.67,-61.21 63.3,-50.92 85.72,-148.38 118.93,-217.65 -55.63,-29.45 -136.1,-38.78 -211.08,-48.56 -35.43,-4.63 -74.34,-11.24 -107.19,-17.81 -38.28,-7.66 -64.61,-19.3 -104.84,-20.16l0 -19.26c54.87,0 66.51,-9.6 125.05,-9.6 -19.39,-36.65 -25.15,-22.24 -28.86,-67.32 24.33,5.66 53.73,8.74 80.32,15.81 38.65,10.28 24.42,13.05 73.53,13.05 -24.28,-36.2 -56.4,-65.52 -96.18,-86.58 22.47,-30.63 16.04,-7.8 38.46,-38.42 -20.52,-42.82 -26.82,-99.95 -48.06,-144.25 -66.47,0 -155.18,15.35 -221.19,0 20.75,-28.32 73.4,-28.86 115.4,-28.86 -14.73,-55.19 -132.38,-38.56 -221.18,-173.07 -33.3,-50.42 -37.97,-89.7 -93.69,-108.28l-127.49 -64.83c3.39,40.41 10.96,31.67 19.25,67.32 -44.04,-11.78 -46.26,-36.47 -96.14,-48.11 0,84.58 -38.55,167.49 21.25,228.74 40.78,41.78 107.01,86.58 122.82,146.61l-76.79 -38.78c11.15,41.77 33.93,41.68 38.47,96.18l-67.33 0c1.45,64.34 40.23,84.73 7.3,151.42 -30.9,62.52 -66.65,51.87 -93.83,88.97 155.08,82.05 386.45,114.04 278.9,317.37 -42.23,-9.88 -40.19,-25.01 -86.58,-28.86 -5.26,22.61 -8.93,28.36 -9.6,57.67 -48.71,-4.03 -66.69,-24.78 -115.4,-28.81 24.1,103.39 -9.6,87.26 -9.6,173.07 32.21,21.56 59.48,57.53 96.14,67.32l-6.44 11.64c-0.72,1.72 -4.48,10.65 -4.57,11.01 -4.67,18.71 -2.59,-8.43 -1.41,18.71 1,24.15 7.02,43.13 10.33,56.82 57.36,238.75 -7.66,161.46 204.06,161.46 -14.82,30.77 -14.82,55.73 0,86.54 -51.11,0 -58.22,6.43 -96.19,9.6 10.92,46.8 28.86,107.06 28.86,163.46 34.57,2.9 67.92,14.5 99.9,25.15 34.61,11.51 62.84,25.69 92.42,32.57 -19.79,27.05 -68.45,28.86 -115.39,28.86 8.7,21.57 -0.13,4.85 11.55,17.26 4.85,5.17 10.02,10.47 11.1,8.16 0.77,-1.68 4.26,2.08 6.21,3.4l-67.32 0c0,86.17 13.41,130.93 48.07,182.71 -27.28,7.3 -14.09,-1.99 -28.86,19.26 39.5,82.27 20.84,122.23 -1.63,213.02l30.49 36.97c-33.62,8.97 -21.61,3.67 -38.47,28.86 -65.6,-23.74 -1.27,-15.31 -68.09,-1.63 -11.15,2.27 -16.9,1.63 -28.05,1.63 3.22,-38.78 54.6,-101.26 76.89,-134.6 -23.74,-35.52 -56.32,-77.93 -67.28,-125.04 -42.95,3.58 -57.81,28.86 -86.53,48.07l-38.51 -67.28c18.62,-27.77 69.86,-67.37 105.78,-76.93 -1.26,-57.95 -71.17,-202.33 -124.99,-230.79 11.41,-23.83 19.21,-87.62 19.21,-125.04 -119.25,-63.11 -56.45,-56.72 -115.4,-96.14 -20.61,30.77 -30.49,53.28 -48.07,86.54 -20.7,-13.87 -28.27,-22.02 -57.67,-28.86 -6.66,24.91 -16.76,34.84 -28.86,57.72 -232.96,0 -6.48,-316.37 0,-394.3 -99.44,47.76 -171.39,-15.85 -192.32,-105.74 -31.8,8.47 -12.69,3.94 -37.2,20.48 -11.96,8.06 -17.57,11.32 -30.12,17.98 -6.53,-27.95 -12.73,-58.62 -19.26,-86.53 -29.81,21.84 -21.97,33.98 -38.42,57.68 -26.82,-115.04 44.85,-195.23 -27.05,-250.95 -62.88,-48.75 -47.2,-72.08 -97.99,-85.63 -38.6,57.68 -4.89,54.59 -48.02,86.54 -0.09,-29.18 -4.4,-35.21 -9.65,-57.68l-18.26 39.37c-23.74,69.41 -8.79,60.89 -58.67,85.63 16.49,40 23.92,149.42 19.16,211.53 -4.85,63.74 -42.63,116.93 -67.28,163.51 40.82,-3.4 25.28,-7.25 60.94,-25.65 22.29,-11.5 34.61,-12.91 54.46,-22.42 -10.06,37.83 -41.41,59.62 -72.9,80.91 -102.62,69.55 -91.97,49.25 -49.88,157.39 18.48,47.39 17.12,42.14 65.1,30.95 -6.98,14.54 -17.4,103.07 -19.25,124.99 27.63,-18.48 29.76,-28.13 50.92,-54.86l48.57 -47.62c0.86,-2.94 4.21,-2.17 6.3,-3.3 0.67,29.31 4.34,35.06 9.6,57.72 49.7,-26.33 56.68,-47.17 96.18,-57.72 -16.53,62.02 -181.44,229.29 -240.39,317.36 26.87,17.99 46.58,29.4 80.01,44.94 24.65,11.47 57.4,25.74 81.73,33.71 102.26,33.39 104.93,-20.98 203.65,-20.98l-100.12 101.71c-170.9,130.98 -89.26,134.61 -38.92,287.88 29.22,89.16 -10.6,32.89 3.94,82 14.59,49.24 95.37,131.93 106.24,172.7l19.26 0c0,-50.06 7.06,-74.62 36.24,-98.4 24.78,-20.16 50.06,-32.98 88.75,-36.25 -74.89,141.58 -165.59,195.77 -201.92,250.04 97.36,0 98.76,16.04 153.85,28.86 -6.66,24.97 -9.28,35.16 -57.67,48.07l96.14 375.04c49.56,0 94.28,-9.83 134.65,-19.25 -1.14,50.06 -14.5,67.14 -9.88,173.33 5.3,121.79 89.52,259.92 198.98,320.31 55.59,30.67 67.6,30 134.06,48.66 78.47,22.02 197.53,122.55 337.34,181.95 103.53,43.99 246.69,73.71 399.91,83.54zm576.83 -789.45c-225.39,-70.35 -356.6,-352.74 -451.19,-511.95 -125.73,-211.57 -563.97,-148.37 -328.92,270.84 106.74,190.33 291.49,349.71 516.62,445.35 182.89,77.7 610.98,168.04 829.31,104.61l-68.82 -38.24c-25.37,-12.59 -49.06,-26.86 -74.21,-41 -51.78,-29.08 -95.68,-62.25 -135.91,-95.23 -31.85,-26.14 -88.76,-83 -115.49,-114.67 -101.94,-120.74 -185.93,-276.13 -264.81,-418.21 -54.68,-98.54 -158.2,-219.32 -278.31,-148.69 49.25,186.97 182.17,356.6 310.71,490.93 23.96,25.05 40.68,30.49 61.02,56.26zm-1714.31 -537.59c-5.07,-21.02 -5.39,-28.5 -9.24,-48.2l-19.48 -48.03c-25.51,27.59 -26.01,35.3 -52.42,62.89 -22.43,23.46 -35.66,39.37 -56.5,71.81 4.49,3.76 8.66,7.74 18.04,13.72l57.08 30c34.79,19.3 38.51,26.32 60.85,52.41 -23.2,24.6 -81.96,41.37 -112.91,55.37l92.16 280.98 98.67 -10.83c-84.04,-295.34 50.88,-216.96 -113.31,-258.74 27.64,-25.41 36.47,-24.78 84.18,-28.22 -19.3,-88.03 -27.86,-123.64 -83.91,-164.96l36.79 -8.2zm141.17 355.15l34.07 -35.84c17.85,-23.46 19.57,-28.13 35.88,-43.54 -12.45,100.18 -65.23,159.62 -70.13,291.45 -4.26,115.26 25.83,224.54 99.67,273.2 -36.97,-139.45 -13.95,-172.3 70.82,-240.85 200.16,-161.74 246.55,-71.44 399.63,-99.44 251.04,-45.99 226.89,96.91 345.14,152.27 -1.4,-109.05 -18.44,-105.93 -70.77,-156.8 -86.76,-84.36 22.52,-23.56 -136.73,-103.89 -96.72,-48.84 -206.82,-133.83 -234.09,-247.23l-194.22 -14.81c20.02,-22.02 27.22,-32.62 62.47,-50.61 29.13,-14.95 56.36,-19.66 92.88,-22.79l2.4 -209.49c-109.37,-11.33 -97.54,-22.29 -135.92,-57.95 -33.21,-30.85 -85.4,-58.17 -144.39,-58.98 -94.05,-1.27 -177.55,120.51 -158.65,227.2l50.92 -48.43c-8.97,66.92 -43.95,134.78 -60.21,211.62 -18.62,87.58 -21.02,162.47 11.23,234.91zm407.3 -605.42c62.75,24.92 38.46,-48.25 0,0zm57.49 -38.23l5.26 20.7 -5.26 -20.7zm-9.65 -19.21l9.65 19.21 -9.65 -19.21zm-9.6 -19.26l9.6 19.26 -9.6 -19.26zm3009.9 355.83c-34.25,-25.1 -35.2,-79.01 -111.31,-177.23l-129.12 -159.34c0,331.9 334.22,536.23 346.4,826.77l9.43 163.69c38.05,-43.85 87.98,-216.96 101.98,-273.01 65.33,-261.14 62.66,-639.84 -73.4,-861.48l-70.72 -83.13c-144.48,-108.96 -275.23,43.26 -275.23,102.16 0,117.75 25.33,126.95 105.84,240.34 38.69,54.55 89.07,136.37 96.13,221.23zm-2970.71 -394.43c23.33,-31.39 27.9,-112.67 12.32,-153.99l-12.32 153.99zm-161.2 -66.46c-11.51,-33.75 -20.43,-41.05 -37.29,-63.7 -44.8,36.29 -85.4,94.91 -100.89,170.53l69.41 9.33 68.77 -116.16zm1130.32 -39.37l-26.05 19.44c7.93,32.07 32.62,47.97 58.54,63.79l-32.49 -83.23zm-1858.2 161.38l76.12 -11.24c-7.52,56.09 -20.12,85.58 -52.69,115.89 11.23,24.42 23.6,40.32 34.75,61.62 56.85,-23.2 61.47,-65.97 187.02,-73.71l-13.05 -78.29c-31.81,12.32 -16.95,15.49 -33.26,7.25l-3.67 -92.15c-20.52,34.43 -15.85,40.63 -45.03,70.72 -25.64,-35.98 31.8,-102.62 -6.66,-328.6 -57.49,28.49 -120.83,100.53 -183.98,151.95l-26.33 25.01 66.78 151.55zm2810.93 214.06c-24.83,-44.62 -67.46,-216.1 -115.53,-316.41 -47.8,-99.67 -112.63,-193.54 -185.03,-248.23 -233.82,-176.6 -421.43,107.2 -369.14,349.76 45.53,211.08 251.49,361.49 401.94,464.02 155.54,106.01 361.04,235.18 557.35,308.48 -12.78,-43.63 -33.48,-71.04 -51.38,-112.85 -16.62,-38.87 -32.21,-78.65 -44.35,-118.75 -25.14,-83.41 -45.98,-173.11 -65.78,-261.18 -35.2,-156.9 -83.95,-404.08 -207.18,-450.52 29.22,122.78 82.27,244.24 79.1,385.68zm-2230.02 -427.04c-86.58,40.09 -79.24,135.23 -18.71,193.09 15.36,-26.01 -0.68,-50.47 2.17,-90.98 2.36,-33.97 11.46,-68.36 16.54,-102.11zm1249.84 -9.97c9.65,-18.53 -4.53,-42.36 -18.4,-60.71 0.59,30.13 2.36,41.18 18.4,60.71zm-891.61 -224.76l-98.31 17.12c11,57.81 10.82,101.58 67.73,119.38l30.58 -136.5zm2074.39 84.58c25.96,-2.12 26.19,-4.48 48.07,-9.6 -1.31,-60.85 -33.11,-99.26 -38.46,-163.46l-19.21 0c-24.46,166.54 2.31,85.04 9.6,173.06zm-1298.85 -156.43l-55.05 21.83c19.98,30.31 45.67,53.69 70.45,81.55l57.76 78.7c0.77,-1.63 3.27,4.07 8.38,4.66l-81.54 -186.74zm-721.81 485.12c57.18,-34.06 77.16,-75.43 136.41,-106.64 -14.31,46.75 -54.95,107.55 -77.69,152.67 -24.97,49.52 -52.47,113.99 -65.65,175.06 -28.45,131.89 5.34,301.15 84.22,362.49 -15.4,-118.52 -63.92,-218.46 31.31,-295.39 57.49,-46.48 196.35,-100.12 302.23,-83.5 56.4,8.84 100.62,30.63 157.62,34.3 139.94,9.02 203.28,-14.54 319.08,171.3l30.49 47.16c9.02,10.38 8.75,9.15 16,15.18 41.68,-74.89 14.04,-193.73 -11.47,-270.29 -27,-81.19 -65.55,-146.84 -118.88,-198.67 -240.75,-233.95 -324.16,-158.16 -413.82,-225.34 74.35,-62.71 141.72,9.42 197.99,-66.92 61.11,71.54 -7.16,17.44 90.38,98.18 -0.18,-40.05 -55.32,-220.96 -78.06,-256.39 -29.63,-46.21 -64.51,-39.82 -88.62,-85.58 -161.47,-306.53 -457.94,21.57 -460.84,132.61 56.49,-28.72 101.34,-82.14 163.5,-101.53 -72.3,147.02 -207.99,243.34 -214.2,501.3zm-1085.92 -540.85c-33.39,42.22 -81.01,97.63 -107.51,145.16l143.8 44.58 70.4 -149.78 8.65 125.49 106.11 -9.83c-5.89,-64.87 -11.51,-144.07 -47.8,-182.67 -25.64,33.57 -29.36,71.9 -57.58,95.05 14.41,-75.97 30.4,-141.08 0.41,-210.35 -39.74,36.56 -81.51,98.09 -116.48,142.35zm463.61 270.52c23.46,-43.99 20.11,-123.96 31.71,-179.64 30.58,91.93 27,198.48 62.2,293.4 38.06,-33.16 44.9,-96.64 186.66,-181.22l-68.86 -132.43 -75.12 63.56c10.6,-41.13 16.22,-93.28 23.88,-135.41 15.13,-83.09 25.5,-72.31 -17.04,-122.96 -34.43,13.95 -59.17,50.29 -79.01,74.52 -4.58,-3.8 -13.95,-12.64 -19.57,-16.8 -15.22,-11.38 -0.46,-2.45 -21.25,-13.64 -15.77,48.11 -50.97,106.51 -50.33,166.86 0.72,67.96 16.08,122.14 26.73,183.76zm-44.49 -178.32c21.92,-114.76 -36.25,-182.63 -100.63,-219.15 17.22,119.84 32.98,160.11 100.63,219.15zm1151.57 -204.42c23.15,32.8 81.55,105.29 112.72,130.34 10.33,-13.59 22.79,-35.2 31.58,-53.14 9.06,-18.58 16.62,-34.71 9.06,-56.68l-153.36 -20.52zm-1502.83 -50.65l0 0zm1030.07 173.02c37.78,-67.91 50.69,-193.14 -46.62,-233.69 -90.16,-37.56 -77.34,-5.25 -80.6,-2.67 86.44,56.5 98.36,80.28 140.72,155.85 -51.24,-0.41 -107.06,-63.47 -220.78,-63.16l14.23 75.39 193.05 68.28zm1740.27 -289.28c-5.12,-32.93 -12.42,-63.97 -17.08,-97.54 -7.25,-52.33 -0.96,-51.15 -51.2,-61.03 7.97,61.35 29.09,113.58 48.52,168.86 18.62,53.05 27.5,115.16 67.87,143.03 -25.96,-105.2 34.98,-69.91 75.25,-182.99 -76.97,-1.86 -69.5,16.4 -123.36,29.67zm-2465.66 -161.87c-63.34,-36.93 -98.99,-16.54 -130.12,-89.12l-73.39 18.67c-6.34,34.66 -5.8,30.44 14.18,59.53 32.44,47.21 21.25,64.79 62.75,170.17 -19.62,-8.48 -42.41,-38.2 -47.21,-48.35 -5.16,66.01 25.14,110.64 71.04,129.76l18.21 -69.32c5.76,-25.91 11.1,-42.09 21.75,-64.65 20.43,-43.27 41.5,-71.04 62.79,-106.69zm-360.27 -19.94c-45.17,-80.96 -33.21,-207.04 -99.76,-270.06l1.5 222.67c34.79,10.24 69.72,8.84 75.84,48.8 5.34,35.15 -18.76,61.16 -37.02,75.66 -40.14,31.89 -90.83,57.72 -129.71,92.69l23.06 52.51c23.7,-1.81 44.86,-9.01 60.26,-9.65 40.82,-1.68 38.28,19.3 40.68,14.73 1.05,-1.86 3.49,3.76 5.8,6.34l47.62 -24.51c28.54,28.99 4.8,51.92 67.46,32.44 -0.41,-49.16 -9.2,-88.67 -22.7,-132.88 -7.47,-24.65 -14.41,-35.93 -10.65,-55.96 4.85,-25.68 17.76,9.97 4.31,-56.27 -43.72,-9.28 -4.89,7.16 -26.69,3.49zm2815.46 -134.64c2.63,31.75 12.5,57.67 19.21,86.53 11.69,-6.16 28.63,-12.51 38.6,-19.3l25.23 -24.87c5.4,-8.34 2.81,1.4 6.21,-11.33 9.88,-36.97 1.9,-9.79 -89.25,-31.03zm-1758.48 144.07c-10.15,-42.45 -67.78,-130.8 -94.24,-166.91 -44.44,-60.62 -97.99,-63.06 -156.98,-100.17l-20.34 48.3 -102.21 -29.41 -12.05 85.13c49.83,23.47 106.46,77.29 148.37,111.05 25.69,20.65 23.38,15.54 36.97,44.94l-110.18 -10.6 39.37 153.76c132.79,-3.26 164.87,-3.12 281.44,27.59 -19.94,-106.42 -138.32,-227.38 -143.8,-284.51 48.93,35.83 93.82,99.85 133.65,120.83zm181.67 -185.89c32.53,95.91 89.21,156.3 162.24,216.1 31.81,26.06 46.53,34.98 62.61,72.95l-100.12 -36.25c14.36,31.81 51.28,71.68 75.34,88.76 -29.49,14.4 -25.33,-0.1 -43.36,7.79l44.99 72.03c88.89,-38.46 74.03,-58.89 204.46,-57.76l-10.82 -71.76c-49.66,-29.09 -91.97,-16.5 -119.02,-67.33 20.98,-22.2 32.21,-23.47 64.92,-35.43l-49.15 -177.32 -292.09 -11.78zm2086.45 128.35c-21.34,91.61 -128.58,129.03 -37.2,354.56 52.74,130.25 87.58,109.09 74.94,270.61 -5.17,66.64 -4.58,32.03 10.37,96.04l19.21 0c9.38,-40.27 49.07,-140.67 67.42,-172.97 37.47,-65.92 68.64,-85.72 124.91,-115.48l-90.3 217.42c-69,198.3 -74.66,342.14 -7.25,534.01 25.83,73.49 90.93,135.92 174.47,142.85 -58.17,-121.28 -106.01,-295.53 -17.98,-412.24 16.72,-22.15 27.5,-37.92 49.47,-56.31 286.92,-239.85 505.93,21.02 574.34,314.69 63.02,-42.18 106.33,-194.27 113.26,-271.74 3.76,-41.86 -19.03,-120.74 -33.3,-154.4 -34.84,-82.28 -112.76,-161.47 -178.37,-215.88 -128.89,-107.01 -271.1,-136.87 -459.3,-136.87 39.14,-53.46 160.61,-69.13 246.19,-44.26 79.28,23.06 158.75,66.91 224.98,101.93 -8.29,-99.53 -156.75,-114.35 -199.11,-195.13 -91.57,-174.74 -81.87,-238.3 -233.46,-353.15 -209.13,-158.48 -273.15,-80.01 -452.1,-38.28 6.75,-25.47 -0.77,-7.93 9.6,-28.86 -120.65,28.09 -203.74,211.84 -180.41,382.33 5.08,37.01 19.71,77.11 12.92,123.32 -6.71,45.62 1.72,76.16 17.3,115.71 35.66,90.34 61.8,106.24 140.59,147.92 -10.79,-46.26 -48.34,-97.81 -72.99,-138.59 -113.63,-188.06 28.13,-447.52 101.8,-467.23zm-19.21 -163.46l0 0zm-681.07 -39.37c136.86,169.66 71.08,215.7 160.56,220.91 -72.49,-259.6 -69.5,-174.34 -160.56,-220.91zm-1660.45 80.96c8.48,-8.25 27.91,10.78 21.75,-68.32 -6.89,-88.62 -48.79,-126.18 -73.26,-178.23l-19.39 72.12c-7.47,74.89 23.2,93.15 70.9,174.43zm-908.78 -31.99c0,-112.58 44.04,-152.22 -58.94,-216.56 -9.47,80.15 -30.4,92.2 -5.16,174.74 12.68,41.46 26.77,88.49 53.95,120.47l10.15 -78.65zm3461.83 -153.86c-35.65,-9.51 -12.41,-9.69 -48.07,-19.2 2.13,25.55 10.47,58.57 19.26,76.92 67.14,0 93.82,9.61 163.46,9.61l0 -201.93c-70.59,-16.44 -125.04,-62.52 -182.72,-67.32 0,156.53 34.21,142.3 48.07,201.92zm-892.6 104.89c-63.93,-138.59 69.04,-187.7 -260.92,-238.9 48.12,68.23 173.84,188.83 260.92,238.9zm-1559.96 -320.45c14.95,60.8 58.04,102.26 105.97,148.29 18.53,17.8 21.34,15.67 36.92,35.92 -50.69,-11.69 -71.4,-33.57 -112.53,-51.78 0.58,54.05 55.22,146.34 87.34,181.4l93.65 -58.12c-20.02,-43.14 -67.28,-78.93 -73.03,-113.27 50.11,23.29 103.16,58.99 162.83,73.17 26.36,-41.95 60.98,-76.75 74.7,-138.32l-375.85 -77.29zm750.39 90.34c-28.81,-70.72 -90.74,-108.01 -130.34,-177.05 -42.63,-74.26 -69.63,-126.5 -129.17,-167.68 -0.18,98.54 3.45,74.53 -16.71,171.85 17.89,20.65 34.88,27.9 59.44,53.37 70.72,73.16 92.33,102.11 141.85,204.73 134.42,278.58 -7.11,257.7 22.92,351.03 8.75,2.94 1.77,4.98 18.8,0.72l42.55 -23.33c19.39,69.18 37.83,261.23 68.27,307.76 46.67,-195.86 -46.07,-142.53 -11.01,-424.06 8.97,-71.99 21.79,-147.38 -14.9,-204.83 -31.67,-49.51 -86.17,-71.99 -120.92,-112.17l69.22 19.66zm-942.53 -151.59l-5.39 42.09c-28.63,-40.41 -22.02,-71.9 -42.45,-111.45 -22.61,-43.68 -46.62,-32.35 -35.16,-56.54 15.09,-31.99 -1.95,25.28 14.27,-20.3l-32.12 -60.98c-30.26,10.01 -58.76,23.15 -72.13,51.28 -1.04,87.35 -29.08,98.81 -58.03,154.58 190.96,36.16 193.14,98 256.29,130.08 29.77,-72.31 13.19,-100.35 -13.55,-151.5 -20.38,22.6 -1.94,-7.93 -11.73,22.74zm1519.72 -40.59c-11.91,-93.61 -9.42,-120.65 -172.52,-114.31 9.56,83.45 87.03,126.58 127.58,185.16l-70.72 -4.89c14.09,97.59 -3.08,94.55 96.05,96.82 59.17,1.36 132.02,7.88 189.06,-3.36 -93.56,-45.66 -82.1,-78.74 22.29,-138.13l-8.79 -88.66c-63.34,19.61 -113.86,60.89 -182.95,67.37zm980.77 -47.98l76.93 0c-9.06,-38.83 -24.82,-71.9 -36.97,-107.33 -16.35,-47.57 -31.53,-61.07 -88.07,-65.78 0,94.14 32.94,108.05 48.11,173.11zm57.68 -173.11l0 0zm-548.11 67.32c41.82,0.9 52.47,9.6 105.75,9.6l0 -57.72 -57.5 29.27c0.96,-57.45 19.03,-37.24 19.03,-183.08 -31.71,8.48 -69.81,43.22 -105.74,67.28 10.51,21.97 36.02,105.56 38.46,134.65zm548.11 -67.32c-11.06,-47.53 -40.41,-93.47 -86.54,-105.79 0,61.11 5.4,86.89 86.54,105.79zm-1771.17 -105.79c-43.27,-70.23 -12.41,-76.03 -112.67,-97.23 -57.81,-12.23 -114.58,-25.01 -175.25,-30.58l-5.34 50.33c33.52,22.79 149.87,67.1 198.48,78.34 -15.18,23.51 -11.46,13.73 -34.75,34.61 144.16,111.27 143.03,256.93 253.12,345.14 11.87,-69.73 -11.78,-164.78 -34.88,-217.51 -27.73,-63.2 -63.52,-99.9 -112.95,-137.05l24.24 -26.05zm-846.35 50.1c-16.08,-120.42 -61.66,-241.16 -178.14,-287.82 1.77,122.19 -2.58,110.55 69.18,166.13 48.66,37.65 87.49,105.2 108.96,121.69zm163.46 -59.71c-29.99,-33.3 -50.29,-50.06 -77.24,-84.17 -27.41,-34.8 -45.35,-64.66 -72.9,-87.44 8.25,69.86 39.23,139.81 63.84,193.09l34.65 69.81c4.72,31.13 -33.93,21.34 -3.8,61.03 19.71,25.91 -2.72,4.62 31.85,8.43 29.76,72.21 54.77,121.28 94.82,183.3l52.83 -19.98c-10.83,-21.11 -15.68,-20.93 -25.01,-43.58l66.37 -19.89c10.92,-20.84 -7.7,-38.92 -1.58,-35.43l70.4 -42.63 -8.11 -71.58c-340.65,39.82 -264.63,-15.54 -226.12,-110.96zm1206.08 -48.84c3.85,-68.5 21.29,-78.69 35.97,-133.65 -50.34,-13.59 -159.84,10.42 -211.21,26.28 -9.97,19.07 -12.37,-22.65 -5.49,29.13 1.59,12.19 6.75,11.42 6.8,11.42 8.79,2.9 9.83,-6.93 27,-20.16 4.89,45.66 11.19,59.8 30.58,96.59l22.07 -43c16.17,111.95 32.3,162.69 70.63,249.09l314.55 -37.51c1.81,-50.88 -93.78,-151.68 -116.98,-192.14l-173.92 13.95zm1151.79 -66.55l-76.88 0c7.21,31.12 16.31,42.18 19.21,76.93 41.05,3.4 71.49,18.26 115.39,19.25l0 -230.83c-58.98,-1.31 -233.32,-64.65 -278.85,-86.53 23.47,100.76 93.42,167.18 184.21,200.43 16.45,6.03 7.25,1.45 20.25,8.61 12.55,6.84 9.43,5.84 16.67,12.14zm-1802.7 -120.29c32.22,8.57 40.51,23.2 78.07,34.03 -20.48,-173.93 -30.95,-93.65 -84.27,-163.78l29.99 -11.42c15.49,-2.17 24.51,0.36 41.05,2.04l-6.94 -111.86c-45.8,-4.98 -86.12,28.14 -135.1,39.83 -50.92,12.14 -105.83,8.97 -160.65,12.45l0.23 106.06 168.4 3.99 -46.44 87.71c37.51,-1.4 79.42,-8.65 115.66,0.95zm377.49 -328.19c-24.51,16.09 -36.2,31.49 -55.55,57.49l-75.07 -39.59c6.07,59.44 60.71,157.39 94.19,192.27l33.26 -38.46c0.77,-3.4 3.08,-3.94 4.8,-5.75 -7.16,91.38 -6.89,134.33 49.97,182.53 30.63,-22.61 46.94,-44.99 77.75,-70.95 26.23,-22.06 58.21,-38.87 83.86,-60.66l-75.62 -167.4c-38.64,14.18 -52.42,24.87 -95.73,39.14l2.4 -72.53 -44.26 -16.09zm1242.54 179.23c1,-44.81 11.28,-50.74 28.86,-76.93 -24.6,-36.7 -149.37,-131.11 -192.36,-153.86 4.66,56.09 62.25,150.64 98.31,190.2 22.79,25.05 27.36,37.46 65.19,40.59zm-298.11 -153.86c23.47,13.19 17.76,9.61 57.68,9.61 1.13,49.65 48.02,216.65 -76.93,250.04 3.08,36.7 8.2,25.41 9.74,67.23 3.35,91.74 -28.45,110.5 115.3,76.97 25.1,-52.32 28.82,-85.08 28.82,-163.46 -1.5,1.72 -3.49,2.4 -4.13,5.49l-20.56 27.5c-0.87,1.13 -2.63,3.76 -4.13,5.48 0,-72.58 -10.01,-141.49 -17.67,-203.51l-20.79 -200.39c-36.06,9.65 -50.15,30.17 -76.93,48.11 14.18,29.63 9.6,35.25 9.6,76.93zm-1269.36 -210.17c-6.75,-62.2 -51.24,-127.26 -77.84,-173.34 -21.7,-37.65 -52.5,-83.4 -84.13,-107.51 -36.24,-27.63 -3.8,-13.18 -49.52,-19.34 3.49,51.69 -17.94,85.53 -34.47,127.49 46.25,54.68 104.56,91.65 120.19,122.37l-144.02 1.49c36.47,43.63 145.56,95.51 216.46,158.84 29,25.96 28.14,34.48 61.39,52.51 -13,-97.36 -49.97,-120.51 -65.06,-195.4l57 32.89zm119.02 -130.34c-39.92,-83.36 -30.27,-37.56 -66.78,-102.75 -43.27,7.29 -56.68,19.79 -71.99,51.64 66.64,54.28 62.02,6.98 86.8,74.21 35.57,96.55 33.03,68.1 55.59,76.98 4.62,52.19 2.45,73.71 28.5,112.35 109.91,-181.49 74.71,-164.23 23.24,-246.14l-18.21 30.94c-4.26,11.78 -6.17,26.87 -8.48,36.75l-28.67 -33.98zm-144.62 -77.79c-4.48,-36.74 -6.52,-43 -32.08,-65.56 -3.8,6.71 -7.88,1.41 -8.06,21.02 -0.36,38.06 40.01,44.45 40.14,44.54z"/>
  </g>
 </g>
</svg>
