<?xml version="1.0" encoding="UTF-8"?>
<!DOCTYPE svg PUBLIC "-//W3C//DTD SVG 1.0//EN" "http://www.w3.org/TR/2001/REC-SVG-20010904/DTD/svg10.dtd">
<!-- Creator: CorelDRAW 2017 -->
<svg xmlns="http://www.w3.org/2000/svg" xml:space="preserve" width="30.427mm" height="50.7998mm" version="1.0" style="shape-rendering:geometricPrecision; text-rendering:geometricPrecision; image-rendering:optimizeQuality; fill-rule:evenodd; clip-rule:evenodd"
viewBox="0 0 3042.7 5079.98"
 xmlns:xlink="http://www.w3.org/1999/xlink">
 <defs>
  <style type="text/css">
   <![CDATA[
    .fil0 {fill:#005DAA}
   ]]>
  </style>
 </defs>
 <g id="Capa_x0020_1">
  <metadata id="CorelCorpID_0Corel-Layer"/>
  <path class="fil0" d="M433.98 3568.19l50.84 -266.96 0 330.49c-21.69,-14.5 -50.84,-27.63 -50.84,-63.53zm305.03 -2694.8c0,254.64 0,-190.23 0,0zm18.43 84.35c-13.78,-106.47 -18.93,-135.62 3.04,-238.68 138.09,39.45 110.82,242.88 -3.04,238.68zm696.16 -402.15l-53.6 0c0,-153.39 28.29,-233.38 104.66,-314.76 63.09,-67.23 150.49,-144.76 251.3,-168.25 -17.05,63.82 -85.95,112.63 -113.14,191.97 -13.86,40.25 -11.1,93.26 -38.22,114.3l-115.61 62.37c70.57,0 75.36,-12.69 139.83,-12.69 13.63,58.45 25.53,39.16 38.15,92.1l-213.37 34.96zm251.52 -30.9c-12.48,-59.54 -55.12,-101.82 -46.42,-180.22 13.49,-122.06 102.77,-198.28 185.08,-287.92 110.68,-120.68 -186.53,-40.11 -370.67,165.35 -82.9,92.4 -111.25,200.53 -111.25,374.16 -297.43,111.83 -252.1,-111.25 -524.07,-152.09 -225.04,-33.65 -407.22,157.82 -428.04,329.05 -29.59,243.97 134.61,395.48 150.93,609.21 10.15,132.28 -9.21,246.87 -12.04,368.49l-83.84 1047.55c-35.9,159.26 -124.02,666.28 -211.48,741.85 -39.75,34.38 -88.99,28.65 -137.15,53.53 -117.05,60.48 -179.93,314.75 -3.91,347.1 65.41,12.04 86.16,16.32 149.11,41.56 197.41,79.27 129.45,-12.19 236.14,-83.62l30.6 426.95c20.38,144.54 63.03,380.1 70.57,514.2 3.7,65.85 59.61,221.85 120.46,237.01 76.15,19 93.49,-53.16 117.35,-101.9 74.19,-150.92 117.05,-371.62 156.87,-542.27 29.44,-125.68 48.66,-273.27 72.89,-397.43 25.67,-131.63 50.91,-271.75 65.78,-404.54 13.99,-125.62 30.17,-293.87 58.81,-411.51 60.42,-248.32 385.76,-139.32 501.29,-133.81 182.55,8.71 476.49,16.25 585.28,-126.99 67.74,-89.2 136.42,-170.14 206.77,-263.55 253.98,-337.53 373.57,-621.9 297.93,-1055.31 -23.28,-133.52 -65.13,-245.57 -98.27,-368.5 202.7,-74.77 341.3,-256.8 355.95,-463.28l0 -72.45c-4.86,-69.27 -23.86,-140.12 -59.04,-209.67 -12.47,-24.59 -17.69,-37.64 -31.33,-57.59 -16.97,-24.73 -15.59,-30.53 -49.46,-39.52 -18.13,37.71 -20.38,135.54 -39.45,189.36 -40.76,114.66 -112.63,180.66 -207.28,250.35 -91.31,67.16 -101.61,55.05 -170.58,30.61 -7.61,-57.22 -202.56,-199.44 -243.68,-224.1 77.53,-178.99 63.1,-162.75 50.84,-309.83 -72.67,0 -122.49,28.94 -159.63,69.26 -39.6,43.08 -68.17,84.06 -94.5,134.17 -89.64,-20.81 -208.8,-70.56 -330.56,-43.66zm838.89 453.21c21.03,-33 163.83,-100.74 177.97,-104.51 36.7,54.83 58.53,98.2 101.68,127.14 -1.81,-81.08 -43.8,-116.84 -76.22,-165.29 68.25,-45.69 169.42,-215.1 177.9,-317.73 96.39,70.57 126.99,373 -39.89,570.19 -2.39,2.83 -9.42,10.81 -11.89,13.56l-12.69 12.7c-1.89,1.81 -4.64,4.42 -6.53,6.23 -33.43,31.84 -33,41.56 -81.52,45.55 -13.99,-60.05 -44.16,-109.8 -88.98,-139.83 2.17,96.97 48.44,68.9 50.84,177.98 -32.64,21.9 -29.3,21.54 -69.7,38.15 -11.53,-57.3 -74.05,-204.96 -115.39,-257.83 -1.01,-1.31 -3.55,-4.35 -5.58,-6.31zm-726.84 1653.63c19.8,-138.66 90.22,-231.57 239.11,-227.8 49.32,60.27 55.34,93.05 64.98,184l-304.09 43.8zm-83.99 -0.43c-177.61,1.6 -270.37,-33.43 -425.06,-63.97 20.3,-121.69 134.6,-265.95 245.64,-284.73 190.3,-32.2 185.95,198.65 179.42,348.7zm491.5 -89.57c20.53,-57.15 35.68,-86.74 90.51,-103.06 34.45,23.28 9.94,1.38 32.2,28.58 -27.27,57.73 -50.33,62.81 -122.71,74.48zm-1217.25 -168.18c24.15,-79.85 76.37,-109.88 176.96,-113.79 50.69,104.14 58.09,104.72 43.22,248.47 -76.66,8.19 -191.03,-94.87 -220.18,-134.68zm1510.83 -147.16c-171.23,-6.23 -134.97,-138.23 -125.03,-278.49 101.68,32.93 127.5,147.95 125.03,278.49zm-58.67 71.8l-16.17 126.85c-48.52,-6.6 -118,-33.14 -158.25,-59.18 -4.06,-145.05 -27.92,-196.03 -47.07,-312.22l60.92 -32.35c82.97,123.08 -19.07,214.61 160.57,276.9zm-124.38 -407.66c-51.2,84.2 -126.12,139.83 -278.86,93.56 -106.97,-32.42 -88.84,-189.43 -67.01,-279.51 133.74,32.13 297.57,92.9 345.87,185.95zm-1391.97 414.77c-137.36,-125.76 -125.39,-438.12 -0.87,-524.93 58.31,39.74 76.59,134.6 195.75,114.3 101.89,-17.41 128.73,-93.71 202.7,-119.52 -15.23,126.77 -122.71,152.3 -173.11,302.28 -30.83,91.89 -13.93,87.25 -90.66,138.23 -40.9,27.2 -90.8,67.67 -133.81,89.64zm975.68 -618.2c-4.72,166.74 -129.68,434.21 -313.38,394.68 -164.34,-35.32 -207.78,-296.26 -214.53,-493.38 103.64,-9.43 453.35,53.66 527.91,98.7zm-671.51 -87.54c34.38,-20.81 31.19,-16.24 78.76,-14.94l-14.36 30.75c-12.98,102.05 -149.25,287.35 -254.48,198.94 -131.27,-110.31 59.25,-220.48 190.08,-214.75zm-466.19 -1034.12c343.12,-51.28 412.96,517.89 46.93,552.34 -343.84,32.42 -455.1,-491.28 -46.93,-552.34z"/>
 </g>
</svg>
