<?xml version="1.0" encoding="UTF-8"?>
<!DOCTYPE svg PUBLIC "-//W3C//DTD SVG 1.0//EN" "http://www.w3.org/TR/2001/REC-SVG-20010904/DTD/svg10.dtd">
<!-- Creator: CorelDRAW 2017 -->
<svg xmlns="http://www.w3.org/2000/svg" xml:space="preserve" width="42.3332mm" height="50.7998mm" version="1.0" style="shape-rendering:geometricPrecision; text-rendering:geometricPrecision; image-rendering:optimizeQuality; fill-rule:evenodd; clip-rule:evenodd"
viewBox="0 0 4233.32 5079.98"
 xmlns:xlink="http://www.w3.org/1999/xlink">
 <defs>
  <style type="text/css">
   <![CDATA[
    .fil0 {fill:#005DAA}
   ]]>
  </style>
 </defs>
 <g id="Capa_x0020_1">
  <metadata id="CorelCorpID_0Corel-Layer"/>
  <path class="fil0" d="M2660.91 3759.03c3.02,-4.44 7.17,-15.19 11.15,-11.61 3.99,3.59 9.17,-9.27 11.84,-11.09l151.6 -67.95c76.71,-34.54 134.81,-76.71 204.18,-125.36 129.68,-90.99 237.12,-193.14 349.4,-273.03 93.61,322.59 -504.98,554.26 -728.17,489.04zm-1219.26 303.31c414.1,54.23 550.67,-71.24 985.49,-250.27 -80.58,193.2 -228.65,254.25 -473.06,317.88 -195.3,50.81 -411.03,107.32 -512.43,-67.61zm1057.48 -507.66c136.63,-169.12 68.34,58.16 2.79,-368.18l267.23 -157.11c122.57,80.63 92.75,114.78 241.45,150.51 154.21,37.05 194.5,-22.53 323.39,-28.62 50.93,137.83 -143.12,235.93 -339.84,374.04 -83.94,58.96 -181.02,122.46 -287.26,150.92 -150.4,40.29 -129.29,-12.35 -207.76,-121.56zm32.78 -76.76l-127.82 58.16 -93.66 -223.24c19.06,-20.83 12.8,-22.99 48.31,-48.2 27.66,-19.58 64.08,-35.34 94.69,-50.76l78.48 264.04zm-1150.18 458.77c291.3,-149.37 307.8,-157.23 320.94,-429.75l561.83 -188.47c24.93,52.86 45.13,123.71 71.31,176.12 52.92,105.9 315.94,201.22 -210.21,411.26 -237.3,94.69 -618.34,246.23 -743.87,30.84zm1676.61 -1113.59c73.75,42.57 135.27,126.73 182.33,209.25 -142.89,46.09 -256.71,30.1 -327.21,-104.25l144.88 -105zm117.63 266.84l110.45 4.55c-110.17,122.35 -459.57,35.51 -455.59,-110.46 154.56,-23.04 33.06,141.07 345.14,105.91zm-1802.72 776.76c52.12,-87.01 118.87,-59.52 187.33,-154.78 25.61,-35.63 32.04,-63.68 39.55,-98.17l26.75 -96.05c63.9,47.97 25.66,170.71 -8.94,216.41 -39.83,52.69 -155.18,141.01 -244.69,132.59zm-52.36 -301.77c-5.52,-72.84 -1.59,-36.88 1.88,-61.57l233.83 36.64c21.68,138.85 -32.95,187 -190.69,253.92l-45.02 -228.99zm1848.76 -695.62c-58.44,-75.8 -145.11,-204.18 -75.23,-303.42 60.72,-86.21 180.67,-66.35 284.93,-86.78l38.75 363.17 -248.45 27.03zm-2043.94 501.17c127.07,78.47 139.42,115.18 164.68,275.14l-274.97 169.92 -183.69 -202.7 293.98 -242.36zm1497.7 -433.74c146.36,-89.05 275.88,-208.27 401.13,-282.99 79.78,165.6 -189.78,282.6 -324.14,368.87 -341.83,219.54 -1347.47,761.74 -1559.33,245.6 75.8,12.18 124.23,38.41 218.18,47.8 439.08,43.93 893.42,-153.7 1264.16,-379.28zm-1906.17 -481.59c188.35,96.11 342.8,179.99 605.02,33.86 104.53,-58.33 188.19,-147.9 234.96,-227.11 67.09,-113.41 40.29,-199 82.17,-285.78 215.17,320.55 41.66,630.97 -231.2,812.44 -512.5,340.7 -736.71,-159.73 -690.95,-333.41zm1537.88 -533.66c-5.98,-311.16 381.61,-404.6 636.71,-348.26 314.75,69.48 451.61,378.36 202.99,609.34 -121.61,-401.58 -508.63,-544.42 -839.7,-261.08zm828.54 -687.88c-99.75,-22.59 -119.73,-74.26 -64.75,-204.29 13.77,25.15 55.82,94.58 63.56,117.62 40,118.94 11.15,42 1.19,86.67zm-469.53 -70.39c14.63,-79.27 60.1,-112.9 127.7,-167.02 1.65,100.04 5.01,194.11 -127.7,167.02zm-1509.82 620.73c-96.91,-26.92 -115.69,-91.68 -163.26,-209.02 14.79,1.82 57.36,-27.88 120.86,66.87 33.41,49.9 38.25,98.61 42.4,142.15zm-384.8 212.2c-76.19,-28.85 -140.55,-140.79 -140.84,-217.21 89.57,33.97 157.74,79.72 140.84,217.21zm-402.61 -702.05c-99.3,6.83 -276.56,-35.28 -311.9,187.68 -10.75,67.89 -5.46,94.4 32.16,120.3 17.29,-83.94 -2.22,-173.57 71.35,-234.11 88.27,-72.67 188.99,-24.87 253.63,6.94 -478.86,610.6 -254.88,1385.71 502.03,1759.41 94.92,46.84 192.28,53.21 240.59,171.91 -41.71,65.45 -215.9,191.66 -375.06,372.28 -149.38,169.58 -67.78,211.41 -135.27,269.62 -192.45,91.56 -188.47,-29.87 -323.45,-15.82 64.82,144.83 201.5,239.69 317.48,224.84 204.29,-26.07 187.1,-203.73 284.24,-317.14 151.88,-28.91 64.08,45.47 188.13,-0.51 36.76,-13.6 165.26,-107.72 232.92,-142.15 43.25,163.6 37.1,358.56 174.19,463.21 81.77,62.48 96.62,17.76 135.66,167.3 92.47,354.3 -319.87,202.65 -421.22,386.11 -53.32,96.46 -33.17,288.91 61.86,366.02 89.57,-183.01 134.07,-295.91 418.77,-247.83 376.2,63.51 594.95,-411.82 646.51,-739.37 22.08,-140.39 72.5,-79.67 139.13,-210.04 46.38,-90.71 15.76,-151.54 34.26,-258.3 299.55,331.14 83.71,22.82 397.26,338.53 144.65,145.63 266.89,205.95 469.02,199.86 458.66,-13.89 354.58,-421.5 627.72,-460.26 60.04,-8.48 77,-1.48 122.81,21.29 66.18,32.94 47.51,50.13 133.5,63.9 -75.52,-201.16 -189.33,-294.54 -379.85,-253.8 -249.36,53.32 -275.71,182.73 -467.19,5.81 32.03,-118.08 112.78,-107.5 29.47,-311.11 -52.07,-127.13 -134.47,-213.57 -198.54,-314.4 175.78,-52.07 80.46,35.56 279.92,-83.14 78.24,-46.49 130.77,-25.5 228.47,-153.19 53.61,-70.11 105.11,-179.2 163.38,-238.67 126.79,-129.29 197.52,-68.57 296.76,-109.08 -400.1,-293.01 -526.32,131.9 -714.5,198.37 -46.89,-31.87 -28.34,-60.32 -105.85,-79.61 -34.31,-8.54 -93.44,6.2 -144.77,-3.64 133.62,-178.92 265.47,-317.94 356.35,-501.74 87.12,-176.07 156.94,-362.32 180.84,-588.98 85.42,-811.99 -578.96,-945.71 -661.98,-1025.67 92.58,-108.06 114.55,-121.43 240.94,-122.29l65.32 117.97c32.73,47.4 -10.41,8.65 31.42,33.52 4.44,-266.55 -195.42,-211.13 -351.23,-90.43 -245.94,-449.61 -575.94,-235.13 -534.11,-59.81 65.61,-74.43 86.83,-193.02 250.04,-161.32 141.75,27.54 198.94,132.76 251.24,272.97 -278.61,64.02 -551.08,-69.36 -895.93,646.51 -116.42,241.57 -205.2,725.83 -157.57,1091.62 -182.78,-373.18 -348.49,-630.63 -648.95,-774.2 -284.47,-135.89 -568.43,-163.49 -914.42,29.99 -41.2,-121.21 -33.46,-230.3 26.86,-300.86 86.33,-101.18 220.05,-39.15 305.41,-38.7 -41.48,-63.22 -48.31,-60.89 -140.78,-62.42 -295.68,-5.01 -254.09,258.58 -264.84,363.06 -142.72,-244.19 -31.58,-328.63 -78.87,-444.27 -65.62,143.92 -55.26,276.74 36.64,463.84z"/>
 </g>
</svg>
