<?xml version="1.0" encoding="UTF-8"?>
<!DOCTYPE svg PUBLIC "-//W3C//DTD SVG 1.1//EN" "http://www.w3.org/Graphics/SVG/1.1/DTD/svg11.dtd">
<!-- Creator: CorelDRAW 2017 -->
<svg xmlns="http://www.w3.org/2000/svg" xml:space="preserve" width="41.9946mm" height="41.9946mm" version="1.1" style="shape-rendering:geometricPrecision; text-rendering:geometricPrecision; image-rendering:optimizeQuality; fill-rule:evenodd; clip-rule:evenodd"
viewBox="0 0 4199.46 4199.46"
 xmlns:xlink="http://www.w3.org/1999/xlink">
 <defs>
  <style type="text/css">
   <![CDATA[
    .fil0 {fill:#D2D3D5}
   ]]>
  </style>
 </defs>
 <g id="Capa_x0020_1">
  <metadata id="CorelCorpID_0Corel-Layer"/>
  <path class="fil0" d="M3443.63 3450.62c12.7,9.31 12.84,12.81 12.84,34.26l-8.56 0c0,-20.19 -0.76,-19.16 -4.28,-34.26zm-3080.33 -2692.92c0.08,-5.58 6.07,-12.18 17.96,-19.79 11.88,-7.61 17.52,-17.8 16.91,-30.58l75.81 -25.24c19.7,-9.68 45.4,-5.92 77.07,11.31 26.14,14.76 52.26,29.91 78.38,45.46l40.6 47.9c-10.85,5.03 -19.52,10.68 -25.99,16.98 -4.05,3.92 -8.94,10.44 -14.66,19.54 -5.72,9.09 -11.41,16.39 -17.09,21.9 -4.04,3.93 -8.69,7.66 -13.93,11.18 -18.83,4.91 -42.47,-2.82 -70.91,-23.2 -27.26,-19.16 -50.52,-25.28 -69.78,-18.39 -12.56,12.19 -24.91,24.19 -37.06,35.98 -11.79,14.6 -15.82,31.51 -12.12,50.72 17.29,18.61 44.97,50.76 83.02,96.43 34.9,42.42 62.77,74.36 83.62,95.82 34.2,35.23 67.73,62.86 100.57,82.91 30.3,2.04 54.56,-5.79 72.79,-23.49 8.5,-8.26 13.44,-18.16 14.81,-29.71 -1.38,-15.2 -9.68,-34.27 -24.91,-57.25 -17.56,-27.81 -28.25,-47.32 -32.08,-58.55 -5.09,-6.06 -2.74,-17 7.07,-32.83 13.09,-21.37 20.28,-35.03 21.56,-41 11.27,-6.22 22.74,-12.64 34.41,-19.25 11.68,-6.61 24.96,-7.12 40.04,-1.32 30.92,34.29 54.63,71.26 71.12,110.92 19.97,47.3 22.99,86.06 8.87,116.09 1.41,12.79 -1.93,23.12 -10.03,30.99 -2.43,2.35 -6.47,5.69 -12.12,10 -5.65,4.31 -9.7,7.64 -12.12,10 -6.48,6.29 -9.39,14.23 -8.73,23.82 -13.65,5.39 -27.37,14.77 -41.13,28.14 -3.65,3.54 -8.91,8.65 -15.79,15.33 -6.89,6.69 -12.16,11.8 -15.8,15.34 -10.8,10.48 -22.16,18.18 -34.11,23.07 14.7,8.15 24.22,20.56 16.28,38.41l-4.28 0c-17.45,6.51 -32.27,-1.15 -45.57,-10.09 -9.12,-6.12 -13.54,-13.34 -15.98,-22.98 -4.7,-0.12 -10.76,0.02 -18.15,0.44 -9.59,0.66 -16.16,-0.84 -19.59,-4.38 -3.15,-3.24 -5.17,-8.16 -6.27,-14.96 -1.23,2.77 -2.66,4.94 -4.29,6.52 -3.64,3.54 -9.84,4.44 -18.6,2.72 -11.14,-2.56 -19.31,-3.28 -24.51,-2.15 -5.12,-5.27 -15.97,-13.42 -32.58,-24.43 -16.6,-11.02 -28.44,-20.18 -35.52,-27.47 -11.8,-12.14 -18.59,-25.62 -20.36,-40.41l-35.76 -11.3c0.81,-0.79 4.82,-2.33 12.04,-4.61 -3.86,-9.64 -10.5,-19.32 -19.93,-29.04 -18.88,-19.44 -38.3,-28.9 -58.26,-28.4l23.33 0.95c-4.69,-6.46 -10.18,-12.93 -16.47,-19.41 -7.87,-8.1 -20.48,-19.26 -37.83,-33.49 -17.36,-14.22 -29.97,-25.39 -37.84,-33.49 -18.87,-19.43 -30.74,-40.15 -35.6,-62.18l23.43 -6.24c-6.32,-4.09 -11.75,-8.46 -16.46,-13.31 -10.52,-10.84 -17.7,-25.11 -21.33,-42.63 -2.17,-15.21 -4.45,-30.51 -7.01,-46.11 3.78,-5.83 10.4,-21.71 19.95,-47.51 7.6,-21.34 16.21,-36.79 25.93,-46.22 9.32,-9.05 20.97,-14.86 34.98,-17.46zm1065.85 -616.95c13.57,0 28.19,-2.38 43.85,-7.14 12.96,-3.94 32.33,-12.04 57.83,-24.22 25.63,-12.22 45.14,-20.36 58.64,-24.47 22.67,-6.89 44.11,-8.68 64.01,-5.3 -0.68,5.52 0.13,12.06 2.42,19.62 1.81,5.94 5.19,15.09 10.13,27.45 4.94,12.37 8.31,21.52 10.11,27.45 7.88,25.93 0.14,42.15 -23.26,48.67 -4.37,3.1 -9.78,5.63 -16.27,7.61 -6.48,1.96 -16.17,3.58 -29.05,4.85 -12.89,1.26 -21.77,2.63 -26.63,4.11 -12.95,3.94 -19.46,13.59 -19.52,28.94 13.06,31.28 25.51,66.43 37.29,105.18 9.53,31.32 22.03,78.26 37.46,140.68 15.44,62.41 27.74,108.67 36.93,138.91 10.51,34.56 21.77,65.79 33.88,93.97l-14.78 -7.89c-2.59,3.15 -2.57,9.04 0.06,17.68 -2,1.2 -19.76,7.78 -53.29,19.74 -21.28,7.65 -33.83,16.78 -37.69,27.39 -26.34,-3.2 -44.43,-21 -54.29,-53.41 -2.29,-7.56 -4.87,-18.43 -7.71,-32.61 -2.83,-14.17 -5.23,-24.51 -7.2,-30.99 -2.3,-7.56 -5.09,-13.8 -8.34,-18.7 -3.71,-8.31 -7.93,-24.14 -12.67,-47.48 -5.5,-27.82 -9.98,-47.41 -13.43,-58.74 -5.25,-17.28 -11.34,-30.49 -18.24,-39.59 0.92,-0.88 7.66,-2.93 20.26,-6.16 8.26,-1.93 11.43,-7.02 9.51,-15.28l-25.33 -4.69c0.27,-3.03 7.88,-7.11 22.83,-12.25 10.26,-3.12 14.24,-8.46 11.95,-16.02 -0.82,-2.7 -2.43,-6.05 -4.82,-10.04 -2.66,-0.96 -5.07,-1.12 -7.23,-0.46 -3.23,0.98 -7.55,3.77 -12.94,8.36 -5.38,4.59 -9.17,7.21 -11.33,7.87 -5.94,1.81 -10.3,-1.88 -13.09,-11.06 -2.79,-9.18 -9.03,-21.45 -18.71,-36.79 -9.67,-15.35 -15.58,-26.53 -17.72,-33.56 -3.61,-11.88 -2.52,-22.83 3.29,-32.85 -1.32,-4.32 -2.55,-8.37 -3.7,-12.15 -4.59,-15.12 -1.35,-29.68 9.73,-43.67 -13.4,-13.03 -28.33,-17.05 -44.94,-12 -5.41,1.65 -14.22,5.65 -26.31,11.98 -12.21,6.37 -21.43,10.5 -27.92,12.47 -12.95,3.94 -24.95,3.76 -36.27,-0.47 -6.83,-5 -13.66,-10 -20.36,-15.05 -9.11,-6.67 -14.73,-13.51 -16.86,-20.53 -1.15,-3.78 -1.49,-7.81 -1.02,-12.08 3.01,2.62 6.2,3.42 9.31,2.48 4.73,-1.44 8.03,-6.57 9.92,-15.41 1.88,-8.83 1.46,-16.07 -1.43,-21.69 -3.18,-3.16 -5.92,-4.4 -7.93,-3.78 -2.17,0.66 -4.11,3.01 -6.09,7.16 -1.85,4.1 -3.66,6.42 -5.14,6.87 -2.16,0.66 -4.81,-1.78 -8.25,-7.22 -1.49,-10.76 3.63,-19.11 15.41,-25.05 13.89,-7.17 21.83,-14.01 23.97,-20.56 12.24,3.37 23.76,3.4 34.55,0.12 7.02,-2.14 16.94,-7.36 29.47,-15.6 12.55,-8.24 22.33,-13.43 29.35,-15.56 11.88,-3.62 24.5,-3.31 37.6,0.96zm-374.71 168.14c30.73,15.28 63.98,50.85 99.75,106.72 -6.45,9.67 -13.94,16.7 -22.47,21.1 -8.03,4.14 -21.32,6.38 -39.87,6.72 -18.55,0.36 -32.09,2.72 -40.62,7.12 -6.02,3.1 -11.65,7.59 -16.88,13.46 -12.04,-9.83 -24.22,-19.91 -36.52,-30.24 -16.13,-12.8 -31.15,-17.92 -44.99,-15.23 -6.2,-5.87 -12.52,-7.05 -19.05,-3.69 -5.02,2.59 -11.99,9.99 -20.94,22.22 -8.94,12.22 -15.54,19.75 -19.79,22.58 11.52,71.68 34.9,141.71 70.11,210.07 25.4,49.31 57.23,98.15 95.42,146.41 9.82,12.88 22.69,18.15 38.7,15.94 16,-2.21 31.69,-4.42 47.06,-6.62 11.4,-17.3 18.64,-35.31 21.69,-54.03 3.06,-18.72 5.73,-37.56 8.03,-56.52 -13.66,-22.81 -34.74,-34.17 -63.39,-34.02 -20.42,2.9 -40.46,5.61 -60.37,8.24 -2.33,-4.51 -5.17,-10.03 -8.53,-16.55 -2.59,-5.02 -7.15,-12.36 -13.7,-22 -6.55,-9.64 -11,-16.71 -13.32,-21.22 -10.09,-19.58 -3.7,-34.3 19.15,-44.16 7.81,-2.12 16.23,-5.5 25.26,-10.15 9.53,-4.91 23.18,-13.85 40.95,-26.81 17.76,-12.96 31.17,-21.77 40.2,-26.42 26.09,-13.44 50.84,-12.86 74.24,1.76 12.84,18.77 25.87,40.96 39.05,66.54 11.11,21.58 28.73,59.49 52.87,113.73 22.55,49.96 40.93,88.11 55.14,114.45 -4.17,10.4 -11.01,18.06 -20.55,22.97 -8.03,4.14 -20.99,7.32 -38.9,9.55 -19.39,3.01 -32.86,5.83 -40.41,8.45 -4.22,5.35 -19.78,18.92 -46.65,40.69 -26.88,21.79 -45.03,39.55 -54.46,53.29 -15.2,-4.87 -33.72,-2.31 -55.57,7.67 -21.84,9.98 -35.93,13.75 -42.27,11.31 -6.46,-12.55 -23.29,-16.26 -50.5,-11.14 -42.7,-23.71 -76.96,-60.66 -102.82,-110.85 -3.36,-6.52 -6.22,-13.3 -8.57,-20.34l8.12 -17.51c-13.43,-3.88 -31.32,-11.49 -53.67,-22.84 4.52,-2.33 9.28,-4.78 14.3,-7.36 5.78,-2.34 11.1,-0.64 15.97,5.11 -1.4,-11.35 -4.43,-21.53 -9.08,-30.56 -5.17,-10.04 -15.47,-21.72 -30.91,-35.04 -15.43,-13.32 -26.49,-25.24 -33.18,-35.77 7.57,-0.08 11.86,-0.39 12.86,-0.91 -32.75,-57.41 -56.93,-116.07 -72.54,-175.96 -1.11,-29.27 3.1,-56.2 12.66,-80.81 11.51,-29.43 29.31,-49.7 53.41,-60.85 32.3,-22.36 57.98,-38.45 77.05,-48.27 58.2,-29.98 111.06,-33.39 158.53,-10.23zm2162.04 2388.1l30.27 9.1c9.24,10.99 42,28.3 55.64,29.44 -0.56,25.07 -6.71,16.4 -8.56,38.54 53.46,0 57.09,-17.06 111.29,59.94 10.82,15.38 12.22,24.85 34.23,29.98 11.7,-50.25 -9.12,-53.63 25.66,-55.67l54.93 27.18c-2.62,-15.89 -6.44,-22.71 -15.71,-32.65 -8.2,-8.8 -23.61,-16.49 -0.96,-20.06l90.16 4.12c-9.73,-13.29 -44.56,-25.26 -64.26,-34.19 -23.94,-10.84 -45.5,-17.9 -68.42,-30.04 0.3,-13.29 1.98,-15.75 4.28,-26.31 13.23,-8.41 6.92,3.24 8.56,-16.51 -30.36,0 -58.72,7.71 -79.01,0 -5,-19.57 -17.56,-22.58 -43.09,-57.68 -9.2,-12.63 -3.41,-10.91 -19.14,-15.11 -6.28,13.1 -9.09,15.67 -4.3,29.97 -11.53,8.55 -3.67,-1.74 -9.85,11.31 -4.72,9.96 -1.95,2.15 -2.97,14.39 -28.79,-2.4 -32.85,-24.81 -72.76,-25.7 12.43,18.56 22.01,19.68 34.24,42.82 -30.87,0 -69.71,-13.12 -85.6,8.57 11.21,2.61 14.14,4.73 25.37,8.56zm-1714.62 1237.49l-1.32 0.03c-2.04,11.87 -0.17,9.78 -4.28,17.1 7.55,3.63 13.85,4.94 21.4,8.57 0,20.12 2.22,45.28 -3.43,60.8 -2.97,8.17 0.55,-2.43 -3.99,8.85 -1.32,3.3 -4.33,12.32 -4.49,12.64 -7.83,16.21 -0.64,11.43 -22.33,11.91 -3.4,-14.58 -11.17,-34.69 -17.12,-47.1 25.18,-16.87 29.44,-19.38 29.96,-42.82 -24.35,5.68 -45.83,36.19 -51.36,59.95 44.35,10.33 -8.72,47.1 47.08,47.1 1.15,13.87 5.55,38.48 8.56,51.38 18.63,-1.55 18.39,-7.34 23.21,-23.87l10.98 -83.23c0.59,-24.18 4.24,-24.02 8.61,-42.77l14.13 0c21.97,18.31 5.49,16.24 14.36,44.29 5.09,16.11 15.82,28.62 31.43,32.79 0,68.6 -21.4,51.31 -21.4,89.92 20.72,4.83 13.05,11.43 31.23,4.28 14.48,4.53 10,8.49 28.69,12.85 0,-15.47 -2.03,-15.15 3.6,-25.69 1.08,12.75 2.65,15.79 4.96,25.69 23.77,0 24.8,-3.66 38.52,-12.85 0,-13.52 2.66,-31.68 -4.28,-43.13l-4.28 -85.33c-0.52,-0.18 -1.48,-0.18 -1.62,0.38 -0.13,0.57 -1.45,0.29 -1.64,0.29l-6.83 -0.86c-0.28,-0.11 -1.35,-0.69 -1.62,-0.81 -1.74,-0.81 -3.52,-20.7 -15.97,24.56 -5.21,18.92 -1.58,17.95 -23.06,19.26 12.01,-27.16 6.22,-43.49 14.19,-70.82 4.16,-14.24 27.48,-56.66 23.73,-104.47 -3.58,-45.6 -19.08,-20.23 4.02,-64.71 4.62,-8.9 7.78,-21.82 8.8,-34.04 -10.02,-5.3 -11.15,-7.36 -25.68,-8.57 -14.13,60.68 -4.87,3.69 -15.27,78.93 -3.69,26.65 -6.05,65.76 -14.69,83.79 -18.1,-1.51 -26.97,-12.43 -32.6,-1.98 -6.02,11.18 3.92,27.23 8.25,34.87 21.01,37.01 15.79,30.56 15.79,82.72l-34.56 -46.78c-12.41,-30.06 9.78,-58.31 -21.08,-57.8 0,-21.22 -0.57,-20.78 -4.28,-36.73 -8.08,-4 -5.32,-2.99 -17.12,-6.17l-4.96 1.2c-17.12,8.94 -26.3,7.67 -32.24,26.38zm606.43 -2441.96l12.82 1.48c0.02,-17.15 -1.33,-17.62 -4.26,-30.22 -6.4,-5.34 -2.03,-0.72 -8.56,-0.02 -0.71,-1.13 -1.95,-3.97 -2.4,-3.18l-9.43 -10.82c-9.72,-11.4 -5.84,-1.98 -9.57,-15.95 18.26,1.52 20.26,7.04 38.52,8.56 0,-28.48 4.28,-37.07 4.28,-64.23 -9.98,-2.65 -6.51,-0.62 -12.84,-0.02l-15.31 28.16 -23.7 -22.11c-12.28,-5.18 -9.33,1.6 -22.36,13.77 -8.34,7.8 -17.64,13.99 -28.51,19.08 -5.13,21.19 -7.01,41.22 -10.96,65.77 -3.57,22.15 -8.75,46.37 -10.44,66.63 -19.11,-12.8 -18.11,-22.19 -33.51,-34.98l-77.1 -64.18c-13.33,-9.8 -29.61,-25.1 -47.75,-22.99l-39.89 -30.63c-44.42,-23.88 -121.01,-35.63 -178.38,-35.63 8.13,11.11 71.15,55.55 94.15,89.92 20.35,-4.74 38.84,-8.62 64.21,-8.54l0 17.11 -12.85 24.37c-9.77,20.56 17.28,43.72 34.24,52.7 6.71,-4.49 13.36,-8.35 20.14,-14.1 8.64,-7.33 9.09,-9.65 18.38,-15.87 -4.01,48.22 -23.05,14.81 -8.56,77.08 13.09,-3.06 16.45,-6.67 25.68,-12.85 -6.21,26.68 -7.66,24.53 4.28,47.1 12.46,-8.34 25.2,-21.05 38.52,-29.97 -5.01,21.52 -15.87,23.37 -21.4,47.1l22.24 24.89c17.72,-11.63 18.83,-21.21 41.96,-33.45 -6.5,27.9 -22.9,30.78 -25.68,64.23 22.5,-1.88 44.5,-15.83 68.48,-21.42 3.02,12.97 30.12,78.63 -4.45,68.28 -7.78,-2.33 -97.48,-54.32 -150.81,-75.65 -76.71,-30.7 -199.59,-47.38 -279.51,-16.53 -11.3,4.36 -19.4,7.72 -30.34,12.46 -12.4,5.37 -20.11,6.21 -27.08,15.73 16.95,8.14 55.52,14.14 78.72,19.8 52.55,12.82 34.34,-2.34 66.8,-24.09 13.29,27.72 -9.5,58.46 59.92,64.24l8.22 -30.31c4.05,-8.61 1.55,-3.82 4.62,-8.23 0.84,10.17 5.47,34.24 9.6,41.94 11.31,21.05 22.44,11.09 30.36,6.89 0.63,-0.33 1.79,-1.35 2.83,-1.73l0 17.13c-52.17,0 -97.3,6.79 -139.5,18.85 -57.37,16.4 -118.41,43.03 -165.24,74.48 -34.82,23.39 -113.3,83.5 -123.25,120.77 18.59,-1.55 34.79,-8.5 51.33,-12.88l74.89 -19.28c18.72,-4.75 12.96,2.81 20.22,-14.02 8.92,-20.69 -1.07,-29.3 20.48,-43.75 4.15,15.55 12.02,17 25.68,42.82 65.63,0 69.24,7.02 55.64,-51.38 10.25,6.87 18.5,15 26.18,25.19 13.01,17.25 8.45,17.63 38.02,17.63l3.49 -24.91c9.87,14.92 8.36,20.63 39.31,20.63l-5.11 -51.29 26.51 47.01c61.23,0 29.95,-3.78 29.95,-59.95 26.81,17.95 14.86,48.7 47.09,51.38 5.03,-10.5 12.49,-44.48 12.83,-59.94 35.47,0 47.39,7.27 68.48,21.4l0 29.98c-33.29,7.76 -71.18,24.31 -98.5,38.47 -73.2,37.94 -176.89,128.6 -196.81,214.16 -24.79,-2.06 -34.43,-26.29 -50.62,-39.27 -14.34,-11.51 -42.33,-27.35 -64.94,-29.24 7.27,31.24 20.87,57.06 55.64,59.95 -15.62,23.33 -16.88,11.4 -8.56,47.1l21.4 0 -13.57 16.47c7.79,14.01 9.29,14.09 9.29,34.92l17.12 0c-6.18,9.23 -9.79,12.59 -12.84,25.69 -39.65,-26.57 -34.15,-43.15 -133.2,-76.56 -62.49,-21.08 -110.88,-17.64 -192.08,-17.64 4.17,11.51 40.56,27.09 55.54,34.36 38.79,18.86 39.56,2.66 72.86,-0.11 -3.33,12.46 -10.09,16.68 -17.12,29.98 22.74,33.96 32.2,18.95 59.92,4.28 -4.38,18.79 -11.12,17.89 -12.84,38.54 30.36,6.43 7.78,-0.25 25.89,12.83 13.69,9.88 16.78,2.25 17.87,1.86 8.25,-2.98 9.45,-5.92 16.16,-10.41 -4.87,18.26 -18.58,20.31 -12.84,29.97 15.06,20.56 19.9,-2.45 42.8,-8.56 -3.88,14.52 -8.07,12.83 -13.69,29.97 -14.98,8.12 -50.65,-6.81 -72.11,-8.56l-76.84 -4.29c-134.53,0.09 -161.82,30.27 -209.71,34.26 0,-87.49 -65.51,-187.7 -22.67,-450.87 11.68,-71.78 29.91,-139.03 53.81,-198.81l60.54 -127.83c8.47,-14.09 19.78,-26.25 17.46,-44.63 27.27,-13.82 44.93,-44.18 44.93,-85.64 6.83,-3.16 2.26,-0.76 8.43,-2.26l6.75 -1.57c0.29,-0.07 1.34,-0.17 1.94,-0.45 -5.71,-11.91 -4.28,-8.29 -4.28,-25.69l-8.56 0c-3.86,14.46 -11.05,20.16 -19.59,31.78l-66.01 98.81 -14.24 26.4c-66.41,135.85 -105.46,219.51 -122.06,387.47 -13.72,138.83 -3.65,278.6 37.31,410.98 16.82,54.37 26.36,81.98 50.48,133.62 12.1,25.92 78.88,169.9 104.15,175.42 7.07,15.33 27.68,47.53 41.79,54.37 -4.15,9.98 -0.87,9.49 8,18.53 8.57,8.75 8.31,10.22 22.97,11.44 0.98,-11.77 5.94,-18.31 -1.4,-32.61 -5.78,-11.27 -3.47,-5.57 -7.16,-8.79 -7.06,-15.97 -7.61,-17.37 -17.67,-30.85 -8.21,-11.01 -13.56,-17.69 -25.13,-24.66 7.56,-13.99 8.02,-14.59 25.68,-18.7 -4.46,-19.18 -8.51,-13.75 -12.84,-29.98 16.37,4.38 13.4,11.88 29.38,11.6 7.82,-0.14 23.46,-7.85 30.54,-11.6 -3.8,-16.33 -9.03,-17.92 -12.84,-34.25 61.7,14.38 47.08,33.31 47.08,-34.26 10.39,-4.99 18.71,-8.53 34.24,-8.58 21.82,-8.62 29.14,-6.24 34.24,12.86l51.24 -25.69 79.8 -44.77c18.87,-10.07 -17.18,5.02 4.5,-2.05 37.46,-12.22 26.6,58.57 42.26,104.73 7.56,22.28 10.13,11.09 31.92,10.6l0 17.13 -21.4 0 -1.54 12.85c8.29,20.4 29.69,14.78 48.62,10.4 9.09,-23.63 -6.3,-54.23 -12.07,-75.41 -3.75,-13.76 -3.89,-25.96 -7.79,-39.38 -6.78,-23.3 -12.33,-14.52 -5.82,-36.9 12.59,-6.68 2.85,-6.62 16.71,-7.42l94.56 7.4c5.12,-21.94 17.08,-27.5 40.72,-29.97 8.41,8.91 6.36,-16.72 6.36,38.54 25.72,-2.14 12.99,-8.97 29.96,-21.41l0 19 0 6.69c21.45,0 17.4,-0.15 29.96,-8.56l-4.8 16.95c13.56,-0.12 16.13,-1.76 26.2,-4.11 -2.73,32.92 -18.66,18.47 -21.4,51.38l25.68 8.57c-42.45,9.89 -64.42,7.48 -62.69,34.25 -11.34,6.19 -17.01,12.62 -26.22,22.36 -9.87,10.43 -14.93,16.13 -18.08,32.04 -14.72,-5.65 -23.34,14.39 -24.24,26.96 -12.16,6.68 -9.69,6.63 -19.75,16.12 -9.69,9.13 -8.79,7.11 -18.5,13.86l-2.17 37.15c-25.49,0.73 -28.46,-0.2 -46.62,8.73 -5.29,12.83 -4.28,13.34 -4.28,31.19 6.44,-3.09 11.13,-4.17 17.82,-7.85 33.29,-18.33 13.68,-19.32 59.31,-22.03 32.57,-1.94 21.74,-16.8 35.93,-18.29 19.72,-2.09 -5.93,20.16 -10.32,26.76 -0.78,31.29 -25.93,60.4 -45.75,81.36 10.03,7.23 7.91,4.16 22.37,5.96 -4.82,3.95 -3.58,-3.52 -5.45,8.36 -3.51,22.25 -1.44,3.78 2.77,10.93 11.31,19.19 12.18,-4.83 10.85,21.85 12.18,9.61 15.38,17.22 23.76,29.97l45.77 65.53c14.23,15.4 12.41,15.83 39.81,15.83l4.28 10.36c-3.85,13.23 -13.02,42.36 8.56,32.03 4.69,18.44 15.87,25.62 38.52,26.12 -0.43,19.37 -4.28,17.02 -4.28,38.54 12.77,-9.36 38.82,-50.72 4.28,-59.95 11.64,-17.38 11.86,-31.74 31.01,-42.82 -5.46,29.32 -5.33,42.5 -5.33,77.08 10.26,-11.81 15.67,-17.74 17.08,-38.58 1.51,-22.3 2.86,-38.06 4.32,-55.62 -20.02,-13.42 -31.82,-38.92 -55.64,-48.16 -14.76,-7.07 -13.26,0.59 -34.24,1.05 6.75,-12.74 11.54,-14.31 12.84,-29.97 -17.89,-4.17 -11.76,-8.06 -34.23,-8.56 5.62,-24.14 -4.56,-41.18 -29.96,-47.11 -8.62,8.18 -8.19,4.42 -8.56,21.42l-12.84 0c1.66,-19.96 11.05,-23.5 10.96,-34.39 -0.15,-16.04 -10.21,-10.98 -15.25,-29.84 8.28,-31 28.2,-20.96 17.13,-68.52 13.63,10 3.48,7.13 17.12,17.13 4.37,-8.27 8.19,-14.43 12.83,-22.18l84.01 -133.36c3.59,-10.55 2.1,-3.47 1.61,-11.46 13.8,-6.05 2.68,2.28 13.02,-8.45 0.23,-0.24 8.28,-12.43 8.52,-12.8 9.19,-14.37 7.12,-11.88 12.68,-30.11 23.11,-12.26 -0.75,-17.28 64.2,17.11 -5.85,-25.15 -22.07,-36.75 -27.37,-54.37 -5.27,-17.48 15.38,-44.21 22.9,-57.15 19.75,-34.01 8.89,-48.75 67.06,-61.72 18.11,-4.03 13.68,2.07 31.57,6.24 0.77,-0.67 2.12,-2.54 2.43,-1.85 0.15,0.34 7.4,-3.99 10.41,-15.28l8.56 0c5.18,19.43 13.16,12.85 38.52,12.85 0,-22.64 0.03,-6.39 4.28,-12.85 4.23,11.7 -0.22,8.81 17.12,12.85 2.27,-9.76 3.32,-9.85 4.28,-21.41 16.09,11.8 3.87,15.58 25.68,21.41l4.93 -25.55c22.16,-0.14 22.84,-1.26 32.12,14.17 14.98,24.92 0.93,14.87 70.74,23.43 18.19,2.23 26.29,4.38 42.01,5.83 0,29.38 -4.28,40.21 -4.28,70.57 0,133.87 -25.87,123.04 20.46,289.3l59.25 189.08c5.85,17.39 17.29,49.6 18.72,66.9 -86.66,41.61 -227.22,68.51 -331.94,68.51 -20.37,0.39 -22.12,4.29 -45.73,4.29l-17.33 -3.19c-1.01,-0.55 -1.97,-1.32 -2.92,-1.95l-8.52 -7.71c-1.55,-1.92 -11.37,-10.66 -13.89,-12.26 -14.6,-9.24 -14.03,-8 -24.78,3.68 -0.26,-0.63 -1.79,-9.85 -4.28,-12.83l-21.4 0c0.77,-0.67 2.17,-2.5 2.49,-1.79 0.31,0.7 1.97,-1.45 2.37,-1.91 9.94,-11.49 7.67,-8.02 7.98,-21.99 -15.65,-4.18 -8.97,-4.52 -21.4,-12.85 -24.37,17.87 -16.54,44.24 -38.52,77.08 12.85,5.94 8.91,1.39 25.68,0 0.96,11.56 2.01,11.65 4.28,21.41 29.83,-6.95 75.59,17.06 99.81,4.28 10.29,-0.26 12.18,-0.28 20.03,-8.57 2.8,7.75 -2.52,9.37 13.49,12.52 11.56,2.27 15.09,-1.62 24.5,-3.95 94.5,0 191.99,-23 268.37,-44.62l111.27 -42.83c24.55,-10.31 90.55,-35.53 100.26,-53.86 15.03,-4.99 25.18,-7.12 36.1,-19.23l8.63 -11.53c0.62,-0.88 1.59,-2.29 2.33,-3.47 16.09,3.92 28.65,-7.61 49.35,-23.73 11.8,-9.19 10.35,-7.4 11.05,-14.83 24.03,-8.33 37.45,-25.64 56.98,-41 11.37,-8.93 14.84,-12.95 25.7,-21.41 11.07,-8.62 17.25,-11.96 24.27,-23.23l7.51 -36.19 -12.22 -3.49c-26.46,18.21 -98.55,78.31 -111.28,104.57 -15.8,0.29 -29.68,13.7 -49.16,27.45l-12.15 14.71c-20.55,3.62 -15.75,5.56 -31.45,14.25 -17.29,9.58 -16.98,4.13 -27.08,20.62 -23.91,0.55 -29.79,14.03 -50.08,22.23 -27.02,10.9 -55.83,3.01 -18.4,-5.72 -4.33,-18.6 -18.61,-48.79 -26.8,-67.39 -10.61,-24.12 -21.79,-39.18 -41.68,-52.5 5.52,-8.23 9.17,-9.57 7.86,-24.46 -0.24,-2.71 -6.07,-24.48 -7.15,-27.61 -6.21,-17.93 -16.85,-32.88 -30.67,-42.13 9.13,-39.17 -11.31,-80.11 -20.66,-142.04 -4.3,-28.46 -1.48,-26.88 -22.13,-37.81 22.39,-33.45 22.9,-49.7 15.43,-98.48 16.43,-15.59 10.87,-21.75 5.97,-42.82 12.66,-3.39 6.93,-1.75 17.12,-8.57l48.16 41.73c32.19,33.13 19.87,18.22 66.8,18.22 6.27,4.95 11.42,8.63 17.71,12.85 -1.52,18.27 -7.04,20.26 -8.56,38.53 16.5,-1.37 13.8,-4.28 34.24,-4.28 -5.04,9.55 -7.14,12.89 -12.84,21.41 22.2,14.87 9.85,16.25 42.8,8.56 -8.32,12.44 -8.66,5.75 -12.84,21.42 22.15,11.72 25.13,0.86 25.68,25.69l38.52 0c-5.7,8.51 -7.79,11.86 -12.84,21.41l26.55 29.13c15.63,-0.53 12.93,-3.44 33.37,-3.44 0,72.8 -1.77,33.11 39.14,85.02 9.4,11.93 7.53,13.15 20.78,22.03 0,-84.69 -82.26,-199.98 -140.1,-258.05 -11.69,-11.73 -22.07,-18.94 -34.38,-29.84 -8.02,-7.1 -10.31,-8.19 -20.21,-14.28 -14.62,-9.01 -12.51,-1.57 -15.03,-14.72 5.08,-12.46 -0.96,-11.49 13.48,-16.46 3.63,-1.24 28.71,-0.65 33.58,-0.65 7.87,0 3.65,16.04 4.53,25.23 1.55,16.43 2.01,14.19 8.33,26.16 14.03,-3.75 18.12,-7.49 20.68,-21.41 6.34,-3.2 5.37,-2.11 13.56,-4.28l-5.06 42.71c8.33,3.73 14.63,5.05 22.18,8.67 13.64,-10 3.48,-7.13 17.12,-17.13 0,8 -0.82,12.47 1.47,20.05 5.95,19.58 11.87,10.45 24.05,13.7 0.58,0.16 1.8,0.45 2.34,0.67 10.71,4.33 9.88,23.3 37.18,4.96 9.5,-6.38 8.5,-7.3 20.56,-13.69 -1.72,20.65 -8.46,19.75 -12.84,38.54 21.16,4.93 30.17,16.9 47.08,21.41 14,-9.38 13.33,-16.97 29.96,-21.41 2.15,9.23 3.03,18.27 5.75,28.75 5.43,21.01 0.45,17.47 15.65,14.09 14.41,35.42 21.92,10.27 54.12,48.6 0.54,0.65 1.46,1.76 1.94,2.35 0.48,0.58 1.54,1.86 1.94,2.34 0.39,0.47 1.25,1.59 1.92,2.36 -26,38.84 -25.5,20.17 -21.42,38.54 -1.39,12.48 13.61,11.24 25.7,11.34 14.74,-1.4 9.2,0.74 17.22,-11.13 3.9,-5.76 8.21,-14.72 12.74,-21.62 8.85,-13.48 18.94,-28.95 25.68,-44.32 0.68,-0.58 1.63,-2.57 1.86,-1.96l52.29 -92.24c20.09,-39.47 78.28,-142.88 66.77,-182.63 8.71,-6.18 10.1,-3.76 16.26,-29.82l21.17 -118.06c4.82,-5.01 0.68,5.36 3.45,-7.58 0.87,-4.02 1.33,-11.13 1.4,-15.34 0.27,-16.5 0.56,-20.8 -4.82,-34.74 6.32,-5 7.8,-1.61 11.5,-27.25 1.63,-11.31 1.47,-20.92 1.42,-32.6 -0.12,-26.19 -2.41,-171.61 -19.95,-188.5 6.37,-25.77 -18.37,-125.92 -28.74,-156.93 -4.1,-12.3 -11.83,-35.61 -19.89,-43.34 -0.47,-22.76 -21.42,-69.47 -29.9,-86.69 -6.59,-13.38 -12.7,-26.06 -20.59,-39.34 -11.05,-18.6 -9.76,-24.18 -29.37,-33.39 3.55,-18.33 -11.64,-38.8 -21.07,-53.17 -9.17,-13.98 -24.4,-38.08 -36.03,-44.59 -6.02,-27.93 -67.68,-92.09 -89.4,-107.78 -2.13,14.37 -4.31,17.69 -9.56,25.7 6.56,10.91 11.7,17.18 16.9,26.44l50.61 64.72c11.23,10.54 4.34,5.69 17.78,11.6 0.86,17.04 60.73,104.35 60.75,104.37 11.77,30.55 26,56.06 38.46,84.1 25.1,56.46 20.56,71.58 42.83,85.58 -10.06,26.08 16.8,98.94 24.67,138.06l8.36 47.39c0.22,0.74 0.65,2.15 1.24,3.09 0,38.11 5.29,76.49 8.36,111.45 2.19,24.91 -2.33,37.15 -3.86,55.64 -1.43,17.34 -0.22,39.91 -0.22,57.81 0,18.06 -1.63,12.36 4.25,27.61 -16.57,6.94 -3.7,-5.24 -8.81,17.01l-11.69 60.93c-5.99,23.73 -15.56,54.84 -17.99,78.57 -6.04,15.82 -6.31,36.97 -21.35,74.77 -9.08,22.84 -19.29,47.26 -30,68.47 -17.01,33.72 -58.51,103.56 -63.73,132.73l-30.44 29.97c-3.4,-12.73 -16.27,-31.53 -25.4,-38.54 -8.08,-30.56 -66.22,-84 -90.74,-102.18l-83.19 -58.06c-16.72,-10.35 -16.35,-13.05 -36.05,-19.6 -9.5,-12.29 -35.05,-13.52 -47.1,-29.98 17.35,4.05 23.64,11.67 25.68,-12.84 9.63,7.06 11.61,20.62 47.08,21.41 6.18,-9.24 9.79,-12.6 12.84,-25.69 24.58,16.46 17.53,42.82 107,42.82 -17.43,-23.8 -147.76,-104.65 -196.88,-85.66 -7.03,-10.62 0.98,-5.16 -10.42,-10.76 -5.83,-2.87 -12.09,-2.48 -19.25,-2.53 -13.79,-0.1 -28.27,0.46 -42.23,0.46 -36.13,0 -58.47,16.08 -90.73,8.57 1.97,-23.73 7.93,-15.89 12.83,-34.26 22.17,5.92 20.61,19.2 47.08,21.41 -2.74,-11.78 -5.82,-22.48 -8.56,-34.26 18.36,13.46 3.1,20.72 34.24,21.41 5.44,-11.34 2.58,-15.32 7.46,-25.69 7.57,8.72 2.16,5.74 13.94,8.56 9.46,-6.57 5.32,-0.7 8.56,-12.84 29.16,-0.65 17.12,-1.88 17.12,-29.98l20.66 17.93c10.75,-6.1 11.88,-8.15 26.42,-9.36 -0.35,-15.72 -3.51,-23.73 -8.56,-34.26 26.63,6.21 20.8,25.35 82.06,5.03 16.06,-5.32 16.71,-2.35 24.94,-13.59 -35.79,-8.34 -56.82,-15.03 -100.88,-19.01 -19.5,-1.77 -85.2,6.54 -98.74,14.73l-56.99 17.7c3.51,-45.47 12.16,-136.11 -47.27,-167.57 0,12.66 -2.84,33.31 -2,38.6 2.33,14.7 9.37,5.11 14.85,25.63 -16.82,0.37 -10.04,-1.17 -21.4,4.28 -2.21,26.48 -11.01,21.52 8.55,38.54 -41.59,11.11 3.84,61.17 -36.62,47.1 10.9,-54.85 -94.57,-167.24 -143.13,-171.28 13.65,58.63 42.9,52.68 51.36,64.23 -25.55,6.82 -27.22,37.74 8.56,38.54 -6.4,9.21 -0.63,5.64 -12.84,8.56 0.43,19.37 4.28,17.02 4.28,38.54l17.12 0c-6.18,9.23 -9.79,12.6 -12.84,25.69l34.24 0c-8.6,11.74 -12.64,10.22 -25.68,17.13 -29.29,-19.63 -44.73,-48.56 -82.61,-71.51 -39.19,-23.75 -61.35,-35.54 -122.83,-35.54l9.24 -119.21c3.98,-38.35 8.21,-80.96 16.44,-116.3l166.92 29.97c19.93,-29.77 4.78,-33.32 29.98,-34.25 23.44,0 23.46,-3.85 42.78,-4.28l0 51.38c29.17,-2.43 36.51,-25.72 55.63,-38.54 -1.84,22.21 -12.27,26.28 -17.11,47.1l29.76 9.17c10.38,-15.82 14.59,-24.43 30.16,-34.86 -3.71,15.92 -8.14,19.23 -8.56,38.54 20.17,0 19.14,-0.76 34.23,-4.28 2.04,24.45 13.65,22.08 27.58,8.56 19.91,-14.31 18.1,-17.6 32.34,-21.41 -4.88,10.19 -9.98,26.28 -12.84,38.54 13.14,0.29 42.53,8.61 51.36,12.85l33.24 -35.27c6.1,55.85 15.37,50.41 43.22,61.54 17.11,6.84 58.33,27.79 77.62,29.39 -19.38,-83.23 -195.02,-202.7 -256.79,-195.72 -15.95,-26.04 -117.9,-31.22 -145.52,-31.22l-5.01 -34.14c41.52,-26.38 11.49,-13 64.92,-38.66 3.3,14.13 8.07,19.67 13.93,33.18 7.01,16.17 6.39,21.91 24.59,26.77l29.96 -72.79c0,29.65 4.28,43.44 4.28,68.51 21.67,0 22.02,-2.91 38.52,-4.28l14.36 -54.15c0.33,-0.81 1.08,-2.29 1.35,-2.93 0.28,-0.64 0.84,-1.97 1.41,-2.87 0,32.46 -4.87,42.49 8.54,51.38 -1.47,9.25 -5.72,1.91 5.64,3.08 23.92,2.45 23.72,-12.73 24.34,-20.21l8.56 0c4.78,17.89 1.92,9.09 17.12,17.13 39.48,-20.9 23.63,-43.9 51.36,-64.23l0 51.39c29.9,0 41.77,-4.29 72.76,-4.29 4.39,-18.84 16.2,-45.77 25.68,-59.94 13.23,8.86 28.77,36.81 38.52,51.38 32.78,0 47.7,-4.48 81.29,-4.31 29.96,0.16 59.95,0.03 89.91,0.03 -7.72,-10.54 -92.53,-58.49 -110.39,-69.4 -20.35,-12.44 -116.13,-45.09 -146.41,-33.39 -7.52,-17.96 2.62,-3.12 -13.24,-7.94 -2.47,-0.75 -14.26,-1.76 -19.06,-2.7 -17.07,-3.35 -11.64,-4.77 -31.92,-6.45 -33.79,-2.79 -36.13,-4.25 -69.1,-0.68 -51.27,5.55 -85.75,5.01 -140.6,17.79l0 -29.97c0.61,0.87 1.21,1.36 1.45,2.84 1.75,10.82 11.05,16.19 19.95,18.57 22.99,-16.85 8.21,-38.51 13.23,-54.98 6.68,-21.88 1.66,-9.89 16.71,-13.53 -5.52,16.49 1.38,24.92 8.58,38.53 10.29,-5.44 30.6,-14.24 34.27,-25.69 12.88,-4.34 14.82,-4.38 17.13,-21.62 1.01,-7.52 -0.04,-25.41 -0.04,-34.04 24.11,6.43 46.19,38.3 64.22,4.28l106.98 -38.54c-7.01,-26.26 -29.35,-17.06 -89.88,-17.13 -20.14,-0.03 -59.28,-1.58 -81.62,8.47 -14.21,6.38 -2.63,-3.91 -12.54,8.64 -15.7,-5.27 -1.89,-6.58 -16.58,0.24 -1.19,0.55 -4.46,3.02 -5.53,3.89 -9.68,7.86 2.15,-4.79 -7.85,8.72l-8.58 -4.27c-58.51,9.24 -137.13,58.75 -186.6,91.61l-39.57 29.25c-0.23,0.21 -5.32,5.5 -5.7,5.98l-3.52 5.91c-11.4,-7.17 -3.19,-1.13 -11.11,-10.08 -1.48,-1.67 -7.12,-9.49 -9.41,-12.36 -7.61,-9.55 -11.5,-14.98 -17.98,-24.67 23.78,5.55 24.16,19.15 51.36,21.41 1.17,-14.14 5.56,-25.69 8.56,-38.53 -6.19,-9.25 -13.27,-18.06 -23.86,-23.03 -9.73,-4.57 -2.23,-2.49 -10.38,-2.69 -17.59,-4.37 -2.48,-5.66 -19.78,5.62 -5.36,3.49 -13.61,8.32 -18.28,11.53 1.63,10.79 1.57,9.71 5.81,17.13l2.29 4.28 -8.56 1.27c-23.49,-12.61 -12.96,-28.25 -21.67,-57.38 -9.31,-31.18 -3.81,-9.12 -1.45,-24.36 0.72,-4.67 12.03,-13.61 -15.4,-12.81 -17.61,9.34 -21.61,23.92 -29.96,43.73l-14.25 31c-5.03,8.42 -2.53,4.67 -7.15,9.99 0,-18.99 -0.28,-26.48 -10.55,-36.56 -9.89,-9.71 -22.85,-12.81 -36.53,-12.61 3.27,-5.95 0.57,-6.33 4.28,-10.78 11.9,6.3 19.3,9.36 34.24,12.85 8.01,-11.98 6.78,-13.06 12.84,-25.7 -9.16,-13.68 -8.65,-4.73 -12.84,-22.64zm-2092.89 923.91c-8.47,12.81 -8.56,32.04 -8.56,53.62 17.62,-1.47 15.54,-4.4 21.59,-16.94 4.12,-8.54 8.26,-17.49 12.35,-25.88l-12.5 -15.13 -12.88 4.33zm638.55 -194.74c-3.41,-10.16 -2.75,-7.21 -5.12,-17.13 -13.94,1.16 -19.24,3.31 -26.61,11.91 -5.64,6.58 -12.26,19.2 -16.19,26.63 6.04,3.4 4.47,2.26 12.84,3.76l0 21.93c-15.83,1.32 -16.05,6.23 -33.81,4.15 -18.41,-2.15 -15.41,-8.37 -25.78,-13.38 -14.18,-6.85 -10.56,-0.63 -25.31,-2.66 -15.39,-2.12 14.01,-5.03 -34.94,-0.95 5.92,22.18 17.95,20.31 18.16,33.31 0.01,0.49 -0.22,1.79 -0.29,2.27l-2.92 7.24c-15.03,4.42 -8.77,-9.48 -10.67,12.84 -14.38,-16.55 -8.1,-13.24 -46.2,-3.43 -17.02,4.38 -38.92,12 -60.79,12 9.52,35.69 66.08,1.94 115.55,25.69 -10.17,15.2 -15.4,9.34 -17.12,29.97 28.19,-0.63 42.2,-12.84 72.76,-12.84 8.82,16.67 16.58,30.69 21.4,51.38 16.45,-0.37 25.02,-4.56 33.85,-17.67 9.69,-14.39 4.26,-2.35 5.06,-12.3 28.48,-12.01 17.75,-22.02 42.41,-38.54 24.01,5.59 32.92,12.84 64.2,12.84 -1.59,-19.14 0.54,-6.29 -7.17,-18.52 -3.92,-6.22 -6.15,-8.54 -9.95,-15.73l107 -38.54 -98.44 -8.56c7.51,-28.14 20.55,-19.32 25.68,-38.54 -12.8,6.15 -34.98,8.82 -50.4,12.84 -14.52,3.06 -12.86,5.36 -26.64,8.57 -0.53,-23.88 -6.71,-27.91 -20.56,-38.54zm816.63 -995.46c10.8,1.27 4.53,4.68 13.8,-1.29 15.13,-9.75 2.13,0.97 4.96,-9.51 27.64,-4.98 40.21,-26.06 75.4,-34.26 0,-21.52 -3.85,-19.17 -4.28,-38.54 -25.42,2.12 -58.4,25.87 -67.67,42.82 -15.47,1.19 -15.41,1.9 -25.44,9.55 -8.33,6.36 -12.25,8.75 -21.34,16.14 -10.71,6.37 0.06,0.5 -7.9,6.21l-103.36 89.12c-38.24,38.21 -14.31,0.27 -35.13,50.72 -5.37,13.01 -11.04,15.92 -4.52,29.51 15.71,-10.52 26.67,-26.24 42.8,-38.53 8.58,-6.55 14.72,-11.46 22.46,-20.36 26.34,-30.29 52.96,-54.44 87.61,-79.3 13.28,-9.53 15.3,-7.99 22.61,-22.28zm654.83 -482.74c-0.92,12.04 -1.97,12.39 -4.28,22.33 13.85,-3.7 22.95,-10.95 29.96,-21.41l8.56 5.55c0,34.84 -4,56.04 17.12,71.52 12.78,-8.56 19.2,-21.84 20.38,-39.37 1.48,-22.13 -10.05,-27.98 -13.02,-50.8l0.15 -16.44c-19.5,4.03 -46.42,13.25 -58.87,28.62zm-1172.7 2231.81l-0.47 0.02c-14.85,7.61 -46.24,4.28 -68.01,4.28 0,19.42 4.85,35.44 8.56,51.39 -26.84,14.2 -99.29,48.19 -107,77.07 36.63,-3.05 15.67,-23.42 59.92,0 0.99,-44.67 38.75,-36.29 73.87,-67.39 10.39,-9.2 12.97,-14.76 24.57,-22.53 0.55,24.72 2.68,24.58 20.38,16.9 27.62,-11.96 10.34,-6.39 40.17,-4.05l-0.63 12.5 8.55 0.5c7.84,-16.69 0.48,-18.21 0,-37.73 15.94,-3.29 10.44,-4.02 14.68,-5.42l15.28 -4.11c-1.38,-16.64 -3.86,-11.15 -4.27,-29.97 20.07,-10.63 15.05,-5.61 25.67,-25.7 -36.3,0 -21.78,10.75 -47.07,12.85l0 -51.38c-23.89,0.53 -25.17,10.41 -50.56,47.66l-13.64 25.11zm-331.51 -887.92l35.82 1.62c14.85,2.27 9.36,1.39 21.77,8.39l10.73 -10.39c6.2,-4.13 11.26,-5.4 19.23,-7.8 10.25,-12.57 12.61,-9.41 17.12,-28.79 -28,0 -44.14,8.02 -68.48,8.57 -11.85,-22.42 -26.64,-41.97 -47.08,-55.67 -14.56,21.75 -52.61,33.1 -40.64,94.2l0.69 14.08c7.92,-2.01 13.09,-13.26 22.38,-20.02 13.46,0.12 19.24,1.95 28.46,-4.19zm2895.21 -430.91c5.65,-14.64 4.26,-8.14 4.26,-25.69 -22.25,1.85 -44.15,26.69 -58.71,43.99 -6.38,7.58 -8.4,12.13 -15.03,20.24 -7.97,0 -17.05,-0.58 -24.68,4.28l-47.01 -5.34c1.88,24.78 7.85,16.95 12.75,35.31 -12.02,2.8 -13.31,4.8 -25.69,8.55 -27.18,8.25 -65.42,14.13 -77.03,29.99 18.39,4.29 67.67,8.56 89.88,8.56 -10.3,19.49 -15.35,18.84 -25.68,34.26 11.01,-0.24 15.69,-1.54 22.2,-3.44l21.26 -9.4c12.8,-0.31 15.03,-1.96 25.02,-4.29 8.52,12.72 25.87,36.05 29.96,51.39 14.48,-1.21 22.65,-6.21 36.79,-23.14 11.03,-13.19 18.49,-23.49 27.41,-36.81 29.38,0 55.4,6.4 81.32,8.56 -6.37,-27.34 -15.64,-16.96 -21.4,-38.54l21.4 -9.41c19.81,1.12 94.97,-23.33 119.84,-29.12l-128.4 -12.85c13.57,-20.27 32.4,-19.9 38.52,-42.82 -15.44,3.6 -64.52,19.26 -75.93,25.69 -12.54,-9.17 -5.16,-2.7 -13.66,-12.9 -0.1,-0.11 -3.33,-4.88 -5.83,-7.49 -7.37,-7.71 -1.21,-3.07 -11.56,-9.58zm-2641.9 1207.76c3.26,16.01 -1.26,5.61 10.07,16.48 6.18,5.94 7.07,5.02 13.23,12.29l7.82 -9.09 4.3 -7.07c22.98,-7.65 86.98,-40.06 98.42,-55.67l-77.04 0c10.65,-20.14 20.66,-21.27 25.68,-42.82 -19.47,1.62 -29.47,9.13 -39.5,21.41l-16.14 4.67c0,-16.05 -1.83,-21.31 -4.05,-34.9 -2.81,-17.25 -1.89,-21.52 -13.07,-29.72l-4.28 14.68c-13.82,5.42 -24.73,21.63 -33.69,32.98 -11.95,15.12 -21.23,24.71 -30.51,42.26 -21.66,0 -36.49,-4.28 -64.2,-4.28 1.95,23.48 16.46,30.94 2.92,51.39 -18.54,1.78 -62.09,27.67 -80.34,38.15 -13.95,8.01 -16.54,5.02 -21.02,21.79 12.99,6.24 23.59,2.5 38.85,0.16 24.8,-3.8 16.62,-1.95 38.19,-0.16 -21.02,39.75 -40.42,31.36 -42.8,59.95 35.4,-18.74 59.72,-26.91 68.48,-49.9l4.28 1.38c4.07,1.12 18.74,3.98 19.59,4.32 9.32,3.78 0.57,-0.46 7.77,4.61 27.88,19.61 -18.79,-6.66 6.88,5.9 21.07,-22.11 17.56,-6.42 24.67,-26.96 4.43,-12.77 -0.66,-6.68 6.56,-19.58 10.37,-18.52 15.25,-9.81 23.08,-53.52 4.67,-26.03 5.67,-17.04 21.66,-33.07l4.19 34.32zm-576.63 -480.95c-7.58,0.1 -5.26,-2.21 -5.55,5.41 -12.15,5.59 -7.82,5.28 -20.13,8.56l16.16 18.08c-0.53,2.15 -14.33,44.32 -14.34,48.1 -0.04,26.4 20.72,-2.91 40.8,6.62 23.46,-39.26 5.62,-24.12 27.39,-37.45l29.44 -28.41c0.56,-1.89 2.19,-1.74 3.27,-2.63 0,-24.38 1.77,-5.01 -8.54,-12.87l4.25 -4.41 -15.51 -155.66c-4.97,-19.18 3.79,-9.7 -9.7,-15.49 -0.99,-0.59 -2.7,-2.15 -3.27,-1.15l-26.16 -8.43c-19.43,-9.05 -4.42,-5.59 -30.85,-7.65 -22.99,-1.8 -16,-4.17 -31.21,-7.32 -11.89,-2.45 -25.11,-1.14 -37.37,-1.14 -3.24,-6.76 -20.2,-64.51 -21.42,-72.8 -6.17,-15.97 -0.83,-27.69 -9.98,-32.41 -7.29,-3.76 -23.53,7.66 -28.52,11 0.25,11.33 -0.13,13.17 8.56,21.41 -17.21,0 -1.82,-1.64 -8.56,8.54 8.17,18.38 6.22,43.27 9.08,68.01 1.63,14.06 6.11,19.24 9.77,33.05 3.77,14.28 2.55,24.29 2.55,40.27 -23.75,5.54 -44.91,28.62 -47.03,55.67 -12.81,4.75 -5.32,-8.68 -10.29,10.63 -2.66,10.38 -5.67,1.1 4.39,11.9 11.5,12.35 11.47,3.11 22.97,20.29 -16.54,1.37 -20.46,6 -42.43,4.2 -17.78,-1.46 -23.71,-4.2 -47.45,-4.2 0,-29.33 4.28,-40.1 4.28,-66.33 8.65,-24.62 28.28,-12.5 33.58,-29.35 7.78,-24.81 -24.73,-8.94 -35.08,-4.32 -20.56,9.18 -19.64,0.47 -24.18,19.84 -0.24,9.7 -2.34,15.87 -2.05,20.17 0.59,8.9 3.52,9.4 6.33,21.45 -17.69,1.47 -17.24,5.01 -26.08,17.13l-16.57 8.83 -0.15 29.71c1.09,-0.26 9.16,-2.76 10.24,-2.76 10.15,0.03 5.31,-0.81 11.16,3.49 17.77,5.1 6.66,-4.03 28.72,-4.24l5.52 2.34c24.52,-6.93 41.76,9.73 115.56,9.73 8.03,-16.75 -1.3,-11.05 12.84,-21.41 8.79,18.34 3.92,26.85 22.41,38.54 -3.28,35.66 4.99,85.26 3.41,137.16 -0.67,21.82 -6.1,24.87 -4.07,46.27 3.01,31.65 14.2,44.49 5.05,83.17 -7.83,33.12 -17.5,41.65 -36.92,63.11 7.08,17.51 12.28,17.68 3.7,32.54l10.7 1.31 12.37 -8.74c1.04,26.52 -2.31,13.13 9.03,17.71 0.76,-0.67 2.08,-2.59 2.42,-1.86l9.23 -7.89c15.89,-17.58 4.96,-25.89 20.63,-43.59l145.96 -110.49c0.59,-0.38 1.95,-1.28 2.43,-1.59 0.47,-0.3 1.66,-0.97 2.4,-1.58 13.07,-20.29 20.8,-3.06 19.66,-34.26l3.25 -12.73c-26.68,-5.65 -15.86,4.83 -41.05,12.73 -0.77,0.91 -1.63,2.21 -2.21,2.81l-7.44 7.23c-7.67,5.27 -3.36,2.8 -14.05,5.61 -7.96,6.1 -17.24,11.5 -26.58,17.68 -19.7,13.04 -49.72,41.73 -84.69,65.16 0,-19.93 6.02,-46.94 7.94,-64.84 7.82,-72.59 -15.64,-137.53 17.74,-200.64 -9.45,-12.91 -22.2,-13.47 -19.11,-40.17 5.26,-45.44 1.12,-31.18 -6.59,-54.01l-12.82 -115.64c42.55,0 31.78,5.43 55.63,21.41 11.09,-2.96 15.51,-7.46 25.69,-12.85 19.21,16.71 18.77,9.87 22.37,29.98 -34.13,14.48 -42.14,-12.13 -70.68,11.56 -8.19,6.79 -19.08,15.78 -20.04,27.44 -1.34,16.28 9.08,21.97 21.27,25.23l8.56 -29.97c0,27.98 -14.08,32.49 8.56,38.53 1.58,-71.19 13.61,-55.66 59.92,-55.66 0,24.88 -4.74,84.51 -19.17,100.66 -13.79,15.44 -13.99,-1.69 -19.35,26.67zm1810.41 -1989.99c30.18,-2.52 27.24,-8.29 39.09,-37.97 7.49,-18.75 15.44,-33.11 20.83,-56.24l-16.46 -13.57c-15.11,22.31 -42.71,73.88 -43.46,107.78zm59.92 -145.59c0,11.56 2.04,11.8 4.28,21.41l12.84 0c10.14,-37.99 29.96,-25.77 29.96,-107.05 0,-16.37 1.31,-1.56 -4.28,-12.85 -21.58,14.46 -14,21.21 -22.56,45.94 -5.22,15.1 -20.24,18.82 -20.24,52.55zm881.69 18.32c10.96,3.37 16.64,7.35 25.66,12.24l14.85 -21.31c4.43,13.06 3.87,19.1 6.09,30.37 3.19,16.18 3.64,18.34 13.76,24.61 9.93,-30.22 15.1,-23.11 18.12,-64.23 -12.04,-8.39 -16.41,-9.55 -31.42,-12.55 -10.09,-15.76 -13.65,-13.1 -30.01,-21.71l-1.29 20.62 -62.3 -3.53c-21.11,35.46 -41.6,30.23 -70.64,88.46 -1.89,3.8 -41.41,58.13 -60.47,55.93 -1.82,-17.04 6.67,-19.41 10.69,-24.46 -3.38,-4.13 -4.6,-4.63 -7.07,-9.52 -4.34,-8.57 -3.4,-2.24 -1.27,-7.86 22.46,-9.31 20.46,0.63 36.56,-18.71 9.48,-11.38 15.39,-19.46 20.93,-37.52l-18.04 -20.59c14.54,-40.12 48.23,-19.79 41.87,-68.08 -31.47,-10.21 -27.97,-5.39 -48.88,11.09l-12.7 -31.43c-15.48,15.9 -5.54,18.69 -32.77,24.65 -22.57,4.95 -37.63,9.43 -38.45,-15.33l-3.37 7.16c-7.63,17.51 -7.41,26.3 -21.46,31.55 -0.96,0.36 -4.49,0.93 -5.22,1.11l-5.33 0.74c7.34,21.79 9.44,13.46 21.14,25.7 -6.2,20.96 10.03,46.57 -13.8,53.46 -10.88,3.15 -8.11,1.51 -16.37,-2.83l-7.03 18.03 -21.51 0.91 -8.1 9.61 2.32 14.86 23.07 8.72 -6.61 10.59c-10.89,16.78 -9.91,14.37 -10.92,33.15 -11.16,-7.82 -8.58,-8.43 -20.59,-13.5l1.38 13.24c21.94,15.39 4.38,5.85 34,10.85 17.37,2.92 21.34,7.49 38.78,-0.77 10.28,-4.87 49.15,-35.64 60.19,-39.2 -16.55,61.13 -3.54,19.16 -35.89,46.08 -13.52,11.26 -19.37,44.09 -17.95,66.64l9.94 -6.37 -1.7 45.66 -28.83 -20.36c-5.3,4.38 -7.7,9.23 -17.58,10.89 -11.89,-10.2 -5.75,-9.12 -23.75,-20.03l5.02 -24.5c-16.63,-2.5 -24.08,1.65 -33.78,6.76 -6.49,22.38 -4.74,26.87 -1.82,52.15 10.4,11.62 29.74,16.4 44.31,22.87 30.45,13.55 36.77,21.07 52.82,15.69l5.43 -0.02c-1.71,-20.3 -1.53,-19.93 16.28,-20.41 3.03,-0.08 8.41,1.36 16.5,-1.03 12.69,-3.75 5.84,1.44 13.15,-8.53 7.27,-10.81 7.76,-13.91 21.4,-17.08 9.48,12.19 7.14,9.28 8.33,26.01l70.32 4.36 -12.99 33.45 19.92 1.32c4.33,-12 -3,-4.37 3.95,-16.71 25.71,-1.46 33.24,-9.23 48.81,-17.01 -12.22,-26.43 -17.37,-3.92 -26.08,-27.19 18.28,-8.07 17.82,1.41 28.46,13.23l10.23 9.33c5.88,-17.55 13.09,-25.87 16.29,-47.97 2.89,-19.94 3.2,-43.56 7.43,-61.27 17.41,-3.03 22.44,1.6 39.21,7.05l1.12 -32.98c0.65,-0.24 4.02,-1.17 4.67,-1.58 6.42,-4.01 5.31,6.54 2.91,-5.7 -6.43,-7.2 -7.61,-4.26 -21.42,-4.31 -8.19,-8.84 -3.88,1.97 -7.16,-12.29 -2.19,-9.49 -1.72,-4.32 3.11,-12.89 -9.48,1.76 -22.24,-6.73 -33.5,-13.34 -3.93,-33.43 7.05,-48.54 -0.95,-84.44zm-2541.48 1844.34l-1.72 -22.21 -33.35 2.31c-27.1,1.74 -71.64,9.37 -98.43,15.62 20.48,27.97 64.57,-1.05 106.99,21.41 12.44,-8.33 10.76,-9.65 26.51,-17.13zm3263.23 608.04l5.82 -0.46c9.96,15.92 9.32,17.59 34.24,17.59 3,11.33 -0.35,3.52 4.28,12.84 -21.77,-5.07 -44.86,-13.85 -55.64,-29.97l11.3 0zm8 -21.41c2.77,-5.66 3.57,-3.67 -2.18,-6.05 -12.68,-43.68 -30.98,-28.78 -53.07,-47.9l-19.69 -10.28 1.33 17.13c-15.34,1.13 -14.18,-1.15 -19.74,11.58 -3.06,7 -2.99,19.75 -2.99,32.52 -12.01,2.52 -6.79,-10.71 -8.56,12.89l-10.54 18.01c-24.22,59.65 -26.19,49.8 -15.14,66.3l4.28 4.29 4.28 0.18 4.37 4.1 4.19 4.28 4.28 4.28 8.56 4.29c23.49,6.27 33.42,25.52 50.62,39.27l88.79 52.47c10.68,6.31 20.46,10.61 30.07,17.02 22.77,15.16 21.48,41.82 48.8,44.02l0 14.21c14.45,7.65 24.88,15.88 37.48,26.73 16.62,14.32 18.37,16.09 48.11,16.09 -6.63,-24.87 -26.13,-23.66 -41.99,-39.35 -23.44,-23.18 -0.08,-28.57 -43.58,-46.29 -6.76,-12.75 -41.04,-31.34 -55.63,-38.57 -21.01,-10.4 -52.07,-20.1 -64.23,-39.62 -33.8,-46.04 -42.23,-31.95 -66.93,-60.55 -8.74,-10.12 -2.5,-1.24 -8.23,-12.68 24.3,4.14 20.91,4.45 36.33,18.95l92.78 48.69 1.66 6.71c-7.32,13.52 -3.28,8.56 15.61,8.56 14.36,9.91 29.7,10.85 40.9,20.57 14.12,12.24 7.74,19.43 28.96,35.25 16.69,12.45 57.51,46.64 77.19,51.23 15.98,-10.71 21.4,-24.15 21.4,-51.38l-52.08 -21c-5.77,-3.47 -5.01,-5.23 -12.12,-9 -13.42,-32.98 -48.26,-55.1 -72.75,-55.64 9.16,-13.7 7.02,-3 8.56,-21.41l-29.96 0 0 -17.13c-18.53,-4.95 -36.7,-25.15 -38.52,-47.1 30.35,0 17.13,3.47 40.29,15.38l37.83 14.76c13.38,6.92 12.2,19 33.73,20.94 12.85,1.17 19.69,-2.06 24.51,-1.05 12.34,2.6 2.46,5.84 17.71,9.92 6.82,-10.19 5.18,-4.47 8.56,-17.13 -55.8,-13.01 -29.24,-15.73 -76.17,-43.69 -31.73,-18.91 -54,-35.4 -82.76,-37.67 -10.63,-6.12 -30.31,-14.48 -44.32,-17.13zm-3383.33 582.78l11.22 -13.28c8.47,-28.4 89.56,-129.52 5.91,-124.93l12.38 -12.09 -11.04 -27.64c6.84,-7.36 25.47,-19.22 42.56,-25.61 -7.35,25.82 -3.55,10.29 -22.91,23.28l14.6 15.3c14.26,-11.94 10.01,-8 32.85,-14.33 2.53,-12.01 12.69,-19.73 21.15,-31.19 9.71,-13.12 12.45,-25.4 30.23,-29.06l24.16 -4.95c36.91,0 29.2,-10.8 52.88,-17.13 -10.08,-19.05 -21.75,-53.18 -39.75,-64.23 -2.5,-19.96 -75.89,-134.55 -88.65,-193.34 -32.33,-26.62 -127.96,1.86 -171.2,5.06 -17.18,3.76 -68.81,18.62 -77.03,29.85 26.91,6.27 51.97,-4.38 84.27,-9.89 26.79,-4.57 70.13,-2.96 104.04,-2.96 -7.81,33.55 -32.12,29.62 -56.35,46.39 -27.26,18.87 -30.3,33.03 -55.92,52.1l-10.29 12.19c66.01,-26.99 15.79,-32.74 79.46,-42.39 6.84,5.03 13.35,8.81 20.45,14.81 3.15,2.66 6.24,3.72 7.78,8.78 4.6,15.22 3.8,3.5 -2.33,11.2l-37.34 0.05c3.53,6.77 9.02,15.63 15.08,21.04 8.02,7.17 13.6,1.51 15.58,22.39 -39.55,3.13 -39.69,3.06 -61.71,-14.95 -5.5,3.38 -8.55,6.43 -11.99,10.29l-12.48 43.23c23,-9.28 22.82,-18.63 45.09,-22.45l-4.85 25.09c-20.48,15.76 -49.38,32.36 -79.97,39.84 -17.81,7.78 -45.63,24.98 -64.2,29.31 0,19.33 0.61,30.55 7.15,44.23 5.89,12.3 12.98,22.04 22.81,28.44 4.44,19.36 14.66,33.87 25.21,47.23 1.41,10.94 2.4,11.5 4.75,20.11 6.07,10.86 10.87,18.52 18.93,29.47 9.48,12.9 13.37,15.77 20.12,31.23 10.24,23.43 21.19,43.36 59.39,43.36 -1.67,19.99 -10.24,22.45 0.4,42.22 6.83,12.69 17.69,19.25 25.27,30.58 29.62,-19.84 25.07,-21.88 27.81,-31.48 3.84,-13.45 -11.92,-5.3 10.71,-11.34 0,37.66 -18.85,37.91 -21.4,68.51 10.96,11.56 22.57,17.04 31.4,32.82 4.88,8.72 5.2,11.57 10.83,19.13 9.31,12.5 8.93,4.03 13.41,20.84 35.38,-8.24 41.18,-6.26 59.92,-34.25 29.81,7.96 3.66,19.56 77.04,-17.13 31.92,-15.96 62.37,-25.08 64.2,-47.1 -10.38,2.41 -17.17,4.48 -25.68,8.56 0.42,-18.82 2.9,-13.34 4.28,-29.97l4.28 0 -3.57 -5 -0.71 5c-0.87,0.46 -13.44,6.77 -14.83,6.95 -25,3.29 -9.26,1.83 -15.13,-4.35 10.8,-7.04 9.62,-2.87 12.04,-19.73 65.35,0 55.09,-42.42 90.68,-68.51 -10.66,-39.95 -21.07,0.36 8.56,-55.67l4.28 0 -3.57 -4.99 -0.71 4.99c-35.12,9.38 -62.1,50.55 -94.85,59.26 -22.3,5.93 -57.79,12.48 -75.7,31.31 -17.7,18.61 1.02,10.11 -24.49,52.58l-18.4 31.5c-8.57,5.17 3.91,6.1 -8.54,-3.49 -21.76,-16.75 18.44,5.25 -4.86,-4.16 -20.64,17.95 -26.93,4.28 -68.48,4.28 23.41,-34.97 32.95,-31.79 52.6,-58.71 14.83,-20.31 46.95,-53.74 50.12,-65.07 -13.82,0.76 -22.23,2.47 -32.22,-4.68l-19.14 0c-4.03,9.13 4.73,1.35 1.24,15.15 -3.68,14.55 -34.77,34.68 -39.76,53.36l-8.56 0c-0.29,-13.04 -1.93,-15.61 -4.28,-25.69 -20.63,1.72 -19.73,8.47 -38.52,12.85 3.17,-5.64 2.33,-4.64 4.29,-12.42zm1433.47 262.37c10.2,25.01 17.71,18.54 12.76,58.7 -7.66,9.06 -6.08,8.71 -9.51,24.31 -25.47,4.28 -35.4,-7.67 -36.41,22.44 -2.87,40.65 -9.97,104.66 3.5,132.74 18.04,-7.28 22.8,-51.15 26.18,-68.02 2.75,-13.74 2.71,-25 5.26,-41.79 3.39,-22.31 4.29,-24.01 24.18,-27.21 0,0.01 -10.77,14.45 21.42,17.13 -0.59,-26.77 -12.39,-50.98 -6.22,-78.82 16.05,-72.33 15.89,-78.62 -10.28,-148.75 -8.69,-23.3 -12.72,-46.24 -30.58,-59.33 -13.62,28.41 -18.47,63.26 -4.28,94.67 -0.62,26.74 -7.91,49.31 -29.95,55.2 -2.57,-9.6 -10.47,-26.9 -22.06,-18.75 -10.26,7.22 -5.23,-1.66 -4.47,10.19 1.92,24.03 4.64,-2.41 12.6,18.79 4.15,11.06 1.39,16.01 -3.19,22.73 -2.99,7.11 -3.4,8.15 -4.61,18.43 -0.57,24.6 -0.3,7.22 4.61,14.22l37.87 -6.52c-0.02,-0.11 -15.38,-56.32 13.18,-40.36zm745.01 -1260.5l0 0zm17.12 -29.98l0 0zm-117.09 1156.14c3.15,-26.24 -22.13,-80.02 -28.42,-107.05l-8.56 0c-0.42,18.66 -3.87,17.46 -4.42,38.4 -2.69,103.18 -4.54,36.01 -42.66,25.83 5.76,24.73 15.16,46 21.39,72.79l-51.3 25.79c6.35,27.4 31.59,37.65 50.46,56.41 26.3,26.15 13.69,40.68 13.69,84.8 24.34,0 5.49,0.83 10.71,-4.28 19.45,-4.17 9.04,-3.14 23.53,-12.85 1.87,22.49 0.79,32.71 21.39,34.1 7.99,5.26 13.05,4.44 25.68,4.44 0.5,-22.25 5.48,-13.66 4.3,-26.95 -5.35,-60.17 9.14,-27.99 -17.14,-67.25 13.24,-8.87 9.51,-12.81 25.68,-17.13 1.41,16.9 4.28,20.07 4.28,42.82 31.66,-8.46 -5.97,-17.23 25.68,-25.69 -5.8,24.92 -8.41,18.72 12.84,29.97 9.26,-19.29 8.56,-27.51 8.56,-55.66 -56.62,-4.72 -29.73,-21.51 -68.48,-43.01 13.91,-25.61 19.95,-34.43 4.28,-64.04 -21.4,5.72 -2.55,8 -31.49,8.56zm-1857.77 -817.86c-3.22,15.59 1.45,18 1.81,34.26 12.91,-1.08 20.87,-6.48 28.98,-13.91 12.4,-11.34 13.54,-16.17 14.17,-24.63 54.31,-22.81 -27.53,-34.26 106.65,-34.26 -6.43,-12.15 -13.7,-23.83 -17.12,-38.53 12.49,-2.92 27.77,-5.92 40.87,-10.49 8.75,-3.06 9.59,-4.11 18.02,-7.36 0.44,-0.17 7.99,-2.67 9.8,-3.56 13.92,-6.83 2.56,4.2 12.63,-8.55 15.88,5.33 19.4,0.6 29.96,-8.58 -25.44,-2.12 -62.97,-8.57 -89.88,-8.57 6.63,-24.85 19.13,-11.26 21.4,-38.53l-63.97 22.1 -26.01 -52.03c-47.64,11.06 -38.8,63.54 -89.42,64.54 -18.16,0.36 -37.63,-0.36 -56,-0.36 4.32,18.54 8.12,14.32 12.84,28.02 -8.37,10.06 -18.61,14.67 -30.75,18.31 -26.27,7.88 -102.53,13.78 -110.49,43.59 20.98,1.75 36.38,5.31 64.34,4.43 13.33,-0.42 51.46,-4.71 59.78,-8.71 -7.79,33.46 -33.55,16.75 -42.8,51.39l89.88 -29.98c2.3,8.62 0.81,5.76 5.33,11.92 9.59,13.04 0.22,1.91 9.98,9.49zm2723.85 -1168.77c11.86,-8.33 9.09,-9.03 29.81,-9.27 20.36,-0.25 22.95,3.47 38.67,4.78 -0.59,-26.38 -7.97,-16.44 -8.56,-42.82 9.96,-2.32 124.13,-52.56 132.68,-64.23l-98.44 4.28c6.46,-24.2 26.14,-32.88 38.52,-51.38 -25.68,2.14 -48.37,24.32 -68.72,30.6 -17.1,5.29 -11.93,-3.64 -13.5,-25.58 -1.33,-18.49 0.13,-20.27 -7.66,-35 -17.51,4.68 -18.1,13.23 -28.98,26.67 -9.27,11.44 -15.06,19.15 -24.21,31.45 -30.1,40.46 -18.61,31.8 -83.77,31.8 0,16.73 3.29,31.82 8.56,42.83l-93.69 42.81c-6.13,3.21 -5.19,2.13 -13.3,4.29l77.03 8.56c-10.18,15.21 -25.42,27.61 -29.96,47.1 25.28,-5.89 43.93,-19.24 64.2,-29.97 2.87,5.42 8.97,16.14 10.87,23.38 4.38,16.68 -0.84,17.49 6.25,32.28 18.6,-4.96 22.95,-19.22 35.35,-33.15 10.06,-11.31 25.18,-26 28.85,-39.43zm-1082.61 2217.86c0.06,23.42 3.69,16.01 9.67,32.93 4.67,13.24 3,24.04 2.87,39.95 -0.13,16.22 1.33,27.5 3.82,39 3.53,16.29 7.8,22.29 9.11,37.99 13.65,-10.01 7.44,-16.5 12.84,-64.23 2.41,-21.31 6.88,-48.32 8.56,-68.52 19.04,12.77 20.16,28.22 42.8,34.26 -10.75,-22.42 -14.34,-66.26 -25.68,-89.92l55.64 -29.97c-12.74,-54.71 -66.36,-38.42 -64.65,-94.04 0.68,-22.06 4.73,-26.1 4.73,-51.55 -13.21,6.99 -22.33,13.42 -34.24,21.41 -0.4,-17.91 -8.67,-38.69 -12.85,-55.66 -11.98,-48.66 -3.27,-42.27 -21.39,-47.11 0,11.2 2.29,20.84 2.39,26.33 1.3,74.88 3.6,38.44 -9.46,67.87 -19.13,-11.35 -4.81,-18.83 -35.73,-21.4 0,25.64 17.46,57.2 3.48,76.22 -15.82,21.55 -44.04,6.72 -33.44,52.23l4.28 -17.12 20.65 17.92c5.25,-10.18 8.22,-17.64 9.31,-30.77l8.56 12.87c7.27,21.86 16.35,25.4 21.4,47.08l12.84 -25.69 0 34.25c-17.39,1.45 -21.56,2.31 -25.68,16.31 -8.39,19.4 3.34,17.1 -5.53,33.82 -14.08,26.57 -5.37,11.69 -3.03,39.79 18.01,-9.53 17.12,-2.89 17.12,-29.97 9.79,-2.28 9.94,-3.33 21.61,-4.28zm894.29 -2303.73c30.55,-1.03 34.03,-30.11 55.01,-56.28 10.12,-12.63 9.57,-9.58 17.75,-25.06l59.92 0c-1.4,-16.89 -4.28,-20.07 -4.28,-42.82l61.29 -32.88c18.25,-10.21 48.71,-25.2 58.55,-39.91 -32.84,0 -63.06,-1.97 -89.88,4.28 7.4,-27.7 31.13,-32.24 38.52,-59.95 -21.16,14.18 -45.31,26.28 -68.48,38.54l0 -72.79c-23.72,15.89 -65.89,77.2 -80.72,102.77l-56.24 0c0,20.01 4.78,21.39 4.26,34.68 -0.89,22.82 -5.14,8.94 -17.09,25.26 4.01,17.26 5,36.37 -4.37,51.29 -10.73,17.08 -22.92,6.48 -25.59,38.64 25.68,-5.99 26.5,-19.35 51.35,-21.42l0 55.65zm111.96 1622.89l3.6 0.02c9.11,27.4 56.18,96.03 81.32,102.75l0 -54.72 -4.14 0c-11.91,-15.11 -5.2,-13.36 -22.75,-29.67 -11.87,-11.03 -14.54,-20.43 -13.85,-37.89 26.76,-4.45 38.85,23.93 70.9,26.65l72.85 7.89c22.01,-1.24 12.34,1.16 19.37,-6.46 -14.28,-13 -100.76,-59.19 -122.38,-64.23 1.46,-17.55 4.28,-23.31 4.28,-47.11l-64.2 0c-10.99,-20.78 -46.48,-75.48 -68.48,-81.35 -1.95,23.47 -8.56,22.45 -8.56,55.66 -23.34,-5.44 -36.57,-20.25 -59.92,-25.69 3.57,13.38 5.78,11.61 14.54,24 6.26,8.86 10.11,15.16 15.42,23.1l-77.03 0c10.07,15.06 80.52,54.89 98.43,54.73 5.03,23.83 0,22.65 0,52.32 12.59,0 20.67,-0.69 32.29,-1.64 14.79,-1.21 9.63,1.25 28.31,1.64zm-181.9 105.25c29.42,3.78 11.62,1.52 27.15,17.3 8.4,-2.09 7.77,-0.72 17.14,-12.53 24.54,56.45 39.88,21.53 44.45,95.52l9.7 18.46c9.57,16.39 26.21,53.79 44.26,58.61l0 -77.07c23.34,5.44 28.03,20.25 51.36,25.69 -2.95,-35.54 -23.51,-29.65 -25.68,-55.67l81.32 4.29c-13.68,-20.44 -89.35,-63.21 -115.56,-77.08l0 -51.38c-45.93,0 -53.03,8.47 -72.06,-22.11 -13.93,-22.4 -23.74,-38.95 -39.21,-60.49l0 -11.61 -17.12 0 0 64.23c-29.13,-2.42 -30.21,-23.05 -59.92,-29.97 18.1,34.22 28.49,38.05 29.96,55.66 -50.5,11.77 -7.71,0.88 -47.08,0 -8.15,35 4.38,22.55 27.51,32.42 17.48,7.46 10.04,18.95 43.78,25.73zm318.18 -1567.78c-0.86,0.32 -2.15,0.11 -2.5,1.22 -0.35,1.12 -2.04,0.99 -2.54,1.24 -6.86,3.49 -0.44,0.51 -8.03,4.19 -22.17,10.74 -25.94,4.29 -63.97,4.29 3.71,15.92 8.13,19.22 8.56,38.54 -16.51,3.85 -94.69,31.85 -102.72,42.82 33.38,0 50.48,4.28 85.6,4.28 -20.74,31 -14.2,8.74 -29.96,38.54 16.23,-1.35 34.44,-11.49 47.1,-17.13l28.72 7.37c0.91,0.71 2,2.04 2.72,2.66 0.73,0.64 1.65,2.04 2.69,2.82 -6.88,18.78 0.04,19.94 4.37,38.53 44.71,-23.67 54.12,-57.57 67.63,-65.08 16.17,-9 44.79,0.09 65.43,-3.69 22.97,-4.2 1.26,-12.88 -4.66,-38.28 32.98,-15.83 126.67,-35.77 141.24,-55.66l-119.84 0 43.74 -46.18c-30.73,6.02 -51.42,21.86 -82.26,29.05 -5.92,-12.34 -9.39,-28.01 -12.84,-42.82 -11.39,0.95 -26.09,4.65 -34.24,8.56 -2.65,9.99 -0.62,6.52 -0.02,12.85 -12.25,4.99 -3.59,1.02 -11.38,5.04 -2.94,1.51 -8.62,4.59 -11.24,6.71 -10.86,8.78 -8.74,7.07 -11.6,20.13zm-371.63 1650.94c-20.21,-1.57 -12.43,-2.87 -26.4,-13.4 -4.53,-18.25 -41.6,-79.96 -55.64,-89.37 -0.42,19.03 -3.52,14.9 -4.26,34.29 -0.48,12.48 2.31,23.48 -3.96,34.22 -19.21,-4.93 -24.15,-20.62 -43.14,-25.69 2.65,11.39 23.29,47.35 29.96,59.95 -31.36,0 -110,-10.75 -23.28,40.42 37.17,21.94 56.27,36.3 57.52,92.32 21.51,0 19.16,-3.85 38.52,-4.28 12.5,23.64 50.54,115.96 81.32,124.18 0,-19.51 -4.73,-69.16 -8.56,-85.64 29.18,6.8 36.08,31.98 64.2,38.54 -18.57,-38.71 -19.61,-32.76 -38.52,-68.52l77.03 0c-17.3,-25.86 -77.05,-63.84 -108.99,-77.07 -0.14,-15.14 -4.77,-16.44 -6.19,-30.56 -1.62,-16.01 2.76,-19.93 3.91,-33.67l-33.52 4.28zm-240.4 85.64c-17.22,-9.12 -19.41,-16.96 -38.52,-21.41 1.89,22.7 15.23,32.96 17.12,55.66 -26.96,0 -44.12,1.4 -55.64,17.13l81.32 64.23 0 68.52c14.59,-3.4 25.53,-8.18 42.8,-8.57 2.93,12.6 55.77,123.43 68.48,132.74l0 -98.48c25.01,13.24 26.35,25.29 51.36,38.53 -6.25,-26.84 -27.99,-50.23 -34.24,-77.07 29.64,0 43.42,-4.28 68.48,-4.28 -22.63,-42.79 -98.44,-72.18 -98.44,-94.21l0 -51.38c-23.76,0 -25.38,4.28 -47.08,4.28 -3.26,-14.02 -45.91,-95.64 -55.64,-102.77l0 77.08zm-2148.53 -582.35c6.82,14.21 9.42,28.27 17.12,42.82 -36.89,3.07 -109.58,44.01 -141.24,51.38l0 8.57c27.2,0 25,4.22 48.08,1.34 19.13,-2.39 39.35,-1.34 58.92,-1.34 -13.55,20.24 -32.45,25.33 -38.52,51.38 14.36,-7.6 23.88,-11.83 40.99,-18.94l44.61 -19.6c0,27.33 4.09,46 12.84,64.23 19.34,-12.96 41.22,-40.28 56.19,-59.39 34.65,-44.24 24.46,-26.25 85.05,-26.25 -1.52,-18.27 -7.04,-20.27 -8.56,-38.53 16.68,-8.84 99.77,-35.69 107,-55.67l-85.6 0c14.01,-20.93 25.82,-27.32 29.96,-42.82 -27.2,2.26 -38.2,20.73 -68.48,21.41 -0.48,-21.39 -8.08,-29.99 -8.56,-51.39 -18.1,1.51 -23.38,11.55 -33.24,22.42 -63.25,69.72 -18.42,50.38 -116.56,50.38zm2931.37 556.66c1.95,16.09 6.55,26.77 13.23,37.38 0.42,21.04 9.09,39.49 13.89,60.05 2.17,9.33 7.24,57.57 7.51,69.56 -21.6,-24.85 -38.18,-52.43 -56.37,-80.62 -10.32,-15.99 -20.42,-21.44 -31.15,-37.35 -14.26,-21.14 -6.6,-26.1 -28.04,-40.46 5.63,-21.1 8.56,-3.43 8.56,-34.25l12.84 -12.85c13.62,9.99 12.06,19.99 25.68,29.97 0.57,0.26 1.67,-0.78 1.85,-0.19 4.23,13.87 -2.64,-5.45 12.9,-0.62 21.37,6.63 -11.54,5.89 19.1,9.38zm28.66 44.18c-4.77,-29.45 -18.68,-50.4 1.69,-64.35 13.25,14.55 0.52,12.41 18.83,22.59 19.19,10.67 12.4,-2.53 24.9,22.83 12.89,-7.74 4.72,-3.7 11.41,-16.97 11.83,23.69 31.24,51.08 55.13,58.57 12.17,3.81 0.54,-3.09 8.49,3.83 0.44,0.38 1.22,1.41 1.65,1.86 29.9,31.12 17.63,9.82 35.24,16.81 17.09,6.79 6.26,24.78 36.95,30.51l4.96 -12.81 16.28 -8.86c0.16,-22.25 -1.63,-22.21 -9.54,-37.87 -8.78,-17.39 -11.09,-21.22 13.89,-21.78 4.46,11.97 4.08,11.39 21.49,12.84 -1.51,-18.13 -9.4,-21.39 -21.29,-30.09 -33.16,-24.25 -60.84,-48.89 -72.87,-92.73 -7.36,-36.4 -10.35,-53.72 -25.68,-82.71 -32.35,3.54 6.66,5.02 -25.68,8.56 -2,-24 -11.94,-50.46 -36.51,-55.67 -6.24,-29.17 -19.13,6.2 -19.13,-42.82 -42.84,-0.95 -22.28,-34.33 -72.76,-38.53 -2.48,10.63 -5.26,19.05 -8.56,29.14 -10.8,7.71 -27.33,39.59 -36.75,53.98 -11.16,17.03 -32.13,44.36 -36.01,64.11 -13.55,5.7 -4.59,0.57 -14.79,13.41 -5.93,7.46 -7.61,9.35 -13.36,16.72 -8.09,10.36 -19.45,23.71 -23.21,35.01 -14.94,22.24 -25.56,29.9 -4.17,52.94 7.73,8.32 15.18,11.54 25.35,17.52 8.81,5.18 17.31,11.19 25.9,16.76 0.52,23.82 16.75,74.32 25.73,90.02 21.22,37.1 29.23,26.11 34.19,85.69l-44.52 -32.53c-22.96,-18.49 -8.18,-28.25 -34.87,-46.48 -28.52,-19.47 -71.66,-50.88 -104.1,-53.74 6.13,44.87 23.05,13.44 4.99,64.23 15.91,9.85 22.47,8.72 28.33,26.08l-14.29 13.53 -12.22 -28.63 -23.91 3.49c15.4,17.78 9.46,20.24 -3.62,37.04 8.35,7.57 9.51,6.12 22.56,9.69l3.88 39.71c30.77,-2.7 32.34,-9.56 27.01,26.55 -0.02,0.13 -2.74,9.3 1.81,13.72l16.33 -25.19c7.98,14.99 18.12,25.13 18.75,46.73 -1.13,0.4 -2.68,0.49 -3.52,0.71 -0.84,0.22 -2.49,0.52 -3.51,0.81l-17.25 7.04c33.81,75.08 3.24,46.6 31.15,81.02 11.93,-3.68 5.32,9.57 10.61,-10.76 3.82,32.59 0.73,38.4 32.19,44.03 -5.02,-28.67 -16.03,-46.01 -18.66,-57.4 -2.39,-10.39 -2.33,-1.02 0.32,-11.17 2.39,-9.16 0.73,7.83 4.62,-12.28 3.39,-17.51 -2.05,-17.23 -3.4,-33.44 13.23,9.7 5.76,10.94 21.4,21.41 -0.79,-35.47 -18.94,-42.58 -26.11,-72.7 -9.29,-39.08 17.11,-35.35 -29.53,-60.04l0 25.7 -34.24 -85.65c25.32,13.41 32.21,11.99 45.69,39.94 11.07,22.97 16.62,37.14 48.47,37.14 9.08,18.94 1.1,19.96 25.68,25.69l1.68 -19.73c0.24,-0.91 0.99,-2.35 1.22,-3.06 0.23,-0.69 0.81,-2 1.38,-2.9 8.57,32.1 21.4,7.31 21.4,68.51 10.14,5.37 17.45,9.93 29.96,12.85l2.61 -30.31c2.39,-12 -4.8,1.09 3.25,-8.23 7.27,23.45 31.98,56.88 45.5,77.08 72.05,-19.25 27.92,-105.8 25.15,-119.37 -20.23,-99.06 1.61,-29.22 -33.71,-143.94l-8.14 -1.3c-3.45,-5.34 -6.11,8.03 -2.11,-12.36zm148.36 -65.73c10.68,5.73 9.67,8.46 21.38,16.1 13.12,8.55 12.73,5.11 19.56,18.35 -1.61,9.06 0.29,5.21 -3.68,8.9l-13.4 -12.16c-12.8,14.39 2.71,8.12 -16.45,12.49 -9.09,-6.3 -25.96,-25.98 -7.41,-43.68zm-3607.68 -856.26c5.23,-20.46 -2.28,-19.27 14.04,-27.41 4.99,-2.49 25.19,-6.31 31.58,-6.85 0.42,18.83 4.28,20.88 4.28,44.04 -5.03,16.22 -2.84,8.35 -17.12,15.91 -8.41,-5.63 -6.42,-4.94 -13.7,-11.77 -11.47,-10.74 -4.75,-7.19 -19.08,-13.92zm1868.87 1126.16c-15.14,-3.53 -22.02,-10.66 -34.24,-17.13 0,28.19 11.33,52.62 3.66,71.83 -12.36,30.99 -42.18,16.14 -42.18,60.92 0,15.41 47.08,30.36 47.08,55.66 0,41.5 -20.68,40.73 -21.4,72.8 20.15,-5.39 18.03,-16.87 31.34,-25.19 16.55,-10.35 10.47,12.62 12.75,32.43l15.83 99.8c7.81,-5.72 11.98,-2.31 12.87,-42.78 0.56,-25.52 4.25,-32.12 4.25,-55.7 17.03,12.49 13.31,46.02 18.66,75.54 3.47,19.12 0.15,14.77 11.3,22.94 1,-44.8 17.12,-85.6 17.12,-137.02l29.96 0c0,-113.06 6.72,-39.75 21.4,-102.76 20.57,7.45 -3.46,1.11 17.12,8.56 3.38,-12.67 1.74,-6.94 8.56,-17.13 -24.54,-36.66 -52.75,-34.36 -53.04,-57.94 -0.01,-0.68 3.02,-19.48 3.38,-21.45 2.63,-14.53 6.56,-31.17 6.86,-44.79 -22.32,5.96 -11.92,15.45 -34.24,21.41 0,-22.87 -4.32,-37.45 -8.56,-55.66 -16.63,4.44 -15.96,12.03 -29.96,21.41 -3.34,-6.98 -12.59,-57.25 -12.84,-68.51 -12.77,9.36 -6.11,1.3 -16.05,48.17 -4.25,20.04 -9.63,33.52 -9.63,54.59zm1660.64 -2681.09c-16.13,29.81 -61.13,108.09 -80.92,126.73 -23.99,-5.63 -21.32,-24.39 -29.42,-44.11 -9.99,13.8 -42.43,52.29 -61.46,60.52 1.49,-25.89 1.32,-19.91 10.66,-38.16 7.21,-14.09 3.73,-18.22 9.25,-33.23l39.32 0.69c-5.82,-10.78 -8.94,-11.66 -13.91,-24.77 3.69,-4.74 32.79,-18.02 -9.58,-44.08 7.63,-1.5 6.74,2.1 11.3,-1.87 6.45,-5.6 5.83,-20.88 34.17,-21.52 -3.35,38.55 -11.16,12.04 7.87,42.12 0.73,-0.94 1.43,-2.37 1.83,-3.09l4.73 -9.02c3.89,-8.05 -0.26,-1.81 3.38,-8.08 14.08,9.41 3.07,7.96 21.4,12.44 6.26,-6.94 5.85,-8.76 15.44,-16.27l-20.44 -8.2 -2.87 -24.94c37.08,12.81 33.7,-6.57 62.85,9.77l-3.6 25.07zm-215.81 317.44c-1.2,26.34 74.05,112.02 100.17,167.14 11.16,23.55 9.23,20.78 17.18,21.29 14.56,43.78 37.41,81.6 57.12,122.67 19.79,41.23 33.09,83.3 49.88,125.66 46.61,117.54 43.77,133.61 64.55,239.48 4.9,24.98 0.74,27.91 8.21,34.59 0.38,24.31 0.87,12.93 5.46,29.09 4.05,14.26 2.25,14.28 3.49,30.44 1.29,16.67 4.71,45.13 8.17,60.92 16.08,-8.38 8.55,-13.37 32.74,-15.27l-6.54 -18.03c22.23,-1.06 25.96,-7.5 37.99,-18.01 8.56,11.57 -2.13,14.91 12.43,23.08 4.82,-15.8 1.64,-11.39 12.21,-14.33 14.27,28.68 -3.66,22.84 1.02,41.33 6.94,-6.15 9.99,-7.48 13.68,-19.86l3.9 -21.35c2.8,-10.2 -0.88,-3.19 3.85,-9.66l7.2 -4.14c48.75,21.73 15.58,37.23 74.11,38.54 -2.03,24.41 -6.52,5.55 -8.56,29.97 12.81,-8.58 14.7,-17.25 30.99,-20.74 20.55,-4.41 30.51,1.93 41.77,7.89 2.28,-9.76 3.32,-9.84 4.28,-21.41 14.44,9.68 9.6,8.77 33.96,8.85 14.26,0.05 28.75,-0.28 43.08,-0.28l21.4 98.48c20.18,0 19.15,-0.76 34.24,-4.28 -2.91,-10.9 -0.24,-7.78 -9.62,-16.07l-16.06 -9.62 29.96 0c-1.49,-17.97 -7.07,-46.27 -8.56,-64.23 16.84,-3.93 17.36,-1.98 21.4,-17.13l-29.96 0c0,-17.08 -0.31,-25.59 -4.28,-37.78 -20.31,7.03 -10.33,8.78 -20.55,10.69 -0.95,0.18 -12.84,-0.45 -17.97,5.7 -4.2,12.49 -0.43,11.19 -14.58,15.94 -9.58,3.23 -38.64,-0.03 -45.34,-28.81 -9.36,13.49 -1.4,15.47 -21.4,17.13 -3.39,-12.73 -0.44,-10.62 -13.34,-14.29 -40.76,-11.62 -32.66,-18.66 -36.37,-3.06 -1.15,4.88 2.63,17.12 2.63,30.2 -16.33,-18.8 -14.59,-24.06 -34.24,-25.69 6.73,-12.72 12.65,-18.05 9.75,-31.15 -4.65,-21.03 -5.47,-1.27 -5.47,-45.93 14.64,5.3 4.71,3.67 11.26,5.86 9.88,3.31 6.35,2.71 18.7,2.71 0,-20.19 -0.76,-19.16 -4.28,-34.26 22.79,0 23.94,3.86 42.8,4.28 0,-24.01 -3.91,-19.56 -11.24,-27.36 -19.59,-20.87 -6.82,-34.07 -5.88,-45.43 -43.32,0 -38.49,11.77 -22.67,-31.18 14.53,-39.44 0.13,-10.04 18.39,-37.33 -18.43,-27.54 -71.5,-29.15 -12.03,-67.71 12.49,-8.1 23.05,-18.3 37.71,-22.22l-5.74 -11.43c-2.89,-9.02 -2.55,-2.05 -2.82,-15.31 -21.02,-3.65 0.1,-2.54 -23.81,-13.54 -12.17,-5.6 -16.24,-4.07 -28.1,-11.53 -14.13,5.87 -6.02,-0.58 -12.55,17.23 -17.42,47.49 -27.36,19.21 -46.53,43.15l5.41 3.41c0.71,0.44 1.91,1.2 2.69,1.68 0.78,0.49 1.9,1.17 2.71,1.66 1.11,0.68 9.65,5.84 10.65,6.29 9.34,4.15 -0.68,1.15 10.88,2.88l7.45 0.55c0.27,-0.75 1.6,-0.11 2.29,0.23 -9.58,6.97 -11.75,12.27 -20.09,18.84 -18.08,14.25 -11.08,1.14 -20.47,7.28 19.21,61.48 0.28,47.48 -28.92,72.79l0.55 13.54 -17.9 0.91c4.32,-15.51 -0.31,-4.7 -29.34,-9.06 1.54,-27.58 15.56,-21.78 9.61,-36.62 -31.1,32.87 -57.65,-4.83 -32.28,-31.02 11.36,-11.73 20.86,-7.7 40.84,-8.56 3.66,-16.2 -2.22,-9.89 6.19,-25.12 11.36,-2.99 11.89,-3.96 25.57,-4.9 -18.82,-10.18 -12.68,-21.11 -3.45,-37.94 -2,2.8 -0.37,4.58 -7.85,5.56 -12.48,1.64 -5.19,2.1 -12.24,-3.81 7.05,-23.37 5.16,-18.18 77.37,-27.61 7.74,-18.8 -1.75,-14.5 28.47,-17.52 20.3,-1.4 22.39,-1.58 29.48,-16.63 13.95,4.69 11.94,3.93 20.91,12.02l2.54 -36.67 38.44 -9.37c30.94,45.13 14.37,10.69 26.68,47.39l26.11 -3c8.9,-34.42 -34.44,-102.78 -39.99,-119.85 -5.16,-15.92 -5.65,-27.96 -12.8,-42.86 -18.58,4.33 -48.07,28.72 -55.66,38.54 -30.7,9.38 -45.8,-1.53 -4.37,-21.49 18.06,-8.7 38.21,-16.33 55.75,-25.61 -1.34,-16.16 -7.03,-22.46 -12.09,-34.97 -3.83,-9.43 -4.17,-14.17 -12.71,-22.37 -7.61,-7.3 3.17,1.09 -9.11,-6.9l3.95 -8.58c-5.97,-17.97 -14.45,-35.6 -22.76,-54.28 -11.41,-25.63 -10.64,-31.34 -45.72,-31.34 -8.43,12.6 -8.78,12.54 -12.84,29.97 18.41,-1.53 7.71,0.61 21.4,-8.56 -2.98,35.88 -27.02,8.85 -17.12,51.39 -17.08,0.38 -15.84,1.97 -25.68,8.56 5.39,10.18 9.88,14.6 12.84,25.69l-14.45 8.57 12.94 17.13c-19.74,16.62 -22.93,1.65 -34.8,34.89 -7.2,12.31 -24.15,21.78 -37.62,22.96 -7.8,8.67 -56.65,36.8 -67.87,44.34 -47.09,31.67 -57.99,37.62 -65.79,6.97 34.17,-8.11 27.85,-1.19 46.2,-26.41 10.66,-14.66 22.13,-23.58 42.23,-32.79l17.25 -5.44 -2.04 -30.28 -20.17 -1.47c-5.35,15.66 -3.63,13.25 7.58,20.43 -32.05,7.41 -16.33,-12.28 -47.14,8.32l-16.06 43.83 -30.03 3.25c-1.58,12.94 -0.17,36.94 -4.22,43.02 -12.2,-2.64 -1.68,-0.14 -9.38,-6.81 -19.38,-16.81 -9.56,-8.05 -29.13,-10.32 -26.71,-3.11 -11.17,-4.31 -17.63,-28.12 14.06,-2.48 20.1,-5.12 32.11,-8.55 13.26,-3.78 7.97,-10 14.97,7.56l21.9 -33.57c14.32,5.93 7.47,5.8 22.1,13.88l-1.69 -26.66c-10.8,11.01 -7.35,10.14 -25,4.52 12.41,-16.73 33.48,-29.6 51.4,-42.63 14.4,5.55 5.03,7.61 16.65,10.93 14.3,-25.17 -3.44,-18.58 15.48,-35.37 13.51,-11.99 22.9,-9.16 22.05,-30.36 -30.9,-4.7 -17.79,-0.3 -35.06,8.52 -24.65,12.59 -6.99,-4.38 -26.28,20.75 -15.04,19.6 -35.6,17.55 -65.15,26.17l15.83 20.95c-9.61,7.26 -6.67,2.05 -15.85,9.7 -10.08,8.41 9.92,1.39 -11.41,8.19l18.37 10.98c-9.72,8.22 -8.85,5.62 -15.68,16.82 -43.27,4.45 -7.68,-2.42 -42.87,9.49l-10.03 -17.75c10.38,-12.07 6.69,-3.83 17.13,-12.85 -5.81,-13.66 -4.97,-5.36 -6.74,-20.2l29.67 -5.46c7.84,-17.4 7.39,-39.13 22.8,-49.94 21.03,-14.75 23.13,-5.21 28.3,-42.08l-8.3 0.32c-12.67,-0.3 -12.59,3.38 -25.68,10.32 3.83,-14.35 7.44,-14.78 18.98,-23.79 15.11,-11.79 13.3,-13.09 19.54,-31.86 6.25,-4.84 35.85,-53.24 38.98,-64.25 8.57,-6.78 13.97,-13.8 15.32,-25.69 -13.84,-13.95 -14.05,1.62 -17.61,-7.56 -0.52,-1.32 -2.28,-0.45 -3.69,-1.02l0.74 -15.06c8.81,-14.53 4.06,-19.48 13.48,-35.51 18.83,-8.17 19.31,-1.08 34.38,6.92 19.42,-28.47 18.04,-24.89 20.06,-67.02 -1.94,-13.97 1.7,-1.27 -5.66,-5.6 -0.45,-0.27 -1.78,-0.6 -2.26,-0.87 -12.67,-7.1 -10.28,-5.7 -13.35,-32.53 -23.69,11.34 -77.22,48.17 -89.17,8.72l38.28 -1.9c-3.85,-23.34 -0.43,-21.93 -1.93,-43.09 0.54,24.63 -19.67,19.59 -36.35,44.99 -5.35,10.79 0.57,15.46 5.52,25.35 -0.54,0.94 -1.54,2.03 -1.95,2.59l-15.33 29.16c-15.36,1.96 -14.37,4.92 -21.24,16.12 -14.48,-7.38 -10.14,-17.04 -35.98,-16.69 -19.64,0.27 -11.76,8.8 -29.24,16.26 -11.87,-8.34 -8.26,-6.12 -17.12,-17.13 -10.74,9.83 -15.46,11.92 -28.94,17.13 -0.01,2.45 0.86,13.87 0.84,14.17 -0.46,9.5 5.03,1.9 -2.31,7.04 -13.94,10.23 -7.04,8.59 -12.27,9.28 -6.47,-8.51 -4.72,-18.16 -3.53,-28.32 32.24,-67.67 37.24,-75.17 78.36,-81.6 -10.23,-20.75 -6.68,-21.83 6.08,-41.03 9.53,-14.34 18.64,-22.19 28.1,-36.2 10.33,-15.28 14.31,-26.24 24.71,-39.5 10.31,-13.16 23.44,-22.25 15.98,-43.97 -0.17,-6.67 1.95,-4.48 -4.3,-11.31 -6.36,-11.71 -49.28,-62.64 -59.31,-70.05l-0.98 13.7c-10.16,-6.54 -7.75,-7.1 -17.48,-14.31 -13.85,25.23 -10.18,-3.61 -27.77,42.95 -26.83,-5.94 -2.93,-1.22 -22.72,-16.81 -9.54,-7.52 -15.83,-7.33 -26.06,-12.68 0.99,-7.62 14.12,-43.26 19.7,-53.95l31.9 1.93c-7.78,-22.15 -7.23,-17.01 -22.51,-32.52 -9.73,-9.87 -13.73,-19.14 -24.57,-27.41 -4.83,-16.83 -14.22,-19.13 -34.24,-20.79 -6.3,27.05 7.85,24.63 -8.56,55.66 -21.58,-5.76 -8.38,-11.36 -29.96,-17.13l-17.12 17.13c1.84,-9.95 1.11,-6.36 0.6,-12.84 2.86,-20.4 -0.25,-3.43 -1.7,-12.65 -0.14,-0.89 -0.45,-2.13 -0.58,-3.02 -0.13,-0.87 -0.39,-2.12 -0.51,-2.97 -0.11,-0.84 -0.26,-2.12 -0.35,-2.93 -1.68,-15.06 7.08,0.93 -1.74,-15.3 -20.42,4.21 -19.16,40.42 -30.08,62.44 -6.82,-13.06 -4.3,-8.79 -0.89,-22.6 7.09,-28.76 -2.48,-9.28 2.85,-24.13l2.07 -3.36c0.17,-0.46 0.83,-1.53 0.96,-2.06 1.92,-7.54 -0.11,-12.08 -1.16,-21.56 13.55,-5.18 8,-0.73 17.96,-11.81 -4.33,-10.62 -3.22,-12.86 -5.71,-21.64 -3.95,-13.92 4.12,-8.4 -7.4,-13.83 -13.41,5.23 -6.52,-2.7 -9.02,32.57 -12.23,-6.39 -7.74,-5.29 -20.75,-18.72l-4.47 -4.17c-7.82,8.04 -5.41,6.46 -10.84,14.45 -18.07,26.62 -3.43,5.07 -35.27,18.95 -30.54,13.31 22.36,0.49 -9.55,5.24 9.74,23.9 -9.39,36.49 -25.66,21.38 -6.81,6.09 -1.26,-1.47 -6.15,10.93 -4.31,10.94 -2.99,8.25 -4.15,14.79 -12.01,29.35 -13.81,24.55 -35.68,40 -20.39,14.41 1.49,17.36 -20.39,35.77 8.61,11.34 8.46,5.84 14.09,18.66l-11.7 4.5c-13.52,6.46 -11.48,7.02 -16.62,21.55 -13.26,37.45 -17.38,13.49 -19.76,29.39 -0.99,6.63 25.73,43.28 25.74,43.28 9.69,8.08 -2.86,-1.04 5.57,2.81l3.65 1.01c-6.17,9.93 -1.58,8.95 -6.24,20.57l-9.14 -17.67c-10.79,5.82 -20.01,7.21 -35.47,3.22 -3.35,7.21 -2.76,21.91 0.67,32.42 -7.44,13.74 3.45,9.61 35.34,41.74 29.76,29.98 26.92,35.93 46,26.77 0,28.16 10.2,31.52 41.77,65.26 8.7,9.31 8.97,12.22 17.12,21.41 18.18,20.46 53.64,69.73 78.07,71.76l0 25.69 16.23 6.74c0.83,0.41 2.23,1.27 3.38,1.83zm-2116.78 1413.03c-13.82,-5.15 -14.99,-6.76 -45.3,10.36 -23.25,13.14 -99.62,62.61 -117.34,66.74 -3.45,-14.82 -11.16,-23.34 -12.58,-39.08 -1.48,-16.49 4.02,-28.23 4.02,-50.84l9.35 20.61c2.98,7.89 5.44,12.19 7.77,22.21l17.14 -4.29c40.16,-6.34 29.94,-9.69 29.94,-55.66 15.66,11.48 14.47,29.57 34.24,42.82 10.04,-8.73 13.44,-12.22 18.81,-28.29 6.51,-19.49 5.93,-17.47 15.43,-31.66 25.92,0 36.28,2.67 55.64,4.28 0,20.23 1.83,17.44 -8.14,30.6 -0.69,0.9 -1.58,1.74 -2.27,2.65l-6.71 9.55zm-116.08 -89.9c-27.63,0 -35.97,3.4 -56.4,11.56 -20.84,8.32 -31.34,13.05 -54.36,18.41 -5.09,-10.61 -15.96,-41.74 -17.12,-55.66 48.56,-11.32 24.81,-3.58 64.2,-29.98 10.02,43.01 8.29,34.26 59.92,34.26 1.5,-18 4.87,-14.11 8.56,-29.97 11.96,8.76 8.74,16.63 12.84,34.25 19.13,-0.42 17,-2.96 18.91,-8.56 8.24,6.89 6.77,-10.74 6.77,12.84 -21.29,0 -31.09,3.08 -43.32,12.85zm1075.63 1465.3c0.31,-18.1 -2.42,-28.87 7.72,-42.3 16.93,13.33 6.9,10.4 16.24,24.8 7.94,12.24 16.41,3.82 13.55,22.49l-37.51 -4.99zm131.84 -95.7c-39.65,2.29 -104.38,22.04 -141.24,22.04 0,15.44 -0.6,31.97 -0.14,47.25 0.64,21.57 4.42,21.43 4.42,42.68 -27.53,-0.62 -7.32,-0.64 -16.56,-34.68 -8.55,-31.53 -2.9,-22.86 -0.56,-50.96 -21.24,4.95 -18.57,8.83 -24.58,26.8 -0.24,0.72 -0.5,2.22 -1.1,3.17 -3.1,-13.29 -5.47,-12.4 -8.56,-25.69l-42.69 5.07c-1.27,13.1 -4.8,14.33 -2.43,29.19 -16.55,8.54 -19.08,19.99 -19.08,-29.98l-37.29 0.85c-12.15,2.77 -2.85,-1.02 -7.87,3.43l-96.08 0c-6.21,9.29 -8.08,14.79 -17.12,21.41 0.96,-11.56 2.01,-11.65 4.28,-21.41l-107 -4.28c-3.75,16.1 -1.75,17.57 -12.84,25.69 0,-32.04 -8.37,-30.93 -38.15,-34.62 -22.06,-2.73 -44.51,-8.2 -68.84,-8.2 -3.21,5.71 -2.37,4.8 -4.42,12.85l-12.7 -21.41c-16.54,8.75 -12.31,-1.05 -29.03,40.05 -11.3,27.78 3.7,4.75 7.63,49.29 -4.48,20.48 -16.03,33.26 -5.26,78.63 7.02,29.54 9.53,44.36 9.53,80.38 17.48,-1.45 25.47,-16.81 31.72,-41.07 7.56,-29.41 -5.25,-46.06 28.2,-48.85 3.88,16.65 6.18,19.47 2.9,41.87 -2.61,17.78 -9.04,24.71 14.22,30.93 0,26.8 1.98,55.62 -4.9,76.45 -7.23,21.94 -15.74,20.93 -28.4,35.9l-7.15 11.82c-12.84,-0.86 -13.49,-1.89 -23.75,-4.28 -11.2,16.74 -11.31,9.32 -17.11,34.26 19.31,0.43 19.33,4.28 42.77,4.28 17.37,0 29.04,-1.3 44.39,2.7 21.5,5.6 18.18,5.86 45.51,5.86 3.63,-15.58 2.37,-13.73 12.84,-21.41 2.01,4.2 2.07,6.41 3.34,9.46l5.22 10.62c15.56,2.65 27.21,5.92 39.51,1.33l9.82 -82.14c12.36,10.88 7.62,11.99 14.86,22.35 6.57,9.4 9.27,7.79 16.43,16.97 -6.42,23.93 -16.28,21.37 -22.72,51.39l19.33 0c11.52,-5.62 28.91,-1.22 46.89,-3.94 7.95,-30.64 3.3,-112.27 5.94,-150.02 2.42,-34.67 11.13,-19.48 0.8,-62.65 -7.25,-30.3 -0.22,-37.85 14.22,-57.69 2.45,16.51 2.93,30.77 4.44,47.72 2.89,32.55 0.81,11.29 17.34,34.85 3.53,-13.18 2.45,-13.33 9.46,-22.93l12.06 17.69c-0.13,-22.63 -0.26,-25.32 -4.34,-42.82 -15.65,4.18 -8.97,4.51 -21.4,12.84 0.43,-19.43 5.13,-21.66 7.53,-35.28 2.11,-11.98 1.85,-33.35 0.27,-45.59 -2.73,-21.11 -7.3,-56.89 35,-29.97 14.24,33.49 22.91,9.62 19.92,40.2 -2,20.45 -2.8,35.23 -2.8,57.8l8.56 0c0.35,-16 4.97,-29.45 8.4,-42.98 5.5,-21.7 4.96,-22.98 21.56,-34.1l4.8 16.96c14.37,-3.81 7.96,-5.89 17.22,-6.76 8.4,-0.78 14.51,3.44 24.48,6.93 0.09,0.83 0.54,1.31 0.57,2.43 0.03,1.6 0.64,4.09 0.63,4.78 0,0.45 -0.02,1.82 -0.06,2.32l-0.87 4.6c-0.94,6.46 -4.56,6.45 4.59,20.12 18.37,-12.3 18.04,-24.2 42.8,-29.97 -8.56,12.78 -11.96,10.53 -17.12,28.14 -4.36,61.82 -11.7,43.91 -25.68,70.35l8.65 4.27c0.54,0.39 1.88,1.66 2.35,2.03 0.47,0.37 1.4,1.53 2.14,2.26 -0.85,31.27 -5.2,14.41 -8.46,35.04 -2.35,14.81 4.41,29.83 8.16,40.16 -4.44,4.58 -3.69,-6.95 2.76,11.17 15.33,43.1 10.08,29.71 10.08,80.63 58.73,31.09 77,8.34 101.09,2.37 18.4,-4.55 31.06,5.31 58.28,-1.3l54.62 -14.39c35.13,1.5 122.52,-21.61 145.52,-33.78 -5.11,-19.15 -15.96,-14.48 -17.18,-51.33 -1.53,-46.46 5.26,-50.68 -17.06,-40.92l0 -31.93c-28.86,6.73 -9.89,8.96 -23.93,36.01 -9.44,18.19 -19.41,15.98 -35.99,23.94 0,-33.51 6.19,-49.04 -22.9,-55.67 -2.57,-8.02 -1.5,-7.39 -7.06,-15.42 0,-19.49 0.86,-17.08 4.29,-31.51 25.31,-29.98 25.67,-149.74 25.67,-197.14 -11.66,4.22 -13.32,9.39 -17.05,25.75l-8.41 85.79c0.16,25.68 2.84,23.4 -13.05,34.04 -16.02,-11.74 -1.78,-4.1 -14.32,-19.83 -14.56,-18.25 -9.78,-0.69 -15.64,-20.52l0 -23.87c13.05,3.04 10.34,5.11 21.4,0 0,-45.23 -3.86,-49.34 -4.29,-68.52l-25 0.58c-11.98,2.08 -5.16,0.87 -9.23,3.07zm-140.65 202.73l6 6.48 5.33 27.89 -36.82 2.55c-0.2,-14.18 2.92,-23.89 7.64,-33.11l17.85 -3.81zm71.62 138.27l-5.9 -7.99c-1.47,-24.81 -1.5,-22.19 21.84,-23.51l3.82 -7.89c10.04,28.95 10.41,30.34 23.43,53.21l-1.86 15.91c-21.87,-7.11 -25.45,-9.87 -29.6,-33.89 -4.72,8.99 -0.94,3.77 -11.73,4.16zm60.33 -128.23c4.7,-32.08 6.73,-31.64 4.9,-68.55 19.33,4.11 30.35,13.3 39.17,24.46l2.42 33.07c-17.09,5.48 -27.46,12.43 -46.49,11.02zm-554.07 -42.49c5.64,-20.39 3.73,-22.09 19.21,-29.95 17.7,22.64 9.92,57.8 -12.84,72.67l-19.41 -32.51 5.39 -17.14c9.6,-2.64 -3.79,-6.07 5.39,0.77 1.92,1.42 1.96,4.9 2.26,6.16zm1372.99 -320.7l-9.06 -2.82c1.19,-11.77 1.37,-3.82 4.25,-12.11 6.84,-19.68 4.87,-51.91 -4.91,-73.88 -7.11,-15.97 -5.79,-11.17 -24.54,-16.37l-5.45 -15.85c28.58,5 8.62,7.36 32.68,-0.85 12.6,28.1 26.83,28.21 27.44,67.19 -6.06,11.22 -2.96,14.37 -4.1,54.45l-16.31 0.24zm41.48 -314.57c-18.81,9.44 -49.62,36.08 -58.77,54.55 -17.23,9.84 -15.5,9.39 -29.42,23.1 -4.52,4.46 -9.63,7.84 -13.93,11.58 -12.33,10.72 -6.39,1.29 -13.44,19.18 -18.78,3.51 -73.63,50.63 -89.26,62.38 -63.47,47.7 -167.84,113.02 -240.29,149.25l-51.38 25.69c-24.32,8.09 -20.52,8.63 -37.92,21.41l-2.18 12.78c17.21,11.73 0.68,-0.93 10.14,12.91 -1.04,6.5 -5.21,2.3 0.02,8.57 11.56,0.96 11.64,2 21.4,4.28l-17.12 4.28c14.04,19.17 19.64,3.21 25.68,25.61l0 17.21c2.29,-1.68 20.99,-28.11 51.41,-28.09 45.51,0.02 109.88,81.53 114.03,115.53 1.89,15.51 2.3,-16.54 0.13,6.41 -2.64,27.88 -33.51,26.77 -67.13,34.61 7.9,14.94 12.84,15.06 12.84,38.54 -70.76,16.49 -58.02,18.52 -55.64,47.1l21.4 0c3.47,-31.78 16.17,-1.73 46.12,-30.94l43.76 -33.29c10.47,7.01 20.73,15.6 28.29,27.35 9.13,14.19 7.95,27.49 14.51,41.16 47.59,-3.96 197.66,-102.66 251.78,-137.76 15.26,-9.89 21.61,-10.41 22.13,-33.02l-4.06 -9.06c1.4,-22.1 -4.29,-8.32 9.28,-12.85 8.25,-10.18 11.68,-13.79 14.5,-31.65 16.13,0.45 27.92,1.59 41.18,10.24 5.84,3.35 7.26,4.39 11.86,8.57 20.88,-13.99 53.14,-32.53 62.43,-55.67 -0.28,-23.23 -8.49,-12.38 -4.3,-48.86l20.75 0.29c-2.43,-20.8 1.25,-37.06 11,-53.31 8.25,10.53 14.14,35.41 34.24,48 18.57,3.07 20.07,-1.89 21.4,-20.7 -19.52,-0.93 -16.67,-9.52 -25.46,-24.09 -20.67,-34.23 -43.75,-27.28 -59.26,-89.74 -16.76,-6.81 -3.06,5.34 -17.82,0 13.92,-31.71 -8.28,-52.34 -22.39,-83.05l-11.74 4.29c-2.15,-32.81 3.45,-11.02 -13.17,-32.98 -12.14,-16.05 -5.86,-14.64 1.46,-31.52 -26.38,-8.98 -22.02,-11.51 -34.17,-36.75 5.5,-11.36 24.62,-3.73 0.17,-48.38 -0.76,-0.1 -1.91,0.14 -2.29,0.21l-20.77 6.63zm-1361.02 -904.61c2.92,12.51 7.48,19.83 12.84,29.97 -46.58,0 -52.93,-12.82 -87.08,-24.2 -30.53,-10.18 -61.42,-11.33 -92.68,-18.62 7.56,-32.43 13.07,-29.34 38.52,-42.82 17.21,32.55 4.21,32.81 25.69,38.54 3.38,-14.52 8.99,-22.03 12.83,-38.54l8.56 34.26c23.8,0 25.15,2.65 25.68,-21.41 13.64,10 3.49,7.13 17.12,17.13 14.66,-3.92 12.3,-7.62 14.12,-8.01 13.11,-2.8 -6.17,-1.61 6.17,0.63 0.18,0.03 2.69,2.85 13.95,3.1l9.16 -29.78c21.91,16.3 6.09,43.37 -4.88,59.75zm295.32 -94.2c-45.17,0 -51.81,-7.23 -96.71,1.73 -32.05,6.39 -49.24,21.36 -78.77,28.24l47.08 -102.77c8.24,11.87 4.18,26.26 38.52,34.26 13.64,-10 3.48,-7.13 17.12,-17.13 0,18.02 -1.8,17.3 4.28,29.97 20.28,-0.45 17.41,0.01 21.4,-17.12 12.99,9.52 8.56,7.4 8.56,29.97 24.1,-12.76 11.3,-13.19 29.96,-25.69 19.97,4.65 25.31,9.99 29.96,29.97 -5.41,2.86 -14.15,8.57 -21.4,8.57zm-663.39 -25.7c11.56,-0.96 11.64,-2 21.4,-4.28 -2.35,10.08 -3.99,12.65 -4.28,25.69 -13.93,-9.32 -9.54,-7.06 -17.12,-21.41zm-102.72 4.29l0 0zm-29.96 -21.41l0 0zm903.07 -25.7c17.64,0 34.24,-5.24 34.24,12.85 0,11.57 -2.05,11.81 -4.28,21.41 -22.69,-5.29 -19.87,-15.17 -29.96,-34.26zm-629.15 -17.12l0 0zm-154.08 0l0 0zm-166.92 0l0 0zm740.43 -102.77c6.2,9.27 13.21,17.16 22.41,24.8 14.08,11.7 19.71,9.32 37.51,5.17 0,13.1 -1.31,25.3 5.83,33.12 11.19,12.23 6.04,1.69 24.13,-3.14 -3.71,15.92 -7.22,15.04 3.53,26.13 0.54,0.55 1.97,1.53 2.44,1.96 0.48,0.43 1.78,1.18 2.59,1.88 -25.33,-0.56 -67.52,-21.41 -111.28,-21.41 0,-15.29 1.6,-23.71 3.8,-34.74l9.04 -33.77zm-586.35 51.38l0 0zm787.51 -34.25l0 0zm-552.12 -98.49l0 0zm25.69 -25.69l-4.29 -4.28 4.29 4.28zm-4.29 -4.28l-4.27 -4.28 4.27 4.28zm-4.27 -4.28l0 0zm-85.6 218.38c11.76,1 9.3,0.4 17.12,4.28 7.69,-33.03 14.79,-14.46 21.39,-42.82 -14.06,-3.76 -14.09,-6.21 -21.39,-17.13 13.84,3.23 18.77,7.28 34.24,8.57 3.09,-13.29 5.46,-12.41 8.55,-25.7 -8.85,-13.24 -12.8,-9.51 -17.11,-25.69 20.1,0.45 41.55,15.71 77.03,-51.38 -68.44,5.7 -120.77,46.34 -163.72,88.83 -20.44,20.21 -24.79,32.57 -41.71,43.91l-21.52 -42.76c20.49,-13.71 37.68,-31.04 60.04,-42.88l-5.34 -47.02c11.51,5.45 30.27,19.18 40.13,20 17.49,1.47 27.18,-11.78 42.24,-15.8 -4.28,-18.4 -12.88,-22.68 -17.11,-38.54 20.6,13.81 21.12,17.13 55.63,17.13l0 -17.13c19.6,4.57 10.37,4.57 29.96,0 -0.28,-13.04 -1.93,-15.61 -4.27,-25.69 19.85,13.3 24.09,15.32 47.07,4.28 -4.28,-18.4 -12.88,-22.68 -17.11,-38.54 24.28,6.49 19.6,20.71 51.35,21.41 -3.55,-15.24 -8.56,-37.42 -8.56,-55.66 84.43,0 18.83,-14.72 72.76,21.41l66.68 -23.22c21.15,-8.2 48.14,-15.31 66,-23.88 8.86,13.23 12.8,9.51 17.12,25.69 -23.07,6.16 -15.11,18.69 -13.19,38.63 2.18,22.65 -2.22,36.7 -3.8,55.7 -4.41,53.2 -15.51,48.8 8.43,94.07 -20.65,9.92 -20.69,-4.68 -31.68,15.41 -6.87,12.58 -4.48,26.16 -12.68,38.7 -7.65,11.71 -51.53,32.23 -66.92,35.82l42.69 13.63c-0.57,29.6 -17.21,48.85 -29.85,67.72 -51.17,-24.56 -112.53,-17.12 -158.35,-17.12 6.07,-12.68 4.27,-11.96 4.27,-29.98 8.52,5.71 11.86,7.8 21.4,12.85 25,-16.75 17.72,-11.8 17.12,-38.54 19.1,4.45 20.49,10.9 38.57,4.72 13.84,-4.73 21.47,-11.87 38.47,-13.28l0 -8.57c-66.52,-15.5 -105.05,-14.04 -172.65,19.95 -69.6,35 -102.01,80.75 -126.94,82.82 -3.81,-16.33 -4.28,-17.02 -4.28,-38.54 72.42,0 51.82,2.69 29.96,-29.97 25.82,2.15 56.13,13.41 29.96,-25.69zm206.89 -459.97c-13.33,-6.82 -3.19,1.27 -6.51,-11.05 15.21,-7.07 16.67,-1.23 23.03,13.47 -5.8,-0.54 -10.66,0.58 -16.52,-2.42zm-57.1 -11.4c-8.17,-13.83 -3.84,-19.53 4.28,-28.55 6.96,11.86 9.78,21.38 -4.28,28.55zm239.68 -81.01c-3.84,-16.5 -9.46,-24.01 -12.84,-38.54l29.96 0c-8.12,16.93 -2.22,27.62 -17.12,38.54zm-132.68 -55.66l0 0zm124.12 -38.54l42.69 5.07c-2.51,10.47 -3.78,11.79 -8.45,20.62 -15.55,-4.16 -26.34,-13.89 -34.24,-25.69zm-166.92 0l0 0zm-42.8 -17.13l0 0zm-423.71 757.93c20.85,6.99 24.68,-9.3 43.01,-6.9 16.87,2.21 12.39,20.04 12.89,41.14 -12.56,-2.85 -21.42,-4.75 -33.32,-9.67 -16.34,-6.76 -19.2,-5.73 -22.58,-24.57zm731.87 -625.17l0 -9.18c6.83,-13.11 4.28,-27.29 4.28,-46.5 18.2,4.24 32.78,8.56 55.64,8.56l4.28 10.39c-22.36,8.8 -30.26,36.64 -41.44,46.71 -10.18,9.17 -6.5,4.2 -22.76,2.85l0 -12.83zm964.01 2084.37l27.59 -27.02c-20.65,0.26 -24.61,8.22 -27.59,27.02zm-488.94 -3737.93c0,-11.97 -7.83,-7.11 -23.1,-10.57 -13.2,-2.99 -15.89,-4.85 -29.28,-5.86l8.55 25.83c32.12,-0.72 10.09,-12.65 31.01,-11.75 0.05,22.66 3.12,21.23 -4.27,42.1l-13.98 1.46c-31.84,-1.93 -39.34,19.03 -54.69,36.6 -33.38,38.21 -28.58,19.43 -50.37,26.07 -4.28,9.9 -7.52,17.96 -9.51,27.17 -1.79,8.24 -2.9,-5.64 -1.45,14.54 0.02,0.31 3.64,13.35 3.74,13.67l-20.57 21.28 9.84 0c3.72,15.95 8.97,30.27 12.84,47.35l-2.35 4.03c-5.77,10.32 -11.09,16.22 -20.07,24.74 -39.93,37.91 -12.82,17.23 -9.53,86.2l14.55 -39.71c41.44,-2.73 26.73,2.35 45.86,-22.71 22.09,28.14 4.27,30.27 11.27,69.13 -9.53,-4.22 -7.04,-4.18 -14.3,-4.72 -12.41,-0.93 -0.85,-2.53 -8.81,2.69 3.52,31.51 -1.85,29.25 -4.19,55.66l4.69 -3.78 17 3.53c10.9,-14.92 13.98,-34.71 19.6,-48.66 1.63,-4.07 2.33,-6.08 4.17,-8.47 4.99,-6.5 0.57,-1.36 6.92,-5.94 10.78,-7.78 15.69,-5.73 22.78,-24.84 7.56,-20.36 2.29,-22.99 1.4,-43.68 3.69,-11.54 -2.83,-7.55 7.98,-7.69 8.31,8.39 7.32,10.01 14.14,18.81 34.06,-55.6 -1.72,-57.74 10.06,-104.49 3.47,-13.77 1.97,-7.97 7.23,-15.52 32.07,7.27 10.09,13.65 34.82,26.43 7.69,-13.91 24.98,-31.2 19.79,-54.13 -4.18,-18.51 -10.77,-8.38 -6.35,-29.38 3.38,-16.1 10.52,-6.75 4.19,-28.03 11.66,-5.66 18.22,6.58 6.64,-21.33l21.96 -7.31 -4.91 -35.18c-5.03,-4.06 0.55,-1.54 -10.45,-5.82 -7.08,-2.76 -8.77,-2.58 -16.73,-4.66 -14.92,-3.89 -21.47,-7.6 -36.12,-3.06zm68.48 3807.38c33.71,-16.18 46.43,-5.26 47.08,-34.26l-34.24 0c-6.3,11.91 -9.36,19.31 -12.84,34.26zm252.52 31.59c22.16,-5.76 10.62,-6.12 17.45,-19.27l23.93 7.06c0.78,-21.59 -15.88,-36.05 -33.35,-42.65l-8.03 54.86zm-2362.53 -318.48c0,13.13 10.56,18.51 21.4,21.41 0,-14.52 -1.68,-28.03 2.69,-40.13 5.1,-14.14 10.51,-13.67 14.43,-28.39 -28.07,2.34 -38.52,24.59 -38.52,47.11zm2289.77 -3432.49c-6.44,-7.42 0.03,-1.8 -9.94,-8.88 -2.23,-1.57 -10.51,-6.62 -13.16,-8.21 -10.51,-6.32 -14.75,-8.4 -28.26,-12.53 -18.81,1.94 -5.64,-0.92 -10.51,6.39 19.15,-0.86 20.24,1.12 32.21,13 -5.99,33.7 -13.3,10.24 -19.93,38.54l19.63 11.23c11.74,-15.72 12.49,-34.32 29.96,-39.54zm-2217.01 1312.62c20.92,-1.16 25.46,-8.52 42.8,-12.56 -4.35,-16.3 -29.48,-33.9 -42.8,-42.82 3.47,41.68 4.73,6.1 -8.56,54.27 -10.17,7.95 0.22,2.21 -12.84,5.68 0.97,43.55 33.54,49.16 47.08,55.66 -0.98,44.08 -13.27,25.86 10.9,66.18 9.98,16.66 4.53,12.4 18.9,23.88 5.03,4.01 6.05,4.81 11.69,9.54 11.26,9.45 2.32,4.84 16.91,11.73 3.78,4.32 -14.04,4.29 14.36,4.29 4.3,-8.97 4.95,-17.42 7.92,-26.33 3.92,-11.76 7.78,-16.54 13.48,-25.06 9.7,5.14 9.91,4.75 21.38,8.57 5,5.6 21.06,10.76 29.98,12.84 -3.03,-11.34 -14.79,-24.38 -21.4,-34.26 15.66,0 31.65,0.36 47.25,0.18 22.24,-0.27 24.16,-4.04 42.63,-4.46 -9.66,-13.18 -55.68,-39.9 -81.32,-29.99 -8.62,-13.73 -3.63,-9.71 -25.68,-21.39 11.81,-50.7 26.52,-34.26 -59.92,-34.26 -7.07,-10.55 -14.75,-20.04 -21.4,-29.97 -31.49,7.34 -20.16,21.85 -51.36,12.15l0 -3.87zm1669.18 -1048.8c0,25.13 24.4,8 29.96,4.28 2.99,12.52 -0.55,6.17 8.56,12.85 2.27,-27.31 10.85,-14.7 12.84,-38.54 -21.7,0 -23.32,-4.28 -47.08,-4.28 -1.47,17.59 -4.28,9.56 -4.28,25.69zm329.89 27.8c-5.45,14.23 -13.36,28.11 -5.88,45.68 1.52,0.45 4.77,1.1 7.79,0.43 10.14,-2.26 10.45,-7.32 34.51,-11.87 -1.73,-21.25 -8.31,-17.56 5.4,-33.48l-10.11 -17.39 -31.71 16.63zm-1060.43 2477.16l-9.19 -9.35 -73.46 32.05 -6.4 -1.29c-46.35,-0.86 -91,-50.08 -120.64,-74.15 -44.55,-36.18 -11.1,-2.32 -51.6,-46.87 -9.75,-10.73 -15.04,-11.32 -25.78,-21.31 -10.57,-9.83 -14.98,-16.81 -26.7,-24.67 -12.27,8.22 -15.53,10.87 -17.12,29.97 24.01,6.42 115,127.07 228.57,175.57l13.74 10.08c8.47,4.93 12.21,7 19.01,11.08 13.97,8.39 23.54,14.24 38.28,21.29 9.27,14.62 15.53,14.88 32.73,23.31 25.89,12.69 18.15,9.21 44.31,7.03 0.8,1.52 3.48,7.36 4.48,8.45 0.6,0.67 1.54,1.78 2.26,2.46 0.76,0.73 1.98,1.58 2.76,2.23l6.57 3.99c7.56,6.41 39.15,13.01 52.4,10.83 3.41,-6.74 0.09,-10.95 -4.61,-18.63 -0.62,-1.01 -1.47,-2.12 -2.09,-3.06l-4.75 -6.27c-9.97,-3.44 -17.2,-7.31 -29.54,-8.56 -6.18,-9.76 -2.43,-5.3 -12.97,-10.34 -10.36,-4.96 -7.05,-1.23 -18,-7.6 -11.03,-6.43 -16.06,-12.63 -29.27,-16.32l2.96 -21.41c16.39,-7.29 8.35,1.94 17.39,-17 3.55,-7.46 3.85,-13.56 8.19,-21.48 7.01,-12.81 20.23,-17.94 29.9,-28.05 -18.54,-9.78 -16.37,-17.03 -42.8,-14.09 -12.66,4.82 -14.32,3.51 -27.86,12.11l-0.77 0zm828.98 -2812.2l19.39 -4.04 -0.9 -39.03c26.06,-13.92 28.66,-4.58 26.8,-39.35l-33.86 -12.41c-33.81,-3.49 -17.26,26.89 -8.57,43.82l5.35 12.15c3.79,18.1 -3.42,28.46 -8.21,38.86zm-1757.74 1600.4c-3.25,9.83 -5.51,12.48 -10.38,18.17l-2.33 -0.84 -1.94 25.99 70.13 -19.83 20.24 18.16 89.88 1.26c-4.76,-17.91 -5.79,-13.16 -44.6,-23.98 -22.53,-6.28 -36.52,-10.57 -58.12,-16.69 2.91,-4.41 9.01,-21.61 7.39,-27.61 -3.17,-11.69 -10.11,-10.55 -27.85,-8.7 -30.05,3.14 -46.45,0.32 -42.42,34.07zm1359.7 1778.6l-25.13 -11.42 -12.55 43.95 19.02 10.51 -8.2 19.07 32.82 16.03c-4.28,31.81 -5.91,22.77 -16.58,42.24l26.84 -6.05c0.8,-26.5 -16.38,-50.25 -22.11,-77.37 16.48,-15.34 31.86,-14.21 37.17,-38.54 -8.89,-13.04 -7.68,-5.34 -18.44,-17.84 -4.4,5.21 -1.29,1.62 -5.48,7.99l-3.63 5.66c-0.51,0.78 -1.45,2.21 -1.87,2.86 -0.42,0.66 -1.15,2 -1.86,2.91zm-621.02 -18.71c-43.24,3.76 -68.05,27.77 -68.05,72.8 24.46,-0.55 14,-2.16 29.96,-12.85 -1.38,16.64 -3.86,11.16 -4.28,29.97l15.27 -10.42c0.43,-0.44 1.18,-1.65 1.85,-2.42 0.49,22 -3.87,12.29 8.56,21.41 19.79,-5.29 25.28,-32.66 25.68,-52.25 6.93,-0.95 26.86,-1.34 28.92,-2.36 5.32,-2.63 32.47,-65.13 -24.26,-52.44 -12.51,2.79 -6.61,-0.68 -13.65,8.56zm-410.44 -167.62c16.64,2.75 15.84,-5.83 17.53,-21.56 5.5,11 1.82,11.49 8.63,22.43 2.83,-7.4 10.78,-30.5 13.21,-38.78l-9.41 -2.9 -9.34 -9.25c6,-11.6 5.64,-19.09 11.98,-32.31 6.08,-12.7 9.04,-15.38 16.16,-26.65 12.68,-20.09 4.2,-6.59 21.37,-17.15 0.79,-0.48 1.94,-1.05 2.67,-1.6 8.2,-6.16 11.4,-16.73 13.72,-30.04 19.84,0 18.5,0.83 33.31,4.28 0,21.52 -0.47,22.22 -4.28,38.54 16.97,-4.53 17.28,-12.59 34.24,-17.13 -5.8,-16.04 -5.91,-4.64 -1.67,-17.18 5.45,-16.1 -4.67,-0.96 1.91,-16.99 4,-9.77 9.5,-9.86 15.63,-18.44 8.78,-12.29 3.55,-11.4 9.81,-24.46 -12.5,2.91 -19.82,7.48 -29.96,12.84 -0.42,-18.81 -2.89,-13.33 -4.28,-29.97 -18.81,-0.42 -13.33,-2.9 -29.96,-4.28 -11.67,17.44 -22.29,25.03 -24.26,51.38 -22.33,13.4 1.62,22.37 -61.34,17.13 0,32.25 -8.55,52.77 -8.55,81.36 -20.53,-4.92 -6.66,-2.92 -12.85,0 17.5,26.13 -5.32,26.96 -10.94,62.68 -2.98,19.03 -5.86,10.57 6.67,18.05zm-72.76 -269.14l0 0zm-342.79 -1057.65c-0.75,17.68 9.77,29.8 23.26,41.35l7.09 5.75c19.4,-12.99 31.6,-30.21 42.8,-51.38 32.71,0 38.83,8 64.2,8.56 -1.45,-17.46 -2.2,-17.42 -17.12,-21.41 2.69,-11.25 2.04,-7.28 4.28,-19.9 19.47,4.9 59.05,4.33 78.6,0.06 21.38,-4.68 9.67,3.75 19.84,-10.13 -17.03,-1.42 -79.02,-21.89 -107,-21.1 2.35,-29.1 11.37,-17.32 17.12,-38.85 -1.94,0 -11.8,-0.35 -13.01,-0.17 -17.05,2.42 -15.17,8.04 -20.52,13.73l-9.27 7.85c-16.91,-4.51 -25.92,-16.48 -47.08,-21.41 -3.73,13.98 -6.04,13.73 -16.59,21.41 -0.64,0.9 -1.25,1.38 -1.46,2.98l-13.12 26.34c-12.95,13.58 -13.95,4.61 -28.75,0.66 1.11,49.65 -1.06,14.71 -8.56,42.81 12.87,8.62 8.53,7.09 25.29,12.85zm3257.43 856.4l0 0zm-38.52 -64.23l-4.28 -4.29 4.28 1.45 0 2.84zm-214 620.88c0.56,0.86 1.6,1.03 1.73,2.54 0.14,1.58 1.26,2.18 1.41,2.88 1.23,5.76 1.14,5.6 1.14,11.71 -0.56,-0.85 -1.61,-3.07 -1.74,-2.53 -0.13,0.55 -1.25,-2.19 -1.4,-2.88 -1.23,-5.76 -1.14,-5.61 -1.14,-11.72zm4.28 17.13c14.36,22.64 21.4,81.79 21.4,107.05 -2.32,-2.66 -4.73,-5.19 -7.73,-9.39 -27.81,-38.96 -19.96,-71.18 -60.75,-77.74 9.77,-11.3 8.42,-12.14 2.78,-30.83 -4.3,-14.29 -8.16,-22.53 -11.34,-36.19 19.97,13.38 24.56,18.59 36.23,36.55 4.9,7.54 6.31,8.06 10.85,14.83l8.56 -4.28zm-51.36 19.92l2.46 14.34c-6.31,-3.35 -6.43,-0.45 -11.02,-4.28l8.56 -10.06zm6.76 31.47l1.8 2.21c-2.59,-0.32 -7.9,4.18 -1.8,-2.21zm250.93 -1622.05c-18,-4.92 -35.82,-11.69 -50.59,-17.07 2.1,-25.42 -7.6,-4.1 6.9,-23.86 47.03,8.14 -21.95,17.77 8.99,21.32 12.45,1.43 18.2,-13.92 38.33,-19.99l-3.63 39.6zm-2382.8 1934.89c-8.29,5.96 -29.96,11.56 -30.39,25.53 -0.77,25.61 23.26,12.76 32.92,8.45 -6.61,29.78 -14.22,61.85 -14.14,94.22 2.02,21.55 4,29.49 7.78,48.92 3.69,18.95 3.01,32.47 14.65,41 0,-56.87 -0.79,-65.58 26.8,-98.48 9.14,-6.31 -2.12,-0.57 11.92,-4.1 20.08,-5.05 21.9,-0.93 39.15,4.26l-0.52 -54.95c-18.41,19.82 6.9,23.37 -28.52,27.47 4.59,-16.54 13.48,-36.62 2.76,-50.76 -10.98,-14.5 -13.03,0.43 -13.23,0.62 -15.1,14.11 14.4,10.2 -22.15,8.79 3.16,-27.47 9.11,-31.74 26.59,-44.93 9.71,-9.53 17.5,-13.11 21.4,-27.71 -18.11,-4.22 -14.12,-4.1 -29.96,4.28 -0.38,-16.82 1.17,-10.04 -4.28,-21.41 -9.72,4.67 -15.23,6.19 -27.53,8.57 1.8,-18.32 6.51,-7.26 -6.22,-17.38 -0.6,-0.48 -17.78,-8.18 -21.89,-9.84l-12.53 1.15 -2.54 59.56 29.93 -3.26zm1024.88 -2637.96c4.34,5.15 28.32,18.32 37.31,22.9 88.26,45.01 77.93,30.12 170.2,99.49l77.74 59.24c14.8,11.57 21.69,22.08 36.03,33.13 21.16,-2.37 23.84,-0.65 25.99,-22.07 -54.6,-45.1 -90.07,-82.65 -152.99,-121.29 -33.68,-20.69 -140.43,-92.19 -181.16,-92.71l-102.71 -30.07c5.39,20.19 9.16,13.24 37.68,30.81 7.47,4.6 14.38,8.85 22.03,12.04 10.22,4.26 18.91,5.1 29.88,8.53zm141.52 2753.31c-15.34,-7.36 -21.94,0.42 -38.52,4.29 2.19,26.25 23.89,46.73 29.96,72.79 19.31,-10.22 18.75,-13.13 21.73,-42.5 2.34,-23.09 10.72,-30.12 12.51,-51.7 21.9,1.82 5.8,3.25 25.68,8.56 -0.94,42.34 -29.1,46.97 -29.96,85.64 15.63,-8.27 7.81,-1.84 18.01,-16.24 8.62,-12.16 3.17,-9.27 16.23,-18.02 0,31.27 0.6,45.26 -25.68,51.39 1.72,20.64 6.85,13.61 8.56,34.26 30.17,-8.06 37.09,-39.72 42.8,-64.24 20.73,5.54 4.95,7.31 25.68,12.85 0,-30.39 1.6,-30.83 8.17,-51.93l-8.17 -20.86c-4.74,20.38 -6.41,24.17 -34.24,42.82 0,-60.09 4.2,-42.81 21.4,-68.51 -30.27,-20.28 -23.4,-52.33 -29.98,-111.67 -2.09,-18.85 -2.12,-23.5 -18.36,-14.8 -31.57,16.91 -20.36,30.89 -24.83,70.39 -2.91,25.79 -20.22,42.8 -20.99,77.48zm-821.74 -1126.16l0 0zm883.87 -2029.66c18.31,-3.46 27.41,-8.37 32.03,-25.69 -15.53,-10.41 -12.62,-9.41 -34.83,-12.32 -38.66,-5.06 -18.78,-16.51 -2.38,-54.88 4.83,-11.3 8.82,-23.92 11.53,-35.57 -17.78,4.75 -13.1,8.62 -24.64,22.45 -8.09,9.7 -13.58,16.86 -26.72,20.37l4.28 -107.05c-34.27,9.16 -26.94,61.92 -25.68,77.08 -23.87,6.38 -16.98,24.12 -28.39,44.39 -11.99,21.29 -4.87,4.86 -24.37,14.15 -30.11,14.36 8.36,36.36 -40.74,74.86 -15.11,11.85 -28.71,22.24 -39.18,37.88 17.3,9.16 31.05,14.95 47.08,25.69 -2.34,28.21 -16.44,33.89 -17.12,64.23 15.16,-1.26 11.69,-0.89 20.54,-9.43 9.22,-8.9 6.67,-12.17 17.98,-16.26l0 77.07c13.79,-4.99 21.59,-28.48 28.21,-40.29 5.2,-9.27 16.57,-39.72 18.87,-49.63 21.51,0 22.2,0.48 38.52,4.29l0 -68.52c25.87,-17.33 18.54,-8.11 25.68,-25.67 8.34,2.31 0.06,10.3 14.2,-2.86 7.84,-7.29 4.85,-4.67 5.13,-14.29zm806.7 1542.19c-9.55,5.99 -19.61,26.39 -25.68,37.86 -18.42,-4.29 -53.21,-14.08 -68.48,-21.4 4.84,18.1 7.48,7.92 21.4,34.25 -23.36,11.22 -39.4,6.93 -73.38,12.23 -21.91,3.41 -10.07,-5.44 -20.78,9.18 21.3,1.77 74.51,24.97 107,25.69l-17.12 38.54c19.96,-0.44 53.07,-6.93 72.76,-8.56 12.25,18.29 46.75,62.7 68.48,68.51 11.48,-21.72 20.94,-40.08 34.24,-59.95 20.88,11.06 46.8,19.64 72.76,25.69 -6.1,-22.86 -19.58,-15.68 -25.68,-38.53l128.4 -8.57c-4.49,-3.12 1.52,-0.18 -8.25,-4.59l-113.87 -31.86c-28.22,-7.01 -15.4,-6.86 -14.84,-32.06l-29.96 1.82c-11.3,-10.22 -17.46,-3.42 -33.05,-7.36 -32.12,-8.11 -24.69,-53.49 -65.39,-62.97 -4.32,16.2 -4.38,5.2 -8.56,22.08zm12.84 -244.72c8.94,26.87 16.28,19.34 21.4,38.51 -3.91,16.81 -18.56,40.42 -36.64,44.86 -13.46,3.3 -54.92,-9.53 -66.08,-14.88 2.27,27.27 14.77,13.67 21.4,38.53l-102.72 21.41c28.97,6.75 68.19,20.64 102.72,21.41 -5.96,22.33 -15.44,11.93 -21.4,34.26 31.77,0 20.86,-8.56 77.04,-8.56 26.45,39.52 21.87,39.8 59.92,59.94 6.56,-9.79 10.94,-18.65 18.26,-28.83 7.28,-10.11 13.92,-17.36 20.26,-26.83 32.78,0 50.08,16.33 85.6,17.12 -7.75,-14.65 -1.17,-8.44 -14.71,-19.54 -12.37,-10.15 -10.41,-0.86 -15.25,-18.99 22.32,-0.5 39.27,-7.54 64.22,-8.54 26.98,-1.08 45.35,-6.67 68.46,-8.59l0 -8.57c-24.27,0 -45.33,-5.14 -67.43,-9.61 -18.18,-3.68 -47.59,-11.79 -69.53,-11.79 5.92,-22.2 8.4,-5.88 25.68,-38.54 -26.53,2.21 -59.08,10.64 -85.6,12.84 -8.85,-13.21 -20.44,-28.78 -30.78,-42.07 -20.47,-26.3 -10.43,-23.93 0.82,-49.21l22.44 -18.98c26.09,1.19 59.13,9.66 84.56,11.78 -6.32,-23.68 -17.01,-23.36 -29.96,-37.13 -2.8,-4.36 -2.27,-2.25 -4.1,-9.45 -0.26,-1.02 0.05,-7.32 0.09,-8.74 10.84,-10.64 2.57,-0.32 3.75,-12.84l2.35 -17.48c8.41,-10.11 6.89,-11.47 16.08,-20.48 10.74,-10.54 12.21,-6.94 20.35,-18.06 -33.08,0 -49.94,12.85 -89.88,12.85 -5.31,-19.89 -20.71,-30.05 -25.68,-51.39 -47.23,3.93 -33.27,64.49 -93.72,60 -9.9,-0.74 -36.34,-5.3 -43.24,-8.61 2.23,26.83 10.66,10.05 17.12,34.25l-24.55 12.85c-12.83,0 -26.12,-0.92 -38.69,0.99 -10.38,1.58 -21.62,6.44 -35.2,7.57 16.33,22.29 63.68,13.12 89.88,25.69 -4.33,16.23 -8.37,10.8 -12.84,29.98 26.6,0 43.32,-7.98 64.2,-12.85 10.22,38.31 21.33,25.71 21.4,25.72zm-463.15 -1612.61c4.86,53.84 -0.63,15.75 13.13,50.24l-37.89 -4.86c-15.97,14.38 -16.77,26.61 -44.41,17.93 10.09,-19.22 -1.63,-1.99 16.3,-12.19 27.81,-15.8 5.97,-24.3 14.21,-42.16l38.66 -8.96zm296.23 477.86l0 0zm4.28 -4.28l-4.28 4.28 4.28 -4.28zm4.28 -4.29l-4.28 4.29 4.28 -4.29zm25.37 -274.66c30.27,9.58 22.87,0.52 30.31,25.77 6.86,23.31 12.16,15.91 34.29,14.58l-0.77 16.61c-24.59,13.29 -17.51,-0.05 -35.13,27.17l-60.79 4.03 -14.68 24.25 -10.77 -19.58c-7.63,-14.16 -2.03,-5.39 -14.08,-16.49l16.29 -5.72c2.43,5.6 -10.26,14.47 15.7,14.4 10.82,-29.93 -7.43,-23.09 4.12,-39l21.43 -21.82c2.25,-1.05 1.48,9.8 4.82,-1.24 0.29,-0.96 1.75,-0.12 3.34,-0.22l5.92 -22.74zm85.91 463.07c0,-5.85 -1.3,-4.76 4.28,-2.7l-4.28 2.7zm-12.84 -378.04c-48.82,39.25 -15.03,74.93 -30.37,107.86l-68.07 81.77c4.77,-17.85 29.63,-44.37 44.54,-71.31 26.64,-48.15 -33.9,-8.69 16.15,-82.07 8.84,-12.96 26.02,-35.73 37.75,-43.59l0 7.34zm4.28 -15.9l1.03 -4.28c3.95,5.2 5.46,4.28 -1.03,4.28zm25.68 -32.37l4.28 -1.89c0,6.08 1.13,4.92 -4.28,1.89zm-2056.43 2873.57c15.17,2.48 5.28,2.76 16.81,-2.25 -4.38,-6.81 -0.19,-2.7 -6.33,-8.38 -1.32,-1.23 -5.94,-4.13 -7.18,-4.96 -3.23,7.13 -4.76,5.8 -3.3,15.59zm-1140.68 -1166.94l0 17.12c19.9,-1.65 20.94,-9.59 21.4,-29.97 -13.72,0.3 -21.4,-1.4 -21.4,12.85zm2482.36 1580.05c5.67,21.24 15.84,21.41 34.24,17.12l0 -21.41 -12.84 0c-6.74,0 -16.22,2.28 -21.4,4.29zm-2696.36 -2102.46c11.17,7.48 9.89,9.84 27.14,1.72 14.33,-6.76 15.25,-8.88 15.66,-27.41 -24.93,0.56 -32.59,10.43 -42.8,25.69zm2037.23 2265.17c-4.97,21.87 -9.87,22.18 -1.51,36.65 3.18,-3.94 7.03,-9.84 10.46,-14.8 9.45,-13.66 3.5,-8.4 16.75,-15.37 6.65,-9.99 4.28,-7.35 4.28,-23.61 -20.18,0 -19.15,-0.76 -34.24,-4.28l4.26 21.41zm345.33 -3425.58l-0.35 27.21c23.06,-3.3 18.29,1.03 24.18,-22.03 3.27,-12.86 6.54,-21.47 8.06,-35.16 -8.85,-2.19 -6.93,-0.64 -13.41,-4.28 -8.02,11.98 -12.28,18.19 -18.48,34.26zm-824.66 3147.25c0,21.52 3.85,19.18 4.28,38.54l12.84 0c9.46,-40.62 2.55,-46.32 0,-77.08 -12.62,8.46 -17.12,17.63 -17.12,38.54zm-934.65 -667.39l4.88 -30.57c-6.34,-16.38 -5.24,-11.71 -16.1,-24.15 -15.36,3.78 -15.03,9.47 -23.51,22.05 -8.82,13.07 -11.32,15.23 -14.29,31.83l49.02 0.84zm1974.67 267.74l1.91 9.99c1,-0.87 2.53,-3.48 3.05,-2.58l8.17 -6.58c4.18,-3.59 4.04,-4.25 8.24,-8.06 12.5,-11.31 8.63,-6.53 26.78,-10.56 -0.39,-13.44 2.91,-0.2 -5.03,-7.55 -4.85,-4.48 -1.78,4.45 -8.84,-7.7 -4.85,-8.34 -2.01,-12.17 1.09,-21.2l-9.69 -8.4c-13.3,-4.92 -4.73,-7.51 -13.95,6.83 -20.78,32.34 -34.26,30.37 -31.92,51.19 8.28,-2.94 11.77,-12.24 23.85,-10.62 5.3,27.26 0.42,8.09 -3.66,15.24zm-1181.26 -129.78l-25.68 58.41c-20.23,0 -17.34,-2.76 -32.51,-4.28 0.92,17.2 4.76,14.03 1.04,32.57 -2.6,13 -8.2,15.73 -2.77,25.19 11.18,-4.72 8.9,-12.01 13.2,-23.1l11.37 21.81 17.99 -17.43c-6.68,-23.75 -10.96,-15.4 -0.85,-39.94l20.36 -1.47 18.55 -61.06 -20.7 9.3zm342.39 -3007.49l16.93 68.71c6.17,48.79 10.79,44.58 17.31,72.6 9.33,-6.48 8.56,2.36 8.56,-25.69 0,-24.17 -7.35,-38.33 -11.22,-61.56l-5.9 -66.9c-9.8,0.82 -25.68,3.95 -25.68,12.84zm-1232.62 1898.07c4.95,18.52 20.09,36.47 34.24,45.95 15.29,-4.08 21.73,-14.76 29.96,-25.68 9.27,-12.28 16.11,-17.84 27.41,-29.98l21.5 -12.03c0.64,-0.5 2.09,-0.92 2.54,-2.49 0.46,-1.58 1.73,-1.67 2.47,-2.61 -4.9,-3.5 4.99,-5.99 -19.66,-5.31 -14.58,8.28 -16.71,2.22 -22.99,6.38 -16.21,10.75 10.82,5.34 -18.74,13.55 -15.92,4.42 -39.05,8.01 -56.73,12.22zm-17.12 -853.26l4.93 -25.55c-28.64,-14.61 -96.08,-54.13 -116.21,-55.81 2.12,25.46 23.83,41.18 41.85,52.33 16.43,10.16 46.59,28.52 69.43,29.03zm-419.43 1520.1c5.7,-8.51 7.79,-11.86 12.84,-21.41 -1.47,-0.34 -10.01,-2.26 -10.08,-2.26l-28.44 6.55c13.28,27.69 -16.35,45.92 27.14,31.94 29.69,-9.55 22.87,-22.59 58.46,-23.38 0,26.17 -6.09,49.62 -10.39,75.24 -5.43,32.3 -6.73,45.75 -6.73,83.19 13.23,-4.79 14.31,-9.68 21.63,-38.3 5.46,-21.33 2.05,-31.39 4.51,-55.44 3.5,-34.26 68.55,-149.23 -26.02,-90.26 -41.54,25.9 -19.61,27.91 -42.92,34.13zm3485.03 21.41c2.71,10.08 -4.53,5.06 11.17,13.27 5.02,2.62 10.04,3.2 16.23,5.16 17.99,5.68 18.56,6.78 23.56,24.39 8.02,14.48 44.31,50.66 59.22,59.88l76.14 43.73c81.25,54.29 62.14,67.91 89.48,90.32 12.75,10.46 29.48,13.19 44.03,20.17 -6.61,-24.76 -35.7,-26.42 -50.7,-60.88l-3.68 -16.78c-1.93,-6.39 3.37,0.48 -3.31,-6.38l-47.59 -29.01c-23.98,-16.09 -44.54,-26.84 -68.54,-42.75 -41.9,-27.77 -44.22,-40.57 -61.57,-53.17 -18.84,-13.77 -49.36,-63.03 -85.6,-57.14l1.16 9.19zm-910.82 616.61c0,52.07 -16.15,46.37 -35.6,72.88l3.15 12.76c1.57,22.23 31.35,89.71 43.32,98.48l0 -107.05c10.67,3.87 11.85,9.49 22.35,20.47 11.29,11.8 10.8,10.7 24.73,18.07 -0.71,-32 -19.22,-50.88 -29.96,-73.68 -27.38,-14.16 -33.45,-29.99 -8.56,-54.32 14.84,2.77 23.31,10.74 29.08,27.88l39.03 4.4 -1.5 -15.61c-15.9,-11.37 -17.05,-13.58 -31.27,-26.79 -13.52,-12.57 -18.76,-16.03 -43.9,-16.03 -7.98,11.92 -14.05,18.69 -10.87,38.54zm-2105.16 -1155.09l-11.1 2.28c-3.96,2.45 -22.75,55.32 -46.21,16.63 15.22,-23.13 5.51,-56.51 53.09,-43.72l4.22 24.81zm986.13 1219.32l-5.19 77c-0.04,11.99 3.31,8.41 9.47,12.92 3.06,-13.15 6.72,-22.17 11.19,-35.9 5.28,-16.22 5.44,-22.2 14.49,-32.61 0,36.23 -25.38,55.66 0,55.66 32.27,0 17.12,-71.95 17.12,-89.92 8,-2.48 -6.41,-10.74 8.56,12.85 0,-43.74 17.3,-49.66 25.68,-85.64 31.06,2.59 17.59,10.53 35.13,29.07 5.5,5.81 6.19,5.61 11.95,9.47 20.36,-30.43 21.7,-43.63 -29.96,-55.67 0,-25.41 3.85,-36.72 4.28,-55.67 -13.29,3.1 -12.4,5.47 -25.68,8.57 -1.75,-21.02 -12.84,-25.84 -12.84,-38.54 0,-22.41 6.5,-6.35 0,-34.25l-13.12 55.39c-5.35,38.5 -2.47,84.34 -18.57,127 -14.43,38.21 -10.8,39.78 -32.51,40.27zm1767.61 -1033.08l-94.16 5.4c12.04,16.44 91.75,42.48 107,42.82 -1.73,20.86 -0.13,4.7 -5.76,20.57 -17.38,48.97 40.19,-14.18 81.62,36.28 17.53,21.35 31.66,51.9 61.1,58.77 1.41,-16.97 12.68,-36.59 17.12,-55.67 27.44,6.4 54.85,23.49 81.32,25.69l-34.24 -34.32c-48.51,-26.4 -149.25,-68.85 -201.48,-84.05 7.96,-24.74 10.95,-5.26 11.72,-25.25 -15.99,-1.01 -13.55,2.36 -24.24,9.76zm-683.25 -2366.54c-22.59,-12.62 -23.49,-19.65 -14.4,-47.4 5.43,14.21 11.71,4.6 21.04,19.79l-6.64 27.61zm-121.4 46.1c0.47,-21.07 26.69,-44.62 41.08,-54.28l0.31 -0.21 0.72 -0.47c0.59,1.89 -0.22,1.47 -1.03,0.68 -1.14,-1.11 -2.3,-2.94 0.31,-0.21 0.75,0.77 1.8,1.92 3.24,3.56 15.37,17.43 30.28,15.26 49.55,8.81 7.42,13.91 43.84,29.77 4.42,38.7 1.36,-20.3 3.22,-19.74 -8.7,-32.65 -20.21,1.42 -8.09,-9.36 -17.14,11.12 -29.03,-23.41 -49.86,-16.8 -55.62,25.45l-13.52 2.24 -3.62 -2.74zm1275.47 1567.91l0.17 25.74c-13.52,-2.23 -15.99,-8.38 -22.71,-15.62 9.99,-0.96 16.35,-9.05 22.54,-10.12zm29.56 -265.46c2.52,-18.67 11.7,-25.13 44.78,-28.33 -5.78,13.13 -9.08,13.98 -13.75,24.77l-9.26 26.27c-3.82,-5.18 -8.71,-4.05 0.7,-22.94 -16.68,3.97 -14.85,4.1 -22.47,0.23zm-1519 -894.94l12.84 0c-0.38,-16.82 1.17,-10.04 -4.28,-21.41 -19.14,5.12 -12.35,5.14 -8.56,21.41zm487.91 3202.93c-3.34,-6.96 -9.95,-34.89 -22.31,-22.53 -4.88,4.89 -1.89,12.55 1.86,16.82 7.89,8.99 5.74,5.38 20.45,5.71zm-71.85 -3652.53l-18.03 -8.57c3.05,-13.09 6.66,-16.46 12.84,-25.69 -7.5,-14.18 -4.34,-17.5 -22.21,-21.41 -7.07,34.3 -14.27,64.02 27.67,68.92l-0.27 -13.25zm-1699.2 1096.18c5.13,3.49 -2.78,2.05 6.37,1.95l39.86 -1.95c-4,-14.99 -12.75,-20.43 -34.24,-29.04l-19.13 -11.83c-13.9,-6.34 -9.96,4.5 -15.1,-14.79l-8.57 0c-2.48,29.92 -52.17,54.75 38.52,102.76 -4.85,-20.82 -11.14,-18.99 -29.95,-47.1l22.24 0zm1364.46 -854.16c0.53,19.21 8.1,32.91 8.56,53.43 24.67,-6.59 11.36,-16.17 29.84,-29.97l3.8 -25.6c-8.83,-6.01 -11.75,6.32 -18.68,-16.1 -7.11,16.53 -6.14,12.62 -23.52,18.24zm-1091.61 3517.56c4.56,15.6 3.29,7.1 11.26,18.94 4.95,7.34 6.76,12.79 10.36,19.59 19.43,-0.43 30.1,-5.81 38.7,-17.12l-1.55 -22.49 -28.64 18.11 3.29 -25.23c-15.37,5.5 -12.64,1.59 -30.52,-2.24l-2.9 10.44zm2456.91 -1840.43l0 11.49c17.78,-0.04 19.09,1.44 37.23,-0.46 34.55,-3.64 7.36,6.74 39.57,10.87l31.66 6.05c20.71,2.49 8.02,2.54 15.59,-3.08 -7.54,-11.29 -28.19,-21.48 -41.89,-26.66 -40.23,-15.2 -25.03,-15.17 -56.07,-16.52 10.81,-16.39 8.96,-0.06 19.65,-21.05 -2.85,-2.87 -6.07,-8.16 -19.27,-7.41 -4.28,0.24 -17.33,4.47 -23.11,7.41 -0.1,6.35 0.8,16.38 0.53,21.58l-3.89 17.78zm-2670.96 1681.99l-3.04 21.35 7.59 4.37c12.2,-6.48 71.48,-89.26 87.41,-109.55 8.44,-10.74 27.08,-26.45 24.06,-44.56 -7.75,-46.44 -49.76,28.2 -63.42,43.72 -15.58,17.69 -49.67,58.09 -52.6,84.67zm2735.16 -2703.37l-1.44 1.44c-4.51,12.82 -0.2,7.35 -11.41,11.7l-4.27 -3.13 -4.29 4.28c-3.72,13.97 -5.63,11.07 -14.58,23.95l-40.6 62.3c-5.71,16.38 -2.71,7.31 -0.48,16.52 -2.39,20.8 -3.4,9.07 8.59,15.33 18.48,-14.6 2.66,-10.57 8.88,-26.04 2.25,-5.6 8.49,-8.26 11.98,-18.5l27.46 10.18 -8.16 -12.39c-4.57,-7.67 -3.39,-1.43 -5.69,-12.51 14.39,-12.27 13.09,-14.97 38.23,-12.13 35.04,3.98 8.14,16.48 41.67,11.67l15.38 3.87c17.44,-8.49 2.58,-0.85 20.46,4.06l12.16 2.2 -0.21 17.13c10.18,-10.73 16.99,-16.53 11.15,-35.89l-17.87 -36.91c-4.11,-18.91 -5.55,-17.52 -14.71,-29.5l-14.97 -18.98c-6.72,-7.29 -1.96,-2.31 -5.92,-5.82 -24.3,-0.53 -28.5,16.94 -51.36,27.17zm-783.41 -37.1c-9.86,26.04 -8.23,0.59 -21.4,46.44 -6.15,21.41 -17.27,26.43 -17.59,52.05l25.33 11.19c-15.39,16.2 -12.3,-0.24 -19.58,20.03 -4.56,12.68 -1.03,29 0.42,42.22 12.42,-2.99 15.58,-9.13 28.72,-17.73 8.75,-4.69 11.88,-14.36 18.75,-24.04 10.97,-15.44 12.18,-15.87 32.61,-21.63 3.84,-3.52 17.57,-22.74 19.92,-26.1 -23.43,-30.86 -14.48,-26.07 5.61,-44.11l-9.42 -21.19c13.1,-11.12 12.72,-8.18 11.97,-31.23l-18.52 -7.37 17.15 -12.79 -2.39 -24.92c-13.55,8.83 -10.11,5.9 -28.6,2.14 -14.49,8.48 -8.66,28.07 -42.98,57.04zm-397.86 1507.26l0 0zm0.95 -1635.72c9.63,-6.2 25.3,-15.38 33.29,-19.36 11.38,7.71 16.57,17 25.23,27.93 -8.31,10.02 -11.59,8.66 -22.43,15.05l11.72 29.81 32.56 0.64c6.72,-9.89 14.01,-23.59 17.12,-36.94 9.32,4.48 24.62,8.26 38.52,8.57l0 -55.67c17.58,-9.31 31.97,-23.87 48.42,-37.19 25.91,-20.97 39.84,-24.71 41.46,-44.17 -13.19,-6.33 -15.71,-4.28 -34.26,-4.28l-5.72 21.04c-18.76,-5.82 -3.18,-7.8 -21.67,-5.28 -12.8,1.75 -10.82,4.51 -27.52,5.24 2.16,-31.78 9.16,-24.49 -1.41,-54.13 -7.62,-21.36 -2.85,-37.3 -16.42,-47.34 -9.57,9.36 -31.73,56.85 -34.24,67.62 -29.16,0 -19.89,-6.65 -42.8,-8.56 0,48.45 20.17,48.61 -15.92,82.56 -25.14,23.65 -38.97,20.68 -56.84,54.46l30.91 0zm-189.26 1053.37l0 0zm1461.06 981.41c5.52,13.02 40.74,58.64 57.82,41.4 15.78,-15.93 -40.37,-38.65 -57.82,-41.4zm66.87 -73.63c16.49,11.05 24.44,16.14 47.08,21.41 5.37,-10.14 9.93,-17.46 12.84,-29.97 -15.95,-3.72 -23.15,-12.46 -36.54,-14.55 -19.23,-2.99 -16.79,9.39 -23.38,23.11zm-2401.04 -1982.56c0,19.78 -0.49,34.2 17.12,47.11 10.36,-19.61 8.51,-31.36 12.92,-55.74 4.3,-23.78 8.35,-40.21 -17.2,-47.03 -10.29,15.37 -12.84,30.08 -12.84,55.66zm-1074.27 2663.4c1.67,20.06 15.17,25.84 26.74,37.48 13.38,13.46 17.15,22.01 37.46,26.75 6.01,-25.82 21.4,-37.09 21.4,-72.8 -20.83,0.47 -22.17,5.97 -38.97,8.11 -12.85,1.64 -33.01,0.46 -46.63,0.46zm1866.06 -1916.94c-3.88,5.68 -3.86,7.68 -7.16,12.78l-9.96 12.3c-12.13,-16.28 -8.01,-18.04 -31.12,-22.49 5.2,17.06 16.39,35.91 19.69,46.22 4.49,14.02 -6.53,43.96 15.71,18.5 0.67,0.77 1.27,1.27 1.57,2.64 0.31,1.37 1.25,2.1 1.72,2.56l7.35 6.37c1.2,0.58 2.27,0.95 3.58,1.43 7.01,2.51 5.87,1.72 13.9,2.35 -1.66,-19.81 -3.66,-21.07 -7.55,-36.79 -5.13,-20.72 -0.08,-8.37 6.22,-29.63l19.49 13.43 11.05 -47.08c4.64,-12.89 7.01,-1.35 4.39,-13.6 -2.35,-10.99 -6.78,-8.17 -16.17,-10.51 -11.6,34.21 10.18,47.75 -32.71,41.52zm-697.63 -519.51c0,22.72 -10.17,61.8 52.18,22.24 18.63,-11.81 17.47,-13.68 46.26,-13.68 8.03,-16.75 -1.3,-11.04 12.83,-21.41l0 12.85c52.26,-1.17 60.88,-42.29 13.7,-34.03 -14.5,2.53 -27.54,5.14 -42.1,9.9 -26.38,8.62 -57.15,18.13 -82.87,24.13zm1810.41 2393.63l-3.78 -4.79c-2.41,-2.49 -1.16,-2.72 -6.49,-6.34 -7.82,-5.32 -8.7,-5.08 -19.69,-6 1.26,15.21 20.34,71.11 29.93,81.39 8.8,9.43 11.08,4.19 12.87,25.66 16.85,-6.1 0.47,-0.64 17.12,-12.85 2.73,11.75 5.66,16.24 11.14,27.4 7.9,16.07 3.35,15.58 18.82,19.71 6.75,-29.01 -17.37,-83.64 -34.28,-107.39 -11.56,-16.25 0.05,-6.09 -4.27,-21.22 -0.02,-0.08 -4.81,-9.8 -5.6,-10.94 -5.75,-8.25 -8.79,-9.93 -15.77,-14.61l0 29.98zm-2790.52 -158.43c-14.95,10.01 -17.23,13.99 -25.68,29.97 16.8,-3.92 25.74,-7.75 39.86,-16.01 28.94,-16.93 12.6,-7.85 41.46,-1.12 1.93,-8.27 5.61,-22.09 9.22,-29.31 14.31,-28.61 33.48,-15.81 -5.98,-55.29 -10.42,-10.42 -14.47,-18.59 -28.92,-22.45 -3.97,14.87 -26.55,41.14 -34.7,68.47 -7.07,23.7 -1.86,1.01 4.74,25.74zm1442.34 -2723.35c0,64.41 18.29,61.12 21.4,98.49 22.03,-14.76 4.71,-7.5 29.96,-12.85 -1.42,-17.01 -4.28,-10.31 -4.28,-21.41 0,-19.46 12.39,-13.43 3.33,-45.83 -25.31,-90.47 -3.33,-63.77 -3.33,-78.34 0,-41.73 -8.56,-70.45 -8.56,-107.05l-4.28 0c0,26.27 -2.84,18.59 -9.24,37.85 -6.16,18.5 -1.27,26.34 -4.06,47.33 -2.52,19.04 -20.94,44.36 -20.94,81.81zm-1077.81 2980.27c2.72,-18.58 9.66,-10.68 11.92,-35.87l-12.66 1.59 -29.96 17.15c4.35,-18.67 12.78,-24.16 17.13,-42.82 -15.44,-23.07 -18.26,-28.29 -38.52,-29.98 -7.38,31.67 0.34,45.4 -1.78,67.19 -3.64,37.3 -20.54,27.45 -32.58,82.73l-1.69 7.21c-0.3,1.15 -0.75,2.26 -1.06,3.36 -18.9,67.89 13.86,-14.03 -10.53,35.43 -6.08,12.33 -3.72,23.12 -3.72,39.59 17.28,-12.67 2.24,-2.04 11.19,-18.77 11.68,-21.83 -2.52,-1.68 16.38,-13.59 22.51,-14.18 0.1,-5.65 22.79,-41.43l37.79 -52.06c11.03,-11.29 9.1,-2.08 15.3,-19.73zm2676.55 -1168.99c-9.68,9.9 -16.53,45.94 -2.32,72.8 -18.32,12.27 -30.78,46.68 -34.02,73.5 -4.61,38.24 -1.39,23.82 35.15,44.56 1.56,0.89 8.45,10.27 8.2,-2.53 -0.02,-0.74 0.02,-4.13 -0.12,-5.27 -2.14,-17.67 -9.21,-23.19 -9.21,-50.32 12.37,9.08 8.56,3.49 8.56,25.7 23.79,0 25.14,-2.66 25.68,21.4l8.56 0c1.52,-18.26 7.04,-20.26 8.56,-38.53 13.23,8.86 9.5,12.81 25.67,17.13l0 -29.98c-19.47,-13.05 -23.74,-6.24 -38.59,-25.62 -24.71,-32.26 -19.11,-5.86 -34.16,-34.33 8.39,-4.02 30.2,-8.28 42.79,-8.56 -9.99,-42.92 16.33,-28.33 17.13,-64.23 -36.35,0 -17.43,-1.17 -40.76,-12.84 5.74,31.64 10.13,15.5 9.92,36.91 -10.24,-7.33 -12.53,-9.55 -30.1,-10.05l-0.94 -9.74zm192.74 -199.74l32.08 -2.85 -2.67 44.96c17.54,-2.12 14.8,1.29 23.76,-9.39 4.12,17.55 4.85,10.01 8.56,14.19 12.54,-3.41 11.69,-2.96 22.92,-3.83 9.85,-0.76 12.61,-1.75 25.22,-3.27l-8.45 27.19c23.81,0 25.91,4.28 50.19,4.28 7.53,-11.24 9.87,-11.98 17.12,-25.69 21.5,0 22.2,-0.48 38.52,-4.28 9.81,-21.21 -11.57,-12.74 10.31,-19.61 17.03,-5.35 22.23,4.7 30.47,-8.13 0.93,-1.46 1.58,-4.04 2.02,-7.2l0 -27.95 -0.14 -1.04c-1.16,-7.67 -0.95,-8.96 -5.79,-15.78 -0.73,-1.03 -3.29,-3.6 -4.12,-4.44l-7.07 -5.77c-38.58,8.99 -7.91,5.24 -29.96,21.41 -5.47,-15.13 -31.53,-24.74 -45.56,-31.49 -94.85,-45.62 -89.49,4.22 -46.03,11.83 22.63,3.95 6.87,-3.53 29,0.88 11.75,2.34 20.19,7.32 32.63,10.21 1.33,15.97 3.72,12.07 4.66,30.28 1.09,21.35 2.06,21.61 -8.94,29.67 -2.93,-12.6 -4.28,-13.07 -4.28,-29.97 -9.77,0.21 -6.63,-1.3 -14.69,2.42l-10.99 10.42c-4.15,-17.83 -8.21,-21.13 -21.4,-29.97 -13.15,9.64 -6.9,-2.76 -8.56,17.13 -10.47,-7.68 -9.21,-5.83 -12.84,-21.41 -16.08,11.78 -2.86,9.77 -8.56,34.25 -21.97,-16.1 3.11,-41.59 -14.16,-48.73 -11.13,-4.61 -9.35,4.21 -11.52,10.2 -11.24,-7.54 -11.98,-9.88 -25.68,-17.13l0 29.97 -13.48 -34.04c33.41,-0.57 38.57,-0.62 47.72,-20.2 -24.97,-1.72 -79.68,5.44 -94.16,0.49 0.9,0.25 2.38,-1.12 2.43,-1.38 2.36,-12.3 3.55,-7.52 -6.71,-12.98 -8.36,10.87 -8.4,15.14 -8.53,29.57 -11.7,0.48 -30.54,6.54 -12.89,12.85l0 -25.67c-3.5,-2.17 -36.52,-36.43 -48.24,17.1 12.76,8.16 17.48,-7.06 21.53,8.57 -47.45,11.42 46.44,29.86 53.21,31.38 27.08,6.11 5.67,-3.15 23.07,12.95zm6.09 -429.71c1.25,-14.97 0.89,-12.58 8.56,-21.41 -0.12,5.74 0.87,6.14 -1.22,11.62l-7.34 9.79zm-530.71 1648.57l17.12 34.25c-9.83,-6.59 -8.6,-8.18 -25.68,-8.56 3.1,-13.29 5.47,-12.41 8.56,-25.69zm115.56 -17.13l0 0zm12.84 -55.67l-12.84 -21.41c8.31,2.21 6.62,0.79 12.84,4.28l0 17.13zm-12.84 -21.41l0 0z"/>
 </g>
</svg>
