<?xml version="1.0" encoding="UTF-8"?>
<!DOCTYPE svg PUBLIC "-//W3C//DTD SVG 1.1//EN" "http://www.w3.org/Graphics/SVG/1.1/DTD/svg11.dtd">
<!-- Creator: CorelDRAW 2017 -->
<svg xmlns="http://www.w3.org/2000/svg" xml:space="preserve" width="4.8258mm" height="4.8258mm" version="1.1" style="shape-rendering:geometricPrecision; text-rendering:geometricPrecision; image-rendering:optimizeQuality; fill-rule:evenodd; clip-rule:evenodd"
viewBox="0 0 482.58 482.58"
 xmlns:xlink="http://www.w3.org/1999/xlink">
 <defs>
  <style type="text/css">
   <![CDATA[
    .str2 {stroke:white;stroke-width:7.62;stroke-miterlimit:22.9256}
    .str1 {stroke:white;stroke-width:7.5;stroke-linecap:round;stroke-linejoin:round;stroke-miterlimit:22.9256}
    .str0 {stroke:white;stroke-width:7.5;stroke-linecap:round;stroke-linejoin:round;stroke-miterlimit:22.9256}
    .fil3 {fill:none}
    .fil5 {fill:none;fill-rule:nonzero}
    .fil4 {fill:#282828}
    .fil6 {fill:#015C8B}
    .fil2 {fill:white}
    .fil0 {fill:#282828;fill-rule:nonzero}
    .fil1 {fill:url(#id0)}
   ]]>
  </style>
  <linearGradient id="id0" gradientUnits="userSpaceOnUse" x1="291.1" y1="182.95" x2="297.95" y2="487.65">
   <stop offset="0" style="stop-opacity:1; stop-color:#015C8B"/>
   <stop offset="1" style="stop-opacity:1; stop-color:#0098DA"/>
  </linearGradient>
 </defs>
 <g id="Capa_x0020_1">
  <metadata id="CorelCorpID_0Corel-Layer"/>
  <g>
   <path class="fil0" d="M241.3 22.82l0 -20 0 0 12.26 0.31 12.11 0.92 11.93 1.51 11.74 2.1 11.54 2.66 11.33 3.22 11.08 3.75 10.84 4.27 10.56 4.78 10.28 5.27 9.99 5.74 9.68 6.2 9.34 6.65 9.01 7.08 8.65 7.49 8.28 7.9 7.89 8.27 7.5 8.65 7.08 9.01 6.65 9.35 6.2 9.68 5.74 9.99 5.27 10.28 4.77 10.56 4.28 10.83 3.75 11.09 3.22 11.32 2.66 11.55 2.1 11.74 1.51 11.93 0.92 12.11 0.31 12.26 -20 0 -0.29 -11.26 -0.84 -11.09 -1.39 -10.93 -1.92 -10.76 -2.44 -10.57 -2.94 -10.36 -3.43 -10.15 -3.92 -9.91 -4.37 -9.68 -4.83 -9.42 -5.26 -9.15 -5.68 -8.86 -6.09 -8.57 -6.48 -8.25 -6.88 -7.93 -7.23 -7.59 -7.6 -7.24 -7.93 -6.87 -8.25 -6.48 -8.56 -6.09 -8.86 -5.68 -9.15 -5.26 -9.42 -4.83 -9.68 -4.38 -9.92 -3.91 -10.14 -3.43 -10.37 -2.94 -10.56 -2.44 -10.76 -1.92 -10.93 -1.39 -11.09 -0.84 -11.26 -0.29 0 0zm-218.48 218.47l-20 0 0 0 0.31 -12.26 0.92 -12.11 1.51 -11.93 2.1 -11.74 2.66 -11.55 3.22 -11.32 3.75 -11.09 4.28 -10.83 4.77 -10.56 5.27 -10.28 5.74 -9.99 6.2 -9.68 6.65 -9.35 7.09 -9.01 7.49 -8.65 7.89 -8.27 8.28 -7.9 8.65 -7.49 9.01 -7.08 9.35 -6.65 9.68 -6.2 9.99 -5.74 10.28 -5.27 10.56 -4.78 10.83 -4.27 11.09 -3.75 11.32 -3.22 11.55 -2.66 11.74 -2.1 11.93 -1.51 12.11 -0.92 12.26 -0.31 0 20 -11.26 0.29 -11.09 0.84 -10.93 1.39 -10.76 1.92 -10.57 2.44 -10.36 2.94 -10.15 3.43 -9.91 3.91 -9.68 4.38 -9.42 4.83 -9.15 5.26 -8.86 5.68 -8.57 6.09 -8.25 6.48 -7.93 6.87 -7.6 7.24 -7.23 7.59 -6.87 7.93 -6.49 8.25 -6.09 8.57 -5.68 8.86 -5.26 9.15 -4.83 9.42 -4.37 9.68 -3.92 9.91 -3.43 10.15 -2.94 10.36 -2.44 10.57 -1.92 10.76 -1.39 10.93 -0.84 11.09 -0.29 11.26 0 0zm218.48 218.48l0 20 0 0 -12.26 -0.31 -12.11 -0.92 -11.93 -1.51 -11.74 -2.1 -11.55 -2.66 -11.32 -3.22 -11.09 -3.75 -10.83 -4.27 -10.56 -4.78 -10.28 -5.27 -9.99 -5.74 -9.68 -6.2 -9.35 -6.65 -9.01 -7.08 -8.65 -7.49 -8.28 -7.9 -7.89 -8.27 -7.49 -8.65 -7.09 -9.02 -6.65 -9.34 -6.2 -9.68 -5.74 -9.99 -5.27 -10.28 -4.77 -10.56 -4.28 -10.84 -3.75 -11.09 -3.22 -11.32 -2.66 -11.54 -2.1 -11.74 -1.51 -11.94 -0.92 -12.11 -0.31 -12.26 20 0 0.29 11.26 0.84 11.09 1.39 10.94 1.92 10.76 2.44 10.56 2.94 10.36 3.43 10.15 3.92 9.92 4.37 9.68 4.83 9.42 5.26 9.15 5.68 8.86 6.09 8.56 6.49 8.26 6.87 7.93 7.23 7.59 7.6 7.24 7.93 6.87 8.25 6.48 8.57 6.09 8.86 5.68 9.15 5.26 9.42 4.83 9.68 4.38 9.91 3.91 10.15 3.43 10.36 2.94 10.57 2.44 10.76 1.92 10.93 1.39 11.09 0.84 11.26 0.29 0 0zm218.47 -218.48l20 0 0 0 -0.31 12.26 -0.92 12.11 -1.51 11.94 -2.1 11.74 -2.66 11.54 -3.22 11.32 -3.75 11.09 -4.28 10.84 -4.77 10.56 -5.27 10.28 -5.74 9.99 -6.2 9.68 -6.65 9.34 -7.08 9.02 -7.5 8.65 -7.89 8.27 -8.28 7.9 -8.65 7.49 -9.01 7.08 -9.34 6.65 -9.68 6.2 -9.99 5.74 -10.28 5.27 -10.56 4.78 -10.84 4.27 -11.08 3.75 -11.33 3.22 -11.54 2.66 -11.74 2.1 -11.93 1.51 -12.11 0.92 -12.26 0.31 0 -20 11.26 -0.29 11.09 -0.84 10.93 -1.39 10.76 -1.92 10.56 -2.44 10.37 -2.94 10.14 -3.43 9.92 -3.91 9.68 -4.38 9.42 -4.83 9.15 -5.26 8.86 -5.68 8.56 -6.09 8.25 -6.48 7.93 -6.87 7.6 -7.24 7.23 -7.59 6.88 -7.93 6.48 -8.26 6.09 -8.56 5.68 -8.86 5.26 -9.15 4.83 -9.42 4.37 -9.68 3.92 -9.92 3.43 -10.15 2.94 -10.36 2.44 -10.56 1.92 -10.76 1.39 -10.94 0.84 -11.09 0.29 -11.26 0 0z"/>
   <path id="1" class="fil1" d="M469.77 241.29c0,-126.18 -102.3,-228.47 -228.47,-228.47 -126.18,0 -228.48,102.29 -228.48,228.47 0,126.19 102.3,228.48 228.48,228.48 126.17,0 228.47,-102.29 228.47,-228.48z"/>
  </g>
  <path class="fil2" d="M214.87 135.75c1.16,2.93 -1.79,5.29 -3.51,15.55 -1.76,10.47 -1.86,21.16 -0.55,31.94 1.76,14.42 9.81,41.63 16.7,51.02 5.05,-3 11.44,-10.28 16.5,-14.41 2.85,-2.32 5.27,-4.91 8.14,-7.23l96.82 -87.05c2.65,-2.15 5.12,-4.55 7.41,-6.91 -25.84,-16.72 -57.18,-30.28 -96.1,-22.43 -0.29,-0.04 -0.63,-0.21 -0.99,-0.46 -18.36,12.7 -30.01,22.88 -44.42,39.98z"/>
  <path class="fil2" d="M55.28 249.64c-0.99,0.96 -0.27,-0.24 -1.16,1.64 -0.23,0.46 -0.59,1.77 -0.63,1.94 -0.49,2 -0.59,3.36 -0.7,5.39 -0.05,13.87 11.46,24.18 28.28,21.16l28.44 28.21c9.35,9.58 18.81,18.4 28.12,28.03l28.09 28.09c3.58,3.47 59.67,53.13 60.63,55.41 -14.35,0.02 -35.28,-2.13 -45.71,4.62 -9.77,6.32 -18.15,11.42 -18.61,22.61 69.02,23.78 127.75,16.1 178.48,-12.64 -14.39,-14.01 -26.15,-14.59 -51.32,-14.59 -6.55,0 -44.1,0.87 -46.75,-0.59 -0.6,-0.36 -5.22,-5.03 -6.08,-5.95l-133.6 -127.67c-3.65,-3.75 -8.46,-7.61 -11.41,-11.72 2.03,-4.47 5.04,-6.53 5.31,-14.03 0.27,-7.32 -2.19,-10.11 -4.61,-14.73 9.47,-10.37 19.48,-19.46 28.84,-29.05l58.11 -58.21c6.04,-5.95 16.41,-16.76 23.81,-24.01 -2.57,-3.15 -4.75,-6.17 -6.46,-9.23 -0.9,0.86 -1.83,1.73 -2.73,2.62l-22.63 22.61c-5.24,5.03 -9.07,9.56 -14.67,14.75 -5.31,4.91 -8.9,9.03 -14.74,14.66l-59.18 58.99c-9.82,-1.79 -9.17,-1.79 -18.05,1.31 -1.02,0.55 -0.97,0.3 -2.23,1.35 -1.74,1.48 -0.78,0.58 -1.6,1.97 -1.02,0.5 -0.74,0.24 -1.85,1.23 -0.83,0.75 -1.05,1.06 -1.61,1.76 -1.31,1.68 -1.56,1.92 -1.78,4.07z"/>
  <path class="fil2" d="M263.98 209.23c49.7,1.89 66.41,-48.24 63.17,-57.23l-15.98 14c-2.78,2.64 -4.76,4.2 -7.71,6.99 -9.14,8.67 -23.5,20.34 -32.16,28.67 -2.82,2.69 -7.01,5.68 -7.32,7.57z"/>
  <path class="fil2" d="M336.9 217.89c-6.22,3.99 0.02,8.36 7.85,17.53 9.36,10.98 11.42,16.39 16.37,10.47 -0.61,-4.62 -7.23,-10.64 -10.99,-15.04 -4.05,-4.74 -9.12,-12.16 -13.23,-12.96z"/>
  <path class="fil2" d="M379.77 191.99c1.93,0.71 19.16,9.02 16.78,0.31 -0.85,-3.14 -15.1,-7.08 -18.55,-8.33 -12.72,-4.57 -15.25,-6.94 -17.56,-0.75 2.21,3.62 6.15,4.25 9.61,5.39 3.28,1.08 6.57,2.23 9.72,3.38z"/>
  <path class="fil2" d="M400.14 127.67c-2.13,-1.62 -16.99,2.06 -20.26,2.61 -2.89,0.49 -13.37,1.51 -14.87,4.07 -0.77,1.28 -0.73,3.26 1.02,4.69 1.62,1.32 15.98,-2.07 20.03,-2.8 2.96,-0.53 21.99,-2.52 14.08,-8.57z"/>
  <path class="fil2" d="M298.87 242.09c-1.15,-5.19 -6.91,-5.05 -7.19,-0.19l5.42 29.87c1.38,5.77 6.98,4.25 7.08,0.06l-3.55 -20.23c-0.48,-3.2 -1.11,-6.61 -1.76,-9.51z"/>
  <path class="fil2" d="M247.1 234.81c-2.54,2.04 -12.93,31.12 -12.2,33.13 0.79,2.2 2.85,3.03 4.61,2.15 2.37,-1.21 6.77,-15.64 7.96,-18.88 4.83,-13.14 6.92,-15.93 -0.37,-16.4z"/>
  <path class="fil2" d="M210.52 134.59c10.81,-12.03 8.22,-11.29 22.39,-23.9 9.11,-8.1 16.66,-12.6 26.03,-19.37 -9.28,-10.53 -14.06,-15.78 -25.6,-17.98 -7.24,-1.38 -18.32,0.31 -26.78,7.85 -8.55,7.62 -11.29,17.54 -10.98,25.73 0.44,10.69 5.87,17.7 14.94,27.67z"/>
  <g>
   <path class="fil3 str0" d="M214.87 135.75c1.16,2.93 -1.79,5.29 -3.51,15.55 -1.76,10.47 -1.86,21.16 -0.55,31.94 1.76,14.42 9.81,41.63 16.7,51.02 5.05,-3 11.44,-10.28 16.5,-14.41 2.85,-2.32 5.27,-4.91 8.14,-7.23l96.82 -87.05c2.65,-2.15 5.12,-4.55 7.41,-6.91 -25.84,-16.72 -57.18,-30.28 -96.1,-22.43 -0.29,-0.04 -0.63,-0.21 -0.99,-0.46 -18.36,12.7 -30.01,22.88 -44.42,39.98z"/>
   <path id="1" class="fil4" d="M214.87 135.75c1.16,2.93 -1.79,5.29 -3.51,15.55 -1.76,10.47 -1.86,21.16 -0.55,31.94 1.76,14.42 9.81,41.63 16.7,51.02 5.05,-3 11.44,-10.28 16.5,-14.41 2.85,-2.32 5.27,-4.91 8.14,-7.23l96.82 -87.05c2.65,-2.15 5.12,-4.55 7.41,-6.91 -25.84,-16.72 -57.18,-30.28 -96.1,-22.43 -0.29,-0.04 -0.63,-0.21 -0.99,-0.46 -18.36,12.7 -30.01,22.88 -44.42,39.98z"/>
  </g>
  <g>
   <path class="fil3 str0" d="M55.28 249.64c-0.99,0.96 -0.27,-0.24 -1.16,1.64 -0.23,0.46 -0.59,1.77 -0.63,1.94 -0.49,2 -0.59,3.36 -0.7,5.39 -0.05,13.87 11.46,24.18 28.28,21.16l28.44 28.21c9.35,9.58 18.81,18.4 28.12,28.03l28.09 28.09c3.58,3.47 59.67,53.13 60.63,55.41 -14.35,0.02 -35.28,-2.13 -45.71,4.62 -9.77,6.32 -18.15,11.42 -18.61,22.61 69.02,23.78 127.75,16.1 178.48,-12.64 -14.39,-14.01 -26.15,-14.59 -51.32,-14.59 -6.55,0 -44.1,0.87 -46.75,-0.59 -0.6,-0.36 -5.22,-5.03 -6.08,-5.95l-133.6 -127.67c-3.65,-3.75 -8.46,-7.61 -11.41,-11.72 2.03,-4.47 5.04,-6.53 5.31,-14.03 0.27,-7.32 -2.19,-10.11 -4.61,-14.73 9.47,-10.37 19.48,-19.46 28.84,-29.05l58.11 -58.21c6.04,-5.95 16.41,-16.76 23.81,-24.01 -2.57,-3.15 -4.75,-6.17 -6.46,-9.23 -0.9,0.86 -1.83,1.73 -2.73,2.62l-22.63 22.61c-5.24,5.03 -9.07,9.56 -14.67,14.75 -5.31,4.91 -8.9,9.03 -14.74,14.66l-59.18 58.99c-9.82,-1.79 -9.17,-1.79 -18.05,1.31 -1.02,0.55 -0.97,0.3 -2.23,1.35 -1.74,1.48 -0.78,0.58 -1.6,1.97 -1.02,0.5 -0.74,0.24 -1.85,1.23 -0.83,0.75 -1.05,1.06 -1.61,1.76 -1.31,1.68 -1.56,1.92 -1.78,4.07z"/>
   <path id="1" class="fil4" d="M55.28 249.64c-0.99,0.96 -0.27,-0.24 -1.16,1.64 -0.23,0.46 -0.59,1.77 -0.63,1.94 -0.49,2 -0.59,3.36 -0.7,5.39 -0.05,13.87 11.46,24.18 28.28,21.16l28.44 28.21c9.35,9.58 18.81,18.4 28.12,28.03l28.09 28.09c3.58,3.47 59.67,53.13 60.63,55.41 -14.35,0.02 -35.28,-2.13 -45.71,4.62 -9.77,6.32 -18.15,11.42 -18.61,22.61 69.02,23.78 127.75,16.1 178.48,-12.64 -14.39,-14.01 -26.15,-14.59 -51.32,-14.59 -6.55,0 -44.1,0.87 -46.75,-0.59 -0.6,-0.36 -5.22,-5.03 -6.08,-5.95l-133.6 -127.67c-3.65,-3.75 -8.46,-7.61 -11.41,-11.72 2.03,-4.47 5.04,-6.53 5.31,-14.03 0.27,-7.32 -2.19,-10.11 -4.61,-14.73 9.47,-10.37 19.48,-19.46 28.84,-29.05l58.11 -58.21c6.04,-5.95 16.41,-16.76 23.81,-24.01 -2.57,-3.15 -4.75,-6.17 -6.46,-9.23 -0.9,0.86 -1.83,1.73 -2.73,2.62l-22.63 22.61c-5.24,5.03 -9.07,9.56 -14.67,14.75 -5.31,4.91 -8.9,9.03 -14.74,14.66l-59.18 58.99c-9.82,-1.79 -9.17,-1.79 -18.05,1.31 -1.02,0.55 -0.97,0.3 -2.23,1.35 -1.74,1.48 -0.78,0.58 -1.6,1.97 -1.02,0.5 -0.74,0.24 -1.85,1.23 -0.83,0.75 -1.05,1.06 -1.61,1.76 -1.31,1.68 -1.56,1.92 -1.78,4.07z"/>
  </g>
  <g>
   <path class="fil3 str1" d="M263.98 209.23c49.7,1.89 66.41,-48.24 63.17,-57.23l-15.98 14c-2.78,2.64 -4.76,4.2 -7.71,6.99 -9.14,8.67 -23.5,20.34 -32.16,28.67 -2.82,2.69 -7.01,5.68 -7.32,7.57z"/>
   <path id="1" class="fil4" d="M263.98 209.23c49.7,1.89 66.41,-48.24 63.17,-57.23l-15.98 14c-2.78,2.64 -4.76,4.2 -7.71,6.99 -9.14,8.67 -23.5,20.34 -32.16,28.67 -2.82,2.69 -7.01,5.68 -7.32,7.57z"/>
  </g>
  <g>
   <path class="fil3 str1" d="M336.9 217.89c-6.22,3.99 0.02,8.36 7.85,17.53 9.36,10.98 11.42,16.39 16.37,10.47 -0.61,-4.62 -7.23,-10.64 -10.99,-15.04 -4.05,-4.74 -9.12,-12.16 -13.23,-12.96z"/>
   <path id="1" class="fil4" d="M336.9 217.89c-6.22,3.99 0.02,8.36 7.85,17.53 9.36,10.98 11.42,16.39 16.37,10.47 -0.61,-4.62 -7.23,-10.64 -10.99,-15.04 -4.05,-4.74 -9.12,-12.16 -13.23,-12.96z"/>
  </g>
  <g>
   <path class="fil3 str1" d="M379.77 191.99c1.93,0.71 19.16,9.02 16.78,0.31 -0.85,-3.14 -15.1,-7.08 -18.55,-8.33 -12.72,-4.57 -15.25,-6.94 -17.56,-0.75 2.21,3.62 6.15,4.25 9.61,5.39 3.28,1.08 6.57,2.23 9.72,3.38z"/>
   <path id="1" class="fil4" d="M379.77 191.99c1.93,0.71 19.16,9.02 16.78,0.31 -0.85,-3.14 -15.1,-7.08 -18.55,-8.33 -12.72,-4.57 -15.25,-6.94 -17.56,-0.75 2.21,3.62 6.15,4.25 9.61,5.39 3.28,1.08 6.57,2.23 9.72,3.38z"/>
  </g>
  <g>
   <path class="fil3 str1" d="M400.14 127.67c-2.13,-1.62 -16.99,2.06 -20.26,2.61 -2.89,0.49 -13.37,1.51 -14.87,4.07 -0.77,1.28 -0.73,3.26 1.02,4.69 1.62,1.32 15.98,-2.07 20.03,-2.8 2.96,-0.53 21.99,-2.52 14.08,-8.57z"/>
   <path id="1" class="fil4" d="M400.14 127.67c-2.13,-1.62 -16.99,2.06 -20.26,2.61 -2.89,0.49 -13.37,1.51 -14.87,4.07 -0.77,1.28 -0.73,3.26 1.02,4.69 1.62,1.32 15.98,-2.07 20.03,-2.8 2.96,-0.53 21.99,-2.52 14.08,-8.57z"/>
  </g>
  <g>
   <path class="fil3 str1" d="M298.87 242.09c-1.15,-5.19 -6.91,-5.05 -7.19,-0.19l5.42 29.87c1.38,5.77 6.98,4.25 7.08,0.06l-3.55 -20.23c-0.48,-3.2 -1.11,-6.61 -1.76,-9.51z"/>
   <path id="1" class="fil4" d="M298.87 242.09c-1.15,-5.19 -6.91,-5.05 -7.19,-0.19l5.42 29.87c1.38,5.77 6.98,4.25 7.08,0.06l-3.55 -20.23c-0.48,-3.2 -1.11,-6.61 -1.76,-9.51z"/>
  </g>
  <g>
   <path class="fil3 str1" d="M247.1 234.81c-2.54,2.04 -12.93,31.12 -12.2,33.13 0.79,2.2 2.85,3.03 4.61,2.15 2.37,-1.21 6.77,-15.64 7.96,-18.88 4.83,-13.14 6.92,-15.93 -0.37,-16.4z"/>
   <path id="1" class="fil4" d="M247.1 234.81c-2.54,2.04 -12.93,31.12 -12.2,33.13 0.79,2.2 2.85,3.03 4.61,2.15 2.37,-1.21 6.77,-15.64 7.96,-18.88 4.83,-13.14 6.92,-15.93 -0.37,-16.4z"/>
  </g>
  <g>
   <path class="fil3 str0" d="M210.52 134.59c10.81,-12.03 8.22,-11.29 22.39,-23.9 9.11,-8.1 16.66,-12.6 26.03,-19.37 -9.28,-10.53 -14.06,-15.78 -25.6,-17.98 -7.24,-1.38 -18.32,0.31 -26.78,7.85 -8.55,7.62 -11.29,17.54 -10.98,25.73 0.44,10.69 5.87,17.7 14.94,27.67z"/>
   <path id="1" class="fil4" d="M210.52 134.59c10.81,-12.03 8.22,-11.29 22.39,-23.9 9.11,-8.1 16.66,-12.6 26.03,-19.37 -9.28,-10.53 -14.06,-15.78 -25.6,-17.98 -7.24,-1.38 -18.32,0.31 -26.78,7.85 -8.55,7.62 -11.29,17.54 -10.98,25.73 0.44,10.69 5.87,17.7 14.94,27.67z"/>
  </g>
  <g>
   <path class="fil3 str0" d="M72.02 248.81c11.92,-4 18.7,15.75 5.19,19.59 -11.95,3.39 -19.35,-14.84 -5.19,-19.59z"/>
   <path id="1" class="fil4" d="M72.02 248.81c11.92,-4 18.7,15.75 5.19,19.59 -11.95,3.39 -19.35,-14.84 -5.19,-19.59z"/>
  </g>
  <g>
   <path class="fil5 str2" d="M464.04 241.29c0,-123.02 -99.73,-222.75 -222.75,-222.75 -123.02,0 -222.75,99.73 -222.75,222.75 0,123.02 99.73,222.75 222.75,222.75 123.02,0 222.75,-99.73 222.75,-222.75z"/>
  </g>
  <path class="fil6" d="M72.02 248.81c11.92,-4 18.7,15.75 5.19,19.59 -11.95,3.39 -19.35,-14.84 -5.19,-19.59z"/>
 </g>
</svg>
