<?xml version="1.0" encoding="UTF-8"?>
<!DOCTYPE svg PUBLIC "-//W3C//DTD SVG 1.1//EN" "http://www.w3.org/Graphics/SVG/1.1/DTD/svg11.dtd">
<!-- Creator: CorelDRAW 2017 -->
<svg xmlns="http://www.w3.org/2000/svg" xml:space="preserve" width="84.667mm" height="84.667mm" version="1.1" style="shape-rendering:geometricPrecision; text-rendering:geometricPrecision; image-rendering:optimizeQuality; fill-rule:evenodd; clip-rule:evenodd"
viewBox="0 0 8466.7 8466.7"
 xmlns:xlink="http://www.w3.org/1999/xlink">
 <defs>
  <style type="text/css">
   <![CDATA[
    .fil0 {fill:#FEFEFE}
    .fil3 {fill:#34A853}
    .fil1 {fill:#DCDDE1}
    .fil2 {fill:#EA4335}
    .fil4 {fill:#F0F2F3}
   ]]>
  </style>
 </defs>
 <g id="Capa_x0020_1">
  <metadata id="CorelCorpID_0Corel-Layer"/>
  <ellipse class="fil0" cx="4233.35" cy="4233.35" rx="4233.35" ry="4233.34"/>
  <g id="_2563037196784">
   <path class="fil1" d="M1928.69 6050.11c149.51,-1496.55 2055.06,-1419.94 2072.02,169.49 326.55,-135.67 142.44,-138.01 469.62,0 6.21,-1640.33 2045.52,-1630.49 2067.69,-110.69 1471.77,-291.22 1484.37,-1843.4 843.74,-2500.74 -246.43,-252.85 -594.97,-302.85 -965.35,-494.85 -359.18,-890.29 -629.16,-1383.13 -1595.08,-1643.1 -1169.96,-314.87 -1994.07,314.19 -2413.41,875.72 -415.01,555.69 -352.49,101.78 -1010.06,588.6 -1103.53,817 -937.19,2599.89 530.83,3115.57z"/>
   <path class="fil2" d="M4470.33 6219.6c386.3,1202.19 1821.94,1127.53 2067.69,-110.69 -22.17,-1519.8 -2061.48,-1529.64 -2067.69,110.69z"/>
   <path class="fil3" d="M1928.69 6050.11c198.75,1305.7 1709.17,1376.48 2072.02,169.49 -16.96,-1589.43 -1922.51,-1666.04 -2072.02,-169.49z"/>
   <path class="fil4" d="M5272.4 6042.51c-261.2,239.81 -229.5,65.45 -207.31,414.61 296.2,1.13 150.24,-14.06 403.06,-213.24 183.86,121.88 243.79,296.9 431.9,219.41 250.73,-103.34 -52.46,-309.67 -156.88,-420.78l216.39 -391.08c-384.39,-148.71 -114.19,-101.55 -479.86,136.45 -108.47,-109.05 -241.6,-330.57 -377.37,-194.98 -181.39,181.11 49.27,269 170.07,449.61z"/>
   <path class="fil4" d="M2803.03 6099.63c-146.92,-118.39 51.88,-49.87 -133.21,-105.43l-251.74 10.75c-14.62,198.72 -63.28,278.1 436.28,488.98 242.28,-252.52 825.52,-604.43 668.31,-979.78 -329.36,91.89 -500.91,378.3 -719.64,585.48z"/>
  </g>
 </g>
</svg>
