<?xml version="1.0" encoding="UTF-8"?>
<!DOCTYPE svg PUBLIC "-//W3C//DTD SVG 1.1//EN" "http://www.w3.org/Graphics/SVG/1.1/DTD/svg11.dtd">
<!-- Creator: CorelDRAW 2017 -->
<svg xmlns="http://www.w3.org/2000/svg" xml:space="preserve" width="84.667mm" height="84.667mm" version="1.1" style="shape-rendering:geometricPrecision; text-rendering:geometricPrecision; image-rendering:optimizeQuality; fill-rule:evenodd; clip-rule:evenodd"
viewBox="0 0 8466.7 8466.7"
 xmlns:xlink="http://www.w3.org/1999/xlink">
 <defs>
  <style type="text/css">
   <![CDATA[
    .str0 {stroke:#FEFEFE;stroke-width:20;stroke-miterlimit:22.9256}
    .fil4 {fill:#FEFEFE}
    .fil2 {fill:#255FDA}
    .fil7 {fill:#255FDB}
    .fil5 {fill:#4285F3}
    .fil0 {fill:#4285F4}
    .fil8 {fill:#CDE0FC}
    .fil3 {fill:#EE8D00}
    .fil1 {fill:#FABB05}
    .fil6 {fill:#FBBC06}
   ]]>
  </style>
 </defs>
 <g id="Capa_x0020_1">
  <metadata id="CorelCorpID_0Corel-Layer"/>
  <g id="_2563117959104">
   <path class="fil0" d="M1828.87 1996.33c111.1,-6.13 178.21,-41.9 345.17,-41.38l1117.1 0.34c-18.73,139.92 -73.42,207.87 -76.48,374.8 -2.37,130.16 10.88,333.57 -7.44,452.47l-1485.18 -4.03c-28,-224.06 4.27,-459.62 18.57,-675.07 -32.46,30.17 -4.5,-22.4 -38.53,42.66 -17.46,33.39 -13.25,30.37 -16.2,74.96l6.49 5222.27c12.7,43.97 -1.89,13.58 19.95,41.05l4.05 -958.48 3512.65 -4.09c0.68,208.82 0.1,413.11 0.1,617.32 0,557.98 -17.77,295.13 -126.53,523.84 126.88,-55.85 158.24,-107.49 159.6,-288.14 3.45,-460.49 -22.15,-2915.1 0.98,-3084.7 -285.47,18.59 -494.94,39.71 -782.43,-55.48 -322.05,-106.63 -635.36,-295.6 -844.38,-565.61 -143.96,-185.97 -335.77,-470.75 -376.43,-758.76 -26.34,-186.66 -48.4,-302.62 -37.01,-526.04 5.78,-113.45 89.17,-405.74 83.16,-453.54l-1150.11 -1.63c-109.08,-0.19 -216.59,-16.99 -292.41,36.9 -26.43,18.78 -15.33,9.98 -34.69,30.34z"/>
   <path class="fil1" d="M3306.08 1930.72c6.01,47.8 -77.38,340.09 -83.16,453.54 -11.39,223.42 10.67,339.38 37.01,526.04 40.66,288.01 232.47,572.79 376.43,758.76 209.02,270.01 522.33,458.98 844.38,565.61 287.49,95.19 496.96,74.07 782.43,55.48 27.74,-13.92 195.79,-46.48 238.91,-56.38 226.7,-52.01 435.52,-185.02 612.52,-312.45 767.56,-552.54 898.65,-1791.94 252.99,-2548.74 -527.29,-618.08 -1445.5,-814.31 -2207.34,-417.4 -127.44,66.4 -262.78,167.46 -360.92,253.49 -341.59,299.43 -439.68,668.7 -493.25,722.05z"/>
   <path class="fil2" d="M1712.32 7484.4c5.39,119.83 123.26,185.22 232.6,213.24 120.45,30.86 2017.71,10.41 2289.89,10.41 209.33,0 733.29,40.52 867.78,-45.06 108.76,-228.71 126.53,34.14 126.53,-523.84 0,-204.21 0.58,-408.5 -0.1,-617.32l-3512.65 4.09 -4.05 958.48z"/>
   <path class="fil3" d="M3945.58 2183.57c-65.32,84.48 -77.36,108.93 64.54,244.75 472.08,451.86 386.7,294.72 353.54,699.17 -12.53,152.77 -47.26,110 -40.78,107.07l-30.15 324.73c70.49,57.8 87.18,69.12 253.95,-17.28 22.75,-11.79 343.54,-224.51 434.98,-248.19 107.35,-27.81 228.88,72.44 376.56,153.53 157.48,86.47 264.88,166.81 391.4,143.07 52.36,-237.48 -183.09,-668.61 -39.59,-833.33 37.43,-42.96 76.43,-72.15 124.2,-111.92l237.2 -248.96c53.78,-58.94 92.62,-58.72 76.33,-171.1 -98.92,-50.9 -245.74,-36.74 -370.74,-66.05 -112.66,-26.4 -239.5,-41.24 -372.8,-58.95 -59.22,-91.53 -282.67,-623.25 -298.97,-640.93 -40.64,-44.08 -51.93,-31.07 -111.12,-29.04 -104.31,139.02 -247.61,517.41 -293.09,589.13 -77.29,121.9 -394.35,100.86 -546.98,129.96 -62.84,11.98 -109.9,26.93 -208.48,34.34z"/>
   <path class="fil2" d="M1828.87 1996.33c-30.05,10.71 -26.77,2.58 -58.65,39.91 -33.55,39.3 -25.86,20.34 -29.61,67.22 -14.3,215.45 -46.57,451.01 -18.57,675.07l1485.18 4.03c18.32,-118.9 5.07,-322.31 7.44,-452.47 3.06,-166.93 57.75,-234.88 76.48,-374.8l-1117.1 -0.34c-166.96,-0.52 -234.07,35.25 -345.17,41.38z"/>
   <path class="fil0" d="M3367.12 7371.4c220.17,0 610.02,68.68 615.93,-250.38 1.99,-106.72 -40.11,-156.2 -96.25,-196.2 -131.36,-93.62 -292.36,-62.76 -517.42,-62.76 -175.77,0 -315.79,102.39 -317.14,258.78 -1.33,153.29 129.72,250.56 314.88,250.56z"/>
  </g>
  <ellipse class="fil4 str0" cx="4233.35" cy="4233.35" rx="4233.35" ry="4233.34"/>
  <g id="_2563117948416">
   <path class="fil5" d="M3410.08 1522.37c-29.93,16.93 -22.58,-7.2 -44.91,52.39 -23.4,62.43 -3.04,1363.04 -0.49,1393.06 72.56,-13.39 347.83,-229.03 476.8,-306.45 75.17,-45.12 197.05,-91.86 312.21,-54.74 90.62,29.21 164.99,142.45 176.02,221.05 45.71,325.63 -622.5,819.19 -884.95,1061.71 -119.68,110.59 -85.74,124.82 -85.49,315.3 0.43,346.86 20.79,2264.63 -16.36,2331.86 32.74,79.95 0.35,257.14 20.43,351.13 13.45,63.02 39.19,77.56 56.62,92.34 1.99,-73.94 -32.1,-119.92 -33.88,-225.52 -1.74,-104.23 -7.02,-178.72 -14.03,-280.31 -7.66,-110.96 -11.2,-439.15 7.37,-539.03l3522.82 -1.12c0.68,181.26 39.3,951.91 -56.27,1060.41 -1.95,2.21 -6.17,5.17 -8.32,7.35 -38.88,39.68 -44.03,20.58 -57.53,76.31l54.7 -7.36c2.06,-4.13 6.36,-13.1 7.41,-10.41 0.38,1 89.05,-92 90.91,-253.84 15.26,-1324.23 -2.44,-2750.96 -2.44,-4085.71 0,-110.03 16.16,-1124.94 -9.71,-1193.52 -10.81,-28.68 -80.19,-120.19 -158.32,-143.23 59.68,121.76 141.55,111.17 140.21,340.53 -0.91,155.11 -0.05,310.2 -0.64,471.47l-3509.09 -3.3c-16.6,-107.12 -6.94,-234.76 -7,-344.85 -0.14,-276.95 12.86,-178.56 23.93,-325.52z"/>
   <path class="fil6" d="M3364.68 2967.82c-68.93,123.85 -1104.91,702.53 -1497.78,1212.35 -289.87,376.17 -402.64,743.7 -305.31,1223.73 6.03,29.77 9.6,59.93 15.94,89.23l147.12 430.19c18.87,34.92 14.6,35.96 30.81,73.03 106.64,244.07 457.49,484.15 726.69,535.15 342.32,64.86 523.65,18.99 860.76,5.05 37.15,-67.23 16.79,-1985 16.36,-2331.86 -0.25,-190.48 -34.19,-204.71 85.49,-315.3 262.45,-242.52 930.66,-736.08 884.95,-1061.71 -11.03,-78.6 -85.4,-191.84 -176.02,-221.05 -115.16,-37.12 -237.04,9.62 -312.21,54.74 -128.97,77.42 -404.24,293.06 -476.8,306.45z"/>
   <path class="fil7" d="M3419.96 6980.02c72.01,203.54 485.21,142.98 741.42,142.98 769.72,0 1690.05,16.1 2444.99,0.26 124.73,-2.63 90.84,-9.82 173.75,-45.15 13.5,-55.73 18.65,-36.63 57.53,-76.31 2.15,-2.18 6.37,-5.14 8.32,-7.35 95.57,-108.5 56.95,-879.15 56.27,-1060.41l-3522.82 1.12c-18.57,99.88 -15.03,428.07 -7.37,539.03 7.01,101.59 12.29,176.08 14.03,280.31 1.78,105.6 35.87,151.58 33.88,225.52z"/>
   <path class="fil7" d="M3410.08 1522.37c-11.07,146.96 -24.07,48.57 -23.93,325.52 0.06,110.09 -9.6,237.73 7,344.85l3509.09 3.3c0.59,-161.27 -0.27,-316.36 0.64,-471.47 1.34,-229.36 -80.53,-218.77 -140.21,-340.53 -170.31,-78.53 -608.53,-38.61 -838.06,-38.61l-2252.73 0.12c-168.32,2.21 -261.62,101.57 -261.8,176.82z"/>
   <path class="fil8" d="M5802.08 3541.3c-106.59,61.29 -347,329.4 -454.53,435.73 -467.41,462.21 -414.08,501.85 -569.8,344.32 -226.82,-229.43 -245.67,-272.14 -402.25,-129.75 -241.06,219.22 -28.66,261.64 404.33,721.9 102.88,109.38 207.59,22.6 278.66,-55.55 137.6,-151.3 299.15,-295.78 442.47,-448.25 74.31,-79.06 145.2,-143.63 216.88,-219.71l227.13 -227.52c77.22,-71.91 198.55,-146.57 123.64,-269.27 -0.41,-0.67 -41.33,-49.46 -47.7,-55.44 -17.52,-16.45 -44.95,-38.3 -66.24,-56.12 -47.33,-39.63 -84.87,-79.29 -152.59,-40.34z"/>
   <path class="fil5" d="M5034.26 6784.77c253.96,0 618.67,54.41 617.55,-258.18 -1.14,-315.53 -404.21,-251.05 -617.55,-251.05 -175.47,0 -310.9,79.62 -314.47,251.4 -1.37,65.76 3.02,73.56 25.86,115.22 69.8,127.33 131.68,142.61 288.61,142.61z"/>
  </g>
 </g>
</svg>
