<?xml version="1.0" encoding="UTF-8"?>
<!DOCTYPE svg PUBLIC "-//W3C//DTD SVG 1.1//EN" "http://www.w3.org/Graphics/SVG/1.1/DTD/svg11.dtd">
<!-- Creator: CorelDRAW 2017 -->
<svg xmlns="http://www.w3.org/2000/svg" xml:space="preserve" width="100mm" height="100mm" version="1.1" style="shape-rendering:geometricPrecision; text-rendering:geometricPrecision; image-rendering:optimizeQuality; fill-rule:evenodd; clip-rule:evenodd"
viewBox="0 0 10000 10000"
 xmlns:xlink="http://www.w3.org/1999/xlink">
 <defs>
  <style type="text/css">
   <![CDATA[
    .str0 {stroke:#FEFEFE;stroke-width:800;stroke-linecap:round;stroke-linejoin:round;stroke-miterlimit:22.9256}
    .fil0 {fill:none}
    .fil1 {fill:#0096DB}
    .fil2 {fill:whitesmoke}
   ]]>
  </style>
 </defs>
 <g id="Capa_x0020_1">
  <metadata id="CorelCorpID_0Corel-Layer"/>
  <rect class="fil0" width="10000" height="10000"/>
  <path class="fil1" d="M1654.48 4844.58c129.82,-130.04 1466.15,-902.83 1744.73,-1072.05 589.2,-357.89 1171.47,-720.48 1759.88,-1080.51l1749.99 -1091.04c299.71,-197.31 69.46,-532.64 -120.39,-1006.65 -69.29,-173.01 -143.48,-356.68 -399.27,-301.19 -117.22,25.43 -3614.29,2178.57 -3986.18,2402.67 -594.08,357.99 -1170.65,718.32 -1767.21,1073.26 -497.14,295.79 -64.28,579.08 154.83,831.82 190.07,219.25 208.51,108.03 210.31,487.69l2.5 3546.51c1.93,619.95 -110.25,1067.19 345.9,1077.14 471.08,10.28 958.67,0.66 1431.43,-0.23l4250.42 0c235.05,0.48 469.94,-1.01 705.04,-0.08 257.93,1.03 454.25,15.16 536.94,-196.29 51.71,-132.25 21.12,-2444.48 21.07,-2794.84 -0.08,-470.19 0.03,-940.44 0.13,-1410.63 0.12,-560.74 -241.14,-466.33 -961.02,-458.9 -355.6,3.66 -5398.18,22.9 -5679.1,-6.68zm4126.36 1131.62l1089.74 4.58c184.97,0 194.46,-75.74 292.04,-176.46 155.43,-160.41 616.27,-599.32 699.21,-733.34l-1112.43 -2.64c-135.99,-0.05 -197.1,119.47 -270.46,192.98 -137.1,137.41 -651.58,623.55 -698.1,714.88zm-2129.23 -2.21l1003.11 6.79c288.35,-0.13 235.54,-48.11 609.22,-403.37 91.62,-87.11 455.93,-426.66 504.53,-507l-1154.35 -2.05c-111.02,0.26 -369.45,303.55 -496.26,430.56 -122.67,122.88 -379.94,352.45 -466.25,475.07zm-2124.87 4.91l911.81 1.88c362.19,-0.24 237.89,43.78 667.42,-385.79 163.78,-163.81 374.25,-350.77 515.52,-519.84l-1041.93 -5.48c-241.08,0 -189.83,25.68 -324.56,157.58 -86.82,85 -154.87,156.51 -242.23,241.25 -94.6,91.77 -447.42,420.49 -486.03,510.4zm-231.26 -1381.86l891.72 -565.97c231.36,-150.21 177.97,-63.53 249.12,-479.34 36.59,-213.88 91.8,-432.37 109.74,-647.33 -79.85,25.83 -899.56,550.26 -1026.59,640.79 -99.2,70.69 -77.74,185 -121.15,424.55 -29.49,162.74 -103.91,479.18 -102.84,627.3zm1988.55 -1243.68l908.8 -560.39c81.67,-50.89 163.39,-65.88 190.25,-172.16l177.07 -951.41c-115.14,44.5 -777.43,468.97 -926.34,564.62 -89.45,57.45 -152.82,59.18 -180.35,183.37l-169.43 935.97zm1933.35 -1180.78c116.62,-46.55 335.27,-208.39 450.84,-281.3 736.93,-464.89 633.84,-326.8 701.42,-769.15 29.99,-196.34 84.54,-455.68 94.63,-647.76 -114.26,45.76 -325.71,198.49 -445.77,275.97 -158.66,102.39 -294.84,193.94 -453.5,292.19 -87.51,54.19 -160.15,74.44 -184.79,175.52l-162.83 954.53z"/>
  <polygon class="fil2" points="1522.28,9340.6 7771.11,9342.34 7771.75,6461.77 1526.42,6454.91 "/>
  <polygon class="fil2" points="1793.85,3960.07 2156.53,3960.07 2156.43,3597.46 1793.83,3597.35 "/>
  <g id="_1212844604144">
   <g>
    <path class="fil0 str0" d="M6189.13 2565.53l260.81 935.07c661.82,-285 1993.18,-383.7 1389.42,714.51 -186.36,338.96 -430.52,485.74 -633.55,853.74 -211.42,383.25 -269.67,778.93 -257.2,1267.68l1200.08 0.02c0.14,-1521.97 1514.53,-1668.62 1153.92,-3135.65 -287.1,-1167.85 -2208.65,-1283.21 -3113.48,-635.37z"/>
    <path id="1" class="fil1" d="M6189.13 2565.53l260.81 935.07c661.82,-285 1993.18,-383.7 1389.42,714.51 -186.36,338.96 -430.52,485.74 -633.55,853.74 -211.42,383.25 -269.67,778.93 -257.2,1267.68l1200.08 0.02c0.14,-1521.97 1514.53,-1668.62 1153.92,-3135.65 -287.1,-1167.85 -2208.65,-1283.21 -3113.48,-635.37z"/>
   </g>
   <g>
    <path class="fil0 str0" d="M7258.9 6908.84c-893.38,452.07 -314.02,1628.71 549.62,1303.51 823.06,-309.95 316.36,-1741.71 -549.62,-1303.51z"/>
    <path id="1" class="fil1" d="M7258.9 6908.84c-893.38,452.07 -314.02,1628.71 549.62,1303.51 823.06,-309.95 316.36,-1741.71 -549.62,-1303.51z"/>
   </g>
  </g>
 </g>
</svg>
