<?xml version="1.0" encoding="UTF-8"?>
<!DOCTYPE svg PUBLIC "-//W3C//DTD SVG 1.1//EN" "http://www.w3.org/Graphics/SVG/1.1/DTD/svg11.dtd">
<!-- Creator: CorelDRAW 2017 -->
<svg xmlns="http://www.w3.org/2000/svg" xml:space="preserve" width="100mm" height="100mm" version="1.1" style="shape-rendering:geometricPrecision; text-rendering:geometricPrecision; image-rendering:optimizeQuality; fill-rule:evenodd; clip-rule:evenodd"
viewBox="0 0 10000 10000"
 xmlns:xlink="http://www.w3.org/1999/xlink">
 <defs>
  <style type="text/css">
   <![CDATA[
    .fil0 {fill:#373435}
    .fil1 {fill:#E45126}
    .fil2 {fill:#EB724D}
    .fil3 {fill:#F6F6F6}
   ]]>
  </style>
 </defs>
 <g id="Capa_x0020_1">
  <metadata id="CorelCorpID_0Corel-Layer"/>
  <g id="_1212830895280">
   <path class="fil0" d="M5532.38 1223.38l-23.26 -48.29c-43.03,1.97 -11.03,-15.53 -39.82,10.53l-6.68 517.12c-79.38,29.97 -295.83,12.55 -395,8.13 -35.3,-120.49 -25.63,-1053.96 -8.76,-1218.01 -36.45,83.56 -27.31,1108.96 -5.86,1231.11 77.93,15.64 354.14,40.29 413.73,-1.34 26.88,-26.33 9.99,26.81 26.54,-46.82l1.71 -202.92c0.52,-89.61 -11.91,-176.76 -2.74,-266.28 12.75,31.26 0.79,0.86 40.14,16.77zm1128.27 -710.64c92.73,-23.14 276.34,-11.4 376.64,-6.96l4.78 790.85c122.19,70.29 411.57,-8.58 564.11,35.32 26.64,84.55 13.73,264.74 9.98,360.07 -84.71,20.03 -872.68,20.45 -954.84,-0.41l-0.67 -1178.87zm-21.85 -22.32c-15.55,137.17 -18.58,1123.67 4.82,1230.88 95.7,15.09 923.75,15.44 998.02,-4.57 49.08,-440.74 1,-422.47 -140.94,-423.28 -106.61,-0.6 -362.5,6.43 -430,-14.21 -11.89,-156.24 33.59,-761.8 -31.04,-784.65 -56.35,-19.93 -285.27,-33.45 -400.86,-4.17zm-3847.21 14.47c-20.45,91.91 -29.61,313.12 12.87,396.24 85.7,26.35 286,29.71 375.98,-4.44l3.94 -382.37c83.74,-24.22 290.28,-16.61 383.56,-4.65l-2.4 1185.43c-90.46,12.39 -297.28,19.36 -381.65,-4.03l-6.54 -350.77c-16.97,-45.47 18.64,-18.28 -28.31,-28.19 15.18,102.11 -29.39,385.83 35.51,405.87l401.68 -2.4c18.52,-134.44 23.62,-1101.71 -1.56,-1227.01 -22.36,-6.02 -140.12,-12.16 -205.95,-12.64 -350.5,-2.53 -176.16,21.34 -227.01,401.71 -89.34,13.71 -252.67,19.81 -329.9,-5.16 -27.16,-84.1 -7.49,-212.18 -12.58,-296.47l-11.8 -58.91c-0.6,-6.84 -3.69,-8.25 -5.84,-12.21zm3161.62 70.05l21.66 -16.48c55.2,-46.56 20.18,-31.82 60.05,-47.02 38.38,-14.61 88.48,-8.74 130.54,-8.33 88.65,0.88 174.52,-3.08 264.24,3l-1.51 1196.23 -383.16 -6.21 -8.97 -552.33c-52.49,4.91 -61.15,31.6 -79.03,81.06l57.38 -38.77 11.2 528.4c68.16,18.63 136.3,10.75 207.59,11.5 228.53,2.45 225.86,28.52 224.01,-168.45l-4.65 -1028.46c-0.93,-4.2 -3.63,-9.98 -4.55,-13.25 -15.18,-54.06 -90.52,-40.32 -146.83,-38.56 -257.22,8.08 -284.49,-38.39 -347.97,97.67zm-894.35 -82.08c-16.87,164.05 -26.54,1097.52 8.76,1218.01 99.17,4.42 315.62,21.84 395,-8.13l6.68 -517.12c28.79,-26.06 -3.21,-8.56 39.82,-10.53 -24.46,-45.08 35.47,-20.51 -35.99,-38.15 -25.22,31.09 -17.15,-0.92 -25.68,64.33 -1.78,13.59 -0.92,52.91 -0.81,68.6 0.78,109.76 17.42,346.92 -7.28,431.84l-363.91 -1.28 3.2 -1195.89c129.13,-3.59 314.66,-26.02 432.29,19.14 -23.18,-58.02 20.91,-19.52 -40.17,-45.48 -4.68,-1.97 -56.2,-3.62 -64.18,-3.57 -91.45,0.53 -287.6,-4.85 -347.73,18.23zm-509.85 415.28c-29.08,33.35 -22.87,-49.87 -25.27,57.79 -0.67,147.17 28.71,636.91 -11.36,729.38 -8.02,8.65 -374.02,78.48 -393.48,-37.12l-1.97 -151.5c0.2,-67.66 0.89,-135.17 1.28,-202.78 0.49,-82.05 40.92,-379.39 -35.04,-401.07 -24.44,-6.98 -14.21,-6.44 -44.55,-8.85l-269.14 -0.22c-15.31,-85.4 -17.19,-313.62 3.12,-395.5 158.62,-9.11 1009.68,-26.6 1093.23,9.39 31.93,28.77 14.01,369.64 10.85,398.64 46.23,-32.64 21.33,10.32 39.76,-57.22 0.03,-0.1 10.41,-337.39 -21.59,-368.23 -98.5,-39.21 -1037.89,-38.93 -1143.73,-2.57 -20.39,60.51 -28.34,354.55 -10.67,429.84 114.09,43.9 231.19,2.74 344.11,17.97 55.94,251.81 -48.48,577.38 20.53,817.1 123.81,0 327.39,21.7 437.91,-15.58 35.25,-188.4 1.33,-600.31 6.01,-819.47zm-1399.97 403.97c-15.54,-21.12 38.98,-15.59 -40.56,-18.79 -268.58,-5.17 -314.51,-32.5 -321.77,93.55 -5.24,90.64 16.2,232.45 -11.58,309.91l-366.69 5.62c-35.96,-102.11 -16.08,-1022.05 -12.45,-1197.6l395.6 0.09c-16.74,-42.38 -16.14,-29.65 -86.94,-31.2 -75.14,-1.65 -270.08,-3.65 -326.02,14.61 -24.99,113.69 -24.56,1163.46 5.84,1217.13 20.16,17.55 -22.93,9.61 48.19,24.03 6.99,1.42 41.02,2.15 49.91,2.29 32.77,0.56 68.92,-1.09 102.31,-1.11 74.98,-0.04 141.88,5.41 215.33,-9.88 53.37,-184.86 -68.02,-392.7 88.82,-401.18 22.92,-1.24 59.49,0.86 84,1.07 59.68,0.52 123.27,5.06 176.01,-8.54zm2640.35 -451.57l-74.06 -1.51 22.42 46.2c56.58,-23.03 21.89,-0.52 51.64,-44.69zm139.97 424.72c50.74,-35.42 21.33,3.83 36.91,-58.05 -44.85,29.77 -23.14,2.98 -36.91,58.05zm-420.24 -110.17l23.26 48.29c36.51,54.56 166.86,270.93 211,305.55 65.4,-30.21 141.22,-181.36 185.98,-243.67 13.77,-55.07 -7.94,-28.28 36.91,-58.05l-9.24 -2.35c17.88,-49.46 26.54,-76.15 79.03,-81.06l8.97 552.33 383.16 6.21 1.51 -1196.23c-89.72,-6.08 -175.59,-2.12 -264.24,-3 -42.06,-0.41 -92.16,-6.28 -130.54,8.33 -39.87,15.2 -4.85,0.46 -60.05,47.02l-21.66 16.48c-31.8,79.7 -144.35,216.22 -163.82,285.6 -29.75,44.17 4.94,21.66 -51.64,44.69l-22.42 -46.2 -204.39 -335.35c-117.63,-45.16 -303.16,-22.73 -432.29,-19.14l-3.2 1195.89 363.91 1.28c24.7,-84.92 8.06,-322.08 7.28,-431.84 -0.11,-15.69 -0.97,-55.01 0.81,-68.6 8.53,-65.25 0.46,-33.24 25.68,-64.33 71.46,17.64 11.53,-6.93 35.99,38.15zm-2360.08 137.02c46.95,9.91 11.34,-17.28 28.31,28.19l6.54 350.77c84.37,23.39 291.19,16.42 381.65,4.03l2.4 -1185.43c-93.28,-11.96 -299.82,-19.57 -383.56,4.65l-3.94 382.37c-89.98,34.15 -290.28,30.79 -375.98,4.44 -42.48,-83.12 -33.32,-304.33 -12.87,-396.24l-395.6 -0.09c-3.63,175.55 -23.51,1095.49 12.45,1197.6l366.69 -5.62c27.78,-77.46 6.34,-219.27 11.58,-309.91 7.26,-126.05 53.19,-98.72 321.77,-93.55 79.54,3.2 25.02,-2.33 40.56,18.79zm1399.97 -403.97l327.67 -1.84c3.16,-29 21.08,-369.87 -10.85,-398.64 -83.55,-35.99 -934.61,-18.5 -1093.23,-9.39 -20.31,81.88 -18.43,310.1 -3.12,395.5l269.14 0.22c30.34,2.41 20.11,1.87 44.55,8.85 75.96,21.68 35.53,319.02 35.04,401.07 -0.39,67.61 -1.08,135.12 -1.28,202.78l1.97 151.5c19.46,115.6 385.46,45.77 393.48,37.12 40.07,-92.47 10.69,-582.21 11.36,-729.38 2.4,-107.66 -3.81,-24.44 25.27,-57.79zm2112.31 783.47c82.16,20.86 870.13,20.44 954.84,0.41 3.75,-95.33 16.66,-275.52 -9.98,-360.07 -152.54,-43.9 -441.92,34.97 -564.11,-35.32l-4.78 -790.85c-100.3,-4.44 -283.91,-16.18 -376.64,6.96l0.67 1178.87z"/>
   <path class="fil1" d="M3209.72 6051.06c-40.9,-161.3 -54.95,-415.35 -64.52,-590.13 -22.85,-417.68 -166.67,-1555.86 -143.41,-1845.23l4011.08 -0.86c4.03,102.84 -42.33,747.25 -73.28,794.9 -23.88,17.73 6.64,4.89 -34.94,14.75l-147.76 4.13c-61.92,-0.45 -123.95,-0.09 -185.89,-0.09l-1148.54 0c-503.81,-0.01 -1040.85,-21.68 -1540.44,-0.35 -13.8,137.53 14.42,312.22 27.59,452.46l17.18 161.98c7.07,66.37 5.43,127.25 14.14,200.99l2927.67 2.83c13.48,155.84 -35.45,444.26 -47.11,618.9 -14.08,210.46 -36.43,410.35 -57.17,617.77 -21.61,216.13 -44.87,397.66 -62.6,602.65 -65.82,761.04 97.24,592.7 -461.43,749.66 -154.57,43.42 -1171.6,333.23 -1239.63,333.81 -98.12,0.82 -700.19,-187.44 -836.4,-229 -146.84,-44.8 -768.57,-183.67 -812.02,-240.15 -25.43,-35.98 -114,-1108.28 -108.03,-1240.95 32.1,-3.23 759.29,-25.61 794.96,15.21 51.83,107.52 12.6,556.31 76.8,614.28 30.68,30.87 856.98,234.62 884.32,233.88l884.26 -222.39c68.81,-172.58 58.31,-790.11 100.72,-1043.22l-2775.55 -5.83zm-826.76 2789.61c68.31,36.82 571.77,158.06 688.11,191.27l1346.67 377.13c195.34,51.96 503.52,179.96 704.2,127.19 429.88,-113.04 932.62,-273.2 1345.5,-375.1 232.13,-57.3 464.15,-125.9 680.94,-184.75 596.36,-161.87 473.73,-107.53 506.29,-349.98 36.69,-273.24 27.62,-549.83 64.08,-822.9 33.66,-252.01 56.58,-521.46 72.15,-787.97 24.82,-424.68 100.39,-1118.49 144.07,-1573.03 51.33,-534.18 89.18,-1057.75 140,-1586.02 24.36,-253.28 57.06,-542.37 70.86,-794.65 11.23,-205.43 84.53,-618.15 60.51,-789.96 -540.72,-27.31 -1154.3,-0.56 -1702.9,-0.42 -562.95,0.14 -1126.08,-1.91 -1689.03,-1.82l-2550.44 1.59c-534.2,5.01 -496.54,-108.02 -451.13,348.93 26.08,262.34 47.39,523.53 72.24,792.7 11.7,126.74 23.49,260.81 30.79,392.38l75.44 763.32c8.31,72.08 9.31,145.08 11.19,217.6 1.73,67.48 16.3,104.91 22.4,167.49 47.42,486.46 84.13,1113.2 139.33,1573.11 25.38,211.36 193.34,2262.03 218.73,2313.89z"/>
   <polygon class="fil2" points="4916.98,3149.28 7486.21,2989.2 7223.2,8101.19 4916.98,8766.37 "/>
   <path class="fil3" d="M3209.72 6051.06l2775.55 5.83c-42.41,253.11 -31.91,870.64 -100.72,1043.22l-884.26 222.39c-27.34,0.74 -853.64,-203.01 -884.32,-233.88 -64.2,-57.97 -24.97,-506.76 -76.8,-614.28 -35.67,-40.82 -762.86,-18.44 -794.96,-15.21 -5.97,132.67 82.6,1204.97 108.03,1240.95 43.45,56.48 665.18,195.35 812.02,240.15 136.21,41.56 738.28,229.82 836.4,229 68.03,-0.58 1085.06,-290.39 1239.63,-333.81 558.67,-156.96 395.61,11.38 461.43,-749.66 17.73,-204.99 40.99,-386.52 62.6,-602.65 20.74,-207.42 43.09,-407.31 57.17,-617.77 11.66,-174.64 60.59,-463.06 47.11,-618.9l-2927.67 -2.83c-8.71,-73.74 -7.07,-134.62 -14.14,-200.99l-17.18 -161.98c-13.17,-140.24 -41.39,-314.93 -27.59,-452.46 499.59,-21.33 1036.63,0.34 1540.44,0.35l1148.54 0c61.94,0 123.97,-0.36 185.89,0.09l147.76 -4.13c41.58,-9.86 11.06,2.98 34.94,-14.75 30.95,-47.65 77.31,-692.06 73.28,-794.9l-4011.08 0.86c-23.26,289.37 120.56,1427.55 143.41,1845.23 9.57,174.78 23.62,428.83 64.52,590.13z"/>
  </g>
 </g>
</svg>
