<?xml version="1.0" encoding="UTF-8"?>
<!DOCTYPE svg PUBLIC "-//W3C//DTD SVG 1.1//EN" "http://www.w3.org/Graphics/SVG/1.1/DTD/svg11.dtd">
<!-- Creator: CorelDRAW 2017 -->
<svg xmlns="http://www.w3.org/2000/svg" xml:space="preserve" width="100mm" height="100mm" version="1.1" style="shape-rendering:geometricPrecision; text-rendering:geometricPrecision; image-rendering:optimizeQuality; fill-rule:evenodd; clip-rule:evenodd"
viewBox="0 0 10000 10000"
 xmlns:xlink="http://www.w3.org/1999/xlink">
 <defs>
  <style type="text/css">
   <![CDATA[
    .fil0 {fill:none}
    .fil1 {fill:#0096DB}
   ]]>
  </style>
 </defs>
 <g id="Capa_x0020_1">
  <metadata id="CorelCorpID_0Corel-Layer"/>
  <rect class="fil0" width="10000" height="10000"/>
  <g id="_1212852051120">
   <path class="fil1" d="M2191.26 6328.58c-165.52,-1661.3 1007.36,-2956.97 2456.31,-3136.15 1640.84,-202.94 2989.67,1012.79 3159.96,2449.36 199.72,1684.92 -1023.07,2996.85 -2487.89,3170.7 -1626.11,192.97 -2986.81,-1062.83 -3128.38,-2483.91zm2374.99 -4008.35c-1250.65,216.21 -1234.02,464.52 -1830.56,731.9 -158.26,-183.52 -526.88,-596.11 -737.55,-681.15 -212.59,75.53 -541.01,450.6 -680.54,623.83 93.81,281.16 517.05,542.73 692.62,805.01 -772.9,1263.25 -1016.84,2493.1 -247.66,3974.27 501.23,965.18 1636.54,1911.38 3239.28,1917.81 1566.36,6.27 2723.22,-955.98 3222.33,-1879.77 789.1,-1460.49 538.06,-2737.86 -236.11,-4012.31 169.08,-261.62 609.5,-548.14 692.37,-800.95 -126.61,-167.19 -480.22,-550.72 -676.51,-630.34 -210.33,71.78 -599.36,495.13 -737.56,680.74 -225.4,-94.93 -470.88,-309.32 -805.8,-446.57 -359.67,-147.42 -624.04,-211.13 -1029.11,-279.72l-7.5 -668.06 -837.6 -0.95 -20.1 666.26z"/>
   <path class="fil1" d="M4054.6 4484.69l157.73 565.5c400.25,-172.36 1205.42,-232.05 840.28,432.12 -112.7,205 -260.37,293.76 -383.15,516.32 -127.86,231.78 -163.09,471.08 -155.55,766.66l725.77 0.01c0.09,-920.44 915.95,-1009.14 697.86,-1896.35 -173.63,-706.29 -1335.73,-776.06 -1882.94,-384.26z"/>
   <path class="fil1" d="M4737.62 1319.2l1106.32 -0.46c225.53,0.03 146.83,-225.47 147.29,-837.89 0.19,-257.23 -334.12,-151.16 -884.83,-150.95 -1339.47,0.51 -1093.29,-137.72 -1099.84,575.24 -5.36,582.78 102.25,415.12 731.06,414.06z"/>
   <path class="fil1" d="M4701.57 7111.4c-540.3,273.41 -189.91,985.01 332.39,788.33 497.76,-187.45 191.33,-1053.34 -332.39,-788.33z"/>
  </g>
 </g>
</svg>
