<?xml version="1.0" encoding="UTF-8"?>
<!DOCTYPE svg PUBLIC "-//W3C//DTD SVG 1.1//EN" "http://www.w3.org/Graphics/SVG/1.1/DTD/svg11.dtd">
<!-- Creator: CorelDRAW 2017 -->
<svg xmlns="http://www.w3.org/2000/svg" xml:space="preserve" width="100mm" height="100mm" version="1.1" style="shape-rendering:geometricPrecision; text-rendering:geometricPrecision; image-rendering:optimizeQuality; fill-rule:evenodd; clip-rule:evenodd"
viewBox="0 0 10000 10000"
 xmlns:xlink="http://www.w3.org/1999/xlink">
 <defs>
  <style type="text/css">
   <![CDATA[
    .fil0 {fill:none}
    .fil1 {fill:#0096DB}
   ]]>
  </style>
 </defs>
 <g id="Capa_x0020_1">
  <metadata id="CorelCorpID_0Corel-Layer"/>
  <rect class="fil0" width="10000" height="10000"/>
  <rect class="fil0" width="10000" height="10000"/>
  <path class="fil1" d="M2891.43 9084.59l987.78 333.63c237.88,-332.32 3007.58,-7747.9 3153.38,-8413.34l-1059.19 -423.1c-527.95,1631.05 -2946.8,7584.93 -3081.97,8502.81z"/>
  <path class="fil1" d="M5730.47 6504.33l2033.56 892.72c17.15,9.19 39.22,20.43 55.75,30.22 16.48,9.76 38.28,23.43 53.7,33.46 227.11,147.66 51.06,23.08 149.96,117.57l-2249.64 1114.4c30.49,286.8 174.6,612.89 364.55,811.77l3217.37 -1569.22 -0.5 -687.79c-1004.31,-457.67 -2186.81,-1190.32 -3216.87,-1552.45l-407.88 809.32z"/>
  <path class="fil1" d="M590.05 1971.06l9.22 687.4 3181.61 1565.34c193.2,-174.26 326.36,-521.55 395.76,-746.66 -241.49,-303.85 -1792.04,-841.11 -2275.46,-1190.07 15.81,-14.16 41.85,-55.23 49.96,-39.49l2228.23 -1011.87c-58.79,-227.2 -72.27,-269.7 -156.5,-466.11l-235.94 -366.99 -3196.88 1568.45z"/>
 </g>
</svg>
