<?xml version="1.0" encoding="UTF-8"?>
<!DOCTYPE svg PUBLIC "-//W3C//DTD SVG 1.1//EN" "http://www.w3.org/Graphics/SVG/1.1/DTD/svg11.dtd">
<!-- Creator: CorelDRAW 2017 -->
<svg xmlns="http://www.w3.org/2000/svg" xml:space="preserve" width="100mm" height="100mm" version="1.1" style="shape-rendering:geometricPrecision; text-rendering:geometricPrecision; image-rendering:optimizeQuality; fill-rule:evenodd; clip-rule:evenodd"
viewBox="0 0 10000 10000"
 xmlns:xlink="http://www.w3.org/1999/xlink">
 <defs>
  <style type="text/css">
   <![CDATA[
    .fil0 {fill:none}
    .fil1 {fill:black}
   ]]>
  </style>
 </defs>
 <g id="Capa_x0020_1">
  <metadata id="CorelCorpID_0Corel-Layer"/>
  <rect class="fil0" width="10000" height="10000"/>
  <path class="fil1" d="M1234.49 4464.04c-217.21,1165.9 57.01,2341.72 687.64,3145.58 127,161.88 278.08,324.92 421.5,460.84 312.81,296.44 913.17,801.28 1368.15,843.49 50.42,-83.75 90.2,-131.53 113.24,-265.88 84.66,-493.69 94.09,-329.23 334.5,-422.22 100.98,-39.06 64.64,-171.38 93.57,-292.6 141.91,-60.41 373.58,-55.29 489.99,-144.52 412.94,-316.52 639.59,-253.5 647.05,-670.35 2.01,-112.21 -19.84,-177.5 -62.93,-265.26 -34.72,-70.69 -65.57,-171.48 -98.98,-232.72 -235.89,-27.35 -530.61,174.2 -689.51,-59.31 -197.84,-290.73 -63.39,-182.41 -311.95,-342.23 -79.15,-50.9 -72.95,-44.13 -78.83,-151.3 -114.24,-13.48 -133.06,-59.33 -170.18,-162.91 -91.46,-16.36 -264.23,-2.57 -333.22,-48.72 -57.56,-66.75 90.3,-177.52 77.12,-470.61 -206.75,-72.22 -337.15,-130.66 -501.41,-233.12 -98.16,41.44 -294.62,326.8 -343.2,456.94 61.04,-226.32 164.36,-343.12 261.67,-508.79 -404.25,-23.58 -1056.16,89.54 -1454.58,208.35 -124.88,37.24 -314.96,118.51 -423.2,137.86 34.11,-84.69 382.66,-583.13 439.35,-638.12 175.66,-170.38 343.72,-345.48 603.65,-484.3 -232.61,-45.99 -865.7,57.93 -1069.44,139.9z"/>
  <path class="fil1" d="M1002.63 6794.63c185.33,520.34 434.44,933.23 786.24,1327.89 52.11,58.45 74.26,98.96 137.8,151.65 66.38,55.03 89.6,97.27 149.97,154.08l493.55 404.12c217.23,163.6 492.15,301.01 778.53,423.69 1267.97,543.21 2662.6,493.46 3853.88,-195.81 538,-311.29 976.74,-680.9 1296.81,-1107.16 317.29,-422.56 639.42,-974.78 794.82,-1608.23 205.62,-838.19 128.17,-1344.23 -13.63,-2138.77l-290.1 85.1c107.01,755.45 158.01,1287.43 -38.5,2031.35 -173.28,655.97 -415.72,1050.76 -751.48,1484.08 -301.03,388.49 -783.83,795.02 -1233.83,1017.74 -1470.13,727.62 -3019.65,595.4 -4324.4,-352.85 -104.97,-76.28 -221.58,-162.48 -310.77,-251.99 -576.85,-578.9 -779.27,-857.68 -1087.93,-1712.22 -171.13,-473.76 -203.32,-969.49 -192.59,-1488.21 3.43,-165.39 40.41,-351.11 37.88,-499.49l-322.87 157.89c-59.27,864.64 -37.08,1348.7 236.62,2117.14z"/>
  <path class="fil1" d="M7998.91 4851.87c2.26,1.1 7.18,0.47 8.74,5.14l454.87 155.47c147.08,55.74 303.82,111.08 429.55,184.51 -364.08,58.85 -443.57,-38.31 -839.56,104.36 -211.92,76.35 -491.19,193.36 -698.06,244.73l188.43 368.59 -347.92 -207.55c10.11,76.44 172.14,398.8 213.93,495.18 64.21,148.07 196.29,255.44 316.73,398.39l166.84 182.85c135.28,138.31 153.54,7.17 274.65,59.76 118.2,51.32 58.8,284.42 274.32,230.55 82.95,-20.74 53.61,-1.1 135.78,14.81 19.11,-44.8 46.37,-80.25 67.32,-131.06 171.85,-416.82 264.44,-633.69 325.06,-1119.58 48.77,-390.91 85.64,-1144.96 -88.14,-1469.11l-882.54 482.96z"/>
  <path class="fil1" d="M5838.82 2065.56l67.64 -347.08c7.12,152.69 -84.16,503.29 52.61,562.28 96.2,41.48 213.14,27.37 500.66,170.59 347.82,173.25 427.82,413.72 626.37,723.98 204.51,-96.96 497.23,-257.21 740.86,-279.2l-531.57 234.39c133.85,-12.91 289.12,-57.53 442.38,-75.17 162.13,-18.66 337.02,-26.84 504.75,-31.31 -47.92,-145.83 -341.45,-439.84 -458.24,-558.46 -526.05,-534.28 -1301.97,-943 -2061.72,-1016.1 12.4,117.58 81.76,529.59 116.26,616.08z"/>
  <path class="fil1" d="M8864.51 3160.39c-141.86,-281.6 -647.79,-880.58 -917.3,-1116.15 -38.71,-33.84 -42.65,-40.57 -84.18,-82.91l-282.82 -234.59c-488.93,-334.25 -1270.57,-696.03 -2004.51,-740.77 21.85,79.98 64.68,168.58 95.11,245.88 53,134.66 50.31,96.75 204.81,129.17 726.06,152.3 1316.32,407.24 1841.65,897.71 296.94,277.23 397.84,365.54 649.6,719.82 73.61,103.58 71.04,83.3 216.91,117.82 89.78,21.24 193.68,51.86 280.73,64.02z"/>
  <path class="fil1" d="M366.24 3839.09c139.55,-23.63 275.76,-117.94 397.47,-150.85l-288 39.34c77.47,-307.06 445.87,-783.47 673.32,-960.53 93.09,-72.46 214.49,-151.5 332.99,-214.79 159.22,-85.05 217.69,-114.9 429.72,-103.25 166.53,9.15 324,35.69 482.25,65.89 350.63,66.91 550.67,218.66 790.8,293.89 -40.92,-30.52 -145.09,-124.54 -177.54,-159.68l255 67.82c-60.32,-49.85 -134.31,-93 -203.86,-141.69l237.53 54.75c-69.29,-53.69 -105.75,-53.13 -158.1,-109.88l117.91 -3.55c-27.69,-3.66 -355.08,-114.13 -424.03,-135.07 -162.54,-49.36 -326.48,-76.54 -495.99,-98.32 -443.14,-56.97 -655.72,2.2 -948.76,204.55 -245.74,169.69 -417.02,344.42 -591.08,580.39 -115.11,156.05 -381.74,533.59 -429.63,770.98z"/>
  <path class="fil1" d="M5751.29 8422.98c86.46,-14.19 1293.51,-508.79 1451.79,-563.74 254.01,-88.17 496.7,-169.06 758.79,-244.83 407.56,-117.81 325.5,-17.57 479.15,-282.21 21.22,-36.56 96.72,-131.69 61.61,-169.58 -64.28,-69.39 -310.79,69.17 -376.54,97.88 -120.13,52.46 -227.97,99.78 -348.43,153.63 -235.14,105.13 -473.15,201.3 -699.66,319.85 -350.84,183.6 -1031.47,512.42 -1326.71,689z"/>
  <path class="fil1" d="M5070.54 1199.84l-135.8 -712.61c171.46,85.87 468.89,529.81 563.62,780.71 179.14,474.44 171.62,884.31 246.14,1089.94 68.52,30.57 167.45,31.83 241.66,49.48 128.06,30.46 308.48,94.3 422.43,155.88 66.28,35.82 106.08,95.77 158.27,145.96 191.42,184.09 333.09,429.19 376.74,794.48l301.9 -164.76c359.8,-162.24 904.03,-216.41 1285.02,-98.42 -58.69,56.64 -134.64,98.1 -185.42,149.63l281.26 -115.38c43.51,-17.76 62.75,-21.72 95.6,-55.13 -656.4,-127.85 -713.45,-177.33 -1310.96,-34.83 -147.99,35.29 -250.14,84.71 -370.96,124.29 -155.32,-177.19 -146.18,-476.56 -532.81,-738.15 -539.86,-365.26 -694.64,-95.55 -747.34,-531.57 -77.08,-637.61 -253.53,-1114.81 -689.36,-1545.79 -75.41,-74.57 -84.91,-90.69 -227.13,-118.49l227.14 824.76z"/>
  <path class="fil1" d="M6093.1 7466.18c330.15,-60.23 920.32,-342.51 1079.21,-223.85 -7.45,119.25 -137.27,144.14 -219.44,222.77 176.75,15.76 375.47,-117.6 519.68,-143.06l-1080.12 612.46c139.69,-28.25 1732.13,-756.54 1789.71,-816.23 14.72,-89.52 -15.57,-118.33 -41.57,-173.38 -109.99,-4.19 -988.32,142.7 -1109.86,178.61l-937.61 342.68z"/>
  <path class="fil1" d="M1242.25 4393.66c186.61,-31.1 360.27,-78.14 556.75,-109.25 206.93,-32.77 407.11,-42.65 612.24,-71.35 -138.39,-212.23 -635.55,-419.84 -957.29,-439.41l-211.7 620.01z"/>
  <path class="fil1" d="M3402.45 2438.02l-29.64 -185.91 115.11 225.67 -20.88 -249.68c12.24,46.19 45.14,137.83 88,164.29 18.77,-24.24 21.38,20.65 21.38,-95.34 0,-206.18 -360.54,-802.28 -460.07,-945.67 -176.41,-254.14 -446.76,-528.61 -709.95,-690.26l301.33 368.7c380.67,516.02 588.69,1261.84 694.72,1408.2z"/>
  <path class="fil1" d="M7727.14 3970.27c93.7,-23.7 118.36,-46.98 235.06,-24.91 -35.84,36.3 -78.61,63.87 -113.22,95.45 278.55,-48.27 558.42,-140.44 864.84,-146.03 316.28,-5.76 618.34,80.69 919.94,121.81 -2.65,-3.13 -6.99,-11.72 -8.47,-8.93l-84.77 -57.72c-36.79,-20.57 -60.41,-34.68 -98.05,-53.93 -482.68,-246.85 -762.28,-229.53 -1312.61,-144.07 -215.91,33.54 -347.95,22.8 -402.72,218.33z"/>
  <path class="fil1" d="M2033.71 2187.09c113.47,7.88 222.12,13.62 334.33,20.87 159.38,10.31 148.24,-30.76 248.98,-103.15 127.46,-91.59 281.83,-220.14 418.92,-292.6l-130.52 -281.57c-110.5,36.97 -837.28,599.16 -871.71,656.45z"/>
  <path class="fil1" d="M770.28 4608.47c73.56,-27.36 155.57,-74.34 225.18,-109.11 122.96,-61.43 145.7,-34.68 170.17,-180.22 35.97,-214 104.38,-362.43 159.24,-552.38l-333.7 -1.73c-44.79,212.35 -188.71,548.5 -220.89,843.44z"/>
  <path class="fil1" d="M4908.37 1871.15l-299.67 -535.85c-72.88,-131.07 -284.02,-369.56 -375.3,-461.46 -341.39,-343.68 -870.24,-346.1 -1362.2,-323.32 2.61,0.79 537.08,71.7 718.96,113.73 323.55,74.78 368.5,105.66 564.99,272.71 346.49,294.58 592.13,764.68 753.22,934.19z"/>
  <path class="fil1" d="M4286.81 7998.68c-40.8,233 79.06,273.39 -129.52,314.31 -210.42,41.27 -203.63,27.08 -225.87,217.17 -9.83,83.96 -23.49,160.17 -47.26,239.69 -21.87,73.18 -62.54,150.93 -76.28,209.77l144.04 8.14c81.31,-199.87 49.51,-297.21 76.28,-518.85 32.74,-17.72 75.77,-51.49 110.45,-67.54 85.74,-39.68 243.78,2.45 237.56,-355.77 229.13,-91.06 219.84,-69.33 344.06,-112.59l60.57 -32.86c-160.78,-20.06 -383.18,29.44 -494.03,98.53z"/>
  <path class="fil1" d="M3690.21 4959.52c-40.33,-151.06 -200.4,-126.95 -65.86,-645.54 36.75,-141.65 185.21,-552.49 187.03,-646.93l-90.47 125.07 28.05 -165.87c-108.06,132.99 -85.14,104.06 -148.13,298.34 -39.62,122.22 -80.7,217.23 -100.72,353.48 -19.76,134.51 -27.79,284.47 0.64,417.88 22.01,103.28 93,251.58 189.46,263.57z"/>
  <path class="fil1" d="M2652.01 2239.28l597.49 166.86c-20.27,-95.94 -120.04,-419.12 -166.23,-475.06 -30.55,17.7 -394.89,259.1 -431.26,308.2z"/>
  <path class="fil1" d="M4481.65 1001.63c31.73,68.23 150.72,238.82 199.55,282.76l318.13 -10.2 -69.01 -305.57 -448.67 33.01z"/>
  <path class="fil1" d="M8601.95 3342.17c21.54,72.77 95.53,192.46 131.95,257.48l356.05 33.43 -187.37 -369.05 -300.63 78.14z"/>
  <path class="fil1" d="M1477.7 5256.41c34.05,-57.76 154.12,-168.15 203.96,-223.18 376.77,-415.98 494.56,-353.74 756.37,-561.31l-82.64 -67.74c-142.46,49.82 -421.87,277.64 -511.82,364.72 -144.26,139.65 -272.53,245.89 -365.87,487.51z"/>
  <path class="fil1" d="M3226.04 4730.65l-30.01 -81.72c-117.65,357.27 212.65,613.25 467.26,674.5 -5.92,-54.71 -13.78,-50.45 -56.78,-81.72 -264.48,-192.34 -259.62,-277.96 -348.45,-611.07l-32.02 100.01z"/>
  <path class="fil1" d="M7137.48 5880c29.87,143.35 157.51,293.27 169.06,507.6 8.35,155.03 -11.43,374.33 -5.66,504.01 2.27,50.81 31.87,113.14 75.19,74.69 61.14,-54.26 7.87,-549.06 -12.49,-642.39 -74.32,-340.62 -174.64,-354.64 -226.1,-443.91z"/>
  <path class="fil1" d="M7089.09 8099.54c158.54,-20.81 417.03,-110.14 596.83,-153.42 268.66,-64.67 295.21,-10.54 410.65,-151.97 24.75,-30.32 69.64,-79.62 85.46,-114.42 -170.52,46.7 -380.26,142.77 -553.32,209.26l-539.62 210.55z"/>
  <path class="fil1" d="M5040.52 1850.58l-6.25 -447.34 -293.88 -0.08c13.65,48.43 254.98,390.06 300.13,447.42z"/>
  <path class="fil1" d="M8051.35 3674.07c90.81,4.34 495.46,-48.73 553.66,-84.27 -19,-42.06 -81.89,-163.93 -119.23,-196.21l-434.43 280.48z"/>
  <path class="fil1" d="M4076.61 4091.7c-1.05,320.54 -41.83,312.73 78.87,679.06 12.63,-166.89 -43.98,-373.98 -29.18,-552.43 11.09,-133.69 107.77,-464.7 100.17,-538.8 -45.42,32.21 -85.71,110.41 -113.64,163.91 -44.45,85.19 -35.85,138.88 -36.22,248.26z"/>
  <path class="fil1" d="M6692.98 8820.71c83.56,7.12 361.73,-179.46 480.52,-245.97 63.92,-35.78 121.42,-54.66 136.06,-114.69 -83.81,-40.08 -186.07,52.69 -324.62,139.22 -57.95,36.19 -97.13,60.15 -160.2,98.38 -59.43,36.04 -120.68,48.88 -131.76,123.06z"/>
  <path class="fil1" d="M6729.85 7112.93c31.23,-157.61 -273.9,-570.72 -368.84,-721.1 89.53,209.28 162.38,320.64 245.05,566.64 33.64,100.09 18.53,186.05 123.79,154.46z"/>
  <path class="fil1" d="M4053.77 9031.59c114.45,97.5 204.27,30.76 278.81,-10.71 64.12,-35.69 219.41,-109.46 255.2,-148.8 -200.94,-27.2 -286.7,74.23 -534.01,159.51z"/>
  <path class="fil1" d="M7919.94 4973.81c39.43,48.52 316.57,76.12 394.03,94.89 76.23,18.47 321.57,110.26 366.99,87.62 -19.93,-51.94 -54.02,-47.32 -160.31,-79.94l-501 -124.26c-100.37,-19.91 -57.81,-16.57 -99.71,21.69z"/>
  <path class="fil1" d="M7815.98 6904.96c22.97,-75.49 -20.53,-104.14 -129.03,-220.64l-189.81 -203.56c46.18,99.95 146.68,236.34 206.9,338.96 33.15,56.49 35.12,81.55 111.94,85.24z"/>
  <path class="fil1" d="M4844.88 7837.73c37.81,8.48 42.36,-6.83 79.54,-35.1 29.59,-22.5 54.83,-38.33 90.25,-62.32 86.91,-58.89 156.31,-83.09 168.61,-135.36 -51.39,-19.45 -155.27,50.39 -196.05,77.71 -88.63,59.38 -160.06,104.34 -142.35,155.07z"/>
  <path class="fil1" d="M7431.59 8127.22c99.76,-1.47 199.98,-15.48 301.81,-28.15 134.23,-16.71 127.08,-67.65 213.77,-123.72l-515.58 151.87z"/>
  <path class="fil1" d="M4620.32 6600.02c34.67,-54.49 -24.51,-59.08 -117.56,-246.41 -29.09,-58.57 -9.18,-57.15 -75.13,-53.72 24.39,49.86 145.17,272.46 192.69,300.13z"/>
  <path class="fil1" d="M3684.69 5801.28l79.55 -20.32 19.42 -244.13c-18.82,40.16 -29.48,90.75 -46.98,135.5 -23.89,61.11 -54.05,65.24 -51.99,128.95z"/>
  <path class="fil1" d="M4120.78 6025.81c-10.23,-55.52 -11,-42.67 -41.11,-85.78 -5.2,-7.44 -23.02,-34.26 -25.02,-36.05 -25.73,-22.97 -5.05,-11.78 -43.61,-19.52 10.27,61.84 53.24,120.57 109.74,141.35z"/>
  <path class="fil1" d="M4205.43 6159.89c84.99,41.94 127.88,-71.35 6.03,-58.39l-6.03 58.39z"/>
 </g>
</svg>
