<?xml version="1.0" encoding="UTF-8"?>
<!DOCTYPE svg PUBLIC "-//W3C//DTD SVG 1.1//EN" "http://www.w3.org/Graphics/SVG/1.1/DTD/svg11.dtd">
<!-- Creator: CorelDRAW 2017 -->
<svg xmlns="http://www.w3.org/2000/svg" xml:space="preserve" width="100mm" height="100mm" version="1.1" style="shape-rendering:geometricPrecision; text-rendering:geometricPrecision; image-rendering:optimizeQuality; fill-rule:evenodd; clip-rule:evenodd"
viewBox="0 0 10000 10000"
 xmlns:xlink="http://www.w3.org/1999/xlink">
 <defs>
  <style type="text/css">
   <![CDATA[
    .fil0 {fill:none}
    .fil3 {fill:#006BA2}
    .fil7 {fill:#40BFE6}
    .fil6 {fill:#BCCE46}
    .fil2 {fill:#D6598A}
    .fil4 {fill:#EC6C30}
    .fil5 {fill:#F9C11B}
    .fil1 {fill:#FCFEFE}
   ]]>
  </style>
 </defs>
 <g id="Capa_x0020_1">
  <metadata id="CorelCorpID_0Corel-Layer"/>
  <rect class="fil0" width="10000" height="10000"/>
  <path class="fil1" d="M239.03 5630.03l-14.78 165.64 0 400.43c28.47,84.34 33.85,337.26 50.06,453.08 20.17,144.08 44.32,284.63 77.69,421.72 69.8,286.74 147.16,503.7 245.89,761.63 602.65,212.49 845.06,-208.68 1068.24,-152.75 143.36,35.93 634.4,349.64 1110.87,76.89 190.86,-109.25 209.42,-162.07 328.02,-343.86 160.82,-246.45 283.97,-50.06 533.03,-81.96 195.96,-25.09 317.77,-146.27 367.2,-324.91 50.66,-183.11 -6.77,-455.62 -98.18,-578.9 -254.65,-343.46 -530.11,75.42 -753.35,-142.2 -199.96,-194.93 -223.24,-375.26 -533.08,-511.58 -280.19,-123.26 -552.69,-78.02 -766,128.24 -64.14,62.02 -136.18,101.65 -248.98,66.22 -156.36,-49.1 -111.27,-205.75 -322.9,-367.5 -140.29,-107.24 -310.17,-173.68 -536.97,-158.97 -252.95,16.4 -345.73,108.84 -506.76,188.78z"/>
  <path class="fil1" d="M9230.96 8210.92c57.99,-183.89 218,-427.5 351.96,-886.63 47.74,-163.62 85.5,-327.32 116.59,-499.23 23.32,-128.99 43.82,-476.57 76.23,-558.89l0 -392.82c-337.66,-171.23 -755.16,-134.11 -980.54,103.39 -109.06,114.92 -138.89,318.34 -326.27,323.39 -111.97,3.01 -160.24,-47.91 -212.91,-99.24 -58.71,-57.21 -111.86,-97.61 -202.88,-132.63 -393.6,-151.42 -742.19,121.46 -890.83,327.75 -80.45,111.63 -185.44,296.09 -364.64,275.42 -211.17,-24.36 -301.09,-163.51 -499.95,16.66 -244.91,221.87 -237.16,761.15 35.94,913.46 252.69,140.92 397.8,-27.01 563.61,13.59 118.55,29.03 208.65,256.22 307.9,345.8 250.31,225.95 611.96,281.68 1002.16,151.46 182.97,-61.06 294.7,-186.77 492.32,-60.1 143.64,92.07 322.74,165.32 531.31,158.62z"/>
  <path class="fil2" d="M439.42 5003.58c43.25,19.44 281.84,-21.03 419.58,-23.88 146.55,-832.76 825.85,-1806.28 1463.08,-2304.78 812.38,-635.5 1744.09,-989.33 2845.83,-947.59 2103.05,79.68 3708.61,1651.12 4035.35,3541.43 4.77,81.71 -6.22,3.37 31.47,38.28l354.85 10.99c37.02,-23.42 9.18,22.73 24.35,-30.75 -327.54,-2129.9 -2116.59,-3876.43 -4445.95,-3962.26 -2444.66,-90.07 -4293.83,1657.8 -4728.56,3678.56z"/>
  <path class="fil3" d="M439.42 5003.58c-58.02,123.61 -103.75,-82.65 -156.16,259.55 -19.04,124.31 -28.42,242.35 -44.23,366.9 161.03,-79.94 253.81,-172.38 506.76,-188.78 226.8,-14.71 396.68,51.73 536.97,158.97 211.63,161.75 166.54,318.4 322.9,367.5 112.8,35.43 184.84,-4.2 248.98,-66.22 213.31,-206.26 485.81,-251.5 766,-128.24 309.84,136.32 333.12,316.65 533.08,511.58 223.24,217.62 498.7,-201.26 753.35,142.2 91.41,123.28 148.84,395.79 98.18,578.9 -49.43,178.64 -171.24,299.82 -367.2,324.91 -249.06,31.9 -372.21,-164.49 -533.03,81.96 -118.6,181.79 -137.16,234.61 -328.02,343.86 -476.47,272.75 -967.51,-40.96 -1110.87,-76.89 -223.18,-55.93 -837.25,397.56 -1439.9,185.07 64.02,161.86 193.98,437.29 290.06,568.66 253.23,22.57 860.42,-117.79 1048.28,-212.36 134.71,-67.82 234.06,130.08 693.02,134.62 800.36,7.93 1160.36,-566.27 1194.02,-579.61 386.35,-3.53 633.32,-70.91 839.26,-296.49 354.07,-387.83 245.78,-1266.26 -315.93,-1549.49 -399.64,-201.5 -476.46,45.19 -641.86,-160.08 -50.1,-62.17 -103.43,-96.56 -141.94,-165.5 -51.27,-13.11 -119.53,-78.32 -173.76,-115.85 -53.58,-37.07 -130.69,-71.44 -176.78,-119.19l-191.91 -69.66 -401.03 -60.73 -217.7 36.92c-100.99,37.63 -216.05,102.7 -295.32,128.78l-114 -132.94c-55.63,-24.94 -119.66,-85.97 -185.1,-125.37 -135.25,-80.67 -221.91,-86.78 -369.61,-144.32l-206.93 -22.54c-137.74,2.85 -376.33,43.32 -419.58,23.88z"/>
  <path class="fil4" d="M1065.93 5002.24c147.7,57.54 234.36,63.65 369.61,144.32 141.94,-486.36 255.84,-780.75 500.89,-1159.53 1100.24,-1700.64 3462.09,-2191.15 5131.49,-1019.09 454.74,319.26 903.08,783.08 1162.84,1299.56 223.97,445.34 297.32,705.91 400.24,1239.33 68.78,-29.85 107.34,-59.58 180.13,-92.46 67.52,-30.49 130.43,-44.56 196.42,-74.01 -61.1,-787.98 -692.62,-1865.73 -1260.22,-2342.97 -745.28,-626.65 -1483.01,-1019.03 -2544.2,-1066.83 -1143.85,-51.52 -2039.56,344.77 -2718.8,869.53 -323.98,250.3 -623.3,573.26 -866.22,943.27 -177.05,269.66 -505.92,868.73 -552.18,1258.88z"/>
  <path class="fil3" d="M9007.55 5340.36c-65.99,29.45 -128.9,43.52 -196.42,74.01 -72.79,32.88 -111.35,62.61 -180.13,92.46 -52.46,58.36 -135.71,119.38 -192.84,170.28l-42.91 48.26c-143.04,-71.43 -204.93,-95.47 -366.61,-147.91l-210.13 -12.58c-164.11,13.21 -259.1,56.17 -391.53,73.47l-195.8 90.17c-34.17,44.48 -129.45,94.53 -176.14,131.22 -65.56,51.51 -101.85,99.64 -167.63,121.82l-150.84 194.92c-223.83,15.16 -477.2,-78.77 -775.73,230.6 -538.39,557.96 -473.29,1729.29 743.01,1688.53 178.5,265.46 513.07,507.07 969.92,568.43 239.58,32.18 479.72,7.72 688.1,-79.58 160.4,-67.2 805.2,-6.37 957.36,73.77 91.22,48.05 179.96,88.16 295.71,100.88 116.72,-146.02 183.08,-300.76 294.71,-467.39 -208.57,6.7 -387.67,-66.55 -531.31,-158.62 -197.62,-126.67 -988.04,-81.76 -1171.01,-20.7 -390.2,130.22 -751.85,74.49 -1002.16,-151.46 -99.25,-89.58 -189.35,-316.77 -307.9,-345.8 -165.81,-40.6 -310.92,127.33 -563.61,-13.59 -273.1,-152.31 -280.85,-691.59 -35.94,-913.46 198.86,-180.17 288.78,-41.02 499.95,-16.66 179.2,20.67 284.19,-163.79 364.64,-275.42 148.64,-206.29 497.23,-479.17 890.83,-327.75 91.02,35.02 144.17,75.42 202.88,132.63 52.67,51.33 100.94,102.25 212.91,99.24 187.38,-5.05 217.21,-208.47 326.27,-323.39 225.38,-237.5 642.88,-274.62 980.54,-103.39l0 -149.29c-28.05,-75.53 -19.82,-196.09 -32.44,-287.23 -24.95,-180.31 -102.36,-17.23 -129.37,-149.55 -15.17,53.48 12.67,7.33 -24.35,30.75l-354.85 -10.99c-37.69,-34.91 -26.7,43.43 -31.47,-38.28l-3.13 39.88 -192.58 31.72z"/>
  <path class="fil5" d="M1620.64 5271.93l114 132.94c79.27,-26.08 194.33,-91.15 295.32,-128.78 150.17,-749.71 665.25,-1360.38 1075.94,-1686.59 485.08,-385.31 1235.65,-697.82 2075.18,-652.98 1468.86,78.44 2685.81,1248.78 2847.56,2640.94 161.68,52.44 223.57,76.48 366.61,147.91l42.91 -48.26c34.31,-325.6 -227.88,-993.53 -350.79,-1247.58 -140.32,-290.04 -287.1,-476.34 -480.68,-713.07 -38.21,-46.73 -52.53,-70.55 -96.34,-109.02 -46.18,-40.55 -60.51,-48.99 -96.69,-89.92 -212.94,-240.86 -575.48,-476.38 -930.32,-655.36 -1223.15,-616.95 -2718.91,-324.6 -3663.5,441.35 -533.13,432.31 -1119.24,1271.46 -1199.2,1968.42z"/>
  <path class="fil6" d="M2247.66 5239.17l401.03 60.73c241.81,-966.2 1284.69,-1864.92 2557.26,-1757.22 1140.73,96.54 2088.51,996.43 2221.03,2095.67 132.43,-17.3 227.42,-60.26 391.53,-73.47 2.04,-247.8 -200.3,-746.91 -305.81,-933.68 -175.22,-310.23 -339.33,-513.94 -553.88,-714.91 -111.33,-104.3 -209.07,-194.6 -348.17,-285.91 -1071.98,-703.65 -2336.68,-648.57 -3339.53,87 -372.94,273.54 -880.75,870.29 -1023.46,1521.79z"/>
  <path class="fil7" d="M2840.6 5369.56c46.09,47.75 123.2,82.12 176.78,119.19 54.23,37.53 122.49,102.74 173.76,115.85 76.08,-477.83 407.12,-865.53 669.65,-1073.75 559.84,-444.02 1323.05,-527.38 2019.53,-170.1 353.4,181.29 676.42,544.38 831.09,922.57 138.65,339.02 99.53,390.01 135.8,631.25 13.79,91.76 -16.26,58.32 40.2,66.99 65.78,-22.18 102.07,-70.31 167.63,-121.82 46.69,-36.69 141.97,-86.74 176.14,-131.22 -0.44,-524.84 -419.39,-1126.93 -656.93,-1352.79 -804.2,-764.65 -2020.3,-866.11 -2926.08,-188.08 -334.22,250.19 -744.02,773.5 -807.57,1181.91z"/>
 </g>
</svg>
