<?xml version="1.0" encoding="UTF-8"?>
<!DOCTYPE svg PUBLIC "-//W3C//DTD SVG 1.1//EN" "http://www.w3.org/Graphics/SVG/1.1/DTD/svg11.dtd">
<!-- Creator: CorelDRAW 2017 -->
<svg xmlns="http://www.w3.org/2000/svg" xml:space="preserve" width="20mm" height="20mm" version="1.1" style="shape-rendering:geometricPrecision; text-rendering:geometricPrecision; image-rendering:optimizeQuality; fill-rule:evenodd; clip-rule:evenodd"
viewBox="0 0 2000 2000"
 xmlns:xlink="http://www.w3.org/1999/xlink">
 <defs>
  <style type="text/css">
   <![CDATA[
    .fil0 {fill:none}
    .fil2 {fill:#848688;fill-rule:nonzero}
    .fil1 {fill:#373435;fill-rule:nonzero}
   ]]>
  </style>
 </defs>
 <g id="Capa_x0020_1">
  <metadata id="CorelCorpID_0Corel-Layer"/>
  <rect class="fil0" width="2000" height="2000"/>
  <g id="_1219682033424">
   <path class="fil1" d="M61.85 1153.34c0,-54.27 30.1,-95.89 90.14,-124.47 -33.96,-15.54 -51.03,-41.04 -51.03,-76.52 0,-34.14 18.04,-63.48 54.29,-88.22 -46.23,-35.29 -69.24,-83.63 -69.24,-145l0 -32.22c0,-55.23 19.75,-100.5 59.27,-135.78 39.51,-35.3 91.09,-52.94 154.77,-52.94 53.7,0 98.2,13.04 133.48,39.12 22.26,-51.39 47.19,-77.09 74.8,-77.09 14.58,0 26.47,4.41 35.68,13.22 9.2,8.83 13.8,18.23 13.8,28.2 0,12.27 -6.51,21.86 -19.55,28.77 -24.56,10.74 -43.73,26.09 -57.54,46.03 24.54,30.68 36.82,67.51 36.82,110.47l0 32.22c0,55.24 -20.32,100.88 -60.99,136.94 -40.66,36.05 -92.83,54.08 -156.5,54.08 -29.92,0 -56.39,-4.6 -79.41,-13.81 -14.57,9.98 -21.85,20.91 -21.85,32.41 0,15.54 12.08,26.86 36.24,33.76 24.17,6.91 53.32,12.47 87.45,16.31 34.14,3.83 68.28,9.4 102.42,16.87 34.15,7.29 63.3,23.01 87.46,47 24.17,24.16 36.25,56 36.25,95.51 0,56.57 -22.82,99.34 -68.47,128.11 -45.65,28.77 -103.38,43.15 -173.19,43.15 -69.81,0 -128.12,-14.18 -174.92,-42.38 -46.78,-28.39 -70.18,-66.36 -70.18,-113.74zm113.92 -12.84c0,27.81 12.08,50.24 36.25,66.92 24.16,16.7 55.42,24.95 93.78,24.95 37.59,0 67.89,-8.06 90.91,-24.36 23.01,-16.3 34.52,-38.56 34.52,-66.37 0,-17.83 -5.37,-32.78 -16.11,-44.87 -10.74,-11.9 -26.66,-20.91 -47.75,-26.67 -21.1,-5.74 -39.13,-9.77 -54.09,-11.7 -14.96,-1.91 -35.1,-3.64 -60.41,-5.17 -51.4,19.37 -77.1,48.53 -77.1,87.27zm27.62 -422.52c0,33.75 8.82,61.38 26.47,82.85 17.64,21.48 41.81,32.23 72.49,32.23 29.92,0 53.7,-10.56 71.34,-31.65 17.65,-21.09 26.47,-48.52 26.47,-82.28l0 -32.22c0,-32.22 -8.82,-58.87 -26.47,-79.97 -17.64,-21.1 -41.81,-31.66 -72.49,-31.66 -29.92,0 -53.7,10.56 -71.34,31.66 -17.65,21.1 -26.47,47.75 -26.47,79.97l0 31.07zm344.65 112.78l0 -109.33c0,-60.61 23.4,-112.96 70.19,-157.08 46.79,-44.11 103.19,-66.16 169.16,-66.16 62.91,0 116.81,19.94 161.68,59.84 44.88,39.89 67.32,90.33 67.32,151.13 0,23.4 -2.68,42.39 -8.06,56.96 -5.37,14.38 -13.81,24.55 -25.31,30.49 -11.51,5.76 -22.25,9.59 -32.23,11.13 -9.97,1.53 -23.01,2.3 -39.12,2.3l-242.81 0 0 26.66c0,38.74 13.82,69.42 41.43,92.25 27.61,22.83 63.67,34.14 108.17,34.14 31.45,0 61.18,-7.28 89.18,-22.05 28.01,-14.59 45.07,-22.06 51.21,-22.06 13.04,0 24.17,6.13 33.37,18.6 9.21,12.27 13.81,24.17 13.81,35.67 0,18.99 -18.41,38.17 -55.24,57.54 -36.82,19.37 -82.08,28.96 -135.78,28.96 -78.25,0 -142.32,-21.09 -192.17,-63.29 -49.87,-42.2 -74.8,-97.43 -74.8,-165.7zm120.82 -97.81l191.02 0c16.89,0 28.2,-2.32 33.96,-6.72 5.74,-4.61 8.63,-13.62 8.63,-27.24 0,-30.3 -11.13,-55.81 -33.37,-77.1 -22.26,-21.09 -49.87,-31.64 -82.86,-31.64 -32.22,0 -59.84,9.97 -82.85,29.92 -23.01,20.14 -34.53,45.64 -34.53,76.52l0 36.26zm373.43 100.11l0 -287.69c0,-10.74 6.14,-20.14 18.41,-28.2 12.29,-8.06 26.47,-12.08 42.58,-12.08 16.12,0 30.12,4.02 42,12.08 11.9,8.06 17.84,17.46 17.84,28l0 287.11c0,30.5 11.7,58.12 35.1,82.67 23.4,24.36 50.83,36.63 82.27,36.63 32.23,0 59.84,-12.09 82.86,-36.24 23.02,-23.99 34.52,-51.79 34.52,-83.06l0 -288.25c0,-10.55 5.94,-19.76 17.84,-27.43 11.89,-7.67 26.27,-11.51 43.16,-11.51 16.87,0 30.87,3.84 42,11.51 11.12,7.67 16.68,16.88 16.68,27.61l0 288.85c0,60.61 -23.4,113.53 -70.2,158.8 -46.79,45.26 -102.41,67.89 -166.86,67.89 -64.44,0 -120.25,-22.63 -167.42,-67.89 -47.18,-45.27 -70.78,-98.19 -70.78,-158.8zm495.4 134.63c0,-11.51 4.03,-23.4 12.27,-35.67 8.06,-12.28 17.85,-18.41 29.54,-18.41 6.9,0 16.49,4.41 28.96,13.43 12.27,9.01 28.96,18.02 49.87,27.04 20.9,9.01 46.03,13.61 75.37,13.61 65.78,0 98.58,-20.9 98.58,-62.52 0,-22.44 -9.59,-39.9 -28.77,-52.74 -19.17,-12.66 -42.38,-22.63 -69.61,-30.12 -27.24,-7.28 -54.29,-15.53 -81.13,-24.74 -26.85,-9.4 -49.87,-25.12 -69.05,-47.57 -19.17,-22.43 -28.77,-51.39 -28.77,-86.88 0,-45.07 16.11,-83.81 48.34,-116.22 32.21,-32.41 81.7,-48.71 148.44,-48.71 43.72,0 83.43,6.71 119.1,20.14 35.67,13.43 53.52,29.34 53.52,47.75 0,10.74 -4.42,23.2 -13.25,37.4 -8.81,14.2 -19.75,21.29 -32.79,21.29 -4.6,0 -20.33,-5.76 -47.17,-17.26 -26.86,-11.51 -52.56,-17.26 -77.11,-17.26 -30.69,0 -53.89,6.9 -69.62,20.9 -15.72,13.82 -23.59,29.34 -23.59,46.23 0,18.6 9.59,33.17 28.77,44.11 19.18,10.74 42.58,19.56 70.19,26.46 27.63,7.1 54.86,15.54 81.51,25.51 26.86,9.97 49.69,27.43 68.47,52.17 19,24.74 28.39,56.38 28.39,94.94 0,49.67 -17.65,88.61 -52.93,116.79 -35.3,28.2 -85.15,42.39 -149.59,42.39 -54.47,0 -101.08,-9.59 -139.83,-28.76 -38.74,-19.19 -58.11,-40.28 -58.11,-63.3z"/>
   <g>
    <path class="fil2" d="M700.77 1205.93l0 0c25.06,0 46.15,8.54 63.29,25.68 17.18,17.13 25.77,38.24 25.77,63.3l0 22.3c0,15.48 -3.69,29.91 -11.12,43.27 -7.44,13.35 -17.77,24.12 -30.98,32.27 13.04,6.8 23.32,16.33 30.84,28.66 7.53,12.29 11.26,25.77 11.26,40.37l0 0c0,21.99 -7.47,40.51 -22.47,55.51 -15,15 -33.52,22.48 -55.51,22.48l-22.17 0c-21.81,0 -40.29,-7.43 -55.37,-22.3 -15.09,-14.86 -22.62,-33.2 -22.62,-55.02l0 -0.67c0,-6.27 2.15,-11.52 6.46,-15.75 4.32,-4.28 9.57,-6.41 15.84,-6.41l0 0c6.28,0 11.54,2.13 15.86,6.41 4.31,4.23 6.45,9.48 6.45,15.75l0 0 0 11.27c0,12.55 4.27,23.09 12.86,31.69 8.55,8.59 19.1,12.87 31.61,12.87l0 0c12.5,0 23.05,-4.28 31.6,-12.87 8.59,-8.6 12.86,-19.14 12.86,-31.69l0 -22.39c0,-12.6 -4.27,-23.2 -12.77,-31.69 -8.55,-8.51 -19.09,-12.74 -31.69,-12.74l-0.14 0 0 0 0.14 0c-25.2,0 -46.39,-8.54 -63.44,-25.64 -17.09,-17.05 -25.64,-38.23 -25.64,-63.42l0 -22.31c0,-25.11 8.55,-46.24 25.69,-63.29 17.14,-17.1 38.28,-25.64 63.39,-25.64zm0 22.16c-12.6,0 -23.15,4.28 -31.69,12.87 -8.51,8.55 -12.78,19.13 -12.78,31.78l0 66.81c0,12.64 4.27,23.2 12.78,31.74 8.54,8.5 19.09,12.78 31.69,12.78l0 0c12.5,0 23.05,-4.28 31.6,-12.87 8.59,-8.55 12.86,-19.09 12.86,-31.65l0 -66.81c0,-12.55 -4.27,-23.1 -12.86,-31.74 -8.55,-8.59 -19.1,-12.91 -31.6,-12.91zm195.6 -22.16l0 0c25.06,0 46.16,8.54 63.3,25.68 17.17,17.13 25.77,38.2 25.77,63.25l0 22.31c0,25.1 -8.54,46.25 -25.68,63.38 -17.14,17.14 -38.29,25.68 -63.39,25.68l0 0c-25.19,0 -46.39,-8.54 -63.43,-25.64 -17.09,-17.05 -25.64,-38.23 -25.64,-63.42l0 -22.31c0,-25.11 8.55,-46.24 25.68,-63.29 17.14,-17.1 38.28,-25.64 63.39,-25.64zm0 22.16c-12.6,0 -23.15,4.28 -31.69,12.87 -8.5,8.55 -12.78,19.13 -12.78,31.78l0 66.81c0,12.64 4.28,23.2 12.78,31.74 8.54,8.5 19.09,12.78 31.69,12.78l0 0c12.51,0 23.06,-4.28 31.61,-12.87 8.58,-8.55 12.86,-19.09 12.86,-31.65l0 -66.81c0,-12.55 -4.28,-23.1 -12.86,-31.74 -8.55,-8.59 -19.1,-12.91 -31.61,-12.91zm152.16 111.46c0,12.64 4.27,23.2 12.78,31.74 8.54,8.5 19.09,12.78 31.69,12.78l0 0c12.5,0 23.06,-4.28 31.61,-12.87 8.58,-8.55 12.85,-19.09 12.85,-31.65l0 -111.46c0,-6.22 2.15,-11.52 6.46,-15.75 4.32,-4.28 9.57,-6.41 15.84,-6.41l0 0c6.28,0 11.54,2.13 15.85,6.45 4.32,4.32 6.46,9.57 6.46,15.76l0 89.15 0 0 0 0 0 0c0,25.12 -8.54,46.21 -25.69,63.3 -17.13,17.1 -38.28,25.64 -63.38,25.64l0 0c-24.88,0 -45.94,-8.54 -63.17,-25.64 -17.27,-17.05 -25.9,-38.01 -25.9,-62.76l0 -89.74c0,-6.27 2.14,-11.52 6.46,-15.75 4.32,-4.28 9.56,-6.41 15.84,-6.41l0 0c6.28,0 11.53,2.13 15.85,6.45 4.32,4.32 6.45,9.57 6.45,15.71l0 111.46zm328.33 -44.83l0.14 0.14c0,0.05 0.05,0.09 0.13,0.09 0,6.19 -2.17,11.49 -6.53,15.81 -4.32,4.36 -9.58,6.53 -15.77,6.53 -6.28,0 -11.52,-2.13 -15.84,-6.45 -4.32,-4.31 -6.46,-9.57 -6.46,-15.85l-0.13 0 0.13 -22.16c0,-12.51 -4.28,-23.11 -12.86,-31.69 -8.55,-8.59 -19.1,-12.91 -31.6,-12.91l0 0c-12.6,0 -23.15,4.28 -31.69,12.82 -8.51,8.59 -12.79,19.14 -12.79,31.74l0 111.14c0,6.19 -2.17,11.45 -6.49,15.81 -4.36,4.31 -9.61,6.49 -15.81,6.49 -6.27,0 -11.52,-2.13 -15.84,-6.45 -4.31,-4.32 -6.46,-9.57 -6.46,-15.85l0 -89.07c0,-25.11 8.55,-46.24 25.69,-63.29 17.14,-17.1 38.28,-25.64 63.39,-25.64l0 0c24.7,0 45.67,8.59 62.98,25.73 17.32,17.14 25.95,38.05 25.95,62.81l-0.14 0.13 0 0.12zm56.29 89.21c0,6.19 -2.19,11.45 -6.51,15.81 -4.36,4.31 -9.61,6.49 -15.79,6.49l0 0c-6.19,0 -11.45,-2.18 -15.81,-6.49 -4.32,-4.36 -6.49,-9.62 -6.49,-15.81l0 -89.6c0,-24.93 8.59,-45.9 25.81,-62.9 17.23,-17 38.28,-25.5 63.25,-25.5l0 0c26.45,0 48.69,10.14 66.77,30.4 17.72,-20.26 39.98,-30.4 66.77,-30.4l0 0c25.11,0 46.25,8.54 63.39,25.68 17.13,17.09 25.68,38.24 25.68,63.38l0 0 0 0 0 0 0 88.98c0,6.15 -2.18,11.41 -6.5,15.77 -4.36,4.31 -9.62,6.49 -15.8,6.49l0 0c-6.19,0 -11.45,-2.18 -15.81,-6.49 -4.32,-4.36 -6.49,-9.62 -6.49,-15.81l0 -111.24c0,-12.6 -4.28,-23.18 -12.78,-31.73 -8.54,-8.59 -19.09,-12.87 -31.69,-12.87l0 0c-12.6,0 -23.14,4.28 -31.69,12.87 -8.51,8.55 -12.78,19.13 -12.78,31.73l0 111.24c0,12.07 -5.96,19.36 -17.85,21.77 -1.73,0.36 -3.25,0.53 -4.45,0.53l0 0c-6.19,0 -11.44,-2.18 -15.8,-6.49 -4.32,-4.36 -6.5,-9.62 -6.5,-15.81l0 -111.24c0,-12.6 -4.27,-23.18 -12.78,-31.73 -8.54,-8.59 -19.09,-12.87 -31.69,-12.87l0 0c-12.6,0 -23.14,4.28 -31.69,12.87 -8.51,8.55 -12.77,19.13 -12.77,31.73l0 111.24zm420.48 -89.07l0 -22.12c0,-12.51 -4.28,-23.06 -12.86,-31.65 -8.55,-8.58 -19.1,-12.86 -31.61,-12.86l0 0c-12.6,0 -23.15,4.28 -31.69,12.82 -8.5,8.55 -12.78,19.1 -12.78,31.69l0 22.12 88.94 0zm-1.43 55.82l-0.18 0 0 0 0.18 0c1.57,-7.39 4.99,-11.08 10.29,-11.08l18.11 0c4.63,0 7.17,0.04 7.57,0.14 2.8,0.61 4.19,2.31 4.19,5.07 1.19,0 0.61,1.91 -1.83,5.74 -11.31,17.58 -22.48,30.71 -33.52,39.3 -13.98,10.91 -29.96,16.38 -47.85,16.38l0 0c-25.19,0 -46.39,-8.54 -63.43,-25.68 -17.09,-17.09 -25.64,-38.28 -25.64,-63.52l0 -22.17c0,-25.11 8.55,-46.24 25.68,-63.29 17.14,-17.1 38.28,-25.64 63.39,-25.64l0 0c24.71,0 45.67,8.59 62.99,25.77 17.31,17.18 25.95,38.15 25.95,62.9l-0.14 0.12 0 0.14 0.14 0c0,0.09 0.04,0.13 0.13,0.13 0,6.2 -2.09,11.41 -6.32,15.67 -4.22,4.23 -9.48,6.37 -15.71,6.37l0 0 -111.51 0 0 22.39c0,12.65 4.28,23.28 12.78,31.82 8.54,8.55 19.09,12.83 31.69,12.83l0 0c10.23,0 19.36,-3.07 27.25,-9.26 7.91,-6.19 13.17,-14.21 15.79,-24.13z"/>
    <polygon class="fil2" points="1767.72,1169.41 1796.89,1106.95 1849.77,1106.95 1800.99,1169.41 "/>
   </g>
  </g>
 </g>
</svg>
