<?xml version="1.0" encoding="UTF-8"?>
<!DOCTYPE svg PUBLIC "-//W3C//DTD SVG 1.1//EN" "http://www.w3.org/Graphics/SVG/1.1/DTD/svg11.dtd">
<!-- Creator: CorelDRAW 2017 -->
<svg xmlns="http://www.w3.org/2000/svg" xml:space="preserve" width="100mm" height="100mm" version="1.1" style="shape-rendering:geometricPrecision; text-rendering:geometricPrecision; image-rendering:optimizeQuality; fill-rule:evenodd; clip-rule:evenodd"
viewBox="0 0 10000 10000"
 xmlns:xlink="http://www.w3.org/1999/xlink">
 <defs>
  <style type="text/css">
   <![CDATA[
    .fil0 {fill:#373435}
    .fil4 {fill:#0C73B8}
    .fil2 {fill:#30AADD}
    .fil1 {fill:#63B9E2}
    .fil3 {fill:#F6F6F6}
   ]]>
  </style>
 </defs>
 <g id="Capa_x0020_1">
  <metadata id="CorelCorpID_0Corel-Layer"/>
  <g id="_1212859169216">
   <path class="fil0" d="M4361.06 770.45l-0.38 -270.33c59.17,-22.36 1072.01,-14.3 1081.92,-11.39 52.65,15.43 35.02,75.91 34.57,147.35 -0.4,61.6 6.59,115.21 -12.16,171.72l-483.08 8.61c9.72,79.14 16.19,72.58 74.43,103.24 -10.91,-46.49 -0.9,-45.34 -42.05,-67.02 142.91,-12.71 342.98,18.41 472.48,-24.54 52.1,-111.4 20.19,-406.92 -8.68,-364.81l-556.79 -8.39c-140.03,-1.82 -469.87,-33.06 -583.96,18.5l-11.13 231.77c12.44,91.57 -5.33,38.23 34.83,65.29zm-250.38 590.09l-0.02 317.09 -931.82 8.78 -1.92 -1168.46 957.28 -0.09c-43.9,-50.97 34.01,-21.84 -73.49,-40.25 -0.7,-0.12 -77.6,1.43 -85.15,1.6 -188.94,4.22 -709.5,-21.19 -822.49,11.28l3.55 1218.74c100.35,22.64 586.51,7.14 751.29,7.32 149.89,0.16 220.86,22.03 235.33,-51.81l3.5 -98.71c-2.33,-284.79 8.59,-173.11 -36.06,-205.49zm1131.68 -234.16c22.74,64.16 20.07,51.16 92.51,126.75 142.47,148.68 186.02,190.39 145.16,447.74l-1110.37 -7.08 3.09 -312.3 515.82 -5.54c-7.01,-69.83 -146.09,-220.07 -217.19,-252.62 53.36,81.55 148.81,147.88 175.18,229.02 -567.13,5.2 -509.69,-58.53 -510.41,196.45 -0.08,28.06 -3.13,77.49 -0.98,102.74 7.65,89.9 -0.48,35.27 21.57,57.57 42.58,40.78 477.92,14.26 564.58,13.15 571.82,-7.38 592.4,64.69 594.93,-104.87 2.65,-177.01 15.89,-193.22 -57.73,-267.16 -65.18,-65.48 -131.18,-163.91 -216.16,-223.85zm1534.11 206.88c38.84,87.92 91.53,95.17 54.43,354.46 -61.74,27.33 -997.43,25.04 -1116.06,8.27l4 -314.83 518.9 -5.81c-4.61,-63.4 -31.34,-90.33 -93.56,-118.23l14.8 29.71c2.18,5.05 4.55,10.25 6.64,15.36 14.55,35.58 6.28,10.02 15.58,49.39 -145.73,-0.32 -389.06,-25.31 -505.95,23.42l1.36 331.39c93.31,40.94 1069.98,41.26 1185.29,9.09 20.47,-172.25 34.01,-306.91 -85.43,-382.22zm-1035.13 -523.52c-40.93,-95.97 -30.6,-192.02 -26.31,-308.4l1099.48 -6.87 0.15 306.35 -500.86 8.97c-0.38,48.1 -2.67,72.2 90.92,116.25 -24.9,-46.12 -31.94,-46.9 -51.35,-87.02l473.23 -9.18c29.97,-78.28 39.13,-282.07 2.12,-343.72 -14.31,-16.16 13.2,-23.62 -116.52,-23.19l-439.65 4.48c-95.72,0 -191.52,1.34 -287.14,-1.89l-251.2 2.21c-68.77,20.03 -51.54,93.15 -51.81,185.79 -0.49,163.76 10.83,129.92 58.94,156.22zm260.87 279.86c-33.88,-66.55 -155.62,-186.48 -200.6,-216.69 34.23,76.15 125.74,180.88 200.6,216.69zm634.42 92.25c-32.47,-59.91 -120.07,-159.42 -173.02,-190.65 27.71,65.8 31.7,54.97 75.05,105.24 16.7,19.36 19.87,29.1 37.04,46.1 52.79,52.3 16.24,18.02 60.93,39.31zm-1978.7 -82.23c-23.63,-50.02 -43.24,-63.52 -71.68,-94.25 -17.28,-18.68 -23.77,-31.1 -38.16,-45.15 -41.51,-40.6 -15.95,-19.04 -61.29,-39.56 33.15,54.74 48.27,62.96 82.48,101.53 13.77,15.53 18.69,27.06 38.63,45.49 29.92,27.64 12.43,13.15 50.02,31.94zm-296.87 -329.17c15.73,28.58 90.57,109.71 125.74,150.21 45.34,20.52 19.78,-1.04 61.29,39.56 14.39,14.05 20.88,26.47 38.16,45.15 28.44,30.73 48.05,44.23 71.68,94.25 14.45,15.05 4.44,-6.31 13.45,23.71 71.1,32.55 210.18,182.79 217.19,252.62l-515.82 5.54 -3.09 312.3 1110.37 7.08c40.86,-257.35 -2.69,-299.06 -145.16,-447.74 -72.44,-75.59 -69.77,-62.59 -92.51,-126.75l-186 -206.73c-58.24,-30.66 -64.71,-24.1 -74.43,-103.24l483.08 -8.61c18.75,-56.51 11.76,-110.12 12.16,-171.72 0.45,-71.44 18.08,-131.92 -34.57,-147.35 -9.91,-2.91 -1022.75,-10.97 -1081.92,11.39l0.38 270.33zm1380.28 39.29c28.6,25.12 28.65,40.78 60.27,63.17 44.98,30.21 166.72,150.14 200.6,216.69l141.97 167.52c62.22,27.9 88.95,54.83 93.56,118.23l-518.9 5.81 -4 314.83c118.63,16.77 1054.32,19.06 1116.06,-8.27 37.1,-259.29 -15.59,-266.54 -54.43,-354.46l-139.84 -151.41c-44.69,-21.29 -8.14,12.99 -60.93,-39.31 -17.17,-17 -20.34,-26.74 -37.04,-46.1 -43.35,-50.27 -47.34,-39.44 -75.05,-105.24 -25.23,-23.15 -35.61,-39.64 -58.89,-65.16 -93.59,-44.05 -91.3,-68.15 -90.92,-116.25l500.86 -8.97 -0.15 -306.35 -1099.48 6.87c-4.29,116.38 -14.62,212.43 26.31,308.4zm-1630.66 550.8c-122.56,-18.17 -432.87,29.06 -518.77,-16.2 -25.43,-20.39 -23.51,-22.08 -22.86,-115.82l5.38 -390.19 560.71 -0.98 -0.94 -319.49 -957.28 0.09 1.92 1168.46 931.82 -8.78 0.02 -317.09z"/>
   <path class="fil1" d="M4988 5159.36l-942.58 3.01c-17.27,70.04 29.47,779.09 74.69,821.98 59.84,52.11 743.93,24.15 873.44,14.68 248.41,58.43 704.63,-24.66 966.97,17.88l-64.65 863.16c56.69,-67.9 95.45,-839.35 91.05,-889.7l-1842.62 -15.92c-30.48,-52.21 -93.26,-703.46 -79.74,-786.13l1888.54 -7.15c158.64,-0.96 122.73,-26.37 144.13,-308.18 -43.84,40.1 -8.68,-53.13 -40.27,71.89 -14.73,58.23 15.38,118.45 -25.98,196.67 -179.69,53.81 -798.29,-33.63 -1042.98,17.81z"/>
   <path class="fil1" d="M3518.41 7709.48c-37.33,-44.18 -67.14,-45.37 -146.27,-63.86 -15.86,-82.48 1.19,-69.01 -38.54,-126.73l14.78 148.32 170.03 42.27z"/>
   <path class="fil2" d="M4978.46 3549.01l2031.89 0.72c19.25,105.25 -337.51,4045.64 -351.14,4076.8 -32,51.62 -33.46,42.79 -111.41,61.48 -295.68,70.88 -604.82,179.67 -896.75,249.81 -167.99,40.37 -342.69,100.83 -526.03,140.66 -233.11,50.65 -346.79,-66.4 -558.31,-87.98 23.82,26.06 -67.91,-13.87 61.44,43.81 18.02,8.04 34.33,10.41 52.16,14.98 105.59,27.04 206.02,43.48 315.52,89.9l0.79 839.15c85.99,19.55 446.29,-93.6 551.77,-126.11 338,-104.19 711.05,-172.94 1061.37,-292.05 129.94,-44.18 454.13,-117.6 520.41,-150.59 54.55,-471.44 81.91,-947.3 128.78,-1417.14 44.92,-450.29 98.56,-935.8 119.88,-1404.98l130.18 -1379.57c30.65,-242.02 19.59,-489.13 48.42,-724.78 19.95,-163.1 83.37,-491.49 65.48,-681.32 -258.57,-15.39 -2523.51,-21.61 -2602.78,11.17l-17.26 86.58c-1.23,30.4 0.93,70.78 1.12,102.44 0.84,148.79 16.97,449.84 -25.53,547.02z"/>
   <path class="fil2" d="M4992.87 7256.49c134.13,-8.13 803.66,-196.5 909.4,-246.2l-6.4 -130.22 64.65 -863.16c-262.34,-42.54 -718.56,40.55 -966.97,-17.88l-0.68 1257.46z"/>
   <path class="fil2" d="M4988 5159.36c244.69,-51.44 863.29,36 1042.98,-17.81 41.36,-78.22 11.25,-138.44 25.98,-196.67 31.59,-125.02 -3.57,-31.79 40.27,-71.89 -4.33,-137.93 52.07,-379.63 19.06,-513.6l-2309.73 -6.41c-182.63,0 -625.85,37.05 -758.87,-24.97 12.82,61.86 2.22,49.47 81.1,59.25l1858.99 0.46 0.22 771.64z"/>
   <path class="fil3" d="M3047.69 4328.01c133.02,62.02 576.24,24.97 758.87,24.97l2309.73 6.41c33.01,133.97 -23.39,375.67 -19.06,513.6 -21.4,281.81 14.51,307.22 -144.13,308.18l-1888.54 7.15c-13.52,82.67 49.26,733.92 79.74,786.13l1842.62 15.92c4.4,50.35 -34.36,821.8 -91.05,889.7l6.4 130.22c-105.74,49.7 -775.27,238.07 -909.4,246.2 -222.4,-27.61 -675.81,-185.45 -880.28,-233.39 -13.02,-123.13 -36.58,-553.16 -69.33,-624.45 -80.33,-32.16 -657.35,-15.11 -787.16,-9.92 -25.86,131.09 102.79,926.84 77.5,1130.16 39.73,57.72 22.68,44.25 38.54,126.73 79.13,18.49 108.94,19.68 146.27,63.86 49.6,0.19 190.94,48.56 260.62,65.54 102.37,24.94 153.82,48.61 264.56,73.11 161.52,35.72 340.47,107.77 523.12,142.37 211.52,21.58 325.2,138.63 558.31,87.98 183.34,-39.83 358.04,-100.29 526.03,-140.66 291.93,-70.14 601.07,-178.93 896.75,-249.81 77.95,-18.69 79.41,-9.86 111.41,-61.48 13.63,-31.16 370.39,-3971.55 351.14,-4076.8l-2031.89 -0.72 -1977.04 -1.2c-33.29,205.75 77.01,558.57 46.27,780.2z"/>
   <path class="fil4" d="M4566.71 7990.5c-182.65,-34.6 -361.6,-106.65 -523.12,-142.37 -110.74,-24.5 -162.19,-48.17 -264.56,-73.11 -69.68,-16.98 -211.02,-65.35 -260.62,-65.54l-170.03 -42.27 -14.78 -148.32c25.29,-203.32 -103.36,-999.07 -77.5,-1130.16 129.81,-5.19 706.83,-22.24 787.16,9.92 32.75,71.29 56.31,501.32 69.33,624.45 204.47,47.94 657.88,205.78 880.28,233.39l0.68 -1257.46c-129.51,9.47 -813.6,37.43 -873.44,-14.68 -45.22,-42.89 -91.96,-751.94 -74.69,-821.98l942.58 -3.01 -0.22 -771.64 -1858.99 -0.46c-78.88,-9.78 -68.28,2.61 -81.1,-59.25 30.74,-221.63 -79.56,-574.45 -46.27,-780.2l1977.04 1.2c42.5,-97.18 26.37,-398.23 25.53,-547.02 -0.19,-31.66 -2.35,-72.04 -1.12,-102.44l17.26 -86.58c79.27,-32.78 2344.21,-26.56 2602.78,-11.17 17.89,189.83 -45.53,518.22 -65.48,681.32 -28.83,235.65 -17.77,482.76 -48.42,724.78l-130.18 1379.57c-21.32,469.18 -74.96,954.69 -119.88,1404.98 -46.87,469.84 -74.23,945.7 -128.78,1417.14 -66.28,32.99 -390.47,106.41 -520.41,150.59 -350.32,119.11 -723.37,187.86 -1061.37,292.05 -105.48,32.51 -465.78,145.66 -551.77,126.11l-0.79 -839.15c-109.5,-46.42 -209.93,-62.86 -315.52,-89.9 -17.83,-4.57 -34.14,-6.94 -52.16,-14.98 -129.35,-57.68 -37.62,-17.75 -61.44,-43.81zm3288.27 -1631.8c61.13,-493.21 92.07,-1127.95 145.25,-1627.3 28.71,-269.62 54.41,-544.52 69.99,-834.23 7.03,-130.6 26.15,-287.45 39.26,-408.65 18.93,-174.97 113.16,-1115.48 87.93,-1226.39l-6397.36 1.45c-19.09,122.92 127.39,1489.88 134.95,1651.38 26.02,555.08 119.01,1087.88 146.4,1639.05 0.02,0.45 267.25,3127.4 297.4,3278.04l1971.91 552.71c109.12,26.44 249.12,60.78 335.9,89.16 63.4,20.73 253.86,84.02 318.49,82.2l1319.82 -363.89c121.67,-27.9 1271.88,-337.28 1298.86,-372.26 36.34,-47.12 197.77,-2191.48 231.2,-2461.27z"/>
  </g>
 </g>
</svg>
