<?xml version="1.0" encoding="UTF-8"?>
<!DOCTYPE svg PUBLIC "-//W3C//DTD SVG 1.1//EN" "http://www.w3.org/Graphics/SVG/1.1/DTD/svg11.dtd">
<!-- Creator: CorelDRAW 2017 -->
<svg xmlns="http://www.w3.org/2000/svg" xml:space="preserve" width="15.2398mm" height="1.8626mm" version="1.1" style="shape-rendering:geometricPrecision; text-rendering:geometricPrecision; image-rendering:optimizeQuality; fill-rule:evenodd; clip-rule:evenodd"
viewBox="0 0 1523.98 186.26"
 xmlns:xlink="http://www.w3.org/1999/xlink">
 <defs>
  <style type="text/css">
   <![CDATA[
    .fil0 {fill:black}
   ]]>
  </style>
 </defs>
 <g id="Capa_x0020_1">
  <metadata id="CorelCorpID_0Corel-Layer"/>
  <g id="_2634317322080">
   <g>
    <path class="fil0" d="M1350.16 116.89c0,19 3.21,26.56 15.77,39.7 3.02,3.16 4.81,6.57 9.23,7.81 -6.48,-10.15 -5.95,-7.03 -5.95,-22.5 0,-18.29 17.35,-41.83 27.16,-59 0.94,-1.63 1.16,-2.08 2.18,-3.96l2.81 -4.56c1.16,5.27 3.57,12.22 3.57,18.75 0,10.84 -4.22,19.99 -0.73,29.52 3.83,10.44 11.72,9.25 24.54,9.25 6.2,13.57 -1.94,21.86 -9.52,33.75 4.22,-1.18 5.77,-4.15 8.63,-7.18 7.87,-8.35 15.49,-16.05 18.27,-30.83 1.92,-10.21 1.57,-18.18 -1.55,-27.37 -2.36,-6.96 -7.41,-17.48 -12.26,-20.89 -4,7.95 -4.66,13.56 -13.09,13.75 0,-18.58 9.93,-31.71 -9.03,-60.54 -3.07,-4.68 -6.04,-7.17 -9.73,-11.04 -3.42,-3.59 -6.04,-8.29 -11.01,-9.69 3.5,44.24 -39.29,75.96 -39.29,105.03z"/>
    <path class="fil0" d="M1050.12 53.12c-0.29,-13.63 -10.71,-9.02 -10.71,-3.75l0 86.28c0,6.39 0.88,10 7.14,10 7.52,0 5.96,-13.05 5.95,-21.26l-0.03 -55.05c0.45,-4.57 2.06,-5.87 5.08,-8.41 8.5,-7.16 20,-5.95 20.02,10.88l-0.06 52.58c-0.02,11.22 -1.71,21.26 7.14,21.26 8.84,0 5.95,-35.15 5.95,-47.51 0,-23.4 -5.26,-41.26 15.48,-41.26 13.33,0 9.53,24.13 9.53,43.76 0,11.95 -2.52,40.65 3.57,43.93 1.64,0.89 0.8,0.58 2.39,0.57 5.42,-0.06 7.13,-3.86 7.13,-11.99l0 -63.77c0,-28.65 -22.63,-29.27 -34.21,-23.42 -4.36,2.2 -4.94,4.55 -8.65,7.16 -5.79,-4.07 -8.55,-10 -17.86,-10 -10.72,0 -11.77,5.72 -17.86,10z"/>
    <path class="fil0" d="M636.97 114.39l0 -38.76c0,-5.89 5.02,-11.96 8.8,-14.52 8,-5.44 25.11,-5.31 35.28,-0.51 4.54,2.15 9.08,6.41 13.07,7.53 0,6.38 1.07,47.49 -0.95,51.51 -0.93,1.83 -8.01,7.34 -9.78,8.48 -13.15,8.51 -46.42,5.37 -46.42,-13.73zm55.96 -60.02c-10.61,-7.46 -15.74,-11.25 -32.14,-11.25 -43.69,0 -38.1,36.17 -38.1,65.02 0,42.53 46.14,42.06 63.19,31.34 5.9,-3.7 6.62,-5.81 8.4,-3.82 3.56,4 -1.77,9.99 6.99,9.99 2.79,0 4.76,-2.08 4.76,-5 0,-21.96 1.75,-124.28 -1.19,-137.54 -11.66,-2.85 -11.93,-0.77 -11.91,21.26 0.02,10 0,20 0,30z"/>
    <path class="fil0" d="M951.3 118.14c0,-8.85 -0.85,-13.49 9.1,-17.95 10.04,-4.49 42.1,-3.68 42.1,4.2 0,16.09 2.22,15.48 -9.99,23.27 -15.27,9.75 -41.21,4.49 -41.21,-9.52zm-14.29 -47.51c0,4.81 1.76,8.75 7.15,8.75 9.4,0 -0.16,-25.44 33.16,-23.59 29.01,1.61 25.18,16.4 25.18,33.59 -14.95,-7.53 -40.35,-9.1 -53.79,2.29 -23.89,20.22 -8.54,52.73 19.26,52.73 21.08,0 19.03,0.48 35.72,-11.25 1.57,7.09 5.42,6.77 11.59,9.14 5.85,2.26 12.22,3.53 12.22,-5.39 0,-11.14 -12.12,4.1 -11.92,-23.74 0.08,-12.52 -0.02,-25.04 0.04,-37.56 0.03,-6.37 -0.23,-10.61 -2.03,-15.37 -1.51,-4.02 -4.55,-8.77 -7.44,-10.94 -17.5,-13.1 -69.14,-10.63 -69.14,21.34z"/>
    <path class="fil0" d="M1193 131.9c-9.54,0 -10.92,-0.05 -20.95,-4.26 -4.78,-2.01 -9.78,-5.93 -13.58,-7 0,-14.28 -0.81,-31.17 -0.09,-45.1 0.59,-11.58 16.29,-18.66 26.28,-18.66 37.82,0 30.96,12.23 30.96,58.76 0,10.83 -12.07,16.26 -22.62,16.26zm-46.44 -81.28l0 126.29c0,7.31 3.03,7.5 6.78,7.5l0.18 0 0.19 0c7.03,0 4.76,-15.14 4.76,-22.51 0,-9.17 0,-18.33 0,-27.5 5.15,3.62 7.09,5.32 13.93,7.87 24.17,9.02 56.32,-0.84 56.32,-26.63l0 -41.26c0,-30.05 -32.27,-36.38 -54.94,-27.68 -4.87,1.87 -10.88,5.34 -15.31,6.42 -2.99,-13.49 -11.91,-12.6 -11.91,-2.5z"/>
    <path class="fil0" d="M220.26 74.38c0,-9.5 13.04,-17.5 22.62,-17.5 18.05,0 33.65,0.2 35.72,26.25l-58.34 0 0 -8.75zm-13.1 0c0,36.44 -7.7,71.27 41.67,71.27 8.62,0 21.59,-2.23 27.41,-4.98 21.31,-10.07 18.6,-23.78 11.88,-23.78 -4.84,0 -14.59,15.01 -32.15,15.01 -37.38,0 -35.71,-8.07 -35.71,-35.01l63.1 0c15,0 5.26,-31.58 1.89,-37 -17.65,-28.42 -78.09,-19.18 -78.09,14.49z"/>
    <path class="fil0" d="M740.56 78.13c0,-13.79 11.97,-21.25 25,-21.25l8.34 0c15.83,0 25,9.33 25,26.25l-58.34 0 0 -5zm-13.1 7.5c0,18.31 -1.8,38.33 9.76,49.77 13.22,13.07 47.36,12.39 62.84,3.96 2.6,-1.41 9.03,-6.34 10.81,-8.67 0.96,-1.27 2.78,-4.27 3.04,-6.7 0.16,-1.54 0.27,-1.96 -0.53,-3.46 -6.12,-11.48 -14.38,11.37 -37.1,11.37 -33.89,0 -35.72,-6.59 -35.72,-35.01l65.48 0c11.01,0 12.16,-53.77 -34.53,-53.77 -29.14,0 -44.05,12.41 -44.05,42.51z"/>
    <path class="fil0" d="M323.84 78.13c0,-28.87 58.34,-29.26 58.34,1.25l0 3.75 -58.34 0 0 -5zm-11.91 -5l0 42.51c0,37.59 67.37,36.41 82.25,15.09 6.3,-9.03 1.65,-14.93 -4.02,-13.05 -9.18,3.05 -5.17,14.22 -41.32,14.22 -26.12,0 -25,-18.48 -25,-35.01l65.48 0c10.97,0 12.24,-53.77 -34.52,-53.77 -20.21,0 -42.87,9.64 -42.87,30.01z"/>
    <path class="fil0" d="M833.43 48.12l0 56.27c0,49.27 58.91,43.82 72.31,32.18 11.51,-9.99 14.15,-18.11 11.03,-32.18 -17.24,-4.22 -5.86,7.69 -16.29,19.15 -12.35,13.56 -52.77,14.91 -52.77,-24.15l0 -47.52c0,-29.4 15.12,-31.25 33.34,-31.25 29.01,0 19.44,30 30.96,30 12.07,0 9.6,-43.76 -34.53,-43.76 -26.87,0 -44.05,13.19 -44.05,41.26z"/>
    <path class="fil0" d="M416.71 50.62l0 53.77c0,55.97 84.53,48.2 84.53,10 0,-8.81 -0.01,-11.25 -7.14,-11.25 -9.22,0 1.89,28.76 -32.15,28.76 -21.31,0 -30.95,-11.62 -30.95,-33.76 0,-19.46 -2.9,-55.48 5.39,-68.11 6.74,-10.28 18.02,-9.41 27.94,-9.41 29.26,0 19.6,30 30.96,30 11.83,0 9.97,-43.76 -34.53,-43.76 -28.03,0 -44.05,13.62 -44.05,43.76z"/>
    <path class="fil0" d="M561.96 131.9c-35.71,0 -29.76,-18.08 -29.76,-55.02 0,-16.55 15.45,-21.7 30.52,-20.67 33.81,2.33 29.01,13.87 29.01,51.93 0,20.05 -12.81,23.76 -29.77,23.76zm-41.67 -60.02l0 45.01c0,11.26 7.37,19.06 15.03,22.98 14.28,7.3 46.31,7.85 59.12,-3.88 13.43,-12.31 10.39,-31.55 10.39,-54.11 0,-30.5 -15.88,-38.76 -44.06,-38.76 -18.31,0 -40.48,7.41 -40.48,28.76z"/>
    <path class="fil0" d="M20.23 30.62l0 15c-15.22,0 -20.24,-1.94 -20.24,7.5 0,7.21 10.28,5.01 21.43,5.01l0 81.27c0,2.72 1.68,4.16 3.52,5.15 4.46,2.42 3.34,-0.15 7.2,-0.15 2.76,-12.47 1.19,-69.3 1.19,-86.27 23.36,0 32.14,3.2 32.14,-7.51 0,-7.79 -19.84,-5 -32.14,-5 0,-15.43 -0.16,-31.63 18.94,-31.04 23.44,0.71 12.81,19.79 25.11,19.79 11.21,0 7.86,-32.51 -22.62,-32.51 -17.58,0 -34.53,3.93 -34.53,28.76z"/>
    <path class="fil0" d="M140.48 55.62c0,-4.93 -0.37,-5.07 -1.19,-8.75 -9.62,-2.35 -20.92,-1.25 -30.95,-1.25 -3.37,0 -4.6,2.87 -5.96,5 2.24,10.1 5.16,7.51 26.2,7.51l0 72.52c-10.69,0 -16.05,-0.95 -25.01,1.25 -1.29,5.85 -4.57,12.5 11.91,12.5l41.67 0c9.02,0 11.1,-1.16 14.29,-7.5 -4.45,-8.84 -3.55,-6.25 -29.77,-6.25l0 -57.52c0,-3.11 11.38,-16.25 19.05,-16.25 19.81,0 8.09,11.04 19.05,18.75 16.56,-4.05 3.82,-32.51 -14.28,-32.51 -12.33,0 -17.12,6.96 -25.01,12.5z"/>
    <path class="fil0" d="M1272.77 84.38c0,33.52 9.39,66 32.41,88.5 9.35,9.14 11.3,6.23 15.21,5.28 2.31,-10.1 1.5,-6.45 -11.08,-22.12 -19,-23.67 -19.7,-37.34 -22.98,-65.97 -1.47,-12.79 4.27,-36.23 10.23,-48.22 2.69,-5.42 7.75,-13.2 11.64,-17.79 2.97,-3.51 13.38,-12.57 13.38,-17.2 0,-4.66 -3.54,-4.98 -6.24,-5l-0.77 0 -0.13 0c-7.43,0 -24.58,25.15 -28.82,32.25 -7.11,11.88 -12.85,31.25 -12.85,50.27z"/>
    <path class="fil0" d="M1510.89 86.88c0,61.22 -35.72,76.6 -35.72,86.28 0,2.59 3.49,6.25 4.77,6.25 16.83,0 44.05,-46.83 44.05,-85.02 0,-36.65 -3.6,-51.31 -25.82,-79.16 -6.91,-8.66 -12.28,-12.41 -16.05,-13.37l-3.6 0c-3.08,1.05 -3.74,5.04 -1.83,8.23 6.25,10.46 34.2,27.43 34.2,76.79z"/>
   </g>
  </g>
 </g>
</svg>
