<?xml version="1.0" encoding="UTF-8"?>
<!DOCTYPE svg PUBLIC "-//W3C//DTD SVG 1.1//EN" "http://www.w3.org/Graphics/SVG/1.1/DTD/svg11.dtd">
<!-- Creator: CorelDRAW 2017 -->
<svg xmlns="http://www.w3.org/2000/svg" xml:space="preserve" width="84.667mm" height="84.667mm" version="1.1" style="shape-rendering:geometricPrecision; text-rendering:geometricPrecision; image-rendering:optimizeQuality; fill-rule:evenodd; clip-rule:evenodd"
viewBox="0 0 8466.7 8466.7"
 xmlns:xlink="http://www.w3.org/1999/xlink">
 <defs>
  <style type="text/css">
   <![CDATA[
    .fil0 {fill:#FEFEFE}
    .fil29 {fill:#36A955}
    .fil18 {fill:#6CBA83}
    .fil35 {fill:#9DC9AA}
    .fil28 {fill:#BED4C8}
    .fil23 {fill:#DBDDE1}
    .fil26 {fill:#DEC1C2}
    .fil33 {fill:#E1A7A6}
    .fil3 {fill:#E47B75}
    .fil34 {fill:#E4847D}
    .fil22 {fill:#E5E6E9}
    .fil1 {fill:#E7645A}
    .fil37 {fill:#E85549}
    .fil48 {fill:#E85C51}
    .fil30 {fill:#EA4436}
    .fil27 {fill:#ECEEF0}
    .fil25 {fill:#F5F5F6}
    .fil21 {fill:#F9BB08}
    .fil43 {fill:#F9C01A}
    .fil42 {fill:#F9C632}
    .fil39 {fill:#FAC01D}
    .fil7 {fill:#FAC222}
    .fil8 {fill:#FAC325}
    .fil46 {fill:#FAC52E}
    .fil44 {fill:#FACA3E}
    .fil41 {fill:#FAD872}
    .fil38 {fill:#FBCC46}
    .fil12 {fill:#FBCE4E}
    .fil2 {fill:#FBCF51}
    .fil31 {fill:#FBD053}
    .fil5 {fill:#FBD056}
    .fil9 {fill:#FBD159}
    .fil14 {fill:#FBD360}
    .fil49 {fill:#FBDD85}
    .fil20 {fill:#FBDF8A}
    .fil32 {fill:#FCDF8D}
    .fil45 {fill:#FCE08E}
    .fil10 {fill:#FDE6A6}
    .fil13 {fill:#FDE8AA}
    .fil36 {fill:#FDEAB1}
    .fil47 {fill:#FDEBB5}
    .fil40 {fill:#FDECBA}
    .fil19 {fill:#FDEDBE}
    .fil4 {fill:#FEEFC5}
    .fil11 {fill:#FEF3D2}
    .fil6 {fill:#FEF4D6}
    .fil15 {fill:#FEF5DE}
    .fil17 {fill:#FEF9E8}
    .fil16 {fill:#FEF9EB}
    .fil24 {fill:#FEFEFE}
   ]]>
  </style>
 </defs>
 <g id="Capa_x0020_1">
  <metadata id="CorelCorpID_0Corel-Layer"/>
  <ellipse class="fil0" cx="4233.35" cy="4233.35" rx="4233.35" ry="4233.34"/>
  <g id="_2563117931072">
   <g>
    <path class="fil1" d="M2425.62 2982.59l32.21 7.06c10.61,-55.38 30.36,-59.27 33.49,-77.02 1.33,-7.54 4.37,-9.14 6.33,-13.82l-53.85 17.09 -18.18 66.69z"/>
    <path class="fil1" d="M2497.65 2652.75c-19.16,-45.87 7.35,-7.73 -23.2,-48.66 -40.85,-54.7 -12.25,-16.97 -48.83,-38.49l18.03 70.1 54 17.05z"/>
   </g>
   <g>
    <path class="fil2" d="M4796.85 4937.6l-37.31 34.49c-1.62,1.6 -5.24,5.19 -7.62,8l67.42 5.37 28.54 -23.27c48.87,-37.64 22.83,-4.18 49.6,-54.83 -66.15,16.46 -43.27,26.19 -100.63,30.24z"/>
    <path class="fil2" d="M4298.72 4989.12c18.85,-17.19 10,-5.18 28.04,-29.18 6.6,-8.78 11.14,-18.46 16.36,-28.18 22.44,-41.74 15.63,-24.62 28.2,-74.46 -33.49,11.75 -39.08,-3.46 -61.5,43.16 -14.96,31.15 -10.91,56.2 -11.1,88.66z"/>
   </g>
   <g>
    <path class="fil3" d="M2023.3 3025.56c35.67,123.12 325.33,64.21 329.5,62.78 50.97,-27.35 47.31,-60.55 43.39,-45.55 50.02,-21.46 42.5,-8.92 61.64,-53.14l-32.21 -7.06 4.46 -1.96c-173.37,201.33 -359.75,50.49 -406.78,44.93z"/>
    <path class="fil3" d="M2023.3 3025.56c-43.03,-102.09 -135.76,-83.39 -112.55,-301.2l31.05 -107.63c0.78,-2.48 2.07,-7.5 2.68,-11.33 -77.76,24.75 -58.31,178.97 -51.66,250.66 6.53,70.41 62.39,163.96 130.48,169.5z"/>
   </g>
   <g>
    <path class="fil4" d="M4883.95 4822.61c73.42,-8.81 34.06,5.92 44.16,14.54 -37.92,13.82 -75.77,9.75 -107.92,23.11 -65.74,27.31 -14.13,33.6 -69.5,57.64 -98.59,42.8 -102.98,-10.44 -154.01,92.84 59.34,14.81 37.57,-10.01 85.17,-41.41 35.6,-23.48 73.31,-30.68 115,-31.73 10.94,-19.5 -16.22,-4.18 33.53,-39.32 22.18,-15.67 6.82,-6.4 35.49,-16.5 54.49,-19.18 54.58,-6.08 101.72,-44.63 -19.35,-37.12 -34.51,-45.54 -84.75,-72.48 -33.03,-17.71 20.28,4 -40.09,-17.54 10.02,25.29 8.41,21.12 18.51,40.05 2.28,4.28 3.01,42.41 14.78,23.87 1.42,-2.24 5.38,7.64 7.91,11.56z"/>
    <path class="fil4" d="M3693.26 4928.3c-5.96,-42.99 4.92,-17.75 -22.66,-62.39l-68.59 -5.47c20.06,28.13 2.37,9.17 25.27,31.74 3.33,3.28 13.45,11.62 17.04,14.26 18.97,13.92 22.9,14.69 48.94,21.86z"/>
   </g>
   <g>
    <path class="fil5" d="M4105.29 5561.16l8.97 25.1c48.41,-2.85 42.12,-82.51 61.76,-131.01 26.79,-66.23 44.9,-52.55 46.51,-150.55 14.5,-108 60.87,-137.79 68.69,-219.63 -108.19,58.07 -54.21,141.5 -101.19,247.54 -20.97,47.35 -34.05,36.38 -49.74,110.49 -5.76,27.22 -5.94,117.04 -35,118.06z"/>
    <path class="fil5" d="M5010.32 4493.61c-12.74,-20.76 6.4,-11.64 -31.11,-29.14 -19.22,-8.97 -23.61,-3.74 -36.63,-3.5l-77.76 -40.39c7.8,68.76 86.43,78.34 145.5,73.03z"/>
   </g>
   <g>
    <path class="fil6" d="M4249.18 5304.7c-10.56,169.69 -45.52,140.68 -73.62,239.01 154.39,-27.53 40.82,-164.69 113.8,-261.07 33.07,-43.68 45.13,-35.49 52.62,-112.33 5.16,-52.89 22.46,-122.76 12.42,-166.53 -22.13,19.48 -22,36.17 -30.04,81.03 -27.2,151.86 -59.09,99.1 -75.18,219.89z"/>
    <path class="fil6" d="M3537.85 4822.61l116.6 -25.58c54.86,-105.66 80.63,7 202.71,-149.04 -115.83,14.77 -73.99,45.3 -172.19,74.69 -40.75,12.19 -48.34,7.98 -83.5,31.59 -2.79,1.87 -32.05,26.3 -32.33,26.59 -33.07,33.74 -8.63,3.87 -31.29,41.75z"/>
   </g>
   <g>
    <path class="fil7" d="M3796.65 5248.56c3.37,-2.9 8.04,-12.08 9.68,-9.19 16.62,29.5 15.06,-14.21 17.98,-17 86.19,-82.03 51.89,-27.04 65.02,-99.9l-152.99 -120.71c-62.2,-42.57 -103.53,-8.56 -189.75,-102.27 -63.34,11.23 -101.7,-11.31 -129.37,-62.34 25.65,-58.56 15.26,-25.81 60.55,-70.78 -93.25,8.76 -89.76,37.1 -70.66,128.65 137.51,31.48 53.15,16.64 124.85,62.27 41.69,26.52 114.96,22.57 158.69,48.7 44.38,26.51 2.52,15.45 50.46,45.77 42.78,27.05 28.8,-6.01 65.44,39.69 50.44,62.89 3.26,85.28 -9.9,157.11z"/>
    <path class="fil7" d="M4914.78 4909.4l-17.3 -2.04c-26.77,50.65 -0.73,17.19 -49.6,54.83l-28.54 23.27c173.1,-5.04 58.95,-48.95 240.23,-90.44 10.59,-50.74 10.66,-86.13 -9.61,-120.21l-61.04 -8.44c45.29,44.97 34.89,12.22 60.55,70.78 -30.71,56.63 -60.17,63.03 -134.69,72.25z"/>
   </g>
   <g>
    <path class="fil8" d="M3600.92 4415.53l-1.68 4.78c-5.65,64.82 -51.97,57.81 -113.53,77.4 -52.51,16.73 -74.04,38.46 -103.98,78.98 113.31,-9.57 35.18,-33.86 116.87,-62.81 45,-15.96 122.13,-22.75 170.58,-23.83 18.76,-90.21 34.03,-72.69 138.54,-65.96l-3.79 181.54c65.45,-46.86 6.49,-33.08 81.9,-57.36 17.82,-199.69 -130.22,-162.65 -284.91,-132.74z"/>
    <path class="fil8" d="M4114.26 5586.26l-8.97 -25.1c-81.52,8.92 -61.34,25.31 -164.56,13.73l0.73 -199.9c-38.86,71.54 -39.41,167.66 16.93,240.67 148.17,15.43 49.19,-16.71 155.87,-29.4z"/>
   </g>
   <g>
    <path class="fil9" d="M4059.68 4901.03c-7.6,72.78 -3.38,29.12 -32.04,89.33 -41.57,87.32 -10.24,125.58 -79.02,227.88 -24.09,35.82 -4.16,-15.41 -23.2,40.26 -23.73,69.43 -41.55,258.37 -33.35,321.76 39.56,56.72 109.04,143.96 199.76,41.17 22.74,-25.77 10.56,-4.71 22.43,-35.17 -106.68,12.69 -7.7,44.83 -155.87,29.4 -56.34,-73.01 -55.79,-169.13 -16.93,-240.67l-3.44 -57.82c17.83,-70.8 17.72,-19.12 59.03,-136 19.92,-56.34 -20.02,44.19 9.48,-23.34l14.62 -21.91 -3.84 -43.29c20.45,-85.31 88.45,-147.97 61.44,-233.54 -15.24,13.5 -12.65,-43.38 -19.07,41.94z"/>
    <path class="fil9" d="M3889.33 5122.47c14.46,-70.59 -64.94,-66.87 -165.05,-159.21 -2.87,-2.65 -6.97,-7.04 -10.39,-10.62l0.93 7.65c-104.54,-17.83 -85.42,-68.83 -168.23,-60.8 86.22,93.71 127.55,59.7 189.75,102.27l152.99 120.71z"/>
   </g>
   <g>
    <path class="fil10" d="M2989.22 4681.4c-2.97,3.36 -7.59,3.78 -9.16,9.85l-32.1 31.63c-69.47,81.66 -12.82,133.72 -16.46,229.92 34.73,13.38 59.88,21.56 101.61,28.93 -51.26,-60.61 -66.61,-11.62 -84.93,-88.35 -9.88,-41.41 -4.01,-112.2 3.07,-154.25 27.08,-48.33 204.72,-113.64 222.34,-122.29 41.22,-20.22 33.02,-29.33 79.51,-49.41 80.51,-34.76 81.53,-22.87 161.59,-70.91 21.48,-12.87 159.05,-67.33 184.55,-76.21l1.68 -4.78c3.34,-3.46 13.56,-14.93 15.82,-17.37 1.9,-2.05 6.33,-6.88 8.24,-8.93 1.93,-2.08 5.49,-6.1 8.41,-8.98 -142.06,-11.21 -83.11,31.43 -168.4,63.71 -28.77,10.88 -59.14,10.43 -90.17,27.06 -48.5,26.01 -17.16,31.93 -74.56,52.46 -33.18,11.89 -69.87,12.81 -96.75,23.53 -48.04,19.16 -29.58,26.9 -63.69,47.94 -76.12,46.91 -83.22,-4.27 -150.6,86.45z"/>
    <path class="fil10" d="M4114.26 5586.26c-11.87,30.46 0.31,9.4 -22.43,35.17 -90.72,102.79 -160.2,15.55 -199.76,-41.17 -82.1,-76.94 6.52,-142.57 -1.05,-215.97 -93.79,98.3 -77.8,207.65 19.37,301.36 40.61,39.15 121.57,45.32 174.13,6.09 73.97,-55.21 79.33,-92.52 105.36,-120.26l-14.32 -7.77c28.1,-98.33 63.06,-69.32 73.62,-239.01l-26.65 0c-1.61,98 -19.72,84.32 -46.51,150.55 -19.64,48.5 -13.35,128.16 -61.76,131.01z"/>
   </g>
   <g>
    <path class="fil11" d="M4354.4 5003.78c96.06,-0.3 53.25,-125.15 88.82,-207.05 46.75,-107.65 37.98,-20.78 71.28,-236.43 32.69,80.49 -10.55,62.97 67.3,99.31 53.43,24.96 77.22,101.85 197.68,82.73l67.12 13.74c-17.52,-16.76 -5.77,-8.21 -30.72,-21.78l-83.77 -35.35c-185.15,-110.36 -159.55,-48.02 -207.91,-226.02l-30.47 61.07c-49.01,193.69 -48.81,135.9 -94.42,338.92 -19.13,85.1 -39.7,60 -44.91,130.86z"/>
    <path class="fil11" d="M3648.48 4360.28l48.49 -2.21c27.02,-42.39 32.11,-39.31 103.46,-39l34.99 44.3c52.15,31.31 76.85,33.73 85.18,111.52 11.38,106.21 -25.57,119.69 -59.05,177.89 72.05,-6.12 76.6,-15.52 82.49,-104.33 13.44,-202.53 -28,-162.09 -73.28,-203.41 -33.73,-30.77 -12.34,-90.67 -209.04,-36.5l-13.24 51.74z"/>
   </g>
   <g>
    <path class="fil12" d="M5082.65 4576.69c58.16,-4.14 78.42,-2.87 109.65,26.53 124.69,117.37 56,-9.6 189.37,98.44 45.64,36.97 42.6,24.89 104.69,48.7 40.87,194.03 -79.98,177.01 -144.21,198.98 -53.86,18.43 -49.77,32.23 -70.19,75.79 50.67,-7.61 138.55,-55.84 191.9,-86.68 62.89,-36.35 42.54,-109.76 42.54,-196.78 -33.2,-67.27 -190.36,-114.9 -228.57,-138.7 -43.43,-27.06 -224.74,-111.08 -267.51,-109.36 23.51,48.25 38.64,43.32 72.33,83.08z"/>
    <path class="fil12" d="M4914.78 4909.4c74.52,-9.22 103.98,-15.62 134.69,-72.25 -25.66,-58.56 -15.26,-25.81 -60.55,-70.78 -31.04,-19.92 -33.47,-39.81 -53.35,-65.65 -79.72,-9.8 -89.53,-1.54 -142.92,-47 -55.15,-46.97 -50.94,-28.29 -128.05,-51.13 -34.7,-24.78 -60.33,-51.81 -78.66,-98.16 56.23,-139.27 146.44,-89.93 277.35,-72.4l2.14 -25.37c-156.02,-3.4 -133.63,-78.06 -298.87,25.45 -15.91,209.44 78.69,161.81 181.45,235.13 54.97,39.22 78.94,27.32 206.73,114.39 46.66,31.79 45.98,37.76 55.82,78.83 -44.92,12.93 -59.82,10.08 -95.78,48.94z"/>
    <path class="fil12" d="M3803.93 4605.63c-163.26,18.11 -85.67,72.08 -272.81,95.09 -19.88,25.84 -22.31,45.73 -53.35,65.65 -45.29,44.97 -34.9,12.22 -60.55,70.78 27.67,51.03 66.03,73.57 129.37,62.34l-88.41 -42.41c17.78,-76.42 -27.26,-13.21 89.51,-98.09 59.3,-43.11 274.24,-135.5 289.6,-144.42 44.54,-25.83 29.32,-21.48 48.54,-66.3 -75.41,24.28 -16.45,10.5 -81.9,57.36z"/>
   </g>
   <g>
    <path class="fil13" d="M5104.88 5114.33l-33.72 -6.36c-47.15,69.27 -71.47,68.76 -152.66,99.68 -13.6,5.19 -235.56,162.12 -336.71,5.42 -23.72,-36.74 -26.64,-57.11 -19.27,-101.32 7.76,-46.47 23.59,-46.79 41.04,-81.73 -48.24,5.32 -56.22,1.29 -63.98,68.06 -17.38,149.55 44.58,212.61 215.03,200.92 164.83,-11.32 100.57,-45.38 191.62,-75.01 189.7,-61.75 66.94,-70.56 210.94,-84.64l49.48 3.35c17.7,-31.31 2.8,-9.33 21.12,-32.06 2.87,-3.56 11.69,-13.63 14.9,-16.67 15.99,-15.17 22.13,-18.01 43.97,-26.5 134.46,-52.28 3.93,32.68 181.36,-80.26 42.58,-27.11 67.67,-16.72 62.18,-69.64 -54.53,22.14 -337.25,199.29 -425.3,196.76z"/>
    <path class="fil13" d="M3891.02 5364.29c18.4,-45.43 22.94,-36.48 -3.49,-98.62 -40.03,-19.69 6.12,-12.86 -50.12,1.23 -118.38,7.83 -139.76,29.54 -240.91,-38.22 -43.93,-29.42 -55.04,-21.59 -105.94,-43.18 -50.38,-21.38 -37.73,-38.21 -98.05,-42.31 1.75,3.1 4.16,4.57 5.06,9.4l24.81 32.2c36.93,31.77 98.4,35.99 119.8,45.85 40.78,18.78 29.18,27.03 42.22,37.39 71.92,57.12 218.98,14.53 302.09,25.83l4.53 70.43z"/>
   </g>
   <g>
    <path class="fil14" d="M4332.99 4041.37c-26.66,46.74 -39.5,114.31 -68.72,173.12 -33.18,66.79 -35.08,148.09 -61.19,217.76 -17.44,46.53 -22.22,41.65 -39.75,89.53 -14.86,40.57 -17.4,78.46 -29.33,114.63 -25.44,77.14 -67.02,114.66 -55.25,222.68 2.56,-3 6.08,-11.79 6.98,-9.53 0.86,2.16 5.23,-7.13 6.35,-9.41l36.52 -78.64c32.36,-61.62 13.98,-70.78 50.45,-120.51 -11.18,-94.16 39.57,-91.03 63.71,-169.44 24.88,-80.81 -0.4,-118.57 51.35,-196.68 51.67,-78.01 17.59,-188.92 112.65,-247.34 41.83,-25.71 70.33,-13.5 129.25,-10.73 -88.19,-75.36 -145.46,-14.1 -203.02,24.56z"/>
    <path class="fil14" d="M4603.56 5030.02c-17.45,34.94 -33.28,35.26 -41.04,81.73 -7.37,44.21 -4.45,64.58 19.27,101.32 101.15,156.7 323.11,-0.23 336.71,-5.42 81.19,-30.92 105.51,-30.41 152.66,-99.68 -122.4,8.86 -63.74,43.67 -162.03,69.4 -33.4,8.75 -61.62,11.89 -83.3,22.51 -50.84,24.9 -14.36,22.69 -56.63,35.27 -17.56,13.33 -0.06,8.58 -31.87,16.99 -7.63,2.01 -18.56,3.12 -26.65,3.67 -30.01,2.04 -28.11,-1.26 -53.98,-7.67l-41.13 -42c-96.74,-114.92 20.76,-130.43 66.14,-189.84 -46.35,17.03 -32.75,20.74 -78.15,13.72z"/>
   </g>
   <g>
    <path class="fil15" d="M4189.88 5551.48c-26.03,27.74 -31.39,65.05 -105.36,120.26 -52.56,39.23 -133.52,33.06 -174.13,-6.09 -97.17,-93.71 -113.16,-203.06 -19.37,-301.36l-4.53 -70.43c-83.11,-11.3 -230.17,31.29 -302.09,-25.83 -13.04,-10.36 -1.44,-18.61 -42.22,-37.39 -21.4,-9.86 -82.87,-14.08 -119.8,-45.85l-24.81 -32.2c-0.9,-4.83 -3.31,-6.3 -5.06,-9.4 -46.97,10.74 -22.41,9.89 -83,0.27l30.98 21.89c56.88,41.25 38.84,40.52 88.69,58.97 203.41,75.28 121.69,110.05 443.17,85.03 -38.26,90.98 -71.91,8.04 -72.14,193.5 -0.34,293.14 383.26,284.87 389.67,48.63z"/>
    <path class="fil15" d="M5157.17 5139.35c-144,14.08 -21.24,22.89 -210.94,84.64 -91.05,29.63 -26.79,63.69 -191.62,75.01 -170.45,11.69 -232.41,-51.37 -215.03,-200.92 7.76,-66.77 15.74,-62.74 63.98,-68.06l-6.88 -19.28c-43.26,-6.83 -46.95,-34.15 -69.93,31.57 -9.7,27.73 -14.96,195.36 17.22,235.07 50.83,62.76 293.56,47.65 355.15,19.98 69.09,-31.04 -5.88,-28.06 127.35,-69.38 55.35,-17.16 119.75,-79.66 119.75,-79.67 1.99,-6.31 7.37,-5.9 10.95,-8.96z"/>
   </g>
   <g>
    <path class="fil16" d="M3153.93 5074.88c-30.96,-30.55 -61.78,-14.5 -115.57,-56.08 -31.83,-24.63 -77.84,-48.6 -108.59,-65.93 -23.2,-96.75 -48.74,-250.18 59.45,-271.47 67.38,-90.72 74.48,-39.54 150.6,-86.45 34.11,-21.04 15.65,-28.78 63.69,-47.94 26.88,-10.72 63.57,-11.64 96.75,-23.53 57.4,-20.53 26.06,-26.45 74.56,-52.46 31.03,-16.63 61.4,-16.18 90.17,-27.06 85.29,-32.28 26.34,-74.92 168.4,-63.71l-6.79 -26.39c-152.54,-25.6 -140.24,52.95 -268.46,89.43 -114.84,32.66 -24.09,69.58 -253.12,89.74 -51.5,78.23 26.33,45.69 -93.78,73.7 -48.17,11.23 -76.46,6.61 -93.07,50.62 -30.01,79.45 -22.93,231.7 -4.11,314.5 13.01,8.31 37.91,14.32 54.57,26.6 48.19,35.56 4.95,13.42 42.25,48.55 35.79,33.7 100.18,37.64 143.05,27.88z"/>
    <path class="fil16" d="M4883.95 4822.61c-2.53,-3.92 -6.49,-13.8 -7.91,-11.56 -11.77,18.54 -12.5,-19.59 -14.78,-23.87 -10.1,-18.93 -8.49,-14.76 -18.51,-40.05l3.85 8.95 -67.12 -13.74 24.95 58.44 79.52 21.83z"/>
   </g>
   <g>
    <path class="fil17" d="M5530.18 4917.57c5.49,52.92 -19.6,42.53 -62.18,69.64 -177.43,112.94 -46.9,27.98 -181.36,80.26 -21.84,8.49 -27.98,11.33 -43.97,26.5 -3.21,3.04 -12.03,13.11 -14.9,16.67 -18.32,22.73 -3.42,0.75 -21.12,32.06 97.46,-3.01 53.03,1.51 98.66,-42.07 40.8,-38.96 35.73,-17.11 96.96,-30.93 87.63,-19.76 37.3,-17.93 79.08,-58.3 32.7,-31.59 37.41,-18.59 70.94,-40.11 15.83,-78.38 25.7,-256.84 -7.52,-322.85 -18.54,-36.81 -65.31,-35.19 -113.78,-46.63 -77.72,-18.37 -56.94,-30.23 -106.8,-61.55 -59.92,-37.62 -73.4,-7.63 -127.6,-44.34 -36.17,-24.5 -44.03,-40.82 -99.69,-54.98 -153.01,-38.89 -110.42,-110.95 -256.79,-83.97l-4.03 21.03c141.36,-8.83 78.49,38.69 189.59,69.42 61.69,17.06 46.61,6.45 90.32,40 38.38,29.48 32.29,28.31 87.12,41.81 124.67,30.69 73.76,55.68 180.94,84.8 69.8,18.96 45.09,6.4 84.45,43.55l67.78 49.38c8.27,37.72 34.37,195.31 -6.1,210.61z"/>
    <path class="fil17" d="M4840.11 4356.97c-26.26,-34.47 -10.56,-18.97 -28.14,-60.94l-153.81 -20.24c14.78,-132.01 27.47,-186.62 -16.6,-309.01l-110.51 -13.82 -3.03 22.2c84.49,5.28 118.2,59.79 120.25,153.7 2.94,135.15 -60.1,72.43 -59.55,233.42l19.64 -17.62c1.78,-1.84 6.34,-6.06 8.35,-8.24 85.47,-92.37 157.9,13.76 223.4,20.55z"/>
    <path class="fil17" d="M3258.65 5143.64l-14.6 -22.7c-2.91,-3.57 -21.23,-24.35 -22.11,-25.07 -23.85,-19.76 -28.52,-19.11 -68.01,-20.99 25.73,66.84 28.75,65.68 104.72,68.76z"/>
   </g>
   <g>
    <path class="fil18" d="M2884.58 2902.89c11.64,-66.68 -37.16,-256.5 108.47,-348 75.66,-47.52 20.19,-2.27 72.34,-67.36 112.38,-11.32 193.69,-26.9 274.41,33.29l70.82 72.19c43.84,65.08 82.53,46.08 68.47,234.65 -5.39,72.29 -60.54,141.04 -113.16,173.96 -60.7,37.99 -27.24,21.49 -72.9,68.55l-242.84 -0.72c10.95,17.63 10.04,21.52 68.14,26 29.8,2.29 72.78,1.28 103.22,0.37 96.18,-2.87 93.02,-17.68 161.32,-49.1 106.89,-70.11 138.48,-151.18 128.73,-336.67 -4.29,-81.6 -32.71,-114.98 -73.53,-158.54 -32.22,-34.37 -85.64,-80.38 -124.76,-94.48 -192.28,8.85 -230.98,-42.36 -361.49,86.38 -49.61,48.94 -79.17,75.14 -89.07,151.54l4.89 173.62c8.93,30.45 11.79,27.59 16.94,34.32z"/>
    <path class="fil18" d="M3050.19 3069.45c-15.19,-83.26 -36.82,-35.44 -82.54,-89.62 -25.26,-29.95 -9.25,-28.3 -33.76,-53.95 -51.37,-53.72 -2.35,-12.17 -49.31,-22.99 4.34,57.5 -14.41,11.3 25.48,59.2 12.03,14.43 31.05,36.4 41.37,46.61 29.6,29.28 60.83,53.82 98.76,60.75z"/>
   </g>
   <g>
    <path class="fil19" d="M3693.26 4928.3c2.12,3.37 3.9,8.36 5.28,10.71 1.47,2.53 5.95,12.92 7.19,10.67 1.32,-2.46 5.63,7.49 9.09,10.61l-0.93 -7.65c165.08,23.02 196.78,168.91 245.65,207.17 36.9,-109.91 24.64,-197.18 100.14,-258.78 6.42,-85.32 3.83,-28.44 19.07,-41.94 -11.77,-108.02 29.81,-145.54 55.25,-222.68 11.93,-36.17 14.47,-74.06 29.33,-114.63 17.53,-47.88 22.31,-43 39.75,-89.53 26.11,-69.67 28.01,-150.97 61.19,-217.76 29.22,-58.81 42.06,-126.38 68.72,-173.12 16.58,-54.55 -13.02,-14.52 37.51,-49.82 2.49,-1.73 33.1,-12.76 40.75,-14.02 57.71,-9.48 67.53,7.1 116.77,-2.37l3.03 -22.2c-64.19,5.49 -136.92,-13.72 -194.96,18.23 -62.33,34.3 -36.08,87.33 -68.32,151.66 -23.79,47.44 -20.19,7.97 -43.84,70.32 -9.37,24.74 -12.4,54.87 -16.67,85.08 -17.22,121.79 -24.63,71.01 -57.33,146.09 -22.76,52.23 -14.6,118.69 -40.22,174.25 -24.61,53.34 -46.36,8.94 -60.76,164.3 -15.64,168.67 -31.99,62.84 -69.98,135.11 -13.92,26.49 -15.79,145.93 -17.73,192.92l-114.21 -113.47c-45.64,-42.14 -71.6,-55.7 -153.77,-49.15z"/>
    <path class="fil19" d="M4836.08 4378l4.03 -21.03c-65.5,-6.79 -137.93,-112.92 -223.4,-20.55 -2.01,2.18 -6.57,6.4 -8.35,8.24l-19.64 17.62c-0.55,-160.99 62.49,-98.27 59.55,-233.42 -2.05,-93.91 -35.76,-148.42 -120.25,-153.7 182.01,157.58 22.97,207.48 43.35,408.81 89.62,-13.1 51.52,-39.84 139.28,-36.37 51.13,2.02 79.15,24.44 125.43,30.4z"/>
   </g>
   <g>
    <path class="fil20" d="M4332.99 4041.37c57.56,-38.66 114.83,-99.92 203.02,-24.56l-5.91 3.68c29.73,19.44 17.89,4.45 33.55,39.89 26.22,59.32 -6.14,192.41 -19.14,262.75 -15.82,85.61 -7.78,37.89 -40.48,90.81 -36.5,59.07 -26.95,125.67 -53.76,192.11l-80.01 177.74 1.06 73.51c-12.57,49.84 -5.76,32.72 -28.2,74.46 -5.22,9.72 -9.76,19.4 -16.36,28.18 -18.04,24 -9.19,11.99 -28.04,29.18l-7.5 95.95c-7.82,81.84 -54.19,111.63 -68.69,219.63l26.65 0c16.09,-120.79 47.98,-68.03 75.18,-219.89 8.04,-44.86 7.91,-61.55 30.04,-81.03 5.21,-70.86 25.78,-45.76 44.91,-130.86 45.61,-203.02 45.41,-145.23 94.42,-338.92l30.47 -61.07c48.36,178 22.76,115.66 207.91,226.02l83.77 35.35c24.95,13.57 13.2,5.02 30.72,21.78l-3.85 -8.95c60.37,21.54 7.06,-0.17 40.09,17.54 50.24,26.94 65.4,35.36 84.75,72.48 -47.14,38.55 -47.23,25.45 -101.72,44.63 -28.67,10.1 -13.31,0.83 -35.49,16.5 -49.75,35.14 -22.59,19.82 -33.53,39.32 57.36,-4.05 34.48,-13.78 100.63,-30.24l17.3 2.04c35.96,-38.86 50.86,-36.01 95.78,-48.94 -9.84,-41.07 -9.16,-47.04 -55.82,-78.83 -127.79,-87.07 -151.76,-75.17 -206.73,-114.39 -102.76,-73.32 -197.36,-25.69 -181.45,-235.13 165.24,-103.51 142.85,-28.85 298.87,-25.45l-29.35 -28.66c-46.28,-5.96 -74.3,-28.38 -125.43,-30.4 -87.76,-3.47 -49.66,23.27 -139.28,36.37 -20.38,-201.33 138.66,-251.23 -43.35,-408.81 -49.24,9.47 -59.06,-7.11 -116.77,2.37 -7.65,1.26 -38.26,12.29 -40.75,14.02 -50.53,35.3 -20.93,-4.73 -37.51,49.82z"/>
    <path class="fil20" d="M3713.89 4952.64c3.42,3.58 7.52,7.97 10.39,10.62 100.11,92.34 179.51,88.62 165.05,159.21 16.94,15.4 10.33,-34.42 23.55,36.49 9.27,49.76 -7.18,36.32 -9.9,39.97 -24.66,33.14 -33.03,1.18 -65.57,67.97 56.24,-14.09 10.09,-20.92 50.12,-1.23 26.43,62.14 21.89,53.19 3.49,98.62 7.57,73.4 -81.05,139.03 1.05,215.97 -8.2,-63.39 9.62,-252.33 33.35,-321.76 19.04,-55.67 -0.89,-4.44 23.2,-40.26 68.78,-102.3 37.45,-140.56 79.02,-227.88 28.66,-60.21 24.44,-16.55 32.04,-89.33 -75.5,61.6 -63.24,148.87 -100.14,258.78 -48.87,-38.26 -80.57,-184.15 -245.65,-207.17z"/>
   </g>
   <g>
    <path class="fil21" d="M4179.05 4641c8.61,224.8 -53.4,118.64 -72.45,240.81 -29.81,191.08 12.28,108.11 -89.29,210.82l3.84 43.29 -12.97 143.6c-39.67,25.39 -27.1,20.96 -70.16,37.65l3.44 57.82 -0.73 199.9c103.22,11.58 83.04,-4.81 164.56,-13.73 29.06,-1.02 29.24,-90.84 35,-118.06 15.69,-74.11 28.77,-63.14 49.74,-110.49 46.98,-106.04 -7,-189.47 101.19,-247.54l7.5 -95.95c0.19,-32.46 -3.86,-57.51 11.1,-88.66 22.42,-46.62 28.01,-31.41 61.5,-43.16l-1.06 -73.51c-7.86,-117.41 3.07,-128.35 48.12,-194.42 37.83,-55.48 24.54,-118.5 44.01,-185.48 22.95,-78.95 56.24,-60.42 68.19,-161.36 9.75,-82.35 0.55,-143.08 -0.48,-222.04l5.91 -3.68c-58.92,-2.77 -87.42,-14.98 -129.25,10.73 -95.06,58.42 -60.98,169.33 -112.65,247.34 -51.75,78.11 -26.47,115.87 -51.35,196.68 -24.14,78.41 -74.89,75.28 -63.71,169.44z"/>
    <path class="fil21" d="M4664.6 4602.59c77.11,22.84 72.9,4.16 128.05,51.13 53.39,45.46 63.2,37.2 142.92,47 19.88,25.84 22.31,45.73 53.35,65.65l61.04 8.44c20.27,34.08 20.2,69.47 9.61,120.21 -181.28,41.49 -67.13,85.4 -240.23,90.44l-67.42 -5.37c-8.43,35.04 6.64,4.78 -8.7,34.23 -10.43,20 -5.21,12.32 -20.41,24.48 -12.62,10.1 -38.88,17.47 -53.94,22.13 -20.01,85.87 -22.63,82.72 5.54,166.79l94.79 7.43c42.27,-12.58 5.79,-10.37 56.63,-35.27 21.68,-10.62 49.9,-13.76 83.3,-22.51 98.29,-25.73 39.63,-60.54 162.03,-69.4l33.72 6.36 48.71 -39.13c41.99,-32.47 53.06,-64.45 118.37,-50.07 20.42,-43.56 16.33,-57.36 70.19,-75.79 64.23,-21.97 185.08,-4.95 144.21,-198.98 -62.09,-23.81 -59.05,-11.73 -104.69,-48.7 -133.37,-108.04 -64.68,18.93 -189.37,-98.44 -31.23,-29.4 -51.49,-30.67 -109.65,-26.53 -142.64,-11.21 -13.14,-78.06 -285.14,-86.64 -17.94,-86.24 -35.62,-72.99 -141.06,-63.33l8.15 175.87z"/>
    <path class="fil21" d="M3381.73 4576.69c-61.43,-6.86 -76.18,-0.86 -107.35,26.16 -136.41,118.27 -49.18,-12.86 -190.79,97.36 -50.26,39.12 -42.01,22.78 -104.63,50.15 -28.41,144.79 6.32,162.34 121.92,193.92l210.16 120.04c35.6,26.74 64.19,21.14 124.37,35.8 89.36,21.76 46.18,38.55 103.46,66.67 59.31,29.11 53.85,4.04 115.29,46.56 57.43,39.76 56.15,37.24 142.49,35.21 13.16,-71.83 60.34,-94.22 9.9,-157.11 -36.64,-45.7 -22.66,-12.64 -65.44,-39.69 -47.94,-30.32 -6.08,-19.26 -50.46,-45.77 -43.73,-26.13 -117,-22.18 -158.69,-48.7 -71.7,-45.63 12.66,-30.79 -124.85,-62.27 -19.1,-91.55 -22.59,-119.89 70.66,-128.65 31.04,-19.92 33.47,-39.81 53.35,-65.65 187.14,-23.01 109.55,-76.98 272.81,-95.09l3.79 -181.54c-104.51,-6.73 -119.78,-24.25 -138.54,65.96 -48.45,1.08 -125.58,7.87 -170.58,23.83 -81.69,28.95 -3.56,53.24 -116.87,62.81z"/>
   </g>
   <g>
    <path class="fil22" d="M1348.24 2276.7c0,-68.98 -5.54,-83.76 26.23,-126.24 88.76,-118.68 141.81,-159.37 269.51,-159.37l5178.73 0c67.51,0 86.9,-4.37 130,26.64l145.65 140.94c24.64,34.64 20.09,65.87 20.09,118.03l0 3905.77c0,57.77 8.86,80.52 -23.3,115.13 -13.91,14.99 -2.71,-8.83 -35.03,34.43 -75.76,101.39 -44.7,51.65 -134.81,67.31 -30.93,5.37 -8.08,-8.82 -56.52,46.7l-5268.56 15.81c-60.35,-13.45 -13.97,-0.37 -59.71,-30.52 -52.04,-34.29 -2.46,-6.35 -56.77,-28.27 -91.46,-36.92 -34.06,-28.42 -98.8,-92.07 -48.42,-47.61 -36.71,-35.16 -36.71,-128.52l0 -3905.77zm-30.4 3905.77c0,193.04 127.13,315.58 297.2,315.58 1745.54,0 3491.07,0 5236.6,0 58.99,0 104.7,-1.57 139.59,-31.07 101.91,-86.19 157.62,-120.51 157.62,-284.51l0 -3905.77c0,-116.46 -19.8,-165.58 -86.4,-225.58 -71.86,-64.73 -97.03,-90 -210.81,-90l-5222.13 0c-62.7,0 -101.16,-5.64 -146.94,24.39 -107.54,70.5 -164.73,147.96 -164.73,291.19l0 3905.77z"/>
    <path class="fil22" d="M6647.48 5922.08c-45.28,121.73 -215.31,85.82 -360,85.82l-4137.2 0c-480.67,0 -421.45,38.4 -421.45,-505.33 0,-247.19 -26.51,-1735.02 10.07,-1847.87 33.11,-102.11 248.34,-73.44 367.99,-73.44l4137.19 0c149.99,0 328.03,-31.47 391.7,68.99 46.16,72.8 23.22,333.78 23.22,434.68 0,230.68 19.17,1754.66 -11.52,1837.15zm-4948.4 -2184.33l11.97 2277.2 135.44 21.86c1539.14,0 3125.44,12.15 4658.08,1.65l175.87 -12.41 6.32 -2302.77c-0.02,-163.26 9.56,-171 -182.3,-171l-4614.57 0c-173.44,0 -190.81,9.32 -190.81,185.47z"/>
   </g>
   <path class="fil23" d="M1699.08 3737.75c0,-176.15 17.37,-185.47 190.81,-185.47l4614.57 0c191.86,0 182.28,7.74 182.3,171l-6.32 2302.77 -175.87 12.41c-1532.64,10.5 -3118.94,-1.65 -4658.08,-1.65l-135.44 -21.86 -11.97 -2277.2zm361.89 -619.84l0 0zm847.45 -94.8l0 0zm-1560.18 -746.41l0 3905.77c0,93.36 -11.71,80.91 36.71,128.52 64.74,63.65 7.34,55.15 98.8,92.07 54.31,21.92 4.73,-6.02 56.77,28.27 45.74,30.15 -0.64,17.07 59.71,30.52l5268.56 -15.81c48.44,-55.52 25.59,-41.33 56.52,-46.7 90.11,-15.66 59.05,34.08 134.81,-67.31 32.32,-43.26 21.12,-19.44 35.03,-34.43 32.16,-34.61 23.3,-57.36 23.3,-115.13l0 -3905.77c0,-52.16 4.55,-83.39 -20.09,-118.03l-145.65 -140.94c-43.1,-31.01 -62.49,-26.64 -130,-26.64l-5178.73 0c-127.7,0 -180.75,40.69 -269.51,159.37 -31.77,42.48 -26.23,57.26 -26.23,126.24z"/>
   <path class="fil24" d="M4354.4 5003.78c10.04,43.77 -7.26,113.64 -12.42,166.53 -7.49,76.84 -19.55,68.65 -52.62,112.33 -72.98,96.38 40.59,233.54 -113.8,261.07l14.32 7.77c-6.41,236.24 -390.01,244.51 -389.67,-48.63 0.23,-185.46 33.88,-102.52 72.14,-193.5 -321.48,25.02 -239.76,-9.75 -443.17,-85.03 -49.85,-18.45 -31.81,-17.72 -88.69,-58.97l-30.98 -21.89 -50.86 0.18c-75.97,-3.08 -78.99,-1.92 -104.72,-68.76 -42.87,9.76 -107.26,5.82 -143.05,-27.88 -37.3,-35.13 5.94,-12.99 -42.25,-48.55 -16.66,-12.28 -41.56,-18.29 -54.57,-26.6 -18.82,-82.8 -25.9,-235.05 4.11,-314.5 16.61,-44.01 44.9,-39.39 93.07,-50.62 120.11,-28.01 42.28,4.53 93.78,-73.7 229.03,-20.16 138.28,-57.08 253.12,-89.74 128.22,-36.48 115.92,-115.03 268.46,-89.43l21.88 6.42 13.24 -51.74c196.7,-54.17 175.31,5.73 209.04,36.5 45.28,41.32 86.72,0.88 73.28,203.41 -5.89,88.81 -10.44,98.21 -82.49,104.33l-4.39 -4.79c-122.08,156.04 -147.85,43.38 -202.71,149.04l-116.6 25.58c-4.9,3.17 -50.24,2.06 8.28,31.63 27.92,14.1 30.87,8.16 55.88,6.2l68.59 5.47c27.58,44.64 16.7,19.4 22.66,62.39 82.17,-6.55 108.13,7.01 153.77,49.15l114.21 113.47c1.94,-46.99 3.81,-166.43 17.73,-192.92 37.99,-72.27 54.34,33.56 69.98,-135.11 14.4,-155.36 36.15,-110.96 60.76,-164.3 25.62,-55.56 17.46,-122.02 40.22,-174.25 32.7,-75.08 40.11,-24.3 57.33,-146.09 4.27,-30.21 7.3,-60.34 16.67,-85.08 23.65,-62.35 20.05,-22.88 43.84,-70.32 32.24,-64.33 5.99,-117.36 68.32,-151.66 58.04,-31.95 130.77,-12.74 194.96,-18.23l110.51 13.82c44.07,122.39 31.38,177 16.6,309.01l153.81 20.24c17.58,41.97 1.88,26.47 28.14,60.94 146.37,-26.98 103.78,45.08 256.79,83.97 55.66,14.16 63.52,30.48 99.69,54.98 54.2,36.71 67.68,6.72 127.6,44.34 49.86,31.32 29.08,43.18 106.8,61.55 48.47,11.44 95.24,9.82 113.78,46.63 33.22,66.01 23.35,244.47 7.52,322.85 -33.53,21.52 -38.24,8.52 -70.94,40.11 -41.78,40.37 8.55,38.54 -79.08,58.3 -61.23,13.82 -56.16,-8.03 -96.96,30.93 -45.63,43.58 -1.2,39.06 -98.66,42.07l-49.48 -3.35c-3.58,3.06 -8.96,2.65 -10.95,8.96 0,0.01 -64.4,62.51 -119.75,79.67 -133.23,41.32 -58.26,38.34 -127.35,69.38 -61.59,27.67 -304.32,42.78 -355.15,-19.98 -32.18,-39.71 -26.92,-207.34 -17.22,-235.07 22.98,-65.72 26.67,-38.4 69.93,-31.57 51.03,-103.28 55.42,-50.04 154.01,-92.84 55.37,-24.04 3.76,-30.33 69.5,-57.64 32.15,-13.36 70,-9.29 107.92,-23.11 -10.1,-8.62 29.26,-23.35 -44.16,-14.54l-79.52 -21.83 -24.95 -58.44c-120.46,19.12 -144.25,-57.77 -197.68,-82.73 -77.85,-36.34 -34.61,-18.82 -67.3,-99.31 -33.3,215.65 -24.53,128.78 -71.28,236.43 -35.57,81.9 7.24,206.75 -88.82,207.05zm-2593.22 -1294.97l-1.42 2169.87 40.05 20.98c17.93,10.13 25.05,15.08 25.1,15.12l21.26 36.65c2.31,4.22 5.16,9.6 7.12,13.26 2.09,3.9 4.22,9.98 7.67,14.04l4672.44 -0.02c40.43,-72.29 9.42,-50.28 83.66,-92.38 3.48,-1.98 9.35,-4.24 13.07,-7.65l-28.39 -2195.38 -43.21 -43.49c-2.43,-2.68 -5.6,-6.34 -7.88,-8.85l-4689.69 -20.53 -99.78 98.38z"/>
   <path class="fil25" d="M1860.96 3610.43l4689.69 20.53c2.28,2.51 5.45,6.17 7.88,8.85l43.21 43.49 28.39 2195.38c-3.72,3.41 -9.59,5.67 -13.07,7.65 -74.24,42.1 -43.23,20.09 -83.66,92.38l-4672.44 0.02c-3.45,-4.06 -5.58,-10.14 -7.67,-14.04 -1.96,-3.66 -4.81,-9.04 -7.12,-13.26l-21.26 -36.65c-0.05,-0.04 -7.17,-4.99 -25.1,-15.12l-40.05 -20.98 1.42 -2169.87 99.78 -98.38zm4786.52 2311.65c30.69,-82.49 11.52,-1606.47 11.52,-1837.15 0,-100.9 22.94,-361.88 -23.22,-434.68 -63.67,-100.46 -241.71,-68.99 -391.7,-68.99l-4137.19 0c-119.65,0 -334.88,-28.67 -367.99,73.44 -36.58,112.85 -10.07,1600.68 -10.07,1847.87 0,543.73 -59.22,505.33 421.45,505.33l4137.2 0c144.69,0 314.72,35.91 360,-85.82z"/>
   <path class="fil26" d="M1958.8 2539.98c106.94,-74.56 75.2,-97.33 263.82,-96.35 52.31,0.26 116.26,-3.33 158.59,22.69 11.58,7.12 79.32,67.36 87.39,78.01l43.41 7.1c8.59,50.99 119.3,252.88 -15.57,446.14 -36.51,52.32 -13.97,25.48 -66.5,67.29l-22.33 18.02c-89.18,62.89 -234.14,22.87 -346.64,35.03 -100.92,-114.91 -224.74,-109.43 -188.14,-436.84 10.02,-89.62 19.8,-104.31 85.97,-141.09zm102.17 577.93l0 0z"/>
   <path class="fil27" d="M1317.84 6182.47l0 -3905.77c0,-143.23 57.19,-220.69 164.73,-291.19 45.78,-30.03 84.24,-24.39 146.94,-24.39l5222.13 0c113.78,0 138.95,25.27 210.81,90 66.6,60 86.4,109.12 86.4,225.58l0 3905.77c0,164 -55.71,198.32 -157.62,284.51 -34.89,29.5 -80.6,31.07 -139.59,31.07 -1745.53,0 -3491.06,0 -5236.6,0 -170.07,0 -297.2,-122.54 -297.2,-315.58zm-6.64 -4137.22l-13.13 3833.43c0,179.4 13.04,362.39 13.13,535.31 141.76,94.24 40.04,42.72 98.25,88.18 46.99,36.7 4072.2,13.51 4342.8,13.51 76.57,0 1266.18,16.77 1304.99,-13.51 43.54,-33.97 -20.07,-23.05 98.25,-88.25l13.13 -3833.43c0,-179.4 -13.04,-362.39 -13.13,-535.31 -15.67,-10.42 -35.11,-12.29 -55.11,-30.73 -68.42,-63.12 22.1,-70.89 -205.21,-70.66 -1773.59,1.77 -3550.07,1.77 -5323.65,0 -226.3,-0.23 -136.51,6.72 -205.77,71 -16.03,14.88 -37.45,21.04 -54.55,30.46z"/>
   <path class="fil28" d="M3382.87 3046.72c-28.21,79.47 -85.91,77.47 -249.56,70.32 -55.27,-2.42 -92.49,-3.87 -131.2,-31.04 -45.95,-32.24 -42.72,-51.77 -93.69,-62.89 -18.09,-82.49 -62.34,-34.73 -67.51,-210.89 -3.38,-114.9 -6.88,-172.43 52.38,-241.87 110.81,-129.87 138.51,-134.91 284.05,-136.93 50.19,-0.7 97.25,-3.23 135.97,23.61 39.12,14.1 92.54,60.11 124.76,94.48 40.82,43.56 69.24,76.94 73.53,158.54 9.75,185.49 -21.84,266.56 -128.73,336.67zm-474.45 -23.61l0 0z"/>
   <path class="fil29" d="M2884.58 2902.89c46.96,10.82 -2.06,-30.73 49.31,22.99 24.51,25.65 8.5,24 33.76,53.95 45.72,54.18 67.35,6.36 82.54,89.62l242.84 0.72c45.66,-47.06 12.2,-30.56 72.9,-68.55 52.62,-32.92 107.77,-101.67 113.16,-173.96 14.06,-188.57 -24.63,-169.57 -68.47,-234.65l-70.82 -72.19c-80.72,-60.19 -162.03,-44.61 -274.41,-33.29 -52.15,65.09 3.32,19.84 -72.34,67.36 -145.63,91.5 -96.83,281.32 -108.47,348z"/>
   <path class="fil30" d="M1998.19 2574.61c20.36,115.32 -86.39,89.56 -72.07,222.86 12.43,115.84 20.07,-40.98 85.04,182.1 107.88,28.56 174.61,149.71 285.21,49.54 36.35,-32.91 61.65,-36.65 133.71,-48.48l-4.46 1.96 18.18 -66.69 53.85 -17.09c21.97,-4.45 22.67,-223.95 0,-246.06l-54 -17.05 -18.03 -70.1c-26.15,-33.36 -9.96,-3.12 -44.93,-27.66 -41.62,-29.19 -14.57,-10.52 -43.22,-54.65l-230.66 -0.51c-27.57,85.98 -28.16,61.77 -108.62,91.83z"/>
   <path class="fil31" d="M3033.11 4981.73l175.67 67.89c92.38,42.49 11.67,24.32 137.03,66.76l46.7 26.81c60.32,4.1 47.67,20.93 98.05,42.31 50.9,21.59 62.01,13.76 105.94,43.18 101.15,67.76 122.53,46.05 240.91,38.22 32.54,-66.79 40.91,-34.83 65.57,-67.97 2.72,-3.65 19.17,9.79 9.9,-39.97 -13.22,-70.91 -6.61,-21.09 -23.55,-36.49 -13.13,72.86 21.17,17.87 -65.02,99.9 -2.92,2.79 -1.36,46.5 -17.98,17 -1.64,-2.89 -6.31,6.29 -9.68,9.19 -86.34,2.03 -85.06,4.55 -142.49,-35.21 -61.44,-42.52 -55.98,-17.45 -115.29,-46.56 -57.28,-28.12 -14.1,-44.91 -103.46,-66.67 -60.18,-14.66 -88.77,-9.06 -124.37,-35.8l-210.16 -120.04c-115.6,-31.58 -150.33,-49.13 -121.92,-193.92 62.62,-27.37 54.37,-11.03 104.63,-50.15 141.61,-110.22 54.38,20.91 190.79,-97.36 31.17,-27.02 45.92,-33.02 107.35,-26.16 29.94,-40.52 51.47,-62.25 103.98,-78.98 61.56,-19.59 107.88,-12.58 113.53,-77.4 -25.5,8.88 -163.07,63.34 -184.55,76.21 -80.06,48.04 -81.08,36.15 -161.59,70.91 -46.49,20.08 -38.29,29.19 -79.51,49.41 -17.62,8.65 -195.26,73.96 -222.34,122.29 -7.08,42.05 -12.95,112.84 -3.07,154.25 18.32,76.73 33.67,27.74 84.93,88.35z"/>
   <path class="fil32" d="M3633.39 4380.25c-2.92,2.88 -6.48,6.9 -8.41,8.98 -1.91,2.05 -6.34,6.88 -8.24,8.93 -2.26,2.44 -12.48,13.91 -15.82,17.37 154.69,-29.91 302.73,-66.95 284.91,132.74 -19.22,44.82 -4,40.47 -48.54,66.3 -15.36,8.92 -230.3,101.31 -289.6,144.42 -116.77,84.88 -71.73,21.67 -89.51,98.09l88.41 42.41c82.81,-8.03 63.69,42.97 168.23,60.8 -3.46,-3.12 -7.77,-13.07 -9.09,-10.61 -1.24,2.25 -5.72,-8.14 -7.19,-10.67 -1.38,-2.35 -3.16,-7.34 -5.28,-10.71 -26.04,-7.17 -29.97,-7.94 -48.94,-21.86 -3.59,-2.64 -13.71,-10.98 -17.04,-14.26 -22.9,-22.57 -5.21,-3.61 -25.27,-31.74 -25.01,1.96 -27.96,7.9 -55.88,-6.2 -58.52,-29.57 -13.18,-28.46 -8.28,-31.63 22.66,-37.88 -1.78,-8.01 31.29,-41.75 0.28,-0.29 29.54,-24.72 32.33,-26.59 35.16,-23.61 42.75,-19.4 83.5,-31.59 98.2,-29.39 56.36,-59.92 172.19,-74.69l4.39 4.79c33.48,-58.2 70.43,-71.68 59.05,-177.89 -8.33,-77.79 -33.03,-80.21 -85.18,-111.52 -92.44,-30.87 -125.01,4.59 -202.03,16.88z"/>
   <path class="fil33" d="M2457.83 2989.65c-19.14,44.22 -11.62,31.68 -61.64,53.14 3.92,-15 7.58,18.2 -43.39,45.55 -4.17,1.43 -293.83,60.34 -329.5,-62.78 -68.09,-5.54 -123.95,-99.09 -130.48,-169.5 -6.65,-71.69 -26.1,-225.91 51.66,-250.66 0.52,-43.47 -4.11,-19.59 14.32,-65.42 -66.17,36.78 -75.95,51.47 -85.97,141.09 -36.6,327.41 87.22,321.93 188.14,436.84 112.5,-12.16 257.46,27.86 346.64,-35.03l22.33 -18.02c52.53,-41.81 29.99,-14.97 66.5,-67.29 134.87,-193.26 24.16,-395.15 15.57,-446.14l-43.41 -7.1c26.12,102.85 73.19,31.49 71.52,238.78 -0.24,29.87 -2.38,106.38 -11.38,132.48 -4.97,14.44 -21.31,37.38 -27.39,43.85 -32.59,34.63 -13.2,17.82 -43.52,30.21z"/>
   <path class="fil34" d="M1958.8 2539.98c-18.43,45.83 -13.8,21.95 -14.32,65.42 35.09,-9.65 5.42,0.92 28.85,-13.24 2.06,-1.25 6.54,-4.27 8.56,-5.57l16.3 -11.98c6.85,-27.06 -25.65,-23.2 8.49,-23.2 15.66,-13.13 28.72,-21.06 47.72,-36.62 39.4,-32.27 -1.29,-12.45 52.41,-32.01l230.66 0.51c28.65,44.13 1.6,25.46 43.22,54.65 34.97,24.54 18.78,-5.7 44.93,27.66 36.58,21.52 7.98,-16.21 48.83,38.49 30.55,40.93 4.04,2.79 23.2,48.66 22.67,22.11 21.97,241.61 0,246.06 -1.96,4.68 -5,6.28 -6.33,13.82 -3.13,17.75 -22.88,21.64 -33.49,77.02 30.32,-12.39 10.93,4.42 43.52,-30.21 6.08,-6.47 22.42,-29.41 27.39,-43.85 9,-26.1 11.14,-102.61 11.38,-132.48 1.67,-207.29 -45.4,-135.93 -71.52,-238.78 -8.07,-10.65 -75.81,-70.89 -87.39,-78.01 -42.33,-26.02 -106.28,-22.43 -158.59,-22.69 -188.62,-0.98 -156.88,21.79 -263.82,96.35z"/>
   <path class="fil35" d="M2908.42 3023.11c50.97,11.12 47.74,30.65 93.69,62.89 38.71,27.17 75.93,28.62 131.2,31.04 163.65,7.15 221.35,9.15 249.56,-70.32 -68.3,31.42 -65.14,46.23 -161.32,49.1 -30.44,0.91 -73.42,1.92 -103.22,-0.37 -58.1,-4.48 -57.19,-8.37 -68.14,-26 -37.93,-6.93 -69.16,-31.47 -98.76,-60.75 -10.32,-10.21 -29.34,-32.18 -41.37,-46.61 -39.89,-47.9 -21.14,-1.7 -25.48,-59.2 -5.15,-6.73 -8.01,-3.87 -16.94,-34.32l-4.89 -173.62c9.9,-76.4 39.46,-102.6 89.07,-151.54 130.51,-128.74 169.21,-77.53 361.49,-86.38 -38.72,-26.84 -85.78,-24.31 -135.97,-23.61 -145.54,2.02 -173.24,7.06 -284.05,136.93 -59.26,69.44 -55.76,126.97 -52.38,241.87 5.17,176.16 49.42,128.4 67.51,210.89z"/>
   <path class="fil36" d="M4865.43 4406.66l39.34 17.45c67.08,22.85 15.87,-3.6 37.81,36.86 13.02,-0.24 17.41,-5.47 36.63,3.5 37.51,17.5 18.37,8.38 31.11,29.14 42.77,-1.72 224.08,82.3 267.51,109.36 38.21,23.8 195.37,71.43 228.57,138.7 39.95,18.78 12.86,125.46 23.78,175.9 40.47,-15.3 14.37,-172.89 6.1,-210.61l-67.78 -49.38c-39.36,-37.15 -14.65,-24.59 -84.45,-43.55 -107.18,-29.12 -56.27,-54.11 -180.94,-84.8 -54.83,-13.5 -48.74,-12.33 -87.12,-41.81 -43.71,-33.55 -28.63,-22.94 -90.32,-40 -111.1,-30.73 -48.23,-78.25 -189.59,-69.42l29.35 28.66z"/>
   <path class="fil37" d="M1944.48 2605.4c-0.61,3.83 -1.9,8.85 -2.68,11.33l-31.05 107.63c-23.21,217.81 69.52,199.11 112.55,301.2 47.03,5.56 233.41,156.4 406.78,-44.93 -72.06,11.83 -97.36,15.57 -133.71,48.48 -110.6,100.17 -177.33,-20.98 -285.21,-49.54 -64.97,-223.08 -72.61,-66.26 -85.04,-182.1 -14.32,-133.3 92.43,-107.54 72.07,-222.86l-16.3 11.98c-2.02,1.3 -6.5,4.32 -8.56,5.57 -23.43,14.16 6.24,3.59 -28.85,13.24z"/>
   <path class="fil38" d="M4370.26 4783.79l80.01 -177.74c26.81,-66.44 17.26,-133.04 53.76,-192.11 32.7,-52.92 24.66,-5.2 40.48,-90.81 13,-70.34 45.36,-203.43 19.14,-262.75 -15.66,-35.44 -3.82,-20.45 -33.55,-39.89 1.03,78.96 10.23,139.69 0.48,222.04 -11.95,100.94 -45.24,82.41 -68.19,161.36 -19.47,66.98 -6.18,130 -44.01,185.48 -45.05,66.07 -55.98,77.01 -48.12,194.42z"/>
   <path class="fil39" d="M4664.6 4602.59l-8.15 -175.87c105.44,-9.66 123.12,-22.91 141.06,63.33 272,8.58 142.5,75.43 285.14,86.64 -33.69,-39.76 -48.82,-34.83 -72.33,-83.08 -59.07,5.31 -137.7,-4.27 -145.5,-73.03l-1.53 11.45c-130.91,-17.53 -221.12,-66.87 -277.35,72.4 18.33,46.35 43.96,73.38 78.66,98.16z"/>
   <path class="fil40" d="M3153.93 5074.88c39.49,1.88 44.16,1.23 68.01,20.99 0.88,0.72 19.2,21.5 22.11,25.07l14.6 22.7 50.86 -0.18c60.59,9.62 36.03,10.47 83,-0.27l-46.7 -26.81c-125.36,-42.44 -44.65,-24.27 -137.03,-66.76l-175.67 -67.89c-41.73,-7.37 -66.88,-15.55 -101.61,-28.93 3.64,-96.2 -53.01,-148.26 16.46,-229.92l32.1 -31.63c1.57,-6.07 6.19,-6.49 9.16,-9.85 -108.19,21.29 -82.65,174.72 -59.45,271.47 30.75,17.33 76.76,41.3 108.59,65.93 53.79,41.58 84.61,25.53 115.57,56.08z"/>
   <path class="fil41" d="M5271.96 5025.13c-65.31,-14.38 -76.38,17.6 -118.37,50.07l-48.71 39.13c88.05,2.53 370.77,-174.62 425.3,-196.76 -10.92,-50.44 16.17,-157.12 -23.78,-175.9 0,87.02 20.35,160.43 -42.54,196.78 -53.35,30.84 -141.23,79.07 -191.9,86.68z"/>
   <path class="fil42" d="M4078.75 4859.09c27.01,85.57 -40.99,148.23 -61.44,233.54 101.57,-102.71 59.48,-19.74 89.29,-210.82 19.05,-122.17 81.06,-16.01 72.45,-240.81 -36.47,49.73 -18.09,58.89 -50.45,120.51l-36.52 78.64c-1.12,2.28 -5.49,11.57 -6.35,9.41 -0.9,-2.26 -4.42,6.53 -6.98,9.53z"/>
   <path class="fil43" d="M4656.7 5248.14c25.87,6.41 23.97,9.71 53.98,7.67 8.09,-0.55 19.02,-1.66 26.65,-3.67 31.81,-8.41 14.31,-3.66 31.87,-16.99l-94.79 -7.43c-28.17,-84.07 -25.55,-80.92 -5.54,-166.79 -58.36,26.57 -55.42,28.41 -77.26,94.47 43.29,56.14 45.19,24.81 65.09,92.74z"/>
   <path class="fil44" d="M4681.71 5016.3c-45.38,59.41 -162.88,74.92 -66.14,189.84l41.13 42c-19.9,-67.93 -21.8,-36.6 -65.09,-92.74 21.84,-66.06 18.9,-67.9 77.26,-94.47 15.06,-4.66 41.32,-12.03 53.94,-22.13 15.2,-12.16 9.98,-4.48 20.41,-24.48 15.34,-29.45 0.27,0.81 8.7,-34.23 -49.99,5.29 -39.34,4.01 -70.21,36.21z"/>
   <path class="fil45" d="M4596.68 5010.74l6.88 19.28c45.4,7.02 31.8,3.31 78.15,-13.72 30.87,-32.2 20.22,-30.92 70.21,-36.21 2.38,-2.81 6,-6.4 7.62,-8l37.31 -34.49c-41.69,1.05 -79.4,8.25 -115,31.73 -47.6,31.4 -25.83,56.22 -85.17,41.41z"/>
   <path class="fil46" d="M3938.02 5317.17c43.06,-16.69 30.49,-12.26 70.16,-37.65l12.97 -143.6 -14.62 21.91c-29.5,67.53 10.44,-33 -9.48,23.34 -41.31,116.88 -41.2,65.2 -59.03,136z"/>
   <path class="fil47" d="M3648.48 4360.28l-21.88 -6.42 6.79 26.39c77.02,-12.29 109.59,-47.75 202.03,-16.88l-34.99 -44.3c-71.35,-0.31 -76.44,-3.39 -103.46,39l-48.49 2.21z"/>
   <path class="fil48" d="M1998.19 2574.61c80.46,-30.06 81.05,-5.85 108.62,-91.83 -53.7,19.56 -13.01,-0.26 -52.41,32.01 -19,15.56 -32.06,23.49 -47.72,36.62 -34.14,0 -1.64,-3.86 -8.49,23.2z"/>
   <path class="fil49" d="M4864.82 4420.58l77.76 40.39c-21.94,-40.46 29.27,-14.01 -37.81,-36.86l-39.34 -17.45 -2.14 25.37 1.53 -11.45z"/>
  </g>
 </g>
</svg>
