<?xml version="1.0" encoding="UTF-8"?>
<!DOCTYPE svg PUBLIC "-//W3C//DTD SVG 1.1//EN" "http://www.w3.org/Graphics/SVG/1.1/DTD/svg11.dtd">
<!-- Creator: CorelDRAW -->
<svg xmlns="http://www.w3.org/2000/svg" xml:space="preserve" width="55mm" height="50mm" style="shape-rendering:geometricPrecision; text-rendering:geometricPrecision; image-rendering:optimizeQuality; fill-rule:evenodd; clip-rule:evenodd"
viewBox="0 0 55 50"
 xmlns:xlink="http://www.w3.org/1999/xlink">
 <defs>
  <style type="text/css">
   <![CDATA[
    .fil0 {fill:#020202}
   ]]>
  </style>
 </defs>
 <g id="Capa_x0020_1">
  <metadata id="CorelCorpID_0Corel-Layer"/>
  <path class="fil0" d="M32.7 27.888c-0.0532,-2.9017 0.7501,-9.8733 3.4994,-11.0971 1.4676,-0.6532 2.6634,0.5287 3.2142,1.2586 1.4494,1.9206 2.1888,5.0785 0.4716,7.2859 -0.6497,0.8351 -1.6204,1.5122 -2.9303,1.9241 -1.0687,0.3361 -3.0373,0.6858 -4.2549,0.6285zm-10.3502 -0.0016c-1.0927,0.0513 -3.2874,-0.3356 -4.238,-0.6431 -1.2579,-0.4068 -2.3218,-1.0823 -2.9419,-1.916 -2.6918,-3.6188 0.6973,-9.8699 3.6673,-8.5259 1.4095,0.6378 2.3378,2.9854 2.7336,4.5308 0.1656,0.6465 0.2942,1.3459 0.4046,2.0531 0.2086,1.3354 0.4003,3.1044 0.3744,4.5011zm0.9489 -4.0854c0.2047,-0.6583 1.0519,-1.4573 1.5978,-1.7989 0.6836,-0.4279 1.6905,-0.7665 2.6926,-0.744 1.0256,0.023 1.9021,0.3388 2.5906,0.7792l1.6118 1.8035c-1.5771,-1.1114 -0.6803,-0.7222 -2.9541,-1.3193 0.9933,0.1912 2.6061,1.1696 2.9399,2.46 0.2038,0.788 0.0312,1.6983 -0.3677,2.1737l-1.8193 0.8977c0.3024,-0.3261 2.1679,-1.4706 1.5284,-2.3564 -0.6318,-0.8749 -1.8792,1.3763 -2.1423,1.6788 -0.9095,1.0459 -2.0972,0.9227 -2.7553,0.1746 -1.1312,-1.286 -0.7991,-2.1528 -2.0819,-2.0291 -0.4939,0.6229 -0.2654,1.0225 0.1327,1.452 0.2863,0.3087 0.8142,0.757 1.1463,1.048 -2.8427,-0.4367 -3.3901,-3.8594 0.5991,-5.6132 1.0876,-0.4781 1.8196,-0.3834 3.0261,-0.4038 -0.1583,-0.0174 -0.4773,-0.1567 -0.6968,-0.2003 -0.2926,-0.058 -0.6453,-0.0749 -0.9536,-0.0607 -0.6587,0.0301 -1.0863,0.2017 -1.6164,0.4306 -1.5334,0.6621 -2.0827,1.3993 -2.4779,1.6276zm-0.1371 -2.3056c0.5161,-1.0829 2.8736,-2.2382 4.5565,-2.2015 1.8037,0.0393 3.8256,1.2991 4.3867,2.2803 -1.1025,-0.7056 -2.2263,-1.3982 -3.6708,-1.343 0.6736,0.2338 1.2875,0.4045 1.9009,0.7447 0.1183,0.0656 0.184,0.0966 0.2838,0.1654l0.2203 0.1961c-1.2262,-0.4019 -1.887,-0.6973 -3.2508,-0.6885 -2.0156,0.013 -2.1535,0.4314 -3.2073,0.6943l2.4414 -1.1774c-1.0714,0.2465 -1.9733,0.3514 -2.8463,0.8538 -0.2428,0.1397 -0.5279,0.3824 -0.8144,0.4758zm6.9929 -3.4444c0.4823,0.2285 1.1568,0.6747 1.4318,0.9949 -1.5069,-0.6657 -1.8695,-0.9707 -3.6324,-0.9007 0.3343,0.1633 0.6103,0.1982 0.9966,0.3333 0.2888,0.101 0.5846,0.2174 0.879,0.3488 0.3341,0.149 0.4951,0.2268 0.8146,0.4136 0.2895,0.169 0.4763,0.3633 0.6771,0.4977l-1.4906 -0.6434c-1.4399,-0.5419 -3.2796,-0.4125 -4.7008,0.0999 -0.4456,0.1607 -0.5497,0.3088 -0.751,0.1618l1.3238 -0.6278c0.2985,-0.1243 1.2607,-0.3587 1.4147,-0.4457l-1.988 0.1313c-0.6196,0.1831 -1.013,0.5103 -1.4688,0.689l3.3812 -1.3737 -1.0629 -0.7934 1.3446 0.4481c-0.2653,-0.9621 -0.2453,-1.6064 0.1845,-2.4793 0.1968,0.2307 0.2279,0.3407 0.3183,0.6836 0.1938,0.7352 0.0975,0.9886 -0.0312,1.6597 0.3283,-0.1697 0.5908,-0.357 0.9594,-0.3432 0.2853,0.0106 0.2797,0.059 0.347,0.1205l-0.9994 0.6135 2.0525 0.4115zm3.2621 0.4995c0.0545,-1.076 0.3824,-2.5597 0.9263,-3.2249 0.9258,-1.1322 2.4349,-0.7372 2.786,-0.1355l-1.5738 0.0528c-0.466,0.1348 -1.2997,1.6145 -1.5373,2.0907 -0.1951,0.3911 -0.349,0.9047 -0.6012,1.2169zm-15.3922 -3.3996c0.2593,-0.4583 0.991,-0.6176 1.5735,-0.5303 1.5967,0.2391 2.0573,2.8952 2.0281,3.9767l-0.5648 -1.2323c-0.6875,-1.4315 -1.404,-2.4637 -3.0368,-2.2141zm15.6613 0.3419c-0.165,-1.761 0.9428,-1.9227 1.5118,-1.4182 -1.6651,0.9925 -0.8061,0.5488 -1.5118,1.4182zm-13.8603 -1.4182c0.3497,-0.3402 0.8808,-0.3129 1.2127,0.0113 0.3047,0.2978 0.3473,0.826 0.3105,1.3952 -1.0237,-1.476 -0.5597,-0.8423 -1.5232,-1.4065zm22.1663 9.7529c-0.0234,-1.7945 -0.3212,-1.4442 0.4224,-2.6336 0.9543,-1.5266 2.5071,-4.5496 2.9967,-6.1944 0.5083,-1.7073 0.7553,-3.3765 0.8828,-5.2629 0.1306,-1.932 0.2923,-3.9429 0.2528,-5.8939 -0.0122,-0.6047 0.0323,-2.5931 -0.7757,-2.2207 -0.3153,0.1453 -1.1772,1.2435 -1.4294,1.6207 -0.8326,1.245 -1.4747,2.5789 -2.0316,4.1212 -1.4724,4.0778 -1.466,6.2196 -1.9615,10.3434 -0.9368,-1.1506 -1.7768,-2.1856 -2.9862,-3.1112 -0.5679,-0.4346 -1.1539,-0.8189 -1.8401,-1.1994 -1.2559,-0.6965 -1.3416,-0.5226 -2.0945,-0.8761 -0.3833,-1.4869 -0.5112,-2.014 -0.9979,-3.4847 -0.3593,-1.086 -0.8191,-2.1451 -1.2966,-3.1072 -0.6656,-1.3406 -2.5103,-4.4477 -3.6094,-5.2005l-2.04 2.4356c-1.0326,1.3864 -2.2741,4.2084 -2.8913,5.9121 -0.1856,0.5124 -0.359,1.106 -0.521,1.6793 -0.1275,0.4516 -0.2825,1.4946 -0.4466,1.7546 -0.2995,0.2453 -3.4795,0.6906 -6.5813,4.8189l-0.2713 0.3251 -1.6835 -9.2743c-0.419,-1.3179 -1.0012,-2.783 -1.631,-3.8832 -0.3777,-0.6599 -1.7117,-2.9439 -2.5174,-2.916l-0.3396 6.2758c0.1015,1.9771 0.2536,4.3651 0.7266,6.1544 0.653,2.4708 1.9978,4.9063 3.235,7.0594 0.6794,1.1822 0.65,0.7335 0.4862,2.7528l-1.7548 -1.6133c-1.7229,-1.7644 -2.6501,-4.5999 -2.8797,-7.228 -0.1821,-2.0836 -0.274,-4.1769 -0.4764,-6.2593 -0.2012,-2.0699 -0.4813,-3.9845 -0.6623,-6.0702l-1.2694 0.7837c-0.6889,0.4789 -2.4444,2.7955 -2.5547,3.6433 0.6591,0.6101 2.9625,2.4582 2.471,3.5182l-1.7093 -0.8605c-0.2956,-0.2322 -1.1553,-0.9677 -1.5919,-1.0056l-0.9815 5.6679c0.0131,1.7937 0.4412,4.1929 1.0025,5.6487 0.4905,0.11 3.1359,0.6503 3.5677,1.02l-1.0855 0.6946 4.4959 0.8263c0.724,0.2087 2.8497,1.4732 3.1538,2.12 -1.3576,-0.4954 -2.7861,-1.0509 -4.1757,-1.4061 -1.566,-0.4003 -3.1077,-0.7452 -4.9005,-0.6246l1.5079 2.9672c0.316,0.4934 1.5896,2.3658 1.9091,2.4972 0.269,0.1106 7.7116,0.1222 8.699,0.1271l-0.7235 -0.7257c-0.6634,-0.6885 -1.2912,-1.7823 -1.3478,-2.7842 0.6528,1.1351 0.9654,1.6479 2.0879,2.4965 2.3805,1.8001 8.7153,2.0331 11.6934,2.0261 1.9427,-0.0047 6.6023,-0.3208 8.4195,-0.7038 4.4588,-0.9397 4.8602,-3.2858 5.3743,-3.7832l-0.7969 2.0162c-0.3492,0.6884 -1.0485,1.1173 -1.3415,1.4455l8.7635 -0.1199c0.4055,-0.0854 3.0549,-4.0781 3.3647,-5.471l-4.893 0.6469c-0.7417,0.2019 -1.4276,0.4031 -2.1403,0.6507 -0.5312,0.1845 -1.5193,0.6665 -2.0044,0.7436l3.1576 -2.1206c1.3999,-0.536 2.8394,-0.7381 4.4546,-0.8167l-1.0979 -0.7021 1.7338 -0.5823c0.3652,-0.1017 1.6582,-0.3361 1.8556,-0.4658l0.9856 -5.6211c0.0152,-1.0466 -0.0617,-2.0866 -0.236,-3.0574 -0.1213,-0.6759 -0.4165,-2.1475 -0.735,-2.5897l-3.226 1.8236c0.2109,-1.0728 0.1122,-1.0764 0.8406,-1.993 0.9413,-1.1845 1.2064,-1.1112 1.6104,-1.5004l-1.5961 -2.6152c-0.2909,-0.333 -1.7436,-1.9113 -2.3301,-1.8451l-0.6247 6.1462c-0.1665,2.0683 -0.2854,4.1941 -0.4679,6.2685 -0.1753,1.9929 -0.5193,3.499 -1.4851,5.2254 -0.3871,0.6918 -0.8822,1.4435 -1.39,1.9778 -0.2842,0.2989 -1.3835,1.5131 -1.7271,1.5884zm-23.3963 19.428c1.238,-0.3338 2.2248,0.4859 2.4879,1.4792 0.3305,1.2475 -0.6111,2.3066 -1.4992,2.5172 -2.6836,0.6364 -3.6383,-3.2817 -0.9887,-3.9964zm2.3483 -1.2291c-0.3675,-0.0809 -0.5591,-0.2902 -0.943,-0.4221 -2.1454,-0.7367 -4.8098,0.9339 -4.7795,3.8093 0.0299,2.8227 3.0594,4.3975 4.9625,3.4116 0.4437,-0.2299 0.5002,-0.3722 0.7396,-0.4969l0.707 0.6209c0.4083,-0.0056 0.8701,0.0256 1.2673,-0.0059l0.033 -9.9965 -1.9798 -0.0093 -0.0071 3.0889zm8.1869 1.2153c2.6365,-0.6749 3.5074,3.4158 0.9549,4.0137 -2.7132,0.6356 -3.5038,-3.3613 -0.9549,-4.0137zm2.236 -1.24c-0.668,-0.2217 -0.8498,-0.5626 -1.9006,-0.5554 -0.7855,0.0054 -1.4308,0.2262 -1.9613,0.5835 -2.3989,1.6152 -2.1927,5.1308 0.0399,6.5348 0.5858,0.3683 1.1574,0.5535 1.988,0.5388 1.2025,-0.0212 1.3645,-0.441 1.8315,-0.6671l0.6903 0.505c0.3751,-0.0076 0.8756,-0.0674 1.2055,0.0492l0.0485 -5.0659c0.0166,-1.5011 0.1142,-3.5423 -0.0117,-4.9903l-1.8997 0.0031 -0.0304 3.0643zm-20.839 1.2351c1.2538,-0.3365 2.2395,0.5175 2.5001,1.5059 0.3222,1.2221 -0.6099,2.2782 -1.4667,2.5049 -2.676,0.7083 -3.6774,-3.3011 -1.0334,-4.0108zm2.216 -1.1848c-0.9139,-0.8669 -2.8464,-0.7431 -3.8949,-0.0354 -3.0629,2.0673 -1.6472,7.3015 2.2164,7.0618 1.0802,-0.067 1.1036,-0.3679 1.7828,-0.7053 0.8647,0.7096 0.4939,0.5496 1.3383,0.5659 0.4454,0.0086 0.5135,0.0491 0.5579,-0.0603l0.0435 -7.1113 -1.8977 -0.0245c-0.0725,0.229 -0.0418,0.2036 -0.1463,0.3091zm24.1917 1.214c2.5623,-0.7861 3.7058,3.052 1.1853,3.9356 -1.2631,0.4428 -2.2951,-0.4606 -2.5728,-1.336 -0.4104,-1.2937 0.4674,-2.3173 1.3875,-2.5996zm2.2432 -1.2498c-2.6947,-1.6163 -5.5171,0.4705 -5.4702,3.3343 0.0567,3.465 3.9702,4.6327 5.4363,3.0237l0.0654 0.1046c0.0083,0.0178 0.0181,0.0345 0.0259,0.0544 0.0225,0.0573 0.0293,0.1094 0.0422,0.1693 0.0301,0.1391 -0.0081,0.0708 0.0504,0.2413l1.8357 0.0079 0.0441 -7.1859 -1.9002 -0.0148 -0.1296 0.2652zm-30.7106 -12.1908c0.0223,0.0217 0.0749,0.1749 0.2689,0.3836l0.8872 0.8587c0.1862,0.1886 1.0638,1.0285 1.2367,1.0794 0.2282,0.0672 8.144,0.2182 9.0849,0.2344 1.4664,0.0254 3.0965,-0.0162 4.5376,0.0818l-0.7236 -2.3698 -15.2917 -0.2681zm23.3938 2.6138c3.5658,-0.0172 7.1319,-0.1789 10.6839,-0.2483 0.7374,-0.0143 1.5778,0.0792 1.9206,-0.2 0.4027,-0.3281 2.0102,-1.8513 2.1592,-2.1681l-7.6386 0.1449c-1.207,0.0191 -7.0127,0.04 -7.6946,0.1725l-0.6696 2.315 1.2391 -0.016zm9.8805 14.1401c0.0861,1.755 1.6231,2.8201 3.5667,2.6802 1.8456,-0.1329 3.2894,-1.5114 2.6675,-3.2483 -0.692,-1.9325 -3.7081,-1.2891 -4.114,-2.1215 -0.3978,-0.8162 1.1198,-1.2401 1.821,-0.6413 0.4544,0.388 0.1441,0.7874 0.7688,0.7015 0.468,-0.0644 0.8941,-0.1484 1.3923,-0.182 -0.6564,-1.7471 -1.3732,-2.5058 -3.3597,-2.3632 -1.5214,0.1092 -3.0425,1.267 -2.5704,3.0182 0.1895,0.7023 0.7807,1.1685 1.5269,1.3931 0.8109,0.2441 3.3491,0.3266 2.6306,1.439 -0.1989,0.3081 -0.6249,0.3635 -1.067,0.3601 -1.3711,-0.0105 -1.3193,-0.9269 -1.5528,-1.2928l-1.3306 0.1637c-0.2085,0.0319 -0.2255,0.0196 -0.3793,0.0933zm-12.9677 -9.4047c2.0002,0.1838 5.419,-0.3284 7.3669,-0.8114 0.9793,-0.2428 5.3426,-1.6799 5.7517,-2.4061l-11.7864 0.2173 -0.1995 0.409c-0.3512,0.9388 -0.9436,2.0741 -1.1327,2.5912zm-15.6224 -3.2165c0.3499,0.4198 2.051,1.0695 2.75,1.3838 3.3034,1.4859 6.691,1.7628 10.4158,1.8582l-1.3337 -3.0262 -11.8321 -0.2158zm5.7037 -13.0216c-0.0092,0.0142 -0.0164,0.0356 -0.0206,0.0464 -0.1226,0.3175 -0.1186,0.6244 -0.5649,0.7989 -1.3747,0.5375 -2.0163,-1.7906 -0.1358,-1.6732l-1.113 -0.8278c-0.5973,-0.2223 -1.9782,1.8407 -1.1337,4.0421 0.3368,0.8775 1.0396,1.529 1.8495,1.9645 0.4786,0.2573 2.2463,0.8777 2.8908,0.8013 -0.5143,-2.3172 -0.5243,-3.1498 -1.7723,-5.1522zm15.5662 5.1981c0.94,-0.0754 2.257,-0.488 2.9797,-0.8845 2.0146,-1.1055 2.5272,-3.4713 1.5876,-5.1588 -0.8282,-1.4874 -1.8131,-0.5086 -2.0847,0.0128l0.9166 1.4828c-0.2253,0.2448 -0.7117,0.3596 -1.0893,0.1796 -0.4372,-0.2084 -0.3558,-0.4685 -0.5319,-0.8092l-1.778 5.1773zm-10.7109 15.6902c-0.2324,0.0397 -0.1819,0.0972 -0.1804,0.3491 0.0109,1.8996 -0.0661,5.1827 0.0288,6.7507l1.8441 0.022 0.004 -7.1153 -1.6965 -0.0065zm1.2228 -11.7142c0.1235,0.6605 0.4631,1.81 0.6906,2.3605l3.8515 0.0002c0.2077,-0.5911 0.5903,-1.6907 0.6762,-2.3605l-5.2183 -0.0002zm2.6099 7.0609c0.2411,-0.3266 1.3624,-2.6044 1.3722,-2.9857l-2.724 -0.0098c0.0053,0.5203 1.0936,2.5854 1.3518,2.9955zm-4.0563 3.1271c0.109,0.4334 0.6447,0.8955 1.2759,0.7422 0.499,-0.1213 0.9625,-0.6594 0.8022,-1.3118 -0.3382,-1.3768 -2.4433,-0.8832 -2.0781,0.5696z"/>
 </g>
</svg>
