<?xml version="1.0" encoding="UTF-8"?>
<!DOCTYPE svg PUBLIC "-//W3C//DTD SVG 1.1//EN" "http://www.w3.org/Graphics/SVG/1.1/DTD/svg11.dtd">
<!-- Creator: CorelDRAW -->
<svg xmlns="http://www.w3.org/2000/svg" xml:space="preserve" width="40mm" height="55mm" style="shape-rendering:geometricPrecision; text-rendering:geometricPrecision; image-rendering:optimizeQuality; fill-rule:evenodd; clip-rule:evenodd"
viewBox="0 0 40 55"
 xmlns:xlink="http://www.w3.org/1999/xlink">
 <defs>
  <style type="text/css">
   <![CDATA[
    .fil0 {fill:#0D0201}
    .fil6 {fill:#554A47}
    .fil7 {fill:#797575}
    .fil3 {fill:#9E6451}
    .fil8 {fill:#A4CCCC}
    .fil5 {fill:#A59B96}
    .fil9 {fill:#B21103}
    .fil2 {fill:#C97108}
    .fil4 {fill:#D4C5B2}
    .fil11 {fill:#EAE1D6}
    .fil1 {fill:#F9655E}
    .fil10 {fill:#FDFDFE}
    .fil12 {fill:#0D0201;fill-rule:nonzero}
   ]]>
  </style>
 </defs>
 <g id="Capa_x0020_1">
  <metadata id="CorelCorpID_0Corel-Layer"/>
  <g id="_780162952">
   <path id="_608708000" class="fil0" d="M18.3269 15.1261c0.887,-0.3353 2.2099,-3.2905 4.0162,-4.0909 0.9951,-0.441 2.4313,-0.3277 2.9412,0.7293 0.2535,0.5254 0.1991,1.2051 -0.1186,1.6817l-1.4096 0.6481c0.762,0.8472 2.2084,0.0226 2.5119,-1.043 0.32,-1.1235 -0.2209,-2.2623 -1.1194,-2.8589 -1.4653,-0.9729 -3.243,-0.2186 -4.4383,0.7781l-1.071 0.9983c0.0261,-1.9261 -0.6609,-2.3668 -1.3909,-3.9357 -0.6104,-1.3117 -0.69,-2.931 0.2495,-4.1129 0.9071,-1.141 2.3073,-1.6422 3.7803,-1.155 1.5586,0.5155 2.0228,1.441 2.5749,2.8179 0.0399,-4.2194 -6.436,-5.8468 -9.0766,-1.6605 -1.1311,1.7933 -0.9516,4.2651 0.4954,5.8157 0.5739,0.6151 1.4475,1.278 1.8543,2.0309 0.72,1.3325 0.2954,2.0723 0.2007,3.3569z"/>
   <path id="_415647040" class="fil0" d="M21.4515 4.9717c-2.0508,0.6724 -0.9478,3.4746 0.8048,2.9068 1.9793,-0.6413 1.0437,-3.5128 -0.8048,-2.9068z"/>
   <path id="_793440168" class="fil0" d="M6.7321 5.302c-0.1932,0.2893 -0.0149,0.2484 -0.2963,0.4543 -0.1569,0.1148 -0.2772,0.2088 -0.2876,0.4428 -0.0325,0.7373 1.6984,1.0451 1.4764,-0.2747 -0.0813,-0.4837 -0.4371,-0.6739 -0.8925,-0.6224z"/>
   <g>
    <path id="_416569472" class="fil1" d="M6.012 22.1974l-0.0141 -0.4785 0.2585 -0.2775c0.4913,-0.0127 0.7846,0.1759 0.5666,0.7035 -0.2016,0.4881 -0.5133,0.3866 -0.811,0.0525zm-1.455 1.4482c1.4608,0.6243 8.0379,1.704 9.6095,1.5987 1.2593,-0.0247 2.7094,0.1167 4.0149,0.1324 0.7186,0.0086 0.8981,-0.2472 1.4836,-0.6092 0.4276,-0.2644 0.8558,-0.4981 1.3007,-0.7351 0.9124,-0.4861 1.8221,-0.9174 2.7774,-1.3107 0.5076,-0.209 0.9559,-0.3909 1.4747,-0.5794 0.4049,-0.1471 1.2164,-0.3348 1.4938,-0.578 -0.8754,0.0364 -1.8982,0.1721 -2.8047,0.2426 -4.0416,0.3143 -10.2794,0.1295 -14.3073,-0.2377 -2.2965,-0.2094 -3.6793,-0.675 -5.1243,-0.8286l0.0817 2.905z"/>
    <path id="_788313976" class="fil2" d="M14.125 18.511c0.3084,0.0201 0.6348,-0.0122 0.8587,0.1337l-4.8367 0.6971c-0.4799,0.0773 -1.1156,0.2934 -1.5454,0.2561 0.2012,0.1121 0.5543,0.0794 0.8091,0.0739 1.4872,0.0625 2.9074,0.1666 4.4114,0.1785 2.9717,0.0233 6.1677,0.044 9.1276,-0.0328 0.5497,-0.0143 1.4566,-0.1702 2.0013,-0.2939 0.4801,-0.109 0.1329,-0.146 0.9146,-0.2394l1.12 -0.0725c-0.0187,-0.178 0.1125,0.0396 -0.0779,-0.2168 -2.0951,-0.2749 -4.0737,-0.5146 -6.2061,-0.565 -0.9942,-0.0235 -6.0155,-0.1663 -6.5766,0.0811z"/>
    <path id="_608713232" class="fil3" d="M34.4385 22.473c1.1945,0.5148 1.8603,1.0126 2.4865,2.1679 0.901,1.6622 0.401,2.8607 0.3606,3.8554l0.3957 -0.8508c-0.1247,-0.1826 -0.0581,-0.2117 -0.0317,-0.4747 0.257,-2.553 -1.3561,-4.7385 -4.0059,-5.1069 0.2761,0.2532 0.5011,0.1513 0.7948,0.4091z"/>
    <path id="_416572496" class="fil4" d="M27.9373 35.4664c-0.1083,-0.0545 -0.1292,0.0666 -0.039,-0.1084 -0.2183,0.1215 -0.7877,0.8449 -0.8772,1.0677 0.222,-0.1387 0.8252,-0.7205 0.9162,-0.9593z"/>
    <path id="_780974920" class="fil5" d="M17.4389 36.9874c0.1619,-0.1454 0.0676,0.0371 0.1147,-0.2083 0.0499,-0.2598 0.0377,-1.6216 -0.0055,-1.7518l-1.2192 -0.027c0.3242,0.1653 0.839,0.0514 1.2031,0.147l-0.0931 1.8401z"/>
    <path id="_610949160" class="fil5" d="M7.8943 19.5425l-0.3017 -0.118 0.1839 -0.1748 -0.6584 0.1239c0.2062,0.1399 0.4992,0.1643 0.7762,0.1689z"/>
    <path id="_413904784" class="fil5" d="M15.3519 27.0832l-0.0259 -0.0971 0.1561 -0.0114 -0.2323 -0.0951c0.0318,0.2698 -0.0531,0.091 0.1021,0.2036z"/>
    <path id="_416570648" class="fil6" d="M34.4385 22.473c-0.2937,-0.2578 -0.5187,-0.1559 -0.7948,-0.4091l-0.2259 -0.0671 0.0316 -0.3441 0.3631 0.0213c-0.1895,-0.1483 -0.0834,-0.1138 -0.375,-0.1255 -0.1761,0.2602 -0.1593,0.2771 -0.0869,0.5858 0.1823,0.1294 0.8409,0.285 1.0879,0.3387z"/>
    <path id="_416569904" class="fil7" d="M35.8179 27.0035l0.1035 -0.2489 0.1091 0.1121c-0.0191,-0.27 0.0217,-0.2367 -0.1332,-0.3956l-0.0794 0.5324z"/>
    <polygon id="_416569736" class="fil7" points="10.9156,26.0785 11.085,25.9716 10.729,25.8776 10.9561,25.9785 "/>
    <polygon id="_416568992" class="fil7" points="14.6173,34.9944 14.7237,34.8807 14.4837,34.8025 14.6502,34.8763 "/>
    <path id="_416569424" class="fil8" d="M26.4399 25.7754l0.3645 0.0312c-0.0958,2.7147 -1.0436,4.852 -3.0261,6.6225 -0.2882,0.2573 -0.5562,0.521 -0.8753,0.7582 -0.3035,0.2255 -0.7559,0.4291 -0.9667,0.7075 4.7509,-1.1522 6.5263,-3.5033 6.4962,-8.4799 -0.2696,0.024 -1.9197,0.2391 -1.9926,0.3605z"/>
    <path id="_416570192" class="fil8" d="M21.772 34.8253c0.2444,0.3183 0.7152,1.2246 0.9483,1.6333 0.2095,0.3672 0.7706,1.3581 1.0406,1.641l-0.0619 0.1607c0.4191,-0.1245 1.1659,-0.5782 1.4702,-0.8809l-2.0094 -2.9035c-0.3081,0.0101 -1.1919,0.1998 -1.3878,0.3494z"/>
    <path id="_416570960" class="fil8" d="M12.0629 38.0353c0.133,0.1818 0.4321,0.3475 0.6663,0.3786 0.3283,-0.3034 1.7926,-2.93 1.8881,-3.4195l0.0329 -0.1181 -0.1665 -0.0738 -0.2531 -0.0435c-0.0741,0.616 -1.5985,2.5599 -2.0172,3.2671l-0.1505 0.0092z"/>
    <path id="_416569976" class="fil8" d="M20.1591 37.0109l0.8063 -0.0245c0.0092,-0.4715 -0.2176,-1.571 -0.3512,-2.0293l-0.5889 0.0421 0.1338 2.0117z"/>
    <path id="_416568944" class="fil8" d="M18.6579 39.5035l-0.0617 -1.7083c0.3557,-0.0557 1.3949,-0.0492 1.7497,0.0424l0.1523 1.5033 0.7671 -0.1378c0.0072,-0.489 -0.1105,-1.0176 -0.2286,-1.4611l-2.5117 -0.025 0.027 1.5796c0.0066,0.3197 -0.0191,0.1023 0.1059,0.2069z"/>
    <path id="_780162496" class="fil9" d="M26.7116 21.5643c-0.2774,0.2432 -1.0889,0.4309 -1.4938,0.578 -0.5188,0.1885 -0.9671,0.3704 -1.4747,0.5794 -0.9553,0.3933 -1.865,0.8246 -2.7774,1.3107 -0.4449,0.237 -0.8731,0.4707 -1.3007,0.7351 -0.5855,0.362 -0.765,0.6178 -1.4836,0.6092 -1.3055,-0.0157 -2.7556,-0.1571 -4.0149,-0.1324 0.3334,0.2166 4.1006,0.2607 4.6698,0.1559 0.5787,-0.1066 1.7593,-0.0611 2.4103,-0.0813 0.7799,-0.0242 1.4718,-0.1115 2.2494,-0.1563 1.3119,-0.0756 7.4859,-1.1123 8.0863,-1.5312l0.0624 -2.8982c-1.5335,0.2148 -3.4402,0.7963 -4.9331,0.8311z"/>
    <path id="_418190456" class="fil9" d="M9.4107 19.6718c0.599,0.3178 8.2775,0.2274 9.5881,0.2274 1.6398,0.0001 3.2656,-0.0277 4.9042,-0.0509 0.6947,-0.0098 4.0473,-0.1954 4.4191,-0.4421l-1.4144 -0.4113c0.1904,0.2564 0.0592,0.0388 0.0779,0.2168l-1.12 0.0725c-0.7817,0.0934 -0.4345,0.1304 -0.9146,0.2394 -0.5447,0.1237 -1.4516,0.2796 -2.0013,0.2939 -2.9599,0.0768 -6.1559,0.0561 -9.1276,0.0328 -1.504,-0.0119 -2.9242,-0.116 -4.4114,-0.1785z"/>
    <path id="_780162352" class="fil10" d="M18.0266 32.6933c-0.1642,0.1971 -0.2963,0.6605 -0.5655,0.7759 -0.4245,0.1819 -0.8182,-0.1242 -0.7678,-0.5682 0.0001,-0.0008 0.6437,-1.4815 1.2842,-1.5114 0.7043,-0.033 1.3526,1.4315 1.3559,1.4466 0.0944,0.4248 -0.2402,0.7478 -0.6666,0.6695 -0.4303,-0.0789 -0.4693,-0.4877 -0.6402,-0.8124zm3.9097 1.2015c0.2108,-0.2784 0.6632,-0.482 0.9667,-0.7075 0.3191,-0.2372 0.5871,-0.5009 0.8753,-0.7582 1.9825,-1.7705 2.9303,-3.9078 3.0261,-6.6225l-0.3645 -0.0312c-0.3864,-0.0435 -1.1173,0.0245 -1.4114,0.2336l0.9684 1.2966 -1.4008 -0.3981c-0.4747,0.2031 -0.7643,0.6102 -0.7671,1.1509 -0.0028,0.5328 0.3449,0.9921 0.8662,1.119 0.6491,0.158 0.9156,-0.1527 1.3146,-0.5147l-1.092 1.9756c-0.6894,0.4953 -1.6255,0.6336 -2.4397,0.3593 -0.7448,-0.251 -1.2755,-0.758 -1.6289,-1.4556 -0.5266,-1.0396 -0.2566,-1.5957 -0.0704,-2.5915l-1.2931 -0.3176 0.6367 -0.3217 -2.0772 0.0363c-0.6376,-0.0014 -1.5019,-0.0722 -2.0998,-0.0297l0.605 0.304 -1.0683 0.3529 -0.1561 0.0114 0.0259 0.0971c0.0484,0.5101 0.2488,0.7039 0.1987,1.3856 -0.1548,2.1058 -2.5342,3.4518 -4.3956,2.1876 -0.5784,-0.3928 -1.1014,-1.2086 -1.0792,-1.9302l1.4212 0.4146c0.4896,-0.1491 0.7866,-0.6496 0.7613,-1.1513 -0.0578,-1.1488 -1.3329,-1.5164 -2.1688,-0.68l0.8261 -1.231 0.0405 -0.1 -0.2271 -0.1009c-0.9768,0.0042 -2.1971,-0.3807 -3.178,-0.4829 -0.1857,3.3399 1.0963,6.3233 4.121,7.7445 3.0678,1.4415 6.9817,1.2601 10.2643,0.7556z"/>
    <path id="_416571824" class="fil10" d="M4.557 23.6456l-0.0817 -2.905c1.445,0.1536 2.8278,0.6192 5.1243,0.8286 4.0279,0.3672 10.2657,0.552 14.3073,0.2377 0.9065,-0.0705 1.9293,-0.2062 2.8047,-0.2426 1.4929,-0.0348 3.3996,-0.6163 4.9331,-0.8311l-0.0624 2.8982 0.4862 -0.1425 0.1705 -3.7673 -14.1938 1.7462c-2.2063,0.1298 -8.5804,-0.4276 -11.1613,-0.9148 -1.7292,-0.3265 -1.5088,-0.3183 -3.0353,-0.8331l0.1869 3.7477 0.5215 0.178z"/>
    <path id="_780162136" class="fil10" d="M27.8983 35.358c-0.0902,0.175 -0.0693,0.0539 0.039,0.1084 0.4261,-0.3329 1.3002,-1.6168 1.6288,-2.1547 0.9763,-1.598 1.6663,-3.7012 2.0311,-5.5354 0.1412,-0.7103 0.4751,-2.671 0.3882,-3.3112l-0.5043 0.1363c-0.3619,2.554 -0.398,3.5005 -1.219,6.0087 -0.2559,0.7815 -0.6693,1.8119 -1.0633,2.5413 -0.1771,0.328 -1.2774,2.0958 -1.3005,2.2066z"/>
    <path id="_780162016" class="fil10" d="M13.5434 17.8206c1.3139,0.1208 3.1871,-0.0087 4.5699,-0.0079 3.0789,0.0016 7.8121,0.0945 10.8043,0.7314l1.8514 0.4381c-0.2201,-1.4889 -15.6785,-1.8837 -17.2256,-1.1616z"/>
    <path id="_416572064" class="fil10" d="M12.0629 38.0353l0.1505 -0.0092c0.4187,-0.7072 1.9431,-2.6511 2.0172,-3.2671l-1.2714 -0.2827 -2.0493 2.7735 1.153 0.7855z"/>
    <path id="_780161584" class="fil10" d="M15.0658 37.74c-0.0719,0.2982 -0.2372,1.1927 -0.2049,1.4608 0.724,0.1344 1.8854,0.3488 2.5995,0.3265l0.0535 -1.7753 -2.4481 -0.012z"/>
    <path id="_780161512" class="fil10" d="M17.4389 36.9874l0.0931 -1.8401c-0.3641,-0.0956 -0.8789,0.0183 -1.2031,-0.147l-0.8354 -0.0336 -0.3258 2.0162 2.2712 0.0045z"/>
    <path id="_780161416" class="fil10" d="M33.6437 22.0639c2.6498,0.3684 4.2629,2.5539 4.0059,5.1069 -0.0264,0.263 -0.093,0.2921 0.0317,0.4747 0.1201,-0.911 0.4125,-1.2676 0.2203,-2.3533 -0.1107,-0.6252 -0.4024,-1.2892 -0.786,-1.7958 -0.7234,-0.9556 -2.0544,-1.6553 -3.3031,-1.8224l-0.3631 -0.0213 -0.0316 0.3441 0.2259 0.0671z"/>
    <path id="_413902456" class="fil10" d="M20.1591 37.0109l-0.1338 -2.0117 -1.5046 0.0627 0.0294 1.9009c0.3735,0.1078 1.1683,0.026 1.609,0.0481z"/>
    <path id="_612081296" class="fil10" d="M7.7765 19.2497l-0.1839 0.1748 0.3017 0.118 0.7073 0.0554c0.4298,0.0373 1.0655,-0.1788 1.5454,-0.2561l4.8367 -0.6971c-0.2239,-0.1459 -0.5503,-0.1136 -0.8587,-0.1337 -0.9193,-0.0641 -2.3539,0.1122 -3.2982,0.2168 -1.0486,0.1161 -2.0633,0.3912 -3.0503,0.5219z"/>
    <path id="_612077408" class="fil10" d="M18.6579 39.5035l1.8403 -0.1626 -0.1523 -1.5033c-0.3548,-0.0916 -1.394,-0.0981 -1.7497,-0.0424l0.0617 1.7083z"/>
    <path id="_416571296" class="fil10" d="M23.699 38.2603l0.0619 -0.1607c-0.27,-0.2829 -0.8311,-1.2738 -1.0406,-1.641 -0.2331,-0.4087 -0.7039,-1.315 -0.9483,-1.6333l-0.3083 -0.0157c-0.0534,0.404 0.6166,1.5209 0.8543,1.9206 0.2433,0.4093 0.8032,1.4169 1.1145,1.6788l0.2665 -0.1487z"/>
    <path id="_612076640" class="fil10" d="M35.8179 27.0035c-0.0968,1.8363 -2.1666,3.354 -3.8304,3.7564l-0.1181 0.3436 2.8663 -1.3382c0.3336,-0.2993 0.7303,-0.7193 0.9609,-1.151 0.4042,-0.7569 0.2859,-0.9571 0.3339,-1.7476l-0.1091 -0.1121 -0.1035 0.2489z"/>
    <path id="_610960056" class="fil0" d="M15.0658 37.74l2.4481 0.012 -0.0535 1.7753c-0.7141,0.0223 -1.8755,-0.1921 -2.5995,-0.3265 -0.0323,-0.2681 0.133,-1.1626 0.2049,-1.4608zm5.4324 1.6009l-1.8403 0.1626c-0.125,-0.1046 -0.0993,0.1128 -0.1059,-0.2069l-0.027 -1.5796 2.5117 0.025c0.1181,0.4435 0.2358,0.9721 0.2286,1.4611l-0.7671 0.1378zm-0.4729 -4.3417l0.5889 -0.0421c0.1336,0.4583 0.3604,1.5578 0.3512,2.0293l-0.8063 0.0245c-0.4407,-0.0221 -1.2355,0.0597 -1.609,-0.0481l-0.0294 -1.9009 1.5046 -0.0627zm-3.6964 0.0011l1.2192 0.027c0.0432,0.1302 0.0554,1.492 0.0055,1.7518 -0.0471,0.2454 0.0472,0.0629 -0.1147,0.2083l-2.2712 -0.0045 0.3258 -2.0162 0.8354 0.0336zm5.4431 -0.175c0.1959,-0.1496 1.0797,-0.3393 1.3878,-0.3494l2.0094 2.9035c-0.3043,0.3027 -1.0511,0.7564 -1.4702,0.8809l-0.2665 0.1487c-0.3113,-0.2619 -0.8712,-1.2695 -1.1145,-1.6788 -0.2377,-0.3997 -0.9077,-1.5166 -0.8543,-1.9206l0.3083 0.0157zm-9.7091 3.21l-1.153 -0.7855 2.0493 -2.7735 1.2714 0.2827 0.2531 0.0435 0.24 0.0782 -0.1064 0.1137c-0.0955,0.4895 -1.5598,3.1161 -1.8881,3.4195 -0.2342,-0.0311 -0.5333,-0.1968 -0.6663,-0.3786zm23.755 -11.0318l0.0794 -0.5324c0.1549,0.1589 0.1141,0.1256 0.1332,0.3956 -0.048,0.7905 0.0703,0.9907 -0.3339,1.7476 -0.2306,0.4317 -0.6273,0.8517 -0.9609,1.151l-2.8663 1.3382 0.1181 -0.3436c1.6638,-0.4024 3.7336,-1.9201 3.8304,-3.7564zm-3.4605 2.7358c0.0081,-0.3807 0.4403,-1.9183 0.5362,-2.4907l0.3189 -2.7694c0.6633,-0.2012 2.3502,0.8091 1.6693,2.9156 -0.3553,1.0992 -1.3888,2.1011 -2.5244,2.3445zm-17.0055 -2.6561c-0.1552,-0.1126 -0.0703,0.0662 -0.1021,-0.2036l0.2323 0.0951 1.0683 -0.3529 -0.605 -0.304c0.5979,-0.0425 1.4622,0.0283 2.0998,0.0297l2.0772 -0.0363 -0.6367 0.3217 1.2931 0.3176c-0.1862,0.9958 -0.4562,1.5519 0.0704,2.5915 0.3534,0.6976 0.8841,1.2046 1.6289,1.4556 0.8142,0.2743 1.7503,0.136 2.4397,-0.3593l1.092 -1.9756c-0.399,0.362 -0.6655,0.6727 -1.3146,0.5147 -0.5213,-0.1269 -0.869,-0.5862 -0.8662,-1.119 0.0028,-0.5407 0.2924,-0.9478 0.7671,-1.1509l1.4008 0.3981 -0.9684 -1.2966c0.2941,-0.2091 1.025,-0.2771 1.4114,-0.2336 0.0729,-0.1214 1.723,-0.3365 1.9926,-0.3605 0.0301,4.9766 -1.7453,7.3277 -6.4962,8.4799 -3.2826,0.5045 -7.1965,0.6859 -10.2643,-0.7556 -3.0247,-1.4212 -4.3067,-4.4046 -4.121,-7.7445 0.9809,0.1022 2.2012,0.4871 3.178,0.4829l0.356 0.094 -0.1694 0.1069 -0.8261 1.231c0.8359,-0.8364 2.111,-0.4688 2.1688,0.68 0.0253,0.5017 -0.2717,1.0022 -0.7613,1.1513l-1.4212 -0.4146c-0.0222,0.7216 0.5008,1.5374 1.0792,1.9302 1.8614,1.2642 4.2408,-0.0818 4.3956,-2.1876 0.0501,-0.6817 -0.1503,-0.8755 -0.1987,-1.3856zm12.5854 8.3832c-0.091,0.2388 -0.6942,0.8206 -0.9162,0.9593 0.0895,-0.2228 0.6589,-0.9462 0.8772,-1.0677 0.0231,-0.1108 1.1234,-1.8786 1.3005,-2.2066 0.394,-0.7294 0.8074,-1.7598 1.0633,-2.5413 0.821,-2.5082 0.8571,-3.4547 1.219,-6.0087l0.5043 -0.1363c0.0869,0.6402 -0.247,2.6009 -0.3882,3.3112 -0.3648,1.8342 -1.0548,3.9374 -2.0311,5.5354 -0.3286,0.5379 -1.2027,1.8218 -1.6288,2.1547zm-23.7785 -10.9568l0.4145 0.0802 0.0886 2.4175c-0.1655,-0.7732 -0.5342,-1.6364 -0.5031,-2.4977zm29.6537 -2.8356c1.2487,0.1671 2.5797,0.8668 3.3031,1.8224 0.3836,0.5066 0.6753,1.1706 0.786,1.7958 0.1922,1.0857 -0.1002,1.4423 -0.2203,2.3533l-0.3957 0.8508c0.0404,-0.9947 0.5404,-2.1932 -0.3606,-3.8554 -0.6262,-1.1553 -1.292,-1.6531 -2.4865,-2.1679 -0.247,-0.0537 -0.9056,-0.2093 -1.0879,-0.3387 -0.0724,-0.3087 -0.0892,-0.3256 0.0869,-0.5858 0.2916,0.0117 0.1855,-0.0228 0.375,0.1255zm-2.2302 1.9574c-0.6004,0.4189 -6.7744,1.4556 -8.0863,1.5312 -0.7776,0.0448 -1.4695,0.1321 -2.2494,0.1563 -0.651,0.0202 -1.8316,-0.0253 -2.4103,0.0813 -0.5692,0.1048 -4.3364,0.0607 -4.6698,-0.1559 -1.5716,0.1053 -8.1487,-0.9744 -9.6095,-1.5987l-0.5215 -0.178 -0.1869 -3.7477c1.5265,0.5148 1.3061,0.5066 3.0353,0.8331 2.5809,0.4872 8.955,1.0446 11.1613,0.9148l14.1938 -1.7462 -0.1705 3.7673 -0.4862 0.1425zm-23.8058 -4.3817c0.987,-0.1307 2.0017,-0.4058 3.0503,-0.5219 0.9443,-0.1046 2.3789,-0.2809 3.2982,-0.2168 0.5611,-0.2474 5.5824,-0.1046 6.5766,-0.0811 2.1324,0.0504 4.111,0.2901 6.2061,0.565l1.4144 0.4113c-0.3718,0.2467 -3.7244,0.4323 -4.4191,0.4421 -1.6386,0.0232 -3.2644,0.051 -4.9042,0.0509 -1.3106,0 -8.9891,0.0904 -9.5881,-0.2274 -0.2548,0.0055 -0.6079,0.0382 -0.8091,-0.0739l-0.7073 -0.0554c-0.277,-0.0046 -0.57,-0.029 -0.7762,-0.1689l0.6584 -0.1239zm5.7669 -1.4291c1.5471,-0.7221 17.0055,-0.3273 17.2256,1.1616l-1.8514 -0.4381c-2.9922,-0.6369 -7.7254,-0.7298 -10.8043,-0.7314 -1.3828,-0.0008 -3.256,0.1287 -4.5699,0.0079zm19.9174 2.9247c-0.1448,-1.8249 -0.0123,-2.2531 -1.8912,-2.941 -3.1032,-1.136 -7.5977,-1.1827 -8.2052,-1.3754 -0.4503,-0.1428 -1.9554,-1.7351 -0.7014,-3.1349 -2.0463,1.3632 -1.8175,0.9528 -1.7628,3.0507l-4.8922 -0.0143 -0.385 -1.9306c0.1528,-0.2891 0.4034,-0.5319 0.6632,-0.7019 0.3373,-0.2206 0.6855,-0.2086 0.9709,-0.3578 -3.9236,-0.1764 -3.3976,-0.4823 -4.2042,3.0376 -2.5843,0.2703 -6.0658,0.4967 -8.4567,1.3658 -1.8087,0.6575 -1.9199,1.1274 -1.8921,3.0262 0.0229,1.5654 0.0823,3.0865 0.2632,4.6398 0.31,2.6619 0.9363,5.3033 2.2136,7.6096 1.0984,1.9831 1.7648,2.6833 3.1915,4.165 0.2948,0.3061 1.1833,0.9127 1.3198,1.1877l-1.2944 2.2536c4.6737,1.0125 10.5067,1.126 15.2398,0.5947 1.0448,-0.1173 6.3216,-0.583 6.4536,-1.719l-3.7704 -1.134c1.2589,-1.0835 2.4577,-2.0415 3.4298,-3.4389 0.1792,-0.2575 0.7711,-1.1616 0.9367,-1.3132 0.5427,-0.2718 2.7583,-0.0771 5.0689,-1.6047 3.7526,-2.4811 4.4819,-8.318 0.23,-10.52 -0.9283,-0.4807 -1.5605,-0.5116 -2.5254,-0.745z"/>
    <path id="_415654528" class="fil0" d="M10.656 15.6978c-1.0588,-0.1263 -2.14,-1.0184 -2.6427,-1.9265 -0.6433,-1.1624 -0.5572,-2.6237 0.2044,-3.7145 1.4929,-2.1383 4.2028,-1.2875 4.6436,-0.3155l0.4397 1.938c0.4091,-0.9495 0.6187,-1.7031 0.1987,-2.7756 -1.1658,-2.9778 -4.9147,-2.6606 -6.657,-0.6995 -3.2542,3.6629 0.397,8.1776 3.8133,7.4936z"/>
    <path id="_413914840" class="fil0" d="M25.6794 15.3771c0.5712,-0.7565 1.3022,-1.807 2.5819,-1.8639 0.5942,-0.0263 1.2874,0.2368 1.4143,0.8669 -0.1658,0.904 -0.8104,0.6908 -1.2156,1.0362 0.6248,0.6278 1.6754,0.1509 1.8082,-0.736 0.1215,-0.8113 -0.4062,-1.59 -1.1443,-1.8607 -1.6606,-0.6092 -3.374,0.9327 -3.4445,2.5575z"/>
    <path id="_413914720" class="fil0" d="M12.5428 13.0852c-0.689,0.001 -1.4815,0.1704 -1.8631,-0.6165 -0.1599,-0.3297 -0.1801,-0.688 0.0482,-0.9909l0.9942 -0.3892c-0.4989,-0.7813 -2.7514,-0.1164 -2.1697,1.5538 0.4716,1.3543 2.5218,1.0425 2.9904,0.4428z"/>
    <path id="_413914600" class="fil0" d="M18.0266 32.6933c0.1709,0.3247 0.2099,0.7335 0.6402,0.8124 0.4264,0.0783 0.761,-0.2447 0.6666,-0.6695 -0.0033,-0.0151 -0.6516,-1.4796 -1.3559,-1.4466 -0.6405,0.0299 -1.2841,1.5106 -1.2842,1.5114 -0.0504,0.444 0.3433,0.7501 0.7678,0.5682 0.2692,-0.1154 0.4013,-0.5788 0.5655,-0.7759z"/>
    <path id="_793827832" class="fil0" d="M3.203 10.8074c-1.1926,0.4933 -0.3189,2.2694 0.7894,1.7666 1.1657,-0.5289 0.4623,-2.2842 -0.7894,-1.7666z"/>
    <path id="_413914360" class="fil0" d="M27.1851 8.3678c-1.2044,0.4757 -0.4276,2.2567 0.7427,1.7095 1.0974,-0.5132 0.3966,-2.1596 -0.7427,-1.7095z"/>
    <path id="_416572136" class="fil0" d="M31.0612 14.9759c1.7909,0.2448 2.1889,-1.1792 0.9226,-1.3348 -0.1403,-0.6317 -0.6541,-0.768 -0.9424,-0.2416 -0.2614,0.4774 -0.069,1.0832 0.0198,1.5764z"/>
    <path id="_784578352" class="fil0" d="M2.2422 15.0963l-0.4146 -1.2119c-0.329,0.3274 0.0346,0.1175 -0.4294,0.3231 -0.3816,0.1691 -0.5933,1.0816 0.844,0.8888z"/>
    <path id="_413910544" class="fil0" d="M3.1917 9.5968l0.3216 -0.0235c0.1962,-0.3476 0.057,-0.4775 -0.3133,-0.4513 -0.1726,0.2177 -0.1789,0.2582 -0.0083,0.4748z"/>
    <path id="_780967984" class="fil0" d="M28.0003 7.0787l-0.0289 0.3559 0.3779 0 0.0139 -0.327c-0.1882,-0.1088 -0.1486,-0.1167 -0.3629,-0.0289z"/>
    <path id="_416571992" class="fil11" d="M6.012 22.1974c0.2977,0.3341 0.6094,0.4356 0.811,-0.0525 0.218,-0.5276 -0.0753,-0.7162 -0.5666,-0.7035l-0.2585 0.2775 0.0141 0.4785z"/>
    <path id="_784574008" class="fil11" d="M4.6619 27.0073l-0.0886 -2.4175 -0.4145 -0.0802c-0.0311,0.8613 0.3376,1.7245 0.5031,2.4977z"/>
    <path id="_792894432" class="fil12" d="M5.3941 50.3449c-0.3466,0.0729 -0.7024,0.0897 -1.0673,0.0501 -0.3649,-0.0395 -0.7115,-0.1231 -1.0399,-0.2508 -0.219,-0.0913 -0.4272,-0.2083 -0.6249,-0.3512 -0.1976,-0.143 -0.3725,-0.3056 -0.5245,-0.4881 -0.1217,-0.152 -0.2281,-0.3162 -0.3193,-0.4926 -0.0912,-0.1764 -0.1672,-0.3588 -0.2281,-0.5473 -0.079,-0.2555 -0.1307,-0.52 -0.155,-0.7937 -0.0244,-0.2736 -0.0152,-0.5473 0.0273,-0.821 0.0608,-0.4074 0.184,-0.8012 0.3695,-1.1813 0.1855,-0.3801 0.4181,-0.7252 0.6978,-1.0354 0.1521,-0.1703 0.33,-0.3178 0.5337,-0.4424 0.2037,-0.1247 0.4181,-0.2144 0.6431,-0.2691 0.2798,-0.0791 0.5656,-0.1262 0.8575,-0.1414 0.2919,-0.0152 0.5808,0.0015 0.8666,0.0501 0.1581,0.0305 0.3163,0.0654 0.4744,0.1049 0.1581,0.0396 0.3101,0.0958 0.4561,0.1688 0.0912,0.0487 0.1779,0.1019 0.26,0.1597 0.0821,0.0577 0.1566,0.1261 0.2235,0.2052 0.1216,0.152 0.1976,0.3314 0.228,0.5382 0.0122,0.1217 0.0046,0.2463 -0.0228,0.374 -0.0273,0.1277 -0.0745,0.2433 -0.1414,0.3467 -0.0547,0.0912 -0.1216,0.1809 -0.2007,0.2691 -0.079,0.0882 -0.1672,0.1612 -0.2645,0.2189 -0.0973,0.0578 -0.1977,0.0973 -0.301,0.1186 -0.1034,0.0213 -0.2038,0.0107 -0.3011,-0.0319 -0.1034,-0.0426 -0.1961,-0.1049 -0.2782,-0.187 -0.0821,-0.0821 -0.1657,-0.1657 -0.2509,-0.2509 -0.0851,-0.0851 -0.1809,-0.1627 -0.2873,-0.2326 -0.1064,-0.0699 -0.2205,-0.1201 -0.3421,-0.1505 -0.0791,-0.0183 -0.1627,-0.0259 -0.2509,-0.0228 -0.0882,0.003 -0.1718,0.0258 -0.2508,0.0684 -0.073,0.0365 -0.1369,0.0867 -0.1916,0.1505 -0.0547,0.0639 -0.1003,0.1353 -0.1368,0.2144 -0.0548,0.1095 -0.0897,0.228 -0.1049,0.3558 -0.0152,0.1277 -0.0259,0.2554 -0.032,0.3831 0,0.2554 0.0046,0.5124 0.0137,0.7708 0.0091,0.2585 0.035,0.5154 0.0776,0.7709 0.0121,0.1094 0.0425,0.2189 0.0912,0.3284 0.0486,0.1094 0.1155,0.1976 0.2007,0.2645 0.0973,0.0669 0.2128,0.0988 0.3466,0.0958 0.1338,-0.003 0.2494,-0.0441 0.3467,-0.1232 0.0973,-0.079 0.1763,-0.1702 0.2371,-0.2736 0.0609,-0.1034 0.1278,-0.2038 0.2007,-0.3011 0.0487,-0.0669 0.111,-0.1216 0.187,-0.1642 0.0761,-0.0425 0.1536,-0.0638 0.2327,-0.0638 0.0608,0 0.1201,0.0061 0.1778,0.0182 0.0578,0.0122 0.1171,0.0243 0.1779,0.0365 0.0548,0.0122 0.1353,0.0304 0.2418,0.0547 0.1064,0.0244 0.2143,0.0548 0.3238,0.0913 0.1095,0.0365 0.2129,0.076 0.3102,0.1186 0.0973,0.0425 0.1642,0.0851 0.2007,0.1277 0.0669,0.079 0.1064,0.1794 0.1185,0.301 0.0122,0.1034 0.0061,0.2068 -0.0182,0.3102 -0.0243,0.1034 -0.0608,0.2037 -0.1095,0.301 -0.0851,0.1885 -0.1961,0.3619 -0.3329,0.52 -0.1369,0.1581 -0.2935,0.2919 -0.4698,0.4014 -0.1338,0.079 -0.2737,0.1459 -0.4197,0.2006 -0.1459,0.0548 -0.2979,0.0973 -0.4561,0.1278zm5.4826 0.1733c-0.2129,0.0121 -0.4273,0.0152 -0.6431,0.0091 -0.2159,-0.0061 -0.4303,-0.0274 -0.6432,-0.0639 -0.2736,-0.0486 -0.5397,-0.1322 -0.7982,-0.2508 -0.2584,-0.1186 -0.488,-0.2691 -0.6887,-0.4516 -0.1581,-0.1459 -0.2858,-0.3101 -0.3831,-0.4926 -0.0791,-0.1399 -0.1399,-0.2904 -0.1825,-0.4515 -0.0426,-0.1612 -0.079,-0.3208 -0.1095,-0.4789 -0.0547,-0.371 -0.0821,-0.7481 -0.0821,-1.1312 0,-0.3467 0.0305,-0.6948 0.0913,-1.0445 0.0608,-0.3497 0.1703,-0.6796 0.3284,-0.9898 0.0851,-0.1703 0.1885,-0.333 0.3101,-0.488 0.1217,-0.1551 0.2585,-0.2904 0.4105,-0.406 0.0852,-0.0669 0.1764,-0.1262 0.2737,-0.1779 0.0973,-0.0517 0.1977,-0.1018 0.301,-0.1505 0.2311,-0.1034 0.4698,-0.1824 0.7161,-0.2372 0.2463,-0.0547 0.4942,-0.079 0.7435,-0.0729 0.2433,0 0.482,0.0258 0.7161,0.0775 0.2341,0.0517 0.4637,0.1201 0.6887,0.2053 0.1521,0.0547 0.3011,0.1201 0.447,0.1961 0.146,0.076 0.2798,0.1718 0.4014,0.2873 0.0912,0.0852 0.1733,0.181 0.2463,0.2874 0.073,0.1064 0.1369,0.2174 0.1916,0.333 0.1216,0.2311 0.2113,0.4758 0.2691,0.7343 0.0578,0.2585 0.1019,0.5185 0.1323,0.78 0.0365,0.3709 0.0425,0.7449 0.0182,1.122 -0.0243,0.3771 -0.0943,0.7419 -0.2098,1.0947 -0.0669,0.2189 -0.1642,0.4302 -0.2919,0.634 -0.1277,0.2037 -0.2767,0.3846 -0.447,0.5428 -0.1216,0.1155 -0.263,0.2082 -0.4242,0.2782 -0.1612,0.0699 -0.3269,0.1262 -0.4972,0.1687 -0.1398,0.0426 -0.2843,0.073 -0.4333,0.0913 -0.149,0.0182 -0.2995,0.0334 -0.4515,0.0456zm-0.6021 -1.642c0.1277,0.0365 0.2554,0.0304 0.3831,-0.0183 0.2129,-0.0912 0.3862,-0.2432 0.52,-0.4561 0.1703,-0.2737 0.2798,-0.5762 0.3284,-0.9077 0.0487,-0.3314 0.0487,-0.6552 0,-0.9715 -0.0304,-0.1581 -0.0714,-0.3117 -0.1231,-0.4607 -0.0517,-0.149 -0.1232,-0.2843 -0.2144,-0.4059 -0.0608,-0.0791 -0.1277,-0.149 -0.2007,-0.2098 -0.073,-0.0608 -0.152,-0.1064 -0.2372,-0.1369 -0.079,-0.0304 -0.1627,-0.0425 -0.2508,-0.0364 -0.0882,0.006 -0.1688,0.0273 -0.2418,0.0638 -0.0121,0 -0.0289,0.0031 -0.0502,0.0091 -0.0212,0.0061 -0.0349,0.0122 -0.041,0.0183 -0.1338,0.0851 -0.2478,0.1961 -0.3421,0.3329 -0.0943,0.1369 -0.1688,0.2813 -0.2235,0.4334 -0.1034,0.2736 -0.1642,0.5625 -0.1824,0.8666 -0.0183,0.304 0.0121,0.596 0.0912,0.8757 0.0365,0.1277 0.0821,0.2524 0.1368,0.374 0.0548,0.1217 0.1247,0.2342 0.2098,0.3376 0.0608,0.0668 0.1277,0.1261 0.2007,0.1778 0.073,0.0517 0.1521,0.0897 0.2372,0.1141zm5.4917 1.5508c-0.2007,0.0486 -0.4075,0.0699 -0.6203,0.0638 -0.2129,-0.0061 -0.4197,-0.0274 -0.6204,-0.0638 -0.0851,-0.0122 -0.1718,-0.0365 -0.2599,-0.073 -0.0882,-0.0365 -0.1597,-0.0882 -0.2144,-0.1551 -0.0426,-0.0547 -0.0669,-0.1186 -0.073,-0.1916 -0.0061,-0.0729 -0.0122,-0.1429 -0.0182,-0.2098 -0.0122,-0.3405 -0.0168,-0.6781 -0.0137,-1.0126 0.003,-0.3344 0.0106,-0.672 0.0228,-1.0125 0,-0.0487 0.003,-0.1384 0.0091,-0.2691 0.0061,-0.1308 0.0122,-0.2813 0.0182,-0.4516 0.0061,-0.1703 0.0122,-0.3497 0.0183,-0.5382 0.0061,-0.1885 0.0137,-0.3679 0.0228,-0.5382 0.0091,-0.1703 0.0152,-0.3193 0.0182,-0.447 0.0031,-0.1277 0.0076,-0.219 0.0137,-0.2737 0,-0.0182 -0.0015,-0.0669 -0.0045,-0.1459 -0.0031,-0.0791 -0.0046,-0.1278 -0.0046,-0.146 0,-0.0608 0.0015,-0.1414 0.0046,-0.2417 0.003,-0.1004 0.0106,-0.2053 0.0228,-0.3148 0.0121,-0.1094 0.0289,-0.2113 0.0501,-0.3056 0.0213,-0.0942 0.0533,-0.1626 0.0958,-0.2052 0.0365,-0.0365 0.0989,-0.0639 0.187,-0.0821 0.0882,-0.0183 0.1825,-0.0304 0.2828,-0.0365 0.1004,-0.0061 0.1977,-0.0091 0.2919,-0.0091 0.0943,0 0.1688,0 0.2235,0 0.0669,0 0.1794,-0.0015 0.3376,-0.0046 0.1581,-0.003 0.339,-0.0061 0.5427,-0.0091 0.2038,-0.003 0.4181,-0.0061 0.6432,-0.0091 0.225,-0.0031 0.4393,-0.0046 0.6431,-0.0046 0.2037,0 0.3846,0 0.5428,0 0.1581,0 0.2706,0.0031 0.3375,0.0091 0.0608,0 0.1186,0.0031 0.1733,0.0092 0.0547,0.006 0.1125,0.0152 0.1733,0.0273 0.0548,0.0122 0.1095,0.0289 0.1642,0.0502 0.0548,0.0213 0.0973,0.0562 0.1277,0.1049 0.0487,0.0669 0.0761,0.1414 0.0821,0.2235 0.0061,0.0821 0.0122,0.1657 0.0183,0.2509 0,0.0669 -0.0015,0.152 -0.0046,0.2554 -0.003,0.1034 -0.0106,0.2083 -0.0228,0.3147 -0.0121,0.1064 -0.0334,0.2037 -0.0638,0.2919 -0.0304,0.0882 -0.073,0.1536 -0.1277,0.1961 -0.0487,0.0426 -0.105,0.07 -0.1688,0.0821 -0.0639,0.0122 -0.1292,0.0213 -0.1961,0.0274 -0.1582,0.0122 -0.3193,0.0076 -0.4835,-0.0137 -0.1642,-0.0213 -0.3254,-0.041 -0.4835,-0.0593 -0.2007,-0.0182 -0.4014,-0.0319 -0.6021,-0.041 -0.2007,-0.0091 -0.4044,-0.0167 -0.6112,-0.0228 0,0.3466 -0.0091,0.6872 -0.0273,1.0217 0.4804,-0.0183 0.9639,-0.0091 1.4504,0.0273 0.0973,0.0061 0.1977,0.0183 0.301,0.0365 0.1034,0.0183 0.1916,0.0608 0.2646,0.1277 0.0486,0.0487 0.0836,0.1171 0.1049,0.2053 0.0213,0.0882 0.035,0.1824 0.0411,0.2828 0.006,0.1003 0.0045,0.2007 -0.0046,0.301 -0.0091,0.1004 -0.0198,0.184 -0.0319,0.2509 -0.0122,0.0486 -0.0289,0.0973 -0.0502,0.1459 -0.0213,0.0487 -0.0563,0.0882 -0.1049,0.1186 -0.0487,0.0365 -0.1064,0.0593 -0.1733,0.0685 -0.0669,0.0091 -0.1338,0.0136 -0.2007,0.0136 -0.2737,0.0122 -0.5443,0.0046 -0.8119,-0.0228 -0.2676,-0.0273 -0.5382,-0.041 -0.8119,-0.041 0,0.2797 0.0046,0.558 0.0137,0.8347 0.0091,0.2767 0.0076,0.558 -0.0046,0.8438 0,0.0912 -0.003,0.1855 -0.0091,0.2828 -0.0061,0.0973 -0.0334,0.1855 -0.0821,0.2645 -0.0365,0.0608 -0.0851,0.1095 -0.146,0.146 -0.0608,0.0365 -0.1246,0.0608 -0.1915,0.073zm5.2636 0c-0.2007,0.0486 -0.4075,0.0699 -0.6203,0.0638 -0.2129,-0.0061 -0.4197,-0.0274 -0.6204,-0.0638 -0.0851,-0.0122 -0.1718,-0.0365 -0.2599,-0.073 -0.0882,-0.0365 -0.1597,-0.0882 -0.2144,-0.1551 -0.0426,-0.0547 -0.0669,-0.1186 -0.073,-0.1916 -0.0061,-0.0729 -0.0122,-0.1429 -0.0182,-0.2098 -0.0122,-0.3405 -0.0168,-0.6781 -0.0137,-1.0126 0.003,-0.3344 0.0106,-0.672 0.0228,-1.0125 0,-0.0487 0.003,-0.1384 0.0091,-0.2691 0.0061,-0.1308 0.0122,-0.2813 0.0182,-0.4516 0.0061,-0.1703 0.0122,-0.3497 0.0183,-0.5382 0.0061,-0.1885 0.0137,-0.3679 0.0228,-0.5382 0.0091,-0.1703 0.0152,-0.3193 0.0182,-0.447 0.0031,-0.1277 0.0076,-0.219 0.0137,-0.2737 0,-0.0182 -0.0015,-0.0669 -0.0045,-0.1459 -0.0031,-0.0791 -0.0046,-0.1278 -0.0046,-0.146 0,-0.0608 0.0015,-0.1414 0.0046,-0.2417 0.003,-0.1004 0.0106,-0.2053 0.0228,-0.3148 0.0121,-0.1094 0.0289,-0.2113 0.0501,-0.3056 0.0213,-0.0942 0.0533,-0.1626 0.0958,-0.2052 0.0365,-0.0365 0.0989,-0.0639 0.187,-0.0821 0.0882,-0.0183 0.1825,-0.0304 0.2828,-0.0365 0.1004,-0.0061 0.1977,-0.0091 0.2919,-0.0091 0.0943,0 0.1688,0 0.2235,0 0.0669,0 0.1794,-0.0015 0.3376,-0.0046 0.1581,-0.003 0.339,-0.0061 0.5427,-0.0091 0.2038,-0.003 0.4181,-0.0061 0.6432,-0.0091 0.225,-0.0031 0.4393,-0.0046 0.6431,-0.0046 0.2037,0 0.3846,0 0.5428,0 0.1581,0 0.2706,0.0031 0.3375,0.0091 0.0608,0 0.1186,0.0031 0.1733,0.0092 0.0547,0.006 0.1125,0.0152 0.1733,0.0273 0.0548,0.0122 0.1095,0.0289 0.1642,0.0502 0.0548,0.0213 0.0973,0.0562 0.1277,0.1049 0.0487,0.0669 0.0761,0.1414 0.0821,0.2235 0.0061,0.0821 0.0122,0.1657 0.0183,0.2509 0,0.0669 -0.0015,0.152 -0.0046,0.2554 -0.003,0.1034 -0.0106,0.2083 -0.0228,0.3147 -0.0121,0.1064 -0.0334,0.2037 -0.0638,0.2919 -0.0304,0.0882 -0.073,0.1536 -0.1277,0.1961 -0.0487,0.0426 -0.105,0.07 -0.1688,0.0821 -0.0639,0.0122 -0.1292,0.0213 -0.1961,0.0274 -0.1582,0.0122 -0.3193,0.0076 -0.4835,-0.0137 -0.1642,-0.0213 -0.3254,-0.041 -0.4835,-0.0593 -0.2007,-0.0182 -0.4014,-0.0319 -0.6021,-0.041 -0.2007,-0.0091 -0.4044,-0.0167 -0.6112,-0.0228 0,0.3466 -0.0091,0.6872 -0.0273,1.0217 0.4804,-0.0183 0.9639,-0.0091 1.4504,0.0273 0.0973,0.0061 0.1977,0.0183 0.301,0.0365 0.1034,0.0183 0.1916,0.0608 0.2646,0.1277 0.0486,0.0487 0.0836,0.1171 0.1049,0.2053 0.0213,0.0882 0.035,0.1824 0.0411,0.2828 0.006,0.1003 0.0045,0.2007 -0.0046,0.301 -0.0091,0.1004 -0.0198,0.184 -0.0319,0.2509 -0.0122,0.0486 -0.0289,0.0973 -0.0502,0.1459 -0.0213,0.0487 -0.0563,0.0882 -0.1049,0.1186 -0.0487,0.0365 -0.1064,0.0593 -0.1733,0.0685 -0.0669,0.0091 -0.1338,0.0136 -0.2007,0.0136 -0.2737,0.0122 -0.5443,0.0046 -0.8119,-0.0228 -0.2676,-0.0273 -0.5382,-0.041 -0.8119,-0.041 0,0.2797 0.0046,0.558 0.0137,0.8347 0.0091,0.2767 0.0076,0.558 -0.0046,0.8438 0,0.0912 -0.003,0.1855 -0.0091,0.2828 -0.0061,0.0973 -0.0334,0.1855 -0.0821,0.2645 -0.0365,0.0608 -0.0851,0.1095 -0.146,0.146 -0.0608,0.0365 -0.1246,0.0608 -0.1915,0.073zm4.999 -0.0821c-0.1642,0.006 -0.3314,0.006 -0.5017,0 -0.1703,-0.0061 -0.3345,-0.0274 -0.4926,-0.0639 -0.0547,-0.0122 -0.108,-0.0289 -0.1596,-0.0502 -0.0517,-0.0213 -0.0989,-0.0471 -0.1414,-0.0775 -0.0669,-0.0487 -0.1156,-0.1186 -0.146,-0.2098 -0.0365,-0.1156 -0.0578,-0.2342 -0.0639,-0.3558 -0.006,-0.1216 -0.0091,-0.2433 -0.0091,-0.3649 -0.0121,-0.4926 -0.0137,-0.9822 -0.0045,-1.4687 0.0091,-0.4865 0.0136,-0.9761 0.0136,-1.4687 0,-0.0365 -0.0015,-0.1125 -0.0045,-0.228 -0.0031,-0.1156 -0.0046,-0.2372 -0.0046,-0.3649 0,-0.1277 -0.0015,-0.2494 -0.0045,-0.3649 -0.0031,-0.1156 -0.0046,-0.1916 -0.0046,-0.2281 0,-0.1459 0.0046,-0.2904 0.0137,-0.4333 0.0091,-0.1429 0.0319,-0.2843 0.0684,-0.4242 0.0243,-0.0851 0.0608,-0.1672 0.1095,-0.2463 0.0486,-0.079 0.1094,-0.1368 0.1824,-0.1733 0.1216,-0.0669 0.2494,-0.1034 0.3832,-0.1095 0.1337,-0.006 0.2675,-0.0121 0.4013,-0.0182 0.1764,0 0.3512,0.003 0.5246,0.0091 0.1733,0.0061 0.3481,0.0122 0.5245,0.0183 0.225,0.006 0.4485,0.0076 0.6705,0.0045 0.222,-0.003 0.4455,-0.0076 0.6705,-0.0137 0.0365,0 0.0897,0 0.1596,0 0.07,0 0.1429,0.0031 0.219,0.0092 0.076,0.006 0.1489,0.0121 0.2189,0.0182 0.0699,0.0061 0.1201,0.0183 0.1505,0.0365 0.0547,0.0243 0.0958,0.0684 0.1232,0.1323 0.0273,0.0638 0.0486,0.1353 0.0638,0.2143 0.0152,0.0791 0.0228,0.1597 0.0228,0.2418 0,0.0821 0,0.1535 0,0.2144 0,0.0486 -0.003,0.1155 -0.0091,0.2007 -0.0061,0.0851 -0.0152,0.1733 -0.0274,0.2645 -0.0121,0.0912 -0.0289,0.1748 -0.0501,0.2509 -0.0213,0.076 -0.0472,0.1322 -0.0776,0.1687 -0.0426,0.0487 -0.0988,0.0806 -0.1687,0.0958 -0.07,0.0152 -0.1384,0.0259 -0.2053,0.0319 -0.073,0.0061 -0.2144,0.0107 -0.4242,0.0137 -0.2098,0.0031 -0.4363,0.0061 -0.6796,0.0091 -0.2433,0.0031 -0.4698,0.0046 -0.6796,0.0046 -0.2098,0 -0.3512,0 -0.4242,0 -0.0122,0.1277 -0.0228,0.2554 -0.0319,0.3831 -0.0091,0.1278 -0.0137,0.2555 -0.0137,0.3832 0.0608,0.0061 0.1748,0.0045 0.3421,-0.0046 0.1672,-0.0091 0.3451,-0.0182 0.5336,-0.0274 0.1886,-0.0091 0.3649,-0.0152 0.5291,-0.0182 0.1642,-0.003 0.2767,0.0015 0.3376,0.0137 0.0425,0.0182 0.079,0.0456 0.1094,0.0821 0.0183,0.0304 0.0289,0.0638 0.0319,0.1003 0.0031,0.0365 0.0046,0.073 0.0046,0.1095 0,0.0426 0.0015,0.1064 0.0046,0.1916 0.003,0.0851 0.0015,0.1733 -0.0046,0.2645 -0.0061,0.0912 -0.0137,0.1764 -0.0228,0.2554 -0.0091,0.0791 -0.0228,0.1369 -0.041,0.1734 -0.0183,0.0425 -0.0533,0.0729 -0.105,0.0912 -0.0516,0.0182 -0.1094,0.0304 -0.1733,0.0365 -0.0638,0.0061 -0.1292,0.0091 -0.1961,0.0091 -0.0669,0 -0.1216,0 -0.1642,0 -0.0365,0 -0.1125,0 -0.2281,0 -0.1155,0 -0.2387,0 -0.3694,0 -0.1308,0 -0.2539,0 -0.3695,0 -0.1155,0 -0.1915,0 -0.228,0 0.0061,0.1095 0.0091,0.2205 0.0091,0.333 0,0.1125 0.0061,0.2265 0.0182,0.3421 0.0365,0.006 0.108,0.006 0.2144,0 0.1064,-0.0061 0.2174,-0.0137 0.333,-0.0229 0.1155,-0.0091 0.225,-0.0197 0.3284,-0.0319 0.1034,-0.0121 0.1733,-0.0182 0.2098,-0.0182 0.0426,0 0.1262,-0.0015 0.2509,-0.0046 0.1246,-0.003 0.2569,-0.0061 0.3968,-0.0091 0.1399,-0.0031 0.2721,-0.0046 0.3968,-0.0046 0.1247,0 0.2083,0 0.2509,0 0.0425,0 0.0851,0.0046 0.1277,0.0137 0.0425,0.0091 0.076,0.0289 0.1003,0.0593 0.0243,0.0304 0.038,0.0669 0.0411,0.1095 0.003,0.0425 0.0076,0.0821 0.0137,0.1186 0,0.0425 0.0015,0.1246 0.0045,0.2463 0.0031,0.1216 0.0061,0.2493 0.0091,0.3831 0.0031,0.1338 0.0046,0.26 0.0046,0.3786 0,0.1186 0,0.1991 0,0.2417 0,0.0243 -0.0015,0.0548 -0.0046,0.0912 -0.003,0.0365 -0.006,0.0761 -0.0091,0.1186 -0.003,0.0426 -0.0091,0.0806 -0.0182,0.1141 -0.0092,0.0334 -0.0228,0.0593 -0.0411,0.0775 -0.0121,0.0122 -0.0289,0.0182 -0.0502,0.0182 -0.0212,0 -0.041,0.0031 -0.0593,0.0092 -0.0547,0.0121 -0.155,0.0228 -0.301,0.0319 -0.1459,0.0091 -0.3041,0.0167 -0.4743,0.0228 -0.1703,0.0061 -0.3284,0.0106 -0.4744,0.0137 -0.146,0.003 -0.2463,0.0076 -0.301,0.0137 -0.1947,0.0121 -0.3877,0.0213 -0.5793,0.0273 -0.1916,0.0061 -0.3847,0.0092 -0.5793,0.0092zm4.8439 0c-0.1642,0.006 -0.3314,0.006 -0.5017,0 -0.1703,-0.0061 -0.3345,-0.0274 -0.4926,-0.0639 -0.0547,-0.0122 -0.108,-0.0289 -0.1596,-0.0502 -0.0517,-0.0213 -0.0989,-0.0471 -0.1414,-0.0775 -0.0669,-0.0487 -0.1156,-0.1186 -0.146,-0.2098 -0.0365,-0.1156 -0.0578,-0.2342 -0.0639,-0.3558 -0.006,-0.1216 -0.0091,-0.2433 -0.0091,-0.3649 -0.0121,-0.4926 -0.0137,-0.9822 -0.0045,-1.4687 0.0091,-0.4865 0.0136,-0.9761 0.0136,-1.4687 0,-0.0365 -0.0015,-0.1125 -0.0045,-0.228 -0.0031,-0.1156 -0.0046,-0.2372 -0.0046,-0.3649 0,-0.1277 -0.0015,-0.2494 -0.0045,-0.3649 -0.0031,-0.1156 -0.0046,-0.1916 -0.0046,-0.2281 0,-0.1459 0.0046,-0.2904 0.0137,-0.4333 0.0091,-0.1429 0.0319,-0.2843 0.0684,-0.4242 0.0243,-0.0851 0.0608,-0.1672 0.1095,-0.2463 0.0486,-0.079 0.1094,-0.1368 0.1824,-0.1733 0.1216,-0.0669 0.2494,-0.1034 0.3832,-0.1095 0.1337,-0.006 0.2675,-0.0121 0.4013,-0.0182 0.1764,0 0.3512,0.003 0.5246,0.0091 0.1733,0.0061 0.3481,0.0122 0.5245,0.0183 0.225,0.006 0.4485,0.0076 0.6705,0.0045 0.222,-0.003 0.4455,-0.0076 0.6705,-0.0137 0.0365,0 0.0897,0 0.1596,0 0.07,0 0.1429,0.0031 0.219,0.0092 0.076,0.006 0.1489,0.0121 0.2189,0.0182 0.0699,0.0061 0.1201,0.0183 0.1505,0.0365 0.0547,0.0243 0.0958,0.0684 0.1232,0.1323 0.0273,0.0638 0.0486,0.1353 0.0638,0.2143 0.0152,0.0791 0.0228,0.1597 0.0228,0.2418 0,0.0821 0,0.1535 0,0.2144 0,0.0486 -0.003,0.1155 -0.0091,0.2007 -0.0061,0.0851 -0.0152,0.1733 -0.0274,0.2645 -0.0121,0.0912 -0.0289,0.1748 -0.0501,0.2509 -0.0213,0.076 -0.0472,0.1322 -0.0776,0.1687 -0.0426,0.0487 -0.0988,0.0806 -0.1687,0.0958 -0.07,0.0152 -0.1384,0.0259 -0.2053,0.0319 -0.073,0.0061 -0.2144,0.0107 -0.4242,0.0137 -0.2098,0.0031 -0.4363,0.0061 -0.6796,0.0091 -0.2433,0.0031 -0.4698,0.0046 -0.6796,0.0046 -0.2098,0 -0.3512,0 -0.4242,0 -0.0122,0.1277 -0.0228,0.2554 -0.0319,0.3831 -0.0091,0.1278 -0.0137,0.2555 -0.0137,0.3832 0.0608,0.0061 0.1748,0.0045 0.3421,-0.0046 0.1672,-0.0091 0.3451,-0.0182 0.5336,-0.0274 0.1886,-0.0091 0.3649,-0.0152 0.5291,-0.0182 0.1642,-0.003 0.2767,0.0015 0.3376,0.0137 0.0425,0.0182 0.079,0.0456 0.1094,0.0821 0.0183,0.0304 0.0289,0.0638 0.0319,0.1003 0.0031,0.0365 0.0046,0.073 0.0046,0.1095 0,0.0426 0.0015,0.1064 0.0046,0.1916 0.003,0.0851 0.0015,0.1733 -0.0046,0.2645 -0.0061,0.0912 -0.0137,0.1764 -0.0228,0.2554 -0.0091,0.0791 -0.0228,0.1369 -0.041,0.1734 -0.0183,0.0425 -0.0533,0.0729 -0.105,0.0912 -0.0516,0.0182 -0.1094,0.0304 -0.1733,0.0365 -0.0638,0.0061 -0.1292,0.0091 -0.1961,0.0091 -0.0669,0 -0.1216,0 -0.1642,0 -0.0365,0 -0.1125,0 -0.2281,0 -0.1155,0 -0.2387,0 -0.3694,0 -0.1308,0 -0.2539,0 -0.3695,0 -0.1155,0 -0.1915,0 -0.228,0 0.0061,0.1095 0.0091,0.2205 0.0091,0.333 0,0.1125 0.0061,0.2265 0.0182,0.3421 0.0365,0.006 0.108,0.006 0.2144,0 0.1064,-0.0061 0.2174,-0.0137 0.333,-0.0229 0.1155,-0.0091 0.225,-0.0197 0.3284,-0.0319 0.1034,-0.0121 0.1733,-0.0182 0.2098,-0.0182 0.0426,0 0.1262,-0.0015 0.2509,-0.0046 0.1246,-0.003 0.2569,-0.0061 0.3968,-0.0091 0.1399,-0.0031 0.2721,-0.0046 0.3968,-0.0046 0.1247,0 0.2083,0 0.2509,0 0.0425,0 0.0851,0.0046 0.1277,0.0137 0.0425,0.0091 0.076,0.0289 0.1003,0.0593 0.0243,0.0304 0.038,0.0669 0.0411,0.1095 0.003,0.0425 0.0076,0.0821 0.0137,0.1186 0,0.0425 0.0015,0.1246 0.0045,0.2463 0.0031,0.1216 0.0061,0.2493 0.0091,0.3831 0.0031,0.1338 0.0046,0.26 0.0046,0.3786 0,0.1186 0,0.1991 0,0.2417 0,0.0243 -0.0015,0.0548 -0.0046,0.0912 -0.003,0.0365 -0.006,0.0761 -0.0091,0.1186 -0.003,0.0426 -0.0091,0.0806 -0.0182,0.1141 -0.0092,0.0334 -0.0228,0.0593 -0.0411,0.0775 -0.0121,0.0122 -0.0289,0.0182 -0.0502,0.0182 -0.0212,0 -0.041,0.0031 -0.0593,0.0092 -0.0547,0.0121 -0.155,0.0228 -0.301,0.0319 -0.1459,0.0091 -0.3041,0.0167 -0.4743,0.0228 -0.1703,0.0061 -0.3284,0.0106 -0.4744,0.0137 -0.146,0.003 -0.2463,0.0076 -0.301,0.0137 -0.1947,0.0121 -0.3877,0.0213 -0.5793,0.0273 -0.1916,0.0061 -0.3847,0.0092 -0.5793,0.0092z"/>
    <g>
     <path id="_781771792" class="fil12" d="M3.1023 53.5129c-0.0704,0.0041 -0.1412,0.0051 -0.2125,0.0031 -0.0713,-0.0021 -0.1421,-0.0091 -0.2124,-0.0211 -0.0904,-0.0161 -0.1783,-0.0437 -0.2637,-0.0829 -0.0853,-0.0392 -0.1612,-0.0889 -0.2275,-0.1492 -0.0522,-0.0482 -0.0944,-0.1024 -0.1265,-0.1627 -0.0261,-0.0462 -0.0462,-0.0959 -0.0603,-0.1491 -0.014,-0.0533 -0.0261,-0.106 -0.0361,-0.1582 -0.0181,-0.1225 -0.0272,-0.2471 -0.0272,-0.3736 0,-0.1145 0.0101,-0.2296 0.0302,-0.3451 0.0201,-0.1155 0.0562,-0.2244 0.1085,-0.3269 0.0281,-0.0562 0.0622,-0.11 0.1024,-0.1612 0.0402,-0.0512 0.0854,-0.0959 0.1356,-0.1341 0.0281,-0.0221 0.0583,-0.0417 0.0904,-0.0587 0.0321,-0.0171 0.0653,-0.0337 0.0994,-0.0498 0.0764,-0.0341 0.1552,-0.0602 0.2366,-0.0783 0.0813,-0.0181 0.1632,-0.0261 0.2455,-0.0241 0.0804,0 0.1592,0.0085 0.2366,0.0256 0.0773,0.0171 0.1531,0.0397 0.2275,0.0678 0.0502,0.0181 0.0994,0.0397 0.1476,0.0648 0.0482,0.0251 0.0924,0.0567 0.1326,0.0949 0.0301,0.0281 0.0572,0.0598 0.0814,0.0949 0.0241,0.0352 0.0452,0.0718 0.0632,0.11 0.0402,0.0763 0.0698,0.1572 0.0889,0.2426 0.0191,0.0853 0.0337,0.1712 0.0437,0.2576 0.0121,0.1225 0.0141,0.2461 0.006,0.3706 -0.008,0.1246 -0.0311,0.2451 -0.0693,0.3616 -0.0221,0.0723 -0.0542,0.1421 -0.0964,0.2094 -0.0422,0.0673 -0.0914,0.1271 -0.1476,0.1793 -0.0402,0.0382 -0.0869,0.0688 -0.1401,0.0919 -0.0533,0.0231 -0.108,0.0417 -0.1643,0.0557 -0.0462,0.0141 -0.0939,0.0242 -0.1431,0.0302 -0.0492,0.006 -0.0989,0.011 -0.1491,0.015zm-0.1989 -0.5423c0.0422,0.012 0.0844,0.01 0.1265,-0.0061 0.0703,-0.0301 0.1276,-0.0803 0.1718,-0.1506 0.0562,-0.0904 0.0924,-0.1904 0.1085,-0.2998 0.016,-0.1095 0.016,-0.2165 0,-0.3209 -0.0101,-0.0523 -0.0236,-0.103 -0.0407,-0.1522 -0.0171,-0.0492 -0.0407,-0.0939 -0.0708,-0.1341 -0.0201,-0.0261 -0.0422,-0.0492 -0.0663,-0.0693 -0.0241,-0.0201 -0.0502,-0.0351 -0.0784,-0.0452 -0.0261,-0.01 -0.0537,-0.0141 -0.0828,-0.012 -0.0291,0.002 -0.0558,0.009 -0.0799,0.021 -0.004,0 -0.0095,0.0011 -0.0165,0.0031 -0.0071,0.002 -0.0116,0.004 -0.0136,0.006 -0.0442,0.0281 -0.0819,0.0648 -0.113,0.11 -0.0311,0.0452 -0.0557,0.0929 -0.0738,0.1431 -0.0342,0.0904 -0.0543,0.1858 -0.0603,0.2862 -0.006,0.1005 0.004,0.1969 0.0301,0.2893 0.0121,0.0422 0.0272,0.0834 0.0452,0.1236 0.0181,0.0401 0.0412,0.0773 0.0693,0.1114 0.0201,0.0221 0.0422,0.0417 0.0663,0.0588 0.0241,0.0171 0.0503,0.0296 0.0784,0.0377zm4.288 0.473c-0.0582,0.0101 -0.1165,0.0141 -0.1747,0.0121 -0.0583,-0.002 -0.1165,-0.008 -0.1748,-0.0181 -0.0241,-0.004 -0.0482,-0.0095 -0.0723,-0.0166 -0.0241,-0.007 -0.0442,-0.0195 -0.0603,-0.0376 -0.016,-0.0161 -0.0251,-0.0362 -0.0271,-0.0603 -0.002,-0.0241 -0.004,-0.0472 -0.006,-0.0693 -0.0101,-0.1145 -0.0151,-0.228 -0.0151,-0.3405 0,-0.1125 0.001,-0.226 0.003,-0.3405 0.004,-0.1366 0.0081,-0.2717 0.0121,-0.4053 0.004,-0.1335 0.01,-0.2686 0.0181,-0.4052 0.002,-0.0342 0.0035,-0.0688 0.0045,-0.104 0.001,-0.0351 0.0015,-0.0698 0.0015,-0.1039 0,-0.0081 0.001,-0.0201 0.003,-0.0362 0.002,-0.0161 0.0045,-0.0331 0.0075,-0.0512 0.003,-0.0181 0.0061,-0.0352 0.0091,-0.0512 0.003,-0.0161 0.0065,-0.0272 0.0105,-0.0332 0.0121,-0.0281 0.0327,-0.0492 0.0618,-0.0633 0.0291,-0.014 0.0577,-0.0241 0.0859,-0.0301 0.0582,-0.01 0.1175,-0.0151 0.1777,-0.0151 0.0603,0 0.1206,0.003 0.1808,0.0091 0.0322,0.004 0.0638,0.01 0.095,0.0181 0.0311,0.008 0.0607,0.021 0.0888,0.0391 0.0302,0.0221 0.0583,0.0513 0.0844,0.0874 0.0301,0.0462 0.0578,0.0929 0.0829,0.1401 0.0251,0.0472 0.0517,0.0939 0.0798,0.1401 0.0764,0.1326 0.1562,0.2612 0.2396,0.3857 0.0833,0.1246 0.1732,0.2451 0.2697,0.3616 -0.0041,-0.0944 -0.0086,-0.1883 -0.0136,-0.2817 -0.005,-0.0934 -0.0105,-0.1883 -0.0166,-0.2848 -0.004,-0.0542 -0.008,-0.1084 -0.012,-0.1627 -0.004,-0.0542 -0.0071,-0.1085 -0.0091,-0.1627 0,-0.0261 0.001,-0.0527 0.003,-0.0798 0.0021,-0.0272 0.0081,-0.0528 0.0181,-0.0769 0.0161,-0.0422 0.0442,-0.0713 0.0844,-0.0874 0.0281,-0.012 0.0572,-0.0196 0.0874,-0.0226 0.0301,-0.003 0.0602,-0.0045 0.0904,-0.0045 0.016,0 0.0386,-0.001 0.0678,-0.003 0.0291,-0.002 0.0592,-0.0025 0.0904,-0.0015 0.0311,0.001 0.0607,0.004 0.0889,0.009 0.0281,0.0051 0.0482,0.0126 0.0602,0.0226 0.0181,0.0161 0.0317,0.0422 0.0407,0.0784 0.009,0.0361 0.0156,0.0753 0.0196,0.1175 0.004,0.0422 0.006,0.0834 0.006,0.1235 0,0.0402 0,0.0723 0,0.0965 0.004,0.233 0.006,0.465 0.006,0.696 0,0.231 -0.005,0.463 -0.015,0.6961 -0.002,0.0241 -0.002,0.0492 0,0.0753 0.002,0.0261 0.001,0.0512 -0.003,0.0753 -0.0041,0.0221 -0.0116,0.0442 -0.0226,0.0663 -0.0111,0.0221 -0.0257,0.0402 -0.0437,0.0542 -0.0181,0.0141 -0.0397,0.0236 -0.0648,0.0287 -0.0251,0.005 -0.0487,0.0065 -0.0708,0.0045 -0.004,0 -0.0121,-0.0005 -0.0241,-0.0015 -0.0121,-0.001 -0.0246,-0.0015 -0.0377,-0.0015 -0.0131,0 -0.0256,0 -0.0377,0 -0.012,0 -0.0201,0 -0.0241,0 -0.0321,-0.002 -0.0637,-0.0061 -0.0949,-0.0121 -0.0311,-0.006 -0.0608,-0.016 -0.0889,-0.0301 -0.0261,-0.0101 -0.0497,-0.0246 -0.0708,-0.0437 -0.0211,-0.0191 -0.0407,-0.0397 -0.0587,-0.0618 -0.0402,-0.0442 -0.0769,-0.0909 -0.11,-0.1401 -0.0332,-0.0492 -0.0668,-0.0979 -0.101,-0.1461 -0.0964,-0.1286 -0.1953,-0.2536 -0.2968,-0.3752 -0.1014,-0.1215 -0.2034,-0.2455 -0.3058,-0.3721 0,0.0221 0.0005,0.0593 0.0015,0.1115 0.001,0.0522 0.002,0.112 0.003,0.1793 0.001,0.0673 0.002,0.1386 0.003,0.2139 0.001,0.0753 0.002,0.1467 0.003,0.2139 0.001,0.0673 0.001,0.1271 0,0.1793 -0.001,0.0523 -0.0015,0.0894 -0.0015,0.1115 0,0.0261 -0.0025,0.0523 -0.0075,0.0784 -0.005,0.0261 -0.0156,0.0482 -0.0316,0.0663 -0.0121,0.012 -0.0267,0.021 -0.0437,0.0271 -0.0171,0.006 -0.0347,0.011 -0.0528,0.015zm4.8034 0.0121c-0.0543,0.002 -0.1095,0.002 -0.1658,0 -0.0562,-0.002 -0.1104,-0.009 -0.1627,-0.0211 -0.0181,-0.004 -0.0356,-0.0095 -0.0527,-0.0166 -0.0171,-0.007 -0.0327,-0.0155 -0.0467,-0.0256 -0.0221,-0.0161 -0.0382,-0.0392 -0.0482,-0.0693 -0.0121,-0.0382 -0.0191,-0.0773 -0.0211,-0.1175 -0.002,-0.0402 -0.003,-0.0804 -0.003,-0.1205 -0.004,-0.1627 -0.0046,-0.3245 -0.0015,-0.4852 0.003,-0.1607 0.0045,-0.3224 0.0045,-0.4851 0,-0.012 -0.0005,-0.0371 -0.0015,-0.0753 -0.001,-0.0382 -0.0015,-0.0784 -0.0015,-0.1205 0,-0.0422 -0.0005,-0.0824 -0.0015,-0.1206 -0.001,-0.0381 -0.0015,-0.0632 -0.0015,-0.0753 0,-0.0482 0.0015,-0.0959 0.0045,-0.1431 0.003,-0.0472 0.0105,-0.0939 0.0226,-0.1401 0.008,-0.0282 0.0201,-0.0553 0.0361,-0.0814 0.0161,-0.0261 0.0362,-0.0452 0.0603,-0.0572 0.0402,-0.0221 0.0824,-0.0342 0.1266,-0.0362 0.0441,-0.002 0.0883,-0.004 0.1325,-0.006 0.0583,0 0.116,0.001 0.1733,0.003 0.0572,0.002 0.115,0.004 0.1733,0.006 0.0743,0.002 0.1481,0.0025 0.2214,0.0015 0.0733,-0.001 0.1472,-0.0025 0.2215,-0.0045 0.012,0 0.0296,0 0.0527,0 0.0231,0 0.0472,0.001 0.0723,0.003 0.0251,0.002 0.0493,0.004 0.0724,0.006 0.0231,0.002 0.0396,0.0061 0.0497,0.0121 0.0181,0.008 0.0316,0.0226 0.0407,0.0437 0.009,0.0211 0.016,0.0447 0.021,0.0708 0.0051,0.0261 0.0076,0.0527 0.0076,0.0798 0,0.0272 0,0.0508 0,0.0709 0,0.016 -0.001,0.0381 -0.003,0.0662 -0.002,0.0282 -0.0051,0.0573 -0.0091,0.0874 -0.004,0.0302 -0.0095,0.0578 -0.0165,0.0829 -0.0071,0.0251 -0.0156,0.0437 -0.0257,0.0557 -0.014,0.0161 -0.0326,0.0266 -0.0557,0.0317 -0.0231,0.005 -0.0457,0.0085 -0.0678,0.0105 -0.0241,0.002 -0.0708,0.0035 -0.1401,0.0045 -0.0693,0.001 -0.1441,0.002 -0.2245,0.003 -0.0804,0.0011 -0.1552,0.0016 -0.2245,0.0016 -0.0693,0 -0.116,0 -0.1401,0 -0.004,0.0421 -0.0075,0.0843 -0.0105,0.1265 -0.0031,0.0422 -0.0046,0.0844 -0.0046,0.1266 0.0201,0.002 0.0578,0.0015 0.113,-0.0015 0.0553,-0.0031 0.114,-0.0061 0.1763,-0.0091 0.0623,-0.003 0.1205,-0.005 0.1748,-0.006 0.0542,-0.001 0.0914,0.0005 0.1115,0.0045 0.014,0.006 0.0261,0.0151 0.0361,0.0271 0.006,0.0101 0.0096,0.0211 0.0106,0.0332 0.001,0.012 0.0015,0.0241 0.0015,0.0361 0,0.0141 0.0005,0.0352 0.0015,0.0633 0.001,0.0281 0.0005,0.0573 -0.0015,0.0874 -0.002,0.0301 -0.0045,0.0582 -0.0076,0.0844 -0.003,0.0261 -0.0075,0.0452 -0.0135,0.0572 -0.006,0.0141 -0.0176,0.0241 -0.0347,0.0301 -0.017,0.0061 -0.0361,0.0101 -0.0572,0.0121 -0.0211,0.002 -0.0427,0.003 -0.0648,0.003 -0.0221,0 -0.0402,0 -0.0542,0 -0.0121,0 -0.0372,0 -0.0754,0 -0.0381,0 -0.0788,0 -0.122,0 -0.0432,0 -0.0839,0 -0.122,0 -0.0382,0 -0.0633,0 -0.0754,0 0.002,0.0362 0.003,0.0728 0.003,0.11 0,0.0372 0.002,0.0748 0.0061,0.113 0.012,0.002 0.0356,0.002 0.0708,0 0.0351,-0.002 0.0718,-0.0045 0.11,-0.0075 0.0381,-0.0031 0.0743,-0.0066 0.1084,-0.0106 0.0342,-0.004 0.0573,-0.006 0.0693,-0.006 0.0141,0 0.0417,-0.0005 0.0829,-0.0015 0.0412,-0.001 0.0849,-0.002 0.1311,-0.003 0.0462,-0.001 0.0899,-0.0015 0.131,-0.0015 0.0412,0 0.0688,0 0.0829,0 0.0141,0 0.0281,0.0015 0.0422,0.0045 0.0141,0.003 0.0251,0.0095 0.0331,0.0196 0.0081,0.01 0.0126,0.0221 0.0136,0.0361 0.001,0.0141 0.0025,0.0271 0.0045,0.0392 0,0.0141 0.0005,0.0412 0.0015,0.0813 0.001,0.0402 0.002,0.0824 0.003,0.1266 0.001,0.0442 0.0015,0.0859 0.0015,0.1251 0,0.0391 0,0.0657 0,0.0798 0,0.008 -0.0005,0.0181 -0.0015,0.0301 -0.001,0.0121 -0.002,0.0251 -0.003,0.0392 -0.001,0.0141 -0.003,0.0266 -0.006,0.0377 -0.003,0.011 -0.0075,0.0196 -0.0136,0.0256 -0.004,0.004 -0.0095,0.006 -0.0165,0.006 -0.0071,0 -0.0136,0.001 -0.0196,0.003 -0.0181,0.004 -0.0512,0.0076 -0.0995,0.0106 -0.0482,0.003 -0.1004,0.0055 -0.1566,0.0075 -0.0563,0.002 -0.1085,0.0035 -0.1567,0.0045 -0.0482,0.001 -0.0814,0.0025 -0.0995,0.0045 -0.0642,0.0041 -0.128,0.0071 -0.1913,0.0091 -0.0633,0.002 -0.1271,0.003 -0.1913,0.003zm4.9268 -0.0121c-0.0241,0.0121 -0.0563,0.0201 -0.0964,0.0241 -0.0402,0.0041 -0.0819,0.0056 -0.1251,0.0046 -0.0432,-0.001 -0.0854,-0.0051 -0.1265,-0.0121 -0.0412,-0.007 -0.0739,-0.0156 -0.098,-0.0256 -0.0281,-0.01 -0.0512,-0.0271 -0.0693,-0.0512 -0.012,-0.0181 -0.018,-0.0402 -0.018,-0.0663 -0.0021,-0.0201 -0.0031,-0.0543 -0.0031,-0.1025 0,-0.0482 0,-0.1029 0,-0.1642 0,-0.0613 0.0005,-0.1265 0.0015,-0.1958 0.0011,-0.0693 0.0021,-0.1346 0.0031,-0.1959 0.001,-0.0613 0.0015,-0.116 0.0015,-0.1642 0,-0.0482 0,-0.0824 0,-0.1025 0,-0.0201 0.0005,-0.0627 0.0015,-0.128 0.001,-0.0653 0.0025,-0.1356 0.0045,-0.211 0.002,-0.0753 0.004,-0.1456 0.006,-0.2109 0.002,-0.0653 0.003,-0.1079 0.003,-0.128 0,-0.0181 0.0005,-0.0452 0.0015,-0.0814 0.001,-0.0362 0.0031,-0.0733 0.0061,-0.1115 0.003,-0.0381 0.0075,-0.0738 0.0135,-0.107 0.0061,-0.0331 0.0141,-0.0577 0.0241,-0.0738 0.0121,-0.016 0.0282,-0.0276 0.0482,-0.0346 0.0201,-0.0071 0.0402,-0.0126 0.0603,-0.0166 0.0221,-0.004 0.0447,-0.0065 0.0678,-0.0075 0.0231,-0.001 0.0457,-0.0025 0.0678,-0.0046 0.0824,-0.004 0.1642,-0.0055 0.2456,-0.0045 0.0813,0.001 0.1632,0.0025 0.2456,0.0045 0.0723,0.0021 0.1456,0.0061 0.2199,0.0121 0.0743,0.006 0.1457,0.0231 0.214,0.0512 0.0602,0.0261 0.1155,0.0628 0.1657,0.11 0.0502,0.0472 0.0894,0.101 0.1175,0.1612 0.0261,0.0583 0.0412,0.1205 0.0452,0.1868 0.004,0.0663 0.007,0.1316 0.009,0.1959 0.002,0.0763 -0.0005,0.1532 -0.0075,0.2305 -0.007,0.0773 -0.0266,0.1512 -0.0588,0.2215 -0.016,0.0321 -0.0356,0.0617 -0.0587,0.0889 -0.0231,0.0271 -0.0487,0.0517 -0.0769,0.0738 -0.0281,0.0221 -0.0582,0.0432 -0.0903,0.0633 -0.0322,0.02 -0.0653,0.0361 -0.0995,0.0482 -0.0844,0.0341 -0.1737,0.0492 -0.2682,0.0452 -0.008,0 -0.0241,-0.0005 -0.0482,-0.0015 -0.0241,-0.001 -0.0492,-0.002 -0.0753,-0.0031 -0.0261,-0.001 -0.0512,-0.0025 -0.0753,-0.0045 -0.0241,-0.002 -0.0402,-0.003 -0.0482,-0.003 -0.0061,-0.002 -0.0106,-0.004 -0.0136,-0.006 -0.003,-0.002 -0.0045,-0.001 -0.0045,0.003 0.004,0.0522 0.0065,0.104 0.0075,0.1552 0.001,0.0512 0.0005,0.1029 -0.0015,0.1552 0,0.0442 -0.002,0.0884 -0.006,0.1325 -0.004,0.0442 -0.0111,0.0874 -0.0211,0.1296 -0.006,0.0241 -0.0171,0.0477 -0.0332,0.0708 -0.016,0.0231 -0.0351,0.0397 -0.0572,0.0497zm0.1386 -1.1932c0.0301,0 0.0598,0 0.0889,0 0.0291,0 0.0587,-0.002 0.0889,-0.006 0.0261,-0.006 0.0517,-0.0156 0.0768,-0.0286 0.0251,-0.0131 0.0477,-0.0297 0.0678,-0.0498 0.0141,-0.018 0.0251,-0.0406 0.0332,-0.0678 0.008,-0.0271 0.012,-0.0557 0.012,-0.0858 0,-0.0302 -0.0025,-0.0598 -0.0075,-0.0889 -0.005,-0.0291 -0.0126,-0.0548 -0.0226,-0.0769 -0.0101,-0.0241 -0.0261,-0.0452 -0.0482,-0.0632 -0.0221,-0.0181 -0.0452,-0.0322 -0.0693,-0.0422 -0.0342,-0.0121 -0.0703,-0.0181 -0.1085,-0.0181 -0.0382,0 -0.0763,0 -0.1145,0 0,0.0181 0.0005,0.0522 0.0015,0.1025 0.001,0.0502 0.0015,0.1039 0.0015,0.1612 0,0.0572 0,0.1114 0,0.1627 0,0.0512 0,0.0848 0,0.1009zm4.1253 1.2083c-0.0662,0.0161 -0.1345,0.0231 -0.2049,0.0211 -0.0703,-0.002 -0.1386,-0.009 -0.2049,-0.0211 -0.0281,-0.004 -0.0567,-0.012 -0.0858,-0.0241 -0.0292,-0.0121 -0.0528,-0.0291 -0.0708,-0.0512 -0.0141,-0.0181 -0.0221,-0.0392 -0.0241,-0.0633 -0.0021,-0.0241 -0.0041,-0.0472 -0.0061,-0.0693 -0.004,-0.1125 -0.0055,-0.224 -0.0045,-0.3345 0.001,-0.1105 0.0035,-0.2219 0.0075,-0.3344 0,-0.0161 0.001,-0.0457 0.0031,-0.0889 0.002,-0.0432 0.004,-0.0929 0.006,-0.1492 0.002,-0.0562 0.004,-0.1155 0.006,-0.1778 0.002,-0.0622 0.0045,-0.1215 0.0075,-0.1777 0.0031,-0.0563 0.0051,-0.106 0.0061,-0.1492 0.001,-0.0432 0.0025,-0.0738 0.0045,-0.0919 0,-0.006 -0.0005,-0.0216 -0.0015,-0.0467 -0.001,-0.0251 -0.0015,-0.0407 -0.0015,-0.0467 0,-0.0201 0.0005,-0.0467 0.0015,-0.0799 0.001,-0.0331 0.0035,-0.0677 0.0075,-0.1039 0.004,-0.0362 0.0096,-0.0698 0.0166,-0.1009 0.007,-0.0312 0.0176,-0.0538 0.0316,-0.0678 0.0101,-0.0101 0.0226,-0.0176 0.0377,-0.0226 0.0151,-0.0051 0.0306,-0.0096 0.0467,-0.0136 0.0161,-0.002 0.0427,-0.0035 0.0798,-0.0045 0.0372,-0.001 0.0759,-0.001 0.1161,0 0.0401,0.001 0.0783,0.0025 0.1145,0.0045 0.0361,0.002 0.0622,0.004 0.0783,0.006 0.0281,0.004 0.0552,0.0111 0.0814,0.0211 0.0261,0.0101 0.0472,0.0261 0.0632,0.0482 0.0181,0.0261 0.0297,0.0558 0.0347,0.0889 0.005,0.0332 0.0085,0.0668 0.0105,0.101 0.002,0.02 0.003,0.0577 0.003,0.113 0,0.0552 -0.0005,0.114 -0.0015,0.1762 -0.001,0.0623 -0.0025,0.1216 -0.0045,0.1778 -0.002,0.0563 -0.003,0.0944 -0.003,0.1145 -0.004,0.0964 -0.007,0.1908 -0.009,0.2832 -0.002,0.0925 -0.003,0.1869 -0.003,0.2833 0,0.0884 0.0015,0.1763 0.0045,0.2636 0.003,0.0874 0.0025,0.1753 -0.0015,0.2637 0,0.0301 -0.001,0.0613 -0.003,0.0934 -0.0021,0.0321 -0.0111,0.0613 -0.0272,0.0874 -0.012,0.0201 -0.0281,0.0361 -0.0482,0.0482 -0.0201,0.0121 -0.0412,0.0201 -0.0633,0.0241zm3.3631 -0.003c-0.0543,0.002 -0.1095,0.002 -0.1658,0 -0.0562,-0.002 -0.1104,-0.009 -0.1627,-0.0211 -0.0181,-0.004 -0.0356,-0.0095 -0.0527,-0.0166 -0.0171,-0.007 -0.0327,-0.0155 -0.0467,-0.0256 -0.0221,-0.0161 -0.0382,-0.0392 -0.0482,-0.0693 -0.0121,-0.0382 -0.0191,-0.0773 -0.0211,-0.1175 -0.002,-0.0402 -0.003,-0.0804 -0.003,-0.1205 -0.004,-0.1627 -0.0046,-0.3245 -0.0015,-0.4852 0.003,-0.1607 0.0045,-0.3224 0.0045,-0.4851 0,-0.012 -0.0005,-0.0371 -0.0015,-0.0753 -0.001,-0.0382 -0.0015,-0.0784 -0.0015,-0.1205 0,-0.0422 -0.0005,-0.0824 -0.0015,-0.1206 -0.001,-0.0381 -0.0015,-0.0632 -0.0015,-0.0753 0,-0.0482 0.0015,-0.0959 0.0045,-0.1431 0.003,-0.0472 0.0105,-0.0939 0.0226,-0.1401 0.008,-0.0282 0.0201,-0.0553 0.0361,-0.0814 0.0161,-0.0261 0.0362,-0.0452 0.0603,-0.0572 0.0402,-0.0221 0.0824,-0.0342 0.1266,-0.0362 0.0441,-0.002 0.0883,-0.004 0.1325,-0.006 0.0583,0 0.116,0.001 0.1733,0.003 0.0572,0.002 0.115,0.004 0.1733,0.006 0.0743,0.002 0.1481,0.0025 0.2214,0.0015 0.0733,-0.001 0.1472,-0.0025 0.2215,-0.0045 0.012,0 0.0296,0 0.0527,0 0.0231,0 0.0472,0.001 0.0723,0.003 0.0251,0.002 0.0493,0.004 0.0724,0.006 0.0231,0.002 0.0396,0.0061 0.0497,0.0121 0.0181,0.008 0.0316,0.0226 0.0407,0.0437 0.009,0.0211 0.016,0.0447 0.021,0.0708 0.0051,0.0261 0.0076,0.0527 0.0076,0.0798 0,0.0272 0,0.0508 0,0.0709 0,0.016 -0.001,0.0381 -0.003,0.0662 -0.002,0.0282 -0.0051,0.0573 -0.0091,0.0874 -0.004,0.0302 -0.0095,0.0578 -0.0165,0.0829 -0.0071,0.0251 -0.0156,0.0437 -0.0257,0.0557 -0.014,0.0161 -0.0326,0.0266 -0.0557,0.0317 -0.0231,0.005 -0.0457,0.0085 -0.0678,0.0105 -0.0241,0.002 -0.0708,0.0035 -0.1401,0.0045 -0.0693,0.001 -0.1441,0.002 -0.2245,0.003 -0.0804,0.0011 -0.1552,0.0016 -0.2245,0.0016 -0.0693,0 -0.116,0 -0.1401,0 -0.004,0.0421 -0.0075,0.0843 -0.0105,0.1265 -0.0031,0.0422 -0.0046,0.0844 -0.0046,0.1266 0.0201,0.002 0.0578,0.0015 0.113,-0.0015 0.0553,-0.0031 0.114,-0.0061 0.1763,-0.0091 0.0623,-0.003 0.1205,-0.005 0.1748,-0.006 0.0542,-0.001 0.0914,0.0005 0.1115,0.0045 0.014,0.006 0.0261,0.0151 0.0361,0.0271 0.006,0.0101 0.0096,0.0211 0.0106,0.0332 0.001,0.012 0.0015,0.0241 0.0015,0.0361 0,0.0141 0.0005,0.0352 0.0015,0.0633 0.001,0.0281 0.0005,0.0573 -0.0015,0.0874 -0.002,0.0301 -0.0045,0.0582 -0.0076,0.0844 -0.003,0.0261 -0.0075,0.0452 -0.0135,0.0572 -0.006,0.0141 -0.0176,0.0241 -0.0347,0.0301 -0.017,0.0061 -0.0361,0.0101 -0.0572,0.0121 -0.0211,0.002 -0.0427,0.003 -0.0648,0.003 -0.0221,0 -0.0402,0 -0.0542,0 -0.0121,0 -0.0372,0 -0.0754,0 -0.0381,0 -0.0788,0 -0.122,0 -0.0432,0 -0.0839,0 -0.122,0 -0.0382,0 -0.0633,0 -0.0754,0 0.002,0.0362 0.003,0.0728 0.003,0.11 0,0.0372 0.002,0.0748 0.0061,0.113 0.012,0.002 0.0356,0.002 0.0708,0 0.0351,-0.002 0.0718,-0.0045 0.11,-0.0075 0.0381,-0.0031 0.0743,-0.0066 0.1084,-0.0106 0.0342,-0.004 0.0573,-0.006 0.0693,-0.006 0.0141,0 0.0417,-0.0005 0.0829,-0.0015 0.0412,-0.001 0.0849,-0.002 0.1311,-0.003 0.0462,-0.001 0.0899,-0.0015 0.131,-0.0015 0.0412,0 0.0688,0 0.0829,0 0.0141,0 0.0281,0.0015 0.0422,0.0045 0.0141,0.003 0.0251,0.0095 0.0331,0.0196 0.0081,0.01 0.0126,0.0221 0.0136,0.0361 0.001,0.0141 0.0025,0.0271 0.0045,0.0392 0,0.0141 0.0005,0.0412 0.0015,0.0813 0.001,0.0402 0.002,0.0824 0.003,0.1266 0.001,0.0442 0.0015,0.0859 0.0015,0.1251 0,0.0391 0,0.0657 0,0.0798 0,0.008 -0.0005,0.0181 -0.0015,0.0301 -0.001,0.0121 -0.002,0.0251 -0.003,0.0392 -0.001,0.0141 -0.003,0.0266 -0.006,0.0377 -0.003,0.011 -0.0075,0.0196 -0.0136,0.0256 -0.004,0.004 -0.0095,0.006 -0.0165,0.006 -0.0071,0 -0.0136,0.001 -0.0196,0.003 -0.0181,0.004 -0.0512,0.0076 -0.0995,0.0106 -0.0482,0.003 -0.1004,0.0055 -0.1566,0.0075 -0.0563,0.002 -0.1085,0.0035 -0.1567,0.0045 -0.0482,0.001 -0.0814,0.0025 -0.0995,0.0045 -0.0642,0.0041 -0.128,0.0071 -0.1913,0.0091 -0.0633,0.002 -0.1271,0.003 -0.1913,0.003zm4.8876 0c-0.1145,0.0241 -0.232,0.0296 -0.3525,0.0166 -0.1206,-0.0131 -0.2351,-0.0407 -0.3435,-0.0829 -0.0723,-0.0301 -0.1411,-0.0688 -0.2064,-0.116 -0.0653,-0.0472 -0.1231,-0.1009 -0.1733,-0.1612 -0.0402,-0.0502 -0.0753,-0.1045 -0.1055,-0.1627 -0.0301,-0.0583 -0.0552,-0.1185 -0.0753,-0.1808 -0.0261,-0.0844 -0.0432,-0.1718 -0.0512,-0.2622 -0.008,-0.0904 -0.005,-0.1808 0.009,-0.2712 0.0201,-0.1345 0.0608,-0.2646 0.1221,-0.3902 0.0612,-0.1255 0.1381,-0.2395 0.2305,-0.342 0.0502,-0.0562 0.109,-0.1049 0.1762,-0.1461 0.0673,-0.0412 0.1382,-0.0708 0.2125,-0.0889 0.0924,-0.0261 0.1868,-0.0417 0.2832,-0.0467 0.0964,-0.005 0.1919,0.0005 0.2863,0.0166 0.0522,0.01 0.1044,0.0216 0.1567,0.0346 0.0522,0.0131 0.1024,0.0317 0.1506,0.0558 0.0302,0.016 0.0588,0.0336 0.0859,0.0527 0.0271,0.0191 0.0517,0.0417 0.0738,0.0678 0.0402,0.0502 0.0653,0.1095 0.0753,0.1778 0.0041,0.0402 0.0016,0.0813 -0.0075,0.1235 -0.009,0.0422 -0.0246,0.0804 -0.0467,0.1145 -0.0181,0.0302 -0.0402,0.0598 -0.0663,0.0889 -0.0261,0.0291 -0.0552,0.0532 -0.0874,0.0723 -0.0321,0.0191 -0.0652,0.0322 -0.0994,0.0392 -0.0341,0.007 -0.0673,0.0035 -0.0994,-0.0105 -0.0342,-0.0141 -0.0648,-0.0347 -0.0919,-0.0618 -0.0272,-0.0271 -0.0548,-0.0548 -0.0829,-0.0829 -0.0281,-0.0281 -0.0598,-0.0537 -0.0949,-0.0768 -0.0352,-0.0231 -0.0728,-0.0397 -0.113,-0.0497 -0.0261,-0.0061 -0.0537,-0.0086 -0.0829,-0.0076 -0.0291,0.001 -0.0567,0.0086 -0.0828,0.0226 -0.0241,0.0121 -0.0452,0.0287 -0.0633,0.0498 -0.0181,0.021 -0.0332,0.0446 -0.0452,0.0708 -0.0181,0.0361 -0.0296,0.0753 -0.0347,0.1175 -0.005,0.0422 -0.0085,0.0843 -0.0105,0.1265 0,0.0844 0.0015,0.1693 0.0045,0.2546 0.003,0.0854 0.0116,0.1703 0.0256,0.2547 0.004,0.0361 0.0141,0.0723 0.0302,0.1084 0.016,0.0362 0.0381,0.0653 0.0662,0.0874 0.0322,0.0221 0.0704,0.0327 0.1145,0.0317 0.0442,-0.001 0.0824,-0.0146 0.1145,-0.0407 0.0322,-0.0261 0.0583,-0.0563 0.0784,-0.0904 0.0201,-0.0342 0.0422,-0.0673 0.0663,-0.0995 0.0161,-0.022 0.0366,-0.0401 0.0618,-0.0542 0.0251,-0.0141 0.0507,-0.0211 0.0768,-0.0211 0.0201,0 0.0397,0.002 0.0587,0.006 0.0191,0.0041 0.0387,0.0081 0.0588,0.0121 0.0181,0.004 0.0447,0.01 0.0799,0.0181 0.0351,0.008 0.0708,0.0181 0.1069,0.0301 0.0362,0.0121 0.0703,0.0251 0.1025,0.0392 0.0321,0.014 0.0542,0.0281 0.0663,0.0422 0.0221,0.0261 0.0351,0.0592 0.0391,0.0994 0.0041,0.0341 0.002,0.0683 -0.006,0.1024 -0.008,0.0342 -0.0201,0.0673 -0.0362,0.0995 -0.0281,0.0623 -0.0647,0.1195 -0.1099,0.1717 -0.0452,0.0523 -0.097,0.0965 -0.1552,0.1326 -0.0442,0.0261 -0.0904,0.0482 -0.1386,0.0663 -0.0482,0.0181 -0.0985,0.0321 -0.1507,0.0422z"/>
     <path id="_416572424" class="fil12" d="M33.1759 53.4557c-0.0543,0.002 -0.1095,0.002 -0.1658,0 -0.0562,-0.002 -0.1104,-0.009 -0.1627,-0.0211 -0.0181,-0.004 -0.0356,-0.0095 -0.0527,-0.0166 -0.0171,-0.007 -0.0327,-0.0155 -0.0467,-0.0256 -0.0221,-0.0161 -0.0382,-0.0392 -0.0482,-0.0693 -0.0121,-0.0382 -0.0191,-0.0773 -0.0211,-0.1175 -0.002,-0.0402 -0.003,-0.0804 -0.003,-0.1205 -0.004,-0.1627 -0.0046,-0.3245 -0.0015,-0.4852 0.003,-0.1607 0.0045,-0.3224 0.0045,-0.4851 0,-0.012 -0.0005,-0.0371 -0.0015,-0.0753 -0.001,-0.0382 -0.0015,-0.0784 -0.0015,-0.1205 0,-0.0422 -0.0005,-0.0824 -0.0015,-0.1206 -0.001,-0.0381 -0.0015,-0.0632 -0.0015,-0.0753 0,-0.0482 0.0015,-0.0959 0.0045,-0.1431 0.003,-0.0472 0.0105,-0.0939 0.0226,-0.1401 0.008,-0.0282 0.0201,-0.0553 0.0361,-0.0814 0.0161,-0.0261 0.0362,-0.0452 0.0603,-0.0572 0.0402,-0.0221 0.0824,-0.0342 0.1266,-0.0362 0.0441,-0.002 0.0883,-0.004 0.1325,-0.006 0.0583,0 0.116,0.001 0.1733,0.003 0.0572,0.002 0.115,0.004 0.1733,0.006 0.0743,0.002 0.1481,0.0025 0.2214,0.0015 0.0733,-0.001 0.1472,-0.0025 0.2215,-0.0045 0.012,0 0.0296,0 0.0527,0 0.0231,0 0.0472,0.001 0.0723,0.003 0.0251,0.002 0.0493,0.004 0.0724,0.006 0.0231,0.002 0.0396,0.0061 0.0497,0.0121 0.0181,0.008 0.0316,0.0226 0.0407,0.0437 0.009,0.0211 0.016,0.0447 0.021,0.0708 0.0051,0.0261 0.0076,0.0527 0.0076,0.0798 0,0.0272 0,0.0508 0,0.0709 0,0.016 -0.001,0.0381 -0.003,0.0662 -0.002,0.0282 -0.0051,0.0573 -0.0091,0.0874 -0.004,0.0302 -0.0095,0.0578 -0.0165,0.0829 -0.0071,0.0251 -0.0156,0.0437 -0.0257,0.0557 -0.014,0.0161 -0.0326,0.0266 -0.0557,0.0317 -0.0231,0.005 -0.0457,0.0085 -0.0678,0.0105 -0.0241,0.002 -0.0708,0.0035 -0.1401,0.0045 -0.0693,0.001 -0.1441,0.002 -0.2245,0.003 -0.0804,0.0011 -0.1552,0.0016 -0.2245,0.0016 -0.0693,0 -0.116,0 -0.1401,0 -0.004,0.0421 -0.0075,0.0843 -0.0105,0.1265 -0.0031,0.0422 -0.0046,0.0844 -0.0046,0.1266 0.0201,0.002 0.0578,0.0015 0.113,-0.0015 0.0553,-0.0031 0.114,-0.0061 0.1763,-0.0091 0.0623,-0.003 0.1205,-0.005 0.1748,-0.006 0.0542,-0.001 0.0914,0.0005 0.1115,0.0045 0.014,0.006 0.0261,0.0151 0.0361,0.0271 0.006,0.0101 0.0096,0.0211 0.0106,0.0332 0.001,0.012 0.0015,0.0241 0.0015,0.0361 0,0.0141 0.0005,0.0352 0.0015,0.0633 0.001,0.0281 0.0005,0.0573 -0.0015,0.0874 -0.002,0.0301 -0.0045,0.0582 -0.0076,0.0844 -0.003,0.0261 -0.0075,0.0452 -0.0135,0.0572 -0.006,0.0141 -0.0176,0.0241 -0.0347,0.0301 -0.017,0.0061 -0.0361,0.0101 -0.0572,0.0121 -0.0211,0.002 -0.0427,0.003 -0.0648,0.003 -0.0221,0 -0.0402,0 -0.0542,0 -0.0121,0 -0.0372,0 -0.0754,0 -0.0381,0 -0.0788,0 -0.122,0 -0.0432,0 -0.0839,0 -0.122,0 -0.0382,0 -0.0633,0 -0.0754,0 0.002,0.0362 0.003,0.0728 0.003,0.11 0,0.0372 0.002,0.0748 0.0061,0.113 0.012,0.002 0.0356,0.002 0.0708,0 0.0351,-0.002 0.0718,-0.0045 0.11,-0.0075 0.0381,-0.0031 0.0743,-0.0066 0.1084,-0.0106 0.0342,-0.004 0.0573,-0.006 0.0693,-0.006 0.0141,0 0.0417,-0.0005 0.0829,-0.0015 0.0412,-0.001 0.0849,-0.002 0.1311,-0.003 0.0462,-0.001 0.0899,-0.0015 0.131,-0.0015 0.0412,0 0.0688,0 0.0829,0 0.0141,0 0.0281,0.0015 0.0422,0.0045 0.0141,0.003 0.0251,0.0095 0.0331,0.0196 0.0081,0.01 0.0126,0.0221 0.0136,0.0361 0.001,0.0141 0.0025,0.0271 0.0045,0.0392 0,0.0141 0.0005,0.0412 0.0015,0.0813 0.001,0.0402 0.002,0.0824 0.003,0.1266 0.001,0.0442 0.0015,0.0859 0.0015,0.1251 0,0.0391 0,0.0657 0,0.0798 0,0.008 -0.0005,0.0181 -0.0015,0.0301 -0.001,0.0121 -0.002,0.0251 -0.003,0.0392 -0.001,0.0141 -0.003,0.0266 -0.006,0.0377 -0.003,0.011 -0.0075,0.0196 -0.0136,0.0256 -0.004,0.004 -0.0095,0.006 -0.0165,0.006 -0.0071,0 -0.0136,0.001 -0.0196,0.003 -0.0181,0.004 -0.0512,0.0076 -0.0995,0.0106 -0.0482,0.003 -0.1004,0.0055 -0.1566,0.0075 -0.0563,0.002 -0.1085,0.0035 -0.1567,0.0045 -0.0482,0.001 -0.0814,0.0025 -0.0995,0.0045 -0.0642,0.0041 -0.128,0.0071 -0.1913,0.0091 -0.0633,0.002 -0.1271,0.003 -0.1913,0.003z"/>
    </g>
   </g>
  </g>
 </g>
</svg>
