<?xml version="1.0" encoding="UTF-8"?>
<!DOCTYPE svg PUBLIC "-//W3C//DTD SVG 1.1//EN" "http://www.w3.org/Graphics/SVG/1.1/DTD/svg11.dtd">
<!-- Creator: CorelDRAW -->
<svg xmlns="http://www.w3.org/2000/svg" xml:space="preserve" width="49.1066mm" height="49.1066mm" style="shape-rendering:geometricPrecision; text-rendering:geometricPrecision; image-rendering:optimizeQuality; fill-rule:evenodd; clip-rule:evenodd"
viewBox="0 0 49.1066 49.1066"
 xmlns:xlink="http://www.w3.org/1999/xlink">
 <defs>
  <style type="text/css">
   <![CDATA[
    .fil0 {fill:none}
    .fil4 {fill:#003142}
    .fil1 {fill:#70292E}
    .fil2 {fill:#B5DDF6}
    .fil3 {fill:#CD151E}
    .fil6 {fill:#D63835}
    .fil5 {fill:#FE210F}
   ]]>
  </style>
 </defs>
 <g id="Capa_x0020_1">
  <metadata id="CorelCorpID_0Corel-Layer"/>
  <rect class="fil0" width="49.1066" height="49.1066"/>
  <g id="_373483672">
   <g>
    <path id="_373484944" class="fil1" d="M30.822 28.8296c-0.0357,-0.2868 -0.0731,-0.4137 -0.0311,-0.7131 0.0424,-0.3017 0.1276,-0.2481 0.1346,-0.5864 -0.2496,0.2586 -0.4558,1.0929 -0.1035,1.2995z"/>
    <path id="_373484512" class="fil1" d="M28.2343 22.933c-0.1131,-0.1778 -0.1896,-0.2794 -0.3769,-0.3723 0.097,0.2382 0.1339,0.2764 0.3769,0.3723z"/>
    <path id="_373484584" class="fil1" d="M21.0206 25.8369c0.1913,-0.0389 0.2168,-0.1064 0.3141,-0.2602 -0.2365,0.0487 -0.2121,0.0319 -0.3141,0.2602z"/>
    <path id="_373484824" class="fil1" d="M34.2925 33.7652c0.2168,-0.0746 0.2061,-0.0821 0.3084,-0.284 -0.2047,0.1013 -0.1905,0.0868 -0.3084,0.284z"/>
   </g>
   <g>
    <path id="_373482184" class="fil2" d="M44.7377 20.992c-0.0418,0.7078 0.1035,1.5987 0.0035,2.3601 -0.2332,0.1809 -1.0448,0.4786 -1.3431,0.4502l0.0192 -4.7749 -0.0913 -0.0998 -0.017 7.5908c0.5787,-0.0646 1.3426,-1.4874 1.4642,-2.0965 0.0967,-0.4851 0.169,-3.1419 -0.0355,-3.4299z"/>
    <path id="_373482664" class="fil2" d="M4.326 21.2586c-0.1632,0.0998 -0.0497,2.8643 0.0315,3.2165 0.1523,0.6603 0.7715,1.8208 1.4361,1.9941l-0.0306 -7.5523 -0.1238 0.1027c0.1534,0.2176 0.1146,4.5307 0.0589,4.8503l-1.3464 -0.4947 -0.0257 -2.1166z"/>
    <path id="_373483168" class="fil2" d="M7.6151 18.5511c-0.144,0.1736 -0.0436,6.3406 -0.06,7.4496 -0.0091,0.6099 -0.0291,1.7083 0.9214,1.4143l0.0193 -9.5512 -0.4644 0.0565 0.3887 0.0241 -0.0046 7.9918 -0.7656 -0.6958c0.0001,-0.8447 0.0573,-6.3432 -0.0348,-6.6893z"/>
    <path id="_373482808" class="fil2" d="M41.4388 18.3735c0.1426,1.8326 -0.0724,4.3913 0.0122,6.3334 0.0295,0.6782 -0.263,0.8903 -0.7727,1.2746l-0.0264 -8.0358 0.5135 0.0308c-0.1431,-0.178 -0.3519,-0.1419 -0.5772,-0.0954 -0.0067,1.135 -0.0763,9.1209 0.0215,9.5579l0.8454 -0.3939c0.1521,-0.4294 0.0716,-3.1311 0.0697,-3.691 -0.0015,-0.4714 0.0765,-4.8982 -0.086,-4.9806z"/>
   </g>
   <g>
    <path id="_373479208" class="fil3" d="M31.5872 29.9254c0.056,0.0595 0.0335,0.1643 0.4429,0.2308 0.1475,0.024 0.3474,0.0446 0.4975,0.0433 0.3753,-0.0031 0.7332,-0.0326 1.1136,-0.0046 -1.1605,1.3426 -0.9613,1.1661 -2.3483,2.215 -0.0836,0.0632 -0.1927,0.2054 -0.2327,0.2337 -0.2869,0.2035 -2.1154,1.2171 -2.588,1.4122 -0.4988,0.206 -0.6776,0.2082 -1.1027,0.338 -0.1667,0.051 -0.0618,0.056 -0.2778,0.1251 -0.157,0.0502 -0.2426,0.0372 -0.3922,0.0837 -0.1965,0.0611 -0.1,0.0649 -0.3205,0.1372 -1.448,0.4751 -4.288,0.3875 -5.7333,0.2006 -1.4442,-0.1867 -4.2562,-1.1131 -5.3385,-1.8958 -0.1722,-0.1245 -0.3939,-0.2301 -0.5896,-0.3504l-1.5323 -0.9935 -0.2615 -0.0236c0.0897,0.233 0.3164,0.4194 0.4553,0.5883 0.1469,0.1787 0.2856,0.3455 0.4314,0.5136 0.7086,0.8165 2.2955,2.0081 3.2171,2.5465 1.8551,1.0836 3.5929,1.6793 5.7934,1.9373 1.7505,0.2054 1.8418,0.1696 3.5905,0.0126 1.1123,-0.0999 2.063,-0.3797 3.0773,-0.7208 1.091,-0.3669 3.8498,-1.7637 4.8037,-2.7894 0.1179,-0.1972 0.1037,-0.1827 0.3084,-0.284 0.1079,-0.0416 0.7962,-0.734 0.905,-0.8569 0.4983,-0.5629 2.2019,-2.6389 2.1726,-3.1841 -2.6043,0.0136 -1.3434,-0.0036 -2.1587,0.3921 -0.8195,0.3978 -1.2473,0.2449 -2.2862,0.2444 -0.7347,-0.0003 -0.9516,-0.0257 -1.6464,-0.1513z"/>
    <path id="_373480144" class="fil3" d="M35.572 26.8569l0.4776 0.504 2.4219 -0.0013c0.3143,-0.3508 0.2146,-0.4634 0.2079,-0.9473 -0.0056,-0.4095 -0.0015,-0.8249 -0.0013,-1.235l-0.0001 -4.9402c0.0002,-0.7448 0.0555,-1.7531 -0.0105,-2.4674 -0.0487,-0.527 -1.2057,-2.8605 -1.558,-3.3496 -0.3028,-0.4205 -1.7863,-2.5105 -2.2583,-2.7262 0.0623,0.2357 0.0886,0.2535 0.2464,0.4458 0.927,1.1297 0.2958,0.3735 0.6142,1.1419 0.0517,0.1248 0.1884,0.3223 0.2355,0.4166 0.0344,0.0686 0.1027,0.3208 0.1512,0.4443 0.0628,0.16 0.0866,0.2611 0.1747,0.4108 0.1315,0.2235 0.0792,0.2201 0.1471,0.4497 0.0804,0.272 0.2285,0.6138 0.3239,0.9096 0.1824,0.5652 0.4752,1.8148 0.5042,1.8917 0.1194,0.317 0.092,0.7061 0.1528,1.047 0.2446,1.371 0.1884,3.1844 0.0257,4.5694 -0.165,1.405 -0.5603,2.534 -0.9791,3.8201l-0.8758 -0.3839z"/>
   </g>
   <path id="_373478920" class="fil4" d="M41.1654 17.9765c0.1989,0.0573 0.2616,0.1911 0.2734,0.397 0.1625,0.0824 0.0845,4.5092 0.086,4.9806 0.0019,0.5599 0.0824,3.2616 -0.0697,3.691l-0.8454 0.3939c-0.0978,-0.437 -0.0282,-8.4229 -0.0215,-9.5579 0.2253,-0.0465 0.4341,-0.0826 0.5772,0.0954zm-33.5503 0.5746c-0.0242,-0.3011 0.107,-0.5828 0.4163,-0.6308l0.4644 -0.0565 -0.0193 9.5512c-0.9505,0.294 -0.9305,-0.8044 -0.9214,-1.4143 0.0164,-1.109 -0.084,-7.276 0.06,-7.4496zm35.8022 0.4763c0.5044,0.1174 1.3696,1.3952 1.3204,1.9646 0.2045,0.288 0.1322,2.9448 0.0355,3.4299 -0.1216,0.6091 -0.8855,2.0319 -1.4642,2.0965l0.017 -7.5908 0.0913 0.0998zm-39.0913 2.2312c-0.0734,-0.6507 0.7587,-2.0851 1.3132,-2.239l0.1238 -0.1027 0.0306 7.5523c-0.6646,-0.1733 -1.2838,-1.3338 -1.4361,-1.9941 -0.0812,-0.3522 -0.1947,-3.1167 -0.0315,-3.2165zm27.9613 -11.5768c0.3618,0.1303 1.4753,0.8572 1.6518,1.1781 0.2128,0.0666 0.8394,0.66 0.9121,0.834 0.472,0.2157 1.9555,2.3057 2.2583,2.7262 0.3523,0.4891 1.5093,2.8226 1.558,3.3496 0.066,0.7143 0.0107,1.7226 0.0105,2.4674l0.0001 4.9402c-0.0002,0.4101 -0.0043,0.8255 0.0013,1.235 0.0067,0.4839 0.1064,0.5965 -0.2079,0.9473l-2.4219 0.0013 -0.4776 -0.504c-0.4396,-0.0566 -0.0996,-0.2229 -1.221,-0.222 -1.2983,0.0011 -2.9538,-0.2343 -3.4255,0.8952 -0.007,0.3383 -0.0922,0.2847 -0.1346,0.5864 -0.042,0.2994 -0.0046,0.4263 0.0311,0.7131 -0.05,0.531 0.7367,0.9946 0.7652,1.0958 0.6948,0.1256 0.9117,0.151 1.6464,0.1513 1.0389,0.0005 1.4667,0.1534 2.2862,-0.2444 0.8153,-0.3957 -0.4456,-0.3785 2.1587,-0.3921 0.0293,0.5452 -1.6743,2.6212 -2.1726,3.1841 -0.1088,0.1229 -0.7971,0.8153 -0.905,0.8569 -0.1023,0.2019 -0.0916,0.2094 -0.3084,0.284 -0.9539,1.0257 -3.7127,2.4225 -4.8037,2.7894 -1.0143,0.3411 -1.965,0.6209 -3.0773,0.7208 -1.7487,0.157 -1.84,0.1928 -3.5905,-0.0126 -2.2005,-0.258 -3.9383,-0.8537 -5.7934,-1.9373 -0.9216,-0.5384 -2.5085,-1.73 -3.2171,-2.5465 -0.1458,-0.1681 -0.2845,-0.3349 -0.4314,-0.5136 -0.1389,-0.1689 -0.3656,-0.3553 -0.4553,-0.5883 -0.1451,-0.0904 -0.8888,-1.2016 -1.0382,-1.4422 -0.5472,-0.8819 -1.4432,-2.6203 -1.4438,-3.6461 -0.0003,-0.4524 -0.0842,-2.2057 0.0719,-2.4902 -0.1904,-0.3349 -0.087,-4.3548 -0.0834,-5.0377 0.0056,-1.0795 -0.0428,-1.2397 0.3396,-2.2296 1.124,-2.9093 3.1918,-5.3162 5.7678,-6.9973 4.4382,-2.8966 10.3534,-3.233 15.0071,-0.6105 0.1916,0.108 0.6126,0.4015 0.7425,0.4583zm-25.8318 6.4549c-0.1197,-0.4255 0.1019,-0.7157 -0.3323,-1.1355 -0.3225,-0.3117 -0.8223,-0.3591 -1.2133,-0.1531 -0.9261,0.4879 -0.3063,1.883 -0.5763,2.4215 -0.1026,0.2046 -1.8587,1.0633 -2.1204,3.8888 -0.0778,0.84 -0.0422,2.098 -0.0177,2.9628 0.0218,0.7667 0.2601,1.6699 0.6443,2.3366 0.4791,0.8314 0.7485,0.9843 1.3884,1.6136 0.1436,0.1411 0.1691,0.9995 0.2086,1.2687 0.274,1.8659 1.1951,3.7679 2.1676,5.3509 0.3676,0.5984 0.825,1.1901 1.2459,1.7546 0.4599,0.6168 1.0767,1.3555 1.9032,0.7145 1.0823,-0.8394 -0.504,-2.0384 -1.5255,-3.7391 -0.3813,-0.6348 -0.7506,-1.2832 -1.0326,-1.9652 -0.3969,-0.96 -0.4558,-1.215 -0.7413,-2.1914 0.2314,-0.0054 0.76,0.2151 1.0755,0.2546l1.4753 0.0035c0.2401,0.2629 0.8891,1.5929 1.1536,2.0266 2.9995,4.9178 8.6509,7.9443 14.3709,7.9452 4.9823,0.0008 9.9047,-2.1969 13.0811,-6.0587 1.2194,-1.4825 1.5832,-2.2865 2.4971,-3.9125 0.4256,-0.027 0.8229,0.0911 1.2979,0.0071l1.2036 -0.2526c-0.1879,1.8066 -1.8052,4.4756 -2.9672,5.9542 -0.4297,0.5468 -1.0518,1.3742 -0.2533,1.9634 0.8009,0.5909 1.4456,-0.156 1.8758,-0.7536 1.3595,-1.8891 2.4666,-3.4805 3.1458,-5.8493 0.1061,-0.37 0.3985,-2.4225 0.4546,-2.4905 0.1454,-0.1761 0.5523,-0.495 0.7541,-0.714 0.2292,-0.2486 0.472,-0.5998 0.6319,-0.898 0.3986,-0.7436 0.6295,-1.5185 0.6483,-2.3666 0.0515,-2.3321 0.2842,-4.2532 -1.317,-6.1196 -0.1711,-0.1995 -0.7213,-0.6123 -0.7975,-0.7274 -0.2767,-0.4179 0.3238,-1.9638 -0.5822,-2.4253 -0.3769,-0.192 -0.8512,-0.153 -1.1775,0.1217l-0.3647 1.1589c-0.0587,0.0085 -1.0751,-0.3044 -1.3231,-0.3367 -1.1339,-0.1476 -1.0052,0.294 -1.3549,-0.4863 -1.0421,-2.3257 -2.694,-4.5531 -4.6715,-6.1466 -3.1109,-2.5067 -6.7185,-3.7808 -10.7224,-3.772 -5.9202,0.013 -10.9008,2.7255 -14.1675,7.5613 -0.5046,0.7471 -0.8781,1.5088 -1.2683,2.3171 -0.1082,0.2243 -0.1221,0.4637 -0.3799,0.5034 -0.2246,0.0345 -0.6465,-0.0122 -0.9358,0.0189 -0.2831,0.0304 -1.3043,0.3593 -1.3813,0.3461z"/>
   <path id="_373479232" class="fil4" d="M23.448 0.2546c-1.5279,0.148 -1.7319,0.097 -3.3528,0.4438 -0.9754,0.2086 -1.9609,0.5074 -2.895,0.8572 -4.6237,1.7314 -7.8071,4.2232 -10.4876,8.3346 -0.4465,0.6849 -1.3552,1.8818 -0.5362,2.5861 0.4067,0.3497 0.9946,0.3385 1.3882,-0.0278 0.2678,-0.2493 0.5314,-0.8252 0.7358,-1.1473 0.4776,-0.7526 1.0148,-1.4945 1.5882,-2.1769 3.9149,-4.6603 9.7777,-7.1057 15.8188,-6.786 5.8056,0.3073 11.183,3.4008 14.5179,8.085 0.3353,0.471 1.1681,1.9971 1.5526,2.2073 0.6112,0.3342 2.1433,-0.1676 1.1882,-1.8312 -1.8457,-3.2148 -4.3028,-5.7402 -7.5089,-7.6079 -3.4073,-1.985 -8.0676,-3.3188 -12.0092,-2.9369z"/>
   <path id="_373479712" class="fil4" d="M21.0206 25.8369c-0.2998,0.6635 0.1421,1.7673 0.5,2.3522 1.9377,3.1668 6.1991,2.1736 6.9196,-1.4623 0.3478,-1.7555 -1.1273,-1.009 -1.5256,-0.8662 -0.567,0.2033 -2.275,0.0924 -2.9733,0.0923 -0.395,-0.0001 -1.1272,0.0631 -1.4694,-0.0642 -0.5473,-0.2037 -0.4741,-0.3309 -1.1372,-0.312 -0.0973,0.1538 -0.1228,0.2213 -0.3141,0.2602z"/>
   <path id="_373480192" class="fil4" d="M17.5916 18.7587c-0.3062,0.1101 -0.6022,0.0816 -1.1769,0.4794 -2.2909,1.5855 -1.514,4.2672 -0.1621,3.7733 1.1648,-0.4255 0.2532,-1.4258 1.2133,-2.0751 0.7502,-0.5074 1.8428,-0.2336 2.0855,0.8132 0.118,0.5088 -0.0254,0.8386 0.4958,1.1486 0.6366,0.3786 1.7569,0.0081 1.4732,-1.5315 -0.3831,-2.0791 -2.6503,-3.0673 -3.9288,-2.6079z"/>
   <path id="_373479880" class="fil4" d="M27.8574 22.5607c0.1873,0.0929 0.2638,0.1945 0.3769,0.3723 0.4389,0.175 0.7594,0.182 1.1266,-0.1584 0.4703,-0.4359 0.1702,-0.7824 0.3848,-1.2664 0.4918,-1.109 2.4689,-1.2609 2.5824,0.6109 0.0255,0.4213 0.3374,0.8331 0.743,0.9236 0.7745,0.1728 1.4775,-0.6124 1.1314,-1.8962 -0.6511,-2.4145 -3.9085,-3.5886 -5.914,-1.0893 -0.4989,0.6217 -0.7905,1.753 -0.4311,2.5035z"/>
   <path id="_373480648" class="fil4" d="M26.5436 48.8585c0.867,0.1258 0.4604,-1.0658 0.4857,-1.5444l1.101 0.9624c0.2312,0.2125 0.385,0.3753 0.7477,0.308 0.7252,-0.1346 0.2143,-1.433 0.0573,-2.3441 -0.0439,-0.2547 -0.0464,-0.6354 -0.2835,-0.7782 -0.3283,-0.1978 -0.5067,-0.0305 -0.7148,0.1808 -0.0622,0.4326 0.1156,0.7088 0.0744,1.1246l-1.2651 -1.0474c-1.1208,-0.7427 -0.6595,1.9256 -0.638,2.4546 0.0129,0.3161 0.0698,0.6308 0.4353,0.6837z"/>
   <path id="_373480744" class="fil4" d="M11.991 43.8178c0.1378,-0.2334 0.3619,-0.462 0.4444,-0.7378 0.0957,-0.32 -0.1694,-0.6212 -0.4887,-0.6007 -0.4168,0.0267 -0.8471,0.9616 -1.045,1.3022 -0.2159,0.3718 -0.8576,1.1311 -0.6456,1.5468 0.1439,0.2821 0.5426,0.3293 0.7769,0.1091 0.1388,-0.1305 0.3214,-0.5448 0.4448,-0.7282l0.865 0.4122 -0.3925 0.7673c-0.0517,0.3304 0.1959,0.5775 0.5214,0.5668 0.4267,-0.0141 0.6864,-0.7306 1.0002,-1.2881 0.213,-0.3785 0.7982,-1.1548 0.5609,-1.55 -0.1546,-0.2576 -0.546,-0.2941 -0.7543,-0.0482 -0.1225,0.1447 -0.3257,0.5088 -0.4501,0.6917l-0.8374 -0.4431z"/>
   <path id="_373481008" class="fil4" d="M15.2517 45.9852c0.0387,-0.1858 0.036,-0.0777 0.1886,-0.2581 0.1014,-0.1197 0.0331,-0.117 0.1789,-0.1721l0.0158 0.5364 -0.3833 -0.1062zm1.365 1.6295c0.0735,-0.3634 -0.0221,-2.1938 -0.0551,-2.6695 -0.0283,-0.4085 -0.2865,-0.6146 -0.6865,-0.6588 -0.3986,-0.044 -0.6129,0.2692 -0.8345,0.5143 -0.4354,0.4815 -0.8703,0.9531 -1.3403,1.4235 -0.5759,0.5765 0.0344,1.3629 0.9525,0.4897l0.9622 0.3468 0.3326 0.76c0.2893,0.1112 0.5112,0.0393 0.6691,-0.206z"/>
   <path id="_373481032" class="fil4" d="M37.5625 44.6032l-1.0366 0.4841c-0.6285,0.4376 -0.0156,1.0737 0.586,0.909 1.965,-0.5382 1.5786,-2.0665 1.0513,-2.2246l-1.65 0.0062c-0.0984,-0.3157 0.4166,-0.3892 1.0598,-0.664 0.0634,-1.1637 -1.7501,-0.4414 -2.0443,0.3031 -0.19,0.481 0.0031,1.028 0.4372,1.2568 0.6475,0.3414 1.0656,-0.2479 1.5966,-0.0706z"/>
   <path id="_373480552" class="fil4" d="M34.4799 44.7124c0.5577,-0.4285 0.0187,-0.9576 -0.5229,-0.8778 -0.3686,0.0544 -1.0438,0.3391 -1.242,0.6453 -0.2964,0.4578 -0.1675,1.0437 0.2543,1.3691 0.6,0.4628 1.2385,-0.1511 1.5814,0.1754l-1.142 0.3261 0.699 0.8874c1.6763,-0.3879 1.8177,-1.5387 1.029,-2.0856 -0.6866,-0.4761 -1.2105,0.1353 -1.5354,-0.1095l0.8786 -0.3304z"/>
   <path id="_373481536" class="fil4" d="M18.6966 46.0111c0.3195,-0.0143 0.4608,0.0451 0.6491,0.2804 0.0482,0.5674 -0.4042,0.5341 -0.7906,0.2921l0.1415 -0.5725zm-0.341 1.461c0.5558,0.0009 0.6854,0.2884 1.3381,-0.0221 0.3655,-0.1739 0.6179,-0.5543 0.6373,-0.981 0.0472,-1.0388 -1.0099,-1.2395 -1.8081,-1.4108 -0.6743,-0.1446 -0.6521,0.2893 -0.7835,0.7937 -0.1107,0.4254 -0.2128,0.8502 -0.3162,1.2768 -0.0896,0.3695 -0.2956,0.9851 0.2012,1.1238 0.5801,0.1618 0.5922,-0.4029 0.7312,-0.7804z"/>
   <path id="_373481200" class="fil4" d="M21.9164 46.5162c0.338,-0.0206 0.4782,-0.0048 0.6709,0.2417 0.0455,0.5126 -0.3219,0.531 -0.7389,0.3609l0.068 -0.6026zm-0.1596 1.4777c0.3041,-0.0091 1.9628,0.2591 1.7939,-1.2941 -0.1032,-0.9486 -1.215,-1.0414 -1.961,-1.1225 -0.7638,-0.083 -0.6038,0.887 -0.8122,2.2391 -0.0596,0.387 -0.1574,0.945 0.361,1.0338 0.6075,0.104 0.5207,-0.4798 0.6183,-0.8563z"/>
   <path id="_373481512" class="fil4" d="M30.6228 45.8193c0.3206,-0.162 1.7283,-0.2388 1.2014,-0.9439 -0.2433,-0.3256 -1.3349,0.0897 -1.7057,0.1884 -0.8111,0.2157 -0.4505,0.802 -0.3067,1.4672 0.0998,0.4612 0.1697,1.357 0.5502,1.6269l2.0781 -0.543c0.2569,-0.329 -0.0104,-0.7353 -0.4396,-0.6804 -0.358,0.0458 -0.6993,0.2879 -1.05,0.2271l-0.0482 -0.2567 0.8054 -0.9738c-0.4338,0.0526 -0.8949,0.1914 -1.0315,0.1351l-0.0534 -0.2469z"/>
   <path id="_373481392" class="fil4" d="M28.469 42.6781l-1.4479 -0.6072c-0.0609,0.3147 0.1852,1.573 0.2936,1.9272 0.0963,0.3146 0.4533,0.3956 0.6295,0.1242l-0.0531 -0.995 0.931 0.7459 0.3926 -1.1357 0.9029 0.7967c0.0306,-0.2756 -0.3469,-1.7309 -0.508,-1.9569 -0.2004,-0.2809 -0.6785,-0.1559 -0.8206,0.0999 -0.1554,0.2799 -0.1491,0.7196 -0.32,1.0009z"/>
   <path id="_373482424" class="fil4" d="M24.9129 42.9013c0.5426,-0.2712 1.0565,0.5714 0.4905,0.9151 -0.5994,0.3641 -1.1719,-0.5746 -0.4905,-0.9151zm0.0104 -0.6929c-1.7815,0.3964 -1.0236,2.6178 0.4128,2.3207 1.6833,-0.3482 1.0632,-2.6491 -0.4128,-2.3207z"/>
   <path id="_373482592" class="fil4" d="M16.8014 41.9375l-0.5182 -0.284c0.0282,-0.4596 0.3903,-0.7861 0.5559,-1.1976 0.1879,-0.4667 -0.2433,-0.9321 -0.7239,-0.1317 -0.513,0.8546 -1.0287,1.6898 0.2111,2.2138 0.9967,0.4212 1.511,-0.6966 1.8478,-1.4549 0.2268,-0.5109 -0.3258,-0.8782 -0.6957,-0.2198 -0.2144,0.3817 -0.3383,0.8098 -0.677,1.0742z"/>
   <path id="_373482616" class="fil4" d="M19.515 42.9504l-0.9658 -0.3568 -0.2349 0.2301c-0.0167,0.732 1.1957,1.0938 1.7032,0.6356 0.7231,-0.6528 -0.1331,-1.2187 -0.5598,-1.6176l0.8788 0.3284 0.2084 -0.2237c0.0245,-0.6999 -1.0979,-0.9811 -1.575,-0.5922 -0.2688,0.2191 -0.3096,0.6471 -0.113,0.95 0.1583,0.2439 0.5931,0.4039 0.6581,0.6462z"/>
   <path id="_373482448" class="fil4" d="M33.6053 40.3055c0.1801,-0.1798 0.2641,-0.2746 0.5259,-0.2081 0.1468,0.2803 -0.0146,0.4395 -0.2685,0.5836l-0.2574 -0.3755zm-0.8193 -0.2472c-0.0534,0.5375 0.7495,1.4933 1.0728,1.9525l0.3964 -0.8939 1.2304 -0.2748 -0.6515 -0.3756c-0.0105,-0.2697 0.103,-0.4819 -0.0703,-0.764 -0.4804,-0.7819 -1.6935,0.0544 -1.9778,0.3558z"/>
   <path id="_373483408" class="fil4" d="M31.3558 43.0464c0.3995,0.0809 0.6906,-0.1774 1.0612,-0.3382l0.3461 -0.7811 -1.1036 0.3526 0.6191 -0.6357 -0.2253 -0.4013 -0.805 0.1647 0.6263 -1.0323c-0.3221,-0.0066 -0.5756,0.1793 -0.8853,0.3261 -0.3215,0.1523 -0.6889,0.2315 -0.5395,0.6777 0.1122,0.3347 0.6554,1.4829 0.906,1.6675z"/>
   <path id="_373483360" class="fil4" d="M14.7327 41.008c-0.0125,-0.5379 -0.2514,-0.3743 -0.5815,-0.4639 -0.2924,-0.0793 -0.4187,-0.4159 -0.3514,-0.709 0.067,-0.2917 0.3465,-0.4527 0.6396,-0.4112l0.5517 0.5294c0.1782,-0.0066 0.4196,0.0202 0.5103,-0.1801 0.0632,-1.0551 -1.6653,-1.4681 -2.2577,-0.3825 -0.6349,1.1634 0.7883,2.3825 1.489,1.6173z"/>
   <path id="_373483456" class="fil4" d="M25.1042 48.6957c0.1064,-0.176 0.0542,-1.7249 0.0562,-2.0521 0.002,-0.323 0.0901,-0.6468 -0.2034,-0.8421 -0.2197,-0.146 -0.5712,-0.1255 -0.6919,0.1073 -0.1007,0.1942 -0.0492,1.7466 -0.0532,2.0875 -0.004,0.331 -0.0729,0.6537 0.2312,0.8519 0.2206,0.1438 0.5395,0.0486 0.6611,-0.1525z"/>
   <path id="_373482880" class="fil4" d="M21.6781 42.4797c0.0099,0.4405 -0.5297,1.7043 0.0672,1.765 0.5182,0.0527 0.5097,-0.7968 0.6607,-1.6338l0.7037 -0.375c-0.2474,-0.3025 -0.9982,-0.3588 -1.4108,-0.436 -0.5108,-0.0956 -0.9052,0.4396 -0.0208,0.6798z"/>
   <path id="_373479112" class="fil5" d="M21.0206 25.8369c0.102,-0.2283 0.0776,-0.2115 0.3141,-0.2602 0.6631,-0.0189 0.5899,0.1083 1.1372,0.312 0.3422,0.1273 1.0744,0.0641 1.4694,0.0642 0.6983,0.0001 2.4063,0.111 2.9733,-0.0923 0.3983,-0.1428 1.8734,-0.8893 1.5256,0.8662 -0.7205,3.6359 -4.9819,4.6291 -6.9196,1.4623 -0.3579,-0.5849 -0.7998,-1.6887 -0.5,-2.3522zm7.2137 -2.9039c-0.243,-0.0959 -0.2799,-0.1341 -0.3769,-0.3723 -0.3594,-0.7505 -0.0678,-1.8818 0.4311,-2.5035 2.0055,-2.4993 5.2629,-1.3252 5.914,1.0893 0.3461,1.2838 -0.3569,2.069 -1.1314,1.8962 -0.4056,-0.0905 -0.7175,-0.5023 -0.743,-0.9236 -0.1135,-1.8718 -2.0906,-1.7199 -2.5824,-0.6109 -0.2146,0.484 0.0855,0.8305 -0.3848,1.2664 -0.3672,0.3404 -0.6877,0.3334 -1.1266,0.1584zm-10.6427 -4.1743c1.2785,-0.4594 3.5457,0.5288 3.9288,2.6079 0.2837,1.5396 -0.8366,1.9101 -1.4732,1.5315 -0.5212,-0.31 -0.3778,-0.6398 -0.4958,-1.1486 -0.2427,-1.0468 -1.3353,-1.3206 -2.0855,-0.8132 -0.9601,0.6493 -0.0485,1.6496 -1.2133,2.0751 -1.3519,0.4939 -2.1288,-2.1878 0.1621,-3.7733 0.5747,-0.3978 0.8707,-0.3693 1.1769,-0.4794zm-4.7816 0.9848c0.9219,-0.3969 1.4774,0.9423 0.5475,1.3109 -0.8339,0.3305 -1.4719,-0.913 -0.5475,-1.3109zm5.6075 -6.6126c0.3912,-0.3684 1.0271,-1.0663 1.5241,-0.3029 0.4891,0.7512 -0.4413,1.0248 -0.8014,1.3062l-0.578 1.2574c-0.5921,0.42 -0.9372,0.1711 -1.5013,0.0937l-1.5723 0.2679c-0.4494,-0.7241 0.3999,-1.1536 0.9554,-1.3131 0.7967,-1.5468 0.585,-1.4757 1.9735,-1.3092zm-7.9038 10.9677c-0.1561,0.2845 -0.0722,2.0378 -0.0719,2.4902 0.0006,1.0258 0.8966,2.7642 1.4438,3.6461 0.1494,0.2406 0.8931,1.3518 1.0382,1.4422l0.2615 0.0236 1.5323 0.9935c0.1957,0.1203 0.4174,0.2259 0.5896,0.3504 1.0823,0.7827 3.8943,1.7091 5.3385,1.8958 1.4453,0.1869 4.2853,0.2745 5.7333,-0.2006 0.2205,-0.0723 0.124,-0.0761 0.3205,-0.1372 0.1496,-0.0465 0.2352,-0.0335 0.3922,-0.0837 0.216,-0.0691 0.1111,-0.0741 0.2778,-0.1251 0.4251,-0.1298 0.6039,-0.132 1.1027,-0.338 0.4726,-0.1951 2.3011,-1.2087 2.588,-1.4122 0.04,-0.0283 0.1491,-0.1705 0.2327,-0.2337 1.387,-1.0489 1.1878,-0.8724 2.3483,-2.215 -0.3804,-0.028 -0.7383,0.0015 -1.1136,0.0046 -0.1501,0.0013 -0.35,-0.0193 -0.4975,-0.0433 -0.4094,-0.0665 -0.3869,-0.1713 -0.4429,-0.2308 -0.0285,-0.1012 -0.8152,-0.5648 -0.7652,-1.0958 -0.3523,-0.2066 -0.1461,-1.0409 0.1035,-1.2995 0.4717,-1.1295 2.1272,-0.8941 3.4255,-0.8952 1.1214,-0.0009 0.7814,0.1654 1.221,0.222l0.8758 0.3839c0.4188,-1.2861 0.8141,-2.4151 0.9791,-3.8201 0.1627,-1.385 0.2189,-3.1984 -0.0257,-4.5694 -0.0608,-0.3409 -0.0334,-0.73 -0.1528,-1.047 -0.029,-0.0769 -0.3218,-1.3265 -0.5042,-1.8917 -0.0954,-0.2958 -0.2435,-0.6376 -0.3239,-0.9096 -0.0679,-0.2296 -0.0156,-0.2262 -0.1471,-0.4497 -0.0881,-0.1497 -0.1119,-0.2508 -0.1747,-0.4108 -0.0485,-0.1235 -0.1168,-0.3757 -0.1512,-0.4443 -0.0471,-0.0943 -0.1838,-0.2918 -0.2355,-0.4166 -0.3184,-0.7684 0.3128,-0.0122 -0.6142,-1.1419 -0.1578,-0.1923 -0.1841,-0.2101 -0.2464,-0.4458 -0.0727,-0.174 -0.6993,-0.7674 -0.9121,-0.834 -0.2102,-0.0139 -0.3386,-0.197 -0.5195,-0.3374 -0.1662,-0.129 -0.2739,-0.2163 -0.4747,-0.2841 0.0457,0.2841 0.2743,0.6568 -0.0601,0.8826 -0.8786,1.0267 -0.784,0.2016 -3.1825,-0.8805 -3.9361,-1.7757 -8.4666,-1.2863 -12.0827,0.9654 -2.0479,1.2752 -3.7553,3.1576 -4.8651,5.255 -2.6495,5.0077 -0.2772,8.2074 -2.2408,7.6377z"/>
   <path id="_373483936" class="fil6" d="M32.8848 11.121c0.3344,-0.2258 0.1058,-0.5985 0.0601,-0.8826 0.2008,0.0678 0.3085,0.1551 0.4747,0.2841 0.1809,0.1404 0.3093,0.3235 0.5195,0.3374 -0.1765,-0.3209 -1.29,-1.0478 -1.6518,-1.1781 0.459,0.6131 0.7463,0.4552 0.5975,1.4392z"/>
  </g>
 </g>
</svg>
