<?xml version="1.0" encoding="UTF-8"?>
<!DOCTYPE svg PUBLIC "-//W3C//DTD SVG 1.1//EN" "http://www.w3.org/Graphics/SVG/1.1/DTD/svg11.dtd">
<!-- Creator: CorelDRAW -->
<svg xmlns="http://www.w3.org/2000/svg" xml:space="preserve" width="70mm" height="70mm" style="shape-rendering:geometricPrecision; text-rendering:geometricPrecision; image-rendering:optimizeQuality; fill-rule:evenodd; clip-rule:evenodd"
viewBox="0 0 70 70"
 xmlns:xlink="http://www.w3.org/1999/xlink">
 <defs>
  <style type="text/css">
   <![CDATA[
    .fil9 {fill:#015E36}
    .fil8 {fill:#040101}
    .fil12 {fill:#0A9264}
    .fil14 {fill:#372616}
    .fil10 {fill:#4ACAA5}
    .fil16 {fill:#4C1717}
    .fil3 {fill:#513228}
    .fil2 {fill:#865A30}
    .fil13 {fill:#953A48}
    .fil11 {fill:#967137}
    .fil4 {fill:#B47D3B}
    .fil0 {fill:#B58855}
    .fil18 {fill:#C9766F}
    .fil1 {fill:#CBECE2}
    .fil17 {fill:#E9D4A5}
    .fil15 {fill:#EF9095}
    .fil5 {fill:#F47B83}
    .fil6 {fill:#FAD082}
    .fil7 {fill:#FCFEFB}
    .fil19 {fill:#FEFEFE;fill-rule:nonzero}
   ]]>
  </style>
 </defs>
 <g id="Capa_x0020_1">
  <metadata id="CorelCorpID_0Corel-Layer"/>
  <path class="fil0" d="M23.1774 36.8915c-0.0435,0.2888 -0.0638,0.2894 0.1011,0.5291 0.5624,0.1735 0.8251,-0.2636 0.4252,-0.6918 -0.2537,-0.0503 -0.355,-0.0105 -0.5263,0.1627z"/>
  <path class="fil0" d="M46.3292 36.6788c-0.5044,0.3542 -0.2786,0.8239 0.1409,0.7745 0.383,-0.045 0.4897,-0.6586 -0.1409,-0.7745z"/>
  <path class="fil1" d="M48.672 50.8817l0.5477 0.4186c0.0062,-0.2183 -0.276,-0.531 -0.3937,-0.7377 -0.2641,0.0676 -0.5071,0.2167 -0.5288,0.5089l0.3748 -0.1898z"/>
  <path class="fil2" d="M33.5696 46.1283l-0.0112 -0.2858c0.4797,0.0488 0.9796,0.1886 1.4499,0.3153 0.4281,0.1152 1.1337,0.261 1.1674,0.5313 0.1858,-0.1944 0.2212,-0.3005 0.1925,-0.5895l-2.9081 -0.5148c-0.0231,0.3063 -0.065,0.3465 0.1095,0.5435z"/>
  <path class="fil2" d="M26.1276 50.0787c0.1239,-0.3299 -0.0663,-0.2344 0.2906,-1.1303l0.4067 -0.9645c0.2829,0.399 0.2397,0.3877 0.2183,0.8818l-0.204 -1.3577c-0.4651,0.7363 0.1637,0.1845 -1.0811,1.653l0.2041 0.7239c0.0996,0.2313 0.043,0.1132 0.1654,0.1938z"/>
  <path class="fil3" d="M19.5178 34.7339c0.5717,1.2902 3.9562,1.0084 4.1706,1.2376l0.6727 1.1977 0.5436 0.0003c0.012,-0.3138 -0.0747,-0.3922 -0.0926,-0.684 -0.0219,-0.3547 0.0691,-0.3311 -0.1112,-0.6278 -0.7954,-1.294 -0.3237,-0.9256 -2.0689,-1.0199 -0.5044,-0.0273 -0.8505,-0.1097 -1.3158,-0.2167 -0.0801,0.1438 0.1259,0.1867 -0.3184,0.1304 -0.6238,-0.0791 -1.5071,-0.6949 -1.6753,-0.7472l0.3549 0.7062 -0.1596 0.0234z"/>
  <path class="fil3" d="M49.0717 34.4144c-1.1928,0.5241 -1.8769,0.4365 -3.2612,0.5139 -0.8507,1.2806 -0.675,0.7349 -0.7318,2.2621l0.4697 0.0192c0.4376,-0.9842 0.2941,-1.3108 1.5467,-1.3644 0.6463,-0.0276 2.1053,-0.0383 2.4747,-0.5806l-0.1045 0.0056c0.3856,-0.2407 0.8841,-0.6771 0.9375,-1.1391 -0.5422,0.1393 -0.8261,0.5323 -1.4751,0.5054l0.144 -0.2221z"/>
  <path class="fil4" d="M23.8111 33.188c0.088,-0.8686 -0.0198,-0.41 0.1953,-1.3889 -0.717,-0.116 -0.9659,0.0317 -1.5093,-0.5581 -1.1308,-1.2273 -0.5727,-3.4161 -0.4415,-5.2359 0.0931,-1.2913 0.1572,-2.5895 0.2636,-3.8783 0.0386,-0.4687 0.2291,-1.5744 -0.0941,-1.9166 -0.4754,-0.5031 -1.0161,-0.1973 -1.1079,0.4205 -0.2569,1.7296 -0.3804,5.4398 -0.6327,7.61 -0.1403,1.2063 -0.1275,2.4812 0.5234,3.5225 0.5321,0.8512 1.7895,1.5566 2.8032,1.4248z"/>
  <path class="fil4" d="M45.9082 31.7815c0.0331,0.2784 0.1474,0.6228 0.2285,1.3862 1.0698,0.0494 2.0575,-0.5673 2.6767,-1.3794 0.7717,-1.0121 0.5953,-2.3081 0.519,-3.505 -0.162,-2.5419 -0.353,-5.1644 -0.6078,-7.6982 -0.0738,-0.7346 -0.7167,-0.8851 -1.1562,-0.3753 -0.3009,0.3489 -0.0682,1.401 -0.0415,1.8659 0.0868,1.5088 0.6137,6.6529 0.4805,7.697 -0.1712,1.342 -0.8293,1.8469 -2.0992,2.0088z"/>
  <path class="fil4" d="M23.9379 34.2705l-0.0848 -0.4513c-1.1038,-0.2384 -1.7462,0.1769 -3.0741,-1.2713 -0.8811,-0.9609 -0.8496,-2.3562 -0.7925,-3.5808 0.0824,-1.7646 0.3546,-4.0892 0.5017,-5.993l0.147 -2.0599c-0.7946,-0.5447 -0.9514,0.8261 -1.0131,1.2888 -0.3142,2.3555 -0.5028,4.6363 -0.7724,6.9901 -0.1871,1.6326 -0.1258,2.7508 1.0368,3.9716 0.7734,0.8122 2.9802,1.2707 4.0514,1.1058z"/>
  <path class="fil4" d="M46.0994 33.762l-0.0691 0.4785c3.5779,0.203 5.4079,-1.4577 4.9773,-5.1315 -0.0613,-0.5227 -0.6982,-6.7337 -0.7587,-6.892l-1.0158 -1.5052c-0.0716,0.3394 0.5417,7.0032 0.6093,8.0515 0.085,1.3174 0.1717,2.5799 -0.6913,3.6443 -0.9935,1.2252 -1.8556,1.227 -3.0517,1.3544z"/>
  <path class="fil4" d="M49.0717 34.4144l-0.144 0.2221c0.649,0.0269 0.9329,-0.3661 1.4751,-0.5054 -0.0534,0.462 -0.5519,0.8984 -0.9375,1.1391l0.1045 -0.0056c0.8261,-0.3037 1.7487,-1.4446 2.1267,-2.2431 0.6527,-1.3785 0.5045,-2.3733 0.4483,-3.8439 -0.0511,-1.3354 -0.2044,-2.7333 -0.3626,-4.0645 -0.2693,-2.2655 -0.0154,-1.5926 -1.1144,-3.2499 -0.0557,0.1625 0.6733,6.4182 0.7605,7.1762 0.1403,1.2204 0.2785,2.292 -0.2803,3.4294 -0.3479,0.7079 -1.268,1.8536 -2.0763,1.9456z"/>
  <path class="fil4" d="M19.5178 34.7339l0.1596 -0.0234 -0.3549 -0.7062c0.1682,0.0523 1.0515,0.6681 1.6753,0.7472 0.4443,0.0563 0.2383,0.0134 0.3184,-0.1304 -0.6805,0.0948 -2.0169,-1.1586 -2.3582,-1.6996 -0.7164,-1.1352 -0.6537,-2.2231 -0.5234,-3.539l0.7439 -7.562c-0.6073,-0.004 -0.6891,0.7207 -0.7503,1.2222 -0.2394,1.9617 -0.3716,3.4757 -0.5404,5.4536 -0.236,2.7649 -0.3597,4.2682 1.63,6.2376z"/>
  <path class="fil5" d="M24.4935 34.2096c0.3423,-0.0423 0.2804,-0.1834 0.6103,-0.329 0.2139,-0.4011 1.284,-1.2118 1.7438,-1.5191 2.1327,-1.4252 5.1986,-2.1088 7.7753,-2.1484 1.9758,-0.0304 3.9397,0.2653 5.7511,0.8623 1.3143,0.4331 3.1882,1.3929 4.1316,2.4413 0.4801,0.1763 0.4184,0.4452 0.7366,0.6434 0.2254,-0.2427 0.0206,-0.17 0.3099,-0.3232 0.003,-1.0094 0.4912,-1.6112 -1.041,-2.9717 -2.4199,-2.1487 -6.5431,-3.1841 -9.6815,-3.1218 -3.0656,0.0608 -7.3672,1.081 -9.5409,3.2624 -0.337,0.3383 -0.7787,0.7495 -0.9186,1.2229 -0.2344,0.7934 0.1022,1.3434 0.1234,1.9809z"/>
  <path class="fil5" d="M29.0058 28.1737c0.2029,0.0431 2.2768,-0.5737 2.6511,-0.6712l-0.6762 -0.8159 1.8597 -1.9349 -1.7966 -1.709 2.0026 -1.9771 1.9867 1.7908 1.8605 -1.7499 2.0651 1.9344 -1.8062 1.7228 1.8625 1.876 -0.6993 0.8367 2.628 0.7212c0.3995,-0.6719 0.3235,-2.3855 0.1721,-3.1575 -0.9802,-4.9963 -8.0707,-6.2868 -11.0811,-2.4473 -0.5338,0.6808 -0.9926,1.5438 -1.1867,2.3941 -0.1977,0.8661 -0.23,2.3786 0.1578,3.1868z"/>
  <path class="fil6" d="M35.1743 39.1682c-0.0808,1.0002 0.4566,1.7529 1.5189,1.6732 0.4354,-0.0327 0.7944,-0.202 1.1158,-0.485l0.4807 -1.114 0.3366 -0.0269 0.7474 1.322 -0.8087 -0.4756c-0.2111,0.3053 -0.4012,0.6069 -0.7137,0.8187 -0.6435,0.4363 -0.3639,0.1835 -0.6071,0.9149 -0.9451,2.841 -3.1977,1.9998 -3.6328,1.4165l-1.0409 -2.0595c-0.1847,-0.1512 -0.4691,-0.2693 -0.6637,-0.4394l-0.5116 -0.5916 -0.6705 0.4003c-0.0147,-0.4077 0.6843,-0.9964 0.984,-1.2702 0.0387,0.2431 -0.1738,0.577 0.467,1.1241 0.3158,0.2695 0.7055,0.4262 1.1358,0.4582 1.1269,-0.005 1.6191,-0.5556 1.4885,-1.6419 -1.4246,-0.4319 -1.1743,-1.6398 0.1672,-1.6558 1.2697,-0.0151 1.7488,1.0739 0.2071,1.632zm-3.9841 -4.9458c2.1148,1.0836 1.7682,3.9887 -0.3655,4.6593 -1.0648,0.3348 -2.1974,-0.1186 -2.785,-0.9847 -0.7285,-1.0739 -0.5608,-1.9702 0.0952,-2.9898 -0.087,-0.0989 0.1274,-0.1772 -0.2003,-0.0311l-0.5561 0.3523c-0.7739,0.4037 -1.5272,1.1251 -2.0809,1.4623 0.1003,2.2843 1.2968,4.4228 2.9517,5.8882 1.7624,1.5607 4.0043,2.3499 6.372,2.4478 2.5636,0.106 4.6704,-0.6722 6.7035,-2.1187 0.7616,-0.5417 1.5877,-1.5249 2.0912,-2.3216 0.4461,-0.7059 1.21,-2.4683 1.1702,-3.2802 0.0318,-0.8155 0.302,-0.5316 -0.3535,-1.0643 -0.5457,-0.4435 -1.5175,-0.9843 -2.1542,-1.3612 -0.1896,-0.1122 -0.2711,-0.275 -0.323,-0.1821 0.4056,0.7324 1.1717,1.5364 0.3499,2.9957 -1.234,2.1915 -4.4769,1.3548 -4.6956,-1.0043 -0.1115,-1.2018 0.7886,-2.3707 1.507,-2.483 -0.1219,-0.1977 0.0055,-0.0938 -0.1875,-0.1968l-1.632 -0.2665c-1.4714,-0.167 -5.0192,-0.2022 -6.0391,0.33l0.132 0.1487z"/>
  <path class="fil6" d="M33.5696 46.1283c0.2759,0.5242 0.5309,0.938 1.0795,1.216 0.6174,0.3128 1.2762,-0.0973 1.5266,-0.6552 -0.0337,-0.2703 -0.7393,-0.4161 -1.1674,-0.5313 -0.4703,-0.1267 -0.9702,-0.2665 -1.4499,-0.3153l0.0112 0.2858z"/>
  <path class="fil6" d="M26.1276 50.0787l0.0953 0.1374c0.3746,-0.2283 0.838,-0.9155 0.8203,-1.3504 0.0214,-0.4941 0.0646,-0.4828 -0.2183,-0.8818l-0.4067 0.9645c-0.3569,0.8959 -0.1667,0.8004 -0.2906,1.1303z"/>
  <path class="fil6" d="M20.2637 47.2728c0.0345,-0.2337 -0.1949,-0.9278 -0.2984,-1.1626 -1.0898,0.1714 -1.0728,1.2984 0.2984,1.1626z"/>
  <path class="fil6" d="M18.9936 46.0462c0.3097,0.0815 0.6822,-0.0776 0.9458,-0.2523l-0.1411 -0.7576c-0.4419,0.056 -1.0506,0.486 -0.8047,1.0099z"/>
  <path class="fil7" d="M4.6506 36.6881c-0.8605,-17.0386 11.7001,-31.137 28.7217,-32.1938 8.0781,-0.5016 16.3025,2.6437 22.2017,8.1414 5.9304,5.5267 9.2612,12.5746 9.7612,20.686 1.0395,16.8633 -11.6875,31.4443 -28.6548,32.2357 -17.1057,0.7979 -31.1641,-11.7278 -32.0298,-28.8693zm28.4329 -33.047c-8.3322,0.5434 -15.5296,4.0231 -21.206,10.0953 -5.8855,6.296 -8.5072,14.6985 -8.1241,23.232 0.5443,12.1238 8.3609,22.9946 19.6398,27.3473 4.1825,1.6141 9.0605,2.344 13.5297,2.0774 8.3604,-0.4989 15.5317,-3.9401 21.2336,-10.0302 5.9296,-6.3333 8.5247,-14.6705 8.0875,-23.2606 -0.8675,-17.0459 -16.1509,-30.5706 -33.1605,-29.4612z"/>
  <path class="fil7" d="M52.5477 27.9742c0.0163,1.2548 0.1242,2.5975 0.2986,3.8334 0.8381,5.9414 -0.4507,11.3447 -4.4438,15.9044 -1.0699,1.2217 -3.1321,2.9755 -4.6202,3.6683l-2.2617 -3.3316c-0.347,-0.5096 -0.8235,-1.0772 -1.2462,-1.507 -0.3292,-0.3346 -0.8823,-0.854 -1.3165,-1.0972l-0.2169 -0.0706c-0.0118,-0.026 -0.0459,-0.0026 -0.0688,-0.0033l0.7885 1.5893 -0.7743 0.6008 0.8567 1.4627 -0.9629 1.4781 0.8404 -0.5281 0.7658 0.4471c0.2451,0.1643 0.3988,0.4495 0.683,0.4988l-0.4392 -2.26c-0.1014,-0.414 -0.5454,-1.8276 -0.5489,-2.0998l0.6348 1.111c0.1295,0.3272 0.3033,1.1415 0.4012,1.3204l0.1975 -0.2976 -0.0265 0.9713c0.027,0.2041 0.6205,1.9705 0.6435,2.7354l-0.4611 0.2038 -0.3152 -1.4167 -1.4547 -0.759 -0.5277 0.1784c-0.0054,0.0015 -0.783,0.4161 -0.8631,0.5245 -0.7605,1.0297 -0.9278,1.3787 -0.8573,2.4451l-0.1388 0.0845c-1.0876,0.1287 -3.0762,0.2484 -4.1126,-0.0011l-0.1739 -0.0064 -0.2881 -1.516c-0.1888,-0.5192 -1.7765,-2.5193 -2.1078,-3.0449l0.8943 -1.5186 -0.8456 -0.5285 0.7578 -1.6609 -2.6198 2.6052 0.4434 0.7886 1.0634 -2.2139 -0.7638 2.9766c-0.2336,1.048 -0.4032,2.1192 -0.6404,3.1616 -0.7978,-0.1959 -0.3374,-0.1343 -0.6468,-0.3038 -0.1246,-0.0683 -1.3743,-0.5739 -1.9902,-0.9021 -0.604,-0.3219 -1.8232,-1.0864 -2.2169,-1.581l-1.5905 -0.0077 5.0181 3.2133c1.9631,0.8778 4.3653,1.4633 6.5091,1.5946 4.7341,0.2901 8.6836,-1.1373 12.4964,-3.8025 3.1009,-2.1675 5.6855,-5.916 6.8097,-9.5117 1.0833,-3.4645 1.3332,-7.2219 0.4368,-10.7645 -0.2039,-0.8061 -0.6361,-2.2812 -0.9803,-3.0056l-0.0185 0.3429z"/>
  <path class="fil7" d="M29.0551 6.9372c0.0016,0.7401 0.5376,1.8105 0.5549,2.6025l-1.3126 0.3604 -0.7565 -2.5205 -2.0857 0.4983 1.8553 7.2472 2.1886 -0.5806 -0.6757 -2.7454 1.253 -0.2896 0.6731 2.7283 2.2391 -0.3463 -0.8171 -3.6762c-0.2465,-1.2255 -0.5943,-2.4498 -0.827,-3.6732l-2.2894 0.3951z"/>
  <path class="fil7" d="M9.9072 23.7331c0.6714,-1.1244 1.4546,-0.9935 2.5138,-0.4014 1.0061,0.5625 1.3049,1.5125 0.5736,2.4754 -0.3591,-0.0609 -2.7889,-1.7495 -3.0874,-2.074zm2.872 4.8123c0.9553,-0.4209 2.3356,-2.169 2.664,-3.1756 0.5021,-1.5392 -0.2931,-3.1198 -1.5686,-3.973 -1.3543,-0.9059 -2.9459,-1.2653 -4.2631,-0.0725 -0.6348,0.5748 -1.846,2.946 -2.0179,3.7958l5.1856 3.4253z"/>
  <path class="fil7" d="M36.2317 8.4408c1.3997,-0.6088 1.6019,3.0663 0.3802,3.5707 -1.3695,0.5653 -1.6832,-3.0039 -0.3802,-3.5707zm3.5562 2.5441c0.358,-1.9375 -0.5444,-4.0495 -2.528,-4.487 -2.0618,-0.4547 -3.8553,0.9126 -4.1884,2.8529 -0.9089,5.2943 5.832,6.4208 6.7164,1.6341z"/>
  <path class="fil7" d="M26.1693 57.1566c1.6046,-0.6268 1.09,2.4863 -0.2323,3.0327 -1.4694,0.6072 -1.3791,-2.4031 0.2323,-3.0327zm3.2771 1.9959c0.453,-1.9296 -0.9037,-3.9599 -2.8135,-4.1113 -1.9327,-0.1532 -3.6311,1.2133 -3.9775,3.0872 -0.8825,4.7748 5.636,5.9441 6.791,1.0241z"/>
  <path class="fil7" d="M13.9665 18.2181c0.1728,-0.5493 0.7658,-0.897 1.2194,-0.4086 0.3535,0.3808 0.2945,1.1846 -0.1355,1.473 -0.3468,-0.1853 -0.9033,-0.7298 -1.0839,-1.0644zm3.2215 0.0918c0.0882,-0.964 0.1533,-1.5281 -0.6072,-2.2383 -0.6071,-0.567 -1.4772,-0.6581 -2.2731,-0.3945 -1.0577,0.3504 -2.8539,2.3541 -3.0134,2.8949l5.3485 5.1533 1.4309 -1.7102c-0.3526,-0.3441 -1.6915,-1.4885 -1.7403,-1.8759l1.6162 0.1446c0.4258,0.0898 0.9432,0.3096 1.3208,0.3703l1.3686 -1.8189c-2.1596,-0.5186 -1.3247,-0.3863 -3.451,-0.5253z"/>
  <path class="fil7" d="M42.6888 11.2522c-0.0366,-0.2829 0.3299,-1.4726 0.4764,-1.7422 1.378,0.0965 0.9548,2.2299 -0.4764,1.7422zm-0.5541 1.7379c0.6297,0.0681 0.8884,0.2964 1.655,0.2596 2.6977,-0.1293 3.5214,-4.1121 0.6887,-5.2987 -0.4689,-0.1964 -2.5187,-0.8063 -2.9571,-0.8141l-2.1823 7.264 2.1846 0.5171 0.6111 -1.9279z"/>
  <path class="fil7" d="M45.593 56.091l-0.6287 -1.6948 -2.1579 0.8863c-0.7409,0.2843 -1.4617,0.4885 -2.1931,0.7602 0.7624,2.1615 1.647,4.7798 2.4422,6.8779l4.8464 -1.8443 -0.5989 -1.7163 -2.682 1.0142 -0.3558 -0.9456 2.0853 -0.8221 -0.5718 -1.6664 -2.1354 0.8406 -0.287 -0.8407 2.2367 -0.849z"/>
  <path class="fil7" d="M48.1809 54.3943c0.5018,-0.4354 1.5593,-0.9629 1.9631,-1.4389l-0.9863 -1.3233 -3.8708 2.5589c0.9201,1.3582 3.2994,5.0331 4.0826,6.0412l4.2112 -2.9542 -1.1071 -1.3688 -2.2033 1.4643 -0.571 -0.8579 1.9322 -1.3633 -1.0049 -1.3059 -1.9429 1.3036 -0.5028 -0.7557z"/>
  <path class="fil7" d="M48.0528 13.6686c-0.0302,-0.3419 0.5946,-1.3371 0.8371,-1.5539 1.194,0.6327 0.245,2.1883 -0.8371,1.5539zm-0.9581 1.3841c0.3233,0.0571 0.9021,0.4611 1.4215,0.5882 1.7603,0.431 3.0657,-0.9444 3.1758,-2.379 0.0924,-1.2022 -0.5609,-1.848 -1.4602,-2.4492 -0.4326,-0.2892 -2.0124,-1.3231 -2.4246,-1.3825l-3.7543 6.5196 1.8703 1.0233 1.1715 -1.9204z"/>
  <path class="fil7" d="M25.8698 13.5009c-0.2281,0.1542 -0.3166,0.402 -0.6945,0.6443 -0.9135,0.5857 -2.1536,0.4014 -2.6717,-0.6196 -0.3129,-0.6168 -0.3498,-1.4637 0.0718,-2.0473 0.4706,-0.6513 1.0441,-0.7323 1.7876,-0.7727l-0.5618 -1.9971c-2.2691,0.5934 -5.0284,2.0307 -3.4474,5.7963 1.4406,3.253 5.1207,2.1509 6.5329,0.8091l-1.0169 -1.813z"/>
  <path class="fil7" d="M34.9306 58.4366c0.0475,-0.3565 0.2048,-1.3645 0.1451,-1.659l-2.453 -0.179c-0.4511,-0.0435 -1.8784,-0.3671 -2.1558,-0.3091 -0.1625,0.8864 -1.2927,6.6636 -1.2659,7.0375l2.3331 0.3877 0.4421 -2.5979 2.2874 0.2207 0.2298 -1.6988 -2.1432 -0.2061 0.1101 -1.1461 2.4703 0.1501z"/>
  <path class="fil7" d="M35.5471 56.8481c-0.1181,0.4891 0.6583,6.1736 0.7743,7.1573l2.3515 -0.254 -0.3041 -2.6093 2.1342 -0.4707 -0.2125 -1.6083 -2.2198 0.3137 -0.1309 -1.0386 2.4215 -0.475 -0.2428 -1.7303c-1.6432,0.3253 -2.87,0.6104 -4.5714,0.7152z"/>
  <path class="fil7" d="M31.6232 22.9544l1.7633 1.8862 -1.8097 1.7759 0.6153 0.7896c0.2134,-0.0012 1.6162,-0.1389 1.7446,-0.2242l1.0228 -0.996c0.4028,0.15 0.7208,0.6795 1.0777,0.9577l1.8242 0.2409 0.5732 -0.6892 -1.8479 -1.862 1.784 -1.8769 -1.4805 -1.332 -1.9317 1.7757 -1.935 -1.7518 -1.4003 1.3061z"/>
  <path class="fil7" d="M27.7486 28.7513l0.8166 -0.3454c0.0631,-0.4809 -1.0954,-3.3382 1.1952,-6.021 1.372,-1.6069 3.149,-2.4075 5.2758,-2.3935 3.0674,0.0201 5.7694,1.9722 6.4662,4.9804 0.3012,1.2999 0.0687,2.181 -0.1313,3.4494l0.8276 0.3309c0.5534,-0.6976 0.4562,-2.9721 0.2779,-3.8423 -0.2029,-0.9905 -0.7927,-2.1968 -1.4469,-2.9666 -3.1417,-3.6972 -8.9297,-3.7106 -12.1235,0.001 -0.6915,0.8036 -1.2315,1.9298 -1.4564,2.9647 -0.1822,0.8384 -0.285,3.2087 0.2988,3.8424z"/>
  <path class="fil7" d="M22.9052 20.541l-0.0599 1.1324c0.1755,-0.1084 0.8308,-0.7811 1.0632,-1.0057 0.2851,-0.2756 0.8685,-0.7014 1.207,-0.9288 0.8529,-0.573 1.767,-1.0801 2.7147,-1.4998 5.4115,-2.3964 11.8403,-2.0015 16.7101,1.3639 0.4391,0.3035 2.1225,1.5682 2.3095,1.9334 0.1712,-0.1261 0.1208,0.1273 0.1122,-0.2643 -0.0001,-0.0067 -0.0444,-0.2307 -0.0485,-0.2939 -0.015,-0.2319 0.0177,-0.4612 0.0143,-0.6972l-5.1177 -3.1925c-2.2727,-0.8895 -4.4157,-1.3219 -6.9116,-1.3095 -2.2632,0.0113 -4.8592,0.497 -6.9131,1.3812 -1.5243,0.6563 -3.9997,1.907 -5.086,3.1244l0.0058 0.2564z"/>
  <path class="fil7" d="M21.4556 58.3351c-0.5998,-0.3497 -1.0392,-0.3147 -1.5231,-1.0334 -0.8573,-1.2735 0.358,-2.8209 1.7383,-2.7069 0.7807,0.0645 0.9948,0.6068 1.3764,1.122l1.2566 -1.0388 -2.7578 -2.275c-1.3557,-0.2996 -2.6244,0.384 -3.409,1.4285 -0.8703,1.1585 -0.8769,2.6624 -0.258,3.9409 0.465,0.9606 1.5628,2.0392 2.6128,2.3411l0.9638 -1.7784z"/>
  <path class="fil7" d="M22.381 43.0227c0.8475,-0.1367 2.3618,-0.0109 2.9002,0.7324 0.7114,0.982 -0.9893,1.6008 -1.669,1.7181 -2.8368,0.4895 -4.726,-1.8867 -1.2312,-2.4505zm-0.3783 -0.2876c-2.1984,0.4524 -1.9948,1.6492 -1.5222,3.5521 0.1671,0.6728 0.4725,1.3808 1.061,1.7572 0.6157,0.3937 1.6907,0.4662 2.3867,0.2611 1.5966,-0.4704 1.8003,-2.298 1.8056,-3.7618 0.0034,-0.9312 -0.3203,-1.3337 -1.1679,-1.6566 -0.7563,-0.2882 -1.7774,-0.3138 -2.5632,-0.152z"/>
  <path class="fil7" d="M18.7636 45.1957c0.4806,-1.6326 0.4018,-0.7724 -0.4319,-2.6912 -0.7924,-1.8237 -1.2337,-3.5737 -1.4374,-5.5754 -0.3255,-3.1987 0.5704,-5.7545 0.5403,-8.8183l0.0187 -0.8909 -0.7226 2.0438c-1.2552,3.6819 -1.1395,8.6284 0.1567,12.2702 0.2207,0.62 1.3989,3.5055 1.8762,3.6618z"/>
  <path class="fil7" d="M56.3966 35.6164c0.1401,0.3672 1.4821,1.1505 1.8756,1.4855l-0.653 2.2722 1.9583 -1.326 1.8918 1.3865 -0.7164 -2.331 1.85 -1.4405 -2.3132 -0.0227 -0.6396 -2.1518c-0.1156,-0.2802 -0.0301,-0.1032 -0.1431,-0.145l-0.7182 2.2737 -2.3922 -0.0009z"/>
  <path class="fil7" d="M11.9493 37.0979c0.3699,-0.4006 1.6833,-1.0829 1.8733,-1.4384l-2.3119 -0.0613 -0.7994 -2.2329 -0.7888 2.2426 -2.3234 0.0152 1.8694 1.479 -0.7179 2.2718 2.0386 -1.3297 1.8501 1.3261 -0.69 -2.2724z"/>
  <path class="fil7" d="M31.0284 46.8606l0.7891 0.6383 -0.8544 1.4537c0.0933,0.3035 1.5114,2.1551 1.8055,2.5566 0.0796,-0.5983 -0.2636,-5.1355 -0.323,-6.1219l-0.7175 -0.2085 -0.6997 1.6818z"/>
  <path class="fil7" d="M25.1112 49.7398c-0.099,0.2193 0.0426,0.7146 0.2417,0.906 0.1842,0.177 2.6015,1.076 2.9381,1.2061 0.1746,-0.4915 0.7168,-2.4227 0.5305,-2.8214 -0.4651,-0.9957 -0.5989,-0.7951 -0.7394,-0.9696l-0.7753 -1.0443c0.0663,0.8223 0.5785,1.6372 -0.2832,2.8857 -0.2323,0.3365 -0.6276,0.6499 -1.0492,0.7349 -0.6742,0.136 -0.6533,-0.5185 -0.8632,-0.8974z"/>
  <path class="fil7" d="M37.5422 45.3665c-0.1173,1.1244 -0.2363,4.9421 -0.2949,6.2963l1.8068 -2.7078 -0.8628 -1.4684 0.7166 -0.5983 -0.8421 -1.7361 -0.5236 0.2143z"/>
  <path class="fil7" d="M39.3905 34.631c2.3721,-0.7233 3.5579,2.8312 1.0802,3.6371 -1.0333,0.3361 -2.0883,-0.3169 -2.3968,-1.2984 -0.3323,-1.0571 0.342,-2.0414 1.3166,-2.3387zm-1.7359 2.0373c0.1544,1.2397 1.2748,2.202 2.5524,2.032 1.1986,-0.1596 2.1355,-1.2701 1.9925,-2.4882 -0.3546,-3.021 -4.8995,-2.393 -4.5449,0.4562z"/>
  <path class="fil7" d="M29.5813 34.6133c2.2504,-0.7309 3.6237,2.8127 1.0543,3.6665 -2.2359,0.7429 -3.6358,-2.8281 -1.0543,-3.6665zm-1.7437 2.1974c0.2216,1.2277 1.382,2.0904 2.6472,1.8762 1.2136,-0.2054 2.0509,-1.4003 1.8608,-2.6215 -0.1927,-1.2378 -1.4453,-2.0475 -2.6767,-1.8374 -1.1365,0.194 -2.0419,1.4159 -1.8313,2.5827z"/>
  <path class="fil7" d="M20.5627 47.7294l-0.8011 0.0651c0.2455,1.4515 2.8873,1.7847 4.1171,1.5722 0.7533,-0.1301 1.5072,-0.4051 2.0061,-0.9509l0.2005 -2.082c-0.2719,0.5454 -0.1783,2.0135 -2.1597,2.4631 -0.6529,0.1481 -1.403,0.1293 -2.0345,-0.0731 -0.7515,-0.2408 -0.8626,-0.4451 -1.3284,-0.9944z"/>
  <path class="fil7" d="M20.9342 44.0394c0.2137,-0.0435 0.5267,-0.2248 0.8225,-0.2963 1.3433,-0.325 1.9094,-0.1643 3.1422,0.168 -0.5383,-0.8862 -3.7094,-0.7519 -3.9647,0.1283z"/>
  <path class="fil8" d="M26.1276 50.0787c-0.1224,-0.0806 -0.0658,0.0375 -0.1654,-0.1938l-0.2041 -0.7239c1.2448,-1.4685 0.616,-0.9167 1.0811,-1.653l0.204 1.3577c0.0177,0.4349 -0.4457,1.1221 -0.8203,1.3504l-0.0953 -0.1374zm-5.5649 -2.3493c0.4658,0.5493 0.5769,0.7536 1.3284,0.9944 0.6315,0.2024 1.3816,0.2212 2.0345,0.0731 1.9814,-0.4496 1.8878,-1.9177 2.1597,-2.4631l-0.2005 2.082c-0.4989,0.5458 -1.2528,0.8208 -2.0061,0.9509 -1.2298,0.2125 -3.8716,-0.1207 -4.1171,-1.5722l0.8011 -0.0651zm4.7902 2.9164c-0.1991,-0.1914 -0.3407,-0.6867 -0.2417,-0.906 0.2099,0.3789 0.189,1.0334 0.8632,0.8974 0.4216,-0.085 0.8169,-0.3984 1.0492,-0.7349 0.8617,-1.2485 0.3495,-2.0634 0.2832,-2.8857l0.7753 1.0443c0.1405,0.1745 0.2743,-0.0261 0.7394,0.9696 0.1863,0.3987 -0.3559,2.3299 -0.5305,2.8214 -0.3366,-0.1301 -2.7539,-1.0291 -2.9381,-1.2061zm12.7129 -5.4936l0.8421 1.7361 -0.7166 0.5983 0.8628 1.4684 -1.8068 2.7078c0.0586,-1.3542 0.1776,-5.1719 0.2949,-6.2963l0.5236 -0.2143zm-17.8021 2.1206c-1.3712,0.1358 -1.3882,-0.9912 -0.2984,-1.1626 0.1035,0.2348 0.3329,0.9289 0.2984,1.1626zm11.4644 -2.094l0.7175 0.2085c0.0594,0.9864 0.4026,5.5236 0.323,6.1219 -0.2941,-0.4015 -1.7122,-2.2531 -1.8055,-2.5566l0.8544 -1.4537 -0.7891 -0.6383 0.6997 -1.6818zm4.4476 1.5103c-0.2504,0.5579 -0.9092,0.968 -1.5266,0.6552 -0.5486,-0.278 -0.8036,-0.6918 -1.0795,-1.216 -0.1745,-0.197 -0.1326,-0.2372 -0.1095,-0.5435l2.9081 0.5148c0.0287,0.289 -0.0067,0.3951 -0.1925,0.5895zm-17.1821 -0.6429c-0.2459,-0.5239 0.3628,-0.9539 0.8047,-1.0099l0.1411 0.7576c-0.2636,0.1747 -0.6361,0.3338 -0.9458,0.2523zm3.0091 -3.3111c0.7858,-0.1618 1.8069,-0.1362 2.5632,0.152 0.8476,0.3229 1.1713,0.7254 1.1679,1.6566 -0.0053,1.4638 -0.209,3.2914 -1.8056,3.7618 -0.696,0.2051 -1.771,0.1326 -2.3867,-0.2611 -0.5885,-0.3764 -0.8939,-1.0844 -1.061,-1.7572 -0.4726,-1.9029 -0.6762,-3.0997 1.5222,-3.5521zm-2.8117 2.1503c0.0117,-0.3272 0.3176,-0.7249 0.6036,-0.7569l0.0027 0.6004 -0.6063 0.1565zm6.1066 -8.1946c-0.0337,-0.8686 0.1303,-0.7352 0.5993,-1.2857 0.8821,-1.0354 1.9705,-1.7795 3.2194,-2.3673 3.5379,-1.6651 8.774,-1.5527 12.2498,0.2799 0.6649,0.3505 1.6966,1.0275 2.1891,1.5375 0.3248,0.3363 0.6093,0.6157 0.8847,0.9767 0.1798,0.2358 0.1931,0.3491 0.2544,0.6532 0.0604,0.2994 0.0761,0.5907 -0.1081,0.8211 0.0398,0.8119 -0.7241,2.5743 -1.1702,3.2802 -0.5035,0.7967 -1.3296,1.7799 -2.0911,2.3216 -2.0332,1.4465 -4.14,2.2247 -6.7036,2.1187 -2.3676,-0.0979 -4.6096,-0.8871 -6.372,-2.4478 -1.6549,-1.4654 -2.8513,-3.6039 -2.9517,-5.8881zm21.0316 -0.012c0.6306,0.1159 0.5239,0.7295 0.1409,0.7745 -0.4195,0.0494 -0.6453,-0.4203 -0.1409,-0.7745zm-23.1518 0.2127c0.1713,-0.1732 0.2726,-0.213 0.5263,-0.1627 0.3999,0.4282 0.1372,0.8653 -0.4252,0.6918 -0.1649,-0.2397 -0.1446,-0.2403 -0.1011,-0.5291zm1.3161 -2.6819c-0.0212,-0.6375 -0.3578,-1.1875 -0.1234,-1.9809 0.1399,-0.4734 0.5816,-0.8846 0.9186,-1.2229 2.1737,-2.1814 6.4753,-3.2016 9.5409,-3.2624 3.1384,-0.0623 7.2616,0.9731 9.6815,3.1218 1.5322,1.3605 1.044,1.9623 1.041,2.9717 -0.0928,0.568 -0.3033,1.2242 -0.6639,1.6365 -0.8838,-0.8949 -0.8524,-0.9029 -1.8372,-1.6986 -0.6064,-0.49 -1.4672,-0.9853 -2.22,-1.2947 -3.8985,-1.6018 -7.839,-1.5637 -11.7309,-0.008 -2.5621,1.0242 -3.559,2.7494 -3.9847,3.0632l-0.6219 -1.3257zm10.4471 -7.472c0.2074,0.0961 0.4735,0.2955 0.5443,0.4777l-1.0484 -0.0198 0.5041 -0.4579zm-1.9171 -5.0893l1.935 1.7518 1.9317 -1.7757 1.4805 1.332 -1.784 1.8769 1.8479 1.862 -0.5732 0.6892 -1.8242 -0.2409c-0.3569,-0.2782 -0.6749,-0.8077 -1.0777,-0.9577l-1.0228 0.996c-0.1284,0.0853 -1.5312,0.223 -1.7446,0.2242l-0.6153 -0.7896 1.8097 -1.7759 -1.7633 -1.8862 1.4003 -1.3061zm-11.7073 12.9728c0.4653,0.107 0.8114,0.1894 1.3158,0.2167 1.7452,0.0943 1.2735,-0.2741 2.0689,1.0199 0.1803,0.2967 0.0893,0.2731 0.1112,0.6278 0.0179,0.2918 0.1046,0.3702 0.0926,0.684l-0.5436 -0.0003 -0.6727 -1.1977c-0.2144,-0.2292 -3.5989,0.0526 -4.1706,-1.2376 -1.9897,-1.9694 -1.866,-3.4727 -1.63,-6.2376 0.1688,-1.9779 0.301,-3.4919 0.5404,-5.4536 0.0612,-0.5015 0.143,-1.2262 0.7503,-1.2222l-0.7439 7.562c-0.1303,1.3159 -0.193,2.4038 0.5234,3.539 0.3413,0.541 1.6777,1.7944 2.3582,1.6996zm28.2536 0.6435c-0.3694,0.5423 -1.8284,0.553 -2.4747,0.5806 -1.2526,0.0536 -1.1091,0.3802 -1.5467,1.3644l-0.4697 -0.0192c0.0568,-1.5272 -0.1189,-0.9815 0.7318,-2.2621 1.3843,-0.0774 2.0684,0.0102 3.2612,-0.5139 0.8083,-0.092 1.7284,-1.2377 2.0763,-1.9456 0.5588,-1.1374 0.4206,-2.209 0.2803,-3.4294 -0.0872,-0.758 -0.8162,-7.0137 -0.7605,-7.1762 1.099,1.6573 0.8451,0.9844 1.1144,3.2499 0.1582,1.3312 0.3115,2.7291 0.3626,4.0645 0.0562,1.4706 0.2044,2.4654 -0.4483,3.8439 -0.378,0.7985 -1.3006,1.9394 -2.1267,2.2431zm-25.7587 -2.0766c-1.0137,0.1318 -2.2711,-0.5736 -2.8032,-1.4248 -0.6509,-1.0413 -0.6637,-2.3162 -0.5234,-3.5225 0.2523,-2.1702 0.3758,-5.8804 0.6327,-7.61 0.0918,-0.6178 0.6325,-0.9236 1.1079,-0.4205 0.3232,0.3422 0.1327,1.4479 0.0941,1.9166 -0.1064,1.2888 -0.1705,2.587 -0.2636,3.8783 -0.1312,1.8198 -0.6893,4.0086 0.4415,5.2359 0.5434,0.5898 0.7923,0.4421 1.5093,0.5581 -0.2151,0.9789 -0.1073,0.5203 -0.1953,1.3889zm0.1268 1.0825c-1.0712,0.1649 -3.278,-0.2936 -4.0514,-1.1058 -1.1626,-1.2208 -1.2239,-2.339 -1.0368,-3.9716 0.2696,-2.3538 0.4582,-4.6346 0.7724,-6.9901 0.0617,-0.4627 0.2185,-1.8335 1.0131,-1.2888l-0.147 2.0599c-0.1471,1.9038 -0.4193,4.2284 -0.5017,5.993 -0.0571,1.2246 -0.0886,2.6199 0.7925,3.5808 1.3279,1.4482 1.9703,1.0329 3.0741,1.2713l0.0848 0.4513zm25.2132 -1.8629c0.863,-1.0644 0.7763,-2.3269 0.6913,-3.6443 -0.0676,-1.0483 -0.6809,-7.7121 -0.6093,-8.0515l1.0158 1.5052c0.0605,0.1583 0.6974,6.3693 0.7587,6.892 0.4306,3.6738 -1.3994,5.3345 -4.9773,5.1315l0.0691 -0.4785c1.1961,-0.1274 2.0582,-0.1292 3.0517,-1.3544zm-3.2429 -0.6261c1.2699,-0.1619 1.928,-0.6668 2.0992,-2.0088 0.1332,-1.0441 -0.3937,-6.1882 -0.4805,-7.697 -0.0267,-0.4649 -0.2594,-1.517 0.0415,-1.8659 0.4395,-0.5098 1.0824,-0.3593 1.1562,0.3753 0.2548,2.5338 0.4458,5.1563 0.6078,7.6982 0.0763,1.1969 0.2527,2.4929 -0.519,3.505 -0.6192,0.8121 -1.6069,1.4288 -2.6767,1.3794 -0.0811,-0.7634 -0.1954,-1.1078 -0.2285,-1.3862zm-16.9024 -3.6078c-0.3878,-0.8082 -0.3555,-2.3207 -0.1578,-3.1868 0.1941,-0.8503 0.6529,-1.7133 1.1867,-2.3941 3.0104,-3.8395 10.1009,-2.549 11.0811,2.4473 0.1514,0.772 0.2274,2.4856 -0.1721,3.1575l-2.628 -0.7212 0.6993 -0.8367 -1.8625 -1.876 1.8062 -1.7228 -2.0651 -1.9344 -1.8605 1.7499 -1.9867 -1.7908 -2.0026 1.9771 1.7966 1.709 -1.8597 1.9349 0.6762 0.8159c-0.3743,0.0975 -2.4482,0.7143 -2.6511,0.6712zm-1.2572 0.5776c-0.5838,-0.6337 -0.481,-3.004 -0.2988,-3.8424 0.2249,-1.0349 0.7649,-2.1611 1.4564,-2.9647 3.1938,-3.7116 8.9818,-3.6982 12.1235,-0.001 0.6542,0.7698 1.244,1.9761 1.4469,2.9666 0.1783,0.8702 0.2755,3.1447 -0.2779,3.8423l-0.8276 -0.3309c0.2,-1.2684 0.4325,-2.1495 0.1313,-3.4494 -0.6968,-3.0082 -3.3988,-4.9603 -6.4662,-4.9804 -2.1268,-0.014 -3.9038,0.7866 -5.2758,2.3935 -2.2906,2.6828 -1.1321,5.5401 -1.1952,6.021l-0.8166 0.3454zm-3.6578 2.8472c-0.5402,-0.2436 -0.7592,-1.948 -0.8147,-2.5073 -0.0935,-0.9428 -0.03,-2.1423 0.215,-3.0611 0.8455,-3.1706 3.23,-5.7044 6.1497,-7.0799 8.4864,-3.9979 17.8709,2.5743 17.0102,10.2606 -0.0568,0.5069 -0.344,2.1629 -0.8012,2.4051l-0.6925 -0.7768c-0.7816,-0.8634 -2.3306,-1.6477 -2.5179,-1.8957 0.3087,-1.6176 0.5758,-2.3836 0.2234,-4.0752 -0.7612,-3.6547 -4.2387,-6.0661 -7.8953,-6.0668 -3.8167,-0.0007 -7.3096,2.7035 -7.9111,6.1131 -0.4625,2.6221 0.2311,3.2303 0.2307,4.0302 -0.8868,0.6202 -1.7668,1.1553 -2.5001,1.9042 -0.2053,0.2095 -0.4639,0.6748 -0.6962,0.7496zm-1.1856 -11.0575c-0.2659,-0.4065 -0.2254,-0.9432 -0.9582,-1.0353 -0.675,-0.0848 -0.9555,0.236 -1.1805,0.7848 -1.6393,0.4944 -0.8904,0.3608 -1.4104,0.9936l-1.2155 0.9854c-0.133,0.2022 -0.461,3.3439 -0.5402,3.8673 -0.067,0.4428 -0.0052,1.7321 -0.1658,1.974 0.0301,3.0638 -0.8658,5.6196 -0.5403,8.8183 0.2037,2.0017 0.645,3.7517 1.4374,5.5754 0.8337,1.9188 0.9125,1.0586 0.4319,2.6912 -0.1805,0.5037 -0.4531,0.846 0.0909,1.2752l0.4708 1.1035 1.5449 1.8991c0.3544,0.2782 1.7398,0.3944 2.1759,0.3872 0.3311,-0.0055 0.6291,-0.1663 0.8208,0.0547 0.3937,0.4946 1.6129,1.2591 2.2169,1.581 0.6159,0.3282 1.8656,0.8338 1.9902,0.9021 0.3094,0.1695 -0.151,0.1079 0.6468,0.3038 0.2372,-1.0424 0.4068,-2.1136 0.6404,-3.1616l0.7638 -2.9766 -1.0634 2.2139 -0.4434 -0.7886 2.6198 -2.6052 -0.7578 1.6609 0.8456 0.5285 -0.8943 1.5186c0.3313,0.5256 1.919,2.5257 2.1078,3.0449l0.2881 1.516 0.1739 0.0064c0.0634,-0.2876 0.1893,-0.6019 0.234,-0.8563 0.0821,-0.4667 -0.0259,-2.7221 -0.0733,-3.2003l-0.2905 -3.9906c0.33,0.1461 0.393,1.7629 2.0764,2.2495 0.7697,0.2224 1.5052,-0.8066 1.7869,-1.4073 0.2271,-0.4842 -0.0331,-0.1418 0.3765,-0.765 0.0185,0.4976 0.0123,1.8547 -0.3232,2.1938l-1.3698 1.1476 1.473 -0.8495c0.0918,0.5122 -0.0918,2.1684 -0.1035,2.8398 -0.0084,0.4824 -0.0201,0.965 -0.0276,1.4473 -0.0119,0.7728 0.0809,0.5935 0.3537,1.1921l0.1388 -0.0845c-0.0705,-1.0664 0.0968,-1.4154 0.8573,-2.4451 0.0801,-0.1084 0.8577,-0.523 0.8631,-0.5245l0.5277 -0.1784 1.4547 0.759 0.3152 1.4167 0.4611 -0.2038c-0.023,-0.7649 -0.6165,-2.5313 -0.6435,-2.7354l0.0265 -0.9713 -0.1975 0.2976c-0.0979,-0.1789 -0.2717,-0.9932 -0.4012,-1.3204l-0.6348 -1.111c0.0035,0.2722 0.4475,1.6858 0.5489,2.0998l0.4392 2.26c-0.2842,-0.0493 -0.4379,-0.3345 -0.683,-0.4988l-0.7658 -0.4471 -0.8404 0.5281 0.9629 -1.4781 -0.8567 -1.4627 0.7743 -0.6008 -0.7885 -1.5893c0.0229,0.0007 0.057,-0.0227 0.0688,0.0033l0.2169 0.0706c0.4342,0.2432 0.9873,0.7626 1.3165,1.0972 0.4227,0.4298 0.8992,0.9974 1.2462,1.507l2.2617 3.3316c1.4881,-0.6928 3.5503,-2.4466 4.6202,-3.6683 3.9931,-4.5597 5.2819,-9.963 4.4438,-15.9044 -0.1744,-1.2359 -0.2823,-2.5786 -0.2986,-3.8334 -0.1647,-0.2843 -0.0449,-0.5353 -0.0981,-0.9102l-0.3009 -2.4312c-0.0984,-1.0435 -0.126,-2.2381 -0.7132,-3.0553 -0.2299,-0.3046 -0.5233,-0.3377 -0.8873,-0.3522 -0.2586,-0.412 -0.5188,-0.9773 -1.0001,-1.1361 -0.2034,0.2025 0.006,0.0616 -0.2489,0.157l-0.7048 -0.6945c-0.326,-0.1597 -0.8006,-0.1468 -1.0789,0.0548 -0.7928,0.5746 -0.4065,1.2249 -0.4447,2.0289l-0.221 -0.099c-0.187,-0.3652 -1.8704,-1.6299 -2.3095,-1.9334 -4.8698,-3.3654 -11.2986,-3.7603 -16.7101,-1.3639 -0.9477,0.4197 -1.8618,0.9268 -2.7147,1.4998 -0.3385,0.2274 -0.9219,0.6532 -1.207,0.9288 -0.2324,0.2246 -0.8877,0.8973 -1.0632,1.0057l0.0599 -1.1324z"/>
  <path class="fil8" d="M34.1973 3.3118c4.5552,-0.1541 9.0311,0.7205 13.2105,2.5364 3.7884,1.6459 6.4748,3.5902 9.5243,6.325 5.8033,5.2046 9.6557,14.2169 9.7248,21.9631 0.0418,4.6908 -0.5949,9.053 -2.4607,13.3879 -4.9587,11.5209 -15.7938,18.8678 -28.3395,19.1749 -17.6997,0.4333 -32.1292,-13.0991 -32.5327,-30.8336 -0.1088,-4.7811 0.7861,-8.929 2.5182,-13.3529 1.3829,-3.5322 3.732,-6.7843 6.299,-9.5446 5.6431,-6.068 13.8277,-9.378 22.0561,-9.6562zm-0.7591 -0.7707c-8.6677,0.396 -16.2488,4.0492 -22.2419,10.2375 -6.0657,6.2632 -8.9165,15.2349 -8.6353,23.8432 0.1454,4.451 1.3193,8.9312 3.2882,12.9194 1.8218,3.6902 3.9754,6.4934 6.9332,9.3319 6.2453,5.9933 15.2306,8.9729 23.8106,8.5877 18.0218,-0.8093 31.8573,-15.9958 30.8091,-34.0473 -1.0422,-17.9488 -15.9228,-31.6965 -33.9639,-30.8724z"/>
  <path class="fil8" d="M33.471 42.2757c0.8361,-0.4839 2.2559,-0.5357 3.0431,0.0394 -0.0748,0.6602 -0.9003,1.0627 -1.5437,1.0437 -0.8459,-0.0248 -1.1581,-0.4738 -1.4994,-1.0831zm3.1523 -0.1297c-0.2535,-0.1025 -0.7982,-0.5043 -1.5862,-0.4547l-1.8057 0.2506 -0.0825 -0.5324c0.5001,-0.0766 0.5162,0.0117 1.0226,-0.1586l0.7106 -0.4803c0.4271,0.011 0.4921,0.2068 0.8882,0.4207l1.1142 0.1829c-0.0001,0.2876 -0.1056,0.5489 -0.2612,0.7718zm-1.449 -2.9778c1.5417,-0.5581 1.0626,-1.6471 -0.2071,-1.632 -1.3415,0.016 -1.5918,1.2239 -0.1672,1.6558 0.1083,0.8799 -0.2249,1.5167 -1.4885,1.6419 -0.4303,-0.032 -0.82,-0.1887 -1.1358,-0.4582 -0.6408,-0.5471 -0.4283,-0.881 -0.467,-1.1241 -0.2997,0.2738 -0.9987,0.8625 -0.984,1.2702l0.6705 -0.4003 0.5116 0.5916c0.1946,0.1701 0.479,0.2882 0.6637,0.4394l1.0409 2.0595c0.4351,0.5833 2.6877,1.4245 3.6328,-1.4165 0.2432,-0.7314 -0.0364,-0.4786 0.6071,-0.9149 0.3125,-0.2118 0.5026,-0.5134 0.7137,-0.8187l0.8087 0.4756 -0.7474 -1.322 -0.3366 0.0269 -0.4807 1.114c-0.3214,0.283 -0.6804,0.4523 -1.1158,0.485 -1.0623,0.0797 -1.5997,-0.673 -1.5189,-1.6732z"/>
  <path class="fil8" d="M29.5813 34.6133c-2.5815,0.8384 -1.1816,4.4094 1.0543,3.6665 2.5694,-0.8538 1.1961,-4.3974 -1.0543,-3.6665z"/>
  <path class="fil8" d="M39.3905 34.631c-0.9746,0.2973 -1.6489,1.2816 -1.3166,2.3387 0.3085,0.9815 1.3635,1.6345 2.3968,1.2984 2.4777,-0.8059 1.2919,-4.3604 -1.0802,-3.6371z"/>
  <path class="fil8" d="M25.1038 33.8806l-0.0119 0.0888c1.5444,-0.9884 2.3699,-1.6141 4.1259,-2.2657 3.4555,-1.2822 7.5318,-1.2852 11.0182,-0.1633 1.6746,0.5389 2.7674,1.2789 4.24,2.1479l0.0296 -0.1716c-0.9434,-1.0484 -2.8173,-2.0082 -4.1316,-2.4413 -1.8114,-0.597 -3.7753,-0.8927 -5.7511,-0.8623 -2.5767,0.0396 -5.6426,0.7232 -7.7753,2.1484 -0.4598,0.3073 -1.5299,1.118 -1.7438,1.5191z"/>
  <path class="fil8" d="M21.0252 44.3804c0.5418,-0.3106 1.2994,-0.6 1.9502,-0.5805 0.5974,0.0178 1.4783,0.1478 1.937,0.5361 -0.2287,0.9194 -3.5555,0.9744 -3.8872,0.0444zm-0.091 -0.341c0.2553,-0.8802 3.4264,-1.0145 3.9647,-0.1283 -1.2328,-0.3323 -1.7989,-0.493 -3.1422,-0.168 -0.2958,0.0715 -0.6088,0.2528 -0.8225,0.2963zm1.4468 -1.0167c-3.4948,0.5638 -1.6056,2.94 1.2312,2.4505 0.6797,-0.1173 2.3804,-0.7361 1.669,-1.7181 -0.5384,-0.7433 -2.0527,-0.8691 -2.9002,-0.7324z"/>
  <path class="fil8" d="M27.8376 36.8107c-0.2106,-1.1668 0.6948,-2.3887 1.8313,-2.5827 1.2314,-0.2101 2.484,0.5996 2.6767,1.8374 0.1901,1.2212 -0.6472,2.4161 -1.8608,2.6215 -1.2652,0.2142 -2.4256,-0.6485 -2.6472,-1.8762zm0.2973 -1.9035c-0.656,1.0196 -0.8237,1.9159 -0.0952,2.9897 0.5876,0.8662 1.7202,1.3196 2.785,0.9849 2.1337,-0.6707 2.4803,-3.5757 0.3655,-4.6594 -0.7184,-0.2355 -1.0054,-0.3596 -1.8099,-0.1556 -0.66,0.1675 -0.8048,0.5581 -1.2454,0.8404z"/>
  <path class="fil8" d="M37.6546 36.6683c-0.3546,-2.8492 4.1903,-3.4772 4.5449,-0.4562 0.143,1.2181 -0.7939,2.3286 -1.9925,2.4882 -1.2776,0.17 -2.398,-0.7923 -2.5524,-2.032zm1.2621 -2.4613c-0.7183,0.1123 -1.6184,1.2812 -1.5069,2.4829 0.2188,2.3592 3.4616,3.196 4.6956,1.0045 0.8218,-1.4594 0.0557,-2.2635 -0.3499,-2.9958 -0.4342,-0.1734 -0.5856,-0.4948 -1.2304,-0.6563 -0.6371,-0.1596 -1.0282,-0.0724 -1.6084,0.1647z"/>
  <path class="fil9" d="M29.4464 59.1525c-1.1549,4.92 -7.6735,3.7508 -6.791,-1.0241 0.3464,-1.8739 2.0448,-3.2404 3.9775,-3.0872 1.9098,0.1514 3.2665,2.1817 2.8135,4.1113zm6.1007 -2.3044c1.7014,-0.1048 2.9282,-0.3899 4.5714,-0.7152l0.2428 1.7303 -2.4215 0.4751 0.1309 1.0385 2.2198 -0.3137 0.2125 1.6083 -2.1342 0.4706 0.3041 2.6094 -2.3515 0.2539c-0.116,-0.9836 -0.8924,-6.668 -0.7743,-7.1572zm-0.6165 1.5885l-2.4703 -0.1501 -0.1101 1.1461 2.1432 0.2061 -0.2297 1.6988 -2.2875 -0.2207 -0.442 2.5979 -2.3332 -0.3877c-0.0267,-0.3739 1.1034,-6.1511 1.2659,-7.0376 0.2774,-0.0579 1.7047,0.2657 2.1558,0.3092l2.453 0.179c0.0597,0.2945 -0.0976,1.3025 -0.1451,1.659zm8.4257 -1.4966l0.287 0.8407 2.1354 -0.8406 0.5718 1.6664 -2.0853 0.8221 0.3559 0.9456 2.6819 -1.0142 0.5989 1.7163 -4.8463 1.8443c-0.7953,-2.0981 -1.6798,-4.7164 -2.4422,-6.8779 0.7313,-0.2716 1.4521,-0.4759 2.193,-0.7602l2.1579 -0.8863 0.6287 1.6948 -2.2367 0.849zm-21.9007 1.3951l-0.9638 1.7785c-1.05,-0.302 -2.1478,-1.3807 -2.6128,-2.3413 -0.6188,-1.2784 -0.6123,-2.7823 0.258,-3.9408 0.7846,-1.0446 2.0533,-1.7281 3.4091,-1.4285l2.7577 2.275 -1.2566 1.0388c-0.3816,-0.5152 -0.5957,-1.0575 -1.3764,-1.122 -1.3803,-0.114 -2.5956,1.4334 -1.7383,2.7069 0.4839,0.7187 0.9233,0.6837 1.5231,1.0334zm26.7253 -3.9408l0.5028 0.7557 1.9429 -1.3036 1.0049 1.3059 -1.9322 1.3633 0.571 0.8579 2.2033 -1.4643 1.1072 1.3688 -4.2114 2.9542c-0.7831,-1.0081 -3.1624,-4.683 -4.0825,-6.0411l3.8708 -2.559 0.9863 1.3233c-0.4038,0.4759 -1.4613,1.0035 -1.9631,1.4389zm8.2157 -18.7778l2.3922 0.0008 0.7181 -2.2737c0.113,0.0418 0.0276,-0.1352 0.1433,0.145l0.6395 2.1518 2.3132 0.0227 -1.85 1.4405 0.7164 2.331 -1.8918 -1.3865 -1.9583 1.326 0.653 -2.2722c-0.3934,-0.3351 -1.7355,-1.1183 -1.8756,-1.4854zm-44.4473 1.4814l0.69 2.2724 -1.8502 -1.3261 -2.0385 1.3297 0.7179 -2.2719 -1.8694 -1.4788 2.3234 -0.0153 0.7889 -2.2426 0.7993 2.2328 2.312 0.0614c-0.19,0.3555 -1.5035,1.0378 -1.8734,1.4384zm0.8299 -8.5525l-5.1857 -3.4252c0.172,-0.8499 1.3832,-3.2211 2.018,-3.7959 1.3172,-1.1928 2.9088,-0.8334 4.2631,0.0725 1.2756,0.8532 2.0707,2.4338 1.5686,3.973 -0.3284,1.0067 -1.7086,2.7547 -2.664,3.1756zm38.6563 -6.9679c0.5872,0.8172 0.6148,2.0118 0.7132,3.0553l0.3009 2.4312c0.0532,0.3749 -0.0666,0.626 0.0981,0.9102l0.0186 -0.3429c0.3441,0.7244 0.7763,2.1995 0.9803,3.0055 0.8962,3.5426 0.6464,7.3001 -0.4369,10.7646 -1.1242,3.5957 -3.7088,7.3442 -6.8097,9.5117 -3.8127,2.6652 -7.7623,4.0926 -12.4964,3.8026 -2.1438,-0.1314 -4.546,-0.7169 -6.5091,-1.5947l-5.0181 -3.2134 1.5905 0.0077c-0.1917,-0.2209 -0.4897,-0.06 -0.8208,-0.0546 -0.4361,0.0072 -1.8215,-0.109 -2.176,-0.3872l-1.5448 -1.8991 -0.4707 -1.1035c-0.5441,-0.4292 -0.2714,-0.7716 -0.091,-1.2752 -0.4773,-0.1563 -1.6555,-3.0419 -1.8761,-3.6618 -1.2963,-3.6419 -1.4119,-8.5884 -0.1568,-12.2703l0.7226 -2.0437 -0.0187 0.8908c0.1606,-0.2418 0.0988,-1.5311 0.1658,-1.9739 0.0792,-0.5234 0.4072,-3.6651 0.5402,-3.8673l1.2155 -0.9854c0.52,-0.6328 -0.2289,-0.4993 1.4104,-0.9936 0.225,-0.5488 0.5055,-0.8696 1.1805,-0.7848 0.7329,0.0921 0.6923,0.6288 0.9582,1.0353l-0.0057 -0.2564c1.0862,-1.2174 3.5616,-2.4681 5.0859,-3.1244 2.054,-0.8842 4.6499,-1.3699 6.9131,-1.3812 5.5279,-0.0275 7.6389,1.7632 12.0293,4.502 0.0033,0.236 -0.0294,0.4653 -0.0143,0.6972 0.0041,0.0631 0.0484,0.2872 0.0486,0.2939 0.0085,0.3916 0.0589,0.1382 -0.1123,0.2643l0.221 0.099c0.0382,-0.804 -0.3481,-1.4543 0.4447,-2.0289 0.2783,-0.2016 0.7529,-0.2145 1.0788,-0.0548l0.7049 0.6946c0.2549,-0.0955 0.0455,0.0518 0.2489,-0.1508l0.2036 0.0915 0.7776 1.0143 0.9062 0.3762zm-34.2475 -3.2676c2.1262,0.1391 1.2914,0.0067 3.451,0.5253l-1.3686 1.8189c-0.3776,-0.0608 -0.895,-0.2805 -1.3208,-0.3703l-1.6161 -0.1446c0.0487,0.3874 1.3876,1.5318 1.7402,1.8759l-1.4309 1.7102 -5.3485 -5.1533c0.1595,-0.5407 1.9557,-2.5445 3.0134,-2.8949 0.796,-0.2636 1.6661,-0.1725 2.2731,0.3945 0.7604,0.7102 0.6954,1.2743 0.6072,2.2383zm29.9066 -3.2571l-1.1713 1.9202 -1.8704 -1.0232 3.7543 -6.5195c0.4122,0.0593 1.9921,1.0932 2.4246,1.3824 0.8993,0.6012 1.5526,1.247 1.4602,2.4493 -0.1101,1.4345 -1.4155,2.8099 -3.1758,2.3789 -0.5194,-0.1271 -1.0981,-0.5311 -1.4216,-0.5881zm-4.9599 -2.0626l-0.6111 1.9278 -2.1846 -0.5171 2.1823 -7.264c0.4384,0.0078 2.4882,0.6177 2.9572,0.8141 2.8326,1.1866 2.0089,5.1694 -0.6888,5.2987 -0.7667,0.0368 -1.0254,-0.1915 -1.655,-0.2595zm-2.3468 -2.0053c-0.8843,4.7868 -7.6254,3.6602 -6.7164,-1.6341 0.3331,-1.9403 2.1266,-3.3076 4.1884,-2.8529 1.9836,0.4375 2.886,2.5495 2.528,4.487zm-13.9181 2.516l1.0169 1.813c-1.4122,1.3418 -5.0923,2.4439 -6.5329,-0.8091 -1.4145,-3.1942 0.5137,-5.0172 3.4474,-5.7963l0.5618 1.9971c-0.7435,0.0404 -1.317,0.1214 -1.7876,0.7727 -0.4216,0.5836 -0.3847,1.4305 -0.0718,2.0473 0.5181,1.021 1.7582,1.2053 2.6717,0.6196 0.3779,-0.2423 0.4664,-0.4901 0.6945,-0.6443zm3.1854 -6.5637l2.2893 -0.3951c0.2326,1.2234 0.5805,2.4477 0.827,3.6732l0.8171 3.6762 -2.2391 0.3463 -0.6731 -2.7283 -1.253 0.2896 0.6757 2.7455 -2.1886 0.5805 -1.8553 -7.2471 2.0857 -0.4984 0.7565 2.5204 1.3126 -0.3603c-0.0173,-0.792 -0.5533,-1.8624 -0.5548,-2.6025zm-24.4046 29.7509c0.8657,17.1415 14.9241,29.6671 32.0297,28.8693 16.9674,-0.7914 29.6944,-15.3724 28.6549,-32.2357 -0.5,-8.1115 -3.8308,-15.1592 -9.7612,-20.686 -5.8992,-5.4978 -14.1236,-8.6429 -22.2017,-8.1414 -17.0215,1.0568 -29.5822,15.1552 -28.7217,32.1938z"/>
  <path class="fil9" d="M33.0835 3.6411c17.0096,-1.1094 32.293,12.4153 33.1605,29.4612 0.4372,8.5901 -2.1579,16.9273 -8.0875,23.2606 -5.7019,6.0901 -12.8732,9.5313 -21.2336,10.0302 -4.4692,0.2666 -9.3472,-0.4633 -13.5297,-2.0774 -11.2789,-4.3527 -19.0955,-15.2235 -19.6398,-27.3473 -0.3831,-8.5335 2.2386,-16.936 8.1241,-23.232 5.6764,-6.0722 12.8738,-9.5519 21.206,-10.0953zm1.1138 -0.3293c-8.2284,0.2782 -16.413,3.5882 -22.0561,9.6562 -2.567,2.7603 -4.9161,6.0124 -6.299,9.5446 -1.7321,4.4239 -2.627,8.5718 -2.5182,13.3529 0.4035,17.7345 14.833,31.2669 32.5327,30.8336 12.5457,-0.3071 23.3808,-7.654 28.3395,-19.1749 1.8658,-4.3349 2.5025,-8.6971 2.4607,-13.3879 -0.0691,-7.7462 -3.9215,-16.7585 -9.7248,-21.9631 -3.0495,-2.7348 -5.7359,-4.6791 -9.5243,-6.325 -4.1794,-1.8159 -8.6553,-2.6905 -13.2105,-2.5364z"/>
  <path class="fil9" d="M36.2317 8.4408c-1.303,0.5668 -0.9893,4.136 0.3802,3.5707 1.2217,-0.5044 1.0195,-4.1795 -0.3802,-3.5707z"/>
  <path class="fil9" d="M9.9072 23.7331c0.2985,0.3245 2.7283,2.0131 3.0874,2.074 0.7313,-0.9629 0.4325,-1.9129 -0.5736,-2.4754 -1.0592,-0.5921 -1.8424,-0.723 -2.5138,0.4014z"/>
  <path class="fil9" d="M26.1693 57.1566c-1.6114,0.6296 -1.7017,3.6399 -0.2323,3.0327 1.3223,-0.5464 1.8369,-3.6595 0.2323,-3.0327z"/>
  <path class="fil9" d="M42.6888 11.2522c1.4312,0.4877 1.8544,-1.6457 0.4764,-1.7422 -0.1465,0.2696 -0.513,1.4593 -0.4764,1.7422z"/>
  <path class="fil9" d="M13.9665 18.2181c0.1806,0.3346 0.7371,0.8791 1.0839,1.0644 0.43,-0.2884 0.489,-1.0922 0.1355,-1.473 -0.4536,-0.4884 -1.0466,-0.1407 -1.2194,0.4086z"/>
  <path class="fil9" d="M48.0528 13.6686c1.0821,0.6344 2.0311,-0.9212 0.8371,-1.5539 -0.2425,0.2168 -0.8673,1.212 -0.8371,1.5539z"/>
  <path class="fil10" d="M24.0908 31.5985c0.2323,-0.0748 0.4909,-0.5401 0.6962,-0.7496 0.7333,-0.7489 1.6133,-1.284 2.5001,-1.9042 0.0004,-0.7999 -0.6932,-1.4081 -0.2307,-4.0302 0.6015,-3.4096 4.0944,-6.1138 7.9111,-6.1131 3.6566,0.0007 7.1341,2.4121 7.8953,6.0668 0.3524,1.6916 0.0853,2.4576 -0.2234,4.0752 0.1873,0.248 1.7363,1.0323 2.5179,1.8957l0.6925 0.7768c0.4572,-0.2422 0.7444,-1.8982 0.8012,-2.4051 0.8607,-7.6863 -8.5238,-14.2585 -17.0102,-10.2606 -2.9197,1.3755 -5.3042,3.9093 -6.1497,7.0799 -0.245,0.9188 -0.3085,2.1183 -0.215,3.0611 0.0555,0.5593 0.2745,2.2637 0.8147,2.5073z"/>
  <path class="fil11" d="M25.2976 36.6908c0.5537,-0.3373 1.307,-1.0588 2.0809,-1.4624l0.5561 -0.3523c0.3277,-0.1461 0.1133,-0.0678 0.2003,0.0311 0.4406,-0.2823 0.5854,-0.6729 1.2454,-0.8404 0.8045,-0.204 1.0915,-0.0799 1.8099,0.1556l-0.132 -0.1487c1.0199,-0.5322 4.5676,-0.4971 6.0391,-0.33l1.632 0.2665c0.193,0.103 0.0656,-0.0009 0.1874,0.1968 0.5802,-0.2371 0.9713,-0.3243 1.6084,-0.1647 0.6448,0.1615 0.7962,0.4829 1.2304,0.6563 0.0519,-0.0929 0.1334,0.0699 0.3229,0.1821 0.6368,0.3769 1.6086,0.9177 2.1543,1.3612 0.6555,0.5327 0.3853,0.2489 0.3535,1.0643 0.1842,-0.2304 0.1685,-0.5217 0.1081,-0.8211 -0.0613,-0.3041 -0.0746,-0.4174 -0.2544,-0.6532 -0.2754,-0.361 -0.5599,-0.6404 -0.8847,-0.9767 -0.4925,-0.51 -1.5242,-1.187 -2.1891,-1.5375 -3.4758,-1.8326 -8.7119,-1.945 -12.2498,-0.2799 -1.2489,0.5878 -2.3373,1.3319 -3.2194,2.3673 -0.469,0.5505 -0.633,0.4171 -0.5993,1.2857z"/>
  <path class="fil12" d="M33.0013 53.6595c1.0364,0.2495 3.025,0.1298 4.1126,0.0011 -0.2728,-0.5986 -0.3656,-0.4193 -0.3537,-1.1921 0.0075,-0.4823 0.0192,-0.9649 0.0276,-1.4473 0.0117,-0.6714 0.1953,-2.3276 0.1035,-2.8398l-1.473 0.8495 1.3698 -1.1476c0.3355,-0.3391 0.3417,-1.6962 0.3232,-2.1938 -0.4096,0.6232 -0.1494,0.2808 -0.3765,0.765 -0.2817,0.6007 -1.0172,1.6297 -1.7869,1.4073 -1.6834,-0.4866 -1.7464,-2.1034 -2.0764,-2.2495l0.2905 3.9906c0.0474,0.4782 0.1554,2.7336 0.0733,3.2003 -0.0447,0.2544 -0.1706,0.5687 -0.234,0.8563z"/>
  <path class="fil13" d="M25.1038 33.8806c-0.3299,0.1456 -0.268,0.2867 -0.6103,0.329l0.6219 1.3257c0.4257,-0.3138 1.4226,-2.039 3.9847,-3.0632 3.8919,-1.5557 7.8324,-1.5938 11.7309,0.008 0.7528,0.3094 1.6136,0.8047 2.22,1.2947 0.9848,0.7957 0.9534,0.8037 1.8372,1.6986 0.3606,-0.4123 0.5711,-1.0685 0.6639,-1.6365 -0.2893,0.1532 -0.0845,0.0805 -0.3099,0.3232 -0.3182,-0.1982 -0.2565,-0.4671 -0.7366,-0.6434l-0.0296 0.1716c-1.4726,-0.869 -2.5654,-1.609 -4.24,-2.1479 -3.4864,-1.1219 -7.5627,-1.1189 -11.0182,0.1633 -1.756,0.6516 -2.5815,1.2773 -4.1259,2.2657l0.0119 -0.0888z"/>
  <path class="fil14" d="M21.0252 44.3804c0.3317,0.93 3.6585,0.875 3.8872,-0.0444 -0.4587,-0.3883 -1.3396,-0.5183 -1.937,-0.5361 -0.6508,-0.0195 -1.4084,0.2699 -1.9502,0.5805z"/>
  <path class="fil15" d="M33.4711 42.2757c0.3412,0.6093 0.6534,1.0582 1.4993,1.0832 0.6434,0.0189 1.469,-0.3835 1.5437,-1.0439 -0.7871,-0.575 -2.207,-0.5232 -3.043,-0.0393z"/>
  <path class="fil16" d="M36.6232 42.146c0.1557,-0.2229 0.2612,-0.4842 0.2613,-0.7719l-1.1142 -0.1828c-0.3961,-0.2139 -0.4611,-0.4097 -0.8881,-0.4208l-0.7107 0.4803c-0.5064,0.1704 -0.5225,0.0822 -1.0226,0.1587l0.0825 0.5325 1.8057 -0.2507c0.788,-0.0496 1.3327,0.3522 1.5861,0.4547z"/>
  <path class="fil17" d="M19.191 44.8854l0.6063 -0.1565 -0.0027 -0.6004c-0.286,0.032 -0.5919,0.4297 -0.6036,0.7569z"/>
  <path class="fil18" d="M34.4365 27.1955l1.0484 0.0198c-0.0708,-0.1822 -0.3369,-0.3816 -0.5443,-0.4777l-0.5041 0.4579z"/>
  <path class="fil7" d="M54.3707 16.1532c0.5507,0.3716 1.3346,1.256 1.8991,1.5224l1.0219 -1.296 -3.4759 -3.0739c-1.0728,1.2411 -4.0042,4.4926 -4.7744,5.5106l3.9459 3.3002 1.0346 -1.4245 -1.986 -1.7477 0.6803 -0.7741 1.8181 1.5121 1.0003 -1.3093 -1.7633 -1.538 0.5994 -0.6818z"/>
  <path class="fil7" d="M58.7839 22.4748c0.5115,0.2644 0.7524,0.9083 0.1935,1.2714 -0.4358,0.283 -1.2175,0.0871 -1.428,-0.386 0.242,-0.3099 0.8738,-0.7649 1.2345,-0.8854zm-0.6427 3.1581c0.9346,0.2521 1.4792,0.413 2.3092,-0.2145 0.6626,-0.5009 0.9016,-1.3425 0.7783,-2.1718 -0.1638,-1.1021 -1.8299,-3.2153 -2.3353,-3.4651l-5.9941 4.3859 1.4396 1.7028c0.3995,-0.2883 1.7566,-1.4112 2.1465,-1.3928l-0.4195 1.5674c-0.1615,0.4041 -0.4667,0.8761 -0.5912,1.2378l1.5573 1.6602c0.8812,-2.0388 0.6077,-1.2389 1.1092,-3.3099z"/>
  <path class="fil19" d="M9.9224 43.8354c-0.0136,0.0261 -0.037,0.0529 -0.0703,0.0803 -0.0334,0.0274 -0.0705,0.0532 -0.1112,0.0776 -0.0408,0.0243 -0.0821,0.0449 -0.1241,0.0616 -0.042,0.0167 -0.077,0.0279 -0.1053,0.0337 -0.0135,0.0016 -0.0278,0.0031 -0.0426,0.0043 -0.0148,0.0011 -0.0284,-0.0009 -0.0408,-0.0058 -0.0147,-0.0061 -0.0304,-0.0189 -0.0468,-0.0384 -0.0165,-0.0197 -0.0315,-0.0419 -0.045,-0.0668 -0.0136,-0.025 -0.0266,-0.0495 -0.039,-0.0739 -0.0123,-0.0245 -0.0214,-0.0435 -0.0273,-0.0574 -0.0227,-0.0007 -0.0445,0.001 -0.0654,0.0046 -0.0209,0.0037 -0.0416,0.0079 -0.0622,0.0125 -0.0786,0.0169 -0.155,0.0414 -0.2291,0.0738 -0.0742,0.0323 -0.1455,0.0691 -0.2139,0.1102 0.0015,0.0035 0.0034,0.0129 0.0058,0.0282 0.0024,0.0154 0.0043,0.0248 0.0058,0.0283 0.0041,0.0145 0.0098,0.034 0.0171,0.0586 0.0073,0.0245 0.0138,0.0498 0.0198,0.0759 0.0059,0.0261 0.01,0.0514 0.0122,0.076 0.0023,0.0246 0,0.0434 -0.0068,0.0565 -0.0057,0.0106 -0.0148,0.0215 -0.0274,0.033 -0.0125,0.0114 -0.0265,0.022 -0.0418,0.0315 -0.0154,0.0095 -0.0307,0.018 -0.0459,0.0255 -0.0153,0.0075 -0.0285,0.0125 -0.0396,0.0152 -0.0403,0.0109 -0.0801,0.0231 -0.1193,0.0366 -0.0392,0.0135 -0.08,0.021 -0.1222,0.0225 -0.0195,0.0022 -0.0394,0.0023 -0.0595,0.0006 -0.0201,-0.0017 -0.0392,-0.0069 -0.0572,-0.0157 -0.0296,-0.0119 -0.053,-0.0337 -0.0704,-0.0651 -0.0186,-0.0392 -0.0299,-0.0804 -0.0339,-0.1236 -0.0039,-0.0433 -0.0079,-0.0865 -0.0119,-0.1298 -0.0024,-0.0154 -0.0048,-0.044 -0.0072,-0.0858 -0.0023,-0.042 -0.0055,-0.0895 -0.0097,-0.1429 -0.0042,-0.0534 -0.008,-0.1095 -0.0114,-0.1683 -0.0034,-0.0589 -0.0067,-0.1151 -0.01,-0.1689 -0.0033,-0.0537 -0.006,-0.1011 -0.008,-0.1422 -0.002,-0.041 -0.0033,-0.0696 -0.004,-0.0856 -0.003,-0.0988 -0.0041,-0.1969 -0.0033,-0.2943 0.0007,-0.0972 0.0039,-0.1951 0.0093,-0.2934 0.0004,-0.0185 0.0007,-0.037 0.001,-0.0556 0.0003,-0.0185 0.002,-0.0365 0.0048,-0.054 0.0041,-0.0385 0.0095,-0.0766 0.0162,-0.1141 0.0066,-0.0375 0.0186,-0.0743 0.0361,-0.1102 0.0219,-0.0399 0.0534,-0.0732 0.0943,-0.0996 0.0408,-0.0264 0.082,-0.0464 0.1233,-0.0598 0.0087,-0.0036 0.0255,-0.0097 0.0505,-0.0183 0.025,-0.0085 0.0513,-0.0175 0.0789,-0.0271 0.0276,-0.0096 0.0537,-0.0181 0.0781,-0.0254 0.0245,-0.0073 0.0415,-0.0119 0.0509,-0.0138 0.0205,-0.0046 0.0414,-0.0084 0.0627,-0.0112 0.0212,-0.0029 0.0417,-0.0002 0.0614,0.0077 0.0257,0.0076 0.0487,0.0209 0.0689,0.0399 0.0203,0.019 0.0399,0.0388 0.0588,0.0594 0.004,0.0045 0.0126,0.0152 0.0258,0.0321 0.0132,0.0168 0.0281,0.035 0.0446,0.0546 0.0164,0.0197 0.0313,0.0378 0.0445,0.0547 0.0133,0.0169 0.0218,0.0276 0.0258,0.032 0.0511,0.0581 0.101,0.1172 0.1499,0.1773 0.0489,0.06 0.0966,0.121 0.1432,0.183 0.0498,0.0648 0.0978,0.1287 0.1439,0.192 0.0461,0.0632 0.096,0.1243 0.1495,0.1835 0.0117,0.0134 0.0325,0.0383 0.0622,0.0748 0.0297,0.0364 0.0614,0.0751 0.0951,0.116 0.0335,0.041 0.0644,0.0801 0.0924,0.1173 0.0279,0.0371 0.0469,0.0629 0.0569,0.077 0.0015,0.0035 0.003,0.008 0.0042,0.0135 0.0014,0.0055 0.0027,0.0101 0.0042,0.0136 0.0145,0.0245 0.0238,0.0528 0.0282,0.0846 0.0042,0.0319 -0.0003,0.0609 -0.0138,0.087zm-1.2864 -0.195c0.0686,-0.0309 0.138,-0.0587 0.2083,-0.0833 0.0703,-0.0246 0.1407,-0.0477 0.2112,-0.0694 -0.0673,-0.1062 -0.1392,-0.2086 -0.2155,-0.3072 -0.0763,-0.0985 -0.1558,-0.1945 -0.2383,-0.2884 -0.0063,0.1252 -0.0056,0.2501 0.0019,0.3744 0.0077,0.1245 0.0184,0.2491 0.0324,0.3739zm1.8663 -0.0131c-0.0466,0.0298 -0.0954,0.0545 -0.1464,0.074 -0.051,0.0195 -0.1035,0.0355 -0.1574,0.0481 -0.0222,0.0054 -0.0451,0.0094 -0.0685,0.0121 -0.0232,0.0027 -0.0452,-0.0008 -0.0656,-0.0106 -0.0198,-0.0079 -0.0348,-0.022 -0.0454,-0.0421 -0.0105,-0.02 -0.0207,-0.0392 -0.0305,-0.0575 -0.0504,-0.0952 -0.0961,-0.1913 -0.1371,-0.2883 -0.041,-0.0971 -0.0814,-0.1954 -0.1214,-0.2949 -0.0464,-0.1194 -0.0921,-0.2374 -0.1374,-0.354 -0.0452,-0.1169 -0.0892,-0.2356 -0.132,-0.3563 -0.0107,-0.0303 -0.0221,-0.0607 -0.0341,-0.0914 -0.0119,-0.0307 -0.0241,-0.0608 -0.0366,-0.0903 -0.0029,-0.0069 -0.0064,-0.0177 -0.0106,-0.0322 -0.0041,-0.0146 -0.0081,-0.0303 -0.0121,-0.047 -0.004,-0.0166 -0.0076,-0.0325 -0.0108,-0.0475 -0.0033,-0.0149 -0.0043,-0.0258 -0.0031,-0.0324 0.0002,-0.0287 0.0103,-0.0543 0.0303,-0.0771 0.02,-0.0228 0.041,-0.0419 0.0631,-0.0573 0.0466,-0.0299 0.0959,-0.0558 0.1479,-0.0778 0.052,-0.022 0.1051,-0.0413 0.1593,-0.0581 0.0292,-0.0083 0.0587,-0.0145 0.0885,-0.019 0.0297,-0.0044 0.0601,-0.004 0.0909,0.0015 0.034,0.008 0.069,0.0228 0.1046,0.0446 0.0429,0.0288 0.0837,0.0591 0.1226,0.0906 0.0389,0.0317 0.0789,0.0622 0.12,0.0919 0.1141,0.0866 0.2299,0.1684 0.3472,0.2454 0.1174,0.0771 0.2389,0.1483 0.3645,0.2137 -0.0379,-0.08 -0.076,-0.1594 -0.1144,-0.2382 -0.0384,-0.0787 -0.0777,-0.1586 -0.118,-0.2396 -0.0233,-0.0453 -0.0465,-0.0907 -0.0698,-0.136 -0.0232,-0.0453 -0.0456,-0.091 -0.0671,-0.1371 -0.0095,-0.0225 -0.0183,-0.0459 -0.0265,-0.07 -0.0081,-0.0241 -0.0122,-0.0484 -0.0123,-0.0728 -0.0016,-0.0423 0.0121,-0.0777 0.0409,-0.1062 0.0198,-0.0207 0.0422,-0.0377 0.0671,-0.0514 0.025,-0.0136 0.0504,-0.0258 0.0764,-0.0368 0.0139,-0.0059 0.033,-0.0149 0.0574,-0.0273 0.0244,-0.0124 0.0502,-0.0238 0.0775,-0.0342 0.0271,-0.0105 0.0538,-0.0188 0.0799,-0.0247 0.0262,-0.0058 0.0462,-0.0067 0.0603,-0.0024 0.0214,0.0073 0.0426,0.0248 0.0636,0.0528 0.0209,0.0279 0.0409,0.0592 0.0597,0.0943 0.0189,0.0349 0.0356,0.0696 0.0503,0.1043 0.0146,0.0347 0.0263,0.0624 0.0351,0.0832 0.0883,0.1996 0.1747,0.399 0.2589,0.5983 0.0842,0.1994 0.1644,0.4014 0.2406,0.6061 0.0071,0.0215 0.0162,0.0432 0.0275,0.065 0.0113,0.0217 0.0195,0.0439 0.0249,0.066 0.0045,0.0206 0.0061,0.0424 0.0046,0.0655 -0.0014,0.0231 -0.0074,0.044 -0.0179,0.0627 -0.0104,0.0187 -0.0257,0.0348 -0.0455,0.0483 -0.0198,0.0135 -0.0396,0.0235 -0.0594,0.0298 -0.0035,0.0014 -0.0106,0.0039 -0.0214,0.0075 -0.0108,0.0034 -0.0217,0.0076 -0.033,0.0124 -0.0113,0.0048 -0.0221,0.0093 -0.0324,0.0137 -0.0105,0.0044 -0.0175,0.0074 -0.0209,0.0088 -0.0284,0.01 -0.0573,0.018 -0.0863,0.0242 -0.0291,0.0061 -0.0582,0.0082 -0.0877,0.0063 -0.0261,0.0009 -0.0518,-0.0031 -0.077,-0.0118 -0.0252,-0.0088 -0.0495,-0.0194 -0.0732,-0.0319 -0.0508,-0.0235 -0.0994,-0.0505 -0.1459,-0.0809 -0.0466,-0.0303 -0.0934,-0.0601 -0.1404,-0.0892 -0.1301,-0.0758 -0.261,-0.1476 -0.3928,-0.2155 -0.1318,-0.0679 -0.265,-0.1377 -0.3995,-0.2096 0.0081,0.019 0.022,0.051 0.0419,0.0956 0.0199,0.0447 0.0426,0.0959 0.068,0.1536 0.0253,0.0577 0.0522,0.1189 0.0805,0.1835 0.0284,0.0646 0.0552,0.1258 0.0806,0.1834 0.0254,0.0578 0.0472,0.1094 0.0654,0.1548 0.0181,0.0454 0.0312,0.0777 0.0393,0.0967 0.0094,0.0225 0.0169,0.046 0.0221,0.0704 0.0051,0.0243 0.0041,0.0472 -0.0031,0.0687 -0.0061,0.0147 -0.0154,0.0279 -0.0279,0.0393 -0.0126,0.0114 -0.0259,0.0221 -0.04,0.0323zm2.6015 -1.0867c-0.09,0.0624 -0.1897,0.1102 -0.2994,0.1433 -0.1096,0.0329 -0.2198,0.0515 -0.3304,0.0553 -0.0735,0.0003 -0.1469,-0.008 -0.2205,-0.0249 -0.0734,-0.0169 -0.1428,-0.0422 -0.2081,-0.0759 -0.053,-0.0287 -0.1031,-0.0627 -0.1503,-0.102 -0.0472,-0.0392 -0.091,-0.0821 -0.131,-0.1285 -0.0532,-0.0632 -0.0998,-0.1325 -0.1396,-0.2075 -0.04,-0.075 -0.0703,-0.1542 -0.0911,-0.2372 -0.0318,-0.1235 -0.0441,-0.2505 -0.0369,-0.3812 0.0071,-0.1307 0.0318,-0.2571 0.0742,-0.3791 0.0229,-0.0668 0.0558,-0.1303 0.0988,-0.1903 0.043,-0.0601 0.0934,-0.1115 0.1509,-0.1542 0.0702,-0.0561 0.1461,-0.104 0.2274,-0.1435 0.0814,-0.0395 0.1657,-0.0694 0.253,-0.09 0.0487,-0.0104 0.098,-0.0195 0.1478,-0.0272 0.0499,-0.0078 0.0999,-0.0101 0.1503,-0.0068 0.0319,0.0028 0.063,0.0076 0.0934,0.0142 0.0303,0.0065 0.0597,0.0171 0.0883,0.0316 0.0529,0.0287 0.0963,0.0706 0.1298,0.1259 0.0181,0.0332 0.031,0.0696 0.0385,0.1093 0.0077,0.0397 0.0081,0.0783 0.0015,0.1158 -0.0047,0.0327 -0.0129,0.0663 -0.0248,0.1009 -0.0119,0.0347 -0.0283,0.066 -0.0491,0.0942 -0.0208,0.0282 -0.0446,0.0515 -0.0715,0.0701 -0.0269,0.0185 -0.0567,0.0275 -0.0896,0.0271 -0.0346,0.0004 -0.0685,-0.0063 -0.1018,-0.0198 -0.0333,-0.0135 -0.0672,-0.0273 -0.1017,-0.0413 -0.0346,-0.014 -0.0712,-0.0246 -0.1099,-0.0317 -0.0387,-0.0071 -0.0773,-0.0077 -0.1156,-0.0017 -0.0247,0.0043 -0.0495,0.0122 -0.0743,0.0237 -0.0247,0.0115 -0.0458,0.0281 -0.0633,0.0497 -0.0163,0.0191 -0.0285,0.0412 -0.0364,0.0659 -0.0079,0.0249 -0.0123,0.0507 -0.0132,0.0776 -0.0024,0.0378 0.0019,0.0758 0.013,0.114 0.011,0.0383 0.0233,0.0759 0.037,0.1131 0.0307,0.0728 0.0629,0.1454 0.0966,0.218 0.0338,0.0726 0.0721,0.1427 0.115,0.2104 0.0166,0.0296 0.0385,0.0572 0.0655,0.0826 0.027,0.0253 0.0567,0.0424 0.089,0.0512 0.0292,0.0061 0.0593,0.0036 0.0903,-0.0075 0.031,-0.0111 0.0566,-0.027 0.0764,-0.0476 0.0154,-0.0167 0.0267,-0.0347 0.0338,-0.0541 0.0072,-0.0193 0.0139,-0.0386 0.0201,-0.0575 0.0024,-0.0091 0.0052,-0.018 0.0087,-0.0267 0.0035,-0.0086 0.0052,-0.018 0.005,-0.0281 0.0013,-0.0067 -0.0021,-0.0205 -0.01,-0.0418 -0.0079,-0.0211 -0.0125,-0.0355 -0.0136,-0.0431 -0.0023,-0.0053 -0.0053,-0.0137 -0.0092,-0.0254 -0.0038,-0.0116 -0.0083,-0.0184 -0.0132,-0.0203 -0.0025,-0.001 -0.0054,-0.0009 -0.0089,0.0006 -0.0034,0.0014 -0.0061,0.0026 -0.0079,0.0033 -0.0189,0.008 -0.0364,0.0175 -0.0523,0.0283 -0.0159,0.0107 -0.0337,0.0193 -0.0535,0.0256 -0.0112,0.0027 -0.0229,0.0041 -0.0351,0.0041 -0.0121,0 -0.0235,-0.0027 -0.0342,-0.0084 -0.0074,-0.0031 -0.0153,-0.0109 -0.0238,-0.0238 -0.0084,-0.0127 -0.0172,-0.0263 -0.0264,-0.0409 -0.0093,-0.0144 -0.0171,-0.0285 -0.0239,-0.0419 -0.0067,-0.0136 -0.0119,-0.0246 -0.0156,-0.0333 -0.0105,-0.02 -0.0184,-0.0422 -0.0236,-0.0666 -0.0052,-0.0244 -0.0028,-0.0468 0.0069,-0.0673 0.0128,-0.0279 0.0345,-0.0513 0.0652,-0.0704 0.037,-0.0238 0.0753,-0.0441 0.1152,-0.061 0.0399,-0.0168 0.0793,-0.0345 0.1185,-0.0531 0.0529,-0.0244 0.1056,-0.0486 0.1577,-0.0727 0.0522,-0.0241 0.1072,-0.0422 0.1654,-0.0545 0.0188,-0.0039 0.0375,-0.0066 0.0562,-0.0084 0.0186,-0.0018 0.0371,-0.0004 0.0554,0.0041 0.0369,0.015 0.0682,0.0407 0.0936,0.0768 0.032,0.0417 0.0593,0.0858 0.082,0.1325 0.0227,0.0465 0.0423,0.0939 0.0586,0.1422 0.0177,0.0517 0.0336,0.1037 0.0475,0.156 0.0139,0.0524 0.0175,0.1044 0.0109,0.1563 -0.0017,0.0007 -0.0028,0.0032 -0.0031,0.0074 -0.0002,0.0042 0,0.0071 0.0008,0.0089 -0.0027,0.0951 -0.0249,0.1852 -0.0666,0.2702 -0.029,0.0571 -0.0659,0.11 -0.1108,0.1586 -0.0448,0.0485 -0.0941,0.0913 -0.148,0.1284zm1.547 -0.675c-0.0238,0.0161 -0.0487,0.0308 -0.0749,0.0439 -0.0261,0.0131 -0.0531,0.0255 -0.0808,0.0372 -0.0302,0.0107 -0.0604,0.0214 -0.0905,0.0322 -0.0302,0.0107 -0.0619,0.0179 -0.0951,0.0217 -0.0356,0.0027 -0.0681,-0.0044 -0.0978,-0.0215 -0.0297,-0.0171 -0.0528,-0.0426 -0.0691,-0.0765 -0.0059,-0.0138 -0.016,-0.0392 -0.0306,-0.0759 -0.0145,-0.0367 -0.0312,-0.0788 -0.0501,-0.1259 -0.0189,-0.0472 -0.038,-0.0973 -0.0574,-0.1504 -0.0194,-0.0531 -0.0385,-0.1032 -0.0574,-0.1503 -0.0188,-0.0472 -0.0356,-0.0892 -0.0501,-0.126 -0.0145,-0.0367 -0.0247,-0.0621 -0.0305,-0.0759 -0.1258,-0.0367 -0.2475,-0.0818 -0.3651,-0.1353 -0.1176,-0.0534 -0.2319,-0.115 -0.3429,-0.1845 -0.0251,-0.016 -0.05,-0.0325 -0.0746,-0.0497 -0.0247,-0.0171 -0.0468,-0.0369 -0.0664,-0.0592 -0.0157,-0.0179 -0.0288,-0.039 -0.039,-0.0632 -0.0103,-0.0243 -0.0151,-0.0478 -0.0145,-0.0705 0.0008,-0.0371 0.0093,-0.0724 0.0258,-0.1059 0.0165,-0.0335 0.0345,-0.0656 0.0542,-0.0964 0.0093,-0.0121 0.0225,-0.029 0.04,-0.0506 0.0173,-0.0216 0.0358,-0.0422 0.0552,-0.0616 0.0193,-0.0194 0.0391,-0.0365 0.0595,-0.0512 0.0203,-0.0147 0.0382,-0.0233 0.0535,-0.0256 0.0272,-0.0034 0.0542,0 0.0809,0.0102 0.0268,0.0101 0.0511,0.0219 0.073,0.0351 0.0131,0.0067 0.0356,0.0201 0.0677,0.0403 0.0319,0.0202 0.0682,0.0432 0.1086,0.069 0.0406,0.0257 0.0835,0.0535 0.1288,0.0834 0.0453,0.03 0.0884,0.0582 0.1293,0.0848 0.0409,0.0267 0.0769,0.0503 0.108,0.0708 0.0312,0.0205 0.0536,0.0351 0.0674,0.0436 0.0188,-0.1101 0.0314,-0.2206 0.0377,-0.3315 0.0062,-0.1109 0.0158,-0.2212 0.0287,-0.3308 0.0024,-0.0234 0.008,-0.0477 0.0167,-0.0729 0.0087,-0.0252 0.0221,-0.0456 0.04,-0.0613 0.0152,-0.0126 0.0374,-0.0214 0.0668,-0.0267 0.0295,-0.0053 0.0609,-0.0084 0.0942,-0.0092 0.0334,-0.0008 0.0653,0 0.096,0.0024 0.0306,0.0023 0.0555,0.0046 0.0748,0.0067 0.0319,0.0029 0.063,0.0102 0.0934,0.0217 0.0305,0.0117 0.0585,0.0285 0.0841,0.0504 0.0287,0.0245 0.0483,0.0561 0.0584,0.0947 0.0065,0.0299 0.0094,0.0599 0.0088,0.0898 -0.0006,0.0299 -0.0028,0.0599 -0.0064,0.0899 -0.0059,0.0537 -0.0144,0.1062 -0.0253,0.1578 -0.0109,0.0516 -0.0226,0.1036 -0.0352,0.1558 -0.0247,0.0963 -0.0513,0.1907 -0.0795,0.2833 -0.0282,0.0927 -0.0585,0.1855 -0.0906,0.2788 0.0139,0.0329 0.0364,0.08 0.0675,0.1415 0.031,0.0615 0.061,0.1264 0.09,0.1948 0.0289,0.0685 0.0526,0.1345 0.0714,0.1982 0.0186,0.0635 0.0243,0.1132 0.0169,0.149 -0.0038,0.02 -0.0126,0.039 -0.0264,0.0571 -0.0138,0.0181 -0.0295,0.0329 -0.0471,0.0444z"/>
  <path class="fil19" d="M56.241 42.5838c-0.0421,-0.007 -0.0831,-0.0176 -0.1231,-0.0317 -0.04,-0.0142 -0.0792,-0.0312 -0.1177,-0.051 -0.0147,-0.008 -0.0284,-0.016 -0.0412,-0.0241 -0.0128,-0.0082 -0.0237,-0.0186 -0.0328,-0.0314 -0.0159,-0.0176 -0.0232,-0.0369 -0.0215,-0.0579 -0.0012,-0.0185 0.0008,-0.037 0.0059,-0.0555 0.0051,-0.0186 0.0113,-0.0363 0.0184,-0.0531 0.0354,-0.0968 0.0726,-0.1924 0.1116,-0.2868 0.0388,-0.0944 0.0802,-0.1891 0.1239,-0.2842 -0.0091,0.0087 -0.0238,0.0233 -0.0441,0.0436 -0.0203,0.0203 -0.0435,0.0434 -0.0697,0.0692 -0.0262,0.0259 -0.0546,0.0536 -0.0851,0.0831 -0.0304,0.0294 -0.0588,0.0571 -0.0851,0.083 -0.0262,0.0259 -0.0498,0.0488 -0.0709,0.0687 -0.0209,0.02 -0.0357,0.0336 -0.0442,0.0409 -0.0154,0.0151 -0.0326,0.029 -0.0514,0.0418 -0.0189,0.0127 -0.039,0.0208 -0.0604,0.0245 -0.0278,0.0063 -0.0554,0.0054 -0.0827,-0.0026 -0.0273,-0.0078 -0.0536,-0.018 -0.079,-0.0306 -0.0031,-0.0013 -0.0092,-0.0047 -0.0185,-0.0105 -0.0093,-0.0057 -0.0155,-0.0092 -0.0186,-0.0104 -0.0245,-0.0104 -0.0477,-0.0225 -0.0699,-0.0364 -0.022,-0.0137 -0.0405,-0.031 -0.0551,-0.0516 -0.0124,-0.0178 -0.0201,-0.0378 -0.0235,-0.0599 -0.0032,-0.0221 -0.0051,-0.0432 -0.0057,-0.0632 -0.0007,-0.0112 -0.0011,-0.0316 -0.0012,-0.0614 0,-0.0298 -0.0003,-0.0632 -0.0008,-0.1003 -0.0005,-0.0372 -0.0005,-0.0769 0.0001,-0.1189 0.0007,-0.0421 0.0011,-0.0815 0.0014,-0.1184 0.0002,-0.0368 0.0001,-0.0698 -0.0003,-0.0988 -0.0004,-0.0289 0.0002,-0.0494 0.0017,-0.0615 -0.0084,0.0199 -0.0246,0.0581 -0.0485,0.1148 -0.0238,0.0566 -0.0492,0.1166 -0.076,0.1801 -0.0268,0.0635 -0.0529,0.1231 -0.0783,0.1792 -0.0254,0.0559 -0.0431,0.0935 -0.053,0.1127 -0.0093,0.0177 -0.0205,0.0356 -0.0335,0.0535 -0.0128,0.0179 -0.0292,0.0309 -0.0487,0.0388 -0.0174,0.0071 -0.0365,0.0085 -0.0572,0.0043 -0.0208,-0.0043 -0.0403,-0.0084 -0.0583,-0.0124 -0.016,-0.0049 -0.0372,-0.0134 -0.0636,-0.0254 -0.0265,-0.0122 -0.0538,-0.0254 -0.0818,-0.04 -0.0282,-0.0146 -0.0536,-0.0299 -0.0766,-0.0459 -0.023,-0.016 -0.0387,-0.0312 -0.047,-0.0454 -0.0044,-0.0109 -0.0076,-0.0227 -0.0096,-0.0352 -0.0019,-0.0126 -0.0021,-0.0248 -0.0007,-0.0368 0.0043,-0.0271 0.0185,-0.0715 0.0428,-0.1334 0.0243,-0.0618 0.0512,-0.1275 0.0805,-0.1971 0.0294,-0.0696 0.0579,-0.1351 0.0855,-0.1964 0.0277,-0.0612 0.0467,-0.1041 0.057,-0.1286 0.0323,-0.0765 0.0634,-0.1522 0.0931,-0.227 0.0298,-0.0748 0.0628,-0.1488 0.099,-0.2217 0.0186,-0.0355 0.0366,-0.0717 0.0539,-0.1084 0.0174,-0.0369 0.0338,-0.0737 0.0493,-0.1103 0.0144,-0.03 0.0293,-0.0589 0.0447,-0.0867 0.0153,-0.0277 0.0365,-0.0503 0.0636,-0.0677 0.02,-0.0131 0.0434,-0.0195 0.0703,-0.0191 0.0268,0.0006 0.0512,0.0046 0.0732,0.0121 0.0093,0.0039 0.0272,0.0115 0.054,0.0228 0.0268,0.0113 0.0559,0.0235 0.0872,0.0368 0.0313,0.0132 0.0604,0.0255 0.0871,0.0367 0.0269,0.0114 0.0448,0.0189 0.054,0.0228 0.0214,0.009 0.0426,0.0207 0.0636,0.035 0.021,0.0143 0.0381,0.0314 0.0513,0.0514 0.009,0.0128 0.0154,0.0276 0.0191,0.0445 0.0037,0.0169 0.0068,0.033 0.0093,0.0485 0.0038,0.0251 0.0054,0.0492 0.0046,0.0723 -0.0007,0.0231 -0.0015,0.0462 -0.0022,0.0693 -0.0027,0.0619 -0.0087,0.1229 -0.0178,0.1831 -0.0092,0.0601 -0.0174,0.1202 -0.0247,0.1802 -0.009,0.0683 -0.0145,0.1366 -0.0164,0.2053 -0.0018,0.0685 -0.0054,0.1368 -0.0107,0.2049 0.004,-0.0055 0.0144,-0.0173 0.0311,-0.0355 0.0167,-0.0182 0.0341,-0.037 0.0523,-0.0564 0.018,-0.0194 0.0352,-0.0378 0.0516,-0.0552 0.0164,-0.0175 0.0277,-0.0293 0.034,-0.0356 0.0208,-0.0237 0.0412,-0.0475 0.0612,-0.0716 0.0201,-0.024 0.0397,-0.0481 0.0589,-0.0724 0.0194,-0.0242 0.0451,-0.0576 0.0774,-0.0999 0.0322,-0.0421 0.0678,-0.0849 0.1067,-0.1279 0.0389,-0.0431 0.0775,-0.0813 0.116,-0.1145 0.0384,-0.0334 0.0722,-0.0529 0.1016,-0.0585 0.022,-0.0052 0.0449,-0.0049 0.0687,0.0005 0.0238,0.0056 0.0468,0.0122 0.0688,0.0196 0.0076,0.0032 0.0226,0.0095 0.0448,0.0189 0.0222,0.0094 0.046,0.019 0.0716,0.0289 0.0255,0.0099 0.0494,0.0195 0.0716,0.0288 0.0222,0.0094 0.0371,0.0157 0.0448,0.0189 0.0244,0.0104 0.0482,0.0223 0.0714,0.0356 0.0232,0.0134 0.0429,0.0307 0.0592,0.052 0.0131,0.02 0.0198,0.0426 0.02,0.0679 0.0001,0.0253 -0.0028,0.0493 -0.0088,0.072 -0.0017,0.0083 -0.007,0.025 -0.0157,0.0501 -0.0088,0.0252 -0.0188,0.052 -0.03,0.0806 -0.0112,0.0287 -0.0212,0.0555 -0.03,0.0807 -0.0088,0.025 -0.0148,0.0415 -0.018,0.0492 -0.0363,0.1072 -0.0771,0.2115 -0.1227,0.3131 -0.0456,0.1015 -0.0895,0.2046 -0.1319,0.3092 -0.0097,0.023 -0.0247,0.0608 -0.0452,0.1134 -0.0204,0.0527 -0.043,0.1085 -0.0679,0.1674 -0.0248,0.0588 -0.0497,0.1137 -0.0748,0.1644 -0.025,0.0507 -0.0458,0.0852 -0.0625,0.1033 -0.0125,0.0128 -0.0283,0.0214 -0.0474,0.0259 -0.0191,0.0047 -0.0377,0.0049 -0.0558,0.0009zm1.6679 0.6661c-0.0248,0.0075 -0.0562,0.0091 -0.094,0.0049 -0.0378,-0.0042 -0.077,-0.0118 -0.1175,-0.0226 -0.0405,-0.0107 -0.0789,-0.0243 -0.1154,-0.0405 -0.0363,-0.0163 -0.065,-0.0316 -0.086,-0.0459 -0.0094,-0.0075 -0.0191,-0.0156 -0.0289,-0.0243 -0.0099,-0.0087 -0.017,-0.0184 -0.0214,-0.0293 -0.0054,-0.0131 -0.0069,-0.0309 -0.0045,-0.0533 0.0022,-0.0225 0.007,-0.0457 0.0144,-0.0696 0.0074,-0.0239 0.015,-0.0473 0.0228,-0.0701 0.0079,-0.0228 0.0143,-0.0403 0.0195,-0.0526 -0.0136,-0.0147 -0.028,-0.0275 -0.0432,-0.0385 -0.0152,-0.0109 -0.0306,-0.0215 -0.0461,-0.0316 -0.0591,-0.0394 -0.1217,-0.0725 -0.1877,-0.0996 -0.0662,-0.0269 -0.1333,-0.0494 -0.2014,-0.0673 -0.0013,0.003 -0.0061,0.01 -0.0143,0.021 -0.0082,0.0109 -0.013,0.0179 -0.0143,0.0209 -0.0067,0.0116 -0.0155,0.0274 -0.0265,0.047 -0.011,0.0197 -0.0229,0.0394 -0.0359,0.0592 -0.0128,0.0198 -0.0263,0.038 -0.0406,0.0545 -0.0141,0.0166 -0.0274,0.0267 -0.0398,0.0304 -0.0103,0.003 -0.0228,0.004 -0.0378,0.0031 -0.0149,-0.0009 -0.0301,-0.0033 -0.0456,-0.0071 -0.0155,-0.0038 -0.0303,-0.0084 -0.0444,-0.0133 -0.0141,-0.0051 -0.0254,-0.0103 -0.034,-0.0158 -0.0316,-0.0188 -0.0638,-0.0364 -0.0965,-0.0529 -0.0327,-0.0165 -0.0626,-0.0376 -0.0895,-0.0633 -0.0133,-0.0111 -0.0257,-0.0236 -0.037,-0.0374 -0.0113,-0.0138 -0.0197,-0.029 -0.0253,-0.0457 -0.0106,-0.0262 -0.0112,-0.0544 -0.0021,-0.0848 0.0133,-0.0357 0.0325,-0.0682 0.0574,-0.0973 0.0249,-0.0293 0.0498,-0.0584 0.0747,-0.0874 0.0083,-0.011 0.0249,-0.0302 0.0499,-0.0574 0.025,-0.0273 0.0531,-0.0586 0.0843,-0.0942 0.0313,-0.0354 0.0643,-0.0724 0.0995,-0.1107 0.0351,-0.0384 0.0686,-0.0752 0.1006,-0.1103 0.032,-0.0351 0.0603,-0.066 0.085,-0.0925 0.0247,-0.0265 0.0419,-0.045 0.0517,-0.0553 0.0606,-0.0626 0.122,-0.1237 0.184,-0.1831 0.0621,-0.0595 0.1259,-0.1177 0.1914,-0.1748 0.0119,-0.0111 0.0239,-0.0223 0.0358,-0.0335 0.0119,-0.0111 0.0243,-0.0213 0.0371,-0.0303 0.0269,-0.0211 0.0543,-0.0411 0.082,-0.06 0.0279,-0.0188 0.0585,-0.0339 0.0921,-0.0449 0.0387,-0.0107 0.0791,-0.0113 0.1209,-0.0017 0.0419,0.0096 0.0798,0.0233 0.1137,0.0412 0.0077,0.0033 0.0219,0.0101 0.0427,0.0207 0.0207,0.0106 0.0426,0.0216 0.0657,0.0332 0.0231,0.0115 0.0445,0.0228 0.0641,0.0338 0.0197,0.011 0.0331,0.0189 0.0401,0.0236 0.0155,0.0102 0.0307,0.0211 0.0456,0.0329 0.0148,0.0117 0.0259,0.0262 0.0329,0.0436 0.011,0.0208 0.0168,0.0436 0.0172,0.068 0.0005,0.0246 0,0.0492 -0.0013,0.0738 -0.0004,0.0053 -0.0019,0.0172 -0.0044,0.036 -0.0025,0.0188 -0.0049,0.0394 -0.0072,0.0618 -0.0022,0.0225 -0.0046,0.0431 -0.0072,0.0619 -0.0025,0.0188 -0.004,0.0308 -0.0044,0.036 -0.0052,0.068 -0.0119,0.136 -0.0198,0.2039 -0.0079,0.0678 -0.0171,0.1356 -0.0276,0.2032 -0.0103,0.0713 -0.0212,0.1411 -0.0329,0.2091 -0.0116,0.0681 -0.0196,0.1373 -0.0239,0.2075 -0.0013,0.0157 -0.0044,0.0442 -0.0091,0.0854 -0.0048,0.0413 -0.0098,0.0851 -0.015,0.1315 -0.0052,0.0466 -0.0109,0.09 -0.0172,0.1306 -0.0064,0.0406 -0.0109,0.0684 -0.0136,0.0835 -0.0013,0.0031 -0.0033,0.0067 -0.006,0.011 -0.0028,0.0043 -0.0047,0.0079 -0.006,0.0109 -0.0066,0.0243 -0.0187,0.0476 -0.0362,0.0699 -0.0176,0.0224 -0.0388,0.0373 -0.0636,0.0449zm-0.6684 -0.9336c0.0619,0.0243 0.1222,0.0511 0.181,0.0804 0.0588,0.0294 0.1168,0.0597 0.1738,0.091 0.0259,-0.1081 0.0464,-0.2166 0.0617,-0.3255 0.0153,-0.1088 0.0272,-0.2183 0.0358,-0.3282 -0.0831,0.0731 -0.1617,0.1504 -0.2357,0.2317 -0.074,0.0814 -0.1461,0.165 -0.2166,0.2506zm1.7061 1.4147c-0.0949,-0.0184 -0.1862,-0.052 -0.2738,-0.1007 -0.0876,-0.0487 -0.1658,-0.1064 -0.2349,-0.1735 -0.0454,-0.0462 -0.0854,-0.0976 -0.1199,-0.1546 -0.0346,-0.057 -0.0613,-0.1164 -0.0801,-0.1785 -0.0145,-0.0511 -0.0239,-0.1037 -0.0281,-0.1578 -0.0042,-0.054 -0.0039,-0.1079 0.0008,-0.1618 0.0072,-0.0726 0.0223,-0.1447 0.0452,-0.2161 0.023,-0.0714 0.0543,-0.1393 0.094,-0.2036 0.0586,-0.0961 0.1314,-0.1821 0.2184,-0.2579 0.087,-0.0759 0.1821,-0.138 0.2854,-0.1864 0.0563,-0.0267 0.1168,-0.0449 0.1812,-0.0546 0.0645,-0.0097 0.1279,-0.0095 0.1904,0.0005 0.0787,0.0098 0.1556,0.0284 0.2307,0.0555 0.075,0.0272 0.1459,0.062 0.2126,0.1046 0.0365,0.0244 0.0726,0.0501 0.1082,0.0768 0.0355,0.0267 0.0679,0.057 0.0968,0.0908 0.0178,0.0219 0.0339,0.0446 0.0485,0.0678 0.0145,0.0233 0.0259,0.0484 0.0344,0.0754 0.0144,0.0511 0.0146,0.1043 0.0002,0.1596 -0.0098,0.0318 -0.025,0.0623 -0.0455,0.0916 -0.0204,0.0292 -0.0445,0.0533 -0.0723,0.0721 -0.0235,0.0173 -0.0498,0.0326 -0.0791,0.0464 -0.0292,0.0139 -0.0591,0.0228 -0.0898,0.027 -0.0305,0.0043 -0.06,0.0036 -0.0883,-0.0021 -0.0282,-0.0056 -0.0523,-0.0189 -0.0723,-0.0399 -0.0215,-0.0218 -0.0382,-0.0473 -0.0501,-0.0766 -0.0119,-0.0294 -0.0242,-0.0593 -0.0365,-0.0898 -0.0123,-0.0304 -0.0282,-0.0601 -0.0476,-0.089 -0.0193,-0.0289 -0.0426,-0.0536 -0.07,-0.0741 -0.0179,-0.0131 -0.0382,-0.0239 -0.0607,-0.0324 -0.0225,-0.0086 -0.0459,-0.0118 -0.0704,-0.0094 -0.0221,0.0014 -0.0436,0.0072 -0.0641,0.0175 -0.0206,0.0102 -0.0396,0.0234 -0.0572,0.0394 -0.0254,0.0217 -0.0468,0.0478 -0.0641,0.0783 -0.0175,0.0305 -0.0337,0.0615 -0.0487,0.093 -0.0271,0.0642 -0.0533,0.1294 -0.0785,0.1954 -0.0251,0.0659 -0.0459,0.1333 -0.0622,0.2021 -0.0086,0.0288 -0.0126,0.0596 -0.012,0.0923 0.0007,0.0326 0.0081,0.0619 0.0224,0.0878 0.0174,0.0271 0.0431,0.0475 0.0771,0.0609 0.0339,0.0134 0.0674,0.0154 0.1002,0.0058 0.0329,-0.0096 0.0625,-0.0241 0.0887,-0.0436 0.0263,-0.0196 0.0538,-0.0377 0.0825,-0.0545 0.0193,-0.0117 0.0408,-0.0188 0.0644,-0.0214 0.0236,-0.0026 0.0454,0.0003 0.0652,0.0086 0.0153,0.0065 0.0296,0.0143 0.0429,0.0235 0.0132,0.0092 0.0269,0.0186 0.0409,0.0281 0.0124,0.0088 0.0308,0.022 0.055,0.0394 0.0241,0.0174 0.0481,0.0365 0.0718,0.0573 0.0236,0.0208 0.0454,0.0417 0.0654,0.0628 0.0199,0.0209 0.0322,0.0388 0.0369,0.0534 0.0084,0.027 0.0077,0.0564 -0.0022,0.0883 -0.0078,0.0273 -0.0203,0.0526 -0.0375,0.076 -0.0171,0.0235 -0.0369,0.0449 -0.0594,0.0641 -0.0415,0.0384 -0.0878,0.0702 -0.139,0.0955 -0.0512,0.0253 -0.1048,0.0423 -0.1608,0.0511 -0.042,0.0057 -0.0843,0.0076 -0.1269,0.0059 -0.0424,-0.0017 -0.0852,-0.0071 -0.1282,-0.0163zm0.9765 0.4148c-0.0556,-0.009 -0.1099,-0.0256 -0.1628,-0.0497 -0.0529,-0.0242 -0.1026,-0.0514 -0.1492,-0.0819 -0.0202,-0.0121 -0.0394,-0.0274 -0.0577,-0.046 -0.0183,-0.0186 -0.0308,-0.0391 -0.0374,-0.0617 -0.005,-0.0184 -0.0043,-0.037 0.0019,-0.056 0.0063,-0.019 0.0121,-0.0373 0.0177,-0.0547 0.0331,-0.087 0.0678,-0.1723 0.1041,-0.2562 0.0363,-0.0837 0.0739,-0.1678 0.1132,-0.2522 0.0052,-0.0122 0.0155,-0.0345 0.0308,-0.0668 0.0155,-0.0322 0.033,-0.0694 0.0526,-0.1116 0.0196,-0.0422 0.0401,-0.0866 0.0617,-0.1334 0.0216,-0.0468 0.0425,-0.0912 0.0628,-0.1329 0.0204,-0.0419 0.038,-0.0791 0.0526,-0.1117 0.0146,-0.0326 0.0256,-0.0554 0.0329,-0.0686 0.002,-0.0046 0.0066,-0.0165 0.0139,-0.036 0.0073,-0.0194 0.012,-0.0314 0.0139,-0.036 0.0065,-0.0153 0.0154,-0.0354 0.0268,-0.0604 0.0114,-0.0249 0.0245,-0.0504 0.0391,-0.0767 0.0148,-0.0262 0.0297,-0.0501 0.0451,-0.0715 0.0153,-0.0215 0.0307,-0.0353 0.0459,-0.0415 0.0109,-0.0044 0.0229,-0.0061 0.0359,-0.0052 0.0132,0.0011 0.0264,0.0027 0.04,0.0047 0.0128,0.0037 0.0336,0.0111 0.0622,0.0223 0.0286,0.0112 0.0581,0.0236 0.0884,0.0373 0.0302,0.0136 0.0588,0.0271 0.0857,0.0402 0.0269,0.0132 0.0461,0.0231 0.0577,0.0298 0.0201,0.012 0.0385,0.0262 0.0551,0.0422 0.0167,0.0161 0.0276,0.035 0.0328,0.057 0.0054,0.0258 0.0046,0.052 -0.0022,0.0789 -0.0069,0.0268 -0.015,0.0536 -0.0244,0.0802 -0.005,0.0159 -0.0162,0.0449 -0.034,0.087 -0.0178,0.0421 -0.037,0.0867 -0.0579,0.1338 -0.0207,0.0471 -0.0408,0.0917 -0.0605,0.1339 -0.0196,0.0422 -0.0327,0.071 -0.0391,0.0863 -0.034,0.0721 -0.0667,0.143 -0.0979,0.2127 -0.0312,0.0698 -0.0624,0.1413 -0.0934,0.2147 -0.0284,0.0673 -0.0554,0.1348 -0.0812,0.2023 -0.0258,0.0674 -0.0544,0.1343 -0.0859,0.2002 -0.0097,0.0229 -0.0205,0.0464 -0.0323,0.0702 -0.0119,0.0238 -0.0281,0.0431 -0.0488,0.0579 -0.0156,0.0114 -0.033,0.0184 -0.0521,0.0211 -0.0192,0.0028 -0.0379,0.0021 -0.056,-0.002zm0.6251 0.2611c-0.042,-0.0159 -0.084,-0.0336 -0.1262,-0.0532 -0.0422,-0.0196 -0.0812,-0.0424 -0.1172,-0.0684 -0.0125,-0.0088 -0.0241,-0.0187 -0.0348,-0.0295 -0.0107,-0.0109 -0.0199,-0.0224 -0.0273,-0.0346 -0.0117,-0.0193 -0.0165,-0.042 -0.0144,-0.0682 0.003,-0.033 0.0103,-0.0651 0.0216,-0.0963 0.0115,-0.0312 0.0235,-0.0622 0.0364,-0.0927 0.0493,-0.1252 0.1009,-0.2485 0.1549,-0.37 0.0539,-0.1213 0.107,-0.244 0.1593,-0.3679 0.0038,-0.0092 0.0116,-0.0285 0.0231,-0.0578 0.0114,-0.0294 0.024,-0.0602 0.0375,-0.0923 0.0136,-0.0322 0.0261,-0.0629 0.0376,-0.0922 0.0116,-0.0295 0.0192,-0.0487 0.023,-0.0579 0.0156,-0.0368 0.0321,-0.0726 0.0495,-0.1075 0.0175,-0.035 0.0382,-0.0682 0.0623,-0.0995 0.0151,-0.0189 0.0331,-0.0356 0.0536,-0.0504 0.0206,-0.0146 0.0421,-0.0227 0.0644,-0.0242 0.0377,-0.0038 0.0736,0.0005 0.108,0.0132 0.0342,0.0127 0.0685,0.0253 0.1028,0.038 0.0444,0.0188 0.088,0.0381 0.131,0.0579 0.043,0.02 0.0863,0.0401 0.13,0.0603 0.056,0.0255 0.112,0.0496 0.1681,0.0724 0.0562,0.0227 0.1129,0.0453 0.1701,0.0677 0.0092,0.0038 0.0226,0.0095 0.0402,0.0169 0.0176,0.0074 0.0356,0.016 0.0541,0.0256 0.0185,0.0096 0.0362,0.0189 0.0532,0.0278 0.0169,0.009 0.0282,0.0174 0.0339,0.0252 0.0112,0.0119 0.0168,0.0274 0.017,0.0463 0.0001,0.019 -0.0021,0.0392 -0.0068,0.0607 -0.0045,0.0215 -0.0111,0.0426 -0.0198,0.0633 -0.0087,0.0206 -0.0163,0.0386 -0.0228,0.0538 -0.0051,0.0123 -0.0131,0.0288 -0.0236,0.0496 -0.0106,0.0208 -0.0222,0.0419 -0.035,0.0637 -0.0127,0.0216 -0.0258,0.0408 -0.0392,0.0577 -0.0134,0.0169 -0.026,0.0283 -0.0375,0.0342 -0.0158,0.0077 -0.0334,0.0098 -0.0526,0.0062 -0.0191,-0.0036 -0.0375,-0.0082 -0.055,-0.0138 -0.019,-0.0062 -0.055,-0.02 -0.1081,-0.0416 -0.0531,-0.0215 -0.1104,-0.0447 -0.1719,-0.0698 -0.0616,-0.0251 -0.1187,-0.0487 -0.1715,-0.071 -0.0528,-0.0223 -0.0884,-0.0373 -0.1067,-0.045 -0.0166,0.0308 -0.0328,0.0618 -0.0487,0.093 -0.0158,0.0311 -0.0305,0.0628 -0.0441,0.0949 0.0147,0.0079 0.0435,0.0197 0.0866,0.0351 0.043,0.0155 0.0887,0.0321 0.1371,0.0497 0.0484,0.0178 0.0934,0.035 0.135,0.0517 0.0416,0.0166 0.0694,0.0297 0.0834,0.0392 0.0088,0.0092 0.0151,0.0199 0.0188,0.0323 0.0014,0.0096 0.0006,0.0191 -0.0026,0.0286 -0.0031,0.0096 -0.0065,0.0189 -0.0104,0.0281 -0.0045,0.0107 -0.0109,0.0268 -0.0193,0.0486 -0.0081,0.0217 -0.0179,0.0438 -0.0291,0.0661 -0.0113,0.0223 -0.0222,0.0429 -0.0328,0.0618 -0.0107,0.0189 -0.0204,0.032 -0.0288,0.0393 -0.0091,0.0087 -0.0212,0.0127 -0.0361,0.0118 -0.015,-0.0009 -0.0308,-0.004 -0.0474,-0.0093 -0.0167,-0.0052 -0.0335,-0.0114 -0.0503,-0.0185 -0.0169,-0.0071 -0.0307,-0.0129 -0.0414,-0.0175 -0.0091,-0.0038 -0.0283,-0.0119 -0.0573,-0.0241 -0.0291,-0.0123 -0.0601,-0.0254 -0.0929,-0.0393 -0.0329,-0.0138 -0.0639,-0.0269 -0.093,-0.0392 -0.029,-0.0122 -0.0482,-0.0203 -0.0573,-0.0242 -0.0102,0.0282 -0.0211,0.0564 -0.033,0.0847 -0.012,0.0283 -0.0226,0.0577 -0.0319,0.088 0.0086,0.0054 0.0266,0.013 0.054,0.0228 0.0274,0.0098 0.0561,0.0196 0.0862,0.0296 0.03,0.01 0.0587,0.0189 0.0859,0.0268 0.0274,0.008 0.0456,0.0138 0.0548,0.0177 0.0107,0.0045 0.0319,0.013 0.0635,0.0255 0.0317,0.0124 0.0653,0.0257 0.1008,0.0398 0.0355,0.0141 0.0689,0.0277 0.1004,0.041 0.0313,0.0132 0.0523,0.0221 0.0631,0.0266 0.0107,0.0045 0.0208,0.0102 0.0306,0.0171 0.0097,0.0067 0.0161,0.0152 0.0189,0.0254 0.003,0.0103 0.0025,0.0209 -0.0013,0.0319 -0.0037,0.0112 -0.0067,0.0215 -0.0091,0.0314 -0.0045,0.0107 -0.0128,0.0315 -0.025,0.0624 -0.0122,0.0309 -0.0249,0.0634 -0.0384,0.0973 -0.0134,0.034 -0.0265,0.0659 -0.0391,0.0957 -0.0125,0.0299 -0.0211,0.0501 -0.0256,0.0608 -0.0026,0.0061 -0.0062,0.0136 -0.0108,0.0225 -0.0046,0.0089 -0.0097,0.0185 -0.0149,0.0289 -0.0052,0.0104 -0.0109,0.0193 -0.0167,0.0267 -0.0058,0.0074 -0.012,0.0125 -0.0186,0.0152 -0.0043,0.0017 -0.0092,0.0015 -0.0145,-0.0008 -0.0054,-0.0022 -0.0107,-0.0036 -0.0159,-0.0039 -0.015,-0.0028 -0.0414,-0.0108 -0.0791,-0.024 -0.0377,-0.0132 -0.0783,-0.0281 -0.1218,-0.0446 -0.0434,-0.0165 -0.0836,-0.0322 -0.1207,-0.047 -0.037,-0.0146 -0.0627,-0.0242 -0.0771,-0.0284 -0.0503,-0.0176 -0.0998,-0.0358 -0.1487,-0.0547 -0.0488,-0.0188 -0.0977,-0.0385 -0.1466,-0.0592zm1.2713 0.5555c-0.023,-0.0096 -0.0543,-0.0229 -0.0941,-0.0397 -0.0398,-0.0168 -0.0798,-0.0351 -0.1201,-0.0548 -0.0404,-0.0197 -0.0769,-0.041 -0.1097,-0.0638 -0.0327,-0.0228 -0.0539,-0.0461 -0.0636,-0.0701 -0.0086,-0.018 -0.0093,-0.04 -0.002,-0.0657 0.01,-0.0408 0.0254,-0.0794 0.0461,-0.1157 0.0207,-0.0363 0.0376,-0.0742 0.0507,-0.1138 0.005,-0.0159 0.0176,-0.048 0.0379,-0.0962 0.0203,-0.0482 0.0418,-0.099 0.0644,-0.1526 0.0226,-0.0535 0.0439,-0.104 0.0639,-0.1514 0.02,-0.0474 0.0333,-0.0788 0.0397,-0.0941 0.0065,-0.0153 0.0168,-0.0407 0.0309,-0.0762 0.014,-0.0355 0.0304,-0.0754 0.0491,-0.1198 0.0187,-0.0443 0.0382,-0.0915 0.0585,-0.1415 0.0202,-0.0501 0.0396,-0.0974 0.0583,-0.1417 0.0188,-0.0444 0.0358,-0.0835 0.0511,-0.1177 0.0153,-0.034 0.0277,-0.0581 0.0372,-0.0721 0.0108,-0.017 0.0215,-0.0337 0.0319,-0.05 0.0105,-0.0163 0.0248,-0.0287 0.0428,-0.0374 0.0143,-0.0084 0.0299,-0.0131 0.0465,-0.0141 0.0167,-0.0011 0.0337,-0.0007 0.0509,0.0012 0.0452,0.0082 0.0907,0.022 0.1366,0.0414 0.0266,0.0094 0.0532,0.0202 0.0796,0.0322 0.0265,0.0121 0.0517,0.0258 0.0759,0.0415 0.0148,0.0116 0.0284,0.0264 0.0408,0.0442 0.0122,0.0179 0.019,0.036 0.0202,0.0545 0.0027,0.0318 -0.0055,0.077 -0.0248,0.1356 -0.0193,0.0585 -0.0425,0.1199 -0.0696,0.1841 -0.0271,0.0642 -0.0546,0.1252 -0.0825,0.1828 -0.0279,0.0576 -0.048,0.1009 -0.0603,0.13 -0.0358,0.0804 -0.071,0.1606 -0.1056,0.2406 -0.0347,0.08 -0.0676,0.1612 -0.0987,0.2435 0.064,0.0235 0.1265,0.0472 0.1876,0.0711 0.0611,0.024 0.1228,0.0474 0.1853,0.0701 0.0174,0.0056 0.0348,0.0125 0.0521,0.0206 0.0173,0.0082 0.032,0.0194 0.044,0.0335 0.0096,0.0112 0.0159,0.0243 0.0187,0.0389 0.0028,0.0148 0.0031,0.0289 0.0011,0.0424 -0.0013,0.0157 -0.0068,0.0395 -0.0167,0.0714 -0.0099,0.0319 -0.0215,0.0648 -0.0349,0.0988 -0.0134,0.034 -0.0266,0.0663 -0.0395,0.0969 -0.0129,0.0306 -0.023,0.0524 -0.0304,0.0655 -0.011,0.026 -0.0263,0.043 -0.0458,0.0509 -0.0124,0.0038 -0.025,0.0048 -0.0378,0.0031 -0.0128,-0.0019 -0.0256,-0.0046 -0.0384,-0.0081 -0.0918,-0.0262 -0.1806,-0.0569 -0.2666,-0.0923 -0.086,-0.0353 -0.1729,-0.0707 -0.2607,-0.106z"/>
 </g>
</svg>
