<?xml version="1.0" encoding="UTF-8"?>
<!DOCTYPE svg PUBLIC "-//W3C//DTD SVG 1.1//EN" "http://www.w3.org/Graphics/SVG/1.1/DTD/svg11.dtd">
<!-- Creator: CorelDRAW -->
<svg xmlns="http://www.w3.org/2000/svg" xml:space="preserve" width="70mm" height="70mm" style="shape-rendering:geometricPrecision; text-rendering:geometricPrecision; image-rendering:optimizeQuality; fill-rule:evenodd; clip-rule:evenodd"
viewBox="0 0 70 70"
 xmlns:xlink="http://www.w3.org/1999/xlink">
 <defs>
  <style type="text/css">
   <![CDATA[
    .str0 {stroke:#373435;stroke-width:0.0762}
    .fil0 {fill:#373435}
    .fil1 {fill:#FEFEFE;fill-rule:nonzero}
   ]]>
  </style>
 </defs>
 <g id="Capa_x0020_1">
  <metadata id="CorelCorpID_0Corel-Layer"/>
  <path class="fil0 str0" d="M34.1973 3.3118c4.5552,-0.154 9.0311,0.7206 13.2106,2.5365 3.7883,1.6459 6.4747,3.5902 9.5242,6.3251 5.8033,5.2045 9.6557,14.2168 9.7248,21.963 0.0419,4.6908 -0.5949,9.053 -2.4606,13.3879 -4.9588,11.5209 -15.7939,18.8678 -28.3396,19.1749 -17.6997,0.4333 -32.1292,-13.099 -32.5326,-30.8336 -0.1088,-4.7811 0.7861,-8.929 2.5181,-13.3529 1.3829,-3.5322 3.732,-6.7843 6.299,-9.5446 5.6432,-6.068 13.8277,-9.378 22.0561,-9.6563zm-8.028 53.8449c-1.6114,0.6296 -1.7017,3.6399 -0.2323,3.0328 1.3223,-0.5465 1.8369,-3.6596 0.2323,-3.0328zm3.2771 1.9959c-1.1549,4.92 -7.6735,3.7508 -6.791,-1.0241 0.3464,-1.8739 2.0448,-3.2404 3.9775,-3.0871 1.9098,0.1514 3.2666,2.1816 2.8135,4.1112zm-8.4212 -14.7721c0.5418,-0.3107 1.2994,-0.6 1.9502,-0.5805 0.5974,0.0178 1.4783,0.1478 1.937,0.5361 -0.2287,0.9195 -3.5554,0.9744 -3.8872,0.0444zm-0.091 -0.341c0.2553,-0.8801 3.4264,-1.0145 3.9647,-0.1283 -1.2328,-0.3323 -1.7988,-0.493 -3.1421,-0.168 -0.2959,0.0715 -0.6089,0.2528 -0.8226,0.2963zm1.4468 -1.0167c-3.4948,0.5638 -1.6055,2.94 1.2312,2.4505 0.6797,-0.1173 2.3805,-0.7361 1.6691,-1.7181 -0.5385,-0.7433 -2.0528,-0.8691 -2.9003,-0.7324zm15.2737 -6.3544c-0.3547,-2.8491 4.1902,-3.4772 4.5448,-0.4562 0.143,1.2181 -0.7938,2.3286 -1.9925,2.4882 -1.2776,0.17 -2.398,-0.7923 -2.5523,-2.032zm1.2621 -2.4613c-0.7184,0.1123 -1.6184,1.2812 -1.507,2.483 0.2188,2.3592 3.4616,3.1958 4.6957,1.0044 0.8217,-1.4593 0.0556,-2.2634 -0.3499,-2.9958 -0.4343,-0.1734 -0.5857,-0.4948 -1.2305,-0.6563 -0.6371,-0.1595 -1.0281,-0.0724 -1.6083,0.1647zm-11.0792 2.6037c-0.2106,-1.1668 0.6949,-2.3887 1.8313,-2.5827 1.2314,-0.2101 2.484,0.5996 2.6767,1.8374 0.1902,1.2212 -0.6472,2.4161 -1.8607,2.6215 -1.2653,0.2142 -2.4257,-0.6485 -2.6473,-1.8762zm0.2973 -1.9035c-0.6559,1.0196 -0.8236,1.9159 -0.0952,2.9898 0.5876,0.8662 1.7202,1.3195 2.785,0.9847 2.1337,-0.6706 2.4803,-3.5757 0.3656,-4.6593 -0.7185,-0.2355 -1.0055,-0.3596 -1.8099,-0.1555 -0.6601,0.1674 -0.8049,0.558 -1.2455,0.8403zm-3.0311 -1.0265l-0.0119 0.0887c1.5444,-0.9884 2.3699,-1.6141 4.1259,-2.2657 3.4556,-1.2822 7.5318,-1.2852 11.0182,-0.1632 1.6746,0.5389 2.7674,1.2788 4.24,2.1478l0.0297 -0.1716c-0.9435,-1.0484 -2.8174,-2.0082 -4.1317,-2.4413 -1.8114,-0.597 -3.7753,-0.8927 -5.7511,-0.8623 -2.5766,0.0397 -5.6425,0.7232 -7.7752,2.1484 -0.4598,0.3073 -1.5299,1.118 -1.7439,1.5192zm14.2868 0.7504c-0.9748,0.2972 -1.6489,1.2815 -1.3166,2.3386 0.3085,0.9815 1.3634,1.6345 2.3967,1.2984 2.4777,-0.8059 1.2919,-4.3604 -1.0801,-3.637zm-9.8092 -0.0178c-2.5816,0.8384 -1.1817,4.4095 1.0543,3.6665 2.5694,-0.8538 1.1961,-4.3974 -1.0543,-3.6665zm3.8897 7.6624c0.836,-0.4838 2.2559,-0.5357 3.043,0.0394 -0.0747,0.6602 -0.9003,1.0627 -1.5437,1.0437 -0.8459,-0.0248 -1.1581,-0.4738 -1.4993,-1.0831zm3.1522 -0.1297c-0.2535,-0.1025 -0.7982,-0.5043 -1.5862,-0.4547l-1.8056 0.2507 -0.0826 -0.5325c0.5002,-0.0765 0.5162,0.0118 1.0227,-0.1586l0.7106 -0.4803c0.427,0.011 0.4921,0.2068 0.8882,0.4207l1.1142 0.1829c-0.0002,0.2876 -0.1056,0.5489 -0.2613,0.7718zm-1.4489 -2.9778c1.5416,-0.5581 1.0625,-1.6471 -0.2072,-1.6319 -1.3414,0.0159 -1.5918,1.2238 -0.1672,1.6557 0.1084,0.8799 -0.2249,1.5167 -1.4884,1.6419 -0.4303,-0.032 -0.82,-0.1887 -1.1358,-0.4582 -0.6409,-0.5471 -0.4283,-0.881 -0.4671,-1.1241 -0.2997,0.2738 -0.9987,0.8625 -0.984,1.2702l0.6706 -0.4003 0.5115 0.5916c0.1946,0.1701 0.479,0.2882 0.6637,0.4394l1.0409 2.0595c0.4351,0.5833 2.6878,1.4245 3.6328,-1.4165 0.2433,-0.7314 -0.0364,-0.4786 0.6071,-0.9149 0.3125,-0.2118 0.5026,-0.5134 0.7137,-0.8187l0.8087 0.4756 -0.7474 -1.322 -0.3365 0.027 -0.4808 1.1139c-0.3214,0.283 -0.6804,0.4523 -1.1158,0.485 -1.0622,0.0797 -1.5997,-0.673 -1.5188,-1.6732zm1.0574 -30.7274c-1.3031,0.5668 -0.9894,4.136 0.3801,3.5707 1.2218,-0.5044 1.0195,-4.1795 -0.3801,-3.5707zm11.821 5.2278c1.0822,0.6344 2.0311,-0.9212 0.8371,-1.5539 -0.2424,0.2168 -0.8673,1.212 -0.8371,1.5539zm-34.0863 4.5495c0.1806,0.3347 0.7372,0.8791 1.0839,1.0644 0.43,-0.2885 0.4891,-1.0922 0.1355,-1.473 -0.4535,-0.4884 -1.0466,-0.1407 -1.2194,0.4086zm28.7223 -6.9659c1.4312,0.4877 1.8545,-1.6457 0.4764,-1.7422 -0.1465,0.2697 -0.513,1.4594 -0.4764,1.7422zm-32.7816 12.4809c0.2986,0.3245 2.7283,2.0131 3.0874,2.074 0.7314,-0.9628 0.4325,-1.9128 -0.5736,-2.4754 -1.0592,-0.5921 -1.8424,-0.723 -2.5138,0.4014zm16.2204 26.3456c-0.1224,-0.0806 -0.0657,0.0375 -0.1654,-0.1938l-0.2041 -0.7239c1.2448,-1.4685 0.616,-0.9167 1.0812,-1.6529l0.2039 1.3576c0.0177,0.4349 -0.4457,1.1221 -0.8203,1.3504l-0.0953 -0.1374zm-5.5649 -2.3493c0.4658,0.5493 0.5769,0.7536 1.3284,0.9944 0.6315,0.2024 1.3817,0.2212 2.0346,0.0731 1.9814,-0.4496 1.8877,-1.9177 2.1597,-2.463l-0.2006 2.0819c-0.4988,0.5458 -1.2528,0.8208 -2.0061,0.9509 -1.2298,0.2125 -3.8716,-0.1207 -4.117,-1.5722l0.801 -0.0651zm4.7903 2.9164c-0.1992,-0.1914 -0.3408,-0.6867 -0.2417,-0.9059 0.2099,0.3788 0.1889,1.0333 0.8631,0.8973 0.4217,-0.085 0.817,-0.3984 1.0492,-0.7349 0.8617,-1.2485 0.3496,-2.0634 0.2832,-2.8857l0.7753 1.0443c0.1405,0.1746 0.2743,-0.0262 0.7395,0.9696 0.1862,0.3987 -0.356,2.3299 -0.5305,2.8214 -0.3367,-0.1302 -2.754,-1.0291 -2.9381,-1.2061zm12.7128 -5.4936l0.8421 1.7361 -0.7166 0.5983 0.8628 1.4684 -1.8067 2.7079c0.0585,-1.3543 0.1775,-5.1719 0.2948,-6.2963l0.5236 -0.2144zm-17.8021 2.1206c-1.3712,0.1358 -1.3882,-0.9912 -0.2984,-1.1626 0.1036,0.2349 0.333,0.9289 0.2984,1.1626zm11.4644 -2.094l0.7176 0.2085c0.0593,0.9864 0.4025,5.5236 0.323,6.1219 -0.2942,-0.4015 -1.7123,-2.2531 -1.8056,-2.5566l0.8544 -1.4536 -0.7891 -0.6384 0.6997 -1.6818zm4.4476 1.5102c-0.2504,0.558 -0.9091,0.9681 -1.5266,0.6553 -0.5486,-0.278 -0.8035,-0.6918 -1.0794,-1.216 -0.1746,-0.1971 -0.1326,-0.2372 -0.1095,-0.5436l2.908 0.5149c0.0287,0.289 -0.0067,0.395 -0.1925,0.5894zm-17.1821 -0.6429c-0.2459,-0.5237 0.3629,-0.9538 0.8047,-1.0098l0.1411 0.7576c-0.2635,0.1747 -0.636,0.3338 -0.9458,0.2522zm3.0092 -3.311c0.7857,-0.1617 1.8068,-0.1362 2.5632,0.152 0.8475,0.3229 1.1713,0.7254 1.1679,1.6566 -0.0054,1.4639 -0.209,3.2914 -1.8056,3.7618 -0.6961,0.2051 -1.7711,0.1327 -2.3868,-0.2612 -0.5885,-0.3763 -0.8939,-1.0843 -1.061,-1.7571 -0.4726,-1.9029 -0.6763,-3.0997 1.5223,-3.5521zm-2.8118 2.1504c0.0118,-0.3273 0.3176,-0.725 0.6037,-0.757l0.0027 0.6004 -0.6064 0.1566zm6.1066 -8.1947c-0.0336,-0.8685 0.1303,-0.7352 0.5994,-1.2857 0.882,-1.0354 1.9705,-1.7795 3.2194,-2.3673 3.5378,-1.6651 8.7739,-1.5527 12.2497,0.2799 0.6649,0.3506 1.6966,1.0275 2.1891,1.5375 0.3248,0.3364 0.6093,0.6157 0.8847,0.9767 0.1799,0.2358 0.1931,0.3491 0.2545,0.6532 0.0603,0.2994 0.076,0.5907 -0.1082,0.8211 0.0399,0.8119 -0.7241,2.5743 -1.1702,3.2802 -0.5035,0.7967 -1.3296,1.7799 -2.0911,2.3216 -2.0332,1.4465 -4.14,2.2247 -6.7035,2.1187 -2.3677,-0.0979 -4.6096,-0.8871 -6.372,-2.4478 -1.655,-1.4654 -2.8514,-3.6039 -2.9518,-5.8881zm21.0316 -0.0119c0.6307,0.1158 0.5239,0.7294 0.141,0.7744 -0.4196,0.0493 -0.6454,-0.4203 -0.141,-0.7744zm-23.1518 0.2126c0.1713,-0.1733 0.2726,-0.213 0.5263,-0.1627 0.3999,0.4282 0.1372,0.8653 -0.4252,0.6918 -0.1649,-0.2397 -0.1446,-0.2403 -0.1011,-0.5291zm1.3162 -2.6819c-0.0213,-0.6375 -0.3579,-1.1875 -0.1235,-1.9809 0.1399,-0.4734 0.5816,-0.8846 0.9187,-1.2228 2.1736,-2.1815 6.4753,-3.2017 9.5408,-3.2625 3.1384,-0.0623 7.2616,0.9731 9.6816,3.1218 1.5322,1.3606 1.044,1.9623 1.0409,2.9717 -0.0928,0.568 -0.3033,1.2242 -0.6638,1.6365 -0.8838,-0.8949 -0.8525,-0.9029 -1.8372,-1.6986 -0.6064,-0.49 -1.4672,-0.9853 -2.2201,-1.2947 -3.8985,-1.6018 -7.8389,-1.5638 -11.7309,-0.0079 -2.5621,1.0241 -3.559,2.7494 -3.9847,3.0631l-0.6218 -1.3257zm10.9467 -7.0977l-0.9527 0.0096 0.48 -0.5726 0.4727 0.563zm-14.124 7.5093c0.4652,0.1069 0.8113,0.1894 1.3158,0.2166 1.7452,0.0943 1.2735,-0.2741 2.0688,1.0199 0.1803,0.2967 0.0893,0.2731 0.1112,0.6279 0.0179,0.2917 0.1046,0.37 0.0926,0.6839l-0.5436 -0.0003 -0.6727 -1.1976c-0.2143,-0.2293 -3.5989,0.0525 -4.1706,-1.2377 -1.9896,-1.9694 -1.8659,-3.4727 -1.6299,-6.2375 0.1687,-1.978 0.301,-3.4919 0.5403,-5.4536 0.0612,-0.5016 0.143,-1.2263 0.7503,-1.2223l-0.7439 7.562c-0.1302,1.3159 -0.1929,2.4039 0.5234,3.539 0.3413,0.541 1.6777,1.7944 2.3583,1.6997zm28.2535 0.6434c-0.3694,0.5423 -1.8284,0.553 -2.4747,0.5807 -1.2526,0.0535 -1.109,0.3801 -1.5467,1.3643l-0.4697 -0.0192c0.0568,-1.5273 -0.1189,-0.9815 0.7319,-2.2621 1.3842,-0.0774 2.0683,0.0102 3.2611,-0.5139 0.8084,-0.092 1.7284,-1.2377 2.0763,-1.9456 0.5588,-1.1374 0.4207,-2.209 0.2803,-3.4294 -0.0871,-0.758 -0.8162,-7.0136 -0.7604,-7.1761 0.9366,-0.1685 0.8072,0.5588 1.1143,3.2499 0.1582,1.3311 0.3115,2.729 0.3626,4.0643 0.0562,1.4707 0.2044,2.4655 -0.4482,3.844 -0.3781,0.7985 -1.3007,1.9394 -2.1268,2.2431zm-25.7587 -2.0766c-1.0137,0.1318 -2.2711,-0.5736 -2.8032,-1.4248 -0.6509,-1.0413 -0.6637,-2.3162 -0.5234,-3.5225 0.2524,-2.1702 0.3759,-5.8804 0.6327,-7.6101 0.0918,-0.6177 0.6325,-0.9235 1.1079,-0.4203 0.3232,0.3421 0.1327,1.4478 0.0941,1.9165 -0.1064,1.2888 -0.1704,2.587 -0.2635,3.8783 -0.1312,1.8198 -0.6894,4.0086 0.4415,5.2359 0.5433,0.5898 0.7923,0.4421 1.5093,0.5581 -0.2152,0.979 -0.1074,0.5203 -0.1954,1.3889zm0.1268 1.0826c-1.0712,0.1648 -3.278,-0.2936 -4.0514,-1.1059 -1.1625,-1.2208 -1.2238,-2.3389 -1.0368,-3.9716 0.2696,-2.3538 0.4583,-4.6346 0.7724,-6.9901 0.0618,-0.4627 0.2186,-1.8335 1.0131,-1.2888l-0.147 2.0598c-0.1471,1.9039 -0.4193,4.2285 -0.5016,5.9931 -0.0572,1.2246 -0.0887,2.6199 0.7925,3.5808 1.3278,1.4482 1.9702,1.0329 3.074,1.2713l0.0848 0.4514zm25.2132 -1.863c0.863,-1.0644 0.7763,-2.3269 0.6914,-3.6443 -0.0677,-1.0483 -0.681,-7.7121 -0.6094,-8.0515 1.2479,-0.1842 0.8859,0.9755 1.0158,1.5052 0.0605,0.1583 0.6974,6.3693 0.7588,6.892 0.4305,3.6738 -1.3995,5.3345 -4.9774,5.1315l0.0691 -0.4785c1.1961,-0.1274 2.0582,-0.1291 3.0517,-1.3544zm-3.2429 -0.6261c1.2699,-0.1619 1.928,-0.6668 2.0993,-2.0088 0.1332,-1.0441 -0.3937,-6.1882 -0.4806,-7.697 -0.0266,-0.4649 -0.2593,-1.517 0.0415,-1.8659 0.4396,-0.5098 1.0824,-0.3593 1.1562,0.3753 0.2549,2.5338 0.4458,5.1563 0.6078,7.6982 0.0763,1.197 0.2527,2.4929 -0.519,3.505 -0.6192,0.8121 -1.6069,1.4288 -2.6767,1.3794 -0.081,-0.7634 -0.1954,-1.1078 -0.2285,-1.3862zm-16.9023 -3.6078c-0.3879,-0.8082 -0.3556,-2.3206 -0.1579,-3.1868 0.1941,-0.8502 0.653,-1.7133 1.1868,-2.3941 3.0103,-3.8395 10.1008,-2.5489 11.081,2.4474 0.1514,0.7719 0.2274,2.4854 -0.1721,3.1574l-2.5472 -0.7321c-2.0943,-0.4511 -4.2953,-0.5098 -6.6588,0.026 -0.3742,0.0975 -2.5289,0.7253 -2.7318,0.6822zm-1.2572 0.5776c-0.5839,-0.6337 -0.4811,-3.004 -0.2989,-3.8423 0.2249,-1.0349 0.7649,-2.1612 1.4564,-2.9648 3.1938,-3.7116 8.9818,-3.6982 12.1236,-0.001 0.6541,0.7697 1.2439,1.9762 1.4468,2.9666 0.1783,0.8702 0.2756,3.1447 -0.2779,3.8423l-0.8275 -0.3309c0.1999,-1.2683 0.4324,-2.1495 0.1313,-3.4494 -0.6969,-3.0081 -3.3989,-4.9603 -6.4663,-4.9804 -2.1267,-0.014 -3.9038,0.7866 -5.2757,2.3935 -2.2906,2.6828 -1.1321,5.5401 -1.1953,6.0209l-0.8165 0.3455zm-3.6578 2.8472c-0.5403,-0.2436 -0.7593,-1.9479 -0.8147,-2.5073 -0.0935,-0.9429 -0.03,-2.1423 0.2149,-3.0611 0.8455,-3.1706 3.2301,-5.7044 6.1497,-7.0798 8.4865,-3.9979 17.8709,2.5742 17.0102,10.2605 -0.0568,0.5069 -0.344,2.1629 -0.8011,2.4051l-0.6925 -0.7768c-0.7816,-0.8634 -2.3307,-1.6477 -2.518,-1.8957 0.3087,-1.6175 0.5758,-2.3836 0.2235,-4.0752 -0.7613,-3.6548 -4.2387,-6.0661 -7.8954,-6.0668 -3.8167,-0.0007 -7.3096,2.7035 -7.911,6.1131 -0.4626,2.6222 0.231,3.2303 0.2306,4.0302 -0.8867,0.6202 -1.7668,1.1553 -2.5001,1.9042 -0.2052,0.2095 -0.4639,0.6748 -0.6961,0.7496zm-6.6563 -3.4877c0.0301,3.0638 -0.8658,5.6197 -0.5403,8.8183 0.2037,2.0017 0.645,3.7517 1.4374,5.5754 0.8338,1.9188 0.9125,1.0586 0.4319,2.6913 -0.4772,-0.1564 -1.6555,-3.0419 -1.8761,-3.6619 -1.2963,-3.6418 -1.4119,-8.5884 -0.1568,-12.2702l0.7227 -2.0438 -0.0188 0.8909zm6.4324 21.8046c0.3937,0.4946 1.6128,1.2591 2.2169,1.581 0.6158,0.3282 1.8656,0.8338 1.9901,0.9021 0.3094,0.1695 -0.151,0.1079 0.6468,0.3038 0.2373,-1.0424 0.4069,-2.1136 0.6404,-3.1616l0.7638 -2.9766 -1.0633 2.2139 -0.4435 -0.7886 2.6198 -2.6052 -0.7578 1.6609 0.8456 0.5284 -0.8942 1.5186c0.3312,0.5257 1.9189,2.5258 2.1077,3.045l0.2881 1.516 0.1739 0.0064c0.0635,-0.2876 0.1893,-0.6019 0.234,-0.8563 0.0821,-0.4667 -0.0258,-2.7221 -0.0732,-3.2002l-0.2906 -3.9907c0.3301,0.1461 0.393,1.763 2.0764,2.2495 0.7697,0.2224 1.5053,-0.8066 1.787,-1.4073 0.227,-0.4842 -0.0332,-0.1418 0.3764,-0.765 0.0186,0.4976 0.0124,1.8547 -0.3232,2.1938l-1.3698 1.1476 1.473 -0.8495c0.0919,0.5122 -0.0918,2.1685 -0.1035,2.8398 -0.0084,0.4824 -0.0201,0.965 -0.0275,1.4473 -0.012,0.7728 0.0808,0.5935 0.3536,1.1921l0.1388 -0.0846c-0.0705,-1.0662 0.0968,-1.4153 0.8573,-2.4449 0.0802,-0.1085 0.8577,-0.5231 0.8631,-0.5246l0.5278 -0.1784 1.4547 0.759 0.3151 1.4167 0.4612 -0.2038c-0.0231,-0.765 -0.6166,-2.5313 -0.6436,-2.7354l0.0265 -0.9713 -0.1975 0.2976c-0.0979,-0.1789 -0.2717,-0.9932 -0.4011,-1.3204l-0.6348 -1.111c0.0034,0.2722 0.4474,1.6858 0.5488,2.0997l0.4393 2.2601c-0.2842,-0.0493 -0.438,-0.3345 -0.683,-0.4988l-0.7659 -0.447 -0.8403 0.528 0.9628 -1.4781 -0.8566 -1.4627 0.7742 -0.6008 -0.7885 -1.5893c0.0229,0.0007 0.057,-0.0227 0.0689,0.0033l0.2169 0.0706c0.4341,0.2432 0.9872,0.7626 1.3164,1.0972 0.4227,0.4298 0.8992,0.9974 1.2462,1.507l2.2617 3.3317c1.4881,-0.6929 3.5503,-2.4467 4.6202,-3.6684 3.9931,-4.5597 5.282,-9.963 4.4438,-15.9044 -0.1743,-1.2359 -0.2822,-2.5786 -0.2986,-3.8334l0.0186 -0.3429c0.3441,0.7244 0.7763,2.1995 0.9803,3.0055 0.8963,3.5427 0.6464,7.3001 -0.4368,10.7646 -1.1243,3.5957 -3.7089,7.3442 -6.8098,9.5117 -3.8127,2.6652 -7.7623,4.0926 -12.4964,3.8026 -2.1438,-0.1314 -4.546,-0.7169 -6.5091,-1.5947l-5.018 -3.2134 1.5905 0.0078zm26.7245 -28.6883l-0.0432 -0.0018 -0.0135 -0.0217 0.0567 0.0235zm-0.8079 -0.9985c-0.0445,-0.018 -0.0919,-0.0302 -0.1426,-0.0356l0.1108 -0.006 0.0318 0.0416zm-2.9337 1.3078c-0.1871,-0.3652 -1.8705,-1.6299 -2.3096,-1.9334 -4.8698,-3.3654 -11.2986,-3.7603 -16.7101,-1.3639 -0.9477,0.4197 -1.8618,0.9269 -2.7147,1.4998 -0.3385,0.2274 -0.9219,0.6533 -1.207,0.9288 -0.2323,0.2246 -0.8877,0.8973 -1.0632,1.0058l0.06 -1.1325 -0.0058 -0.2564c1.0863,-1.2174 3.5616,-2.4681 5.086,-3.1244 2.0539,-0.8842 4.6498,-1.3699 6.9131,-1.3812 5.5278,-0.0275 7.6388,1.7632 12.0292,4.502 0.0034,0.236 -0.0293,0.4653 -0.0142,0.6972 0.004,0.0631 0.0484,0.2872 0.0485,0.2939 0.0085,0.3916 0.0589,0.1382 -0.1122,0.2643zm11.934 0.9384c0.5116,0.2645 0.7525,0.9083 0.1935,1.2714 -0.4357,0.2831 -1.2175,0.0871 -1.428,-0.386 0.242,-0.3099 0.8739,-0.7648 1.2345,-0.8854zm-0.6427 3.1581c0.9346,0.2521 1.4792,0.413 2.3093,-0.2145 0.6625,-0.5009 0.9016,-1.3425 0.7782,-2.1718 -0.1638,-1.102 -1.8299,-3.2153 -2.3354,-3.4651l-5.9939 4.3859 1.4396 1.7029c0.3994,-0.2885 1.7565,-1.4113 2.1465,-1.3929l-0.4195 1.5674c-0.1615,0.4041 -0.4668,0.8762 -0.5913,1.2378l1.5573 1.6602c0.8812,-2.0388 0.6077,-1.2389 1.1092,-3.3099zm-3.7705 -9.4797c0.5507,0.3717 1.3347,1.256 1.8991,1.5224l1.022 -1.296 -3.476 -3.0739c-1.0728,1.2411 -4.0042,4.4927 -4.7744,5.5106l3.946 3.3002 1.0345 -1.4245 -1.986 -1.7477 0.6803 -0.7741 1.818 1.5122 1.0004 -1.3094 -1.7633 -1.538 0.5994 -0.6818zm-18.8236 40.6949c1.7014,-0.1048 2.9283,-0.3899 4.5714,-0.7152l0.2429 1.7303 -2.4215 0.4751 0.1308 1.0385 2.2198 -0.3136 0.2125 1.6082 -2.1342 0.4707 0.3041 2.6093 -2.3515 0.2539c-0.116,-0.9836 -0.8924,-6.668 -0.7743,-7.1572zm-0.6164 1.5885l-2.4704 -0.1501 -0.11 1.1461 2.1431 0.2061 -0.2297 1.6988 -2.2875 -0.2207 -0.442 2.5979 -2.3332 -0.3877c-0.0267,-0.3739 1.1034,-6.1511 1.266,-7.0376 0.2773,-0.0579 1.7047,0.2657 2.1558,0.3092l2.4529 0.179c0.0597,0.2945 -0.0976,1.3025 -0.145,1.659zm8.4257 -1.4966l0.2869 0.8407 2.1355 -0.8406 0.5717 1.6664 -2.0853 0.8221 0.3559 0.9456 2.682 -1.0142 0.5988 1.7163 -4.8463 1.8443c-0.7953,-2.0981 -1.6798,-4.7164 -2.4422,-6.8778 0.7313,-0.2717 1.4522,-0.4759 2.1931,-0.7603l2.1578 -0.8863 0.6287 1.6948 -2.2366 0.849zm-21.9008 1.3952l-0.9637 1.7784c-1.0501,-0.302 -2.1479,-1.3806 -2.6128,-2.3413 -0.6189,-1.2784 -0.6123,-2.7823 0.2579,-3.9408 0.7846,-1.0446 2.0534,-1.7281 3.4091,-1.4285l2.7578 2.275 -1.2567 1.0388c-0.3815,-0.5152 -0.5957,-1.0575 -1.3763,-1.1219 -1.3804,-0.1141 -2.5957,1.4333 -1.7383,2.7068 0.4838,0.7187 0.9232,0.6837 1.523,1.0335zm26.7253 -3.9409l0.5028 0.7557 1.943 -1.3036 1.0048 1.3059 -1.9322 1.3633 0.5711 0.8579 2.2032 -1.4643 1.1072 1.3688 -4.2113 2.9542c-0.7832,-1.0081 -3.1624,-4.6829 -4.0825,-6.0411l3.8707 -2.559 0.9864 1.3233c-0.4039,0.4759 -1.4614,1.0035 -1.9632,1.4389zm8.2157 -18.7778l2.3922 0.0008 0.7181 -2.2737c0.1131,0.0419 0.0277,-0.1351 0.1433,0.145l0.6395 2.1518 2.3132 0.0227 -1.8499 1.4405 0.7163 2.331 -1.8918 -1.3865 -1.9582 1.326 0.6529 -2.2722c-0.3934,-0.335 -1.7354,-1.1183 -1.8756,-1.4854zm-44.4472 1.4814l0.6899 2.2724 -1.8501 -1.326 -2.0385 1.3296 0.7179 -2.2719 -1.8695 -1.4788 2.3234 -0.0153 0.7889 -2.2426 0.7993 2.2329 2.312 0.0613c-0.19,0.3555 -1.5035,1.0378 -1.8733,1.4384zm0.8298 -8.5525l-5.1856 -3.4252c0.1719,-0.8499 1.3831,-3.2211 2.0179,-3.7959 1.3172,-1.1928 2.9088,-0.8334 4.2631,0.0725 1.2756,0.8532 2.0707,2.4338 1.5686,3.9731 -0.3284,1.0066 -1.7086,2.7546 -2.664,3.1755zm4.4089 -10.2355c2.1262,0.1391 1.2914,0.0067 3.451,0.5253l-1.3687 1.8189c-0.3776,-0.0607 -0.895,-0.2805 -1.3208,-0.3703l-1.6161 -0.1446c0.0487,0.3874 1.3876,1.5318 1.7402,1.876l-1.4309 1.7101 -5.3484 -5.1533c0.1594,-0.5407 1.9557,-2.5445 3.0133,-2.8949 0.796,-0.2636 1.6661,-0.1724 2.2731,0.3945 0.7605,0.7102 0.6954,1.2743 0.6073,2.2383zm29.9066 -3.2571l-1.1714 1.9203 -1.8704 -1.0233 3.7543 -6.5195c0.4122,0.0593 1.9921,1.0932 2.4246,1.3824 0.8993,0.6013 1.5526,1.247 1.4603,2.4493 -0.1102,1.4345 -1.4156,2.8099 -3.1758,2.3789 -0.5194,-0.1271 -1.0982,-0.5311 -1.4216,-0.5881zm-4.96 -2.0626l-0.611 1.9278 -2.1847 -0.5171 2.1824 -7.264c0.4384,0.0078 2.4881,0.6177 2.9571,0.8142 2.8326,1.1865 2.0089,5.1693 -0.6888,5.2986 -0.7666,0.0368 -1.0254,-0.1915 -1.655,-0.2595zm-2.3467 -2.0053c-0.8844,4.7868 -7.6254,3.6602 -6.7165,-1.6341 0.3331,-1.9403 2.1266,-3.3076 4.1884,-2.8529 1.9836,0.4375 2.886,2.5495 2.5281,4.487zm-13.9182 2.516l1.0169 1.8131c-1.4122,1.3417 -5.0923,2.4438 -6.5328,-0.8092 -1.4146,-3.1942 0.5137,-5.0172 3.4473,-5.7963l0.5618 1.9971c-0.7435,0.0404 -1.317,0.1214 -1.7876,0.7727 -0.4216,0.5836 -0.3846,1.4305 -0.0717,2.0473 0.518,1.0211 1.7581,1.2053 2.6716,0.6197 0.378,-0.2424 0.4664,-0.4902 0.6945,-0.6444zm3.1854 -6.5637l2.2894 -0.3951c0.2326,1.2234 0.5805,2.4478 0.8269,3.6732l0.8172 3.6762 -2.2391 0.3463 -0.6731 -2.7283 -1.2531 0.2896 0.6757 2.7455 -2.1886 0.5805 -1.8553 -7.2471 2.0857 -0.4983 0.7565 2.5203 1.3126 -0.3603c-0.0172,-0.792 -0.5533,-1.8624 -0.5548,-2.6025zm-24.4046 29.7509c0.8657,17.1415 14.9241,29.6671 32.0298,28.8693 16.9673,-0.7914 29.6944,-15.3724 28.6548,-32.2357 -0.5,-8.1115 -3.8308,-15.1592 -9.7611,-20.686 -5.8993,-5.4978 -14.1236,-8.6429 -22.2018,-8.1414 -17.0215,1.0568 -29.5822,15.1552 -28.7217,32.1938zm28.7876 -34.147c-8.6677,0.396 -16.2488,4.0492 -22.2419,10.2375 -6.0656,6.2633 -8.9165,15.2349 -8.6353,23.8432 0.1454,4.451 1.3194,8.9312 3.2882,12.9194 1.8218,3.6902 3.9755,6.4934 6.9332,9.3319 6.2454,5.9933 15.2306,8.973 23.8106,8.5876 18.0218,-0.8092 31.8573,-15.9957 30.8092,-34.0473 -1.0423,-17.9487 -15.9229,-31.6964 -33.964,-30.8723z"/>
  <path class="fil0" d="M31.6232 22.9545l1.7634 1.8862 -1.8098 1.7759 0.6154 0.7897c0.2133,-0.0013 1.6161,-0.139 1.7446,-0.2242l1.0227 -0.9961 1.0777 0.9577 1.8242 0.2409 0.5732 -0.6892 -1.8478 -1.8619 1.7839 -1.877 -1.4805 -1.332 -1.9317 1.7757 -1.935 -1.7517 -1.4003 1.306z"/>
  <path class="fil1" d="M10.7071 43.9334c-0.0136,0.0261 -0.037,0.0529 -0.0703,0.0803 -0.0334,0.0274 -0.0705,0.0532 -0.1112,0.0776 -0.0408,0.0243 -0.0821,0.0449 -0.1241,0.0616 -0.042,0.0167 -0.077,0.0279 -0.1053,0.0337 -0.0135,0.0016 -0.0278,0.0031 -0.0426,0.0043 -0.0148,0.0011 -0.0284,-0.0009 -0.0408,-0.0058 -0.0147,-0.0061 -0.0304,-0.0189 -0.0468,-0.0384 -0.0165,-0.0197 -0.0315,-0.0419 -0.045,-0.0668 -0.0136,-0.025 -0.0266,-0.0495 -0.039,-0.0739 -0.0123,-0.0245 -0.0214,-0.0435 -0.0273,-0.0574 -0.0227,-0.0007 -0.0445,0.001 -0.0654,0.0046 -0.0209,0.0037 -0.0416,0.0079 -0.0622,0.0125 -0.0786,0.0169 -0.155,0.0414 -0.2291,0.0738 -0.0742,0.0323 -0.1455,0.0691 -0.2139,0.1102 0.0015,0.0035 0.0034,0.0129 0.0058,0.0282 0.0024,0.0154 0.0043,0.0248 0.0058,0.0283 0.0041,0.0145 0.0098,0.034 0.0171,0.0586 0.0073,0.0245 0.0138,0.0498 0.0198,0.0759 0.0059,0.0261 0.01,0.0514 0.0122,0.076 0.0023,0.0246 0,0.0434 -0.0068,0.0565 -0.0057,0.0106 -0.0148,0.0215 -0.0274,0.033 -0.0125,0.0114 -0.0265,0.022 -0.0418,0.0315 -0.0154,0.0095 -0.0307,0.018 -0.0459,0.0255 -0.0153,0.0075 -0.0285,0.0125 -0.0396,0.0152 -0.0403,0.0109 -0.0801,0.0231 -0.1193,0.0366 -0.0392,0.0135 -0.08,0.021 -0.1222,0.0225 -0.0195,0.0022 -0.0394,0.0023 -0.0595,0.0006 -0.0201,-0.0017 -0.0392,-0.0069 -0.0572,-0.0157 -0.0296,-0.0119 -0.053,-0.0337 -0.0704,-0.0651 -0.0186,-0.0392 -0.0299,-0.0804 -0.0339,-0.1236 -0.0039,-0.0433 -0.0079,-0.0865 -0.0119,-0.1298 -0.0024,-0.0154 -0.0048,-0.044 -0.0072,-0.0858 -0.0023,-0.042 -0.0055,-0.0895 -0.0097,-0.1429 -0.0042,-0.0534 -0.008,-0.1095 -0.0114,-0.1683 -0.0034,-0.0589 -0.0067,-0.1151 -0.01,-0.1689 -0.0033,-0.0537 -0.006,-0.1011 -0.008,-0.1422 -0.002,-0.041 -0.0033,-0.0696 -0.004,-0.0856 -0.003,-0.0988 -0.0041,-0.1969 -0.0033,-0.2943 0.0007,-0.0972 0.0039,-0.1951 0.0093,-0.2934 0.0004,-0.0185 0.0007,-0.037 0.001,-0.0556 0.0003,-0.0185 0.002,-0.0365 0.0048,-0.054 0.0041,-0.0385 0.0095,-0.0766 0.0162,-0.1141 0.0066,-0.0375 0.0186,-0.0743 0.0361,-0.1102 0.0219,-0.0399 0.0534,-0.0732 0.0943,-0.0996 0.0408,-0.0264 0.082,-0.0464 0.1233,-0.0598 0.0087,-0.0036 0.0255,-0.0097 0.0505,-0.0183 0.025,-0.0085 0.0513,-0.0175 0.0789,-0.0271 0.0276,-0.0096 0.0537,-0.0181 0.0781,-0.0254 0.0245,-0.0073 0.0415,-0.0119 0.0509,-0.0138 0.0205,-0.0046 0.0414,-0.0084 0.0627,-0.0112 0.0212,-0.0029 0.0417,-0.0002 0.0614,0.0077 0.0257,0.0076 0.0487,0.0209 0.0689,0.0399 0.0203,0.019 0.0399,0.0388 0.0588,0.0594 0.004,0.0045 0.0126,0.0152 0.0258,0.0321 0.0132,0.0168 0.0281,0.035 0.0446,0.0546 0.0164,0.0197 0.0313,0.0378 0.0445,0.0547 0.0133,0.0169 0.0218,0.0276 0.0258,0.032 0.0511,0.0581 0.101,0.1172 0.1499,0.1773 0.0489,0.06 0.0966,0.121 0.1432,0.183 0.0498,0.0648 0.0978,0.1287 0.1439,0.192 0.0461,0.0632 0.096,0.1243 0.1495,0.1835 0.0117,0.0134 0.0325,0.0383 0.0622,0.0748 0.0297,0.0364 0.0614,0.0751 0.0951,0.116 0.0335,0.041 0.0644,0.0801 0.0924,0.1173 0.0279,0.0371 0.0469,0.0629 0.0569,0.077 0.0015,0.0035 0.003,0.008 0.0042,0.0135 0.0014,0.0055 0.0027,0.0101 0.0042,0.0136 0.0145,0.0245 0.0238,0.0528 0.0282,0.0846 0.0042,0.0319 -0.0003,0.0609 -0.0138,0.087zm-1.2864 -0.195c0.0686,-0.0309 0.138,-0.0587 0.2083,-0.0833 0.0703,-0.0246 0.1407,-0.0477 0.2112,-0.0694 -0.0673,-0.1062 -0.1392,-0.2086 -0.2155,-0.3072 -0.0763,-0.0985 -0.1558,-0.1945 -0.2383,-0.2884 -0.0063,0.1252 -0.0056,0.2501 0.0019,0.3744 0.0077,0.1245 0.0184,0.2491 0.0324,0.3739zm1.8663 -0.0131c-0.0466,0.0298 -0.0954,0.0545 -0.1464,0.074 -0.051,0.0195 -0.1035,0.0355 -0.1574,0.0481 -0.0222,0.0054 -0.0451,0.0094 -0.0685,0.0121 -0.0232,0.0027 -0.0452,-0.0008 -0.0656,-0.0106 -0.0198,-0.0079 -0.0348,-0.022 -0.0454,-0.0421 -0.0105,-0.02 -0.0207,-0.0392 -0.0305,-0.0575 -0.0504,-0.0952 -0.0961,-0.1913 -0.1371,-0.2883 -0.041,-0.0971 -0.0814,-0.1954 -0.1214,-0.2949 -0.0464,-0.1194 -0.0921,-0.2374 -0.1374,-0.354 -0.0452,-0.1169 -0.0892,-0.2356 -0.132,-0.3563 -0.0107,-0.0303 -0.0221,-0.0607 -0.0341,-0.0914 -0.0119,-0.0307 -0.0241,-0.0608 -0.0366,-0.0903 -0.0029,-0.0069 -0.0064,-0.0177 -0.0106,-0.0322 -0.0041,-0.0146 -0.0081,-0.0303 -0.0121,-0.047 -0.004,-0.0166 -0.0076,-0.0325 -0.0108,-0.0475 -0.0033,-0.0149 -0.0043,-0.0258 -0.0031,-0.0324 0.0002,-0.0287 0.0103,-0.0543 0.0303,-0.0771 0.02,-0.0228 0.041,-0.0419 0.0631,-0.0573 0.0466,-0.0299 0.0959,-0.0558 0.1479,-0.0778 0.052,-0.022 0.1051,-0.0413 0.1593,-0.0581 0.0292,-0.0083 0.0587,-0.0145 0.0885,-0.019 0.0297,-0.0044 0.0601,-0.004 0.0909,0.0015 0.034,0.008 0.069,0.0228 0.1046,0.0446 0.0429,0.0288 0.0837,0.0591 0.1226,0.0906 0.0389,0.0317 0.0789,0.0622 0.12,0.0919 0.1141,0.0866 0.2299,0.1684 0.3472,0.2454 0.1174,0.0771 0.2389,0.1483 0.3645,0.2137 -0.0379,-0.08 -0.076,-0.1594 -0.1144,-0.2382 -0.0384,-0.0787 -0.0777,-0.1586 -0.118,-0.2396 -0.0233,-0.0453 -0.0465,-0.0907 -0.0698,-0.136 -0.0232,-0.0453 -0.0456,-0.091 -0.0671,-0.1371 -0.0095,-0.0225 -0.0183,-0.0459 -0.0265,-0.07 -0.0081,-0.0241 -0.0122,-0.0484 -0.0123,-0.0728 -0.0016,-0.0423 0.0121,-0.0777 0.0409,-0.1062 0.0198,-0.0207 0.0422,-0.0377 0.0671,-0.0514 0.025,-0.0136 0.0504,-0.0258 0.0764,-0.0368 0.0139,-0.0059 0.033,-0.0149 0.0574,-0.0273 0.0244,-0.0124 0.0502,-0.0238 0.0775,-0.0342 0.0271,-0.0105 0.0538,-0.0188 0.0799,-0.0247 0.0262,-0.0058 0.0462,-0.0067 0.0603,-0.0024 0.0214,0.0073 0.0426,0.0248 0.0636,0.0528 0.0209,0.0279 0.0409,0.0592 0.0597,0.0943 0.0189,0.0349 0.0356,0.0696 0.0503,0.1043 0.0146,0.0347 0.0263,0.0624 0.0351,0.0832 0.0883,0.1996 0.1747,0.399 0.2589,0.5983 0.0842,0.1994 0.1644,0.4014 0.2406,0.6061 0.0071,0.0215 0.0162,0.0432 0.0275,0.065 0.0113,0.0217 0.0195,0.0439 0.0249,0.066 0.0045,0.0206 0.0061,0.0424 0.0046,0.0655 -0.0014,0.0231 -0.0074,0.044 -0.0179,0.0627 -0.0104,0.0187 -0.0257,0.0348 -0.0455,0.0483 -0.0198,0.0135 -0.0396,0.0235 -0.0594,0.0298 -0.0035,0.0014 -0.0106,0.0039 -0.0214,0.0075 -0.0108,0.0034 -0.0217,0.0076 -0.033,0.0124 -0.0113,0.0048 -0.0221,0.0093 -0.0324,0.0137 -0.0105,0.0044 -0.0175,0.0074 -0.0209,0.0088 -0.0284,0.01 -0.0573,0.018 -0.0863,0.0242 -0.0291,0.0061 -0.0582,0.0082 -0.0877,0.0063 -0.0261,0.0009 -0.0518,-0.0031 -0.077,-0.0118 -0.0252,-0.0088 -0.0495,-0.0194 -0.0732,-0.0319 -0.0508,-0.0235 -0.0994,-0.0505 -0.1459,-0.0809 -0.0466,-0.0303 -0.0934,-0.0601 -0.1404,-0.0892 -0.1301,-0.0758 -0.261,-0.1476 -0.3928,-0.2155 -0.1318,-0.0679 -0.265,-0.1377 -0.3995,-0.2096 0.0081,0.019 0.022,0.051 0.0419,0.0956 0.0199,0.0447 0.0426,0.0959 0.068,0.1536 0.0253,0.0577 0.0522,0.1189 0.0805,0.1835 0.0284,0.0646 0.0552,0.1258 0.0806,0.1834 0.0254,0.0578 0.0472,0.1094 0.0654,0.1548 0.0181,0.0454 0.0312,0.0777 0.0393,0.0967 0.0094,0.0225 0.0169,0.046 0.0221,0.0704 0.0051,0.0243 0.0041,0.0472 -0.0031,0.0687 -0.0061,0.0147 -0.0154,0.0279 -0.0279,0.0393 -0.0126,0.0114 -0.0259,0.0221 -0.04,0.0323zm2.6015 -1.0867c-0.09,0.0624 -0.1897,0.1102 -0.2994,0.1433 -0.1096,0.0329 -0.2198,0.0515 -0.3304,0.0553 -0.0735,0.0003 -0.1469,-0.008 -0.2205,-0.0249 -0.0734,-0.0169 -0.1428,-0.0422 -0.2081,-0.0759 -0.053,-0.0287 -0.1031,-0.0627 -0.1503,-0.102 -0.0472,-0.0392 -0.091,-0.0821 -0.131,-0.1285 -0.0532,-0.0632 -0.0998,-0.1325 -0.1396,-0.2075 -0.04,-0.075 -0.0703,-0.1542 -0.0911,-0.2372 -0.0318,-0.1235 -0.0441,-0.2505 -0.0369,-0.3812 0.0071,-0.1307 0.0318,-0.2571 0.0742,-0.3791 0.0229,-0.0668 0.0558,-0.1303 0.0988,-0.1903 0.043,-0.0601 0.0934,-0.1115 0.1509,-0.1542 0.0702,-0.0561 0.1461,-0.104 0.2274,-0.1435 0.0814,-0.0395 0.1657,-0.0694 0.253,-0.09 0.0487,-0.0104 0.098,-0.0195 0.1478,-0.0272 0.0499,-0.0078 0.0999,-0.0101 0.1503,-0.0068 0.0319,0.0028 0.063,0.0076 0.0934,0.0142 0.0303,0.0065 0.0597,0.0171 0.0883,0.0316 0.0529,0.0287 0.0963,0.0706 0.1298,0.1259 0.0181,0.0332 0.031,0.0696 0.0385,0.1093 0.0077,0.0397 0.0081,0.0783 0.0015,0.1158 -0.0047,0.0327 -0.0129,0.0663 -0.0248,0.1009 -0.0119,0.0347 -0.0283,0.066 -0.0491,0.0942 -0.0208,0.0282 -0.0446,0.0515 -0.0715,0.0701 -0.0269,0.0185 -0.0567,0.0275 -0.0896,0.0271 -0.0346,0.0004 -0.0685,-0.0063 -0.1018,-0.0198 -0.0333,-0.0135 -0.0672,-0.0273 -0.1017,-0.0413 -0.0346,-0.014 -0.0712,-0.0246 -0.1099,-0.0317 -0.0387,-0.0071 -0.0773,-0.0077 -0.1156,-0.0017 -0.0247,0.0043 -0.0495,0.0122 -0.0743,0.0237 -0.0247,0.0115 -0.0458,0.0281 -0.0633,0.0497 -0.0163,0.0191 -0.0285,0.0412 -0.0364,0.0659 -0.0079,0.0249 -0.0123,0.0507 -0.0132,0.0776 -0.0024,0.0378 0.0019,0.0758 0.013,0.114 0.011,0.0383 0.0233,0.0759 0.037,0.1131 0.0307,0.0728 0.0629,0.1454 0.0966,0.218 0.0338,0.0726 0.0721,0.1427 0.115,0.2104 0.0166,0.0296 0.0385,0.0572 0.0655,0.0826 0.027,0.0253 0.0567,0.0424 0.089,0.0512 0.0292,0.0061 0.0593,0.0036 0.0903,-0.0075 0.031,-0.0111 0.0566,-0.027 0.0764,-0.0476 0.0154,-0.0167 0.0267,-0.0347 0.0338,-0.0541 0.0072,-0.0193 0.0139,-0.0386 0.0201,-0.0575 0.0024,-0.0091 0.0052,-0.018 0.0087,-0.0267 0.0035,-0.0086 0.0052,-0.018 0.005,-0.0281 0.0013,-0.0067 -0.0021,-0.0205 -0.01,-0.0418 -0.0079,-0.0211 -0.0125,-0.0355 -0.0136,-0.0431 -0.0023,-0.0053 -0.0053,-0.0137 -0.0092,-0.0254 -0.0038,-0.0116 -0.0083,-0.0184 -0.0132,-0.0203 -0.0025,-0.001 -0.0054,-0.0009 -0.0089,0.0006 -0.0034,0.0014 -0.0061,0.0026 -0.0079,0.0033 -0.0189,0.008 -0.0364,0.0175 -0.0523,0.0283 -0.0159,0.0107 -0.0337,0.0193 -0.0535,0.0256 -0.0112,0.0027 -0.0229,0.0041 -0.0351,0.0041 -0.0121,0 -0.0235,-0.0027 -0.0342,-0.0084 -0.0074,-0.0031 -0.0153,-0.0109 -0.0238,-0.0238 -0.0084,-0.0127 -0.0172,-0.0263 -0.0264,-0.0409 -0.0093,-0.0144 -0.0171,-0.0285 -0.0239,-0.0419 -0.0067,-0.0136 -0.0119,-0.0246 -0.0156,-0.0333 -0.0105,-0.02 -0.0184,-0.0422 -0.0236,-0.0666 -0.0052,-0.0244 -0.0028,-0.0468 0.0069,-0.0673 0.0128,-0.0279 0.0345,-0.0513 0.0652,-0.0704 0.037,-0.0238 0.0753,-0.0441 0.1152,-0.061 0.0399,-0.0168 0.0793,-0.0345 0.1185,-0.0531 0.0529,-0.0244 0.1056,-0.0486 0.1577,-0.0727 0.0522,-0.0241 0.1072,-0.0422 0.1654,-0.0545 0.0188,-0.0039 0.0375,-0.0066 0.0562,-0.0084 0.0186,-0.0018 0.0371,-0.0004 0.0554,0.0041 0.0369,0.015 0.0682,0.0407 0.0936,0.0768 0.032,0.0417 0.0593,0.0858 0.082,0.1325 0.0227,0.0465 0.0423,0.0939 0.0586,0.1422 0.0177,0.0517 0.0336,0.1037 0.0475,0.156 0.0139,0.0524 0.0175,0.1044 0.0109,0.1563 -0.0017,0.0007 -0.0028,0.0032 -0.0031,0.0074 -0.0002,0.0042 0,0.0071 0.0008,0.0089 -0.0027,0.0951 -0.0249,0.1852 -0.0666,0.2702 -0.029,0.0571 -0.0659,0.11 -0.1108,0.1586 -0.0448,0.0485 -0.0941,0.0913 -0.148,0.1284zm1.547 -0.675c-0.0238,0.0161 -0.0487,0.0308 -0.0749,0.0439 -0.0261,0.0131 -0.0531,0.0255 -0.0808,0.0372 -0.0302,0.0107 -0.0604,0.0214 -0.0905,0.0322 -0.0302,0.0107 -0.0619,0.0179 -0.0951,0.0217 -0.0356,0.0027 -0.0681,-0.0044 -0.0978,-0.0215 -0.0297,-0.0171 -0.0528,-0.0426 -0.0691,-0.0765 -0.0059,-0.0138 -0.016,-0.0392 -0.0306,-0.0759 -0.0145,-0.0367 -0.0312,-0.0788 -0.0501,-0.1259 -0.0189,-0.0472 -0.038,-0.0973 -0.0574,-0.1504 -0.0194,-0.0531 -0.0385,-0.1032 -0.0574,-0.1503 -0.0188,-0.0472 -0.0356,-0.0892 -0.0501,-0.126 -0.0145,-0.0367 -0.0247,-0.0621 -0.0305,-0.0759 -0.1258,-0.0367 -0.2475,-0.0818 -0.3651,-0.1353 -0.1176,-0.0534 -0.2319,-0.115 -0.3429,-0.1845 -0.0251,-0.016 -0.05,-0.0325 -0.0746,-0.0497 -0.0247,-0.0171 -0.0468,-0.0369 -0.0664,-0.0592 -0.0157,-0.0179 -0.0288,-0.039 -0.039,-0.0632 -0.0103,-0.0243 -0.0151,-0.0478 -0.0145,-0.0705 0.0008,-0.0371 0.0093,-0.0724 0.0258,-0.1059 0.0165,-0.0335 0.0345,-0.0656 0.0542,-0.0964 0.0093,-0.0121 0.0225,-0.029 0.04,-0.0506 0.0173,-0.0216 0.0358,-0.0422 0.0552,-0.0616 0.0193,-0.0194 0.0391,-0.0365 0.0595,-0.0512 0.0203,-0.0147 0.0382,-0.0233 0.0535,-0.0256 0.0272,-0.0034 0.0542,0 0.0809,0.0102 0.0268,0.0101 0.0511,0.0219 0.073,0.0351 0.0131,0.0067 0.0356,0.0201 0.0677,0.0403 0.0319,0.0202 0.0682,0.0432 0.1086,0.069 0.0406,0.0257 0.0835,0.0535 0.1288,0.0834 0.0453,0.03 0.0884,0.0582 0.1293,0.0848 0.0409,0.0267 0.0769,0.0503 0.108,0.0708 0.0312,0.0205 0.0536,0.0351 0.0674,0.0436 0.0188,-0.1101 0.0314,-0.2206 0.0377,-0.3315 0.0062,-0.1109 0.0158,-0.2212 0.0287,-0.3308 0.0024,-0.0234 0.008,-0.0477 0.0167,-0.0729 0.0087,-0.0252 0.0221,-0.0456 0.04,-0.0613 0.0152,-0.0126 0.0374,-0.0214 0.0668,-0.0267 0.0295,-0.0053 0.0609,-0.0084 0.0942,-0.0092 0.0334,-0.0008 0.0653,0 0.096,0.0024 0.0306,0.0023 0.0555,0.0046 0.0748,0.0067 0.0319,0.0029 0.063,0.0102 0.0934,0.0217 0.0305,0.0117 0.0585,0.0285 0.0841,0.0504 0.0287,0.0245 0.0483,0.0561 0.0584,0.0947 0.0065,0.0299 0.0094,0.0599 0.0088,0.0898 -0.0006,0.0299 -0.0028,0.0599 -0.0064,0.0899 -0.0059,0.0537 -0.0144,0.1062 -0.0253,0.1578 -0.0109,0.0516 -0.0226,0.1036 -0.0352,0.1558 -0.0247,0.0963 -0.0513,0.1907 -0.0795,0.2833 -0.0282,0.0927 -0.0585,0.1855 -0.0906,0.2788 0.0139,0.0329 0.0364,0.08 0.0675,0.1415 0.031,0.0615 0.061,0.1264 0.09,0.1948 0.0289,0.0685 0.0526,0.1345 0.0714,0.1982 0.0186,0.0635 0.0243,0.1132 0.0169,0.149 -0.0038,0.02 -0.0126,0.039 -0.0264,0.0571 -0.0138,0.0181 -0.0295,0.0329 -0.0471,0.0444z"/>
  <path class="fil1" d="M57.0257 42.6818c-0.0421,-0.007 -0.0831,-0.0176 -0.1231,-0.0317 -0.04,-0.0142 -0.0792,-0.0312 -0.1177,-0.051 -0.0147,-0.008 -0.0284,-0.016 -0.0412,-0.0241 -0.0128,-0.0082 -0.0237,-0.0186 -0.0328,-0.0314 -0.0159,-0.0176 -0.0232,-0.0369 -0.0215,-0.0579 -0.0012,-0.0185 0.0008,-0.037 0.0059,-0.0555 0.0051,-0.0186 0.0113,-0.0363 0.0184,-0.0531 0.0354,-0.0968 0.0726,-0.1924 0.1116,-0.2868 0.0388,-0.0944 0.0802,-0.1891 0.1239,-0.2842 -0.0091,0.0087 -0.0238,0.0233 -0.0441,0.0436 -0.0203,0.0203 -0.0435,0.0434 -0.0697,0.0692 -0.0262,0.0259 -0.0546,0.0536 -0.0851,0.0831 -0.0304,0.0294 -0.0588,0.0571 -0.0851,0.083 -0.0262,0.0259 -0.0498,0.0488 -0.0709,0.0687 -0.0209,0.02 -0.0357,0.0336 -0.0442,0.0409 -0.0154,0.0151 -0.0326,0.029 -0.0514,0.0418 -0.0189,0.0127 -0.039,0.0208 -0.0604,0.0245 -0.0278,0.0063 -0.0554,0.0054 -0.0827,-0.0026 -0.0273,-0.0078 -0.0536,-0.018 -0.079,-0.0306 -0.0031,-0.0013 -0.0092,-0.0047 -0.0185,-0.0105 -0.0093,-0.0057 -0.0155,-0.0092 -0.0186,-0.0104 -0.0245,-0.0104 -0.0477,-0.0225 -0.0699,-0.0364 -0.022,-0.0137 -0.0405,-0.031 -0.0551,-0.0516 -0.0124,-0.0178 -0.0201,-0.0378 -0.0235,-0.0599 -0.0032,-0.0221 -0.0051,-0.0432 -0.0057,-0.0632 -0.0007,-0.0112 -0.0011,-0.0316 -0.0012,-0.0614 0,-0.0298 -0.0003,-0.0632 -0.0008,-0.1003 -0.0005,-0.0372 -0.0005,-0.0769 0.0001,-0.1189 0.0007,-0.0421 0.0011,-0.0815 0.0014,-0.1184 0.0002,-0.0368 0.0001,-0.0698 -0.0003,-0.0988 -0.0004,-0.0289 0.0002,-0.0494 0.0017,-0.0615 -0.0084,0.0199 -0.0246,0.0581 -0.0485,0.1148 -0.0238,0.0566 -0.0492,0.1166 -0.076,0.1801 -0.0268,0.0635 -0.0529,0.1231 -0.0783,0.1792 -0.0254,0.0559 -0.0431,0.0935 -0.053,0.1127 -0.0093,0.0177 -0.0205,0.0356 -0.0335,0.0535 -0.0128,0.0179 -0.0292,0.0309 -0.0487,0.0388 -0.0174,0.0071 -0.0365,0.0085 -0.0572,0.0043 -0.0208,-0.0043 -0.0403,-0.0084 -0.0583,-0.0124 -0.016,-0.0049 -0.0372,-0.0134 -0.0636,-0.0254 -0.0265,-0.0122 -0.0538,-0.0254 -0.0818,-0.04 -0.0282,-0.0146 -0.0536,-0.0299 -0.0766,-0.0459 -0.023,-0.016 -0.0387,-0.0312 -0.047,-0.0454 -0.0044,-0.0109 -0.0076,-0.0227 -0.0096,-0.0352 -0.0019,-0.0126 -0.0021,-0.0248 -0.0007,-0.0368 0.0043,-0.0271 0.0185,-0.0715 0.0428,-0.1334 0.0243,-0.0618 0.0512,-0.1275 0.0805,-0.1971 0.0294,-0.0696 0.0579,-0.1351 0.0855,-0.1964 0.0277,-0.0612 0.0467,-0.1041 0.057,-0.1286 0.0323,-0.0765 0.0634,-0.1522 0.0931,-0.227 0.0298,-0.0748 0.0628,-0.1488 0.099,-0.2217 0.0186,-0.0355 0.0366,-0.0717 0.0539,-0.1084 0.0174,-0.0369 0.0338,-0.0737 0.0493,-0.1103 0.0144,-0.03 0.0293,-0.0589 0.0447,-0.0867 0.0153,-0.0277 0.0365,-0.0503 0.0636,-0.0677 0.02,-0.0131 0.0434,-0.0195 0.0703,-0.0191 0.0268,0.0006 0.0512,0.0046 0.0732,0.0121 0.0093,0.0039 0.0272,0.0115 0.054,0.0228 0.0268,0.0113 0.0559,0.0235 0.0872,0.0368 0.0313,0.0132 0.0604,0.0255 0.0871,0.0367 0.0269,0.0114 0.0448,0.0189 0.054,0.0228 0.0214,0.009 0.0426,0.0207 0.0636,0.035 0.021,0.0143 0.0381,0.0314 0.0513,0.0514 0.009,0.0128 0.0154,0.0276 0.0191,0.0445 0.0037,0.0169 0.0068,0.033 0.0093,0.0485 0.0038,0.0251 0.0054,0.0492 0.0046,0.0723 -0.0007,0.0231 -0.0015,0.0462 -0.0022,0.0693 -0.0027,0.0619 -0.0087,0.1229 -0.0178,0.1831 -0.0092,0.0601 -0.0174,0.1202 -0.0247,0.1802 -0.009,0.0683 -0.0145,0.1366 -0.0164,0.2053 -0.0018,0.0685 -0.0054,0.1368 -0.0107,0.2049 0.004,-0.0055 0.0144,-0.0173 0.0311,-0.0355 0.0167,-0.0182 0.0341,-0.037 0.0523,-0.0564 0.018,-0.0194 0.0352,-0.0378 0.0516,-0.0552 0.0164,-0.0175 0.0277,-0.0293 0.034,-0.0356 0.0208,-0.0237 0.0412,-0.0475 0.0612,-0.0716 0.0201,-0.024 0.0397,-0.0481 0.0589,-0.0724 0.0194,-0.0242 0.0451,-0.0576 0.0774,-0.0999 0.0322,-0.0421 0.0678,-0.0849 0.1067,-0.1279 0.0389,-0.0431 0.0775,-0.0813 0.116,-0.1145 0.0384,-0.0334 0.0722,-0.0529 0.1016,-0.0585 0.022,-0.0052 0.0449,-0.0049 0.0687,0.0005 0.0238,0.0056 0.0468,0.0122 0.0688,0.0196 0.0076,0.0032 0.0226,0.0095 0.0448,0.0189 0.0222,0.0094 0.046,0.019 0.0716,0.0289 0.0255,0.0099 0.0494,0.0195 0.0716,0.0288 0.0222,0.0094 0.0371,0.0157 0.0448,0.0189 0.0244,0.0104 0.0482,0.0223 0.0714,0.0356 0.0232,0.0134 0.0429,0.0307 0.0592,0.052 0.0131,0.02 0.0198,0.0426 0.02,0.0679 0.0001,0.0253 -0.0028,0.0493 -0.0088,0.072 -0.0017,0.0083 -0.007,0.025 -0.0157,0.0501 -0.0088,0.0252 -0.0188,0.052 -0.03,0.0806 -0.0112,0.0287 -0.0212,0.0555 -0.03,0.0807 -0.0088,0.025 -0.0148,0.0415 -0.018,0.0492 -0.0363,0.1072 -0.0771,0.2115 -0.1227,0.3131 -0.0456,0.1015 -0.0895,0.2046 -0.1319,0.3092 -0.0097,0.023 -0.0247,0.0608 -0.0452,0.1134 -0.0204,0.0527 -0.043,0.1085 -0.0679,0.1674 -0.0248,0.0588 -0.0497,0.1137 -0.0748,0.1644 -0.025,0.0507 -0.0458,0.0852 -0.0625,0.1033 -0.0125,0.0128 -0.0283,0.0214 -0.0474,0.0259 -0.0191,0.0047 -0.0377,0.0049 -0.0558,0.0009zm1.6679 0.6661c-0.0248,0.0075 -0.0562,0.0091 -0.094,0.0049 -0.0378,-0.0042 -0.077,-0.0118 -0.1175,-0.0226 -0.0405,-0.0107 -0.0789,-0.0243 -0.1154,-0.0405 -0.0363,-0.0163 -0.065,-0.0316 -0.086,-0.0459 -0.0094,-0.0075 -0.0191,-0.0156 -0.0289,-0.0243 -0.0099,-0.0087 -0.017,-0.0184 -0.0214,-0.0293 -0.0054,-0.0131 -0.0069,-0.0309 -0.0045,-0.0533 0.0022,-0.0225 0.007,-0.0457 0.0144,-0.0696 0.0074,-0.0239 0.015,-0.0473 0.0228,-0.0701 0.0079,-0.0228 0.0143,-0.0403 0.0195,-0.0526 -0.0136,-0.0147 -0.028,-0.0275 -0.0432,-0.0385 -0.0152,-0.0109 -0.0306,-0.0215 -0.0461,-0.0316 -0.0591,-0.0394 -0.1217,-0.0725 -0.1877,-0.0996 -0.0662,-0.0269 -0.1333,-0.0494 -0.2014,-0.0673 -0.0013,0.003 -0.0061,0.01 -0.0143,0.021 -0.0082,0.0109 -0.013,0.0179 -0.0143,0.0209 -0.0067,0.0116 -0.0155,0.0274 -0.0265,0.047 -0.011,0.0197 -0.0229,0.0394 -0.0359,0.0592 -0.0128,0.0198 -0.0263,0.038 -0.0406,0.0545 -0.0141,0.0166 -0.0274,0.0267 -0.0398,0.0304 -0.0103,0.003 -0.0228,0.004 -0.0378,0.0031 -0.0149,-0.0009 -0.0301,-0.0033 -0.0456,-0.0071 -0.0155,-0.0038 -0.0303,-0.0084 -0.0444,-0.0133 -0.0141,-0.0051 -0.0254,-0.0103 -0.034,-0.0158 -0.0316,-0.0188 -0.0638,-0.0364 -0.0965,-0.0529 -0.0327,-0.0165 -0.0626,-0.0376 -0.0895,-0.0633 -0.0133,-0.0111 -0.0257,-0.0236 -0.037,-0.0374 -0.0113,-0.0138 -0.0197,-0.029 -0.0253,-0.0457 -0.0106,-0.0262 -0.0112,-0.0544 -0.0021,-0.0848 0.0133,-0.0357 0.0325,-0.0682 0.0574,-0.0973 0.0249,-0.0293 0.0498,-0.0584 0.0747,-0.0874 0.0083,-0.011 0.0249,-0.0302 0.0499,-0.0574 0.025,-0.0273 0.0531,-0.0586 0.0843,-0.0942 0.0313,-0.0354 0.0643,-0.0724 0.0995,-0.1107 0.0351,-0.0384 0.0686,-0.0752 0.1006,-0.1103 0.032,-0.0351 0.0603,-0.066 0.085,-0.0925 0.0247,-0.0265 0.0419,-0.045 0.0517,-0.0553 0.0606,-0.0626 0.122,-0.1237 0.184,-0.1831 0.0621,-0.0595 0.1259,-0.1177 0.1914,-0.1748 0.0119,-0.0111 0.0239,-0.0223 0.0358,-0.0335 0.0119,-0.0111 0.0243,-0.0213 0.0371,-0.0303 0.0269,-0.0211 0.0543,-0.0411 0.082,-0.06 0.0279,-0.0188 0.0585,-0.0339 0.0921,-0.0449 0.0387,-0.0107 0.0791,-0.0113 0.1209,-0.0017 0.0419,0.0096 0.0798,0.0233 0.1137,0.0412 0.0077,0.0033 0.0219,0.0101 0.0427,0.0207 0.0207,0.0106 0.0426,0.0216 0.0657,0.0332 0.0231,0.0115 0.0445,0.0228 0.0641,0.0338 0.0197,0.011 0.0331,0.0189 0.0401,0.0236 0.0155,0.0102 0.0307,0.0211 0.0456,0.0329 0.0148,0.0117 0.0259,0.0262 0.0329,0.0436 0.011,0.0208 0.0168,0.0436 0.0172,0.068 0.0005,0.0246 0,0.0492 -0.0013,0.0738 -0.0004,0.0053 -0.0019,0.0172 -0.0044,0.036 -0.0025,0.0188 -0.0049,0.0394 -0.0072,0.0618 -0.0022,0.0225 -0.0046,0.0431 -0.0072,0.0619 -0.0025,0.0188 -0.004,0.0308 -0.0044,0.036 -0.0052,0.068 -0.0119,0.136 -0.0198,0.2039 -0.0079,0.0678 -0.0171,0.1356 -0.0276,0.2032 -0.0103,0.0713 -0.0212,0.1411 -0.0329,0.2091 -0.0116,0.0681 -0.0196,0.1373 -0.0239,0.2075 -0.0013,0.0157 -0.0044,0.0442 -0.0091,0.0854 -0.0048,0.0413 -0.0098,0.0851 -0.015,0.1315 -0.0052,0.0466 -0.0109,0.09 -0.0172,0.1306 -0.0064,0.0406 -0.0109,0.0684 -0.0136,0.0835 -0.0013,0.0031 -0.0033,0.0067 -0.006,0.011 -0.0028,0.0043 -0.0047,0.0079 -0.006,0.0109 -0.0066,0.0243 -0.0187,0.0476 -0.0362,0.0699 -0.0176,0.0224 -0.0388,0.0373 -0.0636,0.0449zm-0.6684 -0.9336c0.0619,0.0243 0.1222,0.0511 0.181,0.0804 0.0588,0.0294 0.1168,0.0597 0.1738,0.091 0.0259,-0.1081 0.0464,-0.2166 0.0617,-0.3255 0.0153,-0.1088 0.0272,-0.2183 0.0358,-0.3282 -0.0831,0.0731 -0.1617,0.1504 -0.2357,0.2317 -0.074,0.0814 -0.1461,0.165 -0.2166,0.2506zm1.7061 1.4147c-0.0949,-0.0184 -0.1862,-0.052 -0.2738,-0.1007 -0.0876,-0.0487 -0.1658,-0.1064 -0.2349,-0.1735 -0.0454,-0.0462 -0.0854,-0.0976 -0.1199,-0.1546 -0.0346,-0.057 -0.0613,-0.1164 -0.0801,-0.1785 -0.0145,-0.0511 -0.0239,-0.1037 -0.0281,-0.1578 -0.0042,-0.054 -0.0039,-0.1079 0.0008,-0.1618 0.0072,-0.0726 0.0223,-0.1447 0.0452,-0.2161 0.023,-0.0714 0.0543,-0.1393 0.094,-0.2036 0.0586,-0.0961 0.1314,-0.1821 0.2184,-0.2579 0.087,-0.0759 0.1821,-0.138 0.2854,-0.1864 0.0563,-0.0267 0.1168,-0.0449 0.1812,-0.0546 0.0645,-0.0097 0.1279,-0.0095 0.1904,0.0005 0.0787,0.0098 0.1556,0.0284 0.2307,0.0555 0.075,0.0272 0.1459,0.062 0.2126,0.1046 0.0365,0.0244 0.0726,0.0501 0.1082,0.0768 0.0355,0.0267 0.0679,0.057 0.0968,0.0908 0.0178,0.0219 0.0339,0.0446 0.0485,0.0678 0.0145,0.0233 0.0259,0.0484 0.0344,0.0754 0.0144,0.0511 0.0146,0.1043 0.0002,0.1596 -0.0098,0.0318 -0.025,0.0623 -0.0455,0.0916 -0.0204,0.0292 -0.0445,0.0533 -0.0723,0.0721 -0.0235,0.0173 -0.0498,0.0326 -0.0791,0.0464 -0.0292,0.0139 -0.0591,0.0228 -0.0898,0.027 -0.0305,0.0043 -0.06,0.0036 -0.0883,-0.0021 -0.0282,-0.0056 -0.0523,-0.0189 -0.0723,-0.0399 -0.0215,-0.0218 -0.0382,-0.0473 -0.0501,-0.0766 -0.0119,-0.0294 -0.0242,-0.0593 -0.0365,-0.0898 -0.0123,-0.0304 -0.0282,-0.0601 -0.0476,-0.089 -0.0193,-0.0289 -0.0426,-0.0536 -0.07,-0.0741 -0.0179,-0.0131 -0.0382,-0.0239 -0.0607,-0.0324 -0.0225,-0.0086 -0.0459,-0.0118 -0.0704,-0.0094 -0.0221,0.0014 -0.0436,0.0072 -0.0641,0.0175 -0.0206,0.0102 -0.0396,0.0234 -0.0572,0.0394 -0.0254,0.0217 -0.0468,0.0478 -0.0641,0.0783 -0.0175,0.0305 -0.0337,0.0615 -0.0487,0.093 -0.0271,0.0642 -0.0533,0.1294 -0.0785,0.1954 -0.0251,0.0659 -0.0459,0.1333 -0.0622,0.2021 -0.0086,0.0288 -0.0126,0.0596 -0.012,0.0923 0.0007,0.0326 0.0081,0.0619 0.0224,0.0878 0.0174,0.0271 0.0431,0.0475 0.0771,0.0609 0.0339,0.0134 0.0674,0.0154 0.1002,0.0058 0.0329,-0.0096 0.0625,-0.0241 0.0887,-0.0436 0.0263,-0.0196 0.0538,-0.0377 0.0825,-0.0545 0.0193,-0.0117 0.0408,-0.0188 0.0644,-0.0214 0.0236,-0.0026 0.0454,0.0003 0.0652,0.0086 0.0153,0.0065 0.0296,0.0143 0.0429,0.0235 0.0132,0.0092 0.0269,0.0186 0.0409,0.0281 0.0124,0.0088 0.0308,0.022 0.055,0.0394 0.0241,0.0174 0.0481,0.0365 0.0718,0.0573 0.0236,0.0208 0.0454,0.0417 0.0654,0.0628 0.0199,0.0209 0.0322,0.0388 0.0369,0.0534 0.0084,0.027 0.0077,0.0564 -0.0022,0.0883 -0.0078,0.0273 -0.0203,0.0526 -0.0375,0.076 -0.0171,0.0235 -0.0369,0.0449 -0.0594,0.0641 -0.0415,0.0384 -0.0878,0.0702 -0.139,0.0955 -0.0512,0.0253 -0.1048,0.0423 -0.1608,0.0511 -0.042,0.0057 -0.0843,0.0076 -0.1269,0.0059 -0.0424,-0.0017 -0.0852,-0.0071 -0.1282,-0.0163zm0.9765 0.4148c-0.0556,-0.009 -0.1099,-0.0256 -0.1628,-0.0497 -0.0529,-0.0242 -0.1026,-0.0514 -0.1492,-0.0819 -0.0202,-0.0121 -0.0394,-0.0274 -0.0577,-0.046 -0.0183,-0.0186 -0.0308,-0.0391 -0.0374,-0.0617 -0.005,-0.0184 -0.0043,-0.037 0.0019,-0.056 0.0063,-0.019 0.0121,-0.0373 0.0177,-0.0547 0.0331,-0.087 0.0678,-0.1723 0.1041,-0.2562 0.0363,-0.0837 0.0739,-0.1678 0.1132,-0.2522 0.0052,-0.0122 0.0155,-0.0345 0.0308,-0.0668 0.0155,-0.0322 0.033,-0.0694 0.0526,-0.1116 0.0196,-0.0422 0.0401,-0.0866 0.0617,-0.1334 0.0216,-0.0468 0.0425,-0.0912 0.0628,-0.1329 0.0204,-0.0419 0.038,-0.0791 0.0526,-0.1117 0.0146,-0.0326 0.0256,-0.0554 0.0329,-0.0686 0.002,-0.0046 0.0066,-0.0165 0.0139,-0.036 0.0073,-0.0194 0.012,-0.0314 0.0139,-0.036 0.0065,-0.0153 0.0154,-0.0354 0.0268,-0.0604 0.0114,-0.0249 0.0245,-0.0504 0.0391,-0.0767 0.0148,-0.0262 0.0297,-0.0501 0.0451,-0.0715 0.0153,-0.0215 0.0307,-0.0353 0.0459,-0.0415 0.0109,-0.0044 0.0229,-0.0061 0.0359,-0.0052 0.0132,0.0011 0.0264,0.0027 0.04,0.0047 0.0128,0.0037 0.0336,0.0111 0.0622,0.0223 0.0286,0.0112 0.0581,0.0236 0.0884,0.0373 0.0302,0.0136 0.0588,0.0271 0.0857,0.0402 0.0269,0.0132 0.0461,0.0231 0.0577,0.0298 0.0201,0.012 0.0385,0.0262 0.0551,0.0422 0.0167,0.0161 0.0276,0.035 0.0328,0.057 0.0054,0.0258 0.0046,0.052 -0.0022,0.0789 -0.0069,0.0268 -0.015,0.0536 -0.0244,0.0802 -0.005,0.0159 -0.0162,0.0449 -0.034,0.087 -0.0178,0.0421 -0.037,0.0867 -0.0579,0.1338 -0.0207,0.0471 -0.0408,0.0917 -0.0605,0.1339 -0.0196,0.0422 -0.0327,0.071 -0.0391,0.0863 -0.034,0.0721 -0.0667,0.143 -0.0979,0.2127 -0.0312,0.0698 -0.0624,0.1413 -0.0934,0.2147 -0.0284,0.0673 -0.0554,0.1348 -0.0812,0.2023 -0.0258,0.0674 -0.0544,0.1343 -0.0859,0.2002 -0.0097,0.0229 -0.0205,0.0464 -0.0323,0.0702 -0.0119,0.0238 -0.0281,0.0431 -0.0488,0.0579 -0.0156,0.0114 -0.033,0.0184 -0.0521,0.0211 -0.0192,0.0028 -0.0379,0.0021 -0.056,-0.002zm0.6251 0.2611c-0.042,-0.0159 -0.084,-0.0336 -0.1262,-0.0532 -0.0422,-0.0196 -0.0812,-0.0424 -0.1172,-0.0684 -0.0125,-0.0088 -0.0241,-0.0187 -0.0348,-0.0295 -0.0107,-0.0109 -0.0199,-0.0224 -0.0273,-0.0346 -0.0117,-0.0193 -0.0165,-0.042 -0.0144,-0.0682 0.003,-0.033 0.0103,-0.0651 0.0216,-0.0963 0.0115,-0.0312 0.0235,-0.0622 0.0364,-0.0927 0.0493,-0.1252 0.1009,-0.2485 0.1549,-0.37 0.0539,-0.1213 0.107,-0.244 0.1593,-0.3679 0.0038,-0.0092 0.0116,-0.0285 0.0231,-0.0578 0.0114,-0.0294 0.024,-0.0602 0.0375,-0.0923 0.0136,-0.0322 0.0261,-0.0629 0.0376,-0.0922 0.0116,-0.0295 0.0192,-0.0487 0.023,-0.0579 0.0156,-0.0368 0.0321,-0.0726 0.0495,-0.1075 0.0175,-0.035 0.0382,-0.0682 0.0623,-0.0995 0.0151,-0.0189 0.0331,-0.0356 0.0536,-0.0504 0.0206,-0.0146 0.0421,-0.0227 0.0644,-0.0242 0.0377,-0.0038 0.0736,0.0005 0.108,0.0132 0.0342,0.0127 0.0685,0.0253 0.1028,0.038 0.0444,0.0188 0.088,0.0381 0.131,0.0579 0.043,0.02 0.0863,0.0401 0.13,0.0603 0.056,0.0255 0.112,0.0496 0.1681,0.0724 0.0562,0.0227 0.1129,0.0453 0.1701,0.0677 0.0092,0.0038 0.0226,0.0095 0.0402,0.0169 0.0176,0.0074 0.0356,0.016 0.0541,0.0256 0.0185,0.0096 0.0362,0.0189 0.0532,0.0278 0.0169,0.009 0.0282,0.0174 0.0339,0.0252 0.0112,0.0119 0.0168,0.0274 0.017,0.0463 0.0001,0.019 -0.0021,0.0392 -0.0068,0.0607 -0.0045,0.0215 -0.0111,0.0426 -0.0198,0.0633 -0.0087,0.0206 -0.0163,0.0386 -0.0228,0.0538 -0.0051,0.0123 -0.0131,0.0288 -0.0236,0.0496 -0.0106,0.0208 -0.0222,0.0419 -0.035,0.0637 -0.0127,0.0216 -0.0258,0.0408 -0.0392,0.0577 -0.0134,0.0169 -0.026,0.0283 -0.0375,0.0342 -0.0158,0.0077 -0.0334,0.0098 -0.0526,0.0062 -0.0191,-0.0036 -0.0375,-0.0082 -0.055,-0.0138 -0.019,-0.0062 -0.055,-0.02 -0.1081,-0.0416 -0.0531,-0.0215 -0.1104,-0.0447 -0.1719,-0.0698 -0.0616,-0.0251 -0.1187,-0.0487 -0.1715,-0.071 -0.0528,-0.0223 -0.0884,-0.0373 -0.1067,-0.045 -0.0166,0.0308 -0.0328,0.0618 -0.0487,0.093 -0.0158,0.0311 -0.0305,0.0628 -0.0441,0.0949 0.0147,0.0079 0.0435,0.0197 0.0866,0.0351 0.043,0.0155 0.0887,0.0321 0.1371,0.0497 0.0484,0.0178 0.0934,0.035 0.135,0.0517 0.0416,0.0166 0.0694,0.0297 0.0834,0.0392 0.0088,0.0092 0.0151,0.0199 0.0188,0.0323 0.0014,0.0096 0.0006,0.0191 -0.0026,0.0286 -0.0031,0.0096 -0.0065,0.0189 -0.0104,0.0281 -0.0045,0.0107 -0.0109,0.0268 -0.0193,0.0486 -0.0081,0.0217 -0.0179,0.0438 -0.0291,0.0661 -0.0113,0.0223 -0.0222,0.0429 -0.0328,0.0618 -0.0107,0.0189 -0.0204,0.032 -0.0288,0.0393 -0.0091,0.0087 -0.0212,0.0127 -0.0361,0.0118 -0.015,-0.0009 -0.0308,-0.004 -0.0474,-0.0093 -0.0167,-0.0052 -0.0335,-0.0114 -0.0503,-0.0185 -0.0169,-0.0071 -0.0307,-0.0129 -0.0414,-0.0175 -0.0091,-0.0038 -0.0283,-0.0119 -0.0573,-0.0241 -0.0291,-0.0123 -0.0601,-0.0254 -0.0929,-0.0393 -0.0329,-0.0138 -0.0639,-0.0269 -0.093,-0.0392 -0.029,-0.0122 -0.0482,-0.0203 -0.0573,-0.0242 -0.0102,0.0282 -0.0211,0.0564 -0.033,0.0847 -0.012,0.0283 -0.0226,0.0577 -0.0319,0.088 0.0086,0.0054 0.0266,0.013 0.054,0.0228 0.0274,0.0098 0.0561,0.0196 0.0862,0.0296 0.03,0.01 0.0587,0.0189 0.0859,0.0268 0.0274,0.008 0.0456,0.0138 0.0548,0.0177 0.0107,0.0045 0.0319,0.013 0.0635,0.0255 0.0317,0.0124 0.0653,0.0257 0.1008,0.0398 0.0355,0.0141 0.0689,0.0277 0.1004,0.041 0.0313,0.0132 0.0523,0.0221 0.0631,0.0266 0.0107,0.0045 0.0208,0.0102 0.0306,0.0171 0.0097,0.0067 0.0161,0.0152 0.0189,0.0254 0.003,0.0103 0.0025,0.0209 -0.0013,0.0319 -0.0037,0.0112 -0.0067,0.0215 -0.0091,0.0314 -0.0045,0.0107 -0.0128,0.0315 -0.025,0.0624 -0.0122,0.0309 -0.0249,0.0634 -0.0384,0.0973 -0.0134,0.034 -0.0265,0.0659 -0.0391,0.0957 -0.0125,0.0299 -0.0211,0.0501 -0.0256,0.0608 -0.0026,0.0061 -0.0062,0.0136 -0.0108,0.0225 -0.0046,0.0089 -0.0097,0.0185 -0.0149,0.0289 -0.0052,0.0104 -0.0109,0.0193 -0.0167,0.0267 -0.0058,0.0074 -0.012,0.0125 -0.0186,0.0152 -0.0043,0.0017 -0.0092,0.0015 -0.0145,-0.0008 -0.0054,-0.0022 -0.0107,-0.0036 -0.0159,-0.0039 -0.015,-0.0028 -0.0414,-0.0108 -0.0791,-0.024 -0.0377,-0.0132 -0.0783,-0.0281 -0.1218,-0.0446 -0.0434,-0.0165 -0.0836,-0.0322 -0.1207,-0.047 -0.037,-0.0146 -0.0627,-0.0242 -0.0771,-0.0284 -0.0503,-0.0176 -0.0998,-0.0358 -0.1487,-0.0547 -0.0488,-0.0188 -0.0977,-0.0385 -0.1466,-0.0592zm1.2713 0.5555c-0.023,-0.0096 -0.0543,-0.0229 -0.0941,-0.0397 -0.0398,-0.0168 -0.0798,-0.0351 -0.1201,-0.0548 -0.0404,-0.0197 -0.0769,-0.041 -0.1097,-0.0638 -0.0327,-0.0228 -0.0539,-0.0461 -0.0636,-0.0701 -0.0086,-0.018 -0.0093,-0.04 -0.002,-0.0657 0.01,-0.0408 0.0254,-0.0794 0.0461,-0.1157 0.0207,-0.0363 0.0376,-0.0742 0.0507,-0.1138 0.005,-0.0159 0.0176,-0.048 0.0379,-0.0962 0.0203,-0.0482 0.0418,-0.099 0.0644,-0.1526 0.0226,-0.0535 0.0439,-0.104 0.0639,-0.1514 0.02,-0.0474 0.0333,-0.0788 0.0397,-0.0941 0.0065,-0.0153 0.0168,-0.0407 0.0309,-0.0762 0.014,-0.0355 0.0304,-0.0754 0.0491,-0.1198 0.0187,-0.0443 0.0382,-0.0915 0.0585,-0.1415 0.0202,-0.0501 0.0396,-0.0974 0.0583,-0.1417 0.0188,-0.0444 0.0358,-0.0835 0.0511,-0.1177 0.0153,-0.034 0.0277,-0.0581 0.0372,-0.0721 0.0108,-0.017 0.0215,-0.0337 0.0319,-0.05 0.0105,-0.0163 0.0248,-0.0287 0.0428,-0.0374 0.0143,-0.0084 0.0299,-0.0131 0.0465,-0.0141 0.0167,-0.0011 0.0337,-0.0007 0.0509,0.0012 0.0452,0.0082 0.0907,0.022 0.1366,0.0414 0.0266,0.0094 0.0532,0.0202 0.0796,0.0322 0.0265,0.0121 0.0517,0.0258 0.0759,0.0415 0.0148,0.0116 0.0284,0.0264 0.0408,0.0442 0.0122,0.0179 0.019,0.036 0.0202,0.0545 0.0027,0.0318 -0.0055,0.077 -0.0248,0.1356 -0.0193,0.0585 -0.0425,0.1199 -0.0696,0.1841 -0.0271,0.0642 -0.0546,0.1252 -0.0825,0.1828 -0.0279,0.0576 -0.048,0.1009 -0.0603,0.13 -0.0358,0.0804 -0.071,0.1606 -0.1056,0.2406 -0.0347,0.08 -0.0676,0.1612 -0.0987,0.2435 0.064,0.0235 0.1265,0.0472 0.1876,0.0711 0.0611,0.024 0.1228,0.0474 0.1853,0.0701 0.0174,0.0056 0.0348,0.0125 0.0521,0.0206 0.0173,0.0082 0.032,0.0194 0.044,0.0335 0.0096,0.0112 0.0159,0.0243 0.0187,0.0389 0.0028,0.0148 0.0031,0.0289 0.0011,0.0424 -0.0013,0.0157 -0.0068,0.0395 -0.0167,0.0714 -0.0099,0.0319 -0.0215,0.0648 -0.0349,0.0988 -0.0134,0.034 -0.0266,0.0663 -0.0395,0.0969 -0.0129,0.0306 -0.023,0.0524 -0.0304,0.0655 -0.011,0.026 -0.0263,0.043 -0.0458,0.0509 -0.0124,0.0038 -0.025,0.0048 -0.0378,0.0031 -0.0128,-0.0019 -0.0256,-0.0046 -0.0384,-0.0081 -0.0918,-0.0262 -0.1806,-0.0569 -0.2666,-0.0923 -0.086,-0.0353 -0.1729,-0.0707 -0.2607,-0.106z"/>
 </g>
</svg>
