<?xml version="1.0" encoding="UTF-8"?>
<!DOCTYPE svg PUBLIC "-//W3C//DTD SVG 1.1//EN" "http://www.w3.org/Graphics/SVG/1.1/DTD/svg11.dtd">
<!-- Creator: CorelDRAW -->
<svg xmlns="http://www.w3.org/2000/svg" xml:space="preserve" width="130mm" height="150mm" style="shape-rendering:geometricPrecision; text-rendering:geometricPrecision; image-rendering:optimizeQuality; fill-rule:evenodd; clip-rule:evenodd"
viewBox="0 0 130 150"
 xmlns:xlink="http://www.w3.org/1999/xlink">
 <defs>
  <style type="text/css">
   <![CDATA[
    .fil2 {fill:#CE5665}
    .fil4 {fill:#E47C81}
    .fil3 {fill:#F9F5EB}
    .fil0 {fill:#FCB7AD}
    .fil1 {fill:#FD99A3}
   ]]>
  </style>
 </defs>
 <g id="Capa_x0020_1">
  <metadata id="CorelCorpID_0Corel-Layer"/>
  <g id="_780962008">
   <path id="_413914120" class="fil0" d="M37.6294 116.251c1.3853,0.3897 1.0146,-0.3608 1.9634,-0.2509 0.4742,0.0549 1.0786,0.5994 1.6327,0.06 0.512,-0.4984 -0.0283,-1.2501 0.2609,-1.7855 0.3365,-0.623 0.7659,-0.346 0.613,-1.471 -3.0847,-1.3688 -1.1751,-0.845 -2.4557,-1.7852 -1.8418,1.3903 -1.1421,0.9942 -3.2006,1.9256 1.0932,1.9898 0.8458,1.2075 1.1863,3.307zm-9.426 -23.4249l0.7415 1.5911 2.0318 1.6483 2.0334 0.2447c0.1974,-2.2672 -0.0322,-1.4533 0.9014,-3.4425 -0.7224,-0.6513 -1.0657,-0.1867 -1.5793,-0.7811l-1.3783 -1.2164c-1.0265,0.5972 -0.5195,0.7345 -1.0633,1.2935 -0.4378,0.4501 -0.9909,0.2005 -1.6872,0.6624zm-28.1955 -23.0991c-0.0094,1.0529 -0.007,0.0653 1.3138,1.9561l2.5429 -0.4097c0.3049,-0.5425 0.019,-2.1207 -0.0911,-2.997l-2.4668 -0.5957c-0.5488,0.6936 -0.1865,0.6598 -0.4681,1.218 -0.1984,0.3933 -0.4636,0.2711 -0.8307,0.8283zm26.0715 13.5122c-1.8626,0.8718 -0.5169,3.3431 1.2497,2.4694 1.4383,-0.7113 0.5485,-3.3111 -1.2497,-2.4694zm6.6714 -25.681l0.8841 0.051c0.3769,-0.8218 0.229,-1.0636 -0.6476,-1.1919 -0.4028,0.4219 -0.5869,0.5662 -0.2365,1.1409zm-16.4118 42.8249c0.4288,1.4861 3.0946,0.6522 2.4162,-1.1491 -0.4888,-1.2979 -2.9733,-0.7821 -2.4162,1.1491zm-6.85 11.6963c0.5805,1.3958 3.0208,0.5232 2.3499,-1.167 -0.4698,-1.1837 -3.2019,-0.8813 -2.3499,1.167zm-7.6544 -63.0602c0.533,0.4792 0.4403,0.4154 1.1761,0.3302 0.6373,-0.5389 0.7716,-0.8536 0.2666,-1.6027 -1.1977,-0.5302 -1.7244,0.0797 -1.4427,1.2725zm32.1847 55.6212c1.6806,-1.9422 -2.3084,-2.2603 -0.9498,-0.0813l0.9498 0.0813zm-20.0801 -69.4458l0.0055 1.0249c0.5243,0.2587 0.4886,0.3114 1.1099,0.0503l0.0743 -0.9001c-0.3871,-0.3722 -0.7419,-0.5081 -1.1897,-0.1751zm6.7963 6.1275l-0.0587 1.043 1.2309 -0.0192 -0.0034 -1.0457c-0.6683,-0.4159 -0.6149,-0.2588 -1.1688,0.0219zm5.6761 67.5777c0.4667,-0.5127 0.6578,-0.5982 0.2318,-1.3022l-1.0313 0.1215 -0.0211 0.9245 0.8206 0.2562zm-19.8976 -75.8853l0.9573 0.1352 0.0485 -1.1565 -0.9091 -0.0415c-0.3601,0.5369 -0.3566,0.4116 -0.0967,1.0628zm8.2961 55.9066c1.2254,0.2834 1.5432,-0.5044 2.481,-1.0352l3.1755 -0.7261c0.258,-1.5115 -0.6544,-2.0305 -0.4194,-2.9667l0.5446 -2.5903c-1.3212,-0.6813 -2.1514,0.0978 -3.0078,-0.3795l-2.5545 -1.325c-1.0557,0.9614 -0.6176,1.5298 -1.1131,2.5796 -0.416,0.8814 -1.9232,0.7407 -2.143,1.8113 -0.2595,1.2641 1.0451,1.5129 1.7812,1.9928 0.7663,0.4996 0.3939,1.7399 1.2555,2.6391z"/>
   <path id="_416529384" class="fil1" d="M124.656 51.8213c1.0601,2.6784 0.3178,2.3048 0.5222,2.8707 0.2519,0.6973 1.4855,0.2375 1.9772,0.366l1.4685 0.2598c0.5861,-0.7325 0.1458,-1.1138 0.5842,-1.6457l0.7858 -1.4405c-1.2683,-1.2291 -0.1476,0.7033 -2.5556,-1.9674 -1.0068,0.1182 -0.6503,0.4403 -1.2294,0.9237 -0.3768,0.3146 -1.0574,0.2926 -1.5529,0.6334zm-9.6642 -11.6957c1.0644,1.978 0.7939,1.1733 1.1518,3.3719 2.2362,-0.5552 1.3639,-0.4588 3.7247,-0.3408 0.5157,-0.8867 0.1134,-1.0435 0.1472,-1.7792l0.5713 -1.6681c-2.0017,-0.6953 -1.378,-0.269 -2.6496,-1.7149 -1.6734,0.1553 -0.864,0.4971 -1.5689,1.321 -0.363,0.4242 -0.8605,0.2871 -1.3765,0.8101zm-6.2293 15.6409l-1.9591 0.7228 1.1132 2.0179c0.0332,0.7052 -0.1374,1.4166 0.5452,1.8517 0.6999,0.446 1.2513,0.0843 1.6755,-0.49 1.8316,-2.4793 -0.0669,0.6976 2.4965,-2.5477 -1.0812,-1.689 -0.4607,0.6506 -2.1516,-2.8985l-0.8947 0.0118 -0.825 1.332zm-71.1326 60.4846c1.3853,0.3897 1.0146,-0.3608 1.9634,-0.2509 0.4742,0.0549 1.0786,0.5994 1.6327,0.06 0.512,-0.4984 -0.0283,-1.2501 0.2609,-1.7855 0.3365,-0.623 0.7659,-0.346 0.613,-1.471 -3.0847,-1.3688 -1.1751,-0.845 -2.4557,-1.7852 -1.8418,1.3903 -1.1421,0.9942 -3.2006,1.9256 1.0932,1.9898 0.8458,1.2075 1.1863,3.307zm-9.426 -23.4249l0.7415 1.5911 2.0318 1.6483 2.0334 0.2447c0.1974,-2.2672 -0.0322,-1.4533 0.9014,-3.4425 -0.7224,-0.6513 -1.0657,-0.1867 -1.5793,-0.7811l-1.3783 -1.2164c-1.0265,0.5972 -0.5195,0.7345 -1.0633,1.2935 -0.4378,0.4501 -0.9909,0.2005 -1.6872,0.6624zm-28.1955 -23.0991c-0.0094,1.0529 -0.007,0.0653 1.3138,1.9561l2.5429 -0.4097c0.3049,-0.5425 0.019,-2.1207 -0.0911,-2.997l-2.4668 -0.5957c-0.5488,0.6936 -0.1865,0.6598 -0.4681,1.218 -0.1984,0.3933 -0.4636,0.2711 -0.8307,0.8283z"/>
   <path id="_416528520" class="fil2" d="M63.2122 32.9174c0.8315,-1.8715 10.8348,-1.6742 11.8707,0.1695 -0.8559,1.8839 -10.9474,1.6329 -11.8707,-0.1695zm-3.0658 -1.5708l5.6525 -2.0572c0.1796,1.2209 -1.2493,0.4084 -4.3023,2.274l-1.5934 0.7697c-0.5278,5.0351 17.2283,8.0537 18.3581,0.0928 -0.8166,-0.4229 -0.4269,0.1497 -1.1232,-0.2392 -0.3615,-0.202 -0.6479,-0.5608 -1.0454,-0.8227 -1.5659,-1.0317 -0.7011,-0.1362 -1.9638,-1.572l4.0107 1.621c0.1077,-1.1353 -2.3975,-2.2647 -3.3952,-2.5851 -1.6119,-0.5176 -3.7578,-0.7975 -5.4579,-0.8202 -1.7422,-0.0233 -3.9892,0.0923 -5.6525,0.5944 -1.1549,0.3485 -3.6402,1.3493 -3.4876,2.7445z"/>
   <path id="_413910712" class="fil0" d="M52.7438 119.423l0.0457 0.4391 -15.4796 1.888c2.8448,2.2722 2.1718,2.1757 6.3799,2.6936 12.9674,1.596 30.9849,1.8857 43.8947,0.8152 2.8572,-0.237 5.4959,-0.5128 8.3177,-0.8115 1.3749,-0.1454 2.5424,-0.3239 3.8362,-0.7375 1.1896,-0.3802 2.3587,-0.3881 2.5607,-1.7981 -3.7213,-1.5832 -3.4778,-1.7322 -7.9212,-1.9089 -1.6273,-0.0647 -3.2892,-0.084 -4.9195,-0.1172 -1.0619,-0.0217 -4.4471,0.225 -4.6978,-0.1986 -0.6372,0.6396 -1.1606,2.1534 -1.8403,2.9796 -1.3546,1.6466 -1.673,0.8963 -2.6365,-0.1707l-2.8428 0.5819c-0.7372,-0.931 -0.9395,-2.2454 -1.2823,-3.3298l-14.499 0.0171 -0.0891 -0.6832c-0.8986,1.1092 -0.4282,4.8382 -3.1759,4.5113l-0.8577 -1.3213 -1.2991 1.1845 -3.4941 -4.0335z"/>
   <path id="_413902744" class="fil2" d="M61.0684 64.318c0.0711,-1.0862 1.176,-2.3836 2.0991,-2.8074 2.5138,-1.6521 7.3948,-1.5708 10.1114,-0.4577 1.1118,0.3576 2.5906,1.7052 2.7298,2.8642 1.3769,1.3106 0.2296,4.4276 -1.0184,5.5548 -2.3641,2.1352 -10.5182,1.8438 -12.5749,0.1507 -1.2513,-1.0302 -2.7051,-3.9185 -1.347,-5.3046zm-2.3199 0.4685c-0.1338,2.8687 0.0557,4.3797 2.2494,6.2489 3.1002,2.6415 10.8636,2.4227 13.7929,0.9499 2.9817,-1.4991 2.9965,-3.8065 3.7252,-4.6194 -0.1586,-1.591 0.2538,-2.1376 -0.4252,-3.9202 -1.2933,-3.3953 -4.6293,-4.9387 -8.1243,-5.1001 -2.5854,-0.1194 -5.3233,0.1009 -7.5616,1.4231 -2.3582,1.3929 -2.8107,2.5339 -3.6564,5.0178zm11.7627 -1.0187c-0.7508,1.2563 -0.0138,3.4084 1.8242,3.2241 1.4738,-0.1477 2.288,-2.6402 1.295,-3.5632 -0.5363,-0.2995 -0.4074,-0.1312 -0.9143,-0.3596 0.3855,1.8944 1.0053,3.2902 -1.0164,2.854l-0.2669 -2.4327 -0.3312 0.1391c-0.0654,0.003 -0.0625,0.0178 -0.2461,-0.198l-0.3443 0.3363zm1.2807 0.0493c1.0054,0.1185 0.3557,-0.0558 1.0099,0.7174 0.0642,0.7198 0.1374,0.598 -0.1486,1.2415 -1.4243,0.2389 -1.4063,-1.1151 -0.8613,-1.9589zm-1.2807 -0.0493l0.3443 -0.3363c0.1836,0.2158 0.1807,0.201 0.2461,0.198l0.3312 -0.1391 0.2669 2.4327c2.0217,0.4362 1.4019,-0.9596 1.0164,-2.854 0.5069,0.2284 0.378,0.0601 0.9143,0.3596 -0.5724,-1.4682 -2.6959,-1.1649 -3.1192,0.3391zm-5.0808 -0.1288c0.7646,0.7963 0.8507,2.2535 -0.8097,2.1026 -0.0754,-0.5564 -0.1142,-0.7284 0.0079,-1.3061 0.1753,-0.8293 0.2197,-0.6696 0.8018,-0.7965zm-1.9874 -0.0225l1.1592 -0.3954 -0.155 2.6873 1.4294 -0.1515 -0.0024 -2.3183c0.9899,1.243 0.8023,0.5893 0.6542,2.766 0.8633,-0.5556 0.4839,-2.755 -0.2049,-3.3728 -0.9505,-0.8525 -2.3716,-0.3029 -2.8805,0.7847zm0 0c-1.2977,2.8444 2.6285,4.5247 3.0854,2.5881 0.1481,-2.1767 0.3357,-1.523 -0.6542,-2.766l0.0024 2.3183 -1.4294 0.1515 0.155 -2.6873 -1.1592 0.3954z"/>
   <path id="_780967648" class="fil2" d="M81.3392 54.6126c0.6852,-0.7986 1.2741,-0.927 1.9997,0.0006 0.0992,1.8173 -2.0648,1.9845 -1.9997,-0.0006zm-2.3151 3.3926c0.9035,4.585 7.5947,3.1541 6.6952,-1.6928 -0.8585,-4.6258 -7.6778,-3.2937 -6.6952,1.6928z"/>
   <path id="_418185536" class="fil2" d="M54.1981 54.1213c1.8288,-0.4055 2.0422,1.0887 1.1892,1.6915 -0.8794,0.6214 -2.2578,-0.4472 -1.1892,-1.6915zm-2.7019 3.7144c0.7736,4.7238 7.4846,3.5133 6.7299,-1.342 -0.7456,-4.7968 -7.5261,-3.5194 -6.7299,1.342z"/>
   <path id="_780967528" class="fil2" d="M51.1135 49.743c0.9615,0.3613 1.23,-0.5325 2.0836,-1.048 0.8847,-0.5343 1.943,-0.4323 1.4148,-1.6178 -1.2805,-0.3908 -3.8224,1.5806 -3.4984,2.6658z"/>
   <path id="_780967360" class="fil2" d="M82.474 47.9765l1.9803 1.1347c0.6414,0.465 1.0932,1.1364 1.8022,0.7648l-3.5767 -2.6717 -0.2058 0.7722z"/>
   <path id="_780964648" class="fil3" d="M91.1911 80.7322c0.1771,0.3354 0.1122,0.3243 0.6062,0.2898 1.1636,0.0779 1.9771,-0.2774 3.037,-0.6692 1.7621,-0.6514 1.1188,-0.0887 2.1847,-1.5695l-0.5818 0.1274c-1.1221,-0.0072 -4.3489,1.1427 -5.2461,1.8215z"/>
   <path id="_780964600" class="fil3" d="M54.1981 54.1213c-1.0686,1.2443 0.3098,2.3129 1.1892,1.6915 0.853,-0.6028 0.6396,-2.097 -1.1892,-1.6915z"/>
   <path id="_780964216" class="fil3" d="M81.3392 54.6126c-0.0651,1.9851 2.0989,1.8179 1.9997,0.0006 -0.7256,-0.9276 -1.3145,-0.7992 -1.9997,-0.0006z"/>
   <path id="_780964168" class="fil3" d="M90.963 82.5872l-0.1803 0.8664c0.9961,0.7274 1.7985,-0.1747 1.668,-1.1638l-0.6963 -0.0068 -0.7914 0.3042z"/>
   <path id="_780964096" class="fil3" d="M71.501 48.8452c0.7044,0.4782 1.2944,0.435 1.335,-0.494 -0.6856,-0.0709 -1.0837,-0.1451 -1.335,0.494z"/>
   <path id="_780964024" class="fil3" d="M92.7028 82.2149c0.7795,0.1661 0.9464,0.1498 1.262,-0.5143 -0.5568,-0.3082 -1.3345,-0.2938 -1.262,0.5143z"/>
   <path id="_418185944" class="fil4" d="M82.6078 118.934l-4.6504 -0.4111 -0.0007 -0.3429c0.555,-0.5142 2.0344,-0.5612 2.8418,-0.7294l2.6517 -0.7417c-0.0862,0.7058 -0.327,1.7162 -0.8424,2.2251zm-14.6664 -11.5973c0.6563,-0.2591 0.3154,-0.2375 0.9846,-0.0166 0.1432,1.78 -1.6366,1.1224 -0.9846,0.0166zm-0.5763 -0.7568c-1.6728,1.3385 0.4825,3.2465 2.0384,2.2188 1.9034,-1.2572 -0.5126,-3.4396 -2.0384,-2.2188zm-34.7879 -69.4568l0.6089 0.1891c1.5413,0.2315 2.8822,1.3109 4.4002,1.8998 1.7141,0.6649 4.1157,2.4847 4.8137,4.3373 0.4426,1.1746 2.6971,5.8826 2.6885,6.4937l-0.4457 1.0417c-0.0395,0.2658 -0.5651,1.3022 -0.729,1.5855 -0.5993,1.0361 -4.9074,0.3995 -5.8215,0.1195 -1.8269,-0.5597 -4.3247,-2.6111 -4.9115,-4.3901 -1.1062,-1.6573 -1.6083,-4.1596 -1.6603,-6.1566 -0.0746,-2.8682 -0.2743,-4.3147 -0.825,-7.0658l-0.1902 -0.7403 12.3019 2.4182c1.5109,0.8508 3.0498,2.3188 3.7256,3.9142 1.001,2.3631 1.0094,2.8168 3.3896,4.0663l-0.0889 0.2862c-0.0415,0.0743 -3.4257,3.7047 -3.6725,3.9005 -0.3607,0.1616 -0.8888,-1.7542 -1.0158,-2.1462 -0.6475,-1.9971 -1.689,-5.5 -3.4893,-6.6723l-9.6482 -4.0492c0.105,0.8922 0.2804,0.2659 0.5695,0.9685zm59.829 13.6134c-0.0424,-0.6076 2.3898,-7.8549 3.871,-9.1238 0.6816,-0.5839 3.308,-2.3064 4.0097,-2.5843 1.4202,-0.5624 3.2616,-1.4211 4.6187,-2.211 0.3774,-0.1196 0.3666,-0.2318 0.4365,-0.6173 -2.5654,0.1656 -7.4652,2.3016 -9.4667,3.981 -3.3595,2.8189 -3.6255,8.0845 -4.8202,9.0137l-2.767 -3.1583 -1.2337 -0.9087c2.8731,-2.0035 2.4294,-1.3237 3.6777,-4.1544 2.3388,-5.3038 12.0431,-7.3811 16.1033,-6.598l0.0169 0.623c-0.6808,3.0362 -0.8634,4.054 -0.9839,7.243 -0.0593,1.5707 -0.5873,5.0187 -1.6593,6.1029 -0.484,1.6285 -3.078,4.2501 -4.8061,4.3111 -0.8846,0.921 -4.3648,0.5819 -5.6927,0.3639l-1.3042 -2.2828zm-38.3393 65.4216l5.4868 1.7434 -0.108 0.7715 -4.4081 0.191c-0.6911,-0.7261 -0.7425,-1.8354 -0.9707,-2.7059zm40.476 -12.0206l-0.0224 -1.5409 2.1571 1.3416 2.2463 -0.0039c-0.3726,1.4393 -3.6233,1.7413 -4.6888,0.8548 0.101,-0.7684 -0.0464,-0.3052 0.3078,-0.6516zm2.3772 -6.1809c1.1703,-0.6878 1.9617,-0.6476 3.0688,0.1165 2.0111,1.418 0.7222,4.4251 -1.7163,4.3064 -2.6031,-0.1267 -3.2325,-3.5023 -1.3525,-4.4229zm-56.4258 -19.8078c0.1008,0.7366 0.1494,0.5675 -0.2508,1.1556 -0.7334,0.0345 -1.0582,-0.4882 -1.1436,-1.1605l1.3944 0.0049zm57.4955 0.337c1.1811,-0.1017 2.9006,-0.4775 3.8379,-0.0006l-3.7502 0.9969 -0.0877 -0.9963zm-68.9072 -8.098l1.7685 -1.9551c4.3832,3.8785 3.8707,2.7676 6.0962,8.3446 0.5756,1.4425 3.8362,9.8519 3.8383,10.7224l-0.5405 0.1895c-0.9036,0.0544 -1.3767,0.0404 -2.2127,-0.3009 -0.8006,-2.9291 -0.9765,-3.8 -2.1291,-6.686 -0.8265,-2.0696 -1.4868,-4.2187 -2.647,-6.1624 -2.4599,-4.1215 -3.782,-1.9732 -5.1084,-1.2134 -1.5886,0.9101 -5.7005,1.2627 -6.5934,-0.3075l4.3713 -0.7291c1.1782,-0.4403 2.209,-1.4847 3.1568,-1.9021zm19.4206 -20.8607c0.1761,-0.4504 0.6356,-1.0186 1.0682,-1.1756 0.7354,-1.5634 5.8237,-4.4587 7.6858,-5.2377 7.3041,-3.0558 14.2543,-3.1249 21.5405,-0.1971 1.5034,0.6042 2.9265,1.246 4.3469,2.0741 0.6827,0.3981 3.2769,2.1694 3.4616,2.6641 0.7083,0.3707 1.155,0.9258 1.7322,1.4838 1.7901,1.4683 4.6388,6.0624 5.6587,8.3873 2.9993,6.8369 3.9256,15.5627 -2.8861,20.4386 -6.0321,4.3179 -9.4179,2.4602 -8.9446,4.9526l9.0247 -2.1846c0.8972,-0.6788 4.124,-1.8287 5.2461,-1.8215l0.6331 -0.2513c0.3623,0.772 0.3709,1.711 0.8891,2.723 0.4542,0.887 0.9511,1.1547 1.6479,1.7205l-0.1673 0.2195c-0.727,1.7945 -4.9971,6.2989 -6.6995,7.3528l-0.7395 0.8613c-0.403,-0.4062 -0.141,-0.3952 -0.427,-0.2979 -0.1064,2.2918 3.9177,11.9786 -3.139,19.6521 -4.4845,4.8764 -12.9462,5.6892 -19.4876,5.6134 -10.365,-0.1203 -21.5874,-2.804 -23.1832,-14.4238 -0.5716,-4.1615 0.1679,-7.2996 0.7808,-11.3358 -3.4019,-1.3321 -4.1323,-3.4861 -5.1033,-6.3163 -0.3366,-0.5941 -1.086,-2.1478 -0.9083,-2.7864 0.0676,-0.2428 0.4474,-0.9158 0.5764,-1.2993 0.1778,-0.529 0.2203,-0.9019 0.3333,-1.4354l0.1371 -0.5271c1.258,0.2316 3.2843,0.5647 4.3368,1.0784l0.0484 0.0543c1.3991,0.8776 2.9164,1.6771 4.4648,2.25 2.118,0.7835 3.7015,1.2018 4.7351,-0.3481 -2.8067,-1.2604 -6.1794,-2.5345 -8.4174,-4.5969 -6.2084,-5.7214 -6.0242,-11.3289 -3.21,-19.1279 0.8034,-2.2265 3.0816,-6.9742 4.9653,-8.1631zm-30.3023 -1.4744c1.9775,-0.3932 4.5343,0.6283 4.9632,2.6274 0.3686,0.4809 0.4125,0.6758 0.4222,1.3221 0.6916,0.5736 0.2645,2.482 -0.1293,3.2398 -0.5046,0.9709 -1.568,0.8411 -2.5696,1.3323 -2.2031,1.0804 -3.1867,2.2886 -3.1219,4.8207 0.3548,1.6871 1.7498,3.4657 3.5714,3.7202 3.1893,0.4457 4.2206,-3.2881 1.8738,-2.7942 -0.6032,3.8597 -5.9425,-1.2521 -3.1909,-3.27 1.5131,-3.065 8.6703,-1.7378 9.7105,1.531 0.4572,0.3587 0.6371,0.7576 0.6518,1.3521 1.2343,1.3989 0.1951,4.4502 -1.4762,6.3684 -3.2518,3.7323 -8.7398,3.7141 -12.8442,1.3932 -1.4416,-0.8152 -3.7417,-2.9113 -4.2647,-4.4693l-0.5614 -0.8988c-1.0348,-2.1519 -1.411,-4.1437 -0.822,-6.5395 0.8657,-3.5214 2.9581,-3.6066 3.98,-4.0505l-3.3054 -2.1714c-0.578,-0.6167 -0.892,-1.4229 -1.0321,-2.2524 -1.2475,-4.758 4.6337,-7.7767 5.2325,-5.1717 0.688,0.5298 0.2715,2.6119 -1.0736,2.5822 -0.4538,-0.4324 -0.52,-0.5155 -0.4149,-1.1568l0.8967 -0.2354 0.0059 -0.8684 -1.2097 -0.4394c-0.6474,0.7633 -1.0831,0.5845 -1.0445,1.9488 0.0232,0.8219 0.3884,1.4892 0.9939,1.9342 1.6805,1.2344 3.0075,0.4287 4.7585,0.1454zm34.5429 71.3702l3.4941 4.0335 1.2991 -1.1845 0.8577 1.3213c2.7477,0.3269 2.2773,-3.4021 3.1759,-4.5113l-0.0017 -0.6963c0.4832,-0.1105 5.8773,0.3718 7.0395,0.3853 2.2618,0.026 5.3366,-0.4104 7.2983,-0.2916l0.252 1.2687c0.3428,1.0844 0.5451,2.3988 1.2823,3.3298l2.8428 -0.5819c0.9635,1.067 1.2819,1.8173 2.6365,0.1707 0.6797,-0.8262 1.2031,-2.34 1.8403,-2.9796 0.019,-0.3689 1.1554,-3.8028 1.3491,-4.0065 1.556,-1.6361 4.2824,-1.7085 7.4274,-8.8617 2.5299,0.2873 4.0551,0.8316 6.2141,-0.7164 2.4177,-1.7336 1.2496,-2.0328 2.4597,-3.6445 1.5572,-2.0738 0.6849,-5.2678 -1.724,-6.4984 -3.1512,-1.6097 -4.9673,0.713 -5.7611,1.2351l-0.6755 -4.2547 6.3595 -6.8593c0.917,-1.2778 1.8265,-2.5455 2.7549,-3.8619 1.3439,-1.9055 0.7704,-1.4679 0.9471,-2.2985 0.169,-0.7943 0.9553,-0.8319 0.8599,-2.2512l-4.3243 -1.3088c-1.5429,-0.2578 -4.4804,0.5139 -5.2595,0.458 2.2283,-4.0715 3.4442,-5.3674 3.1684,-10.4549 -0.2925,-5.3954 -2.8398,-9.6624 -2.8741,-10.7424l7.2069 -1.9851c1.7086,-1.2711 3.1646,-2.9778 4.1319,-5.0238 1.3014,-2.753 1.2488,-4.7795 1.4132,-7.7352 0.1821,-3.2736 1.4515,-6.5926 1.314,-7.5795l-7.9189 -0.7371c-2.2242,0.2812 -5.0922,1.1239 -6.9891,2.1679 -1.7588,0.9681 -3.9349,2.6484 -5.0337,4.2973 -1.5186,2.2787 -1.6592,3.7368 -4.9237,4.2788l-4.8111 -2.5398c-1.5556,-0.7368 -3.6866,-1.3188 -5.4041,-1.7075 -5.8875,-1.3327 -13.1119,-0.6444 -18.5944,1.9879 -2.4246,1.1641 -3.3465,2.4462 -4.6083,1.9347 -2.406,-0.9753 -2.4335,-1.488 -3.6803,-3.6427 -2.7096,-4.6827 -9.1384,-6.9486 -14.4342,-7.1046 -7.3885,-0.2177 -5.5738,0.9685 -4.8476,4.514 1.2576,6.1399 -0.3067,9.4814 3.5268,14.445 1.0591,1.3713 2.4388,2.3994 4.0146,3.2565 2.3645,1.286 3.5358,0.9137 5.9909,1.1716 -1.3854,4.025 -2.5521,6.6147 -2.5547,11.0314 -0.0037,6.2757 3.0113,8.186 3.5593,9.8431 -2.2436,-0.3065 -3.1247,-0.2661 -4.7108,-0.4478l-2.5517 -5.2138c-1.4401,-2.3684 -2.1533,-2.2638 -4.0344,-3.8265 0.6415,-2.2015 0.0807,-5.1603 -0.9443,-7.634 -1.4896,-2.1232 -3.2475,-2.9968 -5.8095,-3.5426 0.0516,-3.1566 0.5931,-5.239 -1.5569,-7.4 -2.0612,-2.0718 -4.05,-2.3846 -6.8488,-1.4551l0.3395 -3.0596c-0.1592,-1.3441 -3.3879,-3.7479 -6.7192,-0.4119 -1.2524,1.2541 -1.9443,3.6977 -1.7453,5.4931 0.2442,2.2033 1.1419,3.2013 2.5215,4.5862l-2.1365 4.0046c-0.4124,1.7956 -0.373,3.5433 0.1308,5.31 0.7187,2.5205 2.8638,5.5334 4.8277,7.0281 1.1118,0.8462 2.6408,1.7005 3.9583,2.143 2.3254,0.7811 3.2373,4.094 8.42,3.3283 2.4954,-0.3687 3.1239,-1.5152 4.1192,-1.8297l3.3754 5.8067 1.3467 3.4034c0.7876,0.7404 0.9885,3.5838 1.5007,4.7735 0.9475,2.2011 3.3074,1.2453 4.3606,1.909 0.4151,0.2617 1.1756,1.206 1.599,1.6232 0.4719,0.465 1.1253,0.8892 1.6685,1.3713 -0.8753,5.2845 -1.5949,10.4454 1.198,15.7625 0.9532,1.8146 2.6063,4.025 4.1442,5.1838 1.8737,1.4118 1.207,0.5361 1.9912,2.7266 0.3346,0.9346 1.1493,2.4182 1.2602,3.2968zm17.5614 -72.3203c1.1576,0.0454 2.6219,0.014 2.3418,-1.4408 -0.7015,-0.1998 -2.1319,-0.0163 -2.7392,0.2915 -0.298,0.7391 -0.1441,0.6867 0.3974,1.1493zm2.5986 -2.9517c-0.6422,1.2115 0.7603,1.4172 1.5185,1.0912 0.1813,-0.4262 0.3667,-0.4801 -0.239,-0.9466 -0.5371,-0.4135 -0.7307,-0.3818 -1.2795,-0.1446zm-13.3815 -0.2505c0.0966,0.821 0.1115,0.8089 0.9806,0.9463 0.6408,-0.3376 0.8777,-0.4883 0.7776,-1.2037 -0.7945,-0.2884 -1.1393,-0.1516 -1.7582,0.2574zm-2.2432 2.283c0.5357,-0.5033 0.734,-0.0564 0.6303,-1.0566 -0.7647,0.0049 -1.9129,-0.1879 -1.5664,1.0092l0.9361 0.0474zm20.3207 0.0713l0.7398 -0.2113 0.2183 -0.5779 -0.4591 -0.4815c-1.3377,-0.0054 -1.4929,0.4419 -0.499,1.2707zm-17.6856 0.3842c-0.0505,-1.3839 -1.8562,-0.9982 -1.3472,0.2204 0.647,0.2549 0.8373,0.1589 1.3472,-0.2204zm4.0497 -1.2806c-0.6141,0.2051 -0.9038,0.2943 -0.7231,1.068l1.2279 0.0442c0.0844,-0.7142 0.0361,-0.7723 -0.5048,-1.1122zm11.5949 -0.3862l0.9022 -0.1157 -0.0507 -0.9763 -1.0723 -0.0036c-0.0537,0.7884 -0.111,0.4103 0.2208,1.0956zm0.4985 1.5207c-0.5103,-0.5672 -0.4484,-0.4638 -1.2467,-0.2558 -0.1706,1.1985 1.0622,1.2149 1.2467,0.2558zm4.9425 -0.3423c0.0111,-0.8846 -0.3405,-0.9036 -1.2031,-0.8555 -0.076,0.896 0.4275,0.947 1.2031,0.8555zm-18.4097 0.6977c-0.2075,-0.8154 -0.3431,-0.6866 -1.0398,-0.4827 0.1632,0.8506 0.1819,1.0428 1.0398,0.4827zm2.7699 1.818c0.7317,0.3553 1.0105,0.1334 0.9695,-0.592l-1.0653 0.0136 0.0958 0.5784zm-43.2767 13.2669c0.5265,-1.6944 2.8966,-1.5627 3.9013,0.0398 0.9759,1.5565 0.0727,3.384 -1.0808,4.5138l0.0962 0.4543c3.1865,-0.2569 3.6803,-4.5482 1.6572,-6.6504 -2.2426,-2.3301 -7.2765,-0.4323 -5.3124,1.8743l0.7385 -0.2318z"/>
   <path id="_780963040" class="fil2" d="M78.9662 8.9218c0.7224,-0.2014 2.1558,0.1554 2.2068,1.0837 0.0574,1.0449 -1.423,1.3441 -2.2391,1.0397l0.0323 -2.1234zm-0.0254 5.2848l4.1081 5.9654c1.7923,-1.2476 2.714,-2.347 1.1455,-5.4922 -1.8031,-3.6156 0.0669,-1.1207 0.8189,-3.9963 1.0739,-4.1062 -3.5935,-6.1049 -6.9663,-5.9436 -3.9666,0.1896 -2.966,7.3086 -3.1177,10.1647 -0.0888,1.671 -0.4227,4.8846 2.3116,4.1981 2.3275,-0.5844 0.8509,-3.7348 1.6999,-4.8961zm-11.0888 -3.1101c0.3721,0.6183 0.7325,1.7016 0.7152,2.4487l-1.4056 0.0043c-0.012,-0.7598 0.2888,-1.8426 0.6904,-2.453zm-1.5488 5.5099l2.954 -0.0395c0.4108,0.3956 1.4089,4.4593 3.7253,2.1265 1.1369,-1.1449 -0.0235,-4.0086 -0.4396,-5.4173 -0.6652,-2.2521 -1.8189,-9.2011 -4.654,-9.0723 -2.8455,0.1292 -4.0686,6.6967 -4.7792,8.9959 -0.4156,1.3447 -1.5562,4.211 -0.6052,5.3707 2.0663,2.52 3.4508,-1.638 3.7987,-1.964zm40.9263 2.3738l1.2305 -1.7953c0.08,0.662 0.1295,1.5945 -0.1702,2.189 -0.422,-0.0191 -0.7494,-0.1111 -1.0603,-0.3937zm-1.6788 2.8991l2.2797 0.66c0.3818,0.7935 -0.365,4.9194 2.8838,3.4107 1.388,-0.6446 1.2343,-4.0774 1.3265,-5.4635 0.1517,-2.2808 1.7479,-11.7351 -3.2157,-9.4005 -1.2943,0.6087 -4.8357,6.0848 -5.8793,7.555 -0.8951,1.2613 -2.6858,3.0344 -1.5443,4.5772 1.6364,2.2119 3.3956,-0.9101 4.1493,-1.3389zm-14.635 -7.0021l3.5798 -0.1656 0.4004 -1.0798 -3.6552 -1.696 0.4673 -1.8589 4.952 -0.0647 -0.0046 -0.3574c2.7132,-4.0214 -7.115,-3.7361 -7.9827,-3.2551 -1.4395,0.7981 -1.9631,8.6162 -2.245,10.4882 -0.7399,4.9148 5.023,5.1594 7.7251,4.153 1.6063,-0.5983 1.8536,-2.9749 0.0193,-3.6012 -1.2787,-0.4365 -5.1567,0.0348 -3.2564,-2.5625zm-38.3404 0.0156c-1.9458,0.5916 -2.009,-4.516 -2.201,-5.8923 -0.5648,-4.047 -3.8055,-2.8017 -3.8206,-0.5713 -0.0237,3.4984 0.7665,11.5011 5.3874,11.7513 6.0973,0.3302 4.9734,-7.8961 4.5793,-11.6917 -0.4667,-4.4941 -3.6162,-3.464 -3.8249,-1.3852 -0.1771,1.7648 1.2508,6.6708 -0.1202,7.7892zm-30.7791 -1.1211c-1.4001,3.0925 4.7495,4.0476 6.4459,8.888 0.605,1.7262 1.9864,4.6112 4.2398,2.6484 1.763,-1.5356 -0.5594,-4.2891 -0.5562,-6.1689 0.0021,-1.2234 1.4577,-4.3805 1.6543,-6.1914 0.3538,-3.2584 -3.0135,-3.4431 -3.8418,-1.2281 -0.9221,2.466 0.1717,5.232 -2.6401,2.9395 -1.4293,-1.1653 -3.7355,-2.9088 -5.3019,-0.8875zm17.7851 -1.0847c2.5521,-1.1247 3.4888,4.1585 1.3086,5.1125 -2.3486,1.0277 -3.7017,-4.058 -1.3086,-5.1125zm-0.2602 -4.1551c-7.0952,1.5404 -5.4143,15.2466 2.1515,13.734 7.4982,-1.499 4.855,-15.2551 -2.1515,-13.734z"/>
   <path id="_780962896" class="fil2" d="M41.6681 133.857c-0.0937,1.0002 -0.7599,1.4227 -1.7777,1.3306 -0.943,-0.0854 -0.5959,-1.3606 -0.5565,-2.2367 0.9416,-0.2884 1.9144,0.0134 2.3342,0.9061zm-2.3741 4.4758c1.0847,0.3493 2.3296,4.0438 3.1545,5.0105 1.6621,1.9474 4.2818,0.2196 3.0167,-3.356 -2.0784,-5.8745 -1.7103,-0.8231 0.1279,-4.8702 0.9759,-2.1488 -0.3401,-4.6224 -2.3017,-5.6767 -7.4704,-4.0148 -7.9429,1.0658 -7.9931,6.786 -0.0144,1.6506 -0.6772,6.5915 1.0605,7.3101 3.503,1.4487 2.5755,-3.4857 2.9352,-5.2037zm73.0659 -3.4049c-0.0049,-0.0024 -7.0713,-14.8569 -6.9807,-0.2262 0.0107,1.7203 -0.389,7.7346 1.0765,8.5657l3.0408 -6.1139c0.1232,0.062 7.0079,14.2552 6.9099,-0.0795 -0.0121,-1.7558 0.6056,-7.4839 -1.1541,-8.2623 -3.6295,-1.6056 -2.4855,4.527 -2.8924,6.1162zm-47.9711 3.9162c-0.0856,-0.6656 0.3416,-1.7003 0.6969,-2.2442l0.5808 2.2695 -1.2777 -0.0253zm-0.8516 3.3471c4.414,-0.9478 2.1998,2.4254 4.6229,3.1195 3.2997,0.9453 2.6146,-2.779 2.1433,-4.5775 -0.586,-2.236 -2.1629,-10.9285 -4.0589,-11.7278 -3.8086,-1.6057 -5.1321,6.8226 -5.9,9.2086 -0.4502,1.3988 -1.8397,4.7127 -1.1566,5.994 1.8529,3.4757 4.1864,-1.892 4.3493,-2.0168zm34.3768 -8.6773c2.7508,-1.1839 2.9717,4.808 1.0747,5.5467 -2.9619,1.1535 -3.2955,-4.5909 -1.0747,-5.5467zm-0.1123 -4.6793c-7.0697,1.158 -6.6744,16.523 1.0501,15.3776 7.0613,-1.0471 6.6123,-16.6327 -1.0501,-15.3776zm-45.3758 8.8682c1.1538,-0.5844 3.3969,0.5413 3.6107,-1.3481l-3.6064 -1.6116 0.0985 -2.3855 4.894 -0.6895 -0.0483 -0.3426c2.3051,-4.2474 -7.7934,-2.4511 -8.4008,-1.9645 -1.2539,1.0048 -0.8699,9.6673 -0.8916,11.627 -0.0575,5.1834 7.2636,4.0948 8.5768,3.1712 1.2841,-0.903 1.2396,-3.376 -0.6534,-3.8546 -1.6124,-0.4077 -5.2298,0.5884 -3.5795,-2.6018zm20.0395 -8.1506c-2.3095,0.6416 -2.1284,3.8401 0.1436,4.2828 3.9589,0.7712 2.987,-0.6374 2.9318,4.5949 -0.1105,10.4876 4.3568,8.0726 4.2946,3.2292 -0.0157,-1.2131 -0.3477,-6.749 0.0614,-7.3051 0.9433,-1.2822 4.8176,0.7642 4.8931,-2.5379 0.0775,-3.389 -9.9719,-2.9174 -12.3245,-2.2639zm-43.0335 -0.8278c-11.7849,2.3686 -2.5385,18.5926 3.5312,13.957 4.9454,-3.7771 -7.2996,-4.1749 -4.3985,-8.2863 1.4589,-2.0675 4.5395,0.2002 4.9612,-2.5976 0.4484,-2.9753 -1.6218,-3.5699 -4.0939,-3.0731zm58.7439 0.6344c-2.1584,0.4794 -3.4754,16.3217 0.6365,15.4942 2.444,-0.4919 3.4949,-16.4117 -0.6365,-15.4942z"/>
   <path id="_780962704" class="fil0" d="M32.7508 57.5583l0.8841 0.051c0.3769,-0.8218 0.229,-1.0636 -0.6476,-1.1919 -0.4028,0.4219 -0.5869,0.5662 -0.2365,1.1409zm-30.9162 -8.539c0.533,0.4792 0.4403,0.4154 1.1761,0.3302 0.6373,-0.5389 0.7716,-0.8536 0.2666,-1.6027 -1.1977,-0.5302 -1.7244,0.0797 -1.4427,1.2725zm12.1046 -13.8246l0.0055 1.0249c0.5243,0.2587 0.4886,0.3114 1.1099,0.0503l0.0743 -0.9001c-0.3871,-0.3722 -0.7419,-0.5081 -1.1897,-0.1751zm6.7963 6.1275l-0.0587 1.043 1.2309 -0.0192 -0.0034 -1.0457c-0.6683,-0.4159 -0.6149,-0.2588 -1.1688,0.0219zm-14.2215 -8.3076l0.9573 0.1352 0.0485 -1.1565 -0.9091 -0.0415c-0.3601,0.5369 -0.3566,0.4116 -0.0967,1.0628zm99.721 59.6994c-1.9891,0.9435 -0.6925,3.9186 1.4324,2.9829 1.9686,-0.8668 0.6342,-3.9631 -1.4324,-2.9829zm-2.1169 -20.5588l0.8648 0.0091c0.8181,-1.7655 -1.7783,-1.4684 -0.8648,-0.0091zm3.4763 32.9744c0.2084,1.9925 3.1483,1.5819 3.0812,-0.3394 -0.0669,-1.9131 -3.3497,-2.2284 -3.0812,0.3394zm-9.1519 8.9841c0.1712,1.8584 3.0928,1.6269 3.0512,-0.3356 -0.041,-1.9332 -3.265,-1.9855 -3.0512,0.3356zm20.5037 -33.1535c-1.9008,0.4656 -1.3422,3.3164 0.6654,2.8384 1.7431,-0.415 1.2058,-3.2968 -0.6654,-2.8384zm-8.968 6.8579c1.6375,-1.5466 0.5266,-3.1536 -0.9847,-2.6621 -1.3006,0.4229 -1.486,3.1275 0.9847,2.6621zm-12.7291 12.5719c1.3128,1.5753 3.2342,-0.0953 1.7033,-1.5304 -1.2036,-0.1484 -1.826,0.2395 -1.7033,1.5304zm-80.9101 -0.0068c0.4288,1.4861 3.0946,0.6522 2.4162,-1.1491 -0.4888,-1.2979 -2.9733,-0.7821 -2.4162,1.1491zm-6.85 11.6963c0.5805,1.3958 3.0208,0.5232 2.3499,-1.167 -0.4698,-1.1837 -3.2019,-0.8813 -2.3499,1.167zm24.5303 -7.439c1.6806,-1.9422 -2.3084,-2.2603 -0.9498,-0.0813l0.9498 0.0813zm-7.6077 4.2594c0.4667,-0.5127 0.6578,-0.5982 0.2318,-1.3022l-1.0313 0.1215 -0.0211 0.9245 0.8206 0.2562z"/>
   <path id="_780962320" class="fil4" d="M14.8101 88.9212c1.2254,0.2834 1.5432,-0.5044 2.481,-1.0352l3.1755 -0.7261c0.258,-1.5115 -0.6544,-2.0305 -0.4194,-2.9667l0.5446 -2.5903c-1.3212,-0.6813 -2.1514,0.0978 -3.0078,-0.3795l-2.5545 -1.325c-1.0557,0.9614 -0.6176,1.5298 -1.1131,2.5796 -0.416,0.8814 -1.9232,0.7407 -2.143,1.8113 -0.2595,1.2641 1.0451,1.5129 1.7812,1.9928 0.7663,0.4996 0.3939,1.7399 1.2555,2.6391zm98.0172 -18.5338l0.1096 2.279c0.7579,1.046 1.5515,0.3229 2.386,0.0111l2.914 0.3588 0.5417 -2.6511c0.8322,-0.9212 2.7487,-2.5478 0.2139,-3.1111 -1.1952,-0.2656 -1.1589,0.0481 -1.7553,-1.1094 -0.2962,-0.575 -0.7005,-1.3816 -1.4654,-1.2963 -0.7058,0.0787 -1.0653,0.9118 -1.3874,1.4523 -1.1341,1.9029 -5.2023,0.1386 -1.5571,4.0667z"/>
  </g>
 </g>
</svg>
