<?xml version="1.0" encoding="UTF-8"?>
<!DOCTYPE svg PUBLIC "-//W3C//DTD SVG 1.1//EN" "http://www.w3.org/Graphics/SVG/1.1/DTD/svg11.dtd">
<!-- Creator: CorelDRAW -->
<svg xmlns="http://www.w3.org/2000/svg" xml:space="preserve" width="50mm" height="50mm" style="shape-rendering:geometricPrecision; text-rendering:geometricPrecision; image-rendering:optimizeQuality; fill-rule:evenodd; clip-rule:evenodd"
viewBox="0 0 50 50"
 xmlns:xlink="http://www.w3.org/1999/xlink">
 <defs>
  <style type="text/css">
   <![CDATA[
    .fil0 {fill:#1A191A}
    .fil1 {fill:#1A191A;fill-rule:nonzero}
   ]]>
  </style>
 </defs>
 <g id="Capa_x0020_1">
  <metadata id="CorelCorpID_0Corel-Layer"/>
  <path class="fil0" d="M21.1465 16.1254c-0.053,-0.7866 0.2692,-1.0536 1.0215,-1.1494 -0.2726,0.5259 -0.3285,1.0712 -1.0215,1.1494zm7.6833 6.2342l-0.2859 -1.5836 1.4981 0.395c-0.0276,-0.3458 -0.3818,-0.711 -0.6324,-0.9703l-0.8299 -0.7916 2.0584 0.3033c-0.2701,-0.7273 -1.5903,-1.2805 -2.2438,-1.6091l2.2765 0.041c-0.4593,-0.7451 -1.8472,-1.0979 -2.6279,-1.3547l2.0465 -0.2992c-0.2774,-0.6164 -1.9873,-0.9101 -2.5835,-1.0534l2.7696 -0.5068c-0.5341,-0.3609 -1.1927,-0.6237 -1.857,-0.7479l-2.3889 0.1589c0.5004,-0.8122 2.1141,-1.3287 2.9815,-1.6761 -0.7048,-0.2864 -2.2648,-0.1357 -3.0184,0.0425l-2.1328 1.1172c0.0056,-0.8163 1.2144,-1.7037 1.8934,-2.0175l2.6371 -1.3568c-1.6533,-0.0483 -4.4683,0.8348 -5.8647,2.1789 -0.5024,0.4835 -0.8133,0.9244 -1.228,1.4744l-0.1469 -1.6289c-0.3729,0.3787 -0.905,2.2574 -0.8663,2.8438 0.0378,0.5717 -0.1967,0.8625 -0.5508,1.2967l-1.3093 0.5568 0.9156 2.3382c0.7027,-0.1013 0.2246,-0.2654 0.6086,-0.6239 0.4149,-0.3876 0.3138,0.1058 0.5392,-0.6722l1.4078 -1.0132c-0.1704,0.216 -0.4196,0.3367 -0.5121,0.64 -0.4197,1.376 0.0067,1.2479 -1.4481,2.0748l1.872 0.2837c0.5269,-1.4769 0.065,-1.651 1.8908,-2.6446 0.5229,-0.2845 0.4509,-0.2655 0.8455,-0.7128 0.5371,0.5257 0.8406,1.5881 0.5876,2.3271l-1.5272 1.5723 1.0317 -0.0721 -2.6399 2.8373c0.5743,-0.2001 0.9646,-0.4085 1.599,-0.547 2.0957,-0.4577 3.4551,0.1376 5.2996,0.9596 0.8588,0.3827 0.6588,0.3241 1.4908,-0.0452 0.5047,-0.2239 0.9965,-0.4482 1.5044,-0.6677 0.4853,-0.2098 1.0815,-0.4077 1.5294,-0.6491l1.2341 -0.9678c0.4974,0.0142 2.0826,0.5205 2.414,0.8777 0.1255,0.1353 0.1869,0.3329 0.3086,0.4758 0.1563,0.1836 0.259,0.2146 0.3975,0.4564l0.1915 1.4346 1.0185 2.9764c0.9908,-2.0686 0.148,-4.8635 -0.8915,-6.7888 -1.417,-2.6245 -1.684,-2.7425 -3.5758,-4.9368 0.7208,0.3092 2.5016,2.1452 3.0427,2.8037 0.9271,1.128 1.6567,2.4966 2.1107,3.8814l-1.3114 9.6665c1.4274,-0.8995 3.1325,-5.0063 3.3226,-6.647l0.2637 -9.3657c-0.5384,-0.4435 -2.6083,-1.0423 -3.3534,-1.168 -0.701,-0.1182 -2.4457,-0.3021 -3.1372,-0.0484l-0.7946 0.3315c0.4786,-0.6255 1.8682,-1.589 2.654,-1.9812 3.1165,-1.5557 6.2889,-0.9717 9.1558,0.7783l1.4209 0.9188c-0.3197,-0.8878 -1.3343,-2.2095 -1.9608,-2.8601 -4.0782,-4.2347 -9.6157,-1.6427 -12.948,2.0974 -1.3828,1.5521 -0.0083,1.9378 0.4949,3.2141 0.5576,1.4144 -0.2002,2.5196 -1.152,3.3903 -0.6823,0.6241 -2.5711,1.5312 -3.4941,1.2631z"/>
  <path class="fil0" d="M5.3884 18.3497c-0.065,3.9116 0.0456,6.9989 1.2657,10.7412 1.8481,5.6685 5.8333,10.1547 10.6497,13.5033 2.6418,1.8368 4.9155,2.9399 7.7316,4.4058 0.6188,-0.1953 3.2299,-1.6549 3.9637,-2.058 3.3407,-1.8355 7.7575,-5.154 10.0209,-8.0732 1.8792,-2.4237 3.339,-4.7913 4.2998,-7.7471 0.5094,-1.567 0.898,-3.2034 1.109,-4.8574l0.1673 -5.9225 -1.6413 -1.1427c0.031,3.6516 0.1357,7.0169 -0.9145,10.5207 -1.6839,5.618 -5.1361,9.6062 -9.8287,13.0502 -0.8994,0.6601 -6.6085,4.3104 -7.2129,4.1796 -0.338,-0.0731 -3.22,-1.6868 -3.7172,-1.9771 -3.7226,-2.1736 -6.7274,-4.3886 -9.4173,-7.7692 -3.7184,-4.6729 -4.8221,-9.421 -4.8303,-15.165l-0.0063 -2.8676 -1.6392 1.179z"/>
  <path class="fil0" d="M2.1102 15.2572c0.5194,-0.2554 1.4839,-1.113 2.8447,-1.7431 1.2031,-0.5571 2.515,-0.8517 3.861,-0.8368 1.2878,0.0143 2.5703,0.3619 3.7017,0.938l2.6944 1.922c-0.7848,-0.2993 -0.7886,-0.4149 -1.7356,-0.4573 -0.6652,-0.0298 -1.4687,0.0477 -2.1236,0.1693l-3.3569 1.174c-0.1439,3.2153 -0.3403,6.1934 0.3306,9.3726 0.286,1.3553 0.6517,2.4766 1.239,3.7155l2.0764 2.9166c-0.7187,-1.1383 -1.3373,-2.9795 -1.5911,-4.3234 -0.6328,-3.3502 0.2039,-6.4514 2.3022,-9.127 0.9418,-1.2009 1.8951,-1.9182 3.0369,-2.8454 -0.1384,0.2433 -0.7625,0.7611 -0.9981,1.07 -0.3043,0.3989 -0.6111,0.7861 -0.9077,1.2094 -0.6108,0.8714 -1.1256,1.7425 -1.6124,2.6895l-0.8455 6.7235 1.043 -2.962c-0.0131,-0.5798 -0.1394,-0.7797 0.1401,-1.3705 0.1226,-0.2591 0.1812,-0.2906 0.3679,-0.4777 0.1855,-0.1859 0.1428,-0.3276 0.327,-0.5213l2.4474 -0.9257c0.3256,0.2494 0.6159,0.6204 0.9569,0.842 0.3206,0.2082 3.2532,1.5015 3.7586,1.7327l1.3987 -1.7446c-1.5121,-0.0131 -2.4379,-0.2865 -3.6458,-1.1977 -0.9417,-0.7104 -1.7829,-1.98 -1.3854,-3.2781 0.3738,-1.2207 1.9329,-1.951 0.6733,-3.2709 -0.844,-0.8845 -1.5957,-1.5341 -2.6124,-2.2896 -4.8604,-3.6116 -9.8692,-2.543 -12.3853,2.896z"/>
  <path class="fil0" d="M5.3835 5.5341l0.0168 4.7258 1.6343 -0.5932 0.0258 -2.2956 0.7654 -0.0014 0.0197 2.0302c0.4053,0.0236 0.9234,-0.0855 1.394,-0.0713l1.2977 0.1522 0.059 -2.1727c4.8356,-0.3492 9.4719,-1.154 14.2235,-2.0684 0.4074,-0.0784 5.8879,1.0346 6.8695,1.169l7.3001 0.8948 0.0565 2.2364c1.9278,-0.2656 0.9133,-0.2294 3.0607,-0.1397l0.0587 -2.0299 0.7691 -0.0017 0.0227 2.3013 1.6284 0.58c0.0638,-0.8108 0.0177,-3.0457 0.0219,-4.1295 0.0015,-0.359 0.0469,-0.3244 -0.0887,-0.5879 -0.8072,-0.0674 -1.8308,-0.0088 -2.6626,-0.0114 -3.8482,-0.0119 -8.6576,-0.6481 -12.4145,-1.4346 -0.484,-0.1013 -4.4089,-1.0909 -4.4448,-1.0865 -0.12,0.0148 -3.385,0.9067 -4.3903,1.0999 -3.9903,0.7664 -8.381,1.4291 -12.4561,1.4185 -0.8654,-0.0022 -1.9229,-0.0489 -2.7668,0.0157z"/>
  <path class="fil0" d="M13.1538 23.539c-0.7048,0.6569 -0.6795,0.3615 0.0558,2.3153l-0.5938 -0.5334 -0.862 0.7692 0.6143 0.4592 -0.2899 0.5033c0.6564,-0.0782 1.1525,0.7573 1.48,1.2549 0.4567,0.6942 0.6184,1.1889 0.8081,1.9855 0.4391,1.8442 0.906,2.0494 2.168,3.335 -0.0868,-0.3965 -0.3195,-0.6897 -0.3858,-1.2503l0.171 -1.5112 4.1042 3.4921c-0.3803,-0.6593 -0.822,-0.852 -1.2962,-2.2375 -0.3498,-1.0218 -0.3908,-2.0798 -0.2179,-3.1433l2.7619 -4.3732c-0.3942,0.0653 -0.9995,0.4329 -1.4,0.3795l-1.4123 -0.4792c-0.6626,0.309 -1.3896,1.1202 -1.7592,1.7601l-0.7726 2.7995c-0.6047,-0.0727 -2.2593,-1.2242 -2.1917,-2.4913 0.0895,-1.6757 1.4543,-1.796 1.7192,-1.3514l0.2785 0.9541c0.9355,-0.917 -0.3927,-2.6921 -1.1934,-2.3131l-0.7787 0.5683c-0.2095,-0.3631 -0.1873,-0.7609 0.0723,-1.0916l1.1115 -0.3561c-0.1967,-0.3453 -0.9366,-0.4894 -1.3247,-0.4564 -0.7893,0.067 -0.7144,0.4142 -0.8666,1.012z"/>
  <path class="fil0" d="M34.5963 22.978c1.3355,0.0864 1.1179,0.2189 1.2672,1.4151 -0.2621,-0.1005 -0.4374,-0.4211 -0.8102,-0.5242 -0.3858,-0.1066 -0.7535,0.0726 -1.0293,0.3187l-0.1597 1.9774c0.0419,-0.641 0.2693,-1.38 1.1144,-1.1202 0.987,0.3034 1.2144,2.3177 0.1748,3.1169l-1.4695 0.9108 -2.4731 -4.563c-0.3546,0.0386 -0.9775,0.3318 -1.3852,0.4432l-1.3986 -0.3011c0.3385,0.4813 2.2243,1.5389 2.6844,4.3606 0.1712,1.0504 0.1184,2.1471 -0.2461,3.1478l-1.3281 2.2018c0.4299,-0.113 1.8671,-1.2141 2.2417,-1.5278l1.9078 -1.9753c0.4883,0.6879 -0.0102,2.0477 -0.2207,2.7825 0.4007,-0.23 1.1507,-1.0687 1.4254,-1.505 0.9841,-1.563 0.5817,-3.2504 2.4865,-4.957l0.8108 0.463c0.1974,-0.1926 0.3429,-0.5121 0.2357,-0.7869l-0.8564 -0.3144 0.6876 -0.4777 -0.832 -0.78 -0.6401 0.5536c0.0304,-0.2374 0.373,-0.9028 0.489,-1.1817l-0.4136 -1.1267c-0.1551,-0.5509 -0.0942,-0.9494 -0.872,-1.0001 -0.4631,-0.0301 -1.0463,0.1373 -1.3907,0.4497z"/>
  <path class="fil0" d="M24.6357 32.6273c-0.1792,-0.3621 -0.9001,-1.0012 -0.2536,-2.1324 0.5019,-0.8783 0.7728,-1.1384 0.1913,-2.1354 -0.4599,-0.7885 -0.6765,-1.3019 -0.1527,-2.16l-0.0821 -2.0583c-0.7047,0.1266 -1.602,1.0729 -1.9799,1.641 -1.0876,1.635 -1.1631,3.9985 -0.0112,5.549 0.4592,0.6181 1.4207,1.3903 2.2882,1.2961z"/>
  <path class="fil0" d="M25.0755 32.5912c0.7529,-0.0219 1.6962,-0.8732 2.0608,-1.4802 0.5329,-0.8871 0.7347,-1.8683 0.625,-2.9108 -0.0984,-0.9344 -0.4324,-1.7961 -0.9814,-2.5511l-2.0487 -1.5321c0.1365,0.2996 0.3791,0.5981 0.4131,0.9943 0.037,0.4305 -0.1029,0.8037 -0.3135,1.1538 -0.6118,1.0172 -0.3541,1.1639 0.1497,2.0812 1.0981,1.999 -1.65,2.4646 0.095,4.2449z"/>
  <path class="fil0" d="M35.6973 15.064c1.2072,-0.2024 1.1439,-0.5007 3.0745,-0.3864 1.7316,0.1025 3.6075,1.0168 5.0225,1.969l2.1419 1.4188c-0.1414,-0.4376 -0.6336,-1.2425 -0.8503,-1.7441l-0.4199 -2.1331c-0.8694,-0.6479 -3.7811,-0.7184 -4.8666,-0.5716 -1.1256,0.1522 -3.2077,0.7848 -4.1021,1.4474z"/>
  <path class="fil0" d="M5.3414 14.1385c-0.0884,1.0006 0.0425,1.2188 -0.4191,2.1899l-0.8706 1.7477c2.0897,-1.2073 3.9897,-3.1812 6.941,-3.3872 1.3031,-0.0909 1.9126,0.0839 3.1491,0.3198 -0.6644,-0.5267 -3.1167,-1.2251 -4.0233,-1.3556 -1.4667,-0.2112 -3.4327,-0.1385 -4.7771,0.4854z"/>
  <path class="fil0" d="M34.7343 9.2939c0.4828,0.5933 0.3955,0.317 0.3468,1.1375l0.6081 -0.281 0.6434 0.2619 -0.1159 -0.603 0.413 -0.5109 -0.9459 -0.6707c-0.4162,0.5491 -0.0957,0.5883 -0.9495,0.6662z"/>
  <path class="fil0" d="M13.4405 9.2419l-0.6172 0.0782 0.4511 0.4928 -0.0975 0.5978c0.7195,-0.1432 0.0562,-0.4317 1.2461,-0.0071l-0.0886 -0.6458 0.3897 -0.4628 -0.5654 -0.0615 -0.3529 -0.6259 -0.3653 0.6343z"/>
  <path class="fil0" d="M24.7866 42.1345l-0.6172 0.0782 0.4511 0.4928 -0.0975 0.5978c0.7195,-0.1432 0.0562,-0.4317 1.2461,-0.0071l-0.0886 -0.6458 0.3897 -0.4628 -0.5654 -0.0615 -0.3529 -0.6259 -0.3653 0.6343z"/>
  <path class="fil0" d="M17.9274 12.4088l0.2841 0.3073 -0.0578 0.4071 0.8153 -0.0124 -0.0416 -0.4593 0.281 -0.2739 -0.6449 -0.4774c-0.4212,0.6075 -0.1599,0.2131 -0.6361,0.5086z"/>
  <path class="fil0" d="M30.192 12.3607l0.2483 0.2944 -0.0057 0.486 0.3464 -0.1892 0.4579 0.1603 0.2016 -0.7081c-0.3663,-0.2002 -0.1775,0.1909 -0.6101,-0.4837 -0.1689,0.1391 -0.092,0.2046 -0.2264,0.3134 -0.1454,0.1177 -0.253,0.068 -0.412,0.1269z"/>
  <path class="fil1" d="M15.7752 9.0667l0 -0.5769 0.9472 0 0 0.5769 -0.9472 0zm-0.01 -0.8471l0.2435 -0.2668 0 1.6942 -0.2602 -0.3102 1.1506 0 0 0.577 -1.4941 0 0 -2.2711 1.4941 0 0 0.5769 -1.1339 0zm2.2244 1.7542c-0.1423,0 -0.2718,-0.0205 -0.3885,-0.0617 -0.1167,-0.0411 -0.2201,-0.1006 -0.3102,-0.1784 -0.09,-0.0778 -0.165,-0.1723 -0.2251,-0.2835l0.4536 -0.2968c0.0578,0.0823 0.1328,0.1484 0.2251,0.1985 0.0923,0.05 0.1862,0.075 0.2818,0.075 0.0734,0 0.1284,-0.0145 0.1651,-0.0434 0.0367,-0.0289 0.055,-0.0644 0.055,-0.1067 0,-0.0289 -0.0083,-0.0545 -0.025,-0.0767 -0.0167,-0.0222 -0.0495,-0.0439 -0.0984,-0.065 -0.0489,-0.0211 -0.12,-0.0417 -0.2134,-0.0617 -0.1957,-0.0445 -0.3513,-0.1006 -0.4669,-0.1684 -0.1156,-0.0678 -0.1979,-0.1501 -0.2468,-0.2468 -0.0489,-0.0967 -0.0734,-0.2074 -0.0734,-0.3319 0,-0.1378 0.0356,-0.2629 0.1067,-0.3751 0.0712,-0.1123 0.1729,-0.2018 0.3052,-0.2685 0.1323,-0.0667 0.2896,-0.1001 0.4719,-0.1001 0.2045,0 0.3791,0.0406 0.5236,0.1218 0.1445,0.0811 0.2557,0.1851 0.3335,0.3118l-0.4536 0.3268c-0.0511,-0.0689 -0.1195,-0.1184 -0.2051,-0.1484 -0.0856,-0.03 -0.1673,-0.045 -0.2451,-0.045 -0.0689,0 -0.1239,0.0128 -0.1651,0.0383 -0.0411,0.0256 -0.0617,0.0606 -0.0617,0.1051 0,0.0445 0.0228,0.08 0.0684,0.1067 0.0456,0.0267 0.1362,0.0556 0.2718,0.0867 0.1868,0.0423 0.3396,0.0962 0.4586,0.1618 0.1189,0.0656 0.2067,0.1467 0.2634,0.2434 0.0567,0.0967 0.0851,0.2151 0.0851,0.3552 0,0.1401 -0.0356,0.2651 -0.1068,0.3752 -0.0711,0.11 -0.1734,0.1962 -0.3068,0.2585 -0.1334,0.0622 -0.2923,0.0933 -0.4769,0.0933zm1.6242 -0.06l0 -2.0577 0.6103 0 0 2.0577 -0.6103 0zm-0.6437 -1.6842l0 -0.5869 1.8943 0 0 0.5869 -1.8943 0zm2.4345 0.8371l0 -0.5769 0.9472 0 0 0.5769 -0.9472 0zm-0.01 -0.8471l0.2435 -0.2668 0 1.6942 -0.2602 -0.3102 1.1506 0 0 0.577 -1.4941 0 0 -2.2711 1.4941 0 0 0.5769 -1.1339 0zm2.7814 1.6942l0 -2.0577 0.6103 0 0 2.0577 -0.6103 0zm-0.6437 -1.6842l0 -0.5869 1.8943 0 0 0.5869 -1.8943 0zm2.4345 0.8371l0 -0.5769 0.9472 0 0 0.5769 -0.9472 0zm-0.01 -0.8471l0.2435 -0.2668 0 1.6942 -0.2602 -0.3102 1.1506 0 0 0.577 -1.4941 0 0 -2.2711 1.4941 0 0 0.5769 -1.1339 0zm1.3773 1.6942l0 -2.2711 0.8405 0c0.1667,0 0.3184,0.0316 0.4552,0.095 0.1367,0.0634 0.2457,0.1568 0.3268,0.2802 0.0812,0.1233 0.1217,0.2762 0.1217,0.4585 0,0.1823 -0.0405,0.3352 -0.1217,0.4586 -0.0811,0.1234 -0.1901,0.2162 -0.3268,0.2785 -0.1368,0.0622 -0.2885,0.0933 -0.4552,0.0933l-0.3802 0 0 -0.5869 0.3601 0c0.1023,0 0.1796,-0.02 0.2318,-0.0601 0.0523,-0.04 0.0784,-0.1011 0.0784,-0.1834 0,-0.08 -0.0261,-0.1412 -0.0784,-0.1834 -0.0522,-0.0423 -0.1295,-0.0634 -0.2318,-0.0634l-0.3635 0 0.1468 -0.13 0 1.8142 -0.6037 0zm1.1073 0l-0.4469 -0.9071 0.6603 0 0.4469 0.9071 -0.6603 0zm0.737 0l0.3902 -2.2711 0.5436 0 0.4836 1.474 -0.05 0 0.4835 -1.474 0.5403 0 0.3935 2.2711 -0.5936 0 -0.1367 -0.9638c-0.0156,-0.1201 -0.0312,-0.2407 -0.0467,-0.3619 -0.0156,-0.1211 -0.0311,-0.2429 -0.0467,-0.3651l0.1734 0c-0.0311,0.1178 -0.0606,0.2367 -0.0884,0.3568 -0.0278,0.1201 -0.0605,0.239 -0.0983,0.3568l-0.3169 0.9605 -0.4769 0 -0.3168 -0.9605c-0.04,-0.1178 -0.0739,-0.2367 -0.1017,-0.3568 -0.0278,-0.1201 -0.0573,-0.239 -0.0884,-0.3568l0.1768 0c-0.0156,0.1222 -0.0306,0.244 -0.0451,0.3651 -0.0144,0.1212 -0.0305,0.2418 -0.0483,0.3619l-0.1368 0.9638 -0.5936 0zm2.8615 -1.1339c0,-0.1734 0.0278,-0.3324 0.0834,-0.4769 0.0555,-0.1445 0.1345,-0.2696 0.2367,-0.3752 0.1023,-0.1056 0.2246,-0.1873 0.3669,-0.2451 0.1423,-0.0578 0.3001,-0.0867 0.4736,-0.0867 0.1734,0 0.3318,0.0289 0.4752,0.0867 0.1434,0.0578 0.2668,0.1395 0.3702,0.2451 0.1034,0.1056 0.1829,0.2307 0.2384,0.3752 0.0556,0.1445 0.0834,0.3035 0.0834,0.4769 0,0.1734 -0.0278,0.3324 -0.0834,0.4769 -0.0555,0.1445 -0.135,0.2696 -0.2384,0.3752 -0.1034,0.1056 -0.2268,0.1868 -0.3702,0.2434 -0.1434,0.0567 -0.3018,0.0851 -0.4752,0.0851 -0.1735,0 -0.3313,-0.0284 -0.4736,-0.0851 -0.1423,-0.0566 -0.2646,-0.1378 -0.3669,-0.2434 -0.1022,-0.1056 -0.1812,-0.2307 -0.2367,-0.3752 -0.0556,-0.1445 -0.0834,-0.3035 -0.0834,-0.4769zm0.617 0c0,0.1245 0.0228,0.2301 0.0683,0.3168 0.0456,0.0867 0.1095,0.1523 0.1918,0.1968 0.0823,0.0445 0.1767,0.0667 0.2835,0.0667 0.1089,0 0.2045,-0.0222 0.2868,-0.0667 0.0822,-0.0445 0.1467,-0.1106 0.1934,-0.1984 0.0467,-0.0879 0.07,-0.194 0.07,-0.3185 0,-0.1245 -0.0233,-0.2301 -0.07,-0.3169 -0.0467,-0.0867 -0.1112,-0.1523 -0.1934,-0.1967 -0.0823,-0.0445 -0.1779,-0.0667 -0.2868,-0.0667 -0.1068,0 -0.2012,0.0228 -0.2835,0.0683 -0.0823,0.0456 -0.1462,0.1118 -0.1918,0.1985 -0.0455,0.0867 -0.0683,0.1923 -0.0683,0.3168z"/>
  <path class="fil1" d="M22.4561 36.4617l0 -0.7627 1.2521 0 0 0.7627 -1.2521 0zm-0.0133 -1.1199l0.3219 -0.3527 0 2.2398 -0.3439 -0.4101 1.5211 0 0 0.7628 -1.9752 0 0 -3.0025 1.9752 0 0 0.7627 -1.4991 0zm4.106 2.2398l-1.8958 0 0 -3.0025 0.798 0 0 2.6013 -0.2469 -0.3748 1.3447 0 0 0.776zm1.4474 0l-0.798 0 0 -3.0025 0.798 0 0 3.0025z"/>
  <path class="fil1" d="M20.0311 32.373l0 -0.3204 0.5868 0 0 0.3204 -0.5868 0zm-0.0062 -0.5472l0.1269 -0.1415 0 1.0715 -0.1373 -0.156 0.7157 0 0 0.3225 -0.9155 0 0 -1.417 0.9155 0 0 0.3205 -0.7053 0zm1.3982 1.1319c-0.0846,0 -0.163,-0.0125 -0.2351,-0.0375 -0.0721,-0.0249 -0.1363,-0.0617 -0.1925,-0.1103 -0.0562,-0.0485 -0.103,-0.1095 -0.1404,-0.1831l0.2559 -0.1643c0.0388,0.0596 0.087,0.1057 0.1446,0.1383 0.0576,0.0326 0.1197,0.0489 0.1862,0.0489 0.0555,0 0.0971,-0.0111 0.1249,-0.0333 0.0277,-0.0222 0.0416,-0.0513 0.0416,-0.0874 0,-0.0221 -0.0063,-0.0423 -0.0187,-0.0603 -0.0125,-0.018 -0.0361,-0.035 -0.0708,-0.051 -0.0347,-0.0159 -0.0839,-0.0308 -0.1477,-0.0447 -0.1193,-0.0277 -0.2136,-0.0624 -0.283,-0.104 -0.0693,-0.0417 -0.1186,-0.0919 -0.1477,-0.1509 -0.0291,-0.0589 -0.0437,-0.1259 -0.0437,-0.2008 0,-0.0832 0.0211,-0.1585 0.0635,-0.2257 0.0423,-0.0673 0.1033,-0.1207 0.1831,-0.1602 0.0797,-0.0396 0.1737,-0.0593 0.2819,-0.0593 0.1234,0 0.2282,0.0242 0.3142,0.0728 0.086,0.0485 0.1533,0.1116 0.2018,0.1893l-0.2559 0.1831c-0.0347,-0.0458 -0.0781,-0.0784 -0.1301,-0.0978 -0.052,-0.0194 -0.103,-0.0291 -0.1529,-0.0291 -0.0513,0 -0.0919,0.0097 -0.1217,0.0291 -0.0298,0.0194 -0.0448,0.0472 -0.0448,0.0833 0,0.0332 0.0156,0.0606 0.0469,0.0821 0.0312,0.0215 0.0926,0.0427 0.1841,0.0635 0.1165,0.0277 0.2108,0.0617 0.283,0.102 0.0721,0.0402 0.1252,0.0898 0.1591,0.1487 0.034,0.059 0.051,0.1308 0.051,0.2154 0,0.086 -0.0218,0.1623 -0.0655,0.2289 -0.0437,0.0665 -0.1054,0.1189 -0.1852,0.1571 -0.0798,0.0381 -0.1751,0.0572 -0.2861,0.0572z"/>
  <path class="fil1" d="M27.6869 32.7126l0 -1.417 0.5056 0c0.1498,0 0.2781,0.0281 0.385,0.0843 0.1068,0.0562 0.1886,0.137 0.2455,0.2424 0.0569,0.1054 0.0853,0.2324 0.0853,0.3808 0,0.1498 -0.0288,0.2774 -0.0864,0.3828 -0.0575,0.1055 -0.1397,0.1863 -0.2465,0.2424 -0.1068,0.0562 -0.2351,0.0843 -0.385,0.0843l-0.5035 0zm0.3371 -0.1873l-0.1394 -0.1394 0.283 0c0.0804,0 0.1501,-0.0128 0.2091,-0.0385 0.0589,-0.0256 0.1047,-0.0669 0.1373,-0.1238 0.0326,-0.0568 0.0489,-0.1304 0.0489,-0.2205 0,-0.0888 -0.016,-0.1613 -0.0479,-0.2175 -0.0319,-0.0561 -0.0773,-0.0974 -0.1363,-0.1238 -0.0589,-0.0263 -0.1286,-0.0395 -0.2091,-0.0395l-0.2996 0 0.154 -0.0936 0 0.9966zm1.2422 -0.362l0 -0.3204 0.5868 0 0 0.3204 -0.5868 0zm-0.0062 -0.5472l0.1269 -0.1415 0 1.0715 -0.1373 -0.156 0.7157 0 0 0.3225 -0.9155 0 0 -1.417 0.9155 0 0 0.3205 -0.7053 0z"/>
  <path class="fil1" d="M19.0373 39.4896l0.3928 0c0.1116,0 0.1959,-0.0254 0.2529,-0.0763 0.057,-0.051 0.0855,-0.1249 0.0855,-0.222 0,-0.0994 -0.0285,-0.1746 -0.0855,-0.2255 -0.057,-0.0509 -0.1413,-0.0764 -0.2529,-0.0764l-0.3965 0 0.1601 -0.1419 0 1.979 -0.6585 0 0 -2.4773 0.9168 0c0.1964,0 0.3686,0.0357 0.5165,0.1073 0.148,0.0715 0.2632,0.177 0.3456,0.3165 0.0825,0.1394 0.1237,0.3122 0.1237,0.5183 0,0.2062 -0.0412,0.379 -0.1237,0.5184 -0.0824,0.1395 -0.1976,0.245 -0.3456,0.3165 -0.1479,0.0716 -0.3201,0.1073 -0.5165,0.1073l-0.4147 0 0 -0.6439zm2.0481 0.2583l1.0368 0 0 0.6075 -1.0368 0 0 -0.6075zm-0.6002 0.9786l0.8767 -2.4773 0.6584 0 0.7967 2.4773 -0.6621 0 -0.593 -2.0299 0.262 0 -0.6803 2.0299 -0.6584 0zm2.4918 0l0 -2.4773 0.9059 0c0.2692,0 0.4965,0.0491 0.682,0.1473 0.1856,0.0982 0.3268,0.2395 0.4239,0.4238 0.097,0.1843 0.1455,0.4062 0.1455,0.6657 0,0.2595 -0.0485,0.482 -0.1455,0.6675 -0.0971,0.1856 -0.2389,0.3274 -0.4257,0.4257 -0.1867,0.0982 -0.4147,0.1473 -0.6839,0.1473l-0.9022 0zm0.6585 -0.3492l-0.2874 -0.2911 0.4802 0c0.1358,0 0.2504,-0.02 0.3438,-0.06 0.0933,-0.04 0.1649,-0.1043 0.2146,-0.1928 0.0497,-0.0885 0.0746,-0.2043 0.0746,-0.3474 0,-0.1431 -0.0243,-0.2583 -0.0728,-0.3456 -0.0485,-0.0873 -0.1194,-0.1509 -0.2128,-0.191 -0.0934,-0.04 -0.208,-0.06 -0.3438,-0.06l-0.5093 0 0.3129 -0.171 0 1.6589zm2.3537 0.3492l-0.6585 0 0 -2.4773 0.6585 0 0 2.4773zm1.8625 0l-1.5643 0 0 -2.4773 0.6585 0 0 2.1463 -0.2037 -0.3093 1.1095 0 0 0.6403zm1.7789 0l-1.5643 0 0 -2.4773 0.6585 0 0 2.1463 -0.2037 -0.3093 1.1095 0 0 0.6403zm0.6803 -0.9786l1.0368 0 0 0.6075 -1.0368 0 0 -0.6075zm-0.6002 0.9786l0.8767 -2.4773 0.6584 0 0.7967 2.4773 -0.6621 0 -0.593 -2.0299 0.262 0 -0.6803 2.0299 -0.6584 0z"/>
 </g>
</svg>
