<?xml version="1.0" encoding="UTF-8"?>
<!DOCTYPE svg PUBLIC "-//W3C//DTD SVG 1.1//EN" "http://www.w3.org/Graphics/SVG/1.1/DTD/svg11.dtd">
<!-- Creator: CorelDRAW -->
<svg xmlns="http://www.w3.org/2000/svg" xml:space="preserve" width="70mm" height="70mm" style="shape-rendering:geometricPrecision; text-rendering:geometricPrecision; image-rendering:optimizeQuality; fill-rule:evenodd; clip-rule:evenodd"
viewBox="0 0 70 70"
 xmlns:xlink="http://www.w3.org/1999/xlink">
 <defs>
  <style type="text/css">
   <![CDATA[
    .fil0 {fill:#373435}
   ]]>
  </style>
 </defs>
 <g id="Capa_x0020_1">
  <metadata id="CorelCorpID_0Corel-Layer"/>
  <path class="fil0" d="M35 14.3409c11.4584,0 20.7472,9.2494 20.7472,20.6592 0,11.4097 -9.2888,20.6591 -20.7472,20.6591 -11.4583,0 -20.7472,-9.2494 -20.7472,-20.6591 0,-11.4098 9.2889,-20.6592 20.7472,-20.6592zm-11.5523 41.8526l0 0c0.0895,0.0516 0.1598,0.1169 0.2102,0.1972 0.0526,0.0795 0.0805,0.1658 0.086,0.258 0.0046,0.0936 -0.0192,0.1841 -0.0711,0.2774 -0.0418,0.0724 -0.0946,0.131 -0.1597,0.1749 -0.0645,0.0461 -0.136,0.0712 -0.2121,0.0784 -0.0753,0.0058 -0.1536,-0.0129 -0.2312,-0.0557 -0.0298,-0.0173 -0.053,-0.0363 -0.0716,-0.0566 -0.0192,-0.0224 -0.0348,-0.0446 -0.0487,-0.0698l-0.2975 0.988c0.0636,-0.0315 0.1235,-0.05 0.1812,-0.0547 0.0584,-0.006 0.1184,-0.0017 0.1829,0.0147 0.1938,0.0419 0.3765,0.047 0.5497,0.0161 0.1731,-0.0307 0.3322,-0.0962 0.4735,-0.1965 0.1413,-0.1004 0.2618,-0.2336 0.357,-0.3984 0.1233,-0.2168 0.1815,-0.4391 0.1776,-0.6687 -0.0053,-0.2305 -0.0703,-0.4461 -0.1947,-0.6506 -0.1259,-0.2054 -0.3081,-0.3788 -0.5475,-0.5189 -0.2774,-0.1563 -0.5572,-0.2459 -0.8396,-0.2688 -0.2811,-0.0219 -0.5573,0.01 -0.8269,0.0931 -0.2705,0.0845 -0.5257,0.2081 -0.7678,0.3715 -0.2399,0.1628 -0.46,0.3503 -0.6565,0.5627 -0.1974,0.2139 -0.3623,0.437 -0.4977,0.6716 -0.1116,0.1933 -0.2072,0.4015 -0.2861,0.6269 -0.0782,0.2239 -0.1362,0.4557 -0.1726,0.6962 -0.0372,0.2382 -0.0464,0.4773 -0.032,0.7149 0.0167,0.237 0.0625,0.4662 0.1405,0.6856 0.0772,0.2208 0.1915,0.4232 0.3398,0.6093 0.1506,0.1855 0.3403,0.3462 0.5711,0.4813 0.1356,0.0802 0.2739,0.1525 0.4135,0.216 0.141,0.0643 0.2912,0.1093 0.452,0.1359 0.0387,0.0053 0.0711,0.0183 0.0999,0.0406 0.0273,0.0214 0.047,0.0499 0.056,0.0835l0.3136 -1.0355c-0.054,0.0409 -0.118,0.0664 -0.1957,0.0764 -0.0779,0.0101 -0.1601,0.0081 -0.249,-0.0053 -0.0889,-0.0135 -0.1766,-0.0356 -0.2652,-0.0659 -0.0878,-0.0318 -0.1672,-0.0681 -0.2411,-0.1108 -0.1811,-0.1064 -0.3199,-0.2435 -0.4167,-0.4073 -0.0982,-0.1648 -0.1608,-0.345 -0.1879,-0.5443 -0.0278,-0.198 -0.0273,-0.4024 0.0015,-0.6131 0.0266,-0.2102 0.0764,-0.4146 0.1443,-0.6142 0.0692,-0.1987 0.1515,-0.3805 0.2475,-0.5468 0.1133,-0.1961 0.2439,-0.3765 0.3942,-0.5418 0.1489,-0.166 0.3097,-0.31 0.4826,-0.432 0.1712,-0.1227 0.3503,-0.2164 0.5328,-0.2798 0.1819,-0.0655 0.3644,-0.0927 0.5441,-0.0857 0.1798,0.0071 0.3531,0.058 0.5174,0.151zm-11.0782 -13.3904l1.9183 0.0378 -1.4923 1.2302 0.5299 1.9034 -1.6298 -1.0531 -1.6893 1.0299 0.5507 -1.9358 -1.4026 -1.1676 1.9036 -0.0187 0.6385 -1.7757c0.2113,0.2114 0.5021,1.3678 0.673,1.7496zm45.6755 1.6994l-1.9182 0.0377 1.4922 1.2303 -0.5298 1.9034 1.6297 -1.0532 1.6894 1.03 -0.5507 -1.9359 1.4026 -1.1675 -1.9037 -0.0187 -0.6384 -1.7758c-0.2114,0.2114 -0.5022,1.3679 -0.6731,1.7497zm-46.8961 -9.2771l1.9182 0.0377 -1.4922 1.2304 0.5299 1.9034 -1.6298 -1.0532 -1.6894 1.03 0.5507 -1.9359 -1.4026 -1.1676 1.9037 -0.0186 0.6384 -1.7758c0.2114,0.2114 0.5022,1.3678 0.6731,1.7496zm48.1167 1.6994l-1.9181 0.0377 1.4922 1.2303 -0.5299 1.9034 1.6298 -1.0532 1.6893 1.03 -0.5507 -1.9359 1.4026 -1.1676 -1.9036 -0.0186 -0.6385 -1.7758c-0.2114,0.2114 -0.5021,1.3679 -0.6731,1.7497zm-48.2629 -8.7199l1.9182 0.0377 -1.4923 1.2303 0.5299 1.9034 -1.6298 -1.0532 -1.6893 1.03 0.5507 -1.9359 -1.4026 -1.1676 1.9037 -0.0186 0.6384 -1.7758c0.2114,0.2114 0.5021,1.3679 0.6731,1.7497zm48.4092 1.6993l-1.9183 0.0377 1.4923 1.2303 -0.5299 1.9034 1.6298 -1.0532 1.6893 1.03 -0.5507 -1.9359 1.4027 -1.1675 -1.9037 -0.0187 -0.6384 -1.7758c-0.2114,0.2115 -0.5022,1.3679 -0.6731,1.7497zm-8.5734 -16.7851l0 0 -3.2032 3.8175c-0.0868,0.1068 -0.1927,0.1894 -0.3146,0.2444 -0.1203,0.0563 -0.252,0.0694 -0.3938,0.0375l1.4142 1.1867c-0.056,-0.1341 -0.066,-0.2661 -0.0314,-0.3944 0.033,-0.1296 0.0959,-0.2482 0.186,-0.3523l0.863 -1.0285 1.5231 1.278 -0.8631 1.0285c-0.0868,0.1069 -0.1927,0.1894 -0.3146,0.2444 -0.1203,0.0563 -0.252,0.0694 -0.3938,0.0375l1.4143 1.1867c-0.0544,-0.1327 -0.0645,-0.2647 -0.0315,-0.3944 0.0345,-0.1282 0.0975,-0.2468 0.186,-0.3523l3.2032 -3.8174c0.0885,-0.1054 0.1943,-0.188 0.3147,-0.2444 0.1219,-0.0549 0.2536,-0.068 0.3938,-0.0375l-1.4143 -1.1866c0.0561,0.134 0.0661,0.266 0.0314,0.3943 -0.0329,0.1296 -0.0958,0.2482 -0.186,0.3523l-1.8007 2.146 -1.523 -1.278 1.8007 -2.146c0.0869,-0.1068 0.1927,-0.1894 0.3147,-0.2444 0.1202,-0.0563 0.252,-0.0694 0.3938,-0.0375l-1.4143 -1.1867c0.0561,0.1341 0.0661,0.2661 0.0314,0.3944 -0.0329,0.1296 -0.0958,0.2482 -0.186,0.3522zm-5.2945 -3.8026l-0.8826 1.2501c0.2177,-0.0782 0.43,-0.1111 0.637,-0.0986 0.207,0.0123 0.4095,0.0536 0.6056,0.1229 0.196,0.0693 0.3844,0.1492 0.5672,0.2408l-2.06 4.2236c-0.0584,0.1247 -0.1411,0.2304 -0.2461,0.3132 -0.1032,0.0838 -0.2278,0.1284 -0.3731,0.1318l1.6593 0.8092c-0.0868,-0.1166 -0.1284,-0.2422 -0.1259,-0.375 0.0006,-0.1338 0.033,-0.264 0.0953,-0.3868l2.06 -4.2237c0.1846,0.0877 0.3637,0.187 0.539,0.2988 0.1752,0.1118 0.3325,0.246 0.4696,0.4015 0.1373,0.1554 0.2421,0.343 0.3145,0.5627l0.4417 -1.4652 -3.7015 -1.8053 0 0zm-7.1119 4.4163l0 0 3.5166 0.9423 0.7076 -1.2941c-0.2073,0.1339 -0.4231,0.2075 -0.6509,0.2178 -0.2256,0.0107 -0.4507,-0.014 -0.6699,-0.0772l-1.2221 -0.3274 0.3809 -1.4216 0.6984 0.1872c0.1392,0.0373 0.2614,0.0968 0.3686,0.1789 0.1072,0.0822 0.1869,0.1837 0.2371,0.3041l0.5521 -1.3623c-0.1099,0.0775 -0.2296,0.1255 -0.3615,0.1437 -0.1318,0.0181 -0.2653,0.0091 -0.4045,-0.0282l-0.873 -0.2339 0.5447 -2.0327 1.0475 0.2807c0.1626,0.0414 0.322,0.0952 0.4718,0.1599 0.1523,0.063 0.2897,0.1489 0.4132,0.2532 0.1215,0.1039 0.2236,0.2381 0.3007,0.3991l0.159 -1.4409 -3.579 -0.959c0.1074,0.0978 0.1723,0.2133 0.1952,0.3441 0.0249,0.1315 0.018,0.2655 -0.0198,0.3979l-1.2897 4.8135c-0.0336,0.1335 -0.0946,0.2531 -0.1819,0.3544 -0.0852,0.1019 -0.1991,0.1694 -0.3411,0.2005zm-4.3031 -7.2868l0 0 -0.1134 6.4927c-0.0002,0.1377 -0.0304,0.2685 -0.0906,0.388 -0.058,0.1195 -0.1522,0.2125 -0.2825,0.277l2.2331 0.039c0.3314,0.0036 0.6378,-0.0492 0.9174,-0.1584 0.2817,-0.1091 0.5275,-0.2641 0.7376,-0.4627 0.21,-0.1964 0.3733,-0.4281 0.492,-0.693 0.1186,-0.2626 0.1817,-0.5477 0.1892,-0.8532 0.0029,-0.2861 -0.0419,-0.5623 -0.1362,-0.8287 -0.0965,-0.2642 -0.2343,-0.5055 -0.4135,-0.7217 -0.1791,-0.2183 -0.3912,-0.3963 -0.6405,-0.5362 0.164,-0.1478 0.3067,-0.3132 0.4325,-0.4918 0.1236,-0.1786 0.2216,-0.3705 0.294,-0.5716 0.0724,-0.201 0.1105,-0.4112 0.1164,-0.6263 0.003,-0.2969 -0.0483,-0.5625 -0.1518,-0.7946 -0.1057,-0.2321 -0.2551,-0.4284 -0.4459,-0.591 -0.193,-0.1626 -0.419,-0.2871 -0.6778,-0.3733 -0.2611,-0.0864 -0.5422,-0.1321 -0.8477,-0.1375l-1.962 -0.0342c0.0854,0.0401 0.1532,0.0973 0.2057,0.1693 0.0526,0.0719 0.09,0.15 0.1121,0.2387 0.0243,0.0886 0.0335,0.177 0.0319,0.2695zm1.0146 6.2284l0 0 0.0437 -2.5042c0.1099,-0.0045 0.2219,-0.0155 0.3363,-0.035 0.1145,-0.0174 0.2268,-0.0456 0.3372,-0.0823 0.1936,0.0055 0.3693,0.0451 0.5229,0.1231 0.1536,0.078 0.2853,0.1815 0.3927,0.3125 0.1075,0.131 0.191,0.2787 0.2462,0.4454 0.0552,0.1667 0.0823,0.3393 0.0791,0.5222 -0.0064,0.243 -0.064,0.4572 -0.1705,0.6426 -0.1065,0.1854 -0.2489,0.3314 -0.4294,0.4358 -0.1804,0.1044 -0.3836,0.1547 -0.6095,0.1529l-0.7487 -0.013zm0.0604 -3.4594l0 0 0.043 -2.4654 0.4776 0.0083c0.2044,0.0015 0.3846,0.0347 0.5385,0.0955 0.1561,0.063 0.2771,0.1577 0.3652,0.2882 0.0859,0.1307 0.1282,0.3014 0.1265,0.5123 -0.0049,0.1634 -0.0421,0.3221 -0.1136,0.4736 -0.0694,0.1516 -0.1644,0.2919 -0.2786,0.4234 -0.1142,0.1293 -0.2409,0.2433 -0.3761,0.3421 -0.1373,0.0987 -0.2742,0.1759 -0.4086,0.2317 -0.1365,0.0557 -0.2619,0.0858 -0.3739,0.0903zm-4.3752 -1.7031l0 0c-0.3461,0.057 -0.6548,0.1712 -0.9243,0.3402 -0.2698,0.167 -0.4982,0.3752 -0.6899,0.6235 -0.1894,0.2478 -0.3423,0.5203 -0.4544,0.817 -0.1121,0.2966 -0.1835,0.6019 -0.2168,0.9144 -0.0329,0.3145 -0.0259,0.6207 0.0213,0.9182 0.0487,0.3081 0.1398,0.6074 0.2708,0.8982 0.131,0.2907 0.2954,0.5588 0.4975,0.8035 0.2001,0.2449 0.4293,0.4548 0.6876,0.6274 0.2586,0.1747 0.5396,0.2979 0.8456,0.3736 0.3058,0.0736 0.6279,0.0857 0.9683,0.034 0.1169,-0.0185 0.2392,-0.0444 0.3714,-0.0762 0.1297,-0.0337 0.2566,-0.0712 0.3823,-0.1172 0.1259,-0.0439 0.2398,-0.0946 0.3422,-0.1501 0.0416,-0.0262 0.0873,-0.0399 0.1326,-0.0428 0.0478,-0.001 0.0884,0.0078 0.1264,0.0279l-0.5328 -1.301c-0.0584,0.1399 -0.1365,0.2524 -0.2373,0.3447 -0.0992,0.0897 -0.21,0.1596 -0.3329,0.2096 -0.1224,0.052 -0.2457,0.0846 -0.3711,0.1044 -0.2257,0.0336 -0.4343,0.0231 -0.6287,-0.0354 -0.1963,-0.0561 -0.3742,-0.1477 -0.5334,-0.2728 -0.1617,-0.1269 -0.3031,-0.2766 -0.4241,-0.4491 -0.1231,-0.1723 -0.222,-0.357 -0.3015,-0.5558 -0.079,-0.1966 -0.1347,-0.3969 -0.1663,-0.5966 -0.0428,-0.2699 -0.0445,-0.542 -0.0044,-0.8119 0.04,-0.27 0.1156,-0.5216 0.2292,-0.753 0.1158,-0.2319 0.266,-0.4255 0.4501,-0.5833 0.1845,-0.1556 0.4018,-0.2553 0.6501,-0.2968 0.1466,-0.0232 0.2963,-0.0274 0.4511,-0.0127 0.1524,0.0129 0.302,0.0502 0.4442,0.1083 0.1442,0.0578 0.273,0.142 0.3881,0.25l-0.0638 -1.5583c-0.0732,0.0747 -0.1507,0.1219 -0.2307,0.1389 -0.0777,0.0188 -0.1554,0.0225 -0.229,0.0123 -0.1592,-0.0009 -0.3174,0.0045 -0.4766,0.0167 -0.1572,0.0118 -0.3048,0.0286 -0.4408,0.0502zm-7.3538 3.0631l0 0 1.032 4.9756c0.0194,0.0899 0.0271,0.1848 0.0219,0.2828 -0.0051,0.0981 -0.0263,0.1912 -0.062,0.2835 -0.0357,0.0923 -0.0899,0.1737 -0.1611,0.2484l1.6995 -0.7214c-0.0873,-0.0073 -0.1618,-0.0342 -0.2253,-0.0844 -0.0653,-0.0494 -0.1173,-0.1114 -0.1597,-0.1893 -0.0405,-0.0786 -0.0718,-0.1635 -0.0913,-0.2534l-0.1016 -0.5039 1.7587 -0.7466 0.2919 0.4232c0.0511,0.0764 0.0904,0.158 0.1189,0.2417 0.0265,0.0845 0.0351,0.1651 0.0252,0.2464 -0.0079,0.0805 -0.0404,0.1528 -0.0957,0.2206l1.6994 -0.7213c-0.1032,-0.0007 -0.1995,-0.0182 -0.2906,-0.0567 -0.0911,-0.0384 -0.1729,-0.0879 -0.247,-0.1523 -0.074,-0.0644 -0.1371,-0.1358 -0.1882,-0.2122l-2.8622 -4.1988c-0.0835,-0.114 -0.1348,-0.2349 -0.1482,-0.3601 -0.0134,-0.1252 0.0189,-0.2418 0.0998,-0.3486l-2.5907 1.0997c0.137,0.0143 0.2453,0.0712 0.3241,0.1686 0.0788,0.0975 0.13,0.2183 0.1522,0.3585zm3.2288 2.5845l0 0 -1.4498 0.6154 -0.6936 -3.352 0.2139 -0.0908 1.9295 2.8274zm-8.0794 -1.4055l0 0 0.5263 3.2082 -2.9389 -1.3901c-0.0556,-0.0739 -0.1001,-0.1509 -0.1326,-0.2368 -0.0342,-0.0848 -0.0499,-0.1699 -0.0497,-0.259 0.0003,-0.0891 0.0215,-0.1752 0.0671,-0.2579l-1.4745 1.111c0.092,-0.0209 0.1808,-0.0176 0.2664,0.0067 0.0857,0.0244 0.1633,0.0629 0.2353,0.1191 0.0737,0.0549 0.1354,0.119 0.191,0.1928l3.908 5.1862c0.0846,0.1086 0.1413,0.2302 0.1674,0.3614 0.0278,0.1299 0.011,0.2612 -0.052,0.3922l1.4744 -1.1111c-0.1433,0.0245 -0.2742,0.0046 -0.3913,-0.058 -0.1189,-0.0613 -0.2204,-0.1492 -0.3014,-0.2605l-2.6261 -3.4849 2.9389 1.3902 -0.5263 -3.2082 2.6261 3.4848c0.0828,0.11 0.1378,0.233 0.1621,0.3654 0.0245,0.1325 0.0059,0.2651 -0.0571,0.3961l1.4847 -1.1188c-0.1433,0.0244 -0.2758,0.0058 -0.3965,-0.0542 -0.1206,-0.06 -0.2236,-0.1467 -0.3065,-0.2567l-3.908 -5.1861c-0.0557,-0.0739 -0.0985,-0.1521 -0.1309,-0.2381 -0.0308,-0.0873 -0.0448,-0.1737 -0.0428,-0.2641 0.0002,-0.0891 0.0232,-0.1765 0.0687,-0.2593l-1.4847 1.1189c0.092,-0.0209 0.1824,-0.0189 0.2698,0.004 0.0857,0.0244 0.1649,0.0617 0.2404,0.1153 0.0737,0.055 0.1371,0.1176 0.1927,0.1915zm31.5237 47.6897l0 0 2.3588 -1.8428 -0.4712 -1.019c-0.0098,0.1847 -0.0627,0.3489 -0.1597,0.4913 -0.0983,0.1434 -0.2178,0.2702 -0.3608,0.3778l-0.9234 0.7213 -1.0851 -1.3888 0.6052 -0.4729c0.0867,-0.0676 0.1776,-0.1137 0.2743,-0.1393 0.098,-0.0265 0.1939,-0.0265 0.2902,-0.0018l-0.5764 -0.9617c0.0007,0.0996 -0.0225,0.1925 -0.0719,0.2812 -0.0495,0.0886 -0.1188,0.1677 -0.2093,0.2385l-0.7061 0.5516 -1.3034 -1.6682 0.8147 -0.6365c0.0999,-0.0801 0.2048,-0.1537 0.3145,-0.2186 0.1096,-0.0649 0.2239,-0.1105 0.3455,-0.1388 0.1216,-0.0283 0.25,-0.0266 0.3868,0.0019l-0.8126 -0.7521 -2.3898 1.8671c0.07,-0.0172 0.1375,-0.0159 0.2033,0.0016 0.0656,0.0174 0.1253,0.0458 0.1809,0.0877 0.057,0.0408 0.1048,0.0888 0.1483,0.1444l3.0492 3.9029c0.0659,0.0818 0.1108,0.1738 0.1325,0.2735 0.0229,0.0986 0.0118,0.1989 -0.0345,0.2997zm-5.6453 2.757l0 0 2.7346 -1.2175 -0.2107 -1.1026c-0.0542,0.1768 -0.1452,0.3234 -0.2738,0.4381 -0.13,0.1154 -0.2767,0.2095 -0.4415,0.2793l-1.0705 0.4765 -0.7168 -1.6102 0.7016 -0.3123c0.1004,-0.0448 0.1998,-0.0675 0.2999,-0.0689 0.1014,-0.002 0.1944,0.0212 0.2819,0.0685l-0.3266 -1.0726c-0.0234,0.0967 -0.0684,0.1814 -0.1378,0.2554 -0.0694,0.0741 -0.1559,0.1341 -0.2608,0.1808l-0.8185 0.3645 -0.8611 -1.934 0.9444 -0.4205c0.1163,-0.0536 0.2359,-0.0996 0.358,-0.136 0.1222,-0.0364 0.2441,-0.053 0.3689,-0.0511 0.1249,0.0019 0.2489,0.0347 0.3749,0.0954l-0.6065 -0.9264 -2.7705 1.2335c0.072,0.0003 0.1373,0.0179 0.1968,0.0507 0.0595,0.0328 0.1105,0.0748 0.1543,0.129 0.0454,0.0533 0.0803,0.1115 0.1089,0.176l2.0145 4.5245c0.0443,0.0953 0.0655,0.1954 0.0624,0.2974 -0.0016,0.1013 -0.0367,0.1959 -0.106,0.2825zm-6.7973 -3.8272l0 0 1.0298 4.8445c0.0234,0.1024 0.0234,0.2047 -0.0008,0.3039 -0.0226,0.0987 -0.0767,0.184 -0.1624,0.2543l1.3773 -0.2928c-0.1069,-0.0293 -0.191,-0.0852 -0.2518,-0.1663 -0.0625,-0.0806 -0.1041,-0.1742 -0.1243,-0.2772l-0.4115 -1.9359 0.6645 -0.1412c0.1076,-0.0229 0.2096,-0.0245 0.3093,-0.0054 0.0996,0.0191 0.189,0.0605 0.2695,0.1239l-0.1061 -1.1149c-0.043,0.0897 -0.1045,0.1631 -0.1878,0.2211 -0.0817,0.0577 -0.1755,0.0977 -0.2831,0.1206l-0.7994 0.1699 -0.4401 -2.0708 0.9342 -0.1985c0.1249,-0.0283 0.2515,-0.0484 0.3752,-0.0579 0.1254,-0.01 0.2481,-0.0008 0.3682,0.0274 0.1185,0.0285 0.2347,0.0859 0.3436,0.1719l-0.4006 -1.0322 -2.8798 0.6121c0.0704,0.0152 0.1307,0.046 0.182,0.0905 0.0514,0.0444 0.0926,0.0961 0.1242,0.1582 0.0333,0.0617 0.0553,0.1258 0.0699,0.1948zm-4.6998 0.0582l0 0 -0.2592 4.9461c-0.0039,0.1049 -0.0304,0.2037 -0.0794,0.2932 -0.0474,0.0896 -0.1217,0.158 -0.2227,0.2036l1.4061 0.0737c-0.0957,-0.0559 -0.1623,-0.1317 -0.2001,-0.2257 -0.0394,-0.0942 -0.0556,-0.1952 -0.0484,-0.3l0.1036 -1.9764 0.6784 0.0355c0.1099,0.0057 0.2088,0.0306 0.3002,0.0749 0.0913,0.0442 0.1669,0.1073 0.2283,0.1895l0.186 -1.1045c-0.0647,0.0755 -0.1431,0.1306 -0.2387,0.165 -0.0938,0.0346 -0.1947,0.0489 -0.3046,0.0432l-0.8161 -0.0428 0.1108 -2.1141 0.9538 0.05c0.1279,0.0051 0.2554,0.0184 0.3774,0.0412 0.1237,0.0229 0.2399,0.0635 0.3486,0.1218 0.1071,0.0582 0.2045,0.1438 0.2873,0.2549l-0.1197 -1.1007 -2.9401 -0.1541c0.064,0.0329 0.1142,0.0783 0.1524,0.1345 0.0381,0.0563 0.0645,0.1168 0.079,0.185 0.0162,0.0682 0.0208,0.1358 0.0171,0.2062zm-7.4615 1.1601l0 0c-0.0536,0.2149 -0.0896,0.4409 -0.1046,0.6774 -0.0166,0.236 -0.012,0.4756 0.0148,0.7141 0.0264,0.2399 0.0783,0.4728 0.1561,0.6968 0.0757,0.2252 0.1797,0.4321 0.3127,0.6243 0.1335,0.1906 0.2972,0.3548 0.4927,0.4932 0.194,0.138 0.4237,0.241 0.6876,0.3084 0.2599,0.0632 0.5079,0.0794 0.7428,0.0466 0.2343,-0.0313 0.4544,-0.0998 0.6621,-0.2071 0.2057,-0.106 0.3951,-0.2414 0.5694,-0.4043 0.1742,-0.1629 0.3289,-0.3425 0.4665,-0.5416 0.136,-0.1995 0.2536,-0.407 0.3514,-0.6228 0.0962,-0.2161 0.1717,-0.4307 0.2248,-0.644 0.0529,-0.2119 0.0866,-0.4352 0.1031,-0.6712 0.0146,-0.2348 0.0078,-0.4716 -0.0187,-0.7116 -0.0284,-0.2388 -0.0803,-0.4716 -0.1581,-0.6957 -0.0773,-0.2256 -0.1814,-0.4325 -0.3128,-0.6243 -0.1334,-0.1906 -0.2956,-0.3544 -0.4875,-0.4936 -0.1923,-0.1376 -0.4188,-0.2398 -0.678,-0.3061 -0.3097,-0.0738 -0.6031,-0.0844 -0.8776,-0.0277 -0.2747,0.0567 -0.5294,0.1623 -0.7625,0.3174 -0.2335,0.1565 -0.4411,0.3449 -0.6253,0.5679 -0.1842,0.223 -0.3404,0.4632 -0.4676,0.7223 -0.1288,0.2588 -0.2258,0.5188 -0.2913,0.7816zm0.8217 0.2048l0 0c0.0477,-0.1911 0.1144,-0.3774 0.1983,-0.5578 0.085,-0.1783 0.1856,-0.3512 0.3025,-0.5148 0.0348,0.166 0.1037,0.3168 0.2033,0.4532 0.1015,0.1353 0.2342,0.2546 0.3966,0.356 0.0578,0.033 0.1039,0.0716 0.1418,0.1165 0.0382,0.0434 0.0685,0.0983 0.0925,0.1651l0.4722 -0.9173c-0.0274,0.0084 -0.0541,0.0135 -0.0819,0.0167 -0.0291,0.0013 -0.059,-0.0011 -0.0924,-0.0094 -0.0856,-0.023 -0.1533,-0.0636 -0.205,-0.1205 -0.0499,-0.0581 -0.0837,-0.1258 -0.0981,-0.2037 -0.0164,-0.0769 -0.0136,-0.1557 0.0066,-0.2368 0.0278,-0.1048 0.0759,-0.1891 0.146,-0.2529 0.0695,-0.0621 0.1507,-0.1028 0.2438,-0.1235 0.0943,-0.0188 0.1903,-0.0169 0.2906,0.0081 0.1807,0.0484 0.3372,0.1332 0.4682,0.252 0.1326,0.1194 0.2398,0.2662 0.3223,0.4373 0.084,0.1715 0.1435,0.3606 0.1803,0.5659 0.0367,0.2053 0.0496,0.4183 0.0402,0.6391 -0.0094,0.221 -0.0403,0.4399 -0.0948,0.6581 -0.0547,0.2197 -0.1307,0.4291 -0.2264,0.6302 -0.0954,0.1994 -0.2071,0.383 -0.3364,0.5487 -0.1288,0.164 -0.2701,0.3031 -0.4252,0.4166 -0.1532,0.1123 -0.3168,0.1916 -0.4899,0.2347 -0.1715,0.0435 -0.3494,0.0449 -0.5317,0.0028 -0.2102,-0.0592 -0.3838,-0.1567 -0.522,-0.2943 -0.1366,-0.1372 -0.2434,-0.2992 -0.3203,-0.4858 -0.0766,-0.1882 -0.1268,-0.3867 -0.1524,-0.5961 -0.024,-0.209 -0.0297,-0.4167 -0.0156,-0.6229 0.0139,-0.2046 0.044,-0.3932 0.0869,-0.5652zm7.48 -16.3494c0.3901,-0.1459 0.7024,-0.2413 1.0927,-0.4177 0.1625,0.0617 1.0868,0.4101 1.1303,0.4435 -0.5006,0.4964 -1.7531,0.5581 -2.223,-0.0258zm6.4726 -2.9718l0.3181 0.0587c0.7745,1.4577 0.3169,3.9965 1.9619,6.3505l0.5173 0.7089c-0.3367,0.0004 -0.9598,-0.3917 -1.2319,-0.619 -0.4722,-0.3944 -0.5221,-0.5189 -0.8756,-0.999l-0.2486 3.4612 -0.6934 -3.0083c-0.1647,0.2049 -0.2971,1.2452 -0.4006,1.5907 -0.5581,1.862 -1.0329,2.3489 -2.0956,4.1089l-0.1913 -2.0345c-0.6174,0.718 -1.9852,4.5541 -2.38,5.629 -0.1368,-0.1315 -0.923,-2.4799 -1.0903,-2.8994 -0.1834,-0.4601 -0.3831,-0.9485 -0.6112,-1.391 -0.1146,-0.2224 -0.2042,-0.4567 -0.3179,-0.6798 -0.2385,-0.4685 -0.0346,-0.2147 -0.4292,-0.6271l-0.129 1.977c-0.6339,-0.2949 -1.8085,-2.9995 -2.0942,-4.0833l-0.4258 -1.6234 -0.7041 3.0788c-0.3009,-0.9599 -0.2278,-2.428 -0.2276,-3.4774 -0.1295,0.0654 -0.4194,0.6874 -0.8386,0.9887l-1.2577 0.6052c0.1429,-0.427 0.9634,-0.6948 1.6248,-3.2325l1.0015 -3.9034 0.1467 0.1123 -0.1683 0.1835 0.2531 0.1017 -0.1076 0.1777 0.2406 0.2045 -0.1166 0.3195 0.2144 0.1384c-0.0437,0.2691 -0.0793,0.0047 -0.003,0.2503l0.2848 1.2356c0.1439,-1.1016 -0.0299,-0.6424 0.2842,-2.1979l0.2038 0.0748 -0.0951 -0.2123 0.2227 0.0494 -0.0085 -0.2182 0.5114 0.6294 -0.2286 0.0317 0.2672 0.1254 0.1365 1.6732c0.2846,2.5066 0.0387,1.3799 1.3082,4.2667 -0.6803,-2.1472 -0.6107,-0.7674 -0.4031,-3.7133l-0.06 0.2265 0.2072 -0.0255 0.4116 0.5307 -0.1894 0.2574 0.198 0.1484 0.112 -0.1207c0.2803,0.4069 0.2429,0.2679 0.1994,0.5777l0.3941 0.1712c0.0124,0.3395 -0.074,-0.0953 0.1303,0.3773l0.1601 -0.0971 0.3154 0.2004 -0.1122 0.1478c0.1158,0.1617 0.1086,0.0952 0.1847,0.1899 0.1543,0.1917 0.03,0.1152 0.0459,0.1897 0.0202,0.094 0.1084,0.1732 0.1324,0.2032 0.0834,0.1044 0.2539,0.5999 0.2889,0.8147 0.0691,0.4247 -0.0028,0.3909 0.1556,0.6903l0.2615 -1.3742c0.2269,-0.0908 0.143,-0.0164 0.3439,-0.4175l-0.1499 -0.0452 0.1374 -0.1067 -0.0685 -0.1504 0.2701 -0.2261 0.1931 0.2627 0.2588 -0.3681 -0.1462 -0.2694c0.2581,-0.1311 0.1541,-0.0748 0.3516,-0.277 0.2169,-0.2221 0.1348,-0.065 0.2386,-0.3639l0.2724 0.0043 -0.1001 -0.1721c0.2633,-0.1381 0.391,-0.5379 0.632,-0.9823 0.5137,1.354 0.1006,2.5378 -0.3741,3.7271 0.4685,-0.2446 1.0589,-2.0901 1.157,-2.6374 0.1096,-0.6106 0.1084,-1.1674 0.1701,-1.7688 0.0351,-0.3426 0.0175,-0.4896 0.1061,-0.8239 0.3901,-1.5656 -0.1666,-0.1286 0.3029,-1.6495 0.1997,0.1141 0.5155,0.3118 0.5697,0.563l-0.0508 0.3476c0.4001,0.2709 0.2913,1.0476 0.3254,1.8848l0.3826 -1.4426c-0.1168,-0.3126 -0.0285,-0.1481 -0.001,-0.3662 0.0289,-0.2284 -0.0694,-0.0986 0.0166,-0.3716 0.0809,-0.2567 0.322,-0.4627 0.203,-0.6704zm-21.1328 0.0028c-0.8098,-0.1409 -0.8009,-1.7022 -0.2847,-2.2829 0.7319,-0.8234 2.0987,-0.5243 2.4357,-0.2658 -0.7209,0.7812 -1.3103,1.1636 -1.2438,2.1102 0.021,0.2987 0.1661,0.6618 0.131,0.9152 -0.6847,-0.5217 -0.71,-0.3816 -0.8069,-1.3551 -0.0735,-0.738 0.4556,-1.3826 0.4924,-1.6085l-0.7135 0.9419c-0.2065,0.6878 0.0161,0.9758 -0.0102,1.545zm29.4376 -2.5555c0.6665,-0.4147 2.0247,-0.3569 2.533,0.3428 0.5389,0.7416 0.4254,1.7694 -0.3233,2.2621l-0.0577 -1.6343c-0.1455,-0.4076 -0.3633,-0.8842 -0.7783,-0.9887l0.3937 0.7521c0.2785,0.6033 0.2924,2.0357 -0.5522,2.3151 0.0948,-0.7741 0.2196,-1.0839 -0.1045,-1.8415 -0.3847,-0.8993 -0.9495,-0.9188 -1.1107,-1.2076zm0.4554 -0.6976c0.1797,-0.358 0.9142,-0.6089 1.3088,-0.5858 0.4492,0.0262 0.989,0.2939 1.3135,0.5813 1.1677,1.0344 0.4975,2.2748 0.0825,2.3748l-0.7174 -1.8639c-0.2148,-0.1497 -0.5729,-0.3708 -0.8195,-0.4315 -0.4252,-0.1046 -0.8372,-0.0077 -1.1679,-0.0749zm-30.8645 2.411c-0.3018,-0.1146 -0.6527,-0.8322 -0.5918,-1.2136 0.1491,-0.9334 1.0519,-1.7343 1.9928,-1.7614 0.4195,-0.012 1.1612,0.1731 1.3251,0.5649 -0.723,0.0526 -1.4761,0.0022 -2.0529,0.5158 -0.8146,0.7252 -0.5545,1.3634 -0.6732,1.8943zm26.5355 0.4501c-0.1635,-0.2424 -0.3374,-0.6291 -0.515,-0.902 -0.5999,-0.9213 -1.872,-1.9854 -1.9053,-2.3129l4.9922 1.4322c0.6286,0.0255 0.7955,-0.314 1.3804,0.1026 0.2992,0.2132 0.5976,0.4711 0.7076,0.8508 0.1774,0.612 -0.0797,2.3263 -0.8667,1.951l0.13 -1.5386c-0.0716,-0.4157 -0.348,-0.9891 -0.7764,-1.0509 0.321,0.5467 0.5125,0.7334 0.4206,1.4181 -0.0503,0.3746 -0.3628,0.986 -0.6294,1.2391l-0.4472 -0.1503c0.1207,-0.716 0.5077,-1.8711 -0.2893,-2.3468l0.0703 1.3255c-0.0923,0.2914 -0.3478,0.8932 -0.6211,0.9818l-0.46 -2.3755 -0.3676 1.9073 -0.9167 -2.3968c0.188,0.5577 0.5639,1.354 0.0936,1.8654zm-23.2549 1.138c-0.5624,0.0465 -0.6985,-0.2385 -0.8825,-0.7465 -0.3192,-0.8811 0.0401,-1.8035 0.8491,-2.2258 0.2531,-0.1321 0.9838,0.0384 1.3433,0.0179 1.5521,-0.0888 3.6442,-1.4486 4.8729,-1.4208l-1.3349 1.5331c-0.7524,0.7946 -0.8256,1.5504 -1.1449,1.73l0.2249 -1.9334 -0.9964 2.4042 -0.4125 -0.7523c-0.1011,-0.4556 0.0906,-0.7258 0.0236,-1.0987l-0.4347 2.3515c-0.8402,-1.1695 -0.822,-0.8529 -0.6046,-2.3051 -0.8485,1.9004 -0.3996,0.9941 -0.258,2.3222l-0.4287 0.1915 -0.6552 -1.2154c-0.1539,-0.876 0.277,-1.0006 0.3199,-1.3989 -1.0684,1.6509 -0.7099,0.9324 -0.4813,2.5465zm27.9651 -5.326c0.218,-0.2625 1.4994,-1.0506 1.8659,-1.2373 0.6915,-0.3522 1.8713,-0.4468 2.3536,0.2606l-0.9821 3.4406c-0.9332,-1.4251 -0.8834,-1.8149 -2.6631,-2.101l1.6534 -0.15c0.5312,0.0176 1.1792,0.4585 1.3718,0.4658 -0.6094,-0.5597 -0.5834,-0.6545 -1.538,-0.7947 -1.3675,-0.2008 -1.4921,0.0768 -2.0615,0.116zm-32.1503 2.4851c-0.389,-0.5346 -0.6421,-1.3136 -0.7533,-1.9765 -0.203,-1.2092 -0.5159,-1.6028 0.2228,-1.9013 1.3905,-0.5618 3.6149,1.2105 3.7218,1.3891 -0.9322,-0.1792 -1.0139,-0.2501 -2.0101,-0.1046 -0.4881,0.0713 -1.3589,0.1702 -1.5471,0.6733 0.6722,-0.1744 2.5373,-0.7572 3.0922,-0.1915 -1.0619,0.3776 -1.9957,0.5212 -2.3766,1.2456 -0.1475,0.2804 -0.2025,0.6628 -0.3497,0.8659zm14.2963 0.637c-0.3056,-0.0292 -0.8798,-0.7424 -1.0572,-1.0356 -0.4008,-0.6628 -0.327,-0.9151 -0.4484,-1.6281 -0.0788,-0.4623 -0.4943,-0.984 -0.6472,-1.4689 -0.1797,-0.5705 -0.1619,-1.2236 -0.0377,-1.8049 0.2566,-1.2001 0.8752,-1.7419 1.8958,-2.3014 1.4222,-0.7797 1.3691,-0.5544 2.379,-1.7957l1.2737 4.6499c0.1293,-1.2717 0.1357,-3.8458 1.2855,-4.67l1.0355 1.0976c0.683,0.6118 2.8059,0.9263 3.2622,2.9843 0.4406,1.9872 -0.5444,2.3973 -0.6825,3.3559 -0.0956,0.6628 -0.0637,1.018 -0.439,1.6153 -0.1989,0.3167 -0.7453,0.8801 -1.0559,1.0134l0.2071 -1.2894c-1.1396,1.7236 -0.9153,1.0995 -1.0779,3.2968 -0.1664,2.2503 -1.614,1.9802 -2.1146,1.435l1.2416 -2.0041 -1.6831 0.505c-0.526,-0.2869 -0.8873,-0.5317 -1.6261,-0.5054l0.4183 0.9612c0.2976,0.1096 0.7765,0.3112 0.8526,0.6384 0.1934,0.8316 -1.2279,1.03 -1.7576,0.2647 -0.4658,-0.673 -0.3319,-1.741 -0.4541,-2.5506 -0.078,-0.5162 -0.4242,-1.8945 -0.9367,-2.0657l0.1667 1.3023zm9.6314 -5.4335c0.1455,-0.2676 0.8188,-0.6494 1.1314,-0.8139 0.4696,-0.2473 1.0427,-0.3703 1.5776,-0.3541 0.565,0.0171 1.0873,0.1387 1.6246,0.2979 0.7047,0.2088 0.9986,0.1713 1.6621,0.2818l-1.8137 1.6971c-0.8389,0.52 -1.8318,0.7966 -2.8333,0.6375 0.2427,-0.2384 0.3274,-0.4003 0.6825,-0.3863l-0.0677 -0.1942 0.337 -0.0401 0.0297 -0.1113c0.543,-0.0076 0.2346,-0.0085 0.8507,-0.343 0.3208,-0.1741 1.59,-0.7145 1.6463,-0.7832l-2.7143 -0.039c-0.7808,0.1954 -1.417,0.8477 -2.1129,0.1508zm-18.4591 -0.5838c0.1945,-0.0498 0.6512,-0.0734 0.9027,-0.1081 0.661,-0.0914 1.4183,-0.4536 2.3132,-0.4865 0.898,-0.0332 2.1035,0.4963 2.6688,1.1364 -1.6508,0.5023 -0.5811,0.2587 -2.0225,-0.0927 -1.121,-0.2735 -1.6438,0.0642 -2.6395,0.0239 0.723,0.3083 1.962,0.9875 2.2628,1.1088 0.2764,0.1114 0.3811,-0.0673 0.5711,0.3663 0.1463,0.1419 0.5416,0.0758 0.6913,0.3326l-2.9392 -0.5888c-0.3712,-0.237 -1.7426,-1.3821 -1.8087,-1.6919zm-6.4639 1.5815c-0.3248,-1.2823 0.3988,-5.348 1.1054,-5.8652l0.4666 1.4157c0.6383,1.6287 2.5245,2.5296 2.6429,2.8069l-1.7756 -0.484c-0.6614,-0.2446 -0.7324,-0.7844 -1.1274,-1.1249l0.2363 0.8864 -0.7936 0.3592 0.865 -0.0499 2.6313 2.0097c-1.12,-0.238 -2.4592,-0.6753 -3.4469,-0.3737 -0.3783,0.1156 -0.5012,0.2773 -0.804,0.4198zm33.1602 -1.6443c0.0761,-0.1691 0.8213,-0.6591 1.0161,-0.8042 1.8043,-1.3443 1.841,-2.9977 2.1244,-3.4695 0.9207,2.1766 1.2471,3.3259 1.1268,5.9164l-0.897 -0.4423c-0.9739,-0.4001 -2.8882,0.3942 -3.448,0.4355l1.3031 -1.0429c0.4265,-0.2539 0.9638,-0.6752 1.3106,-0.9979l0.9262 0.0655 -0.8439 -0.279 0.2691 -1.017 -1.1275 1.1439c-0.3158,0.1108 -1.5202,0.5156 -1.7599,0.4915zm-9.7464 -2.4943c-0.4257,-0.1446 -2.1633,-0.8159 -2.469,-1.0473 -0.8345,-0.6314 -1.0643,-1.4846 -0.1997,-2.2007l1.2543 1.7709c0.5694,0.4723 1.0692,0.7675 1.4144,1.4771zm-9.4784 0.0178c0.0678,-0.4031 1.0998,-1.248 1.4407,-1.5543 0.7673,-0.6895 0.8569,-1.4419 1.1895,-1.7417l-0.1587 2.2077c-0.3079,0.2887 -0.8539,0.4252 -1.2519,0.5624 -0.353,0.1217 -0.9583,0.4645 -1.2196,0.5259zm7.1042 -3.6344c0.1399,-0.1908 0.3822,-0.5388 0.5835,-0.6038l1.6285 1.6809c0.4621,0.2438 0.5836,0.3461 0.8443,0.7816 0.2064,0.3449 0.3516,0.9285 0.2681,1.3297 -0.9549,-1.2273 -0.565,-0.9111 -1.8532,-1.3762 -0.4993,-0.1801 -1.317,-1.2988 -1.4712,-1.8122zm-8.0753 3.2349c-0.0604,-0.9864 0.261,-1.6755 1.1004,-2.1555 1.2952,-0.7406 1.2486,-1.2711 1.6299,-1.6887l0.6022 0.6863 -0.6404 1.0303c-0.6513,0.9671 -1.4867,0.7109 -2.0112,1.2417 -0.5231,0.5294 -0.4886,0.8307 -0.6809,0.8859zm-2.1248 -1.3764c-0.3819,-0.4051 -0.1019,-2.8079 0.4137,-3.1511 0.9163,-0.6098 0.8137,-1.9199 2.1073,-1.2509l-0.3448 1.036c0.4879,-0.4128 0.2795,-0.1657 0.5424,-0.7921l0.9034 0.5587 -0.5941 1.0588 0.9079 -0.8416 0.6515 0.5918 -1.3025 1.4628 -0.9475 0.0376c-0.745,0.1927 -1.2483,1.9053 -1.2844,1.9405l0.2429 -2.0458c0.2324,-0.9121 1.0936,-0.8736 1.1015,-1.2471l-1.8134 0.7234c-0.2027,0.2847 -0.3309,0.4612 -0.443,0.8042 -0.1479,0.4524 -0.067,0.7098 -0.1409,1.1148zm13.9804 -2.0383c0.5618,0.6579 0.9179,2.2741 0.6374,2.7567 -0.1827,-0.6019 -0.2671,-1.0826 -0.7061,-1.5623 -0.5644,-0.6167 -0.8784,-0.5239 -1.6251,-0.4961l-1.2142 -1.453 0.6573 -0.5629 0.9001 0.8462 -0.586 -1.1496 0.8063 -0.4249 0.4706 0.7559 0.2567 -0.0922 -0.508 -0.902c0.1609,-0.172 0.5429,-0.314 0.7712,-0.3216l0.8723 0.8723c0.1018,0.1931 0.208,0.3906 0.3696,0.5056 0.2317,0.1649 0.2788,0.1105 0.424,0.3885 0.1684,0.3226 0.265,1.0267 0.2905,1.4076 0.035,0.5247 0.2253,0.9991 -0.1199,1.4406l-0.1751 -1.1482c-0.2008,-0.7628 -1.329,-1.7854 -2.2156,-1.4193 0.197,0.1551 0.5708,0.4145 0.694,0.5587zm1.3779 -2.9445c0.2485,-0.4698 0.3355,-0.4276 0.9427,-0.4719 0.219,-0.0159 1.1923,-0.0558 1.3505,0 0.0778,0.0273 1.1343,1.3475 1.2301,1.5173 0.2342,0.4147 0.2465,0.7416 0.2154,1.2179 -0.0857,1.3131 -0.5278,1.9191 -1.345,2.7185 0.1788,-0.8682 0.2058,-0.6874 0.0729,-1.5245 -0.2038,-1.2847 0.0185,-0.7232 0.0589,-1.5039 0.0519,-1.0008 -0.9999,-2.0945 -1.5589,-1.7992 0.7483,0.6531 1.3492,0.9248 1.0931,2.163 -0.0981,0.4743 -0.2988,0.8508 -0.3967,1.3673 -0.079,0.4165 -0.1519,0.8798 -0.4677,1.1897 0.0562,-0.6776 0.1401,-0.9915 -0.0457,-1.6533 -0.4551,-1.6221 -0.8756,-1.3466 -1.4521,-2.1653 -0.1727,-0.2453 -0.8374,-0.8075 -0.8716,-0.9111l0.9202 -0.2865 0.2539 0.142zm-17.4505 -0.4252c0.4554,-0.1512 1.8201,-0.0302 2.3095,0.1249l0.13 0.3391 0.2327 -0.1961 0.9502 0.3434c-0.8653,0.7127 -0.3657,0.2986 -0.9369,0.949 -0.6777,0.7719 -0.9911,0.5155 -1.4579,2.176 -0.2789,0.9919 0.1212,1.1844 -0.0436,1.5232 -0.2128,-0.5431 -0.7921,-2.0213 -0.8782,-2.5139 -0.2566,-1.4681 0.6908,-1.7903 1.0324,-2.1668l-1.2535 0.8836c-0.2726,0.6033 -0.2726,1.2672 -0.0919,1.8481l-0.1727 0.3673 0.1433 0.059c-0.205,1.6923 -0.0842,0.8777 0.1006,1.6464 -1.2228,-1.3612 -1.1627,-1.0524 -1.4001,-2.7563 -0.2152,-1.5445 0.7958,-1.556 1.3361,-2.6269zm-4.0926 8.3575c-0.3732,0.0456 -1.1601,-0.3764 -1.5292,-0.5534 -1.074,-0.5152 -1.4701,-1.2905 -1.7761,-2.3545 -0.178,-0.6187 0.1902,-0.9046 0.5211,-1.4448 0.8337,-1.3604 3.3809,-3.5928 4.6733,-3.6251l-0.9074 2.0098c-0.0694,0.4067 0.0082,0.8621 0.1818,1.2251 0.2388,0.4996 0.3641,0.4377 0.8357,0.5982l0.6967 1.4047 -1.8936 -1.2744c0.2228,1.5501 0.0323,0.7748 0.5884,1.7774l-1.7978 -1.2656c0.2021,1.8738 -0.0747,1.216 1.0566,2.2775l-2.0772 -0.9937c-0.143,-0.1258 -0.5728,-0.6976 -0.6832,-0.8809 -0.2942,-0.4883 -0.1769,-0.7955 -0.3694,-1.2126 0.2673,1.9396 0.0432,1.0602 0.5557,1.9601 0.3436,0.6035 -0.0483,0.1812 0.6314,1.1254 0.0661,0.0918 0.1333,0.159 0.1958,0.2426 0.1538,0.2059 0.0002,0.0675 0.2031,0.237 0.338,0.2824 0.5846,0.4264 0.8943,0.7472zm26.2801 -3.9674c0.0802,-0.4259 0.3794,-0.1891 0.6286,-0.9023 0.6507,-1.8628 -0.5625,-2.1501 -0.8044,-3.0992l1.7866 0.7612c1.1212,0.5927 3.2008,2.7717 3.6008,3.9847l-1.1713 2.2068c-0.4841,0.4179 -1.6644,0.9523 -2.2902,1.0985 0.6213,-0.5114 1.4576,-1.0931 1.782,-1.9228 0.257,-0.657 1.2595,-1.855 0.6903,-2.5533l-0.3193 1.3033c-0.2872,0.7224 -1.8078,1.7962 -2.7569,1.9651 0.2879,-0.2546 0.7845,-0.6652 0.9795,-0.9909 0.2384,-0.3981 0.3751,-1.0722 -0.0586,-1.3882 -0.4162,0.4559 -1.0602,1.266 -1.7103,1.3645 0.3332,-0.4103 0.8154,-1.2289 0.6458,-1.7752l-1.8699 1.1216 0.5131 -1.0644c0.0452,-0.1683 -0.1139,-0.09 0.1092,-0.3267l0.245 0.2173zm-24.6316 -0.5171c-1.0414,-1.2569 0.6051,-3.5551 0.6946,-3.6194 0.2236,-0.1608 1.1444,-0.2613 1.4223,-0.2545 -0.3543,0.3889 -1.1336,1.1655 -1.3176,1.609 -0.3842,0.9262 0.252,1.5821 -0.3552,2.279l-0.4441 -0.0141zm24.0489 -3.6495c0.2931,0.3595 0.7941,1.369 0.9616,1.8387 0.1879,0.5271 0.0305,2.1799 -0.6982,1.7686 -0.4015,-0.2265 -0.2714,-0.6842 -0.236,-1.0799 0.1583,-1.7663 -1.3736,-2.2247 -1.4231,-2.7329l1.3957 0.2055zm-6.2834 -2.8561c0.0941,-0.1243 0.2804,-0.213 0.4073,-0.3376 0.1532,-0.1503 0.2157,-0.2828 0.3421,-0.3915 0.5404,0.635 0.3504,0.3522 0.7301,0.73 -0.7527,0.6706 -0.431,0.4991 -0.7352,0.8119l-0.7443 -0.8128zm-12.2016 -0.0598c0.013,-0.0236 0.6498,-0.7057 0.6933,-0.7393l0.7456 0.745c-0.4316,0.412 -0.5931,0.65 -0.7303,0.786l-0.7086 -0.7917zm6.2328 1.4811c0.3181,-0.5742 -0.6475,-1.4517 -0.0527,-2.6224 0.5816,-1.1445 0.8345,-0.9358 0.3582,-2.3326 0.7988,0.9732 1.1752,1.1007 0.7236,2.4099 -0.3442,0.998 -0.3611,1.2358 0.0622,2.1234 0.1032,0.2164 0.1535,0.4621 0.2487,0.6631l0.7108 -1.1897c0.1222,1.0851 0.0135,0.8604 0.4396,1.7533 0.2843,0.5959 0.4977,0.9192 0.4452,1.6381 -0.0681,0.9323 -0.9054,2.0983 -1.7652,2.4352 -0.1816,-0.633 -0.3667,-1.8233 -1.2014,-1.9093 0.0415,0.5728 0.1599,1.289 -0.2036,1.7836l-1.3217 -1.0888c-0.3509,-0.5622 -0.444,-1.2327 -0.1945,-1.8556 0.215,-0.5367 0.7972,-0.9988 0.8975,-1.5432 0.1964,-1.0658 -0.5713,-1.4706 -0.7003,-1.6748l1.0462 0.4579c0.4138,0.3787 0.3544,0.7583 0.5074,0.9519zm4.0967 13.1427c-0.0781,-0.3754 0.2253,-0.6332 0.5842,-0.5812 0.0125,0.269 -0.2671,0.7327 -0.5842,0.5812zm-1.6262 2.8816c0.2287,-0.4265 0.4192,-1.8899 1.3955,-2.1533 1.3131,-0.354 1.0753,-0.0377 1.5736,-1.9493 -0.3789,-0.197 -1.031,0.0388 -1.4113,0.2333 -0.395,0.202 -0.6516,0.5455 -0.8799,0.9321 -0.4119,0.6977 -0.832,2.1401 -0.6779,2.9372zm-5.9807 -3.4651c0.3096,0.0014 0.7183,0.2852 0.612,0.6164 -0.3452,0.042 -0.6162,-0.2791 -0.612,-0.6164zm2.1932 3.4383c0.1358,-0.7526 -0.236,-2.2115 -0.6257,-2.8778l-2.3513 -1.2223c-0.1061,0.3649 0.0841,1.0736 0.3016,1.3933 0.3789,0.5569 0.6735,0.4501 1.2407,0.5816 0.8791,0.2037 1.1179,1.4636 1.4347,2.1252zm3.4234 -3.0279c0.3633,-0.3907 0.3759,-1.0804 1.091,-1.5223l2.1452 -0.5592c-0.1799,-0.4169 -1.4592,-0.5518 -2.2792,-0.0137 -0.5345,0.3508 -1.0106,1.437 -0.957,2.0952zm-6.3326 -2.0956c0.607,0.0982 1.9918,-0.0582 2.7685,1.196l0.4814 0.8781c0.1584,-0.3512 -0.3046,-2.4037 -2.0626,-2.4371 -0.3297,-0.0063 -1.0252,0.0758 -1.1873,0.363zm18.832 -5.232c0.5962,-0.1119 0.667,-2.3422 0.0093,-2.4822 -0.0072,0.3316 0.1443,0.8081 0.1387,1.2375 -0.005,0.3961 -0.1677,0.9478 -0.148,1.2447zm-28.048 -0.246c-0.5961,-0.1118 -0.667,-2.3422 -0.0092,-2.4822 0.0072,0.3317 -0.1444,0.8081 -0.1388,1.2375 0.0051,0.3961 0.1676,0.9478 0.148,1.2447zm-1.5562 0.2504c0.1164,-0.2226 0.1038,-1.0591 0.045,-1.3439 -0.2212,0.0816 -0.2581,0.3741 -0.2707,0.5969 -0.0146,0.2569 -0.0046,0.6382 0.2257,0.747zm31.1453 0.0591c0.3085,-0.2392 0.4243,-1.2336 -0.0724,-1.3619l0.0724 1.3619zm-15.5611 -25.1358c17.9493,0 32.5,14.4888 32.5,32.3619 0,17.873 -14.5507,32.3617 -32.5,32.3617 -17.9492,0 -32.5,-14.4887 -32.5,-32.3617 0,-17.8731 14.5508,-32.3619 32.5,-32.3619zm0 1.2707c17.2444,0 31.2237,13.9199 31.2237,31.0912 0,17.1713 -13.9793,31.0911 -31.2237,31.0911 -17.2443,0 -31.2237,-13.9198 -31.2237,-31.0911 0,-17.1713 13.9794,-31.0912 31.2237,-31.0912z"/>
 </g>
</svg>
