<?xml version="1.0" encoding="UTF-8"?>
<!DOCTYPE svg PUBLIC "-//W3C//DTD SVG 1.1//EN" "http://www.w3.org/Graphics/SVG/1.1/DTD/svg11.dtd">
<!-- Creator: CorelDRAW -->
<svg xmlns="http://www.w3.org/2000/svg" xml:space="preserve" width="50mm" height="70mm" style="shape-rendering:geometricPrecision; text-rendering:geometricPrecision; image-rendering:optimizeQuality; fill-rule:evenodd; clip-rule:evenodd"
viewBox="0 0 50 70"
 xmlns:xlink="http://www.w3.org/1999/xlink">
 <defs>
  <style type="text/css">
   <![CDATA[
    .fil0 {fill:black}
   ]]>
  </style>
 </defs>
 <g id="Capa_x0020_1">
  <metadata id="CorelCorpID_0Corel-Layer"/>
  <path class="fil0" d="M15.3907 9.0067c-0.1311,-0.2731 -0.2335,-1.1585 -0.2316,-1.5887 0.0013,-0.3121 -0.0125,-0.5833 -0.0338,-0.8931l-0.4293 -0.4972c-0.2367,0 -0.3644,0.1135 -0.4882,0.2397 -1.3113,1.3364 -2.3813,3.0192 -2.82,4.8574 -0.1083,0.4534 -0.1016,0.3659 -0.4399,0.6523 -0.0546,0.0462 -0.7524,0.6407 -0.8055,0.6504 -0.4625,0.085 -1.7629,-0.3016 -2.4122,0.5321 -0.068,0.0873 -0.0978,0.115 -0.1599,0.204 -0.1106,0.1581 -0.1666,0.2761 -0.2508,0.4442 -0.4587,0.9143 -0.2254,1.4079 -0.5293,2.2508 -0.2144,-0.0047 -0.2679,-0.131 -0.383,-0.2788 -0.1075,-0.1381 -0.1912,-0.2638 -0.3036,-0.3912 -0.3853,-0.4365 -0.4422,-0.3208 -1.0004,-0.3561l-0.1654 1.7543c-0.1028,0.0275 -1.121,0.5713 -1.2029,0.8153l-0.2525 1.7996c-0.0512,0.7331 0.5413,1.4834 0.5622,1.5558 0.049,0.1682 -0.0865,0.3967 -0.1543,0.5407 -0.3887,0.8272 -0.758,2.1627 -0.9574,3.0469 -0.2788,1.2353 -0.5356,2.7244 -0.5752,4.0255l0 1.9083 0.0749 1.3598c0.0721,0.5536 0.1317,1.1285 0.2369,1.6829 0.101,0.5332 0.1714,1.0805 0.3201,1.5994 0.144,0.5022 0.2961,0.9938 0.445,1.5077 0.2129,0.7341 0.5001,1.3959 0.7894,2.0898l0.3169 0.676c0.315,0.6287 0.6956,1.2324 1.0143,1.8647 0.1082,0.2149 0.2488,0.4133 0.3815,0.6112 0.3191,0.4761 0.6249,0.9557 0.9815,1.4011l0.2128 0.2837c0.394,0.4859 0.167,0.6167 0.3992,1.5534 0.2332,0.9403 1.6288,1.1256 2.392,1.4792 0.1428,0.0661 0.7079,0.4881 0.7991,0.6236 0.1209,0.1795 0.1826,1.3379 0.4684,1.9808 0.0943,0.2119 0.2196,0.423 0.3717,0.588l1.3483 0.6035c0.3112,0.0665 0.9732,-0.0823 1.2413,-0.1812 0.7111,-0.2619 0.5519,-0.4042 1.2618,-0.0724 1.2831,0.6 2.5209,1.0744 3.9323,1.4274 0.8319,0.208 1.6296,0.3764 2.5527,0.4907 0.187,0.0231 0.4667,0.0724 0.6729,0.088 0.2428,0.0183 0.4771,0.012 0.7167,0.0441 0.4457,0.0598 1.255,0.0902 1.6961,0.0902 1.1983,0 3.1596,-0.1774 4.3746,-0.422 0.467,-0.0941 0.8673,-0.2065 1.312,-0.3091 0.2071,-0.0478 0.4234,-0.1079 0.6316,-0.1624 0.6048,-0.1584 1.2406,-0.3889 1.8142,-0.601 0.4049,-0.1496 2.2199,-0.9806 2.2542,-0.988 0.0626,0 0.291,0.1762 0.3746,0.221 0.4368,0.2333 1.2134,0.3747 1.7094,0.3747 1.0933,0 1.7598,-0.8104 1.9984,-1.8399 0.0733,-0.3168 0.1132,-1.4703 0.2912,-1.6284 0.3036,-0.2697 2.1191,-0.7644 2.6917,-1.1794 0.2148,-0.1557 0.337,-0.2488 0.4289,-0.5306 0.1829,-0.5609 0.1513,-1.1552 0.1785,-1.7411 0.0126,-0.2697 0.2095,-0.408 0.3455,-0.6143 0.7795,-1.182 1.5528,-2.3387 2.154,-3.6371 0.1075,-0.2321 0.194,-0.4257 0.3027,-0.6571l0.2799 -0.6797c0.4351,-1.1986 0.8634,-2.4662 1.0964,-3.7357 0.1016,-0.5537 0.1935,-1.0944 0.2654,-1.6541 0.0957,-0.7449 0.1434,-1.6127 0.1556,-2.4732l0 -0.9249c-0.0052,-0.3747 -0.0167,-0.7387 -0.0331,-1.0803 -0.0625,-1.2952 -0.4069,-3.0822 -0.7647,-4.2993 -0.2649,-0.9017 -0.5641,-1.8042 -0.8891,-2.6849 0.1753,-0.2621 0.389,-0.4034 0.5516,-0.7057l0.2422 -1.0155c0.0557,-0.4741 -0.0683,-1.0096 -0.1413,-1.4475 -0.0565,-0.3392 -0.2199,-0.5966 -0.513,-0.7776 -0.1166,-0.0721 -0.3006,-0.1507 -0.3966,-0.232 -0.19,-0.1606 -0.2439,-1.4345 -0.2723,-1.7136 -0.7982,-0.1598 -1.0822,0.4566 -1.5546,0.993 -0.1768,0 -0.4279,-0.1383 -0.4852,-0.2759 -0.1909,-0.4589 -0.1252,-1.4421 -0.3754,-2.0075 -0.1335,-0.3021 -0.3586,-0.7741 -0.6505,-0.938l-1.1683 -0.4196c-0.4331,-0.0755 -0.916,0.1323 -1.3231,0.1323 -0.1056,0 -0.3034,-0.2028 -0.3704,-0.2913 -0.1156,-0.1524 -0.1188,-0.3181 -0.162,-0.5329 -0.0763,-0.3782 -0.1203,-0.7785 -0.2245,-1.1326 -0.1067,-0.3635 -0.1931,-0.6985 -0.3356,-1.0214 -0.5606,-1.2695 -0.6804,-1.4046 -1.481,-2.5893 -0.2142,-0.317 -0.4772,-0.5765 -0.7192,-0.8691 -0.1317,-0.1593 -0.5026,-0.4054 -0.6768,-0.4483 -0.1575,0 -0.2872,0.105 -0.359,0.2033 -0.1692,0.2316 -0.0796,0.6772 -0.1211,0.9361l-0.2012 1.2243c-0.0152,0.0952 -0.015,0.1733 -0.0318,0.2659l-0.1469 1.0115c-0.3565,-0.0079 -1.026,-0.4187 -1.3369,-0.5489 -1.4161,-0.5936 -2.8578,-1.0232 -4.3768,-1.3137 -0.25,-0.0479 -0.523,-0.0753 -0.785,-0.1412 -0.6312,-0.1586 -0.4531,-0.38 -1.0562,-1.2933 -0.1879,-0.2845 -0.4083,-0.5417 -0.6153,-0.8076 -0.1415,-0.1818 -0.2879,-0.3374 -0.455,-0.5045 -0.0811,-0.0812 -0.1478,-0.1574 -0.2319,-0.2315 -0.1725,-0.1521 -0.7395,-0.6209 -0.868,-0.6209 -0.1204,0 -0.2347,0.0926 -0.3058,0.1575l-1.1748 1.2076c-0.4549,0.5122 -0.8083,1.0986 -1.155,1.691 -0.2112,0.361 -0.5785,0.3596 -1.0363,0.3863 -1.2753,0.0746 -3.7067,0.8011 -4.9007,1.2858 -0.3706,0.1505 -0.991,0.395 -1.351,0.5678zm24.2756 50.9355c-0.0045,0.0465 -0.0023,0.1195 0.0066,0.217 0.0111,0.0952 0.0266,0.2037 0.0465,0.3233 0.0199,0.1174 0.0443,0.2348 0.0709,0.3477 0.0266,0.1152 0.0553,0.2126 0.0841,0.2945 0.0288,0.082 0.0576,0.1351 0.0842,0.1595 0.0155,0.0089 0.0376,0.0199 0.0709,0.031 0.0332,0.0133 0.0642,0.0221 0.0974,0.031 0.0332,0.0067 0.0554,0.0089 0.0709,0.0044 0.0199,0 0.0575,0.0023 0.1107,0.0045 0.0554,0.0022 0.1085,0.0022 0.1639,0.0044 0.0531,0.0022 0.0908,0.0044 0.1107,0.0044 0.4141,0 0.8305,-0.0066 1.249,-0.0243 0.4208,-0.0178 0.8371,-0.0488 1.2491,-0.0953 0.104,-0.0088 0.2015,-0.0133 0.2945,-0.0155 0.093,-0.0022 0.1749,-0.0133 0.2458,-0.0354 0.0709,-0.0221 0.1262,-0.0664 0.1683,-0.1351 0.0399,-0.0664 0.062,-0.1683 0.062,-0.3056 0,-0.0221 0,-0.0576 0.0022,-0.1107 0.0023,-0.051 0.0023,-0.1085 0.0045,-0.1706 0.0022,-0.062 0.0022,-0.1195 0.0044,-0.1727 0.0022,-0.0531 0.0022,-0.093 0.0022,-0.1174 0,-0.1661 0,-0.3299 -0.0044,-0.4894 -0.0044,-0.1617 -0.0155,-0.3211 -0.0354,-0.4806 -0.0111,-0.0177 -0.0266,-0.0332 -0.051,-0.0487 -0.0243,-0.0133 -0.0465,-0.0265 -0.0709,-0.0354 -0.0243,-0.0111 -0.0398,-0.0177 -0.0509,-0.0222 -0.1306,-0.0132 -0.2724,-0.0265 -0.4274,-0.042 -0.155,-0.0133 -0.3123,-0.0266 -0.4695,-0.0355 -0.1572,-0.011 -0.3056,-0.0155 -0.4451,-0.0155 -0.0111,0 -0.0332,0.0023 -0.0665,0.0067 -0.0354,0.0044 -0.0686,0.0088 -0.1018,0.0133 -0.031,0.0044 -0.051,0.0066 -0.0576,0.0066 -0.0067,0 -0.0199,0 -0.0443,0 -0.0244,0 -0.0509,0 -0.0797,0 -0.0266,0 -0.0465,0 -0.062,0 -0.0111,0 -0.0288,0 -0.0532,0 -0.0266,0 -0.0531,0 -0.0797,0 -0.0244,0 -0.0421,0 -0.0532,0 -0.0354,-0.0133 -0.0575,-0.0465 -0.0686,-0.1041 -0.0111,-0.0576 -0.0155,-0.1151 -0.0133,-0.1771 0,-0.062 0.0022,-0.1041 0.0022,-0.1307 0.0022,-0.299 0.0177,-0.6002 0.0443,-0.9036 0.0288,-0.3033 0.0532,-0.6045 0.0753,-0.9035 0.0266,-0.4451 0.0509,-0.8903 0.0753,-1.3376 0.0244,-0.4451 0.0509,-0.8947 0.0842,-1.3465 0.0044,-0.0421 0.0088,-0.1129 0.0177,-0.2104 0.0088,-0.0974 0.0199,-0.2059 0.031,-0.3211 0.011,-0.1151 0.0221,-0.2236 0.031,-0.3211 0.011,-0.0974 0.0199,-0.1683 0.0266,-0.2104 -0.0045,-0.0531 -0.0111,-0.1063 -0.02,-0.1572 -0.0088,-0.0532 -0.0288,-0.1019 -0.0598,-0.1484 -0.0199,-0.0266 -0.0731,-0.0531 -0.1616,-0.0753 -0.0864,-0.0243 -0.1883,-0.0465 -0.3012,-0.0642 -0.1152,-0.0177 -0.2215,-0.0332 -0.3211,-0.0443 -0.0975,-0.0089 -0.1683,-0.0155 -0.2126,-0.0155 -0.0067,0 -0.0333,-0.0022 -0.0798,-0.0044 -0.0443,-0.0022 -0.0952,-0.0022 -0.1506,-0.0045 -0.0575,-0.0022 -0.104,-0.0044 -0.1417,-0.0044 -0.0487,0 -0.1196,-0.0022 -0.2059,-0.0066 -0.0886,-0.0045 -0.1839,-0.0045 -0.2857,-0.0022 -0.1019,0.0022 -0.1993,0.011 -0.2923,0.0287 -0.0931,0.0178 -0.1684,0.0465 -0.2282,0.0864 -0.0575,0.0421 -0.0885,0.0997 -0.0907,0.1727 -0.0266,0.505 -0.051,1.0121 -0.0731,1.5193 -0.02,0.5071 -0.031,1.012 -0.0332,1.5103 0.0022,0.1506 0.0132,0.2923 0.0332,0.4274 0.0199,0.1351 0.0398,0.268 0.0575,0.3986 0.0178,0.1329 0.0222,0.268 0.0156,0.4097l0.1993 2.8436zm-4.5577 1.6875c0.0421,0 0.1085,0 0.1993,0 0.0886,0 0.1927,0 0.3079,0 0.1151,0 0.2303,0 0.3454,0 0.1152,0 0.2193,0 0.3123,0 0.0908,0 0.1594,0 0.2037,0 0.1528,0.0088 0.3034,0.0221 0.4562,0.0376 0.1506,0.0177 0.3101,0.0266 0.474,0.0288 0.1727,-0.0022 0.3454,-0.0177 0.5204,-0.0421 0.1727,-0.0243 0.3499,-0.042 0.5293,-0.0509 0.0266,-0.0155 0.0553,-0.031 0.0841,-0.0509 0.0288,-0.02 0.0554,-0.0333 0.0753,-0.0421 0.0399,-0.0731 0.0709,-0.1528 0.0908,-0.2348 0.0222,-0.0819 0.0355,-0.1638 0.0421,-0.2436 0.0177,-0.1993 0.0155,-0.4008 -0.0066,-0.6023 -0.0222,-0.2016 -0.051,-0.4009 -0.0864,-0.5935 0,-0.02 -0.0022,-0.0377 -0.0067,-0.0532 -0.0044,-0.0155 -0.0066,-0.0332 -0.0066,-0.0531 -0.0177,-0.0731 -0.0487,-0.1285 -0.093,-0.1617 -0.0421,-0.0354 -0.0975,-0.062 -0.1639,-0.0797 -0.0686,-0.0177 -0.1462,-0.0399 -0.2347,-0.0643 -0.2104,-0.0265 -0.4275,-0.042 -0.6556,-0.0487 -0.2281,-0.0066 -0.4584,-0.011 -0.6909,-0.0088 -0.2303,0.0022 -0.454,0.0044 -0.6732,0.0044 -0.0775,0 -0.1373,-0.0133 -0.175,-0.0376 -0.0399,-0.0266 -0.0664,-0.0621 -0.0797,-0.1108 -0.0133,-0.0465 -0.0222,-0.1041 -0.0244,-0.1705 -0.0044,-0.0421 -0.0088,-0.0952 -0.0133,-0.1595 -0.0066,-0.0642 -0.0132,-0.1306 -0.0177,-0.197 -0.0066,-0.0687 -0.0111,-0.1263 -0.0155,-0.175 -0.0044,-0.0509 -0.0066,-0.0819 -0.0066,-0.093 0,-0.0067 0.0022,-0.0266 0.0044,-0.0642 0.0022,-0.0355 0.0044,-0.0731 0.0089,-0.1152 0.0044,-0.0421 0.0088,-0.0753 0.0133,-0.0997 0,-0.0199 0.0022,-0.0487 0.0044,-0.0863 0.0022,-0.0399 0.0022,-0.0775 0.0044,-0.1152 0.0022,-0.0354 0.0044,-0.062 0.0044,-0.0775 0.0178,-0.0376 0.0488,-0.0598 0.0975,-0.0642 0.0487,-0.0044 0.0908,-0.0044 0.1284,-0.0022 0.0067,0 0.0133,0 0.0177,0 0.0067,0 0.0089,0 0.0089,0 0.0288,0.0044 0.0886,0.0088 0.1772,0.0133 0.0886,0.0066 0.186,0.0132 0.2923,0.0199 0.1085,0.0066 0.2037,0.0133 0.2901,0.0199 0.0864,0.0045 0.144,0.0089 0.1705,0.0133 0.0022,0 0.0089,0 0.0222,0 0.0133,0 0.0221,0 0.031,0 0.1373,-0.0022 0.248,-0.0443 0.3322,-0.1218 0.0819,-0.0797 0.1439,-0.1794 0.186,-0.3012 0.0421,-0.1218 0.0709,-0.248 0.0864,-0.3787 0.0177,-0.1306 0.0287,-0.248 0.0332,-0.3543 0.0066,-0.0199 0.011,-0.0399 0.011,-0.0576 0.0023,-0.0199 0.0023,-0.0354 0.0023,-0.0487 0.0155,-0.1439 0.0133,-0.2525 -0.0089,-0.3278 -0.0199,-0.073 -0.0709,-0.1262 -0.1506,-0.155 -0.0819,-0.031 -0.2059,-0.0509 -0.372,-0.062 -0.0023,0 -0.0133,0 -0.0377,0 -0.0221,0 -0.0487,0 -0.0797,0 -0.031,0 -0.0576,0 -0.0819,0 -0.0643,0 -0.1219,0 -0.1728,0.0022 -0.0509,0 -0.1019,0.0045 -0.155,0.0089 -0.0532,0.0066 -0.1174,0.0155 -0.1905,0.0288 -0.0664,0.0088 -0.1328,0.0265 -0.2015,0.0509 -0.0709,0.0244 -0.1439,0.0399 -0.2237,0.0421 -0.0398,-0.0554 -0.0775,-0.1196 -0.1085,-0.1949 -0.031,-0.0753 -0.0531,-0.1528 -0.062,-0.2303 -0.0088,-0.0775 -0.0022,-0.1484 0.0244,-0.2126 0,-0.1329 0,-0.2724 0.0044,-0.4164 0.0022,-0.1417 0.0089,-0.2879 0.0222,-0.434 0,-0.0177 0.0022,-0.0443 0.0066,-0.0797 0.0044,-0.0377 0.0066,-0.0643 0.0066,-0.0798 0.0266,-0.0332 0.0576,-0.0531 0.0908,-0.0642 0.0333,-0.0111 0.0687,-0.0155 0.1086,-0.0155 0.1284,0.0022 0.2568,0.0133 0.3853,0.0354 0.1284,0.02 0.2591,0.0421 0.3898,0.0621 0.1306,0.0221 0.2613,0.0332 0.3942,0.0354 0.1395,0 0.2657,0 0.3809,0 0.1151,-0.0022 0.2303,-0.0044 0.3454,-0.0089 0.1152,-0.0022 0.2459,-0.0088 0.3898,-0.0177 0.1129,-0.093 0.1971,-0.2148 0.2502,-0.3676 0.0532,-0.1528 0.0886,-0.3145 0.1063,-0.4828 0.0156,-0.1683 0.0266,-0.3233 0.0288,-0.4651 0,-0.0132 0,-0.0243 0,-0.0332 0,-0.0088 0,-0.0199 0,-0.0332 0.0111,-0.124 -0.0221,-0.2237 -0.0974,-0.2967 -0.0753,-0.0731 -0.1727,-0.1307 -0.2923,-0.1684 -0.1218,-0.0376 -0.2436,-0.0686 -0.3699,-0.0885 -0.1262,-0.02 -0.2369,-0.0399 -0.3299,-0.0576 -0.3034,-0.062 -0.598,-0.1196 -0.8837,-0.1705 -0.2856,-0.051 -0.5802,-0.0798 -0.8836,-0.082 -0.0177,0 -0.0576,0.0022 -0.1129,0.0067 -0.0576,0.0044 -0.1218,0.0088 -0.1905,0.0133 -0.0708,0.0044 -0.1328,0.0088 -0.1882,0.0132 -0.0554,0.0045 -0.0908,0.0067 -0.1063,0.0067 -0.1041,0.0022 -0.2215,0.0022 -0.3499,-0.0022 -0.1285,-0.0045 -0.2547,-0.0022 -0.3809,0.0088 -0.1263,0.0111 -0.237,0.0399 -0.3322,0.0864 -0.0687,0.0376 -0.1285,0.0997 -0.175,0.1816 -0.0487,0.0819 -0.0885,0.1727 -0.1173,0.2724 -0.0288,0.0996 -0.051,0.1927 -0.0665,0.2835 -0.0155,0.0908 -0.0243,0.1638 -0.0265,0.2192 -0.0156,0.1639 -0.0355,0.341 -0.0598,0.5359 -0.0244,0.1949 -0.0443,0.3832 -0.0598,0.567 0,0.0199 -0.0023,0.042 -0.0045,0.073 -0.0022,0.0288 -0.0022,0.0554 -0.0044,0.0798 -0.0022,0.0265 -0.0044,0.0398 -0.0044,0.0465 -0.0022,0.0531 -0.0067,0.1506 -0.0111,0.2923 -0.0066,0.1417 -0.0133,0.3123 -0.0221,0.5138 -0.0089,0.1993 -0.0178,0.4141 -0.0266,0.6422 -0.0089,0.2303 -0.0199,0.4584 -0.031,0.6865 -0.0089,0.2303 -0.0177,0.4429 -0.0288,0.6423 -0.0089,0.1993 -0.0155,0.3698 -0.0244,0.5093 -0.0066,0.1395 -0.011,0.237 -0.0155,0.2879 -0.0133,0.1329 -0.0177,0.2658 -0.0155,0.3964 0.0022,0.1329 0.0089,0.2613 0.0155,0.3876 0.0045,0.0465 0.0111,0.1218 0.02,0.2236 0.0088,0.1019 0.0177,0.2171 0.0265,0.3477 0.0089,0.1285 0.02,0.2569 0.031,0.3854 0.0089,0.1306 0.02,0.2458 0.0288,0.3477 0.0089,0.1018 0.0177,0.1771 0.0266,0.2236 0.0399,0.2503 0.1152,0.4474 0.2237,0.5891 0.1107,0.144 0.2591,0.248 0.4473,0.3145 0.186,0.0642 0.4141,0.1041 0.6843,0.1196zm-4.0393 -0.9567c-0.0045,0.031 -0.0023,0.0797 0.0044,0.1439 0.0089,0.0642 0.0199,0.1307 0.0399,0.1993 0.0177,0.0709 0.042,0.1285 0.0708,0.1772 0.031,0.0487 0.0687,0.0753 0.1108,0.0775l1.249 0 0.372 -0.093c0.0487,-0.0199 0.082,-0.0642 0.1019,-0.1284 0.0221,-0.0643 0.0354,-0.1351 0.0399,-0.2082 0.0044,-0.0731 0.0044,-0.1351 0.0044,-0.1816 0,-0.0067 0,-0.0111 0,-0.0133 0,-0.0022 0,-0.0066 0,-0.0133 -0.0022,-0.1151 -0.0089,-0.2303 -0.0244,-0.3455 -0.0155,-0.1151 -0.0288,-0.2303 -0.0443,-0.3454 -0.0155,-0.1152 -0.0221,-0.2304 -0.0243,-0.3455 0.0022,-0.1329 0.0088,-0.2635 0.0199,-0.392 0.0111,-0.1284 0.0177,-0.2591 0.0199,-0.392 0,-0.372 -0.0066,-0.7662 -0.0155,-1.1848 -0.011,-0.4185 -0.0243,-0.8459 -0.0376,-1.2822 -0.0133,-0.4341 -0.0266,-0.8637 -0.0354,-1.2823 -0.0111,-0.4207 -0.0178,-0.8194 -0.0178,-1.1936 0,-0.0642 0,-0.1506 -0.0044,-0.2636 -0.0044,-0.1129 -0.0155,-0.2347 -0.0332,-0.3632 -0.0155,-0.1306 -0.0443,-0.2568 -0.0864,-0.3742 -0.0398,-0.1174 -0.0952,-0.2148 -0.1683,-0.2901 -0.0731,-0.0753 -0.1661,-0.1152 -0.279,-0.1174l-1.5148 0c-0.0554,0.0022 -0.093,0.0266 -0.1085,0.0731 -0.0177,0.0465 -0.0266,0.0974 -0.0266,0.155 0,0.0576 -0.0044,0.1063 -0.0111,0.1439 -0.0066,-0.0442 -0.0088,-0.0199 -0.0088,0.0776 0,0.0952 0,0.2436 0.0044,0.4473 0.0044,0.2037 0.0111,0.4474 0.0177,0.7264 0.0089,0.2812 0.0177,0.5824 0.0266,0.9058 0.0111,0.3255 0.0221,0.6555 0.0332,0.9921 0.0133,0.3366 0.0244,0.6644 0.0377,0.981 0.011,0.3167 0.0243,0.6068 0.0376,0.8726 0.0111,0.2657 0.0222,0.4894 0.0332,0.671 0.0111,0.1816 0.0222,0.3056 0.031,0.3721 0.0089,0.042 0.0178,0.0974 0.031,0.1638 0.0111,0.0687 0.0133,0.1329 0.0089,0.1949l0.1462 1.4351zm-4.1325 0.8637c0.0421,0.0044 0.1107,0.0088 0.2038,0.0132 0.093,0.0067 0.1948,0.0133 0.3056,0.02 0.1085,0.0066 0.2081,0.0133 0.2989,0.0199 0.0886,0.0044 0.1528,0.0089 0.1883,0.0133 0.011,0 0.0354,0 0.0731,0 0.0376,0 0.0775,0 0.1195,0 0.0421,0 0.0753,0 0.0997,0 0.1705,0 0.3211,-0.0111 0.4518,-0.0332 0.1284,-0.0222 0.2502,-0.051 0.3632,-0.0908 0.1129,-0.0377 0.2303,-0.082 0.3521,-0.1329 0.1218,-0.0531 0.2591,-0.1085 0.4141,-0.1683 0,0 0.0022,-0.0022 0.0067,-0.0066 0.0044,-0.0045 0.0066,-0.0067 0.0066,-0.0067 0.0066,-0.0066 0.0111,-0.0111 0.0133,-0.0133 0.0022,-0.0022 0.0066,-0.0066 0.0133,-0.0133 0.0753,-0.0509 0.1395,-0.1063 0.1949,-0.1661 0.0531,-0.0598 0.0819,-0.1417 0.0841,-0.2458 -0.0022,-0.0908 -0.0133,-0.1749 -0.0354,-0.2547 -0.0222,-0.0775 -0.0421,-0.166 -0.0576,-0.2635 -0.0266,-0.1594 -0.0531,-0.3211 -0.0753,-0.485 -0.0244,-0.1639 -0.0443,-0.3255 -0.0576,-0.485 0,-0.0243 -0.0022,-0.0598 -0.0066,-0.1063 -0.0044,-0.0465 -0.0089,-0.0886 -0.0133,-0.1284 -0.0044,-0.0399 -0.0066,-0.0642 -0.0066,-0.0709 -0.0156,-0.0709 -0.0554,-0.1218 -0.1196,-0.1484 -0.062,-0.0265 -0.1285,-0.0398 -0.1993,-0.0376 -0.1086,0 -0.1971,0.0066 -0.268,0.0177 -0.0731,0.0133 -0.1373,0.0266 -0.1971,0.0421 -0.0598,0.0155 -0.124,0.0288 -0.1971,0.0421 -0.0709,0.011 -0.1595,0.0177 -0.268,0.0177 -0.217,0 -0.4407,-0.0332 -0.6732,-0.0997 -0.2325,-0.0664 -0.4518,-0.1616 -0.6555,-0.2879 -0.2038,-0.1262 -0.3721,-0.2812 -0.5049,-0.4628 -0.0443,-0.0687 -0.0709,-0.1484 -0.082,-0.237 -0.0088,-0.0908 -0.0133,-0.1794 -0.0111,-0.268 0,-0.0066 0,-0.0155 0,-0.0265 0,-0.0111 0,-0.02 0,-0.0266 -0.0022,-0.1484 0.0045,-0.3233 0.0155,-0.5249 0.0111,-0.2015 0.0355,-0.4097 0.0753,-0.6223 0.0399,-0.2148 0.1019,-0.4185 0.1883,-0.6112 0.0841,-0.1904 0.1993,-0.3521 0.3477,-0.4828 0.1461,-0.1306 0.3322,-0.2103 0.5558,-0.2436 0.1506,-0.0155 0.3012,-0.0155 0.4518,0 0.1506,0.0155 0.3034,0.0355 0.4562,0.0576 0.1528,0.0222 0.3056,0.0332 0.4606,0.0354 0.0155,0 0.0421,0 0.082,0 0.0398,0 0.0797,0 0.1196,0 0.042,0 0.0708,0 0.0908,0 0.0531,-0.0155 0.0974,-0.0531 0.1328,-0.1129 0.0377,-0.0598 0.0665,-0.1262 0.0886,-0.1993 0.02,-0.0731 0.0355,-0.1373 0.0443,-0.1927 0.0598,-0.2392 0.1041,-0.485 0.1307,-0.733 0.0288,-0.248 0.0421,-0.4961 0.0421,-0.7419 0,-0.0066 0,-0.0111 0,-0.0133 0,-0.0022 0,-0.0066 0,-0.0133 0,-0.042 0,-0.0908 -0.0045,-0.1461 -0.0022,-0.0576 -0.0088,-0.1085 -0.0221,-0.155 -0.0133,-0.0443 -0.0355,-0.0731 -0.0665,-0.0842 -0.1528,-0.0509 -0.3078,-0.093 -0.4606,-0.1262 -0.155,-0.0333 -0.3012,-0.0753 -0.4429,-0.1263l-1.2225 0c-0.0066,0 -0.0332,0.0045 -0.0775,0.0111 -0.0465,0.0067 -0.0952,0.0133 -0.1506,0.0222 -0.0531,0.0088 -0.0974,0.0155 -0.1306,0.0199 -0.6312,0.1262 -1.1516,0.3366 -1.5613,0.6356 -0.4097,0.3012 -0.7264,0.6732 -0.9501,1.1183 -0.2236,0.4452 -0.3742,0.9501 -0.4517,1.517 -0.0775,0.5647 -0.0997,1.1738 -0.0665,1.8315 0,0.0354 -0.0022,0.0908 -0.0044,0.1683 -0.0022,0.0775 -0.0022,0.1572 -0.0044,0.2347 -0.0022,0.0776 -0.0045,0.1329 -0.0045,0.1683 -0.0022,0.3965 0.0288,0.7574 0.0953,1.083 0.0664,0.3255 0.186,0.6334 0.3543,0.9212 0.1683,0.2879 0.4031,0.5714 0.7065,0.8527 0.0022,0.0066 0.0177,0.0177 0.0442,0.0332 0.0244,0.0133 0.0465,0.0243 0.0621,0.0332 0.186,0.0974 0.3786,0.1794 0.5802,0.2436 0.1993,0.0664 0.4097,0.1307 0.6289,0.1949 0.0111,0 0.0288,0.0022 0.0576,0.0088 0.0288,0.0045 0.0443,0.0111 0.0487,0.0178zm-9.6865 -0.2392c0,0.0243 0.0044,0.0398 0.0132,0.0465 0.0089,0.0066 0.0266,0.0221 0.0532,0.0465 0.1019,0.0864 0.2037,0.1462 0.3056,0.1772 0.1041,0.031 0.2126,0.0465 0.3278,0.0487 0.1151,0.0022 0.2391,0.0022 0.3764,0 0.031,0 0.0798,0 0.1506,0 0.0709,0 0.1418,0 0.2126,0 0.0687,0 0.1152,0 0.1418,0 0.1439,-0.0222 0.2635,-0.0687 0.3521,-0.1373 0.0908,-0.0687 0.1594,-0.155 0.2082,-0.2613 0.0487,-0.1063 0.0841,-0.2259 0.104,-0.3588 0.0067,-0.0465 0.02,-0.124 0.0377,-0.2325 0.0155,-0.1063 0.0354,-0.2259 0.0554,-0.3544 0.0199,-0.1284 0.0398,-0.248 0.0575,-0.3565 0.0155,-0.1107 0.0288,-0.1883 0.0355,-0.2392 -0.0045,-0.0376 -0.0045,-0.0664 0,-0.0819 0.0044,-0.0177 0.011,-0.0355 0.0177,-0.0532 0.0044,-0.0177 0.0088,-0.0487 0.0088,-0.0908 0.0067,-0.0598 0.0067,-0.1262 0,-0.1993 -0.0066,-0.0731 0,-0.1395 0.0178,-0.1993 0.0177,-0.0598 0.0642,-0.0997 0.1417,-0.1196 0.0155,-0.0044 0.0487,-0.0111 0.0974,-0.0199 0.051,-0.0089 0.0997,-0.0155 0.1506,-0.0222 0.0487,-0.0066 0.082,-0.011 0.0975,-0.011 0.011,-0.0067 0.031,-0.0155 0.0598,-0.0244 0.031,-0.0089 0.0509,-0.0155 0.0598,-0.0155 0.0044,0 0.031,-0.0022 0.0797,-0.0044 0.0465,-0.0022 0.1041,-0.0067 0.1727,-0.0111 0.0687,-0.0044 0.1351,-0.0089 0.2038,-0.0133 0.0664,-0.0044 0.124,-0.0066 0.1683,-0.0111 0,0 0.0022,0 0.0088,0 0.0045,0 0.0111,0 0.0177,0 0.1174,0.0023 0.1971,0.031 0.2459,0.0864 0.0465,0.0554 0.0797,0.1262 0.0974,0.2126 0.0177,0.0864 0.0399,0.1772 0.0687,0.2724 0.0022,0.0354 0.0132,0.1041 0.031,0.206 0.0155,0.1018 0.0354,0.2192 0.0597,0.3565 0.0244,0.1351 0.0466,0.2702 0.0709,0.4075 0.0244,0.1373 0.0443,0.2569 0.0598,0.361 0.0177,0.1018 0.0288,0.1727 0.031,0.2103 0.0044,0.1418 0.0266,0.2835 0.0642,0.423 0.0399,0.1418 0.1108,0.2658 0.2149,0.3743 0.0376,0.0354 0.0841,0.0598 0.1417,0.0753 0.0576,0.0155 0.1196,0.0244 0.1816,0.0266 0.062,0.0044 0.1174,0.0044 0.1683,0.0044 0.0133,0 0.0266,0 0.0399,0 0.0243,0 0.0841,-0.0111 0.1815,-0.0288 0.0975,-0.0199 0.2104,-0.0443 0.3411,-0.0753 0.1307,-0.031 0.2591,-0.062 0.3853,-0.0974 0.1285,-0.0332 0.2326,-0.0665 0.3167,-0.0953 0.0842,-0.031 0.1285,-0.0553 0.1307,-0.0753l0 -0.651 -0.4252 -2.9499c0,0 0,-0.0066 0,-0.0155 0,-0.0088 0,-0.0177 0,-0.0243 -0.0332,-0.1484 -0.062,-0.3012 -0.0886,-0.4584 -0.0266,-0.1573 -0.0509,-0.3101 -0.0709,-0.4585 -0.011,-0.0686 -0.0243,-0.1461 -0.0421,-0.2303 -0.0177,-0.0863 -0.0332,-0.1683 -0.0442,-0.248 -0.0133,-0.0775 -0.0133,-0.1395 -0.0067,-0.186l-0.186 -0.6777c-0.0067,-0.0089 -0.0133,-0.0221 -0.0199,-0.0376 -0.0067,-0.0178 -0.0133,-0.0266 -0.02,-0.0288 -0.0265,-0.1196 -0.0598,-0.2392 -0.0952,-0.3588 -0.0376,-0.1196 -0.0775,-0.2392 -0.1174,-0.3588 -0.0598,-0.1838 -0.1328,-0.3831 -0.217,-0.6001 -0.0864,-0.217 -0.1838,-0.4319 -0.299,-0.6467 -0.1129,-0.2148 -0.2436,-0.4097 -0.392,-0.5891 -0.1483,-0.1793 -0.3166,-0.3211 -0.5049,-0.4296 -0.1882,-0.1085 -0.4008,-0.1639 -0.6333,-0.1661 -0.0997,0 -0.2082,0.0089 -0.3278,0.0266 -0.1174,0.0177 -0.2325,0.0465 -0.3411,0.0886 -0.1107,0.0443 -0.2015,0.1019 -0.2746,0.1771 -0.155,0.1816 -0.2901,0.3898 -0.4074,0.629 -0.1174,0.2392 -0.2215,0.485 -0.3101,0.7397 -0.0886,0.2524 -0.1683,0.4916 -0.2392,0.7175 -0.0066,0.0022 -0.0155,0.0088 -0.0243,0.0221 -0.0089,0.0133 -0.0155,0.0222 -0.0155,0.031 -0.1085,0.3123 -0.2104,0.6312 -0.3079,0.9523 -0.0952,0.3233 -0.1749,0.6489 -0.2369,0.9744l-0.0399 0.0665c-0.011,0.0398 -0.0243,0.0996 -0.0443,0.1838 -0.0199,0.0841 -0.0398,0.1749 -0.062,0.2724 -0.0221,0.0996 -0.0421,0.1882 -0.062,0.2701 -0.0199,0.082 -0.0332,0.1418 -0.0443,0.1772 -0.0066,0.0089 -0.0133,0.0244 -0.0199,0.0465 -0.0066,0.0222 -0.0133,0.0377 -0.0199,0.0465 -0.0133,0.0665 -0.0355,0.1728 -0.0643,0.3145 -0.0287,0.1417 -0.062,0.3034 -0.0996,0.485 -0.0377,0.1794 -0.0731,0.361 -0.1107,0.5403 -0.0377,0.1816 -0.0709,0.3433 -0.0997,0.485 -0.0288,0.1418 -0.0509,0.2481 -0.0642,0.3145 -0.0067,0.0487 -0.0177,0.1285 -0.0332,0.2348 -0.0133,0.1063 -0.0288,0.2236 -0.0443,0.3476 -0.0178,0.1263 -0.031,0.2414 -0.0443,0.3455 -0.0133,0.1063 -0.02,0.1816 -0.0244,0.2281 0.0044,0.051 0,0.093 -0.0155,0.1263 -0.0133,0.0332 -0.0221,0.0753 -0.0243,0.1262zm2.8833 -4.2387c0,-0.02 0.0023,-0.0487 0.0045,-0.0864 0.0022,-0.0376 0.0022,-0.0731 0.0044,-0.1063 0.0022,-0.0332 0.0044,-0.0531 0.0044,-0.0598 0,-0.0155 0.0045,-0.0531 0.0133,-0.1129 0.0089,-0.0576 0.0177,-0.1263 0.031,-0.2038 0.0111,-0.0775 0.0222,-0.1528 0.0332,-0.2236 0.0133,-0.0709 0.0222,-0.1263 0.0288,-0.1639 0,-0.0133 0,-0.0244 0,-0.0332 0,-0.0089 0,-0.02 0,-0.0333 0.0067,-0.0753 0.0155,-0.1616 0.0288,-0.2613 0.0155,-0.0974 0.0377,-0.1927 0.0687,-0.2879 0.0288,-0.093 0.073,-0.1705 0.1306,-0.2325 0.0576,-0.062 0.1307,-0.093 0.2237,-0.0952 0.1262,0.0022 0.2259,0.0398 0.3012,0.1107 0.0731,0.0731 0.1306,0.1639 0.1683,0.2724 0.0354,0.1107 0.0598,0.2237 0.0731,0.341 0.011,0.1152 0.0155,0.2193 0.0155,0.3123 0,0.0199 0,0.0487 0,0.0864 0,0.0376 0,0.073 0,0.1063 0,0.0332 0,0.0531 0,0.0597 0,0.0222 -0.0022,0.0621 -0.0067,0.1219 -0.0044,0.0597 -0.0088,0.1284 -0.0155,0.2015 -0.0044,0.0753 -0.011,0.1439 -0.0177,0.2081 -0.0044,0.0665 -0.0088,0.1152 -0.0133,0.1462 -0.0221,0.1395 -0.0797,0.2458 -0.1749,0.3189 -0.0953,0.0731 -0.206,0.124 -0.3322,0.1506 -0.1285,0.0244 -0.2503,0.0377 -0.3698,0.0354 -0.0621,-0.0022 -0.1086,-0.0243 -0.1374,-0.0642 -0.031,-0.0421 -0.0487,-0.0952 -0.0575,-0.1572 -0.0067,-0.062 -0.0111,-0.124 -0.0089,-0.1883 0.0022,-0.062 0.0044,-0.1173 0.0044,-0.1616zm-13.1678 2.8834c0,0.031 0,0.0841 0,0.155 0,0.0686 0,0.1461 0,0.2303 0,0.0842 0,0.1617 0,0.2303 0,0.0709 0,0.124 0,0.155 0.0044,0.0488 0.0088,0.1086 0.0132,0.1794 0.0067,0.0731 0.0133,0.144 0.02,0.2148 0.0066,0.0731 0.0133,0.1329 0.0199,0.1816 0.0044,0.0487 0.0089,0.0731 0.0133,0.0753l0.1329 0.0399 1.249 0c0.2214,-0.0022 0.4053,-0.0465 0.5492,-0.1307 0.1462,-0.0863 0.2613,-0.2015 0.3455,-0.3454 0.0841,-0.1462 0.1439,-0.3079 0.1838,-0.4873 0.0399,-0.1816 0.0664,-0.3654 0.0753,-0.558 0.0111,-0.1905 0.0177,-0.3743 0.0155,-0.5515 0,-0.0133 0,-0.0265 0,-0.0398 -0.0022,-0.0443 -0.0067,-0.113 -0.0111,-0.2038 -0.0066,-0.0908 -0.0133,-0.1949 -0.0199,-0.31 -0.0067,-0.1152 -0.0111,-0.2303 -0.0177,-0.3455 -0.0067,-0.1151 -0.0133,-0.2192 -0.02,-0.3122 -0.0044,-0.0931 -0.0088,-0.1639 -0.011,-0.2104 -0.02,-0.1085 -0.0355,-0.2193 -0.0488,-0.3322 -0.011,-0.1152 -0.0177,-0.2259 -0.0177,-0.3322 0,-0.0509 0.0045,-0.0952 0.0111,-0.1329 0.0066,-0.0376 0.0155,-0.0819 0.0288,-0.1329 0,0 0,0 0,-0.0022 0,0 0,-0.0044 0,-0.011 0,0 0,0 0,-0.0023 0,0 0,-0.0044 0,-0.011 0,0 0.0022,-0.0022 0.0066,-0.0067 0.0045,-0.0044 0.0067,-0.0066 0.0067,-0.0066 0.0354,0.0022 0.0886,0.0598 0.155,0.1705 0.0686,0.1107 0.1462,0.2569 0.2347,0.4363 0.0908,0.1794 0.1861,0.3742 0.2857,0.5824 0.1019,0.2082 0.2038,0.4141 0.3079,0.6135 0.1018,0.2015 0.2015,0.3764 0.2967,0.5292 0.0952,0.1506 0.1838,0.2614 0.2613,0.3256 0.0421,0.0376 0.1019,0.0642 0.1772,0.0731 0.0775,0.011 0.1528,0.0155 0.2303,0.0133 0.0753,-0.0045 0.1351,-0.0045 0.1772,-0.0067 0.1705,-0.0022 0.3366,-0.0133 0.5005,-0.0332 0.1616,-0.0222 0.3322,-0.0465 0.5093,-0.0731 0.0598,-0.0199 0.124,-0.0775 0.1883,-0.1705 0.0642,-0.0952 0.1284,-0.2038 0.1926,-0.3322 0.062,-0.1262 0.1196,-0.248 0.175,-0.3654 0.0531,-0.1152 0.0974,-0.2082 0.1351,-0.2746 0.1085,-0.1728 0.2192,-0.3499 0.3322,-0.5293 0.1129,-0.1816 0.2103,-0.3676 0.2923,-0.5603 0.0044,-0.0155 0.0133,-0.0443 0.0288,-0.0864 0.0155,-0.0442 0.0332,-0.093 0.0531,-0.1439 0.02,-0.0532 0.0377,-0.0997 0.0554,-0.1417 0.0155,-0.0421 0.0288,-0.0687 0.0354,-0.0798 0.0177,-0.0509 0.031,-0.1085 0.0465,-0.1727 0.0133,-0.0642 0.031,-0.124 0.0532,-0.1816 0.0243,-0.0598 0.0553,-0.1041 0.0996,-0.1373 0.051,0.6909 0.0842,1.3819 0.0997,2.0706 0.0177,0.691 0.0376,1.3775 0.0598,2.0618 0.0022,0.1683 0.0199,0.3012 0.0531,0.4009 0.0333,0.0996 0.0931,0.1705 0.1816,0.2126 0.0886,0.0442 0.2193,0.0642 0.3898,0.0642 0.0199,0 0.0443,-0.0022 0.0753,-0.0045 0.031,-0.0022 0.0598,-0.0022 0.0842,-0.0044 0.0243,-0.0022 0.0376,-0.0044 0.0398,-0.0044 0.0465,-0.0044 0.124,-0.0111 0.2303,-0.0244 0.1063,-0.0133 0.2215,-0.0265 0.3477,-0.0443 0.1263,-0.0155 0.2436,-0.031 0.3499,-0.0443 0.1063,-0.0155 0.1816,-0.0265 0.2281,-0.0332 0.0709,-0.0066 0.124,-0.0376 0.1639,-0.0908 0.0377,-0.0553 0.0642,-0.1173 0.0797,-0.1904 0.0155,-0.0709 0.0222,-0.1373 0.0222,-0.1971l0 -2.4981c-0.031,-0.3455 -0.0576,-0.6887 -0.0797,-1.0275 -0.0222,-0.3389 -0.0488,-0.6733 -0.0798,-1.0055 -0.0088,-0.0753 -0.0199,-0.1904 -0.0376,-0.3454 -0.0177,-0.1551 -0.0355,-0.33 -0.0554,-0.5249 -0.0221,-0.1949 -0.0421,-0.3898 -0.062,-0.5846 -0.0199,-0.1949 -0.0376,-0.3699 -0.0531,-0.5249 -0.0155,-0.155 -0.0244,-0.2702 -0.031,-0.3455 -0.0288,-0.2059 -0.0621,-0.3897 -0.1019,-0.5514 -0.0377,-0.1617 -0.0952,-0.2968 -0.1683,-0.4097 -0.0753,-0.1107 -0.1772,-0.1949 -0.3079,-0.2525 -0.1306,-0.0598 -0.3011,-0.0886 -0.5115,-0.0886 -0.02,0 -0.0465,0 -0.0797,0 -0.0333,0 -0.0643,0 -0.0931,0 -0.0288,0 -0.0465,0 -0.0531,0 -0.2813,0.0089 -0.5182,0.0288 -0.7065,0.0576 -0.1904,0.031 -0.3477,0.0775 -0.4739,0.144 -0.1262,0.0664 -0.2369,0.1572 -0.3322,0.2724 -0.093,0.1173 -0.1838,0.2657 -0.2746,0.4495 -0.0908,0.1838 -0.1949,0.4075 -0.3122,0.671 -0.093,0.206 -0.1905,0.412 -0.2924,0.6201 -0.0996,0.2104 -0.1971,0.423 -0.2923,0.6423 -0.0111,0.0288 -0.031,0.0753 -0.062,0.1417 -0.0288,0.0664 -0.062,0.1395 -0.0997,0.2192 -0.0354,0.0798 -0.0708,0.1528 -0.1018,0.2193 -0.031,0.0686 -0.0554,0.1196 -0.0687,0.1506 -0.0332,0.0199 -0.062,0.0664 -0.0886,0.1395 -0.0287,0.0753 -0.0531,0.155 -0.0797,0.2436 -0.0243,0.0886 -0.0509,0.1661 -0.0797,0.2325 -0.0288,0.0643 -0.062,0.0997 -0.0974,0.1019 -0.0133,-0.0044 -0.0333,-0.031 -0.0576,-0.0797 -0.0244,-0.051 -0.0465,-0.1041 -0.0709,-0.1595 -0.0244,-0.0531 -0.0443,-0.0886 -0.0576,-0.1063 -0.1616,-0.2857 -0.3189,-0.5691 -0.4673,-0.8482 -0.1505,-0.2812 -0.3122,-0.5603 -0.4894,-0.8393 -0.0066,-0.0332 -0.031,-0.0974 -0.0708,-0.1882 -0.0399,-0.0908 -0.0908,-0.1949 -0.1484,-0.3145 -0.0598,-0.1196 -0.1218,-0.237 -0.1838,-0.3565 -0.0643,-0.1174 -0.1218,-0.2193 -0.1728,-0.3079 -0.0509,-0.0886 -0.0908,-0.1461 -0.1151,-0.1749 -0.1617,-0.1838 -0.3278,-0.3256 -0.4961,-0.4274 -0.1683,-0.0997 -0.3499,-0.1706 -0.5448,-0.2082 -0.1926,-0.0399 -0.4097,-0.0576 -0.6466,-0.0554 -0.02,0 -0.0576,0 -0.113,0 -0.0531,0 -0.1085,0 -0.1639,0 -0.0575,0 -0.0974,0 -0.1218,0 -0.1705,0.0222 -0.3056,0.0864 -0.403,0.1971 -0.0997,0.1085 -0.1705,0.2458 -0.2148,0.4097 -0.0443,0.1639 -0.0731,0.3389 -0.0842,0.5227 -0.0111,0.1838 -0.0155,0.3609 -0.0133,0.5315 0.0022,0.1705 0.0022,0.3166 -0.0022,0.4384 -0.0022,0.0399 -0.0088,0.1241 -0.0199,0.2481 -0.0089,0.124 -0.0199,0.2679 -0.0332,0.434 -0.0133,0.1661 -0.0266,0.33 -0.0399,0.4961 -0.0133,0.1661 -0.0244,0.31 -0.0332,0.4341 -0.0111,0.124 -0.0177,0.2081 -0.0199,0.248 0,0.0111 0,0.0399 0,0.0886 0,0.0465 0,0.0974 0,0.1506 0,0.0553 0,0.0996 0,0.1328 0,0.4718 0.0066,0.9457 0.0199,1.4196 0.0133,0.4739 0.0332,0.9456 0.0598,1.4107 0,0.0155 0.0022,0.0398 0.0088,0.0709 0.0045,0.031 0.0111,0.0531 0.0178,0.062zm30.9064 6.1583c0,0.0088 0.0016,0.0145 0.0049,0.0169 0.0032,0.0024 0.0096,0.0081 0.0193,0.0169 0.0371,0.0315 0.0743,0.0533 0.1114,0.0646 0.0379,0.0113 0.0774,0.0169 0.1194,0.0177 0.042,0.0008 0.0871,0.0008 0.1372,0 0.0113,0 0.029,0 0.0548,0 0.0259,0 0.0517,0 0.0775,0 0.025,0 0.042,0 0.0516,0 0.0525,-0.008 0.0961,-0.025 0.1283,-0.05 0.0331,-0.025 0.0581,-0.0565 0.0759,-0.0952 0.0177,-0.0387 0.0306,-0.0823 0.0379,-0.1307 0.0024,-0.017 0.0073,-0.0452 0.0137,-0.0847 0.0057,-0.0388 0.0129,-0.0823 0.0202,-0.1291 0.0073,-0.0468 0.0145,-0.0904 0.021,-0.1299 0.0056,-0.0404 0.0105,-0.0686 0.0129,-0.0872 -0.0016,-0.0137 -0.0016,-0.0242 0,-0.0298 0.0016,-0.0065 0.004,-0.013 0.0064,-0.0194 0.0017,-0.0065 0.0033,-0.0178 0.0033,-0.0331 0.0024,-0.0218 0.0024,-0.046 0,-0.0726 -0.0025,-0.0266 0,-0.0508 0.0064,-0.0726 0.0065,-0.0218 0.0234,-0.0363 0.0517,-0.0436 0.0056,-0.0016 0.0177,-0.004 0.0355,-0.0073 0.0185,-0.0032 0.0363,-0.0056 0.0548,-0.008 0.0178,-0.0025 0.0299,-0.0041 0.0355,-0.0041 0.0041,-0.0024 0.0113,-0.0056 0.0218,-0.0088 0.0113,-0.0033 0.0186,-0.0057 0.0218,-0.0057 0.0016,0 0.0113,-0.0008 0.0291,-0.0016 0.0169,-0.0008 0.0379,-0.0024 0.0629,-0.004 0.025,-0.0017 0.0492,-0.0033 0.0742,-0.0049 0.0242,-0.0016 0.0452,-0.0024 0.0613,-0.004 0,0 0.0009,0 0.0033,0 0.0016,0 0.004,0 0.0064,0 0.0428,0.0008 0.0718,0.0113 0.0896,0.0315 0.0169,0.0201 0.029,0.0459 0.0355,0.0774 0.0065,0.0315 0.0145,0.0646 0.025,0.0993 0.0008,0.0129 0.0049,0.0379 0.0113,0.075 0.0057,0.0371 0.0129,0.0799 0.0218,0.1299 0.0089,0.0492 0.0169,0.0984 0.0258,0.1485 0.0089,0.05 0.0162,0.0936 0.0218,0.1315 0.0065,0.0371 0.0105,0.0629 0.0113,0.0767 0.0016,0.0516 0.0097,0.1032 0.0234,0.1541 0.0145,0.0516 0.0403,0.0968 0.0783,0.1363 0.0137,0.0129 0.0306,0.0218 0.0516,0.0275 0.021,0.0056 0.0436,0.0088 0.0662,0.0096 0.0226,0.0017 0.0427,0.0017 0.0613,0.0017 0.0048,0 0.0097,0 0.0145,0 0.0089,0 0.0307,-0.0041 0.0662,-0.0105 0.0355,-0.0073 0.0766,-0.0162 0.1242,-0.0275 0.0476,-0.0113 0.0944,-0.0226 0.1404,-0.0355 0.0468,-0.0121 0.0848,-0.0242 0.1154,-0.0347 0.0307,-0.0113 0.0468,-0.0201 0.0476,-0.0274l0 -0.2372 -0.1549 -1.0748c0,0 0,-0.0024 0,-0.0056 0,-0.0033 0,-0.0065 0,-0.0089 -0.0121,-0.0541 -0.0226,-0.1097 -0.0323,-0.167 -0.0097,-0.0573 -0.0185,-0.113 -0.0258,-0.1671 -0.004,-0.025 -0.0089,-0.0532 -0.0153,-0.0839 -0.0065,-0.0314 -0.0121,-0.0613 -0.0162,-0.0903 -0.0048,-0.0283 -0.0048,-0.0509 -0.0024,-0.0678l-0.0678 -0.2469c-0.0024,-0.0033 -0.0048,-0.0081 -0.0072,-0.0137 -0.0024,-0.0065 -0.0049,-0.0097 -0.0073,-0.0105 -0.0097,-0.0436 -0.0218,-0.0872 -0.0347,-0.1308 -0.0137,-0.0435 -0.0282,-0.0871 -0.0427,-0.1307 -0.0218,-0.0669 -0.0485,-0.1396 -0.0791,-0.2186 -0.0315,-0.0791 -0.067,-0.1574 -0.1089,-0.2356 -0.0412,-0.0783 -0.0888,-0.1493 -0.1429,-0.2147 -0.054,-0.0653 -0.1153,-0.117 -0.1839,-0.1565 -0.0686,-0.0395 -0.1461,-0.0597 -0.2308,-0.0605 -0.0363,0 -0.0758,0.0032 -0.1194,0.0097 -0.0428,0.0064 -0.0847,0.0169 -0.1243,0.0322 -0.0403,0.0162 -0.0734,0.0371 -0.1,0.0646 -0.0565,0.0661 -0.1057,0.142 -0.1485,0.2291 -0.0428,0.0872 -0.0807,0.1767 -0.113,0.2695 -0.0322,0.092 -0.0613,0.1792 -0.0871,0.2615 -0.0024,0.0008 -0.0057,0.0032 -0.0089,0.008 -0.0032,0.0049 -0.0056,0.0081 -0.0056,0.0113 -0.0396,0.1138 -0.0767,0.23 -0.1122,0.347 -0.0347,0.1178 -0.0637,0.2364 -0.0863,0.355l-0.0145 0.0242c-0.0041,0.0145 -0.0089,0.0363 -0.0162,0.067 -0.0072,0.0307 -0.0145,0.0637 -0.0226,0.0992 -0.008,0.0364 -0.0153,0.0686 -0.0226,0.0985 -0.0072,0.0298 -0.0121,0.0516 -0.0161,0.0645 -0.0024,0.0033 -0.0049,0.0089 -0.0073,0.017 -0.0024,0.008 -0.0048,0.0137 -0.0072,0.0169 -0.0049,0.0242 -0.0129,0.063 -0.0234,0.1146 -0.0105,0.0516 -0.0226,0.1105 -0.0363,0.1767 -0.0138,0.0654 -0.0267,0.1315 -0.0404,0.1969 -0.0137,0.0662 -0.0258,0.1251 -0.0363,0.1767 -0.0105,0.0516 -0.0186,0.0904 -0.0234,0.1146 -0.0024,0.0177 -0.0065,0.0468 -0.0121,0.0855 -0.0048,0.0387 -0.0105,0.0815 -0.0161,0.1267 -0.0065,0.046 -0.0113,0.0879 -0.0162,0.1259 -0.0048,0.0387 -0.0072,0.0661 -0.0089,0.0831 0.0017,0.0185 0,0.0339 -0.0056,0.046 -0.0048,0.0121 -0.0081,0.0274 -0.0089,0.046zm1.0506 -1.5444c0,-0.0073 0.0008,-0.0178 0.0016,-0.0315 0.0008,-0.0137 0.0008,-0.0266 0.0016,-0.0387 0.0008,-0.0121 0.0016,-0.0194 0.0016,-0.0218 0,-0.0057 0.0016,-0.0194 0.0049,-0.0412 0.0032,-0.0209 0.0064,-0.046 0.0113,-0.0742 0.004,-0.0282 0.008,-0.0557 0.0121,-0.0815 0.0048,-0.0258 0.008,-0.046 0.0105,-0.0597 0,-0.0048 0,-0.0089 0,-0.0121 0,-0.0032 0,-0.0073 0,-0.0121 0.0024,-0.0274 0.0056,-0.0589 0.0104,-0.0952 0.0057,-0.0355 0.0138,-0.0702 0.0251,-0.1049 0.0105,-0.0339 0.0266,-0.0621 0.0476,-0.0847 0.0209,-0.0226 0.0476,-0.0339 0.0815,-0.0347 0.046,0.0008 0.0823,0.0145 0.1097,0.0403 0.0266,0.0266 0.0476,0.0597 0.0613,0.0993 0.0129,0.0403 0.0218,0.0815 0.0267,0.1242 0.004,0.042 0.0056,0.0799 0.0056,0.1138 0,0.0073 0,0.0177 0,0.0315 0,0.0137 0,0.0266 0,0.0387 0,0.0121 0,0.0194 0,0.0218 0,0.008 -0.0008,0.0226 -0.0024,0.0444 -0.0016,0.0217 -0.0032,0.0468 -0.0057,0.0734 -0.0016,0.0274 -0.004,0.0524 -0.0064,0.0758 -0.0016,0.0242 -0.0033,0.042 -0.0049,0.0533 -0.008,0.0508 -0.029,0.0895 -0.0637,0.1162 -0.0347,0.0266 -0.0751,0.0452 -0.121,0.0548 -0.0468,0.0089 -0.0912,0.0138 -0.1348,0.013 -0.0226,-0.0009 -0.0395,-0.0089 -0.05,-0.0234 -0.0113,-0.0154 -0.0178,-0.0347 -0.021,-0.0573 -0.0024,-0.0226 -0.004,-0.0452 -0.0032,-0.0686 0.0008,-0.0226 0.0016,-0.0428 0.0016,-0.0589zm-4.1671 1.6315c0.0153,0.0016 0.0403,0.0032 0.0742,0.0048 0.0339,0.0025 0.071,0.0049 0.1114,0.0073 0.0395,0.0024 0.0758,0.0048 0.1089,0.0073 0.0323,0.0016 0.0557,0.0032 0.0686,0.0048 0.004,0 0.0129,0 0.0266,0 0.0137,0 0.0282,0 0.0436,0 0.0153,0 0.0274,0 0.0363,0 0.0621,0 0.117,-0.004 0.1646,-0.0121 0.0468,-0.0081 0.0912,-0.0186 0.1323,-0.0331 0.0412,-0.0137 0.0839,-0.0298 0.1283,-0.0484 0.0444,-0.0194 0.0944,-0.0395 0.1509,-0.0613 0,0 0.0008,-0.0008 0.0024,-0.0024 0.0016,-0.0017 0.0024,-0.0025 0.0024,-0.0025 0.0025,-0.0024 0.0041,-0.004 0.0049,-0.0048 0.0008,-0.0008 0.0024,-0.0024 0.0048,-0.0048 0.0275,-0.0186 0.0509,-0.0388 0.071,-0.0606 0.0194,-0.0217 0.0299,-0.0516 0.0307,-0.0895 -0.0008,-0.0331 -0.0048,-0.0638 -0.0129,-0.0928 -0.0081,-0.0283 -0.0153,-0.0605 -0.021,-0.096 -0.0097,-0.0581 -0.0194,-0.117 -0.0274,-0.1767 -0.0089,-0.0598 -0.0162,-0.1187 -0.021,-0.1768 0,-0.0088 -0.0008,-0.0217 -0.0024,-0.0387 -0.0016,-0.0169 -0.0033,-0.0323 -0.0049,-0.0468 -0.0016,-0.0145 -0.0024,-0.0234 -0.0024,-0.0258 -0.0056,-0.0258 -0.0202,-0.0444 -0.0436,-0.0541 -0.0226,-0.0096 -0.0468,-0.0145 -0.0726,-0.0137 -0.0395,0 -0.0718,0.0024 -0.0976,0.0065 -0.0266,0.0048 -0.05,0.0097 -0.0718,0.0153 -0.0218,0.0057 -0.0452,0.0105 -0.0718,0.0153 -0.0259,0.0041 -0.0581,0.0065 -0.0977,0.0065 -0.079,0 -0.1605,-0.0121 -0.2453,-0.0363 -0.0847,-0.0242 -0.1646,-0.0589 -0.2388,-0.1049 -0.0742,-0.046 -0.1356,-0.1025 -0.184,-0.1687 -0.0161,-0.025 -0.0258,-0.054 -0.0298,-0.0863 -0.0033,-0.0331 -0.0049,-0.0653 -0.0041,-0.0976 0,-0.0024 0,-0.0057 0,-0.0097 0,-0.004 0,-0.0073 0,-0.0097 -0.0008,-0.054 0.0016,-0.1178 0.0057,-0.1912 0.004,-0.0734 0.0129,-0.1493 0.0274,-0.2268 0.0145,-0.0782 0.0371,-0.1525 0.0686,-0.2227 0.0307,-0.0693 0.0726,-0.1282 0.1267,-0.1759 0.0532,-0.0476 0.121,-0.0766 0.2025,-0.0887 0.0549,-0.0057 0.1097,-0.0057 0.1646,0 0.0549,0.0056 0.1106,0.0129 0.1662,0.021 0.0557,0.008 0.1114,0.0121 0.1679,0.0129 0.0056,0 0.0153,0 0.0298,0 0.0145,0 0.0291,0 0.0436,0 0.0153,0 0.0258,0 0.0331,0 0.0193,-0.0057 0.0355,-0.0194 0.0484,-0.0412 0.0137,-0.0218 0.0242,-0.046 0.0323,-0.0726 0.0072,-0.0266 0.0129,-0.05 0.0161,-0.0702 0.0218,-0.0871 0.0379,-0.1767 0.0476,-0.2671 0.0105,-0.0903 0.0153,-0.1807 0.0153,-0.2703 0,-0.0024 0,-0.004 0,-0.0048 0,-0.0008 0,-0.0024 0,-0.0049 0,-0.0153 0,-0.033 -0.0016,-0.0532 -0.0008,-0.021 -0.0032,-0.0395 -0.008,-0.0565 -0.0049,-0.0161 -0.013,-0.0266 -0.0243,-0.0307 -0.0556,-0.0185 -0.1121,-0.0338 -0.1678,-0.0459 -0.0565,-0.0121 -0.1097,-0.0275 -0.1614,-0.046l-0.4454 0c-0.0024,0 -0.0121,0.0016 -0.0282,0.004 -0.0169,0.0024 -0.0347,0.0048 -0.0549,0.0081 -0.0193,0.0032 -0.0355,0.0056 -0.0476,0.0072 -0.2299,0.046 -0.4196,0.1227 -0.5688,0.2316 -0.1493,0.1097 -0.2647,0.2453 -0.3462,0.4075 -0.0815,0.1622 -0.1363,0.3461 -0.1646,0.5527 -0.0282,0.2057 -0.0363,0.4276 -0.0242,0.6673 0,0.0129 -0.0008,0.0331 -0.0016,0.0613 -0.0008,0.0283 -0.0008,0.0573 -0.0016,0.0855 -0.0008,0.0283 -0.0016,0.0485 -0.0016,0.0614 -0.0008,0.1444 0.0105,0.2759 0.0347,0.3945 0.0242,0.1186 0.0677,0.2308 0.1291,0.3357 0.0613,0.1049 0.1468,0.2082 0.2574,0.3106 0.0008,0.0025 0.0064,0.0065 0.0161,0.0121 0.0089,0.0049 0.0169,0.0089 0.0226,0.0121 0.0678,0.0356 0.138,0.0654 0.2114,0.0888 0.0726,0.0242 0.1493,0.0476 0.2291,0.071 0.0041,0 0.0105,0.0008 0.021,0.0032 0.0105,0.0017 0.0162,0.0041 0.0178,0.0065zm-3.6249 -0.3147c-0.0016,0.0113 -0.0008,0.0291 0.0016,0.0525 0.0032,0.0234 0.0073,0.0476 0.0145,0.0726 0.0065,0.0258 0.0154,0.0468 0.0259,0.0645 0.0113,0.0178 0.025,0.0275 0.0403,0.0283l0.4551 0 0.1355 -0.0339c0.0178,-0.0073 0.0299,-0.0234 0.0372,-0.0468 0.008,-0.0234 0.0129,-0.0492 0.0145,-0.0759 0.0016,-0.0266 0.0016,-0.0492 0.0016,-0.0661 0,-0.0025 0,-0.0041 0,-0.0049 0,-0.0008 0,-0.0024 0,-0.0048 -0.0008,-0.042 -0.0032,-0.0839 -0.0089,-0.1259 -0.0056,-0.0419 -0.0105,-0.0839 -0.0161,-0.1259 -0.0057,-0.0419 -0.0081,-0.0839 -0.0089,-0.1258 0.0008,-0.0484 0.0032,-0.0961 0.0073,-0.1429 0.004,-0.0468 0.0064,-0.0944 0.0072,-0.1428 0,-0.1355 -0.0024,-0.2792 -0.0056,-0.4317 -0.004,-0.1525 -0.0089,-0.3082 -0.0137,-0.4671 -0.0049,-0.1582 -0.0097,-0.3147 -0.0129,-0.4672 -0.0041,-0.1533 -0.0065,-0.2986 -0.0065,-0.4349 0,-0.0234 0,-0.0549 -0.0016,-0.0961 -0.0016,-0.0411 -0.0057,-0.0855 -0.0121,-0.1323 -0.0057,-0.0476 -0.0161,-0.0936 -0.0315,-0.1363 -0.0145,-0.0428 -0.0347,-0.0783 -0.0613,-0.1057 -0.0266,-0.0275 -0.0605,-0.042 -0.1017,-0.0428l-0.5519 0c-0.0202,0.0008 -0.0339,0.0097 -0.0395,0.0266 -0.0065,0.017 -0.0097,0.0355 -0.0097,0.0565 0,0.021 -0.0016,0.0387 -0.004,0.0524 -0.0025,-0.0161 -0.0033,-0.0072 -0.0033,0.0283 0,0.0347 0,0.0887 0.0017,0.163 0.0016,0.0742 0.004,0.163 0.0064,0.2646 0.0032,0.1025 0.0065,0.2122 0.0097,0.33 0.004,0.1187 0.0081,0.2389 0.0121,0.3615 0.0048,0.1227 0.0089,0.2421 0.0137,0.3575 0.004,0.1154 0.0089,0.2211 0.0137,0.3179 0.0041,0.0968 0.0081,0.1783 0.0121,0.2445 0.0041,0.0661 0.0081,0.1113 0.0113,0.1355 0.0033,0.0154 0.0065,0.0355 0.0113,0.0597 0.0041,0.0251 0.0049,0.0485 0.0033,0.071l0.0532 0.5229zm-3.5861 -0.2663c-0.0016,0.017 -0.0008,0.0436 0.0024,0.0791 0.004,0.0347 0.0097,0.0742 0.0169,0.1178 0.0073,0.0428 0.0162,0.0855 0.0259,0.1267 0.0096,0.042 0.0201,0.0775 0.0306,0.1073 0.0105,0.0299 0.021,0.0492 0.0307,0.0581 0.0056,0.0032 0.0137,0.0073 0.0258,0.0113 0.0121,0.0048 0.0234,0.0081 0.0355,0.0113 0.0121,0.0024 0.0202,0.0032 0.0258,0.0016 0.0073,0 0.021,0.0008 0.0404,0.0016 0.0201,0.0008 0.0395,0.0008 0.0597,0.0016 0.0193,0.0008 0.0331,0.0017 0.0403,0.0017 0.1509,0 0.3026,-0.0025 0.4551,-0.0089 0.1533,-0.0065 0.305,-0.0178 0.4551,-0.0347 0.0379,-0.0032 0.0734,-0.0049 0.1073,-0.0057 0.0339,-0.0008 0.0637,-0.0048 0.0896,-0.0129 0.0258,-0.008 0.046,-0.0242 0.0613,-0.0492 0.0145,-0.0242 0.0226,-0.0613 0.0226,-0.1113 0,-0.0081 0,-0.021 0.0008,-0.0404 0.0008,-0.0185 0.0008,-0.0395 0.0016,-0.0621 0.0008,-0.0226 0.0008,-0.0436 0.0016,-0.063 0.0008,-0.0193 0.0008,-0.0338 0.0008,-0.0427 0,-0.0605 0,-0.1202 -0.0016,-0.1783 -0.0016,-0.0589 -0.0056,-0.117 -0.0129,-0.1751 -0.004,-0.0065 -0.0097,-0.0121 -0.0186,-0.0178 -0.0088,-0.0048 -0.0169,-0.0097 -0.0258,-0.0129 -0.0089,-0.004 -0.0145,-0.0065 -0.0185,-0.0081 -0.0476,-0.0048 -0.0993,-0.0096 -0.1558,-0.0153 -0.0564,-0.0048 -0.1137,-0.0097 -0.171,-0.0129 -0.0573,-0.004 -0.1114,-0.0057 -0.1622,-0.0057 -0.004,0 -0.0121,0.0009 -0.0242,0.0025 -0.0129,0.0016 -0.025,0.0032 -0.0371,0.0048 -0.0113,0.0016 -0.0186,0.0024 -0.021,0.0024 -0.0024,0 -0.0073,0 -0.0161,0 -0.0089,0 -0.0186,0 -0.0291,0 -0.0097,0 -0.0169,0 -0.0226,0 -0.004,0 -0.0105,0 -0.0194,0 -0.0096,0 -0.0193,0 -0.029,0 -0.0089,0 -0.0153,0 -0.0194,0 -0.0129,-0.0048 -0.0209,-0.0169 -0.025,-0.0379 -0.004,-0.021 -0.0056,-0.042 -0.0048,-0.0645 0,-0.0226 0.0008,-0.038 0.0008,-0.0477 0.0008,-0.1089 0.0064,-0.2186 0.0161,-0.3292 0.0105,-0.1105 0.0194,-0.2202 0.0275,-0.3292 0.0096,-0.1622 0.0185,-0.3243 0.0274,-0.4873 0.0089,-0.1622 0.0186,-0.326 0.0307,-0.4906 0.0016,-0.0153 0.0032,-0.0412 0.0064,-0.0767 0.0032,-0.0355 0.0073,-0.075 0.0113,-0.117 0.004,-0.0419 0.0081,-0.0815 0.0113,-0.117 0.004,-0.0355 0.0073,-0.0613 0.0097,-0.0766 -0.0016,-0.0194 -0.004,-0.0387 -0.0073,-0.0573 -0.0032,-0.0194 -0.0105,-0.0371 -0.0218,-0.0541 -0.0072,-0.0096 -0.0266,-0.0193 -0.0589,-0.0274 -0.0314,-0.0089 -0.0685,-0.0169 -0.1097,-0.0234 -0.042,-0.0065 -0.0807,-0.0121 -0.117,-0.0161 -0.0355,-0.0033 -0.0613,-0.0057 -0.0775,-0.0057 -0.0024,0 -0.0121,-0.0008 -0.029,-0.0016 -0.0161,-0.0008 -0.0347,-0.0008 -0.0549,-0.0016 -0.021,-0.0008 -0.0379,-0.0016 -0.0516,-0.0016 -0.0178,0 -0.0436,-0.0008 -0.0751,-0.0024 -0.0322,-0.0017 -0.0669,-0.0017 -0.104,-0.0009 -0.0372,0.0009 -0.0727,0.0041 -0.1066,0.0105 -0.0338,0.0065 -0.0613,0.017 -0.0831,0.0315 -0.0209,0.0153 -0.0322,0.0363 -0.033,0.0629 -0.0097,0.184 -0.0186,0.3688 -0.0267,0.5536 -0.0072,0.1847 -0.0113,0.3687 -0.0121,0.5503 0.0008,0.0548 0.0049,0.1065 0.0121,0.1557 0.0073,0.0492 0.0146,0.0976 0.021,0.1452 0.0065,0.0484 0.0081,0.0977 0.0057,0.1493l0.0726 1.036zm-3.4216 0.6149c0.0154,0 0.0396,0 0.0727,0 0.0322,0 0.0702,0 0.1121,0 0.042,0 0.0839,0 0.1259,0 0.0419,0 0.0799,0 0.1138,0 0.033,0 0.0581,0 0.0742,0 0.0557,0.0032 0.1105,0.0081 0.1662,0.0137 0.0549,0.0065 0.113,0.0097 0.1727,0.0105 0.0629,-0.0008 0.1259,-0.0065 0.1896,-0.0153 0.0629,-0.0089 0.1275,-0.0154 0.1928,-0.0186 0.0097,-0.0056 0.0202,-0.0113 0.0307,-0.0186 0.0105,-0.0072 0.0202,-0.0121 0.0274,-0.0153 0.0146,-0.0266 0.0259,-0.0557 0.0331,-0.0855 0.0081,-0.0299 0.0129,-0.0597 0.0154,-0.0888 0.0064,-0.0726 0.0056,-0.146 -0.0025,-0.2194 -0.008,-0.0735 -0.0185,-0.1461 -0.0314,-0.2163 0,-0.0073 -0.0008,-0.0137 -0.0025,-0.0194 -0.0016,-0.0056 -0.0024,-0.0121 -0.0024,-0.0193 -0.0064,-0.0267 -0.0177,-0.0468 -0.0339,-0.0589 -0.0153,-0.0129 -0.0355,-0.0226 -0.0597,-0.0291 -0.025,-0.0064 -0.0532,-0.0145 -0.0855,-0.0234 -0.0767,-0.0097 -0.1557,-0.0153 -0.2388,-0.0177 -0.0832,-0.0024 -0.1671,-0.0041 -0.2518,-0.0033 -0.0839,0.0009 -0.1654,0.0017 -0.2453,0.0017 -0.0282,0 -0.05,-0.0049 -0.0637,-0.0138 -0.0146,-0.0096 -0.0242,-0.0225 -0.0291,-0.0403 -0.0048,-0.0169 -0.008,-0.0379 -0.0089,-0.0621 -0.0016,-0.0154 -0.0032,-0.0347 -0.0048,-0.0581 -0.0024,-0.0234 -0.0048,-0.0476 -0.0064,-0.0718 -0.0025,-0.0251 -0.0041,-0.046 -0.0057,-0.0638 -0.0016,-0.0185 -0.0024,-0.0298 -0.0024,-0.0339 0,-0.0024 0.0008,-0.0097 0.0016,-0.0234 0.0008,-0.0129 0.0016,-0.0266 0.0032,-0.0419 0.0016,-0.0154 0.0033,-0.0275 0.0049,-0.0363 0,-0.0073 0.0008,-0.0178 0.0016,-0.0315 0.0008,-0.0145 0.0008,-0.0282 0.0016,-0.042 0.0008,-0.0129 0.0016,-0.0226 0.0016,-0.0282 0.0065,-0.0137 0.0178,-0.0218 0.0355,-0.0234 0.0178,-0.0016 0.0331,-0.0016 0.0468,-0.0008 0.0024,0 0.0048,0 0.0065,0 0.0024,0 0.0032,0 0.0032,0 0.0105,0.0016 0.0323,0.0032 0.0645,0.0048 0.0323,0.0025 0.0678,0.0049 0.1065,0.0073 0.0396,0.0024 0.0743,0.0048 0.1058,0.0073 0.0314,0.0016 0.0524,0.0032 0.0621,0.0048 0.0008,0 0.0032,0 0.0081,0 0.0048,0 0.008,0 0.0112,0 0.0501,-0.0008 0.0904,-0.0161 0.1211,-0.0444 0.0298,-0.029 0.0524,-0.0653 0.0678,-0.1097 0.0153,-0.0444 0.0258,-0.0904 0.0314,-0.138 0.0065,-0.0476 0.0105,-0.0904 0.0121,-0.1291 0.0024,-0.0073 0.0041,-0.0145 0.0041,-0.021 0.0008,-0.0072 0.0008,-0.0129 0.0008,-0.0177 0.0056,-0.0525 0.0048,-0.092 -0.0033,-0.1194 -0.0072,-0.0267 -0.0258,-0.046 -0.0548,-0.0565 -0.0299,-0.0113 -0.0751,-0.0186 -0.1356,-0.0226 -0.0008,0 -0.0048,0 -0.0137,0 -0.0081,0 -0.0178,0 -0.029,0 -0.0113,0 -0.021,0 -0.0299,0 -0.0234,0 -0.0444,0 -0.0629,0.0008 -0.0186,0 -0.0372,0.0016 -0.0565,0.0032 -0.0194,0.0024 -0.0428,0.0057 -0.0694,0.0105 -0.0242,0.0032 -0.0484,0.0097 -0.0734,0.0186 -0.0259,0.0088 -0.0525,0.0145 -0.0815,0.0153 -0.0146,-0.0202 -0.0283,-0.0436 -0.0396,-0.071 -0.0113,-0.0274 -0.0193,-0.0557 -0.0226,-0.0839 -0.0032,-0.0283 -0.0008,-0.0541 0.0089,-0.0775 0,-0.0484 0,-0.0992 0.0016,-0.1517 0.0008,-0.0516 0.0033,-0.1049 0.0081,-0.1581 0,-0.0065 0.0008,-0.0162 0.0024,-0.0291 0.0016,-0.0137 0.0024,-0.0234 0.0024,-0.029 0.0097,-0.0121 0.021,-0.0194 0.0331,-0.0234 0.0121,-0.0041 0.025,-0.0057 0.0396,-0.0057 0.0468,0.0008 0.0936,0.0049 0.1404,0.0129 0.0468,0.0073 0.0944,0.0154 0.142,0.0226 0.0476,0.0081 0.0952,0.0121 0.1436,0.0129 0.0508,0 0.0968,0 0.1388,0 0.0419,-0.0008 0.0839,-0.0016 0.1258,-0.0032 0.042,-0.0008 0.0896,-0.0032 0.1421,-0.0064 0.0411,-0.0339 0.0718,-0.0783 0.0911,-0.134 0.0194,-0.0557 0.0323,-0.1146 0.0388,-0.1759 0.0056,-0.0613 0.0097,-0.1178 0.0105,-0.1694 0,-0.0049 0,-0.0089 0,-0.0121 0,-0.0033 0,-0.0073 0,-0.0121 0.004,-0.0452 -0.0081,-0.0815 -0.0355,-0.1082 -0.0275,-0.0266 -0.063,-0.0476 -0.1066,-0.0613 -0.0443,-0.0137 -0.0887,-0.025 -0.1347,-0.0323 -0.046,-0.0072 -0.0863,-0.0145 -0.1202,-0.0209 -0.1106,-0.0226 -0.2179,-0.0436 -0.322,-0.0622 -0.1041,-0.0185 -0.2114,-0.029 -0.3219,-0.0298 -0.0065,0 -0.021,0.0008 -0.0412,0.0024 -0.021,0.0016 -0.0444,0.0032 -0.0694,0.0048 -0.0258,0.0016 -0.0484,0.0033 -0.0686,0.0049 -0.0201,0.0016 -0.033,0.0024 -0.0387,0.0024 -0.0379,0.0008 -0.0807,0.0008 -0.1275,-0.0008 -0.0468,-0.0016 -0.0928,-0.0008 -0.1388,0.0032 -0.0459,0.0041 -0.0863,0.0145 -0.121,0.0315 -0.025,0.0137 -0.0468,0.0363 -0.0637,0.0661 -0.0178,0.0299 -0.0323,0.063 -0.0428,0.0993 -0.0105,0.0363 -0.0186,0.0702 -0.0242,0.1033 -0.0056,0.0331 -0.0089,0.0597 -0.0097,0.0799 -0.0056,0.0597 -0.0129,0.1242 -0.0218,0.1952 -0.0088,0.071 -0.0161,0.1396 -0.0218,0.2066 0,0.0072 -0.0008,0.0153 -0.0016,0.0266 -0.0008,0.0105 -0.0008,0.0202 -0.0016,0.0291 -0.0008,0.0096 -0.0016,0.0145 -0.0016,0.0169 -0.0008,0.0194 -0.0024,0.0549 -0.004,0.1065 -0.0025,0.0517 -0.0049,0.1138 -0.0081,0.1872 -0.0032,0.0726 -0.0065,0.1509 -0.0097,0.234 -0.0032,0.0839 -0.0072,0.167 -0.0113,0.2501 -0.0032,0.084 -0.0064,0.1614 -0.0105,0.234 -0.0032,0.0727 -0.0056,0.1348 -0.0088,0.1856 -0.0025,0.0509 -0.0041,0.0864 -0.0057,0.1049 -0.0048,0.0484 -0.0064,0.0968 -0.0056,0.1444 0.0008,0.0485 0.0032,0.0953 0.0056,0.1413 0.0016,0.0169 0.004,0.0443 0.0073,0.0814 0.0032,0.0372 0.0064,0.0791 0.0097,0.1267 0.0032,0.0468 0.0072,0.0936 0.0112,0.1404 0.0033,0.0476 0.0073,0.0896 0.0105,0.1267 0.0033,0.0371 0.0065,0.0646 0.0097,0.0815 0.0145,0.0912 0.042,0.163 0.0815,0.2146 0.0404,0.0525 0.0944,0.0904 0.163,0.1146 0.0678,0.0234 0.1509,0.0379 0.2493,0.0436zm0.1695 -3.7133c0.0016,0.0347 0.0145,0.0646 0.0403,0.0888 0.025,0.025 0.0557,0.0387 0.0904,0.0419 0.025,-0.0008 0.0573,-0.0121 0.096,-0.0355 0.0387,-0.0226 0.0799,-0.0516 0.1235,-0.0871 0.0435,-0.0363 0.0847,-0.0743 0.1242,-0.1146 0.0388,-0.0403 0.0702,-0.0791 0.0952,-0.1146 0.0251,-0.0363 0.0388,-0.0653 0.0404,-0.0887 0.0008,-0.0339 -0.0081,-0.063 -0.025,-0.0864 -0.0178,-0.0242 -0.0404,-0.0435 -0.0686,-0.0589 -0.0283,-0.0153 -0.0581,-0.0258 -0.0896,-0.0331 -0.0314,-0.0072 -0.0605,-0.0104 -0.0879,-0.0104 -0.0081,-0.0025 -0.017,-0.0041 -0.0275,-0.0041 -0.0096,-0.0008 -0.0153,-0.0008 -0.0161,-0.0008 -0.004,0 -0.0105,0.0032 -0.0194,0.0081 -0.0096,0.0048 -0.0193,0.0105 -0.029,0.0161 -0.0089,0.0065 -0.0153,0.0113 -0.0194,0.0145 -0.0234,0.0146 -0.0476,0.042 -0.0734,0.0815 -0.0258,0.0396 -0.05,0.0848 -0.0726,0.1348 -0.0234,0.05 -0.042,0.0976 -0.0565,0.1428 -0.0153,0.0452 -0.0234,0.0799 -0.025,0.1057zm-5.1354 2.1931c0,0.0831 0.0041,0.1678 0.0137,0.255 0.0089,0.0871 0.0234,0.1743 0.0436,0.2598 0.0202,0.0855 0.046,0.167 0.0783,0.2453 0.0403,0.0936 0.0952,0.1856 0.167,0.2776 0.071,0.092 0.1509,0.1743 0.2388,0.2485 0.088,0.0742 0.1768,0.1307 0.2671,0.171 0.05,0.0218 0.1073,0.0396 0.1703,0.0541 0.0629,0.0145 0.1283,0.0258 0.1969,0.0339 0.0677,0.0089 0.1339,0.0145 0.1976,0.0186 0.0646,0.0032 0.1235,0.0048 0.1759,0.0048 0.063,-0.0008 0.1259,-0.0065 0.1897,-0.0169 0.0629,-0.0105 0.1274,-0.021 0.1928,-0.0315 0.004,0 0.0105,-0.0008 0.0194,-0.0016 0.0097,-0.0008 0.0185,-0.0008 0.0274,-0.0016 0.0089,-0.0009 0.0137,-0.0017 0.0161,-0.0017 0.0218,-0.008 0.0501,-0.0185 0.084,-0.033 0.0338,-0.0138 0.0702,-0.0307 0.1073,-0.0501 0.0379,-0.0193 0.0726,-0.0419 0.1049,-0.0661 0.0322,-0.0242 0.0581,-0.0509 0.0774,-0.0791 0.0186,-0.0291 0.0267,-0.0589 0.0234,-0.0912 0.0178,-0.1654 0.0331,-0.3316 0.0468,-0.4986 0.0129,-0.1679 0.0202,-0.3341 0.021,-0.4987 0,-0.0161 0,-0.0371 0,-0.0621 0,-0.025 0,-0.0509 0,-0.0775 0,-0.0258 0,-0.0484 0,-0.0678 0,-0.0185 0,-0.0306 0,-0.0347 0,-0.0104 -0.0008,-0.0274 -0.0016,-0.05 -0.0008,-0.0226 -0.0016,-0.0444 -0.0032,-0.0661 -0.0016,-0.0218 -0.0033,-0.0364 -0.0049,-0.0436 -0.008,-0.0428 -0.0258,-0.0726 -0.054,-0.0912 -0.0275,-0.0177 -0.0614,-0.0315 -0.1009,-0.0395 -0.0516,-0.0154 -0.1049,-0.0267 -0.1598,-0.0315 -0.0548,-0.0057 -0.1105,-0.0081 -0.1662,-0.0081 -0.0548,0 -0.1097,0 -0.163,0.0008 -0.0137,0 -0.0322,0.0008 -0.0548,0.0016 -0.0226,0.0009 -0.0428,0.0009 -0.0614,0.0017 -0.0185,0.0008 -0.0282,0.0016 -0.029,0.0016 -0.0113,0 -0.0323,0.0024 -0.0654,0.0064 -0.0322,0.0033 -0.0686,0.0081 -0.1081,0.0137 -0.0395,0.0049 -0.0758,0.0097 -0.1073,0.0146 -0.0323,0.0048 -0.0533,0.0072 -0.0629,0.0088 -0.0081,0.0009 -0.0138,0.0017 -0.0178,0.0009 -0.004,-0.0009 -0.0089,0.0008 -0.0129,0.0032 -0.004,0.0024 -0.0097,0.0097 -0.0178,0.0202 -0.0217,0.0379 -0.0379,0.0742 -0.0476,0.1081 -0.0096,0.0331 -0.0153,0.0669 -0.0177,0.1016 -0.0016,0.0347 -0.0032,0.0735 -0.0024,0.1146 0,0.0049 0,0.0089 0,0.0121 0,0.0033 0,0.0073 0,0.0121 -0.0008,0.0347 -0.0016,0.0743 -0.0025,0.1178 -0.0008,0.0436 0.0025,0.0856 0.0097,0.1267 0.0073,0.0412 0.0226,0.0751 0.046,0.1017 0.0234,0.0266 0.0589,0.0403 0.1065,0.0411 0.0339,-0.0008 0.0678,-0.0032 0.1009,-0.0072 0.0339,-0.0041 0.0662,-0.0065 0.0976,-0.0073 0.0073,0 0.017,0.0008 0.0307,0.0016 0.0137,0.0008 0.0266,0.0008 0.0403,0.0016 0.0137,0.0008 0.0234,0.0016 0.0307,0.0016 0.0032,0.0025 0.0081,0.0049 0.0145,0.0081 0.0065,0.0024 0.0113,0.0065 0.0145,0.0113 0.0017,0.0105 0.0033,0.0283 0.0049,0.0533 0.0016,0.0242 0.0024,0.0492 0.0032,0.0742 0.0008,0.025 0.0016,0.0444 0.0016,0.0565 0,0.0153 -0.0008,0.0355 -0.0016,0.0597 -0.0008,0.0242 -0.0016,0.046 -0.0032,0.0662 -0.0016,0.0201 -0.0032,0.0314 -0.0049,0.0338l-0.0096 0.0049c-0.0008,0 -0.0065,0 -0.0162,0 -0.0105,0 -0.0193,0 -0.0274,0 -0.1323,0 -0.255,-0.0186 -0.3671,-0.0565 -0.1122,-0.0371 -0.2098,-0.0928 -0.2929,-0.1662 -0.0832,-0.0734 -0.1485,-0.1638 -0.1945,-0.2719 -0.046,-0.1073 -0.0694,-0.2316 -0.0702,-0.372 0,-0.0557 0.004,-0.1081 0.0121,-0.1565 0.0081,-0.0485 0.0194,-0.0969 0.0339,-0.1453 0.0145,-0.0476 0.0315,-0.0992 0.0508,-0.1533 0.0008,-0.0032 0.0024,-0.0081 0.0049,-0.0137 0.0032,-0.0065 0.0048,-0.0097 0.0048,-0.0105l0.1695 -0.1694c0.0177,-0.017 0.0435,-0.0323 0.0774,-0.0452 0.0339,-0.0129 0.0718,-0.0242 0.1122,-0.0339 0.0403,-0.0089 0.079,-0.0153 0.1162,-0.0202 0.0371,-0.0048 0.0669,-0.0072 0.0911,-0.0072 0.0606,0.0008 0.1203,0.0056 0.1784,0.0153 0.0589,0.0097 0.117,0.0202 0.1751,0.0331 0.0274,0.0072 0.0548,0.0153 0.0823,0.0258 0.0274,0.0105 0.0548,0.0202 0.0823,0.029 0.0274,0.0081 0.0548,0.0121 0.0823,0.0129 0.0282,-0.0016 0.0564,-0.0209 0.0847,-0.0581 0.0282,-0.0371 0.0548,-0.0847 0.0799,-0.1428 0.025,-0.0573 0.0476,-0.1178 0.0669,-0.1807 0.0202,-0.0629 0.0355,-0.1202 0.0468,-0.1727 0.0113,-0.0524 0.017,-0.092 0.017,-0.1186 0,-0.0234 -0.0008,-0.0436 -0.0032,-0.0589 -0.0025,-0.0153 -0.0081,-0.0299 -0.0162,-0.042 -0.0081,-0.0121 -0.021,-0.0258 -0.0387,-0.0395 -0.0525,-0.0452 -0.1065,-0.0815 -0.1622,-0.1081 -0.0557,-0.0266 -0.1194,-0.0476 -0.1912,-0.0613 -0.0129,-0.0017 -0.0363,-0.0025 -0.0686,-0.0041 -0.0331,-0.0016 -0.0694,-0.0032 -0.1089,-0.0048 -0.0404,-0.0016 -0.0775,-0.0032 -0.1114,-0.0041 -0.0339,-0.0008 -0.0589,-0.0016 -0.0742,-0.0016 -0.0025,0 -0.0113,0 -0.0258,0 -0.0154,0 -0.0315,0 -0.0501,0 -0.0177,0 -0.0331,0 -0.0452,0 -0.0823,0 -0.1694,0.0129 -0.2614,0.0388 -0.092,0.025 -0.184,0.0597 -0.2751,0.1057 -0.092,0.0452 -0.1792,0.0976 -0.2615,0.1589 -0.0823,0.0605 -0.1541,0.1267 -0.2162,0.1985 -0.0621,0.0718 -0.1098,0.1469 -0.1428,0.2243 -0.0049,0.0121 -0.0089,0.0242 -0.0121,0.0355 -0.0033,0.0121 -0.0073,0.0226 -0.0121,0.0323 -0.038,0.1041 -0.0719,0.205 -0.1025,0.3018 -0.0307,0.0968 -0.0549,0.1952 -0.0726,0.2953 -0.0186,0.1001 -0.0275,0.2058 -0.0283,0.3179zm-4.5689 1.2588l0.0048 0.1694c0.0016,0.0129 0.0137,0.0234 0.0347,0.0331 0.0218,0.0097 0.0484,0.0177 0.0799,0.025 0.0323,0.0064 0.0645,0.0121 0.0968,0.0161 0.0331,0.0049 0.0613,0.0081 0.0855,0.0097 0.0251,0.0024 0.0404,0.0032 0.0468,0.0032 0.0025,0 0.0138,0 0.0323,0 0.0194,0 0.0412,-0.0008 0.0646,-0.0016 0.0234,-0.0008 0.0427,-0.0016 0.0581,-0.0032 0.0088,0 0.025,-0.0008 0.0468,-0.0024 0.0218,-0.0016 0.0443,-0.0032 0.0661,-0.0049 0.0218,-0.0016 0.038,-0.0024 0.0468,-0.0024 0.0541,-0.0048 0.0952,-0.0242 0.1259,-0.0581 0.0299,-0.0339 0.0516,-0.0766 0.0646,-0.1283 0.0129,-0.0516 0.0201,-0.1065 0.0225,-0.1646 0.0025,-0.0573 0.0017,-0.1129 -0.0008,-0.1654 -0.0024,-0.0524 -0.0032,-0.0968 -0.004,-0.1323 0,-0.0097 0,-0.0299 0.0008,-0.0597 0,-0.0307 0.0008,-0.0662 0.0008,-0.1073 0.0008,-0.0404 0.0008,-0.0815 0.0016,-0.1227 0,-0.0411 0.0008,-0.0774 0.0008,-0.1081 0.0008,-0.0307 0.0008,-0.0517 0.0008,-0.0621 0.0009,-0.0234 0.0025,-0.0541 0.0041,-0.0928 0.0008,-0.0396 0.0032,-0.0815 0.0056,-0.1259 0.0025,-0.0452 0.0049,-0.088 0.0081,-0.1283 0.004,-0.0403 0.0081,-0.0734 0.0129,-0.1001 0.0049,-0.0258 0.0113,-0.0403 0.0178,-0.0419 0.0129,0.0008 0.0266,0.0081 0.0403,0.021 0.0137,0.0129 0.0266,0.0274 0.0387,0.0435 0.0113,0.0162 0.021,0.0283 0.0275,0.0372 0.0468,0.1121 0.096,0.2251 0.1468,0.3397 0.0517,0.1145 0.1057,0.2275 0.163,0.3388 0.0565,0.1122 0.1162,0.2195 0.1791,0.3236 0.0331,0.0412 0.0614,0.088 0.0848,0.1396 0.0234,0.0516 0.0476,0.1017 0.0726,0.1517 0.025,0.05 0.0565,0.0936 0.0944,0.1299 0.0137,0.0113 0.0298,0.0177 0.0484,0.021 0.0194,0.0032 0.0387,0.0048 0.0581,0.0048 0.0186,-0.0008 0.0347,-0.0016 0.0484,-0.0016 0.0024,0 0.0057,-0.0008 0.0097,-0.0024 0.004,-0.0016 0.0073,-0.0024 0.0097,-0.0024 0.0379,0 0.0839,0 0.138,0.0016 0.0548,0.0016 0.1113,0.0008 0.1702,-0.0033 0.0589,-0.004 0.1146,-0.0145 0.1662,-0.0322 0.0517,-0.017 0.0944,-0.0452 0.1267,-0.0839 0.0331,-0.038 0.0508,-0.0912 0.0525,-0.1582l0.0145 -1.1958c-0.0016,-0.0089 -0.0024,-0.0242 -0.0033,-0.0444 -0.0016,-0.0201 -0.0024,-0.0427 -0.0032,-0.0669 -0.0008,-0.0242 -0.0016,-0.0468 -0.0024,-0.067 -0.0008,-0.0202 -0.0008,-0.0355 -0.0008,-0.0444 0,-0.0186 0,-0.0468 -0.0008,-0.0847 0,-0.0387 -0.0008,-0.0823 -0.0008,-0.1307 -0.0008,-0.0492 -0.0016,-0.0977 -0.0024,-0.1461 -0.0008,-0.0492 -0.0017,-0.0928 -0.0025,-0.1323 -0.0016,-0.0387 -0.0024,-0.0678 -0.0032,-0.0871l0 -0.0388c0,-0.0226 0,-0.0573 -0.0008,-0.1049 0,-0.0476 -0.0008,-0.1008 -0.0008,-0.1613 -0.0008,-0.0598 -0.0016,-0.1203 -0.0024,-0.1808 -0.0008,-0.0605 -0.0016,-0.1146 -0.0024,-0.1622 -0.0017,-0.0484 -0.0025,-0.0839 -0.0033,-0.1073 0,-0.0032 -0.0008,-0.0089 -0.0024,-0.0177 -0.0016,-0.0081 -0.0024,-0.0154 -0.0024,-0.021 -0.0024,-0.0355 -0.0194,-0.063 -0.05,-0.0815 -0.0315,-0.0186 -0.0694,-0.0315 -0.1154,-0.0379 -0.0452,-0.0065 -0.0912,-0.0097 -0.1372,-0.0089 -0.0468,0 -0.0863,0.0008 -0.1186,0.0024 -0.0048,0 -0.0097,0 -0.0145,0 -0.0049,0 -0.0097,0 -0.0137,0 -0.0049,0 -0.0081,0 -0.0105,0 -0.0089,0 -0.0202,0.0008 -0.0339,0.0016 -0.0137,0.0008 -0.0258,0.0008 -0.0371,0.0016 -0.0121,0.0008 -0.0186,0.0016 -0.021,0.0016 -0.0105,0.0017 -0.0283,0.0041 -0.0533,0.0073 -0.025,0.004 -0.0524,0.0081 -0.0823,0.0121 -0.0298,0.004 -0.0573,0.0081 -0.0823,0.0121 -0.025,0.0032 -0.0427,0.0057 -0.0532,0.0073 -0.0121,0.0105 -0.0202,0.0395 -0.0242,0.0871 -0.0041,0.0476 -0.0057,0.1065 -0.0041,0.1775 0.0016,0.071 0.0049,0.1477 0.0097,0.2292 0.0048,0.0815 0.0097,0.1622 0.0161,0.2421 0.0057,0.0798 0.0113,0.1516 0.0162,0.2162 0.0056,0.0645 0.0089,0.1154 0.0105,0.1517 0.0016,0.0726 0.0016,0.1444 0.0008,0.2154 -0.0016,0.071 0,0.1428 0.004,0.2155 0,0.0024 -0.0024,0.0056 -0.0056,0.0088 -0.0033,0.0033 -0.0065,0.0057 -0.0089,0.0057 -0.0137,-0.0008 -0.0331,-0.0186 -0.0589,-0.0516 -0.0258,-0.0339 -0.0557,-0.0775 -0.0896,-0.1316 -0.0331,-0.054 -0.0669,-0.1121 -0.1025,-0.1743 -0.0355,-0.0621 -0.0693,-0.1226 -0.1008,-0.1807 -0.0323,-0.0581 -0.0597,-0.1073 -0.0831,-0.1493 -0.0234,-0.0419 -0.0396,-0.0694 -0.0492,-0.0823 -0.0025,-0.0056 -0.0097,-0.0185 -0.021,-0.0371 -0.0121,-0.0185 -0.0242,-0.0371 -0.0371,-0.0549 -0.0121,-0.0185 -0.0202,-0.0298 -0.0242,-0.0338 -0.0501,-0.0848 -0.0993,-0.1703 -0.1477,-0.2566 -0.0476,-0.0864 -0.0968,-0.1719 -0.1477,-0.2566 -0.0072,-0.0089 -0.0169,-0.0226 -0.029,-0.0404 -0.0121,-0.0177 -0.0242,-0.0347 -0.0355,-0.0516 -0.0113,-0.017 -0.0186,-0.0283 -0.0226,-0.0339 -0.0202,-0.0266 -0.0476,-0.0492 -0.0807,-0.067 -0.0339,-0.0177 -0.0686,-0.0298 -0.1033,-0.0347 -0.0153,0 -0.0403,0 -0.075,0 -0.0347,0 -0.0726,0 -0.113,0.0008 -0.0411,0 -0.0782,0.0008 -0.1121,0.0017 -0.0339,0 -0.0581,0.0016 -0.0727,0.0024 -0.0032,0 -0.0096,0 -0.0201,0 -0.0097,0 -0.0178,0 -0.0234,0 -0.017,0.0016 -0.0315,0.0024 -0.0436,0.004 -0.0121,0.0008 -0.025,0.0024 -0.0387,0.0049 -0.0137,0.0024 -0.0315,0.0056 -0.0533,0.0104 -0.0121,0.0113 -0.025,0.0347 -0.0371,0.071 -0.0129,0.0364 -0.0242,0.0783 -0.0355,0.1243 -0.0113,0.0468 -0.0202,0.0904 -0.0282,0.1307 -0.0073,0.0412 -0.013,0.071 -0.0154,0.0904 0.0089,0.1436 0.0137,0.2889 0.0145,0.4349 0,0.146 0.0009,0.2913 0.0017,0.4373 0.0016,0.1461 0.0072,0.2913 0.0177,0.4349l-0.0048 1.3024zm-4.3754 0.1404c0,0.0088 0.0016,0.0145 0.0049,0.0169 0.0032,0.0024 0.0096,0.0081 0.0193,0.0169 0.0371,0.0315 0.0743,0.0533 0.1114,0.0646 0.0379,0.0113 0.0774,0.0169 0.1194,0.0177 0.042,0.0008 0.0871,0.0008 0.1372,0 0.0113,0 0.029,0 0.0548,0 0.0259,0 0.0517,0 0.0775,0 0.025,0 0.042,0 0.0516,0 0.0525,-0.008 0.0961,-0.025 0.1283,-0.05 0.0331,-0.025 0.0581,-0.0565 0.0759,-0.0952 0.0177,-0.0387 0.0306,-0.0823 0.0379,-0.1307 0.0024,-0.017 0.0073,-0.0452 0.0137,-0.0847 0.0057,-0.0388 0.0129,-0.0823 0.0202,-0.1291 0.0073,-0.0468 0.0145,-0.0904 0.021,-0.1299 0.0056,-0.0404 0.0105,-0.0686 0.0129,-0.0872 -0.0016,-0.0137 -0.0016,-0.0242 0,-0.0298 0.0016,-0.0065 0.004,-0.013 0.0064,-0.0194 0.0017,-0.0065 0.0033,-0.0178 0.0033,-0.0331 0.0024,-0.0218 0.0024,-0.046 0,-0.0726 -0.0025,-0.0266 0,-0.0508 0.0064,-0.0726 0.0065,-0.0218 0.0234,-0.0363 0.0517,-0.0436 0.0056,-0.0016 0.0177,-0.004 0.0355,-0.0073 0.0185,-0.0032 0.0363,-0.0056 0.0548,-0.008 0.0178,-0.0025 0.0299,-0.0041 0.0355,-0.0041 0.0041,-0.0024 0.0113,-0.0056 0.0218,-0.0088 0.0113,-0.0033 0.0186,-0.0057 0.0218,-0.0057 0.0016,0 0.0113,-0.0008 0.0291,-0.0016 0.0169,-0.0008 0.0379,-0.0024 0.0629,-0.004 0.025,-0.0017 0.0492,-0.0033 0.0742,-0.0049 0.0242,-0.0016 0.0452,-0.0024 0.0613,-0.004 0,0 0.0009,0 0.0033,0 0.0016,0 0.004,0 0.0064,0 0.0428,0.0008 0.0718,0.0113 0.0896,0.0315 0.0169,0.0201 0.029,0.0459 0.0355,0.0774 0.0065,0.0315 0.0145,0.0646 0.025,0.0993 0.0008,0.0129 0.0049,0.0379 0.0113,0.075 0.0057,0.0371 0.0129,0.0799 0.0218,0.1299 0.0089,0.0492 0.0169,0.0984 0.0258,0.1485 0.0089,0.05 0.0162,0.0936 0.0218,0.1315 0.0065,0.0371 0.0105,0.0629 0.0113,0.0767 0.0016,0.0516 0.0097,0.1032 0.0234,0.1541 0.0145,0.0516 0.0403,0.0968 0.0783,0.1363 0.0137,0.0129 0.0306,0.0218 0.0516,0.0275 0.021,0.0056 0.0436,0.0088 0.0662,0.0096 0.0226,0.0017 0.0427,0.0017 0.0613,0.0017 0.0048,0 0.0097,0 0.0145,0 0.0089,0 0.0307,-0.0041 0.0662,-0.0105 0.0355,-0.0073 0.0766,-0.0162 0.1242,-0.0275 0.0476,-0.0113 0.0944,-0.0226 0.1404,-0.0355 0.0468,-0.0121 0.0848,-0.0242 0.1154,-0.0347 0.0307,-0.0113 0.0468,-0.0201 0.0476,-0.0274l0 -0.2372 -0.1549 -1.0748c0,0 0,-0.0024 0,-0.0056 0,-0.0033 0,-0.0065 0,-0.0089 -0.0121,-0.0541 -0.0226,-0.1097 -0.0323,-0.167 -0.0097,-0.0573 -0.0185,-0.113 -0.0258,-0.1671 -0.004,-0.025 -0.0089,-0.0532 -0.0153,-0.0839 -0.0065,-0.0314 -0.0121,-0.0613 -0.0162,-0.0903 -0.0048,-0.0283 -0.0048,-0.0509 -0.0024,-0.0678l-0.0678 -0.2469c-0.0024,-0.0033 -0.0048,-0.0081 -0.0072,-0.0137 -0.0024,-0.0065 -0.0049,-0.0097 -0.0073,-0.0105 -0.0097,-0.0436 -0.0218,-0.0872 -0.0347,-0.1308 -0.0137,-0.0435 -0.0282,-0.0871 -0.0427,-0.1307 -0.0218,-0.0669 -0.0485,-0.1396 -0.0791,-0.2186 -0.0315,-0.0791 -0.067,-0.1574 -0.1089,-0.2356 -0.0412,-0.0783 -0.0888,-0.1493 -0.1429,-0.2147 -0.054,-0.0653 -0.1153,-0.117 -0.1839,-0.1565 -0.0686,-0.0395 -0.1461,-0.0597 -0.2308,-0.0605 -0.0363,0 -0.0758,0.0032 -0.1194,0.0097 -0.0428,0.0064 -0.0847,0.0169 -0.1243,0.0322 -0.0403,0.0162 -0.0734,0.0371 -0.1,0.0646 -0.0565,0.0661 -0.1057,0.142 -0.1485,0.2291 -0.0428,0.0872 -0.0807,0.1767 -0.113,0.2695 -0.0322,0.092 -0.0613,0.1792 -0.0871,0.2615 -0.0024,0.0008 -0.0057,0.0032 -0.0089,0.008 -0.0032,0.0049 -0.0056,0.0081 -0.0056,0.0113 -0.0396,0.1138 -0.0767,0.23 -0.1122,0.347 -0.0347,0.1178 -0.0637,0.2364 -0.0863,0.355l-0.0145 0.0242c-0.0041,0.0145 -0.0089,0.0363 -0.0162,0.067 -0.0072,0.0307 -0.0145,0.0637 -0.0226,0.0992 -0.008,0.0364 -0.0153,0.0686 -0.0226,0.0985 -0.0072,0.0298 -0.0121,0.0516 -0.0161,0.0645 -0.0024,0.0033 -0.0049,0.0089 -0.0073,0.017 -0.0024,0.008 -0.0048,0.0137 -0.0072,0.0169 -0.0049,0.0242 -0.0129,0.063 -0.0234,0.1146 -0.0105,0.0516 -0.0226,0.1105 -0.0363,0.1767 -0.0138,0.0654 -0.0267,0.1315 -0.0404,0.1969 -0.0137,0.0662 -0.0258,0.1251 -0.0363,0.1767 -0.0105,0.0516 -0.0186,0.0904 -0.0234,0.1146 -0.0024,0.0177 -0.0065,0.0468 -0.0121,0.0855 -0.0048,0.0387 -0.0105,0.0815 -0.0161,0.1267 -0.0065,0.046 -0.0113,0.0879 -0.0162,0.1259 -0.0048,0.0387 -0.0072,0.0661 -0.0089,0.0831 0.0017,0.0185 0,0.0339 -0.0056,0.046 -0.0048,0.0121 -0.0081,0.0274 -0.0089,0.046zm1.0506 -1.5444c0,-0.0073 0.0008,-0.0178 0.0016,-0.0315 0.0008,-0.0137 0.0008,-0.0266 0.0016,-0.0387 0.0008,-0.0121 0.0016,-0.0194 0.0016,-0.0218 0,-0.0057 0.0016,-0.0194 0.0049,-0.0412 0.0032,-0.0209 0.0064,-0.046 0.0113,-0.0742 0.004,-0.0282 0.008,-0.0557 0.0121,-0.0815 0.0048,-0.0258 0.008,-0.046 0.0105,-0.0597 0,-0.0048 0,-0.0089 0,-0.0121 0,-0.0032 0,-0.0073 0,-0.0121 0.0024,-0.0274 0.0056,-0.0589 0.0104,-0.0952 0.0057,-0.0355 0.0138,-0.0702 0.0251,-0.1049 0.0105,-0.0339 0.0266,-0.0621 0.0476,-0.0847 0.0209,-0.0226 0.0476,-0.0339 0.0815,-0.0347 0.046,0.0008 0.0823,0.0145 0.1097,0.0403 0.0266,0.0266 0.0476,0.0597 0.0613,0.0993 0.0129,0.0403 0.0218,0.0815 0.0267,0.1242 0.004,0.042 0.0056,0.0799 0.0056,0.1138 0,0.0073 0,0.0177 0,0.0315 0,0.0137 0,0.0266 0,0.0387 0,0.0121 0,0.0194 0,0.0218 0,0.008 -0.0008,0.0226 -0.0024,0.0444 -0.0016,0.0217 -0.0032,0.0468 -0.0057,0.0734 -0.0016,0.0274 -0.004,0.0524 -0.0064,0.0758 -0.0016,0.0242 -0.0033,0.042 -0.0049,0.0533 -0.008,0.0508 -0.029,0.0895 -0.0637,0.1162 -0.0347,0.0266 -0.0751,0.0452 -0.121,0.0548 -0.0468,0.0089 -0.0912,0.0138 -0.1348,0.013 -0.0226,-0.0009 -0.0395,-0.0089 -0.05,-0.0234 -0.0113,-0.0154 -0.0178,-0.0347 -0.021,-0.0573 -0.0024,-0.0226 -0.004,-0.0452 -0.0032,-0.0686 0.0008,-0.0226 0.0016,-0.0428 0.0016,-0.0589zm5.4034 -36.8295c-0.0068,-0.2067 -0.303,-0.7087 -0.4061,-0.9218 -0.1466,-0.3032 -0.2719,-0.6484 -0.376,-0.9809 -0.1097,-0.3503 -0.2076,-0.6988 -0.285,-1.0731l-0.1889 -1.1671 -1.568 -0.3759 0.1042 2.459c-0.1292,-0.1148 -0.1782,-0.4036 -0.2156,-0.5694 -0.0735,-0.3261 -0.3242,-2.0432 -0.3254,-2.0456 -0.0141,-0.0287 -0.0919,-0.0657 -0.1281,-0.0813l-1.07 -0.3989c-0.0216,1.015 0.1317,1.7197 0.1317,2.0652l-0.0254 0.1203c-0.2458,-0.3491 -0.2972,-0.9729 -0.3658,-1.447l-0.6543 -1.1659c-0.001,0.4189 0.1511,1.9195 0.1956,2.4611 -0.0066,-0.0053 -0.0158,-0.0232 -0.0182,-0.0179 -0.0025,0.0055 -0.0141,-0.014 -0.0174,-0.0184 -0.133,-0.1801 -0.2526,-0.8643 -0.2882,-1.0711 -0.069,-0.4005 -0.1279,-0.8281 -0.2058,-1.2203 -0.0412,-0.2081 -0.0366,-0.3951 -0.1906,-0.5036l-1.3443 -0.816 0.0081 1.7844c-0.16,-0.3103 -0.3052,-1.8824 -0.3839,-2.0934 -0.0804,-0.2156 -0.2909,-0.3016 -0.606,-0.6191l-0.9767 -0.8769c-0.0972,-0.081 -0.2011,-0.217 -0.2956,-0.3325 -0.2114,-0.2582 -0.288,-0.3849 -0.5641,-0.6933 -0.1928,-0.2151 -0.3289,-0.4454 -0.5029,-0.7215l-0.5543 -0.6696c-0.091,0.7346 0.1647,1.7258 0.2969,2.4201 0.2332,1.225 1.028,2.8689 1.6944,3.8618 0.4985,0.7425 0.7537,0.9288 1.2846,1.4951 0.1783,0.1901 0.8811,0.7807 1.1085,0.9431 0.1418,0.1014 0.2414,0.2188 0.3916,0.3029 0.3036,0.17 0.6167,0.3138 0.9234,0.4665 0.2815,0.1401 0.6486,0.3462 0.9319,0.4589 0.3923,0.1561 1.6847,0.5784 2.0981,0.6796 0.5419,0.1326 1.8341,0.3635 2.3876,0.3625zm-7.018 5.4918l-0.0831 -0.6081 1.4241 0.0593c0.2471,-0.438 0.1742,-1.1447 -0.1556,-1.4282 -0.0966,-0.0832 -0.5006,-0.2541 -0.6391,-0.3197 -0.6837,-0.324 -1.5716,0.3006 -1.4989,1.2567 0.023,0.3034 0.1026,0.5214 0.2957,0.6751 0.1185,0.0943 0.4717,0.3061 0.6569,0.3649zm10.1881 9.5928c-1.6366,0.2578 -1.3373,2.7254 0.3834,2.5076 0.59,-0.0746 1.1629,-0.6891 1.0398,-1.4397 -0.0985,-0.6008 -0.6975,-1.1822 -1.4232,-1.0679zm10.5319 -11.4946c0.44,0.4715 2.7088,1.219 3.4216,1.4491 0.6262,0.2022 1.3133,0.3015 1.9946,0.4203l2.3449 0.1259c-0.0587,-0.0628 0.0394,0.0042 -0.0853,-0.0691 -0.0845,-0.0499 -0.602,-0.1947 -0.7455,-0.2483 -0.9264,-0.3452 -1.4511,-0.6944 -2.2246,-1.2168 -0.8966,-0.6053 -1.6708,-1.4216 -2.3836,-2.2067 -0.2128,0.0691 -0.8703,0.7202 -1.1081,0.9016 -0.1775,0.1352 -0.4156,0.2801 -0.6124,0.4135l-0.5681 0.394c-0.0047,0.0045 -0.0133,0.0144 -0.0169,0.0181 -0.0037,0.0036 -0.0116,0.0117 -0.0166,0.0184zm-18.0924 2.0094c1.6757,0.0281 3.1456,-0.1051 4.7151,-0.6073 1.5481,-0.4953 2.0136,-0.7185 3.3603,-1.3983 -0.0918,-0.196 -0.4054,-0.3255 -0.6067,-0.4556 -0.8748,-0.5655 -1.0371,-0.7669 -1.7688,-1.4704 -0.2482,0.1228 -1.2568,1.316 -1.8123,1.769 -0.7467,0.6091 -1.2634,0.9871 -2.1799,1.4599 -0.281,0.145 -0.5264,0.2385 -0.8361,0.354 -0.2455,0.0915 -0.7351,0.192 -0.8716,0.3487zm7.84 -1.5461c-0.0129,0.2816 0.4686,0.7478 0.7218,1.0538l-0.8851 -0.8001 -0.4595 0.0807c-0.0171,0.2531 0.0381,0.2483 0.2064,0.4845l0.2865 0.3985 -0.792 -0.7148c-0.1845,0.0183 -0.4539,0.205 -0.6669,0.2863l-0.7401 0.2494 0.2226 0.7131 -0.4694 -0.5747c-0.1714,-0.001 -0.9623,0.3127 -1.177,0.3903l0.5787 1.2082c-0.2898,-0.1329 -0.7133,-0.8637 -0.8934,-1.1457 -0.3673,-0.0575 -1.7492,0.2527 -2.2789,0.2941l-2.48 -0.0489c0.0789,0.2352 0.4424,0.2857 0.6613,0.4414 0.3127,0.2226 1.1483,0.6047 1.5358,0.7131 0.3193,0.0893 0.535,0.2123 0.8164,0.3093 1.1321,0.3901 2.8437,0.3917 4.0348,0.2458 1.2253,-0.1499 2.4912,-0.5303 3.4346,-1.0375 0.238,-0.1279 0.4958,-0.2387 0.719,-0.3729 0.2668,-0.1604 0.3896,-0.32 0.6293,-0.4954 0.7872,-0.5763 0.4273,-0.2109 1.1734,-1.092 -0.76,-0.1534 -1.485,-0.2493 -2.2079,-0.4674 -0.6705,-0.2024 -1.0583,-0.6027 -1.5005,-0.3486 -0.2945,0.1692 0.035,0.0723 -0.4699,0.2295zm5.0043 -17.1577c-0.3511,0.0371 -0.7243,0.0283 -1.0626,0.073 -0.806,0.1067 -1.9538,0.4324 -2.6684,0.7452 -1.0088,0.4416 -1.305,0.6824 -2.1059,1.2687 -0.2654,0.1943 -0.3942,0.3261 -0.6155,0.5424l-0.567 0.5578c-0.4061,0.4531 -1.0879,1.4792 -1.3537,2.0548 -1.091,2.3623 -1.0779,5.0657 0.1631,7.3494 0.4285,0.7888 0.845,1.3693 1.4328,1.9758 0.9469,0.9766 2.1259,1.7911 3.4092,2.2817 2.2944,0.8771 5.3757,0.8969 7.6419,-0.1754 1.1119,-0.5261 1.8476,-1.0149 2.7228,-1.8104l0.5475 -0.5777c0.1763,-0.205 0.3375,-0.3844 0.5053,-0.6201 1.024,-1.4389 1.7516,-3.2755 1.6259,-5.1921 -0.1064,-1.6214 -0.5399,-3.0678 -1.3775,-4.291 -1.0899,-1.5917 -2.6127,-2.8536 -4.449,-3.5258 -0.9894,-0.362 -2.6821,-0.7795 -3.8489,-0.6563zm-19.4852 19.4633c-1.2205,0.2676 -0.8436,2.117 0.4186,1.8253 0.3519,-0.0813 0.8339,-0.545 0.6808,-1.131 -0.1083,-0.4144 -0.5585,-0.813 -1.0994,-0.6943zm13.9126 13.9502c-1.3062,0.3219 -0.8363,2.025 0.3465,1.822 0.4345,-0.0745 0.8617,-0.5598 0.7335,-1.1079 -0.1003,-0.4294 -0.5314,-0.8492 -1.08,-0.7141zm4.8367 -0.0697l0 3.4425c0,0.3201 0.0256,0.2358 0.3335,0.2324 0.1919,-0.0021 0.4011,0.0109 0.5959,0.0141 0.1283,0.0021 0.4574,0.0234 0.562,-0.002l0.2627 -0.3437 0 -3.2771 -0.1632 -0.3123 -1.3562 -0.0001c-0.2391,0 -0.2347,0.0145 -0.2347,0.2462zm5.8478 0.0706c-1.3407,0.3609 -0.7514,2.0705 0.405,1.8154 0.4265,-0.0942 0.8351,-0.56 0.692,-1.1193 -0.1084,-0.4234 -0.5702,-0.838 -1.097,-0.6961zm-24.7242 -8.1133l0.7855 1.4095c0.275,-0.0196 1.4603,-0.6936 1.7654,-0.8684l1.716 -0.9721 -0.8351 -1.4348c-0.2432,0.0657 -0.6605,0.3278 -0.8885,0.4466 -0.3809,0.1983 -2.3085,1.2443 -2.5433,1.4192zm24.7739 -25.0284c0.5011,-0.0709 1.5119,-1.0058 1.9018,-1.346 -1.0911,-0.4254 -1.0603,-0.4188 -2.1932,-0.7581 0.0071,0.3412 0.086,0.701 0.1376,1.026 0.0608,0.3837 0.0316,0.722 0.1538,1.0781zm-24.7359 8.3081c-0.5358,0.162 -0.7996,0.5924 -0.6724,1.1282 0.0746,0.3141 0.152,0.404 0.4164,0.5084 0.2433,0.0959 0.4602,0.2349 0.7411,0.161 0.387,-0.1019 0.8077,-0.5818 0.6564,-1.1299 -0.119,-0.431 -0.5564,-0.8447 -1.1415,-0.6677zm12.6836 -13.2518c-1.3155,0.2764 -0.8419,2.0539 0.3312,1.8305 0.4473,-0.0851 0.8403,-0.5114 0.7441,-1.064 -0.0811,-0.4666 -0.5175,-0.8837 -1.0753,-0.7665zm22.6563 22.6616l-0.0468 0.4201c0.4395,0.0026 0.8171,-0.858 0.485,-1.5184 -0.65,-1.2918 -2.6352,-0.5993 -2.3009,0.8478 0.1545,0.6688 1.0784,0.1621 1.8627,0.2505zm-23.0339 -19.0382c0.1412,0.3474 1.3704,1.184 1.8158,1.4458l0.6727 0.3934c0.0882,-0.2297 0.123,-1.0985 0.1491,-1.4029l0.1845 -1.4144c-0.435,0.0357 -2.6254,0.7715 -2.8221,0.9781zm12.8077 2.0192c0.1028,0.1824 0.5993,0.4331 0.918,0.6832l0.8811 0.7108c0.3432,-0.1604 1.3328,-1.3861 1.6332,-1.7785 0.6219,-0.8121 1.4478,-2.2591 1.7699,-3.3263 0.116,-0.3838 0.1942,-1.0389 0.2664,-1.4568 0.0847,-0.4904 0.2076,-0.9677 0.2006,-1.4856 -0.0071,-0.5227 -0.0118,-1.0552 -0.1653,-1.5596 -0.1362,0.1459 -0.0961,0.4479 -0.1415,0.6895 -0.3125,1.6595 -0.7324,2.9182 -1.7139,4.3097 -1.6153,2.2905 -3.53,3.0647 -3.6485,3.2136zm-12.6894 1.7467c0.1429,-0.1222 0.2407,-0.2482 0.3842,-0.3691l1.2441 -1.0466 -0.9878 -0.6739c-0.6195,-0.4662 -1.2292,-0.9933 -1.7275,-1.5812 -0.258,-0.3042 -0.4827,-0.5639 -0.7321,-0.9226l-1.7062 -4.9471c-0.3575,0.3488 -0.1611,2.7156 -0.115,3.0641 0.1094,0.83 0.4836,1.891 0.7911,2.5825 0.3161,0.7102 0.8339,1.5675 1.2517,2.1238 0.2672,0.3555 1.3254,1.6932 1.5975,1.7701zm-2.4594 5.7863c0.1427,-0.2225 0.0802,-0.6221 0.1195,-0.9102 0.0679,-0.4973 0.0963,-0.4129 -0.2178,-0.6872 -0.2779,-0.2428 -0.8414,-0.8939 -1.0653,-1.0196 -0.0975,-0.0546 -1.541,-0.2019 -1.8258,-0.2597 -1.8319,-0.3714 -3.4704,-1.2861 -4.8797,-2.3974 -0.1793,-0.1413 -0.4202,-0.3444 -0.5547,-0.5043l-1.0445 -1.0178c0.1089,0.3621 0.5816,0.9537 0.7821,1.2144 0.2179,0.2836 1.1369,1.3735 1.4093,1.6347 0.1915,0.1836 0.3372,0.2767 0.5386,0.4871 0.1572,0.1644 0.9067,0.7749 1.1182,0.9333 0.201,0.1505 0.3864,0.2555 0.5912,0.4019 0.1966,0.1404 0.3864,0.2738 0.6169,0.4088 0.8541,0.5006 1.8614,0.9537 2.8102,1.2925 0.2706,0.0967 1.3479,0.4428 1.6018,0.4235zm19.7264 0.0531c0.6354,0.0013 2.4229,-0.7478 2.9629,-1.0134 0.4458,-0.2191 0.9091,-0.4399 1.3033,-0.6817 0.3973,-0.2436 0.8215,-0.5295 1.1841,-0.8013 0.3114,-0.2337 0.7419,-0.6379 1.0781,-0.9073 0.4387,-0.3517 1.0908,-1.0881 1.4562,-1.5216 0.4643,-0.5508 0.8212,-1.1409 1.1989,-1.7638 -0.6416,0.5342 -0.9172,0.962 -1.5739,1.4877 -0.9261,0.7416 -2.0414,1.4525 -3.2564,1.9048 -1.0131,0.3769 -2.2039,0.7081 -3.4269,0.6811 -0.7117,-0.0158 -0.5382,0.0349 -1.0261,0.4903 -0.3929,0.3667 -0.1,0.3666 -0.0162,1.1701 0.0255,0.2461 0.0274,0.7717 0.116,0.9551zm-14.0826 -8.1139c0.1532,0.0006 1.1692,-0.4581 1.8098,-0.5675l2.1099 -0.2787 -0.014 -0.4965 -0.5449 0.127c0.0582,-0.1493 0.209,-0.2335 0.3713,-0.3389l0.1918 -0.5038 -1.4851 0.7341c0.047,-0.2176 0.4918,-0.4945 0.6948,-0.6304l0.8021 -0.556 -0.0102 -0.9399c-0.2751,0.0322 -1.1596,0.6183 -1.4128,0.7752l-1.4387 0.7899c0.1162,-0.261 2.269,-1.7267 2.4258,-1.9535l0.3923 -1.1058c-0.2865,0.0268 -1.3011,0.8462 -1.6644,1.0576l-0.6012 0.3007c0.0616,-0.153 0.4174,-0.4247 0.5332,-0.5341 0.1119,-0.1055 0.1786,-0.1583 0.2974,-0.2651l1.1861 -1.0316c0.1073,-0.0898 0.217,-0.1583 0.2433,-0.3153 0.0691,-0.4134 -0.0738,-3.6787 -0.0952,-4.3654 -0.3879,0.1578 -1.2706,1.5625 -1.523,1.9481 -1.0466,1.5986 -1.8154,4.5774 -2.104,6.566 -0.076,0.5229 -0.1784,1.0396 -0.1643,1.5839zm4.3581 -9.1045c-0.0014,1.0384 -0.014,2.4799 0.0547,3.4103 0.0236,0.3192 0.1741,0.4414 0.3439,0.5924 0.6284,0.5587 1.2905,1.2466 1.8406,1.8948 -0.2275,-0.0458 -0.8794,-0.6077 -1.0655,-0.7504l-1.0943 -0.7663c0.0014,0.6474 0.0218,1.2944 0.0223,1.9416 0.0005,0.6925 0.0753,0.5651 0.6088,1.0411 0.0799,0.0714 0.0707,0.0729 0.1272,0.1689l-0.728 -0.2147 0.4242 0.5914 -0.4226 -0.0195c-0.0003,0.312 -0.0485,0.3846 0.2504,0.3945 0.6024,0.0195 1.0825,0.0736 1.6773,0.2029 0.6729,0.1463 1.2742,0.3446 1.9281,0.5456 0.0799,-0.4085 -0.2997,-2.6415 -0.4164,-3.1201 -0.285,-1.1681 -0.7504,-2.9473 -1.2974,-3.997 -0.3651,-0.7005 -0.8182,-1.6339 -1.3353,-2.2059l-0.9073 -0.8648 -0.0107 1.1552zm0.4431 26.4611c0.1375,0.5242 1.8139,1.6018 2.5133,1.9263 0.7935,0.368 0.7183,0.3755 1.5838,0.6341 1.0211,0.305 2.8527,0.5487 3.9285,0.4678 0.4896,-0.0368 1.452,-0.1749 1.929,-0.3142 0.5547,-0.162 1.1428,-0.3824 1.6372,-0.6142 0.2332,-0.1092 0.8951,-0.4422 1.085,-0.6026l0.2759 -0.2906c-0.4743,-0.0051 -0.9694,0.0607 -1.455,0.0629l-1.5447 -0.0464 -0.2626 0.5297 0.0332 -0.5766 -1.56 -0.2244 -0.3676 0.5076 0.1534 -0.5751c-0.208,-0.1556 -0.2944,-0.1347 -0.5663,-0.2232 -0.1689,-0.055 -0.4644,-0.1922 -0.6208,-0.2118 -0.2818,-0.0352 -0.3475,0.1858 -0.482,0.3401l-0.4647 0.3549c0.0709,-0.233 0.1434,-0.2292 0.2702,-0.3833l0.2553 -0.4482 -0.5617 0.0397 0.0279 -0.263 -0.7223 -0.2414c-0.047,0.036 -0.0455,0.0355 -0.085,0.124 -0.1494,0.3363 -0.4647,0.6223 -0.7474,0.8433 0.0265,-0.1428 0.2306,-0.3524 0.3284,-0.5015l0.244 -0.6376 -0.4061 -0.1621c-0.2081,0.1353 -0.2679,0.2972 -0.4343,0.4347l-0.4759 0.3493c0.0059,-0.1847 0.2343,-0.2949 0.3469,-0.445l0.319 -0.5214c-0.6261,-0.467 -0.5383,-0.201 -1.9194,0.2121 -0.3474,0.1038 -0.7177,0.1957 -1.0969,0.2574 -0.2823,0.046 -0.9774,0.0888 -1.1583,0.1987zm-14.2136 -19.4437c0.0024,2.584 1.0548,4.6785 2.5857,6.4575 0.1787,0.2076 0.8678,0.9996 1.0554,1.1623l0.4699 0.308c0.1144,-0.1778 0.3569,-0.965 0.4607,-1.2117 0.0607,-0.1444 0.8948,-1.5378 1.0138,-1.7388 -0.2404,-0.0414 -0.2778,0.2129 -0.5457,0.5531l-0.5203 0.6129c0.0295,-0.2176 0.3505,-0.7567 0.4578,-0.9736l-0.0724 -0.8549 -1.0136 1.5542c-0.0406,-0.0556 -0.0339,-0.0037 -0.032,-0.1001 0.0003,-0.0189 0.0212,-0.0786 0.029,-0.0965 0.0222,-0.0511 0.0619,-0.1189 0.0924,-0.1756l0.5492 -1.1056c0.2626,-0.5154 0.1384,-0.4852 -0.6174,-1.3172l-0.4623 0.3495c0.0502,-0.1857 0.2928,-0.6006 0.2503,-0.7585 -0.0254,-0.0949 -0.3182,-0.5622 -0.3855,-0.6772 -0.5087,-0.8704 -0.4944,-1.1524 -0.8279,-1.7528 -0.1123,-0.2022 -0.3485,-0.9931 -0.3844,-1.2057l-0.2432 -1.8429c-0.0293,-0.4557 0.119,-1.9113 0.1691,-2.4421 -0.1359,0.0329 -0.3159,0.3647 -0.3968,0.4911 -0.1224,0.1911 -0.2326,0.373 -0.3535,0.5732 -0.7634,1.2648 -1.2794,2.599 -1.2783,4.1914zm23.6817 3.9654c-0.1348,-0.0515 -0.3227,-0.3484 -0.4998,-0.5405 -0.3165,-0.3433 -0.2102,-0.25 -0.591,-0.5161 -0.2282,0.4968 -0.6571,0.3901 -0.4353,0.9798l0.4583 1.1786 -0.8059 -1.1336 -0.2542 0.2382 0.34 0.8798c-0.1507,-0.0306 -0.2743,-0.3061 -0.7012,-0.6026 -0.1469,0.2083 0.5195,0.7841 0.8304,1.36l0.7376 1.5482c0.2367,-0.0297 0.4623,-0.2747 0.6009,-0.44 0.2356,-0.2814 0.8003,-0.8263 0.9864,-1.0654 0.5641,-0.7248 1.2304,-1.7077 1.6098,-2.5599l0.35 -0.7137 0.3223 0.0629c0.0507,-0.3033 -0.0679,-0.3082 -0.1127,-0.5366 -0.0288,-0.1464 0.0757,-0.3955 0.1135,-0.5573 0.3106,-1.3293 0.3409,-2.3483 0.0435,-3.6698 -0.2923,-1.2987 -0.7526,-2.2848 -1.5116,-3.2867 -0.1422,-0.1876 -0.1537,-0.2252 -0.3201,-0.3878 -0.0357,0.7634 0.3654,1.3089 0.1282,2.9454 -0.2993,2.0655 -0.6251,2.97 -1.6724,4.74 -0.0537,0.0908 -0.0942,0.1737 -0.1502,0.2469 -0.065,0.0848 -0.1151,0.1253 -0.1643,0.2348 -0.0979,0.2173 0.0378,0.3951 0.1374,0.5529 0.1042,0.1648 0.5426,0.9031 0.5604,1.0425zm2.6141 10.7973c0.2605,3.0127 0.278,1.8724 0.0665,4.7337l0.5316 0.0908c-0.0238,-0.4852 -0.1322,-0.6067 0.0556,-1.1031 0.4511,-1.1917 1.9693,-1.2421 2.5771,-0.6875 0.1162,0.1058 0.3575,0.6813 0.4478,0.8761 0.1726,0.3725 0.225,0.4992 0.0055,1.0569 -0.3708,0.942 -1.2189,0.8445 -1.5298,1.1166 -0.667,0.5836 -1.5905,1.1604 -2.4255,1.5121 -1.0211,0.4302 -0.567,0.2868 -1.2449,1.4022 -0.4724,0.7776 -1.1091,1.5502 -1.6666,2.2895 0.082,0.1285 0.5944,0.5271 0.7541,0.6537 0.2744,0.2176 0.5217,0.437 0.7957,0.6602l1.71 1.1684c0.5968,-0.3916 1.8288,-2.3667 2.233,-3.0945 0.868,-1.5628 1.095,-1.917 1.6389,-3.7204 0.2307,-0.7648 0.3089,-1.434 0.4201,-2.2664 0.0706,-0.5286 0.2981,-1.9751 0.2861,-2.4043 -0.0792,-2.8391 -0.0137,-2.0706 -0.5819,-4.7906 -0.175,0.0873 -0.6892,0.562 -0.8858,0.721 -1.325,1.0713 -3.0382,1.6444 -3.1875,1.7856zm-30.7463 2.1848c0,1.7299 0.3086,3.4586 0.7781,5.008 0.4471,1.4759 1.1144,2.7383 1.8174,3.9074 0.4447,0.7393 0.6177,1.0257 1.1477,1.6987 0.888,1.1277 0.9007,1.2743 1.5753,0.8377 0.5402,-0.3496 1.4838,-1.1034 2.0325,-1.5416l1.1902 -1.0062c-0.0642,-0.243 -0.8189,-1.1016 -1.1085,-1.5515 -0.2567,-0.3988 -0.5115,-0.8299 -0.717,-1.2686 -0.1146,-0.2443 -0.126,-0.2205 -0.3873,-0.308 -1.097,-0.3675 -2.1303,-0.9323 -3.0237,-1.608 -0.1339,-0.1014 -0.245,-0.203 -0.3866,-0.3082 -0.1916,-0.1424 -0.7249,-0.089 -1.0564,-0.2668 -0.8237,-0.4416 -1.32,-1.6461 -0.3769,-2.631 0.4529,-0.4728 1.3074,-0.6493 1.9781,-0.2295 0.2364,0.1482 0.5072,0.3995 0.6406,0.6839l0.0758 1.286 1.2975 -0.3227c0.0258,-0.2729 -0.155,-1.4223 -0.1124,-2.2481l0.1845 -2.2153c-1.2835,-0.4525 -2.8176,-1.2896 -3.7688,-2.1861 -0.1172,-0.1106 -0.1585,-0.1432 -0.263,-0.2336l-0.7888 -0.6808c-0.2085,0.3651 -0.4686,1.852 -0.5546,2.3819 -0.1337,0.8224 -0.1737,1.9496 -0.1737,2.8024zm8.6191 14.8951c0.5461,0.5199 3.179,1.5388 4.0158,1.7807 0.781,0.2258 1.5183,0.4275 2.3735,0.5151 0.3882,0.0366 2.5101,0.2296 2.7489,0.2306 2.3703,0.0092 5.2448,-0.5828 7.3324,-1.6107l1.9232 -1.0812c-0.0581,-0.1364 -0.8043,-0.8325 -1.0008,-1.0105l-1.929 -1.7785c-0.2037,-0.1862 -0.2851,-0.0926 -0.5435,0.0352l-5.4184 1.1788c-1.1959,-0.0046 -2.2834,-0.1569 -3.3605,-0.458 -1.1649,-0.3255 -1.6645,-0.5891 -2.726,-1.0663 -0.2144,0.1219 -0.9962,0.9465 -1.2733,1.1959l-1.7231 1.6195c-0.1192,0.1197 -0.3698,0.2926 -0.4192,0.4494zm-0.7171 1.5226c0,-1.8353 0.034,-1.353 0.6958,-2.0822 0.2331,-0.257 0.4178,-0.3707 0.6404,-0.6166 0.1045,-0.1153 0.2093,-0.1965 0.3276,-0.3013 0.5034,-0.4461 1.1181,-1.07 1.6579,-1.5523l2.285 -2.1483c0.4688,-0.4112 0.8391,-0.8065 1.318,-1.2302 0.4635,-0.41 1.1345,-1.1009 1.6477,-1.5617 0.2846,-0.2556 0.6827,-0.671 0.9726,-0.9132l0.3442 -0.3077c0.3036,0.0873 1.1053,0.9201 1.3363,1.1337 0.0538,0.0501 0.0849,0.0873 0.1523,0.1451l3.0782 2.8451c0.2651,0.2813 0.9459,0.8181 1.285,1.1963l3.9054 3.6056c0.0809,0.1216 0.3645,0.8412 0.3643,0.9933l0 1.9529c0.0001,3.0748 3.5412,3.0669 3.9908,0.1465 0.1918,-1.247 -0.0021,-1.2387 1.2144,-1.6241 0.6105,-0.1933 1.5359,-0.5291 1.9322,-0.8795 0.2305,-0.2037 0.251,-0.7436 0.2909,-1.125 0.0484,-0.4649 0.0836,-0.8402 -0.0646,-1.2725 -0.1628,-0.4756 -0.2299,-0.5537 -0.655,-0.767 -0.3381,-0.1696 -0.6159,-0.3856 -1.0666,-0.3238 -0.8183,0.1123 -1.4209,0.6425 -2.3221,0.4356 -0.9466,-0.2175 -2.6327,-1.6574 -3.372,-2.2832 -0.494,-0.4182 -1.4127,-1.2054 -1.8669,-1.6409l-0.9482 -0.8388c-0.4238,-0.3405 -0.986,-0.9316 -1.2742,-1.1744 -0.1895,-0.1597 -0.1704,-0.1666 -0.4707,-0.2563 -1.74,-0.5201 -2.3882,-0.7215 -3.872,-1.8191 -0.722,-0.5341 -0.8779,-0.7449 -1.4766,-1.3622 -0.3187,0.1561 -1.2326,1.518 -3.3449,2.4642 -0.338,0.1515 -0.6553,0.2974 -1.0271,0.4288 -1.1865,0.4191 -1.0558,0.0657 -1.955,0.9558 -0.2648,0.2623 -0.8675,0.8389 -1.1365,1.0475 -0.2854,0.2215 -0.8292,0.7284 -1.1684,1.0155 -0.276,0.2336 -0.4935,0.4407 -0.7726,0.6831 -0.2512,0.2179 -0.539,0.4251 -0.8084,0.6476l-1.6249 1.2873c-0.421,0.336 -1.1885,0.9575 -2.0152,0.884 -0.6346,-0.0565 -1.8691,-0.5792 -2.4023,-0.4731 -0.7832,0.1558 -1.2097,0.8583 -1.2418,1.6728 -0.0163,0.4134 0.0485,0.9449 0.1063,1.3534 0.1228,0.8673 1.7595,1.1243 2.7841,1.5825 1.0056,0.4499 0.128,1.8105 1.2564,3.1121 0.5629,0.6493 2.2166,0.5652 2.7111,-0.0477 0.1179,-0.1461 0.2101,-0.2609 0.3273,-0.4009 0.4095,-0.4888 0.3087,-0.3454 0.2896,-1.1633 -0.011,-0.4756 -0.0278,-0.9465 -0.0278,-1.4234zm-9.4698 -25.4855c-0.0589,-0.543 -0.4827,-1.6019 -0.6327,-2.7718l-0.121 -1.0374c-0.2198,-0.0291 -0.8683,0.2884 -0.9732,0.7176 -0.1124,0.4601 -0.1591,1.0622 -0.1337,1.5663 0.0208,0.4116 0.2673,1.0355 0.5016,1.1692 0.078,0.0446 1.2376,0.3464 1.359,0.3561zm39.3628 -3.7533c-0.0603,0.2306 -0.0715,0.729 -0.1104,1.0121 -0.1436,1.0419 -0.3713,1.7803 -0.6333,2.8017 0.2001,-0.0276 1.2861,-0.3042 1.3873,-0.3864 0.6284,-0.5101 0.5337,-2.4625 0.2665,-2.8958 -0.0782,-0.1267 -0.6775,-0.6369 -0.9101,-0.5316zm-3.7036 5.449l0.1047 -2.0044c-0.2708,0.0487 -0.4982,0.3101 -0.6838,0.4488 -0.211,0.1575 -0.4717,0.3104 -0.6949,0.4634 -0.3761,0.2578 -0.2966,0.2226 -0.3872,0.7643l-0.1948 0.9799c0.0026,-0.7227 0.011,-0.5643 -0.0558,-1.2979 -0.072,0.0051 -1.9279,0.9248 -2.1743,1.0427 -0.041,0.3527 -0.0333,0.6699 -0.1114,1.0162 -0.0888,0.3932 -0.0377,0.7482 -0.2079,0.9746l-0.0534 -1.8733c-0.0803,0.0019 -1.7307,0.5271 -1.9602,0.5975 -0.0147,0.4103 -0.0146,0.7871 -0.1079,1.2141 -0.2941,1.345 -0.4996,1.6316 -1.0422,2.9341 0.7242,-0.0273 2.6711,-0.4036 3.3875,-0.6889 0.3094,-0.1234 0.7083,-0.2329 0.9773,-0.3793 0.2661,-0.1448 0.6361,-0.2956 0.9233,-0.4333 0.3151,-0.1511 0.5517,-0.3338 0.8517,-0.5049 0.5258,-0.3001 1.0926,-0.8239 1.5365,-1.2102 0.3855,-0.3355 0.9495,-1.0543 1.2505,-1.4624 0.4157,-0.5638 0.6238,-1.0833 0.9573,-1.7892 0.1709,-0.3619 0.6091,-1.5809 0.6924,-2.0242l0.2742 -2.349c-0.1087,0.0568 -0.8478,1.0329 -0.9858,1.2091 -0.1668,0.2131 -0.3348,0.3928 -0.4932,0.5991 -0.1595,0.2081 -0.8451,0.8756 -1.0863,1.1304 -0.2861,0.3021 -0.2574,0.0497 -0.3617,0.7612 -0.0854,0.5833 -0.0996,0.8281 -0.2237,1.431 -0.0153,0.0744 -0.0321,0.1525 -0.0469,0.2191 -0.0204,0.0912 -0.033,0.1593 -0.084,0.2315zm-4.7442 -2.7472c1.7447,0.0237 4.4583,-1.1869 5.6069,-2.2645l1.3055 -1.3331c-0.9757,-0.3546 -0.3842,-1.1474 -0.868,-2.4053 -0.0729,-0.1896 -0.3163,-0.5785 -0.4301,-0.6962 -0.1171,-0.1211 -0.564,-0.2591 -0.7584,-0.3339 -0.3951,-0.152 -0.4349,-0.2093 -0.9218,-0.121 -0.2909,0.0528 -0.6056,0.1377 -0.8401,0.2569 -0.3343,0.17 -0.3583,0.2747 -0.4064,0.718 -0.0796,0.7335 -0.1865,1.1539 -0.368,1.8174 -0.167,0.6105 0.0499,1.5413 -0.12,2.0963 -0.0516,0.1684 -0.928,0.9581 -1.1017,1.1162l-0.8454 0.8091c-0.0997,0.1049 -0.2145,0.1483 -0.2525,0.3401zm-29.6491 -3.6272c0.0775,0.2459 0.963,0.985 1.2392,1.217 0.7349,0.6168 2.2268,1.5033 3.1528,1.7783l1.9566 0.4561c-0.0943,-0.2227 -0.7934,-0.805 -1.0393,-1.0435 -0.1824,-0.1769 -0.3391,-0.3299 -0.5204,-0.5055 -0.1744,-0.1691 -0.4049,-0.2698 -0.4325,-0.6335 -0.0496,-0.6569 -0.0059,-1.3861 -0.0071,-2.0537 -0.0005,-0.2839 -0.1367,-1.7027 -0.2244,-1.8795 -0.2111,-0.4256 -1.0091,-0.591 -1.379,-0.7067 -0.5704,-0.1788 -1.3269,-0.0351 -1.6539,0.3046 -0.6059,0.6297 -0.7206,1.4512 -0.7946,2.3149 -0.0317,0.3697 -0.0708,0.5744 -0.2974,0.7515zm24.8909 -6.1172c-0.3279,0.0756 -0.4598,0.0969 -0.6307,0.3169 -0.5682,0.7316 0.0426,1.595 0.8364,1.5235 0.4959,-0.0444 0.8627,-0.4793 0.8149,-1.0445 -0.0379,-0.4481 -0.5153,-0.9125 -1.0206,-0.7959zm12.8361 15.1748c-1.2455,0.2331 -0.895,2.0738 0.3429,1.8414 0.4037,-0.0758 0.8419,-0.536 0.742,-1.0696 -0.0842,-0.4495 -0.5334,-0.8749 -1.0849,-0.7718zm-1.8254 6.5643c0.7329,0.182 3.1212,0.3277 4.0106,0.3962l0.1416 -1.6788c-1.1125,-0.1723 -2.8397,-0.2742 -3.9999,-0.3587 -0.0788,0.1779 -0.1914,1.4269 -0.1523,1.6413zm1.2511 1.9582c-1.2286,0.3852 -0.5978,2.1702 0.547,1.7843 0.1911,-0.0645 0.4187,-0.2689 0.5178,-0.4079 0.4544,-0.6376 -0.2139,-1.643 -1.0648,-1.3764zm-3.8051 5.5006c0.2851,0.3312 2.8658,1.6263 3.5334,1.953l0.7805 -1.5041c-0.1869,-0.0506 -0.652,-0.3484 -0.8645,-0.4644 -0.2884,-0.1574 -0.5728,-0.3315 -0.8685,-0.4878 -0.6972,-0.3687 -1.0504,-0.5665 -1.7931,-0.9268 -0.1397,0.1388 -0.7265,1.191 -0.7878,1.4301zm-20.6338 3.207c-1.1377,0.2012 -1.7023,1.4435 -1.0699,2.4514 0.0897,0.1432 0.2472,0.3457 0.379,0.4478 1.2175,0.9439 2.9752,-0.2848 2.5651,-1.5731 -0.2191,-0.6885 -0.944,-1.4905 -1.8742,-1.3261zm10.3802 -0.0044c-0.8685,0.168 -1.4966,1.0205 -1.2769,1.9426 0.2912,1.2221 1.916,1.8621 2.9283,0.6183 0.3888,-0.4779 0.4261,-1.3753 0.0425,-1.8711 -0.0893,-0.1154 -0.2756,-0.3521 -0.4005,-0.4269 -0.3723,-0.2234 -0.7898,-0.3603 -1.2934,-0.2629zm-27.2667 -13.6248c-0.0915,0.2019 -0.0665,1.111 -0.0522,1.4206 0.0061,0.1339 0.0381,0.1686 0.1158,0.2353 0.1612,0.1387 0.8643,0.0728 1.0972,0.0728l2.2825 0 0.6032 -0.1664c0.0124,-0.3574 0.0489,-1.0769 0.0076,-1.4047 -0.0309,-0.2453 -0.1161,-0.1621 -0.5446,-0.1639 -0.2428,-0.0009 -0.4851,0.0015 -0.7278,0.0034 -0.5218,0.0037 -2.462,-0.0443 -2.7817,0.0029zm22.0441 -10.7882c-0.2083,0.0257 -0.3775,0.0067 -0.58,0.0519 -0.6631,0.1478 -0.8131,0.1593 -1.4724,0.4471 -0.7774,0.3393 -1.6693,1.0591 -2.1097,1.6949 -2.4186,3.492 0.683,7.6719 4.9784,7.3635 1.4079,-0.101 2.5717,-0.6206 3.5762,-1.5176 0.3782,-0.3378 0.7517,-0.9347 1.0377,-1.5098 0.3106,-0.6249 0.4512,-1.3568 0.3686,-2.1555 -0.2994,-2.8985 -3.296,-4.6819 -5.7988,-4.3745zm4.8497 -1.179c-1.27,0.332 -0.8652,1.9118 -0.1264,2.7905 0.4509,0.5365 1.6594,1.6527 2.902,1.3543 0.5992,-0.1438 0.9185,-0.5605 0.8273,-1.3103 -0.1274,-1.0477 -1.0102,-1.9474 -1.8485,-2.456 -0.3692,-0.224 -1.2178,-0.5186 -1.7544,-0.3785zm-4.6843 6.77c0.149,-0.3745 0.0892,-1.3297 0.0868,-1.7914l-0.0588 -1.9229c-0.0263,-0.0152 -0.0148,-0.0144 -0.0674,-0.035 -0.0383,-0.015 -0.0829,-0.0219 -0.1295,-0.0345 -0.2384,-0.0637 -0.6182,-0.3034 -0.6522,-0.4069l0.0375 -1.0631c-0.7591,-0.0286 -2.0125,0.7332 -2.4389,1.0755 -0.5327,0.4277 -1.1873,1.1966 -1.4832,2.0595 -0.2534,0.7388 -0.2226,0.9442 0.2447,1.2391 0.351,0.2216 0.8357,0.3886 1.2827,0.5051 0.9441,0.246 2.148,0.3861 3.1783,0.3746zm0.684 0.2518c-1.4775,-0.0014 -3.6919,-0.1034 -5.0453,-0.8014l-0.5366 -0.2793c-0.0299,0.9836 0.3356,1.8603 0.8911,2.573 0.4113,0.5275 1.3219,1.3118 1.9618,1.512l1.902 0.458 0.8601 0c0.6415,0 1.3374,-0.2552 1.8458,-0.4809 0.5817,-0.2582 1.0631,-0.5676 1.4159,-0.9332 0.3045,-0.3156 0.8095,-0.7877 0.9672,-1.3505l0.4385 -1.9312c-0.2709,0.0572 -0.4744,0.5097 -2.0551,0.911 -0.7576,0.1924 -1.8189,0.3229 -2.6454,0.3225zm-0.3666 -3.5784l0.0653 3.2783c0.0468,0.0375 0.0556,0.0419 0.1668,0.0519 0.3244,0.0292 1.1664,-0.0483 1.476,-0.0896 0.9011,-0.1208 1.9457,-0.3499 2.7208,-0.785 0.5927,-0.3324 0.6644,-0.6086 0.4809,-1.1292 -0.2264,-0.6422 -0.5424,-1.2001 -0.9838,-1.6646l-0.4553 -0.4382c-0.9775,-0.7794 -1.1441,-0.7072 -2.457,-1.1069 0.0719,0.1906 0.4463,0.7333 -0.1207,1.1647 -0.2453,0.1867 -0.7708,0.6417 -0.893,0.7186zm-4.9971 -3.4139c-1.2265,0.1835 -2.1835,0.9616 -2.6462,1.7668 -0.9585,1.668 -0.089,3.7783 2.4599,1.8655 0.7503,-0.563 1.8401,-1.7674 1.5175,-2.7908 -0.1928,-0.6117 -0.5399,-0.9597 -1.3312,-0.8415zm-0.1178 0.275c-1.584,0.3309 -2.9436,2.0424 -2.6767,3.0739 0.2918,1.1278 2.3004,0.6984 3.49,-0.9858 0.8785,-1.2438 0.3953,-2.3404 -0.8133,-2.0881zm-0.2067 0.3922c-0.9707,0.1816 -1.9922,1.4223 -1.8934,2.3297 0.1629,1.4972 2.8738,-0.2547 2.7194,-1.7888 -0.0451,-0.4487 -0.3613,-0.6278 -0.826,-0.5409zm9.739 -0.423c-0.623,0.1526 -0.7182,0.7122 -0.583,1.2334 0.3179,1.2259 2.0201,2.7037 3.2621,2.396 0.5289,-0.131 0.7524,-0.5963 0.599,-1.2249 -0.305,-1.2505 -1.9963,-2.7182 -3.2781,-2.4045zm-17.5696 19.7225c-2.1421,0.1677 -1.8859,3.4551 0.3122,3.2348 1.3926,-0.1396 2.0159,-1.7994 0.9017,-2.8606 -0.2916,-0.2777 -0.6772,-0.4163 -1.2139,-0.3742zm0.0221 0.3933c-0.6555,0.1002 -1.1804,0.6092 -1.1001,1.3723 0.0644,0.6111 0.673,1.1628 1.3775,1.0689 1.2449,-0.166 1.3237,-1.7226 0.643,-2.156 -0.235,-0.1495 -0.6035,-0.3337 -0.9204,-0.2852zm18.0225 -19.7628c-1.3272,0.3377 0.3506,3.1255 1.8084,2.8743 0.4033,-0.0695 0.5056,-0.4851 0.4202,-0.9126 -0.0699,-0.3496 -0.2905,-0.7321 -0.4566,-0.9659 -0.2332,-0.3282 -1.0829,-1.1712 -1.772,-0.9958zm0.1747 25.2803c0.6313,0 1.1431,0.5577 1.1431,1.2457 0,0.688 -0.5118,1.2456 -1.1431,1.2456 -0.6314,0 -1.1434,-0.5576 -1.1434,-1.2456 0,-0.688 0.512,-1.2457 1.1434,-1.2457z"/>
 </g>
</svg>
