<?xml version="1.0" encoding="UTF-8"?>
<!DOCTYPE svg PUBLIC "-//W3C//DTD SVG 1.1//EN" "http://www.w3.org/Graphics/SVG/1.1/DTD/svg11.dtd">
<!-- Creator: CorelDRAW -->
<svg xmlns="http://www.w3.org/2000/svg" xml:space="preserve" width="44.0266mm" height="44.0266mm" style="shape-rendering:geometricPrecision; text-rendering:geometricPrecision; image-rendering:optimizeQuality; fill-rule:evenodd; clip-rule:evenodd"
viewBox="0 0 44.0266 44.0266"
 xmlns:xlink="http://www.w3.org/1999/xlink">
 <defs>
  <style type="text/css">
   <![CDATA[
    .str0 {stroke:#373435;stroke-width:0.1102;stroke-linejoin:round}
    .fil1 {fill:none;fill-rule:nonzero}
    .fil0 {fill:#373435}
    .fil2 {fill:#373435;fill-rule:nonzero}
   ]]>
  </style>
 </defs>
 <g id="Capa_x0020_1">
  <metadata id="CorelCorpID_0Corel-Layer"/>
  <path class="fil0" d="M22.6576 32.5014c-0.0984,-1.8967 0.1401,-3.6749 0.8119,-5.2507 0.4516,-1.0596 0.942,-2.0506 1.6254,-2.9598 0.9204,-1.2246 1.7553,-2.196 3.0146,-3.0636 1.9286,-1.3287 2.8608,-1.2314 4.2092,-1.8726 0.5103,-0.2427 0.7755,-0.4404 0.9645,-0.5299l-1.1289 1.9681c-0.411,0.5306 -1.6005,1.3633 -2.9331,3.1491 -0.4092,0.5484 -0.8061,1.2197 -1.1801,1.8581 -1.4181,2.4208 -1.7964,3.3721 -3.8028,5.3211 -0.283,0.2748 -1.3035,1.278 -1.5807,1.3802zm-3.2328 -9.0127l-1.1001 -1.7494c-0.0831,-0.1357 -0.2095,-0.2796 -0.3053,-0.4142 -0.5143,-0.7227 -0.9378,-1.0655 -1.3199,-1.4988 -0.4593,-0.5207 -2.1251,-2.0048 -2.6881,-2.2074 1.4704,1.3431 1.4733,1.3432 2.7931,2.8229 0.8701,0.9755 1.6419,2.1596 2.2381,3.3485l0.4695 1.1756c0.1629,0.2345 0.1028,0.0401 0.1277,0.2218 0.0733,0.5359 0.1866,0.5996 0.2184,0.7149 0.0136,0.0496 0.0288,0.2007 -0.0008,0.2851l-0.393 -0.884c-0.4879,-1.1513 -1.069,-2.2486 -1.8046,-3.2303l-0.5461 -0.7267c-0.5541,-0.7876 -2.3443,-2.46 -3.116,-3.1867 -0.2829,-0.2664 -0.9155,-0.9979 -1.1637,-1.3243 -0.5758,-0.7575 -1.1074,-1.553 -1.1795,-2.6086 0.1986,0.1388 0.2452,0.2704 0.4119,0.4463 0.7786,0.8209 2.2791,1.8719 3.201,2.4946 2.5936,1.7517 4.9446,3.8631 6.2236,6.8225 0.1773,0.4103 0.8961,2.0055 0.9091,2.3617 0.0073,0.2027 -0.6491,1.7678 -0.7214,2.4907l-0.333 1.4845c-0.1825,-0.1764 -0.2319,-0.9064 -0.2918,-1.2492 -0.0797,-0.4552 -0.172,-0.9292 -0.2257,-1.3522 -0.1051,-0.674 -0.3621,-1.5647 -0.5854,-2.2065 -0.2689,-0.7729 -0.5551,-1.351 -0.818,-2.0308zm-3.0281 2.857c-0.0338,0.1251 -0.013,0.0747 -0.0674,0.1393 0.2047,0.0484 0.0953,-0.0122 0.1862,0.1593 0.0395,0.0745 0.0729,0.1556 0.104,0.2342l1.3525 2.4126c0.0315,0.2753 0.014,0.0191 -0.0541,0.1257 -0.4276,-0.5324 -1.2108,-1.4526 -1.4531,-2.0835 -0.5721,-1.178 -2.1154,-3.8483 -3.0538,-4.772l-1.7056 -1.8537c-0.3548,-0.2305 -1.0664,-1.2066 -1.1645,-1.8988 1.693,0.9417 0.9908,0.5811 2.7372,1.2338 3.2901,1.2295 4.4718,3.2873 5.7174,6.2744l-3.1393 -3.0685c1.6161,2.1783 2.1912,2.9447 3.4065,5.5712l0.8446 2.0393c-0.8335,-0.7896 -1.1521,-1.147 -1.8696,-2.1766 -0.7111,-1.0205 -1.0111,-1.8396 -1.3931,-2.4224 -0.047,-0.0716 -0.0416,-0.0594 -0.0776,-0.0778 -0.2068,-0.6474 -1.6029,-2.7054 -2.0491,-3.2679 -0.4205,-0.5302 -2.0849,-2.4037 -2.7101,-2.5363 0.2499,0.262 0.5554,0.5404 0.7424,0.817 0.229,0.1896 1.1023,1.274 1.2804,1.5221l1.1256 1.5795c0.2449,0.3445 0.3308,0.5626 0.5458,0.888 0.2189,0.3315 0.1302,0.2549 0.3143,0.5748 0.0367,0.0638 0.0553,0.0898 0.0997,0.1689 0.0537,0.0958 0.0917,0.2911 0.2807,0.4174zm5.1215 -8.9715c1.5309,-0.4322 1.7486,1.4981 0.692,1.8219 -1.3022,0.3989 -1.8612,-1.4918 -0.692,-1.8219zm1.9583 2.034c-0.0985,-1.3241 0.6104,-2.2297 1.7996,-2.2367l-0.8992 1.1525c-0.2323,0.2668 -0.8335,0.7617 -0.9004,1.0842zm-3.1518 -0.1544c-0.2067,-0.1138 0.0012,0.0963 -0.1969,-0.1598 -0.0652,-0.0842 -0.1627,-0.274 -0.3032,-0.4007l-0.582 -0.6292c-0.0094,-0.0085 -0.0238,-0.0174 -0.033,-0.0265l-0.4164 -0.4814c-0.0243,-0.0335 -0.0693,-0.0994 -0.0873,-0.1258 -0.0597,-0.0879 -0.0994,-0.1616 -0.18,-0.261l1.2991 0.6373c0.3375,0.2457 0.519,0.9478 0.4997,1.4471zm4.2986 -4.6884c1.3022,-0.4243 0.9904,1.8722 -0.1383,1.9809 -0.6217,0.0599 -0.9701,-0.4305 -0.8883,-1.0368 0.0841,-0.6232 0.4926,-0.77 1.0266,-0.9441zm-3.3537 0.0702c0.2585,-0.0987 0.6539,-0.0687 0.9634,-0.059 1.0481,0.0326 0.7846,1.4808 0.2288,1.8269 -0.8464,0.5269 -1.7592,-0.2473 -1.6366,-1.171 0.05,-0.3767 0.217,-0.51 0.4444,-0.5969zm-2.6408 -0.076c0.456,-0.2419 1.2149,0.3104 1.3734,0.5269 0.2942,0.402 0.1983,1.1411 -0.2014,1.3693 -1.0483,0.5982 -2.0708,-1.4193 -1.172,-1.8962zm5.0426 8.7837c-0.0312,0.2778 -0.0449,0.2095 -0.4326,0.6019l-0.0002 -0.5959c-0.0558,-0.1395 -0.4118,-0.1939 -0.2888,-0.6992 0.0542,-0.2224 0.3493,-0.7453 0.5194,-0.8371 0.0888,-0.2192 0.9083,-1.2522 1.1116,-1.4642 0.5798,-0.6043 1.1711,-1.1815 1.815,-1.7215 1.3334,-1.1182 3.3915,-2.2596 4.7095,-3.4189 0.1843,-0.1621 0.3194,-0.3464 0.4878,-0.5069l0.4777 -0.5103 -1.1076 2.644c-0.4429,0.774 -2.0872,2.1115 -2.7881,2.7976 -0.1713,0.1678 -0.3253,0.2734 -0.5028,0.437l-1.4035 1.3596c-0.103,0.1084 -0.163,0.1368 -0.2529,0.2436 -0.1484,0.1762 -0.4818,0.5935 -0.6468,0.7048l0.8774 -1.2487c0.7006,-0.8821 1.6714,-1.8806 2.538,-2.6001 0.1233,-0.1024 0.398,-0.3156 0.4997,-0.4418 -0.5452,0.3293 -1.5939,0.9637 -2.052,1.3757 -0.0683,0.0614 -0.0895,0.1091 -0.1603,0.1707 -0.0639,0.0555 -0.1208,0.0839 -0.1945,0.1392l-1.3793 1.3283c-0.1301,0.1567 -0.1816,0.2395 -0.3346,0.3839 -0.459,0.433 -1.1809,1.5406 -1.4921,1.8583zm-2.4773 -11.3633c0.2517,-0.1431 0.5905,-0.0716 0.9258,-0.0791 1.2761,-0.0284 0.8154,1.427 0.3447,1.7423 -1.156,0.7743 -2.2611,-1.0995 -1.2705,-1.6632zm3.4382 -0.1707c1.2041,-0.341 1.087,1.9753 -0.1911,2.056 -0.612,0.0386 -0.9469,-0.4957 -0.8731,-1.1163 0.0634,-0.5335 0.5571,-0.796 1.0642,-0.9397zm-5.8584 0.0013c0.4279,-0.1557 1.1095,0.345 1.2713,0.5807 0.3005,0.4378 0.1783,1.204 -0.3096,1.4034 -0.5982,0.2445 -1.0918,-0.2234 -1.272,-0.595 -0.1985,-0.4097 -0.2351,-1.1906 0.3103,-1.3891zm5.5385 -2.5807c1.1105,-0.4248 1.0862,1.7622 0.0089,1.9197 -0.5684,0.083 -0.9033,-0.3721 -0.8893,-0.9463 0.0156,-0.6477 0.4123,-0.7943 0.8804,-0.9734zm-2.3585 0.0983c0.3578,0 1.1003,-0.1158 0.9169,0.9746 -0.2099,1.2478 -1.8931,1.0624 -2.0076,-0.0993 -0.0854,-0.8668 0.3954,-0.8753 1.0907,-0.8753zm-2.9574 -0.0983c0.3883,-0.2595 1.0454,0.304 1.1655,0.4997 0.2699,0.4397 0.1274,1.1491 -0.2136,1.3479 -0.5119,0.2984 -1.0305,-0.1438 -1.183,-0.5017 -0.1583,-0.3712 -0.2242,-1.0416 0.2311,-1.3459zm4.8576 -2.2785c1.1018,-0.3068 0.9569,1.4459 0.125,1.6168 -0.4643,0.0954 -0.7747,-0.3208 -0.7999,-0.7406 -0.0377,-0.6305 0.1937,-0.7422 0.6749,-0.8762zm-4.428 0.0022c0.3334,-0.1922 0.9353,0.1221 1.0691,0.3983 0.1707,0.352 0.0582,0.9656 -0.2357,1.155 -0.7939,0.5114 -1.615,-1.1028 -0.8334,-1.5533zm2 0.1026c0.2001,-0.0599 0.5104,-0.0482 0.7519,-0.0367 0.7761,0.0372 0.6265,1.2074 0.1291,1.4883 -0.6912,0.3903 -1.3701,-0.2544 -1.2584,-0.9931 0.0453,-0.3001 0.1348,-0.386 0.3774,-0.4585zm0.7489 -1.8684c0.6192,0.6521 0.0393,1.5074 -0.5134,1.2169 -0.2588,-0.136 -0.375,-0.5196 -0.2867,-0.8764 0.0942,-0.3802 0.394,-0.4111 0.8001,-0.3405zm0.9524 -0.0749c0.2945,-0.1293 0.793,0.0354 0.9177,0.288 0.1893,0.3834 0.0508,0.8223 -0.2202,0.9816 -0.8244,0.4846 -1.3552,-0.9808 -0.6975,-1.2696zm-2.8822 -0.0095c1.0452,-0.2231 0.7105,1.2654 0.161,1.3596 -0.4064,0.0698 -0.7249,-0.2586 -0.7473,-0.6244 -0.0295,-0.482 0.1883,-0.6502 0.5863,-0.7352zm-0.1692 -0.471c-0.0886,-0.7483 1.2939,-2.7467 1.7673,-3.0724 0.7253,0.8714 1.1023,1.2061 1.6076,2.1712 0.152,0.2905 0.3316,0.5294 0.256,0.939l-0.9306 -0.1541c-0.2227,-0.1382 -0.2028,-0.8559 -0.4652,-0.9203l-0.6336 1.1425 -0.2217 -1.1646c-0.234,0.4802 -0.6598,1.7769 -1.3798,1.0587zm0.2179 -2.9793c-0.2882,0.269 -1.0528,1.7559 -1.2796,2.2935 -0.3647,0.8644 -0.6338,1.7084 -0.897,2.6444 -0.4889,1.7388 -0.9504,4.2286 -0.9694,6.1211l-0.0328 4.3728c-1.0104,-0.6604 -4.4779,-2.8097 -4.8906,-3.7601 -0.2925,-0.1593 -0.7615,-1.0935 -0.9065,-1.3298l-0.1327 0.0201c-0.3544,0.7251 -0.5275,0.9591 -0.521,1.9491 0.0051,0.764 0.2024,1.3273 0.4424,1.9425 0.506,1.2971 1.8118,2.6099 1.9492,2.8702l-1.9166 -0.7441c-0.7054,-0.3476 -1.0032,-1.0877 -1.2425,-1.4031l-0.4256 1.4807c-0.0734,0.5096 0.2653,1.3785 0.2926,1.6111 0.2316,0.1957 0.4068,0.9853 1.407,1.9308l1.6074 1.6534c1.515,1.9254 1.3037,1.9552 2.5354,4.0114 0.2401,0.1859 1.3006,2.9852 4.5245,5.0774 0.4057,0.2633 1.5349,0.972 2.0605,1.1106 0.1081,-0.0094 0.8884,-0.4483 1.0448,-0.5257 0.3952,-0.1957 1.5429,-0.9337 1.8809,-1.224l0.7949 -0.6933 1.1038 -1.2178c0.1461,-0.1742 0.1983,-0.2868 0.3222,-0.4487 0.2194,-0.287 0.4427,-0.626 0.6349,-0.9161l0.5466 -0.8962c0.0043,-0.0205 0.0195,-0.0226 0.0294,-0.0338 0.3364,-0.6757 0.7329,-1.3278 1.0976,-1.9857 0.8016,-1.4459 1.673,-2.3097 2.7739,-3.3603 0.2375,-0.2265 0.5527,-0.5402 0.7575,-0.7886 0.1467,-0.1779 0.5631,-0.7201 0.7048,-0.8153 0.0321,-0.1752 0.31,-0.6191 0.418,-0.883 0.3984,-0.974 0.5326,-2.5709 -0.0996,-3.0751 -0.3621,0.5624 -0.6281,1.0964 -1.2633,1.433 -0.5293,0.2806 -1.2875,0.6042 -1.9668,0.6997 1.4564,-1.6584 2.471,-2.9511 2.413,-5.418 -0.0942,-0.4069 -0.2219,-1.0981 -0.5775,-1.354 -0.4415,0.6878 -0.5818,0.9968 -1.161,1.5748 -0.4191,0.4182 -0.8791,0.8925 -1.3892,1.2641 -0.4325,0.3152 -2.6592,1.9024 -3.2846,2.1308l-0.4657 -7.8655c-0.0962,-1.4242 -1.1534,-4.5698 -1.8198,-5.9315 -0.244,-0.4984 -0.6475,-1.1998 -0.939,-1.5751 -0.0116,-0.0122 -0.0268,-0.0276 -0.0344,-0.037l-0.6946 -0.8091 -0.6057 -0.5544c-0.0715,-0.0631 -0.1293,-0.1303 -0.2211,-0.186l-0.8824 0.7413c-0.1278,0.1345 -0.2594,0.3232 -0.3849,0.4437 -0.3987,0.3826 -0.0432,0.2 -0.3374,0.4548zm6.1088 23.9569l0.0859 -0.2367 0.8123 -1.0858c0.3873,-0.5202 0.9235,-1.0677 1.3542,-1.5206 0.2147,-0.2257 1.0302,-1.0712 1.2425,-1.2448 0.1823,-0.1489 0.0539,0.0219 0.2614,-0.2786 -1.1539,0.488 -3.3275,2.8553 -3.8444,3.8881l-0.2396 0.3085 -0.3933 0.7284 0.1278 -0.1397c0.0995,0.0535 0.1078,0.0736 0.2252,0.0813 0.0767,-0.1455 0.1992,-0.4057 0.368,-0.5001zm-12.3728 -12.9504c0.1833,0.2526 0.257,0.0709 0.5083,0.32 0.0863,0.0856 0.0993,0.1202 0.1494,0.2345l0.1343 0.2753c0.0225,-0.0332 0.0236,-0.0192 0.0713,-0.1161 0.0209,-0.0427 0.0309,-0.0743 0.0505,-0.1194 0.1395,-0.3214 0.0821,-0.2283 0.6192,-0.4911l-0.2295 -0.1451c-0.012,-0.0071 -0.0276,-0.0126 -0.0386,-0.0201 -0.0832,-0.0568 -0.0385,-0.0276 -0.0929,-0.0962 -0.177,-0.0731 -0.2512,-0.3166 -0.38,-0.5747 -0.2662,0.3549 -0.1042,0.6762 -0.792,0.7329zm14.1974 0.0881c0.4285,0.3108 0.2116,-0.1906 0.748,0.7579l0.7703 -0.7653c-0.5283,-0.3709 -0.2899,0.1522 -0.7654,-0.8417 -0.1835,0.1912 -0.1098,0.3123 -0.2821,0.5162 -0.1146,0.1357 -0.3328,0.2024 -0.4708,0.3329zm2.7531 -2.6245l0.2617 0.5241c0.1178,-0.1918 0.1735,-0.5219 0.322,-0.6718 0.16,-0.1614 0.5148,-0.2619 0.7358,-0.3566 -0.8957,-0.1323 -0.8391,-0.656 -1.0036,-0.9716 -0.0045,-0.0087 -0.0225,-0.0139 -0.026,-0.0344 -0.0035,-0.0207 -0.0188,-0.0222 -0.0282,-0.0333 -0.1423,0.2413 -0.085,0.1979 -0.1651,0.4132 -0.1435,0.3854 -0.4777,0.5208 -0.8568,0.6312 0.6003,0.2634 0.5426,0.1707 0.7602,0.4992zm-19.505 -0.4463l0.9863 1.0098c0.4587,-0.7275 -0.2063,-0.406 1.0698,-1.0571 -1.0364,-0.3694 -0.7564,-0.5038 -0.9786,-0.9662l-0.1093 -0.1349c-0.2136,0.8504 -0.2478,0.7847 -0.7747,1.005 -0.1616,0.0676 -0.12,0.0634 -0.1935,0.1434zm15.2631 -3.1213c0.2887,0.1952 0.6997,0.2025 0.9582,0.4481l0.4493 1.0577c0.3502,-0.431 -0.0237,-0.9666 1.1826,-1.3734 0.3424,-0.1154 0.0724,0.0256 0.276,-0.1324 -0.0371,-0.0295 -0.0402,-0.0445 -0.1129,-0.0795 -0.3882,-0.1864 -0.8277,-0.0774 -1.1278,-0.9095 -0.1175,-0.326 -0.0512,-0.3266 -0.2179,-0.5544 -0.1249,0.3731 -0.1783,0.8188 -0.4096,1.0763 -0.2635,0.2934 -0.7857,0.2807 -0.9979,0.4671zm-12.6017 0c0.4757,0.3085 0.9905,0.0636 1.3258,1.2317 0.0509,0.177 0.0146,0.0956 0.1486,0.2862 0.0475,-0.3196 0.2361,-0.8884 0.3952,-1.0531l1.0176 -0.4648c-0.2773,-0.2163 -0.792,-0.2331 -1.0089,-0.4742l-0.4192 -1.0719c-0.0264,0.0306 -0.0363,0.0206 -0.0708,0.0993 -0.0122,0.0279 -0.0305,0.0945 -0.0388,0.1241 -0.0763,0.2707 -0.1624,0.5896 -0.3382,0.8221 -0.2185,0.2891 -0.6615,0.3072 -0.8608,0.3968 -0.1627,0.0731 -0.0981,0.0579 -0.1505,0.1038z"/>
  <path class="fil0" d="M7.9148 35.4122c1.7385,-0.3543 2.1703,2.5308 0.4862,2.9077 -1.7375,0.3889 -2.2753,-2.5432 -0.4862,-2.9077zm3.6927 0.023c0.4611,-0.0069 0.8829,-0.0342 0.9068,0.4347 0.0266,0.5221 -0.4383,0.5079 -0.9206,0.4743l0.0138 -0.909zm-1.2378 -1.0873c0.204,0.3328 0.1488,0.96 0.1342,1.3975 -0.2308,-0.2039 -0.1719,-0.3004 -0.5288,-0.6913 -0.5997,-0.6569 -1.5534,-0.9745 -2.5126,-0.7327 -2.6074,0.6572 -2.3355,4.8566 0.3331,5.1288 0.7187,0.0733 1.3515,-0.1123 1.798,-0.4546 0.6721,-0.5153 0.6456,-0.7436 0.9262,-1.2896l-0.1064 1.7316 1.2618 -0.0045 -0.025 -1.888c0.3156,0.2857 0.1493,0.1042 0.3312,0.4298l0.7866 1.448 1.2428 0.0201 -0.5802 -0.9852c-0.1501,-0.2551 -0.4015,-0.7099 -0.4727,-1.0138l0.469 -0.4586c0.4527,-0.5259 0.6189,-2.5749 -1.2668,-2.6353 -0.58,-0.0186 -1.2097,-0.0156 -1.7904,-0.0022z"/>
  <path class="fil0" d="M34.0304 36.3406c-0.0269,-0.044 -0.0327,-0.0244 -0.0528,-0.117 -0.0243,-0.1127 0.0007,-0.6692 0.0107,-0.7749 0.9601,-0.342 1.3195,1.2211 0.0421,0.8919zm-1.3159 -1.9893c0.2037,0.3103 0.1906,0.2513 0.1932,0.7554l-0.0033 3.7608c-0.0031,0.5239 -0.0135,0.2593 -0.1558,0.5801 0.5534,-0.029 0.7413,-0.0177 1.3007,-0.0034l-0.018 -1.9005 1.067 1.8779 1.178 0.017c-0.3232,-0.6818 -0.6464,-1.3636 -0.9696,-2.0454 1.162,-0.6249 1.2847,-3.0477 -1.2246,-3.0451l-1.3676 0.0032z"/>
  <path class="fil0" d="M39.992 37.3643c0.0155,-0.2196 0.4451,-1.5899 0.543,-1.7258 0.1332,0.1821 0.5176,1.4569 0.5352,1.7153l-1.0782 0.0105zm-0.6875 1.9984c0.0055,-0.0145 0.0231,-0.0698 0.0283,-0.0865l0.2939 -0.8576 1.8184 -0.0318 0.2955 1.0507 1.2384 0.0009c-0.288,-0.8083 -1.6758,-4.5131 -1.6399,-5.0974l-1.613 0.0055c-0.2934,1.0171 -1.2172,4.3625 -1.6317,5.0913l1.1703 0.0033 0.0398 -0.0784z"/>
  <path class="fil0" d="M28.8338 34.348c0.2695,0.5271 0.1454,2.4352 0.1447,3.35 -0.0006,0.742 0.0904,1.2377 -0.1884,1.7389l3.359 0.0505c-0.028,-0.7448 -0.039,-0.461 0.0542,-1.2073 -1.1911,0.0975 -1.0282,0.0842 -2.1447,0.0799l-0.0151 -0.8431c0.6239,0.0022 0.6736,-0.0151 1.2773,0.0447l0.044 -1.2087c-0.6535,0.0876 -0.721,0.1367 -1.3201,0.1043l0.0026 -1.0153c0.9553,-0.0598 1.1636,0.0026 2.1462,0.0802 -0.1122,-0.7481 -0.0992,-0.4697 0.0068,-1.2447 -1.3804,0.1363 -2.0714,0.0503 -3.3665,0.0706z"/>
  <path class="fil0" d="M18.1397 35.5145c-0.0611,-0.523 -0.0789,-0.7223 0.0516,-1.2172l-4.2035 0.0421 0.0577 1.2253 1.4708 -0.1727c-0.0004,0.7051 0.0359,3.0447 0.0004,3.681 -0.0106,0.1905 -0.0838,0.2459 -0.1495,0.3622l1.3279 -0.0022c-0.0527,-0.9548 -0.2055,-3.1835 -0.0767,-4.032l0.8248 -0.0082c0.5984,-0.0012 0.4333,0.0592 0.6965,0.1217z"/>
  <path class="fil0" d="M5.5765 35.5746c-0.0039,-0.4125 -0.0945,-0.9636 0.1074,-1.2637 -1.6539,0.0801 -2.6994,-0.0076 -4.1932,0.0306l0.04 1.1858 1.447 -0.1368c0.0074,0.7417 0.127,3.5547 -0.0891,4.0501l1.3001 -0.0095c-0.0703,-1.0769 -0.2264,-3.007 -0.109,-4.023 0.3292,-0.003 1.0383,-0.0612 1.3383,0.0814 0.0153,0.0073 0.0635,0.0376 0.0746,0.0435l0.0839 0.0416z"/>
  <path class="fil0" d="M20.9629 34.3666c0.2982,0.2872 0.1611,1.9573 0.1602,2.5185l-0.0075 2.0334c-0.0124,0.3237 -0.0783,0.3303 -0.1697,0.518l3.4254 0.0483 0.0204 -1.3229c-0.843,0.1636 -1.2943,0.2742 -2.2152,0.1824l0.0893 -4.0131 -1.3029 0.0354z"/>
  <path class="fil0" d="M18.9332 34.3643c0.2482,0.3556 0.1168,3.0367 0.1268,3.8926 0.0056,0.4722 0.0539,0.8741 -0.1401,1.1753l1.3652 -0.0041 -0.1471 -1.222c-0.0458,-0.7934 -0.0258,-3.3004 0.1033,-3.8865l-1.3081 0.0447z"/>
  <path class="fil0" d="M36.5696 34.3454c0.1865,0.4738 0.119,1.2065 0.119,1.7775 0,1.5217 0.0338,1.8534 -0.1612,3.314l1.2904 0.0049c-0.0365,-0.9679 -0.2484,-4.3764 0.0136,-5.0954l-1.2618 -0.001z"/>
  <path class="fil0" d="M3.2384 41.7261c-0.2213,0.0148 -0.2037,0.0594 -0.1859,0.2829l4.0875 0.0187 -0.0105 -0.2858c-0.1425,-0.0151 -3.4431,-0.0459 -3.8911,-0.0158z"/>
  <polygon class="fil0" points="38.0788,42.0255 41.9712,42.0257 41.9457,41.7396 38.1008,41.7419 "/>
  <g>
   <path class="fil1 str0" d="M8.4788 40.7507l0.3053 0 0 1.6073 0.9342 0 0 0.2923 -1.2395 0 0 -1.8996zm1.7831 0l1.2604 0 0 0.2922 -0.9551 0 0 0.5062 0.8507 0 0 0.2923 -0.8507 0 0 0.5166 0.9916 0 0 0.2923 -1.2969 0 0 -1.8996zm2.3572 1.2838l-0.7019 -1.2838 0.3732 0 0.5349 1.0228 -0.0913 0.0053 0.5271 -1.0281 0.3731 0 -0.7124 1.2838 0 0.6158 -0.3027 0 0 -0.6158zm1.4752 -1.2838l1.2604 0 0 0.2922 -0.9551 0 0 0.5062 0.8507 0 0 0.2923 -0.8507 0 0 0.5166 0.9916 0 0 0.2923 -1.2969 0 0 -1.8996zm2.853 0.3861c-0.0678,-0.0347 -0.14,-0.0648 -0.2165,-0.09 -0.0766,-0.0252 -0.1497,-0.0378 -0.2192,-0.0378 -0.094,0 -0.1683,0.0209 -0.2231,0.0626 -0.0548,0.0418 -0.0822,0.0992 -0.0822,0.1722 0,0.0522 0.0187,0.0979 0.0561,0.137 0.0374,0.0392 0.0861,0.0731 0.1461,0.1018 0.06,0.0287 0.1231,0.0561 0.1892,0.0822 0.0574,0.0209 0.1143,0.0457 0.1709,0.0744 0.0565,0.0287 0.1074,0.0639 0.1526,0.1056 0.0453,0.0418 0.0809,0.0935 0.107,0.1553 0.0261,0.0618 0.0392,0.1379 0.0392,0.2283 0,0.0992 -0.0248,0.1901 -0.0744,0.2727 -0.0496,0.0826 -0.1213,0.1483 -0.2153,0.197 -0.0939,0.0487 -0.2079,0.0731 -0.3418,0.0731 -0.08,0 -0.1579,-0.0087 -0.2336,-0.0261 -0.0756,-0.0174 -0.1474,-0.0413 -0.2152,-0.0718 -0.0679,-0.0304 -0.1305,-0.0648 -0.1879,-0.103l0.1357 -0.2375c0.0417,0.0313 0.0896,0.06 0.1435,0.0861 0.0539,0.0261 0.1096,0.047 0.167,0.0626 0.0574,0.0157 0.1113,0.0235 0.1618,0.0235 0.0539,0 0.1074,-0.0091 0.1605,-0.0274 0.053,-0.0182 0.0974,-0.0474 0.133,-0.0874 0.0357,-0.04 0.0535,-0.0931 0.0535,-0.1592 0,-0.0539 -0.0152,-0.1 -0.0456,-0.1383 -0.0305,-0.0382 -0.0709,-0.0717 -0.1214,-0.1004 -0.0504,-0.0287 -0.1052,-0.0544 -0.1644,-0.077 -0.0591,-0.0226 -0.1191,-0.0478 -0.18,-0.0757 -0.0609,-0.0278 -0.1179,-0.0622 -0.1709,-0.1031 -0.0531,-0.0408 -0.0961,-0.0908 -0.1292,-0.15 -0.033,-0.0591 -0.0496,-0.1322 -0.0496,-0.2192 0,-0.1044 0.0244,-0.1948 0.0731,-0.2714 0.0487,-0.0765 0.1161,-0.1374 0.2022,-0.1826 0.0861,-0.0452 0.1857,-0.0696 0.2988,-0.0731 0.134,0 0.2483,0.0161 0.3431,0.0483 0.0948,0.0322 0.1788,0.0709 0.2518,0.1161l-0.1148 0.2322zm1.4961 1.5135l0 -1.8996 0.5402 0c0.1879,0 0.3483,0.0287 0.4814,0.0861 0.1331,0.0574 0.2405,0.133 0.3223,0.227 0.0817,0.0939 0.1413,0.1987 0.1787,0.3144 0.0374,0.1157 0.0561,0.2318 0.0561,0.3484 0,0.1426 -0.0252,0.2705 -0.0756,0.3836 -0.0505,0.113 -0.1196,0.21 -0.2075,0.2909 -0.0878,0.0809 -0.1887,0.1426 -0.3027,0.1853 -0.1139,0.0426 -0.2344,0.0639 -0.3614,0.0639l-0.6315 0zm0.3053 -0.2923l0.2714 0c0.1009,0 0.1931,-0.0143 0.2766,-0.043 0.0835,-0.0287 0.1561,-0.0705 0.2179,-0.1253 0.0618,-0.0548 0.1096,-0.123 0.1435,-0.2048 0.0339,-0.0818 0.0509,-0.1748 0.0509,-0.2792 0,-0.1183 -0.0196,-0.2196 -0.0587,-0.304 -0.0392,-0.0844 -0.0905,-0.1531 -0.154,-0.2061 -0.0635,-0.0531 -0.1326,-0.0922 -0.2074,-0.1175 -0.0748,-0.0252 -0.1488,-0.0378 -0.2218,-0.0378l-0.3184 0 0 1.3177zm1.817 -1.6073l1.2604 0 0 0.2922 -0.9551 0 0 0.5062 0.8507 0 0 0.2923 -0.8507 0 0 0.5166 0.9916 0 0 0.2923 -1.2969 0 0 -1.8996zm3.2262 0c0.1043,0 0.2,0.0134 0.287,0.0404 0.087,0.027 0.1609,0.0665 0.2218,0.1187 0.0609,0.0522 0.1083,0.1161 0.1422,0.1918 0.0339,0.0757 0.0509,0.1622 0.0509,0.2597 0,0.0748 -0.0113,0.1496 -0.0339,0.2244 -0.0226,0.0748 -0.0596,0.1422 -0.1109,0.2022 -0.0513,0.06 -0.1188,0.1087 -0.2023,0.1461 -0.0835,0.0374 -0.187,0.0561 -0.3105,0.0561l-0.274 0 0 0.6602 -0.3053 0 0 -1.8996 0.535 0zm0.0417 0.9472c0.0679,0 0.1244,-0.0109 0.1696,-0.0326 0.0453,-0.0218 0.0805,-0.0492 0.1057,-0.0822 0.0252,-0.0331 0.0435,-0.0683 0.0548,-0.1057 0.0113,-0.0374 0.017,-0.0727 0.017,-0.1057 0,-0.0313 -0.0053,-0.0657 -0.0157,-0.1031 -0.0104,-0.0374 -0.0283,-0.073 -0.0535,-0.107 -0.0252,-0.0339 -0.0596,-0.0622 -0.1031,-0.0848 -0.0434,-0.0226 -0.0982,-0.0339 -0.1643,-0.0339l-0.2819 0 0 0.655 0.2714 0zm0.3288 0.18l0.4854 0.7724 -0.3523 0 -0.4958 -0.7646 0.3627 -0.0078zm0.982 -1.1272l1.2604 0 0 0.2922 -0.9551 0 0 0.5062 0.8507 0 0 0.2923 -0.8507 0 0 0.5166 0.9916 0 0 0.2923 -1.2969 0 0 -1.8996zm1.8562 0l1.1534 0 0 0.2922 -0.8481 0 0 0.5349 0.7385 0 0 0.2897 -0.7385 0 0 0.7828 -0.3053 0 0 -1.8996zm1.5692 0.9524c0,-0.1322 0.0252,-0.2566 0.0757,-0.3732 0.0504,-0.1165 0.12,-0.22 0.2087,-0.3105 0.0888,-0.0904 0.1918,-0.1613 0.3093,-0.2126 0.1174,-0.0514 0.2431,-0.077 0.377,-0.077 0.1322,0 0.257,0.0256 0.3745,0.077 0.1174,0.0513 0.2209,0.1222 0.3105,0.2126 0.0896,0.0905 0.16,0.194 0.2113,0.3105 0.0514,0.1166 0.077,0.241 0.077,0.3732 0,0.1339 -0.0256,0.2596 -0.077,0.377 -0.0513,0.1175 -0.1217,0.2205 -0.2113,0.3093 -0.0896,0.0887 -0.1931,0.1578 -0.3105,0.2074 -0.1175,0.0496 -0.2423,0.0744 -0.3745,0.0744 -0.1357,0 -0.2618,-0.0248 -0.3783,-0.0744 -0.1166,-0.0496 -0.2192,-0.1183 -0.308,-0.2061 -0.0887,-0.0879 -0.1583,-0.1905 -0.2087,-0.3079 -0.0505,-0.1175 -0.0757,-0.244 -0.0757,-0.3797zm0.3131 0c0,0.0939 0.017,0.1818 0.0509,0.2635 0.034,0.0818 0.0814,0.1536 0.1422,0.2153 0.0609,0.0618 0.1314,0.11 0.2114,0.1448 0.08,0.0348 0.167,0.0522 0.2609,0.0522 0.0905,0 0.1753,-0.0174 0.2545,-0.0522 0.0791,-0.0348 0.1483,-0.083 0.2074,-0.1448 0.0592,-0.0617 0.1057,-0.1335 0.1396,-0.2153 0.0339,-0.0817 0.0509,-0.1696 0.0509,-0.2635 0,-0.0957 -0.0174,-0.1844 -0.0522,-0.2662 -0.0348,-0.0817 -0.0818,-0.1539 -0.1409,-0.2166 -0.0591,-0.0626 -0.1287,-0.1113 -0.2088,-0.1461 -0.08,-0.0348 -0.1661,-0.0522 -0.2583,-0.0522 -0.0922,0 -0.1783,0.0174 -0.2583,0.0522 -0.08,0.0348 -0.1501,0.0835 -0.2101,0.1461 -0.06,0.0627 -0.1065,0.1353 -0.1396,0.2179 -0.033,0.0827 -0.0496,0.1709 -0.0496,0.2649zm2.7095 -0.9524c0.1043,0 0.2,0.0134 0.287,0.0404 0.087,0.027 0.1609,0.0665 0.2218,0.1187 0.0609,0.0522 0.1083,0.1161 0.1422,0.1918 0.0339,0.0757 0.0509,0.1622 0.0509,0.2597 0,0.0748 -0.0113,0.1496 -0.0339,0.2244 -0.0226,0.0748 -0.0596,0.1422 -0.1109,0.2022 -0.0513,0.06 -0.1188,0.1087 -0.2023,0.1461 -0.0835,0.0374 -0.187,0.0561 -0.3105,0.0561l-0.274 0 0 0.6602 -0.3053 0 0 -1.8996 0.535 0zm0.0417 0.9472c0.0679,0 0.1244,-0.0109 0.1696,-0.0326 0.0453,-0.0218 0.0805,-0.0492 0.1057,-0.0822 0.0252,-0.0331 0.0435,-0.0683 0.0548,-0.1057 0.0113,-0.0374 0.017,-0.0727 0.017,-0.1057 0,-0.0313 -0.0053,-0.0657 -0.0157,-0.1031 -0.0104,-0.0374 -0.0283,-0.073 -0.0535,-0.107 -0.0252,-0.0339 -0.0596,-0.0622 -0.1031,-0.0848 -0.0434,-0.0226 -0.0982,-0.0339 -0.1643,-0.0339l-0.2819 0 0 0.655 0.2714 0zm0.3288 0.18l0.4854 0.7724 -0.3523 0 -0.4958 -0.7646 0.3627 -0.0078zm0.982 0.7724l0 -1.9675 0.0026 0 1.0229 1.4482 -0.1304 -0.0287 1.0176 -1.4195 0.0052 0 0 1.9675 -0.3026 0 0 -1.2812 0.0208 0.1539 -0.6888 0.9733 -0.0053 0 -0.6993 -0.9733 0.0522 -0.1409 0 1.2682 -0.2949 0zm2.3807 0l0.8403 -1.9779 0.0182 0 0.8402 1.9779 -0.3496 0 -0.5897 -1.503 0.2165 -0.1461 -0.6784 1.6491 -0.2975 0zm0.5271 -0.7071l0.6498 0 0.1043 0.2609 -0.8454 0 0.0913 -0.2609z"/>
   <path id="1" class="fil2" d="M8.4788 40.7507l0.3053 0 0 1.6073 0.9342 0 0 0.2923 -1.2395 0 0 -1.8996zm1.7831 0l1.2604 0 0 0.2922 -0.9551 0 0 0.5062 0.8507 0 0 0.2923 -0.8507 0 0 0.5166 0.9916 0 0 0.2923 -1.2969 0 0 -1.8996zm2.3572 1.2838l-0.7019 -1.2838 0.3732 0 0.5349 1.0228 -0.0913 0.0053 0.5271 -1.0281 0.3731 0 -0.7124 1.2838 0 0.6158 -0.3027 0 0 -0.6158zm1.4752 -1.2838l1.2604 0 0 0.2922 -0.9551 0 0 0.5062 0.8507 0 0 0.2923 -0.8507 0 0 0.5166 0.9916 0 0 0.2923 -1.2969 0 0 -1.8996zm2.853 0.3861c-0.0678,-0.0347 -0.14,-0.0648 -0.2165,-0.09 -0.0766,-0.0252 -0.1497,-0.0378 -0.2192,-0.0378 -0.094,0 -0.1683,0.0209 -0.2231,0.0626 -0.0548,0.0418 -0.0822,0.0992 -0.0822,0.1722 0,0.0522 0.0187,0.0979 0.0561,0.137 0.0374,0.0392 0.0861,0.0731 0.1461,0.1018 0.06,0.0287 0.1231,0.0561 0.1892,0.0822 0.0574,0.0209 0.1143,0.0457 0.1709,0.0744 0.0565,0.0287 0.1074,0.0639 0.1526,0.1056 0.0453,0.0418 0.0809,0.0935 0.107,0.1553 0.0261,0.0618 0.0392,0.1379 0.0392,0.2283 0,0.0992 -0.0248,0.1901 -0.0744,0.2727 -0.0496,0.0826 -0.1213,0.1483 -0.2153,0.197 -0.0939,0.0487 -0.2079,0.0731 -0.3418,0.0731 -0.08,0 -0.1579,-0.0087 -0.2336,-0.0261 -0.0756,-0.0174 -0.1474,-0.0413 -0.2152,-0.0718 -0.0679,-0.0304 -0.1305,-0.0648 -0.1879,-0.103l0.1357 -0.2375c0.0417,0.0313 0.0896,0.06 0.1435,0.0861 0.0539,0.0261 0.1096,0.047 0.167,0.0626 0.0574,0.0157 0.1113,0.0235 0.1618,0.0235 0.0539,0 0.1074,-0.0091 0.1605,-0.0274 0.053,-0.0182 0.0974,-0.0474 0.133,-0.0874 0.0357,-0.04 0.0535,-0.0931 0.0535,-0.1592 0,-0.0539 -0.0152,-0.1 -0.0456,-0.1383 -0.0305,-0.0382 -0.0709,-0.0717 -0.1214,-0.1004 -0.0504,-0.0287 -0.1052,-0.0544 -0.1644,-0.077 -0.0591,-0.0226 -0.1191,-0.0478 -0.18,-0.0757 -0.0609,-0.0278 -0.1179,-0.0622 -0.1709,-0.1031 -0.0531,-0.0408 -0.0961,-0.0908 -0.1292,-0.15 -0.033,-0.0591 -0.0496,-0.1322 -0.0496,-0.2192 0,-0.1044 0.0244,-0.1948 0.0731,-0.2714 0.0487,-0.0765 0.1161,-0.1374 0.2022,-0.1826 0.0861,-0.0452 0.1857,-0.0696 0.2988,-0.0731 0.134,0 0.2483,0.0161 0.3431,0.0483 0.0948,0.0322 0.1788,0.0709 0.2518,0.1161l-0.1148 0.2322zm1.4961 1.5135l0 -1.8996 0.5402 0c0.1879,0 0.3483,0.0287 0.4814,0.0861 0.1331,0.0574 0.2405,0.133 0.3223,0.227 0.0817,0.0939 0.1413,0.1987 0.1787,0.3144 0.0374,0.1157 0.0561,0.2318 0.0561,0.3484 0,0.1426 -0.0252,0.2705 -0.0756,0.3836 -0.0505,0.113 -0.1196,0.21 -0.2075,0.2909 -0.0878,0.0809 -0.1887,0.1426 -0.3027,0.1853 -0.1139,0.0426 -0.2344,0.0639 -0.3614,0.0639l-0.6315 0zm0.3053 -0.2923l0.2714 0c0.1009,0 0.1931,-0.0143 0.2766,-0.043 0.0835,-0.0287 0.1561,-0.0705 0.2179,-0.1253 0.0618,-0.0548 0.1096,-0.123 0.1435,-0.2048 0.0339,-0.0818 0.0509,-0.1748 0.0509,-0.2792 0,-0.1183 -0.0196,-0.2196 -0.0587,-0.304 -0.0392,-0.0844 -0.0905,-0.1531 -0.154,-0.2061 -0.0635,-0.0531 -0.1326,-0.0922 -0.2074,-0.1175 -0.0748,-0.0252 -0.1488,-0.0378 -0.2218,-0.0378l-0.3184 0 0 1.3177zm1.817 -1.6073l1.2604 0 0 0.2922 -0.9551 0 0 0.5062 0.8507 0 0 0.2923 -0.8507 0 0 0.5166 0.9916 0 0 0.2923 -1.2969 0 0 -1.8996zm3.2262 0c0.1043,0 0.2,0.0134 0.287,0.0404 0.087,0.027 0.1609,0.0665 0.2218,0.1187 0.0609,0.0522 0.1083,0.1161 0.1422,0.1918 0.0339,0.0757 0.0509,0.1622 0.0509,0.2597 0,0.0748 -0.0113,0.1496 -0.0339,0.2244 -0.0226,0.0748 -0.0596,0.1422 -0.1109,0.2022 -0.0513,0.06 -0.1188,0.1087 -0.2023,0.1461 -0.0835,0.0374 -0.187,0.0561 -0.3105,0.0561l-0.274 0 0 0.6602 -0.3053 0 0 -1.8996 0.535 0zm0.0417 0.9472c0.0679,0 0.1244,-0.0109 0.1696,-0.0326 0.0453,-0.0218 0.0805,-0.0492 0.1057,-0.0822 0.0252,-0.0331 0.0435,-0.0683 0.0548,-0.1057 0.0113,-0.0374 0.017,-0.0727 0.017,-0.1057 0,-0.0313 -0.0053,-0.0657 -0.0157,-0.1031 -0.0104,-0.0374 -0.0283,-0.073 -0.0535,-0.107 -0.0252,-0.0339 -0.0596,-0.0622 -0.1031,-0.0848 -0.0434,-0.0226 -0.0982,-0.0339 -0.1643,-0.0339l-0.2819 0 0 0.655 0.2714 0zm0.3288 0.18l0.4854 0.7724 -0.3523 0 -0.4958 -0.7646 0.3627 -0.0078zm0.982 -1.1272l1.2604 0 0 0.2922 -0.9551 0 0 0.5062 0.8507 0 0 0.2923 -0.8507 0 0 0.5166 0.9916 0 0 0.2923 -1.2969 0 0 -1.8996zm1.8562 0l1.1534 0 0 0.2922 -0.8481 0 0 0.5349 0.7385 0 0 0.2897 -0.7385 0 0 0.7828 -0.3053 0 0 -1.8996zm1.5692 0.9524c0,-0.1322 0.0252,-0.2566 0.0757,-0.3732 0.0504,-0.1165 0.12,-0.22 0.2087,-0.3105 0.0888,-0.0904 0.1918,-0.1613 0.3093,-0.2126 0.1174,-0.0514 0.2431,-0.077 0.377,-0.077 0.1322,0 0.257,0.0256 0.3745,0.077 0.1174,0.0513 0.2209,0.1222 0.3105,0.2126 0.0896,0.0905 0.16,0.194 0.2113,0.3105 0.0514,0.1166 0.077,0.241 0.077,0.3732 0,0.1339 -0.0256,0.2596 -0.077,0.377 -0.0513,0.1175 -0.1217,0.2205 -0.2113,0.3093 -0.0896,0.0887 -0.1931,0.1578 -0.3105,0.2074 -0.1175,0.0496 -0.2423,0.0744 -0.3745,0.0744 -0.1357,0 -0.2618,-0.0248 -0.3783,-0.0744 -0.1166,-0.0496 -0.2192,-0.1183 -0.308,-0.2061 -0.0887,-0.0879 -0.1583,-0.1905 -0.2087,-0.3079 -0.0505,-0.1175 -0.0757,-0.244 -0.0757,-0.3797zm0.3131 0c0,0.0939 0.017,0.1818 0.0509,0.2635 0.034,0.0818 0.0814,0.1536 0.1422,0.2153 0.0609,0.0618 0.1314,0.11 0.2114,0.1448 0.08,0.0348 0.167,0.0522 0.2609,0.0522 0.0905,0 0.1753,-0.0174 0.2545,-0.0522 0.0791,-0.0348 0.1483,-0.083 0.2074,-0.1448 0.0592,-0.0617 0.1057,-0.1335 0.1396,-0.2153 0.0339,-0.0817 0.0509,-0.1696 0.0509,-0.2635 0,-0.0957 -0.0174,-0.1844 -0.0522,-0.2662 -0.0348,-0.0817 -0.0818,-0.1539 -0.1409,-0.2166 -0.0591,-0.0626 -0.1287,-0.1113 -0.2088,-0.1461 -0.08,-0.0348 -0.1661,-0.0522 -0.2583,-0.0522 -0.0922,0 -0.1783,0.0174 -0.2583,0.0522 -0.08,0.0348 -0.1501,0.0835 -0.2101,0.1461 -0.06,0.0627 -0.1065,0.1353 -0.1396,0.2179 -0.033,0.0827 -0.0496,0.1709 -0.0496,0.2649zm2.7095 -0.9524c0.1043,0 0.2,0.0134 0.287,0.0404 0.087,0.027 0.1609,0.0665 0.2218,0.1187 0.0609,0.0522 0.1083,0.1161 0.1422,0.1918 0.0339,0.0757 0.0509,0.1622 0.0509,0.2597 0,0.0748 -0.0113,0.1496 -0.0339,0.2244 -0.0226,0.0748 -0.0596,0.1422 -0.1109,0.2022 -0.0513,0.06 -0.1188,0.1087 -0.2023,0.1461 -0.0835,0.0374 -0.187,0.0561 -0.3105,0.0561l-0.274 0 0 0.6602 -0.3053 0 0 -1.8996 0.535 0zm0.0417 0.9472c0.0679,0 0.1244,-0.0109 0.1696,-0.0326 0.0453,-0.0218 0.0805,-0.0492 0.1057,-0.0822 0.0252,-0.0331 0.0435,-0.0683 0.0548,-0.1057 0.0113,-0.0374 0.017,-0.0727 0.017,-0.1057 0,-0.0313 -0.0053,-0.0657 -0.0157,-0.1031 -0.0104,-0.0374 -0.0283,-0.073 -0.0535,-0.107 -0.0252,-0.0339 -0.0596,-0.0622 -0.1031,-0.0848 -0.0434,-0.0226 -0.0982,-0.0339 -0.1643,-0.0339l-0.2819 0 0 0.655 0.2714 0zm0.3288 0.18l0.4854 0.7724 -0.3523 0 -0.4958 -0.7646 0.3627 -0.0078zm0.982 0.7724l0 -1.9675 0.0026 0 1.0229 1.4482 -0.1304 -0.0287 1.0176 -1.4195 0.0052 0 0 1.9675 -0.3026 0 0 -1.2812 0.0208 0.1539 -0.6888 0.9733 -0.0053 0 -0.6993 -0.9733 0.0522 -0.1409 0 1.2682 -0.2949 0zm2.3807 0l0.8403 -1.9779 0.0182 0 0.8402 1.9779 -0.3496 0 -0.5897 -1.503 0.2165 -0.1461 -0.6784 1.6491 -0.2975 0zm0.5271 -0.7071l0.6498 0 0.1043 0.2609 -0.8454 0 0.0913 -0.2609z"/>
  </g>
  <path class="fil0" d="M24.8492 34.3666c0.2982,0.2872 0.1611,1.9573 0.1602,2.5185l-0.0075 2.0334c-0.0124,0.3237 -0.0783,0.3303 -0.1697,0.518l3.4254 0.0483 0.0204 -1.3229c-0.8429,0.1636 -1.2943,0.2742 -2.2152,0.1824l0.0894 -4.0131 -1.303 0.0354z"/>
 </g>
</svg>
