<?xml version="1.0" encoding="UTF-8"?>
<!DOCTYPE svg PUBLIC "-//W3C//DTD SVG 1.1//EN" "http://www.w3.org/Graphics/SVG/1.1/DTD/svg11.dtd">
<!-- Creator: CorelDRAW -->
<svg xmlns="http://www.w3.org/2000/svg" xml:space="preserve" width="44.0266mm" height="44.0266mm" style="shape-rendering:geometricPrecision; text-rendering:geometricPrecision; image-rendering:optimizeQuality; fill-rule:evenodd; clip-rule:evenodd"
viewBox="0 0 44.0266 44.0266"
 xmlns:xlink="http://www.w3.org/1999/xlink">
 <defs>
  <style type="text/css">
   <![CDATA[
    .fil0 {fill:#373435}
   ]]>
  </style>
 </defs>
 <g id="Capa_x0020_1">
  <metadata id="CorelCorpID_0Corel-Layer"/>
  <g id="_353533608">
   <g>
    <path id="_353521032" class="fil0" d="M17.2911 14.7365c0.0951,-0.5044 0.1921,-0.8737 -0.1606,-1.2162 -0.2678,-0.26 -0.5754,-0.4711 -0.8784,-0.6606 0.3283,0.493 0.7833,1.2214 1.039,1.8768z"/>
    <path id="_768573760" class="fil0" d="M26.4575 14.8047l0.9674 -1.7179c-0.3348,0.1556 -0.5274,0.3589 -0.7752,0.6011 -0.3841,0.3754 -0.2176,0.4727 -0.1922,1.1168z"/>
   </g>
   <g>
    <path id="_768572704" class="fil0" d="M25.0182 33.152c-0.0035,-0.7368 0.5395,-0.5785 1.9282,-0.5599 0.3909,0.0052 0.8056,0.0052 1.1955,-0.0111 0.4301,-0.018 0.8449,-0.0872 0.9257,0.3222 0.1442,0.7307 -1.3413,0.4799 -1.8821,0.4835 -0.3991,0.0026 -0.7965,0.011 -1.1955,0.0115 -0.707,0.0009 -0.5218,0.1176 -0.9718,-0.2462zm-6.2554 0.1999c-0.2576,0.0387 -3.4586,0.0926 -3.7661,0.0077 -0.3354,-0.0926 -0.4207,-0.5801 -0.0721,-0.7242 0.2559,-0.1058 2.0413,-0.0374 2.4583,-0.0377 0.668,-0.0005 2.0756,-0.1734 1.3799,0.7542zm13.8028 -2.3321c-0.1859,0.3124 -0.6525,0.2304 -1.0766,0.2195 -0.4383,-0.0112 -0.8767,-0.0063 -1.315,-0.0077 -0.813,-0.0027 -2.3448,0.213 -1.9952,-0.5864 0.1292,-0.2953 0.7115,-0.2076 1.0987,-0.2038l2.632 -0.002c0.3789,0.0002 0.9479,0.09 0.6561,0.5804zm-21.3343 -0.1195c-0.1154,-0.6588 1.033,-0.4474 2.0872,-0.4513 0.4188,-0.0016 0.8366,0 1.2552,-0.0026 0.4229,-0.0027 0.9516,-0.0677 0.9495,0.3906 -0.0028,0.5992 -1.1695,0.4095 -2.0852,0.4056 -0.4187,-0.0017 -0.8367,-0.0066 -1.2553,-0.0079 -0.3808,-0.0012 -0.8807,0.0685 -0.9514,-0.3344zm23.6079 -2.1368c-0.1488,0.2462 -0.8592,0.1778 -1.1988,0.1804 -0.3948,0.003 -1.1113,-0.0475 -0.7513,-0.6399 0.1714,-0.282 0.8976,-0.1776 1.2302,-0.1817 0.2218,-0.0028 0.4864,-0.0416 0.6464,0.0965 0.1349,0.1163 0.1656,0.3923 0.0735,0.5447zm-20.7983 -0.015c-0.2441,0.3591 -1.7385,0.2442 -1.2304,-0.4988 0.2131,-0.3117 1.7369,-0.2465 1.2304,0.4988zm15.9341 -0.1793c-0.0664,-0.4141 0.2682,-0.4612 0.6148,-0.4638 0.3948,-0.0029 0.7157,-0.0111 0.7551,0.3539 0.0391,0.363 -0.2303,0.4567 -0.5708,0.4724 -0.3843,0.0177 -0.7417,-0.0049 -0.7991,-0.3625zm-18.7851 0.1195c-0.1845,0.3608 -0.5303,0.2417 -1.2188,0.2482 -0.2111,0.002 -0.4951,0.0414 -0.6787,-0.0479 -0.1668,-0.081 -0.2551,-0.3564 -0.1252,-0.582 0.1789,-0.3105 1.7447,-0.2001 1.8616,-0.1349 0.1555,0.0866 0.2593,0.3245 0.1611,0.5166zm23.6229 -3.8376c0.2819,-0.0717 2.3142,-0.182 2.602,0.003 0.1874,0.1205 0.2237,0.4382 0.0363,0.598 -0.2434,0.2075 -1.3295,0.102 -1.7183,0.0978 -0.6244,-0.0066 -1.2361,0.0666 -0.92,-0.6988zm-1.748 0.4904c-0.2293,0.4058 -1.8768,0.3612 -1.4899,-0.3816 0.1449,-0.278 1.2582,-0.2619 1.4387,-0.0638 0.0991,0.1087 0.132,0.3024 0.0512,0.4454zm-20.7598 0c-0.1888,0.3695 -1.024,0.2205 -1.4372,0.2149 -0.5723,-0.0076 -3.8955,0.0354 -4.1672,-0.0113 -0.2113,-0.0363 -0.4176,-0.2291 -0.2992,-0.536 0.1416,-0.3666 1.0585,-0.238 1.4779,-0.2386l3.3472 0.0048c0.4011,-0.0066 1.4116,-0.0856 1.0785,0.5662zm25.3668 -1.9725c-0.2245,0.3269 -3.4598,0.1857 -4.33,0.1911 -0.2381,0.0014 -0.5472,0.0403 -0.7254,-0.0612 -0.1549,-0.0883 -0.2626,-0.3435 -0.1309,-0.56 0.1841,-0.3023 0.9425,-0.1801 1.3346,-0.1813 0.4677,-0.0013 3.4946,-0.0629 3.7129,0.0628 0.1657,0.0955 0.2712,0.3558 0.1388,0.5486zm-26.1327 -0.0597c-0.1544,0.3537 -0.804,0.2498 -1.269,0.2509 -0.518,0.0013 -1.036,0 -1.554,0.0015 -0.4977,0.0014 -0.9965,-0.0037 -1.4944,-0.0036 -0.4381,0.0002 -1.1916,0.0531 -0.9281,-0.5767 0.1481,-0.3541 0.8865,-0.2242 1.2868,-0.2221l3.0484 -0.004c0.3948,-0.0067 1.1614,-0.0216 0.9103,0.554zm24.3132 -3.6089c-0.5423,0.0007 -1.2188,0.1133 -1.1923,-0.451 0.0244,-0.5195 0.8652,-0.3914 1.3119,-0.3914l3.3089 0.0724 -0.9181 0.7654 -2.5104 0.0046zm-31.2179 -0.7857c0.1484,-0.0566 3.6995,-0.0752 3.9561,-0.0221 0.4164,0.0861 0.4191,0.6106 0.0536,0.7544 -0.166,0.0652 -3.5412,0.0892 -3.8813,0.0252 -0.444,-0.0835 -0.4688,-0.6276 -0.1284,-0.7575zm28.8221 -1.9132c0.1493,-0.0338 3.8803,-0.0538 4.2314,-0.0097 0.5427,0.0681 0.4971,0.69 0.1169,0.7935 -0.2114,0.0575 -3.9187,0.0648 -4.2748,0.0006 -0.4103,-0.0739 -0.5394,-0.6789 -0.0735,-0.7844zm-27.2956 0.0121c0.2105,-0.045 3.8404,-0.0657 4.0746,-0.0047 0.4136,0.1078 0.366,0.6911 -0.0386,0.7786 -0.254,0.055 -3.8969,0.0773 -4.1401,-0.0089 -0.3019,-0.1071 -0.4271,-0.6514 0.1041,-0.765zm31.1857 -2.2759l1.0762 0.0702c0.0992,0.1729 0.3189,0.4269 0.0435,0.6541 -0.1647,0.1358 -0.554,0.1055 -0.8208,0.1068 -0.6933,0.0033 -1.4069,0.1196 -1.6416,-0.2517 -0.1919,-0.7808 0.703,-0.5802 1.3427,-0.5794zm-30.0053 -0.0048c0.2432,-0.0036 0.6054,-0.053 0.762,0.1108 0.1782,0.1865 0.0935,0.5034 -0.0599,0.6184 -0.2154,0.1615 -1.19,0.1075 -1.5389,0.1069 -0.4462,-0.0007 -1.2341,0.0969 -1.0907,-0.5614 0.0945,-0.4335 1.2062,-0.2655 1.9275,-0.2747zm4.7818 0.683c-0.3127,0 -1.2274,0.0852 -1.4114,-0.1407 -0.155,-0.1905 -0.1227,-0.4424 0.0272,-0.5833 0.3782,-0.3553 1.7433,0.0559 2.136,0.1531 0.1405,0.5324 -0.3224,0.5709 -0.7518,0.5709zm19.1644 -0.8052c0.2198,-0.0864 1.2075,-0.0589 1.5208,-0.0435 0.7087,0.0347 0.6064,0.7152 0.2111,0.8167 -0.1964,0.0504 -1.2858,0.0441 -1.5328,0.0265 -0.5676,-0.0405 -0.5958,-0.6438 -0.1991,-0.7997zm-0.086 -1.881c0.1463,-0.0713 4.2317,-0.0357 4.9527,-0.0349 1.0853,0.001 0.6899,0.6521 0.5236,0.7424 -0.2256,0.1224 -4.1581,0.0667 -4.9524,0.0631 -1.0737,-0.0048 -0.7302,-0.6701 -0.5239,-0.7706zm-23.6817 0c0.1177,-0.0526 4.1722,-0.0546 4.8467,-0.0454 0.6978,0.0095 0.709,0.5961 0.3531,0.7629 -0.2019,0.0947 -4.1138,0.0695 -4.8434,0.056 -0.7044,-0.0131 -0.7427,-0.601 -0.3564,-0.7735zm1.873 -3.7803c0.8373,-0.1219 1.0118,1.2408 0.146,1.3657 -0.8868,0.1279 -1.1435,-1.2204 -0.146,-1.3657zm24.894 0.0513c0.8547,-0.4291 1.3124,0.9615 0.5791,1.2552 -0.4362,0.1747 -0.8139,-0.0206 -0.9343,-0.3897 -0.1239,-0.3803 0.0053,-0.6899 0.3552,-0.8655zm-3.5534 -3.3682c0.9254,-0.2932 1.2011,1.107 0.3663,1.3332 -0.8547,0.2317 -1.2434,-1.0553 -0.3663,-1.3332zm-17.9947 0.0521c0.861,-0.5077 1.3885,0.8497 0.6219,1.2293 -0.5916,0.2929 -1.1528,-0.2558 -0.9426,-0.8922 0.0794,-0.2405 0.1337,-0.2268 0.3207,-0.3371zm13.3267 -2.399c0.8288,-0.3858 1.3557,0.9665 0.5025,1.2932 -0.8512,0.326 -1.3886,-0.8807 -0.5025,-1.2932zm-8.655 0.0116c0.8663,-0.4184 1.2873,0.969 0.5323,1.267 -0.4027,0.1589 -0.8021,0.0401 -0.9307,-0.3699 -0.1491,-0.4756 0.0817,-0.7441 0.3984,-0.8971zm4.2652 -1.1781c0.8705,-0.3271 1.3632,0.9376 0.5432,1.2846 -0.9157,0.3876 -1.3354,-0.9868 -0.5432,-1.2846zm-0.8082 34.4016c0.0359,-1.0795 0.0264,-2.2664 0.0029,-3.3495 -0.0282,-1.3023 -0.66,-1.3701 -1.5534,-1.8711 -3.4732,-1.9478 -2.6112,-5.6808 -4.8734,-8.6379 -0.7031,-0.919 -2.1184,-1.7987 -3.4273,-1.5224l-1.3396 0.369c-0.1256,-0.8826 2.663,-3.6723 5.7956,-3.0945l1.107 0.2506c-0.1314,-2.4741 -0.635,-4.6685 -2.3076,-6.4068 -0.4342,-0.4513 -0.1968,-0.0623 -0.5311,-0.7131 0.6508,-0.1843 1.5744,0.126 2.1291,0.3693 0.7748,0.3397 1.0005,0.5708 1.6439,1.0669 0.2875,-2.3812 1.3437,-7.6431 4.533,-7.449 1.64,0.0999 2.6135,1.5798 3.1412,2.8626l1.1229 4.9198c0.3045,-0.3842 1.1341,-1.1552 1.5851,-1.3102l2.3156 -0.3992c-0.0536,0.212 -1.7336,1.6168 -2.0987,2.893l-0.8508 4.1411c1.4787,-0.2183 2.6329,-0.5633 4.3415,0.2528 0.6657,0.318 1.1091,0.6588 1.5811,1.0478l1.0365 1.5582c-0.7666,0.0709 -2.5837,-1.4726 -4.8234,1.0938 -2.0635,2.3644 -1.2463,6.6942 -4.8917,8.7353 -0.9034,0.5059 -1.586,0.5246 -1.5946,1.8437l0.047 3.3813c4.8911,-0.0911 9.7314,-2.3799 12.9576,-5.5281 0.6542,-0.6384 1.5642,-1.7299 2.0968,-2.5062 2.0252,-2.9518 3.5414,-6.7589 3.2666,-10.6494 -0.2154,-3.0495 -0.7539,-4.9608 -1.9288,-7.3231 -0.4815,-0.968 -1.1763,-2.0758 -1.7751,-2.8257 -0.6784,-0.8497 -1.4858,-1.8176 -2.2063,-2.4562 -1.8356,-1.6267 -3.1606,-2.6356 -5.5777,-3.6863 -2.2589,-0.9818 -4.8822,-1.5898 -7.6864,-1.5771 -5.7687,0.0262 -10.314,2.3051 -13.404,5.1227 -2.6395,2.4068 -5.8763,7.0567 -5.9809,12.5701 -0.0807,4.251 0.8924,7.3957 3.0963,10.6688 0.6179,0.9177 1.3577,1.7411 2.117,2.5439 1.7687,1.8702 4.3842,3.4759 7.0741,4.4574 1.5823,0.5773 4.1615,1.1157 5.86,1.1577z"/>
    <path id="_351541816" class="fil0" d="M22.1647 28.6749c0.22,-0.391 0.397,-1.0905 0.5464,-1.5869 0.1674,-0.5564 0.3598,-1.1012 0.5939,-1.6236 0.1409,-0.3142 0.9638,-1.9624 1.4281,-1.7919l0.6349 0.5333c-0.0512,0.2704 -0.5474,0.9836 -0.7684,1.5996 -0.9654,2.6909 -0.4706,2.7278 -2.1655,4.8904 1.0165,-0.1959 1.7793,-0.9319 2.2743,-1.5536 1.1301,-1.4192 1.027,-3.3906 2.1674,-5.3642 0.6285,-1.0877 0.8577,-1.1916 1.7226,-2.0047l-1.717 -0.1449c0.2534,-0.3822 1.2582,-0.9828 1.8725,-1.2398l2.623 -0.4917c-0.7951,-0.6583 -2.9551,-0.3743 -3.9655,-0.0022 -1.0593,0.3901 -2.211,1.0469 -2.9615,1.8721 -1.4899,1.6381 -2.9514,4.0363 -2.4326,6.4134 0.0369,0.169 0.0722,0.3787 0.1474,0.4947z"/>
    <path id="_768559432" class="fil0" d="M37.5794 39.2053c0.0391,-0.2766 0.2065,-1.5328 0.4492,-1.7434l0.3993 1.5034 -0.8485 0.24zm-1.824 3.0826c0.257,0.0731 0.9588,-0.1285 1.0974,-0.2292 0.1951,-0.1418 0.2478,-0.7523 0.2936,-1.0097 0.1036,-0.5822 0.0303,-0.6229 0.5409,-0.7717 0.3413,-0.0994 0.7047,-0.2906 1.0341,-0.2985l0.458 1.3483 1.0716 -0.3852 -1.7021 -5.7481c-1.3588,0.414 -1.2019,0.2489 -1.4117,1.117 -0.243,1.0059 -1.4147,5.5839 -1.3818,5.9771z"/>
    <path id="_768573472" class="fil0" d="M11.9186 40.0729l0.0039 -1.4226c0.5432,-0.0289 0.9859,0.2082 1.0664,0.6984 0.1661,1.012 -0.817,0.7453 -1.0703,0.7242zm1.4492 1.1081c0.2956,-0.3945 0.5525,-0.3907 0.6586,-1.0232 0.0861,-0.5136 0.0004,-1.0693 -0.1756,-1.4813 -0.412,-0.964 -1.0916,-0.9659 -2.1434,-1.2045 -1.012,-0.2296 -0.9678,-0.5533 -0.9236,2.1549 0.0082,0.5054 -0.0619,2.955 0.0243,3.2209l1.052 0.2279 0.0281 -1.8677 0.5307 0.5705c0.2002,0.3327 0.2675,1.4079 0.7329,1.543 0.2304,0.0668 0.7499,0.1477 0.9778,0.1133l-0.7618 -2.2538z"/>
    <path id="_768562312" class="fil0" d="M21.1891 30.456c0.0104,-0.3086 -0.4019,-2.9024 -0.4939,-3.3334 -0.2434,-1.1403 -0.5857,-1.911 -1.146,-2.7544 -0.504,-0.7585 -1.1626,-1.4113 -1.9421,-1.9402l-2.7822 -1.1362c0.3442,0.3033 0.6388,0.5887 0.9712,0.9142 0.1786,0.1749 0.3109,0.3082 0.4816,0.4727 0.6674,0.6431 1.5257,1.9928 1.9755,2.9275 0.4445,0.9238 0.7083,1.8567 1.1586,2.7288 0.4249,0.8229 0.9972,1.6177 1.7773,2.121z"/>
    <path id="_768561160" class="fil0" d="M31.4999 40.1766l-0.0004 -1.4462c0.5698,-0.2254 1.1493,-0.2322 1.0824,0.5979 -0.0477,0.5922 -0.524,0.7836 -1.082,0.8483zm2.1363 2.6143c0.0119,-0.4674 -0.6186,-1.3473 -0.6976,-1.8742 -0.0415,-0.2768 0.2904,-0.5082 0.4467,-0.8287 0.4521,-0.9268 0.2756,-2.6007 -0.8178,-2.6371 -0.3456,-0.0116 -1.9239,0.3347 -2.141,0.4534l-0.042 5.1319 0.0924 0.2408 1.0036 -0.1236 0.0122 -1.1357c0,-0.5382 -0.1538,-0.7757 0.366,-0.7799l0.7153 1.7246 1.0622 -0.1715z"/>
    <path id="_768563440" class="fil0" d="M7.8602 40.0453c-0.2641,-1.8593 1.0929,-2.5915 1.2705,-0.5971 0.0448,0.5032 -0.0009,1.5165 -0.3505,1.7454 -0.5577,0.3652 -0.8585,-0.7152 -0.92,-1.1483zm0.1487 -3.062c-2.1082,0.7353 -1.3851,6.0936 0.9765,5.5414 1.4463,-0.3382 1.6,-3.6232 0.5643,-4.9269 -0.2603,-0.3276 -0.8342,-0.8609 -1.5408,-0.6145z"/>
    <path id="_353526840" class="fil0" d="M27.8233 39.4247c0.4183,-0.1271 1.0181,-0.1601 1.4851,-0.2486 0.6323,-0.1198 0.6093,-0.6587 0.4046,-1.1177l-1.5673 0.2105c-0.4018,0.0636 -1.2723,0.0468 -1.4454,0.3906 -0.0726,0.1442 -0.0328,2.2763 -0.0335,2.4617 -0.0018,0.4904 -0.0774,2.3577 0.0319,2.6342l1.5771 -0.1001c1.8678,-0.1765 1.5246,-0.0588 1.5166,-1.1999l-1.9772 0.1296 -0.0116 -0.9579c1.2182,-0.2246 1.8367,-0.1173 1.6116,-1.0141 -0.0873,-0.3477 -0.1497,-0.2146 -1.5876,-0.1344l-0.0043 -1.0539z"/>
    <path id="_768574120" class="fil0" d="M4.7966 36.1835c-0.0035,0.6445 -0.0546,4.2947 -0.0145,4.9367 0.0299,0.4794 0.4053,0.4623 1.1021,0.629l0.0438 -5.118 1.1946 -0.1124c0,-0.6196 0.0385,-0.7643 -0.468,-0.9366l-2.9545 -0.9678c-0.1293,0.3024 -0.1461,0.9339 0.0856,1.1559 0.212,0.2031 0.7388,0.3036 1.0109,0.4132z"/>
    <path id="_768558832" class="fil0" d="M17.953 38.9144c-0.0602,-0.5367 -0.6807,-0.4353 -1.7225,-0.5799 -2.016,-0.2796 -1.9795,-0.5463 -1.8814,0.6977l1.165 0.3215 0.0757 4.2599 1.0173 0.087c0.0878,-0.2379 0.0703,-0.2088 0.0673,-0.4856l-0.0057 -1.5559c-0.0031,-0.7024 0.0012,-1.4071 -0.0033,-2.1078l1.1382 0.0274c0.1942,-0.1512 0.1843,-0.3527 0.1494,-0.6643z"/>
    <path id="_768559600" class="fil0" d="M23.3898 43.2132c-0.0003,0.1331 -0.0154,0.366 -0.0044,0.486 0.0211,0.2302 0.0062,0.2493 0.2131,0.2937 0.1084,0.0233 2.2959,-0.0616 2.6081,-0.219l-0.0624 -0.9497 -1.584 0.0301c-0.0758,-1.3453 -0.0728,-2.6936 -0.0933,-4.0407l-0.9873 0.0372c-0.1224,1.4991 -0.0802,2.8202 -0.0898,4.3624z"/>
    <path id="_768564232" class="fil0" d="M21.3279 38.8432c-0.0732,-0.0293 -0.8988,-0.1835 -1.0135,0.0782 -0.0541,0.1233 -0.0233,3.1149 -0.0247,3.3952 -0.0094,1.8767 -0.1571,1.6894 0.6189,1.6891 0.5349,-0.0002 1.7325,0.0794 2.0894,-0.0705l-0.0597 -0.947 -1.4983 -0.052 -0.1121 -4.093z"/>
    <path id="_768569320" class="fil0" d="M34.2581 42.6527c0.24,0.0501 0.9002,-0.0937 1.0166,-0.2605 0.1386,-0.1988 0.064,-0.9894 0.0627,-1.271 -0.0151,-1.4184 0.0478,-3.0744 -0.0955,-4.47l-0.9754 0.2456c-0.0495,2.2191 -0.0473,3.5442 -0.0084,5.7559z"/>
    <path id="_768570256" class="fil0" d="M18.483 38.6927c-0.1099,0.3768 -0.1254,4.6038 -0.0463,5.1423l1.0779 0.0762 -0.0397 -5.1428 -0.9919 -0.0757z"/>
    <path id="_768559480" class="fil0" d="M12.2139 19.8617c1.9138,-0.2106 2.7749,0.0922 4.3869,0.7138 0.0181,-0.7234 0.0677,-0.7723 -0.5441,-1.0225 -1.3986,-0.5721 -3.4465,-0.2982 -3.8428,0.3087z"/>
    <path id="_351163984" class="fil0" d="M21.6038 18.1837c-0.297,0.0878 -0.4217,0.0882 -0.5743,0.3443 -0.381,0.6398 0.1066,1.6014 1.0611,1.3456 1.0254,-0.2749 0.6274,-2.0195 -0.4868,-1.6899z"/>
    <path id="_768573616" class="fil0" d="M24.0751 13.555c-1.1332,0.3697 -0.5493,2.07 0.5949,1.6716 1.059,-0.3688 0.5622,-2.049 -0.5949,-1.6716z"/>
    <path id="_353731752" class="fil0" d="M19.0783 18.1851c-1.1912,0.3026 -0.7534,1.9717 0.4522,1.7032 1.0873,-0.2421 0.7062,-1.9974 -0.4522,-1.7032z"/>
    <path id="_763754200" class="fil0" d="M21.521 13.5624c-1.0932,0.32 -0.6184,2.0603 0.5914,1.6697 1.0254,-0.331 0.6124,-2.0221 -0.5914,-1.6697z"/>
    <path id="_768574600" class="fil0" d="M19.0856 13.5697c-1.1409,0.3207 -0.6939,2.0654 0.5765,1.6702 0.9373,-0.2915 0.6249,-2.0079 -0.5765,-1.6702z"/>
    <path id="_768568672" class="fil0" d="M18.9466 15.8976c-1.0896,0.4747 -0.423,2.074 0.7328,1.6349 0.9545,-0.3625 0.3915,-2.1247 -0.7328,-1.6349z"/>
    <path id="_353517528" class="fil0" d="M24.0865 15.8945c-0.2431,0.0862 -0.3584,0.1248 -0.484,0.3574 -0.1185,0.2195 -0.1686,0.4923 -0.0899,0.7528 0.1101,0.3642 0.5995,0.7345 1.1936,0.5257 1.0083,-0.3543 0.5541,-2.0521 -0.6197,-1.6359z"/>
    <path id="_353519736" class="fil0" d="M24.0371 18.2365c-1.1475,0.5062 -0.3289,2.0301 0.6924,1.5914 1.0968,-0.4712 0.435,-2.0886 -0.6924,-1.5914z"/>
    <path id="_353519184" class="fil0" d="M21.5464 20.5247c-1.138,0.2958 -0.6382,2.018 0.543,1.6808 0.9993,-0.2853 0.6802,-1.9988 -0.543,-1.6808z"/>
    <path id="_353519760" class="fil0" d="M21.5265 15.8973c-1.0686,0.3131 -0.6524,2.0274 0.5874,1.6349 1.0108,-0.3201 0.6203,-1.9888 -0.5874,-1.6349z"/>
    <path id="_37009080" class="fil0" d="M4.0731 31.6773c0.0853,0.3526 0.2324,0.2529 0.3752,0.5106l0.0148 0.7729c0.767,-0.0471 0.0354,-0.3224 1.3537,0.0288 -0.0372,-0.9084 -0.1445,-0.594 0.4399,-1.2894 -0.7805,-0.3829 -0.3532,0.1538 -1.1269,-0.7695 -0.8211,1.006 -0.4284,0.3512 -1.0567,0.7466z"/>
    <path id="_351164584" class="fil0" d="M37.7704 31.6773c0.0237,0.3256 0.2251,0.3071 0.354,0.5399l0.0238 0.7553c0.6624,0.0238 -0.0896,-0.3157 1.3379,-0.0205 0.007,-0.8096 -0.1905,-0.4532 0.4201,-1.2713 -0.6695,-0.3798 -0.2823,0.2496 -1.1117,-0.7632 -0.695,0.9264 -0.1649,0.3275 -1.0241,0.7598z"/>
    <path id="_353741880" class="fil0" d="M21.4679 11.2996c-0.275,0.1122 -0.3176,0.1026 -0.451,0.3985 -0.3737,0.829 0.4203,1.4705 1.1456,1.2027 1.0156,-0.3749 0.4599,-2.0723 -0.6946,-1.6012z"/>
    <path id="_353525880" class="fil0" d="M21.5216 9.0156c-1.063,0.3132 -0.6559,1.9839 0.6157,1.5998 1.0282,-0.3106 0.578,-1.9517 -0.6157,-1.5998z"/>
    <path id="_353525664" class="fil0" d="M24.0114 11.2754c-1.0088,0.2979 -0.5964,2.0212 0.5523,1.6443 1.0188,-0.3343 0.5875,-1.9809 -0.5523,-1.6443z"/>
    <path id="_353525568" class="fil0" d="M21.5144 6.7969c-1.0379,0.3576 -0.466,1.9242 0.6706,1.5382 0.9591,-0.3257 0.5464,-1.9575 -0.6706,-1.5382z"/>
    <path id="_353524944" class="fil0" d="M19.1832 11.2874c-0.7867,0.2811 -0.6416,2.0546 0.597,1.6198 0.9317,-0.3271 0.5076,-2.0146 -0.597,-1.6198z"/>
    <path id="_353524488" class="fil0" d="M18.9302 20.5421c-0.3449,0.1485 -0.7948,0.6476 -0.4015,0.9599 0.198,0.1574 0.295,0.1894 0.4714,0.3648 0.2118,0.2106 0.2956,0.2996 0.6356,0.2195 1.0168,-0.2396 0.4134,-2.026 -0.7055,-1.5442z"/>
    <path id="_353524224" class="fil0" d="M19.5918 9.1298c-0.2034,0.1329 -0.4845,0.6692 -0.4584,0.9669 0.0327,0.372 0.4906,0.6085 0.9321,0.4066 0.9772,-0.4468 0.2508,-1.847 -0.4737,-1.3735z"/>
    <path id="_353523984" class="fil0" d="M23.664 9.1282c-0.8077,0.4378 -0.2978,1.7 0.5651,1.4328 0.4367,-0.1352 0.3986,-0.5386 0.2523,-0.9256 -0.1403,-0.3714 -0.3111,-0.7816 -0.8174,-0.5072z"/>
    <path id="_353523864" class="fil0" d="M21.2681 24.3017c0.1447,-0.1936 0.2269,-0.4152 0.3425,-0.6471 0.111,-0.2225 0.3194,-0.4399 0.3137,-0.704 -0.9332,-0.3087 -1.2535,0.9086 -0.6562,1.3511z"/>
   </g>
  </g>
 </g>
</svg>
