<?xml version="1.0" encoding="UTF-8"?>
<!DOCTYPE svg PUBLIC "-//W3C//DTD SVG 1.1//EN" "http://www.w3.org/Graphics/SVG/1.1/DTD/svg11.dtd">
<!-- Creator: CorelDRAW 2017 -->
<svg xmlns="http://www.w3.org/2000/svg" xml:space="preserve" width="215.9mm" height="279.4mm" version="1.1" style="shape-rendering:geometricPrecision; text-rendering:geometricPrecision; image-rendering:optimizeQuality; fill-rule:evenodd; clip-rule:evenodd"
viewBox="0 0 21590 27940"
 xmlns:xlink="http://www.w3.org/1999/xlink">
 <defs>
  <style type="text/css">
   <![CDATA[
    .fil0 {fill:#292929}
   ]]>
  </style>
   <clipPath id="id0">
    <rect x="5207.31" y="7693.9" width="11613.59" height="11223.64"/>
   </clipPath>
 </defs>
 <g id="Capa_x0020_1">
  <metadata id="CorelCorpID_0Corel-Layer"/>
  <g style="clip-path:url(#id0)">
   <image x="5207.31" y="7693.9" width="11613.59" height="11223.64" xlink:href="i-love-anal_Images\i-love-anal_ImgID1.png"/>
  </g>
  <path class="fil0" d="M13903.66 12913.64c-35.98,87.32 25.65,67.36 -39.62,179.82 -30.81,53.08 -54.46,88.79 -92.84,147.73l-257.11 475.51c-27.6,55.21 -47.35,110.76 -79.24,176.85 -145.84,302.22 -210.75,402.89 -327.74,715.59 -48.24,128.97 -102.1,243.03 -62.69,366.7 57.79,181.37 43.16,259.55 140.95,294.8 16.31,5.88 32.41,9.03 59.92,11.56 89.74,8.27 378.59,-19.93 495.2,-26.59 202.24,-1.11 457.43,-34.18 616.65,-150.95 83.94,-61.57 149.19,-148.65 155.95,-244.56 6.32,-89.83 -26.67,-92.99 -69.05,-138.36 -53.81,-57.62 -33.53,-70.61 -64.1,-134.97 -211.67,-13.7 -141.82,-18.08 -315.65,32.37 -82.4,23.92 -182.53,71.9 -288.95,72.28 5.52,-107.97 155.23,-304.55 211.1,-384.07 37.21,-52.95 15.05,-38.2 43.32,-95.64 18.55,-37.68 42.51,-56.75 60.42,-91.11 205.21,-393.8 623.74,-950.69 744.8,-1344.83 27.08,-88.17 65.67,-164.55 22.64,-255.25 -86.72,-182.81 -438.02,-51.29 -576.18,17.6 -54.38,27.12 -55.17,23.24 -98.83,55.82 -220.48,164.51 -167.41,331.18 -278.95,319.7zm2581.18 -1477.57c34.45,50.17 60,157.23 81.46,221.88 14.15,42.65 25.73,71.81 35.28,135.28 15.55,103.32 95.95,317.17 100.56,392.91l50.3 303.02 31.99 291 18.01 39.46c1.21,4.68 2.59,9.49 3.66,14.89 2.32,11.64 4.5,53.06 5.17,66.84 2.5,51.23 4.99,102.97 6.35,154.27 2.53,95.05 2.76,192.8 -2.46,285.83 -12.68,225.93 51.61,344.41 -71.21,481.28 61.51,48.77 18.23,-11.05 54.45,51.14 -25.21,86.57 -56.72,532.9 -117.64,612.51l-90.43 400c-22.32,75.5 -52.76,115.59 -70.26,169.21 -12.61,38.62 -8.19,52.39 -21.65,95.29 -8.78,27.96 -25.58,66.51 -30.43,91.92 -3.62,79.29 -109.44,306.3 -149.67,372.77 -17.74,29.3 -2.86,13.43 -28.21,35.6 -39.62,137.9 -93.42,163.32 -112.97,196.73 -20.54,35.08 -29.2,91.99 -50.33,126.07l-60.68 94.98c-19.98,51.48 -24.73,56 -58.9,106.02 -32.07,46.95 -31.6,70.38 -65.11,119.48 -34.81,28.2 -117.37,167.37 -157.73,220.52 -53.22,70.09 -131.47,195.42 -190.52,230.66 -6.54,24.51 -251.89,321.12 -322.38,364.06 -17.76,10.82 -17.58,9.27 -33.19,19.89 -0.86,0.59 -30.94,24.07 -31.66,24.73 -73.85,-11.92 -31.29,7.73 -68.19,-35.26 -19.02,27.02 -25,37.82 -45.39,61.93 71.74,37.93 38.22,-19.9 67.18,55.8 -47.14,32.93 -218.64,204.57 -256.08,237.5 -47.52,41.8 -83.96,73.32 -129.29,109.11 -209.68,165.54 -340.45,270.31 -574.51,414.42 -3.15,1.94 -7.27,4.77 -10.39,6.72l-65.59 35.12c-74.71,31.43 -41.67,-28.13 -70.96,54.13 -50.42,76.35 -237.92,101.73 -295.8,72.02 -14.14,18.4 1.54,6.97 9.94,77.77 -133.45,-17.62 -11.34,-49.92 -115.92,-21.62 -30.94,8.38 -79.89,22.88 -81.63,50.12 9.08,-2 50.89,-48.91 119.34,-0.08 -17.75,65.32 21.78,36.98 -122.45,102.43l-149.44 59.88c-55.52,-1.4 -302.47,114.72 -393.31,143.13 -489.3,153.01 -818.2,263.96 -1356.28,310.45 -745.94,64.45 -1388.29,24.84 -2030.46,-128.43 -253.57,-46.94 -292.23,-96.13 -401.28,-115.57 -162.73,-29.02 -603.53,-203.72 -737.62,-278.51 -147.21,-82.12 -220.4,-83.1 -415.5,-214.91l-1107.43 -827.06c-32.31,-14.76 -120.55,-100.68 -146.87,-142.5 19.82,-59.43 10.55,-42.62 51.08,-68.11 -164.32,-80.63 15.09,145.99 -244.49,-123.09 -32.1,-33.28 -70.04,-63.21 -89.39,-118.38 -10.93,-31.18 -2.56,-13.31 -10.37,-40.13l-56.12 -111.7c-76.15,-82.91 -95.95,36.28 -325.26,-353.4l-59.56 -100.22 -50.53 -67.17c-24.62,-52.33 0.84,-36.07 -34.64,-88.06 -67.83,-99.39 12.68,55.8 -21.17,-28.41 -18.28,-45.49 -9.12,-27.19 6.19,-76.64 -73.37,-8.73 -55.07,8.05 -98.49,-61.85l-48.79 -88.14c-4.96,-62.52 -34.87,-60.42 -67.33,-121.19l-242.58 -591.72c-16.98,-50.58 -9.44,-23.87 -23.22,-78.52 -21.09,-83.59 -116.13,-305.91 -133.49,-432.1l-108.91 -587.25c-24.25,-222.11 -30.86,-68.93 17.42,-205.04 -59.43,-118.8 -75.27,-76.78 -78.28,-340.52 -1.59,-139.37 -8.03,-303.94 2.18,-441.19 8.19,-110.13 22.73,-270.36 39.91,-393.27 11.15,-79.75 17.24,-115.36 24.57,-205.54 5.59,-68.73 25.73,-95.29 30.8,-167.57l77.22 -347.61c8,-29.35 10.22,-30.44 18.31,-50.75l10.78 -24.42c33.1,-92.7 82.84,-382.94 152.13,-445.06 -4.07,-100.46 211.85,-522.62 255.92,-611.11 53.37,-107.15 261.14,-482.77 320.14,-539.19 37.19,-83.78 61.3,-98.66 98.99,-131.46l150.51 -210.56c24.98,-36.79 -5.6,-6.36 27.57,-32.23 9.21,-27.15 60.61,-89.87 95.58,-99.74 70.71,-147.73 53.92,-93.71 124.3,-165.42 54.4,-55.44 -19,-13.95 51.68,-57.86 17.54,-28.77 101.19,-120.76 141.06,-156.1 154.51,-136.93 256.51,-269.03 484,-435.4 78.51,-57.41 366.75,-282.65 446.64,-320.58 102.99,-48.9 50.72,-60.13 306.05,-167.01 4.14,-19.67 -8.19,-23.24 63.66,-59.02l304.64 -147.68c58.89,-58.08 349.69,-170.68 425.34,-194.45l38.57 -14.1c63.7,-25.03 109.86,-44.42 168.2,-56.45 111.15,-54.43 759.83,-242.11 873.81,-219.1 96.89,-95.47 1043.05,-116.62 1223.09,-111.86 75.9,2 146.2,6.18 221.7,10.21 56.1,2.99 140.23,-8.4 185.71,22.94 152.4,-13.87 350.03,45.53 487.99,52.97 134.8,17.56 254.4,60.51 383.06,76.86 30.94,27.59 457.72,124.69 655.93,213.83 102.06,45.9 222.3,80.25 315.98,126.44 84.55,41.67 232.68,115.81 305.18,142.8 126.94,43.12 88.27,73.66 189.1,109.48 69.31,24.63 147.15,51.69 185.47,114.47 80.21,12.76 182.82,100.33 254.66,148.32 38.06,25.42 82.26,52.33 120.23,82.99 69.31,55.97 28.27,56.95 104.53,87.57 56.98,25.82 69.52,41.1 118.33,82.12 20.76,17.45 27.29,22.09 46.25,38.9l53.83 55.69c66.92,26.93 1.41,-2.17 62.34,64.59l156.68 119.4c75.4,55.05 159.67,154.52 213.43,211.57 75.55,80.19 346.05,333.39 383.69,439.4 209.38,144.42 56.63,307.45 54.12,313.69 84.86,15.37 3.23,-32.9 133.36,-77.62 48.75,64.28 47.98,55.72 91.37,144.04 23.43,47.68 118.34,115.06 186.42,305.14 14.41,40.26 173.3,249.65 266.95,485.56l142.1 370.18zm-11881.61 8336.05l12666.13 0 0 -12699.99 -12666.13 0 0 12699.99zm9904.56 -9529.76c-359.71,167.15 -499.52,99.51 -533.12,358.26 -28.13,216.65 -430.82,702.05 -548.6,1258.11 -16.88,79.74 -69.72,319.78 -60.25,394.2 6.77,53.25 47.48,101.66 108.64,118.75 81.94,22.9 110.75,-20.56 165.82,35.98l15.06 21.98c3.25,-2.84 7.72,-12.12 9.25,-9.05 1.52,3.04 7.31,-7.03 9.46,-8.67 101.79,-77.77 53.9,8.64 333.11,-61.8 180.53,-45.54 409.42,-129.03 473.34,-317.32l-46.91 -77.84c-13.71,-37.12 -7.64,-59.07 -22.11,-97.96 -167.94,0.17 -310.4,70.11 -478.23,18.01 -7.26,-93.93 65.32,-191.67 98.26,-251.56 74.57,-135.58 48.66,-117.52 212.56,-157.79 182.02,-44.73 365.98,-181.47 372.07,-375.19 -135.21,10.9 -182.6,46.49 -344.9,35.76 2.84,-264.43 304.94,-471.24 546.45,-491.37 51.13,-72.82 111.56,-81.88 164.87,-157.75 48.12,-68.49 93.26,-151.13 42.45,-239.72 -102.35,-123.24 -373.23,-6.73 -517.22,4.97zm-1747.23 1082.25c-34.09,-53.7 -10.89,-157.25 -7.56,-246.24 12.06,-322.94 65.04,-718.68 -207.32,-631.91 -181.37,57.77 -160.73,197.85 -199.07,384.28 -31.1,151.25 -21.64,381.81 -34.65,551.92 -11.92,155.77 -36.31,348.79 -54.01,520.6 -12.77,123.99 -90.47,399.7 24.11,478.85 143.31,98.98 359.88,-11.78 434.69,-94.29 82.31,-90.78 189.57,-261.45 246.13,-351.15 163.9,-259.94 504,-829.49 673.19,-1065.91 53.42,-74.64 216.4,-284.44 227.93,-356.85 33.43,-210.01 -215.75,-234.73 -363.97,-186.18 -164.66,53.93 -195.3,162.29 -280.04,298.07l-330.7 538.71c-45.47,74.76 -29.73,164.26 -128.73,160.1zm-1866.88 1001.17c-118.92,-108.02 -70.83,-249.36 -21.14,-384.25 54.51,-148.01 69.36,-113.13 104.55,-168.87 17.89,-28.33 22,-58.94 41.51,-94.22 86.61,-156.61 356.39,-587.72 490.41,-670.75 33.49,251.96 -154.75,724.98 -273.83,943.05 -46.01,84.26 -195.89,318.51 -287.4,359.29l-54.1 15.75zm790.97 -1875.2l-49.31 29.7c-23.46,34.77 7.47,16.64 -45.18,37.71 -43.06,17.24 -99.25,4.3 -151.86,4.96 -93.81,1.17 -108.71,4.89 -173.56,41.01 -59.15,32.94 -99.48,48.94 -143.49,75.81 -59.93,36.59 -68.23,70.62 -135.81,100.54 -37.49,55.83 -113.32,130.81 -172.29,207.96l-164.55 246c-19.9,43.25 -45.35,93.09 -68.69,134.8 -283.43,506.52 -461,1498.62 447.9,1272.22 104.18,-25.95 211.59,-76.44 279.86,-118.43 259.81,-159.76 580.75,-701.87 670.84,-971.74 68.41,-204.94 160.74,-459.8 135.13,-689.28 -15.1,-135.31 -62.34,-212.3 -91.89,-315.36 -139.85,-54.7 -152.96,-107.8 -337.1,-55.9zm-1550.89 1896.53c-84.16,-80.68 -47.02,-70.27 -97.34,-152.45 -225.1,-21.06 -294.9,90.14 -447.06,84.58 -1.07,-98.23 366.29,-660.85 437,-773.37 131.56,-209.36 230.65,-374.55 322.31,-599.97 58.87,-144.76 73.56,-60.3 39.74,-263.96 -164.64,-91.02 -332.95,-22.49 -470.31,55.63 -122.19,69.49 -172.8,214.25 -254.65,362.51l-427.02 816.43c-64.23,132.97 -134.14,289.05 -182.53,433.42 -44.23,131.97 -12.79,143.98 12.88,253.88 58.41,250 179.06,130.92 445.43,125.51 131.22,-2.66 291.67,-8.62 411.73,-54.12 56.99,-21.61 56.78,-20.97 101.01,-55.98 68.78,-54.43 110.16,-118.41 108.81,-232.11zm-3054.45 77.85c-22.47,110.1 -168.98,285.82 -96.96,409.04 4.44,3.17 11.95,0.31 14.89,6.77 17.49,38.41 0.71,-12.5 84.45,26.45 50.43,23.45 -18.52,-18.42 27.29,19.7 46.04,38.3 -48.82,-0.65 34.29,31.96 84.53,11.3 36.33,-34.98 169.76,-84.1 253.07,-93.16 223.69,-247.58 325.47,-443.77 73.72,-142.12 277,-683.79 329.33,-719.49 -2.65,-138.88 373.62,-763.64 311.07,-883.15 -168.47,-159.12 -280.81,76.32 -353.09,134.12 -68.03,54.4 -118.93,44.17 -179.79,110.67 -73.53,80.36 -265.35,489 -310.42,594.04l-137.61 306.64c-16.12,34.61 -29.46,65.81 -52.43,99.19 -85.18,-8.11 -84.54,-45.59 -136.12,33.86l79.27 21.29c4.27,1.62 10.28,4.76 13.75,6.18 3.52,1.43 9.77,3.47 13.76,6.63 -9.73,51.43 -119.02,315.36 -136.91,323.97zm5886.14 3132.54c-59.62,46.45 -111.64,32.03 -196.49,35.78 -80.53,10.16 -89.9,20.61 -136.46,-21.87 -36.74,57.61 -27.01,39.77 -115.97,49.89 -174,19.8 -907.56,107.76 -967.13,89.5 -19.04,14.69 -8.08,10.16 -39.65,22.64l-103.68 15.07c-140.38,10.91 -343.89,18.98 -467.47,44.14 -217.7,44.34 -415.97,44.73 -641.49,64.45 -65.84,11.52 -125.43,19.37 -190.73,29.41 -159.61,24.53 -154.94,-13.45 -184.4,-26.61 -51.56,21.05 -9.47,-4.02 -46.22,58.55 -136.46,8.02 -593.99,79.74 -665.85,64.28 -4.05,2.8 -9.72,5.29 -13.17,6.68 -3.49,1.41 -9.17,4.62 -13.57,6.21l-403.77 60.77c-370.02,42.65 -476.07,126.32 -781,201.96 -55.63,13.8 -166.83,23.94 -223.9,32.07 -77.48,11.04 -130.68,18.09 -215.87,39.08 -52.73,30.24 -5,-32.95 -198.72,61.56 -74.45,36.33 -141.01,25.71 -147.65,125.06 263.11,114.05 2462.74,-233.01 2965.36,-230.91 28.59,-23.09 472.43,-69.32 531.03,-75.97 90.14,-10.23 147.01,-22.25 185.67,34.2 97.97,-104.04 128.19,-61.25 276.4,-63.66 41.13,-0.66 55.51,-24.54 116.87,-35.3 56.74,-9.95 113.07,-5.32 169.7,-13.99 181.23,-27.75 473.45,-58.37 669.18,-67.52 149.12,-15.96 479.16,-69.64 624.56,-50.83 20.83,-15.36 1.47,-8.03 38.24,-18.29l848.93 -91.32 3.13 8.94 491.25 -93.38c113.94,-28.6 649.07,-202.29 676.19,-330.49 15.54,-73.43 3.7,61.57 0.44,-24.7 -3.25,-86.23 -418.45,-42.26 -486.68,-36.64 -105.5,8.69 -330.89,30.59 -444.87,48.53 -125.91,19.82 -826.02,104.72 -912.21,82.71zm-5062.02 -704.83c18.2,-136.38 308.6,-669.61 407.54,-818.12 27.63,-41.47 37.25,-61.43 88.5,-72.02 2.19,76.47 -77.9,352.42 -102.03,435.53 -42.24,145.49 -73.13,285.47 -103.94,427.75l-290.07 26.86zm402.04 -1652.24c-19.77,39.46 -86.84,104.94 -113.59,136.68 -100.71,119.49 -8.14,-34.8 -214.74,246.58 -15.33,20.88 -32.84,48.18 -49.63,68.3 -37.56,44.98 -9.02,22.52 -59.77,51.89l-388.5 575.11c-39.01,63.99 -83.09,129.24 -122.33,204.34l-343.98 625.74c-77.9,157.5 -292.27,602.81 -111.41,728.44 210.49,146.22 489.46,-147.38 596.35,-315.18 62.92,-98.76 48.09,-110.41 175.36,-144.8 86.88,-23.49 187.43,-65.24 244.74,-114.5 3.84,-3.31 13.66,-13.66 17.38,-16.95 55.43,-49.05 95.86,-72.77 178.77,-77.49 -5.14,87.03 -43.89,265.94 -63.81,314.52 -27.62,128.57 -61.65,194.09 82.6,233.43 136.85,37.31 152.23,69.12 358.86,-49.87 149.04,-85.82 77.86,-245.27 176.14,-343.67 -3.61,-65.79 386.89,-1457.14 429.24,-1630.14 46.21,-188.8 190.15,-381.39 -18.69,-490.88 15.11,-121.2 71.13,-193.04 -52.17,-257.38 -322.62,-168.36 -698.93,247.39 -720.82,255.83zm559.34 2156.61c-11.28,128.93 -47.15,58.48 -30.6,204.39 85.66,41.67 70.86,60.21 192.83,32.02 147.98,-34.21 223.18,-59.42 311.06,-173.74l84.35 -122.14c24.4,-38.63 32.1,-48.44 54.19,-66.87 25.91,-63.44 35.61,-49.1 55.4,-93.21 18.66,-41.59 10.07,-56.58 27.82,-91.45 26.85,-52.77 -4.6,7.25 29.84,-37.66 54.83,-71.49 137.97,-412.05 230,-468.99 41.33,70.02 54.67,391.28 58.85,510.8 7.86,224.51 -5.55,208.05 109.13,427.83 145.74,-6.49 220.23,-9.36 358.33,-89.12 281.65,-162.68 210.93,-206.09 318.23,-380.04 101.1,-163.9 89.51,-170.75 150.11,-329.21l87.68 -139.81c2.64,-94.84 376.18,-865.33 469.14,-1039.79 81.52,-152.97 177.51,-249.79 156.93,-430.06 -16.12,-141.17 58.36,-175.19 13.37,-257.1 -96.9,-124.52 -601.27,63.82 -756.4,372.95 -70.78,141.04 -121.8,260.39 -195.17,403.27 -33.34,64.92 -171.86,342.57 -224.69,361.82 -18.17,-53.17 -0.27,-325.32 -44.67,-542.56 -16.47,-80.57 -43.81,-155.23 -62.32,-223.61 -25.7,-94.94 -21.52,-163.54 -134.7,-178.94 -379.98,-51.7 -670.69,718.94 -795.01,1009.43 -77.35,180.75 -356.89,940.63 -402.04,1121.12l-61.66 220.67zm3180.22 -846.65c16.6,-115.59 182.7,-375.47 233.63,-478.82 33.51,-67.97 63.77,-173.51 101.93,-239.23 33.59,-57.86 103.78,-167.52 168.72,-178.92 -4.58,88.14 -41.53,148.22 -53.98,228.49l-99.21 428.4c-45.11,208.12 7.38,208.82 -351.09,240.08zm-1009.21 539.81c-6.72,43.31 -11.3,79.9 -24.21,118.19 -0.59,1.73 -15.05,35.92 -15.4,36.65 -15.72,32.59 -9.55,19.99 -21.52,36.57l-0.68 145.11 17.44 22.02c84.97,113.43 99.06,123.84 295.66,92.12 347.86,-140.04 324.1,-449.02 547.05,-481.98 236.8,-35.01 83.32,-50.82 269.52,-156.11 23.37,-13.22 141.8,-52.76 172.82,-54.72 -33.33,89.47 -26.05,145.45 -52.46,243.19 -27.9,103.27 -55.65,148.12 -33.74,272.38 139.6,75.05 243.32,83.23 427.06,17.84 86.25,-30.71 38.52,-26.57 99.31,-75.1 18.16,-126.82 25.71,-56.36 74.84,-229.41 18.86,-66.45 20.8,-38.81 33.73,-69.1 7.66,-17.93 14.13,-153.1 65.74,-290.45l169.72 -634.95c27.16,-110.55 61.11,-190.63 87.23,-299.82 26.22,-109.6 56.39,-227.79 81.65,-331.41 24.25,-99.51 58.63,-211.27 86.38,-305.97 52.36,-178.72 -7.93,-176.37 -95.71,-271.25l67.9 -136.63c-59.76,-41.91 -53.36,-36.42 -44.23,-113.78 -54.4,18.41 -62.2,26.3 -112.17,-19.62 -281,8 -227.7,-12.1 -444.62,101.28 -298.02,155.76 -902.06,1015.56 -1055.75,1265.17l-518.96 926.4c-31.43,71.79 -30.28,172.65 -76.6,193.38z"/>
 </g>
</svg>
