<?xml version="1.0" encoding="UTF-8"?>
<!DOCTYPE svg PUBLIC "-//W3C//DTD SVG 1.1//EN" "http://www.w3.org/Graphics/SVG/1.1/DTD/svg11.dtd">
<!-- Creator: CorelDRAW 2017 -->
<svg xmlns="http://www.w3.org/2000/svg" xml:space="preserve" width="5.5878mm" height="5.5878mm" version="1.1" style="shape-rendering:geometricPrecision; text-rendering:geometricPrecision; image-rendering:optimizeQuality; fill-rule:evenodd; clip-rule:evenodd"
viewBox="0 0 558.78 558.78"
 xmlns:xlink="http://www.w3.org/1999/xlink">
 <defs>
  <style type="text/css">
   <![CDATA[
    .str2 {stroke:#606062;stroke-width:4.1;stroke-linecap:round;stroke-linejoin:round;stroke-miterlimit:10}
    .str1 {stroke:#727376;stroke-width:2.05;stroke-linecap:round;stroke-linejoin:round;stroke-miterlimit:10}
    .str0 {stroke:#81504A;stroke-width:176.39;stroke-linecap:round;stroke-linejoin:round;stroke-miterlimit:10}
    .fil3 {fill:none}
    .fil1 {fill:none;fill-rule:nonzero}
    .fil2 {fill:#4B4B4D;fill-rule:nonzero}
    .fil0 {fill:#F7F2ED;fill-rule:nonzero}
   ]]>
  </style>
    <clipPath id="id0" style="clip-rule:nonzero">
     <path d="M326.42 12.32c0,0 0,0 0,0l0 0 -50.59 0.16 -2.37 0c0,0 0,0 0,0l0 0c-4.45,0 -14.82,0 -25.82,0l0 0 -14.82 0c0,0 -15.94,-0.49 -20.11,0l0 0c0,0 0,0 0,0l0 0c-0.21,-0.16 -1.81,-0.16 -4.18,-0.16l0 0c0,0 0.07,0 0.07,0l0 0 -16.28 0c-11.62,0.16 -23.94,0.16 -23.94,0.16l0 0 -0.7 0 0 13.14 0 9.9c0,0 0.07,5.36 0.91,7.14l0 0c0,0 0,0 0,0l0 0c0.34,1.14 0.41,4.71 0.41,4.71l0 0 0 0c-1.18,2.76 -1.32,9.57 -1.32,9.57l0 0c0,0 -1.39,24.34 1.18,27.1l0 0c2.02,2.11 1.95,3.25 1.19,4.87l0 0c-0.35,0.65 -0.63,1.13 -0.7,1.46l0 0 0 0c-0.07,0.16 -0.14,0.32 -0.21,0.49l0 0c0,0 0.14,-0.17 0.21,-0.17l0 0c-0.07,1.46 -0.07,4.55 -0.07,4.55l0 0c-1.11,2.43 -1.67,6.49 -1.6,9.57l0 0c0.14,4.06 0.77,10.06 1.05,12.17l0 0c-0.28,2.92 -0.91,11.04 -1.05,16.55l0 0c-0.07,4.38 0.63,10.71 1.95,13.8l0 0c0,0 0,0 0,0l0 0c0.84,2.92 0.21,4.21 0.21,4.21l0 0c-0.42,-0.16 -0.7,-0.16 -0.7,-0.16l0 0c1.4,3.73 2.37,5.36 -0.28,9.09l0 0c-2.57,3.57 -1.18,36.51 -1.18,36.51l0 0c0,0 0.07,7.14 0.98,11.36l0 0c0.07,0.65 0.2,1.13 0.41,1.62l0 0c0,0 0,0 0,0l0 0c0,0.16 0.07,0.16 0.07,0.33l0 0c1.74,4.38 0.28,8.43 0.28,8.43l0 0 0 0c-0.9,1.46 -1.67,3.25 -1.74,5.03l0 0c-0.14,3.25 0.91,8.44 -0.35,18.83l0 0c-1.11,8.92 -2.43,17.04 -0.62,20.93l0 0 0 0 2.09 8.76c0,0 -0.91,7.95 -1.12,13.15l0 0c-0.14,3.89 0.98,9.89 2.86,11.36l0 0 0 0c1.25,2.43 -1.4,2.43 -1.4,2.43l0 0c1.4,2.6 2.37,3.57 -0.28,6l0 0c-2.57,2.6 -1.18,24.67 -1.18,24.67l0 0c0,0 0.14,7.3 1.74,9.25l0 0c0,0 0,0 0,0l0 0c1.12,2.76 -0.14,6.81 -0.14,6.81l0 0c-1.46,2.27 -1.6,10.06 -1.6,10.06l0 0c0,0 -1.39,24.51 1.18,27.26l0 0c2.37,2.44 1.81,3.57 0.7,5.85l0 0c-0.21,0.48 -0.42,0.65 -0.42,0.81l0 0c0,0.81 0.42,3.73 0.42,3.73l0 0 0 0c-1.25,2.43 -1.95,6.98 -1.88,10.22l0 0c0.21,4.55 0.91,11.36 1.12,12.82l0 0 0.27 6.33 0 0c-0.41,0.32 -0.83,0.81 -1.39,1.3l0 0c-3.13,2.92 -1.67,12.01 -0.35,22.39l0 0c1.26,10.39 0.21,15.58 0.35,18.82l0 0c0.07,1.14 0.35,2.11 0.77,3.09l0 0c1.39,3.73 0.76,6.98 0.76,6.98l0 0 0 0c-1.39,2.43 -1.53,10.06 -1.53,10.06l0 0c0,0 -1.39,24.34 1.18,27.09l0 0c2.65,2.76 1.68,3.9 0.28,6.66l0 0c-0.07,0.81 0.56,3.57 0.56,3.57l0 0 0 0c-1.39,2.27 -2.16,7.14 -2.02,10.55l0 0c0.21,5.03 1.12,12.98 1.12,12.98l0 0 63.88 0c0,0 0,0 0,-0.17l0 0 2.5 0 50.46 0c-0.07,0 -0.07,0 -0.07,0l0 0 2.57 -0.16 38.14 0c0,0 13.43,0.49 18.86,0.33l0 0 0.83 0 3.55 -0.33 41.9 0 0 -12.98 0 -9.9c0,0 0,-0.16 -0.07,-0.16l0 0c0,0 0,0 0,0l0 0c-0.35,-1.14 -0.14,-3.89 -0.14,-3.89l0 0c0.21,-0.33 0.21,-0.82 0.21,-0.82l0 0c0,0 1.53,-6.81 0.07,-11.35l0 0c-1.47,-4.39 -0.63,-9.74 -0.07,-14.12l0 0c0.55,-4.55 -3.34,-15.74 -3.34,-17.04l0 0c-0.14,-1.79 1.81,-2.92 1.81,-2.92l0 0 0 0c0.07,-0.16 0.2,-0.16 0.27,-0.16l0 0c1.88,-1.14 0.7,-8.12 -0.48,-11.2l0 0c-1.12,-3.25 -0.7,-16.39 0,-23.04l0 0c0.76,-6.66 1.74,-17.2 1.74,-18.99l0 0c0,0 0,0 0,0l0 0c0,0 0,-0.16 0,-0.16l0 0c0,-0.97 -0.07,-2.27 -0.14,-2.76l0 0 0.14 0 0 -12.98 0 -10.06c0,-0.49 -0.35,-2.11 -0.63,-3.25l0 0c0.63,-0.64 0.63,-1.46 0.63,-1.46l0 0c0,0 1.53,-6.97 0.07,-11.36l0 0c-1.47,-4.54 -0.63,-9.73 -0.07,-14.27l0 0c0.48,-4.06 -2.72,-13.8 -3.27,-16.39l0 0c0.07,-0.17 0.07,-0.33 0.07,-0.49l0 0c0.13,-0.97 -0.28,-3.25 -0.28,-3.25l0 0 0 0c0.07,-0.16 0.14,-0.16 0.14,-0.32l0 0c0,-1.14 3.89,-12.5 3.34,-16.88l0 0c-0.56,-4.54 -1.4,-9.73 0.07,-14.28l0 0c1.46,-4.38 -0.07,-11.35 -0.07,-11.35l0 0c0,0 0,-0.17 -0.07,-0.33l0 0c0.07,-0.16 0.07,-0.32 0.07,-0.32l0 0c-0.14,-1.46 -0.21,-3.74 -0.21,-3.74l0 0 0 0c0.14,-0.16 0.21,-0.32 0.21,-0.32l0 0 0 -10.06 0 -12.98 0 0 -0.07 -2.6 0 0c0,-0.16 0.07,-0.16 0.07,-0.32l0 0c0,-1.79 -0.98,-12.34 -1.74,-18.99l0 0c-0.7,-6.65 -1.12,-19.8 0,-23.04l0 0c1.04,-2.76 2.08,-8.44 1.04,-10.55l0 0c0,0 0,0 0,0l0 0c-0.07,-1.13 -1.11,-2.92 -2.09,-4.38l0 0c0.35,-0.16 0.56,-0.32 0.56,-0.65l0 0c0,-1.62 3.9,-16.87 3.34,-22.88l0 0c-0.56,-6 -1.46,-13.14 0,-19.15l0 0c1.53,-6 0,-15.25 0,-15.25l0 0c0,0 0,-0.81 -0.35,-1.62l0 0c0,0 0,0 0,0l0 0c0,-0.81 -1.81,-4.22 -1.81,-4.22l0 0 0 0c0.77,-0.49 1.05,-1.62 1.05,-1.62l0 0 0 -13.47 0 -17.53 0 -11.84 0 -9.9 -0.35 -3.73 0 0c0.35,-0.49 0.35,-0.98 0.35,-0.98l0 0c0,0 1.53,-6.97 0.07,-11.52l0 0c-1.47,-4.38 -0.63,-9.73 -0.07,-14.12l0 0c0.48,-3.89 -2.37,-12.81 -3.14,-16.06l0 0c0,0 -0.06,-0.16 -0.06,-0.16l0 0c0,-0.16 0,-0.16 -0.07,-0.33l0 0c0,-0.16 0,-0.16 -0.07,-0.32l0 0c0,0 0,0 0,-0.16l0 0c-0.28,-2.11 0.27,-4.22 0.27,-4.22l0 0 0 0c2.09,-2.44 3.21,-13.47 3.07,-17.69l0 0c-0.21,-5.03 -1.12,-12.98 -1.12,-12.98l0 0 -63.88 0z"/>
    </clipPath>
 </defs>
<symbol id="Fm1-30-0" viewBox="2486.44 -18026.88 7785.95 8234.54">
 <path class="fil0" d="M6379.42 -17938.68c-2101.33,0 -3804.78,1312.3 -3804.78,2931.09 0,754.69 370.34,1442.72 978.53,1962.25 -1222.44,2575.46 1395.94,3164.81 1395.94,3164.81 -1372.06,-1618.65 -191.66,-2527.23 -191.66,-2527.23l397.69 176.18c384.21,100.54 795.97,155.11 1224.28,155.11 2101.32,0 3804.77,-1312.3 3804.77,-2931.12 0,-1618.79 -1703.45,-2931.09 -3804.77,-2931.09z"/>
 <path class="fil1 str0" d="M6379.42 -17938.68c-2101.33,0 -3804.78,1312.3 -3804.78,2931.09 0,754.69 370.34,1442.72 978.53,1962.25 -1222.44,2575.46 1395.94,3164.81 1395.94,3164.81 -1372.06,-1618.65 -191.66,-2527.23 -191.66,-2527.23l397.69 176.18c384.21,100.54 795.97,155.11 1224.28,155.11 2101.32,0 3804.77,-1312.3 3804.77,-2931.12 0,-1618.79 -1703.45,-2931.09 -3804.77,-2931.09z"/>
</symbol>
<symbol id="Fm5-38-0" viewBox="3639.14 -5302.26 2613.67 1521.46">
 <polygon class="fil2" points="4243.24,-5132.89 4083.85,-5132.89 4083.85,-4003.58 3798.56,-4003.58 3798.56,-5132.89 3639.14,-5132.89 3639.14,-5302.26 4243.24,-5302.26 "/>
 <path class="fil2" d="M4601.87 -4203.74l0 -643.89c0,-34.43 -14.82,-51.65 -44.34,-51.65 -30.24,0 -45.27,17.22 -45.27,51.65l0 643.89c0,35.63 15.03,53.44 45.27,53.44 29.52,0 44.34,-17.81 44.34,-53.44zm-347.77 -7.27l0 -629.39c0,-147.88 102.38,-221.86 307.06,-221.86 79.09,0 148.63,17.21 208.7,51.61 60.08,34.4 90.14,88.16 90.14,161.18l0 647.53c0,141.88 -99.59,212.83 -298.84,212.83 -204.68,0 -307.06,-73.94 -307.06,-221.9z"/>
 <path class="fil2" d="M5516.52 -4003.6l-258.09 0 0 -844.05c0,-32 -14.93,-47.98 -44.81,-47.98 -29.88,0 -44.87,15.38 -44.87,46.18l0 845.85 -258.09 0 0 -1051.45 258.09 0 0 35.35c34.54,-28.37 87.81,-42.55 159.81,-42.55 46.63,0 89.64,12.67 129.01,38 39.3,25.36 58.95,62.51 58.95,111.4l0 909.25z"/>
 <path class="fil2" d="M6252.81 -5055.04l-200.13 1045.99c-20.53,106.89 -48.12,171.63 -82.87,194.27 -34.68,22.65 -82.83,33.98 -144.43,33.98l-180.23 0 0 -141.29c67.63,0 109.57,-3.32 125.87,-9.95 16.34,-6.67 24.45,-26.28 24.45,-58.88 0,-32.59 -37.11,-202.56 -111.37,-509.87l-133.99 -554.25 258.31 0 107.63 555.38 85.05 -555.38 251.71 0z"/>
</symbol>
<symbol id="Fm2-32-0" viewBox="23917.21 -16526.74 2613.67 1521.46">
 <polygon class="fil2" points="25926.78,-15174.64 26086.16,-15174.64 26086.16,-16303.96 26371.46,-16303.96 26371.46,-15174.64 26530.88,-15174.64 26530.88,-15005.28 25926.78,-15005.28 "/>
 <path class="fil2" d="M25568.15 -16103.8l0 643.89c0,34.43 14.78,51.65 44.34,51.65 30.23,0 45.26,-17.22 45.26,-51.65l0 -643.89c0,-35.63 -15.03,-53.44 -45.26,-53.44 -29.56,0 -44.34,17.81 -44.34,53.44zm347.76 7.27l0 629.39c0,147.89 -102.37,221.86 -307.05,221.86 -79.1,0 -148.63,-17.21 -208.71,-51.61 -60.08,-34.39 -90.13,-88.16 -90.13,-161.18l0 -647.53c0,-141.88 99.59,-212.83 298.84,-212.83 204.68,0 307.05,73.95 307.05,221.9z"/>
 <path class="fil2" d="M24653.5 -16303.94l258.09 0 0 844.05c0,32 14.92,47.98 44.8,47.98 29.88,0 44.88,-15.38 44.88,-46.18l0 -845.85 258.09 0 0 1051.45 -258.09 0 0 -35.35c-34.54,28.37 -87.81,42.55 -159.81,42.55 -46.64,0 -89.64,-12.67 -129.01,-38 -39.3,-25.36 -58.95,-62.51 -58.95,-111.4l0 -909.25z"/>
 <path class="fil2" d="M23917.21 -15252.5l200.13 -1045.99c20.53,-106.89 48.11,-171.62 82.86,-194.27 34.68,-22.65 82.84,-33.98 144.43,-33.98l180.23 0 0 141.29c-67.62,0 -109.57,3.32 -125.87,9.95 -16.33,6.67 -24.44,26.28 -24.44,58.88 0,32.6 37.11,202.56 111.37,509.87l133.98 554.25 -258.3 0 -107.63 -555.38 -85.06 555.38 -251.7 0z"/>
</symbol>
<symbol id="Fm6-40-0" viewBox="2381.11 -6770.43 2613.67 1521.46">
 <polygon class="fil2" points="2985.2,-6601.06 2825.82,-6601.06 2825.82,-5471.75 2540.53,-5471.75 2540.53,-6601.06 2381.11,-6601.06 2381.11,-6770.43 2985.2,-6770.43 "/>
 <path class="fil2" d="M3343.84 -5671.91l0 -643.89c0,-34.43 -14.82,-51.64 -44.35,-51.64 -30.23,0 -45.26,17.21 -45.26,51.64l0 643.89c0,35.63 15.03,53.45 45.26,53.45 29.53,0 44.35,-17.82 44.35,-53.45zm-347.77 -7.26l0 -629.4c0,-147.88 102.37,-221.86 307.06,-221.86 79.09,0 148.62,17.22 208.7,51.61 60.08,34.4 90.13,88.16 90.13,161.19l0 647.52c0,141.89 -99.59,212.83 -298.83,212.83 -204.69,0 -307.06,-73.94 -307.06,-221.89z"/>
 <path class="fil2" d="M4258.48 -5471.77l-258.09 0 0 -844.05c0,-32 -14.92,-47.98 -44.8,-47.98 -29.88,0 -44.87,15.38 -44.87,46.18l0 845.85 -258.1 0 0 -1051.45 258.1 0 0 35.35c34.53,-28.37 87.8,-42.55 159.8,-42.55 46.64,0 89.64,12.67 129.01,38 39.3,25.36 58.95,62.51 58.95,111.4l0 909.25z"/>
 <path class="fil2" d="M4994.78 -6523.21l-200.13 1045.99c-20.54,106.89 -48.12,171.63 -82.87,194.27 -34.68,22.65 -82.83,33.98 -144.43,33.98l-180.23 0 0 -141.29c67.62,0 109.57,-3.32 125.87,-9.95 16.33,-6.67 24.45,-26.28 24.45,-58.88 0,-32.59 -37.12,-202.56 -111.38,-509.87l-133.98 -554.25 258.3 0 107.63 555.38 85.06 -555.38 251.71 0z"/>
</symbol>
<symbol id="Fm3-34-0" viewBox="25175.24 -15058.57 2613.67 1521.46">
 <polygon class="fil2" points="27184.81,-13706.47 27344.2,-13706.47 27344.2,-14835.79 27629.49,-14835.79 27629.49,-13706.47 27788.91,-13706.47 27788.91,-13537.11 27184.81,-13537.11 "/>
 <path class="fil2" d="M26826.18 -14635.63l0 643.89c0,34.43 14.78,51.65 44.34,51.65 30.24,0 45.26,-17.22 45.26,-51.65l0 -643.89c0,-35.63 -15.02,-53.44 -45.26,-53.44 -29.56,0 -44.34,17.81 -44.34,53.44zm347.77 7.27l0 629.39c0,147.88 -102.38,221.86 -307.06,221.86 -79.09,0 -148.63,-17.21 -208.7,-51.61 -60.08,-34.39 -90.17,-88.16 -90.17,-161.18l0 -647.53c0,-141.88 99.62,-212.83 298.87,-212.83 204.68,0 307.06,73.94 307.06,221.9z"/>
 <path class="fil2" d="M25911.53 -14835.77l258.09 0 0 844.05c0,32 14.93,47.98 44.81,47.98 29.88,0 44.87,-15.38 44.87,-46.18l0 -845.85 258.09 0 0 1051.45 -258.09 0 0 -35.35c-34.54,28.37 -87.81,42.55 -159.81,42.55 -46.64,0 -89.64,-12.67 -129.01,-38 -39.3,-25.36 -58.95,-62.51 -58.95,-111.4l0 -909.25z"/>
 <path class="fil2" d="M25175.24 -13784.33l200.13 -1045.99c20.53,-106.89 48.12,-171.62 82.87,-194.27 34.68,-22.65 82.83,-33.98 144.42,-33.98l180.24 0 0 141.29c-67.63,0 -109.57,3.32 -125.87,9.95 -16.34,6.67 -24.45,26.28 -24.45,58.88 0,32.6 37.11,202.56 111.37,509.87l133.99 554.25 -258.31 0 -107.63 -555.38 -85.05 555.38 -251.71 0z"/>
</symbol>
<symbol id="Fm0-28-0" viewBox="20019.87 -10516.22 7702.77 8146.45">
 <path class="fil0" d="M23871.26 -2457.97c2078.35,0 3763.18,-1297.94 3763.18,-2899.06 0,-746.44 -366.29,-1426.95 -967.84,-1940.8 1209.07,-2547.3 -1380.67,-3130.2 -1380.67,-3130.2 1357.07,1600.94 189.55,2499.57 189.55,2499.57l-393.31 -174.23c-380.02,-99.45 -787.26,-153.39 -1210.91,-153.39 -2078.36,0 -3763.19,1297.94 -3763.19,2899.05 0,1601.12 1684.83,2899.06 3763.19,2899.06z"/>
 <path class="fil1 str0" d="M23871.26 -2457.97c2078.35,0 3763.18,-1297.94 3763.18,-2899.06 0,-746.44 -366.29,-1426.95 -967.84,-1940.8 1209.07,-2547.3 -1380.67,-3130.2 -1380.67,-3130.2 1357.07,1600.94 189.55,2499.57 189.55,2499.57l-393.31 -174.23c-380.02,-99.45 -787.26,-153.39 -1210.91,-153.39 -2078.36,0 -3763.19,1297.94 -3763.19,2899.05 0,1601.12 1684.83,2899.06 3763.19,2899.06z"/>
</symbol>
<symbol id="Fm7-42-0" viewBox="2232.99 -3928.48 6566.83 2191.1">
 <path class="fil2" d="M3126.01 -3263.24l-370.17 0 0 -367.56c0,-30.2 -18.73,-45.26 -56.26,-45.26 -39.27,0 -58.92,15.06 -58.92,45.26l0 1287.78c0,30.2 19.65,45.26 58.92,45.26 37.53,0 56.26,-15.06 56.26,-45.26l0 -458.19 370.17 0 0 471.1c0,88.02 -43.18,158.54 -129.43,211.6 -86.25,53.05 -183.8,79.58 -292.49,79.58 -314.08,0 -471.1,-111.26 -471.1,-333.87l0 -1194.57c0,-240.74 157.02,-361.11 471.1,-361.11 281.27,0 421.92,109.61 421.92,328.72l0 336.52z"/>
 <path class="fil2" d="M4075.96 -2055.74l-368.86 0 0 -1211.4c0,-45.72 -20.71,-68.58 -62.13,-68.58 -42.26,0 -63.42,21.98 -63.42,66l0 1213.98 -368.83 0 0 -1855.89 368.83 0 0 398.6c43.92,-37.07 120.05,-55.67 228.49,-55.67 72.28,0 134.65,19.02 187.15,56.98 52.49,37.99 78.77,88.44 78.77,151.41l0 1304.57z"/>
 <path class="fil2" d="M4649.28 -2341.75l0 -920.22c0,-49.15 -21.13,-73.73 -63.39,-73.73 -43.15,0 -64.7,24.58 -64.7,73.73l0 920.22c0,50.9 21.55,76.37 64.7,76.37 42.26,0 63.39,-25.47 63.39,-76.37zm-496.99 -10.37l0 -899.48c0,-211.39 146.26,-317.08 438.75,-317.08 113.03,0 212.48,24.59 298.34,73.8 85.84,49.14 128.77,125.98 128.77,230.37l0 925.33c0,202.78 -142.38,304.17 -427.11,304.17 -292.49,0 -438.75,-105.69 -438.75,-317.11z"/>
 <path class="fil2" d="M5587.59 -2336.58l0 -930.55c0,-45.72 -21.13,-68.58 -63.39,-68.58 -43.15,0 -64.7,22.86 -64.7,68.58l0 933.13c0,44.02 21.55,66 64.7,66 42.26,0 63.39,-22.82 63.39,-68.58zm-128.09 245.89l0 353.31 -368.9 0 0 -1820.94 279.26 0 31.15 60.82c60.57,-47.45 132.39,-71.19 215.44,-71.19 83.92,0 161.54,21.17 232.9,63.43 71.4,42.26 107.11,103.12 107.11,182.49l0 1079.36c0,63.01 -25.97,113.45 -77.86,151.45 -51.9,37.96 -115.08,56.94 -189.44,56.94 -102.94,0 -179.53,-18.59 -229.66,-55.67z"/>
 <path class="fil2" d="M6531.08 -2336.58l0 -930.55c0,-45.72 -21.13,-68.58 -63.4,-68.58 -43.14,0 -64.7,22.86 -64.7,68.58l0 933.13c0,44.02 21.56,66 64.7,66 42.27,0 63.4,-22.82 63.4,-68.58zm-128.1 245.89l0 353.31 -368.9 0 0 -1820.94 279.26 0 31.15 60.82c60.58,-47.45 132.4,-71.19 215.45,-71.19 83.92,0 161.53,21.17 232.9,63.43 71.4,42.26 107.1,103.12 107.1,182.49l0 1079.36c0,63.01 -25.96,113.45 -77.86,151.45 -51.89,37.96 -115.07,56.94 -189.44,56.94 -102.94,0 -179.53,-18.59 -229.66,-55.67z"/>
 <path class="fil2" d="M7474.56 -2917.68l0 -344.27c0,-49.18 -20.7,-73.77 -62.12,-73.77 -42.26,0 -63.39,24.59 -63.39,73.77l0 344.27 125.51 0zm368.87 225.18l-494.38 0 0 350.73c0,50.94 21.13,76.38 63.39,76.38 41.42,0 62.12,-25.44 62.12,-76.38l0 -302.86 368.87 0 0 305.44c0,202.78 -144.53,304.16 -433.57,304.16 -286.49,0 -429.68,-105.65 -429.68,-317.07l0 -899.52c0,-211.34 143.19,-317.07 429.68,-317.07 289.04,0 433.57,101.42 433.57,304.16l0 572.03z"/>
 <path class="fil2" d="M8799.82 -2935.81l-368.86 0 0 -326.15c0,-45.72 -21.13,-68.58 -63.4,-68.58 -42.29,0 -63.39,21.98 -63.39,66.01l0 1208.79 -368.86 0 0 -1502.58 368.86 0 0 50.48c49.14,-40.54 125.1,-60.86 227.75,-60.86 73.35,0 136.32,19.69 188.95,58.92 52.64,39.26 78.95,90.8 78.95,154.62l0 419.35z"/>
</symbol>
<symbol id="Fm4-36-0" viewBox="21370.19 -18570.15 6566.83 2191.09">
 <path class="fil2" d="M27044 -17044.29l370.17 0 0 367.56c0,30.19 18.73,45.26 56.27,45.26 39.26,0 58.91,-15.07 58.91,-45.26l0 -1287.78c0,-30.2 -19.65,-45.26 -58.91,-45.26 -37.54,0 -56.27,15.06 -56.27,45.26l0 458.18 -370.17 0 0 -471.09c0,-88.02 43.18,-158.54 129.44,-211.6 86.25,-53.06 183.79,-79.59 292.48,-79.59 314.08,0 471.1,111.27 471.1,333.87l0 1194.58c0,240.73 -157.02,361.1 -471.1,361.1 -281.27,0 -421.92,-109.61 -421.92,-328.72l0 -336.51z"/>
 <path class="fil2" d="M26094.06 -18251.8l368.86 0 0 1211.4c0,45.72 20.71,68.58 62.12,68.58 42.27,0 63.43,-21.98 63.43,-66l0 -1213.98 368.83 0 0 1855.89 -368.83 0 0 -398.6c-43.92,37.08 -120.05,55.67 -228.49,55.67 -72.28,0 -134.66,-19.02 -187.15,-56.98 -52.49,-37.99 -78.77,-88.44 -78.77,-151.41l0 -1304.57z"/>
 <path class="fil2" d="M25520.73 -17965.78l0 920.22c0,49.14 21.13,73.73 63.4,73.73 43.14,0 64.7,-24.59 64.7,-73.73l0 -920.22c0,-50.91 -21.56,-76.38 -64.7,-76.38 -42.27,0 -63.4,25.47 -63.4,76.38zm497 10.37l0 899.48c0,211.38 -146.3,317.07 -438.75,317.07 -113.03,0 -212.48,-24.59 -298.35,-73.8 -85.83,-49.14 -128.76,-125.98 -128.76,-230.36l0 -925.34c0,-202.77 142.38,-304.16 427.11,-304.16 292.45,0 438.75,105.69 438.75,317.11z"/>
 <path class="fil2" d="M24582.42 -17970.96l0 930.56c0,45.72 21.14,68.58 63.4,68.58 43.14,0 64.7,-22.86 64.7,-68.58l0 -933.14c0,-44.02 -21.56,-66 -64.7,-66 -42.26,0 -63.4,22.82 -63.4,68.58zm128.1 -245.89l0 -353.3 368.9 0 0 1820.93 -279.26 0 -31.15 -60.82c-60.57,47.45 -132.4,71.19 -215.44,71.19 -83.93,0 -161.54,-21.17 -232.91,-63.43 -71.4,-42.26 -107.1,-103.12 -107.1,-182.49l0 -1079.36c0,-63.01 25.96,-113.45 77.86,-151.45 51.89,-37.96 115.07,-56.94 189.44,-56.94 102.94,0 179.49,18.6 229.66,55.67z"/>
 <path class="fil2" d="M23638.94 -17970.96l0 930.56c0,45.72 21.13,68.58 63.39,68.58 43.15,0 64.7,-22.86 64.7,-68.58l0 -933.14c0,-44.02 -21.55,-66 -64.7,-66 -42.26,0 -63.39,22.82 -63.39,68.58zm128.09 -245.89l0 -353.3 368.9 0 0 1820.93 -279.26 0 -31.15 -60.82c-60.57,47.45 -132.4,71.19 -215.44,71.19 -83.93,0 -161.54,-21.17 -232.9,-63.43 -71.41,-42.26 -107.11,-103.12 -107.11,-182.49l0 -1079.36c0,-63.01 25.97,-113.45 77.86,-151.45 51.89,-37.96 115.08,-56.94 189.44,-56.94 102.94,0 179.53,18.6 229.66,55.67z"/>
 <path class="fil2" d="M22695.45 -17389.86l0 344.28c0,49.17 20.71,73.76 62.13,73.76 42.26,0 63.39,-24.59 63.39,-73.76l0 -344.28 -125.52 0zm-368.86 -225.18l494.38 0 0 -350.73c0,-50.94 -21.13,-76.38 -63.39,-76.38 -41.42,0 -62.13,25.44 -62.13,76.38l0 302.86 -368.86 0 0 -305.43c0,-202.78 144.53,-304.17 433.56,-304.17 286.49,0 429.69,105.66 429.69,317.08l0 899.51c0,211.35 -143.2,317.08 -429.69,317.08 -289.03,0 -433.56,-101.43 -433.56,-304.17l0 -572.03z"/>
 <path class="fil2" d="M21370.19 -17371.73l368.87 0 0 326.15c0,45.72 21.13,68.58 63.39,68.58 42.3,0 63.39,-21.98 63.39,-66.01l0 -1208.79 368.87 0 0 1502.59 -368.87 0 0 -50.49c-49.14,40.54 -125.09,60.86 -227.75,60.86 -73.34,0 -136.31,-19.65 -188.95,-58.92 -52.63,-39.26 -78.95,-90.8 -78.95,-154.62l0 -419.35z"/>
</symbol>
 <g id="Capa_x0020_2">
  <metadata id="CorelCorpID_0Corel-Layer"/>
  <rect class="fil3" x="-0" y="-0" width="558.79" height="558.79"/>
  <g id="_2366065040560">
   <g style="clip-path:url(#id0)">
    <image transform="matrix(-6.95909 -0 -0 16.2269 398.236 -4.22935)" x="0" y="0" width="35.28" height="35.28" xlink:href="pared-de-ladrillos_Images\pared-de-ladrillos_ImgID1.png"/>
   </g>
   <g>
    <path class="fil1 str1" d="M391.14 533.21l0 -9.97c0,0 -0.42,-1.51 -1.87,-1.25 -1.45,0.26 -7.11,0.2 -9.04,-0.72 -1.94,-0.92 -7.19,-2.49 -9.05,-1.51 -1.87,0.98 -4.77,2.1 -8.84,3.15 -4.08,1.05 -9,0.15 -9.28,2.34 -0.27,2.18 0.37,11.89 -0.55,13.38 -0.92,1.49 -1.93,7.17 -3.41,7.61l42.04 0 0 -13.03z"/>
   </g>
   <g>
    <path class="fil1 str1" d="M346.89 523.5c0,0 2.67,-0.96 3.69,0.79 1.01,1.74 1.28,7.87 0.73,9.18 -0.55,1.31 -0.55,6.65 -1.29,8.05 -0.73,1.4 -1.1,4.11 -3.13,4.72 -2.02,0.61 -20.9,0 -20.9,0l-38.12 0c0,0 -1.29,-2.27 -1.15,-4.5 0.14,-2.23 -0.14,-6.64 -0.69,-8.9 -0.56,-2.26 -1.11,-3.31 0,-5.54 1.1,-2.23 0.69,-4.06 2.76,-5.38 2.07,-1.31 21.41,-1.96 26.38,-1.18 4.97,0.79 24.91,3.55 31.72,2.76z"/>
   </g>
   <g>
    <path class="fil1 str1" d="M285.34 521.3c0,0 -2.9,4.99 -2.49,8.01 0.42,3.01 1.49,6.29 1.43,8 -0.05,1.71 -1.15,6.01 1.06,8.98l-50.69 0c0,0 -3.32,-7.82 -4.15,-13.06 -0.82,-5.23 1.94,-6.81 0,-11.93 -1.93,-5.11 20.7,-4.06 27.34,-3.54 6.64,0.53 25.15,3.15 27.5,3.54z"/>
   </g>
   <g>
    <path class="fil1 str1" d="M232.44 546.51c0,0 -4.79,-11.14 -4.79,-14.72 0,-3.57 3.5,-8.18 0,-11.39 -3.5,-3.2 -20.44,3.1 -26.89,2.22 -6.44,-0.87 -25.78,1.58 -28.73,-0.52 -2.94,-2.1 -4.78,6.27 -4.6,11.36 0.18,5.08 1.1,13.05 1.1,13.05l63.91 0z"/>
   </g>
   <g>
    <path class="fil1 str1" d="M212.59 46.09c0,0 -3.22,-1.05 -4.23,-2.8 -1.01,-1.75 -1.67,-16.68 -1.12,-17.99 0.55,-1.32 0.55,-6.65 1.29,-8.05 0.74,-1.4 1.11,-4.11 3.13,-4.72 2.03,-0.62 20.9,0 20.9,0l38.12 0c0,0 1.29,2.27 1.15,4.5 -0.13,2.23 0.14,6.63 0.7,8.89 0.55,2.26 1.1,3.31 0,5.54 -1.11,2.23 -0.7,4.07 -2.77,5.38 -0.99,0.63 -7.81,0.46 -14.69,1.38 -7.56,1 -15.3,3.05 -17.9,2.64 -4.98,-0.79 -17.76,4.44 -24.58,5.23z"/>
   </g>
   <g>
    <path class="fil1 str1" d="M273.22 37.46c0,0 2.9,-4.98 2.48,-8 -0.41,-3.02 -1.48,-6.3 -1.43,-8 0.05,-1.71 1.16,-6.02 -1.05,-8.98l50.69 0c0,0 3.31,7.82 4.14,13.05 0.83,5.24 -3.87,11.59 -1.93,16.71 1.93,5.12 -18.17,-1.38 -33.14,0.18 -6.63,0.69 -17.42,-4.56 -19.76,-4.96z"/>
   </g>
   <g>
    <path class="fil1 str1" d="M326.12 12.25c0,0 4.78,11.15 4.78,14.72 0,3.57 -4.15,12.77 -0.65,15.97 3.5,3.2 23.66,0.72 30.1,1.59 6.45,0.88 23.42,-3.34 26.36,-1.24 2.95,2.1 4.6,-12.9 4.41,-17.98 -0.18,-5.09 -1.1,-13.06 -1.1,-13.06l-63.9 0z"/>
   </g>
   <g>
    <path class="fil1 str1" d="M391.14 518.51c0,0 0.04,2.03 -2.35,1.89 -2.4,-0.14 -4.42,0.04 -10.31,-1.89 -5.9,-1.92 -9.4,0.56 -10.78,0.94 -1.38,0.37 -9.94,3.79 -14.64,3.35 -4.69,-0.44 -3.22,-1.66 -6.17,-0.88 -2.94,0.79 -10.31,0.53 -13.81,-0.96 -3.5,-1.48 -7.69,2.67 -7.69,-7.7 0,-10.36 -0.27,-4.46 -0.69,-8.92 -0.41,-4.46 -0.97,-8.13 0.97,-12.2 1.93,-4.07 -2.21,-3.54 -2.07,-7.08 0.13,-3.55 -1.52,-7.88 5.38,-8.66 6.91,-0.79 14.41,-0.53 20.12,0 5.71,0.52 22.01,0.65 25.46,0.13 3.46,-0.53 13.26,-1.91 13.26,-0.63 0,1.28 3.87,12.57 3.32,17.03 -0.56,4.46 -1.41,9.71 0.05,14.17 1.47,4.46 -0.05,11.41 -0.05,11.41z"/>
   </g>
   <g>
    <path class="fil1 str1" d="M322.35 477.05c0,0 -1.93,9.19 -1.1,10.89 0.83,1.71 2.07,2.23 1.1,5.91 -0.96,3.67 -2.48,12.59 -0.48,15.74 2,3.15 2.98,6.5 0.84,7.71 -2.15,1.21 -4.09,1.61 -6.85,1.61 -2.76,0 -10.91,-1.18 -16.71,0 -5.8,1.18 -14.78,0.07 -25,-1.61 -10.22,-1.67 -19.06,-2.46 -22.79,-1.94 -3.73,0.53 -6.49,-1.31 -7.04,-5.51 -0.56,-4.2 -0.14,-2.1 -1.66,-9.05 -1.52,-6.95 -2.07,-7.22 -2.21,-12.73 -0.14,-5.51 -3.87,-17.71 1.24,-16.79 5.11,0.92 12.71,-1.97 17.54,-1.71 4.84,0.27 21.41,0.27 26.11,2.89 4.69,2.62 15.33,0.92 17.95,1.18 2.63,0.26 19.71,-0.03 19.06,3.41z"/>
   </g>
   <g>
    <path class="fil1 str1" d="M244.04 514.97c0,0 -1.8,-4.2 -1.8,-6.82 0,-2.63 -1.93,-7.88 -1.93,-10.76 0,-2.89 -3.04,-4.3 -1.93,-10.63 1.1,-6.33 -1.94,-10.89 -1.8,-12.33 0.14,-1.45 -5.11,-1.18 -7.87,-1.18 -2.76,0 -16.71,4.72 -21.55,3.41 -4.83,-1.31 -10.63,-2.36 -20.16,-0.4 -9.53,1.97 -12.71,2.89 -16.03,-0.78 -3.31,-3.68 -3.55,10.1 -3.55,10.1 0,0 -1.42,24.4 1.21,27.16 2.62,2.76 1.65,3.92 0.27,6.75 0,0 1.8,-0.78 4.28,-0.09 2.49,0.69 12.99,1.71 22.1,1 9.12,-0.71 10.09,0.45 13.95,0 3.87,-0.44 17.27,-3.52 19.2,-3.1 1.94,0.43 9.81,-4.04 15.61,-2.33z"/>
   </g>
   <g>
    <path class="fil1 str1" d="M391.14 89.81c0,0 0.04,2.04 -2.35,1.9 -2.4,-0.15 -4.42,0.03 -10.31,-1.9 -5.9,-1.92 -9.4,0.56 -10.78,0.94 -1.38,0.38 -9.94,3.79 -14.64,3.35 -4.69,-0.44 -3.22,-1.66 -6.17,-0.87 -2.94,0.78 -10.31,0.52 -13.81,-0.97 -3.5,-1.48 -7.69,2.67 -7.69,-7.69 0,-10.37 -0.27,-4.46 -0.69,-8.92 -0.41,-4.47 -0.97,-8.14 0.97,-12.21 1.93,-4.06 -2.21,-3.54 -2.07,-7.08 0.13,-3.54 -1.52,-7.87 5.38,-8.66 6.91,-0.79 14.41,-0.53 20.12,0 5.71,0.52 22.01,0.65 25.46,0.13 3.46,-0.52 13.26,-1.91 13.26,-0.63 0,1.29 3.87,12.57 3.32,17.03 -0.56,4.46 -1.41,9.71 0.05,14.17 1.47,4.46 -0.05,11.41 -0.05,11.41z"/>
   </g>
   <g>
    <path class="fil1 str1" d="M322.35 48.35c0,0 -1.93,9.19 -1.1,10.89 0.83,1.71 2.07,2.23 1.1,5.91 -0.96,3.67 -2.48,12.59 -0.48,15.74 2,3.15 2.98,6.5 0.84,7.71 -2.15,1.21 -4.09,1.61 -6.85,1.61 -2.76,0 -10.91,-1.18 -16.71,0 -5.8,1.18 -14.78,0.07 -25,-1.61 -10.22,-1.67 -19.06,-2.46 -22.79,-1.93 -3.73,0.52 -6.49,-1.32 -7.04,-5.51 -0.56,-4.2 -0.14,-2.1 -1.66,-9.06 -1.52,-6.95 -2.07,-7.21 -2.21,-12.72 -0.14,-5.51 -3.87,-17.72 1.24,-16.8 5.11,0.92 12.71,-1.97 17.54,-1.7 4.84,0.26 21.41,0.26 26.11,2.88 4.69,2.63 15.33,0.92 17.95,1.18 2.63,0.27 19.71,-0.03 19.06,3.41z"/>
   </g>
   <g>
    <path class="fil1 str1" d="M244.04 86.27c0,0 -1.8,-4.2 -1.8,-6.82 0,-2.62 -1.93,-7.87 -1.93,-10.76 0,-2.89 -3.04,-4.29 -1.93,-10.63 1.1,-6.33 -1.94,-10.89 -1.8,-12.33 0.14,-1.44 -5.11,-1.18 -7.87,-1.18 -2.76,0 -16.71,4.72 -21.55,3.41 -4.83,-1.31 -10.63,-2.36 -20.16,-0.39 -9.53,1.96 -12.71,2.88 -16.03,-0.79 -3.31,-3.67 -3.55,10.1 -3.55,10.1 0,0 -1.42,24.41 1.21,27.16 2.62,2.76 1.65,3.92 0.27,6.75 0,0 1.8,-0.78 4.28,-0.09 2.49,0.69 12.99,1.72 22.1,1.01 9.12,-0.71 10.09,0.44 13.95,0 3.87,-0.45 17.27,-3.53 19.2,-3.11 1.94,0.43 9.81,-4.03 15.61,-2.33z"/>
   </g>
   <g>
    <path class="fil1 str1" d="M391.14 403.66l0 -9.98c0,0 -0.42,-1.5 -1.87,-1.24 -1.45,0.26 -7.11,0.19 -9.04,-0.72 -1.94,-0.92 -7.19,-2.5 -9.05,-1.51 -1.87,0.98 -4.77,2.1 -8.84,3.15 -4.08,1.05 -9,0.15 -9.28,2.34 -0.27,2.18 0.37,11.89 -0.55,13.38 -0.92,1.49 -1.93,7.17 -3.41,7.61l13.58 0.04 15.47 -1.61 12.99 1.57 0 -13.03z"/>
   </g>
   <g>
    <path class="fil1 str1" d="M346.89 393.95c0,0 2.67,-0.97 3.69,0.78 1.01,1.75 1.28,7.88 0.73,9.19 -0.55,1.31 -0.55,6.65 -1.29,8.05 -0.73,1.39 -1.1,4.11 -3.13,4.72 -1.07,0.32 -9.24,-1.39 -14.45,-1.48 -4.65,-0.08 -8.92,1.52 -8.92,1.52l-15.39 -1.69 -12.34 3.69 -7.92 -2.04c0,0 -1.29,-2.28 -1.15,-4.51 0.14,-2.23 -0.14,-6.63 -0.69,-8.89 -0.56,-2.26 -1.11,-3.31 0,-5.54 1.1,-2.23 0.69,-4.07 2.76,-5.38 2.07,-1.31 21.41,-1.97 26.38,-1.18 4.97,0.79 24.91,3.54 31.72,2.76z"/>
   </g>
   <g>
    <path class="fil1 str1" d="M285.34 391.75c0,0 -2.9,4.99 -2.49,8.01 0.42,3.01 1.49,6.29 1.43,8 -0.05,1.7 -1.15,6.01 1.06,8.97l-12.85 -2.98c-5.17,-1.2 -10.63,-0.65 -15.42,1.58l-4.36 2.03c-1.93,0.89 -4.1,1.22 -6.22,0.94l-11.84 -1.57c0,0 -3.32,-7.82 -4.15,-13.05 -0.82,-5.24 1.94,-6.81 0,-11.93 -1.93,-5.12 20.7,-4.07 27.34,-3.54 6.64,0.52 25.15,3.15 27.5,3.54z"/>
   </g>
   <g>
    <path class="fil1 str1" d="M232.44 416.96c0,0 -4.79,-11.15 -4.79,-14.72 0,-3.57 3.5,-8.19 0,-11.39 -3.5,-3.2 -20.44,3.1 -26.89,2.22 -6.44,-0.87 -25.78,1.58 -28.73,-0.52 -2.94,-2.1 -4.78,6.27 -4.6,11.36 0.18,5.08 1.1,13.05 1.1,13.05l0 0c3.24,1.82 6.99,2.63 10.73,2.31l10.27 -0.87 13.81 2.93 8.1 -3.53c6.61,-2.89 14.15,-3.19 21,-0.84l0 0z"/>
   </g>
   <g>
    <path class="fil1 str1" d="M391.14 388.96c0,0 0.04,2.03 -2.35,1.89 -2.4,-0.14 -4.42,0.03 -10.31,-1.89 -5.9,-1.92 -9.4,0.56 -10.78,0.93 -1.38,0.38 -9.94,3.79 -14.64,3.36 -4.69,-0.44 -3.22,-1.66 -6.17,-0.88 -2.94,0.79 -10.31,0.53 -13.81,-0.96 -3.5,-1.49 -7.69,2.67 -7.69,-7.7 0,-10.36 -0.27,-4.46 -0.69,-8.92 -0.41,-4.46 -0.97,-8.13 0.97,-12.2 1.93,-4.07 -2.21,-3.54 -2.07,-7.09 0.13,-3.54 -1.52,-7.87 5.38,-8.66 6.91,-0.78 14.41,-0.52 20.12,0 5.71,0.53 22.01,0.66 25.46,0.14 3.46,-0.53 13.26,-1.92 13.26,-0.63 0,1.28 3.87,12.56 3.32,17.03 -0.56,4.46 -1.41,9.7 0.05,14.17 1.47,4.46 -0.05,11.41 -0.05,11.41z"/>
   </g>
   <g>
    <path class="fil1 str1" d="M322.35 347.5c0,0 -1.93,9.18 -1.1,10.89 0.83,1.71 2.07,2.23 1.1,5.9 -0.96,3.68 -2.48,12.6 -0.48,15.75 2,3.15 2.98,6.5 0.84,7.71 -2.15,1.21 -4.09,1.6 -6.85,1.6 -2.76,0 -10.91,-1.18 -16.71,0 -5.8,1.19 -14.78,0.08 -25,-1.6 -10.22,-1.68 -19.06,-2.46 -22.79,-1.94 -3.73,0.53 -6.49,-1.31 -7.04,-5.51 -0.56,-4.2 -0.14,-2.1 -1.66,-9.05 -1.52,-6.96 -2.07,-7.22 -2.21,-12.73 -0.14,-5.51 -3.87,-17.71 1.24,-16.79 5.11,0.92 12.71,-1.97 17.54,-1.71 4.84,0.26 21.41,0.26 26.11,2.89 4.69,2.62 15.33,0.92 17.95,1.18 2.63,0.26 19.71,-0.03 19.06,3.41z"/>
   </g>
   <g>
    <path class="fil1 str1" d="M244.04 385.42c0,0 -1.8,-4.2 -1.8,-6.82 0,-2.63 -1.93,-7.88 -1.93,-10.76 0,-2.89 -3.04,-4.3 -1.93,-10.63 1.1,-6.33 -1.94,-10.89 -1.8,-12.33 0.14,-1.45 -5.11,-1.19 -7.87,-1.19 -2.76,0 -16.71,4.73 -21.55,3.42 -4.83,-1.32 -10.63,-2.37 -20.16,-0.4 -9.53,1.97 -12.71,2.89 -16.03,-0.78 -3.31,-3.68 -3.55,10.1 -3.55,10.1 0,0 -1.42,24.4 1.21,27.16 2.62,2.75 1.65,3.92 0.27,6.75 0,0 1.8,-0.78 4.28,-0.09 2.49,0.69 12.99,1.71 22.1,1 9.12,-0.71 10.09,0.45 13.95,0 3.87,-0.45 17.27,-3.52 19.2,-3.1 1.94,0.42 9.81,-4.04 15.61,-2.33z"/>
   </g>
   <g>
    <path class="fil1 str1" d="M389.43 418.73c0,0 1.66,-0.72 1.71,0.94 0.04,1.66 -0.97,12.34 -1.71,18.98 -0.73,6.65 -1.15,19.77 0,22.92 1.15,3.15 2.37,10.06 0.5,11.2 -1.88,1.13 -3.17,1.05 -5.65,0.96 -2.49,-0.09 -9.21,-0.17 -14.37,0.05 -5.15,0.21 -7.64,0.92 -11.69,0 -4.05,-0.93 -5.43,0.39 -4.97,-5.21 0.46,-5.6 -0.1,-13.17 1.28,-16.32 1.39,-3.14 1.94,-5.77 1.8,-10.23 -0.14,-4.46 -1.52,-8.53 -0.69,-13.91 0.83,-5.38 -2.84,-6.16 2.03,-7.48 4.88,-1.31 -0.23,1.05 9.43,-0.52 9.67,-1.58 16.76,-3.15 22.33,-1.38z"/>
   </g>
   <g>
    <path class="fil1 str1" d="M351.59 420.63c0,0 1.29,3.94 0.74,6.3 -0.56,2.36 -1.19,2.23 -0.74,9.05 0.46,6.83 1.98,4.61 0.87,10.11 -1.1,5.51 -1.52,17.32 -2.07,20.33 -0.55,3.02 1.29,6.53 -1.29,6.81 -2.58,0.28 -4.92,-0.51 -11.42,-1.82 -6.49,-1.31 -12.01,-0.13 -15.88,0.66 -3.87,0.78 -13.67,-0.79 -17.4,-0.79 -3.73,0 -8.01,-1.61 -12.16,-1.72 -4.14,-0.12 -6.51,0.14 -10.78,-1.04 -4.27,-1.18 -7.72,-1.96 -7.45,-5.51 0.28,-3.54 2.07,-4.2 1.66,-8.13 -0.42,-3.94 -0.42,-4.33 -0.42,-9.97 0,-5.64 2.35,-2.76 0.7,-8.93 -1.66,-6.16 -2.63,-6.69 -2.77,-9.57 -0.14,-2.89 -5.66,-2.93 0.97,-5.08 6.63,-2.14 11.88,-2.93 14.5,-1.75 2.63,1.19 6.91,1.71 10.78,1.05 3.86,-0.65 12.15,-1.44 16.43,-1.05 4.28,0.4 11.19,0.13 15.61,-0.85 4.42,-0.98 19.61,-0.08 20.12,1.9z"/>
   </g>
   <g>
    <path class="fil1 str1" d="M268.72 415.74c0,0 3.25,-1.33 2.17,0.99 -1.07,2.33 -4.01,2.15 -2.17,9.15 1.84,7 5.34,11.02 4.42,13.3 -0.92,2.27 1.04,7.87 0.15,11.72 -0.89,3.85 -0.77,14.52 -2.4,15.74 -1.62,1.23 -10.46,0.18 -14.88,1.05 -4.42,0.88 -7.55,0.53 -11.97,0.88 -4.42,0.35 -5.34,-0.12 -11.6,0.99 -6.26,1.11 -14.37,4.26 -18.05,4.43 -3.68,0.18 -12.34,-0.47 -15.65,-0.76 -3.32,-0.29 -9.76,-1.28 -15.47,0.79 -5.71,2.07 -10.5,0.31 -11.79,-0.74 -1.29,-1.04 -3.89,-4.36 -4.06,-7.69 -0.18,-3.32 0.88,-8.57 -0.38,-18.89 -1.27,-10.32 -2.77,-19.42 0.38,-22.39 3.14,-2.98 4.43,-2.98 6.64,-2.98 2.21,0 13.07,-1.05 16.02,0 2.95,1.05 12.89,2.98 18.78,0 5.9,-2.97 12.9,-3.55 20.26,-3 7.37,0.55 20.26,3.47 26.15,0 5.9,-3.47 13.45,-2.59 13.45,-2.59z"/>
   </g>
   <g>
    <path class="fil1 str1" d="M349.97 117.54l-0.87 0c0.22,-0.06 0.42,-0.25 0.62,-0.51 -0.2,-0.35 -0.4,-0.6 -0.62,-0.69l1.04 0c0.94,-1.86 1.68,-5.3 2.37,-6.41 0.92,-1.48 0.28,-11.19 0.55,-13.38 0.28,-2.19 5.2,-1.29 9.28,-2.34 4.07,-1.05 6.97,-2.16 8.84,-3.15 1.86,-0.98 7.11,0.59 9.05,1.51 1.93,0.92 7.59,0.98 9.04,0.72 1.45,-0.26 1.87,1.25 1.87,1.25l0 9.97 0 11.83 0 0 0 17.55 0 13.42c0,0 -0.42,2.04 -1.87,1.68 -1.45,-0.35 -7.11,-0.26 -9.04,0.97 -1.94,1.24 -7.19,3.36 -9.05,2.04 -1.87,-1.33 -4.77,-2.83 -8.84,-4.24 -4.08,-1.42 -9,-0.21 -9.28,-3.15 -0.27,-2.95 0.37,-16.02 -0.55,-18.02 -0.73,-1.58 -1.51,-6.68 -2.54,-9.05z"/>
   </g>
   <g>
    <path class="fil1 str1" d="M286.72 122.41c-0.1,-2.15 0.53,-4.31 0.89,-5.38 -0.36,-0.79 -0.99,-2.4 -0.89,-3.99 0.14,-2.23 -0.14,-6.63 -0.69,-8.89 -0.55,-2.26 -1.11,-3.31 0,-5.54 1.1,-2.24 0.69,-4.07 2.76,-5.38 2.07,-1.32 21.41,-1.97 26.38,-1.18 4.97,0.78 24.91,3.54 31.72,2.75 0,0 2.67,-0.96 3.69,0.79 1.01,1.75 1.28,7.87 0.73,9.18 -0.55,1.31 -0.55,6.65 -1.29,8.05 -0.6,1.15 -0.97,3.17 -2.2,4.2 1.24,1.38 1.6,4.13 2.2,5.68 0.74,1.89 0.74,9.07 1.29,10.84 0.55,1.76 0.28,10.01 -0.73,12.36 -1.02,2.36 -3.69,1.06 -3.69,1.06 -6.81,-1.06 -26.75,2.65 -31.72,3.71 -4.97,1.06 -24.31,0.18 -26.38,-1.59 -2.07,-1.77 -1.66,-4.24 -2.76,-7.24 -1.11,-3 -0.55,-4.42 0,-7.46 0.55,-3.04 0.83,-8.97 0.69,-11.97z"/>
   </g>
   <g>
    <path class="fil1 str1" d="M230.5 133.86c0.7,-5.93 3.15,-14.31 3.92,-16.83 -0.76,-1.86 -3.22,-8.08 -3.92,-12.5 -0.82,-5.23 1.94,-6.81 0,-11.92 -1.93,-5.12 20.7,-4.07 27.34,-3.55 6.64,0.53 25.15,3.15 27.5,3.55 0,0 -2.9,4.98 -2.49,8 0.42,3.02 1.49,6.3 1.43,8 -0.04,1.47 -0.86,4.86 0.32,7.67l0.74 0c-0.14,0.24 -0.26,0.49 -0.37,0.75 0.11,0.19 0.23,0.38 0.37,0.56l-0.58 0c-1.41,3.86 -0.52,8.72 -0.48,10.77 0.06,2.3 -1.01,6.72 -1.43,10.78 -0.41,4.06 2.49,10.78 2.49,10.78 -2.35,0.53 -20.86,4.06 -27.5,4.77 -6.64,0.7 -29.27,2.12 -27.34,-4.77 1.94,-6.89 -0.82,-9.01 0,-16.06z"/>
   </g>
   <g>
    <path class="fil1 str1" d="M168.45 117.03c-0.24,-2.13 -0.87,-8.15 -1.02,-12.27 -0.18,-5.09 1.66,-13.46 4.6,-11.36 2.95,2.1 22.29,-0.35 28.73,0.53 6.45,0.87 23.39,-5.43 26.89,-2.22 3.5,3.2 0,7.81 0,11.39 0,2.66 2.67,9.56 4.02,12.88l0.77 0c0,0 -0.13,0.38 -0.33,1.05 0.2,0.5 0.33,0.78 0.33,0.78l-0.57 0c-1.27,4.16 -4.22,14.21 -4.22,17.98 0,4.81 3.5,11.03 0,15.34 -3.5,4.31 -20.44,-4.17 -26.89,-2.99 -6.44,1.18 -25.78,-2.12 -28.73,0.71 -2.94,2.82 -4.78,-8.45 -4.6,-15.3 0.15,-5.55 0.78,-13.65 1.02,-16.52z"/>
   </g>
   <g>
    <path class="fil1 str1" d="M392.24 154.72c0,0 0.05,-2.73 -2.35,-2.54 -2.39,0.19 -4.42,-0.05 -10.31,2.54 -5.89,2.59 -9.39,-0.75 -10.77,-1.25 -1.38,-0.51 -9.95,-5.11 -14.64,-4.52 -4.7,0.59 -3.23,2.24 -6.17,1.18 -2.95,-1.06 -10.32,-0.71 -13.81,1.3 -3.5,2 -7.69,-3.6 -7.69,10.36 0,13.95 -0.28,6.01 -0.69,12.01 -0.42,6.01 -0.97,10.95 0.96,16.43 1.94,5.48 -2.21,4.77 -2.07,9.54 0.14,4.77 -2.12,14.21 4.79,15.27 6.91,1.06 19.89,-1.88 25.6,-2.58 5.71,-0.71 15.6,0.16 19.06,0.87 3.45,0.71 14.78,0.5 14.78,-1.23 0,-1.73 3.86,-16.92 3.31,-22.93 -0.55,-6.01 -1.41,-13.07 0.06,-19.08 1.46,-6 -0.06,-15.37 -0.06,-15.37z"/>
   </g>
   <g>
    <path class="fil1 str1" d="M321.94 211.58c0,0 -1.52,-15.5 -0.69,-17.8 0.83,-2.29 2.07,-3 1.1,-7.94 -0.96,-4.95 -2.48,-16.96 -0.48,-21.2 2,-4.24 2.98,-8.76 0.84,-10.39 -2.15,-1.63 -3.9,-0.57 -6.66,-0.57 -2.77,0 -12.8,1.06 -18.6,-0.53 -5.81,-1.59 -13.7,0.72 -23.92,2.98 -10.23,2.25 -18.95,2.63 -22.68,1.92 -3.73,-0.71 -5.98,0.58 -6.53,6.23 -0.56,5.66 -0.14,2.83 -1.66,12.19 -1.52,9.37 -2.07,9.72 -2.21,17.14 -0.14,7.42 -3.87,23.84 1.24,22.61 5.11,-1.24 12.71,2.65 17.54,2.3 4.84,-0.36 24.86,0.28 29.56,-3.25 4.7,-3.53 11.88,-1.88 14.5,-2.23 2.63,-0.35 19.29,3.17 18.65,-1.46z"/>
   </g>
   <g>
    <path class="fil1 str1" d="M239.43 157.79c1.97,0.29 3.18,2.17 2.49,3.95 -0.56,1.44 -1.01,3.02 -1.01,4.36 0,3.53 -1.9,8.53 -1.9,12.42 0,3.89 -3.63,8.44 -2.52,16.97 1.1,8.52 -2.16,16.87 -2.03,18.81 0.14,1.94 -4.97,0 -7.73,0 -2.76,0 -16.53,-4.31 -21.36,-2.54 -4.84,1.76 -12.2,2.65 -21.73,0 -9.53,-2.65 -9.35,-6.14 -12.67,-1.19 -3.31,4.94 -3.55,-13.61 -3.55,-13.61 0,0 -1.42,-32.85 1.21,-36.56 2.62,-3.71 1.65,-5.28 0.27,-9.09 0,0 1.8,1.05 4.28,0.12 2.49,-0.93 10.73,-0.02 19.85,0.93 9.11,0.96 11.42,-0.6 15.28,0 3.87,0.6 16.67,3.51 18.6,2.94 1.45,-0.42 7.76,1.8 12.52,2.49z"/>
   </g>
   <g>
    <path class="fil1 str1" d="M391.14 285.62l0 9.98c0,0 -0.42,1.5 -1.87,1.24 -1.45,-0.26 -7.11,-0.19 -9.04,0.72 -1.94,0.92 -7.19,2.5 -9.05,1.51 -1.87,-0.98 -4.77,-2.1 -8.84,-3.15 -4.08,-1.05 -9,-0.15 -9.28,-2.34 -0.27,-2.18 0.37,-11.89 -0.55,-13.38 -0.92,-1.48 -1.93,-7.17 -3.41,-7.61l13.58 -0.04 15.47 1.61 12.99 -1.57 0 13.03z"/>
   </g>
   <g>
    <path class="fil1 str1" d="M346.89 295.33c0,0 2.67,0.97 3.69,-0.78 1.01,-1.75 1.28,-7.88 0.73,-9.19 -0.55,-1.31 -0.55,-6.65 -1.29,-8.05 -0.73,-1.39 -1.1,-4.11 -3.13,-4.72 -1.07,-0.32 -9.24,1.39 -14.45,1.48 -4.65,0.08 -8.92,-1.52 -8.92,-1.52l-15.39 1.69 -12.34 -3.69 -7.92 2.04c0,0 -1.29,2.28 -1.15,4.51 0.14,2.23 -0.14,6.63 -0.69,8.89 -0.56,2.26 -1.11,3.31 0,5.54 1.1,2.23 0.69,4.07 2.76,5.38 2.07,1.31 21.41,1.97 26.38,1.18 4.97,-0.79 24.91,-3.54 31.72,-2.76z"/>
   </g>
   <g>
    <path class="fil1 str1" d="M285.34 297.53c0,0 -2.9,-4.99 -2.49,-8 0.42,-3.02 1.49,-6.3 1.43,-8.01 -0.05,-1.7 -1.15,-6.01 1.06,-8.97l-12.85 2.98c-5.17,1.2 -10.63,0.65 -15.42,-1.58l-4.36 -2.03c-1.93,-0.89 -4.1,-1.22 -6.22,-0.94l-11.84 1.57c0,0 -3.32,7.82 -4.15,13.05 -0.82,5.24 1.94,6.81 0,11.93 -1.93,5.12 20.7,4.07 27.34,3.54 6.64,-0.52 25.15,-3.15 27.5,-3.54z"/>
   </g>
   <g>
    <path class="fil1 str1" d="M232.44 272.32c0,0 -4.79,11.15 -4.79,14.72 0,3.57 3.5,8.19 0,11.39 -3.5,3.2 -20.44,-3.1 -26.89,-2.22 -6.44,0.87 -25.78,-1.58 -28.73,0.52 -2.94,2.1 -4.78,-6.27 -4.6,-11.36 0.18,-5.08 1.1,-13.05 1.1,-13.05l0 0c3.24,-1.82 6.99,-2.63 10.73,-2.31l10.27 0.87 13.81 -2.93 8.1 3.53c6.61,2.89 14.15,3.19 21,0.84l0 0z"/>
   </g>
   <g>
    <path class="fil1 str1" d="M391.14 300.32c0,0 0.04,-2.03 -2.35,-1.89 -2.4,0.14 -4.42,-0.03 -10.31,1.89 -5.9,1.92 -9.4,-0.56 -10.78,-0.93 -1.38,-0.38 -9.94,-3.79 -14.64,-3.36 -4.69,0.44 -3.22,1.67 -6.17,0.88 -2.94,-0.79 -10.31,-0.53 -13.81,0.96 -3.5,1.49 -7.69,-2.67 -7.69,7.7 0,10.36 -0.27,4.46 -0.69,8.92 -0.41,4.46 -0.97,8.13 0.97,12.2 1.93,4.07 0,5.21 0.14,8.75 0.13,3.54 -2.63,6.32 4.28,7.11 6.9,0.79 12.01,1.98 17.72,1.45 5.71,-0.52 12.39,-0.86 15.84,-0.34 3.45,0.53 24.17,0.56 24.17,-0.73 0,-1.28 3.87,-12.56 3.32,-17.02 -0.56,-4.47 -1.41,-9.71 0.05,-14.18 1.47,-4.46 -0.05,-11.41 -0.05,-11.41z"/>
   </g>
   <g>
    <path class="fil1 str1" d="M322.35 340.28c0,0 -1.93,-8.85 -1.1,-10.5 0.83,-1.64 2.07,-2.15 1.1,-5.69 -0.96,-3.54 -2.59,-8.53 -0.6,-11.57 2,-3.03 1.6,-9.82 -0.55,-10.99 -2.14,-1.17 -2.58,-1.61 -5.34,-1.61 -2.76,0 -10.91,1.14 -16.71,0 -5.8,-1.14 -14.78,-0.07 -25,1.55 -10.22,1.61 -19.06,2.37 -22.79,1.87 -3.73,-0.51 -6.49,1.26 -7.04,5.31 -0.56,4.05 1.24,1.54 -0.28,8.25 -1.52,6.7 -1.7,4.13 -1.84,9.44 -0.14,5.32 -3.27,13.66 1.84,12.77 5.11,-0.88 11,-1.32 15.84,-1.57 4.83,-0.26 19.33,0.17 24.49,2.46 4.89,2.18 16.71,1.99 19.34,1.74 2.62,-0.26 19.29,1.86 18.64,-1.46z"/>
   </g>
   <g>
    <path class="fil1 str1" d="M244.04 303.27c0,0 -1.8,3.79 -1.8,6.16 0,2.37 -1.93,7.11 -1.93,9.72 0,2.61 -3.04,3.88 -1.93,9.6 1.1,5.71 -1.94,9.83 -1.8,11.13 0.14,1.3 -5.11,1.07 -7.87,1.07 -2.76,0 -13.72,1.33 -18.56,2.51 -4.83,1.19 -16.23,-3.47 -29.68,1.31 -9.09,3.24 -6.18,-9.15 -9.5,-5.84 -3.31,3.32 -3.55,-9.12 -3.55,-9.12 0,0 -1.42,-22.03 1.21,-24.52 2.62,-2.49 1.65,-3.54 0.27,-6.1 0,0 1.8,0.71 4.28,0.09 2.49,-0.63 12.99,-1.55 22.1,-0.91 9.12,0.64 10.09,-0.41 13.95,0 3.87,0.4 17.27,3.18 19.2,2.8 1.94,-0.38 9.81,3.64 15.61,2.1z"/>
   </g>
   <g>
    <path class="fil1 str1" d="M389.43 270.55c0,0 1.66,0.72 1.71,-0.94 0.04,-1.66 -0.97,-12.34 -1.71,-18.98 -0.73,-6.65 -1.15,-19.77 0,-22.92 1.15,-3.15 2.37,-10.06 0.5,-11.2 -1.88,-1.13 -3.17,-1.05 -5.65,-0.96 -2.49,0.09 -9.21,0.17 -14.37,-0.04 -5.15,-0.22 -7.64,-0.93 -11.69,0 -4.05,0.92 -5.43,-0.39 -4.97,5.2 0.46,5.6 -0.1,13.17 1.28,16.32 1.39,3.15 1.94,5.77 1.8,10.23 -0.14,4.46 -1.52,8.53 -0.69,13.91 0.83,5.38 -2.84,6.16 2.03,7.48 4.88,1.31 -0.23,-1.05 9.43,0.52 9.67,1.58 16.76,3.15 22.33,1.38z"/>
   </g>
   <g>
    <path class="fil1 str1" d="M351.59 268.65c0,0 1.29,-3.94 0.74,-6.3 -0.56,-2.36 -1.19,-2.23 -0.74,-9.05 0.46,-6.83 1.98,-4.61 0.87,-10.11 -1.1,-5.51 -1.52,-17.32 -2.07,-20.33 -0.55,-3.02 1.29,-6.53 -1.29,-6.81 -2.58,-0.28 -4.92,0.51 -11.42,1.82 -6.49,1.31 -12.01,0.13 -15.88,-0.66 -3.87,-0.78 -13.67,0.79 -17.4,0.79 -3.73,0 -8.01,1.61 -12.16,1.72 -4.14,0.12 -6.51,-0.14 -10.78,1.04 -4.27,1.18 -7.72,1.96 -7.45,5.51 0.28,3.54 2.07,4.2 1.66,8.13 -0.42,3.94 -0.42,4.33 -0.42,9.97 0,5.64 2.35,2.76 0.7,8.93 -1.66,6.16 -2.63,6.69 -2.77,9.57 -0.14,2.89 -5.66,2.93 0.97,5.08 6.63,2.14 11.88,2.93 14.5,1.75 2.63,-1.19 6.91,-1.71 10.78,-1.05 3.86,0.65 12.15,1.44 16.43,1.05 4.28,-0.4 11.19,-0.13 15.61,0.85 4.42,0.98 19.61,0.08 20.12,-1.9z"/>
   </g>
   <g>
    <path class="fil1 str1" d="M268.72 273.54c0,0 3.25,1.33 2.17,-0.99 -1.07,-2.33 -4.01,-2.15 -2.17,-9.15 1.84,-7 5.34,-11.02 4.42,-13.3 -0.92,-2.27 1.04,-7.87 0.15,-11.72 -0.89,-3.85 -0.77,-14.52 -2.4,-15.74 -1.62,-1.23 -10.46,-0.18 -14.88,-1.05 -4.42,-0.88 -7.55,-0.53 -11.97,-0.88 -4.42,-0.35 -5.34,0.12 -11.6,-0.99 -6.26,-1.11 -14.37,-4.26 -18.05,-4.43 -3.68,-0.18 -12.34,0.47 -15.65,0.76 -3.32,0.29 -9.76,1.28 -15.47,-0.79 -5.71,-2.07 -10.5,-0.31 -11.79,0.74 -1.29,1.04 -3.89,4.36 -4.06,7.69 -0.18,3.32 0.88,8.57 -0.38,18.89 -1.27,10.32 -2.77,19.42 0.38,22.39 3.14,2.98 4.43,2.98 6.64,2.98 2.21,0 13.07,1.05 16.02,0 2.95,-1.05 12.89,-2.98 18.78,0 5.9,2.97 12.9,3.55 20.26,3 7.37,-0.55 20.26,-3.47 26.15,0 5.9,3.47 13.45,2.59 13.45,2.59z"/>
   </g>
   <g>
    <path class="fil1 str2" d="M169.1 423.04l0 0 -0.33 -6.41c-0.17,-1.46 -0.91,-8.23 -1.07,-12.75 -0.12,-3.25 0.59,-7.83 1.88,-10.18l0 0c0,0 -0.45,-3.04 -0.41,-3.79 0.01,-0.11 0.16,-0.4 0.39,-0.78 1.14,-2.29 1.7,-3.48 -0.67,-5.97 -2.62,-2.75 -1.21,-27.15 -1.21,-27.15 0,0 0.14,-7.76 1.61,-10.08l0 0c0,0 1.22,-4.09 0.15,-6.85 0,0 0,0 -0.01,0 -1.6,-1.83 -1.75,-9.28 -1.75,-9.28 0,0 -1.41,-22.03 1.21,-24.52 2.63,-2.49 1.66,-3.54 0.28,-6.09 0,0 2.64,0.04 1.38,-2.43l0 0c-1.9,-1.41 -3,-7.41 -2.85,-11.39 0.18,-5.08 1.1,-13.05 1.1,-13.05l-2.11 -8.8 0 -0.01c-1.76,-3.9 -0.49,-11.94 0.61,-20.92 1.27,-10.32 0.21,-15.57 0.38,-18.89 0.1,-1.76 0.87,-3.52 1.77,-4.95 0,0 0,0 0,0 0,0 1.42,-4.06 -0.29,-8.51 -0.03,-0.08 -0.06,-0.15 -0.08,-0.23 -0.02,-0.03 -0.02,-0.06 -0.04,-0.09 -0.19,-0.47 -0.31,-0.99 -0.39,-1.54 -0.87,-4.24 -0.97,-11.4 -0.97,-11.4 0,0 -1.41,-32.85 1.21,-36.56 2.63,-3.71 1.66,-5.27 0.28,-9.08 0,0 0.24,0.13 0.64,0.26 0,-0.01 0.68,-1.38 -0.19,-4.24 0,0 0,0 0,0 -1.32,-3.14 -2.04,-9.37 -1.92,-13.78 0.15,-5.55 0.78,-13.65 1.01,-16.52 -0.23,-2.13 -0.86,-8.14 -1.01,-12.26 -0.11,-2.99 0.48,-7.1 1.58,-9.57 0,0 0,-3.04 0.08,-4.47 -0.11,0.04 -0.19,0.07 -0.19,0.07 0.07,-0.15 0.15,-0.3 0.22,-0.44l0 0c0.02,-0.31 0.3,-0.83 0.69,-1.42 0.73,-1.65 0.78,-2.82 -1.19,-4.89 -2.62,-2.75 -1.21,-27.15 -1.21,-27.15 0,0 0.12,-6.75 1.33,-9.54l0 0c0,0 -0.1,-3.57 -0.44,-4.65 0,0 0,0 0,-0.01 -0.81,-1.82 -0.89,-7.15 -0.89,-7.15l0 -9.97 0 -13.03 0.71 -0.01c0,0 12.28,-0.1 23.91,-0.15l16.33 -0.11c-0.04,0.01 -0.08,0.05 -0.12,0.07 2.4,0.01 3.96,0.03 4.22,0.07 0,0 0.01,0.01 0.01,0.01 4.14,-0.4 20.09,0.12 20.09,0.12l14.84 0c10.94,-0.01 21.32,-0.03 25.82,-0.04 0,0 0,0 -0.01,-0.01l2.36 0 50.55 -0.21c0,0 -0.01,-0.01 -0.01,-0.01l63.91 0c0,0 0.92,7.96 1.1,13.05 0.15,4.22 -0.95,15.25 -3.02,17.69l0.01 0c0,0 -0.56,2.11 -0.28,4.27 0,0.02 0,0.04 0,0.06 0.02,0.13 0.05,0.27 0.07,0.4 0.02,0.07 0.03,0.15 0.05,0.23 0.02,0.08 0.04,0.17 0.06,0.25 0.76,3.16 3.6,12.15 3.12,16.01 -0.55,4.46 -1.41,9.71 0.06,14.17 1.46,4.46 -0.06,11.41 -0.06,11.41 0,0 0.01,0.57 -0.33,1.09 0,0 0,0 0,0l0.33 3.63 0 9.97 0 11.83 0 0 0 17.55 0 13.42c0,0 -0.24,1.17 -1,1.58l0 0.01c0,0 1.8,3.51 1.76,4.32l0 0c0.36,0.7 0.35,1.5 0.35,1.5 0,0 1.52,9.36 0.05,15.36 -1.46,6.01 -0.6,13.07 -0.05,19.08 0.55,6 -3.32,21.19 -3.32,22.92 0,0.23 -0.21,0.44 -0.58,0.62 0.98,1.42 2.03,3.21 2.13,4.44 0,0 0,0 0,0.01 1.04,2.1 -0.03,7.77 -1.04,10.54 -1.15,3.15 -0.74,16.27 0,22.91 0.74,6.65 1.75,17.32 1.7,18.98 0,0.16 -0.03,0.28 -0.06,0.4l0.01 0.01 0.05 2.57 0 0 0 13.03 0 9.97c0,0 -0.05,0.18 -0.17,0.4l0 0c0,0 0.04,2.21 0.17,3.62 0.02,0.13 0,0.27 -0.02,0.41 0.03,0.18 0.02,0.29 0.02,0.29 0,0 1.52,6.96 0.06,11.42 -1.47,4.46 -0.61,9.7 -0.06,14.16 0.56,4.46 -3.31,15.74 -3.31,17.03 0,0.06 -0.06,0.12 -0.15,0.17l0 0.01c0,0 0.39,2.37 0.29,3.39 -0.02,0.12 -0.04,0.24 -0.06,0.37 0.53,2.57 3.74,12.4 3.23,16.5 -0.55,4.46 -1.41,9.7 0.06,14.16 1.46,4.46 -0.06,11.42 -0.06,11.42 0,0 0.02,0.84 -0.6,1.4 0.26,1.18 0.6,2.82 0.6,3.32l0 9.97 0 13.03 -0.1 -0.01c0.05,0.58 0.13,1.78 0.11,2.77 0,0.03 -0.02,0.09 -0.02,0.12 0,0.04 0.01,0.06 0.01,0.1 0.05,1.66 -0.96,12.33 -1.7,18.98 -0.74,6.64 -1.15,19.76 0,22.91 1.15,3.15 2.37,10.06 0.49,11.19 -0.11,0.08 -0.22,0.13 -0.33,0.19l0 0.01c0,0 -1.9,1.15 -1.77,2.94 0,1.28 3.87,12.56 3.31,17.02 -0.55,4.46 -1.41,9.71 0.06,14.17 1.46,4.46 -0.06,11.41 -0.06,11.41 0,0 0.01,0.38 -0.17,0.8 0,0.01 -0.26,2.77 0.12,3.78 0,0 0,0 0,0 0.03,0.08 0.05,0.14 0.05,0.14l0 9.97 0 13.03 -41.85 0 -3.6 0.28 -0.81 -0.07c-5.4,0.23 -18.88,-0.21 -18.88,-0.21l-38.12 0 -2.54 0.04c0,0 0,0.01 0.01,0.01l-50.41 0 -2.53 0.13c0.02,0.06 0.04,0.1 0.04,0.1l-63.91 0c0,0 -0.92,-7.97 -1.1,-13.06 -0.12,-3.36 0.64,-8.16 2.02,-10.42l0 0c0,0 -0.67,-2.86 -0.55,-3.54 1.38,-2.83 2.35,-4 -0.28,-6.75 -2.62,-2.76 -1.21,-27.15 -1.21,-27.15 0,0 0.14,-7.56 1.56,-9.99l0 0c0,0 0.6,-3.19 -0.8,-6.96 -0.41,-0.97 -0.7,-2 -0.76,-3.04 -0.17,-3.32 0.89,-8.57 -0.38,-18.89 -1.26,-10.32 -2.76,-19.41 0.38,-22.38 0.52,-0.5 0.99,-0.9 1.42,-1.24z"/>
   </g>
  </g>
 </g>
</svg>
