<?xml version="1.0" encoding="UTF-8"?>
<!DOCTYPE svg PUBLIC "-//W3C//DTD SVG 1.1//EN" "http://www.w3.org/Graphics/SVG/1.1/DTD/svg11.dtd">
<!-- Creator: CorelDRAW 2017 -->
<svg xmlns="http://www.w3.org/2000/svg" xml:space="preserve" width="5.5878mm" height="5.5878mm" version="1.1" style="shape-rendering:geometricPrecision; text-rendering:geometricPrecision; image-rendering:optimizeQuality; fill-rule:evenodd; clip-rule:evenodd"
viewBox="0 0 558.78 558.78"
 xmlns:xlink="http://www.w3.org/1999/xlink">
 <defs>
  <style type="text/css">
   <![CDATA[
    .str5 {stroke:#96989A;stroke-width:0.77;stroke-linecap:round;stroke-linejoin:round;stroke-miterlimit:10}
    .str4 {stroke:#81504A;stroke-width:0.77;stroke-linecap:round;stroke-linejoin:round;stroke-miterlimit:10}
    .str3 {stroke:#81504A;stroke-width:1.15;stroke-linecap:round;stroke-linejoin:round;stroke-miterlimit:10}
    .str2 {stroke:#81504A;stroke-width:1.53;stroke-linecap:round;stroke-linejoin:round;stroke-miterlimit:10}
    .str0 {stroke:#81504A;stroke-width:176.39;stroke-linecap:round;stroke-linejoin:round;stroke-miterlimit:10}
    .str1 {stroke:#67462E;stroke-width:15.33;stroke-linecap:round;stroke-linejoin:round;stroke-miterlimit:10}
    .fil3 {fill:none}
    .fil2 {fill:none;fill-rule:nonzero}
    .fil5 {fill:#FEFEFE;fill-rule:nonzero}
    .fil19 {fill:#848688;fill-rule:nonzero}
    .fil0 {fill:#4B4B4D;fill-rule:nonzero}
    .fil11 {fill:#FAF8F2;fill-rule:nonzero}
    .fil7 {fill:#F3B0B5;fill-rule:nonzero}
    .fil20 {fill:#EF7B8F;fill-rule:nonzero}
    .fil1 {fill:#F7F2ED;fill-rule:nonzero}
    .fil13 {fill:#F3C2BE;fill-rule:nonzero}
    .fil9 {fill:#F7E9B2;fill-rule:nonzero}
    .fil10 {fill:#F3C46C;fill-rule:nonzero}
    .fil18 {fill:#EB8058;fill-rule:nonzero}
    .fil8 {fill:#D8B56B;fill-rule:nonzero}
    .fil14 {fill:#81504A;fill-rule:nonzero}
    .fil12 {fill:#7F4746;fill-rule:nonzero}
    .fil15 {fill:#9E9175;fill-rule:nonzero}
    .fil6 {fill:#A29C99;fill-rule:nonzero}
    .fil16 {fill:#583D38;fill-rule:nonzero}
    .fil4 {fill:#76CFE7;fill-rule:nonzero}
    .fil17 {fill:#5C78B7;fill-rule:nonzero}
   ]]>
  </style>
 </defs>
<symbol id="Fm3-34-0" viewBox="25175.24 -15058.57 2613.67 1521.46">
 <polygon class="fil0" points="27184.81,-13706.47 27344.2,-13706.47 27344.2,-14835.79 27629.49,-14835.79 27629.49,-13706.47 27788.91,-13706.47 27788.91,-13537.11 27184.81,-13537.11 "/>
 <path class="fil0" d="M26826.18 -14635.63l0 643.89c0,34.43 14.78,51.65 44.34,51.65 30.24,0 45.26,-17.22 45.26,-51.65l0 -643.89c0,-35.63 -15.02,-53.44 -45.26,-53.44 -29.56,0 -44.34,17.81 -44.34,53.44zm347.77 7.27l0 629.39c0,147.88 -102.38,221.86 -307.06,221.86 -79.09,0 -148.63,-17.21 -208.7,-51.61 -60.08,-34.39 -90.17,-88.16 -90.17,-161.18l0 -647.53c0,-141.88 99.62,-212.83 298.87,-212.83 204.68,0 307.06,73.94 307.06,221.9z"/>
 <path class="fil0" d="M25911.53 -14835.77l258.09 0 0 844.05c0,32 14.93,47.98 44.81,47.98 29.88,0 44.87,-15.38 44.87,-46.18l0 -845.85 258.09 0 0 1051.45 -258.09 0 0 -35.35c-34.54,28.37 -87.81,42.55 -159.81,42.55 -46.64,0 -89.64,-12.67 -129.01,-38 -39.3,-25.36 -58.95,-62.51 -58.95,-111.4l0 -909.25z"/>
 <path class="fil0" d="M25175.24 -13784.33l200.13 -1045.99c20.53,-106.89 48.12,-171.62 82.87,-194.27 34.68,-22.65 82.83,-33.98 144.42,-33.98l180.24 0 0 141.29c-67.63,0 -109.57,3.32 -125.87,9.95 -16.34,6.67 -24.45,26.28 -24.45,58.88 0,32.6 37.11,202.56 111.37,509.87l133.99 554.25 -258.31 0 -107.63 -555.38 -85.05 555.38 -251.71 0z"/>
</symbol>
<symbol id="Fm6-40-0" viewBox="2381.11 -6770.43 2613.67 1521.46">
 <polygon class="fil0" points="2985.2,-6601.06 2825.82,-6601.06 2825.82,-5471.75 2540.53,-5471.75 2540.53,-6601.06 2381.11,-6601.06 2381.11,-6770.43 2985.2,-6770.43 "/>
 <path class="fil0" d="M3343.84 -5671.91l0 -643.89c0,-34.43 -14.82,-51.64 -44.35,-51.64 -30.23,0 -45.26,17.21 -45.26,51.64l0 643.89c0,35.63 15.03,53.45 45.26,53.45 29.53,0 44.35,-17.82 44.35,-53.45zm-347.77 -7.26l0 -629.4c0,-147.88 102.37,-221.86 307.06,-221.86 79.09,0 148.62,17.22 208.7,51.61 60.08,34.4 90.13,88.16 90.13,161.19l0 647.52c0,141.89 -99.59,212.83 -298.83,212.83 -204.69,0 -307.06,-73.94 -307.06,-221.89z"/>
 <path class="fil0" d="M4258.48 -5471.77l-258.09 0 0 -844.05c0,-32 -14.92,-47.98 -44.8,-47.98 -29.88,0 -44.87,15.38 -44.87,46.18l0 845.85 -258.1 0 0 -1051.45 258.1 0 0 35.35c34.53,-28.37 87.8,-42.55 159.8,-42.55 46.64,0 89.64,12.67 129.01,38 39.3,25.36 58.95,62.51 58.95,111.4l0 909.25z"/>
 <path class="fil0" d="M4994.78 -6523.21l-200.13 1045.99c-20.54,106.89 -48.12,171.63 -82.87,194.27 -34.68,22.65 -82.83,33.98 -144.43,33.98l-180.23 0 0 -141.29c67.62,0 109.57,-3.32 125.87,-9.95 16.33,-6.67 24.45,-26.28 24.45,-58.88 0,-32.59 -37.12,-202.56 -111.38,-509.87l-133.98 -554.25 258.3 0 107.63 555.38 85.06 -555.38 251.71 0z"/>
</symbol>
<symbol id="Fm0-28-0" viewBox="20019.87 -10516.22 7702.77 8146.45">
 <path class="fil1" d="M23871.26 -2457.97c2078.35,0 3763.18,-1297.94 3763.18,-2899.06 0,-746.44 -366.29,-1426.95 -967.84,-1940.8 1209.07,-2547.3 -1380.67,-3130.2 -1380.67,-3130.2 1357.07,1600.94 189.55,2499.57 189.55,2499.57l-393.31 -174.23c-380.02,-99.45 -787.26,-153.39 -1210.91,-153.39 -2078.36,0 -3763.19,1297.94 -3763.19,2899.05 0,1601.12 1684.83,2899.06 3763.19,2899.06z"/>
 <path class="fil2 str0" d="M23871.26 -2457.97c2078.35,0 3763.18,-1297.94 3763.18,-2899.06 0,-746.44 -366.29,-1426.95 -967.84,-1940.8 1209.07,-2547.3 -1380.67,-3130.2 -1380.67,-3130.2 1357.07,1600.94 189.55,2499.57 189.55,2499.57l-393.31 -174.23c-380.02,-99.45 -787.26,-153.39 -1210.91,-153.39 -2078.36,0 -3763.19,1297.94 -3763.19,2899.05 0,1601.12 1684.83,2899.06 3763.19,2899.06z"/>
</symbol>
<symbol id="Fm1-30-0" viewBox="2486.44 -18026.88 7785.95 8234.54">
 <path class="fil1" d="M6379.42 -17938.68c-2101.33,0 -3804.78,1312.3 -3804.78,2931.09 0,754.69 370.34,1442.72 978.53,1962.25 -1222.44,2575.46 1395.94,3164.81 1395.94,3164.81 -1372.06,-1618.65 -191.66,-2527.23 -191.66,-2527.23l397.69 176.18c384.21,100.54 795.97,155.11 1224.28,155.11 2101.32,0 3804.77,-1312.3 3804.77,-2931.12 0,-1618.79 -1703.45,-2931.09 -3804.77,-2931.09z"/>
 <path class="fil2 str0" d="M6379.42 -17938.68c-2101.33,0 -3804.78,1312.3 -3804.78,2931.09 0,754.69 370.34,1442.72 978.53,1962.25 -1222.44,2575.46 1395.94,3164.81 1395.94,3164.81 -1372.06,-1618.65 -191.66,-2527.23 -191.66,-2527.23l397.69 176.18c384.21,100.54 795.97,155.11 1224.28,155.11 2101.32,0 3804.77,-1312.3 3804.77,-2931.12 0,-1618.79 -1703.45,-2931.09 -3804.77,-2931.09z"/>
</symbol>
<symbol id="Fm7-42-0" viewBox="2232.99 -3928.48 6566.83 2191.1">
 <path class="fil0" d="M3126.01 -3263.24l-370.17 0 0 -367.56c0,-30.2 -18.73,-45.26 -56.26,-45.26 -39.27,0 -58.92,15.06 -58.92,45.26l0 1287.78c0,30.2 19.65,45.26 58.92,45.26 37.53,0 56.26,-15.06 56.26,-45.26l0 -458.19 370.17 0 0 471.1c0,88.02 -43.18,158.54 -129.43,211.6 -86.25,53.05 -183.8,79.58 -292.49,79.58 -314.08,0 -471.1,-111.26 -471.1,-333.87l0 -1194.57c0,-240.74 157.02,-361.11 471.1,-361.11 281.27,0 421.92,109.61 421.92,328.72l0 336.52z"/>
 <path class="fil0" d="M4075.96 -2055.74l-368.86 0 0 -1211.4c0,-45.72 -20.71,-68.58 -62.13,-68.58 -42.26,0 -63.42,21.98 -63.42,66l0 1213.98 -368.83 0 0 -1855.89 368.83 0 0 398.6c43.92,-37.07 120.05,-55.67 228.49,-55.67 72.28,0 134.65,19.02 187.15,56.98 52.49,37.99 78.77,88.44 78.77,151.41l0 1304.57z"/>
 <path class="fil0" d="M4649.28 -2341.75l0 -920.22c0,-49.15 -21.13,-73.73 -63.39,-73.73 -43.15,0 -64.7,24.58 -64.7,73.73l0 920.22c0,50.9 21.55,76.37 64.7,76.37 42.26,0 63.39,-25.47 63.39,-76.37zm-496.99 -10.37l0 -899.48c0,-211.39 146.26,-317.08 438.75,-317.08 113.03,0 212.48,24.59 298.34,73.8 85.84,49.14 128.77,125.98 128.77,230.37l0 925.33c0,202.78 -142.38,304.17 -427.11,304.17 -292.49,0 -438.75,-105.69 -438.75,-317.11z"/>
 <path class="fil0" d="M5587.59 -2336.58l0 -930.55c0,-45.72 -21.13,-68.58 -63.39,-68.58 -43.15,0 -64.7,22.86 -64.7,68.58l0 933.13c0,44.02 21.55,66 64.7,66 42.26,0 63.39,-22.82 63.39,-68.58zm-128.09 245.89l0 353.31 -368.9 0 0 -1820.94 279.26 0 31.15 60.82c60.57,-47.45 132.39,-71.19 215.44,-71.19 83.92,0 161.54,21.17 232.9,63.43 71.4,42.26 107.11,103.12 107.11,182.49l0 1079.36c0,63.01 -25.97,113.45 -77.86,151.45 -51.9,37.96 -115.08,56.94 -189.44,56.94 -102.94,0 -179.53,-18.59 -229.66,-55.67z"/>
 <path class="fil0" d="M6531.08 -2336.58l0 -930.55c0,-45.72 -21.13,-68.58 -63.4,-68.58 -43.14,0 -64.7,22.86 -64.7,68.58l0 933.13c0,44.02 21.56,66 64.7,66 42.27,0 63.4,-22.82 63.4,-68.58zm-128.1 245.89l0 353.31 -368.9 0 0 -1820.94 279.26 0 31.15 60.82c60.58,-47.45 132.4,-71.19 215.45,-71.19 83.92,0 161.53,21.17 232.9,63.43 71.4,42.26 107.1,103.12 107.1,182.49l0 1079.36c0,63.01 -25.96,113.45 -77.86,151.45 -51.89,37.96 -115.07,56.94 -189.44,56.94 -102.94,0 -179.53,-18.59 -229.66,-55.67z"/>
 <path class="fil0" d="M7474.56 -2917.68l0 -344.27c0,-49.18 -20.7,-73.77 -62.12,-73.77 -42.26,0 -63.39,24.59 -63.39,73.77l0 344.27 125.51 0zm368.87 225.18l-494.38 0 0 350.73c0,50.94 21.13,76.38 63.39,76.38 41.42,0 62.12,-25.44 62.12,-76.38l0 -302.86 368.87 0 0 305.44c0,202.78 -144.53,304.16 -433.57,304.16 -286.49,0 -429.68,-105.65 -429.68,-317.07l0 -899.52c0,-211.34 143.19,-317.07 429.68,-317.07 289.04,0 433.57,101.42 433.57,304.16l0 572.03z"/>
 <path class="fil0" d="M8799.82 -2935.81l-368.86 0 0 -326.15c0,-45.72 -21.13,-68.58 -63.4,-68.58 -42.29,0 -63.39,21.98 -63.39,66.01l0 1208.79 -368.86 0 0 -1502.58 368.86 0 0 50.48c49.14,-40.54 125.1,-60.86 227.75,-60.86 73.35,0 136.32,19.69 188.95,58.92 52.64,39.26 78.95,90.8 78.95,154.62l0 419.35z"/>
</symbol>
<symbol id="Fm5-38-0" viewBox="3639.14 -5302.26 2613.67 1521.46">
 <polygon class="fil0" points="4243.24,-5132.89 4083.85,-5132.89 4083.85,-4003.58 3798.56,-4003.58 3798.56,-5132.89 3639.14,-5132.89 3639.14,-5302.26 4243.24,-5302.26 "/>
 <path class="fil0" d="M4601.87 -4203.74l0 -643.89c0,-34.43 -14.82,-51.65 -44.34,-51.65 -30.24,0 -45.27,17.22 -45.27,51.65l0 643.89c0,35.63 15.03,53.44 45.27,53.44 29.52,0 44.34,-17.81 44.34,-53.44zm-347.77 -7.27l0 -629.39c0,-147.88 102.38,-221.86 307.06,-221.86 79.09,0 148.63,17.21 208.7,51.61 60.08,34.4 90.14,88.16 90.14,161.18l0 647.53c0,141.88 -99.59,212.83 -298.84,212.83 -204.68,0 -307.06,-73.94 -307.06,-221.9z"/>
 <path class="fil0" d="M5516.52 -4003.6l-258.09 0 0 -844.05c0,-32 -14.93,-47.98 -44.81,-47.98 -29.88,0 -44.87,15.38 -44.87,46.18l0 845.85 -258.09 0 0 -1051.45 258.09 0 0 35.35c34.54,-28.37 87.81,-42.55 159.81,-42.55 46.63,0 89.64,12.67 129.01,38 39.3,25.36 58.95,62.51 58.95,111.4l0 909.25z"/>
 <path class="fil0" d="M6252.81 -5055.04l-200.13 1045.99c-20.53,106.89 -48.12,171.63 -82.87,194.27 -34.68,22.65 -82.83,33.98 -144.43,33.98l-180.23 0 0 -141.29c67.63,0 109.57,-3.32 125.87,-9.95 16.34,-6.67 24.45,-26.28 24.45,-58.88 0,-32.59 -37.11,-202.56 -111.37,-509.87l-133.99 -554.25 258.31 0 107.63 555.38 85.05 -555.38 251.71 0z"/>
</symbol>
<symbol id="Fm2-32-0" viewBox="23917.21 -16526.74 2613.67 1521.46">
 <polygon class="fil0" points="25926.78,-15174.64 26086.16,-15174.64 26086.16,-16303.96 26371.46,-16303.96 26371.46,-15174.64 26530.88,-15174.64 26530.88,-15005.28 25926.78,-15005.28 "/>
 <path class="fil0" d="M25568.15 -16103.8l0 643.89c0,34.43 14.78,51.65 44.34,51.65 30.23,0 45.26,-17.22 45.26,-51.65l0 -643.89c0,-35.63 -15.03,-53.44 -45.26,-53.44 -29.56,0 -44.34,17.81 -44.34,53.44zm347.76 7.27l0 629.39c0,147.89 -102.37,221.86 -307.05,221.86 -79.1,0 -148.63,-17.21 -208.71,-51.61 -60.08,-34.39 -90.13,-88.16 -90.13,-161.18l0 -647.53c0,-141.88 99.59,-212.83 298.84,-212.83 204.68,0 307.05,73.95 307.05,221.9z"/>
 <path class="fil0" d="M24653.5 -16303.94l258.09 0 0 844.05c0,32 14.92,47.98 44.8,47.98 29.88,0 44.88,-15.38 44.88,-46.18l0 -845.85 258.09 0 0 1051.45 -258.09 0 0 -35.35c-34.54,28.37 -87.81,42.55 -159.81,42.55 -46.64,0 -89.64,-12.67 -129.01,-38 -39.3,-25.36 -58.95,-62.51 -58.95,-111.4l0 -909.25z"/>
 <path class="fil0" d="M23917.21 -15252.5l200.13 -1045.99c20.53,-106.89 48.11,-171.62 82.86,-194.27 34.68,-22.65 82.84,-33.98 144.43,-33.98l180.23 0 0 141.29c-67.62,0 -109.57,3.32 -125.87,9.95 -16.33,6.67 -24.44,26.28 -24.44,58.88 0,32.6 37.11,202.56 111.37,509.87l133.98 554.25 -258.3 0 -107.63 -555.38 -85.06 555.38 -251.7 0z"/>
</symbol>
<symbol id="Fm4-36-0" viewBox="21370.19 -18570.15 6566.83 2191.09">
 <path class="fil0" d="M27044 -17044.29l370.17 0 0 367.56c0,30.19 18.73,45.26 56.27,45.26 39.26,0 58.91,-15.07 58.91,-45.26l0 -1287.78c0,-30.2 -19.65,-45.26 -58.91,-45.26 -37.54,0 -56.27,15.06 -56.27,45.26l0 458.18 -370.17 0 0 -471.09c0,-88.02 43.18,-158.54 129.44,-211.6 86.25,-53.06 183.79,-79.59 292.48,-79.59 314.08,0 471.1,111.27 471.1,333.87l0 1194.58c0,240.73 -157.02,361.1 -471.1,361.1 -281.27,0 -421.92,-109.61 -421.92,-328.72l0 -336.51z"/>
 <path class="fil0" d="M26094.06 -18251.8l368.86 0 0 1211.4c0,45.72 20.71,68.58 62.12,68.58 42.27,0 63.43,-21.98 63.43,-66l0 -1213.98 368.83 0 0 1855.89 -368.83 0 0 -398.6c-43.92,37.08 -120.05,55.67 -228.49,55.67 -72.28,0 -134.66,-19.02 -187.15,-56.98 -52.49,-37.99 -78.77,-88.44 -78.77,-151.41l0 -1304.57z"/>
 <path class="fil0" d="M25520.73 -17965.78l0 920.22c0,49.14 21.13,73.73 63.4,73.73 43.14,0 64.7,-24.59 64.7,-73.73l0 -920.22c0,-50.91 -21.56,-76.38 -64.7,-76.38 -42.27,0 -63.4,25.47 -63.4,76.38zm497 10.37l0 899.48c0,211.38 -146.3,317.07 -438.75,317.07 -113.03,0 -212.48,-24.59 -298.35,-73.8 -85.83,-49.14 -128.76,-125.98 -128.76,-230.36l0 -925.34c0,-202.77 142.38,-304.16 427.11,-304.16 292.45,0 438.75,105.69 438.75,317.11z"/>
 <path class="fil0" d="M24582.42 -17970.96l0 930.56c0,45.72 21.14,68.58 63.4,68.58 43.14,0 64.7,-22.86 64.7,-68.58l0 -933.14c0,-44.02 -21.56,-66 -64.7,-66 -42.26,0 -63.4,22.82 -63.4,68.58zm128.1 -245.89l0 -353.3 368.9 0 0 1820.93 -279.26 0 -31.15 -60.82c-60.57,47.45 -132.4,71.19 -215.44,71.19 -83.93,0 -161.54,-21.17 -232.91,-63.43 -71.4,-42.26 -107.1,-103.12 -107.1,-182.49l0 -1079.36c0,-63.01 25.96,-113.45 77.86,-151.45 51.89,-37.96 115.07,-56.94 189.44,-56.94 102.94,0 179.49,18.6 229.66,55.67z"/>
 <path class="fil0" d="M23638.94 -17970.96l0 930.56c0,45.72 21.13,68.58 63.39,68.58 43.15,0 64.7,-22.86 64.7,-68.58l0 -933.14c0,-44.02 -21.55,-66 -64.7,-66 -42.26,0 -63.39,22.82 -63.39,68.58zm128.09 -245.89l0 -353.3 368.9 0 0 1820.93 -279.26 0 -31.15 -60.82c-60.57,47.45 -132.4,71.19 -215.44,71.19 -83.93,0 -161.54,-21.17 -232.9,-63.43 -71.41,-42.26 -107.11,-103.12 -107.11,-182.49l0 -1079.36c0,-63.01 25.97,-113.45 77.86,-151.45 51.89,-37.96 115.08,-56.94 189.44,-56.94 102.94,0 179.53,18.6 229.66,55.67z"/>
 <path class="fil0" d="M22695.45 -17389.86l0 344.28c0,49.17 20.71,73.76 62.13,73.76 42.26,0 63.39,-24.59 63.39,-73.76l0 -344.28 -125.52 0zm-368.86 -225.18l494.38 0 0 -350.73c0,-50.94 -21.13,-76.38 -63.39,-76.38 -41.42,0 -62.13,25.44 -62.13,76.38l0 302.86 -368.86 0 0 -305.43c0,-202.78 144.53,-304.17 433.56,-304.17 286.49,0 429.69,105.66 429.69,317.08l0 899.51c0,211.35 -143.2,317.08 -429.69,317.08 -289.03,0 -433.56,-101.43 -433.56,-304.17l0 -572.03z"/>
 <path class="fil0" d="M21370.19 -17371.73l368.87 0 0 326.15c0,45.72 21.13,68.58 63.39,68.58 42.3,0 63.39,-21.98 63.39,-66.01l0 -1208.79 368.87 0 0 1502.59 -368.87 0 0 -50.49c-49.14,40.54 -125.09,60.86 -227.75,60.86 -73.34,0 -136.31,-19.65 -188.95,-58.92 -52.63,-39.26 -78.95,-90.8 -78.95,-154.62l0 -419.35z"/>
</symbol>
 <g id="Capa_x0020_2">
  <metadata id="CorelCorpID_0Corel-Layer"/>
  <rect class="fil3" x="-0" y="-0" width="558.79" height="558.79"/>
  <g id="_2366071120304">
   <g>
    <path class="fil2 str1" d="M370.06 316.16c-0.01,-0.01 -0.02,-0.02 -0.03,-0.02 -0.4,-0.25 -0.87,-0.51 -1.38,-0.79 -5.82,-3.25 -10.31,-5.1 -12.51,-5.92 -0.01,0 -0.02,0 -0.02,0l0 0c-0.01,-0.01 -0.03,-0.01 -0.04,-0.02 11.05,-9.18 19.04,-20.84 23.03,-34.14 0.7,-2.33 1.33,-4.53 1.92,-6.66 -3.15,15.21 -7.42,29.63 -7.83,36.46 -0.25,4.34 0.36,9.13 1.32,13.8 -1.55,-0.98 -3.04,-1.89 -4.46,-2.71zm37.37 123.48l-0.02 0.01c0,-0.01 0.01,-0.01 0.02,-0.01l0 0zm-4.55 21.63l-1.04 0.61c0.9,-0.6 1.77,-1.23 2.61,-1.87l-1.57 1.26zm-140.45 -5.03c2.63,1.92 5.43,3.61 8.27,5.03l-4.85 -2.35 -3.42 -2.68zm-58.14 -195.86c5.64,15.81 20.09,44.27 32.99,54.79 7.32,5.97 17.47,10.42 29.04,13.04 -4.37,2.67 -8.06,7.06 -10.84,11.2l0 -0.61 -34.95 -1.67c-0.24,-4.3 -1.63,-11.61 -7.89,-15.33 0.02,-1.42 -0.04,-2.67 -0.19,-3.7 -1.33,-8.92 -6.74,-7.64 -7.23,-21.44 -0.38,-10.62 2.09,-22.54 -1.3,-35.71l0.37 -0.57zm-97.64 -146.16c0.47,3.92 1.41,8.22 2.44,12.17 -1.17,-4.35 -2.2,-8.88 -2.44,-12.1 0,-0.02 0,-0.04 0,-0.07zm0.36 -7.34c-0.04,-0.01 -0.07,-0.01 -0.11,-0.02 0.06,-0.02 0.11,0.02 0.11,0.02zm342.06 -12.36c0,0.02 0,0.05 -0.01,0.07 0.01,-0.02 0.01,-0.05 0.01,-0.07zm-0.02 0.16c-0.03,0.16 -0.04,0.25 -0.04,0.25 0,0 0.01,-0.09 0.04,-0.25zm12.74 6.26c6.9,-28.75 2.3,-34.5 0,-36.8 -2.15,-2.14 -11.37,-3.51 -11.91,1.89 -0.37,-1.69 -0.89,-3.13 -1.61,-4.19 -4.98,-7.38 -12.93,-1.92 -12.26,5.94 0.5,5.9 -0.13,22.22 -3.18,35.88 -3.76,-7.41 -8.74,-14.77 -15.22,-21.92 -6.76,-7.46 -13.97,-13.89 -21.48,-19.44 -0.46,-2.05 -1.81,-3.16 -4.57,-3.27 -49.6,-33.85 -110.53,-31.03 -141.37,-25.21 -15.16,2.87 -56.72,18.09 -84.28,56.25 -0.36,-0.67 -0.76,-1.27 -1.21,-1.78 -6.38,-7.28 -15.2,0.64 -14.31,8.43 0.45,3.9 1.75,9.36 2.44,15.83 -3.45,7.52 -6.36,15.67 -8.53,24.53 -1.15,4.7 -2,9.24 -2.58,13.63 -1.19,0.32 -2.49,0.37 -3.9,0.21 -10.52,-5.75 -17.58,-42.83 -18.09,-46.91 -0.51,-4.09 -5.24,-7.67 -11.5,-1.54 -0.95,0.93 -1.5,2.44 -1.74,4.32 -14.44,-2.73 -15.88,6.3 -9.64,27.69 6.33,21.66 11.89,34.31 20.13,42.93 8.24,8.63 18.99,4.98 18.99,4.98l-0.1 -0.27c2.87,6.99 7.21,13.21 10.91,17.75 11.51,31.08 35.4,46.32 35.4,46.32 0,0 -1.12,7.63 5.42,12.94 0,0 1.94,6.29 8.53,8.59 2.19,6.22 3.86,13.21 2.98,18.63 -1.77,10.93 -1.46,25.64 1.28,33.81 -1.24,0.2 -2.31,1.11 -2.6,2.42 -0.76,3.52 -1.4,10.28 0.92,20.8 0.01,0.03 0.02,0.06 0.03,0.1 -2.07,4.49 -4.45,7.98 -5.98,8.38 -2.49,0.66 1.33,3.23 5.44,4.28 0.46,5.45 2.11,10.8 6.37,12.36 2.99,1.1 19.47,3.72 39.12,6.59 -2.27,13.12 -3.37,24.63 -3.37,24.63 -2.4,2.29 -1.23,5.07 -1.23,5.07 -1.9,4.99 0.91,7.32 0.91,7.32 -1.41,4.41 2.32,5.25 2.32,5.25 0,0 -5.93,3.66 -1.72,9.22 4.22,5.56 4.03,4.6 8.05,13.61 2.34,5.23 6.3,9.93 11,13.86l-0.03 -0.01c-1.53,5.32 1.43,13.72 1.43,13.72 1.18,1.76 3.95,3.52 7.3,5.11 -0.6,21.44 -7.02,32.45 -7.02,32.45l0 0c-12.05,-2.59 -19.35,1.07 -21.59,2.47 -1.65,-0.62 -3.51,-0.81 -5.46,-0.07 -6.39,2.43 -20.58,13.67 -15.08,15.97 4.16,1.74 12.77,1.67 16.72,1.54 2.89,3.26 13.86,3.32 15.99,3.32 2.4,0 7.33,-0.16 11.52,-3.46 4.86,-0.76 13.53,1.01 15.44,-12.52 1.91,-13.54 6.48,-31.77 6.48,-31.77l0.97 -1.83c0.8,0.17 1.43,0.28 1.82,0.32 3.28,0.28 10.1,-8.96 10.1,-8.96l-0.73 -0.15c33.6,6.43 60.95,4.14 74.18,2.22l-0.01 0.01c1.31,6.91 3.09,6.88 3.09,6.88 2.59,-0.26 5.28,-0.7 7.96,-1.23l0 0c0,0 4.57,18.22 6.48,31.77 1.91,13.52 10.58,11.76 15.44,12.52 4.19,3.3 9.12,3.45 11.52,3.45 2.13,0 13.1,-0.06 15.99,-3.31 3.95,0.13 12.56,0.19 16.72,-1.55 5.49,-2.3 -8.69,-13.54 -15.08,-15.97 -1.95,-0.74 -3.81,-0.55 -5.46,0.07 -2.24,-1.4 -9.55,-5.06 -21.6,-2.47l0.01 0c0,0 -5.8,-9.91 -6.9,-29.24 1.89,-0.67 3.37,-1.25 4.24,-1.65 3.65,-1.66 2.48,-13.39 2.48,-13.39 11.6,-9.82 17.66,-22.91 17.66,-22.91l0 0c0.79,-0.36 1.5,-0.74 2.11,-1.13 6.14,-4.03 0,-8.82 0,-8.82 1.3,-0.28 2.27,-0.75 2.99,-1.34l0.01 0c0.03,-0.02 0.04,-0.04 0.07,-0.06 0.04,-0.04 0.08,-0.07 0.12,-0.11 4.13,-3.23 -0.46,-10.88 -0.46,-10.88 0,0 2.31,-0.96 3.5,-3.85 0.01,-0.01 0.01,-0.02 0.02,-0.03 0.03,-0.07 0.05,-0.14 0.08,-0.21 0.01,-0.04 0.03,-0.07 0.04,-0.1 0.13,-0.35 0.23,-0.71 0.3,-1.08 0.1,-0.45 0.18,-0.92 0.22,-1.44 0.13,-1.72 -0.29,-3.06 -0.9,-4.1 -0.02,-0.02 -0.02,-0.04 -0.02,-0.04l-0.02 -0.02c-1.24,-2.04 -3.22,-2.84 -3.22,-2.84 0.22,-0.94 0.2,-1.73 0.06,-2.39l0 -0.05 -0.03 -0.04c-0.4,-1.73 -1.64,-2.54 -1.64,-2.54 0,0 -0.06,-0.53 -0.21,-1.49 0,0 0,0 0,0 -0.21,-2.2 -1.05,-5.77 -2.43,-10.03 -1.45,-4.67 -3.67,-10.49 -7.03,-16.97 -0.06,-0.11 -0.11,-0.23 -0.17,-0.34 -0.06,-0.11 -0.12,-0.21 -0.17,-0.32 -0.57,-1.08 -1.17,-2.17 -1.8,-3.28 -0.17,-0.29 -0.34,-0.59 -0.52,-0.88 -3.32,-5.72 -7.53,-11.81 -12.86,-17.99 -1.74,-2.02 -3.51,-3.93 -5.27,-5.74 -0.04,-0.04 -0.08,-0.09 -0.12,-0.14 -1.79,-2 -4.06,-4.12 -6.51,-6.22 -1.13,-1 -2.26,-1.97 -3.37,-2.9 -3.86,-11.76 -5.2,-29.99 -0.22,-45.44 2.48,-7.67 3.74,-18.04 4.35,-28.06 7.57,-4.81 17.91,-12.41 18.56,-18.29 0,0 4.6,-5.68 7.66,-12.62 0,0 3.48,-0.73 7.62,-13.03 0,0 21.91,-34.92 17.22,-75.6 7.37,-5.51 14.92,-14.54 19.6,-34.03z"/>
   </g>
   <path class="fil4" d="M383.2 236.13l0 23.08c0,0 25.46,-13.66 26.49,-22.99 0,0 4.6,-5.68 7.66,-12.62 0,0 3.48,-0.73 7.62,-13.03 0,0 44.77,-71.33 -7.36,-128.83 -52.13,-57.5 -130.88,-54.81 -167.43,-47.92 -20.28,3.83 -87.86,29.79 -105.88,103.26 -18.02,73.46 37.88,109.11 37.88,109.11 0,0 -1.12,7.63 5.42,12.94 0,0 2.5,8.14 11.51,9.29l33.35 -51.78 111.01 -8.4 39.73 27.89z"/>
   <g>
    <path class="fil2 str2" d="M383.2 236.13l0 23.08c0,0 25.46,-13.66 26.49,-22.99 0,0 4.6,-5.68 7.66,-12.62 0,0 3.48,-0.73 7.62,-13.03 0,0 44.77,-71.33 -7.36,-128.83 -52.13,-57.5 -130.88,-54.81 -167.43,-47.92 -20.28,3.83 -87.86,29.79 -105.88,103.26 -18.02,73.46 37.88,109.11 37.88,109.11 0,0 -1.12,7.63 5.42,12.94 0,0 2.5,8.14 11.51,9.29l33.35 -51.78 111.01 -8.4 39.73 27.89z"/>
   </g>
   <path class="fil5" d="M349 129.86c2.6,39.18 -29.77,73.23 -72.3,76.06 -42.54,2.83 -79.14,-26.63 -81.74,-65.81 -2.61,-39.18 29.76,-73.23 72.3,-76.06 42.53,-2.84 79.13,26.63 81.74,65.81z"/>
   <path class="fil6" d="M334.43 130.83c2.11,31.77 -24.13,59.38 -58.63,61.68 -34.49,2.29 -64.16,-21.6 -66.28,-53.37 -2.11,-31.77 24.13,-59.38 58.63,-61.68 34.49,-2.29 64.16,21.6 66.28,53.37z"/>
   <path class="fil7" d="M330.73 131.07c1.99,29.89 -22.7,55.87 -55.15,58.03 -32.45,2.16 -60.37,-20.32 -62.36,-50.21 -1.99,-29.88 22.7,-55.86 55.15,-58.02 32.45,-2.16 60.37,20.32 62.36,50.2z"/>
   <g>
    <path class="fil2 str2" d="M166.18 90.97c10.11,-12.26 12.71,3.84 12.71,3.84 1.72,13.22 1.91,37.56 -4.22,54.24 -6.13,16.67 -22.23,26.64 -22.23,26.64 1.02,7.92 6.71,13.61 6.71,13.61 3.25,7.47 -5.39,18.21 -5.39,18.21 0,0 -14.1,-13.04 -19.21,-28.95l1.42 3.83c0,0 -10.75,3.65 -18.99,-4.98 -8.24,-8.62 -13.8,-21.27 -20.13,-42.93 -6.32,-21.66 -4.79,-30.67 10.16,-27.6 0,0 -0.98,-0.9 -0.36,7.41 0.62,8.31 6.5,25.37 6.5,25.37 0,0 -11.19,-31.05 -4.92,-37.19 6.26,-6.13 10.98,-2.55 11.5,1.54 0.51,4.09 7.58,41.18 18.1,46.91l-1.76 -0.15 -1.52 -0.51c8.43,2.3 13.03,0 17.03,-15.84 4.01,-15.85 -0.29,-29.9 -1.19,-37.7 -0.89,-7.79 7.92,-15.71 14.31,-8.43 6.39,7.28 3.45,32.01 3.45,32.01l-1.97 -29.33z"/>
    <path id="1" class="fil8" d="M166.18 90.97c10.11,-12.26 12.71,3.84 12.71,3.84 1.72,13.22 1.91,37.56 -4.22,54.24 -6.13,16.67 -22.23,26.64 -22.23,26.64 1.02,7.92 6.71,13.61 6.71,13.61 3.25,7.47 -5.39,18.21 -5.39,18.21 0,0 -14.1,-13.04 -19.21,-28.95l1.42 3.83c0,0 -10.75,3.65 -18.99,-4.98 -8.24,-8.62 -13.8,-21.27 -20.13,-42.93 -6.32,-21.66 -4.79,-30.67 10.16,-27.6 0,0 -0.98,-0.9 -0.36,7.41 0.62,8.31 6.5,25.37 6.5,25.37 0,0 -11.19,-31.05 -4.92,-37.19 6.26,-6.13 10.98,-2.55 11.5,1.54 0.51,4.09 7.58,41.18 18.1,46.91l-1.76 -0.15 -1.52 -0.51c8.43,2.3 13.03,0 17.03,-15.84 4.01,-15.85 -0.29,-29.9 -1.19,-37.7 -0.89,-7.79 7.92,-15.71 14.31,-8.43 6.39,7.28 3.45,32.01 3.45,32.01l-1.97 -29.33z"/>
   </g>
   <polygon class="fil9" points="255.48,338.8 219.31,337.07 221.16,352.81 255.48,356.24 "/>
   <g>
    <polygon class="fil2 str2" points="255.48,338.8 219.31,337.07 221.16,352.81 255.48,356.24 "/>
   </g>
   <path class="fil10" d="M354.63 308.9c0,0 24.9,7.76 47.64,34.11 22.75,26.36 25.19,51.3 25.19,51.3 0,0 2.43,1.53 1.61,5.02 0,0 4.54,1.82 4.16,7 -0.38,5.17 -4.16,6.71 -4.16,6.71 0,0 6.14,10.45 -2.73,12.39l-6.43 3.48 -114.75 17.25 -33.22 -9.45 -30.25 -14.57 0.63 -4.78c0,0 -3.73,-0.84 -2.32,-5.25 0,0 -2.81,-2.33 -0.91,-7.32 0,0 -1.17,-2.78 1.23,-5.08 0,0 3.02,-31.44 9.33,-49.67 0,0 6.6,-15.91 16.98,-22.03l30.57 -4.77 57.43 -14.34z"/>
   <g>
    <path class="fil2 str2" d="M354.63 308.9c0,0 24.9,7.76 47.64,34.11 22.75,26.36 25.19,51.3 25.19,51.3 0,0 2.43,1.53 1.61,5.02 0,0 4.54,1.82 4.16,7 -0.38,5.17 -4.16,6.71 -4.16,6.71 0,0 6.14,10.45 -2.73,12.39l-6.43 3.48 -114.75 17.25 -33.22 -9.45 -30.25 -14.57 0.63 -4.78c0,0 -3.73,-0.84 -2.32,-5.25 0,0 -2.81,-2.33 -0.91,-7.32 0,0 -1.17,-2.78 1.23,-5.08 0,0 3.02,-31.44 9.33,-49.67 0,0 6.6,-15.91 16.98,-22.03l30.57 -4.77 57.43 -14.34z"/>
   </g>
   <path class="fil5" d="M404.7 429.54c3.19,-9.48 -5.37,-12.18 -5.37,-12.18 0.63,-6.06 -3.7,-9.28 -3.7,-9.28 -15.33,-65.16 -54.03,-90.01 -54.03,-90.01l-11.37 5.47c0,0 19.66,27.04 25.79,74.32 0,0 3.07,19.42 3.07,23.51 0,0 3.88,6.99 1.78,11.86l24.29 -1.39 19.54 -2.3z"/>
   <g>
    <path class="fil2 str2" d="M404.7 429.54c3.19,-9.48 -5.37,-12.18 -5.37,-12.18 0.63,-6.06 -3.7,-9.28 -3.7,-9.28 -15.33,-65.16 -54.03,-90.01 -54.03,-90.01l-11.37 5.47c0,0 19.66,27.04 25.79,74.32 0,0 3.07,19.42 3.07,23.51 0,0 3.88,6.99 1.78,11.86l24.29 -1.39 19.54 -2.3z"/>
   </g>
   <g>
    <path class="fil2 str2" d="M354.63 308.9c0,0 24.9,7.76 47.64,34.11 22.75,26.36 25.19,51.3 25.19,51.3 0,0 2.43,1.53 1.61,5.02 0,0 4.54,1.82 4.16,7 -0.38,5.17 -4.16,6.71 -4.16,6.71 0,0 6.14,10.45 -2.73,12.39l-6.43 3.48 -114.75 17.25 -33.22 -9.45 -30.25 -14.57 0.63 -4.78c0,0 -3.73,-0.84 -2.32,-5.25 0,0 -2.81,-2.33 -0.91,-7.32 0,0 -1.17,-2.78 1.23,-5.08 0,0 3.02,-31.44 9.33,-49.67 0,0 6.6,-15.91 16.98,-22.03l30.57 -4.77 57.43 -14.34z"/>
   </g>
   <path class="fil5" d="M251.24 419.97c-1.92,-4.72 0.9,-7.16 0.9,-7.16 -1.02,-3.32 0.83,-5.62 0.83,-5.62 -0.96,-2.68 1.53,-5.56 1.53,-5.56 -0.49,-19.36 3.07,-35.27 5.19,-48.26 2.13,-12.99 11.96,-24.29 11.96,-24.29l6.71 -1.81 -3.06 13.7c0,0 -2.15,6.6 -3.65,13.09 -1.5,6.49 -4.56,43.29 -2.26,49.42 0,0 -1.6,6.14 -0.26,10.99 0,0 -5.05,4.65 -2.78,9.35l-15.11 -3.85z"/>
   <g>
    <path class="fil2 str2" d="M251.24 419.97c-1.92,-4.72 0.9,-7.16 0.9,-7.16 -1.02,-3.32 0.83,-5.62 0.83,-5.62 -0.96,-2.68 1.53,-5.56 1.53,-5.56 -0.49,-19.36 3.07,-35.27 5.19,-48.26 2.13,-12.99 11.96,-24.29 11.96,-24.29l6.71 -1.81 -3.06 13.7c0,0 -2.15,6.6 -3.65,13.09 -1.5,6.49 -4.56,43.29 -2.26,49.42 0,0 -1.6,6.14 -0.26,10.99 0,0 -5.05,4.65 -2.78,9.35l-15.11 -3.85z"/>
   </g>
   <path class="fil5" d="M286.57 427.9c-2.49,-10.08 3.99,-12.66 3.99,-12.66 -0.8,-6.65 2.54,-9.46 2.54,-9.46 -0.57,-11.75 1.33,-46 1.19,-50.2 -0.13,-4.2 0.07,-8.92 0.07,-8.92l18.85 -6.97c0,0 5.43,52.04 5.34,64.56 0,0 0.86,7.31 0,13.11 0,0 3.67,10.75 0.38,14.67l-27.7 -3.35 -4.66 -0.78z"/>
   <g>
    <path class="fil2 str2" d="M286.57 427.9c-2.49,-10.08 3.99,-12.66 3.99,-12.66 -0.8,-6.65 2.54,-9.46 2.54,-9.46 -0.57,-11.75 1.33,-46 1.19,-50.2 -0.13,-4.2 0.07,-8.92 0.07,-8.92l18.85 -6.97c0,0 5.43,52.04 5.34,64.56 0,0 0.86,7.31 0,13.11 0,0 3.67,10.75 0.38,14.67l-27.7 -3.35 -4.66 -0.78z"/>
   </g>
   <path class="fil5" d="M276.57 329.87c0,0 -3.86,6.88 -1.27,11.1 2.58,4.22 7.66,5.62 14.85,5.68 7.19,0.07 15.62,-1.37 21.85,-5.97 6.23,-4.6 9.19,-14.04 9.19,-14.04 0,0 -32.43,-5.39 -44.62,3.23z"/>
   <g>
    <path class="fil2 str2" d="M276.57 329.87c0,0 -3.86,6.88 -1.27,11.1 2.58,4.22 7.66,5.62 14.85,5.68 7.19,0.07 15.62,-1.37 21.85,-5.97 6.23,-4.6 9.19,-14.04 9.19,-14.04 0,0 -32.43,-5.39 -44.62,3.23z"/>
   </g>
   <path class="fil11" d="M316.58 387.48c0,0 0.87,7.86 13.58,5.33 12.7,-2.52 23.14,-39.88 0,-37.08 -23.14,2.8 -13.58,31.75 -13.58,31.75z"/>
   <g>
    <path class="fil2 str3" d="M316.58 387.48c0,0 0.87,7.86 13.58,5.33 12.7,-2.52 23.14,-39.88 0,-37.08 -23.14,2.8 -13.58,31.75 -13.58,31.75z"/>
   </g>
   <g>
    <path class="fil2 str2" d="M382.31 87.65c-1.41,-22.49 0.51,-27.73 6.77,-28.49 6.26,-0.77 7.67,1.66 7.16,6.9 -0.52,5.23 -0.77,17.37 1.78,36.8 2.56,19.42 11.11,25.45 11.11,25.45l-4.17 -0.73c9.68,2.01 17.6,2.24 23.99,-11.69 6.39,-13.93 7.73,-40.25 7.06,-48.11 -0.67,-7.86 7.28,-13.32 12.26,-5.94 4.99,7.38 0.74,33.09 0.74,33.09 0,0 2.52,-15.11 0.89,-27.6 -0.9,-6.91 9.59,-5.49 11.89,-3.19 2.3,2.3 6.9,8.05 0,36.8 -6.9,28.75 -20.07,34.75 -29.65,40.25 -9.58,5.49 -15.72,4.73 -15.72,4.73l5.63 -0.39 0 0.39c0,0 0,5.36 -0.51,11.37 -0.52,6 -1.41,13.03 -11.63,16.48 -10.22,3.45 -25.94,4.99 -26.71,1.84 -0.76,-3.16 -0.51,-5.67 0.64,-11.04 1.15,-5.36 5.62,-4.45 5.62,-4.45 0,0 12.91,2.92 12.95,-6.66 0.03,-9.59 -12.24,-10.73 -12.24,-10.73 0,0 -17.93,-3.66 -20.63,-51.6 0,0 -1.8,-17.79 2.55,-26.61 4.34,-8.81 12.26,-2.8 12.26,-2.8l-2.04 25.93z"/>
    <path id="1" class="fil8" d="M382.31 87.65c-1.41,-22.49 0.51,-27.73 6.77,-28.49 6.26,-0.77 7.67,1.66 7.16,6.9 -0.52,5.23 -0.77,17.37 1.78,36.8 2.56,19.42 11.11,25.45 11.11,25.45l-4.17 -0.73c9.68,2.01 17.6,2.24 23.99,-11.69 6.39,-13.93 7.73,-40.25 7.06,-48.11 -0.67,-7.86 7.28,-13.32 12.26,-5.94 4.99,7.38 0.74,33.09 0.74,33.09 0,0 2.52,-15.11 0.89,-27.6 -0.9,-6.91 9.59,-5.49 11.89,-3.19 2.3,2.3 6.9,8.05 0,36.8 -6.9,28.75 -20.07,34.75 -29.65,40.25 -9.58,5.49 -15.72,4.73 -15.72,4.73l5.63 -0.39 0 0.39c0,0 0,5.36 -0.51,11.37 -0.52,6 -1.41,13.03 -11.63,16.48 -10.22,3.45 -25.94,4.99 -26.71,1.84 -0.76,-3.16 -0.51,-5.67 0.64,-11.04 1.15,-5.36 5.62,-4.45 5.62,-4.45 0,0 12.91,2.92 12.95,-6.66 0.03,-9.59 -12.24,-10.73 -12.24,-10.73 0,0 -17.93,-3.66 -20.63,-51.6 0,0 -1.8,-17.79 2.55,-26.61 4.34,-8.81 12.26,-2.8 12.26,-2.8l-2.04 25.93z"/>
   </g>
   <path class="fil9" d="M279.03 330.17c0,0 -3.84,8.02 0,11.28 3.84,3.26 30.18,7.42 39.52,-14.09 0,0 -31.02,-0.87 -39.52,2.81z"/>
   <g>
    <path class="fil2 str2" d="M279.03 330.17c0,0 -3.84,8.02 0,11.28 3.84,3.26 30.18,7.42 39.52,-14.09 0,0 -31.02,-0.87 -39.52,2.81z"/>
   </g>
   <path class="fil9" d="M377.84 165.15c0,0 -9.59,-0.39 -14.19,12.46 -4.6,12.84 23.36,8.05 26.54,4.98 3.17,-3.07 3.92,-5.37 0,-6.13 -3.92,-0.77 -7.75,-3.26 -12.35,-11.31z"/>
   <g>
    <path class="fil2 str2" d="M377.84 165.15c0,0 -9.59,-0.39 -14.19,12.46 -4.6,12.84 23.36,8.05 26.54,4.98 3.17,-3.07 3.92,-5.37 0,-6.13 -3.92,-0.77 -7.75,-3.26 -12.35,-11.31z"/>
   </g>
   <path class="fil8" d="M172.13 190.64c0,0 2.16,0.51 4.58,0 2.43,-0.51 3.84,14.44 3.84,14.44l2.3 5.73 -4.5 0c-4.75,1.39 -9.43,0.53 -9.43,0.53 0,0 -7.95,-13.42 3.21,-20.7z"/>
   <g>
    <path class="fil2 str2" d="M172.13 190.64c0,0 2.16,0.51 4.58,0 2.43,-0.51 3.84,14.44 3.84,14.44l2.3 5.73 -4.5 0c-4.75,1.39 -9.43,0.53 -9.43,0.53 0,0 -7.95,-13.42 3.21,-20.7z"/>
   </g>
   <path class="fil9" d="M196.14 210c0,0 -0.77,-11.5 -6.14,-13.42 -5.36,-1.92 -7.09,13.42 -15.14,16.68 -8.05,3.25 3.84,7.28 8.43,7.28l10.93 0c0,0 4.98,-8.63 1.92,-10.54z"/>
   <g>
    <path class="fil2 str2" d="M196.14 210c0,0 -0.77,-11.5 -6.14,-13.42 -5.36,-1.92 -7.09,13.42 -15.14,16.68 -8.05,3.25 3.84,7.28 8.43,7.28l10.93 0c0,0 4.98,-8.63 1.92,-10.54z"/>
   </g>
   <path class="fil1" d="M268.97 113.21c0,0 12.01,-19.17 16.87,-19.43 4.85,-0.25 21.46,4.09 17.89,17.38 0,0 -7.67,12.52 -12.02,16.1 0,0 14.06,10.74 17.13,16.87 0,0 -9.2,13.8 -19.94,20.95 0,0 -12.52,-6.9 -18.91,-13.54 0,0 -8.69,12.78 -15.84,18.91 0,0 -14.31,-3.58 -18.66,-16.35 0,0 3.84,-11.31 13.8,-18.56 0,0 -14.82,-9.04 -16.35,-14.92 0,0 2.04,-12.78 14.31,-20.19 0,0 9.2,-0.26 21.72,12.78z"/>
   <g>
    <path class="fil2 str2" d="M268.97 113.21c0,0 12.01,-19.17 16.87,-19.43 4.85,-0.25 21.46,4.09 17.89,17.38 0,0 -7.67,12.52 -12.02,16.1 0,0 14.06,10.74 17.13,16.87 0,0 -9.2,13.8 -19.94,20.95 0,0 -12.52,-6.9 -18.91,-13.54 0,0 -8.69,12.78 -15.84,18.91 0,0 -14.31,-3.58 -18.66,-16.35 0,0 3.84,-11.31 13.8,-18.56 0,0 -14.82,-9.04 -16.35,-14.92 0,0 2.04,-12.78 14.31,-20.19 0,0 9.2,-0.26 21.72,12.78z"/>
   </g>
   <path class="fil5" d="M421.87 426.47c3.23,-8.19 -2.21,-10.21 -2.21,-10.21 5.11,-7.92 -0.26,-10.73 -0.26,-10.73 1.27,-7.16 -2.56,-8.18 -2.56,-8.18 -17.89,-56.73 -64.93,-86.21 -64.93,-86.21l4.21 -1.71c0,0 9.96,4.31 13.91,6.71 3.95,2.39 19.42,12.69 26.85,20.99 7.43,8.3 15.13,17.43 20.74,28.35 5.61,10.92 9.17,22.48 9.63,27.34 0.45,4.85 0.21,1.5 0.21,1.5l1.67 2.57 -0.06 2.44 3.24 2.86c0,0 1.65,4.01 0.28,6.97 -1.37,2.95 -3.52,3.88 -3.52,3.88 0,0 4.77,7.91 0.27,11.04l-7.47 2.39z"/>
   <g>
    <path class="fil2 str2" d="M421.87 426.47c3.23,-8.19 -2.21,-10.21 -2.21,-10.21 5.11,-7.92 -0.26,-10.73 -0.26,-10.73 1.27,-7.16 -2.56,-8.18 -2.56,-8.18 -17.89,-56.73 -64.93,-86.21 -64.93,-86.21l4.21 -1.71c0,0 9.96,4.31 13.91,6.71 3.95,2.39 19.42,12.69 26.85,20.99 7.43,8.3 15.13,17.43 20.74,28.35 5.61,10.92 9.17,22.48 9.63,27.34 0.45,4.85 0.21,1.5 0.21,1.5l1.67 2.57 -0.06 2.44 3.24 2.86c0,0 1.65,4.01 0.28,6.97 -1.37,2.95 -3.52,3.88 -3.52,3.88 0,0 4.77,7.91 0.27,11.04l-7.47 2.39z"/>
   </g>
   <path class="fil9" d="M386.52 233.01c0,0 -29.13,-22.51 -98.89,-13.97 -69.77,8.54 -83.31,26.25 -85.61,30.73 -2.31,4.49 17.88,51.23 35.26,65.4 17.38,14.17 50.6,19.83 81.27,12.51 30.66,-7.32 52.9,-26.91 60.56,-52.41 7.67,-25.5 8.44,-38.95 7.41,-42.26z"/>
   <g>
    <path class="fil2 str2" d="M386.52 233.01c0,0 -29.13,-22.51 -98.89,-13.97 -69.77,8.54 -83.31,26.25 -85.61,30.73 -2.31,4.49 17.88,51.23 35.26,65.4 17.38,14.17 50.6,19.83 81.27,12.51 30.66,-7.32 52.9,-26.91 60.56,-52.41 7.67,-25.5 8.44,-38.95 7.41,-42.26z"/>
   </g>
   <path class="fil12" d="M298.77 304.15l-1.75 -1.03c0,0 -3.72,-1.82 -5.09,-3.38l-1.37 -1.56 -1.04 2.99c0,0 -1.69,3.75 -3.19,4.96 -1.5,1.21 -2.67,2.39 -6.05,2.26 0,0 2.73,5.98 4.58,7.96l2.46 -3.06c0,0 6.35,-7.6 11.45,-9.14z"/>
   <path class="fil13" d="M284.97 316.5c6.55,-9.97 14.37,-12.5 14.37,-12.5 0,0 2.88,0 6.5,-0.04 0,0 1.46,13.56 -8.12,15.86 -9.58,2.3 -12.75,-3.32 -12.75,-3.32 0,0 -2.57,-3.11 -4.69,-7.96l4.69 7.96z"/>
   <g>
    <path class="fil2 str4" d="M284.97 316.5c6.55,-9.97 14.37,-12.5 14.37,-12.5 0,0 2.64,0.46 6.5,0 0,0 1.46,13.52 -8.12,15.82 -9.58,2.3 -12.75,-3.32 -12.75,-3.32 0,0 -2.57,-3.11 -4.69,-7.96"/>
   </g>
   <path class="fil14" d="M315.77 299.32c0,0 -1.45,1.27 -3.96,2.69 -0.64,0.31 -1.32,0.72 -2.09,1.02 -0.75,0.34 -1.57,0.65 -2.44,0.9 -0.86,0.32 -1.8,0.43 -2.73,0.65 -0.48,0.06 -0.96,0.08 -1.44,0.13 -0.49,0.05 -0.98,0.08 -1.47,0.03l-1.47 -0.09c-0.49,-0.05 -0.96,-0.19 -1.44,-0.28 -0.98,-0.14 -1.84,-0.57 -2.7,-0.94 -0.44,-0.17 -0.84,-0.39 -1.19,-0.66 -0.37,-0.25 -0.73,-0.5 -1.07,-0.76 -0.72,-0.46 -1.22,-1.1 -1.74,-1.61 -0.5,-0.54 -0.99,-1 -1.28,-1.52 -0.33,-0.49 -0.61,-0.92 -0.83,-1.28 -0.45,-0.72 -0.68,-1.13 -0.68,-1.13 -0.02,-0.03 -0.01,-0.06 0.02,-0.08 0.02,-0.01 0.05,-0.01 0.07,0.01l0 0.01c0,0 0.35,0.34 0.92,0.95 0.28,0.3 0.62,0.67 1,1.1 0.34,0.46 0.9,0.81 1.41,1.28 0.54,0.45 1.05,1.01 1.76,1.38 0.7,0.36 1.31,0.97 2.13,1.24 0.78,0.35 1.56,0.77 2.45,0.96 0.43,0.11 0.87,0.27 1.32,0.34l1.37 0.16c0.46,0.07 0.92,0.06 1.38,0.03 0.46,-0.02 0.92,-0.02 1.38,-0.06 0.9,-0.16 1.81,-0.23 2.65,-0.5 0.42,-0.11 0.84,-0.23 1.25,-0.34 0.4,-0.14 0.79,-0.28 1.17,-0.42 0.77,-0.25 1.45,-0.61 2.11,-0.88 2.56,-1.25 4.07,-2.42 4.07,-2.42 0.03,-0.01 0.06,-0.01 0.08,0.01 0.02,0.03 0.02,0.06 -0.01,0.08z"/>
   <polygon class="fil9" points="336.73,359.06 323.12,359.18 315.48,376.65 320.3,389.46 330.05,390.39 334.65,386.9 338.52,381.65 341.6,372.79 341.13,364.35 "/>
   <path class="fil14" d="M291.12 298.32c0,0 -0.42,1.65 -1.54,3.89 -0.57,1.12 -1.33,2.38 -2.39,3.56 -1.05,1.17 -2.46,2.25 -4.13,2.66 -1.67,0.43 -3.42,0.13 -4.84,-0.49 -0.72,-0.29 -1.37,-0.66 -1.97,-1.03 -0.59,-0.39 -1.14,-0.77 -1.61,-1.17 -0.96,-0.77 -1.7,-1.47 -2.2,-1.98 -0.5,-0.51 -0.79,-0.8 -0.79,-0.8 0,0 0.3,0.27 0.82,0.76 0.52,0.49 1.29,1.16 2.28,1.88 0.48,0.37 1.04,0.73 1.64,1.08 0.6,0.33 1.25,0.68 1.97,0.92 1.4,0.54 3.04,0.73 4.54,0.27 1.51,-0.44 2.76,-1.48 3.7,-2.61 0.93,-1.15 1.61,-2.38 2.1,-3.47 0.49,-1.09 0.82,-2.04 1.02,-2.7 0.2,-0.68 0.28,-1.05 0.28,-1.05 0.07,-0.31 0.38,-0.51 0.69,-0.44 0.31,0.07 0.51,0.37 0.44,0.69 0,0 -0.01,0.01 -0.01,0.01l0 0.02z"/>
   <g>
    <path class="fil2 str2" d="M406.75 502.57c0,0 -6.68,-11.4 -7.06,-33.63l-19.36 4.6 2.4 4.52c0,0 4.57,18.22 6.48,31.77 1.92,13.54 10.6,11.75 15.46,12.52 4.86,0.76 16.36,-8.95 16.36,-8.95l8.04 -7.85c0,0 -10.03,-8.05 -29.19,-0.96l6.87 -2.02z"/>
    <path id="1" class="fil9" d="M406.75 502.57c0,0 -6.68,-11.4 -7.06,-33.63l-19.36 4.6 2.4 4.52c0,0 4.57,18.22 6.48,31.77 1.92,13.54 10.6,11.75 15.46,12.52 4.86,0.76 16.36,-8.95 16.36,-8.95l8.04 -7.85c0,0 -10.03,-8.05 -29.19,-0.96l6.87 -2.02z"/>
   </g>
   <path class="fil15" d="M418.85 510.08c0,0 5.5,-7.54 11.89,-5.11 6.39,2.43 20.57,13.67 15.07,15.97 -5.49,2.3 -18.78,1.45 -18.78,1.45 0,0 -8.05,-9.37 -8.18,-12.31z"/>
   <g>
    <path class="fil2 str2" d="M418.85 510.08c0,0 5.5,-7.54 11.89,-5.11 6.39,2.43 20.57,13.67 15.07,15.97 -5.49,2.3 -18.78,1.45 -18.78,1.45 0,0 -8.05,-9.37 -8.18,-12.31z"/>
   </g>
   <path class="fil15" d="M397.26 516.98c0,0 8.43,-15.62 26.19,-3.46 17.76,12.15 -7.03,12.28 -10.35,12.28 -3.32,0 -11.5,-0.26 -15.84,-8.82z"/>
   <g>
    <path class="fil2 str2" d="M397.26 516.98c0,0 8.43,-15.62 26.19,-3.46 17.76,12.15 -7.03,12.28 -10.35,12.28 -3.32,0 -11.5,-0.26 -15.84,-8.82z"/>
   </g>
   <g>
    <path class="fil2 str2" d="M261.33 505.32c0,0 6.68,-11.4 7.06,-33.64l19.36 4.6 -2.4 4.52c0,0 -4.57,18.23 -6.49,31.77 -1.91,13.55 -10.6,11.76 -15.45,12.52 -4.86,0.77 -16.36,-8.94 -16.36,-8.94l-8.04 -7.86c0,0 10.02,-8.05 29.19,-0.96l-6.87 -2.01z"/>
    <path id="1" class="fil9" d="M261.33 505.32c0,0 6.68,-11.4 7.06,-33.64l19.36 4.6 -2.4 4.52c0,0 -4.57,18.23 -6.49,31.77 -1.91,13.55 -10.6,11.76 -15.45,12.52 -4.86,0.77 -16.36,-8.94 -16.36,-8.94l-8.04 -7.86c0,0 10.02,-8.05 29.19,-0.96l-6.87 -2.01z"/>
   </g>
   <path class="fil15" d="M267.75 519.73c0,0 -8.43,-15.62 -26.19,-3.47 -17.76,12.16 7.03,12.28 10.35,12.28 3.32,0 11.5,-0.25 15.84,-8.81z"/>
   <g>
    <path class="fil2 str2" d="M267.75 519.73c0,0 -8.43,-15.62 -26.19,-3.47 -17.76,12.16 7.03,12.28 10.35,12.28 3.32,0 11.5,-0.25 15.84,-8.81z"/>
   </g>
   <path class="fil14" d="M274.67 246.87c0,0 -0.12,1.49 -0.69,3.65 -0.14,0.55 -0.33,1.12 -0.53,1.74 -0.25,0.59 -0.46,1.24 -0.8,1.87 -0.16,0.31 -0.32,0.64 -0.48,0.97 -0.2,0.31 -0.4,0.62 -0.6,0.94 -0.37,0.66 -0.93,1.2 -1.41,1.82 -0.59,0.5 -1.1,1.13 -1.78,1.51 -0.33,0.21 -0.67,0.42 -0.99,0.62 -0.34,0.19 -0.72,0.28 -1.07,0.42 -0.36,0.1 -0.7,0.25 -1.06,0.3 -0.36,0.04 -0.71,0.08 -1.05,0.1 -0.34,0.01 -0.67,0.06 -0.99,0.04 -0.31,-0.05 -0.61,-0.1 -0.9,-0.15 -0.58,-0.11 -1.11,-0.15 -1.54,-0.35 -0.44,-0.16 -0.82,-0.31 -1.12,-0.46 -0.61,-0.26 -0.94,-0.43 -0.94,-0.43 -0.03,-0.02 -0.05,-0.07 -0.03,-0.11 0.02,-0.03 0.04,-0.04 0.07,-0.04l0.01 0c0,0 0.39,0.01 1.03,0.06 0.32,0.02 0.71,0.06 1.14,0.12 0.43,0.09 0.93,-0.03 1.45,-0.01 0.53,0.01 1.09,0 1.66,-0.15 0.29,-0.06 0.59,-0.1 0.89,-0.14 0.3,-0.05 0.58,-0.2 0.88,-0.29 0.3,-0.1 0.62,-0.16 0.91,-0.3 0.29,-0.15 0.59,-0.3 0.88,-0.45 0.63,-0.26 1.12,-0.78 1.69,-1.17 0.47,-0.52 1.02,-0.97 1.41,-1.56 0.21,-0.28 0.42,-0.56 0.63,-0.83 0.18,-0.3 0.35,-0.59 0.53,-0.88 0.37,-0.56 0.61,-1.18 0.91,-1.73 0.25,-0.57 0.5,-1.11 0.69,-1.62 0.77,-2.06 1.05,-3.51 1.05,-3.51 0,-0.04 0.04,-0.07 0.08,-0.06 0.04,0.01 0.07,0.04 0.07,0.08z"/>
   <path class="fil14" d="M251.23 258.6c0,0 -1.75,-0.44 -4.19,-1.38 -2.46,-0.94 -5.65,-2.4 -8.63,-4.23 -0.75,-0.45 -1.48,-0.92 -2.18,-1.42 -0.72,-0.47 -1.39,-0.98 -2.04,-1.48 -0.66,-0.48 -1.26,-0.99 -1.83,-1.48 -0.57,-0.48 -1.1,-0.95 -1.56,-1.41 -0.95,-0.89 -1.69,-1.69 -2.18,-2.26 -0.51,-0.57 -0.79,-0.89 -0.79,-0.89 0,0 0.3,0.31 0.84,0.84 0.52,0.55 1.3,1.3 2.3,2.13 0.47,0.44 1.02,0.87 1.62,1.31 0.58,0.46 1.21,0.93 1.89,1.37 0.66,0.46 1.35,0.93 2.09,1.35 0.71,0.45 1.46,0.87 2.23,1.27 3.02,1.64 6.22,2.9 8.67,3.68 2.45,0.79 4.1,1.1 4.1,1.1 0.42,0.08 0.69,0.48 0.61,0.9 -0.08,0.42 -0.48,0.69 -0.89,0.61 -0.02,0 -0.03,-0.01 -0.05,-0.01l-0.01 0z"/>
   <path class="fil14" d="M349.45 236.71c0,0 -1.82,1.48 -4.69,3.43 -2.87,1.96 -6.82,4.38 -10.92,6.5 -2.05,1.07 -4.14,2.05 -6.12,2.91 -0.98,0.46 -1.96,0.83 -2.88,1.2 -0.91,0.38 -1.79,0.71 -2.61,0.99 -1.62,0.6 -2.99,1.03 -3.96,1.31 -0.96,0.3 -1.51,0.46 -1.51,0.46 0,0 0.54,-0.19 1.49,-0.52 0.95,-0.33 2.31,-0.81 3.89,-1.48 0.81,-0.31 1.67,-0.67 2.56,-1.09 0.9,-0.4 1.86,-0.82 2.82,-1.31 1.93,-0.94 3.97,-2 5.95,-3.15 3.98,-2.27 7.79,-4.83 10.54,-6.88 2.76,-2.04 4.45,-3.54 4.45,-3.54 0.32,-0.28 0.81,-0.25 1.09,0.07 0.28,0.31 0.25,0.8 -0.07,1.08 -0.01,0.01 -0.02,0.02 -0.03,0.02z"/>
   <path class="fil14" d="M303.8 240.98c0,0 0.13,0.94 0.53,2.3 0.42,1.36 1.05,3.14 2.01,4.71 0.27,0.37 0.49,0.77 0.78,1.1 0.3,0.34 0.54,0.7 0.84,0.99 0.27,0.32 0.52,0.64 0.78,0.92 0.26,0.27 0.48,0.58 0.73,0.8 0.25,0.23 0.46,0.46 0.66,0.67 0.21,0.19 0.4,0.35 0.55,0.5 0.31,0.28 0.49,0.47 0.49,0.47l0 0.01c0.03,0.03 0.03,0.08 0,0.11 -0.02,0.02 -0.04,0.03 -0.06,0.03 0,0 -0.25,-0.04 -0.68,-0.14 -0.21,-0.05 -0.48,-0.12 -0.77,-0.22 -0.28,-0.12 -0.6,-0.27 -0.93,-0.46 -0.36,-0.16 -0.67,-0.43 -1.02,-0.7 -0.36,-0.25 -0.66,-0.6 -0.97,-0.96 -0.61,-0.74 -1.06,-1.66 -1.49,-2.55 -0.81,-1.82 -1.27,-3.73 -1.44,-5.17 -0.18,-1.44 -0.16,-2.4 -0.16,-2.4 0,-0.04 0.03,-0.08 0.08,-0.08 0.04,0 0.07,0.03 0.07,0.07z"/>
   <path class="fil14" d="M297.41 244.05c0,0 0.08,0.44 0.28,1.08 0.21,0.63 0.47,1.47 0.86,2.23 0.18,0.39 0.44,0.74 0.62,1.08 0.16,0.35 0.26,0.7 0.34,1.02 0.08,0.32 0.14,0.6 0.16,0.82 0.03,0.22 0.03,0.37 0.03,0.37 0,0.05 -0.04,0.09 -0.1,0.09 0,0 -0.02,0 -0.02,0 0,0 -0.14,-0.03 -0.34,-0.13 -0.23,-0.08 -0.49,-0.25 -0.77,-0.5 -0.28,-0.25 -0.56,-0.59 -0.74,-1 -0.18,-0.41 -0.25,-0.9 -0.35,-1.36 -0.18,-0.93 -0.27,-1.86 -0.22,-2.55 0.02,-0.7 0.1,-1.15 0.1,-1.15 0.01,-0.04 0.05,-0.07 0.09,-0.06 0.03,0 0.06,0.03 0.06,0.06z"/>
   <path class="fil11" d="M328.74 248.81c6.89,1.33 12.1,7.39 12.1,14.67 0,8.26 -6.69,14.95 -14.95,14.95 -8.25,0 -14.95,-6.69 -14.95,-14.95 0,-3.65 1.31,-6.98 3.48,-9.58 1.35,-0.13 2.34,-0.39 2.34,-0.39 4.29,-1.3 8.31,-2.95 11.98,-4.7z"/>
   <g>
    <path class="fil2 str3" d="M328.74 248.81c6.89,1.33 12.1,7.39 12.1,14.67 0,8.26 -6.69,14.95 -14.95,14.95 -8.25,0 -14.95,-6.69 -14.95,-14.95 0,-3.65 1.31,-6.98 3.48,-9.58 1.35,-0.13 2.34,-0.39 2.34,-0.39 4.29,-1.3 8.31,-2.95 11.98,-4.7z"/>
   </g>
   <path class="fil11" d="M266.35 272.53c0,8.26 -6.69,14.95 -14.95,14.95 -8.26,0 -14.95,-6.69 -14.95,-14.95 0,-8.26 6.18,-14.95 14.44,-14.95 0,0 4.11,1.46 8.51,2.33 4.17,2.66 6.95,7.31 6.95,12.62z"/>
   <g>
    <path class="fil2 str3" d="M266.35 272.53c0,8.26 -6.69,14.95 -14.95,14.95 -8.26,0 -14.95,-6.69 -14.95,-14.95 0,-8.26 6.18,-14.95 14.44,-14.95 0,0 4.11,1.46 8.51,2.33 4.17,2.66 6.95,7.31 6.95,12.62z"/>
   </g>
   <path class="fil16" d="M317.31 262.26c3.22,0 5.83,-2.61 5.83,-5.83 0,-1.16 -0.34,-2.23 -0.92,-3.13 1.15,-0.43 2.38,-0.7 3.68,-0.7 5.79,0 10.5,4.7 10.5,10.5 0,5.8 -4.71,10.5 -10.5,10.5 -5.8,0 -10.51,-4.7 -10.51,-10.5 0,-0.4 0.08,-0.77 0.12,-1.15 0.57,0.19 1.17,0.31 1.8,0.31z"/>
   <g>
    <path class="fil2 str2" d="M317.31 262.26c3.22,0 5.83,-2.61 5.83,-5.83 0,-1.16 -0.34,-2.23 -0.92,-3.13 1.15,-0.43 2.38,-0.7 3.68,-0.7 5.79,0 10.5,4.7 10.5,10.5 0,5.8 -4.71,10.5 -10.5,10.5 -5.8,0 -10.51,-4.7 -10.51,-10.5 0,-0.4 0.08,-0.77 0.12,-1.15 0.57,0.19 1.17,0.31 1.8,0.31z"/>
   </g>
   <path class="fil16" d="M242.7 271.67c3.34,0 6.04,-2.71 6.04,-6.05 0,-1.2 -0.36,-2.31 -0.96,-3.25 1.19,-0.44 2.47,-0.72 3.81,-0.72 6.01,0 10.88,4.87 10.88,10.88 0,6.01 -4.87,10.88 -10.88,10.88 -6.01,0 -10.88,-4.87 -10.88,-10.88 0,-0.41 0.08,-0.79 0.12,-1.19 0.59,0.2 1.21,0.33 1.87,0.33z"/>
   <g>
    <path class="fil2 str2" d="M242.7 271.67c3.34,0 6.04,-2.71 6.04,-6.05 0,-1.2 -0.36,-2.31 -0.96,-3.25 1.19,-0.44 2.47,-0.72 3.81,-0.72 6.01,0 10.88,4.87 10.88,10.88 0,6.01 -4.87,10.88 -10.88,10.88 -6.01,0 -10.88,-4.87 -10.88,-10.88 0,-0.41 0.08,-0.79 0.12,-1.19 0.59,0.2 1.21,0.33 1.87,0.33z"/>
   </g>
   <path class="fil17" d="M295.61 282.76c-2.79,-0.04 -8.59,0.24 -14.5,2.66 -0.98,0.4 -1.33,1.62 -0.68,2.46 1.4,1.82 4.11,4.47 7.9,4.34 4.85,-0.16 8.07,-4.01 8.84,-7.51 0.22,-1 -0.54,-1.94 -1.56,-1.95z"/>
   <g>
    <path class="fil2 str2" d="M295.61 282.76c-2.79,-0.04 -8.59,0.24 -14.5,2.66 -0.98,0.4 -1.33,1.62 -0.68,2.46 1.4,1.82 4.11,4.47 7.9,4.34 4.85,-0.16 8.07,-4.01 8.84,-7.51 0.22,-1 -0.54,-1.94 -1.56,-1.95z"/>
   </g>
   <g>
    <path class="fil2 str2" d="M298.25 470.33l-6.86 -1.39c50.8,11.11 88.94,1.91 88.94,1.91l-8.65 1.55c1.32,6.92 3.09,6.89 3.09,6.89 11.69,-1.15 25.68,-5.94 29.32,-7.61 3.65,-1.66 2.48,-13.39 2.48,-13.39l-3.69 2.98 -5.88 3.45c17.83,-9.01 27.23,-29.34 27.23,-29.34l-5.91 2.03 -10.89 2.23 -3.91 0.55c0,0 16.67,-1.92 22.82,-5.94 6.14,-4.03 0,-8.82 0,-8.82 0,0 -84.94,22.39 -184.02,-8.07 0,0 -5.93,3.66 -1.72,9.22 4.22,5.56 4.03,4.6 8.05,13.61 4.03,9.01 12.84,16.48 22.04,21.08l-4.83 -2.35 -6.24 -4.88c-1.53,5.32 1.43,13.72 1.43,13.72 3.76,5.62 23.81,11.25 27.09,11.53 3.28,0.28 10.11,-8.96 10.11,-8.96z"/>
    <path id="1" class="fil18" d="M298.25 470.33l-6.86 -1.39c50.8,11.11 88.94,1.91 88.94,1.91l-8.65 1.55c1.32,6.92 3.09,6.89 3.09,6.89 11.69,-1.15 25.68,-5.94 29.32,-7.61 3.65,-1.66 2.48,-13.39 2.48,-13.39l-3.69 2.98 -5.88 3.45c17.83,-9.01 27.23,-29.34 27.23,-29.34l-5.91 2.03 -10.89 2.23 -3.91 0.55c0,0 16.67,-1.92 22.82,-5.94 6.14,-4.03 0,-8.82 0,-8.82 0,0 -84.94,22.39 -184.02,-8.07 0,0 -5.93,3.66 -1.72,9.22 4.22,5.56 4.03,4.6 8.05,13.61 4.03,9.01 12.84,16.48 22.04,21.08l-4.83 -2.35 -6.24 -4.88c-1.53,5.32 1.43,13.72 1.43,13.72 3.76,5.62 23.81,11.25 27.09,11.53 3.28,0.28 10.11,-8.96 10.11,-8.96z"/>
   </g>
   <path class="fil19" d="M172.13 190.64c0,0 -7.43,-6.13 -12.98,-1.34 -5.56,4.79 -6.52,19.36 -4.41,22.04 2.11,2.68 11.31,3.26 14.18,0 0,0 -5.07,-11.12 3.21,-20.7z"/>
   <g>
    <path class="fil2 str2" d="M172.13 190.64c0,0 -7.43,-6.13 -12.98,-1.34 -5.56,4.79 -6.52,19.36 -4.41,22.04 2.11,2.68 11.31,3.26 14.18,0 0,0 -5.07,-11.12 3.21,-20.7z"/>
   </g>
   <path class="fil11" d="M285.75 283.91c0,0 1.51,4.15 -2.81,6.49l-2.51 -2.52c0,0 -1.79,-2.45 5.32,-3.97z"/>
   <g>
    <path class="fil2 str2" d="M295.61 282.76c-2.79,-0.04 -8.59,0.24 -14.5,2.66 -0.98,0.4 -1.33,1.62 -0.68,2.46 1.4,1.82 4.11,4.47 7.9,4.34 4.85,-0.16 8.07,-4.01 8.84,-7.51 0.22,-1 -0.54,-1.94 -1.56,-1.95z"/>
   </g>
   <path class="fil9" d="M352.64 279.2c0,0 -4.37,-2.31 -9.51,-2.57l9.51 2.57z"/>
   <path class="fil14" d="M352.46 279.54c0,0 -0.51,-0.3 -1.35,-0.69 -0.84,-0.39 -1.98,-0.85 -3.15,-1.22 -2.35,-0.78 -4.83,-1 -4.83,-1 0,0 2.49,0.02 4.93,0.64 1.22,0.28 2.41,0.65 3.3,0.99 0.88,0.32 1.46,0.6 1.46,0.6 0.19,0.09 0.27,0.31 0.18,0.51 -0.09,0.19 -0.31,0.27 -0.51,0.18 0,0 -0.02,-0.01 -0.03,-0.01z"/>
   <path class="fil4" d="M391.32 221.58c0,0 2.14,40.3 -4.54,60.99 -6.67,20.69 -1.99,46.39 4.86,54.82 6.86,8.44 -10.28,9.27 -11.29,3.43 -1.01,-5.84 -7.91,-22.82 -7.14,-35.75 0.76,-12.93 15.39,-53.01 9.99,-74.3l8.12 -9.19z"/>
   <g>
    <path class="fil2 str2" d="M391.32 221.58c0,0 2.14,40.3 -4.54,60.99 -6.67,20.69 -1.99,46.39 4.86,54.82 6.86,8.44 -10.28,9.27 -11.29,3.43 -1.01,-5.84 -7.91,-22.82 -7.14,-35.75 0.76,-12.93 15.39,-53.01 9.99,-74.3l8.12 -9.19z"/>
   </g>
   <path class="fil9" d="M348.73 279.73c0,0 -4.37,-2.31 -9.51,-2.56l9.51 2.56z"/>
   <path class="fil14" d="M348.55 280.07c0,0 -0.52,-0.3 -1.36,-0.68 -0.83,-0.39 -1.97,-0.85 -3.15,-1.22 -2.34,-0.79 -4.82,-1 -4.82,-1 0,0 2.49,0.02 4.93,0.63 1.22,0.28 2.41,0.66 3.29,0.99 0.88,0.32 1.47,0.6 1.47,0.6 0.19,0.09 0.27,0.32 0.18,0.51 -0.09,0.19 -0.32,0.28 -0.51,0.19 -0.01,-0.01 -0.02,-0.01 -0.03,-0.02z"/>
   <path class="fil9" d="M345.31 280.48c0,0 -4.37,-2.31 -9.51,-2.56l9.51 2.56z"/>
   <path class="fil14" d="M345.13 280.82c0,0 -0.51,-0.3 -1.35,-0.68 -0.84,-0.39 -1.98,-0.85 -3.15,-1.22 -2.34,-0.79 -4.83,-1 -4.83,-1 0,0 2.49,0.02 4.93,0.63 1.22,0.28 2.41,0.66 3.3,0.99 0.88,0.32 1.46,0.6 1.46,0.6 0.19,0.09 0.27,0.32 0.18,0.51 -0.08,0.19 -0.31,0.27 -0.5,0.19 -0.01,-0.01 -0.03,-0.02 -0.04,-0.02z"/>
   <path class="fil9" d="M272.82 259.21c0,0 3.49,-3.49 5.26,-8.33l-5.26 8.33z"/>
   <path class="fil14" d="M272.54 258.94c0,0 0.44,-0.4 1.06,-1.09 0.61,-0.68 1.39,-1.64 2.09,-2.65 1.45,-2.01 2.39,-4.32 2.39,-4.32 0,0 -0.76,2.38 -2.06,4.53 -0.63,1.08 -1.35,2.11 -1.93,2.85 -0.56,0.75 -1,1.22 -1,1.22 -0.14,0.16 -0.39,0.17 -0.54,0.03 -0.16,-0.14 -0.17,-0.38 -0.03,-0.54 0.01,-0.01 0.02,-0.02 0.02,-0.03z"/>
   <path class="fil9" d="M227.66 288.38c0,0 4.37,-2.31 9.51,-2.56l-9.51 2.56z"/>
   <path class="fil14" d="M227.48 288.04c0,0 0.58,-0.27 1.47,-0.6 0.88,-0.33 2.07,-0.71 3.29,-0.99 2.44,-0.61 4.93,-0.63 4.93,-0.63 0,0 -2.48,0.21 -4.83,1 -1.17,0.37 -2.31,0.83 -3.15,1.22 -0.84,0.39 -1.35,0.68 -1.35,0.68 -0.19,0.11 -0.42,0.05 -0.53,-0.14 -0.1,-0.18 -0.04,-0.42 0.14,-0.52 0.01,-0.01 0.02,-0.01 0.03,-0.02z"/>
   <path class="fil9" d="M231.57 288.92c0,0 4.37,-2.31 9.52,-2.57l-9.52 2.57z"/>
   <path class="fil14" d="M231.4 288.58c0,0 0.58,-0.28 1.46,-0.6 0.88,-0.34 2.08,-0.71 3.29,-1 2.44,-0.61 4.94,-0.63 4.94,-0.63 0,0 -2.49,0.22 -4.84,1 -1.17,0.37 -2.31,0.83 -3.14,1.22 -0.84,0.39 -1.36,0.69 -1.36,0.69 -0.18,0.1 -0.42,0.04 -0.52,-0.14 -0.11,-0.19 -0.05,-0.42 0.13,-0.53 0.01,0 0.03,-0.01 0.04,-0.01z"/>
   <path class="fil9" d="M234.99 289.67c0,0 4.37,-2.31 9.51,-2.57l-9.51 2.57z"/>
   <path class="fil14" d="M234.81 289.33c0,0 0.58,-0.28 1.47,-0.61 0.88,-0.33 2.07,-0.71 3.29,-0.99 2.44,-0.61 4.93,-0.63 4.93,-0.63 0,0 -2.48,0.22 -4.83,1 -1.17,0.37 -2.32,0.83 -3.15,1.22 -0.84,0.39 -1.35,0.69 -1.35,0.69 -0.19,0.1 -0.42,0.04 -0.53,-0.14 -0.1,-0.19 -0.04,-0.42 0.14,-0.53 0.01,0 0.02,-0.01 0.03,-0.01z"/>
   <path class="fil4" d="M189.4 252.6c0,0 11.75,21.14 9.71,33.75 -2.05,12.61 -1.32,30.29 2.73,37.09 4.04,6.8 -5.21,27.4 -9.08,28.42 -3.87,1.02 7.56,6.71 11.56,3.99 3.99,-2.71 9.45,-28.83 8.13,-37.75 -1.33,-8.91 -6.74,-7.64 -7.23,-21.44 -0.49,-13.8 3.86,-29.77 -6.11,-47.85 -9.97,-18.08 -9.71,3.79 -9.71,3.79z"/>
   <g>
    <path class="fil2 str2" d="M189.4 252.6c0,0 11.75,21.14 9.71,33.75 -2.05,12.61 -1.32,30.29 2.73,37.09 4.04,6.8 -5.21,27.4 -9.08,28.42 -3.87,1.02 7.56,6.71 11.56,3.99 3.99,-2.71 9.45,-28.83 8.13,-37.75 -1.33,-8.91 -6.74,-7.64 -7.23,-21.44 -0.49,-13.8 3.86,-29.77 -6.11,-47.85 -9.97,-18.08 -9.71,3.79 -9.71,3.79z"/>
   </g>
   <path class="fil20" d="M192.76 253.89c0,0 24.39,-6.12 54.89,-23.78 30.5,-17.66 88.65,-8.65 107.9,-3.42 19.25,5.23 24.98,5.37 30.07,4.16 5.08,-1.2 -15.61,-38.24 -15.61,-38.24l-73.63 -9.71 -46.27 3.22 -27.65 8.33 -24.52 45.2 -5.18 14.24z"/>
   <g>
    <path class="fil2 str2" d="M192.76 253.89c0,0 24.39,-6.12 54.89,-23.78 30.5,-17.66 88.65,-8.65 107.9,-3.42 19.25,5.23 24.98,5.37 30.07,4.16 5.08,-1.2 -15.61,-38.24 -15.61,-38.24l-73.63 -9.71 -46.27 3.22 -27.65 8.33 -24.52 45.2 -5.18 14.24z"/>
   </g>
   <path class="fil7" d="M188.92 216.77c0,0 -10.72,23.2 -0.02,40.24 0,0 9.71,7.44 28.07,-25.94 18.35,-33.38 71.42,-60.81 152.8,-6.56 0,0 10.06,8.94 20.12,9.63 0,0 12.04,-26.47 -4.25,-46.06 0,0 -45.55,-46.13 -125.15,-29.71 0,0 -44.75,8.91 -71.57,58.4z"/>
   <g>
    <path class="fil2 str2" d="M188.92 216.77c0,0 -10.72,23.2 -0.02,40.24 0,0 9.71,7.44 28.07,-25.94 18.35,-33.38 71.42,-60.81 152.8,-6.56 0,0 10.06,8.94 20.12,9.63 0,0 12.04,-26.47 -4.25,-46.06 0,0 -45.55,-46.13 -125.15,-29.71 0,0 -44.75,8.91 -71.57,58.4z"/>
   </g>
   <path class="fil5" d="M223.88 66.92c0,2.91 -2.35,5.26 -5.25,5.26 -2.91,0 -5.26,-2.35 -5.26,-5.26 0,-2.9 2.35,-5.25 5.26,-5.25 2.9,0 5.25,2.35 5.25,5.25z"/>
   <path class="fil5" d="M194.72 100.08c0,2.9 -2.35,5.26 -5.25,5.26 -2.9,0 -5.26,-2.36 -5.26,-5.26 0,-2.9 2.36,-5.25 5.26,-5.25 2.9,0 5.25,2.35 5.25,5.25z"/>
   <path class="fil5" d="M195.14 173.52c0,2.9 -2.35,5.25 -5.25,5.25 -2.9,0 -5.26,-2.35 -5.26,-5.25 0,-2.9 2.36,-5.26 5.26,-5.26 2.9,0 5.25,2.36 5.25,5.26z"/>
   <path class="fil5" d="M188.1 141.78c0,2.91 -2.35,5.26 -5.25,5.26 -2.9,0 -5.26,-2.35 -5.26,-5.26 0,-2.9 2.36,-5.25 5.26,-5.25 2.9,0 5.25,2.35 5.25,5.25z"/>
   <path class="fil5" d="M275 50.97c0,2.9 -2.35,5.25 -5.25,5.25 -2.9,0 -5.26,-2.35 -5.26,-5.25 0,-2.9 2.36,-5.25 5.26,-5.25 2.9,0 5.25,2.35 5.25,5.25z"/>
   <path class="fil15" d="M220.51 340.51c0,0 1.66,-16.5 -11.5,-20.27 -1.76,-0.51 -3.6,0.56 -3.99,2.34 -0.77,3.52 -1.41,10.28 0.91,20.8 3.65,16.5 14.58,-2.87 14.58,-2.87z"/>
   <g>
    <path class="fil2 str2" d="M220.51 340.51c0,0 1.66,-16.5 -11.5,-20.27 -1.76,-0.51 -3.6,0.56 -3.99,2.34 -0.77,3.52 -1.41,10.28 0.91,20.8 3.65,16.5 14.58,-2.87 14.58,-2.87z"/>
   </g>
   <path class="fil5" d="M325.6 58.63c0,2.9 -2.35,5.25 -5.25,5.25 -2.9,0 -5.25,-2.35 -5.25,-5.25 0,-2.9 2.35,-5.25 5.25,-5.25 2.9,0 5.25,2.35 5.25,5.25z"/>
   <path class="fil5" d="M356.1 87.16c0,2.9 -2.35,5.26 -5.25,5.26 -2.9,0 -5.26,-2.36 -5.26,-5.26 0,-2.9 2.36,-5.25 5.26,-5.25 2.9,0 5.25,2.35 5.25,5.25z"/>
   <path class="fil5" d="M366.21 121.76c0,2.9 -2.35,5.25 -5.25,5.25 -2.91,0 -5.26,-2.35 -5.26,-5.25 0,-2.9 2.35,-5.25 5.26,-5.25 2.9,0 5.25,2.35 5.25,5.25z"/>
   <path class="fil5" d="M364.21 152.5c0,2.91 -2.35,5.26 -5.25,5.26 -2.9,0 -5.26,-2.35 -5.26,-5.26 0,-2.9 2.36,-5.25 5.26,-5.25 2.9,0 5.25,2.35 5.25,5.25z"/>
   <g>
    <path class="fil2 str2" d="M318.55 385.46c0,0 0.73,6.64 11.47,4.51 10.73,-2.14 19.55,-33.7 0,-31.34 -19.55,2.37 -11.47,26.83 -11.47,26.83z"/>
   </g>
   <path class="fil9" d="M331.58 358.79c0,0 -36.03,-3.83 -86.12,-6.13 0,0 -19.68,0.26 -21.72,-6.64 -2.05,-6.9 -4.6,-6.9 -12.78,-7.16 -8.18,-0.26 -11.25,0 -12.27,5.88 -1.02,5.88 -1.79,20.95 5.88,23.76 7.67,2.82 103.75,15.59 115.25,17.13l11.76 -26.84z"/>
   <g>
    <path class="fil2 str2" d="M331.58 358.79c0,0 -36.03,-3.83 -86.12,-6.13 0,0 -19.68,0.26 -21.72,-6.64 -2.05,-6.9 -4.6,-6.9 -12.78,-7.16 -8.18,-0.26 -11.25,0 -12.27,5.88 -1.02,5.88 -1.79,20.95 5.88,23.76 7.67,2.82 103.75,15.59 115.25,17.13l11.76 -26.84z"/>
   </g>
   <path class="fil15" d="M198.71 343.38c-2.32,-10.52 -1.68,-17.28 -0.92,-20.8 0.39,-1.79 2.24,-2.85 4,-2.34 13.16,3.77 11.5,20.27 11.5,20.27 0,0 -10.94,19.37 -14.58,2.87z"/>
   <g>
    <path class="fil2 str2" d="M198.71 343.38c-2.32,-10.52 -1.68,-17.28 -0.92,-20.8 0.39,-1.79 2.24,-2.85 4,-2.34 13.16,3.77 11.5,20.27 11.5,20.27 0,0 -10.94,19.37 -14.58,2.87z"/>
   </g>
   <polygon class="fil9" points="326.47,359.46 332.22,359.24 331.07,379.97 319.98,386.71 319.62,386.37 318.33,381.6 319.73,369.3 "/>
   <path class="fil9" d="M345.92 187.59c0,0 -2.39,12.76 -4.25,20.59l4.25 -20.59z"/>
   <path class="fil14" d="M341.59 208.54c0.2,0.04 0.39,-0.08 0.44,-0.27 1.84,-7.75 4.23,-20.48 4.25,-20.61 0.04,-0.2 -0.09,-0.39 -0.29,-0.43 0,0 0,0 0,0 -0.2,-0.03 -0.4,0.1 -0.43,0.3 -0.03,0.12 -2.41,12.84 -4.25,20.56 -0.05,0.2 0.07,0.4 0.27,0.45 0,0 0.01,0 0.01,0z"/>
   <path class="fil9" d="M364.82 212.3c0,0 -0.91,12.94 -1.88,20.93l1.88 -20.93z"/>
   <path class="fil14" d="M362.91 233.6c0.2,0.02 0.38,-0.13 0.4,-0.32 0.95,-7.91 1.87,-20.83 1.88,-20.96 0.02,-0.2 -0.13,-0.37 -0.33,-0.39 0,0 -0.01,0 -0.01,0 -0.2,-0.02 -0.38,0.14 -0.39,0.34 -0.01,0.13 -0.93,13.03 -1.88,20.92 -0.03,0.2 0.12,0.38 0.32,0.41 0,0 0.01,0 0.01,0z"/>
   <path class="fil9" d="M345.04 184.37c0,0 -2.38,12.76 -4.25,20.59l4.25 -20.59z"/>
   <path class="fil14" d="M340.71 205.32c0.2,0.04 0.39,-0.08 0.44,-0.27 1.84,-7.75 4.23,-20.48 4.25,-20.61 0.04,-0.2 -0.09,-0.39 -0.28,-0.43 -0.01,0 -0.01,0 -0.01,0 -0.2,-0.04 -0.39,0.09 -0.43,0.3 -0.03,0.12 -2.41,12.84 -4.25,20.56 -0.05,0.2 0.08,0.4 0.27,0.45 0.01,0 0.01,0 0.01,0z"/>
   <path class="fil9" d="M193.96 244.57c0,0 1.99,7.49 2.92,12.2l-2.92 -12.2z"/>
   <path class="fil14" d="M196.93 256.98c0.16,-0.04 0.26,-0.16 0.23,-0.27 -0.92,-4.66 -2.9,-12.13 -2.92,-12.21 -0.03,-0.12 -0.18,-0.18 -0.33,-0.14 0,0 0,0 0,0 -0.16,0.04 -0.26,0.17 -0.23,0.28 0.02,0.08 2,7.54 2.92,12.19 0.03,0.12 0.17,0.19 0.33,0.15 0,0 0,0 0,0z"/>
   <path class="fil9" d="M193.96 209.56c0,0 1.99,7.49 2.92,12.19l-2.92 -12.19z"/>
   <path class="fil14" d="M196.93 221.97c0.16,-0.04 0.26,-0.16 0.23,-0.27 -0.92,-4.67 -2.9,-12.13 -2.92,-12.21 -0.03,-0.12 -0.18,-0.18 -0.33,-0.14 0,0 0,0 0,0 -0.16,0.04 -0.26,0.16 -0.23,0.28 0.02,0.08 2,7.54 2.92,12.19 0.03,0.11 0.17,0.18 0.33,0.15 0,0 0,0 0,0z"/>
   <path class="fil9" d="M196.29 211.01c0,0 1.99,7.49 2.92,12.2l-2.92 -12.2z"/>
   <path class="fil14" d="M199.26 223.42c0.15,-0.03 0.25,-0.16 0.23,-0.27 -0.93,-4.66 -2.91,-12.13 -2.93,-12.21 -0.03,-0.11 -0.17,-0.18 -0.32,-0.14 -0.01,0 -0.01,0 -0.01,0 -0.15,0.04 -0.25,0.17 -0.22,0.28 0.02,0.08 2,7.54 2.92,12.19 0.02,0.12 0.17,0.19 0.32,0.15 0,0 0.01,0 0.01,0z"/>
   <path class="fil9" d="M252.51 186.56c0,0 1.99,7.49 2.92,12.19l-2.92 -12.19z"/>
   <path class="fil14" d="M255.48 198.97c0.15,-0.04 0.25,-0.16 0.23,-0.27 -0.92,-4.67 -2.91,-12.13 -2.92,-12.21 -0.04,-0.12 -0.18,-0.18 -0.33,-0.14 -0.01,0 -0.01,0 -0.01,0 -0.15,0.04 -0.25,0.16 -0.22,0.28 0.02,0.08 2,7.54 2.92,12.19 0.02,0.12 0.17,0.18 0.32,0.15 0,0 0.01,0 0.01,0z"/>
   <path class="fil9" d="M247.19 177.81c0,0 2.56,9.65 3.77,15.72l-3.77 -15.72z"/>
   <path class="fil14" d="M251.02 193.8c0.19,-0.04 0.32,-0.2 0.3,-0.35 -1.19,-6.01 -3.75,-15.63 -3.77,-15.73 -0.04,-0.15 -0.23,-0.23 -0.43,-0.18 0,0 0,0 0,0 -0.2,0.05 -0.33,0.21 -0.29,0.36 0.03,0.1 2.58,9.71 3.76,15.7 0.04,0.16 0.22,0.25 0.42,0.21 0,-0.01 0.01,-0.01 0.01,-0.01z"/>
   <path class="fil9" d="M286.5 154.94c0,0 1.28,9.9 1.68,16.07l-1.68 -16.07z"/>
   <path class="fil14" d="M288.21 171.29c0.2,-0.02 0.35,-0.16 0.34,-0.31 -0.4,-6.11 -1.67,-15.99 -1.69,-16.09 -0.01,-0.15 -0.19,-0.26 -0.39,-0.23 0,0 0,0 -0.01,0 -0.2,0.02 -0.35,0.17 -0.33,0.32 0.02,0.1 1.29,9.96 1.68,16.06 0.01,0.16 0.19,0.27 0.39,0.25 0,0 0.01,0 0.01,0z"/>
   <g>
    <path class="fil2 str5" d="M408.53 261.73c-1.08,0.75 -2.2,1.4 -3.33,1.89 0,0 -0.17,1.49 -0.49,3.8"/>
   </g>
  </g>
 </g>
</svg>
