<?xml version="1.0" encoding="UTF-8"?>
<!DOCTYPE svg PUBLIC "-//W3C//DTD SVG 1.1//EN" "http://www.w3.org/Graphics/SVG/1.1/DTD/svg11.dtd">
<!-- Creator: CorelDRAW 2017 -->
<svg xmlns="http://www.w3.org/2000/svg" xml:space="preserve" width="76.2mm" height="50.8mm" version="1.1" style="shape-rendering:geometricPrecision; text-rendering:geometricPrecision; image-rendering:optimizeQuality; fill-rule:evenodd; clip-rule:evenodd"
viewBox="0 0 7620 5080"
 xmlns:xlink="http://www.w3.org/1999/xlink">
 <defs>
  <style type="text/css">
   <![CDATA[
    .fil0 {fill:#FEFEFE}
    .fil5 {fill:#0E080C}
    .fil4 {fill:#203040}
    .fil3 {fill:#3A53A3}
    .fil1 {fill:#FEFEFE;fill-rule:nonzero}
    .fil2 {fill:#203040;fill-rule:nonzero}
   ]]>
  </style>
 </defs>
 <g id="Capa_x0020_1">
  <metadata id="CorelCorpID_0Corel-Layer"/>
  <g id="_2477634320464">
   <path class="fil0" d="M1278.13 1694.8l437.85 0.15 -234.92 1347.98 564.48 0.5 238.91 -1341.92 386.89 0.24 -232.23 1330.75c68.07,-16.09 347.15,-228.19 399.7,-270.6 41.21,-33.26 246.46,-202.5 257.26,-246.25l74.64 -428.68c27.9,-199.99 139.03,-700.14 153.16,-859.41 -131.15,-9.51 -444.07,0.81 -614.06,-1.07 -45.85,-0.51 -50.36,-6.85 -72.9,20.81l-336.16 371.53 69.18 -399.03 -660.64 0.7c-23.87,5.08 -325.32,358.01 -377.7,409.15 -14.72,14.37 -42.21,45.3 -53.46,65.15z"/>
   <path class="fil0" d="M3455.39 819.98c143.07,17.68 199.78,17.75 299.51,93.89 65.74,50.18 119.12,141.81 136.17,261.85 32.11,226.05 -63.92,474.79 -146.99,644.35 -298.99,610.3 -1020.99,1326.13 -1702.64,1488.1 -425.98,101.21 -692.13,-78.57 -655.89,-490.51 11.24,-127.74 47.28,-210.09 76.55,-319.34 -53,74.88 -127.19,256.64 -161.56,358.31 -147.11,435.15 -114.31,948.56 476.28,938.39 438.99,-7.56 1001.06,-351.33 1326.41,-634.12 403.07,-350.34 752.08,-747.63 980.09,-1247.43 101.67,-222.85 218.01,-582.08 102.48,-847.63 -91.89,-211.22 -285.27,-281.21 -506.17,-277.42 -87.36,1.51 -150.8,22.17 -224.24,31.56z"/>
   <path class="fil0" d="M2442.09 1146.26c176.28,-109.49 226.28,-160.23 448.93,-270.69 333.78,-165.6 802.59,-314.76 1167.22,-148.33 301.82,137.75 276.23,383.81 296.78,431.6 43.1,-69.56 56.42,-265.82 37.4,-354.34 -81.38,-378.74 -601.28,-354.84 -894.43,-279.05 -228.95,59.2 -406.31,147.99 -585.28,255.08 -87.12,52.13 -167.84,109.87 -246.38,170.89 -102.85,79.89 -133.19,104.2 -224.24,194.84z"/>
   <path class="fil1" d="M1296.13 4534.13l-236.07 0 -72.04 131.33 -126.9 0 335.96 -595.16 138.4 0 96.14 595.16 -116.09 0 -19.4 -131.33zm-14.68 -99.75l-35.33 -239.4 -131.34 239.4 166.67 0zm699.9 231.08l-113.74 0 -160.85 -399.82 -83.67 399.82 -113.74 0 124.68 -595.16 113.74 0 161.26 398.16 83.26 -398.16 113.74 0 -124.68 595.16zm119.97 0l124.69 -595.16 122.19 0 -124.55 595.16 -122.33 0zm534.34 0l-130.78 0 -106.12 -595.16 121.36 0 75.23 450.53 246.46 -450.53 121.36 0 -327.51 595.16zm256.02 0l124.68 -595.16 440.56 0 -20.78 99.75 -318.5 0 -29.24 134.66 308.67 0 -20.78 99.74 -309.64 0 -35.18 161.26 345.65 0 -20.78 99.75 -464.66 0zm679.25 0l-122.33 0 124.69 -595.16 264.05 0c45.44,0 80.77,4.71 106.12,13.99 25.22,9.42 45.58,26.46 61.24,51.4 15.51,24.94 23.27,55 23.27,90.46 0,50.71 -15.1,92.41 -45.44,125.24 -30.2,32.98 -76.06,53.34 -137.43,61.1 15.66,14.13 30.34,32.69 44.19,55.69 27.3,46.55 57.78,112.36 91.3,197.28l-131.33 0c-10.53,-33.53 -31.31,-85.76 -62.21,-156.83 -16.76,-38.37 -34.63,-64.28 -53.61,-77.44 -11.64,-7.9 -32,-11.77 -60.96,-11.77l-50.01 0 -51.54 246.04zm70.1 -334.99l64.98 0c65.8,0 109.44,-3.87 130.92,-11.77 21.61,-7.9 38.37,-20.23 50.56,-37.13 12.19,-16.76 18.29,-34.5 18.29,-52.92 0,-21.75 -8.73,-37.96 -26.32,-48.91 -10.81,-6.51 -34.22,-9.69 -70.24,-9.69l-134.66 0 -33.53 160.42zm423.66 143.25l116.37 -6.09c1.66,36.99 8.03,61.92 19.12,74.81 17.87,21.06 50.84,31.58 99.05,31.58 40.04,0 69.13,-7.2 87,-21.61 17.88,-14.41 26.74,-31.72 26.74,-52.09 0,-17.59 -7.34,-32.55 -21.89,-44.75 -10.25,-9 -38.51,-23.55 -84.64,-43.5 -46.14,-20.08 -79.8,-36.85 -101,-50.29 -21.33,-13.43 -37.96,-30.89 -50.15,-52.36 -12.19,-21.48 -18.29,-46.55 -18.29,-75.23 0,-50.29 18.15,-91.99 54.45,-125.1 36.16,-33.11 88.66,-49.6 157.52,-49.6 69.82,0 123.85,16.35 162.09,49.18 38.37,32.84 59.43,76.48 63.17,130.92l-117.2 5.27c-2.91,-28.4 -13.3,-50.15 -30.9,-65.39 -17.45,-15.1 -43.5,-22.72 -77.85,-22.72 -33.81,0 -57.91,5.95 -72.32,17.87 -14.55,11.91 -21.75,27.01 -21.75,45.16 0,17.18 6.65,31.17 19.81,42.39 13.3,11.37 42.67,26.88 87.97,46.69 68.44,29.65 111.94,53.62 130.64,72.04 27.85,27.16 41.7,61.93 41.7,104.6 0,52.64 -20.78,97.53 -62.34,134.8 -41.56,37.26 -99.33,55.97 -173.45,55.97 -51.12,0 -95.45,-8.59 -133,-25.77 -37.4,-17.18 -63.86,-41.01 -79.38,-71.49 -15.38,-30.48 -22.58,-65.67 -21.47,-105.29zm926.54 60.41l-236.07 0 -72.04 131.33 -126.9 0 335.96 -595.16 138.4 0 96.14 595.16 -116.09 0 -19.4 -131.33zm-14.68 -99.75l-35.33 -239.4 -131.34 239.4 166.67 0zm349.39 231.08l-122.33 0 124.69 -595.16 264.05 0c45.44,0 80.77,4.71 106.12,13.99 25.22,9.42 45.58,26.46 61.24,51.4 15.51,24.94 23.27,55 23.27,90.46 0,50.71 -15.1,92.41 -45.44,125.24 -30.2,32.98 -76.06,53.34 -137.43,61.1 15.66,14.13 30.34,32.69 44.19,55.69 27.3,46.55 57.78,112.36 91.3,197.28l-131.33 0c-10.53,-33.53 -31.31,-85.76 -62.21,-156.83 -16.76,-38.37 -34.63,-64.28 -53.61,-77.44 -11.64,-7.9 -32,-11.77 -60.96,-11.77l-50.01 0 -51.54 246.04zm70.1 -334.99l64.98 0c65.8,0 109.44,-3.87 130.92,-11.77 21.61,-7.9 38.37,-20.23 50.56,-37.13 12.19,-16.76 18.29,-34.5 18.29,-52.92 0,-21.75 -8.73,-37.96 -26.32,-48.91 -10.81,-6.51 -34.22,-9.69 -70.24,-9.69l-134.66 0 -33.53 160.42zm400.38 334.99l124.69 -595.16 122.19 0 -124.55 595.16 -122.33 0zm274.17 -233.58c0,-35.18 5.26,-72.31 15.79,-111.38 13.85,-52.37 34.91,-97.67 63.17,-136.18 28.27,-38.52 64.01,-68.86 106.96,-91.3 43.08,-22.31 91.98,-33.53 146.98,-33.53 73.71,0 133.14,22.86 178.44,68.72 45.3,45.85 68.02,106.53 68.02,182.18 0,62.89 -14.68,123.71 -44.19,182.45 -29.51,58.88 -69.68,104.18 -120.25,135.91 -50.57,31.72 -107.78,47.52 -171.79,47.52 -55.41,0 -101.96,-12.61 -139.64,-37.82 -37.55,-25.22 -64.29,-56.39 -79.94,-93.66 -15.66,-37.26 -23.55,-74.95 -23.55,-112.91zm121.36 -2.35c0,41.01 12.47,75.36 37.26,102.93 24.94,27.71 57.64,41.56 98.23,41.56 32.97,0 64.69,-10.94 95.03,-32.69 30.48,-21.89 55.56,-55 75.51,-99.33 19.81,-44.47 29.78,-87.56 29.78,-129.67 0,-46.97 -12.6,-83.82 -37.68,-110.56 -25.21,-26.74 -57.22,-40.04 -96.14,-40.04 -59.71,0 -108.34,27.99 -145.89,83.82 -37.4,55.97 -56.1,117.2 -56.1,183.98z"/>
   <path class="fil0" d="M5105.84 2580.1l-33.73 60.93c-6.75,-21.3 -3.82,-33.81 -12.86,-55.5l-21.67 -44.16c-2.19,-31.25 -125.34,-286.61 -158.83,-347 -60.31,-108.78 -123.08,-214.46 -197.8,-311.4 -21.67,-28.12 -140.77,-169.44 -162.91,-183.73 -15.21,18.49 -19.02,45.44 -10.57,72.8 13.8,44.65 43.81,78.42 73.94,112.51l7.21 10c5.4,8.02 1.14,3.71 8.7,13.39 14.03,17.96 33.55,27.28 49.21,40.65l9.7 12.92c24.09,44.76 62.47,74.03 90.28,118.05 24.2,38.33 50.64,80.06 66.35,121.06l15.31 29.58c16.12,31.7 29.22,58.56 60.31,74.86 34.48,18.08 35.67,4.89 50.56,45.57 20.9,57.09 88.93,220.55 92.89,277.35 -17.32,-13.62 -127.28,-190.95 -144.41,-223.9l-156.94 -209.49c-48.66,-57.57 -326.69,-350.82 -377.37,-359.49 -3.43,42.86 20.25,64.59 40.56,97.61l21 29.72c13.05,19.19 19.17,34.28 39.16,50.48l34.27 33.41c7.3,9.27 26.09,28.57 36.35,36.68 30.22,23.9 43.47,23.47 77.33,62.57 10.46,12.08 15.38,26.44 26.83,41.27 18.76,24.3 28.59,18.06 40.1,31.99 17.18,20.78 -2.57,19.68 25.23,43.25l48.3 53.84c28.9,41.29 37.02,37.58 52.72,57.46 28.87,36.57 40.47,45.89 88.82,51.96 29.1,62.49 122.98,217.25 137.69,267.43 -27.03,-14.7 -163.5,-176.58 -186.19,-210.19 -43.43,-64.32 -232.82,-235.16 -299.95,-289.68 -105.4,-85.59 -104.86,-91.53 -225.08,-166.59 -30.66,-19.14 -92.88,-68.66 -126.99,-71.93 14.82,66.29 79.67,103.63 113.12,144.59 50.64,62 43.81,32.81 80.43,70.11 23.67,24.1 39.88,23.25 59.55,52.6 27.61,41.18 49.97,39.53 69.78,50.2 8.54,4.6 3.9,10.8 13.21,17.52 17.41,-8.12 14.82,-19.15 36.51,-24.75 -6.33,18.62 -13.68,19.87 -22.43,38.95 17.09,20.49 22.63,21.66 43.12,36.18 25.49,18.07 19.03,33.7 56.89,25.29 -8.79,29.26 -3.29,22.16 20.64,43.06 20.64,18.02 25.5,26.49 44.32,15.04 8.64,15.67 1.56,15.57 18.81,28.45l32.83 22.92c28.59,17.65 39.98,20.2 79.22,19.35 18.3,39.77 54.97,79.83 82.05,116.47 15.98,21.62 76.42,102.31 83.01,120.56 -34.32,-20.48 -182.53,-159.65 -211.51,-192.91 -45.66,-52.4 -165.9,-141.5 -218.73,-184.81 -33.63,-27.57 -195.25,-133.12 -243.9,-157.89 -43.48,-22.14 -242.52,-127.16 -271.69,-132.77 -20.16,34.8 0.45,50.14 23.17,70.81 8.27,7.52 -0.46,1.61 11.62,10.99 6.08,4.72 15.61,9.07 21.22,11.88l54.39 28.51c21.07,6.53 20.83,48.5 84.73,74.16 1.31,0.53 2.82,0.97 4.09,1.52 1.59,0.7 6.08,2.75 7.52,3.56 1.97,1.12 7.91,5.6 9.46,6.82 5.68,4.49 2.5,2.27 8.69,7.62 14.76,12.76 38.39,39.84 55.95,23.65 1.21,1.32 2.74,1.7 3.22,4.35l8.95 15.95c0.35,0.7 0.78,2.46 1.44,3.54 13.23,-9.98 21.59,-20.55 33.54,-28.23 -9.15,16.31 -13.45,19.8 -19.37,37.39 10.03,-3.41 5.1,-4.01 11.79,-9.18 22.46,-17.33 -1.59,-6.4 27.15,-14.69 -9.48,27.36 -13.07,18.23 -18.26,38.64 57.62,39.89 38.98,6.43 72.48,1.72l-19.8 30.45c37.9,2.22 8.35,-4.13 41.8,-16.69 -5.97,28.49 -8.44,13.19 -12.46,34.29 17.57,12.78 36.32,19.24 53.12,29.95 39.41,25.14 21.86,26.12 56.98,11.19 -5.97,35.36 -1.76,27.04 26.96,45.14 36.58,23.07 14.33,13.03 50.6,15.77 -4.6,20.11 -3.25,8.85 3.17,19.32 14.54,2.49 24.47,1.66 28.31,4 12.05,7.34 15.05,34.78 95.75,22.21 28.46,42.49 200.92,208.97 213.62,243.38 -77.82,-31.96 -201.07,-156.88 -285.1,-203.32l-188.52 -112.11c-130.36,-72.99 -264.5,-127.09 -399.04,-191.2 -22,-10.48 -120.59,-60.98 -131.27,-54.1 -9.57,10.89 -3.19,-2.12 -2.02,10.84 4.71,52.03 24.28,62.68 60.1,91.29 66.68,53.25 47.84,13.9 95.82,48.96 7.35,5.36 9.82,6.65 17.23,10.57 34.53,18.27 19.12,25.19 53.39,8.7 -3,27.12 -6.26,12.43 3.67,28.82 17.77,1.12 2.81,2.59 17.5,-2.28 0.57,-0.19 13.85,-6.97 17.13,-8.55l-7.88 28.08c21.3,-1.17 25.29,0.56 37.99,-7.1l31.57 22.55c31.86,11.25 37.31,-6.89 54.19,-35.61l-20.65 44.67c15.62,19.48 27.44,32.23 49.73,22.06l5.47 20.39c19.53,0.38 8.28,-0.74 29.35,-9.36 -3.13,43.33 7.18,33.87 41.97,53.08 7.16,3.96 22.67,16.75 31.45,19.49 13.52,4.23 15.81,-1.34 20.06,-4.85l9.39 -10.37c-1.74,38.97 -3.88,30.53 73.24,56.76 153.27,52.14 108.22,-12.74 161.32,32.01 31.36,26.43 172.09,139.14 185.41,162.94l-228.23 -112.02c-33.76,-19.74 -78.33,-35 -116.21,-50.89 -41.31,-17.31 -77.91,-32.55 -121.73,-50.3 -78.09,-31.62 -177.93,-48.86 -264.26,-73.33 -35.1,-9.95 -265.21,-44.36 -297.26,-42.69 -1.48,76.43 20.22,70.21 67.73,99.85 12.81,7.99 25.17,16.27 41.37,22.02l23.5 -19.97c1.32,16.88 -1.31,11.75 5.38,22.88 0.57,0.96 1.57,2.3 2.26,3.15 4.55,5.62 28.46,22.14 68.21,24.66 13.26,0.84 17.36,-1.57 31.9,-0.4 17.61,1.42 9.98,1.22 27.77,6.71 32.05,9.88 37.58,15.14 46.65,-7.85 14.23,18.43 20.58,33.28 45.89,7.13l3.99 9.07c10.52,17.58 23.23,31.79 50.69,4.21 7.59,9.85 6.39,12.81 16.41,16.38 6.02,-9.85 11.85,-17.41 17.56,-26.66l3.45 33.87c95.37,7.51 51.71,10.45 108.72,26.92 20.25,5.85 14.72,8.87 29.05,-8.9 -0.56,48.75 13.78,18.71 33.45,44.03l15.9 -15.51 10.61 24.8 70.18 12.85c34.58,-0.49 55.21,-25.03 66.82,-48.24 82.89,42.06 181.57,115.76 252.39,177.18 22.79,19.75 12.83,19.67 29.75,43.41 12.9,18.11 25.89,22.74 36.37,37.47l-1462.72 -0.06 -0.33 49.06 3092.09 -0.51 -0.16 -48.05 -1535.23 -0.56c27.63,-16.17 40.69,-50.31 53.8,-66.87 29.02,-36.66 204.22,-152.84 244.67,-177.28 33.97,24.01 45.15,41.3 93.77,31.53 40.81,-8.19 9.28,4.49 87.3,-23.06 24.34,-8.6 45.46,-23.58 70.66,-28.51l85.1 -25.76c0.81,-0.38 2.39,-0.95 3.16,-1.28 19.07,-8.1 -0.37,9.66 20.94,-19.9 0.94,1.1 2.07,1.66 2.5,3.58 2.73,12.3 16.62,11.66 24.4,8.06l87.74 -24.37c19.86,-5.83 3.67,-1.84 18.18,-8.36l25.06 0.62c17.53,4.75 12.16,6.8 33.73,3.21 23.31,-3.87 44.52,-10.73 60.16,-23.05 1.46,-1.15 12.17,-13.89 14.74,-5.81 7.25,22.79 133.24,-44.29 146.59,-57.55 0.44,-19.62 -5.45,-31.53 -12.36,-47.84 -80.02,0.24 -234.79,7.38 -300.61,26.8 -88.37,26.07 -175.03,41.56 -254.42,77.41 -152.95,69.08 -289.34,139.76 -439.13,217.95 19.41,-6.75 143.6,-112.03 175.47,-138.12 51.13,-41.86 23.57,-10.03 79.03,-11.76 33.61,-1.05 60.93,-27.66 89.25,-41.75l52.17 -32.29c46.17,-31.02 57.11,-33.04 105,-49.98 18.92,-6.69 17.88,-17.14 26.88,-32.38 12.12,10.3 4.87,11.27 25.11,12.7l2.24 -27.53c6.38,13.83 6.99,22.12 29.67,15.63 23.59,-6.74 19.38,-15.61 17.47,-39.79 1.59,0.73 3.64,0.72 4.34,3.02 0.66,2.16 3.23,2.3 4.09,2.84 18.96,11.99 6.12,4.2 22.68,1.69l17.35 -6.07c18.2,-8.1 39.26,-8.23 58.31,-17.71 27.59,-13.73 40.09,-2.43 69.63,-11.58 57.02,-17.67 27.25,-20.41 44.41,-48.61 5.14,5.56 2.94,2.88 8.18,11.15 4.19,6.62 4.04,8.22 8.23,14.79 33.85,-14.5 73.2,-37.54 99.33,-68.12 12.06,-14.11 17.63,-17.58 11.95,-43.8 -31.04,-6.6 -263.2,48.81 -285.94,60.28 -79.01,39.83 -161.68,73.21 -236.05,120.64l-322.85 213.29c-30.08,19.65 -85.62,60.58 -118.15,72.57 10.7,-18.01 43.8,-52.06 58.31,-66.26l117.77 -118.27c45.11,-49.58 19.38,-30 79.49,-30.07 55.71,-0.06 119.16,-49.91 159.21,-82.14l71.4 -46.04c25.54,-11.22 17.56,-4.08 35.74,-24.43l4.6 -4.85c22.25,-19.86 -4.56,5.67 7.5,-4.83 0.5,-0.44 1.84,-1.29 2.31,-1.79l9.14 -17.21c16.41,20.82 37.71,11.91 36.93,-18.94 41.23,16.86 -6.63,-13.99 33.55,2.8l-4.23 -28.91c15.57,16.94 2.13,11.07 21.24,16.48 10.09,-7.18 28.11,-16.28 39.07,-22.28 9.99,-5.47 -0.61,-1.59 11.55,-5.5 31.8,-10.23 77.69,-10.55 91.62,-41.21l9.29 -24.27c4.27,-7.53 4.3,-6.27 7.06,-10 14.27,19.44 -0.11,11.28 16.41,24.13l112.84 -90.55c20.41,-20.91 11.2,-28.53 0.42,-47.65 -15.23,0.72 -264.84,95.29 -284.49,106.23 -89.17,49.62 -331.81,215.96 -414.09,284.3 -78.12,64.89 -195.75,191.33 -275.73,232.53 19.42,-37.68 68.8,-96.86 94.9,-128.41l99.58 -125.74c60.41,-0.96 85.25,-7.23 126.65,-40.05l15.86 -12.03c0.83,-0.74 2.03,-1.89 2.84,-2.66l75.38 -65.33c40.78,-25.81 62.68,-62.68 104.33,-85.65 1.12,-0.62 2.53,-1.38 3.72,-1.95 27.07,-13.1 82.35,-26.29 69.8,-64.29 50.13,12.02 47.6,-19.6 83.42,-34.72 1.36,-0.57 2.89,-0.94 4.29,-1.44 45.29,-16.13 80.92,-52.82 112.8,-87.8 64.78,-71.06 69.06,-130.16 19.1,-102.15l-210.26 125.76c-49.73,31.57 -176.72,125.59 -220.06,165.98 -44.97,41.9 -159.61,146.6 -190.99,191.08 -20.63,29.24 -162.06,183.98 -189.8,201.73 7.84,-20.97 132.26,-234.13 155.46,-238.9 31.24,-6.43 49.04,-9.09 72.67,-31.86 21.08,-20.3 34.89,-11.36 22.29,-46.15 32.84,7.89 24.66,8.75 43.92,-16.94 20.55,-27.4 21.81,-12.07 18.29,-44.08 33.17,-0.71 25.99,-10.68 34.47,-21.26 25.11,-31.36 49.54,-27.04 33.2,-68.72 32.14,1.33 30.17,6.03 23.45,-21.03 36.28,0.8 52.3,-28.6 66.88,-57.1l23.89 -32.86c58.82,-53.99 42.67,-36.26 100.35,-79.11l20.51 -21.16c13.33,-22.7 30.38,-14.33 70.97,-72.68 0.69,-1 1.64,-2.39 2.35,-3.36 24.26,-33.26 45.15,-65.79 17.67,-106.89 -17.93,5.8 -173.47,145.13 -203.2,170.99 -73.1,63.57 -117.4,117.58 -185.87,190.79 -48.59,51.95 -116.17,153.63 -160.97,217.1l-79.31 112.41c-30.35,39.04 -57.05,78.93 -85.3,103.97 24.44,-80.76 77.94,-178.44 113.09,-259.21 24.92,-57.23 41.05,-4 92.45,-94.34 11.51,-20.23 13.23,-8.31 0.19,-26.9 27.86,2.17 25.02,-5.57 38.7,-28.73 13.25,-22.44 34.6,-37.54 39.92,-64.16 4.53,-22.68 12.67,-18.97 21.45,-32.92 10.22,-16.25 8.02,-4.65 -2.41,-26.14 40.21,-2.47 48.49,-60.46 59.06,-72.03 13.14,-14.37 3.26,10.69 10.2,-9.93 0.85,-2.52 9.71,4.75 -5.03,-22.56 34.88,3.94 28.41,-17.4 38.29,-41.04 4.13,-9.86 2.02,-3.34 14.42,-12.9 24.43,-18.85 35.22,-50.39 50.85,-73.63 8.33,-12.39 102.88,-97.1 57.53,-153.72 -23.95,8.96 -137.41,160.25 -161.12,188.15 -53.58,63.07 -225.44,373.48 -257.22,444.17 -31.85,70.83 -96.19,159.48 -120.38,227.97z"/>
   <path class="fil0" d="M5037.58 2435.34l21.67 44.15c9.04,21.69 6.11,34.2 12.86,55.51l33.73 -60.94c-9.76,-12.33 -1.54,-22.98 7.12,-58.68 6.04,-24.88 10.98,-44.09 18.43,-66.58l52.62 -170.12c6.81,-11.96 1.41,-5.56 11.44,-11.96 27.08,-17.25 25.41,-2.73 48.01,-34.73 22.39,-31.71 39.61,-71.18 52.82,-116.93 7.33,-25.37 13.71,-29.87 22.06,-57.58 6.54,-21.7 12.26,-43.93 20.23,-65.52 29.49,-79.81 34.74,-105.81 75.95,-174.52 11.44,-19.08 18.29,-34.88 27.66,-57.57 15.03,-36.39 40.41,-95.66 12.74,-128.25 -19.68,8.44 -4,-6.41 -19.57,17.27 -5.91,9 -8.99,18.23 -13.32,26.34l-81.65 151.11c-34.35,65.43 -59.02,151.31 -85.1,221.44 -48.68,130.92 -121.35,316.99 -163.04,449.58 -9,-20.73 22.2,-202.33 27.23,-240.94 8.47,-65.15 30.49,-22.74 47.18,-88.1l34.14 -246.4c2.76,-89.69 113.21,-300.29 37.28,-319.3 -119.35,354.43 -126.68,706.31 -152.18,787 -2.26,-4.88 -29.8,-384.32 -34.63,-431.73 -20.92,-205.33 -24.9,-182.23 -54.07,-346.14 -0.83,-4.67 -3.06,-19.7 -4.15,-23.13 -8.86,-27.83 3.11,-12.02 -15.64,-21.66 -33.39,37.54 5.54,171.02 12.97,220.23 13.47,89.2 25.17,337.08 46.4,395.21 25.44,69.67 25.24,-14.29 25.17,167.42 -0.01,23.61 10.83,96.16 -2.51,115.24 -25.12,-71.07 -33.62,-163.96 -56.72,-235.39 -36.93,-114.19 -115.32,-330.31 -164.64,-426.4l-74.88 -146.09c-10.28,-20.44 -11.08,-35.68 -31.88,-43.77 -18.92,16.28 -19.94,22.58 -0.94,84.3 44.23,143.71 86.38,212.8 139.72,332.41 12.29,27.57 22.2,54.28 32.27,86.2l35.42 84.34c17.03,28.33 28.74,43.16 59.71,58.24 5.7,50.27 17.67,94.57 25.55,142.01l23.22 118.94c-3.69,22.7 10.03,1.1 -8.68,15.49z"/>
   <polygon class="fil0" points="6656.19,3730.8 6656.24,3684.58 5021.15,3684.51 5004.74,3684.52 4988.33,3684.58 3588.38,3684.61 3566.52,3684.38 3566.56,3730.73 "/>
   <path class="fil0" d="M4411.83 3330.04l0.17 -204.64c67.9,10.18 72.62,19.68 73.19,96.75 0.58,76.69 1.57,104.54 -73.36,107.89zm-78.43 -200.18l0.94 446.18c-18.47,-0.06 -26.92,-2.46 -39.21,4.5 15.19,5.61 155.35,6.22 170.61,0l-53.56 -5.41 -0.32 -237.12c50.83,-0.59 92.51,-7.49 122,-35.45 29.24,-27.71 44.76,-81.17 16.96,-126.59 -43.86,-71.65 -159.82,-60.29 -257.77,-56.79 18.79,11.54 20.02,1.13 40.35,10.68z"/>
   <path class="fil0" d="M6009 3126.73c68.82,2.88 72,27.36 72.88,101.33 0.84,70.35 -4.5,98.7 -73.35,101.82l0.47 -203.15zm-77.81 8.9l0.12 440.51c-19.27,-0.17 -27.3,-2.53 -39.82,4.4l117.22 -5.44 -0.13 -237.38c192.74,0.8 185.59,-165.74 83.19,-206.7 -46.26,-18.5 -144.39,-12.71 -202.92,-12.34l9.15 3.32c40.12,10.47 21.69,-5.25 33.19,13.63z"/>
   <path class="fil0" d="M5053.96 3256.79c32.53,-40.17 -7.56,-128.95 132.24,-128.93 -15.11,77.4 -152.3,419.96 -150.89,455.05l222.66 0.57c2.87,-28.45 5.85,-142.98 -1.67,-162.43 -17.83,5.24 -3.46,-14.37 -19.58,52.36 -18.7,77.39 -51.51,98.8 -127.55,101.38l156.82 -456.18 -218.29 -0.48 6.26 138.66z"/>
   <path class="fil0" d="M3566.5 3256.71c24.59,-17.42 5.46,-114.01 88.29,-127.91l0.34 447.01 76.59 -1.38 0.23 -444.47c69.16,3.41 74.71,100.24 78.77,110.94 6.39,16.82 -2.76,10.48 12.81,14.45l3.19 -134.19 -266.48 -3.16c-0.87,27.1 -5.08,109.4 4.25,134.77 0.35,0.96 1.14,2.77 2.01,3.94z"/>
   <path class="fil0" d="M6510.32 3170.32c-0.76,63.43 -30.9,116.6 -58.95,147.6 -5.74,6.33 -102.2,105.11 -127.81,47.37 -21.3,-48.02 19.26,-138.48 39.44,-163.87 41.86,-52.7 76.72,-44.7 147.32,-31.1zm-23.92 140.86c-2.58,34.16 -16.12,72.7 -8,103.91 26.74,52.2 151.44,-47.41 134.11,-83.69 -29.55,14.11 -26.9,56.76 -76.12,53.42 -0.29,-82.58 37.55,-181.26 41.64,-253.16 -340.06,-54.68 -403.56,356.04 -231,289.87 31.19,-11.96 51.33,-29.18 75.08,-47.91 27.05,-21.34 40.01,-44.2 64.29,-62.44z"/>
   <path class="fil0" d="M5475.04 3420.33c-9.77,15.54 -10.64,147.27 0,163.29 19.07,-15.92 3.47,-43.13 34.82,-34.95 7.35,1.92 98.25,80.45 168.08,9.28 72.81,-74.2 -8.26,-173.62 -46.76,-217.29 -23.46,-26.6 -145.67,-131.66 -111.47,-192.47 22.48,-39.96 108.31,-47 146.48,80.02 6.87,22.89 0.97,20.85 16.66,28.43l0 -138.19c-16.44,10.97 -6.06,13.4 -17.41,32.56 -40.5,-5.37 -40.97,-40.62 -113.97,-33.88 -40.86,3.77 -74.13,32.48 -80.82,71.7 -13.52,79.27 76.97,159.05 108.55,194.99 20.36,23.16 140.42,165.68 39.97,193.16 -106.05,29.01 -121.41,-143.64 -144.13,-156.65z"/>
   <path class="fil0" d="M4790.28 3156.3c128.42,-34.8 114.35,207.53 9.99,231 -127.35,28.65 -116.27,-202.2 -9.99,-231zm28.97 -33.96c-183.7,46.09 -251.45,351.59 -42.49,298.13 64.56,-16.52 130.35,-87.45 153.08,-144.64 39.13,-98.45 -3.57,-180.34 -110.59,-153.49z"/>
   <path class="fil0" d="M3980.02 3275.34c5.09,-41.07 18.68,-65.96 39.89,-88.25 65.24,-68.6 145.56,13.96 58.59,67.85 -31.87,19.74 -55.65,23.68 -98.48,20.4zm180.36 47.27c-12.37,2.33 -7.27,-0.05 -19.99,14.71 -19.72,22.88 -31.58,42.34 -70.65,48.15 -59.12,8.81 -83.81,-16.69 -89.8,-72.72 69.24,-11.46 171.08,-70.58 182.41,-132.02 13.06,-70.74 -48.62,-68.51 -93.16,-51.07 -97.47,38.16 -211.54,229.54 -103.26,288.93 39.08,21.44 88.69,8.08 120.97,-10.26 28.97,-16.47 80.25,-50.82 73.48,-85.72z"/>
   <path class="fil0" d="M4643.81 3580.8c97.01,-84.7 201.42,77.4 317.3,-34.93 -7.27,-18.97 -18.31,-25.72 -32.93,-35.85 -33.34,11.66 -28.31,30.31 -82.05,25.45 -40.11,-3.62 -204.42,-74.72 -240.64,16.18 14.17,14.28 21.99,21.39 38.32,29.15z"/>
   <path class="fil0" d="M6271.8 3580.47c28.01,-10.79 40.23,-31.32 82.34,-27.16 26.48,2.61 58.08,15.5 82.92,21.74 28.1,7.05 58.47,14.16 90.09,7.6 38.58,-8.01 46.07,-21.18 70.15,-34.8 -9.93,-22.9 -21.75,-29.26 -41.55,-37.97 -82.41,88.2 -206.61,-77.79 -314.75,35.99 3.8,7.27 0.58,2.17 7.01,9.78l23.79 24.82z"/>
   <path class="fil0" d="M3889.15 3578.34c33.81,-15.3 35.25,-32.56 84.42,-24.29 28.84,4.85 54.99,15.7 83.26,22.89 63.73,16.19 121.98,8.09 153.73,-36.7 -10.62,-9.59 -22.05,-21.21 -37.04,-29.41 -71.35,44.32 -84.81,25.46 -166.52,2.84 -78.33,-21.69 -105.82,-5.66 -154.54,32.65 14.01,17.12 15.54,19.27 36.69,32.02z"/>
   <path class="fil2" d="M1372.33 4483.33l-236.07 0 -72.04 131.33 -126.9 0 335.96 -595.16 138.4 0 96.14 595.16 -116.09 0 -19.4 -131.33zm-14.68 -99.75l-35.33 -239.4 -131.34 239.4 166.67 0zm699.9 231.08l-113.74 0 -160.85 -399.82 -83.67 399.82 -113.74 0 124.68 -595.16 113.74 0 161.26 398.16 83.26 -398.16 113.74 0 -124.68 595.16zm119.97 0l124.69 -595.16 122.19 0 -124.55 595.16 -122.33 0zm534.34 0l-130.78 0 -106.12 -595.16 121.36 0 75.23 450.53 246.46 -450.53 121.36 0 -327.51 595.16zm256.02 0l124.68 -595.16 440.56 0 -20.78 99.75 -318.5 0 -29.24 134.66 308.67 0 -20.78 99.74 -309.64 0 -35.18 161.26 345.65 0 -20.78 99.75 -464.66 0zm679.25 0l-122.33 0 124.69 -595.16 264.05 0c45.44,0 80.77,4.71 106.12,13.99 25.22,9.42 45.58,26.46 61.24,51.4 15.51,24.94 23.27,55 23.27,90.46 0,50.71 -15.1,92.41 -45.44,125.24 -30.2,32.98 -76.06,53.34 -137.43,61.1 15.66,14.13 30.34,32.69 44.19,55.69 27.3,46.55 57.78,112.36 91.3,197.28l-131.33 0c-10.53,-33.53 -31.31,-85.76 -62.21,-156.83 -16.76,-38.37 -34.63,-64.28 -53.61,-77.44 -11.64,-7.9 -32,-11.77 -60.96,-11.77l-50.01 0 -51.54 246.04zm70.1 -334.99l64.98 0c65.8,0 109.44,-3.87 130.92,-11.77 21.61,-7.9 38.37,-20.23 50.56,-37.13 12.19,-16.76 18.29,-34.5 18.29,-52.92 0,-21.75 -8.73,-37.96 -26.32,-48.91 -10.81,-6.51 -34.22,-9.69 -70.24,-9.69l-134.66 0 -33.53 160.42zm423.66 143.25l116.37 -6.09c1.66,36.99 8.03,61.92 19.12,74.81 17.87,21.06 50.84,31.58 99.05,31.58 40.04,0 69.13,-7.2 87,-21.61 17.88,-14.41 26.74,-31.72 26.74,-52.09 0,-17.59 -7.34,-32.55 -21.89,-44.75 -10.25,-9 -38.51,-23.55 -84.64,-43.5 -46.14,-20.08 -79.8,-36.85 -101,-50.29 -21.33,-13.43 -37.96,-30.89 -50.15,-52.36 -12.19,-21.48 -18.29,-46.55 -18.29,-75.23 0,-50.29 18.15,-91.99 54.45,-125.1 36.16,-33.11 88.66,-49.6 157.52,-49.6 69.82,0 123.85,16.35 162.09,49.18 38.37,32.84 59.43,76.48 63.17,130.92l-117.2 5.27c-2.91,-28.4 -13.3,-50.15 -30.9,-65.39 -17.45,-15.1 -43.5,-22.72 -77.85,-22.72 -33.81,0 -57.91,5.95 -72.32,17.87 -14.55,11.91 -21.75,27.01 -21.75,45.16 0,17.18 6.65,31.17 19.81,42.39 13.3,11.37 42.67,26.88 87.97,46.69 68.44,29.65 111.94,53.62 130.64,72.04 27.85,27.16 41.7,61.93 41.7,104.6 0,52.64 -20.78,97.53 -62.34,134.8 -41.56,37.26 -99.33,55.97 -173.45,55.97 -51.12,0 -95.45,-8.59 -133,-25.77 -37.4,-17.18 -63.86,-41.01 -79.38,-71.49 -15.38,-30.48 -22.58,-65.67 -21.47,-105.29zm926.54 60.41l-236.07 0 -72.04 131.33 -126.9 0 335.96 -595.16 138.4 0 96.14 595.16 -116.09 0 -19.4 -131.33zm-14.68 -99.75l-35.33 -239.4 -131.34 239.4 166.67 0zm349.39 231.08l-122.33 0 124.69 -595.16 264.05 0c45.44,0 80.77,4.71 106.12,13.99 25.22,9.42 45.58,26.46 61.24,51.4 15.51,24.94 23.27,55 23.27,90.46 0,50.71 -15.1,92.41 -45.44,125.24 -30.2,32.98 -76.06,53.34 -137.43,61.1 15.66,14.13 30.34,32.69 44.19,55.69 27.3,46.55 57.78,112.36 91.3,197.28l-131.33 0c-10.53,-33.53 -31.31,-85.76 -62.21,-156.83 -16.76,-38.37 -34.63,-64.28 -53.61,-77.44 -11.64,-7.9 -32,-11.77 -60.96,-11.77l-50.01 0 -51.54 246.04zm70.1 -334.99l64.98 0c65.8,0 109.44,-3.87 130.92,-11.77 21.61,-7.9 38.37,-20.23 50.56,-37.13 12.19,-16.76 18.29,-34.5 18.29,-52.92 0,-21.75 -8.73,-37.96 -26.32,-48.91 -10.81,-6.51 -34.22,-9.69 -70.24,-9.69l-134.66 0 -33.53 160.42zm400.38 334.99l124.69 -595.16 122.19 0 -124.55 595.16 -122.33 0zm274.17 -233.58c0,-35.18 5.26,-72.31 15.79,-111.38 13.85,-52.37 34.91,-97.67 63.17,-136.18 28.27,-38.52 64.01,-68.86 106.96,-91.3 43.08,-22.31 91.98,-33.53 146.98,-33.53 73.71,0 133.14,22.86 178.44,68.72 45.3,45.85 68.02,106.53 68.02,182.18 0,62.89 -14.68,123.71 -44.19,182.45 -29.51,58.88 -69.68,104.18 -120.25,135.91 -50.57,31.72 -107.78,47.52 -171.79,47.52 -55.41,0 -101.96,-12.61 -139.64,-37.82 -37.55,-25.22 -64.29,-56.39 -79.94,-93.66 -15.66,-37.26 -23.55,-74.95 -23.55,-112.91zm121.36 -2.35c0,41.01 12.47,75.36 37.26,102.93 24.94,27.71 57.64,41.56 98.23,41.56 32.97,0 64.69,-10.94 95.03,-32.69 30.48,-21.89 55.56,-55 75.51,-99.33 19.81,-44.47 29.78,-87.56 29.78,-129.67 0,-46.97 -12.6,-83.82 -37.68,-110.56 -25.21,-26.74 -57.22,-40.04 -96.14,-40.04 -59.71,0 -108.34,27.99 -145.89,83.82 -37.4,55.97 -56.1,117.2 -56.1,183.98z"/>
   <path class="fil3" d="M1379.73 1618.6l437.85 0.15 -234.92 1347.98 564.48 0.5 238.91 -1341.92 386.89 0.24 -232.23 1330.75c68.07,-16.09 347.15,-228.19 399.7,-270.6 41.21,-33.26 246.46,-202.5 257.26,-246.25l74.64 -428.68c27.9,-199.99 139.03,-700.14 153.16,-859.41 -131.15,-9.51 -444.07,0.81 -614.06,-1.07 -45.85,-0.51 -50.36,-6.85 -72.9,20.81l-336.16 371.53 69.18 -399.03 -660.64 0.7c-23.87,5.08 -325.32,358.01 -377.7,409.15 -14.72,14.37 -42.21,45.3 -53.46,65.15z"/>
   <path class="fil4" d="M3556.99 743.78c143.07,17.68 199.78,17.75 299.51,93.89 65.74,50.18 119.12,141.81 136.17,261.85 32.11,226.05 -63.92,474.79 -146.99,644.35 -298.99,610.3 -1020.99,1326.13 -1702.64,1488.1 -425.98,101.21 -692.13,-78.57 -655.89,-490.51 11.24,-127.74 47.28,-210.09 76.55,-319.34 -53,74.88 -127.19,256.64 -161.56,358.31 -147.11,435.15 -114.31,948.56 476.28,938.39 438.99,-7.56 1001.06,-351.33 1326.41,-634.12 403.07,-350.34 752.08,-747.63 980.09,-1247.43 101.67,-222.85 218.01,-582.08 102.48,-847.63 -91.89,-211.22 -285.27,-281.21 -506.17,-277.42 -87.36,1.51 -150.8,22.17 -224.24,31.56z"/>
   <path class="fil3" d="M2543.69 1070.06c176.28,-109.49 226.28,-160.23 448.93,-270.69 333.78,-165.6 802.59,-314.76 1167.22,-148.33 301.82,137.75 276.23,383.81 296.78,431.6 43.1,-69.56 56.42,-265.82 37.4,-354.34 -81.38,-378.74 -601.28,-354.84 -894.43,-279.05 -228.95,59.2 -406.31,147.99 -585.28,255.08 -87.12,52.13 -167.84,109.87 -246.38,170.89 -102.85,79.89 -133.19,104.2 -224.24,194.84z"/>
   <path class="fil5" d="M5207.44 2503.9l-33.73 60.93c-6.75,-21.3 -3.82,-33.81 -12.86,-55.5l-21.67 -44.16c-2.19,-31.25 -125.34,-286.61 -158.83,-347 -60.31,-108.78 -123.08,-214.46 -197.8,-311.4 -21.67,-28.12 -140.77,-169.44 -162.91,-183.73 -15.21,18.49 -19.02,45.44 -10.57,72.8 13.8,44.65 43.81,78.42 73.94,112.51l7.21 10c5.4,8.02 1.14,3.71 8.7,13.39 14.03,17.96 33.55,27.28 49.21,40.65l9.7 12.92c24.09,44.76 62.47,74.03 90.28,118.05 24.2,38.33 50.64,80.06 66.35,121.06l15.31 29.58c16.12,31.7 29.22,58.56 60.31,74.86 34.48,18.08 35.67,4.89 50.56,45.57 20.9,57.09 88.93,220.55 92.89,277.35 -17.32,-13.62 -127.28,-190.95 -144.41,-223.9l-156.94 -209.49c-48.66,-57.57 -326.69,-350.82 -377.37,-359.49 -3.43,42.86 20.25,64.59 40.56,97.61l21 29.72c13.05,19.19 19.17,34.28 39.16,50.48l34.27 33.41c7.3,9.27 26.09,28.57 36.35,36.68 30.22,23.9 43.47,23.47 77.33,62.57 10.46,12.08 15.38,26.44 26.83,41.27 18.76,24.3 28.59,18.06 40.1,31.99 17.18,20.78 -2.57,19.68 25.23,43.25l48.3 53.84c28.9,41.29 37.02,37.58 52.72,57.46 28.87,36.57 40.47,45.89 88.82,51.96 29.1,62.49 122.98,217.25 137.69,267.43 -27.03,-14.7 -163.5,-176.58 -186.19,-210.19 -43.43,-64.32 -232.82,-235.16 -299.95,-289.68 -105.4,-85.59 -104.86,-91.53 -225.08,-166.59 -30.66,-19.14 -92.88,-68.66 -126.99,-71.93 14.82,66.29 79.67,103.63 113.12,144.59 50.64,62 43.81,32.81 80.43,70.11 23.67,24.1 39.88,23.25 59.55,52.6 27.61,41.18 49.97,39.53 69.78,50.2 8.54,4.6 3.9,10.8 13.21,17.52 17.41,-8.12 14.82,-19.15 36.51,-24.75 -6.33,18.62 -13.68,19.87 -22.43,38.95 17.09,20.49 22.63,21.66 43.12,36.18 25.49,18.07 19.03,33.7 56.89,25.29 -8.79,29.26 -3.29,22.16 20.64,43.06 20.64,18.02 25.5,26.49 44.32,15.04 8.64,15.67 1.56,15.57 18.81,28.45l32.83 22.92c28.59,17.65 39.98,20.2 79.22,19.35 18.3,39.77 54.97,79.83 82.05,116.47 15.98,21.62 76.42,102.31 83.01,120.56 -34.32,-20.48 -182.53,-159.65 -211.51,-192.91 -45.66,-52.4 -165.9,-141.5 -218.73,-184.81 -33.63,-27.57 -195.25,-133.12 -243.9,-157.89 -43.48,-22.14 -242.52,-127.16 -271.69,-132.77 -20.16,34.8 0.45,50.14 23.17,70.81 8.27,7.52 -0.46,1.61 11.62,10.99 6.08,4.72 15.61,9.07 21.22,11.88l54.39 28.51c21.07,6.53 20.83,48.5 84.73,74.16 1.31,0.53 2.82,0.97 4.09,1.52 1.59,0.7 6.08,2.75 7.52,3.56 1.97,1.12 7.91,5.6 9.46,6.82 5.68,4.49 2.5,2.27 8.69,7.62 14.76,12.76 38.39,39.84 55.95,23.65 1.21,1.32 2.74,1.7 3.22,4.35l8.95 15.95c0.35,0.7 0.78,2.46 1.44,3.54 13.23,-9.98 21.59,-20.55 33.54,-28.23 -9.15,16.31 -13.45,19.8 -19.37,37.39 10.03,-3.41 5.1,-4.01 11.79,-9.18 22.46,-17.33 -1.59,-6.4 27.15,-14.69 -9.48,27.36 -13.07,18.23 -18.26,38.64 57.62,39.89 38.98,6.43 72.48,1.72l-19.8 30.45c37.9,2.22 8.35,-4.13 41.8,-16.69 -5.97,28.49 -8.44,13.19 -12.46,34.29 17.57,12.78 36.32,19.24 53.12,29.95 39.41,25.14 21.86,26.12 56.98,11.19 -5.97,35.36 -1.76,27.04 26.96,45.14 36.58,23.07 14.33,13.03 50.6,15.77 -4.6,20.11 -3.25,8.85 3.17,19.32 14.54,2.49 24.47,1.66 28.31,4 12.05,7.34 15.05,34.78 95.75,22.21 28.46,42.49 200.92,208.97 213.62,243.38 -77.82,-31.96 -201.07,-156.88 -285.1,-203.32l-188.52 -112.11c-130.36,-72.99 -264.5,-127.09 -399.04,-191.2 -22,-10.48 -120.59,-60.98 -131.27,-54.1 -9.57,10.89 -3.19,-2.12 -2.02,10.84 4.71,52.03 24.28,62.68 60.1,91.29 66.68,53.25 47.84,13.9 95.82,48.96 7.35,5.36 9.82,6.65 17.23,10.57 34.53,18.27 19.12,25.19 53.39,8.7 -3,27.12 -6.26,12.43 3.67,28.82 17.77,1.12 2.81,2.59 17.5,-2.28 0.57,-0.19 13.85,-6.97 17.13,-8.55l-7.88 28.08c21.3,-1.17 25.29,0.56 37.99,-7.1l31.57 22.55c31.86,11.25 37.31,-6.89 54.19,-35.61l-20.65 44.67c15.62,19.48 27.44,32.23 49.73,22.06l5.47 20.39c19.53,0.38 8.28,-0.74 29.35,-9.36 -3.13,43.33 7.18,33.87 41.97,53.08 7.16,3.96 22.67,16.75 31.45,19.49 13.52,4.23 15.81,-1.34 20.06,-4.85l9.39 -10.37c-1.74,38.97 -3.88,30.53 73.24,56.76 153.27,52.14 108.22,-12.74 161.32,32.01 31.36,26.43 172.09,139.14 185.41,162.94l-228.23 -112.02c-33.76,-19.74 -78.33,-35 -116.21,-50.89 -41.31,-17.31 -77.91,-32.55 -121.73,-50.3 -78.09,-31.62 -177.93,-48.86 -264.26,-73.33 -35.1,-9.95 -265.21,-44.36 -297.26,-42.69 -1.48,76.43 20.22,70.21 67.73,99.85 12.81,7.99 25.17,16.27 41.37,22.02l23.5 -19.97c1.32,16.88 -1.31,11.75 5.38,22.88 0.57,0.96 1.57,2.3 2.26,3.15 4.55,5.62 28.46,22.14 68.21,24.66 13.26,0.84 17.36,-1.57 31.9,-0.4 17.61,1.42 9.98,1.22 27.77,6.71 32.05,9.88 37.58,15.14 46.65,-7.85 14.23,18.43 20.58,33.28 45.89,7.13l3.99 9.07c10.52,17.58 23.23,31.79 50.69,4.21 7.59,9.85 6.39,12.81 16.41,16.38 6.02,-9.85 11.85,-17.41 17.56,-26.66l3.45 33.87c95.37,7.51 51.71,10.45 108.72,26.92 20.25,5.85 14.72,8.87 29.05,-8.9 -0.56,48.75 13.78,18.71 33.45,44.03l15.9 -15.51 10.61 24.8 70.18 12.85c34.58,-0.49 55.21,-25.03 66.82,-48.24 82.89,42.06 181.57,115.76 252.39,177.18 22.79,19.75 12.83,19.67 29.75,43.41 12.9,18.11 25.89,22.74 36.37,37.47l-1462.72 -0.06 -0.33 49.06 3092.09 -0.51 -0.16 -48.05 -1535.23 -0.56c27.63,-16.17 40.69,-50.31 53.8,-66.87 29.02,-36.66 204.22,-152.84 244.67,-177.28 33.97,24.01 45.15,41.3 93.77,31.53 40.81,-8.19 9.28,4.49 87.3,-23.06 24.34,-8.6 45.46,-23.58 70.66,-28.51l85.1 -25.76c0.81,-0.38 2.39,-0.95 3.16,-1.28 19.07,-8.1 -0.37,9.66 20.94,-19.9 0.94,1.1 2.07,1.66 2.5,3.58 2.73,12.3 16.62,11.66 24.4,8.06l87.74 -24.37c19.86,-5.83 3.67,-1.84 18.18,-8.36l25.06 0.62c17.53,4.75 12.16,6.8 33.73,3.21 23.31,-3.87 44.52,-10.73 60.16,-23.05 1.46,-1.15 12.17,-13.89 14.74,-5.81 7.25,22.79 133.24,-44.29 146.59,-57.55 0.44,-19.62 -5.45,-31.53 -12.36,-47.84 -80.02,0.24 -234.79,7.38 -300.61,26.8 -88.37,26.07 -175.03,41.56 -254.42,77.41 -152.95,69.08 -289.34,139.76 -439.13,217.95 19.41,-6.75 143.6,-112.03 175.47,-138.12 51.13,-41.86 23.57,-10.03 79.03,-11.76 33.61,-1.05 60.93,-27.66 89.25,-41.75l52.17 -32.29c46.17,-31.02 57.11,-33.04 105,-49.98 18.92,-6.69 17.88,-17.14 26.88,-32.38 12.12,10.3 4.87,11.27 25.11,12.7l2.24 -27.53c6.38,13.83 6.99,22.12 29.67,15.63 23.59,-6.74 19.38,-15.61 17.47,-39.79 1.59,0.73 3.64,0.72 4.34,3.02 0.66,2.16 3.23,2.3 4.09,2.84 18.96,11.99 6.12,4.2 22.68,1.69l17.35 -6.07c18.2,-8.1 39.26,-8.23 58.31,-17.71 27.59,-13.73 40.09,-2.43 69.63,-11.58 57.02,-17.67 27.25,-20.41 44.41,-48.61 5.14,5.56 2.94,2.88 8.18,11.15 4.19,6.62 4.04,8.22 8.23,14.79 33.85,-14.5 73.2,-37.54 99.33,-68.12 12.06,-14.11 17.63,-17.58 11.95,-43.8 -31.04,-6.6 -263.2,48.81 -285.94,60.28 -79.01,39.83 -161.68,73.21 -236.05,120.64l-322.85 213.29c-30.08,19.65 -85.62,60.58 -118.15,72.57 10.7,-18.01 43.8,-52.06 58.31,-66.26l117.77 -118.27c45.11,-49.58 19.38,-30 79.49,-30.07 55.71,-0.06 119.16,-49.91 159.21,-82.14l71.4 -46.04c25.54,-11.22 17.56,-4.08 35.74,-24.43l4.6 -4.85c22.25,-19.86 -4.56,5.67 7.5,-4.83 0.5,-0.44 1.84,-1.29 2.31,-1.79l9.14 -17.21c16.41,20.82 37.71,11.91 36.93,-18.94 41.23,16.86 -6.63,-13.99 33.55,2.8l-4.23 -28.91c15.57,16.94 2.13,11.07 21.24,16.48 10.09,-7.18 28.11,-16.28 39.07,-22.28 9.99,-5.47 -0.61,-1.59 11.55,-5.5 31.8,-10.23 77.69,-10.55 91.62,-41.21l9.29 -24.27c4.27,-7.53 4.3,-6.27 7.06,-10 14.27,19.44 -0.11,11.28 16.41,24.13l112.84 -90.55c20.41,-20.91 11.2,-28.53 0.42,-47.65 -15.23,0.72 -264.84,95.29 -284.49,106.23 -89.17,49.62 -331.81,215.96 -414.09,284.3 -78.12,64.89 -195.75,191.33 -275.73,232.53 19.42,-37.68 68.8,-96.86 94.9,-128.41l99.58 -125.74c60.41,-0.96 85.25,-7.23 126.65,-40.05l15.86 -12.03c0.83,-0.74 2.03,-1.89 2.84,-2.66l75.38 -65.33c40.78,-25.81 62.68,-62.68 104.33,-85.65 1.12,-0.62 2.53,-1.38 3.72,-1.95 27.07,-13.1 82.35,-26.29 69.8,-64.29 50.13,12.02 47.6,-19.6 83.42,-34.72 1.36,-0.57 2.89,-0.94 4.29,-1.44 45.29,-16.13 80.92,-52.82 112.8,-87.8 64.78,-71.06 69.06,-130.16 19.1,-102.15l-210.26 125.76c-49.73,31.57 -176.72,125.59 -220.06,165.98 -44.97,41.9 -159.61,146.6 -190.99,191.08 -20.63,29.24 -162.06,183.98 -189.8,201.73 7.84,-20.97 132.26,-234.13 155.46,-238.9 31.24,-6.43 49.04,-9.09 72.67,-31.86 21.08,-20.3 34.89,-11.36 22.29,-46.15 32.84,7.89 24.66,8.75 43.92,-16.94 20.55,-27.4 21.81,-12.07 18.29,-44.08 33.17,-0.71 25.99,-10.68 34.47,-21.26 25.11,-31.36 49.54,-27.04 33.2,-68.72 32.14,1.33 30.17,6.03 23.45,-21.03 36.28,0.8 52.3,-28.6 66.88,-57.1l23.89 -32.86c58.82,-53.99 42.67,-36.26 100.35,-79.11l20.51 -21.16c13.33,-22.7 30.38,-14.33 70.97,-72.68 0.69,-1 1.64,-2.39 2.35,-3.36 24.26,-33.26 45.15,-65.79 17.67,-106.89 -17.93,5.8 -173.47,145.13 -203.2,170.99 -73.1,63.57 -117.4,117.58 -185.87,190.79 -48.59,51.95 -116.17,153.63 -160.97,217.1l-79.31 112.41c-30.35,39.04 -57.05,78.93 -85.3,103.97 24.44,-80.76 77.94,-178.44 113.09,-259.21 24.92,-57.23 41.05,-4 92.45,-94.34 11.51,-20.23 13.23,-8.31 0.19,-26.9 27.86,2.17 25.02,-5.57 38.7,-28.73 13.25,-22.44 34.6,-37.54 39.92,-64.16 4.53,-22.68 12.67,-18.97 21.45,-32.92 10.22,-16.25 8.02,-4.65 -2.41,-26.14 40.21,-2.47 48.49,-60.46 59.06,-72.03 13.14,-14.37 3.26,10.69 10.2,-9.93 0.85,-2.52 9.71,4.75 -5.03,-22.56 34.88,3.94 28.41,-17.4 38.29,-41.04 4.13,-9.86 2.02,-3.34 14.42,-12.9 24.43,-18.85 35.22,-50.39 50.85,-73.63 8.33,-12.39 102.88,-97.1 57.53,-153.72 -23.95,8.96 -137.41,160.25 -161.12,188.15 -53.58,63.07 -225.44,373.48 -257.22,444.17 -31.85,70.83 -96.19,159.48 -120.38,227.97z"/>
   <path class="fil5" d="M5139.18 2359.14l21.67 44.15c9.04,21.69 6.11,34.2 12.86,55.51l33.73 -60.94c-9.76,-12.33 -1.54,-22.98 7.12,-58.68 6.04,-24.88 10.98,-44.09 18.43,-66.58l52.62 -170.12c6.81,-11.96 1.41,-5.56 11.44,-11.96 27.08,-17.25 25.41,-2.73 48.01,-34.73 22.39,-31.71 39.61,-71.18 52.82,-116.93 7.33,-25.37 13.71,-29.87 22.06,-57.58 6.54,-21.7 12.26,-43.93 20.23,-65.52 29.49,-79.81 34.74,-105.81 75.95,-174.52 11.44,-19.08 18.29,-34.88 27.66,-57.57 15.03,-36.39 40.41,-95.66 12.74,-128.25 -19.68,8.44 -4,-6.41 -19.57,17.27 -5.91,9 -8.99,18.23 -13.32,26.34l-81.65 151.11c-34.35,65.43 -59.02,151.31 -85.1,221.44 -48.68,130.92 -121.35,316.99 -163.04,449.58 -9,-20.73 22.2,-202.33 27.23,-240.94 8.47,-65.15 30.49,-22.74 47.18,-88.1l34.14 -246.4c2.76,-89.69 113.21,-300.29 37.28,-319.3 -119.35,354.43 -126.68,706.31 -152.18,787 -2.26,-4.88 -29.8,-384.32 -34.63,-431.73 -20.92,-205.33 -24.9,-182.23 -54.07,-346.14 -0.83,-4.67 -3.06,-19.7 -4.15,-23.13 -8.86,-27.83 3.11,-12.02 -15.64,-21.66 -33.39,37.54 5.54,171.02 12.97,220.23 13.47,89.2 25.17,337.08 46.4,395.21 25.44,69.67 25.24,-14.29 25.17,167.42 -0.01,23.61 10.83,96.16 -2.51,115.24 -25.12,-71.07 -33.62,-163.96 -56.72,-235.39 -36.93,-114.19 -115.32,-330.31 -164.64,-426.4l-74.88 -146.09c-10.28,-20.44 -11.08,-35.68 -31.88,-43.77 -18.92,16.28 -19.94,22.58 -0.94,84.3 44.23,143.71 86.38,212.8 139.72,332.41 12.29,27.57 22.2,54.28 32.27,86.2l35.42 84.34c17.03,28.33 28.74,43.16 59.71,58.24 5.7,50.27 17.67,94.57 25.55,142.01l23.22 118.94c-3.69,22.7 10.03,1.1 -8.68,15.49z"/>
   <polygon class="fil5" points="6757.79,3654.6 6757.84,3608.38 5122.75,3608.31 5106.34,3608.32 5089.93,3608.38 3689.98,3608.41 3668.12,3608.18 3668.16,3654.53 "/>
   <path class="fil5" d="M4513.43 3253.84l0.17 -204.64c67.9,10.18 72.62,19.68 73.19,96.75 0.58,76.69 1.57,104.54 -73.36,107.89zm-78.43 -200.18l0.94 446.18c-18.47,-0.06 -26.92,-2.46 -39.21,4.5 15.19,5.61 155.35,6.22 170.61,0l-53.56 -5.41 -0.32 -237.12c50.83,-0.59 92.51,-7.49 122,-35.45 29.24,-27.71 44.76,-81.17 16.96,-126.59 -43.86,-71.65 -159.82,-60.29 -257.77,-56.79 18.79,11.54 20.02,1.13 40.35,10.68z"/>
   <path class="fil5" d="M6110.6 3050.53c68.82,2.88 72,27.36 72.88,101.33 0.84,70.35 -4.5,98.7 -73.35,101.82l0.47 -203.15zm-77.81 8.9l0.12 440.51c-19.27,-0.17 -27.3,-2.53 -39.82,4.4l117.22 -5.44 -0.13 -237.38c192.74,0.8 185.59,-165.74 83.19,-206.7 -46.26,-18.5 -144.39,-12.71 -202.92,-12.34l9.15 3.32c40.12,10.47 21.69,-5.25 33.19,13.63z"/>
   <path class="fil5" d="M5155.56 3180.59c32.53,-40.17 -7.56,-128.95 132.24,-128.93 -15.11,77.4 -152.3,419.96 -150.89,455.05l222.66 0.57c2.87,-28.45 5.85,-142.98 -1.67,-162.43 -17.83,5.24 -3.46,-14.37 -19.58,52.36 -18.7,77.39 -51.51,98.8 -127.55,101.38l156.82 -456.18 -218.29 -0.48 6.26 138.66z"/>
   <path class="fil5" d="M3668.1 3180.51c24.59,-17.42 5.46,-114.01 88.29,-127.91l0.34 447.01 76.59 -1.38 0.23 -444.47c69.16,3.41 74.71,100.24 78.77,110.94 6.39,16.82 -2.76,10.48 12.81,14.45l3.19 -134.19 -266.48 -3.16c-0.87,27.1 -5.08,109.4 4.25,134.77 0.35,0.96 1.14,2.77 2.01,3.94z"/>
   <path class="fil5" d="M6611.92 3094.12c-0.76,63.43 -30.9,116.6 -58.95,147.6 -5.74,6.33 -102.2,105.11 -127.81,47.37 -21.3,-48.02 19.26,-138.48 39.44,-163.87 41.86,-52.7 76.72,-44.7 147.32,-31.1zm-23.92 140.86c-2.58,34.16 -16.12,72.7 -8,103.91 26.74,52.2 151.44,-47.41 134.11,-83.69 -29.55,14.11 -26.9,56.76 -76.12,53.42 -0.29,-82.58 37.55,-181.26 41.64,-253.16 -340.06,-54.68 -403.56,356.04 -231,289.87 31.19,-11.96 51.33,-29.18 75.08,-47.91 27.05,-21.34 40.01,-44.2 64.29,-62.44z"/>
   <path class="fil5" d="M5576.64 3344.13c-9.77,15.54 -10.64,147.27 0,163.29 19.07,-15.92 3.47,-43.13 34.82,-34.95 7.35,1.92 98.25,80.45 168.08,9.28 72.81,-74.2 -8.26,-173.62 -46.76,-217.29 -23.46,-26.6 -145.67,-131.66 -111.47,-192.47 22.48,-39.96 108.31,-47 146.48,80.02 6.87,22.89 0.97,20.85 16.66,28.43l0 -138.19c-16.44,10.97 -6.06,13.4 -17.41,32.56 -40.5,-5.37 -40.97,-40.62 -113.97,-33.88 -40.86,3.77 -74.13,32.48 -80.82,71.7 -13.52,79.27 76.97,159.05 108.55,194.99 20.36,23.16 140.42,165.68 39.97,193.16 -106.05,29.01 -121.41,-143.64 -144.13,-156.65z"/>
   <path class="fil5" d="M4891.88 3080.1c128.42,-34.8 114.35,207.53 9.99,231 -127.35,28.65 -116.27,-202.2 -9.99,-231zm28.97 -33.96c-183.7,46.09 -251.45,351.59 -42.49,298.13 64.56,-16.52 130.35,-87.45 153.08,-144.64 39.13,-98.45 -3.57,-180.34 -110.59,-153.49z"/>
   <path class="fil5" d="M4081.62 3199.14c5.09,-41.07 18.68,-65.96 39.89,-88.25 65.24,-68.6 145.56,13.96 58.59,67.85 -31.87,19.74 -55.65,23.68 -98.48,20.4zm180.36 47.27c-12.37,2.33 -7.27,-0.05 -19.99,14.71 -19.72,22.88 -31.58,42.34 -70.65,48.15 -59.12,8.81 -83.81,-16.69 -89.8,-72.72 69.24,-11.46 171.08,-70.58 182.41,-132.02 13.06,-70.74 -48.62,-68.51 -93.16,-51.07 -97.47,38.16 -211.54,229.54 -103.26,288.93 39.08,21.44 88.69,8.08 120.97,-10.26 28.97,-16.47 80.25,-50.82 73.48,-85.72z"/>
   <path class="fil5" d="M4745.41 3504.6c97.01,-84.7 201.42,77.4 317.3,-34.93 -7.27,-18.97 -18.31,-25.72 -32.93,-35.85 -33.34,11.66 -28.31,30.31 -82.05,25.45 -40.11,-3.62 -204.42,-74.72 -240.64,16.18 14.17,14.28 21.99,21.39 38.32,29.15z"/>
   <path class="fil5" d="M6373.4 3504.27c28.01,-10.79 40.23,-31.32 82.34,-27.16 26.48,2.61 58.08,15.5 82.92,21.74 28.1,7.05 58.47,14.16 90.09,7.6 38.58,-8.01 46.07,-21.18 70.15,-34.8 -9.93,-22.9 -21.75,-29.26 -41.55,-37.97 -82.41,88.2 -206.61,-77.79 -314.75,35.99 3.8,7.27 0.58,2.17 7.01,9.78l23.79 24.82z"/>
   <path class="fil5" d="M3990.75 3502.14c33.81,-15.3 35.25,-32.56 84.42,-24.29 28.84,4.85 54.99,15.7 83.26,22.89 63.73,16.19 121.98,8.09 153.73,-36.7 -10.62,-9.59 -22.05,-21.21 -37.04,-29.41 -71.35,44.32 -84.81,25.46 -166.52,2.84 -78.33,-21.69 -105.82,-5.66 -154.54,32.65 14.01,17.12 15.54,19.27 36.69,32.02z"/>
  </g>
 </g>
</svg>
