<?xml version="1.0" encoding="UTF-8"?>
<!DOCTYPE svg PUBLIC "-//W3C//DTD SVG 1.1//EN" "http://www.w3.org/Graphics/SVG/1.1/DTD/svg11.dtd">
<!-- Creator: CorelDRAW 2017 -->
<svg xmlns="http://www.w3.org/2000/svg" xml:space="preserve" width="33.6972mm" height="23.0292mm" version="1.1" style="shape-rendering:geometricPrecision; text-rendering:geometricPrecision; image-rendering:optimizeQuality; fill-rule:evenodd; clip-rule:evenodd"
viewBox="0 0 3369.72 2302.92"
 xmlns:xlink="http://www.w3.org/1999/xlink">
 <defs>
  <style type="text/css">
   <![CDATA[
    .fil2 {fill:#FEFEFE}
    .fil5 {fill:#203040}
    .fil6 {fill:#3A53A3}
    .fil3 {fill:#FEFEFE;fill-rule:nonzero}
    .fil0 {fill:#FEFEFE;fill-rule:nonzero}
    .fil4 {fill:black;fill-rule:nonzero}
    .fil1 {fill:#3A53A3;fill-rule:nonzero}
   ]]>
  </style>
 </defs>
 <g id="Capa_x0020_1">
  <metadata id="CorelCorpID_0Corel-Layer"/>
  <g id="_1675097473072">
   <g>
    <path class="fil0" d="M810.84 413.08l198.12 29.65 -70.9 473.78 -198.12 -29.65 -200.85 -276.1 271.75 -197.68zm-70.9 473.78c-130.83,-19.57 -221.01,-141.51 -201.44,-272.34 19.57,-130.83 141.51,-221.01 272.34,-201.44l-70.9 473.78zm-9.93 -637.91l314.94 360.98 -0.38 0.33 -1.06 0.95 -1 0.93 -0.82 0.81 -0.96 1 -0.88 0.95 -0.96 1.1 -0.96 1.15 -0.96 1.22 -0.9 1.19 -0.93 1.31 -1.09 1.6 -0.96 1.47 -1.04 1.71 -1.03 1.76 -1.02 1.86 -1.09 2.1 -1.15 2.33 -1.08 2.3 -1.14 2.59 -1.16 2.76 -1.12 2.88 -1.16 3.13 -1.1 3.17 -1.17 3.6 -1.1 3.6 -1.08 3.85 -1.12 4.21 -1.03 4.21 -0.98 4.34 -0.98 4.73 -0.97 5.05 -0.88 5.06 -472.6 -78.42 2.24 -12.8 2.39 -12.53 2.62 -12.61 2.88 -12.72 3.09 -12.59 3.26 -12.35 3.52 -12.41 3.78 -12.42 3.95 -12.16 4.26 -12.31 4.48 -12.11 4.74 -12.08 4.98 -11.94 5.22 -11.85 5.56 -11.88 5.73 -11.59 6.03 -11.54 6.36 -11.54 6.61 -11.36 6.84 -11.15 7.18 -11.13 7.31 -10.74 7.69 -10.77 8 -10.61 8.18 -10.34 8.44 -10.13 8.68 -9.94 9.02 -9.81 9.18 -9.5 9.58 -9.43 9.66 -9.03 9.84 -8.77 -0.38 0.33zm0.38 -0.33c99.86,-86.75 251.16,-76.13 337.91,23.73 86.75,99.86 76.13,251.16 -23.73,337.91l-314.18 -361.64zm376.89 -135.36l0 479.06 0 0 -3.8 0.03 -3.63 0.1 -3.45 0.16 -3.29 0.22 -3.26 0.28 -2.8 0.29 -2.8 0.36 -2.77 0.41 -2.33 0.39 -2.38 0.46 -2.34 0.5 -2.04 0.48 -2 0.52 -1.81 0.52 -1.73 0.54 -1.65 0.55 -1.49 0.54 -1.47 0.57 -1.4 0.58 -1.35 0.6 -1.29 0.61 -1.26 0.63 -1.15 0.62 -1.24 0.71 -1.17 0.69 -1.13 0.72 -1.19 0.78 -1.22 0.86 -1.2 0.88 -1.23 0.96 -1.17 0.95 -1.29 1.1 -314.94 -360.98 9.77 -8.34 10.07 -8.17 10.19 -7.88 10.38 -7.64 10.54 -7.38 10.75 -7.16 10.97 -6.92 11.09 -6.63 11.2 -6.33 11.47 -6.12 11.54 -5.81 11.67 -5.53 11.79 -5.24 11.9 -4.96 12.01 -4.67 12.15 -4.4 12.19 -4.09 12.25 -3.8 12.37 -3.52 12.34 -3.22 12.46 -2.96 12.36 -2.64 12.48 -2.4 12.69 -2.15 12.43 -1.83 12.58 -1.6 12.74 -1.35 12.46 -1.06 12.61 -0.84 12.61 -0.58 12.61 -0.36 12.6 -0.11 0 0zm392.32 144.01l-329.56 347.7 -0.34 -0.33 -0.37 -0.35 -0.29 -0.25 -0.36 -0.3 -0.27 -0.21 -0.5 -0.36 -0.4 -0.29 -0.29 -0.19 -0.64 -0.39 -0.57 -0.34 -0.59 -0.31 -0.89 -0.46 -0.81 -0.39 -1 -0.44 -1.12 -0.47 -1.37 -0.52 -1.53 -0.55 -1.47 -0.49 -1.93 -0.58 -2.08 -0.58 -2.03 -0.52 -2.52 -0.57 -2.7 -0.56 -2.78 -0.51 -3.03 -0.49 -3.24 -0.45 -3.61 -0.43 -3.82 -0.39 -3.94 -0.32 -4.15 -0.25 -4.52 -0.19 -4.75 -0.13 -4.85 -0.04 0 -479.06 13.15 0.12 13.01 0.33 13 0.57 13.11 0.81 13.1 1.06 12.96 1.29 12.93 1.55 13.06 1.83 13.03 2.11 13.04 2.39 12.86 2.66 12.8 2.93 13.05 3.3 12.76 3.56 12.65 3.84 12.89 4.25 12.57 4.51 12.49 4.82 12.48 5.19 12.38 5.52 12.31 5.89 11.99 6.12 12.05 6.57 11.81 6.86 11.52 7.11 11.61 7.61 11.24 7.83 10.92 8.06 10.89 8.51 10.56 8.74 10.39 9.09 10.05 9.31 -0.34 -0.33zm0.34 0.33c95.83,91.19 99.59,242.81 8.4,338.64 -91.19,95.83 -242.81,99.59 -338.64,8.4l330.24 -347.04zm157.08 372.85l-479.06 0 0 0 -0.02 -2.38 -0.07 -2.17 -0.1 -1.84 -0.15 -1.83 -0.16 -1.65 -0.17 -1.31 -0.19 -1.31 -0.21 -1.18 -0.21 -1.05 -0.2 -0.88 -0.14 -0.59 -0.2 -0.69 -0.18 -0.61 -0.11 -0.31 -0.17 -0.45 -0.16 -0.41 -0.03 -0.08 -0.16 -0.32 -0.15 -0.32 -0.05 -0.1 -0.14 -0.24 -0.21 -0.34 -0.15 -0.25 -0.1 -0.14 -0.33 -0.46 -0.4 -0.53 -0.4 -0.5 -0.4 -0.47 -0.57 -0.64 -0.68 -0.74 -0.79 -0.79 -0.92 -0.9 329.56 -347.7 9.26 9 9.07 9.25 8.86 9.5 8.65 9.74 8.48 10.09 8.16 10.22 7.84 10.37 7.59 10.58 7.5 11.08 7.11 11.15 6.73 11.2 6.48 11.48 6.25 11.78 5.81 11.74 5.5 11.88 5.29 12.3 4.84 12.15 4.51 12.25 4.25 12.57 3.84 12.43 3.52 12.51 3.24 12.77 2.86 12.66 2.53 12.65 2.21 12.68 1.91 12.71 1.61 12.89 1.28 12.71 0.99 12.69 0.7 12.84 0.41 12.67 0.14 12.64 0 0zm-43.42 213.96l-443.32 -181.58 0.45 -1.08 0.57 -1.39 0.55 -1.38 0.45 -1.18 0.51 -1.39 0.54 -1.52 0.31 -0.88 0.33 -1.02 0.46 -1.43 0.35 -1.14 0.34 -1.18 0.3 -1.07 0.2 -0.76 0.26 -1.02 0.23 -0.99 0.22 -0.96 0.27 -1.29 0.19 -0.91 0.11 -0.6 0.15 -0.86 0.14 -0.85 0.12 -0.83 0.11 -0.81 0.14 -1.14 0.09 -0.74 0.04 -0.48 0.06 -0.78 0.06 -0.74 0.06 -1.05 0.03 -0.72 0.02 -0.74 0.02 -0.73 0 -0.72 479.06 0 -0.04 6.96 -0.14 6.95 -0.22 6.96 -0.33 6.96 -0.38 6.63 -0.48 6.94 -0.58 6.9 -0.7 7.22 -0.77 6.94 -0.8 6.54 -0.93 6.89 -1.02 6.85 -1.1 6.85 -1.19 6.82 -1.33 7.1 -1.37 6.77 -1.37 6.41 -1.52 6.74 -1.61 6.71 -1.68 6.68 -1.84 6.94 -1.86 6.63 -1.9 6.52 -2.01 6.58 -1.98 6.27 -2.21 6.7 -2.35 6.84 -2.22 6.18 -2.33 6.33 -2.51 6.54 -2.51 6.36 -2.59 6.33 0.45 -1.08zm-0.45 1.08c-50.73,122.17 -190.91,180.07 -313.08,129.34 -122.17,-50.73 -180.07,-190.91 -129.34,-313.08l442.42 183.74zm-123.81 195.2l-361.1 -314.82 -1.86 2.17 2.42 -2.87 2.42 -2.91 2.32 -2.83 2.25 -2.78 2.19 -2.76 2.02 -2.58 2.02 -2.64 1.98 -2.61 1.88 -2.54 1.7 -2.31 1.67 -2.36 1.78 -2.53 1.59 -2.3 1.45 -2.14 1.44 -2.19 1.42 -2.18 1.25 -1.96 1.24 -2 1.17 -1.94 1.04 -1.75 1.09 -1.89 1.03 -1.82 0.87 -1.57 0.85 -1.6 0.74 -1.42 0.74 -1.46 0.74 -1.49 0.68 -1.44 0.58 -1.24 0.47 -1.06 0.43 -0.98 0.43 -1.06 443.32 181.58 -2.79 6.68 -2.93 6.78 -3.01 6.72 -3.04 6.56 -3.06 6.4 -3.12 6.35 -3.24 6.42 -3.38 6.48 -3.39 6.32 -3.51 6.39 -3.47 6.14 -3.53 6.11 -3.7 6.25 -3.71 6.1 -3.76 6.06 -3.89 6.14 -3.84 5.92 -3.94 5.95 -4.07 6.02 -4.05 5.88 -4 5.69 -4.21 5.88 -4.32 5.93 -4.28 5.76 -4.3 5.69 -4.38 5.7 -4.52 5.78 -4.47 5.62 -4.53 5.62 -4.6 5.61 -4.62 5.55 -4.74 5.61 -1.86 2.17zm1.86 -2.17c-85.73,100.74 -236.91,112.9 -337.65,27.17 -100.74,-85.73 -112.9,-236.91 -27.17,-337.65l364.82 310.48zm-155.93 156.31l-325.8 -351.22 0 0 5.53 -5.13 5.47 -5.11 5.36 -5.01 5.16 -4.85 5.12 -4.83 5.01 -4.75 4.9 -4.66 4.78 -4.56 4.67 -4.48 4.37 -4.2 4.41 -4.29 4.5 -4.38 4.1 -4 3.98 -3.91 3.94 -3.9 3.83 -3.81 3.8 -3.81 3.59 -3.6 3.35 -3.39 3.22 -3.29 3.31 -3.4 3.19 -3.29 2.82 -2.95 2.81 -2.95 2.67 -2.83 2.55 -2.73 2.51 -2.71 2.27 -2.46 1.99 -2.19 2.09 -2.33 1.83 -2.05 1.64 -1.89 361.1 314.82 -3.7 4.21 -3.73 4.19 -3.65 4.07 -3.97 4.37 -3.89 4.24 -3.85 4.15 -4.03 4.31 -4.09 4.33 -4.17 4.39 -4.36 4.53 -4.21 4.35 -4.27 4.4 -4.58 4.67 -4.65 4.71 -4.63 4.66 -4.62 4.61 -4.79 4.77 -4.88 4.82 -5.06 4.99 -5.14 5.02 -4.96 4.82 -5.23 5.07 -5.49 5.3 -5.41 5.18 -5.5 5.26 -5.58 5.3 -5.69 5.39 -5.78 5.45 -5.94 5.59 -5.96 5.57 -6.05 5.65 -6.21 5.77 0 0zm-114.99 109.84l-346.5 -330.82 0.05 -0.04 2.79 -2.92 3.02 -3.11 2.88 -2.94 2.95 -2.99 2.85 -2.87 3.1 -3.11 3.34 -3.33 3.42 -3.39 3.22 -3.16 3.45 -3.4 3.7 -3.6 3.65 -3.56 3.77 -3.64 3.86 -3.74 3.98 -3.83 4.2 -4.04 4.2 -4.01 4.3 -4.11 4.53 -4.31 4.54 -4.3 4.65 -4.4 4.76 -4.51 4.98 -4.69 5.01 -4.71 5.1 -4.8 5.33 -4.99 5.36 -5.01 5.47 -5.11 5.67 -5.29 5.72 -5.32 5.83 -5.43 6.01 -5.58 325.8 351.22 -5.71 5.3 -5.63 5.23 -5.5 5.12 -5.29 4.93 -5.23 4.89 -5.1 4.77 -4.89 4.59 -4.84 4.54 -4.71 4.43 -4.48 4.23 -4.44 4.19 -4.31 4.08 -4.16 3.96 -3.93 3.73 -3.9 3.73 -3.76 3.59 -3.5 3.36 -3.48 3.35 -3.34 3.22 -3.19 3.1 -3.05 2.96 -2.76 2.7 -2.75 2.7 -2.74 2.7 -2.3 2.27 -2.12 2.11 -2.1 2.11 -2.11 2.13 -1.77 1.79 -1.58 1.62 -1.2 1.23 -1.17 1.22 0.05 -0.04zm-243.03 -336.74l0 479.06 -188.86 -386.86 4.83 -6.07 4.62 -5.56 4.5 -5.25 4.53 -5.11 4.19 -4.58 4.22 -4.51 4.26 -4.41 3.91 -3.97 3.75 -3.73 3.96 -3.88 3.42 -3.27 3.45 -3.27 3.66 -3.42 3.1 -2.86 2.73 -2.5 3.13 -2.86 2.96 -2.66 2.37 -2.14 2.58 -2.32 2.18 -1.95 2.16 -1.94 2.17 -1.96 1.76 -1.59 1.73 -1.58 1.48 -1.36 1.05 -0.97 1.21 -1.14 0.75 -0.7 0.26 -0.26 0.4 -0.39 0.31 -0.32 -0.24 0.25 346.5 330.82 -4.14 4.27 -3.69 3.72 -3.7 3.67 -3.94 3.82 -3.55 3.38 -3.15 2.96 -3.39 3.15 -3.02 2.76 -2.81 2.56 -2.84 2.57 -2.47 2.22 -2.5 2.26 -2.5 2.25 -2.12 1.9 -2.33 2.1 -1.76 1.58 -1.55 1.42 -1.95 1.78 -1.56 1.44 -0.96 0.88 -1.11 1.07 -1.12 1.07 -0.5 0.48 -0.65 0.65 -0.43 0.43 0.02 -0.01 0.06 -0.07 0.13 -0.14 0.57 -0.65 0.66 -0.77 0.9 -1.08 1.23 -1.55 -188.86 -386.86zm188.86 386.86c-81.36,104.3 -231.89,122.89 -336.19,41.53 -104.3,-81.36 -122.89,-231.89 -41.53,-336.19l377.72 294.66zm39.8 92.2l-228.66 0 0 -479.06 228.66 0 174.82 403.27 -174.82 75.79zm0 -479.06c132.28,0 239.53,107.25 239.53,239.53 0,132.28 -107.25,239.53 -239.53,239.53l0 -479.06zm-232.73 664.17l0 -479.06 -138.16 43.86 8.04 -5.67 7.96 -5.62 7.86 -5.55 7.87 -5.58 7.87 -5.58 7.61 -5.4 7.57 -5.42 7.59 -5.43 7.35 -5.3 7.32 -5.31 7.16 -5.23 7.05 -5.18 7.02 -5.21 6.75 -5.05 6.68 -5.05 6.55 -5 6.34 -4.91 6.19 -4.84 6.03 -4.8 5.88 -4.72 5.6 -4.59 5.51 -4.58 5.32 -4.5 5.04 -4.35 4.84 -4.26 4.56 -4.09 4.4 -4.05 4.18 -3.92 3.79 -3.66 3.69 -3.66 3.37 -3.43 3.08 -3.24 349.64 327.48 -8.22 8.64 -8.27 8.43 -8.25 8.18 -8.45 8.16 -8.36 7.86 -8.4 7.73 -8.52 7.65 -8.5 7.48 -8.54 7.35 -8.48 7.18 -8.53 7.1 -8.62 7.05 -8.56 6.9 -8.59 6.82 -8.61 6.74 -8.62 6.67 -8.57 6.54 -8.56 6.49 -8.63 6.45 -8.48 6.29 -8.55 6.3 -8.54 6.23 -8.46 6.13 -8.49 6.12 -8.33 5.97 -8.37 5.98 -8.39 5.96 -8.15 5.78 -8.15 5.76 -8.18 5.79 -8.06 5.68 -7.96 5.63 -138.16 43.86zm138.16 -43.86c-108.06,76.3 -257.53,50.55 -333.83,-57.51 -76.3,-108.06 -50.55,-257.53 57.51,-333.83l276.32 391.34zm-431.39 -435.2l293.23 0 0 479.06 -293.23 0 -237.59 -269.94 237.59 -209.12zm0 479.06c-132.28,0 -239.53,-107.25 -239.53,-239.53 0,-132.28 107.25,-239.53 239.53,-239.53l0 479.06zm-168.97 -493.07l427.14 216.9 0.2 -0.4 -1.03 2.07 -0.92 1.9 -1.05 2.21 -1.05 2.29 -0.86 1.9 -0.86 1.99 -0.94 2.21 -0.81 1.99 -0.8 1.99 -0.73 1.91 -0.75 2 -0.82 2.3 -0.78 2.23 -0.68 2 -0.66 2.01 -0.63 2.01 -0.61 2.02 -0.56 1.96 -0.65 2.35 -0.55 2.03 -0.52 2.07 -0.58 2.35 -0.47 2.02 -0.47 2.09 -0.44 2.1 -0.42 2.12 -0.41 2.17 -0.42 2.39 -0.36 2.16 -0.3 1.93 -0.35 2.44 -0.3 2.24 -475.18 -60.82 0.98 -7.28 1.01 -7.06 1.16 -7.53 1.22 -7.28 1.24 -7.01 1.35 -7.21 1.44 -7.24 1.52 -7.22 1.59 -7.21 1.69 -7.24 1.68 -6.87 1.82 -7.15 1.91 -7.13 1.89 -6.81 2.08 -7.16 2.13 -7.06 2.21 -7.05 2.28 -7.01 2.36 -7 2.36 -6.73 2.4 -6.64 2.57 -6.92 2.69 -6.97 2.72 -6.85 2.81 -6.83 2.78 -6.57 2.94 -6.77 3.06 -6.82 2.95 -6.39 3.05 -6.47 3.26 -6.72 3.27 -6.53 0.2 -0.4zm-0.2 0.4c59.67,-118.06 203.76,-165.39 321.82,-105.72 118.06,59.67 165.39,203.76 105.72,321.82l-427.54 -216.1zm120.76 -178.2l360.02 316.04 -0.02 0.02 -2.02 2.31 -1.95 2.28 -2.02 2.39 -1.89 2.28 -2.09 2.55 -1.84 2.28 -1.94 2.45 -1.8 2.3 -1.76 2.31 -1.97 2.59 -1.6 2.15 -1.69 2.33 -1.8 2.49 -1.85 2.63 -1.75 2.5 -1.54 2.25 -1.55 2.31 -1.75 2.66 -1.6 2.43 -1.52 2.4 -1.58 2.51 -1.48 2.41 -1.58 2.6 -1.55 2.62 -1.44 2.44 -1.46 2.56 -1.5 2.65 -1.41 2.57 -1.36 2.49 -1.39 2.61 -1.42 2.71 -1.32 2.58 -427.14 -216.9 3.1 -6.04 3.06 -5.85 3.15 -5.93 3.26 -6.01 3.27 -5.89 3.24 -5.75 3.34 -5.82 3.44 -5.9 3.39 -5.68 3.42 -5.66 3.58 -5.81 3.56 -5.67 3.68 -5.76 3.68 -5.67 3.57 -5.4 3.85 -5.73 3.94 -5.75 3.79 -5.44 3.75 -5.29 3.86 -5.39 4.03 -5.51 4.2 -5.65 3.91 -5.17 4.16 -5.43 4.22 -5.38 4.12 -5.21 4.3 -5.32 4.11 -5.03 4.37 -5.26 4.32 -5.11 4.45 -5.2 4.46 -5.11 -0.02 0.02zm204.06 -205.7l332.7 344.68 -1.07 1.03 -8.4 8.02 -8.1 7.74 -7.97 7.66 -7.96 7.65 -7.63 7.35 -7.38 7.15 -7.26 7.04 -7.19 7.01 -6.91 6.73 -6.71 6.59 -6.66 6.55 -6.35 6.26 -6.17 6.11 -6.05 6.02 -5.86 5.85 -5.6 5.62 -5.42 5.47 -5.37 5.44 -5.11 5.2 -4.84 4.96 -4.73 4.86 -4.44 4.6 -4.32 4.51 -4.13 4.33 -3.83 4.05 -3.71 3.96 -3.59 3.86 -3.19 3.45 -3.06 3.36 -2.84 3.12 -2.48 2.79 -2.41 2.72 -360.02 -316.04 4.27 -4.84 4.52 -5.05 4.52 -5 4.62 -5.06 4.83 -5.23 4.77 -5.12 4.99 -5.32 5.19 -5.49 5.25 -5.51 5.38 -5.61 5.6 -5.8 5.65 -5.82 5.88 -6.02 5.95 -6.04 6.01 -6.1 6.32 -6.37 6.46 -6.48 6.54 -6.53 6.69 -6.66 6.91 -6.85 7.07 -6.98 7.1 -6.97 7.37 -7.23 7.53 -7.35 7.57 -7.37 7.84 -7.62 8.06 -7.79 8.17 -7.87 8.16 -7.85 8.47 -8.14 8.7 -8.32 8.74 -8.34 -1.07 1.03zm1.07 -1.03c95.74,-91.28 247.37,-87.65 338.65,8.09 91.28,95.74 87.65,247.37 -8.09,338.65l-330.56 -346.74zm117.84 -116.36l358.12 318.2 -1.48 1.64 -3 3.3 -3 3.23 -2.82 3.03 -3.06 3.24 -3.13 3.29 -3.36 3.49 -3.14 3.23 -3.24 3.33 -3.49 3.56 -3.46 3.52 -3.72 3.76 -3.83 3.85 -3.72 3.73 -4.07 4.08 -4.31 4.3 -4.23 4.19 -4.47 4.43 -4.5 4.44 -4.63 4.57 -4.87 4.79 -4.93 4.83 -5.14 5.03 -5.28 5.16 -5.35 5.22 -5.48 5.34 -5.64 5.48 -5.84 5.68 -5.93 5.74 -6.06 5.88 -6.27 6.07 -6.36 6.15 -6.52 6.29 -332.7 -344.68 6.34 -6.13 6.22 -6.01 5.99 -5.79 5.9 -5.72 5.75 -5.58 5.52 -5.36 5.44 -5.3 5.28 -5.14 5.13 -5 4.9 -4.78 4.72 -4.63 4.65 -4.57 4.41 -4.33 4.33 -4.27 4.18 -4.12 3.91 -3.87 3.85 -3.83 3.47 -3.44 3.39 -3.4 3.46 -3.47 3.05 -3.07 2.86 -2.9 2.82 -2.86 2.49 -2.54 2.44 -2.51 2.26 -2.33 1.72 -1.79 1.65 -1.73 1.42 -1.5 1.36 -1.45 0.9 -0.97 0.58 -0.64 -1.48 1.64zm1.48 -1.64c88.77,-98.07 240.25,-105.61 338.32,-16.84 98.07,88.77 105.61,240.25 16.84,338.32l-355.16 -321.48zm27.42 -34.74l435.28 200.08 1.05 -2.32 -2.88 6.3 -2.72 5.7 -2.76 5.6 -3.07 5.98 -2.96 5.56 -2.91 5.3 -3.04 5.39 -3.15 5.41 -3.04 5.08 -3.17 5.16 -3.37 5.35 -3.15 4.86 -3.08 4.67 -3.33 4.93 -3.36 4.88 -3.45 4.91 -3.33 4.64 -3.21 4.41 -3.55 4.79 -3.45 4.55 -3.47 4.54 -3.52 4.51 -3.66 4.64 -3.6 4.47 -3.5 4.32 -3.68 4.45 -3.7 4.44 -3.75 4.44 -3.65 4.27 -3.95 4.58 -3.88 4.42 -3.77 4.27 -358.12 -318.2 2.31 -2.61 2.1 -2.4 1.89 -2.18 2.07 -2.43 1.87 -2.2 1.78 -2.14 1.7 -2.07 1.74 -2.14 1.54 -1.91 1.34 -1.7 1.38 -1.77 1.29 -1.68 1.21 -1.61 0.97 -1.31 1.19 -1.63 0.97 -1.34 0.71 -1.01 0.68 -0.98 0.59 -0.89 0.72 -1.09 0.53 -0.82 0.19 -0.29 0.25 -0.42 0.28 -0.46 0.03 -0.05 0.02 -0.03 0.03 -0.06 -0.14 0.26 -0.37 0.72 -0.2 0.4 -0.26 0.56 -0.56 1.22 1.05 -2.32zm-1.05 2.32c53.96,-120.77 195.64,-174.93 316.41,-120.97 120.77,53.96 174.93,195.64 120.97,316.41l-437.38 -195.44zm-2.52 24.92l479.06 0 0 0 -0.06 6.13 -0.15 6.08 -0.26 6.04 -0.34 5.98 -0.5 6.49 -0.54 5.82 -0.57 5.26 -0.71 5.83 -0.86 6.24 -0.87 5.57 -0.96 5.68 -1.12 6.04 -1.08 5.37 -1.19 5.52 -1.23 5.36 -1.26 5.18 -1.35 5.26 -1.44 5.32 -1.6 5.6 -1.53 5.09 -1.57 5.04 -1.77 5.42 -1.68 4.93 -1.72 4.89 -1.83 4.99 -1.81 4.79 -1.95 5 -2.06 5.09 -2.02 4.82 -1.98 4.62 -2.02 4.58 -2.18 4.81 -435.28 -200.08 0.08 -0.19 0.18 -0.4 0.14 -0.32 0.04 -0.1 -0.08 0.19 -0.05 0.14 0.01 -0.03 -0.07 0.19 -0.04 0.11 -0.06 0.19 -0.23 0.7 -0.11 0.36 -0.13 0.43 -0.28 0.98 -0.2 0.72 -0.17 0.68 -0.16 0.64 -0.19 0.86 -0.23 1.04 -0.18 0.91 -0.3 1.64 -0.22 1.28 -0.19 1.21 -0.26 1.92 -0.19 1.53 -0.11 0.98 -0.14 1.58 -0.18 2.29 -0.1 1.8 -0.08 1.9 -0.05 1.96 -0.02 2.05 0 0zm33.84 78.86l350.16 -326.92 -0.88 -0.94 5.86 6.36 5.89 6.72 5.73 6.9 5.78 7.34 5.23 7.03 4.87 6.87 5.23 7.81 4.82 7.64 4.62 7.76 4.3 7.67 3.94 7.43 4.25 8.55 3.67 7.95 3.48 8 3.46 8.58 2.94 7.87 2.88 8.26 2.6 8.16 2.41 8.17 2.22 8.27 1.92 7.87 1.88 8.54 1.6 8.2 1.41 8.16 1.21 8.12 0.99 7.63 0.9 8.36 0.68 7.96 0.51 7.52 0.37 7.84 0.22 7.76 0.07 7.7 -479.06 0 0.01 1.24 0.04 1.36 0.07 1.52 0.09 1.28 0.16 1.8 0.24 2.28 0.21 1.61 0.33 2.18 0.39 2.3 0.48 2.42 0.62 2.84 0.54 2.23 0.74 2.73 0.79 2.69 0.88 2.76 1.02 2.92 0.98 2.63 1.38 3.4 1.26 2.92 1.35 2.91 1.79 3.61 1.36 2.57 1.62 2.87 1.8 3.04 1.9 3 2.17 3.25 1.69 2.39 1.95 2.61 2.36 3 2.19 2.64 2.23 2.54 2.08 2.26 -0.88 -0.94zm0.88 0.94c-90.79,-96.2 -86.4,-247.81 9.8,-338.6 96.2,-90.79 247.81,-86.4 338.6,9.8l-348.4 328.8zm96.59 42.6l0 -479.06 0 0 8.28 0.09 8.35 0.29 8 0.44 8.06 0.63 8.58 0.86 9.06 1.15 8.13 1.24 8.24 1.44 9.26 1.88 8.26 1.9 8.27 2.11 9.07 2.57 8.64 2.71 8.46 2.9 8.14 3.02 8.48 3.41 8.56 3.72 8.29 3.87 8.18 4.1 7.89 4.22 7.79 4.44 7.99 4.84 7.94 5.13 7.15 4.9 7.42 5.36 7.38 5.65 6.65 5.37 7.15 6.09 6.5 5.86 6.31 5.95 6.31 6.29 5.9 6.17 -350.16 326.92 2.06 2.17 2.43 2.41 2.33 2.21 2.48 2.22 3.05 2.61 2.47 1.99 3.16 2.41 3.12 2.26 2.77 1.9 3.52 2.27 3.49 2.12 3.23 1.84 3.25 1.74 3.48 1.74 3.53 1.65 3.74 1.62 3.58 1.45 3.2 1.18 3.44 1.18 3.54 1.11 3.93 1.11 3.05 0.79 3 0.68 3.92 0.8 2.82 0.5 2.67 0.4 3.54 0.45 2.98 0.3 2.4 0.19 2.28 0.12 2.57 0.09 2.44 0.03 0 0zm86.6 -34.65l-340.5 -336.98 -0.77 0.78 5.99 -5.98 6.03 -5.75 5.99 -5.48 6.56 -5.74 6.54 -5.46 6.52 -5.2 7.14 -5.43 7.34 -5.29 7.06 -4.83 7.41 -4.81 7.87 -4.84 7.55 -4.37 7.88 -4.31 8.01 -4.12 7.98 -3.85 8.62 -3.88 8.75 -3.66 8.35 -3.22 8.2 -2.95 9.03 -2.97 9 -2.68 8.37 -2.27 8.81 -2.15 9.15 -1.98 8.85 -1.66 8.85 -1.44 8.79 -1.2 9.18 -1.01 8.79 -0.74 8.75 -0.53 8.68 -0.3 8.63 -0.11 0 479.06 2.69 -0.03 2.78 -0.1 2.89 -0.17 2.99 -0.26 3.42 -0.37 3.07 -0.42 3.17 -0.52 3.23 -0.6 3.57 -0.78 3.27 -0.79 2.89 -0.79 3.56 -1.06 3.63 -1.19 2.86 -1.03 3.05 -1.18 3.49 -1.46 3.42 -1.54 2.82 -1.35 2.89 -1.5 2.82 -1.53 2.53 -1.47 2.89 -1.78 2.49 -1.61 2.18 -1.49 2.5 -1.81 2.36 -1.79 1.78 -1.42 1.84 -1.54 1.92 -1.68 1.41 -1.28 1.47 -1.41 1.49 -1.48 -0.77 0.78zm0.77 -0.78c-92.62,94.44 -244.28,95.92 -338.73,3.3 -94.45,-92.62 -95.93,-244.28 -3.31,-338.72l342.04 335.42zm-260.46 200.54l70.9 -473.78 -270.59 191.27 1.58 -7.98 1.68 -8.07 1.71 -7.83 1.78 -7.79 1.96 -8.18 1.94 -7.73 2.02 -7.71 2.18 -7.89 2.25 -7.83 2.38 -7.87 2.44 -7.72 2.61 -7.86 2.66 -7.64 2.85 -7.87 2.98 -7.79 3.06 -7.67 3.46 -8.24 3.51 -7.93 3.58 -7.72 3.88 -7.98 4.1 -8.01 4.21 -7.8 4.56 -8.07 4.98 -8.32 5.13 -8.11 5.27 -7.89 5.74 -8.14 6.2 -8.3 6.45 -8.12 6.82 -8.09 7.22 -8.04 7.69 -8.04 340.5 336.98 3.25 -3.4 2.86 -3.18 2.52 -2.99 2.23 -2.8 2.04 -2.74 1.66 -2.34 1.25 -1.87 1.17 -1.85 1.1 -1.84 0.76 -1.35 0.47 -0.86 0.42 -0.83 0.28 -0.58 0.04 -0.08 0.03 -0.07 0.06 -0.14 -0.26 0.67 -0.3 0.77 -0.33 0.91 -0.48 1.38 -0.45 1.38 -0.56 1.76 -0.56 1.85 -0.61 2.11 -0.62 2.27 -0.7 2.69 -0.74 2.89 -0.64 2.68 -0.74 3.29 -0.77 3.49 -0.72 3.47 -0.76 3.8 -270.59 191.27zm270.59 -191.27c-25.19,129.86 -150.9,214.71 -280.76,189.52 -129.86,-25.19 -214.71,-150.9 -189.52,-280.76l470.28 91.24z"/>
    <path id="1" class="fil1" d="M973.51 679.62l-198.12 -29.65c15.92,-95.93 53.27,-169.43 112.09,-220.53 58.57,-51.1 131.83,-76.65 219.8,-76.65 96.66,0 172.58,26.03 227.54,78.33 55.19,52.31 82.67,118.83 82.67,199.33 0,40.98 -8.43,81.95 -25.55,123.17 -16.88,41.21 -44.58,84.34 -83.15,129.66 -27.96,32.07 -73.28,77.37 -136.42,135.94 -63.15,58.58 -104.85,98.59 -125.34,120.04 -20.47,21.44 -50.98,44.1 -69.78,68.2l228.66 0c-59.41,63.43 -147.47,124.91 -232.73,185.11l-293.23 0c6.51,-50.86 21.46,-99.31 44.6,-145.09 23.38,-46.04 52.3,-88.71 87,-128.23 34.71,-39.54 98.11,-103.4 190.4,-191.38 69.42,-67.01 113.29,-110.38 131.62,-130.63 32.77,-36.88 55.42,-68.45 67.48,-95.44 12.3,-26.76 18.32,-51.1 18.32,-72.8 0,-34.7 -10.13,-62.9 -30.61,-84.6 -20.25,-21.69 -46.28,-32.53 -77.61,-32.53 -31.83,0 -59.77,12.04 -83.65,36.39 -23.85,24.1 -41.69,67.96 -53.99,131.36z"/>
   </g>
   <g>
    <path class="fil0" d="M309.92 627l-37.59 180.78 -78.18 -16.26 37.59 -180.78 23.18 -28.48 55 44.74zm-78.18 -16.26c4.49,-21.58 25.64,-35.45 47.22,-30.96 21.58,4.49 35.45,25.64 30.96,47.22l-78.18 -16.26zm445.46 -297.87l0 79.84 29.01 -12.5 -9.55 9.94 -9.78 9.83 -10.01 9.76 -10.24 9.67 -10.48 9.58 -10.71 9.5 -10.95 9.4 -11.16 9.31 -11.4 9.23 -11.63 9.15 -11.86 9.05 -12.08 8.98 -12.32 8.88 -12.56 8.81 -12.77 8.7 -12.99 8.63 -13.23 8.54 -13.45 8.47 -13.7 8.38 -13.9 8.3 -14.15 8.21 -14.36 8.12 -14.59 8.05 -14.83 7.96 -15.04 7.9 -15.28 7.79 -15.51 7.73 -15.74 7.65 -15.96 7.55 -16.19 7.48 -16.4 7.4 -16.65 7.32 -31.82 -73.22 15.97 -7.04 15.76 -7.1 15.51 -7.16 15.26 -7.23 15.02 -7.29 14.79 -7.37 14.54 -7.43 14.32 -7.5 14.07 -7.56 13.83 -7.63 13.6 -7.7 13.35 -7.75 13.12 -7.82 12.88 -7.88 12.63 -7.95 12.41 -8.02 12.17 -8.07 11.93 -8.14 11.68 -8.19 11.44 -8.26 11.22 -8.32 10.98 -8.39 10.73 -8.43 10.5 -8.51 10.28 -8.57 10.03 -8.62 9.79 -8.68 9.56 -8.74 9.32 -8.79 9.09 -8.86 8.86 -8.93 8.63 -8.96 29.01 -12.5zm-29.01 12.5c15.14,-16.02 40.41,-16.73 56.43,-1.59 16.02,15.14 16.73,40.41 1.59,56.43l-58.02 -54.84zm153.39 67.34l-124.38 0 0 -79.84 124.38 0 39.07 48.13 -39.07 31.71zm0 -79.84c22.04,0 39.92,17.88 39.92,39.92 0,22.04 -17.88,39.92 -39.92,39.92l0 -79.84zm-257.44 1071.49l218.37 -1039.78 78.14 16.42 -218.37 1039.78 -39.07 31.71 -39.07 -48.13zm78.14 16.42c-4.53,21.57 -25.71,35.39 -47.28,30.86 -21.57,-4.53 -35.39,-25.71 -30.86,-47.28l78.14 16.42zm-244.43 -48.13l205.36 0 0 79.84 -205.36 0 -39.07 -48.12 39.07 -31.72zm0 79.84c-22.04,0 -39.92,-17.88 -39.92,-39.92 0,-22.04 17.88,-39.92 39.92,-39.92l0 79.84zm189.23 -747.56l-150.16 715.84 -78.14 -16.4 150.16 -715.84 17.29 -25.26 60.85 41.66zm-78.14 -16.4c4.52,-21.57 25.7,-35.39 47.27,-30.87 21.57,4.52 35.39,25.7 30.87,47.27l-78.14 -16.4zm-92.07 120.09l-30.3 -73.86 -0.01 0 4.99 -2.06 4.93 -2.07 4.91 -2.08 4.87 -2.1 4.83 -2.1 4.77 -2.11 4.77 -2.14 4.71 -2.13 4.65 -2.15 4.65 -2.16 4.58 -2.17 4.55 -2.19 4.53 -2.2 4.46 -2.19 4.41 -2.21 4.39 -2.23 4.36 -2.25 4.33 -2.26 4.26 -2.25 4.21 -2.27 4.19 -2.29 4.14 -2.29 4.1 -2.3 4.07 -2.33 4.02 -2.32 3.98 -2.35 3.96 -2.36 3.86 -2.34 3.85 -2.38 3.86 -2.41 3.75 -2.38 3.73 -2.42 43.56 66.92 -4.21 2.72 -4.29 2.72 -4.24 2.65 -4.33 2.68 -4.4 2.66 -4.38 2.62 -4.44 2.61 -4.48 2.6 -4.51 2.57 -4.54 2.56 -4.6 2.55 -4.61 2.51 -4.67 2.51 -4.7 2.49 -4.71 2.46 -4.76 2.45 -4.79 2.43 -4.85 2.43 -4.88 2.41 -4.89 2.38 -4.95 2.37 -4.98 2.35 -4.99 2.34 -5.07 2.33 -5.09 2.31 -5.09 2.28 -5.17 2.29 -5.19 2.26 -5.21 2.24 -5.27 2.24 -5.29 2.21 -5.33 2.2 -0.01 0zm-202.72 2.9l78.18 16.26 -47.5 -47.16 3.83 -0.83 3.85 -0.88 3.95 -0.92 3.98 -0.96 3.93 -0.97 4.02 -1.03 4.15 -1.09 4.09 -1.09 4.1 -1.13 4.22 -1.19 4.26 -1.23 4.25 -1.24 4.29 -1.3 4.34 -1.33 4.37 -1.37 4.41 -1.41 4.48 -1.46 4.48 -1.48 4.53 -1.53 4.59 -1.58 4.61 -1.6 4.63 -1.64 4.66 -1.67 4.7 -1.73 4.75 -1.76 4.78 -1.8 4.86 -1.86 4.85 -1.87 4.88 -1.92 4.93 -1.95 4.97 -2.01 5 -2.03 30.3 73.86 -5.32 2.17 -5.29 2.13 -5.25 2.09 -5.24 2.06 -5.21 2.01 -5.14 1.96 -5.14 1.94 -5.11 1.9 -5.08 1.85 -5.06 1.83 -5.03 1.78 -4.99 1.74 -4.93 1.68 -4.93 1.67 -4.9 1.62 -4.84 1.58 -4.85 1.55 -4.81 1.51 -4.78 1.47 -4.75 1.42 -4.73 1.4 -4.66 1.33 -4.62 1.31 -4.68 1.29 -4.61 1.23 -4.49 1.17 -4.54 1.17 -4.57 1.13 -4.44 1.06 -4.41 1.04 -4.43 1 -4.39 0.97 -47.5 -47.16zm47.5 47.16c-21.55,4.64 -42.8,-9.07 -47.44,-30.62 -4.64,-21.55 9.07,-42.8 30.62,-47.44l16.82 78.06z"/>
    <path id="1" class="fil1" d="M233.24 799.65l37.59 -180.78c175.24,-76.15 310.69,-164.85 406.37,-266.08l124.38 0 -218.37 1039.78 -205.36 0 150.16 -715.84c-42.18,27.46 -91.1,52.3 -146.29,74.96 -55.21,22.65 -104.85,38.56 -148.48,47.96z"/>
   </g>
   <path class="fil2" d="M1396.85 224.37c77.12,9.52 107.69,9.56 161.44,50.6 35.44,27.05 64.21,76.44 73.4,141.14 17.31,121.84 -34.46,255.92 -79.23,347.31 -161.16,328.95 -550.32,714.8 -917.74,802.1 -229.61,54.55 -373.06,-42.35 -353.53,-264.39 6.06,-68.85 25.48,-113.24 41.26,-172.13 -28.56,40.36 -68.55,138.33 -87.08,193.13 -79.29,234.55 -61.61,511.28 256.72,505.8 236.62,-4.07 539.58,-189.37 714.95,-341.79 217.25,-188.84 405.38,-402.98 528.28,-672.38 54.79,-120.11 117.5,-313.74 55.23,-456.88 -49.53,-113.84 -153.76,-151.57 -272.83,-149.52 -47.09,0.81 -81.28,11.94 -120.87,17.01z"/>
   <path class="fil2" d="M850.68 400.23c95.01,-59.01 121.96,-86.37 241.97,-145.9 179.91,-89.26 432.61,-169.66 629.15,-79.95 162.68,74.25 148.88,206.87 159.96,232.63 23.23,-37.49 30.41,-143.28 20.16,-190.99 -43.86,-204.14 -324.09,-191.26 -482.1,-150.41 -123.41,31.91 -219.01,79.77 -315.47,137.49 -46.96,28.1 -90.47,59.22 -132.81,92.11 -55.43,43.06 -71.79,56.17 -120.86,105.02z"/>
   <path class="fil3" d="M232.98 2226.31l-127.24 0 -38.83 70.79 -68.39 0 181.07 -320.77 74.59 0 51.82 320.77 -62.57 0 -10.45 -70.79zm-7.92 -53.75l-19.04 -129.03 -70.78 129.03 89.82 0zm377.22 124.54l-61.3 0 -86.69 -215.49 -45.1 215.49 -61.31 0 67.2 -320.77 61.31 0 86.91 214.6 44.88 -214.6 61.3 0 -67.2 320.77zm64.66 0l67.21 -320.77 65.85 0 -67.13 320.77 -65.93 0zm288 0l-70.49 0 -57.2 -320.77 65.41 0 40.55 242.82 132.83 -242.82 65.41 0 -176.51 320.77zm137.98 0l67.2 -320.77 237.45 0 -11.2 53.76 -171.67 0 -15.75 72.58 166.37 0 -11.21 53.75 -166.88 0 -18.96 86.92 186.29 0 -11.2 53.76 -250.44 0zm366.11 0l-65.94 0 67.21 -320.77 142.31 0c24.5,0 43.53,2.54 57.2,7.54 13.59,5.08 24.56,14.26 33,27.7 8.36,13.44 12.54,29.65 12.54,48.76 0,27.33 -8.13,49.81 -24.49,67.5 -16.28,17.77 -40.99,28.74 -74.07,32.93 8.44,7.62 16.35,17.62 23.82,30.02 14.71,25.09 31.14,60.55 49.21,106.32l-70.79 0c-5.67,-18.06 -16.87,-46.22 -33.53,-84.52 -9.03,-20.68 -18.66,-34.65 -28.89,-41.74 -6.27,-4.25 -17.24,-6.34 -32.85,-6.34l-26.96 0 -27.77 132.6zm37.77 -180.54l35.03 0c35.46,0 58.98,-2.09 70.56,-6.35 11.64,-4.26 20.68,-10.9 27.25,-20.01 6.57,-9.04 9.86,-18.59 9.86,-28.52 0,-11.73 -4.71,-20.46 -14.19,-26.37 -5.83,-3.5 -18.44,-5.22 -37.86,-5.22l-72.57 0 -18.08 86.47zm228.34 77.2l62.72 -3.28c0.89,19.94 4.33,33.37 10.31,40.32 9.63,11.35 27.4,17.02 53.38,17.02 21.58,0 37.26,-3.88 46.89,-11.64 9.63,-7.78 14.41,-17.11 14.41,-28.08 0,-9.49 -3.96,-17.55 -11.79,-24.11 -5.53,-4.87 -20.76,-12.7 -45.63,-23.45 -24.86,-10.83 -43.01,-19.86 -54.43,-27.1 -11.5,-7.25 -20.46,-16.66 -27.02,-28.24 -6.58,-11.56 -9.87,-25.08 -9.87,-40.53 0,-27.11 9.79,-49.58 29.36,-67.43 19.48,-17.85 47.77,-26.73 84.89,-26.73 37.63,0 66.75,8.81 87.36,26.51 20.69,17.69 32.03,41.21 34.05,70.56l-63.18 2.83c-1.56,-15.31 -7.16,-27.03 -16.64,-35.25 -9.41,-8.13 -23.45,-12.24 -41.97,-12.24 -18.22,0 -31.2,3.21 -38.98,9.63 -7.83,6.43 -11.71,14.57 -11.71,24.34 0,9.27 3.58,16.81 10.67,22.85 7.17,6.13 23,14.49 47.41,25.17 36.89,15.98 60.34,28.9 70.42,38.83 15.01,14.64 22.47,33.37 22.47,56.37 0,28.37 -11.19,52.56 -33.6,72.65 -22.4,20.09 -53.53,30.17 -93.48,30.17 -27.55,0 -51.45,-4.64 -71.68,-13.89 -20.16,-9.26 -34.43,-22.1 -42.79,-38.53 -8.28,-16.42 -12.16,-35.39 -11.57,-56.75zm499.38 32.55l-127.23 0 -38.83 70.79 -68.39 0 181.06 -320.77 74.59 0 51.82 320.77 -62.56 0 -10.46 -70.79zm-7.91 -53.75l-19.05 -129.03 -70.78 129.03 89.83 0zm188.31 124.54l-65.94 0 67.21 -320.77 142.31 0c24.5,0 43.54,2.54 57.2,7.54 13.59,5.08 24.56,14.26 33.01,27.7 8.35,13.44 12.53,29.65 12.53,48.76 0,27.33 -8.13,49.81 -24.49,67.5 -16.28,17.77 -40.99,28.74 -74.07,32.93 8.44,7.62 16.36,17.62 23.82,30.02 14.72,25.09 31.14,60.55 49.21,106.32l-70.79 0c-5.67,-18.06 -16.87,-46.22 -33.52,-84.52 -9.04,-20.68 -18.67,-34.65 -28.89,-41.74 -6.28,-4.25 -17.25,-6.34 -32.86,-6.34l-26.96 0 -27.77 132.6zm37.77 -180.54l35.03 0c35.46,0 58.98,-2.09 70.56,-6.35 11.64,-4.26 20.69,-10.9 27.25,-20.01 6.57,-9.04 9.86,-18.59 9.86,-28.52 0,-11.73 -4.71,-20.46 -14.19,-26.37 -5.82,-3.5 -18.44,-5.22 -37.86,-5.22l-72.57 0 -18.08 86.47zm215.79 180.54l67.21 -320.77 65.86 0 -67.13 320.77 -65.94 0zm147.78 -125.89c0,-18.97 2.84,-38.98 8.51,-60.03 7.46,-28.23 18.82,-52.64 34.04,-73.39 15.24,-20.76 34.51,-37.12 57.65,-49.21 23.22,-12.03 49.58,-18.07 79.22,-18.07 39.73,0 71.76,12.31 96.17,37.03 24.42,24.71 36.67,57.42 36.67,98.19 0,33.9 -7.92,66.68 -23.82,98.33 -15.91,31.74 -37.56,56.16 -64.81,73.25 -27.26,17.1 -58.1,25.62 -92.59,25.62 -29.87,0 -54.95,-6.8 -75.27,-20.38 -20.23,-13.6 -34.65,-30.4 -43.08,-50.48 -8.44,-20.09 -12.69,-40.4 -12.69,-60.86zm65.4 -1.27c0,22.11 6.73,40.63 20.09,55.48 13.44,14.94 31.06,22.4 52.94,22.4 17.77,0 34.87,-5.9 51.22,-17.61 16.43,-11.81 29.95,-29.66 40.69,-53.55 10.69,-23.97 16.06,-47.19 16.06,-69.89 0,-25.31 -6.79,-45.16 -20.31,-59.58 -13.59,-14.41 -30.83,-21.58 -51.82,-21.58 -32.19,0 -58.39,15.09 -78.62,45.18 -20.16,30.16 -30.25,63.17 -30.25,99.15z"/>
   <path class="fil4" d="M436.29 2117.81l-127.23 0 -38.84 70.79 -68.39 0 181.07 -320.77 74.59 0 51.82 320.77 -62.56 0 -10.46 -70.79zm-7.91 -53.75l-19.05 -129.04 -70.78 129.04 89.83 0zm377.21 124.54l-61.3 0 -86.69 -215.49 -45.1 215.49 -61.3 0 67.2 -320.77 61.3 0 86.92 214.59 44.88 -214.59 61.29 0 -67.2 320.77zm64.66 0l67.21 -320.77 65.86 0 -67.13 320.77 -65.94 0zm288 0l-70.49 0 -57.19 -320.77 65.41 0 40.54 242.82 132.84 -242.82 65.4 0 -176.51 320.77zm137.99 0l67.2 -320.77 237.45 0 -11.21 53.76 -171.66 0 -15.76 72.58 166.37 0 -11.2 53.75 -166.88 0 -18.97 86.92 186.3 0 -11.21 53.76 -250.43 0zm366.1 0l-65.94 0 67.21 -320.77 142.31 0c24.5,0 43.54,2.54 57.2,7.54 13.59,5.07 24.56,14.25 33.01,27.7 8.35,13.44 12.53,29.64 12.53,48.76 0,27.32 -8.13,49.8 -24.49,67.5 -16.27,17.77 -40.98,28.74 -74.07,32.92 8.45,7.62 16.36,17.63 23.82,30.02 14.72,25.09 31.14,60.56 49.21,106.33l-70.79 0c-5.67,-18.07 -16.86,-46.22 -33.52,-84.53 -9.03,-20.68 -18.67,-34.64 -28.89,-41.73 -6.28,-4.26 -17.25,-6.35 -32.86,-6.35l-26.96 0 -27.77 132.61zm37.78 -180.55l35.02 0c35.47,0 58.99,-2.09 70.56,-6.35 11.65,-4.25 20.69,-10.89 27.25,-20.01 6.57,-9.03 9.87,-18.59 9.87,-28.52 0,-11.72 -4.72,-20.46 -14.2,-26.36 -5.82,-3.5 -18.44,-5.22 -37.86,-5.22l-72.57 0 -18.07 86.46zm228.33 77.21l62.73 -3.29c0.89,19.94 4.33,33.38 10.3,40.32 9.64,11.36 27.4,17.03 53.38,17.03 21.58,0 37.27,-3.88 46.89,-11.65 9.64,-7.77 14.42,-17.1 14.42,-28.08 0,-9.48 -3.96,-17.55 -11.8,-24.11 -5.53,-4.86 -20.75,-12.69 -45.62,-23.45 -24.87,-10.82 -43.01,-19.86 -54.44,-27.1 -11.49,-7.24 -20.46,-16.66 -27.02,-28.23 -6.57,-11.57 -9.86,-25.08 -9.86,-40.54 0,-27.11 9.78,-49.58 29.35,-67.43 19.49,-17.84 47.78,-26.73 84.89,-26.73 37.63,0 66.75,8.82 87.36,26.51 20.69,17.69 32.03,41.21 34.06,70.56l-63.18 2.83c-1.56,-15.3 -7.16,-27.03 -16.65,-35.24 -9.4,-8.13 -23.45,-12.25 -41.97,-12.25 -18.21,0 -31.2,3.22 -38.97,9.64 -7.83,6.42 -11.72,14.56 -11.72,24.34 0,9.26 3.59,16.81 10.68,22.85 7.16,6.12 23,14.48 47.41,25.17 36.88,15.98 60.33,28.89 70.42,38.82 15,14.64 22.47,33.38 22.47,56.38 0,28.37 -11.2,52.56 -33.61,72.65 -22.4,20.09 -53.53,30.16 -93.48,30.16 -27.55,0 -51.45,-4.63 -71.68,-13.89 -20.15,-9.26 -34.42,-22.09 -42.78,-38.52 -8.29,-16.43 -12.17,-35.4 -11.58,-56.75zm499.39 32.55l-127.23 0 -38.84 70.79 -68.39 0 181.07 -320.77 74.59 0 51.82 320.77 -62.57 0 -10.45 -70.79zm-7.91 -53.75l-19.05 -129.04 -70.78 129.04 89.83 0zm188.3 124.54l-65.93 0 67.2 -320.77 142.31 0c24.5,0 43.54,2.54 57.21,7.54 13.58,5.07 24.56,14.25 33,27.7 8.35,13.44 12.54,29.64 12.54,48.76 0,27.32 -8.14,49.8 -24.49,67.5 -16.28,17.77 -40.99,28.74 -74.08,32.92 8.45,7.62 16.36,17.63 23.82,30.02 14.72,25.09 31.15,60.56 49.22,106.33l-70.79 0c-5.68,-18.07 -16.87,-46.22 -33.53,-84.53 -9.03,-20.68 -18.67,-34.64 -28.89,-41.73 -6.27,-4.26 -17.25,-6.35 -32.85,-6.35l-26.97 0 -27.77 132.61zm37.78 -180.55l35.02 0c35.47,0 58.99,-2.09 70.56,-6.35 11.65,-4.25 20.69,-10.89 27.25,-20.01 6.58,-9.03 9.87,-18.59 9.87,-28.52 0,-11.72 -4.71,-20.46 -14.2,-26.36 -5.82,-3.5 -18.44,-5.22 -37.85,-5.22l-72.57 0 -18.08 86.46zm215.79 180.55l67.21 -320.77 65.85 0 -67.12 320.77 -65.94 0zm147.77 -125.89c0,-18.97 2.84,-38.98 8.51,-60.04 7.47,-28.22 18.82,-52.63 34.05,-73.39 15.23,-20.76 34.5,-37.11 57.64,-49.21 23.22,-12.02 49.58,-18.07 79.22,-18.07 39.73,0 71.76,12.32 96.17,37.04 24.42,24.71 36.67,57.41 36.67,98.19 0,33.89 -7.91,66.68 -23.82,98.33 -15.91,31.73 -37.56,56.15 -64.81,73.25 -27.26,17.1 -58.09,25.61 -92.59,25.61 -29.87,0 -54.95,-6.79 -75.27,-20.38 -20.23,-13.59 -34.64,-30.39 -43.07,-50.48 -8.45,-20.09 -12.7,-40.4 -12.7,-60.85zm65.41 -1.27c0,22.1 6.72,40.62 20.09,55.48 13.43,14.93 31.06,22.4 52.94,22.4 17.76,0 34.86,-5.9 51.22,-17.62 16.43,-11.8 29.94,-29.65 40.69,-53.54 10.68,-23.97 16.05,-47.19 16.05,-69.89 0,-25.31 -6.79,-45.17 -20.31,-59.59 -13.58,-14.4 -30.83,-21.57 -51.82,-21.57 -32.18,0 -58.38,15.08 -78.62,45.17 -20.16,30.17 -30.24,63.17 -30.24,99.16z"/>
   <path class="fil5" d="M1451.62 183.29c77.11,9.53 107.68,9.57 161.43,50.61 35.44,27.05 64.21,76.44 73.4,141.14 17.31,121.84 -34.45,255.91 -79.23,347.31 -161.15,328.95 -550.32,714.79 -917.73,802.09 -229.61,54.56 -373.07,-42.34 -353.53,-264.38 6.06,-68.85 25.48,-113.25 41.26,-172.13 -28.57,40.36 -68.56,138.33 -87.08,193.13 -79.3,234.55 -61.62,511.28 256.71,505.8 236.62,-4.08 539.58,-189.37 714.95,-341.8 217.26,-188.83 405.38,-402.97 528.28,-672.37 54.8,-120.12 117.51,-313.75 55.23,-456.88 -49.53,-113.85 -153.76,-151.57 -272.83,-149.53 -47.08,0.81 -81.28,11.95 -120.86,17.01z"/>
   <path class="fil6" d="M905.44 359.16c95.01,-59.01 121.97,-86.37 241.98,-145.91 179.91,-89.25 432.6,-169.65 629.14,-79.95 162.68,74.25 148.89,206.88 159.97,232.64 23.22,-37.49 30.4,-143.28 20.15,-190.99 -43.86,-204.15 -324.09,-191.26 -482.1,-150.41 -123.4,31.91 -219.01,79.77 -315.47,137.49 -46.96,28.1 -90.47,59.22 -132.8,92.11 -55.44,43.06 -71.79,56.16 -120.87,105.02z"/>
   <path class="fil5" d="M2534.97 1069.75l-18.19 32.84c-3.63,-11.48 -2.06,-18.22 -6.93,-29.91l-11.68 -23.8c-1.18,-16.85 -67.56,-154.49 -85.61,-187.04 -32.51,-58.63 -66.34,-115.6 -106.61,-167.85 -11.69,-15.16 -75.88,-91.33 -87.82,-99.03 -8.19,9.97 -10.25,24.49 -5.69,39.24 7.43,24.06 23.61,42.27 39.85,60.65l3.89 5.38c2.91,4.33 0.61,2 4.69,7.22 7.56,9.68 18.08,14.7 26.52,21.91l5.23 6.97c12.98,24.12 33.67,39.9 48.66,63.63 13.05,20.66 27.3,43.15 35.77,65.25l8.25 15.94c8.69,17.09 15.75,31.57 32.51,40.35 18.58,9.75 19.22,2.63 27.25,24.56 11.26,30.78 47.93,118.88 50.07,149.5 -9.34,-7.34 -68.61,-102.93 -77.84,-120.69l-84.59 -112.91c-26.23,-31.03 -176.09,-189.1 -203.41,-193.77 -1.85,23.1 10.92,34.81 21.86,52.61l11.32 16.02c7.03,10.35 10.34,18.48 21.11,27.21l18.47 18.01c3.94,5 14.06,15.4 19.59,19.77 16.29,12.88 23.43,12.65 41.69,33.72 5.63,6.51 8.28,14.26 14.46,22.25 10.11,13.1 15.41,9.73 21.61,17.24 9.26,11.2 -1.39,10.61 13.6,23.31l26.03 29.02c15.58,22.26 19.96,20.26 28.42,30.98 15.56,19.71 21.81,24.73 47.88,28 15.68,33.69 66.28,117.1 74.21,144.15 -14.57,-7.92 -88.13,-95.18 -100.36,-113.29 -23.41,-34.68 -125.49,-126.76 -161.67,-156.14 -56.81,-46.14 -56.52,-49.34 -121.32,-89.8 -16.53,-10.31 -50.07,-37 -68.45,-38.77 7.99,35.73 42.94,55.86 60.97,77.93 27.3,33.42 23.62,17.69 43.35,37.79 12.76,13 21.5,12.54 32.1,28.36 14.88,22.19 26.94,21.31 37.61,27.06 4.61,2.48 2.11,5.82 7.12,9.44 9.39,-4.37 7.99,-10.32 19.68,-13.34 -3.41,10.04 -7.37,10.71 -12.09,21 9.22,11.04 12.2,11.67 23.25,19.5 13.74,9.73 10.25,18.16 30.66,13.62 -4.74,15.78 -1.78,11.95 11.13,23.22 11.12,9.71 13.74,14.27 23.88,8.1 4.66,8.45 0.84,8.39 10.14,15.34l17.7 12.35c15.41,9.52 21.55,10.89 42.7,10.43 9.86,21.44 29.63,43.03 44.23,62.78 8.61,11.65 41.19,55.14 44.74,64.98 -18.5,-11.04 -98.39,-86.05 -114.01,-103.98 -24.61,-28.24 -89.42,-76.27 -117.89,-99.61 -18.13,-14.86 -105.25,-71.75 -131.47,-85.11 -23.43,-11.93 -130.72,-68.54 -146.44,-71.56 -10.87,18.76 0.24,27.03 12.49,38.17 4.45,4.05 -0.25,0.87 6.26,5.92 3.28,2.54 8.41,4.89 11.44,6.4l29.32 15.37c11.35,3.52 11.22,26.15 45.67,39.98 0.7,0.28 1.52,0.52 2.2,0.82 0.86,0.37 3.28,1.47 4.05,1.91 1.06,0.6 4.27,3.02 5.1,3.68 3.06,2.42 1.35,1.22 4.69,4.11 7.95,6.87 20.69,21.47 30.15,12.74 0.65,0.72 1.48,0.92 1.74,2.35l4.82 8.59c0.19,0.38 0.42,1.33 0.78,1.91 7.13,-5.37 11.64,-11.07 18.08,-15.21 -4.94,8.79 -7.25,10.67 -10.44,20.15 5.4,-1.84 2.74,-2.16 6.35,-4.94 12.11,-9.35 -0.86,-3.45 14.63,-7.93 -5.1,14.75 -7.04,9.83 -9.84,20.83 31.06,21.5 21.02,3.47 39.07,0.93l-10.67 16.41c20.43,1.2 4.5,-2.22 22.53,-9 -3.22,15.36 -4.55,7.12 -6.72,18.49 9.47,6.89 19.58,10.37 28.64,16.14 21.24,13.55 11.78,14.08 30.71,6.03 -3.22,19.06 -0.95,14.58 14.53,24.33 19.72,12.44 7.72,7.03 27.27,8.5 -2.48,10.84 -1.75,4.78 1.71,10.42 7.84,1.34 13.19,0.89 15.26,2.16 6.49,3.95 8.11,18.74 51.61,11.96 15.34,22.91 108.3,112.64 115.15,131.19 -41.95,-17.23 -108.39,-84.56 -153.68,-109.59l-101.61 -60.43c-70.27,-39.34 -142.57,-68.5 -215.09,-103.06 -11.85,-5.65 -65,-32.87 -70.75,-29.16 -5.16,5.87 -1.72,-1.14 -1.09,5.84 2.53,28.05 13.09,33.79 32.39,49.21 35.94,28.7 25.79,7.49 51.65,26.39 3.96,2.89 5.29,3.58 9.29,5.7 18.61,9.84 10.3,13.57 28.77,4.68 -1.61,14.62 -3.37,6.71 1.98,15.54 9.58,0.61 1.52,1.4 9.44,-1.23 0.3,-0.1 7.46,-3.76 9.23,-4.6l-4.25 15.13c11.48,-0.63 13.63,0.3 20.48,-3.83l17.01 12.15c17.18,6.07 20.12,-3.71 29.21,-19.19l-11.13 24.08c8.42,10.5 14.79,17.37 26.81,11.89l2.95 10.99c10.52,0.2 4.46,-0.4 15.81,-5.04 -1.68,23.35 3.88,18.25 22.63,28.61 3.86,2.13 12.22,9.02 16.95,10.5 7.29,2.28 8.52,-0.72 10.81,-2.61l5.06 -5.59c-0.94,21 -2.09,16.45 39.48,30.59 82.62,28.11 58.33,-6.87 86.96,17.26 16.9,14.24 92.75,74.99 99.93,87.82l-123.02 -60.38c-18.19,-10.64 -42.22,-18.87 -62.63,-27.43 -22.27,-9.33 -42,-17.54 -65.62,-27.11 -42.09,-17.04 -95.91,-26.33 -142.43,-39.52 -18.92,-5.37 -142.95,-23.91 -160.23,-23.02 -0.8,41.2 10.9,37.85 36.51,53.82 6.9,4.31 13.56,8.77 22.3,11.87l12.66 -10.76c0.71,9.1 -0.71,6.33 2.9,12.33 0.31,0.52 0.85,1.24 1.22,1.7 2.45,3.03 15.34,11.93 36.76,13.29 7.15,0.45 9.36,-0.84 17.2,-0.21 9.49,0.76 5.38,0.65 14.97,3.61 17.27,5.32 20.25,8.16 25.14,-4.23 7.67,9.93 11.09,17.94 24.74,3.84l2.15 4.89c5.67,9.48 12.52,17.14 27.32,2.27 4.09,5.31 3.44,6.9 8.84,8.83 3.25,-5.31 6.39,-9.38 9.47,-14.37l1.86 18.26c51.4,4.04 27.87,5.63 58.6,14.51 10.92,3.15 7.93,4.78 15.66,-4.8 -0.3,26.28 7.43,10.08 18.03,23.73l8.57 -8.36 5.72 13.37 37.82 6.93c18.64,-0.27 29.77,-13.5 36.02,-26.01 44.68,22.67 97.87,62.4 136.04,95.5 12.28,10.65 6.92,10.61 16.04,23.4 6.95,9.76 13.95,12.26 19.6,20.2l-788.42 -0.03 -0.18 26.44 1666.67 -0.28 -0.09 -25.89 -827.5 -0.3c14.89,-8.72 21.93,-27.12 29,-36.05 15.64,-19.76 110.08,-82.38 131.88,-95.55 18.31,12.94 24.33,22.26 50.54,16.99 22,-4.41 5,2.42 47.05,-12.43 13.12,-4.63 24.51,-12.71 38.09,-15.36l45.87 -13.89c0.44,-0.2 1.29,-0.51 1.7,-0.69 10.28,-4.36 -0.2,5.21 11.29,-10.73 0.51,0.6 1.12,0.9 1.35,1.94 1.47,6.62 8.96,6.28 13.15,4.34l47.29 -13.14c10.71,-3.14 1.98,-0.99 9.8,-4.5l13.51 0.33c9.45,2.56 6.55,3.67 18.18,1.73 12.57,-2.09 24,-5.78 32.43,-12.42 0.79,-0.62 6.56,-7.49 7.94,-3.13 3.91,12.28 71.82,-23.87 79.02,-31.02 0.23,-10.58 -2.94,-17 -6.67,-25.79 -43.13,0.13 -126.55,3.98 -162.03,14.44 -47.63,14.05 -94.34,22.4 -137.13,41.73 -82.44,37.24 -155.96,75.33 -236.7,117.48 10.47,-3.64 77.4,-60.39 94.58,-74.45 27.56,-22.57 12.71,-5.41 42.6,-6.34 18.11,-0.57 32.85,-14.91 48.11,-22.51l28.12 -17.4c24.89,-16.72 30.78,-17.81 56.6,-26.94 10.19,-3.61 9.63,-9.24 14.48,-17.45 6.54,5.55 2.62,6.07 13.54,6.84l1.2 -14.83c3.44,7.45 3.77,11.92 15.99,8.42 12.72,-3.63 10.45,-8.41 9.43,-21.44 0.85,0.39 1.95,0.38 2.33,1.62 0.36,1.17 1.74,1.24 2.21,1.53 10.22,6.46 3.29,2.26 12.22,0.91l9.35 -3.27c9.81,-4.37 21.16,-4.43 31.43,-9.54 14.88,-7.4 21.61,-1.31 37.53,-6.25 30.74,-9.52 14.69,-11 23.94,-26.2 2.77,3 1.59,1.56 4.41,6.01 2.26,3.57 2.18,4.43 4.43,7.97 18.25,-7.81 39.46,-20.23 53.54,-36.71 6.51,-7.61 9.51,-9.48 6.45,-23.61 -16.74,-3.56 -141.87,26.31 -154.13,32.49 -42.58,21.47 -87.14,39.46 -127.23,65.03l-174.02 114.96c-16.21,10.59 -46.15,32.65 -63.68,39.12 5.76,-9.71 23.6,-28.07 31.43,-35.72l63.48 -63.74c24.31,-26.73 10.44,-16.18 42.84,-16.21 30.03,-0.03 64.23,-26.91 85.82,-44.28l38.48 -24.81c13.77,-6.05 9.47,-2.21 19.27,-13.17l2.48 -2.62c11.99,-10.7 -2.46,3.06 4.04,-2.6 0.27,-0.24 0.99,-0.7 1.25,-0.96l4.92 -9.28c8.84,11.22 20.33,6.42 19.91,-10.21 22.22,9.09 -3.58,-7.54 18.08,1.51l-2.28 -15.58c8.39,9.13 1.15,5.97 11.45,8.88 5.44,-3.87 15.15,-8.78 21.06,-12.01 5.38,-2.95 -0.33,-0.86 6.22,-2.96 17.14,-5.52 41.88,-5.69 49.38,-22.22l5.02 -13.08c2.3,-4.06 2.31,-3.38 3.8,-5.39 7.69,10.48 -0.06,6.08 8.84,13.01l60.83 -48.81c11,-11.27 6.03,-15.38 0.23,-25.68 -8.22,0.39 -142.76,51.36 -153.35,57.25 -48.06,26.75 -178.85,116.41 -223.2,153.25 -42.1,34.97 -105.51,103.13 -148.62,125.33 10.47,-20.31 37.08,-52.21 51.15,-69.21l53.68 -67.78c32.56,-0.52 45.95,-3.9 68.26,-21.59l8.55 -6.48c0.45,-0.4 1.1,-1.02 1.53,-1.43l40.63 -35.22c21.98,-13.91 33.79,-33.78 56.24,-46.16 0.6,-0.34 1.36,-0.75 2,-1.06 14.59,-7.05 44.39,-14.16 37.63,-34.65 27.02,6.48 25.65,-10.56 44.96,-18.71 0.73,-0.31 1.56,-0.5 2.31,-0.78 24.42,-8.69 43.62,-28.47 60.81,-47.32 34.91,-38.3 37.22,-70.16 10.29,-55.06l-113.33 67.78c-26.81,17.02 -95.26,67.7 -118.62,89.47 -24.24,22.59 -86.03,79.02 -102.94,102.99 -11.12,15.76 -87.35,99.17 -102.31,108.74 4.23,-11.31 71.29,-126.2 83.8,-128.78 16.83,-3.46 26.43,-4.89 39.17,-17.16 11.36,-10.94 18.8,-6.13 12.01,-24.88 17.7,4.25 13.29,4.72 23.68,-9.13 11.07,-14.77 11.75,-6.51 9.85,-23.76 17.88,-0.38 14.01,-5.76 18.58,-11.46 13.53,-16.9 26.7,-14.58 17.9,-37.04 17.32,0.72 16.26,3.25 12.64,-11.34 19.55,0.43 28.19,-15.41 36.05,-30.77l12.87 -17.72c31.71,-29.09 23.01,-19.54 54.1,-42.64l11.05 -11.4c7.18,-12.24 16.37,-7.73 38.25,-39.18 0.38,-0.54 0.89,-1.28 1.27,-1.81 13.07,-17.92 24.34,-35.46 9.52,-57.61 -9.66,3.12 -93.5,78.22 -109.52,92.16 -39.4,34.27 -63.29,63.38 -100.19,102.84 -26.19,28 -62.62,82.81 -86.76,117.02l-42.75 60.59c-16.36,21.04 -30.75,42.54 -45.98,56.04 13.17,-43.53 42.01,-96.18 60.96,-139.72 13.43,-30.84 22.12,-2.15 49.83,-50.85 6.2,-10.9 7.13,-4.47 0.1,-14.5 15.02,1.17 13.49,-3 20.86,-15.48 7.14,-12.1 18.65,-20.24 21.52,-34.59 2.44,-12.22 6.83,-10.22 11.56,-17.74 5.51,-8.76 4.32,-2.51 -1.3,-14.09 21.67,-1.33 26.13,-32.59 31.83,-38.82 7.08,-7.75 1.76,5.76 5.5,-5.35 0.46,-1.37 5.23,2.55 -2.71,-12.17 18.8,2.13 15.31,-9.37 20.64,-22.12 2.22,-5.31 1.09,-1.8 7.77,-6.95 13.17,-10.16 18.99,-27.16 27.41,-39.69 4.49,-6.68 55.45,-52.33 31.01,-82.85 -12.91,4.83 -74.07,86.37 -86.85,101.41 -28.87,33.99 -121.51,201.31 -138.64,239.41 -17.17,38.18 -51.85,85.96 -64.88,122.88z"/>
   <path class="fil5" d="M2498.17 991.72l11.68 23.8c4.87,11.69 3.3,18.43 6.93,29.92l18.19 -32.85c-5.27,-6.64 -0.83,-12.38 3.83,-31.63 3.26,-13.41 5.92,-23.76 9.94,-35.88l28.36 -91.7c3.67,-6.45 0.76,-3 6.17,-6.45 14.59,-9.29 13.69,-1.46 25.87,-18.72 12.07,-17.09 21.35,-38.36 28.47,-63.02 3.95,-13.68 7.39,-16.1 11.89,-31.04 3.53,-11.69 6.61,-23.67 10.91,-35.31 15.89,-43.02 18.72,-57.03 40.93,-94.07 6.17,-10.28 9.87,-18.8 14.92,-31.03 8.09,-19.61 21.78,-51.56 6.86,-69.13 -10.61,4.55 -2.16,-3.45 -10.55,9.31 -3.18,4.85 -4.84,9.83 -7.17,14.2l-44.02 81.45c-18.51,35.27 -31.81,81.56 -45.86,119.36 -26.25,70.56 -65.42,170.85 -87.89,242.32 -4.85,-11.17 11.97,-109.05 14.68,-129.87 4.57,-35.11 16.43,-12.26 25.43,-47.48l18.4 -132.81c1.49,-48.35 61.02,-161.87 20.1,-172.11 -64.33,191.04 -68.29,380.71 -82.03,424.2 -1.22,-2.63 -16.06,-207.15 -18.66,-232.71 -11.28,-110.67 -13.43,-98.22 -29.15,-186.57 -0.45,-2.52 -1.65,-10.62 -2.23,-12.46 -4.78,-15.01 1.67,-6.49 -8.44,-11.68 -18,20.23 2.99,92.18 7,118.71 7.26,48.07 13.56,181.68 25,213.01 13.72,37.56 13.61,-7.7 13.57,90.24 0,12.73 5.84,51.84 -1.35,62.12 -13.54,-38.31 -18.12,-88.38 -30.57,-126.87 -19.91,-61.55 -62.16,-178.05 -88.75,-229.84l-40.36 -78.74c-5.54,-11.02 -5.97,-19.23 -17.18,-23.6 -10.2,8.78 -10.75,12.18 -0.51,45.45 23.84,77.45 46.56,114.7 75.31,179.16 6.63,14.87 11.97,29.26 17.4,46.47l19.09 45.46c9.17,15.27 15.49,23.26 32.18,31.39 3.07,27.1 9.53,50.97 13.77,76.54l12.52 64.11c-1.99,12.24 5.41,0.59 -4.68,8.35z"/>
   <polygon class="fil5" points="3370.62,1689.98 3370.64,1665.07 2489.31,1665.03 2480.47,1665.04 2471.63,1665.07 1717.04,1665.09 1705.26,1664.96 1705.28,1689.95 "/>
   <path class="fil5" d="M2160.89 1473.97l0.09 -110.3c36.6,5.49 39.14,10.61 39.45,52.15 0.31,41.33 0.84,56.35 -39.54,58.15zm-42.28 -107.9l0.51 240.5c-9.96,-0.03 -14.51,-1.33 -21.13,2.42 8.18,3.03 83.73,3.36 91.96,0l-28.87 -2.91 -0.18 -127.81c27.4,-0.32 49.87,-4.04 65.76,-19.11 15.76,-14.94 24.13,-43.75 9.14,-68.23 -23.64,-38.62 -86.14,-32.5 -138.94,-30.61 10.13,6.22 10.79,0.61 21.75,5.75z"/>
   <path class="fil5" d="M3021.78 1364.39c37.09,1.55 38.8,14.74 39.28,54.61 0.45,37.92 -2.43,53.21 -39.54,54.89l0.26 -109.5zm-41.94 4.8l0.06 237.43c-10.38,-0.09 -14.71,-1.36 -21.46,2.37l63.18 -2.93 -0.07 -127.95c103.89,0.43 100.04,-89.33 44.84,-111.41 -24.93,-9.97 -77.83,-6.85 -109.38,-6.65l4.93 1.79c21.63,5.64 11.69,-2.83 17.9,7.35z"/>
   <path class="fil5" d="M2507 1434.49c17.54,-21.65 -4.07,-69.5 71.28,-69.49 -8.15,41.72 -82.09,226.36 -81.33,245.27l120.01 0.31c1.55,-15.34 3.16,-77.07 -0.9,-87.55 -9.61,2.82 -1.86,-7.75 -10.55,28.22 -10.08,41.71 -27.77,53.25 -68.75,54.65l84.53 -245.89 -117.67 -0.26 3.38 74.74z"/>
   <path class="fil5" d="M1705.25 1434.45c13.25,-9.39 2.94,-61.46 47.59,-68.94l0.18 240.93 41.28 -0.74 0.13 -239.57c37.27,1.84 40.27,54.03 42.45,59.79 3.45,9.07 -1.48,5.66 6.91,7.79l1.72 -72.32 -143.64 -1.71c-0.47,14.61 -2.74,58.97 2.29,72.64 0.19,0.52 0.62,1.49 1.09,2.13z"/>
   <path class="fil5" d="M3291.99 1387.88c-0.41,34.19 -16.66,62.85 -31.78,79.56 -3.09,3.41 -55.08,56.65 -68.88,25.53 -11.48,-25.88 10.38,-74.64 21.25,-88.33 22.57,-28.4 41.36,-24.09 79.41,-16.76zm-12.89 75.93c-1.39,18.41 -8.69,39.18 -4.31,56 14.41,28.14 81.62,-25.55 72.28,-45.1 -15.92,7.6 -14.49,30.59 -41.03,28.79 -0.15,-44.51 20.24,-97.7 22.45,-136.46 -183.3,-29.47 -217.53,191.91 -124.51,156.25 16.81,-6.45 27.66,-15.73 40.46,-25.83 14.59,-11.5 21.57,-23.82 34.66,-33.65z"/>
   <path class="fil5" d="M2733.97 1522.64c-5.27,8.37 -5.74,79.38 0,88.01 10.27,-8.58 1.87,-23.24 18.76,-18.84 3.97,1.04 52.96,43.37 90.6,5.01 39.25,-40 -4.45,-93.58 -25.2,-117.12 -12.65,-14.34 -78.52,-70.97 -60.09,-103.75 12.12,-21.53 58.38,-25.33 78.96,43.14 3.7,12.33 0.52,11.23 8.98,15.32l0 -74.49c-8.86,5.92 -3.27,7.23 -9.39,17.56 -21.83,-2.9 -22.08,-21.9 -61.43,-18.27 -22.02,2.03 -39.95,17.51 -43.56,38.65 -7.29,42.72 41.49,85.73 58.51,105.1 10.97,12.48 75.69,89.3 21.54,104.11 -57.16,15.64 -65.44,-77.42 -77.68,-84.43z"/>
   <path class="fil5" d="M2364.87 1380.33c69.23,-18.76 61.64,111.85 5.39,124.51 -68.64,15.44 -62.67,-108.99 -5.39,-124.51zm15.62 -18.31c-99.02,24.84 -135.53,189.51 -22.9,160.7 34.8,-8.91 70.25,-47.14 82.51,-77.96 21.09,-53.07 -1.92,-97.21 -59.61,-82.74z"/>
   <path class="fil5" d="M1928.14 1444.49c2.74,-22.14 10.07,-35.55 21.5,-47.57 35.16,-36.98 78.46,7.52 31.58,36.57 -17.18,10.64 -29.99,12.76 -53.08,11zm97.21 25.48c-6.67,1.26 -3.92,-0.03 -10.77,7.92 -10.63,12.34 -17.03,22.83 -38.08,25.96 -31.87,4.75 -45.18,-9 -48.41,-39.19 37.33,-6.18 92.22,-38.05 98.33,-71.17 7.03,-38.12 -26.21,-36.92 -50.22,-27.52 -52.54,20.56 -114.02,123.72 -55.66,155.73 21.07,11.56 47.81,4.35 65.2,-5.53 15.62,-8.87 43.26,-27.39 39.61,-46.2z"/>
   <path class="fil5" d="M2285.93 1609.13c52.28,-45.65 108.56,41.72 171.03,-18.82 -3.92,-10.23 -9.87,-13.87 -17.76,-19.33 -17.96,6.29 -15.26,16.34 -44.22,13.72 -21.62,-1.95 -110.19,-40.27 -129.71,8.72 7.64,7.7 11.85,11.53 20.66,15.71z"/>
   <path class="fil5" d="M3163.43 1608.96c15.09,-5.82 21.68,-16.89 44.38,-14.64 14.27,1.41 31.31,8.35 44.69,11.71 15.15,3.81 31.52,7.64 48.56,4.1 20.8,-4.32 24.84,-11.42 37.81,-18.76 -5.35,-12.34 -11.72,-15.77 -22.39,-20.46 -44.42,47.54 -111.36,-41.93 -169.66,19.4 2.05,3.92 0.32,1.16 3.78,5.27l12.83 13.38z"/>
   <path class="fil5" d="M1879.16 1607.81c18.22,-8.25 19,-17.55 45.5,-13.09 15.55,2.61 29.64,8.46 44.88,12.33 34.35,8.73 65.75,4.36 82.86,-19.78 -5.72,-5.17 -11.88,-11.43 -19.97,-15.85 -38.45,23.89 -45.71,13.72 -89.75,1.53 -42.22,-11.69 -57.04,-3.05 -83.3,17.6 7.55,9.23 8.38,10.38 19.78,17.26z"/>
  </g>
 </g>
</svg>
