<?xml version="1.0" encoding="UTF-8"?>
<!DOCTYPE svg PUBLIC "-//W3C//DTD SVG 1.1//EN" "http://www.w3.org/Graphics/SVG/1.1/DTD/svg11.dtd">
<!-- Creator: CorelDRAW -->
<svg xmlns="http://www.w3.org/2000/svg" xml:space="preserve" width="44.45mm" height="44.45mm" style="shape-rendering:geometricPrecision; text-rendering:geometricPrecision; image-rendering:optimizeQuality; fill-rule:evenodd; clip-rule:evenodd"
viewBox="0 0 44.45 44.45"
 xmlns:xlink="http://www.w3.org/1999/xlink">
 <defs>
  <style type="text/css">
   <![CDATA[
    .fil0 {fill:none}
    .fil1 {fill:#091B1D}
   ]]>
  </style>
 </defs>
 <g id="Capa_x0020_1">
  <metadata id="CorelCorpID_0Corel-Layer"/>
  <rect class="fil0" width="44.45" height="44.45"/>
  <g id="_597893616">
   <path id="_594065520" class="fil1" d="M11.4186 37.5287c0.2272,0.2049 0.4239,1.1309 0.5182,1.4429l0.4343 1.5549 -1.8584 -0.0278 0.9059 -2.97zm19.2114 -21.8535l-0.0803 0 -0.1257 0.1679c-0.2436,-0.0963 -0.1799,-0.0582 -0.3005,-0.2805l-0.0337 0.0265 -0.0715 -0.2607c-0.7035,0.3532 -0.45,1.3784 0.4639,1.2608 0.4118,-0.3408 0.587,-0.562 0.1951,-1.0859l-0.0473 0.1719zm5.6397 -0.1278c-0.1505,0.3602 -0.1066,0.5712 0.2437,0.7832l0.5281 -0.4028 -0.0427 -0.2285 -0.4151 -0.2398 -0.314 0.0879zm-21.6252 24.1053l0.7106 -0.5247 -0.0064 2.639c-0.1832,-0.2483 -0.684,-1.7766 -0.7042,-2.1143zm3.3709 -0.8658l0.0083 -2.0731c2.9542,-0.4765 2.7578,1.7354 1.6645,2.0461 -0.3287,0.0935 -1.3484,0.1092 -1.6728,0.027zm-2.05 -4.4792l2.4894 -0.6788 0.3991 0.8791c-0.4823,0.054 -0.997,0.0195 -1.4875,0.0177 -1.0633,-0.0041 -1.2668,0.153 -1.401,-0.218zm9.2004 -1.2814c0.2451,0.2755 0.3861,0.3922 0.414,0.8175 0.226,0.1784 0.1247,0.659 0.0782,0.9237 -0.1777,-0.1935 -0.3354,-0.7785 -0.5107,-1.0744 -0.2549,-0.4302 -0.6183,-0.539 -0.7726,-0.9099l-0.3462 -0.0776c0.3831,-0.1791 0.8734,0.0023 1.1373,0.3207zm12.6586 -15.4968c-0.3181,0.1735 -0.7058,0.7563 -1.0101,0.7775 -0.0461,0.152 -0.8598,0.8506 -1.0344,0.874 -0.2844,0.6464 -2.0444,1.4074 -2.1623,1.8483l0.2914 0.0117 0.4321 -0.0621c0.9286,-0.0549 1.5918,-0.0772 2.5053,0.1623 0.4436,0.1163 1.5164,0.5182 1.8193,0.8097l-0.2497 0.0281c-0.7502,0.3469 -5.1416,-0.4143 -6.4742,-0.1491 -0.1439,0.1218 0.0989,0.1312 -0.3206,0.0492l0.8663 -0.6091c1.0327,-0.4951 1.3335,-1.4509 2.158,-2.0254 0.3041,-0.2119 0.3152,-0.4994 0.7632,-0.6844 0.1006,-0.0415 0.7093,-0.4744 0.8133,-0.555 0.4498,-0.3489 1.3775,-0.932 1.9317,-0.9064l-0.3293 0.4307zm-9.6328 -2.2635c0.1432,-0.5221 0.5126,-0.9856 1.0459,-1.0918 0.7372,-0.3338 1.0985,-0.4828 1.9105,-0.1212 0.5515,0.2455 0.9795,0.7466 1.0803,1.353 0.2372,0.2967 0.2062,0.8485 0.0908,1.2182l-0.0168 0.0954c-0.0869,0.3377 -0.2038,0.5573 -0.4132,0.7925 -0.3816,0.9557 -2.1554,0.9804 -2.9643,0.5113 -0.7998,-0.4638 -1.304,-2.0049 -0.7332,-2.7574zm0.7219 -1.7027c-0.1751,0.1689 -0.4317,0.2979 -0.6422,0.4591 -0.1634,0.1252 -0.4119,0.4085 -0.5388,0.4573 -0.0528,0.4117 -0.3086,0.6519 -0.4178,1.1095 -0.11,0.4615 -0.07,0.8741 0.0506,1.3267 0.3436,1.2899 0.809,1.2373 1.1671,1.7006 0.2874,0.0443 0.683,0.2958 1.1161,0.3465 0.5782,0.0678 0.8026,-0.0718 1.3075,-0.1216l0.5143 -0.296 0.4315 -0.258c0.0964,-0.1776 0.351,-0.3402 0.4895,-0.5274 0.1453,-0.1964 0.2655,-0.4668 0.3567,-0.6998 0.2769,-0.7073 0.1798,-1.0637 0.0098,-1.7541 -0.2852,-0.2015 -0.1688,-0.1766 -0.1822,-0.4125l0.4847 0.1021c-0.1969,-0.3482 -0.1628,-0.2193 -0.1956,-0.5626l-0.1333 -0.1489 0.067 -0.1038 -0.4104 -0.3624c2.4079,0.2845 3.6445,0.2775 5.8681,0.9775 0.7235,0.2278 0.9271,0.4947 1.0852,1.2365l-0.0757 0.5638c-2.0869,0.2889 -1.58,0.0755 -3.3898,0.9194 -0.8785,0.4096 -1.8305,1.0079 -2.675,1.516 -0.8535,0.5135 -1.7261,1.0728 -2.5583,1.6356 -0.313,0.2117 -2.3554,1.6777 -2.4521,1.7058 0.0651,0.1588 -0.1386,0.1178 0.2152,0.1254 1.1388,0.0035 2.2658,-0.129 3.4511,-0.0693 1.0136,0.051 2.441,0.2353 3.4099,0.1696 0.7359,0.0521 1.4045,0.1026 2.1574,0.0888 0.4174,-0.0076 1.875,-0.1063 2.1335,-0.0589l-2.9283 3.1099c-0.4933,0.4196 -3.1007,2.3878 -3.5521,2.393 -0.2182,0.3108 -1.8254,1.0298 -2.2173,1.0313 -0.2901,0.3321 -1.9104,0.7 -2.4022,0.6795 -0.2369,0.2793 -2.5004,0.185 -2.8117,-0.0419 0.0244,-0.0486 0.5113,-0.4715 0.6452,-0.6511l2.0447 -0.1229c0.9281,-0.1278 1.6589,-0.4699 2.4528,-0.6117l2.3366 -0.9825c0.2306,-0.2104 1.0404,-0.651 1.4058,-0.9005 0.3002,-0.205 1.1397,-0.7246 1.349,-0.965l0.1186 -0.2386 -0.2678 0.0156c-0.2857,0.0327 -2.8635,1.5324 -4.6406,1.8692 -1.3652,0.2588 -4.3214,0.5986 -5.112,-0.9355l-0.2586 -0.0244 -0.2271 1.1737 -0.0854 0.0184c-0.3323,1.469 -2.5109,1.4275 -3.2623,0.8383 0.288,-0.2073 1.2641,-0.8017 1.3687,-1.1569 -0.4339,0.1093 -1.1485,0.4962 -1.557,0.7129 -0.2325,0.1232 -0.5406,0.2495 -0.7932,0.3605 -0.1838,0.0809 -0.7198,0.2057 -0.7155,0.3933l0.1178 0.2714 0.1062 0.2398c0.2807,0.5882 1.0802,2.0972 1.1554,2.6536 0.1752,0.1324 0.1925,0.2206 0.2415,0.4517 0.2827,0.1735 1.8055,1.0466 1.8953,1.2097 0.5235,0.1384 0.9653,0.928 1.0242,1.4874 0.203,0.4766 -0.0262,1.3069 -0.3071,1.7306 -0.0597,-0.0842 -0.2752,-1.28 -0.4744,-1.6904 -0.3977,-0.8195 -0.6029,-0.6729 -1.1087,-1.1125l-0.3638 -0.0372 -0.0379 0.2058 0.0262 -0.0247c0.4192,0.1858 0.8598,0.8544 0.9689,1.3365 0.1853,0.8182 -0.0302,1.3055 -0.2216,2.0281l-0.6027 0.6831c-0.1024,-1.0484 0.1937,-1.7218 -0.7573,-2.5097 -0.7103,-0.5886 -1.527,-0.0985 -2.2538,-1.1086 -0.3716,-0.5164 -1.8967,-4.1581 -1.9517,-4.751 -0.2106,-0.4808 -0.3521,-1.0013 -0.4124,-1.5287 0.2126,-0.4023 1.5312,-1.7075 1.943,-1.7883 0.2088,-0.3377 1.1559,-0.8774 1.5403,-1.0908 0.7423,-0.4121 0.9916,-0.6685 1.8901,-0.7219l-0.0665 -0.1389c-0.7862,0.0863 -0.3612,-0.2652 -1.9514,0.2063 -2.8537,0.8461 -3.5371,2.3502 -3.9247,2.6218 -0.1338,0.6475 -0.393,0.631 -0.2815,1.5218 0.1427,1.1402 1.2926,3.3397 1.3169,3.7359l-2.8759 0.4258 -1.7583 -0.0547 -1.1274 -0.0217 0.2015 -2.2619c-0.0422,-1.6112 -1.8951,-2.4904 -3.2728,-1.6755 -0.9796,0.5795 -2.1524,2.1939 -2.187,3.4106 0.006,0.2738 -0.0728,0.5834 0.1551,0.6934 0.0264,-0.3209 0.1264,-0.7569 0.3829,-0.9435 0.3673,-1.0602 1.6265,-2.5879 2.8764,-2.4712 0.9016,0.0843 0.8745,1.0274 0.8887,1.756 0.0161,0.8243 0.1213,1.7124 0.0945,2.5162 0.1102,0.2731 0.0103,0.0769 0.1376,0.2275l0.2402 -0.1138c0.9491,-0.1654 1.4649,-0.4715 2.5082,-0.0939 0.5989,0.2168 1.2056,1.039 1.3185,1.6631 0.459,0.4878 0.1838,2.0593 -0.3063,2.4972 -0.1253,0.349 -0.5975,0.6927 -0.9351,0.85l0.3159 -0.7715c0.0265,-0.2898 0.0202,-0.346 0.1888,-0.5344 -0.1128,-0.7505 0.2253,-1.3021 -0.3837,-2.1477 -0.4525,-0.6285 -1.0634,-0.8432 -1.8553,-0.7777 0.5845,0.3695 1.4278,0.6698 1.2675,1.6166 0.3306,0.2824 -0.0837,1.1383 -0.1438,1.5144l-0.1293 0.2319c-0.1877,-0.4372 -0.093,-0.6378 -0.4276,-1.1613 -0.2105,-0.3292 -0.5415,-0.5368 -0.8968,-0.7514l0.1749 -0.0976c-0.873,-0.3912 -1.7167,0.5842 -2.3116,0.7966 -0.2241,0.4956 -1.4886,0.942 -1.6028,-0.7311l-0.0604 -3.0553 -0.9766 2.2337c-0.7513,-0.2071 -1.2614,-1.182 -1.2367,-1.938 -0.0689,-0.6294 -0.0145,-1.8896 0.2228,-2.4434 0.0929,-0.8325 0.7614,-2.6066 1.1372,-3.3678 0.2762,-0.5598 1.3086,-2.5319 1.7477,-2.7784 0.0767,-0.2623 0.192,-0.4015 0.4104,-0.5399 0.0706,-0.287 1.2566,-1.4872 1.5382,-1.7532 0.5469,-0.5166 1.2361,-1.0368 1.901,-1.4541 1.2948,-0.8127 3.321,-1.7853 4.8288,-1.9486 0.3027,-0.1469 1.8028,-0.3437 2.2296,-0.3044 0.1648,-0.1998 2.3506,-0.1306 2.7254,-0.0606 0.2747,0.2913 0.642,1.7438 0.9431,1.9269l0.1839 0.0754 0.0834 -0.0886 0.2914 0.3846 -0.2212 -0.7095c-0.3123,-0.4084 -0.3833,-2.3011 -1.2021,-3.6605 -0.6297,-1.0454 -1.4976,-1.7263 -2.5265,-2.3416l0.4702 -0.3025c0.0921,-0.1614 0.1084,-0.1768 0.347,-0.2222l0.5507 -0.3084c1.3789,-0.4657 2.207,-0.6301 3.7206,-0.5226 1.2608,0.0895 2.4928,0.2727 3.706,0.5552l-0.3955 0.1231zm-16.1095 6.3662l0.1721 0.1672 -0.246 0.137 -2.2895 0.1995 1.1267 0.5823 -2.122 0.3923 1.1076 0.4738 -2.0202 0.5959 0.9913 0.4624 -1.856 0.6273 1.0538 0.4061c-0.551,0.3311 -1.1216,0.5316 -1.8232,0.8725l1.0054 0.3287 -1.5953 1.209 0.8626 0.0497 -1.3034 1.4424 0.7275 0.047 -1.1285 1.5959 0.6435 -0.1239 -0.7797 1.5732 0.3371 0.1125c-0.4535,1.2014 -0.504,2.5558 -0.17,3.8125 0.242,0.9107 0.1415,0.6087 -0.2685,1.4715l-0.7159 1.5133 -1.5771 -3.3338 -2.8858 -0.0025c0.0456,0.2823 1.9419,3.8071 2.2281,4.325 0.3702,0.6699 0.9583,1.5511 0.9615,2.3044l0.0365 3.2807 2.4978 -0.0101c0.19,-1.1433 -0.2792,-3.3138 0.2532,-4.241l1.5781 -3.0044 1.2422 1.1071c-0.0136,0.213 -1.8614,5.4653 -2.0949,6.1537l2.5476 -0.013 0.672 -1.9975 3.0079 0.006 0.651 2.0056 4.376 -0.0238 0.0241 -3.4352c1.5147,-0.0794 3.517,0.3474 4.5775,-1.4527 0.4819,-0.818 -0.1007,-0.3739 0.9181,-1.1044 0.2072,0.2067 1.1713,2.0652 1.2012,2.3564l0.0314 3.6595 2.5043 -0.0289c0.1167,-0.7388 0.0381,-2.4218 0.0359,-3.2574 -0.0025,-0.9352 1.6229,-3.4981 2.1419,-4.4779l1.1705 -2.1604 -2.9019 0.0021 -1.6547 3.3332 -0.5079 -1.2051c0.496,-1.0287 1.2328,-1.9478 0.7184,-3.239 -0.1798,-0.4513 -0.5153,-0.9755 -0.8887,-1.2592l-1.7907 -0.3343 1.6846 -1.0797 0.1748 0.5185 1.3475 -0.5167 0.0887 0.9041c0.4102,-0.0253 0.2572,-0.1937 0.5874,-0.5171l0.7017 -0.4103 0.3378 0.9877 1.0648 -1.2297 0.3768 1.0342 0.803 -1.362 0.4274 0.8882 0.7509 -1.311 0.423 0.78 0.7201 -1.3069 0.3085 0.618 0.7867 -1.3121 0.2807 0.5287 1.0168 -1.3859 0.1118 0.3159 2.1377 -2.1419c0.5123,-0.4571 1.6758,-1.6179 2.1045,-2.1689 1.003,-1.2891 0.9081,-1.7465 -0.6237,-2.3509l-3.3525 -1.0003c0.2932,-0.6527 2.9896,-2.535 3.8553,-3.0958 0.5617,-0.3639 0.5084,-1.1497 0.3128,-1.7333 -0.4446,-1.3263 -1.7844,-1.4414 -2.9696,-1.7817 -2.636,-0.757 -3.9624,-0.1397 -6.1476,-0.8655 -1.0711,-0.3557 -5.258,-0.8071 -6.2853,-0.811 -1.2054,-0.0046 -2.9385,0.2461 -4.0579,0.6818l-2.8111 1.919c1.2156,-0.019 2.2065,0.236 3.197,0.9351l1.7404 2.32 -1.8339 -0.5827 0.2941 0.5712 -1.6833 -0.7134 0.3318 0.7934c-0.6698,0.0512 -0.4224,0.0493 -0.8528,-0.303l-0.8826 -0.4408 0.3735 0.9272 -1.9867 -0.7445 0.6846 0.9458 -2.2407 -0.456 0.8652 0.852 -2.4327 -0.1317 0.9969 0.7563 -2.5139 0.1172 1.0046 0.4573z"/>
   <path id="_594065088" class="fil1" d="M32.8774 37.3133l0.955 3.1973 -1.9355 -0.0031 0.9805 -3.1942zm6.5534 -0.6114c1.3213,-0.406 2.08,0.0244 2.4474,1.037 0.0107,0.4851 -0.2514,0.9243 -0.7372,1.0367 -0.3406,0.0789 -1.371,0.0902 -1.7065,0.013l-0.0037 -2.0867zm-0.0023 4.3213c1.493,-0.2763 2.6235,0.3898 4.046,-0.8115 0.9822,-0.8295 1.235,-2.3414 0.8611,-3.5875 -0.8595,-2.8644 -4.8696,-1.9739 -7.5492,-2.1012l-0.0075 7.2166 -2.4124 -7.199 -2.8151 0.0031 -3.4742 9.8914 2.5558 0.011 0.6956 -1.9799 3.0414 -0.0311 0.6786 2.0129 4.3403 -0.0033 0.0396 -3.4215z"/>
  </g>
 </g>
</svg>
