<?xml version="1.0" encoding="UTF-8"?>
<!DOCTYPE svg PUBLIC "-//W3C//DTD SVG 1.1//EN" "http://www.w3.org/Graphics/SVG/1.1/DTD/svg11.dtd">
<!-- Creator: CorelDRAW -->
<svg xmlns="http://www.w3.org/2000/svg" xml:space="preserve" width="76.7588mm" height="78.994mm" style="shape-rendering:geometricPrecision; text-rendering:geometricPrecision; image-rendering:optimizeQuality; fill-rule:evenodd; clip-rule:evenodd"
viewBox="0 0 76.7588 78.994"
 xmlns:xlink="http://www.w3.org/1999/xlink">
 <defs>
  <style type="text/css">
   <![CDATA[
    .fil0 {fill:#2B2C2C}
   ]]>
  </style>
 </defs>
 <g id="Capa_x0020_1">
  <metadata id="CorelCorpID_0Corel-Layer"/>
  <g id="_394690480">
   <g>
    <path id="_394676752" class="fil0" d="M58.3914 53.52c0.0987,-0.5173 0.4212,-1.0358 0.6478,-1.615 0.1303,-0.3331 0.1966,-0.2796 0.316,-0.6656 0.4129,-1.3338 0.794,-3.0386 1.1301,-4.4182 0.7915,0.0204 1.0807,0.7447 1.3807,1.5415 0.7844,2.084 -1.2278,5.0784 -3.4746,5.1573zm-6.025 -8.7855l0.1206 -2.636c0.925,-0.1435 2.1113,0.1485 2.9742,0.4564 0.9098,0.3245 0.6023,-0.3083 1.7325,0.5314 0.2926,0.2174 0.6931,0.2811 1.0409,0.3794 0.0744,0.1401 0.1125,0.1958 0.2457,0.3063l0.4216 0.2556c0.0764,1.0043 -0.1996,0.7775 -0.9889,1.2411 -0.3263,0.1917 -0.495,0.0829 -0.9037,0.1982 -0.5543,0.1565 -0.1724,0.3787 -0.8649,0.0771 -0.4622,-0.2013 -0.5139,-0.0698 -1.0114,-0.1612 -0.4423,-0.0812 -0.2384,-0.1989 -0.8223,-0.2935 -0.369,-0.0598 -1.7473,-0.2479 -1.9443,-0.3548zm-35.1622 -0.1456l0.0256 -0.5916c0.1444,-0.0925 0.0682,-0.0411 0.1977,-0.0799 0.0292,-0.0087 0.1504,-0.0367 0.1829,-0.0463l0.2073 -0.0686 0.2968 -0.439c0.0195,-0.0158 0.0494,-0.0347 0.0703,-0.0509 0.9136,-0.7103 2.0421,-0.6527 2.3233,-0.7231 0.49,-0.1225 0.2318,-0.2251 0.6802,-0.2821l2.7181 -0.2103 0.1081 2.595c-0.5218,0.5131 -0.7403,0.1299 -2.1596,0.4171 -0.4627,0.0936 -0.2047,0.1638 -0.779,0.2383 -0.7532,0.0976 -1.4035,0.4197 -2.5795,-0.0103 -0.7379,-0.2698 -0.7947,-0.3636 -1.2922,-0.7483zm7.9109 -0.449c0,-0.8368 -0.1558,-2.0454 0.038,-2.8399 0.104,-0.4262 0.9012,-0.9098 1.1797,-1.2376 0.4214,-0.4959 0.9627,-0.5898 1.4844,-0.9525l0.3064 -0.2476c0.0176,-0.0132 0.0464,-0.0298 0.0642,-0.0432 0.2844,-0.2147 0.489,-0.2417 0.8566,-0.2932 0.2358,-0.5564 0.1273,-0.266 0.5238,-0.4536l0.7034 -0.3078c0.1298,-0.0654 0.1223,-0.0676 0.2151,-0.1563l0.1301 -0.205c1.3006,0 1.7694,-0.6174 1.9085,-0.6736 0.3541,0 0.5869,0.0529 0.8967,-0.0851 0.2432,-0.1083 0.2252,-0.232 0.5651,-0.2538 0.5267,-0.0339 0.823,-0.0082 1.2577,-0.1372 1.4755,-0.4377 2.0908,-0.1975 3.792,-0.1975 0.3579,0 1.4655,-0.0452 1.7369,0.0194 0.1681,0.04 -0.1241,-0.0066 0.2945,0.1287 0.5783,0.1869 1.2575,0.1896 1.8452,0.4016 0.4343,0.1566 0.7463,0.1102 1.1505,0.2945 0.0262,0.012 0.0548,0.0266 0.0828,0.0378 0.2647,0.1057 0.4711,0.3799 0.7286,0.4652 0.8651,0 0.4922,0.0317 1.0513,0.3202l0.6908 0.2161c0.023,0.0106 0.0495,0.0304 0.0725,0.0418 0.3885,0.1923 0.5451,0.3937 0.9432,0.5449l0.5139 0.3332c0.2205,0.1717 0.5092,0.2414 0.7694,0.3401 0.0918,0.4665 0.4735,0.2257 1.2305,1.0064 0.0235,0.0243 0.304,0.2286 0.3548,0.2557l0.5484 0.3102c0,0.6736 0,1.3472 0,2.0208 0,2.6495 -0.2246,0.9756 -0.2246,2.4699 -0.4148,0.22 -0.5038,0.723 -0.83,1.08l-0.3645 0.4002c-0.3762,0.375 -1.2506,0.9527 -1.7419,1.0812 -0.3386,0.0886 -0.3977,0.0816 -0.6145,0.3576 0.22,0.1681 -0.064,0.2128 0.9683,0.1868 0.8969,-0.0226 2.1536,0.1253 2.9784,-0.1333 0.7341,-0.2301 0.9309,-0.2219 1.7391,-0.2575 0.9158,-0.0403 0.9086,-0.2284 1.5694,-0.3761 0.3654,-0.0165 0.7505,0.0056 1.1037,-0.0917l2.8854 -0.6299c0.0751,0.617 -0.48,2.8478 -0.761,3.5305l-0.2551 0.6673c-0.174,0.4843 -0.1199,-0.0232 -0.3243,0.5355 -0.123,0.3362 -0.0487,0.3656 -0.2189,0.6887 -0.1151,0.2185 -0.2009,0.3346 -0.3256,0.5623 -0.6615,1.2078 -1.4728,2.679 -2.513,3.7805 -0.1372,0.1453 -0.2088,0.2789 -0.3439,0.4555 -0.3257,0.4261 -0.7647,0.7199 -1.154,1.0771l-0.1995 0.2444c-0.3241,0.3698 -0.8143,0.7504 -1.2137,1.0497l-0.947 0.7217c-0.0188,0.016 -0.0463,0.0362 -0.0654,0.0519 -0.0926,0.0763 -0.1417,0.1154 -0.2438,0.198 -0.9107,0.736 -2.0585,1.1524 -2.2889,1.3115 -1.5581,1.0759 -2.5698,1.1389 -4.451,1.5535 0.3192,-0.865 0.2424,-0.1773 0.648,-0.7708 0.6711,-0.9821 0.9659,-0.6591 1.8529,-1.2844 0.7792,-0.5494 1.9791,-0.8302 2.8594,-1.732 0.5898,-0.6043 1.7178,-1.2195 2.2965,-1.8526 0.2998,-0.328 0.7603,-0.6795 1.0065,-1.015 0.4305,-0.5865 1.0211,-1.143 1.4142,-1.7262 1.1018,-1.635 1.366,-2.263 2.199,-4.2293 -1.3829,-0.0046 -1.8284,1.186 -3.559,0.5033 -0.9013,-0.3556 -1.2114,-0.5692 -2.2385,-0.4786 -0.4745,0.0419 -2.2811,0.9685 -2.3481,0.9892l-1.7963 -0.008c-0.3444,-0.1405 -0.1423,-0.1672 -0.5665,-0.2856l-0.5152 -0.1548c-0.7559,-0.3773 -0.7374,-0.5513 -1.8373,-0.5532 -0.9732,-0.0016 -0.9509,0.0225 -1.6614,0.3873 -1.1955,0.6137 -1.595,0.6821 -3.06,0.6289 -0.5861,-0.0213 -0.5583,-0.1232 -0.9779,-0.3189 -0.8835,-0.4118 -2.358,-0.5046 -3.3483,-0.6814 -0.2697,0.249 -0.5923,0.3061 -0.9249,0.4927 -0.3427,0.1923 -0.3607,0.0874 -0.6826,0.2078l-0.5717 0.2853c-1.2658,0.0386 -1.6449,0.0599 -2.542,-0.4442 -0.1112,-0.0625 -0.9646,-0.4842 -1.0564,-0.5104l-1.6319 -0.028c-0.6077,0.5444 -2.0206,0.8231 -3.1897,0.6625 -0.5141,-0.0706 -0.8832,-0.4963 -1.3002,-0.6808 -0.6136,-0.2715 -0.7287,-0.3051 -1.4995,-0.2869 -0.0403,0.0556 -0.3243,-0.0227 -0.0012,0.7864 0.6733,1.6859 2.53,4.8662 3.7817,6.0996 0.5574,0.5492 0.9519,1.2688 1.5411,1.8379l1.1853 1.051c0.2576,0.1847 0.3372,0.3456 0.4298,0.6421l-0.7464 -0.3449c-0.2085,-0.0999 -0.5033,-0.27 -0.7119,-0.4074l-2.8038 -2.3535 -2.2512 -2.909c-0.2723,-0.3461 -0.2362,-0.367 -0.4628,-0.7768 -0.133,-0.2404 -0.3258,-0.4025 -0.4684,-0.6355 -0.5132,-0.8381 -0.7379,-1.6356 -1.0768,-2.5399l-0.131 0.1144c-0.0423,-0.3617 -0.0999,-0.6225 -0.2554,-0.9387 -0.1438,-0.2925 -0.1599,-0.7038 -0.28,-1.0728 -0.2307,-0.7086 -0.3118,-1.3758 -0.4349,-2.1316 0.262,-0.0136 0.5123,-0.0144 0.7708,0.0335 0.4324,0.0802 0.2187,0.1158 0.4983,0.2463 0.4231,0.1976 0.9693,0.1263 1.4841,0.2344l2.6737 0.5555c0.4768,0.0824 0.9603,0.0613 1.4428,0.1302 2.214,0.3163 1.4964,0.2667 3.7808,0.3209 0.3459,0.0083 0.5288,-0.0394 0.8248,-0.1844 -0.0978,-0.1677 0.0153,-0.1113 -0.1404,-0.2195 -0.2385,-0.1657 -0.666,-0.1986 -0.9036,-0.3521 -0.3585,-0.2315 -0.7886,-0.3832 -1.0417,-0.6311 -0.0485,-0.0475 -0.1153,-0.1244 -0.1591,-0.1752 -0.4245,-0.4937 -0.9955,-0.9661 -1.1634,-1.6533 0,-0.6243 0.108,-0.9009 -0.449,-1.0104zm-0.8976 -4.4785c-0.6862,-0.3648 -0.537,-0.5219 -0.4886,-1.8085 0.3665,-0.2558 0.8824,-0.9524 1.2865,-1.2009 0.3225,-0.1984 0.5292,-0.289 0.8176,-0.5508 1.0164,-0.9222 3.0928,-1.8052 4.2245,-2.3873 0.9302,-0.4785 1.9974,-0.8195 3.0319,-0.9241 0.5407,-0.0546 0.6282,-0.2153 1.0273,-0.3055 1.9799,-0.4476 6.7167,-0.5701 8.4885,0.1065 1.0005,0.3821 0.8331,0.1044 1.4646,0.4534 0.3427,0.1893 1.1545,0.3842 1.5221,0.4751 0.4,0.0988 1.6234,0.6006 1.9378,0.7888 0.2224,0.1331 0.057,0.0788 0.3738,0.2056l1.2796 0.7229c0.6346,0.4231 2.2932,1.4673 2.6733,2.0562 0.1323,0.2049 0.0753,0.1506 0.2827,0.3567 0.1183,0.1175 0.359,0.0961 0.3795,0.8818 0.0061,0.2349 0.0238,0.3447 -0.0737,0.5346 -0.2354,0.4582 0.0955,-0.0043 -0.2727,0.247l-1.1227 -0.3368c-0.3208,-0.605 -2.8258,-1.6625 -2.8317,-1.6685l-0.1586 -0.3873c-0.702,-0.1177 -0.7785,-0.3875 -1.2866,-0.601l-4.4841 -1.4571c-0.5735,-0.0904 -1.1513,-0.1119 -1.7968,-0.1777 -0.8463,-0.0862 0.0008,-0.2165 -1.7917,-0.2112 -3.2789,0.0097 -1.9925,0.2093 -3.5932,0.3197 -1.2058,0.0832 -2.2127,0.4912 -3.2763,0.6933 -1.0291,0.1955 -4.3564,1.887 -5.3194,2.5355 -0.239,0.1609 -0.1642,0.1832 -0.5055,0.3831l-1.1964 0.8268c-0.2569,0.2187 -0.3677,0.2859 -0.5917,0.4297zm16.809 -10.1396c-0.6499,0.6728 -0.668,0.126 -1.6478,-0.7697 -1.0112,-0.9243 -0.917,-1.4811 -1.85,-0.5988l-1.1242 1.1211c-0.2801,0.3324 -0.0365,0.2817 -0.5112,0.5192 -0.4737,-0.2819 -0.443,-0.2835 -0.8266,-0.6616 -0.1456,-0.1434 -0.0701,-0.0938 -0.2126,-0.2293 -0.2764,-0.2627 -0.7136,-0.6681 -0.903,-0.8171l0.0054 -0.4494c0.494,-0.4453 1.8947,-1.5759 2.0907,-2.1328 -0.5309,-0.6835 -0.5997,-0.6515 -1.1677,-1.2221 -0.0161,-0.0162 -0.039,-0.0401 -0.0551,-0.0567l-0.6866 -0.777c-0.1944,-0.2749 -0.0882,0.1825 -0.157,-0.4141l1.9125 -1.8409 1.1067 1.0584c0.1267,0.1486 0.0801,0.1425 0.2457,0.3198 0.495,0.53 0.5787,0.6699 1.0053,0.7283l0.4969 -0.4384c0.4122,-0.4258 1.1048,-0.8003 1.6362,-1.6646 0.5277,0.3756 1.713,1.3348 1.9485,1.9497 -0.5767,0.8465 -1.2953,1.6563 -2.1264,2.2453 0.9209,1.6538 0.9719,1.1358 1.9028,2.2037 0.2587,0.2967 0.0682,-0.0053 0.2215,0.3785 -0.9242,1.1723 -0.3203,0.5302 -1.304,1.5485zm-9.5042 -3.9061c0.0008,0.2476 -0.0073,0.6543 0.0266,0.8887 0.0482,0.3333 0.1751,0.3821 0.2219,0.7023 0.2103,1.4373 1.4988,2.5177 2.3967,3.5733 -0.3512,0.3735 -1.7926,0.758 -2.4299,0.8624l-1.8004 0.5907c-0.1576,0.0828 -0.2093,0.0901 -0.3873,0.177 -0.5234,0.2557 -1.0328,0.3981 -1.5361,0.7077l-0.8127 0.4148c-0.3977,0.2449 0.1073,0.0232 -0.3132,0.2314l-2.7545 1.8672c-0.6573,0.4392 -1.2279,1.1074 -1.7337,1.7061l-0.3355 -0.2703c-0.0426,-0.7263 0.1692,-1.1653 0.6645,-1.5968 0.7367,-0.6416 1.3766,-1.2658 2.2965,-1.6368l2.1615 -0.7587c-0.1086,-1.1352 -0.9579,-0.529 -1.7337,-0.6546l-1.0931 -0.6297c0.0077,-1.5948 -0.1859,-6.2005 0.1711,-7.2146 0.2715,-0.7712 0.4792,-1.6925 0.6492,-1.9361l2.089 -2.9786c0.2605,-0.3731 1.7827,-1.5289 2.2904,-1.8457 0.0196,-0.0122 0.0446,-0.0324 0.064,-0.0449 0.0198,-0.0127 0.0459,-0.0326 0.0657,-0.0456l0.6076 -0.416c0.8522,-0.4856 1.6397,-0.8928 2.5354,-1.2654 0.9305,-0.387 1.6417,-0.455 2.6109,-0.5878 0.4166,-0.057 0.6943,-0.2636 1.2346,-0.3014 2.3797,-0.1667 4.4928,-0.0858 6.567,0.7609 0.3196,0.1304 0.8079,0.3417 1.0847,0.4713 0.4116,0.1926 0.6504,0.293 1.067,0.5084 1.0614,0.5489 2.2892,1.4102 3.036,2.3619 0.3688,0.47 0.5026,1.0785 0.8225,1.5451 0.3319,0.484 0.315,0.3654 0.5499,0.9313 0.1357,0.327 -0.1683,-0.2034 0.1175,0.188 0.1711,0.2344 0.1158,0.071 0.2005,0.2562l0.3412 1.2531c0.2383,0.9599 0.1552,4.664 0.0436,5.8894 -0.7913,0.3811 -0.173,0.8606 -0.0983,1.1077l0.1082 1.7194 -1.0305 0.3315 0.0148 0.5468 1.583 0.5265 0.1459 0.2872c1.0901,0.1144 1.0613,0.7255 1.3332,1.5973 -0.6385,0.0019 -0.392,0.0665 -0.7873,-0.2179 -0.2149,-0.1547 -0.2634,-0.2055 -0.5064,-0.3804 -0.9001,-0.6478 -1.8922,-1.1329 -2.8406,-1.6772 -0.3412,-0.1957 -0.3034,-0.2729 -0.4925,-0.374 -0.3443,-0.184 -0.9387,-0.3395 -1.3488,-0.4793 -0.5782,-0.1972 -0.7486,-0.4784 -1.9399,-0.7092 -0.5598,-0.1084 -0.1546,-0.0994 -0.6717,-0.2304 -0.5313,-0.1346 -0.9746,-0.2019 -1.5331,-0.4195 0.0923,-0.2971 0.0642,-0.2224 0.1792,-0.397 0.3291,-0.4997 0.6833,-0.6915 1.7491,-2.4029 0.2504,-0.4021 0.4711,-1.9215 0.518,-2.4206 0.109,-1.16 -0.542,-2.9015 -1.1377,-3.8219 -0.7488,-1.1571 -2.5412,-2.461 -3.9926,-2.7105 -1.9312,-0.332 -3.8161,-0.1349 -5.3483,0.908 -0.9927,0.6756 -1.7624,1.6358 -2.2992,2.743 -0.3685,0.76 -0.5927,1.7765 -0.5899,2.7692zm24.788 15.5061c0.001,-0.2212 -0.0331,-0.0518 0.0674,-0.1905 0.7396,-1.0201 1.4136,-0.5676 2.4178,-2.7258 0.0112,-0.0243 0.0288,-0.0516 0.0401,-0.0755 0.0108,-0.0229 0.0306,-0.0478 0.0409,-0.0708 0.0102,-0.0224 0.0283,-0.0475 0.0375,-0.0707 0.3629,-0.9222 -0.3678,-0.4806 1.9726,-0.9597 0.9358,-0.1916 1.5184,-0.579 2.1582,-1.0092l0.1244 -0.0852c0.4452,-0.3965 0.7819,-0.9682 1.1462,-1.4422 0.3873,-0.504 0.6879,-1.5457 0.7619,-2.2364 0.1689,-1.5774 0.0051,-4.2685 0.0051,-5.966 -0.4047,-0.0611 -0.8276,-0.1663 -1.248,-0.1066 -0.4068,0.0578 -0.2377,0.0714 -0.3226,0.1066l-0.1192 0.6716c-0.0192,1.3451 0.2319,4.9077 -0.1682,5.824l-0.2249 0.4245c-0.2387,0.3446 -0.4064,0.6111 -0.6879,0.8549 -0.3025,0.262 0.3968,-0.1421 -0.1742,0.1333 -0.2229,0.1075 -0.1434,0.056 -0.4225,0.0627l-0.0006 -0.4496 0.8982 -0.7864 0 -7.7454 -0.8738 -0.4764c-0.0202,-0.01 -0.1993,-0.1424 -0.2483,-0.18 -2.1759,0.4242 -1.0091,0.3913 -1.908,0.9932l0 5.5006c0,1.3985 0.2671,2.0598 -0.2787,3.1225 -0.0121,0.0236 -0.0211,0.0571 -0.0332,0.0804l-0.0713 0.1437c-0.1284,0.2016 -0.2585,0.2865 -0.4432,0.4121 -0.2279,0.155 -0.3818,0.2281 -0.6129,0.0238 -0.1256,-0.111 -0.0714,-0.0364 -0.1336,-0.1899l0.5271 -0.694c0.4326,-0.4723 -0.0268,0.471 0.1011,-0.1313l0.1663 -0.6293c0.0078,-0.1561 -0.0075,-0.3993 -0.0084,-0.5665l0.0004 -6.5107c0.0058,-0.663 0.1229,-0.9624 -0.5988,-1.2525 -0.5018,-0.2017 -1.0274,-0.5482 -1.5884,-0.1875l-0.1497 0.088c-0.0642,0.0323 -0.0962,0.0229 -0.2361,0.085 -0.4516,0.2005 -0.1316,0.1482 -0.57,0.2566l-0.0011 8.7552c-0.0022,0.3919 -0.015,0.5863 0.065,0.8879 0.0815,0.3075 0.145,0.337 0.2229,0.5629 0.0452,0.1311 0.039,0.2126 0.1033,0.3645l0.3476 0.5647c0.391,0.5457 0.385,0.525 0.385,1.5505 -0.7117,0.5312 -0.6448,0.7947 -0.9692,1.033l-0.4441 0.2336c-0.3968,0.2595 -0.7029,0.4205 -1.2806,0.4248l0.0013 -0.569c0.3591,-0.2637 1.261,-0.8508 1.339,-1.347l-0.4853 -2.8797c-0.2822,-0.6622 -1.4348,-1.0532 -1.6143,-1.611l-0.0124 -7.2974c-0.0127,-1.6104 -0.5172,-2.031 -0.6557,-3.0314 -0.0535,-0.3869 -0.8627,-2.0828 -1.1432,-2.4887 -0.0459,-0.0664 -0.3478,-0.3286 -0.4824,-0.5137l-0.3692 -0.544c-0.7957,-0.9272 -1.7042,-1.9506 -2.7221,-2.6564 -0.2095,-0.1452 -0.3738,-0.1798 -0.5834,-0.3232 -0.1609,-0.1103 -0.3444,-0.3005 -0.486,-0.3969 -0.1925,-0.1311 -0.0968,-0.0448 -0.2912,-0.1497l-0.9358 -0.441c-0.8561,-0.4877 -2.3573,-1.0846 -3.3512,-1.229l-2.2843 -0.4089c-0.4882,-0.0854 -2.9948,-0.0746 -3.5098,-0.0051 -0.2813,0.038 -0.6044,0.0956 -0.8765,0.1504 -0.2582,0.052 -0.5398,0.0515 -0.8046,0.106 -0.3805,0.0783 -0.9541,0.3102 -1.3913,0.3887 -0.5121,0.0918 -0.6364,0.2177 -0.9724,0.3436 -0.1742,0.0653 -0.2088,0.0379 -0.3647,0.0864 -0.8592,0.2672 -3.1672,1.4824 -3.597,1.919 -0.9008,0.9152 -1.4248,0.9017 -2.9772,2.8482l-0.577 0.7823c-0.2957,0.4297 -0.9572,1.8486 -1.2569,2.1107 -0.549,0.4804 -0.3496,2.0341 -0.5629,2.5628 -0.1999,0.2444 -0.1898,-0.2392 -0.2573,0.5417 -0.098,1.1333 0.0128,6.4236 0.0128,7.7579 -0.4673,0.2872 -0.802,0.3793 -1.0048,0.8586l-0.2452 0.3832c-0.0144,0.0241 -0.0288,0.0563 -0.0426,0.0812 -0.2974,0.5372 -0.4855,0.2678 -0.5036,1.1469l-0.3368 0.1128c0.1615,0.6983 0.2951,2.2327 0.8767,2.6321 0.4463,0.3065 0.5827,0.3374 0.5827,1.0722l-1.0553 -0.2523c-0.2763,-0.0894 -0.6162,-0.4448 -0.8125,-0.675 -0.0437,-0.0512 -0.1034,-0.1418 -0.2226,-0.2503l-0.4305 -0.5443c-0.2485,-0.4171 -0.1746,-0.7148 -0.1746,-1.3094l0.345 -0.1898c0.3531,-0.262 0.2496,-0.2288 0.3291,-0.6895 0.0687,-0.3973 0.3905,-0.6376 0.4455,-1.1228 0.1075,-0.9485 0.0249,-9.1589 0.0031,-9.2246 -0.182,-0.5473 -0.9286,-0.7765 -1.4519,-0.7936 -0.9021,-0.0297 -1.0466,0.226 -1.5782,0.5696 -0.0934,2.6538 -0.1543,5.3187 -0.0898,7.9744 0.035,1.4402 0.7278,0.8757 0.741,1.7923l-1.5505 -0.8981 0 -8.6441 -0.4491 -0.449 -0.5637 -0.039 -0.2216 -0.1856c-0.4762,0.0883 -1.1273,0.1022 -1.4566,0.4606l-0.1986 0.2583c-0.0156,0.02 -0.0548,0.1078 -0.0666,0.0864 -0.1009,-0.1834 -0.0739,6.044 -0.0739,7.6137 0.3057,0.276 0.4943,0.5172 0.8573,0.7497 0.0328,0.021 0.2461,0.1361 0.2654,0.1484l-0.1123 0.4502 -0.5619 0 -0.5323 -0.5811c-0.2673,-0.3004 -0.1058,-0.3444 -0.4787,-0.5421 -0.0078,-0.2353 -0.0009,-0.4467 -0.0894,-0.6646 -0.0142,-0.035 -0.075,-0.1065 -0.0876,-0.1369 -0.3264,-0.7922 0.2975,-4.8281 -0.1598,-6.0463l-1.1845 0.0267c-0.4549,0.187 -0.2593,4.7436 -0.2561,5.3616 0.009,1.7366 0.8356,3.5849 2.3252,4.4949 1.2729,0.7775 1.9701,0.9484 3.4944,1.0059 0.3327,0.8433 0.5555,1.5755 1.2012,2.2763 0.2722,0.2955 0.5579,0.5352 0.8907,0.7934l0.1414 0.0986c0.2283,0.1645 0.5762,0.366 0.5938,0.6667l-2.6205 0.7482c-1.018,0.3873 -1.222,0.9456 -1.8297,1.5182 -0.0033,0.8626 -0.1835,2.8229 0.0958,3.5959 0.2319,0.6418 0.432,1.9966 0.703,2.7767 0.3669,1.0558 0.2286,1.1527 0.8218,2.2275 0.138,0.2501 0.055,0.1465 0.1475,0.4244 0.3547,1.0653 1.046,2.1155 1.6744,3.0326 0.1681,0.2452 0.2092,0.4583 0.4048,0.7246 1.0438,1.4213 2.1083,2.5432 3.3354,3.7375 0.2221,0.2162 0.3719,0.4434 0.5823,0.6542l0.2313 0.2159c0.4972,0.4664 1.1108,0.8878 1.7923,1.2447 0.2906,0.1522 0.4607,0.2694 0.7172,0.5267 0.2786,0.2795 0.3709,0.2077 0.7092,0.3876 0.6893,0.3666 0.3777,0.2953 1.1772,0.6139 0.42,0.1673 0.1577,0.1332 0.3336,0.2283 0.2028,0.1096 0.3105,0.057 0.5422,0.1416l1.1636 0.5165c0.3917,0.2149 1.7306,0.409 1.8986,0.5006l2.0514 0.5007c4.4206,0.8675 6.5399,0.373 10.6341,-0.5253 0.7568,-0.166 0.4297,-0.365 1.6499,-0.4008l0.8864 -0.4338c1.0656,-0.4449 1.6855,-0.8109 2.6767,-1.3591l1.8722 -1.1745 0.1153 -0.1148c0.0178,-0.0158 0.0446,-0.0365 0.0627,-0.0519 0.1083,-0.0922 0.2427,-0.2106 0.3671,-0.2977l0.7251 -0.6211c1.2986,-1.0952 2.5402,-2.4374 3.5861,-3.8133 0.1622,-0.2135 -0.0548,-0.1693 0.3593,-0.3434 0.7236,-0.3042 2.8708,-0.2542 4.0296,-1.2259 0.5251,-0.4404 1.2318,-0.8095 1.7196,-1.3122 0.3629,-0.3741 0.7188,-0.9446 0.9785,-1.3738 0.7713,-1.2748 1.0039,-3.1047 0.6915,-4.5376 -0.1033,-0.474 -0.5242,-1.4473 -0.8663,-1.8003 -0.2213,-0.2282 -1.1766,-1.2447 -1.3461,-1.3367 -0.284,-0.1541 -0.6058,-0.2757 -0.9064,-0.4545 -0.361,-0.2148 -0.3367,-0.3953 -0.3837,-0.9118l-0.8186 -0.8047c-0.6346,-0.5751 -1.3892,-0.9282 -2.2431,-1.1262 -0.5022,-0.1165 -0.7735,-0.2171 -1.3827,-0.3013z"/>
    <path id="_394676416" class="fil0" d="M4.6503 25.1666c0.9829,-0.5563 2.5046,0.5079 2.706,1.3737 0.0668,0.287 0.0697,0.8007 0.0523,1.102 -0.0482,0.8382 -0.7944,1.6365 -1.3865,1.7972 -2.3953,0.6503 -3.5636,-1.9048 -2.5912,-3.3854 0.3801,-0.5787 0.6511,-0.5659 1.2194,-0.8875zm-4.6235 3.2228c0.4947,0.4795 0.1631,0.1033 0.3453,0.8189 0.3465,1.3603 1.9773,2.8039 3.0196,3.186 1.6842,0.6174 3.3202,0.4214 4.8214,-0.5558 0.6149,-0.4003 1.3254,-1.2942 1.726,-2.0029 0.2726,-0.4822 0.4531,-0.7218 0.6306,-1.7 0.1714,-0.9442 -0.1019,-2.5848 -0.3983,-3.1884 -0.4142,-0.8437 -1.0879,-1.629 -1.8604,-2.174 -0.3592,-0.2534 -0.9489,-0.5507 -1.3952,-0.7194 -1.2274,-0.4641 -3.0758,-0.1967 -4.1052,0.3516 -1.5236,0.8115 -1.9246,2.0197 -2.428,2.3121 -0.268,2.2794 -0.4398,0.8488 -0.3558,3.6719z"/>
    <path id="_394676392" class="fil0" d="M9.5103 12.8171c0.2125,0.4133 1.0604,1.0634 1.4536,1.4592l0.1144 0.1189c0.6311,0.6184 0.3928,0.3568 0.941,1.2544 -1.1613,0.0124 -4.5966,-0.4649 -5.2033,-0.2708 -0.5052,0.1617 -1.157,1.5791 -1.3831,2.0413 0.5376,0.6529 1.0856,0.9925 1.6979,1.5925l2.1724 2.0134c0.5221,0.3948 1.3271,0.9871 1.6743,1.5448 0.2129,0.342 1.1814,0.8092 1.5641,1.038 0.4636,-0.355 1.2662,-1.4772 1.6,-1.9225 -0.2043,-0.7196 -1.2152,-1.0787 -2.3024,-2.6089 1.5426,-0.0777 3.1102,0.0269 4.6318,0.2532 0.2899,-0.2302 0.6083,-0.5599 0.9016,-0.9015 0.0291,-0.0339 0.1778,-0.2182 0.2049,-0.2536 0.2727,-0.3571 0.3201,-0.4202 0.5147,-0.8677 -0.0936,-0.2304 -1.6702,-2.0049 -2.0466,-2.379l-1.5024 -1.4165c-0.0746,-0.061 -0.3103,-0.3147 -0.3895,-0.3993l-0.8367 -0.852c-0.5748,-0.6566 -1.1059,-1.0395 -1.7858,-1.565 -0.7587,0.2479 -0.3013,0.2444 -1.0594,0.949 -0.3783,0.3515 -0.8632,0.623 -0.9615,1.1721z"/>
    <path id="_394676272" class="fil0" d="M25.2108 70.1159l0.3675 0.2855c0.1106,0.0977 -0.0446,-0.0047 0.1927,0.1634 0.8332,0.5902 0.7772,1.544 0.2369,2.4789 -0.1222,0.2114 -0.3463,0.3011 -0.5212,0.4048 -0.0219,0.013 -0.051,0.0311 -0.0724,0.044l-0.1284 0.0887c-0.3185,0.1706 -0.9499,0.161 -1.3124,-0.0357 -0.0185,-0.01 -0.0489,-0.0256 -0.068,-0.0366l-0.1404 -0.0877c-0.021,-0.0137 -0.0491,-0.0333 -0.0698,-0.0474l-0.3783 -0.2793c-0.0175,-0.0129 -0.049,-0.0293 -0.0656,-0.0426 -0.6744,-0.539 -0.1667,-1.8428 -0.1571,-2.3046 0.3072,-0.1629 1.1225,-1.1813 2.1165,-0.6314zm-5.4329 1.9786c0.0555,0.4403 0.265,0.5624 0.3097,0.9023 0.0662,0.5036 -0.0584,0.6955 0.2276,1.0978l1.0508 1.2902c0.2069,0.2145 0.874,0.7209 1.1634,0.7998 1.2058,0.329 0.2324,0.1002 0.8499,0.3373 1.3728,0.5271 3.6412,-0.1238 4.7847,-1.3786 0.9218,-1.0115 1.2535,-1.7515 1.229,-3.498 -0.0104,-0.7447 -0.1325,-1.487 -0.449,-2.0297 -0.3916,-0.6713 -1.6856,-1.9696 -2.5392,-2.2752 -0.4152,-0.1487 -1.5959,-0.3137 -2.0788,-0.3033 -0.315,0.0068 -1.7151,0.309 -2.0063,0.4721 -0.7973,0.4467 -1.9897,1.5574 -2.2116,2.4909 -0.0923,0.3884 -0.3697,1.7814 -0.3302,2.0944z"/>
    <path id="_394676152" class="fil0" d="M51.0622 12.8171c0.1916,0.2962 0.1358,0.3156 0.4967,0.4893 0.3385,0.163 0.3803,0.1989 0.6696,0.3487 0.1972,0.102 0.1268,0.0442 0.3043,0.1574l1.6708 0.8908c0.2656,0.1351 0.4521,0.3161 0.6045,0.3796 0.3616,0.1507 0.463,0.1873 0.7548,0.3193 0.851,0.4827 0.0817,0.4278 1.5816,0.3711 0.575,-1.4726 0.7619,-0.2567 0.849,-2.058 -1.3944,-0.8413 -1.7856,-0.9245 -3.026,-1.5627l0.4604 -0.9966c0.4334,0.0141 1.0953,0.4343 1.4633,0.6414l1.568 0.5684c0.1593,-0.1691 0.1552,-0.2129 0.2989,-0.3823 0.1839,-0.2168 0.1525,-0.0874 0.2731,-0.3617l0.4039 -1.05c-0.5078,-0.5122 -1.6703,-1.0135 -2.6173,-1.6102l0.7432 -0.8852c0.602,0.2842 -0.1014,0.1247 0.7599,0.3834l2.2714 1.2694 1.3116 -1.8521 -0.0251 -0.5041 -5.8895 -3.1659c-0.531,0.1896 -1.0046,1.2165 -1.3854,1.9427 -0.6014,1.1466 -0.5485,1.1751 -1.2142,2.1553l-1.9501 3.5723c-0.1888,0.218 -0.0954,0.0126 -0.1895,0.2135 -0.0286,0.0612 -0.1662,0.6431 -0.1879,0.7262z"/>
    <path id="_394676128" class="fil0" d="M39.2576 2.8562l2.009 0.4222 -0.1009 1.4471 -1.9287 0.121 0.0206 -1.9903zm-3.1642 -1.7149c-0.02,2.7921 -0.0688,5.947 0.0733,8.7197 1.4836,0.0142 1.6446,0.1111 2.9484,-0.1066l0.2184 -2.3663c2.0394,-0.022 2.871,0.2746 4.2303,-0.9329 1.0206,-0.9065 0.9477,-2.4754 0.9223,-3.708 -0.3695,-0.2882 -0.1962,-0.2404 -0.4187,-0.6644 -0.3211,-0.6122 -0.8427,-1.0109 -1.3934,-1.3352 -0.0217,-0.0127 -0.0479,-0.032 -0.0699,-0.0446l-0.5194 -0.265c-0.0817,-0.0242 -4.9833,-0.56 -5.6171,-0.4072 -0.4997,0.1205 -0.3706,0.5416 -0.3742,1.1105z"/>
    <path id="_394675888" class="fil0" d="M15.5622 7.4283c0.0938,0.3017 0.3794,0.734 0.5489,1.0435 0.2284,0.4174 0.3639,0.7081 0.6204,1.0582 0.3877,0.5291 0.2776,0.6878 0.824,1.531 0.1313,0.2026 0.1871,0.3834 0.3143,0.5834l2.4183 4.1984c0.5286,-0.0369 1.0555,-0.523 1.5841,-0.7686 0.5345,-0.2483 1.0772,-0.5757 1.5257,-0.8329l0.6931 -0.4197c0.2101,-0.1154 0.2443,-0.0523 0.4374,-0.13 0.4594,-0.1848 0.1042,-0.0863 0.3708,-0.3047 0.585,-0.479 0.7854,-0.2187 1.3835,-0.7343 0.0176,-0.0151 0.0463,-0.0394 0.0624,-0.0535l0.1347 -0.1188 -1.0274 -1.9028c-1.0002,-0.1925 -2.1931,1.2518 -3.8171,1.5311l-0.4027 -1.1466c0.1024,-0.0434 0.2091,-0.0653 0.3153,-0.1035 0.5038,-0.181 0.5216,-0.3333 1.0887,-0.6153l1.4348 -0.8209c-0.0479,-0.6579 -0.4047,-1.2401 -0.7703,-1.7464 -0.3022,0.0069 -0.3601,-0.0274 -0.6508,0.0709l-0.7852 0.3745c-0.385,0.2644 -1.4669,0.7285 -1.9471,0.905l-0.2853 -1.1489 3.2571 -1.6841 -0.969 -2.0863c-0.7339,-0.0272 -2.1618,0.6535 -2.6417,0.9653l-3.2036 1.7325c-0.0185,0.0155 -0.0449,0.0373 -0.0637,0.0528 -0.3529,0.2909 -0.2334,0.087 -0.4496,0.5707z"/>
    <path id="_394675816" class="fil0" d="M59.6151 16.7465c0.0021,2.0568 0.2073,1.4562 0.3141,1.7466 0.0348,0.0946 -0.0143,0.9587 0.9779,1.8808 0.1686,0.1567 0.2789,0.2537 0.407,0.373 0.0759,0.0708 0.092,0.0865 0.1698,0.1545 1.4575,1.2743 2.0504,0.9243 4.5172,0.9117 0.0968,-0.9143 -0.3373,-1.2102 -0.7391,-2.5466 -0.5544,-0.0654 -1.3551,-0.1425 -1.7544,-0.4955l-0.3877 -0.4001c-1.1141,-1.1928 -0.5143,-2.7691 0.5342,-3.496 0.2709,-0.1878 0.2146,-0.0465 0.5007,-0.1754l0.3668 -0.2515c0.5651,-0.192 1.9749,0.2855 2.4211,0.8755l1.2838 2.2361c0.281,-0.0546 0.8385,-0.3278 1.0959,-0.508 0.6707,-0.4695 0.7679,-0.5106 1.2593,-1.091 -0.4269,-1.0706 -1.0717,-2.3417 -1.9553,-3.0894 -1.2347,-1.0446 -2.3422,-1.3693 -3.8802,-1.3644 -1.4943,0.0047 -2.5681,0.4586 -3.6649,1.4598 -0.1701,0.1552 -0.4525,0.4845 -0.5808,0.6643 -0.5892,0.8255 -0.8865,2.0771 -0.8854,3.1156z"/>
    <path id="_394675360" class="fil0" d="M72.6044 26.6255c0.1512,-0.2031 0.4231,-0.1123 0.7864,-0.1123l0.1857 0.357c0.0105,0.0116 0.0444,0.0358 0.0533,0.0444 0.0142,0.0136 0.0646,0.0344 0.0984,0.0483 0.199,0.9445 0.1076,0.5009 0.2907,0.9072 0.095,0.2109 0.0102,-0.0135 0.0514,0.2333 0.0839,0.5033 0.1231,0.7271 0.4432,1.1043 0.2249,-0.0718 0.6646,-0.1489 0.8201,-0.3083l0.1024 -0.1197c0.0141,-0.0134 0.0347,-0.0393 0.0495,-0.0511 0.1117,-0.0901 -0.0381,0.0736 0.7311,-0.2447 0.2791,-0.1155 0.2865,-0.228 0.5417,-0.3989 -0.1836,-1.0679 -0.0678,-0.4826 -0.3143,-1.0909 -0.1428,-0.3524 -0.1348,-0.6817 -0.1348,-1.0411l-0.3414 -0.1008c-0.1456,-1.025 -0.0602,-0.3631 -0.2659,-0.9223 -0.1673,-0.4551 -0.0052,-0.4504 -0.4031,-0.6614 -0.2425,-1.061 -0.3894,-1.8763 -1.1285,-1.7492 -0.0698,0.012 -0.198,0.1014 -0.2343,0.1168 -0.5705,0.2422 -0.51,0.0684 -1.6833,0.7179l-3.4167 1.2989c-0.3168,0.1208 -0.7027,0.3372 -1.0935,0.4841 -0.2176,0.0818 -0.4263,0.1087 -0.6049,0.1849 -0.3554,0.1518 -0.1022,0.1483 -0.4894,0.2726 -0.6611,0.2123 -0.5342,-0.0073 -0.8914,0.5825l1.0826 3.3068c0.3996,0.6678 0.1381,0.5665 0.307,1.1409 0.158,0.3472 0.1506,0.0565 0.2663,0.6001l0.3881 1.224 0.0889 0.1656c0.7056,-0.2093 1.1648,-0.305 1.7836,-0.717l0.5335 -0.3315c-0.2499,-0.9917 -0.1925,-0.6507 -0.302,-1.6835 -0.3009,-0.1784 -0.1901,-0.1706 -0.2217,-0.3504 -0.2057,-1.1721 -0.4468,-0.2646 -0.4468,-1.671l0.8987 -0.2251c0.3621,0.5933 0.2505,0.3297 0.3344,0.8024 0.0065,0.037 0.0079,0.0718 0.0145,0.1063 0.0069,0.0357 0.018,0.0788 0.0243,0.1085l0.0765 0.2178c0.4631,1.0697 0.3632,1.2058 0.6736,1.3472 0.5501,0.2507 0.7316,-0.0834 0.9982,-0.1781 0.0909,-0.0323 0.9918,-0.0265 0.8939,-0.9453 -0.0523,-0.4901 -0.2453,-0.3491 -0.3163,-1.0232 -0.1526,-1.4491 -0.342,-0.0096 -0.342,-1.4454l0.1123 -0.0006z"/>
    <path id="_394675648" class="fil0" d="M52.8452 68.8382c0.6658,-0.0217 1.0824,-0.3401 1.5718,-0.5613l0 -1.0093c-0.0372,-0.1186 -0.5118,-0.5326 -0.6736,-1.3472 -0.3347,0.082 -1.0095,0.2003 -1.2808,0.3766 -0.9586,0.6227 -1.0461,0.4149 -1.6747,0.7213l-1.0899 0.4677c-0.3546,0.1934 -0.455,0.0861 -0.8049,0.2357l-0.8204 0.3021 -0.4579 0.4782c0.3016,1.1541 0.5961,2.1524 1.2175,3.2215l1.7337 4.114c0.5326,0.9178 0.1241,-0.0496 0.3626,1.0877 1.167,-0.1078 0.6877,0.012 1.5095,-0.2866l1.9526 -0.8631c0.3063,-0.189 1.5294,-0.5907 2.4251,-1.0538 0.5491,-0.2839 0.511,-0.2262 0.7121,-0.4941 -0.2116,-0.6294 -0.2458,-0.5935 -0.3042,-1.2344 -0.3816,-0.2397 -0.2702,-0.2088 -0.4491,-0.6736 -0.5894,0.0533 -0.6187,0.0859 -1.144,0.25 -0.3603,0.1126 -0.0398,-0.0193 -0.2742,0.1161 -1.0911,0.63 -0.4856,-0.1256 -0.8266,0.5321 -1.5739,0.2251 -1.7968,0.8934 -1.7968,-0.4497 0.9886,-0.7418 0.73,-0.2442 2.0982,-1.0119 0.0177,-0.01 0.0435,-0.0279 0.0623,-0.0368 0.252,-0.1194 0.3992,-0.0941 0.6461,-0.1868 -0.006,-0.8079 0.0079,-0.6035 -0.2769,-1.1445 -0.2739,-0.5204 -0.2849,-0.4056 -0.5089,-0.9874 -1.4027,0.8424 -1.3825,0.5675 -2.2443,0.6736l-0.8987 0.2245 -0.2251 -0.6747c1.0049,-0.2074 1.1136,-0.2424 1.4595,-0.7859z"/>
    <path id="_394675672" class="fil0" d="M59.1641 65.8771c-0.1918,-0.5243 -0.4132,-0.6398 0.078,-1.087 0.8478,-0.7716 1.5565,-1.1697 2.1076,-1.9015l-1.0693 -1.2621c-0.1144,-0.1112 -0.1238,-0.1372 -0.2326,-0.2254 -0.1665,-0.1349 -0.0156,-0.0251 -0.2414,-0.1472 -1.2797,0.5924 -1.638,1.0924 -2.6297,1.926 -0.2586,0.2174 -0.4125,0.2875 -0.6506,0.4703 -1.9367,1.4863 -1.9955,1.4476 -0.1091,3.5316 0.6968,0.7697 0.7513,0.9933 1.3335,1.6934l1.0614 1.3c0.3635,0.488 1.2522,1.6923 1.6681,1.9196l0.9174 -0.3261 2.0846 -1.6124c0.4946,-0.4197 2.3255,-2.0065 2.4783,-2.3279 -0.438,-0.5772 -0.8443,-1.14 -1.4387,-1.5901 -0.8107,0.5649 -2.1883,1.4479 -2.8104,2.0443 -0.1955,0.1874 -0.0886,0.1336 -0.4453,0.1691l-0.4435 -0.7356c0.587,-0.5615 2.0586,-1.8197 2.3474,-2.3576l-1.2303 -1.2637 -0.8002 0.437c-0.6189,0.3595 -1.4008,1.3337 -1.9752,1.3453z"/>
    <path id="_394675960" class="fil0" d="M17.3591 71.9686c0.5696,-3.354 0.1165,-2.2844 -0.8391,-2.5574 -0.1617,-0.0462 -0.2005,-0.1541 -0.3604,-0.248 -0.4044,-0.2376 -1.2248,-0.4412 -1.2721,-1.7802 -0.0402,-1.1373 0.139,-1.1301 0.7552,-1.7267 0.2285,-0.2212 0.3674,-0.3722 0.8212,-0.4179 0.2768,-0.0279 0.9613,-0.0264 1.2208,0.0415 0.9315,0.2436 1.4312,1.6734 2.0405,1.7202 0.6107,0.0469 1.6919,-1.1881 2.075,-1.6416l-1.1848 -1.3372c-0.4499,-0.454 -0.7975,-0.7964 -1.3185,-1.1437 -1.0303,-0.6867 -2.5598,-0.8477 -4.0327,-0.5777 -0.5774,0.1058 -1.1537,0.4896 -1.5427,0.8762 -0.8931,0.8876 -1.7419,1.7028 -1.7885,3.1923 -0.0257,0.8221 -0.0338,1.6562 0.0909,2.4704l0.3276 0.5279c0.8447,1.5049 1.0522,1.2846 1.6584,1.7198l0.7536 0.5084c0.9567,0.3219 0.4711,0.2594 0.6971,0.349l1.8985 0.0247z"/>
    <path id="_394691440" class="fil0" d="M43.3025 71.9817c0.6002,-0.0196 0.6825,-0.2996 1.2429,-0.3389 1.0164,-0.0714 0.2929,0.1679 1.5459,-0.174 0.1699,-0.0463 0.846,0.011 0.685,-0.8471 -0.1029,-0.5489 -0.0336,-0.1044 -0.1229,-0.2846 -0.0854,-0.1724 -0.177,-0.3206 -0.1981,-0.5118 -0.0164,-0.1482 0.0012,-0.2877 -0.0189,-0.4318 -0.0492,-0.3541 -0.0751,-0.2633 -0.1027,-0.3296 -1.0443,-0.3402 -1.7727,-0.0195 -2.3259,0.2019 -0.0667,0.0267 -0.2989,0.088 -0.3348,0.0955 -0.7853,0.1641 -0.5743,-0.138 -1.0898,0.1751 -0.0204,0.0124 -0.0479,0.0361 -0.071,0.0472 -0.2248,0.1075 -1.6604,0.1743 -1.8838,0.2167 -0.0303,0.0058 -0.3128,0.0588 -0.3698,0.0731 -0.0229,0.0058 -0.0636,0.0193 -0.0815,0.0242 -0.2788,0.0773 -0.3597,0.4563 -0.3677,0.7359 -0.0056,0.1974 0.0134,0.4651 0.0139,0.6752 0.001,0.4488 0,0.8978 0,1.3466l0.3368 0.2251 0.2527 1.5832c0.0829,0.4042 0.0841,1.0983 0.0841,1.672 0.0616,0.554 0.2994,1.8013 0.5513,2.2353l0.3463 0.6197c1.3308,-0.0539 1.0605,0.0565 2.1272,-0.253 0.3332,-0.0967 0.2219,-0.0306 0.4946,-0.2438l-0.201 -1.5682c-0.1362,-1.465 -0.642,-0.9372 -0.2086,-1.2702 0.8278,-0.6361 1.4761,-0.5064 2.0331,-0.6541 0.3658,-0.139 0.0552,-0.0619 0.4798,-0.1661 0.1293,-0.0317 0.1525,-0.0262 0.2902,-0.0695 0.2453,-0.0771 0.2918,-0.4024 0.2462,-0.6348 -0.1061,-0.5403 -0.1082,0.2622 -0.3915,-1.5234l-1.2234 -0.0366c-0.1161,0.0267 -0.9121,0.4223 -1.7381,0.4223l-0.0005 -1.0115z"/>
    <path id="_394691320" class="fil0" d="M34.4339 73.5546c-0.7968,-1.5364 0.1838,-1.0762 3.0327,-1.1169 0.5159,-0.0074 0.4179,-0.0138 0.6715,-0.1192 0.1668,-0.512 0.1461,-1.146 0.1208,-1.6883l-0.077 -0.4507c-0.0051,-0.0612 -0.0292,-0.0701 -0.0438,-0.1052 -0.4466,-0.1443 -0.2338,-0.1022 -0.6774,-0.115 -1.008,-0.0289 -0.8634,-0.2163 -1.322,-0.3187 -0.3176,-0.0708 -2.9979,-0.0021 -3.0521,-0.0154 -0.0008,-0.0002 -1.2682,-0.6349 -1.4273,0.1003 -0.1607,0.7427 0.1891,0.6627 -0.1682,1.0048 -0.0126,0.0121 -0.0523,0.0348 -0.0636,0.044l-0.1366 0.0858c0.0061,1.4724 0.0891,0.85 -0.1807,1.8963 -0.0388,0.1501 -0.1294,1.5597 -0.1401,1.8061 -0.0397,0.918 -0.197,0.9895 -0.3235,1.8011 -0.0512,0.3287 -0.0285,0.6714 -0.0309,1.0063 -0.0048,0.6636 -0.0978,1.3122 1.4643,1.3483 0.5497,0.0127 0.4623,0.1118 1.5674,0.1118 -0.0002,-0.4402 -0.0772,-2.6657 0.0993,-2.9633 0.1974,-0.3328 0.6581,-0.1687 0.9403,-0.0476 0.3607,0.1548 1.9736,0.092 2.4407,0.092l0 -2.3565 -2.6938 0z"/>
    <path id="_394690816" class="fil0" d="M46.0179 10.7963c1.2228,0.7564 0.3876,0.2247 1.2707,0.524l1.4001 0.4861c0.2442,-0.6716 0.3667,-0.6369 0.419,-1.0057l1.478 -4.7318c0.1182,-0.4148 0.1499,-0.2811 0.2373,-0.5695 0.083,-0.2739 0.0228,-0.4014 0.1221,-0.6663 0.1472,-0.3926 0.0887,0.0091 0.2411,-0.5448l0.5227 -1.7998c-0.6091,-0.6376 -1.8885,-0.7422 -2.7925,-0.9639 -0.2931,0.5851 -0.4648,1.2277 -0.6454,1.8622 -0.1169,0.4106 -0.1047,0.1086 -0.3058,0.8129l-0.8655 2.9973c-0.2429,0.4589 -0.2827,0.6058 -0.463,1.0885 -0.191,0.5114 -0.6337,1.9588 -0.6188,2.5108z"/>
    <path id="_394690936" class="fil0" d="M1.0903 41.1405c-0.209,0.1717 -1.7868,0.6603 -0.7265,1.5945 0.7056,0.6218 1.2781,0.0039 2.0999,0.7312 0.3544,0.6077 -0.1603,2.2005 1.4333,1.9711l0.5589 -0.9549c0.4779,-0.884 -0.2396,-1.0546 1.0564,-1.394 1.0108,-0.2647 0.4751,0.2654 1.3433,-0.5812l0.0067 -0.7746 -1.0269 -0.4884c-0.8307,-0.2633 -0.9657,0.3183 -1.2332,-0.695 -0.2768,-1.0486 -0.2568,-0.0781 -0.3328,-1.4005l-0.9337 -0.429c-0.6304,0.7595 -0.8422,0.813 -0.862,1.9937l-1.3834 0.4271z"/>
    <path id="_394691248" class="fil0" d="M72.4926 45.4633c0.7779,0.0515 0.8723,-0.1275 1.113,-0.6614 0.4278,-0.9488 0.1175,-1.1036 0.3377,-1.3515 0.1709,-0.1924 1.5544,-0.1021 2.328,-0.9946l-0.8725 -1.2213c-0.2333,-0.1796 -1.165,0.0469 -1.5345,-0.4698l-0.5858 -1.9714 -0.7076 -0.0798 -0.6472 1.1493c-0.6172,1.5812 0.5073,0.7997 -2.4925,2.3712 0.0745,0.897 1.2366,0.964 2.1378,1.0291l0.9236 2.2002z"/>
    <path id="_394690672" class="fil0" d="M44.987 43.7055c3.1411,-0.0099 3.1034,-4.3026 0.3412,-4.3916 -1.3653,-0.044 -2.2957,0.5811 -2.3346,2.0163 -0.009,0.3305 0.0205,0.6784 0.1068,0.9005 0.2037,0.524 0.5712,0.8589 1.0259,1.1903 0.3349,0.2441 0.3606,0.2861 0.8607,0.2845z"/>
    <path id="_394691152" class="fil0" d="M28.9624 42.0068c0.0763,0.268 0.5653,0.9075 0.9201,1.1841 1.1772,0.9176 1.9062,0.4561 2.7806,-0.2215 0.5315,-0.412 0.6979,-1.1328 0.5668,-1.9755 -0.3491,-2.2444 -3.3632,-2.0002 -3.9529,-0.6496 -0.106,0.2429 -0.0126,0.1401 -0.1591,0.3936 -0.1774,0.3069 -0.3248,0.6743 -0.1555,1.2689z"/>
    <path id="_394690576" class="fil0" d="M65.6656 57.4997c0.0458,0.5217 0.2375,0.3658 0.7574,0.5603 0.4224,0.1581 0.6549,0.1346 0.9335,0.4288 0.813,0.8587 0.6829,1.2534 0.8216,1.8677 1.3641,-1.396 0.2866,-0.7498 1.0132,-1.6643 0.4954,-0.6235 1.5507,-0.4477 1.8413,-1.0802 -0.2142,-0.4015 -0.2238,-0.2414 -0.8091,-0.4652 -0.0262,-0.0101 -0.0574,-0.0238 -0.084,-0.0338 -0.3454,-0.1306 -0.2061,-0.0265 -0.3649,-0.1591l-0.4488 -0.4294c-0.2342,-0.2624 0.0555,-0.2772 -0.4263,-0.372 -0.1706,-0.7746 -0.1046,-1.0172 -0.7847,-1.2344 -0.0835,0.6672 -0.2156,1.7334 -0.949,2.0574 -0.0706,0.0312 -1.1159,0.2821 -1.5002,0.5242z"/>
    <path id="_394690432" class="fil0" d="M8.217 59.0715c0.9536,-0.9353 0.2743,-0.671 1.1808,-0.965l0.6527 -0.2815c0.2561,-0.1477 0.0414,0.0224 0.2094,-0.213l-0.2944 -0.175c-0.5601,-0.2681 0.0655,0.139 -0.3231,-0.1697 -0.4669,-0.3708 -0.1769,-0.0873 -0.6468,-0.2794 -0.266,-0.1088 -0.4804,-0.5407 -0.8454,-0.8354 -0.0757,-0.834 0.0124,-0.9689 -0.5483,-1.1854 -0.172,0.2907 -0.1655,0.2225 -0.2208,0.5598 -0.2556,1.561 -0.7414,1.1398 -1.7616,1.7726l-0.3472 0.3125 0.4715 0.3233c1.4002,0.8033 1.4111,0.3946 1.6941,2.3175l0.6734 -0.2093 0.1057 -0.972z"/>
    <path id="_394690072" class="fil0" d="M40.922 42.5943l-0.6488 -0.048c-0.3936,1.05 -0.1821,0.4192 -0.5355,1.0402l-0.8272 0.0091 -0.2635 -0.4502 0.5088 -1.3812 -1.803 -0.1631 -0.28 0.8547c0.2062,0.2063 0.4173,0.3114 0.6661,0.5614l-0.024 0.4721 -1.1775 0.116c-0.4302,-0.9742 -0.3323,-0.9439 -0.9143,-0.9787l-0.0079 1.0111c2.092,1.4978 0.7894,0.5912 3.1972,0.8203 1.4554,0.1385 2.3374,-0.6367 2.1096,-1.8637z"/>
   </g>
  </g>
 </g>
</svg>
