<?xml version="1.0" encoding="UTF-8"?>
<!DOCTYPE svg PUBLIC "-//W3C//DTD SVG 1.1//EN" "http://www.w3.org/Graphics/SVG/1.1/DTD/svg11.dtd">
<!-- Creator: CorelDRAW -->
<svg xmlns="http://www.w3.org/2000/svg" xml:space="preserve" width="4.4026mm" height="4.4026mm" style="shape-rendering:geometricPrecision; text-rendering:geometricPrecision; image-rendering:optimizeQuality; fill-rule:evenodd; clip-rule:evenodd"
viewBox="0 0 4.4026 4.4026"
 xmlns:xlink="http://www.w3.org/1999/xlink">
 <defs>
  <style type="text/css">
   <![CDATA[
    .fil1 {fill:#030F1D}
    .fil0 {fill:#04050A}
   ]]>
  </style>
 </defs>
 <g id="Capa_x0020_1">
  <metadata id="CorelCorpID_0Corel-Layer"/>
  <g id="_586106840">
   <path id="_586108232" class="fil0" d="M1.6407 3.5114c-0.0241,0.0537 -0.1346,0.0196 -0.0989,-0.0547 0.0267,-0.0555 0.1331,-0.0216 0.0989,0.0547zm1.0812 -0.3517l0.0227 -0.1013c0.0429,-0.0006 0.1042,0.0092 0.1464,0.0164l0.1009 0.0671c-0.0505,0.012 -0.2201,0.0332 -0.27,0.0178zm-0.1393 0.0216c0.0046,-0.0102 0.05,-0.042 0.0628,-0.0583 0.0253,-0.0322 0.0276,-0.0513 0.0414,-0.09 0.0211,0.0664 -0.0416,0.1634 -0.1042,0.1483zm-0.9065 -0.0249l0.0303 -0.0124 0.0338 0.0744c0.0706,-0.0128 0.0728,-0.027 0.1116,-0.0732 0.0466,0.059 0.0186,-0.0027 0.0642,0.1102 0.0015,-0.001 0.0036,-0.0045 0.0043,-0.0032l0.0113 -0.0097c0.063,-0.0454 0.0342,0.0292 0.0988,-0.1124 0.0539,0.0068 0.1633,0.0492 0.3119,0.0667 0.1508,0.0177 0.1564,-0.0299 0.265,0.1172l-0.8998 0.1377c-0.0191,-0.0396 -0.0496,-0.0803 -0.1054,-0.0849l-0.1244 0.0726c-0.0638,-0.0008 -0.266,-0.0674 -0.3297,-0.0912l-0.2934 -0.1313c0.0162,-0.0385 0.0803,-0.0534 0.1242,-0.0689 0.0013,0.0014 0.0033,0.0016 0.0038,0.0042l0.0225 0.0331c0.0188,-0.01 0.0082,-0.0025 0.0328,-0.0268l0.0722 0.0782c0.0566,-0.0541 0.0322,-0.0108 0.0729,-0.0997l0.0452 0.0656c0.0723,-0.024 0.0683,-0.0489 0.0916,-0.1114l0.353 -0.0256c-0.0083,0.0425 -0.0054,0.0506 0.0033,0.0908zm0.0005 -0.1505l-0.3952 0.0127c0.0086,-0.0102 0.0082,-0.0108 0.0278,-0.0172 0.1102,-0.0362 0.32,-0.0871 0.432,-0.1068 0.0317,-0.0056 0.0575,-0.0081 0.0909,-0.008 0.042,0.0001 0.0582,-0.0027 0.0853,0.0139 -0.119,0.0931 -0.1753,-0.0783 -0.2408,0.1054zm0.2492 -0.086c0.0475,-0.0505 0.1218,-0.0854 0.2027,-0.11 0.0671,-0.0205 0.1745,-0.0392 0.247,-0.0256 0.0175,0.0033 0.0156,0.0038 0.0309,0.0125 -0.1492,0.0015 -0.2452,0.016 -0.3788,0.0755 -0.0298,0.0133 -0.0727,0.0393 -0.1018,0.0476zm0.4014 -0.1465c0.008,-0.0173 0.0082,-0.0177 0.0178,-0.03 0.0145,-0.0184 0.0088,-0.0131 0.0279,-0.0219 -0.0096,0.0253 -0.0208,0.0411 -0.0457,0.0519zm0.7504 0.3704c-0.0688,-0.0486 -0.0893,-0.1772 -0.0538,-0.2728l0.175 -0.193c-0.0207,0.0332 -0.1006,0.0921 -0.1399,0.1956 -0.0423,0.1111 -0.0262,0.1717 0.0187,0.2702zm-1.3267 -0.3962c-0.0319,0.0938 -0.1952,0.1709 -0.2967,0.1449l-0.1138 -0.0387c-0.0088,0.113 -0.1231,0.1004 -0.1746,0.0767 -0.0619,-0.0284 -0.0908,-0.0986 -0.1104,-0.1799l0.0481 -0.4597c0.0544,0.022 0.074,0.0958 0.0935,0.1621l0.0397 0.1515c0.0074,0.0285 0.0029,0.0243 0.0174,0.0482 0.0297,-0.2081 0.3376,-0.1994 0.4193,-0.1319l0.098 0.1086c-0.0004,-0.0473 -0.0336,-0.1571 -0.0347,-0.2803 -0.0046,-0.5078 0.378,-0.2776 0.4865,-0.1349 0.2399,0.3157 0.0283,0.6111 -0.3386,0.5681 -0.0653,-0.0077 -0.0844,-0.0219 -0.1337,-0.0347zm-0.4613 -0.2763l0.256 -0.0882c-0.0148,0.0096 -0.0111,0.0074 -0.0336,0.0099 -0.0833,0.0094 -0.1565,0.0285 -0.2224,0.0783zm-0.2278 -0.2115l0.0757 -0.0604 0.0445 0.0781c-0.0001,0 -0.077,-0.0931 -0.1202,-0.0177zm0.668 -0.1684c0.0042,-0.056 0.043,-0.1101 0.0876,-0.1315 0.0644,-0.0308 0.126,0.0075 0.1758,0.0258 -0.0276,0.0085 -0.0135,0.007 -0.0386,0.0001 -0.0902,-0.0249 -0.1887,0.0151 -0.2248,0.1056zm0.8832 -0.8039c-0.004,-0.0746 0.0445,-0.0969 0.054,-0.1528 -0.1108,-0.0667 -0.2111,-0.1594 -0.2542,-0.0362 -0.1316,0.3763 0.088,0.811 0.0849,1.09 -0.0153,-0.029 -0.0168,-0.061 -0.0244,-0.0934 -0.0069,-0.0295 -0.014,-0.0582 -0.0222,-0.0891 -0.0133,-0.0498 -0.0258,-0.1044 -0.0445,-0.1529 -0.0119,-0.0308 -0.0004,-0.0042 -0.0108,-0.0176l0.0102 0.3786c-0.0238,-0.0277 -0.0362,-0.0708 -0.054,-0.1024 -0.0182,-0.0323 -0.0364,-0.0561 -0.0603,-0.0843 -0.2658,-0.314 -0.553,-0.2509 -0.6054,-0.2688l-0.1486 -0.1175 0.0269 0.0892 -0.1532 -0.0652c0.0312,0.0534 0.0698,0.1 0.074,0.1085l-0.1733 0.0156c0.031,0.021 0.0763,0.0196 0.1067,0.0413 -0.0386,0.0343 -0.0981,0.0487 -0.1483,0.0946 -0.1299,0.1191 -0.2456,0.2604 -0.2765,0.446 -0.0446,-0.0584 -0.0941,-0.1171 -0.1354,-0.1774 -0.0129,-0.0189 -0.0271,-0.0443 -0.044,-0.0578 0.0275,0.0875 0.0538,0.1683 0.0616,0.2617 -0.0259,-0.036 -0.0781,-0.2365 -0.0922,-0.2798 -0.0408,-0.1251 -0.1457,-0.41 -0.2677,-0.4618 -0.0517,-0.022 -0.0715,0.0349 -0.0894,0.0751 -0.0162,0.0367 -0.0406,0.097 -0.0405,0.1388 0.0211,0.0129 0.0394,0.0154 0.064,0.023 0.0291,0.0089 0.0426,0.0112 0.0414,0.0426l-0.1207 0.0357 0.0335 0.38c0.0223,0.078 0.0942,0.254 0.1475,0.2898l0.1379 -0.0105c0.0196,0.0541 -0.0362,0.0625 -0.0488,0.1124 0.0938,0.0659 0.1513,0.1235 0.2664,0.144 0.0199,0.0035 0.0388,0.006 0.058,0.0076 0.0334,0.0027 0.0324,-0.0039 0.0487,0.0191 -0.0687,0.0612 -0.1104,0.0563 -0.1009,0.1772 -0.1321,0.0885 -0.0967,0.0632 -0.1916,0.1982 0.07,0.0271 0.0563,-0.0334 0.1258,0.0057 0.1131,0.0637 0.2383,0.1084 0.3634,0.1481 0.0414,0.0131 0.2557,0.0647 0.2689,0.0721l0.1094 0.0858c0.0309,0.0004 0.0602,-0.0129 0.0758,-0.0271 0.0121,-0.011 0.028,-0.0455 0.0414,-0.0522l0.178 -0.016c0.1674,-0.0172 0.3358,-0.0409 0.5016,-0.0725 0.0419,-0.008 0.21,-0.0508 0.247,-0.0498 0.0306,0.0009 0.0402,0.0212 0.0786,0.0188 0.0518,-0.0032 0.0916,-0.0506 0.0696,-0.1048 -0.0272,-0.0671 -0.061,-0.0483 -0.1286,-0.0497l-0.0434 -0.0454c0.0936,0.0225 0.1236,0.0324 0.2205,0.0219 0.0543,-0.0058 0.1821,-0.0306 0.2236,-0.0084l-0.1487 0.0623c0.2064,-0.0126 0.286,-0.0102 0.4897,-0.0042 0.0432,0.0013 0.0972,-0.0059 0.1391,0.0075 0.0197,0.0063 0.0072,0.0036 0.0139,0.0074l-0.1806 0.0235c-0.0517,0.0105 -0.1105,0.0385 -0.1463,0.0446l0.2922 -0.0234c0.0904,-0.0064 0.2144,-0.001 0.2996,-0.0158l-0.0874 -0.0428c0.1013,-0.0379 0.0596,-0.0141 0.1093,-0.0697l0.0619 -0.0009 -0.0604 -0.0467c0.0089,-0.0858 0.0037,-0.0604 0.0739,-0.119 -0.0573,-0.115 -0.0621,-0.0935 -0.0726,-0.2132 -0.0273,-0.0186 -0.0615,-0.0122 -0.0838,0.0097l0.0246 0.0175c0.0072,0.0055 0.0104,0.0097 0.0161,0.0163 0.055,0.0643 0.0378,0.0814 -0.0122,0.1303l0.037 0.09c-0.004,0.0339 -0.028,0.0582 -0.0605,0.0576l0.0061 -0.1476 0.047 -0.0949c-0.0133,-0.0428 -0.0421,-0.0522 -0.0918,-0.0599l0.0195 -0.0158 -0.0783 -0.0553c-0.0231,0.0067 -0.0164,0.0188 -0.0493,0.0187 -0.0191,0 -0.0332,-0.0047 -0.0498,0.0016 -0.0016,0.0006 -0.0087,0.0052 -0.0107,0.0061l-0.3957 -0.3888c-0.1298,-0.018 -0.2182,0.0213 -0.3157,0.0663 -0.1346,0.0621 -0.1664,0.0675 -0.3196,0.0449 0.0296,-0.0291 0.1221,-0.0728 0.1671,-0.1056 0.1283,-0.0936 0.3001,-0.3102 0.2937,-0.4938l-0.1595 -0.1343c0.0193,-0.0615 0.1138,-0.0936 0.1578,-0.1357 -0.0444,-0.1288 -0.0693,-0.2316 -0.1441,-0.3455 -0.0113,-0.0172 -0.0235,-0.0333 -0.0358,-0.0497 -0.0135,-0.018 -0.0217,-0.0289 -0.0414,-0.0394l-0.0776 0.1006 -0.0671 -0.0309z"/>
   <path id="_586107728" class="fil1" d="M2.065 0.17c0.2862,-0.0385 0.6334,0.047 0.8681,0.1329 0.117,0.0429 0.2398,0.1092 0.3394,0.1725 0.1516,0.0962 0.2288,0.1665 0.3531,0.2837 0.3326,0.3135 0.5715,0.8234 0.6013,1.2949 0.0374,0.5939 -0.1455,1.0912 -0.5155,1.5048 -0.765,0.855 -2.1036,0.906 -2.9294,0.0832 -0.0201,-0.02 -0.0435,-0.0413 -0.0626,-0.062 -0.5172,-0.559 -0.7039,-1.392 -0.4078,-2.1152 0.1581,-0.3861 0.3577,-0.6286 0.6545,-0.8744 0.0839,-0.0694 0.1969,-0.1382 0.3076,-0.1981 0.2848,-0.1539 0.479,-0.1803 0.7913,-0.2223zm-1.6284 0.7192l-0.1348 0.2115c-0.0421,0.0665 -0.085,0.1507 -0.1161,0.2256 -0.2299,0.5538 -0.256,1.1466 -0.0241,1.6955 0.1293,0.3062 0.3119,0.5833 0.5606,0.8047 0.2339,0.2083 0.4909,0.3765 0.8714,0.4883 0.5828,0.1714 1.1532,0.0964 1.6797,-0.1899 0.1669,-0.0908 0.2204,-0.1445 0.3521,-0.2451 0.0947,-0.0725 0.2104,-0.2006 0.2927,-0.2981 0.256,-0.303 0.405,-0.6683 0.4655,-1.0717 0.035,-0.2329 0.0145,-0.4055 -0.004,-0.6335 -0.0136,-0.0526 -0.0208,-0.1162 -0.0337,-0.1704 -0.0628,-0.2649 -0.1745,-0.5071 -0.3214,-0.7288 -0.1611,-0.243 -0.3884,-0.4707 -0.6325,-0.6279 -0.1575,-0.1013 -0.3732,-0.2119 -0.5737,-0.265 -0.7308,-0.1933 -1.3811,-0.0668 -1.9697,0.3819 -0.0512,0.039 -0.1775,0.1528 -0.2208,0.1993l-0.1912 0.2236z"/>
   <path id="_586107704" class="fil1" d="M2.0038 0.7986c0.001,0.0032 0.016,-0.0054 -0.0074,0.0206 -0.0058,0.0064 -0.0167,0.0164 -0.024,0.0223 -0.0485,0.0392 -0.2062,0.1614 -0.2097,0.2208 -0.0039,0.0667 0.0505,0.0683 0.1084,0.0754 0.064,0.0079 0.2712,0.0428 0.3122,0.0001 0.0295,-0.0306 0.0299,-0.105 -0.0243,-0.1127l-0.1661 -0.0128c0.0139,-0.0445 0.1409,-0.1356 0.1743,-0.166 0.0223,-0.0203 0.0743,-0.0539 0.0671,-0.1054 -0.0068,-0.0485 -0.0564,-0.0581 -0.1066,-0.0673 -0.065,-0.0118 -0.2628,-0.0462 -0.3021,0.0017 -0.0253,0.0308 -0.0326,0.0963 0.0226,0.1087 0.0493,0.0111 0.1121,-0.0044 0.1556,0.0146z"/>
   <path id="_586107560" class="fil1" d="M1.1845 1.0123l0.1799 -0.0272c0.0006,0.0301 -0.0415,0.0654 -0.0682,0.0995 -0.0268,0.0343 -0.0499,0.0618 -0.074,0.0967 -0.0204,0.0297 -0.0571,0.0756 -0.0325,0.1227 0.0251,0.0481 0.0937,0.0288 0.1438,0.0234 0.0709,-0.0075 0.2468,-0.0202 0.2751,-0.0682 0.0261,-0.0442 -0.0012,-0.1027 -0.0585,-0.1008l-0.1619 0.0257c0.0083,-0.035 0.0939,-0.1387 0.1215,-0.1749 0.0143,-0.0186 0.049,-0.0636 0.0532,-0.092 0.0216,-0.1452 -0.2341,-0.0739 -0.3039,-0.0539 -0.1087,0.0313 -0.1495,0.0525 -0.0745,0.149z"/>
   <path id="_586107488" class="fil1" d="M1.7367 2.7101c0.0658,-0.2377 -0.4599,-0.2633 -0.468,-0.0263 -0.0021,0.0598 0.0439,0.1143 0.0695,0.1395 0.1028,0.1015 0.3489,0.0662 0.3985,-0.1132z"/>
   <path id="_586107392" class="fil1" d="M0.7916 1.4388l0.133 0.0438 -0.0967 0.2035c0.0325,0.0476 0.0954,0.015 0.1515,0.0004 0.1007,-0.0263 0.0713,-0.0037 0.1226,-0.0869l-0.0196 -0.0226 -0.1258 0.0243c0.0114,-0.0725 0.2399,-0.2892 -0.0518,-0.2127 -0.0479,0.0125 -0.0887,0.0218 -0.1132,0.0502z"/>
   <path id="_586107224" class="fil1" d="M1.8276 2.6285c0.0976,-0.0038 0.184,-0.0321 0.2467,-0.0766l0.1125 -0.204c-0.0342,0.0157 -0.054,0.1417 -0.2596,0.2145 -0.0484,0.0171 -0.0879,0.014 -0.0996,0.0661z"/>
   <path id="_586107176" class="fil1" d="M1.0937 2.6806c-0.0152,-0.0158 -0.0124,-0.017 -0.0312,-0.0302 0.0109,0.1022 0.0941,0.1284 0.1992,0.124l-0.0202 -0.0434c-0.0812,-0.0159 -0.1096,-0.0106 -0.1478,-0.0504z"/>
  </g>
 </g>
</svg>
