<?xml version="1.0" encoding="UTF-8"?>
<!DOCTYPE svg PUBLIC "-//W3C//DTD SVG 1.1//EN" "http://www.w3.org/Graphics/SVG/1.1/DTD/svg11.dtd">
<!-- Creator: CorelDRAW -->
<svg xmlns="http://www.w3.org/2000/svg" xml:space="preserve" width="4.4026mm" height="4.4026mm" style="shape-rendering:geometricPrecision; text-rendering:geometricPrecision; image-rendering:optimizeQuality; fill-rule:evenodd; clip-rule:evenodd"
viewBox="0 0 4.4026 4.4026"
 xmlns:xlink="http://www.w3.org/1999/xlink">
 <defs>
  <style type="text/css">
   <![CDATA[
    .fil3 {fill:#040308}
    .fil2 {fill:#04050A}
    .fil0 {fill:#687688}
    .fil1 {fill:#E5F3FA}
   ]]>
  </style>
 </defs>
 <g id="Capa_x0020_1">
  <metadata id="CorelCorpID_0Corel-Layer"/>
  <g id="_393457736">
   <g>
    <path id="_586106264" class="fil0" d="M2.05 4.1494c0.0355,0.0097 0.0183,0.027 0.0404,0.0317 0.0252,0.0055 0.0061,0.0037 0.0144,-0.002 -0.0031,-0.0114 0.0064,-0.0025 -0.0071,-0.013 -0.0287,-0.0104 -0.0034,-0.0011 -0.0223,-0.0149 -0.0069,-0.0061 -0.0083,-0.0088 -0.0126,-0.0127 -0.009,-0.0082 0.0002,-0.0011 -0.0119,-0.0088l-0.0009 0.0197z"/>
    <path id="_586106720" class="fil0" d="M2.6074 2.2937c0.0106,0.0123 0.0062,0.0095 0.0238,0.0151 -0.0044,-0.0217 -0.0066,-0.0184 -0.0203,-0.027 0.0078,0.0124 0.0086,0.0071 -0.0035,0.0119z"/>
   </g>
   <g>
    <path id="_586107008" class="fil1" d="M2.1889 2.933l-0.0048 0.0336 0.0473 -0.0092 -0.0235 -0.0141c0.0093,-0.0023 0.0128,-0.0028 0.0192,-0.0097l0.0329 0.0052 -0.0156 -0.0121 0.0089 -0.0097 -0.0197 -0.0075 0.038 -0.0194c0.0035,-0.0278 0.0002,-0.0179 0.0198,-0.0315l-0.0291 -0.0127 -0.0112 0.0044c-0.0017,0.0001 -0.0074,-0.0002 -0.0091,-0.0005 -0.0131,-0.0021 -0.0094,-0.0024 -0.0171,-0.008 -0.0118,0.008 -0.0358,0.09 -0.036,0.0912z"/>
    <path id="_586105856" class="fil1" d="M2.0714 0.274c0.0015,0.0003 0.0038,-0.0006 0.0045,0.0009l0.0206 -0.0009c-0.0006,0.0009 -0.0016,0.0009 -0.0018,0.0025l-0.004 0.0248 0.0491 0.0094 0.0109 -0.0239 0.0431 0.003c-0.0033,-0.0179 -0.0023,-0.0331 -0.0511,-0.0431 -0.0391,-0.008 -0.0521,0.0062 -0.0713,0.0273z"/>
    <path id="_586106024" class="fil1" d="M1.8425 1.5413l0.0134 0.0208 -0.0278 0.0055c0.013,0.0068 0.0129,0.0104 0.0169,0.0142l0.0053 -0.0007c0.0043,-0.002 0.0015,-0.0111 0.0277,-0.0005l-0.0168 -0.0194c-0.0127,-0.0102 -0.0137,-0.007 -0.0187,-0.0199z"/>
   </g>
   <path id="_586105496" class="fil2" d="M0.0878 0.9563c0.0123,-0.0113 0.0071,0.0128 0.0111,-0.0271l0.0166 -0.4203c0.0002,-0.0171 -0.0019,-0.0249 0.0033,-0.0405 0.0004,-0.0009 0.0014,-0.0023 0.0017,-0.0031l0.0039 -0.0151c0.0249,0.0149 0.0257,0.0105 0.0657,0.0046 -0.0065,0.0833 0.0011,0.2092 0.0011,0.2995 0,0.5076 -0.0077,1.0118 -0.0054,1.5229l0.0073 0.5897c0.002,0.0137 -0.0001,0.0081 0.0065,0.0148 0.0047,-0.0641 -0.0021,-0.4573 -0.0029,-0.5554 -0.0013,-0.1859 0.0007,-0.3714 -0.0012,-0.5567 -0.0038,-0.3713 0.0057,-0.7382 0.0049,-1.1081 -0.0005,-0.2084 -0.0147,-0.3361 0.1087,-0.4496 0.1181,-0.1086 0.2668,-0.0912 0.4607,-0.0948 0.1459,-0.0027 0.4152,-0.0017 0.5477,-0.0105 0.1804,-0.0119 0.375,0.0014 0.5509,-0.0096 0.0878,-0.0054 0.1879,-0.0025 0.2768,-0.0034 0.4561,-0.0045 0.9161,-0.0161 1.3755,-0.0153 0.2901,0.0006 0.4998,-0.0507 0.6458,0.19 0.0397,0.0655 0.0356,0.1506 0.036,0.2404 0.0022,0.4591 -0.0007,0.9317 -0.0038,1.3919 -0.0006,0.0853 -0.0071,0.2018 0.0002,0.2835 0.0121,-0.007 0.0065,0.0117 0.0071,-0.0543l0.0012 -0.1747c0.0003,-0.0856 0.0004,-0.5752 0.0075,-0.6234 0.0013,-0.0084 -0.0007,0.005 0.0013,-0.0089l0.009 -0.0715 0.0488 0.0053 0.0268 0.0327 0.0038 0.0482c0.008,0.1693 -0.0055,0.8882 0.0046,0.9436 0.0102,-0.0062 0.0052,-0.0136 0.0053,-0.0476l0.0017 -0.8842c-0.0008,-0.3123 0.0047,-0.6272 0,-0.939 -0.0022,-0.1472 -0.0649,-0.2515 -0.1456,-0.3217 -0.1014,-0.0881 -0.1877,-0.1138 -0.3604,-0.1136 -0.9256,0.001 -1.8638,0.0168 -2.7892,0.0329 -0.1517,0.0026 -0.3029,0.0084 -0.4585,0.0108 -0.1481,0.0023 -0.2548,0.0399 -0.3412,0.127 -0.0842,0.0848 -0.1274,0.1877 -0.131,0.3357 -0.0036,0.1496 -0.0088,0.3267 -0.0023,0.4749z"/>
   <path id="_586105832" class="fil2" d="M3.0707 0.9019l-0.0008 -0.0157 0.2084 -0.2815c0.0177,-0.0241 0.0341,-0.0445 0.0514,-0.0688 0.0226,-0.0316 0.037,-0.0462 0.0368,-0.0927 -0.0003,-0.0452 -0.0125,-0.0731 -0.053,-0.0765 -0.0408,-0.0035 -0.0808,-0.0009 -0.1144,-0.0002l-0.3663 0.0028c-0.0483,0.0007 -0.069,0.0024 -0.0862,0.0364 -0.0143,0.0283 -0.015,0.0792 -0.0044,0.1119 0.0124,0.0381 0.0396,0.0405 0.0853,0.0408l0.2506 0.0003c-0.003,0.0183 -0.0614,0.0924 -0.0766,0.1129 -0.0137,0.0186 -0.0269,0.0376 -0.0419,0.0566 -0.0129,0.0163 -0.0321,0.043 -0.0397,0.0624 -0.0242,0.0206 -0.0855,0.1138 -0.1082,0.1443 -0.0211,0.0284 -0.0386,0.0481 -0.0349,0.098 0.0033,0.0426 0.0233,0.0648 0.0669,0.0674 0.1662,0.01 0.3528,-0.0124 0.5188,-0.0023 0.0604,0.0007 0.1013,-0.0095 0.1053,-0.0705 0.0108,-0.162 -0.0252,-0.1288 -0.22,-0.1289 -0.0579,0 -0.1167,-0.0005 -0.1744,0.0006l-0.0027 0.0027zm-2.6284 0.7344c-0.0587,0.0244 -0.0702,0.2907 -0.0632,0.3552l0.0859 0.0283c0.0271,0.008 0.0175,0.0043 0.028,0.0123l-0.1096 0.0413 0.0842 0.3089c0.0231,0.054 0.0394,0.0839 0.0669,0.1304 0.0331,0.0562 0.0399,0.0657 0.0934,0.102l0.0646 -0.0378 0.0046 0.1384c0.0278,0.0161 0.1061,0.0446 0.1402,0.0529l-0.0364 -0.064c-0.139,-0.2483 -0.1046,-0.5876 -0.283,-0.9559 -0.0131,-0.027 -0.0333,-0.0677 -0.051,-0.0908 -0.0101,-0.0132 -0.0087,-0.014 -0.0246,-0.0212zm0.673 1.1157c-0.0074,0.0746 0.0172,0.1357 0.053,0.1746 0.0526,0.057 0.087,0.0431 0.1625,0.0631l-0.0124 -0.0475c-0.1005,-0.0451 -0.1643,-0.0723 -0.2031,-0.1902zm1.1025 0.3112c0.1978,0.0879 0.4039,0.0043 0.4112,-0.1793l-0.1549 0.1205c-0.0584,0.0222 -0.1776,0.05 -0.2422,0.026l-0.0141 0.0328zm-0.7532 -0.1365c0.0067,0.0725 0.0508,0.1375 0.0824,0.1834 0.0953,0.1387 0.2537,0.1461 0.3602,0.048 0.1048,-0.0965 0.1988,-0.2208 0.0681,-0.3343 -0.2108,-0.1834 -0.526,-0.0643 -0.5107,0.1029zm-0.1654 0.4935c0.0114,0.0178 0.0199,0.0261 0.039,0.0381 -0.0069,-0.0129 -0.0141,-0.0296 -0.0242,-0.0385 -0.0074,-0.0066 -0.0028,-0.0023 -0.0124,-0.0077 -0.0062,-0.0212 -0.0188,-0.0216 -0.0304,-0.0432l0.3164 0.0415c-0.1695,-0.0632 -0.1659,-0.0785 -0.3267,-0.085 -0.0433,-0.0017 -0.0784,-0.0356 -0.0849,-0.0474l0.1068 0.015c0.198,0.0196 0.3033,-0.0127 0.5613,0.0497 0.2174,0.0526 0.0817,0.0666 0.3992,0.0853 0.216,0.0127 0.4208,-0.0036 0.5881,-0.1397 0.0121,-0.0181 0.0097,-0.0148 0.0316,-0.027 -0.0095,0.0193 -0.0102,0.0248 -0.0241,0.0361 -0.0112,0.0088 -0.0239,0.0241 -0.0368,0.0352 -0.1526,0.1321 -0.3225,0.1226 -0.3568,0.1399l0.0809 0.0536 -0.0842 -0.0292c-0.1171,-0.0372 -0.2108,-0.0307 -0.2845,-0.0444l-0.0631 -0.0026 0.0567 0.0902c-0.0198,-0.0126 -0.0296,-0.0274 -0.0434,-0.0409l-0.0335 -0.0319c-0.0105,-0.011 -0.0051,-0.0055 -0.0105,-0.0141 -0.0147,-0.0031 -0.0302,-0.0155 -0.0449,-0.0236 -0.1018,-0.0561 -0.2842,-0.0864 -0.3146,0.0656l-0.1078 0.0235c-0.0202,0.0237 -0.0329,0.0685 -0.0191,0.1071 0.016,0.0446 -0.0211,0.0611 0.0067,0.1078 0.0138,0.023 0.0459,0.0524 0.0826,0.0468 -0.0128,-0.0526 -0.0459,-0.1411 0.0203,-0.1676 0.0092,0.0347 0.0563,0.2347 0.0704,0.2586 0.0178,0.0178 0.038,0.0294 0.0684,0.0241l0.0009 -0.09 -0.0466 -0.0545c-0.0124,-0.0217 -0.0045,-0.0656 0.0111,-0.0828 0.0911,0.1411 0.0744,0.1239 0.1886,0.2444l-0.0126 -0.1071 0.0461 -0.0297 0.0534 0.0752c0.027,0.0137 0.0673,0.0239 0.1003,0.0257 0.234,0.0129 0.3116,-0.1751 0.6101,-0.0352l-0.0825 -0.0633c-0.0204,-0.1927 -0.0093,-0.0803 -0.0528,-0.1975l0.0614 0.0968 0.1953 0.0515c0.0448,0.0207 0.11,0.0613 0.1469,0.0933 0.0408,0.0355 0.0853,0.0811 0.1208,0.1195 0.0349,0.0377 0.0838,0.0843 0.1067,0.1284l-0.0774 -0.1446c0.0915,-0.0844 0.1665,-0.159 0.2817,-0.2183 0.0584,-0.0301 0.1235,-0.0484 0.1917,-0.0598 0.0583,-0.0097 0.1191,-0.0136 0.1796,-0.0111 0.0066,0.0003 0.0431,0.008 0.0457,0.0014 0.0005,-0.0013 0.0022,-0.001 0.0034,-0.0015l-0.153 -0.0332c-0.0652,-0.0027 -0.111,0.0152 -0.1611,0.0145l-0.2546 -0.4556c-0.0436,-0.0339 -0.1765,-0.1308 -0.2404,-0.1059 -0.0721,0.0282 -0.1834,0.1013 -0.2429,0.1177 0.1717,-0.1276 0.1346,-0.1052 0.3248,-0.199 0.1598,-0.0787 0.3376,-0.1915 0.4562,-0.3244 0.1217,-0.1364 0.2429,-0.3021 0.2863,-0.4879 -0.0464,-0.0213 -0.1009,-0.0444 -0.1438,-0.0682l0.1529 -0.0179c0.0239,-0.0453 0.0198,-0.1068 0.0216,-0.1563l-0.1879 0.0519 0.1855 -0.1308 -0.0714 -0.3116c-0.0166,-0.0308 -0.0515,-0.0925 -0.0849,-0.1053 -0.0477,-0.0183 -0.0916,0.0257 -0.1216,0.0566 -0.4382,0.4488 -0.2351,0.914 -0.5113,1.3829 -0.0313,0.0533 -0.1271,0.1663 -0.1872,0.1881l0.0818 -0.0972c0.207,-0.2573 0.2,-0.4783 0.2595,-0.7876 0.009,-0.0469 0.0228,-0.1072 0.0267,-0.1549 -0.1107,0.1102 -0.197,0.2282 -0.2893,0.3553 -0.0394,0.0543 -0.0895,0.1366 -0.115,0.2063 -0.0177,0.0486 -0.018,0.0811 -0.019,0.14 -0.0004,0.0258 -0.0003,0.0546 -0.0021,0.08 -0.0008,0.0116 -0.0016,0.0227 -0.0021,0.0346l-0.0071 0.0341 -0.051 -0.3427c-0.0282,-0.088 -0.0835,-0.2011 -0.1312,-0.2619 -0.0591,-0.0753 -0.119,-0.1394 -0.1963,-0.1967 -0.0939,-0.0698 -0.1312,-0.0852 -0.2305,-0.1345 -0.0342,-0.017 -0.0421,-0.1293 -0.1789,-0.2252 -0.0285,-0.02 -0.068,-0.0492 -0.1047,-0.0508 0.0519,0.0575 0.1601,0.1564 0.1767,0.2272l-0.1017 -0.0709c-0.0195,-0.0131 -0.0344,-0.022 -0.0535,-0.0331 -0.0729,-0.0424 -0.2637,-0.1058 -0.3442,-0.0589l0.034 0.0187c0.0421,0.0172 0.2358,0.0478 0.2763,0.1058l-0.1044 -0.0257c-0.0907,-0.0169 -0.2015,0.0028 -0.283,0.044 -0.0167,0.0085 -0.0301,0.0149 -0.0394,0.0276l0.3521 -0.0176c-0.1486,0.0199 -0.2096,0.0398 -0.3468,0.1035 -0.0742,0.0344 -0.236,0.1386 -0.2627,0.1858l0.0167 0.1355 -0.0482 -0.1075 -0.0706 0.065c-0.0615,0.0686 -0.1021,0.2533 -0.1205,0.2779 -0.1424,-0.233 -0.2478,-0.3147 -0.3992,-0.5117 -0.0067,-0.0087 -0.0087,-0.0123 -0.0137,-0.0192l-0.0106 -0.0129c-0.0005,-0.002 -0.0022,-0.002 -0.0033,-0.003 0.0394,0.2389 0.075,0.5772 0.21,0.7752 0.0185,0.0271 0.0709,0.0451 0.0991,0.064 0.0275,0.0184 0.0679,0.0494 0.0746,0.0857 -0.0312,-0.0258 -0.0601,-0.0499 -0.0937,-0.0718 -0.0324,-0.0211 -0.0659,-0.036 -0.1108,-0.0476 -0.1825,-0.0476 -0.3294,0.0421 -0.3905,0.2168 -0.038,0.1087 -0.0123,0.1701 0.0346,0.2452 -0.0462,0.0232 -0.1169,0.0493 -0.146,0.0925 -0.0138,0.0088 -0.0179,0.0111 -0.0256,0.0258 0.0363,-0.0068 0.024,-0.0095 0.029,-0.0151 0.0483,-0.019 0.0833,-0.036 0.1413,-0.0523 0.0863,-0.0243 0.1092,0.0308 0.165,-0.0098l-0.0023 -0.0572c-0.0538,0.0015 -0.1694,0.0262 -0.1665,-0.0638l0.1311 0.0494 -0.0086 -0.1161c0.0827,0.1462 0.0535,0.1063 0.1587,0.2335l0.0059 -0.0923 0.017 -0.0109 -0.0097 -0.0461c0.0126,0.0258 0.0266,0.0291 0.0486,0.0461l0.0528 0.1202c0.0339,-0.1405 0.0125,-0.0983 0.0618,-0.1511 0.0507,-0.0543 0.0312,-0.1065 0.0272,-0.1427 0.0298,0.16 0.014,0.0833 -0.0257,0.1739 0.0579,-0.0054 0.1505,0.0025 0.1769,-0.0651 0.0245,-0.0629 -0.0584,-0.1149 -0.0804,-0.1416l0.1186 0.119c-0.0035,0.0675 -0.0699,0.0902 -0.1322,0.1026 0.0182,0.0167 0.0535,0.0285 0.0766,0.04 0.0237,0.0118 0.0515,0.0286 0.0729,0.0419 0.0348,0.0213 0.12,0.0881 0.13,0.0907zm0.1323 -0.4717c-0.0044,-0.0306 -0.0001,-0.0409 0.0027,-0.0664 0.0353,-0.3233 0.657,-0.2857 0.6425,0.0665 -0.0049,0.1186 -0.102,0.2229 -0.1956,0.2653 -0.178,0.0804 -0.4156,-0.0284 -0.4496,-0.2654zm-0.2087 -0.5827c0.0751,0.0594 0.1007,0.321 0.1168,0.4401 0.0113,0.0829 0.0664,0.2968 -0.0047,0.3476 -0.0292,0.0208 -0.0772,0.0232 -0.1118,0.0083 -0.0533,-0.023 -0.0993,-0.1021 -0.125,-0.1544 -0.0379,-0.0773 -0.0391,-0.1487 -0.0304,-0.2429 0.009,-0.0973 0.0573,-0.4047 0.1551,-0.3987zm0.9661 0.5672c0.0002,-0.0012 0.0242,-0.0832 0.036,-0.0912 0.0114,-0.0352 0.0665,-0.1372 0.089,-0.1667 0.0122,-0.0161 0.016,-0.0334 0.033,-0.0542 0.0475,-0.0575 0.1094,-0.1346 0.1823,-0.1617 0.1857,-0.0689 0.2168,0.3174 0.1932,0.4661 -0.0699,0.4404 -0.4841,0.4373 -0.5664,0.2908 -0.0243,-0.0432 -0.0215,-0.0936 -0.0105,-0.1464 0.0052,-0.0251 0.012,-0.045 0.0179,-0.0693 0.0078,-0.0322 0.0084,-0.0527 0.0255,-0.0674zm0.422 -0.6512c0.0137,0.0086 0.0159,0.0053 0.0203,0.027 -0.0176,-0.0056 -0.0132,-0.0028 -0.0238,-0.0151 -0.0822,-0.0323 -0.1118,-0.0023 -0.193,0.0424 0.0261,-0.0795 0.1596,-0.1118 0.1965,-0.0543zm-0.8955 -0.2623c0.0747,-0.0541 0.2185,-0.0684 0.2508,-0.0312l-0.1375 0.0053c-0.0472,0.0059 -0.075,0.0184 -0.1133,0.0259zm0.7317 -0.9946c-0.0078,0.026 -0.1537,0.2116 -0.174,0.2393 -0.0228,0.0309 -0.0713,0.0804 -0.0649,0.1326 0.0088,0.073 0.0835,0.0521 0.1554,0.0527 0.0671,0.0005 0.1349,0.0006 0.2019,-0.0005 0.0577,-0.0009 0.1528,0.0162 0.1662,-0.0413 0.0061,-0.0262 0.0051,-0.0724 -0.0052,-0.0938 -0.0131,-0.0274 -0.0432,-0.0237 -0.0791,-0.0236l-0.2106 0.0021c0.0287,-0.0904 0.2309,-0.2591 0.2295,-0.3526 -0.0013,-0.0822 -0.0554,-0.0648 -0.1281,-0.0649l-0.284 0.0021c-0.0325,0.0009 -0.0539,0.003 -0.0668,0.0287 -0.0046,0.0093 -0.0398,0.1194 0.0614,0.1195 0.0638,0 0.1356,-0.0037 0.1983,-0.0003z"/>
   <path id="_586105808" class="fil3" d="M0.0878 0.9563c0.0062,0.1088 -0.0007,0.4735 -0.0017,0.607 -0.0047,0.6155 0.0073,1.2259 0.0081,1.8383 0.0002,0.141 0.0028,0.4709 0.0114,0.6005 0.0103,0.1562 0.1263,0.2988 0.2563,0.3587 0.0928,0.0429 0.1485,0.0412 0.266,0.0417 0.7116,0.0028 1.426,0.0179 2.1396,0.0174 0.203,-0.0001 0.4018,0.0017 0.6059,0.0034 0.1288,0.001 0.5053,0.0163 0.6008,-0.0177 0.1407,-0.05 0.2596,-0.1605 0.2981,-0.314 0.0204,-0.0816 0.0153,-0.1971 0.0159,-0.2916 0.0005,-0.0983 0.0052,-0.1983 0.0069,-0.3002 0.0016,-0.0999 0.0272,-1.1479 0.0139,-1.2187 -0.0101,-0.0554 0.0034,-0.7743 -0.0046,-0.9436l-0.0038 -0.0482 -0.0268 -0.0327 -0.0488 -0.0053 -0.009 0.0715c-0.002,0.0139 0,0.0005 -0.0013,0.0089 -0.0071,0.0482 -0.0072,0.5378 -0.0075,0.6234l-0.0012 0.1747c-0.0006,0.066 0.005,0.0473 -0.0071,0.0543 0.007,0.0877 -0.0149,1.1727 -0.0182,1.2939 -0.0019,0.0721 -0.0035,0.1396 -0.0047,0.2129 -0.001,0.0663 -0.0072,0.1462 -0.0037,0.2075 -0.0009,0.0374 0,0.0827 -0.0043,0.1192 -0.0043,0.0367 -0.018,0.061 -0.0248,0.0935 -0.0087,0.0085 -0.012,0.0141 -0.0112,0.0277 -0.0161,0.0141 -0.034,0.0423 -0.0495,0.0591 -0.0176,0.0191 -0.0287,0.0295 -0.0518,0.0465 -0.0356,0.0262 -0.0828,0.0539 -0.1383,0.0613 -0.0913,0.024 -2.9453,-0.0086 -3.1881,-0.0105 -0.1862,-0.0014 -0.3411,0.008 -0.4515,-0.1853 -0.0451,-0.0789 -0.0418,-0.1725 -0.0432,-0.2771 -0.0013,-0.1062 0,-0.2159 -0.0041,-0.3217 -0.0036,-0.0938 -0.0109,-0.5526 -0.0059,-0.6294 -0.0066,-0.0067 -0.0045,-0.0011 -0.0065,-0.0148l-0.0073 -0.5897c-0.0023,-0.5111 0.0054,-1.0153 0.0054,-1.5229 0,-0.0903 -0.0076,-0.2162 -0.0011,-0.2995 -0.04,0.0059 -0.0408,0.0103 -0.0657,-0.0046l-0.0039 0.0151c-0.0003,0.0008 -0.0013,0.0022 -0.0017,0.0031 -0.0052,0.0156 -0.0031,0.0234 -0.0033,0.0405l-0.0166 0.4203c-0.004,0.0399 0.0012,0.0158 -0.0111,0.0271z"/>
  </g>
 </g>
</svg>
