<?xml version="1.0" encoding="UTF-8"?>
<!DOCTYPE svg PUBLIC "-//W3C//DTD SVG 1.1//EN" "http://www.w3.org/Graphics/SVG/1.1/DTD/svg11.dtd">
<!-- Creator: CorelDRAW 2017 -->
<svg xmlns="http://www.w3.org/2000/svg" xml:space="preserve" width="5.5878mm" height="5.5878mm" version="1.1" style="shape-rendering:geometricPrecision; text-rendering:geometricPrecision; image-rendering:optimizeQuality; fill-rule:evenodd; clip-rule:evenodd"
viewBox="0 0 558.78 558.78"
 xmlns:xlink="http://www.w3.org/1999/xlink">
 <defs>
  <style type="text/css">
   <![CDATA[
    .fil1 {fill:none}
    .fil0 {fill:black}
   ]]>
  </style>
 </defs>
 <g id="Capa_x0020_1">
  <metadata id="CorelCorpID_0Corel-Layer"/>
  <path class="fil0" d="M407.37 475.5c0,-30.63 -4.51,-49.05 7.01,-49.05 11.52,0 7.01,18.42 7.01,49.05 0,9.9 -14.02,9.9 -14.02,0zm91.1 49.05l-90.71 0c-7.68,-0.48 -14.29,-1.22 -19.07,-2.33 -4.38,-18.78 -4.38,-114.36 0,-133.14 16.72,-8.29 72.1,-4.67 98.1,-4.67 9.47,0 21.02,2.52 21.02,11.67l0 114.46c0,7.17 -2.16,14.01 -9.34,14.01z"/>
  <path class="fil0" d="M48.15 301.58l0 2.05c0.02,14.17 0.7,32.99 21.02,32.99 28.68,0 21.03,-40.48 21.03,-74.75l-0.08 -70.15c-0.18,-12.37 -2.33,-15.76 4.75,-20.94l0 282.62c0,17.73 -7.41,72.41 23.35,72.41 13.05,0 25.7,-7.26 25.7,-21.02l0 -189.2 9.34 0 0 186.86c0,11.96 12.29,23.36 23.36,23.36 31.71,0 25.69,-36.35 25.69,-67.73l0 -284.97c2.17,2.49 -0.03,-0.76 2.98,4.03 17.06,27.17 32.04,84.25 56.33,78.86 10.2,-2.26 33.47,-23.11 42.46,-30.17 13.21,-10.38 50.41,-32.24 31.76,-53.11 -15.37,-17.19 -35.72,2.95 -43.17,9 -6.95,5.66 -19.36,17.3 -27.29,19.42 -47.41,-89.59 -14.11,-74.74 -175.18,-74.74 -12.92,0 -27.16,12.86 -32.82,20.9 -6.14,8.73 -8.65,23.22 -9.23,38.34l0 13.75c0.7,15.7 3.79,29.38 2.21,48.34 -1.39,16.9 -2.18,32.81 -2.21,52.89l0 0.96z"/>
  <path class="fil0" d="M403.19 285.23c0,-14.65 -3.27,-37.37 9.34,-37.37 11.16,0 7.01,15.63 7.01,44.38 0,6.3 -1.12,6.44 -2.34,11.68 -4.1,-0.1 -14.01,5.04 -14.01,-18.69zm-14.02 -70.07l0 126.13c0,7.55 8.48,11.68 16.35,11.68l88.76 0c7.88,0 16.35,-4.13 16.35,-11.68l0 -126.13c0,-16.19 -30.77,-6.58 -62.15,-10.41 -9.72,-1.18 -17.84,1.25 -31.26,1.07 -12.57,-0.16 -28.05,-3.02 -28.05,9.34z"/>
  <path class="fil0" d="M251.36 476.76c0,-30.63 -4.51,-49.05 7.01,-49.05 11.52,0 7.01,18.42 7.01,49.05 0,9.9 -14.02,9.9 -14.02,0zm91.1 49.05l-90.71 0c-7.68,-0.48 -14.29,-1.22 -19.07,-2.33 -4.38,-18.78 -4.38,-114.36 0,-133.14 16.72,-8.29 72.1,-4.67 98.1,-4.67 9.47,0 21.02,2.52 21.02,11.67l0 114.46c0,7.17 -2.16,14.01 -9.34,14.01z"/>
  <path class="fil0" d="M403.19 112.38c0,-13.79 -3.19,-42.04 9.34,-42.04 11.52,0 7.01,18.42 7.01,49.05 0,11.35 -16.35,10.15 -16.35,-7.01zm107.44 -70.07l0 105.6c-0.48,8.6 -1.22,15.77 -2.33,20.53 -21.9,5.1 -79.24,2.34 -105.11,2.34 -7.17,0 -14.02,-2.17 -14.02,-9.35l0 -119.12c0,-5.47 3.88,-9.34 9.35,-9.34l102.77 0c5.47,0 9.34,3.87 9.34,9.34z"/>
  <path class="fil0" d="M246.69 114.72l0 -32.7c0,-11.52 2.55,-11.68 14.02,-11.68l0 56.06c-11.47,0 -14.02,-0.17 -14.02,-11.68zm-16.35 -67.74l0 67.74c0,7.3 4.2,5.74 9.85,11.17 7.42,7.14 22.77,34.51 25.19,44.89 40.3,0 19.96,-18.69 58.39,-18.69 33.57,0 28.03,70.27 28.03,-109.78 0,-5.47 -3.87,-9.34 -9.34,-9.34l-102.77 0c-7.19,0 -9.35,6.84 -9.35,14.01z"/>
  <path class="fil0" d="M260.71 273.55c0,12.4 2.83,19.59 -2.34,30.37 -14.88,-1.24 -11.68,-11.42 -11.68,-32.7 -7.25,-3.84 -9.55,-7.53 -16.35,-9.35 0,17.91 0.05,35.82 0,53.73 -0.12,46.33 -8.15,37.37 105.11,37.37 8.58,0 11.29,-3.62 16.35,-7.01l0 -135.48c-7.13,1.91 -36.8,26.78 -44.38,32.71 -14.14,11.04 -31.77,29.12 -46.71,30.36z"/>
  <path class="fil0" d="M108.88 65.67c0,26.4 6.72,49.05 42.04,49.05 53.93,0 49.34,-81.75 4.68,-81.75l-14.02 0c-14.59,0 -32.7,18.11 -32.7,32.7z"/>
  <rect class="fil1" x="-0" y="-0" width="558.79" height="558.79"/>
 </g>
</svg>
