<?xml version="1.0" encoding="UTF-8"?>
<!DOCTYPE svg PUBLIC "-//W3C//DTD SVG 1.1//EN" "http://www.w3.org/Graphics/SVG/1.1/DTD/svg11.dtd">
<!-- Creator: CorelDRAW 2017 -->
<svg xmlns="http://www.w3.org/2000/svg" xml:space="preserve" width="215.9mm" height="279.4mm" version="1.1" style="shape-rendering:geometricPrecision; text-rendering:geometricPrecision; image-rendering:optimizeQuality; fill-rule:evenodd; clip-rule:evenodd"
viewBox="0 0 21590 27940"
 xmlns:xlink="http://www.w3.org/1999/xlink">
 <defs>
  <style type="text/css">
   <![CDATA[
    .str1 {stroke:#3E4095;stroke-width:7.62;stroke-miterlimit:22.9256}
    .str5 {stroke:#FEFEFE;stroke-width:64.54;stroke-linecap:round;stroke-linejoin:round;stroke-miterlimit:22.9256}
    .str4 {stroke:#FEFEFE;stroke-width:44.96;stroke-linecap:round;stroke-linejoin:round;stroke-miterlimit:22.9256}
    .str3 {stroke:#FEFEFE;stroke-width:44.96;stroke-linecap:round;stroke-linejoin:round;stroke-miterlimit:22.9256}
    .str6 {stroke:#FEFEFE;stroke-width:44.96;stroke-linecap:round;stroke-linejoin:round;stroke-miterlimit:22.9256}
    .str2 {stroke:#FEFEFE;stroke-width:139.99;stroke-linecap:round;stroke-linejoin:round;stroke-miterlimit:22.9256}
    .str0 {stroke:#FEFEFE;stroke-width:63.32;stroke-linecap:round;stroke-linejoin:round;stroke-miterlimit:22.9256}
    .fil20 {fill:none}
    .fil14 {fill:none;fill-rule:nonzero}
    .fil19 {fill:#ED3237}
    .fil18 {fill:#00AFEF}
    .fil17 {fill:#00A859}
    .fil3 {fill:#3E4095}
    .fil12 {fill:#424242}
    .fil7 {fill:#752A17}
    .fil8 {fill:#7A7A7A}
    .fil6 {fill:#8F8F8F}
    .fil10 {fill:#E0502C}
    .fil2 {fill:#EC1A21}
    .fil11 {fill:#EC937C}
    .fil4 {fill:#ED1C21}
    .fil16 {fill:#F5ED24}
    .fil15 {fill:#F6F6F6}
    .fil0 {fill:#F7F7F7}
    .fil1 {fill:#F9D828}
    .fil5 {fill:#FDFDFD}
    .fil9 {fill:#FEFEFE}
    .fil13 {fill:#3E4095;fill-rule:nonzero}
   ]]>
  </style>
 </defs>
 <g id="Capa_x0020_1">
  <metadata id="CorelCorpID_0Corel-Layer"/>
  <g id="_2477361501344">
   <path class="fil0" d="M10790.24 13958.49l-2.99 3.45 159.65 434.28 -105.61 37.01 -233.28 -619.64c124.56,-62.82 102.64,-37.64 293.52,86.11 49.83,32.31 88.61,57.4 140.04,92.45 38.53,26.27 102.51,70.9 141.83,89.69l-158.45 -427.03 107.65 -39.15 231.97 622.86c-126.66,46.93 -64.07,50.84 -295.09,-101.49 -48.75,-32.14 -243.23,-168.44 -279.24,-178.54zm27.35 40.6l-7.98 -15.08 13.4 10.7 404.73 269c46.28,31.49 50.4,32.59 156.6,-16.44 -28.65,-104.15 -82.3,-221.01 -121.14,-326.53 -37.95,-103.14 -79.73,-228.93 -122.35,-324.53l-135.45 49.48 145.24 392.23c-49.94,-19 -91.54,-56.23 -136.72,-85.41l-262.86 -172.3c-35.24,-23.87 -37.89,-26.76 -81.66,-9.83 -26.35,10.19 -59.25,20.33 -80.48,34.62l244.34 649.36 133.01 -49.12 -148.68 -406.15z"/>
   <path class="fil0" d="M10532.84 13841.84c63.95,267.98 340.94,590.24 -30.96,729.38 -170.15,63.65 -289.43,-26.85 -342.04,-147.23l-144.95 -389.54 101.21 -38.18c105.99,181.73 114.77,550.23 347.95,468.97 226.98,-79.1 20.64,-361.53 -37.79,-585.89l106.58 -37.51zm-127.92 28.08c52.03,223.86 270.48,498.07 57.01,578.28 -59.17,22.23 -123.22,-0.08 -152.89,-30.97 -53.98,-56.2 -136.24,-375.58 -182.95,-440.83 -33.2,6.65 -112.63,32.39 -131.88,53.65 103.75,271.5 167.3,687.38 520.62,553.91 341.46,-128.99 145.92,-450.89 26.2,-763.23l-136.11 49.19z"/>
   <path class="fil0" d="M11544.02 13456.42c396.01,-72.69 561.9,593.83 121.23,671.83 -192.44,34.07 -343.17,-122.26 -373.72,-280.65 -39.69,-205.86 79.97,-359.51 252.49,-391.18zm-8.55 -15.18c-460.22,96.86 -271.21,782.64 137.3,702.98 463.94,-90.48 275.59,-789.88 -137.3,-702.98z"/>
   <path class="fil0" d="M11419.46 13812.5c-58.41,-265.15 310.64,-338.21 370.83,-43.96 52.29,255.63 -306.28,336.98 -370.83,43.96zm122.46 -244.07c-272.76,76.35 -120.6,517.03 129.62,439.18 264.08,-82.15 118.77,-508.7 -129.62,-439.18z"/>
   <path class="fil1" d="M10787.25 13961.94l-8.34 -17.68 11.33 14.23c36.01,10.1 230.49,146.4 279.24,178.54 231.02,152.33 168.43,148.42 295.09,101.49l-231.97 -622.86 -107.65 39.15 158.45 427.03c-39.32,-18.79 -103.3,-63.42 -141.83,-89.69 -51.43,-35.05 -90.21,-60.14 -140.04,-92.45 -190.88,-123.75 -168.96,-148.93 -293.52,-86.11l233.28 619.64 105.61 -37.01 -159.65 -434.28z"/>
   <path class="fil1" d="M11541.92 13568.43c248.39,-69.52 393.7,357.03 129.62,439.18 -250.22,77.85 -402.38,-362.83 -129.62,-439.18zm2.1 -112.01c-172.52,31.67 -292.18,185.32 -252.49,391.18 30.55,158.39 181.28,314.72 373.72,280.65 440.67,-78 274.78,-744.52 -121.23,-671.83z"/>
   <path class="fil1" d="M10426.26 13879.35c58.43,224.36 264.77,506.79 37.79,585.89 -233.18,81.26 -241.96,-287.24 -347.95,-468.97l-101.21 38.18 144.95 389.54c52.61,120.38 171.89,210.88 342.04,147.23 371.9,-139.14 94.91,-461.4 30.96,-729.38l-106.58 37.51z"/>
   <path class="fil2" d="M10871.28 13787.85l4.83 -5.11c-12.7,-56.2 -38.28,-60.82 2.52,-102.61 18.11,-18.54 57.71,-60.97 76.63,-73.77 33.03,-22.36 182.5,-78.55 220.57,-70.16 10.55,18.03 21.66,45.02 27,68.85l22.61 -21.39c9.76,-10.52 9.4,-11.03 16.87,-20.34 116.93,-145.83 254.04,-162.45 292.62,-183.88 -360.16,-165.6 -872.76,16.51 -1146.41,260.24 -36.82,32.79 -100.53,85.59 -130.47,124.68l-106.66 140.17c38.03,44.11 87.05,199.25 111.69,265.96 42.03,113.76 61.99,226.87 150.48,230.27 -2.58,-61.86 -75.36,-232.3 -99.53,-296.08 -72.01,-190 -82.07,-155.02 16.22,-253.07 46.72,-46.6 195.01,-86.57 273.44,-116.48 51.48,-19.63 100.58,-53.23 148.06,-23.06 37.56,23.87 80.81,62.45 119.53,75.78z"/>
   <path class="fil2" d="M11640.68 13938.17c51.59,-80.4 -66.53,-262.41 -153.55,-213.69 -47,26.31 9.5,246.77 153.55,213.69z"/>
   <path class="fil3" d="M10039.52 14457.64c15.37,-26.09 37.5,-52.17 65.11,-61.3l11.91 23.88c-11.09,28.02 -44.74,49.39 -65.36,72.22l-11.66 -34.8zm14.77 -195.41l36.74 92.18 -62.46 64.56 -22.79 -43.81c-7.58,-20.12 -11.9,-31.17 -14.69,-52.15l63.2 -60.78zm312.36 -179.67c8.6,-24.66 41.19,-57.22 66.4,-67.32 14.17,44.65 19.06,27.84 -44.16,89.15 -0.73,0.7 -3.35,4.62 -3.87,3.4 -0.53,-1.21 -2.56,2.27 -6.48,4.52l-11.89 -29.75zm-48.56 -145.46c17.08,-11.09 17.07,-13.87 31.75,-28.3l33.62 -23.21 33.27 92.39 -63.28 63.75c-15.31,-24.26 -33.06,-74.87 -35.36,-104.63zm222.94 -116.37c119.72,312.34 315.26,634.24 -26.2,763.23 -353.32,133.47 -416.87,-282.41 -520.62,-553.91 19.25,-21.26 98.68,-47 131.88,-53.65 46.71,65.25 128.97,384.63 182.95,440.83 29.67,30.89 93.72,53.2 152.89,30.97 213.47,-80.21 -4.98,-354.42 -57.01,-578.28l136.11 -49.19zm492.66 -29.55l11.02 37.35 -65.57 59.72 -13.98 -33.22 68.53 -63.85zm501.78 -349.94c412.89,-86.9 601.24,612.5 137.3,702.98 -408.51,79.66 -597.52,-606.12 -137.3,-702.98zm-617.5 281.24c16.04,-23.7 39.7,-49.72 65.88,-61.79l35.62 93.94 -67.74 63.76 -33.76 -95.91zm-94.96 272.23l-5.42 4.38 148.68 406.15 -133.01 49.12 -244.34 -649.36c21.23,-14.29 54.13,-24.43 80.48,-34.62 43.77,-16.93 46.42,-14.04 81.66,9.83l262.86 172.3c45.18,29.18 86.78,66.41 136.72,85.41l-145.24 -392.23 135.45 -49.48c42.62,95.6 84.4,221.39 122.35,324.53 38.84,105.52 92.49,222.38 121.14,326.53 -106.2,49.03 -110.32,47.93 -156.6,16.44l-404.73 -269zm384.54 -323.69c-3.62,3.39 -9.44,19.85 -17.33,-7.44l-33.28 -99.14c-168.45,44.65 -175.78,64.8 -268.61,151.49l59.42 161.29c-39.53,-16.1 -110.5,-69.12 -152.4,-96.31 -91.46,-59.34 -61.48,-59.68 -171.94,-18.74 -174.2,64.56 -235.34,67.01 -333.32,177.86 20.82,107.77 179.02,401.28 150.35,486.71 -119.74,41.84 -153.8,-102.6 -186.03,-187.46 -26.95,-70.99 -91.77,-220.4 -104.07,-286.39l-19.03 -5.83c-46.79,14.23 -100.34,35.81 -146.72,53.98 -54.23,21.24 -66.42,58.46 -107.14,87.23 10.62,66.53 85.35,238.71 112.19,310.78 45.05,120.96 75.49,204.86 155.16,265.04 97.54,73.68 221.45,64.87 332.81,10.18 71.77,-35.25 120.15,-86.33 173.79,-141.83 20.94,-21.67 22.21,-35.04 46.39,-51.77l32.92 89.51c178.88,-47.33 175.29,-68.82 268.26,-151.06l-64.22 -177.91c50.67,19.8 217.69,154.24 249.64,156.56 18.57,1.35 132.31,-42.13 148.06,-54.08l83.93 -104.08c202.05,54.57 351.51,-37.41 435.58,-141.74 46.66,-57.89 87.18,-109.52 107.71,-199.6 55.86,-245.02 -140.31,-516.07 -401.11,-485.64 -43.11,5.03 -88.43,20.11 -122.76,36.72 -19.61,9.49 -30.9,15.74 -47.44,27.61 -59.23,42.56 -153.61,127.4 -180.81,194.06z"/>
   <path class="fil3" d="M11442.44 13805c-40.17,-193.06 203.71,-142.17 240.26,55.82 33.99,184.13 -199.6,139.62 -240.26,-55.82zm264.76 41.49l-13.21 -33.58 63.97 -67.04 11.83 44.32c-24.08,17.96 -39.01,40.52 -62.59,56.3zm-20.75 -209.94c28.44,20.81 47.18,42.46 58.53,78.04 -23.68,19.97 -40.27,45.56 -68.71,60.76 -20.25,-50.48 -34.3,-39.26 -55.11,-77.5l65.29 -61.3zm-266.99 175.95c64.55,293.02 423.12,211.67 370.83,-43.96 -60.19,-294.25 -429.24,-221.19 -370.83,43.96z"/>
   <path class="fil4" d="M10322.58 14751.28c78.82,58.03 312.43,65.51 421.35,53.57 237.54,-26.05 505.66,-142.99 678.6,-288.51l125.63 -114.5c31.88,-33.99 90.38,-89.51 109.57,-131.82 -105.84,22.97 -111.98,19.28 -221.74,12.54 -62.05,90.59 -113.97,102.7 -212.27,140.03 -60.42,22.96 -79.37,-6.56 -120.93,-34.06 -29.38,-19.45 -76.73,-55.11 -103.75,-64.96 10.1,36.18 42.69,84.68 23.42,114.77 -62.95,98.27 -256.02,172.01 -310.75,160.5 -8.91,-14.66 -17.39,-33.7 -21.1,-55.04 -43.64,27.92 -68.99,77.79 -155.14,135.58 -70.8,47.49 -122.08,53.48 -212.89,71.9z"/>
   <path class="fil5" d="M11640.68 13938.17c-144.05,33.08 -200.55,-187.38 -153.55,-213.69 87.02,-48.72 205.14,133.29 153.55,213.69zm-198.24 -133.17c40.66,195.44 274.25,239.95 240.26,55.82 -36.55,-197.99 -280.43,-248.88 -240.26,-55.82z"/>
   <path class="fil6" d="M11207.55 13671.02c-11.43,-4.73 -8.27,-1.1 -17.33,-7.44 7.89,27.29 13.71,10.83 17.33,7.44z"/>
   <path class="fil3" d="M12849.45 14513.66c4.84,-8.81 21.97,-25.48 32.55,-30.1 4.23,-1.52 14.39,-9.73 37.49,-19.06 71.94,-29.05 121.93,-6.9 148.56,-6.9 0,-40.96 2.7,-29.16 -11.33,-47.29 -24.5,-31.66 -26.92,-80.43 -26.9,-123.47 0,-16.29 0.57,-56.82 5.1,-66.26 7.07,5.18 8.54,11.76 13.29,19.84 20.22,34.34 46.94,91.5 45.45,133 -1,28.07 -9.48,34.56 -20.52,51.04 5.2,9.83 10.31,18.62 15.3,28.04 15.5,-3.61 28.82,-18.92 55.19,-31.46l30.77 -12.55c12.65,-4.24 20.57,-6.44 33.85,-9.51 28.01,-13.57 81.59,-3.77 113.14,-1.4l4.49 -29.18c-3.29,-4.23 -2.45,-3.15 -6.45,-6.74l-2.78 -2.34c-0.4,-0.34 -1.01,-0.79 -1.41,-1.13 -0.41,-0.33 -1.01,-0.79 -1.41,-1.12l-10.26 -10.12c-42.75,-51.9 -31.79,-118.93 -29.1,-174.8 0.52,-10.64 -0.36,-16.23 1.38,-26.65 6.08,-36.48 16.44,-110.94 54.7,-121.16 -2.36,-10.11 -7.49,-18.94 -10.2,-30.58 -12.91,0 -8.16,0.3 -17.25,3.14l-49.29 11.87c-26.37,2.97 -61.11,-2.26 -78.73,-2.26 1.13,13.47 6.53,27.3 7.65,40.77 24.8,0 34.32,-3.48 52.5,23.96 25.35,38.27 2.5,168.34 -11.72,195.21 -3.65,-2.66 -2.17,-1.48 -5.35,-4.84l-4.59 -5.61c-27.42,-40.19 -70.87,-127.87 -58.45,-177.72 6.52,-26.19 11.14,-21.32 13.73,-29.83 2.58,-8.52 -8.06,-25.05 -11.6,-31.75 -35.41,18.73 -38.81,22.2 -80.78,33.91 -49.32,13.76 -71.11,8.74 -123.4,9.12 -11.07,0.08 -17.55,-7.64 -17.55,43.62 26.57,6.19 44.75,27.71 51.94,52.55 21.33,73.67 -12.21,133.31 -13.71,151.33l-5.1 0c-1.96,-7.34 -1.96,-4.92 -5.35,-12.48l-41.65 -101.07c-8.94,-22.44 -17.84,-58.5 -1.98,-80.89 11.75,-16.59 -1.41,-18.22 -7.08,-42.57 -11.11,0.92 -44.37,30.55 -100.59,44.85 -13.57,3.45 -21.52,0.43 -40.87,1.52 -22.08,1.24 -2.18,-1.03 -16.24,4.74 -11.27,4.62 -19.32,0.67 -32.41,3.44 -12.3,2.6 -16.17,6.61 -31.62,6.61l0 35.68c30.04,0.67 59.97,29.44 76.89,50.55 8.95,11.18 16.82,26.34 24.59,39.11 7.38,12.13 15.72,28.47 21.6,42.12l26.72 67.58c3,9.56 4.51,15.97 7.36,25.77 19.52,67.36 -6.82,68.1 -22.08,90.89l17.89 35.65 5.62 -5.07z"/>
   <path class="fil3" d="M13850.45 13955.53c16.6,3.87 16.35,0.18 28.03,-7.64 -5.21,-22.37 -14.33,-34.54 -23.59,-80.9 -6.48,-32.4 -9.54,-56.56 -9.54,-97.5 -7.82,0.18 -25.32,5.12 -30.58,7.65 0,102.35 -7.32,63.66 -90.66,77.54 -96.4,16.05 -223.97,110 -165.54,227.07 62.07,124.36 225.81,40.99 271.52,98.02 2.42,3.02 3.54,4.58 4.53,8.37 1.46,5.64 0.95,13.37 -0.66,18.42l-8.89 14.13c-7.69,8.42 -13.5,11.8 -23.81,16.97 -38.87,19.48 -100.46,18.01 -135.43,-5.76 -25.75,-17.52 -37.97,-56.12 -44.75,-85.23 -12.09,1.01 -19.25,5.1 -33.13,5.1 0.43,19.22 23.25,43.69 23,91.69 -0.41,76.21 0.64,44.28 -12.81,102 11.85,0.99 4.04,1.41 13.94,3.91 7,1.76 11.66,1.19 19.19,1.19 0,-33.27 21.16,-68.49 46.92,-75.45 34.49,-9.31 61.49,33.15 176.06,-4.85 20.79,-6.9 35.39,-15.12 52.7,-28.86 11.97,-9.5 24.22,-25.23 32.67,-38.69 0.29,-0.46 0.7,-1.08 0.98,-1.56 32.21,-55.25 28.62,-208.11 -95.19,-207.45 -62.19,0.33 -102.21,1.14 -139.24,-26.42 -42.59,-31.69 -2.86,-106.05 76.36,-68.71 20.7,9.75 62.28,35.84 67.92,56.96z"/>
   <path class="fil3" d="M14829.08 13634.5l-8.02 -10.28 -8.78 -8.65c-11.96,-10.6 -20.19,-15.13 -36.84,-19.26 -22.63,-5.62 -45.35,-0.14 -61.96,9.16 -28.75,16.11 -44.86,46.68 -60.62,71.9 -5.19,8.29 -4.36,8.59 -9.82,10.57 -5.11,-10.66 2.55,-18.95 2.55,-45.87 -9.93,0.82 -11.65,4.71 -18.85,9.18 -4.22,2.61 -5.47,2.96 -10.39,4.9l-33.69 14.73c-30.43,12.9 -88.41,22.31 -123.08,22.19 -53.68,-0.18 -61.4,-15.03 -52.04,16.2 11.04,36.82 21.62,8.58 50.07,23.93 6.3,3.39 4.14,2.27 9.29,6 18.32,13.24 28.02,31.29 38.54,50.66 45.89,84.51 68.79,160.35 68.88,257.51 0.02,21.38 -9.03,53.48 -20,69.2 -5.76,8.25 -7.93,9.56 -15.77,14.81 0.25,11.35 3.58,26.33 4.92,38.67 1.95,18.08 -6.93,17.36 46.05,-18.28 4.55,-3.07 8.29,-5.86 13.99,-8.95 6.22,-3.36 8.96,-4.48 15.29,-7.64l48.32 -17.94c8.79,-2.19 13.53,-0.34 21.94,-1 20.04,-1.58 2.11,-0.36 14.28,-6.11 16.9,-7.99 51,-1.68 62.03,-1.68 3.59,-7.49 12.51,-35.56 12.74,-45.88 -41.64,0 -55.45,-11.46 -80.47,-49.5 -16.63,-25.3 -27.62,-69.49 -33.59,-98.93 -6.56,-32.38 -11.22,-81.4 -8.15,-121.59 0.57,-7.42 3.06,-21.61 4.91,-28.22 1.71,-6.12 1.84,-5.2 3.9,-11.4l15.7 -35.27c3.94,-6.92 8.18,-14.85 16.15,-16.98 3.9,8.13 6.01,21.35 10.18,30.6 6.97,15.47 10.21,10.21 10.21,33.11 0.3,0.11 0.83,-0.57 0.92,-0.27 2.24,7.62 -1.97,-2.38 6.31,-1.03 5.21,0.84 14.43,10.37 31,19.14 -2.99,7.39 0.13,1.1 -10.2,7.65 38.8,0 77.15,1.61 96.22,-43.95 17.12,-40.94 8.68,-72.83 -12.12,-111.43z"/>
   <path class="fil3" d="M14291.34 13838.3c0,-72 39.68,-77.85 49.1,-31.26 4.94,24.42 24.81,97.57 24.81,112.82 0,8.67 -9.37,8.9 -23.67,14.55 -35.05,13.85 -33.86,25.1 -44.45,-35.63 -3.43,-19.69 -5.79,-38.45 -5.79,-60.48zm-114.68 101.94c0,38.72 6.64,73 16.51,103.28 7.38,22.68 24.56,61.92 38.77,81 18.62,24.98 26.99,35.69 45.5,51.35 2.11,1.78 2.54,2.18 4.11,3.54 42.7,37.08 106.54,52.14 161.5,24.67 30.17,-15.08 56.13,-43.92 70.93,-74.32 10.87,-22.32 21.78,-42.54 11.48,-59.13 -5.55,-8.94 -9.75,-20.22 -17.49,-25.9 -7.25,15.11 -11.62,47.2 -28.7,70.7 -9.54,13.14 -22.68,31.49 -37.09,39.36 -21.54,11.76 -38.61,6.24 -55.23,-11.97l-18.63 -24.7c-14.26,-24.27 -43.85,-95.05 -43.85,-124.36l28.36 -14.97c41.26,-21.18 116.41,-33.45 160.23,-33.45 0,-71.97 -57.12,-175.59 -123.33,-205.42 -45,-20.28 -92.12,-14.75 -132.6,13.2 -9.54,6.59 -14.54,12.97 -22.51,20.82 -35.94,35.43 -57.96,106.37 -57.96,166.3z"/>
   <path class="fil3" d="M12637.17 14197.64l7.82 -20.51c0.35,-0.53 0.69,-2.08 0.81,-1.72l11.93 -77.16 7.65 -5.09c-0.51,-0.06 -12.54,7 -12.16,-25.33 0.34,-27.97 -6.09,-12.64 -13.7,-58.4 -1.4,-8.38 -4.52,-24.37 -4.72,-33.51 25.93,-12.44 44.97,-8.6 57.91,13.45 11.21,19.08 16.48,42.16 21.09,66.88l3.04 19.77 14.8 -1.3c19.17,1.75 20.06,-1.94 29.37,-15.91 6.86,-10.28 15.78,-18.12 21.6,-26.82 -1.79,-7.69 -5.25,-14.09 -6.67,-21.57 -1.27,-6.72 -0.4,-4.79 -0.41,-10.73 -0.02,-9.13 1.65,-0.83 -1.78,-9.79 -15.12,-39.54 -14.08,-114.73 -14.08,-159.24l-30.58 0c-0.83,9.97 4.78,4 -15.79,17.34 -27.07,17.56 -35.61,22.75 -67.05,37.43 -59.92,27.96 -156.87,50.06 -225.47,49.78 -22.91,-0.1 -48.11,0.63 -67.02,-1.91 -5.71,-0.77 -31.23,-2.39 -32.97,-2.4 -9.53,0 -15.38,7.76 -19.85,14.44l50.97 201.33c11.79,0 48.49,-5.66 58.22,-13.13 4.3,-3.3 6.46,-5.86 6.38,-13.48 -0.36,-33.91 -8.24,-19.57 0.94,-68.4 4.78,-25.38 17.47,-42.61 46.6,-42.61 0,41.64 23.13,117.56 57.92,151.06 17.32,16.69 42.4,30.19 62.91,41.58 12.2,6.77 21.26,10.95 33.39,17.88 14.62,8.33 10.43,8.81 15.58,-10.06 2.9,-10.62 2.51,2.94 3.32,-11.87z"/>
   <path class="fil3" d="M13911.61 13744.01c5.01,21.49 16.18,56.48 17.84,76.45 -9.3,4.46 -15.12,3.94 -27.64,5.49 -12.06,1.5 -15.13,4.71 -30.98,4.71 1.11,13.27 7.31,20.3 7.65,35.67 22.62,0 31.07,-5.09 61.16,-5.09 0,16.24 30.46,191.43 33.83,210.83 6.91,39.74 19.28,106.21 48.28,135.22 20.7,20.71 41.89,20.94 68.26,20.94 28.17,0 52.31,-26.89 66.86,-42.72l50.37 -61.77 -20.39 -28.04c-5.22,1.89 -32.24,31.06 -55.89,-2.72 -1.8,-2.57 -2.87,-4.82 -4.32,-8.42 -15.48,-38.56 -29.15,-149.15 -38.64,-190.74l-10.73 -68.26c18.94,-0.42 81.56,-28.54 89.2,-30.58 -0.23,-9.89 -9.08,-30.59 -12.75,-38.23 -15.49,3.61 -25.66,10.29 -40.01,16.05 -7.92,3.17 -11.96,4.86 -19.99,8.05 -9.16,3.62 -14.74,4.3 -24.1,6.48l-20.39 -175.85c-32.93,0 -18.32,-4.87 -40.74,38.26 -21.56,41.47 -29.82,46.51 -57.85,69.58 -13.2,10.86 -24,16.73 -39.03,24.69z"/>
   <path class="fil3" d="M13363.68 13912.21l-38.23 0c-23.3,0 -31.87,-7.65 -56.07,-7.65 -4.28,18.37 -2.55,21.39 -2.55,43.33 27.89,0 46.08,3.45 66.96,27.34 23.95,27.41 45.18,159.4 45.18,199.48 0,33.41 0.04,61.64 -13.15,91.34 -8.55,19.24 -23.36,29.79 -40.37,41.18 6.29,11.89 12.59,28.1 22.93,35.68l32.53 -28.64c48.78,-40.25 121.75,-59.63 185.92,-44.53 5.98,1.41 6.43,2.72 13.47,4.36 6.7,-10 10.2,-18.87 10.2,-35.68 -8.52,-2.27 -9.64,-4.72 -16.93,-11.1 -19.4,-16.99 -27.66,-29.82 -39.96,-51.8 -18.96,-33.9 -37.87,-98.7 -39.98,-140.96 -1.72,-34.6 2.24,-128.76 0.12,-153.03 -1.56,-17.8 -5.19,-4.47 -5.19,-25.39 -18.3,4.26 -6.84,14.41 -52.17,37.04 -16.43,8.2 -53.44,19.03 -72.71,19.03z"/>
   <path class="fil3" d="M12568.53 14238.42c-27.49,41.07 -16.32,128.27 -22.56,183.87 -1.45,12.96 1.27,26.9 -1.37,39.41 -4.35,20.6 -15.85,41.88 -37.23,46.87 0.93,11.23 27.26,71.36 38.23,71.36 29.97,0 30.59,-10.03 56.53,-27.58 16.36,-11.06 27.31,-19.47 47.85,-26.05 24.44,-7.82 67.77,-4.23 96.23,3.37 8.6,2.3 41.9,22.71 49.57,-10.48 5.06,-21.87 4.67,-34.27 4.67,-56.5 -11.24,-0.25 -15.46,-3.29 -22.53,-8.05 -27.27,-18.32 -42.66,-46.64 -51.67,-78.31 -10.8,-37.93 -27.38,-80.35 -55.09,-108.01 -24.78,-24.74 -77.63,-34.29 -109.7,-53.4l-20.96 -12.18c3.12,13.39 18.04,28.99 28.03,35.68z"/>
   <path class="fil3" d="M13325.88 14368.4l-4.49 29.18c-31.55,-2.37 -85.13,-12.17 -113.14,1.4 9.53,4.61 19.87,2.62 31.71,1.12 11.17,-1.42 11.19,2.77 26.61,1.17 10.21,-1.07 1.85,-2.06 14.12,-0.8l49.86 1.06 -4.67 -33.13z"/>
   <path class="fil3" d="M12731.64 14074.72l-14.8 1.3 -3.04 -19.77c0,17.45 -7.38,27.8 10.19,29.26 1.74,-4.78 0.8,-2.25 2.78,-4.85 1.56,-2.06 1.95,-1.32 4.87,-5.94z"/>
   <polygon class="fil3" points="14829.08,13634.5 14831.94,13624.32 14821.06,13624.22 "/>
   <path class="fil3" d="M12670.48 14197.64c2.61,2.62 9.21,-3.66 2.95,-1.37 -0.06,0.02 -7.23,-2.9 -2.95,1.37z"/>
   <path class="fil3" d="M14729.69 13789.88c2.62,2.62 9.22,-3.67 2.96,-1.38 -0.06,0.03 -7.24,-2.9 -2.96,1.38z"/>
   <path class="fil3" d="M14615.01 13629.32c2.61,2.62 9.22,-3.67 2.95,-1.37 -0.06,0.02 -7.23,-2.9 -2.95,1.37z"/>
   <path class="fil3" d="M12517.56 14258.81c0,2.99 5.49,5.74 3.95,0 -1.54,-5.76 6.48,-0.07 -1.18,-0.76 -3.21,-0.28 -2.77,-4.42 -2.77,0.76z"/>
   <path class="fil3" d="M12754.58 14322.52c0,3 5.48,5.74 3.94,0 -1.54,-5.75 6.49,-0.07 -1.17,-0.75 -3.21,-0.29 -2.77,-4.43 -2.77,0.75z"/>
   <path class="fil3" d="M12785.16 13978.47c0,6.33 4.07,0.65 1.58,0 -0.03,-0.01 -1.58,-7.23 -1.58,0z"/>
   <polygon class="fil3" points="12879.46,14500.92 12879.46,14503.47 12882.43,14501.34 "/>
   <polygon class="fil3" points="13850.45,13955.53 13847.9,13955.53 13850.02,13958.51 "/>
   <path class="fil3" d="M14594.62 13629.32c0.25,0.25 0.76,-1.12 0.76,-0.76l0 0c-0.05,0.05 -1.02,0.51 -0.76,0.76z"/>
   <path class="fil3" d="M13106.27 14024.34l0.77 -0.75c-0.06,0.04 -1.02,0.5 -0.77,0.75z"/>
   <path class="fil3" d="M12754.58 14116.09l0.76 -0.76c-0.05,0.05 -1.02,0.51 -0.76,0.76z"/>
   <path class="fil3" d="M13106.27 14016.7l0.77 -0.76c-0.06,0.05 -1.02,0.51 -0.77,0.76z"/>
   <path class="fil7" d="M6871.97 14995.93c-41.93,-10.47 -28.73,-10.22 -54.92,-38.97l16.3 60.74 38.62 -21.77z"/>
   <polygon class="fil7" points="8966.25,13571.45 8937.31,13541.49 8951.88,13595.12 "/>
   <path class="fil7" d="M7462.01 14381.03l11.42 -10.51c-12.62,-19.29 19.4,-16.18 -22.78,-15.37l11.36 25.88z"/>
   <path class="fil8" d="M7502.79 13833.25c-0.81,-59.62 -13.47,-49.96 7.6,-94.29l-25.14 13.75 17.54 80.54z"/>
   <path class="fil8" d="M9298.23 14185.56l27.59 -8.27c-12.67,-29.2 0.32,-12.71 -22.61,-30.02l-4.98 38.29z"/>
   <polygon class="fil8" points="8408.35,13984.99 8378.95,13978.57 8381.11,14020.13 "/>
   <path class="fil8" d="M8540.25 14686.11l-22.89 4.84 -17.41 -64.55 6.23 65.81c32.65,8.9 12.36,9.02 34.07,-6.1z"/>
   <path class="fil8" d="M7541.3 13980.53l-23.28 3.48 -17.8 -70.97 8.86 73.44c31.58,8.39 12.22,7.95 32.22,-5.95z"/>
   <path class="fil8" d="M8712.94 14485.66c-1.44,-45.78 -5.88,-14.19 13.99,-25.76l-32.92 -15.06 18.93 40.82z"/>
   <path class="fil9" d="M8831.44 14136.98c-79.37,-35.73 -83.67,-248.4 -68,-316.22 47.44,10.16 41.16,5.73 58.72,63.09 22.87,74.72 53.09,195.21 9.28,253.13zm-104.51 322.92c-19.87,11.57 -15.43,-20.02 -13.99,25.76l33.85 191.06c118.83,52.98 229.01,-7.73 276.66,-91.16 56.2,-98.4 45.64,-237.49 24,-354.42 -20.82,-112.48 -102.6,-599.76 -137.04,-666.91l-128.62 34.69c0.5,6.7 3.93,37.1 3.8,40.49l-8.11 40.11c-20.49,-47.07 -33.12,-63.55 -105.68,-60.12 -144.52,87.25 -71.51,281 -44.46,419.24 5.94,30.42 31.84,368.33 177.49,343.6 76.07,-35.15 58.66,-55.97 88.4,-133.48 31.45,145.36 5.97,265.84 -166.3,211.14z"/>
   <path class="fil9" d="M8408.35 13984.99l-27.24 35.14 -2.16 -41.56 -0.72 -54.55 -153.75 17.87 83.63 808.3 138.79 -37.35c21.3,-127.35 -65.31,-453.41 -14.56,-544.31 57.12,30.5 47.05,145.89 52.04,211.88 6.19,81.83 19.69,165.32 15.57,245.99l17.41 64.55 22.89 -4.84 102.27 -26.25c-6.74,-135.97 -14.96,-636.1 -85.66,-723.57 -57.09,-70.62 -128.7,-29.7 -148.51,48.7z"/>
   <path class="fil9" d="M9254.92 14057.03c-48.04,-5.76 -61.29,-28.75 -61.86,-89.73 -0.56,-59.31 14.88,-72.06 64.09,-77.39 22.48,61.48 25.94,120.36 -2.23,167.12zm43.31 128.53l4.98 -38.29c22.93,17.31 9.94,0.82 22.61,30.02l11.85 43.77 124.44 -40.36c-11.59,-132.2 -75.84,-389.91 -110.75,-519.99 -23.63,-88.08 -48.46,-157.04 -127.8,-178.26 -110.34,-29.51 -164.41,36.93 -222.4,72.06l43.14 185.93c71.8,-65.79 116.82,-143.42 183.96,-4.76 -43.63,53.98 -233.5,21.98 -167.88,335 57.89,276.07 201.02,216.53 237.85,114.88z"/>
   <path class="fil9" d="M7510.39 13738.96c-21.07,44.33 -8.41,34.67 -7.6,94.29l-2.57 79.79 17.8 70.97 23.28 -3.48 65.56 -10.56c18.2,128.01 58.46,418.38 19.73,519.91 -57.81,0.99 -78.24,-4.68 -106.63,-44.66 -23.47,0 -17.22,-5.89 -18.96,17.41 21.18,206.19 -0.65,236.83 84.08,260.41 77.95,21.69 151.58,2.69 192.96,-66.34 84.54,-141.05 -14.21,-799.45 -38.38,-967.35l-229.27 49.61z"/>
   <path class="fil9" d="M7984.23 14145.21l0 -154.59c35.73,7.82 74.49,18.22 74.4,98.36 -0.06,47 -3.22,27.48 -12.09,44.89l-62.31 11.34zm228.1 88.71c-4.31,-140.9 -56.84,-390.06 -167.87,-414.35 -182.23,-39.85 -211.24,208.63 -204.54,361.27 6.46,146.96 53.16,353.28 155.1,410.51 46.03,25.85 310.82,52.11 211.16,-262.38 -24.5,10.43 -5.29,-0.13 -31.66,19.83 -69.02,52.23 -150.81,85.63 -163.15,-51.92l200.96 -62.96z"/>
   <path class="fil3" d="M8011.37 14296.88c12.34,137.55 94.13,104.15 163.15,51.92 26.37,-19.96 7.16,-9.4 31.66,-19.83 99.66,314.49 -165.13,288.23 -211.16,262.38 -101.94,-57.23 -148.64,-263.55 -155.1,-410.51 -6.7,-152.64 22.31,-401.12 204.54,-361.27 111.03,24.29 163.56,273.45 167.87,414.35l-200.96 62.96zm367.58 -318.31l29.4 6.42c19.81,-78.4 91.42,-119.32 148.51,-48.7 70.7,87.47 78.92,587.6 85.66,723.57l-102.27 26.25c-21.71,15.12 -1.42,15 -34.07,6.1l-6.23 -65.81c4.12,-80.67 -9.38,-164.16 -15.57,-245.99 -4.99,-65.99 5.08,-181.38 -52.04,-211.88 -50.75,90.9 35.86,416.96 14.56,544.31l-138.79 37.35 -83.63 -808.3 153.75 -17.87 0.72 54.55zm-868.56 -239.61l229.27 -49.61c24.17,167.9 122.92,826.3 38.38,967.35 -41.38,69.03 -115.01,88.03 -192.96,66.34 -84.73,-23.58 -62.9,-54.22 -84.08,-260.41l-14.13 -28.52c64.82,-10.83 6.62,-4.6 33.09,11.11 28.39,39.98 48.82,45.65 106.63,44.66 38.73,-101.53 -1.53,-391.9 -19.73,-519.91l-65.56 10.56c-20,13.9 -0.64,14.34 -32.22,5.95l-8.86 -73.44 2.57 -79.79 -17.54 -80.54 25.14 -13.75zm1202.55 746.7l-18.93 -40.82 32.92 15.06c172.27,54.7 197.75,-65.78 166.3,-211.14 -29.74,77.51 -12.33,98.33 -88.4,133.48 -145.65,24.73 -171.55,-313.18 -177.49,-343.6 -27.05,-138.24 -100.06,-331.99 44.46,-419.24 72.56,-3.43 85.19,13.05 105.68,60.12l8.11 -40.11c0.13,-3.39 -3.3,-33.79 -3.8,-40.49l128.62 -34.69c34.44,67.15 116.22,554.43 137.04,666.91 21.64,116.93 32.2,256.02 -24,354.42 -47.65,83.43 -157.83,144.14 -276.66,91.16l-33.85 -191.06zm612.88 -308.37l-27.59 8.27c-36.83,101.65 -179.96,161.19 -237.85,-114.88 -65.62,-313.02 124.25,-281.02 167.88,-335 -67.14,-138.66 -112.16,-61.03 -183.96,4.76l-43.14 -185.93c57.99,-35.13 112.06,-101.57 222.4,-72.06 79.34,21.22 104.17,90.18 127.8,178.26 34.91,130.08 99.16,387.79 110.75,519.99l-124.44 40.36 -11.85 -43.77zm-359.57 -605.84l-14.37 23.67 -14.57 -53.63c-7.38,-48.98 -144.18,23.99 -204.01,35.68 -95.7,18.68 -165.57,-27.8 -180.35,296.07 -227.96,-66.69 -71,-75.04 -320.98,-65.49 -73.28,2.8 -73.02,-9.81 -86.03,48.05 -81.1,-98.58 -148.91,-91.15 -259.04,-29.45l-115.53 -179.14 -314.57 75.46c-0.23,72.53 9.74,139.57 15.29,205.47 8.25,97.69 -4.33,117.04 47.76,167.04 64.33,61.76 70.29,25.5 80.11,134.15 6.78,75.06 16.89,141.68 6.2,218.75 -60.61,0.2 -99.41,-46.72 -132.73,-77.56l-11.42 10.51 31.28 378.7c92.67,40.73 226.04,70.53 325.36,101.71 148.25,46.56 215.97,12.15 238.77,-135.05 95.62,43.31 54.7,57.07 159.63,49.88 46.76,-3.21 29.59,-26.51 50.85,11.06 20.68,22.7 10.25,22.51 43.36,30.77 87.61,-11.07 286.18,-95.85 352.06,-84.53 13.38,86.72 1.15,119.14 102.36,120.7 56.61,0.89 125.09,-29.18 162.95,-57.7 40.53,-30.56 83.28,-74.22 108.27,-117.81 120.42,-209.98 -41.18,-131.28 185.92,-200.25 66.82,-20.28 214.66,-163.52 285.8,-227.55 -19.24,-158.95 -89.15,-456.26 -132.24,-614.89 -89.2,-328.48 -379.75,-168.88 -410.13,-64.62z"/>
   <path class="fil3" d="M8831.44 14136.98c43.81,-57.92 13.59,-178.41 -9.28,-253.13 -17.56,-57.36 -11.28,-52.93 -58.72,-63.09 -15.67,67.82 -11.37,280.49 68,316.22z"/>
   <path class="fil3" d="M9254.92 14057.03c28.17,-46.76 24.71,-105.64 2.23,-167.12 -49.21,5.33 -64.65,18.08 -64.09,77.39 0.57,60.98 13.82,83.97 61.86,89.73z"/>
   <path class="fil3" d="M8046.54 14133.87c8.87,-17.41 12.03,2.11 12.09,-44.89 0.09,-80.14 -38.67,-90.54 -74.4,-98.36l0 154.59 62.31 -11.34z"/>
   <path class="fil10" d="M8937.31 13541.49l28.94 29.96c30.38,-104.26 320.93,-263.86 410.13,64.62 43.09,158.63 113,455.94 132.24,614.89 -71.14,64.03 -218.98,207.27 -285.8,227.55 -227.1,68.97 -65.5,-9.73 -185.92,200.25 -24.99,43.59 -67.74,87.25 -108.27,117.81 -37.86,28.52 -106.34,58.59 -162.95,57.7 -101.21,-1.56 -88.98,-33.98 -102.36,-120.7 -65.88,-11.32 -264.45,73.46 -352.06,84.53l-30.49 17.19 -12.87 -47.96c-21.26,-37.57 -4.09,-14.27 -50.85,-11.06 -104.93,7.19 -64.01,-6.57 -159.63,-49.88 -22.8,147.2 -90.52,181.61 -238.77,135.05 -99.32,-31.18 -232.69,-60.98 -325.36,-101.71l-31.28 -378.7 -11.36 -25.88c42.18,-0.81 10.16,-3.92 22.78,15.37 33.32,30.84 72.12,77.76 132.73,77.56 10.69,-77.07 0.58,-143.69 -6.2,-218.75 -9.82,-108.65 -15.78,-72.39 -80.11,-134.15 -52.09,-50 -39.51,-69.35 -47.76,-167.04 -5.55,-65.9 -15.52,-132.94 -15.29,-205.47l314.57 -75.46 115.53 179.14c110.13,-61.7 177.94,-69.13 259.04,29.45 13.01,-57.86 12.75,-45.25 86.03,-48.05 249.98,-9.55 93.02,-1.2 320.98,65.49 14.78,-323.87 84.65,-277.39 180.35,-296.07 59.83,-11.69 196.63,-84.66 204.01,-35.68zm-1383.05 796.87l12.37 30.58c-62.86,9.71 -12.17,6.63 -32.82,-15.34 -17.88,-29.6 -36.95,-38.3 -64.48,-61.23l-76.72 -63.21 51.11 557.54c8.66,18.13 54.55,33.49 77.19,40.01 106.21,30.58 368.11,132.61 457.95,98.36 72.55,-27.64 71.72,-69.37 120.89,-112.95l118.81 28.05 22.38 55.18 378.81 -108c9.79,99.95 15.28,106.69 123.91,117.71 177.78,18.04 362.34,-155.09 394.29,-351.72 167.68,-40.17 134.83,-22.57 238.34,-120.12 61.11,-57.58 130.86,-107.91 187.56,-172.69 -18.59,-148.71 -69.05,-333.01 -102.11,-484.7 -48.41,-222.18 -121.5,-511.24 -436.3,-345.75 -247.79,130.28 -487.3,-7.27 -521.94,356.62 -100.2,11.99 6.09,-51.18 -283.75,-32.27 -167.47,10.93 -131.15,-66.18 -319.55,-7.02 -46.07,-49.34 -67.89,-118.42 -119.73,-161.88 -62.48,13.86 -124.85,30.6 -189.83,46.63l-190.52 56.32c3.92,84.52 15.72,302.48 31.8,375.54 25.14,114.18 120.65,2.82 122.34,274.34z"/>
   <path class="fil11" d="M7533.81 14353.6c20.65,21.97 -30.04,25.05 32.82,15.34l-12.37 -30.58c-3.15,25.52 4.06,21 -20.45,15.24z"/>
   <path class="fil12" d="M7501 14462.63c1.74,-23.3 -4.51,-17.41 18.96,-17.41 -26.47,-15.71 31.73,-21.94 -33.09,-11.11l14.13 28.52z"/>
   <path class="fil3" d="M9564.46 16389.06c-26.01,91.49 -27.95,233.01 -12.74,331.31 31.64,204.36 141.39,331.7 338.73,395.09 91.77,29.47 219.32,43.05 328.39,38.78 234.93,-9.19 405.84,-54.1 540.86,-192.07 60.15,-61.47 100.16,-148.88 120.57,-247.08 17.69,-85.12 16.48,-254.4 -12.86,-330.38 -12.47,-70.1 -68.53,-146.03 -115.49,-195.59 -11.37,-12 -63.36,-67.35 -61.47,-93.57 0.71,-9.98 10.02,-17.56 15.18,-24.72 18.42,-25.55 24.82,-68.62 7.28,-90.7 -101.01,-127.11 -1038.2,-134.32 -1089.5,38.04 -5.2,17.49 -2.01,54.72 2.82,71.64 6.12,21.38 18.26,32.76 33.57,44.58 48.1,37.14 -6.91,60.41 -52.75,143.53 -14.97,27.16 -36.58,76.38 -42.59,111.14z"/>
   <path class="fil5" d="M9602.27 16568.07c6.48,-7.6 14.35,-109.74 128.27,-140.24 39.28,-10.52 83.89,-1.77 113.19,14.45 31.97,17.71 47.43,32.36 68.26,66.24 7.79,-0.44 2.89,0.69 11.02,-4.18 59.71,-35.73 120.91,-37.46 180.42,-0.07 39.17,24.62 65.21,67.91 72.43,112.92 3.6,22.38 -1.74,41.03 0.03,58.13 19.64,-7.03 27.12,-8.85 50.79,-13.15 1.1,-48.16 -10.47,-58.78 20.88,-116.16 35.72,-65.36 119.25,-96.92 193.81,-72.82 21.24,6.86 49.44,24.53 64.44,40.19 5.93,6.18 11.13,15.09 17.71,19.7 7.1,-3.39 8.04,-7.44 13.49,-13.1 63.51,-66.06 176.43,-70.07 246.14,14.12 15.22,18.38 14.21,28.02 24.29,34.31 0.3,-50.03 -13.84,-105.25 -29.86,-143.99 -18.02,-43.54 -45.73,-67.81 -72.11,-101.92 -60.43,-78.13 -65.72,-164.15 -19.04,-257.77 8.78,-17.6 27.06,-39.63 12.88,-62.43 -56.83,-91.38 -415.23,-105.09 -506.58,-102.74 -109.24,2.81 -221.4,1.82 -325.04,21.57 -71.76,13.67 -228.92,46.08 -225.92,122.17 2.81,71.42 49.47,83.7 61.15,111.01 8.65,20.23 -14.21,42.48 -23.01,59.29 -45.06,86.06 -72.95,168.61 -78.77,268.96 -1.86,32.04 0.23,55.82 1.13,85.51z"/>
   <path class="fil3" d="M10113.24 15919.17c-126.84,6.88 -155.59,7.57 -281.04,33.14 -58.86,12 -220.59,62.59 -126.2,129.28 107.65,76.06 410.77,83.48 547.66,80.71 101.4,-2.04 185.25,-15.53 280.23,-32.98 57.43,-10.55 221.42,-64.78 123.42,-130.64 -100.73,-67.7 -392.49,-87.74 -544.07,-79.51z"/>
   <path class="fil5" d="M10148.55 15955.37l-137.53 4.65c-43.26,3.15 -88.53,6.71 -130.74,12.78 -33.79,4.85 -247.04,35.08 -162.3,83.93 90.93,52.42 397.7,58.39 511.74,57.4 87,-0.75 182.79,-4.89 266.88,-17.48 23.22,-3.48 248.62,-35.49 162.41,-84.41 -56.89,-32.28 -170.14,-39.34 -238.3,-47.44 -43.28,-5.14 -88.71,-5.76 -132.4,-8.45 -23.06,-1.43 -119.67,-3.75 -139.76,-0.98z"/>
   <path class="fil3" d="M10579.92 15436.09c-31.47,5.01 -36.98,6.29 -61.69,19.61 -54.8,29.52 -90.97,93.24 -83.29,164.27 14.84,137.36 195.7,196.77 289.15,84.78 25.93,-31.07 44.65,-75.52 38.19,-125.39 -10.47,-80.85 -88.67,-158.16 -182.36,-143.27z"/>
   <path class="fil5" d="M10303.75 16803.67c-77.78,10.69 -125.07,65.42 -119.87,144.38 7.36,111.77 157.51,162.09 231.47,72.34 23.39,-28.38 34.47,-57.02 31.09,-100.79 -5,-64.75 -71.37,-125.73 -142.69,-115.93z"/>
   <path class="fil5" d="M10559.61 15450.55c-73.14,17.6 -118.02,75.3 -106.32,152.31 10.23,67.34 73.19,118.65 150.97,108.25 34.94,-4.66 63.48,-25.42 83.09,-49.56 21.01,-25.86 30.71,-60.61 25.97,-102.41 -7.01,-61.71 -79.04,-126.56 -153.71,-108.59z"/>
   <path class="fil5" d="M9985.35 16492.34c-40.23,5.86 -67.09,19.05 -88.01,45.21 -48.16,60.22 -39.43,141.13 13.57,185.36 23.52,19.63 58.61,36.85 97.66,32.01 37.92,-4.69 67.38,-19.48 88.16,-44.32 19.73,-23.58 37.08,-57.24 32.28,-98.98 -8.92,-77.53 -76.29,-129.09 -143.66,-119.28z"/>
   <path class="fil5" d="M9929.59 16787.1c-27.49,9.26 -52.17,38.77 -63.18,65.61 -48.25,117.68 78.36,222.38 179.21,170.11 57.9,-30.01 97.24,-102.98 62.45,-175.04 -6.87,-14.23 -15.51,-26.81 -27.08,-38.28 -27.43,-27.2 -32.71,10.87 -106.22,-7.28 -8.3,-2.05 -17.13,-4.72 -24.41,-8.07 -4.05,-1.85 -6.13,-3.33 -9.87,-5.29 -8.95,-4.71 -8.9,-2.43 -10.9,-1.76z"/>
   <path class="fil5" d="M9847.95 16657.99c2.61,-22.74 0.03,-35.05 5.75,-56.95 5.1,-19.52 11.21,-31.86 19.67,-46.07 8.16,-13.7 12.64,-16.14 -3.17,-45.67 -7.28,-13.6 -17.5,-28.37 -28.24,-37.19 -24.73,-20.3 -52.36,-36.41 -95.38,-34.03 -38.02,2.11 -70.72,18.1 -90.42,41.24 -86.76,101.96 3.93,213.83 68.83,219.35 12.96,1.1 13.97,-4.91 22.31,-11.05 28.26,-20.81 58.41,-26.72 100.65,-29.63z"/>
   <path class="fil5" d="M10252.2 16662.3c65.13,7.12 94.88,32.69 129.86,78.85 35.74,4.93 78.84,-25.55 99.9,-54.35 19.35,-26.46 -0.93,-34.82 11.57,-88.95 4.36,-18.86 10.58,-20.45 0.96,-40.6 -10.62,-22.24 -27.2,-43.43 -47.85,-56.57 -109.53,-69.65 -245.22,39.71 -194.44,161.62z"/>
   <path class="fil5" d="M10693.2 16497.93c-1.29,24 -3.66,36.02 -10.88,56.52 -6.71,19.04 -16.1,37.29 -0.68,52.18 26.75,2.27 24.23,-10.13 22.69,-30.54 6.32,-4.67 25.86,-16.14 34.63,-16.97 26.06,56.65 -46.92,83.43 -65.3,82.44 -21.92,-1.18 -37.47,-19.94 -37.31,-43.72 0.19,-26.54 16.06,-43.88 17.41,-64.99 -6.65,1.65 -43.84,26.95 -49.72,31.05 -5.58,-4.69 -15.42,-19.22 -17.12,-26.95 13.42,-11.43 46.21,-29.95 62.41,-41.56 7.47,-5.35 5.07,-2.06 7.54,-8.78 -169.53,-14.1 -205.73,207.82 -54.14,257.79 109.23,36.01 204.93,-89.77 154.86,-184.85 -12.39,-23.52 -36.94,-54.47 -64.39,-61.62z"/>
   <path class="fil5" d="M10404.61 16806.61c32.01,17.21 53.11,37.07 69.38,66.75 17.74,32.39 24.06,60.47 20.14,97.93l-0.45 9.06c2.4,19.71 89.32,14.55 132.43,-38.58 29.66,-36.57 41.84,-90.66 18.08,-140.58 -42.25,-10.73 -31.98,-1.58 -75.2,-24.93 -15.57,-8.42 -40.92,-31.03 -50.86,-48.84 -29.01,-1.42 -57.5,11.85 -73.08,24.74 -13,10.74 -39.87,36.83 -40.44,54.45z"/>
   <path class="fil5" d="M9837.21 16936.05c3.3,-9.58 1.56,-27.89 3.73,-39.64 2.39,-12.93 7.97,-25.18 4.57,-36.02 -9.31,-29.67 -12.6,-41.24 -12.74,-77.28 -8.47,0.76 -48.29,34.08 -55.71,39.62l-19.88 -24.39c2.62,-5.48 82.87,-68.42 91.7,-70.61 21.18,15.8 13.78,30.57 13.36,41.85 -0.73,19.58 3.28,36.93 7.88,52.84 12.87,-5.3 21.32,-27.27 51.52,-41.91 -6.5,-6.74 -13.57,-11.42 -22.47,-19.77 -23.82,-22.35 -39.23,-51.67 -47.55,-85.38 -50.47,-5.71 -79.24,1.9 -110.46,27.88 -25.62,21.33 -44.91,51.61 -47.28,94.62 -4.44,80.54 64.25,145.59 143.33,138.19z"/>
   <path class="fil5" d="M10097.13 16784.86c4.74,8.84 30.62,21.32 48.14,53.89 17.24,32.06 17,38.55 24.38,77.98 4.89,-19.93 12.27,-36.94 23.07,-53.68 18.94,-29.34 53.69,-56.65 88.72,-67.4 28.09,-8.62 44.51,-6.65 74.38,-6.22 -0.47,-60.76 -83.92,-140.09 -176.41,-104.99 -11.84,4.49 -9.04,10.98 -23.3,37.85 -22.1,41.62 -48.08,49.21 -58.98,62.57z"/>
   <path class="fil3" d="M9960.21 16611.5c-38.25,12.38 -46.89,69.3 18.02,83.68 43.97,9.75 71.99,-8.37 69.25,-42.95 -1.31,-16.44 -10.05,-17.77 -13.46,-28.32 33.98,-16.55 32.62,-60.44 -21.37,-72.72 -34.5,-7.84 -65.34,3.8 -63.45,35.78 0.7,11.77 7.28,14.95 11.01,24.53z"/>
   <path class="fil3" d="M10542.51 15526.51l34.3 13.54c5.39,-13.22 21.99,-21.05 29.93,-7.09 3.77,6.65 1.2,15.01 -3.12,18.8 -7.06,6.2 -12.42,3.41 -21.83,4.2 -2.63,9.48 -6.29,17.28 -5.34,26.43 10.98,0.17 19.84,0.93 23.91,9.14 4.31,8.7 1.73,20.06 -2.85,25.86 -5.12,6.51 -24.51,17.13 -32.59,-10.15 -3.6,-12.15 -17.2,-11.68 -39.94,-10.09 -4.3,50.13 89.17,77.26 113.34,26.23 3.9,-8.24 5.6,-18.69 2.74,-28.74 -3.16,-11.14 -9.92,-12.04 -15.56,-20.29 11.58,-10.44 23.85,-13.3 22.46,-34.53 -2.88,-43.99 -95.02,-54.42 -105.45,-13.31z"/>
   <path class="fil5" d="M9681.69 16871.81c0.14,-11 -3.85,-23.62 -4.84,-34.81 -4.9,-55.24 16.94,-80.51 22,-97.8 -6.55,-7.67 -47.18,-23.28 -70.51,-64.63 -4.72,-8.37 -11.42,-24.46 -16.27,-28.83 0.25,56.87 38.93,198.79 69.62,226.07z"/>
   <path class="fil5" d="M10686.79 16797.91c0.47,8.83 9.45,19.38 14.49,44.52 4.3,21.45 3.22,35.17 2.65,57.81 23.25,-11.25 90.34,-138.98 88.91,-175.53 -10.2,16.52 -26.79,32.08 -43.14,44.8 -7.93,6.17 -19.52,12.08 -28.97,16.69 -11.54,5.62 -23.68,6.91 -33.94,11.71z"/>
   <path class="fil5" d="M10102.72 17056.91c16.94,0.97 33.5,2.41 50.24,4.78 14.86,2.1 35.67,1.48 53.14,1.66 -1.24,-9.61 -7.53,-10.85 -12.81,-19.94 -31.6,-54.43 -19.26,-52.63 -27.47,-70.82 -10.7,1.35 -9.98,21.63 -27.74,44.79 -8.92,11.64 -15,19.4 -26,28.31 -7.3,5.9 -6.84,3.3 -9.36,11.22z"/>
   <path class="fil5" d="M9984.9 16631.18c-22.86,7.81 -15.58,46.26 8.97,40.21 22.67,-5.59 18.63,-49.64 -8.97,-40.21z"/>
   <path class="fil5" d="M9993.75 16577.04c-20.27,15.17 1.06,37.74 17.92,26.9 16.84,-10.82 -0.21,-40.15 -17.92,-26.9z"/>
   <path class="fil3" d="M8214.14 15168.72l-17.03 0c-28.46,29.92 -58.69,113.05 -76.41,162.12 -27.51,76.19 -8.8,130.35 71.69,139.57 1.11,106.12 -13.11,28.11 -55.97,94.81 -15.93,24.8 -13.62,54.48 -15.03,87.42 -67.34,-14.92 -77.91,-49.05 -131.29,3.79l-635.42 635.6c-53.21,53.34 -72.88,59.25 -73.24,110.17l0.11 544.8c-1.04,211.24 -15.61,213.36 147.07,163.6 90.82,-27.78 183.62,-55.67 273.42,-84.94 183.82,-59.91 369.22,-113.07 554.72,-171.74l416.06 -128.79c36.81,-11.18 108.46,-22.59 118.41,-58.6 6.98,-25.3 3.02,-646.54 1.98,-725.14 -0.48,-36.19 -0.09,-51.12 -29.06,-64.97 -54.65,-26.12 -439.3,-145.6 -465.2,-163.05 -2.25,-71.59 13.73,-131.61 -35.14,-170.15 -42.31,-33.37 -43.47,12.22 -38.71,-71.92 61.93,-24.78 110.68,-32.85 69.53,-144.62 -17.43,-47.31 -54.07,-131.33 -80.49,-157.96z"/>
   <path class="fil13" d="M7478.45 17517.31c-1.37,5.64 -5.22,10.99 -11.27,15.76 -4.75,3.75 -9.72,6.19 -14.78,7.75 -5.84,1.8 -9.46,1.68 -9.67,-0.65 -3.15,-34.51 -5.58,-81.22 -8.69,-139.66 -0.86,-0.89 -1.34,-1.28 -1.85,-1.09 -0.22,0.07 -0.88,0.88 -1.23,2.06 -12.33,40.37 -24.14,81.03 -36.7,121.43 -2.48,7.98 -6.52,11.61 -10.85,13 -7.06,2.28 -11.76,2.4 -14.05,-2 -2.38,-4.55 -4.84,-11.73 -8.6,-20.83 -3.05,-7.4 -7.08,-18.53 -11.82,-33.26 -5.03,-15.6 -8.91,-26.67 -11.73,-33.25 -3.98,28.59 -7.15,48.82 -8.97,60.63 -4.43,28.72 -8.22,48.16 -11.42,58.4 -3.98,12.76 -9.84,19.43 -17.65,21.63 -7.02,1.99 -11.29,1.18 -12.98,-4.37 2.21,-29.86 5.93,-66.96 11.55,-111.03 5.58,-43.79 12.9,-94.5 21.96,-151.88 2.62,-4.7 8.11,-8.52 16.26,-11.37 3.64,-1.26 6.23,-1.57 7.79,-0.92 8.95,21.86 21.05,59.29 36.46,113.08 22.31,-63.07 42.36,-113.67 59.85,-152.08 6.88,-3.46 11.85,-5.79 15.1,-6.92 7.71,-2.72 12.89,-0.31 14.92,7.5 0.9,3.47 1.41,12.41 1.83,26.5 0.42,14.11 1.69,40.35 3.64,78.49 1.62,31.94 2.99,58.35 3.35,79.44 0.37,22.62 0.39,43.85 -0.45,63.64zm166.23 -44.42c-1.98,6.7 -10.52,14.8 -25.41,24.08 -5.14,3.21 -8.27,4.09 -9.46,2.47 -0.47,-0.62 -1.3,-4.4 -2.73,-10.91 -2.57,-11.72 -6.5,-33.54 -11.67,-65.31 -0.25,-1.56 -0.49,-3.06 -0.71,-4.72 -1.17,0.87 -2.1,1.67 -3.11,2.3 -6.02,3.69 -17.03,10.67 -32.49,21.47 -5.47,3.82 -8.98,10.99 -10.4,21.32 -2.2,15.95 -5.09,33.64 -8.5,52.9 -12.49,4.86 -24.47,4.88 -36.18,0.41 -0.31,-0.11 -0.47,-0.16 -0.63,-0.28 0.06,-0.35 0.3,-0.73 0.39,-1.2 3.16,-15.78 12.74,-69.69 29.23,-161.12 9.87,-54.72 18.48,-95.56 25.9,-122.93 3.33,-2.72 6.9,-4.75 10.99,-6.19 4.32,-1.54 9.15,-2.52 14.86,-2.57 10.56,26.53 20.89,60.38 30.73,101.55 9.98,41.71 19.63,91.19 29.19,148.73zm-59.62 -91.45c-0.15,-1.1 -0.27,-2.34 -0.39,-3.57 -0.35,-3.89 -4.78,-25.17 -12.98,-63.51 -1.04,-4.9 -2.16,-9.62 -3.14,-14.57 -1.16,5.56 -1.98,11.17 -2.95,16.64 -3.49,19.67 -7.07,45.43 -10.49,77.26 -0.24,2.14 -0.57,4.18 -0.78,6.32 1.51,-0.83 3.05,-1.83 4.73,-2.74 4.5,-2.47 12.55,-6.87 23.78,-13.79 0.75,-0.46 1.42,-1.39 2.22,-2.04zm228.9 -301.75c-6.41,24.16 -16.76,38.48 -31.16,43.46 -6.71,2.33 -15.25,-1.88 -25.29,-12.65 -10.07,-10.79 -18.56,-15.15 -25.2,-12.88 -14.11,4.86 -25.98,15.29 -35.63,31.01 -2.57,-2.49 -3.95,-8.03 -3.84,-16.48 6.15,-24.29 18.43,-40.97 36.71,-50.2 6.49,-3.27 15.02,-0.22 24.88,9.42 10.46,10.23 18.61,14.38 25.32,12.02 12.09,-4.26 22.74,-12.46 32.2,-24.79 1.18,-0.14 1.93,2.01 2.2,6.75 0.19,3.53 0.15,8.2 -0.19,14.34zm31.78 66.22c-3.03,55.66 -5.5,111.91 -8.81,168.53 -3.95,67.54 -8.7,106.07 -12.55,115.41 -1.87,1.14 -5.68,4.46 -11.52,9.63 -4.6,4.08 -8.66,6.46 -12.05,7.53 -1.95,0.61 -3.86,0.89 -5.38,0.82 -13.49,-12.05 -25.6,-27.25 -35.6,-45.99 -6.2,-11.61 -15.08,-29.31 -27.34,-52.67 -7.37,-14.07 -14.92,-28.9 -22.26,-44.37 -1.35,49.42 -2.57,99.36 -3.94,149.54 -4.47,6.49 -9.34,11.49 -14.68,14.72 -3.93,2.38 -9.26,4.52 -15.84,6.21 -7.45,1.91 -11.67,-5.48 -12.27,-22.09 -1.14,-31.39 -0.83,-74.8 0.53,-129.97 1.68,-68.4 2.26,-110.44 2.16,-126.48 1.43,-3.45 3.49,-6.02 5.89,-8.01 4.59,-3.79 7.32,-6.11 7.78,-6.46 4.31,-3.21 7.38,-5 9.13,-5.59 2.84,-0.96 6.38,-0.28 10.28,2.32 24.77,39.31 52.19,88.89 82.94,149.48 1.07,-0.39 2.15,-0.76 3.55,-1.1 0.85,-22.9 4.86,-84.77 12.24,-184.35 3.78,-1.86 9.87,-6.42 18.66,-13.58 8.24,-6.72 14.17,-10.9 17.91,-12.24 6.81,-2.42 10.43,2.63 11.2,15.06 0.19,3.23 0.29,7.83 -0.03,13.65zm199.07 204.02c-2.06,7.28 -11.68,15.84 -28.71,26.24 -5.5,3.35 -9.03,4.61 -10.54,2.96 -0.67,-0.72 -1.76,-4.66 -3.68,-11.58 -3.46,-12.38 -8.98,-35.23 -16.16,-68.78 -0.33,-1.57 -0.71,-3.18 -1.12,-4.88 -1.3,0.88 -2.38,1.78 -3.55,2.46 -6.9,4.05 -19.1,11.81 -36.78,23.65 -6.22,4.16 -9.93,11.78 -11.19,22.73 -1.97,17.01 -4.44,35.85 -7.55,56.27 -14.35,5.45 -28.26,5.91 -42.07,1.3 -0.31,-0.1 -0.49,-0.15 -0.47,-0.25 0.06,-0.37 0.12,-0.86 0.2,-1.33 2.73,-16.71 11.88,-73.92 27.32,-170.97 9.23,-58.07 17.69,-101.37 25.34,-130.43 3.6,-2.91 7.6,-5.31 12.16,-6.91 5.06,-1.78 10.7,-2.78 17.04,-3.13 13.49,27.79 26.96,63.04 40.05,106.29 13.23,43.72 26.41,95.87 39.71,156.36zm-72.79 -94.92c-0.31,-1.19 -0.37,-2.49 -0.58,-3.84 -0.64,-4.05 -6.56,-26.54 -17.75,-66.72 -1.41,-5.07 -2.96,-10.1 -4.33,-15.29 -0.91,5.94 -1.85,11.87 -2.7,17.69 -3.05,20.85 -6.36,48.16 -9.02,81.9 -0.18,2.21 -0.35,4.52 -0.52,6.73 1.82,-0.92 3.46,-1.91 5.31,-2.98 4.94,-2.87 14.18,-7.72 26.93,-15.35 0.88,-0.53 1.72,-1.42 2.66,-2.14zm293.11 -256.84c-1.14,59.08 -1.74,118.64 -3.3,178.69 -1.84,71.54 -5.44,112.62 -9.78,122.59 -2.17,1.28 -6.56,5.03 -13.14,10.63 -5.14,4.38 -9.65,7.09 -13.68,8.27 -2.24,0.66 -4.32,1 -6.31,0.94 -16.08,-12.3 -30.82,-28.15 -43.17,-47.68 -7.66,-12.13 -18.94,-30.62 -34.06,-54.88 -9.21,-14.8 -18.37,-30.2 -27.52,-46.44 0.52,52.4 0.85,105.26 1.53,158.41 -5.18,7.01 -10.44,12.49 -16.53,15.99 -4.69,2.69 -10.81,4.96 -18.3,6.92 -8.72,2.29 -13.79,-5.38 -15.15,-23.06 -2.55,-33.09 -3.87,-79.07 -4.62,-137.52 -0.94,-72.31 -1.83,-116.57 -2.47,-133.51 1.53,-3.67 3.59,-6.59 6.23,-8.64 5.36,-4.18 8.36,-6.58 8.95,-7 4.93,-3.54 8.22,-5.55 10.14,-6.23 3.46,-1.23 7.66,-0.5 12.4,2.07 29.95,40.8 63.86,92.37 102.25,155.43 1.22,-0.43 2.61,-0.86 4,-1.29 0.01,-24.24 2.41,-89.66 6.81,-195.2 4.25,-2.13 11.26,-6.95 21.14,-14.87 9.15,-7.33 15.93,-11.95 20.25,-13.5 7.75,-2.77 12.37,2.36 13.84,15.36 0.39,3.45 0.63,8.33 0.49,14.52zm94.7 -26.05c-1.89,34.18 -0.75,80.53 1.18,139.22 2.23,67.58 3.07,115.26 2.25,142.36 -8.64,12.75 -21.41,21.19 -38.29,25.14 -2.34,-1.21 -5.11,-5.56 -8.54,-12.57 -5.9,-51.7 -10.4,-102.67 -13.13,-152.8 -2.72,-49.65 -4.35,-98.78 -4.44,-147.23 5.9,-3.62 11.97,-7.28 18.2,-10.98 8.55,-5.07 15.77,-8.69 21.45,-10.73 13.42,-4.84 20.88,-1.43 22.3,10.04 0.57,4.63 -0.58,10.47 -0.98,17.55zm205.06 -110.08c1.72,8.87 3.49,18.4 4.8,28.11 1.28,9.43 2.46,18.98 3.27,28.63 -10.64,4.06 -26.34,10.29 -46.99,18.71 -3.47,1.41 -8.49,3.8 -14.96,7.05 -1.01,1.6 -1.1,9.36 -0.4,23.38 2.68,53.61 5.92,136.57 9.62,250.02 -2.66,4.06 -7.98,6.78 -16.15,8.33 -6.97,1.33 -13.94,2.52 -20.76,3.83 -0.91,-0.7 -1.7,-1.06 -2.53,-1.12 -4.69,-22.84 -9.12,-51.38 -13.54,-85.66 -8.18,-63.14 -13.92,-117.09 -17.05,-162.44 -0.3,-4.51 -0.67,-9.05 -0.93,-13.47 -8.72,2.75 -17.63,5.49 -26.33,8.22 -4.11,1.29 -11.15,3.82 -21.24,6.84 -10.91,3.27 -16.65,0.73 -16.81,-7.28 -0.33,-16.08 -0.61,-32.07 -0.68,-48.02 29.74,-12.22 61.26,-24.55 94.83,-36.47 27.33,-9.71 55.8,-19.2 85.85,-28.66zm272.76 245.1c-2.19,8.22 -13.92,18.34 -35.17,30.64 -6.94,4.01 -11.58,5.51 -13.64,3.73 -0.82,-0.7 -2.68,-5.03 -5.76,-12.5 -5.56,-13.44 -14.44,-38.83 -26.64,-75.32 -0.6,-1.8 -1.24,-3.61 -1.86,-5.41 -1.61,1.07 -3.09,2.13 -4.45,2.92 -8.48,4.88 -23.99,13.87 -45.98,27.96 -7.67,4.91 -11.86,13.69 -12.66,25.95 -1.23,18.86 -2.99,39.73 -5.54,62.43 -18.01,6.8 -36.22,7.94 -54.46,3.64 -0.31,-0.07 -0.65,-0.03 -0.81,-0.15 0.06,-0.54 0.13,-1.11 0.19,-1.64 2.46,-18.54 9.95,-82.3 22.54,-189.89 7.55,-64.51 15.43,-112.61 22.89,-144.86 4.32,-3.46 9.36,-6.34 15.15,-8.34 6.42,-2.23 13.78,-3.72 21.67,-4.31 19.83,29.52 39.93,67.63 60.31,114.43 20.72,47.59 42.08,104.33 64.22,170.72zm-102.44 -101.12c-0.51,-1.23 -0.64,-2.6 -1.03,-4.02 -1.25,-4.48 -10.66,-28.9 -28.14,-72.67 -2.21,-5.56 -4.48,-11.02 -6.65,-16.41 -0.74,6.48 -1.47,12.98 -2.21,19.47 -2.61,23.05 -4.34,53.32 -5.49,90.65 -0.09,2.53 -0.23,4.95 -0.03,7.5 2.1,-1.17 4.33,-2.45 6.5,-3.63 6.25,-3.39 17.81,-9.22 33.8,-18.29 1.07,-0.61 2.16,-1.72 3.25,-2.6zm245.77 -266.63c-0.42,0.91 -0.67,1.85 -0.75,2.65 -51.01,44.06 -75.8,83.95 -73.75,120.42 0.18,3.21 0.76,6.89 1.48,10.94 2.81,15.54 12.03,28.56 28.21,37.4 9.4,5.13 24.66,11.17 44.72,20.92 24.93,12.14 38.52,32.2 41.09,58.91 3.36,34.93 -5.66,62.39 -27.05,82.52 -16.4,15.44 -35.62,26.42 -56.74,32.84 -16.17,4.91 -31.7,6.28 -46.67,4.15 -0.63,-0.37 -1.24,-0.84 -1.51,-1.42 -1.97,-3.29 -4.8,-8.31 -7.61,-15.82 -2.74,-7.34 -1.64,-14.35 2.15,-20.65 0.69,-0.32 1.39,-0.76 2.1,-1.2 7.66,0.8 15.33,-0.1 23.68,-2.66 13.94,-4.29 27.22,-11.37 37.65,-23.46 6.99,-8.1 7.94,-19.58 5.58,-32.36 -0.93,-5.06 -2.43,-10.08 -4.56,-14.95 -7.84,-8.63 -19.18,-17.6 -34.12,-26.3 -12.46,-7.26 -24.92,-13.99 -37.16,-21.31 -29.87,-17.86 -46.21,-40.93 -49.4,-68.38 -3.77,-32.39 9.25,-68.17 39.03,-107.52 23.57,-31.14 53.23,-58.96 88.96,-84.14 1.68,-1.18 3.77,-1.89 6.52,-1.88 2.91,0.01 4.6,-0.02 5.56,-0.44 0.76,-0.32 1.38,-0.96 2.08,-1.45 0.09,0.8 0.48,1.61 0.75,2.25 5.6,13.21 8.77,30.16 9.76,50.94z"/>
   <path class="fil3" d="M8457.9 15084.58l82.34 340.16c-7.52,1.64 -9.81,-0.76 -31.77,4.55 -12.46,3.02 -20.35,7.6 -28.41,12.92 -14.39,9.51 -28.32,26.39 -33.7,42.46 -16.99,50.8 29.97,74.44 75.29,65.11l6.58 -1.59c22.05,-6.15 42.94,-20.26 54.97,-43.05 12.1,-22.95 8.3,-36.82 1.94,-63.1 -19.85,-81.99 -40.63,-173.54 -61.68,-254.42 -3.28,-12.59 -7.79,-8.96 23.3,-22.35 12.41,-5.35 22.59,-10.13 34.78,-15.32l137.26 -61.19 55.84 230.7c-31.2,-6.65 -93.03,22.68 -98.17,72.45 -4.23,41.01 37.66,62.74 76.93,53.24 25.41,-6.15 45.33,-18.18 57.53,-35.48 12.83,-18.17 17.82,-34.83 11.83,-59.58l-91.64 -378.6c-12.81,3.1 -122.03,50.32 -136.6,56.56l-136.62 56.53z"/>
   <path class="fil3" d="M7324.11 16006.08c-22.38,7.14 -23.66,-1.45 -59.51,26.54 -8.58,6.71 -15.14,15.13 -20.48,24.1 -39.2,65.86 18.06,114.86 82.93,88.08 31.19,-12.88 59.55,-45 61.74,-79.21 0.78,-12.12 -2.28,-24 -8.21,-38.37l-134.13 -324.9c42.98,-17.74 107.62,0.68 147.88,22.67l43.1 25.24c-46.77,-91.04 -134.7,-76.97 -213.93,-110.44 -5.45,-2.3 -10.85,-4.1 -15.81,-6.81 -1.99,-1.07 -5.37,-3.11 -7.44,-4.53 -2.37,-1.63 -5.22,-5.16 -7.4,-4.41l-0.1 0.04c-13.36,5.51 -18.34,19.8 -11.56,35.98l142.92 346.02z"/>
   <path class="fil3" d="M8883.74 16342.26l43.14 178.18c-48.25,0.42 -61.22,43.94 -40.12,60.12 19.11,14.64 54.16,1.92 64.47,-21.37 7.02,-15.88 -11.01,-71.16 -15.97,-91.64 -8.2,-33.89 -12.91,-62.16 -20.76,-94.58 14.52,-2.27 35.04,3.58 45.29,9.65l37.38 25.44c-12.19,-50.36 -88.31,-52.11 -100.86,-75.2 -11.11,2.96 -6.51,2.58 -12.57,9.4z"/>
   <path class="fil3" d="M7386.59 15811.3l51.68 125.18c-35.17,5.77 -39.7,39.01 -22.47,48.43 15.61,8.52 39.76,-4.74 44.64,-22.91 3.33,-12.39 -16.1,-50.69 -22.04,-65.08 -9.83,-23.81 -16.47,-43.91 -25.88,-66.69 10.34,-3.29 25.98,-1.35 34.16,1.92l30.16 14.33c-14.6,-35.37 -70.36,-28.03 -82.14,-43.46 -7.77,3.42 -4.45,2.62 -8.11,8.28z"/>
   <path class="fil3" d="M7567.27 15898.05c-12.08,-0.68 -25.68,13.57 -19.76,27.9 7.04,17.05 44.92,1.17 34.49,-24.11l-31.94 -77.36c9.51,-3.68 16.6,-1.59 24.26,0.53 9.12,2.53 14.91,8.68 21.36,10.27 -13.65,-26.55 -49.84,-19.4 -59.12,-31.56 -8.42,10.14 -0.59,18.51 10.39,45.1 6.77,16.4 13.54,32.81 20.32,49.23z"/>
   <g>
    <path class="fil14 str0" d="M9808.85 15823.41l-79.71 50.3 -114.6 -180.01 -6.6 0 0 171.01 -94.21 0 0 -430.82 92.41 0 0 14.4c41.9,-0.4 77.4,11.3 106.5,35.2 29,23.8 43.5,52.5 43.5,86.2 0,30.81 -12.9,59.91 -38.8,87.11 -2.9,2.4 -6.3,5 -10.3,7.8l101.81 158.81zm-153.51 -235.31c5.6,-6.4 8.4,-14 8.4,-22.81 0,-9.6 -3.4,-18.7 -10.3,-27.3 -6.9,-8.6 -22.6,-12.9 -47.3,-12.9l0 76.21c20.4,0 36.8,-4.4 49.2,-13.2zm237.01 -65.71c0,10.5 -3.7,19.5 -11.1,26.9 -7.4,7.5 -16.3,11.2 -26.7,11.2 -10.4,0 -19.3,-3.7 -26.7,-11.2 -7.4,-7.4 -11.1,-16.4 -11.1,-26.9 0,-10.5 3.7,-19.4 11.1,-26.6 7.4,-7.3 16.3,-10.9 26.7,-10.9 10.4,0 19.3,3.6 26.7,10.9 7.4,7.2 11.1,16.1 11.1,26.6zm2.4 349.52l-78 0 0 -279.61 78 0 0 279.61zm270.01 -315.02l-57.9 42.81 -20.2 -30.11c-0.8,-1.2 -3.1,-4.1 -6.9,-8.8 -3.8,-4.6 -10.1,-10.3 -18.9,-17.1 -5.5,-3.2 -10.3,-1.6 -14.3,4.8 -2.4,3.2 -4.7,21.8 -6.9,55.81 -2.2,34 -3.5,66.8 -3.9,98.4l51.6 0 0 73.21 -51.6 0c0.8,63.6 3,135 6.6,214.21l-70.81 3.6c-3.6,-83.61 -5.8,-156.21 -6.6,-217.81l-47.4 0 0 -73.21 47.4 0c1.6,-110 9.4,-175.21 23.4,-195.61 17.61,-26.4 38.61,-39.6 63.01,-39.6 17.6,0 35.6,6.6 54,19.8 15.2,11.2 28.2,24.6 39,40.2l20.4 29.4zm229.21 295.82l0 34.8 -64.2 -3 0 -15c-50.6,0.8 -88.61,-11.6 -113.91,-37.2 -21.3,-22 -31.9,-50.6 -31.9,-85.81 0,-58.4 45.6,-89.6 136.81,-93.6 -0.8,-3.6 -1.6,-6.4 -2.4,-8.4 -10.8,-11.2 -23.2,-16.8 -37.2,-16.8 -11.21,0 -21.81,3.8 -31.81,11.4l-26 19.5 -39.4 -50.8 26.4 -19.7c21.2,-16.4 44.8,-24.61 70.81,-24.61 32.4,0 60.2,12.21 83.4,36.61 20.8,21.6 31.2,80.6 31.2,177.01 0,21.6 -0.6,46.8 -1.8,75.6zm-63 -47.4c0.4,-33.6 -0.2,-63.21 -1.8,-88.81 -54,2 -81.01,12 -81.01,30 0,40.81 27.61,60.41 82.81,58.81z"/>
    <path id="1" class="fil13" d="M9808.85 15823.41l-79.71 50.3 -114.6 -180.01 -6.6 0 0 171.01 -94.21 0 0 -430.82 92.41 0 0 14.4c41.9,-0.4 77.4,11.3 106.5,35.2 29,23.8 43.5,52.5 43.5,86.2 0,30.81 -12.9,59.91 -38.8,87.11 -2.9,2.4 -6.3,5 -10.3,7.8l101.81 158.81zm-153.51 -235.31c5.6,-6.4 8.4,-14 8.4,-22.81 0,-9.6 -3.4,-18.7 -10.3,-27.3 -6.9,-8.6 -22.6,-12.9 -47.3,-12.9l0 76.21c20.4,0 36.8,-4.4 49.2,-13.2zm237.01 -65.71c0,10.5 -3.7,19.5 -11.1,26.9 -7.4,7.5 -16.3,11.2 -26.7,11.2 -10.4,0 -19.3,-3.7 -26.7,-11.2 -7.4,-7.4 -11.1,-16.4 -11.1,-26.9 0,-10.5 3.7,-19.4 11.1,-26.6 7.4,-7.3 16.3,-10.9 26.7,-10.9 10.4,0 19.3,3.6 26.7,10.9 7.4,7.2 11.1,16.1 11.1,26.6zm2.4 349.52l-78 0 0 -279.61 78 0 0 279.61zm270.01 -315.02l-57.9 42.81 -20.2 -30.11c-0.8,-1.2 -3.1,-4.1 -6.9,-8.8 -3.8,-4.6 -10.1,-10.3 -18.9,-17.1 -5.5,-3.2 -10.3,-1.6 -14.3,4.8 -2.4,3.2 -4.7,21.8 -6.9,55.81 -2.2,34 -3.5,66.8 -3.9,98.4l51.6 0 0 73.21 -51.6 0c0.8,63.6 3,135 6.6,214.21l-70.81 3.6c-3.6,-83.61 -5.8,-156.21 -6.6,-217.81l-47.4 0 0 -73.21 47.4 0c1.6,-110 9.4,-175.21 23.4,-195.61 17.61,-26.4 38.61,-39.6 63.01,-39.6 17.6,0 35.6,6.6 54,19.8 15.2,11.2 28.2,24.6 39,40.2l20.4 29.4zm229.21 295.82l0 34.8 -64.2 -3 0 -15c-50.6,0.8 -88.61,-11.6 -113.91,-37.2 -21.3,-22 -31.9,-50.6 -31.9,-85.81 0,-58.4 45.6,-89.6 136.81,-93.6 -0.8,-3.6 -1.6,-6.4 -2.4,-8.4 -10.8,-11.2 -23.2,-16.8 -37.2,-16.8 -11.21,0 -21.81,3.8 -31.81,11.4l-26 19.5 -39.4 -50.8 26.4 -19.7c21.2,-16.4 44.8,-24.61 70.81,-24.61 32.4,0 60.2,12.21 83.4,36.61 20.8,21.6 31.2,80.6 31.2,177.01 0,21.6 -0.6,46.8 -1.8,75.6zm-63 -47.4c0.4,-33.6 -0.2,-63.21 -1.8,-88.81 -54,2 -81.01,12 -81.01,30 0,40.81 27.61,60.41 82.81,58.81z"/>
   </g>
   <path class="fil3 str1" d="M12365.68 16156.91c17.06,-15.36 55.15,-189.09 72.49,-222.29 -11.65,7.24 -38.4,81.56 -45.11,103.93 -12.64,42.09 -21.95,71.7 -27.38,118.36z"/>
   <path class="fil3 str1" d="M12501.37 15872.4l-12.08 61.27c0.93,0.48 2.09,1.21 2.71,1.6 0.6,0.38 1.89,1.13 2.62,1.6 0.69,0.46 1.7,1.13 2.45,1.63l16.82 10.19 14.34 -86.18 -26.86 9.89z"/>
   <path class="fil3 str1" d="M11752.61 15934.79c-3.73,-54.98 -18.22,-54.3 -44.46,-99.76 -9.2,-15.94 -9.62,-17 -20.43,-28.18 0.5,10.66 47.16,109.52 56.33,120.31 5.95,6.99 3.9,4.19 8.56,7.63z"/>
   <path class="fil3 str1" d="M11818.33 16110.18c-0.84,27.66 -8.53,150.51 0.26,166.82 1.96,-4.27 16.28,-143.54 -0.26,-166.82z"/>
   <path class="fil3 str1" d="M11745.28 15865.39c-4.29,-33.2 -29.26,-65.65 -48.15,-92.8l-9.52 -10.66c-0.6,-0.56 -1.76,-1.43 -2.61,-2.18 5.06,24.39 44.49,95.43 60.28,105.64z"/>
   <path class="fil3 str1" d="M11755.72 15982.05c0.61,-42.62 -26.11,-56.72 -42.02,-90.37 -4.17,-8.81 -7.13,-22.21 -14.86,-26.27 14.55,31.52 32.94,97.02 56.88,116.64z"/>
   <path class="fil3 str1" d="M11895.65 16674.89c8.88,5.94 -0.6,-0.73 10.07,0.26l10.34 2.79 -9.51 -40.03 -14.44 1.24c1.13,12.84 6.6,25.78 3.54,35.74z"/>
   <path class="fil3 str1" d="M12329.69 16275.34c9.98,-5.82 5.17,5.28 8.87,-11.94l1.17 -48.3c-7.04,15.6 -3.26,14.18 -7.22,30.52 -3.64,14.97 -7.88,8.91 -2.82,29.72z"/>
   <path class="fil3 str1" d="M12511.98 15813.82l15.79 -2.52 6.29 9.15c2.07,-3.03 2.07,-2.21 4.39,-8.09 0.03,-0.1 2.31,-9.69 2.52,-10.55 -9.41,-0.82 -18.64,0.99 -23.48,-5.65 -0.57,0.91 -1.54,1.01 -1.75,2.7 -0.21,1.78 -1.26,2.14 -1.51,3.02 -1.4,4.95 -1.68,6.67 -2.25,11.94z"/>
   <path class="fil3 str1" d="M12355.13 15986.16c12.53,-9.79 12.45,-25.96 10.07,-44.75l-12.78 30.88c-2.04,18.12 0.6,10.13 2.71,13.87z"/>
   <path class="fil3 str1" d="M12306.9 16150.52c14.44,-12.73 15.12,-27.91 15.31,-47.71 -10.14,12.57 -14.47,27.5 -15.31,47.71z"/>
   <path class="fil3 str1" d="M12314.71 16357.38c-3.9,10.08 -4.35,28.38 0,38.38 2,-2.53 2.18,4.45 4.46,-9.83 0.25,-1.61 0.32,-9.5 0.25,-11.29l-4.71 -17.26z"/>
   <path class="fil3 str1" d="M12473.14 15411.92c6.13,4.38 -9.25,4.45 10.48,3.44 5.59,-0.28 7.32,-1.96 11.02,-3.44 -7.32,-8.73 13.95,-7.71 -10.71,-5.7 -9.73,0.8 -10.08,5.18 -10.79,5.7z"/>
   <path class="fil3 str1" d="M11929.65 16731.68l-8.04 -8.1c-4.91,-4.17 -1.16,0.1 -6.1,-4.74 -5.22,-5.12 -6.12,-8.23 -12.17,-13.81 6.52,16.66 8.25,21.66 26.31,26.65z"/>
   <path class="fil3 str1" d="M12513.89 15948.69l-16.82 -10.19c-0.75,-0.5 -1.76,-1.17 -2.45,-1.63 -0.73,-0.47 -2.02,-1.22 -2.62,-1.6 -0.62,-0.39 -1.78,-1.12 -2.71,-1.6 -6.09,69.39 -23.97,149.82 -32.98,221.99 -41.33,331.39 -57.29,643.77 -44.09,978.63 1.61,41.15 4.63,77.57 -29.49,94.94 -18.67,9.5 -79.05,22.44 -104.68,27.33 -173.88,33.11 -296.47,20.31 -461.47,-19.69 -47.33,-11.47 -39.15,-42.24 -37.25,-88.74 18.7,-455.8 -13.34,-869.4 -95.71,-1318.46 -19.57,-106.69 -39.87,-212.99 -69.03,-316.74 -7.97,-28.33 -26.98,-77.26 -30.4,-100.33 54.44,-18.91 424.67,-29.97 502.67,-30.88 88.56,-1.03 176.43,0 264.59,3.77 65.86,2.83 193.89,2.61 252.35,15.72 3.7,35.84 -13.32,63.94 -22.44,97.33 -15.21,55.82 -68.6,261.9 -63.87,297.62 4.84,6.64 14.07,4.83 23.48,5.65l80.63 -365.49c6.81,-32.19 6.65,-26.32 -0.31,-54.74 -108.21,-16.47 -419.99,-20.7 -538.1,-19.11 -106.34,1.44 -351.23,10.92 -464.45,22.35 -36.33,3.66 -16.69,8.35 -52.06,10.47 -6.7,30.47 78.88,371.89 90.69,435.18 77.79,417.1 110.91,794.5 100.38,1219.48 -2.54,102.53 -26.96,181.86 42.26,210.73 145.57,60.71 417.39,51.64 581.27,0.26 81.3,-25.49 56.39,-96.3 53.27,-200.69 -6.44,-215.67 -1.06,-423.1 18.7,-638.39 13.9,-151.49 29.7,-329.52 60.64,-473.17z"/>
   <path class="fil3 str1" d="M12375.94 15674.1c7.98,10.56 12.6,7.2 -2.43,13.74 -1.57,-2.66 -10.06,0.21 2.43,-13.74zm56.38 14.82c-0.27,-0.49 -10.16,2.94 -2.65,-10.57 5.57,-10.03 2.1,-4.43 15.03,-5.73 -3.31,11.64 -1.69,16.16 -12.38,16.3zm-45.46 -0.98c4.59,-20.55 3.04,-15.82 25.21,-15.33 -7.28,15.11 -5.71,15.36 -25.21,15.33zm23.41 -0.03c4.95,-14.27 1.56,-14.53 18.34,-14.41 -6.24,12.81 -2.48,13.27 -18.34,14.41zm99.64 -275.96c5.01,11.94 5.34,6.07 20.12,12.73l-11.64 13.23c14.63,-7.46 4.73,-7 18.91,-6.47 6.52,29.18 -55.38,50.74 -78.07,134.46 7.58,-5.88 57.16,-95.48 83.04,-113.64 0.17,40.14 -77.08,125.51 -86.81,171.71 26.16,-22.95 63.32,-110.3 80.07,-125.43 -8.5,73.17 -56.02,95.17 -77.89,151.86 -188.52,-1.8 -373.03,0.99 -561.88,5.08 -53.18,1.15 -140.82,5.66 -188.98,-3.62 -17.24,-44.04 -12.24,-78.45 -38.22,-119.29 -50.01,-78.55 -16.71,-75.5 10.39,-94.68 -69.2,-11.55 -47.83,64.87 -26.93,100.13 38.98,65.82 10.25,116.03 41.62,131.33 11.79,2.65 137.76,-2.58 165.37,-2.23l338.1 5.15c48.92,0.01 125.89,-4.71 171.52,1.3 -10.45,20.71 -13.69,13.73 -64.95,14.1l-547.59 0.39c-7.08,0.03 -15.61,-0.82 -22.35,-0.39 -32.69,2.03 -11.33,10.02 -1.83,23.3l-10.75 -17.43c14.29,-0.2 24.44,-3.14 34.61,-2.74 103.77,4.15 174.54,2.92 279.64,3.02 104.34,0.12 215.25,-2.59 318.82,1.6l-25.58 57.34c24.2,-29.41 20.39,-55.21 44.51,-57.8 -11.95,32.62 -42.54,73.38 -50.74,109.28 13.33,-15.34 39.23,-63.38 49.01,-85.81 7.8,-17.88 5.24,-22.8 24.77,-23.62 -11.16,31.36 -62.74,94.08 -81.23,170.39l79.83 -152.69c7.1,-14.22 4.37,-15.51 19.95,-17.95l-50.73 93.74c-9.71,17.33 -42.43,79.06 -43.54,95.49 32.26,-20.3 87.41,-179.63 108.15,-189.62 1.47,2.14 13.34,-2.59 -5.88,27.89 -6.61,10.46 -10.93,17.56 -16.75,27.45 -23.14,39.36 -75.58,135.11 -83.41,174.47 19.78,-24.38 45.08,-92.93 56.78,-102.46 22.38,-18.23 19.75,-28.31 20.25,-36.71 1.63,-27.37 20.78,-37.48 29.87,-52.11 18.83,-30.31 21.07,-61.38 41.77,-62.38l-40.09 82.85c-1.59,3.42 -4.6,10.77 -7.1,11.62 -15.03,5.09 6.45,4.52 -3.57,-1.5l-2.74 -2.23c-0.18,-0.14 -0.84,-1.14 -1.46,-1.13 -14.94,22.41 10.46,2.34 -9.18,45.74 -6.84,15.12 -15.82,35.71 -19.8,52.31 21.42,-15.18 89.22,-175.81 100.95,-206.47 3.72,-9.69 7.41,-19.45 12.15,-28.7 -17.8,3.64 -5.47,33.18 -29.84,30.47l46.86 -80.95 -2.52 44.92c23.12,-7.75 30.76,-63.27 35.69,-86.75 11.46,-54.69 3.08,-97.84 12.06,-107.56l-9.1 5c-7.76,-18.03 -18.74,-24.44 -43.66,-15.99z"/>
   <path class="fil3 str1" d="M12299.86 17176.38c-63.95,-9.43 -126.22,-12.17 -190.95,-12.8 -61.63,-0.61 -80.64,-6.99 -84.96,16 18.34,9.73 271.15,-8.93 331.57,25.73 -38.26,35.67 -480.25,39.5 -520.69,0 19.13,-13.62 56.74,-12.09 81.08,-15.97 18.72,-2.99 13.83,1.23 16.5,-13.43 -11,-8.06 -52.72,1.32 -66.07,3.89 -21.25,4.07 -41.69,8.6 -48.24,25.51 11.33,29.7 85.41,29.26 119.93,31.63 95.79,6.56 216.51,6.62 311.99,0.18 36.29,-2.44 112.5,-1.24 123.97,-31.81 -7.74,-22.34 -46.85,-24.9 -74.13,-28.93z"/>
   <path class="fil3 str1" d="M11808.99 16699.25c93.96,111.95 286.53,155.93 446.11,89.98 24.79,-10.24 43.58,-24.36 60.64,-38.52 10.21,-8.45 38.59,-38.45 39.03,-58.6l-47.71 49.79c-53.8,50.13 -148.04,72.06 -224.01,69.62 -123.22,-3.95 -203.99,-60.43 -274.06,-112.27z"/>
   <path class="fil3 str1" d="M11929.65 16731.68c7.36,8.24 30.15,17.62 42.18,22.61 15.13,6.28 30.76,11.96 46.96,15.77 38.86,9.17 82.48,10.45 123.21,4.98 50.7,-6.79 101.37,-23.73 134.09,-60.41 11.7,-13.09 24.54,-26.64 15.35,-38.66 -59.96,85.91 -165.28,108.46 -271.39,85.15 -58.19,-12.78 -71.17,-24.46 -90.4,-29.44z"/>
   <path class="fil3 str1" d="M12378.89 15968.38l94.55 -239.82c11.07,-15.48 14.68,0.94 13.57,-33.44 -24.17,23.37 -112.96,236.59 -112.14,261.84 0.36,11.21 -0.85,4.81 4.02,11.42z"/>
   <path class="fil3 str1" d="M11895.65 16674.89c3.06,-9.96 -2.41,-22.9 -3.54,-35.74 0.19,-1.48 -2.94,-60.48 -3.82,-65.49 -3.98,-22.74 -8.31,3.64 -7.73,-29.53 0.21,-12.22 2.09,-20.69 1.49,-33.9 -10.93,5.18 -9.16,2.67 -11.55,18.82 -3.99,26.99 -11.15,97.48 2.1,118.66l23.05 27.18z"/>
   <path class="fil3 str1" d="M12358.01 16288.65c9.05,-14.01 57.32,-214.23 59.99,-240.85 -15.06,16.7 -72.25,214.21 -59.99,240.85z"/>
   <path class="fil3 str1" d="M12147.41 16735.85c74.28,-12.83 135.66,-80.94 135.99,-157.19 -0.93,0.7 -2.06,1.62 -2.68,2.26 -0.59,0.63 -1.81,1.52 -2.48,2.32 -0.65,0.74 -1.49,1.56 -2.12,2.41l-7.45 18.76c-9,25.66 -21.1,50.25 -36.9,69.66 -13.94,17.12 -23,21.1 -40.92,32.5 -9.17,5.85 -15.23,8.91 -23.12,13.57l-18.1 13.32c-0.41,-0.71 -1.51,1.56 -2.22,2.39z"/>
   <path class="fil3 str1" d="M12370.99 17082.3c-4.21,4.59 -2.28,1.27 -6.12,8 -0.6,1.05 -1.99,4.41 -2.46,5.53 -22.55,53.09 3.01,9.04 -37.33,72.73l48.46 17.07 7.76 -58.77c-10.73,6.68 -8.96,7.38 -14.48,15.43l0.16 -26.21 4.01 -33.78z"/>
   <path class="fil3 str1" d="M12355.13 16505.74c6.95,-23.43 7.53,-121.68 11.84,-156.41 5.24,-42.28 24.58,-99.63 24.26,-139.3 -17.91,27.65 -24.28,101.66 -30.62,140.64l-10.45 119.65c-0.17,21.52 -2.16,27.61 4.97,35.42z"/>
   <path class="fil3 str1" d="M12312.72 17126.39c18.34,-5.35 35.91,-49.51 46.08,-65.1l3.69 -4.48c-4.67,23.7 -12.41,42.86 -23.65,62.4 -9.08,15.8 -26.78,33.2 -31.59,49.33 19.64,-9.03 39.41,-38.17 49.29,-61.45 12.54,-29.6 14,-54.31 9.44,-89.57 -8.86,15.48 -13.84,39.36 -25.02,59.75 -8.46,15.46 -24.07,33.84 -28.24,49.12z"/>
   <path class="fil3 str1" d="M11851.66 16618.21c7.78,-12.75 6.91,-24.17 9.12,-40.59 2.7,-20.05 13.28,-116.12 9.25,-124 -14.52,13.58 -31.48,129.27 -22.73,156.63 1.84,5.76 2.76,5.66 4.36,7.96z"/>
   <path class="fil3 str1" d="M11828.94 16360.81c23.2,-24.72 24.04,-170.99 18.66,-206.66 -2.37,-15.71 2.08,8.28 -1.44,-6.33 -0.18,-0.71 -0.98,-1.24 -1.13,-2.71 -0.13,-1.45 -0.79,-1.75 -1.24,-2.6 -0.28,77.14 -12.65,145.55 -14.85,218.3z"/>
   <path class="fil3 str1" d="M12361.97 16814.84c1.6,-19.74 0.07,-8.73 -3.54,-13 -24.07,49.39 -16.81,109.92 -28.38,135.93 -6.13,13.79 -9.2,25.02 -13.73,38.77 16.98,-8.03 46.54,-109.38 49.19,-134.41 -4.78,6.99 -9.75,19.49 -12.55,28.3l9.01 -55.59z"/>
   <path class="fil3 str1" d="M11832.85 17154.4c37.23,-15.47 27.38,-76.72 20.99,-126.96 -1.96,-15.34 -2.33,-12.16 -5.95,-16.26 -2.19,24.18 -0.71,52.87 -2.31,78.27 -1.68,26.72 -9.53,39.33 -12.73,64.95z"/>
   <path class="fil3 str1" d="M12314.37 17087.56c32.56,-12.91 55.07,-99.92 53.6,-149.16 -6.97,26.64 -46.61,97.01 -47.37,113.99 1.88,-4.05 8.98,-10.55 12.63,-16.05l28.9 -58.37c-2.71,37.98 -42.68,90.22 -47.76,109.59z"/>
   <path class="fil3 str1" d="M11832.61 16468.46c7.24,-10.32 6.68,-13.47 9.56,-25.79 2.06,-8.8 4,-15.96 5.73,-24.04 8.44,-39.67 21.23,-128.99 22.47,-166.08 -6.81,10.02 -5.65,14.23 -7.69,26.55 -8.31,49.98 -28.05,149.18 -30.07,189.36z"/>
   <path class="fil3 str1" d="M11873.55 17014.36l-17.95 -69.62c-0.92,-4.44 -1.12,-7.15 -3.19,-11.81 -3.64,-8.17 -0.39,-2.01 -5.55,-7.71 1.14,17.49 15.02,130.07 25.08,146.17 6.08,9.75 -1.98,-0.18 8.69,6.83l-7.08 -63.86z"/>
   <path class="fil3 str1" d="M11833.19 16574.02c2.74,-3.82 3.82,4.05 7.14,-23.02l25.53 -160.85c-20.75,37.14 -35.36,130.22 -32.67,183.87z"/>
   <path class="fil3 str1" d="M12369.63 16051.68c0.61,-0.69 1.63,-2.62 1.88,-2.03 0.25,0.58 1.49,-1.54 1.81,-2.01 10.78,-15.58 56.73,-154.83 63.26,-191.8 -2.74,3.5 -1.33,-1.2 -6.12,9.87 -14.97,34.57 -57.33,161.4 -60.83,185.97z"/>
   <path class="fil3 str1" d="M12501.37 15872.4l26.86 -9.89c4.42,-12.47 7.19,-29.59 5.83,-42.06l-6.29 -9.15 -15.79 2.52 -10.61 58.58z"/>
   <path class="fil3 str1" d="M12319.65 16898.76c11.51,-16.68 46.5,-120.3 46.42,-142.11 -14.53,18.06 -47.71,112.69 -46.42,142.11z"/>
   <path class="fil3 str1" d="M11873.55 17014.36l11.19 28.34c7.8,-18.3 -24.79,-127.38 -35.99,-141.1 2.67,35.49 23.18,73.63 24.8,112.76z"/>
   <path class="fil3 str1" d="M11734.36 15795.5c-0.74,-23.96 -4.71,-26.32 -20.7,-50.73 -6.38,-9.74 -20.58,-37.03 -29.39,-41.09 4.07,15.66 35.1,77.1 50.09,91.82z"/>
   <path class="fil3 str1" d="M12326.47 17002.39c17.19,-11.93 43.98,-81.96 41.51,-112.14l-41.51 112.14z"/>
   <path class="fil3 str1" d="M11757.51 16023.9c-0.82,-20.1 -30.98,-72.04 -38.58,-78.35 1.69,15.4 9.21,25.88 15.27,39.47 7.01,15.72 12.63,30.26 23.31,38.88z"/>
   <path class="fil3 str1" d="M12332.68 16797.79c15.15,-10.48 26.6,-48.75 29.33,-66.55 -13.08,8.99 -27.05,45.54 -29.33,66.55z"/>
   <path class="fil3 str1" d="M12324.75 16086.43c10.39,-11.45 10.23,-18.52 14.24,-36.24 2.98,-13.16 6.51,-26.55 8.34,-39.17 -12.1,17.6 -20.92,49.06 -22.58,75.41z"/>
   <path class="fil3 str1" d="M12336.76 16143.42c7.58,-5.4 9.49,-5.85 13.76,-23.18 2.61,-10.65 3.76,-21.74 4.67,-33.21 -2.93,3.15 -2.36,1.32 -5.3,6.73l-7.97 21.63c-4.55,11.58 -8.91,17.76 -5.16,28.03z"/>
   <path class="fil3 str1" d="M12467.34 15505.74c7.3,-2.64 46.4,-58.1 50.83,-65.74 -24.31,14.59 -36.93,39.67 -50.83,65.74z"/>
   <path class="fil3 str1" d="M11730.39 15745.92c5.74,-15.48 -19.81,-43.05 -33.24,-48.15l22.7 37.03c6.74,12.46 1.62,6.13 10.54,11.12z"/>
   <path class="fil3 str1" d="M12344.5 16197.78c14.96,-6.21 17.56,-24.62 18.59,-43.68 -12.48,9.31 -19.54,27.17 -18.59,43.68z"/>
   <path class="fil3 str1" d="M12490.66 15672.88c11.78,-7.89 8.89,-7.24 14.83,-22.28 0.71,-1.77 5.5,-13.12 5.56,-13.37 5.51,-21.82 0.16,-9.48 -1.56,-12.44 -9.39,11.64 -16.5,31.33 -18.83,48.09z"/>
   <path class="fil3 str1" d="M12326.67 16198.81c5.93,-10.46 7.66,-26.16 7.75,-41.48 -9.07,8.24 -13.63,23.32 -12.15,33.38 1.31,8.82 0.78,3.38 4.4,8.1z"/>
   <path class="fil3 str1" d="M12330.58 16432.46c12.08,-8.37 10.36,-22.51 9.83,-40.23 -10.75,14.5 -13.23,24.92 -9.83,40.23z"/>
   <path class="fil3 str1" d="M12358.82 16029.54c8.52,-10.84 6.2,-16.32 7.1,-37.15 -7.51,5.49 -10.82,13.89 -10.68,25.99 0.25,21.41 -1.02,4.2 3.58,11.16z"/>
   <path class="fil3 str1" d="M12344.11 16358.46c4.78,-4.56 5.56,-9.95 6.64,-17.14 2.79,-18.3 -0.07,-17.86 -2.97,-21.68 -4.96,10.47 -9.19,29.42 -3.67,38.82z"/>
   <path class="fil3 str1" d="M12340.43 16565.94c6.05,-9.92 11.39,-26.72 3.68,-37.37 -5.81,9.33 -10.96,26.8 -3.68,37.37z"/>
   <path class="fil3 str1" d="M12341.38 15972.74c8.95,-8.1 11.64,-24.27 14.06,-38.59 -6.38,5.08 -6.83,4.66 -11.23,14.52 -3.92,8.84 -4.64,13.16 -2.83,24.07z"/>
   <path class="fil3 str1" d="M12318.38 16002.54l11.53 -38.28c-5.75,2.42 -7.45,4.53 -11.83,13.29 -5.67,11.33 -7.31,15.93 0.3,24.99z"/>
   <path class="fil3 str1" d="M12366.02 15901.34c9.19,-4.52 9.81,-5.37 14.3,-15.99 2.88,-6.85 4.65,-13.42 6.52,-20.14 -9.26,6.94 -18.05,20.73 -20.82,36.13z"/>
   <path class="fil3 str1" d="M12366.43 15863.92c-11.15,9.12 -12.52,11.38 -14.68,26.34 12.87,-5.82 13.16,-11.43 14.68,-26.34z"/>
   <path class="fil3 str1" d="M12366.43 15863.92c11.55,-3.97 13.74,-9.44 7.08,-20.43 -9.3,6.51 -6.55,5.61 -7.08,20.43z"/>
   <path class="fil3 str1" d="M12351.46 16585.82c-2.88,2.91 -7.03,6.44 -7.1,13.59 -0.19,16.48 2.96,8.51 8.37,10.36l-1.27 -23.95z"/>
   <path class="fil3 str1" d="M12362.49 15930.28c9.87,-7.02 9.02,-13.07 0,-19.68 -4.49,9.63 -5.62,8.65 0,19.68z"/>
   <g>
    <path class="fil14 str2" d="M11297.54 16142.84l0.44 -0.03c10.25,-3.33 15.24,-8.93 14.97,-16.75 -0.2,-2.86 -1.65,-5.5 -4.26,-7.89 -2.62,-2.47 -12.25,-7.98 -28.83,-16.63 -13.91,-7.42 -24.12,-13.77 -30.56,-19.07 -8.97,-7.49 -17.4,-17.89 -25.31,-31.21 -10.27,-17.52 -16.09,-35.65 -17.44,-54.39 -1.95,-27.05 6.97,-52.09 26.75,-74.94 21.98,-25.3 49.35,-39.17 82.22,-41.54 19.04,-1.37 36.49,1.89 52.42,9.68 9.97,5.12 20.96,15.05 33.03,29.77 5.13,6.58 8.03,12.86 8.75,18.95 0.82,7.18 -2.01,16.17 -8.46,27.07l0.47 0.4c-8.34,13.61 -17.49,20.84 -27.64,21.57 -3.46,0.25 -8.21,-0.15 -14.42,-1.17 -9.36,-1.62 -15.3,-9.25 -17.68,-22.82 -0.98,-5.4 -5.37,-7.82 -13.16,-7.26 -4.04,0.29 -7.57,1.58 -10.59,3.79 -2.74,6.04 -3.95,11.89 -3.54,17.62 0.71,9.79 5.94,17.68 15.6,23.63 35.78,21.74 56.86,35.3 63.37,40.6 23.09,18.95 36.18,39.59 39.19,61.91 0.69,5.49 1.66,12.82 2.91,21.96 3.26,37.08 -17.07,67.66 -60.86,91.66 -16.5,9.02 -32.4,14.08 -47.69,15.18 -2.35,0.17 -5.53,0.1 -9.62,-0.2l-0.92 -0.37c-56.06,-4.91 -87.49,-23.71 -94.2,-56.25 -1.63,-7.43 -2.82,-12.66 -3.49,-15.64 -0.66,-2.98 -0.94,-3.93 -0.86,-2.75 -0.56,-7.79 1.31,-14.72 5.52,-20.87 4.22,-6.07 9.23,-9.31 15.04,-9.72 2.57,-0.19 10.53,2.64 23.74,8.48 13.28,5.84 22.34,8.59 27.34,8.23 1.98,-0.14 4.47,-0.61 7.29,-1.41l0.48 0.41zm162.58 -239.9l-0.36 0.02c11.72,-13.62 27.29,-21.17 46.55,-22.56 16.18,-1.16 28.17,0.12 35.98,3.92 8.99,7.77 14.34,20.61 16.22,38.51 -0.68,14.24 -0.63,33.22 0.19,57.04 4.45,12.46 10.12,18.41 17.03,17.91 2.64,-0.19 6.6,-1.81 11.93,-4.78 3.12,-1.7 5.12,-7.76 6.14,-18.33 -2.92,-14.86 -5.65,-35.42 -8.14,-61.7 0.02,-15.15 8.64,-28.86 25.79,-41.1 3.31,-2.23 11.74,-4.17 25.22,-5.73 10.14,-1.03 16.92,-1.21 20.43,-0.58 13.27,2.51 22.64,11.67 28.14,27.53 1.84,4.82 3.72,9.56 5.84,14.35 3.26,9.3 5.43,18.9 6.42,28.66 4.61,40.24 7.66,70.47 9.12,90.69 3.07,42.64 -0.89,90.21 -11.97,142.58 -3.42,16.22 -15.42,27.2 -35.9,33.04 -13.1,3.83 -23.85,3.34 -32.34,-1.58 -11.55,-6.42 -18.72,-17.88 -21.69,-34.44 -0.85,-4.59 -1.07,-12.77 -0.52,-24.71 0.55,-11.86 0.47,-20.14 -0.16,-24.67 -2.28,-7.08 -7.32,-10.34 -14.96,-9.79 -7.43,0.54 -13.85,3.73 -19.18,9.66 -5.42,5.86 -7.63,13.11 -6.72,21.69 1.89,5.7 4.61,15.77 8.24,30.22 2.17,9.75 2.27,17.2 0.36,22.58 -2.89,8.05 -8.15,14.05 -15.69,18.06 -4.99,2.65 -14.46,4.52 -28.28,5.51 -13.23,0.95 -24.52,-2.89 -33.85,-11.46 -7.77,-7.27 -14.72,-19.7 -20.94,-37.21 -7.16,-19.44 -11.91,-41.26 -14.25,-65.49 -3.38,-34.77 -5.97,-64.59 -7.75,-89.37 -3.97,-55.06 -0.96,-91.27 9.1,-108.47zm520.7 203.34l0.47 0.42c-5.82,23.84 -17.72,43.24 -35.64,58.21 -17.92,14.88 -39.27,23.22 -64.04,25 -45.81,3.3 -82.7,-11.41 -110.56,-44.21 -23.73,-27.92 -37.12,-62.87 -40.15,-105 -1.39,-19.33 -0.91,-37.32 1.36,-54.04 10.38,-76.42 40.93,-121.26 91.49,-134.43 4.56,-1.22 9.46,-2.01 14.6,-2.38 23.1,-1.66 45.99,4.37 68.85,18.09 22.87,13.73 38.83,31.28 47.91,52.65 19.52,46.48 30.28,82.95 32.19,109.48 1.63,22.57 -0.69,47.94 -6.92,76.24l0.44 -0.03zm-109.51 -23.44l-0.03 -0.44c8.21,-2 11.17,-18.32 8.97,-48.9 -1.27,-17.58 -4.05,-33.63 -8.28,-48.25 -4.23,-14.63 -8.23,-22.1 -11.96,-22.42 -6.52,-1.31 -11.75,6.02 -15.78,21.98 -4.09,15.95 -5.43,33.27 -4.08,52.01 2.51,34.92 12.91,50.22 31.16,46.02zm370.96 -207.54l0.43 -0.03c1.19,4.28 2.04,9.83 2.53,16.74 0.76,14.51 -1.91,25.71 -8.06,33.69 -2.37,3.06 -13.74,7.27 -34.05,12.65 -20.37,5.38 -30.78,8.65 -31.21,9.85 -0.36,3.21 5.12,33.11 16.51,89.64 2.29,11.43 3.86,22.92 4.69,34.47 1.89,26.24 -0.01,48.11 -5.69,65.59 -7.14,22.01 -19.11,33.3 -35.92,33.92 -27.19,1.06 -46.69,-6.03 -58.52,-21.44 -8.95,-11.54 -14.52,-30.43 -16.71,-56.65 0.17,2.35 -0.33,-12.84 -1.5,-45.49l-1.85 -55.51c-0.07,-17.43 0.68,-32.57 2.42,-45.4 -1.73,0.71 -4.28,1.2 -7.73,1.44 -9.85,0.71 -19.75,-0.21 -29.75,-2.66 -13.62,-3.38 -23.12,-9.05 -28.64,-17 -7.77,-11.35 -12.02,-22.2 -12.76,-32.49 -1.24,-17.28 7.28,-31.34 25.63,-42.26 23.67,-14.13 52.78,-22.43 87.33,-24.92 18.15,-1.3 37.32,-0.98 57.49,1.04 9.74,2.78 24.52,7.03 44.38,12.84 16.69,7.14 27.07,17.86 30.98,31.98z"/>
    <path id="1" class="fil13" d="M11297.54 16142.84l0.44 -0.03c10.25,-3.33 15.24,-8.93 14.97,-16.75 -0.2,-2.86 -1.65,-5.5 -4.26,-7.89 -2.62,-2.47 -12.25,-7.98 -28.83,-16.63 -13.91,-7.42 -24.12,-13.77 -30.56,-19.07 -8.97,-7.49 -17.4,-17.89 -25.31,-31.21 -10.27,-17.52 -16.09,-35.65 -17.44,-54.39 -1.95,-27.05 6.97,-52.09 26.75,-74.94 21.98,-25.3 49.35,-39.17 82.22,-41.54 19.04,-1.37 36.49,1.89 52.42,9.68 9.97,5.12 20.96,15.05 33.03,29.77 5.13,6.58 8.03,12.86 8.75,18.95 0.82,7.18 -2.01,16.17 -8.46,27.07l0.47 0.4c-8.34,13.61 -17.49,20.84 -27.64,21.57 -3.46,0.25 -8.21,-0.15 -14.42,-1.17 -9.36,-1.62 -15.3,-9.25 -17.68,-22.82 -0.98,-5.4 -5.37,-7.82 -13.16,-7.26 -4.04,0.29 -7.57,1.58 -10.59,3.79 -2.74,6.04 -3.95,11.89 -3.54,17.62 0.71,9.79 5.94,17.68 15.6,23.63 35.78,21.74 56.86,35.3 63.37,40.6 23.09,18.95 36.18,39.59 39.19,61.91 0.69,5.49 1.66,12.82 2.91,21.96 3.26,37.08 -17.07,67.66 -60.86,91.66 -16.5,9.02 -32.4,14.08 -47.69,15.18 -2.35,0.17 -5.53,0.1 -9.62,-0.2l-0.92 -0.37c-56.06,-4.91 -87.49,-23.71 -94.2,-56.25 -1.63,-7.43 -2.82,-12.66 -3.49,-15.64 -0.66,-2.98 -0.94,-3.93 -0.86,-2.75 -0.56,-7.79 1.31,-14.72 5.52,-20.87 4.22,-6.07 9.23,-9.31 15.04,-9.72 2.57,-0.19 10.53,2.64 23.74,8.48 13.28,5.84 22.34,8.59 27.34,8.23 1.98,-0.14 4.47,-0.61 7.29,-1.41l0.48 0.41zm162.58 -239.9l-0.36 0.02c11.72,-13.62 27.29,-21.17 46.55,-22.56 16.18,-1.16 28.17,0.12 35.98,3.92 8.99,7.77 14.34,20.61 16.22,38.51 -0.68,14.24 -0.63,33.22 0.19,57.04 4.45,12.46 10.12,18.41 17.03,17.91 2.64,-0.19 6.6,-1.81 11.93,-4.78 3.12,-1.7 5.12,-7.76 6.14,-18.33 -2.92,-14.86 -5.65,-35.42 -8.14,-61.7 0.02,-15.15 8.64,-28.86 25.79,-41.1 3.31,-2.23 11.74,-4.17 25.22,-5.73 10.14,-1.03 16.92,-1.21 20.43,-0.58 13.27,2.51 22.64,11.67 28.14,27.53 1.84,4.82 3.72,9.56 5.84,14.35 3.26,9.3 5.43,18.9 6.42,28.66 4.61,40.24 7.66,70.47 9.12,90.69 3.07,42.64 -0.89,90.21 -11.97,142.58 -3.42,16.22 -15.42,27.2 -35.9,33.04 -13.1,3.83 -23.85,3.34 -32.34,-1.58 -11.55,-6.42 -18.72,-17.88 -21.69,-34.44 -0.85,-4.59 -1.07,-12.77 -0.52,-24.71 0.55,-11.86 0.47,-20.14 -0.16,-24.67 -2.28,-7.08 -7.32,-10.34 -14.96,-9.79 -7.43,0.54 -13.85,3.73 -19.18,9.66 -5.42,5.86 -7.63,13.11 -6.72,21.69 1.89,5.7 4.61,15.77 8.24,30.22 2.17,9.75 2.27,17.2 0.36,22.58 -2.89,8.05 -8.15,14.05 -15.69,18.06 -4.99,2.65 -14.46,4.52 -28.28,5.51 -13.23,0.95 -24.52,-2.89 -33.85,-11.46 -7.77,-7.27 -14.72,-19.7 -20.94,-37.21 -7.16,-19.44 -11.91,-41.26 -14.25,-65.49 -3.38,-34.77 -5.97,-64.59 -7.75,-89.37 -3.97,-55.06 -0.96,-91.27 9.1,-108.47zm520.7 203.34l0.47 0.42c-5.82,23.84 -17.72,43.24 -35.64,58.21 -17.92,14.88 -39.27,23.22 -64.04,25 -45.81,3.3 -82.7,-11.41 -110.56,-44.21 -23.73,-27.92 -37.12,-62.87 -40.15,-105 -1.39,-19.33 -0.91,-37.32 1.36,-54.04 10.38,-76.42 40.93,-121.26 91.49,-134.43 4.56,-1.22 9.46,-2.01 14.6,-2.38 23.1,-1.66 45.99,4.37 68.85,18.09 22.87,13.73 38.83,31.28 47.91,52.65 19.52,46.48 30.28,82.95 32.19,109.48 1.63,22.57 -0.69,47.94 -6.92,76.24l0.44 -0.03zm-109.51 -23.44l-0.03 -0.44c8.21,-2 11.17,-18.32 8.97,-48.9 -1.27,-17.58 -4.05,-33.63 -8.28,-48.25 -4.23,-14.63 -8.23,-22.1 -11.96,-22.42 -6.52,-1.31 -11.75,6.02 -15.78,21.98 -4.09,15.95 -5.43,33.27 -4.08,52.01 2.51,34.92 12.91,50.22 31.16,46.02zm370.96 -207.54l0.43 -0.03c1.19,4.28 2.04,9.83 2.53,16.74 0.76,14.51 -1.91,25.71 -8.06,33.69 -2.37,3.06 -13.74,7.27 -34.05,12.65 -20.37,5.38 -30.78,8.65 -31.21,9.85 -0.36,3.21 5.12,33.11 16.51,89.64 2.29,11.43 3.86,22.92 4.69,34.47 1.89,26.24 -0.01,48.11 -5.69,65.59 -7.14,22.01 -19.11,33.3 -35.92,33.92 -27.19,1.06 -46.69,-6.03 -58.52,-21.44 -8.95,-11.54 -14.52,-30.43 -16.71,-56.65 0.17,2.35 -0.33,-12.84 -1.5,-45.49l-1.85 -55.51c-0.07,-17.43 0.68,-32.57 2.42,-45.4 -1.73,0.71 -4.28,1.2 -7.73,1.44 -9.85,0.71 -19.75,-0.21 -29.75,-2.66 -13.62,-3.38 -23.12,-9.05 -28.64,-17 -7.77,-11.35 -12.02,-22.2 -12.76,-32.49 -1.24,-17.28 7.28,-31.34 25.63,-42.26 23.67,-14.13 52.78,-22.43 87.33,-24.92 18.15,-1.3 37.32,-0.98 57.49,1.04 9.74,2.78 24.52,7.03 44.38,12.84 16.69,7.14 27.07,17.86 30.98,31.98z"/>
   </g>
   <path class="fil15" d="M8525.98 16262.68c0.01,63.93 9.78,194.28 -21.09,238.84 -46.54,67.2 -152.98,54.55 -159.62,-38.54 -2.87,-40.41 6.43,-97.89 -6.31,-133.44 -38.25,-12.05 -420.77,118.54 -486.09,139.51l-480.19 151.09 0.17 283.9 1330.08 -392.53 -0.13 -105.39c-163.18,26.63 -142.17,-90.03 -143.67,-197.42 -27.53,2.96 -33.16,23.76 -33.15,53.98z"/>
   <path class="fil15" d="M7372.87 16416.83l-0.41 138.08c43.62,-9.22 100.3,-30.1 145.26,-44.4l732.97 -230.47c227.42,-74.45 122.06,163.11 163.11,197.64 74.63,43.53 49.59,-184.36 52.04,-233.79 4.93,-99.14 123.64,-131.69 150.01,-51.9 15.88,48.07 -25.05,181.31 58.27,158.05 22.49,-6.28 29,-18.53 29.08,-45.07 0.26,-92.96 5.38,-207.08 -1,-297.68l-1329.33 409.54z"/>
   <path class="fil15" d="M7496.5 16282.06l1141.52 -351.37 -338.21 -119.13c-10.43,118.55 24.84,121.53 -58.02,143.06 -139.07,36.13 -119.44,60.03 -119.95,-204.02l-75.61 -25.86c-17.49,24.06 -108.63,110.85 -136.83,139.62 -51.42,52.5 -400.31,393.6 -412.9,417.7z"/>
   <polygon class="fil15" points="7372.33,16968.76 7372.62,17030.96 8702.56,16621.45 8702.49,16575.97 "/>
   <path class="fil15" d="M8182.45 15643.55l0.4 261.28c70.45,-2.86 54.42,-16.4 54.96,-107.66l-0.01 -153.62c0,-25.6 4.95,-57.47 -27.77,-57.47 -30.96,-0.01 -27.58,28.43 -27.58,57.47z"/>
   <path class="fil15" d="M8203.6 15246.08c-11.01,32.29 -27.16,67.5 -40.58,103.29 -19.4,51.75 -8.58,80.93 51.82,76.33 85.81,-6.53 35.76,-90.04 5.41,-155.32l-16.65 -24.3z"/>
   <path class="fil16" d="M13633.82 13677.75c0,18.69 12.42,46.49 26.58,57.51l24 14.53c11.47,7.15 3.84,5.27 11.47,4.52l11.69 -0.2c12.54,0.43 24.55,-0.85 33.54,-4.76l17.01 -11.03c5.96,-3.92 2.46,-0.19 7.36,-5.39l14.62 -21.05c0.26,-0.53 0.56,-1.2 0.81,-1.74l6.03 -14.36c0.72,-1.93 0.56,0.84 1.9,-5.76 0.59,-2.88 0.8,-11.74 0.69,-14.87 -0.47,-13.75 -11.51,-41.38 -17.33,-49.12 -2.76,-3.67 -1.08,-1.55 -3.76,-3.89l-11.97 -8.42c-7.26,-6.66 -4.02,2.81 -5.41,-9.88 -18.38,0 -38.32,-9.04 -59.27,-3.21 -5.2,1.44 -5.51,2.03 -7.41,2.78l-13.25 4.59c-0.76,0.3 -2.88,1.18 -3.56,1.54 -16.27,8.67 -33.74,35.39 -33.74,68.21z"/>
   <path class="fil17" d="M13916.71 13700.68c1.4,-12.86 -3.34,-3.1 6.96,-10.88 5.26,-3.97 6.07,-3.79 11.7,-8.68 16.37,-14.23 21.41,-25.23 25.51,-53.7 1.22,-8.51 -3.03,-22.46 -6.32,-30.85 -1.57,-3.99 -2.87,-8.64 -4.8,-13.04 -6.07,-13.8 -37.45,-31.45 -52.5,-36.71 -5.15,-1.79 -1.87,-1.22 -8.56,-1.81 -6.47,-0.57 -13.66,0.17 -18.76,1.86l-14.78 5.62c-12.65,5.11 -28.06,16.44 -35.73,27.97 -0.31,0.46 -0.69,1.11 -0.99,1.57 -7.7,11.79 -10.67,21.21 -12.99,38.15 -1.36,9.88 2.55,24.92 5.94,32.9 8.09,19.03 19.05,32.43 37.65,41.36 26.28,12.6 36.39,6.24 67.67,6.24z"/>
   <path class="fil18" d="M13463.07 13726.17c0,79.39 97.53,104.29 138.03,48.83 2.64,-3.62 3.02,-5.63 5.91,-9.45 2.09,-2.77 6.65,-7.32 7,-7.96 2.98,-5.41 6.25,-42.62 -6.81,-68.51 -17.39,-34.48 -64.17,-46.63 -99.17,-32.64 -0.79,0.32 -8.33,3.91 -8.64,4.11 -17.42,11.02 -36.32,39.27 -36.32,65.62z"/>
   <path class="fil19" d="M13327.95 13710.87c-17.86,16.58 -23.3,15.41 -34.54,40.78 -14.6,20.12 -4.53,53.73 11.59,76.51 14.07,19.88 45.07,32.07 73.39,27.41 83.15,-13.67 91.14,-155.55 -22.5,-152.49 -12.24,0.32 -19.42,3.75 -27.94,7.79z"/>
   <polygon class="fil19" points="13735.76,13761.85 13738.31,13761.85 13738.31,13754.2 13735.76,13754.2 "/>
   <path class="fil19" d="M14230.18 13713.42c0,3 5.48,5.75 3.94,0 -1.54,-5.75 6.49,-0.07 -1.17,-0.75 -3.21,-0.29 -2.77,-4.43 -2.77,0.75z"/>
   <path class="fil3" d="M14609.64 16434.52l23.1 -121.93c14.07,-116.84 21.96,-210.58 -30.2,-318.73 -52.62,-109.1 -13.94,-256.55 -48.6,-323.7 -17.3,-33.51 -64.73,-49.66 -102.64,-28.71 -29.73,16.42 -54.94,49.96 -75.48,74.64 -0.92,-156.97 0.61,-313.94 -0.01,-470.84 -0.15,-37.25 -15.06,-62.82 -37.1,-80.68 -27.8,-22.54 -52.3,-21.42 -96.21,-21.41l-470.93 -0.03c-85.33,-0.14 -112.94,46.93 -112.93,125.56l0.6 471.01 75.58 64.57 0.63 -487.3 562.73 -0.27 0.82 959.96 -551.65 0.3c5.15,11.73 6.94,10.47 11.61,19.34 19.07,36.29 -4.96,82.83 -31.14,102.11 -14.83,10.93 -26.56,12.14 -38.29,19.59 30.65,27.3 47.39,28.42 97.65,28.4 75.73,-0.04 477.48,3.12 507.26,-1.8 15.86,-2.63 33.09,-10.6 42.88,-19.35 49.64,-44.41 38.44,-77.39 38.43,-154.69 0,-15.93 1.94,-118.38 0.08,-123.18 11.42,148.98 60.88,334.01 -115.11,333.95 -158.7,-0.05 -317.2,0.04 -475.86,0.01 4.98,34.96 69.33,111.33 94.96,138.9 71.01,76.37 134.02,171.35 143.93,282.54 2.95,33.06 -1.46,65.39 0.81,95.42l615.31 0.12c0,-4.46 -26.61,-83.84 -32.1,-111.94 -3.64,-18.63 -10.01,-40.61 -13.5,-59.43 -3.85,-20.7 -5.4,-44.24 -8.51,-64.57 -16.05,-104.85 15.35,-261.49 12.54,-275.17 0.37,-0.63 0.68,-2.41 0.81,-2.05 0.12,0.36 0.61,-1.55 0.77,-2.09l9.76 -48.55zm-601.51 -121.01c-18.84,3.87 -24.76,7.62 -35.07,20.63 -29.1,36.71 0.64,97.69 57.98,87.01 64.29,-11.97 50.92,-122.79 -22.91,-107.64zm-70.04 -1055.82l161.31 -0.02c19.65,0 22.39,-7.49 17.14,-24.31 -21.92,-8.06 -95.2,-3.35 -123.81,-3.35 -14.35,0 -53.16,-1.86 -64.72,0.38 -16.15,3.14 -23.18,27.3 10.08,27.3zm35.48 1090.01c23.65,-2.02 40.3,-3.96 49.66,17.22 4.02,9.07 3.74,20.84 -0.55,29.37 -7.18,14.29 -14.18,8.34 -11.75,18.71 37.64,4.26 67.72,-35.04 47.22,-70.14 -13.7,-23.46 -48.65,-30.99 -69.25,-13.58 -5.36,4.53 -11.94,13.18 -15.33,18.42zm0 0c-3.78,14.9 -4.46,31.66 4.15,44.59 6.41,9.6 17.12,19.35 33.21,20.71 -2.43,-10.37 4.57,-4.42 11.75,-18.71 4.29,-8.53 4.57,-20.3 0.55,-29.37 -9.36,-21.18 -26.01,-19.24 -49.66,-17.22z"/>
   <path class="fil3" d="M13586.93 15751.71c-64.31,8.11 -79.23,87.03 -38.61,125.55l55.2 48.64c6.99,5.83 10.33,8.82 18.18,15.81 11.65,10.39 23.99,20.97 37.51,32.67 25.85,22.37 47.69,51.26 96.86,44.49 35.27,-4.85 60.8,-38.37 56.45,-81.07 -3.93,-38.53 -46.69,-65.91 -78.32,-93.11l-55.49 -48.55c-23.36,-21.04 -46.64,-50.13 -91.78,-44.43z"/>
   <path class="fil3" d="M13556.52 15979.11c-57.1,30.49 -55.07,87.68 -11.8,122.82l98.72 85.98c0.4,0.36 0.97,0.88 1.37,1.24 22.37,20.49 51.78,50.81 95.24,34.51 41.13,-15.42 66.41,-71.61 13.59,-119.85l-86.01 -75.4c-6.65,-5.39 -11.67,-9.92 -18.08,-15.65 -20.4,-18.23 -58.42,-52.13 -93.03,-33.65z"/>
   <path class="fil3" d="M13568.55 16188.77c-25.07,4.99 -46.85,25.87 -49.23,53.16 -3.22,36.88 18.29,46.47 38.65,65.26 17.97,16.6 38.31,32.87 55.49,48.69 17.44,16.07 37.05,38.37 71.79,31.23 23.58,-4.85 44.73,-27.57 47.02,-54.19 2.8,-32.69 -22.57,-49.18 -39.93,-63.86 -19,-16.06 -36.38,-33.18 -55.4,-48.55 -18.48,-14.94 -35.41,-38.29 -68.39,-31.74z"/>
   <path class="fil3" d="M13623.93 15704.39c0.61,-65.41 -0.46,-130.92 0.17,-196.31 0.22,-22.12 1.25,-25.44 -14.27,-36.14 -58.75,-40.53 -142.16,0.91 -132.84,80.54 3.34,28.56 21.14,44.98 39.34,60.02 4.89,4.04 8.19,7.89 12.14,11.31l40.4 35.05c9.23,8.46 16.12,14.03 26.41,22.91l28.65 22.62z"/>
   <path class="fil3" d="M14231.49 15009.62c-34.18,-16.37 -43.52,-33.39 -82.81,-52.59l-29.18 140.52c76.26,6.42 35.17,-9.44 67.8,-58.55 31.08,14.44 22.84,22.87 62.32,36.13 9.37,-25.7 13.5,-38.72 32.06,-53.97l33.42 51.27c32.8,-12.31 34.23,-21.88 61.2,-36.32l9.53 68.04 68.8 -14.96 -16.01 70.41 49.09 6.65c28.74,8.92 7.36,1.61 17.23,8.06 -15.9,25 -23.58,24.47 -33.58,51.48l53.18 32.93 -24.2 22.99c-19.1,14.38 -7.35,-3.34 -28.83,21.3 11.57,23.19 21.34,28.62 34.37,51.49 -49.06,38.81 -61.15,-14.48 -63.01,64.01l144.21 -24.53c-12.83,-29.05 -35.42,-53.16 -52.64,-79.17 23.68,-16.52 52.27,-32.62 79.39,-48.79l-79.88 -51.99c14.16,-27.68 36.64,-50.94 53.38,-79.14l-92.16 -12.83 21.98 -94.06 -94.97 21.04 -12.19 -93.01c-24.12,11.32 -58.3,38.65 -76.82,52.26l-49.8 -75.44 -27.45 35.7c-9.19,14.82 -17.55,30.2 -24.43,41.07z"/>
   <g>
    <path class="fil20 str3" d="M14861.63 16610.46c0.02,17.93 2.52,115.21 8.5,124.6 7.09,-2.41 46,-67.81 52.17,-78.46 27.78,-47.88 80.41,-135.35 55.13,-192.54 -12.44,-28.12 -40.93,-47.88 -81.73,-49.82 -27.64,32.77 -34.13,144.29 -34.07,196.22z"/>
    <path id="1" class="fil3" d="M14861.63 16610.46c0.02,17.93 2.52,115.21 8.5,124.6 7.09,-2.41 46,-67.81 52.17,-78.46 27.78,-47.88 80.41,-135.35 55.13,-192.54 -12.44,-28.12 -40.93,-47.88 -81.73,-49.82 -27.64,32.77 -34.13,144.29 -34.07,196.22z"/>
   </g>
   <g>
    <path class="fil20 str3" d="M14837.04 16735.03c9.32,-14.34 20.15,-264.73 -25.57,-320.79 -42,1.86 -68.29,21.3 -81.63,49.94 -25.81,55.42 28.15,145.74 55.07,192.39 6.39,11.06 44.66,76.14 52.13,78.46z"/>
    <path id="1" class="fil3" d="M14837.04 16735.03c9.32,-14.34 20.15,-264.73 -25.57,-320.79 -42,1.86 -68.29,21.3 -81.63,49.94 -25.81,55.42 28.15,145.74 55.07,192.39 6.39,11.06 44.66,76.14 52.13,78.46z"/>
   </g>
   <g>
    <path class="fil20 str3" d="M14892.93 16749.11c10.77,-0.01 72.9,-36.67 84.57,-43.3 26.08,-14.82 56.85,-34.14 76.96,-50.9 43.11,-35.93 59.49,-73.37 26.4,-128.84 -7.11,-11.91 -19.91,-28.77 -28.75,-35.7 -7.88,6.97 -15.75,19.34 -22.61,28.31 -8.44,11.02 -14.13,19.34 -22.1,30.54 -30.16,42.39 -54.59,83.34 -80.01,129.02 -6.69,12.03 -32.24,59.08 -34.46,70.87z"/>
    <path id="1" class="fil3" d="M14892.93 16749.11c10.77,-0.01 72.9,-36.67 84.57,-43.3 26.08,-14.82 56.85,-34.14 76.96,-50.9 43.11,-35.93 59.49,-73.37 26.4,-128.84 -7.11,-11.91 -19.91,-28.77 -28.75,-35.7 -7.88,6.97 -15.75,19.34 -22.61,28.31 -8.44,11.02 -14.13,19.34 -22.1,30.54 -30.16,42.39 -54.59,83.34 -80.01,129.02 -6.69,12.03 -32.24,59.08 -34.46,70.87z"/>
   </g>
   <g>
    <path class="fil20 str3" d="M14813.87 16749.68c1.51,-20.25 -92.02,-169.88 -113.17,-199.91l-46.28 -59.73c-14.66,16.59 -40.97,47.48 -44.72,81.27 -5.99,54.02 44.73,87.1 80.96,110.35 19.65,12.61 110.36,67.44 123.21,68.02z"/>
    <path id="1" class="fil3" d="M14813.87 16749.68c1.51,-20.25 -92.02,-169.88 -113.17,-199.91l-46.28 -59.73c-14.66,16.59 -40.97,47.48 -44.72,81.27 -5.99,54.02 44.73,87.1 80.96,110.35 19.65,12.61 110.36,67.44 123.21,68.02z"/>
   </g>
   <g>
    <path class="fil20 str3" d="M14799.65 16769.86c0.96,-4.46 -48.59,-33.29 -52.05,-35.4 -46.38,-28.3 -95.57,-56.17 -143.35,-82.25 -9.98,-5.46 -20.4,-12.06 -30.41,-16.18 -11.59,17.22 -3.79,59.81 4.58,76.6 9.95,19.94 26.55,37.29 46.21,47.11 33.65,16.79 84.16,11.89 128.19,11.69l42.06 -0.2c0.48,-0.07 0.87,-0.14 1.31,-0.22l3.46 -1.15z"/>
    <path id="1" class="fil3" d="M14799.65 16769.86c0.96,-4.46 -48.59,-33.29 -52.05,-35.4 -46.38,-28.3 -95.57,-56.17 -143.35,-82.25 -9.98,-5.46 -20.4,-12.06 -30.41,-16.18 -11.59,17.22 -3.79,59.81 4.58,76.6 9.95,19.94 26.55,37.29 46.21,47.11 33.65,16.79 84.16,11.89 128.19,11.69l42.06 -0.2c0.48,-0.07 0.87,-0.14 1.31,-0.22l3.46 -1.15z"/>
   </g>
   <g>
    <path class="fil20 str3" d="M14907.66 16769.88c6.68,2.49 78.36,0.88 91.81,0.88 33.84,0 53.65,3.29 82.14,-10.45 20.7,-9.98 36.17,-26.21 46.7,-46.61 8.95,-17.35 17.23,-59.59 5.02,-77.8 -17.87,6.53 -196.72,110.79 -220.08,127.48 -4.58,3.27 -4.38,2.04 -5.59,6.5z"/>
    <path id="1" class="fil3" d="M14907.66 16769.88c6.68,2.49 78.36,0.88 91.81,0.88 33.84,0 53.65,3.29 82.14,-10.45 20.7,-9.98 36.17,-26.21 46.7,-46.61 8.95,-17.35 17.23,-59.59 5.02,-77.8 -17.87,6.53 -196.72,110.79 -220.08,127.48 -4.58,3.27 -4.38,2.04 -5.59,6.5z"/>
   </g>
   <g>
    <path class="fil20 str3" d="M15086.72 16790.74c-21.1,-1.19 -167.57,-7.7 -177.13,-5.67 3.38,10.08 70.64,49.37 87.96,55.91 38.85,14.68 80.19,-26.9 89.17,-50.24z"/>
    <path id="1" class="fil3" d="M15086.72 16790.74c-21.1,-1.19 -167.57,-7.7 -177.13,-5.67 3.38,10.08 70.64,49.37 87.96,55.91 38.85,14.68 80.19,-26.9 89.17,-50.24z"/>
   </g>
   <g>
    <path class="fil20 str3" d="M14620.81 16789.9c1.43,5.57 10.34,17.49 13.82,21.47 44,50.43 74.49,34.41 120.76,4.72 8.89,-5.7 39.42,-24.28 42.44,-31.22l-177.02 5.03z"/>
    <path id="1" class="fil3" d="M14620.81 16789.9c1.43,5.57 10.34,17.49 13.82,21.47 44,50.43 74.49,34.41 120.76,4.72 8.89,-5.7 39.42,-24.28 42.44,-31.22l-177.02 5.03z"/>
   </g>
   <g>
    <path class="fil20 str4" d="M13111.4 16819.56l49.57 1.17 1.7 -91.47 109.92 -0.57c7.6,23.09 1.07,64.56 3.37,91.03l48.79 0.98 1.08 -222.87 -50.63 0.53 0.03 89.46 -112.92 0c-0.09,-77.35 14.14,-89.84 -22.91,-90.31 -8.37,-0.11 -18.2,0.18 -26.53,0.72l-1.47 221.33z"/>
    <path id="1" class="fil3" d="M13111.4 16819.56l49.57 1.17 1.7 -91.47 109.92 -0.57c7.6,23.09 1.07,64.56 3.37,91.03l48.79 0.98 1.08 -222.87 -50.63 0.53 0.03 89.46 -112.92 0c-0.09,-77.35 14.14,-89.84 -22.91,-90.31 -8.37,-0.11 -18.2,0.18 -26.53,0.72l-1.47 221.33z"/>
   </g>
   <g>
    <path class="fil20 str4" d="M13367.57 16609.98l-0.02 120.37c0.02,47.43 11.09,69.16 45.5,83.69 32.69,13.81 84.22,13.49 116.72,0.56 35.66,-14.2 46.68,-34.36 47.33,-80.5l0.05 -136.3 -50.6 0.35c0.17,42.85 8.69,155.91 -13.54,177.67 -14.49,14.17 -48.79,15.55 -69.06,7.41 -37.07,-14.89 -25.9,-92.11 -25.91,-151.36l0 -34.16 -50.45 0.12 -0.02 12.15z"/>
    <path id="1" class="fil3" d="M13367.57 16609.98l-0.02 120.37c0.02,47.43 11.09,69.16 45.5,83.69 32.69,13.81 84.22,13.49 116.72,0.56 35.66,-14.2 46.68,-34.36 47.33,-80.5l0.05 -136.3 -50.6 0.35c0.17,42.85 8.69,155.91 -13.54,177.67 -14.49,14.17 -48.79,15.55 -69.06,7.41 -37.07,-14.89 -25.9,-92.11 -25.91,-151.36l0 -34.16 -50.45 0.12 -0.02 12.15z"/>
   </g>
   <g>
    <path class="fil14 str5" d="M13172.49 16955.85c-8.48,0 -15.44,1.73 -20.88,5.19 -5.43,3.46 -8.15,8.69 -8.15,15.69 0,7 2.72,12.35 8.15,16.05 5.44,3.71 17.01,7.7 34.71,11.98 17.71,4.29 31.05,10.3 40.02,18.04 8.98,7.74 13.46,19.14 13.46,34.21 0,15.07 -5.68,27.3 -17.04,36.69 -11.36,9.38 -26.27,14.08 -44.71,14.08 -27.01,0 -50.97,-9.31 -71.89,-27.92l18.28 -21.98c17.46,15.15 35.57,22.72 54.35,22.72 9.39,0 16.84,-2.01 22.35,-6.05 5.52,-4.03 8.28,-9.39 8.28,-16.06 0,-6.67 -2.59,-11.85 -7.78,-15.56 -5.19,-3.7 -14.12,-7.08 -26.8,-10.13 -12.69,-3.04 -22.32,-5.84 -28.91,-8.4 -6.58,-2.55 -12.43,-5.88 -17.54,-10 -10.21,-7.74 -15.31,-19.6 -15.31,-35.57 0,-15.98 5.8,-28.29 17.41,-36.93 11.61,-8.65 25.98,-12.97 43.11,-12.97 11.03,0 21.99,1.81 32.86,5.43 10.86,3.62 20.25,8.73 28.16,15.32l-15.57 21.98c-5.1,-4.61 -12.02,-8.4 -20.75,-11.36 -8.73,-2.97 -17.33,-4.45 -25.81,-4.45zm224.67 -22.72l0 27.42 -92.14 0 0 45.7 82.76 0 0 25.94 -82.76 0 0 46.19 95.11 0 0 27.42 -124.26 0 0 -172.67 121.29 0zm92.52 22.72c-8.48,0 -15.44,1.73 -20.88,5.19 -5.43,3.46 -8.15,8.69 -8.15,15.69 0,7 2.72,12.35 8.15,16.05 5.44,3.71 17.01,7.7 34.71,11.98 17.71,4.29 31.05,10.3 40.02,18.04 8.98,7.74 13.46,19.14 13.46,34.21 0,15.07 -5.68,27.3 -17.04,36.69 -11.36,9.38 -26.27,14.08 -44.71,14.08 -27.01,0 -50.97,-9.31 -71.89,-27.92l18.28 -21.98c17.46,15.15 35.57,22.72 54.35,22.72 9.39,0 16.84,-2.01 22.35,-6.05 5.52,-4.03 8.28,-9.39 8.28,-16.06 0,-6.67 -2.59,-11.85 -7.78,-15.56 -5.19,-3.7 -14.12,-7.08 -26.8,-10.13 -12.69,-3.04 -22.32,-5.84 -28.91,-8.4 -6.58,-2.55 -12.43,-5.88 -17.54,-10 -10.21,-7.74 -15.31,-19.6 -15.31,-35.57 0,-15.98 5.8,-28.29 17.41,-36.93 11.61,-8.65 25.98,-12.97 43.11,-12.97 11.03,0 21.99,1.81 32.86,5.43 10.86,3.62 20.25,8.73 28.16,15.32l-15.57 21.98c-5.1,-4.61 -12.02,-8.4 -20.75,-11.36 -8.73,-2.97 -17.33,-4.45 -25.81,-4.45zm103.38 -22.72l29.15 0 0 172.67 -29.15 0 0 -172.67zm200.22 40.76c-11.78,-12.19 -26.23,-18.28 -43.36,-18.28 -17.12,0 -31.58,6.09 -43.35,18.28 -11.78,12.18 -17.66,26.96 -17.66,44.34 0,17.37 5.88,32.15 17.66,44.34 11.77,12.19 26.23,18.28 43.35,18.28 17.13,0 31.58,-6.09 43.36,-18.28 11.77,-12.19 17.66,-26.97 17.66,-44.34 0,-17.38 -5.89,-32.16 -17.66,-44.34zm21.36 108.07c-17.45,17.05 -39.03,25.57 -64.72,25.57 -25.69,0 -47.26,-8.52 -64.72,-25.57 -17.46,-17.04 -26.18,-38.29 -26.18,-63.73 0,-25.45 8.72,-46.69 26.18,-63.74 17.46,-17.04 39.03,-25.56 64.72,-25.56 25.69,0 47.27,8.52 64.72,25.56 17.46,17.05 26.19,38.29 26.19,63.74 0,25.44 -8.73,46.69 -26.19,63.73zm-60.27 -163.16l-25.2 0 26.19 -35.82 29.15 12.1 -30.14 23.72zm252.72 14.33l29.15 0 0 172.67 -31.62 0 -97.83 -125.99 0 125.99 -29.15 0 0 -172.67 29.15 0 100.3 128.95 0 -128.95zm269.8 27.17l0 47.43 76.58 0 0 26.93 -76.58 0 0 71.14 -29.15 0 0 -172.67 115.12 0 -0.25 27.17 -85.72 0zm243.21 13.59c-11.78,-12.19 -26.23,-18.28 -43.36,-18.28 -17.12,0 -31.58,6.09 -43.35,18.28 -11.78,12.18 -17.66,26.96 -17.66,44.34 0,17.37 5.88,32.15 17.66,44.34 11.77,12.19 26.23,18.28 43.35,18.28 17.13,0 31.58,-6.09 43.36,-18.28 11.77,-12.19 17.66,-26.97 17.66,-44.34 0,-17.38 -5.89,-32.16 -17.66,-44.34zm21.36 108.07c-17.45,17.05 -39.03,25.57 -64.72,25.57 -25.69,0 -47.26,-8.52 -64.72,-25.57 -17.46,-17.04 -26.18,-38.29 -26.18,-63.73 0,-25.45 8.72,-46.69 26.18,-63.74 17.46,-17.04 39.03,-25.56 64.72,-25.56 25.69,0 47.27,8.52 64.72,25.56 17.46,17.05 26.19,38.29 26.19,63.74 0,25.44 -8.73,46.69 -26.19,63.73zm123.52 -122.15l0 145.99 -29.15 0 0 -145.99 -52.37 0 0 -26.68 133.89 0 0 26.68 -52.37 0zm202.44 14.08c-11.78,-12.19 -26.23,-18.28 -43.36,-18.28 -17.12,0 -31.58,6.09 -43.35,18.28 -11.78,12.18 -17.66,26.96 -17.66,44.34 0,17.37 5.88,32.15 17.66,44.34 11.77,12.19 26.23,18.28 43.35,18.28 17.13,0 31.58,-6.09 43.36,-18.28 11.77,-12.19 17.66,-26.97 17.66,-44.34 0,-17.38 -5.89,-32.16 -17.66,-44.34zm21.36 108.07c-17.45,17.05 -39.03,25.57 -64.72,25.57 -25.69,0 -47.26,-8.52 -64.72,-25.57 -17.46,-17.04 -26.18,-38.29 -26.18,-63.73 0,-25.45 8.72,-46.69 26.18,-63.74 17.46,-17.04 39.03,-25.56 64.72,-25.56 25.69,0 47.27,8.52 64.72,25.56 17.46,17.05 26.19,38.29 26.19,63.74 0,25.44 -8.73,46.69 -26.19,63.73zm115.25 -126.11c-8.48,0 -15.44,1.73 -20.88,5.19 -5.43,3.46 -8.15,8.69 -8.15,15.69 0,7 2.72,12.35 8.15,16.05 5.44,3.71 17.01,7.7 34.71,11.98 17.71,4.29 31.05,10.3 40.02,18.04 8.98,7.74 13.46,19.14 13.46,34.21 0,15.07 -5.68,27.3 -17.04,36.69 -11.36,9.38 -26.27,14.08 -44.71,14.08 -27.01,0 -50.97,-9.31 -71.89,-27.92l18.28 -21.98c17.46,15.15 35.57,22.72 54.35,22.72 9.39,0 16.84,-2.01 22.35,-6.05 5.52,-4.03 8.28,-9.39 8.28,-16.06 0,-6.67 -2.59,-11.85 -7.78,-15.56 -5.19,-3.7 -14.12,-7.08 -26.8,-10.13 -12.69,-3.04 -22.32,-5.84 -28.91,-8.4 -6.58,-2.55 -12.43,-5.88 -17.54,-10 -10.21,-7.74 -15.31,-19.6 -15.31,-35.57 0,-15.98 5.8,-28.29 17.41,-36.93 11.61,-8.65 25.98,-12.97 43.11,-12.97 11.03,0 21.99,1.81 32.86,5.43 10.86,3.62 20.25,8.73 28.16,15.32l-15.57 21.98c-5.1,-4.61 -12.02,-8.4 -20.75,-11.36 -8.73,-2.97 -17.33,-4.45 -25.81,-4.45zm-905.44 70.33c14.27,0 25.25,3.47 32.92,10.42 7.67,6.95 11.5,16.61 11.5,28.99 0,12.38 -3.72,22.17 -11.16,29.39 -7.44,7.21 -18.83,10.82 -34.17,10.82l-26.43 0 0 -79.62 27.34 0zm30.87 39.75c0,-18.22 -10.44,-27.34 -31.33,-27.34l-13.44 0 0 54.57 14.92 0c9.65,0 17.03,-2.3 22.16,-6.9 5.12,-4.59 7.69,-11.37 7.69,-20.33zm86.8 -39.75l0 12.64 -42.49 0 0 21.07 38.16 0 0 11.96 -38.16 0 0 21.31 43.86 0 0 12.64 -57.3 0 0 -79.62 55.93 0z"/>
    <path id="1" class="fil13" d="M13172.49 16955.85c-8.48,0 -15.44,1.73 -20.88,5.19 -5.43,3.46 -8.15,8.69 -8.15,15.69 0,7 2.72,12.35 8.15,16.05 5.44,3.71 17.01,7.7 34.71,11.98 17.71,4.29 31.05,10.3 40.02,18.04 8.98,7.74 13.46,19.14 13.46,34.21 0,15.07 -5.68,27.3 -17.04,36.69 -11.36,9.38 -26.27,14.08 -44.71,14.08 -27.01,0 -50.97,-9.31 -71.89,-27.92l18.28 -21.98c17.46,15.15 35.57,22.72 54.35,22.72 9.39,0 16.84,-2.01 22.35,-6.05 5.52,-4.03 8.28,-9.39 8.28,-16.06 0,-6.67 -2.59,-11.85 -7.78,-15.56 -5.19,-3.7 -14.12,-7.08 -26.8,-10.13 -12.69,-3.04 -22.32,-5.84 -28.91,-8.4 -6.58,-2.55 -12.43,-5.88 -17.54,-10 -10.21,-7.74 -15.31,-19.6 -15.31,-35.57 0,-15.98 5.8,-28.29 17.41,-36.93 11.61,-8.65 25.98,-12.97 43.11,-12.97 11.03,0 21.99,1.81 32.86,5.43 10.86,3.62 20.25,8.73 28.16,15.32l-15.57 21.98c-5.1,-4.61 -12.02,-8.4 -20.75,-11.36 -8.73,-2.97 -17.33,-4.45 -25.81,-4.45zm224.67 -22.72l0 27.42 -92.14 0 0 45.7 82.76 0 0 25.94 -82.76 0 0 46.19 95.11 0 0 27.42 -124.26 0 0 -172.67 121.29 0zm92.52 22.72c-8.48,0 -15.44,1.73 -20.88,5.19 -5.43,3.46 -8.15,8.69 -8.15,15.69 0,7 2.72,12.35 8.15,16.05 5.44,3.71 17.01,7.7 34.71,11.98 17.71,4.29 31.05,10.3 40.02,18.04 8.98,7.74 13.46,19.14 13.46,34.21 0,15.07 -5.68,27.3 -17.04,36.69 -11.36,9.38 -26.27,14.08 -44.71,14.08 -27.01,0 -50.97,-9.31 -71.89,-27.92l18.28 -21.98c17.46,15.15 35.57,22.72 54.35,22.72 9.39,0 16.84,-2.01 22.35,-6.05 5.52,-4.03 8.28,-9.39 8.28,-16.06 0,-6.67 -2.59,-11.85 -7.78,-15.56 -5.19,-3.7 -14.12,-7.08 -26.8,-10.13 -12.69,-3.04 -22.32,-5.84 -28.91,-8.4 -6.58,-2.55 -12.43,-5.88 -17.54,-10 -10.21,-7.74 -15.31,-19.6 -15.31,-35.57 0,-15.98 5.8,-28.29 17.41,-36.93 11.61,-8.65 25.98,-12.97 43.11,-12.97 11.03,0 21.99,1.81 32.86,5.43 10.86,3.62 20.25,8.73 28.16,15.32l-15.57 21.98c-5.1,-4.61 -12.02,-8.4 -20.75,-11.36 -8.73,-2.97 -17.33,-4.45 -25.81,-4.45zm103.38 -22.72l29.15 0 0 172.67 -29.15 0 0 -172.67zm200.22 40.76c-11.78,-12.19 -26.23,-18.28 -43.36,-18.28 -17.12,0 -31.58,6.09 -43.35,18.28 -11.78,12.18 -17.66,26.96 -17.66,44.34 0,17.37 5.88,32.15 17.66,44.34 11.77,12.19 26.23,18.28 43.35,18.28 17.13,0 31.58,-6.09 43.36,-18.28 11.77,-12.19 17.66,-26.97 17.66,-44.34 0,-17.38 -5.89,-32.16 -17.66,-44.34zm21.36 108.07c-17.45,17.05 -39.03,25.57 -64.72,25.57 -25.69,0 -47.26,-8.52 -64.72,-25.57 -17.46,-17.04 -26.18,-38.29 -26.18,-63.73 0,-25.45 8.72,-46.69 26.18,-63.74 17.46,-17.04 39.03,-25.56 64.72,-25.56 25.69,0 47.27,8.52 64.72,25.56 17.46,17.05 26.19,38.29 26.19,63.74 0,25.44 -8.73,46.69 -26.19,63.73zm-60.27 -163.16l-25.2 0 26.19 -35.82 29.15 12.1 -30.14 23.72zm252.72 14.33l29.15 0 0 172.67 -31.62 0 -97.83 -125.99 0 125.99 -29.15 0 0 -172.67 29.15 0 100.3 128.95 0 -128.95zm269.8 27.17l0 47.43 76.58 0 0 26.93 -76.58 0 0 71.14 -29.15 0 0 -172.67 115.12 0 -0.25 27.17 -85.72 0zm243.21 13.59c-11.78,-12.19 -26.23,-18.28 -43.36,-18.28 -17.12,0 -31.58,6.09 -43.35,18.28 -11.78,12.18 -17.66,26.96 -17.66,44.34 0,17.37 5.88,32.15 17.66,44.34 11.77,12.19 26.23,18.28 43.35,18.28 17.13,0 31.58,-6.09 43.36,-18.28 11.77,-12.19 17.66,-26.97 17.66,-44.34 0,-17.38 -5.89,-32.16 -17.66,-44.34zm21.36 108.07c-17.45,17.05 -39.03,25.57 -64.72,25.57 -25.69,0 -47.26,-8.52 -64.72,-25.57 -17.46,-17.04 -26.18,-38.29 -26.18,-63.73 0,-25.45 8.72,-46.69 26.18,-63.74 17.46,-17.04 39.03,-25.56 64.72,-25.56 25.69,0 47.27,8.52 64.72,25.56 17.46,17.05 26.19,38.29 26.19,63.74 0,25.44 -8.73,46.69 -26.19,63.73zm123.52 -122.15l0 145.99 -29.15 0 0 -145.99 -52.37 0 0 -26.68 133.89 0 0 26.68 -52.37 0zm202.44 14.08c-11.78,-12.19 -26.23,-18.28 -43.36,-18.28 -17.12,0 -31.58,6.09 -43.35,18.28 -11.78,12.18 -17.66,26.96 -17.66,44.34 0,17.37 5.88,32.15 17.66,44.34 11.77,12.19 26.23,18.28 43.35,18.28 17.13,0 31.58,-6.09 43.36,-18.28 11.77,-12.19 17.66,-26.97 17.66,-44.34 0,-17.38 -5.89,-32.16 -17.66,-44.34zm21.36 108.07c-17.45,17.05 -39.03,25.57 -64.72,25.57 -25.69,0 -47.26,-8.52 -64.72,-25.57 -17.46,-17.04 -26.18,-38.29 -26.18,-63.73 0,-25.45 8.72,-46.69 26.18,-63.74 17.46,-17.04 39.03,-25.56 64.72,-25.56 25.69,0 47.27,8.52 64.72,25.56 17.46,17.05 26.19,38.29 26.19,63.74 0,25.44 -8.73,46.69 -26.19,63.73zm115.25 -126.11c-8.48,0 -15.44,1.73 -20.88,5.19 -5.43,3.46 -8.15,8.69 -8.15,15.69 0,7 2.72,12.35 8.15,16.05 5.44,3.71 17.01,7.7 34.71,11.98 17.71,4.29 31.05,10.3 40.02,18.04 8.98,7.74 13.46,19.14 13.46,34.21 0,15.07 -5.68,27.3 -17.04,36.69 -11.36,9.38 -26.27,14.08 -44.71,14.08 -27.01,0 -50.97,-9.31 -71.89,-27.92l18.28 -21.98c17.46,15.15 35.57,22.72 54.35,22.72 9.39,0 16.84,-2.01 22.35,-6.05 5.52,-4.03 8.28,-9.39 8.28,-16.06 0,-6.67 -2.59,-11.85 -7.78,-15.56 -5.19,-3.7 -14.12,-7.08 -26.8,-10.13 -12.69,-3.04 -22.32,-5.84 -28.91,-8.4 -6.58,-2.55 -12.43,-5.88 -17.54,-10 -10.21,-7.74 -15.31,-19.6 -15.31,-35.57 0,-15.98 5.8,-28.29 17.41,-36.93 11.61,-8.65 25.98,-12.97 43.11,-12.97 11.03,0 21.99,1.81 32.86,5.43 10.86,3.62 20.25,8.73 28.16,15.32l-15.57 21.98c-5.1,-4.61 -12.02,-8.4 -20.75,-11.36 -8.73,-2.97 -17.33,-4.45 -25.81,-4.45zm-905.44 70.33c14.27,0 25.25,3.47 32.92,10.42 7.67,6.95 11.5,16.61 11.5,28.99 0,12.38 -3.72,22.17 -11.16,29.39 -7.44,7.21 -18.83,10.82 -34.17,10.82l-26.43 0 0 -79.62 27.34 0zm30.87 39.75c0,-18.22 -10.44,-27.34 -31.33,-27.34l-13.44 0 0 54.57 14.92 0c9.65,0 17.03,-2.3 22.16,-6.9 5.12,-4.59 7.69,-11.37 7.69,-20.33zm86.8 -39.75l0 12.64 -42.49 0 0 21.07 38.16 0 0 11.96 -38.16 0 0 21.31 43.86 0 0 12.64 -57.3 0 0 -79.62 55.93 0z"/>
   </g>
   <g>
    <polygon class="fil20 str4" points="13894.83,16820.61 13955.36,16820.57 13999.94,16657.71 14052.07,16820.29 14113.64,16820.32 14189.01,16598.08 14136.86,16597.81 14085.89,16766.25 14032.14,16598.31 13970.38,16597.78 13925.46,16766.1 13868.56,16598.16 13815.05,16598.54 "/>
    <polygon id="1" class="fil3" points="13894.83,16820.61 13955.36,16820.57 13999.94,16657.71 14052.07,16820.29 14113.64,16820.32 14189.01,16598.08 14136.86,16597.81 14085.89,16766.25 14032.14,16598.31 13970.38,16597.78 13925.46,16766.1 13868.56,16598.16 13815.05,16598.54 "/>
   </g>
   <g>
    <path class="fil20 str6" d="M13587.64 16819.84l53.14 0.51 22.27 -53.19 104.19 0.19 22.07 53.03 54.01 0.27c-5.84,-26.27 -37.42,-84.45 -50.23,-113.13l-37.98 -82.32c-14.56,-33.57 -1.82,-27.51 -65.17,-27.08l-102.3 221.72zm122.22 -179.81l59.48 100.9 -107.05 -0.44 47.57 -100.46z"/>
    <path id="1" class="fil3" d="M13587.64 16819.84l53.14 0.51 22.27 -53.19 104.19 0.19 22.07 53.03 54.01 0.27c-5.84,-26.27 -37.42,-84.45 -50.23,-113.13l-37.98 -82.32c-14.56,-33.57 -1.82,-27.51 -65.17,-27.08l-102.3 221.72zm122.22 -179.81l59.48 100.9 -107.05 -0.44 47.57 -100.46z"/>
   </g>
   <g>
    <path class="fil20 str4" d="M14396.99 16820.63l1.13 -39.13c-79.6,-0.36 -139.21,15.89 -139.97,-54.5l139.85 -0.02 -0.6 -39.09 -139.5 -0.09c7.62,-68.21 76.51,-50.92 140.1,-50.93l-0.05 -39.07c-106.39,-0.07 -195.63,-12.54 -197.73,110.62 -2.3,134.43 111.86,111.74 196.77,112.21z"/>
    <path id="1" class="fil3" d="M14396.99 16820.63l1.13 -39.13c-79.6,-0.36 -139.21,15.89 -139.97,-54.5l139.85 -0.02 -0.6 -39.09 -139.5 -0.09c7.62,-68.21 76.51,-50.92 140.1,-50.93l-0.05 -39.07c-106.39,-0.07 -195.63,-12.54 -197.73,110.62 -2.3,134.43 111.86,111.74 196.77,112.21z"/>
   </g>
   <g>
    <polygon class="fil20 str4" points="14443.33,16820.59 14495.05,16820.57 14495.97,16597.95 14443.27,16597.78 "/>
    <polygon id="1" class="fil3" points="14443.33,16820.59 14495.05,16820.57 14495.97,16597.95 14443.27,16597.78 "/>
   </g>
  </g>
 </g>
</svg>
