<?xml version="1.0" encoding="UTF-8"?>
<!DOCTYPE svg PUBLIC "-//W3C//DTD SVG 1.1//EN" "http://www.w3.org/Graphics/SVG/1.1/DTD/svg11.dtd">
<!-- Creator: CorelDRAW 2017 -->
<svg xmlns="http://www.w3.org/2000/svg" xml:space="preserve" width="15mm" height="22mm" version="1.1" style="shape-rendering:geometricPrecision; text-rendering:geometricPrecision; image-rendering:optimizeQuality; fill-rule:evenodd; clip-rule:evenodd"
viewBox="0 0 1500 2200"
 xmlns:xlink="http://www.w3.org/1999/xlink">
 <defs>
  <style type="text/css">
   <![CDATA[
    .fil0 {fill:#1C1A20}
    .fil1 {fill:#D366B9}
   ]]>
  </style>
 </defs>
 <g id="Capa_x0020_1">
  <metadata id="CorelCorpID_0Corel-Layer"/>
  <g id="_2650180233152">
   <path class="fil0" d="M44.1 45.04l310.11 0 0 461.77 -310.11 0 0 -461.77zm265.9 130.35l-221.69 0 0 -110.17 37.5 0 0 80.32 48.89 0 0 -74.61 37.51 0 0 74.61 60.29 0 0 -83.18 37.5 0 0 113.03zm0 148.96l-221.69 0 0 -62.87c0,-19.47 4.43,-34.02 13.21,-43.65 8.78,-9.63 25.08,-14.45 48.81,-14.45 35.53,0 56.18,13.02 61.88,39.05 7.91,-10.1 26.1,-21.11 54.51,-33.02l43.28 -18.09 0 36.19 -71.76 31.86c-7.04,3.17 -12.34,6.72 -15.75,10.63 -3.4,3.92 -5.06,10.06 -5.06,18.47l0 6.04 92.57 0 0 29.84zm0 16.24l0 32.55 -50.32 12.7 0 59.52 50.32 12.34 0 31.8 -221.69 -57.78 0 -32.18 221.69 -58.95z"/>
   <path class="fil0" d="M394.07 45.09l1061.61 0 0 461.77 -1061.61 0 0 -461.77zm737.65 77.29l62.78 0 0 165.77c0,24.44 0.89,42.31 2.56,53.39 1.77,11.07 7.78,20.39 18.03,27.95 10.13,7.57 24.38,11.4 42.64,11.4 23.03,0 38.73,-5.37 47.08,-16 8.36,-10.64 12.58,-35.08 12.58,-73.24l0 -169.27 62.78 0 0 161.16c0,37.6 -2.33,65.78 -7,84.42 -4.69,18.74 -16.15,34.42 -34.41,47.14 -18.14,12.72 -44.52,19.07 -79.03,19.07 -33.74,0 -60.12,-5.37 -79.15,-16.22 -19.14,-10.74 -32.06,-24.78 -38.74,-42.1 -6.78,-17.32 -10.12,-47.36 -10.12,-90.01l0 -163.46zm-351.89 155.35c0,-49.44 13.35,-88.47 40.08,-117.09 26.6,-28.61 63.66,-42.86 111.21,-42.86 53.76,0 92.61,15.67 116.32,47.03 23.71,31.35 35.62,68.52 35.62,111.6 0,48.68 -13.35,87.16 -40.18,115.34 -26.83,28.28 -63.68,42.42 -110.77,42.42 -47.53,0 -84.71,-13.92 -111.76,-41.87 -27.05,-27.96 -40.52,-66.11 -40.52,-114.57zm-196.04 151.84l0 -128.93 -114.21 -178.26 74.14 0 73.13 121.69 72.03 -121.69 72.58 0 -114.88 178.37 0 128.82 -62.79 0z"/>
   <path class="fil0" d="M45.38 1028.52l973.52 0 0 597.76 -973.52 0 0 -597.76zm52.26 518.74l0 -442.56 214.45 0 0 74.88 -151.45 0 0 104.23 130.67 0 0 74.86 -130.67 0 0 188.59 -63 0zm253.31 -218.75c0,-71.23 13.41,-127.46 40.21,-168.69 26.7,-41.21 63.89,-61.75 111.58,-61.75 53.95,0 92.92,22.59 116.72,67.76 23.79,45.17 35.73,98.7 35.73,160.78 0,70.13 -13.39,125.57 -40.31,166.15 -26.92,40.75 -63.9,61.13 -111.13,61.13 -47.69,0 -85,-20.06 -112.14,-60.33 -27.14,-40.27 -40.66,-95.24 -40.66,-165.05zm354.4 218.75l0 -442.56 132.69 0c41.09,0 71.82,8.85 92.15,26.38 20.32,17.53 30.48,50.07 30.48,97.45 0,70.91 -27.47,112.14 -82.42,123.52 21.33,15.78 44.56,52.11 69.7,108.82l38.19 86.39 -76.39 0 -67.24 -143.25c-6.71,-14.06 -14.19,-24.65 -22.46,-31.44 -8.26,-6.8 -21.21,-10.11 -38.97,-10.11l-12.73 0 0 184.8 -63 0z"/>
   <path class="fil0" d="M1053.49 1023.72l400.62 0 0 602.46 -400.62 0 0 -602.46zm71.78 53.6l257.05 0 0 74.68 -175.41 45.43 175.41 44.53 0 75.04 -257.05 0 0 -46.13 202.28 0 -202.28 -49.49 0 -47.73 202.28 -50.19 -202.28 0 0 -46.14zm0 354.21l107.89 0 149.16 -90.67 0 58.86 -101.83 58.06 101.83 57.18 0 57.62 -149.26 -91.2 -107.79 0 0 -49.85z"/>
   <path class="fil0" d="M44.19 546.84l1410.42 0 0 440.69 -1410.42 0 0 -440.69zm64.54 402.48l0 -364.26 122.47 0c37.94,0 66.29,7.28 85.06,21.71 18.76,14.43 28.14,41.21 28.14,80.21 0,58.37 -25.36,92.3 -76.08,101.66 19.69,13 41.13,42.9 64.33,89.57l35.26 71.11 -70.52 0 -62.06 -117.91c-6.19,-11.57 -13.09,-20.28 -20.72,-25.87 -7.63,-5.59 -19.59,-8.32 -35.98,-8.32l-11.76 0 0 152.1 -58.14 0zm259.77 0l0 -364.26 214.64 0 0 61.62 -156.5 0 0 80.34 145.36 0 0 61.62 -145.36 0 0 99.06 162.07 0 0 61.62 -220.21 0zm519.97 0l-63.4 0 -24.74 -82.68 -115.98 0 -24.02 82.68 -61.97 0 112.58 -364.26 62.69 0 114.84 364.26zm9.97 -364.26l106.71 0c30.1,0 54.43,5.2 73.19,15.6 18.77,10.4 33.82,30.29 45.36,59.8 11.45,29.38 17.22,66.17 17.22,110.37 0,118.95 -44.23,178.49 -132.68,178.49l-109.8 0 0 -364.26zm327.09 364.26l0 -152.88 -105.77 -211.38 68.66 0 67.73 144.3 66.7 -144.3 67.22 0 -106.39 211.51 0 152.75 -58.15 0z"/>
   <path class="fil0" d="M686.37 2099.85l0 13.96c-6.2,-3.7 -11.63,-5.55 -16.29,-5.55 -4.66,0 -8.38,1.6 -11.19,4.8 -2.78,3.21 -4.18,7.52 -4.18,12.93 0,5.11 1.47,9.21 4.41,12.28 2.94,3.07 6.87,4.61 11.79,4.61 4.31,0 9.47,-1.76 15.46,-5.28l0 13.96c-6.72,2.26 -12.33,3.4 -16.82,3.4 -7.7,0 -14.26,-2.84 -19.64,-8.5 -5.39,-5.67 -8.09,-12.59 -8.09,-20.74 0,-8.3 2.75,-15.33 8.23,-21.08 5.49,-5.76 12.17,-8.63 20.03,-8.63 5.06,0 10.49,1.28 16.29,3.84zm-1.24 -3.04l13.69 0 10.61 17.73 10.6 -17.73 13.85 0 -18.25 30.51 0 26.83 -12.25 0 0 -26.83 -18.25 -30.51zm88.3 0l12.08 0 0 57.34 -11.96 0 -26.33 -37.12 0 37.12 -12.34 0 0 -57.34 12.19 0 26.36 36.86 0 -36.86zm13.52 0l38.55 0 0 12.17 -13.15 0 0 45.17 -12.34 0 0 -45.17 -13.06 0 0 -12.17zm40.45 0l12.34 0 0 22.1 20.39 0 0 -22.1 12.35 0 0 57.34 -12.35 0 0 -22.81 -20.39 0 0 22.81 -12.34 0 0 -57.34zm50.18 0l12.34 0 0 57.34 -12.34 0 0 -57.34zm37.56 0l9.66 0 23.35 57.34 -12.43 0 -4.6 -11.27 -22 0 -4.5 11.27 -12.38 0 22.9 -57.34zm4.88 18.79l-6.76 16.9 13.64 0 -6.88 -16.9zm54.72 -18.79l12.35 0 0 45 16.81 0 0 12.34 -29.16 0 0 -57.34zm31.84 0l32.3 0 0 11.36 -19.95 0 0 11.54 19.95 0 0 11.18 -19.95 0 0 11.9 19.95 0 0 11.36 -32.3 0 0 -57.34zm36.69 0l32.3 0 0 11.36 -19.95 0 0 11.54 19.95 0 0 11.18 -19.95 0 0 11.9 19.95 0 0 11.36 -32.3 0 0 -57.34zm60.5 0l32.3 0 0 11.09 -19.95 0 0 11.72 19.95 0 0 11.18 -19.95 0 0 23.35 -12.35 0 0 -57.34zm34.73 28.66c0,-8.49 2.8,-15.48 8.4,-21.01 5.61,-5.52 12.26,-8.27 19.94,-8.27 8.51,0 15.53,2.77 21.09,8.32 5.56,5.56 8.35,12.56 8.35,21.03 0,8.42 -2.76,15.42 -8.26,20.98 -5.5,5.56 -12.43,8.35 -20.78,8.35 -8.36,0 -15.24,-2.78 -20.65,-8.31 -5.4,-5.53 -8.09,-12.57 -8.09,-21.09zm28.95 -17.83c-4.82,-0.09 -8.69,1.56 -11.65,4.98 -2.95,3.41 -4.42,7.81 -4.42,13.19 0,5.1 1.5,9.32 4.51,12.67 3,3.36 6.8,5.03 11.39,5.03 4.82,0 8.71,-1.66 11.68,-4.97 2.96,-3.29 4.44,-7.66 4.44,-13.07 0,-5.34 -1.45,-9.62 -4.35,-12.85 -2.91,-3.24 -6.77,-4.89 -11.6,-4.98zm70.9 -10.83l12.08 0 0 57.34 -11.96 0 -26.33 -37.12 0 37.12 -12.34 0 0 -57.34 12.19 0 26.36 36.86 0 -36.86zm13.52 0l38.55 0 0 12.17 -13.15 0 0 45.17 -12.34 0 0 -45.17 -13.06 0 0 -12.17zm54.23 0l9.66 0 23.35 57.34 -12.43 0 -4.6 -11.27 -22 0 -4.5 11.27 -12.38 0 22.9 -57.34zm4.88 18.79l-6.76 16.9 13.64 0 -6.88 -16.9zm30.02 -18.79l12.34 0 0 57.34 -12.34 0 0 -57.34zm55.63 0l12.08 0 0 57.34 -11.96 0 -26.33 -37.12 0 37.12 -12.34 0 0 -57.34 12.19 0 26.36 36.86 0 -36.86zm17.54 0l32.3 0 0 11.36 -19.95 0 0 11.54 19.95 0 0 11.18 -19.95 0 0 11.9 19.95 0 0 11.36 -32.3 0 0 -57.34z"/>
   <path class="fil1" d="M45.47 2073.84l1410.42 0 0 -407.68 -1410.42 0 0 407.68zm333.95 -293.43l-51.82 32.44c-12.99,-19.63 -31.74,-29.45 -56.25,-29.45 -43.99,0 -65.98,28.79 -65.98,86.35 0,25.29 5.31,45.59 15.94,60.9 11.52,16.97 28.2,25.46 50.04,25.46 22.15,0 38.98,-7.16 50.5,-21.47l54.03 27.95c-23.03,35.94 -57.87,53.91 -104.53,53.91 -37.49,0 -68.34,-13.89 -92.56,-41.68 -24.2,-27.78 -36.32,-62.81 -36.32,-105.07 0,-45.25 11.45,-80.94 34.33,-107.06 22.89,-26.12 54.4,-39.18 94.55,-39.18 49.61,0 85.63,18.96 108.07,56.9zm228.83 118.29c0,37.61 -10.03,66.39 -30.11,86.36 -18.9,19.3 -45.33,28.95 -79.28,28.95 -33.37,0 -59.79,-9.82 -79.27,-29.45 -19.5,-19.64 -29.24,-48.09 -29.24,-85.36l0 -172.7 58.91 0 0 164.22c0,41.59 16.53,62.39 49.6,62.39 33.36,0 50.05,-20.8 50.05,-62.39l0 -164.22 59.34 0 0 172.2zm254.96 -118.29l-51.82 32.44c-12.99,-19.63 -31.74,-29.45 -56.25,-29.45 -43.99,0 -65.98,28.79 -65.98,86.35 0,25.29 5.31,45.59 15.94,60.9 11.52,16.97 28.2,25.46 50.04,25.46 22.15,0 38.98,-7.16 50.5,-21.47l54.03 27.95c-23.03,35.94 -57.87,53.91 -104.53,53.91 -37.49,0 -68.34,-13.89 -92.56,-41.68 -24.2,-27.78 -36.32,-62.81 -36.32,-105.07 0,-45.25 11.45,-80.94 34.33,-107.06 22.89,-26.12 54.4,-39.18 94.55,-39.18 49.61,0 85.63,18.96 108.07,56.9zm228.83 118.29c0,37.61 -10.03,66.39 -30.11,86.36 -18.9,19.3 -45.33,28.95 -79.28,28.95 -33.37,0 -59.79,-9.82 -79.27,-29.45 -19.5,-19.64 -29.24,-48.09 -29.24,-85.36l0 -172.7 58.91 0 0 164.22c0,41.59 16.53,62.39 49.6,62.39 33.36,0 50.05,-20.8 50.05,-62.39l0 -164.22 59.34 0 0 172.2zm181.7 -100.56c0,12.48 -1.66,23.74 -4.98,33.63 -3.28,9.96 -7.98,18.57 -14.01,25.94 -5.97,7.18 -13.15,13.65 -21.52,19.34 -8.32,5.69 -17.68,10.86 -28.01,15.52l0 43.27 -57.5 0 0 -63.58c6.32,-1.87 13.26,-4.46 20.95,-7.76 7.69,-3.3 14.46,-7.31 20.32,-12.09 6.19,-4.98 11.24,-10.74 15.14,-17.27 3.96,-6.6 5.91,-14.36 5.91,-23.35 0,-12.48 -3.56,-21.6 -10.61,-27.3 -7.06,-5.69 -16.81,-8.53 -29.39,-8.53 -9.4,0 -19.39,2.33 -30,6.98 -10.63,4.66 -18.95,9.32 -24.97,13.97l-4.87 0 0 -57.04c7.16,-3.56 17.67,-7.12 31.44,-10.8 13.77,-3.69 28.58,-5.5 44.36,-5.5 14.11,0 26.57,1.88 37.41,5.63 10.79,3.68 20.03,8.92 27.67,15.58 7.35,6.73 13.03,14.62 16.87,23.68 3.84,8.99 5.79,18.88 5.79,29.68zm-64.04 213.37l-66.11 0 0 -50.06 66.11 0 0 50.06zm149.18 -282.12l-6.89 200.63 -53.02 0 -6.89 -200.63 66.8 0zm-0.35 282.12l-66.11 0 0 -50.06 66.11 0 0 50.06z"/>
  </g>
 </g>
</svg>
