<?xml version="1.0" encoding="UTF-8"?>
<!DOCTYPE svg PUBLIC "-//W3C//DTD SVG 1.1//EN" "http://www.w3.org/Graphics/SVG/1.1/DTD/svg11.dtd">
<!-- Creator: CorelDRAW 2017 -->
<svg xmlns="http://www.w3.org/2000/svg" xml:space="preserve" width="50.7998mm" height="33.8666mm" version="1.1" style="shape-rendering:geometricPrecision; text-rendering:geometricPrecision; image-rendering:optimizeQuality; fill-rule:evenodd; clip-rule:evenodd"
viewBox="0 0 5079.98 3386.66"
 xmlns:xlink="http://www.w3.org/1999/xlink">
 <defs>
  <style type="text/css">
   <![CDATA[
    .fil1 {fill:#FEFEFE}
    .fil0 {fill:black}
    .fil2 {fill:black}
   ]]>
  </style>
 </defs>
 <g id="Capa_x0020_1">
  <metadata id="CorelCorpID_0Corel-Layer"/>
  <rect class="fil0" x="-8.38" y="-215.15" width="2544.64" height="3816.96"/>
  <rect class="fil1" x="2526.98" y="-215.15" width="2544.64" height="3816.96"/>
  <g id="_2267453833840">
   <g>
    <path class="fil1" d="M699.15 2636.42c5.84,-10.25 -10.31,-13.77 -19.45,-42.04 -15.38,-47.61 -26.7,-146.72 -17.2,-192.64 34.55,-19.99 40.38,-16.88 67.1,10.27 12.3,12.5 14.58,13.13 24.91,27.13 8,10.82 14.87,20.2 24.49,27.52 35.44,-118.09 40.23,-83.91 -12.94,-96.7 -12.3,-38.47 14.6,-379.16 82.21,-454.76 16.76,-18.74 24.65,-30.05 51.02,-38.52 27.41,-8.79 49.18,-11.43 73.67,2.61 67.45,38.67 121.69,136.13 155.7,204.34 59.8,119.95 60.07,173.89 97.13,262.54 20.6,-36.85 39.24,-86.88 57.59,-128 35.79,-80.22 167.59,-320.33 239.82,-338.89 25.25,-6.49 58.67,4.82 77.51,16.05 42.02,25.03 86.87,139.32 100.7,187.88 15.68,55.05 17.8,110.1 17.99,170.2 0.28,92.44 4.33,93.48 -64.99,125.98l33.74 83.1c10.32,-10.81 9.53,-15.67 17.91,-29.66 13.18,-22.03 57.41,-66.08 95.21,-61.23 7.46,35.86 0.61,68.41 -4.74,104.54 -2.46,16.62 -4.58,32.36 -7.45,49.22l-6.19 36.27c1.79,16.97 -6.22,4.37 5.79,13.74 69.22,-50.39 72.55,-32.61 107.49,-84.8l226.25 -341.82c17.88,-27.33 94.37,-132.32 94.5,-156.39 -33.22,3.28 -214.82,120.43 -257.4,132.34l97.47 -113.05 70.71 -354.87c10.88,-55.46 28.63,-122.4 35.25,-177.98 -22.2,6.63 -80.6,65.21 -103.66,85.91l-95.95 86.29c6.03,-76.47 29.79,-98.3 10.12,-180.58 -13.26,-55.48 -27.62,-106.5 -41.8,-162.03l-73.98 -285.76c-4.87,-20.01 -2.37,-22.16 -15.05,-31.44 -15.67,5.67 -21.17,39.47 -27.06,54.76 -15.62,40.56 -62.5,140.05 -84.86,166.07 -6.42,-107.47 -16.04,-165.82 -49.32,-259.48 -13.12,-36.9 -26.3,-74.97 -41.49,-109.87l-35.89 -77.6c-10.1,-21.07 -2.41,-14.39 -16.95,-21.65l-110.74 277.5c-18.06,-45.82 -25.6,-86.33 -47.97,-132.13 -32.35,-66.24 -93.84,-144.82 -136.46,-218.66 -11.28,-19.54 -50.21,-101.39 -67.91,-104.96 -17.2,27.18 -68.78,214.47 -108.79,291.25 -36.24,69.53 -120.8,160.46 -174.76,219.5l20.7 -163.83c-18.49,6.43 -15.08,6.73 -33.7,35.89 -63.93,100.1 -110.9,167.13 -152.72,292.34 -40.46,-39.68 -82.23,-262.44 -104.3,-287.83 -19.16,15.35 -124.18,352.76 -140.6,407.5 -21.47,71.56 -39.29,144.16 -53.88,220.79 -12.54,65.84 -14.21,51.6 9.78,109.22 11.99,28.8 31.3,68.52 38.5,98.42 -35.82,-19.96 -208.35,-177.61 -246.5,-216.87 -7.72,-7.95 -13.8,-17.93 -25.43,-20.65 -10.14,-2.37 -2.67,-1.93 -8.91,0.98 -6.57,25.74 106.82,468.5 131.54,556.42 16.08,57.2 13.31,55.27 49.81,87.9l139.34 130.46c-56.2,2.38 -165.71,-41.07 -219.82,-35.46 10.15,22.76 136.59,174.48 154.05,196.03 86.6,106.83 57.92,97.83 200.86,149.19z"/>
    <path class="fil1" d="M1524.91 2812.25l-0.6 8.8 8.25 0.44c116.62,-60.83 231.86,-131.7 348.19,-194.93 35.96,-19.54 38.65,-15.57 42.18,-34.48l-80.12 -3.52 -65.22 -1.43c-30.51,38.03 -40.57,47.77 -84.18,74.59 -17.46,10.75 -29.91,18.83 -47.28,28.43 -32.67,18.04 -27.63,12.6 -61.52,9.01l-59.7 113.09z"/>
    <path class="fil1" d="M909 2516.43c42.39,29.43 105.94,41.04 114.41,69.27 10.26,34.21 -1.27,17.47 16.56,28.01 31.33,21.38 34.07,-29.12 92.76,19.27 18.87,5.97 37.81,21.73 56.06,20.87 4.28,-23.1 -39.65,-49.96 -69.82,-72.75 -29.23,-22.08 -53.93,-39.78 -84.75,-61.98 -29.68,-21.39 -144.44,-117.73 -193.89,-91.02l-3.79 7c-1.87,6.22 -1.82,-0.09 -2.86,12.37 -1.97,23.68 7.21,46.87 18,64.99l57.32 3.97z"/>
    <path class="fil1" d="M1307.49 2644.9l58.21 -40.77c15.07,5.46 27.87,24.6 54.03,11.78 21.54,-10.55 17.36,-28.42 16.16,-55.07 42.23,-15.84 86.23,-58.85 139.91,-63.2l36.27 -0.71c-0.79,-30.11 -28.26,-60.66 -47.43,-70.48 -22.1,-3.93 -259.38,182.89 -271.05,195.45 -15.73,16.93 -10.61,30.58 13.9,23z"/>
    <path class="fil1" d="M911.73 2803.84c9.18,-5.97 17.43,10.82 -7.1,-36.66 -6.66,-12.89 -10.01,-22.31 -19.78,-37.04 -83.51,-9.53 -80.12,-42.84 -135.12,-53.25l-69.8 21.63c3.9,10.85 5.28,10.74 24.28,18.13l207.52 87.19z"/>
   </g>
   <g>
    <path class="fil2" d="M4380.83 2636.42c-5.84,-10.25 10.32,-13.77 19.45,-42.04 15.39,-47.61 26.71,-146.72 17.2,-192.64 -34.55,-19.99 -40.38,-16.88 -67.09,10.27 -12.3,12.5 -14.58,13.13 -24.92,27.13 -8,10.82 -14.86,20.2 -24.49,27.52 -35.43,-118.09 -40.22,-83.91 12.95,-96.7 12.3,-38.47 -14.61,-379.16 -82.21,-454.76 -16.76,-18.74 -24.65,-30.05 -51.02,-38.52 -27.41,-8.79 -49.19,-11.43 -73.68,2.61 -67.45,38.67 -121.68,136.13 -155.69,204.34 -59.81,119.95 -60.07,173.89 -97.14,262.54 -20.59,-36.85 -39.23,-86.88 -57.58,-128 -35.79,-80.22 -167.6,-320.33 -239.82,-338.89 -25.25,-6.49 -58.68,4.82 -77.52,16.05 -42.02,25.03 -86.86,139.32 -100.7,187.88 -15.68,55.05 -17.8,110.1 -17.98,170.2 -0.28,92.44 -4.34,93.48 64.99,125.98l-33.75 83.1c-10.31,-10.81 -9.53,-15.67 -17.9,-29.66 -13.18,-22.03 -57.42,-66.08 -95.21,-61.23 -7.47,35.86 -0.62,68.41 4.73,104.54 2.46,16.62 4.59,32.36 7.45,49.22l6.19 36.27c-1.79,16.97 6.23,4.37 -5.78,13.74 -69.23,-50.39 -72.55,-32.61 -107.49,-84.8l-226.26 -341.82c-17.87,-27.33 -94.36,-132.32 -94.5,-156.39 33.22,3.28 214.82,120.43 257.4,132.34l-97.47 -113.05 -70.71 -354.87c-10.87,-55.46 -28.63,-122.4 -35.25,-177.98 22.21,6.63 80.6,65.21 103.66,85.91l95.95 86.29c-6.03,-76.47 -29.79,-98.3 -10.12,-180.58 13.26,-55.48 27.62,-106.5 41.8,-162.03l73.99 -285.76c4.87,-20.01 2.36,-22.16 15.04,-31.44 15.68,5.67 21.18,39.47 27.07,54.76 15.62,40.56 62.49,140.05 84.85,166.07 6.42,-107.47 16.04,-165.82 49.33,-259.48 13.11,-36.9 26.29,-74.97 41.48,-109.87l35.9 -77.6c10.1,-21.07 2.4,-14.39 16.95,-21.65l110.74 277.5c18.06,-45.82 25.59,-86.33 47.96,-132.13 32.36,-66.24 93.84,-144.82 136.47,-218.66 11.27,-19.54 50.2,-101.39 67.9,-104.96 17.2,27.18 68.78,214.47 108.8,291.25 36.23,69.53 120.8,160.46 174.75,219.5l-20.7 -163.83c18.5,6.43 15.09,6.73 33.71,35.89 63.92,100.1 110.89,167.13 152.72,292.34 40.45,-39.68 82.23,-262.44 104.29,-287.83 19.17,15.35 124.19,352.76 140.61,407.5 21.47,71.56 39.28,144.16 53.87,220.79 12.54,65.84 14.22,51.6 -9.78,109.22 -11.99,28.8 -31.29,68.52 -38.5,98.42 35.82,-19.96 208.35,-177.61 246.51,-216.87 7.72,-7.95 13.8,-17.93 25.43,-20.65 10.13,-2.37 2.66,-1.93 8.9,0.98 6.58,25.74 -106.82,468.5 -131.53,556.42 -16.08,57.2 -13.31,55.27 -49.82,87.9l-139.34 130.46c56.2,2.38 165.72,-41.07 219.82,-35.46 -10.14,22.76 -136.58,174.48 -154.05,196.03 -86.6,106.83 -57.92,97.83 -200.86,149.19z"/>
    <path class="fil2" d="M3555.08 2812.25l0.6 8.8 -8.26 0.44c-116.61,-60.83 -231.86,-131.7 -348.18,-194.93 -35.97,-19.54 -38.65,-15.57 -42.18,-34.48l80.12 -3.52 65.22 -1.43c30.5,38.03 40.57,47.77 84.17,74.59 17.47,10.75 29.91,18.83 47.29,28.43 32.66,18.04 27.63,12.6 61.52,9.01l59.7 113.09z"/>
    <path class="fil2" d="M4170.98 2516.43c-42.38,29.43 -105.93,41.04 -114.4,69.27 -10.27,34.21 1.27,17.47 -16.56,28.01 -31.34,21.38 -34.07,-29.12 -92.77,19.27 -18.87,5.97 -37.8,21.73 -56.05,20.87 -4.29,-23.1 39.65,-49.96 69.81,-72.75 29.23,-22.08 53.94,-39.78 84.76,-61.98 29.67,-21.39 144.44,-117.73 193.88,-91.02l3.79 7c1.87,6.22 1.82,-0.09 2.86,12.37 1.97,23.68 -7.21,46.87 -17.99,64.99l-57.33 3.97z"/>
    <path class="fil2" d="M3772.49 2644.9l-58.21 -40.77c-15.06,5.46 -27.86,24.6 -54.03,11.78 -21.53,-10.55 -17.35,-28.42 -16.15,-55.07 -42.23,-15.84 -86.23,-58.85 -139.91,-63.2l-36.28 -0.71c0.79,-30.11 28.26,-60.66 47.44,-70.48 22.1,-3.93 259.37,182.89 271.05,195.45 15.72,16.93 10.61,30.58 -13.91,23z"/>
    <path class="fil2" d="M4168.25 2803.84c-9.17,-5.97 -17.42,10.82 7.11,-36.66 6.66,-12.89 10.01,-22.31 19.77,-37.04 83.51,-9.53 80.13,-42.84 135.13,-53.25l69.79 21.63c-3.9,10.85 -5.27,10.74 -24.28,18.13l-207.52 87.19z"/>
   </g>
  </g>
 </g>
</svg>
