<?xml version="1.0" encoding="UTF-8"?>
<!DOCTYPE svg PUBLIC "-//W3C//DTD SVG 1.1//EN" "http://www.w3.org/Graphics/SVG/1.1/DTD/svg11.dtd">
<!-- Creator: CorelDRAW 2017 -->
<svg xmlns="http://www.w3.org/2000/svg" xml:space="preserve" width="50.7998mm" height="33.8666mm" version="1.1" style="shape-rendering:geometricPrecision; text-rendering:geometricPrecision; image-rendering:optimizeQuality; fill-rule:evenodd; clip-rule:evenodd"
viewBox="0 0 5079.98 3386.66"
 xmlns:xlink="http://www.w3.org/1999/xlink">
 <defs>
  <style type="text/css">
   <![CDATA[
    .str9 {stroke:#FEFEFE;stroke-width:46.39;stroke-linecap:round;stroke-linejoin:round;stroke-miterlimit:22.9256}
    .str6 {stroke:#FEFEFE;stroke-width:46.39;stroke-linecap:round;stroke-linejoin:round;stroke-miterlimit:22.9256}
    .str5 {stroke:#FEFEFE;stroke-width:46.39;stroke-linecap:round;stroke-linejoin:round;stroke-miterlimit:22.9256}
    .str7 {stroke:#FEFEFE;stroke-width:46.39;stroke-linecap:round;stroke-linejoin:round;stroke-miterlimit:22.9256}
    .str3 {stroke:#FEFEFE;stroke-width:46.39;stroke-linecap:round;stroke-linejoin:round;stroke-miterlimit:22.9256}
    .str4 {stroke:#FEFEFE;stroke-width:46.39;stroke-linecap:round;stroke-linejoin:round;stroke-miterlimit:22.9256}
    .str2 {stroke:#FEFEFE;stroke-width:46.39;stroke-linecap:round;stroke-linejoin:round;stroke-miterlimit:22.9256}
    .str11 {stroke:#FEFEFE;stroke-width:46.39;stroke-linecap:round;stroke-linejoin:round;stroke-miterlimit:22.9256}
    .str10 {stroke:#FEFEFE;stroke-width:46.39;stroke-linecap:round;stroke-linejoin:round;stroke-miterlimit:22.9256}
    .str0 {stroke:#FEFEFE;stroke-width:46.39;stroke-linecap:round;stroke-linejoin:round;stroke-miterlimit:22.9256}
    .str1 {stroke:#FEFEFE;stroke-width:46.39;stroke-linecap:round;stroke-linejoin:round;stroke-miterlimit:22.9256}
    .str12 {stroke:#FEFEFE;stroke-width:46.39;stroke-linecap:round;stroke-linejoin:round;stroke-miterlimit:22.9256}
    .str8 {stroke:#FEFEFE;stroke-width:46.39;stroke-linecap:round;stroke-linejoin:round;stroke-miterlimit:22.9256}
    .fil0 {fill:none}
    .fil20 {fill:#FEFEFE}
    .fil34 {fill:#373435}
    .fil7 {fill:#585570}
    .fil8 {fill:#52658C}
    .fil6 {fill:#0098DA}
    .fil35 {fill:#3E4095}
    .fil30 {fill:#010101}
    .fil28 {fill:#014E9C}
    .fil33 {fill:#020202}
    .fil31 {fill:#030303}
    .fil29 {fill:#060606}
    .fil32 {fill:#0A0A0A}
    .fil18 {fill:#FEFEFE}
    .fil37 {fill:url(#id0)}
    .fil1 {fill:url(#id1)}
    .fil15 {fill:url(#id2)}
    .fil9 {fill:url(#id3)}
    .fil2 {fill:url(#id4)}
    .fil19 {fill:url(#id5)}
    .fil23 {fill:url(#id6)}
    .fil27 {fill:url(#id7)}
    .fil10 {fill:url(#id8)}
    .fil17 {fill:url(#id9)}
    .fil3 {fill:url(#id10)}
    .fil24 {fill:url(#id11)}
    .fil4 {fill:url(#id12)}
    .fil22 {fill:url(#id13)}
    .fil21 {fill:url(#id14)}
    .fil12 {fill:url(#id15)}
    .fil36 {fill:url(#id16)}
    .fil26 {fill:url(#id17)}
    .fil11 {fill:url(#id18)}
    .fil14 {fill:url(#id19)}
    .fil5 {fill:url(#id20)}
    .fil25 {fill:url(#id21)}
    .fil13 {fill:url(#id22)}
    .fil16 {fill:url(#id23)}
   ]]>
  </style>
  <linearGradient id="id0" gradientUnits="userSpaceOnUse" x1="4874.65" y1="2888.67" x2="4779.21" y2="3034.45">
   <stop offset="0" style="stop-opacity:1; stop-color:#ED2F59"/>
   <stop offset="0.392157" style="stop-opacity:1; stop-color:#ED3048"/>
   <stop offset="0.4" style="stop-opacity:1; stop-color:#ED2F59"/>
   <stop offset="1" style="stop-opacity:1; stop-color:#ED3237"/>
  </linearGradient>
  <linearGradient id="id1" gradientUnits="userSpaceOnUse" x1="3707.19" y1="2181.31" x2="4281.97" y2="1925.86">
   <stop offset="0" style="stop-opacity:1; stop-color:#003F6A"/>
   <stop offset="0.168627" style="stop-opacity:1; stop-color:#0167B1"/>
   <stop offset="0.360784" style="stop-opacity:1; stop-color:#5C9DCD"/>
   <stop offset="0.588235" style="stop-opacity:1; stop-color:#003F6A"/>
   <stop offset="0.729412" style="stop-opacity:1; stop-color:#005F9F"/>
   <stop offset="1" style="stop-opacity:1; stop-color:#FEFEFE"/>
  </linearGradient>
  <linearGradient id="id2" gradientUnits="userSpaceOnUse" x1="2517.45" y1="2395.38" x2="2977.77" y2="1692.06">
   <stop offset="0" style="stop-opacity:1; stop-color:#014E9C"/>
   <stop offset="0.360784" style="stop-opacity:1; stop-color:#0167B1"/>
   <stop offset="0.670588" style="stop-opacity:1; stop-color:#003F6A"/>
   <stop offset="1" style="stop-opacity:1; stop-color:#005F9F"/>
  </linearGradient>
  <linearGradient id="id3" gradientUnits="userSpaceOnUse" xlink:href="#id2" x1="2517.44" y1="2395.4" x2="2977.79" y2="1692.07">
  </linearGradient>
  <linearGradient id="id4" gradientUnits="userSpaceOnUse" x1="1369.64" y1="2304.3" x2="1671.9" y2="1903.91">
   <stop offset="0" style="stop-opacity:1; stop-color:#3E4095"/>
   <stop offset="0.478431" style="stop-opacity:1; stop-color:#00AFEF"/>
   <stop offset="1" style="stop-opacity:1; stop-color:#585570"/>
  </linearGradient>
  <linearGradient id="id5" gradientUnits="userSpaceOnUse" x1="1670.48" y1="2659.53" x2="1257.54" y2="2053.51">
   <stop offset="0" style="stop-opacity:1; stop-color:#003F6A"/>
   <stop offset="0.258824" style="stop-opacity:1; stop-color:#014E9C"/>
   <stop offset="0.470588" style="stop-opacity:1; stop-color:#003F6A"/>
   <stop offset="0.670588" style="stop-opacity:1; stop-color:#005F9F"/>
   <stop offset="1" style="stop-opacity:1; stop-color:#0167B1"/>
  </linearGradient>
  <linearGradient id="id6" gradientUnits="userSpaceOnUse" x1="750.94" y1="2988.78" x2="592.5" y2="2945.17">
   <stop offset="0" style="stop-opacity:1; stop-color:#B11E30"/>
   <stop offset="0.419608" style="stop-opacity:1; stop-color:#EF2B2D"/>
   <stop offset="1" style="stop-opacity:1; stop-color:#E7112D"/>
  </linearGradient>
  <linearGradient id="id7" gradientUnits="userSpaceOnUse" x1="2684.82" y1="2706.68" x2="2682.83" y2="2718.15">
   <stop offset="0" style="stop-opacity:1; stop-color:#585570"/>
   <stop offset="0.258824" style="stop-opacity:1; stop-color:#0098DA"/>
   <stop offset="1" style="stop-opacity:1; stop-color:#6B809B"/>
  </linearGradient>
  <linearGradient id="id8" gradientUnits="userSpaceOnUse" xlink:href="#id2" x1="2517.44" y1="2395.39" x2="2977.82" y2="1692.07">
  </linearGradient>
  <linearGradient id="id9" gradientUnits="userSpaceOnUse" xlink:href="#id4" x1="569.85" y1="3029.56" x2="872.1" y2="2629.17">
  </linearGradient>
  <linearGradient id="id10" gradientUnits="userSpaceOnUse" xlink:href="#id4" x1="2469.53" y1="3030.22" x2="2771.79" y2="2629.83">
  </linearGradient>
  <linearGradient id="id11" gradientUnits="userSpaceOnUse" xlink:href="#id0" x1="2523.35" y1="2690.63" x2="2500.69" y2="2725.24">
  </linearGradient>
  <linearGradient id="id12" gradientUnits="userSpaceOnUse" xlink:href="#id4" x1="3544.73" y1="3022.91" x2="3846.99" y2="2622.52">
  </linearGradient>
  <linearGradient id="id13" gradientUnits="userSpaceOnUse" xlink:href="#id6" x1="705.17" y1="2772.6" x2="660.93" y2="2796.19">
  </linearGradient>
  <linearGradient id="id14" gradientUnits="userSpaceOnUse" xlink:href="#id6" x1="737.68" y1="2961.68" x2="611.43" y2="3006.34">
  </linearGradient>
  <linearGradient id="id15" gradientUnits="userSpaceOnUse" xlink:href="#id2" x1="2517.44" y1="2395.4" x2="2977.79" y2="1692.06">
  </linearGradient>
  <linearGradient id="id16" gradientUnits="userSpaceOnUse" x1="4822.74" y1="2578.43" x2="4379.09" y2="2830.15">
   <stop offset="0" style="stop-opacity:1; stop-color:#0F91C7"/>
   <stop offset="0.45098" style="stop-opacity:1; stop-color:#00AFEF"/>
   <stop offset="1" style="stop-opacity:1; stop-color:#3E4095"/>
  </linearGradient>
  <linearGradient id="id17" gradientUnits="userSpaceOnUse" xlink:href="#id7" x1="2692.95" y1="2719.4" x2="2691.44" y2="2726.94">
  </linearGradient>
  <linearGradient id="id18" gradientUnits="userSpaceOnUse" xlink:href="#id2" x1="2517.44" y1="2395.39" x2="2977.81" y2="1692.07">
  </linearGradient>
  <linearGradient id="id19" gradientUnits="userSpaceOnUse" xlink:href="#id2" x1="2517.45" y1="2395.39" x2="2977.79" y2="1692.06">
  </linearGradient>
  <linearGradient id="id20" gradientUnits="userSpaceOnUse" xlink:href="#id7" x1="1898.79" y1="1831.41" x2="1824.21" y2="2333.86">
  </linearGradient>
  <linearGradient id="id21" gradientUnits="userSpaceOnUse" xlink:href="#id7" x1="2749.61" y1="2718.48" x2="2747.84" y2="2727.15">
  </linearGradient>
  <linearGradient id="id22" gradientUnits="userSpaceOnUse" xlink:href="#id2" x1="2517.44" y1="2395.39" x2="2977.81" y2="1692.07">
  </linearGradient>
  <linearGradient id="id23" gradientUnits="userSpaceOnUse" xlink:href="#id2" x1="2517.43" y1="2395.4" x2="2977.81" y2="1692.07">
  </linearGradient>
 </defs>
 <g id="Capa_x0020_1">
  <metadata id="CorelCorpID_0Corel-Layer"/>
  <rect class="fil0" x="-0" width="5079.99" height="3386.66"/>
  <g id="_2267456797648">
   <path class="fil1" d="M3792.43 2264.02c10.91,-5.77 28.54,-25.46 37.53,-34.69l204.47 -207.02c9.09,-9.23 26.89,-24.84 33.68,-35.57 -28.46,5.23 -75.93,24.16 -105.49,34 -54.77,18.24 -53.77,9.13 -67.93,37.55l-57.1 113.41c-11.3,22.57 -39.37,71.33 -45.16,92.32zm-179.77 -221.07l135.46 256.89c5.11,-4.44 124.42,-238.97 130.38,-257.45l-265.84 0.56zm-186.46 -58.26c7.22,13.85 23.17,23.93 34.92,35.81 34.71,35.06 228.03,232.14 243.6,244.35l-95.68 -183.96c-28.86,-53.87 -8.56,-37.18 -79.16,-61.42 -29.85,-10.25 -74.45,-28.61 -103.68,-34.78zm539.73 -124.45c6.43,8.9 100.05,60.18 118.1,72.82 -3.92,-14.39 -33.49,-71.98 -43.61,-92.82l-12.68 -24.82c-0.26,-0.37 -0.88,-1.12 -1.1,-1.41 -0.21,-0.29 -1.05,-0.5 -1.21,-1.29 -0.16,-0.79 -0.82,-0.84 -1.25,-1.24 -20.16,14.66 -37.76,32.96 -58.25,48.76zm-53.1 154.37c19.26,-4.05 163.6,-51.14 171.58,-57.82l-130.14 -77.61c-4.91,7.27 -38.96,121.13 -41.44,135.43zm-24.3 -132.94l-25.83 3.41 -88.38 13.11c0.88,6.93 18,18.85 30.46,33.37 5.08,2.36 4.03,0.78 8.63,5.17 4.85,4.63 2.99,3.32 5.58,8.34 18.79,12.77 44.52,45.07 71.83,66.35l40.67 -135.46 -42.96 5.71zm-265.07 139.5c71.86,2.08 176.03,0.26 244.84,0.25 -3.58,-7.16 -112.75,-111.11 -120.18,-114.54 -27.05,21.43 -66,61.71 -94.62,85.84 -9.31,7.86 -22.57,19.79 -30.04,28.45zm-21.15 -9.79l105.72 -97.02c7.33,-6.76 10.66,-7.18 15.52,-15.94l-157.72 -23.11c2.47,17.23 31.18,128.6 36.48,136.07zm-170.16 -69.07l-17.79 9.54c-1.05,1.2 -2.97,4.89 -3.44,5.57l168.31 56.98 -34.71 -135.11 -112.37 63.02zm-10.91 -16.24c11.38,-7.97 95.28,-57.08 103.92,-58.27l6.35 -6.53c-6.41,-6.86 -49.31,-45.36 -60.2,-50.22l-59.47 118.7 9.4 -3.68zm154.89 -68.33c25.25,-2.02 120.84,15.64 153.12,20.52 49.23,7.44 106.94,-17.49 153.62,-15.2 1.52,-5.28 31.14,-6.19 37.86,-6.41 4.75,-2.23 11.48,-1.63 17.46,-3.27 7.78,-2.15 9.19,-5.39 15.35,-9.11 18.47,-18.34 39.33,-33.99 58.18,-49.59 -3.73,-6.53 -0.99,-2.54 -6.03,-7.54l-17.76 -14.79c-46.83,-40.01 -31.51,-37.03 -85.96,-44.84l-153.91 -21.75 -154.18 22.02c-45.26,6.69 -33.51,2.63 -61.84,25.64 -7.9,6.42 -16.03,13.03 -23.43,19.33 -8.34,7.1 -15.78,12.55 -22.77,19.71l62.89 55.19c10.78,9.13 20.11,3.83 27.4,10.09z"/>
   <path class="fil2" d="M1314.46 2232.91l93.29 -278.25 145.15 0.45 -238.44 277.8zm-56.77 30.95l-108.1 -307.45 210.92 -1.17 -102.82 308.62zm-299.42 -306.84l144.68 -2.05 97.37 276.45 -242.05 -274.4zm536.24 -139c11.09,10.18 61.55,82.97 64.45,97.07l-127.96 -1.84 63.51 -95.23zm-237.27 -6.96l87.18 103.82 -177.67 -1.96 90.49 -101.86zm-304.11 103.97c3.9,-15.53 53.88,-82.71 65.72,-97.55l61.25 97.24 -126.97 0.31zm441.13 -16.04c-13.45,-8.7 -79.91,-80.8 -89.31,-100.69l148.08 0.05c-10.31,34.8 -47.51,64.48 -58.77,100.64zm-335.4 -100.61l150.56 1.16 -87.56 99.34 -63 -100.5zm563.82 139.32c-6.42,-26.83 -93.84,-146.11 -115.51,-179.22l-502.48 -0.66c-127.68,215.1 -154.39,141.05 -38.99,271.66l265.89 308.61c29.03,27.95 50.78,-3.05 69.14,-25.43 55.67,-67.85 310.31,-346.72 321.95,-374.96z"/>
   <path class="fil3" d="M2414.36 2958.82l93.29 -278.24 145.14 0.44 -238.43 277.8zm-56.78 30.95l-108.09 -307.44 210.91 -1.17 -102.82 308.61zm-299.42 -306.83l144.68 -2.05 97.37 276.44 -242.05 -274.39zm536.24 -139c11.09,10.18 61.56,82.97 64.45,97.07l-127.96 -1.84 63.51 -95.23zm-237.26 -6.96l87.17 103.82 -177.67 -1.96 90.5 -101.86zm-304.11 103.97c3.89,-15.53 53.87,-82.71 65.71,-97.55l61.26 97.23 -126.97 0.32zm441.12 -16.04c-13.45,-8.7 -79.9,-80.8 -89.31,-100.69l148.08 0.05c-10.31,34.8 -47.51,64.47 -58.77,100.64zm-335.4 -100.62l150.56 1.16 -87.55 99.35 -63.01 -100.51zm563.83 139.33c-6.43,-26.83 -93.84,-146.11 -115.51,-179.22l-502.49 -0.67c-127.68,215.11 -154.39,141.06 -38.99,271.67l265.89 308.61c29.03,27.95 50.79,-3.05 69.14,-25.43 55.67,-67.85 310.32,-346.72 321.96,-374.96z"/>
   <path class="fil4" d="M3489.55 2951.51l93.29 -278.25 145.15 0.45 -238.44 277.8zm-56.78 30.95l-108.09 -307.45 210.91 -1.17 -102.82 308.62zm-299.42 -306.83l144.69 -2.06 97.37 276.45 -242.06 -274.39zm536.25 -139.01c11.09,10.18 61.55,82.97 64.45,97.08l-127.96 -1.85 63.51 -95.23zm-237.27 -6.95l87.18 103.82 -177.68 -1.96 90.5 -101.86zm-304.11 103.96c3.9,-15.53 53.87,-82.7 65.72,-97.54l61.25 97.23 -126.97 0.31zm441.12 -16.04c-13.45,-8.69 -79.9,-80.8 -89.3,-100.68l148.07 0.04c-10.3,34.8 -47.5,64.48 -58.77,100.64zm-335.4 -100.61l150.57 1.16 -87.56 99.34 -63.01 -100.5zm563.83 139.33c-6.42,-26.84 -93.84,-146.12 -115.51,-179.23l-502.48 -0.66c-127.68,215.1 -154.39,141.05 -38.99,271.66l265.88 308.61c29.04,27.95 50.79,-3.05 69.15,-25.43 55.67,-67.85 310.31,-346.72 321.95,-374.95z"/>
   <path class="fil5" d="M1953.91 1959.25l212.99 -0.19 -103.64 308.54 -109.35 -308.35zm165.62 277.65l92.8 -277.06 146.76 -0.82 -239.56 277.88zm-356.52 -276.07l144.72 -1.6 97.66 276.66 -242.38 -275.06zm536.19 -139.07l66.71 95.51 -127.6 1.46 60.89 -96.97zm-238.13 -6.35c6.69,5.28 40.34,43.12 46.02,50.87 1.94,2.63 43.15,51.33 43.25,51.4l-176.41 1.08 87.14 -103.35zm-239.2 6.11c15.06,20.15 58.27,79.43 61.73,97.29l-124.95 -0.05 63.22 -97.24zm286.83 -17.1l150.41 -1.98 -62.98 100.54 -87.43 -98.56zm-185.76 98.88c-11.19,-32.71 -43.19,-67.85 -59.88,-100.63l150.48 -0.23c-8.97,17.75 -72.5,89.28 -90.6,100.86zm-111.7 -140.9c-19.3,27.13 -36.18,54.72 -54.93,81.29 -87.76,124.33 -80.28,74.61 50.18,231.87l187.2 214.24c73.76,73.35 40.42,122.4 200.85,-73.97l188.23 -218.28c68.75,-73.2 55.05,-47.85 -71.04,-235.34l-500.49 0.19z"/>
   <path class="fil6" d="M1706.35 2127.37c11.22,4.6 21.12,4.95 32.82,17.81 12.22,13.42 13.52,30.33 16.1,41.05 8.3,-15.05 7.55,-27.27 19.36,-40.96 6.74,-7.81 9.01,-8.47 17.42,-12.49l22.33 -10.77c-41.58,-12.71 -35.59,-18.51 -57.48,-48.77 -19.96,26.85 -21.3,43.12 -61.55,48.69 1.1,0.79 2.73,1.55 3.58,1.95l7.42 3.49z"/>
   <path class="fil7" d="M1776.18 2219.44c14,11.85 26,18.06 32.24,38.49l6.72 -10.09c14.59,-22.03 12.24,-12.74 29.78,-27.38 -24.17,-9.85 -26.52,-12.09 -31.3,-37.5 -10.97,15.55 -17.18,29.06 -37.44,36.48z"/>
   <path class="fil8" d="M2243.06 2218.89c9.85,6.45 13.79,4.11 24.65,15.21l13.06 22.62c0.28,-0.75 1.12,2.39 1.81,3.51 8.21,-29.58 7.18,-30.36 37.79,-37.93 -29.15,-16.11 -31.5,-8.29 -39.37,-48.4 -6.98,34.43 -4.75,36.36 -37.94,44.99z"/>
   <g>
    <path class="fil9" d="M2926.9 2338.73c13.04,-17.86 128.72,-349.23 132.72,-381.13l-260.96 -0.1 128.24 381.23z"/>
    <path class="fil10" d="M2972.18 2315.34c19.74,-12.66 195.23,-224.56 234.49,-265.92 16.82,-17.72 68.18,-74.22 77.85,-92.43l-189.01 0.51 -123.33 357.84z"/>
    <path class="fil11" d="M2881.16 2308.39c-5.45,-30.59 -109.27,-332.94 -121.68,-349.99l-185.06 -1.02c13.62,24.99 297.4,346.02 306.74,351.01z"/>
    <path class="fil12" d="M2811.14 1925.99l236.44 0.36 -116.52 -137.15c-16.49,10.72 -112.36,120.45 -119.92,136.79z"/>
    <path class="fil13" d="M3082.15 1912.29c16.66,-18.46 79.47,-109.25 85.24,-132.91l-200.14 0.59c6.68,15.08 101.61,124.47 114.9,132.32z"/>
    <path class="fil14" d="M2776.95 1913.37l116.02 -131.78 -203.92 -1.65c8.31,17.95 72.84,121.19 87.9,133.43z"/>
    <polygon class="fil15" points="3113.19,1925.24 3290.07,1925.98 3200.95,1792.88 "/>
    <polygon class="fil16" points="2565.84,1925.12 2743,1926.17 2659.49,1793.33 "/>
   </g>
   <path class="fil17" d="M514.67 2958.16l93.29 -278.25 145.14 0.45 -238.43 277.8zm-56.78 30.95l-108.09 -307.44 210.91 -1.17 -102.82 308.61zm-299.42 -306.83l144.68 -2.06 97.37 276.45 -242.05 -274.39zm536.24 -139c11.1,10.17 61.56,82.96 64.46,97.07l-127.97 -1.84 63.51 -95.23zm-237.26 -6.96l87.17 103.82 -177.67 -1.96 90.5 -101.86zm-304.11 103.96c3.89,-15.52 53.87,-82.7 65.71,-97.54l61.26 97.23 -126.97 0.31zm441.12 -16.03c-13.45,-8.7 -79.9,-80.8 -89.31,-100.69l148.08 0.05c-10.3,34.8 -47.51,64.47 -58.77,100.64zm-335.4 -100.62l150.56 1.16 -87.55 99.34 -63.01 -100.5zm563.83 139.33c-6.42,-26.83 -93.84,-146.11 -115.51,-179.22l-502.48 -0.67c-127.69,215.11 -154.4,141.05 -38.99,271.67l265.88 308.61c29.03,27.95 50.79,-3.05 69.15,-25.43 55.66,-67.86 310.31,-346.73 321.95,-374.96z"/>
   <path class="fil18" d="M1137.35 2709.08l200.05 0.03 -97.34 286.3 -5.13 -0.34 -97.58 -285.99zm146.69 258.06l86.42 -256.49 140.12 -1.55c-10.67,23.51 -208.48,249.81 -226.54,258.04zm-319.04 -257.97l140.18 -0.06 87.38 257.33c-16.54,-6.71 -220.73,-239.93 -227.56,-257.27zm426.48 -30.97c9.84,-26.36 43.81,-78.91 62.81,-94.15l61.66 93.92 -124.47 0.23zm-158.58 -100.2c15.44,6.56 82.39,82.11 89.86,100.05l-172.22 -2.06 82.36 -97.99zm-213.62 4.4c21.2,14.91 55.15,70.85 65.08,95.53l-127.01 -0.83 61.93 -94.7zm255.06 -14.45l146.39 2.69c-15.52,26.99 -43.24,80.97 -65.62,95.2l-80.77 -97.89zm-155.53 97.07c-16.43,-11.49 -55.27,-75.65 -64.2,-96.87l148.31 1.49 -84.11 95.38zm-104.99 -126.11c-188.28,87.45 -30.01,246.34 47.12,336.31 162.38,189.39 134.49,249.37 286.96,76.44 99.74,-113.13 253.9,-216.1 171.8,-331.94 -73.09,-103.13 -377.95,-140.24 -505.88,-80.81z"/>
   <path class="fil19" d="M1354.11 2690.53l97.58 285.99 5.13 0.34 97.34 -286.3 -200.05 -0.03zm254.13 -30.88l124.47 -0.23 -61.66 -93.92c-19,15.23 -52.97,67.79 -62.81,94.15zm-434.13 -1.1l127.01 0.82c-9.93,-24.67 -43.88,-80.61 -65.08,-95.53l-61.93 94.71zm397.75 -11.27c22.39,-14.23 50.1,-68.2 65.62,-95.19l-146.38 -2.69 80.76 97.88zm-236.29 -0.82l84.11 -95.38 -148.31 -1.48c8.92,21.22 47.77,85.38 64.2,96.86zm31.73 10.98l172.22 2.05c-7.47,-17.94 -74.42,-93.48 -89.86,-100.04l-82.36 97.99zm133.5 291.14c18.06,-8.22 215.87,-234.52 226.54,-258.03l-140.13 1.55 -86.41 256.48zm-319.04 -257.96c6.83,17.33 211.02,250.56 227.56,257.27l-87.38 -257.33 -140.18 0.06zm48.81 -170.27c127.93,-59.42 432.8,-22.31 505.89,80.82 82.1,115.83 -72.06,218.81 -171.8,331.94 -152.47,172.93 -124.58,112.94 -286.96,-76.45 -77.14,-89.97 -235.4,-248.86 -47.13,-336.31zm-8.04 -37.67c-25.44,9.19 -60.22,66.4 -74.67,88.58 -22.66,34.77 -59.08,63.32 -54.67,109.57 3.87,40.52 113.8,151.42 146.03,188.88 50.65,58.86 101.49,120.04 152.14,178.19 80.14,92.01 136.35,-19.42 188.04,-74.5 50.39,-53.67 106.48,-120.23 153.32,-177.48 65.62,-80.19 129.84,-100.14 40.41,-207.42 -78.33,-93.97 -16.81,-114.03 -220.41,-109.54 -52.8,1.16 -300.55,-6.98 -330.19,3.72z"/>
   <g>
    <g>
     <path class="fil0 str0" d="M2490.81 2707.16c-6.95,-2.47 -0.93,-15.36 10.58,-14.22 -0.59,6.89 -2.26,1.87 -6.68,6.44 -2.47,2.56 -1.6,4.78 -3.9,7.78zm-8 3.94c1.87,10.91 22.95,30.19 31.59,28.67 3.28,-0.58 15.14,-9.42 18.38,-11.95 17.58,-13.7 11.51,-35.16 0.3,-39.88 -12.5,-5.27 -16.72,5.95 -20.86,4.74 -5.21,-1.52 -10.09,-11.19 -21.45,-3.29 -7.12,4.95 -9.36,13.5 -7.96,21.71z"/>
     <path id="1" class="fil20" d="M2490.81 2707.16c-6.95,-2.47 -0.93,-15.36 10.58,-14.22 -0.59,6.89 -2.26,1.87 -6.68,6.44 -2.47,2.56 -1.6,4.78 -3.9,7.78zm-8 3.94c1.87,10.91 22.95,30.19 31.59,28.67 3.28,-0.58 15.14,-9.42 18.38,-11.95 17.58,-13.7 11.51,-35.16 0.3,-39.88 -12.5,-5.27 -16.72,5.95 -20.86,4.74 -5.21,-1.52 -10.09,-11.19 -21.45,-3.29 -7.12,4.95 -9.36,13.5 -7.96,21.71z"/>
    </g>
    <g>
     <g>
      <path class="fil0 str1" d="M2713.31 2700.48l19.34 -0.01 -9.41 28.01 -9.93 -28zm15.04 25.21l8.43 -25.15 13.32 -0.08 -21.75 25.23zm-32.37 -25.06l13.14 -0.15 8.87 25.12 -22.01 -24.97zm48.69 -12.63l6.05 8.67 -11.58 0.13 5.53 -8.8zm-21.63 -0.58c0.61,0.48 3.67,3.92 4.18,4.62 0.18,0.24 3.92,4.66 3.93,4.67l-16.02 0.1 7.91 -9.39zm-21.72 0.56c1.37,1.83 5.3,7.21 5.61,8.83l-11.35 0 5.74 -8.83zm26.05 -1.56l13.66 -0.18 -5.72 9.13 -7.94 -8.95zm-16.87 8.98c-1.01,-2.97 -3.92,-6.16 -5.44,-9.14l13.67 -0.02c-0.82,1.62 -6.59,8.11 -8.23,9.16zm-10.14 -12.79c-1.75,2.46 -3.29,4.97 -4.99,7.38 -7.97,11.29 -7.29,6.77 4.56,21.05l17 19.46c6.69,6.66 3.67,11.11 18.23,-6.72l17.09 -19.82c6.25,-6.65 5,-4.34 -6.45,-21.37l-45.44 0.02z"/>
      <path id="1" class="fil20" d="M2713.31 2700.48l19.34 -0.01 -9.41 28.01 -9.93 -28zm15.04 25.21l8.43 -25.15 13.32 -0.08 -21.75 25.23zm-32.37 -25.06l13.14 -0.15 8.87 25.12 -22.01 -24.97zm48.69 -12.63l6.05 8.67 -11.58 0.13 5.53 -8.8zm-21.63 -0.58c0.61,0.48 3.67,3.92 4.18,4.62 0.18,0.24 3.92,4.66 3.93,4.67l-16.02 0.1 7.91 -9.39zm-21.72 0.56c1.37,1.83 5.3,7.21 5.61,8.83l-11.35 0 5.74 -8.83zm26.05 -1.56l13.66 -0.18 -5.72 9.13 -7.94 -8.95zm-16.87 8.98c-1.01,-2.97 -3.92,-6.16 -5.44,-9.14l13.67 -0.02c-0.82,1.62 -6.59,8.11 -8.23,9.16zm-10.14 -12.79c-1.75,2.46 -3.29,4.97 -4.99,7.38 -7.97,11.29 -7.29,6.77 4.56,21.05l17 19.46c6.69,6.66 3.67,11.11 18.23,-6.72l17.09 -19.82c6.25,-6.65 5,-4.34 -6.45,-21.37l-45.44 0.02z"/>
     </g>
     <g>
      <g>
       <path class="fil0 str2" d="M2690.84 2715.75c1.01,0.42 1.91,0.45 2.98,1.61 1.11,1.22 1.22,2.76 1.46,3.73 0.75,-1.37 0.68,-2.47 1.76,-3.72 0.61,-0.71 0.81,-0.77 1.58,-1.13l2.02 -0.98c-3.77,-1.15 -3.23,-1.68 -5.21,-4.43 -1.82,2.44 -1.94,3.92 -5.59,4.42 0.1,0.07 0.24,0.14 0.32,0.18l0.68 0.32z"/>
       <path id="1" class="fil20" d="M2690.84 2715.75c1.01,0.42 1.91,0.45 2.98,1.61 1.11,1.22 1.22,2.76 1.46,3.73 0.75,-1.37 0.68,-2.47 1.76,-3.72 0.61,-0.71 0.81,-0.77 1.58,-1.13l2.02 -0.98c-3.77,-1.15 -3.23,-1.68 -5.21,-4.43 -1.82,2.44 -1.94,3.92 -5.59,4.42 0.1,0.07 0.24,0.14 0.32,0.18l0.68 0.32z"/>
      </g>
      <g>
       <path class="fil0 str3" d="M2697.18 2724.11c1.27,1.07 2.36,1.64 2.92,3.49l0.61 -0.91c1.33,-2.01 1.11,-1.16 2.71,-2.49 -2.2,-0.89 -2.41,-1.1 -2.84,-3.41 -1,1.42 -1.56,2.64 -3.4,3.32z"/>
       <path id="1" class="fil20" d="M2697.18 2724.11c1.27,1.07 2.36,1.64 2.92,3.49l0.61 -0.91c1.33,-2.01 1.11,-1.16 2.71,-2.49 -2.2,-0.89 -2.41,-1.1 -2.84,-3.41 -1,1.42 -1.56,2.64 -3.4,3.32z"/>
      </g>
      <g>
       <path class="fil0 str4" d="M2739.57 2724.06c0.89,0.58 1.25,0.37 2.24,1.38l1.18 2.05c0.03,-0.07 0.1,0.22 0.17,0.32 0.74,-2.68 0.65,-2.76 3.43,-3.44 -2.65,-1.47 -2.86,-0.76 -3.58,-4.4 -0.63,3.13 -0.43,3.3 -3.44,4.09z"/>
       <path id="1" class="fil20" d="M2739.57 2724.06c0.89,0.58 1.25,0.37 2.24,1.38l1.18 2.05c0.03,-0.07 0.1,0.22 0.17,0.32 0.74,-2.68 0.65,-2.76 3.43,-3.44 -2.65,-1.47 -2.86,-0.76 -3.58,-4.4 -0.63,3.13 -0.43,3.3 -3.44,4.09z"/>
      </g>
     </g>
    </g>
    <g>
     <path class="fil0 str5" d="M2501.31 2825.5c-8.34,7.27 5.37,6.37 -14.31,8.72 4.54,-7.49 -7.81,-2.22 14.31,-8.72zm29.17 -24.8l-2.24 10.5c-29.9,-25.32 -79.39,17.48 -62.06,44.29 32.24,12.87 49.7,-12.54 74.91,-20.85 11.57,2.81 10.97,5.65 5.73,-5.12 1.55,-11.95 5.65,-17.28 0.08,-30.52l-16.42 1.7z"/>
     <path id="1" class="fil20" d="M2501.31 2825.5c-8.34,7.27 5.37,6.37 -14.31,8.72 4.54,-7.49 -7.81,-2.22 14.31,-8.72zm29.17 -24.8l-2.24 10.5c-29.9,-25.32 -79.39,17.48 -62.06,44.29 32.24,12.87 49.7,-12.54 74.91,-20.85 11.57,2.81 10.97,5.65 5.73,-5.12 1.55,-11.95 5.65,-17.28 0.08,-30.52l-16.42 1.7z"/>
    </g>
    <g>
     <path class="fil0 str5" d="M2572.41 2829.65l-25.59 -0.13c5.24,10.77 5.84,7.93 -5.73,5.12 -20.71,13.66 -44.18,22.06 -63.57,30.58 -7.95,26.33 -17.19,30.97 -10.57,59.32 5.4,23.17 15.89,36.82 6.56,59.12 -7.87,18.81 -60,112.84 8.93,74.4 1.87,-18.69 13.88,-38.33 22.42,-55.97 16.64,-34.37 10.69,-23.36 6.67,-58.19 38.21,39.37 28.19,28.6 29.39,86.58 1.11,52.93 39.06,52.1 37.24,-8.96 -1.89,-63.34 7.39,-44.34 -26.75,-89.38 -16.27,-21.45 8.11,-50.24 14.79,-79.31 18.36,9.74 35.92,30.58 43.88,-4.33 4.02,-17.66 2.93,-41.97 -9.18,-55.53 -2.37,5.95 -9.14,18.58 -10.52,23.09 -2.59,8.44 -0.95,11.11 -3.8,19.84l-14.17 -6.25z"/>
     <path id="1" class="fil20" d="M2572.41 2829.65l-25.59 -0.13c5.24,10.77 5.84,7.93 -5.73,5.12 -20.71,13.66 -44.18,22.06 -63.57,30.58 -7.95,26.33 -17.19,30.97 -10.57,59.32 5.4,23.17 15.89,36.82 6.56,59.12 -7.87,18.81 -60,112.84 8.93,74.4 1.87,-18.69 13.88,-38.33 22.42,-55.97 16.64,-34.37 10.69,-23.36 6.67,-58.19 38.21,39.37 28.19,28.6 29.39,86.58 1.11,52.93 39.06,52.1 37.24,-8.96 -1.89,-63.34 7.39,-44.34 -26.75,-89.38 -16.27,-21.45 8.11,-50.24 14.79,-79.31 18.36,9.74 35.92,30.58 43.88,-4.33 4.02,-17.66 2.93,-41.97 -9.18,-55.53 -2.37,5.95 -9.14,18.58 -10.52,23.09 -2.59,8.44 -0.95,11.11 -3.8,19.84l-14.17 -6.25z"/>
    </g>
    <g>
     <path class="fil0 str6" d="M2701.97 2863.32c-36.15,-13.26 -32.12,0.09 -62.3,7.2 -0.06,25.38 -2.87,182.83 2.29,193.77 6.23,13.25 22.59,15.51 30.67,2.58 6.23,-9.96 3.14,-126.54 3.12,-142.88 21.6,15.18 -2.03,116.38 9.81,140.21 6.77,13.63 21.68,15.77 30.1,1.93 7.99,-13.14 3.26,-166.74 2.75,-193.45l-16.44 -9.36z"/>
     <path id="1" class="fil20" d="M2701.97 2863.32c-36.15,-13.26 -32.12,0.09 -62.3,7.2 -0.06,25.38 -2.87,182.83 2.29,193.77 6.23,13.25 22.59,15.51 30.67,2.58 6.23,-9.96 3.14,-126.54 3.12,-142.88 21.6,15.18 -2.03,116.38 9.81,140.21 6.77,13.63 21.68,15.77 30.1,1.93 7.99,-13.14 3.26,-166.74 2.75,-193.45l-16.44 -9.36z"/>
    </g>
    <g>
     <path class="fil0 str6" d="M2701.16 2851.77l-1.42 -16.68c-21.32,-8.2 -31.83,-1.46 -52.76,4.15 19.32,-23.19 62.71,-13.07 72.75,-6.72 -4.06,14.9 -5.05,8.14 -18.57,19.25zm-82.47 -25.03l1.27 22.16c6.02,22.42 17.08,22.59 37.14,13.59 23.37,-10.49 18.44,-8.02 44.06,-10.72 -3.94,10.17 -3.6,1.73 0.81,11.55 48.66,17.88 57.64,-55.42 4.81,-62.17 -36.12,7.04 -74.25,-16.13 -88.09,25.59z"/>
     <path id="1" class="fil20" d="M2701.16 2851.77l-1.42 -16.68c-21.32,-8.2 -31.83,-1.46 -52.76,4.15 19.32,-23.19 62.71,-13.07 72.75,-6.72 -4.06,14.9 -5.05,8.14 -18.57,19.25zm-82.47 -25.03l1.27 22.16c6.02,22.42 17.08,22.59 37.14,13.59 23.37,-10.49 18.44,-8.02 44.06,-10.72 -3.94,10.17 -3.6,1.73 0.81,11.55 48.66,17.88 57.64,-55.42 4.81,-62.17 -36.12,7.04 -74.25,-16.13 -88.09,25.59z"/>
    </g>
    <g>
     <path class="fil0 str7" d="M2673.2 2780.19c6.46,-4.13 28.38,-7.06 35.13,-3.39 -8.86,14.33 -21.73,15.88 -35.13,3.39zm-2.89 -42.14c-42.93,21.36 -10.41,75.42 27.82,58.82 35.51,-15.42 14.09,-79.66 -27.82,-58.82z"/>
     <path id="1" class="fil20" d="M2673.2 2780.19c6.46,-4.13 28.38,-7.06 35.13,-3.39 -8.86,14.33 -21.73,15.88 -35.13,3.39zm-2.89 -42.14c-42.93,21.36 -10.41,75.42 27.82,58.82 35.51,-15.42 14.09,-79.66 -27.82,-58.82z"/>
    </g>
    <g>
     <path class="fil0 str8" d="M2555.67 2770.12c7.61,-0.94 28.66,5.87 33.16,12.09 -14.17,9.11 -26.45,4.96 -33.16,-12.09zm15.56 -39.26c-47.94,0.76 -41.91,63.56 -0.25,65.06 38.68,1.39 47.05,-65.8 0.25,-65.06z"/>
     <path id="1" class="fil20" d="M2555.67 2770.12c7.61,-0.94 28.66,5.87 33.16,12.09 -14.17,9.11 -26.45,4.96 -33.16,-12.09zm15.56 -39.26c-47.94,0.76 -41.91,63.56 -0.25,65.06 38.68,1.39 47.05,-65.8 0.25,-65.06z"/>
    </g>
   </g>
   <g>
    <g>
     <polygon class="fil0 str9" points="3602.25,2763.48 3596.38,2784.4 3590.61,2776.22 3566.65,2779.22 3582.28,2760.72 3585.3,2767.04 "/>
     <polygon id="1" class="fil20" points="3602.25,2763.48 3596.38,2784.4 3590.61,2776.22 3566.65,2779.22 3582.28,2760.72 3585.3,2767.04 "/>
    </g>
    <g>
     <path class="fil0 str10" d="M3844.69 2788.84l200.47 23.63c16.63,-1.2 10.86,1.02 21.6,-6.74l40.74 20.5 1.17 108.81 -45.64 23.51c-16.78,3.36 -23.88,4.96 -34.82,15.75l-110.75 56.05c22.6,-20.89 43.01,-69.54 67.98,-82.54 61.07,-31.78 75.27,-3.72 70.78,-83.43l22.44 -9.62 13.85 -12.26c-2.13,-18.31 -1.9,-7.98 -7.97,-12.84l-8.86 -6.47c-52.58,17.02 -49.96,16.67 -105.57,12.19 -10,-9.17 -11.64,-10.01 -28.51,-10.8l-5.67 12.29 -5.67 10.3c-54.61,-3.37 -40.88,-0.89 -83.36,-24.12 6.06,58.41 49.91,115.31 44.75,168.88l-20.62 82.75 -21.14 -3.16 -4.3 -144.84 -26.96 -14.4 -109.2 120.06c-3.61,-27.7 6.49,-56.37 13.34,-83.7 12.31,-49.15 30.36,-23.62 55.77,-50l-17.55 -70.12 -72.57 20.45 -9.65 -14.48 115.73 -43.52c29.69,-6.37 20.49,-8.58 50.19,-2.13zm-41.7 -129.49l5.41 -22.45c16.49,-2.25 1.96,-1.65 8.3,5.99l-17.06 61.64 3.35 -45.18zm27.91 64.51c-6.98,-3.31 -18.06,2.65 4.67,-7.84 13.15,-6.07 9.11,-2.06 20.55,-11.57 21.35,-0.05 15.83,-10 32.79,-3.55 -17.92,13.79 -38.99,12.15 -58.01,22.96zm15.79 -63.77c9.57,-1.85 0.16,-7.01 14.15,2.03l-50.78 47.51 36.63 -49.54zm-130.7 73.98c10.73,-5.24 2.48,-5.1 16.18,-0.96 -3.42,3.31 2,3.52 -7.85,5.13 -14.7,2.39 -2.85,0.47 -8.33,-4.17zm15.39 -27.02c-10.03,11.69 1.56,3.46 -11.57,8.56 -3.4,1.33 -13.8,1 -17.25,1.08 3.77,-21.16 0.24,-6.34 7.98,-12.67l20.84 3.03zm17.55 -14.36l1.2 17.66 -10.09 -6.39 -6.54 -11.55 15.43 0.28z"/>
     <path id="1" class="fil20" d="M3844.69 2788.84l200.47 23.63c16.63,-1.2 10.86,1.02 21.6,-6.74l40.74 20.5 1.17 108.81 -45.64 23.51c-16.78,3.36 -23.88,4.96 -34.82,15.75l-110.75 56.05c22.6,-20.89 43.01,-69.54 67.98,-82.54 61.07,-31.78 75.27,-3.72 70.78,-83.43l22.44 -9.62 13.85 -12.26c-2.13,-18.31 -1.9,-7.98 -7.97,-12.84l-8.86 -6.47c-52.58,17.02 -49.96,16.67 -105.57,12.19 -10,-9.17 -11.64,-10.01 -28.51,-10.8l-5.67 12.29 -5.67 10.3c-54.61,-3.37 -40.88,-0.89 -83.36,-24.12 6.06,58.41 49.91,115.31 44.75,168.88l-20.62 82.75 -21.14 -3.16 -4.3 -144.84 -26.96 -14.4 -109.2 120.06c-3.61,-27.7 6.49,-56.37 13.34,-83.7 12.31,-49.15 30.36,-23.62 55.77,-50l-17.55 -70.12 -72.57 20.45 -9.65 -14.48 115.73 -43.52c29.69,-6.37 20.49,-8.58 50.19,-2.13zm-41.7 -129.49l5.41 -22.45c16.49,-2.25 1.96,-1.65 8.3,5.99l-17.06 61.64 3.35 -45.18zm27.91 64.51c-6.98,-3.31 -18.06,2.65 4.67,-7.84 13.15,-6.07 9.11,-2.06 20.55,-11.57 21.35,-0.05 15.83,-10 32.79,-3.55 -17.92,13.79 -38.99,12.15 -58.01,22.96zm15.79 -63.77c9.57,-1.85 0.16,-7.01 14.15,2.03l-50.78 47.51 36.63 -49.54zm-130.7 73.98c10.73,-5.24 2.48,-5.1 16.18,-0.96 -3.42,3.31 2,3.52 -7.85,5.13 -14.7,2.39 -2.85,0.47 -8.33,-4.17zm15.39 -27.02c-10.03,11.69 1.56,3.46 -11.57,8.56 -3.4,1.33 -13.8,1 -17.25,1.08 3.77,-21.16 0.24,-6.34 7.98,-12.67l20.84 3.03zm17.55 -14.36l1.2 17.66 -10.09 -6.39 -6.54 -11.55 15.43 0.28z"/>
    </g>
    <g>
     <path class="fil0 str11" d="M3593.1 2965.68c-9.3,-14.82 -17.35,-26.94 -32.02,-35.14 9.53,14.3 17.99,27.34 32.02,35.14zm-33.53 -98.12l-33.2 -19.74c5.07,9.15 -2.21,1.09 5.89,8.65 0.06,0.06 8.19,5.22 8.41,5.33 10,4.94 8.95,3.66 18.9,5.76zm100.66 -37.54c-24.29,6.99 -21.68,13.11 -51.17,10.04 -17.68,-1.84 -32.99,-4.32 -51.05,-5.08 36.81,32.12 65.26,21.06 102.22,-4.96zm-133.86 17.8l2.8 -14.18c9.26,-3.58 4.41,-1.12 10.67,-3.15 13.02,-4.25 5.22,-1.46 9.39,-3.72 -17.35,-3 -12.51,-6.14 -25.75,5.57 -5.35,21.79 -0.19,12 2.89,15.48zm44.51 -35.39l99.46 10.66 -10.11 6.93 18.54 4.47 -1.66 16.87c-19.65,9.22 -41.11,19.66 -61.27,27.69 -29.07,11.58 -28.72,-4.89 -56.27,-11.49 -1.3,84.81 13.53,42.98 73.57,81.92 19.28,12.5 59.94,71.11 63.12,93.28 -34.91,36.16 -28.54,-3.09 -100.79,-73.72 15.47,31.83 -9.39,34.95 -30.48,57.33 -16.17,17.18 -35.38,41.57 -58.55,30.97 -20.83,-29.68 29.39,-48.1 46.1,-74.62 -26.72,-28.66 -47.08,-46.92 -50.39,-87.56 -3.58,-43.97 -0.18,-80.93 47.02,-89.19 10.92,7.71 5.78,5.37 21.71,6.46zm-4.23 -33.21l-2.29 11.96 32.02 -6.78c-5.25,14.41 -2.63,9.01 -15.64,19.23l-27.74 -1.01 -18.51 -14.95c3.33,-16.06 -6.44,-11.17 19.11,-17.34 4.38,7.09 -6.88,4.81 13.05,8.89zm15.63 -18.5l0.84 -15.19 11.62 1.35 -0.3 13.59 -12.16 0.25zm0.84 -15.19l-16 9.35 -8.83 -3.13c-13.06,14.26 -8.68,15.34 -26.72,16.26 6.03,-23.54 36.29,-46.89 51.55,-22.48zm-29.52 24.8l2.48 -11.39 11.04 -4.06 1.27 15.71 -14.79 -0.26z"/>
     <path id="1" class="fil20" d="M3593.1 2965.68c-9.3,-14.82 -17.35,-26.94 -32.02,-35.14 9.53,14.3 17.99,27.34 32.02,35.14zm-33.53 -98.12l-33.2 -19.74c5.07,9.15 -2.21,1.09 5.89,8.65 0.06,0.06 8.19,5.22 8.41,5.33 10,4.94 8.95,3.66 18.9,5.76zm100.66 -37.54c-24.29,6.99 -21.68,13.11 -51.17,10.04 -17.68,-1.84 -32.99,-4.32 -51.05,-5.08 36.81,32.12 65.26,21.06 102.22,-4.96zm-133.86 17.8l2.8 -14.18c9.26,-3.58 4.41,-1.12 10.67,-3.15 13.02,-4.25 5.22,-1.46 9.39,-3.72 -17.35,-3 -12.51,-6.14 -25.75,5.57 -5.35,21.79 -0.19,12 2.89,15.48zm44.51 -35.39l99.46 10.66 -10.11 6.93 18.54 4.47 -1.66 16.87c-19.65,9.22 -41.11,19.66 -61.27,27.69 -29.07,11.58 -28.72,-4.89 -56.27,-11.49 -1.3,84.81 13.53,42.98 73.57,81.92 19.28,12.5 59.94,71.11 63.12,93.28 -34.91,36.16 -28.54,-3.09 -100.79,-73.72 15.47,31.83 -9.39,34.95 -30.48,57.33 -16.17,17.18 -35.38,41.57 -58.55,30.97 -20.83,-29.68 29.39,-48.1 46.1,-74.62 -26.72,-28.66 -47.08,-46.92 -50.39,-87.56 -3.58,-43.97 -0.18,-80.93 47.02,-89.19 10.92,7.71 5.78,5.37 21.71,6.46zm-4.23 -33.21l-2.29 11.96 32.02 -6.78c-5.25,14.41 -2.63,9.01 -15.64,19.23l-27.74 -1.01 -18.51 -14.95c3.33,-16.06 -6.44,-11.17 19.11,-17.34 4.38,7.09 -6.88,4.81 13.05,8.89zm15.63 -18.5l0.84 -15.19 11.62 1.35 -0.3 13.59 -12.16 0.25zm0.84 -15.19l-16 9.35 -8.83 -3.13c-13.06,14.26 -8.68,15.34 -26.72,16.26 6.03,-23.54 36.29,-46.89 51.55,-22.48zm-29.52 24.8l2.48 -11.39 11.04 -4.06 1.27 15.71 -14.79 -0.26z"/>
    </g>
    <g>
     <path class="fil0 str9" d="M4028.21 2974.3c16.49,-3.46 24.04,-5.09 34.82,-15.74 14.73,0.43 6.1,-1.31 12.56,5.47l-14.71 33.97c24.52,8.75 69.04,32.44 48.97,60.66 -24.18,7.71 -44.4,-14.57 -67.48,-28.68 -29.99,-18.34 -35.59,-22.7 -14.16,-55.68z"/>
     <path id="1" class="fil20" d="M4028.21 2974.3c16.49,-3.46 24.04,-5.09 34.82,-15.74 14.73,0.43 6.1,-1.31 12.56,5.47l-14.71 33.97c24.52,8.75 69.04,32.44 48.97,60.66 -24.18,7.71 -44.4,-14.57 -67.48,-28.68 -29.99,-18.34 -35.59,-22.7 -14.16,-55.68z"/>
    </g>
    <g>
     <path class="fil0 str9" d="M4051.85 2792.08c-3.09,-17.16 -12.96,-18.52 -28.17,-12.64l28.17 12.64zm12.06 10.94l-27.79 0.23c-16.3,-12.2 -27.24,-25.37 -16.91,-47.72 4.49,-9.71 11.78,-12.59 18.9,-18.46 12.29,-10.13 5.2,-8.73 23.64,-15.8 4.73,7.9 -6.31,4.11 8.18,12.61 6.05,3.54 32.64,45.01 -6.02,69.14z"/>
     <path id="1" class="fil20" d="M4051.85 2792.08c-3.09,-17.16 -12.96,-18.52 -28.17,-12.64l28.17 12.64zm12.06 10.94l-27.79 0.23c-16.3,-12.2 -27.24,-25.37 -16.91,-47.72 4.49,-9.71 11.78,-12.59 18.9,-18.46 12.29,-10.13 5.2,-8.73 23.64,-15.8 4.73,7.9 -6.31,4.11 8.18,12.61 6.05,3.54 32.64,45.01 -6.02,69.14z"/>
    </g>
    <g>
     <path class="fil0 str9" d="M3793.79 2768.85c-2.96,-21.42 -20.35,-26.54 -34.95,-12.51l34.95 12.51zm-0.35 13.14l-36.05 -5.05c-43.69,-110.73 121.38,-53.2 36.05,5.05z"/>
     <path id="1" class="fil20" d="M3793.79 2768.85c-2.96,-21.42 -20.35,-26.54 -34.95,-12.51l34.95 12.51zm-0.35 13.14l-36.05 -5.05c-43.69,-110.73 121.38,-53.2 36.05,5.05z"/>
    </g>
   </g>
   <g>
    <g>
     <path class="fil0 str12" d="M626.34 2950.87l0 30.14c0,5.74 4.66,10.4 10.4,10.4 5.74,0 10.39,-4.66 10.39,-10.4l0 -146.91c0,-5.74 4.67,-10.4 10.4,-10.4l62.37 0c5.73,0 10.39,4.66 10.39,10.4l0 146.91c0,5.74 4.66,10.4 10.4,10.4 5.74,0 10.39,-4.66 10.39,-10.4l0 -30.14c23.7,4.83 41.58,25.83 41.58,50.93 0,28.66 -23.31,51.98 -51.97,51.98 -17.44,0 -33.63,-8.72 -43.32,-23.33 -4.09,-6.17 -13.2,-6.21 -17.32,0 -9.68,14.61 -25.88,23.33 -43.31,23.33 -28.66,0 -51.98,-23.32 -51.98,-51.98 0,-25.1 17.89,-46.1 41.58,-50.93l0 0z"/>
     <path id="1" class="fil21" d="M626.34 2950.87l0 30.14c0,5.74 4.66,10.4 10.4,10.4 5.74,0 10.39,-4.66 10.39,-10.4l0 -146.91c0,-5.74 4.67,-10.4 10.4,-10.4l62.37 0c5.73,0 10.39,4.66 10.39,10.4l0 146.91c0,5.74 4.66,10.4 10.4,10.4 5.74,0 10.39,-4.66 10.39,-10.4l0 -30.14c23.7,4.83 41.58,25.83 41.58,50.93 0,28.66 -23.31,51.98 -51.97,51.98 -17.44,0 -33.63,-8.72 -43.32,-23.33 -4.09,-6.17 -13.2,-6.21 -17.32,0 -9.68,14.61 -25.88,23.33 -43.31,23.33 -28.66,0 -51.98,-23.32 -51.98,-51.98 0,-25.1 17.89,-46.1 41.58,-50.93l0 0z"/>
    </g>
    <g>
     <path class="fil0 str12" d="M647.13 2782.12c0,-19.34 13.27,-35.63 31.19,-40.26l0 19.47c0,5.74 4.65,10.4 10.39,10.4 5.74,0 10.4,-4.66 10.4,-10.4l0 -19.47c17.91,4.63 31.18,20.92 31.18,40.26l0 10.4c0,5.73 -4.66,10.39 -10.39,10.39l-62.37 0c-5.73,0 -10.4,-4.66 -10.4,-10.39l0 -10.4z"/>
     <path id="1" class="fil22" d="M647.13 2782.12c0,-19.34 13.27,-35.63 31.19,-40.26l0 19.47c0,5.74 4.65,10.4 10.39,10.4 5.74,0 10.4,-4.66 10.4,-10.4l0 -19.47c17.91,4.63 31.18,20.92 31.18,40.26l0 10.4c0,5.73 -4.66,10.39 -10.39,10.39l-62.37 0c-5.73,0 -10.4,-4.66 -10.4,-10.39l0 -10.4z"/>
    </g>
    <g>
     <path class="fil0 str12" d="M563.97 3001.8c0,40.12 32.64,72.77 72.77,72.77 19.78,0 38.41,-8 51.97,-21.9 13.57,13.9 32.19,21.9 51.98,21.9 40.12,0 72.76,-32.65 72.76,-72.77 0,-36.59 -27.15,-66.96 -62.37,-72.02l0 -95.68c0,-7.98 -3.01,-15.27 -7.96,-20.79 4.95,-5.53 7.96,-12.81 7.96,-20.79l0 -10.4c0,-34.39 -27.98,-62.37 -62.37,-62.37 -34.39,0 -62.37,27.98 -62.37,62.37l0 10.4c0,7.98 3.02,15.26 7.97,20.79 -4.95,5.52 -7.97,12.81 -7.97,20.79l0 95.68c-35.21,5.06 -62.37,35.43 -62.37,72.02l0 0z"/>
     <path id="1" class="fil20" d="M563.97 3001.8c0,40.12 32.64,72.77 72.77,72.77 19.78,0 38.41,-8 51.97,-21.9 13.57,13.9 32.19,21.9 51.98,21.9 40.12,0 72.76,-32.65 72.76,-72.77 0,-36.59 -27.15,-66.96 -62.37,-72.02l0 -95.68c0,-7.98 -3.01,-15.27 -7.96,-20.79 4.95,-5.53 7.96,-12.81 7.96,-20.79l0 -10.4c0,-34.39 -27.98,-62.37 -62.37,-62.37 -34.39,0 -62.37,27.98 -62.37,62.37l0 10.4c0,7.98 3.02,15.26 7.97,20.79 -4.95,5.52 -7.97,12.81 -7.97,20.79l0 95.68c-35.21,5.06 -62.37,35.43 -62.37,72.02l0 0z"/>
    </g>
    <path class="fil23" d="M563.97 3001.8c0,40.12 32.64,72.77 72.77,72.77 19.78,0 38.41,-8 51.97,-21.9 13.57,13.9 32.2,21.9 51.98,21.9 40.12,0 72.76,-32.65 72.76,-72.77 0,-36.59 -27.15,-66.96 -62.37,-72.02l0 -95.68c0,-7.99 -3.02,-15.27 -7.96,-20.79 4.94,-5.53 7.96,-12.81 7.96,-20.79l0 -10.4c0,-34.39 -27.98,-62.37 -62.37,-62.37 -34.39,0 -62.37,27.98 -62.37,62.37l0 10.4c0,7.98 3.02,15.26 7.97,20.79 -4.95,5.52 -7.97,12.8 -7.97,20.79l0 95.68c-35.21,5.06 -62.37,35.43 -62.37,72.02l0 0zm83.16 -219.68c0,-19.34 13.27,-35.64 31.19,-40.26l0 19.47c0,5.74 4.65,10.4 10.39,10.4 5.74,0 10.4,-4.66 10.4,-10.4l0 -19.47c17.91,4.62 31.18,20.92 31.18,40.26l0 10.4c0,5.73 -4.66,10.39 -10.39,10.39l-62.37 0c-5.74,0 -10.4,-4.66 -10.4,-10.39l0 -10.4zm-20.79 168.75l0 30.14c0,5.74 4.66,10.4 10.4,10.4 5.74,0 10.39,-4.66 10.39,-10.4l0 -146.91c0,-5.74 4.67,-10.4 10.4,-10.4l62.37 0c5.73,0 10.39,4.66 10.39,10.4l0 146.91c0,5.74 4.66,10.4 10.4,10.4 5.74,0 10.39,-4.66 10.39,-10.4l0 -30.14c23.7,4.83 41.58,25.83 41.58,50.93 0,28.66 -23.31,51.98 -51.97,51.98 -17.44,0 -33.63,-8.72 -43.32,-23.32 -4.09,-6.18 -13.2,-6.22 -17.32,0 -9.68,14.6 -25.88,23.32 -43.31,23.32 -28.66,0 -51.98,-23.32 -51.98,-51.98 0,-25.1 17.89,-46.1 41.58,-50.93l0 0z"/>
   </g>
   <path class="fil24" d="M2490.81 2707.16c-6.95,-2.47 -0.93,-15.36 10.58,-14.22 -0.59,6.89 -2.26,1.87 -6.68,6.44 -2.47,2.56 -1.6,4.78 -3.9,7.78zm-8 3.94c1.87,10.91 22.95,30.19 31.59,28.67 3.28,-0.58 15.14,-9.42 18.38,-11.95 17.58,-13.7 11.51,-35.16 0.3,-39.88 -12.5,-5.27 -16.72,5.95 -20.86,4.74 -5.21,-1.52 -10.09,-11.19 -21.45,-3.29 -7.12,4.95 -9.36,13.5 -7.96,21.71z"/>
   <path class="fil25" d="M2746.59 2722.61c1.19,0.77 1.67,0.49 2.98,1.83l1.57 2.73c0.03,-0.09 0.13,0.29 0.22,0.42 0.99,-3.56 0.86,-3.66 4.56,-4.57 -3.52,-1.95 -3.8,-1 -4.75,-5.84 -0.84,4.15 -0.57,4.39 -4.58,5.43z"/>
   <path class="fil26" d="M2690.3 2722.67c1.69,1.43 3.14,2.18 3.89,4.64l0.81 -1.21c1.76,-2.66 1.48,-1.54 3.59,-3.3 -2.91,-1.19 -3.2,-1.46 -3.77,-4.53 -1.32,1.88 -2.07,3.51 -4.52,4.4z"/>
   <path class="fil27" d="M2681.89 2711.57c1.35,0.56 2.54,0.6 3.95,2.15 1.48,1.62 1.63,3.66 1.94,4.95 1,-1.82 0.91,-3.29 2.34,-4.94 0.81,-0.94 1.08,-1.02 2.1,-1.51l2.69 -1.29c-5.01,-1.53 -4.29,-2.23 -6.93,-5.88 -2.41,3.24 -2.57,5.2 -7.42,5.87 0.13,0.09 0.33,0.18 0.43,0.23l0.9 0.42z"/>
   <path class="fil28" d="M2753.36 2674.73l8.05 11.51 -15.39 0.18 7.34 -11.69zm-21.66 50.05l11.19 -33.41 17.69 -0.09 -28.88 33.5zm-19.97 -33.48l25.68 -0.02 -12.49 37.2 -13.19 -37.18zm-23.01 0.19l17.45 -0.19 11.77 33.36 -29.22 -33.17zm7.09 -16.79c1.82,2.43 7.03,9.57 7.44,11.73l-15.06 -0.01 7.62 -11.72zm12.19 9.86c-1.35,-3.95 -5.21,-8.18 -7.22,-12.13l18.14 -0.03c-1.08,2.14 -8.74,10.76 -10.92,12.16zm16.65 -10.6c0.81,0.64 4.86,5.2 5.55,6.13 0.23,0.32 5.2,6.19 5.21,6.2l-21.26 0.13 10.5 -12.46zm5.75 -1.32l18.13 -0.24 -7.6 12.12 -10.53 -11.88z"/>
   <path class="fil29" d="M2501.31 2825.5c-8.34,7.27 5.37,6.37 -14.31,8.72 4.54,-7.49 -7.81,-2.22 14.31,-8.72zm29.17 -24.8l-2.24 10.5c-29.9,-25.32 -79.39,17.48 -62.06,44.29 32.24,12.87 49.7,-12.54 74.91,-20.85 11.57,2.81 10.97,5.65 5.73,-5.12 1.55,-11.95 5.65,-17.28 0.08,-30.52l-16.42 1.7z"/>
   <path class="fil30" d="M2572.41 2829.65l-25.59 -0.13c5.24,10.77 5.84,7.93 -5.73,5.12 -20.71,13.66 -44.18,22.06 -63.57,30.58 -7.95,26.33 -17.19,30.97 -10.57,59.32 5.4,23.17 15.89,36.82 6.56,59.12 -7.87,18.81 -60,112.84 8.93,74.4 1.87,-18.69 13.88,-38.33 22.42,-55.97 16.64,-34.37 10.69,-23.36 6.67,-58.19 38.21,39.37 28.19,28.6 29.39,86.58 1.11,52.93 39.06,52.1 37.24,-8.96 -1.89,-63.34 7.39,-44.34 -26.75,-89.38 -16.27,-21.45 8.11,-50.24 14.79,-79.31 18.36,9.74 35.92,30.58 43.88,-4.33 4.02,-17.66 2.93,-41.97 -9.18,-55.53 -2.37,5.95 -9.14,18.58 -10.52,23.09 -2.59,8.44 -0.95,11.11 -3.8,19.84l-14.17 -6.25z"/>
   <path class="fil30" d="M2701.97 2863.32c-36.15,-13.26 -32.12,0.09 -62.3,7.2 -0.06,25.38 -2.87,182.83 2.29,193.77 6.23,13.25 22.59,15.51 30.67,2.58 6.23,-9.96 3.14,-126.54 3.12,-142.88 21.6,15.18 -2.03,116.38 9.81,140.21 6.77,13.63 21.68,15.77 30.1,1.93 7.99,-13.14 3.26,-166.74 2.75,-193.45l-16.44 -9.36z"/>
   <path class="fil31" d="M2701.16 2851.77l-1.42 -16.68c-21.32,-8.2 -31.83,-1.46 -52.76,4.15 19.32,-23.19 62.71,-13.07 72.75,-6.72 -4.06,14.9 -5.05,8.14 -18.57,19.25zm-82.47 -25.03l1.27 22.16c6.02,22.42 17.08,22.59 37.14,13.59 23.37,-10.49 18.44,-8.02 44.06,-10.72 -3.94,10.17 -3.6,1.73 0.81,11.55 48.66,17.88 57.64,-55.42 4.81,-62.17 -36.12,7.04 -74.25,-16.13 -88.09,25.59z"/>
   <path class="fil31" d="M2673.2 2780.19c6.46,-4.13 28.38,-7.06 35.13,-3.39 -8.86,14.33 -21.73,15.88 -35.13,3.39zm-2.89 -42.14c-42.93,21.36 -10.41,75.42 27.82,58.82 35.51,-15.42 14.09,-79.66 -27.82,-58.82z"/>
   <path class="fil31" d="M2555.67 2770.12c7.61,-0.94 28.66,5.87 33.16,12.09 -14.17,9.11 -26.45,4.96 -33.16,-12.09zm15.56 -39.26c-47.94,0.76 -41.91,63.56 -0.25,65.06 38.68,1.39 47.05,-65.8 0.25,-65.06z"/>
   <g>
    <polygon class="fil32" points="3602.25,2763.48 3596.38,2784.4 3590.61,2776.22 3566.65,2779.22 3582.28,2760.72 3585.3,2767.04 "/>
    <path class="fil33" d="M3844.69 2788.84l200.47 23.63c16.63,-1.2 10.86,1.02 21.6,-6.74l40.74 20.5 1.17 108.81 -45.64 23.51c-16.78,3.36 -23.88,4.96 -34.82,15.75l-110.75 56.05c22.6,-20.89 43.01,-69.54 67.98,-82.54 61.07,-31.78 75.27,-3.72 70.78,-83.43l22.44 -9.62 13.85 -12.26c-2.13,-18.31 -1.9,-7.98 -7.97,-12.84l-8.86 -6.47c-52.58,17.02 -49.96,16.67 -105.57,12.19 -10,-9.17 -11.64,-10.01 -28.51,-10.8l-5.67 12.29 -5.67 10.3c-54.61,-3.37 -40.88,-0.89 -83.36,-24.12 6.06,58.41 49.91,115.31 44.75,168.88l-20.62 82.75 -21.14 -3.16 -4.3 -144.84 -26.96 -14.4 -109.2 120.06c-3.61,-27.7 6.49,-56.37 13.34,-83.7 12.31,-49.15 30.36,-23.62 55.77,-50l-17.55 -70.12 -72.57 20.45 -9.65 -14.48 115.73 -43.52c29.69,-6.37 20.49,-8.58 50.19,-2.13zm-41.7 -129.49l5.41 -22.45c16.49,-2.25 1.96,-1.65 8.3,5.99l-17.06 61.64 3.35 -45.18zm27.91 64.51c-6.98,-3.31 -18.06,2.65 4.67,-7.84 13.15,-6.07 9.11,-2.06 20.55,-11.57 21.35,-0.05 15.83,-10 32.79,-3.55 -17.92,13.79 -38.99,12.15 -58.01,22.96zm15.79 -63.77c9.57,-1.85 0.16,-7.01 14.15,2.03l-50.78 47.51 36.63 -49.54zm-130.7 73.98c10.73,-5.24 2.48,-5.1 16.18,-0.96 -3.42,3.31 2,3.52 -7.85,5.13 -14.7,2.39 -2.85,0.47 -8.33,-4.17zm15.39 -27.02c-10.03,11.69 1.56,3.46 -11.57,8.56 -3.4,1.33 -13.8,1 -17.25,1.08 3.77,-21.16 0.24,-6.34 7.98,-12.67l20.84 3.03zm17.55 -14.36l1.2 17.66 -10.09 -6.39 -6.54 -11.55 15.43 0.28z"/>
    <path class="fil33" d="M3593.1 2965.68c-9.3,-14.82 -17.35,-26.94 -32.02,-35.14 9.53,14.3 17.99,27.34 32.02,35.14zm-33.53 -98.12l-33.2 -19.74c5.07,9.15 -2.21,1.09 5.89,8.65 0.06,0.06 8.19,5.22 8.41,5.33 10,4.94 8.95,3.66 18.9,5.76zm100.66 -37.54c-24.29,6.99 -21.68,13.11 -51.17,10.04 -17.68,-1.84 -32.99,-4.32 -51.05,-5.08 36.81,32.12 65.26,21.06 102.22,-4.96zm-133.86 17.8l2.8 -14.18c9.26,-3.58 4.41,-1.12 10.67,-3.15 13.02,-4.25 5.22,-1.46 9.39,-3.72 -17.35,-3 -12.51,-6.14 -25.75,5.57 -5.35,21.79 -0.19,12 2.89,15.48zm44.51 -35.39l99.46 10.66 -10.11 6.93 18.54 4.47 -1.66 16.87c-19.65,9.22 -41.11,19.66 -61.27,27.69 -29.07,11.58 -28.72,-4.89 -56.27,-11.49 -1.3,84.81 13.53,42.98 73.57,81.92 19.28,12.5 59.94,71.11 63.12,93.28 -34.91,36.16 -28.54,-3.09 -100.79,-73.72 15.47,31.83 -9.39,34.95 -30.48,57.33 -16.17,17.18 -35.38,41.57 -58.55,30.97 -20.83,-29.68 29.39,-48.1 46.1,-74.62 -26.72,-28.66 -47.08,-46.92 -50.39,-87.56 -3.58,-43.97 -0.18,-80.93 47.02,-89.19 10.92,7.71 5.78,5.37 21.71,6.46zm-4.23 -33.21l-2.29 11.96 32.02 -6.78c-5.25,14.41 -2.63,9.01 -15.64,19.23l-27.74 -1.01 -18.51 -14.95c3.33,-16.06 -6.44,-11.17 19.11,-17.34 4.38,7.09 -6.88,4.81 13.05,8.89zm15.63 -18.5l0.84 -15.19 11.62 1.35 -0.3 13.59 -12.16 0.25zm0.84 -15.19l-16 9.35 -8.83 -3.13c-13.06,14.26 -8.68,15.34 -26.72,16.26 6.03,-23.54 36.29,-46.89 51.55,-22.48zm-29.52 24.8l2.48 -11.39 11.04 -4.06 1.27 15.71 -14.79 -0.26z"/>
    <path class="fil33" d="M4028.21 2974.3c16.49,-3.46 24.04,-5.09 34.82,-15.74 14.73,0.43 6.1,-1.31 12.56,5.47l-14.71 33.97c24.52,8.75 69.04,32.44 48.97,60.66 -24.18,7.71 -44.4,-14.57 -67.48,-28.68 -29.99,-18.34 -35.59,-22.7 -14.16,-55.68z"/>
    <path class="fil31" d="M4051.85 2792.08c-3.09,-17.16 -12.96,-18.52 -28.17,-12.64l28.17 12.64zm12.06 10.94l-27.79 0.23c-16.3,-12.2 -27.24,-25.37 -16.91,-47.72 4.49,-9.71 11.78,-12.59 18.9,-18.46 12.29,-10.13 5.2,-8.73 23.64,-15.8 4.73,7.9 -6.31,4.11 8.18,12.61 6.05,3.54 32.64,45.01 -6.02,69.14z"/>
    <path class="fil31" d="M3793.79 2768.85c-2.96,-21.42 -20.35,-26.54 -34.95,-12.51l34.95 12.51zm-0.35 13.14l-36.05 -5.05c-43.69,-110.73 121.38,-53.2 36.05,5.05z"/>
   </g>
   <g>
    <path class="fil34" d="M4578.8 2330.55l4.33 -341.56 -192.56 -21.58c24.97,58.26 64.18,129.8 92.68,184.8 29.03,56.01 63,128.03 95.55,178.34z"/>
    <path class="fil34" d="M4612.61 1989.49l-7.05 333.29c1.49,-1.25 3.72,-5.28 4.43,-4.04 4.14,7.12 44.46,-77.3 47.91,-83.64 17.06,-31.33 31.93,-57.57 46.17,-87.34 29.71,-62.14 60.83,-114.86 89.88,-173.1l-181.34 14.83z"/>
    <path class="fil34" d="M4373.23 1774.27c128.41,24.16 308.89,42.55 435.97,-2.01 -48.84,-32.52 -148.48,-28.41 -213.44,-28.62l-170.74 11.57c-21.32,3.52 -36.13,5.45 -51.79,19.06z"/>
    <path class="fil34" d="M4687.38 2242.12c21.95,-15.19 153.89,-187.22 179.1,-218.77 19.04,-23.81 42.18,-48.72 58.25,-77.5 -128.2,29.2 -90.3,13.53 -145.8,117.06 -27.71,51.66 -74.06,126.17 -91.55,179.21z"/>
    <path class="fil34" d="M4624.98 1959.09l174.17 -12.86 -92.91 -110.19c-0.71,-0.62 -2.35,-2.11 -3.68,-2.96 -21.72,27.74 -65.17,98.21 -77.58,126.01z"/>
    <path class="fil34" d="M4490.8 2229.34l-128.66 -256.39c-15.92,-20.57 -64.26,-28.1 -94.44,-34.16l223.1 290.55z"/>
    <path class="fil34" d="M4396.96 1939.72l171.45 21.31c-19.79,-41.91 -50.07,-85.48 -74.18,-127.18l-97.27 105.87z"/>
    <path class="fil34" d="M4595.76 1947.2l76.25 -125.07 -150.86 1.42c10.6,27.18 55.19,102.39 74.61,123.65z"/>
    <path class="fil34" d="M4832.85 1939.9l100.57 -23.82c-9.19,-20.76 -26.78,-40.06 -44.12,-56.57 -16.83,-16.02 -30.15,-42.73 -49.39,-50.22l-7.06 130.61z"/>
    <path class="fil34" d="M4376.94 1916.43c2.09,-0.62 57.39,-54.64 88.55,-99.2l-95.67 -15.5 7.12 114.7z"/>
    <path class="fil34" d="M4257.38 1906.05l93.67 26.93 -18.56 -124.59c-18.93,36.69 -44.12,54.29 -75.11,97.66z"/>
    <path class="fil34" d="M4732.48 1816.69c8.34,15 21.97,33.74 33.72,45.98 20.14,20.96 22.92,33.66 42.41,44.99l4.83 -106.14 -80.96 15.17z"/>
   </g>
   <path class="fil34" d="M836.89 2205.34c48.31,-159 -143.35,12.1 110.8,-504.3 47.13,-95.75 31.42,-63.27 87.98,-82.92 179.41,-62.33 247.47,-650.34 75.4,-763.61 -113.02,-74.41 -152.93,1.51 -246.69,36.26 -152.97,56.7 -149.68,-1.29 -173.27,-126.37l-22.92 -14c-102.68,-50.69 -113.92,-48.2 -119.43,-3.51 -7.26,58.73 13.77,145.14 35.27,190.07 73.28,153.11 212.32,114.85 298.63,103.55l-5.99 176.09c65.74,-82.28 56.1,-278.37 105.61,-310.27 54.33,-35.01 123.23,-3.75 135.47,52.2 23.57,107.73 -70.81,430.41 -281.84,536.49 -166.86,83.88 -69.58,-31.61 -283.37,135.66 -39.73,31.09 -84.19,51.02 -85.68,118.29 -1.61,72.1 99.53,249.52 97,305.7 -3.7,81.79 -104.23,251.05 -44.56,332.2 26.55,36.12 88.21,64.82 145.65,31.89 57.32,-32.86 44.65,-74.93 72.03,-133.44 51.32,-21.7 82.68,-23.28 99.91,-79.98z"/>
   <path class="fil34" d="M830.7 436.51c-253.52,79.87 -131.3,460.3 121.79,379.87 237.32,-75.41 140.26,-462.43 -121.79,-379.87z"/>
   <path class="fil34" d="M1103.19 1013.2c16,-122.68 -96.12,-132.02 -130.28,-73.55 -10.9,18.64 -32.72,172.96 -51.42,222.34 -90.73,239.55 -264.1,193.62 -295.07,252.32 -19.73,37.4 -4.01,84.39 23.49,98.58 37.06,19.12 83.84,5.45 120.18,-6.46 209.96,-68.81 303.25,-264.27 333.1,-493.23z"/>
   <path class="fil34" d="M386.87 611.34c17.5,24.72 75.98,39.83 104.31,50.85 31.26,12.17 87.02,42.55 111.74,36.24 49.48,-36.9 -64.4,-60.76 -93.06,-72.07 -24.98,-9.86 -44.23,-18.17 -67.15,-27.47 -39.93,-16.22 -43.41,-26.47 -55.84,12.45z"/>
   <path class="fil34" d="M437.21 393.97l-66.64 9.32c-14.08,49.25 -8.1,107.85 -8.05,160.08l20.53 0.63c-0.02,-44.95 -5.63,-113.19 9.24,-145.2 37.59,-7.57 48.81,1.38 78.93,-14 -12.82,-47.45 -50.07,-30.85 -37.87,-90.28 35.72,-20.84 49.74,-2.9 64.03,-28.08 -28.53,-16.04 -74.8,1.86 -85.73,23.98 -19.35,39.16 12.94,54.63 25.56,83.55z"/>
   <path class="fil34" d="M416.6 551.79l15.14 3.59c0.74,-12.78 -0.31,-30.67 0.5,-38.49 2.45,-23.42 0.1,-11.36 7.41,-26.14 29.48,-61.5 109.89,-7.45 149.95,-71 19.94,-31.63 7.88,-62.16 22.43,-89.26 20.72,-38.55 46.18,-14.04 69.94,-44.05 -0.09,-0.04 -8.11,-18.54 -52.69,1.51 -66.63,29.95 -25.95,98.37 -72.69,132.91 -74.87,55.33 -151.91,-33.65 -139.99,130.93z"/>
   <path class="fil34" d="M619.82 705.49c16.8,21.31 62.44,36.52 90.41,40.47 -27.29,-52.57 -15.28,-53.08 -82.93,-67.76l-7.48 27.29z"/>
   <path class="fil34" d="M416.6 551.79c10.29,15.56 -13.49,15.64 18.2,12.12l4.85 -73.16c-7.31,14.78 -4.96,2.72 -7.41,26.14 -0.81,7.82 0.24,25.71 -0.5,38.49l-15.14 -3.59z"/>
   <path class="fil35" d="M4451.71 1500.82l71.2 -201.8 -142.15 -0.3 35.17 101.87c11.92,32.6 22.49,69.39 35.78,100.23z"/>
   <path class="fil35" d="M3252.51 1523.17l57.44 -214.69 -7.41 -0.12 -110.07 0.02c0.85,16.23 55.02,208.89 60.04,214.79z"/>
   <path class="fil35" d="M1629.72 1483.94c4.9,-13.03 12.3,-26.43 18.13,-39.63 9.16,-20.73 52.72,-109.42 53.63,-118.54l-145.43 -0.04c1.31,8.58 70.17,154.84 73.67,158.21z"/>
   <path class="fil35" d="M3279.96 1491.67c6.99,-5.7 12.41,-14.27 18.38,-21.86l120.43 -148.71c4.76,-5.54 7.41,-5.18 8.54,-12.17l-99.14 -0.55c-7.59,14.81 -46.74,163.09 -48.21,183.29z"/>
   <path class="fil35" d="M3222.81 1486.93l-47.8 -178.11 -99.14 -0.46c4.57,10.26 96.82,121.18 108.09,135.2 7.94,9.88 30.27,39.3 38.85,43.37z"/>
   <path class="fil35" d="M3918.46 1518.83c11.13,8.85 195.89,3.05 238.05,4.6 12.34,0.45 22.99,3.71 29.46,-6.21 -6.53,-4.65 -129.92,-55.39 -135.17,-55.31 -3.77,0.06 -57.86,23.42 -66.71,27.08 -14.12,5.84 -56.85,21.93 -65.63,29.84z"/>
   <path class="fil35" d="M3889.49 1265.78l-0.6 174.57c0,12.84 -1.53,45.42 4.86,54.08 7.27,-4.85 24.74,-53.83 29.4,-64.7 3.79,-8.86 27.07,-63.84 27.54,-68.28 0.47,-4.47 -40.04,-99.92 -48.22,-118.79 -1.22,-2.82 -2.06,-4.64 -3.51,-7.69 -0.25,-0.53 -2.1,-4.19 -2.15,-4.28l-3.06 -3.55c-5.16,5.42 -3.88,6.23 -3.92,16.15 -0.04,7.5 -0.34,15.04 -0.34,22.49z"/>
   <path class="fil35" d="M3918.1 1201.93c5.39,5.71 125.23,57.85 133.99,56.96 6.12,-0.63 124.86,-51.17 134.15,-56.5 -23.24,-7.35 -242.81,-4.13 -258.85,-4.11 -5,0.01 -7.17,1.27 -9.29,3.65z"/>
   <path class="fil35" d="M4209.38 1493.32l2.34 -5.77c0.41,-1.91 0.6,-5.1 0.78,-7.15 2.47,-28.5 1.52,-91.07 1.43,-120.13 -0.06,-17.91 1.18,-127.02 -4.55,-134.13 -5.03,1.95 -6.39,9.19 -8.18,13.83 -2.16,5.6 -4.5,11.58 -6.81,17.18 -6.95,16.87 -39.8,95.09 -40.56,101.95 -0.57,5.17 49.46,125.17 55.55,134.22z"/>
   <path class="fil35" d="M2831.39 1486.51c3.42,-6.05 50.89,-159.54 50.97,-163.79l-102 0.01c-0.18,11.54 45.96,156.97 51.03,163.78z"/>
   <path class="fil35" d="M3653.44 1467.56l52.62 -155.95 -106.85 -0.56c0.86,14.21 48.49,150.3 54.23,156.51z"/>
   <path class="fil35" d="M4536.23 1298.92c-5.01,3.86 -29.26,79.33 -33.78,91.66 -6.05,16.51 -29.63,81.86 -32.1,94.96 8.15,-5.92 146.33,-176.74 150.57,-187.56l-84.69 0.94z"/>
   <path class="fil35" d="M4433.7 1485.2c-3.25,-13.79 -11.1,-32.47 -16.13,-46.36l-47.19 -135.41c-2.26,-4.37 -2.05,-4.72 -7.19,-4.73l-79.85 0.28c4.35,10.64 141.62,179.58 150.36,186.22z"/>
   <path class="fil35" d="M1559.48 1310.91c35.89,1.77 99,0.44 138.31,0.38 -5.54,-17.37 -35.21,-59.65 -38.85,-69.55l-60.39 -0.11c-3.68,8.82 -14.32,24.83 -19.84,34.29 -5.48,9.39 -15.78,25.4 -19.23,34.99z"/>
   <path class="fil35" d="M2031.89 1477.52c3.78,-6.49 51.94,-178.46 54.12,-193.3l-57.63 -0.3c-2.37,25.47 -0.28,169.53 3.51,193.6z"/>
   <path class="fil35" d="M2020.78 1476.24l-2.05 -192.1 -57.42 -0.21c2.62,18.18 53.61,184.04 59.47,192.31z"/>
   <path class="fil35" d="M3503.93 1312.07c4.34,7.37 51.34,59.01 59.47,69.31 9.53,12.07 19.91,22.44 29.82,34.25 7.39,8.79 23.81,28.16 33.14,33.18 -1.98,-11.75 -41.03,-124.54 -47.05,-137.63 -23.48,-0.7 -52.74,-1.57 -75.38,0.89z"/>
   <path class="fil35" d="M3677.73 1449.76c8.15,-5 115.6,-126.93 121.04,-138.58l-73.25 -0.11c-7.56,11.65 -44.31,120.38 -47.79,138.69z"/>
   <path class="fil35" d="M2906.01 1323.07c-7.87,23.39 -40.62,125.83 -42.96,143.77 4.9,-3.76 24.18,-30.1 29.02,-36 18.73,-22.83 75.75,-89.19 83.25,-110.12 -24.66,3.87 -47.03,-0.64 -69.31,2.35z"/>
   <path class="fil35" d="M2684.41 1326.75c4.23,5.5 9.12,10.26 13.9,16.27 19.06,24 89.44,115.31 101.13,122.23 -1.44,-7.24 -39.65,-129.55 -45.59,-142.36 -13.78,-0.65 -60.78,-2.48 -69.44,3.86z"/>
   <path class="fil35" d="M2426.32 1488.57l34.98 -157.86 -63.9 -1.5c3.28,26.53 8.96,54.13 13.64,80.1 4.58,25.38 8.77,55.52 15.28,79.26z"/>
   <path class="fil35" d="M3069.77 1291.94l67.73 0.17c1.55,-0.47 44.52,-42.22 47.98,-50.35 -7.39,-7.08 -31.79,-32.82 -39.96,-37.25 -5.1,3.24 -4.33,4.44 -9.61,10.02l-47.95 52.98c-6.28,6.6 -15.97,14.19 -18.19,24.43z"/>
   <path class="fil35" d="M3317.92 1241.76c2.96,5.5 29.68,31.3 38.31,39.2 23.12,21.15 34.45,9.39 77.77,10.86 -3.74,-9.24 -72.22,-84.76 -78.59,-88.46 -6.92,5.23 -32.46,30.54 -37.49,38.4z"/>
   <path class="fil35" d="M2050.03 1480.22c6.61,-2.46 13.65,-15.91 18.35,-22.33 25.56,-34.98 112.38,-147.1 126.5,-173.62l-47.21 -0.3 -97.64 196.25z"/>
   <path class="fil35" d="M1861.78 1286.89l104.6 145.56c6.18,8.78 28.43,43.38 34.57,47.53 -3.48,-11.05 -37.49,-81.44 -45.6,-98.97 -17.92,-38.79 -31,-61.66 -48.66,-96.85 -10.45,0.16 -38.94,-3.4 -44.91,2.73z"/>
   <path class="fil35" d="M4387.96 1284.42l126.92 0.77c-3.39,-6.51 -30.16,-36.69 -37.97,-45.03 -3.29,-3.52 -5.78,-5.35 -8.79,-8.78 -5,-5.72 -9.93,-13.29 -16.81,-17.77 -7.4,5.66 -9.94,10.79 -15.86,17.11 -6.32,6.74 -10.53,11.69 -16.1,17.55 -8.67,9.12 -26.34,25.89 -31.39,36.15z"/>
   <path class="fil35" d="M2039.9 1478.77c4.53,-1.55 1.15,0.72 4.29,-3.4 9.53,-12.5 60.07,-123.85 68.21,-141.64 6.75,-14.76 19.79,-36.3 24.14,-49.78l-39.45 -0.02c-10.69,27.84 -20.4,67.97 -29.1,98.29 -3.55,12.35 -29.57,92.45 -28.09,96.55z"/>
   <path class="fil35" d="M4044.32 1339.74l-0.02 -67.47c-27.6,-11.02 -93.28,-40.41 -116.74,-45.94 4.67,7.8 85.16,86.43 99.89,101.19 4.88,4.9 8.79,11.31 16.87,12.22z"/>
   <path class="fil35" d="M1473.55 1311.31l66.83 -0.03c8.6,-19.1 33.81,-55.65 38.41,-69.57 -14.43,-0.46 -29.16,-0.1 -43.65,-0.22 -14.47,-0.13 -11.34,0.4 -25.28,18.44 -6.82,8.82 -34.23,42.91 -36.31,51.38z"/>
   <path class="fil35" d="M1679.41 1242.64c1.13,6.29 35.16,63.6 40.05,68.23l64.63 0.44c-3.24,-9.03 -36.19,-51.06 -46.07,-63.79 -4.68,-6.01 -4.33,-6.83 -15.24,-7.13 -13.79,-0.38 -29.31,1.68 -43.37,2.25z"/>
   <path class="fil35" d="M4071.1 1354.05l69.31 -0.24c6.26,-18.82 15.24,-40.04 23.3,-58.48 4.35,-9.96 22.23,-50.87 22.84,-59.29 -3.81,1.89 -50.45,50.29 -57.98,57.87 -11.09,11.17 -52.08,50.02 -57.47,60.14z"/>
   <path class="fil35" d="M4058.15 1445.15c4.35,6.58 106.43,48.08 115.5,50.71 -0.69,-5.69 -21.38,-24.5 -26.77,-29.87l-71.96 -72.21c-4.69,-4.68 -9.6,-12.04 -16.26,-14.06l-0.51 65.43z"/>
   <path class="fil35" d="M4058.78 1273.79l0.31 66.58c18.24,-11.73 66.44,-64.32 87,-85.01 4.97,-5 26.02,-25 28.34,-29.73 -14.83,3.66 -42.66,16.93 -58.57,23.6 -13.86,5.81 -45.41,16.81 -57.08,24.56z"/>
   <path class="fil35" d="M3928.47 1495.05l115.86 -46.62c0.01,-15.92 2.26,-54.92 -1.23,-67.41 -3.77,-1.22 -21.9,20.49 -28.26,26.63 -10.91,10.57 -19.13,18.34 -29.22,28.44 -9.98,9.98 -53.16,50.54 -57.15,58.96z"/>
   <path class="fil35" d="M4186.99 1482.09l-46.59 -113.73 -68.77 -0.19c0.99,5.13 1.39,4.47 4.87,7.98l22.15 21.14c17.39,15.93 76.29,78.41 88.34,84.8z"/>
   <path class="fil35" d="M3917.45 1482.55c6.13,-2.84 10.32,-8.87 15,-13.11l43.69 -42.82c8.99,-9.63 54.09,-53.06 57.18,-58.49l-65.87 -0.26c-4.67,1.38 -22.93,48.83 -25.97,56.13 -6.47,15.54 -20.7,44.11 -24.03,58.55z"/>
   <path class="fil35" d="M3963.97 1353.93l67.93 0.11c-3.59,-6.76 -8.99,-10.41 -13.78,-15.58 -12.22,-13.2 -94.47,-96.6 -101.31,-101.15l47.16 116.62z"/>
   <path class="fil35" d="M1661.38 1454.97c7.08,-3.6 23.01,-24.42 30.04,-31.17l58.45 -64.9c5.4,-6.04 9.46,-10.93 14.34,-16.07 3.13,-3.31 12.4,-12.85 13.98,-16.97l-58.73 -0.1 -58.08 129.21z"/>
   <path class="fil35" d="M1595.9 1454.72l-57.81 -128.88 -58.3 0.05c3.15,7.6 107.3,122.07 116.11,128.83z"/>
   <path class="fil35" d="M2393.82 1456.73c-4.41,-19.96 -14.26,-44.12 -20.52,-64.29 -3.22,-10.41 -16.18,-57.97 -22.57,-63.06l-53.42 0.01c5.46,11.54 90.88,124.21 96.51,127.34z"/>
   <path class="fil35" d="M3210.51 1243.36c3.45,4.93 6.01,4.98 11.07,8.88l20.86 19.18c3.93,3.52 6.53,7.2 10.39,10.04l40.1 -39.18c-3.34,-6.27 -34.44,-34.57 -43.26,-39.05 -2.91,1.39 -37.18,34.23 -39.16,40.13z"/>
   <path class="fil35" d="M2008.76 1478.17c-0.11,-12.04 -22.89,-79.93 -28.09,-96.77 -9.95,-32.25 -19.43,-65.08 -28.8,-97.48l-30.49 0.06c2.31,12.9 67.71,151.43 81.28,182.65 1.92,4.41 5.11,8.79 6.1,11.54z"/>
   <path class="fil35" d="M2461.28 1455.33l97.81 -125.71 -46.54 -0.27c-5.59,1.48 -12.64,23.89 -14.8,29.23 -4.43,11 -8.44,21.02 -12.8,31.98 -7.34,18.47 -19.46,46.46 -23.67,64.77z"/>
   <path class="fil35" d="M4467.76 1211.62c5.97,8.46 54.66,63.3 62.27,66.92l20.48 -67.8c-14.09,-1.07 -72.68,-2 -82.75,0.88z"/>
   <path class="fil35" d="M4352.98 1211.24c1.8,10.36 6.89,23.64 10.02,33.85l7.73 25.99c1.67,5.27 0.83,4.35 3.84,7.39l46.35 -49.46c3.37,-3.37 13.17,-13.71 13.57,-18.4 -8.84,-0.71 -77.68,-1.09 -81.51,0.63z"/>
   <path class="fil35" d="M4282.91 1285.18l80.32 -0.14 -20.54 -69.28c-4.6,2.27 -12.16,12.23 -15.85,16.9l-37.12 42.94c-5.08,5.32 -5.4,2.54 -6.81,9.58z"/>
   <path class="fil35" d="M4539.31 1284.69l80.53 0.51c-7.4,-13.4 -31.7,-37.59 -43.92,-52.69l-16.03 -16.63 -20.58 68.81z"/>
   <path class="fil35" d="M3605.65 1294.34l91.41 0.39c-6.38,-13.52 -36.4,-46.97 -46.84,-53.66l-11.43 13.31c-10.32,12.06 -25.78,26.72 -33.14,39.96z"/>
   <path class="fil35" d="M2788.44 1298.05c45.54,0.79 43.27,1.97 85.56,-1.55l-21.87 -27.14c-5.99,-8.18 -16.77,-22.3 -24.51,-26.16 -7.43,18.99 -30.31,34.04 -39.18,54.85z"/>
   <path class="fil35" d="M3717.51 1287.13l4.68 -5.48c1.34,-2.02 3.01,-5 4.25,-6.95 3.06,-4.83 4.9,-7.72 8.26,-12.57 5.21,-7.53 12.6,-17.51 15.45,-27.41l-77.47 0c4.7,10.97 36.05,47.47 44.83,52.41z"/>
   <path class="fil35" d="M3587.73 1287.07c5.47,-4.52 40.4,-45.63 43.8,-52.35l-78.82 0.25c3.13,8.21 21.89,36.67 29.11,46.29l5.91 5.81z"/>
   <path class="fil35" d="M2857.27 1238.96c2.19,4.61 6.19,8.02 9.6,12.46 3.72,4.83 6.89,8.54 10.69,13.33 5.74,7.24 14.94,19.95 22.72,23.65 4.95,-7.03 27.96,-46.38 28.32,-51.96 -21.84,0.02 -51.62,-2.57 -71.33,2.52z"/>
   <path class="fil35" d="M2766.24 1288.56c9.41,-19.71 35.61,-43.07 38.8,-52.08l-70.89 -0.08c0.48,6.57 9.7,21.08 13.25,27.13l12.66 19.33c3.67,4.62 1.48,3.08 6.18,5.7z"/>
   <path class="fil35" d="M3500.98 1294.75l66.17 -0.17c1.73,-6.09 -7.66,-17.68 -13.56,-26.7 -6.86,-10.48 -10.18,-16.49 -18.73,-24.04 -2.91,2.49 -31.88,45.74 -33.88,50.91z"/>
   <polygon class="fil35" points="3733.1,1294.38 3739.94,1294.83 3796.01,1294.8 3802.07,1294.45 3767.83,1242.37 "/>
   <path class="fil35" d="M2084.96 1227.47c19.61,11.35 48.8,37.66 59.09,41.99 4.04,-6.86 13.37,-36.25 14.38,-45 -14.84,-0.15 -64.08,-3.03 -73.47,3.01z"/>
   <path class="fil35" d="M2920.33 1298.63l61.07 0.04c-3.15,-10.23 -25.05,-43.99 -31.45,-51.57 -0.99,0.9 -0.87,0.63 -2.12,2.49 -0.77,1.14 -0.99,1.57 -1.75,2.98 -7.59,14.1 -22.75,37.1 -25.75,46.06z"/>
   <path class="fil35" d="M2678.54 1298.6l61.12 0c-3.32,-8.51 -9.64,-18.41 -14.2,-25.94 -2.52,-4.14 -4.37,-7.38 -7.41,-11.82 -1.12,-1.63 -2.86,-4.25 -3.91,-5.68 -3.9,-5.29 -0.88,-3.06 -6.12,-5.55 -4.34,5 -27.58,42.39 -29.48,48.99z"/>
   <path class="fil35" d="M3268.85 1291.83l75.64 -0.05c-2.87,-5.76 -14.6,-14.66 -19.29,-19.82 -4.37,-4.81 -13.82,-14.16 -21.06,-17.78 -8.02,4.71 -12.49,11.8 -18.1,17.53 -4.8,4.9 -15.12,11.83 -17.19,20.12z"/>
   <path class="fil35" d="M3164.18 1292.12l72.04 -0.01c-4.55,-9.98 -28.9,-32.54 -39.19,-37.07 -9.84,11.17 -30.71,29.27 -32.85,37.08z"/>
   <path class="fil35" d="M1997.62 1225.98c2.36,7.97 21.04,38.16 26.26,43.48 5.28,-4.47 27.88,-41.69 28.88,-45 -18.45,-0.22 -37.37,-1.43 -55.14,1.52z"/>
   <path class="fil35" d="M1899.46 1226.55l10.34 36.15c7.18,-1.81 21.5,-13.29 27.45,-17.55 6.37,-4.56 22.61,-15.28 25.95,-20.66 -18.68,-0.27 -46.59,-2.17 -63.74,2.06z"/>
   <path class="fil35" d="M1963.1 1272.66c18.21,-0.32 32.31,1.41 50.05,-1.61 -4.41,-11.45 -20.17,-37.42 -26.44,-46.12 -3.7,4.44 -22.32,41.4 -23.61,47.73z"/>
   <path class="fil35" d="M1858.09 1272.83l44.47 -0.03c-1.16,-16.03 -6.63,-35.09 -12.17,-47.88 -5.42,6.1 -29.97,40.05 -32.3,47.91z"/>
   <path class="fil35" d="M2035.82 1270.08l48.17 0.3 -19.26 -41.99c-1.67,-2.21 -0.98,-1.38 -2.4,-2.57 -4.71,5.84 -24.09,38.46 -26.51,44.26z"/>
   <path class="fil35" d="M3196.21 1230.62c8.73,-2.79 29.43,-22.7 31.48,-31.87l-61.99 0.18c0.58,4.29 22.11,21.35 30.51,31.69z"/>
   <path class="fil35" d="M3272.68 1198.88c2.52,5.32 2.42,4.54 7.82,8.92 8.49,6.88 16.56,17.66 23.64,21.08 7.15,-5.01 27.72,-22.45 28.65,-30.18l-60.11 0.18z"/>
   <path class="fil35" d="M2153.52 1270.13c12.96,0.52 32.99,3.59 42.44,-2.46 -6.24,-10.06 -20.44,-31.29 -29.48,-35.47l-12.96 37.93z"/>
   <path class="fil35" d="M2475.7 1267.1c3.91,-3.21 20.88,-27.48 23.23,-32.19l-47.75 -0.28c0.41,5.59 18.89,27.39 24.52,32.47z"/>
   <path class="fil35" d="M2379.56 1267.35c3.88,-3.56 21.95,-27.69 23.47,-32.52l-46.95 -0.19c2.1,8.49 18.66,27.35 23.48,32.71z"/>
   <path class="fil35" d="M2501.43 1291.11l47.05 -0.04c-5.31,-9.71 -16.5,-26.2 -24.72,-29.6 -4,3.67 -21.12,24.78 -22.33,29.64z"/>
   <path class="fil35" d="M2308.08 1290.93l47.91 0.24c-3,-6.04 -19.2,-27.12 -24.49,-30.36 -5.88,6.61 -19.89,22.73 -23.42,30.12z"/>
   <path class="fil35" d="M2403.89 1297.64l7.72 0.17 39.29 -0.12c-3.97,-7.15 -17.05,-24.62 -23.27,-29.7 -4.36,3.59 -21.38,24.01 -23.74,29.65z"/>
   <g>
    <path class="fil36" d="M4517.18 2714.2l212.57 -1.66 -103.59 308.01 -108.98 -306.35zm-192 -0.16l146.04 -1.33 96.14 274.69 -242.18 -273.36zm476.84 -42.29c3.01,-16.41 51.14,-81.16 61.5,-96.91l64.84 97.33 -126.34 -0.42zm-265.07 0.21c6.5,-15.05 75.66,-93.23 89.14,-101.96l85.13 102.24 -174.27 -0.28zm-216.97 -0.77c21.15,-30.06 43.88,-66.97 66.36,-96.05 11.33,17.1 56.8,82.13 59.63,97.09l-125.99 -1.04zm353.4 -115.27l150.42 0.84 -66.71 100.2 -83.71 -101.04zm-247.59 -0.15l150.65 -0.13c-7.33,15.75 -75.81,94.33 -88.18,99.88l-62.47 -99.75zm379.3 296.66c28.2,15.05 34.86,25.09 56.06,-4.02l123.93 -141.16c12.86,-25.65 -30.86,-75.98 -58.37,-114.45 -11.91,-16.66 -24.35,-33.71 -35.25,-51.07 -19.96,-31.83 -24.21,-26.62 -61.84,-26.25 -118.4,1.18 -237.26,-0.03 -355.72,0.05 -79.37,0.06 -88.36,-18.87 -132.12,47.37 -94.68,143.34 -108.43,112.94 -21.88,209.85 27.95,31.3 55.87,62.73 83.03,94.71 53.01,62.39 108.78,126.21 163.31,187.33 35.45,39.73 48.43,81.61 91.94,27.49 66.89,-83.21 16.74,-26.69 17.66,-118.08 0.73,-72.81 36.51,-63.81 55.89,-123.5 11,-33.84 29.51,-98.56 44.7,-128.23l146.6 1.06 -117.94 138.9z"/>
    <path class="fil37" d="M4737.59 2958.28c-29.22,-10.4 -3.87,-64.68 44.57,-59.9 -2.47,29.03 -9.51,7.89 -28.13,27.15 -10.39,10.75 -6.74,20.1 -16.44,32.75zm-33.65 16.59c7.87,45.94 96.62,127.14 133.01,120.72 13.83,-2.45 63.77,-39.65 77.43,-50.3 74.01,-57.71 48.44,-148.1 1.23,-167.97 -52.64,-22.16 -70.39,25.06 -87.84,19.97 -21.95,-6.41 -42.5,-47.11 -90.33,-13.86 -29.98,20.86 -39.42,56.86 -33.5,91.44z"/>
   </g>
  </g>
 </g>
</svg>
