<?xml version="1.0" encoding="UTF-8"?>
<!DOCTYPE svg PUBLIC "-//W3C//DTD SVG 1.1//EN" "http://www.w3.org/Graphics/SVG/1.1/DTD/svg11.dtd">
<!-- Creator: CorelDRAW 2017 -->
<svg xmlns="http://www.w3.org/2000/svg" xml:space="preserve" width="50.7998mm" height="33.8666mm" version="1.1" style="shape-rendering:geometricPrecision; text-rendering:geometricPrecision; image-rendering:optimizeQuality; fill-rule:evenodd; clip-rule:evenodd"
viewBox="0 0 5079.98 3386.66"
 xmlns:xlink="http://www.w3.org/1999/xlink">
 <defs>
  <style type="text/css">
   <![CDATA[
    .str2 {stroke:#FEFEFE;stroke-width:8.82;stroke-miterlimit:22.9256}
    .str0 {stroke:#FEFEFE;stroke-width:7.62;stroke-miterlimit:22.9256}
    .str1 {stroke:#7A3E35;stroke-width:105.83;stroke-linecap:round;stroke-linejoin:round;stroke-miterlimit:22.9256}
    .fil21 {fill:none;fill-rule:nonzero}
    .fil12 {fill:#FEFEFE}
    .fil3 {fill:#2B2A29;fill-rule:nonzero}
    .fil15 {fill:#6D3931;fill-rule:nonzero}
    .fil16 {fill:#7A3E35;fill-rule:nonzero}
    .fil9 {fill:#9E9E9D;fill-rule:nonzero}
    .fil11 {fill:#D7BE9B;fill-rule:nonzero}
    .fil5 {fill:#E3C3B0;fill-rule:nonzero}
    .fil8 {fill:#E52A32;fill-rule:nonzero}
    .fil10 {fill:#E52D2E;fill-rule:nonzero}
    .fil0 {fill:#E7CBA5;fill-rule:nonzero}
    .fil4 {fill:#EB5F6A;fill-rule:nonzero}
    .fil20 {fill:#EF4448;fill-rule:nonzero}
    .fil1 {fill:#F1BC2C;fill-rule:nonzero}
    .fil2 {fill:whitesmoke;fill-rule:nonzero}
    .fil7 {fill:#FDD02C;fill-rule:nonzero}
    .fil6 {fill:#FEFEFE;fill-rule:nonzero}
    .fil22 {fill:url(#id2)}
    .fil14 {fill:url(#id3)}
    .fil19 {fill:url(#id4)}
    .fil18 {fill:url(#id5)}
    .fil13 {fill:url(#id6)}
    .fil17 {fill:url(#id7)}
    .fil23 {fill:url(#id8)}
   ]]>
  </style>
  <clipPath id="id0">
   <rect x="44381.85" y="-17128.61" width="4573.27" height="4630.43"/>
  </clipPath>
  <clipPath id="id1">
   <rect x="7347.15" y="-29118.47" width="4573.28" height="1565.24"/>
  </clipPath>
  <radialGradient id="id2" gradientUnits="userSpaceOnUse" gradientTransform="matrix(-4.96914 436.541 436.457 4.9701 -935566 -468546)" cx="1053.69" cy="2157.96" r="14.41" fx="1053.69" fy="2157.96">
   <stop offset="0" style="stop-opacity:1; stop-color:#F8ED3F"/>
   <stop offset="0.109804" style="stop-opacity:1; stop-color:#F8ED3F"/>
   <stop offset="1" style="stop-opacity:1; stop-color:#F79633"/>
  </radialGradient>
  <radialGradient id="id3" gradientUnits="userSpaceOnUse" gradientTransform="matrix(-0.215513 2.779 2.77899 0.215514 -1489 -5787)" xlink:href="#id2" cx="2548.32" cy="1650.49" r="721.51" fx="2548.32" fy="1650.49">
  </radialGradient>
  <radialGradient id="id4" gradientUnits="userSpaceOnUse" gradientTransform="matrix(0.0862588 1.43504 1.43505 -0.0862599 -870 -1177)" xlink:href="#id2" cx="2469.18" cy="2178.51" r="1566.29" fx="2469.18" fy="2178.51">
  </radialGradient>
  <radialGradient id="id5" gradientUnits="userSpaceOnUse" gradientTransform="matrix(-0.0911772 5.68946 5.68944 0.0911769 -3535 -13197)" xlink:href="#id2" cx="2495.21" cy="1099.91" r="672.84" fx="2495.21" fy="1099.91">
  </radialGradient>
  <radialGradient id="id6" gradientUnits="userSpaceOnUse" gradientTransform="matrix(-0.0839435 5.23808 5.23814 0.0839448 -2913 -12837)" xlink:href="#id2" cx="2643.58" cy="1103.17" r="730.86" fx="2643.58" fy="1103.17">
  </radialGradient>
  <radialGradient id="id7" gradientUnits="userSpaceOnUse" gradientTransform="matrix(-0.236266 3.0466 3.04663 0.236271 -1906 -6437)" xlink:href="#id2" cx="2526.77" cy="1651.01" r="658.3" fx="2526.77" fy="1651.01">
  </radialGradient>
  <radialGradient id="id8" gradientUnits="userSpaceOnUse" gradientTransform="matrix(-4.96852 436.418 437.549 4.98177 -947935 -477934)" xlink:href="#id2" cx="1075.23" cy="2181.13" r="14.41" fx="1075.23" fy="2181.13">
  </radialGradient>
 </defs>
<symbol id="Fm74-254-0" viewBox="103391.25 -193978.61 4571.98 2680.04">
 <path class="fil0" d="M103465.86 -191298.59c0,0 1365.17,6.97 1511.6,-302.97 146.78,-310.41 1201.19,-1758.44 1901.03,-1620.26 699.38,137.71 1084.74,-79.14 1084.74,-79.14l-359.92 -456.26 -1265.22 -221.39 -1638.27 1498.81 -1308.57 409.19 74.61 772.01 0 0.01z"/>
</symbol>
<symbol id="Fm46-192-0" viewBox="247399.98 -547654.04 4571.84 3394.78">
 <path class="fil0" d="M247405.77 -547654.04c0,0 -358.25,4253.08 4566.05,3238.3 0,0 -4246.53,-1592.29 -4566.05,-3238.3z"/>
</symbol>
<symbol id="Fm79-264-0" viewBox="151533.92 -319472.97 4571.98 1865.42">
 <path class="fil0" d="M151533.92 -317607.55c0,0 2466.47,-1438.3 3780.38,-1789.83l791.6 -75.59c0,0 -2055.24,596.06 -4571.98,1865.42z"/>
</symbol>
<symbol id="Fm48-196-0" viewBox="67469.21 -164397.96 4571.98 4350.48">
 <path class="fil1" d="M67976.15 -164397.96l385.24 499.92 791.72 1642.16c0,0 575.34,1013.7 1573.95,1523.3 998.9,510.07 1314.13,685.1 1314.13,685.1 0,0 -1850.29,-431.43 -2616.3,-1344.96 -766.39,-913.62 -1955.68,-2860.67 -1955.68,-2860.67l506.94 -144.85z"/>
</symbol>
<symbol id="Fm71-248-0" viewBox="203920.1 -390755.15 869 6053.66">
 <path class="fil0" d="M204785.05 -390681.06c0,0 66.74,4673.46 -342.09,5979.57 0,0 -29.69,-4782.76 -522.86,-6053.66l864.96 74.09 -0.01 0z"/>
</symbol>
<symbol id="Fm33-164-0" viewBox="169648.37 -489090.48 3265.42 6053.66">
 <path class="fil0" d="M169648.37 -487199.49c0,0 1676.64,2644.46 1438.04,4162.67l1827.38 -4566.65 -983.18 -1487.01 -2282.24 1890.99z"/>
</symbol>
<symbol id="Fm45-190-0" viewBox="87068.7 -204197.26 2594.8 6053.66">
 <path class="fil0" d="M87068.71 -201819.13c0,0 1446.63,2707.27 2594.79,3675.53 0,0 -965.38,-2447.66 -1131,-4212.24 0,0 -83.25,-1157.13 183.55,-1650l-166.84 -191.42c0,0 -1112.62,625.61 -1480.51,2378.13l0.01 0z"/>
</symbol>
<symbol id="Fm90-290-0" viewBox="95761.2 -224822.2 4571.98 852.23">
 <path class="fil0" d="M95761.2 -223969.97c0,0 3860.96,-110.32 4571.98,-852.23 0,0 -1106.65,591.41 -4536.91,650.43l-35.07 201.8z"/>
</symbol>
<symbol id="Fm27-150-0" viewBox="305425.5 -803636.89 2249.73 6053.66">
 <path class="fil0" d="M306121.13 -803636.89c0,0 -1317.74,3884.2 -325.88,6053.66 0,0 1096.44,-5786.35 1879.98,-5624.03l-1554.1 -429.63z"/>
</symbol>
<symbol id="Fm55-212-0" viewBox="352359.75 -1030930.16 4571.95 3114.24">
 <path class="fil0" d="M352397.14 -1027815.92l3735.67 -430.42 798.89 -2421.83 -462.04 -261.99 -2588.32 1511.3c0,0 -1801.04,805.98 -1484.2,1602.94z"/>
</symbol>
<symbol id="Fm7-244-0" viewBox="62843.23 -48098.13 4571.98 4571.62">
 <path class="fil2" d="M67415.21 -45812.32c0,1262.6 -1023.57,2285.81 -2285.81,2285.81 -1262.6,0 -2286.17,-1023.21 -2286.17,-2285.81 0,-1262.6 1023.57,-2285.81 2286.17,-2285.81 1262.23,0 2285.81,1023.21 2285.81,2285.81z"/>
</symbol>
<symbol id="Fm60-224-0" viewBox="435813.09 -1416499.01 2500.33 6053.66">
 <path class="fil0" d="M437327.63 -1416499.01c0,0 -2194.73,4874.29 985.79,4780.2l-776.98 1273.46c0,0 -1726.93,-1055.69 -1723.34,-1962.62 0,-910.51 1514.54,-4091.04 1514.54,-4091.04l-0.01 0z"/>
</symbol>
<symbol id="Fm53-208-0" viewBox="310761.13 -636160.76 4551.93 6053.36">
 <path class="fil1" d="M313444.25 -635488.21c0,0 -616.78,4281.31 -2013.49,5036.36 -1397.09,753.55 -174.45,35.79 -174.45,35.79 0,0 3223.32,-1100.56 3708.61,-2347.31l348.14 -3134.02 -53.13 -263.37c0,0 -1391.43,151.46 -1815.68,672.55z"/>
</symbol>
<symbol id="Fm19-132-0" viewBox="62857.54 -184484.98 4461.19 6053.67">
 <path class="fil0" d="M63184.83 -183785.05c0,0 -831.72,1399.08 156.61,2783.58 988.66,1384.61 3195.96,2570.16 3195.96,2570.16l781.33 -749.01 -2820.48 -3017.91 -403.56 -2286.75 -909.87 699.92 0.01 0.01z"/>
</symbol>
<symbol id="Fm36-170-0" viewBox="661951.97 -1521886.92 4571.98 4942.03">
 <polygon class="fil0" points="661951.97,-1520039.06 664664.88,-1516944.89 666523.95,-1519976.59 663124.6,-1521886.92 "/>
</symbol>
<symbol id="Fm30-158-0" viewBox="116972 -323212.62 1499.35 6053.66">
 <path class="fil0" d="M116993.66 -323212.62c0,0 -138.87,3566.28 286.67,4588.58 425.21,1022.79 196.27,1465.08 196.27,1465.08 0,0 444.56,-870.76 981.98,-1258.57 0,0 114.8,92.85 -344.07,-698.72 -458.87,-791.08 -425.05,-1848.18 -425.05,-1848.18 0,0 -375.13,-1933.22 -695.79,-2248.19l-0.01 0z"/>
</symbol>
<symbol id="Fm107-94-0" viewBox="58018.92 -23207.85 4571.98 4571.98">
 <path class="fil2" d="M58018.92 -20921.84c0,-1262.53 1023.47,-2286.01 2285.97,-2286.01 1262.53,0 2286.01,1023.47 2286.01,2286.01 0,1262.5 -1023.47,2285.97 -2286.01,2285.97 -1262.5,0 -2285.97,-1023.47 -2285.97,-2285.97z"/>
</symbol>
<symbol id="Fm42-184-0" viewBox="146434.73 -345888.93 4571.82 5974.5">
 <path class="fil0" d="M146436.73 -345884.92c-54.82,-162.29 1007.13,4650.18 4569.82,5970.49 0,0 -3471.91,-2723.34 -4569.82,-5970.49z"/>
</symbol>
<symbol id="Fm34-166-0" viewBox="95580.16 -259105.12 4553.71 6053.66">
 <path class="fil0" d="M95580.17 -259105.12c0,0 475.94,1428.45 777.89,2766.05 200.92,890.27 324.64,1739.95 179.52,2101.83 0,0 792.97,-428.25 1813.15,-142.28 1020.18,286.36 1566.74,1328.06 1566.74,1328.06 110.96,-504.29 216.38,-2519.25 216.38,-2519.25 4.51,-555.58 -1017.08,-580.97 -1428.07,-966.05 -410.98,-385.08 -2136.37,234.94 -2136.37,234.94l-989.25 -2803.3 0.01 0z"/>
</symbol>
<symbol id="Fm25-146-0" viewBox="309816.54 -565490.81 4571.98 3191.07">
 <path class="fil0" d="M314388.52 -562299.74c-1212.5,-1451.02 -4571.98,-3191.07 -4571.98,-3191.07l4571.98 3191.07z"/>
</symbol>
<symbol id="Fm93-304-0" viewBox="51238.87 -61772.75 4571.98 4571.98">
 <path class="fil2" d="M51238.87 -59486.76c0,-1262.55 1023.52,-2285.99 2285.99,-2285.99 1262.47,0 2285.99,1023.44 2285.99,2285.99 0,1262.47 -1023.52,2285.99 -2285.99,2285.99 -1262.47,0 -2285.99,-1023.52 -2285.99,-2285.99z"/>
</symbol>
<symbol id="Fm13-120-0" viewBox="24450.28 -48230.67 4571.98 4571.98">
 <path class="fil2" d="M29022.26 -45944.68c0,1262.58 -1023.52,2285.99 -2285.99,2285.99 -1262.47,0 -2285.99,-1023.41 -2285.99,-2285.99 0,-1262.47 1023.52,-2285.99 2285.99,-2285.99 1262.47,0 2285.99,1023.52 2285.99,2285.99z"/>
</symbol>
<symbol id="Fm77-260-0" viewBox="230760.68 -525453.4 1039.25 6053.66">
 <path class="fil0" d="M231799.93 -524498.29c0,0 -101.86,3305.83 -1039.25,5098.55 0,0 1022.72,-3030.08 890.45,-6053.66l148.8 955.11z"/>
</symbol>
<symbol id="Fm62-228-0" viewBox="570096.15 -1828444.59 4571.98 1235.73">
 <polygon class="fil0" points="570096.15,-1828011.04 574668.13,-1827208.86 573110.13,-1828444.59 "/>
</symbol>
<symbol id="Fm87-282-0" viewBox="84823.13 -202757.4 4055.46 6053.66">
 <polygon class="fil0" points="84894.41,-197111.25 84823.13,-196703.74 87048.67,-199851.61 88878.59,-202757.4 86222.16,-200655.9 "/>
</symbol>
<symbol id="Fm4-178-0" viewBox="24276.46 -6426.84 4571.98 4572">
 <path class="fil2" d="M28848.44 -4140.84c0,1262.48 -1023.53,2286 -2286,2286 -1262.48,0 -2285.98,-1023.53 -2285.98,-2286 0,-1262.48 1023.5,-2286 2285.98,-2286 1262.48,0 2286,1023.53 2286,2286z"/>
</symbol>
<symbol id="Fm38-174-0" viewBox="193726.87 -430169.1 4571.99 5757.72">
 <path class="fil0" d="M198298.85 -430169.1c0,0 -2557.9,4264.57 -4571.98,4772.17 0,0 267.7,686.54 682.34,985.55 0,0 -210.24,-263.73 -49.52,-709.44 0,0 1051.66,-412.77 1419.11,-754.05 366.75,-341.99 1901.25,-2049.59 2520.06,-4294.23l-0.01 0z"/>
</symbol>
<symbol id="Fm54-210-0" viewBox="308683.41 -592199.4 2280.91 6053.53">
 <path class="fil1" d="M308683.41 -591363.17c0,0 119.99,2908.45 2280.91,5217.3 0,0 -1765.49,-3821.1 -1363.6,-5396.75 401.88,-1576.01 -917.31,179.45 -917.31,179.45z"/>
</symbol>
<symbol id="Fm50-202-0" viewBox="229846.61 -507927.28 4571.98 1089.14">
 <path class="fil1" d="M229846.61 -507927.28c0,0 3035.45,1027.29 4571.98,974.81 0,0 -2839.82,606.6 -4571.98,-974.81z"/>
</symbol>
<symbol id="Fm110-102-0" viewBox="71813.59 -51375.69 4571.98 4572.02">
 <path class="fil2" d="M71813.59 -49089.68c0,-1262.48 1023.49,-2286.01 2285.97,-2286.01 1262.52,0 2286.01,1023.54 2286.01,2286.01 0,1262.48 -1023.49,2286.01 -2286.01,2286.01 -1262.48,0 -2285.97,-1023.54 -2285.97,-2286.01z"/>
</symbol>
<symbol id="Fm3-156-0" viewBox="34327.72 -22079.49 4571.98 4571.98">
 <path class="fil2" d="M38899.7 -19793.48c0,1262.5 -1023.47,2285.97 -2286.01,2285.97 -1262.5,0 -2285.97,-1023.47 -2285.97,-2285.97 0,-1262.53 1023.47,-2286.01 2285.97,-2286.01 1262.53,0 2286.01,1023.47 2286.01,2286.01z"/>
</symbol>
<symbol id="Fm20-136-0" viewBox="229163.54 -614086.1 3941.51 6053.66">
 <path class="fil0" d="M233105.05 -614086.1c0,0 -2130.85,4423.5 -3941.5,6053.66l3941.5 -6053.66z"/>
 <path class="fil3" d="M233104.74 -614086.1c0,0 -162.1,425.93 -447.38,1045.51 -285.58,620.5 -715.8,1422.41 -1185.85,2202.86 -484.45,770.96 -1013.95,1516.79 -1478.79,2022.69 -461.78,508.97 -829.18,782.6 -829.18,782.6 0,0 313.47,-331.85 711.2,-878.82 401.11,-544.82 902.72,-1294.02 1366.33,-2068.04 482.31,-764.21 933.05,-1548.96 1282.07,-2132.69 349.32,-583.73 581.59,-974.11 581.59,-974.11l0.01 0z"/>
</symbol>
<symbol id="Fm103-86-0" viewBox="515498.35 -618612.96 4571.79 4452.41">
 <path class="fil4" d="M518816.08 -615053.09c0,0 -641.25,-50.89 -382,-878.8 259.49,-827.67 -825.99,-906.78 -1047.13,-416.01 -222.11,490.04 -1060.16,128.54 -811.76,-441.57 248.4,-570.83 1135.88,-1642.81 199.2,-1801.01 -937.64,-157.48 -1258.39,564.08 -1258.39,564.08 0,0 -238.99,1677.78 1042.31,3651.46l1310.97 214.39 2200.86 -599.77c0,0 -224.52,-247.68 -1254.05,-292.77l-0.01 0z"/>
</symbol>
<symbol id="Fm26-148-0" viewBox="245794.37 -675597.86 4571.83 5794.78">
 <path class="fil0" d="M245794.37 -674490.38c0,0 3626.57,2329.23 4051.99,4687.3 0,0 1177.1,-3350.23 -11.25,-5794.78l-4040.74 1107.49 0 -0.01z"/>
</symbol>
<symbol id="Fm70-246-0" viewBox="136588.61 -262878 4571.83 4056.82">
 <path class="fil0" d="M140398.3 -262878c0,0 -3366.23,927.99 -3809.69,4056.82 0,0 1820.58,-2298.2 3220.18,-2965.79 1398.89,-667.76 1351.45,-754.5 1351.45,-754.5l-761.94 -336.53z"/>
</symbol>
<symbol id="Fm14-122-0" viewBox="36342.24 -79092.28 4571.98 4571.98">
 <path class="fil2" d="M40914.22 -76806.31c0,1262.48 -1023.49,2286.01 -2286.01,2286.01 -1262.48,0 -2285.97,-1023.54 -2285.97,-2286.01 0,-1262.48 1023.49,-2285.97 2285.97,-2285.97 1262.52,0 2286.01,1023.49 2286.01,2285.97z"/>
</symbol>
<symbol id="Fm66-236-0" viewBox="71634.14 -140771.17 1372.82 6053.62">
 <path class="fil0" d="M73006.96 -140771.17c0,0 -294.04,1643.94 -210.6,1915.53 83.81,271.86 -981.56,2020.23 -941.45,2211.24 40.11,190.73 -70.42,1240.4 -70.42,1240.4 0,0 -9.15,844.33 987.75,245.16 0,0 -196.27,356.6 -418.61,411.77 -222.24,55.35 -547.33,74.94 -666.63,-336.09 -119.3,-411.49 0.65,-1166.47 0.65,-1166.47l-1.94 -479.51 302.17 -1061.77 382.75 -1065.65 75.59 -47.96 33.64 -243.5c0,0 72.36,-701.93 249.69,-951.25 177.7,-249.41 277.41,-671.9 277.41,-671.9z"/>
</symbol>
<symbol id="Fm52-206-0" viewBox="118214.12 -246980.54 4571.98 567.26">
 <path class="fil1" d="M122786.1 -246980.54c0,0 -4165.77,441.02 -4571.98,435.22 0,0 2300.05,262.92 3055.92,46.72 755.42,-216.35 1516.06,-481.94 1516.06,-481.94z"/>
</symbol>
<symbol id="Fm67-238-0" viewBox="299002.83 -552799.62 1057.19 6053.66">
 <polygon class="fil0" points="299002.83,-552799.62 299549.97,-549429.03 299033.48,-547521.63 299887.86,-546745.96 300060.02,-549481.25 "/>
</symbol>
<symbol id="Fm31-160-0" viewBox="241687.03 -761374.01 2958.28 6053.66">
 <path class="fil0" d="M241687.03 -760752.5c0,0 2027.87,1357.09 2156.34,5432.15 0,0 866.32,-5103.2 798.11,-6053.66l-2954.45 621.51z"/>
</symbol>
<symbol id="Fm59-220-0" viewBox="344041.68 -1111075.27 3134.59 6053.63">
 <path class="fil0" d="M345213.38 -1111075.27c0,0 -1828.23,853.12 -917.29,2529.76 910.23,1673.82 877.8,3275.72 1864.89,3499.93 984.97,223.5 1015.29,-1191.55 1015.29,-1191.55 0,0 -2311.19,-1395.32 -1962.89,-4838.13l0 -0.01z"/>
</symbol>
<symbol id="Fm95-308-0" viewBox="58000.19 -73613.44 4571.98 4571.98">
 <path class="fil2" d="M58000.19 -71327.47c0,-1262.5 1023.47,-2285.97 2285.97,-2285.97 1262.53,0 2286.01,1023.47 2286.01,2285.97 0,1262.53 -1023.47,2286.01 -2286.01,2286.01 -1262.5,0 -2285.97,-1023.47 -2285.97,-2286.01z"/>
</symbol>
<symbol id="Fm88-284-0" viewBox="125921.57 -281847.2 1767.27 6053.66">
 <path class="fil0" d="M125921.57 -280812.96c0,0 2036.58,2665.19 1716.71,5019.42 0,0 289.9,-3085.95 -518.68,-4401.34 0,0 -815.4,-1455.44 -1154.56,-1652.32l-43.47 1034.24z"/>
</symbol>
<symbol id="Fm1-76-0" viewBox="24276.46 -18233.64 4571.98 4571.98">
 <path class="fil2" d="M28848.44 -15947.66c0,1262.48 -1023.53,2286 -2286,2286 -1262.48,0 -2285.98,-1023.53 -2285.98,-2286 0,-1262.48 1023.5,-2285.98 2285.98,-2285.98 1262.48,0 2286,1023.5 2286,2285.98z"/>
</symbol>
<symbol id="Fm16-126-0" viewBox="63400.11 -181588.42 4571.98 4571.7">
 <path class="fil2" d="M67972.09 -179302.57c0,1262.62 -1023.6,2285.85 -2285.85,2285.85 -1262.62,0 -2286.13,-1023.23 -2286.13,-2285.85 0,-1262.62 1023.5,-2285.85 2286.13,-2285.85 1262.26,0 2285.85,1023.23 2285.85,2285.85z"/>
</symbol>
<symbol id="Fm73-252-0" viewBox="219812.63 -405930.02 4235.8 6053.66">
 <path class="fil0" d="M221361.44 -405930.02c0,0 394.52,4813.58 -1548.81,6053.66 0,0 987.64,-642.53 1765.61,-2207.81 778.71,-1566.02 1203.46,-2534.73 2212.73,-2346.44 1010.25,189.02 -1194.85,-1109.07 -2429.53,-1499.4l0 -0.01z"/>
</symbol>
<symbol id="Fm18-130-0" viewBox="68150.28 -138502.89 4571.98 2314.73">
 <path class="fil0" d="M68150.28 -137682.04c0,0 1771.19,1798.77 3352.53,1448.68 0,0 1049.2,-4.97 1219.45,-883.73l-2.22 -611.23 -4426.2 -774.57 -143.56 820.86 0 -0.01z"/>
</symbol>
<symbol id="Fm98-314-0" viewBox="71789.46 -114489.09 4571.98 4571.94">
 <path class="fil2" d="M71789.46 -112203.1c0,-1262.46 1023.53,-2285.99 2285.99,-2285.99 1262.46,0 2285.99,1023.53 2285.99,2285.99 0,1262.46 -1023.53,2285.95 -2285.99,2285.95 -1262.46,0 -2285.99,-1023.48 -2285.99,-2285.95z"/>
</symbol>
<symbol id="Fm96-310-0" viewBox="51238.87 -73579.51 4571.98 4571.98">
 <path class="fil2" d="M51238.87 -71293.52c0,-1262.55 1023.52,-2285.99 2285.99,-2285.99 1262.47,0 2285.99,1023.44 2285.99,2285.99 0,1262.47 -1023.52,2285.99 -2285.99,2285.99 -1262.47,0 -2285.99,-1023.52 -2285.99,-2285.99z"/>
</symbol>
<symbol id="Fm69-242-0" viewBox="466958.06 -850681.13 2340.8 6053.66">
 <polygon class="fil0" points="466958.06,-850681.13 468230.74,-845890.27 468646.83,-844627.47 469298.86,-847958.53 "/>
</symbol>
<symbol id="Fm113-116-0" viewBox="1199414.01 -528770.94 4571.98 4571.98">
 <path class="fil5" d="M1203985.99 -524198.96c0,0 -4154.41,-894.38 -4571.98,-4571.98l4571.98 4571.98z"/>
</symbol>
<symbol id="Fm17-128-0" viewBox="5591.57 -26733.87 4571.98 3834.52">
 <path class="fil3" d="M7490.55 -24140.48c-90.2,-33.57 -168.62,-62.76 -253.08,-94.21 -15.03,39.19 -25.39,74.64 -41.81,107.07 -26.96,53.46 -5.42,85.83 41.86,107.9 68.57,32.07 137.97,62.45 218.12,98.52 12.67,-79.62 23.7,-148.74 34.91,-219.28zm-49.59 283.55c-94.34,-43.99 -188.9,-88.12 -290.8,-135.66 -6.18,38.92 -15.7,72.46 -15.66,105.99 0,31.94 -1.02,80.59 17.52,92.82 77.75,51.11 162.71,91.32 251.97,139.27 13.83,-75.62 24.95,-136.77 36.97,-202.42zm732.81 -263.09c-90.29,10.68 -171.05,20.2 -251.78,29.7l0 237.08c99.05,-12.72 191.02,-24.56 285.01,-36.61 -12.54,-86.64 -22.33,-154.51 -33.23,-230.17zm333.72 -105.64c-99.98,34.38 -190.85,65.61 -273.98,94.21 16.37,76.73 30.86,144.65 47.37,222.21 84.42,-32.73 166.08,-61.6 244.77,-97.18 17.16,-7.74 36.07,-41.98 32.5,-59.6 -10.72,-53.15 -32.15,-104.08 -50.66,-159.64zm-222.83 377.45c7.92,66.9 16.1,135.93 25.58,215.85 65.37,-29.12 122.57,-49.94 175.29,-78.9 172.93,-95.14 149.09,-45.99 115.77,-235.82 -0.39,-2.22 -3.06,-4.05 -9.96,-12.68 -97.59,35.5 -197.88,71.97 -306.67,111.55l-0.01 0zm-364.76 291.33c118.67,-20.24 226.7,-38.66 332.16,-56.66 -16.59,-82.56 -29.84,-148.24 -43.72,-217.18 -98.43,13.34 -192.09,26.01 -288.43,39.05l0 234.8 -0.01 -0.01zm-69.88 -294.01c0,-79.78 1.78,-143.07 -1.42,-206.1 -0.67,-13.21 -18.28,-35.14 -30.25,-36.7 -85.67,-11.38 -171.96,-18.5 -260.91,-27.26 -8.5,62.45 -19.04,117.29 -21.66,172.49 -0.84,17.25 16.95,48.43 30.69,51.24 90.11,18.23 181.38,30.42 283.55,46.33zm-5.03 293.25l0 -231.65c-115.37,-16.1 -224.93,-31.36 -342.04,-47.72 -7.6,69.84 -14.94,137.17 -23.53,216.12 125.88,21.79 242.13,41.9 365.57,63.24l0 0.01zm49.15 -1684.91c573.58,0 1147.18,0 1720.76,0 21.31,0 46.96,7.38 63.03,-1.87 26.46,-15.22 46.7,-41.19 69.56,-62.67 -22.01,-19.74 -41.54,-44.17 -66.9,-57.59 -16.72,-8.85 -41.81,-1.97 -63.15,-1.97 -1147.13,-0.04 -2294.3,-0.04 -3441.43,-0.04 -18.68,0 -37.41,0.76 -56.04,0.09 -52.75,-2 -62.67,32.91 -60.27,73.6 3.59,60.58 50.87,50.31 89.71,50.31 581.59,0.23 1163.14,0.18 1744.73,0.14zm1530.57 -1010.27c-14.06,16.77 -22.64,30.2 -34.21,40.26 -101.09,87.84 -202.24,175.64 -304.35,262.28 -42.35,35.93 -50.39,70.49 -23.22,123.73 42.48,83.17 73.83,172 113.86,267.98 164.13,-145.66 327.86,-290.98 490.6,-435.48 104.43,96.55 205.13,114.74 304.58,60.53 86.64,-47.28 129.34,-140.46 106.65,-243.61 -33.26,-151.27 -149.35,-176.62 -288.25,-172.39 21.98,-140.96 -14.18,-248.46 -157.62,-291.24 -102.04,-30.42 -203.76,-0.81 -263.76,96.16 -64.72,104.52 -41.63,208.16 55.73,291.77l-0.01 0.01zm-2830.66 705.11c34.12,-91.23 54.93,-177.65 97.18,-251.88 50.48,-88.77 8.2,-131.3 -53.86,-183.07 -104.66,-87.36 -203.57,-181.6 -304.14,-272.26 85.62,-136.33 107.68,-234.8 59.12,-293.34 -80.99,-97.62 -151.45,-138.59 -277.15,-100.96 -140.64,42.09 -169.29,152.66 -149.09,289.64 -40.87,0 -72.63,-2.94 -103.67,0.54 -107.07,11.91 -178.63,82.32 -187.13,184.58 -7.55,91.8 5.35,173.69 98.92,224.08 98.34,52.93 186.46,39.89 276.48,-19.44 18.41,-12.18 59.02,-11.74 77.03,0.72 42.83,29.67 77.84,70.54 116.89,105.94 114.71,103.99 229.82,207.53 349.42,315.44l0 0.01zm-108.34 1920.78c-119.07,-104.08 -242.19,-139.39 -372.37,-18.55 -71.25,66.14 -71.44,151.13 -43.06,227.95 44.75,121.15 153.63,148.42 271.59,144.5 8.76,181.07 51.68,255.63 165.33,289.69 86.41,25.88 203.39,-8.67 253.56,-74.99 60.76,-80.24 50.39,-203 -27.89,-318.15 67.12,-58.98 130.15,-124.1 202.74,-175.73 89.09,-63.39 119.25,-143.63 117.82,-249.7 -1.07,-78.51 15.04,-157.99 30.56,-235.65 10.1,-50.52 32.87,-98.52 49.99,-147.66 -4.63,-2.22 -9.25,-4.45 -13.88,-6.72 -208.28,185.53 -416.62,371.04 -634.38,565.01l-0.01 0zm2521.98 254.68c-136.47,197.07 -80.96,237.51 -18.42,327.44 45.68,65.7 155.99,91.63 239.92,65.74 114.35,-35.26 163.55,-116.89 171.77,-290.79 128.24,12.81 230.71,-32.69 276.88,-157.36 34.33,-92.74 -4.45,-193.62 -91.72,-249.22 -121.33,-77.34 -231.63,-36.55 -331.63,53.65 -214.86,-192.86 -426.22,-382.6 -636.17,-571.01 28.65,164.53 53.96,325.59 86.34,485.25 8.59,42.39 30.78,88.47 60.88,118.77 75.53,76.01 159.15,144.01 242.15,217.54l0 -0.01zm-1888.8 -356.23c-1.64,142.07 22.73,259.98 77.61,375.44 54.79,115.37 136.86,200.59 246.14,257.57 231.15,120.58 477.07,122.62 723.03,62.41 319.45,-78.19 487.57,-385.5 456.52,-660.28 -503.4,257.79 -1002.66,270.52 -1503.3,-35.14zm-320.64 -2081.92l2160.6 0c-170.7,-352.18 -537.11,-617.01 -994.56,-639.06 -510.88,-24.65 -904.68,177.02 -1166.04,639.06zm2290.35 643.95l-2402.17 0c0,23.03 -5.33,43.32 0.84,59.07 51.52,131.03 97.37,265.08 159.91,390.78 90.64,182.13 238.53,312.41 417.83,405.9 262.42,136.82 542.85,165.91 831.24,124.1 249.52,-36.21 477.56,-124.89 652.01,-316.24 73.57,-80.68 150.34,-163.01 202.91,-257.25 68.45,-122.71 135.52,-251.17 137.44,-406.35l-0.01 -0.01zm-463.5 882.35c210.06,189.12 416.93,375.35 627.13,564.61 103.32,-65.65 212.66,-83.31 327.36,-42.09 99.63,35.81 144.37,123.83 177.19,212.25 52.18,140.5 -86.15,305.02 -295.28,356.44 -3.78,132.28 -63.92,229.25 -195.31,274.35 -122.57,42.07 -232.93,13.34 -325.13,-70.33 -77.75,-70.54 -100.35,-174.71 -67.43,-265.52 35.09,-96.7 12.95,-150.34 -64.05,-201.63 -36.39,-24.19 -67.16,-56.75 -106.44,-90.65 -56.04,183.87 -125.3,353.21 -286.84,462.97 -194.5,132.19 -414.54,163.15 -641.28,145.58 -412.18,-31.99 -634.62,-240.14 -726.1,-619.77 -56.27,46.71 -110.89,90.79 -164.08,136.59 -36.25,31.18 -48.97,61.21 -28.33,115.92 62.22,165.14 -9.22,314.42 -171.03,382.23 -130.37,54.63 -335.04,-7.92 -382.41,-152.56 -12.63,-38.55 -30.39,-75.43 -51.29,-126.58 -73.39,-24.6 -157.54,-52.49 -221.05,-137.35 -124.54,-166.3 -3.73,-396.29 169.64,-438.73 84.6,-20.73 162.48,-12.18 239.16,29.72 18.76,10.28 55.87,15.38 68.4,4.4 205.81,-179.42 408.98,-361.87 604.69,-536.44 -99.55,-114.32 -197.76,-222.76 -290.57,-335.6 -44.3,-53.86 -89.36,-111.77 -114.67,-175.55 -42.56,-107.19 -67.29,-221.32 -105.28,-330.52 -7.39,-21.21 -40.84,-46.65 -62.94,-47.32 -144.06,-4.27 -288.66,3.43 -432.27,-5.65 -44.66,-2.85 -105.11,-35.01 -126.37,-72.05 -52.03,-90.69 10.41,-183.21 117.73,-185.39 136.1,-2.71 272.34,-0.23 408.53,0.05 25.83,0.04 51.73,0 102.39,0 -81.17,-77.05 -145.09,-139.71 -211.18,-199.97 -81.57,-74.46 -166.7,-145.04 -246.76,-221.05 -38.08,-36.16 -64.94,-54.4 -121.43,-23.58 -105.91,57.82 -255.4,31.76 -335.09,-44.34 -100.17,-95.68 -131.49,-216.04 -75.71,-339.51 48.35,-107.05 142.29,-158.52 261.89,-171.28 2,-151.27 84.78,-243.79 220.07,-286.17 115.34,-36.12 226.22,-7.51 307.75,80.15 106.84,114.88 123.52,245.34 20.46,375.17 116.84,104.66 228.22,204.46 340.12,304.72 536.14,-752.3 1647.85,-764.35 2221.89,0.26 110.08,-97.85 219.77,-195.31 332.12,-295.15 -91.72,-126.95 -85.44,-250.82 16.05,-366.32 83.84,-95.4 196.24,-123.25 312.5,-89.09 134.82,39.58 217.73,135.07 223.95,267.67 68.8,37.04 137.21,59.24 186.18,103.18 112.13,100.66 134.19,274.21 52.31,373.57 -113.38,137.56 -257.97,166.7 -404.44,91.94 -38.13,-19.48 -59.03,-18.28 -88.73,8.67 -144.2,130.98 -289.96,260.28 -434.68,390.69 -4.94,4.49 -4.63,14.81 -9.43,31.71 20.85,3.11 39.71,8.32 58.66,8.41 149.49,0.88 299.02,0.18 448.56,1.2 86.29,0.63 139.17,45.41 142.42,117.69 3.24,71.39 -55.56,131.42 -139.18,132.99 -152.15,2.75 -304.41,0.76 -456.56,1.2 -15.57,0.04 -31.14,3.15 -49.78,5.16 -56.22,375.61 -253.17,663.04 -556.06,890.67l0.03 0.03z"/>
 <path class="fil6" d="M7883.7 -24293.85c79.61,1.02 132.32,-37.36 130.26,-94.91 -1.87,-53.37 -55.55,-91.5 -128.13,-91 -66.41,0.49 -126.09,44.25 -126.58,92.92 -0.58,54.71 49.37,92.03 124.45,93l0 -0.01zm-816 -505.67c4.45,159.94 154.88,338.43 335.27,335.64 173.47,-2.67 339.91,-161.02 337.32,-324.16 -2.53,-162.79 -178.49,-322.37 -353.46,-319.4 -178,3.03 -317,151.18 -319.13,307.92zm1302.58 -300.18c-186.22,-7.92 -338.61,157.85 -336.06,308.28 2.98,178.05 143.97,321.14 356.88,323.04 167.37,1.56 316.82,-172.7 315.71,-331.4 -1.07,-144.37 -160.44,-310.63 -336.53,-299.92zm718.32 -66.76c-1.95,155.18 -68.99,283.63 -137.44,406.39 -52.57,94.24 -129.34,176.54 -202.91,257.21 -174.43,191.35 -402.47,280.08 -651.99,316.24 -288.39,41.85 -568.83,12.76 -831.25,-124.1 -179.28,-93.49 -327.18,-223.77 -417.83,-405.9 -62.54,-125.7 -108.44,-259.75 -159.89,-390.78 -6.19,-15.75 -0.84,-35.98 -0.84,-59.07l2402.16 0 -0.01 0.01z"/>
 <path class="fil7" d="M7538.33 -26040.35c-31.71,56.57 -55.11,91.45 -69.65,129.7 -3.16,8.27 25.43,28.59 39.4,43.41 25.13,-34.42 52.71,-67.46 73.39,-104.34 4.19,-7.48 -17.79,-29.53 -43.14,-68.76l0 -0.01zm838.14 1.28c-15.73,19.4 -34.65,33.54 -32.33,41.33 16.19,54.39 35.84,107.86 57.95,160.07 1.56,3.69 46.31,-4.89 46.26,-7.38 -0.62,-40.08 0.9,-82.12 -11.12,-119.43 -8.45,-26.27 -36.64,-46.21 -60.76,-74.59zm-943.68 15c-9.52,-17.47 -13.26,-34.68 -22.03,-37.85 -11.96,-4.36 -34.6,-3.33 -40.91,4.63 -43.41,54.97 -84.86,111.59 -123.83,169.82 -5.82,8.67 0.1,35.31 8.99,41.4 13.12,8.99 44.57,15.04 49.51,8.41 45.1,-60.49 86.15,-124 128.27,-186.41zm1146.37 -94.56c-23.49,12.63 -41.95,16.82 -43.77,24.74 -3.56,15.79 -2.89,36.42 4.77,50.22 36.42,65.65 73.87,130.98 115.5,193.38 10.41,15.62 37.76,19.93 57.29,29.45 7.12,-20.37 22.47,-42.09 19.48,-60.85 -5.3,-33.18 -15.7,-68.85 -34.82,-95.86 -35.18,-49.76 -78.23,-94.02 -118.44,-141.08l-0.01 0zm-1275.13 2.35c-10.41,-13.12 -18.02,-32.15 -29.14,-34.51 -15.48,-3.29 -39.5,0.26 -49.59,10.75 -56.18,58.54 -112.45,117.64 -161.37,182.1 -13.12,17.3 -0.72,54 -0.05,81.84 23.14,-10.94 51.73,-16.59 68.41,-33.8 50.75,-52.26 97.23,-108.79 144.64,-164.31 9.92,-11.56 16.77,-25.8 27.09,-42.07l0.01 0zm-505.77 305.88c261.36,-462.04 655.17,-663.71 1166.04,-639.06 457.45,22.05 823.86,286.88 994.56,639.06l-2160.6 0z"/>
 <path class="fil6" d="M7118.9 -23728.49c500.6,305.65 999.91,292.93 1503.3,35.18 31.04,274.79 -137.09,582.08 -456.52,660.24 -245.97,60.22 -491.92,58.17 -723.08,-62.41 -109.29,-56.98 -191.3,-142.19 -246.14,-257.57 -54.84,-115.46 -79.25,-233.37 -77.56,-375.44z"/>
 <path class="fil6" d="M9007.71 -23372.24c-83.05,-73.57 -166.66,-141.52 -242.19,-217.54 -30.11,-30.33 -52.26,-76.42 -60.9,-118.8 -32.33,-159.63 -57.64,-320.73 -86.28,-485.25 209.93,188.45 421.29,378.2 636.16,571 99.94,-90.2 210.3,-130.93 331.63,-53.63 87.22,55.64 126.02,156.51 91.67,249.26 -46.12,124.67 -148.65,170.17 -276.87,157.31 -8.18,173.96 -57.38,255.52 -171.73,290.8 -83.97,25.93 -194.24,0 -239.92,-65.74 -62.54,-89.93 -118.05,-130.32 18.42,-327.4l0.01 -0.01z"/>
 <path class="fil6" d="M6485.71 -23626.95c217.76,-193.97 426.06,-379.49 634.34,-564.96 4.68,2.23 9.29,4.45 13.92,6.67 -17.12,49.16 -39.89,97.14 -49.99,147.68 -15.52,77.65 -31.62,157.13 -30.55,235.64 1.41,106.08 -28.73,186.32 -117.83,249.7 -72.58,51.64 -135.61,116.75 -202.72,175.73 78.28,115.2 88.65,237.91 27.89,318.15 -50.22,66.32 -167.16,100.88 -253.62,74.99 -113.6,-34.03 -156.51,-108.62 -165.28,-289.68 -117.96,3.91 -226.84,-23.35 -271.57,-144.51 -28.38,-76.82 -28.2,-161.81 43.04,-227.95 130.19,-120.85 253.31,-85.53 372.37,18.55l0 -0.01z"/>
 <path class="fil6" d="M6594.04 -25547.71c-119.6,-107.9 -234.71,-211.45 -349.37,-315.44 -39.06,-35.4 -74.06,-76.28 -116.94,-105.94 -18.02,-12.49 -58.58,-12.9 -77.03,-0.72 -89.98,59.35 -178.14,72.37 -276.43,19.44 -93.59,-50.39 -106.52,-132.27 -98.92,-224.08 8.45,-102.25 80.06,-172.67 187.08,-184.63 31.04,-3.42 62.8,-0.48 103.73,-0.48 -20.2,-137 8.4,-247.57 149.04,-289.64 125.7,-37.63 196.15,3.33 277.15,100.96 48.57,58.53 26.55,157.01 -59.12,293.32 100.57,90.65 199.48,184.89 304.14,272.26 62.09,51.77 104.34,94.29 53.86,183.07 -42.2,74.24 -63.06,160.66 -97.18,251.88l-0.01 0z"/>
 <path class="fil6" d="M9424.74 -26252.82c-97.36,-83.62 -120.44,-187.25 -55.78,-291.77 60.05,-96.97 161.72,-126.58 263.76,-96.16 143.48,42.78 179.6,150.29 157.67,291.24 138.9,-4.24 254.94,21.12 288.25,172.39 22.68,103.15 -20.06,196.33 -106.7,243.61 -99.4,54.21 -200.15,36.02 -304.54,-60.53 -162.78,144.5 -326.51,289.82 -490.59,435.48 -40.03,-95.98 -71.44,-184.81 -113.91,-267.98 -27.17,-53.24 -19.13,-87.8 23.26,-123.73 102.12,-86.64 203.26,-174.44 304.32,-262.28 11.57,-10.06 20.16,-23.49 34.26,-40.26l0 -0.01z"/>
 <path class="fil7" d="M7894.15 -25242.54c-581.59,0 -1163.18,0.09 -1744.73,-0.13 -38.87,0 -86.11,10.23 -89.71,-50.31 -2.41,-40.7 7.51,-75.61 60.27,-73.66 18.63,0.71 37.32,-0.05 55.99,-0.05 1147.18,0 2294.35,0 3441.48,0 21.35,0 46.43,-6.85 63.15,2 25.35,13.43 44.88,37.85 66.86,57.59 -22.82,21.45 -43.06,47.47 -69.52,62.67 -16.06,9.2 -41.72,1.87 -63.08,1.87 -573.53,0 -1147.13,0 -1720.71,0l0 0.02z"/>
 <path class="fil6" d="M7844.98 -23557.64c-123.38,-21.35 -239.65,-41.44 -365.57,-63.24 8.62,-78.95 15.96,-146.29 23.53,-216.12 117.11,16.38 226.66,31.63 342.04,47.73l0 231.63z"/>
 <path class="fil6" d="M7850.02 -23850.9c-102.17,-15.92 -193.48,-28.1 -283.55,-46.35 -13.74,-2.8 -31.53,-33.98 -30.69,-51.24 2.62,-55.18 13.16,-110.03 21.66,-172.48 88.95,8.76 175.2,15.92 260.91,27.26 11.96,1.6 29.58,23.49 30.25,36.74 3.2,63.03 1.42,126.28 1.42,206.06l0 0.01z"/>
 <path class="fil6" d="M7919.88 -23556.9l0 -234.8c96.34,-13.04 190.05,-25.71 288.44,-39.01 13.87,68.9 27.13,134.59 43.72,217.18 -105.41,17.97 -213.5,36.39 -332.17,56.62l0.01 0.01z"/>
 <path class="fil6" d="M8284.66 -23848.2c108.79,-39.59 209.13,-76.1 306.67,-111.55 6.9,8.64 9.61,10.45 9.96,12.68 33.31,189.82 57.15,140.68 -115.78,235.77 -52.7,29 -109.9,49.81 -175.29,78.95 -9.47,-79.92 -17.65,-148.95 -25.57,-215.85l0.01 0z"/>
 <path class="fil6" d="M8507.5 -24225.67c18.5,55.55 39.94,106.52 50.66,159.63 3.56,17.66 -15.34,51.87 -32.52,59.65 -78.69,35.54 -160.35,64.4 -244.76,97.14 -16.5,-77.58 -31,-145.5 -47.37,-222.18 83.12,-28.59 173.99,-59.86 273.98,-94.24l0.01 0z"/>
 <path class="fil6" d="M8173.76 -24120.02c10.94,75.66 20.73,143.53 33.22,230.17 -93.93,12.07 -185.92,23.89 -285.01,36.61l0 -237.07c80.78,-9.52 161.51,-19.04 251.79,-29.72l0 0.01z"/>
 <path class="fil6" d="M7440.94 -23856.91c-11.96,65.61 -23.12,126.76 -36.92,202.42 -89.31,-47.95 -174.22,-88.15 -251.97,-139.3 -18.58,-12.19 -17.52,-60.9 -17.56,-92.78 -0.05,-33.54 9.47,-67.07 15.66,-106.03 101.9,47.54 196.49,91.67 290.79,135.7l0 -0.01z"/>
 <path class="fil6" d="M7490.55 -24140.48c-11.21,70.54 -22.24,139.66 -34.91,219.28 -80.15,-36.07 -149.54,-66.44 -218.12,-98.52 -47.28,-22.06 -68.81,-54.44 -41.86,-107.9 16.42,-32.43 26.78,-67.88 41.81,-107.07 84.46,31.44 162.88,60.63 253.08,94.21z"/>
 <path class="fil3" d="M8370.3 -25099.7c176.04,-10.75 335.46,155.54 336.48,299.92 1.16,158.66 -148.33,332.96 -315.66,331.41 -212.91,-1.97 -353.9,-145 -356.93,-323.05 -2.53,-150.42 149.84,-316.19 336.11,-308.28z"/>
 <path class="fil3" d="M7067.69 -24799.51c2.18,-156.78 141.17,-304.9 319.13,-307.92 174.97,-2.98 350.98,156.62 353.51,319.4 2.53,163.11 -163.9,321.49 -337.36,324.16 -180.41,2.8 -330.83,-175.74 -335.28,-335.64z"/>
 <path class="fil3" d="M7883.7 -24293.85c-75.08,-0.97 -125.03,-38.29 -124.45,-93 0.49,-48.67 60.18,-92.43 126.58,-92.92 72.58,-0.49 126.27,37.63 128.13,91 2.06,57.56 -50.66,95.93 -130.26,94.91l0 0.01z"/>
 <path class="fil3" d="M7304.01 -26116.26c-10.31,16.28 -17.16,30.47 -27.08,42.09 -47.42,55.5 -93.85,111.98 -144.6,164.29 -16.72,17.21 -45.33,22.86 -68.45,33.76 -0.67,-27.8 -13.07,-64.5 0.09,-81.84 48.88,-64.45 105.15,-123.52 161.32,-182.06 10.1,-10.49 34.12,-14.05 49.6,-10.8 11.12,2.36 18.72,21.4 29.12,34.56z"/>
 <path class="fil3" d="M8579.14 -26118.62c40.21,47.07 83.26,91.27 118.49,141.08 19.08,26.96 29.53,62.67 34.82,95.86 2.98,18.76 -12.41,40.47 -19.48,60.85 -19.57,-9.52 -46.88,-13.83 -57.29,-29.45 -41.67,-62.4 -79.08,-127.73 -115.51,-193.43 -7.64,-13.74 -8.31,-34.38 -4.75,-50.17 1.78,-7.92 20.24,-12.1 43.72,-24.74z"/>
 <path class="fil3" d="M7432.78 -26024.06c-42.09,62.4 -83.14,125.92 -128.24,186.41 -4.98,6.62 -36.42,0.57 -49.5,-8.41 -8.9,-6.1 -14.86,-32.74 -9.04,-41.42 38.97,-58.21 80.43,-114.83 123.83,-169.82 6.32,-7.96 28.95,-8.98 40.91,-4.63 8.81,3.16 12.51,20.37 22.03,37.86l0.01 0.01z"/>
 <path class="fil3" d="M8376.47 -26039.08c24.14,28.38 52.3,48.3 60.76,74.59 12.05,37.36 10.49,79.35 11.12,119.42 0.04,2.5 -44.71,11.12 -46.26,7.43 -22.11,-52.26 -41.77,-105.72 -57.96,-160.12 -2.31,-7.78 16.59,-21.87 32.34,-41.32z"/>
 <path class="fil3" d="M7538.33 -26040.35c25.35,39.24 47.33,61.29 43.14,68.76 -20.68,36.88 -48.26,69.92 -73.39,104.34 -13.97,-14.81 -42.56,-35.14 -39.4,-43.41 14.54,-38.25 37.94,-73.13 69.65,-129.7l0 0.01z"/>
 <path class="fil8" d="M6772.16 -25762.73c0,0 -106.17,226.17 -87.89,330.6l2404.3 0c0,0 -45.99,-254.49 -95.09,-330.6l-2221.32 0z"/>
</symbol>
<symbol id="Fm111-104-0" viewBox="187255.14 -61869.17 4571.98 4571.7">
 <path class="fil2" d="M187255.14 -59583.32c0,-1262.62 1023.6,-2285.85 2285.85,-2285.85 1262.62,0 2286.13,1023.23 2286.13,2285.85 0,1262.62 -1023.5,2285.85 -2286.13,2285.85 -1262.26,0 -2285.85,-1023.23 -2285.85,-2285.85z"/>
</symbol>
<symbol id="Fm100-80-0" viewBox="32664.02 -33806.79 4571.97 2302.85">
 <path class="fil3" d="M36692.28 -31913.69c-30.51,116.53 -59.46,233.43 -92.79,349.13 -6.42,22.14 -29.45,55.64 -45.9,56.26 -123.39,4.75 -246.99,2.59 -391.09,2.59 64.82,-361.37 68.48,-713.39 -0.89,-1071.56l189.64 0 198.69 198.69 -30.1 316.96c7.36,1.99 14.72,3.94 22.03,5.93 6.64,-17.65 15,-34.88 19.54,-53.09 17.29,-68.84 34.68,-137.65 51.78,-206.55l539.66 539.66c-73.94,66.8 -60.99,154.97 32.55,197.22 19.16,8.63 33.82,27.35 50.59,41.41 -22.03,10.51 -43.73,29.22 -66.03,30.05 -93.16,3.44 -186.67,-1.82 -279.73,2.71 -57.86,2.89 -85.25,-11.96 -97.32,-73.67 -22.14,-113.22 -55.47,-224.21 -84.14,-336.2 -5.54,0.17 -11.02,0.28 -16.49,0.46z"/>
 <path class="fil3" d="M34638.39 -32697.27c17.39,-140.55 34.16,-275.96 50.94,-411.3 -120.64,111.82 -174.67,243.46 -137.9,409.53l-381.76 0c0.94,-82.1 -33.44,-166.35 51.09,-242.08 46.56,-41.63 71.7,-107.22 117.42,-141.54 50.98,-23.69 110.16,-38.59 149.47,-74.96 18.7,-17.28 14.72,-90.4 -6.09,-111.71 -31.73,-32.5 -86.97,-41.91 -132.25,-61.17 -5.32,8.19 -10.69,16.38 -16.01,24.53 -42.45,-82.05 -71.79,-175.55 -130.75,-243.19 -69.25,-79.54 -61.45,-161.03 -58.23,-255.75l401.06 0c-26.28,164.58 31.27,307.52 144.65,437.82 -16.49,-144.49 -32.98,-288.92 -50.15,-439.6l439.71 0c-59.39,367.85 -71.57,735.92 5.87,1109.43l-447.07 0 0 -0.01z"/>
 <path class="fil3" d="M36047.86 -32880.66c9.4,58.15 22.96,117.09 35.21,182.45l-365.8 0 25.44 -487.6 305.15 305.15z"/>
 <path class="fil3" d="M33540.01 -33806.07c35.15,264.83 54.2,325.5 154.24,443.08 -5.21,-73.23 -7.75,-146.81 -16.4,-219.61 -8.68,-72.69 -23.46,-144.59 -36.81,-224.19l445.97 0c-63.21,367.41 -76.45,735.09 6.65,1108.81l-454.94 0c19.05,-107.18 35.76,-209.36 57.02,-310.56 2.93,-13.67 29.39,-22.08 44.39,-33.6 53.15,-40.69 65.55,-93.38 30.33,-148.63 -35.04,-54.97 -89.62,-70.98 -146.86,-35.65 -55.25,34.1 -75.29,89.68 -38.24,145.2 26.61,39.92 22.91,64.78 2.43,104.74 -22.14,43.29 -31.84,94.61 -38.81,143.53 -6.2,43.51 -1.33,88.58 -1.33,137.07l-344.16 0c34.82,-67.37 57.95,-135.78 -13.23,-182.4 63.1,-100.3 124.77,-193.97 180.74,-291.01 10.73,-18.66 7.09,-54.86 -4.05,-75.29 -66.82,-123.12 -145.09,-240.53 -203.87,-367.19 -24.97,-53.75 -11.91,-125.16 -16.51,-194.3l393.43 0 0.01 0z"/>
 <path class="fil3" d="M35189.71 -31730.7l0 -211.18c-94.72,-1.33 -117.3,17.26 -120.91,94.04 -4.03,86.42 20.49,112.17 120.91,117.14zm-38.85 -848.2l425.98 0c-63.16,357.12 -67.43,709.25 -0.55,1056.58 -234.39,0 -453.39,9.24 -671.01,-3.94 -107.88,-6.59 -169.99,-107.22 -178.31,-226.58 -11.13,-160.81 27.13,-237.22 149.92,-287.37 55.35,-22.64 101.03,-58.23 85.91,-117.36 -9.96,-38.81 -50.1,-84.91 -86.97,-97.37 -33.16,-11.24 -80.33,18.94 -125.18,31.89 -18.53,-108.6 -38.85,-227.52 -60.67,-355.24l382.63 0c3.55,100.76 7.58,200.51 10.47,300.31 1.93,66.49 17.48,118.91 119.01,108.34 -16.77,-134.18 -33.42,-266.87 -51.25,-409.26l0.02 0z"/>
 <path class="fil3" d="M32664.02 -33634.05l0 -171.17 433.99 0c-13.23,76.95 -25.91,151.13 -38.85,225.26 -1.44,8.19 -6.64,16.16 -6.59,24.24 2.54,210.96 5.7,421.94 8.14,632.97 0.16,16.77 1.66,39.47 -7.92,49.54 -52.36,55.25 -42.35,111.32 -2.37,175.88l-384.97 0c14.95,-237.88 29.74,-473.48 45.13,-717.66 66.86,-15.61 141.93,-44.79 118.96,-144.76 -19.16,-83.32 -85.91,-94.72 -165.52,-74.3z"/>
 <path class="fil3" d="M35560.76 -33367.76c-0.42,51.11 -0.42,102.2 0.82,153.3 1.22,49.1 -2.21,85.36 -55.69,116.18 -73.74,42.57 -58.01,148.7 20.16,184.74 19.93,9.18 42.56,12.62 71.35,20.81l0 100.48 0 95.94 -324.73 0c55.3,-121.68 45.66,-152.9 -63.22,-215.01 0,-201.23 4.99,-401.4 -2.15,-601.08 -2.92,-80.74 -22.57,-160.87 -39.53,-248.34l392.99 392.99 0 -0.01z"/>
 <path class="fil3" d="M33307.03 -31671.66c76.33,4.25 143.32,-9.53 153.17,-96.49 9.2,-81.16 -44.35,-115.87 -123.39,-129.32 0,-39.69 2.26,-78.99 -0.39,-117.97 -10.97,-158.71 -23.65,-317.31 -34.99,-476.02 -1.93,-27.4 -0.27,-55.08 -0.27,-87.29l418.55 0c-67.7,357.28 -71.63,710.96 1,1069.02l-413.69 0 0 -161.93 0.01 0z"/>
 <path class="fil3" d="M35663.69 -32448.79l0 -129.1 417.85 0c-15.06,80.66 -34.65,152.07 -40.47,224.6 -8.08,100.96 -5.92,202.77 -7.86,304.24 -1.49,75.73 13.12,147.36 -66.38,208.7 -69.63,53.75 -18.75,144.65 96.95,180.19l0 150.24c-20.49,1.73 -36.81,4.16 -53.1,4.21 -112.54,0.35 -225.02,0.17 -360.26,0.17 12.84,-80.83 25.12,-152.4 35.31,-224.32 5.43,-38.74 9.53,-77.94 10.25,-117.02 1.6,-84.71 1.16,-169.51 0.55,-254.21 -0.38,-58.23 -1.16,-106.83 58.85,-151.07 80.72,-59.46 33.77,-155.62 -91.67,-196.64l-0.02 0.01z"/>
 <path class="fil3" d="M34185.98 -32086.43c16.66,93.62 32.22,180.8 47.72,267.99 5.71,-0.72 11.41,-1.49 17.1,-2.26 13.57,-86.98 27.13,-173.99 41.47,-265.73l-106.3 0 0.01 0zm130.81 -220.7l0 -66.53c116.42,-37.32 132.1,-71.81 93.67,-205.55l252.77 0c-19.49,93.89 -37.91,178.53 -54.47,263.61 -32.83,169.02 -64.82,338.24 -96.82,507.42 -18.38,97.04 -36.15,194.14 -55.19,296.72l-337.19 0c7.91,-147.03 -37.03,-192.59 -173.88,-162.87 -31.71,-153.56 -60.4,-307.85 -96.38,-460.47 -20.98,-88.96 -59.68,-173.93 -78.71,-263.17 -11.91,-55.97 -2.21,-116.53 -2.21,-180.36l427.8 0c-12.07,91.78 -23.57,179.2 -35.7,271.21l156.32 0 -0.01 -0.01z"/>
</symbol>
<symbol id="Fm80-268-0" viewBox="109688.69 -233525.2 4571.98 1291.53">
 <path class="fil0" d="M109688.69 -232233.68c0,0 594.5,-892.91 4013.96,-1291.52l558.02 166.22 -1257.21 150.84 -1446.17 258.39 -570 128.65 -735.27 250.22 -563.33 337.21 0 -0.01z"/>
</symbol>
<symbol id="Fm106-92-0" viewBox="79827.53 -35493.04 4571.98 4572.02">
 <path class="fil2" d="M79827.53 -33207.01c0,-1262.58 1023.41,-2286.03 2285.99,-2286.03 1262.54,0 2285.99,1023.45 2285.99,2286.03 0,1262.54 -1023.45,2285.99 -2285.99,2285.99 -1262.58,0 -2285.99,-1023.45 -2285.99,-2285.99z"/>
</symbol>
<symbol id="Fm61-226-0" viewBox="635906.38 -2005473.69 3204.43 6052.96">
 <path class="fil0" d="M635906.39 -1999420.73c0,0 1505.11,-1351.79 1321.12,-4939.52 -185.26,-3592.84 1883.3,2658.86 1883.3,2658.86l-3204.43 2280.66 0.01 0z"/>
</symbol>
<symbol id="Fm81-270-0" viewBox="468552.96 -1000255.49 4547 6053.19">
 <path class="fil0" d="M468552.96 -1000255.49c0,0 3047.96,3716.48 3894.91,3849.13l652.09 2176.36c0,0 -47.54,203.08 -610.41,-490.68 -563.46,-691.41 -3936.58,-5534.81 -3936.58,-5534.81l-0.01 0z"/>
</symbol>
<symbol id="Fm41-182-0" viewBox="226757.06 -466611.99 1625.52 6053.66">
 <path class="fil0" d="M227152.13 -466454.27c0,0 435,4559.33 -395.07,5895.94 0,0 1532.75,-3484.58 1625.52,-6053.66l-1230.45 157.72z"/>
</symbol>
<symbol id="Fm83-274-0" viewBox="170848.93 -374809.86 4424.18 6053.66">
 <path class="fil0" d="M170848.93 -374809.86c0,0 2351.42,4186.23 4173.1,5185.51l251.08 868.15 -185.41 -32.62c0,0 -3211.03,-2853.35 -4238.77,-6021.04z"/>
</symbol>
<symbol id="Fm104-88-0" viewBox="63312.28 -21264.24 4571.98 4571.98">
 <path class="fil2" d="M63312.28 -18978.25c0,-1262.47 1023.41,-2285.99 2285.99,-2285.99 1262.47,0 2285.99,1023.52 2285.99,2285.99 0,1262.47 -1023.52,2285.99 -2285.99,2285.99 -1262.58,0 -2285.99,-1023.52 -2285.99,-2285.99z"/>
</symbol>
<symbol id="Fm85-278-0" viewBox="67483.01 -155752.12 4571.98 3629.21">
 <path class="fil0" d="M67483.01 -152122.91l629.06 -1409.78 2589.06 -1868.49 1353.86 -350.94 -161.98 925.47c0,0 -3096.53,1260.72 -4410,2703.74z"/>
</symbol>
<symbol id="Fm15-124-0" viewBox="45105.22 -67281.35 4571.98 4572.02">
 <path class="fil2" d="M49677.2 -64995.34c0,1262.48 -1023.49,2286.01 -2285.97,2286.01 -1262.48,0 -2286.01,-1023.54 -2286.01,-2286.01 0,-1262.48 1023.54,-2286.01 2286.01,-2286.01 1262.48,0 2285.97,1023.54 2285.97,2286.01z"/>
</symbol>
<symbol id="Fm29-154-0" viewBox="133516.92 -384107.27 3426.85 6053.66">
 <path class="fil0" d="M133516.92 -384107.27c0,0 2438.08,5454.62 2021.41,6053.66 0,0 1534.23,-916.97 1396.71,-1310.32 0,0 -594.34,-378.66 -1018.64,-1250.77 -424.3,-872.11 -1965.39,-2971.49 -2399.48,-3492.56l0 -0.01z"/>
</symbol>
<symbol id="Fm10-78-0" viewBox="24450.28 -60037.39 4571.98 4571.95">
 <path class="fil2" d="M29022.26 -57751.4c0,1262.55 -1023.52,2285.96 -2285.99,2285.96 -1262.47,0 -2285.99,-1023.41 -2285.99,-2285.96 0,-1262.47 1023.52,-2285.99 2285.99,-2285.99 1262.47,0 2285.99,1023.52 2285.99,2285.99z"/>
</symbol>
<symbol id="Fm28-152-0" viewBox="173220.46 -519484.22 3722.5 6053.66">
 <path class="fil0" d="M173220.46 -519484.22c0,0 3608.24,5392.66 2864.44,6053.66 0,0 1009.48,-496.75 838.57,-1354.22 0,0 -2595.83,-3872.05 -3703.01,-4699.44z"/>
</symbol>
<symbol id="Fm51-204-0" viewBox="67702.78 -145270.89 4571.98 955.6">
 <path class="fil1" d="M67702.78 -144507.56c0,0 1447.74,315.96 2565.14,137.79 1117.75,-178.08 2006.84,-901.12 2006.84,-901.12l-1282.57 445.55c0,0 -839.29,334.36 -1542.89,352.23 -703.6,17.88 -1746.52,-34.45 -1746.52,-34.45z"/>
</symbol>
<symbol id="Fm86-280-0" viewBox="93971.63 -204660.28 2895.36 6053.66">
 <path class="fil0" d="M93971.63 -200304.05l290.74 1697.43c0,0 892.38,-3744.29 2604.62,-6053.66l-921.99 414.43 -1973.36 3941.79 -0.01 0.01z"/>
</symbol>
<symbol id="Fm32-162-0" viewBox="196490.45 -588295.28 2269.47 6053.51">
 <path class="fil0" d="M196490.46 -587663.91c0,0 1651.77,1474.86 1022.42,4165.35 -628.18,2690.19 -29.68,224.62 -29.68,224.62l1276.72 -5021.34 -2269.47 631.38 0.01 -0.01z"/>
</symbol>
<symbol id="Fm24-144-0" viewBox="119713.29 -335778.97 4571.98 1869.92">
 <path class="fil0" d="M119713.29 -333909.06c0,0 2681.14,-1798.09 4571.98,-280.77 0,0 -804.11,-1940.66 -2270.92,-1532.8 -1466.14,408.03 -2301.06,1813.58 -2301.06,1813.58l0 -0.01z"/>
</symbol>
<symbol id="Fm99-316-0" viewBox="187205.84 -194751.55 4571.98 4571.7">
 <path class="fil2" d="M187205.84 -192465.7c0,-1262.62 1023.5,-2285.85 2285.76,-2285.85 1262.62,0 2286.22,1023.23 2286.22,2285.85 0,1262.62 -1023.6,2285.85 -2286.22,2285.85 -1262.26,0 -2285.76,-1023.23 -2285.76,-2285.85z"/>
</symbol>
<symbol id="Fm12-118-0" viewBox="34538.19 -72714.75 4571.98 4571.95">
 <path class="fil2" d="M39110.17 -70428.76c0,1262.49 -1023.5,2285.96 -2285.99,2285.96 -1262.52,0 -2285.99,-1023.47 -2285.99,-2285.96 0,-1262.52 1023.47,-2285.99 2285.99,-2285.99 1262.49,0 2285.99,1023.47 2285.99,2285.99z"/>
</symbol>
<symbol id="Fm47-194-0" viewBox="93349.87 -229992.2 4571.91 6026.32">
 <path class="fil0" d="M95276.59 -223965.89c0,0 -189.61,-2675.12 1772.98,-4995.01 1962.46,-2320.42 0,0 0,0 0,0 -2072.52,1691.08 -3699.7,2310.25 0,0 1436.8,1825.92 1926.73,2684.77l-0.01 -0.01z"/>
</symbol>
<symbol id="Fm40-180-0" viewBox="86447.48 -175254.52 1488.95 6053.66">
 <path class="fil0" d="M87199.86 -175048.05c0,0 137.9,4777.42 -752.38,5847.19 0,0 655.24,-722.14 772.76,-895.86 117.52,-173.91 716.19,-3735.48 716.19,-3735.48l-453.98 -1422.32 -282.58 206.47 -0.01 0z"/>
</symbol>
<symbol id="Fm105-90-0" viewBox="51254.3 -20158.91 4571.98 4571.98">
 <path class="fil2" d="M51254.3 -17872.92c0,-1262.47 1023.52,-2285.99 2285.99,-2285.99 1262.47,0 2285.99,1023.52 2285.99,2285.99 0,1262.47 -1023.52,2285.99 -2285.99,2285.99 -1262.47,0 -2285.99,-1023.52 -2285.99,-2285.99z"/>
</symbol>
<symbol id="Fm21-138-0" viewBox="94228.36 -278838.75 4571.98 2537.38">
 <path class="fil0" d="M94228.36 -276301.37c0,0 2313.71,-2426.13 4571.98,-1313 0,0 -1251.66,-1786.97 -2646.91,-1043.24 -1394.82,743.59 -1925.07,2356.24 -1925.07,2356.24z"/>
</symbol>
<symbol id="Fm75-256-0" viewBox="153368.34 -348814.73 766.22 6053.66">
 <path class="fil0" d="M154098.65 -347321.54c0,0 281.19,1899.88 -730.31,4560.47 0,0 870.22,-3185.48 424.65,-5255.86l-199.1 -797.8 504.77 1493.19 -0.01 0z"/>
</symbol>
<symbol id="Fm101-82-0" viewBox="449546.79 -542281.75 4571.88 5740.16">
 <path class="fil9" d="M454118.67 -537549.29c0,0 -1183.54,-2733.47 -261.23,-3622.33 0,0 -2065.67,-325.8 -3608.24,-1110.13 0,0 -1714.83,3005.85 214.33,5740.16l3655.14 -1007.7z"/>
</symbol>
<symbol id="Fm94-306-0" viewBox="79805.85 -92012.78 4571.98 4571.94">
 <path class="fil2" d="M79805.85 -89726.81c0,-1262.53 1023.44,-2285.97 2285.97,-2285.97 1262.56,0 2286.01,1023.44 2286.01,2285.97 0,1262.56 -1023.44,2285.97 -2286.01,2285.97 -1262.53,0 -2285.97,-1023.41 -2285.97,-2285.97z"/>
</symbol>
<symbol id="Fm64-232-0" viewBox="144960.12 -447961.37 4571.98 2168.66">
 <path class="fil0" d="M144960.12 -445792.71c0,0 35.28,-15.2 100.97,-40.45 607.28,-242.97 3762.75,-1467.29 4471.01,-984.5l-1708.25 -1143.71 -2863.73 2168.66z"/>
</symbol>
<symbol id="Fm43-186-0" viewBox="115450.95 -244567.82 4571.99 1138.5">
 <path class="fil0" d="M116522.52 -244567.82c0,0 2230.87,299.11 3500.42,1138.5l-792.28 -67.36c0,0 -1552.21,-786.37 -2442.79,-499.08l-1336.92 183.51 1071.56 -755.57 0.01 0z"/>
</symbol>
<symbol id="Fm78-262-0" viewBox="638489.77 -1413694.44 614.81 6053.66">
 <polygon class="fil0" points="639104.58,-1407640.78 638996.46,-1412205.83 638489.77,-1413694.44 "/>
</symbol>
<symbol id="Fm56-214-0" viewBox="50979.98 -160572.1 4571.9 4642.94">
 <path class="fil0" d="M50979.98 -155963.42c0,0 430.48,-58.95 1126.45,-720.51 695.97,-661.86 952.2,-1225.84 952.2,-1225.84l1010.05 -1352.2c0,0 1304.71,-1098.78 1444.15,-1263.77 139.44,-165.39 -139.44,164.99 -139.44,164.99l-172.53 319.41c0,0 -625.65,369.51 -1153.11,1051.6 -526.96,681.78 -1412.46,1877.44 -1412.46,1877.44 0,0 -970.01,1419.3 -1655.31,1148.88z"/>
</symbol>
<symbol id="Fm22-140-0" viewBox="123760.22 -379879.15 4571.98 2537.43">
 <path class="fil0" d="M123760.22 -377341.73c0,0 2314.1,-2426.35 4571.98,-1313.1 0,0 -1251.87,-1786.93 -2646.42,-1043.16 -1395.12,743.77 -1925.56,2356.27 -1925.56,2356.27l0 -0.01z"/>
</symbol>
<symbol id="Fm84-276-0" viewBox="124327.51 -260310.23 3593.33 6053.66">
 <path class="fil0" d="M127920.84 -260310.23c0,0 -2358.41,4768.24 -3593.33,6053.66l924.94 -320.68c0,0 1391.86,-915.29 1472.67,-901.57 80.81,14.47 430.28,-3156.56 1195.72,-4831.41z"/>
</symbol>
<symbol id="Fm39-176-0" viewBox="94657.69 -196241.01 4571.98 504.68">
 <path class="fil0" d="M94657.69 -195858.69c0,0 504.66,-295.26 1731.1,-374.79 1226.34,-79.53 2840.88,497.15 2840.88,497.15 0,0 -2219.55,-397.97 -4571.98,-122.35l0 -0.01z"/>
</symbol>
<symbol id="Fm11-100-0" viewBox="24451.24 -71368.03 4571.98 4571.98">
 <path class="fil2" d="M29023.22 -69082.02c0,1262.53 -1023.44,2285.97 -2286.01,2285.97 -1262.53,0 -2285.97,-1023.44 -2285.97,-2285.97 0,-1262.56 1023.44,-2286.01 2285.97,-2286.01 1262.56,0 2286.01,1023.44 2286.01,2286.01z"/>
</symbol>
<symbol id="Fm2-134-0" viewBox="24215.15 -14589.95 4571.98 4572.02">
 <path class="fil2" d="M28787.13 -12303.92c0,1262.54 -1023.45,2285.99 -2285.99,2285.99 -1262.58,0 -2285.99,-1023.45 -2285.99,-2285.99 0,-1262.58 1023.41,-2286.03 2285.99,-2286.03 1262.54,0 2285.99,1023.45 2285.99,2286.03z"/>
</symbol>
<symbol id="Fm97-312-0" viewBox="80552.36 -102678.21 4571.98 4571.94">
 <path class="fil2" d="M80552.36 -100392.26c0,-1262.46 1023.53,-2285.95 2285.99,-2285.95 1262.46,0 2285.99,1023.48 2285.99,2285.95 0,1262.51 -1023.53,2285.99 -2285.99,2285.99 -1262.46,0 -2285.99,-1023.48 -2285.99,-2285.99z"/>
</symbol>
<symbol id="Fm9-288-0" viewBox="12392.41 -58932.48 4571.98 4572">
 <path class="fil2" d="M16964.39 -56646.48c0,1262.59 -1023.5,2286 -2285.98,2286 -1262.48,0 -2286,-1023.41 -2286,-2286 0,-1262.48 1023.53,-2286 2286,-2286 1262.48,0 2285.98,1023.53 2285.98,2286z"/>
</symbol>
<symbol id="Fm8-266-0" viewBox="6165.49 -7655.85 4571.97 2438.58">
 <path class="fil10" d="M7207.97 -6343.26c-85.22,85.24 -170.46,170.46 -277.45,277.46 405.86,86.96 781.45,167.39 1173.77,251.43 -14.19,-36.3 -21.71,-57.38 -30.61,-77.91 -33.99,-78.69 -76.88,-154.73 -101.07,-236.35 -61.58,-207.85 2.72,-348.92 194.85,-450.83 120.11,-63.7 129.6,-90.47 40.96,-196.38 -41.55,-49.61 -99.53,-103.48 -158.69,-116.79 -129.6,-29.08 -264.65,-34.68 -397.7,-47.09 -34.87,-3.27 -70.74,3.51 -139.6,7.75 74.01,-127.07 124.65,-239.06 197.27,-334.38 298.03,-391.34 707.36,-491.49 1153,-283.65 113.28,52.83 221.95,119.02 324.3,191.05 112.44,79.04 228.09,116.83 363.33,83.54 34.82,-8.55 69.65,-17.06 115.95,-28.44 -42.79,142.25 -109.66,201.82 -371.2,356 182.28,-9.35 280.52,-154.73 418.29,-228 53.62,200.69 -141.52,381.93 -616.54,580.79 73.46,18.3 200.74,-14.54 310.35,-81.23 149.15,-90.71 294.18,-189.1 447.91,-271.17 158.74,-84.64 447.13,-23.8 557.44,110.66 -32.4,9.04 -60.41,21.61 -89.29,24.09 -131.88,11.27 -240.15,68.65 -332.56,160.96 -226.21,226.12 -490.75,394.69 -786.11,516.62 3.25,8.47 6.52,16.97 9.84,25.44 99.63,-36.91 207.71,-59.86 297.04,-113.83 154.53,-93.29 297.33,-206.08 445.33,-310.3 72.77,-51.24 148.21,-98.92 218.94,-152.8 213.79,-162.89 422.79,-73.9 546.91,109.27 -327.52,118.96 -571.78,361.34 -845.77,560.3 -283.69,206.02 -605.03,318.07 -962.96,359.97 26.71,14.19 52.29,31.41 80.33,42.04 441.74,167.25 830.78,77.57 1170.91,-243.42 46.8,-44.17 92.91,-90.17 131.99,-141.02 19.69,-25.73 22.9,-64.11 33.53,-96.76 -34.42,-3.17 -71.02,-15.38 -102.74,-7.61 -55.95,13.76 -108.87,39.72 -164.32,61.04 86.57,-150.52 516.58,-425.96 671.16,-430.89 0.79,5.48 4.21,14.15 1.92,16.03 -162.25,136.38 -233.07,326.08 -307.02,515.58 -71.39,182.97 -207.82,315.2 -359.28,433.86 -363.47,284.73 -778.49,354.92 -1210.18,234.91 -889.9,-247.37 -1773.2,-518.4 -2659.15,-779.88 -5.48,-1.63 -10.14,-6.13 -35.56,-21.96 330.83,-168.33 681.55,-213.1 1020.19,-298.68 7.42,10.19 14.89,20.39 22.31,30.57l-0.02 0.01z"/>
</symbol>
<symbol id="Fm0-74-0" viewBox="12218.33 -17128.23 4571.98 4571.98">
 <path class="fil2" d="M16790.31 -14842.24c0,1262.47 -1023.52,2285.99 -2285.99,2285.99 -1262.47,0 -2285.99,-1023.52 -2285.99,-2285.99 0,-1262.47 1023.52,-2285.99 2285.99,-2285.99 1262.47,0 2285.99,1023.52 2285.99,2285.99z"/>
</symbol>
<symbol id="Fm37-172-0" viewBox="49055.25 -111548.23 4571.98 3467.18">
 <path class="fil0" d="M49055.25 -111548.22c0,0 887.69,152.15 2140.11,1052.31 1252.18,900.41 2310.37,2036.91 2431.87,2414.86 0,0 -610.98,-682.86 -1008.33,-1102.24 -397.1,-419.31 -2009.5,-1651.43 -2696.03,-1956.21 -686.53,-304.48 -867.62,-408.73 -867.62,-408.73l0 0.01z"/>
</symbol>
<symbol id="Fm63-230-0" viewBox="125708.32 -389383.06 1200.71 6053.52">
 <path class="fil0" d="M126909.02 -388908.63c0,0 -644.27,5042.71 -962.84,5498.98 -318.57,457 -225.06,-1190.61 -225.06,-1190.61l4.42 -3821.92 323.73 -960.88 859.76 474.43 -0.01 0z"/>
</symbol>
<symbol id="Fm92-302-0" viewBox="63296.82 -62878.05 4571.98 4571.98">
 <path class="fil2" d="M63296.82 -60592.06c0,-1262.58 1023.52,-2285.99 2285.99,-2285.99 1262.47,0 2285.99,1023.41 2285.99,2285.99 0,1262.47 -1023.52,2285.99 -2285.99,2285.99 -1262.47,0 -2285.99,-1023.52 -2285.99,-2285.99z"/>
</symbol>
<symbol id="Fm72-250-0" viewBox="431492.66 -846811.48 1577.19 6053.66">
 <path class="fil0" d="M431828.3 -846811.48c0,0 1696.54,5015.03 1123.23,6053.66l-1458.87 -4133.37 335.63 -1920.29 0.01 0z"/>
</symbol>
<symbol id="Fm89-286-0" viewBox="50236.11 -130855.08 4571.91 2772.67">
 <path class="fil11" d="M50236.11 -128828.19c0,0 3613.75,-188.32 4476.83,-2026.89 0,0 168.46,567.22 56.91,1026.12 0,0 -52.89,816.88 -2183.87,1527.42 0,0 -1101.13,497.92 -1784.34,-7.39 0,0 -522.29,-321.99 -565.53,-519.26z"/>
</symbol>
<symbol id="Fm44-188-0" viewBox="71703.15 -150871.54 4571.94 1528.31">
 <path class="fil0" d="M71703.16 -149975.72c0,0 3420.55,881.09 4271.25,563.4 0,0 419.8,-559.1 267.32,-1182.34 -152.82,-622.98 0,0 0,0 0,0 -1085.83,1057.59 -4538.58,618.94l0.01 0z"/>
</symbol>
<symbol id="Fm102-84-0" viewBox="493063.16 -586085.48 4571.98 1308.41">
 <polygon class="fil9" points="497635.14,-585683.5 497064.16,-586085.48 493063.16,-584982.43 494314.71,-584777.07 "/>
</symbol>
<symbol id="Fm49-198-0" viewBox="68174.21 -166218.16 4571.98 4736.49">
 <path class="fil1" d="M68174.21 -166218.16c0,0 1168.21,2190.85 1977.21,3028.98 0,0 1922.11,1407.62 2594.77,1707.51l-847.65 -593.62 -1220.42 -1021.68c0,0 -1209.84,-1080.62 -1397.43,-1566.65l-1106.48 -1554.54z"/>
</symbol>
<symbol id="Fm5-200-0" viewBox="36078 -15689.33 4571.98 4571.94">
 <path class="fil2" d="M40649.98 -13403.38c0,1262.46 -1023.53,2285.99 -2285.99,2285.99 -1262.46,0 -2285.99,-1023.53 -2285.99,-2285.99 0,-1262.46 1023.53,-2285.95 2285.99,-2285.95 1262.46,0 2285.99,1023.48 2285.99,2285.95z"/>
</symbol>
<symbol id="Fm76-258-0" viewBox="247006.08 -565365.49 1371 6053.66">
 <path class="fil0" d="M247006.08 -559311.83c0,0 1205.83,-2447.62 1371,-5239.91l-76.38 -813.75c0,0 62.69,1706.43 -1294.62,6053.66z"/>
</symbol>
<symbol id="Fm23-142-0" viewBox="118666.45 -377428.33 4571.98 2537.52">
 <path class="fil0" d="M118666.45 -374890.82c0,0 2314.2,-2426.26 4571.98,-1312.96 0,0 -1251.93,-1787.2 -2646.34,-1043.4 -1395.18,743.8 -1925.64,2356.37 -1925.64,2356.37l0 -0.01z"/>
</symbol>
<symbol id="Fm82-272-0" viewBox="146439.54 -329767.18 4571.98 608.58">
 <path class="fil0" d="M146951.5 -329745.28c0,0 1807.55,563.31 4060.02,343.76 0,0 -3184.34,691.2 -4571.98,-258.31l19.18 -107.35 492.78 21.9z"/>
</symbol>
<symbol id="Fm112-114-0" viewBox="44381.85 -17128.61 4573.27 4630.43">
 <g style="clip-path:url(#id0)">
  <image x="44381.85" y="-17128.61" width="4573.27" height="4630.43" xlink:href="art-pikachu-desing-tatto_Images\art-pikachu-desing-tatto_ImgID1.png"/>
 </g>
</symbol>
<symbol id="Fm108-96-0" viewBox="51254.3 -31965.67 4571.98 4571.98">
 <path class="fil2" d="M51254.3 -29679.68c0,-1262.47 1023.52,-2285.99 2285.99,-2285.99 1262.47,0 2285.99,1023.52 2285.99,2285.99 0,1262.47 -1023.52,2285.99 -2285.99,2285.99 -1262.47,0 -2285.99,-1023.52 -2285.99,-2285.99z"/>
</symbol>
<symbol id="Fm58-218-0" viewBox="336825.45 -1074854.2 2613.34 6053.66">
 <path class="fil0" d="M337604.27 -1074854.2c0,0 -1324.17,1836.58 -519.26,3665.63 802.18,1829.73 1490.64,2388.03 1490.64,2388.03l863.14 -1319.38c0,0 -2192.11,-203.46 -1834.53,-4734.28l0.01 0z"/>
</symbol>
<symbol id="Fm91-300-0" viewBox="7347.15 -29118.47 4573.28 1565.24">
 <g style="clip-path:url(#id1)">
  <image x="7347.15" y="-29118.47" width="4573.28" height="1565.24" xlink:href="art-pikachu-desing-tatto_Images\art-pikachu-desing-tatto_ImgID2.png"/>
 </g>
</symbol>
<symbol id="Fm6-222-0" viewBox="44841.36 -3878.55 4571.98 4572.02">
 <path class="fil2" d="M49413.34 -1592.54c0,1262.48 -1023.54,2286.01 -2286.01,2286.01 -1262.48,0 -2285.97,-1023.54 -2285.97,-2286.01 0,-1262.48 1023.49,-2286.01 2285.97,-2286.01 1262.48,0 2286.01,1023.54 2286.01,2286.01z"/>
</symbol>
<symbol id="Fm68-240-0" viewBox="289821.96 -530407.3 1399.81 6053.66">
 <path class="fil0" d="M289821.96 -530407.3c0,0 650.81,2838.04 609.86,3276.5 -40.95,438.46 -107.62,1902.05 -107.62,1902.05 0,0 -187.7,1103.04 52.54,832.35 239.16,-269.96 845.03,-2852.17 845.03,-2852.17l-1399.81 -3158.73z"/>
</symbol>
<symbol id="Fm57-216-0" viewBox="312098.59 -989717.16 4571.41 5962.31">
 <path class="fil0" d="M312695.03 -989717.16c0,0 1229.5,4860.98 3974.97,5307.78 0,0 -1048.25,2050.23 -3127.63,-1106.55 -2079.38,-3156.78 -1482.38,-2472.95 -847.34,-4201.23z"/>
</symbol>
<symbol id="Fm109-98-0" viewBox="80576.57 -39564.69 4571.98 4572.02">
 <path class="fil2" d="M80576.57 -37278.68c0,-1262.48 1023.54,-2286.01 2286.01,-2286.01 1262.48,0 2285.97,1023.54 2285.97,2286.01 0,1262.48 -1023.49,2286.01 -2285.97,2286.01 -1262.48,0 -2286.01,-1023.54 -2286.01,-2286.01z"/>
</symbol>
<symbol id="Fm65-234-0" viewBox="274559.56 -520117.19 1826.91 6053.66">
 <path class="fil0" d="M275801.55 -520117.19l584.92 6053.66c0,0 -960.44,-3423.29 -1662.84,-3952.84 -702.4,-530.97 1077.92,-2100.82 1077.92,-2100.82z"/>
</symbol>
<symbol id="Fm35-168-0" viewBox="50971.11 -136101.37 4571.97 1542.24">
 <path class="fil0" d="M50971.11 -135138.84c0,0 2010.42,583.32 2993.67,305.66 0,0 1242.24,-21.92 1577.04,-1268.19 0,0 54.39,624.76 -553.9,1118.47 -608,493.99 -3.25,37.69 -3.25,37.69 0,0 -1085.52,336.57 -1489.69,367.26 -403.97,30.41 -1773.64,104.53 -2523.86,-560.9l-0.01 0.01z"/>
</symbol>
 <g id="Capa_x0020_1">
  <metadata id="CorelCorpID_0Corel-Layer"/>
  <rect class="fil12 str0" x="-0" width="5079.99" height="3386.66"/>
  <g id="_1964659241936">
   <path class="fil13" d="M4597.19 987.44c-59.61,-142.51 -121.94,-282.7 -198.74,-411.55l0 0c-279.73,313.51 -573.02,586.44 -846.93,917.44l0 0c-121.97,143.5 -228.57,298.54 -330.11,456.86l0 0 370.59 223.52c559.47,-133.9 868.57,-686.65 1005.19,-1186.27l0 0z"/>
   <path class="fil14" d="M3551.52 1493.33c273.91,-331 567.2,-603.93 846.93,-917.44 -42.76,-71.73 -89.95,-140.01 -143.77,-203.09 -475.42,481.66 -1226.7,1460.71 -1226.7,1460.71l0 0 193.43 116.68c101.54,-158.32 208.14,-313.36 330.11,-456.86l0 0z"/>
   <path class="fil15" d="M4670.39 229.53c-12,-62.2 -31.67,-102.97 -57.84,-114.86 -52.03,-23.66 -187.19,85.19 -357.87,258.14 53.83,63.08 101,131.33 143.78,203.09 49.38,-55.37 98.41,-111.84 146.78,-170.29 46.06,-59.22 85.67,-118.43 125.15,-176.08z"/>
   <path class="fil16" d="M4545.23 405.61c-48.37,58.44 -97.39,114.92 -146.78,170.28 76.8,128.84 139.13,269.02 198.74,411.55 85.15,-311.42 103.26,-602.11 73.2,-757.91 -39.48,57.64 -79.1,116.84 -125.16,176.08z"/>
   <path class="fil16" d="M713.25 1546.63c14.91,-286.02 71.23,-566.85 151.75,-843.89 -145.95,-125.13 -301.77,-233.68 -468.85,-320.53 -3.7,293.25 87.16,771.47 317.1,1164.42z"/>
   <path class="fil15" d="M467.42 114.66c-43.8,19.91 -69.41,120.5 -71.27,267.55 167.08,86.85 322.9,195.4 468.85,320.52 21.13,-72.73 43.84,-145.22 68.02,-217.46 -220.24,-235.83 -403.04,-399.06 -465.6,-370.61z"/>
   <path class="fil17" d="M2051.99 1833.51c0,0 -645.93,-841.77 -1118.95,-1348.24 -24.18,72.24 -46.9,144.73 -68.03,217.46 250.69,214.92 472.41,478.33 672.21,763.73l0 0c113.5,170.26 236.84,316.01 364,458l0 0 150.77 -90.95z"/>
   <path class="fil18" d="M1901.22 1924.46c-127.16,-141.99 -250.5,-287.74 -364,-458l0 0c-199.8,-285.4 -421.52,-548.81 -672.21,-763.73 -80.52,277.05 -136.86,557.86 -151.76,843.9 173.12,295.84 424.95,543.37 774.75,627.08l0 0 413.22 -249.25z"/>
   <path class="fil19" d="M4249.8 3359.9c0,-945.59 -766.54,-1712.14 -1712.13,-1712.14 -945.6,0 -1712.15,766.55 -1712.15,1712.14l3424.28 0z"/>
   <path class="fil16" d="M2092.66 2538.76c-77.82,134.79 -218.07,199.51 -313.24,144.56 -95.18,-54.96 -109.26,-208.77 -31.44,-343.56 77.82,-134.8 218.06,-199.51 313.24,-144.55 95.19,54.94 109.26,208.77 31.44,343.55z"/>
   <path class="fil16" d="M3381.79 2329.99c86.96,129.09 83.55,283.51 -7.61,344.92 -91.14,61.41 -235.53,6.54 -322.49,-122.53 -86.96,-129.1 -83.56,-283.52 7.6,-344.91 91.15,-61.41 235.53,-6.56 322.5,122.52z"/>
   <path class="fil20" d="M1382.62 2755.22c-214.31,0 -404.41,103.34 -523.11,263.1 -22.26,110.2 -33.99,219.93 -33.99,340.78l1206.53 0c-24.13,-335.72 -305.56,-603.88 -649.43,-603.88z"/>
   <path class="fil20" d="M3690.64 2755.22c214.33,0 404.42,103.34 523.11,263.1 22.27,110.2 34.01,219.93 34.01,340.78l-1206.53 0c24.11,-335.72 305.55,-603.88 649.41,-603.88z"/>
   <path class="fil21 str1" d="M2453.74 3088.86c0,0 355.85,0.82 387.33,-198.96"/>
   <path class="fil16" d="M2647.4 2773.85c0,24.89 -34.07,45.08 -76.13,45.08 -42.06,0 -76.13,-20.19 -76.13,-45.08 0,-24.91 34.07,-45.09 76.13,-45.09 42.06,0 76.13,20.18 76.13,45.09z"/>
   <path class="fil6" d="M2127.06 2306.48c0,71.85 -58.23,130.1 -130.09,130.1 -71.84,0 -130.08,-58.25 -130.08,-130.1 0,-71.84 58.24,-130.09 130.08,-130.09 71.86,0 130.09,58.25 130.09,130.09z"/>
   <path class="fil6" d="M3261.43 2314.41c0,71.84 -58.25,130.09 -130.11,130.09 -71.84,0 -130.08,-58.25 -130.08,-130.09 0,-71.85 58.24,-130.11 130.08,-130.11 71.86,0 130.11,58.26 130.11,130.11z"/>
   <path class="fil6" d="M1351.74 1534.02c0,-12.29 -9.95,-22.25 -22.24,-22.25 -12.3,0 -22.27,9.96 -22.27,22.25 0,12.28 9.97,22.25 22.27,22.25 12.29,0 22.24,-9.97 22.24,-22.25z"/>
   <path class="fil21 str2" d="M1351.74 1534.02c0,-12.29 -9.95,-22.25 -22.24,-22.25 -12.3,0 -22.27,9.96 -22.27,22.25 0,12.28 9.97,22.25 22.27,22.25 12.29,0 22.24,-9.97 22.24,-22.25z"/>
   <path class="fil6" d="M1420.57 2449.43c0,-3.88 -3.14,-7.02 -7.02,-7.02 -3.88,0 -7.03,3.14 -7.03,7.02 0,3.88 3.15,7.03 7.03,7.03 3.88,0 7.02,-3.15 7.02,-7.03z"/>
   <path class="fil21 str2" d="M1420.57 2449.43c0,-3.88 -3.14,-7.02 -7.02,-7.02 -3.88,0 -7.03,3.14 -7.03,7.02 0,3.88 3.15,7.03 7.03,7.03 3.88,0 7.02,-3.15 7.02,-7.03z"/>
   <path class="fil6" d="M3720.24 2384.09c0,-3.88 -3.15,-7.03 -7.03,-7.03 -3.88,0 -7.02,3.15 -7.02,7.03 0,3.88 3.14,7.02 7.02,7.02 3.88,0 7.03,-3.14 7.03,-7.02z"/>
   <path class="fil21 str2" d="M3720.24 2384.09c0,-3.88 -3.15,-7.03 -7.03,-7.03 -3.88,0 -7.02,3.15 -7.02,7.03 0,3.88 3.14,7.02 7.02,7.02 3.88,0 7.03,-3.14 7.03,-7.02z"/>
   <path class="fil6" d="M4098.23 1605.23c0,-3.88 -3.14,-7.02 -7.02,-7.02 -3.88,0 -7.02,3.14 -7.02,7.02 0,3.88 3.14,7.02 7.02,7.02 3.88,0 7.02,-3.14 7.02,-7.02z"/>
   <path class="fil21 str2" d="M4098.23 1605.23c0,-3.88 -3.14,-7.02 -7.02,-7.02 -3.88,0 -7.02,3.14 -7.02,7.02 0,3.88 3.14,7.02 7.02,7.02 3.88,0 7.02,-3.14 7.02,-7.02z"/>
   <path class="fil6" d="M765.39 1511.76c0,-3.88 -3.13,-7.03 -7.01,-7.03 -3.88,0 -7.03,3.15 -7.03,7.03 0,3.88 3.15,7.03 7.03,7.03 3.88,0 7.01,-3.15 7.01,-7.03z"/>
   <path class="fil21 str2" d="M765.39 1511.76c0,-3.88 -3.13,-7.03 -7.01,-7.03 -3.88,0 -7.03,3.15 -7.03,7.03 0,3.88 3.15,7.03 7.03,7.03 3.88,0 7.01,-3.15 7.01,-7.03z"/>
   <path class="fil6" d="M4541.2 291.78c0,-3.89 -3.15,-7.02 -7.03,-7.02 -3.88,0 -7.02,3.13 -7.02,7.02 0,3.87 3.14,7.02 7.02,7.02 3.88,0 7.03,-3.15 7.03,-7.02z"/>
   <path class="fil21 str2" d="M4541.2 291.78c0,-3.89 -3.15,-7.02 -7.03,-7.02 -3.88,0 -7.02,3.13 -7.02,7.02 0,3.87 3.14,7.02 7.02,7.02 3.88,0 7.03,-3.15 7.03,-7.02z"/>
   <path class="fil6" d="M2602.8 1821.08c0,-12.29 -9.96,-22.25 -22.25,-22.25 -12.31,0 -22.26,9.96 -22.26,22.25 0,12.29 9.95,22.26 22.26,22.26 12.29,0 22.25,-9.97 22.25,-22.26z"/>
   <path class="fil21 str2" d="M2602.8 1821.08c0,-12.29 -9.96,-22.25 -22.25,-22.25 -12.31,0 -22.26,9.96 -22.26,22.25 0,12.29 9.95,22.26 22.26,22.26 12.29,0 22.25,-9.97 22.25,-22.26z"/>
   <polygon class="fil22" points="1038.74,2205.21 1048.71,2205.21 1048.71,2173.71 1038.74,2173.71 "/>
   <polygon class="fil23" points="1059.48,2185.3 1027.97,2185.3 1027.97,2193.62 1059.48,2193.62 "/>
  </g>
 </g>
</svg>
