<?xml version="1.0" encoding="UTF-8"?>
<!DOCTYPE svg PUBLIC "-//W3C//DTD SVG 1.1//EN" "http://www.w3.org/Graphics/SVG/1.1/DTD/svg11.dtd">
<!-- Creator: CorelDRAW 2017 -->
<svg xmlns="http://www.w3.org/2000/svg" xml:space="preserve" width="50.7998mm" height="33.8666mm" version="1.1" style="shape-rendering:geometricPrecision; text-rendering:geometricPrecision; image-rendering:optimizeQuality; fill-rule:evenodd; clip-rule:evenodd"
viewBox="0 0 5079.98 3386.66"
 xmlns:xlink="http://www.w3.org/1999/xlink">
 <defs>
  <style type="text/css">
   <![CDATA[
    .fil0 {fill:none}
    .fil1 {fill:black}
   ]]>
  </style>
 </defs>
 <g id="Capa_x0020_1">
  <metadata id="CorelCorpID_0Corel-Layer"/>
  <rect class="fil0" x="-0" width="5079.99" height="3386.66"/>
  <rect class="fil0" x="-0" width="5079.99" height="3386.66"/>
  <g id="_1823448331504">
   <path class="fil1" d="M1282.56 2168.72c7.21,-5.02 20.24,-3.32 39.78,-17.45 42.69,-30.89 37.35,-92.18 12.15,-125.49 -18.14,-23.99 -44.48,-31.59 -61.31,-56.97 -22.22,-33.51 -19.25,-52.87 -13.87,-95.84 -26.12,51.01 -39.77,99.61 -26.1,161.81 4.05,18.38 13.8,35.95 6.73,53.81 -20.53,4.85 -35.88,-26.85 -36.9,-54.04 -34.93,33.53 -9.82,118.03 25.3,123.59 -21.39,-5.17 -42.54,-26.68 -52.85,-43.45 -39.84,-64.83 -19.44,-191.02 14.05,-235.97 -4.81,27.01 -8.48,49.49 10.2,75.82 4.89,6.89 1.47,4.2 8.23,8.15 -0.84,-50.58 -0.97,-80.46 13.23,-127.21 9.58,-31.56 29.47,-73.88 47.52,-94.03 0.01,52.29 -5.93,78.86 26.26,133.27 5.39,9.12 11.09,17.09 17,24.63 11.04,14.09 24.47,24.38 35.03,48.17 3.08,6.94 9.16,25.43 11.76,29.3 10.8,-7.87 13.01,-17.22 13.6,-34.49 16.56,27.49 18.61,100.73 10.4,135.51 -8.69,36.75 -42.04,76.21 -75.33,83.61 4.83,5.14 2.45,1.74 7.51,2.5 46.69,-15.68 80.5,-23.02 114.14,-70.24 27.46,-38.57 40.72,-94.33 27.72,-151.1 -5.55,7.01 -8.25,20.49 -11.48,29.5 -1.89,5.28 -3.57,9.77 -5.32,14.27 -5.06,13.02 -5.44,11.08 -10.15,13.73 -0.6,-30.27 2.77,-51 -4.47,-80.75 -4.18,-17.17 -17.63,-48.18 -27.18,-57.56 -0.99,17.06 6.61,43.24 -4.26,54.51 -16.54,8.19 -43.05,-30.49 -50.73,-41.61 -28.95,-41.86 -46.25,-99.32 -40.03,-152.77 4.17,-35.81 15.08,-48.71 23.56,-76.4 -52.43,14.84 -100.2,50.54 -123.13,84.76 -38.57,57.58 -34.24,147.54 -50.02,156.08 -15.98,4.88 -26.11,-20.94 -29.1,-38.48 -11.62,17.29 -16.06,55.05 -18.31,79.15 -3.2,34.3 0.43,59.75 4.11,92.84 -18.55,-5.21 -22.22,-18.34 -30.44,-26.21 6.19,88.34 46.24,136.01 120.07,162.3 11.63,4.14 24.28,7.42 36.64,9.36 14.82,2.32 31.3,0.85 45.99,3.39zm1080.22 -1903.27c-12.52,-1.65 -17.74,-3.75 -30.7,-2.17 -30.65,3.75 -9.6,1.96 -18.23,7.75l24.24 13.71c3.87,0.98 18.14,2.06 21.17,2.33l3.52 -21.62zm-552 -14.47l10.22 17.46c4.86,8.33 2.29,5.96 8.92,14.9 22.18,0.32 41.3,3.98 60.29,-4.92l2.55 -79.04 -83.41 -2.12c1.09,22.81 5.92,34.1 1.43,53.72zm1308.74 505.29c2.95,-46.82 7.37,-62.36 -1.68,-105.6 -5.62,-26.79 4.71,-49.14 -1.33,-88.62 -8.65,-56.58 3.32,-42.16 1.77,-91.09l9.97 -259.13c3.92,-35.67 48.1,-55.17 -33.29,-56.03 -18.27,-0.19 -38.11,-4.71 -45.91,-4.32 -25.34,1.26 -65.09,5.7 -101.76,5.64 -93.48,-0.23 -76.68,-6.8 -111.77,31.63 -16.03,17.56 -30.92,16.06 -51.17,34.98 25.14,19.23 8.3,-4.59 22.28,22.89l20.16 45.74c5.88,15.69 0.18,1.62 5.33,11.61 25.39,49.36 5.89,30.21 -6.72,64.68 -7.17,19.64 -3.69,23.76 -5.14,43.06 -1.98,26.29 -4.94,55.1 -3.69,89.88 4.33,119.9 -28.04,151.98 24.4,151.59 -0.11,-32.88 -6.63,-271.43 5.67,-305.61 16.3,-45.26 -7.81,6.36 -5.2,-114.16l52.6 0.16c23.59,4.69 10.71,1.66 19.99,7.9 -1.01,35.93 4.05,21.21 -21.58,35.47 19.31,44.03 22.46,27.1 21.93,59.12l0.77 188.17 41.94 -290.77c51.59,-4.32 34.76,-10.89 54.11,109.34l16.63 112.09 11.2 -88.66c4.43,-52.75 9.84,-5.01 4.04,-99.59l-2.83 -32.81c30.57,-4.15 26.9,-0.27 51.23,6.48 25.33,7.02 -7.48,-4.23 7.85,1.16l0.79 449.68c-29.12,1.78 -63.28,7.46 -89.17,-2.63l-40 -273.12c-11.17,20.1 -35.17,237.17 -36.38,276.37l-58.21 1.75c-30.71,-0.02 -37.77,-6.47 -37.8,-6.28 -23.26,9.8 -11.54,-2.72 -11.76,26.83 -0.09,11.87 -1.27,18.81 0.02,32.11 44.36,15.82 236.04,12.83 292.71,10.09zm-1136.25 -99.56c0.88,-12.96 5.11,-38.87 5.24,-44.28 0.17,-6.71 0.24,10.99 -0.81,-11.44l14.6 -234.14c3.41,-44.53 -5.46,-68.61 41.38,-66.98 21.03,54.56 14.46,236.14 -0.94,302.11 -8.61,36.87 -16.34,57.12 -59.47,54.73zm-71.02 -391.56c-3.74,63.67 -10.89,-1.7 -5.83,82.04 2,33.3 -1.84,76.4 -4.49,108.16 -5.62,67.4 -10.94,139.63 -13.25,208.05l-1.14 70.33c95.17,3.5 199.55,31.04 243.9,-95.38 3.23,-9.21 19.51,-292.23 21.96,-331.85 -15.93,-10.57 10.98,-0.83 -4.14,-0.34l-5.23 0.34c-0.1,-23.18 0.5,-33.13 -32.71,-62.71 -23.71,-21.13 -32.49,-16.22 -55.71,-43.74l-30.57 0.08c-4.92,-1.28 -88.53,0 -110.36,2.71l-2.43 62.31zm-895.96 49.01c41.26,-1.66 56.59,8.59 55.82,51.45 -0.78,44.19 -13.49,51.3 -56.46,50.99l0.64 -102.44zm-144.1 387.78l144.74 -0.28 -0.93 -180.49c54.33,-5.99 88.24,0.96 134.86,-24.73 35.98,-19.82 53.52,-47.37 64.83,-93.71 19.52,-80.04 -13.11,-158.81 -87.15,-186.82l-25.74 -12.07 -229.18 8.88c-7.46,82.6 12.86,452.33 -1.43,489.22zm688.19 -283.24l1.47 97.27 -51.72 -3.7c-1.03,-24.78 6.53,-32.58 9.93,-52.43 3.6,-21.01 9.45,-37.75 7.68,-56.81 5.78,-21.13 5.38,-16.82 8.44,-40.28 1.76,-13.5 3.77,-18.83 4.34,-38.48l17.87 20.56c27.79,42.44 4.36,-3.01 27.08,28.29 -3.96,17.21 -10.15,35.96 -25.09,45.58zm-158.17 1.8l-53.33 152.2c1.14,37.91 -23.33,70.61 -25.02,109.8l74.5 7.77c16.16,0.64 26.24,2.86 40.45,3.95 12.89,0.99 11.25,10.02 24.16,-9.03 7.38,-10.89 14.28,-46.07 16.37,-62.51l89.45 4.55c13.93,63.17 -20.39,89.97 148.8,82.41 8.38,-29.08 -60.69,-425.91 -71.47,-494.35 -54.89,2.48 -112.75,-15.95 -172.99,-10.19l-70.92 215.4zm2067.18 -24.36c19.95,27.57 21.53,8.8 24.84,45.83 2.09,23.26 3.75,48.34 4.54,73.84l-53.03 -4.04 23.65 -115.63zm-93.58 299.44c16.56,-1.35 9.51,1.56 21.94,-3.94l20.77 -68.56 87.66 4.59 10.15 71.05 141.56 13.79 -74.04 -491.65c-35.79,-9.09 -69.64,-5.71 -87.08,-16.76l-88.62 0.69c-17.25,72.79 -52.99,162.54 -76.9,237.32 -12.95,40.52 -70.77,206.97 -69.68,241.13l114.24 12.34zm-895.81 -297.07l25.37 16.12 5.47 101.17 -52.69 -4.44 21.85 -112.85zm-113.3 -24.34c-16.42,49.64 -92.85,272.04 -91.98,308.02 43.19,4.63 111.05,18.25 138.46,9.81l16.41 -69.6 88.62 6.79c2.06,11.76 6.2,63.54 15.23,70.01 1.83,1.31 140.19,24.15 136.05,3.38l-50.16 -337.91 -22.76 -144.18c-35.79,-10.73 -136.7,-18.07 -175,-14.92l-54.87 168.6zm1472.42 -139.98l52.43 3.66c39.57,70.78 19.73,142.01 57.92,157.55l8.42 -157.71 61.77 7.7 -15.29 338.48 -52.71 -4.91c-11.17,-27.61 -26.95,-140.03 -50.95,-152.73 -15.86,40.74 -2.53,105.24 -13.4,146.12 -25.53,5.33 -37.6,2.69 -64.23,-2.34l16.04 -335.82zm-25.68 108.59c5.81,27.85 1.45,69.08 -1.75,105.5 -1.75,19.96 -5.93,92.47 -14.9,106.73 8.23,40.6 -6.34,85.62 -6.73,128.21l141.45 13.05c183.51,14.71 245.77,60.29 249.96,-17.48 0.99,-18.46 1.76,-39.91 -4.48,-50.8 -8.3,36.58 6.49,29.53 -17.73,33.88 -13.49,-39.57 7.14,-36.71 19.56,-59.76 -0.44,-68.19 -12.14,-119.66 -4.38,-185.21 0.79,-6.72 1.75,-14.51 1.15,-21.18 -2.6,-28.7 -0.8,-4.94 -4.73,-17.71 -5.55,-17.98 -5.26,-20.38 -6.45,-41.77 -1.71,-30.75 -9.3,-56.57 -9.73,-87.29 35.05,0.05 18,1.86 40.05,18.08l13.33 -21.96 -5.47 -16.62c-104.18,-21.28 -290.46,-48.06 -400.87,-51.19l11.72 165.52zm-512.68 -79.33c1.24,1.53 3.88,8.35 4.88,9.67 3.37,4.44 35.18,34.95 40.44,-2.09l-9.13 -5.49c-25.93,-8.37 12.46,-1.11 -36.19,-2.09zm-1936.86 1.5c4.58,12.17 9.42,18.32 23.5,19.75 27.49,2.79 13.09,1.98 25.75,-10.53 -10.89,-9.82 20.25,-12.52 -49.25,-9.22zm640.96 932.21l0 318.9c3.24,6.37 -2.84,29.08 4.77,43.9 2.82,5.48 6.43,9.18 12.27,12.22 5.98,3.11 16.38,3.77 19.4,5.62l1231.68 0c5.46,-4.09 19.51,-5.79 25.72,-21.37 1.61,-4.01 1.93,-10.14 3.44,-12.87l0 -42.55c-1.91,-4.26 -0.56,-271.07 -0.56,-300.48 0,-24.05 -3.6,-43.27 -28.15,-47.26 -4.76,-0.78 -20.06,-0.55 -22.67,-1.74l-1197.05 0c-6.24,2.79 -23.69,-3.37 -37.5,9.7 -4.19,3.97 -6.84,7.63 -8.8,14.84 -1.15,4.25 -1.96,19.73 -2.55,21.09zm455.02 12.35l-0.02 0.82 -0.61 57.46 379.99 0 0.14 -98.69 -379.78 0 0.28 40.41zm-377.46 58.28l239.32 -0.16c0.81,-28.92 0.14,-67.79 -0.02,-97.89 -80.26,-0.7 -159.14,0.21 -239.3,-0.57l0 98.62zm886.12 -29.7l0.34 29.24c79.1,1.14 158.06,0.47 237.19,0.46 0.94,-22.66 0.49,-45.41 -0.13,-68.08 -0.2,-7.03 1.65,-24.69 0.45,-29.82 -59.12,-0.93 -116.46,-0.18 -175.3,-0.38 -9.31,-0.03 -57.58,-1.35 -62.45,0.2l-0.1 68.38zm57.49 233.01c-1.94,-7.13 -1.1,-133.09 -0.83,-150.53 0.38,-24.16 2.52,-29.04 -23.33,-26.7 -0.87,7.29 0.46,66.91 0.56,79.79 0.12,16.99 1.5,64.66 -2.08,78.42 -1.02,1.56 -6.96,2.08 -8.69,2.27 -1.88,18.4 -1.34,55.56 -0.2,76.06 0.32,5.58 -0.42,8.68 4.66,10.5 6.61,2.36 20.65,2.71 26.69,-0.67 2.55,-6.26 2.73,-20.96 2.95,-28.6 0.9,9.21 0.05,20.69 3.21,29.1 6.1,1.72 21.34,3.12 26.81,0.53 4.59,-2.17 6.31,-17.09 5.81,-23.64 0.18,5.95 -0.76,16.45 2.19,20.89 4.55,4.6 18.68,5.89 25.88,3.17 9.06,-3.42 6.25,-15.73 6.25,-25.13 0,-12.82 2.03,-53.46 -0.88,-62.29l-8.91 -1.5c-3.06,-22.6 -1.57,-55.73 -1.51,-79.11 0.07,-26.14 1.36,-54.08 0.3,-79.96l-11.41 -0.11c0.06,24.85 2.79,144.47 -1.56,159.21l-9.63 1.77c-1.65,18.09 -0.94,36.07 -1.35,54.58 -1.35,-17.72 1.22,-36.5 -0.84,-54.35l-6.44 -1.55c-2.26,-0.79 -0.79,-0.05 -2.38,-1.2 -3.76,-15.19 -1.27,-59.29 -1.15,-77.59 0.08,-13.32 -0.1,-26.68 -0.15,-40.01 -0.04,-12.13 1,-28.48 -0.01,-40.01 -5.34,-2.39 -16.88,-2.51 -20.55,1.61 -4.21,4.72 -3,15.34 -2.96,22.07 0.08,16.88 0.04,33.76 0.05,50.63 0.02,34.14 0.16,68.21 -0.5,102.35zm-919.71 -15.55c-1.69,9.41 -0.69,56.2 -0.64,69.18 0.05,14.91 1.3,18.01 16.74,17.82 4.74,-0.07 11.51,0.04 14.16,-2.85 3.1,-3.37 1.89,-9.81 3.81,-13.64 2.45,6.18 -3.66,17.97 17.7,16.43 15.32,-1.11 17.48,-3.01 17.48,-18.58 0.01,-11.75 -0.63,-23.28 -0.59,-35.12 0.03,-11.3 1.79,-23.06 -0.57,-34.09 -14.77,-3.07 -10.86,-3.82 -10.31,-31.24 0.36,-18.72 0.82,-124.96 -0.52,-129.34 -18.94,-0.48 -22.69,-2.95 -22.72,18.28 -0.03,9.98 1.73,32.99 -0.35,40.95 -3.19,-6.4 -0.63,-31.03 -0.84,-40.13 -0.46,-19.37 -1.25,-20.91 -22.14,-19.41 -2.1,9.54 -0.48,71.29 -0.27,85.53 0.26,17.1 0.75,47.62 -0.65,64.56 -1,11.94 -1.89,7.43 -10.29,11.65zm777.2 63.09c0.76,1.33 -0.07,-1.25 0.78,1.78 1.14,4.16 0.06,16.09 3.32,19.53 4.26,4.11 20.3,4.03 26.2,1.41 6.03,-2.68 5.82,-18.2 5.6,-25.62 -0.6,-20.18 0.7,-41.68 -0.98,-61.29 -13.44,-1.62 -10.38,-5.75 -10.25,-32.62 0.07,-14.43 0.29,-28.85 0.39,-43.28 0.22,-28.3 0.26,-56.66 -0.62,-84.91 -22.79,-1.02 -22.61,-1.03 -23.15,21.23 -1.05,44.17 0.67,87.79 -0.33,130.46 -2.86,-22.18 -0.99,-98.91 -1.03,-130.47 -0.01,-5.99 1.05,-16.19 -3.11,-19.07 -3.18,-2.2 -15.13,-2.42 -19.39,-1.68 -3.93,23.51 3.12,148.77 -1.45,157.02 -3.16,5.73 -8.93,-1.41 -9.52,9.85 -1.05,20.1 1.09,41.54 0.09,59.66 -0.93,16.61 -0.96,22.08 16.91,21.92 15.75,-0.14 15.85,-2.31 16.54,-23.92zm47.65 -205.42l0.27 126.57c0.25,19.05 -2.7,9.95 -10.61,15.52 -2.26,14.3 -0.55,36.92 -0.56,52.26 -0.01,7.33 -1.33,26.88 2.33,31.75 3.82,5.09 24.03,5.2 29.09,0.68 2.28,-2.9 4.62,-28.55 2.82,-31.86 0.57,7.66 0.73,26.77 3.75,32.26 2.85,2.83 18.74,3.11 26.13,0.48 3.78,-1.34 4.19,-1.83 4.78,-5.87 2.74,-19.09 0.98,-60.17 0.42,-80.46l-9.77 -1.93c-4.89,-19 -1.66,-148.23 -1.55,-158.94l-11.56 -0.05c0.15,20.08 2.49,153.79 -1.45,158.57 -1.17,1.41 -6.88,1.93 -9.2,2.38l-1.44 14.4 -0.52 -14.14 -9.49 -2.1c-4.22,-26.56 -1.37,-140.71 -1.16,-159.02l-12.13 -0.17 -0.15 19.67zm200.95 25.32l-0.13 116.28c2.44,11.26 -0.82,69.84 2.35,84.23 8.39,3.96 29.87,9.13 32.45,-5.16 0.67,-3.76 0.04,-9.07 0.3,-10.83 0.69,-4.49 0.08,-1.92 1.41,-3.39 1.27,-4.43 1.32,-55.61 0.07,-59.84 -2.33,-2.55 -0.93,-1.42 -2.12,-5.09 -10.57,-3.16 -11.81,0.15 -10.3,-32.1 0.67,-14.41 -0.03,-28.84 -0.16,-43.27 -0.24,-28.47 -0.1,-57.1 -0.13,-85.58 -11.93,-1.3 -22.18,-2.51 -22.88,10.43 -0.59,10.75 -1.06,23.64 -0.86,34.32zm-815.88 117.23c-3.35,-2.71 -6.2,-2.1 -8.84,-4.2 -3.91,-4.64 0.33,-139.24 -1.11,-153.95 -0.53,-5.45 -6.03,-4.88 -13.19,-3.85 -11.92,1.73 -11.13,11.21 -11.13,23.54l0.54 207.43c0.04,15.93 0.78,17.4 17.08,17.43 16.06,0.02 17.06,-1.77 17.07,-17.44 0,-21.02 1.68,-48.73 -0.42,-68.96zm427.62 -0.46c-3.81,12.72 -1.57,46.23 -1.24,59.61 0.19,7.89 -1.37,22.94 5.35,25.95 7.81,3.48 18.98,1.76 26.61,-0.72 2.45,-21.33 1.31,-43.72 2.58,-65.24 1.35,-22.7 -0.15,-45.1 -0.33,-67.78 -0.17,-22.21 1.27,-45.23 -0.12,-67.28 -1.23,-19.64 3.4,-43.37 -6.17,-45.32 -1.82,-0.38 -14.84,-0.42 -16.75,-0.17 -2,41.44 -0.11,103.29 -0.19,148.72 -0.02,11.64 -1.59,8.21 -9.74,12.23zm68.33 -0.06c-10.93,-4.46 -9.68,1.43 -10.25,-32.59 -0.35,-21.58 1.35,-117.89 -0.07,-128.41 -5.02,-1.84 -18.04,-0.72 -20.82,2.44 -3.78,4.3 -2.19,15.64 -2.17,22.24l-0.52 149.45c-0.04,8.93 -1.72,63.5 2.59,69.73 2.53,3.67 15.62,4.86 20.65,4.52 9.26,-0.64 10.75,-4.73 10.91,-13.81 0.15,-8.23 -0.07,-16.66 0.3,-24.66 0.7,-15.45 0.88,-33.61 -0.62,-48.91zm-554.49 -161.12l0.06 148.96c0,9.99 -0.8,10.14 -9.83,11.95 -0.4,19.62 0.04,39.42 -0.07,59.07 -0.05,7.9 -2.28,21.75 3.49,26.18 4.57,3.5 22.04,2.43 27.12,0.1 5.79,-10.38 2.48,-50.13 2.51,-64.66l0.98 -137.2c0.08,-9.67 -0.89,-22.87 -1.55,-33.31 -0.7,-11.37 1.1,-11.47 -22.71,-11.09zm248.62 -0.22c-1.42,9.02 -0.61,25.09 -0.62,34.83 -0.03,20.85 1.34,113.13 -1.17,121.67 -2.15,7.3 -8.68,-1.59 -9.56,8.19l0 71.01c0.47,12.53 6.73,14.68 23.18,11.99 12.55,-2.04 12.39,-11.17 11.56,-23.41 -1.85,-27.49 -0.56,-76.2 -0.56,-105.34 0,-23.68 0,-47.36 0,-71.04 0,-37.92 5.95,-51.25 -22.83,-47.9zm625.67 160.91l0.13 -116.28c-1.21,-10.45 -0.4,-23.39 -0.99,-34.34 -0.76,-14.37 -10.45,-11.22 -22.57,-10.42 -1.22,11.03 -0.07,28.18 0,39.86 0.16,23.25 1.72,106.48 -1.7,118.97 -12.99,3.83 -9.12,-5 -9.44,45.98 -0.06,10.01 -1.41,34.04 2.17,41.65 5.51,3.26 20.23,3.36 26.31,0.94 5.02,-2.02 4.43,-3.75 4.59,-9.9 0.14,-5.18 0.32,-10.36 0.43,-15.54 0.25,-11.87 0.07,-53.37 1.07,-60.92zm-530.19 0.49c-1.06,8.38 -0.42,21.33 -0.53,30.24 -0.11,9.77 -0.21,19.57 -0.26,29.37 -0.04,8.21 -1.59,21.8 4.56,25.5 6.52,3.92 19.32,2.35 26.64,0.16 6.34,-15.65 3.08,-165.52 2.96,-201.23 -0.04,-10.98 0.26,-23.42 -0.36,-34.24 -0.28,-4.99 -1.65,-9.54 -5.82,-11.05 -3.23,-1.16 -12.9,-0.94 -16.21,0.07 -0.1,28.41 -0.14,56.82 -0.28,85.24 -0.06,14.3 -0.46,29.02 -0.1,43.27 0.89,35.73 -0.66,27.66 -10.6,32.67zm-38.59 0c-8.37,-5.12 -9.67,3.95 -9.74,-25.31 -0.1,-41.11 0.97,-82.31 0.63,-123.31 -0.11,-12.81 1.12,-12.68 -4.37,-13.33 -14.98,-1.77 -18.9,1.4 -19.06,15.76 -0.77,70.22 1.69,143.63 -0.18,213.15 -0.55,20.31 2.17,21.21 24.59,19.39 5.85,-0.47 5.5,0.05 6.99,-1.81 4.07,-5.06 3.61,-76.23 1.14,-84.54zm-198.14 -160.87c-2.04,12.68 1.27,96.85 -0.87,102.35 -3.26,8.36 0.4,-4.07 0.57,16.06 0.08,8.89 1.05,32.86 -1.6,40.01 -4.34,1.26 -6.87,-0.41 -8.69,3.44 -2.23,4.75 -0.74,30.73 -0.74,37.39 -0.01,10.5 -3,41.05 3.78,46.57 4.02,3.26 16.39,3.25 21.96,1.57 7.89,-2.39 8.04,-8.13 8.01,-17.1l0.01 -203.34c0,-6.82 0.92,-17.49 -1.72,-23.32 -2.62,-5.82 -13.33,-5.83 -20.71,-3.63zm-307.12 0.1c-15.58,-2.57 -22.1,-1.86 -22.68,10.49 -0.51,11.13 0.09,23.82 0.09,35.14 0,23.68 -0.01,47.36 -0.01,71.04 0,34.1 0.69,72.57 0.03,106.17 -0.23,11.82 -2.47,23.84 10.39,25.23 4.23,0.46 11.81,-0.03 15.93,-1.04 5.92,-1.46 6.77,-4.86 7.01,-11.09 0.46,-11.44 -0.44,-23.52 -0.15,-35.17 1.4,-57.43 0.48,-34.9 -8.2,-43.22 -3.07,-2.94 -1.95,-11.58 -1.88,-16.38 0.14,-9.38 0.41,-132.24 -0.53,-141.17zm611.99 160.19c-13.85,-3.14 -10.87,-1.81 -10.51,-32.09l0.01 -128.24c-25.14,-3.81 -22.75,2.6 -22.74,24.53l-0.01 195.99c-0.07,22.54 -4.12,28.77 22.16,27.21 15.23,-0.91 11.35,-11.71 11.59,-37.83 0.13,-14.21 1.44,-36.16 -0.5,-49.57zm579.36 -148.04c0,6.48 1.34,142.42 -1.04,145.33 -1.62,1.98 -8.34,0.62 -9.2,3.29l-0.26 58.8c-0.18,7.92 -1.57,20.88 2.76,26.45 3.58,0.94 17.14,1.82 21.43,1.66 12.13,-0.48 9.77,-8.43 9.74,-24.03l-1.05 -221.16c-1.54,-5.5 -18.52,-3.71 -22.37,-3.16l-0.01 12.82zm-828.91 233.55c3.89,-10.57 2.64,-29.27 2.13,-41.22 -2.05,-46.62 6.34,-41.59 -9.43,-46.3 -4.22,-36.99 -1.39,-117.1 -1.65,-158.99 -26.82,-1.37 -22.41,-2.15 -22.41,53.79l0 151.89c0,7.13 -0.9,32.84 1.19,37.56 3.12,7.06 22.98,6.66 30.17,3.27zm572.11 -345.43l0.23 25.13c20.09,1.22 19.14,0.49 40,0.29l115.84 0 0 -36.04 -156.06 -0.1 -0.01 10.72zm244.53 260.24c-3.46,-2.11 -6.51,-1.15 -9.03,-3.13 -3.98,-4.09 -1.96,-30.75 -1.96,-38.25 -0.01,-13.34 -0.02,-26.69 -0.02,-40.01 -0.01,-26.62 -0.02,-53.23 -0.04,-79.84 -3.54,-0.42 -8.22,-0.82 -11.41,0.39 -0.74,31.46 -0.22,62.73 0.03,94.14l-0.26 59.12c-1.67,11.98 -10.62,0.52 -10.61,13.5 0.03,20.11 -1.31,39.15 -0.38,59.67 0.26,5.79 -1.1,17.07 4.04,19.66 4.78,2.4 15.7,3.19 21.83,2 12.78,-2.48 8.37,-20.44 8.49,-39.62 0.06,-9.26 1.67,-41.56 -0.68,-47.63zm-1166.45 -0.96c-0.76,20.74 -1.28,56.24 0.32,77.22 0.58,7.66 0.6,10.98 16.41,11.06 10.23,0.06 15.04,0.13 16.66,-9.92 1.47,-9 0.38,-16.24 0.21,-24.84 -0.19,-9.23 1.08,-47.11 -0.91,-52.76 -8.66,-2.42 -8.32,0.94 -9.88,-11.14 -1.46,-11.16 0.53,-49.11 0.56,-63.52 0.06,-28.72 -0.65,-57.35 -0.67,-86.06l-11.11 -0.25c-1.95,46.59 0.21,101.17 -0.21,149.2 -0.1,11.16 -2.07,9.4 -11.38,11.01zm1097.99 5.74c1.25,4.23 1.2,55.41 -0.07,59.84 -0.98,5.07 -0.19,11.91 0.99,16.85 2.34,9.78 24.21,6.27 28.07,4.46 4.65,-2.17 4.28,-8.18 4.66,-14.11 0.63,-9.49 1.31,-66.69 -1.03,-71.7 -0.97,-1.12 -7.73,-2.29 -8.45,-3.05 -4.49,-10.09 -1.34,-136.16 -1.55,-158.46l-12.21 0 -0.33 120.01c-0.04,10.02 1.44,30.5 -0.94,38.85 -4.37,1.21 -7.08,0.92 -9.49,2.79l0.35 4.52zm-734.13 -6.96l-9.22 1.67 -0.96 75.12c0.62,12.24 4.44,12.5 16.57,12.52 22.97,0.02 17.58,-9.45 17.54,-41.95l-0.05 -39.2c-0.03,-16.16 -11.38,3.39 -11.38,-17.97l0.01 -148.92c-3.72,-0.01 -7.97,-0.55 -11.4,0.6l-1.11 158.13zm-212.73 0.52c-3.13,0.44 -7.23,0.66 -9.53,1.9 -0.87,0.99 -1.19,70.12 -0.44,77.34 1.02,9.9 7.31,9.56 16.82,9.55 20.29,-0.03 17.52,-2.94 17.6,-35.42 0.03,-16.92 0.35,-35.25 -0.75,-52.05 -7.01,-1.6 -10.98,-1.44 -11.67,-9.24 -0.54,-6.36 0.58,-14.62 0.69,-21.19 0.65,-41.24 -0.21,-88.29 -0.27,-130.04l-11.06 0.09c-0.55,21.54 1.59,143.46 -1.39,159.06zm-34.33 -20.95c0,8.1 0.08,12.49 -1.36,20.21l-9.06 2.25c-0.76,16.61 -1.11,58.73 -0.35,72.13 0.5,8.78 -0.04,14.15 8.63,14.97 29.48,2.78 25.25,-2.16 25.12,-38.51l-0.22 -47.74 -9.59 -2.77c-3.58,-47.31 -1.76,-113 -1.3,-159.37l-11.92 0 0.05 138.83zm627.56 22.26c-1.99,12.21 -2.58,77.07 2.25,85.48 5.26,2.32 20.87,3.67 26.02,0.78 6.23,-3.5 5.18,-18.02 5.03,-25.22 -0.41,-19.89 0.08,-40.07 -0.55,-59.9 -5.97,-2.83 -7.64,-1.53 -9.36,-4.83 -1.83,-3.83 -1.38,-140.31 -1.42,-157.4l-10.6 0.08c-2.89,40.87 0.68,104.59 -0.33,150.23 -0.24,10.86 -1.49,9.02 -11.04,10.78zm-142.31 0.61c-1.88,15.9 -0.21,41.79 -0.26,58.8 -0.02,7.68 -1.76,21.87 3.57,26.15 4.75,3.82 21.76,2.09 27.16,0.31 5.25,-9 4.37,-71.8 2.02,-85.06 -2.32,-1.29 -6.26,-1.61 -8.87,-3.46 -2.73,-7.46 -1.95,-65.94 -1.94,-78.39 0.02,-10.41 1.13,-75.76 0.29,-79.76l-11.01 -0.2c-1.41,13.38 -0.55,29.75 -0.44,43.2 0.24,30.48 1.93,77.81 -0.17,106.82 -0.95,13 -1.93,6.99 -10.35,11.59zm-96.21 -131.48c0.23,22.45 1.69,46.54 1.32,68.6l0.26 51.5c-0.42,12.18 -4.84,7.77 -11.48,11.38 -1.86,1.96 -0.51,40.18 -0.52,47.37 -0.02,8.72 -1.08,20.27 -0.27,28.57 0.98,10.01 7.05,12.25 17.18,11.52 11.01,-0.78 16.02,-1.1 16.46,-12.3 1.04,-26.44 0.37,-48.54 0.04,-75.17 -7.87,-3.89 -9.37,-1 -10.46,-11.73 -2.61,-25.79 0.7,-84.01 0.26,-112.38l-0.68 -37.25 -10.45 -0.21 -1.66 30.1zm-115.53 131.14c-2.34,6.08 -2.34,72.31 0.03,80.75 2.27,8.06 13.02,7.61 21.42,6.66 10.25,-1.14 11.51,-5.47 11.47,-16l0.26 -55.55c0.04,-3.47 0.34,-10.17 -0.9,-13.22 -1.68,-4.19 -6.31,-3.01 -9.92,-4.75 -3.88,-16.78 -1.71,-59.03 -1.66,-78.4 0.06,-26.79 0.44,-53.56 0.5,-80.34l-11 -0.37c-1.3,12.85 -0.53,29.19 -0.48,42.33 0.04,14.4 -0.08,28.91 0.22,43.29 0.37,17.53 1.07,46.33 0,63.72 -0.73,11.84 -0.07,8.57 -9.94,11.88zm-131.3 -160.79c0.23,35.04 2.59,129.74 -0.96,158.46l-10.05 2.17c-1.01,6.85 -0.27,19.15 -0.25,26.63 0.01,8.2 -0.53,49.6 0.53,54.3 1.9,8.47 12.69,6.86 21.59,6.24 11.23,-0.77 11.67,-4.45 11.58,-15.62 -0.07,-9.29 -0.31,-18.46 -0.11,-27.77 0.15,-6.89 1.14,-34.72 -0.37,-40.67 -1.07,-4.22 -4.54,-4.26 -8.94,-4.98 -3.17,-10.63 -2.3,-97.96 -2.17,-120.12 0.08,-12.44 1.75,-27.15 0.06,-39.14l-10.91 0.5zm387.89 158.7l-8.93 1.6c-0.8,7.02 -2.14,69.95 -0.83,78.4 1.97,12.73 20.2,10.69 28.14,7.7 4.33,-1.63 4.49,-3.09 4.86,-8.37 1.07,-15.28 1.27,-37.69 1.1,-53.22 -0.29,-26.49 1.47,-23.92 -11.06,-26.05 -7.29,-42.75 2.22,-129.84 -1.39,-158.86l-10.37 0.1c-1.51,4.44 0.14,68.87 0.19,79.48 0.14,24.72 1.16,55.24 -1.71,79.22zm-117.36 -275.29l-0.11 35.83 99.02 0.12 0.21 -35.06c-8.92,-2.85 -86.16,-1.96 -99.12,-0.89zm-0.74 76.56l99.84 0.19 0.03 -35.36 -99.23 -0.78 -0.64 35.95zm-355.97 -67.78c-47.28,6.34 -34.58,68.7 4.41,65.13 45.77,-4.2 35.31,-70.45 -4.41,-65.13zm-94.69 0.89c-45.56,10.92 -26.42,72.06 12.48,63.55 43.72,-9.56 28.19,-73.3 -12.48,-63.55zm624.79 -0.72c-46.59,8.1 -33.1,70.6 7.68,64.54 44.01,-6.54 31.38,-71.33 -7.68,-64.54zm-250.18 0.65c-44.19,10.88 -27.61,71.56 13.42,63.55 16.13,-3.15 28.56,-18.5 25.08,-38.16 -2.82,-15.94 -18.77,-30.24 -38.5,-25.39zm-99.25 48.96c-3.04,2.08 -4.26,0.34 -5.3,3.76 -2.12,7.03 3.98,-1.51 5.39,22.21l10.21 0.44 0.22 -15.16 6.1 -2.68 -0.65 -5.9c-6.32,-3.41 -5.65,-0.07 -5.62,-14.61l0.11 -46.02 -9.85 -0.04 -0.61 58zm-32.05 -22.56c8.05,7 6.36,1.83 5.78,20.39 -0.18,6.01 -0.66,22.97 0.32,28.03l9.52 0.42 0.61 -46.39 5.13 -2.1 -0.2 -6.07c-2.09,-1.55 -2.11,-1.02 -4.81,-1.8 -1.26,-9.86 0.02,-19.49 -1.03,-28.2l-9.4 0.07c-0.55,7.12 0.62,13.29 0.35,20.16 -0.46,11.73 -6.39,5.65 -6.27,15.49zm-43.35 -26.12c-1.54,2.33 -2.49,1.6 -5.29,2.17l0.38 7.62c6.2,2.98 5.04,1.87 5.5,10.58 0.86,15.83 0.2,39.08 0,54.71l9.36 -0.5 0.42 -60.7c2.61,-5.53 5.41,0.36 5.66,-10.67l-5.19 -2.56 -0.09 -9.92c-12.12,-1.61 -10.8,-2.47 -10.75,9.27zm1123.06 46.49l-0.87 41.2 23.9 -0.64 0.03 -78.4c0,-23.2 -19.36,-19.73 -22.82,-9.72 -1.87,5.42 -0.24,39.34 -0.24,47.56zm-86.18 -37.84l-0.26 197.68c0.45,4.92 -0.63,4.15 4.47,8.51l3.34 2.16c-43.89,6.39 -36.47,67.95 4.53,67.31 41.65,-0.66 46.94,-62.32 2.52,-67.56 11.93,-8.92 8.85,6.72 8.86,-31.52l-0.28 -147.14c0,-10.8 2.9,-33.7 -1.69,-41.02 -6.82,-10.9 -21.49,-6.35 -21.49,11.58zm108.92 152.5l-22.65 0.29c-2.36,18.19 -0.6,101.33 -0.63,130.99 -0.02,12.11 -4.37,34.86 10.65,36.07 16.54,1.33 12.71,-19.14 12.67,-31.87l-0.04 -135.48zm-21.45 -69.3c-44.82,14.79 -20.77,80.14 21.71,64.35 41.48,-15.42 19.27,-77.88 -21.71,-64.35zm84.25 50.66c-43.79,16.47 -18.22,78.79 23.08,63.85 41.13,-14.9 19.28,-79.79 -23.08,-63.85zm-0.46 -131.75l0.07 126.82 23.32 -0.74c-0.02,-21.76 3.29,-137.34 -3.61,-143 -15.34,-4.71 -19.78,0.15 -19.78,16.92zm23.38 200.92l-22.83 -0.21c-1.92,17.93 -0.55,42.84 -0.55,62.05 -0.01,14.65 -6.43,54.33 11.07,54.95 19.19,0.69 12.26,-36.85 12.31,-50.75 0.08,-22 0.02,-44.04 0,-66.04zm-194.61 95.46l-0.03 4.21c0,16.34 5.95,20.42 20.43,14.52 4.47,-10.29 2.99,-25.88 2.97,-38.74l-23.43 0.9 0.06 19.11zm165.42 1559.92c11.37,3.33 17.41,32.51 -7.47,32.95 -55.59,0.99 -69.79,5.97 -67.17,-21.26 1.05,-10.87 4.95,-12.28 16.25,-12.49 9.32,-0.18 52.99,-0.79 58.39,0.8zm-196.4 80.32c10.22,5.17 17.25,32 -10.26,32.23 -47.65,0.38 -70.43,6.98 -65.24,-22.84 1.81,-10.44 7.81,-10.85 17.96,-10.91 10.85,-0.07 50.97,-1.82 57.54,1.52zm-98.88 -0.46c7.98,3.14 9.94,11.98 7.62,22.36 -2.06,9.29 -8.73,10.32 -18.57,10.31 -44.1,0 -69.84,7.69 -64.21,-23.01 1.9,-10.31 8.02,-10.73 18.73,-10.72 10.89,0.01 49.54,-1.65 56.43,1.06zm197.27 0c11.39,4.64 15.63,32.42 -9.07,32.71 -48,0.55 -69.35,6.82 -66.5,-20.88 1.11,-10.78 6.36,-12.72 17.42,-12.89 9.61,-0.15 52.88,-1.09 58.15,1.06zm74.13 -7.21c-37.92,-0.01 -50.57,4.97 -51,-15.68 -0.43,-21.07 9.88,-17.93 34.71,-17.92 32.21,0 55.96,-5.74 48.36,24.69 -3.03,12.14 -17.86,8.91 -32.07,8.91zm-75.29 -33.07c12.57,3.31 16.41,32.41 -6.11,33.14 -8.6,0.29 -53.48,0.84 -58.94,-0.57 -11.89,-3.09 -17.14,-32.39 6.25,-33.2 8.78,-0.31 53.62,-0.75 58.8,0.63zm100.16 40.66c9.71,4.85 17.34,32.13 -10.28,32.31 -10.19,0.06 -52.09,1.21 -58.24,-1.13 -8.88,-3.38 -16.46,-32.45 10.95,-32.62 10.56,-0.08 51.2,-1.75 57.57,1.44zm-296.21 39.48c9.01,3.59 18.87,32.51 -11,32.45 -44.88,-0.09 -68.76,7.86 -64.43,-22.22 1.41,-9.8 6.55,-11.23 17.12,-11.36 10.15,-0.11 52.5,-1.19 58.31,1.13zm-1.31 -119.97c11.83,3.15 17.93,33 -7.88,33.22 -9.28,0.07 -53.04,0.97 -58.55,-1.03 -10.09,-3.65 -15.3,-32.04 7.61,-32.76 8.5,-0.27 54.03,-0.71 58.82,0.57zm100.29 120.3c7.95,3.94 9.57,11.14 7.4,21.8 -1.84,9.06 -7.38,10.31 -17.78,10.33 -9.79,0.01 -52.47,1.03 -58.14,-1.06 -8.52,-3.17 -17.09,-32.38 10.81,-32.53 10.78,-0.06 51.15,-1.8 57.71,1.46zm188.67 -126.94l-50.71 -0.02c-14.09,-0.02 -16.47,-3.35 -16.46,-17.63 0.02,-22.07 17.02,-15.79 65.35,-15.77 13.74,0.01 18.05,1.48 18.29,15.76 0.24,13.78 -3.06,17.66 -16.47,17.66zm-288.97 46.47c11.85,3.17 18.03,32.85 -7.88,33.15 -8.66,0.1 -53.68,0.75 -58.45,-1.02 -10.29,-3.84 -15.28,-31.65 7.52,-32.74 8.1,-0.38 54.14,-0.64 58.81,0.61zm183.95 112.5c-37.12,0 -60.42,5.93 -61.13,-15.48 -0.73,-21.97 12.24,-17.98 43.01,-17.91 28.97,0.06 42.59,-4.15 41.06,19.6 -0.97,15.04 -9.28,13.79 -22.94,13.79zm113.66 -32.04c10.04,4.88 16.75,32.1 -10.37,32.13 -8.91,0.02 -53.19,0.79 -58.19,-1.06 -8.85,-3.27 -16.28,-32.35 10.91,-32.53 10.79,-0.07 50.96,-1.79 57.65,1.46zm269.8 -1436.63c-100.53,17.59 -161.22,111.68 -144.74,202.6 15.73,86.65 97.37,164.49 206.43,143.77 84.58,-16.06 160.41,-96.86 141.52,-201.86 -15.68,-87.19 -96.85,-163.11 -203.21,-144.51zm-55.77 272.04l67.96 0.28 0.71 -11.79 -0.12 -188.92 -68.62 0.09 0.07 200.34zm101.05 -0.95l68.83 1.15 0.33 -200.03 -68.21 -0.29 -0.95 199.17zm-66.58 877.56c-103.9,23.75 -156.82,115.43 -138.64,206.26 20.08,100.36 118.04,158.72 209.91,138.29 81.6,-18.14 159.78,-100.99 136.24,-206.5 -22.5,-100.84 -116.64,-158.83 -207.51,-138.05zm-79.68 172.06c17.93,16.29 37.77,27.7 57.2,43.09 10.61,8.41 48.34,38.13 56.76,39.77l0.08 -81.39 58.94 41.46c10.6,8.56 47.38,37.73 56.83,40.05l0 -169.1c-16.51,6.08 -91.12,71.27 -115.65,81.62l-0.15 -81.5c-14.4,6.28 -41.99,29.21 -56.67,40.02 -10.79,7.96 -52.82,36.76 -57.34,45.98zm96.13 -737.73c-102.05,21.82 -156.57,115.06 -138.65,206.65 16.78,85.8 100.58,161.15 210.06,138.12 82.96,-17.45 158.9,-101.73 135.94,-206.3 -21.91,-99.75 -114.39,-158.34 -207.35,-138.47zm-80.31 256.76c25.59,-11.92 94.97,-74.42 115.08,-81.54l0.35 80.42c6.14,-0.72 102.19,-70.06 113.82,-83.43 -4.87,-5.3 -103.82,-82.78 -113.85,-83.49l-0.15 80.26c-21.67,-8.21 -91.95,-70.93 -114.84,-81.2l-0.41 168.98zm-2459.79 413.96c4.19,7.02 1.43,20.59 -1.85,26.4 -8.25,14.69 -33.19,16.55 -24.72,35.98 3.71,8.53 12.55,10.52 23.98,7.84 1.7,-2.16 14.88,-8.59 19.74,-14.63 1.31,-1.62 1.51,-2.26 2.77,-3.6 2.1,-2.25 2.05,-1.93 3.76,-3.12 0.31,-4.19 1.13,-3.84 3.26,-7.83 1.43,-2.68 2.59,-5.14 3.63,-7.86 2.11,-5.55 3.35,-11.49 3.96,-17.81 0.09,-7.77 0.45,-16.86 -2.66,-23.05 -2.93,-12.25 -10.33,-23.42 -17.28,-29.97 -33.47,-31.49 -52.61,0.25 -37.31,14.26 9.62,8.84 18.59,8.71 22.72,23.39zm1.2 -105.8c-14.28,22.95 16.51,28.29 28.69,38.79 31.3,27 46.16,65.03 33.26,107.14 -5.2,16.94 -19.77,37.72 -29.35,44.32 -3.34,2.75 -2.87,3.24 -6.5,5.13l-12.8 7.73c-7.47,4.67 -10.3,4.8 -14.28,11.51 -7.47,5.34 -1.6,45.56 48.63,6.61 14.35,-11.13 24.52,-23.41 33.92,-39.03 1.91,-3.17 6.98,-13.87 8.08,-14.95 0.84,-3.01 1.43,-5.22 2.36,-7.95 0.39,-1.13 0.57,-1.79 1.05,-2.79 1.57,-3.25 0.32,-1.3 2.13,-3.37 -1.02,-11.84 16.17,-50.04 -13.28,-102.3 -12.95,-22.98 -37,-47.15 -65.22,-56.82 -8.79,-0.32 -12.46,0.66 -16.69,5.98zm29.52 -63.69c-3.33,2.19 -3.6,2.74 -5.55,7.13 -5.81,16.27 7.3,20.89 17.89,25.8 8.87,4.12 20.15,11.86 27.31,17.51 55.12,43.45 80.25,121.55 50.84,191.61 -16.29,38.78 -39.74,62.96 -73.83,82.41 -4.9,2.78 -10.77,4.4 -14.69,7.09 -10.05,6.9 -13.05,22.19 -1.05,29 10.82,6.14 23.27,-3.03 32.63,-7.71 30.04,-15.07 43.81,-36.02 50.04,-37.84 1.4,-3.72 0.51,-1.95 2.83,-3.19 0.66,-3.63 -1.52,0.42 1.78,-4.18 0.86,-1.2 1.55,-1.64 2.44,-2.66 2.78,-3.23 1.86,-3.79 5.57,-5.34 1.44,-4.65 -0.41,-3.02 4.28,-5.55 1.43,-9.99 33.55,-40.75 35.17,-110.5l0 -3.84 0.32 -16.38 -2.27 -11.2c-0.5,-3.99 -1.04,-7.14 -1.77,-10.89 -6.06,-30.95 -20.37,-60.57 -39.43,-84.81l-22.65 -25.28c-5.02,-1.72 -2.66,-0.77 -6.73,-4.29 -0.16,-0.13 -2.6,-2.21 -2.69,-2.3 -2.05,-2.03 -1.24,-0.28 -1.57,-2.16 -6.5,-3.21 -10.68,-7.23 -17.26,-11.02 -3.02,-1.74 -15.03,-7.61 -16.03,-9.41 -9.79,-2.58 -14.94,-8.08 -25.58,-2zm-119.08 333.34c0.84,1.69 -2.39,0.73 2.9,2.11 3.21,0.84 4.05,0.56 7.33,0.61 8.54,-2.29 13.54,-6.74 14.06,-16.72 0.53,-10.17 0.01,-21.74 0,-32.06 -0.05,-33.13 1.33,-242.1 -0.42,-250.53 -1.51,-7.32 -8.85,-14.36 -18.49,-13 -6.91,0.97 -13.75,9.74 -17.39,13.39 -21.23,21.22 -41.51,41.51 -62.74,62.73 -4.34,4.34 -10.7,13.57 -17.48,14.22 -12.52,1.21 -47.1,-0.89 -64.04,-0.05 -8.78,0.44 -15.67,6.13 -16.76,14.48 -2.01,15.26 -0.19,45.85 -0.19,62.74 0,21.32 -4.09,47.31 10.1,53.07 6.41,2.6 51.74,1.39 62.01,1.31 16.02,-0.1 13.29,1.15 21.65,9.73 11.94,12.25 73,74.48 79.46,77.97zm2623.26 -1958.41c-53.07,10.22 -86.48,33.94 -111.02,65.26 -57.02,72.73 -47.17,183.49 31.01,246.85 33.19,26.91 88.87,44.47 140.11,34.45 157.34,-30.77 191.93,-224.41 78.07,-312.14 -32.78,-25.26 -85.62,-44.55 -138.17,-34.42zm-55.96 270.18c13.19,-4.75 162.03,-91.36 167.31,-97.3l-166.95 -96.77 -0.36 194.07zm-2451.44 56.39l0.2 0.21c-0.01,-0.02 -0.27,-0.15 -0.2,-0.21zm-52.7 95.41l-2.08 0c-0.98,-0.11 -2.24,-0.32 -3.87,-0.71 1.8,-7.76 3.16,-7.55 5.65,-6.36 0.07,-3.2 0.03,-1.99 1.54,-4.81 1.68,-3.12 -0.08,-2.36 5.53,-3.67 0.22,-2.72 0.7,-2.28 0.7,-5.65l2.83 0c0.12,-1.47 0.37,-2.69 0.93,-4.01 3.37,-7.76 1.13,-7.61 4.72,-8 0.23,-2.73 0.7,-2.29 0.7,-5.66 3.59,-1.66 2.71,2.39 2.83,-2.83l2.83 0c0.47,-5.6 3.96,-11.49 4.24,-14.84l-197.15 0c-13.74,0.01 -17.07,-1.12 -25.15,-7.35 -5,-3.87 -10.88,-13.09 -10.88,-21.63l0 -314.51c0,-14.41 14.56,-28.97 28.96,-28.97l463.55 0c14.41,0 28.96,14.56 28.96,28.97l0 314.51c0,11.03 -7.7,19.62 -14.53,24.34 -8.83,6.09 -19.38,4.64 -33.51,4.64l-228.94 0c-1.32,5.65 -1.52,5.7 -4.27,8.45 -4.88,4.88 -0.69,6.74 -5.51,5.7l-0.83 5.64c-5.35,1.24 -3.78,1.33 -5.9,6.11 -1.26,2.87 -2.49,5.7 -2.57,9.44 -4.69,0.1 -2.46,0.02 -6.59,8.96 -0.73,1.57 -1.85,4.04 -2.58,5.24 -1.61,2.6 -1.16,1.6 -4.25,1.35 0.59,1.24 0.8,2.29 1.41,3.53 -3.08,-0.26 -2.31,-1.12 -4.15,0.08 -1.11,0.72 -1.01,1.77 -2.62,2.04zm67.54 -225.46l0.7 0 0 31.81 -0.7 0 0 -31.81zm-0.72 -37.45l0 19.79c-3.91,-1.88 -5.95,-1.04 -9.88,-0.71l0 2.83c3.58,0.39 1.15,0.08 3.18,2.46 1.41,1.66 2.1,1.55 3.88,2.48l0 8.49c2.96,0.25 1.93,0.58 0.01,12.02l-5.05 28.16c-0.71,4.22 -2.02,10.14 -2.02,14.94 -1.3,0.64 -0.89,0.54 -2.83,0.71 0,3.37 -0.49,2.93 -0.71,5.65l-2.83 0c-0.13,1.69 -0.33,2.44 -0.9,4.06 -2.3,6.67 -1.53,-2.69 -6.06,10.18 -2.39,6.74 -9.8,11.87 -14.74,17.06 -3.43,3.6 -1.9,2.17 -7.65,2.94 -3.3,0.45 -6.57,0.29 -9.83,0.78l-9.57 1.74c0,7.03 0.02,6.39 3.59,10.54 1.27,1.47 0.51,1.58 2.76,2.17 0,-3.9 -0.45,-4.58 2.38,-6.1 2.59,-1.4 4.58,-0.95 8.21,-1.16 4.59,-0.27 2.17,-0.2 2.92,4.36 0.67,4.16 2.39,2.08 5.57,3.61 -0.08,-0.99 -2.49,-4.42 4.02,-6.59 1.55,-0.51 4.32,-0.77 5.4,-0.95 3.95,-0.68 2.63,-0.89 4.72,-1.64 3.47,14.88 2.03,16.22 -0.9,33.02 -0.35,1.97 -1.17,4.73 -1.22,7.26l-62.19 0 0 -2.12c-5.14,0 -4.49,-1.25 -7.77,-2.12 -1.84,1.23 -6.39,4.24 -9.18,4.24l-135.67 0c-1.66,0 -2.83,-1.18 -2.83,-2.82l0 -310.27c0,-1.66 1.17,-2.83 2.83,-2.83l459.29 0c1.66,0 2.83,1.17 2.83,2.83l0 310.27c0,4.27 -7.87,2.82 -12.01,2.82l-224.7 0c3.18,-6.63 3.12,-9.1 7.07,-9.19 0.14,-6.98 6.12,-12.24 8.85,-17.99 1.07,-2.26 1.17,-4.98 1.75,-7.45l111.47 -0.17c1.22,-0.34 3.84,-2.86 5.21,-3.97 1.65,-1.34 3.37,-2.75 5,-4.18 1.86,-1.62 3.14,-2.59 4.98,-4.22 6.49,-5.75 4.76,-0.84 4.76,-24.21l-84.79 0 0 -77.04 22.61 0c-1.87,-2.79 -37.04,-29.74 -43.19,-34.56 -1.77,-1.39 -1.92,-2.2 -4.42,-1.77l-22.35 6.65zm-110.22 4.95l-26.86 0 0 -30.4c-8.79,0.21 -36.8,4.24 -46.63,4.24l0 84.11c5.96,0 21.3,2.82 27.55,2.82l0 0.72c-10.15,0 -17.64,1.41 -27.55,1.41l0 79.15 46.63 0 0 -104.6c41.54,0 87.22,2.86 102.38,-42.48 3.84,-11.48 5.03,-20.03 5.03,-35.25l-26.91 2.76c-35.41,2.75 -14.95,-1.65 -24.89,20.33 -3.48,7.7 -7.14,12.38 -15.4,15 -3.86,1.22 -8.38,2.19 -13.35,2.19zm-73.49 -43.82c-2.56,-1.45 -10.16,-0.71 -13.42,-0.71l0 19.08 42.55 -4.07c5.78,-0.6 4.79,1.91 4.79,-13.59l12.71 0 0 -28.27c32.38,0 58.65,-5.08 58.65,28.27l-12.72 0 0 7.77c9.6,0 39.89,-4.24 48.05,-4.24l0 -2.83 13.43 0c0,-19.69 -6.3,-36.14 -14.82,-47.37 -8.43,-11.09 -23.52,-19.06 -43.12,-19.06l-96.1 0 0 65.02zm259.32 -57.95c-1.1,-4.76 -1.33,-4.02 1.29,-6.49 1.67,-1.56 1.44,0.07 2.25,-3.41l52.99 0 0 21.91c-0.09,-0.15 -0.21,-0.56 -0.25,-0.46 -0.31,0.85 0.68,-0.9 -4.4,-4.79 -2.14,-1.65 -2.79,-3.33 -5.54,-4.34 -2.62,-0.95 -1.86,-0.09 -5.12,-1.95 -4.03,-2.28 -5.16,-3.47 -8.75,-3.98 -4.92,-0.7 -13.14,-1.47 -18.34,-1.46 -1.7,0.01 -3.2,-0.06 -4.87,-0.11l-2.35 0.17c-3.76,0.96 -3.81,1.34 -6.91,4.91zm12.02 -14.85c-1.93,0 -1.03,-0.03 -2.39,0.45 -2.93,1.02 -0.7,0.26 -1.84,0.97 -0.14,0.08 -0.29,0.22 -0.42,0.3l-1.31 0.8c-3.71,2.1 3.2,-1.58 -0.92,0.49 -4.7,2.36 -29.35,1.23 -35.52,1.23l-35.33 0c-13,-0.02 -9.9,-6.44 -9.9,40.28 0,3.16 3.82,2.12 7.09,2.11l26.13 1.43c-1.73,2.35 0.24,0.87 -3.31,1.65l-13.71 2.53c-19,3.82 -16.2,-0.65 -16.2,17.03 0,2.15 9.59,10.18 11.85,12.18 2.89,2.56 11.34,9.52 12.89,11.84 6.82,-1.59 18.33,-8.12 22.61,-8.48l0 -43.11 84.79 0 0.85 -7.21c0.34,1.07 0.26,0.93 0.57,2.26 3.91,-0.08 4.75,-1.12 6.35,-3.53 -4.49,-0.1 -4.24,-3.13 -4.24,-6.36 2.21,-0.05 3.51,0.24 3.5,-1.99 -0.02,-4.33 0.06,1.47 -2.75,-2.24 -0.14,-0.19 -1.57,-3.75 -1.63,-4.18 -0.53,-3.45 5.3,-2.19 13.61,-2.19 2.64,0 4.17,0.09 6.26,0.79 0.18,0.06 0.36,0.13 0.52,0.19l1.95 0.88c3.24,1.3 14.51,3.64 18.8,5.93l4.13 2.23c0.13,0.08 0.28,0.22 0.41,0.3 5.53,3.45 8.46,-0.08 8.91,5.23l4.21 0.81 0.03 2.01c2.77,0.07 1.66,-0.19 3.53,0.71 0,-1.93 0.22,-2.16 -0.42,-3.82l-0.78 -1.35c-0.72,-1.02 -0.47,-0.66 -1.33,-1.49 -3.09,-2.96 -3.27,-1.77 -6.74,-3.16l-7.14 -2.75c-2.46,-0.79 -5.66,-3.44 -8.35,-5.07 -0.13,-0.08 -0.29,-0.2 -0.43,-0.28 -2.36,-1.39 0.19,-0.6 -3.58,-1.36 -0.9,-0.19 -2.74,-0.4 -4.01,-0.99l-13.39 -4.93c-1.73,-1 -1.51,-1.28 -2.97,-1.97l-12.3 -3.96c-3.58,-0.61 1.33,0.62 -1.18,-0.24 -5.71,-1.96 5.87,-0.7 -16.62,-4.58 -9.82,-1.68 -9.51,-1.1 -17.05,-0.35l-13.23 0.96zm-53 101.77c0.98,1.46 43.06,39.58 44.52,39.58l33.91 0c4.27,0 8.99,-6.07 12.73,-7.07l0 -29.68 -78.44 0 0 -6.36c-2.28,0.19 -11.04,2.73 -12.72,3.53zm-34.63 -13.42c0,22.44 -1.47,13.53 14.14,9.89 -0.59,-2.21 -1.29,-2.57 -3.11,-3.96l-7.92 -6.34c-1.34,-1.06 -3.11,-2.83 -3.11,0.41zm159.69 -33.22c12.5,0 7.55,-6.44 7.07,-8.48l-10.59 0c-1.63,3.38 -1.87,8.48 3.52,8.48zm-291.82 275.63c18.12,0 15.09,-9.19 3.53,-9.19l-1.86 4.5c-0.77,2.05 -1.24,2.86 -1.67,4.69zm305.96 -269.97l0 4.24c2.17,0.17 3.39,0.66 4.94,1.41 -0.24,-2.97 -0.95,-4.99 -2.81,-6.37 -1.23,0.7 -1.4,0.41 -2.13,0.72zm608.14 1615.12c-3.84,-0.44 -7.02,-3.05 -14.13,-5.43l-20.88 -7.48c-4.65,-3.5 -2.74,-34.45 1.12,-41.87 2.25,-4.32 3.61,-8.37 7.26,-12.2 7.89,-8.3 22.41,-5.27 20.28,-18.62 -7.53,-3.35 -43.71,-12.97 -44.86,-13.56 -1.77,-0.91 -0.4,-0.87 -3.19,-1.49l-7.76 -2.21c-5.18,-1.35 -0.7,1.14 -7.29,-2.22 -2.04,-1.04 -1.36,-0.43 -3.66,-0.92l-15.26 -4.65c-4.13,-0.75 -3.87,-1.43 -7.21,-2.24l-28.61 -8.53c-1.38,-0.94 -0.72,-0.55 -1.71,-1.71 -0.86,-1.48 1.62,0.41 -0.95,-0.57l-15.2 -4.84c-1.52,-0.46 -2.35,-0.52 -3.87,-1 -1.43,-0.44 -1.86,-0.79 -3.54,-1.33 -13.09,-4.18 -26.54,-7.25 -39.64,-11.83 -7.18,-2.5 -16.61,-0.28 -24.24,1.01 -2.11,0.36 -5.42,0.41 -8.18,0.86l-81.55 11.66c-2.2,0.37 -6.57,0.59 -8.77,0.97 -2.9,0.48 -4.84,0.9 -7.71,1.32 -3.05,0.46 -6.38,0.49 -8.91,0.85l-163.63 22.78c-12.71,2.72 -14.56,1.96 -25.44,11.43 -10.77,9.37 -13.91,28.45 -13.91,42.43 0.01,43.66 15.67,51.33 17.39,57.74 -6.52,3.44 -15.08,4.17 -21.91,7.3 -2.27,1.05 -1.22,-0.46 -2.72,2.18 -2.76,4.87 0.7,8.95 4.11,11.04l2.71 1.46c1.69,0.86 1.04,0.53 2.93,1.23 1.55,0.58 1.78,0.7 2.95,1.23 1.17,0.55 2.1,0.88 3.37,1.51 3.46,1.74 6.49,5.61 8.34,9.05 7.82,14.65 5.08,29.92 5.08,45.69l-14.88 5.28c-6.77,1.94 -13.64,4.16 -19.58,8.25 -2.23,1.55 -1.42,1.75 -4.48,2.46l0 5.57c4.87,0.11 8.16,2.36 13.21,2.79 -0.09,4.05 -5.25,7.44 -9.56,18.96l-1.3 3.56c-1.18,3.46 1.43,2.11 -2.35,2.51l0 41.74c3.29,0.36 1.59,-0.9 2.35,3.22 1.32,7.22 3.61,14.25 7.15,20.67l7.1 9.59c9.45,8.93 15.21,8.5 26.23,12.72 9.53,3.65 19.81,6.11 29.41,9.55l106.08 34.43c2.04,0.59 2.49,0.99 4.08,1.48 1.85,0.58 2.51,0.67 4.22,1.35 3.1,1.24 5.35,1.5 8.46,2.68l33.5 11.03c3.59,0.95 6.84,-0.11 9.39,-0.9l140.13 -33.78c14.2,-3.2 48.19,-12.65 58.64,-14.39 5.77,-0.98 11.81,-3.2 17.79,-4.48l9.71 -2.11c3.45,-0.87 5.97,-1.38 8.84,-2.29 5.5,-1.74 12.6,-2.64 18.18,-4.09l26.67 -6.72c5.7,-1 12.74,-2.65 17.68,-5.26 0,-4.74 -2.68,-6.05 -6.47,-8.13l-15.6 -6.67c-3.97,-1.4 -15.04,-3.01 -16.88,-6.07 -2.32,-3.88 -3.21,-37.21 8.51,-49.92 3.32,-3.6 4.34,-4.09 9.11,-6.2 1.9,-0.84 3.7,-1.25 5.46,-2.19 4.73,-2.51 10.64,-8.27 5.6,-13.5 -2.42,-2.51 -8.22,-2.54 -11.29,-4.01 0.37,-4.45 7.77,-5.35 13.82,-19.57 3.17,-7.43 6.74,-18.56 7.06,-27.03 0.35,-9.48 1.82,-22.34 -0.46,-31.56 -1.74,-7.09 -3.06,-12.21 -6.79,-18.24 -1.49,-2.4 -2.96,-3.11 -3.2,-5.86 4.38,-1.02 9.25,-2.36 13.72,-3.68l14.12 -3.27 0 -5.57c-3.49,-0.38 -1.16,-2.07 -4.19,-1.39zm-513.89 -52.86l0.32 21.25 5.67 17.84c2.97,4.46 7.14,9.21 12.05,10.74 2,0.62 2.3,0.83 4.11,1.45 2.07,0.71 3.12,0.41 5.46,0.91 4.67,1 -1.32,1.05 9.09,2.64 3.45,0.52 1.73,0.53 4.17,1.46 1.94,0.73 3.04,0.62 5.57,0.82 2.68,2.81 -0.49,1.63 3.41,2.42l21.52 5.14c2.22,0.55 2.65,1.48 4.77,2.05 2.58,0.7 3.2,0.17 5.93,1.16 2.25,0.82 2.84,0.99 5.3,1.58 2.77,0.66 3.05,1.01 4.66,1.65 4.31,1.68 3.35,-0.63 8.04,2.52 2.17,1.45 11.26,1.29 19.22,4.45l10.7 3.17c4.21,0.89 5.02,1.91 10.37,2.76 4.63,0.76 0.74,1.04 10.38,2.81l9.85 3.39c4.88,2.33 2.82,0.15 10.44,3.44 1.64,0.7 3.32,0.31 5.49,0.65 3.42,0.53 2.44,1.25 5.17,1.84 3.07,0.67 3.09,-0.23 6.02,1.14 3.01,1.42 1.16,0.96 5.5,1.43 3.44,0.37 2.47,0.54 4.92,1.41 2.02,0.71 3.59,0.62 5.72,1.28 12.41,3.77 11.23,12.8 11.83,-42.98l0.28 -16.77c-0.11,-6.27 -1.07,-3.56 -11.14,-7.4l-35.05 -11.57c-3.22,-0.85 -5.68,-1.81 -8.46,-3.23 -3.13,-1.6 -6.07,-1.33 -8.61,-2.56 -7.45,-3.59 -1.65,-0.87 -8.49,-3.19 -5.34,-1.81 -1.28,0.26 -8.85,-3 -3.09,-1.32 -10.5,-2.41 -13.42,-4.1l-13.25 -4.07c-2.41,-0.83 -1.19,-0.92 -3.73,-1.72l-44.7 -13.96c-14.68,-6.27 -23.81,-7.02 -35.14,-11.45 -9.2,-3.6 -15.9,-1.38 -21.64,5.9 -0.08,0.1 -0.23,0.24 -0.3,0.35 -1.38,2.05 -0.11,2.21 -2.28,7.45 -1.11,2.68 -0.9,7.32 -0.9,10.9zm267.34 141.53l0.57 41.38c0.27,3.1 1.03,3.3 1.08,7.65 0.09,5.41 -0.4,12.02 0.92,16.56 6.75,0.51 9.17,-1.39 16.33,-3.07 3.34,-0.79 1.39,-1.42 6.87,-2.59 3.58,-0.76 4.76,-1.57 7.47,-2.23 4.27,-1.04 4.64,-1.86 7.47,-2.26 7.34,-1.06 7.17,-2.15 15.05,-4.37 3.17,-0.89 5.15,-0.55 8.25,-1.67 2.37,-0.85 5.07,-1.43 7.26,-2.39 3.81,-1.67 3.61,-1.05 7.98,-1.84l22.75 -6.54c1.63,-0.35 3.02,-0.22 4.52,-0.55l10.76 -3.51c3.77,-2.53 3.44,-0.73 7.75,-2.12 4.09,-1.34 6.86,-3.11 14.47,-4.71l60.88 -17.14c5.19,-2.24 7.92,-7.69 9.8,-9.75 2.07,-2.26 4.42,-10.16 5.34,-13.91 1.48,-6.05 2.07,-31.69 -0.72,-36.87 -2.65,-4.9 -1.6,-8.05 -7.26,-12.19 -8.12,-5.92 -16.85,0.25 -22.73,2.02l-29.56 9.47c-9.51,2.26 -19.11,6.5 -26.09,8.1l-11.19 4c-2.53,0.83 -5.19,1.23 -7.76,2.14l-35.86 12.52c-3.23,0.99 -5.58,0.34 -8.42,1.61 -5.36,2.41 -4.44,0.8 -7.37,2.36 -7.87,4.17 -26.78,8.67 -29.03,9.89 -6.98,3.79 -4.54,0.63 -14.82,4.67l-10.95 3.72c-1.79,0.6 -2.6,0.84 -3.76,1.62zm-118.39 156.53c9.11,0.98 16.28,5.47 23.9,6.71 4.45,0.74 7.65,1.86 12.38,3.07 11.28,2.89 12.05,5.17 12.95,-0.95 0.73,-4.92 0.54,-23.13 0.59,-28.65 0.36,-37.34 4.66,-32.76 -10.82,-37.19 -2.54,-0.72 -2.69,-1.4 -5.4,-2.12l-46.39 -14.91c-3.41,-0.77 -2.97,-1.28 -5.43,-2.14 -2.41,-0.84 -7.3,-1.62 -11.78,-3.6 -2.69,-1.19 -2.32,-1.12 -5.64,-1.91l-11.2 -4.1c-2.7,-1 -3.52,-0.32 -6.18,-1.54 -5.49,-2.49 -10.43,-2.79 -17.04,-5.85 -3.38,-1.56 -9.3,-2.68 -11.95,-3.41 -3.01,-0.83 -2.26,-1.4 -5.45,-2.1 -3.47,-0.77 -9.4,-2.37 -11.71,-3.77 -2.81,-1.7 -2.48,-0.84 -5.66,-1.84l-23.75 -7.1c-2.95,-0.89 -2.24,-1.71 -5.51,-2.01 -6.76,-0.5 -10.47,-4.2 -18.29,-2.43 -18.52,4.18 -16.47,59.09 0.51,71.66 3.24,2.4 23.98,7.47 29.79,9.03l23.77 6.54c8.35,1.68 25.52,7.99 37.46,10.63l38.11 10.85c2.85,1.25 4.96,1.05 7.77,1.98 3.22,1.06 12.24,2.71 14.97,5.15zm-133.72 -151.31c4.36,2.53 16.14,4.81 21.88,5.94 3.8,0.75 2.9,1.93 7.22,2.32 4.19,0.38 4.27,0.32 7.81,1.47l54.21 12.86c5.22,0.81 3.02,0.85 6.48,2.18l15.24 4.19c4.55,2.02 10.7,1.41 23.02,5.59 2.89,0.99 4.48,0.76 7.7,1.46l14.35 4.2c8.1,1.14 15.53,4.21 24.19,5.3 4.37,0.55 11.39,3.63 14.34,4.23l23.21 5.37c3.36,0.68 4.01,1.53 7.75,2.04 4.87,0.65 3.36,1.58 7.14,2.38 2.22,0.47 6.6,1.01 8.75,0.93 0.57,-5.81 0.35,-16.11 -0.31,-21.78 -0.8,-6.82 -0.39,-15.6 -0.44,-22.66 -0.03,-4.79 1.27,-18.89 -1.52,-21.3 -2.5,-2.18 -5.02,-0.68 -8.6,-1.7 -2.39,-0.69 -1.67,-1.14 -3.85,-1.56 -1.73,-0.33 -4.04,-0.24 -5.8,-0.54l-27.62 -5.84c-3.75,-1.24 -6.49,-0.71 -10.69,-1.41 -5.91,-0.98 -12.54,-3.12 -18.66,-4.2 -4.11,-0.72 -5.46,-1.22 -8.99,-2.08l-6.97 -1.34c-3.03,-1.16 -0.35,-0.48 -2.21,-1.1 -2.24,-0.76 -7.3,-0.65 -10.01,-1.26 -3.49,-0.8 -4.46,-1.82 -9,-2.04 -5.54,-0.26 -5.59,-0.65 -9.65,-1.74 -4.03,-1.09 -6.95,-0.17 -15.14,-2.39 -1.38,-0.38 -3.01,-0.57 -4.61,-0.98 -2.91,-0.73 -5.75,-1.48 -9.12,-2.03 -3.31,-0.53 -6.79,-0.99 -9.43,-1.71 -3.34,-0.91 -4.88,-2.08 -8.7,-2.83 -3.71,-0.73 -5.58,-1.08 -9.17,-1.87l-37.5 -7.78c-3.73,-0.94 -15.52,-2.18 -19.65,-3.43 -3.29,-1 -5.55,-2.04 -10.02,-1.91 -0.07,3.18 2.7,8.6 3.67,11.71 0.71,2.25 1.31,10.71 1.79,13.65 1.7,10.58 -1.31,20.73 -1.09,29.66zm323.7 -131.14c-4.97,-0.69 -5.36,1.11 -8.74,1.75 -3.97,0.76 -6.35,-0.32 -9.92,1.25 -4.22,1.84 -4.21,1.11 -9.05,2.08 -3.29,0.68 -5.7,1.79 -8.86,2.15 -8.67,0.99 -31.3,8.1 -37.28,7.36 -0.98,1.11 -0.33,0.68 -1.88,1.49l-34.51 7.24c-2.12,3.26 -3.23,56.75 -2.35,64.17l67.9 -16.75c3.17,-0.83 5.81,-0.27 8.29,-1.46l44.75 -11.51c19.22,-4.74 39.71,-10.47 60.27,-14.93 4.84,-1.05 9.76,-3.08 14.55,-3.99l30.52 -7.37c22.98,-6.13 12.9,3.74 13.8,-31.11 0.34,-12.76 5,-22.23 5.53,-26.84l-16.68 3.44c-2.73,0.68 -5.38,0.96 -8.23,1.58l-24.24 4.83c-11.12,1.56 -12.69,3.28 -25.04,5.03 -2.73,0.39 -5.36,1.3 -8.03,1.81 -9.9,1.87 -46.48,9.96 -50.8,9.78zm24.16 198.78c-4.07,-0.53 -4.76,0.32 -7.24,0.96 -1.13,1.07 -0.52,0.78 -2.4,1.54l-53.31 10.69 -24.78 8.22c-3.77,1.59 -4.94,1.51 -9.33,0.79 -7.49,-1.23 -20.77,2.67 -28.3,4.5 -5.04,1.23 -21.78,2.46 -27.12,6.54l-1.39 61.79c7.67,-0.32 34.78,-8.11 44.6,-10.21 4.18,-0.89 8.34,-3.07 15.77,-3.1 2.75,0.05 11.74,-2.51 14.94,-3.22 3.94,-0.89 4.08,-0.9 7.39,-2.19l23.59 -5.71c2.55,-0.56 4.78,-1.68 7.25,-2.27l15.9 -3.67c2.77,-0.78 6.11,-0.76 8.4,-1.52 3.58,-1.19 1.91,-1.55 7.41,-2.26 3.68,-0.47 4.53,-1.06 7.56,-2.06 4.56,-1.52 11.87,-2.15 15.79,-3.75l15.14 -3.75 14.22 -4.93c9.66,-2.68 38.45,-8.32 43.4,-11.06 0.41,-2.87 -0.93,-9.9 -1.06,-13.91 -0.89,-28.19 4.07,-29.44 4.48,-38.85 -15.72,1.42 -84.53,17.43 -90.91,17.43zm-24.16 -198.78c4.32,0.18 40.9,-7.91 50.8,-9.78 2.67,-0.51 5.3,-1.42 8.03,-1.81 12.35,-1.75 13.92,-3.47 25.04,-5.03l24.24 -4.83c2.85,-0.62 5.5,-0.9 8.23,-1.58l16.68 -3.44c-0.53,4.61 -5.19,14.08 -5.53,26.84 -0.9,34.85 9.18,24.98 -13.8,31.11l-30.52 7.37c-4.79,0.91 -9.71,2.94 -14.55,3.99 -20.56,4.46 -41.05,10.19 -60.27,14.93l-44.75 11.51c-2.48,1.19 -5.12,0.63 -8.29,1.46l-67.9 16.75c-0.88,-7.42 0.23,-60.91 2.35,-64.17l34.51 -7.24c1.55,-0.81 0.9,-0.38 1.88,-1.49 -4.76,-0.41 -21.71,3.95 -25.26,4.23 -4.38,0.36 -2.51,0.45 -5.21,1.5 -7.42,2.9 -9.03,-3.93 -9.15,12.06 -0.06,9.41 0.16,19.17 -0.16,28.54 -0.59,16.63 -5.33,28.33 2.62,28.13l27.01 -6.74c3.4,-1.36 4.23,-0.87 7.8,-1.44l30.72 -7.57c3.92,-1.53 -0.85,-1 7.53,-2.09l46.02 -11.83c4.15,-0.77 3.91,0.47 7.35,-1.48 3.38,-1.94 4.44,-0.8 8.41,-1.68 1.32,-0.29 1.75,-0.79 3.11,-1.39l88.14 -21.95c4.26,-1.59 10.87,-1.75 15.13,-4.14 0.84,-6.3 -2.61,-34.21 1.82,-45.48 1.01,-2.6 0.63,-3.86 2.12,-6.33 1.72,-2.84 1.65,-0.96 1.2,-5.82 -2.4,-0.18 -22.59,4.45 -24.32,5.07 -1.05,0.36 -19.24,3.39 -25.16,5.26l-17.76 3.23c-3.08,0.49 -4.57,1.52 -7.45,1.97l-17.84 3.23c-3.81,0.77 -3.08,1.48 -8.36,1.94 -3.66,0.31 -5.37,1.03 -8.54,1.82l-17.88 3.28c-3.38,0.39 -5.77,1.03 -8.04,3.09zm-69.34 280.5c-7.43,0.03 -11.59,2.21 -15.77,3.1 -9.82,2.1 -36.93,9.89 -44.6,10.21l1.39 -61.79c5.34,-4.08 22.08,-5.31 27.12,-6.54 7.53,-1.83 20.81,-5.73 28.3,-4.5 4.39,0.72 5.56,0.8 9.33,-0.79l24.78 -8.22 53.31 -10.69c1.88,-0.76 1.27,-0.47 2.4,-1.54 -5.33,0.1 -22.31,3.31 -26.54,4.93 -3.24,1.25 -8.08,0.9 -12.73,2.47l-24.97 5.83c-5.55,1.67 -19.38,7.67 -23.82,6.65 -2.37,-0.53 -3.09,-1.62 -6.38,-1.42 -2.73,0.17 -3.9,1.37 -6.19,1.84 -2.32,0.49 -4.28,0.3 -6.7,1.01 -4.59,1.36 -14.25,3.64 -19.12,4.02 -5.94,0.48 -7.3,2.12 -12.53,2.58 -5.75,0.5 -8.03,1.3 -8.17,7.1 -0.19,7.66 -1.79,58.1 -0.42,60.58 1.62,1.74 4.68,-0.23 7.19,-0.61l30.66 -7.51c8.56,-1.21 4.04,-0.99 7.83,-2.08 3.02,-0.87 4.53,-0.64 7.87,-1.82 4.35,-1.56 5.41,-0.23 7.76,-2.81zm-120.64 1.95c-2.73,-2.44 -11.75,-4.09 -14.97,-5.15 -2.81,-0.93 -4.92,-0.73 -7.77,-1.98l-38.11 -10.85c-11.94,-2.64 -29.11,-8.95 -37.46,-10.63l-23.77 -6.54c-5.81,-1.56 -26.55,-6.63 -29.79,-9.03 -16.98,-12.57 -19.03,-67.48 -0.51,-71.66 7.82,-1.77 11.53,1.93 18.29,2.43 -0.6,-0.8 -1.01,-1.77 -3.4,-2.56 -2.06,-0.68 -10.37,-2.85 -12.41,-2.54 -6.21,0.91 -8.74,3.61 -12.07,8.63 -5.8,8.73 -6.4,34.05 -2.93,44.06 1.14,3.29 0.13,5.07 1.75,7.95 2.18,3.84 0.76,2.57 3.24,6.41 5.49,8.51 6.97,10.02 18.3,12.49 3.13,0.68 3.57,1.57 7.62,2.27 3.6,0.62 4.6,1.64 7.98,2.28 4.61,0.88 4.19,1.86 6.89,2.36 5.09,0.98 3.72,-0.38 8.13,1.88 3.71,1.91 2.1,-0.48 7.44,2.25l24.52 6.26c2.74,0.68 2.9,1.5 7.15,2.31 3.86,0.73 3.27,1.57 8.33,2.32l14.92 4.52c1.49,0.33 2.93,0.27 4.34,0.64 2.71,0.72 1.44,0.88 3.01,1.57l24.46 6.35c3.24,1.16 13.23,4.29 16.82,3.96zm214.14 -83.67c6.38,0 75.19,-16.01 90.91,-17.43 -0.41,9.41 -5.37,10.66 -4.48,38.85 0.13,4.01 1.47,11.04 1.06,13.91 -4.95,2.74 -33.74,8.38 -43.4,11.06l-14.22 4.93c8.71,-0.07 21.51,-5.24 30.17,-7 3.82,-0.77 4.22,-1.3 7.1,-2.08 3,-0.81 4.9,-0.23 7.79,-1.4 5.86,-2.35 8.67,-1.3 14.03,-4.65 0.61,-6.52 -3.71,-30.53 1.52,-43.06 1.03,-2.44 0.77,-3.7 1.62,-6.05 1.13,-3.11 2.1,-1.98 1.7,-6.75 -3.82,-0.72 -19.36,3.58 -23.8,4.15 -2.09,0.26 -4.42,0.13 -6.36,0.73 -2.7,0.83 -1.37,1.26 -5.33,1.65 -10.86,1.05 -6.03,1.32 -11.99,2.43 -2.25,0.41 -4.26,0.19 -6.39,0.82 -2.02,0.6 -2.24,1.35 -4.68,1.72 -2.29,0.34 -4.18,0.21 -6.5,0.75 -2.31,0.54 -3.3,1.21 -5.39,1.58l-11.31 2.41c-2.57,0.47 -6.5,0.29 -9.14,1.36 -3.48,1.42 -1.26,-0.2 -2.91,2.07zm1220.83 -1386.93c-0.83,3.08 -3.35,5.34 -5.19,8.24 -3.96,7.16 -7.53,15.16 -7.89,25.28l-0.12 3.2 0.02 13.81 -0.14 15.09 0.01 12.58 0.13 15.12 -0.09 13.06 0.06 15.38 -0.03 12.45 -0.01 15.44 0.04 12.91 0.01 14.91 -0.06 12.93 0.04 15.42 -0.58 10.09c0.57,1.07 1.81,11.04 3.73,16.93 1.96,6.01 4.99,9.74 7.11,14.67 2.2,1.09 2.46,1.91 3.09,3.93 0.2,0.13 0.49,0.11 0.59,0.44l10.51 9.71 2.62 1.26c7.33,2.94 10.56,5.33 19.75,7.02 7.42,1.37 17.51,1.08 25.32,0.9 9.76,-0.21 44.23,-1.08 51.65,0.57 0.7,46.87 1.65,40.04 -19.82,40.24 -44.73,0.41 -40.65,-3.69 -41.2,19.26l0.07 4.23 6.66 0.28 222.94 -0.12c3.13,-30.88 -4.84,-22.74 -38.22,-23.53 -11.16,-0.27 -22.52,3.31 -22.57,-9.02 -0.05,-10.4 0.2,-21.05 0.03,-31.41 10.39,-1.96 53.23,0.12 71.18,-0.82 9.18,-0.49 12.64,-2.33 20.3,-4.72 1.39,-1.56 6.81,-4.13 8.79,-5.5 14.4,-9.96 19.62,-25.6 20.45,-26.5 5.13,-20.81 2.98,-80.94 3.02,-106.13 0.02,-16.58 0.92,-79.83 -0.01,-94.9 -0.31,-4.97 -1.55,-8.04 -2.29,-12.69 -0.88,-1.26 -2.08,-4.03 -2.11,-6.64l-2.14 -2.59c-5.94,-8.72 -6.59,-11.4 -16.03,-18.45 -4.28,-3.2 -8.13,-5.22 -12.27,-7.14 -4.34,-2.03 -12.93,-3.14 -15.19,-4.4l-255.22 0c-3.86,2.14 -10.28,0.9 -20.61,6.95 -8.07,4.74 -12.74,10.03 -16.33,12.26zm322.42 217.85l-0.44 -3.78c2.04,-3.21 0.74,-11.91 0.74,-16.59 0.01,-5.91 0.08,-11.79 0.05,-17.7 -0.07,-11.79 -0.02,-23.57 -0.05,-35.37 -0.05,-23.58 0.04,-47.17 0.06,-70.76 0.01,-21.89 3.4,-47.45 -9.71,-60.6 -16.49,-16.57 -31.4,-12.57 -57.93,-12.59 -47.13,-0.06 -94.28,0.05 -141.42,-0.01 -22.34,-0.03 -48.69,-1.26 -70.56,0.05 -19.89,1.2 -34.81,14.88 -36.54,34.15 -1.85,20.59 -0.06,111.36 -0.26,140.71 -0.14,20.45 -3.11,49.9 8.46,61.86 16.92,17.5 27.23,13.57 56.48,13.91 47.07,0.54 94.32,-0.45 141.42,0.02 23.09,0.23 47.63,0.56 70.65,-0.07 22.17,-0.61 36.23,-13.16 39.05,-33.23zm-289.9 -194.99l-3.8 4.23 -2.56 6.78c-1.43,12.85 -0.78,32.26 -0.62,45.97l-0.02 12.39 0.01 71.63 0 12.39c-0.09,12.08 -0.93,32.63 1.04,43.46 0.16,0.3 0.99,1.81 1.39,2.6 0.09,0.17 0.78,1.57 0.82,1.66 0.77,1.77 0.19,-0.03 0.59,1.64 4.56,2.18 3.93,4.76 11.54,5.89 4.9,0.73 11.7,0.23 17.14,0.39 30.84,0.89 71.86,-0.07 103.41,-0.15 33.3,-0.08 70.76,0.9 103.4,0.19 14.06,-0.3 20.26,1.51 31.82,-3.48 0.45,-2.06 1.46,-2.08 3.06,-4.03 1.61,-1.95 1.92,-3.15 2.79,-4.71 1.93,-10.57 0.98,-87 0.83,-103.6l0.05 -78.48c-0.44,-4.04 -1.3,-6.97 -3.32,-9.87 -2.44,-3.49 -4.54,-3.81 -6.7,-6.76 -3.04,-0.1 -3.57,-0.95 -7.43,-0.98l-19.32 -0.19 -12.38 0.04 -99.87 -0.02 -12.38 0 -99.87 0.06 -9.62 2.95zm-87.71 377.46l-0.57 0.22c-0.13,0.22 -0.34,0.47 -0.45,0.6l-12.53 10.48 -1.85 3.46c-1.89,4.91 -4.08,7.89 -4.11,14.1 -0.1,24.21 19.33,27.62 23.51,30.08l431.78 0c3.58,-2.17 7.59,-2.88 11.9,-5.88 7.55,-5.27 11.34,-14.4 11.3,-24.2 -0.03,-6.21 -2.22,-9.19 -4.1,-14.1 -1.57,-1.41 -4.79,-5.04 -5.76,-6.78l-9.13 -7.72 -2.94 -1.76c-0.46,-0.46 -0.76,-0.92 -1.08,-1.34 -0.07,-0.08 -0.25,-0.21 -0.3,-0.45 -0.04,-0.23 -0.2,-0.29 -0.27,-0.45 -3.61,-1.59 -2.7,-2 -5.78,-4.5 -2.2,-1.79 -3.35,-1.81 -4.88,-5.09 -2.18,-0.65 -16.22,-12.54 -17.43,-14.72 -16.71,-8.59 -14.32,-21.28 -38.63,-21.3l-179.44 -0.08c-39.74,0 -79.62,-0.29 -119.35,0.03 -12.45,0.11 -14.56,2.05 -21.45,8.11l-48.44 41.29zm353.64 -14.86c11.07,0 25.1,1.97 24.91,-9.34 -0.21,-12.27 -15.63,-9.96 -24.91,-9.96 -27.22,0 -17.08,16.48 -12.94,18.48 3.07,1.48 9.41,0.82 12.94,0.82zm-255.72 -1.38l-0.04 0.31c8.84,-4.02 7.45,-15.81 -1.62,-17.68 -4.92,-1.01 -25.68,-1.16 -29.8,0.74 -8.02,3.71 -7.11,16.4 2,17.86 4.26,0.69 27.01,1.18 29.46,-1.23zm45.36 1.44c11.06,0 25.42,2.06 28.45,-5.66 6.56,-16.74 -19.25,-13.53 -28.45,-13.54 -7.65,0 -13.65,1.21 -13.45,9.81 0.17,7.65 5.93,9.39 13.45,9.39zm55.4 -11.17l11.03 -0.59 0.08 10.33 -4.33 0.42c2.31,1.84 26.28,1.81 28.55,0l-9.27 -0.47 0.25 -10.18 12.87 0 0.51 7.66c3.89,-3.1 3.43,-8.41 0.53,-11.75 -3.17,-3.66 -7.46,-3.4 -13.41,-3.53 -11.9,-0.25 -23.8,-2.73 -26.81,8.11zm6.78 10.16l4.33 -0.42 -0.08 -10.33 -11.03 0.59c-1.07,5.42 2.11,9.68 6.78,10.16zm28.55 0c1.92,-0.16 1.24,0.24 2.76,-0.68 3.35,-2.01 1.13,-0.16 1.6,-2.31l-0.51 -7.66 -12.87 0 -0.25 10.18 9.27 0.47zm48.92 1.01c10.59,0 23.5,1.82 26.29,-6.15 5.4,-15.43 -15.21,-13.02 -21.87,-13.05 -9.17,0 -18.5,-1.21 -19.97,7.43 -1.78,10.41 6.59,11.77 15.55,11.77zm-241.93 20.38c-6.96,0.87 -11.67,6.82 -7.74,13.99 3.5,6.35 11.98,5.25 19.87,5.13 47.95,-0.7 99.88,0.05 148.48,-0.14 32.98,-0.12 66.02,0.13 99,0.16 16.4,0.02 33.12,-0.43 49.49,-0.08 10.91,0.23 40.18,1.3 49.42,-0.31 6.02,-1.05 10.37,-8.07 6.64,-14.36 -3.56,-6.02 -12.13,-4.56 -19.82,-4.54 -16.4,0.04 -33.13,-0.44 -49.5,-0.09 -66.58,1.42 -130.93,-1.26 -197.97,0.04 -19.42,0.38 -85.78,-1.31 -97.87,0.2zm-244.61 -422.95c-28.82,3.73 -43.31,13.43 -61.69,31.6 -54.61,53.94 -108.75,109.6 -163.39,163.38 -7.29,7.17 -16.1,15.12 -22.67,23.79 -13.78,18.15 -22.37,43.96 -18.08,72.88 6.91,46.63 50.33,86.37 105.18,80.28 27.87,-3.09 43.91,-14.36 61.41,-31.64 54.61,-53.89 108.73,-109.6 163.38,-163.38 7.3,-7.17 16.11,-15.13 22.68,-23.78 30.55,-40.32 24.4,-99.3 -15.81,-132.16 -16.35,-13.36 -42.54,-24.66 -71.01,-20.97zm-85.36 210.01c-3.76,-1.89 -17.39,-16.28 -18.37,-18.4 -1.19,-0.41 -0.03,0.2 -1.28,-0.69 -4.85,-3.44 -39.06,-40.85 -43.66,-42.62 -5.99,4.75 -13.28,13.02 -18.96,18.69 -6.43,6.43 -12.26,12.3 -18.73,18.73 -12.71,12.62 -24.82,24.8 -37.48,37.47 -28.98,28.99 -29.76,77.21 -0.4,106.52 29.35,29.32 76.7,28.94 106.15,-0.02l75.29 -75.54c-1.28,-3.18 -30.66,-31.44 -37.51,-38.39 -1.77,-1.78 -4.3,-3.72 -5.05,-5.75zm16.26 58.15c-18,-1.03 -63.06,-0.13 -84.06,-0.13 -11.91,0 -78.04,-0.83 -83.94,0.41 -2.78,9.34 1.12,25.84 4.43,33.77 11.98,28.64 43.08,47.26 76.97,39.24 22.9,-5.42 34.82,-20.7 46.73,-32.62 6.79,-6.81 13.05,-13.07 19.85,-19.86 3.85,-3.83 18.29,-17.32 20.02,-20.81zm-60.92 -138.42c1.18,2.61 7.23,8.48 9.83,9.96 3.6,-1.87 16.81,-16.07 20.7,-20 10.81,-10.96 53.05,-53.86 61.89,-61 60.89,-49.26 102.87,-3.82 117.62,1.71 -3.25,-7.18 -15.68,-17.32 -22.44,-22.26 -8.29,-6.04 -18.35,-11.31 -30.03,-14.25 -28.03,-7.04 -51.66,4.09 -67.93,17.03 -10.17,8.08 -34.46,33.33 -45.18,44 -7.57,7.55 -14.55,14.55 -22.11,22.1l-22.35 22.71zm26.29 61.87l0 0zm-614.33 -134.36l-10.5 0.2c-4.12,-15.42 -9.62,-22.76 -28.19,-22.54 -12.28,0.14 -20.38,2.17 -26.02,12.39 -1.73,3.14 -2.12,7.07 -3.71,9.37 -2.13,1.24 -13.75,2.21 -17.45,3.32 -15.27,4.58 -27.61,13.64 -36.7,25.93 -15.78,21.34 -12.64,41.49 -12.66,71.78 -0.04,28.11 0,56.22 0.01,84.34 0.03,31.53 -0.59,48.32 16.96,67.48 15.8,17.25 29.41,22.9 61.33,23.12 28.08,0.19 56.18,0.08 84.26,0.05l31.35 -0.05c8.34,0.17 8.07,8.48 28.46,24.3 36.63,28.44 86.33,38.51 132.16,24.23 48.42,-15.09 68.83,-48.15 74.31,-51.73 2.08,-1.36 4.42,-1.95 7.03,-3.34 2.59,-1.38 4.27,-2.29 6.64,-3.83 4.85,-3.15 8.08,-5.99 11.9,-9.82 18.37,-18.39 19.85,-31.54 19.9,-64.33 0.05,-28.11 0.1,-56.22 0.06,-84.34 -0.03,-28.86 3.27,-52.73 -10.1,-74.16 -8.96,-14.37 -28.19,-30.63 -52.4,-31.79 -27.86,-1.34 -56.38,0.74 -84.1,-0.44 -1.87,-11.71 1.97,-22.55 -2.7,-34.55 -3.38,-8.69 -10.3,-15.42 -19.23,-19.02 -10.68,-4.3 -58.56,-2.36 -73.79,-2.36 -14.66,0 -64.22,-1.71 -74.09,2.06 -28.79,11 -20.93,38.37 -22.73,53.73zm167.3 61.01c-34.18,3.47 -63.96,16.66 -85.16,41.26 -19.35,22.47 -34.89,51.72 -32.04,93.86 4.4,65.41 63.92,121.92 136.15,115.69 89.72,-7.75 144.3,-102.14 102.12,-183.99 -14.05,-27.26 -38.28,-48.1 -66.99,-58.97 -15.84,-6 -35.34,-9.75 -54.08,-7.85zm-1.58 17.01c-37.22,5.08 -53.29,17.29 -71.92,36.8 -16.3,17.06 -30.02,48.34 -26.75,81.35 5.64,56.91 54.81,104.86 119.91,98.74 55.96,-5.24 104.67,-55.41 98.69,-118.43 -5.85,-61.48 -63.37,-106.22 -119.93,-98.46zm-143.22 -55.5c-24.68,1.87 -90.02,-3.95 -107.57,3.72 -36.27,15.85 -26.7,51.15 -27.72,84.14 5.1,-1.76 10.18,-8.36 24.95,-13.09 19.41,-6.23 82.9,-1.93 111.36,-3.38 10.67,-12.99 8.08,-13.86 24.65,-27.39 21.26,-17.38 50.94,-27.16 79.85,-24.21 8.08,0.83 14.36,3.3 23.51,2.42 8.22,-0.78 14.65,-2.28 23.46,-2.34 43.21,-0.25 82.63,18.86 108.69,47.54 6.21,6.83 6.51,6.28 15.48,10.56 2.85,1.35 5.93,2.93 8.61,4.44 3.54,1.98 5.34,4.26 8.77,5.34 -0.35,-14.45 1.77,-44.72 -2.04,-56.41 -12.44,-38.22 -51.94,-31.29 -85.64,-31.25 -19.33,0.02 -39.47,0.63 -58.69,-0.01 -4.2,-18.06 6.87,-51.44 -8.63,-55.56 -5.89,-1.57 -80.23,-0.52 -96.86,-0.51 -7.57,0.01 -26.5,-0.89 -32.78,0.3 -10.5,1.98 -9.11,12.54 -9.17,23.19 -0.05,8.81 1.02,24.62 -0.23,32.5zm55.4 170.16c3.01,-0.76 6.8,-4.76 9.56,-6.83 3.35,-2.5 6.73,-4.74 10.32,-7.04 48.37,-31.1 109.82,-29.47 157.29,2.34 4,2.68 18.08,14.25 19.48,14.64 1.66,-33.79 -8.85,-57.36 -25.63,-75.41 -61.53,-66.25 -174.43,-23.3 -171.02,72.3zm-45.92 8.91c-4.33,-115.71 81.23,-141.12 88.29,-148.83 -73.83,-1.48 -124.76,74.46 -92.07,143.32 1.3,2.71 1.66,3.77 3.78,5.51zm37.95 -211.88c-17.09,3.97 -17.31,27.2 -1.49,32.19 4.09,1.3 50.04,1.52 54.49,0.39 16.58,-4.22 16.73,-26.65 1.58,-32.12 -5.04,-1.83 -48.54,-1.87 -54.58,-0.46zm-1040.86 538.87c-34.34,3.97 -59.85,13.48 -85.86,27.67 -12.41,6.78 -23.44,15 -33.15,22.7 -2.86,2.26 -4.73,4.33 -7.42,6.51 -25.87,20.89 -51.31,61.91 -62.14,93.63 -10.56,30.89 -15.07,64.85 -10.98,100.07 13.46,115.59 117.65,213.51 250.56,198.65 115.31,-12.89 213.43,-117.99 198.67,-250.37 -12.82,-115.03 -118.04,-214.08 -249.68,-198.86zm16.34 436.15c-8.43,-4.23 -17.62,-2.34 -37.68,-13.99 -5.37,-3.13 -10.72,-6.87 -15.13,-10.46 -23.7,-19.28 -40.85,-55.08 -37.2,-91.66 2.55,-25.52 16.7,-53.22 34.95,-67.33 30.33,-23.45 36.9,-21.95 74.02,-29.44 50.62,-10.23 96.59,-53.32 89.66,-116.01 -1.6,-14.39 -5.92,-27.92 -12.18,-38.96 -3.81,-6.71 -6.12,-9.61 -10.3,-15.24 -71.87,-96.75 -290.23,-9.1 -289.32,172.73 0.32,64.83 29.12,114.07 59.82,146.27 27.53,28.89 81.81,63.76 143.36,64.09zm2 -350.15c-36.77,11.12 -20.48,64.28 15.4,54.25 12.66,-3.54 23.71,-17.73 19.43,-34.35 -3.35,-13.03 -17.27,-25.21 -34.83,-19.9zm1.93 217.13c-14.27,2.47 -26.33,15.7 -23.2,33.04 6.5,35.94 61.36,26.86 55.52,-9.94 -2.22,-13.94 -16.08,-25.92 -32.32,-23.1z"/>
   <path class="fil1" d="M1835.76 1202.61c-9.94,20.07 20.34,36.6 31.44,15.15 9.68,-18.74 -20.44,-37.43 -31.44,-15.15zm9.92 127.83c-9.47,21.71 22.77,35.65 32.53,12.75 7.83,-18.38 -23,-34.58 -32.53,-12.75zm-73.42 -65.8c-11.42,22.04 20.35,36.07 30.86,15.4 9.16,-18.01 -19.66,-37.07 -30.86,-15.4zm-7.49 64.42c-9.74,23.07 22.83,33.64 31.53,13.98 8.3,-18.69 -22.09,-36.34 -31.53,-13.98zm75.59 -59.22c-0.74,3.69 -3.06,5.86 0.81,12.26 2.69,4.48 7.04,7.56 11.09,8.8 8.87,2.72 18.5,-3.05 21.03,-12.43 5.37,-19.88 -27.97,-33.25 -32.93,-8.63zm-62.31 -64.05c-1.48,8 -0.8,17.19 11.99,20.42 6.98,1.73 17.62,-1.73 20.82,-11.85 6.62,-20.88 -28.1,-33.9 -32.81,-8.57zm-139.97 942.76c5.16,0.07 7.79,-3.09 12.16,2.82 4.61,6.24 -0.02,7.02 -1.91,12.4 -3.58,10.24 5.91,13.9 14.73,11.86 8.21,-18.21 -15.49,-21.03 -29.79,-46.71 10.18,-14.73 15.09,-3.26 26.18,8.28 7.47,7.77 18.21,16.3 21.41,26.53 4.52,14.36 -7.11,36.05 -33.58,28.13l1.52 47.83c0.57,11.67 -2.71,34.74 -6.71,48.55 -24.25,84.19 -91.01,109.49 -100.75,193.28 -3.61,31 -2.76,60.52 12.59,97.6 58.63,141.66 245.2,149.22 369.73,114.86 71.27,-19.65 143.14,-86.49 147.13,-157.24 7.3,-129.49 -164.86,-206.8 -84.31,-390.72 22.5,-51.35 43.4,-93.08 26.38,-145.76 -4.1,-12.66 -14.52,-40.4 -32.62,-37.96 -25.4,7.09 2.36,113.06 -74.92,100.29 -20.89,-3.44 -35.49,-14.12 -43.64,-12.84 1.51,28.42 -0.08,86.03 2.19,101.64 39.36,9.49 79.15,-29.49 87.98,-32.61 22,-7.77 19.42,16.51 14.28,29.47 -39.37,99.45 -44.4,112.65 6.82,214.73 13.89,27.68 31.65,59.19 43.28,87.48 6.22,15.17 11.54,29.96 12.12,43.54 0.61,14.96 -6.11,33.99 -25.87,29.66 -30.3,-6.63 -56.08,-35.85 -85.98,-52.62 -22.56,-12.68 -61.68,-26.8 -85.84,-21.26 -2.4,6.25 -3.25,55.15 -0.83,61.91l29.28 2.24c5.84,7.34 3.72,14.21 3.85,22.36 0.55,31.34 0.29,25.12 -57.13,24.47 -58.35,-0.68 -62.86,7.49 -57.81,-39.41 1.81,-16.84 18.83,-7.98 29.85,-11.1 2.33,-7.78 2.47,-36.92 1.06,-45.56 -9.58,0.26 -32.96,11.47 -54.68,7.32 -22.72,-4.32 -30.84,-25.84 -34.39,-44.88 -6.41,-34.31 6.13,-69.28 24.15,-107.48 19.2,-40.77 33.55,-69.92 16.34,-107.77 -8.17,-18 -39.73,-65.05 -2.35,-77.69 11.24,-3.83 17.86,-0.73 26.64,-3.12l1.08 -31.81c-0.25,-3.02 -0.01,-1.49 -0.67,-3.59 -3.84,0.32 5.34,1.72 -3.44,-0.38 -4.49,-1.08 -31.83,-15.26 -15.96,-39.9 -8.82,-1.27 -51.04,22.1 -71.38,-22.11 -15.91,-34.59 0.27,-61.03 -22.2,-77.07 -34.4,6.09 -40.91,66.44 -39.47,92.01 1.45,25.68 21.41,84.04 35.48,100.33zm-50.03 301.69c-0.18,0.4 -0.3,0.83 -0.43,1.23 -0.13,0.43 -0.25,0.83 -0.36,1.23 -0.11,0.41 -0.21,0.81 -0.29,1.19 -0.09,0.41 -0.16,0.79 -0.22,1.17 -0.09,0.4 -0.12,0.76 -0.17,1.14 -0.04,0.39 -0.08,0.75 -0.1,1.13 -0.03,0.36 -0.05,0.72 -0.05,1.08 0,0.34 0,0.71 0,1.05 0.02,0.36 0.05,0.69 0.07,1.03 0.04,0.34 0.08,0.66 0.13,0.99 0.03,0.33 0.1,0.65 0.16,0.96 0.07,0.32 0.15,0.64 0.24,0.96 0.06,0.3 0.17,0.59 0.25,0.89 0.11,0.29 0.21,0.6 0.32,0.89 0.11,0.27 0.23,0.57 0.36,0.85 0.13,0.28 0.26,0.55 0.4,0.81 0.15,0.27 0.3,0.52 0.45,0.79 0.15,0.25 0.32,0.5 0.49,0.76 0.16,0.23 0.34,0.48 0.5,0.72 0.2,0.23 0.36,0.45 0.58,0.68 0.19,0.23 0.38,0.44 0.57,0.65 0.22,0.22 0.42,0.43 0.64,0.62 0.21,0.21 0.43,0.4 0.63,0.59 0.24,0.2 0.47,0.38 0.7,0.56 0.24,0.18 0.47,0.36 0.71,0.53 0.23,0.17 0.48,0.32 0.74,0.48 0.23,0.15 0.48,0.3 0.74,0.45l0 0c0.28,0.15 0.53,0.27 0.79,0.42l0 0c0.27,0.13 0.52,0.26 0.81,0.39 0.27,0.1 0.52,0.23 0.8,0.33 0.28,0.11 0.57,0.22 0.84,0.32 0.29,0.09 0.56,0.17 0.85,0.26 0.29,0.1 0.58,0.17 0.86,0.25 0.29,0.07 0.59,0.13 0.89,0.2l0 0c0.27,0.05 0.57,0.12 0.87,0.16 0.3,0.05 0.59,0.09 0.89,0.13 0.29,0.03 0.6,0.07 0.89,0.09 0.32,0.02 0.61,0.03 0.92,0.03l0 0c0.29,0.03 0.59,0.03 0.9,0.03l0 0c0.3,0 0.6,-0.03 0.9,-0.04 0.29,0 0.61,-0.02 0.91,-0.06 0.3,-0.02 0.59,-0.07 0.89,-0.11 0.3,-0.05 0.6,-0.09 0.89,-0.15l0 0c0.3,-0.05 0.61,-0.1 0.9,-0.17 0.29,-0.09 0.58,-0.15 0.88,-0.24l0 0c0.3,-0.07 0.58,-0.16 0.87,-0.27 0.3,-0.09 0.58,-0.19 0.87,-0.3l0 0c0.28,-0.1 0.56,-0.23 0.85,-0.36 0.28,-0.1 0.55,-0.23 0.83,-0.38l0 0c0.28,-0.13 0.55,-0.28 0.81,-0.42 0.27,-0.18 0.53,-0.32 0.8,-0.49l0 0c0.26,-0.17 0.51,-0.34 0.77,-0.52 0.27,-0.18 0.5,-0.38 0.77,-0.56 0.25,-0.2 0.48,-0.39 0.74,-0.6 0.23,-0.21 0.46,-0.43 0.7,-0.66l0 0c0.22,-0.21 0.44,-0.44 0.67,-0.7 0.22,-0.23 0.43,-0.46 0.63,-0.72l0 0c0.22,-0.26 0.43,-0.51 0.65,-0.78l0 0c0.18,-0.28 0.38,-0.56 0.57,-0.83 0.19,-0.27 0.38,-0.58 0.55,-0.87 0.19,-0.3 0.36,-0.61 0.54,-0.92 0.14,-0.31 0.31,-0.63 0.45,-0.97 0.16,-0.32 0.31,-0.65 0.45,-0.99 0.13,-0.37 0.27,-0.71 0.38,-1.07 7.54,-21.6 -26.65,-37.73 -35.64,-12.86zm88.61 185.64c-9.11,24.02 25.59,37.65 35.76,14.07 9.4,-21.84 -26.17,-39.32 -35.76,-14.07zm-85.41 -64.37c0,0.34 0.02,0.67 0.05,1.01l0 0c0.02,0.31 0.03,0.63 0.07,0.95 0.05,0.31 0.09,0.64 0.16,0.96 0.04,0.29 0.1,0.61 0.18,0.91 0.07,0.32 0.15,0.61 0.24,0.91l0 0c0.09,0.29 0.19,0.58 0.3,0.87 0.1,0.27 0.21,0.57 0.33,0.85 0.11,0.27 0.24,0.55 0.39,0.83l0 0c0.13,0.27 0.26,0.52 0.4,0.81l0.02 0c0.13,0.25 0.3,0.5 0.45,0.76 0.17,0.25 0.34,0.5 0.51,0.74 0.16,0.25 0.36,0.48 0.52,0.72 0.2,0.23 0.39,0.47 0.6,0.7 0.19,0.21 0.39,0.45 0.59,0.66l0 0c0.22,0.21 0.43,0.42 0.65,0.64 0.23,0.18 0.44,0.4 0.67,0.59 0.23,0.19 0.47,0.38 0.7,0.58 0.24,0.18 0.49,0.36 0.72,0.52 0.26,0.17 0.51,0.36 0.77,0.51l0 0c0.26,0.18 0.51,0.32 0.76,0.49 0.26,0.14 0.53,0.3 0.81,0.45 0.26,0.12 0.53,0.27 0.8,0.4l0 0c0.28,0.12 0.56,0.25 0.83,0.36l0 0c0.3,0.12 0.58,0.23 0.85,0.34 0.3,0.12 0.57,0.21 0.87,0.32 0.3,0.09 0.57,0.16 0.87,0.25 0.3,0.09 0.6,0.17 0.89,0.24l0 0c0.3,0.08 0.6,0.14 0.9,0.18 0.31,0.07 0.61,0.14 0.9,0.18 0.31,0.04 0.62,0.09 0.92,0.1 0.29,0.04 0.62,0.06 0.91,0.08 0.3,0.03 0.61,0.03 0.91,0.05 0.33,0 0.62,0 0.92,0 0.31,-0.02 0.61,-0.05 0.93,-0.07 0.3,-0.02 0.59,-0.04 0.91,-0.07 0.3,-0.03 0.6,-0.07 0.89,-0.13 0.32,-0.05 0.61,-0.11 0.92,-0.18 0.29,-0.06 0.59,-0.12 0.88,-0.21 0.31,-0.08 0.6,-0.17 0.88,-0.26 0.29,-0.07 0.6,-0.18 0.87,-0.29 0.29,-0.1 0.57,-0.23 0.87,-0.36 0.27,-0.12 0.55,-0.25 0.83,-0.38 0.29,-0.15 0.57,-0.3 0.82,-0.45 0.28,-0.17 0.55,-0.32 0.81,-0.48 0.28,-0.18 0.53,-0.37 0.78,-0.56 0.26,-0.17 0.51,-0.38 0.76,-0.58 0.27,-0.2 0.52,-0.41 0.75,-0.63 0.24,-0.23 0.49,-0.45 0.73,-0.68 0.23,-0.25 0.43,-0.49 0.67,-0.74 0.21,-0.26 0.45,-0.51 0.66,-0.78 0.22,-0.29 0.42,-0.56 0.62,-0.85 0.21,-0.28 0.4,-0.58 0.59,-0.88 0.19,-0.31 0.38,-0.63 0.55,-0.95 0.19,-0.32 0.36,-0.66 0.53,-1 9.74,-19.86 -20.86,-41.57 -33.63,-18.36l-3.08 10.93zm154.17 -463.31c-9.88,-0.81 -15.43,18.32 -29.39,13.91 -5.81,-1.83 -11.57,-8.28 -12.72,-14.43 -1.22,-6.71 3.59,-10.88 10.02,-16.23 11.27,12.39 0.68,11.2 6.86,17.49 -0.07,-4.69 0.25,-16.63 -0.7,-19.64 -13.94,-3.54 -27,15.22 -12.35,30.48 16.73,17.42 36.35,-6.26 38.28,-11.58zm9.63 -12.53c2.87,-7.49 2.31,-15.87 2.8,-24.13 0.59,-9.74 1.55,-17.97 -1.23,-24.84l-20.97 8.69c-15.87,24.64 11.47,38.82 15.96,39.9 8.78,2.1 -0.4,0.7 3.44,0.38zm-1.87 12.78l-10.27 -8.17c-10.04,4.37 -14.28,15.46 -22.66,15.31 -9.4,-0.18 -9.76,-7.27 -8.95,-13.18 2.73,7.03 -5.23,5.23 8.67,14.18 8.64,-6.77 7.56,-6.75 7.04,-15.19 -0.44,-7.9 3.03,-12.63 -3.96,-17.95 -7.71,-5.91 -28.03,2.26 -28.92,21.43 -1.02,22.13 33.65,47.41 59.05,3.57zm-7.76 -0.25c-1.93,5.32 -21.55,29 -38.28,11.58 -14.65,-15.26 -1.59,-34.02 12.35,-30.48 0.95,3.01 0.63,14.95 0.7,19.64 -6.18,-6.29 4.41,-5.1 -6.86,-17.49 -6.43,5.35 -11.24,9.52 -10.02,16.23 1.15,6.15 6.91,12.6 12.72,14.43 13.96,4.41 19.51,-14.72 29.39,-13.91zm-64.54 3.39c-32.97,12.39 9.95,49.85 15.52,50.41 4.6,0.5 10.72,-2.71 6.26,-11.73 -1.73,-3.48 -10.06,-10.53 -13.05,-13.9 -10.23,-11.58 7.3,-16.81 -8.73,-24.78zm-42.8 36.96l7.22 37.16c1.38,5.14 -0.04,0.85 1.98,6.15 26.47,7.92 38.1,-13.77 33.58,-28.13 -3.2,-10.23 -13.94,-18.76 -21.41,-26.53 -11.09,-11.54 -16,-23.01 -26.18,-8.28 14.3,25.68 38,28.5 29.79,46.71 -8.82,2.04 -18.31,-1.62 -14.73,-11.86 1.89,-5.38 6.52,-6.16 1.91,-12.4 -4.37,-5.91 -7,-2.75 -12.16,-2.82zm42.8 -36.96c16.03,7.97 -1.5,13.2 8.73,24.78 2.99,3.37 11.32,10.42 13.05,13.9 4.46,9.02 -1.66,12.23 -6.26,11.73 -5.57,-0.56 -48.49,-38.02 -15.52,-50.41zm72.3 -3.14c-25.4,43.84 -60.07,18.56 -59.05,-3.57 0.89,-19.17 21.21,-27.34 28.92,-21.43 6.99,5.32 3.52,10.05 3.96,17.95 0.52,8.44 1.6,8.42 -7.04,15.19 -13.9,-8.95 -5.94,-7.15 -8.67,-14.18 -0.81,5.91 -0.45,13 8.95,13.18 8.38,0.15 12.62,-10.94 22.66,-15.31l10.27 8.17zm-12.52 -743.76c12.37,10.72 24.04,10.82 37.77,26.8 13.27,15.45 9.75,24.36 12.01,37.61l57.39 2.29c3.18,-13 -0.69,-21.96 13,-37.6 14.03,-16.05 26.06,-15.75 37.91,-25.23l-2.38 -46.33c-2.02,-21.52 -6.71,-130.81 -9.6,-139.68 -11.16,-5.47 -26.18,-10.5 -37.87,-15.42 -19.53,-8.22 -20.04,-11.8 -39.52,-4.71 -13.02,4.75 -25.8,9.74 -38.36,13.96 -15.68,5.27 -12.35,5.75 -14.73,33.23 -1.23,14.37 -11.78,144.07 -15.62,155.08zm93.16 808.11l18.51 6.44c3.2,-9.36 -0.39,-205.33 -0.64,-232.65l0.1 -92.11c-0.4,-16.44 -1.55,-30.24 -0.34,-47.39 1.01,-14.05 -0.25,-31.38 -0.63,-46.04l-1.12 -139.48c0.18,-33.51 1.41,-175.77 -2.34,-184.56 -6.07,4.71 -3.29,14.71 -3.38,21.29l-9.77 668.33c-0.26,14.6 -1.64,32.21 -0.39,46.17zm-69.56 4.89l19.04 -6.05 5.77 -368.09c-0.56,-110.15 3.82,-231.79 4.92,-344.69 0.06,-7.32 2.58,-16.78 -1.78,-22.91 -3.76,4.26 -2.93,15.91 -3.21,21.54l-6.37 163.07c-0.31,7.61 0.2,14.75 -0.12,22.35 -0.36,8.6 -0.83,15.18 -1.16,23.69l-11.49 324.81c-1.06,15.62 -0.32,30.48 -1.33,46.09l-4.27 140.19zm29.28 329.31c5.82,-5.72 2.17,-14.77 3.03,-32.23 0.58,-11.48 -0.04,-20.79 0.18,-32.89l5.52 -384.18c0,-5.72 1.08,-11.16 0.97,-17.08 -0.79,-42 2.04,-89.78 1.86,-132.88l3.85 -268.39c0.06,-6.9 0.53,-10.51 0.72,-15.78 0.23,-5.97 -0.62,-10.13 -0.33,-17.1l1.86 -101.3c0.25,-10.35 -0.36,-22.94 0.14,-32.89 0.33,-6.01 0.05,-12.65 0.29,-17.1 0.48,-9.13 2.79,-11.06 -3.74,-15.62 -7.41,4.66 -4.18,14.23 -4.69,31.29 -0.32,11.19 -0.3,22.78 -0.53,32.88l-1.12 67.09c-0.49,46.73 -2.13,90.59 -1.83,134.18 0.38,53.04 -2.65,88.4 -2.02,134.23l-2.73 201.27c1.35,25.27 -1.45,46.53 -1.21,67.07 0.48,46.13 -1.32,91.49 -1.95,134.2 -0.67,44.16 -0.62,87.28 -1.98,134.22 -0.7,23.9 -0.55,43.61 -0.85,67.08l-0.91 50.01c-0.57,8.67 -2.5,11.36 5.47,13.92zm23.6 0.45c3.63,-6.69 3.4,-122.58 3.42,-132.3 0.3,-131.89 5.09,-268.23 5.86,-401.26l4 -267.13c2.09,-79.47 0.51,-172.46 3.61,-249.95l-3.71 -15.53c-3.25,1.46 -3.42,2.92 -3.95,6.04l-15.07 1029c-0.21,20.82 -3.98,28.39 5.84,31.13zm13.1 -102.94c4.98,1.8 22.13,2.63 26.88,1.17 11.82,-3.65 8.3,-17.4 8.27,-24.62 -0.02,-7.46 3.61,-20.39 -7.65,-24.87 -4.86,-1.95 -21.93,-1.1 -27,0.62l-0.5 47.7zm-51.19 0.11c1.54,-5.14 3.58,-43.05 0.46,-50.32 -26.64,3.14 -30.53,-7.45 -30.25,25.02 0.21,27.68 1.41,27.35 29.79,25.3zm191.16 71.45c12.03,10.16 32.1,-8.53 17.33,-21.31 -14.16,-12.27 -31.09,9.68 -17.33,21.31zm-38.74 -320.73c-1.23,4.1 -1.75,9.53 6.31,11.18 5.03,1.05 9.51,-2.84 10.25,-7.89 1.21,-8.1 -12.88,-15.53 -16.56,-3.29zm-337.14 405.24c-0.24,0.41 -0.43,0.79 -0.62,1.17 -0.19,0.38 -0.38,0.79 -0.55,1.17 -0.15,0.38 -0.31,0.75 -0.47,1.13 -0.13,0.38 -0.27,0.74 -0.38,1.13l0 0c-0.13,0.36 -0.23,0.74 -0.34,1.1 -0.11,0.36 -0.19,0.72 -0.27,1.08 -0.07,0.36 -0.13,0.72 -0.2,1.08 -0.06,0.34 -0.11,0.7 -0.15,1.04l0 0c-0.03,0.34 -0.05,0.7 -0.08,1.04l3.06 -9.94zm-3.08 10.93c0,-0.33 0.02,-0.65 0.02,-0.99 0,0.34 -0.02,0.66 -0.02,0.99z"/>
   <path class="fil1" d="M2754.44 2659.3c-1.5,-7.57 -4.47,-14.89 -8.17,-20.66 -0.42,-0.69 -0.66,-1.19 -1.16,-1.81 -1.34,-1.57 0,-0.43 -1.4,-1.26 -2.2,-7.13 -16.73,-17.61 -21.97,-20.37 -8.87,-4.74 -18.76,-8.02 -31.19,-8.1 3.3,19.19 1.2,30.39 -0.2,50.71l-8.35 123.11c-0.72,10.19 -1.99,14.5 -4.75,22.31 4.99,1.76 18.45,0.16 24.39,-1.32 21.16,-5.19 38.68,-21.15 45.58,-40.48 4.53,-12.69 4.9,-28.19 5.68,-43.34 0.38,-6.75 3.68,-42.54 2.52,-45.69 1.1,-2.69 -0.48,-10.33 -0.98,-13.1zm379.56 -295.72c-16.86,0.34 -78.4,2.43 -84.98,17.91 38.46,5.47 81.15,2.6 118.17,21.88 -24.85,-2.47 -55.94,-17.42 -103.96,-14.22 19.5,10.05 70.5,19.62 83.58,40.63 -46.8,-17.49 -19.96,-21.51 -109.9,-37.78 -1.02,-7.21 -1.15,-6.99 -2.68,-13.1 24.35,-11.54 79.09,-27.83 99.77,-15.32zm-78.1 -15.92l-5.6 -17.92c-3.92,-6.93 1.56,-10.43 5.42,-15.93 35.32,-2.16 21.87,32.67 0.18,33.85zm-61.06 638.03c105.65,-173.68 541.85,57.27 522.27,-282.73 -8.8,-152.99 -110.98,-168.33 -216.28,-222.39 -66.28,-34.02 -59.37,-78.76 -78.44,-140.36 -31.43,-101.49 -58.85,-79.06 -93.93,-124.29 67.16,-43.61 110.85,214.37 199.97,251.89 118.03,49.72 210.95,71.7 221.24,233.03 9.12,142.82 -72.75,232.14 -212.73,240.87 -215,13.38 -170.65,-17.47 -304.9,61.84 1.21,2.52 1.77,5.39 1.45,8.64 -1.79,18.11 -17.22,28.81 -36.2,30.16 -25.58,1.79 -39.04,1.17 -63.08,-1.42 -22.43,-2.43 -48.88,41.42 -81.27,52.21 -22.18,7.39 -37.3,4.16 -55.88,-2.5 -24.75,-8.9 -65.39,-46.52 -85.75,-48.21 -1.64,7.02 -8.6,18.03 -12.73,23.67 -6.03,8.25 -10.4,12 -18.42,17.96 -25.69,19.05 -34.96,11.3 -54.84,9.66 -3.08,11.53 -27.27,19.61 -37.98,19.92 -54.71,1.58 -56.59,-58.07 -12.24,-70.18 13.16,-3.6 11.8,-2.03 23.76,-1.03 -2.28,-27.5 -7.62,-53.7 -13.23,-77.75 -13.18,6.97 -27.62,11.4 -42.28,17.24l-40.39 17.48c3.71,7.77 8.01,22.85 10.32,32.69 4.42,18.78 -4.33,22.58 4.75,34.87 23.12,31.33 -12.66,68.92 -46.28,71.42l-7 0c-12.78,-1.02 -24.6,-7.7 -31.91,-22.49 -10.22,-20.67 4.91,-34.38 12.24,-45.34 -32.49,-2.71 -36.33,-8.37 -73.88,10.45 -40.12,20.13 -90.67,48.59 -137.46,33.9 -19.98,-6.29 -39.3,-23.4 -46.42,-42.88 -1.71,-4.64 -2.85,-9.14 -3.51,-13.49l0 -18.25c2.85,-18.34 14,-33.57 26.62,-45.66 0.26,-0.24 0.63,-0.56 0.86,-0.79 12.83,-11.88 25.92,-20.57 41.25,-29.88 19.38,-11.77 38.99,-18.7 57.95,-31.36 30.23,-20.15 20.55,-42.17 17.77,-68.77 -1.98,-0.86 -3.85,-1.81 -5.56,-2.85 -10.84,-6.6 -12.92,-13.14 -19.83,-26.93 -5.31,-10.61 -10.44,-21.94 -15.67,-32.9l-47.01 -98.92c-12.31,-25.91 0.65,-50.53 23,-58.2 13.35,-4.59 26.35,-1.07 34.64,4.19 10.14,6.44 13.37,13 19.82,26.88 10.18,21.99 21.18,43.96 31.37,65.92 10.1,21.81 20.58,44.19 31.36,65.97 8.2,16.54 5.21,33.03 -3.94,44.56 -0.5,5.11 -0.12,10.03 0.94,17.07 11.09,74.05 -37.84,94.07 -82.23,116.46 -13.59,6.85 -31.91,14.58 -42.3,23.86 -15.64,13.96 -41.32,42.23 -16.45,61.95 40.86,32.41 120.63,-39.04 173.94,-41.69 34.53,-1.74 35.9,4.65 59.55,6.62 -0.28,-12.3 -18.09,-45.97 -7.47,-58.75 7.5,-9.03 128.21,-58.24 149.67,-58.71 11.65,17.4 14.94,43.74 19.84,64.52 8.38,35.44 5.6,42.16 8.27,74.44 14.31,0 13.88,-2.44 22.79,-11.94 4.19,-4.47 3.46,-4.57 6.46,-10.08 37.43,-68.72 95.28,-6.8 139.41,15.42 43.73,22.01 42.31,-9.79 81.73,-35.7l45.79 -22.03c12.95,-4.31 39.61,-10.2 56.78,-7.57l1.68 0.28zm118.55 -289.75c-21.02,-51.87 -98.26,-134.56 -29.32,-182.84 -18.33,43.49 -23.61,53.05 5.06,96.46 48.31,73.21 71.72,107.48 41.72,194.78 -16.16,47.05 -51.22,38.85 -16.64,82.8 -20.47,-3.49 -30.64,-19.1 -22.3,-38.87 8.38,-19.85 22.76,-1.01 29.79,-37.84 8.57,-44.8 8.99,-71.81 -8.31,-114.49zm-24.58 -190.04c6.19,-26.94 9.5,-54.2 -15.02,-72.1 -10.71,-7.81 -21.06,-9.39 -32.47,-14.51 -15.66,-7 -16.86,-14.69 -26.6,-21.58 -20.09,3.29 -26.73,12.5 -41.48,18.28 6.99,-6.6 37.44,-23.82 38.6,-26.01l-21.61 0c8.96,-8.05 9.57,-2.04 17.67,-7.48 -10.01,-5.2 -18.46,-3.96 -29.77,-3.89 10.85,-7.59 19.55,-2.89 32.11,-3.16 7.53,-20.14 16.21,-41.95 23.39,-62.93 7.78,-22.71 19.91,-38.02 44.66,-42.14 -20.34,21.09 -24.91,4.12 -37.34,57.99 -5.77,25.05 -28.01,46.42 -7.14,71.17 16.85,19.99 41.1,15.18 58.53,37 14.97,18.73 18.33,57.62 -3.53,69.36zm207.71 363.78c70.43,-4.97 108.07,-21.73 127.27,-23.49 -9.57,27.64 -90.99,36.03 -116.16,37.34 -61.21,3.2 -88.32,-4.95 -145.95,6.16 22.4,-20.36 102.95,-17.76 134.84,-20.01zm-147.03 2.2c31.09,-45.47 47.26,-81.43 48.6,-139.1 0.45,-19.45 -3.42,-40.2 -2.04,-58.31 46.95,84.83 -3.19,189.42 -46.56,197.41zm268.33 -149.69c-35.93,1.86 -61.28,-16.1 -120.05,28.31 -7.75,5.86 -22.09,22.58 -25.84,24.76 1.25,-26.24 25.61,-58.86 50.36,-67.8 22.06,-7.97 81.25,-5.07 95.53,14.73zm-254.28 -439.15c-6.64,-7.68 -13.49,-30.39 -24.33,-44.12 -10.25,-12.96 -30.56,-25.46 -35.97,-33.26 40.42,4.25 63.39,37.78 60.3,77.38zm-75 -14.72c5.67,-9.04 12.18,-10.69 13.7,-23.72 1.64,-14.13 -3.55,-20.69 -7.16,-32.67 27.97,10.25 22.03,51.1 -6.54,56.39zm-618.65 767.49l0 0zm263.71 -390.13c-4.14,2.84 -3.08,4.35 -3.42,9.67 -0.22,3.55 -1.03,20.89 -0.1,23.32 1.28,3.36 5.32,5.38 9.61,2.57 3.5,-2.29 2.82,-15.17 3.14,-21.58 0.16,-3.05 0.77,-8.67 -0.53,-11.57 -1.38,-3.07 -5.38,-4.68 -8.7,-2.41zm-67.24 -115.32c1.76,4.33 10.89,18.83 15.62,29.65 6.27,14.36 7.73,20.91 11.91,31.23 0.48,1.2 -0.14,-0.14 0.44,1.04 1.66,3.21 6.7,1.33 15.68,3.94 4.84,1.39 9.34,3.53 13.2,4.56 -2.04,-13.34 -11.13,-36.02 -16.32,-48.16 -3.08,-7.25 -6.78,-14.32 -10.34,-21.06 -3.69,-6.95 -8.38,-13.21 -11.59,-19.39 -3.81,1.98 -13.62,14.42 -18.6,18.19zm-471.12 160.37c4.22,-2.16 7.48,-4.94 12.11,-7.24 3.96,-1.97 9.3,-4.09 12.73,-6.37 -1.07,-13.86 -0.37,-39.3 2.1,-53.31 0.92,-5.2 2.51,-11.5 3.01,-16.29 -1.8,-1.5 -21.33,-9.65 -23.65,-9.71 -7.72,18 -8.99,71.03 -6.3,92.92zm195.79 -293.78c-76.04,20.32 -140.95,73.29 -175.47,135.39 -8.96,16.11 -12.19,22.38 -19.03,39.65 -3.81,9.62 -2.35,7.63 16.5,15.49l24.66 10.26c11.18,4.57 7.48,3.31 15.67,-15.01 34,-76.4 106.87,-132.23 198.22,-138.51 58.21,-3.99 109.12,15.93 143.29,38.73 17.42,11.61 32.17,25.07 46.26,40.89 7.75,8.74 3.12,10.31 31.99,-19.43 14.91,-15.37 16.59,-12.02 1.92,-27.26 -13.65,-14.18 -24.67,-23.48 -39.67,-34.82 -20.05,-15.13 -53.02,-32.16 -78.75,-40.44 -49.26,-15.82 -104.7,-21.25 -165.59,-4.94zm7.17 6.11c-7.44,1.93 -21.75,3.7 -21.6,11.5 0.11,5.26 4.26,7.46 9.09,6.21 4.48,-1.14 8.93,-2.71 13.56,-3.92 18.63,-4.86 38.67,-7.59 57.43,-8.47 61.82,-2.88 100.51,16.03 105.85,16.45 4.67,0.34 7.78,-3.19 7.23,-7.45 -0.79,-6.14 -10.67,-7.84 -18.65,-10.52 -44.89,-14.96 -105.22,-16.21 -152.91,-3.8zm225.18 181.6c-12.67,4.97 -18.97,13.13 -23.02,22.66 -3.47,8.23 -3.72,25.1 -4.35,35.17 -1.5,23.99 -2.71,48.88 -4.93,72.86 -1.12,11.99 -1.46,24.25 -2.42,36.43 -0.75,9.54 -2.98,27.96 -1.16,37.23 7.83,39.77 62.5,44.63 77.88,7.46 4.12,-10 3.33,-23.3 4.39,-35.05 2.13,-24.16 3.53,-48.69 4.96,-72.94 0.79,-13.87 5.62,-64.18 3.67,-73.91 -4.76,-24.05 -30.09,-39.68 -55.02,-29.91zm-312.26 282.54c-1.36,-2.45 -4.65,-5.49 -6.76,-8.48 -4.1,-5.72 -13.06,-25.77 -16.38,-32.69 -7.14,-14.85 -14.28,-29.67 -21.19,-44.67 -6.78,-14.78 -14.16,-29.21 -20.97,-44.07 -7.04,-15.4 -16.48,-30.2 -19.18,-47.94 -22.1,7.61 -41.5,24.89 -46.95,47.75 -7.16,30.08 6.07,49.11 18.05,74.7 11.93,25.44 19.24,46.25 40,58.07 8.9,5.07 20.03,9.23 33.56,9.18 18.07,-0.07 25.45,-5.9 39.82,-11.85zm-93.54 -134.59c0.13,0.13 0.27,0.29 0.34,0.39l0.95 1.38c0.77,1.41 0.09,0.06 0.76,1.97 1.9,3.06 2.75,6.39 5.52,7.66 4.16,1.95 8.3,-1.26 8.74,-4.37 0.51,-3.39 -11.33,-27.61 -13.76,-29.27 -3.04,-2.05 -7.21,-0.93 -8.98,1.98 -3.55,5.72 5.42,14.32 6.43,20.26zm55.27 -82.01c-10.44,6.23 14.36,23.68 24.64,17.95 10.53,-5.85 -14.17,-24.19 -24.64,-17.95zm373.3 -57.38c-9.24,6.06 10.78,30.85 19.57,24.84 8.14,-5.57 -10.64,-30.69 -19.57,-24.84zm-194.15 510.29c0.74,9.57 5.66,14.37 12.18,15.66l17.05 -2.53c12.62,-5.42 24.38,-17.49 23.42,-29.76 -0.55,-7.51 -5.45,-10.88 -12.07,-11.32l-13.11 1.95c-13.9,4.5 -28.25,15.76 -27.47,26zm111.58 -17.5c0.71,9.57 5.63,14.35 12.11,15.69l17.08 -2.55c12.62,-5.42 24.38,-17.47 23.42,-29.77 -0.55,-7.54 -5.47,-10.85 -12.03,-11.32l-13.15 1.97c-13.91,4.49 -28.22,15.79 -27.43,25.98z"/>
  </g>
 </g>
</svg>
