<?xml version="1.0" encoding="UTF-8"?>
<!DOCTYPE svg PUBLIC "-//W3C//DTD SVG 1.1//EN" "http://www.w3.org/Graphics/SVG/1.1/DTD/svg11.dtd">
<!-- Creator: CorelDRAW 2017 -->
<svg xmlns="http://www.w3.org/2000/svg" xml:space="preserve" width="15mm" height="19mm" version="1.1" style="shape-rendering:geometricPrecision; text-rendering:geometricPrecision; image-rendering:optimizeQuality; fill-rule:evenodd; clip-rule:evenodd"
viewBox="0 0 1500 1900"
 xmlns:xlink="http://www.w3.org/1999/xlink">
 <defs>
  <style type="text/css">
   <![CDATA[
    .str0 {stroke:#000066;stroke-width:50;stroke-miterlimit:22.9256}
    .fil12 {fill:#020101}
    .fil8 {fill:#030403}
    .fil13 {fill:#050505}
    .fil7 {fill:#0B030A}
    .fil4 {fill:#0B0404}
    .fil16 {fill:#0B0A0B}
    .fil24 {fill:#0C0C12}
    .fil3 {fill:#130402}
    .fil18 {fill:#130A03}
    .fil23 {fill:#130C0B}
    .fil0 {fill:#1671B8}
    .fil1 {fill:#262626}
    .fil11 {fill:#271409}
    .fil15 {fill:#2D518B}
    .fil9 {fill:#34538A}
    .fil20 {fill:#354C76}
    .fil22 {fill:#746D6A}
    .fil25 {fill:#B4AFAC}
    .fil27 {fill:#CAB6A6}
    .fil30 {fill:#D0C7B3}
    .fil28 {fill:#D3B9B0}
    .fil29 {fill:#D3CECB}
    .fil14 {fill:#D48D50}
    .fil6 {fill:#E6C0A2}
    .fil5 {fill:#E9BE9F}
    .fil2 {fill:#EABE9D}
    .fil10 {fill:#EE8C2E}
    .fil17 {fill:#F2EFF2}
    .fil26 {fill:#F3BEC0}
    .fil19 {fill:#F8F8F5}
    .fil21 {fill:#FEF3EC}
   ]]>
  </style>
 </defs>
 <g id="Capa_x0020_1">
  <metadata id="CorelCorpID_0Corel-Layer"/>
  <rect class="fil0 str0" x="27.48" y="49.84" width="1445.03" height="1800.32" rx="182.04" ry="171.45"/>
  <path class="fil1" d="M183.16 969.39c-0.72,-19.96 24.97,-17.06 48.49,-26.25l2.88 -61.49c-17.81,0.28 -23.29,0.96 -34.85,-7.34l-0.16 -20.71c40.85,-20.16 40,10.19 85.66,-76.77 43.63,-83.1 4.09,-149.19 129.54,-196.16 24.74,-9.27 39.16,-17.51 65.32,-19.61 28.11,-2.24 56.85,1.17 84.46,2.88 -25.62,-39.73 -89.14,-82.99 -153.76,-83.11 35.4,22.11 54.48,30.28 76.08,80.53 -21.74,-10.3 -36.09,-45.79 -123.13,-71.4l-22.73 -9.59c95.35,-61.55 241.83,15.11 268.1,92.68 32.96,2.56 135.06,12.5 159.93,-1.22 11.31,-12.71 0.66,8.16 4.79,-9.56 6.99,-29.96 -18.17,-59.91 -39.87,-76.42 53.52,0.08 66.5,33.26 73.99,81.93 38.37,-5.6 44.7,-25.03 55.96,-54.04 23.67,-60.99 6.46,-53.42 7.2,-94.42 39.2,57.74 27.6,75.41 11.08,136.7 77.86,9.37 94.58,-102.15 82.43,-170.46 -40.09,-225.46 -324.84,-191.69 -493.44,-117.94 -108.95,47.65 -105.21,40.7 -203.44,126.31 -2.65,2.31 -5.13,4.72 -7.4,6.96l-4.82 4.96c-0.72,0.74 -1.7,1.79 -2.42,2.54l-30.77 38.17c-5.69,8.73 -9.47,13.49 -14.23,19.95 -69.1,93.69 -99.32,173.03 -85.48,303.24 11.2,105.29 6.52,76.19 30.98,164.44 7.09,25.58 5.13,33.08 29.61,35.2z"/>
  <path class="fil2" d="M306.19 939.32c29.8,-3.06 66.34,-48.98 193.2,-20.37 31.34,7.07 25.11,15.95 58.24,20.15 109.77,13.94 123.12,34.63 261.79,-4.7 6.64,-16.01 26.87,-16.56 60.37,-20.31 114.77,-12.85 111.62,11.7 143.43,22.01 18.68,6.05 60.36,5.07 81.61,6.72 0.87,-132.75 -8.89,-71.9 -54.74,-140.89 -58.06,-87.38 -37.65,-227.01 -184.05,-208.38 -61.1,7.78 -117.66,20.46 -181.28,18 -114.78,-4.45 -243.71,-46.84 -318.53,37.14 -17.7,19.86 -36.58,110.31 -51.73,143.19 -36.07,78.24 -48.89,36.69 -45.66,148.31l37.35 -0.87zm482.6 139.75c0.05,16.02 4.89,21.22 15.94,29.23 11.75,-10.94 -22.68,-9.26 16.53,-9.26 7.99,9.85 33.67,18.98 43.89,4.87 11.61,3.58 -21.01,-17.19 -23.71,-49.68 -2.99,-35.91 13.99,-34.56 15.24,-55.27 1.32,-22.05 -21.93,-16.99 -28.52,-16.95 -21.55,0.11 -12.71,-3.53 -26.33,9.81 22.25,-5.01 -1.43,-2.19 5.32,3.04l17.19 16.47c-4.65,5.42 -7.78,8.71 -13.38,14.22 -9.19,9.06 -5.84,1.75 -11.58,13.41l-10.59 40.11zm-134.6 12.94c36.52,-1.68 7.72,104.76 5.74,115.17 18.95,9.21 22.06,3.33 24.05,23.36 -20.56,10.48 -35.23,-10.23 -43.93,-24.36 1.43,-20.97 10.58,-26.44 12.18,-53.38 1.45,-24.2 -5.35,-43.07 1.96,-60.79zm-80.34 24.37c-58.3,40.29 -209,27.98 -288.21,21.21 7.97,29.89 26.98,63.37 39.21,92.28 45.36,107.35 66.32,158.58 179.81,205.06 7.22,-6.33 32.51,-48.51 77.24,-13.67 17.54,13.67 16.17,28.31 32.73,45.99l23.42 22.21 6.11 -33c3.28,8.12 1.54,8.6 3.99,18.27l5.48 14.79c0.25,-0.71 1.12,2.4 2.04,3.32 6.91,-13.79 1.58,-8.96 3.83,-23.48l4.18 -15.04c0.18,-1.68 0.94,-2.16 1.73,-3.01 7.61,14.75 -0.15,29.69 9.74,42.23 8.96,-18.84 -2.9,-36.16 9.75,-51.64 8.45,12.97 3.37,11.1 4.51,27.2l5.23 24.9c4.19,-6.52 1.49,-0.05 3.84,-11.31 1.34,-6.4 0.71,-7.47 1.48,-13.28l4.42 -19.22c4.27,6.61 0.92,-1.67 3.45,10.7 1.21,5.92 0.67,7.33 1.55,12.98 2.62,16.83 -4.73,5.04 5.07,18.2 14.01,-16.55 -1.82,-17.91 11.62,-34.52l4.88 31.61c14.35,-8.18 8.43,-2.19 11.46,-20.41 6.79,7.01 5.48,9.47 15.47,13.31l64.85 -29.58c32.4,-15.46 68.27,-33.69 98.26,-53.79 17.6,-11.79 25.64,-16.57 41.45,-31.91 17.4,-16.88 18.49,-23.86 32.69,-43.19 -17.41,-13.37 -13.65,-8.02 -21.66,-10.24 13.15,-16.59 8.32,-37.24 3.36,-57.28l-25.44 6.28 -8.32 48.99c-34.53,-0.36 2.16,3.54 -27.26,-10.01 -6.74,-3.1 -5.97,3.72 -5.61,-4.57l-1.51 15.51c-65.34,2.08 -350.27,64.49 -382.89,44.92 2.7,-8.34 -10.17,-10.8 32.18,-13.76l285.08 -42.97 -30.49 -16.21c-1.06,-0.34 -2.28,-0.83 -3.38,-1.12 -15.32,-4 -27.16,-1.16 -46.33,-1.52 -2.44,-13.64 -16.51,-13.19 -28.74,-27.74 -16.88,-20.1 -5.95,-6.31 -21.37,-15.5 -17.83,-10.63 -11.63,19.85 -12.45,-17.38 -0.65,-30.11 -1.24,-13.85 18.89,-19.68 -0.36,-35.59 5.57,-90.2 -5.07,-122.7 -0.92,-0.01 -6.74,-10.91 -26.81,21.41 -0.16,0.26 -0.92,1.26 -1.05,1.46 -0.09,0.14 -0.72,0.9 -0.78,1 -0.26,0.39 -4.41,-2.18 -0.61,1.38l-4.57 -10.28c-3.52,-12.38 -2.35,0.5 -2.78,-18.9 -6.24,26.89 -23.96,-28.98 -26.72,-32.09l-6.31 13.01c-19.27,46.8 -9.49,62.03 -19.87,81.58l-7.92 12.91c-34.88,-11.32 -22.99,-5.96 -35.72,-24.85 -0.56,-0.82 -1.73,-2.37 -2.19,-3.04l-4.94 -5.82zm0 0l4.94 5.82c0.46,0.67 1.63,2.22 2.19,3.04 12.73,18.89 0.84,13.53 35.72,24.85l7.92 -12.91c10.38,-19.55 0.6,-34.78 19.87,-81.58l6.31 -13.01c2.76,3.11 20.48,58.98 26.72,32.09 0.43,19.4 -0.74,6.52 2.78,18.9l4.57 10.28c-3.8,-3.56 0.35,-0.99 0.61,-1.38 0.06,-0.1 0.69,-0.86 0.78,-1 0.13,-0.2 0.89,-1.2 1.05,-1.46 20.07,-32.32 25.89,-21.42 26.81,-21.41 10.64,32.5 4.71,87.11 5.07,122.7 -20.13,5.83 -19.54,-10.43 -18.89,19.68 0.82,37.23 -5.38,6.75 12.45,17.38 15.42,9.19 4.49,-4.6 21.37,15.5 12.23,14.55 26.3,14.1 28.74,27.74 19.17,0.36 31.01,-2.48 46.33,1.52 1.1,0.29 2.32,0.78 3.38,1.12l30.49 16.21c23.93,-3.28 45.52,-6.66 67.14,-3.7 -0.36,8.29 -1.13,1.47 5.61,4.57 29.42,13.55 -7.27,9.65 27.26,10.01l8.32 -48.99 25.44 -6.28c4.96,20.04 9.79,40.69 -3.36,57.28 8.01,2.22 4.25,-3.13 21.66,10.24l81.22 -185.64c-55,5.9 -134.95,6.03 -190.93,3.66 -71.1,-3.02 -100.76,-10.8 -122.62,-71.81 -23.16,-64.62 -19.6,-93.29 -115.69,-76.31 -41.44,7.33 -40.93,89.48 -73.26,122.89zm413.08 -128.02c19.92,5.08 27.04,7.79 41.29,20.72 10.41,9.46 23.62,20.58 11.28,35.92 1.25,18.57 0.29,20.11 -8.24,35.01 -6.29,10.99 -11.27,18.11 -20.01,23.84 -12.12,7.94 -45.27,16.77 -54.57,10.36 -26.88,-0.26 -25.95,-1.45 -47.69,-8.96l-0.01 5.04c-26.62,-6.71 -35.28,-16.11 -46.34,-42.39l-2.7 -22.54c-23.06,-34.38 77.78,-75.28 126.99,-57zm-198.14 90.71l10.59 -40.11c5.74,-11.66 2.39,-4.35 11.58,-13.41 5.6,-5.51 8.73,-8.8 13.38,-14.22l-17.19 -16.47c-6.75,-5.23 16.93,-8.05 -5.32,-3.04 13.62,-13.34 4.78,-9.7 26.33,-9.81 6.59,-0.04 29.84,-5.1 28.52,16.95 -1.25,20.71 -18.23,19.36 -15.24,55.27 2.7,32.49 35.32,53.26 23.71,49.68 -10.22,14.11 -35.9,4.98 -43.89,-4.87 -39.21,0 -4.78,-1.68 -16.53,9.26 35.73,24.6 86.61,18.83 133.47,18.72 112.44,-0.25 138.87,16.63 155.65,-38.37 19.1,-62.57 16.07,-60.69 11.23,-123.47 -32.35,1.1 -208.6,2.77 -229.09,-3.6 -11.49,6.2 -3.06,3.84 -20.41,5.36 -21.23,1.87 -39.37,-4.48 -73.84,4.63 -11.4,21.74 -11.86,85.62 7.05,107.5z"/>
  <path class="fil3" d="M718.5 1684.49l12.31 -50 50.27 -11.08c-9.42,22.02 -38.66,51.25 -62.58,61.08zm-19.03 -157.96l0.02 10.87c-8.36,-3.97 -23.96,-9.34 -0.02,-10.87zm-239.84 69.39c-8.83,-10.76 -22.94,-34.64 -28.14,-48.76 17.47,-15.79 37.13,-29.33 65.44,-35.77l-37.3 84.53zm114.22 -479.54c32.33,-33.41 31.82,-115.56 73.26,-122.89 96.09,-16.98 92.53,11.69 115.69,76.31 21.86,61.01 51.52,68.79 122.62,71.81 55.98,2.37 135.93,2.24 190.93,-3.66l-81.22 185.64c-14.2,19.33 -15.29,26.31 -32.69,43.19 -15.81,15.34 -23.85,20.12 -41.45,31.91 -29.99,20.1 -65.86,38.33 -98.26,53.79l11.71 19.03c0.31,0.51 1.12,1.63 1.44,2.56 -20.9,35.07 24.19,-19.32 -7.23,7.24 -9.71,8.22 -19.18,4.52 -17.13,31.73 -1.96,-0.26 -4.65,-2.34 -5.93,-0.46l-22.93 -1.99c-1.17,-0.14 -2.49,-0.34 -3.58,-0.49 -1.48,-0.21 -9.73,-1.8 -11.35,-1.88 -5.56,9.27 1.12,-13.81 -5.18,9.74l1.65 19.44 4.93 -0.6c22.75,-6.79 9.91,-7.33 37.55,-7.99 6.67,19.4 8.49,19.51 7.67,40.68l-22.55 6.9c1.38,0.86 5.57,3.95 6.25,4.75 12.51,14.72 10.71,34.85 10.99,55.16 -47.92,3.77 -0.86,-59.1 -31.69,-73.87 -23.7,-6.63 -55.01,-2.64 -75.56,-9.43 1.37,-0.8 3.58,-3.18 4.3,-2.01l16 -10.9c-18.98,-6.59 -8.76,7.43 -12.68,-14.14l12.5 -0.03 -17.41 -20.24c28.91,-7.67 23.21,-7.29 26.45,-16.52l-4.88 -31.61c-13.44,16.61 2.39,17.97 -11.62,34.52 -9.8,-13.16 -2.45,-1.37 -5.07,-18.2 -0.88,-5.65 -0.34,-7.06 -1.55,-12.98 -2.53,-12.37 0.82,-4.09 -3.45,-10.7l-4.42 19.22c-0.77,5.81 -0.14,6.88 -1.48,13.28 -2.35,11.26 0.35,4.79 -3.84,11.31l-5.23 -24.9c-1.14,-16.1 3.94,-14.23 -4.51,-27.2 -12.65,15.48 -0.79,32.8 -9.75,51.64 -9.89,-12.54 -2.13,-27.48 -9.74,-42.23 -0.79,0.85 -1.55,1.33 -1.73,3.01l-4.18 15.04c-2.25,14.52 3.08,9.69 -3.83,23.48 -0.92,-0.92 -1.79,-4.03 -2.04,-3.32l-5.48 -14.79c-2.45,-9.67 -0.71,-10.15 -3.99,-18.27l-6.11 33 -23.42 -22.21c-16.56,-17.68 -15.19,-32.32 -32.73,-45.99 -44.73,-34.84 -70.02,7.34 -77.24,13.67 -113.49,-46.48 -134.45,-97.71 -179.81,-205.06 -12.23,-28.91 -31.24,-62.39 -39.21,-92.28 79.21,6.77 229.91,19.08 288.21,-21.21zm-409.79 -650.6c-15.01,34.16 -36.46,58.05 -51.29,95.09 -39.25,97.97 -27.78,273.14 3.16,367.08 19.53,59.28 -4.73,46.78 -22.97,100.11 -25.41,74.31 11.98,155.08 78.71,189.65 48.78,25.27 64.94,13.66 117.59,14.03l27.59 68.95c7.16,8.78 22.45,43.52 33.62,59.75 6.65,9.67 14.06,19.14 21.38,27.38 7.33,8.25 18.16,15.23 20.8,22.35 30.28,13.39 71.99,42.81 105.86,60.53 -25.69,16.77 -88.2,36.27 -97.84,64.44 -9.29,27.19 6.24,23.68 -20.06,40.89 -2.62,13.54 0.01,6.27 -10.24,21.29 -6.32,9.26 -7.73,10.87 -14.04,20.64 -9.89,15.31 -20.85,29.6 -27.07,48.99 38.11,-1.18 33.16,-37.52 52.05,-61.06 4.62,-5.76 13.33,-10.99 7.82,-24.08 22.52,2.79 13.42,-8.2 22.72,9.22l3.03 1.41c9.16,-10.42 9.94,-10.14 26.43,-11.15 1.18,3.4 12.1,25.4 14.79,30.1 14.52,25.39 12.7,-5.71 14.44,38.04 -9.32,7.82 -3.3,2.84 -11.99,24.82l-12.99 51.67c-0.11,0.74 -0.47,2.42 -0.55,3.65l30.79 -69.78c7.1,-34.56 7.1,-45.58 19.33,-78.21 13.57,-36.18 42.42,-73.59 40.49,-101.72 -0.38,-5.54 -3.04,-15.83 -2.82,-20.35 2.25,-44.5 45.48,-17.89 53.72,20.72 10.61,49.62 -14.25,48.42 -22.96,72.14 35.12,-3.04 184.04,12.6 211.65,21.5 4.91,52.44 -92.15,22.63 -125.72,36.62 15.17,12.54 31.58,12.32 49.87,18.08 4.5,42.48 -5.29,16.5 -16.45,82.81 -5.19,30.81 -18.34,40.05 -46.61,50.14 -124.08,44.31 -74.12,-16.99 -121.01,-36.92 -2.88,33.67 12.97,55.16 32.07,70.99l-4.68 29.23 28.46 0 3.3 -17.7c27.15,-4.55 77.61,-19.58 96.31,-30.68 33.5,-19.89 8.68,-24.59 65.76,-59.92 -4.1,-12.24 -5.41,-9.45 6.82,-5.26 14.5,-11.67 47.98,-48.69 58.41,-52.08 10.17,-18.31 5.28,-7.15 7.3,-22.88 19.73,-13.87 13.26,-99.17 17.62,-141.71 28.55,11.49 74.27,27.69 92.04,47.7 -4.18,15.51 -39.85,73.41 -56.69,118.58 -22.19,59.48 -17.2,97.27 -17.17,163.95l30.06 0c0.35,-17.15 4.98,-22.11 3.52,-36.74 -1.56,-15.59 -6.58,-19.63 -1.28,-43.71 8.07,-60.51 26.47,-112.81 58.31,-156.46 6.93,10.63 22.1,37.44 32.04,42.09 1.48,-0.67 6.17,-3.35 7.59,-3.89 13.05,-4.97 -15.37,3.51 16.68,-5.59 26.01,67.62 28.18,42.87 38.99,72.8l9.98 -0.17 -6.17 -14.41 -74.93 -113.98c-26.94,-48.75 23.5,-32.4 -98.94,-93.85 44.14,-19.73 111.43,-61.73 134.51,-90.8 30.41,-38.31 55.63,-96.43 74.86,-148.74 80.25,3.69 112.93,2.59 160.15,-44.95 42.75,-43.04 49.77,-98.99 34.64,-170.19 -2.82,-3.89 -15.75,-26.09 -18.54,-31.22 -9.91,-18.18 -4.5,-21.65 1.44,-29.96l14.68 -71.14 2.11 -43.05c-19.16,15.43 -5.05,-0.8 -13.66,19.35l-9.34 48.21c-6.67,50.37 -6.58,27.59 -12.5,55.22 -14.99,1.99 -15.79,-6.79 -26.69,4.18l-10.85 2.59c-3.99,8.64 0.79,4.69 -9.94,7.74 -22.35,6.35 -1.24,2.45 -12.25,-0.94 13.62,4.52 4.75,-8.07 4.23,7.94 -0.15,4.61 -7.66,11.07 -4.52,24.3 11.29,-7.43 22.19,-16.98 37.09,-20.87 81.37,82.22 18.26,228.73 -116.88,210.98 1.39,-19.11 26.19,-71.04 34.02,-95.55 4.98,-15.58 9.82,-39.03 15.6,-52.79 7.29,-17.35 17.91,-20.89 26.2,-38.01 -14.15,2.25 -12.43,-3.86 -17.46,-5.56l-12.3 4.27c-12.05,1.92 -15.4,-9.41 -17.89,-14.91l-12.32 -31.83c4.84,62.78 7.87,60.9 -11.23,123.47 -16.78,55 -43.21,38.12 -155.65,38.37 -46.86,0.11 -97.74,5.88 -133.47,-18.72 -11.05,-8.01 -15.89,-13.21 -15.94,-29.23 -18.91,-21.88 -18.45,-85.76 -7.05,-107.5 34.47,-9.11 52.61,-2.76 73.84,-4.63 17.35,-1.52 8.92,0.84 20.41,-5.36 -22.88,-6.37 -49.54,-3.81 -74.16,-3.81 1.3,-0.59 3.03,-1.26 3.96,-1.6l22.25 -5.74c-22.48,-14.33 7.31,15.9 -5.77,-7.56l-2.85 -8.47c-138.67,39.33 -152.02,18.64 -261.79,4.7 -33.13,-4.2 -26.9,-13.08 -58.24,-20.15 -126.86,-28.61 -163.4,17.31 -193.2,20.37 -4.19,8.5 -6.29,-1.13 -1.32,10.59 3.49,8.21 -0.33,4.34 7.82,2.99 -25.35,0 -2.81,-1.96 -12.59,9.58 50.88,0.2 256.3,-7.01 282.47,14.75 0.56,0.71 39.2,138.76 -79.05,149.05 -46.16,4.02 -185.62,6.18 -222.93,-7.37 -9.88,-12.03 -13.6,-27.23 -19.12,-44.88 -8.75,-27.98 -4.23,-30.39 3.74,-52.93l-11.6 -3.88c-53.44,-26.3 1.4,15.67 -31.5,-10.73 6.55,3.94 15.38,7.22 14.61,29.17l-17.95 -11.47c-9.13,-5.75 -17.54,-8.55 -21.18,-18.53l-16.59 4.31 5.52 6.24c0.78,0.83 1.86,2.02 2.72,2.91l13.11 12.09c5.82,5.05 13.3,10.66 17.07,16.86l51.3 151.83c-98.86,11.1 -153.85,-48.71 -151.55,-144.7 -0.01,0 -0.01,9.32 -18.79,4.82l5.42 -30.6c18.21,-55.54 29.76,-27.34 29.18,-86.34 -0.1,-10.28 -0.27,-19.72 -3.03,-29.1 -0.44,-1.5 -0.95,-2.6 -1.46,-3.99 -0.48,-1.32 -1.1,-2.44 -1.63,-3.68 -26.83,-62.56 -3.6,-31.64 -21.44,-103.49 -21.24,-85.51 1.04,-158.62 10.1,-193.25 8.03,-30.72 -6.56,-4.48 15.69,-63.07 7.59,-20.01 4.29,-9.5 15.48,-22.75 0.13,-0.15 5.96,-7.89 6.38,-8.57l42.25 -64.67c5.77,-7.5 4.64,-3.88 9.55,-14.57l9.99 -33.87c0.04,-1.06 0.23,-1.65 -0.09,-2.37 -9.58,10.89 -47.21,63.11 -52.71,66.08z"/>
  <path class="fil4" d="M183.16 969.39c-24.48,-2.12 -22.52,-9.62 -29.61,-35.2 -24.46,-88.25 -19.78,-59.15 -30.98,-164.44 -13.84,-130.21 16.38,-209.55 85.48,-303.24 4.76,-6.46 8.54,-11.22 14.23,-19.95l30.77 -38.17c0.72,-0.75 1.7,-1.8 2.42,-2.54l4.82 -4.96c2.27,-2.24 4.75,-4.65 7.4,-6.96 98.23,-85.61 94.49,-78.66 203.44,-126.31 168.6,-73.75 453.35,-107.52 493.44,117.94 12.15,68.31 -4.57,179.83 -82.43,170.46 16.52,-61.29 28.12,-78.96 -11.08,-136.7 -0.74,41 16.47,33.43 -7.2,94.42 -11.26,29.01 -17.59,48.44 -55.96,54.04 -7.49,-48.67 -20.47,-81.85 -73.99,-81.93 21.7,16.51 46.86,46.46 39.87,76.42 -4.13,17.72 6.52,-3.15 -4.79,9.56 -24.87,13.72 -126.97,3.78 -159.93,1.22 -26.27,-77.57 -172.75,-154.23 -268.1,-92.68l22.73 9.59c87.04,25.61 101.39,61.1 123.13,71.4 -21.6,-50.25 -40.68,-58.42 -76.08,-80.53 64.62,0.12 128.14,43.38 153.76,83.11 -27.61,-1.71 -56.35,-5.12 -84.46,-2.88 -26.16,2.1 -40.58,10.34 -65.32,19.61 -125.45,46.97 -85.91,113.06 -129.54,196.16 -45.66,86.96 -44.81,56.61 -85.66,76.77l0.16 20.71c11.56,8.3 17.04,7.62 34.85,7.34l-2.88 61.49c-23.52,9.19 -49.21,6.29 -48.49,26.25zm780.76 -393.35c-6.06,-5.05 -4.48,-3.31 -8.81,-7.99 7.13,-15.19 17.72,-23.71 25.92,-39.72 35.57,-69.46 17.49,-97.42 17.02,-152.73 17.37,-0.33 71.58,22.12 83.37,29.46 22.41,13.94 38.3,33.52 57.97,59.51 32.8,43.34 65.88,91.79 82.27,151.72 20.23,73.93 20.21,255.11 -3.63,318.59 -14.4,38.37 -63.08,19.66 -79.31,8.26 -4.68,-42.02 6.6,-93.85 -19.83,-122.22 -12.7,-13.63 -22.51,-10.17 -37.01,-31.54 -45.8,-67.48 -38.1,-129.66 -89.51,-188.06l-28.45 -25.28zm-329.89 -393.37l-122.22 32.07c-107.29,39.48 -223.14,96.14 -295.04,184.96 0.32,0.72 0.13,1.31 0.09,2.37l-9.99 33.87c-4.91,10.69 -3.78,7.07 -9.55,14.57l-42.25 64.67c-0.42,0.68 -6.25,8.42 -6.38,8.57 -11.19,13.25 -7.89,2.74 -15.48,22.75 -22.25,58.59 -7.66,32.35 -15.69,63.07 -9.06,34.63 -31.34,107.74 -10.1,193.25 17.84,71.85 -5.39,40.93 21.44,103.49 0.53,1.24 1.15,2.36 1.63,3.68 0.51,1.39 1.02,2.49 1.46,3.99 2.76,9.38 2.93,18.82 3.03,29.1 0.58,59 -10.97,30.8 -29.18,86.34l-5.42 30.6c18.78,4.5 18.78,-4.82 18.79,-4.82 8.75,-29.99 10.05,-41.19 29.9,-59.4l31.93 14.17 16.59 -4.31c3.64,9.98 12.05,12.78 21.18,18.53l17.95 11.47c0.77,-21.95 -8.06,-25.23 -14.61,-29.17 32.9,26.4 -21.94,-15.57 31.5,10.73l11.6 3.88 3.88 -53.69 31.01 -4.93c9.78,-11.54 -12.76,-9.58 12.59,-9.58 -8.15,1.35 -4.33,5.22 -7.82,-2.99 -4.97,-11.72 -2.87,-2.09 1.32,-10.59l-37.35 0.87c-3.23,-111.62 9.59,-70.07 45.66,-148.31 15.15,-32.88 34.03,-123.33 51.73,-143.19 74.82,-83.98 203.75,-41.59 318.53,-37.14 63.62,2.46 120.18,-10.22 181.28,-18 146.4,-18.63 125.99,121 184.05,208.38 45.85,68.99 55.61,8.14 54.74,140.89 -21.25,-1.65 -62.93,-0.67 -81.61,-6.72 -31.81,-10.31 -28.66,-34.86 -143.43,-22.01 -33.5,3.75 -53.73,4.3 -60.37,20.31l2.85 8.47c13.08,23.46 -16.71,-6.77 5.77,7.56l-22.25 5.74c-0.93,0.34 -2.66,1.01 -3.96,1.6 24.62,0 51.28,-2.56 74.16,3.81 20.49,6.37 196.74,4.7 229.09,3.6l12.32 31.83c2.49,5.5 5.84,16.83 17.89,14.91l12.3 -4.27c5.03,1.7 3.31,7.81 17.46,5.56 7.63,2.43 6.47,3.84 3.97,-3.76 -3.14,-13.23 4.37,-19.69 4.52,-24.3 0.52,-16.01 9.39,-3.42 -4.23,-7.94 11.01,3.39 -10.1,7.29 12.25,0.94 10.73,-3.05 5.95,0.9 9.94,-7.74l10.85 -2.59c10.9,-10.97 11.7,-2.19 26.69,-4.18 5.92,-27.63 5.83,-4.85 12.5,-55.22l9.34 -48.21c8.61,-20.15 -5.5,-3.92 13.66,-19.35l-2.11 43.05c11.13,-147.66 18.14,-237.93 -43.77,-357.91 -36.3,-70.35 -82.68,-133.72 -152.44,-163.87 -23.4,-10.12 -55.58,-15.6 -76.63,-26.07 -20.02,-44.05 -31.67,-66.3 -70.71,-94.56 -67.16,-48.61 -63.22,-33.01 -108.13,-57.99l-115.3 -2.61 -61.42 1.77z"/>
  <path class="fil1" d="M955.11 568.05c4.33,4.68 2.75,2.94 8.81,7.99l28.45 25.28c51.41,58.4 43.71,120.58 89.51,188.06 14.5,21.37 24.31,17.91 37.01,31.54 26.43,28.37 15.15,80.2 19.83,122.22 16.23,11.4 64.91,30.11 79.31,-8.26 23.84,-63.48 23.86,-244.66 3.63,-318.59 -16.39,-59.93 -49.47,-108.38 -82.27,-151.72 -19.67,-25.99 -35.56,-45.57 -57.97,-59.51 -11.79,-7.34 -66,-29.79 -83.37,-29.46 0.47,55.31 18.55,83.27 -17.02,152.73 -8.2,16.01 -18.79,24.53 -25.92,39.72z"/>
  <path class="fil5" d="M606.21 1728.19c7.64,-24.43 41.09,-26.11 54.55,-22.29 -5.87,22.92 -21.05,26.48 -54.55,22.29zm-161.2 1.38c-1.35,26.89 -29.38,66.94 -38.2,95.25l135.87 0 4.68 -29.23c-19.1,-15.83 -34.95,-37.32 -32.07,-70.99 46.89,19.93 -3.07,81.23 121.01,36.92 28.27,-10.09 41.42,-19.33 46.61,-50.14 11.16,-66.31 20.95,-40.33 16.45,-82.81 -18.29,-5.76 -34.7,-5.54 -49.87,-18.08 33.57,-13.99 130.63,15.82 125.72,-36.62 -27.61,-8.9 -176.53,-24.54 -211.65,-21.5 8.71,-23.72 33.57,-22.52 22.96,-72.14 -8.24,-38.61 -51.47,-65.22 -53.72,-20.72 -0.22,4.52 2.44,14.81 2.82,20.35 1.93,28.13 -26.92,65.54 -40.49,101.72 -12.23,32.63 -12.23,43.65 -19.33,78.21l-30.79 69.78z"/>
  <path class="fil5" d="M1246.3 1581.26c10.19,-11.68 10.82,-8.8 32.07,-11.72 18.68,-2.57 20.18,-5.35 34.19,2.24 -9.71,26.76 -54.05,20.69 -66.26,9.48zm-159.14 66.64c0.42,27.82 -41.49,134.52 -50.75,176.92l18.67 0c-0.26,-22.11 15.08,-22.29 13.44,-40.95 -1.82,-20.73 -8.29,12.34 0.3,-24.27 2.55,-10.92 6.14,-21.09 9.08,-30.72 28.56,22.12 4.91,35.94 25.66,51.16 8.56,-16.19 -1.64,-73.5 -4.99,-95.03 -2.52,-16.19 1.19,-18.56 5.27,-25.79 8.82,0.85 14.36,8.62 17.01,16.81l15.11 -11c0.33,-24.22 -5.61,-46.73 -0.09,-67.52 7.27,-27.42 31.79,-22.32 16.66,-49.88 -11.54,-0.94 -7.24,-1.68 -13.51,3.62l-7.47 10.08c-0.91,1.35 -1.79,3.12 -2.52,4.3 -0.77,1.23 -1.46,3.19 -2.58,4.51 -1.81,-16.35 -4.06,-46.85 13.2,-57.62 10.86,-6.78 2.09,0.4 5.06,0.54l8.06 -40.33 17.88 27.15c5.83,17.36 1.28,25.16 6.03,39.92 10.14,31.51 9.52,14.89 8.45,32.6 -1.36,22.72 -9.31,14.81 -18.51,24.9 -13.31,14.62 7.67,-22 -9.19,13.16 5.63,4.71 9.71,1.95 13.82,2.6 32.24,-3.58 35.54,31.74 107.25,11.33 40.1,-11.42 57.41,-23.8 56.28,-72.22 -1.12,-48.23 6.23,-79.18 -32.23,-96.39 -40.52,-18.14 -76.04,-2.7 -103.52,12.51l10.93 100.85c-29.62,-2.54 -21.59,-37.16 -25.51,-69.68 -3.98,-33.02 -0.17,-45.86 27.32,-58.7 49.1,-22.92 118.56,-8.91 134.21,35.46 37.03,-3.4 67.85,-8.59 76.78,-41.09 -28.94,-19.48 -161.67,-4.98 -210.52,-20.55 -1.77,-36.42 13.37,-81.77 -25.61,-93.31 -10.56,18.56 -11.67,56.8 -28.78,85.15 -15.97,26.44 -28.62,32.92 -38.52,68.77 -13.74,49.79 11.25,32.26 -16.05,134.84 -4.27,16.04 -5.51,27.6 -16.12,37.87zm-32.08 176.92l127.59 0c6.39,-56.51 26.46,-116 27.27,-175.36 -17.21,-11.01 -37.04,-12.44 -38.69,-36.4 -4.11,-0.65 -8.19,2.11 -13.82,-2.6 16.86,-35.16 -4.12,1.46 9.19,-13.16 9.2,-10.09 17.15,-2.18 18.51,-24.9 1.07,-17.71 1.69,-1.09 -8.45,-32.6 -4.75,-14.76 -0.2,-22.56 -6.03,-39.92l-17.88 -27.15 -8.06 40.33c-2.97,-0.14 5.8,-7.32 -5.06,-0.54 -17.26,10.77 -15.01,41.27 -13.2,57.62 1.12,-1.32 1.81,-3.28 2.58,-4.51 0.73,-1.18 1.61,-2.95 2.52,-4.3l7.47 -10.08c6.27,-5.3 1.97,-4.56 13.51,-3.62 15.13,27.56 -9.39,22.46 -16.66,49.88 -5.52,20.79 0.42,43.3 0.09,67.52l-15.11 11c-2.65,-8.19 -8.19,-15.96 -17.01,-16.81 -4.08,7.23 -7.79,9.6 -5.27,25.79 3.35,21.53 13.55,78.84 4.99,95.03 -20.75,-15.22 2.9,-29.04 -25.66,-51.16 -2.94,9.63 -6.53,19.8 -9.08,30.72 -8.59,36.61 -2.12,3.54 -0.3,24.27 1.64,18.66 -13.7,18.84 -13.44,40.95z"/>
  <path class="fil3" d="M1159.73 1302.74c-27.69,138.86 -41.31,86.51 -65.16,157.08 -22.21,65.7 20.44,33.34 -32.75,189.47l6.84 1.68c0.87,0.06 4.99,0.42 6.09,0.34 0.24,-0.01 9.08,-2.59 12.41,-3.41 10.61,-10.27 11.85,-21.83 16.12,-37.87 27.3,-102.58 2.31,-85.05 16.05,-134.84 9.9,-35.85 22.55,-42.33 38.52,-68.77 17.11,-28.35 18.22,-66.59 28.78,-85.15 38.98,11.54 23.84,56.89 25.61,93.31 48.85,15.57 181.58,1.07 210.52,20.55 -8.93,32.5 -39.75,37.69 -76.78,41.09 -15.65,-44.37 -85.11,-58.38 -134.21,-35.46 -27.49,12.84 -31.3,25.68 -27.32,58.7 3.92,32.52 -4.11,67.14 25.51,69.68l-10.93 -100.85c27.48,-15.21 63,-30.65 103.52,-12.51 38.46,17.21 31.11,48.16 32.23,96.39 1.13,48.42 -16.18,60.8 -56.28,72.22 -71.71,20.41 -75.01,-14.91 -107.25,-11.33 1.65,23.96 21.48,25.39 38.69,36.4 -0.81,59.36 -20.88,118.85 -27.27,175.36l28.2 0 24.34 -148.22 3.18 -14.66c44.15,-16.32 67.86,-6.63 101.53,-39.35 31.6,-30.71 18.54,-72.54 22.31,-119.55 26.12,-4.05 37.62,-9.99 58.84,-17.49 21.71,-25.66 58.78,-64.18 -1.04,-84.2l-176.55 -8.24c-6.49,-36.37 -0.42,-51.23 -19.21,-78.44 -17.87,-25.87 -35.72,-22.75 -64.54,-11.93z"/>
  <path class="fil6" d="M512.21 1044.88c-1.87,20.58 -4.75,38.15 -19.92,51.35 -1.56,1.36 -34.37,23.7 -37.8,12.77 -21.81,5.95 -32.83,4.53 -55.1,0.11 -7.55,9.43 -13.08,4.49 -25.75,-0.9 -11.05,-4.71 -14.94,-6.27 -21.27,-12.98 -10.89,-11.55 -21.72,-29.01 -15.55,-49.42 -7,-5.23 -9.39,9.08 -8.75,-12.97 0.42,-14.41 37.02,-47.81 84.41,-49.53 47.02,-1.7 93.72,20.67 106.88,52.84l-7.15 8.73zm-247 -23.78c-7.97,22.54 -12.49,24.95 -3.74,52.93 5.52,17.65 9.24,32.85 19.12,44.88 37.31,13.55 176.77,11.39 222.93,7.37 118.25,-10.29 79.61,-148.34 79.05,-149.05 -26.17,-21.76 -231.59,-14.55 -282.47,-14.75l-31.01 4.93 -3.88 53.69z"/>
  <path class="fil5" d="M1169.02 1009.45c2.5,7.6 3.66,6.19 -3.97,3.76 -8.29,17.12 -18.91,20.66 -26.2,38.01 -5.78,13.76 -10.62,37.21 -15.6,52.79 -7.83,24.51 -32.63,76.44 -34.02,95.55 135.14,17.75 198.25,-128.76 116.88,-210.98 -14.9,3.89 -25.8,13.44 -37.09,20.87z"/>
  <path class="fil2" d="M119.17 1055.2c-2.3,95.99 52.69,155.8 151.55,144.7l-51.3 -151.83c-3.77,-6.2 -11.25,-11.81 -17.07,-16.86l-13.11 -12.09c-0.86,-0.89 -1.94,-2.08 -2.72,-2.91l-5.52 -6.24 -31.93 -14.17c-19.85,18.21 -21.15,29.41 -29.9,59.4z"/>
  <path class="fil7" d="M329.26 1666.95l-13.61 16.76c-7.38,15.18 -20.3,36.56 -23.19,55.67 -3.96,26.19 12.26,34.08 21.62,46.55l-10.25 38.89 34.08 0 4.86 -15.24 24.97 15.24 39.07 0c8.82,-28.31 36.85,-68.36 38.2,-95.25 0.08,-1.23 0.44,-2.91 0.55,-3.65l12.99 -51.67c8.69,-21.98 2.67,-17 11.99,-24.82 -1.74,-43.75 0.08,-12.65 -14.44,-38.04 -2.69,-4.7 -13.61,-26.7 -14.79,-30.1 -16.49,1.01 -17.27,0.73 -26.43,11.15 8.08,9.46 22.93,34.32 27.57,46.84 11.89,32.1 -40.43,129.94 -55.39,155.21 -23.55,-14.44 -41.31,-24.83 -61.32,-47.61 4.82,-25.59 34.19,-74.37 46.49,-91.65l5.22 -2.95c10.3,-26.47 23.83,-36.58 34.4,-61.25 -9.3,-17.42 -0.2,-6.43 -22.72,-9.22 5.51,13.09 -3.2,18.32 -7.82,24.08 -18.89,23.54 -13.94,59.88 -52.05,61.06z"/>
  <path class="fil8" d="M336.82 1045.81c23.65,-6.22 4.91,-18.07 38.52,-28.69 -18.23,45.92 -5.47,70.57 24.05,91.99 22.27,4.42 33.29,5.84 55.1,-0.11 13.62,-11.36 17.99,-9.43 27.18,-28.26 10.01,-20.52 6.63,-30.69 3.57,-51.59 15.41,8.34 9.07,9.18 26.97,15.73l7.15 -8.73c-13.16,-32.17 -59.86,-54.54 -106.88,-52.84 -47.39,1.72 -83.99,35.12 -84.41,49.53 -0.64,22.05 1.75,7.74 8.75,12.97z"/>
  <path class="fil9" d="M971.67 1784.95c-13.43,-4.96 -9.75,-5.33 -32.57,5.93l-15.54 4.74c-20.93,-9.64 -13.69,-2.65 -7.15,-21.84 2.06,-6.01 1.88,-1.74 3.52,-12.09 1.94,-12.23 0.4,-39.62 0.4,-53.42 12.81,-2.14 16.82,-1.38 32.59,-2.87l4.74 -46.22c24.63,-2.63 22.86,20.72 25.5,32.55 1.31,5.92 1.29,8.02 3.59,14.44 10.17,28.43 37.25,16.75 21.62,38.69 -7.2,10.12 -25.48,15.47 -36.7,40.09zm-94.53 -40.58c11.26,12.08 19.13,55.67 23.08,74.82 20.44,-1.03 64.67,-13.91 71.45,-34.24 22.88,-1.97 41.46,-21.84 54.23,-38.07 -7.84,-46.98 -41.45,-76.91 -58.41,-116.88 -9.94,-4.65 -25.11,-31.46 -32.04,-42.09 -31.84,43.65 -50.24,95.95 -58.31,156.46z"/>
  <path class="fil7" d="M967.49 1630c16.96,39.97 50.57,69.9 58.41,116.88 -12.77,16.23 -31.35,36.1 -54.23,38.07 -6.78,20.33 -51.01,33.21 -71.45,34.24 -3.95,-19.15 -11.82,-62.74 -23.08,-74.82 -5.3,24.08 -0.28,28.12 1.28,43.71 1.46,14.63 -3.17,19.59 -3.52,36.74l110.17 0c3.3,-3.32 3.22,-4.53 8.28,-7.94 10.21,-6.87 5.11,-2.98 12.95,-6.15l0.98 14.09 29.13 0c9.26,-42.4 51.17,-149.1 50.75,-176.92 -3.33,0.82 -12.17,3.4 -12.41,3.41 -1.1,0.08 -5.22,-0.28 -6.09,-0.34l-6.84 -1.68 -11.02 29.24c-1.64,9.08 -2.19,21.77 -10.07,14.62l-9.98 0.17c-10.81,-29.93 -12.98,-5.18 -38.99,-72.8 -32.05,9.1 -3.63,0.62 -16.68,5.59 -1.42,0.54 -6.11,3.22 -7.59,3.89z"/>
  <path class="fil10" d="M801.74 1659.18c-10.43,3.39 -43.91,40.41 -58.41,52.08 12.86,0.53 40.88,0.3 53.08,-0.13 24.73,-5.39 18.31,4.24 34.55,15.27 13.86,-20.88 3.89,-22.86 12.46,-44.86 3.81,-9.79 4.29,-2.25 9.51,-19.56 6.94,-23.01 -1.49,-16.57 11.84,-37.4 22.31,-34.85 -10.72,20.39 5.85,-8.9 4.76,-8.42 7.71,-15.72 11.03,-22.76 9.44,-20 16.22,-28.88 19.43,-48.86 -5.92,-3.95 -5.54,-4.11 -13.09,-8.73 -108.01,-65.96 -15.44,98.5 -86.25,123.85z"/>
  <path class="fil11" d="M796.81 1805.45l0 0zm-53.48 -94.19c-12.23,-4.19 -10.92,-6.98 -6.82,5.26 -11.14,35.17 -54.71,49.54 16.98,108.3l38.17 0c18.72,-13.76 36,-19.76 38.26,-53.81 2.24,-33.67 -18.08,-41.64 -33.51,-59.88 -12.2,0.43 -40.22,0.66 -53.08,0.13z"/>
  <path class="fil9" d="M377.45 1652.28c16.09,-0.41 19.24,0.39 28.96,-14.24 5.17,-7.76 7.77,-18.31 10.55,-27.58 -8.19,10.08 -4.08,-16.81 -1.88,6.77 1.12,11.95 16.6,27.93 18.31,51.71 -13.51,7.16 -1.56,7.61 -24.3,-0.96l-1.72 23.27 -34.21 -1.99c9.88,-3.13 9.47,5.98 7.59,-17.89 -0.31,-3.97 1.8,-6.21 -8.52,-16.14 -12.3,17.28 -41.67,66.06 -46.49,91.65 20.01,22.78 37.77,33.17 61.32,47.61 14.96,-25.27 67.28,-123.11 55.39,-155.21 -4.64,-12.52 -19.49,-37.38 -27.57,-46.84l-3.03 -1.41c-10.57,24.67 -24.1,34.78 -34.4,61.25z"/>
  <path class="fil12" d="M859.94 1045.36c17.98,-3.55 17.57,-8.02 27.77,-17.89 -2.97,29.23 -6.25,38.98 8.65,62.51 1.48,-1.17 3.34,-5.7 3.99,-4.01 0.67,1.75 2.6,-4.99 8.62,-1.55 0.98,-0.3 2.64,-0.97 3.07,0.14l6.41 1.02c40.37,9.58 51.45,5.65 51.32,-50.14 -0.09,-37 -0.02,-31.84 -10.13,-36.59 18.99,-2.05 16.48,6.54 24.07,-0.78 11.42,-11.03 10.5,4.18 3.22,-9.71 -49.21,-18.28 -150.05,22.62 -126.99,57z"/>
  <path class="fil13" d="M733.61 1522.56c12.55,7.76 12.73,12.01 0,19.67 -7.08,-11.85 -5.79,-8.24 0,-19.67zm-2.66 -33.4c-3.24,9.23 2.46,8.85 -26.45,16.52l17.41 20.24 0.18 14.17 -16 10.9c-0.72,-1.17 -2.93,1.21 -4.3,2.01 20.55,6.79 51.86,2.8 75.56,9.43 30.83,14.77 -16.23,77.64 31.69,73.87 -0.28,-20.31 1.52,-40.44 -10.99,-55.16 -0.68,-0.8 -4.87,-3.89 -6.25,-4.75l22.55 -6.9c0.82,-21.17 -1,-21.28 -7.67,-40.68 -27.64,0.66 -14.8,1.2 -37.55,7.99l-4.93 0.6c-8.3,8.34 2.11,5.08 -13.96,3.03l-0.8 -21.31 13.11 -1.16c6.3,-23.55 -0.38,-0.47 5.18,-9.74 1.62,0.08 9.87,1.67 11.35,1.88 1.09,0.15 2.41,0.35 3.58,0.49l22.93 1.99c1.28,-1.88 3.97,0.2 5.93,0.46 -2.05,-27.21 7.42,-23.51 17.13,-31.73 31.42,-26.56 -13.67,27.83 7.23,-7.24 -0.32,-0.93 -1.13,-2.05 -1.44,-2.56l-11.71 -19.03 -64.85 29.58c-9.99,-3.84 -8.68,-6.3 -15.47,-13.31 -3.03,18.22 2.89,12.23 -11.46,20.41z"/>
  <path class="fil3" d="M843.06 1300.46l-285.08 42.97c-42.35,2.96 -29.48,5.42 -32.18,13.76 32.62,19.57 317.55,-42.84 382.89,-44.92l1.51 -15.51c-21.62,-2.96 -43.21,0.42 -67.14,3.7z"/>
  <path class="fil14" d="M809.04 1636.3c-2.02,15.73 2.87,4.57 -7.3,22.88 70.81,-25.35 -21.76,-189.81 86.25,-123.85 7.55,4.62 7.17,4.78 13.09,8.73 -3.21,19.98 -9.99,28.86 -19.43,48.86 -3.32,7.04 -6.27,14.34 -11.03,22.76 -16.57,29.29 16.46,-25.95 -5.85,8.9 -13.33,20.83 -4.9,14.39 -11.84,37.4 -5.22,17.31 -5.7,9.77 -9.51,19.56 -8.57,22 1.4,23.98 -12.46,44.86 -16.24,-11.03 -9.82,-20.66 -34.55,-15.27 15.43,18.24 35.75,26.21 33.51,59.88 -2.26,34.05 -19.54,40.05 -38.26,53.81l53.18 0c-0.03,-66.68 -5.02,-104.47 17.17,-163.95 16.84,-45.17 52.51,-103.07 56.69,-118.58 -17.77,-20.01 -63.49,-36.21 -92.04,-47.7 -4.36,42.54 2.11,127.84 -17.62,141.71z"/>
  <path class="fil15" d="M971.67 1784.95c11.22,-24.62 29.5,-29.97 36.7,-40.09 15.63,-21.94 -11.45,-10.26 -21.62,-38.69 -2.3,-6.42 -2.28,-8.52 -3.59,-14.44 -2.64,-11.83 -0.87,-35.18 -25.5,-32.55l-4.74 46.22c-15.77,1.49 -19.78,0.73 -32.59,2.87 0,13.8 1.54,41.19 -0.4,53.42 -1.64,10.35 -1.46,6.08 -3.52,12.09 -6.54,19.19 -13.78,12.2 7.15,21.84l15.54 -4.74c22.82,-11.26 19.14,-10.89 32.57,-5.93z"/>
  <path class="fil16" d="M896.36 1089.98l12.63 15.27c21.74,7.51 20.81,8.7 47.69,8.96 53.96,-13.84 55.57,-49.93 39.91,-99.2 10.54,5.88 14.83,8.01 21.1,14.49 11.56,11.96 1.35,12.45 21.81,15.5 12.34,-15.34 -0.87,-26.46 -11.28,-35.92 -14.25,-12.93 -21.37,-15.64 -41.29,-20.72 7.28,13.89 8.2,-1.32 -3.22,9.71 -7.59,7.32 -5.08,-1.27 -24.07,0.78 10.11,4.75 10.04,-0.41 10.13,36.59 0.13,55.79 -10.95,59.72 -51.32,50.14l-6.41 -1.02c-0.43,-1.11 -2.09,-0.44 -3.07,-0.14 -6.02,-3.44 -7.95,3.3 -8.62,1.55 -0.65,-1.69 -2.51,2.84 -3.99,4.01z"/>
  <path class="fil14" d="M571.14 1824.82l8.9 0c20.87,-16.85 76.25,-15.28 107.94,-49.02 5.49,-5.85 6.53,7.09 1.81,-4.35 20.42,9.6 15.45,-0.48 17.12,28.33 1.64,28.18 0.23,-10.1 12.06,25.04l34.52 0c-71.69,-58.76 -28.12,-73.13 -16.98,-108.3 -57.08,35.33 -32.26,40.03 -65.76,59.92 -18.7,11.1 -69.16,26.13 -96.31,30.68l-3.3 17.7z"/>
  <path class="fil10" d="M580.04 1824.82l138.93 0c-11.83,-35.14 -10.42,3.14 -12.06,-25.04 -1.67,-28.81 3.3,-18.73 -17.12,-28.33 4.72,11.44 3.68,-1.5 -1.81,4.35 -31.69,33.74 -87.07,32.17 -107.94,49.02z"/>
  <path class="fil17" d="M778.53 1778.34l1.88 4.54c3.76,-1.14 1.64,-2.48 7.61,-1.86 17.82,1.87 3.93,-0.11 10.8,2.97l-2.01 21.46 -3.76 -0.23 -24.56 4.65 -3.09 -27.38c-3,4.77 -1.57,5.62 -3.66,10.06 -6.41,13.66 -3.86,8.08 -12.15,16.55l-1.35 -36.97 -12.23 -2.95 25.97 -35.8 7.2 21.74c6.11,-2.42 -0.43,6.12 10.9,-5.87l-5.37 -10.27c11.76,-10.49 -1.4,-3.89 20.12,-8.61 -0.17,22.36 6.19,45.85 15.36,41.3l-31.66 6.67zm18.28 27.11l0 0z"/>
  <path class="fil18" d="M654.19 1092.01c-7.31,17.72 -0.51,36.59 -1.96,60.79 -1.6,26.94 -10.75,32.41 -12.18,53.38 8.7,14.13 23.37,34.84 43.93,24.36 -1.99,-20.03 -5.1,-14.15 -24.05,-23.36 1.98,-10.41 30.78,-116.85 -5.74,-115.17z"/>
  <path class="fil17" d="M956.68 1114.21c9.3,6.41 42.45,-2.42 54.57,-10.36 8.74,-5.73 13.72,-12.85 20.01,-23.84 8.53,-14.9 9.49,-16.44 8.24,-35.01 -20.46,-3.05 -10.25,-3.54 -21.81,-15.5 -6.27,-6.48 -10.56,-8.61 -21.1,-14.49 15.66,49.27 14.05,85.36 -39.91,99.2z"/>
  <path class="fil19" d="M336.82 1045.81c-6.17,20.41 4.66,37.87 15.55,49.42 6.33,6.71 10.22,8.27 21.27,12.98 12.67,5.39 18.2,10.33 25.75,0.9 -29.52,-21.42 -42.28,-46.07 -24.05,-91.99 -33.61,10.62 -14.87,22.47 -38.52,28.69z"/>
  <path class="fil14" d="M496.93 1511.39c-28.31,6.44 -47.97,19.98 -65.44,35.77 5.2,14.12 19.31,38 28.14,48.76l37.3 -84.53z"/>
  <path class="fil15" d="M377.45 1652.28l-5.22 2.95c10.32,9.93 8.21,12.17 8.52,16.14 1.88,23.87 2.29,14.76 -7.59,17.89l34.21 1.99 1.72 -23.27c22.74,8.57 10.79,8.12 24.3,0.96 -1.71,-23.78 -17.19,-39.76 -18.31,-51.71 -2.2,-23.58 -6.31,3.31 1.88,-6.77 -2.78,9.27 -5.38,19.82 -10.55,27.58 -9.72,14.63 -12.87,13.83 -28.96,14.24z"/>
  <path class="fil20" d="M718.5 1684.49c23.92,-9.83 53.16,-39.06 62.58,-61.08l-50.27 11.08 -12.31 50z"/>
  <path class="fil21" d="M454.49 1109c3.43,10.93 36.24,-11.41 37.8,-12.77 15.17,-13.2 18.05,-30.77 19.92,-51.35 -17.9,-6.55 -11.56,-7.39 -26.97,-15.73 3.06,20.9 6.44,31.07 -3.57,51.59 -9.19,18.83 -13.56,16.9 -27.18,28.26z"/>
  <path class="fil17" d="M859.94 1045.36l2.7 22.54c11.06,26.28 19.72,35.68 46.34,42.39l0.01 -5.04 -12.63 -15.27c-14.9,-23.53 -11.62,-33.28 -8.65,-62.51 -10.2,9.87 -9.79,14.34 -27.77,17.89z"/>
  <path class="fil22" d="M748.24 1772.13l1.35 36.97c8.29,-8.47 5.74,-2.89 12.15,-16.55 2.09,-4.44 0.66,-5.29 3.66,-10.06l3.09 27.38 24.56 -4.65c-6.06,-8.48 -4.36,0.75 -2.91,-8.21 0.2,-1.23 4.88,-13.03 4.98,-13.28l-20.08 2.29 5.37 -3.14 -1.88 -4.54 -14.69 1.15c9.63,-10.87 4.42,0.56 8.37,-12.78 1.68,-5.65 -0.48,-6.38 -3.03,-11.59 -13.91,0.78 -8.66,-5.4 -16.06,1.69l4.65 26.58c-10.26,-33.65 -9.4,-11.31 -9.53,-11.26z"/>
  <path class="fil23" d="M1246.3 1581.26c12.21,11.21 56.55,17.28 66.26,-9.48 -14.01,-7.59 -15.51,-4.81 -34.19,-2.24 -21.25,2.92 -21.88,0.04 -32.07,11.72z"/>
  <path class="fil1" d="M769.18 1755.12c2.55,5.21 4.71,5.94 3.03,11.59 -3.95,13.34 1.26,1.91 -8.37,12.78l14.69 -1.15 31.66 -6.67c-9.17,4.55 -15.53,-18.94 -15.36,-41.3 -21.52,4.72 -8.36,-1.88 -20.12,8.61l5.37 10.27c-11.33,11.99 -4.79,3.45 -10.9,5.87z"/>
  <path class="fil18" d="M606.21 1728.19c33.5,4.19 48.68,0.63 54.55,-22.29 -13.46,-3.82 -46.91,-2.14 -54.55,22.29z"/>
  <path class="fil24" d="M748.24 1772.13c0.13,-0.05 -0.73,-22.39 9.53,11.26l-4.65 -26.58c7.4,-7.09 2.15,-0.91 16.06,-1.69l-7.2 -21.74 -25.97 35.8 12.23 2.95z"/>
  <path class="fil25" d="M764.2 1537.4l-1.65 -19.44 -13.11 1.16 0.8 21.31c16.07,2.05 5.66,5.31 13.96,-3.03z"/>
  <path class="fil26" d="M1040.73 1693.15c7.88,7.15 8.43,-5.54 10.07,-14.62 -0.38,-0.24 -14.38,-13.65 -16.24,0.21l6.17 14.41z"/>
  <polygon class="fil27" points="337.91,1824.82 367.74,1824.82 342.77,1809.58 "/>
  <path class="fil28" d="M985.07 1824.82l22.21 0 -0.98 -14.09c-7.84,3.17 -2.74,-0.72 -12.95,6.15 -5.06,3.41 -4.98,4.62 -8.28,7.94z"/>
  <path class="fil16" d="M793.05 1805.22l3.76 0.23 2.01 -21.46c-6.87,-3.08 7.02,-1.1 -10.8,-2.97 -5.97,-0.62 -3.85,0.72 -7.61,1.86l-5.37 3.14 20.08 -2.29c-0.1,0.25 -4.78,12.05 -4.98,13.28 -1.45,8.96 -3.15,-0.27 2.91,8.21z"/>
  <path class="fil27" d="M733.61 1542.23c12.73,-7.66 12.55,-11.91 0,-19.67 -5.79,11.43 -7.08,7.82 0,19.67z"/>
  <path class="fil29" d="M722.09 1540.09l-0.18 -14.17 -12.5 0.03c3.92,21.57 -6.3,7.55 12.68,14.14z"/>
  <path class="fil30" d="M699.47 1526.53c-23.94,1.53 -8.34,6.9 0.02,10.87l-0.02 -10.87z"/>
 </g>
</svg>
