<?xml version="1.0" encoding="UTF-8"?>
<!DOCTYPE svg PUBLIC "-//W3C//DTD SVG 1.1//EN" "http://www.w3.org/Graphics/SVG/1.1/DTD/svg11.dtd">
<!-- Creator: CorelDRAW 2017 -->
<svg xmlns="http://www.w3.org/2000/svg" xml:space="preserve" width="61.722mm" height="39.7932mm" version="1.1" style="shape-rendering:geometricPrecision; text-rendering:geometricPrecision; image-rendering:optimizeQuality; fill-rule:evenodd; clip-rule:evenodd"
viewBox="0 0 6172.2 3979.32"
 xmlns:xlink="http://www.w3.org/1999/xlink">
 <defs>
  <style type="text/css">
   <![CDATA[
    .fil0 {fill:none}
    .fil1 {fill:black}
   ]]>
  </style>
 </defs>
 <g id="Capa_x0020_1">
  <metadata id="CorelCorpID_0Corel-Layer"/>
  <rect class="fil0" y="-0" width="6172.2" height="3979.33"/>
  <path class="fil1" d="M2552.67 1886.69c-174.29,-6.24 -148.73,259.47 105.71,298.48 197.98,30.36 361.59,-73.15 425.26,-189.36 6.57,5.03 3.22,1.76 9.05,8.36 5.33,6.03 5.32,6.69 9.22,12.36 153.79,224.2 508.12,221.32 604.86,52.75 49.32,-85.94 26.12,-190.18 -88.29,-182.24 124.69,38.86 43.19,151.93 1.18,168.53 -49.16,19.43 -80.56,-17.27 -98.33,-41.62 -21.78,-29.85 -38.89,-57.35 -62.29,-85.42 -217.48,-260.85 -335.63,-81.32 -374.81,-59.77 -46.56,-43.76 -101.29,-104.94 -206.4,-69.48 -185.23,62.49 -216.75,302.42 -326.57,255.68 -28.13,-11.97 -56.06,-48.02 -61.09,-86.77 -7.16,-55.23 25.59,-67.69 62.5,-81.5z"/>
 </g>
</svg>
