<?xml version="1.0" encoding="UTF-8"?>
<!DOCTYPE svg PUBLIC "-//W3C//DTD SVG 1.1//EN" "http://www.w3.org/Graphics/SVG/1.1/DTD/svg11.dtd">
<!-- Creator: CorelDRAW 2017 -->
<svg xmlns="http://www.w3.org/2000/svg" xml:space="preserve" width="50.7998mm" height="46.8206mm" version="1.1" style="shape-rendering:geometricPrecision; text-rendering:geometricPrecision; image-rendering:optimizeQuality; fill-rule:evenodd; clip-rule:evenodd"
viewBox="0 0 5079.98 4682.06"
 xmlns:xlink="http://www.w3.org/1999/xlink">
 <defs>
  <style type="text/css">
   <![CDATA[
    .fil0 {fill:#162779}
    .fil1 {fill:#E51721}
    .fil2 {fill:#162779;fill-rule:nonzero}
   ]]>
  </style>
 </defs>
 <g id="Capa_x0020_1">
  <metadata id="CorelCorpID_0Corel-Layer"/>
  <g id="_2010584489040">
   <path class="fil0" d="M2309.32 2709.43l73.59 -538.26c4.65,-29.32 11.46,-53.78 10.34,-84.12 156.46,-18.88 315.6,45.54 332.13,182.55 16.54,137.06 -9.01,231.25 -106.45,320.91 -73.47,67.62 -173.68,102.52 -309.61,118.92zm-1707.16 -573.23l297.09 -35.85c64.4,-4.92 124.42,-5.71 169.12,2.33 315.33,56.68 299.85,489.82 87.46,694.99 -55.11,53.24 -163.96,111.64 -243.71,128.07 15.53,38.76 171.59,86.08 208.02,96.59 146.1,42.17 391.47,46.74 546.48,26.94 60.36,-7.71 89.52,-0.27 150.01,-9.73 46.91,-7.34 81.46,-18.1 139.87,-25.15l150.43 -1059.77 333.56 -40.25c171.71,-5.26 333.65,34.38 356.92,227.27l9.46 78.38c38.72,320.85 -192.93,500.36 -499.71,537.38l-87.43 527.38c-389.69,47.02 -844.26,61.37 -1168.51,-102.27l-140.22 -83.54c-68.86,-53.46 -93.46,-94.96 -132.38,-93.51 -8.65,79.16 -20.73,149.22 -30.9,231.18 -9.85,79.32 -24.39,153.14 -32.76,229.72l-305.65 36.88c-3.25,-33.14 86.57,-636.66 93.83,-685.55l99.02 -681.49zm267 762.91c-34.19,4.13 -61.34,-13.63 -67.79,-47.27l87.12 -583.22c507.56,-61.24 387.03,581.46 -19.33,630.49z"/>
   <path class="fil1" d="M3425.73 2607.56c21.31,176.58 226.62,82.5 323.38,5.41 19.05,-15.17 24.33,-25.15 46.87,-34.17 -4.28,39.17 -22.47,48.92 -20.95,89.99l235.12 -28.38 55.22 -346.9c14.71,-113.31 38.86,-233.69 51.54,-349.8l-250.79 30.26c3.35,34.18 -4.46,50.95 -8.88,85.28l-47.05 360.4c-3.13,24.86 -5.75,68.84 -12.06,89.88 -16.09,53.59 -145.64,132.21 -151.07,87.23l77.99 -605.76 -242.95 29.31c6.65,55.15 -5.96,101.24 -13.3,145.67 -19.13,115.83 -56.14,333.22 -43.07,441.58z"/>
   <path class="fil1" d="M1307.77 2909.8c9.34,77.37 28.83,131.69 133.63,119.04 96.66,-11.66 163.74,-73.65 230.67,-131.2 3.72,37.89 -10.23,62.09 -20.95,90l242.96 -29.32c10.75,-31.69 21.8,-130.77 27.21,-170.22l51.23 -342.94c7.1,-43.26 25.22,-143.39 20.48,-182.6l-242.96 29.32 -60.93 470.13c-2.67,21.54 -2.76,23.89 -5.28,45.53l-13.64 46.06c-10.96,14.95 -131.64,123.64 -139.19,61.07 -5.79,-47.99 25.35,-243.49 33.74,-299.9l36.4 -304.92 -235.12 28.37c5.6,46.39 -7.65,101.75 -13.36,138.51 -7.7,49.53 -13.72,88.61 -21.97,138.86 -13.03,79.3 -33.78,204.2 -22.92,294.21z"/>
   <path class="fil1" d="M2979.68 2751.72c-11.85,-98.17 7.36,-259.93 46.78,-353.52 2.46,-5.82 5.25,-31.39 39.89,-33.67 26.18,-1.72 56.99,15.73 76.44,25.6 4.02,41.02 -7.55,72.48 -11.1,111.92 -10.7,118.94 -4.7,142.18 -57.43,196.17 -26.59,27.23 -45.24,47.55 -94.58,53.5zm-109.44 -511.58c11.2,92.85 107.24,-124.64 220.7,-126.86 137.48,-2.67 60.2,148.32 63.74,243.61 -144.58,-73.43 -235.53,-43.34 -333.72,85.82 -136.78,179.89 -42.93,396.96 80.08,382.12 114.75,-13.85 103.41,-22.89 196.2,-87.3 2.23,60.33 -43.88,53.01 232.96,19.6 30.86,-3.72 13.47,-15.73 12.74,-53.39 -1.6,-82.84 29.39,-266.88 40.91,-358.6 5.26,-41.88 18.85,-107.37 13.38,-152.69 -23.14,-191.76 -326.12,-141.61 -437.03,-66.2 -27.41,18.64 -94.78,74 -89.96,113.89z"/>
   <path class="fil0" d="M4071.9 2628.14c91.82,-11.08 154.75,-10.72 243.9,-21.48 8.96,-23.31 125.76,-822.11 123.26,-889.52l-235.12 28.37 -32.89 215.44c-25.28,201.33 -78.45,477.72 -99.15,667.19z"/>
   <path class="fil0" d="M3687.33 2836.18l31.35 -3.79c22.55,21.22 8.2,69.48 -24.65,70.54 -23.72,0.78 -5.44,-32.72 -6.7,-66.75zm92.96 243.22l-73.67 8.89c-11.11,-1.59 -19.01,-6.96 -21.31,-19.37 -5.29,-28.61 27.32,-81.15 1.47,-105.46 -38.66,7.97 -29.3,16.76 -34.61,57.98 -3.1,24.09 -10.02,48.2 -12.95,74.98l-3.7 0.45 -60 7.24c-20.53,0.99 -22.18,-5.03 -18.56,-27.86l52.27 -294.26c74.48,-8.99 193.79,-41.37 202.55,31.21 1.8,14.92 -5.74,83.35 -51.35,101.62 12.9,32.19 17.33,11.82 20.4,37.29 7.49,62.08 -21.76,68.98 -0.54,127.29z"/>
   <path class="fil0" d="M2723.34 2980.65c17.33,-1.7 38.9,-7.12 41.08,10.94 3.21,26.58 -5.57,54.72 -34.47,55.75 -24.69,0.88 -2.59,-25.78 -6.61,-66.69zm-48.78 260.33l-69.87 8.43c-6.25,-51.86 40.21,-249.01 48.39,-323.89 74.48,-8.99 193.79,-41.37 202.55,31.21 4.56,37.83 -18.56,82.08 -50.4,109.46 54.66,63.57 -8.07,82.6 18.91,156.74 -159.8,19.28 -72.2,-5.29 -85.67,-116.89 -48.43,6.94 -36.97,16.5 -43.31,65.35 -6.42,49.49 -4.39,63.85 -20.6,69.59z"/>
   <path class="fil0" d="M2409.03 3209.41c-2.89,-29.5 6.56,-73.05 11.09,-97.74 5.66,-30.92 14.53,-61.38 13.24,-96.03 48.93,-4.8 46.45,-2.17 30.29,94.71 -8.3,49.83 -9.07,82.48 -54.62,99.06zm6.89 62.78l-85.53 10.32c-37.96,4.58 -15.04,-42.53 -10.4,-71.96l36.32 -219.89c8.05,-38.52 -8.87,-28.26 116.51,-43.39 134.2,-16.19 84.43,165.09 60.13,231.66 -23.81,65.24 -62.89,84.06 -117.03,93.26z"/>
   <path class="fil0" d="M3185.87 3104.85c4.65,38.53 22.18,49.78 44.95,50.24l29.03 -3.5c25.72,-5.51 53.66,-15.27 76.26,-12.86l44.48 -1.71c8.49,-25.01 29.43,-145.4 26.22,-178.09l-86.21 10.4c-29.67,3.58 -13.92,16.34 -26.62,42.97 12.24,23.68 -15.66,13.29 25.4,12.83 2.37,63.94 -78.21,151.9 -27.38,-85.34 6.72,-31.37 5.37,-52.03 41.71,-59.51 11.16,19.86 2.04,10.01 5.67,47.02 93.04,-11.23 87.19,-2.24 80.54,-57.43 -10.2,-84.48 -139.71,-58.43 -183.7,4.87 -28.25,40.67 -58.57,161.98 -50.35,230.11z"/>
   <path class="fil0" d="M3961.1 2936.61c10.67,-31.42 15.45,-69.86 35.67,-99.71 3.51,94.63 1.75,94.35 -35.67,99.71zm-125.94 142.43l78.36 -9.46c31.17,-61.35 7.1,-56.52 79.6,-65.27 5.21,53.18 -23.49,58.44 56.68,48.83l4.03 -0.49 4.21 -0.51 4.39 -0.53c36.79,-4.44 16.06,-51.08 13.14,-89.02 -19.99,-260.5 28.63,-234.07 -121.5,-215.95 -5.97,54.71 -120.8,281.78 -118.91,332.4z"/>
   <path class="fil0" d="M3041.29 3026.88l2.84 23.51 -39.18 4.73 22.79 -74.35c4.98,-13.88 5.62,-14.65 12.88,-25.36 3.48,35.53 -4.08,32.08 0.67,71.47zm65 143.24l-58.81 7.09c-14.1,-0.94 -5.56,-13.34 -10.51,-54.39 -48.69,5.87 -64.67,-0.55 -71.76,64.32l-86.2 10.4c-1.4,-37.48 11.71,-42.28 28.84,-90.89 11.37,-32.31 22.06,-54.24 34.62,-86.36 71.69,-183.43 35.99,-152.8 165.17,-168.39l14.82 252.86c3.41,31.78 17.09,61.34 -16.17,65.36z"/>
   <path class="fil0" d="M4543.56 2981.04c31.03,-8.19 29.82,-24.2 35.47,-75.84l-101.89 12.29c-0.9,-24.27 2.88,-38.57 9.05,-56.75l94.05 -11.35c2.64,-24.17 8.13,-46.28 7.17,-72.42l-86.22 10.41c-2.34,-23.95 0.1,-29.01 2.17,-47.97l101.88 -12.3c6.13,-18.06 9.67,-46.91 7.16,-72.43l-180.25 21.75 -44.05 256.47c-5.48,32.33 -25.58,69.99 11.34,65.53l144.12 -17.39z"/>
   <path class="fil0" d="M4140.13 2967.54c6.94,57.55 24.22,66.82 63.33,63.93l54.91 -6.63c52.82,-6.37 100.43,-77.31 93.64,-146.47l-78.37 9.46c-6.06,55.55 -9.93,77.68 -45.4,84.98 -7.25,-60.09 4.4,-103.37 14.13,-152.11 3.57,-17.9 7.13,-48.31 28.41,-55.93 29.26,-10.46 14.62,22.88 18.8,57.52l78.38 -9.45c-1.33,-35.94 25.47,-135.16 -91.66,-114.13 -122.92,22.07 -145.48,191.72 -136.17,268.83z"/>
   <path class="fil0" d="M4505.66 2419.64c11.57,95.92 52.49,39.67 66.88,158.91 -65.61,6.43 -58.67,-34.45 -81.34,-23.63 -31.3,14.93 37.2,47.94 46.77,50.43 80.16,20.89 176,-90.85 82.37,-196.24 -27.99,-31.5 -23.76,-26.68 -30.09,-79.2 50.75,-17.31 39.38,8.13 81.21,14.06 -19.41,-94.26 -176.85,-15.85 -165.8,75.67z"/>
   <path class="fil0" d="M4411.88 2367.34c27.02,-3.26 29.65,-9.46 53.92,-14.46 -8.67,61.16 -49.86,25.4 -71.75,64.33 94.67,39.11 174.17,-172.1 52.56,-157.43 -80.55,9.72 -65.4,111.27 -34.73,107.56z"/>
   <path class="fil2" d="M2495.91 3961.3l0 -376.96 74.69 -12.03 0 126.32c5.01,-1.67 11.44,-3.25 19.3,-4.76 7.85,-1.5 15.45,-2.25 22.8,-2.25 21.39,0 39.19,2.92 53.39,8.77 14.2,5.85 25.56,14.12 34.09,24.81 8.52,10.7 14.53,23.39 18.04,38.1 3.51,14.7 5.27,31.08 5.27,49.12l0 148.88 -74.69 0 0 -139.85c0,-24.07 -3.09,-41.11 -9.28,-51.13 -6.18,-10.03 -17.63,-15.04 -34.33,-15.04 -6.69,0 -12.95,0.58 -18.8,1.75 -5.85,1.17 -11.11,2.43 -15.79,3.76l0 200.51 -74.69 0zm369.94 0l-74.69 0 0 -263.67 74.69 0 0 263.67zm7.02 -339.86c0,13.7 -4.43,24.48 -13.29,32.33 -8.85,7.85 -19.3,11.78 -31.33,11.78 -12.03,0 -22.47,-3.93 -31.33,-11.78 -8.85,-7.85 -13.28,-18.63 -13.28,-32.33 0,-13.7 4.43,-24.48 13.28,-32.33 8.86,-7.86 19.3,-11.78 31.33,-11.78 12.03,0 22.48,3.92 31.33,11.78 8.86,7.85 13.29,18.63 13.29,32.33zm232.09 210.03c0,-23.06 -5.18,-41.52 -15.54,-55.39 -10.36,-13.87 -25.73,-20.8 -46.12,-20.8 -6.68,0 -12.87,0.25 -18.55,0.75 -5.68,0.5 -10.36,1.09 -14.03,1.75l0 134.85c4.68,3 10.78,5.51 18.29,7.52 7.52,2 15.13,3 22.81,3 35.43,0 53.14,-23.89 53.14,-71.68zm76.19 -2c0,20.38 -2.51,38.93 -7.52,55.64 -5.01,16.71 -12.36,31.08 -22.05,43.11 -9.7,12.03 -21.73,21.38 -36.1,28.07 -14.37,6.68 -30.91,10.02 -49.62,10.02 -10.36,0 -20.05,-1 -29.08,-3 -9.02,-2.01 -17.71,-4.85 -26.06,-8.53l0 99.25 -74.69 0 0 -347.38c6.68,-2 14.37,-3.92 23.06,-5.76 8.69,-1.84 17.79,-3.43 27.32,-4.76 9.52,-1.34 19.21,-2.42 29.07,-3.26 9.86,-0.84 19.3,-1.25 28.32,-1.25 21.72,0 41.11,3.25 58.15,9.77 17.04,6.52 31.41,15.71 43.11,27.57 11.69,11.86 20.63,26.32 26.82,43.36 6.18,17.04 9.27,36.09 9.27,57.15zm346.88 2c0,-23.06 -5.18,-41.52 -15.54,-55.39 -10.36,-13.87 -25.73,-20.8 -46.12,-20.8 -6.68,0 -12.87,0.25 -18.55,0.75 -5.68,0.5 -10.36,1.09 -14.03,1.75l0 134.85c4.68,3 10.78,5.51 18.29,7.52 7.52,2 15.13,3 22.81,3 35.43,0 53.14,-23.89 53.14,-71.68zm76.19 -2c0,20.38 -2.51,38.93 -7.52,55.64 -5.01,16.71 -12.36,31.08 -22.05,43.11 -9.7,12.03 -21.73,21.38 -36.1,28.07 -14.37,6.68 -30.91,10.02 -49.62,10.02 -10.36,0 -20.05,-1 -29.08,-3 -9.02,-2.01 -17.71,-4.85 -26.06,-8.53l0 99.25 -74.69 0 0 -347.38c6.68,-2 14.37,-3.92 23.06,-5.76 8.69,-1.84 17.79,-3.43 27.32,-4.76 9.52,-1.34 19.21,-2.42 29.07,-3.26 9.86,-0.84 19.3,-1.25 28.32,-1.25 21.72,0 41.11,3.25 58.15,9.77 17.04,6.52 31.41,15.71 43.11,27.57 11.69,11.86 20.63,26.32 26.82,43.36 6.18,17.04 9.27,36.09 9.27,57.15zm158.4 79.7c7.36,0 14.37,-0.17 21.06,-0.5 6.68,-0.34 12.03,-0.84 16.04,-1.51l0 -56.64c-3.01,-0.67 -7.52,-1.34 -13.54,-2.01 -6.01,-0.66 -11.53,-1 -16.54,-1 -7.02,0 -13.62,0.42 -19.8,1.25 -6.18,0.84 -11.61,2.43 -16.29,4.77 -4.68,2.34 -8.35,5.51 -11.03,9.52 -2.67,4.01 -4.01,9.02 -4.01,15.04 0,11.7 3.93,19.8 11.78,24.31 7.86,4.51 18.63,6.77 32.33,6.77zm-6.01 -218.56c22.05,0 40.43,2.51 55.14,7.52 14.7,5.02 26.48,12.2 35.34,21.56 8.85,9.35 15.12,20.72 18.8,34.08 3.67,13.37 5.51,28.24 5.51,44.62l0 155.39c-10.69,2.34 -25.57,5.1 -44.61,8.27 -19.05,3.18 -42.11,4.76 -69.18,4.76 -17.04,0 -32.5,-1.5 -46.37,-4.51 -13.86,-3.01 -25.81,-7.93 -35.84,-14.78 -10.02,-6.86 -17.71,-15.79 -23.06,-26.82 -5.34,-11.03 -8.02,-24.57 -8.02,-40.61 0,-15.37 3.1,-28.4 9.28,-39.09 6.18,-10.7 14.45,-19.22 24.81,-25.57 10.36,-6.35 22.22,-10.94 35.59,-13.78 13.37,-2.85 27.24,-4.27 41.61,-4.27 9.69,0 18.29,0.42 25.81,1.26 7.52,0.83 13.62,1.92 18.3,3.26l0 -7.02c0,-12.7 -3.84,-22.89 -11.53,-30.58 -7.69,-7.69 -21.05,-11.53 -40.1,-11.53 -12.7,0 -25.23,0.92 -37.6,2.76 -12.36,1.84 -23.06,4.43 -32.08,7.77l-9.52 -60.15c4.34,-1.34 9.77,-2.76 16.29,-4.26 6.51,-1.51 13.62,-2.85 21.3,-4.02 7.69,-1.16 15.79,-2.17 24.31,-3 8.53,-0.84 17.13,-1.26 25.82,-1.26zm246.12 136.85c0,23.06 5.18,41.61 15.54,55.64 10.36,14.04 25.73,21.06 46.12,21.06 6.68,0 12.86,-0.26 18.54,-0.76 5.68,-0.5 10.36,-1.08 14.04,-1.75l0 -135.85c-4.68,-3 -10.78,-5.51 -18.3,-7.51 -7.52,-2.01 -15.12,-3.01 -22.81,-3.01 -35.42,0 -53.13,24.06 -53.13,72.18zm168.93 125.32c-6.69,2 -14.37,3.93 -23.06,5.76 -8.69,1.84 -17.8,3.43 -27.32,4.77 -9.52,1.33 -19.21,2.42 -29.07,3.25 -9.86,0.84 -19.3,1.26 -28.32,1.26 -21.73,0 -41.11,-3.18 -58.15,-9.53 -17.05,-6.35 -31.42,-15.45 -43.11,-27.32 -11.7,-11.86 -20.64,-26.23 -26.82,-43.11 -6.18,-16.87 -9.27,-35.84 -9.27,-56.89 0,-21.39 2.67,-40.69 8.02,-57.9 5.34,-17.21 13.03,-31.83 23.06,-43.86 10.02,-12.03 22.3,-21.22 36.84,-27.57 14.54,-6.35 31.16,-9.52 49.88,-9.52 10.36,0 19.63,1 27.82,3.01 8.18,2 16.45,4.84 24.81,8.52l0 -119.31 74.69 -12.03 0 380.47zm145.87 -45.12c13.7,0 23.39,-1.33 29.07,-4.01 5.69,-2.67 8.53,-7.85 8.53,-15.54 0,-6.01 -3.68,-11.27 -11.03,-15.79 -7.35,-4.51 -18.55,-9.6 -33.59,-15.28 -11.69,-4.35 -22.3,-8.86 -31.83,-13.54 -9.52,-4.68 -17.63,-10.27 -24.31,-16.79 -6.68,-6.52 -11.86,-14.29 -15.54,-23.31 -3.67,-9.02 -5.51,-19.88 -5.51,-32.58 0,-24.73 9.19,-44.28 27.57,-58.65 18.38,-14.37 43.61,-21.56 75.69,-21.56 16.04,0 31.41,1.42 46.12,4.26 14.7,2.85 26.4,5.94 35.08,9.28l-13.03 58.15c-8.69,-3.01 -18.13,-5.69 -28.32,-8.02 -10.19,-2.34 -21.64,-3.51 -34.34,-3.51 -23.39,0 -35.09,6.51 -35.09,19.55 0,3 0.51,5.68 1.51,8.02 1,2.34 3.01,4.59 6.01,6.76 3.01,2.18 7.1,4.52 12.28,7.02 5.18,2.59 11.78,5.35 19.8,8.36 16.38,6.09 29.91,12.03 40.61,17.96 10.69,5.85 19.13,12.28 25.31,19.05 6.18,6.85 10.53,14.45 13.03,22.8 2.51,8.36 3.76,17.97 3.76,28.99 0,25.99 -9.77,45.7 -29.32,59.07 -19.55,13.28 -47.2,19.97 -82.96,19.97 -23.39,0 -42.86,-2.01 -58.4,-6.02 -15.54,-4.01 -26.32,-7.35 -32.33,-10.02l12.53 -60.66c12.7,5.02 25.73,8.94 39.1,11.78 13.37,2.84 26.57,4.26 39.6,4.26z"/>
   <path class="fil2" d="M235.75 189.55c-7.27,0 -15.04,0.66 -23.31,1.98 -8.26,1.33 -14.71,3.14 -19.34,5.46 0,1.32 -0.08,3.31 -0.25,5.95 -0.16,2.64 -0.24,4.96 -0.24,6.94 0,11.9 0.82,23.15 2.48,33.73 1.65,10.57 4.46,19.83 8.43,27.77 3.96,7.93 9.25,14.13 15.87,18.59 6.61,4.47 14.87,6.7 24.79,6.7 8.27,0 15.29,-1.74 21.08,-5.21 5.79,-3.47 10.58,-7.85 14.38,-13.14 3.8,-5.29 6.61,-11.16 8.43,-17.61 1.82,-6.44 2.73,-12.64 2.73,-18.59 0,-16.86 -4.22,-29.84 -12.65,-38.93 -8.43,-9.09 -22.56,-13.64 -42.4,-13.64zm9.42 -57.53c21.49,0 39.76,2.9 54.8,8.68 15.05,5.79 27.36,13.64 36.95,23.56 9.59,9.92 16.53,21.49 20.83,34.71 4.3,13.23 6.45,27.28 6.45,42.16 0,13.22 -2.4,26.78 -7.2,40.66 -4.79,13.89 -12.06,26.45 -21.82,37.69 -9.75,11.24 -22.15,20.5 -37.19,27.77 -15.04,7.28 -32.81,10.91 -53.31,10.91 -41.33,0 -72.74,-13.06 -94.23,-39.17 -21.49,-26.12 -32.23,-62.16 -32.23,-108.12 0,-33.06 5.12,-62.32 15.37,-87.77 10.25,-25.46 24.88,-46.87 43.89,-64.22 19.01,-17.36 41.99,-30.59 68.93,-39.68 26.95,-9.09 57.28,-13.8 91.01,-14.13 0.66,10.25 1.32,20.25 1.98,30 0.66,9.75 1.32,19.92 1.98,30.5 -16.86,0.33 -32.65,1.9 -47.36,4.71 -14.71,2.81 -28.1,7.19 -40.17,13.14 -12.06,5.95 -22.56,13.64 -31.49,23.06 -8.92,9.43 -15.87,20.91 -20.83,34.47 7.28,-3.31 14.72,-5.62 22.32,-6.94 7.6,-1.33 14.71,-1.99 21.32,-1.99zm279.7 34.72c7.6,0 15.54,-0.75 23.81,-2.23 8.26,-1.49 14.38,-3.56 18.34,-6.2l0 -4.47c0,-1.32 0.09,-2.64 0.25,-3.96 0.17,-1.33 0.25,-2.48 0.25,-3.47 -0.33,-11.91 -1.32,-23.07 -2.98,-33.48 -1.65,-10.41 -4.46,-19.51 -8.43,-27.28 -3.96,-7.76 -9.34,-13.88 -16.11,-18.34 -6.78,-4.47 -15.13,-6.7 -25.05,-6.7 -7.93,0 -14.88,1.65 -20.83,4.96 -5.95,3.31 -10.74,7.6 -14.38,12.89 -3.63,5.29 -6.36,11.08 -8.18,17.36 -1.82,6.28 -2.73,12.4 -2.73,18.35 0,17.85 4.38,31.08 13.14,39.67 8.77,8.6 23.06,12.9 42.9,12.9zm36.2 48.1c-6.94,3.31 -14.63,5.71 -23.06,7.19 -8.43,1.49 -15.62,2.23 -21.57,2.23 -21.49,0 -39.84,-2.56 -55.05,-7.68 -15.21,-5.13 -27.69,-12.4 -37.44,-21.82 -9.75,-9.43 -16.94,-20.75 -21.57,-33.97 -4.63,-13.23 -6.94,-27.77 -6.94,-43.64 0,-13.23 2.23,-26.78 6.69,-40.67 4.46,-13.89 11.49,-26.53 21.08,-37.94 9.59,-11.4 21.74,-20.83 36.45,-28.26 14.71,-7.44 32.48,-11.16 53.31,-11.16 42.65,0 74.8,13.14 96.46,39.42 21.65,26.29 32.48,64.06 32.48,113.32 0,32.4 -4.22,61 -12.65,85.79 -8.43,24.8 -21.49,45.63 -39.18,62.49 -17.68,16.86 -40.25,29.67 -67.69,38.43 -27.44,8.77 -60.01,13.31 -97.69,13.64 -0.34,-10.58 -0.83,-20.83 -1.49,-30.75 -0.66,-9.91 -1.33,-20.16 -1.99,-30.74 18.85,-0.33 35.88,-1.74 51.08,-4.22 15.21,-2.48 28.6,-6.61 40.17,-12.4 11.57,-5.78 21.41,-13.47 29.51,-23.06 8.1,-9.58 14.46,-21.65 19.09,-36.2zm325.82 -35.7c0,16.86 2.07,32.07 6.2,45.62 4.13,13.56 10.08,25.21 17.85,34.96 7.77,9.76 17.28,17.28 28.52,22.57 11.24,5.29 24.13,7.93 38.68,7.93 14.21,0 27.03,-2.64 38.43,-7.93 11.41,-5.29 21,-12.81 28.77,-22.57 7.76,-9.75 13.72,-21.4 17.85,-34.96 4.13,-13.55 6.2,-28.76 6.2,-45.62 0,-16.87 -2.07,-32.16 -6.2,-45.88 -4.13,-13.72 -10.09,-25.45 -17.85,-35.21 -7.77,-9.75 -17.36,-17.27 -28.77,-22.56 -11.4,-5.29 -24.22,-7.94 -38.43,-7.94 -14.55,0 -27.44,2.73 -38.68,8.19 -11.24,5.45 -20.75,13.06 -28.52,22.81 -7.77,9.75 -13.72,21.49 -17.85,35.21 -4.13,13.72 -6.2,28.85 -6.2,45.38zm262.34 0c0,24.13 -2.97,45.87 -8.93,65.21 -5.95,19.34 -14.29,36.28 -25.04,50.83 -10.74,14.55 -23.56,26.62 -38.43,36.2 -14.88,9.59 -31.25,16.53 -49.1,20.83 1.65,6.61 5.29,11.99 10.91,16.12 5.62,4.13 12.73,7.52 21.33,10.17 8.59,2.64 18.59,4.62 30,5.95 11.4,1.32 23.72,2.48 36.94,3.47l-15.87 56.53c-25.78,-0.99 -47.85,-3.55 -66.2,-7.68 -18.35,-4.14 -33.89,-9.84 -46.62,-17.11 -12.73,-7.28 -22.81,-16.2 -30.25,-26.78 -7.44,-10.58 -13.14,-22.82 -17.11,-36.7 -20.5,-2.65 -39.51,-8.35 -57.03,-17.11 -17.52,-8.76 -32.73,-20.58 -45.62,-35.46 -12.9,-14.88 -22.98,-32.73 -30.25,-53.56 -7.28,-20.83 -10.91,-44.47 -10.91,-70.91 0,-29.43 4.62,-55.3 13.88,-77.62 9.26,-22.31 21.74,-41.07 37.44,-56.28 15.71,-15.21 33.89,-26.62 54.55,-34.22 20.67,-7.61 42.41,-11.41 65.22,-11.41 23.47,0 45.62,3.8 66.45,11.41 20.83,7.6 39.01,19.01 54.55,34.22 15.54,15.21 27.77,33.97 36.7,56.28 8.93,22.32 13.39,48.19 13.39,77.62zm198.87 179.02c-24.14,0 -44.97,-3.39 -62.49,-10.16 -17.52,-6.78 -31.98,-16.2 -43.39,-28.27 -11.41,-12.07 -19.84,-26.45 -25.29,-43.15 -5.46,-16.69 -8.19,-35.12 -8.19,-55.29l0 -213.74 77.37 0 0 207.29c0,13.89 1.57,25.71 4.71,35.46 3.14,9.75 7.44,17.69 12.89,23.8 5.46,6.12 12.07,10.5 19.84,13.15 7.77,2.64 16.28,3.96 25.54,3.96 18.84,0 34.14,-5.78 45.87,-17.35 11.74,-11.57 17.61,-31.25 17.61,-59.02l0 -207.29 77.36 0 0 213.74c0,20.17 -2.81,38.68 -8.43,55.54 -5.62,16.86 -14.22,31.33 -25.79,43.4 -11.57,12.06 -26.28,21.4 -44.13,28.01 -17.86,6.62 -39.02,9.92 -63.48,9.92zm216.22 -6.94l0 -343.67 232.09 0 0 64.96 -154.72 0 0 67.45 137.37 0 0 63.48 -137.37 0 0 82.81 166.13 0 0 64.97 -243.5 0zm300.53 0l0 -343.67 232.09 0 0 64.96 -154.72 0 0 67.45 137.37 0 0 63.48 -137.37 0 0 82.81 166.13 0 0 64.97 -243.5 0zm531.14 0c-22.15,-39.34 -46.12,-78.19 -71.91,-116.54 -25.79,-38.35 -53.23,-74.55 -82.32,-108.61l0 225.15 -76.38 0 0 -343.67 62.99 0c10.91,10.91 22.97,24.3 36.2,40.17 13.22,15.87 26.69,32.81 40.42,50.83 13.72,18.02 27.35,36.7 40.91,56.04 13.55,19.34 26.28,37.94 38.18,55.79l0 -202.83 76.87 0 0 343.67 -64.96 0zm357.06 -59.01c10.91,0 19.92,-0.91 27.03,-2.73 7.11,-1.82 12.81,-4.3 17.11,-7.44 4.3,-3.14 7.27,-6.86 8.93,-11.16 1.65,-4.3 2.48,-9.09 2.48,-14.38 0,-11.24 -5.29,-20.58 -15.87,-28.02 -10.58,-7.44 -28.77,-15.46 -54.56,-24.05 -11.24,-3.97 -22.48,-8.52 -33.72,-13.64 -11.24,-5.12 -21.32,-11.57 -30.25,-19.34 -8.93,-7.77 -16.2,-17.19 -21.82,-28.27 -5.62,-11.07 -8.43,-24.55 -8.43,-40.42 0,-15.87 2.98,-30.16 8.93,-42.89 5.95,-12.73 14.38,-23.56 25.29,-32.49 10.91,-8.92 24.13,-15.78 39.67,-20.58 15.54,-4.79 33.06,-7.19 52.57,-7.19 23.14,0 43.14,2.48 60.01,7.44 16.86,4.96 30.74,10.42 41.65,16.37l-22.31 61c-9.59,-4.96 -20.25,-9.34 -31.99,-13.15 -11.74,-3.8 -25.87,-5.7 -42.4,-5.7 -18.52,0 -31.82,2.56 -39.92,7.69 -8.1,5.12 -12.15,12.97 -12.15,23.55 0,6.28 1.49,11.57 4.46,15.87 2.98,4.3 7.19,8.19 12.65,11.66 5.45,3.47 11.73,6.61 18.84,9.42 7.11,2.81 14.96,5.7 23.56,8.68 17.85,6.61 33.39,13.14 46.61,19.59 13.23,6.44 24.22,13.96 32.98,22.56 8.76,8.6 15.29,18.68 19.59,30.25 4.3,11.57 6.45,25.62 6.45,42.16 0,32.06 -11.24,56.94 -33.72,74.63 -22.49,17.69 -56.37,26.53 -101.67,26.53 -15.21,0 -28.93,-0.91 -41.16,-2.72 -12.23,-1.82 -23.06,-4.05 -32.48,-6.7 -9.42,-2.64 -17.52,-5.45 -24.3,-8.43 -6.78,-2.98 -12.48,-5.79 -17.11,-8.43l21.82 -61.49c10.25,5.62 22.89,10.66 37.94,15.12 15.04,4.46 33.47,6.7 55.29,6.7zm194.9 -284.66l77.37 0 0 343.67 -77.37 0 0 -343.67zm399.22 53.56c-10.58,10.91 -23.14,25.04 -37.69,42.4 -14.55,17.36 -29.59,36.28 -45.13,56.78 -15.62,20.5 -31,41.66 -46.2,63.48 -15.21,21.82 -28.77,42.65 -40.67,62.48l175.14 0 0 64.97 -270.27 0 0 -46.12c9.25,-16.86 20.58,-35.62 33.97,-56.29 13.39,-20.66 27.36,-41.49 41.9,-62.48 14.55,-21 29.34,-41.33 44.39,-61 15.04,-19.67 29.01,-37.28 41.9,-52.82l-154.23 0 0 -64.96 256.89 0 0 53.56zm60 290.11l0 -343.67 232.09 0 0 64.96 -154.72 0 0 67.45 137.37 0 0 63.48 -137.37 0 0 82.81 166.13 0 0 64.97 -243.5 0zm522.7 -347.64c51.25,0 90.59,9.01 118.03,27.03 27.44,18.02 41.17,47.52 41.17,88.52 0,41.33 -13.89,71.16 -41.66,89.51 -27.77,18.35 -67.45,27.53 -119.02,27.53l-24.3 0 0 115.05 -77.37 0 0 -338.71c16.86,-3.31 34.72,-5.62 53.56,-6.95 18.85,-1.32 35.38,-1.98 49.59,-1.98zm4.96 65.96c-5.62,0 -11.15,0.16 -16.61,0.49 -5.45,0.33 -10.17,0.66 -14.13,1l0 99.18 24.3 0c26.78,0 46.94,-3.64 60.5,-10.91 13.55,-7.27 20.33,-20.83 20.33,-40.67 0,-9.58 -1.73,-17.52 -5.21,-23.8 -3.47,-6.28 -8.43,-11.32 -14.87,-15.13 -6.45,-3.8 -14.3,-6.44 -23.56,-7.93 -9.26,-1.49 -19.5,-2.23 -30.75,-2.23zm413.85 281.68c-6.95,-11.16 -15.13,-23.31 -24.63,-36.28 -9.43,-12.98 -19.59,-26.04 -30.5,-39.27 -10.91,-13.22 -22.4,-25.87 -34.3,-37.93 -11.91,-12.07 -23.89,-22.82 -35.79,-32.07l0 145.55 -77.37 0 0 -343.67 77.37 0 0 129.18c19.92,-20.91 40.08,-42.73 60.58,-65.54 20.58,-22.81 39.51,-44.05 56.87,-63.64l91.83 0c-23.4,27.85 -46.95,54.63 -70.59,80.34 -23.64,25.7 -48.6,51.57 -74.72,77.61 27.52,22.89 54.06,50.17 79.6,81.58 25.54,31.49 50.08,66.2 73.64,104.14l-91.99 0zm276.96 -284.16c-36.03,0 -62.07,10 -78.1,30 -16.04,20 -24.05,47.36 -24.05,82.08 0,16.86 1.98,32.15 5.95,45.87 3.96,13.72 9.91,25.54 17.85,35.46 7.93,9.92 17.85,17.6 29.75,23.06 11.91,5.45 25.79,8.18 41.66,8.18 8.6,0 15.95,-0.17 22.07,-0.5 6.12,-0.33 11.49,-0.99 16.12,-1.98l0 -119.52 77.36 0 0 170.1c-9.26,3.64 -24.13,7.53 -44.63,11.66 -20.5,4.13 -45.79,6.2 -75.88,6.2 -25.79,0 -49.18,-3.97 -70.17,-11.91 -20.99,-7.93 -38.93,-19.5 -53.81,-34.71 -14.88,-15.21 -26.36,-33.89 -34.46,-56.04 -8.1,-22.15 -12.15,-47.44 -12.15,-75.87 0,-28.77 4.46,-54.22 13.39,-76.38 8.92,-22.15 21.16,-40.91 36.69,-56.28 15.54,-15.38 33.81,-27.03 54.8,-34.97 21,-7.93 43.4,-11.9 67.2,-11.9 16.2,0 30.83,1.08 43.89,3.23 13.06,2.15 24.3,4.62 33.72,7.44 9.42,2.81 17.19,5.7 23.31,8.67 6.12,2.98 10.5,5.29 13.14,6.95l-22.31 61.99c-10.58,-5.62 -22.73,-10.5 -36.45,-14.63 -13.73,-4.14 -28.69,-6.2 -44.89,-6.2zm274.25 225.15c10.91,0 19.92,-0.91 27.03,-2.73 7.11,-1.82 12.81,-4.3 17.11,-7.44 4.3,-3.14 7.27,-6.86 8.93,-11.16 1.65,-4.3 2.48,-9.09 2.48,-14.38 0,-11.24 -5.29,-20.58 -15.87,-28.02 -10.58,-7.44 -28.77,-15.46 -54.56,-24.05 -11.24,-3.97 -22.48,-8.52 -33.72,-13.64 -11.24,-5.12 -21.32,-11.57 -30.25,-19.34 -8.93,-7.77 -16.2,-17.19 -21.82,-28.27 -5.62,-11.07 -8.43,-24.55 -8.43,-40.42 0,-15.87 2.98,-30.16 8.93,-42.89 5.95,-12.73 14.38,-23.56 25.29,-32.49 10.91,-8.92 24.13,-15.78 39.67,-20.58 15.54,-4.79 33.06,-7.19 52.57,-7.19 23.14,0 43.14,2.48 60.01,7.44 16.86,4.96 30.74,10.42 41.65,16.37l-22.31 61c-9.59,-4.96 -20.25,-9.34 -31.99,-13.15 -11.74,-3.8 -25.87,-5.7 -42.4,-5.7 -18.52,0 -31.82,2.56 -39.92,7.69 -8.1,5.12 -12.15,12.97 -12.15,23.55 0,6.28 1.49,11.57 4.46,15.87 2.98,4.3 7.19,8.19 12.65,11.66 5.45,3.47 11.73,6.61 18.84,9.42 7.11,2.81 14.96,5.7 23.56,8.68 17.85,6.61 33.39,13.14 46.61,19.59 13.23,6.44 24.22,13.96 32.98,22.56 8.76,8.6 15.29,18.68 19.59,30.25 4.3,11.57 6.45,25.62 6.45,42.16 0,32.06 -11.24,56.94 -33.72,74.63 -22.49,17.69 -56.37,26.53 -101.67,26.53 -15.21,0 -28.93,-0.91 -41.16,-2.72 -12.23,-1.82 -23.06,-4.05 -32.48,-6.7 -9.42,-2.64 -17.52,-5.45 -24.3,-8.43 -6.78,-2.98 -12.48,-5.79 -17.11,-8.43l21.82 -61.49c10.25,5.62 22.89,10.66 37.94,15.12 15.04,4.46 33.47,6.7 55.29,6.7z"/>
   <path class="fil1" d="M-0.01 572l5080 0 0 666.11c-1359.31,-502.71 -4837.14,-599.03 -3792.76,570.89 -347.93,26.72 -834.51,35.57 -1278.17,-243.58l-9.07 -993.42z"/>
   <path class="fil1" d="M6.01 3823.07c3580.32,1140.81 5427.43,284.25 4463.78,-398.32 217.23,8.93 423.46,56.4 606.97,183.36l0 1074.84 -5070.75 0 0 -859.88z"/>
  </g>
 </g>
</svg>
