<?xml version="1.0" encoding="UTF-8"?>
<!DOCTYPE svg PUBLIC "-//W3C//DTD SVG 1.1//EN" "http://www.w3.org/Graphics/SVG/1.1/DTD/svg11.dtd">
<!-- Creator: CorelDRAW 2017 -->
<svg xmlns="http://www.w3.org/2000/svg" xml:space="preserve" width="50.7998mm" height="33.8666mm" version="1.1" style="shape-rendering:geometricPrecision; text-rendering:geometricPrecision; image-rendering:optimizeQuality; fill-rule:evenodd; clip-rule:evenodd"
viewBox="0 0 5079.98 3386.66"
 xmlns:xlink="http://www.w3.org/1999/xlink">
 <defs>
  <style type="text/css">
   <![CDATA[
    .fil0 {fill:none}
    .fil3 {fill:black}
    .fil2 {fill:#030303}
    .fil1 {fill:#050505}
    .fil4 {fill:#1B1A1A}
    .fil11 {fill:#838383}
    .fil10 {fill:#8E8E8E}
    .fil9 {fill:#A19E9B}
    .fil6 {fill:#A5A5A5}
    .fil8 {fill:#AC9393}
    .fil5 {fill:#B6ABAB}
    .fil7 {fill:#BDBABB}
    .fil12 {fill:#F5F4F3}
   ]]>
  </style>
 </defs>
 <g id="Capa_x0020_1">
  <metadata id="CorelCorpID_0Corel-Layer"/>
  <rect class="fil0" x="-0" width="5079.99" height="3386.66"/>
  <g id="_2293421481376">
   <path class="fil1" d="M2714.26 3257.4l-29.23 -208.76c686.98,-96.11 1364.82,-461.1 1575.46,-1097.71 125.52,-379.4 50.08,-501.27 7.35,-786.12l-96.98 -197.55c-113.64,-188.56 -274.14,-351.6 -472.55,-464.28 -145.15,-82.43 -278.46,-140.35 -441.57,-180.4 -109.7,-26.95 -158.75,-19.98 -244.54,-70.23 -79.22,-46.41 -117.92,-76.99 -225.22,-93.78 28.67,58.91 33.44,20.44 0,81.62 63.09,18.14 36.14,3.56 49.97,32.75 19.59,12.14 -2.6,18.19 61.36,25.98 47.48,5.79 39.5,-7.13 79.02,18.98 219.59,-8.38 538.02,154.22 681.37,249.98 89.71,59.94 194.24,141.54 252.28,209.82 52.62,61.89 159.59,185.7 186.26,283.11 69.43,60.12 166.04,538.07 99.78,632.11 -15.17,271.49 -219.69,543.64 -355.1,676.74 -180.73,177.66 -380.43,307.26 -635.76,399.79 -417.19,151.18 -1229.63,264.33 -1653.13,-21.09l-42.05 -39.24c-20.04,-4.59 -8.39,0.75 -32.69,-12.19 -15.79,-8.41 -7.9,-4.26 -21.75,-14.56 -169.54,-126.08 -296.55,-310.57 -386.52,-500.99l-80.88 -207.98c-9.08,-17.93 -7.59,-14.4 -16.96,-25.03l-22.09 55.9c-1.15,0.74 -4.49,2.27 -5.77,2.84 -45.24,19.49 -58.85,-16.3 -92.38,6.74l10.85 50.45c-21.81,11.45 32.42,36.7 -36.12,0.08 59.24,281.33 333.98,615.41 512.58,747.96 284.14,210.89 560.8,247.65 980.99,268.24l11.96 181.69 382.06 -4.87z"/>
   <path class="fil2" d="M826.67 2064.38c68.54,36.62 14.31,11.37 36.12,-0.08l-10.85 -50.45c33.53,-23.04 47.14,12.75 92.38,-6.74 1.28,-0.57 4.62,-2.1 5.77,-2.84l22.09 -55.9c9.39,-61.55 -20.26,-145.51 -28.21,-212.8 -8.52,-72.16 -9.61,-158.37 -3.32,-230.81 7.52,-86.65 49.33,-328.73 93.41,-365.06 123.36,-416.7 792.35,-809.97 1315.51,-853.04l71.86 -5.53c61.02,-35.38 319.53,-29.71 415.52,-8.19 -13.83,-29.19 13.12,-14.61 -49.97,-32.75 33.44,-61.18 28.67,-22.71 0,-81.62 -42.01,-33.14 -369.99,-39.71 -458.75,-30.22 -839.99,89.72 -1583.39,571.33 -1577.86,1498.83 0.57,94.62 37.46,379.13 76.3,437.2z"/>
   <path class="fil2" d="M3049.22 852.16c-231.56,64.5 -308.49,-161.69 -183.44,-257.99 59.63,-45.92 164.64,-46.02 220.6,8.43 64.75,63.01 33.25,152.21 9.46,217.22 40.4,14.68 62.06,39.84 86.56,16.57 27.4,-26.03 16.81,-73 16.81,-121.43 13.68,-62.66 -3.54,-4.2 27.59,-17.2 60.67,-25.33 40.55,9.37 86,-12.11 34.14,-16.13 24.23,-1.62 36.34,-33.16 -23.14,7.64 -57.63,20.98 -81.24,0 69.9,-5.92 32.98,17.77 41.32,-35.42 14.39,-91.75 -10.49,-52.31 -21.1,-64.47l-0.74 62.19c-62.48,4.47 -60.65,9.62 -53.7,-54.81l57.56 -3.25c-17.16,-22.31 -0.82,-21.98 -67.11,-29.11 19.11,14.9 9.3,14.45 37.22,4.68 39.65,-13.87 12.41,17.91 25.32,-23.52 1.61,3.83 11.73,18.04 13.78,19.53 19.33,14.13 47.08,4.61 23.76,-13.25 23.97,42.8 6.33,16.87 41.31,36.63 41.7,23.56 63.23,11.43 99.53,46.19l4.87 12.55c-1.12,0.02 -8.34,5.01 -9.33,1.92 -1.24,-3.82 -7.79,1.26 -11.43,2.66 11.77,47.07 45.99,84.88 24.92,91.59l0 95.82 37.48 0c0,59.92 10.23,148.57 -10.46,189.75l-17.33 18.88c-0.82,0.41 -4.02,1.16 -4.89,1.43l-27.66 2.33c20.82,53.8 27.92,30.62 -3.29,89.13 -37.86,71.01 -48.9,21.54 -65.44,77.44 -23.59,-14.37 -16.46,-21.63 -37.49,-45.77 -23.93,36.76 35.89,18.59 -57.25,26.74l-225.97 -1.82c-14.15,-19.09 -22.43,-61.75 -48.43,-44.43l-55.72 52.78 -33.22 -66.55c1.99,37.78 15.86,57.85 -65.22,7.53l-13.95 -7.53c-26.07,23.41 7.08,33.34 12.43,-45.83 -84.31,9.06 -33.87,-11.66 -52.05,20.79l31.21 -82.43 54.24 -0.83c-51.72,6.01 -45.09,-15.99 -49.98,-62.46 48.29,3.89 76.97,14.49 105.31,13.81 155.03,-3.73 134.39,8.25 143.65,-31.39 10.32,-44.19 -34.88,27.23 5.61,-14.64l32.73 -26.12c-45.05,-9.42 -73.13,2.99 -79.17,-21.07zm-211.46 343.14c39.4,9.66 75.05,46.17 114.69,66.91 247.66,129.48 291.75,-66.7 470.75,-30.46 34.84,-48.92 60.38,-51.74 103.12,-114.74 26.16,-38.57 54.1,-120.08 78.62,-147.49 -3.5,-53.09 10.08,-111.99 2.44,-177.62 -6.01,-51.4 -30.86,-91.36 -28.99,-137.28 -14.32,-11.53 -8.44,-5.86 -21.7,-21.02 -33.69,-38.48 -39.98,-73.29 -101.6,-124.68 -318.39,-265.45 -736.49,-27.12 -754.17,305.44 -11.97,224.89 72.25,255.14 136.84,380.94z"/>
   <path class="fil2" d="M1690.7 840.31c52.71,15.48 54.01,15.73 81.53,63.25 11.12,101.73 4.69,123.16 -64.86,168.05 -62.27,40.21 -134.52,44.89 -184.74,-4.37 -103.18,-101.19 14.13,-285.1 168.07,-226.93zm167.66 3.97c21.47,-22.87 -36.06,-24.43 41.48,-21.66 18.64,36.21 23.94,12.72 0,56.1 -73.5,6.72 -21.85,3.62 -40.8,-19.56l-0.68 -14.88zm-472.14 367.01c12.25,18.29 36.58,106.72 64.64,153.02 30.68,50.64 89.38,87.8 99.22,122.9 45.42,19.28 58.98,36.5 112.31,52.58l20.85 -45.99 -48.84 -12.08c1.73,2.19 5.5,-4.58 6.35,-2.42 0.02,0.05 28.43,-14.77 11.31,-62.33 -39.23,-109.03 -22.87,-76.02 -22.87,-214.75 47.07,31.9 11.51,-10.96 27.67,38.38 2.63,8.06 1.4,42.68 1.4,53.29l82.28 0c1.1,-51.9 -4.57,-80.88 -11.4,-120.8l112.35 9.81c2.28,-100.93 -8.94,-74.03 50.07,-93.13 0,-60.34 -5.84,-87.92 12.49,-133.22 125.18,-43.41 -15.98,54.69 95.71,-16.63 35.47,-22.64 -2.91,-8.25 41.73,-20.85 -15.95,-21.65 -16.41,4.85 -24.61,-39.92 -0.37,-1.99 -1.29,-6.82 -0.39,-10.06l54.06 -12.49c21.84,59.93 -10.35,71.44 -12.49,137.43 49.94,-7.1 -11.2,0.05 42.21,-18.21 35.8,-12.23 46.41,-10.74 82.72,-10.98 7.6,111.2 22.45,-71.17 25.21,212.59l-18.71 154.91c0.02,0.27 12.95,33.04 15.58,41.48 80.01,-57.68 103.91,-231.91 76.98,-352.15 -32.09,-143.31 -115.19,-199.21 -168.61,-275.31 -52.32,-6.05 -121.55,-65.46 -213.66,-77.87 -342.93,-9.79 -538.82,195.24 -513.56,542.8z"/>
   <path class="fil3" d="M1662.39 1539.79c119.71,80.46 176.24,-33.88 309.17,-18.24 75.82,8.93 79.85,13.03 146.47,-38.93 29.59,-23.07 79.03,-62.47 87.04,-108.8 -2.63,-8.44 -15.56,-41.21 -15.58,-41.48l18.71 -154.91c-2.76,-283.76 -17.61,-101.39 -25.21,-212.59 -36.31,0.24 -46.92,-1.25 -82.72,10.98 -53.41,18.26 7.73,11.11 -42.21,18.21 2.14,-65.99 34.33,-77.5 12.49,-137.43l-54.06 12.49c-0.9,3.24 0.02,8.07 0.39,10.06 8.2,44.77 8.66,18.27 24.61,39.92 -44.64,12.6 -6.26,-1.79 -41.73,20.85 -111.69,71.32 29.47,-26.78 -95.71,16.63 -18.33,45.3 -12.49,72.88 -12.49,133.22 -59.01,19.1 -47.79,-7.8 -50.07,93.13l-112.35 -9.81c6.83,39.92 12.5,68.9 11.4,120.8l-82.28 0c0,-10.61 1.23,-45.23 -1.4,-53.29 -16.16,-49.34 19.4,-6.48 -27.67,-38.38 0,138.73 -16.36,105.72 22.87,214.75 17.12,47.56 -11.29,62.38 -11.31,62.33 -0.85,-2.16 -4.62,4.61 -6.35,2.42l48.84 12.08 -20.85 45.99z"/>
   <path class="fil3" d="M3291.24 556.73l-3.12 -4.13c10.61,12.16 35.49,-27.28 21.1,64.47 -8.34,53.19 28.58,29.5 -41.32,35.42 23.61,20.98 58.1,7.64 81.24,0 -12.11,31.54 -2.2,17.03 -36.34,33.16 -45.45,21.48 -25.33,-13.22 -86,12.11 -31.13,13 -13.91,-45.46 -27.59,17.2 0,48.43 10.59,95.4 -16.81,121.43 -24.5,23.27 -46.16,-1.89 -86.56,-16.57 -15.07,3.69 -10.13,0.08 -28.17,13.03 -17,12.19 -6.63,2.93 -18.45,19.31 6.04,24.06 34.12,11.65 79.17,21.07l-32.73 26.12c-40.49,41.87 4.71,-29.55 -5.61,14.64 -9.26,39.64 11.38,27.66 -143.65,31.39 -28.34,0.68 -57.02,-9.92 -105.31,-13.81 4.89,46.47 -1.74,68.47 49.98,62.46l-54.24 0.83 -31.21 82.43c18.18,-32.45 -32.26,-11.73 52.05,-20.79 -5.35,79.17 -38.5,69.24 -12.43,45.83l13.95 7.53c81.08,50.32 67.21,30.25 65.22,-7.53l33.22 66.55 55.72 -52.78c26,-17.32 34.28,25.34 48.43,44.43l225.97 1.82c93.14,-8.15 33.32,10.02 57.25,-26.74 21.03,24.14 13.9,31.4 37.49,45.77 16.54,-55.9 27.58,-6.43 65.44,-77.44 31.21,-58.51 24.11,-35.33 3.29,-89.13l27.66 -2.33c0.87,-0.27 4.07,-1.02 4.89,-1.43l17.33 -18.88c20.69,-41.18 10.46,-129.83 10.46,-189.75l-37.48 0 0 -95.82c21.07,-6.71 -13.15,-44.52 -24.92,-91.59 3.64,-1.4 10.19,-6.48 11.43,-2.66 0.99,3.09 8.21,-1.9 9.33,-1.92l-4.87 -12.55c-36.3,-34.76 -57.83,-22.63 -99.53,-46.19 -34.98,-19.76 -17.34,6.17 -41.31,-36.63 23.32,17.86 -4.43,27.38 -23.76,13.25 -2.05,-1.49 -12.17,-15.7 -13.78,-19.53 -12.91,41.43 14.33,9.65 -25.32,23.52 -27.92,9.77 -18.11,10.22 -37.22,-4.68 66.29,7.13 49.95,6.8 67.11,29.11z"/>
   <path class="fil4" d="M2481.34 1708.03c114.2,-14.25 218.67,-18.16 307.8,16.38 75.71,29.34 142.93,95.71 161.36,189.96 -59.37,100.45 -204.03,101.9 -301.08,36.95 -47.65,-31.88 -158.52,-160.86 -168.08,-243.29zm498.51 -75.4c17.31,88.98 33.13,136.45 8.15,233.58 -2.31,-2.21 -5.04,-5.58 -6.26,-7.25 -90.68,-122.64 -8.75,-61.8 -183.16,-175.39l181.27 -50.94zm-164.03 7.52c-30.33,17.09 -104.23,21.96 -147.45,18.15 -42.38,28.28 -160.7,5.4 -211.35,25.19 -1.41,3.35 -2.87,7.81 -3.33,10.39 -0.44,2.54 -2.29,7.29 -2.64,10.4 -7.19,63.18 -5.74,-39.82 -1.26,20.72 3.44,46.28 74.43,142.71 100.41,176.23 122.15,157.64 319.12,168.61 424.94,38.79 66.05,-81.01 65.46,-141.72 48.63,-271.21l-27.36 -61.99 -180.59 33.33z"/>
   <path class="fil5" d="M1885.73 1787.82c-11.65,-55.99 -75.52,-96.02 -127.71,-54.69 11.02,62.34 56.87,59.24 127.71,54.69z"/>
   <path class="fil6" d="M2137.51 1739.46c-36.53,-40.37 -56.6,-53.27 -125.16,-62.4 18.1,83.15 97.85,77.4 125.16,62.4z"/>
   <path class="fil7" d="M3772.99 1408.38l55.32 10.35c-15.96,-57.24 -16.58,-28.56 -36.22,-71.14l-35.04 -8.89 -56.69 0.99c20.55,21.8 16.53,12.77 39.89,32.42 23.99,20.17 19.64,18.43 32.74,36.27z"/>
   <path class="fil8" d="M3654.26 1433.06l45.74 -2.66c-20.89,-41.35 -50.66,-67.85 -118.98,-70.62 25.03,88.77 38.9,18.54 73.24,73.28z"/>
   <path class="fil9" d="M3511.62 1439.95l64.97 2.09c-19.64,-38.32 -33.92,-36.16 -36.8,-48.25 -1.24,-5.19 -4.74,-5.76 -6.91,-8.8 -47.44,4.86 -21.08,-1.09 -50.52,17.14 14.18,39.84 -4.58,19.74 29.26,37.82z"/>
   <path class="fil5" d="M1977.73 1739.46c-81.8,-86.12 -72.1,-16.11 -77.83,-12.49 18.49,11.98 -11.66,16.76 38.31,26.22 54.13,10.24 39.4,-13.65 39.52,-13.73z"/>
   <path class="fil10" d="M1859.04 859.16c18.95,23.18 -32.7,26.28 40.8,19.56 23.94,-43.38 18.64,-19.89 0,-56.1 -77.54,-2.77 -20.01,-1.21 -41.48,21.66 59.06,-8.35 21.04,-10.8 40.69,8.12 -14.2,10.98 18.59,17.66 -40.01,6.76z"/>
   <path class="fil11" d="M1772.23 903.56c-27.52,-47.52 -28.82,-47.77 -81.53,-63.25l16.39 15.01c9.19,7.48 14.93,11.69 22.55,17.46 3.1,2.36 11.57,8.82 14.77,11.17l17.86 12.76c2.46,1.76 6.61,4.59 9.96,6.85z"/>
   <path class="fil12" d="M1859.04 859.16c58.6,10.9 25.81,4.22 40.01,-6.76 -19.65,-18.92 18.37,-16.47 -40.69,-8.12l0.68 14.88z"/>
   <path class="fil1" d="M2714.26 3257.4l-29.23 -208.76c686.98,-96.11 1364.82,-461.1 1575.46,-1097.71 125.52,-379.4 50.08,-501.27 7.35,-786.12l-96.98 -197.55c-113.64,-188.56 -274.14,-351.6 -472.55,-464.28 -145.15,-82.43 -278.46,-140.35 -441.57,-180.4 -109.7,-26.95 -158.75,-19.98 -244.54,-70.23 -79.22,-46.41 -117.92,-76.99 -225.22,-93.78 28.67,58.91 33.44,20.44 0,81.62 63.09,18.14 36.14,3.56 49.97,32.75 19.59,12.14 -2.6,18.19 61.36,25.98 47.48,5.79 39.5,-7.13 79.02,18.98 219.59,-8.38 538.02,154.22 681.37,249.98 89.71,59.94 194.24,141.54 252.28,209.82 52.62,61.89 159.59,185.7 186.26,283.11 69.43,60.12 166.04,538.07 99.78,632.11 -15.17,271.49 -219.69,543.64 -355.1,676.74 -180.73,177.66 -380.43,307.26 -635.76,399.79 -417.19,151.18 -1229.63,264.33 -1653.13,-21.09l-42.05 -39.24c-20.04,-4.59 -8.39,0.75 -32.69,-12.19 -15.79,-8.41 -7.9,-4.26 -21.75,-14.56 -169.54,-126.08 -296.55,-310.57 -386.52,-500.99l-80.88 -207.98c-9.08,-17.93 -7.59,-14.4 -16.96,-25.03l-22.09 55.9c-1.15,0.74 -4.49,2.27 -5.77,2.84 -45.24,19.49 -58.85,-16.3 -92.38,6.74l10.85 50.45c-21.81,11.45 32.42,36.7 -36.12,0.08 59.24,281.33 333.98,615.41 512.58,747.96 284.14,210.89 560.8,247.65 980.99,268.24l11.96 181.69 382.06 -4.87z"/>
   <path class="fil2" d="M826.67 2064.38c68.54,36.62 14.31,11.37 36.12,-0.08l-10.85 -50.45c33.53,-23.04 47.14,12.75 92.38,-6.74 1.28,-0.57 4.62,-2.1 5.77,-2.84l22.09 -55.9c9.39,-61.55 -20.26,-145.51 -28.21,-212.8 -8.52,-72.16 -9.61,-158.37 -3.32,-230.81 7.52,-86.65 49.33,-328.73 93.41,-365.06 123.36,-416.7 792.35,-809.97 1315.51,-853.04l71.86 -5.53c61.02,-35.38 319.53,-29.71 415.52,-8.19 -13.83,-29.19 13.12,-14.61 -49.97,-32.75 33.44,-61.18 28.67,-22.71 0,-81.62 -42.01,-33.14 -369.99,-39.71 -458.75,-30.22 -839.99,89.72 -1583.39,571.33 -1577.86,1498.83 0.57,94.62 37.46,379.13 76.3,437.2z"/>
   <path class="fil2" d="M3049.22 852.16c-231.56,64.5 -308.49,-161.69 -183.44,-257.99 59.63,-45.92 164.64,-46.02 220.6,8.43 64.75,63.01 33.25,152.21 9.46,217.22 40.4,14.68 62.06,39.84 86.56,16.57 27.4,-26.03 16.81,-73 16.81,-121.43 13.68,-62.66 -3.54,-4.2 27.59,-17.2 60.67,-25.33 40.55,9.37 86,-12.11 34.14,-16.13 24.23,-1.62 36.34,-33.16 -23.14,7.64 -57.63,20.98 -81.24,0 69.9,-5.92 32.98,17.77 41.32,-35.42 14.39,-91.75 -10.49,-52.31 -21.1,-64.47l-0.74 62.19c-62.48,4.47 -60.65,9.62 -53.7,-54.81l57.56 -3.25c-17.16,-22.31 -0.82,-21.98 -67.11,-29.11 19.11,14.9 9.3,14.45 37.22,4.68 39.65,-13.87 12.41,17.91 25.32,-23.52 1.61,3.83 11.73,18.04 13.78,19.53 19.33,14.13 47.08,4.61 23.76,-13.25 23.97,42.8 6.33,16.87 41.31,36.63 41.7,23.56 63.23,11.43 99.53,46.19l4.87 12.55c-1.12,0.02 -8.34,5.01 -9.33,1.92 -1.24,-3.82 -7.79,1.26 -11.43,2.66 11.77,47.07 45.99,84.88 24.92,91.59l0 95.82 37.48 0c0,59.92 10.23,148.57 -10.46,189.75l-17.33 18.88c-0.82,0.41 -4.02,1.16 -4.89,1.43l-27.66 2.33c20.82,53.8 27.92,30.62 -3.29,89.13 -37.86,71.01 -48.9,21.54 -65.44,77.44 -23.59,-14.37 -16.46,-21.63 -37.49,-45.77 -23.93,36.76 35.89,18.59 -57.25,26.74l-225.97 -1.82c-14.15,-19.09 -22.43,-61.75 -48.43,-44.43l-55.72 52.78 -33.22 -66.55c1.99,37.78 15.86,57.85 -65.22,7.53l-13.95 -7.53c-26.07,23.41 7.08,33.34 12.43,-45.83 -84.31,9.06 -33.87,-11.66 -52.05,20.79l31.21 -82.43 54.24 -0.83c-51.72,6.01 -45.09,-15.99 -49.98,-62.46 48.29,3.89 76.97,14.49 105.31,13.81 155.03,-3.73 134.39,8.25 143.65,-31.39 10.32,-44.19 -34.88,27.23 5.61,-14.64l32.73 -26.12c-45.05,-9.42 -73.13,2.99 -79.17,-21.07zm-211.46 343.14c39.4,9.66 75.05,46.17 114.69,66.91 247.66,129.48 291.75,-66.7 470.75,-30.46 34.84,-48.92 60.38,-51.74 103.12,-114.74 26.16,-38.57 54.1,-120.08 78.62,-147.49 -3.5,-53.09 10.08,-111.99 2.44,-177.62 -6.01,-51.4 -30.86,-91.36 -28.99,-137.28 -14.32,-11.53 -8.44,-5.86 -21.7,-21.02 -33.69,-38.48 -39.98,-73.29 -101.6,-124.68 -318.39,-265.45 -736.49,-27.12 -754.17,305.44 -11.97,224.89 72.25,255.14 136.84,380.94z"/>
   <path class="fil2" d="M1690.7 840.31c52.71,15.48 54.01,15.73 81.53,63.25 11.12,101.73 4.69,123.16 -64.86,168.05 -62.27,40.21 -134.52,44.89 -184.74,-4.37 -103.18,-101.19 14.13,-285.1 168.07,-226.93zm167.66 3.97c21.47,-22.87 -36.06,-24.43 41.48,-21.66 18.64,36.21 23.94,12.72 0,56.1 -73.5,6.72 -21.85,3.62 -40.8,-19.56l-0.68 -14.88zm-472.14 367.01c12.25,18.29 36.58,106.72 64.64,153.02 30.68,50.64 89.38,87.8 99.22,122.9 45.42,19.28 58.98,36.5 112.31,52.58l20.85 -45.99 -48.84 -12.08c1.73,2.19 5.5,-4.58 6.35,-2.42 0.02,0.05 28.43,-14.77 11.31,-62.33 -39.23,-109.03 -22.87,-76.02 -22.87,-214.75 47.07,31.9 11.51,-10.96 27.67,38.38 2.63,8.06 1.4,42.68 1.4,53.29l82.28 0c1.1,-51.9 -4.57,-80.88 -11.4,-120.8l112.35 9.81c2.28,-100.93 -8.94,-74.03 50.07,-93.13 0,-60.34 -5.84,-87.92 12.49,-133.22 125.18,-43.41 -15.98,54.69 95.71,-16.63 35.47,-22.64 -2.91,-8.25 41.73,-20.85 -15.95,-21.65 -16.41,4.85 -24.61,-39.92 -0.37,-1.99 -1.29,-6.82 -0.39,-10.06l54.06 -12.49c21.84,59.93 -10.35,71.44 -12.49,137.43 49.94,-7.1 -11.2,0.05 42.21,-18.21 35.8,-12.23 46.41,-10.74 82.72,-10.98 7.6,111.2 22.45,-71.17 25.21,212.59l-18.71 154.91c0.02,0.27 12.95,33.04 15.58,41.48 80.01,-57.68 103.91,-231.91 76.98,-352.15 -32.09,-143.31 -115.19,-199.21 -168.61,-275.31 -52.32,-6.05 -121.55,-65.46 -213.66,-77.87 -342.93,-9.79 -538.82,195.24 -513.56,542.8z"/>
   <path class="fil3" d="M1662.39 1539.79c119.71,80.46 176.24,-33.88 309.17,-18.24 75.82,8.93 79.85,13.03 146.47,-38.93 29.59,-23.07 79.03,-62.47 87.04,-108.8 -2.63,-8.44 -15.56,-41.21 -15.58,-41.48l18.71 -154.91c-2.76,-283.76 -17.61,-101.39 -25.21,-212.59 -36.31,0.24 -46.92,-1.25 -82.72,10.98 -53.41,18.26 7.73,11.11 -42.21,18.21 2.14,-65.99 34.33,-77.5 12.49,-137.43l-54.06 12.49c-0.9,3.24 0.02,8.07 0.39,10.06 8.2,44.77 8.66,18.27 24.61,39.92 -44.64,12.6 -6.26,-1.79 -41.73,20.85 -111.69,71.32 29.47,-26.78 -95.71,16.63 -18.33,45.3 -12.49,72.88 -12.49,133.22 -59.01,19.1 -47.79,-7.8 -50.07,93.13l-112.35 -9.81c6.83,39.92 12.5,68.9 11.4,120.8l-82.28 0c0,-10.61 1.23,-45.23 -1.4,-53.29 -16.16,-49.34 19.4,-6.48 -27.67,-38.38 0,138.73 -16.36,105.72 22.87,214.75 17.12,47.56 -11.29,62.38 -11.31,62.33 -0.85,-2.16 -4.62,4.61 -6.35,2.42l48.84 12.08 -20.85 45.99z"/>
   <path class="fil3" d="M3291.24 556.73l-3.12 -4.13c10.61,12.16 35.49,-27.28 21.1,64.47 -8.34,53.19 28.58,29.5 -41.32,35.42 23.61,20.98 58.1,7.64 81.24,0 -12.11,31.54 -2.2,17.03 -36.34,33.16 -45.45,21.48 -25.33,-13.22 -86,12.11 -31.13,13 -13.91,-45.46 -27.59,17.2 0,48.43 10.59,95.4 -16.81,121.43 -24.5,23.27 -46.16,-1.89 -86.56,-16.57 -15.07,3.69 -10.13,0.08 -28.17,13.03 -17,12.19 -6.63,2.93 -18.45,19.31 6.04,24.06 34.12,11.65 79.17,21.07l-32.73 26.12c-40.49,41.87 4.71,-29.55 -5.61,14.64 -9.26,39.64 11.38,27.66 -143.65,31.39 -28.34,0.68 -57.02,-9.92 -105.31,-13.81 4.89,46.47 -1.74,68.47 49.98,62.46l-54.24 0.83 -31.21 82.43c18.18,-32.45 -32.26,-11.73 52.05,-20.79 -5.35,79.17 -38.5,69.24 -12.43,45.83l13.95 7.53c81.08,50.32 67.21,30.25 65.22,-7.53l33.22 66.55 55.72 -52.78c26,-17.32 34.28,25.34 48.43,44.43l225.97 1.82c93.14,-8.15 33.32,10.02 57.25,-26.74 21.03,24.14 13.9,31.4 37.49,45.77 16.54,-55.9 27.58,-6.43 65.44,-77.44 31.21,-58.51 24.11,-35.33 3.29,-89.13l27.66 -2.33c0.87,-0.27 4.07,-1.02 4.89,-1.43l17.33 -18.88c20.69,-41.18 10.46,-129.83 10.46,-189.75l-37.48 0 0 -95.82c21.07,-6.71 -13.15,-44.52 -24.92,-91.59 3.64,-1.4 10.19,-6.48 11.43,-2.66 0.99,3.09 8.21,-1.9 9.33,-1.92l-4.87 -12.55c-36.3,-34.76 -57.83,-22.63 -99.53,-46.19 -34.98,-19.76 -17.34,6.17 -41.31,-36.63 23.32,17.86 -4.43,27.38 -23.76,13.25 -2.05,-1.49 -12.17,-15.7 -13.78,-19.53 -12.91,41.43 14.33,9.65 -25.32,23.52 -27.92,9.77 -18.11,10.22 -37.22,-4.68 66.29,7.13 49.95,6.8 67.11,29.11z"/>
   <path class="fil4" d="M2481.34 1708.03c114.2,-14.25 218.67,-18.16 307.8,16.38 75.71,29.34 142.93,95.71 161.36,189.96 -59.37,100.45 -204.03,101.9 -301.08,36.95 -47.65,-31.88 -158.52,-160.86 -168.08,-243.29zm498.51 -75.4c17.31,88.98 33.13,136.45 8.15,233.58 -2.31,-2.21 -5.04,-5.58 -6.26,-7.25 -90.68,-122.64 -8.75,-61.8 -183.16,-175.39l181.27 -50.94zm-164.03 7.52c-30.33,17.09 -104.23,21.96 -147.45,18.15 -42.38,28.28 -160.7,5.4 -211.35,25.19 -1.41,3.35 -2.87,7.81 -3.33,10.39 -0.44,2.54 -2.29,7.29 -2.64,10.4 -7.19,63.18 -5.74,-39.82 -1.26,20.72 3.44,46.28 74.43,142.71 100.41,176.23 122.15,157.64 319.12,168.61 424.94,38.79 66.05,-81.01 65.46,-141.72 48.63,-271.21l-27.36 -61.99 -180.59 33.33z"/>
   <path class="fil5" d="M1885.73 1787.82c-11.65,-55.99 -75.52,-96.02 -127.71,-54.69 11.02,62.34 56.87,59.24 127.71,54.69z"/>
   <path class="fil6" d="M2137.51 1739.46c-36.53,-40.37 -56.6,-53.27 -125.16,-62.4 18.1,83.15 97.85,77.4 125.16,62.4z"/>
   <path class="fil7" d="M3772.99 1408.38l55.32 10.35c-15.96,-57.24 -16.58,-28.56 -36.22,-71.14l-35.04 -8.89 -56.69 0.99c20.55,21.8 16.53,12.77 39.89,32.42 23.99,20.17 19.64,18.43 32.74,36.27z"/>
   <path class="fil8" d="M3654.26 1433.06l45.74 -2.66c-20.89,-41.35 -50.66,-67.85 -118.98,-70.62 25.03,88.77 38.9,18.54 73.24,73.28z"/>
   <path class="fil9" d="M3511.62 1439.95l64.97 2.09c-19.64,-38.32 -33.92,-36.16 -36.8,-48.25 -1.24,-5.19 -4.74,-5.76 -6.91,-8.8 -47.44,4.86 -21.08,-1.09 -50.52,17.14 14.18,39.84 -4.58,19.74 29.26,37.82z"/>
   <path class="fil5" d="M1977.73 1739.46c-81.8,-86.12 -72.1,-16.11 -77.83,-12.49 18.49,11.98 -11.66,16.76 38.31,26.22 54.13,10.24 39.4,-13.65 39.52,-13.73z"/>
   <path class="fil11" d="M1772.23 903.56c-27.52,-47.52 -28.82,-47.77 -81.53,-63.25l16.39 15.01c9.19,7.48 14.93,11.69 22.55,17.46 3.1,2.36 11.57,8.82 14.77,11.17l17.86 12.76c2.46,1.76 6.61,4.59 9.96,6.85z"/>
   <path class="fil1" d="M2714.26 3257.4l-29.23 -208.76c686.98,-96.11 1364.82,-461.1 1575.46,-1097.71 125.52,-379.4 50.08,-501.27 7.35,-786.12l-96.98 -197.55c-113.64,-188.56 -274.14,-351.6 -472.55,-464.28 -145.15,-82.43 -278.46,-140.35 -441.57,-180.4 -109.7,-26.95 -158.75,-19.98 -244.54,-70.23 -79.22,-46.41 -117.92,-76.99 -225.22,-93.78 28.67,58.91 33.44,20.44 0,81.62 63.09,18.14 36.14,3.56 49.97,32.75 19.59,12.14 -2.6,18.19 61.36,25.98 47.48,5.79 39.5,-7.13 79.02,18.98 219.59,-8.38 538.02,154.22 681.37,249.98 89.71,59.94 194.24,141.54 252.28,209.82 52.62,61.89 159.59,185.7 186.26,283.11 69.43,60.12 166.04,538.07 99.78,632.11 -15.17,271.49 -219.69,543.64 -355.1,676.74 -180.73,177.66 -380.43,307.26 -635.76,399.79 -417.19,151.18 -1229.63,264.33 -1653.13,-21.09l-42.05 -39.24c-20.04,-4.59 -8.39,0.75 -32.69,-12.19 -15.79,-8.41 -7.9,-4.26 -21.75,-14.56 -169.54,-126.08 -296.55,-310.57 -386.52,-500.99l-80.88 -207.98c-9.08,-17.93 -7.59,-14.4 -16.96,-25.03l-22.09 55.9c-1.15,0.74 -4.49,2.27 -5.77,2.84 -45.24,19.49 -58.85,-16.3 -92.38,6.74l10.85 50.45c-21.81,11.45 32.42,36.7 -36.12,0.08 59.24,281.33 333.98,615.41 512.58,747.96 284.14,210.89 560.8,247.65 980.99,268.24l11.96 181.69 382.06 -4.87z"/>
   <path class="fil2" d="M826.67 2064.38c68.54,36.62 14.31,11.37 36.12,-0.08l-10.85 -50.45c33.53,-23.04 47.14,12.75 92.38,-6.74 1.28,-0.57 4.62,-2.1 5.77,-2.84l22.09 -55.9c9.39,-61.55 -20.26,-145.51 -28.21,-212.8 -8.52,-72.16 -9.61,-158.37 -3.32,-230.81 7.52,-86.65 49.33,-328.73 93.41,-365.06 123.36,-416.7 792.35,-809.97 1315.51,-853.04l71.86 -5.53c61.02,-35.38 319.53,-29.71 415.52,-8.19 -13.83,-29.19 13.12,-14.61 -49.97,-32.75 33.44,-61.18 28.67,-22.71 0,-81.62 -42.01,-33.14 -369.99,-39.71 -458.75,-30.22 -839.99,89.72 -1583.39,571.33 -1577.86,1498.83 0.57,94.62 37.46,379.13 76.3,437.2z"/>
   <path class="fil2" d="M3049.22 852.16c-231.56,64.5 -308.49,-161.69 -183.44,-257.99 59.63,-45.92 164.64,-46.02 220.6,8.43 64.75,63.01 33.25,152.21 9.46,217.22 40.4,14.68 62.06,39.84 86.56,16.57 27.4,-26.03 16.81,-73 16.81,-121.43 13.68,-62.66 -3.54,-4.2 27.59,-17.2 60.67,-25.33 40.55,9.37 86,-12.11 34.14,-16.13 24.23,-1.62 36.34,-33.16 -23.14,7.64 -57.63,20.98 -81.24,0 69.9,-5.92 32.98,17.77 41.32,-35.42 14.39,-91.75 -10.49,-52.31 -21.1,-64.47l-0.74 62.19c-62.48,4.47 -60.65,9.62 -53.7,-54.81l57.56 -3.25c-17.16,-22.31 -0.82,-21.98 -67.11,-29.11 19.11,14.9 9.3,14.45 37.22,4.68 39.65,-13.87 12.41,17.91 25.32,-23.52 1.61,3.83 11.73,18.04 13.78,19.53 19.33,14.13 47.08,4.61 23.76,-13.25 23.97,42.8 6.33,16.87 41.31,36.63 41.7,23.56 63.23,11.43 99.53,46.19l4.87 12.55c-1.12,0.02 -8.34,5.01 -9.33,1.92 -1.24,-3.82 -7.79,1.26 -11.43,2.66 11.77,47.07 45.99,84.88 24.92,91.59l0 95.82 37.48 0c0,59.92 10.23,148.57 -10.46,189.75l-17.33 18.88c-0.82,0.41 -4.02,1.16 -4.89,1.43l-27.66 2.33c20.82,53.8 27.92,30.62 -3.29,89.13 -37.86,71.01 -48.9,21.54 -65.44,77.44 -23.59,-14.37 -16.46,-21.63 -37.49,-45.77 -23.93,36.76 35.89,18.59 -57.25,26.74l-225.97 -1.82c-14.15,-19.09 -22.43,-61.75 -48.43,-44.43l-55.72 52.78 -33.22 -66.55c1.99,37.78 15.86,57.85 -65.22,7.53l-13.95 -7.53c-26.07,23.41 7.08,33.34 12.43,-45.83 -84.31,9.06 -33.87,-11.66 -52.05,20.79l31.21 -82.43 54.24 -0.83c-51.72,6.01 -45.09,-15.99 -49.98,-62.46 48.29,3.89 76.97,14.49 105.31,13.81 155.03,-3.73 134.39,8.25 143.65,-31.39 10.32,-44.19 -34.88,27.23 5.61,-14.64l32.73 -26.12c-45.05,-9.42 -73.13,2.99 -79.17,-21.07zm-211.46 343.14c39.4,9.66 75.05,46.17 114.69,66.91 247.66,129.48 291.75,-66.7 470.75,-30.46 34.84,-48.92 60.38,-51.74 103.12,-114.74 26.16,-38.57 54.1,-120.08 78.62,-147.49 -3.5,-53.09 10.08,-111.99 2.44,-177.62 -6.01,-51.4 -30.86,-91.36 -28.99,-137.28 -14.32,-11.53 -8.44,-5.86 -21.7,-21.02 -33.69,-38.48 -39.98,-73.29 -101.6,-124.68 -318.39,-265.45 -736.49,-27.12 -754.17,305.44 -11.97,224.89 72.25,255.14 136.84,380.94z"/>
   <path class="fil3" d="M1662.39 1539.79c119.71,80.46 176.24,-33.88 309.17,-18.24 75.82,8.93 79.85,13.03 146.47,-38.93 29.59,-23.07 79.03,-62.47 87.04,-108.8 -2.63,-8.44 -15.56,-41.21 -15.58,-41.48l18.71 -154.91c-2.76,-283.76 -17.61,-101.39 -25.21,-212.59 -36.31,0.24 -46.92,-1.25 -82.72,10.98 -53.41,18.26 7.73,11.11 -42.21,18.21 2.14,-65.99 34.33,-77.5 12.49,-137.43l-54.06 12.49c-0.9,3.24 0.02,8.07 0.39,10.06 8.2,44.77 8.66,18.27 24.61,39.92 -44.64,12.6 -6.26,-1.79 -41.73,20.85 -111.69,71.32 29.47,-26.78 -95.71,16.63 -18.33,45.3 -12.49,72.88 -12.49,133.22 -59.01,19.1 -47.79,-7.8 -50.07,93.13l-112.35 -9.81c6.83,39.92 12.5,68.9 11.4,120.8l-82.28 0c0,-10.61 1.23,-45.23 -1.4,-53.29 -16.16,-49.34 19.4,-6.48 -27.67,-38.38 0,138.73 -16.36,105.72 22.87,214.75 17.12,47.56 -11.29,62.38 -11.31,62.33 -0.85,-2.16 -4.62,4.61 -6.35,2.42l48.84 12.08 -20.85 45.99z"/>
   <path class="fil3" d="M3291.24 556.73l-3.12 -4.13c10.61,12.16 35.49,-27.28 21.1,64.47 -8.34,53.19 28.58,29.5 -41.32,35.42 23.61,20.98 58.1,7.64 81.24,0 -12.11,31.54 -2.2,17.03 -36.34,33.16 -45.45,21.48 -25.33,-13.22 -86,12.11 -31.13,13 -13.91,-45.46 -27.59,17.2 0,48.43 10.59,95.4 -16.81,121.43 -24.5,23.27 -46.16,-1.89 -86.56,-16.57 -15.07,3.69 -10.13,0.08 -28.17,13.03 -17,12.19 -6.63,2.93 -18.45,19.31 6.04,24.06 34.12,11.65 79.17,21.07l-32.73 26.12c-40.49,41.87 4.71,-29.55 -5.61,14.64 -9.26,39.64 11.38,27.66 -143.65,31.39 -28.34,0.68 -57.02,-9.92 -105.31,-13.81 4.89,46.47 -1.74,68.47 49.98,62.46l-54.24 0.83 -31.21 82.43c18.18,-32.45 -32.26,-11.73 52.05,-20.79 -5.35,79.17 -38.5,69.24 -12.43,45.83l13.95 7.53c81.08,50.32 67.21,30.25 65.22,-7.53l33.22 66.55 55.72 -52.78c26,-17.32 34.28,25.34 48.43,44.43l225.97 1.82c93.14,-8.15 33.32,10.02 57.25,-26.74 21.03,24.14 13.9,31.4 37.49,45.77 16.54,-55.9 27.58,-6.43 65.44,-77.44 31.21,-58.51 24.11,-35.33 3.29,-89.13l27.66 -2.33c0.87,-0.27 4.07,-1.02 4.89,-1.43l17.33 -18.88c20.69,-41.18 10.46,-129.83 10.46,-189.75l-37.48 0 0 -95.82c21.07,-6.71 -13.15,-44.52 -24.92,-91.59 3.64,-1.4 10.19,-6.48 11.43,-2.66 0.99,3.09 8.21,-1.9 9.33,-1.92l-4.87 -12.55c-36.3,-34.76 -57.83,-22.63 -99.53,-46.19 -34.98,-19.76 -17.34,6.17 -41.31,-36.63 23.32,17.86 -4.43,27.38 -23.76,13.25 -2.05,-1.49 -12.17,-15.7 -13.78,-19.53 -12.91,41.43 14.33,9.65 -25.32,23.52 -27.92,9.77 -18.11,10.22 -37.22,-4.68 66.29,7.13 49.95,6.8 67.11,29.11z"/>
   <path class="fil4" d="M2481.34 1708.03c114.2,-14.25 218.67,-18.16 307.8,16.38 75.71,29.34 142.93,95.71 161.36,189.96 -59.37,100.45 -204.03,101.9 -301.08,36.95 -47.65,-31.88 -158.52,-160.86 -168.08,-243.29zm498.51 -75.4c17.31,88.98 33.13,136.45 8.15,233.58 -2.31,-2.21 -5.04,-5.58 -6.26,-7.25 -90.68,-122.64 -8.75,-61.8 -183.16,-175.39l181.27 -50.94zm-164.03 7.52c-30.33,17.09 -104.23,21.96 -147.45,18.15 -42.38,28.28 -160.7,5.4 -211.35,25.19 -1.41,3.35 -2.87,7.81 -3.33,10.39 -0.44,2.54 -2.29,7.29 -2.64,10.4 -7.19,63.18 -5.74,-39.82 -1.26,20.72 3.44,46.28 74.43,142.71 100.41,176.23 122.15,157.64 319.12,168.61 424.94,38.79 66.05,-81.01 65.46,-141.72 48.63,-271.21l-27.36 -61.99 -180.59 33.33z"/>
   <path class="fil5" d="M1885.73 1787.82c-11.65,-55.99 -75.52,-96.02 -127.71,-54.69 11.02,62.34 56.87,59.24 127.71,54.69z"/>
   <path class="fil6" d="M2137.51 1739.46c-36.53,-40.37 -56.6,-53.27 -125.16,-62.4 18.1,83.15 97.85,77.4 125.16,62.4z"/>
   <path class="fil7" d="M3772.99 1408.38l55.32 10.35c-15.96,-57.24 -16.58,-28.56 -36.22,-71.14l-35.04 -8.89 -56.69 0.99c20.55,21.8 16.53,12.77 39.89,32.42 23.99,20.17 19.64,18.43 32.74,36.27z"/>
   <path class="fil8" d="M3654.26 1433.06l45.74 -2.66c-20.89,-41.35 -50.66,-67.85 -118.98,-70.62 25.03,88.77 38.9,18.54 73.24,73.28z"/>
   <path class="fil9" d="M3511.62 1439.95l64.97 2.09c-19.64,-38.32 -33.92,-36.16 -36.8,-48.25 -1.24,-5.19 -4.74,-5.76 -6.91,-8.8 -47.44,4.86 -21.08,-1.09 -50.52,17.14 14.18,39.84 -4.58,19.74 29.26,37.82z"/>
   <path class="fil5" d="M1977.73 1739.46c-81.8,-86.12 -72.1,-16.11 -77.83,-12.49 18.49,11.98 -11.66,16.76 38.31,26.22 54.13,10.24 39.4,-13.65 39.52,-13.73z"/>
   <path class="fil11" d="M1772.23 903.56c-27.52,-47.52 -28.82,-47.77 -81.53,-63.25l16.39 15.01c9.19,7.48 14.93,11.69 22.55,17.46 3.1,2.36 11.57,8.82 14.77,11.17l17.86 12.76c2.46,1.76 6.61,4.59 9.96,6.85z"/>
  </g>
 </g>
</svg>
