<?xml version="1.0" encoding="UTF-8"?>
<!DOCTYPE svg PUBLIC "-//W3C//DTD SVG 1.1//EN" "http://www.w3.org/Graphics/SVG/1.1/DTD/svg11.dtd">
<!-- Creator: CorelDRAW 2017 -->
<svg xmlns="http://www.w3.org/2000/svg" xml:space="preserve" width="5.5878mm" height="5.5878mm" version="1.1" style="shape-rendering:geometricPrecision; text-rendering:geometricPrecision; image-rendering:optimizeQuality; fill-rule:evenodd; clip-rule:evenodd"
viewBox="0 0 558.78 558.78"
 xmlns:xlink="http://www.w3.org/1999/xlink">
 <defs>
  <style type="text/css">
   <![CDATA[
    .fil0 {fill:#727376}
   ]]>
  </style>
 </defs>
 <g id="Capa_x0020_1">
  <metadata id="CorelCorpID_0Corel-Layer"/>
  <g id="_2211590998688">
   <g>
    <polygon class="fil0" points="191.49,368.66 191.49,367.97 190.68,368.55 "/>
    <path class="fil0" d="M189.42 367.28l0.21 -0.2c-0.02,0.01 -0.28,0.13 -0.21,0.2z"/>
   </g>
   <g>
    <polygon class="fil0" points="216.31,362.46 217,362.46 216.42,361.65 "/>
    <polygon class="fil0" points="278.35,309.37 279.04,308 "/>
   </g>
   <g>
    <path class="fil0" d="M183.22 385.21c2.27,-1.67 0.77,-0.75 2.06,-3.45 -2.77,0.74 -1.99,0.19 -2.06,3.45z"/>
    <path class="fil0" d="M214.24 361.08c-0.11,0.12 -0.28,0.15 -0.32,0.37l-2.44 3.76c2.38,-0.63 2.51,-1.19 2.76,-4.13z"/>
   </g>
   <g>
    <path class="fil0" d="M343.15 406.58c0,4.02 -0.22,3.89 2.76,4.13 0,-5.08 0.4,-4.55 -2.07,-6.2 -0.47,0.84 -0.69,0.74 -0.69,2.07z"/>
    <path class="fil0" d="M178.39 376.93l0.21 -0.2c-0.02,0.01 -0.28,0.14 -0.21,0.2z"/>
   </g>
   <g>
    <path class="fil0" d="M279.73 349.36c2.88,0 4.34,0.48 6.2,1.38 0.78,3.35 0.3,1.19 0.12,3.63 -0.28,3.61 -0.61,1.91 1.95,3.26l0 -8.96 -6.51 -0.31c-3.2,0.87 -0.47,0.1 -1.76,1z"/>
    <path class="fil0" d="M354.87 417.61c0.92,-0.49 4.31,-0.06 0.69,-6.9 -1.56,1.05 -3.19,1.69 -0.69,6.9z"/>
    <path class="fil0" d="M383.14 383.83c1.6,-3.34 0.08,-6.83 -2.76,-7.59 -0.87,1.89 -0.53,1.64 0.43,3.68 1.23,2.62 0.38,2.48 2.33,3.91z"/>
    <path class="fil0" d="M330.05 425.88c1.54,-0.41 2.07,-0.16 2.07,-2.07 0,-2.11 -1.7,-2.98 -3.44,-3.44 0.44,1.89 0.93,3.61 1.37,5.51z"/>
   </g>
   <g>
    <path class="fil0" d="M378.31 373.49c4.26,-3.7 1.35,-2.47 0,-8.28l-2.07 0c-1.06,2.57 1.28,2.3 1.38,6.9l-2.51 -4.26c0.03,3.45 0.86,2.31 1.13,5.64l2.07 0z"/>
    <path class="fil0" d="M224.58 388.65c2.45,-0.65 2.85,-1.35 3.73,-3.85 0.94,-2.7 1.72,-3.52 1.78,-6.49 -2.85,0.77 -1.7,1.29 -3.2,4.38 -1.18,2.43 -1.66,3.16 -2.31,5.96z"/>
    <path class="fil0" d="M350.74 389.34c2.33,3.48 2.06,2.56 2.06,7.59l2.07 0c-0.07,-3.14 -0.65,-6.17 -2.07,-8.28 -1.19,0.67 -1.36,0.41 -2.06,0.69z"/>
    <path class="fil0" d="M372.11 387.96l2.06 0c-0.18,-2.15 -0.68,-2.44 -0.68,-4.82l0 -2.07 -2.07 0c0.06,3.04 0.69,3.22 0.69,6.89z"/>
   </g>
   <g>
    <path class="fil0" d="M279.73 336.26l0 2.07c-2.19,-0.73 -1.32,-0.55 0,-2.07zm-2.07 -1.38l0 0zm12.41 -3.44c2.15,-0.51 2.19,-0.94 4.14,0 -0.38,1.6 -0.2,2.63 -2.12,2.72 -2.05,0.08 -1.86,-0.83 -2.02,-2.72zm-12.41 3.44c0.64,-2.4 0.64,-2.52 3.45,-2.76 -1.11,0.97 -2.2,1.93 -3.45,2.76zm6.9 -4.13l0.2 0.2c-0.01,-0.01 -0.27,-0.14 -0.2,-0.2zm-8.97 4.13c0,2.38 0.19,1.03 -0.69,0.69 -1.72,1.05 -1.37,-1.68 -1.37,2.07 2.59,-0.16 1.73,0.16 3.44,-0.69 -0.11,4.92 -1.95,2.19 -2.07,7.58 3.35,-0.89 1.14,-0.27 2.7,-2.82 0.24,-0.39 0.77,-1.21 1.17,-1.59 1.07,-1.02 0.1,-0.54 1.65,-1.1 -1.02,2.12 -0.69,2.53 -0.69,5.51 5.75,-0.48 6.72,-0.59 8.96,-4.82 -2.14,-3.19 -3.74,-3.45 -8.96,-3.45 0.54,-2.05 0.09,-2.03 4.22,-3.45 3.59,-1.24 2.18,-0.09 8.88,3.45 1.61,-2.21 2.17,-0.75 3.44,-6.2 -2.49,-0.21 -3.28,-0.86 -5.51,-1.38 -1.52,1.06 -0.86,0.11 -1.38,2.07 -6,0 -1.15,-2.3 -7.53,-0.7 -4.59,1.15 -4.41,2.71 -6.26,4.83z"/>
    <path class="fil0" d="M338.33 379.69c4.73,2.27 19.95,-6.61 24.12,-7.58 -0.2,2.46 -1.47,5.06 -0.2,7.1 0.88,1.4 0.01,0.6 1.58,1.17 1.52,-2.7 0.46,-6.57 -0.69,-8.96 0.19,-0.1 11.67,-4.97 6.44,-5.09l-20.31 9.14c-1.87,0.7 -3.63,1.3 -5.72,1.86 -2.91,0.79 -3.8,0.42 -5.22,2.36z"/>
    <path class="fil0" d="M361.77 395.55c3.61,0 3.04,0.01 5.39,-1.51 5.05,-3.27 11.48,-3.45 13.91,-6.76 -5.29,0 -10.97,2.94 -15.64,5.04 -2.55,1.14 -3.02,0.82 -3.66,3.23z"/>
   </g>
   <g>
    <path class="fil0" d="M197.69 383.14l-0.38 1.48 0.38 -1.48zm7.59 0.69l0 0zm-12.41 0l2.76 -1.38 -0.78 2.73 -1.98 -1.35zm5.51 -2.07l-0.69 1.38 0.69 -1.38zm-2.75 0.69l0 0zm3.44 -2.07l-0.69 1.38 0.69 -1.38zm11.03 0c0,-1.76 1.09,-0.11 0.41,0 -0.01,0 -0.41,1.93 -0.41,0zm-11.03 0l0.38 -1.48 -0.38 1.48zm-2.07 -1.38l-0.38 1.48 0.38 -1.48zm-4.13 4.83l-2.72 -0.84 -0.04 -3.3c2.86,0.95 -0.54,-0.63 1.85,2.95 2.61,3.91 -0.72,-2.85 0.91,1.19zm18.61 -6.21l-0.38 1.49 0.38 -1.49zm-4.83 0.69c0.4,-0.39 3.14,-0.41 1.49,0.84 -1,0.76 -1.86,-0.46 -1.49,-0.84zm-8.96 -0.69l-0.69 1.38 0.69 -1.38zm11.72 -1.38l-0.38 1.49 0.38 -1.49zm-11.72 1.38l0 0zm12.41 -2.75l-0.69 1.37 0.69 -1.37zm-7.58 0.69c0.73,-0.74 2.61,1.09 0.77,0.35 -0.02,0 -1.93,0.8 -0.77,-0.35zm8.27 -2.07l-0.69 1.38 0.69 -1.38zm0.69 4.13c0.22,-2.68 1.09,-4.29 2.76,-5.51l-2.76 5.51zm-17.23 -5.51l4.85 -0.42c0.21,2.54 0.36,1.04 0.7,1.76 0.06,0.11 0.18,0.29 0.23,0.4l0.41 0.72c0.04,0.1 0.13,0.28 0.16,0.37 0.61,1.83 0.37,2.5 -0.84,3.37 -0.37,-1.4 -1.2,-3.04 -2.41,-3.83 -3.54,-2.31 -3.1,1.89 -3.1,-2.37zm16.54 1.38c0.66,-2.82 0.02,-3.31 2.07,-4.14 0.67,1.62 -0.43,2.94 -2.07,4.14zm-11.03 -3.45l2.89 1.08c-3.33,0.03 -1.34,1.04 -2.89,-1.08zm-6.2 -1.38l0 0zm6.89 -0.69l0.21 0.21c-0.02,-0.02 -0.28,-0.14 -0.21,-0.21zm0.69 -1.38l0.21 0.21c-0.02,-0.01 -0.28,-0.14 -0.21,-0.21zm1.38 -1.38l0 0zm0.69 -1.37l-0.69 1.37 0.69 -1.37zm0 0l0.31 -2.15 -0.31 2.15zm-4.14 -6.21l1.48 1.99 -2.7 2.99c0.7,-3.37 1.39,-0.97 0.53,-2.91 -3.49,2.34 -3.12,4.83 -6.2,6.89l1.38 2.07 -2.07 0c0.76,1.85 -0.6,2.1 -2.08,4.81 -0.98,1.79 -2.24,4.05 -2.75,6.22 -3.33,-2.23 -5.01,-5.98 -8.96,-7.58 -3.24,0.02 0.03,-0.48 -1.37,1.38 4.64,0 6.47,4.29 9.12,6.72 2.94,2.7 5.86,4.4 8.11,7.75l4.59 -0.16c2.65,-0.52 1.45,0.17 4.37,0.85 1.22,-2.54 0.44,-3.12 2.76,-4.82l0 2.76 2.68 -2.82c-0.91,-2.66 -0.03,-0.02 -1.99,-2.7 4.46,0.37 6.22,3.87 10.34,4.83 -1.62,-2.41 -2.26,-2.78 -4.83,-4.14 2.71,-10.13 6.78,-9.39 8.27,-10.34l-5.47 -2.83 2.03 -6.13 -3.88 5 -2.87 -1.79c0.15,-3.29 5.04,-6.49 3.99,-8.73 -1.46,-0.64 -1.03,-0.13 -2.45,2.31 -1.48,2.55 -0.73,2.33 -3.07,3.9 -2.85,-0.76 -4.7,-4.38 -8.96,-5.52z"/>
    <path class="fil0" d="M275.62 152.2c11.17,-2.61 6.83,-17.16 6.85,-23.42 0.01,-4.7 0.4,-11.29 -0.1,-15.77 -1.32,-12.04 1.21,-11.83 -4.71,-11.83l-2.04 51.02z"/>
    <path class="fil0" d="M310.75 371.42c0,-2.38 0.73,-6.16 -1.03,-7.24 -3.45,-2.12 -12.33,0.49 -15.51,-1.03 0,9.04 -2.3,10.8 3.44,10.94 6.13,0.16 10.8,-2.48 13.1,-2.67z"/>
    <path class="fil0" d="M420.36 222.51c0.73,2.74 2.03,2.79 2.76,5.52 2.46,-0.21 11.21,-3.8 13.8,-4.82 2.21,-0.87 4.22,-1.74 6.23,-2.73 3.58,-1.77 3.65,-1.55 2.72,-5.55l-25.51 7.58z"/>
    <path class="fil0" d="M112.11 219.04c5.29,1.24 19.79,8.62 24.23,8.99 0.73,-2.73 2.03,-2.78 2.76,-5.52 -3.19,-0.07 -19.33,-5.98 -26.2,-7.58l-0.79 4.11z"/>
    <path class="fil0" d="M103.83 248.69c3.91,0.9 8.03,1.89 11.83,2.78 1.29,-2.45 -0.13,-1.99 2.75,-2.76l0 -2.07c-3.21,-0.75 -10.14,-2.07 -13.78,-2.07l-0.8 4.12z"/>
    <path class="fil0" d="M441.04 245.95c0.63,7.56 8.78,3.93 13.79,2.76 -0.04,-2.1 -0.31,-2.51 -0.69,-4.14 -4.6,0 -7.9,1.38 -13.1,1.38z"/>
    <path class="fil0" d="M246.64 350.74c1.81,0.42 2.02,0.62 3.45,1.38 3.61,-2.42 4.76,-2.98 5.51,-6.21 -2.35,-0.55 -4.11,-1.31 -6.89,-1.38 -0.7,2.61 -1.76,2.51 -2.07,6.21z"/>
   </g>
   <g>
    <path class="fil0" d="M266.63 450.01l13.2 -0.58 -0.1 1.32 -13.1 -0.74zm17.93 -3.45l0 0zm0.68 -2.07l-0.68 2.07 0.68 -2.07zm46.88 -0.69l4.83 0 0 0.69 -4.83 0 0 -0.69zm-46.88 0.69l0 0zm9.66 -2.75l11.71 -0.35 0.01 3.79c-2.16,0.18 -2.45,0.69 -4.83,0.69l-2.76 0c-4.19,0 -2.95,-1.48 -4.13,-4.13zm-6.21 0.69l0 0zm0 0l0 0zm-2.76 -0.69c1.23,-1.23 -1.22,1.22 0,0zm-20.68 0.69l0 0zm21.37 -2.07c1.23,-1.23 -1.22,1.22 0,0zm-22.06 -0.69c-0.02,-0.07 -0.64,-5.48 0.45,-1.41 0.14,0.52 0.22,3.79 -0.45,1.41zm23.44 -1.38l0 0zm-20.56 -4.12l0.65 5.49 -1.46 0.01 0.81 -5.5zm-20.11 4.81l4.82 0 0 0.69 -4.82 0 0 -0.69zm43.43 0.69c-1.44,1.44 -2.05,0.87 -0.59,-0.59 1.46,-1.46 2.03,-0.85 0.59,0.59zm-49.64 -0.69l4.14 -0.54 -4.14 0.54zm46.88 -0.69l0 0zm37.92 -1.38l5.51 0 0 0.69 -5.51 0 0 -0.69zm-6.21 0c0.74,-0.73 2.62,1.09 0.77,0.36 -0.01,-0.01 -1.92,0.79 -0.77,-0.36zm7.59 -2.07l22.06 -0.16 0 0.85 -22.06 0 0 -0.69zm-62.05 7.59l11.79 -0.82 -0.1 -1.78 -8.24 0.53 0.87 -6.18 2.58 4.8c0,-8.89 -1.21,-7.05 4.04,-6.65 3.6,0.28 8.28,-0.92 12.51,-0.97 5.02,-0.06 7.27,1.04 13.15,0.57 6.49,-0.52 4.77,-0.25 4.77,7.74 -15.87,1.32 -9.12,-0.24 -16.93,-4.53 -8.81,-4.84 -10.98,6.42 -12.72,10.04l-11.72 -2.75zm-14.47 -8.97c1.22,-1.22 -1.23,1.23 0,0zm88.93 -1.38c0.73,-0.73 2.61,1.1 0.76,0.36 -0.01,0 -1.92,0.8 -0.76,-0.36zm-13.1 -0.68l8.27 0 0 0.68 -8.27 0 0 -0.68zm-86.87 0.11l4.86 -0.6 -4.86 0.6zm91.69 -2.87l11.72 0 0 0.69 -11.72 0 0 -0.69zm22.75 -0.69l-6.2 0.76 0 -0.76 6.2 0zm0 0l2.17 -1.09 -11.82 -0.29 0 -0.69 23.44 -0.77 0 0.77 -13.79 2.07zm-2.07 -4.14c1.23,-1.22 -1.22,1.23 0,0zm-4.13 0c0.73,-0.73 2.61,1.1 0.77,0.36 -0.02,-0.01 -1.93,0.8 -0.77,-0.36zm17.92 -0.69l-11.03 0.75 0 -0.75 11.03 0zm15.86 10.34l-11.73 -2.88 6.91 -2.51 4.81 -0.55 0.01 -1.64 -2.05 -2.27 15.84 -1.06 -13.79 10.91zm-15.86 -10.34l3.45 -0.51 -3.45 0.51zm-170.27 -0.69l12.46 0.53 -0.07 0.99 -12.39 -1.52zm-4.83 0c0.73,-0.73 2.61,1.1 0.77,0.36 -0.02,0 -1.93,0.8 -0.77,-0.36zm4.83 0l-2.15 -0.31 2.15 0.31zm179.23 -1.38c0.33,-0.32 4.08,-1.45 2.24,0.39 -0.14,0.13 0.74,0.17 -0.7,-0.07 -0.14,-0.03 -2.82,0.97 -1.54,-0.32zm-17.23 0l6.89 0 0 0.69 -6.89 0 0 -0.69zm-151.66 4.83c2.13,0 4.91,-0.16 6.96,-0.04 2.42,0.14 1.31,0 3.24,0.63 1.74,0.57 0.13,0.76 2.2,0.79l7.61 2.6 -0.69 1.35 7.03 0.78 -0.15 1.9 17.92 -0.15c-10.22,6.19 -32.96,-3.23 -33.11,2.59l-18.61 2.17 42.75 0.48 9.66 2.76 -31.85 3.87 0.18 1.75 40.3 -1.72 -7.26 2.99 14.48 1.38 -1.65 1.1c20.9,5.08 20.37,-0.34 35.95,-3.31 8.84,-1.68 27.29,-2.62 39.47,-2.62l-2.4 -3.17 -17.68 -1.07 40.76 -5.41 20.68 -2.07c-5.04,7.53 -36.9,20.09 -49.21,23.18 -19.11,4.8 -43.12,6.42 -66.63,6.49 -22.54,0.07 -44.44,-6.18 -60,-13.08 -11.6,-5.15 -36.51,-21.14 -42.7,-30.37 6.67,0 15.2,0.41 21.32,1.6 5.06,0.99 2.47,-0.04 1.43,2.53l20 2.07zm13.09 -6.2l2.46 -6.12 26.74 8.88 -3 4.13c-3.57,0 -6.24,-0.91 -9.25,-1.78 -4.71,-1.35 -6.61,-0.35 -6.61,-5.11l-1.37 0c-0.12,5.4 -7.63,1.16 -8.97,0zm0 -3.45l0 3.45 0 -3.45zm162.7 2.07c0.16,-0.17 4.86,-0.85 1.63,0.35 -0.94,0.35 3.1,0.66 -0.33,-0.05 -0.09,-0.02 -2.58,0.97 -1.3,-0.3zm-14.48 0l8.27 0 0 0.69 -8.27 0 0 -0.69zm18.61 -0.69l14.48 0c-2.78,4.15 -3.29,3.34 -6.89,3.44l-11.72 0.7c1.93,-1.35 3.52,-1.04 4.78,-1.93 1.87,-1.33 -0.21,-1.64 -0.65,-2.21zm-201.3 0l4.14 -0.54 -4.14 0.54zm180.62 -1.38l8.28 0 0 0.69 -8.28 0 0 -0.69zm-202.68 0c0.33,-0.33 4.08,-1.46 2.24,0.38 -0.14,0.14 0.74,0.17 -0.7,-0.07 -0.14,-0.02 -2.82,0.97 -1.54,-0.31zm56.53 0l0.28 -2.81 -0.28 2.81zm-34.47 1.38l-23.43 0.62 0 -0.62 25.44 -2.71 0.06 1.33 -16.54 0 14.47 1.38zm-25.5 -2.07c0.16,-0.16 4.86,-0.85 1.63,0.35 -0.95,0.36 3.1,0.66 -0.33,-0.05 -0.09,-0.02 -2.58,0.97 -1.3,-0.3zm224.05 0.82l0 -0.82 20 -0.36 0.01 0.77 -20.01 0.41zm-77.23 -1.08c0.74,1.77 1.19,5.81 0.58,6.35 -1.96,1.7 -6.09,0.18 -9.5,0.1 -7.26,-0.17 -14.79,0.01 -22.09,0.01l32.4 2.28c-2.68,11.24 0.46,3.65 -27.14,6.48 -3.42,0.35 -5.56,-0.31 -7.45,-0.16 -4.6,0.36 -2.94,3.35 -4.69,0.34 -1.16,-1.98 0.19,-3.84 0.91,-5.75 1.75,-4.63 -0.92,0.95 -0.92,-8.7 0,-3.5 21.35,-3.81 24.82,1.38l-0.09 -1.65 13.17 -0.68zm-88.22 -1.81l0 0zm163.37 0.54l4.14 -0.54 -4.14 0.54zm-163.37 -0.54l1.1 -1.65 -1.1 1.65zm33.09 -2.07c0.01,-0.31 1.21,-2.77 1.07,0.03 -0.18,3.27 -1.09,0.21 -1.07,-0.03zm145.22 0.07l9.73 -0.36 0.18 2.07 -19.32 0.43 -0.01 -0.83 9.42 -1.31zm-176.25 -1.45l2.44 -3.26 0.91 4.13 1.86 -5.09c27.07,6.36 24.88,3.71 24.7,10.39 -0.1,3.48 1.36,2.8 -3.02,2.8l0.86 -6.88 -1.55 -0.02 -0.87 6.19 -25.33 -8.26zm-23.44 -1.37l0.79 2.05 -0.79 -2.05zm8.28 1.37l-3.81 4.04c0.2,-2.11 0.26,-8.75 1.33,-10.15l14.25 6.68 -1.56 6.99 1.59 1.38c-1.41,-0.14 -5.8,-1.92 -7.89,-2.53 -5.93,-1.74 -4.02,-1.67 -3.91,-6.41zm15.16 0l-3.41 -0.83 0.32 -1.21 3.09 2.04zm155.11 -2.06l0 0zm-106.98 -0.81l37.35 0.93 2.64 5.04 -4.01 0.35 -0.25 -3.49c-1.18,5.2 -0.32,3.59 -21.12,2.66 -0.01,-5.16 0.13,-3.57 -1.38,-4.68l0 4.82 -12.41 0 -0.82 -5.63zm134.58 1l8.17 -1.62 0.08 0.76 -8.25 0.86zm-136.52 -0.19c-1.4,0.17 -0.75,-2.36 -0.04,-0.87 0,0 1.59,0.67 0.04,0.87zm-46.19 -1.38c1.23,-1.23 -1.22,1.22 0,0zm-68.25 -0.69c0.74,-0.73 2.62,1.09 0.77,0.36 -0.01,-0.01 -1.92,0.79 -0.77,-0.36zm2.76 -0.69c1.23,-1.23 -1.22,1.22 0,0zm102.69 0.3l4.16 -0.95 -0.03 1.09 -4.13 -0.14zm-90.27 -1.08l-7.59 0.78 0.01 -0.86 7.58 0.08zm246.79 -1.36l-6.84 1.63 -0.07 -1.39 6.91 -0.24zm-253 -0.62c0.16,-0.16 4.85,-0.85 1.62,0.36 -0.94,0.35 3.11,0.66 -0.32,-0.06 -0.1,-0.02 -2.58,0.98 -1.3,-0.3zm35.84 6.21l-7.79 -2.29c2.24,-3.5 1.82,-5.64 6.55,-5.7 4.57,-0.06 4.98,2.43 4,6.61l-2.23 -4.85 -0.53 6.23zm214.4 -7.59c0.33,-0.32 4.08,-1.46 2.24,0.39 -0.14,0.13 0.74,0.17 -0.7,-0.08 -0.14,-0.02 -2.82,0.97 -1.54,-0.31zm-31.02 -2.76l1.74 6.81c-4.23,0.99 -2.54,0.38 -4.08,0.43 -4.27,0.13 1.95,0.63 -2.49,2.42l-2.75 -6.21 7.58 -3.45zm-227.5 2.07c0.74,-0.73 2.62,1.1 0.77,0.36 -0.01,-0.01 -1.92,0.8 -0.77,-0.36zm-7.58 0c0.33,-0.32 4.08,-1.46 2.23,0.39 -0.13,0.13 0.75,0.17 -0.69,-0.08 -0.14,-0.02 -2.82,0.97 -1.54,-0.31zm67.56 -0.69l4.83 2.05 -1.72 6.13 -4.5 -1.95 1.39 -6.23zm-53.77 0c0.75,-0.75 3.74,1.07 1.07,0.33 -0.56,-0.15 -2.24,0.84 -1.07,-0.33zm53.77 0l0 0zm194.37 -0.91l4.21 -0.24 -4.21 0.24zm-2.04 -0.55l-4.12 0.86 4.12 -0.86zm-195.78 0.08c0,-2.72 0,2.73 0,0zm-65.49 0l13.15 0.77 -13.13 -0.28 -0.02 -0.49zm268.52 1.9l6.41 -3.63 0.51 1.66 -6.92 1.97zm-160.97 -2.58l0 0zm128.91 0.68l5.51 -2.75 -1.1 8.51 -1.17 -0.44 -3.24 -5.32zm5.51 -2.75l2.05 -0.79 1.41 5.61 -3.46 -4.82zm-115.66 -0.7l8.1 -0.53 0.02 3.3 -8.12 -2.77zm143.24 -0.68l7.58 0 0 0.76 -7.58 -0.06 0 -0.7zm-4.83 -2.76l5.52 0 0 0.69 -5.52 0 0 -0.69zm-22.75 0.69l0 0zm-85.48 0.69l-1.52 -1.24 1.52 1.24zm0 0l2.37 2.08 -14.09 4.12c13.15,0 20.32,-5.9 14.48,2.07l1.28 -0.74 2.16 5.86 -37.9 -0.72 0.83 -4.38 16.41 -2.98 -7.34 -1.5 5.95 -1.74c-2.23,-9.56 3.37,-3.25 12.4,-7.58l1.64 6.84 1.81 -1.33zm115.13 -2.07l7.58 0 0 0.69 -7.58 0 0 -0.69zm-27.58 -2.07l0.79 2.05 -0.79 -2.05zm6.37 0.63l5.81 -3.1 2.47 5.84 -10.08 6.31 -2.23 1.01 -2.19 -7.07 1.41 -1.73 7.12 4.85 -2.31 -6.11zm-95.3 -0.63l2.02 -0.81 0.05 1.5 -2.07 -0.69zm91 -1.37l1.52 1.24 -1.52 -1.24zm-2.76 -0.69l0.69 2.06 -0.69 -2.06zm-88.24 2.06l0 0zm-128.22 -1.37l0 0zm219.22 0l0 0zm12.41 -2.76l0.69 0c1.56,0 3.69,2.91 4.14,4.13 -6.77,4.53 -7.61,-4.13 -4.83,-4.13zm-11.03 0.69c1.23,-1.23 -1.23,1.22 0,0zm-257.14 0l-0.69 -0.69 0.69 0.69zm36.54 2.07l1.98 -5.56 4.22 1.42 -2.53 10.24 -0.77 0.53 -2.9 -6.63zm-37.23 -2.76l0 0zm255.76 0c-1.58,0.93 -2.6,-0.25 0.41,-1.32 4.58,-1.62 0.61,0.71 -0.41,1.32zm8.96 -4.14l1.56 2.68 -4.77 3.19 -2.62 -5.71 0.63 -0.97 5.2 0.81zm-102.03 2.76c-1.2,5.17 -3.84,4.12 -6.63,3.38 -2.26,-0.59 -0.88,0.67 -7.15,2.13 -3.16,6.7 2.99,4.14 -8.96,4.14l6.2 -5.51 -6.63 -0.8 -3.71 3.55c2.22,-4.2 1.59,-5.62 4.79,-5.58 1.73,0.03 8.63,1.76 10.38,-0.62l-10.38 -1.13 0.11 -1.42 21.98 1.86zm0 0l-3.81 -2.02 0.81 -1.37 3 3.39zm104.1 -2.76c0,-1.75 1.23,-0.81 0.84,0.44 -0.29,0.89 -0.84,3.21 -0.84,-0.44zm-2.07 0l0 0zm1.38 -2.07c1.23,-1.22 -1.22,1.23 0,0zm-2.75 0c1.22,-1.22 -1.23,1.23 0,0zm1.37 -0.69c1.23,-1.22 -1.22,1.23 0,0zm-4.13 -0.69l-0.69 0.69 0.69 -0.69zm-116.51 0c1.23,-1.22 -1.22,1.23 0,0zm116.51 0l0 0zm-113.75 -2.06c0.49,-0.5 3.91,0.65 1.17,0.35 -0.95,-0.11 -2.26,0.74 -1.17,-0.35zm108.23 -3.45l2.76 -2.07 -0.77 2.73 -1.99 -0.66zm2.76 -2.07l2.71 -0.77 0.05 0.77 -2.76 0zm-2.76 -1.38l-1.58 -7.52 1.31 -0.74 4.41 7.15 -0.7 0.4 -3.44 0.71zm-8.96 -6.2l1.93 -1.66 -1.93 1.66zm-3.45 -3.45l0 0zm0 0l-3.51 -4.09 3.48 -0.88 -0.68 0.21 0.71 4.76zm-97.89 -6.89c1.23,-1.23 -1.22,1.22 0,0zm-2.07 -1.38l0 0zm102.03 -0.69l-1.38 0.69 1.38 -0.69zm-102.03 0.69l-0.78 -2.05 0.78 2.05zm-37.91 2.07l43.35 13.37 0.6 8c-4.13,1.95 2.82,-7.24 -10.34,6.03 -3.94,3.97 -7.32,5.57 -8.8,11.89l-6.01 -3.12 -2.48 11.53c-0.18,-2.08 -0.04,-8.32 -1.35,-9.62l-4.11 6.91 2.24 0.51 -3.45 8.27 -1.58 3.43 -27.42 -8.12 -14.36 -9.22c0.49,-1.99 4.01,-5.98 0.4,-3.53 -5.53,3.74 0.6,1.05 -6.68,0.89l3.06 3.08c-1.76,1.66 -2.01,3.38 -3.24,6.5l-6.27 -4.43 2.32 -6.53c-4.06,-0.09 -3.66,-5.2 -5.52,2.76l-4.08 -1.52 -3.4 5.58 -2.12 -0.28 1.32 -5.85 -3.79 5.71 0.37 -9.2 3.4 0.09 -3.42 -2.11 2.06 -5.52 -3.08 3.05c-5.32,-7.7 0.87,-0.93 1.03,-7.18 1.4,-1.86 -1.87,-1.36 1.37,-1.38l9.26 -15.67c1.97,0.68 -0.69,5.88 5.22,-2.94l4.13 2.06 4.87 -0.18 3.74 -5.57c3.89,0.32 5.79,2.06 7.96,3.71 3.9,2.95 2.38,3.16 1.36,7.56l3.85 -5.75c1.69,-9.46 4.77,-6.69 7.87,-7.35l-2.95 6.8 5.02 -5.42c-0.12,5.16 -6.22,9.9 -3.3,10.02 2.51,0.09 5.53,-7.04 6.74,-9.33l6.21 2.07zm139.94 -2.76l0 -2.07 2.07 0.69 -2.07 1.38zm-176.48 -1.38c-0.5,-1.7 1.15,-0.16 1.1,0.17 0,0 -0.43,2.09 -1.1,-0.17zm-2.76 0.69l0 0zm181.31 -0.69l0 0zm-169.59 -0.69l0 0zm167.52 0l-0.69 -0.69 0.69 0.69zm-35.27 -2.04l13.66 -4.81 -0.26 0.97 3.86 5.94 -10.5 2.22 0.19 0.97 -5.44 1.63 -1.51 -6.92zm-132.25 2.04l0 0zm-10.34 -0.69c1.23,-1.22 -1.22,1.23 0,0zm-1.38 2.07c-1.01,4.35 -4.7,7.14 -3.87,2.8 0.45,-2.34 1.15,-6.2 3.18,-6.94l0.69 4.14zm42.05 -0.69l0.95 -2.95 -0.95 2.95zm136.5 -1.38l-1.51 -1.24 1.51 1.24zm-149.59 -1.38c1.22,-1.22 -1.23,1.23 0,0zm-2.07 -1.38c1.22,-1.22 -1.23,1.23 0,0zm-6.21 -2.75l0 0zm-20.68 0c1.23,-1.23 -1.22,1.22 0,0zm20.68 0l0 0zm-15.85 4.13l-1.38 -1.38c-5.23,-0.44 2.76,-7.91 5.51,-6.2l7.46 3.68 -2.67 4.35 -0.65 -0.45c3.51,-15.07 -3.56,6.43 -8.27,0zm31.71 -6.2l0 0zm-19.3 -1.38l0 2.07 -2.07 -1.38 2.07 -0.69zm139.25 0c0,-2.72 0,2.72 0,0zm-122.71 0c1.23,-1.23 -1.22,1.22 0,0zm-18.61 0.69l-1.38 -0.69 1.38 0.69zm142.7 -1.38c0.08,-0.63 3.31,-0.77 0.87,0.05 -0.01,0 -1.14,2.12 -0.87,-0.05zm-126.85 0c0.74,-0.73 2.62,1.09 0.77,0.36 -0.01,-0.01 -1.92,0.79 -0.77,-0.36zm-13.78 0.69l0 0zm-3.45 0l-0.69 -0.69 0.69 0.69zm8.27 -1.38l0 0zm-8.96 0.69l-1.38 -0.69 1.38 0.69zm142.7 -1.38l0 0zm-133.05 0l-0.69 0.69 0.69 -0.69zm-11.03 0.69l-0.69 -0.69 0.69 0.69zm144.08 -0.69l0 0zm-132.36 -1.38l-0.69 1.38 0.69 -1.38zm14.48 0.69l0 0zm-26.89 0.69l-1.51 -1.24 1.51 1.24zm143.39 -2.07c1.23,-1.22 -1.22,1.23 0,0zm-2.06 0.69l-0.69 -0.69 0.69 0.69zm0 0c6.46,7.44 -1.45,5.66 -6.9,8.27 -0.14,-6.17 -8.79,-13.65 1.38,-6.2l-0.79 -4.11 0.64 -0.74 5.67 2.78zm-122.71 -0.69c0.1,-0.25 2.27,-1.68 1.58,0.41 -0.67,1.97 -1.61,-0.34 -1.58,-0.41zm-6.21 0.69l0 0zm128.23 -0.69l0 0zm-113.06 -0.69c1.22,-1.22 -1.23,1.23 0,0zm-17.24 0l0 0zm0 0l0 0zm130.99 -1.37l0 0zm-112.37 0l0 0zm112.37 0l-2.84 -0.07 0.09 -0.72 2.75 0.79zm-133.74 -0.69l0 0zm21.37 0.69l1.37 -2.07 -1.37 2.07zm-21.37 -0.69l0 0zm125.46 -2.07l2.07 -0.69 1.13 1.92 -3.2 -1.23zm-102.72 0.69l0 0zm-9.65 -0.69c-5.67,8.47 -4.79,0.4 0,0zm117.89 -0.69c1.22,-1.23 -1.23,1.22 0,0zm-6.21 -0.69l0.69 1.38 -0.69 -1.38zm8.28 0c1.22,-1.23 -1.23,1.22 0,0zm-6.21 -0.69l0.69 1.38 -0.69 -1.38zm-2.07 0.69l0 0zm-92.37 -1.38l-1.93 1.65 1.93 -1.65zm97.2 0l0 0zm-2.76 0.69l0 0zm2.76 -0.69l0 0zm-97.2 0l0 0zm92.37 -2.07c1.23,-1.22 -1.22,1.23 0,0zm-91.68 0c1.22,-1.22 -1.23,1.23 0,0zm-10.35 -0.69c0.95,-0.94 2.26,1.34 0.85,0.68 -0.01,0 -1.74,0.21 -0.85,-0.68zm100.66 -2.76c1.22,-1.22 -1.23,1.23 0,0zm-2.07 0.69l0 0zm-88.24 -0.69l0 0zm91.68 -0.68c0.5,-0.5 3.92,0.65 1.18,0.35 -0.96,-0.11 -2.27,0.74 -1.18,-0.35zm-91.68 0.68l0 0zm0.69 -2.06c0.73,-0.74 2.61,1.09 0.76,0.36 -0.01,-0.01 -1.92,0.79 -0.76,-0.36zm87.55 2.75c-2.79,1.77 -9.83,2.28 -13.82,2.76 -6.4,0.76 -9.34,2.1 -11,-4.13l0.18 4.78 -40.86 -2.01 -2.9 8.69 1.36 1.1 12.9 -7.91 53.2 0.33 3.78 5.99 -11.04 3.09 -5.92 -6.27c3.07,4.68 4.37,5.38 3.92,8.08l10.23 -1.06 3.94 8.39 -28.1 5.75c3.31,4.52 21.86,-2.4 26.2,-2.76l2.56 6.46 -7.05 3.07 0.78 1.99 32 -11.37 7.55 3.99 -12.55 5.87 -2.36 -3.92c0.17,5.23 2.8,3.92 -1.72,6.15 -2.48,1.22 -5.88,1.76 -6.81,4.31l17.52 -6.64c2.18,1.26 3.14,4.18 4.36,6.35l4.32 -0.4 -8.03 3.88 0.54 1.19 4.73 -1.63 8.3 -4.08 3.42 6.84 -9.65 5.52 -24.46 13.14 0.74 1.46 33.37 -16.67 2.19 6.85 2.64 -0.65 -9.65 6.21 -2.35 2.46 5.79 0.3c-2.88,-1.19 -7.07,4.89 -1.38,5.51l-36.87 19.32 0.67 1.35 23.11 -11.02 1.38 7.58c-3.53,0.3 -37.5,21.38 -64.12,21.38l1.09 -25.69 2.24 5.06 21.56 -4.58 -2.14 -9.95 -23.51 5.22 -14.16 -25.06c-5.12,2.93 -0.22,3.01 -6.96,4.21 -3.44,0.61 -5.1,-0.23 -9.14,-0.23l0.09 -1.78 13.05 -1.2c-0.58,-6.91 -1.92,-1.15 -8.31,-1.15l0 -2.07 2.91 0.55 1.72 -15.05c-5.14,1.44 -8.21,-4.06 -8.08,-9.63 -5.09,-1.19 -0.92,-1.06 -3.76,-2.7 -0.94,-0.54 -2.12,-0.17 -3.08,-0.86 -2.24,-1.61 3.52,-0.71 0.64,-8.16 0,-3.75 -0.35,-1.02 1.37,-2.07l0.69 -0.69c-0.48,-5.5 -1.6,2.79 -5.05,5.3 -12.41,9.03 9.36,16.52 11.95,23.66l-44.81 -11.72 -7.32 -5.26 4.56 -7.84 6.86 2.17 -3.82 8.66 0.64 0.37 1.83 -2.24 0.28 2.81c2.9,-10.74 2.07,-7.77 8,-7.64l0.41 -1.12 -14.76 -5.43 1.94 -1.72 1.04 2.73 6.01 -9.52 29.97 6.41 0.2 -2.38 -22.83 -3.66c0.8,-3.15 2.47,-4.26 3.76,-6.64 3.22,-5.95 -1.18,2.11 -1.61,-2.79l1.36 0.95 6.65 -9.41c6.89,0.73 13.14,2.86 20.43,3.46 7.6,0.62 14.67,1.42 22.09,2.04 4.05,0.34 8.09,1.48 8.77,1.31 25.91,-6.7 19.63,3.17 26.19,3.71zm-86.18 -5.51c0.08,-0.63 3.32,-0.77 0.87,0.04 0,0.01 -1.14,2.13 -0.87,-0.04zm-4.27 -0.99l3.82 0.22 -0.32 1.01 -3.5 -1.23zm-1.93 -1.08c-0.05,-0.36 1.2,-2.9 0.91,-0.36 -0.03,0.27 -0.52,3.34 -0.91,0.36zm2.76 -2.07l0 0zm0.69 -0.69l-0.69 0.69 0.69 -0.69zm7.58 -0.69c0.73,-0.73 2.62,1.1 0.77,0.36 -0.02,0 -1.92,0.8 -0.77,-0.36zm-7.58 0.69l0 0zm4.82 -1.38c1.23,-1.22 -1.22,1.23 0,0zm-3.44 -0.68c1.22,-1.23 -1.23,1.22 0,0zm69.62 -0.69l0 0zm-42.05 1.37l-13.82 0.38 3.98 -6.2 6.37 0.48 -3.51 5.98c4.35,-0.41 1.85,-3.83 6.02,-5.25 6.64,-2.26 3.91,2.28 3.72,4.61l3.03 -3.95c5.98,0.34 12.92,1.98 16.53,1.45 8.96,-1.32 10.63,1.16 13.53,6.64l-35.89 -1.31 0.04 -2.83zm-12.41 -5.51l0 0zm35.85 1.38l-9.67 -1.27c1.36,-2.91 1.53,-7.27 4.8,-5.69 1.49,0.72 4.69,4.84 4.87,6.96zm-35.85 -1.38l0 0zm21.37 -2.76l2.76 -3.44 -0.79 4.11 2.86 -3.42 -1.43 5.49 -4.09 -2.05 -3.36 1.56 4.65 -6.46 -0.6 4.21zm4.83 -2.75l0 0zm-2.07 -0.69l0 0zm-67.56 -108.93c3.31,-0.07 4.96,-1.38 7.58,-1.38 4.25,0 6.9,5.86 6.9,11.72 0,5.44 -19.53,24.22 -23.94,27.77 -4.62,3.73 -16.39,0.93 -22.55,2.96 -7.21,2.37 -32.46,33.98 -37.58,40.32 -3.89,4.83 -33.31,10.11 -42.09,10.3 0.48,-1.78 50.77,-59.61 52.21,-60.16 16.68,-6.42 0.77,12.94 35.17,-21.36 8.3,-8.27 19.21,-21.91 28.44,-28.09 3.4,14.61 -1.87,8.17 -4.14,17.92zm29.64 -21.37c-9.97,0 -5.7,4.61 -12.56,-1.18 -14.68,-12.43 -13.54,-7.53 -45.17,24.1 -5.56,5.57 -10.69,10.6 -16.2,16.21 -10.47,10.65 -12.82,-0.09 -23.11,9.29 -13.04,11.9 -50.53,63.33 -60.82,68.78 0,-105.1 79.09,-190.27 182.68,-190.27l4.14 0c104.4,0 183.37,84.45 183.37,190.27 -13.28,-8.9 -65.07,-82.04 -75.83,-82.04 -5.89,0 -7.41,0.4 -14.48,4.14 -4.38,-6.55 -35.98,-46.19 -42.05,-46.19 -11.16,0 -8.5,2.76 -13.79,2.76 -3.28,0 -14.31,-14.48 -22.75,-14.48 -8.59,0 -17.26,12.16 -22.22,17.07 -1.58,1.56 -8.37,9 -9.89,9.34 -3.44,0.78 -5.69,-7.8 -11.32,-7.8zm68.25 140.64l-3.44 0.71 3.53 4.73 -1.08 1.19 -17.95 -15.92 7.9 1.76c3.72,1.79 3.94,5.67 5.53,6.84 8.57,-4.12 -5.95,-10.46 -13.78,-12.42 -12.72,-3.18 -18.45,-0.98 -30.41,2.01 -15.4,3.84 -39.02,14.43 -49.5,22.88 -15.58,12.55 -34.52,28.15 -43.44,46.88 -1.9,4.01 -4.4,6 -6.65,11.27 -1.67,3.9 -3.38,9.67 -6.72,11.35 -3.75,1.88 -3.31,0.77 -5.64,-0.45 -5.94,-3.09 -0.52,0.02 -3.11,1.89l-22.06 -5.51c3,-4.83 -14.21,-10.47 -13.13,-34.46 1.17,-26.19 36.92,-36.85 58.72,-40.59 8.83,-1.52 38.17,-2.5 41.27,-8.37 -0.98,-11.87 -53.11,-11.79 -68.63,-10.03 -13.25,1.49 -23.85,1.9 -36.06,3.92 -9.47,1.57 -26.5,6.93 -33.18,7.49 0,48.13 41.54,106.47 69.24,128.61 37.61,30.06 81.69,50.42 149.92,45.06 97.07,-7.63 188.4,-103.86 175.27,-217.9 -6.68,-58.03 -33.04,-100.05 -67.91,-129.94 -32.04,-27.46 -85.51,-54.25 -148.3,-47.45 -54.47,5.9 -104.61,33.85 -130.98,66.88 -16.92,21.2 -26,35.24 -36.9,62.36 -12.05,29.95 -11.03,47.86 -11.03,86.87 6.29,-0.14 22.05,-6.29 30.61,-8 28.27,-5.61 78.94,-10.77 107.57,-7.48 18.81,2.17 139.26,5.62 149.29,0.31 -4.31,-6.44 -55.24,-12.78 -67.94,-14.1 -8.47,-0.88 -17.69,-0.39 -26.2,-1.37 -35.46,-4.08 -73.75,3.75 -105.78,3.75 1.03,-3.87 23.35,-28.72 27.52,-29.7 11.02,-2.58 15.12,3.71 23,-3.89 13.59,-13.1 64.19,-66.53 72.19,-71.89 5.49,23.58 -2.66,13.06 -6.21,28.27 7.7,0 12.53,-5.93 17.77,0.15 3.54,4.11 6.28,11.38 4.48,18.64 -2.91,11.73 -17.42,20.55 -17.42,30.84 14.35,-0.32 25.65,-20.92 39.12,-18.38l-4.35 23.14c7.6,1.75 20.67,-12.03 24.27,-0.38 3.9,12.59 2.97,15.41 14.26,21.59 15.96,8.73 35.35,10.5 52.05,20.34 40.16,23.65 34.07,60.45 10.46,95.71l-18.61 -0.91c-11.97,-17.65 -23.76,-36.35 -38.77,-51.33 -6.49,-6.47 -16.92,-14.84 -24.96,-19.85 -2.81,-1.75 -32.11,-20.78 -23.83,-5.12z"/>
    <path class="fil0" d="M279.73 68.78c115.1,0 210.26,95.11 210.26,210.26 0,116.16 -94.9,210.95 -210.95,210.95 -63.95,0 -116.1,-29.92 -148.4,-61.86 -29.09,-28.77 -64.61,-89.26 -61.87,-149.05 3.04,-66.55 26.87,-113.74 61.88,-148.43 32.69,-32.4 84.31,-61.87 149.08,-61.87zm-6.89 -44.81l-12.41 0 0 12.41c-15.97,0 -13.1,-2.87 -13.1,13.1l-12.41 0 0 10.34c-13.27,3.09 -20.76,4.98 -32.66,9.4 -4.89,1.81 -28.05,12.55 -29.38,12.66l-14.02 -26.12 19.8 -11.8c1.75,1.03 5.04,8 6.25,10.16 -2.16,1.1 -9.42,5.23 -11.27,5.36l7 12.35 22.49 -12.83 -18.92 -34.31 -44.18 25.89 5.78 11.73c-2.5,-0.59 -7.74,4.98 -10.92,4.79l6.17 12.07 -10.3 5.35 5.59 12.17c-1.91,0.08 -8.25,4.06 -10.34,5.2l5.23 10.8c-8.93,2.48 -36.9,39.25 -41.78,48.47l-25.99 -14.82 10.81 -20.35 10.22 5.09 -6.34 11.31 11.8 6.68 12.96 -23.19 -33.67 -19.32 -25.51 45.12 10.51 5.45 -5.93 12.05 10.65 5.37 -5.93 11.81c1.86,-0.12 8.44,4.26 10.46,5.39l-5.88 11.39 8.27 4.74 -11.92 63.95 -28.62 0.32 0 -23.44 11.03 0 0 12.41c9.04,0 14.47,1.33 14.47,-2.07l0 -24.13 -39.29 0 0 51.02 12.4 1.01 0.01 11.4 12.41 0c0,15.97 -2.88,13.09 13.1,13.09l0 12.41 8.96 0c2.8,0 9.33,28.36 10.71,32.03 3.19,8.43 11.26,23.71 12.73,30.02l-26.19 14.07 -11.9 -20.47c2.29,-0.48 7.99,-4.24 10.35,-5.61 1.13,2.25 5.17,9.36 5.37,11.32 2.21,-1.21 11.54,-5.87 12.63,-7.25l-12.96 -22.43 -34.51 19.05 26.17 44.41 11.5 -5.96c1.22,2.52 4.72,8.54 4.83,10.97l12 -6.29 5.91 10.38 11.6 -5.68c0.17,1.92 4.1,8.23 5.25,10.33l10.91 -4.92c1.77,6.52 40.75,39.04 48.32,40.8l-14.33 26.97 -20.82 -11.14 5.39 -10.38 11.48 6.87c-0.31,-1.9 4.84,-10.02 6.05,-12.22l-22.77 -13.48 -19.75 34.19 45.27 25.59 5.56 -10.43 11.94 5.86 5.38 -10.65 11.81 5.92c0.02,-1.58 4.17,-8.32 5.18,-10.18l11.66 5.49 4.9 -8.93c10.16,0.16 30.63,10.99 64.73,10.99l0 30.33 -24.13 0 0 -11.03 12.41 0c0,-9.04 1.33,-14.47 -2.07,-14.47l-24.13 0 0 39.29 51.7 0 0 -12.41c14.77,0 13.1,2.13 13.1,-12.41 14.4,0 11.72,2.79 11.72,-13.09l12.41 0 0 -8.97c0,-3.29 28.32,-8.95 32.22,-10.52 9.01,-3.62 21.7,-8.62 29.82,-12.92l14.15 26.3 -20.57 11.75c-0.41,-2.22 -4.25,-8 -5.58,-10.31l10.47 -5.28 -5.77 -12.83 -23.06 13.07c2.42,4.32 18.65,32.35 19.03,34.5l44.19 -25.89 -5.65 -11.81 10.63 -5.17 -5.43 -10.88 9.66 -6.18 -5.43 -12.14c1.85,0.17 8.49,-4.19 10.51,-5.32l-5.27 -10.04c6.98,-4.66 17.47,-16.29 22.78,-23 2.54,-3.21 18.78,-25.55 19.45,-26.04l25.91 14.97 -11.5 20.15 -9.61 -4.74 6 -12.21c-1.47,0.34 -10.67,-5.12 -12.65,-6.17l-12.85 23.34 34.25 19.21c0.57,-2.42 22.15,-39.15 25.24,-44.52 -1.1,-1.63 -8.23,-5.28 -10.35,-6.54l6.05 -11.5 -10.69 -5.4 5.99 -11.44 -10.45 -5.89 5.84 -11.23 -9.08 -4.98c0.1,-7.5 10.99,-29.46 10.99,-64.04l30.33 0 0 23.43 -11.03 0 0 -12.4c-9.04,0 -14.48,-1.34 -14.48,2.06l0 24.13 39.3 0 0 -51.01 -12.4 -1.02 -0.01 -11.39c-6.01,0 -7.38,0.48 -12.41,-0.69 -0.21,-2.54 -0.69,-1.97 -0.69,-5.52 0,-7.68 4.94,-6.89 -11.72,-6.89 0,-14.46 1.49,-12.41 -11.03,-12.41 -2.79,-12 -5.21,-21.81 -9.33,-32.71 -3.28,-8.66 -11.2,-22.77 -12.73,-29.33l26.24 -14.11 11.79 20.54c-2.15,0.33 -7.55,4.03 -9.74,5.33l-5.6 -10.35 -12.48 5.92 12.66 22.93c3.95,-2.2 33.43,-17.93 34.15,-19.52l-25.69 -44.01 -10.59 5.78c-1.33,-2.14 -5.89,-8.43 -5.96,-10.49l-12.07 6.16 -5.38 -10.28 -10.92 5.23 -6.48 -9.96 -8.75 3.8 -50.51 -41.11 14.87 -26.07 20.81 12.02 -5.66 9.74 -11.14 -6.37 -6.85 12.54 23.43 12.76c2.53,-6.14 19,-30.29 18.85,-34.04l-44.14 -25.47c-2.11,1.22 -4.9,7.89 -6.22,10.33l-11.92 -5.86 -5.37 10.65 -11.42 -6.05 -5.59 10.31 -11.6 -5.57 -5.17 9.28c-13.58,-1.53 -27.2,-11.26 -63.82,-11.26l0 -30.33 23.44 0 0 11.03 -12.41 0c-1.97,17.62 -2.26,14.48 26.2,14.48l0 -39.3 -51.01 0 0 12.41z"/>
    <path class="fil0" d="M29.49 225.76c20.27,0.2 25.29,4.83 26.88,-14.28l-10.29 -4.93 5.91 -12.06 -0.69 0.21 -10.54 -5.73 -0.62 0.34 -10.65 36.45z"/>
    <path class="fil0" d="M332.81 507.92l0 10.34 -12.41 -0.2c-0.56,2.72 -2.3,12.61 2.07,12.61 10.17,0 25.49,-6.02 35.16,-8.28l-10.8 -19.73c-3.04,0.56 -14.02,1.7 -14.02,5.26z"/>
    <path class="fil0" d="M438.98 449.32l5.84 10.16 -9.79 6.02 5.4 11.36 0.61 0.74 28.14 -27.01 -0.56 -0.58c-14.31,-7.58 -19.02,-16.56 -29.64,-0.69z"/>
    <path class="fil0" d="M347.29 56.37l4.93 -10.28 11.91 5.57 0.21 -0.91 5.82 -10.17 -37.16 -11.07 -0.19 0.67c0,19.17 -4.63,24.6 14.48,26.19z"/>
    <path class="fil0" d="M109.45 467.93l10.2 -18.99 -10.03 -10.13 -10.93 6.21 -5.17 -10.14c-15.34,3.55 -10.84,8.1 -2.86,15.99 3.74,3.7 13.84,16.65 18.79,17.06z"/>
    <path class="fil0" d="M502.31 212c1.65,3.41 2.16,13.96 5.6,13.96l11.03 0c0,15.71 -2.39,13.1 10.35,13.1 4.83,0 -6.7,-38.12 -6.7,-38.13l-20.28 11.07z"/>
    <path class="fil0" d="M449.32 119.8l10.72 -6.08 5.42 10.05 11.71 -5.5 0.08 -0.88 -26.63 -27.83 -0.61 0.59c-6.96,14.5 -17.08,18.67 -0.69,29.65z"/>
    <path class="fil0" d="M90.84 108.76l18.96 10.95 10.16 -10.09 -6.11 -10.26 10.73 -6.52c-7.07,-13.36 -6.19,-12.26 -16.67,-2.17 -6.08,5.86 -13.03,10.46 -17.07,18.09z"/>
    <path class="fil0" d="M35.69 356.94l20.77 -10.17c-4.01,-16.13 -1.14,-13.96 -15.95,-13.96l0 -12.41c-4.89,-1.14 -5.17,-0.68 -11.03,-0.68 -4.77,0 6.21,32.56 6.21,37.22z"/>
    <path class="fil0" d="M502.4 346.6l10.53 5.88 -5.85 11.62 0.86 0.36 10.23 5.06 11.18 -36.49 -0.75 -0.22c-23.14,0 -21.85,-4.87 -26.2,13.79z"/>
    <path class="fil0" d="M206.52 512.66l-10.79 -5.61 -6.57 11.07 36.58 11.21 0.22 -0.73c0,-23.2 4.87,-21.85 -13.79,-26.2l-5.65 10.26z"/>
    <path class="fil0" d="M201.83 35.69l10.43 20.63c16.19,-3.61 13.7,-1.84 13.7,-16.49 15.71,0 13.1,2.39 13.1,-10.34 0,-5.18 -32.37,6.2 -37.23,6.2z"/>
    <path class="fil0" d="M263.87 165.29c-0.1,-4.47 -12.26,-54.83 -12.4,-61.35l-4.14 0c-0.97,4.14 5.21,41.68 6.57,51.33 0.58,4.05 0.13,4.78 3.33,6.33 2.68,1.29 4.93,3.24 6.64,3.69z"/>
    <path class="fil0" d="M373.49 193.56l2.09 4.12c4.32,-0.35 9.33,-3.52 11.88,-6 4.46,-4.34 25.78,-24.21 28.77,-25.01l-1.52 -4.07c-4.03,0.28 -17.1,11.71 -20.94,14.71l-20.28 16.25z"/>
    <path class="fil0" d="M235.61 246.64c6.04,-1.41 45.84,-27.04 46.19,-42.74 -10.22,5.41 -26.77,25 -34.87,31.32 -2.58,2.01 -9.71,9.02 -11.32,11.42z"/>
    <path class="fil0" d="M359.01 177.01l3.81 5.06c3.72,-1.14 31.03,-35.71 31.35,-39.53l-2.74 -1.41c-1.84,1.26 -30.51,33.02 -32.42,35.88z"/>
    <path class="fil0" d="M142.47 165.93c8.88,5.95 25.75,24.26 35.92,31.08 2.44,-1.79 1.31,-3.2 4.83,-4.14 -2.25,-4.25 -4.86,-5.02 -8.67,-7.88 -8.24,-6.17 -21.44,-18.32 -29.25,-22.45l-2.83 3.39z"/>
    <path class="fil0" d="M164.45 143.77l14.33 18.37c2.74,3.66 12.1,16.53 14.78,18.32l4.98 -4.66c-3.04,-4.47 -27.87,-32.42 -31.18,-34.63l-2.91 2.6z"/>
    <path class="fil0" d="M238.37 155.64c-0.15,-6.63 -14.53,-35.46 -16.55,-44.12 -4.23,0 -4.95,-0.79 -4.26,2.7l6.62 20.45c1.63,4.21 3.36,8.75 4.38,12.85 1.88,7.5 -0.84,3.01 9.81,8.12z"/>
    <path class="fil0" d="M320.4 155.64c10.82,-5.72 5.07,6.5 13.53,-18.87 2.68,-8.02 5.95,-16.43 7.84,-24.56l-4.79 -0.86c-1.72,7.41 -5.68,15.42 -8.41,22.12 -1.48,3.62 -7.9,18.95 -8.17,22.17z"/>
    <path class="fil0" d="M209.41 163.92c3.84,-0.9 3.43,-2.28 6.21,-4.14 -3.46,-6.54 -20.64,-32.42 -21.37,-35.16 -3.88,0 -7.17,-1.57 -1.52,7.72l16.68 31.58z"/>
    <path class="fil0" d="M343.85 159.1l4.56 5.04c2.12,-1.59 14.97,-26.17 17.5,-31.24 0.7,-1.41 2.35,-4.29 2.79,-5.67 1.06,-3.35 -0.41,-2.61 -4.18,-2.61l-20.67 34.48z"/>
    <path class="fil0" d="M332.12 395.55c2.63,0.7 2.62,2.51 4.04,4.24 1.03,1.24 -0.17,0.12 1.07,1.03 0.49,0.36 2.02,1.03 2.28,1.1 5.04,1.32 5.07,-3.96 9.16,-4.3l-0.61 -4.84c-4.51,1.04 -2.52,0.14 -6.29,0.1 -2.58,-0.02 -4.17,1.06 -6.89,1.29 3.57,-5.33 6.06,0.24 6.2,-6.21 -2.14,0 -5.3,0.25 -7.17,0.18 -10.63,-0.39 -14.89,-5.8 -14.89,5.34 6.6,3.17 7.75,0 14.48,0 -0.85,2.28 0.46,0.32 -1.38,2.07z"/>
    <path class="fil0" d="M125.31 191.49c2.47,0.66 13.34,7.96 16.27,9.92 10.31,6.89 9.68,7.63 17.51,3.87 -1.94,-3.67 -9.46,-5.86 -17.11,-10.47 -2.99,-1.81 -6.03,-3.15 -9.09,-4.7 -3.82,-1.95 -7.06,-4.93 -7.58,1.38z"/>
    <path class="fil0" d="M402.44 202.52c1.38,2.06 2.03,3.42 4.14,4.83 5.44,-1.27 21.55,-14.46 27.57,-15.86 -2.22,-4.63 0.4,-6.09 -15.17,2.06 -5.4,2.83 -11.15,6.12 -16.54,8.97z"/>
    <path class="fil0" d="M190.11 223.2c3.51,-0.81 29.4,-16.61 29.64,-27.57 -6.11,4.09 -9.83,8.1 -14.99,13.27 -4.25,4.26 -11.61,9.76 -14.65,14.3z"/>
   </g>
   <path class="fil0" d="M299.62 142.52l6.18 2.4c2.66,-5.09 3.83,-22.57 5.25,-31.73 1.28,-8.29 2.93,-9.25 -3.75,-9.25l-7.68 38.58z"/>
   <path class="fil0" d="M209.41 427.26c0.8,-0.8 3.93,1.17 0.86,0.28 -0.08,-0.02 -2.05,0.92 -0.86,-0.28zm8.96 0c-2.07,-0.03 -0.46,-0.22 -2.2,-0.79 -1.93,-0.63 -0.82,-0.49 -3.24,-0.63 -2.05,-0.12 -4.83,0.04 -6.96,0.04 -0.46,1.12 -0.52,1.28 -0.88,2.19 -0.07,0.17 -0.24,0.6 -0.29,0.72l-0.21 0.54c-5.2,-1.21 -8.37,0.06 -11.72,-2.07 0.76,0 2,0.07 2.72,-0.04l1.62 -0.44c0.12,-0.04 0.34,-0.12 0.48,-0.21 -8.44,-0.7 -1.11,-0.51 -8.46,0.55 -2.69,0.39 -5.73,-0.55 -9.46,-0.55 -1.18,2.85 1.4,2.76 -4.14,2.76l8.28 0.69c-0.92,1.37 -1.26,1.91 -2.07,3.44l0.9 -0.53c2.15,-1 -1.68,-0.84 2.49,-0.74 2,0.04 1.82,0.79 3.66,1.03l8.8 -1.14c-3.36,-0.89 -0.6,-1.27 -4.04,-1.27 -1.68,0.01 -2.06,0.59 -4.92,0.59 4.3,-2.99 14.11,-0.69 18.61,-0.69l0 -2.07c1.32,0 1.94,-0.16 2.59,0.26 2.04,1.36 0.24,-0.23 -0.06,0.5 -0.81,1.91 -1.03,-1.24 -0.46,0.62 2.17,1.03 8.81,1.65 11.03,-1.38 -3.92,0 -0.8,0.28 -2.07,-1.38z"/>
   <path class="fil0" d="M230.78 376.24c2.45,-1.64 4.05,-4.96 4.14,-8.96l-2.07 0c-0.9,3.87 -2.07,3.39 -2.07,8.96z"/>
   <path class="fil0" d="M202.52 343.15c1.29,-0.86 1.42,-1.07 2.6,-2.22 1.64,-1.6 1.62,-1.04 2.22,-3.29 -2.67,0.71 -2.57,1.94 -4.82,3.45l0 2.06z"/>
   <path class="fil0" d="M225.96 421.74l0.69 0c0,-2.32 0.69,-2.2 0.69,-5.51 -2.15,1.57 -1.38,1.84 -1.38,5.51z"/>
   <path class="fil0" d="M183.22 385.21c-1.64,1.09 -0.72,0.83 -2.76,1.38l0 1.37c1.82,0.49 0.57,-0.05 2.07,0.69 0.15,-1.86 0.32,-1.87 0.69,-3.44z"/>
   <path class="fil0" d="M382.45 429.33c3.21,0 0.92,-0.69 4.13,-0.69l-6.2 -0.69c0.12,0.11 0.3,0.12 0.36,0.33 0.04,0.15 0.68,1.05 1.71,1.05z"/>
   <path class="fil0" d="M199.07 357.63c-1.34,-1.17 0.73,0.43 -1.11,-0.95 -0.77,-0.58 -1.03,-0.7 -1.65,-1.12 0.67,2.49 0.07,1.85 2.76,2.07z"/>
   <path class="fil0" d="M279.04 308c0.26,-0.2 0.8,0.03 1.11,-1.02 0.83,-2.87 -0.1,-1.23 -0.42,-1.74l-0.69 2.76z"/>
   <path class="fil0" d="M217 361.08l0.2 -0.21c-0.01,0.02 -0.27,0.14 -0.2,0.21z"/>
   <polygon class="fil0" points="204.59,410.02 205.38,408.68 "/>
   <polygon class="fil0" points="203.9,344.53 204.69,343.19 "/>
   <polygon class="fil0" points="202.52,343.15 201.83,343.84 "/>
   <polygon class="fil0" points="287.31,301.1 286.62,301.79 "/>
   <polygon class="fil0" points="203.9,344.53 203.21,345.22 "/>
  </g>
 </g>
</svg>
