<?xml version="1.0" encoding="UTF-8"?>
<!DOCTYPE svg PUBLIC "-//W3C//DTD SVG 1.1//EN" "http://www.w3.org/Graphics/SVG/1.1/DTD/svg11.dtd">
<!-- Creator: CorelDRAW 2017 -->
<svg xmlns="http://www.w3.org/2000/svg" xml:space="preserve" width="50.7998mm" height="33.8666mm" version="1.1" style="shape-rendering:geometricPrecision; text-rendering:geometricPrecision; image-rendering:optimizeQuality; fill-rule:evenodd; clip-rule:evenodd"
viewBox="0 0 5079.98 3386.66"
 xmlns:xlink="http://www.w3.org/1999/xlink">
 <defs>
  <style type="text/css">
   <![CDATA[
    .fil1 {fill:#BDBFC1}
    .fil0 {fill:#00A1C7}
    .fil2 {fill:#B9DEE5}
   ]]>
  </style>
 </defs>
 <g id="Capa_x0020_1">
  <metadata id="CorelCorpID_0Corel-Layer"/>
  <g id="_1689552677152">
   <path class="fil0" d="M2418.48 1112.92c32.96,-16.1 4.17,0.76 28.98,-18.84 35.08,-27.72 36.68,-44.54 96.45,-37.05 9.83,70.61 -64.56,131.84 -112.87,155.09l-25.65 -19.26 40.14 -19.98c-25.72,-19.47 -24.46,-16.68 -55.86,-17.54 48.27,-36.67 23.13,-8.01 28.81,-42.42zm0 0c-29.89,9.94 -51.35,30.7 -70.4,55.76l27.35 76.78 -101.97 -7.93c1.89,1.66 -1.11,5.08 20.25,13.16 1.41,0.53 26.8,7.22 26.94,7.25 39.76,7.89 29.28,5.81 67.49,2.19 31.2,62.15 22.65,42.03 50.5,51.46 -0.51,-27.48 10.72,-12.84 -10.44,-29.01l-27.36 -33.88c1.94,-0.96 4.89,-1.98 6.06,-2.37 1.27,-0.41 5.05,-1.76 6.69,-2.3l49.63 -19.78c33.2,-17.26 34.36,-10.48 54.56,-37.84 107.57,-145.74 -0.69,-151.65 -20.11,-162.59 -26.32,22.55 -15.07,4.74 -44.82,39.96 -27.12,32.11 -21.53,13.43 -34.37,49.14z"/>
   <path class="fil0" d="M2003.9 1233.51c34.66,36.49 119.28,-50.78 187.07,-67.13 20.12,44.72 38.24,72.52 82.49,71.15 -1.55,-2.79 -3.44,-6.59 -4.6,-8.37l-15.04 -21.38c-25.1,-28.56 -52.78,-29.21 -52,-91.69 81.04,-11.81 71.14,40.92 127.87,-4.57 -26.78,-41.78 -24.8,-26.11 -68.97,-36.31 -42.99,-9.93 -12.42,-1.78 -25.26,-9.42 53.71,-21.48 76.16,-34.07 138.42,-26.2 11.88,6.62 -18.25,-2.31 0,31.55 3.33,-2.23 66.03,-82.94 123.79,-47.32 19.22,-7.51 27.56,-8.09 42.49,-21.15 22.28,-19.51 7.21,-0.7 17.38,-29.46 -67.53,7.82 -135.77,34.42 -206.63,41 -85.96,7.98 -127.21,18.48 -180.32,64.77 4.41,41.77 14.97,32.75 19.74,83.39 -114.09,-30.04 -98.65,49.48 -186.43,71.14z"/>
   <path class="fil0" d="M1069.06 2111.63c-46.33,32.2 1.25,38.6 -82.28,78.79 -147.16,70.81 -479.25,212.97 -596.5,296.27 -78.97,56.1 -66.08,17.1 -163.51,111.36 -31.18,30.18 -28.59,21.17 -36.28,61.86 37.64,-20.05 39.55,-32.61 70.26,-62.43 19.9,-19.33 42.81,-39.1 77.28,-43.73 56.2,-69.81 440.74,-249.35 559.43,-290.53l21.11 -4.06c12.93,-14.16 162.2,-87.8 196.93,-108.06 62.21,-36.3 131.29,-90.32 200.89,-116.09 10.27,-38.6 -17.58,-18.81 26.98,-25.81 31.06,69.97 -0.97,45.4 14.82,128.11 2.28,-4.03 6.41,-8.22 7.97,-11.37 1.44,-2.9 4.46,-8.53 5.82,-11.44 1.22,-2.58 3.34,-18.99 3.27,-22.8 23.09,-133.09 -13.9,-315.05 13.84,-407.43 63.42,15.26 96.43,76.84 162.42,112.35 -21.08,-40.26 -13.42,-23.04 -40.75,-44.99l-153.25 -165.57c-71.71,-98.77 -42.58,-174.98 -94.17,-204.43 -16.57,35.21 -9.69,27.22 16.96,99.54l44.69 136.49c17.72,42.78 23.66,164.49 22.16,211.5 -3.74,117.78 -32.08,129.48 -100.97,176.54 -52.66,35.98 -55.95,72.5 -177.12,105.93z"/>
   <path class="fil1" d="M2539.12 2009.29c46.87,-68.53 340.31,-147.45 309.12,93.43 -72.98,-27.97 -262.81,-45.38 -345.62,-36.95l36.5 -56.48zm-201.22 67.07c8.21,-15.61 7.6,-15.58 18.07,-34.38 90.43,-162.33 108.6,-107.43 192.97,-87.87l-15.59 10.82c-1.92,1.71 -5.02,3.91 -6.99,5.91 -47.98,48.78 8.98,45.23 -64.43,76.12 -52.05,21.91 -66.4,30.9 -124.03,29.4zm13.74 -87.11c2.56,-66.51 20.44,-85.26 99.8,-81.95 -53.54,23.97 -37.22,11.08 -57.75,36.18 -15.26,18.65 3.04,11.52 -42.05,45.77zm319.67 -169.01c130.73,0.97 59.73,3.95 174.84,-27.34l-36.24 42.94c-17.83,11.82 -35.53,6.67 -29.13,7.37l-1.66 87.52 -86.46 -13 -21.35 -97.49zm-159.33 -501.53c-20.51,105.79 -109.77,207.91 -34.06,350.49 33.33,62.76 46.05,93.66 97.15,122.94 65.1,37.29 92.31,37.41 100.13,121.45l-95.54 37.07c-43.03,-26.19 9.92,-9.41 -92.98,-49.51 -47.28,-18.42 -65.13,-16.74 -121.12,-1.41 -26.3,31.18 -34.11,27.42 -37.56,92.73 -0.65,19.46 -1.35,36.98 0.21,45.1 -4.57,5.06 -11.86,7.24 -13.24,7.56 -1.38,0.32 -10.3,-2.26 -13.93,-3.41 -24.55,59.05 -41.67,66.57 -94.6,103.48 -77.37,53.94 -69.24,72.49 -107.05,81.28 -26.7,52.61 -29.11,12.55 -43.61,73.09 31.16,-39.08 44.36,-46.1 84.95,-66.79 44.83,-54.49 278.88,-174.24 334.58,-170.8 83.43,5.15 -30.74,3.55 40.48,14.25 92.74,13.93 178.13,10.72 270.31,30.26 99.26,21.03 122.32,56.2 134.93,165.31 2.03,-3.21 14.39,-12.78 23.13,-23.62 -12.29,-28.28 -17.06,-58.62 -32.47,-85.53 -23.47,-40.96 -32.3,-25.13 -39.1,-70.19 -28.7,-189.96 15.01,-83.34 -81.06,-169.27 11,-78.16 62.81,-150.4 128.58,-156.38 55.64,-97.31 96.69,-261.11 31.69,-375.83 -26.17,-46.19 -6.88,-17.34 -27.59,-26.16 -6.34,48.14 31.36,101.27 36.97,162.21 6.87,74.71 -9.06,94.67 -21.07,155.44 -1.95,24.17 -0.77,38.63 -23.76,60.17 -24.47,22.91 -20.56,17.03 -62.26,31.88 17.75,-58.25 -11.03,-19.57 33.79,-56.89l-39.76 3.56c-4.44,12.22 -0.45,20.32 -40.34,41.36l-45.27 34.83c-41.85,-34.68 -33.84,50.37 -34.3,-55.36l-39.13 3.13c-18.67,29.98 42.36,8.65 -29.34,28.28 -50.66,-109.64 -14.34,49.48 -62.42,-79.24 -41.63,48.32 -30.19,-29.38 -35.14,57.58 -0.16,-2.55 -14.6,-53.51 -19.45,-65.42 -24.98,-61.36 2.44,-37.65 -20.95,-83.01l-14.16 68.54c-54.13,-92.2 -32.06,-171.9 2.21,-278.33 13.45,-41.75 9.32,-47.3 39.61,-53.45 -23.16,-36.39 48.74,-26.65 -23.78,-24.25l-13.68 2.86z"/>
   <path class="fil0" d="M2762.31 1170.31l-34.17 57.72 -88.8 19.6c48.47,-29.39 33.3,-23.7 66.18,-71.02l56.79 -6.3zm-28.51 -548.02c2.97,1.92 6.9,3.81 9.51,4.69l30 8.4c14.78,1.99 19.19,-0.96 32.44,-2.4l69.46 261.11c-111.67,4.02 -177.12,6.44 -272.74,51.02 -16.4,16.41 26.19,20.79 -31.4,10.52l-13.53 17.58c39.18,-3.96 116.04,-4.02 163.48,-16.05 -0.93,-51.3 -48.61,0.04 -15.61,-24.05 133.74,-33.15 214.41,-22.17 343.41,-16.52 122.65,5.38 237.15,2.66 256.38,123.04 -110.32,-9.29 -244.49,-30.53 -354.89,-1.21 -82.33,21.86 -149.4,120.9 -222.03,119.83 -0.89,-1.94 -1.36,-5.13 -1.46,-6.24 -0.11,-1.16 -1.03,-5.09 -1.09,-6.56l-16.71 -23.87c-29.43,51.05 -35.29,70.13 -77.37,98.46 -29.08,19.57 -59.04,27.74 -57.53,65.67 1.83,45.8 -30.07,4.9 12.83,20.15 20.5,-28.09 2.43,-7.56 41.56,-16.23l-16.63 47.23c46.09,1.51 57.47,9.91 104.78,15.07 53.11,5.8 87.13,-5.32 136.29,-6.3 -47.71,-32.53 -26.2,-12.65 -113.61,-6.76 -16.49,1.12 -36.99,1.35 -51.85,-1.17l-58.62 -25.51c36.65,6.68 74.15,15.56 111.53,15.7 60.28,0.23 74.25,-2.18 98.27,-44.03l-151.24 -13.29c51.54,18.32 125.34,-45.49 186.42,48.26 34.32,52.66 22.02,38.99 50.36,45.99 -5.3,-44.02 -38.81,-82.32 -72.07,-104.09 -56.54,-37 -78.15,-22.2 -95.71,-34.89 28.47,-21.36 31.59,-72.54 127.67,-130.63 118.24,-71.49 285.84,-45.96 425.59,-37.82 77.03,4.48 177.69,3.95 178.27,71.8l19.32 -8.81c-34.98,-76.72 -102.31,-73.28 -199.65,-80.14 16.98,-86.64 -38.11,-99.62 -84.07,-129.63l-331.44 -19.88c34.6,-108.61 -72.29,-225.32 -57.52,-284.73 -36.27,-18.51 50.8,-8.43 -23.17,-1.98 -4.49,0.4 -21.32,4.34 -27.36,5.78 -16.12,3.87 -33.74,8.93 -50.27,12.49z"/>
   <path class="fil0" d="M1446.25 2462.03c-21.57,2.8 -42.3,3.05 -64.16,-21.1 -1.49,-1.64 -3.49,-4.35 -4.83,-6.18 -79.08,-107.77 2.58,-135.08 -9.91,-225.24l79.82 193.07c21.58,57.23 2.45,53.78 -0.92,59.45zm-129.86 -427.02c64.92,-5.81 16.43,-4.8 35.17,10.9 -4.9,72.88 -5.41,185.01 -15.87,246.59 -6.15,36.18 -32.61,54.38 -43.98,80.66 -26.8,62.01 22.45,19.47 -27.59,86.98 -35.86,-11.95 -13.29,1.15 -23.64,-21.47 -23.33,32.04 -28.46,14.84 -40.38,47.07 44.63,-3.06 15.59,-11.52 74.67,3.96 11.92,-19.47 11.05,-32.41 35.28,-53.52 3.08,-2.68 16.66,-10.3 19.88,-12.34 20.23,24.23 10.09,41.89 53.3,51.91 1.9,0.44 5.36,0.65 7.39,1l68.79 7.7c51.52,92.38 82.77,191.09 127.71,287.64 37.39,80.32 25.96,52.09 79.66,104.68 36.88,36.13 73.24,60.75 118.08,83.14 -15.13,-56.7 -31.82,-34.48 -67.89,-76.43 -14.82,-17.24 -3.25,-9.47 -24.31,-33.35 -75.49,-85.6 18.7,-3.52 -31.85,-62.67 -64.24,-75.18 16.61,65.61 -21,-18.46 -20.47,-45.76 39.12,31.01 -56.21,-126.58 -27.08,-44.77 -44.56,-91.53 -69.87,-127.8 23.03,-39.64 -39.43,22.56 19.41,-8.42 -47.24,-41.47 -27.47,0.26 -55.13,-77.32 -35.02,-98.23 -19.56,31.44 -77.83,-198.76 -7,-27.65 -16.45,-46.37 -17.77,-51.67 -6.26,-25.05 -3.12,-52.19 -7.16,-86.75 0.07,3.81 -2.05,20.22 -3.27,22.8 -1.36,2.91 -4.38,8.54 -5.82,11.44 -1.56,3.15 -5.69,7.34 -7.97,11.37 -15.79,-82.71 16.24,-58.14 -14.82,-128.11 -44.56,7 -16.71,-12.79 -26.98,25.81z"/>
   <path class="fil0" d="M1714.02 1933.27c5.51,10.02 -4.15,8.86 24.4,31.48 8.44,6.69 24.89,14.02 38.2,21.1 29.48,23.89 93.07,49.98 140.94,49.23 73.18,-1.15 -14.69,-30.68 77.98,-0.1 23.68,7.81 40.55,10.53 55.62,21.89 -45.27,11.99 -63.27,-0.72 -112.57,-7.54 65.22,50.69 101.01,34.85 183.79,44.86l21.47 -17.05c40.32,-15.08 78.6,3.64 167.63,-64.63l-10.44 29.21c3.63,1.15 12.55,3.73 13.93,3.41 1.38,-0.32 8.67,-2.5 13.24,-7.56 -1.56,-8.12 -0.86,-25.64 -0.21,-45.1 -68.86,35.62 -155.46,66.78 -265.91,31.95l70.35 -6.63c-114.61,-27.39 -131.7,-12.55 -202.37,-85.51 -81.43,-84.07 -52.37,-77.68 -103.25,-169.63 -19.15,20.4 -5.81,-4.08 -15.95,24.8 -1.03,2.94 -2.78,11.75 -2.68,14.46 0.7,19.69 1.74,5.91 8.31,16.95 0.9,1.52 3.48,3.92 4.48,5.5 55.47,87.1 18.34,133.88 96.76,187.44 -39.41,4.49 -57.54,-1.87 -84.25,-16.62 -31.55,-17.43 -82.99,-55.57 -119.47,-61.91z"/>
   <path class="fil0" d="M1878.14 1368.95c85.59,0.78 52.31,-20.11 121.87,1.07 64.37,19.6 74.59,14.05 139.98,11.15l-25.1 78.53c-26.43,-12.04 -40.39,-24.03 -71.99,-26.81 38.98,30.27 43.14,18.35 74.35,36.59 27.17,15.87 25.99,31.97 60.55,51.41 -32.64,-61.75 -53.84,-70.17 -7.64,-144.07 61.72,-9.34 74.62,26.57 125.87,47.34 -9.9,-12.03 -6.22,-8.38 -19.13,-20.16 -98.48,-89.84 -93.83,-15.03 -76.17,-186.99 -104.75,36.16 -87.13,5.78 -150.74,50.45 -29.28,20.57 -107.73,96.07 -151.71,72.51 -42.42,19.27 -6.92,-11.26 -20.14,28.98z"/>
   <path class="fil0" d="M2428.2 1282.58c21.16,16.17 9.93,1.53 10.44,29.01 9.54,8.43 3.47,12.89 38.06,17.35 45.95,5.93 28.98,-3.04 35.28,-10.23l13.68 -2.86c72.52,-2.4 0.62,-12.14 23.78,24.25 21.01,-9.34 28.7,-11.21 61.7,-14.19 -30.48,-57.2 9.97,-13.63 -24.19,-20.05 -42.9,-15.25 -11,25.65 -12.83,-20.15 -1.51,-37.93 28.45,-46.1 57.53,-65.67 42.08,-28.33 47.94,-47.41 77.37,-98.46 -39.7,17.6 -31.23,10.37 -39.2,50.67l-24.23 -43.12c-15.28,82.56 -29.58,71.28 -95.39,101.19 -42.68,19.41 -29.03,23.05 -62.35,32.5 -31.32,8.89 -30.67,-1.25 -59.65,19.76z"/>
   <path class="fil0" d="M2395.37 1680.32c-11.36,-41.79 9.75,-3.58 -23.7,-32.05l-132.79 -94.23c-30.89,-22.03 -24.05,-21.64 -61.08,-33.15 24.2,41.39 38.88,31.79 65.02,53.28 33.23,27.32 8.36,5.01 22.6,28.92 -43.62,15.52 -60.68,3.68 -95.4,33.39 55.51,-2.11 89.37,8.15 123.84,-21.87 43.48,36.59 28.97,52.46 101.51,65.71z"/>
   <path class="fil0" d="M1720.68 3166.19c32.62,-23.11 23.26,19.12 32.11,-23.76 19.26,-17.81 67.53,-78.34 75.94,-98.95 15.41,-37.77 -2.79,-21.42 12.67,-53.5 14.32,-29.71 19.52,-26.25 31.98,-63.8 -2.04,-0.94 -5.4,-4.82 -6.11,-2.84 -0.69,1.93 -5.14,-2.28 -6.05,-2.61l-17.56 -5.99c21.32,-33.73 32.82,-38.96 36.99,-80.55 -25.41,14.91 -55.43,80.96 -72.72,112.3 -23.58,42.74 -45.67,83.08 -66.75,116.87l24.48 11.43c-36.18,32.86 -37.73,36.86 -44.98,91.4z"/>
   <path class="fil0" d="M1710.81 2745.76l30.01 3.16c22.97,5.38 38.66,-49.69 71.76,-94.97 26.39,-36.08 3.93,-12.63 30.43,-28.58 11.03,-44.91 22.82,-44.69 58.61,-87.22 20.26,-24.08 39.4,-65.49 59.35,-89.09 -12.03,-8.86 8.92,-12.69 -16.2,-6.49 -30.67,7.57 3.11,-7.48 -12.86,10.34l1.9 -12.22c-37.73,6.8 -5.35,-17.15 -41.19,19.73l-88.97 116.85c-28.93,33.57 -85.77,111.86 -92.84,168.49z"/>
   <path class="fil0" d="M2854.85 2861.6c-39.96,58.05 -74.94,19.94 -111.61,19l111.61 -19zm-374.42 -183.9l41.53 -5.04c-8.64,24.67 12.49,29.97 -21.56,27.59 -30.77,-2.15 -15.77,-9.83 -19.97,-22.55zm52.66 -28.57c78.67,1.14 70.53,61.51 -11.64,71.3 14.68,-30.27 25.99,-39.49 11.64,-71.3zm-57.38 99.81l-1.69 -34.69c65.53,46.62 111.35,37.39 143.49,-36.55 -54.1,-74.01 -48.33,-50.94 -132.4,-25.88 22.07,-48.32 3.55,-14.99 48.82,-48.4 77.04,22.6 82.89,30.35 84.82,107.03l-56.92 58.01 -78.14 -16.53c-1.61,-0.68 -5.25,-2.2 -7.98,-2.99zm140.11 -186.06c149.39,-89.87 58.97,-21.15 268,-83.03 1.22,50.57 21.01,39.65 -52.25,48.94 -34.75,4.4 -43.17,7.28 -76.58,14.59 -111.16,24.34 -93.18,35.41 -139.17,19.5zm-189.16 49.04c-10.38,78.73 -22.68,69.2 -8.42,163.27 23.44,13.27 26.36,17.75 48.11,32.92 -16.35,-40.59 -44.2,-24.68 -35.58,-129.82 7.03,-85.78 47.04,-36.31 57.49,-106.87 128.8,4.38 101.08,-7.65 130.62,46.88 -91.96,-50.39 -50.38,-41.1 -141.07,-16.74 -7.41,58.98 -26.28,79.31 -24.49,111.83 3.47,62.7 4.9,30.98 22.39,35.55l39.13 43.08 -25.47 13.99c-2.75,1.87 -6.93,5.2 -9.46,6.97 -2.66,1.87 -6.5,5.09 -9.7,7.7l113.5 -4.95c145.72,-31.39 82.88,-206.86 80.23,-221.39 38.13,-12.27 198.65,-65.15 233.09,-27.96 34.28,37.02 22.21,153.34 -27.6,161.65l-141.9 31.43c-60.44,11.7 52.94,6.29 -31.8,-9.4l-14.1 27.61c-11.47,17.05 5.53,8.52 -17.97,19.71l194.72 -45.21 -3.53 109.43c-53.18,-43.33 -105.47,33.73 -249.44,-17.08 -18.49,-3.93 -15.38,-10.21 -37.88,-4.88 -75,17.8 -14.81,-2.2 -44.54,27.04 58.13,-3.69 108.82,18.25 155.62,33.6 77.72,25.48 -4.37,-21.93 115.72,28.38 0.04,54.08 -2.04,129.67 -66.57,143 -68.57,14.15 -194.55,-5.34 -273.79,-9.66 35.07,28.95 31.82,15.98 83.44,23.36 -22.75,-2.11 -47.82,9.2 -72.83,15.42 -14.29,3.56 -19.83,3.46 -21.75,2.26 -29.13,-18.19 7.83,18.71 -7.23,-13.55l-5.58 -14.55c-23.38,30.6 -101.25,90.36 -162.87,162.86 -39.99,47.04 -185.8,170.06 -207.75,214.7l48.2 -32.12c2.22,-0.82 6.09,-4.09 6.91,-1.56 0.72,2.26 5.29,-0.8 6.28,-0.49l25.59 14.92c0.69,-36.97 5.2,-52.41 30.16,-73.2 23.25,-19.36 40.74,-23.03 76.58,-13.78 59.27,15.28 90.76,63.92 158.14,32.35 -61.76,-8.7 -144.73,-29.79 -193.68,-59.86 57.46,-34.39 82.78,-70.07 135.34,-125 144.2,-150.71 203.21,2.4 400.38,-102.23 29.83,-15.82 38.45,-35.42 50.97,-76.2 13.57,-44.18 10.57,-76.48 9.93,-100.35 137.06,-17.36 14.17,-142.7 135.51,-215.49 -1.56,-46.7 22.87,-51.36 5.66,-100.4 -9.29,-26.48 -41.85,-62.66 -41.88,-79.25 -0.01,-1.25 0.36,-4.6 0.59,-5.87l4.85 -12.11c23.99,-48.5 76.39,-84.75 36.49,-196.65 -3.68,-2.69 -19.39,-13.66 -32.86,-20.92 -41.81,0.67 -301.35,-65.98 -403.36,43.65 85.31,-17.2 103.61,-55.11 208.98,-53.26 68.82,1.22 161.37,14.26 208.61,43.15 20.12,36.49 23.99,108.71 -20.91,131.29 -18.08,38.17 4.98,3.32 -39.21,10.53 -98.38,16.05 4.25,25.81 -216.93,26.99 -23.74,96.94 -68.71,5.77 -177.38,80.96l-41.23 32.04c-1.66,1.37 -6.01,8.23 -7.22,6.09 -1.21,-2.17 -4.77,4.21 -7.25,6.19z"/>
   <path class="fil0" d="M2854.85 2861.6l-111.61 19c36.67,0.94 71.65,39.05 111.61,-19z"/>
   <path class="fil0" d="M3603.39 1760.35c26.65,-34.62 27.54,-33.75 38.41,-78.58 26.25,-108.18 -48.57,-145.76 -22.35,-261.74 5.29,-23.39 12.2,-26.38 16.1,-49.09 -41.37,46.93 -53,111.57 -23.65,192.54 43.08,118.82 2.92,129.12 -8.51,196.87z"/>
   <path class="fil0" d="M4459.72 1747.52c131.16,-47.31 219.55,41.22 228.54,161.77 17.08,-212.72 -245.29,-237.73 -228.54,-161.77z"/>
   <path class="fil0" d="M4144.03 1251.89c73.96,-110.27 78.55,-110.44 234.92,-136.34 -69.96,-56.56 -240,58.96 -234.92,136.34z"/>
   <path class="fil0" d="M3975.38 2951.19c66.42,45.57 202.91,59.6 217.96,-2.59 -169.8,53.67 -153.23,-7.35 -217.96,2.59z"/>
   <path class="fil0" d="M4086.92 2557.39c-7.72,12.82 -10.15,9.48 -6.63,29.51 13.81,78.64 213.4,231.97 438.06,142.36 -84.9,6.41 -135.06,32.57 -248.76,-11.93 -81.9,-32.05 -148.47,-73.86 -182.67,-159.94z"/>
   <path class="fil2" d="M4172.69 2762.42c34.49,27.56 102.73,46.72 151.15,51.39l47.51 6.52c2.2,-0.32 2.99,1.12 4.4,1.85 -14.8,68.25 -99.02,160.37 -200.43,185.8 -98.7,24.74 -198.82,-11.04 -251.99,-54.06 18.84,-35.81 54.34,-45.09 55.96,-80.54 -35.59,17.23 -135.05,163.32 -306.01,112.74 -118.61,-35.11 -158.01,-97.66 -189.1,-250.09 59.29,-29.05 88.62,-35.26 138.76,-78.22 91.85,-78.68 24.88,-83.39 90.37,-89.67 18.53,74.57 77.03,114.73 145.07,98.6 85.98,-20.38 100,-81.63 125.74,-128.37 70.45,171.18 123.77,170.74 161.87,215.43 -138.79,79.46 -209.71,50.05 -299.2,-29.23 27.3,61.55 90.16,93.56 139.18,102.32 112.53,20.1 157.32,-45.54 186.72,-64.47zm-358.05 -1598.37c-67.03,33.55 -103.71,28.48 -169.64,82.42 -86.84,71.06 -131.42,169.79 -103.72,281.12 21.83,87.71 32.04,92.01 14.48,170.6 -12.49,32.72 -37.36,73.13 -85.6,94.08 -115.3,50.11 -117.5,-89.7 -218.05,-93.78 -23.23,-0.95 -49.31,4.9 -71.01,18.62 -18.24,11.53 -35.78,31.73 -40.04,52.44 24.57,8.2 47.39,3.61 62,33.12 33.17,66.97 -53.69,124.58 -10.31,228.44 6.04,-16.09 3.51,-1.38 0.75,-22.41 -7.4,-56.53 -8.43,-76.92 17.46,-131.7 47.15,-99.77 -12.78,-111.13 -45.43,-136.36 129.31,-89.96 155.87,18.68 211.76,62.49 73.74,57.82 173.8,-25.01 202.05,-90.88 63.01,-146.96 -134.2,-281.51 102.94,-462.61 217.28,-165.91 523.89,32.74 422.4,222.62 -30.56,57.15 -48.42,26.87 -113.16,46.9 -92.05,28.47 -163.83,110.27 -161.65,176.87 29.34,-29.25 43.9,-67.88 81.55,-100.75 71.69,-62.57 199.11,-73.3 276.2,-25.07 46.88,29.31 63.57,69.17 99.84,96.46 -54.19,-111.18 -126.01,-123.38 -183.91,-154.05 -1.3,-0.69 -3.47,-2.09 -4.53,-2.68 -1.08,-0.6 -3.07,-1.82 -4.56,-2.8 100.38,-87.7 21.66,-172.64 13.08,-225.1 -12.77,-78.08 136.59,-232.36 322.47,-206.01 87.49,12.41 198.31,71.91 243.08,182.79 37.48,92.87 23.45,196.05 -35.64,268.22 -18.24,22.27 -20.94,11.08 -18.6,35.68 25.26,6.64 53.96,-1.16 81.8,6.44 194.4,53.02 205.28,401.87 74.34,501.55 -20.96,-28.73 -63.63,-62.56 -57.2,-97.91 28.21,-155.14 -53.17,-293.01 -172.38,-284.73l34.68 17.19c99.88,42.53 139.36,132.11 123.39,240.33 -15.25,103.36 -79.4,181.07 -211.34,230.71 23.68,4.27 54.73,-8.43 76.64,-18.89 23.35,-11.14 41.63,-23.66 61.34,-41.26 47.98,-42.85 50.74,-70.47 78.3,-101.93 340.95,369.02 -69.52,908.13 -474.49,746.1 -223.28,-89.34 -199.28,-262.51 -247.42,-321 -39.56,7.58 -22.88,64.45 -32.29,95.91 -22.31,74.57 -100.4,134.68 -173.76,91.7 -56.74,-33.24 -29.49,-63.73 -48.13,-107.58 -31.86,15.07 -0.26,7.33 -28.16,21.36 -22.15,11.14 -11.21,1.3 -36.83,6.91 -12.96,55.62 -26.4,77.94 -83.23,116.82 -138.55,94.75 -330.35,79.55 -441.19,-38.22 -175.19,-186.15 -85.39,-453.42 111.98,-534.35 5.58,65.52 -86.06,47.93 -136.73,157.62 -26.97,58.36 -45.93,139.64 -12.41,224.71 8.48,-77.82 -38.56,-236.07 141.57,-313.02 15.78,80.5 21.75,145.89 80.75,204.5 -6.63,-45.68 -49.36,-91.56 -52.78,-176.72 -4.7,-117.26 47.06,-211.77 153.78,-262.34 75.45,-35.77 117.61,-27.91 176.87,-13.82 -34.05,-41.67 -115.6,-39.64 -180.47,-14.68 -65.84,25.34 -113.48,75.09 -137.26,121.51 -31.55,61.6 -73.98,42.3 -151.2,113.09 -149.69,137.24 -149.43,366.78 -12.17,509.81 136.13,141.84 254.96,92.88 328.65,103.14 13.95,132.4 51.99,190.29 146.33,247.02 78.98,47.5 178.92,37.45 291.91,-18.74 68.98,35.64 126.87,104.71 286.4,62.42 86.24,-22.86 149.81,-79.97 195.41,-149.19l23.5 -60.15c0.39,-1.38 1.17,-3.83 1.5,-4.96 0.34,-1.15 0.95,-3.37 1.55,-5.01 330.88,-43 507.24,-321.98 438.72,-600.88 -13.72,-55.86 -38.72,-89.39 -53.43,-135.08 172.71,-193.84 111.71,-452.86 -45.81,-530.37 -35.44,-17.44 -50.31,-11.39 -80.2,-22.6 36.35,-84.96 64.98,-151.23 38,-252.76 -50.85,-191.41 -258.46,-278.59 -437.79,-211.47 -48.41,18.11 -87.32,45.79 -117.99,79.42 -38.63,42.36 -37.14,64.67 -61.57,105.15 -56.66,-23.54 -67.64,-73.43 -185.01,-83.63 -26.97,-2.35 -58.87,5.93 -80.38,-0.79z"/>
   <path class="fil0" d="M2248.07 953.46c-1.61,-24.45 19.32,-29.64 45.1,-70.58 -15.94,-14.34 -2.49,-8.1 -12.44,-34.24 -51.54,26.1 -29.09,24.29 -89.7,13.06l36.68 48.49c-22.27,32.41 23.57,4.74 -63.51,39.24 -2.5,0.99 -5.86,2.59 -8.06,3.57l-15.28 9.25c9.68,2.26 43.82,11.74 50.82,11.84 10.33,0.13 13.66,0.83 23.69,-1.63 28.59,-7.01 18.93,-7.97 32.7,-19z"/>
   <path class="fil0" d="M1944.94 932.42c73.52,-3.06 39.25,-11.85 91.38,-29.12l146.39 2.44c17.79,-60.26 19.54,-2.02 -46.63,-86.98l-12.24 36.39c-114.12,-13.17 -92.08,20.2 -169.6,52 -4.31,-94.44 13.44,-70.42 26.32,-114.47 17.15,-22.63 -15.36,-16.02 42.44,-40.34l-20.28 -7.26c-31.93,24.24 -19.74,15.66 -54.49,23.85 -4.34,43.36 -20.92,60.82 -22.84,80.61 -1.61,16.52 14.19,56.09 19.55,82.88z"/>
   <path class="fil0" d="M3094.1 1374.51c-32.78,15.08 -8.89,-12.08 -37.15,22.15 -16.31,19.75 -11.97,6.42 -4.5,41.48l18.12 59.74c29.88,52.52 95.37,32.39 153.75,40.04l-11.97 -26.98 53.2 -10.66c7.17,-8.75 9.24,-27.95 11.4,-34.37 -70.63,5.61 -25.89,5.21 -81.42,35.78 -84.62,46.6 -97.6,-14.45 -117.01,-63.08 44.19,-0.05 45.27,-1.67 72.74,24.28l12.04 -9.97c42.71,-36.94 61.39,-62.38 70.95,-116.67l-49.49 49.06c-19,27.63 -19.84,29.51 -23.07,65.91 -39.2,-13.26 -26.22,0.96 -74.52,-44.96 22.34,-15.99 5.78,2.29 6.93,-31.75z"/>
   <path class="fil0" d="M3094.16 1374.46c80.48,3.47 13.26,20.68 57.73,-24.63 28.77,-29.32 5.03,-19.44 58.09,-16.41 -12.1,-9.79 -5.61,-6.14 -25.14,-16.12 -2.45,-1.25 -6.38,-2.92 -8.83,-4.11 -2.39,-1.16 -6.65,-2.85 -8.67,-3.79 -2.01,-0.93 -5.91,-2.15 -8.72,-3.54 55.58,-12.4 21.74,-3.71 57.21,-48.54 24.29,-30.71 67.25,-37.95 48.12,-50.33 -50.07,22.6 -33.53,27.54 -71,61.65l-123.02 17.85c-142.14,24.77 -52.01,7.12 -111.21,1.83l-26.33 62.81c56.24,-22.45 19.06,-24.72 104.22,-32.09 51.42,-4.45 70.61,-16.62 118.81,-22.39 -25.79,32.06 -31.26,31.93 -61.26,77.81z"/>
   <path class="fil0" d="M2372.04 570.17l50.84 -4.22c-1.91,-2.31 -4.9,-9.6 -5.88,-7.55 -2.14,4.44 -8.28,-10.79 -11.25,-14.49 -62.3,-77.65 -21.6,-52.54 -63.34,-62.32 48.87,93.66 28.46,37.88 28.34,81.38 0,1.09 0.47,4.9 1.29,7.2z"/>
   <path class="fil0" d="M1346.35 206.14c42.46,-39.73 80.24,-48.88 153.95,-63.61 71.06,-34.69 206.53,-13.59 285.86,-3.88 54.06,1.68 100.74,-9.51 140.43,32.58 74.92,89.33 75.41,223.76 33.83,291.09 -3.54,5.71 -30.15,35.8 -31.58,37.12 -23.78,22.02 -11.63,10.74 -40.91,28.32 7.42,-48 26.7,-62.66 1.12,-98.02 -16.04,41.24 0.29,41.71 -33.83,88.9 -39.48,54.6 -24.87,52.33 -24.88,52.23 -0.01,-0.74 3.7,46.57 -153.95,52.1 -30.03,3.5 -102.8,6.5 -113.31,-22.15 -74.06,8.17 -99.36,-9.96 -150.14,-45.3 -13.08,-11.44 -13.72,-15.61 -25.51,-28.08 -13.3,-14.07 -18.93,-18.03 -29.72,-28.47 -28.21,-27.3 -20.1,-22.79 -40.74,-54.99 -25.02,-97.83 -55.95,-190.73 29.38,-237.84zm148.04 -83.85c-247.09,-16.3 -244.9,268.16 -509.8,265.68 -24.32,19.81 -22.37,17.94 -59.54,11.57 -31.39,13.11 -23.94,-2.09 -36.19,34.46 -4.5,59.92 8.34,19.8 -22.47,43.71 -21.53,16.7 -15.46,1.16 -17.71,-1.92 -4.48,29.56 -17.65,16.92 4.87,38.81l28.21 18.79c20.89,-2.67 31.84,-2.63 46.54,1.63 1.33,0.39 4.55,1.33 5.78,1.86 53.8,23.22 -0.52,63.9 57.76,134.59 -6.53,-41.59 -17.26,-58.11 -21.75,-108.63 -10.46,-8.97 -25.63,-59.25 -30,-77.51 87.69,-28.76 250.11,-105.64 335.78,-7.53 11.29,12.93 18.7,25.48 29.99,39.24l37.43 45.74 7.2 9.36c64.91,31.66 35.51,59.91 206.98,95.13 109.49,28.95 226.27,-6.97 319.23,-58.71 -57.5,83.96 -97.85,66.23 -152.57,105.55 108.04,-16.03 153.75,-74.43 234.1,-185.06 21.46,-29.53 40.53,-57.73 56.03,-82.38l1.34 64.48c45.2,34.81 2.74,48.83 22.06,95.38l7.5 -13.45c3.52,-16.9 2.43,-12.94 3.59,-29.79 0.78,-11.33 -1.03,-23.86 0.71,-34.83 3.05,-19.12 6.6,-21.37 10.19,-28.6 -10.11,-15.99 -2.15,-11.27 -24.43,-0.79 11.1,-103.58 -70.06,-98.78 71.09,-146.86l95.82 -30.12c-17.04,-15.48 -15.03,-14.77 -28.41,-32.07l37.68 -5.11c-13.09,-29.86 21.53,-14.89 -38.62,-29.6 -55,-13.44 -104.15,14.64 -146.55,22.14 -17.76,-36.9 -10.33,-85.24 -32.71,-116.27 -29.26,-40.56 -51.1,-11.58 -63.41,-85.47 -5.17,30.3 2.69,22.22 -13.04,31.56 -34.44,20.43 -16.84,-17.46 -37.91,-105.92 -24,-4.7 -235.74,-13.61 -287.29,-13.5l-38.29 8.61c-26.81,8.91 -2.19,3.74 -32.75,5.84 -13.66,0.94 -25.8,-1.04 -43.27,0.37 3.51,3.2 7.98,6.78 11.44,8.51 2.98,1.49 7.02,5.3 10.38,6.64 2.69,1.09 6.77,2.61 9.31,3.35l67.17 36.98c-31.22,87.65 45.08,-51.6 -14.78,13.56 -29.15,31.73 6.75,16.32 -38.73,44.63 -16.09,10.02 26.64,19.09 -27.96,5.95z"/>
   <path class="fil0" d="M2399.97 778.09c10.5,19.46 25.4,50.04 33.28,82.71 17.06,70.71 9.77,77.21 -51.78,81.19 -4.4,-17.81 -13.2,-68.15 -15.17,-87.75 -3.09,-30.72 -4.59,-18.28 6.65,-40.52l27.02 -35.63zm-238.77 -541.96c15.13,14.38 7.04,-16.22 13.02,29.05 2.5,18.97 -1.24,28.77 -0.8,46.15 0.8,31.29 6.13,50.78 11.82,79.91l53.31 119.71c37.87,33.12 45.27,30.4 63.38,86.07 82.07,64.83 77.75,221.49 -21.2,251.62 9.95,26.14 -3.5,19.9 12.44,34.24 -25.78,40.94 -46.71,46.13 -45.1,70.58 111,-94.85 81.21,-7.58 160.11,6.15 54.66,-27.88 55.76,-89.15 20.26,-153.77 -5.32,-9.69 -22.28,-32.86 -23.1,-34.49l-20.02 -133.81c51.19,-0.86 96.71,20.16 178.54,4.46 46.78,-8.98 139.35,-6.02 169.94,-19.71 16.53,-3.56 34.15,-8.62 50.27,-12.49 6.04,-1.44 22.87,-5.38 27.36,-5.78 73.97,-6.45 -13.1,-16.53 23.17,1.98l103 -72.69 -110.52 -8.27c-39,38.44 -94.15,43.31 -166.05,62.53 -3.76,0.6 -23.83,-0.41 -25.76,0.02 -52.84,11.63 49.72,18.2 -33.49,13.4 -76.63,0.36 -168.06,36.41 -239.51,-15.06 -41.63,-29.98 -110.42,-93.06 -107.76,-162.66 -37.73,-26.39 -28.04,-37.58 -29.75,-89.87 -12.77,-7.08 -17.09,27.78 -3.49,-26.45 -4.19,-34.62 -5.67,-72.28 -1.22,-108.18 6.1,-49.31 0.4,-36.05 34.88,-53.41 -21.54,-27.32 -18.17,50.07 -18.17,-37.16 33.76,-5.19 31.84,-6.72 54.58,-7.34 14.48,-0.4 22.12,0.77 39.26,-0.77l143.34 -25.24 -72.75 66.21c76.83,-48.41 144.07,-88.23 254.01,-88.32 46.2,-4.67 55.01,4.49 107.31,3.25l-29.51 -24.63c-37.31,-20.3 -158.21,8.8 -208.77,-23.28 25.97,-12.88 41.41,-13.29 73.45,-26.03 -60.99,9.25 -54.83,40.82 -112.46,46.04 26.86,-75.71 39.57,-60.42 97.85,-81.61 -42.92,-19.49 -116.61,-12.85 -176.39,-0.69l-124.95 41.35c-2.53,1.01 -6,2.5 -8.25,3.53 -2.28,1.04 -6.11,3.54 -7.93,4.46 -1.86,0.95 -6.3,7.65 -7.62,5.29 -11.52,-20.5 -21.45,66.53 -22.05,68.8 -19.62,74.39 -66.15,26.93 -74.68,166.91z"/>
   <path class="fil0" d="M2035 701.43l-26.75 29.71 -5.53 13.94 20.28 7.26c-57.8,24.32 -25.29,17.71 -42.44,40.34l39.3 -7.99c35.9,-35.36 17.88,-34.74 70.91,-32.23 -9.69,-45.6 -5.36,-97.85 3.82,-130.13l-21.79 -2.09c-18.73,22.08 -17.56,18.14 -27.93,45.04l-9.87 36.15z"/>
   <path class="fil0" d="M2015.6 511.15l-35.86 120.22c12.39,5.43 -0.07,7.87 20.62,5.55 0.21,-0.03 20.22,-5.99 26.31,-8.39l8.33 72.9 9.87 -36.15c10.37,-26.9 9.2,-22.96 27.93,-45.04 -28.96,-0.63 -6.7,-13.42 -5.87,-44.37 0.91,-33.77 -3.4,-40.55 -7.28,-76.01 -3.59,7.23 -7.14,9.48 -10.19,28.6 -1.74,10.97 0.07,23.5 -0.71,34.83 -1.16,16.85 -0.07,12.89 -3.59,29.79l-7.5 13.45c-19.32,-46.55 23.14,-60.57 -22.06,-95.38z"/>
   <path class="fil0" d="M2301.93 597.02c-18.11,-55.67 -25.51,-52.95 -63.38,-86.07l33.03 96.17c6.03,-1.2 10.84,-3.66 11.66,-1.09l18.69 -9.01z"/>
   <path class="fil0" d="M3185.69 845.2c-5.07,6.63 -14.25,13.42 -20.28,20.45 -11.17,-8.02 -15.71,-14.35 -22.07,-24.23l42.35 3.78z"/>
  </g>
 </g>
</svg>
