<?xml version="1.0" encoding="UTF-8"?>
<!DOCTYPE svg PUBLIC "-//W3C//DTD SVG 1.1//EN" "http://www.w3.org/Graphics/SVG/1.1/DTD/svg11.dtd">
<!-- Creator: CorelDRAW 2017 -->
<svg xmlns="http://www.w3.org/2000/svg" xml:space="preserve" width="50.7998mm" height="33.8666mm" version="1.1" style="shape-rendering:geometricPrecision; text-rendering:geometricPrecision; image-rendering:optimizeQuality; fill-rule:evenodd; clip-rule:evenodd"
viewBox="0 0 5079.98 3386.66"
 xmlns:xlink="http://www.w3.org/1999/xlink">
 <defs>
  <style type="text/css">
   <![CDATA[
    .fil0 {fill:none}
    .fil1 {fill:#373435}
   ]]>
  </style>
 </defs>
 <g id="Capa_x0020_1">
  <metadata id="CorelCorpID_0Corel-Layer"/>
  <rect class="fil0" x="-0" width="5079.99" height="3386.66"/>
  <g id="_2293396526688">
   <path class="fil1" d="M1964.82 1525.17c1.63,-0.53 36.3,-3.53 37.85,-3.31 2.4,3.84 3.74,9.28 6.08,13.41 5.05,8.89 17.68,30.99 12.38,40.78 -9.43,1.22 -8.68,-7 -14.82,-10.92 -9.67,-6.17 -7.04,7.67 -6.67,13.25 -6.47,-0.57 -9.7,-4.76 -14.55,-7.96 -4.33,-2.85 -11.13,-6.06 -14.2,-8.6 -6.71,-5.56 -6.74,-34.4 -6.07,-36.65zm608.08 -85.17c6.56,-1.18 12.54,-2.26 18.74,-3.68 6.77,-1.56 13.52,-3.46 20.11,-3.58 0,13.55 1.65,10.65 4.24,23.55 3.04,15.09 3.29,7.88 -13.1,26.93 -4.54,5.28 -4.08,9.2 -10.58,9.8 -3.2,-5.21 2.32,-4.34 -3.57,-12.59 -15.74,2.92 -2.65,15.02 -19.85,17.08 -1.04,-8.32 -2.69,-3.7 -2.69,-12.11 0,-13.03 4.11,-31.99 6.7,-45.4zm-1128.26 -296.42l-11.57 -22.92c-1.9,-5.42 -1.53,-2.48 -0.74,-8.76 7.7,0.77 10.36,4.18 13.45,9.3 9.86,16.37 41.4,44.38 56.36,57.87l79.41 57.61c47.23,26.65 43.96,24.01 24.62,37.7 -2.13,1.51 -3.86,3.16 -6.31,5.1 -3.74,2.95 -3.65,2.47 -6.85,4.59 -6.39,4.24 -8.58,5.23 -15.68,0.9l-27.29 -18.34c-17.29,-13.07 -25.91,-24.22 -36.47,-32.15 -9.03,-6.77 -24.05,-26.55 -32.48,-35.98 -11.12,-12.42 -28.58,-39.76 -36.45,-54.92zm-78.27 -76.66c-11.6,-32.3 -10.99,-50.89 -10.99,-82.25 0,-5.05 -1.8,-2.42 0,-10.01 8.4,0.49 9.23,3.05 12.61,12.31 7.4,20.29 6.11,19.52 11.3,37.67l22.67 93.77c-9.42,10.72 -33.99,-47.04 -35.59,-51.49zm64.02 -90.41c0,3.61 -1.15,11.69 -1.24,18.09 -0.13,8.11 0.16,9.84 -6.62,10.83 -4.16,-4.79 -24.99,-89.42 -28.72,-103.07 -6.24,-22.83 -4.99,-31.13 -7.32,-41.74 -4.58,-20.88 -9.68,-64.2 -9.68,-84.73 0,-19.03 21,18.4 22.02,20.42 6.09,12.01 11.3,23.62 15.25,36.99 18.56,62.88 16.31,79.3 16.31,143.21zm469.03 257.11c-58.84,-23.94 -130.91,-26.8 -192.48,-8.24 -13.63,4.1 -8.45,7.79 -28.33,7.79 -9.19,-3.02 -1.17,-0.31 -5.05,-3.7 -5.32,-4.65 -21.93,-12.86 -32.59,-19.66l-38.39 -21.82c-6.58,-3.23 -27.29,-21.61 -33.18,-27.24 -39.17,-37.44 -51.62,-51.82 -72,-105.88 -5.02,-13.33 -9.04,-35.31 -10.97,-48.93l-6.06 -23.47c-7.22,-42.04 -5.42,-91.25 -8.53,-125.03 -0.57,-6.18 -1.6,-6.11 -2.57,-12.96 -1.3,-9.12 -1.75,-17.66 -4.39,-26.01 -9.26,-29.21 -23.12,-55.56 -38.83,-80.42l-36.17 -51.9c-2.8,-3.63 -12.29,-17.96 -0.59,-17.48 2.18,0.09 17.21,7.72 20.36,9.13 65.2,29.11 34.2,-11.37 72.62,57.97 5.75,10.38 9.34,14.4 14.12,21.73 6.43,9.89 5.91,6.43 14.31,19.93 4.9,7.89 25.59,28.88 33.72,36.41 7.09,6.57 12.87,10.76 19.49,16.36 15.08,12.75 28.66,18.83 42.58,27.63l23.29 11c48.34,18.22 65.57,21.6 119.02,21.5 12.06,-0.02 20.05,-2.58 32.62,-3.68 12.16,-1.07 16.8,-3.73 27.26,-5.75 10.74,13.18 1.04,43.41 52.49,103.88 15.32,18 20.88,18.06 31.26,27.45 16.91,15.3 14.88,9.85 23.05,16.11 20.11,15.43 13.2,9.3 38.58,20.04 -0.06,9.35 -12.22,27.7 -17.44,47.37 -2.18,8.23 -5.37,17.04 -7.08,25.53 -1.12,5.54 -1.3,9.06 -2.46,13.82 -5.4,22.13 -2.17,76.35 2.26,99.99 1.41,7.47 3.53,5.83 -1.6,11.48 -10.25,-2.65 -17.58,-8.58 -28.32,-12.95zm681.16 175.01c-8.39,0 -13.01,12.37 -17.41,18.54l-13.92 20.81c-3.1,12.96 -4.47,48.58 -4.47,63.7 7.89,2.57 9.37,4.14 15.05,9.18 3.92,3.47 8.7,8.32 15.86,8.32 19.79,0 42.94,-19.47 55.85,-24.05 10.29,-3.66 7.41,8.41 4.85,14.84 -2.05,5.16 -2.3,8.11 -4.46,13.78 -3.26,8.56 -5.51,17.28 -8.76,26.59 -3.4,9.74 -5.71,16.92 -9.02,27.21 -2.73,8.49 -6.4,18.12 -8.98,26.81 -10.99,37.06 -24.99,70.97 -36.58,108.66l-31.55 95.59c-4.15,12.42 -27.69,74.23 -26.53,80.6 0.83,4.53 1.32,1.29 2.84,7.44 0.81,3.27 0.39,4.25 0.9,7.38 1.36,8.35 6.96,17.1 9.98,25.64 19.37,54.82 61.58,172.6 55.68,232.88 -5.7,58.25 -40.09,149.63 -59.19,211.9l-2.77 12.18c0,-0.22 0.1,0.76 0.23,1.12 0.99,0.29 0.66,0.82 3.17,0.08l1.89 -0.89c5.51,-3.84 30.81,-49.09 33.88,-55.93 1.84,-4.1 3.12,-8.05 4.9,-11.32 2.64,-4.85 3.71,-3.75 5.53,-9.18 -3.41,-5.55 -2.01,-0.55 -5.36,-6.53 13.44,-47.46 22.89,-57.19 34.23,-116.35 7.62,-39.76 6.97,-43.93 1.23,-81.55 -5.43,-35.58 -27.12,-107.52 -37.83,-141.8 -2.69,-8.59 -6.69,-17.07 -9.52,-26.41 -4.45,-14.68 1.72,-11.96 -12.22,-23.21 3.37,-22 23.29,-60.34 29.73,-85.05 4.88,-18.69 28.89,-81.68 37.32,-106.22l59.01 -167.76c4.29,-8.43 4.41,-13.93 7.62,-23.39l84.35 -238.53c1.33,-3.6 3.29,-8.38 4.59,-11.75 1.99,-5.14 2.3,-7.8 3.85,-12.37l31.52 -95.92c2.35,-7.77 3.93,-15.9 8.34,-22.35 26.17,1.77 95.34,37.35 115.88,52.93 4.35,3.29 6.85,6.21 11.13,10.02 17.57,15.61 39.09,34.68 50.6,55.51 5.58,10.11 11.93,15.22 14.14,26.53 -10.66,9.48 -6.33,8.95 -11.77,21.62 -5.5,12.81 -53.52,95 -61.56,106.58 -10.83,15.61 -53.28,86.53 -62.66,105.41l-187.63 313.04c-3.63,7.14 -7.92,15.64 -12.16,22 -4.82,7.23 -8.81,12.95 -12.52,20.19l-43.73 73.78c-2.22,3.62 -4.7,5.86 -6.88,8.87 2.84,4.89 13.91,21.91 17.59,25.53 6.59,-1.35 11.57,-11.35 14.75,-17.08l66.8 -104.47c1.67,-3.14 1.06,-2.06 3.09,-5.14l50.59 -79.82c2.57,-4.4 4.18,-6.16 6.56,-9.92l95.02 -149.54c2.79,-5.46 3.22,-5.65 6.26,-9.98l38.08 -59.73c32.72,-49.47 61.63,-100.59 95.18,-149.56l12.9 -19.73c5.95,-9.04 10.9,-24.96 21.79,-27.01 7.8,6.32 10.77,24.32 13.61,35.29 0.78,3.01 1.45,3.94 2.44,7.05 1.39,4.32 2.57,11.45 3.77,16.1 5.89,22.91 3.63,33.8 5.63,53.55 2.55,25.14 0.99,9.66 -0.24,31.42 -2.21,39.19 -7.56,49.37 -15.01,83.42 -6.55,29.94 -18.47,57.82 -29.87,85.94 -6.73,16.6 -15.88,36.26 -25,51.82 -12.81,21.85 -9.75,22 -28.52,48.14 -13.4,18.68 -26.05,37.69 -41.92,54.33 -5.05,5.3 -3.73,4.81 -8.43,11.14 -2.25,3.04 -6.52,6.19 -9.75,9.76l-37.13 41.26c-3.69,3.58 -5.55,4.96 -9.09,8.82l-37.14 39.53c-5.89,4.79 -3.65,5.84 -8.67,10.87 -4,4 -6.76,5.29 -10.42,9.16l-37.47 39.21c-9.03,8.96 -35.6,35.97 -42.03,45.98l-43.01 61.36c-5.8,7.23 -13.44,12.19 -15.4,24.08 -1.64,10.03 -4.87,29.54 -3.6,37.75 10.38,-1.02 14.59,-10.04 19.84,-16.89 5.68,-7.41 10.6,-11.37 16.83,-19.02 3.33,-4.09 3.53,-6.06 7.22,-10.65l57.72 -67.99c12.63,-14.5 28.88,-26.77 40.13,-41.36l139.87 -137.47c11.81,-11.17 24.91,-24.51 33.75,-37.97 5.25,-7.99 10.53,-11.73 16.74,-19.24 3.01,-3.65 5.6,-6.41 8.3,-9.66 8.2,-9.87 14.45,-21.21 21.99,-31.7 5.25,-7.32 8.48,-14.6 13.84,-22.16l26.57 -45.13c2.33,-4.7 4.22,-7.47 6.4,-11.56l16.77 -37.09c14.97,-35.43 25.89,-71.42 35.23,-108.31 2.95,-11.67 9.57,-47.43 9.57,-61.05 0,-56.58 -0.15,-53.72 -8.42,-107.61 -4.27,-27.77 -11.94,-58.68 -23.22,-84.73 -9.48,-21.9 -16.45,-41.86 -27.04,-61.06 -4.38,-7.96 -26.78,-45.68 -33.38,-53.12 -4.26,-4.79 -7.25,-7.18 -10.82,-11.94 -2.94,-3.92 -5.45,-7.79 -9.65,-11.57 -11.86,-10.71 -21.65,-22.48 -34.69,-32.15 -21.21,-15.71 -44.24,-29.42 -68.05,-39.68 -58.93,-25.42 -148.63,-34.1 -209.84,-14.52 -9,2.88 -16.37,4.51 -26.18,8.13l-22.6 9.93c-15.17,6.59 -31.34,16.07 -42.38,24.48l-28.08 22.54c-2.63,2.5 -4.21,5.3 -8.47,6.49 -5.1,-8.01 -4.03,-15.35 -5.57,-25.51 -6.36,-42.03 -17.7,-72.95 -37.96,-108.73 -3.74,-6.6 -7.94,-10.57 -12.09,-17.38 -12.94,-21.21 -33.46,-37.03 -52.05,-50.58 -50.74,-36.94 -104.91,-45.35 -111.01,-50.12 0.42,-8.85 6.37,-12.19 9.27,-21.05 2.67,-8.12 4.12,-15.02 6.54,-24.56l9.64 -52.09c0,-41.02 1.18,-49.19 -6.71,-91.14 -1.42,-7.51 -2.89,-11.47 -4.91,-18.16 -11.71,-38.92 -33.89,-72.06 -65.6,-97.24 -27.99,-22.23 -54.3,-34.96 -88.87,-47.54 0.2,-12.11 12.26,-27.23 14.94,-42.46 1.46,-8.23 4.43,-16.05 4.47,-24.72 0.03,-7.32 -1.58,-6.66 0.52,-14.09 2.03,-7.19 2.23,-1.96 1.98,-9.45 -0.35,-10.67 -1.32,-16.27 -0.77,-25.65 0.64,-11.2 -3.92,-9.76 -2.67,-23.11 1.33,-14.29 -5.27,-31.71 -9.23,-44.78 -2.28,-7.5 -2.5,-15.09 -5.57,-24.01 -9,-26.08 -20.82,-53.19 -35.01,-77.39l-23.71 -31.71c-5.67,-6.07 -6.86,-9.54 -11.74,-16.05 -10.3,-13.76 -25.99,-22.81 -36.48,-35.25 -4.64,-5.5 -10.03,-7.36 -15.87,-11.88l-60.14 -37.63c-7.19,-3.92 -11.15,-6.22 -18.73,-9 -14.75,-5.4 -26.45,-10.57 -41.96,-15.24 -15.05,-4.53 -30.4,-5.92 -45.93,-9.69 -8.66,-2.1 -13.72,-0.66 -23.17,-2.5 -8.65,-1.67 -18.27,-0.11 -27.2,-0.64l-48.83 0.09 -81.26 14.92c-8.42,1.47 -17.04,6.51 -24.76,6.51 -7.46,0 -6.97,-4.51 -11.54,-8.61 -11.49,-10.32 -82.62,-22.34 -107.52,-18.18 -5.02,0.84 -8.27,-0.81 -15.66,0.58 -16.85,3.18 -33.09,4.65 -49.15,9.88 -23.81,7.75 -33.49,9.7 -55.32,21.4 -12.85,6.89 -21.58,7.28 -39.29,19.24 -4.56,3.08 -7.55,3.83 -12.65,7.03 -7.58,4.76 -14.79,10.16 -23.23,15.88l-42.8 33.88c-6.7,6.29 -12.3,12.25 -19.96,19.24 -11.98,10.94 -18.04,21.16 -27,31.67 -2.05,2.4 -2.36,3.12 -4.35,5.39 -20.88,23.69 -32.28,52.18 -42.44,81.66 -3.3,9.56 -5.49,18.4 -7.17,30.4 -5.74,41.04 -4.86,78.65 5.26,118.16 12.73,49.7 28.77,77.99 56.12,116.74 7.28,10.33 2.35,16.77 2.45,30.52 0.09,12.45 0.65,26.97 -0.03,39.22 -0.61,10.98 -1.8,25.13 -2.83,37.11 -2.39,27.87 -15.95,119.91 -15.91,137.34 0.09,35.96 -5.82,39.96 -0.59,85.71 0.74,6.5 0.25,13.76 1.36,19.69l6.37 34.55c4.81,23 10.27,41.83 18.56,63.17 10.37,26.69 24.35,51.52 37.81,76.33l27.82 43.87c8.86,11.99 18.57,21.23 29.14,32.87 4.25,4.68 5.38,6.81 9.36,11.85l54.97 46.13c10.36,6.47 14.4,12.15 23.4,17.44 12.06,7.09 25.64,17.52 39.01,23 23.05,9.44 5.14,15.65 -8,32.23 -3.7,4.68 -5.23,7.9 -8.29,12.86 -3.07,4.96 -5.28,5.65 -8.61,10.94 -18.15,28.8 -31.52,63.35 -40.48,96.85 -0.49,1.84 -1.1,5.36 -1.75,7.95 -3.14,12.48 -9.44,39.04 -9.98,50.01 -0.37,7.54 0.08,12.52 -0.8,20.35 -2.4,21.34 -1.83,38.78 -1.83,59.63 0,10.51 2.41,27.24 2.64,39.2l22.37 101.5c1.81,5.33 3.92,9.89 6.05,15.16l13.43 28.81c2.69,4.61 4.08,8.93 6.45,13.2 14.75,26.6 32.33,51.04 49.79,75.81l48.27 56.12c20.6,20.86 41.46,41.44 64.83,59.16l35.29 26.64c5,3.64 7.79,5.92 12.06,9.27l160.1 89.3c32.12,16.05 62.41,34.41 94.61,50.64 9.71,4.89 16.01,11.29 25.81,16.52 23.11,12.33 44.49,31.64 62.78,41.42 4.73,2.53 6.71,4.35 11.87,7.93 8.44,5.84 16.52,11.82 23.8,16.98 3.06,2.17 9.38,5.11 13.06,8.14 5.59,4.61 4.19,6.22 14.09,6.58 -0.37,-8.89 -1.49,-9.41 -5.22,-15.6 -3.04,-5.04 -0.71,-0.27 -3.11,-6.78 -1.36,-3.7 0.42,0.34 -1.24,-3.38 -0.03,-0.08 -1.35,-2.52 -1.66,-3.14 -4.29,-8.49 -7.36,-17.99 -15.12,-22.46 -7.41,-4.25 -4.86,-0.18 -12.42,-7.12 -3.17,-2.9 -6.52,-5.92 -9.63,-8.35l-76.01 -56.21c-4.14,-2.44 -6.63,-3.54 -11.31,-6.6 -4.53,-2.97 -8.2,-4.72 -12.49,-7.07l-11.34 -6.66c-24.21,-12.26 -48.12,-27.65 -71.78,-40.76 -5.22,-2.89 -7.6,-4.81 -12.18,-7.31l-128.06 -79.07c-6.54,-4.51 -14.31,-11.83 -21.07,-16.56 -22.94,-16.05 -39.26,-34.52 -59.05,-53.46 -6.81,-6.52 -11.62,-13.01 -17.76,-19.72 -4.62,-5.05 -5.25,-4.04 -9.4,-10.25 -7.69,-11.47 -16.01,-19.65 -23.7,-31.7l-30.7 -44.31c-4.44,-5.96 -9.53,-15.81 -13.79,-23.54 -8.9,-16.15 -19.54,-33.38 -24.6,-50.77 -2.54,-8.72 -6,-18.43 -9.5,-27.85 -3.89,-10.49 -11.16,-50.38 -11.16,-63.15 0,-40.02 -6.42,-72.31 16.8,-53.46 16.84,13.67 37.28,36.08 53.35,47.89 19.28,14.19 36.49,31.98 54.6,48.09l8.99 7.36c16.01,11.48 29.76,27.46 45.17,39.61 8.7,6.84 9.04,9.78 18.18,16.05 16.16,11.08 29.83,26.55 44.07,39.13 4.5,3.98 5.26,2.91 9.67,6.7l35.03 31.77c9.18,8.51 17.87,17.77 27.86,24.37 4.73,3.13 4.99,4.01 8.95,7.38 20.29,17.27 168.44,150.03 178.85,157.11 12.55,8.51 33.22,28.59 44.82,40.06 5.01,4.96 4.06,3.28 9.28,7.03 6.13,4.41 9.55,12.58 19.32,12.89 2.05,-4.9 9.46,-25.51 9.2,-28.1l-99.33 -93.45c-3.28,-2.76 -5.98,-3.74 -9.44,-6.86 -11.27,-10.19 -23.15,-22.44 -35.11,-33.42 -11.83,-10.86 -25.07,-22.79 -36.14,-33.96 -5.91,-5.95 -9.86,-9.87 -18.17,-16.04l-88.16 -83.14c-9.11,-8.84 -18,-18.59 -28.34,-25.49 -9.12,-6.09 -19.04,-17.27 -26.25,-24.33 -6.19,-6.08 -11.43,-10.36 -17.8,-16.38 -16.52,-15.62 -28.78,-28.92 -45.3,-42.93 -1.55,-1.32 -2.27,-1.89 -4.32,-3.84l-140.46 -131.84c-4.73,-4.57 -8.39,-12.58 -12.74,-16.64 -4.95,-4.62 -4.86,-1.52 -9.18,-7.67 0.32,-14.24 14.71,-51.17 20.57,-63.23 8.55,-17.63 21.16,-36.49 32.61,-50.62l18.94 -23.35c4.42,-4.81 6.88,-4.64 12.14,-9.15 3.71,-3.18 6.03,-6.56 9.79,-9.67 3.41,-2.82 44.17,-35.67 48.42,-34.96 4.53,0.76 25.55,34.8 30.09,41.9 2.96,4.64 3.58,6.44 7.09,10.72l212.81 297.81c18.33,28.31 40.25,54.69 59.4,82.47 24.07,34.9 49.87,67.36 73.26,102.84l59.04 81.4c3.31,4.57 4.42,6.35 7.07,10.72 3,4.93 4.99,6.44 7.71,10.29 4.68,6.65 10.78,11.9 14.29,19.31 -2.51,5.03 -5.61,6.57 -6.73,9.12 -3.77,8.63 1.59,5.11 1.59,13.72 0,14.52 -2.74,26.61 -2.68,42.4l2.65 107.66c2.18,43.85 4.93,67.33 24.15,103.93 2.74,5.23 3,6.69 6.16,11.74 9.6,15.29 17.05,31.53 27.73,45.82l15.27 22.27c30.7,40.11 8.25,22.99 36.24,54.97 3.34,3.81 5.07,5.83 8.97,9 10.6,8.61 27.25,30.01 39.14,33.02 0.28,-11.53 -15.53,-27.62 -20.72,-36.78 -3.74,-6.59 -6.94,-10.4 -11.39,-16.3l-22.99 -34.15c-4.32,-7 -6.98,-11.49 -10.82,-16.89 -8.53,-11.99 -13.6,-21.38 -21.75,-33.7 -16.12,-24.38 -29.2,-46.1 -38.43,-74.14 -8.12,-24.68 -12.77,-74.01 -12.77,-99.79 0,-32.72 -2,-111.64 5.55,-144.75 2.97,-13.04 -0.03,-9.13 -1.96,-17.42 -2.81,-12.1 7.64,-4.86 1.59,-15.68 -0.43,-0.77 -8.5,-9.32 -10.07,-11.32 -6.64,-8.48 -10.96,-17.05 -17.07,-25.28l-88 -125.78c-3.66,-5.22 -3.94,-8.26 -8,-13.1 -16.05,-19.13 -29.17,-42.34 -43.84,-62.25l-60.76 -87.59c-3.91,-5.76 -5.72,-5.61 -4.77,-14.54 9.37,-1 6.65,0.02 12.73,1.58 9.77,2.5 29.66,7.43 38.49,7.43 20.2,0 16.92,0.17 30.26,-17.19 7.35,-9.57 12.08,-7.89 6.01,-22.31 -13.75,-32.64 -8.69,-44.07 -29.92,-56.77 -9.49,-5.67 -17.15,-22.25 -30.32,-19.57 -2.95,0.6 -9.32,3.22 -13.76,4.52 -4.31,1.26 -7.89,1.93 -12.76,3.53 -8.7,2.87 -19.86,4.06 -19.86,14.63 0,18.3 7.5,41.79 4.81,60.12 -7.15,1.28 -7.95,0.09 -11.08,-4.68 -2.12,-3.23 -3.25,-5.59 -5.63,-8.95 -2.45,-3.46 -4,-5.1 -6.56,-8.29l-37.57 -53.81c-2.26,-3.48 -3.13,-5.72 -5.44,-9.13 -14.09,-20.7 -37.17,-48.94 -49.27,-69.87l-73.03 -104.66c-4.38,-6.09 -10.2,-10.65 -9.37,-19.29 5.06,-4.18 34.23,-11.09 41.72,-11.09l37.46 0c30.09,0 79.56,18.19 104.33,30.71 27.7,14 28.44,8.71 37.96,30.53l14.86 35.72c1.96,6.23 1.16,7.35 7.71,8.86 0,-12.6 -2.38,-15.9 -2.7,-26.18 -0.24,-7.28 0.88,-20.72 -0.33,-24.89 -3.59,-12.46 -7.68,-35.3 -7.68,-48.55 0,-10.45 -0.49,-11.24 11.94,-11.71 1.12,-10.36 -3.41,-17.8 -6.37,-25.63 -2.68,-7.08 -7.79,-17.56 -8.25,-25.11 6.85,3 10.6,11.08 17.8,11.45 2.26,-9.79 -9.02,-39.47 -12.08,-49.51 -4.81,-15.74 7.4,-3.01 11.53,0.32 6.15,4.94 9.23,12.09 18.21,9.91 0.47,-4.99 -2.19,-9.27 -4.45,-15.59 -1.75,-4.9 -3.15,-10.25 -4.44,-15.12 -2.95,-11.21 -7.83,-18.4 -7.83,-30.44 10.48,-0.07 24.82,15.76 31.31,16.99 3.17,-5.25 -5.19,-36.46 -6.94,-52.16 -2.86,-25.74 15.01,7.81 33.84,7.18 2.66,-17.15 -9.19,-37.54 -6.5,-55.3 2.66,1.1 7.77,4.9 9.82,6.24 6.33,4.11 16.17,13.97 24.69,14.41 6.79,0.35 2.08,0.57 5,-1.23 3.56,-4.16 1.66,-46.57 7.7,-57.14 8.01,0.83 15.21,7.91 21.98,12.28 6.01,3.88 14.19,10.04 20.1,11.53 5.51,-4.58 4.41,-2.67 5.56,-11.81 1.19,-9.33 3.75,-32.16 9.45,-39.09 6.23,1.83 11.82,15.08 15.71,21.3 2.4,3.86 12.56,18.39 14.91,20.23 8.1,-1.72 6.59,-2.81 9.24,-10.53 4.17,-12.18 6.59,-23.81 12.21,-34.89l3.38 -4.66c6.51,7.9 4.62,26.39 14.68,31.28 3.34,-4.3 2.38,-2.13 2.96,-8.69 1.54,-17.58 -1.5,-21.25 2.15,-25.52 4.01,3.38 11.4,15.16 15.88,20.93 10.09,12.99 17.1,32.19 25.82,9.02 3.73,-9.92 6.16,-29.29 11.91,-36.92 6.02,1.35 0.96,-2.37 5.84,3.9l9.13 17.09c3.71,7.75 6.84,17.7 12.76,23.24 6.07,-0.75 7.64,-3.05 11.06,-7.12l16.59 -19.31c3.16,-4.59 1.83,-5.85 8.23,-8.51 7.19,6.58 18.79,40.72 22.56,53.36 13.77,0 10.77,-4.05 19.42,-12.6 6.06,-5.99 7.39,-13.33 15.27,-16.38 4.21,11.29 5.17,29.88 5.38,43.06 0.46,28.14 21.45,-11.68 32.25,-15.41 0,10.32 3.15,18.06 3.88,28.54l1.46 24.28c2.18,16.22 11.61,-0.34 16.17,-5.95 22.28,-27.38 13.92,24.93 13.18,40.21 -1.54,31.68 17.15,-7.87 23.75,-11.61 3.91,5.9 2.81,17.64 3.17,22.97 0.61,8.89 -3.61,26.48 -0.05,34.16 8.85,0.4 5.77,-1.07 9.68,-8.49 11.82,-22.45 3.79,34.18 3.77,34.68 -0.23,5.27 -1.8,13.6 5.09,11.78 5.11,-1.34 0.36,-2.86 9.08,-3.15 3.78,5.5 9.45,46.91 9.92,56.64 0.63,12.95 7.06,27.71 7.88,40.97 0.5,8.07 -1.64,8.75 5.29,11.42 6.59,-12.38 2.33,-48.45 8.34,-62.11 3.16,-7.18 38.61,-39.23 47.21,-45.75 15.24,-11.57 34.39,-20.61 51.06,-30.44 3.25,-1.91 3.25,-2.49 7.16,-4.27 5.22,-2.36 9.8,-3.95 16.38,-6.24 17.9,-6.21 57.93,-17.69 76.28,-10.54 1.77,8.84 -21.45,71.32 -25.79,83.7l-69.42 206.03c-6.53,19.17 -8.65,35.42 -18.25,35.18 -5.08,-5.58 -5.11,-27.68 -6.72,-35.42 -2.21,-10.6 -5.15,-21.78 -8.33,-32.42 -16.16,-2.31 -32.23,-1.82 -48.57,-1.82z"/>
   <path class="fil1" d="M2358.72 1610.89c10.38,-0.08 24.23,-7.89 32.71,-12.84l20.39 -14.35c5.15,-2.87 5.71,-4.1 5.71,6.09 0,7.42 -4.76,6.54 -10.13,11.13 -17.79,15.25 -12.85,14.72 -37.92,25.69 -13.74,6.01 -51.48,19.1 -67.81,19.1 -5.97,0 -5.27,-1.73 -14.98,-0.53 -5.72,0.71 -11.84,0.73 -17.72,0.58 -10,-0.25 -22.42,-2.47 -32.55,-3.95 -12.4,-1.81 -16.14,-6.18 -25.74,-9.94 -11.02,-4.31 -17.36,-6.35 -18.17,-19.49 7.05,2.25 29.44,13.24 42.29,13.24 16.59,0 19.71,1.98 22.64,-2.68 -30.43,0 -43.51,-11.4 -59.68,-15.35 -2.82,-0.69 -12.92,1.44 -11.51,-14.12l63.16 4.22c23.93,2.13 42.01,0.73 65.19,-1.66 12.77,-1.32 102.27,-35.91 102.93,-36.04 1.31,11.01 1.23,12.42 -7.96,17.14 -7.09,3.63 -9.64,7.61 -15.62,11.96l-26.19 16.14c-6.09,3.06 -6.57,1.03 -9.04,5.66zm-215.76 -19.47c9.34,14.63 11.63,18.44 23.97,32.08 4.79,5.3 3.81,5.58 7.41,10.44l36.03 37.37c7.91,7.93 11.09,10.64 20.62,16.84 19.36,12.58 64.49,17.6 90.77,13.05 22.96,-3.97 62.15,-19.27 76.76,-34.03 7.36,-7.44 8.5,-12.9 14.46,-21.58 10.9,-15.88 37.4,-70.65 40.97,-88.08 1.68,-8.22 3.55,-4.86 3.77,-12.99 -3.72,-3.01 -6.97,-3.91 -13.45,-5.97 -2.04,-0.65 -14.4,-4.01 -15.37,-4.01 -30.19,0 -71.17,19.9 -101.53,28.87 -7.63,2.26 -15.65,5.16 -24.4,6.74l-61.29 0.05c-31.78,-3.76 -78.54,-8.06 -98.72,21.22z"/>
   <path class="fil1" d="M2041.94 1380.51c-7.08,-2.51 -6.8,-6.72 -14.49,-9.29 -2.75,9.32 7.06,17.31 16.98,25.53 7.69,6.37 13.88,7.95 22.71,11.52l6.94 4.36c-9.59,2.21 -15.88,4.05 -27.56,4.05 0.73,6.6 3.15,6.84 8.35,9.08 39.48,17.02 73.99,8.01 108.11,-13.91 6.79,-4.37 10.16,-11.82 16.08,-14.7 5.29,-2.58 18,-5.27 24.1,-6.81 12.89,-3.23 19.68,2.53 21.84,-6.06 -8.72,-4.45 -19.73,-3.77 -30.57,-1.07 -10.2,2.53 -19.6,4.22 -28.31,7.56 -14.45,5.54 -57.95,11.67 -73.55,8.67 -6.31,-1.22 -2.94,1.79 -6.57,-3.3 -5.34,-7.5 -4.62,-36.54 6.19,-45.25 16.14,-12.99 34.43,-17.41 55.78,-15.55 28.46,2.48 36.21,7.83 54.37,22.63 3.81,3.1 6.04,5.15 10.48,9.24l8.14 6.41c0.3,0.21 0.68,0.49 0.98,0.69l4.05 2.61c6.48,3.29 7.65,1.34 10.48,1.53 6.52,0.44 5.84,2.99 15.21,3.43l1.11 -9.02c2.55,-18.37 -18.95,-48.13 -31.58,-58.15 -22.02,-17.47 -47.38,-16.61 -67.27,-17.57 -1.41,-3.2 -2.92,-5.8 -4.03,-8.9 5.25,-1.8 51.6,-0.14 56.11,-7.77 2.8,-7.46 -7.25,-19.46 -13.52,-21.86 -8.91,-3.41 -21.48,-4.21 -31.24,-5.07 -40.85,-3.62 -24.89,-2.75 -61.32,-10.06 -18.31,-3.67 -44.09,-12.31 -57.61,-6.06 -13.35,6.16 -26.77,28.94 -23.95,47.27 5.89,-2.96 5.11,-3.07 7.12,-10.46 3.49,-12.83 5.1,-26.01 21.73,-29l50.55 28.1c22.31,12.43 39.64,8.96 43.91,14.98 3.2,4.51 0.11,9.16 -4.75,9.16 -18.79,0 -8.17,-0.88 -15.43,-2.07 -6.07,-0.99 -5.1,0.63 -8.98,0.16 -10.8,-1.31 -1.36,-7.45 -13.3,-8.82 -7.95,11.98 5.32,8.33 -14.59,15.89 -10.68,4.05 -10.99,8.63 -17.84,13.35l-4.7 -3.65c-8.33,-7.68 -2.64,-11.26 -14.01,-10.38 -1.87,28.63 19.41,7.65 0.5,41.05 -5.04,-1.85 -9.42,-3.88 -13.12,-9 -11.05,-15.32 -18.23,-0.06 9.71,25.69 -0.48,5.04 -2.22,13.41 -3.24,20.82z"/>
   <path class="fil1" d="M2374.68 1263.97c-0.85,-13.58 -1.26,-9.6 10.35,-16.59 15.92,-9.6 18.84,-15.13 31.37,-25.6 5.19,-4.34 9.43,-7.74 14.69,-13.09 4.98,-5.06 9.49,-9.38 14.86,-14.5 24.21,-23.1 32.2,20 44.59,23.41 2.08,-4.25 -10.3,-35.99 -36.52,-39.7 -12.04,-1.71 -42.51,16.49 -53.29,23.29 -22.02,13.92 -32.4,16.69 -52.82,27.02 -13.89,7.02 -34.32,0.95 -38.65,29.9 -1.21,8.09 -2.1,3.16 1.15,6.51 5.4,5.22 22.22,1.1 29.27,-0.39 9.38,-1.99 14.92,-6.39 25.4,-6.95 2.17,10.42 -1.73,8.06 -10.72,11.62 -7.65,3.04 -11.13,5.11 -17.54,8.55l-16.3 9.94c-24.9,16.25 -40.93,67.62 -25.37,87.43 9.59,-1.03 5.86,-3.95 12.75,-6.69 6.29,-2.51 2.81,2.46 10.38,-4.78 8.04,-7.69 9.27,-12.25 15.45,-22.08 11.01,-17.53 18.32,-27.7 38.21,-35.3 6.58,-2.52 6.38,-3.24 13.47,-5.99 8.16,-3.16 6.99,-1.84 15.62,-2.62 13.8,-1.24 15.42,-6.4 31.08,0.35 12.25,5.28 15.52,5.35 19.98,17.63 3.86,10.62 5.63,15.42 5.63,29.63 -7.34,4.79 -6.59,3.38 -15.02,5.63 -6.33,1.69 -11.64,3.02 -17.14,4.32 -25.74,6.09 -50.82,5.97 -76.64,5.71 -4.37,-0.05 -12.45,1.65 -17.16,3.15 -6.18,1.97 -10.28,3.75 -10.11,10.39 1.41,0.17 39.73,-10.83 51.61,-2.79 6.64,4.49 2.35,2.68 10.53,5.9 3.98,1.57 6.15,3.21 10.25,4.58 2.07,0.68 21.08,4.92 23.69,5.19 15.23,1.58 40.49,-3.61 52.8,-8.48 11.66,-4.61 29.27,-15.99 33.25,-27.55l-31.13 5.38c3.6,-11.9 12.2,-2.56 23.92,-23.5 4.72,-8.42 15.9,-19.99 12.12,-29.92 -11.46,2.71 -5.03,9.48 -16.15,11.85l-3.57 -23.52c7.03,-7.34 15.26,-23.5 3.54,-29.77 -5.65,5.05 0.33,5.33 -8.93,15.99l-2.49 2.52c-5.35,-2.17 -9.66,-7.75 -14.95,-11.27 1.15,-11.53 9.91,-19.79 -2.33,-27.32 -4.64,5.63 -3.02,10.15 -8.82,17.04 -12.51,-1.05 -17.14,-5.24 -35.51,-5.24 -2.62,-8.64 -0.56,-9.77 -8.53,-10.64 -2.47,4.18 -0.71,5.18 -3.47,10.64 -11.67,0.66 -17.05,9.82 -32.8,10.71z"/>
   <path class="fil1" d="M2113.49 1376.12c1.14,6.31 6.43,14.99 11.09,16.63 4.15,1.46 43.08,-5.46 45.57,-7.91 13.51,-13.33 -5.92,-47.27 -32.45,-40.9 -12.94,3.11 -27.3,15.08 -24.21,32.18z"/>
   <path class="fil1" d="M2425.57 1335.34c0,-23.33 -23,-34.67 -43.59,-24.12 -5.98,3.07 -14.06,13.17 -16.03,21.56 -2.54,10.79 4.62,19.16 9.27,24.96 5.49,-0.4 10.31,-1.85 16,-2.93 13.97,-2.65 34.35,3.32 34.35,-19.47z"/>
   <path class="fil1" d="M2305.33 1542.18c6.05,-0.35 8.75,-1.2 12.46,-4.7 0.62,-0.58 7.88,-8.96 8.34,-9.61 3.19,-4.53 3.29,-7.21 3.37,-11.54 0.17,-8.43 3.98,-8.64 -3.05,-9.57 0,12.77 1.44,13.94 -9.34,25.07 -2.44,2.51 -2.63,2.78 -6.35,5.16 -4.96,3.17 -2.37,-0.01 -5.43,5.19z"/>
   <g>
    <g>
     <path class="fil1" d="M3528.57 2656.04l2.91 1.88c-0.19,-0.12 -3.54,-0.91 -2.91,-1.88zm-328.14 36.27l0 0zm-369.5 78.67l0 0zm-354.99 -50.38l2.91 1.89c-0.2,-0.13 -3.54,-0.92 -2.91,-1.89zm10.93 -27.51l-0.74 18.2 0.74 -18.2zm612.19 -121.94l0.74 -18.21 -0.74 18.21zm-82.03 9.07l2.9 1.88c-0.19,-0.12 -3.53,-0.91 -2.9,-1.88zm-456.16 105.51l0.75 -18.21 -0.75 18.21zm467.09 -133.03l-0.74 18.21 0.74 -18.21zm506.93 93.6c-12.46,-65.69 23.17,-383.26 83.97,-346.5 8.57,5.18 10.16,-5.97 5.31,36.15 -2.24,19.53 -3.94,34.33 -7.37,51.97 -8.39,43.17 -58.92,232.63 -81.91,258.38zm-703.96 124.68c-7.6,-40.06 -0.1,-73.91 3.06,-108.78l31.92 -318.5 80.33 -17.11c-16.63,68.67 -15.12,161.49 -28.24,237.82 -7.42,43.14 -63.94,180.65 -87.07,206.57zm-344.06 -77.89c-8.38,-65.82 28.64,-169.13 29.54,-216.21 -72.44,-28.96 -56.45,-11.55 -96.91,-21.35 -36.2,90.56 -60.21,364.3 -38.03,453.19 8.38,33.6 52.04,84.74 109.03,77.48 -4.25,-33.34 17.48,-126.53 25.41,-156.59l34.21 -123.17c4.02,-9.15 7.39,-14.64 10.75,-20.71 14.17,111.19 -58.34,177.14 59.04,229.22 83.91,37.23 79.31,-38.77 108.82,-71.84 137.41,164.33 131.17,3.48 182.52,-89.24 9.01,47.51 -7.14,49.27 29.11,82.89 22.24,20.63 44.74,41.1 80.29,36.57 -6.25,-49.06 40.74,-205.71 61.44,-264.73l16.97 -37.45c13.69,107.4 -50.23,168.04 49.48,222.44 29.65,16.18 39.01,19.02 83.86,9.47 12.1,-30.26 30.37,-52.52 31.09,-90.59l21.29 31.21c10.3,14.04 14,17.37 24.16,26.77 88.53,81.91 101.7,-31.08 132.98,-87.57 23.43,49.94 52.94,88.01 116.91,75.87 31.94,-32.87 50.23,-100.02 51.26,-153.65 1.47,1.5 2.56,2.3 3.52,5.23 12.31,37.65 60.77,93.63 118.52,94.73 47.53,-48.91 96.87,-230.33 93.15,-300.88 -2.11,-39.96 -0.59,-31.25 -23.29,-41.46 -0.62,32.64 -19.63,79.9 -31.69,110.97l-47.76 107.46c-21.95,-115.73 38.39,-341.52 38.93,-369.34 -68.07,-19.34 -77.09,-12.89 -104.94,-19.64 -7.92,19.79 -13.35,27.54 -13.84,53.33 -123.97,-49.56 -154.55,-27.71 -193.46,130.6 -13.45,54.76 -14.77,222.83 -78.41,288.33 -14.87,-116.72 44.55,-343.07 45.24,-379.08 -15.21,-6.09 -28.06,-12.23 -45.24,-15.63 -19.97,-3.95 -32.34,-1.04 -51.66,-5.73 -51.34,128.43 -36.65,336.36 -118.73,428.32 -13,-68.52 25,-262.64 41.15,-319.44 -34.26,-13.69 -56.8,-36.58 -100.33,-37.41 -62.41,64.23 -85.1,185.65 -113.29,217.24 -4.32,-33.86 5.57,-84.95 11.04,-117.45 4.48,-26.59 16.3,-99.88 13.37,-122.85l64.26 -13.68c-14,-46.45 -22.57,-41.22 -47.52,-65.46l27.88 -106.6c-35.01,-9.94 -64.4,-18.91 -105.15,-19.69l-35.19 150.23 -72.29 15.39c5.9,-20.77 17.39,-50.47 18.45,-71.1 -37.04,-14.8 -48.01,-30.44 -104.94,-19.64 -6.15,21.63 -10.87,40.72 -16.73,65.29 -7.02,29.42 -3.71,42.34 -28.76,57.5 -2.47,1.5 -162.81,47.34 -169.84,49 27.18,53.41 107.73,27.45 178.95,12.29 -27.95,98.31 -15.18,349.43 -105.57,450.7 -13.69,-107.47 48.47,-309.38 39.44,-327.47 -32.65,-31.72 -48.74,-28.58 -92.3,-39.12 -67.86,69.84 -92.57,216.58 -116.19,243.05z"/>
     <path class="fil1" d="M2211.74 2978.37l0.74 -18.21 -0.74 18.21zm-72.81 -26.48l2.91 1.88c-0.2,-0.12 -3.54,-0.91 -2.91,-1.88zm72.81 26.48c22.91,120.76 -61.08,303.15 100.02,272.59 -32.25,-151.47 22.36,-609.07 55.46,-725.52 -31.48,-12.58 -61.43,-25.19 -104.95,-19.65l-47.14 225.56c-11.86,45.69 -47.3,185.5 -69.88,210.79 -20.7,-109.13 45.92,-363.06 41.83,-395.15 -72.45,-28.96 -56.45,-11.55 -96.91,-21.35 -62.82,157.14 -13.43,241.82 -73.91,332.79 -30.53,45.93 -56.06,83.89 -91.88,127.3 -222.4,269.49 -256,-174.99 -119.37,-430.53 23.77,-44.44 60.72,-97.84 124.66,-112.94 20,93.94 9.82,153.22 -13.02,240.77 -6.76,25.91 -18.96,54.72 -20.09,76.95 41.32,-31.88 40.08,-22.48 74.23,-76.43 59.01,-93.25 117.5,-239.14 -14.75,-292.6 -178.29,-72.06 -258.24,101.09 -308.21,249.17 -57.11,169.27 -76.18,468.87 154.04,500.49 55.55,7.63 84.93,-7.69 119.96,-38.85 65.74,-58.5 99.45,-150.65 126.51,-180.97 -2.24,117.37 103.67,186.53 144.03,100.39 3.26,-6.94 5.01,-13.1 8.93,-21.9 5.27,-11.85 5.5,-11.99 10.44,-20.91z"/>
     <path class="fil1" d="M3349.21 2089.66c9.29,43.61 40.32,51.43 71.62,60.32 7.48,-30.85 7.3,-58.6 16.33,-93.25 8.42,-32.32 26.73,-66.08 28.09,-92.53 -31.6,-12.63 -72.69,-43.66 -98.91,-2.53 -15.77,24.75 -25.46,88.86 -17.13,127.99z"/>
    </g>
    <g>
     <path class="fil1" d="M3308.56 3088.8l1.05 0.75c-0.07,-0.05 -1.3,-0.4 -1.05,-0.75zm-62.18 -1.66l0 0zm259.71 -91.16l1.05 0.75c-0.07,-0.05 -1.29,-0.4 -1.05,-0.75zm-390.69 67.3l1.05 0.74c-0.07,-0.05 -1.3,-0.39 -1.05,-0.74zm395.15 -77.35l-0.54 6.75 0.54 -6.75zm-390.7 67.3l-0.53 6.74 0.53 -6.74zm418.27 -68.95l0.54 -6.75 -0.54 6.75zm-390.7 67.29l0.54 -6.74 -0.54 6.74zm-131.4 -8.31c1.91,11.12 4.43,13.6 17.61,12.44 -1.26,21.57 -6.48,84.06 -30.06,94.92 -5.24,-30.42 -4.06,-41.53 -1.19,-66.84 1.45,-12.82 2.13,-16.42 4.66,-28.38 2.54,-11.98 2.02,-20.05 9.4,-27.68 -0.41,7.01 -1.82,7.43 -0.42,15.54zm623.24 -82.59c1.56,-26.64 13.5,-44.64 14.73,-58.24l6.01 -1.03c4.75,27.55 -4.17,46.49 -20.74,59.27zm-328.21 124.61c-3.67,-24.55 14.17,-141.87 36.19,-127.34 3.11,2.04 3.86,-2.07 1.45,13.49 -3.51,22.65 -27.12,102.95 -37.64,113.85zm-191.2 -32.05c-2.15,-24.55 13.09,-62.34 14.11,-79.8 -5.56,-2.47 -10.23,-4.94 -16.56,-6.45 -7.35,-1.76 -11.98,-0.86 -19.09,-2.88 -21.75,48.78 1.24,49.3 -39.8,56.37 -2.68,-13.72 -7.53,-15.72 -15.38,-23.07 -4.61,-4.31 -4.91,-5.37 -9.62,-8.82 -1.21,-0.89 -11.1,-5.78 -11.91,-5.97 -41.89,-9.91 -69.66,98.08 -61.98,147.68 8.57,55.35 60.8,66.15 81.25,28.19 13.73,-25.5 28.34,-75.91 21.78,-113.97l17.34 -6.55 -3.08 74.73c0.36,17.56 -1.78,22.73 10.16,35.56 8.28,8.9 14.52,15.14 29.87,13.79 -1.38,-15.7 18.36,-90.48 30.48,-110.47 1.74,19.81 -13.56,63.03 3.31,77.46 40.43,34.55 51.98,-11.75 56.68,-16.62 45.87,59.44 46.51,9.98 67.05,-23.92 4.36,25.31 19.05,42.57 43.83,38.87 12.33,-11.74 20.1,-36.39 21.26,-56.27l6.78 12.83c3.14,5.94 5.28,8.94 9.41,12.84 8.03,7.57 15.34,12.48 27.64,13.2 13.8,-13.14 12.17,-24.67 21.87,-34.71 3.17,12.24 32.12,54.28 51.8,12.82 3.43,-7.21 7.49,-14.2 8.31,-23.18 0.52,0.54 1.06,0.75 1.39,1.76 0.46,1.37 2.3,2.91 2.78,3.54 1.1,1.44 2.51,3.51 4.06,5.47 10.57,13.45 17.44,20.54 34.04,19.08 -1.38,-15.69 18.37,-90.47 30.49,-110.46 3.44,39.18 -24.58,66.55 20.52,86.94 26.89,12.16 37.21,-18.59 38.43,-32.11l7.14 8.58c8.81,10.33 18.96,18.2 32.43,21.43 27.87,6.67 34.94,-10.16 45.62,-25.29 14.05,-19.93 39.49,-71.38 34.11,-102.63 -8.17,3.76 -4.03,1.45 -8.13,7.46 -0.69,1.02 -62.02,118.65 -75.08,84.32 -5.78,-15.16 2.08,-39.64 -0.32,-55.73 18.53,6.06 24.39,8.34 39.28,-6.56 7.77,-7.77 17.24,-26.4 19.9,-38.77 4.63,-21.5 0.12,-33.65 -14.78,-43.73 -8.24,-5.58 -30.48,-18.34 -39.75,-15.46 -42.24,13.14 -31.47,125.74 -66.01,161.51 -2.14,-24.33 7.73,-65.72 13.52,-90.77 7.52,-32.5 16.96,-33.31 -27.8,-46.03 -12.47,11.87 -18.98,25.96 -26.15,42.25l-20.5 46.24c-2.15,-24.54 13.09,-62.33 14.11,-79.79 -26.46,-11.8 -20.78,-5.11 -35.65,-9.33 -18.23,40.87 -14.33,128.82 -46.76,159.68 -2.14,-24.32 8.51,-80 14.46,-105.94 2.82,-12.29 7.22,-23.4 7.84,-34.06 -5.56,-2.48 -10.24,-4.94 -16.56,-6.45 -7.35,-1.76 -11.98,-0.86 -19.09,-2.88 -11.36,25.47 -5.64,7.64 -12.33,38.81 -11.77,54.86 -1.83,50.89 -25.5,100.78 -1.77,3.73 -1.69,3.62 -3.97,7.76 -2.08,3.76 -3.71,6.41 -5.48,9.33 -6.46,-43.26 19.22,-126.16 19.82,-136.48 -24.98,-8.16 -28.42,-5.9 -38.65,-8.81 -3.23,7.23 -5.36,10.03 -5.91,19.58 -8.16,-3.63 -15.17,-6.92 -25.5,-9.06 -31.1,-6.42 -39.43,24.27 -48.18,54.71 -5.22,18.11 -4.95,40.22 -11.07,55.54l-25.75 47.82c-2.15,-14.42 5.16,-62.82 7.65,-79.08l11.55 -78.96c16.05,-2.76 32.1,-5.53 48.14,-8.36 19.91,-3.51 26.4,-1.38 45.54,-4.68 -9.21,-35.55 -34.39,-21.93 -85.8,-13.07 2.49,-7.62 7.19,-18.47 7.88,-26.11 -13.53,-6.04 -17.37,-12 -38.65,-8.82 -15.3,46.77 3.47,43.84 -82.4,60.61 9.31,20.21 39.57,11.75 66.22,7.16 -11.8,36.07 -10.72,129.44 -45.73,165.7 -3.52,-40.08 22.49,-114.09 19.4,-120.93 -11.65,-12.25 -17.67,-11.32 -33.68,-15.86 -12.47,11.86 -18.97,25.95 -26.14,42.25 -3.55,8.05 -6.57,14.01 -9.82,22.1 -4.28,10.64 -3.38,16.57 -10.69,24.14z"/>
     <path class="fil1" d="M2662.52 3128.91c1.56,-26.64 13.5,-44.65 14.73,-58.24l6.01 -1.04c4.75,27.56 -4.17,46.49 -20.74,59.28zm-102.18 17.6c1.56,-26.64 13.49,-44.65 14.73,-58.24l6.01 -1.04c4.74,27.56 -4.17,46.49 -20.74,59.28zm-177.43 101.73c0.86,4.98 9.72,15.71 12.64,19.49 -7.59,5.86 -12.42,8.9 -22.49,13.15 23.95,52.02 100.13,-38.9 149.65,-47.44 4.42,-0.76 21.43,27.26 53.26,21.78 14.64,-2.53 27.63,-24.16 34.37,-36.45 3.71,-6.78 3.91,-9.14 9.48,-14.43 40.85,57.47 73.03,39.35 101.65,-20.61 8.19,-17.16 22.47,-49.26 18.16,-74.29 -10.31,4.74 -20.2,34.3 -35.87,56.51 -26.18,37.11 -52.37,67.97 -48.83,7.75 0.67,-11.36 3.11,-15.17 1.17,-28.21 14.74,4.82 28.08,11.17 44.92,-13.16 3.05,-4.39 9.77,-17.81 11.78,-23.36 20.43,-56.6 -45.84,-71.95 -55.91,-66.13 -25.28,14.61 -34.29,74.01 -37.77,102.93 -3.39,28.18 -60.11,100.83 -64.9,72.96 -5.14,-29.84 2.55,-36.53 -0.31,-55.64 14.75,4.82 28.09,11.17 44.93,-13.16 28.63,-41.34 19.9,-73.27 -27.65,-90.22 -44.64,-15.91 -58.62,113.19 -55.11,153.22 -4.82,-2.16 -17.77,-9.32 -23.11,-8.4 -26.66,4.59 -51.84,37.07 -75.45,47.03 0.7,-11.98 2.83,-17.18 4.8,-28.28l17.11 -90.88c14.1,-66.52 12.64,-61.23 34.5,-110.26 -17.75,-7.92 -17.94,-15.84 -43.21,-17.32 -8,17.95 -12.23,35.38 -17.27,56.44 -8.12,33.88 -34.28,165.28 -30.54,186.98z"/>
     <path class="fil1" d="M2768.46 2971.41c2.95,17.1 20.03,35.68 31.81,40.93 2.73,-30.14 88.54,-52.38 117,-57.28l-26.1 84.52c-2.17,9.91 -6.24,18.69 -6.87,29.46 -31.84,5.49 -35.66,12.79 -77.62,16.47 2.47,14.37 9.48,28.7 15.74,37.51 20.3,-3.96 31.77,-14.75 52.55,-18.33 -9.79,34.44 -21.81,79.2 8.35,92.85 9.18,4.16 15.82,7.23 27.28,6.23 -10.12,-23.98 2.77,-92.57 10.38,-119.38 12.51,-2.16 21.92,-0.5 21.94,-9.88 0.02,-7.18 -11.43,-13.21 -17.06,-15.72l25.42 -103.48c8.78,-19.76 21.16,-3.34 15.43,-36.62 -1.78,-10.36 -4.23,-11.25 -6.63,-20.52 -27.85,4.8 -13.41,16.48 -39.27,22.43 -18.2,4.19 -156.81,24.94 -152.35,50.81z"/>
     <path class="fil1" d="M3442.59 2842.91c2.81,16.32 14.21,19.67 25.7,23.43 3.22,-11.34 3.56,-21.64 7.41,-34.37 3.6,-11.87 10.89,-24.13 11.77,-33.92 -11.54,-5.15 -26.33,-17.26 -36.66,-2.38 -6.21,8.95 -10.74,32.6 -8.22,47.24z"/>
    </g>
   </g>
  </g>
 </g>
</svg>
