<?xml version="1.0" encoding="UTF-8"?>
<!DOCTYPE svg PUBLIC "-//W3C//DTD SVG 1.1//EN" "http://www.w3.org/Graphics/SVG/1.1/DTD/svg11.dtd">
<!-- Creator: CorelDRAW 2017 -->
<svg xmlns="http://www.w3.org/2000/svg" xml:space="preserve" width="15.0298mm" height="14.2238mm" version="1.1" style="shape-rendering:geometricPrecision; text-rendering:geometricPrecision; image-rendering:optimizeQuality; fill-rule:evenodd; clip-rule:evenodd"
viewBox="0 0 1502.98 1422.38"
 xmlns:xlink="http://www.w3.org/1999/xlink">
 <defs>
  <style type="text/css">
   <![CDATA[
    .fil0 {fill:#1A1A1A}
   ]]>
  </style>
 </defs>
 <g id="Capa_x0020_1">
  <metadata id="CorelCorpID_0Corel-Layer"/>
  <path class="fil0" d="M1070.23 1336.21c5.92,-24.35 87.43,-161.75 105.92,-195.52 17.21,-31.42 35.03,-63.17 52.38,-93.78 14.25,-25.16 38.05,-74.64 55.1,-94.8 21.19,3.46 156.3,47.72 169.57,58.44 -12.19,19.43 -25.55,27.91 -41.82,45.42l-253.24 272.67c-19.29,15.65 -59.63,7.77 -87.91,7.57zm-628.05 -513.04l17.08 40.19c3.76,4.37 4.93,3.27 8.09,5.76 3.61,37.5 89.17,153.96 97.81,201.43 3.9,21.44 27.56,185.86 22.65,203.5 -4.38,15.69 -22.33,39.66 -30.92,47.83 -27.63,-28.67 -260.4,-457.33 -279.21,-471.33l-20.81 -39.45c-6.1,-13.04 -6.99,-19.62 -4.46,-30.43l33.29 -29.27 73.47 -75.39c11.45,11.12 36.35,58.06 36.82,71.7l6.23 -1.12c4.65,15.55 8.87,22.94 16.26,36.39 8.35,15.21 10.58,23.78 21.94,34.02l1.76 6.17zm42.52 22.81c-3.77,-12.22 -0.06,-7 -6.08,-17.82 -6.99,-12.56 -4.3,-5.6 -10.33,-10.18l-7.49 -17.71c-4.64,-11.92 -8.35,-20 -14.1,-31.53l-19.26 -29.09c-1.73,-16.32 -26.51,-57.78 -35.59,-75.87 -20.26,-40.41 -24.8,-32.11 -70.34,-43.81 -38.58,-9.9 -154.07,-44.59 -185.66,-43.31l-37.49 64.52c-0.99,16.26 -47.51,102.28 -57.76,122.65 -10.88,21.63 -18.72,37.33 -31.07,60.69 -17.31,32.76 -9.4,38.83 10.2,60.43l146.74 173.27c14.15,16.18 14.73,11.89 17.93,25.68 13.64,8.98 134.47,147.6 145.25,170.63 5.44,2.29 0.79,-1.42 8.84,6.56l73.3 86.53c20.69,26.89 23.54,19.99 67.48,21.64 28.47,1.07 57.71,5.27 86.67,1.8 13.53,-21.66 33.6,-50.14 43.61,-74.28 24.57,8.33 61.17,34.43 83.75,48.13 46.08,27.97 34.49,23.47 90.32,6.8 52.34,-15.62 150.97,-52.62 199.38,-58.57 4.72,9.77 41.5,65.12 48.98,69.48 13.11,7.63 94.43,7.89 114.98,6.79 28.7,-1.54 36.92,-21.37 66.27,-54.51 19.29,-21.78 38.85,-40.05 57.65,-61.16 13.47,-15.13 226.42,-238.11 228.49,-247.76 -4.79,-42.62 -112.99,-176.5 -117.97,-214.61 -12.16,-9.37 -8.57,-7.27 -17.04,-21.6 -8.33,-14.09 -6.18,-13.15 -16.12,-20.9 -16.66,-5.97 -95.3,9.44 -114.91,15.36l-10.37 12.08c-6.34,10.19 -3.13,4.09 -6.35,16.63 33.38,-11.71 8.19,-26.36 55.1,-22.55l-4.98 18.52 46.43 -6.89 -42.32 119.15c-14.26,-5.38 -42.94,-36.92 -61.38,-54.19 -10.11,-9.46 -11.73,-12.3 -22.54,-16.58 2.68,20.74 -4.64,12.09 -0.84,32.85 14.23,28.83 46.58,45.14 67.16,69.59 -5.85,26.2 -85.95,159.9 -105.21,193.56l-105.15 191.82c-11.97,-6.33 -30.52,-30.21 -35.01,-41.42 -7.7,-19.25 28,-168.76 34.29,-192.58 12.49,-47.27 79.63,-192.4 79.86,-224.47l-23.32 -3.84c-0.75,-0.16 -2.24,-0.64 -3.4,-0.79 -8.9,-10.6 5.27,-44.2 3.68,-60.73 -5.35,-12.23 -3.24,-9.61 -16.46,-12.4 -0.06,9.84 1.55,0.09 -8.99,4.57l-99.56 469.35c-7.61,7.36 -1.66,2.93 -12.06,8.45l-213.58 63.39 -0.17 -877.87c18.3,-11.19 368.72,-86.92 412.57,-93.07l-80.17 388.66 24.86 1.63c0.04,-23.13 -1.77,-0.61 8.69,-10.77 12.31,-42.23 85.19,-383.88 81.99,-411.03l-386.23 -184.93c-39.52,-18.95 -41.42,-29.92 -76.01,-4.19 -25.49,18.96 -111.64,84.56 -133.46,93.45l-12.1 12.24c-5.26,4.18 -10.98,7.85 -16.14,11.46 -17.33,12.15 -97.68,67.44 -100.81,76.18 -3.21,56.3 25.41,141.44 19.57,193.72 6.59,9.01 61.98,418.87 58.29,440.42 -10.06,-17.94 -56.06,-112.18 -64.51,-117.67zm-252.03 -21.19c2.7,11.08 -0.14,7.13 6.42,18.9 2.05,3.69 3.23,5.25 5.84,8.17 5.13,5.74 2.54,2.66 8.1,6.96 2.53,20.02 19.61,40.24 30.49,59.47l104.19 179.11c23.21,40.12 45.33,79.08 68.88,118.57 14.94,25.05 61.88,99.43 69.42,123.89 -91.56,-1.59 -73.69,9.09 -152.38,-86.61l-166.11 -194.97c-18.43,-21.53 -36.51,-41.8 -54.45,-64.34 -19.99,-25.12 -101.47,-113.7 -109.29,-134.63l133.76 -39.96 45.41 -8.05 9.72 13.49zm51.75 -112.16c-12.78,5.95 -8.14,2.2 -20.01,14.64 -1.58,1.66 -7.97,8.69 -8.71,9.69 -5.44,7.31 -0.68,0.01 -5.99,10.53l-1.72 1.84c-6.44,3.52 -9.97,5.22 -16.22,8.46l-11.08 -15.16c-1.54,-32 -37.9,-90.43 -47.14,-126.37 27.19,2.17 144.27,30.22 158,42.34 -20.6,26.09 -43.77,37.29 -47.13,54.03zm-86.22 49.56l4.86 18.32c-13.39,3.29 -24.42,4.68 -32.4,12.99 -31.79,0.24 -86.07,24.46 -123.3,31.42l94.39 -192.93c9.76,10.06 48.73,108.14 56.45,130.2zm1144.23 37.77c6.94,6.51 7.94,7.8 14.55,18.27l88.56 152.14 -147.54 -47.81 44.43 -122.6zm-633.19 -355.91c13.6,7.16 8.1,34.14 7.94,49.98l-0.04 603.36c0,69.64 4.44,155.4 -0.9,223.07 -19.15,-8.31 -37.69,-21.13 -56.91,-32.96 -25.42,-15.66 -36.92,-12.71 -41.39,-49.19 -6.79,-55.31 -13.93,-109.08 -20.86,-163.56 -13.65,-107.14 -35.11,-226.99 -42.27,-333.85l-50.02 -379.14 204.45 82.29zm65.6 -280.87c17.15,-2.06 256.88,118.05 309.05,142.19l33.88 17.6c11.75,9.19 -0.67,-3.75 8.93,8.67l-376.17 81.2 24.31 -249.66zm-252.89 166.33c21.54,-19.42 201.85,-149.9 220.16,-157.03 -1.71,39.36 -14.91,211.12 -25.25,236.38 -24.63,-4.66 -183.86,-67.46 -194.91,-79.35zm558.61 415.96l-7.03 41.09c10.54,-4.48 8.93,5.27 8.99,-4.57 13.22,2.79 11.11,0.17 16.46,12.4 10.66,-13.03 12.58,-39.3 15.13,-58.06 -10.46,10.16 -8.65,-12.36 -8.69,10.77l-24.86 -1.63zm126.78 53.5l59.39 -10.06 4.98 -18.52c-46.91,-3.81 -21.72,10.84 -55.1,22.55 3.22,-12.54 0.01,-6.44 6.35,-16.63l10.37 -12.08c-7.65,0.7 -21.17,-1.3 -21.17,6.04l-24.53 1.49c-23.47,2.76 -56.9,3.2 -68.68,19.17 -8.73,11.84 -20.01,50.69 -23.65,64.19 1.16,0.15 2.65,0.63 3.4,0.79l23.32 3.84c0.84,-0.87 1.9,-3.6 2.21,-2.88l17.71 -28.9c15.69,12.34 26.47,26.32 44.14,35.28 -3.8,-20.76 3.52,-12.11 0.84,-32.85l-15.56 -20.96 16.77 -10.56 19.21 0.09zm-1077.38 434.31l-1.76 33.23c-27.63,17.36 -80.99,8.21 -110.62,22.1l110.96 17.72 16.7 110.44 17.91 -109.13c15.4,-9.57 81.88,-16.01 95.28,-12.74l11.24 -9.63 -108.03 -16.41c-5.83,-34.43 -4.14,-81.49 -19.17,-107.88 -2.26,22.16 -2.27,57.68 -12.51,72.3zm131.38 -1098.4l114.21 17.76 14.5 112.19 18.07 -109.71c16.16,-7.68 40.1,-8.7 60.03,-11.39 18.07,-2.45 36.95,-5.74 54.6,-8.38 -34.38,-6.78 -86.76,-5.47 -113.18,-20.26l-17.24 -109.48c-6.96,18.94 -10.98,98.68 -19.17,108.84 -8.23,10.21 -90.21,16.65 -111.82,20.43zm982.44 338.91c32.09,6.21 88.99,6.49 113.51,20.27 7.71,32.37 6.15,81.02 19.76,97.98l14.68 -97.98c29.56,-15.61 80.32,-8.41 111.27,-21.46l-112.02 -17.14 -15.93 -106.58c-11.74,21.07 -13.95,79.98 -17.49,108.27l-113.78 16.64z"/>
 </g>
</svg>
