<?xml version="1.0" encoding="UTF-8"?>
<!DOCTYPE svg PUBLIC "-//W3C//DTD SVG 1.1//EN" "http://www.w3.org/Graphics/SVG/1.1/DTD/svg11.dtd">
<!-- Creator: CorelDRAW 2017 -->
<svg xmlns="http://www.w3.org/2000/svg" xml:space="preserve" width="50.7998mm" height="33.8666mm" version="1.1" style="shape-rendering:geometricPrecision; text-rendering:geometricPrecision; image-rendering:optimizeQuality; fill-rule:evenodd; clip-rule:evenodd"
viewBox="0 0 5079.98 3386.66"
 xmlns:xlink="http://www.w3.org/1999/xlink">
 <defs>
  <style type="text/css">
   <![CDATA[
    .fil0 {fill:none}
    .fil4 {fill:#334976}
    .fil2 {fill:#284579}
    .fil3 {fill:#566A89}
    .fil1 {fill:#A7C6D5}
   ]]>
  </style>
 </defs>
 <g id="Capa_x0020_1">
  <metadata id="CorelCorpID_0Corel-Layer"/>
  <rect class="fil0" x="-0" width="5079.99" height="3386.66"/>
  <g id="_1689222030528">
   <path class="fil1" d="M1562.49 1062.21l76.75 28.83c-123.47,-49.06 -105.71,-118.2 -218.41,-145.9 15.68,-49.35 22.14,-39.71 -26.26,-21.43 -18.28,-58.43 32.76,-31.81 -52.09,-45.21 -24.57,-67.85 25.03,-14.09 -40.25,-28.19l-32.43 -61.77c-25.6,-39.56 -7.72,-7.4 -39.07,-52.92l567.16 325.58c43.45,29.62 61.67,44.39 109.96,77.91 91.3,63.36 163.28,95.74 214.99,156.54 -260.28,108.86 -351.05,-49.66 -560.35,-233.44zm259.55 299.2c-6.48,-4.44 -24.29,-13.86 -27.98,-17.2 -42.75,-38.64 -13.28,0.21 -46.4,-51.77 106.09,45.33 113.75,54.63 74.38,68.97zm-656.43 -626.24c23.61,-18.15 25.37,-12.45 48.72,-39.32 49.04,-56.46 17,-11.62 34.66,-56.83l-140.2 94.11 59.5 -59.77c3.64,-3.19 9.41,-7.24 13.08,-10.46 3.65,-3.21 9.31,-7.31 12.89,-10.58l109.75 -126.3c20.76,49 12.26,58.51 -21.82,116.94l-54.45 65.62c-3.87,2.76 -10.29,6.31 -14.25,8.62 -8.4,4.91 -38.51,15.14 -47.88,17.97zm-112.33 0.14l6.16 -89.53 40.41 -52.92 -23.69 87.66 93 -73.67c-2.52,4.85 -6.7,7 -8.08,14.26 -1.36,7.14 -6.62,11.22 -8.6,13.62l-99.2 100.58zm36.93 -138.08l-23.56 16.67 23.56 -16.67zm177.49 259.42l-50.91 -39.72c6.23,1.1 16.53,-4.06 18.55,4.04 1.81,7.25 13.08,5.17 15.28,7.47l17.08 28.21zm92.26 72.43l-50.3 -41.92c71.45,15.78 31.81,-6.64 50.3,41.92zm168.77 104.79l-93.01 -59.49 93.01 59.49zm82.24 163.66l-100.08 -90.71c-3.32,-2.7 -10.3,-7.55 -15.04,-11.82 63.86,37.78 91.32,34.07 115.12,102.53zm93.06 72.61c-58.14,-21.79 -30.14,-5.68 -50.71,-49.24l46.16 31.14c2.04,3.2 3.32,12 4.55,18.1z"/>
   <path class="fil2" d="M912.19 505.59l-93 73.67 23.69 -87.65c83.41,-52.89 29.74,-45.16 97.69,-125.41l119.1 -101.33c-11.51,106.64 -92.4,167.58 -147.48,240.72z"/>
   <path class="fil3" d="M3617.25 2118c30.87,35.23 52.35,55.31 72.67,86.56 -136.32,-73.81 -271.4,-249.49 -278.71,-366.97 42.63,70.6 85.26,141.2 127.88,211.8l78.16 68.61z"/>
   <path class="fil1" d="M3558.32 2258.08l70.3 26.41c-113.09,-44.94 -96.83,-108.27 -200.05,-133.64 14.35,-45.21 20.28,-36.38 -24.05,-19.63 -16.75,-53.52 30,-29.14 -47.72,-41.41 -22.5,-62.15 22.93,-12.91 -36.87,-25.83l-29.7 -56.57c-23.45,-36.24 -7.07,-6.78 -35.79,-48.48l320.99 236.46c82.91,128.82 368.85,251.34 496.15,276.51 -238.41,99.71 -321.55,-45.49 -513.26,-213.82zm237.73 274.05c-5.93,-4.06 -22.24,-12.69 -25.63,-15.75 -39.15,-35.4 -12.16,0.19 -42.49,-47.42 97.17,41.52 104.19,50.03 68.12,63.17zm-601.25 -573.61c21.62,-16.62 23.23,-11.4 44.62,-36.02 44.92,-51.71 15.58,-10.63 31.74,-52.05l-128.41 86.2 54.5 -54.74c3.33,-2.92 8.62,-6.63 11.98,-9.58 3.35,-2.94 8.53,-6.7 11.81,-9.7l100.52 -115.68c19.02,44.88 11.23,53.59 -19.98,107.11l-49.88 60.1c-3.54,2.54 -9.42,5.78 -13.05,7.9 -7.7,4.5 -35.27,13.87 -43.85,16.46zm-102.9 0.13l5.65 -82.01 37.02 -48.47 -21.71 80.29 85.19 -67.48c-2.31,4.45 -6.14,6.42 -7.41,13.07 -1.24,6.54 -6.06,10.27 -7.87,12.47l-90.87 92.13zm33.83 -126.47l-21.58 15.26 21.58 -15.26zm162.57 237.61l-46.63 -36.38c5.71,1.01 15.15,-3.71 16.99,3.7 1.66,6.65 11.98,4.74 14,6.84l15.64 25.84zm84.51 66.35l-46.07 -38.4c65.44,14.45 29.13,-6.08 46.07,38.4zm154.59 95.98l-85.19 -54.49 85.19 54.49zm75.33 149.9l-91.67 -83.08c-3.05,-2.47 -9.44,-6.92 -13.78,-10.83 58.49,34.6 83.65,31.21 105.45,93.91zm85.23 66.51c-53.25,-19.96 -27.6,-5.2 -46.44,-45.1l42.28 28.53c1.87,2.93 3.04,10.99 4.16,16.57z"/>
   <path class="fil1" d="M3518.17 3061.98l-6.45 -81.01 163.16 -14.42 45.1 70.12c-95.98,20.21 -91.77,30.97 -201.81,25.31z"/>
   <path class="fil1" d="M3529.34 2896.46c86.03,8.06 103.37,-34.82 129.31,39.78 -43.34,32.26 -96.59,17.59 -139.73,4.52l10.42 -44.3z"/>
   <path class="fil2" d="M4087.49 1521.85c314.59,201.99 -247.37,-158.85 0,0z"/>
   <path class="fil2" d="M3995.37 2099.75c-22.11,-142.09 -195.9,-268.42 -309.16,-325.14l-19.2 -29.51 -38.53 -10.31 -108.87 -11.77 0.02 67.79 108.09 175.42c-54.3,-23.67 -1.14,17.52 -67.65,-44.96 -31.66,-29.75 -24.62,-31.63 -45.63,-61.27 -9.28,-61.95 -82.99,-106.95 5.85,-194.74 145.18,-23.6 233.93,75.98 326.43,155.6 107.69,92.71 205.66,128.67 210.82,325.78l-62.17 -46.89z"/>
   <path class="fil2" d="M3559.83 1812.22c22.11,142.09 195.9,268.41 309.16,325.14l19.2 29.51 38.53 10.31 108.87 11.77 -0.02 -67.79 -108.09 -175.42c54.3,23.67 1.14,-17.52 67.65,44.95 31.66,29.76 24.62,31.64 45.63,61.28 9.28,61.95 82.99,106.94 -5.85,194.74 -145.18,23.6 -233.92,-75.98 -326.43,-155.6 -107.69,-92.71 -205.66,-128.67 -210.82,-325.78l62.17 46.89z"/>
   <path class="fil4" d="M3011.57 3008.53c-67.01,17.25 -129.35,-48.79 -174.03,-87.07 -93.95,-80.47 -180.8,-144.83 -251.67,-256.77l-22.74 -99.95c-29.9,-148.95 3.37,-309.32 73.66,-460.26l52.83 21.82c-56.79,207.4 -81.85,288.76 -54.24,503.89 82.5,158.11 237.97,296.68 403.1,359.47l-26.91 18.87zm-285.63 -1461.55c216.03,-99.13 5.56,241.19 336.7,85.92 43.97,-18.53 77.34,-39.07 122.85,-58.85 246.33,-107.09 533.16,-41.57 714.54,66.87 237.06,141.69 376.38,402.3 377.37,690.21 0.38,111.2 -37.87,176.34 -93.87,261.56 -98.54,149.96 -187.41,269.46 -314.81,396.31 -78.22,77.87 -119.94,95.52 -236.54,118.95 -206.36,41.46 -404.06,8.6 -574.42,-105.97 -64.31,-30 -112.55,-55.87 -152.24,-81.85l0 65.07c91.22,72.08 165.7,123.86 176.18,129.03 113.27,60.9 237.02,90.29 360.93,92.42l29.69 0c192.3,-3.41 382.99,-71.71 533.46,-189.19 143.42,-111.97 264.67,-287.15 307.66,-496.14 60.84,-295.8 -15.2,-386.25 -100.71,-611.72 -4.99,-13.16 -6.59,-21.69 -12.1,-33.18l-44.21 -63.35c-14.66,-9.69 -21.73,-17.13 -40.7,-21.56 13.69,-90.68 -262.47,-203.85 -583.24,-300.53 -76.63,-11.66 -501.02,93.25 -579.59,124.58 -77.53,30.92 -107.2,-161.48 -199.12,-127.26 -14.11,5.26 -30.54,14.36 -48.46,25.74l20.63 32.94zm-1129.17 -961.17l5.67 -11.32c-25.21,-5.87 -55.91,-10.92 -86.95,-11.29 12.52,-73.47 41.2,0.24 -197.56,-182.81 -280.67,-215.19 -87.54,-71.85 -191.89,-200.36 -161.25,10.52 -187.57,91.89 -260.05,183.04 -62.25,78.29 -140.96,154.14 -117.01,272.27 19.36,40.95 402.12,210.83 489.9,358.4 63.86,37.78 91.32,34.08 115.12,102.53l42.35 23.38 46.16 31.14c2.04,3.2 3.32,12 4.55,18.1l43.63 22.3c106.09,45.33 113.75,54.62 74.37,68.97l842.31 619.61 -1.14 7.97c17.83,1.49 161.26,92.37 174.35,103.02 45.77,60.34 60.12,102.98 56.34,135.54l52.7 0c1.55,-2.38 3.11,-4.84 4.67,-7.38 12.8,-72.18 -17.9,-112.67 -61.78,-149.64 -131.58,-110.85 -100.17,-25.79 -100.14,-98.46 -36.62,0.68 -22.59,12.51 -53.28,-8.89 -10.8,-7.54 -18.59,-14.55 -28.43,-19.77l-13.05 11.69 -165.12 -101.81 18.89 -12.16 -575.63 -458.01c-211.08,-237.75 -138.85,24.74 -410.23,-320.92l-33.76 -28.33 -93.01 -59.5c-36.7,-2.3 -29.34,6.01 -14.89,-29.23 -50.59,12.67 -48.62,25.93 -26.26,-21.43l-34.61 5.37 -50.3 -41.92c-69.62,-10.94 44.61,-46.42 -41.96,-30.51l-50.91 -39.72c-77.17,-40.61 -23.97,4.37 -51.18,-81.76 23.6,-18.15 25.37,-12.45 48.72,-39.33 49.04,-56.45 17,-11.61 34.65,-56.83l-140.19 94.11 -55.52 2.18 6.17 -89.53 7.21 -31.87 23.56 -16.67c42.83,-94.56 140.73,-240.91 256.38,-263.54 219.96,230.28 39.31,58.26 267.11,231.6l49.62 40.84 43.4 31.69 61.8 35.02c-1.66,28.64 -8.36,17.8 -22.33,36.87 35.12,2.92 52.23,19.69 76.98,36.23 25.21,16.84 42.66,28.65 66.92,46.29 85.37,62.06 18,17.24 51.45,51.04 2.03,2.04 58.94,34.31 67.55,39.41l472.97 372.52c57.33,51.36 37.66,24.42 70.68,62.07 12.13,13.84 13.16,17.04 24.35,32.8 44.97,6.39 14.99,-6.93 59.53,22.18 54.33,35.54 113.23,67.94 171.72,106.94 60.61,40.42 90.93,76.29 128.08,112.13l7.72 -4.97 17.7 28.25 0.65 0.56 28.48 -16.64c-27.82,-39.45 -57.36,-99.11 -77.34,-109.92 -25.22,-13.64 -47.51,-25.82 -66.6,-36.35l-132.72 -111.93c-33.71,-29.21 -14.27,-14.11 -48.77,-34.64 -66.7,-39.68 -114.92,-81.41 -184.13,-133.87 -83.72,-63.46 -481.7,-361.27 -541.2,-418.38 -50.12,-59.53 -28.39,-26.01 -86.47,-66.37z"/>
  </g>
 </g>
</svg>
