<?xml version="1.0" encoding="UTF-8"?>
<!DOCTYPE svg PUBLIC "-//W3C//DTD SVG 1.1//EN" "http://www.w3.org/Graphics/SVG/1.1/DTD/svg11.dtd">
<!-- Creator: CorelDRAW 2017 -->
<svg xmlns="http://www.w3.org/2000/svg" xml:space="preserve" width="50.7998mm" height="33.8666mm" version="1.1" style="shape-rendering:geometricPrecision; text-rendering:geometricPrecision; image-rendering:optimizeQuality; fill-rule:evenodd; clip-rule:evenodd"
viewBox="0 0 5079.98 3386.66"
 xmlns:xlink="http://www.w3.org/1999/xlink">
 <defs>
  <style type="text/css">
   <![CDATA[
    .fil3 {fill:#D2D3D5}
    .fil0 {fill:#CEB69D;fill-rule:nonzero}
    .fil2 {fill:#DE271C;fill-rule:nonzero}
    .fil1 {fill:#FA564A;fill-rule:nonzero}
   ]]>
  </style>
 </defs>
 <g id="Capa_x0020_1">
  <metadata id="CorelCorpID_0Corel-Layer"/>
  <g id="_2010848813120">
   <polygon class="fil0" points="2449.63,2035.86 2366.17,2035.86 2258.06,1709.26 2330.71,1709.26 2406.01,1960.56 2470.05,1709.26 2550.86,1709.26 2624.42,1960.56 2694.36,1709.26 2764.14,1709.26 2664.27,2035.86 2579.9,2035.86 2511.02,1792.72 "/>
   <polygon class="fil1" points="2397.7,2035.86 2327.39,2035.86 2327.39,1709.26 2428.69,1709.26 2511.33,1959.66 2594.41,1709.26 2694.81,1709.26 2694.81,2035.86 2627.22,2035.86 2632.67,1782.07 2549.51,2035.86 2476.32,2035.86 2390.51,1779.79 "/>
   <path class="fil2" d="M263.01 2047.91l-91.97 0 0 -427.23 132.52 0 108.09 327.54 108.69 -327.54 131.33 0 0 427.23 -88.41 0 7.12 -331.99 -108.79 331.99 -95.73 0 -112.24 -334.96 9.39 334.96zm607.91 -350.68l-40.55 0 56.47 -82.48 86.04 0 -101.96 82.48zm5.93 357.21c-40.05,0 -73.38,-8.9 -100.08,-26.7 -22.75,-15.23 -39.95,-36.3 -51.52,-63.2 -9.89,-22.94 -14.84,-47.47 -14.84,-73.58 0,-43.61 12.76,-80.4 38.27,-110.16 30.17,-35.11 72.89,-52.72 128.17,-52.72 45.39,0 83.27,12.86 113.63,38.57 34.81,29.38 52.22,70.81 52.22,124.31 0,47.18 -14.24,85.75 -42.63,115.61 -30.16,31.95 -71.2,47.87 -123.22,47.87zm-0.99 -67.65c20.28,0 37.58,-6.23 51.82,-18.59 19.29,-16.61 28.98,-42.03 28.98,-76.05 0,-30.95 -7.81,-54.98 -23.44,-71.99 -14.34,-15.53 -32.83,-23.24 -55.68,-23.24 -23.53,0 -42.62,8.1 -57.35,24.42 -15.43,17.21 -23.15,40.85 -23.15,70.81 0,28.68 7.32,51.62 22.06,68.83 14.63,17.21 33.52,25.81 56.76,25.81zm299.36 61.12l-81.89 0 0 -312.71 154.87 0c46.48,0 80.01,8.71 100.48,26.02 20.47,17.4 30.66,46.87 30.66,88.31l0 198.38 -83.67 0 0 -187.4c0,-23.15 -2.87,-38.08 -8.7,-44.61 -6.53,-7.51 -21.56,-11.27 -45.2,-11.27l-66.55 0 0 243.28zm274.53 -312.9l85.45 0 0 312.9 -85.45 0 0 -312.9zm0 -114.33l85.45 0 0 77.74 -85.45 0 0 -77.74zm328.23 360.18l87.03 0 0 67.05 -111.26 0c-54.19,0 -95.53,-14.04 -123.91,-42.03 -27.4,-27 -41.14,-64.77 -41.14,-113.43 0,-26.9 3.46,-49.94 10.38,-69.23 9.49,-26.2 25.32,-46.68 47.57,-61.41 26.8,-17.7 62.5,-26.61 107.1,-26.61l111.26 0 0 68.24 -87.03 0c-22.25,0 -39.36,1.68 -51.33,4.95 -16.61,4.45 -28.87,12.66 -36.78,24.52 -9.3,13.75 -13.95,33.63 -13.95,59.64 0,17.4 1.98,31.25 5.84,41.73 5.34,14.64 14.93,25.71 28.68,33.23 16.02,8.9 38.57,13.35 67.54,13.35zm286.4 -180.98l-138.35 0 0 -64.68 169.31 0c86.04,0 129.05,38.87 129.05,116.7l0 196.01 -221.82 0c-30.16,0 -53.89,-8.31 -71.3,-24.92 -17.41,-16.61 -26.11,-39.16 -26.11,-67.74 0,-37.98 12.36,-64.48 37.09,-79.61 19.38,-11.77 48.75,-17.61 88.21,-17.61l109.67 0c0,-21.95 -5.33,-37.18 -16.11,-45.59 -10.68,-8.4 -30.56,-12.56 -59.64,-12.56zm-27.89 185.73l103.64 0 0 -65.27 -97.8 0c-15.13,0 -26.11,1.58 -33.13,4.64 -11.18,4.95 -16.81,14.34 -16.81,27.99 0,12.86 3.75,21.76 11.27,26.61 6.43,4.05 17.41,6.03 32.83,6.03z"/>
   <path class="fil1" d="M3085.22 2047.99l-109.18 0 -141.42 -427.22 95.04 0 98.5 328.72 83.76 -328.72 105.72 0 96.22 328.72 91.48 -328.72 91.28 0 -130.64 427.22 -110.37 0 -90.09 -318.04 -80.3 318.04zm590.4 6.53c-40.05,0 -73.38,-8.9 -100.08,-26.7 -22.75,-15.23 -39.96,-36.3 -51.53,-63.2 -9.89,-22.94 -14.83,-47.47 -14.83,-73.57 0,-43.62 12.76,-80.41 38.27,-110.17 30.16,-35.11 72.89,-52.71 128.17,-52.71 45.39,0 83.27,12.85 113.63,38.56 34.81,29.38 52.22,70.81 52.22,124.32 0,47.17 -14.24,85.74 -42.63,115.61 -30.16,31.94 -71.2,47.86 -123.22,47.86zm-0.99 -67.65c20.27,0 37.58,-6.23 51.82,-18.59 19.29,-16.61 28.98,-42.03 28.98,-76.05 0,-30.95 -7.81,-54.98 -23.44,-71.99 -14.34,-15.53 -32.83,-23.24 -55.68,-23.24 -23.53,0 -42.62,8.1 -57.36,24.42 -15.42,17.21 -23.14,40.85 -23.14,70.81 0,28.68 7.32,51.63 22.05,68.83 14.64,17.21 33.53,25.81 56.77,25.81zm362.55 67.65c-40.05,0 -73.38,-8.9 -100.08,-26.7 -22.75,-15.23 -39.96,-36.3 -51.53,-63.2 -9.89,-22.94 -14.83,-47.47 -14.83,-73.57 0,-43.62 12.76,-80.41 38.27,-110.17 30.16,-35.11 72.89,-52.71 128.17,-52.71 45.39,0 83.27,12.85 113.63,38.56 34.81,29.38 52.22,70.81 52.22,124.32 0,47.17 -14.24,85.74 -42.63,115.61 -30.16,31.94 -71.2,47.86 -123.22,47.86zm-0.99 -67.65c20.27,0 37.58,-6.23 51.82,-18.59 19.28,-16.61 28.98,-42.03 28.98,-76.05 0,-30.95 -7.82,-54.98 -23.44,-71.99 -14.34,-15.53 -32.83,-23.24 -55.68,-23.24 -23.54,0 -42.62,8.1 -57.36,24.42 -15.42,17.21 -23.14,40.85 -23.14,70.81 0,28.68 7.32,51.63 22.05,68.83 14.64,17.21 33.53,25.81 56.77,25.81zm423.37 -366.1l83.66 0 0 427.22 -158.92 0c-42.72,0 -77.93,-11.77 -105.72,-35.3 -31.65,-26.9 -47.47,-64.58 -47.47,-113.24 0,-65.07 15.23,-108.68 45.79,-130.84 30.46,-22.25 91.38,-33.33 182.66,-33.33l0 -114.51zm0 360.17l0 -178.01 -9 0c-3.46,0 -6.73,0 -9.89,0 -48.26,0 -80.4,5.83 -96.23,17.6 -17.4,12.96 -26.1,39.76 -26.1,80.51 0,34.71 10.08,57.16 30.16,67.14 17.01,8.51 54,12.76 111.06,12.76zm363.24 67.05l-212.13 0 0 -64.67 174.05 0c29.38,0 44.11,-10.49 44.11,-31.45 0,-20.18 -14.73,-30.27 -44.11,-30.27l-71.99 0c-24.53,0 -43.02,-1.48 -55.38,-4.35 -17.41,-4.05 -30.26,-11.86 -38.57,-23.44 -9.49,-13.15 -14.24,-32.73 -14.24,-58.84 0,-66.46 36.79,-99.69 110.37,-99.69l177.02 0 0 64.68 -146.07 0c-21.07,0 -35.11,1.69 -42.23,4.95 -9.49,4.25 -14.24,12.85 -14.24,26.01 0,17.31 13.15,26.01 39.46,26.01l75.36 0c31.15,0 55.38,5.93 72.78,17.9 21.26,14.73 31.95,37.97 31.95,69.82 0,29.66 -7.92,54.39 -23.64,73.97 -15.72,19.58 -36.59,29.37 -62.5,29.37z"/>
   <path class="fil3" d="M2649.93 1652.39c2.65,-14.99 100.55,-102.72 113.59,-114.07l32.82 12.9c-19.36,24.43 -11.25,-3.09 -39.22,16.93l-72.97 61.68c-13.28,12.44 -15.42,23.36 -34.22,22.56zm-365.25 -54.38c-14.4,-12.39 -19.73,-24.63 -36.31,-33.81 -24.54,-13.59 -17.94,9.79 -36.85,-14.28l32.6 -10.75c26.26,14.84 37.92,32.29 60.37,56.58 26.2,28.35 52.2,36.37 53.91,57.37 -17.83,-2.27 -26.59,-13.03 -38.65,-25.95 -14.8,-15.85 -20.28,-16.44 -35.07,-29.16zm341.8 -153.62c1.38,-0.76 3.19,-1.77 4.2,-2.19l56.05 -11.99 23.82 51.03c-16.41,34.89 -57.92,82.49 -81.91,116.3 -11.64,16.41 -11.01,27.69 -32.5,28.25 7.17,-20.3 41.94,-65.28 56.36,-86.04 9.51,-13.69 22.76,-30.64 30.99,-45.31 10.52,-18.76 1.53,-25.79 -3.2,-46.46 -34.05,5.05 -37.04,0.84 -47.88,30.35l-43.6 126.23c-11.65,27.32 0.02,7.47 -12.3,15.85 -6.09,-15.53 40.03,-152.87 49.97,-176.02zm-303.93 -14.41l60 11.75c8.68,30.91 19.47,64.51 28.73,93.6l21.24 67.07c3.98,21.93 2.55,9.39 -1.8,18.36 -3.18,-3.61 -3.16,-2.18 -7.28,-9.57 -3.14,-5.63 -3.06,-6.65 -5.11,-12.04 -34.07,-89.67 -29.34,-144.23 -86.16,-150.74l-14.28 32.83c17.88,27.83 30.71,48.4 49.37,75.11 14.48,20.72 37.81,49.94 45.49,70.89 -22.99,-2.72 -7.41,5.09 -21.59,-13.09l-92.85 -132.94 24.24 -51.23zm129.1 -26.86c24.43,-11.39 31.64,-24.82 54.88,-34.33 14.75,8.49 32.26,23.17 47.42,36.64 5.92,11.27 -29.33,211.68 -33.2,201.68 -0.35,-0.88 -1.62,2.88 -2.56,4.24 -8.32,-14.7 -3.58,-29.68 -0.85,-49.59l17.36 -149.53c-12.35,-7.76 -14.95,-12.3 -28.17,-20.25 -17.12,7.42 -19.29,8.67 -32.46,21.79l17.75 150.95c4.33,29.3 6.73,33.56 -2.78,45.89 -15.68,-28.27 -34.29,-166.59 -37.39,-207.49zm-26.91 -9.35c1.35,32.99 11.34,67.08 18.02,99.13l14.69 71.89c1.64,27.27 4.82,6.78 -3.4,21.4 -21.01,-11.51 -37.55,-118.46 -54.38,-166.99l-90.82 -18.78 -41.17 85.3c18.67,22.82 96.73,112.06 97.16,132.55 -24.39,-6.18 -94.63,-87.57 -114.89,-107.29l-84.69 27.02c13.28,15.83 198.33,142.76 218.81,152.47 142.23,-62.71 161.09,-22.72 246.83,0.54 26.94,-29.64 191.96,-126.41 211.68,-151.46l-87.03 -30.67c-18,19.57 -94.75,104.29 -112.18,108.97 -0.67,-12.65 2.01,-13.16 18.35,-33.88l77.92 -95.34 -39.34 -88.08c-109.54,15.83 -89.7,7.94 -115.68,106.33 -12.4,46.99 -12.41,71.71 -34.69,79.85l36.09 -192.56c-27.05,-20.82 -55.21,-46.36 -80.44,-62.03 -16.15,8.29 -65.07,45.32 -80.84,61.63z"/>
  </g>
 </g>
</svg>
