<?xml version="1.0" encoding="UTF-8"?>
<!DOCTYPE svg PUBLIC "-//W3C//DTD SVG 1.1//EN" "http://www.w3.org/Graphics/SVG/1.1/DTD/svg11.dtd">
<!-- Creator: CorelDRAW 2017 -->
<svg xmlns="http://www.w3.org/2000/svg" xml:space="preserve" width="8.8898mm" height="2.5398mm" version="1.1" style="shape-rendering:geometricPrecision; text-rendering:geometricPrecision; image-rendering:optimizeQuality; fill-rule:evenodd; clip-rule:evenodd"
viewBox="0 0 888.98 253.98"
 xmlns:xlink="http://www.w3.org/1999/xlink">
 <defs>
  <style type="text/css">
   <![CDATA[
    .fil0 {fill:#8E8985}
   ]]>
  </style>
 </defs>
 <g id="Capa_x0020_1">
  <metadata id="CorelCorpID_0Corel-Layer"/>
  <path class="fil0" d="M378.52 110.07c0.21,17.2 -5.66,31.79 -17.6,43.78 -11.94,11.97 -26.57,18.02 -43.91,18.12l-38.62 0.31 0 -123.65 38.31 0c17.13,0 31.66,5.97 43.6,17.88 11.94,11.94 18.01,26.45 18.22,43.56zm-266.52 -32.23c1.02,-1.99 4.9,-5.53 6.64,-7.5 0.8,-0.91 1.38,-1.78 2.22,-2.56 1.62,0.73 2.65,2 5.1,2.91 2.34,0.87 4.29,1.14 6.93,1.09 5.62,-0.12 8.09,-2.28 11.67,-4.42 3.81,2.36 6.26,4.27 11.68,4.42 2.55,0.08 4.77,-0.26 6.91,-1.11 2.96,-1.17 3.83,-2.36 5.05,-2.9l8.89 9.66c-0.75,2.2 -2.37,3.14 -4.38,9.88 -1.14,3.79 -1.39,8.68 -0.74,12.75 1.51,9.52 10.47,21.09 1.71,33.36 -5.73,8.02 -8.52,6.7 -19.38,8.68 -6.95,1.26 -7.07,2.89 -9.74,4.36 -3.3,-2.26 -4.67,-3.47 -9.72,-4.35 -3.26,-0.58 -9.01,-1.18 -11.8,-2.23 -5.68,-2.13 -10.68,-9.04 -11.42,-16.69 -1.32,-13.55 13.6,-23.37 0.38,-45.35zm6.71 0.08l1.55 0c0.34,1.09 0.93,1.86 1.74,2.32 1.05,0.62 2.77,0.92 5.14,0.92 1.51,0 6.32,-0.14 14.41,-0.46 4.89,-0.19 7.93,-0.29 9.15,-0.29 3.63,0 6.73,0.63 9.29,1.88 2.56,1.24 4.64,3.16 6.24,5.75 1.59,2.58 2.66,6.15 3.19,10.69 0.37,3.18 0.68,10.18 0.94,21.01 -4.28,2.69 -7.56,5.03 -9.87,7.01 -6.95,-1.94 -13.11,-2.9 -18.43,-2.9 -3.61,0 -6.97,0.44 -10.05,1.3 -3.1,0.87 -6.38,2.25 -9.84,4.15l-0.97 -1.24c4.51,-2.33 8.47,-4.7 11.88,-7.14 3.42,-2.44 5.66,-4.61 6.75,-6.54 1.09,-1.92 1.64,-4.36 1.64,-7.32 0,-1.08 -0.02,-2.67 -0.07,-4.77 -0.04,-1.47 -0.07,-3 -0.07,-4.58 0,-2.79 0.16,-4.84 0.47,-6.15 0.31,-1.33 0.96,-2.84 1.96,-4.55l-0.84 0c-2.66,1.54 -4.44,2.93 -5.31,4.19 -0.89,1.27 -1.33,2.87 -1.33,4.82l0.27 11.67c0,3.12 -0.93,5.9 -2.8,8.37 -1.87,2.47 -6.36,6.02 -13.46,10.66l-0.98 -1.31c3.59,-2.48 5.96,-4.52 7.11,-6.13 1.14,-1.59 1.72,-3.27 1.72,-5.01 0,-1.51 -0.49,-2.79 -1.46,-3.85 -0.97,-1.06 -2.05,-1.59 -3.21,-1.59 -0.6,0 -1.16,0.17 -1.67,0.49 -0.5,0.34 -1.19,1.03 -2.05,2.07l-1.04 -1.04c0.75,-1.9 1.76,-3.29 3,-4.17 1.26,-0.88 2.77,-1.32 4.52,-1.32 0.5,0 1.06,0.05 1.68,0.17 0.61,0.1 1.27,0.27 1.98,0.49 -0.05,-1.28 -0.07,-2.39 -0.07,-3.33 0,-3.45 0.69,-6.26 2.08,-8.42 1.38,-2.17 4.04,-4.42 7.95,-6.78 -3.62,0.37 -6.77,0.56 -9.4,0.56 -2.8,0 -5.19,-0.39 -7.19,-1.18 -1.5,-0.62 -2.6,-1.59 -3.3,-2.93 -0.7,-1.35 -1.12,-3.19 -1.25,-5.52zm26.67 9.09c-0.95,1.61 -1.58,3 -1.9,4.18 -0.44,1.62 -0.66,3.14 -0.66,4.54l0.27 12.98c0,1.66 -0.42,3.36 -1.24,5.09 -0.63,1.31 -1.82,2.88 -3.55,4.74 3.18,-0.53 5.62,-0.77 7.3,-0.75l1.86 0.03 0 -30.81 -2.08 0zm3.77 12.66c1.33,0.96 2.5,1.61 3.5,1.97 1,0.34 2.08,0.52 3.23,0.52 1.17,0 2.25,-0.18 3.26,-0.55 1.01,-0.36 2.19,-1.01 3.54,-1.94 -0.41,-4.95 -1.68,-8.29 -3.81,-10.03 -2.12,-1.75 -5.37,-2.63 -9.72,-2.63l0 12.66zm0 10.84c1.48,-0.85 2.75,-1.43 3.8,-1.75 1.05,-0.31 2.19,-0.47 3.44,-0.47 1.2,0 2.31,0.15 3.34,0.44 1.02,0.29 2.26,0.84 3.69,1.65l-0.52 -8.89c-1.39,0.85 -2.61,1.44 -3.63,1.75 -1.01,0.32 -2.12,0.47 -3.33,0.47 -1.16,0 -2.3,-0.19 -3.45,-0.56 -1.13,-0.37 -2.24,-0.92 -3.34,-1.66l0 9.02zm0 7.41c2.66,0.22 4.82,0.49 6.5,0.8 1.67,0.31 4.28,0.97 7.84,1.96 0.05,-3.31 0.07,-5.01 0.07,-5.13 0,-0.25 -0.02,-1.31 -0.07,-3.15 -1.39,-0.96 -2.62,-1.63 -3.68,-2 -1.07,-0.37 -2.21,-0.56 -3.46,-0.56 -1.27,0 -2.43,0.19 -3.52,0.56 -1.08,0.37 -2.3,1.04 -3.68,2l0 5.52zm11.33 59.35c4.11,0.37 7.64,-0.26 11.39,-1.55 0.41,-0.15 0.38,-0.06 0.54,-0.47 0.29,-0.71 0.58,-1.46 0.64,-2.26 -4.83,0.63 -5.06,1.18 -10.68,0.87 -2.58,-0.15 -3.6,-0.72 -5.03,-2.19 -0.26,-0.27 -0.47,-0.41 -0.71,-0.71l-1.3 -1.5c0.27,0.45 0.79,1.62 1.03,2.19 0.62,1.45 1.14,3.81 1.76,4.76 0.48,0.73 1.15,0.87 2.36,0.86zm-14.5 -14.27l0.18 1.34c-0.04,0.23 0.47,12.14 0.31,12.85 0.39,0.12 1.88,0.09 2.31,0 0.07,-0.05 0.15,-0.1 0.26,-0.19 0.24,-0.22 0.1,0 0.2,-0.27 0.1,-0.56 -0.29,-13.27 0.34,-14.07 0.29,-0.36 0.56,-0.57 0.92,-0.39 0.79,0.41 1.18,0.88 1.64,1.52 0.86,1.2 1.59,2.6 2.39,3.98 0.93,1.61 0.27,0.6 1.33,1.88 1.6,1.94 3.07,3.54 5.68,3.83 3.02,0.33 8.83,-0.07 11.61,-0.91 0.32,-4.15 -3.95,-2.89 -6.12,-4.26 -0.2,0.2 -0.28,0.53 -0.49,0.72 -1.05,0.95 -3.88,0.83 -5.01,0.32 -0.37,-0.17 -1.12,-0.88 -1.34,-1.1 -1.69,-1.73 -2.75,-3.64 -3.9,-5.82 -1.86,-3.55 -1.12,-2.74 -3.67,-6.06 -0.54,-0.69 -4.11,-5.1 -4.41,-5.25 -1.7,0.79 -2.81,2.62 -3.19,4.96 -0.65,3.94 0.92,5.21 0.96,6.92zm47.76 -3.71c-4.21,-2.41 -6.38,-3.25 -12.26,-3.42 3.9,-2.13 10.54,1.22 12.26,3.42zm-0.75 -4.32l0.91 0.73c-1.86,-0.45 -0.38,0.08 -0.91,-0.73zm-8.94 -0.41c6.16,-1.17 8.51,1.65 8.56,1.69l0.41 0.42c-3.27,-1.16 -4.92,-2.16 -8.97,-2.11zm8.94 0.41l-3.62 -1.57c1.2,0.08 1.07,-0.07 2.23,0.43l1.39 1.14zm8.68 -3.82c1.42,0.54 1.5,0.87 2.2,1.98 -0.81,-0.74 0.05,-0.08 -0.95,-0.66 -1.61,-0.94 -0.89,0.07 -1.25,-1.32zm0 0c-3.54,-0.47 -1.88,-2.99 -14.48,-3 2.23,-1.01 5.87,-1.12 8.52,-0.35 1.52,0.44 5.3,1.8 5.96,3.35zm-0.76 -3.71c-3.32,-1.31 -4.05,-1.37 -8.06,-1.53 3.09,-1.47 6.06,-0.15 8.06,1.53zm-26.16 -0.34c1.85,1.02 -0.4,2.09 2.85,1.3 0.82,-4.67 -4.83,-4.31 -4.34,-0.25 0.42,3.44 3.59,3.58 7.13,3.94 -1.22,0.62 -2.7,1.03 -3.96,1.61 -4.09,1.88 -8.11,5.49 -12.99,3.91 -2.48,-0.8 -5.62,-3.35 -4.21,-6.65 1.2,-2.81 7.4,-3.11 7.15,1.06 -0.68,0.34 -3.81,0.17 -2.16,2.51 1.3,1.85 3.11,0.58 4.03,-0.6 2.37,-5.07 -10.65,-10.38 -10.06,0.24 -1.13,-0.83 -2.75,-2.37 -4.21,-2.7 -2.45,-0.56 -3.05,1.09 -2.53,2.92 1.57,0.46 1.77,0.75 2.74,-0.46 -0.78,-1.71 -0.17,-0.23 -1.83,-1.14 0.2,-0.21 -0.75,-0.87 1.39,-0.43 0.66,0.14 0.96,0.62 1.36,1.04 0.77,0.8 1.28,1.42 1.96,2.23 1.25,1.48 2.84,2.72 4.73,3.64 4.61,2.26 9.71,1.07 14.22,-0.43 -1.9,9.51 8.4,7.74 5.49,2.04 -4.24,-1.37 -1.58,1.9 -1.66,2.65l-2.22 0.01c-2.84,-8.32 15.02,-11.83 21.99,10.33 0.36,-2.11 0.36,-5.45 1.68,-6.72 1.85,-1.76 3.78,0.63 6.17,0.86 0.78,-1.21 0.33,-0.63 0.34,-2.29 0.43,-0.16 1.69,0.25 2.08,-1.74 0.23,-1.19 0.69,0.15 -0.26,-1.3l1.43 -0.62c0.06,-0.03 0.19,-0.09 0.28,-0.14 -2.31,-5.65 -0.61,-3.01 -1.02,-4.96 -0.37,-1.78 -0.21,1.05 -0.17,-0.58 0.03,-1.07 0.15,-0.04 0.24,-1.32 0.09,-1.25 -0.39,-1.92 -0.12,-3.29 0.86,-4.25 9,-1.76 6.57,1.94l-0.87 -2.06c-2.26,0.11 -2.62,1.23 -2.21,3.25 7.23,3.51 5.76,-9.7 -3.53,-5.32 -1.42,-3.68 -2.97,-5.62 -6.76,-6.89 -3.44,-1.15 -8.54,-1.22 -12.21,-0.38 -3.75,0.86 -6.3,3.03 -8.85,4.82 -7.07,4.95 -8.36,1.22 -7.66,-0.03zm-81.3 12.1c4.21,-2.41 6.39,-3.24 12.26,-3.42 -3.9,-2.13 -10.54,1.22 -12.26,3.42zm0.75 -4.32l-0.91 0.73c1.86,-0.44 0.38,0.08 0.91,-0.73zm8.94 -0.41c-6.16,-1.17 -8.51,1.65 -8.56,1.69l-0.4 0.42c3.26,-1.16 4.91,-2.16 8.96,-2.11zm-8.94 0.41l3.62 -1.57c-1.19,0.08 -1.07,-0.07 -2.23,0.43l-1.39 1.14zm-8.68 -3.81c-1.42,0.53 -1.5,0.86 -2.2,1.97 0.82,-0.73 -0.05,-0.07 0.95,-0.66 1.61,-0.94 0.89,0.07 1.25,-1.31zm0 0c3.54,-0.48 1.88,-3 14.48,-3.01 -2.23,-1 -5.87,-1.11 -8.52,-0.34 -1.52,0.44 -5.3,1.79 -5.96,3.35zm0.76 -3.72c3.32,-1.31 4.05,-1.37 8.06,-1.53 -3.09,-1.47 -6.06,-0.15 -8.06,1.53zm26.16 -0.33c-1.85,1.01 0.4,2.08 -2.85,1.3 -0.81,-4.68 4.83,-4.31 4.34,-0.26 -0.42,3.45 -3.59,3.59 -7.13,3.94 1.23,0.63 2.7,1.03 3.96,1.61 4.09,1.88 8.11,5.49 12.99,3.91 2.48,-0.8 5.62,-3.35 4.21,-6.65 -1.2,-2.81 -7.4,-3.11 -7.15,1.07 0.68,0.34 3.81,0.17 2.16,2.5 -1.3,1.86 -3.11,0.59 -4.03,-0.6 -2.37,-5.07 10.65,-10.38 10.06,0.24 1.13,-0.83 2.75,-2.36 4.21,-2.7 2.45,-0.56 3.05,1.09 2.53,2.92 -1.57,0.47 -1.77,0.75 -2.74,-0.46 0.78,-1.71 0.17,-0.22 1.83,-1.14 -0.2,-0.21 0.75,-0.87 -1.39,-0.42 -0.66,0.14 -0.96,0.62 -1.36,1.03 -0.77,0.8 -1.28,1.42 -1.96,2.23 -1.25,1.48 -2.84,2.72 -4.73,3.65 -4.61,2.25 -9.71,1.06 -14.22,-0.43 1.9,9.5 -8.4,7.73 -5.49,2.03 4.24,-1.36 1.58,1.91 1.66,2.65l2.22 0.01c2.84,-8.32 -15.02,-11.83 -21.99,10.33 -0.36,-2.11 -0.36,-5.45 -1.68,-6.71 -1.85,-1.77 -3.78,0.62 -6.17,0.85 -0.77,-1.2 -0.33,-0.62 -0.34,-2.29 -0.43,-0.16 -1.69,0.26 -2.07,-1.73 -0.23,-1.2 -0.7,0.14 0.25,-1.31l-1.43 -0.62c-0.06,-0.03 -0.19,-0.08 -0.28,-0.14 2.31,-5.65 0.61,-3.01 1.02,-4.96 0.37,-1.77 0.21,1.05 0.17,-0.58 -0.03,-1.07 -0.15,-0.04 -0.24,-1.32 -0.09,-1.25 0.39,-1.92 0.12,-3.29 -0.86,-4.25 -9,-1.75 -6.57,1.95l0.87 -2.06c2.26,0.11 2.62,1.22 2.21,3.25 -7.23,3.5 -5.76,-9.71 3.53,-5.32 1.42,-3.69 2.97,-5.63 6.77,-6.9 3.43,-1.15 8.53,-1.22 12.2,-0.38 3.75,0.86 6.3,3.03 8.85,4.82 7.07,4.96 8.36,1.23 7.66,-0.02zm16.06 30.25c-4.11,0.37 -7.65,-0.26 -11.39,-1.55 -0.41,-0.15 -0.38,-0.06 -0.54,-0.47 -0.29,-0.71 -0.58,-1.46 -0.64,-2.26 4.83,0.63 5.06,1.18 10.68,0.87 2.58,-0.15 3.59,-0.72 5.03,-2.19 0.26,-0.27 0.47,-0.41 0.71,-0.71l1.3 -1.5c-0.28,0.45 -0.79,1.62 -1.03,2.19 -0.62,1.45 -1.14,3.81 -1.76,4.76 -0.48,0.73 -1.15,0.87 -2.36,0.86zm14.5 -14.27l-0.18 1.34c0.04,0.23 -0.48,12.14 -0.32,12.85 -0.38,0.12 -1.87,0.09 -2.3,0 -0.07,-0.05 -0.15,-0.1 -0.26,-0.19 -0.24,-0.22 -0.1,0 -0.2,-0.27 -0.11,-0.56 0.29,-13.27 -0.35,-14.07 -0.28,-0.36 -0.56,-0.57 -0.91,-0.39 -0.8,0.41 -1.18,0.88 -1.64,1.52 -0.86,1.2 -1.6,2.6 -2.39,3.98 -0.93,1.61 -0.27,0.6 -1.33,1.88 -1.6,1.94 -3.07,3.54 -5.68,3.83 -3.02,0.33 -8.83,-0.07 -11.61,-0.91 -0.32,-4.15 3.95,-2.89 6.11,-4.26 0.21,0.2 0.28,0.53 0.5,0.72 1.05,0.95 3.88,0.83 5,0.32 0.37,-0.17 1.13,-0.88 1.34,-1.1 1.7,-1.73 2.76,-3.64 3.91,-5.82 1.85,-3.55 1.12,-2.74 3.67,-6.06 0.53,-0.69 4.11,-5.1 4.41,-5.25 1.7,0.79 2.81,2.62 3.19,4.96 0.65,3.94 -0.93,5.21 -0.96,6.92zm-11.1 -106.68c0,0.51 0.09,0.7 0.47,1.07 0.27,0.26 0.68,0.38 1.07,0.38 0.72,0 1.4,-0.61 1.26,-1.36 -0.15,-0.85 -1.39,-1.59 -2.37,-0.85 -0.18,0.13 -0.43,0.48 -0.43,0.76zm21.1 0.13c0,0.33 -0.03,0.39 0.14,0.7 0.08,0.14 0.14,0.21 0.27,0.31 0.93,0.76 2.39,0.03 2.39,-1.01 0,-1.35 -1.98,-1.58 -2.63,-0.51 -0.07,0.12 -0.17,0.34 -0.17,0.51zm-9.17 0.77c1.03,0 1.73,-0.87 1.35,-1.76 -0.17,-0.39 -0.73,-0.76 -1.15,-0.76 -0.33,0 -0.52,-0.01 -0.83,0.14 -0.43,0.22 -0.78,0.69 -0.74,1.17 0.08,0.75 0.71,1.21 1.37,1.21zm16.2 -22.98c0,0.42 0.1,0.89 0.43,1.12 0.57,0.38 1.34,-0.08 1.59,-0.46 0.62,-0.95 0.21,-2.65 0.21,-3.6 -0.12,0.08 -0.25,0.2 -0.35,0.3l-0.95 0.99c-0.33,0.37 -0.93,1.2 -0.93,1.65zm-34.91 -0.97c0,0.83 0.11,1.52 0.72,1.99 0.31,0.24 0.83,0.35 1.22,0.11 0.19,-0.12 0.45,-0.58 0.45,-0.9 0,-0.67 -0.48,-1.39 -0.93,-1.85 -0.31,-0.32 -0.64,-0.71 -0.97,-1 -0.23,-0.21 -0.15,-0.21 -0.36,-0.32 0,0.69 -0.13,1.28 -0.13,1.97zm18.71 -7.2c0.43,0 0.84,-0.31 1.04,-0.54 0.36,-0.4 0.48,-0.74 0.48,-1.33 0,-0.69 -0.3,-1.7 -0.59,-2.31l-0.96 -2.01 0 0c-0.01,0.03 -0.91,1.91 -1.07,2.35 -0.05,0.14 -0.08,0.28 -0.13,0.44 -0.23,0.7 -0.44,1.78 -0.1,2.41 0.21,0.4 0.75,0.99 1.33,0.99zm1.62 31.73c1.17,0 2.32,0.03 3.48,0.07 0.17,0 0.2,0.03 0.39,0.03 0.63,0 1.21,0.06 1.74,0.06 0.25,0 0.88,0.07 1.29,0.07 -0.04,-0.14 -0.17,-0.16 -0.37,-0.59 -0.43,-0.91 -0.05,-1.87 0.62,-2.52 0.14,-0.14 0.37,-0.23 0.46,-0.38 -0.28,0 -0.62,-0.03 -0.87,-0.06l-1.84 -0.1c-0.2,0 -0.25,-0.03 -0.45,-0.03 -0.15,0 -0.34,0.01 -0.48,0l-2.78 -0.1c-0.35,0 -0.58,-0.03 -0.93,-0.03 0.02,0.11 0.05,0.11 0.13,0.19 0.85,0.84 0.81,2.25 -0.03,3.08 -0.11,0.11 -0.29,0.21 -0.36,0.31zm-21.39 -1.87c0,0.16 0.11,0.4 0.16,0.52 0.15,0.35 0.41,1.14 0.58,1.52 0.51,1.15 -0.08,0.93 1.74,0.74 0.44,-0.04 0.86,-0.08 1.26,-0.13l1.29 -0.13c0.66,-0.04 2.13,-0.19 2.61,-0.19 -0.05,-0.22 -1.35,-0.94 -0.88,-2.57 0.16,-0.57 0.41,-0.61 0.46,-0.79 -0.84,0 -5.73,0.7 -6.86,0.88 -0.12,0.02 -0.36,0.04 -0.36,0.15zm10.61 -1.35c0.11,0.16 0.3,0.22 0.45,0.36 0.23,0.22 0.55,0.69 0.65,1.02 0.41,1.33 -0.35,1.89 -0.39,2.04 0.33,0 0.53,-0.03 0.84,-0.03 0.19,0 0.23,-0.04 0.42,-0.04 0.15,0 0.3,0.01 0.45,0l1.71 -0.06c0.32,0 0.52,-0.03 0.84,-0.03l2.65 -0.04c-0.04,-0.14 -0.18,-0.12 -0.37,-0.34l-0.3 -0.41c-0.48,-0.81 -0.43,-1.82 0.13,-2.47 0.09,-0.11 0.2,-0.21 0.28,-0.33 -0.31,0 -0.63,0 -0.94,0l-3.23 0.13c-0.15,0.01 -0.32,-0.01 -0.48,0l-2.71 0.2zm22.3 1.61c0,0.55 -0.05,0.9 -0.36,1.36 -0.1,0.15 -0.18,0.26 -0.31,0.39 -0.06,0.06 -0.12,0.13 -0.18,0.18 -0.12,0.09 -0.15,0.03 -0.19,0.17 0.69,0 2.54,0.24 3.33,0.29 0.21,0.01 0.43,0.04 0.67,0.07l1.94 0.22c0.2,0.02 0.49,0.08 0.65,0.09 0.27,0.01 0.36,-0.5 0.53,-0.92l0.4 -1.04c0.07,-0.18 0.13,-0.36 0.2,-0.55 0.03,-0.08 0.17,-0.38 0.17,-0.46 0,-0.07 -0.02,-0.09 -0.07,-0.13 -0.09,-0.07 -1.6,-0.29 -1.7,-0.31 -0.64,-0.08 -1.23,-0.2 -1.86,-0.26l-2.85 -0.35c-0.33,-0.04 -0.67,-0.04 -0.95,-0.11 0.02,0.13 0.1,0.21 0.18,0.3 0.22,0.26 0.4,0.69 0.4,1.06zm-31.69 4.07l0 0.16c0,0.35 0.42,0.74 0.78,0.74l0.71 -0.03c0.17,-0.01 0.32,-0.02 0.51,-0.04l5.96 -0.49c0.32,-0.05 0.72,-0.03 1.02,-0.08 0.17,-0.02 0.34,0.01 0.51,-0.01l2.03 -0.09c0.19,0 0.29,-0.04 0.52,-0.03 0.37,0 0.66,-0.03 1.06,-0.04 0.21,0 0.27,-0.03 0.48,-0.03 1.23,0.01 2.48,-0.06 3.75,-0.06l3.06 0c0.73,0 1.38,0.03 2.07,0.03l3.52 0.12c0.17,0.02 0.37,-0.01 0.54,0.01l1.5 0.09c0.17,0.02 0.35,-0.01 0.53,0.01 0.3,0.03 0.65,0.03 0.97,0.06l1.46 0.12c0.14,0.02 0.37,0.04 0.48,0.04l1.95 0.15c0.33,0.05 0.67,0.06 0.96,0.1 0.34,0.04 0.67,0.06 0.97,0.1l1.15 0.07c0.47,0 0.84,-0.38 0.84,-0.84 0,-0.74 -1.1,-0.66 -1.59,-0.73l-3.22 -0.3c-0.72,-0.04 -1.48,-0.17 -2.19,-0.16 -0.21,0 -0.32,-0.03 -0.55,-0.03l-0.57 -0.04c-0.71,-0.08 -1.46,-0.09 -2.2,-0.13 -1.03,-0.05 -2.37,-0.13 -3.39,-0.13 -0.42,0 -0.73,-0.03 -1.16,-0.03 -0.79,0 -1.51,-0.03 -2.33,-0.03l-2.58 0c-0.81,0 -1.53,0.03 -2.32,0.03 -0.71,0 -1.63,0.07 -2.32,0.07 -0.43,0 -0.74,0.03 -1.16,0.03l-5.65 0.32c-0.42,0.01 -1.7,0.17 -2.2,0.19 -0.74,0.05 -1.47,0.13 -2.19,0.2l-1.07 0.12c-0.35,0.05 -0.64,0.28 -0.64,0.56zm38.88 -20.89c0.73,0 1.2,0.06 1.8,0.56l0.37 0.41c0.44,0.55 0.61,1.32 0.71,1.99 0.16,1.05 -0.06,2.33 -0.36,3.34 -0.35,1.21 -0.96,2.36 -1.68,3.39 -0.14,0.2 -0.27,0.36 -0.43,0.56 -0.46,0.58 -1.23,1.33 -1.81,1.71 -1.16,0.77 -2.64,1.43 -3.99,0.63 -1.4,-0.84 -1.57,-3.04 -1.3,-4.66 0.14,-0.87 0.43,-1.87 0.8,-2.66 0.04,-0.08 0.08,-0.15 0.12,-0.23 0.04,-0.09 0.06,-0.16 0.1,-0.25 0.08,-0.16 0.17,-0.28 0.25,-0.43l0.26 -0.45c0.1,-0.13 0.11,-0.04 0.3,-0.19 0.2,-0.15 0.26,-0.34 0.38,-0.52 0.31,-0.47 1.06,-1.2 1.61,-1.2 0.36,0 0.58,0 0.91,0.32 0.29,0.27 0.32,0.42 0.32,0.81 0,0.82 -0.59,1.29 -1.27,1.55 -0.15,0.06 -0.26,0.1 -0.42,0.15 -1.03,0.34 -1.64,0.83 -2.29,1.65 -0.1,0.12 -0.18,0.21 -0.25,0.33 -0.12,0.21 -0.32,0.52 -0.32,0.84 0,0.42 0.41,0.7 0.81,0.63 0.58,-0.11 0.6,-0.49 0.77,-0.76 0.22,-0.33 0.8,-0.92 1.18,-1.08l1.1 -0.41c0.71,-0.34 0.8,-0.35 1.37,-0.92 0.61,-0.6 0.9,-1.54 0.9,-2.43 0,-0.52 -0.26,-0.99 -0.54,-1.37 -0.24,-0.32 -0.74,-0.67 -1.14,-0.76 0.04,-0.04 0.01,-0.01 0.07,-0.05l0.28 -0.14c0.35,-0.17 0.99,-0.36 1.39,-0.36zm4.87 2.92l0 0.72c-0.02,0.68 -0.12,1.35 -0.24,1.87 -0.06,0.3 -0.19,0.86 -0.3,1.13 0,0.02 -0.04,0.09 -0.06,0.12 -0.4,0.75 -0.66,1.6 -0.97,2.38 -0.08,0.19 -0.22,0.35 -0.33,0.51 -0.79,1.2 -1.67,2.37 -2.07,3.78 -0.06,0.22 -0.11,0.43 -0.18,0.66 -0.05,0.18 -0.07,0.33 -0.15,0.49 -0.07,0.13 -0.03,0.3 -0.09,0.46 -0.02,0.06 -0.11,0.22 -0.15,0.27 -0.29,0.39 -0.76,0.47 -1.22,0.37 -0.71,-0.14 -5.13,-0.8 -5.88,-0.83 -0.76,-0.03 -1.49,-0.16 -2.26,-0.23l-2.33 -0.19c-0.49,-0.01 -1.45,-0.13 -1.97,-0.13 -0.18,0 -0.21,-0.03 -0.38,-0.03 -1.38,-0.04 -6.93,-0.27 -8.17,-0.13 -0.39,0.04 -0.85,-0.01 -1.25,0 -0.18,0 -0.21,0.03 -0.39,0.03 -0.56,0.01 -1.09,0 -1.65,0.03l-3.19 0.17c-0.24,0.03 -0.5,0.05 -0.77,0.06l-1.55 0.13c-0.76,0.04 -1.54,0.13 -2.27,0.22 -0.13,0.01 -0.28,0.02 -0.38,0.03 -1.86,0.21 -3.72,0.41 -5.58,0.72 -0.37,0.07 -1.13,0.24 -1.48,0.18 -0.38,-0.06 -0.79,-0.41 -0.86,-0.81 -0.06,-0.3 0.05,-0.23 -0.06,-0.52l-0.21 -0.82c-0.26,-0.93 -0.69,-1.74 -1.22,-2.53l-1.51 -2.27c-0.34,-0.56 -0.3,-0.49 -0.51,-1.16l-0.38 -1.3c-0.2,-0.65 -0.38,-1.39 -0.42,-2.1 -0.01,-0.26 -0.02,-0.53 -0.03,-0.8l0 -0.54c0.01,-0.58 0.08,-1.16 0.26,-1.69 0.26,-0.76 0.25,-0.72 0.67,-1.44 0.06,-0.11 0.1,-0.14 0.17,-0.24 1.01,-1.26 2.52,-1.82 4.24,-1.48 0.65,0.13 1.33,0.33 1.87,0.65 0.09,0.06 0.46,0.26 0.53,0.28 -0.09,-0.18 -0.22,-0.28 -0.34,-0.44 -0.39,-0.51 -0.94,-0.91 -1.56,-1.12 -0.72,-0.24 -0.94,-1.3 -0.27,-1.59 0.26,-0.1 0.36,-0.08 0.62,-0.01 0.37,0.1 0.74,0.27 1.05,0.5 0.15,0.11 0.29,0.19 0.43,0.31 0.35,0.3 0.64,0.62 0.95,0.95 0.07,0.07 0.11,0.13 0.18,0.21 0.11,0.14 0.19,0.32 0.33,0.41 0,-0.97 -0.03,-1.77 0.29,-2.65 0.23,-0.64 0.78,-1.58 1.56,-1.04 0.26,0.18 0.52,0.56 0.39,1.06 -0.14,0.53 -0.63,0.41 -0.63,2.28 0,0.54 0.1,1.13 0.1,1.35l0.03 0c0,-0.38 0.18,-0.87 0.26,-1.19 0.15,-0.55 0.35,-1.1 0.58,-1.62 0.35,-0.78 0.77,-1.59 1.33,-2.25 0.08,-0.08 0.11,-0.11 0.18,-0.2 0.27,-0.33 0.58,-0.64 0.91,-0.91 0.5,-0.41 1.17,-0.85 1.8,-1.06 0.81,-0.27 1.65,-0.43 2.52,-0.31 0.55,0.07 1.17,0.21 1.68,0.44 0.17,0.07 0.34,0.15 0.5,0.25 0.59,0.32 1.58,1.02 2.04,1.57 0.07,0.08 0.08,0.11 0.17,0.19 0.16,0.16 0.31,0.45 0.49,0.57 -0.07,-0.28 -0.23,-0.56 -0.35,-0.81l-0.59 -1.12c-0.21,-0.35 -0.46,-0.68 -0.71,-1 -0.73,-0.95 -1.41,-1 -1.7,-1.17 -0.66,-0.39 -0.59,-1.54 0.25,-1.71 0.65,-0.14 2.05,0.86 2.5,1.44 0.1,0.13 0.17,0.18 0.27,0.31l1.33 2.09c0,-0.22 0.03,-0.18 -0.01,-0.41 -0.11,-0.62 -0.25,-1.24 -0.43,-1.86 -0.19,-0.65 -0.44,-1.36 -0.86,-1.88 -0.28,-0.34 -0.4,-0.41 -0.7,-0.65 -0.46,-0.37 -0.43,-1.24 0.08,-1.57 0.67,-0.43 1.34,0.33 1.75,0.8 0.09,0.1 0.12,0.15 0.2,0.25 0.07,0.1 0.12,0.16 0.18,0.27 0.11,0.18 0.26,0.39 0.33,0.57 0.07,0.17 0.25,0.47 0.26,0.64l0.07 0c0.07,-0.32 0.28,-0.67 0.43,-0.95 0.31,-0.58 0.75,-1.09 1.27,-1.48 0.09,-0.08 0.15,-0.12 0.28,-0.17 0.78,-0.31 1.41,0.59 1.03,1.36 -0.14,0.28 -0.25,0.29 -0.47,0.46 -0.16,0.13 -0.31,0.3 -0.43,0.47 -0.68,0.91 -1.27,3.04 -1.27,4.15l0.21 -0.36c0.43,-0.86 0.97,-1.64 1.65,-2.32 0.4,-0.4 1.56,-1.29 2.21,-1.16 0.68,0.13 0.85,0.92 0.54,1.42 -0.18,0.3 -0.39,0.31 -0.69,0.44 -0.3,0.14 -0.46,0.25 -0.7,0.43 -0.63,0.49 -1.36,1.56 -1.69,2.31 -0.12,0.26 -0.48,0.94 -0.5,1.18 0.13,-0.09 0.24,-0.27 0.35,-0.4 0.07,-0.08 0.08,-0.11 0.16,-0.19l0.27 -0.28c0.46,-0.44 0.92,-0.87 1.48,-1.2 0.14,-0.08 0.28,-0.18 0.44,-0.26 0.32,-0.19 0.67,-0.31 1.03,-0.42 1.55,-0.52 3.3,-0.29 4.63,0.55 0.16,0.1 0.28,0.18 0.43,0.28 0.42,0.3 0.78,0.66 1.14,1.02 0.62,0.64 1.33,1.8 1.68,2.62 0.27,0.65 0.83,2.06 0.85,2.74l0.06 0c0,-0.26 0.05,-0.46 0.06,-0.68 0.04,-0.7 0.05,-1.32 -0.16,-2 -0.05,-0.15 -0.15,-0.36 -0.24,-0.5 -0.26,-0.38 -0.38,-0.63 -0.15,-1.09 0.07,-0.13 0.21,-0.28 0.35,-0.36 1.22,-0.72 1.71,1.61 1.81,2.38 0.06,0.45 0.01,0.94 0.01,1.37l0.74 -0.9c0.46,-0.56 1.07,-1 1.71,-1.32 1.37,-0.7 1.73,0.36 1.39,0.94 -0.26,0.45 -0.5,0.41 -0.93,0.62 -0.16,0.07 -0.33,0.2 -0.47,0.3l-0.42 0.36c-0.16,0.14 -0.59,0.68 -0.7,0.84 0.11,-0.03 0.05,-0.02 0.14,-0.08 0.31,-0.2 0.63,-0.34 0.97,-0.49 0.2,-0.08 0.39,-0.18 0.6,-0.23 0.95,-0.26 1.9,-0.45 2.92,-0.14 1.07,0.32 1.76,0.88 2.38,1.8 0.24,0.35 0.4,0.73 0.54,1.15 0.14,0.44 0.22,0.93 0.28,1.39 0.02,0.16 0.04,0.32 0.04,0.49zm-45.56 -0.11c0,1.43 0.93,2.65 2.21,3.18 0.75,0.31 1.27,0.34 1.8,0.88 0.86,0.87 0.65,0.92 0.89,1.15 0.26,0.26 0.64,0.36 0.94,0.18 0.15,-0.08 0.26,-0.18 0.31,-0.37 0.2,-0.71 -0.74,-1.6 -1.2,-2.06l-0.36 -0.31c-0.26,-0.19 -0.54,-0.32 -0.87,-0.46l-0.98 -0.38c-0.27,-0.11 -0.63,-0.31 -0.79,-0.56 -0.92,-1.37 0.18,-2.06 0.6,-2.06 0.5,0 0.74,0.09 1.18,0.44 0.23,0.17 0.51,0.48 0.67,0.72 0.15,0.22 0.23,0.44 0.44,0.59 0.25,0.18 0.16,-0.06 0.51,0.53 0.05,0.09 0.07,0.14 0.12,0.23 0.05,0.08 0.09,0.14 0.14,0.22 0.05,0.09 0.05,0.12 0.1,0.22 0.27,0.64 0.45,0.87 0.69,1.73 0.15,0.55 0.16,0.51 0.27,1.11 0.25,1.33 0.24,2.98 -0.52,4.07 -0.24,0.34 -0.42,0.55 -0.77,0.75 -1.04,0.61 -2.25,0.31 -3.24,-0.22l-0.33 -0.19c-0.48,-0.28 -1.29,-0.97 -1.69,-1.38 -0.09,-0.1 -0.13,-0.17 -0.24,-0.27 -0.1,-0.1 -0.14,-0.17 -0.24,-0.27l-0.65 -0.87c-0.35,-0.57 -0.41,-0.6 -0.76,-1.27 -0.07,-0.14 -0.11,-0.18 -0.18,-0.34 -0.05,-0.14 -0.1,-0.21 -0.16,-0.36 -0.53,-1.28 -0.85,-2.38 -0.85,-3.85 0,-0.94 0.24,-1.87 0.61,-2.43 0.41,-0.61 1.03,-1.16 1.87,-1.16 0.96,0 1.16,0.08 1.95,0.44 0.1,0.05 0.12,0.03 0.18,0.11 -0.42,0.1 -0.87,0.48 -1.13,0.8 -0.27,0.33 -0.52,0.88 -0.52,1.46zm2.88 -3.84l0 0zm0 0l-0.04 -0.03 0.04 0.03zm11.42 0.64c0,0.57 0.09,1.3 0.44,1.73 0.11,0.14 0.18,0.21 0.31,0.33 0.77,0.77 2.26,1.11 3.16,0.38 0.94,-0.76 0.68,-1.82 -0.2,-1.82 -0.25,0 -0.48,0.11 -0.59,0.25 -0.16,0.19 -0.27,0.72 -1.19,0.13 -0.48,-0.31 -0.51,-1.16 0.11,-1.66 0.72,-0.58 1.81,-0.44 2.26,0.4 0.28,0.52 0.41,1.41 0.41,2.07 0,0.42 -0.09,0.85 -0.23,1.22 -0.05,0.13 -0.11,0.22 -0.17,0.35 -0.24,0.56 0.12,1.13 0.69,1.14l-0.03 0.71c-0.55,-0.62 -1.34,-1.07 -2.17,-1.28 -1.05,-0.26 -2.34,-0.12 -3.23,0.44 -0.1,0.06 -0.17,0.11 -0.27,0.18 -0.24,0.16 -0.54,0.44 -0.7,0.68 -0.13,0.19 -0.26,0.37 -0.35,0.59 -0.57,1.32 -0.46,2.23 0.35,3.41 0.07,0.11 0.1,0.12 0.18,0.2 0.33,0.38 0.68,0.67 1.14,0.9 0.84,0.41 1.83,0.49 2.66,-0.02 0.16,-0.09 0.31,-0.19 0.44,-0.33 0.25,-0.24 0.35,-0.53 0.18,-0.87 -0.14,-0.3 -0.51,-0.45 -0.84,-0.38 -0.47,0.11 -0.53,0.53 -1.18,0.5 -0.88,-0.05 -1.76,-1.1 -1.76,-1.69 0,-2.44 3.09,-2.75 4.3,-1.43 0.03,0.03 0.03,0.03 0.06,0.06 0.34,0.36 0.55,0.66 0.7,1.15 0.11,0.33 0.02,0.4 -0.08,0.71 -0.15,0.46 -0.3,0.93 -0.54,1.33 -0.33,0.54 -0.31,0.59 -0.7,1.15 -0.25,0.36 -0.54,0.71 -0.89,0.98 -0.83,0.65 -1.49,1.08 -2.69,1.08 -1,0 -2.21,-0.57 -2.9,-1.26 -0.05,-0.06 -0.09,-0.1 -0.14,-0.15 -0.08,-0.06 -0.11,-0.06 -0.18,-0.14l-0.56 -0.64c-0.52,-0.7 -0.99,-1.42 -1.32,-2.26 -0.32,-0.78 -0.39,-0.92 -0.63,-1.76 -0.22,-0.8 -0.36,-1.68 -0.44,-2.53 -0.03,-0.36 0.06,-0.23 0.07,-0.49 0.03,-0.57 -0.01,-1.04 0.23,-1.55 0.18,-0.39 0.52,-0.8 1.03,-0.8 0.3,0 0.66,0.11 0.85,0.24 0.46,0.31 0.69,0.96 0.6,1.53 -0.05,0.29 -0.23,0.5 -0.39,0.7 -0.18,0.22 -0.36,0.36 -0.53,0.58 -0.09,0.11 -0.16,0.18 -0.25,0.3 -0.07,0.1 -0.16,0.22 -0.22,0.33 -0.36,0.62 -1,3.19 0.42,3.19 0.27,0 0.49,-0.16 0.6,-0.34 0.14,-0.26 0.05,-0.52 0.05,-0.85 0,-0.56 0.21,-1.14 0.53,-1.5 0.01,-0.01 0.02,-0.01 0.02,-0.02 0,0 0.01,-0.01 0.02,-0.01 0.28,-0.31 0.59,-0.6 0.82,-0.95 0.12,-0.17 0.2,-0.3 0.29,-0.49 0.15,-0.35 0.28,-0.81 0.23,-1.27 -0.1,-0.85 -0.35,-1.58 -0.94,-2.16 -0.67,-0.68 -1.73,-1.06 -2.73,-0.85 -0.16,0.04 -0.24,0.1 -0.37,0.11 0.04,-0.17 0.09,-0.3 0.13,-0.47 0.16,-0.55 0.38,-1.08 0.62,-1.58l0.34 -0.64c0.07,-0.14 0.15,-0.26 0.25,-0.39l0.54 -0.72c0.09,-0.11 0.21,-0.21 0.32,-0.32 0.24,-0.24 0.43,-0.39 0.72,-0.58 1.6,-1.07 3.37,-0.77 4.86,0.44 0.33,0.27 0.67,0.6 0.94,0.93 0.39,0.5 0.46,0.65 0.76,1.11 -1,0 -1.5,0.13 -2.23,0.7 -0.46,0.37 -0.99,1.15 -0.99,1.97zm13.07 -5.81c0.88,0 1.54,0.18 2.25,0.66l0.53 0.4c0.08,0.06 0.1,0.07 0.18,0.15l0.46 0.5c0.49,0.54 0.92,1.28 1.2,1.96l0.28 0.69c0.07,0.17 0.29,0.81 0.29,1 -0.12,-0.03 -0.18,-0.07 -0.34,-0.11 -0.6,-0.13 -1.35,0.01 -1.85,0.21 -0.5,0.21 -0.98,0.62 -1.25,1.07 -0.6,1 -0.79,2.22 -0.18,3.27l1.1 1.31c0.26,0.33 0.38,0.73 0.44,1.17 0.08,0.53 -0.02,0.38 -0.02,0.7 0,1.07 2.26,1.27 1.39,-1.74 -0.13,-0.44 -0.24,-0.7 -0.48,-1.04l-0.53 -0.6c-0.07,-0.07 -0.12,-0.12 -0.19,-0.19 -0.12,-0.13 -0.22,-0.28 -0.32,-0.42 -0.46,-0.68 -0.05,-1.76 0.64,-2.06 1.13,-0.48 1.83,0.58 1.88,1.6 0.01,0.22 -0.04,0.5 0.02,0.72 0.05,0.17 0.08,0.11 0.08,0.28 0,0.55 -0.12,1.16 -0.21,1.66 -0.27,1.46 -0.76,2.85 -1.53,4.12 -0.29,0.48 -0.63,0.94 -1.01,1.35l-0.71 0.67c-0.26,0.21 -0.53,0.41 -0.83,0.56 -0.58,0.28 -1.17,0.51 -1.94,0.51 -0.68,0 -1.47,-0.29 -1.88,-0.56 -0.51,-0.34 -0.64,-0.45 -1.01,-0.83l-0.83 -1.02 -0.45 -0.77c-0.18,-0.31 -0.7,-1.54 -0.7,-1.79 0,-0.6 0.49,-1.18 0.86,-1.56 0.65,-0.65 1.96,-0.89 2.87,-0.53 0.88,0.36 1.37,1.05 1.37,2.09 0,0.43 -0.5,0.99 -0.82,1.25 -0.43,0.35 -1.14,0.53 -1.62,0.16 -0.22,-0.16 -0.17,-0.22 -0.52,-0.29 -0.69,-0.13 -1.5,0.83 -0.17,1.59 1.63,0.95 3.51,-0.15 4.3,-1.63 0.51,-0.94 0.41,-1.93 -0.01,-2.88 -0.09,-0.2 -0.22,-0.39 -0.35,-0.56 -0.4,-0.54 -0.95,-0.92 -1.6,-1.17 -0.96,-0.38 -2.25,-0.34 -3.21,0.05 -0.08,0.03 -0.13,0.06 -0.22,0.1 -0.44,0.19 -0.85,0.48 -1.18,0.83 -0.21,0.21 -0.22,0.13 -0.22,-0.55 0.41,-0.01 0.78,-0.3 0.78,-0.71 0,-0.24 -0.05,-0.39 -0.15,-0.59 -0.49,-0.95 -0.43,-2.54 0.05,-3.47 0.11,-0.22 0.28,-0.39 0.48,-0.53 0.86,-0.6 2.26,0.02 2.26,0.98 0,0.24 -0.06,0.55 -0.23,0.7 -0.15,0.12 -0.42,0.28 -0.62,0.32 -0.78,0.17 -0.44,-0.6 -1.34,-0.6 -0.73,0 -1.06,0.96 -0.28,1.69 0.04,0.04 0.08,0.07 0.12,0.11 0.62,0.54 1.63,0.49 2.35,0.2 0.21,-0.09 0.43,-0.22 0.61,-0.37l0.51 -0.48c0.12,-0.13 0.16,-0.27 0.24,-0.44 0.33,-0.75 0.28,-1.7 -0.08,-2.41 -0.17,-0.35 -0.41,-0.6 -0.67,-0.84 -0.63,-0.59 -1.39,-0.79 -2.29,-0.79 0.13,-0.48 1.32,-1.72 1.67,-2.01 0.6,-0.48 1.57,-1.09 2.63,-1.09zm-5.2 0.81l0 0zm65.29 65.4c-0.19,-2.44 -1.7,-4.5 -3.76,-5.03 1.62,1.87 0.92,1.85 1.52,2.91 0.21,0.35 1.81,1.87 2.24,2.12zm-22.9 -6.2c-0.44,-0.52 -0.98,-0.77 -1.6,-1.25 -0.49,-0.37 -1.03,-0.89 -1.61,-1.14l-0.21 2.16 3.42 0.23zm33.44 9.24c-0.23,-2.52 -0.15,-2.93 -1.2,-5.87 -0.71,-1.99 -2,-3.9 -3.32,-4.58 1.87,2.41 3.88,7.06 2.3,9.66 -0.19,-3.38 -0.56,-6.4 -3.51,-7.26 0.97,1.68 2.08,3.22 1.7,5.84 -0.42,-0.59 -0.16,-0.19 -0.32,-0.93 -0.41,-1.88 -1.59,-3.98 -3.58,-4.51 1.49,1.97 1.94,2.17 1.23,5.42 -0.77,-1.38 -0.14,-2.11 -2.89,-3.97 0.06,1.45 -0.29,2.53 -0.28,3.57 0.85,0.57 0.74,0.45 1.59,0.82 0.64,0.28 0.79,0.5 1.45,0.77 1.01,0.43 2.3,0.67 3.22,1.41 2.93,2.36 3.55,10.84 4.59,-0.98 0.24,-2.72 0.21,-4.55 -1.15,-6.37 0.22,1.16 0.73,2.2 0.77,3.74 0.02,0.8 -0.09,3.38 -0.4,3.99l-0.2 -0.75zm-43.3 2.9c0.17,-1.12 0.16,-0.59 0.45,-1.43 0.57,-1.61 -0.7,-1.5 -0.23,-3.01 0.92,-2.93 0.69,-3.96 0.93,-6.93 1.25,-1.21 0.82,-1.38 3.01,-1.23 -0.44,-2.66 -0.54,-3.32 1.47,-4.68 1.32,-0.1 2.61,0.7 4.04,0.84 0.61,-2.48 2.94,-2.01 3.49,-4.71 0.32,-1.54 1.33,-6.23 0.53,-7.5 -1.33,-0.11 -0.42,0.71 -2.2,0.18 -0.74,-0.23 -1.6,-0.3 -2.44,-0.36l-0.76 0.96c-0.69,-0.29 -0.32,-0.33 -0.94,-0.5 -0.49,-0.13 -1,-0.05 -1.56,-0.09 -0.16,-1.4 -0.74,-2.4 -0.8,-3.38 1.31,-0.56 1.81,-1.47 3.08,-2.28 1.11,-0.71 2.53,-1.62 3.05,-2.63 -0.95,-0.51 -1.02,-0.61 -1.09,-1.94 0.78,0.47 1.1,0.83 2.05,1.15 -1.13,-2.76 -4.4,-7.74 -4.99,-10.22l1.07 1.24c0.92,1.42 4.28,6.32 5.25,7.23 0.46,0.45 0.8,0.32 1.45,0.77 0.47,-0.74 0.76,-0.68 1.69,-1.03 1.04,-0.4 1.01,-0.56 1.57,-1.18 1.01,1.25 0.2,2.4 -0.84,3.12 1.91,0.58 3.86,-1.2 5.37,1.91 -0.93,-0.35 -1.29,-0.67 -2.71,-0.56 1.94,0.85 2.05,0.3 4.06,2.08 0.71,0.62 2.29,1.85 3.25,0.91 0.83,-0.8 -0.56,-0.4 0.57,-0.68 0.96,2.34 -1.44,1.99 -3.09,1.61 0.47,0.41 0.98,0.66 1.45,1.02 0.63,0.48 0.94,0.6 1.3,1.34 -1.22,-0.55 -2.1,-1.25 -3.73,-1.27 1.45,0.87 3.27,1.68 4.69,2.71 1.13,0.82 3.05,2.54 3.46,4.28 -0.87,-0.57 -1.41,-1.75 -2.79,-2.72 -1.05,-0.75 -2.62,-1.24 -4.13,-1.25 1.81,1 3.3,2.09 3.86,4.14 -1.55,-1.23 -1.09,-1.78 -3.73,-2.34 1.31,1.51 3.48,2.44 4.14,5.22l1.45 -0.28c-0.04,0.03 -0.1,0.04 -0.12,0.12 -0.02,0.08 -0.09,0.11 -0.11,0.14l-1.01 0.84c-0.53,0.25 -1.31,0.07 -1.85,-0.01 0.67,0.83 1.22,1.36 0.71,2.93 -0.88,-1.98 -0.33,-2.17 -2.91,-2.7 0.06,1.52 1.72,2.86 1.53,5.93 1.79,-1.25 9.58,-9.99 5.04,-13.66 0.78,1.97 1.2,4.23 -0.11,6.01 0.72,-2.44 0.1,-3.2 -0.57,-5.3 -2.55,-7.95 9.71,-3.64 12.59,-2.28 -1.32,-1.56 -3.82,-2.28 -6.37,-2.76 2.94,-0.38 8.26,1.52 11.55,1.78 3.24,0.25 6.41,-0.51 8.71,-2.68l1.17 -0.93c-0.46,1.75 -2.35,3.67 -3.48,4.44 -1.74,1.19 -3.98,1.6 -6.45,1.57 5.03,1.56 16.54,-1.68 21.08,-5.88 0.73,-0.68 1.31,-1.57 2.16,-2.16 -1.2,4.21 -7.57,6.8 -11.6,8.05 -1.62,0.5 -3.84,0.83 -5.32,1.33 3.69,-0.18 7.64,-1.52 10.83,-3.1 1.29,-0.65 2.08,-1.28 3.23,-1.84 -0.27,0.84 0.15,0.09 -0.45,0.82 -0.52,0.64 -1.09,0.91 -1.76,1.45 -2.4,1.93 -6.41,2.98 -9.52,3.38 1.8,0.22 3.41,-0.43 5.06,-0.57l-3.25 1.18c-5.37,1.44 -7.93,0.36 -12.79,-0.04 6.54,2.85 18.42,1.39 25.06,-0.82 3.73,-1.25 7.03,-2.63 10.02,-4.48 1.64,-1.01 2.78,-1.82 4.22,-3.03 1.15,-0.96 2.8,-2.93 3.89,-3.64 -1.01,2.87 -3.54,4.28 -5.67,5.9 -7.01,5.36 -16.92,8.71 -26.26,8.91 4.38,1.02 12.72,-1.28 16.41,-2.87 2.33,-1.01 4.3,-2.01 6.44,-3.22 1.06,-0.6 1.98,-1.24 2.97,-1.87 0.92,-0.58 2.15,-1.66 3.03,-2.09 -1.12,2.93 -8.37,6.66 -11.27,8.17 1.36,-0.2 2.64,-0.9 3.79,-1.46 1.39,-0.68 2.33,-1.55 3.63,-2.06 -0.65,1.62 -3.58,3.14 -5.02,3.93 -2.24,1.22 -3.98,1.6 -6.38,2.14 2.44,0.56 3.85,-0.74 5.72,-1.16l-0.75 0.64c-0.37,0.24 -0.42,0.22 -0.79,0.41 -4.92,2.62 -9.47,2.93 -15.13,2.48 -4.29,-0.33 -8.6,-1.13 -12.52,-2.82 -1.22,-0.53 -2.44,-1.24 -3.6,-1.69 3.56,2.66 13.07,6.58 18.09,7.7 3.52,0.78 4.7,0.5 7.9,-0.4l-0.21 0.38c-0.33,0.52 -0.62,0.91 -1.19,1.18 -0.59,0.28 -1.69,0.4 -2.39,0.43 -3.15,0.13 -6.33,-0.68 -9.24,-1.64 -1.44,-0.48 -2.84,-1.18 -4.06,-1.58 4.13,2.42 8.18,4.42 14.31,4.04l-1.29 1.31c-1.78,1.24 -3.42,1.91 -5.68,1 -2.34,-0.95 -4.31,-2.41 -6.53,-3.61 1.15,1.61 3.76,2.9 5.61,3.88 0.64,0.33 0.45,0.16 0.9,0.63 -5.19,-0.52 -13.67,-8.99 -14.83,-9.68 1.71,2.64 3.22,3.51 4.57,7.18 0.79,2.15 1.71,4 3.74,4.87 0.71,0.3 1.71,0.33 2.28,0.91 -1.24,0.43 -2.53,1.1 -4.2,0.96l-2.29 -3.3c-0.4,-0.68 -1.65,-3.16 -1.73,-3.68 0.02,1.58 1.6,4.99 2.2,6.48 -3.13,-1.82 -3,-7.43 -5.75,-9.62 1.48,2.78 1.85,3.36 2.22,7.15 0.12,1.22 0.47,2.62 1.12,3.47 1.24,1.62 1.9,1.07 2.79,1.92 -1.5,0.09 -2.36,0.61 -3.43,-0.29 -2.39,-2 -1.34,-6.17 -3.65,-8.73 1.19,3.06 1.93,4.55 1.65,8.19 -0.13,1.74 -0.17,3.08 -0.5,4.79 -0.27,1.41 -0.74,2.88 -0.96,4.18 7.8,0.08 4.6,3.8 6.13,9.67 0.64,2.46 1.71,3.39 2.87,4.97 2.82,3.84 1.59,1.84 3.48,3.55 0.63,0.57 0.21,-0.02 0.55,0.77 -1.09,-0.47 -1.76,-1.09 -2.99,-1.48 0.57,1.28 1.33,2.37 2.15,3.43 0.57,0.73 0.55,0.76 1.35,1.47 0.45,0.4 1.15,1.08 1.58,1.49 -1.84,-0.43 -2.84,-1.99 -3.86,-3.09 0.57,1.49 1.53,2.69 2.75,3.55 0.54,0.37 0.98,0.55 1.36,1.04 -3.54,-0.93 -4.46,-3.82 -6.5,-6.23 0.21,1.73 1.14,3.14 2.29,4.21l1.23 1.16c-3,-0.91 -5.04,-4.69 -6.11,-7.47 0.14,2.06 1.21,3.75 2.5,5.07 0.64,0.66 0.95,0.59 1.19,1.69l-0.56 -0.5c-0.24,-0.22 -0.15,-0.15 -0.44,-0.39 -0.31,-0.24 -0.54,-0.41 -0.87,-0.71 -1.99,-1.76 -2.73,-3.99 -3.62,-6.58 -0.12,2.3 0.7,2.88 0.97,4.5 -0.21,-0.19 -0.14,-0.11 -0.35,-0.36 -1.74,-2.07 -2.39,-5.93 -2.57,-8.49 -0.33,2.53 0.19,3.94 0.74,6.16 -0.71,-0.45 -0.68,-0.69 -0.96,-1.57 -0.24,-0.75 -0.36,-1.14 -0.46,-1.94 -0.4,-3.11 0.88,-5.6 0.97,-8.6 0.06,-2.01 -0.48,-2.25 -2.02,-2.79 0.45,2.16 0.91,4.72 -0.15,6.87 -1.14,2.29 -1.91,3.2 -0.31,5.85 0.42,0.7 0.62,0.87 1.19,1.42l1.52 1.35c0.03,1.48 -1,3.48 -1.24,5.25 -0.24,1.79 -0.3,4.83 -0.53,6.13 0.26,0.27 0.45,0.11 0.55,0.34 0.25,0.56 -0.62,-0.16 0.29,0.49 -1.41,0.36 0.14,0.19 -1.32,0.39 0.47,3.22 -1.84,2.96 -4.26,2.72 1.4,-2.87 2.16,-2 2.88,-5.19 0.4,-1.74 0.9,-5.45 0.68,-7.29 -0.14,-1.27 -0.97,-1.56 -1.78,-2.19 -0.94,-0.74 -1.32,-1.03 -2.04,-2 -1.1,-1.47 -2.4,-2.84 -2.68,-5.27 -4.11,2.57 2.58,6.09 2.23,8.03 -0.46,0.89 -1.42,1.37 -2.11,2.01 -1.43,1.32 -2.75,2.97 -3.88,4.56 -0.96,1.34 -0.87,1.27 -0.73,3.18l-0.69 -0.2c-0.26,0.03 -0.43,0.15 -0.68,0.32 0.2,0.79 0.41,1.1 0.4,2.01 -1.34,1 -2.64,1.37 -4.58,0.91 -0.07,-1.63 7.55,-8.77 7.58,-11.79 0.01,-1.92 -2.13,-3.08 -3.29,-3.97 -0.71,-0.55 -0.73,-0.63 -1.36,-1.27 -1.57,-1.59 -1.63,-2.78 -2.79,-4.49 -0.45,-0.66 -0.9,-0.73 -1.09,-1.57 -0.29,-1.32 0.56,-2.8 0.87,-3.96 0.97,-3.61 -3.55,-2.98 -7.55,-7.02 -1.43,-1.44 -3.16,-3.8 -4.35,-5.53 -2.83,-4.08 -1.68,-1.84 -3.72,-2.69 -0.67,-0.28 -1.1,-0.62 -1.74,-0.99 0.08,1.36 0.07,2.13 -0.26,3.32l-4.62 -4.01c-0.36,-0.61 -0.26,-1.53 -0.75,-2.24 -1.96,0.02 -2.29,3.02 -2.43,5.01 0.75,0.56 0.32,0.35 0.42,0.57 0.09,0.17 0.3,0.14 0.54,0.57 -0.72,0.64 -1.83,0.91 -0.7,1.82 0.24,0.2 0.47,0.29 0.66,0.58 1.11,1.67 -0.62,2.74 -2.32,3.1 2.59,7.44 5.64,15.12 1.83,24.32 -2.5,6.06 -7.8,12.57 -15,13.91 -3.94,0.73 -8.44,1 -12.17,2.1 -7.15,2.1 -7.07,4.49 -9.26,5.22 -4.64,-7.04 -18.1,-5.83 -23.65,-8.24 -6.35,-2.75 -11.98,-9.62 -13.39,-18.26 -1.17,-7.1 1.15,-13.04 3.24,-19.06 -1.68,-0.38 -3.34,-1.45 -2.24,-3.09 0.19,-0.29 0.42,-0.38 0.67,-0.58 1.12,-0.91 0.02,-1.18 -0.71,-1.82 0.24,-0.43 0.46,-0.4 0.54,-0.57 0.11,-0.22 -0.32,-0.01 0.43,-0.57 -0.15,-1.99 -0.48,-4.99 -2.44,-5.01 -0.49,0.71 -0.38,1.63 -0.75,2.24l-4.61 4.01c-0.33,-1.19 -0.34,-1.96 -0.26,-3.32 -0.65,0.37 -1.07,0.71 -1.75,0.99 -2.04,0.85 -0.89,-1.39 -3.71,2.69 -1.2,1.73 -2.93,4.09 -4.35,5.53 -4,4.04 -8.53,3.41 -7.56,7.02 0.31,1.16 1.17,2.64 0.87,3.96 -0.19,0.84 -0.64,0.91 -1.09,1.57 -1.16,1.71 -1.22,2.9 -2.79,4.49 -0.63,0.64 -0.64,0.72 -1.35,1.27 -1.16,0.89 -3.31,2.05 -3.29,3.97 0.03,3.02 7.65,10.16 7.58,11.79 -1.94,0.46 -3.24,0.09 -4.58,-0.91 -0.02,-0.91 0.2,-1.22 0.39,-2.01 -0.25,-0.17 -0.42,-0.29 -0.68,-0.32l-0.69 0.2c0.14,-1.91 0.24,-1.84 -0.72,-3.18 -1.14,-1.59 -2.45,-3.24 -3.89,-4.56 -0.69,-0.64 -1.65,-1.12 -2.11,-2.01 -0.35,-1.94 6.34,-5.46 2.24,-8.03 -0.29,2.43 -1.59,3.8 -2.68,5.27 -0.73,0.97 -1.1,1.26 -2.05,2 -0.8,0.63 -1.63,0.92 -1.78,2.19 -0.21,1.84 0.29,5.55 0.68,7.29 0.72,3.19 1.48,2.32 2.88,5.19 -2.42,0.24 -4.72,0.5 -4.26,-2.72 -1.46,-0.2 0.1,-0.03 -1.31,-0.39 0.9,-0.65 0.03,0.07 0.29,-0.49 0.1,-0.23 0.28,-0.07 0.54,-0.34 -0.23,-1.3 -0.29,-4.34 -0.53,-6.13 -0.23,-1.77 -1.27,-3.77 -1.24,-5.25l1.52 -1.35c0.58,-0.55 0.77,-0.72 1.19,-1.42 1.6,-2.65 0.84,-3.56 -0.3,-5.85 -1.07,-2.15 -0.61,-4.71 -0.16,-6.87 -1.54,0.54 -2.07,0.78 -2.02,2.79 0.09,3 1.38,5.49 0.98,8.6 -0.11,0.8 -0.23,1.19 -0.47,1.94 -0.28,0.88 -0.25,1.12 -0.95,1.57 0.55,-2.22 1.06,-3.63 0.74,-6.16 -0.18,2.56 -0.83,6.42 -2.57,8.49 -0.21,0.25 -0.15,0.17 -0.36,0.36 0.27,-1.62 1.09,-2.2 0.97,-4.5 -0.88,2.59 -1.63,4.82 -3.61,6.58 -0.34,0.3 -0.57,0.47 -0.87,0.71 -0.3,0.24 -0.2,0.17 -0.45,0.39l-0.56 0.5c0.24,-1.1 0.56,-1.03 1.19,-1.69 1.29,-1.32 2.36,-3.01 2.5,-5.07 -1.07,2.78 -3.11,6.56 -6.11,7.47l1.23 -1.16c1.15,-1.07 2.09,-2.48 2.29,-4.21 -2.04,2.41 -2.95,5.3 -6.5,6.23 0.39,-0.49 0.82,-0.67 1.37,-1.04 1.22,-0.86 2.18,-2.06 2.74,-3.55 -1.02,1.1 -2.02,2.66 -3.85,3.09 0.42,-0.41 1.13,-1.09 1.57,-1.49 0.81,-0.71 0.78,-0.74 1.35,-1.47 0.82,-1.06 1.58,-2.15 2.15,-3.43 -1.23,0.39 -1.89,1.01 -2.99,1.48 0.34,-0.79 -0.08,-0.2 0.55,-0.77 1.9,-1.71 0.66,0.29 3.48,-3.55 1.17,-1.58 2.24,-2.51 2.88,-4.97 1.52,-5.87 -1.68,-9.59 6.12,-9.67 -0.22,-1.3 -0.69,-2.77 -0.96,-4.18 -0.33,-1.71 -0.37,-3.05 -0.5,-4.79 -0.28,-3.64 0.46,-5.13 1.65,-8.19 -2.3,2.56 -1.26,6.73 -3.65,8.73 -1.06,0.9 -1.92,0.38 -3.43,0.29 0.89,-0.85 1.55,-0.3 2.8,-1.92 0.65,-0.85 0.99,-2.25 1.11,-3.47 0.38,-3.79 0.75,-4.37 2.22,-7.15 -2.75,2.19 -2.62,7.8 -5.75,9.62 0.6,-1.49 2.19,-4.9 2.2,-6.48 -0.07,0.52 -1.33,3 -1.73,3.68l-2.29 3.3c-1.66,0.14 -2.95,-0.53 -4.19,-0.96 0.56,-0.58 1.56,-0.61 2.28,-0.91 2.02,-0.87 2.94,-2.72 3.73,-4.87 1.36,-3.67 2.86,-4.54 4.57,-7.18 -1.16,0.69 -9.63,9.16 -14.83,9.68 0.45,-0.47 0.27,-0.3 0.9,-0.63 1.85,-0.98 4.46,-2.27 5.61,-3.88 -2.22,1.2 -4.18,2.66 -6.53,3.61 -2.26,0.91 -3.9,0.24 -5.67,-1l-1.3 -1.31c6.14,0.38 10.18,-1.62 14.32,-4.04 -1.23,0.4 -2.63,1.1 -4.07,1.58 -2.91,0.96 -6.09,1.77 -9.24,1.64 -0.7,-0.03 -1.79,-0.15 -2.38,-0.43 -0.58,-0.27 -0.87,-0.66 -1.2,-1.18l-0.2 -0.38c3.2,0.9 4.37,1.18 7.89,0.4 5.02,-1.12 14.53,-5.04 18.1,-7.7 -1.16,0.45 -2.38,1.16 -3.61,1.69 -3.92,1.69 -8.22,2.49 -12.52,2.82 -5.66,0.45 -10.21,0.14 -15.13,-2.48 -0.37,-0.19 -0.42,-0.17 -0.79,-0.41l-0.74 -0.64c1.87,0.42 3.27,1.72 5.72,1.16 -2.4,-0.54 -4.15,-0.92 -6.39,-2.14 -1.44,-0.79 -4.36,-2.31 -5.02,-3.93 1.3,0.51 2.24,1.38 3.63,2.06 1.15,0.56 2.43,1.26 3.79,1.46 -2.9,-1.51 -10.15,-5.24 -11.27,-8.17 0.88,0.43 2.11,1.51 3.04,2.09 0.98,0.63 1.91,1.27 2.96,1.87 2.14,1.21 4.11,2.21 6.44,3.22 3.69,1.59 12.03,3.89 16.41,2.87 -9.34,-0.2 -19.25,-3.55 -26.26,-8.91 -2.12,-1.62 -4.65,-3.03 -5.67,-5.9 1.09,0.71 2.75,2.68 3.9,3.64 1.44,1.21 2.58,2.02 4.21,3.03 2.99,1.85 6.3,3.23 10.02,4.48 6.64,2.21 18.53,3.67 25.07,0.82 -4.86,0.4 -7.43,1.48 -12.8,0.04l-3.25 -1.18c1.65,0.14 3.26,0.79 5.06,0.57 -3.11,-0.4 -7.11,-1.45 -9.51,-3.38 -0.67,-0.54 -1.25,-0.81 -1.77,-1.45 -0.6,-0.73 -0.17,0.02 -0.45,-0.82 1.15,0.56 1.94,1.19 3.23,1.84 3.19,1.58 7.14,2.92 10.83,3.1 -1.47,-0.5 -3.7,-0.83 -5.31,-1.33 -4.04,-1.25 -10.41,-3.84 -11.61,-8.05 0.85,0.59 1.43,1.48 2.17,2.16 4.53,4.2 16.04,7.44 21.07,5.88 -2.47,0.03 -4.7,-0.38 -6.44,-1.57 -1.14,-0.77 -3.02,-2.69 -3.49,-4.44l1.17 0.93c2.31,2.17 5.48,2.93 8.72,2.68 3.28,-0.26 8.6,-2.16 11.55,-1.78 -2.56,0.48 -5.06,1.2 -6.38,2.76 2.89,-1.36 15.14,-5.67 12.59,2.28 -0.67,2.1 -1.29,2.86 -0.57,5.3 -1.3,-1.78 -0.89,-4.04 -0.1,-6.01 -4.55,3.67 3.24,12.41 5.04,13.66 -0.19,-3.07 1.46,-4.41 1.52,-5.93 -2.57,0.53 -2.02,0.72 -2.91,2.7 -0.51,-1.57 0.04,-2.1 0.71,-2.93 -0.54,0.08 -1.32,0.26 -1.85,0.01l-1 -0.84c-0.03,-0.03 -0.1,-0.06 -0.12,-0.14 -0.02,-0.08 -0.08,-0.09 -0.12,-0.12l1.46 0.28c0.66,-2.78 2.82,-3.71 4.13,-5.22 -2.64,0.56 -2.18,1.11 -3.73,2.34 0.57,-2.05 2.05,-3.14 3.87,-4.14 -1.51,0.01 -3.08,0.5 -4.14,1.25 -1.37,0.97 -1.91,2.15 -2.78,2.72 0.41,-1.74 2.32,-3.46 3.45,-4.28 1.42,-1.03 3.24,-1.84 4.69,-2.71 -1.62,0.02 -2.51,0.72 -3.73,1.27 0.36,-0.74 0.67,-0.86 1.3,-1.34 0.47,-0.36 0.99,-0.61 1.46,-1.02 -1.66,0.38 -4.06,0.73 -3.1,-1.61 1.13,0.28 -0.26,-0.12 0.57,0.68 0.96,0.94 2.54,-0.29 3.25,-0.91 2.01,-1.78 2.12,-1.23 4.06,-2.08 -1.42,-0.11 -1.78,0.21 -2.71,0.56 1.52,-3.11 3.46,-1.33 5.37,-1.91 -1.04,-0.72 -1.85,-1.87 -0.84,-3.12 0.56,0.62 0.54,0.78 1.57,1.18 0.93,0.35 1.22,0.29 1.69,1.03 0.65,-0.45 0.99,-0.32 1.46,-0.77 0.96,-0.91 4.32,-5.81 5.24,-7.23l1.07 -1.24c-0.59,2.48 -3.86,7.46 -4.98,10.22 0.94,-0.32 1.26,-0.68 2.04,-1.15 -0.07,1.33 -0.14,1.43 -1.09,1.94 0.52,1.01 1.94,1.92 3.05,2.63 1.28,0.81 1.77,1.72 3.08,2.28 -0.06,0.98 -0.63,1.98 -0.8,3.38 -0.56,0.04 -1.07,-0.04 -1.56,0.09 -0.62,0.17 -0.25,0.21 -0.94,0.5l-0.76 -0.96c-0.84,0.06 -1.7,0.13 -2.44,0.36 -1.78,0.53 -0.87,-0.29 -2.19,-0.18 -0.81,1.27 0.2,5.96 0.52,7.5 0.55,2.7 2.89,2.23 3.5,4.71 1.43,-0.14 2.72,-0.94 4.03,-0.84 2.01,1.36 1.91,2.02 1.47,4.68 2.19,-0.15 1.76,0.02 3.02,1.23 0.23,2.97 0.01,4 0.92,6.93 0.47,1.51 -0.79,1.4 -0.23,3.01 0.28,0.78 0.28,0.37 0.43,1.23 0.52,-1.6 1.01,-3.21 1.38,-4.86 2.14,-9.47 -1.22,-19.58 -6.47,-24.02 0.64,-1.74 1.98,-2.48 3.25,-3.82l9.78 -10.73c2.06,0.05 0.81,1.3 5.35,3.45 2.21,1.05 4.79,1.54 7.51,1.49 5.36,-0.1 10.09,-2.51 12.39,-5.4 2.24,0.66 5.21,4.96 12.54,5.38 4.53,0.26 8.7,-0.84 11.72,-3.95 0.21,-0.21 0.43,-0.44 0.62,-0.6 0.78,-0.66 0.11,-0.2 0.74,-0.51 1.06,1.09 2.35,2.25 3.33,3.4l9.94 10.93c-0.76,1.19 -1.72,2.07 -2.62,3.36 -0.86,1.23 -1.62,2.6 -2.34,4.2 -1.28,4.61 -2.25,7.06 -2.01,12.53 0.14,3.15 1.01,6.24 2.05,9.35zm-68.35 -28.98c1.09,-2.1 5.23,-5.82 7.08,-7.89 0.86,-0.95 1.48,-1.87 2.38,-2.7 1.72,0.77 2.82,2.11 5.43,3.07 2.5,0.92 4.59,1.2 7.4,1.14 6,-0.12 8.63,-2.4 12.46,-4.65 4.06,2.49 6.68,4.5 12.46,4.66 2.71,0.07 5.08,-0.28 7.37,-1.17 3.16,-1.23 4.09,-2.48 5.39,-3.05l9.49 10.15c-0.8,2.32 -2.53,3.31 -4.68,10.4 -1.21,3.98 -1.48,9.13 -0.79,13.41 1.62,10.01 11.17,22.18 1.83,35.08 -6.11,8.43 -9.1,7.05 -20.68,9.12 -7.42,1.34 -7.55,3.05 -10.39,4.6 -3.52,-2.38 -4.99,-3.65 -10.38,-4.58 -3.48,-0.61 -9.61,-1.24 -12.59,-2.34 -6.06,-2.24 -11.4,-9.52 -12.19,-17.56 -1.4,-14.25 14.51,-24.58 0.41,-47.69zm-31.55 23.04c0.2,-2.44 1.7,-4.5 3.76,-5.03 -1.62,1.87 -0.91,1.85 -1.52,2.91 -0.21,0.35 -1.8,1.87 -2.24,2.12zm22.9 -6.2c0.44,-0.52 0.99,-0.77 1.6,-1.25 0.49,-0.37 1.04,-0.89 1.62,-1.14l0.2 2.16 -3.42 0.23zm-33.44 9.24c0.23,-2.52 0.16,-2.93 1.2,-5.87 0.71,-1.99 2,-3.9 3.32,-4.58 -1.86,2.41 -3.88,7.06 -2.3,9.66 0.2,-3.38 0.56,-6.4 3.52,-7.26 -0.98,1.68 -2.09,3.22 -1.7,5.84 0.42,-0.59 0.15,-0.19 0.31,-0.93 0.41,-1.88 1.6,-3.98 3.58,-4.51 -1.49,1.97 -1.94,2.17 -1.23,5.42 0.77,-1.38 0.14,-2.11 2.89,-3.97 -0.06,1.45 0.29,2.53 0.29,3.57 -0.85,0.57 -0.74,0.45 -1.6,0.82 -0.64,0.28 -0.79,0.5 -1.45,0.77 -1.01,0.43 -2.3,0.67 -3.21,1.41 -2.94,2.36 -3.56,10.84 -4.6,-0.98 -0.24,-2.72 -0.2,-4.55 1.15,-6.37 -0.21,1.16 -0.73,2.2 -0.77,3.74 -0.02,0.8 0.09,3.38 0.4,3.99l0.2 -0.75zm289.77 7.8c-0.11,-11.39 -4.08,-21 -11.92,-28.83 -7.83,-7.82 -17.46,-11.73 -28.88,-11.73l-17.29 0 0 81.29 17.44 0c11.42,-0.11 21.08,-4.08 28.97,-11.89 7.89,-7.84 11.78,-17.44 11.68,-28.84zm64.39 1.74c-5.71,0 -10.59,2 -14.64,6 -4.05,3.99 -6.07,8.82 -6.07,14.53l0 39.32 -21.02 0 0 -39.32c0,-11.6 4.05,-21.41 12.14,-29.46 8.1,-8.02 17.97,-12.04 29.59,-12.04l0 20.97zm95.39 59.85l-22.35 0 -4.41 -12.14c-8.31,9.76 -18.9,14.63 -31.8,14.63 -11.62,0 -21.46,-4.04 -29.51,-12.14 -8.04,-8.1 -12.07,-17.91 -12.07,-29.44 0,-8.82 2.49,-16.79 7.48,-23.9 4.98,-7.11 11.63,-12.17 19.93,-15.18 4.88,-1.77 9.66,-2.65 14.33,-2.65 8.82,0 16.79,2.52 23.9,7.55 7.11,5.04 12.18,11.71 15.19,20.01l19.31 53.26zm-37.85 -39.16c0,-7.3 -2.95,-12.98 -8.87,-17.03 -3.43,-2.41 -7.37,-3.61 -11.84,-3.61 -7.26,0 -12.87,2.91 -16.82,8.75 -2.49,3.66 -3.73,7.6 -3.73,11.89 0,7.19 2.96,12.82 8.87,16.87 3.64,2.52 7.53,3.76 11.68,3.76 5.71,0 10.59,-2 14.64,-6.02 4.05,-4 6.07,-8.88 6.07,-14.61zm116.88 59.88c0,14.95 -6.13,26.47 -18.38,34.57 -7.06,4.67 -14.79,7.01 -23.2,7.01 -14.74,0 -26.27,-6.18 -34.57,-18.54 -4.78,-7.16 -7.17,-14.84 -7.17,-23.04 0,-5.4 1.04,-10.59 3.12,-15.58l19.47 7.79c-1.04,2.49 -1.56,5.09 -1.56,7.79 0,5.71 2.02,10.56 6.07,14.56 4.05,3.99 8.93,5.99 14.64,5.99 5.61,0 10.43,-2.02 14.48,-6.1 4.05,-4.07 6.08,-8.9 6.08,-14.53 0,-9.16 -4.31,-15.58 -12.9,-19.24 -2.6,0.63 -5.17,0.94 -7.76,0.94 -11.71,0 -21.57,-4.02 -29.59,-12.07 -8.02,-8.05 -12.05,-17.93 -12.05,-29.67 0,-11.62 4.03,-21.46 12.1,-29.51 8.07,-8.04 17.91,-12.07 29.48,-12.07l12.15 -28.81 16.64 7.06 -11.06 25.8c7.32,3.53 13.16,8.67 17.49,15.42 4.34,6.75 6.52,14.12 6.52,22.11 0,11.84 -4.31,21.81 -12.93,29.9 8.62,8.21 12.93,18.28 12.93,30.22zm-21.02 -60.12c0,-5.6 -2.03,-10.43 -6.08,-14.48 -4.05,-4.05 -8.87,-6.07 -14.48,-6.07 -5.71,0 -10.59,2 -14.64,5.99 -4.05,4 -6.07,8.85 -6.07,14.56 0,5.71 2.02,10.59 6.07,14.64 4.05,4.05 8.93,6.08 14.64,6.08 5.71,0 10.56,-2.03 14.56,-6.08 4,-4.05 6,-8.93 6,-14.64zm88.06 -41.42l-38.46 80.82 -38.94 -80.82 24.92 0 14.17 33.17 14.17 -33.17 24.14 0zm73.12 41.45c0,2.05 -0.16,4.13 -0.47,6.2l-60.89 0c1.35,4.36 3.84,7.87 7.47,10.51 3.64,2.65 7.74,3.98 12.31,3.98 6.33,0 11.57,-2.44 15.73,-7.32l12.77 16.97c-8,7.58 -17.5,11.37 -28.5,11.37 -11.73,0 -21.62,-4.02 -29.67,-12.04 -8.04,-8.05 -12.07,-17.91 -12.07,-29.62 0,-11.6 4.05,-21.41 12.15,-29.46 8.1,-8.02 17.96,-12.04 29.59,-12.04 11.63,0 21.46,4 29.51,12.02 8.04,8.02 12.07,17.83 12.07,29.43zm-23.52 -9.53c-3.84,-7.26 -9.86,-10.9 -18.06,-10.9 -8.31,0 -14.38,3.64 -18.22,10.9l36.28 0zm82.31 25.03c0,4.98 -1.67,9.49 -4.99,13.57 -6.64,8.12 -16.09,12.02 -28.34,11.7 -4.88,-0.1 -10.2,-1.19 -15.96,-3.27 -5.76,-2.07 -10.46,-4.67 -14.1,-7.78l11.68 -15.11c5.61,5.3 11.58,7.94 17.91,7.94l0.47 0c2.6,0 4.93,-0.46 7.01,-1.4 2.7,-1.24 4.05,-3.01 4.05,-5.29l0 -0.63c-0.32,-2.38 -1.92,-4.1 -4.83,-5.13 -1.14,-0.21 -3.58,-0.68 -7.32,-1.41 -4.67,-0.93 -8.62,-2.07 -11.84,-3.42 -9.44,-4.05 -14.17,-11.16 -14.17,-21.34 0,-9.76 4.83,-17.07 14.48,-21.95 4.26,-2.18 8.88,-3.33 13.86,-3.43 5.2,-0.1 10.59,0.78 16.2,2.65 6.44,2.18 11.01,5.03 13.7,8.56l-14.01 12.62c-3.63,-3.74 -7.58,-5.61 -11.84,-5.61 -6.64,0 -9.96,2.18 -9.96,6.57l0 0.31c0,2.07 2.7,3.84 8.1,5.29 0.41,0.11 3.84,0.78 10.27,2.03 13.08,2.52 19.63,10.51 19.63,24.06l0 0.47zm46.64 23.87c-11.63,0 -21.49,-4.02 -29.59,-12.04 -8.1,-8.05 -12.15,-17.88 -12.15,-29.48l0 -81.66 21.02 0 0 42.36 20.72 0 0 17.91 -20.72 0 0 21.33c0,5.71 2.03,10.57 6.08,14.56 4.05,4 8.93,6 14.64,6l0 21.02zm25.93 -97.17c0,3.53 -1.2,6.51 -3.59,8.95 -2.38,2.44 -5.34,3.66 -8.87,3.66 -3.53,0 -6.52,-1.22 -8.96,-3.66 -2.44,-2.44 -3.66,-5.42 -3.66,-8.95 0,-3.53 1.22,-6.49 3.66,-8.88 2.44,-2.39 5.43,-3.58 8.96,-3.58 3.42,0 6.36,1.22 8.8,3.66 2.43,2.44 3.66,5.37 3.66,8.8zm-1.87 98.73l-21.03 0 0 -80.82 21.03 0 0 80.82z"/>
 </g>
</svg>
