<?xml version="1.0" encoding="UTF-8"?>
<!DOCTYPE svg PUBLIC "-//W3C//DTD SVG 1.1//EN" "http://www.w3.org/Graphics/SVG/1.1/DTD/svg11.dtd">
<!-- Creator: CorelDRAW 2017 -->
<svg xmlns="http://www.w3.org/2000/svg" xml:space="preserve" width="50.7998mm" height="33.8666mm" version="1.1" style="shape-rendering:geometricPrecision; text-rendering:geometricPrecision; image-rendering:optimizeQuality; fill-rule:evenodd; clip-rule:evenodd"
viewBox="0 0 5079.98 3386.66"
 xmlns:xlink="http://www.w3.org/1999/xlink">
 <defs>
  <style type="text/css">
   <![CDATA[
    .fil5 {fill:#251E22}
    .fil4 {fill:#2A1B23}
    .fil3 {fill:#E51E2A}
    .fil2 {fill:#E5212A}
    .fil0 {fill:#EC018C}
    .fil1 {fill:#EE1C25}
   ]]>
  </style>
 </defs>
 <g id="Capa_x0020_1">
  <metadata id="CorelCorpID_0Corel-Layer"/>
  <path class="fil0" d="M2000.69 325.04c147.33,-20.19 329.66,58.06 339.45,142.49 6.09,52.52 -82.26,30.71 -118.21,25.33 -185.61,-27.73 -191.62,-3.97 -312.91,-12.46 -57.29,-4 -41.45,-73.4 -20.44,-104.14 20.84,-30.48 61.18,-44.24 112.11,-51.22zm1292.57 137.12c-38.77,12.8 -90.72,0.63 -130.49,-5.09 -91.34,-13.15 -253.7,1.19 -269.87,-15.38 -27.3,-27.96 5.64,-84.46 21.36,-97.71 102.73,-86.59 414.78,5.38 379,118.18zm-833.5 2260.88c-8.53,-9.27 -27.62,-97.76 -33.12,-117.93 -27.88,-102.11 -84.36,-257.98 -123.45,-348.8 -65.95,-153.22 -142.96,-277.08 -250.02,-374.52 -150.21,-136.7 -357.98,-300.11 -553.77,-381.08 -38.69,-16 -72.12,-29.2 -113.75,-43.83 -39.1,-13.75 -81.52,-22.91 -119.46,-34.89 243.27,-47.01 486.13,-241.8 665.46,-402.28 33.28,-29.78 64.61,-36.41 120.02,-37.66l3.84 23.69 -0.1 -23.22c117.84,0.48 254.9,29.83 373.02,47.39 50.76,7.55 85.37,4.47 135.67,7.03 3.2,-1.74 150.3,-31.55 157.07,-31.4 25.72,-20.86 207.38,-66.23 251.09,-71.83 51.81,-6.63 96.23,-4.73 143.72,8.27 35.72,9.78 89.73,31.73 106.59,54.44 38.18,11.29 107.73,95.3 132.79,129.22 18.79,25.43 34.44,46.79 53.65,74.46 14.87,21.4 42.24,58.4 53.17,78.73 20.32,9.02 24.23,50.52 101.86,80.55l42.93 21.63 6.46 -1.95c22.61,-2.49 109.22,23.2 146.38,-52.09 -41.02,-29.47 -50.01,-9.33 -65.31,-102.78 -52.67,-321.74 -109.94,-940.75 -519.33,-1005.53 -94.81,-15 -227.36,-5.46 -307.45,24.72 -95.51,36 -126.72,85.32 -177.73,161.83 -76.33,114.51 -129.1,62.85 -212.56,4.21 -115.16,-80.9 -291.59,-202.28 -491.15,-176.17 -403.17,52.76 -653.63,741.27 -784.59,1079.97 -21.69,56.09 -51.36,64.6 -75.56,97.4l111.85 218.46c38.81,77.56 71.94,147.57 108.63,226.17 177.13,379.51 181.86,568.95 565.05,768.27 143.98,74.89 306.13,123.03 474.52,109.05 24.95,-2.07 47.91,-9.25 73.58,-9.53z"/>
  <path class="fil1" d="M2527.61 1791.86c61.06,-17.1 70.1,45.89 82.8,93.19 16.09,59.95 13.11,109.58 -56.35,106.63 -110.96,-4.7 -130.68,-170.62 -26.45,-199.82zm877.96 1335.42c73.9,-25.05 165.45,-72.69 219.5,-109.16 218.02,-147.12 338.68,-370.11 328.16,-662.73 -7.01,-195.15 -33.26,-401.11 -90.22,-571.11 -44.91,-134.07 -146.36,-332.15 -256.04,-403.27l-42.93 -21.63c-77.63,-30.03 -81.54,-71.53 -101.86,-80.55 -10.3,1.77 -174.95,-80.28 -225.06,-84.18l8.03 154.69 -200.6 15.38c4.83,7.09 12.16,4.6 -36.23,27.86 -63.14,30.33 -150.2,50.23 -162.6,57.4 12.35,16.13 47.97,40.13 66.66,54.8 63.19,49.6 130.71,107.91 187.87,166.48 60.47,61.95 161.03,224.65 177.5,301.79 264.65,-63.47 593.82,-121.82 627.3,251.84 12.78,142.63 -10.41,280.74 -128.22,354.48 -42.39,26.54 -42.2,50.83 -58.14,104.15 -85.05,284.49 -173.82,94.83 -244.43,55.49 -20.81,-11.59 -43.35,-15.13 -68.42,-9.67 -59.41,12.94 -55.17,160.74 -130.63,278.48 -56.08,87.48 -134.4,91.7 -194.3,6.47 -66.08,-94.02 -90.31,-248.11 -129.4,-357.34 -20.47,-57.22 -26.88,-61.45 -76.8,-86.28 -261.38,-130.06 -369.38,-35.35 -304.62,-312.46 19.58,-83.78 44.75,-184.47 102.13,-222.49 57.86,-38.33 206.49,4.97 290.08,5.6 78.27,0.59 211.03,-22.93 268.38,-54.59 -11.99,-7.22 -25.41,-42.75 -33.74,-57.87 -32.88,-59.69 -73.35,-114.16 -117.81,-162.69 -62.83,-68.57 -122.1,-121.9 -199.16,-174.85 -58.45,-40.16 -180.02,-121.94 -252.15,-121.58 -72.72,0.37 -274.28,-21.26 -314.36,-54.74 -45.61,2.01 -196.01,19.66 -228.73,12.31l-17.74 -224.26c-8.27,-12.34 -3.45,-4.23 -10.1,-10.12 -94.17,23.59 -335.6,152.84 -425.52,205.33 -32.2,18.79 -102.89,58.9 -124.61,81.25 20.4,13.28 60.27,20.29 83.87,28.43 409.56,141.29 668.67,470.75 808.43,884.26 40.15,118.8 66.79,226.22 119.33,333.31 99.69,203.22 255.96,367.5 489.65,410.51 69,12.71 133.76,18.12 210.33,15.75 64.17,-1.99 174.05,-31.17 187.2,-24.49z"/>
  <path class="fil2" d="M2819.6 2242.36c28.44,66.47 -4.48,229.86 73.4,221.8 39.71,-4.11 57.4,-90.47 76.19,-146.23 3.72,-11.02 6.01,-18.75 9.62,-29.78 5.58,-17 4.02,-16.34 13.45,-27.18 0.67,48.26 -13.72,181.02 -0.99,198.24 13.09,17.7 42.3,10.73 51.42,-3.63 9.98,-15.7 13.08,-248.85 4.82,-268.29 -14.77,-19.83 -55.77,-19.84 -76.98,-11.04 -14.19,12.24 -64.6,153.59 -72.81,179.38 -45.23,-63.09 20.22,-210.92 -97.67,-201.47 -39.99,3.2 -35.22,60.71 -49.37,133 -4.13,21.14 -29,130.8 -21.23,148.3 6.95,15.66 31.25,21.25 47.48,10.67 24.8,-16.17 26.1,-167.32 42.67,-203.77z"/>
  <path class="fil3" d="M3566.05 2233.58c-7.92,-24.98 -20.36,-100.64 -41.42,-111.34 -24.71,-12.55 -42.05,3.03 -42.62,26.21 -0.37,14.92 10.2,50.59 14.02,66.47 9.98,41.44 20.05,83.21 29.66,122.62 4.98,20.42 7.58,48.25 20.22,59.26 17.5,15.26 40.92,6.85 52.87,-10.73 20.77,-53.85 -48.14,-47.95 22.88,-133.87 43.83,9.52 143.31,136.54 187.58,68.74 13.75,-41.73 -108.92,-76.52 -152.88,-123.01 7.74,-24.43 29.45,-51.73 41.67,-76.29 23.43,-47.11 -17.59,-65.19 -41.58,-41.6 -22.92,22.55 -59.54,132.6 -90.4,153.54z"/>
  <path class="fil2" d="M3273.59 2446.97c8.47,1.33 256.24,-6.9 214.68,-61.08 -22.6,-29.47 -104.37,14.78 -165.12,8.17l-26.92 -209.83c-6.16,-23.39 -31.45,-36.03 -50.05,-17.4 -17.9,17.93 4.66,166.71 8.79,214.24 3,34.54 -1.85,46.08 18.62,65.9z"/>
  <g id="_1806756028272">
   <path class="fil4" d="M2459.76 2723.04c56.16,149.36 191.38,308.77 339.54,380.96 84.94,41.4 182.09,63.04 290.91,69.52 129.49,7.7 206,-15.78 315.36,-46.24 -13.15,-6.68 -123.03,22.5 -187.2,24.49 -76.57,2.37 -141.33,-3.04 -210.33,-15.75 -233.69,-43.01 -389.96,-207.29 -489.65,-410.51 -52.54,-107.09 -79.18,-214.51 -119.33,-333.31 -139.76,-413.51 -398.87,-742.97 -808.43,-884.26 -23.6,-8.14 -63.47,-15.15 -83.87,-28.43 21.72,-22.35 92.41,-62.46 124.61,-81.25 89.92,-52.49 331.35,-181.74 425.52,-205.33 6.65,5.89 1.83,-2.22 10.1,10.12l-11.48 -197.31 -3.84 -23.69c-55.41,1.25 -86.74,7.88 -120.02,37.66 -179.33,160.48 -422.19,355.27 -665.46,402.28 37.94,11.98 80.36,21.14 119.46,34.89 41.63,14.63 75.06,27.83 113.75,43.83 195.79,80.97 403.56,244.38 553.77,381.08 107.06,97.44 184.07,221.3 250.02,374.52 39.09,90.82 95.57,246.69 123.45,348.8 5.5,20.17 24.59,108.66 33.12,117.93z"/>
   <path class="fil5" d="M2564.1 1036.94l22.92 358.53 -273.56 19.53c40.08,33.48 241.64,55.11 314.36,54.74 72.13,-0.36 193.7,81.42 252.15,121.58 77.06,52.95 136.33,106.28 199.16,174.85 44.46,48.53 84.93,103 117.81,162.69 8.33,15.12 21.75,50.65 33.74,57.87l47.07 -13.68c-16.47,-77.14 -117.03,-239.84 -177.5,-301.79 -57.16,-58.57 -124.68,-116.88 -187.87,-166.48 -18.69,-14.67 -54.31,-38.67 -66.66,-54.8 12.4,-7.17 99.46,-27.07 162.6,-57.4 48.39,-23.26 41.06,-20.77 36.23,-27.86l-297.95 19.6c-6.99,-33.25 -30.03,-358.8 -25.43,-378.78 -6.77,-0.15 -153.87,29.66 -157.07,31.4z"/>
   <path class="fil4" d="M3237.12 1194.65c50.11,3.9 214.76,85.95 225.06,84.18 -10.93,-20.33 -38.3,-57.33 -53.17,-78.73 -19.21,-27.67 -34.86,-49.03 -53.65,-74.46 -25.06,-33.92 -94.61,-117.93 -132.79,-129.22l14.55 198.23z"/>
  </g>
  <path class="fil2" d="M3181.98 2452.38c5.78,-22.56 -4.37,-242.66 -9.72,-262.41 -8.42,-31.13 -46.24,-29.6 -55.14,-4.6 -2.95,8.29 -4.08,245.72 5.66,265.4 13.18,26.61 44.41,13.4 59.2,1.61z"/>
 </g>
</svg>
