<?xml version="1.0" encoding="UTF-8"?>
<!DOCTYPE svg PUBLIC "-//W3C//DTD SVG 1.1//EN" "http://www.w3.org/Graphics/SVG/1.1/DTD/svg11.dtd">
<!-- Creator: CorelDRAW 2017 -->
<svg xmlns="http://www.w3.org/2000/svg" xml:space="preserve" width="61.722mm" height="39.7932mm" version="1.1" style="shape-rendering:geometricPrecision; text-rendering:geometricPrecision; image-rendering:optimizeQuality; fill-rule:evenodd; clip-rule:evenodd"
viewBox="0 0 6172.2 3979.32"
 xmlns:xlink="http://www.w3.org/1999/xlink">
 <defs>
  <style type="text/css">
   <![CDATA[
    .fil0 {fill:none}
    .fil1 {fill:black}
   ]]>
  </style>
 </defs>
 <g id="Capa_x0020_1">
  <metadata id="CorelCorpID_0Corel-Layer"/>
  <rect class="fil0" y="-0" width="6172.2" height="3979.33"/>
  <path class="fil1" d="M3636.94 1668.77l-73.34 116.77c-15,-4.27 -253.62,-158.37 -288.28,-180.23 -94.63,-59.68 -192.89,-126.97 -289.92,-183.26 6.24,-20.5 57.96,-94.23 72.48,-118.55l579.06 365.27zm-13.22 -83.05l-483.85 -305.78c12.51,-14.71 56.4,-31.01 73.47,-35.89 162.96,-46.55 325.54,30.64 386.13,172.91 15.59,36.63 37.46,116.27 24.25,168.76zm-484.61 305.72l-534.24 845.48 -69.42 -42.38 535.14 -847.16 68.52 44.06zm345.55 -79.45c-31.38,29.83 -108.51,51.59 -159.2,54.47 -130.25,7.43 -259.85,-71.31 -307.69,-189.63 -22.15,-54.74 -37.2,-113.33 -23.89,-174.52l490.78 309.68zm57.64 37.04c-68.26,62.46 -192.53,91.16 -287.71,76.9 -67.2,-10.07 -41.92,-31.6 -91.99,46.95l-117.87 186.38c-52.43,83.29 -104.62,167 -157.75,249.25l-233.96 369.62c-14.35,22.97 -25.44,43.66 -54.39,30.27l-124.69 -78.66c-22.23,-16.78 -13.96,-35.32 1.94,-60.1l235.38 -371.84c52.36,-82.73 104.26,-164.84 156.34,-247.05 29.93,-47.25 139.1,-214.31 156.44,-248.27 -38.32,-50.93 -64.78,-83.5 -82.61,-150.4 -29.75,-111.72 -3.22,-171.96 -6.72,-184.51 -3.43,-12.29 -45.08,-16.17 -12.19,-67.27l90.17 -142.48c21.19,-34.03 30.09,-34.99 67.4,-16.89 7.27,-2.97 7.57,-3.78 15.65,-9.23 74.13,-50.08 166.64,-73.55 259.85,-62.17 194.01,23.69 330.93,186.84 334.13,371.75 0.19,10.75 -6.02,79.1 -5.66,80.11 5.94,16.7 48.84,15.03 14.75,68.14l-89.96 141.83c-21.31,34.25 -29.99,37.51 -66.55,17.67z"/>
 </g>
</svg>
