<?xml version="1.0" encoding="UTF-8"?>
<!DOCTYPE svg PUBLIC "-//W3C//DTD SVG 1.1//EN" "http://www.w3.org/Graphics/SVG/1.1/DTD/svg11.dtd">
<!-- Creator: CorelDRAW 2017 -->
<svg xmlns="http://www.w3.org/2000/svg" xml:space="preserve" width="158.75mm" height="105.833mm" version="1.1" style="shape-rendering:geometricPrecision; text-rendering:geometricPrecision; image-rendering:optimizeQuality; fill-rule:evenodd; clip-rule:evenodd"
viewBox="0 0 15874.98 10583.32"
 xmlns:xlink="http://www.w3.org/1999/xlink">
 <defs>
  <style type="text/css">
   <![CDATA[
    .str1 {stroke:#2B2A29;stroke-width:156.71;stroke-miterlimit:22.9256}
    .str0 {stroke:#2B2A29;stroke-width:142.4;stroke-linecap:round;stroke-linejoin:round;stroke-miterlimit:22.9256}
    .fil0 {fill:none}
    .fil1 {fill:none;fill-rule:nonzero}
    .fil3 {fill:#2B2A29}
    .fil2 {fill:#2B2A29;fill-rule:nonzero}
   ]]>
  </style>
 </defs>
 <g id="Capa_x0020_1">
  <metadata id="CorelCorpID_0Corel-Layer"/>
  <rect class="fil0" x="-0.01" y="-0.01" width="15874.99" height="10583.33"/>
  <g>
   <path class="fil1 str0" d="M720.17 5207.76l1230.34 0c5.64,0 10.57,1.76 14.44,4.92 4.24,3.53 6.34,7.75 6.34,13.04 0,8.8 -1.4,14.79 -4.58,17.61 -3.17,3.18 -8.45,4.58 -16.2,4.58l-1228.23 0c-17.96,0 -29.22,-2.83 -34.51,-8.45 -5.29,-5.29 -7.75,-16.55 -7.75,-33.83l0 -1844.61c0,-5.99 2.11,-11.28 6.34,-15.15 3.87,-4.23 8.81,-6.34 14.45,-6.34 5.97,0 10.91,1.76 14.09,5.64 3.51,3.87 5.27,9.16 5.27,15.85l0 1846.74zm1386.36 -769.28l-31.7 0c-148.99,0 -280.73,42.28 -395.9,126.46 -115.18,84.17 -172.61,176.11 -172.61,275.44 0,42.97 13.39,77.5 39.82,102.85 26.76,25.71 62.7,38.4 107.77,38.4 94.75,0 186.33,-51.79 274.74,-155.34 88.77,-103.9 147.93,-233.18 177.88,-387.81zm40.15 548.07c0,9.17 -1.41,15.5 -4.22,19.03 -3.18,3.86 -7.4,5.64 -13.04,5.64 -7.39,0 -13.03,-2.13 -16.9,-6.7 -3.88,-4.58 -5.99,-10.58 -5.99,-17.97l0 -422.33c-41.91,133.87 -106.01,243.76 -192.66,329.35 -86.67,85.58 -174.02,128.21 -261.72,128.21 -58.11,0 -103.9,-15.5 -136.65,-46.85 -32.78,-31.35 -49.33,-75.03 -49.33,-130.68 0,-110.95 62.7,-212.74 187.74,-306.09 125.04,-93.34 262.77,-139.83 412.82,-139.83 13.74,0 23.95,0 29.94,0.35 6.34,0.35 12.32,1.05 18.66,1.77l6.34 0c8.81,1.41 15.15,3.87 19.03,8.1 3.87,4.22 5.98,10.56 5.98,19.72l0 558.28zm531.87 -220.5l0 11.99c0,74.31 12.31,126.8 36.62,157.44 24.32,30.65 65.17,46.15 122.23,46.15 35.93,0 67.28,-7.05 94.39,-21.14 27.13,-14.09 55.65,-38.75 85.24,-74.67l4.94 -4.93c3.52,-5.64 6.33,-9.16 8.81,-10.93 2.46,-1.76 5.27,-2.46 8.8,-2.46 5.29,0 9.86,1.4 13.74,4.58 3.87,3.17 5.62,7.05 5.62,11.97 -0.7,3.88 -3.16,8.8 -7.04,14.44 -2.11,2.46 -3.52,4.24 -4.22,4.94l-2.11 4.22c-19.38,32.4 -48.62,59.53 -88.07,81.37 -39.45,21.83 -79.6,32.76 -121.16,32.76 -70.44,0 -121.17,-17.96 -151.8,-53.54 -30.65,-35.57 -46.15,-95.45 -46.15,-179.99l0 -10.21 6.33 -322.64 -191.96 0c-5.99,0 -11.28,-2.13 -15.14,-5.99 -4.24,-4.24 -6.35,-9.51 -6.35,-16.2 0,-6.7 1.76,-11.64 5.29,-14.1 3.17,-2.46 8.81,-3.88 16.2,-3.88l191.96 0 16.57 -481.49c0,-6.69 1.76,-11.98 5.62,-15.85 3.89,-3.88 8.46,-5.64 13.39,-5.64 6.35,0 10.92,1.76 14.1,5.29 3.16,3.16 4.92,8.8 4.92,16.2l-12.67 481.49 283.89 0c5.64,0 10.56,2.13 14.44,6.7 4.22,4.58 6.35,9.5 6.35,15.49 0,6 -1.78,10.58 -5.29,13.39 -3.17,3.17 -8.45,4.59 -15.5,4.59l-285.65 0 -6.34 310.65zm819.25 -198.65c0,-48.25 -5.62,-81.37 -16.55,-99.33 -10.91,-18.31 -29.57,-27.47 -55.65,-27.47 -32.4,0 -74.31,19.37 -125.75,57.76 -11.61,8.1 -20.43,14.45 -25.7,18.31l-4.24 2.13c-2.11,1.41 -3.86,2.46 -5.62,3.16 -1.78,0.71 -3.53,1.06 -5.64,1.06 -4.24,0 -8.1,-1.41 -11.28,-4.22 -3.52,-2.83 -5.27,-5.29 -5.27,-8.1 0,-4.24 0.7,-7.75 2.1,-10.23 1.41,-2.81 3.52,-5.27 6,-7.4l4.21 -4.21c33.13,-29.24 64.83,-51.44 94.4,-66.23 29.94,-14.8 58.13,-22.18 84.19,-22.18 34.16,0 59.88,11.62 77.84,35.22 17.96,23.24 27.13,57.05 27.13,101.79l0 59.89c85.58,-83.14 148.27,-137.03 188.09,-160.98 39.8,-23.95 78.2,-35.92 115.17,-35.92 42.98,0 77.84,13.73 104.62,41.21 26.76,27.11 40.15,63.4 40.15,108.49 0,37.32 -9.15,69.74 -27.48,97.21 -18.31,27.48 -45.09,48.6 -81.01,63.75l-4.93 2.11c-1.41,0.72 -3.17,1.07 -5.27,1.42 -2.13,0.35 -4.24,0.7 -6.35,0.7 -3.53,0 -6.34,-1.4 -8.8,-4.23 -2.48,-2.81 -3.53,-5.99 -3.53,-10.21 0,-2.81 0.7,-5.29 2.11,-7.4 1.42,-1.76 3.53,-3.51 6.34,-4.94l3.88 -2.11c30.3,-17.25 52.12,-35.56 65.16,-55.3 13.04,-19.73 19.73,-42.98 19.73,-69.74 0,-38.39 -9.87,-68.34 -29.94,-89.46 -20.09,-20.78 -48.25,-31.35 -84.89,-31.35 -31.35,0 -70.45,15.85 -116.94,47.91 -46.85,32.05 -105.66,83.81 -176.11,155.33l0 346.94c0,5.29 -2.12,10.21 -6.34,14.45 -4.59,3.86 -9.88,5.99 -16.55,5.99 -6.35,0 -10.93,-1.43 -13.39,-4.59 -2.46,-3.16 -3.89,-8.45 -3.89,-15.85l0 -423.38zm810.82 -631.9c13.75,0 25.38,4.94 34.53,14.44 9.51,9.86 14.1,21.14 14.1,34.16 0,13.04 -4.94,24.31 -14.45,34.18 -9.86,9.51 -21.14,14.45 -34.18,14.45 -12.31,0 -23.59,-4.94 -33.45,-15.15 -10.21,-9.88 -15.15,-21.14 -15.15,-33.48 0,-13.02 4.94,-24.3 15.15,-34.16 9.86,-9.5 21.14,-14.44 33.45,-14.44zm19.03 1054.93c0,5.64 -2.1,10.56 -6.34,14.44 -4.57,4.22 -9.86,6.35 -16.55,6.35 -6.34,0 -10.91,-1.43 -13.39,-4.59 -2.46,-3.16 -3.87,-8.45 -3.87,-16.2l0 -568.5c0,-6.7 2.11,-11.97 6.35,-15.85 4.57,-3.87 9.5,-5.63 15.49,-5.63 5.63,0 10.21,2.11 13.38,6.68 3.18,4.59 4.93,10.93 4.93,19.03l0 564.27zm916.14 -74.33l5.28 -4.22c0.71,-0.7 2.46,-1.75 5.29,-3.18 6.68,-3.51 11.27,-5.27 13.38,-5.27 3.53,0 6.69,1.76 9.87,5.62 3.16,3.89 4.57,8.12 4.57,13.04 0,3.54 -0.7,6.7 -2.11,9.86 -1.4,3.18 -3.18,5.64 -5.29,7.05l-4.92 2.83c-30.29,23.6 -67.28,42.61 -110.61,57.76 -42.97,14.79 -84.52,22.19 -124.69,22.19 -103.2,0 -187.72,-29.59 -253.6,-88.41 -65.86,-58.83 -98.98,-133.49 -98.98,-224.37 0,-83.84 32.77,-156.39 97.92,-217.33 65.51,-60.94 143,-91.22 232.83,-91.22 46.15,0 90.87,5.98 133.85,17.61 42.61,11.62 79.6,27.46 110.95,48.25l5.99 3.87c8.45,5.64 13.37,9.87 15.5,12.33 2.11,2.82 3.16,6.35 3.16,10.21 0,4.94 -1.41,9.16 -4.22,12.34 -2.83,3.51 -5.99,5.29 -10.22,5.29 -3.52,0 -7.75,-1.78 -12.32,-5.29 -4.94,-3.18 -8.1,-5.29 -9.53,-5.99l-5.97 -2.11c-35.23,-19.03 -70.45,-33.46 -105.68,-42.63 -34.86,-9.16 -73.26,-13.73 -114.46,-13.73 -84.89,0 -155.69,26.06 -212.41,77.85 -56.71,52.12 -85.23,115.52 -85.23,190.55 0,76.44 29.93,141.24 89.46,193.73 59.54,52.47 134.2,78.9 223.68,78.9 38.37,0 75.36,-5.29 109.89,-16.2 34.86,-10.58 67.62,-27.14 98.62,-49.33zm327.92 -240.91l526.23 1.05c-7.4,-71.14 -35.58,-128.57 -84.19,-172.24 -48.6,-43.68 -108.49,-65.52 -178.93,-65.52 -69.75,0 -129.61,22.19 -179.29,66.93 -49.66,44.74 -77.49,101.44 -83.82,169.78zm0 40.15c0,82.06 24.66,146.89 73.61,194.44 48.96,47.9 115.54,71.85 199.71,71.85 41.92,0 79.26,-6.35 112.02,-18.68 33.1,-12.67 73.25,-39.8 121.51,-81.01l3.88 -2.11c3.52,-3.53 7.4,-5.99 10.91,-7.75 3.54,-1.75 6.7,-2.47 9.51,-2.47 5.29,0 9.17,1.42 12.69,4.58 3.16,3.17 4.58,7.05 4.58,11.63 0,3.52 -0.7,6.68 -2.12,9.86 -1.41,2.81 -3.87,6.35 -6.68,9.51l-4.59 4.23c-39.8,40.16 -80.65,69.03 -122.93,86.3 -42.26,17.26 -90.86,26.06 -146.52,26.06 -92.63,0 -166.96,-28.54 -222.26,-85.24 -55.65,-56.71 -83.49,-132.44 -83.49,-227.54 0,-88.76 29.59,-162.74 88.43,-221.9 58.81,-59.18 133.14,-88.77 222.6,-88.77 79.95,0 148.99,28.88 207.82,86.64 58.46,58.13 87.7,123.99 87.7,197.97l0 4.22c0,10.21 -2.46,17.25 -7.4,21.84 -4.58,4.22 -12.68,6.34 -23.95,6.34l-535.03 0zm-2820.96 1240l590.57 396.42c1.59,1.2 2.78,2.59 3.98,4.17 1.17,1.58 1.77,2.77 1.77,3.95 0,2.78 -0.98,5.34 -3.16,7.52 -2.18,2.37 -4.76,3.57 -7.73,3.57 -0.79,0 -1.78,-0.4 -2.96,-0.98 -1.19,-0.41 -2.17,-1.01 -2.97,-1.39l-617.7 -413.26c-0.41,-0.4 -1.2,-0.98 -2.78,-1.77 -5.74,-2.59 -8.71,-6.54 -8.71,-11.5 0,-2.76 0.8,-4.93 2.39,-6.73 1.58,-1.58 3.76,-2.56 6.92,-2.56l2.37 0 5.75 0c0.38,0 1.17,0 2.18,0 21.36,1.58 46.7,2.37 76.38,2.37 69.87,0 124.09,-3.16 162.89,-9.49 38.59,-6.54 72.65,-17.22 101.94,-32.26 50.66,-24.74 88.65,-59.59 113.99,-104.31 25.53,-44.93 38.2,-98.96 38.2,-162.29 0,-55.02 -10.88,-103.9 -32.65,-147.06 -21.77,-43.14 -53.65,-78.97 -95.8,-107.47 -27.71,-18.61 -59.57,-32.05 -95.59,-40.17 -36.22,-8.12 -85.51,-12.07 -148.45,-12.07l-335.27 0 0 1037.67c0,3.38 -0.99,6.15 -3.17,8.31 -2.18,2.18 -5.15,3.38 -8.91,3.76 -3.55,0 -6.13,-0.98 -7.9,-3.16 -1.8,-2.18 -2.59,-5.15 -2.59,-8.91l0 -1046.99c0,-4.14 2.18,-7.52 6.35,-9.7 4.36,-2.37 10.08,-3.55 17.41,-3.55l349.72 0c120.93,0 214.34,28.7 280.25,86.09 66.11,57.41 99.16,138.34 99.16,243.25 0,108.07 -34.83,190.39 -104.5,246.6 -69.67,56.22 -171.8,84.31 -306.38,84.31 -20.19,0 -35.43,-0.19 -45.92,-0.59 -10.49,-0.39 -20.19,-0.99 -29.08,-1.78zm1044.58 -289.85c-75.37,0 -139.49,26.76 -192.31,79.95 -52.84,53.19 -79.25,116.95 -79.25,190.55 0,72.93 26.77,136.33 80.66,190.22 53.89,53.52 117.64,80.3 190.9,80.3 73.98,0 137.38,-26.42 190.22,-78.89 52.82,-52.49 79.25,-116.59 79.25,-191.63 0,-76.43 -26.08,-140.54 -78.2,-192.65 -52.13,-51.79 -115.89,-77.85 -191.27,-77.85zm-1.05 -40.15c87.35,0 160.97,29.92 220.84,90.16 59.89,60.24 89.83,133.85 89.83,220.49 0,85.95 -30.3,159.22 -91.24,219.79 -60.93,60.59 -134.19,90.89 -219.43,90.89 -84.54,0 -157.45,-30.65 -218.74,-91.94 -61.29,-61.29 -91.94,-134.2 -91.94,-218.74 0,-85.24 29.95,-158.49 90.18,-219.43 60.24,-60.94 133.85,-91.22 220.5,-91.22zm1064.42 531.85c-45.08,31.35 -85.6,53.89 -121.16,68.34 -35.59,14.09 -69.39,21.14 -101.44,21.14 -69.75,0 -121.53,-23.95 -154.64,-71.5 -33.1,-47.55 -49.66,-121.88 -49.66,-222.97l0 -305.39c0,-6.34 2.11,-11.26 6.35,-15.5 4.57,-3.86 9.86,-5.97 16.55,-5.97 6.34,0 10.91,1.41 13.37,4.57 2.48,3.18 3.89,8.8 3.89,16.9l0 307.51c0,84.17 13.74,147.22 41.2,189.15 27.84,41.9 69.04,63.04 123.99,63.04 30.64,0 63.05,-6.34 97.21,-19.03 33.82,-12.67 75.38,-34.51 124.34,-65.15l0 -475.52c0,-6.34 2.12,-11.26 6.34,-15.5 4.59,-3.86 9.51,-5.97 15.5,-5.97 6.34,0 10.93,1.41 14.09,4.57 2.81,3.18 4.22,8.8 4.22,16.9l0 451.92c8.12,-5.64 15.87,-10.91 23.25,-15.85 7.04,-5.29 13.39,-9.86 19.03,-14.1l5.99 -1.75c0.7,0 1.4,-0.35 2.11,-1.06 6.34,-3.53 11.61,-5.29 16.55,-5.29 2.81,0 5.29,1.41 7.75,4.59 2.46,3.16 3.51,6.7 3.51,10.91 -0.7,5.99 -5.62,12.34 -14.42,18.31 -1.43,0.72 -2.48,1.43 -3.18,2.13l-1.76 2.11c-2.11,2.11 -14.8,10.56 -38.4,25.71 -9.5,5.28 -16.2,9.5 -20.43,12.33l0 338.84c0,46.14 -13.73,83.84 -40.86,113.43 -27.11,29.57 -61.99,44.37 -104.6,44.37l-13.39 0 -6.35 0c-3.51,0 -6.32,-1.41 -8.8,-4.57 -2.46,-3.18 -3.51,-7.05 -3.51,-11.99 0,-4.92 1.4,-8.45 4.21,-10.91 2.83,-2.11 6.7,-3.88 12.34,-4.58l19.71 0c35.59,0 61.65,-13.03 77.5,-39.45 15.85,-26.77 23.6,-71.86 23.6,-135.96l0 -268.76zm1027.09 -493.82l-31.7 0c-148.99,0 -280.73,42.27 -395.89,126.46 -115.19,84.17 -172.61,176.11 -172.61,275.44 0,42.96 13.39,77.49 39.82,102.85 26.76,25.71 62.69,38.39 107.77,38.39 94.74,0 186.33,-51.78 274.73,-155.33 88.78,-103.9 147.94,-233.18 177.88,-387.81zm40.16 548.06c0,9.18 -1.41,15.5 -4.22,19.03 -3.18,3.87 -7.4,5.64 -13.04,5.64 -7.4,0 -13.04,-2.12 -16.9,-6.69 -3.89,-4.59 -6,-10.58 -6,-17.98l0 -422.32c-41.91,133.86 -106.01,243.76 -192.66,329.35 -86.66,85.58 -174.01,128.21 -261.71,128.21 -58.11,0 -103.9,-15.5 -136.66,-46.85 -32.77,-31.35 -49.32,-75.03 -49.32,-130.68 0,-110.95 62.69,-212.75 187.74,-306.09 125.04,-93.34 262.77,-139.84 412.81,-139.84 13.74,0 23.95,0 29.95,0.35 6.34,0.36 12.31,1.06 18.66,1.78l6.34 0c8.8,1.41 15.15,3.87 19.03,8.1 3.87,4.22 5.98,10.56 5.98,19.72l0 558.27zm432.53 -1621.31c0,-6.69 2.11,-11.96 6.34,-15.85 4.57,-3.86 9.51,-5.62 15.5,-5.62 5.64,0 10.21,2.11 13.39,6.68 3.16,4.59 4.92,10.93 4.92,19.03l0 1620.96c0,5.64 -2.11,10.56 -6.34,14.44 -4.57,4.22 -9.86,6.34 -16.56,6.34 -6.34,0 -10.91,-1.42 -13.37,-4.58 -2.48,-3.16 -3.88,-8.45 -3.88,-16.2l0 -1625.2zm432.53 1309.96l526.23 1.05c-7.4,-71.15 -35.58,-128.57 -84.19,-172.24 -48.6,-43.68 -108.49,-65.52 -178.93,-65.52 -69.75,0 -129.61,22.19 -179.29,66.93 -49.66,44.73 -77.49,101.44 -83.82,169.78zm0 40.15c0,82.06 24.65,146.88 73.61,194.43 48.96,47.9 115.54,71.85 199.71,71.85 41.92,0 79.26,-6.34 112.02,-18.68 33.1,-12.66 73.25,-39.8 121.51,-81l3.88 -2.11c3.51,-3.53 7.4,-5.99 10.91,-7.75 3.53,-1.76 6.7,-2.48 9.51,-2.48 5.29,0 9.17,1.43 12.69,4.59 3.16,3.16 4.58,7.05 4.58,11.63 0,3.52 -0.7,6.68 -2.12,9.86 -1.41,2.81 -3.87,6.34 -6.68,9.51l-4.59 4.23c-39.8,40.15 -80.65,69.02 -122.93,86.3 -42.26,17.25 -90.87,26.06 -146.52,26.06 -92.64,0 -166.96,-28.54 -222.26,-85.25 -55.65,-56.7 -83.49,-132.44 -83.49,-227.53 0,-88.76 29.59,-162.74 88.42,-221.9 58.82,-59.19 133.15,-88.78 222.61,-88.78 79.95,0 148.99,28.89 207.82,86.65 58.46,58.13 87.7,123.99 87.7,197.97l0 4.21c0,10.21 -2.46,17.26 -7.4,21.85 -4.58,4.21 -12.68,6.34 -23.95,6.34l-535.03 0z"/>
   <path id="1" class="fil2" d="M720.17 5207.76l1230.34 0c5.64,0 10.57,1.76 14.44,4.92 4.24,3.53 6.34,7.75 6.34,13.04 0,8.8 -1.4,14.79 -4.58,17.61 -3.17,3.18 -8.45,4.58 -16.2,4.58l-1228.23 0c-17.96,0 -29.22,-2.83 -34.51,-8.45 -5.29,-5.29 -7.75,-16.55 -7.75,-33.83l0 -1844.61c0,-5.99 2.11,-11.28 6.34,-15.15 3.87,-4.23 8.81,-6.34 14.45,-6.34 5.97,0 10.91,1.76 14.09,5.64 3.51,3.87 5.27,9.16 5.27,15.85l0 1846.74zm1386.36 -769.28l-31.7 0c-148.99,0 -280.73,42.28 -395.9,126.46 -115.18,84.17 -172.61,176.11 -172.61,275.44 0,42.97 13.39,77.5 39.82,102.85 26.76,25.71 62.7,38.4 107.77,38.4 94.75,0 186.33,-51.79 274.74,-155.34 88.77,-103.9 147.93,-233.18 177.88,-387.81zm40.15 548.07c0,9.17 -1.41,15.5 -4.22,19.03 -3.18,3.86 -7.4,5.64 -13.04,5.64 -7.39,0 -13.03,-2.13 -16.9,-6.7 -3.88,-4.58 -5.99,-10.58 -5.99,-17.97l0 -422.33c-41.91,133.87 -106.01,243.76 -192.66,329.35 -86.67,85.58 -174.02,128.21 -261.72,128.21 -58.11,0 -103.9,-15.5 -136.65,-46.85 -32.78,-31.35 -49.33,-75.03 -49.33,-130.68 0,-110.95 62.7,-212.74 187.74,-306.09 125.04,-93.34 262.77,-139.83 412.82,-139.83 13.74,0 23.95,0 29.94,0.35 6.34,0.35 12.32,1.05 18.66,1.77l6.34 0c8.81,1.41 15.15,3.87 19.03,8.1 3.87,4.22 5.98,10.56 5.98,19.72l0 558.28zm531.87 -220.5l0 11.99c0,74.31 12.31,126.8 36.62,157.44 24.32,30.65 65.17,46.15 122.23,46.15 35.93,0 67.28,-7.05 94.39,-21.14 27.13,-14.09 55.65,-38.75 85.24,-74.67l4.94 -4.93c3.52,-5.64 6.33,-9.16 8.81,-10.93 2.46,-1.76 5.27,-2.46 8.8,-2.46 5.29,0 9.86,1.4 13.74,4.58 3.87,3.17 5.62,7.05 5.62,11.97 -0.7,3.88 -3.16,8.8 -7.04,14.44 -2.11,2.46 -3.52,4.24 -4.22,4.94l-2.11 4.22c-19.38,32.4 -48.62,59.53 -88.07,81.37 -39.45,21.83 -79.6,32.76 -121.16,32.76 -70.44,0 -121.17,-17.96 -151.8,-53.54 -30.65,-35.57 -46.15,-95.45 -46.15,-179.99l0 -10.21 6.33 -322.64 -191.96 0c-5.99,0 -11.28,-2.13 -15.14,-5.99 -4.24,-4.24 -6.35,-9.51 -6.35,-16.2 0,-6.7 1.76,-11.64 5.29,-14.1 3.17,-2.46 8.81,-3.88 16.2,-3.88l191.96 0 16.57 -481.49c0,-6.69 1.76,-11.98 5.62,-15.85 3.89,-3.88 8.46,-5.64 13.39,-5.64 6.35,0 10.92,1.76 14.1,5.29 3.16,3.16 4.92,8.8 4.92,16.2l-12.67 481.49 283.89 0c5.64,0 10.56,2.13 14.44,6.7 4.22,4.58 6.35,9.5 6.35,15.49 0,6 -1.78,10.58 -5.29,13.39 -3.17,3.17 -8.45,4.59 -15.5,4.59l-285.65 0 -6.34 310.65zm819.25 -198.65c0,-48.25 -5.62,-81.37 -16.55,-99.33 -10.91,-18.31 -29.57,-27.47 -55.65,-27.47 -32.4,0 -74.31,19.37 -125.75,57.76 -11.61,8.1 -20.43,14.45 -25.7,18.31l-4.24 2.13c-2.11,1.41 -3.86,2.46 -5.62,3.16 -1.78,0.71 -3.53,1.06 -5.64,1.06 -4.24,0 -8.1,-1.41 -11.28,-4.22 -3.52,-2.83 -5.27,-5.29 -5.27,-8.1 0,-4.24 0.7,-7.75 2.1,-10.23 1.41,-2.81 3.52,-5.27 6,-7.4l4.21 -4.21c33.13,-29.24 64.83,-51.44 94.4,-66.23 29.94,-14.8 58.13,-22.18 84.19,-22.18 34.16,0 59.88,11.62 77.84,35.22 17.96,23.24 27.13,57.05 27.13,101.79l0 59.89c85.58,-83.14 148.27,-137.03 188.09,-160.98 39.8,-23.95 78.2,-35.92 115.17,-35.92 42.98,0 77.84,13.73 104.62,41.21 26.76,27.11 40.15,63.4 40.15,108.49 0,37.32 -9.15,69.74 -27.48,97.21 -18.31,27.48 -45.09,48.6 -81.01,63.75l-4.93 2.11c-1.41,0.72 -3.17,1.07 -5.27,1.42 -2.13,0.35 -4.24,0.7 -6.35,0.7 -3.53,0 -6.34,-1.4 -8.8,-4.23 -2.48,-2.81 -3.53,-5.99 -3.53,-10.21 0,-2.81 0.7,-5.29 2.11,-7.4 1.42,-1.76 3.53,-3.51 6.34,-4.94l3.88 -2.11c30.3,-17.25 52.12,-35.56 65.16,-55.3 13.04,-19.73 19.73,-42.98 19.73,-69.74 0,-38.39 -9.87,-68.34 -29.94,-89.46 -20.09,-20.78 -48.25,-31.35 -84.89,-31.35 -31.35,0 -70.45,15.85 -116.94,47.91 -46.85,32.05 -105.66,83.81 -176.11,155.33l0 346.94c0,5.29 -2.12,10.21 -6.34,14.45 -4.59,3.86 -9.88,5.99 -16.55,5.99 -6.35,0 -10.93,-1.43 -13.39,-4.59 -2.46,-3.16 -3.89,-8.45 -3.89,-15.85l0 -423.38zm810.82 -631.9c13.75,0 25.38,4.94 34.53,14.44 9.51,9.86 14.1,21.14 14.1,34.16 0,13.04 -4.94,24.31 -14.45,34.18 -9.86,9.51 -21.14,14.45 -34.18,14.45 -12.31,0 -23.59,-4.94 -33.45,-15.15 -10.21,-9.88 -15.15,-21.14 -15.15,-33.48 0,-13.02 4.94,-24.3 15.15,-34.16 9.86,-9.5 21.14,-14.44 33.45,-14.44zm19.03 1054.93c0,5.64 -2.1,10.56 -6.34,14.44 -4.57,4.22 -9.86,6.35 -16.55,6.35 -6.34,0 -10.91,-1.43 -13.39,-4.59 -2.46,-3.16 -3.87,-8.45 -3.87,-16.2l0 -568.5c0,-6.7 2.11,-11.97 6.35,-15.85 4.57,-3.87 9.5,-5.63 15.49,-5.63 5.63,0 10.21,2.11 13.38,6.68 3.18,4.59 4.93,10.93 4.93,19.03l0 564.27zm916.14 -74.33l5.28 -4.22c0.71,-0.7 2.46,-1.75 5.29,-3.18 6.68,-3.51 11.27,-5.27 13.38,-5.27 3.53,0 6.69,1.76 9.87,5.62 3.16,3.89 4.57,8.12 4.57,13.04 0,3.54 -0.7,6.7 -2.11,9.86 -1.4,3.18 -3.18,5.64 -5.29,7.05l-4.92 2.83c-30.29,23.6 -67.28,42.61 -110.61,57.76 -42.97,14.79 -84.52,22.19 -124.69,22.19 -103.2,0 -187.72,-29.59 -253.6,-88.41 -65.86,-58.83 -98.98,-133.49 -98.98,-224.37 0,-83.84 32.77,-156.39 97.92,-217.33 65.51,-60.94 143,-91.22 232.83,-91.22 46.15,0 90.87,5.98 133.85,17.61 42.61,11.62 79.6,27.46 110.95,48.25l5.99 3.87c8.45,5.64 13.37,9.87 15.5,12.33 2.11,2.82 3.16,6.35 3.16,10.21 0,4.94 -1.41,9.16 -4.22,12.34 -2.83,3.51 -5.99,5.29 -10.22,5.29 -3.52,0 -7.75,-1.78 -12.32,-5.29 -4.94,-3.18 -8.1,-5.29 -9.53,-5.99l-5.97 -2.11c-35.23,-19.03 -70.45,-33.46 -105.68,-42.63 -34.86,-9.16 -73.26,-13.73 -114.46,-13.73 -84.89,0 -155.69,26.06 -212.41,77.85 -56.71,52.12 -85.23,115.52 -85.23,190.55 0,76.44 29.93,141.24 89.46,193.73 59.54,52.47 134.2,78.9 223.68,78.9 38.37,0 75.36,-5.29 109.89,-16.2 34.86,-10.58 67.62,-27.14 98.62,-49.33zm327.92 -240.91l526.23 1.05c-7.4,-71.14 -35.58,-128.57 -84.19,-172.24 -48.6,-43.68 -108.49,-65.52 -178.93,-65.52 -69.75,0 -129.61,22.19 -179.29,66.93 -49.66,44.74 -77.49,101.44 -83.82,169.78zm0 40.15c0,82.06 24.66,146.89 73.61,194.44 48.96,47.9 115.54,71.85 199.71,71.85 41.92,0 79.26,-6.35 112.02,-18.68 33.1,-12.67 73.25,-39.8 121.51,-81.01l3.88 -2.11c3.52,-3.53 7.4,-5.99 10.91,-7.75 3.54,-1.75 6.7,-2.47 9.51,-2.47 5.29,0 9.17,1.42 12.69,4.58 3.16,3.17 4.58,7.05 4.58,11.63 0,3.52 -0.7,6.68 -2.12,9.86 -1.41,2.81 -3.87,6.35 -6.68,9.51l-4.59 4.23c-39.8,40.16 -80.65,69.03 -122.93,86.3 -42.26,17.26 -90.86,26.06 -146.52,26.06 -92.63,0 -166.96,-28.54 -222.26,-85.24 -55.65,-56.71 -83.49,-132.44 -83.49,-227.54 0,-88.76 29.59,-162.74 88.43,-221.9 58.81,-59.18 133.14,-88.77 222.6,-88.77 79.95,0 148.99,28.88 207.82,86.64 58.46,58.13 87.7,123.99 87.7,197.97l0 4.22c0,10.21 -2.46,17.25 -7.4,21.84 -4.58,4.22 -12.68,6.34 -23.95,6.34l-535.03 0zm-2820.96 1240l590.57 396.42c1.59,1.2 2.78,2.59 3.98,4.17 1.17,1.58 1.77,2.77 1.77,3.95 0,2.78 -0.98,5.34 -3.16,7.52 -2.18,2.37 -4.76,3.57 -7.73,3.57 -0.79,0 -1.78,-0.4 -2.96,-0.98 -1.19,-0.41 -2.17,-1.01 -2.97,-1.39l-617.7 -413.26c-0.41,-0.4 -1.2,-0.98 -2.78,-1.77 -5.74,-2.59 -8.71,-6.54 -8.71,-11.5 0,-2.76 0.8,-4.93 2.39,-6.73 1.58,-1.58 3.76,-2.56 6.92,-2.56l2.37 0 5.75 0c0.38,0 1.17,0 2.18,0 21.36,1.58 46.7,2.37 76.38,2.37 69.87,0 124.09,-3.16 162.89,-9.49 38.59,-6.54 72.65,-17.22 101.94,-32.26 50.66,-24.74 88.65,-59.59 113.99,-104.31 25.53,-44.93 38.2,-98.96 38.2,-162.29 0,-55.02 -10.88,-103.9 -32.65,-147.06 -21.77,-43.14 -53.65,-78.97 -95.8,-107.47 -27.71,-18.61 -59.57,-32.05 -95.59,-40.17 -36.22,-8.12 -85.51,-12.07 -148.45,-12.07l-335.27 0 0 1037.67c0,3.38 -0.99,6.15 -3.17,8.31 -2.18,2.18 -5.15,3.38 -8.91,3.76 -3.55,0 -6.13,-0.98 -7.9,-3.16 -1.8,-2.18 -2.59,-5.15 -2.59,-8.91l0 -1046.99c0,-4.14 2.18,-7.52 6.35,-9.7 4.36,-2.37 10.08,-3.55 17.41,-3.55l349.72 0c120.93,0 214.34,28.7 280.25,86.09 66.11,57.41 99.16,138.34 99.16,243.25 0,108.07 -34.83,190.39 -104.5,246.6 -69.67,56.22 -171.8,84.31 -306.38,84.31 -20.19,0 -35.43,-0.19 -45.92,-0.59 -10.49,-0.39 -20.19,-0.99 -29.08,-1.78zm1044.58 -289.85c-75.37,0 -139.49,26.76 -192.31,79.95 -52.84,53.19 -79.25,116.95 -79.25,190.55 0,72.93 26.77,136.33 80.66,190.22 53.89,53.52 117.64,80.3 190.9,80.3 73.98,0 137.38,-26.42 190.22,-78.89 52.82,-52.49 79.25,-116.59 79.25,-191.63 0,-76.43 -26.08,-140.54 -78.2,-192.65 -52.13,-51.79 -115.89,-77.85 -191.27,-77.85zm-1.05 -40.15c87.35,0 160.97,29.92 220.84,90.16 59.89,60.24 89.83,133.85 89.83,220.49 0,85.95 -30.3,159.22 -91.24,219.79 -60.93,60.59 -134.19,90.89 -219.43,90.89 -84.54,0 -157.45,-30.65 -218.74,-91.94 -61.29,-61.29 -91.94,-134.2 -91.94,-218.74 0,-85.24 29.95,-158.49 90.18,-219.43 60.24,-60.94 133.85,-91.22 220.5,-91.22zm1064.42 531.85c-45.08,31.35 -85.6,53.89 -121.16,68.34 -35.59,14.09 -69.39,21.14 -101.44,21.14 -69.75,0 -121.53,-23.95 -154.64,-71.5 -33.1,-47.55 -49.66,-121.88 -49.66,-222.97l0 -305.39c0,-6.34 2.11,-11.26 6.35,-15.5 4.57,-3.86 9.86,-5.97 16.55,-5.97 6.34,0 10.91,1.41 13.37,4.57 2.48,3.18 3.89,8.8 3.89,16.9l0 307.51c0,84.17 13.74,147.22 41.2,189.15 27.84,41.9 69.04,63.04 123.99,63.04 30.64,0 63.05,-6.34 97.21,-19.03 33.82,-12.67 75.38,-34.51 124.34,-65.15l0 -475.52c0,-6.34 2.12,-11.26 6.34,-15.5 4.59,-3.86 9.51,-5.97 15.5,-5.97 6.34,0 10.93,1.41 14.09,4.57 2.81,3.18 4.22,8.8 4.22,16.9l0 451.92c8.12,-5.64 15.87,-10.91 23.25,-15.85 7.04,-5.29 13.39,-9.86 19.03,-14.1l5.99 -1.75c0.7,0 1.4,-0.35 2.11,-1.06 6.34,-3.53 11.61,-5.29 16.55,-5.29 2.81,0 5.29,1.41 7.75,4.59 2.46,3.16 3.51,6.7 3.51,10.91 -0.7,5.99 -5.62,12.34 -14.42,18.31 -1.43,0.72 -2.48,1.43 -3.18,2.13l-1.76 2.11c-2.11,2.11 -14.8,10.56 -38.4,25.71 -9.5,5.28 -16.2,9.5 -20.43,12.33l0 338.84c0,46.14 -13.73,83.84 -40.86,113.43 -27.11,29.57 -61.99,44.37 -104.6,44.37l-13.39 0 -6.35 0c-3.51,0 -6.32,-1.41 -8.8,-4.57 -2.46,-3.18 -3.51,-7.05 -3.51,-11.99 0,-4.92 1.4,-8.45 4.21,-10.91 2.83,-2.11 6.7,-3.88 12.34,-4.58l19.71 0c35.59,0 61.65,-13.03 77.5,-39.45 15.85,-26.77 23.6,-71.86 23.6,-135.96l0 -268.76zm1027.09 -493.82l-31.7 0c-148.99,0 -280.73,42.27 -395.89,126.46 -115.19,84.17 -172.61,176.11 -172.61,275.44 0,42.96 13.39,77.49 39.82,102.85 26.76,25.71 62.69,38.39 107.77,38.39 94.74,0 186.33,-51.78 274.73,-155.33 88.78,-103.9 147.94,-233.18 177.88,-387.81zm40.16 548.06c0,9.18 -1.41,15.5 -4.22,19.03 -3.18,3.87 -7.4,5.64 -13.04,5.64 -7.4,0 -13.04,-2.12 -16.9,-6.69 -3.89,-4.59 -6,-10.58 -6,-17.98l0 -422.32c-41.91,133.86 -106.01,243.76 -192.66,329.35 -86.66,85.58 -174.01,128.21 -261.71,128.21 -58.11,0 -103.9,-15.5 -136.66,-46.85 -32.77,-31.35 -49.32,-75.03 -49.32,-130.68 0,-110.95 62.69,-212.75 187.74,-306.09 125.04,-93.34 262.77,-139.84 412.81,-139.84 13.74,0 23.95,0 29.95,0.35 6.34,0.36 12.31,1.06 18.66,1.78l6.34 0c8.8,1.41 15.15,3.87 19.03,8.1 3.87,4.22 5.98,10.56 5.98,19.72l0 558.27zm432.53 -1621.31c0,-6.69 2.11,-11.96 6.34,-15.85 4.57,-3.86 9.51,-5.62 15.5,-5.62 5.64,0 10.21,2.11 13.39,6.68 3.16,4.59 4.92,10.93 4.92,19.03l0 1620.96c0,5.64 -2.11,10.56 -6.34,14.44 -4.57,4.22 -9.86,6.34 -16.56,6.34 -6.34,0 -10.91,-1.42 -13.37,-4.58 -2.48,-3.16 -3.88,-8.45 -3.88,-16.2l0 -1625.2zm432.53 1309.96l526.23 1.05c-7.4,-71.15 -35.58,-128.57 -84.19,-172.24 -48.6,-43.68 -108.49,-65.52 -178.93,-65.52 -69.75,0 -129.61,22.19 -179.29,66.93 -49.66,44.73 -77.49,101.44 -83.82,169.78zm0 40.15c0,82.06 24.65,146.88 73.61,194.43 48.96,47.9 115.54,71.85 199.71,71.85 41.92,0 79.26,-6.34 112.02,-18.68 33.1,-12.66 73.25,-39.8 121.51,-81l3.88 -2.11c3.51,-3.53 7.4,-5.99 10.91,-7.75 3.53,-1.76 6.7,-2.48 9.51,-2.48 5.29,0 9.17,1.43 12.69,4.59 3.16,3.16 4.58,7.05 4.58,11.63 0,3.52 -0.7,6.68 -2.12,9.86 -1.41,2.81 -3.87,6.34 -6.68,9.51l-4.59 4.23c-39.8,40.15 -80.65,69.02 -122.93,86.3 -42.26,17.25 -90.87,26.06 -146.52,26.06 -92.64,0 -166.96,-28.54 -222.26,-85.25 -55.65,-56.7 -83.49,-132.44 -83.49,-227.53 0,-88.76 29.59,-162.74 88.42,-221.9 58.82,-59.19 133.15,-88.78 222.61,-88.78 79.95,0 148.99,28.89 207.82,86.65 58.46,58.13 87.7,123.99 87.7,197.97l0 4.21c0,10.21 -2.46,17.26 -7.4,21.85 -4.58,4.21 -12.68,6.34 -23.95,6.34l-535.03 0z"/>
  </g>
  <g>
   <g>
    <path class="fil0 str1" d="M10285.81 6971.36l61.93 184.8c-26.48,-91.36 -51.74,-15.46 -114.91,-81.54 -2.98,-3.12 -17.45,-81.12 -20.32,-84.42l23.44 -158.91c-55.24,-63.29 -145.54,-18.81 -191.34,-79.51 -82.59,-109.44 -187.26,-272.75 -255.71,-389.71 -84.34,-144.06 -181.15,-259.3 -253.38,-396.72 -82.33,-156.61 -135.33,-313.35 -218.82,-461.56 -261.48,-464.23 -346.75,-996 -424.8,-1511.44 -28.46,-430.48 12.61,-1303.08 177.56,-1628.13l9.85 -38.51 13.85 -39.92c2.7,-196.52 331.32,-880.98 589.34,-1142.08 48.95,-49.54 88.83,-107.08 150.33,-151.61 402.67,-291.6 1051.22,-689.33 1598,-566.28 367.32,82.62 439.01,175.23 705.81,361.02 188.65,131.37 350.95,375.88 501.17,553.71 82.16,-28.95 148.74,-96.7 231.03,-104.67 3.88,-4.08 9.75,-8.14 13.27,-10.4 3.58,-2.26 9.27,-7.23 13.86,-9.87 4.7,-2.7 9.49,-6.13 14.97,-8.9 5.67,-2.87 10.1,-4.99 16.35,-7.68 120.72,-51.94 290.73,-46.51 414.07,-28.42 165.45,24.29 237.47,41.97 369.56,108.49 294.61,148.28 386.51,211.24 610.27,422.14 114.74,108.14 161.46,172.32 236.16,324.07 155.4,284.33 575.37,916.94 448.02,1151.07 107.58,408.63 -298.07,1450.99 -517.9,1829.91 -153.53,264.61 -253.07,253.09 -361.79,328.47l113.44 189.97 92.22 -83.07c52.87,-94.01 219.67,-391.61 278.28,-489.48 63.77,-106.47 192.1,-521.76 226.25,-640.62 14.91,-64.86 14.69,-104.65 32.4,-168.8 15.55,-56.45 33.44,-113.21 43.59,-161.24 105.88,-501.12 135.37,-951.16 15.72,-1455.33 -68.88,-290.17 -207.86,-552.4 -372.18,-767.29 -200.57,-262.27 -299.71,-350.74 -560.88,-491.49 -185.97,-100.23 -324.1,-175.88 -536.1,-217.44 -149.99,-29.39 -286.52,-49.31 -440.1,-24.32 -106.24,17.27 -155.83,41.6 -249.02,73.19l-104.63 57.04c-54.88,-89.48 -102.5,-137.17 -171.08,-214.09 -102.9,-89.52 -158.33,-164.08 -268.78,-253.25 -198.57,-160.33 -632.09,-372.55 -875.3,-392.58 -869.4,-71.49 -1775.6,696.35 -2149.78,1433.26 -65.1,128.19 -123.1,239.23 -175.99,390.03 -186.8,532.76 -303.16,1298.99 -238.45,1888.83 54.86,500.05 780.48,2948.67 1438.94,2902.66 62.12,-4.34 -109.26,345.72 123.51,245.42"/>
   </g>
   <g>
    <path class="fil3" d="M10125.78 6808.37c45.8,60.7 86.25,100.66 141.5,163.96l111.31 135.36c2.87,3.3 6.6,7.85 9.57,10.96 63.18,66.08 78.19,22.56 104.68,113.92 12.49,43.08 -46.92,225.59 23.46,350.46 55.29,98.14 -4.49,-42.33 133.12,136.21 82.49,106.99 74.2,-31.91 139.66,111.7 185.92,-30.98 62.18,-50.37 268.1,87.03 240.75,160.64 950.6,598.08 1185.25,678.99 205.41,70.83 345.56,121 590.94,122.48 63.42,-4.11 116.53,6.34 165.06,-13.17 62.35,-25.09 23.09,-39.8 133.23,-70.61 163.81,-68.18 263.16,-208.66 328.63,-324.46 125.8,-222.56 148.49,-370.28 346.16,-579.02 67.45,-71.22 285.66,-482.83 344.98,-597.1 256.51,-494.22 108.68,-399.11 269.96,-908.25 131.57,-415.41 -1.65,-668.96 -251.75,-950.06 108.73,-75.38 208.27,-63.86 361.79,-328.48 -521.33,1376.44 68.29,-2503.64 -1227.43,-1802.77 5.41,4.79 11.88,9.75 16.9,13.59 4.9,3.72 10.62,8.68 16.52,13.06 124.28,82.57 407.33,84.76 561.75,338.89 136,223.79 150.46,697.91 174.12,825.6 -147.48,-57.66 -321.17,-5.69 -484.12,77.89 -241.65,123.93 -227.77,125.65 -185.96,226.19 223.56,30.78 589.2,-606.68 591.62,152.76 -71.11,-7.07 -86.9,-145.66 -380.94,-74.88 -133.59,32.15 -322.22,117.72 -270.26,244.78l39.52 -7.83c40,-16.34 166.41,-150.39 362.55,-163.66 106.16,-7.19 120.91,32.27 129.02,38.55 -99.44,-12.99 -243.73,11.32 -323.53,88.96 45.55,9.07 31.47,-5.26 100.01,-29.96 121.1,-43.64 59.13,-18.89 106.04,-18l37.12 6.8c-4.74,4.2 -11.73,7.44 -16.31,9.74 -4.55,2.3 -10.84,6.48 -16.5,9.15 -5.63,2.63 -10.7,5.32 -16.97,8.01 -273.89,117.64 -123.41,68.89 -319.89,170.97 53.21,83.24 87.7,128.42 231.43,156.97 107.47,21.35 55.47,-0.95 147.74,-16.33 143.42,-23.92 130.07,36.82 137.51,51.83l-117.76 55.61 140.17 76.81c9.79,-67.62 28.94,-71.01 66.57,-122.96 217.6,130.92 292.83,416.46 349.49,608.7 13.63,102.41 -13.66,259.35 -70.33,348.45l-187.49 274.93 -44.76 74.06c-9.76,33.5 -10.59,49.11 -7.36,91.25 92.59,-69.62 -10.47,-59.14 181.27,-257.52 -35.1,335.13 -168.15,627.05 -302.32,883.49l-234.18 382.39c-223.88,223.12 -110.96,190.86 -270.09,289.18 -113.09,69.84 -341.49,691.6 -826.44,358.87 -392.84,-269.52 -326.64,-227.22 -655.29,-620.18 -66.09,95.48 21.36,90.79 73.85,282.42 541.26,699.28 -817.53,-148.51 -1026.1,-468.87 -56.67,-87.06 -3.13,-162.13 38.01,-153.55 52.4,87.54 121.56,197.04 36.52,-35.29l-23.99 -255.18c126.95,24.96 76.95,121.52 206.82,137 -36.8,-116.6 -66.99,-141.58 -118.28,-236.13 -89.11,-284.96 -339.86,-382.12 -287.43,-517.18 57.57,-148.3 33.63,56.85 81.35,-307.16 25.22,-192.42 17.23,-175.45 -123.69,-233.59 -29.23,-132.78 -52.22,-221.5 8.96,-333.78 40.74,56.37 108.11,189.49 148.55,262.75 72.85,131.96 103.03,151.26 168.54,247.72 224.53,330.52 172.34,189.78 296.55,306.93 54.79,51.69 34.95,55.51 108.76,73.46 42.29,-3.26 34.08,-13.21 26.55,28.08l69.77 -6.46c2.04,-5.89 11.3,-1 16.96,-1.63 -74.99,-45.93 -31.69,-17.85 -82.47,-97.75 -68.63,-107.97 -255.25,-219.08 -489.41,-686.04 -42.98,-85.7 -96.66,-175.45 -124.16,-233.67 -58.14,-123.19 -26.43,-143.97 5.06,-245.72 48.77,-157.57 59.78,-658.26 228.45,-694.84 17.88,-55.2 53.32,-78.79 71.82,-122.32 -78.46,-101.31 -52.06,-164.71 -48.49,-245.93 0.39,-8.46 7.09,-9.52 10.96,-14.02 -146.94,34.56 -159.05,112.34 -399.63,34.17 -174.72,-56.78 -229.89,-3.95 -393.44,-100.16 -375.13,-220.66 -140.83,120.03 -144.09,272.1 79.74,-4.67 43.19,-16.89 80.25,52.94 37.96,5.79 88.5,34.18 140.55,51.5 319.29,106.2 294.71,24.8 537.51,39.26 -90.41,70.34 4.11,58.57 -171.23,80.7 20.64,94.53 2.27,92.56 -39.52,163.48 -26.04,44.18 -23.89,9.49 -21.5,62.72 2.75,60.96 -7.02,11.55 23.29,40.12l-22.59 101.13 -139.33 25.7 -272.5 -103.06c-2170.85,-1522.84 -71.59,419.75 143.65,515.63 75.74,33.74 212.42,314.36 54.48,426.4 -61.67,43.75 -53.74,15.84 -67.18,106.84 69.6,10.77 72.84,1.46 107.39,42.19 -24.48,109.95 6.37,33.41 -66.22,95.26l-460.42 740.52zm373.98 -402.49c35.01,79.89 33.39,249.73 15.95,296.76l-71.34 122.7c-2.82,-3.71 -8.68,18.26 -12.77,21.77 85.77,86.32 42.17,86.37 8.14,169.16 -66.01,-178.67 25.41,-423.79 60.02,-610.39zm55.48 488.68c31.61,-91.7 52.62,-13.9 38.74,-107.76 -9.99,-67.63 -11.9,-5.55 10.98,-76.39 85.21,-263.76 12.86,-249.71 -11.23,-286.35 -109.32,-166.33 -16.09,-338.97 262.1,-403.22 19.68,261.47 -71.41,319.07 -90.96,376.97 -18.91,55.96 28.13,378.16 38.54,473.19 35.98,328.87 131.83,618.14 19.94,840.35 -65.48,-97.28 -2.8,-105.79 -119.59,-64.13 -56.48,-165.62 -15.33,-95.37 -7.29,-166.06l-117.31 42.48 -20.28 -166.65c6.76,-58.08 63.13,-47.03 121.46,-74.18 -43.77,-26.78 -6.79,-8.55 -58.51,-16.15l-28.91 1.66c-36.63,-108.08 -29.69,-69.56 -53.32,-186.2 -17.31,-85.41 14.96,-85.05 62.48,-116.67 -16.71,-19.86 -31.1,-42.07 -46.84,-70.89z"/>
   </g>
   <path class="fil3" d="M15049.83 3500.05c127.36,-234.13 -91.55,-1010.74 -253.84,-1340.49 -74.7,-151.75 -121.42,-215.92 -236.16,-324.07 -223.76,-210.9 -315.66,-273.86 -610.27,-422.14 -836.02,-420.99 -2333.34,1610.25 -2335.96,1611.65 -130.35,69.61 -315.46,100.51 -437.94,39.72 -1170.44,-580.97 751.97,-1697.81 760.95,-1710.69 -161.01,6.57 -487.25,174.85 -625.97,227.41 -1172.36,388.08 -557.56,1731.52 -59.9,1724.92 155.73,7.16 262.84,-59.51 374.56,-126.7 165.02,-99.26 1378.64,-578.28 284.53,186.69 -12.82,9.05 -25.62,18.15 -38.6,26.99 -466.41,320.98 158.46,-58.35 236.75,-117.95 3380.52,-2515.16 2280.24,2208.68 2653.21,721.71 86.91,-346.21 -136.13,-209.78 167.92,-626.54l44.97 37.63c23.69,30.11 9.93,8.96 26.72,55.25 45.55,-30.3 -1.37,-38.27 40.13,-17.71l8.9 54.32z"/>
   <path class="fil3" d="M12669.16 6911.98c51.62,3.29 152.2,2.81 201.41,3.36 13.16,-98.52 0.4,-102.18 90.95,-142.46 74.56,-33.18 127.72,-45.4 216.61,-45.42 103.57,193.19 44.13,50.37 121.79,82.65 32.42,83.73 84.1,238.61 80.56,327.86 -255.26,212.08 -405.44,22.26 -584.83,-46.2 -107,-40.84 -113.86,-34.24 -173.53,-116.37 9.72,-23.49 28.24,-44 47.04,-63.42zm-214.42 -287.75c36.73,-134.5 27.18,-71.11 138.83,-131.95 93.01,-50.68 35.71,-63.51 187.17,-102.08l64.22 73.6c63.83,-57.58 47.8,-122.77 149.17,-92.18 136.17,41.09 -20.27,55.1 200.99,31.25l56.09 72.37c96.49,-69.06 -33.68,-41.85 107.08,-64.35l75.21 86.23c1.14,-3.52 7.78,9 12.48,12.58 14.42,-60.45 77.48,-150 116.13,-42.39 26.09,72.63 -29.7,144.33 -43.15,200.69 -117.23,17.21 -218.1,29.42 -253.34,-71.91 -76.18,26.33 -116.26,81.42 -193.25,35.54 -4.25,-2.52 -9.2,-6.98 -13.08,-9.64l-43.3 -36.38c-7.92,102.76 -63.06,75.97 -148.55,60.12l-42.19 -90.12c-63.37,202.83 -40.97,-12.1 -370.51,68.62zm336.49 -514.26c-157.55,77.59 -300,258.93 -354.45,393.04 -101.22,249.32 -19.19,450.31 105.4,702.52 22.75,46.05 39.23,58.57 74.01,112.1 178.91,275.42 492.01,392.46 776.6,208.06 279.63,-181.19 141.36,-522.52 207.16,-800.9 21.88,-92.53 83.14,-151.98 115.67,-244.48 76.76,-218.16 -71.74,-442.69 -275.3,-423.76 -248.79,23.12 -364.26,-86.84 -649.09,53.42z"/>
   <path class="fil3" d="M12802.05 4926.53c28.76,-4.86 21.38,-10.74 21.21,18.75 28.6,0.01 19.69,-5.93 16.95,26.27l128.51 -1.7c-4.77,-4.81 -10.03,-10.89 -13.91,-14.84 -3.79,-3.83 -9.05,-9.88 -13.6,-14.35 -4.29,-4.21 -8.55,-8.88 -13.12,-13.18l-34.83 -28.98c-2.31,-1.89 -7.22,-4.9 -9.27,-6.6 -54.06,-44.89 -19.81,-49.54 -82.8,-105.84 49.05,95.5 58.66,-21.68 54.39,-70.3 -77.68,-23.07 -45,9.1 -91.17,-8.47 -60.74,-23.13 11.76,-30.37 -277.01,-108.67 -62.8,-17.03 -36.45,-18.01 -118.51,-12.66l-100.23 26.37c-81.32,33.35 -154.45,-22.17 -381.95,140.19 -79.8,56.94 -115.75,48.42 -222.81,35.52 -64.49,-7.77 -298.32,-51.15 -359.65,-98.37 -26.11,-20.1 -10.75,-7.51 -34.94,-34.29l-76.3 -2.47c112,81.77 321.98,255.98 436.34,310.12 96.87,45.87 123.72,81.76 244.81,114.22l278.87 91.53c-71.76,71.16 -301.32,-39.91 -460.91,65.34l338.73 72.34c3.68,-0.02 9.62,-0.44 13.35,-0.39 192.86,2.73 44.78,0.38 180.21,-16.59 39.16,-7.62 29.41,-15.7 29.31,24.18 34.29,-13.41 28.79,-21.67 24.45,13.79l55.82 -14.13c24.7,-36.88 -15.9,0.51 35.21,-27.31 15.62,-8.49 28.57,-11.71 46.36,-18.31 34.25,-12.73 45.94,-14.34 89.63,-33.86 37.41,-49.46 33.82,-52.96 114.48,-51.22 -7.3,-43.11 -13.35,-29.81 34.01,-23.05 4.75,-14.95 -31.19,-32.96 54.93,-51.11 1.17,-0.25 59.41,2.12 88.27,-0.71 -9.2,-120.14 -25.27,-29.81 -25.22,-125.4l-17.77 3.01c-39.87,78.56 73.2,-16.88 -14.65,16.34 -48.38,18.29 22.92,31.3 -21.58,-16.57 -219.28,-84.49 77.9,-152.65 -514.37,-98.69 43.15,-139.71 165.39,-176.44 290.24,-150.28 101.33,21.21 260.63,94.97 308.52,190.37z"/>
   <path class="fil3" d="M13741.13 5775.16c9.58,-170.35 -41.9,-141.97 -100.97,-256.31 -57.32,-110.89 -39.14,-201.44 -158.98,-247.25 42.15,149.28 136.42,163.82 74.76,358.22 -28.01,88.33 -49.22,167.55 -225.33,105.95 -88.04,-30.8 -44.8,-21.24 -118.65,-77.83 -100.29,-76.84 -153.4,-109.64 -137.6,-223.43 182.98,-79.88 -13.05,62.36 141.25,-80.4 69.17,-64.02 128.21,-80.72 218.59,-68.69 -84.69,-121.75 -89.55,-190.47 -170.75,-197.4 -40,-3.41 -234.92,74.65 -278.67,101.19 10.44,253.38 84.15,125.12 -46.59,275.92l82.06 17.63c5.6,1.3 13.84,2.84 20.48,5.2 -15.53,68.7 -0.39,131.51 26.28,209.69l-150.24 7.24 19.21 109.9 -97.6 5.15c-104.6,-114.24 -80.09,-171.13 -40.08,-271.15l21.34 -63.48c-111.61,36.51 -97.07,30.62 -128.23,116.69 -19.95,55.12 -33.05,84.93 -70.27,136.3 -34.18,47.16 -60.17,59.94 -96.48,104.66 -35.4,43.61 -50.87,76.46 -90.14,123.65 -54.32,65.25 -118.6,173.9 -156.07,252.1 -31.46,65.68 -74.99,141.11 -46.35,197.74 22.36,44.23 28.65,22.04 51.56,54.35l161.24 -391.51c64.82,-142.83 58.75,-169.23 158.28,-269.26 29.61,-29.76 38.5,-46.05 67.21,-76.36 153.78,48.53 20.67,185.72 484.57,115.96 67.04,-10.08 -10.48,-11.56 45.19,0.09 29.5,6.18 14.47,19.27 122.53,13.15 87.35,-4.95 153.66,-5.54 173.85,-101.18l70.78 25.58c89.92,35.67 108.46,57.87 134.86,132.48 32.08,90.71 112.31,225.68 121.88,301.46 10.07,79.9 -210.73,692.06 -57.76,506.77 33.58,-40.67 7.74,-12.38 9.68,-56.52 5.12,-116.48 0.15,-55.82 37.31,-138.46l-72.15 -757.84z"/>
   <path class="fil3" d="M10886.79 4012.2l272.5 103.07 139.33 -25.71c92.33,-413.54 -46.98,-231.43 231.54,-448.15 -859.04,-51.12 -1294.76,-261.9 -1533.23,-1064.99 -25.58,-86.11 -37.34,-183.08 -83.38,-240.3 -208.47,649.45 484.03,1332.89 973.24,1676.08z"/>
   <path class="fil3" d="M11814.56 9749.33c-235.58,85.48 -172.76,-425.53 123.7,-460.23 -10.85,73.02 -43.94,144.34 -61.55,221.57 -17.56,77.04 -26.37,164.09 -62.15,238.66zm-352 349.79l20.27 -70.8c2.5,-33.64 -0.46,-53.8 4.16,-79.15 167.65,91.73 133.01,138.64 395.89,50.61 104.46,134.78 230.97,152.85 422.12,54.79 97.73,246.35 278.11,155.48 476.74,59.36 -4.05,-64.97 -40.28,-164.55 -69.96,-210.97 -89.72,11.83 -98.53,79.99 -196.25,45.23 -69.08,-88.51 20.7,-356.27 55.32,-424.12l264.23 -12.59c18.69,-64.74 28.66,-144.34 15.77,-227.24l-184.64 -22.65c9.92,-86.98 56.74,-92.99 52,-190.4 -76.36,-20.87 -164.58,-23.55 -261.19,-6.32 -16.66,73.25 -40.21,173.67 -66.24,235.57l-144.11 -8.95c-27.34,60.6 -52.7,180.79 -37.35,249.46 33.6,16.07 1.75,0.93 41.84,15.26 4.24,1.52 18.57,6.53 22.55,7.97l23.19 8.62c-25.37,101.91 -76.53,260.89 -186.37,278.65 -99.14,-259.87 102.02,-523.17 86.84,-645.96 -117.42,-56.07 -292.89,-309.14 -568.53,18.23 -155.1,184.2 -200.28,320.42 -159.73,649.62l-377.95 -22.28c-141.26,-5.71 -267.08,-22.25 -390.33,-26.9 28.01,-154.71 84.56,-550.41 141.3,-683.71 64.29,15.71 195.51,13.09 279.36,16.54 45.54,1.87 98.71,3.36 145.28,7.78l100.32 6.54c80.27,-15.12 89.02,-140.36 64.12,-221.9 -173.74,-11.21 -374.24,-9.06 -534.63,-30.68 2.74,-80.24 27.33,-165.95 49.06,-235.18 56.64,-180.33 170.67,-28.52 692.46,-27.57 11.82,-66.66 33.88,-122.41 21.45,-200.37 -105.55,-33.47 -768.07,-105 -922.97,-99.88 -20.28,33.37 -20.27,36.59 -29.93,76.17l-318.59 1597.28c5.13,63.9 174.38,33.53 345.26,37.87 134.4,3.41 244.71,8.09 370.86,15.54 82.98,4.9 308.19,51.08 358.38,16.53z"/>
   <path class="fil3" d="M13306.38 9279.89l94.43 -73.44 33.81 69.28c45.73,3.13 69.55,-3.19 110.16,7.16 2.25,143.29 -22.5,274.02 -26.61,430.17 -2.73,103.35 -6.42,104.39 -68.08,160.94 -335.71,307.91 -91.38,-310.82 -69.48,-541.95 -43.61,-47.21 -26.88,-9.54 -74.23,-52.16zm-136.19 -3.76l94.99 28.15c-220.68,81.01 -170.09,57.67 -211.66,289.7 -20.69,115.45 -59.89,299.3 -32.58,426.44 32.72,152.35 142.53,241.5 311.74,196.71 143.62,-38 223.28,-147.61 306.53,-224.17 186.47,126.75 336.59,180.34 533.21,-33.2 -4.44,-76.83 -46.55,-242.72 -75.77,-298.17 -163.56,10.82 -104.25,142.74 -267.4,157.32 -75.4,-73.33 -98.07,-162.29 -89.61,-293.5 5.44,-84.55 19.89,-228.14 57.35,-296.75l350.97 -61.36c118.19,-406.37 68.75,-345.46 -232.97,-285.82 -8.7,-134.26 60.43,-170.17 15.18,-301 -165.03,-14.75 -251.84,-2.27 -268.81,113.91l-53.7 299.9c-37.77,8.89 -97.2,14.86 -127.93,24.16 -37.06,11.21 -29.19,0.26 -60.04,42.97l-11.64 21.8c-430.73,-175.02 -379.25,146.23 -237.86,192.91z"/>
   <path class="fil3" d="M14727.32 9602.31c78.34,-173.07 139.46,-890.57 203.84,-1184.7 21.13,-96.55 32.97,-187.88 78.35,-281.91 28.77,-59.61 33.36,-17.76 23.99,-92.56 -100.69,-31.76 -222.61,-5.31 -330.53,-16.66 -37.54,47.16 -48.22,120.45 -64.5,198.87 -55.58,267.85 -157.57,927.33 -178.99,1190.48 -4.55,55.89 -38.11,211.23 7.4,243.19 37.77,26.54 36.71,-10.93 94.12,-28.86 41.08,-12.83 115.66,-16.89 166.32,-27.85z"/>
   <path class="fil3" d="M14337.72 10080.81c63.92,178.33 475.36,93.73 344.93,-168.18 -44.28,-88.92 -114.73,-103.59 -233.12,-64.48 -90.22,29.81 -153.67,115.9 -111.81,232.66z"/>
  </g>
 </g>
</svg>
