<?xml version="1.0" encoding="UTF-8"?>
<!DOCTYPE svg PUBLIC "-//W3C//DTD SVG 1.1//EN" "http://www.w3.org/Graphics/SVG/1.1/DTD/svg11.dtd">
<!-- Creator: CorelDRAW 2017 -->
<svg xmlns="http://www.w3.org/2000/svg" xml:space="preserve" width="84.667mm" height="84.667mm" version="1.1" style="shape-rendering:geometricPrecision; text-rendering:geometricPrecision; image-rendering:optimizeQuality; fill-rule:evenodd; clip-rule:evenodd"
viewBox="0 0 8466.7 8466.7"
 xmlns:xlink="http://www.w3.org/1999/xlink">
 <defs>
  <style type="text/css">
   <![CDATA[
    .fil0 {fill:#FEFEFE}
    .fil3 {fill:#1A73E8}
    .fil7 {fill:#34A853}
    .fil2 {fill:#458DEB}
    .fil11 {fill:#54B475}
    .fil8 {fill:#66BB89}
    .fil4 {fill:#78ACF2}
    .fil10 {fill:#81C5A6}
    .fil1 {fill:#93BBEF}
    .fil9 {fill:#A6D2CD}
    .fil5 {fill:#AFCEF8}
    .fil6 {fill:#D1E2FC}
   ]]>
  </style>
 </defs>
 <g id="Capa_x0020_1">
  <metadata id="CorelCorpID_0Corel-Layer"/>
  <ellipse class="fil0" cx="4233.35" cy="4233.35" rx="4233.35" ry="4233.34"/>
  <g id="_2563125132464">
   <path class="fil1" d="M1414.52 2358.5c0,360.42 -10.69,3228.5 8.08,3334.72 19.35,109.56 13.93,37.88 62.26,111.3 28.37,43.09 26.81,66.86 67.53,105.02 29.27,27.41 74.85,36.77 93.23,68.79 -284.3,33.75 -677.68,-37.79 -807.3,58.59 -0.51,36.79 75.82,285.14 109.45,319.96l143.94 154.93c30.43,25.96 58.43,32.01 97.03,60.05 86.24,62.67 126.15,56.85 256.34,56.85l5589.53 0c138.66,0 147.65,4.11 240.76,-57.09 86.07,-56.55 120.21,-38.88 173.99,-122.49 111.03,-172.63 88.22,-80.21 108.72,-188.67 30.63,-162.17 102.72,-153.03 53.7,-223.54 -83.2,-118.99 -585.36,-1.57 -740.73,-60.67 -9.6,-37.97 29.42,-65.71 50.75,-86.88 55.64,-55.25 29.89,-55.34 70.12,-104.17 36.46,-44.26 44.51,-11.65 54.15,-98.18 18.78,-168.84 3.39,-2918.71 3.39,-3328.52 0,-296.49 -16.26,-190.03 -81.97,-292.7l-188.91 -203.01c-53.56,-36.81 -175.55,-21.98 -246.41,-21.98l-4608.22 0c-202.66,0 -190.19,-20.26 -276.38,60.64 -2.37,2.22 -5.9,5.32 -8.33,7.49 -58.2,52.07 -99.46,84.54 -137.18,146.54 -36.27,59.64 -22.83,24.86 -56.98,67.34 -40.07,49.84 -30.56,156.63 -30.56,235.68z"/>
   <path class="fil2" d="M1629.34 5895.26l15.7 17.7c10.49,9.14 -5.06,-1.96 27.05,21.39 24.53,17.85 21.04,10.51 45.97,35.36 -87.16,146.29 -790.77,-49.58 -798.69,109.68 -8.41,169.11 123.11,352.87 233.23,419.42 17.04,10.3 147.68,85.93 155.75,87.93 117.64,28.9 4383.61,8.23 4847.01,8.23 244.56,0 758.34,28.86 971.71,-4.19 118.99,-18.43 344.71,-206.56 387.42,-330.87 11.09,-32.33 15.02,-74.42 19.77,-109.7 2,-14.9 6.24,-40.23 5.4,-55.22l-8.18 -40.73c-26.38,-108.65 -701.49,56.56 -785.56,-84.55 90.47,-90.21 71.27,9.19 210.87,-218.61 82.14,-134.04 59,-219.57 58.97,-393.72 -0.12,-487.2 16.52,-2900.99 -4.33,-3078.32 -10.72,-91.19 -32.53,-97.1 -64.19,-159.1 -2.58,-5.05 -13.03,-29.87 -14.83,-33.08l-84.61 -88.37c-145.39,-176.74 -474.44,-123.96 -755.25,-123.96 -1177.57,0 -2355.13,0 -3532.71,0 -190.18,0 -712.57,-39.22 -833.63,42.78 -151.16,102.38 -129.05,64.67 -220.21,222.32 -76.67,132.58 -57.82,209.71 -57.78,391.56 0.08,235.92 -14.07,2913.43 3.02,3078.47 7.2,69.5 100.1,256.95 178.1,285.58z"/>
   <path class="fil3" d="M1629.34 5895.26l114.02 8.91c25.64,31.32 37.42,32.04 42.27,81.24 -101.52,117.75 -560.42,34.38 -827.03,67.36 1.91,245.69 23.69,157.21 81.2,260.17 30.59,54.77 5.77,32.23 51.6,73.32 200.97,180.15 111.1,63.34 205.2,140.15 39.81,32.49 3.83,29.88 84.42,41.49 154.19,22.22 4257.04,3.19 4742.93,3.19 276.6,0 682.6,24.25 943.51,-1.62 115.49,-11.45 59.19,-35.53 163.99,-77.7 137.89,-55.5 184.42,-177.91 233.69,-232.2 47.02,-51.83 39.57,-120.49 40.24,-206.8 -225.94,-27.96 -829.04,50.49 -828.27,-83.06 31.68,-83.1 54.04,-41.72 120.26,-76.76l104.87 -115.96c10.36,-21.29 12.84,-53.45 28.69,-82.73 54.93,-101.48 61.2,11.33 60.44,-274.08l-0.08 -2637.75c0,-127.49 11.73,-321.7 -0.62,-441.12 -9.69,-93.76 -43.57,-70.88 -68.75,-148.21 -11.51,-35.37 -6.43,-53.87 -22.98,-87.06 -15.07,-30.24 -5.4,-12.07 -21.54,-29.46 -131.56,-141.84 -71.59,-68.57 -169.11,-114.81 -83.7,-39.68 -5.58,-57.8 -159.42,-63.26 -143.16,-5.08 -296.35,-0.08 -440.62,-0.08 -298.74,0 -4198.5,-12.54 -4268.64,8.11 -63.97,18.81 -10.52,7.35 -64.58,43.82 -37.15,25.05 -42.28,15.43 -80.64,30.32 -85.23,33.09 -11.48,-8.59 -60,50.57 -62.66,76.39 -55.27,14.58 -86.26,137.7 -45.46,180.66 -75.67,-35.75 -75.44,362.26 0.08,157.24 -13.32,2993.12 6.61,3076.57 17.89,74.91 2.52,13.74 40.95,67.43 27.36,38.24 16.37,30 33.5,78.84 40.94,116.67 75.96,13.18 75.59,141.21z"/>
   <path class="fil4" d="M1851.86 5484.04l42.41 23.11c112.33,54.03 990.81,26.17 1120.9,26.17l3328.63 0.09c89.89,0.27 150.3,10.3 225.91,-26.26l31.97 -17.33c2.3,-1.25 6.76,-4.26 10.45,-5.78 -27.53,-119.96 -9.14,-2572.27 -9.14,-2764.42 0,-376.9 71.98,-376 -306.33,-375.74l-3454.2 0c-1161.51,0 -981.46,-75.66 -981.46,391.44 0,190.34 18.45,2628.47 -9.14,2748.72z"/>
   <path class="fil5" d="M1897.16 2401.62l-1.73 3071.58c195.84,56.8 1976.72,27.23 2328.71,27.23 354.97,0 2148.04,29.71 2343.75,-27.23l0.52 -3067.6c-116.46,-59.34 -2977.66,-29.32 -3506.13,-29.32 -321.6,0 -876.41,-33.79 -1165.12,25.34z"/>
   <path class="fil6" d="M1959.12 5465.68c122.26,19.24 4422.61,19.37 4544.65,0l0.99 -3054.05c-121.86,-20.27 -4427.16,-19.58 -4542.13,0l-3.51 3054.05z"/>
   <path class="fil7" d="M3574.22 4389.84l1340.68 -9.63c35.96,-18.33 37.99,-9.52 48.2,-59.17 5.09,-71.81 4.02,-173.72 24.78,-229.18 22.91,-61.24 20.51,-27.03 41.33,-64.03 1.85,-3.29 4.32,-6.93 5.97,-10.53l12.07 -39.97c17.13,-93.83 -23.38,-184.49 38.56,-253.85 26.44,-29.61 66.02,0.7 33.9,-203.12 -184.85,-106.24 -1356.05,28.79 -1471.6,-52.76 -134.44,-94.86 -96.55,-87.65 -124.47,-128.12 -61.41,-89.06 -12.41,58.25 -94.22,-170.51 -91.6,-22.79 -95.98,0.42 -157.95,-46.69 -66.95,-50.91 -82.52,-42.12 -197.41,-31.87l-5.57 184.84c115.86,30.53 131.66,45.06 238.06,103.81 27.01,98.92 5.34,187.38 55.74,265.1 59.84,92.27 35.22,140.1 53.98,257.3 16.88,105.41 67.53,87.81 77.97,232.35 20.61,285.53 63.55,105.74 79.98,256.03z"/>
   <path class="fil2" d="M1851.86 5484.04c27.59,-120.25 9.14,-2558.38 9.14,-2748.72 0,-467.1 -180.05,-391.44 981.46,-391.44l3454.2 0c378.31,-0.26 306.33,-1.16 306.33,375.74 0,192.15 -18.39,2644.46 9.14,2764.42 2.63,-3.25 5.37,-13.09 6.08,-10.95l14.35 -2769.16c0,-505.34 123.04,-412.57 -995.33,-412.57l-3485.61 -0.02c-108.84,-0.08 -243.83,-19.25 -295.65,53.19 -45.74,63.94 -24.55,252.82 -24.55,343.69l-0.11 2622.09c-0.39,51.65 -11.77,133.83 20.55,173.73z"/>
   <path class="fil8" d="M3386.68 3968.26c2.72,3.79 5.88,5.29 7,12.13 1.1,6.69 5.23,9.03 6.69,11.97l34.76 79.37c48.25,123.06 23.78,179.4 54.74,244.13 24.69,51.65 60.65,67.03 84.35,73.98 -16.43,-150.29 -59.37,29.5 -79.98,-256.03 -10.44,-144.54 -61.09,-126.94 -77.97,-232.35 -18.76,-117.2 5.86,-165.03 -53.98,-257.3 -50.4,-77.72 -28.73,-166.18 -55.74,-265.1 -106.4,-58.75 -122.2,-73.28 -238.06,-103.81l5.57 -184.84c114.89,-10.25 130.46,-19.04 197.41,31.87 61.97,47.11 66.35,23.9 157.95,46.69 81.81,228.76 32.81,81.45 94.22,170.51 27.92,40.47 -9.97,33.26 124.47,128.12 115.55,81.55 1286.75,-53.48 1471.6,52.76 32.12,203.82 -7.46,173.51 -33.9,203.12 -61.94,69.36 -21.43,160.02 -38.56,253.85l-12.07 39.97c-1.65,3.6 -4.12,7.24 -5.97,10.53 -20.82,37 -18.42,2.79 -41.33,64.03 -20.76,55.46 -19.69,157.37 -24.78,229.18 50.56,-55.64 108.64,-318.3 119.8,-387.53 30.45,-188.97 103.58,-194.36 59.27,-435.41 -42.7,-90.91 -265.37,-71.61 -399.9,-71.61l-974.44 0.97c-172.7,-0.24 -187.42,-91.52 -224.07,-154.38 -10.69,-18.33 -15.34,-21.2 -25.94,-37.42l-28.37 -48.27c-34.09,-34.92 2.46,-22.84 -55.73,-69.17 -18.82,-14.98 -64.89,-47.32 -84.12,-57.43 -67.53,-35.54 -161.03,-31.1 -240.3,-41.35 -3.55,3.58 -8.99,3.4 -11.24,10.12 -14.83,44.2 -69.69,13.71 -107.42,71.24 -101.34,154.5 209.07,283.07 226.67,294.82 91,60.7 70.97,168.98 95.55,288.74 21.67,105.59 74.84,154.78 73.82,283.9z"/>
   <path class="fil2" d="M6612.13 5484.04c-3.69,1.52 -8.15,4.53 -10.45,5.78l-31.97 17.33c-75.61,36.56 -136.02,26.53 -225.91,26.26l-3328.63 -0.09c-130.09,0 -1008.57,27.86 -1120.9,-26.17l-42.41 -23.11 1.82 60.39c164.1,69.22 929.77,38.67 1161.49,38.67l3014.58 0c192.05,0 427.33,25.99 578.61,-38.92l3.77 -60.14z"/>
   <path class="fil9" d="M3910.13 4552.8l-266.95 -2.52c-97.96,156.01 -141.49,14.44 -115.74,336.52 8.83,110.52 108.67,124.06 179.96,170.16 101.73,65.78 124.18,29.97 253.4,-43.53 30.2,-17.18 117.06,-179.09 96.37,-242.82 -6.15,-18.9 -17.85,-32.02 -22.24,-39.49 -91.1,-154.53 -88.1,-118.33 -124.8,-178.32z"/>
   <path class="fil9" d="M5002.13 4823.55c0,-61.61 -30.49,-100.91 -78.24,-183.04 -110.59,-190.17 -449.61,-88.54 -461.58,152.78 -5.77,116.31 16.51,122.85 72.6,190.53 47.02,56.74 2.79,21.59 76.82,49.9 96.71,36.96 108.87,69.95 201.48,18.94 16.07,-8.85 87.56,-45.39 92.29,-49.39 39.12,-33.23 12.43,-31.63 55.79,-87.49 33.17,-42.74 40.84,-18.66 40.84,-92.23z"/>
   <path class="fil9" d="M5142.17 3498.1c60.1,68.29 29.78,226.37 6.1,304.87 -33.24,110.12 -43.93,125.54 -65.06,254.55 -15.91,97.14 -50.44,160.95 -77.37,258.8 -24.5,89.05 -89.22,140.66 -184.25,148.26 -47.08,3.77 -1129.43,12.03 -1216.67,-13.27 -30.74,-8.92 6.87,1.79 -34.03,-11.91l-23.23 -7.11c11.32,108.18 157.67,75.67 283.95,75.61l753.66 0c240.38,0 249.63,37.54 389.71,-79.21 52.3,-43.59 51.77,-79.89 100.37,-183.13 48.85,-103.73 1.42,-208.64 70.97,-305.13 52.8,-73.23 72.42,-425.64 20.08,-483.64l-94.4 -85.35c-84.09,-37.63 -1313.05,27.74 -1405,-15.63 -106.94,-50.45 -43.83,-144.78 -177.55,-168.42l28.37 48.27c10.6,16.22 15.25,19.09 25.94,37.42 36.65,62.86 51.37,154.14 224.07,154.38l974.44 -0.97c134.53,0 357.2,-19.3 399.9,71.61z"/>
   <path class="fil10" d="M4963.1 4321.04c-10.21,49.65 -12.24,40.84 -48.2,59.17 -29.16,49.24 25.27,18.01 -51.32,45.81l-262.62 4.32c-184.92,-0.01 -982.23,30.36 -1026.74,-40.5 -23.7,-6.95 -59.66,-22.33 -84.35,-73.98 -30.96,-64.73 -6.49,-121.07 -54.74,-244.13l-34.76 -79.37c-1.46,-2.94 -5.59,-5.28 -6.69,-11.97 -1.12,-6.84 -4.28,-8.34 -7,-12.13 6.76,119.61 45.24,136.26 68.75,247.28 50.66,239.05 68.41,124.06 92.23,216.75l23.23 7.11c40.9,13.7 3.29,2.99 34.03,11.91 87.24,25.3 1169.59,17.04 1216.67,13.27 95.03,-7.6 159.75,-59.21 184.25,-148.26 26.93,-97.85 61.46,-161.66 77.37,-258.8 21.13,-129.01 31.82,-144.43 65.06,-254.55 23.68,-78.5 54,-236.58 -6.1,-304.87 44.31,241.05 -28.82,246.44 -59.27,435.41 -11.16,69.23 -69.24,331.89 -119.8,387.53z"/>
   <path class="fil7" d="M3872.57 4961.64c24.64,-32.93 59.4,-48.23 72.77,-91.72 12.16,-39.52 1.61,-123.77 2.58,-169.88 -102.61,-14.52 -253.15,-65.48 -278.86,29.9l-6.35 93.76c1.77,58.68 3.05,87.05 26.27,133.85l183.59 4.09z"/>
   <path class="fil7" d="M4883.5 4893.26l2.88 -181.72c-71.16,-26.03 -259.42,-81.61 -286.21,19.42l-6.73 93.02c4.9,106.69 57.65,172.74 178.76,138.59 74.66,-21.05 15.46,-65.58 111.3,-69.31z"/>
   <path class="fil9" d="M3547.66 4432.29c-23.82,-92.69 -41.57,22.3 -92.23,-216.75 -23.51,-111.02 -61.99,-127.67 -68.75,-247.28 1.02,-129.12 -52.15,-178.31 -73.82,-283.9 -24.58,-119.76 -4.55,-228.04 -95.55,-288.74 -17.6,-11.75 -328.01,-140.32 -226.67,-294.82 37.73,-57.53 92.59,-27.04 107.42,-71.24 2.25,-6.72 7.69,-6.54 11.24,-10.12 -166.04,-0.86 -252.3,149.65 -115.54,286.81 108.33,108.65 -14.93,74.37 194.13,117.76 146.39,240.49 51.97,255.19 113.3,391.53 129.3,287.53 6.83,165.25 117.71,399.23 54.29,114.58 -22.62,199.75 128.76,217.52z"/>
   <path class="fil8" d="M4914.9 4380.21l-1340.68 9.63c44.51,70.86 841.82,40.49 1026.74,40.5l262.62 -4.32c76.59,-27.8 22.16,3.43 51.32,-45.81z"/>
   <path class="fil11" d="M4616.58 4667.01c-112.34,70.87 -91.22,212.84 -5.75,307.5 51.58,12.76 104.22,24.23 160.78,17.39 78.5,-9.5 102.39,-29.68 111.89,-98.64 -95.84,3.73 -36.64,48.26 -111.3,69.31 -121.11,34.15 -173.86,-31.9 -178.76,-138.59l6.73 -93.02c26.79,-101.03 215.05,-45.45 286.21,-19.42 -23.97,-66.63 12.88,-22.09 -54.43,-59.57 -26.36,-14.68 -45.62,-20.71 -74.28,-24.62 -72.58,-9.88 -100.63,7.52 -141.09,39.66z"/>
   <path class="fil11" d="M3647.12 4678.67c-45.63,118.35 -93.2,83.48 -13.56,231.02 41.12,76.17 22.54,47.82 43.83,55.24 124.74,24.9 108.75,34.51 181.85,4.18 3.89,-1.61 9.04,-4.73 13.33,-7.47l-183.59 -4.09c-23.22,-46.8 -24.5,-75.17 -26.27,-133.85l6.35 -93.76c25.71,-95.38 176.25,-44.42 278.86,-29.9 -111.92,-130.9 -252.22,-41.6 -300.8,-21.37z"/>
   <path class="fil10" d="M3893.13 4986.37c-78.87,10.8 -148.79,35.57 -215.74,-21.44 -21.29,-7.42 -2.71,20.93 -43.83,-55.24 -79.64,-147.54 -32.07,-112.67 13.56,-231.02 102.64,-74.14 106.38,-95.83 192.68,-66.26 61.57,21.11 112.39,82.83 150.04,131.14 -4.89,-75.8 -34.99,-77.73 -78.7,-108.1 -41.24,-28.64 -35.59,-53.3 -111.15,-56.91 -88.67,-4.23 -172.87,76.89 -209.71,130.16 -135.45,195.91 166.16,411.07 302.85,277.67z"/>
   <path class="fil10" d="M4616.58 4667.01c40.46,-32.14 68.51,-49.54 141.09,-39.66 28.66,3.91 47.92,9.94 74.28,24.62 67.31,37.48 30.46,-7.06 54.43,59.57l-2.88 181.72c-9.5,68.96 -33.39,89.14 -111.89,98.64 -56.56,6.84 -109.2,-4.63 -160.78,-17.39 14.29,34.95 -5.82,54.25 21.46,28.31 102.52,46.23 242.56,24.5 281.75,-72.36 19.22,-47.49 24.27,-94.6 18.57,-148.84 -7.72,-73.44 -6.69,-96.61 -54.79,-120.94 -26.38,-5.53 -7.97,-13.2 -57.57,-30.3 -29.48,-10.18 -49.73,-13.91 -93.21,-12.77 -64.95,1.72 -72.17,27.99 -110.46,49.4z"/>
   <path class="fil10" d="M4632.29 5002.82c-27.28,25.94 -7.17,6.64 -21.46,-28.31 -85.47,-94.66 -106.59,-236.63 5.75,-307.5 38.29,-21.41 45.51,-47.68 110.46,-49.4 43.48,-1.14 63.73,2.59 93.21,12.77 49.6,17.1 31.19,24.77 57.57,30.3 -2.91,-2.7 -7.38,-10.83 -8.69,-8.08 -13.99,29.37 -14.39,-73.83 -141.91,-71.47 -147.34,2.74 -233.51,157.05 -229.23,241.68 4.45,87.87 48.89,62.84 71.57,159.35 3.77,1.59 53.75,17.69 62.73,20.66z"/>
   <path class="fil8" d="M3647.12 4678.67c48.58,-20.23 188.88,-109.53 300.8,21.37 -0.97,46.11 9.58,130.36 -2.58,169.88 -13.37,43.49 -48.13,58.79 -72.77,91.72 -4.29,2.74 -9.44,5.86 -13.33,7.47 -73.1,30.33 -57.11,20.72 -181.85,-4.18 66.95,57.01 136.87,32.24 215.74,21.44 102.57,-13.97 98.42,-130.12 96.71,-242.82 -37.65,-48.31 -88.47,-110.03 -150.04,-131.14 -86.3,-29.57 -90.04,-7.88 -192.68,66.26z"/>
  </g>
 </g>
</svg>
