<?xml version="1.0" encoding="UTF-8"?>
<!DOCTYPE svg PUBLIC "-//W3C//DTD SVG 1.1//EN" "http://www.w3.org/Graphics/SVG/1.1/DTD/svg11.dtd">
<!-- Creator: CorelDRAW 2017 -->
<svg xmlns="http://www.w3.org/2000/svg" xml:space="preserve" width="29.0406mm" height="34.7978mm" version="1.1" style="shape-rendering:geometricPrecision; text-rendering:geometricPrecision; image-rendering:optimizeQuality; fill-rule:evenodd; clip-rule:evenodd"
viewBox="0 0 2904.06 3479.78"
 xmlns:xlink="http://www.w3.org/1999/xlink">
 <defs>
  <style type="text/css">
   <![CDATA[
    .str0 {stroke:#E10A72;stroke-width:20;stroke-miterlimit:22.9256}
    .fil2 {fill:none}
    .fil0 {fill:#E10A72}
    .fil1 {fill:white;fill-rule:nonzero}
   ]]>
  </style>
 </defs>
 <g id="Capa_x0020_1">
  <metadata id="CorelCorpID_0Corel-Layer"/>
  <path class="fil0" d="M747.3 1444.9c7.84,-13.8 -2.7,-5.04 12.97,-9.41l282.11 -1.34c1.61,0 18.17,0.06 18.61,0.14 32.49,5.2 9.54,-0.04 20.18,8.68 28.24,37.89 36.94,102.95 72.29,133.95 16.85,-41.26 59.35,-90.12 78.35,-135.52l139.52 -2.49c-7.65,31.06 -84.15,157.38 -110.67,202.74 -14.64,25.05 -31.49,40.91 -18.48,66.02 23.08,44.54 143.85,231.11 147.45,260.63l-148.92 0.51c-29.98,-51.83 -60.26,-109.05 -85.9,-160.23 -27.75,23.11 -70.84,124.85 -100.3,159.52l-249.43 0.87c-16.7,-112.59 14.27,-274.37 -2.54,-391.34l-100.03 389.52 -107.08 1.87c-26.48,-59.36 -73.03,-334.32 -98.42,-390.85 -14.18,95.97 -0.13,282.12 -0.19,388.38l-119.18 0.98 0.02 -526.78c42.04,-3.43 149.32,-7.55 185.85,3.48 15.01,47.82 30.22,110.13 42.44,157.87 7.32,28.56 14.7,52.83 22.37,81.58 6.53,24.42 8.8,65.7 27.25,78.52l91.73 -317.3zm-521.35 -119.31c0,116.05 -9.31,694.76 6.14,761.05l1233.63 0c15.45,-66.29 6.14,-645 6.14,-761.05 0,-14.15 -4.27,-18.41 -18.41,-18.41l-1209.08 0c-14.15,0 -18.42,4.26 -18.42,18.41z"/>
  <path class="fil0" d="M360.97 2921.34c-7.27,-11.48 -6.89,13.7 -5.06,-12.28 0.93,-13.1 0.76,-5.49 5.06,-12.28l0 24.56zm0 0c0.83,1.28 1.76,1.91 2.02,4.11 0.28,2.23 1.57,3.25 1.93,4.21l94.26 292.41c156.68,0 97,10.36 127.95,-62.3l32.38 -96.52c5.62,-16.57 8.01,-32.98 13.96,-53.54 10.17,-35.13 27.3,-58.22 28.25,-100.65 19.63,14.38 8.86,-4.37 12.54,24.28 1.06,8.36 -0.13,33.18 -0.22,43.18l-0.06 245.55 116.62 0 0.11 -380.64c1.1,-79.78 19.21,-61.26 -178.1,-61.26 -19.86,37.55 -85.92,244.28 -85.92,282.33l-12.28 0c-0.54,-24.19 -76.53,-264.59 -85.92,-282.33 -226.89,0 -184.12,-42.76 -184.12,184.13 0,61.35 0.34,122.8 -0.03,184.14 -0.51,87.93 -16.37,73.63 110.5,73.63 17.04,-73.13 6.13,-213.39 6.13,-300.73z"/>
  <path class="fil0" d="M2054.93 1650.88l503.27 -73.66c15.98,0 36.87,8.99 53.1,14.41 29.06,9.71 47.2,22.54 69.1,47.52 0.24,0.26 7.05,9.29 7.9,10.51 12.78,18.25 11.65,25.5 35.61,31.9 21.41,-40.46 33.39,-57.71 36.99,-116.74 4.46,-73.39 1.1,-121.24 -42.96,-178.03l-8.43 -9.98c-39.33,-45.83 -89.66,-69.63 -151.31,-69.63 -41.45,0 -210.91,-10.14 -236.12,9.38l-134.87 165.87c-4.11,4.89 -5.7,6.55 -8.56,9.84l-91.7 110.84c-11.54,13.89 -27.3,30.06 -32.02,47.77z"/>
  <path class="fil0" d="M2417.03 3013.4c0,-49.86 14.81,-147.3 79.79,-147.3 46.6,0 57.8,-7.91 91.23,43.79 27.6,42.69 25.38,135.62 1.56,177.88 -44.34,78.62 -123.73,51.06 -149.31,6.69 -8.39,-14.55 -23.27,-59.84 -23.27,-81.06zm-122.75 -24.55c0,92.27 22.57,183.75 114.58,222.98 77.76,33.17 176.21,30.93 242.52,-19.32 4.39,-3.33 9.08,-6.9 13.61,-10.95 1.52,-1.36 30.15,-28.67 46.1,-64.38 35.67,-79.87 31.81,-172 -7.54,-249.13 -51.74,-101.43 -178.96,-121.02 -290.57,-79.65 -80.54,29.87 -118.7,117.29 -118.7,200.45z"/>
  <path class="fil0" d="M1373.66 2994.99c-12.72,18.99 -21.68,36.06 -34.8,57.26l-73.04 111.08c-7.92,12.96 -8.36,14.46 -16.81,26.16 -11.28,15.63 -11.32,10.29 -16.51,32.58l135.02 0 56.6 -115.26c10.11,-18.03 15.01,-19.78 17.05,-44.31 19.5,14.28 83.44,148.91 85.93,159.57l141.16 0c-2,-24.07 -20.1,-43.84 -31.6,-60.46l-109.56 -172.76 15.91 -20.92c18.57,-29.38 107.73,-165.24 112.98,-187.76l-128.89 0 -31.85 66.35c-8.92,20.26 -27.06,45.16 -29.53,74.82l-59.67 -106.04c-6.99,-14.54 -12.64,-21.01 -20.12,-35.13l-135.01 0c6.72,28.87 10.18,32.11 26.28,53.5l66.11 105.74c12.62,19.58 23.86,27.7 30.35,55.58z"/>
  <path class="fil0" d="M870.39 2798.59l0 405.07c0,14.14 4.27,18.41 18.41,18.41l300.74 0c0,-118.93 35.34,-92.06 -190.27,-92.06l0 -92.07 171.86 0 0 -85.92 -171.86 0 0 -85.92 165.72 0c25.06,0 18.41,-19.25 18.41,-67.51 0,-14.15 -4.27,-18.42 -18.41,-18.42l-276.19 0c-14.14,0 -18.41,4.27 -18.41,18.42z"/>
  <path class="fil0" d="M2466.13 2338.27c0,-15.69 9.72,-0.98 3.66,0 -0.08,0.02 -3.66,17.13 -3.66,0zm-85.92 -116.61l0 374.39 92.06 0 0 -245.5c5.68,6.53 -0.08,-2.03 7.87,10.53 17.18,27.12 101.02,215.88 102.6,234.97l128.89 0 0 -374.39c0,-25.63 -21.29,-18.41 -73.65,-18.41 -37.08,0 -24.56,68.33 -24.55,104.33 0.01,45.01 0,90.02 0,135.03 -24.28,-17.79 -1.49,-3.33 -31.52,-60.53 -11.07,-21.11 -16.9,-41.62 -27.8,-64.27 -64.93,-135.02 -19.5,-114.56 -155.49,-114.56 -14.14,0 -18.41,4.27 -18.41,18.41z"/>
  <path class="fil0" d="M1901.49 2964.3c0,74.62 -2.83,158.52 69.91,212.41 19.01,14.09 45.32,31.73 66.22,38.11 132.77,40.55 151.7,8.83 244.39,1.12 0,-42.88 -6.14,-59.89 -6.14,-104.34 -51.14,4.25 -45.81,24.55 -116.61,24.55 -137.48,0 -184.3,-185.75 -74.24,-252.23 79.49,-48.04 174.6,7.41 182.43,3.35 10.51,-5.45 14.21,-79.18 14.56,-94.83 -69.37,-16.16 -146.8,-41.84 -231.65,-10.69 -44.11,16.2 -37.79,11.95 -71.79,38.68 -43.17,33.94 -77.08,83.18 -77.08,143.87z"/>
  <path class="fil0" d="M232.09 2596.05c131.96,0 104.34,32.4 104.34,-159.58l98.2 0 0 159.58c69.83,0 104.34,9.89 104.34,-18.41 0,-78.63 7.96,-313.84 -6.15,-374.39 -115.83,0 -99.78,-21.52 -97.84,98.56 0.94,57.91 11.02,48.74 -98.55,48.74 0,-56.53 4.85,-100.12 -6.14,-147.3l-98.2 0 0 392.8z"/>
  <path class="fil0" d="M1250.92 2233.94l0 343.7c0,28.3 34.49,18.41 104.33,18.41l0 -159.58 98.2 0c0,191.98 -27.63,159.58 104.34,159.58l0 -374.39c0,-26.18 -23.56,-18.41 -79.79,-18.41 -38.16,0 -24.55,71.38 -24.55,147.3l-98.2 0c0,-176.74 23.55,-147.3 -98.2,-147.3 -3.2,13.77 -6.13,14.11 -6.13,30.69z"/>
  <path class="fil0" d="M1791.01 2522.4c-113.55,0 -103.54,-245.5 -6.14,-245.5 37.78,0 73.65,43.56 73.65,104.34 0,44.59 -5.71,141.16 -67.51,141.16zm-184.12 -147.31c0,71.59 -0.67,119.2 45.4,175.56 59.32,72.58 216.81,70.77 273.96,-9.63 12.61,-17.73 24.3,-39.6 28.92,-63.14 18.36,-93.37 16.54,-73.84 -1.1,-155.36 -7.6,-35.13 -30.98,-68.81 -57.1,-90.21l-22.72 -14.11c-1.2,-0.65 -2.76,-1.51 -3.97,-2.16 -43.82,-23.51 -122.38,-27.5 -166.63,-1.95 -27.2,15.7 -53.47,33.1 -67.92,60.96l-13.61 29.36c-9.1,20.66 -15.23,43.71 -15.23,70.68z"/>
  <path class="fil0" d="M2226.77 1276.49l67.51 0c7.28,-31.22 -0.57,-61.02 -12.89,-91.45 -37.36,-92.37 -140.99,-68.13 -287.84,-68.13l-295 0.41c-72.21,-0.27 -89.1,-52.9 -122.35,-61.78 0,92.14 56.59,168.1 138.25,187.03 32.6,7.56 364.69,3.66 432.58,3.18 48.31,-0.34 70.4,-9.36 79.74,30.74z"/>
  <path class="fil0" d="M2067.2 2221.66l0 374.39 245.5 0c24.47,0 18.41,-17.39 18.41,-61.38 0,-32.43 -69.51,-18.41 -159.58,-18.41l0 -79.79 141.17 0c8.96,-38.47 8.96,-41.3 0,-79.79l-141.17 0 0 -67.51c57,0 105.98,4.93 153.44,-6.13 0,-100.97 40.76,-79.79 -239.36,-79.79 -14.14,0 -18.41,4.27 -18.41,18.41z"/>
  <path class="fil0" d="M594.2 2221.66l0 374.39 257.78 0 0 -79.79c-180.79,0 -153.44,21.55 -153.44,-79.79l141.16 0 0 -79.79 -141.16 0 0 -67.51 147.3 0c9.04,-38.79 9.04,-47.12 0,-85.92l-202.9 -0.36c-26.06,-0.42 -48.74,-6.07 -48.74,18.77z"/>
  <path class="fil0" d="M1072.92 2602.18c162.84,0 128.9,3.06 128.9,-104.34 -0.17,0.02 -202.55,80.69 -202.55,-98.19 0,-105.16 86.59,-128.61 130.23,-118.48 27.95,6.48 40.96,18.18 66.17,20.28 7.24,-31.05 6.15,-47.46 6.15,-85.93 -58.65,-13.66 -125.12,-33.15 -193.51,-3.24 -25.56,11.18 -39.74,17.03 -59.91,38.3 -15.5,16.36 -31.22,35.47 -39.27,58.91 -23.39,68.09 -22.09,93.1 -5.47,161.22 2.51,10.28 8.14,27.79 12.76,36.34 30.61,56.52 90.02,95.13 156.5,95.13z"/>
  <path class="fil0" d="M1570.06 2074.36c22,-5.87 24.26,-14.7 46.52,-39.41l230.32 -260.67c18.86,-19.38 54.53,-51.13 60.72,-74.31 -17.6,-9.31 -30.48,-13.73 -47.46,-26.18 -17.94,-13.15 -25.12,-18.75 -44.6,-29.06 -10.33,6.93 -10.22,7.52 -20.37,16.46l-157.8 142.95c-8.58,8.25 -8.25,9.17 -18.4,18.41 -69.54,63.31 -48.93,30.02 -48.93,251.81z"/>
  <polygon class="fil0" points="1723.5,3222.07 1846.25,3222.07 1846.25,2780.17 1723.5,2780.17 "/>
  <path class="fil0" d="M1741.91 1325.59c0,68.54 28.44,151.22 66.54,203.51 16.9,23.19 44.86,50.03 67.56,67.46 22.23,17.05 62.71,41.73 86.85,48.17 14.75,-9.87 9.86,-6.84 21.9,-21.05 26.11,-30.82 56.74,-56.01 64.02,-83.28 -80.87,-18.84 -144.98,-62.49 -172.77,-140.25 -7.65,-21.41 -11.35,-61.23 -11.35,-92.97l-122.75 0 0 18.41z"/>
  <path class="fil0" d="M938.08 1923.38c21.3,-31.99 131.76,-221.31 132.41,-230.44 1.92,-26.52 -116.18,-195.52 -129.77,-238.17 -8.14,5.09 -9.32,-12.38 -8.62,48.77 0.97,84.34 -8.7,383.41 5.98,419.84z"/>
  <path class="fil0" d="M1938.31 1337.87c0,51 60.13,128.88 128.89,128.88 59.07,0 103.84,-8.21 141.03,-73.78 15.42,-27.18 12.4,-54.06 12.4,-85.79l-79.78 0c0,34.8 -5.8,79.78 -67.51,79.78 -10.41,0 -32.71,-16.26 -37.95,-23.43 -10.84,-14.79 -11.15,-32.21 -11.15,-56.35l-85.93 0 0 30.69z"/>
  <path class="fil0" d="M1570.06 1595.64l0 165.71c19.66,-4.58 14.97,-3.45 28.35,-14.62l46.24 -39.67c19.21,-17.42 121.81,-89.95 121.81,-111.42l-55.24 -85.93 -141.16 85.93z"/>
  <path class="fil0" d="M1570.06 1509.71c40.76,-0.91 79.51,-39.87 116.61,-42.96 0,-37.09 -8.54,-51.85 -11.51,-80.55 -9.01,-87.26 35.3,-79.02 -105.1,-79.02l0 202.53z"/>
  <path class="fil0" d="M980.86 2761.76c78.91,0 57.33,10.4 133.67,-50.46 15.15,-12.07 26.48,-14.65 32.05,-35.46l-122.76 0c-13.24,25.04 -36.52,58.27 -42.96,85.92z"/>
  <path class="fil0" d="M938.08 1923.38c-14.68,-36.43 -5.01,-335.5 -5.98,-419.84 -0.7,-61.15 0.48,-43.68 8.62,-48.77 -0.26,-15.83 -7.12,-7.44 9.45,-12.41l131 0.61c-10.64,-8.72 12.31,-3.48 -20.18,-8.68 -0.44,-0.08 -17,-0.14 -18.61,-0.14l-282.11 1.34c-15.67,4.37 -5.13,-4.39 -12.97,9.41l176.6 -2.37 0.49 496.59c16.29,-10.3 7.96,-5.33 13.69,-15.74z"/>
  <polygon class="fil0" points="2.02,1.2 2902.04,1.2 2902.04,911.49 2.02,911.49 "/>
  <path class="fil1" d="M653.07 158.54l165.49 0 0 58.22 -102.23 0 0 59.14 102.23 0 0 57.3 -102.23 0 0 60.97 102.23 0 0 58.22 -165.49 0 0 -293.85zm217.74 0l100.32 0c42.86,0 77.32,13.53 103.45,40.5 26.13,27.04 39.19,62.57 39.19,106.73 0,44.32 -13.44,79.84 -40.41,106.58 -26.97,26.67 -62.81,40.04 -107.58,40.04l-94.97 0 0 -293.85zm63.26 55.47l0 181.54 25.14 0c26.13,0 47.52,-7.11 64.33,-21.24 16.73,-14.22 25.14,-37.82 25.14,-70.98 0,-19.26 -4.05,-36.29 -12.15,-51.12 -8.1,-14.9 -19.79,-24.98 -35.14,-30.25 -15.36,-5.27 -30.03,-7.95 -43.94,-7.95l-23.38 0zm225.93 -55.47l63.26 0 0 293.85 -63.26 0 0 -293.85zm341.9 15.59l0 71.51c-31.78,-18.95 -59.59,-28.42 -83.51,-28.42 -23.84,0 -42.94,8.18 -57.3,24.6 -14.29,16.43 -21.47,38.51 -21.47,66.24 0,26.21 7.56,47.22 22.62,62.96 15.05,15.74 35.22,23.61 60.43,23.61 22.08,0 48.52,-9.02 79.23,-27.05l0 71.52c-34.46,11.61 -63.19,17.42 -86.18,17.42 -39.5,0 -73.12,-14.52 -100.7,-43.55 -27.58,-29.04 -41.41,-64.49 -41.41,-106.28 0,-42.56 14.06,-78.54 42.17,-108.04 28.12,-29.49 62.35,-44.23 102.61,-44.23 25.98,0 53.79,6.57 83.51,19.71zm44.47 -15.59l63.26 0 0 293.85 -63.26 0 0 -293.85zm112.69 146.85c0,-43.47 14.36,-79.31 43.09,-107.65 28.73,-28.27 62.81,-42.41 102.15,-42.41 43.63,0 79.62,14.21 108.11,42.64 28.5,28.5 42.79,64.4 42.79,107.8 0,43.17 -14.13,79 -42.33,107.5 -28.19,28.5 -63.72,42.79 -106.5,42.79 -42.87,0 -78.09,-14.21 -105.82,-42.56 -27.66,-28.34 -41.49,-64.41 -41.49,-108.11zm148.38 -91.38c-24.68,-0.46 -44.55,8.02 -59.68,25.52 -15.12,17.5 -22.69,40.04 -22.69,67.62 0,26.13 7.72,47.75 23.15,64.94 15.36,17.19 34.84,25.75 58.38,25.75 24.67,0 44.61,-8.48 59.82,-25.44 15.2,-16.89 22.77,-39.28 22.77,-67.01 0,-27.35 -7.41,-49.28 -22.31,-65.86 -14.9,-16.58 -34.69,-25.06 -59.44,-25.52zm-33.77 -75.18l31.17 -66.93 69.68 0 -60.97 66.93 -39.88 0zm428.7 19.71l61.88 0 0 293.85 -61.27 0 -134.93 -190.24 0 190.24 -63.26 0 0 -293.85 62.5 0 135.08 188.87 0 -188.87zm-1612.98 325.75l165.49 0 0 58.22 -102.23 0 0 59.14 102.23 0 0 57.3 -102.23 0 0 60.97 102.23 0 0 58.22 -165.49 0 0 -293.85zm384.15 26.44l-39.43 43.24c-20.85,-12.22 -35.91,-18.33 -45.07,-18.33 -7.11,0 -13.22,2.67 -18.34,7.94 -5.12,5.27 -7.64,11.54 -7.64,18.8 0,14.44 13.14,26.97 39.42,37.66 19.26,8.26 33.85,15.74 43.78,22.39 9.93,6.65 18.26,15.82 24.99,27.66 6.72,11.76 10.08,24.52 10.08,38.28 0,25.29 -10.24,47.21 -30.64,65.86 -20.4,18.71 -44.54,28.04 -72.35,28.04 -30.56,0 -60.66,-14.37 -90.46,-43.1l41.64 -48.59c18.79,19.26 36.29,28.88 52.72,28.88 7.64,0 14.97,-3.36 22,-10.08 7.11,-6.65 10.62,-13.68 10.62,-21.09 0,-15.13 -16.2,-28.73 -48.59,-40.65 -18.49,-6.87 -31.63,-13.29 -39.5,-19.17 -7.87,-5.89 -14.52,-14.52 -19.87,-25.75 -5.35,-11.31 -8.02,-22.77 -8.02,-34.61 0,-26.13 8.56,-47.3 25.6,-63.57 17.03,-16.27 39.34,-24.37 66.92,-24.37 32.63,0 59.98,10.16 82.14,30.56zm54.55 -26.44l100.47 0c27.05,0 48.82,7.87 65.4,23.69 16.58,15.74 24.84,36.52 24.84,62.27 0,16.88 -4.05,32.93 -12.15,48.13 -8.1,15.13 -20.33,26.51 -36.75,34 -16.35,7.41 -30.33,11.31 -41.95,11.61l-36.6 0.92 0 113.23 -63.26 0 0 -293.85zm62.35 53.18l0 75.18 24.29 0c10.47,0 19.41,-3.82 26.9,-11.38 7.41,-7.64 11.15,-16.66 11.15,-27.13 0,-11.92 -4.2,-21.16 -12.6,-27.73 -8.41,-6.57 -20.33,-9.86 -35.84,-9.86l-13.9 0.92zm180.08 -53.18l165.49 0 0 58.22 -102.23 0 0 59.14 102.23 0 0 57.3 -102.23 0 0 60.97 102.23 0 0 58.22 -165.49 0 0 -293.85zm438.7 15.59l0 71.51c-31.78,-18.95 -59.59,-28.42 -83.51,-28.42 -23.84,0 -42.94,8.18 -57.3,24.6 -14.29,16.43 -21.47,38.51 -21.47,66.24 0,26.21 7.56,47.22 22.62,62.96 15.05,15.74 35.22,23.61 60.43,23.61 22.08,0 48.52,-9.02 79.23,-27.05l0 71.52c-34.46,11.61 -63.19,17.42 -86.18,17.42 -39.5,0 -73.12,-14.52 -100.7,-43.55 -27.58,-29.04 -41.41,-64.49 -41.41,-106.28 0,-42.56 14.06,-78.54 42.17,-108.04 28.12,-29.49 62.35,-44.23 102.61,-44.23 25.98,0 53.79,6.57 83.51,19.71zm44.47 -15.59l63.26 0 0 293.85 -63.26 0 0 -293.85zm224.09 0l49.51 0 119.64 293.85 -63.72 0 -23.53 -57.76 -112.77 0 -23.07 57.76 -63.42 0 117.36 -293.85zm24.98 96.27l-34.61 86.64 69.91 0 -35.3 -86.64zm190.01 -96.27l63.26 0 0 230.59 86.19 0 0 63.26 -149.45 0 0 -293.85z"/>
  <path class="fil2 str0" d="M2.02 1.2l2900.02 0 0 3030.56c0,245.76 -201.06,446.82 -446.82,446.82l-2006.38 0c-245.76,0 -446.82,-201.06 -446.82,-446.82l0 -3030.56z"/>
 </g>
</svg>
