<?xml version="1.0" encoding="UTF-8"?>
<!DOCTYPE svg PUBLIC "-//W3C//DTD SVG 1.1//EN" "http://www.w3.org/Graphics/SVG/1.1/DTD/svg11.dtd">
<!-- Creator: CorelDRAW 2017 -->
<svg xmlns="http://www.w3.org/2000/svg" xml:space="preserve" width="50.7998mm" height="33.8666mm" version="1.1" style="shape-rendering:geometricPrecision; text-rendering:geometricPrecision; image-rendering:optimizeQuality; fill-rule:evenodd; clip-rule:evenodd"
viewBox="0 0 5079.98 3386.66"
 xmlns:xlink="http://www.w3.org/1999/xlink">
 <defs>
  <style type="text/css">
   <![CDATA[
    .fil0 {fill:none}
    .fil1 {fill:#334976}
    .fil3 {fill:#284579}
    .fil2 {fill:#A7C6D5}
   ]]>
  </style>
 </defs>
 <g id="Capa_x0020_1">
  <metadata id="CorelCorpID_0Corel-Layer"/>
  <rect class="fil0" x="-0" width="5079.99" height="3386.66"/>
  <g id="_1689637693600">
   <path class="fil1" d="M2909.46 1764.37c48.38,-35.28 47.21,-36.54 109.01,-49.85 149.15,-32.13 197.99,71.71 357.82,39.9 32.25,-6.41 36.58,-15.78 67.84,-20.32 -65.77,55.02 -154.75,68.66 -264.64,25.58 -161.27,-63.23 -176.81,-8.57 -270.03,4.69z"/>
   <path class="fil1" d="M2957.37 591.55c69.47,-178.03 -48.7,-302.26 -213.54,-318.85 292.05,-15.87 317.02,344.5 213.54,318.85z"/>
   <path class="fil1" d="M3625.25 1041.65c153.7,-97.43 154.1,-103.71 195.14,-317.05 75,97.87 -89.3,326.74 -195.14,317.05z"/>
   <path class="fil1" d="M1291.06 1212.51c-60.09,-92.61 -74.47,-280.13 11.27,-298.54 -79.56,230.74 4.64,210.2 -11.27,298.54z"/>
   <path class="fil1" d="M1834.55 1073.64c-17.83,10.12 -13.34,13.57 -40.67,8.03 -107.25,-21.7 -310.25,-300.59 -179.52,-605.23 -11.8,116.1 -49.41,183.9 7.53,341.26 41.01,113.34 95.94,206.03 212.66,255.94z"/>
   <path class="fil1" d="M1556.68 948.87c-36.54,-48.24 -60.37,-142.42 -65.06,-208.93l-7.24 -65.32c0.51,-3 -1.43,-4.13 -2.39,-6.09 -94.03,17.86 -223.23,129.99 -261.65,268.03 -37.4,134.35 8.07,272.8 65.12,347.16 49.74,-24.54 63.71,-72.85 112.35,-73.82 -24.88,48.15 -228.57,179.26 -165.31,415.28 43.89,163.75 128.19,219.95 335.94,267.94 41.91,-80.19 51.46,-120.16 112.09,-187.34 111.05,-123.05 115.13,-31.13 126.05,-120.63 -101.5,-28.03 -154.45,-109.61 -129.95,-202.27 30.97,-117.07 115.39,-134.11 180.34,-167.71 -232.03,-102.6 -229.54,-175.64 -289.43,-229.42 -113.78,187.34 -76,285.54 29.45,410.97 -83.36,-39.59 -124.99,-126.84 -135.26,-194.32 -23.55,-154.89 67.97,-213.93 94.95,-253.53zm2177.25 547.18c-48.34,90.66 -42.69,141.09 -118.93,229.51 -100.43,116.47 -237.29,174.04 -388.83,132.15 -119.41,-33.01 -124.93,-47.16 -233.23,-25.88 -45.29,15.95 -101.53,48.6 -131.95,113.94 -72.73,156.21 118.75,164.18 120.78,302.08 0.47,31.86 -8.47,67.39 -28.03,96.63 -16.44,24.59 -44.75,47.9 -73.27,53.01 -10.37,-33.95 -3.27,-65.06 -43.18,-86.12 -90.59,-47.83 -172.59,69.14 -313.36,6.03 22.27,-7.71 2.01,-4.76 30.74,-0.24 77.19,12.14 105.08,14.28 181.06,-19.25 138.37,-61.07 151.8,21.44 185.21,67.07 127.84,-173.98 -20.07,-214.22 -78.11,-292.34 -76.61,-103.09 40.42,-237.24 131.67,-273.61 203.59,-81.14 380.95,193.83 637.47,-124.66 235.03,-291.81 -26.29,-718.95 -290.03,-586.61 -79.4,39.83 -38.54,65.37 -68.28,153.38 -42.27,125.1 -156.89,220.56 -248.05,215.21 41.11,-39.17 94.55,-57.74 140.92,-108.17 88.27,-96 107.49,-270.2 44.14,-377.54 -38.51,-65.27 -92.53,-89.54 -128.62,-140.2 150.4,78.18 164.57,177.01 204.54,257.43 0.9,1.8 2.74,4.83 3.52,6.31 0.77,1.49 2.38,4.27 3.67,6.34 123.72,-134.43 237.29,-23.56 308.88,-9.95 106.52,20.26 323.2,-178.91 293.67,-434.52 -13.89,-120.31 -91.5,-274.25 -241.83,-339.51 -125.91,-54.66 -267.77,-39.09 -368.75,39.32 -31.15,24.19 -15.92,28.29 -49.55,24.21 -8.2,-34.84 3.5,-73.88 -5.91,-112.3 -65.76,-268.22 -543.34,-295.5 -684.55,-119.62 38.62,29.74 83.46,89.4 132.11,81.84 213.56,-33.16 399.59,83.23 384.01,246.27l-22.32 -48.13c-54.73,-138.35 -176.07,-195.62 -324.91,-177.57 -142.15,17.23 -250.9,102.37 -323.58,281.38 -5.02,-32.6 13.49,-74.69 28.59,-104.33 16.09,-31.6 33.9,-56.2 58.71,-82.58 60.41,-64.23 98.34,-67.02 142.43,-103.67 -493.53,-480.22 -1246.71,63.08 -1039.05,623.67 114.49,309.07 352.6,282.33 431.04,350.37 -11.79,53.92 -89.12,29.06 -132.55,40.83 -102.97,27.93 -188.09,132.79 -131.8,234.82 43.54,78.93 86.27,42.66 145.69,69.76 -21.78,43.12 -10.05,0.1 -30.26,37.83 -16.05,29.96 -2.19,15.3 -10.77,50.22 -76.68,15.78 -107.73,33.4 -163.01,109.89 -134.73,186.47 -120.69,449.8 36.74,605.83 248.84,246.62 618.2,133.07 736.08,-134.48 -89.57,-9.98 -68.72,116.2 -220.8,181.74 -80.92,34.88 -192.95,57.98 -308.32,9.04 106.92,-8.86 322.07,61.2 433.89,-182.87 -109.74,-24.48 -199.11,-34.97 -277.33,-117.88 62.36,10.7 123.71,70.87 240.25,78.57 160.5,10.59 291.83,-56.97 364.89,-201.39 51.68,-102.12 42.4,-160.15 25.2,-241.86 55.89,48.14 50.22,159.8 13.72,247.8 -37.05,89.3 -106.91,152.81 -171.34,183.75 -85.53,41.05 -60.59,99.87 -160.31,203.15 -193.33,200.24 -507.83,191.74 -698.92,-1.39 -189.52,-191.54 -118.22,-352.61 -129.68,-453.93 -180.9,-23.81 -258.87,-77.98 -333.26,-209.25 -62.27,-109.9 -44.96,-246.47 36.02,-399.29 -46.39,-95.77 -138.97,-177.54 -75.37,-394.61 34.37,-117.35 114.88,-202.42 211.33,-262.44l83.25 -30.06c1.91,-0.5 5.28,-1.48 6.85,-1.89 1.58,-0.42 4.64,-1.18 6.91,-1.94 70.65,-451.82 459.12,-683.57 838.82,-579.81 76.05,20.78 121.1,56.22 183.19,77.99 271.69,-229.76 624.42,-137 725.03,81.55 22.64,49.18 13.83,69.34 28.12,110.69 117.7,-46.8 209.5,-83.67 347.66,-43.1 260.45,76.45 372.54,363.99 274.23,607.31 -26.53,65.68 -65.83,118.01 -113,158.85 -59.4,51.42 -89.93,48.59 -146.25,80.63 30.25,78.46 98.22,95.27 108.03,256.44 2.26,37.04 -10.2,80.45 -1.77,110.15z"/>
   <path class="fil2" d="M1593.36 3116.21l43.35 5.94c-70.42,-8.3 -79.63,28.66 -139.57,13.06 -5.17,27.14 0.31,24.26 -17.77,3.39 -23.41,22.79 7.31,23.25 -35.93,8 -28.75,25.62 8.18,12.97 -26.05,3.02l-30.9 20.76c-22.06,12.08 -5.5,1.52 -31.78,14.93l348.9 -8.87c27.91,-2.88 40.21,-5.19 71.39,-8.66 58.95,-6.58 100.96,-3.5 140.67,-18.92 -94.56,-117.17 -177.41,-65.8 -322.31,-32.65zm197.79 -74.58c-4.17,0.44 -14.92,0.34 -17.5,0.98 -29.88,7.28 -6.18,-3.47 -34.92,12.52 61.31,5.65 67.26,3.23 52.42,-13.5zm-467.12 127.36c6.47,14.51 8.75,12.28 12.89,30.83 8.69,38.95 5.03,9.76 1.84,35.47l-41.92 -79.77 12.76 43.16c0.9,2.42 2.58,5.79 3.48,8.24 0.9,2.43 2.52,5.79 3.37,8.24l19.46 87.14c22.18,-17.73 20.61,-24.35 19.44,-60.43l-8.91 -44.63c-1.11,-2.28 -3.22,-5.57 -4.49,-7.66 -2.7,-4.44 -14.24,-16.88 -17.92,-20.59zm-52.7 -28.58l-19.83 43.59 5.54 35.1 11.12 -47.16 24.96 58.19c0.05,-2.92 -1.37,-4.99 -0.17,-8.75 1.17,-3.7 -0.26,-6.94 -0.58,-8.57l-21.04 -72.4zm-17.71 74.19l-6.83 -13.8 6.83 13.8zm149.17 -76.73l-33.98 5.73c3.2,1.06 6.73,6.1 9.73,2.81 2.69,-2.94 7.46,0.89 9.07,0.37l15.18 -8.91zm61.7 -10.58l-34.26 6.91c37.55,10.73 13.25,11.2 34.26,-6.91zm105.83 -6.35l-58.77 4.32 58.77 -4.32zm80.15 -55.95l-70.01 17.18c-2.25,0.42 -6.76,0.93 -10.07,1.73 39.57,-1.53 51.53,7.18 80.08,-18.91zm62.11 -10.47c-32.82,-4.52 -15.59,-4.98 -36.3,10.25l29.57 -2.9c1.77,-0.99 4.61,-4.79 6.73,-7.35z"/>
   <path class="fil2" d="M2848.31 2705.49l27.5 -1.86c-44.61,2.17 -48.8,-21.46 -87.14,-14.26 -2.07,-17.29 1.25,-15.24 -11.02,-2.91 -13.72,-15.34 5.6,-14.29 -22.23,-6.59 -16.95,-17.34 5.7,-7.79 -16.24,-3.03l-18.51 -14.39c-13.34,-8.54 -3.39,-1.19 -19.32,-10.76l143.15 30.26c47.27,30.44 161.41,27.95 207.77,17.03 -64.52,69.52 -114.35,33.63 -203.96,6.51zm121.05 55.46c-2.6,-0.46 -9.36,-0.87 -10.96,-1.38 -18.46,-5.87 -4.03,1.91 -21.4,-9.38 38.78,-0.89 42.41,0.89 32.36,10.76zm-288 -100.34c4.7,-8.83 6.03,-7.33 9.44,-18.81 7.15,-24.1 3.58,-5.92 2.7,-22.21l-29.82 48.3 9.9 -26.56c0.67,-1.48 1.87,-3.53 2.55,-5.03 0.67,-1.48 1.83,-3.53 2.47,-5.03l16.01 -53.91c13.17,12.1 11.9,16.2 9.6,38.82l-7.54 27.65c-0.8,1.39 -2.27,3.37 -3.16,4.62 -1.89,2.68 -9.68,9.99 -12.15,12.16zm-34.36 15.67l-10.57 -28.25 5.01 -21.82 4.94 30.12 18.21 -35.48c-0.09,1.84 -1.08,3.07 -0.49,5.49 0.58,2.37 -0.46,4.35 -0.73,5.36l-16.37 44.58zm-7.91 -47.39l-4.89 8.38 4.89 -8.38zm90.41 54.7l-21.11 -5.07c2.06,-0.53 4.5,-3.55 6.24,-1.35 1.56,1.97 4.72,-0.23 5.72,0.16l9.15 6.26zm38.31 9.33l-21.23 -5.83c24.06,-5.11 8.81,-6.46 21.23,5.83zm66.22 8.59l-36.73 -5.27 36.73 5.27zm47.94 38.64l-43.25 -13.83c-1.39,-0.37 -4.2,-0.88 -6.25,-1.53 24.8,2.68 32.69,-2.27 49.5,15.36zm38.58 9.28c-20.83,1.42 -10.01,2.46 -22.37,-8.01l18.46 3.1c1.07,0.7 2.68,3.21 3.91,4.91z"/>
   <path class="fil2" d="M3244.64 3136.12l-37.22 -22.25 -45.51 74.63 22.87 38.17c32.38,-41.13 36.53,-36.58 59.86,-90.55z"/>
   <path class="fil2" d="M3162.83 3102.29c-16.51,43.06 -41.12,41.21 -11.58,71.27 25.69,-13.09 31.27,-42.04 35.23,-65.76l-23.65 -5.51z"/>
   <path class="fil1" d="M2577.2 3002.08c254.68,118.74 -200.26,-93.4 0,0z"/>
   <path class="fil3" d="M3058.42 2578.26c-57.9,-50.37 -172.27,-42.13 -237.99,-26.32l-17.99 -5.43 -19.26 9.04 -48.47 32.65 23.32 27.65 104.45 34.4c-30.3,9.02 5.56,7.54 -43.07,4.92 -23.15,-1.24 -20.93,-4.43 -39.7,-9.3 -25.09,-22.09 -70.64,-15.09 -64.6,-81.47 51.12,-59.57 121.59,-49.47 186.72,-48.8 75.83,0.78 128.17,-18.24 198.09,60.4l-41.5 2.26z"/>
   <path class="fil3" d="M2781.8 2610.76c57.9,50.37 172.26,42.13 237.99,26.32l17.98 5.43 19.27 -9.04 48.47 -32.65 -23.33 -27.65 -104.44 -34.4c30.3,-9.02 -5.56,-7.54 43.06,-4.93 23.16,1.25 20.93,4.44 39.7,9.31 25.1,22.08 70.65,15.09 64.6,81.47 -51.12,59.57 -121.58,49.47 -186.71,48.8 -75.83,-0.78 -128.18,18.24 -198.09,-60.41l41.5 -2.25z"/>
   <path class="fil1" d="M1521.17 3028.17l-2.46 -6.3c-11.35,7.87 -24.34,18.21 -35.6,30.36 -24.59,-31.27 14.85,-16.22 -143.08,12.69 -185.67,33.98 -59.78,8.9 -148.01,4.17 -53.58,67.56 -30.81,107.12 -20.71,168.44 8.68,52.66 10.5,110.97 65.82,143.8 23.14,7.01 227.43,-83.59 317.25,-65.46 37.83,-11.74 46.2,-23.93 81.81,-8.83l24.41 -8.39 28.85 -7.1c2,0.34 5.94,2.98 8.79,4.68l24.45 -9.28c55.93,-25.74 62.35,-25.44 53.93,-4.72l546.82 -111.35 2.74 3.3c6.98,-6.52 94.3,-30.72 103.2,-32.08 40.27,3.5 62.28,13.09 73.81,26.25l18.87 -20.85c-0.38,-1.47 -0.8,-2.97 -1.25,-4.5 -23.96,-30.91 -50.98,-33.26 -81.33,-29.14 -90.98,12.35 -46.08,30.39 -74.82,4.35 -12.84,14.74 -3.14,13.42 -22.6,17.9 -6.85,1.57 -12.41,2.14 -18,4.17l-0.05 9.35 -99.42 28.87 1.96 -11.83 -387.37 63.71c-169.67,-1.63 -39.94,63.8 -273.9,47.38l-23.3 3.21 -56.85 15.49c-14.05,13.69 -8.13,13.76 -16.9,-4.58 -13.1,24.55 -7.16,28.52 -17.88,2.71l-10.28 15.62 -34.6 4.89c-29.26,23.62 -2.38,-34.28 -27.1,5.67l-33.94 5.92c-43.71,15.99 -6.86,11.05 -50.68,-9.04 1.27,-15.83 4.16,-14.49 1.89,-33.36 -4.78,-39.62 1.49,-10.88 -10.08,-34.06l-12.97 89.17 -19.02 22.75 -33.22 -34.5 -10.02 -14.28 1.84 -15.28c-22.07,-50.82 -44.91,-141.96 -12.45,-195.83 169.88,-4.55 37.13,5.32 187.3,-22.73l33.93 -5.01 28.08 -5.82 35.98 -11.91c10.74,10.92 4.06,9.68 6.6,22.04 13.73,-12.85 26.49,-13.61 41.9,-17.48 15.69,-3.95 26.62,-6.62 42.29,-9.9 55.12,-11.55 13.26,-0.94 38.62,-2.08 1.53,-0.07 34.68,-11.03 39.78,-12.61l316.78 -53.71c40.85,-4.29 23.15,-6.16 49.87,-5.74 9.82,0.16 11.46,0.9 21.7,2.11 18.64,-15.5 2.63,-8.41 30.1,-15.6 33.52,-8.77 67.43,-20.47 103.81,-29.65 37.7,-9.5 62.75,-8.65 90.24,-10.51l0.79 -4.84 17.52 3.12 0.45 -0.06 3.62 -17.23c-25.57,-3.12 -59.76,-12.8 -71.19,-8.76 -14.43,5.08 -27.23,9.55 -38.24,13.33l-91.81 12.42c-23.63,2.88 -10.69,0.59 -31.17,6.89 -39.59,12.18 -73.37,16.31 -118.92,24.91 -55.09,10.39 -315.45,61.2 -359.35,64.28 -41.51,-1.49 -20.47,1.92 -57.23,10.45z"/>
   <path class="fil1" d="M2305.86 2925.64c38.15,-120.97 97.42,84.19 154.58,-102.44 8.42,-24.03 12.25,-44.59 20.72,-69.68 45.85,-135.82 174.5,-225.84 282.36,-258.77 140.97,-43.04 293.97,-4.83 408.24,97.89 57.63,35.48 78.17,71.32 104.21,120.14 106.84,228.64 12.36,594.57 -275.59,602.68 -39.33,31.33 59.2,34.17 52.98,30.73 64.66,-23 120.61,-61.44 165.83,-109.7l10.64 -11.75c67.52,-77.3 108.79,-177.21 116.2,-278.82 7.06,-96.85 -18.82,-207.56 -86.11,-299.42 -95.25,-130.01 -158.27,-132.32 -278.1,-179.24 -7,-2.74 -10.94,-5.16 -17.46,-7.09l-40.9 -5.2c-9.09,2.33 -14.56,2.46 -23.11,8.38 -30.97,-37.89 -174.65,30.84 -327.79,123.13 -32.06,26.14 -142.54,231.63 -158.28,273.94 -15.54,41.74 -102.29,-15.42 -121.67,33.2 -2.97,7.46 -5.25,17.22 -7.17,28.39l20.42 3.63z"/>
   <path class="fil1" d="M3013.81 3217.1c-34.48,47.06 -37.24,51.96 -98.59,69 -99.64,27.69 -164.36,-34.17 -229.19,-90.85 -10.94,-9.57 -68.74,-77.01 -73.21,-91.2 14.53,7.75 124.56,99.64 174.14,126.39 75.9,40.96 115.43,6 172.74,-2.92 21.63,-3.37 35.38,-4.88 54.11,-10.42z"/>
   <path class="fil1" d="M2891.28 2725.79c-10.69,92.13 -85.87,49.19 -143.32,22.03 -70,-33.09 -114.01,-36.65 -192.5,-25.4 29.05,-61.59 132.76,-34.89 178.98,-14.07 86.26,38.87 114.26,85.36 150.31,27.39l6.53 -9.95z"/>
   <path class="fil1" d="M2699.99 3018.74c-15.56,-29.12 -28.51,-54.28 -29.48,-92.88 -0.81,-32.37 -7.85,-98.47 25.54,-99.47 48.83,-1.46 48.58,132.43 3.94,192.35z"/>
   <path class="fil1" d="M3038.39 3045.85c-8.95,-34.15 -23.79,-36.34 -22.08,-83.49 1.07,-29.73 8.55,-85.18 39.15,-79.57 25.35,4.65 21.48,61.38 22.04,88.09 1.01,48.72 -15.65,54.71 -39.11,74.97z"/>
   <path class="fil1" d="M2982.98 2722.57c79.61,42.51 134.86,-16.57 181.33,-67.25 37.92,-41.36 76.69,-40.62 2.6,49.24 -77.91,94.5 -165.97,52.09 -183.93,18.01z"/>
   <g>
    <path class="fil1" d="M2511.03 3171.52c16.9,82.6 152.52,196 229.13,210.68 57.86,11.09 187.6,0.59 249.35,-21.22 9.11,-4.15 13.13,-14.89 8.98,-24 -4.15,-9.12 -14.89,-13.14 -24,-8.99 -170.38,60.56 -349.74,11.89 -427.07,-157.66l-0.15 0.31c-0.24,-10 -8.55,-17.92 -18.55,-17.68 -10.01,0.24 -17.93,8.55 -17.69,18.56z"/>
   </g>
   <path class="fil0" d="M2529.15 3171.08c0.56,23.21 98.2,135.25 118.73,148.98 40.66,27.19 54.03,26.92 99.14,45.37 22.86,9.34 176.11,-4.83 196.12,-9.71 15.6,-3.8 22.62,-3.85 38.86,-11.23"/>
   <path class="fil3" d="M1244.25 3270.29l-4.16 63.18 -26.2 -40.77c8.95,-51.94 -7.21,-27.93 -14.63,-83.56l2.56 -83.41c38.07,42.74 33.22,96.57 42.43,144.56z"/>
  </g>
 </g>
</svg>
