<?xml version="1.0" encoding="UTF-8"?>
<!DOCTYPE svg PUBLIC "-//W3C//DTD SVG 1.1//EN" "http://www.w3.org/Graphics/SVG/1.1/DTD/svg11.dtd">
<!-- Creator: CorelDRAW 2017 -->
<svg xmlns="http://www.w3.org/2000/svg" xml:space="preserve" width="110mm" height="110mm" version="1.1" style="shape-rendering:geometricPrecision; text-rendering:geometricPrecision; image-rendering:optimizeQuality; fill-rule:evenodd; clip-rule:evenodd"
viewBox="0 0 11000 11000"
 xmlns:xlink="http://www.w3.org/1999/xlink">
 <defs>
  <style type="text/css">
   <![CDATA[
    .str0 {stroke:#848688;stroke-width:400;stroke-miterlimit:22.9256}
    .str1 {stroke:#E6E7E8;stroke-width:7.62;stroke-miterlimit:22.9256}
    .fil0 {fill:none}
    .fil2 {fill:#FEFEFE}
    .fil1 {fill:#373435}
   ]]>
  </style>
 </defs>
 <g id="Capa_x0020_1">
  <metadata id="CorelCorpID_0Corel-Layer"/>
  <rect class="fil0" width="11000" height="11000"/>
  <g id="_2685605886800">
   <circle class="fil0 str0" cx="5464.25" cy="5898.17" r="3308.85"/>
   <path class="fil1" d="M4272.91 7602.45c404.54,-28.29 844.72,-22.58 1253.05,-20.36 421.23,2.3 856.96,-4.61 1273.87,21.97 -5.34,-204.72 3.54,-365.86 50.11,-546.28 -89.99,24.45 -146.33,61.14 -257.54,67.79 -94.53,5.67 -223.23,-57.45 -264.76,-51.2 666.07,-87.38 474.2,-96.64 722.32,-374.38 40.57,-45.41 91.43,-72.55 136.5,-124.16 134.01,-153.46 226.39,-339.5 262.79,-561.78 -83.64,125.83 -206.56,243.26 -359.47,262.83 113.08,-144.19 119.63,-102.99 362.2,-425.59 197.58,-262.75 169.2,-489.05 264.83,-539.09 364.69,-61.11 487.03,75 828.51,-168.9 278.37,-198.82 246.07,-278.96 369.55,-639.78 67.72,88.85 42.1,144.06 17.23,259.18 331.08,-63.04 904.86,-383.96 938.46,-744.65 8.29,-88.99 -229.35,-466.91 -284.32,-526.63 -354.62,-385.22 -486.83,-364.75 -781.26,-680.39l-543.78 -500.61c-152.35,-94.22 -509.98,-142.07 -725.77,-110.18 -222.76,32.91 -330.49,364.93 -231.67,543.3 130.96,-25.98 92.77,-111.32 143.53,-248.59l-5.3 275.45c161.46,8.32 83.94,28.58 157.8,-172.19 2.41,-6.54 7.23,-15.6 9.35,-20.87 2.14,-5.34 5.94,-14.32 10.13,-20.8l7.99 243.91c156.5,-26.32 108.07,-135.2 161.7,-260.46l17.78 250.3c183.53,-42.46 115.22,-117 105.48,-296.15 75.09,48.72 171.04,102.81 186.91,183.97 7.23,36.97 -2.1,55.71 -7.27,88.99 171.39,26.96 215.49,84.04 304.03,166.21l65.91 -98.5c63.76,357.67 -81.83,385.18 159.91,705.57 154.17,204.31 288.65,212.06 531.43,352.6 -184.53,-19.66 -249.92,-85.56 -444.31,-19.35 40.14,87.07 0.47,8.38 45.67,56.46l71.19 74.46c-357.07,-125.09 -581.19,-320.73 -1127.56,31.37 -119.38,76.93 -170.85,182.09 -306.21,165.36 -494.78,-61.13 -398.15,-64.7 -844.2,66.25 -231.46,67.96 -462.66,246.81 -682.04,311.02 637.07,-800.91 -1633.98,-835.22 -637.24,13.88 -179.64,-48.96 -746.97,-408.41 -1084.57,-435.8 -410.26,-33.29 -436.28,158.09 -630.69,-19.44 -137.54,-125.58 -326.74,-225.58 -510.81,-271.61 -335.31,-83.87 -576.77,58.81 -805.73,179.32 28.78,-18.19 153.05,-139.91 165.9,-163.83 -145.23,-77.04 -284.22,-11.53 -439.82,14.8 212.97,-141.51 355.74,-134.4 518.97,-343.24 203.61,-260.51 143.43,-345.15 159.46,-710.23 44.89,41.71 45.02,70.93 106.37,90.83 55.33,-93.24 168.63,-153.52 315.52,-170.4 -10.57,-152.62 28.01,-93.99 -48.85,-133.56 70.49,-30.87 17.19,-2.74 81.65,-50.29l107.18 -76.76c-13.58,152.84 -60.47,234.62 66.99,282.57 74.14,-65.16 40.23,-63.45 57.92,-247.41 55.21,121.48 -0.39,237.66 149.61,260.86l24.39 -235.22c1.65,5.99 5.52,8.91 6.78,20 1.48,13.04 13.57,34.3 15.77,41.83 52.64,180.31 7.07,151.73 139.77,147.03l-3.15 -273.9c53.25,132.42 25.13,201.43 130.71,246.51 134.46,-131.94 10.21,-499.89 -185.79,-539.99 -188.83,-38.65 -584.61,10.14 -735.32,93.99 -169.97,94.57 -520.34,521.58 -880.38,789.35 -197.41,146.81 -526.14,412.1 -618.78,633.91 -69.82,167.14 -316.3,378.18 207.79,770.27 140.9,105.42 408.88,228.89 602.78,273.23 -16.94,-122.81 -50.74,-168.3 20.46,-265.14 90.02,357.98 115.61,456.78 351.39,635.91 320.73,243.66 488.42,115.97 845.73,177.46 42.8,22.89 150.47,350.4 243.79,532.09 75.2,146.41 216.91,264.81 330.35,375.21 57.99,56.43 12.11,-6.09 50.21,62.3 -91.19,-16.2 -158.32,-54.23 -212.83,-108.54 -56.65,-56.43 -44.13,-83.58 -102.67,-134.02 -41.09,-35.42 -2.53,-6.18 -59.36,-39.42 43.45,365.61 196.81,458.85 404.35,688.32 192.66,213 94.35,330.59 719.59,382.61 -266.25,80.38 -248.33,62.29 -506.6,-15.74 36.72,207.42 57.44,313.1 46.39,546.16z"/>
   <path class="fil1 str1" d="M4272.91 7602.45c-314.74,2.08 -1031.71,23.21 -1313.73,90.5 -151.54,-16.05 -604.34,51.07 -759.86,94.33 -124.85,-18.8 -333.41,25.08 -453.99,76.51l-13.73 558.23c-346.82,82.67 -1221.3,157.79 -1472.66,302.75 172.87,195.64 694.34,554.36 820.67,704.44l-284.04 898.75c597.07,-111.16 1102.44,-225.19 1728.33,-292.29 -14.32,-163.99 -97.69,-418.83 -71.24,-568.66 592.34,-72.72 1152.56,-131.32 1755.57,-158.06 430.12,-19.08 679.23,-22.44 1061.86,323.03 47.92,43.27 78.35,71.41 118.37,118.45 58.68,68.94 57.43,92.51 111.4,151.39 141.19,-160.21 158.86,-275.3 489.39,-453.54 339.34,-183 386.48,-161.09 816.28,-139.16 604.7,30.85 1160.94,104.75 1747.95,152.9l-80.31 570.71c614.59,46.71 1146.83,188.01 1725.17,292.49l-278.08 -890.26c75.49,-112.55 278.09,-251.67 397.8,-352.57 148.19,-124.9 276.01,-224.36 423.01,-357.62 -200.32,-140.16 -1143.73,-237.65 -1466.01,-304.34l-10.83 -556.69 -501.45 -100.99 -888.31 -97.03 -1074.64 -61.66c-416.91,-26.58 -852.64,-19.67 -1273.87,-21.97 -408.33,-2.22 -848.51,-7.93 -1253.05,20.36z"/>
   <path class="fil2" d="M5885.52 8098.61c-6.79,147.58 -13.11,295.13 -16.43,442.66 -7.26,321.18 -25.19,214.96 -78.94,293.06 -31.64,46 -21.78,-3.08 -19.34,88.35l319.99 11.31c-1.07,-168.4 23.79,-65.52 -88.08,-130.95l19.46 -579.37c63.68,99.05 94.63,239.03 139.04,361.15l101.16 291.6c34.01,62.14 10.98,44.13 72.38,71.08 54.24,-27.21 38.84,-16.1 71.9,-71.81 2.75,-4.65 32.62,-80.26 38.27,-93.97l243.08 -546c20.82,900.89 -103.1,437.39 -109.25,714.42l321.82 13.59c1.15,-177.8 23.14,-63.34 -88.67,-134.59l24.1 -704.43c120.46,-76.82 77.1,49.39 98.88,-104.38 -70.03,-54.83 -199.65,-39.75 -288.87,-38.24l-299.47 708.56c-110.95,-177.32 -181.41,-598.71 -289.72,-732.15l-254.18 -6.72c-5.37,131.42 17.3,82.74 82.87,146.83z"/>
   <path class="fil2" d="M4556.8 8017.37c-229.93,-163.78 -767.39,-13.63 -699.61,522.85 51.31,406.12 568.4,559.78 807.78,300.03 50.2,101.33 -22.66,90.16 139.64,92.34l-15.31 -522.51 -452.26 8.37 2.18 109.81 319.01 10.04c-56.98,429.2 -618.57,367.83 -664.57,-27.95 -49.44,-425.37 364.12,-472.17 519.44,-389.26 163.94,87.51 -15.7,128.71 208.21,129.19l-3.42 -303.43c-171.64,8.78 -84.48,22.5 -161.09,70.52z"/>
   <path class="fil2" d="M4876.14 7968.15c-0.57,172.23 -2.34,14.88 136.26,200.69 192.44,257.97 204.35,251.59 202.32,479.14 -2.75,306.52 -70.83,50.49 -74.14,278.5l224.79 -1.15c7.5,-1.28 15.07,-3.56 21.58,-4.96 6.25,-1.35 15.44,-4.93 20.37,-6.18 4.82,-1.22 13.46,-3.74 19.72,-6.78 -16.33,-230.33 -75.09,53.7 -76.67,-259.65 -1.38,-271.82 25.6,-219.27 199.1,-473.41 86.05,-126.06 134.13,-81.02 135.46,-206.2 -67.56,-28.96 -224.68,-27.81 -293.91,0 -0.65,104.76 44.15,93.19 51.36,153.95 -55.64,66.29 -105.59,146.46 -170.98,205.2 -26.41,-36.97 -118.29,-162.28 -131.05,-186.16 -79.37,-148.47 48.16,15.57 31.72,-183.99 -92.01,-9.56 -225.16,-18.5 -295.93,11z"/>
   <path class="fil1" d="M5047.81 6062.7c134.58,-38.27 61.68,-20.24 132.75,-69.88 204.32,-142.72 133.5,-11.77 162.63,18.43 -94.3,60.95 -146.65,71.25 -274.71,130.59l2.69 157.66c128.71,5.41 79.23,-74.85 141.7,-147.95l334.79 -9.51c16.52,-130.29 19.25,-244.43 -76.93,-298.92l-22.49 -8.46c-0.12,-0.06 -100.9,-151.07 -300.87,-18.49 -82.87,54.94 -87.67,115.11 -99.56,246.53z"/>
   <path class="fil1" d="M6114.43 4734.56c215.08,-569.19 221.8,-1593.12 159.89,-2170.42 -17.01,-158.67 -34.48,-293 -53.41,-445.35 -18.3,-147.3 -44.3,-296.43 -73.15,-445.83 -27.96,-144.75 -81.32,-292.69 -97.25,-447.22 -33.07,-320.75 -342.13,-680.43 -665.67,-509.78 -333.67,176.01 -569.77,1018.27 -579.84,1258.98 -2.46,58.89 -21.97,160.1 58.16,221.78 80.42,61.9 73.67,-40.65 106.94,181.56 39.82,265.9 46.47,635.47 19.3,886.8 -8.55,79.08 -10.63,122.08 -16.67,208.69 -28.62,410.38 -183.46,1177.6 -289.82,1526.7 -89.19,292.74 -196.59,557.62 -337.61,859.32 -139.06,297.51 -244.06,585.49 39.78,887.52 242.4,257.92 608.57,286.22 864.24,209.28 349.5,-105.19 603.65,-346.09 721.59,-677.23 52.81,-148.28 146.02,-38.67 392.17,-297.38 146.02,-153.49 185.8,-275.87 214.89,-432.18 20.18,-108.38 3.06,-302.85 -69.38,-446.16 -106.55,-210.81 -224.97,-264.73 -394.16,-369.08z"/>
  </g>
 </g>
</svg>
