<?xml version="1.0" encoding="UTF-8"?>
<!DOCTYPE svg PUBLIC "-//W3C//DTD SVG 1.1//EN" "http://www.w3.org/Graphics/SVG/1.1/DTD/svg11.dtd">
<!-- Creator: CorelDRAW 2017 -->
<svg xmlns="http://www.w3.org/2000/svg" xml:space="preserve" width="50.7998mm" height="33.8666mm" version="1.1" style="shape-rendering:geometricPrecision; text-rendering:geometricPrecision; image-rendering:optimizeQuality; fill-rule:evenodd; clip-rule:evenodd"
viewBox="0 0 5079.98 3386.66"
 xmlns:xlink="http://www.w3.org/1999/xlink">
 <defs>
  <style type="text/css">
   <![CDATA[
    .fil0 {fill:none}
    .fil3 {fill:#0C3879}
    .fil6 {fill:#1D1C1B}
    .fil10 {fill:#4E2830}
    .fil20 {fill:#686E57}
    .fil18 {fill:#833C1D}
    .fil5 {fill:#8FCDDC}
    .fil2 {fill:#BAE1E8}
    .fil19 {fill:#C69857}
    .fil9 {fill:#CBA599}
    .fil8 {fill:#D75D57}
    .fil14 {fill:#D93E1B}
    .fil13 {fill:#E2DCDB}
    .fil7 {fill:#EC8B72}
    .fil12 {fill:#F5C947}
    .fil17 {fill:#FB6E3B}
    .fil11 {fill:#FCBAB9}
    .fil16 {fill:#FFE98C}
    .fil15 {fill:#FFFDFD}
    .fil4 {fill:white}
    .fil1 {fill:#373435;fill-rule:nonzero}
   ]]>
  </style>
 </defs>
 <g id="Capa_x0020_1">
  <metadata id="CorelCorpID_0Corel-Layer"/>
  <rect class="fil0" x="-0" width="5079.99" height="3386.66"/>
  <g id="_2260260661360">
   <path class="fil1" d="M2931.5 354.51l-84.93 0 0 -157.25 84.93 0 0 27.65 -54.4 0 0 35.83 54.4 0 0 27.2 -54.4 0 0 38.92 54.4 0 0 27.65zm80.28 -94.66c-10.69,0.85 -18.17,3.69 -22.41,8.4 -4.24,4.76 -6.34,13.35 -6.34,25.7l0 60.56 -27.65 0 0 -118.77 25.92 0 0 13.72c4.16,-5.35 8.73,-9.26 13.67,-11.76 4.98,-2.47 10.58,-3.73 16.81,-3.73l0 25.88zm98.16 22.12c-2.36,-7.93 -6.34,-13.97 -11.91,-18.1 -5.56,-4.17 -12.6,-6.23 -21.08,-6.23 -7.34,0 -13.93,2.25 -19.76,6.71 -5.82,4.46 -9.73,10.32 -11.76,17.62l64.51 0zm-65.47 21.89c0.92,8.55 4.35,15.34 10.21,20.24 5.83,4.94 13.42,7.41 22.67,7.41 6.19,0 11.76,-1.29 16.7,-3.91 4.9,-2.58 8.81,-6.23 11.68,-10.91l29.86 0c-5.05,12.94 -12.57,23 -22.63,30.19 -10.03,7.15 -21.64,10.72 -34.83,10.72 -8.85,0 -17,-1.54 -24.44,-4.68 -7.45,-3.13 -14.12,-7.77 -20.05,-13.89 -5.6,-5.83 -9.96,-12.57 -13.05,-20.24 -3.1,-7.63 -4.65,-15.52 -4.65,-23.55 0,-8.3 1.44,-16.07 4.28,-23.37 2.84,-7.3 7.04,-13.86 12.57,-19.69 6.04,-6.41 12.9,-11.35 20.53,-14.78 7.63,-3.46 15.48,-5.19 23.63,-5.19 10.28,0 19.9,2.32 28.82,7 8.92,4.68 16.51,11.28 22.78,19.76 3.83,5.12 6.63,10.83 8.48,17.17 1.84,6.31 2.76,13.57 2.76,21.79 0,0.62 -0.03,1.62 -0.11,2.95 -0.07,1.36 -0.11,2.32 -0.11,2.98l-95.1 0zm130.49 11.28l0 1.62c0,5.24 1.32,9.47 3.98,12.72 2.69,3.28 6.15,4.9 10.39,4.9 4.02,0 7.34,-1.21 9.88,-3.65 2.54,-2.47 3.83,-5.56 3.83,-9.36 0,-3.54 -0.92,-6.41 -2.8,-8.7 -1.88,-2.25 -5.19,-4.53 -10.02,-6.82 -2.73,-1.21 -6.75,-2.91 -12.09,-5.08 -5.31,-2.18 -8.74,-3.88 -10.25,-5.09 -4.39,-3.61 -7.63,-7.63 -9.69,-12.05 -2.11,-4.43 -3.14,-9.51 -3.14,-15.19 0,-10.03 3.5,-18.5 10.51,-25.4 7.04,-6.93 15.52,-10.39 25.54,-10.39 10.58,0 18.91,3.06 25.07,9.18 6.15,6.15 9.51,14.74 10.1,25.76l-24.77 0 0 -0.66c0,-3.8 -1,-6.78 -2.99,-8.92 -1.99,-2.18 -4.75,-3.24 -8.29,-3.24 -3.1,0 -5.68,1.06 -7.74,3.16 -2.07,2.14 -3.1,4.8 -3.1,7.97 0,5.16 5.34,9.98 16.04,14.45 2.8,1.14 4.97,2.06 6.48,2.69 10.25,4.6 17.21,9.54 20.97,14.85 3.73,5.27 5.61,12.42 5.61,21.42 0,11.05 -3.76,20.23 -11.25,27.46 -7.48,7.22 -16.91,10.83 -28.27,10.83 -11.46,0 -20.67,-3.79 -27.71,-11.42 -7.01,-7.63 -10.84,-17.92 -11.51,-30.93l25.22 -0.11zm163.58 -79.4l0 13.46c4.02,-5.38 8.66,-9.4 13.86,-11.98 5.24,-2.62 11.17,-3.91 17.88,-3.91 9.58,0 17.76,1.7 24.55,5.09 6.82,3.39 12.68,8.66 17.54,15.85 4.68,-7.04 9.95,-12.31 15.78,-15.74 5.82,-3.47 12.27,-5.2 19.31,-5.2 14.52,0 25.69,4.57 33.47,13.72 7.78,9.14 11.65,22.26 11.65,39.29l0 68.19 -27.2 0 0 -52.64c0,-16.1 -1.77,-27.09 -5.35,-32.88 -3.57,-5.78 -9.73,-8.7 -18.5,-8.7 -9.14,0 -15.67,3.25 -19.57,9.77 -3.95,6.52 -5.9,17.69 -5.9,33.55l0 50.9 -27.43 0 0 -52.64c0,-16.03 -1.8,-26.98 -5.45,-32.84 -3.65,-5.82 -9.99,-8.74 -19.06,-8.74 -9.21,0 -15.85,3.25 -19.86,9.77 -4.02,6.52 -6.05,17.69 -6.05,33.55l0 50.9 -26.76 0 0 -118.77 27.09 0zm199.19 58.35c0,9.99 3.32,18.36 9.99,25.11 6.64,6.74 14.74,10.09 24.33,10.09 8.7,0 16.33,-3.39 22.96,-10.13 6.6,-6.78 9.92,-14.71 9.92,-23.78 0,-9.65 -3.32,-17.95 -9.99,-24.88 -6.64,-6.96 -14.41,-10.43 -23.34,-10.43 -9.36,0 -17.32,3.28 -23.95,9.88 -6.6,6.6 -9.92,14.63 -9.92,24.14zm70.33 60.42l0 -14.6c-3.32,5.9 -7.96,10.25 -13.97,13.05 -6.01,2.8 -13.68,4.2 -23.04,4.2 -17.54,0 -32.21,-6.01 -43.97,-17.99 -11.76,-11.98 -17.66,-26.87 -17.66,-44.63 0,-8.37 1.48,-16.3 4.43,-23.78 2.94,-7.48 7.15,-14.08 12.64,-19.76 5.9,-6.26 12.42,-10.87 19.61,-13.86 7.22,-2.98 15.29,-4.49 24.29,-4.49 8.62,0 16.07,1.44 22.3,4.31 6.23,2.91 11.24,7.26 15.04,13.09l0 -14.31 27.09 0 0 118.77 -26.76 0zm-48.43 -134.25l22.04 -37.59 23.96 0 -31.85 37.59 -14.15 0zm117.43 94.88l0 1.62c0,5.24 1.33,9.47 3.98,12.72 2.69,3.28 6.16,4.9 10.39,4.9 4.02,0 7.34,-1.21 9.88,-3.65 2.55,-2.47 3.84,-5.56 3.84,-9.36 0,-3.54 -0.92,-6.41 -2.81,-8.7 -1.87,-2.25 -5.19,-4.53 -10.02,-6.82 -2.73,-1.21 -6.75,-2.91 -12.09,-5.08 -5.31,-2.18 -8.74,-3.88 -10.25,-5.09 -4.38,-3.61 -7.63,-7.63 -9.69,-12.05 -2.1,-4.43 -3.13,-9.51 -3.13,-15.19 0,-10.03 3.5,-18.5 10.5,-25.4 7.04,-6.93 15.52,-10.39 25.54,-10.39 10.58,0 18.91,3.06 25.07,9.18 6.16,6.15 9.51,14.74 10.1,25.76l-24.77 0 0 -0.66c0,-3.8 -1,-6.78 -2.99,-8.92 -1.99,-2.18 -4.75,-3.24 -8.29,-3.24 -3.1,0 -5.68,1.06 -7.74,3.16 -2.06,2.14 -3.1,4.8 -3.1,7.97 0,5.16 5.35,9.98 16.04,14.45 2.8,1.14 4.97,2.06 6.48,2.69 10.25,4.6 17.22,9.54 20.98,14.85 3.72,5.27 5.6,12.42 5.6,21.42 0,11.05 -3.76,20.23 -11.24,27.46 -7.48,7.22 -16.92,10.83 -28.27,10.83 -11.47,0 -20.68,-3.79 -27.72,-11.42 -7,-7.63 -10.84,-17.92 -11.5,-30.93l25.21 -0.11zm227.54 -19.53c0,-10.14 -3.25,-18.62 -9.66,-25.4 -6.45,-6.75 -14.52,-10.14 -24.15,-10.14 -9.5,0 -17.61,3.47 -24.36,10.36 -6.75,6.93 -10.1,15.19 -10.1,24.73 0,10.03 3.39,18.36 10.14,25.03 6.78,6.67 15.33,9.99 25.62,9.99 9.06,0 16.73,-3.35 23.03,-10.06 6.31,-6.67 9.48,-14.86 9.48,-24.51zm1.17 -50.43l0 -47.92 27.21 0 0 157.25 -27.21 0 0 -9.73c-5.45,4.31 -11.2,7.52 -17.25,9.65 -6.04,2.1 -12.6,3.17 -19.64,3.17 -7.48,0 -14.53,-1.17 -21.16,-3.57 -6.63,-2.36 -12.57,-5.83 -17.8,-10.36 -7.19,-6.19 -12.72,-13.53 -16.55,-21.97 -3.87,-8.48 -5.79,-17.43 -5.79,-26.94 0,-8.78 1.77,-17.22 5.35,-25.29 3.53,-8.07 8.58,-15.04 15.03,-20.93 5.42,-5.13 11.62,-9 18.58,-11.69 6.97,-2.65 14.41,-3.98 22.34,-3.98 7.63,0 14.37,0.99 20.27,2.99 5.9,1.95 11.47,5.08 16.62,9.32zm137.12 36.79c-2.36,-7.93 -6.34,-13.97 -11.9,-18.1 -5.57,-4.17 -12.61,-6.23 -21.09,-6.23 -7.33,0 -13.93,2.25 -19.75,6.71 -5.83,4.46 -9.73,10.32 -11.76,17.62l64.5 0zm-65.46 21.89c0.92,8.55 4.35,15.34 10.21,20.24 5.82,4.94 13.42,7.41 22.67,7.41 6.19,0 11.76,-1.29 16.7,-3.91 4.9,-2.58 8.81,-6.23 11.68,-10.91l29.86 0c-5.05,12.94 -12.57,23 -22.63,30.19 -10.03,7.15 -21.64,10.72 -34.84,10.72 -8.84,0 -16.99,-1.54 -24.43,-4.68 -7.45,-3.13 -14.12,-7.77 -20.06,-13.89 -5.6,-5.83 -9.95,-12.57 -13.05,-20.24 -3.09,-7.63 -4.64,-15.52 -4.64,-23.55 0,-8.3 1.44,-16.07 4.28,-23.37 2.83,-7.3 7.04,-13.86 12.56,-19.69 6.05,-6.41 12.91,-11.35 20.54,-14.78 7.63,-3.46 15.48,-5.19 23.62,-5.19 10.29,0 19.91,2.32 28.83,7 8.92,4.68 16.51,11.28 22.78,19.76 3.83,5.12 6.63,10.83 8.47,17.17 1.85,6.31 2.77,13.57 2.77,21.79 0,0.62 -0.04,1.62 -0.11,2.95 -0.07,1.36 -0.11,2.32 -0.11,2.98l-95.1 0zm176.93 50.65l0 -157.25 26.98 0 0 157.25 -26.98 0zm72.94 -60.16c0,11.02 3.02,19.72 9.07,26.17 6.04,6.45 14.23,9.66 24.62,9.66 10.21,0 18.36,-3.28 24.44,-9.88 6.08,-6.56 9.1,-15.44 9.1,-26.58 0,-10.02 -3.17,-18.2 -9.54,-24.65 -6.38,-6.46 -14.38,-9.66 -24,-9.66 -9.95,0 -18.02,3.24 -24.29,9.77 -6.26,6.49 -9.4,14.89 -9.4,25.17zm-28.53 0.22c0,-8.33 1.55,-16.25 4.61,-23.77 3.06,-7.52 7.48,-14.19 13.3,-20.02 5.98,-5.97 12.72,-10.58 20.2,-13.78 7.49,-3.21 15.27,-4.79 23.34,-4.79 8.55,0 16.47,1.43 23.7,4.27 7.22,2.84 13.89,7.08 19.94,12.79 6.19,5.97 10.95,12.83 14.34,20.64 3.39,7.82 5.08,15.82 5.08,24.04 0,9.06 -1.47,17.32 -4.42,24.8 -2.95,7.48 -7.37,14.23 -13.27,20.28 -5.93,6.12 -12.64,10.76 -20.2,13.89 -7.55,3.14 -15.77,4.68 -24.62,4.68 -8.92,0 -17.06,-1.58 -24.4,-4.75 -7.37,-3.17 -14.05,-7.93 -20.09,-14.23 -5.79,-6.19 -10.14,-13.01 -13.08,-20.46 -2.95,-7.44 -4.43,-15.29 -4.43,-23.59zm-1321.4 199.88c0,-9.65 -3.17,-17.8 -9.48,-24.47 -6.3,-6.68 -13.97,-9.99 -23.03,-9.99 -10.29,0 -18.84,3.31 -25.62,9.95 -6.75,6.6 -10.14,14.93 -10.14,24.96 0,9.61 3.36,17.91 10.1,24.84 6.75,6.89 14.86,10.35 24.37,10.35 9.62,0 17.69,-3.38 24.14,-10.2 6.41,-6.82 9.66,-15.3 9.66,-25.44zm1.18 50.43c-5.24,4.31 -10.84,7.52 -16.77,9.58 -5.94,2.03 -12.65,3.06 -20.13,3.06 -7.78,0 -15.19,-1.36 -22.19,-4.09 -7,-2.77 -13.23,-6.71 -18.73,-11.91 -6.44,-5.9 -11.5,-12.86 -15.03,-20.93 -3.58,-8.08 -5.35,-16.48 -5.35,-25.29 0,-9.51 1.92,-18.47 5.79,-26.87 3.83,-8.44 9.36,-15.74 16.55,-21.93 5.23,-4.61 11.17,-8.08 17.8,-10.43 6.64,-2.32 13.68,-3.51 21.16,-3.51 6.97,0 13.49,1.07 19.54,3.21 6.04,2.14 11.83,5.38 17.36,9.81l0 -9.92 27.2 0 0 157.24 -27.2 0 0 -48.02zm127.38 9.54l0 -12.86c-4.01,5.38 -8.66,9.4 -13.86,12.02 -5.23,2.61 -11.2,3.94 -17.87,3.94 -14.89,0 -26.36,-4.57 -34.36,-13.71 -7.99,-9.14 -11.98,-22.27 -11.98,-39.41l0 -68.74 27.87 0 0 53.34c0,16.03 1.84,27.01 5.53,32.91 3.68,5.9 10.02,8.85 19.02,8.85 9.25,0 15.85,-3.32 19.87,-9.92 4.01,-6.63 6,-17.87 6,-33.69l0 -51.49 27.21 0 0 118.76 -27.43 0zm138.67 -72.54c-2.36,-7.92 -6.34,-13.97 -11.91,-18.09 -5.56,-4.17 -12.6,-6.23 -21.08,-6.23 -7.33,0 -13.93,2.24 -19.76,6.7 -5.82,4.46 -9.73,10.33 -11.75,17.62l64.5 0zm-65.46 21.9c0.92,8.55 4.35,15.33 10.21,20.23 5.82,4.94 13.42,7.41 22.67,7.41 6.19,0 11.76,-1.29 16.7,-3.9 4.9,-2.58 8.8,-6.23 11.68,-10.91l29.86 0c-5.06,12.93 -12.57,23 -22.64,30.18 -10.02,7.16 -21.63,10.73 -34.83,10.73 -8.85,0 -16.99,-1.55 -24.44,-4.68 -7.44,-3.13 -14.11,-7.78 -20.05,-13.9 -5.6,-5.82 -9.95,-12.57 -13.05,-20.23 -3.09,-7.63 -4.64,-15.52 -4.64,-23.56 0,-8.29 1.44,-16.07 4.28,-23.37 2.83,-7.29 7.04,-13.86 12.56,-19.68 6.05,-6.41 12.9,-11.35 20.53,-14.78 7.63,-3.47 15.49,-5.2 23.63,-5.2 10.28,0 19.91,2.33 28.82,7.01 8.93,4.68 16.52,11.27 22.79,19.75 3.83,5.13 6.63,10.84 8.47,17.18 1.85,6.3 2.77,13.57 2.77,21.78 0,0.63 -0.04,1.63 -0.11,2.95 -0.08,1.36 -0.11,2.32 -0.11,2.99l-95.1 0zm203.21 -9.33c0,10.14 3.28,18.62 9.84,25.44 6.56,6.82 14.67,10.2 24.29,10.2 9.51,0 17.62,-3.46 24.36,-10.35 6.75,-6.93 10.1,-15.23 10.1,-24.84 0,-10.03 -3.39,-18.36 -10.13,-24.96 -6.79,-6.64 -15.34,-9.95 -25.62,-9.95 -9.07,0 -16.81,3.31 -23.22,9.99 -6.42,6.67 -9.62,14.82 -9.62,24.47zm-1.07 50.43l0 48.02 -27.2 0 0 -157.24 27.2 0 0 9.92c5.52,-4.43 11.35,-7.67 17.39,-9.81 6.05,-2.14 12.57,-3.21 19.54,-3.21 7.48,0 14.56,1.19 21.2,3.51 6.59,2.35 12.56,5.82 17.8,10.43 7.15,6.19 12.64,13.49 16.47,21.93 3.87,8.4 5.79,17.36 5.79,26.87 0,8.88 -1.73,17.32 -5.23,25.4 -3.51,8.07 -8.44,15 -14.86,20.82 -5.49,5.2 -11.72,9.14 -18.76,11.91 -7,2.73 -14.41,4.09 -22.19,4.09 -7.56,0 -14.34,-1.03 -20.34,-3.06 -6.01,-2.06 -11.62,-5.27 -16.81,-9.58zm194.4 9.54l0 -12.86c-4.02,5.38 -8.67,9.4 -13.87,12.02 -5.23,2.61 -11.2,3.94 -17.87,3.94 -14.89,0 -26.36,-4.57 -34.35,-13.71 -8,-9.14 -11.99,-22.27 -11.99,-39.41l0 -68.74 27.87 0 0 53.34c0,16.03 1.84,27.01 5.53,32.91 3.69,5.9 10.03,8.85 19.02,8.85 9.25,0 15.85,-3.32 19.87,-9.92 4.02,-6.63 6,-17.87 6,-33.69l0 -51.49 27.21 0 0 118.76 -27.42 0zm138.66 -72.54c-2.36,-7.92 -6.34,-13.97 -11.9,-18.09 -5.57,-4.17 -12.61,-6.23 -21.09,-6.23 -7.33,0 -13.93,2.24 -19.75,6.7 -5.83,4.46 -9.73,10.33 -11.76,17.62l64.5 0zm-65.46 21.9c0.92,8.55 4.35,15.33 10.21,20.23 5.82,4.94 13.42,7.41 22.67,7.41 6.19,0 11.76,-1.29 16.7,-3.9 4.9,-2.58 8.8,-6.23 11.68,-10.91l29.86 0c-5.05,12.93 -12.57,23 -22.64,30.18 -10.02,7.16 -21.63,10.73 -34.83,10.73 -8.85,0 -16.99,-1.55 -24.43,-4.68 -7.45,-3.13 -14.12,-7.78 -20.06,-13.9 -5.6,-5.82 -9.95,-12.57 -13.05,-20.23 -3.09,-7.63 -4.64,-15.52 -4.64,-23.56 0,-8.29 1.44,-16.07 4.28,-23.37 2.83,-7.29 7.04,-13.86 12.56,-19.68 6.05,-6.41 12.91,-11.35 20.54,-14.78 7.62,-3.47 15.48,-5.2 23.62,-5.2 10.29,0 19.91,2.33 28.83,7.01 8.92,4.68 16.51,11.27 22.78,19.75 3.83,5.13 6.63,10.84 8.47,17.18 1.85,6.3 2.77,13.57 2.77,21.78 0,0.63 -0.04,1.63 -0.11,2.95 -0.08,1.36 -0.11,2.32 -0.11,2.99l-95.1 0zm203.61 -8.26c0,-10.14 -3.24,-18.61 -9.66,-25.39 -6.45,-6.75 -14.52,-10.14 -24.14,-10.14 -9.51,0 -17.62,3.46 -24.36,10.35 -6.75,6.93 -10.1,15.19 -10.1,24.74 0,10.03 3.39,18.36 10.14,25.03 6.78,6.67 15.33,9.98 25.61,9.98 9.07,0 16.74,-3.35 23.04,-10.06 6.3,-6.67 9.47,-14.85 9.47,-24.51zm1.18 -50.42l0 -47.92 27.2 0 0 157.24 -27.2 0 0 -9.73c-5.45,4.32 -11.2,7.52 -17.25,9.66 -6.04,2.1 -12.6,3.17 -19.64,3.17 -7.49,0 -14.53,-1.18 -21.16,-3.57 -6.64,-2.36 -12.57,-5.83 -17.81,-10.36 -7.18,-6.2 -12.71,-13.53 -16.55,-21.97 -3.87,-8.48 -5.78,-17.44 -5.78,-26.95 0,-8.77 1.76,-17.21 5.34,-25.28 3.54,-8.07 8.59,-15.04 15.04,-20.94 5.42,-5.12 11.61,-8.99 18.58,-11.68 6.97,-2.66 14.41,-3.98 22.34,-3.98 7.63,0 14.37,0.99 20.27,2.98 5.9,1.95 11.46,5.09 16.62,9.33zm137.12 36.78c-2.36,-7.92 -6.34,-13.97 -11.91,-18.09 -5.56,-4.17 -12.6,-6.23 -21.08,-6.23 -7.34,0 -13.93,2.24 -19.76,6.7 -5.82,4.46 -9.73,10.33 -11.76,17.62l64.51 0zm-65.47 21.9c0.93,8.55 4.36,15.33 10.22,20.23 5.82,4.94 13.41,7.41 22.66,7.41 6.2,0 11.76,-1.29 16.7,-3.9 4.9,-2.58 8.81,-6.23 11.69,-10.91l29.85 0c-5.05,12.93 -12.57,23 -22.63,30.18 -10.02,7.16 -21.64,10.73 -34.83,10.73 -8.85,0 -16.99,-1.55 -24.44,-4.68 -7.45,-3.13 -14.12,-7.78 -20.05,-13.9 -5.6,-5.82 -9.95,-12.57 -13.05,-20.23 -3.1,-7.63 -4.64,-15.52 -4.64,-23.56 0,-8.29 1.43,-16.07 4.27,-23.37 2.84,-7.29 7.04,-13.86 12.57,-19.68 6.05,-6.41 12.9,-11.35 20.53,-14.78 7.63,-3.47 15.48,-5.2 23.63,-5.2 10.28,0 19.9,2.33 28.82,7.01 8.92,4.68 16.52,11.27 22.78,19.75 3.84,5.13 6.64,10.84 8.48,17.18 1.84,6.3 2.77,13.57 2.77,21.78 0,0.63 -0.04,1.63 -0.11,2.95 -0.08,1.36 -0.11,2.32 -0.11,2.99l-95.11 0zm130.49 11.28l0 1.62c0,5.23 1.33,9.47 3.98,12.71 2.69,3.29 6.16,4.91 10.39,4.91 4.02,0 7.34,-1.22 9.88,-3.65 2.55,-2.47 3.84,-5.57 3.84,-9.36 0,-3.54 -0.92,-6.42 -2.81,-8.7 -1.87,-2.25 -5.19,-4.54 -10.02,-6.82 -2.73,-1.22 -6.75,-2.91 -12.09,-5.09 -5.31,-2.17 -8.74,-3.87 -10.25,-5.08 -4.38,-3.62 -7.63,-7.63 -9.69,-12.06 -2.1,-4.42 -3.13,-9.51 -3.13,-15.18 0,-10.03 3.5,-18.51 10.5,-25.4 7.04,-6.93 15.52,-10.4 25.54,-10.4 10.58,0 18.91,3.06 25.07,9.18 6.15,6.16 9.51,14.75 10.1,25.77l-24.77 0 0 -0.67c0,-3.79 -1,-6.78 -2.99,-8.92 -1.99,-2.17 -4.75,-3.24 -8.29,-3.24 -3.1,0 -5.68,1.07 -7.74,3.17 -2.07,2.14 -3.1,4.79 -3.1,7.96 0,5.16 5.35,9.99 16.04,14.45 2.8,1.14 4.97,2.07 6.48,2.69 10.25,4.61 17.22,9.55 20.98,14.86 3.72,5.27 5.6,12.42 5.6,21.41 0,11.06 -3.76,20.24 -11.24,27.46 -7.49,7.23 -16.92,10.84 -28.27,10.84 -11.47,0 -20.68,-3.8 -27.72,-11.43 -7.01,-7.63 -10.84,-17.91 -11.5,-30.92l25.21 -0.11zm188.02 39.36l-21.67 0 -45.12 -118.76 29.45 0 27.65 78.92 28.49 -78.92 28.75 0 -47.55 118.76zm142.83 -72.54c-2.35,-7.92 -6.34,-13.97 -11.9,-18.09 -5.57,-4.17 -12.61,-6.23 -21.08,-6.23 -7.34,0 -13.94,2.24 -19.76,6.7 -5.82,4.46 -9.73,10.33 -11.76,17.62l64.5 0zm-65.46 21.9c0.92,8.55 4.35,15.33 10.21,20.23 5.83,4.94 13.42,7.41 22.67,7.41 6.19,0 11.76,-1.29 16.7,-3.9 4.9,-2.58 8.81,-6.23 11.68,-10.91l29.86 0c-5.05,12.93 -12.57,23 -22.63,30.18 -10.03,7.16 -21.64,10.73 -34.84,10.73 -8.84,0 -16.99,-1.55 -24.43,-4.68 -7.45,-3.13 -14.12,-7.78 -20.06,-13.9 -5.6,-5.82 -9.95,-12.57 -13.04,-20.23 -3.1,-7.63 -4.65,-15.52 -4.65,-23.56 0,-8.29 1.44,-16.07 4.28,-23.37 2.84,-7.29 7.04,-13.86 12.57,-19.68 6.04,-6.41 12.9,-11.35 20.53,-14.78 7.63,-3.47 15.48,-5.2 23.63,-5.2 10.28,0 19.9,2.33 28.82,7.01 8.92,4.68 16.51,11.27 22.78,19.75 3.83,5.13 6.63,10.84 8.48,17.18 1.84,6.3 2.76,13.57 2.76,21.78 0,0.63 -0.03,1.63 -0.11,2.95 -0.07,1.36 -0.11,2.32 -0.11,2.99l-95.1 0zm167.86 -44.01c-10.69,0.85 -18.17,3.68 -22.41,8.4 -4.24,4.76 -6.34,13.34 -6.34,25.69l0 60.56 -27.65 0 0 -118.76 25.92 0 0 13.71c4.16,-5.34 8.73,-9.25 13.67,-11.75 4.98,-2.47 10.58,-3.73 16.81,-3.73l0 25.88z"/>
   <path class="fil2" d="M1197.11 2493.03c22.85,22.74 22.11,32.39 41.99,40.37 56.75,22.77 7.58,10.06 51.04,31.22 42.99,20.92 56.8,50.49 89.21,73.27 3.31,43.65 -10.99,87.65 16.44,92.02 19.32,3.08 34.82,-4.5 56.06,5.77 20.81,10.06 26.15,50.83 57.78,72.71 12.45,8.61 -4.24,-7.94 14.31,9.47 4.65,4.37 6.72,8.42 11.18,13.2l40.8 50.92c12.82,17.71 30.54,31.11 34.97,50.81 9.02,-147.6 -32.72,-119.81 -101.7,-296.57 -28.81,-73.84 -52.58,-152.58 -67.54,-232.99 -6.61,-35.5 4.93,-64.55 -10.64,-92.49 -1.33,68.65 -1.94,32.02 -18.17,80.58 -24.55,-20.56 -50.02,-42.39 -54.58,-77.36l-28.9 -8.92c14.64,-5.74 14.62,-1.2 23.75,7.85 6.59,-24.75 7.06,-13.42 38.39,-23.11 16.55,-5.12 24.57,-10.88 42.52,-16.34 -11.23,-43.02 0.17,-88.25 4.07,-130.26 -33.4,16.97 -55.03,47.19 -69.57,80.86l-16.27 36.08c-9.8,-14.34 -6.51,0.62 -13.13,-40.24 -2.22,-13.72 -4.16,-22.49 -6.53,-36.53 -4.09,-24.16 -10.26,-46.64 -9.11,-71.44 97.56,-14.14 140.25,-75.24 148.33,-171.74 -91.96,6.13 -124.92,58.5 -150.12,138.66 -3.78,-4.42 -0.65,10.2 -9.14,-15.02l-20.68 -131.44c9.78,-19.05 135.9,-12.18 137.9,-191.22 -101.25,9.16 -113.72,75.38 -147.25,158.56l-35.09 -156.69c81.29,-33.05 128.73,-65.98 114.8,-199.68 -36.22,-0.5 -73.82,34.26 -87.76,55.07 -8.01,11.97 -17.73,32.39 -22.99,50.8 -6.2,21.72 -4.46,32.33 -15.35,55.14 -3.78,-4.59 -9.17,-5.7 -12.72,-22.63 -1.87,-8.9 -0.79,-15.22 -0.67,-24.03 1.24,-92.54 -31.91,-195.47 -129.94,-228.35 5.16,94.53 39.39,147.2 87.73,210.47 15.4,20.16 33.99,25.56 39.42,59.73 -29.51,-13.67 -35.74,-34.23 -81.56,-43.9 -44.57,-9.39 -72.34,3.99 -105.45,17.42 8.51,19.39 -0.88,8.56 17.2,24.05 68.6,58.77 104.2,62.28 187.52,49.45l30.92 133.11c-17.19,-12.55 -22.31,-20.65 -35.48,-29.89 -32.7,-22.95 -54.61,-32.02 -95.06,-30.08 -6.69,0.32 -22.87,1.94 -28.28,3.3l-18.82 8.37c-0.92,-1.46 -3.17,2.2 -4.76,3.29 13.09,34.68 42.09,56.66 73.69,76.67 40.24,25.47 72.03,23.33 122.18,18.21l22 137.34c-48.44,-42.38 -62.04,-85.92 -179.49,-63.19 29,85.39 102.81,116.54 190.02,112.12l21.4 137.9c-84.7,-61.91 -48.71,-84.54 -194.58,-75.69 -10.56,0.64 -75.05,-24.67 -96.84,-30.3 -38.62,-9.99 -75.71,-17.75 -116.58,-20.74 12.28,32.02 34.06,29.17 67.43,94.38 31.38,61.33 6.49,77.5 20.89,133.09 62.29,34.77 168.21,-33.04 187.38,61.32 0.85,4.16 5.2,69.79 -6.57,77.26z"/>
   <path class="fil2" d="M1337.6 3019.9c-5.66,-35.67 36.13,-59.4 69.65,-70.55l1.63 15.41c-0.18,1.2 -3.94,7.22 -4.6,9.14 45.62,23.53 125.66,80.93 201.83,39.15l-29.21 -28.41c10.95,-7.96 0.19,-4.46 17.64,-5.41 0.51,-0.02 15.06,3.32 16.78,3.7 -11.83,-19.8 -69.7,-50.58 -97.94,-63.41 -18.56,-8.43 -36.01,-15.64 -56.04,-23.29 -27.86,-10.64 -42.39,-8.18 -56.64,-27.42 -31.65,8.09 -93.21,-9.74 -134,-11 -103.95,-3.24 -286.12,36.48 -335.95,94.78 13.38,23.34 53,60.89 97.28,59.81 46.15,-1.12 76.42,-49.17 119.56,-33.11 20,7.44 61.51,61.67 83.96,75.91 23.12,14.67 43.24,12.7 62.9,-1.53 26.3,-19.03 8.22,-26.06 43.15,-33.77z"/>
   <path class="fil3" d="M1713.93 2032.94l-2.06 -527.16 0.85 -30.97 0.19 -788.64c0,-88.35 -30.85,-202.47 80.04,-171.45l617.79 170.61c37.76,10.28 181.85,39.53 195.47,68.13 22.06,49.51 -3.89,1735.36 5.66,1966.18 -0.12,52.12 -16.83,48.48 -101.49,71.26 -46.12,12.41 -89.55,23.69 -134.38,36.75l-536.47 148.65c-31.02,9.08 -109.08,39.73 -124.65,-7.45 -5.93,-17.97 -3.27,-150.54 -2.26,-178.02l-1.96 -477.77c-3.3,-26.42 -5.01,-257.63 3.27,-280.12zm-93.11 -30.65c-1.2,101.23 -5.41,1056.7 3.81,1074.24 31.63,42.24 90.36,12.86 137.98,-0.69l723.39 -199.35c250.67,-71.68 216.08,-35.66 218.17,-162.12 -8.56,-488.06 -0.22,-1018.93 -0.22,-1515.05 0,-99 11.97,-441.43 -5.49,-509.45 -32.94,-18.38 -893.21,-256.12 -1006.24,-282.66 -87.96,-20.65 -72,47.59 -71.97,114.02l-0.01 1111.83c0,119.7 -5.09,251.05 0.58,369.23z"/>
   <path class="fil4" d="M1712.72 1474.81c33.22,-34.17 36.72,-65.56 113.44,-101.28 24.55,-11.43 50.67,-19.71 77.54,-26.14 66.6,-15.94 60.03,1.08 76.84,-31.75l24.94 -45.86 -121.79 -25.15c6.19,-92.5 88.36,-244.98 204.29,-213.15 40.04,10.99 51.98,42.23 68.12,79.21 14.3,69.12 27.96,80.86 18.44,166.14l-31.96 3.54c-10.71,13.63 -8.57,-7.71 -5.06,25.98 0.66,6.31 5.15,23.4 6.7,33.06 7.73,21.32 31.99,28.25 49.12,39.29 20.29,13.08 39.19,27.14 56.89,40.95 29.1,22.73 77.44,64.82 84.48,106.62 7.5,10.93 9.06,36.38 14.92,50.77 5.81,14.25 12.8,29.44 20.09,47 13.13,31.63 27.83,65.36 36.49,100.44 13.77,30.55 35.63,56.37 55,89.23 18.62,31.59 35.51,68.08 46.69,106.64 24.4,84.18 6.8,195.14 -47.66,233.43 -16.08,30.39 -93.07,94.37 -123.42,127.43 -76.67,83.47 -166.74,213.35 -232.53,280.66 -32.01,32.75 -35.52,24.49 -48.71,79.43 -8.15,33.96 -22.32,69.7 -22.42,104.88l578.71 -26.54c-9.55,-230.82 16.4,-1916.67 -5.66,-1966.18 -13.62,-28.6 -157.71,-57.85 -195.47,-68.13l-617.79 -170.61c-110.89,-31.02 -80.04,83.1 -80.04,171.45l-0.19 788.64z"/>
   <path class="fil4" d="M1431.01 2310.74l3.01 -37.3c-17.95,5.46 -25.97,11.22 -42.52,16.34 -31.33,9.69 -31.8,-1.64 -38.39,23.11 -9.13,-9.05 -9.11,-13.59 -23.75,-7.85l28.9 8.92c4.56,34.97 30.03,56.8 54.58,77.36 16.23,-48.56 16.84,-11.93 18.17,-80.58z"/>
   <path class="fil4" d="M1617.35 2263.67l0.38 -120.33c-38.98,23.55 -53.43,61.54 -29.57,96.87 12.02,17.81 19.82,18.84 29.19,23.46z"/>
   <path class="fil5" d="M1617.35 2263.67c-9.37,-4.62 -17.17,-5.65 -29.19,-23.46 -23.86,-35.33 -9.41,-73.32 29.57,-96.87l-0.38 120.33zm-179.26 -120.49c-3.9,42.01 -15.3,87.24 -4.07,130.26l-3.01 37.3c15.57,27.94 4.03,56.99 10.64,92.49 14.96,80.41 38.73,159.15 67.54,232.99 68.98,176.76 110.72,148.97 101.7,296.57 -4.43,-19.7 -22.15,-33.1 -34.97,-50.81l-40.8 -50.92c-4.46,-4.78 -6.53,-8.83 -11.18,-13.2 -18.55,-17.41 -1.86,-0.86 -14.31,-9.47 -31.63,-21.88 -36.97,-62.65 -57.78,-72.71 -21.24,-10.27 -36.74,-2.69 -56.06,-5.77 -27.43,-4.37 -13.13,-48.37 -16.44,-92.02 -32.41,-22.78 -46.22,-52.35 -89.21,-73.27 -43.46,-21.16 5.71,-8.45 -51.04,-31.22 -19.88,-7.98 -19.14,-17.63 -41.99,-40.37 -142.34,-81.48 -302.55,-143.66 -506.19,-103.44 1.09,1.17 2.68,2.62 3.48,3.31 0.79,0.69 2.53,2.4 3.51,3.22 0.97,0.81 2.5,2.17 3.59,3.02l15 10.12c128.48,81.72 92.84,151.98 122.39,171.94 48.93,19.31 98.4,-40.28 156.11,-28.73 58.84,11.78 37.26,85.56 70.2,125.1 30.77,36.94 104.08,-3.87 161.15,34.26 54.92,36.69 36.94,76.73 64.73,129.59 31.88,-3.13 38.04,-17.41 69.59,-7.97l60.1 29.22 -20.07 6.14c14.25,19.24 28.78,16.78 56.64,27.42 20.03,7.65 37.48,14.86 56.04,23.29 28.24,12.83 86.11,43.61 97.94,63.41 -1.72,-0.38 -16.27,-3.72 -16.78,-3.7 -17.45,0.95 -6.69,-2.55 -17.64,5.41l29.21 28.41c-76.17,41.78 -156.21,-15.62 -201.83,-39.15 0.66,-1.92 4.42,-7.94 4.6,-9.14l-1.63 -15.41c-33.52,11.15 -75.31,34.88 -69.65,70.55 123.53,104.8 765.96,161.11 980.4,171.41 377.24,18.1 748.64,17.72 1124.29,-6.92 62.96,-4.13 969.92,-64.91 909.07,-241.26 -27.75,-80.45 -323.89,-133.94 -430.02,-151.45 -84.63,-13.96 -167.61,-24.73 -252.92,-33.2 -242.48,-24.07 -421.25,-33.67 -666.09,-39.01 -58.55,-1.28 -258.21,6.05 -298.16,-5.1 -2.09,126.46 32.5,90.44 -218.17,162.12l-723.39 199.35c-47.62,13.55 -106.35,42.93 -137.98,0.69 -9.22,-17.54 -5.01,-973.01 -3.81,-1074.24 -36.52,-11.07 -46.57,-110.56 -50.31,-154.53 -85.75,79.49 -121.99,273.25 -132.42,295.42z"/>
   <path class="fil5" d="M1960.64 2756.71l-248.02 34.12c-1.01,27.48 -3.67,160.05 2.26,178.02 15.57,47.18 93.63,16.53 124.65,7.45l536.47 -148.65c44.83,-13.06 88.26,-24.34 134.38,-36.75 84.66,-22.78 101.37,-19.14 101.49,-71.26l-651.23 37.07z"/>
   <g>
    <g>
     <path class="fil6" d="M2096.51 1342.33c-7.01,29.85 12.88,24.26 16.97,20.07 3.34,-3.42 4.58,-12.11 1.76,-16.95 -3.88,-6.66 -10.98,-4.25 -18.73,-3.12z"/>
     <path class="fil6" d="M3181.4 1395.18c14.94,4.83 4.21,3.82 15.46,0.53 4.45,-10.9 3.11,-5.11 0.01,-16.8l-16.05 0.21 0.58 16.06z"/>
    </g>
    <g>
     <path class="fil7" d="M3430.4 1808.58c12.48,-5.86 4.18,-4.85 17.23,-2.68 2.58,20.89 -24.54,38.08 -36.46,41.33 6.88,-22.44 8.58,-8.21 13.83,-28.9 -9.74,5.47 -23.78,24.78 -23.98,39.91 22.65,-4.35 48.64,-30.73 54.16,-46.84 2.72,-7.96 -2.1,-7.08 15.51,-19.88 12.33,5.26 23.56,20.29 43.25,28.59 -10.97,-19.59 -47.01,-35.17 -56.8,-43.91 -16.03,-14.3 -39.68,-37.41 -60.01,-43.81l10.91 12.53c4.97,3.43 8.4,4.71 14.41,8.76l25.52 19.45 -16.22 32.93c-0.39,0.63 -0.97,1.65 -1.35,2.52z"/>
     <path class="fil7" d="M1815.06 1758.68l12.47 -2.88c16.26,19.27 7.81,-3.33 14.6,20.76 2.42,8.59 7.45,15.18 16.14,18.8 -3.58,-11.87 0.5,-0.99 -6.58,-10.89 -5.82,-8.13 -5.39,-3.57 -2.84,-15.02 11.92,-2.13 7.03,-2.41 17.56,2.89 -6.04,-15.73 -3.99,-2.45 -10.66,-15.32 -1.18,-2.27 -6.09,-14.4 -7.08,-17.61 7.55,-7.35 1,0.53 3.87,-9.58 -12.27,5.5 -7.21,6.96 -17.57,14.02 -7.63,5.21 -9.44,3.08 -15.13,8.42 -4.17,3.91 -0.82,0.96 -4.78,6.41z"/>
     <path class="fil7" d="M1781.45 1213.07l0.09 0.88c-7.12,7.8 -14.41,13.7 -17.99,25.05 5.45,-3.32 2.01,-0.16 6.15,-4.49 9.72,-10.18 1.87,-8.68 14.94,-11.03l0.63 18.62c7.6,-3.97 2.68,2.08 5.22,-6.41 2.1,-15.19 8.86,-17.38 10.26,-31.51 -13.04,-1.81 -13,0.07 -19.3,8.89z"/>
     <path class="fil7" d="M1858.27 1795.36c5.65,14.11 22.35,25.14 38.15,27.27 0.09,-12.1 -14.65,-35.17 -25.6,-42.09 4.22,14.4 9.55,15.29 13.87,30.24 -23.11,-8.46 -11.14,-10.66 -26.42,-15.42z"/>
    </g>
    <g>
     <path class="fil8" d="M2357.79 1604.15c-4.35,-14.82 -6.18,-13.09 -16.71,-23.67 -8.51,-8.55 -2.45,2.23 -7.53,-12.27 -2.07,-5.89 -2.85,-9.28 -4.6,-15.19 -7.52,-12.29 -26.83,-30.9 -37.69,-38.46 -4.19,-29.78 9.57,-51.76 12.71,-75.25 -10.97,8.86 -39.89,117.5 3.88,160.12 23.39,22.79 29.62,1.19 33.04,-4.29l16.9 9.01z"/>
     <path class="fil8" d="M2966.56 1590.88c-10.76,36.92 -5.23,14.75 -17.43,33.39 14.05,0.28 5.26,5.08 14.25,19.63 22.61,2.91 40.21,-23.47 45.39,-43.72 3.18,-12.42 1.81,-29.3 1.83,-42.4 0.02,-18.96 -0.49,-30.45 -6.22,-42.49 0.81,32.79 6.31,29.19 -13.05,47.36 -12.38,11.62 -15.54,15.84 -24.77,28.23z"/>
    </g>
    <g>
     <path class="fil9" d="M2944.13 1637.55c-7.53,3.97 -7.16,2.53 -8.74,15.24 -3.63,29.25 17.07,29.66 26.47,34.73 1.7,15.31 2.87,68.96 7.32,81.25 2.61,7.19 -1.24,-1.64 1.81,3.83 2.11,3.78 2.05,3.11 3.97,5.2 -0.64,-20.03 -7.89,-26.15 -6.98,-80.14l12.63 13.02 -7.83 -17c11.45,-11.7 9.81,-9 30.03,-17.3 5.07,-9.27 9.74,-10.28 17.85,-17.99 6.18,-5.89 8.88,-10.9 13.36,-18.55 7.48,-12.77 13.45,-32.05 14.12,-50.18 1.05,-28.21 -8.26,-93.65 -17.25,-113.4 2.56,53.72 15.7,76.7 -2.87,130.82 -0.22,0.65 -0.49,1.38 -0.7,2.04 -0.21,0.68 -0.41,1.44 -0.61,2.14 -2.07,7.16 -1.44,7.32 -3.93,13.74 -8.55,22.06 -17.48,21.7 -26.65,31.55 -2.72,2.91 -7.1,12.57 -22,16.35 -50.09,12.72 -31.82,-28.43 -30,-35.35z"/>
     <path class="fil9" d="M2287.36 1635.15c6.42,3.85 12.69,9.14 19.65,11.55 13.48,4.68 15.85,0.29 16.3,14.94 8.7,-0.23 7.29,2.91 5.23,28.58 -0.79,9.93 -0.99,21.3 -3.04,31.2 -3.42,16.46 -12.53,38.72 -15.63,54.44l19.13 -53.9c3.81,-24.98 3.87,-41.85 4.54,-67.91 11.06,-9.58 21.29,-5.09 26.27,-23.65 -14.68,2.76 -18.03,8.85 -33.24,6.65 -11.96,-1.72 -16.97,-7.91 -24.19,-15.03 -62.09,-61.23 -40.92,-79.96 -37.52,-177.39 -11.8,20.47 -27.13,108.96 -5.56,154.45l28.06 36.07z"/>
     <path class="fil9" d="M3577.09 1866.24c-4.88,-8.99 -39.08,-33.23 -50.84,-37.74l1.42 12.42c26.34,-0.3 27.28,18.47 49.42,25.32z"/>
     <path class="fil9" d="M3956.97 2023.53c9.52,-4.6 12.4,-7.14 15.53,-18.9 -8.63,6.72 -10.8,9.51 -15.53,18.9z"/>
    </g>
    <g>
     <path class="fil10" d="M2966.56 1590.88c9.23,-12.39 12.39,-16.61 24.77,-28.23 19.36,-18.17 13.86,-14.57 13.05,-47.36 -2.06,-16.28 -7.59,-38.93 -16.59,-47.22 -13.6,-5.84 -28.03,-16.51 -50.18,-19 1.95,8.95 8.56,23.11 10.64,31.76 4.74,19.73 -1.84,22.65 5.85,57.51 1.66,7.54 1.23,14.42 1.22,22.31 -0.01,12.5 -0.25,29.32 1.32,41.38 6.69,-4.31 -7.07,7.06 3.07,-4.59 4.22,-4.85 0.46,-3.2 6.85,-6.56z"/>
     <path class="fil10" d="M2304.54 1436.71l-0.57 2.6c-3.14,23.49 -16.9,45.47 -12.71,75.25 10.86,7.56 30.17,26.17 37.69,38.46 11.65,6.75 4.36,2.61 10.81,12.67 3.3,-32.98 2.63,-88.77 8.71,-120.14 1.63,-8.44 8.79,-23.9 10.41,-31.89 -26.67,-0.87 -49.09,20.5 -54.34,23.05z"/>
    </g>
    <g>
     <path class="fil11" d="M2901.73 1399.33c-9.12,26.46 14.03,36.85 30.25,42.68 10.68,3.83 21.43,4.34 32.73,8.17 13.03,4.4 18.21,5.25 23.08,17.89 9,8.29 14.53,30.94 16.59,47.22 5.73,12.04 6.24,23.53 6.22,42.49 -0.02,13.1 1.35,29.98 -1.83,42.4 -5.18,20.25 -22.78,46.63 -45.39,43.72 -8.99,-14.55 -0.2,-19.35 -14.25,-19.63 -2.33,11.27 -3.03,2.73 -5,13.28 -1.82,6.92 -20.09,48.07 30,35.35 14.9,-3.78 19.28,-13.44 22,-16.35 9.17,-9.85 18.1,-9.49 26.65,-31.55 2.49,-6.42 1.86,-6.58 3.93,-13.74 0.2,-0.7 0.4,-1.46 0.61,-2.14 0.21,-0.66 0.48,-1.39 0.7,-2.04 18.57,-54.12 5.43,-77.1 2.87,-130.82 -6.75,-54.06 -37.99,-61.75 -69.25,-78.69 -31.21,-16.93 -28.1,-38.48 -59.91,1.76z"/>
     <path class="fil11" d="M2264.86 1444.63c-3.4,97.43 -24.57,116.16 37.52,177.39 7.22,7.12 12.23,13.31 24.19,15.03 15.21,2.2 18.56,-3.89 33.24,-6.65l-2.02 -26.25 -16.9 -9.01c-3.42,5.48 -9.65,27.08 -33.04,4.29 -43.77,-42.62 -14.85,-151.26 -3.88,-160.12l0.57 -2.6c2.77,-10.21 10.25,-15.69 19.75,-19.36 6.39,-2.48 6.69,-2.36 12.37,-4.85 23.85,-10.47 18.57,1.85 59.64,-24.78 2.81,-25.15 -4.6,-42.43 -27.97,-47.23 -16.02,3.7 -13.35,10.71 -31.13,19.81 -30.9,15.83 -66.23,24.48 -72.34,84.33z"/>
     <path class="fil11" d="M3728 1577.67c-8.58,14.68 -8.95,1.5 -14.99,11.85 -2.91,4.99 0.44,9.41 -12.34,15.1 -6.78,6.32 -7.21,8.22 -16.56,13.85 -17.95,10.82 -42.17,43.25 -42.27,62.6 8.61,-9.1 10.1,-21.05 18.16,-31.56 8.69,-11.33 16.44,-19.56 22.06,-26.91 13.57,1.31 13.33,3.12 25.04,7.14l-0.21 14.01 21.12 -21.65c7.58,-7.09 10.6,-14.22 22.63,-9.54 2.11,6.35 1.22,10.97 -0.01,17.74 -4.86,26.62 -24.74,2.69 -24.12,42.06l3.53 -2.4c5.47,-7.02 3.19,-6.48 5.7,-17.61 23.16,-5.16 15.2,9.13 40.14,17.45l-8.89 -11.29c-14.87,-12.37 -5.31,7.16 -2.3,-37.31l9.93 -1.72c-2.95,-2.47 -9.68,-3.3 -17.07,-9.49l-2.91 -3.71 -10.54 -5.25 0.71 -37.45c-9.14,5.8 -9.51,8.66 -16.81,14.09z"/>
     <path class="fil11" d="M3924.99 2142.54c0.25,-15.9 -26.31,-60.63 -34.46,-76.19 -6.11,-11.67 -12.4,-23.67 -18.34,-36.49 -7.18,-15.51 -9.71,-29.17 -19.15,-38.46l-1.19 10.44c-0.34,-0.48 -0.92,-1.25 -1.28,-1.8l-4.9 -9.52c-2.17,-4.83 -4.54,-10.55 -6.85,-15.89 -4.93,-11.41 -8.95,-20.89 -13.78,-33.12 -4.54,-11.51 -8.19,-21.04 -12.59,-33.57l-9.73 -28.1c-0.39,-0.82 -0.98,-1.8 -1.32,-2.49 -0.36,-0.72 -1.24,-1.05 -1.52,-2.58 -0.29,-1.59 -0.99,-1.83 -1.63,-2.65 3.99,57.6 96.85,253.76 126.74,270.42z"/>
     <path class="fil11" d="M3701.58 1674.25c-10.53,9.78 -4.91,15.56 -14.52,42.65 -4.92,13.91 -9.98,27.11 -15.4,39.22 -8.02,17.95 -34.08,60.11 -37,72.71 26.31,-7.12 42.81,-55.41 56.42,-64.06 0.4,-7.34 14.48,-33.1 19.43,-45.54 5.84,-14.69 17.21,-31.31 16,-46.87l-2.77 3.23c-0.86,1.02 -1.77,2.21 -2.65,3.21 -6.9,7.95 -9.08,10.02 -20.81,12.24l1.3 -16.79z"/>
     <path class="fil11" d="M1760.63 1379.56l1.75 39.85 -25.05 0.61c-3.26,-10.47 2.15,-16.91 7.42,-23.44 5.63,-6.96 10.09,-11.97 15.88,-17.02zm-6.19 -115.58c-3.28,3.28 -1.7,0.07 -4.32,5.27l-16.57 63.52c-1.04,12.92 -2.13,30.61 -1.99,43.42 0.15,12.88 -0.01,37.3 1.14,48.77l0.63 0.01 30.33 0.38c6.99,-21.76 -0.28,-45.88 -1.06,-65.34 -8.26,4.62 -1.05,0.06 -6.64,4.53l-18.58 22.21c-3.86,-15.66 2.39,-66.23 6.73,-81.84 9.55,5.02 7.39,14.87 15.01,27.48l4.92 6.31c0.33,-16.25 5.79,-25.49 6.79,-43.02 -0.74,0.85 -1.54,1.83 -2.13,2.63 -0.55,0.74 -1.34,1.62 -1.95,2.5 -3.21,4.6 -1.37,1.93 -2.83,4.37 -2.45,4.1 -0.25,0.23 -2.52,5.86 -1.93,-3.22 -7.31,-16.95 -9.17,-22.14l17.18 -14.06 1.01 13.49c1.28,-2.01 2.11,-1.6 4.29,-8.48 1.77,-5.57 1.11,-5.1 1.66,-10.27 1.42,-13.37 0.1,-8.87 4.08,-21.01l-24.7 22.09 -1.31 -6.68z"/>
     <path class="fil11" d="M3535.66 1416.43c6,4.34 9.72,7.69 15.19,14.77 6.01,7.79 10.26,12.84 10.17,25.95l-26.55 -0.04 1.19 -40.68zm-9.61 -96.76l2.29 -8.86c5.71,4.42 10.96,8.48 15.44,16.42l-8.84 21.11 -7.33 -12.66c-0.33,-1.63 -1.18,-1.86 -1.87,-2.72 0.82,17.75 3.78,19.42 5.57,32.18 1,7.16 0.46,22.33 0.79,31.23 0.78,21.12 -3.58,42.02 -0.32,64.21l30.86 0.22 1.86 -70.29c-0.11,-2.1 -0.67,-9.73 -1.09,-11.45 -2.67,-10.88 0.25,-3.92 -4.66,-9.92l2.12 51.6c-35.74,-23.19 -27.83,-51.44 -9.47,-82.08 2.76,12.7 -0.8,-0.06 5.65,5.81 -0.74,-12.77 -0.02,-5.15 -3.09,-14.73 -3.13,-9.74 -0.33,3.71 -3.57,-11.14 -2.42,-11.04 0.1,-11.17 -8.54,-18.62l-17.42 -9.34c-5.12,-3.55 -0.21,-0.6 -7.29,-3.83 3.19,11.08 1.28,11.4 2.8,20.03 0.98,5.56 -0.22,1.94 1.94,7.06 2.27,5.38 1.28,2.65 4.17,5.77z"/>
     <path class="fil11" d="M1858.27 1795.36c15.28,4.76 3.31,6.96 26.42,15.42 -4.32,-14.95 -9.65,-15.84 -13.87,-30.24l-4.41 -8.2c-10.53,-5.3 -5.64,-5.02 -17.56,-2.89 -2.55,11.45 -2.98,6.89 2.84,15.02 7.08,9.9 3,-0.98 6.58,10.89z"/>
     <path class="fil11" d="M3425 1818.33c-5.25,20.69 -6.95,6.46 -13.83,28.9 11.92,-3.25 39.04,-20.44 36.46,-41.33 -13.05,-2.17 -4.75,-3.18 -17.23,2.68l-5.4 9.75z"/>
     <path class="fil11" d="M3078.63 1246.37c12.52,1.4 16.37,-0.24 24.01,-4.61 10.18,-5.82 11.19,-5.93 11.34,-18.76 -17.55,0.31 -34.02,5.54 -35.35,23.37z"/>
     <path class="fil11" d="M2216.57 1211.16c-2.66,-18.87 -7.66,-22.04 -33.86,-22.08 4.26,14.78 -1.96,4.07 5,11.83 4.86,5.41 17.05,9.51 28.86,10.25z"/>
     <path class="fil11" d="M3508.39 1275.28c4.4,4.25 1.01,-0.87 1.64,5.41l5.65 0 -2.45 -19.28 11.61 5.22c-4.43,-9.57 0.2,-0.59 -5.31,-8.74 -0.49,-0.72 -2.59,-2.71 -2.89,-4.09 -0.26,-1.24 -0.99,-1.42 -1.43,-2.17l-1.25 -2.97c-10.33,-5.44 -4.48,-4.97 -14.31,-7.38 0.07,13.36 -0.47,7.26 4.25,14.97 5.76,9.42 3.13,5.96 4.49,19.03z"/>
    </g>
    <g>
     <path class="fil12" d="M3323.03 1895.26c-11.84,26.33 -34.27,57.94 -46.18,86.89 8.66,-6.41 21.41,-33.95 25.14,-42.4l143.2 41.69c8.1,2.49 15.95,4.9 24.21,7.3 12.95,3.75 12.45,4.21 22.55,8.48l21.88 6.67c10.54,2.21 14.77,4.4 24.35,7.97 16.02,5.98 27.27,10.63 43.73,17.3 45.36,18.38 26.71,47.16 63.02,62.4 -1.47,-11.62 -47.02,-103.9 -55.36,-125.5 -10.15,-26.3 -31.67,-65.13 -32.27,-78.21 -13.93,-0.22 -41.39,4.62 -55.12,7.16l-179.15 0.25z"/>
     <path class="fil12" d="M1738.82 1855.35l-26.42 62.26 0 75.73c16.73,-3.55 46.81,-19.23 66.5,-25.64l141.14 -42.79c11.16,-2.37 27.22,-5.54 38.57,-9.23 18.07,-5.88 12.23,-11.66 38.56,-10.44 -3.01,-8.74 -8.04,-15.36 -13.04,-25.03 -2.85,-5.49 -3.39,-6.87 -6.06,-11.51 -5.19,-9.05 -2.91,-1.68 -6.94,-12.23 -21.12,-1.47 -33.86,3.97 -56.92,4.51l-175.39 -5.63z"/>
     <path class="fil12" d="M3186.98 1869.12l1.93 42.1c4.37,39.45 24.02,110.47 37.86,146.83 48.33,127.07 123.7,216.35 257.14,250.18 26.46,6.71 37.89,0.87 40.04,0.11 0.57,-0.2 1.52,-0.6 2.19,-1.04 -6.6,-10.44 -26.96,-12.44 -38.36,-17.53 -13.9,-6.21 -23.1,-15.12 -38.16,-20.37 4.98,9.29 -3.81,1.83 8.61,8.32 -37.11,3.39 -132.76,-81.18 -160.98,-122.33l-19.2 -32.98c-37.44,-63.62 -71.96,-188.71 -77.75,-262.08 -3.48,-44.13 0.74,-87.94 -3.95,-131.97 -14.97,-140.44 -89.52,-137.03 -96.45,-181.34 44.09,0.11 49.15,26.86 73.79,43.69 -8.07,-17.86 -63.78,-70.3 -86.85,-42.05 -18.07,22.14 26.07,46.48 54.17,79.39 37.62,44.06 44.77,108.73 45.57,169.01 0.32,23.52 1.31,48.66 0.4,72.06z"/>
     <path class="fil12" d="M2172.94 1511.81l23.7 -3.02c0.59,18.73 -16.07,27.13 -28.45,40.82 -45.12,49.88 -57.85,57.87 -66.54,135.68 -4.97,44.53 -3.05,85.4 -4.49,132.01l-18.1 113.22c-19.74,68.22 -44.22,133.74 -80.51,187.16 -31.52,46.38 -95.53,106.46 -147.79,121.14 -3.44,-3.64 -4.59,6.57 -1.95,-7.26 -13.19,6.21 -25.78,15.52 -40.78,21.57 -16.14,6.51 -30.75,8.87 -40.25,19.04 30.02,12.51 88.22,-12.73 113.12,-24.23 29.41,-13.58 56.72,-34.87 83.73,-57.34 38.36,-31.91 104.5,-141.67 107.24,-178.3 22.78,-61.66 36.32,-136.81 38.09,-203.62 1.78,-67.12 0.53,-153.34 37.17,-205.25 11.98,-16.98 20.5,-23.77 35.77,-39.05 13.13,-13.14 32.85,-26.86 32.08,-46.94l-9.19 -8.89c-10.36,-8.34 -23.68,-7.66 -32.85,3.26z"/>
     <path class="fil12" d="M3080.82 2004.06c8.41,37.34 17.75,57.92 18.53,107.22 1.07,68.33 -11.5,82.35 -10.87,116.69 10.11,-3.68 4.38,0.75 12.78,-7.77 44.28,-44.93 30.91,-159.61 12.71,-213.31 -12.32,-36.37 -34.41,-87 -52.93,-120.08 -17.08,-30.52 -26.41,-58.13 -34.81,-72.32 -17.11,-39.05 -11.83,-59.88 -41.39,-96.53 -3.57,-4.41 -0.6,-1.83 -5.03,-4.95 0.85,17.75 25.88,102.39 33.23,118.41 47.98,104.57 60.4,97.35 90.26,209.66 8.28,31.13 9.77,70.62 5.71,102.66 -1.37,10.76 -0.95,20.57 -7.9,29.56 0.79,-27.56 5.41,-152 -20.29,-169.24z"/>
     <path class="fil12" d="M2284.51 1720.63c0.55,32.33 -28.84,91.99 -41.99,116.44 -21.25,39.51 -35.22,76.09 -51.55,107.3 -2.23,4.28 -4.65,9.34 -5.83,13.02 -7.34,23.04 -17.79,59.36 -19.35,81.93 -0.8,11.69 -0.23,25.46 -0.26,37.37 -0.09,38.28 10.68,107.86 43.16,115.81 0.82,-20.21 -3.13,-19.94 -5.27,-35.88 -13.68,-10.35 -17.56,-40.63 -18.2,-56.75 -3.16,-79.4 6.79,-96.86 29.41,-164.45 19.34,-57.8 90.14,-153.34 100.19,-253.75 -0.74,0.52 -1.73,0.51 -2.08,1.75l-6.89 6.83c-2.46,2.85 -4.93,6.33 -7.44,9.76 -8.21,11.26 -7.5,16.93 -13.9,20.62z"/>
     <path class="fil12" d="M3653.81 1070.49c-17.3,1.44 -14.64,5.5 -30.56,5.48 -0.34,-39.06 29.94,-197.03 42.25,-239.85 7.2,-25.05 3.95,-25.33 1.41,-31.85 -0.21,-0.56 -0.66,-1.49 -1.14,-2.14 -2.52,19.61 -31.24,58.79 -43.84,108.37l-8.66 41.74c-2.37,18.22 -32.38,115.61 0.25,125.88 6.64,2.08 14.96,1.63 23.65,-0.3l16.64 -7.33z"/>
     <path class="fil12" d="M3546.92 1221.18c12.77,14.82 42.47,17.58 57.48,35.73 8.57,-1.53 6,-0.36 11.37,-3.86 14.37,-18.01 26.83,-45.34 60.3,-83.65 11.15,-12.77 61.52,-68.73 66.97,-82.56 -20.57,2.85 -32.7,20.82 -47.63,32.46 -39.63,30.92 -45.28,33.57 -81.76,74.07 -56.27,62.46 -33,34.62 -66.73,27.81z"/>
     <path class="fil12" d="M3266.08 2049.69c15.74,-3.43 10.43,-3.82 21.47,-8.47l23.23 -6.24c11.83,23.52 6.28,63.9 21.55,92.46 15.58,0.77 21.24,-12.57 35.61,-32.27 12,-16.45 19.35,-26.84 30.69,-39.05l15.97 6.85c-8.78,-15.3 -16.11,-16.55 -30.38,-15.26 -9.74,12.2 -14.2,24.96 -21.69,39.07 -12.62,23.76 -12.21,33.11 -27.31,36.19 -20.51,-31.2 -2.12,-135.26 -60.96,-84.14 -4.33,3.76 -1.64,1.01 -4.37,4.57 -4.23,5.5 -0.1,-1.55 -3.81,6.29z"/>
     <path class="fil12" d="M1883.89 2024.59c11.93,-4.84 1.33,-2.6 12.99,-5.49l57.47 71.76c7.15,4.07 8.97,1.07 12.09,-2.28 5.35,-5.73 10.66,-45.67 11.07,-54.61 -13.53,18.66 -0.92,35.19 -17.22,53.26 -13.94,-5.17 -22.39,-29.02 -28.05,-40.18 -7.68,-15.13 -11.88,-29.83 -24.67,-38.53 -12,3.25 -18.65,6.03 -23.68,16.07z"/>
     <path class="fil12" d="M1712.4 2047.67l0 3.18c13.66,-2.43 30.36,-11.49 43.24,-11.24l23.69 62.74c4.33,7.68 3.27,4.12 5.6,6.46l-9.67 -71.76c-40.45,-4.54 -33.36,5.6 -62.86,10.62z"/>
     <path class="fil12" d="M1983.07 1999.99c14.13,-1.18 32.49,9.06 46.63,13.88l-2.03 16.06c17.04,-11.27 2.93,-20.2 -5.71,-26.41 -12.16,-8.76 -15.69,-14.63 -35.61,-13.18l-3.28 9.65z"/>
    </g>
    <g>
     <path class="fil13" d="M3952.84 1580.86c21.29,-27.89 43.09,-44.32 66.2,-68.55 15.39,-16.12 37.29,-28.46 50.11,-39.3 18.53,-15.69 56.94,-46.64 79.92,-52.08 1.65,21.38 2.21,112.8 -1.8,130.53 -41.48,2.53 -66.88,1.19 -107.34,8.42 -17.03,3.04 -81.42,22.83 -87.09,20.98zm-113.04 312.69c2.4,-35.68 -8.29,-72.51 5.61,-104.49 9.23,5.14 90.8,132.1 155.34,155.18l-0.49 12.88c8.11,-4.83 0.95,4.2 8.04,-8.27l10.83 -31.54c8.97,-46.51 -2.76,-68.36 1.96,-114.26l11.05 -52.09 -3.87 3.75c-0.51,0.62 -1.16,1.26 -1.68,1.96l-10.83 34.23c-2.02,19.78 4.24,129.85 -8.15,139.64 -19.85,5.64 -91.81,-72.26 -107.84,-92.9 -54.62,-70.34 -59.4,-69.67 -28.65,-136.14 10.65,-23.03 23.81,-44.63 38.38,-65.36 17.64,-25.12 22.06,-32.19 57.92,-43.26 61,-18.82 103.14,-27.79 177.12,-27.5l-3.21 31.3c0.6,-0.7 1.32,-2.76 1.58,-2.27 0.24,0.47 1.16,-1.66 1.48,-2.23 17.95,-32.05 -0.38,-141.76 19.68,-222.22 -2.11,-10.79 1.83,-4.89 -4.47,-10.62 -35.71,5.8 -113.13,61.63 -143.76,83.46 -71.31,50.82 -136.35,135 -178.32,210.81 -5.7,10.3 -12.79,23.56 -16.39,37.9 -8.19,32.65 0.19,155.37 13.69,194.07l4.98 7.97z"/>
     <path class="fil13" d="M3336.19 1691.36l-11.66 -12.49c11.56,-26.54 133.21,4.04 164.42,19.66l133.23 75.47c3.99,26 -7.35,83.68 -7.35,116.29 8.12,-7.94 3.02,1.89 6.26,-12.54 0.1,-0.44 0.53,-11.37 0.55,-11.55l10.13 -123.89 -4.2 15.2c-10.5,-1.27 -9.07,-1.25 -18.46,-6.73 -4.27,-2.5 -9.97,-6.08 -14.52,-8.63 -10.52,-5.92 -20.01,-11.3 -29.3,-16.51 -35.34,-19.79 -87.72,-52.31 -127.3,-59.59 -27.19,-5.01 -56.99,-4.58 -84.18,-10.24 -0.44,-9.67 2.36,-10.95 8.04,-16.59 4.57,-4.53 8.04,-7.98 13,-12.98 8.75,-8.81 18.39,-20.99 27.33,-27.17 38.82,-26.86 135.88,-9.37 195.23,-8.5 35.8,0.52 75.31,-1.19 110.59,1.61 -3.36,7.47 -2.46,4.93 -7.33,12.44 12.78,-5.69 9.43,-10.11 12.34,-15.1 6.04,-10.35 6.41,2.83 14.99,-11.85 -15.52,4.75 -203.68,-1.71 -218.43,-6.95 5.48,-4.81 -0.33,-1.44 7.5,-4.13l23.83 -2.35c33.55,-2.68 201.6,-17.89 207.9,-15.09 -2.84,4.22 -0.09,-1.57 -2.91,4.57 -0.53,1.15 -1.26,6.21 -1.69,5.04 -0.18,-0.51 -0.56,1.92 -0.82,2.88 5.56,-1.84 2.76,-0.81 7.36,-3 0.14,-0.07 3,-1.62 3.06,-1.81 0.18,-0.59 0.75,-0.63 1.15,-0.9 5.06,-12.64 19.84,-21.85 30.5,-32.02l9.81 -14.13c-63.19,-2.21 -123.43,3.66 -186.21,4.67 -59.63,0.96 -122.07,0.82 -181.58,3.94 -34.71,1.82 -41.66,12.33 -59.1,32.43 -21.68,24.97 -44.99,43.77 -68.34,69.79 -19.9,22.18 -28.49,30.42 5.23,53.65 9.08,6.24 19.68,13.74 30.93,17.1z"/>
     <path class="fil13" d="M1712.4 1553.65c93.13,-1.63 149.15,-26.12 196.83,23.62 8.22,8.58 33.83,32.32 34.94,41.07 -18.99,8.63 -70.96,1.95 -127.87,25.88 -31.03,13.05 -87.84,49.68 -103.9,54.11l0 15.12c16.67,-4.98 42.42,-22.19 60.01,-32.29 57.87,-33.26 72.78,-36.91 138.85,-44.3 18.43,-2.07 55.62,-14.15 58.69,6.37 0.07,0.48 0.06,1.4 0.1,1.88l0.18 3.95c0.02,0.39 -0.13,1.4 0.09,2.04 4.68,-2.21 38.26,-23.58 39.91,-25.79 15.35,-20.51 -20.68,-48.31 -44.76,-72.8 -2.86,-2.91 -4.44,-4.62 -6.86,-7.06 -63.19,-63.48 -44.95,-61.44 -119.39,-63.05 -42.08,-0.91 -83.26,-2.92 -126.82,-3.2l0 74.45z"/>
     <path class="fil13" d="M3526.05 1319.67l-0.31 13.29c0.69,0.86 1.54,1.09 1.87,2.72l7.33 12.66 8.84 -21.11c-4.48,-7.94 -9.73,-12 -15.44,-16.42l-2.29 8.86z"/>
     <path class="fil13" d="M1770.83 1295.68l-0.41 -7.35 -1.01 -13.49 -17.18 14.06c1.86,5.19 7.24,18.92 9.17,22.14 2.27,-5.63 0.07,-1.76 2.52,-5.86 1.46,-2.44 -0.38,0.23 2.83,-4.37 0.61,-0.88 1.4,-1.76 1.95,-2.5 0.59,-0.8 1.39,-1.78 2.13,-2.63z"/>
    </g>
    <g>
     <path class="fil14" d="M1945.58 1668.68c-7.88,0.67 -5.38,0.27 -13.56,5.12l-24.45 15.82c-5.22,4.13 -6.47,4.99 -11.86,8.52 -7.77,5.1 -16.07,10.47 -23.84,16.45l-19.33 15.24c-2.87,10.11 3.68,2.23 -3.87,9.58 0.99,3.21 5.9,15.34 7.08,17.61 6.67,12.87 4.62,-0.41 10.66,15.32l4.41 8.2c10.95,6.92 25.69,29.99 25.6,42.09 -15.8,-2.13 -32.5,-13.16 -38.15,-27.27 -8.69,-3.62 -13.72,-10.21 -16.14,-18.8 -6.79,-24.09 1.66,-1.49 -14.6,-20.76l-12.47 2.88c-7,2.42 -18.7,12.92 -25.1,17.94l-27.03 24.67c-3.29,2.05 0.51,-0.23 -3.93,1.82 -22.97,10.61 -26.11,20.41 -46.6,32.04l0 7.75c10.2,0.97 5.99,0.71 13.74,3.38 14.27,4.91 9.26,-1.88 12.68,9.07l175.39 5.63c23.06,-0.54 35.8,-5.98 56.92,-4.51 8.53,-0.71 18.27,-0.71 26.47,-1.83 9.66,-1.32 12.89,-3.6 23.48,-4.92 18.28,-2.29 28.43,-7.99 48.04,-6.65l-2.24 -66.17c-0.39,-21.68 0.94,-43.75 0.49,-65.3 -12.63,-0.48 -26.81,-0.43 -38.91,1.81 -8.17,1.51 -10.61,3.27 -14.93,4.52 -12.34,3.53 -87.45,2.81 -103.77,2.77 2.07,-12.88 2.66,-11.73 12.8,-19.41 5.67,-4.29 27.93,-30.96 38.93,-35.15 -16.93,1.45 4.51,2.41 -15.91,2.54z"/>
     <path class="fil14" d="M3224.51 1829.8l0.96 49.18c23.47,-2.12 31.01,3.89 51.39,6.62 9.85,1.32 13.59,3.84 23.83,4.96 9.96,1.1 19.14,-2.38 22.34,4.7l179.15 -0.25c13.73,-2.54 41.19,-7.38 55.12,-7.16 12.63,-10.24 23.68,-10.59 36.69,-5.96 -3.44,-3.63 -11.17,-12.34 -16.9,-15.65 -22.14,-6.85 -23.08,-25.62 -49.42,-25.32l-1.42 -12.42c-3.42,-3.48 -5.31,-6.45 -12.31,-8.39 -19.69,-8.3 -30.92,-23.33 -43.25,-28.59 -17.61,12.8 -12.79,11.92 -15.51,19.88 -5.52,16.11 -31.51,42.49 -54.16,46.84 0.2,-15.13 14.24,-34.44 23.98,-39.91l5.4 -9.75c0.38,-0.87 0.96,-1.89 1.35,-2.52l16.22 -32.93 -25.52 -19.45c-6.01,-4.05 -9.44,-5.33 -14.41,-8.76l-10.91 -12.53c-4.83,-6.57 -15.05,-11.08 -24.23,-16.28 -11.92,-6.76 -16.18,-13.05 -28.52,-15.69l-8.46 2.41c0.19,0.18 0.81,0.81 1.04,1.02l2.48 2.19c4.65,3.56 3.75,2.17 8.66,5.58 4.56,3.17 12.4,10.14 15.85,13.45 6.29,6.05 7.5,10.2 13.5,14.99 9.76,7.81 9.61,2 11,17.82 -32.89,0 -56.73,-2.58 -87.94,-3.06 -1.89,-0.03 -60.87,-6.21 -67.17,-10.62 -7.64,-5.34 -0.87,-0.29 -2.55,-2.82 -2.49,14.72 -1.27,29.25 -1.11,44.15 0.08,7.64 0.33,15.61 0.33,23.18l-3.96 18.83c-0.21,-0.43 -0.78,1.77 -1.54,2.26z"/>
     <path class="fil14" d="M3726.51 1672.36c1.21,15.56 -10.16,32.18 -16,46.87 -4.95,12.44 -19.03,38.2 -19.43,45.54 -0.93,16.34 -14.88,34.11 -23.94,44.18 -6.18,6.88 -11.14,12.63 -16.96,18.02 -12.94,12 -10.99,6.83 -21.01,13.33l-2.86 24.34 65.73 -24.4c34.54,-16.19 44.06,-31.08 61.13,-29.19 2.84,8.68 2.66,12.81 5.46,22.83 1.43,5.12 5.52,17.7 7.93,24.19 31.47,84.33 80.81,193.44 129.62,268.42 6.05,9.3 14.14,21.56 25.31,25 7.11,2.18 10.64,1.08 15.09,-0.89 4.3,-11.35 2.75,-13.96 -3.21,-24.04l-4.89 10.61c-0.41,0.74 -1.37,3.13 -1.68,2.64 -0.34,-0.52 -1.08,1.92 -1.81,2.73 -29.89,-16.66 -122.75,-212.82 -126.74,-270.42 -8.14,-18.63 -16.06,-69.69 -16.69,-95.18 -0.48,-19.26 -0.68,-38.44 -0.17,-57.71 0.62,-23.69 3.38,-30.55 -5.51,-49.43 -24.94,-8.32 -16.98,-22.61 -40.14,-17.45 -2.51,11.13 -0.23,10.59 -5.7,17.61l-3.53 2.4z"/>
     <path class="fil14" d="M3002.81 1676.38c-20.22,8.3 -18.58,5.6 -30.03,17.3l7.83 17 -0.8 2.33c4.43,3.12 1.46,0.54 5.03,4.95 29.56,36.65 24.28,57.48 41.39,96.53 -3.71,-26.58 -12.99,-29.17 -12.96,-53.75 11.06,4.76 1.22,-0.32 7.6,4.03l16.76 15.54c35.96,29.7 81.84,60.42 126.04,75.45 13.63,4.64 18.47,4.49 21.64,19.88 2.07,10.04 -0.58,27.48 3.6,35.58l-1.93 -42.1c-7.24,-12.29 -6.45,-22.95 -5.63,-37.58 1.13,-20.15 -1.88,-17.59 -2.97,-34.37 -1.79,-27.5 3.28,-49.88 -6.74,-67.26 -37.45,-1.83 -56.67,-11.3 -88.44,-26.52 -15.44,-7.4 -51.48,-24.88 -59.29,-34.82 -9.18,1.37 -15.39,5.41 -21.1,7.81z"/>
     <path class="fil14" d="M2115.45 1824.58c69.67,-10.27 164.77,-101.92 169.06,-103.95 6.4,-3.69 5.69,-9.36 13.9,-20.62 2.51,-3.43 4.98,-6.91 7.44,-9.76l6.89 -6.83c0.35,-1.24 1.34,-1.23 2.08,-1.75l8.49 -20.03c-0.45,-14.65 -2.82,-10.26 -16.3,-14.94 -6.96,-2.41 -13.23,-7.7 -19.65,-11.55l-11.11 -0.62c-2.48,8.36 -16.47,25.34 -22.66,32.34l-14.46 13.97c-28.51,26.75 -35.82,39.95 -75.82,64.98l-48.1 26.85 0.24 51.91z"/>
     <path class="fil14" d="M1790.49 1235.69c-2.54,8.49 2.38,2.44 -5.22,6.41l2.07 12.51c16.92,-10.79 -1.89,-17.25 56.95,-13.1 0.44,9.17 -3.07,16.25 -6.36,26.51 -5.95,18.59 -13.98,62.49 -21.76,73.06 -7.15,0.72 -24.31,3.08 -30.03,3.12 -21.13,0.15 -3.41,-9.2 -16,-5.65 -2.32,24.85 3.72,64.6 -2.48,87.16l127.73 4.16c-8.88,-8.94 -28.26,-6.44 -44.84,-6.52 -26.47,-0.13 -24.28,-5.74 -21.02,-35.59 1.46,-13.37 3.32,-34.31 5.77,-49.06 2.46,-14.75 3.7,-4.83 5.06,-20.23 2.59,-29.12 -1.27,-16.96 8.81,-46.94 2.82,-8.41 2.19,-11.14 4.5,-21.59 1.33,-6.04 11.92,-33.21 15.09,-39.85 5.97,-12.51 11.11,-25.35 18.27,-36.65 4.61,-7.28 19.08,-26.95 20.32,-32.42 -29.68,8.32 -42.17,52.43 -48.03,62.06 -7.28,11.97 -6.3,12.77 -10.5,26.93 -15.43,0.4 -41.54,3.74 -52.57,-3.68l-5.76 9.36z"/>
     <path class="fil14" d="M3369.79 1475.47c51.18,-16.08 100.23,-11.33 157.28,-14.28 -2.6,-8.74 -36.07,-4.56 -43.76,-5.22 -0.25,-10.67 0.09,-23.42 -0.69,-33.81 -1.36,-17.95 -5.78,-10.56 -4.94,-30.31 16.8,-0.94 30.68,-4.89 41.93,1.72l9.95 8.22 -2.49 -26.27c-13.33,4.84 -2.01,7.11 -21.57,6.38 -10.71,-0.39 -15.41,-3.18 -27.9,-4.13 -4.61,-23.95 -23.17,-68.2 -22.3,-99.96 33.86,-1.34 32.82,-4.24 52.86,11.87l1.87 -8.99c-0.63,-6.28 2.76,-1.16 -1.64,-5.41 -5.05,-6.12 -5.46,9.94 -5.72,-12.6 -30.01,5.07 -12.85,5.3 -55.43,4.36l-17.03 -43.71c-11.31,-19.62 -21.91,-40.36 -41.48,-46.48l2.45 7.98c11.43,16.56 0.65,-10.39 22.56,32.55l21.02 48.34c1.97,4.94 4.74,10.77 6.5,16.5 13.57,44.04 27.96,109.96 27.48,157.56 -0.04,3.87 -0.15,7.2 -0.97,10.96 -4.5,20.51 -58.02,-0.15 -92.69,20.65 -0.51,0.3 -1.42,1 -1.83,1.26l-3.46 2.82z"/>
     <path class="fil14" d="M3754.95 1555.93c-0.4,0.27 -0.97,0.31 -1.15,0.9 -0.06,0.19 -2.92,1.74 -3.06,1.81 -4.6,2.19 -1.8,1.16 -7.36,3l1.43 1.94 -0.71 37.45 10.54 5.25c22.37,1.86 7.96,-10.11 19.87,-27.24 5.79,-8.32 21.77,-13.33 30.55,-18.21 5.19,5.43 3.27,5.34 10.1,10.25 8.88,-4.84 21.97,-15.37 29.1,-26.33 -12.63,7.88 -14.12,17.33 -27.67,21.77 -7.35,-9.63 -13.76,-36.7 -15.13,-51.57 -3.42,9.22 -7.44,7.14 -20.98,21.32 -5.57,5.84 -5.97,6.2 -12.06,10.82l-13.47 8.84z"/>
     <path class="fil14" d="M3740.67 1459.62l36.76 -1.23c0.05,-17.18 -42.13,-75.6 -51.83,-89.43 -11.86,-16.91 -54.51,-68.48 -74.24,-74.69l17.48 19.35c7.71,6.63 9.1,7.85 15.82,15.67 39.65,46.11 31.61,26.52 51.51,74.74 0.81,1.99 1.61,4.05 2.48,6.24l2.41 6.12c1.5,4.57 1.44,6.01 2.68,11.5 2.74,12.16 5.11,11.34 5.92,26.53l-8.99 5.2z"/>
     <path class="fil14" d="M3513.96 1248.66l1.25 2.97c11.99,-1.99 17.16,-6.43 18.05,-19.57 -3.89,-9.07 -18.89,-19.03 -30.09,-22.31 7.16,22.12 20.55,6.6 10.79,38.91z"/>
     <path class="fil14" d="M1781.54 1213.95l-0.09 -0.88 -4.46 -18.28c7.25,-7.21 16.65,-14.55 17.25,-21.06 -8.31,0.73 -17.91,7.7 -23.54,12.91 -14.85,13.76 -2.61,15.66 2.61,27.6l8.23 -0.29z"/>
     <path class="fil14" d="M1712.4 1419.74l0 4.86 20.93 0.37 -0.63 -0.01 -5.57 -19.96c-6.51,2.42 -4.65,0.94 -8.86,5.85l-5.87 8.89z"/>
     <path class="fil14" d="M3268.9 1579.35c-5.43,2.71 -10.32,5.06 -18.77,6.12 1.13,-21.56 4.85,-9.06 13.63,-25.21 -9.94,5.45 -15.83,9.42 -19.82,20.6 6.36,14.2 17.98,14.44 24.96,-1.51z"/>
    </g>
    <g>
     <path class="fil15" d="M4032.14 1750.96c9.57,-34.88 102.2,-95.81 109.19,-154.28l3.21 -31.3c-73.98,-0.29 -116.12,8.68 -177.12,27.5 -35.86,11.07 -40.28,18.14 -57.92,43.26 -14.57,20.73 -27.73,42.33 -38.38,65.36 -30.75,66.47 -25.97,65.8 28.65,136.14 16.03,20.64 87.99,98.54 107.84,92.9 12.39,-9.79 6.13,-119.86 8.15,-139.64l10.83 -34.23c0.52,-0.7 1.17,-1.34 1.68,-1.96l3.87 -3.75z"/>
     <path class="fil15" d="M3631.77 1742.31l10.07 -61.24c0.1,-19.35 24.32,-51.78 42.27,-62.6 9.35,-5.63 9.78,-7.53 16.56,-13.85 4.87,-7.51 3.97,-4.97 7.33,-12.44 -35.28,-2.8 -74.79,-1.09 -110.59,-1.61 -59.35,-0.87 -156.41,-18.36 -195.23,8.5 -8.94,6.18 -18.58,18.36 -27.33,27.17 -4.96,5 -8.43,8.45 -13,12.98 -5.68,5.64 -8.48,6.92 -8.04,16.59 27.19,5.66 56.99,5.23 84.18,10.24 39.58,7.28 91.96,39.8 127.3,59.59 9.29,5.21 18.78,10.59 29.3,16.51 4.55,2.55 10.25,6.13 14.52,8.63 9.39,5.48 7.96,5.46 18.46,6.73l4.2 -15.2z"/>
     <path class="fil15" d="M2115.24 1345.45c2.82,4.84 1.58,13.53 -1.76,16.95 -4.09,4.19 -23.98,9.78 -16.97,-20.07 7.75,-1.13 14.85,-3.54 18.73,3.12zm-43.91 -63.21c-4.9,2.25 -11.27,2.66 -17.93,5.71 -21.28,9.75 -27.33,15.33 -40.81,33.91 -14.11,19.45 -22.79,44.67 -15.94,79.62 3.82,19.48 25.89,45.89 40.53,56.4 22.36,16.05 66.25,24.52 97.72,8.81 32.61,-16.28 65.67,-68.48 51.81,-112.62 -19.33,-61.56 -79.99,-88.07 -115.38,-71.83z"/>
     <path class="fil15" d="M3196.87 1378.91c5.42,3.31 3.63,0.08 8.61,5.66 -1.39,16.3 -16.37,28.96 -24.08,10.61l-0.58 -16.06 16.05 -0.21zm-86.93 52.05c21.51,119.49 209.2,99.4 189.92,-37.13 -6,-42.48 -58.23,-89.12 -112.43,-76.01 -52.8,12.78 -88.28,53.18 -77.49,113.14z"/>
     <path class="fil15" d="M3336.19 1691.36c2.82,2.72 0.46,0.02 3.58,3.39 3.08,3.33 1.97,2.18 4.61,5.67 12.34,2.64 16.6,8.93 28.52,15.69 9.18,5.2 19.4,9.71 24.23,16.28 20.33,6.4 43.98,29.51 60.01,43.81 9.79,8.74 45.83,24.32 56.8,43.91 7,1.94 8.89,4.91 12.31,8.39 11.76,4.51 45.96,28.75 50.84,37.74 5.73,3.31 13.46,12.02 16.9,15.65 10.57,6.25 8.53,10 20.84,8.4 0,-32.61 11.34,-90.29 7.35,-116.29l-133.23 -75.47c-31.21,-15.62 -152.86,-46.2 -164.42,-19.66l11.66 12.49z"/>
     <path class="fil15" d="M3839.8 1893.55c-4.57,24.88 70.28,196.8 83.44,214.96l4.59 -16.47c1.5,-8.08 0.27,-8.54 5.5,-14.14 -0.24,-10.22 5.36,-22.22 8.88,-31.73 4.28,-11.61 7.95,-14.42 14.76,-22.64 4.73,-9.39 6.9,-12.18 15.53,-18.9 8.86,-7.56 29.64,-34.16 27.76,-47.51l0.49 -12.88c-64.54,-23.08 -146.11,-150.04 -155.34,-155.18 -13.9,31.98 -3.21,68.81 -5.61,104.49z"/>
     <path class="fil15" d="M1712.4 1713.45l0 121.7c20.49,-11.63 23.63,-21.43 46.6,-32.04 4.44,-2.05 0.64,0.23 3.93,-1.82l27.03 -24.67c6.4,-5.02 18.1,-15.52 25.1,-17.94 3.96,-5.45 0.61,-2.5 4.78,-6.41 5.69,-5.34 7.5,-3.21 15.13,-8.42 10.36,-7.06 5.3,-8.52 17.57,-14.02l19.33 -15.24c7.77,-5.98 16.07,-11.35 23.84,-16.45 5.39,-3.53 6.64,-4.39 11.86,-8.52l24.45 -15.82c8.18,-4.85 5.68,-4.45 13.56,-5.12 5.52,-9.27 0.23,-3.92 11.69,-10.73 3.9,-2.31 9.24,-4.63 13.05,-6.85 -0.22,-0.64 -0.07,-1.65 -0.09,-2.04l-0.18 -3.95c-0.04,-0.48 -0.03,-1.4 -0.1,-1.88 -3.07,-20.52 -40.26,-8.44 -58.69,-6.37 -66.07,7.39 -80.98,11.04 -138.85,44.3 -17.59,10.1 -43.34,27.31 -60.01,32.29z"/>
     <path class="fil15" d="M1712.4 1553.65l0 144.68c16.06,-4.43 72.87,-41.06 103.9,-54.11 56.91,-23.93 108.88,-17.25 127.87,-25.88 -1.11,-8.75 -26.72,-32.49 -34.94,-41.07 -47.68,-49.74 -103.7,-25.25 -196.83,-23.62z"/>
     <path class="fil15" d="M3774.62 1619.48l-9.93 1.72c-3.01,44.47 -12.57,24.94 2.3,37.31l8.89 11.29c8.89,18.88 6.13,25.74 5.51,49.43 -0.51,19.27 -0.31,38.45 0.17,57.71 0.63,25.49 8.55,76.55 16.69,95.18 0.64,0.82 1.34,1.06 1.63,2.65 0.28,1.53 1.16,1.86 1.52,2.58 0.34,0.69 0.93,1.67 1.32,2.49l9.73 28.1c4.4,12.53 8.05,22.06 12.59,33.57 4.83,12.23 8.85,21.71 13.78,33.12 2.31,5.34 4.68,11.06 6.85,15.89l4.9 9.52c0.36,0.55 0.94,1.32 1.28,1.8l1.19 -10.44 -32.34 -103.39c-16.76,-66.12 -8.88,-52.52 -15.12,-89.91 -1.49,-8.93 -3.81,-6.49 -4.45,-26.86 -2.96,-94.57 22.49,-147.97 65.32,-207.07 46.17,-63.7 140.43,-151.51 215.38,-190.64l88.44 -45.62c-16.29,-4.81 13.97,1.25 -5.09,-1.28 -1.95,-0.26 -8.91,0.23 -10.95,0.57 -6.72,1.14 -11.52,3.4 -17.96,5.62 -51.38,17.77 -97.22,50.96 -139.39,79.71 -15.02,10.25 -8.15,10.13 -26.82,16.14 -5.51,1.78 -10.41,3.58 -15.45,7.74 -6.57,5.44 -5.77,6.03 -8.15,12.22 -6.71,17.41 -9.32,14.17 -20.84,25.03l-63.81 65.97c-46.05,49.64 -44.93,90.79 -87.19,79.85z"/>
     <path class="fil15" d="M3952.84 1580.86c5.67,1.85 70.06,-17.94 87.09,-20.98 40.46,-7.23 65.86,-5.89 107.34,-8.42 4.01,-17.73 3.45,-109.15 1.8,-130.53 -22.98,5.44 -61.39,36.39 -79.92,52.08 -12.82,10.84 -34.72,23.18 -50.11,39.3 -23.11,24.23 -44.91,40.66 -66.2,68.55z"/>
     <path class="fil15" d="M3728 1577.67c7.3,-5.43 7.67,-8.29 16.81,-14.09l-1.43 -1.94c0.26,-0.96 0.64,-3.39 0.82,-2.88 0.43,1.17 1.16,-3.89 1.69,-5.04 2.82,-6.14 0.07,-0.35 2.91,-4.57 -6.3,-2.8 -174.35,12.41 -207.9,15.09l-23.83 2.35c-7.83,2.69 -2.02,-0.68 -7.5,4.13 14.75,5.24 202.91,11.7 218.43,6.95z"/>
     <path class="fil15" d="M3627.5 1459.66l20.27 -0.47c6.46,-36.37 -19.95,-159.5 -51.41,-167.81l20.18 77.58c5.54,25.08 4.97,72.42 10.96,90.7z"/>
     <path class="fil15" d="M3706.89 1643.75c-2.18,10.79 -6.43,17.06 -5.31,30.5l-1.3 16.79c11.73,-2.22 13.91,-4.29 20.81,-12.24 0.88,-1 1.79,-2.19 2.65,-3.21l2.77 -3.23c-0.62,-39.37 19.26,-15.44 24.12,-42.06 1.23,-6.77 2.12,-11.39 0.01,-17.74 -12.03,-4.68 -15.05,2.45 -22.63,9.54l-21.12 21.65z"/>
     <path class="fil15" d="M1762.6 1360.01l1.44 -21.31 -4.92 -6.31c-7.62,-12.61 -5.46,-22.46 -15.01,-27.48 -4.34,15.61 -10.59,66.18 -6.73,81.84l18.58 -22.21c5.59,-4.47 -1.62,0.09 6.64,-4.53z"/>
     <path class="fil15" d="M3736.77 1457.53c-1.07,-26.8 -22.11,-74.7 -40.66,-83.9l22.46 83.83 18.2 0.07z"/>
     <path class="fil15" d="M3558.75 1369.14l-1.7 -24.67c-6.45,-5.87 -2.89,6.89 -5.65,-5.81 -18.36,30.64 -26.27,58.89 9.47,82.08l-2.12 -51.6z"/>
     <path class="fil15" d="M3534.47 1457.11l26.55 0.04c0.09,-13.11 -4.16,-18.16 -10.17,-25.95 -5.47,-7.08 -9.19,-10.43 -15.19,-14.77l-1.19 40.68z"/>
     <path class="fil15" d="M1760.63 1379.56c-5.79,5.05 -10.25,10.06 -15.88,17.02 -5.27,6.53 -10.68,12.97 -7.42,23.44l25.05 -0.61 -1.75 -39.85z"/>
     <path class="fil15" d="M1763.55 1239c-0.7,6.99 -7.39,17.14 -9.11,24.98l1.31 6.68 24.7 -22.09 4.82 -6.47 -0.63 -18.62c-13.07,2.35 -5.22,0.85 -14.94,11.03 -4.14,4.33 -0.7,1.17 -6.15,4.49z"/>
     <path class="fil15" d="M3515.68 1280.69l1.46 6.12c7.08,3.23 2.17,0.28 7.29,3.83l17.42 9.34c-0.66,-11.17 -10.4,-22.31 -17.01,-33.35l-11.61 -5.22 2.45 19.28z"/>
     <path class="fil15" d="M3608.86 840.08c17.01,-0.07 28.99,-9.87 28.98,-25.91 -12.79,0.15 -10.96,0.93 -17.87,7.93 -5.97,6.05 -9.62,7.36 -11.11,17.98z"/>
    </g>
    <g>
     <path class="fil16" d="M3608.86 840.08c1.49,-10.62 5.14,-11.93 11.11,-17.98 6.91,-7 5.08,-7.78 17.87,-7.93 0.01,16.04 -11.97,25.84 -28.98,25.91zm-202.07 89.28c-11.24,-4.47 -6.21,-4.92 -19.47,-29.2 -5.86,-0.32 -14.9,-2.53 -17.23,6.63l-0.76 39.86c-5.5,35.26 7,69.52 6.03,103.47l1.81 4.13c0.72,2.19 1.44,4.2 1.92,6.6 1.06,5.29 1.07,9.91 1.39,15.45 6.62,115.13 -17.76,84.65 87.92,114.25 53.98,15.12 54.97,23.81 78.52,30.63 33.73,6.81 10.46,34.65 66.73,-27.81 36.48,-40.5 42.13,-43.15 81.76,-74.07 14.93,-11.64 27.06,-29.61 47.63,-32.46 3.86,-2.09 9.36,-8.46 14.86,-14.33 8,-8.51 11.91,-11.19 9.61,-24.95 -27.78,-11.93 -86.01,18.88 -113.7,22.93l-16.64 7.33c-8.69,1.93 -17.01,2.38 -23.65,0.3 -32.63,-10.27 -2.62,-107.66 -0.25,-125.88l8.66 -41.74c12.6,-49.58 41.32,-88.76 43.84,-108.37l-4.53 -12.17c-22.03,-2.85 -25.71,-0.11 -36.58,14.04 -8.2,10.67 -14.46,18.75 -24.1,30.31l-135.85 161.17c-19.86,24.4 -15.05,21.53 -47.87,-46.92 -3.1,-6.46 -7.51,-12.78 -10.05,-19.2z"/>
     <path class="fil16" d="M1712.4 1202.6c9.5,-1.36 15.49,-3 23.15,-8.06 8.18,-5.42 13.61,-8.25 22.11,-12.5 18.85,-9.43 27.47,-13.99 49.36,-20.32 7.47,-2.16 2.33,-0.51 10.04,-3.8 6.92,-2.95 4.12,-1.9 12.81,-4.56 19.72,-6.04 75.03,-14.8 80.58,-22.2 9.97,-24.59 -3.49,-103.26 11,-119.81 -1.49,-25.34 5.46,-51.67 6.28,-81.97 0.96,-35.38 9.77,-75.5 -15.57,-68.68 -16.36,4.4 -48.91,102.18 -64.29,112.37 -9.7,-3.11 -13.04,-10.53 -20.04,-17.98l-97.77 -115.35c-10.67,-13.24 -6.07,-12.27 -17.66,-18.83l0 381.69z"/>
     <path class="fil16" d="M3449.62 2269.4c-8.28,-7.87 -18.25,-12.79 -27.28,-20.39 -48.36,-40.64 -87.28,-72.31 -124.8,-128.72 -9.19,-13.82 -32.05,-51.02 -31.46,-70.6 3.71,-7.84 -0.42,-0.79 3.81,-6.29 2.73,-3.56 0.04,-0.81 4.37,-4.57 58.84,-51.12 40.45,52.94 60.96,84.14 15.1,-3.08 14.69,-12.43 27.31,-36.19 7.49,-14.11 11.95,-26.87 21.69,-39.07 14.27,-1.29 21.6,-0.04 30.38,15.26l63.29 72.97c10.52,11.61 9.26,20.26 30.1,18.12l23.52 -59.91c2.43,-7.48 4.76,-13.81 8.36,-19.72 25.59,-0.8 70.33,30.62 103.02,27.39l2.04 -10.26c-36.31,-15.24 -17.66,-44.02 -63.02,-62.4 -16.46,-6.67 -27.71,-11.32 -43.73,-17.3 -9.58,-3.57 -13.81,-5.76 -24.35,-7.97l-21.88 -6.67c-10.1,-4.27 -9.6,-4.73 -22.55,-8.48 -8.26,-2.4 -16.11,-4.81 -24.21,-7.3l-143.2 -41.69c-3.73,8.45 -16.48,35.99 -25.14,42.4 -8.47,14.43 -14.88,29.84 -25.22,39.63 -1.96,-8.34 -4.02,-11.25 -5.77,-17.88l-12.32 -50.92c-4.76,-20.04 -7.92,-51.3 -8.07,-74l-0.96 -49.18c-2.55,-52.89 1.06,-89.74 -8.47,-138.53 -7.82,-40.06 -21.52,-75.38 -42.35,-100.56 -24.64,-16.83 -29.7,-43.58 -73.79,-43.69 6.93,44.31 81.48,40.9 96.45,181.34 4.69,44.03 0.47,87.84 3.95,131.97 5.79,73.37 40.31,198.46 77.75,262.08l19.2 32.98c28.22,41.15 123.87,125.72 160.98,122.33 -12.42,-6.49 -3.63,0.97 -8.61,-8.32z"/>
     <path class="fil16" d="M2172.94 1511.81c-59.78,24.91 -97.84,115.75 -99.22,201.55 -0.82,50.94 -0.41,102.13 -1.89,152.91 -0.7,24.13 -14.29,109.47 -27.95,120.6 -5.67,-4.19 -9,-10.37 -11.08,-18.12 -6.44,-12.38 -11.19,-18.7 -18.88,-32 -6.34,-10.97 -10.91,-21.03 -16.75,-31.51 -26.33,-1.22 -20.49,4.56 -38.56,10.44 -11.35,3.69 -27.41,6.86 -38.57,9.23l-141.14 42.79c-19.69,6.41 -49.77,22.09 -66.5,25.64l0 54.33c29.5,-5.02 22.41,-15.16 62.86,-10.62l9.67 71.76c2.31,19.11 22.32,7.67 28.41,-0.07 9.35,-11.89 14.05,-18.81 23.51,-28.82 11.47,-12.12 42.08,-43.94 47.04,-55.33 5.03,-10.04 11.68,-12.82 23.68,-16.07 12.79,8.7 16.99,23.4 24.67,38.53 5.66,11.16 14.11,35.01 28.05,40.18 16.3,-18.07 3.69,-34.6 17.22,-53.26l5.56 -33.98 3.28 -9.65c19.92,-1.45 23.45,4.42 35.61,13.18 8.64,6.21 22.75,15.14 5.71,26.41 -26.19,77.6 -113.45,155.3 -178.86,201.63 -2.64,13.83 -1.49,3.62 1.95,7.26 52.26,-14.68 116.27,-74.76 147.79,-121.14 36.29,-53.42 60.77,-118.94 80.51,-187.16l18.1 -113.22c1.44,-46.61 -0.48,-87.48 4.49,-132.01 8.69,-77.81 21.42,-85.8 66.54,-135.68 12.38,-13.69 29.04,-22.09 28.45,-40.82l-23.7 3.02z"/>
     <path class="fil16" d="M2314.82 1681.67c-10.05,100.41 -80.85,195.95 -100.19,253.75 -22.62,67.59 -32.57,85.05 -29.41,164.45 0.64,16.12 4.52,46.4 18.2,56.75 -3.88,-22.03 -6.19,-29.42 -6.85,-56.87 -0.47,-19.58 -0.48,-44.03 1.28,-63.41 8.4,-92.65 107.11,-214.38 112.02,-260.48 3.1,-15.72 12.21,-37.98 15.63,-54.44 2.05,-9.9 2.25,-21.27 3.04,-31.2 2.06,-25.67 3.47,-28.81 -5.23,-28.58l-8.49 20.03z"/>
     <path class="fil16" d="M2974.96 1777.8c0,22.87 37.45,95.61 49.71,116.54 10.37,17.7 52.7,94.77 56.15,109.72 25.7,17.24 21.08,141.68 20.29,169.24 6.95,-8.99 6.53,-18.8 7.9,-29.56 4.06,-32.04 2.57,-71.53 -5.71,-102.66 -29.86,-112.31 -42.28,-105.09 -90.26,-209.66 -7.35,-16.02 -32.38,-100.66 -33.23,-118.41l0.8 -2.33 -12.63 -13.02c-0.91,53.99 6.34,60.11 6.98,80.14z"/>
    </g>
    <g>
     <path class="fil17" d="M3109.94 1430.96c-10.79,-59.96 24.69,-100.36 77.49,-113.14 54.2,-13.11 106.43,33.53 112.43,76.01 19.28,136.53 -168.41,156.62 -189.92,37.13zm586.17 -57.33c18.55,9.2 39.59,57.1 40.66,83.9l-18.2 -0.07 -22.46 -83.83zm-617.48 -127.26c1.33,-17.83 17.8,-23.06 35.35,-23.37 -0.15,12.83 -1.16,12.94 -11.34,18.76 -7.64,4.37 -11.49,6.01 -24.01,4.61zm-176.9 152.96c31.81,-40.24 28.7,-18.69 59.91,-1.76 31.26,16.94 62.5,24.63 69.25,78.69 8.99,19.75 18.3,85.19 17.25,113.4 -0.67,18.13 -6.64,37.41 -14.12,50.18 -4.48,7.65 -7.18,12.66 -13.36,18.55 -8.11,7.71 -12.78,8.72 -17.85,17.99 5.71,-2.4 11.92,-6.44 21.1,-7.81 7.81,9.94 43.85,27.42 59.29,34.82 31.77,15.22 50.99,24.69 88.44,26.52 10.02,17.38 4.95,39.76 6.74,67.26 1.09,16.78 4.1,14.22 2.97,34.37 -0.82,14.63 -1.61,25.29 5.63,37.58 0.91,-23.4 -0.08,-48.54 -0.4,-72.06 -0.8,-60.28 -7.95,-124.95 -45.57,-169.01 -28.1,-32.91 -72.24,-57.25 -54.17,-79.39 23.07,-28.25 78.78,24.19 86.85,42.05 20.83,25.18 34.53,60.5 42.35,100.56 9.53,48.79 5.92,85.64 8.47,138.53 0.76,-0.49 1.33,-2.69 1.54,-2.26l3.96 -18.83c0,-7.57 -0.25,-15.54 -0.33,-23.18 -0.16,-14.9 -1.38,-29.43 1.11,-44.15 1.68,2.53 -5.09,-2.52 2.55,2.82 6.3,4.41 65.28,10.59 67.17,10.62 31.21,0.48 55.05,3.06 87.94,3.06 -1.39,-15.82 -1.24,-10.01 -11,-17.82 -6,-4.79 -7.21,-8.94 -13.5,-14.99 -3.45,-3.31 -11.29,-10.28 -15.85,-13.45 -4.91,-3.41 -4.01,-2.02 -8.66,-5.58l-2.48 -2.19c-0.23,-0.21 -0.85,-0.84 -1.04,-1.02l8.46 -2.41c-2.64,-3.49 -1.53,-2.34 -4.61,-5.67 -3.12,-3.37 -0.76,-0.67 -3.58,-3.39 -11.25,-3.36 -21.85,-10.86 -30.93,-17.1 -33.72,-23.23 -25.13,-31.47 -5.23,-53.65 23.35,-26.02 46.66,-44.82 68.34,-69.79 17.44,-20.1 24.39,-30.61 59.1,-32.43 59.51,-3.12 121.95,-2.98 181.58,-3.94 62.78,-1.01 123.02,-6.88 186.21,-4.67l-9.81 14.13c-10.66,10.17 -25.44,19.38 -30.5,32.02l13.47 -8.84c6.09,-4.62 6.49,-4.98 12.06,-10.82 13.54,-14.18 17.56,-12.1 20.98,-21.32 7.29,-14.46 11.75,-10.34 28.51,-13.18 7.42,-14.4 9.06,-14.94 -1.86,-29.14 -14.55,-8.68 -319.64,3.87 -368.81,5.04 -13.93,0.33 -29.22,-0.6 -43.01,0.56 -60.64,5.12 -76.54,51.58 -147.39,101.12 -6.98,15.95 -18.6,15.71 -24.96,1.51 3.99,-11.18 9.88,-15.15 19.82,-20.6 7.25,-2.8 42.68,-34.33 51.8,-42.35 12.24,-10.76 39.85,-35.77 54.23,-42.44l3.46 -2.82c0.41,-0.26 1.32,-0.96 1.83,-1.26 34.67,-20.8 88.19,-0.14 92.69,-20.65 0.82,-3.76 0.93,-7.09 0.97,-10.96 0.48,-47.6 -13.91,-113.52 -27.48,-157.56 -1.76,-5.73 -4.53,-11.56 -6.5,-16.5l-21.02 -48.34c-21.91,-42.94 -11.13,-15.99 -22.56,-32.55l-2.45 -7.98c19.57,6.12 30.17,26.86 41.48,46.48l17.03 43.71c42.58,0.94 25.42,0.71 55.43,-4.36 0.26,22.54 0.67,6.48 5.72,12.6 -1.36,-13.07 1.27,-9.61 -4.49,-19.03 -4.72,-7.71 -4.18,-1.61 -4.25,-14.97 9.83,2.41 3.98,1.94 14.31,7.38 9.76,-32.31 -3.63,-16.79 -10.79,-38.91 11.2,3.28 26.2,13.24 30.09,22.31 -0.89,13.14 -6.06,17.58 -18.05,19.57 0.44,0.75 1.17,0.93 1.43,2.17 0.3,1.38 2.4,3.37 2.89,4.09 5.51,8.15 0.88,-0.83 5.31,8.74 6.61,11.04 16.35,22.18 17.01,33.35 8.64,7.45 6.12,7.58 8.54,18.62 3.24,14.85 0.44,1.4 3.57,11.14 3.07,9.58 2.35,1.96 3.09,14.73l1.7 24.67c4.91,6 1.99,-0.96 4.66,9.92 0.42,1.72 0.98,9.35 1.09,11.45l-1.86 70.29 64.86 -1.14c-5.99,-18.28 -5.42,-65.62 -10.96,-90.7l-20.18 -77.58c31.46,8.31 57.87,131.44 51.41,167.81l92.9 0.43 8.99 -5.2c-0.81,-15.19 -3.18,-14.37 -5.92,-26.53 -1.24,-5.49 -1.18,-6.93 -2.68,-11.5l-2.41 -6.12c-0.87,-2.19 -1.67,-4.25 -2.48,-6.24 -19.9,-48.22 -11.86,-28.63 -51.51,-74.74 -6.72,-7.82 -8.11,-9.04 -15.82,-15.67l-17.48 -19.35c-12.01,-13.93 -19.85,-18.79 -37.39,-29.7l1.8 -11.52c-5.37,3.5 -2.8,2.33 -11.37,3.86 -15.01,-18.15 -44.71,-20.91 -57.48,-35.73 -23.55,-6.82 -24.54,-15.51 -78.52,-30.63 -105.68,-29.6 -81.3,0.88 -87.92,-114.25 -0.32,-5.54 -0.33,-10.16 -1.39,-15.45 -0.48,-2.4 -1.2,-4.41 -1.92,-6.6l-1.81 -4.13c-1.02,34.42 5.81,69.92 4.86,108.65l-7.14 -3.86c-0.67,-0.33 -1.49,-0.74 -2.21,-1.09 -1.35,-0.66 -8.06,-3.66 -8.12,-3.69 -45.36,-19.01 -78.27,18.28 -85.9,20.28l-35.67 5.17c-55.63,11.83 -59.48,5.88 -114.41,29.47 -12,5.15 -20.72,8.4 -32.66,13.85 -53.02,24.2 -92.07,62.42 -125.29,104.78 -8.21,10.48 -11.23,13.29 -19.82,26.5 -7.83,12.04 -8.21,18.84 -21.68,24.71 -16.39,7.14 -19.56,5.95 -25.59,24.44z"/>
     <path class="fil17" d="M2071.33 1282.24c35.39,-16.24 96.05,10.27 115.38,71.83 13.86,44.14 -19.2,96.34 -51.81,112.62 -31.47,15.71 -75.36,7.24 -97.72,-8.81 -14.64,-10.51 -36.71,-36.92 -40.53,-56.4 -6.85,-34.95 1.83,-60.17 15.94,-79.62 13.48,-18.58 19.53,-24.16 40.81,-33.91 6.66,-3.05 13.03,-3.46 17.93,-5.71zm145.24 -71.08c-11.81,-0.74 -24,-4.84 -28.86,-10.25 -6.96,-7.76 -0.74,2.95 -5,-11.83 26.2,0.04 31.2,3.21 33.86,22.08zm-504.17 -8.56l0 217.14 5.87 -8.89c4.21,-4.91 2.35,-3.43 8.86,-5.85l5.57 19.96c-1.15,-11.47 -0.99,-35.89 -1.14,-48.77 -0.14,-12.81 0.95,-30.5 1.99,-43.42l16.57 -63.52c2.62,-5.2 1.04,-1.99 4.32,-5.27 1.72,-7.84 8.41,-17.99 9.11,-24.98 3.58,-11.35 10.87,-17.25 17.99,-25.05l-8.23 0.29c-5.22,-11.94 -17.46,-13.84 -2.61,-27.6 5.63,-5.21 15.23,-12.18 23.54,-12.91 -0.6,6.51 -10,13.85 -17.25,21.06l4.46 18.28c6.3,-8.82 6.26,-10.7 19.3,-8.89 -1.4,14.13 -8.16,16.32 -10.26,31.51l5.76 -9.36c11.03,7.42 37.14,4.08 52.57,3.68 4.2,-14.16 3.22,-14.96 10.5,-26.93 5.86,-9.63 18.35,-53.74 48.03,-62.06 -1.24,5.47 -15.71,25.14 -20.32,32.42 -7.16,11.3 -12.3,24.14 -18.27,36.65 -3.17,6.64 -13.76,33.81 -15.09,39.85 -2.31,10.45 -1.68,13.18 -4.5,21.59 -10.08,29.98 -6.22,17.82 -8.81,46.94 -1.36,15.4 -2.6,5.48 -5.06,20.23 -2.45,14.75 -4.31,35.69 -5.77,49.06 -3.26,29.85 -5.45,35.46 21.02,35.59 16.58,0.08 35.96,-2.42 44.84,6.52 34.69,-0.4 58.86,31.86 83.96,51.04l56.78 47.09c10.33,8.99 11.43,7.56 11.23,22 -19.31,0.34 -45.71,-29.22 -66.84,-46.75 -82.1,-68.08 -54.57,-59.66 -161.47,-62.71 -37.23,-1.06 -69.3,-2.46 -106.65,-3.25l0 41.91c43.56,0.28 84.74,2.29 126.82,3.2 74.44,1.61 56.2,-0.43 119.39,63.05 2.42,2.44 4,4.15 6.86,7.06 24.08,24.49 60.11,52.29 44.76,72.8 -1.65,2.21 -35.23,23.58 -39.91,25.79 -3.81,2.22 -9.15,4.54 -13.05,6.85 -11.46,6.81 -6.17,1.46 -11.69,10.73 20.42,-0.13 -1.02,-1.09 15.91,-2.54 -11,4.19 -33.26,30.86 -38.93,35.15 -10.14,7.68 -10.73,6.53 -12.8,19.41 16.32,0.04 91.43,0.76 103.77,-2.77 4.32,-1.25 6.76,-3.01 14.93,-4.52 12.1,-2.24 26.28,-2.29 38.91,-1.81 0.45,21.55 -0.88,43.62 -0.49,65.3l2.24 66.17c1.97,35.62 -12.33,112.25 -25.24,140l-11.08 -14.32c2.08,7.75 5.41,13.93 11.08,18.12 13.66,-11.13 27.25,-96.47 27.95,-120.6 1.48,-50.78 1.07,-101.97 1.89,-152.91 1.38,-85.8 39.44,-176.64 99.22,-201.55 9.17,-10.92 22.49,-11.6 32.85,-3.26l9.19 8.89c0.77,20.08 -18.95,33.8 -32.08,46.94 -15.27,15.28 -23.79,22.07 -35.77,39.05 -36.64,51.91 -35.39,138.13 -37.17,205.25 -1.77,66.81 -15.31,141.96 -38.09,203.62 6.82,-5.44 13.35,-32.02 16.72,-42.78 5.12,-16.36 6.66,-31.58 11.13,-46.94 8.22,-28.2 6.84,-73.35 15.73,-98l-0.24 -51.91 48.1 -26.85c40,-25.03 47.31,-38.23 75.82,-64.98l14.46 -13.97c6.19,-7 20.18,-23.98 22.66,-32.34l11.11 0.62 -28.06 -36.07c-21.57,-45.49 -6.24,-133.98 5.56,-154.45 6.11,-59.85 41.44,-68.5 72.34,-84.33 17.78,-9.1 15.11,-16.11 31.13,-19.81 -47.14,-43.11 -45.89,-100.03 -184.09,-165.42 -42.4,-20.07 -88.8,-30.82 -140.29,-34.9 -36.21,-2.87 -36.02,-12.83 -44.8,-19.11 -32.04,-22.92 -58.17,-8.52 -81.99,4.16 -6.32,-37.89 5.35,-77.69 4.29,-113.87 -14.49,16.55 -1.03,95.22 -11,119.81 -5.55,7.4 -60.86,16.16 -80.58,22.2 -8.69,2.66 -5.89,1.61 -12.81,4.56 -7.71,3.29 -2.57,1.64 -10.04,3.8 -21.89,6.33 -30.51,10.89 -49.36,20.32 -8.5,4.25 -13.93,7.08 -22.11,12.5 -7.66,5.06 -13.65,6.7 -23.15,8.06z"/>
     <path class="fil17" d="M3844.26 1544.75c-7.13,10.96 -20.22,21.49 -29.1,26.33 -6.83,-4.91 -4.91,-4.82 -10.1,-10.25 -8.78,4.88 -24.76,9.89 -30.55,18.21 -11.91,17.13 2.5,29.1 -19.87,27.24l2.91 3.71c7.39,6.19 14.12,7.02 17.07,9.49 42.26,10.94 41.14,-30.21 87.19,-79.85l63.81 -65.97c11.52,-10.86 14.13,-7.62 20.84,-25.03 2.38,-6.19 1.58,-6.78 8.15,-12.22 5.04,-4.16 9.94,-5.96 15.45,-7.74 18.67,-6.01 11.8,-5.89 26.82,-16.14 42.17,-28.75 88.01,-61.94 139.39,-79.71 6.44,-2.22 11.24,-4.48 17.96,-5.62 2.04,-0.34 9,-0.83 10.95,-0.57 19.06,2.53 -11.2,-3.53 5.09,1.28l-88.44 45.62c-74.95,39.13 -169.21,126.94 -215.38,190.64 -42.83,59.1 -68.28,112.5 -65.32,207.07 0.64,20.37 2.96,17.93 4.45,26.86 6.24,37.39 -1.64,23.79 15.12,89.91l32.34 103.39c9.44,9.29 11.97,22.95 19.15,38.46 5.94,12.82 12.23,24.82 18.34,36.49 8.15,15.56 34.71,60.29 34.46,76.19 0.73,-0.81 1.47,-3.25 1.81,-2.73 0.31,0.49 1.27,-1.9 1.68,-2.64l4.89 -10.61 -0.04 -48.66c-5.23,5.6 -4,6.06 -5.5,14.14l-4.59 16.47c-13.16,-18.16 -88.01,-190.08 -83.44,-214.96l-4.98 -7.97c-13.5,-38.7 -21.88,-161.42 -13.69,-194.07 3.6,-14.34 10.69,-27.6 16.39,-37.9 41.97,-75.81 107.01,-159.99 178.32,-210.81 30.63,-21.83 108.05,-77.66 143.76,-83.46 6.3,5.73 2.36,-0.17 4.47,10.62 4.85,-5.31 2.47,-3.35 6.24,-9.01 10.08,-15.1 21.92,-16.43 24.24,-21.48 1.38,-35.65 -21.7,-25.14 -46.47,-17.86 -39.38,11.58 -114.32,52.96 -148.96,75.53 -69.02,44.97 -99.54,81.11 -154.86,147.61z"/>
     <path class="fil17" d="M3527.07 1461.19l4.71 -0.61c-3.26,-22.19 1.1,-43.09 0.32,-64.21 -0.33,-8.9 0.21,-24.07 -0.79,-31.23 -1.79,-12.76 -4.75,-14.43 -5.57,-32.18l0.31 -13.29c-2.89,-3.12 -1.9,-0.39 -4.17,-5.77 -2.16,-5.12 -0.96,-1.5 -1.94,-7.06 -1.52,-8.63 0.39,-8.95 -2.8,-20.03l-1.46 -6.12 -5.65 0 -1.87 8.99c-20.04,-16.11 -19,-13.21 -52.86,-11.87 -0.87,31.76 17.69,76.01 22.3,99.96 12.49,0.95 17.19,3.74 27.9,4.13 19.56,0.73 8.24,-1.54 21.57,-6.38l2.49 26.27 -9.95 -8.22c-11.25,-6.61 -25.13,-2.66 -41.93,-1.72 -0.84,19.75 3.58,12.36 4.94,30.31 0.78,10.39 0.44,23.14 0.69,33.81 7.69,0.66 41.16,-3.52 43.76,5.22z"/>
     <path class="fil17" d="M3641.84 1681.07l-10.07 61.24 -10.13 123.89 4.67 -1.56 2.86 -24.34c10.02,-6.5 8.07,-1.33 21.01,-13.33 5.82,-5.39 10.78,-11.14 16.96,-18.02 9.06,-10.07 23.01,-27.84 23.94,-44.18 -13.61,8.65 -30.11,56.94 -56.42,64.06 2.92,-12.6 28.98,-54.76 37,-72.71 5.42,-12.11 10.48,-25.31 15.4,-39.22 9.61,-27.09 3.99,-32.87 14.52,-42.65 -1.12,-13.44 3.13,-19.71 5.31,-30.5l0.21 -14.01c-11.71,-4.02 -11.47,-5.83 -25.04,-7.14 -5.62,7.35 -13.37,15.58 -22.06,26.91 -8.06,10.51 -9.55,22.46 -18.16,31.56z"/>
     <path class="fil17" d="M1780.45 1248.57c-3.98,12.14 -2.66,7.64 -4.08,21.01 -0.55,5.17 0.11,4.7 -1.66,10.27 -2.18,6.88 -3.01,6.47 -4.29,8.48l0.41 7.35c-1,17.53 -6.46,26.77 -6.79,43.02l-1.44 21.31c0.78,19.46 8.05,43.58 1.06,65.34l4 0.36c6.2,-22.56 0.16,-62.31 2.48,-87.16 12.59,-3.55 -5.13,5.8 16,5.65 5.72,-0.04 22.88,-2.4 30.03,-3.12 7.78,-10.57 15.81,-54.47 21.76,-73.06 3.29,-10.26 6.8,-17.34 6.36,-26.51 -58.84,-4.15 -40.03,2.31 -56.95,13.1l-2.07 -12.51 -4.82 6.47z"/>
    </g>
    <g>
     <path class="fil18" d="M3127.68 1897.96c11.83,3.16 8.65,2.15 8.65,17.29 -2.17,-2.49 -1.61,-0.59 -4.83,-6.7 -2.55,-4.83 -2.73,-8.15 -3.82,-10.59zm526.13 -827.47c27.69,-4.05 85.92,-34.86 113.7,-22.93 2.3,13.76 -1.61,16.44 -9.61,24.95 -5.5,5.87 -11,12.24 -14.86,14.33 -5.45,13.83 -55.82,69.79 -66.97,82.56 -33.47,38.31 -45.93,65.64 -60.3,83.65l-1.8 11.52c17.54,10.91 25.38,15.77 37.39,29.7 19.73,6.21 62.38,57.78 74.24,74.69 9.7,13.83 51.88,72.25 51.83,89.43l-36.76 1.23 -92.9 -0.43 -20.27 0.47 -64.86 1.14 -30.86 -0.22 -4.71 0.61c-57.05,2.95 -106.1,-1.8 -157.28,14.28 -14.38,6.67 -41.99,31.68 -54.23,42.44 -9.12,8.02 -44.55,39.55 -51.8,42.35 -8.78,16.15 -12.5,3.65 -13.63,25.21 8.45,-1.06 13.34,-3.41 18.77,-6.12 70.85,-49.54 86.75,-96 147.39,-101.12 13.79,-1.16 29.08,-0.23 43.01,-0.56 49.17,-1.17 354.26,-13.72 368.81,-5.04 10.92,14.2 9.28,14.74 1.86,29.14 -16.76,2.84 -21.22,-1.28 -28.51,13.18 1.37,14.87 7.78,41.94 15.13,51.57 13.55,-4.44 15.04,-13.89 27.67,-21.77 55.32,-66.5 85.84,-102.64 154.86,-147.61 34.64,-22.57 109.58,-63.95 148.96,-75.53 24.77,-7.28 47.85,-17.79 46.47,17.86 -2.32,5.05 -14.16,6.38 -24.24,21.48 -3.77,5.66 -1.39,3.7 -6.24,9.01 -20.06,80.46 -1.73,190.17 -19.68,222.22 -0.32,0.57 -1.24,2.7 -1.48,2.23 -0.26,-0.49 -0.98,1.57 -1.58,2.27 -6.99,58.47 -99.62,119.4 -109.19,154.28l-11.05 52.09c-4.72,45.9 7.01,67.75 -1.96,114.26l-10.83 31.54c-7.09,12.47 0.07,3.44 -8.04,8.27 1.88,13.35 -18.9,39.95 -27.76,47.51 -3.13,11.76 -6.01,14.3 -15.53,18.9 -6.81,8.22 -10.48,11.03 -14.76,22.64 -3.52,9.51 -9.12,21.51 -8.88,31.73l0.04 48.66c5.96,10.08 7.51,12.69 3.21,24.04 -4.45,1.97 -7.98,3.07 -15.09,0.89 -11.17,-3.44 -19.26,-15.7 -25.31,-25 -48.81,-74.98 -98.15,-184.09 -129.62,-268.42 -2.41,-6.49 -6.5,-19.07 -7.93,-24.19 -2.8,-10.02 -2.62,-14.15 -5.46,-22.83 -17.07,-1.89 -26.59,13 -61.13,29.19l-65.73 24.4 -4.67 1.56c-0.02,0.18 -0.45,11.11 -0.55,11.55 -3.24,14.43 1.86,4.6 -6.26,12.54 -12.31,1.6 -10.27,-2.15 -20.84,-8.4 -13.01,-4.63 -24.06,-4.28 -36.69,5.96 0.6,13.08 22.12,51.91 32.27,78.21 8.34,21.6 53.89,113.88 55.36,125.5l-2.04 10.26c-32.69,3.23 -77.43,-28.19 -103.02,-27.39 -3.6,5.91 -5.93,12.24 -8.36,19.72l-23.52 59.91c-20.84,2.14 -19.58,-6.51 -30.1,-18.12l-63.29 -72.97 -15.97 -6.85c-11.34,12.21 -18.69,22.6 -30.69,39.05 -14.37,19.7 -20.03,33.04 -35.61,32.27 -15.27,-28.56 -9.72,-68.94 -21.55,-92.46l-23.23 6.24c-11.04,4.65 -5.73,5.04 -21.47,8.47 -0.59,19.58 22.27,56.78 31.46,70.6 37.52,56.41 76.44,88.08 124.8,128.72 9.03,7.6 19,12.52 27.28,20.39 15.06,5.25 24.26,14.16 38.16,20.37 11.4,5.09 31.76,7.09 38.36,17.53 -0.67,0.44 -1.62,0.84 -2.19,1.04 -2.15,0.76 -13.58,6.6 -40.04,-0.11 -133.44,-33.83 -208.81,-123.11 -257.14,-250.18 -13.84,-36.36 -33.49,-107.38 -37.86,-146.83 -4.18,-8.1 -1.53,-25.54 -3.6,-35.58 -3.17,-15.39 -8.01,-15.24 -21.64,-19.88 -44.2,-15.03 -90.08,-45.75 -126.04,-75.45l-16.76 -15.54c-6.38,-4.35 3.46,0.73 -7.6,-4.03 -0.03,24.58 9.25,27.17 12.96,53.75 8.4,14.19 17.73,41.8 34.81,72.32 18.52,33.08 40.61,83.71 52.93,120.08 18.2,53.7 31.57,168.38 -12.71,213.31 -8.4,8.52 -2.67,4.09 -12.78,7.77 -0.63,-34.34 11.94,-48.36 10.87,-116.69 -0.78,-49.3 -10.12,-69.88 -18.53,-107.22 -3.45,-14.95 -45.78,-92.02 -56.15,-109.72 -12.26,-20.93 -49.71,-93.67 -49.71,-116.54 -1.92,-2.09 -1.86,-1.42 -3.97,-5.2 -3.05,-5.47 0.8,3.36 -1.81,-3.83 -4.45,-12.29 -5.62,-65.94 -7.32,-81.25 -9.4,-5.07 -30.1,-5.48 -26.47,-34.73 1.58,-12.71 1.21,-11.27 8.74,-15.24 1.97,-10.55 2.67,-2.01 5,-13.28 12.2,-18.64 6.67,3.53 17.43,-33.39 -6.39,3.36 -2.63,1.71 -6.85,6.56 -10.14,11.65 3.62,0.28 -3.07,4.59 -1.57,-12.06 -1.33,-28.88 -1.32,-41.38 0.01,-7.89 0.44,-14.77 -1.22,-22.31 -7.69,-34.86 -1.11,-37.78 -5.85,-57.51 -2.08,-8.65 -8.69,-22.81 -10.64,-31.76 22.15,2.49 36.58,13.16 50.18,19 -4.87,-12.64 -10.05,-13.49 -23.08,-17.89 -11.3,-3.83 -22.05,-4.34 -32.73,-8.17 -16.22,-5.83 -39.37,-16.22 -30.25,-42.68 6.03,-18.49 9.2,-17.3 25.59,-24.44 13.47,-5.87 13.85,-12.67 21.68,-24.71 8.59,-13.21 11.61,-16.02 19.82,-26.5 33.22,-42.36 72.27,-80.58 125.29,-104.78 11.94,-5.45 20.66,-8.7 32.66,-13.85 54.93,-23.59 58.78,-17.64 114.41,-29.47l35.67 -5.17c7.63,-2 40.54,-39.29 85.9,-20.28 0.06,0.03 6.77,3.03 8.12,3.69 0.72,0.35 1.54,0.76 2.21,1.09l7.14 3.86c0.95,-38.73 -5.88,-74.23 -4.86,-108.65 0.97,-33.95 -11.53,-68.21 -6.03,-103.47 -8.04,-14.06 -7,-36.55 -0.68,-50.92l18.45 -0.39c8.47,8.2 16.24,20.44 19.69,34.02 2.54,6.42 6.95,12.74 10.05,19.2 32.82,68.45 28.01,71.32 47.87,46.92l135.85 -161.17c9.64,-11.56 15.9,-19.64 24.1,-30.31 10.87,-14.15 14.55,-16.89 36.58,-14.04l4.53 12.17c0.48,0.65 0.93,1.58 1.14,2.14 2.54,6.52 5.79,6.8 -1.41,31.85 -12.31,42.82 -42.59,200.79 -42.25,239.85 15.92,0.02 13.26,-4.04 30.56,-5.48zm-194.65 -152.65c-4.14,-17.76 -29.79,-58.95 -46.03,-66.39 -46.47,-21.29 -100.97,6.19 -100.97,57.74 0,17.33 1.75,28.3 4.16,44.84 2.43,16.66 0.45,30.62 1.71,47.3 1.23,16.11 5.82,23 5.75,43.26 -0.08,20.84 2.79,31.8 2.79,49.1 -34.08,0 -48.09,22 -77.64,26.13l-39.7 6.42c-60.24,11.72 -141.59,37.58 -189.12,76.07l-31.05 23.72c-0.44,0.4 -1.09,0.95 -1.54,1.34 -3.54,3.12 -4.28,3.63 -7.59,6.82l-57.14 63.93c-0.39,0.45 -0.97,1.08 -1.35,1.53l-2.67 3.1c-0.38,0.46 -0.94,1.1 -1.31,1.57 -1.52,1.93 -3.18,4.22 -4.76,6.77 -19.98,32.21 -43.25,28.1 -60.52,72.08 -4.42,11.23 -4.1,-1.87 -4.1,10.32l0 37.47c0,7.24 9.81,22.04 16.56,29.57 28.05,31.29 27.27,3.87 34.45,57.79l3.76 76.96c0,7.86 -8.78,18.93 -12.46,27.9 -0.26,0.64 -0.59,1.38 -0.85,2.02 -0.35,0.9 -5.9,18.46 -6.31,33.76 -1.18,43.91 15.33,40.39 25.8,59.85 7.18,13.34 5.7,38.04 9.68,53.74 0.2,0.8 2.54,7.73 2.8,8.73l6.38 25.33c1.19,4.06 1.32,5.21 2.58,8.95l2.4 6.25c19.59,52.21 47.7,97.06 72.34,146.74 8.54,17.21 19.11,32.07 24.84,50.1l1.39 4.38c0.3,0.89 1.23,3.35 1.53,4.23l4.72 15.46c9.57,31.22 9.28,69.13 9.28,103.15 0,15.85 -4.04,20.54 -5.55,34.81 -3.06,28.99 -16.02,57.21 7.89,83.92 26.2,29.25 66.84,18.37 90.63,-8.46 25.43,-28.7 31.75,-59.77 40.7,-94.78 4.97,-19.44 1.81,-45.99 1.81,-67.38 9.64,13.88 15.54,31.09 23.04,46.14 11.54,23.17 24.26,45.73 40.38,66.28 0.37,0.47 0.89,1.14 1.26,1.62 31.01,41.55 67.15,75.01 110.56,102.75l16.05 9.89c0.74,0.45 2.86,1.72 3.6,2.16l27.41 12.96c24.43,10.83 42.33,15.83 67.36,21.99 11,2.71 3.45,4.3 15.88,4.3 29.06,0 57.31,4.46 78.53,-16.58 2.62,-2.59 3.34,-3.26 5.48,-6.05 0.37,-0.48 0.9,-1.14 1.25,-1.64l2.2 -3.56c0.31,-0.58 0.67,-1.33 0.96,-1.93 7.24,-14.88 7.48,-26.17 2.46,-40.95 -14.01,-41.17 -59.52,-41.04 -91.46,-61.32l-67.32 -50.86c-10.42,-8.82 -19.17,-20.22 -30.11,-27.55 5.97,-8.91 8.63,-6.4 11.53,-17.29 17.03,4.55 27.43,26.49 38.32,39.51 9.1,10.86 19.61,22.55 32.05,28.48 20.09,9.57 47.45,8.27 66.46,-6.1l6.34 -5.19c12.58,-11.52 25.41,-35.94 26.9,-53.82 20.5,10.85 59.81,21.46 81.53,15.24 12.44,-3.56 20.66,-7.86 29.26,-16.86 0.41,-0.43 1,-1.04 1.4,-1.49 19.52,-21.79 17.56,-55.04 4.22,-78.72l-37.34 -80.85c-1.62,-3.91 -2.51,-5.74 -4.44,-9.97 -3.14,-6.88 -6.41,-12.24 -8.34,-20.49 4.28,-2.86 5.23,-3.7 9.8,-7.5l14.3 -14.52c18.22,-28.53 7.62,-13.78 44.47,-30.48 9.84,-4.46 2.35,-4.1 15.02,-5.15l36.24 84.83c0.84,2.11 1.64,4.07 2.47,6.18l57.77 118.07c18.04,30.84 31.73,67.19 59.96,89.94 54.39,43.84 111.63,8.96 111.63,-28.05 0,-42.74 -5.76,-32.31 -5.76,-66.3 0,-24.4 35.32,-57.26 49.43,-77.4 6.34,-9.07 10.35,-16.69 15.51,-27.74 14.88,-31.87 22.38,-67.92 26.63,-103.31 3.7,-30.84 -13.48,-85.64 11.06,-121.31l69.02 -75.11c12.99,-15.81 23,-35.73 31.35,-55.13 15.72,-36.52 14.01,-43.16 16.05,-81.96l5.6 -138.53c1.31,-32.72 53.43,-31.82 36.93,-99.99 -1.78,-7.33 -12.22,-25.2 -17.77,-31.25 -17.1,-18.63 -55.94,-18.96 -76.67,-12.76l-111.92 46.62c-52.68,27.34 -113.87,64.84 -154.52,107.78l-16 15.72c-7.27,-3.85 -7.98,-4.96 -14.11,-8.96 -43.65,-28.47 -18.27,19.98 -62.48,-52.82 -16,-26.35 -33.63,-49.83 -54.54,-72.29 -0.65,-0.71 -28.99,-32.61 -46.16,-46.09 -4.45,-3.5 -1.12,-2.14 -7.19,-4.34 0.36,-15.97 5.58,-14.33 13.85,-26.51l36.36 -44.35c7.46,-9.53 12.36,-12.87 20.23,-23.01 12.26,-15.79 26.39,-27.09 37.41,-43.3 17.56,-25.83 30.51,-35.16 30.51,-67.5 0,-21.47 -14.24,-37.67 -30.94,-46.89 -45.03,-24.86 -80.06,4.26 -107.42,6.53 0,-15.14 0.98,-10.31 3.93,-22.01l17.84 -91.71c13.19,-51.65 36.13,-121.71 -27.89,-151.13 -21.13,-9.71 -46.79,-6.51 -67.44,3.91 -18.12,9.13 -54.23,59.47 -71.01,78.88l-80.26 92.7z"/>
     <path class="fil18" d="M2159.18 1877.78c1.53,-6.57 2.23,-6.63 2.88,-14.41l8.65 0c-6.98,10.41 -3.81,11.29 -11.53,14.41zm-446.78 -1056.87c11.59,6.56 6.99,5.59 17.66,18.83l97.77 115.35c7,7.45 10.34,14.87 20.04,17.98 15.38,-10.19 47.93,-107.97 64.29,-112.37 25.34,-6.82 16.53,33.3 15.57,68.68 -0.82,30.3 -7.77,56.63 -6.28,81.97 1.06,36.18 -10.61,75.98 -4.29,113.87 23.82,-12.68 49.95,-27.08 81.99,-4.16 8.78,6.28 8.59,16.24 44.8,19.11 51.49,4.08 97.89,14.83 140.29,34.9 138.2,65.39 136.95,122.31 184.09,165.42 23.37,4.8 30.78,22.08 27.97,47.23 -41.07,26.63 -35.79,14.31 -59.64,24.78 -5.68,2.49 -5.98,2.37 -12.37,4.85 -9.5,3.67 -16.98,9.15 -19.75,19.36 5.25,-2.55 27.67,-23.92 54.34,-23.05 -1.62,7.99 -8.78,23.45 -10.41,31.89 -6.08,31.37 -5.41,87.16 -8.71,120.14 -6.45,-10.06 0.84,-5.92 -10.81,-12.67 1.75,5.91 2.53,9.3 4.6,15.19 5.08,14.5 -0.98,3.72 7.53,12.27 10.53,10.58 12.36,8.85 16.71,23.67l2.02 26.25c-4.98,18.56 -15.21,14.07 -26.27,23.65 -0.67,26.06 -0.73,42.93 -4.54,67.91l-19.13 53.9c-4.91,46.1 -103.62,167.83 -112.02,260.48 -1.76,19.38 -1.75,43.83 -1.28,63.41 0.66,27.45 2.97,34.84 6.85,56.87 2.14,15.94 6.09,15.67 5.27,35.88 -32.48,-7.95 -43.25,-77.53 -43.16,-115.81 0.03,-11.91 -0.54,-25.68 0.26,-37.37 1.56,-22.57 12.01,-58.89 19.35,-81.93 1.18,-3.68 3.6,-8.74 5.83,-13.02 16.33,-31.21 30.3,-67.79 51.55,-107.3 13.15,-24.45 42.54,-84.11 41.99,-116.44 -4.29,2.03 -99.39,93.68 -169.06,103.95 -8.89,24.65 -7.51,69.8 -15.73,98 -4.47,15.36 -6.01,30.58 -11.13,46.94 -3.37,10.76 -9.9,37.34 -16.72,42.78 -2.74,36.63 -68.88,146.39 -107.24,178.3 -27.01,22.47 -54.32,43.76 -83.73,57.34 -24.9,11.5 -83.1,36.74 -113.12,24.23 9.5,-10.17 24.11,-12.53 40.25,-19.04 15,-6.05 27.59,-15.36 40.78,-21.57 65.41,-46.33 152.67,-124.03 178.86,-201.63l2.03 -16.06c-14.14,-4.82 -32.5,-15.06 -46.63,-13.88l-5.56 33.98c-0.41,8.94 -5.72,48.88 -11.07,54.61 -3.12,3.35 -4.94,6.35 -12.09,2.28l-57.47 -71.76c-11.66,2.89 -1.06,0.65 -12.99,5.49 -4.96,11.39 -35.57,43.21 -47.04,55.33 -9.46,10.01 -14.16,16.93 -23.51,28.82 -6.09,7.74 -26.1,19.18 -28.41,0.07 -2.33,-2.34 -1.27,1.22 -5.6,-6.46l-23.69 -62.74c-12.88,-0.25 -29.58,8.81 -43.24,11.24l0 54.66c23.4,-5.45 12.53,14.52 32.8,42.15 26.69,36.39 75.38,32.53 110.02,-8.86 1.61,-1.92 0.99,-1.24 2.6,-3.16 10.86,-12.92 22.44,-29.58 36.17,-38.78 2.91,10.9 5.57,8.39 11.53,17.3 -13.68,20.43 -48.8,46.69 -70.77,61.82l-23.95 16.41c-4.88,3.11 -1.03,0.85 -5.13,3.52 -21.54,13.99 -50.46,16.43 -69.06,31.83 -10.69,8.86 -16.35,17.25 -20.6,31.49 -5.62,18.8 0.94,36.74 12.82,48.94 27.27,27.99 75.5,20.3 108.15,11.3 7.25,-2 6.32,-2.02 10.91,-3.51l23.93 -7.78c0.67,-0.25 1.43,-0.53 2.1,-0.77l22.5 -9.21c33.55,-15.82 64.34,-36.45 92.43,-60.35 0.45,-0.38 1.11,-0.93 1.57,-1.32 1.92,-1.62 1.23,-0.98 3.16,-2.6l29.07 -28.58c0.39,-0.45 0.94,-1.1 1.32,-1.56l29.48 -36.82c5.02,-6.23 3.51,-3.47 7.27,-10.03l18.69 -30.31c4.62,-8.38 7.48,-14.15 12.02,-22.57l21.63 -47.55c0,43.95 0.89,75.48 14.43,112.4 7.13,19.41 17.23,37.55 30.88,52.72 1.93,2.14 2.39,2.68 4.08,4.57 4.4,4.91 0.92,1.94 5.56,5.96 0.19,0.16 5.83,4.08 6.86,4.67 4.09,2.37 58.25,24.86 81.11,-22.98 4.69,-9.82 3.38,-1.87 4.24,-15.94 1.51,-24.59 -4.31,-35.75 -5.97,-57.75 -1.93,-25.5 -5.54,-19.9 -5.74,-60.61 -0.19,-41.12 9.89,-85.46 29.26,-120.65 2.77,-5.03 5.64,-11.04 7.76,-15.3l29.28 -54.31c2.48,-4.76 4.42,-7.76 7.21,-12.97 15.9,-29.69 31.21,-60.98 42.2,-93.29l6.57 -19.36c6.73,-20.66 9.08,-43.38 12.64,-65.2 3.19,-19.56 3.54,-14.46 14.32,-26.03 8.28,-8.89 11.16,-16.47 13.62,-29.62 5.81,-31.07 -3.24,-54.26 -13.83,-72.61l2.24 -114.83c4.45,-13.47 29.88,-23.5 40.52,-43.07 11.56,-21.29 12,-47.12 2.65,-69.12 -15.75,-37.07 -40.25,-38.29 -59.1,-67.74 -16.59,-25.92 -23.28,-29.16 -39.34,-47.13l-18.83 -21.53c-4.4,-4.31 -6.13,-5.84 -10.58,-9.6 -20.28,-17.1 -39.58,-33.77 -62.79,-46.75 -25.53,-14.27 -52.9,-27.79 -81.23,-36.94l-111.11 -27.25c-38.07,-6.17 -30.46,-12.96 -62.83,-23.66 -29.01,-9.59 -31.68,8.08 -24.91,-54.97 4.01,-37.31 21.71,-138.5 1.35,-169.37 -2.02,-3.06 -2.89,-4.05 -5,-6.53l-5.63 -5.91c-1.53,-1.48 -9.34,-8.24 -10.98,-9.19 -35.14,-20.39 -73.95,-6.25 -90.93,22.14l-24.7 41.61c-13.67,-9.16 -100.16,-116.78 -123.94,-144.14l0 84.68z"/>
     <path class="fil18" d="M3276.85 1982.15c11.91,-28.95 34.34,-60.56 46.18,-86.89 -3.2,-7.08 -12.38,-3.6 -22.34,-4.7 -10.24,-1.12 -13.98,-3.64 -23.83,-4.96 -20.38,-2.73 -27.92,-8.74 -51.39,-6.62 0.15,22.7 3.31,53.96 8.07,74l12.32 50.92c1.75,6.63 3.81,9.54 5.77,17.88 10.34,-9.79 16.75,-25.2 25.22,-39.63z"/>
     <path class="fil18" d="M1971.13 1856.47c4.03,10.55 1.75,3.18 6.94,12.23 2.67,4.64 3.21,6.02 6.06,11.51 5,9.67 10.03,16.29 13.04,25.03 5.84,10.48 10.41,20.54 16.75,31.51 7.69,13.3 12.44,19.62 18.88,32l11.08 14.32c12.91,-27.75 27.21,-104.38 25.24,-140 -19.61,-1.34 -29.76,4.36 -48.04,6.65 -10.59,1.32 -13.82,3.6 -23.48,4.92 -8.2,1.12 -17.94,1.12 -26.47,1.83z"/>
     <path class="fil18" d="M1712.4 1437.29c37.35,0.79 69.42,2.19 106.65,3.25 106.9,3.05 79.37,-5.37 161.47,62.71 21.13,17.53 47.53,47.09 66.84,46.75 0.2,-14.44 -0.9,-13.01 -11.23,-22l-56.78 -47.09c-25.1,-19.18 -49.27,-51.44 -83.96,-51.04l-127.73 -4.16 -4 -0.36 -30.33 -0.38 -20.93 -0.37 0 12.69z"/>
     <path class="fil18" d="M1712.4 1917.61l26.42 -62.26c-3.42,-10.95 1.59,-4.16 -12.68,-9.07 -7.75,-2.67 -3.54,-2.41 -13.74,-3.38l0 74.71z"/>
    </g>
    <path class="fil19" d="M3369.33 946.65l0.76 -39.86c2.33,-9.16 11.37,-6.95 17.23,-6.63 13.26,24.28 8.23,24.73 19.47,29.2 -3.45,-13.58 -11.22,-25.82 -19.69,-34.02l-18.45 0.39c-6.32,14.37 -7.36,36.86 0.68,50.92z"/>
    <path class="fil20" d="M3181.4 1395.18c7.71,18.35 22.69,5.69 24.08,-10.61 -4.98,-5.58 -3.19,-2.35 -8.61,-5.66 3.1,11.69 4.44,5.9 -0.01,16.8 -11.25,3.29 -0.52,4.3 -15.46,-0.53z"/>
   </g>
   <path class="fil1" d="M2889.52 2499.71l15.26 0 0 28.75 -15.26 0 0 -28.75zm0 41.14l15.26 0 0 116.1 -15.26 0 0 -116.1zm1294.78 75.19l-15.26 0 0 -116.33 15.26 0 0 116.33zm0 40.91l-15.26 0 0 -28.75 15.26 0 0 28.75zm-1211.81 0l-30.52 0 0 -157.24 40.77 0 39.96 114.37 39.84 -114.37 40.66 0 0 157.24 -30.3 0 1.07 -114.15 -39.74 114.15 -23.18 0 -39.84 -114.15 1.28 114.15zm233.37 0l0 -12.86c-4.02,5.38 -8.67,9.4 -13.87,12.02 -5.23,2.61 -11.2,3.94 -17.87,3.94 -14.89,0 -26.36,-4.57 -34.35,-13.71 -8,-9.14 -11.98,-22.27 -11.98,-39.41l0 -68.74 27.86 0 0 53.34c0,16.03 1.85,27.01 5.53,32.91 3.69,5.9 10.03,8.85 19.02,8.85 9.25,0 15.85,-3.32 19.87,-9.92 4.02,-6.63 6.01,-17.87 6.01,-33.68l0 -51.5 27.2 0 0 118.76 -27.42 0zm137.11 -76.52c-3.31,-6.19 -7.55,-10.83 -12.68,-13.93 -5.16,-3.1 -11.24,-4.64 -18.31,-4.64 -9.33,0 -17.18,3.39 -23.49,10.13 -6.3,6.78 -9.43,15.26 -9.43,25.47 0,10.07 3.21,18.43 9.66,25.14 6.45,6.67 14.52,10.03 24.25,10.03 7.48,0 13.71,-1.63 18.65,-4.83 4.98,-3.21 8.7,-8 11.13,-14.42l29.42 0c-3.61,14.56 -10.62,25.96 -21.05,34.25 -10.43,8.29 -23.11,12.42 -38,12.42 -8.77,0 -16.88,-1.55 -24.37,-4.68 -7.48,-3.13 -14.26,-7.78 -20.31,-13.9 -5.6,-5.75 -9.99,-12.49 -13.16,-20.23 -3.17,-7.71 -4.75,-15.6 -4.75,-23.56 0,-8.36 1.44,-16.14 4.31,-23.44 2.88,-7.26 7.12,-13.79 12.76,-19.61 6.19,-6.56 13.15,-11.54 20.93,-14.89 7.78,-3.39 16.11,-5.09 25.03,-5.09 14.52,0 27.13,4.13 37.78,12.43 10.66,8.25 17.66,19.38 21.05,33.35l-29.42 0zm75.75 -80.72l0 51.9c4.02,-5.38 8.66,-9.36 13.86,-11.98 5.24,-2.58 11.17,-3.87 17.88,-3.87 14.81,0 26.2,4.57 34.13,13.67 7.92,9.11 11.87,22.23 11.87,39.33l0 68.19 -27.65 0 0 -52.41c0,-16.26 -1.8,-27.31 -5.45,-33.1 -3.65,-5.79 -9.99,-8.7 -19.06,-8.7 -9.21,0 -15.85,3.24 -19.87,9.77 -4.01,6.52 -6.04,17.69 -6.04,33.54l0 50.9 -26.76 0 0 -157.24 27.09 0zm123.08 97.09c0,11.02 3.02,19.72 9.06,26.17 6.05,6.45 14.23,9.66 24.63,9.66 10.21,0 18.35,-3.28 24.44,-9.88 6.08,-6.56 9.1,-15.45 9.1,-26.58 0,-10.02 -3.17,-18.21 -9.55,-24.66 -6.37,-6.45 -14.37,-9.65 -23.99,-9.65 -9.96,0 -18.03,3.24 -24.29,9.76 -6.27,6.49 -9.4,14.9 -9.4,25.18zm-28.53 0.22c0,-8.33 1.54,-16.26 4.61,-23.77 3.05,-7.52 7.48,-14.2 13.3,-20.02 5.97,-5.97 12.72,-10.58 20.2,-13.79 7.48,-3.2 15.26,-4.79 23.33,-4.79 8.55,0 16.48,1.44 23.7,4.28 7.23,2.84 13.9,7.08 19.94,12.79 6.2,5.97 10.95,12.83 14.34,20.64 3.39,7.81 5.09,15.81 5.09,24.03 0,9.07 -1.47,17.33 -4.42,24.81 -2.95,7.48 -7.38,14.23 -13.27,20.27 -5.94,6.12 -12.65,10.77 -20.2,13.9 -7.56,3.13 -15.78,4.68 -24.62,4.68 -8.92,0 -17.07,-1.59 -24.41,-4.76 -7.37,-3.17 -14.04,-7.92 -20.08,-14.22 -5.79,-6.2 -10.14,-13.02 -13.09,-20.46 -2.95,-7.45 -4.42,-15.3 -4.42,-23.59zm233.39 -58.83l0 13.46c4.02,-5.39 8.66,-9.4 13.86,-11.98 5.24,-2.62 11.17,-3.91 17.88,-3.91 9.58,0 17.76,1.69 24.55,5.09 6.82,3.39 12.68,8.66 17.54,15.84 4.68,-7.04 9.95,-12.31 15.78,-15.74 5.82,-3.46 12.27,-5.19 19.31,-5.19 14.53,0 25.7,4.57 33.47,13.71 7.78,9.14 11.65,22.26 11.65,39.29l0 68.19 -27.2 0 0 -52.63c0,-16.11 -1.77,-27.09 -5.35,-32.88 -3.57,-5.79 -9.73,-8.7 -18.5,-8.7 -9.14,0 -15.67,3.24 -19.57,9.77 -3.95,6.52 -5.9,17.69 -5.9,33.54l0 50.9 -27.42 0 0 -52.63c0,-16.04 -1.81,-26.98 -5.46,-32.84 -3.65,-5.83 -9.99,-8.74 -19.06,-8.74 -9.21,0 -15.85,3.24 -19.86,9.77 -4.02,6.52 -6.05,17.69 -6.05,33.54l0 50.9 -26.76 0 0 -118.76 27.09 0zm199.19 58.35c0,9.99 3.32,18.36 9.99,25.1 6.64,6.75 14.74,10.1 24.33,10.1 8.7,0 16.33,-3.39 22.96,-10.13 6.6,-6.79 9.92,-14.71 9.92,-23.78 0,-9.66 -3.32,-17.95 -9.99,-24.88 -6.64,-6.97 -14.41,-10.43 -23.33,-10.43 -9.37,0 -17.33,3.28 -23.96,9.88 -6.6,6.59 -9.92,14.63 -9.92,24.14zm70.33 60.41l0 -14.59c-3.32,5.89 -7.96,10.25 -13.97,13.05 -6.01,2.8 -13.67,4.2 -23.04,4.2 -17.54,0 -32.21,-6.01 -43.97,-17.99 -11.76,-11.98 -17.66,-26.87 -17.66,-44.64 0,-8.36 1.48,-16.29 4.43,-23.77 2.95,-7.48 7.15,-14.08 12.64,-19.76 5.9,-6.27 12.42,-10.87 19.61,-13.86 7.22,-2.98 15.29,-4.5 24.29,-4.5 8.63,0 16.07,1.44 22.3,4.32 6.23,2.91 11.24,7.26 15.04,13.08l0 -14.3 27.09 0 0 118.76 -26.76 0zm-48.43 -134.24l22.04 -37.6 23.96 0 -31.85 37.6 -14.15 0zm117.43 94.88l0 1.62c0,5.23 1.33,9.47 3.98,12.72 2.69,3.28 6.16,4.9 10.4,4.9 4.01,0 7.33,-1.22 9.88,-3.65 2.54,-2.47 3.83,-5.57 3.83,-9.36 0,-3.54 -0.92,-6.42 -2.8,-8.7 -1.88,-2.25 -5.2,-4.54 -10.03,-6.82 -2.73,-1.22 -6.74,-2.91 -12.09,-5.09 -5.31,-2.17 -8.74,-3.87 -10.25,-5.08 -4.38,-3.62 -7.63,-7.63 -9.69,-12.06 -2.1,-4.42 -3.13,-9.51 -3.13,-15.18 0,-10.03 3.5,-18.51 10.5,-25.4 7.04,-6.93 15.52,-10.4 25.55,-10.4 10.58,0 18.91,3.06 25.06,9.18 6.16,6.16 9.51,14.75 10.1,25.77l-24.77 0 0 -0.67c0,-3.79 -1,-6.78 -2.98,-8.92 -2,-2.17 -4.76,-3.24 -8.3,-3.24 -3.1,0 -5.67,1.07 -7.74,3.17 -2.06,2.14 -3.1,4.79 -3.1,7.96 0,5.16 5.35,9.99 16.04,14.45 2.8,1.14 4.97,2.07 6.49,2.69 10.24,4.61 17.21,9.55 20.97,14.86 3.72,5.27 5.6,12.42 5.6,21.41 0,11.06 -3.76,20.24 -11.24,27.46 -7.48,7.23 -16.92,10.84 -28.27,10.84 -11.46,0 -20.68,-3.8 -27.72,-11.43 -7,-7.63 -10.84,-17.91 -11.5,-30.92l25.21 -0.11z"/>
  </g>
 </g>
</svg>
