<?xml version="1.0" encoding="UTF-8"?>
<!DOCTYPE svg PUBLIC "-//W3C//DTD SVG 1.1//EN" "http://www.w3.org/Graphics/SVG/1.1/DTD/svg11.dtd">
<!-- Creator: CorelDRAW 2017 -->
<svg xmlns="http://www.w3.org/2000/svg" xml:space="preserve" width="50.7998mm" height="33.8666mm" version="1.1" style="shape-rendering:geometricPrecision; text-rendering:geometricPrecision; image-rendering:optimizeQuality; fill-rule:evenodd; clip-rule:evenodd"
viewBox="0 0 5079.98 3386.66"
 xmlns:xlink="http://www.w3.org/1999/xlink">
 <defs>
  <style type="text/css">
   <![CDATA[
    .str0 {stroke:#585570;stroke-width:7.62;stroke-miterlimit:22.9256}
    .fil0 {fill:none}
    .fil3 {fill:#585570}
    .fil4 {fill:#A17BB6}
    .fil1 {fill:black}
    .fil2 {fill:white}
   ]]>
  </style>
 </defs>
 <g id="Capa_x0020_1">
  <metadata id="CorelCorpID_0Corel-Layer"/>
  <rect class="fil0" x="-0" width="5079.99" height="3386.66"/>
  <rect class="fil0" x="-0" width="5079.99" height="3386.66"/>
  <g id="_2293499541344">
   <path class="fil1 str0" d="M3094.71 1087.83c-12.51,-46.85 -30.71,-10.79 -43.22,-57.63 10.2,-17.51 55.39,2.67 64.84,7.2l0 50.43 -21.62 0zm7.21 -79.24c-20.57,10.19 13.66,7.2 -43.23,7.2 -45.63,0 -103.96,-8.32 -108.06,-57.63 23.38,6.24 4.46,0.69 20.52,8.29 115.56,54.72 99.67,-0.31 130.77,42.14zm93.65 -100.87c179.03,0 104.39,-27.12 180.11,-28.81 2.71,32.66 21.61,56.38 21.61,72.04 0,32.54 -38.48,21.6 -34.67,56.9 5.99,55.46 66.93,-20.4 40.32,92.84 -18.09,76.98 -7.38,92.26 11.29,150.8 5.89,18.47 -8.79,201.17 -16.94,218.17 -49.83,-13.31 -7.21,-9.49 -7.21,-72.05 0,-61.3 -41.2,-36.02 -50.42,-36.02l-108.06 0c-40.01,0 -42.73,-7.21 -79.26,-7.21 -1.7,20.48 -4.52,25.81 -8.74,48.92l-11.1 40.96c-8.55,11.17 -30.44,23.1 -26.39,-6.22 0.1,-0.67 13.27,-26.13 17.17,-40.56l3.6 -375.74c-1.53,-27.16 3.79,-8.46 -3.95,-40.9 -37.68,-157.8 -8.63,-73.12 72.64,-73.12zm-180.1 -201.71c0,-23.72 33.27,-35.41 53.55,-47.3l43.56 -28.49c126.04,-102.71 36.16,-100.13 136.78,-101.65 31.83,-0.47 53.02,4.52 83.09,18.95 0,67.69 -7.16,106.94 16.59,156.31 10.04,20.9 62.66,99.38 62.66,110.25 0,49.06 -145.06,79.24 -180.1,79.24 -126.08,0 -216.13,-91.72 -216.13,-187.31zm1253.53 230.53l0 -511.49 -19.59 -59.66c-21.22,-60.96 -83.88,-251.29 -114.15,-282.09 -24.68,-25.11 -65.97,-48.8 -75.18,-83.3l-36.03 0c48.81,72.89 94.14,89.05 114.49,137.66 94.03,224.65 122.23,333.11 123.27,611.59 0.55,146.26 -27.97,230.56 -101.85,337.61 -9.05,13.12 -12.71,21.22 -22.56,35.07 -37.03,52.04 -71.36,85.34 -115.13,129.82 -35.13,35.7 -22.35,29.5 -74.78,47.69 -6.98,2.43 -21.54,8.82 -25.52,10.49 -15.63,6.57 1,0.56 -20.98,7.85 -27.71,9.2 -32.12,4.21 -39.62,32.42l-3.02 90.64c-66.27,14.04 -6.62,1.6 -28.81,-93.65 -26.32,2.18 -117.98,56.02 -245.79,29.66 -25.85,-5.33 -98.15,-30.94 -109.41,-23.95 -44.02,27.33 47.45,80.74 -48.24,80.74 10.43,-44.75 27.94,-34.49 12.69,-84.2 -4.1,-13.36 -9.52,-32.05 -4.82,-51.44 7.79,-32.12 -1.64,0.77 20.95,-30.07l-33.69 -38.34c-16,-27.83 -22.63,-130.47 26.48,-163.37 -14,-20.92 -14.57,-9.67 -21.61,-36.02 56.36,0 189.22,-27.95 244.11,-44.07 43.38,-12.73 120.11,-35.38 159.35,-56.77 16.61,-9.06 30.31,-14.72 36,-36.04 -34.14,2.84 -21.69,10.3 -52.69,26.55 -90.54,47.43 -318.49,95.92 -422.79,95.92 3.97,-47.6 4.96,-18.28 114.36,-36.93 37.82,-6.45 81.81,-17.16 117.08,-27.01 38.46,-10.73 74.31,-18.38 111.36,-32.71 32.34,-12.51 74.12,-37.76 103.86,-40.23l0 -21.61c-23.19,5.4 -31.46,12.76 -50.55,21.49 -83.7,38.24 -299.09,104.14 -374.49,86.57 0,-58.22 -12.19,-53.19 -23.28,-95.31l44.89 -41.57c18.75,12.56 30.43,26.56 57.63,28.82 -8.34,-31.24 -5.3,-14.1 -32.73,-32.11 -34.64,-22.76 -56.96,-64.92 -82.28,-105.03 -17.95,-28.44 -28.92,-53.71 -29.46,-100.31 -0.72,-62.86 4.24,-63.06 14.8,-108.35 -48.71,13 13.64,20.37 -83.61,3.89 -48.49,-8.21 -59.35,18.03 -60.48,-32.71l-14.4 0c-11.44,42.83 -58.69,103.3 -93.48,129.85 -18.93,14.44 -43.72,31.43 -65.22,42.84 -34.29,18.19 -58.8,8.65 -86.25,21.82 19.35,26.41 11.83,6.55 43.22,21.61 0,130 73.29,123.06 86.86,194.13 5,26.22 3.84,17.37 10.15,41.53 12.13,46.45 -3.99,52.05 -50.78,43.16 -33.56,-6.38 -54.09,-16.67 -68.93,-39.98 -59.64,-93.61 -76.58,-361.37 -61.82,-474.65l24.89 -140.81c23.15,-145.96 78.18,-199.24 160.5,-322.18l-28.82 0c-5.4,20.25 -18.05,31.56 -30.9,48.35l-88.68 141.85c-25.35,55.27 -52.82,186.52 -59.52,250.26 -4.66,44.26 -5.31,267.85 1.78,305.99 7.74,41.65 18.49,81.2 28.88,122.42 26.15,103.72 11.56,26.33 11.56,125.31 13.04,8.73 10.3,9.47 26.92,16.31 72.62,29.87 17.69,-4.24 75.47,54.2 17.31,17.49 49.64,36.55 67.12,62.56 22.57,33.58 12.07,152.78 10.84,198.57 -0.42,15.5 -6.55,64.08 -11.33,75.11 -11.43,26.36 -23.09,13.22 -32.14,47.11 114.27,76.52 76.87,-55.48 93.66,-72.04 23.48,-10.86 111.88,-0.17 159.12,-0.63 32.7,-0.32 56.2,-4.77 49.07,34.09 -6.66,36.29 -19.81,11.73 -20.89,60.2 77.65,18.09 57.96,2.74 68.8,-3.06 33.74,-18.05 24.27,-8.35 68.08,-18.56 0.2,-2.44 1.73,-22.84 1.74,-23 0.02,-1.68 -0.21,-3.72 -0.2,-5.4 0.01,-1.68 -0.32,-3.75 -0.29,-5.4 1.26,-59.17 9.98,-18.63 121.58,-9.78l154.67 -10.31c27.94,-6.8 6.08,-8.16 39.49,-10.95 -1.16,51.62 -10.96,17.74 -21.61,57.64 28.33,42.32 44.46,25.7 93.65,21.61 0,-147.67 -15.04,-101.28 87.82,-142.71 80.59,-32.47 176.09,-159.65 226.38,-234.7 37.58,-56.08 44.52,-83.34 67.24,-134.46 6.79,-15.26 2.27,-6.39 7.59,-14.04z"/>
   <path class="fil1 str0" d="M1517 1455.25c5.79,-21.71 -0.1,-15.82 21.61,-21.61 -8.31,31.1 3.46,10.24 -21.61,21.61zm-605.16 -525.91c0,-21.89 12.5,-24.46 28.82,-28.81 0,70.66 43.53,120.48 -28.82,72.03l0 -43.22zm-36.02 -259.36c0,-29.2 19.8,-77.49 59.78,-98.71 86.23,-45.76 179.37,-58.82 261.72,7.76 53.28,43.08 77.89,159.17 26.51,201.23 -69.84,57.17 -216.9,64.21 -297.64,19.47 -44.96,-24.92 -50.37,-80.85 -50.37,-129.75zm1246.33 -669.98l-36.03 0c18.34,27.37 40.25,38.71 60.8,68.88 88.3,129.65 80.95,251.06 109.03,402.46 21.14,113.96 26.32,230.56 17.03,349.48 -7.83,100.23 -99.66,262.04 -178.23,333.26l-35.22 29.62c-109.76,94.74 -152.5,78.58 -131.08,169.72 8.84,37.6 -4.29,9.75 0.41,50.1 4.08,35.01 9.91,5.28 13.18,44.52l-21.61 0c0,-31.93 -2.71,-86.37 -19.83,-117.05 -10.37,-18.56 -14.5,-22.09 -38.01,-24.38 -18.75,-1.83 -11.35,0.46 -16.7,1.01 -99.43,10.35 -183.03,-9.32 -242.66,-3.98 -11.21,1 -9.59,1.29 -18.38,3.33 -1.3,0.31 -4.31,3.61 -5.21,1.99 -4.78,-8.53 -21.22,10.54 -29.62,35.23l-18.62 39.01 4.55 -64.62c-2.25,-33.7 -21.38,-36.33 -57.54,-48.08 -102.51,-33.26 -87.4,-48.94 -163.14,-89.02 0,-43.33 -17.67,-125.31 -14.11,-151.73 3.94,-29.2 24.22,-20.97 60.3,-25.41 72.39,-8.9 148.21,-14.61 215.06,-29.89 46.29,-10.58 71.35,-35.32 113.38,-45.11l0 -14.41c-30.37,2.53 -18.17,5.34 -46.33,18.51 -77.46,36.24 -171.37,38.95 -249.96,52.62 -42.78,7.43 -63.9,8.12 -114.35,8.12l0 -21.62c142.75,0 99.08,-8.8 210.12,-20.4 47.35,-4.95 150.71,-14.41 164.5,-66.05 -20.87,5.58 -31.58,16.51 -52.65,26.6 -43.18,20.69 -87.01,20.69 -134.4,24.09 -23.23,1.67 -41.6,9.06 -59.97,12.28 -34.96,6.12 -105.77,16.67 -124.84,-15.3 -5.95,-9.96 -13.06,-44.34 -19.14,-60.11 -7.76,-20.1 -15.1,-32.87 -19.64,-52.4l-14.42 0c1.91,22.84 5.03,25.91 12.29,45.36 28.17,75.4 24.11,56.9 9.33,120.35 25.02,37.35 40.63,33.45 43.34,100.73 3.33,82.33 10.14,192.71 -14.53,259.47 -25.14,68 8.77,86.46 -57.62,86.46 17.03,-73.13 7.19,-39.12 7.19,-108.07 -53.68,-4.46 -130.91,-14.76 -195.24,-7.94 -71.88,7.62 21.7,153.13 -85.71,101.59 14.11,-52.85 36.11,16.04 22.72,-94.64 -9.75,-80.62 3.89,-170.24 -1.13,-251.25 -1.66,-26.8 -9.6,-36.01 -5.17,-55.45 6.33,-27.74 10.47,-3.96 19.6,-38.11 0,-2.46 -36.02,-61.83 -36.02,-151.29 94.82,2.11 82.65,42.94 265.5,-15.46 94.97,-30.33 88.14,-294.32 -164.65,-294.32 -13.44,-57.69 36.88,-269.07 21.62,-291.79l-17.52 21.86c-18.36,55.45 -32.92,208.34 -32.92,269.93 -73.09,35.07 -128.91,32.03 -155.68,125.3 -37.79,131.68 58.78,151.31 69.23,191.69 12.68,48.92 -73.71,74.07 -35.5,143.37 26.15,47.45 48.58,-10.78 55.78,118.07 3.63,65.08 -2.92,127.43 -4.43,178.68 -0.69,23.19 10.34,50.81 5.97,85.79 -6.42,51.39 -21.82,6.73 -21.82,72.04 37.78,18.12 41.66,10.33 79.26,7.2 8.09,-34.74 6.31,-73.33 14.49,-109.67l187.22 8.81c0,23.99 3.42,41.22 -5.38,59.46 -11.64,24.14 -15.18,-5.95 -16.23,41.4 76.74,6.39 78.63,29.44 93.54,-57.74 5.83,-34.04 12.29,-30.44 18.97,-60.28 6.15,-27.54 -0.42,-51.88 2.34,-77.51 6.61,-61.33 58.45,5.05 83.28,19.01 90.48,50.8 122.24,-11.3 111.92,126.32 -4.29,57.23 -17.44,20.98 -29.09,64.61 35.03,23.45 29.02,21.61 86.45,21.61 10.72,-46.03 3.69,-98.05 14.41,-144.09 41.26,-3.43 29.43,-8.55 74.06,-2.25 83.91,11.83 146.71,2.25 228.51,2.25 15.27,31.82 11.94,56.48 13.59,101.68 1.82,49.71 20.56,35.21 71.64,34.09l22.84 -27.7c-20.61,-28.13 -16.55,0.23 -27.17,-37.67 -39.25,-140.05 22.16,-105.81 165.85,-248.69 85.97,-85.49 161.06,-206.17 171.35,-332.96 5.73,-70.8 12.85,-163.35 6.67,-244.9 -2.65,-35.03 -15.44,-75.15 -20.19,-109.49 -12.41,-89.67 -23.55,-181.06 -48.52,-268.46l-35.16 -87.31c-20.99,-38.14 -44.01,-81.06 -75.95,-111.36z"/>
   <path class="fil2 str0" d="M3318.05 1123.85c0,-20.57 2.26,-13.17 14.4,-21.61 2.03,24.33 4.24,16.17 4.2,34.2l-4.2 23.43c-14.44,-10.58 -14.4,2.48 -14.4,-36.02zm-50.44 -14.4c-5.31,-25.1 -9.31,-42.17 21.62,-50.44 -16.2,33.77 6.38,29.92 -21.62,50.44zm-144.68 -128.61c7.74,32.44 2.42,13.74 3.95,40.9l-3.6 375.74c-3.9,14.43 -17.07,39.89 -17.17,40.56 -4.05,29.32 17.84,17.39 26.39,6.22l11.1 -40.96c4.22,-23.11 7.04,-28.44 8.74,-48.92 36.53,0 39.25,7.21 79.26,7.21l108.06 0c9.22,0 50.42,-25.28 50.42,36.02 0,62.56 -42.62,58.74 7.21,72.05 8.15,-17 22.83,-199.7 16.94,-218.17 -18.67,-58.54 -29.38,-73.82 -11.29,-150.8 26.61,-113.24 -34.33,-37.38 -40.32,-92.84 -3.81,-35.3 34.67,-24.36 34.67,-56.9 0,-15.66 -18.9,-39.38 -21.61,-72.04 -75.72,1.69 -1.08,28.81 -180.11,28.81 -81.27,0 -110.32,-84.68 -72.64,73.12z"/>
   <path class="fil2 str0" d="M3181.16 828.48l0 -14.4 50.44 0 0 14.4 -50.44 0zm123.92 -27.37l-17.29 14.4 -14.42 -17.29 17.29 -14.4 14.42 17.29zm-195.96 12.97c0,-31.32 -4.02,-15.32 15.85,-30.26l12.97 15.84c-16.22,22.14 4.64,11.62 -28.82,14.42zm-93.65 -108.07c0,95.59 90.05,187.31 216.13,187.31 35.04,0 180.1,-30.18 180.1,-79.24 0,-10.87 -52.62,-89.35 -62.66,-110.25 -23.75,-49.37 -16.59,-88.62 -16.59,-156.31 -30.07,-14.43 -51.26,-19.42 -83.09,-18.95 -100.62,1.52 -10.74,-1.06 -136.78,101.65l-43.56 28.49c-20.28,11.89 -53.55,23.58 -53.55,47.3z"/>
   <path class="fil1 str0" d="M4269 2435.02l0 -50.43 -46.12 -61.95c-34.89,-46.85 -167.7,-163.28 -221.32,-203.73 -23.89,-18.04 -41.08,-24.13 -65.99,-42.07 -108.89,-78.47 -289.16,-113.44 -427.3,-85.56 -60.88,12.29 -137.49,42.06 -192.81,73.75 -12.54,7.18 -6.71,3.05 -18.02,10.79 -1.26,0.85 -2.9,2.18 -4.15,3.06l-185.18 146.2c-119.51,131.81 -135.33,163.23 -215.33,317.79 -66.38,128.26 -68.17,315.22 -57.09,460.95l25.78 183.72c11.01,53.03 6.88,103.69 41.54,152.4 41.35,58.08 19.53,45.25 54.82,46.03 -11.88,-50.98 -50.43,-50.64 -63.84,-145.08 -23.1,-162.76 -64.62,-418.9 -17.28,-570 29.06,-92.72 2.5,-50.89 57.92,-151.01 26.3,-47.51 43.83,-90.88 70.13,-138.79 19.23,-35.03 79.1,-96.69 108.85,-128.89l59.48 -55.8c1.04,-1.05 2.45,-2.65 3.49,-3.71l222.67 -144.74c28.19,-11.27 47.51,-15.14 76.35,-24.52 104.16,-33.85 246.36,-25.95 353.99,22.51 107.26,48.31 190.09,108.84 274.69,186.38 1.09,1 2.7,2.41 3.79,3.41 1.08,1.02 2.74,2.38 3.81,3.4l72.43 78.86c34.47,38.75 55.35,83.28 84.69,117.03z"/>
   <path class="fil1 str0" d="M810.98 2535.88l0 79.24 59.52 -142.19c48.28,-107.94 219.37,-244.8 312.54,-292.62 242.59,-124.52 473.66,-48.22 674.64,101.34 52.88,39.35 72.02,54.05 102.08,99.64 75.43,114.42 71.5,115.38 121.56,231.44 49.54,114.84 103.49,457.46 81.22,561.5 -11.66,54.52 -52.97,165.98 -83.61,211.74 55.43,-1.23 46.98,-30.76 82.45,-119.26 48.9,-122.04 19.41,-414.04 -18.54,-535.4 -16.06,-51.39 -25.79,-103.66 -47.31,-154.41 -63.89,-150.69 -126.3,-248.39 -260.04,-337.91 -310.38,-207.74 -558.34,-187.45 -832.22,42.51 -60.77,51.02 -27.82,21.11 -75.81,75.49 -117.79,133.42 -87.42,145.46 -116.48,178.89z"/>
   <path class="fil2 str0" d="M1055.93 2982.54c12.82,19.14 30.97,38.66 42.8,58.05 5.91,9.68 10.54,23.56 18.69,31.75 12.68,12.77 9.88,11.06 46.57,11.06l0 14.41c-35.56,0.79 -35.23,0.46 -36.02,36.02 21.61,-1.8 44.18,-12.52 58.38,-21.45 27.98,-17.61 14.49,-13.52 13.66,-50.59l21.62 0c2.78,33.46 -7.73,12.59 14.4,28.81 19.21,-9.21 56.66,-14.41 86.45,-14.41 0,-99.03 -41.95,-47.44 -122.31,-122.67 -30.93,-28.96 -20.37,-36.12 -77.67,-19.93 -32.1,9.06 -48.99,22.7 -66.57,48.95z"/>
   <path class="fil1 str0" d="M1221.63 3061.79l-21.62 0c0.83,37.07 14.32,32.98 -13.66,50.59 -14.2,8.93 -36.77,19.65 -58.38,21.45 0.79,-35.56 0.46,-35.23 36.02,-36.02l0 -14.41c-36.69,0 -33.89,1.71 -46.57,-11.06 -8.15,-8.19 -12.78,-22.07 -18.69,-31.75 -11.83,-19.39 -29.98,-38.91 -42.8,-58.05 17.58,-26.25 34.47,-39.89 66.57,-48.95 57.3,-16.19 46.74,-9.03 77.67,19.93 80.36,75.23 122.31,23.64 122.31,122.67 -29.79,0 -67.24,5.2 -86.45,14.41 -22.13,-16.22 -11.62,4.65 -14.4,-28.81zm-237.74 -100.87c4.32,5.91 134.6,61 127.72,178.72 -1.76,30.06 -17.37,53.15 -19.66,80.64 61.08,-40.9 -26.05,-37.2 124.7,-105.84 111.53,-50.79 162.69,2.15 192.28,-38.25 -37.15,-0.82 -31.03,-4.39 -64.84,-7.2 -2.33,-27.99 -6.5,-18.77 -7.2,-50.43 38.36,0 40.3,-6.5 72.04,-7.2l0 -21.62c-96.89,22.58 -223.33,-12.44 -223.33,-129.67l-14.41 50.43c-25.41,5.92 -55.39,5.68 -77.43,16.22 -18.31,8.76 -46.16,41.41 -52.24,41.41 -32.82,0 -32.4,-17.63 -57.63,-7.21z"/>
   <path class="fil1 str0" d="M1322.48 3213.07c12.83,0 22.5,41.45 115.88,49.92 56.5,5.12 80.74,8.52 134.25,-1.32 84.42,-15.51 160.51,-82.24 160.51,-171.07l-14.41 0c-3.94,47.38 -27.6,83.82 -55.39,110.31 -60.15,57.33 -141.23,48.19 -218.37,48.19 -76.66,0 -105.65,-57.64 -129.68,-57.64 -28.01,0 -47.57,5.57 -57.63,43.22 59.84,89.36 301.71,88.31 415.85,26.82 42.91,-23.12 95.65,-100.01 95.65,-163.69l-14.4 0c-0.91,40.25 -26.82,92.68 -53.23,119.68l-23.19 20.03c-74.13,55.69 -251.83,60.26 -333.41,32.36 -53.93,-18.43 -56.11,-21.52 -58.45,-49.6 16.16,-3.76 16.56,-7.21 36.02,-7.21z"/>
   <path class="fil1 str0" d="M3094.71 3249.1c0,-10.29 -14.51,-4.14 -14.78,-50.06 -0.17,-28.35 0.61,-34.91 -3.89,-60.95 -16.54,-95.51 30.68,-85.09 -17.35,-97.91 0,43.22 0.21,86.51 -0.06,129.73 -0.65,104.93 25.62,62.63 0.06,100.8 -31.35,-16.59 -35.34,-14.98 -28.2,-71.29 3.72,-29.29 16.68,-142.86 -0.62,-173.66 -11.29,8.28 -14.4,1.33 -14.4,21.62 0,69.69 -7.93,165.58 7.2,230.53 2.81,0.24 72.04,24.15 72.04,-28.81z"/>
   <path class="fil1 str0" d="M3894.38 3018.56c3.95,143 99.61,306.85 -14.41,252.15 2.46,-29.6 7.2,-16.1 7.2,-43.23 0,-38.93 -10.69,-73.2 -14.77,-114.9 -3.97,-40.66 -4.46,-83.64 -28.45,-101.22 0,57.46 16.55,132.37 26.36,197.81 7.73,51.59 -11.96,23.73 -11.96,54.33 0,36.98 93.66,56.02 93.66,14.41l-57.63 -259.35z"/>
   <path class="fil1 str0" d="M810.98 3162.65l7.08 7.34c0.96,0.83 2.71,2.48 3.82,3.37l58.7 34.96c36.15,15.8 55.92,11.96 103.31,11.96l0 14.4c-59.99,0 -96.5,0.38 -144.14,-28.76 -13.34,-8.15 -15.31,-12.66 -28.77,-21.66l0 21.61c24.6,16.47 61.64,42.12 100.5,43.58 9.83,0.37 66.39,1.07 72.72,-0.09 26.53,-4.87 29.57,-30.98 15.76,-44.76 -15.58,-15.53 -44.12,-0.34 -59.33,-0.06 -12.77,0.23 -46.58,-8.62 -57.92,-12.76 -52.23,-19.08 -52.61,-37.65 -71.73,-65.15l0 36.02z"/>
   <path class="fil2 str0" d="M3058.69 1015.79c56.89,0 22.66,2.99 43.23,-7.2 -31.1,-42.45 -15.21,12.58 -130.77,-42.14 -16.06,-7.6 2.86,-2.05 -20.52,-8.29 4.1,49.31 62.43,57.63 108.06,57.63z"/>
   <path class="fil1 str0" d="M3555.78 309.78c16.88,31.9 4.12,19.14 36.02,36.02 31.59,-16.72 36.02,-12.35 36.02,-50.43 -22.46,-11.89 -22.59,-14.41 -57.63,-14.41 -5.54,20.75 -2.85,12.17 -14.41,28.82z"/>
   <path class="fil1 str0" d="M3231.6 2715.99c15.09,0 25.38,-28.52 28.81,-43.23 -14.33,-9.6 -19.96,-13.11 -36.02,-21.61 -41.61,19.96 -40.84,12.29 -28.82,57.63 16.16,3.76 16.57,7.21 36.03,7.21z"/>
   <path class="fil1 str0" d="M1228.82 417.84c0,19.46 3.45,19.87 7.21,36.02 27.95,7.42 16.74,14.44 57.63,-7.2l0 -36.03c-48.89,-25.86 -64.84,-2.9 -64.84,7.21z"/>
   <path class="fil1 str0" d="M1207.21 0l-28.81 0 -100.86 180.1c38.75,-10.35 28.29,-32.72 63.26,-88.03 11.94,-18.88 20.49,-26.94 33.36,-45.88 12.65,-18.59 22.58,-30.55 33.05,-46.19z"/>
   <path class="fil1 str0" d="M1444.95 2672.76c9.59,0 30.95,-15.17 32.61,-30.2 1.23,-11.12 -6.65,-27.44 -25.4,-27.44 -45.8,0 -43.23,-2.43 -43.23,43.23 9.1,4.81 23.82,14.41 36.02,14.41z"/>
   <path class="fil1 str0" d="M998.29 2687.17c31.67,0 60.9,-73.01 -36.02,-50.44 0,45.13 -5.52,50.44 36.02,50.44z"/>
   <path class="fil1 str0" d="M1682.69 396.23c0,53.36 64.84,23.8 64.84,7.2 0,-16.5 -2.44,-8.38 -7.21,-28.82 -3.44,-0.82 -57.63,-24.04 -57.63,21.62z"/>
   <path class="fil2 str0" d="M810.98 3184.26c13.46,9 15.43,13.51 28.77,21.66 47.64,29.14 84.15,28.76 144.14,28.76l0 -14.4c-47.39,0 -67.16,3.84 -103.31,-11.96l-58.7 -34.96c-1.11,-0.89 -2.86,-2.54 -3.82,-3.37l-7.08 -7.34 0 21.61z"/>
   <path class="fil1 str0" d="M3109.12 338.6c48.81,32.68 64.84,17.06 64.84,-28.82l-28.61 -14.8c-27.66,14.91 -28,8.27 -36.23,43.62z"/>
   <path class="fil2 str0" d="M911.84 929.34l0 43.22c72.35,48.45 28.82,-1.37 28.82,-72.03 -16.32,4.35 -28.82,6.92 -28.82,28.81z"/>
   <path class="fil2 str0" d="M3051.49 1030.2c12.51,46.84 30.71,10.78 43.22,57.63l21.62 0 0 -50.43c-9.45,-4.53 -54.64,-24.71 -64.84,-7.2z"/>
   <path class="fil1 str0" d="M3282.02 353l0 14.41c29.31,0 142.05,-6.51 158.5,-14.41 -21.16,-28.87 -81.77,0 -158.5,0z"/>
   <path class="fil1 str0" d="M3581.01 2680.91c-0.93,9.14 5.42,17.72 10.79,27.87 65.22,0 72.07,-50.43 14.41,-50.43 -15.93,0 -23.78,8.67 -25.2,22.56z"/>
   <path class="fil1 str0" d="M3332.45 2701.57l0 14.42c101.44,0 124.85,19.04 144.08,-7.21 -31.92,-15.32 -99.75,-7.21 -144.08,-7.21z"/>
   <path class="fil1 str0" d="M1408.93 432.25l0 14.41 158.4 -8.77 0.1 -12.84c-25.64,0 -54.32,-1.27 -79.52,-0.28 -31.97,1.27 -38.56,7.48 -78.98,7.48z"/>
   <path class="fil1 str0" d="M1149.58 2694.37c27.76,0 98.41,-8.8 122.47,-14.41 -18.87,-25.76 -47.13,-6.26 -122.47,0l0 14.41z"/>
   <path class="fil1 str0" d="M3318.05 1123.85c0,38.5 -0.04,25.44 14.4,36.02l4.2 -23.43c0.04,-18.03 -2.17,-9.87 -4.2,-34.2 -12.14,8.44 -14.4,1.04 -14.4,21.61z"/>
   <polygon class="fil1 str0" points="3181.16,828.48 3231.6,828.48 3231.6,814.08 3181.16,814.08 "/>
   <path class="fil1 str0" d="M3267.61 1109.45c28,-20.52 5.42,-16.67 21.62,-50.44 -30.93,8.27 -26.93,25.34 -21.62,50.44z"/>
   <path class="fil1 str0" d="M1127.97 749.24l28.82 0 0 -21.62c-19.07,-5.06 -5.92,0.57 -21.61,-7.2 -5.05,10.17 -7.21,11.96 -7.21,28.82z"/>
   <path class="fil1 str0" d="M3109.12 814.08c33.46,-2.8 12.6,7.72 28.82,-14.42l-12.97 -15.84c-19.87,14.94 -15.85,-1.06 -15.85,30.26z"/>
   <polygon class="fil1 str0" points="1048.72,763.64 1091.95,763.64 1091.95,749.24 1048.72,749.24 "/>
   <path class="fil1 str0" d="M969.48 763.64c22.3,-1.89 13.62,0.09 28.81,-7.2 -8.52,-23.57 9.34,-5.24 -21.61,-21.62 -5.05,10.19 -7.2,11.97 -7.2,28.82z"/>
   <path class="fil1 str0" d="M1163.99 1138.26l14.41 0 0 -43.23c-20.84,15.28 -14.41,5.87 -14.41,43.23z"/>
   <polygon class="fil1 str0" points="3273.37,798.22 3287.79,815.51 3305.08,801.11 3290.66,783.82 "/>
   <path class="fil1 str0" d="M1106.36 1102.24l14.4 0c5.28,-24.9 13.76,-21.3 -14.4,-28.82l0 28.82z"/>
   <polygon class="fil1 str0" points="1214.42,1116.64 1228.82,1116.64 1228.82,1095.03 1214.42,1095.03 "/>
   <path class="fil2 str0" d="M1517 1455.25c25.07,-11.37 13.3,9.49 21.61,-21.61 -21.71,5.79 -15.82,-0.1 -21.61,21.61z"/>
   <path class="fil1 str0" d="M1113.56 1059.01l21.62 0 0 -14.4c-12.64,3.02 -19.31,0.9 -21.62,14.4z"/>
   <g>
    <path class="fil3" d="M3636.66 583.41l-3.75 -4.33c0.34,-11.5 18.3,-63.22 18.56,-75.1 10.79,0 21.98,-1.09 30.63,8.42 15.69,17.25 7.3,44.31 -8.05,58.59 -9.4,8.73 -24.14,12.13 -37.39,12.42zm193.86 -1.34l18.78 -71.43c1.45,-6.06 1.01,-8 6.8,-8 9.57,0 17.62,3.42 23.15,7.81 20.15,16.03 7.31,49.95 -6.75,61.09 -11.65,9.21 -21.59,10.53 -41.98,10.53zm-259.83 74.04c46.94,0 40.22,3.45 44.15,-12.4 1.35,-5.43 2.85,-9.9 4.05,-14.79 2.63,-10.71 5.98,-20.56 8.35,-30.7 13.68,9.16 19.75,25.57 57.1,41.18 44.75,18.7 75.7,16.71 123.3,16.71 5.07,0 5.43,-9.94 6.72,-14.82l14.82 -52.49c12.34,5.92 75.39,-5.03 75.39,-70.01 0,-17.08 -11.21,-31.75 -26.72,-36.56 -15.66,-4.85 -42.1,-2.48 -62.14,-2.48 -10.02,43 -26.76,94.81 -36.35,135.97 -45.59,0 -89.49,1.48 -128.05,-21.38 -4.66,-2.77 -3.78,-0.11 -5.23,-5.54 11.42,0 24.57,-5.63 32.52,-11.91 2.69,-2.12 6.51,-4.92 8.67,-7.49 18.68,-22.11 28.03,-60.74 3.48,-80.46 -4.12,-3.31 -8.4,-5.5 -14.53,-7.02 -7.71,-1.92 -57.79,-1.54 -58.49,-1.03 -2.57,1.92 -8.45,28.66 -10.1,34.44 -4.69,16.38 -36.78,133.56 -36.94,140.78z"/>
    <path class="fil3" d="M3974.57 594.18c0,20.44 22.46,18 35.03,12.14 4.49,-2.1 7.02,-5.4 12.09,-6.75 -0.43,5.23 -1.21,3.5 -1.35,9.42 43,0 30.05,4.77 37.86,-21.38 2.22,-7.43 3.91,-15.21 6.02,-23.6l12.67 -46.56 -33.66 0c-1.49,6.4 -16.79,68.68 -19.42,72.12 -1.97,2.56 -18.27,14.1 -18.27,7.3 0,-7 19.6,-72.38 20.19,-79.42l-33.66 0c-0.46,5.59 -2.87,12.82 -4.31,18.57 -3.81,15.24 -13.19,45.67 -13.19,58.16z"/>
    <path class="fil3" d="M3740.32 518.79l-28.27 0c-0.67,30.36 -37.73,92.89 0,92.89 5.29,0 13.19,-2.47 17.08,-4.46 4.67,-2.37 9.07,-6.37 13.88,-7.65 -1.41,2.95 -2.34,5.29 -2.69,9.42l33.66 0c0.78,-9.42 8.35,-34.73 11.04,-45.5l11.85 -46.04c-39.68,0 -31.69,-5.28 -38.23,21 -2.05,8.25 -4.15,15.71 -6.21,23.41 -4.88,18.27 -2.98,25.07 -12.44,31.99 -21.55,15.78 -12.39,-3.89 -10.44,-11.78l16.16 -61.93c0,-3.82 -2.88,-1.35 -5.39,-1.35z"/>
    <path class="fil3" d="M3916.68 602.26l8.89 -38.24c1.95,-6.43 3.02,-5.9 5.92,-10.23 7.84,1.83 5.51,1.86 10.77,5.39 -0.68,8.18 -4.83,18.84 -6.71,26.94 -2.09,8.99 -6.57,15.87 -18.87,16.14zm-6.73 -68.66c0,15.74 17.15,-19.93 39.04,-9.42 2.7,11.58 -3.79,17.41 -4.04,28.27 -5.41,-1.45 -21.87,-13.43 -41.36,3.06 -22.15,18.74 -20.22,56.17 0.98,56.17 12.41,0 15.13,-1.08 25.58,-8.07l0 5.38 35 0c0,-26.72 14.81,-50.42 14.81,-75.39 0,-28.52 -70.01,-21.23 -70.01,0z"/>
    <path class="fil3" d="M4060.73 608.99c40.18,0 31.03,6.53 39.32,-26.65l15.35 -58.69c1.43,-5.75 2.15,-9.43 3.78,-15.08 1.73,-6.02 3.48,-8.04 3.48,-15.36 -41.79,0 -30.33,-6.12 -39.32,26.65 -3.26,11.91 -22.45,81.99 -22.61,89.13z"/>
    <path class="fil3" d="M3837.25 649.38c1.1,-4.73 2.16,-8.87 3.55,-13.96 2.03,-7.44 0.38,-9.7 7.22,-10.27 0,10.46 -2.56,22.04 -10.77,24.23zm-14.81 6.73c22.66,0 37.7,4.94 37.7,-29.62 0,-3.63 -0.64,-3.71 -1.35,-6.73 -8.06,-3.87 -15.45,-2.69 -26.92,-2.69 -0.93,11.11 -9.2,28.93 -9.43,39.04z"/>
    <path class="fil3" d="M3881.68 633.44c-0.26,-0.44 -3.19,2.48 -0.9,-4.94 2.06,-6.68 0.93,-2.44 3.59,-3.49 3.7,7.72 -1.39,7.46 -2.69,8.43zm-21.54 22.67l13.46 0c1.16,-4.96 2.81,-9.53 4.04,-14.81l2.69 0c-0.13,5.86 -1.34,7.35 -1.34,14.81l13.46 0c0,-11.21 3.55,-9.59 -1.35,-18.85 11.62,-6.15 8.81,-13.08 4.04,-20.19l-24.23 0c-3.14,13.48 -7.76,26.13 -10.77,39.04z"/>
    <path class="fil3" d="M4007.18 633.07c0.95,-4.6 0.31,-5.5 3.74,-8.58 1.29,1.96 1.24,-0.07 1.57,3.44 0.57,6 -4.76,5.09 -5.31,5.14zm-19.15 23.04l13.47 0c0.16,-7.51 2.52,-7.3 2.69,-14.81l2.69 0c0,7.23 -0.9,10.55 0,14.81l13.46 0c-1.09,-5.15 0.62,-11.76 -1.34,-20.19 8.4,-2.25 10.99,-18.85 -1.35,-18.85l-20.19 0c-0.13,5.98 -3.18,13.59 -4.82,19.41 -1.54,5.47 -4.49,14.49 -4.61,19.63z"/>
    <path class="fil3" d="M3938.22 646.69c0,14.98 16.46,9.42 29.62,9.42 0.57,-6.82 3.81,-14.77 5.39,-21.54l-16.16 0c-0.75,3.22 -1.16,2.89 -0.67,6.33 0.83,5.86 2.12,0.88 0.67,4.44 -3.25,7.96 -7.87,5.99 -4.65,-5.9 2,-7.38 2.15,-13.9 8.69,-15.64l0 6.73c9.65,0 13.46,1.33 13.46,-4.04 0,-15.72 -36.35,-18.93 -36.35,20.2z"/>
    <path class="fil3" d="M3917.98 637.44c1.44,-4.17 0.16,-3.57 3.59,-5.54 -0.4,7.95 0.27,4.22 -3.59,5.54zm-21.49 18.67l13.46 0c1.2,-5.14 2.84,-5.63 4.04,-10.77l5.39 0 -1.35 10.77 13.46 0c0.1,-4.47 0.79,-4.76 1.15,-8.27l1.54 -30.77 -18.84 0c-1.1,4.71 0.32,0.4 -1.89,4.85 -4.28,8.62 -15.11,26.26 -16.96,34.19z"/>
    <path class="fil3" d="M4047.47 631.78c-0.28,5.85 1.08,3.58 -2.86,5.4 0.75,-4.21 0.11,-2.72 2.86,-5.4zm-24.43 24.33l13.46 0c0.9,-10.86 4.75,-10.67 9.42,-10.77 0,6.43 -0.91,5.58 -1.34,10.77l13.46 0 2.69 -39.04c-21.32,0 -18.23,-1.78 -22.91,8.05 -1.6,3.37 -3.05,6.18 -4.91,9.9 -2.87,5.74 -8.56,15.48 -9.87,21.09z"/>
    <path class="fil3" d="M4063.43 645.34c0,17.52 30.78,15.59 32.31,-2.69 -6.16,0 -8.1,-0.5 -12.12,-1.35 -2.17,4.1 -1.7,5.37 -5.39,8.08 -3.12,-3.75 0.45,-23.54 8.08,-25.58 1.7,4.1 0.54,0.31 0,6.73l13.46 0c0,-9.97 -0.95,-14.81 -14.8,-14.81 -8.48,0 -13.16,4.08 -16.14,9.44 -1.85,3.32 -5.4,14.97 -5.4,20.18z"/>
    <path class="fil3" d="M4097.08 656.11l24.24 0c2.52,-10.86 5.61,-9.42 -9.43,-9.42 3.98,-8.28 -0.55,-6.74 12.12,-6.74 2.01,-8.61 5.81,-9.42 -6.73,-9.42l0 -4.04c10.96,0 12.58,1.16 13.46,-9.42l-24.23 0c-0.53,6.38 -3.19,12.76 -4.84,19.39 -1.7,6.76 -4.43,12.63 -4.59,19.65z"/>
    <path class="fil3" d="M4119.97 582.07c0,13.44 11.73,24.84 3.11,23.8 -4.92,-0.59 -5.95,-8.19 -7.78,-3.08 -2.23,6.2 23.52,14.21 23.52,-9.95 0,-6.59 -5.2,-10.26 -5.39,-18.85 7.69,0.17 4.41,0.68 9.43,4.04 -0.13,-5.52 0.03,-5.14 -4.07,-6.84 -9.91,-4.12 -18.82,6.33 -18.82,10.88z"/>
    <path class="fil3" d="M4105.16 571.3c0,7.66 6.51,6.37 10.77,5.38 -2.61,3.56 -3.37,3.9 -9.42,4.04l0 2.69c7.8,0 10.67,-1.72 13.49,-6.72 4.37,-7.74 1.63,-7.69 -0.03,-14.82l-9.42 0c-1.82,2.71 -5.39,5.44 -5.39,9.43z"/>
    <path class="fil3" d="M3860.9 724.1c0.99,0 1.95,-0.72 2.43,-1.26 0.84,-0.94 1.11,-1.73 1.11,-3.11 0,-1.62 -0.69,-3.98 -1.38,-5.4l-2.23 -4.7 0 0c-0.02,0.08 -2.13,4.49 -2.5,5.49 -0.11,0.33 -0.19,0.67 -0.32,1.04 -0.53,1.64 -1.01,4.15 -0.22,5.63 0.5,0.94 1.75,2.31 3.11,2.31z"/>
   </g>
   <g>
    <path class="fil3" d="M1673.43 679.14l-3.75 -4.32c0.34,-11.5 18.3,-63.22 18.56,-75.1 10.79,0 21.98,-1.09 30.63,8.41 15.69,17.25 7.3,44.32 -8.06,58.59 -9.39,8.73 -24.13,12.13 -37.38,12.42zm193.86 -1.34l18.78 -71.42c1.45,-6.07 1.01,-8.01 6.8,-8.01 9.57,0 17.62,3.42 23.15,7.82 20.15,16.02 7.31,49.95 -6.75,61.08 -11.65,9.21 -21.59,10.53 -41.98,10.53zm-259.83 74.04c46.94,0 40.22,3.46 44.15,-12.39 1.35,-5.43 2.85,-9.91 4.05,-14.8 2.63,-10.7 5.98,-20.55 8.35,-30.69 13.68,9.16 19.75,25.57 57.1,41.17 44.75,18.7 75.7,16.71 123.3,16.71 5.07,0 5.43,-9.93 6.72,-14.81l14.81 -52.5c12.35,5.92 75.4,-5.03 75.4,-70.01 0,-17.07 -11.21,-31.74 -26.72,-36.55 -15.66,-4.85 -42.1,-2.49 -62.14,-2.49 -10.02,43.01 -26.76,94.82 -36.35,135.98 -45.59,0 -89.49,1.48 -128.05,-21.39 -4.66,-2.76 -3.78,-0.11 -5.23,-5.54 11.42,0 24.57,-5.62 32.52,-11.91 2.69,-2.12 6.51,-4.92 8.67,-7.48 18.68,-22.11 28.03,-60.75 3.48,-80.47 -4.12,-3.31 -8.4,-5.5 -14.53,-7.02 -7.71,-1.91 -57.79,-1.54 -58.49,-1.02 -2.57,1.91 -8.45,28.65 -10.1,34.44 -4.69,16.38 -36.78,133.56 -36.94,140.77z"/>
    <path class="fil3" d="M2011.34 689.92c0,20.44 22.46,18 35.03,12.13 4.49,-2.1 7.02,-5.39 12.09,-6.75 -0.43,5.23 -1.21,3.51 -1.35,9.43 43,0 30.05,4.77 37.86,-21.39 2.22,-7.42 3.91,-15.21 6.02,-23.6l12.67 -46.56 -33.66 0c-1.49,6.4 -16.79,68.68 -19.42,72.12 -1.97,2.57 -18.27,14.11 -18.27,7.31 0,-7.01 19.6,-72.39 20.19,-79.43l-33.66 0c-0.46,5.59 -2.87,12.82 -4.31,18.58 -3.81,15.23 -13.19,45.67 -13.19,58.16z"/>
    <path class="fil3" d="M1777.09 614.52l-28.27 0c-0.67,30.37 -37.73,92.9 0,92.9 5.29,0 13.19,-2.48 17.08,-4.46 4.67,-2.38 9.07,-6.37 13.88,-7.66 -1.41,2.95 -2.34,5.3 -2.69,9.43l33.66 0c0.78,-9.43 8.35,-34.74 11.04,-45.51l11.85 -46.04c-39.68,0 -31.69,-5.28 -38.23,21.01 -2.06,8.25 -4.15,15.7 -6.21,23.41 -4.88,18.27 -2.98,25.06 -12.44,31.99 -21.55,15.77 -12.39,-3.89 -10.44,-11.79l16.16 -61.93c0,-3.81 -2.88,-1.35 -5.39,-1.35z"/>
    <path class="fil3" d="M1953.45 697.99l8.89 -38.23c1.95,-6.44 3.02,-5.9 5.92,-10.23 7.84,1.83 5.51,1.86 10.77,5.38 -0.68,8.18 -4.83,18.84 -6.71,26.95 -2.09,8.99 -6.57,15.86 -18.87,16.13zm-6.73 -68.66c0,15.74 17.15,-19.93 39.04,-9.42 2.7,11.59 -3.79,17.41 -4.04,28.27 -5.41,-1.45 -21.87,-13.42 -41.36,3.06 -22.15,18.74 -20.22,56.18 0.98,56.18 12.41,0 15.13,-1.09 25.58,-8.08l0 5.39 35 0c0,-26.73 14.81,-50.42 14.81,-75.4 0,-28.51 -70.01,-21.23 -70.01,0z"/>
    <path class="fil3" d="M2097.5 704.73c40.18,0 31.03,6.53 39.32,-26.66l15.35 -58.69c1.43,-5.75 2.15,-9.43 3.78,-15.07 1.73,-6.03 3.48,-8.05 3.48,-15.36 -41.79,0 -30.33,-6.12 -39.32,26.65 -3.26,11.9 -22.45,81.98 -22.61,89.13z"/>
    <path class="fil3" d="M1874.02 745.11c1.1,-4.72 2.16,-8.87 3.55,-13.95 2.03,-7.45 0.38,-9.71 7.22,-10.28 0,10.47 -2.56,22.04 -10.77,24.23zm-14.81 6.73c22.66,0 37.7,4.94 37.7,-29.61 0,-3.64 -0.64,-3.72 -1.35,-6.73 -8.06,-3.87 -15.45,-2.7 -26.92,-2.7 -0.93,11.11 -9.2,28.93 -9.43,39.04z"/>
    <path class="fil3" d="M1918.45 729.18c-0.26,-0.45 -3.19,2.48 -0.9,-4.95 2.06,-6.68 0.93,-2.44 3.59,-3.48 3.7,7.71 -1.39,7.46 -2.69,8.43zm-21.54 22.66l13.46 0c1.16,-4.96 2.81,-9.53 4.04,-14.8l2.69 0c-0.13,5.85 -1.34,7.34 -1.34,14.8l13.46 0c0,-11.21 3.55,-9.59 -1.35,-18.84 11.62,-6.15 8.81,-13.08 4.04,-20.2l-24.23 0c-3.14,13.48 -7.76,26.13 -10.77,39.04z"/>
    <path class="fil3" d="M2043.95 728.81c0.95,-4.6 0.31,-5.51 3.74,-8.58 1.29,1.95 1.24,-0.08 1.57,3.43 0.57,6 -4.76,5.09 -5.31,5.15zm-19.15 23.03l13.47 0c0.16,-7.5 2.52,-7.3 2.69,-14.8l2.69 0c0,7.22 -0.9,10.54 0,14.8l13.46 0c-1.09,-5.15 0.62,-11.76 -1.34,-20.19 8.4,-2.24 10.99,-18.85 -1.35,-18.85l-20.19 0c-0.13,5.98 -3.18,13.6 -4.82,19.42 -1.54,5.47 -4.49,14.48 -4.61,19.62z"/>
    <path class="fil3" d="M1974.99 742.42c0,14.98 16.46,9.42 29.62,9.42 0.57,-6.82 3.81,-14.76 5.39,-21.54l-16.16 0c-0.75,3.22 -1.16,2.89 -0.67,6.33 0.83,5.87 2.12,0.89 0.67,4.44 -3.25,7.96 -7.87,5.99 -4.65,-5.9 2,-7.37 2.15,-13.89 8.69,-15.64l0 6.74c9.65,0 13.46,1.32 13.46,-4.04 0,-15.72 -36.35,-18.93 -36.35,20.19z"/>
    <path class="fil3" d="M1954.75 733.18c1.44,-4.17 0.16,-3.58 3.59,-5.55 -0.4,7.96 0.27,4.22 -3.59,5.55zm-21.49 18.66l13.46 0c1.2,-5.13 2.84,-5.63 4.04,-10.77l5.39 0 -1.35 10.77 13.46 0c0.1,-4.47 0.79,-4.76 1.15,-8.27l1.54 -30.77 -18.84 0c-1.1,4.71 0.32,0.41 -1.89,4.85 -4.28,8.63 -15.11,26.27 -16.96,34.19z"/>
    <path class="fil3" d="M2084.24 727.52c-0.28,5.84 1.08,3.57 -2.86,5.4 0.75,-4.21 0.11,-2.72 2.86,-5.4zm-24.43 24.32l13.46 0c0.9,-10.86 4.75,-10.66 9.42,-10.77 0,6.43 -0.91,5.59 -1.34,10.77l13.46 0 2.69 -39.04c-21.32,0 -18.23,-1.77 -22.91,8.06 -1.6,3.36 -3.05,6.17 -4.91,9.89 -2.87,5.75 -8.57,15.48 -9.87,21.09z"/>
    <path class="fil3" d="M2100.2 741.07c0,17.52 30.78,15.6 32.3,-2.69 -6.15,0 -8.09,-0.49 -12.11,-1.34 -2.17,4.1 -1.7,5.37 -5.39,8.07 -3.12,-3.74 0.45,-23.54 8.08,-25.58 1.7,4.11 0.54,0.32 0,6.74l13.46 0c0,-9.98 -0.95,-14.81 -14.8,-14.81 -8.48,0 -13.16,4.08 -16.14,9.44 -1.85,3.32 -5.4,14.97 -5.4,20.17z"/>
    <path class="fil3" d="M2133.85 751.84l24.24 0c2.52,-10.86 5.61,-9.42 -9.43,-9.42 3.97,-8.28 -0.55,-6.73 12.12,-6.73 2.01,-8.62 5.81,-9.42 -6.73,-9.42l0 -4.04c10.96,0 12.58,1.16 13.46,-9.43l-24.24 0c-0.53,6.38 -3.18,12.76 -4.83,19.39 -1.7,6.76 -4.43,12.63 -4.59,19.65z"/>
    <path class="fil3" d="M2156.74 677.8c0,13.44 11.73,24.84 3.11,23.81 -4.92,-0.59 -5.95,-8.2 -7.78,-3.09 -2.23,6.21 23.52,14.22 23.52,-9.95 0,-6.59 -5.2,-10.25 -5.39,-18.85 7.69,0.17 4.4,0.68 9.43,4.04 -0.13,-5.52 0.03,-5.13 -4.07,-6.84 -9.91,-4.12 -18.82,6.33 -18.82,10.88z"/>
    <path class="fil3" d="M2141.93 667.03c0,7.66 6.51,6.38 10.77,5.39 -2.61,3.55 -3.37,3.9 -9.43,4.03l0 2.69c7.81,0 10.68,-1.71 13.5,-6.71 4.37,-7.74 1.63,-7.69 -0.03,-14.83l-9.42 0c-1.82,2.71 -5.39,5.44 -5.39,9.43z"/>
    <path class="fil3" d="M1897.67 819.83c0.99,0 1.95,-0.71 2.43,-1.26 0.84,-0.94 1.11,-1.73 1.11,-3.11 0,-1.62 -0.69,-3.97 -1.38,-5.4l-2.23 -4.69 0 0c-0.02,0.07 -2.13,4.48 -2.5,5.49 -0.11,0.33 -0.19,0.66 -0.32,1.04 -0.53,1.64 -1.01,4.14 -0.22,5.62 0.5,0.94 1.75,2.31 3.11,2.31z"/>
   </g>
   <g>
    <path class="fil3" d="M1559.21 2935.07l-3.75 -4.33c0.34,-11.5 18.3,-63.22 18.56,-75.1 10.8,0 21.98,-1.09 30.63,8.42 15.7,17.25 7.31,44.31 -8.05,58.58 -9.4,8.74 -24.14,12.13 -37.39,12.43zm193.87 -1.34l18.78 -71.43c1.45,-6.06 1,-8.01 6.8,-8.01 9.56,0 17.61,3.43 23.14,7.82 20.15,16.03 7.32,49.95 -6.75,61.08 -11.64,9.22 -21.59,10.54 -41.97,10.54zm-259.83 74.04c46.94,0 40.22,3.45 44.14,-12.4 1.35,-5.43 2.85,-9.9 4.06,-14.79 2.63,-10.71 5.98,-20.56 8.34,-30.7 13.68,9.16 19.75,25.57 57.1,41.18 44.76,18.7 75.7,16.71 123.3,16.71 5.07,0 5.44,-9.94 6.72,-14.82l14.82 -52.49c12.34,5.92 75.39,-5.03 75.39,-70.01 0,-17.08 -11.2,-31.75 -26.72,-36.56 -15.65,-4.85 -42.09,-2.48 -62.13,-2.48 -10.02,43 -26.76,94.81 -36.35,135.97 -45.6,0 -89.49,1.48 -128.05,-21.38 -4.67,-2.77 -3.78,-0.11 -5.23,-5.54 11.41,0 24.57,-5.63 32.52,-11.91 2.68,-2.12 6.5,-4.93 8.67,-7.49 18.68,-22.11 28.03,-60.74 3.47,-80.47 -4.11,-3.3 -8.39,-5.49 -14.52,-7.01 -7.72,-1.92 -57.8,-1.55 -58.49,-1.03 -2.57,1.92 -8.46,28.66 -10.11,34.44 -4.68,16.38 -36.77,133.56 -36.93,140.78z"/>
    <path class="fil3" d="M1897.13 2945.84c0,20.44 22.46,18 35.02,12.14 4.49,-2.1 7.02,-5.4 12.1,-6.75 -0.44,5.23 -1.22,3.5 -1.35,9.42 42.99,0 30.04,4.77 37.85,-21.38 2.22,-7.43 3.91,-15.21 6.02,-23.6l12.67 -46.57 -33.65 0c-1.5,6.41 -16.79,68.68 -19.43,72.12 -1.96,2.57 -18.27,14.11 -18.27,7.31 0,-7 19.61,-72.38 20.19,-79.43l-33.65 0c-0.47,5.6 -2.87,12.83 -4.31,18.58 -3.81,15.24 -13.19,45.67 -13.19,58.16z"/>
    <path class="fil3" d="M1662.88 2870.45l-28.27 0c-0.68,30.36 -37.74,92.89 0,92.89 5.28,0 13.18,-2.47 17.08,-4.46 4.67,-2.37 9.06,-6.37 13.88,-7.65 -1.42,2.95 -2.35,5.29 -2.69,9.42l33.65 0c0.79,-9.42 8.35,-34.73 11.05,-45.5l11.84 -46.05c-39.68,0 -31.68,-5.27 -38.23,21.01 -2.05,8.25 -4.15,15.71 -6.2,23.41 -4.88,18.27 -2.98,25.07 -12.44,31.99 -21.55,15.77 -12.4,-3.89 -10.44,-11.78l16.15 -61.93c0,-3.82 -2.87,-1.35 -5.38,-1.35z"/>
    <path class="fil3" d="M1839.24 2953.92l8.88 -38.24c1.96,-6.43 3.03,-5.9 5.93,-10.23 7.84,1.83 5.5,1.86 10.77,5.39 -0.68,8.18 -4.83,18.84 -6.72,26.94 -2.08,8.99 -6.56,15.86 -18.86,16.14zm-6.73 -68.66c0,15.74 17.14,-19.93 39.04,-9.43 2.7,11.59 -3.8,17.42 -4.04,28.28 -5.42,-1.45 -21.87,-13.43 -41.36,3.06 -22.16,18.74 -20.23,56.17 0.97,56.17 12.41,0 15.14,-1.08 25.58,-8.07l0 5.38 35 0c0,-26.72 14.81,-50.42 14.81,-75.39 0,-28.52 -70,-21.23 -70,0z"/>
    <path class="fil3" d="M1983.29 2960.65c40.17,0 31.02,6.53 39.31,-26.65l15.35 -58.7c1.43,-5.75 2.16,-9.42 3.78,-15.07 1.74,-6.02 3.49,-8.04 3.49,-15.36 -41.8,0 -30.33,-6.12 -39.32,26.65 -3.27,11.91 -22.45,81.99 -22.61,89.13z"/>
    <path class="fil3" d="M1759.81 3001.04c1.1,-4.73 2.16,-8.87 3.55,-13.96 2.02,-7.44 0.37,-9.7 7.22,-10.27 0,10.46 -2.57,22.04 -10.77,24.23zm-14.81 6.73c22.65,0 37.69,4.94 37.69,-29.62 0,-3.64 -0.64,-3.71 -1.34,-6.73 -8.06,-3.87 -15.46,-2.69 -26.93,-2.69 -0.92,11.11 -9.19,28.93 -9.42,39.04z"/>
    <path class="fil3" d="M1804.23 2985.1c-0.26,-0.44 -3.19,2.48 -0.89,-4.95 2.06,-6.67 0.92,-2.43 3.59,-3.48 3.7,7.72 -1.4,7.46 -2.7,8.43zm-21.54 22.67l13.47 0c1.15,-4.96 2.81,-9.53 4.04,-14.81l2.69 0c-0.13,5.86 -1.35,7.34 -1.35,14.81l13.46 0c0,-11.21 3.56,-9.59 -1.34,-18.85 11.62,-6.15 8.8,-13.08 4.04,-20.19l-24.24 0c-3.14,13.48 -7.76,26.13 -10.77,39.04z"/>
    <path class="fil3" d="M1929.74 2984.73c0.94,-4.6 0.3,-5.5 3.74,-8.58 1.28,1.96 1.24,-0.07 1.57,3.44 0.56,6 -4.77,5.09 -5.31,5.14zm-19.15 23.04l13.46 0c0.17,-7.51 2.53,-7.3 2.69,-14.81l2.7 0c0,7.23 -0.91,10.55 0,14.81l13.46 0c-1.09,-5.15 0.62,-11.76 -1.35,-20.19 8.4,-2.25 11,-18.85 -1.34,-18.85l-20.2 0c-0.13,5.97 -3.17,13.59 -4.81,19.41 -1.55,5.47 -4.5,14.49 -4.61,19.63z"/>
    <path class="fil3" d="M1860.78 2998.35c0,14.98 16.45,9.42 29.62,9.42 0.56,-6.82 3.8,-14.77 5.38,-21.54l-16.15 0c-0.75,3.22 -1.16,2.89 -0.68,6.33 0.83,5.86 2.13,0.88 0.68,4.44 -3.25,7.96 -7.87,5.99 -4.65,-5.9 1.99,-7.38 2.15,-13.9 8.68,-15.64l0 6.73c9.65,0 13.47,1.33 13.47,-4.04 0,-15.72 -36.35,-18.93 -36.35,20.2z"/>
    <path class="fil3" d="M1840.53 2989.1c1.45,-4.17 0.17,-3.57 3.6,-5.54 -0.41,7.95 0.27,4.22 -3.6,5.54zm-21.49 18.67l13.47 0c1.19,-5.14 2.84,-5.63 4.03,-10.77l5.39 0 -1.35 10.77 13.47 0c0.1,-4.48 0.78,-4.76 1.15,-8.27l1.54 -30.77 -18.85 0c-1.1,4.71 0.33,0.4 -1.88,4.85 -4.29,8.62 -15.12,26.26 -16.97,34.19z"/>
    <path class="fil3" d="M1970.03 2983.44c-0.28,5.85 1.08,3.58 -2.86,5.4 0.74,-4.21 0.11,-2.72 2.86,-5.4zm-24.44 24.33l13.46 0c0.91,-10.86 4.75,-10.67 9.43,-10.77 0,6.43 -0.92,5.58 -1.35,10.77l13.46 0 2.7 -39.04c-21.33,0 -18.24,-1.78 -22.91,8.05 -1.6,3.37 -3.05,6.18 -4.91,9.9 -2.88,5.74 -8.57,15.48 -9.88,21.09z"/>
    <path class="fil3" d="M1985.98 2997c0,17.52 30.79,15.59 32.31,-2.69 -6.15,0 -8.1,-0.5 -12.12,-1.35 -2.17,4.1 -1.69,5.37 -5.38,8.08 -3.13,-3.75 0.44,-23.54 8.08,-25.58 1.69,4.1 0.53,0.31 0,6.73l13.46 0c0,-9.97 -0.96,-14.81 -14.81,-14.81 -8.47,0 -13.16,4.08 -16.14,9.44 -1.84,3.32 -5.4,14.97 -5.4,20.18z"/>
    <path class="fil3" d="M2019.64 3007.77l24.23 0c2.53,-10.86 5.61,-9.42 -9.42,-9.42 3.97,-8.29 -0.55,-6.74 12.11,-6.74 2.01,-8.62 5.81,-9.42 -6.73,-9.42l0 -4.04c10.96,0 12.58,1.16 13.46,-9.42l-24.23 0c-0.53,6.37 -3.18,12.76 -4.84,19.39 -1.69,6.76 -4.43,12.63 -4.58,19.65z"/>
    <path class="fil3" d="M2042.52 2933.73c0,13.44 11.74,24.84 3.11,23.8 -4.92,-0.59 -5.94,-8.2 -7.78,-3.08 -2.22,6.2 23.52,14.21 23.52,-9.95 0,-6.59 -5.19,-10.26 -5.38,-18.85 7.69,0.17 4.4,0.68 9.42,4.03 -0.12,-5.51 0.03,-5.13 -4.06,-6.83 -9.91,-4.12 -18.83,6.33 -18.83,10.88z"/>
    <path class="fil3" d="M2027.71 2922.95c0,7.66 6.52,6.38 10.77,5.39 -2.6,3.56 -3.36,3.9 -9.42,4.04l0 2.69c7.81,0 10.67,-1.72 13.5,-6.72 4.36,-7.74 1.62,-7.69 -0.04,-14.82l-9.42 0c-1.82,2.71 -5.39,5.43 -5.39,9.42z"/>
    <path class="fil3" d="M1783.46 3075.76c0.98,0 1.95,-0.72 2.43,-1.26 0.83,-0.95 1.11,-1.73 1.11,-3.11 0,-1.62 -0.7,-3.98 -1.38,-5.4l-2.24 -4.7 0 0c-0.01,0.08 -2.13,4.48 -2.49,5.49 -0.12,0.33 -0.2,0.67 -0.32,1.04 -0.54,1.64 -1.02,4.15 -0.22,5.63 0.5,0.94 1.74,2.31 3.11,2.31z"/>
   </g>
   <g>
    <path class="fil3" d="M3747.62 2859.97l-3.75 -4.33c0.34,-11.5 18.29,-63.22 18.56,-75.1 10.79,0 21.98,-1.09 30.62,8.42 15.7,17.25 7.31,44.31 -8.05,58.58 -9.39,8.74 -24.13,12.13 -37.38,12.43zm193.86 -1.34l18.78 -71.43c1.45,-6.06 1,-8.01 6.8,-8.01 9.56,0 17.61,3.43 23.14,7.82 20.15,16.03 7.32,49.95 -6.75,61.08 -11.64,9.22 -21.58,10.54 -41.97,10.54zm-259.83 74.04c46.94,0 40.22,3.45 44.15,-12.4 1.34,-5.43 2.85,-9.9 4.05,-14.79 2.63,-10.71 5.98,-20.56 8.34,-30.7 13.68,9.16 19.75,25.57 57.1,41.18 44.76,18.7 75.71,16.71 123.3,16.71 5.08,0 5.44,-9.94 6.72,-14.82l14.82 -52.49c12.35,5.92 75.39,-5.03 75.39,-70.01 0,-17.08 -11.2,-31.75 -26.72,-36.56 -15.65,-4.85 -42.09,-2.48 -62.13,-2.48 -10.02,43 -26.76,94.81 -36.35,135.97 -45.6,0 -89.49,1.48 -128.05,-21.38 -4.67,-2.77 -3.78,-0.11 -5.23,-5.54 11.41,0 24.57,-5.63 32.52,-11.91 2.68,-2.12 6.51,-4.93 8.67,-7.49 18.68,-22.11 28.03,-60.74 3.47,-80.47 -4.11,-3.3 -8.39,-5.49 -14.52,-7.01 -7.71,-1.92 -57.8,-1.55 -58.49,-1.03 -2.57,1.92 -8.46,28.66 -10.11,34.44 -4.68,16.38 -36.77,133.56 -36.93,140.78z"/>
    <path class="fil3" d="M4085.53 2870.74c0,20.44 22.46,18 35.02,12.14 4.5,-2.1 7.02,-5.4 12.1,-6.75 -0.44,5.23 -1.22,3.5 -1.35,9.42 43,0 30.04,4.77 37.86,-21.38 2.22,-7.43 3.9,-15.21 6.02,-23.6l12.66 -46.57 -33.65 0c-1.49,6.41 -16.79,68.68 -19.43,72.12 -1.96,2.57 -18.27,14.11 -18.27,7.31 0,-7 19.61,-72.38 20.2,-79.43l-33.66 0c-0.47,5.6 -2.87,12.83 -4.31,18.58 -3.81,15.24 -13.19,45.67 -13.19,58.16z"/>
    <path class="fil3" d="M3851.28 2795.35l-28.27 0c-0.68,30.36 -37.74,92.89 0,92.89 5.28,0 13.19,-2.47 17.08,-4.46 4.67,-2.37 9.07,-6.37 13.88,-7.65 -1.42,2.95 -2.35,5.29 -2.69,9.42l33.66 0c0.78,-9.42 8.35,-34.73 11.04,-45.5l11.84 -46.05c-39.67,0 -31.68,-5.27 -38.22,21.01 -2.06,8.25 -4.15,15.71 -6.21,23.41 -4.88,18.27 -2.98,25.07 -12.44,31.99 -21.55,15.77 -12.4,-3.89 -10.44,-11.78l16.15 -61.93c0,-3.82 -2.87,-1.35 -5.38,-1.35z"/>
    <path class="fil3" d="M4027.64 2878.82l8.88 -38.24c1.96,-6.43 3.03,-5.9 5.93,-10.23 7.84,1.83 5.51,1.86 10.77,5.39 -0.68,8.18 -4.83,18.84 -6.71,26.94 -2.09,8.99 -6.57,15.86 -18.87,16.14zm-6.73 -68.66c0,15.74 17.15,-19.93 39.04,-9.43 2.7,11.59 -3.8,17.42 -4.04,28.28 -5.42,-1.45 -21.87,-13.43 -41.36,3.06 -22.16,18.74 -20.23,56.17 0.97,56.17 12.41,0 15.14,-1.08 25.58,-8.07l0 5.38 35.01 0c0,-26.72 14.8,-50.42 14.8,-75.39 0,-28.52 -70,-21.23 -70,0z"/>
    <path class="fil3" d="M4171.69 2885.55c40.17,0 31.02,6.53 39.31,-26.65l15.35 -58.7c1.43,-5.75 2.16,-9.42 3.78,-15.07 1.74,-6.02 3.49,-8.04 3.49,-15.36 -41.8,0 -30.33,-6.12 -39.32,26.65 -3.27,11.91 -22.45,81.99 -22.61,89.13z"/>
    <path class="fil3" d="M3948.21 2925.94c1.1,-4.73 2.16,-8.87 3.55,-13.96 2.03,-7.44 0.37,-9.7 7.22,-10.27 0,10.46 -2.57,22.04 -10.77,24.23zm-14.81 6.73c22.65,0 37.7,4.94 37.7,-29.62 0,-3.64 -0.65,-3.71 -1.35,-6.73 -8.06,-3.87 -15.46,-2.69 -26.93,-2.69 -0.92,11.11 -9.19,28.93 -9.42,39.04z"/>
    <path class="fil3" d="M3992.64 2910c-0.26,-0.44 -3.2,2.48 -0.9,-4.95 2.06,-6.67 0.93,-2.43 3.59,-3.48 3.7,7.72 -1.4,7.46 -2.69,8.43zm-21.54 22.67l13.46 0c1.16,-4.96 2.81,-9.53 4.04,-14.81l2.69 0c-0.13,5.86 -1.35,7.34 -1.35,14.81l13.47 0c0,-11.21 3.55,-9.59 -1.35,-18.85 11.62,-6.15 8.8,-13.08 4.04,-20.19l-24.23 0c-3.14,13.48 -7.77,26.13 -10.77,39.04z"/>
    <path class="fil3" d="M4118.14 2909.63c0.94,-4.6 0.3,-5.5 3.74,-8.58 1.29,1.96 1.24,-0.07 1.57,3.44 0.57,6 -4.77,5.09 -5.31,5.14zm-19.15 23.04l13.46 0c0.17,-7.51 2.53,-7.3 2.7,-14.81l2.69 0c0,7.23 -0.9,10.55 0,14.81l13.46 0c-1.09,-5.15 0.62,-11.76 -1.34,-20.19 8.39,-2.25 10.99,-18.85 -1.35,-18.85l-20.2 0c-0.13,5.97 -3.17,13.59 -4.81,19.41 -1.54,5.47 -4.49,14.49 -4.61,19.63z"/>
    <path class="fil3" d="M4049.18 2923.25c0,14.98 16.45,9.42 29.62,9.42 0.57,-6.82 3.8,-14.77 5.38,-21.54l-16.15 0c-0.75,3.22 -1.16,2.89 -0.67,6.33 0.82,5.86 2.12,0.88 0.67,4.44 -3.25,7.96 -7.87,5.99 -4.65,-5.9 1.99,-7.38 2.15,-13.9 8.69,-15.64l0 6.73c9.64,0 13.46,1.33 13.46,-4.04 0,-15.72 -36.35,-18.93 -36.35,20.2z"/>
    <path class="fil3" d="M4028.93 2914c1.45,-4.17 0.17,-3.57 3.6,-5.54 -0.4,7.95 0.27,4.22 -3.6,5.54zm-21.49 18.67l13.47 0c1.2,-5.14 2.84,-5.63 4.04,-10.77l5.38 0 -1.34 10.77 13.46 0c0.1,-4.48 0.78,-4.76 1.15,-8.27l1.54 -30.77 -18.85 0c-1.09,4.71 0.33,0.4 -1.88,4.85 -4.29,8.62 -15.12,26.26 -16.97,34.19z"/>
    <path class="fil3" d="M4158.43 2908.34c-0.28,5.85 1.08,3.58 -2.86,5.4 0.75,-4.21 0.11,-2.72 2.86,-5.4zm-24.44 24.33l13.47 0c0.9,-10.86 4.75,-10.67 9.42,-10.77 0,6.43 -0.91,5.58 -1.35,10.77l13.47 0 2.69 -39.04c-21.33,0 -18.23,-1.78 -22.91,8.05 -1.6,3.37 -3.05,6.18 -4.91,9.9 -2.88,5.74 -8.57,15.48 -9.88,21.09z"/>
    <path class="fil3" d="M4174.38 2921.9c0,17.52 30.79,15.59 32.31,-2.69 -6.15,0 -8.09,-0.5 -12.11,-1.35 -2.18,4.1 -1.7,5.37 -5.39,8.08 -3.13,-3.75 0.44,-23.54 8.08,-25.58 1.69,4.1 0.53,0.31 0,6.73l13.46 0c0,-9.97 -0.95,-14.81 -14.81,-14.81 -8.47,0 -13.15,4.08 -16.13,9.44 -1.85,3.32 -5.41,14.97 -5.41,20.18z"/>
    <path class="fil3" d="M4208.04 2932.67l24.23 0c2.53,-10.86 5.62,-9.42 -9.42,-9.42 3.97,-8.29 -0.55,-6.74 12.11,-6.74 2.01,-8.62 5.81,-9.42 -6.73,-9.42l0 -4.04c10.97,0 12.58,1.16 13.46,-9.42l-24.23 0c-0.53,6.37 -3.18,12.76 -4.84,19.39 -1.69,6.76 -4.42,12.63 -4.58,19.65z"/>
    <path class="fil3" d="M4230.92 2858.63c0,13.44 11.74,24.84 3.11,23.8 -4.91,-0.59 -5.94,-8.2 -7.78,-3.08 -2.22,6.2 23.52,14.21 23.52,-9.95 0,-6.59 -5.19,-10.26 -5.38,-18.85 7.69,0.17 4.4,0.68 9.42,4.04 -0.12,-5.52 0.04,-5.14 -4.06,-6.84 -9.91,-4.12 -18.83,6.33 -18.83,10.88z"/>
    <path class="fil3" d="M4216.12 2847.85c0,7.67 6.51,6.38 10.77,5.39 -2.61,3.56 -3.37,3.9 -9.43,4.04l0 2.69c7.81,0 10.68,-1.72 13.5,-6.72 4.36,-7.74 1.63,-7.69 -0.04,-14.82l-9.42 0c-1.81,2.71 -5.38,5.44 -5.38,9.42z"/>
    <path class="fil3" d="M3971.86 3000.66c0.98,0 1.95,-0.72 2.43,-1.26 0.83,-0.94 1.11,-1.73 1.11,-3.11 0,-1.62 -0.7,-3.98 -1.38,-5.4l-2.23 -4.7 0 0c-0.02,0.08 -2.14,4.48 -2.5,5.49 -0.12,0.33 -0.2,0.67 -0.32,1.04 -0.54,1.64 -1.02,4.15 -0.22,5.63 0.5,0.94 1.74,2.31 3.11,2.31z"/>
   </g>
  </g>
  <path class="fil4" d="M2231.63 1895.45c0.34,28.52 -9.38,52.7 -29.17,72.58 -19.8,19.83 -44.06,29.85 -72.8,30.03l-64.02 0.51 0 -204.96 63.5 0c28.4,0 52.49,9.9 72.28,29.64 19.79,19.79 29.86,43.85 30.21,72.2zm-34.85 0.25c-0.18,-18.88 -6.76,-34.8 -19.75,-47.8 -12.99,-12.94 -28.95,-19.44 -47.89,-19.44l-28.65 0 0 134.75 28.91 0c18.93,-0.17 34.94,-6.76 48.02,-19.71 13.08,-12.99 19.53,-28.91 19.36,-47.8zm106.74 2.89c-9.47,0 -17.55,3.31 -24.27,9.94 -6.71,6.62 -10.07,14.63 -10.07,24.09l0 65.18 -34.84 0 0 -65.18c0,-19.23 6.71,-35.49 20.13,-48.83 13.43,-13.29 29.78,-19.96 49.05,-19.96l0 34.76zm158.11 99.21l-37.04 0 -7.31 -20.14c-13.78,16.18 -31.33,24.27 -52.71,24.27 -19.27,0 -35.58,-6.71 -48.92,-20.13 -13.33,-13.43 -20,-29.69 -20,-48.79 0,-14.63 4.12,-27.84 12.39,-39.63 8.26,-11.79 19.27,-20.17 33.04,-25.17 8.09,-2.92 16,-4.38 23.75,-4.38 14.63,0 27.83,4.17 39.62,12.51 11.79,8.35 20.18,19.41 25.17,33.18l32.01 88.28zm-62.73 -64.92c0,-12.09 -4.9,-21.51 -14.71,-28.22 -5.68,-4.01 -12.22,-5.98 -19.62,-5.98 -12.05,0 -21.34,4.82 -27.88,14.5 -4.13,6.06 -6.19,12.6 -6.19,19.7 0,11.92 4.9,21.25 14.71,27.96 6.02,4.18 12.48,6.24 19.36,6.24 9.47,0 17.55,-3.31 24.27,-9.98 6.71,-6.63 10.06,-14.71 10.06,-24.22zm193.74 99.25c0,24.78 -10.15,43.89 -30.46,57.31 -11.7,7.75 -24.52,11.62 -38.46,11.62 -24.44,0 -43.54,-10.24 -57.31,-30.72 -7.92,-11.88 -11.87,-24.61 -11.87,-38.21 0,-8.94 1.72,-17.55 5.15,-25.81l32.28 12.91c-1.73,4.13 -2.59,8.43 -2.59,12.9 0,9.47 3.36,17.51 10.07,24.14 6.71,6.63 14.8,9.94 24.27,9.94 9.29,0 17.29,-3.36 24,-10.11 6.71,-6.76 10.07,-14.76 10.07,-24.09 0,-15.19 -7.14,-25.82 -21.38,-31.89 -4.3,1.04 -8.56,1.55 -12.87,1.55 -19.4,0 -35.75,-6.67 -49.04,-20 -13.3,-13.34 -19.96,-29.73 -19.96,-49.18 0,-19.28 6.66,-35.58 20.04,-48.92 13.38,-13.33 29.69,-20 48.88,-20l20.13 -47.76 27.58 11.7 -18.32 42.77c12.12,5.85 21.8,14.37 28.99,25.56 7.19,11.18 10.8,23.4 10.8,36.65 0,19.62 -7.14,36.14 -21.42,49.57 14.28,13.59 21.42,30.28 21.42,50.07zm-34.85 -99.64c0,-9.29 -3.36,-17.29 -10.07,-24.01 -6.71,-6.71 -14.71,-10.07 -24,-10.07 -9.47,0 -17.56,3.32 -24.27,9.94 -6.71,6.63 -10.07,14.68 -10.07,24.14 0,9.46 3.36,17.56 10.07,24.26 6.71,6.72 14.8,10.07 24.27,10.07 9.46,0 17.51,-3.35 24.13,-10.07 6.63,-6.7 9.94,-14.8 9.94,-24.26zm145.98 -68.66l-63.76 133.97 -64.53 -133.97 41.3 0 23.49 54.98 23.49 -54.98 40.01 0zm121.21 68.71c0,3.39 -0.26,6.84 -0.78,10.28l-100.93 0c2.24,7.23 6.37,13.03 12.39,17.42 6.02,4.39 12.82,6.58 20.39,6.58 10.5,0 19.19,-4.04 26.07,-12.13l21.17 28.14c-13.25,12.56 -29,18.84 -47.24,18.84 -19.44,0 -35.84,-6.67 -49.17,-19.96 -13.34,-13.34 -20.01,-29.69 -20.01,-49.09 0,-19.23 6.71,-35.49 20.14,-48.83 13.42,-13.29 29.77,-19.96 49.04,-19.96 19.28,0 35.58,6.62 48.92,19.92 13.34,13.29 20.01,29.55 20.01,48.79zm-38.98 -15.79c-6.37,-12.05 -16.35,-18.07 -29.95,-18.07 -13.77,0 -23.83,6.02 -30.2,18.07l60.15 0zm136.43 41.47c0,8.26 -2.75,15.75 -8.26,22.5 -11.02,13.47 -26.68,19.92 -46.98,19.4 -8.09,-0.17 -16.91,-1.97 -26.46,-5.42 -9.55,-3.44 -17.34,-7.74 -23.36,-12.9l19.36 -25.05c9.29,8.78 19.18,13.17 29.68,13.17l0.78 0c4.3,0 8.17,-0.77 11.61,-2.32 4.48,-2.07 6.72,-4.99 6.72,-8.78l0 -1.03c-0.52,-3.96 -3.19,-6.8 -8.01,-8.52 -1.89,-0.35 -5.93,-1.12 -12.13,-2.32 -7.74,-1.55 -14.29,-3.45 -19.62,-5.68 -15.66,-6.71 -23.49,-18.5 -23.49,-35.37 0,-16.17 8,-28.31 24.01,-36.4 7.05,-3.61 14.71,-5.5 22.97,-5.67 8.61,-0.18 17.55,1.28 26.85,4.38 10.67,3.62 18.24,8.35 22.72,14.2l-23.24 20.91c-6.02,-6.19 -12.56,-9.29 -19.62,-9.29 -11.01,0 -16.52,3.61 -16.52,10.88l0 0.52c0,3.44 4.48,6.37 13.42,8.78 0.69,0.17 6.37,1.29 17.04,3.35 21.69,4.17 32.53,17.42 32.53,39.88l0 0.78zm61.82 39.58c-19.27,0 -35.62,-6.67 -49.04,-19.96 -13.42,-13.34 -20.14,-29.64 -20.14,-48.88l0 -135.35 34.85 0 0 70.22 34.33 0 0 29.68 -34.33 0 0 35.37c0,9.46 3.36,17.51 10.07,24.13 6.71,6.63 14.8,9.94 24.26,9.94l0 34.85zm30.08 -163.66c0,5.85 -1.98,10.8 -5.94,14.84 -3.96,4.04 -8.86,6.07 -14.71,6.07 -5.85,0 -10.8,-2.03 -14.84,-6.07 -4.05,-4.04 -6.07,-8.99 -6.07,-14.84 0,-5.85 2.02,-10.76 6.07,-14.71 4.04,-3.96 8.99,-5.94 14.84,-5.94 5.68,0 10.54,2.02 14.59,6.06 4.04,4.05 6.06,8.91 6.06,14.59zm-3.1 163.66l-34.85 0 0 -133.97 34.85 0 0 133.97z"/>
 </g>
</svg>
