<?xml version="1.0" encoding="UTF-8"?>
<!DOCTYPE svg PUBLIC "-//W3C//DTD SVG 1.1//EN" "http://www.w3.org/Graphics/SVG/1.1/DTD/svg11.dtd">
<!-- Creator: CorelDRAW 2017 -->
<svg xmlns="http://www.w3.org/2000/svg" xml:space="preserve" width="50.7998mm" height="33.8666mm" version="1.1" style="shape-rendering:geometricPrecision; text-rendering:geometricPrecision; image-rendering:optimizeQuality; fill-rule:evenodd; clip-rule:evenodd"
viewBox="0 0 5079.98 3386.66"
 xmlns:xlink="http://www.w3.org/1999/xlink">
 <defs>
  <style type="text/css">
   <![CDATA[
    .fil1 {fill:black}
    .fil18 {fill:#211916}
    .fil17 {fill:#221A17}
    .fil13 {fill:#221B18}
    .fil14 {fill:#231C17}
    .fil12 {fill:#241B19}
    .fil9 {fill:#251D1A}
    .fil15 {fill:#261F1C}
    .fil5 {fill:#272727}
    .fil10 {fill:#281F1D}
    .fil4 {fill:#282828}
    .fil16 {fill:#2D2622}
    .fil8 {fill:#312A26}
    .fil23 {fill:#35302B}
    .fil11 {fill:#3A3532}
    .fil21 {fill:#423C3A}
    .fil22 {fill:#46413E}
    .fil2 {fill:#545454}
    .fil7 {fill:#5A5552}
    .fil3 {fill:#6A6A6A}
    .fil20 {fill:#F8F7F7}
    .fil6 {fill:#FCFCFC}
    .fil19 {fill:#FDFCFB}
    .fil0 {fill:#373435;fill-rule:nonzero}
   ]]>
  </style>
 </defs>
 <g id="Capa_x0020_1">
  <metadata id="CorelCorpID_0Corel-Layer"/>
  <g id="_1806710716592">
   <path class="fil0" d="M2089.34 2897.11c1.22,1.15 0.93,2.82 -0.87,5.13 -19.3,24 -44.82,36 -76.56,36l-72.8 -6.58c-0.36,1.09 -1.15,3.04 -2.31,5.71 -9.25,5.71 -14.67,13.3 -16.05,22.7 -3.97,25.96 -5.93,42.73 -5.93,50.1l0 29.49 49.16 0.22c2.53,0.29 5.93,0.44 10.19,0.44 4.34,0 9.4,0 15.19,0 -2.53,6.65 -5.71,14.6 -9.54,23.78 -3.11,5.42 -6.66,13.44 -10.63,24.07 -2.24,0.87 -3.4,1.23 -3.4,1.23 0.15,-0.5 0.58,-3.11 1.3,-7.73 0.44,-3.47 0,-6.08 -1.3,-7.74 -2.75,-3.61 -13.23,-5.42 -31.37,-5.42l-19.6 0 0 89.71c0,28.77 -5.85,52.85 -17.56,72.36 -3.18,5.28 -8.46,11.5 -15.91,18.73 -12.86,12.29 -23.2,20.31 -31.01,24.14 -15.97,7.67 -27.33,11.5 -34.12,11.5 -5.42,0 -14.53,-3.04 -27.4,-9.04 -12.87,-6 -22.34,-8.96 -28.41,-8.96 -11.28,0 -18.58,6.14 -21.83,18.43l-3.18 0c-2.1,-0.87 -3.18,-2.39 -3.18,-4.63 0,-2.52 2.38,-6.65 7.23,-12.28 4.41,-4.92 8.02,-8.25 11.06,-10.13 20.24,-12.65 35.2,-18.94 44.96,-18.94 6.07,0 15.47,2.75 28.05,8.32 12.58,5.64 21.76,8.38 27.62,8.38 21.32,0 32.02,-19.59 32.02,-58.84l0 -54.65c0,-7.67 -1.3,-23.06 -3.83,-46.2 -1.88,-16.77 -8.39,-27.47 -19.59,-31.95 -0.29,-0.29 -0.58,-0.43 -0.87,-0.43 -0.29,0.14 -0.43,0.5 -0.43,1.08l0 157.74 -8.24 0 0 -164.32c-4.63,-2.38 -12.29,-3.61 -22.85,-3.61 -8.38,0 -14.45,1.88 -18.22,5.71l-3.17 0 -1.74 -1.66c17.2,-18.51 32.53,-27.98 45.98,-28.41l0 -93.62 8.24 0 0 92.75c7.3,1.59 14.67,4.19 22.12,7.88 0,-2.97 0,-4.48 0,-4.48 1.44,-23.93 3.98,-41.43 7.59,-52.41 6.8,-20.1 19.66,-35.21 38.75,-45.19 0.36,-0.86 1.59,-2.38 3.54,-4.62 -37.66,-4.56 -73.45,-6.8 -107.21,-6.8 -15.39,0 -26.09,0.58 -32.17,1.66 -11.56,2.17 -20.82,6.87 -27.76,14.17 -3.97,4.2 -6.14,10.27 -6.58,18.15 -0.14,2.53 -0.21,9.25 -0.21,20.24 0,1.73 -1.95,4.7 -5.79,8.96 -3.83,4.34 -6.65,6.44 -8.31,6.44 -4.77,0 -7.16,-5.64 -7.16,-16.92 0,-12.51 10.49,-28.34 31.52,-47.49 19.52,-17.79 35.5,-28.05 47.86,-30.87 11.35,-2.53 23.06,-3.83 35.21,-3.83 12.79,0 28.98,1.08 48.43,3.32l36.22 4.19c13.15,1.45 30.72,3.4 52.77,5.86 20.75,2.39 38.31,3.62 52.7,3.62 11.71,0 20.39,-0.73 26.02,-2.17 7.81,-1.96 15.55,-6.08 23.36,-12.29zm74.02 309.91l-37.08 28.77c-4.34,-4.12 -10.34,-10.48 -18.01,-19.09 -2.96,-4.04 -7.44,-12.07 -13.51,-23.92 -3.26,2.17 -8.17,6 -14.82,11.71 -6.22,6.72 -13.45,13.59 -21.62,20.53 -1.59,1.3 -9.4,6.94 -23.49,16.99l-2.53 -2.1c0.43,-7.23 -3.98,-15.04 -13.16,-23.57 -8.31,-7.44 -16.41,-12.29 -24.15,-14.38 6.08,-9.18 9.11,-18 9.11,-26.46l0 -62.1c0,-2.17 -0.79,-5.35 -2.31,-9.76 0.29,-0.58 0.94,-1.44 2.1,-2.53 4.77,-0.14 12,-1.23 21.61,-3.18 5.35,-2.17 14.53,-4.63 27.55,-7.44 8.45,-1.81 21.03,-4.99 37.8,-9.55l0 -19.44c-3.11,-4.56 -11.49,-11.57 -25.01,-21.18 -10.05,-7.09 -20.1,-12.22 -30.14,-15.47 -3.4,2.38 -6.29,4.55 -8.53,6.57 -4.42,3.69 -6.58,10.34 -6.58,20.1 0,11.28 -2.17,16.92 -6.44,16.92 -6.72,0 -10.05,-3.98 -10.05,-12 0,-9.47 5.14,-18.15 15.33,-26.03 6.79,-5.2 22.48,-17.78 47.13,-37.81l50.39 32.39c4.92,3.11 11.35,5.64 19.3,7.59l0.22 2.39c-6.15,9.25 -9.18,16.33 -9.18,21.1l0 103.31c0,4.34 8.53,18.36 25.66,41.93 1.74,2.24 4.84,3.32 9.33,3.18l1.08 2.53zm-72.51 -18.65l0 -100.27 -43.95 11.57c-2.82,9.39 -4.05,20.24 -3.76,32.38 0.43,20.75 -0.65,36.36 -3.25,46.77l28.99 28.13 21.97 -18.58zm360.15 17.56c-4.62,5.06 -10.98,10.99 -19.08,17.79 -11.42,9.61 -19.45,14.38 -24.15,14.38 -4.33,0 -8.81,-2.67 -13.3,-8.02 -3.1,-4.7 -6.29,-9.25 -9.54,-13.81 -5.49,-7.16 -11.42,-13.23 -17.78,-18.22 1.66,-5.64 2.96,-10.7 3.97,-15.25 2.75,-12.8 4.13,-26.6 4.13,-41.28l0 -54.43c0,-18.36 -0.95,-29.86 -2.75,-34.49 -1.16,-2.82 -3.04,-6.14 -5.71,-9.97 -12.15,-10.48 -19.67,-15.69 -22.49,-15.69 -3.61,0 -7.59,3.25 -11.85,9.76 -3.47,5.21 -5.93,10.27 -7.16,15.04 -2.53,9.18 -3.83,17.56 -3.83,25.23l0 87.9c0,4.92 0.58,12.15 1.74,21.62 1.22,4.77 8.02,12 20.24,21.54 -7.81,11.35 -19.74,21.76 -35.79,31.37 -2.17,-0.72 -3.83,-1.88 -5.13,-3.61 -14.39,-19.3 -21.9,-29.78 -22.63,-31.3 0,-0.58 0.44,-1.67 1.23,-3.33 0.87,-1.59 1.37,-2.74 1.45,-3.25 3.11,-15.4 4.62,-26.24 4.62,-32.46l0 -87.69c0,-10.12 -2.24,-18.72 -6.79,-25.81 -1.23,-1.95 -4.92,-6.07 -10.99,-12.29 -7.16,-7.37 -11.57,-10.98 -13.08,-10.98 -1.74,0 -4.85,2.89 -9.47,8.67 -4.56,5.78 -7.23,9.83 -7.88,12.22 -2.53,8.75 -3.84,15.97 -3.84,21.61l0 78.51c0,14.1 0.8,24.87 2.32,32.39 0.87,4.34 2.96,9.11 6.36,14.38 3.97,6.29 7.73,9.4 11.28,9.26 0.72,0.43 1.08,1.15 1.08,2.16 0,1.96 -5.06,7.52 -15.04,16.78 -10.04,9.25 -16.19,13.88 -18.43,13.88 -3.11,0 -10.7,-10.34 -22.7,-31.09 -1.23,-0.29 -3.25,-1.01 -5.93,-2.09 0.87,-2.46 1.88,-6.08 3.11,-11.07 3.04,-25.8 4.56,-41.34 4.56,-46.77l0 -72.94c0,-7.95 -1.67,-16.7 -5.06,-26.24 -4.2,-11.86 -9.4,-17.78 -15.55,-17.78 0.73,0 -1.37,0.72 -6.07,2.09 -0.29,-0.43 -0.65,-0.94 -1.08,-1.66 11.71,-13.95 26.53,-26.1 44.45,-36.44 5.5,6.08 11.72,18.44 18.66,37.09 0.43,0.43 0.86,1.59 1.3,3.54l48.07 -41.49c17.93,11.85 29.71,25.15 35.35,39.83 0.29,0.58 0.87,1.3 1.66,2.1 5.43,-5.06 13.52,-12.58 24.37,-22.41 14.67,-13.45 23.42,-20.17 26.09,-20.17 1.96,0 4.7,1.66 8.24,5.06 1.96,2.17 5.06,5.2 9.33,9.11 3.25,2.74 8.96,7.8 17.13,15.32 1.16,-0.72 2.32,-1.08 3.62,-1.08 0.72,0 1.44,0.14 2.31,0.43 -1.3,6.51 -2.24,13.37 -2.89,20.53 -1.3,14.82 -2.03,27.54 -2.17,38.1 -0.29,22.77 -0.29,50.89 0,84.29 0,6.94 4.84,16.7 14.46,29.28 7.08,9.18 12.51,13.73 16.19,13.73 1.01,0 4.19,-1.52 9.54,-4.62l1.3 2.74zm132.73 -21.61c0,6.14 -6.8,14.38 -20.31,24.72 -4.27,3.26 -12.15,8.97 -23.71,16.99 -2.03,1.45 -9.76,7.23 -23.35,17.28 -7.88,-6.58 -19.52,-17.06 -34.92,-31.59 -2.1,-3.4 -5.35,-7.88 -9.76,-13.45 -1.66,0.72 -4.63,1.66 -8.89,2.75l0 -2.97c0,-0.36 0.79,-2.82 2.46,-7.3 1.66,-4.41 2.67,-7.15 2.96,-8.17 2.75,-11.71 4.12,-22.19 4.12,-31.59l0 -98.75c0,-2.67 -2.31,-7.01 -6.94,-13.15 2.39,-0.8 8.82,-3.62 19.3,-8.46 4.48,-2.1 13.38,-6.36 26.68,-12.72l22.19 -15.91c13.45,-9.47 22.19,-14.17 26.32,-14.17 6.14,0 10.26,2.68 12.21,8.03 6.94,18.58 10.41,31.8 10.41,39.9 0,17.35 -13.15,38.75 -39.47,64.05 -2.67,2.82 -6.58,6.94 -11.78,12.51 -6.58,6.94 -10.63,10.33 -12.15,10.33l-2.09 0c-1.52,-1.37 -2.32,-2.96 -2.32,-4.62 0,-3.11 4.05,-6.94 12.29,-11.42 1.38,-0.87 3.47,-2.9 6.15,-6.15 8.74,-10.92 13.08,-24.29 13.08,-40.27 0,-4.19 -0.07,-7.01 -0.21,-8.45 -0.44,-4.12 -2.39,-10.27 -6.01,-18.44 -4.84,-11.28 -9.9,-16.91 -15.18,-16.91 -2.53,0 -5.27,1.52 -8.09,4.55 -2.89,3.04 -4.56,5.86 -5.13,8.53 -1.02,4.56 -1.52,7.38 -1.52,8.53l0 82.77c0,1.16 -0.44,10.34 -1.31,27.55 0,1.23 -0.36,3.25 -1.08,5.92 -0.72,2.68 -1.08,4.7 -1.08,6.15 0,5.93 1.52,11.13 4.48,15.69 4.12,6.36 12.58,14.38 25.44,24.14 6.44,4.92 11.21,7.38 14.17,7.38 6.22,0 11.14,-3.83 14.82,-11.64 1.81,-5.21 3.69,-10.34 5.5,-15.47 1.3,-2.1 3.25,-3.18 5.92,-3.18 1.45,0 2.9,0.86 4.49,2.45 1.52,1.67 2.31,3.19 2.31,4.56zm350.25 -297.55c0,6.43 -2.75,12.87 -8.24,19.23 -24.36,28.26 -48.36,43.59 -72.07,45.98 -1.59,0.14 -4.41,0.36 -8.46,0.65 -5.57,5.06 -10.2,17.06 -14.03,36 -3.25,16.04 -4.84,29.78 -4.84,41.06 5.93,2.96 15.61,7.73 29.21,14.38l28.12 14.03c29.2,16.63 43.8,38.46 43.8,65.42 0,18.07 -9.54,37.74 -28.55,59.06 -11.71,13.16 -30.29,26.82 -55.81,41.14 -6.87,2.96 -14.89,7.3 -24.07,13.08l0 36.87 -6.94 0 0 -34.7c-7.59,2.02 -11.93,3.04 -13.01,3.04 -1.96,0 -3.26,-0.29 -3.84,-0.87 -7.66,-8.17 -18.65,-15.69 -32.96,-22.48 -14.75,-6.94 -27.47,-10.41 -38.24,-10.41 -8.82,0 -14.24,1.88 -16.19,5.71 -3.4,6.36 -4.92,11.27 -4.63,14.82 -0.72,2.09 -1.74,3.18 -3.04,3.18 -3.18,0 -4.77,-2.75 -4.77,-8.24 0,-3.55 2.03,-7.45 6.14,-11.64 18.44,-19.38 37.31,-29.06 56.75,-29.06 18.58,0 36.51,5.49 53.79,16.33l0 -48.5c0,-5.5 -2.39,-10.92 -7.23,-16.2 -4.84,-5.27 -9.98,-8.31 -15.33,-9.03 -5.42,-0.65 -7.59,-1.01 -6.65,-1.01 -3.32,0 -7.3,1.37 -11.71,4.12 -4.48,2.74 -7.23,5.71 -8.24,8.82l-2.53 0c-0.51,-1.59 -0.79,-2.46 -0.79,-2.61 0,-1.08 4.12,-8.89 12.43,-23.27 6.58,-11.57 15.76,-17.35 27.4,-17.35 -1.38,0 2.82,0.5 12.65,1.44 0.22,-7.44 0.22,-11.2 0,-11.2 0,-1.96 0,-4.27 0,-6.8 0.22,-2.1 0.22,-3.47 0,-3.97 -2.53,-1.74 -5.71,-3.4 -9.47,-5.14 -5.35,-2.38 -13.3,-6 -23.78,-10.77 -9.48,-4.41 -18.73,-9.9 -27.84,-16.55 -5.64,-4.05 -10.77,-10.27 -15.47,-18.58 -4.77,-8.39 -7.3,-15.98 -7.73,-22.92 -0.29,-3.39 0.07,-6.43 1.08,-9.11 0.87,-1.8 1.59,-3.76 2.31,-5.71 3.4,-13.66 14.32,-28.99 32.82,-45.97 9.76,-8.9 25.88,-21.62 48.37,-38.32 2.53,-1.66 7.08,-4.62 13.73,-8.89l2.53 0c0.29,0.58 0.65,1.3 1.09,2.1 0.14,3.39 3.76,7.88 10.77,13.37 7.08,5.49 12.36,8.24 15.9,8.24 1.45,-0.94 4.85,-4.34 10.2,-10.12 17.92,-19.37 35.35,-29.06 52.33,-29.06 10.05,0 15.04,3.47 15.04,10.41zm-12.14 9.54c0,-6.94 -4.56,-10.41 -13.6,-10.41 -7.22,0 -15.39,3.26 -24.43,9.83 -2.02,1.38 -5.35,4.41 -10.05,9.11 -5.93,6 -8.89,9.91 -8.89,11.71 0,0.73 0.51,1.59 1.45,2.61 4.12,1.3 9.03,1.87 14.67,1.87 7.38,0 13.52,-0.86 18.29,-2.74 15.04,-5.86 22.56,-13.16 22.56,-21.98zm-84.51 55.45c-5.21,-1.52 -12.73,-4.27 -22.49,-8.24 -11.27,-5.93 -19.44,-11.5 -24.5,-16.77 -19.09,16.7 -28.63,31.95 -28.63,45.76 0,23.06 19.01,41.27 56.97,54.65 3.97,-31.45 10.19,-56.6 18.65,-75.4zm53.71 191.86c0,-15.33 -7.45,-28.92 -22.41,-40.63 -9.25,-7.23 -25.81,-16.19 -49.59,-26.89l0 128.31c0.58,2.25 2.82,5.07 6.72,8.32 3.91,3.18 7.01,4.84 9.25,4.84 1.02,-0.29 3.91,-1.23 8.75,-2.75 15.18,-4.69 27.18,-14.52 36,-29.63 7.52,-13.02 11.28,-26.82 11.28,-41.57zm155.21 -160.27c0,1.81 -4.34,6.65 -13.09,14.46 -8.67,7.88 -14.38,12.21 -16.91,13.01 -2.89,0.29 -7.16,1.01 -12.87,2.17 0,14.67 -0.36,38.02 -1.08,70.05l-0.87 69.04c-0.15,15.83 1.66,26.24 5.35,31.3 14.96,20.24 25.88,29.85 32.67,29.06 0.58,0.22 1.45,0.72 2.53,1.45 0,0.43 -0.07,1.01 -0.36,1.66 -4.26,3.69 -10.77,9.32 -19.52,16.84 -8.74,7.59 -15.25,11.35 -19.44,11.35 -3.54,0 -6.22,-0.79 -8.1,-2.31 -11.42,-9.9 -20.46,-21.62 -27.11,-35.28 -0.43,-0.58 -1.37,-1.23 -2.96,-1.95 -2.24,1.59 -4.7,2.75 -7.37,3.61 -0.58,-1.52 -0.87,-2.38 -0.87,-2.53 0,5.93 1.59,1.81 4.77,-12.29 3.25,-14.09 4.84,-22.7 4.84,-25.8l0 -147.04c0,-4.49 -2.53,-6.73 -7.59,-6.73l-26.6 2.75c-2.82,0 -4.7,-0.58 -5.71,-1.73l0 -2.1c0.58,-0.87 3.25,-4.41 8.02,-10.56 5.79,-7.37 9.91,-13.44 12.29,-18.21 8.6,-2.32 18.72,-7.16 30.29,-14.68 8.75,-5.78 17.64,-12.29 26.68,-19.66l2.53 0c0.43,2.67 0.65,7.08 0.65,13.16 0,4.77 -0.15,10.55 -0.44,17.35 0.58,0.28 1.23,0.65 1.96,1.01 2.24,0 5.56,0.29 9.9,0.79 4.41,0.51 7.73,0.72 9.97,0.72 2.39,0 8.25,-0.43 17.57,-1.29 0.58,0.57 0.87,1.37 0.87,2.38zm205.31 21.18c-7.02,7.3 -19.96,18.58 -38.75,33.83 -1.52,3.83 -2.32,6.44 -2.32,7.88l0 108.58c0,6.51 2.03,17.14 6.15,31.88 4.12,14.75 6.14,25.45 6.14,32.1 0,12.65 -1.95,23.86 -5.92,33.4 -8.46,20.6 -25.96,41.64 -52.56,63.11 -22.55,18.22 -45.54,27.33 -69.04,27.33 -12,0 -22.62,-3.55 -31.95,-10.56 -10.34,-7.81 -15.47,-17.42 -15.47,-28.99 0,-9.61 5.13,-21.83 15.47,-36.58 3.25,-4.7 6,-7.15 8.24,-7.44 1.01,0.72 1.52,1.59 1.52,2.53 -1.74,7.51 -2.17,12.58 -1.3,15.25 4.12,12.43 11.93,22.2 23.49,29.28 10.92,6.58 23.21,9.9 36.87,9.9 18.51,0 32.75,-6 42.8,-18 9.32,-10.99 13.95,-25.88 13.95,-44.67 0,-8.03 -2.17,-23.28 -6.58,-45.76 -0.8,-4.34 -2.38,-8.82 -4.63,-13.31 -1.8,1.67 -10.84,10.12 -27.1,25.38 -11.14,10.48 -19.96,15.69 -26.46,15.69 -8.46,0 -17.64,-4.56 -27.55,-13.74 -4.7,-4.55 -11.78,-11.28 -21.4,-20.31l0 -2.61c4.92,-5.63 7.38,-15.61 7.38,-30l0 -104.38c0,-8.03 -1.88,-15.4 -5.71,-22.2 -4.77,-8.46 -11.35,-12.94 -19.67,-13.52 0,-1.88 0.29,-3.18 0.87,-4.04 14.82,-21.33 25.45,-31.96 31.96,-31.96 3.68,0 6.5,0.8 8.6,2.46 2.02,1.59 6.36,7.16 13.01,16.55 7.3,10.49 10.99,16.99 10.99,19.52l-2.53 10.78c-1.88,7.37 -2.82,12.94 -2.82,16.69 0.07,20.46 0.07,58.85 0,115.16 0,2.39 1.15,4.7 3.4,6.94 15.1,14.82 26.89,22.27 35.2,22.27 13.59,0 20.39,-18.94 20.39,-56.75l0 -103.59c0,-1.52 0.07,-2.68 0.14,-3.4 -0.14,-3.54 -0.22,-4.92 -0.22,-4.19 -7.73,-7.23 -13.15,-10.85 -16.26,-10.85 -0.58,0 -1.45,0.15 -2.67,0.37 -1.16,0.14 -2.1,0.29 -2.61,0.29 -0.14,-0.44 -0.43,-0.95 -0.86,-1.52 0,-2.53 4.91,-8.46 14.82,-17.71 10.4,-9.84 17.99,-14.75 22.62,-14.75 2.17,0 5.5,1.37 9.98,4.12 6.36,3.9 10.19,6.07 11.42,6.65 6.8,3.03 12.51,4.55 17.2,4.55 3.4,0 7.09,-0.94 11.07,-2.81 4.04,-1.96 6.14,-2.9 6.28,-2.9l2.75 0c0.72,0.58 1.3,0.87 1.67,0.87l0 3.18zm123.11 -120.58c0,5.78 -5.14,12.43 -15.26,19.95l-3.39 0c-3.69,-8.75 -8.03,-13.15 -12.94,-13.15 -14.97,0 -22.49,14.38 -22.49,43.01l0 237.62c0,6.36 1.67,12.07 5.06,17.2 10.49,15.76 18.44,23.72 23.79,23.72 0.58,-0.15 2.89,-0.66 7.01,-1.52 0.29,0.43 0.65,1.01 1.01,1.73 -3.47,4.48 -10.41,10.99 -20.6,19.52 -10.27,8.46 -18.15,14.39 -23.64,17.78 -2.1,-0.57 -5.71,-4.55 -10.77,-11.85 -6.65,-9.47 -11.13,-15.4 -13.59,-17.79l-14.82 -12.29c-1.09,-1.01 -1.66,-2.24 -1.66,-3.61l4.91 -9.54c3.11,-6.22 4.7,-10.85 4.7,-13.81l0 -250.85c0,-4.48 -2.39,-8.24 -7.23,-11.2 -4.12,-2.53 -8.67,-3.83 -13.59,-3.83 -1.16,-0.87 -1.73,-1.6 -1.73,-2.32 1.15,-1.15 2.38,-1.88 3.83,-2.17 6.79,-0.65 12.79,-1.59 18,-2.74 6.5,-1.38 22.48,-9.19 48.07,-23.28 15.11,-8.32 25.37,-12.51 30.94,-12.51 3.11,0 6.22,1.23 9.47,3.62 3.25,2.38 4.92,5.2 4.92,8.31zm123.11 300.37c0,6.14 -6.8,14.38 -20.32,24.72 -4.26,3.26 -12.14,8.97 -23.71,16.99 -2.02,1.45 -9.76,7.23 -23.35,17.28 -7.88,-6.58 -19.51,-17.06 -34.91,-31.59 -2.1,-3.4 -5.35,-7.88 -9.76,-13.45 -1.67,0.72 -4.63,1.66 -8.89,2.75l0 -2.97c0,-0.36 0.79,-2.82 2.45,-7.3 1.67,-4.41 2.68,-7.15 2.97,-8.17 2.75,-11.71 4.12,-22.19 4.12,-31.59l0 -98.75c0,-2.67 -2.32,-7.01 -6.94,-13.15 2.38,-0.8 8.82,-3.62 19.3,-8.46 4.48,-2.1 13.37,-6.36 26.68,-12.72l22.19 -15.91c13.44,-9.47 22.19,-14.17 26.31,-14.17 6.15,0 10.27,2.68 12.22,8.03 6.94,18.58 10.41,31.8 10.41,39.9 0,17.35 -13.16,38.75 -39.47,64.05 -2.68,2.82 -6.58,6.94 -11.79,12.51 -6.57,6.94 -10.62,10.33 -12.14,10.33l-2.1 0c-1.52,-1.37 -2.31,-2.96 -2.31,-4.62 0,-3.11 4.05,-6.94 12.29,-11.42 1.37,-0.87 3.47,-2.9 6.14,-6.15 8.75,-10.92 13.09,-24.29 13.09,-40.27 0,-4.19 -0.07,-7.01 -0.22,-8.45 -0.43,-4.12 -2.38,-10.27 -6,-18.44 -4.84,-11.28 -9.9,-16.91 -15.18,-16.91 -2.53,0 -5.28,1.52 -8.1,4.55 -2.89,3.04 -4.55,5.86 -5.13,8.53 -1.01,4.56 -1.52,7.38 -1.52,8.53l0 82.77c0,1.16 -0.43,10.34 -1.3,27.55 0,1.23 -0.36,3.25 -1.08,5.92 -0.73,2.68 -1.09,4.7 -1.09,6.15 0,5.93 1.52,11.13 4.49,15.69 4.12,6.36 12.57,14.38 25.44,24.14 6.44,4.92 11.21,7.38 14.17,7.38 6.22,0 11.13,-3.83 14.82,-11.64 1.81,-5.21 3.69,-10.34 5.49,-15.47 1.31,-2.1 3.26,-3.18 5.93,-3.18 1.45,0 2.89,0.86 4.48,2.45 1.52,1.67 2.32,3.19 2.32,4.56z"/>
   <path class="fil0" d="M2879.78 1069.92c3.02,2.85 2.31,6.95 -2.14,12.65 -47.56,59.14 -110.44,88.7 -188.63,88.7l-179.37 -16.2c-0.89,2.67 -2.85,7.48 -5.7,14.07 -22.8,14.07 -36.16,32.77 -39.54,55.93 -9.8,63.94 -14.61,105.27 -14.61,123.44l0 72.67 121.12 0.53c6.24,0.72 14.61,1.07 25.12,1.07 10.69,0 23.15,0 37.4,0 -6.23,16.39 -14.07,35.98 -23.51,58.61 -7.66,13.35 -16.39,33.13 -26.18,59.31 -5.53,2.14 -8.37,3.03 -8.37,3.03 0.35,-1.25 1.42,-7.66 3.2,-19.06 1.07,-8.55 0,-14.96 -3.2,-19.06 -6.77,-8.91 -32.6,-13.36 -77.31,-13.36l-48.27 0 0 221.05c0,70.89 -14.43,130.21 -43.28,178.3 -7.84,13 -20.84,28.32 -39.19,46.13 -31.71,30.28 -57.18,50.05 -76.42,59.5 -39.36,18.88 -67.33,28.32 -84.07,28.32 -13.36,0 -35.8,-7.48 -67.51,-22.27 -31.7,-14.78 -55.04,-22.08 -70,-22.08 -27.79,0 -45.78,15.13 -53.79,45.42l-7.84 0c-5.16,-2.14 -7.84,-5.88 -7.84,-11.4 0,-6.24 5.88,-16.39 17.82,-30.28 10.86,-12.12 19.77,-20.31 27.25,-24.94 49.87,-31.17 86.74,-46.67 110.79,-46.67 14.96,0 38.12,6.77 69.11,20.48 31,13.9 53.62,20.67 68.04,20.67 52.55,0 78.91,-48.27 78.91,-144.99l0 -134.66c0,-18.88 -3.2,-56.83 -9.44,-113.83 -4.63,-41.32 -20.66,-67.68 -48.27,-78.72 -0.71,-0.72 -1.42,-1.07 -2.14,-1.07 -0.71,0.35 -1.07,1.24 -1.07,2.67l0 388.66 -20.3 0 0 -404.87c-11.4,-5.88 -30.28,-8.91 -56.29,-8.91 -20.66,0 -35.62,4.64 -44.88,14.08l-7.84 0 -4.28 -4.1c42.4,-45.6 80.16,-68.94 113.29,-70l0 -230.67 20.3 0 0 228.53c17.99,3.92 36.16,10.33 54.51,19.41 0,-7.3 0,-11.04 0,-11.04 3.56,-58.96 9.8,-102.06 18.7,-129.14 16.75,-49.52 48.45,-86.74 95.48,-111.32 0.89,-2.14 3.91,-5.88 8.72,-11.4 -92.8,-11.23 -180.97,-16.75 -264.15,-16.75 -37.94,0 -64.3,1.43 -79.27,4.1 -28.49,5.34 -51.3,16.92 -68.39,34.91 -9.8,10.33 -15.14,25.29 -16.21,44.71 -0.36,6.23 -0.54,22.8 -0.54,49.87 0,4.28 -4.81,11.58 -14.25,22.09 -9.44,10.69 -16.38,15.85 -20.48,15.85 -11.76,0 -17.64,-13.89 -17.64,-41.68 0,-30.81 25.83,-69.82 77.67,-117.02 48.09,-43.82 87.45,-69.11 117.91,-76.06 27.97,-6.24 56.82,-9.44 86.75,-9.44 31.53,0 71.42,2.67 119.34,8.19l89.24 10.33c32.42,3.57 75.7,8.37 130.03,14.43 51.12,5.88 94.4,8.91 129.85,8.91 28.85,0 50.23,-1.78 64.12,-5.35 19.24,-4.8 38.3,-14.96 57.54,-30.28z"/>
   <path class="fil0" d="M2964.67 1503.17c0,15.05 -6.42,30.1 -19.28,44.98 -57,66.14 -113.15,102 -168.63,107.58 -3.72,0.34 -10.32,0.84 -19.79,1.52 -13.02,11.84 -23.85,39.92 -32.81,84.23 -7.61,37.55 -11.33,69.69 -11.33,96.07 13.86,6.94 36.53,18.1 68.33,33.66l65.79 32.82c68.34,38.9 102.5,89.98 102.5,153.07 0,42.28 -22.32,88.29 -66.81,138.18 -27.4,30.79 -70.87,62.75 -130.57,96.24 -16.07,6.94 -34.85,17.09 -56.33,30.62l0 86.26 -16.23 0 0 -81.19c-17.76,4.74 -27.91,7.11 -30.45,7.11 -4.57,0 -7.61,-0.68 -8.96,-2.03 -17.93,-19.12 -43.64,-36.71 -77.13,-52.61 -34.51,-16.23 -64.28,-24.35 -89.48,-24.35 -20.63,0 -33.32,4.4 -37.88,13.36 -7.95,14.88 -11.51,26.39 -10.83,34.67 -1.69,4.91 -4.06,7.45 -7.1,7.45 -7.45,0 -11.17,-6.43 -11.17,-19.29 0,-8.28 4.74,-17.42 14.38,-27.23 43.13,-45.33 87.28,-67.99 132.78,-67.99 43.46,0 85.41,12.85 125.84,38.22l0 -113.49c0,-12.85 -5.59,-25.54 -16.92,-37.89 -11.33,-12.34 -23.34,-19.45 -35.86,-21.14 -12.68,-1.52 -17.76,-2.37 -15.56,-2.37 -7.78,0 -17.08,3.22 -27.4,9.64 -10.48,6.43 -16.91,13.37 -19.28,20.64l-5.92 0c-1.18,-3.72 -1.86,-5.75 -1.86,-6.09 0,-2.54 9.64,-20.8 29.09,-54.46 15.39,-27.06 36.87,-40.6 64.11,-40.6 -3.22,0 6.59,1.19 29.6,3.39 0.5,-17.42 0.5,-26.22 0,-26.22 0,-4.57 0,-9.98 0,-15.9 0.5,-4.9 0.5,-8.12 0,-9.3 -5.92,-4.06 -13.37,-7.95 -22.16,-12.01 -12.52,-5.58 -31.12,-14.04 -55.65,-25.2 -22.16,-10.32 -43.81,-23.17 -65.12,-38.73 -13.19,-9.48 -25.2,-24.02 -36.19,-43.47 -11.17,-19.62 -17.09,-37.38 -18.1,-53.62 -0.68,-7.95 0.17,-15.06 2.54,-21.31 2.02,-4.23 3.72,-8.8 5.41,-13.36 7.95,-31.97 33.49,-67.83 76.79,-107.58 22.83,-20.8 60.55,-50.57 113.15,-89.64 5.92,-3.89 16.58,-10.83 32.14,-20.81l5.92 0c0.67,1.36 1.52,3.05 2.53,4.91 0.34,7.95 8.8,18.44 25.21,31.29 16.57,12.86 28.92,19.28 37.21,19.28 3.38,-2.2 11.33,-10.15 23.85,-23.68 41.94,-45.33 82.71,-67.99 122.45,-67.99 23.51,0 35.18,8.12 35.18,24.36zm-28.41 22.32c0,-16.24 -10.66,-24.36 -31.8,-24.36 -16.91,0 -36.03,7.62 -57.17,23.01 -4.73,3.21 -12.51,10.32 -23.51,21.31 -13.87,14.04 -20.8,23.17 -20.8,27.4 0,1.69 1.18,3.72 3.38,6.09 9.64,3.04 21.14,4.4 34.34,4.4 17.25,0 31.63,-2.03 42.79,-6.43 35.18,-13.7 52.77,-30.78 52.77,-51.42zm-197.73 129.73c-12.17,-3.55 -29.76,-9.98 -52.6,-19.28 -26.38,-13.87 -45.5,-26.89 -57.34,-39.24 -44.65,39.07 -66.97,74.76 -66.97,107.06 0,53.96 44.48,96.58 133.28,127.87 9.3,-73.57 23.85,-132.43 43.63,-176.41zm125.68 448.9c0,-35.86 -17.43,-67.66 -52.44,-95.06 -21.65,-16.91 -60.38,-37.89 -116.03,-62.92l0 300.22c1.36,5.25 6.6,11.84 15.73,19.46 9.14,7.44 16.41,11.33 21.65,11.33 2.37,-0.68 9.14,-2.88 20.47,-6.43 35.52,-10.99 63.6,-34 84.23,-69.35 17.59,-30.44 26.39,-62.75 26.39,-97.25z"/>
   <path class="fil1" d="M2598.83 494.14c14.08,-21.53 43.14,-25.53 60.12,-3.39 12.29,16.03 12.6,43.53 -0.85,62.32 -33.71,47.12 -93.84,-6.1 -59.27,-58.93zm-56.69 -174.04c2.77,-10.95 20.37,-6.01 16.92,5.26 -3.27,10.7 -20.22,7.8 -16.92,-5.26zm28.99 -11.02c-1.43,-2.77 -0.99,-3.02 -1.91,-6.57l-8.46 -41.8c-0.94,-4 -1.48,-7.63 -2.27,-12.02 -0.79,-4.32 -1.6,-7.64 -2.4,-12.05l-4.41 -24.43c-1.79,-2.5 -17.02,-81.82 -17.41,-83.83 -2.81,-14.31 -6,-28.23 -8.55,-42.36l-8.55 -42c-3.32,7.23 -3.58,28.01 -2.66,37.42 2.38,24.38 2.44,66.23 4.36,93.29 0.45,6.37 0.7,12.43 0.78,18.67 0.33,23.13 3.12,51.1 3.5,74.62 0.1,6.49 0.37,12.35 0.83,18.67 1.07,15.04 1.22,44.08 2.64,56.15 3.05,1.87 13.86,4.61 17.93,5.91 13.3,4.26 10.96,1.98 15.31,10.53 3.82,7.5 48.81,98.65 50.12,103.23 -7.27,6.07 -15.29,6.63 -26.08,22.37 -32.94,48.01 3.78,111.53 49.43,103.1 4.45,-0.83 9.37,-3.1 14.36,-2.43 22.95,3.09 32.32,29.09 40.6,31.52 3.84,1.13 10.64,-0.41 14.11,-4.87 -2.43,-6.5 -14.79,-17.77 -23.26,-37.62 -7.28,-17.06 1.85,-22.89 5.35,-41.07 5.46,-28.28 -7.47,-61.23 -39.03,-72.6 -5.7,-2.05 -17.73,-30 -20.91,-36.5 -15.26,-31.15 -33.15,-65 -47.77,-95.83 -1.68,-3.53 -3.31,-5.66 -4.09,-9.45l-1.58 -8.54c-0.08,-1.73 -0.02,-0.97 0.02,-1.51z"/>
   <path class="fil1" d="M2430.9 495.95c12.35,-24.25 41.25,-29.36 59.43,-9.12 14.95,16.65 18.15,41.47 8.24,60.73 -12.68,24.65 -40.3,29.89 -59.93,9.34 -15.05,-15.75 -17.48,-41.83 -7.74,-60.95zm-5.08 73.86l12.57 9.94c3.68,0.65 8.35,3.66 12.29,4.96 26.68,8.84 54.75,-7.35 65.06,-33.39 1.39,-3.51 3.29,-10.47 4.61,-12.75 3.27,-0.68 6.08,-0.98 9.43,-4.29 3.33,-3.31 4.22,-6.48 4.26,-10.23 0.11,-12.61 -13.31,-14.34 -13.68,-14.73 -1.87,-4.4 -2.1,-8.52 -4.37,-13.64 -8.7,-19.62 -15.42,-25.29 -34.61,-35.73l66.03 -99.01 -31.31 -10.04c-6.03,9.23 -12.29,21 -17.7,30.75 -5.5,9.92 -11.66,20.06 -17.03,30.14l-25.82 44.97c-1.71,1.63 -4.44,1.77 -6.58,2.32 -12.4,3.19 -25.74,14.59 -32.21,26.59 -5.37,9.95 -7.98,19.3 -8.82,29.02 -1.43,16.49 2.92,33.93 12.83,47.74 0.9,1.25 1.48,1.94 2.49,3.24 0.45,0.57 0.89,1.07 1.28,1.67 0.16,0.24 0.58,0.99 0.7,1.2l0.58 1.27z"/>
   <path class="fil1" d="M2560.98 214.6c1.83,3.4 4.16,18.1 5.25,23.2l11.58 57.26c0.91,3.84 0.93,7.33 2.49,11.12 1.14,2.62 0.19,1.34 1.55,0.41l6.31 -62.58c3.18,-41.25 9.07,-85.83 12.28,-126.86 0.79,-10.1 2.09,-21.2 3.1,-31.43 1.11,-11.11 3.99,-20.33 -2.54,-31.1l-1.29 -1.7 -0.83 2.94c-3.06,2.98 -30.25,123.65 -37.32,149.06 -2.09,7.52 0.65,6.5 -0.58,9.68z"/>
   <path class="fil2" d="M2598.88 55.86l0.83 -2.94 1.29 1.7c0.2,-2.83 0.56,-1.51 -1.43,-3.97 -0.43,1.06 -0.7,0.99 -0.89,2.23 -0.3,1.96 -0.16,1.13 0.2,2.98z"/>
   <path class="fil3" d="M2579.67 308.67l2.02 1.25 0.16 -3.33c-1.36,0.93 -0.41,2.21 -1.55,-0.41 -0.08,1.79 -0.14,1.04 -0.63,2.49z"/>
   <path class="fil4" d="M2465.98 328.68c-29.83,-14.78 -38.84,-7.2 -70.08,-5.15 -33.61,-0.51 -37.5,-14.78 -54.86,-18.54 2.49,13.22 7.8,28.66 15.11,33.37 -24.95,2.63 -47.54,-3.5 -74.05,5.36 -18.82,6.29 -40.41,23.4 -32.46,48.49 24.24,6.92 39.15,-23.85 56.53,-33.07 19.11,-10.14 54.17,-9.44 74.3,0.87 -39.25,17.07 -81.65,26.91 -136.03,52.04 -47,21.71 -98.83,55.56 -136.74,55.74 -44.79,0.23 -67.24,-23.92 -92.52,-49.96 -30.03,-30.95 -78.07,15.22 -18.72,48.16 23.82,13.22 46.54,17.1 76.51,20.38l-4.25 2.28c-16.9,6.61 -38.72,4 -75.13,-8.11 -44.06,-14.65 -48.99,-5.72 -50.43,35 -35.02,-28.88 -15.6,-52.34 -20.02,-67.55 -20.03,-9.7 -17.01,8.45 -51.78,1.47 -1.33,-0.27 -6.41,-1.23 -6.42,-1.23 -19.33,-0.44 -9.35,36.92 18.9,59.84 8.58,6.96 11.85,7.29 17.94,14.19 -44.8,-0.61 -68.27,-23.12 -100.87,-35.85 4.57,7.83 1.23,3.16 7.59,8.88 0.34,0.31 7.98,5.91 8.44,6.23 131.47,90.68 248.81,1.41 359.84,-26.12 -6.69,9.26 -99.7,70.26 -27.92,131.51 10.38,-11.08 0.37,-12.2 32.88,-46.31 -13.38,-14.34 -21.17,-15.17 -23.37,-41.75 12.19,9.47 26.43,21.87 41.32,1.32 14.27,-19.69 0.87,-81.94 92.33,-99.81 -10.03,17.8 -99.47,102.89 -46.11,135.44 36.76,0.77 45.06,-38.73 50.46,-71.32 7.78,-47 7.58,-55.68 38.29,-82.16 58.04,-50.04 411.04,-51.28 454.37,29.86 9.35,17.51 8.82,29.48 11.76,49.59 4.92,33.61 14.88,74.75 50.91,74.06 28.91,-18.07 12.62,-50.54 -1.42,-76.09 -6.22,-11.3 -14.02,-22.27 -21.63,-31.25 -7.11,-8.39 -18.43,-19.61 -23,-28.13 34.04,7.85 64.72,25.17 76.72,50.77 7.59,16.2 4.58,33.94 15.6,49.04 11.42,15.66 29.96,12.82 40.68,-2.37 0.67,21.34 -11.6,32.64 -22.79,42.8 32.54,34.67 22.62,35.58 32.88,46.3 27.72,-26.05 21.73,-16.66 27.44,-61.25 -4.91,-5.8 -14.51,-34.58 -37.13,-54.68 -8.07,-7.17 -12.6,-7.41 -18.12,-15.6 28.71,7.18 62.63,22.95 92.21,32.61 32.52,10.61 61.47,20.53 96.28,27.51 60.3,12.1 130.51,2.48 177.85,-38.98l9.4 -10.28c-30.14,11.5 -58.85,37.46 -100.52,35.59 7.43,-7.86 21.19,-13.91 32.61,-28.28 9.63,-12.11 15.13,-25.96 11.67,-44.69 -11.17,-3.63 -16.06,4.47 -32.21,2.26 -14.18,-1.93 -19.24,-9.54 -33.74,-3.23 -5.94,19.73 17.5,29.43 -19.89,67.66 -3.21,-40.47 -4.57,-49.61 -50.73,-35.1 -22.1,6.95 -58.68,19.95 -79.23,5.99 160.94,-17.94 98.65,-107.54 59.13,-70.19 -7.91,7.48 -14.34,15.37 -23.11,23.89 -44.34,43.09 -96.6,29.19 -142.24,3.66 -21.51,-12.02 -40.49,-20.68 -63.12,-30.86 -52.27,-23.53 -102.76,-37.37 -138.18,-52.95 20.62,-9.61 54.23,-11.37 74.37,-0.81 17.15,9 32.69,39.55 56.47,33.12 8.58,-23.5 -11.35,-40.16 -28.14,-46.89 -27.93,-11.19 -51.16,-4.03 -78.17,-7.05 7.66,-5.42 12.75,-19.05 14.14,-33.4 -14.43,5.65 -20.5,14.89 -42.31,17.86 -21.53,2.92 -34.53,-4.95 -55.26,-2.68 -19.44,2.13 -28.43,11.07 -41.88,16.85 -46.07,19.79 -146.78,-6.53 -150.35,-8.3z"/>
   <path class="fil5" d="M3237.54 640.79c18.03,-1.62 140.91,37.2 222.73,11.13 82.3,-26.22 98.93,-114.36 54.71,-156.85 -50.86,-47.14 -118.26,25.29 -75.58,74.82 11.25,13.05 22.53,16.3 44.12,19.43 -9.16,23.11 -39.09,31.22 -62.7,34.11 -31.94,3.91 -62.92,2.12 -94.91,0.7 1.66,-10.75 7.24,-13.66 13.78,-19.65 9.04,-8.27 14.23,-10.92 19.12,-19.98l-51.62 3.32c4.18,-31.63 -9.5,-24.01 -13.04,-57.96 -24.21,2.02 -36.24,19.79 -44.6,36.67 -29.05,-13.88 -43.47,4.88 -70.04,13.03 -66.86,20.52 -169.43,-58.27 -201.29,-72.31 34.83,39.67 161.56,98.74 224.26,120.27 6.43,2.21 11.15,3.61 17.85,5.59 4.53,1.34 5.2,1.28 8.87,2.85l6.28 3.47c0.36,-0.62 1.41,0.86 2.06,1.36z"/>
   <path class="fil5" d="M2110.87 507.42c-26.2,10.32 -133.77,92.98 -201.44,71.93 -26.2,-8.14 -39.48,-27.57 -70.01,-12.73 -7.3,-15.81 -22.33,-35.93 -44.57,-36.49 -4.87,45.53 -19.14,19.5 -12.82,57.75 -21.27,-3.45 -30.05,-4.46 -51.66,-1.58 3.07,4.41 1.08,1.8 4.67,5.6l14.31 12.38c6.69,5.47 12.51,9.38 13.52,19.9 -51.65,2.27 -137.72,10.34 -157.24,-34.27 24.23,-5.75 34.16,-6.76 46.33,-23.45 12.21,-16.76 13.82,-40.69 4.12,-59.99 -18.35,-36.53 -74.4,-31.24 -94.48,2.08 -22.73,37.71 -7.52,85.31 14.25,110.44 70.32,81.17 271.25,24.28 349.14,-5.79 52.78,-20.37 158.67,-74.9 185.88,-105.78z"/>
   <path class="fil4" d="M1903.27 674.19l6.31 4.54c5.11,3.87 10.12,6.42 10.71,17.28 1.82,33.35 -58.69,43.62 -69.86,18.83 -10.21,-22.65 7.07,-43.65 17.7,-52.63 14.49,-12.25 38.49,-13.39 59.26,-17.34 76.89,-14.64 143.17,-51.95 184.75,-115.96 -31.56,24.87 -55.2,49.26 -98.55,72.81 -45.73,24.85 -85.31,25.79 -134.72,41.84 -23.54,7.64 -38.58,18.23 -44.98,43 -7.52,29.08 5.92,48.65 27.44,55.74 63.06,20.76 103.46,-68.57 41.94,-68.11z"/>
   <path class="fil4" d="M2982.88 542.24l40.95 40.33c12.63,11.98 32.79,24.1 51.8,33.53 19.03,9.43 39.77,17.67 61.94,23.51 13.39,3.52 60.44,9.45 67.03,14.73 34.62,9.67 52.65,62.91 19.49,72.82 -34.72,10.38 -70.33,-21.91 -50.01,-43.92l11.04 -8.92 -12.87 -0.16c-38.74,20.45 -5.97,72.2 40.71,70.65 37.35,-1.23 52.19,-33.62 40.08,-64.89 -6.76,-17.45 -11.89,-13.13 -13.18,-22.46 -64.74,-37.12 -110.8,-13.38 -211.15,-85.7 -19.85,-14.31 -34.1,-29.52 -51.42,-42.93l5.59 13.41z"/>
   <path class="fil6" d="M3172.25 674.16l12.87 0.16 -11.04 8.92c-20.32,22.01 15.29,54.3 50.01,43.92 33.16,-9.91 15.13,-63.15 -19.49,-72.82 -7.96,7.65 -4.2,10.05 -23.52,9.2 13.32,16.52 8.8,5.92 8.8,5.88 -2.3,0 -7.09,-0.22 -9.15,0.41 -6.53,2.01 -5.21,2.14 -8.48,4.33z"/>
   <path class="fil7" d="M1281.21 1849.77l-1.25 -2.83c-3.81,-9.07 -4.07,-18.3 -7.39,-26.97 -3.11,3.46 -3.23,2.67 -2.81,8.68l5.11 21.99c3.84,10.89 10.34,22.13 18.44,31.21l10.49 8.92c0.32,0.25 0.75,0.6 1.07,0.85 0.34,0.26 0.75,0.64 1.09,0.89l2.28 1.76c17.77,12.19 46.24,12.91 64.45,1.44 -10.77,4.44 -18.91,5.33 -33.7,2.34l-24.52 -10.25 -5.37 3.36c0.93,-9.67 0.48,-6.12 -5.53,-11.26 -6.3,-5.38 -6.21,-5.76 -7.38,-10.64l-5.11 3.34c-0.12,-0.25 -0.54,0.34 -0.81,0.51 2.37,-9.94 -3.02,-10.49 -9.06,-23.34z"/>
   <path class="fil7" d="M3708.01 1895.69c17.44,11.39 42.33,10.03 59.46,1.44l21.62 -17.37 18.26 -33.57c2.35,-7.24 6.41,-19.83 0.8,-26.3 -3.64,9 -3.86,18.83 -8.09,28.42 -6.4,14.46 -12.06,14.49 -9.67,24.77 -3.68,-2.14 0.1,0.08 -2.93,-1.91l-2.97 -1.99c-0.87,5.8 1,2.52 -4.22,7.84 -0.3,0.32 -0.75,0.66 -1.07,0.96 -0.32,0.29 -0.73,0.67 -1.05,0.95 -7.17,6.31 -7.48,2.67 -6.59,12.22l-2.92 -2.73c-5.57,-3.9 3.05,0.4 -2.46,-0.69 -4.14,6.08 -2.22,-0.92 -2.16,7.22l-5.38 -2.97c-0.31,0.03 -5.43,2.33 -6.31,2.73 -4.23,1.91 -7.23,2.68 -12.23,3.6 -14.64,2.7 -21.59,1.58 -32.09,-2.62z"/>
   <path class="fil8" d="M1534.58 1138.54c5.83,13.65 18.71,20.8 25.3,4.4 -15.91,19.47 -30.2,-7.65 -17.68,-24.21 27.46,-36.33 104.77,-11.5 124.08,45.69 -4.69,-3.37 -9.7,-12.49 -12.89,-16.73 -11.82,-15.72 -41.71,-37.64 -56.56,-32.29 21.93,14.89 44.26,6.97 77.72,77.86 12.23,25.91 0.74,70.55 -8.63,95.08 4.42,-3.06 6.61,-9.67 8.9,-15.74 2.28,-6.06 4.2,-12.56 5.87,-19.42 3.57,-14.77 4.73,-31.49 3.54,-47.15 -9.81,-128.51 -151.4,-137.03 -149.65,-67.49z"/>
   <path class="fil8" d="M3414.4 1164.41c9.07,-27.34 38.1,-54.88 70.41,-61.49 30.98,-6.34 64.89,12.24 57.69,36.26 -3.8,12.73 -16.97,10.72 -16.99,10.66 -0.15,-0.36 -0.77,0.01 -1.11,0.17 28.25,9.87 34.77,-40.67 -12.81,-52.63 -33.18,-8.34 -66.15,11.27 -80.94,26.44 -40.85,41.91 -43.92,124.31 -16.74,165.98 1.34,2.05 1.69,2.34 2.77,3.56 -2.5,-9.03 -7.23,-16.46 -10.16,-27.18 -6.41,-23.44 -6.77,-41.52 -2.62,-64.77 0.72,-4.04 1.05,-5.57 2.26,-8.16 19.95,-42.73 35.99,-63 81.43,-77.85l-13.02 0.18c-3.78,0.84 -7.55,1.95 -11.61,3.66 -12.6,5.28 -26.01,15.96 -34.76,27.18 -4.61,5.93 -8.64,14.28 -13.8,17.99z"/>
   <path class="fil8" d="M3474.45 1546.15c0.06,17.25 25.29,62.53 33.48,75.92 29.13,47.61 65.38,87.62 124.98,94.81 57.21,6.89 65.58,-40.17 40.33,-39.36 -3.63,5.29 -2.34,1.43 -2.05,9.28 11.55,-13.79 6.15,11.12 -2.49,16.64 -9.91,6.34 -25.21,6.76 -37.94,5.76 -41.78,-3.27 -51.71,-18.61 -66.52,-24.12 7.03,-4.8 6.7,1.39 25.09,7.72 8.98,3.1 17.91,2.79 25.67,4.73 -2.22,-3.5 -47.33,-19.06 -53.07,-21.25 -11.05,-4.23 1.15,6.11 -9.33,-2.13 -3.26,-2.57 -5.71,-6.47 -9.64,-9.82 -6.35,-5.4 -11.68,-12.67 -16.98,-19.67 -10.65,-14.05 -20.04,-30.34 -28.94,-46.33 -11.13,-20.02 -16.6,-40.28 -21.29,-50l-1.3 -2.18z"/>
   <path class="fil8" d="M1575.4 1615.25l-6.05 7.3c-1.78,2.78 -2.29,3.86 -4.4,7.14 -3.38,5.26 -5.99,9.35 -10.24,14.95 -3.57,4.71 -7.61,9.87 -11.06,14.01 -19.08,22.91 -20.9,16.15 -24.85,17.65 -7.12,2.73 -50.88,17.85 -53.07,21.24 6.07,-1.55 10.39,-0.99 16.17,-2.01 14.8,-2.62 26.77,-11.9 30.28,-11.93l4.3 1.48c-9.22,3.4 -17.47,11.43 -30.39,16.29 -10.39,3.91 -24.53,7.01 -36.21,7.87 -52.04,3.83 -50.31,-27.33 -44.63,-26.78 3.42,0.33 -0.08,-0.46 2.49,1.9l1.75 2.42c0.27,-7.89 1.55,-3.93 -2.08,-9.21 -23.55,-0.97 -15.25,35.45 17.84,39.56 24.15,3.01 50.99,-4.89 69.8,-14.47 29.12,-14.83 76.46,-66.83 80.35,-87.41z"/>
   <path class="fil8" d="M3462.95 1318.95c-2.66,-2.03 -1.14,-0.59 -3.48,-3.2 -17.26,-19.21 -16.29,-59.59 5.64,-72.52 8.58,-5.06 17.88,-5.21 23.68,1.47 -4.16,10.45 -1.53,-2.81 -4.73,6.08l7.06 -0.84c8.66,-25.89 -43.99,-24.57 -48.91,20.04 -1.72,15.59 3.3,29.14 10.62,40.55 4.86,7.57 17.3,23.93 24.47,20.09 -8.98,-4.15 -17.38,-22.31 -13.55,-38.8 1.7,-7.28 5.92,-13.49 11.03,-15.96 9.97,-4.83 10.69,3.43 10.69,3.43 1.64,2.62 -2.32,0 2.36,2.64 0.09,-0.14 6.32,-2.67 0.52,-10.5 -4.25,-5.76 -16.29,-5.63 -25.5,6.18 -10.38,13.32 -4.26,27.13 0.1,41.34z"/>
   <path class="fil9" d="M1319.87 1549.89l11.03 10.86c7.45,7.97 29.78,25.88 39.66,26.41 -46.01,-17.09 -74.84,-98.68 -33.76,-97.73l0.98 6.99c0.04,0.15 0.21,0.65 0.39,0.93 16.68,-22.2 -46.03,-23.7 -26.95,32.91 3.73,11.04 7.6,12.85 8.65,19.63z"/>
   <path class="fil9" d="M3743.67 1493.28c0.76,-5.02 -0.97,2.34 0.2,-3.89 30.63,-0.5 18.29,40.36 9.42,57.48 -11.65,22.45 -24.02,27.05 -43.14,41.18 20.17,-5.88 44.42,-30.05 53.87,-45.93 17.94,-30.18 5.92,-66.18 -20.3,-58.56 -3.06,5.62 -6.38,6.94 -1.17,13.8l1.12 -4.08z"/>
   <path class="fil9" d="M3505.81 1429.36c-1.93,-3.34 -1.49,-3.47 -2.84,-6.66l-4.15 -7.59c2.94,49.24 58.89,44.49 44.77,17.18 -9.35,1.22 -3.61,1.59 -2.36,7.32 -9.64,14.12 -29.35,0.25 -35.42,-10.25z"/>
   <path class="fil9" d="M1592.89 1281.8c9.39,-5.14 0.41,0.08 3.1,-4.48 4.81,-8.15 14.39,0.48 17.81,6.31 8.2,13.97 3.17,23.73 -0.21,37.17 2.87,-2.23 1.31,-0.2 3.67,-3.34 6.02,-8.02 9.16,-25.85 2.05,-37.39 -11.79,-19.12 -27.69,-11.98 -28.39,-4.32 -0.9,9.85 0.28,3.46 1.97,6.05z"/>
   <path class="fil9" d="M1539.45 1439.61c1.39,-6.01 6.7,-5.96 -2.35,-7.34 -13.97,26.62 40.81,33.01 44.82,-17.21 -4.38,5.82 -4.3,9.51 -7.06,14.25 -6.28,10.81 -26.09,24.23 -35.41,10.3z"/>
   <path class="fil10" d="M1516.12 1460.77c3.01,-1.66 -0.67,-0.01 3.36,-0.95l3.67 -0.91c-15.77,-20.52 -18.6,40.97 29.82,21.86 20.7,-8.16 32.63,-28.99 32.53,-57.35 -0.26,0.49 -0.61,0.68 -0.7,1.53 -0.09,0.85 -0.53,1.14 -0.64,1.55l-2.11 10.04c-10.38,45.2 -62.45,50.22 -65.93,24.23z"/>
   <path class="fil11" d="M3741.78 1591.37c-22.47,11.86 -62.37,25.57 -86.21,28.88 -15.62,2.16 -31.13,0.81 -44.06,2.36l-42.05 -10.83c48.42,22.41 113.45,32.5 174.98,13.31 12.91,-4.03 26.51,-9.36 36.75,-15.57 20.6,-12.48 47.9,-39.55 33.39,-64.37 -10.99,-18.81 -29.43,-3.85 -18,5.67 0.13,-0.23 0.02,-0.68 0.03,-0.79l1.9 -7.91c24.75,11.43 0.69,55.4 -46.74,74.47 -32.28,12.98 -68.88,17.75 -104.06,15.05l-14.27 -2.3c-0.3,-0.63 -1.05,-0.34 -1.54,-0.6 2.07,-0.87 -2.6,-0.13 4.74,-1.13l11.95 -0.22c23.54,-1.25 68.19,-16.61 68.35,-16.68l27.93 -14.41c3.78,-2.48 7.11,-4.66 9.06,-9.94 -4.76,1.11 -7.51,2.56 -12.15,5.01z"/>
   <path class="fil11" d="M1340.41 1626.81c71.73,8.95 94.65,17.12 170.8,-14.95l-39.29 10.9 -46.78 -2.52c-49.13,-6.93 -89.56,-33.05 -98.37,-32.95 4.89,7.6 14.65,13.03 24.04,17.49l30.13 11.87c41.4,14.25 46,8.2 61.69,10.64 6.74,1.05 3.79,-2.35 5.74,3.33 -49.07,0.99 -75.4,3.83 -120.79,-14.57 -46.4,-18.81 -69.99,-62.9 -45.37,-73.9 4.5,6.1 -0.14,5.19 1.93,8.68 12.32,-10.42 -9.81,-24.87 -19.42,-3.21 -12.38,27.92 20.01,53.03 39.76,64.72 10.33,6.11 28.32,9.76 35.93,14.47z"/>
   <path class="fil12" d="M1375.82 1590.38l7.62 4.27c22.63,9.54 66.04,18.22 85.79,13.14 -14.41,0.1 -45.95,-0.37 -56.14,-5.43 -10.73,-5.34 -12.81,-34.05 -22.81,-40.03 -6.52,3.81 -3.77,3.18 -7.85,8.96 -0.28,-15.79 0.35,-31.56 -2.41,-45.51l-15.71 -14.76c4.38,-7.99 1.02,4.22 5.19,-5.79 -14.42,-9.35 -27.4,12.81 -19.22,41.92 5.02,17.85 17.72,35.46 29.48,40.41 -3.54,4.28 1.64,0.84 -3.94,2.82z"/>
   <path class="fil12" d="M1576.57 1659.11c1.97,20.07 -8.39,43.27 4.47,64.47 14.47,23.85 50.1,21.86 36.94,1.57 -9.56,1.06 -3.95,1.13 -4.52,3.15 -1.71,6.02 4.49,-4.72 0.66,4.37 -30.1,1.88 -34.62,-36.23 -31.66,-64.44 2.27,-21.55 18.47,-70.45 17.9,-81.6l-2.56 4.5c-5.17,12 -17.99,63.92 -21.23,67.98z"/>
   <path class="fil13" d="M1531.89 1343.95l8.88 -1.01 0.02 2.12c11.94,0 1.06,-0.71 4.62,3.78 38.7,4.93 61.1,2.96 91.27,-16.7 -7.63,-1.85 -12.88,2.68 -19.78,6.07 -7.01,3.45 -11.15,5.1 -20.14,7.15 -31.02,15.75 -92,-6.73 -114.38,-49.98 -27.91,-53.96 9.8,-100 41.23,-89.61 8.6,2.83 6.87,4.65 11.39,10.96 4.25,-9.68 -4.62,-14.33 -7.65,-16.89 -0.32,-0.27 -0.9,-0.78 -1.16,-1.01 -0.27,-0.22 -0.81,-0.65 -1.16,-1.03 -19.71,1.84 -29.37,1.7 -40.22,14.07 -19.82,22.58 -19.45,57.14 -5.86,83.08 7.84,14.96 15.89,20.92 22.97,31.14 -9.11,-3.49 -27.73,-24.44 -31.85,-32.63l-0.84 16.43c-15.51,-9.37 -12.38,-5.48 -18.11,-11.96 -3.51,-3.97 -0.59,-1.2 -4.62,-3.06 -0.75,-7.61 1.27,-18.09 0.9,-21.12 -0.55,-4.56 -2.04,-2.98 -2.89,-8.01 -1.99,-11.67 1.42,0.32 0.96,-10.73 -8.08,-5.34 -19.75,-7.74 -30.64,-3.08 -18.67,7.99 -11.25,6.74 -16.15,23.57 -1.67,-20.45 15.44,-33.01 3.77,-46.86 -5.36,-6.35 -35.22,-11.21 -14.39,-27.5 -25.43,2.86 -31.26,71.09 27.73,99.11 18.71,8.88 40.61,12.74 61.72,19.34 20.95,6.55 37.11,17.77 54.38,24.36z"/>
   <path class="fil13" d="M3514.02 1057.84c5.18,-4.07 10.53,-4.67 17.26,-5.52 57.23,-7.18 102.08,29.39 83.43,54.81 -8.34,0.53 -4.37,1.98 -8.54,-4.48 -3.04,19.8 35.93,9.74 17.31,-24.47 -24.86,-45.67 -117.58,-31.06 -154.83,-3.33 25.85,-9.88 4.25,-10 35.81,2.51 10.77,4.28 10.24,7.78 21.23,8.99l-1.1 -12.94c22.57,22.96 18.66,33.88 44.48,35.03 6.69,0.3 6.57,-2.19 7.88,2.94 1.79,6.99 -6.63,-4.97 -0.35,5.79 23.7,-2.82 6.41,-58.3 -62.58,-59.33z"/>
   <path class="fil13" d="M1481.84 1056c-10.57,9.97 -22.21,9.37 -28.13,30.36 -8.27,29.34 23.18,33.21 20.83,16.28 -4.22,6.46 -0.17,4.98 -8.57,4.52 -27.03,-36.54 60.9,-68.16 96.4,-51.98 3.18,1.45 2.43,1.18 4.31,2.65 -69.28,1.17 -86.26,56.6 -62.55,59.34 6.22,-10.84 -2.19,1.26 -0.38,-5.8 1.22,-4.76 7.95,-3.01 27.87,-6.49l24.56 -31.53 -1.15 12.93c9.33,-1.07 11.23,-4.37 17.07,-7.34l10.7 -4.51c19.08,-10.8 12.12,-6.37 29.19,0.36 -16.66,-11.5 -35.63,-17.71 -57.55,-22.74 -31.81,-7.3 -43.01,-2.64 -72.6,3.95z"/>
   <path class="fil13" d="M3729.48 1550c10.06,-31.33 -3.79,-54.1 -18.27,-44.77 0.33,7.12 1.85,2.23 2.79,3.25 0.81,0.89 0.58,-0.8 2.37,2.54 -4.51,7.22 0.41,0.75 -6.22,6.23 -18.32,15.13 -8.99,25.02 -12.41,55.28 -2.73,-7.22 -0.37,-6.58 -7.3,-10.2 -4.48,2.56 -4.59,2.87 -6.57,7.78 -19.3,47.99 -9.69,27.37 -43.28,37.1 23.41,0.14 45.74,-7.53 63.36,-15.5l-0.84 -2.47c0.02,-0.13 0.06,-0.67 0.11,-0.81 1.46,-4.44 -0.76,-0.42 3.85,-4.48 10.53,-9.25 17.87,-19.84 22.41,-33.95z"/>
   <path class="fil14" d="M3314.23 1015.26c6.34,-6.59 10.23,-6.17 16.11,-11.06 3.98,-3.32 4.02,-5.32 6.11,-11.14 6.66,-18.5 -7.92,-30.48 3.75,-36.5l6.31 -1.34c-4.28,-11.84 -19.46,-8.44 -28.38,-3.78 -4.74,2.48 -7.32,5.06 -10.85,8.56 -11.95,11.86 -5.13,4.91 -11.37,6.6 -4.14,1.11 2.49,-1.51 -2.11,0.88 -0.15,0.08 -4.63,3.28 -5.76,4.01 -15.9,10.23 -26.71,11.69 -18.55,32.26 -15.03,1.28 -20.13,2.34 -24.77,15.15l20.06 14.83c12.14,7.44 5.3,1.35 9.13,7.46 1.78,2.83 2.44,2.94 3.41,4.83l0.88 4.48c-2,4.73 -3.68,2.5 -9.76,5.73 -5.43,2.89 -5.02,3.93 -6.71,8.99l4.09 2.1c6.13,2.89 11.9,4.85 16.96,10.05 42.88,44.13 31.87,47.72 41.77,56.69 -1.56,-17.49 -5.22,-16.01 -0.63,-34 2.02,-7.92 -1.28,-7.97 1.74,-13.67 5.44,-10.25 4.88,3.75 7.31,-9.76 -6.17,-8.1 -15.12,-5.11 -20.08,1.72 0.86,-11.62 3.88,-10.39 6.76,-17.25 4.63,-11.06 -7.04,0.12 3.33,-14.13 3.45,-4.73 1.98,-2.33 2.35,-5.91 0.78,-7.55 6.24,-10.77 12.5,-15.65 2.71,-2.11 0.7,0.21 3.07,-2.7 -8.72,-8.29 -10.69,-7.79 -26.67,-7.45z"/>
   <path class="fil14" d="M1828.31 1024.51c2.86,-2.05 2.08,-1.71 4.64,-3.63l2.26 -1.53c0.07,-0.34 0.52,-0.28 0.76,-0.45 -4.68,-12.57 -9.72,-14.25 -24.86,-14.98 6.04,-15.88 2.47,-19.69 -9.91,-27.37 -5.11,-3.17 -12.68,-9.56 -18.29,-9.98 -10.78,-0.81 -10.34,-15.31 -30.43,-18.7 -6.11,-1.03 -13.27,-1.02 -16.88,3.82 -5.74,7.68 1.68,2.95 7.51,5.64 5.62,16.68 -5.47,18.05 1.64,37.2 5.35,14.41 13.03,12.14 23.34,21.7 -14.59,-3.86 -20.82,-0.65 -28.3,6.46 0.29,0.36 0.8,0.76 1.01,0.94 25.24,21.58 8.42,11.65 16.9,23.39 10.33,14.3 -1.33,2.94 3.33,14.11 2.87,6.86 5.87,5.62 6.79,17.26 -4.98,-6.7 -13.87,-9.97 -20.1,-1.8 2.57,14.53 3.1,-2.01 7.86,11.03 2.56,7.04 -1.36,2.47 1.17,12.48 4.51,17.81 0.92,16.63 -0.63,33.96 3.27,-2.96 0.68,0.11 3.5,-3.99 3.57,-5.19 3.48,-11 8.53,-18.87 7.89,-12.31 15,-17.52 23.72,-26.48 8.78,-9.02 4.02,-8.79 21.64,-16.81l5.44 -2.69c-1.67,-5.05 -1.26,-6.08 -6.68,-8.98 -11.5,-6.13 -13.59,-2.2 -5.5,-15.05 0.13,-0.2 0.35,-0.72 0.47,-0.91 2.75,-4.32 15.69,-11.91 21.07,-15.77z"/>
   <path class="fil14" d="M1698.63 1121.15c3.94,0.38 6.15,-4.39 9.39,12.4 1.79,9.29 2.82,6.82 8.43,12.66 4.63,4.81 5.49,8.35 8.35,14.86 4.24,9.61 6,7.29 4.89,17.32 -1.13,10.34 -6.34,27.82 -9.3,37.36 -3.14,10.13 -10.84,23.93 -10.98,33.22 26.46,-50.63 44.9,-162.41 6.43,-223.75 -5.7,-9.11 -17.82,-24.09 -24.41,-29.56 -53.17,-44.16 -70.21,19.26 -45.64,8.45 -0.5,-7.08 -0.83,2.54 -4.98,-4.51 12.73,-22.66 38.13,-3.36 49.02,5.33 42.53,33.89 50.43,96.95 43.34,148.48l-3.57 14.91c1.43,-31 2.46,-56.91 -8.44,-84.67 -8.81,-22.43 -34.21,-48.66 -48.75,-37.73 0.41,0.19 1.05,0.25 1.31,0.33 0.11,0.03 4.47,-0.62 8.68,4.66 9.61,12.05 -9.31,17.04 9.66,46.4 5.39,8.36 17.25,11.39 23.64,18.11l-14.79 0.06 -2.28 5.67z"/>
   <path class="fil14" d="M3372.06 1248.62c-1.7,-9.15 -8.81,-23.48 -12.15,-34.34 -4.9,-15.94 -12.04,-35.34 -7.18,-46.55 15.41,-35.5 16.66,-17.62 20.17,-35.36 2.96,-14.97 6.42,-11.54 9.12,-11.24l-2.2 -6.63 -14.77 1.67c6.77,-8.44 18.64,-10.13 24.25,-20.08 1.93,-3.42 0.78,-2.28 2.32,-5.22l1.45 -2.5c0.23,-0.38 0.59,-0.8 0.83,-1.18 10.66,-17 -8.33,-32.56 10.41,-40.15l3.96 -1.12c-10.55,-8 -25.95,5.56 -31.26,10.75 -28.12,27.42 -27.69,73.25 -25.9,111.76 -0.28,-0.51 -0.51,-1.19 -0.66,-1.62l-3.28 -15.01c-16.62,-136.72 79.04,-185.02 92.71,-152.2 -0.37,0.28 -1.03,0.49 -1.26,0.57 -0.22,0.08 -0.95,0.41 -1.2,0.49l-2.13 0.48c-0.34,0.05 -1.72,-0.37 -2.36,-0.31 3.4,5.41 3.05,5.18 10.18,4.08 8.18,-15.56 -7.94,-26.44 -24.6,-24.66 -13.26,1.41 -28.26,13.82 -34.23,19.99 -43.74,45.21 -46.63,105.52 -37.11,167.33 2.17,14.1 13.82,68.7 24.89,81.05z"/>
   <path class="fil14" d="M3506.54 1514.25c4.98,5.45 4.13,8.51 11.52,14.8 14.08,11.99 29.93,21.54 50.81,22.06 54.26,1.36 48.13,-43.21 22.31,-36.83l0.39 8.67c0.26,0 0.55,-0.41 0.64,-0.47 0.09,-0.06 0.55,-0.42 0.67,-0.5 4.89,-3.16 1.31,-3.15 6.31,-2.69 8.19,20.9 -27.74,24.53 -45.29,22 -23.6,-3.39 -30.94,-13.68 -43.49,-24.16l-3.87 -2.88z"/>
   <path class="fil15" d="M3372.06 1248.62l7.95 17.3c-2.55,1.95 1.79,5.35 -4.14,-0.05 11.22,22.71 41.78,48.74 62.65,62.78 31.55,21.24 53.92,26.18 96.78,20.21 3.86,-5.02 5.14,-4.79 10.42,-5.73l1.03 3.38c0,0.24 0.16,1.08 0.14,1.35 -0.03,0.37 -0.93,1.92 -1.18,2.51 8.02,-8.76 45.14,-6.37 57.72,-3.18 86.68,21.95 62.1,119.78 21.74,98.64 8.52,25.28 56.92,-3.1 37.81,-53.99 -14.78,-39.37 -51.67,-43.23 -69.62,-50.59 10.55,0.78 25.37,4.23 34.69,7.59 -2.15,-4.93 -6.21,-10.25 -9.14,-13.53 24.99,-0.27 3.72,-3.86 16.74,-2.51 20.31,2.11 12.37,5.01 21.62,18.22 2.93,4.2 -0.65,0.29 2.34,2.14 4.18,2.58 1.24,-3.55 6.61,4.58 3.36,5.09 0,2.41 3.64,7.63 22.61,0.87 41.79,-25.64 25.2,-44.33 17.67,15.86 2.19,18.53 15.79,32.55 15.85,16.34 13.59,2.08 35.73,7.06l3.38 7.7c0.18,0.38 0.53,1.07 0.68,1.38 0.16,0.32 0.64,1.69 0.75,1.4 0.12,-0.3 0.46,0.97 0.78,1.4 7.28,-38.12 -35.02,-69.02 -82.23,-61.44 -35.3,5.67 -51.32,24.07 -117.01,32.65 1.82,-2.06 0.86,-1.28 3.67,-3.01l23.36 -11.62c9.94,-4.66 16.96,-7.63 27.69,-10.84 20.25,-6.07 42.6,-10.3 59.86,-19.28 17.56,-9.13 30.55,-21.94 38.6,-40.56 8.1,-18.73 7,-54.85 -13.51,-57.31 20.64,16.59 -8.68,20.73 -14.37,27.48 -11.39,13.48 5.46,28.85 3.72,46.77 -4.06,-15.38 1.59,-15.4 -14.63,-22.82 -11.02,-5.04 -23.43,-3.26 -32.13,2.38 -0.41,11.12 2.93,-0.7 0.97,10.82 -0.48,2.82 -1.44,3.88 -1.56,4.23 -3.52,9.99 0.95,10.95 -0.46,24.89 -3.9,1.82 -1.08,-0.9 -4.58,3.01 -7.85,8.78 -0.32,0.62 -18.07,11.93l-0.82 -16.39c-4.36,8.26 -22.71,28.97 -31.89,32.69 8.39,-12.18 17.76,-18.33 26.06,-37.76 6.76,-15.82 9.21,-35.01 3.92,-52.52 -16.25,-53.79 -73.19,-40.82 -63.04,-19.05 4.53,-6.34 2.81,-8.17 11.4,-10.99 5.87,-1.92 11.89,-1.6 17.67,0.12 34.6,10.23 40.09,56.08 24.11,88.13 -15.26,30.62 -63.38,70.18 -114.93,51.58 -3.02,-2.39 1.65,-2.28 -4.31,-5.7l-14.75 -8.66c-6.92,-1.54 0.76,-0.69 -1.69,0.55 -13.11,6.6 11.66,-2.34 -2.55,1.78 -4.91,-4.68 -10.07,-7.35 -15.08,-11.95 -5.13,-4.7 -7.32,-9 -11.88,-13.19 5.1,8.79 8.04,9.57 12.46,14.67 3.47,4 1.16,0.48 3.76,5.33 -11.15,-3.96 -16.86,-15.79 -21.13,-15.96 -14.67,-0.56 -10.98,-12.55 -16.61,-11.93 -0.08,0.01 -0.65,0.12 -0.76,0.13 -0.27,0.01 -1.21,0.14 -1.53,0.08 -2.51,-0.41 1.09,1.46 -2.47,-0.96l-16.34 -20.15c-5.87,-8.62 -10.64,-24.11 -12.33,-26.35 -3.46,-4.61 1.79,0.81 -2.88,-2.7 -4.81,-3.61 -0.57,4.91 -2.49,-1.35 -0.19,-0.6 -0.92,-0.37 -1.33,-0.64z"/>
   <path class="fil15" d="M1609.22 1179.08l-7.95 -0.34c-0.53,-24.18 37.82,-6.5 54.25,16.81 19.22,27.29 11.98,45.85 8.66,78.2 13.12,-21.29 8.25,-75.07 -14.19,-97.76 -7.96,-8.04 -25.37,-21.52 -41.15,-19.48 -25.76,3.32 -11.91,41.63 0.38,22.57z"/>
   <path class="fil15" d="M3416.52 1273.82c-4.17,-37.97 -10.5,-54.39 12.77,-83.82 5.61,-7.09 19.24,-17.51 30.83,-21.24 16.29,-5.23 25.1,8.19 16.94,10.04 -5.27,1.19 1.68,-5.4 -5.68,0.28 16.79,20.76 26.29,-27.82 -7.81,-22.36 -13.13,2.1 -28.88,14.05 -35.62,22.26 -19.56,23.86 -24.11,73.87 -11.43,94.84z"/>
   <path class="fil15" d="M1628.48 1320.31c14.72,-14.94 30.83,-51.89 23.56,-82.67 -3.88,-16.44 -12.24,-26.81 -21.43,-34.56 -14.34,-12.09 -25.69,-10.15 -45.86,-11.28 -5.36,5.49 -12.85,7.8 -12.93,18.17 -0.08,10.43 9.96,17.58 13.34,5.78 -4.43,-0.77 5.78,0.52 -2.13,0.38 -12.92,-0.23 0.63,-24.62 32.54,-13.45 13.61,4.77 23.89,16.35 29.36,28.58 6.66,14.9 7.44,32.03 2.55,48.72 -2.28,7.79 -5.07,14.15 -8.3,20.67 -3.48,7.01 -8.95,12.83 -10.7,19.66z"/>
   <path class="fil15" d="M3453.27 1320.32c-13.33,-23.48 -33.39,-51.42 -18.1,-87.77 16.63,-39.51 66.33,-41.48 67.33,-17.15l-7.07 2.28c13.13,16.36 26.66,-25.77 -11.42,-26.1 -48.63,-0.42 -72.8,55.17 -45.57,108.25 3.62,7.06 8.9,16.4 14.83,20.49z"/>
   <path class="fil15" d="M3519.97 1469.19c-16.01,-10.62 -23.27,-35.67 -23.97,-40.67 -0.12,-0.91 -0.55,-1.07 -0.87,-1.59 0.84,27.21 13.46,46.88 34.04,54.38 47,17.12 43.36,-42.27 28.4,-22.4l3.65 0.89c4.02,0.95 0.37,-0.71 3.38,0.99 -2.81,20.19 -30.09,18.04 -44.63,8.4z"/>
   <path class="fil15" d="M1589.62 1249.93c1.7,0.31 2.38,2.07 6.72,-1.37 -2.43,-1.12 -2.93,0.2 -4.64,-3.86 8.72,-10.78 29.74,-6.16 39.22,19.82 9.16,25.11 -3.48,38.53 -11.53,55.37 3.83,-2.8 2.05,-0.97 5.24,-4.93l11.26 -21.47c3.82,-12.37 3.69,-25.46 -0.84,-36.91 -12.01,-30.4 -52.81,-30.06 -45.43,-6.65z"/>
   <path class="fil16" d="M3437.18 1070.79c-0.22,-2.07 1.33,-3.42 2.71,-4.93 3.03,-3.34 6.75,-6.71 10.01,-9.58 96.48,-84.86 183.48,-60.46 172.1,-22.88 -11.02,-1.15 -1.29,-3.56 -7.51,-5.61 -1.02,17.46 26.11,11.57 15.75,-14.2 -4.77,-11.87 -16.06,-18.13 -31.06,-21.07 -31.98,-6.26 -62.9,5.26 -87.35,17.52 -38.77,19.43 -91.04,64.8 -106.88,103.6l7.28 -8.13c5.7,-7.98 20.3,-23.94 28.66,-27.7l-3.71 -7.02z"/>
   <path class="fil17" d="M3462.77 779.88c3.65,8.17 8.18,13.56 11.7,21.18 -11.87,-9.91 -16.37,-20.87 -40.93,-30.88 -56.96,-23.22 -115.6,15.57 -138,58.44 -5.52,-2.59 -24.73,-6.03 -33.38,-5 0.74,8.48 1.59,7.39 7.41,11.5 -31.03,-0.15 -17.14,3.16 -43.13,18.99 17.14,0.41 33.66,-6.83 48.21,-10.21 -17.53,7.11 -62.23,13.45 -65.71,31.33 5.58,-21.58 24.64,23.94 46.53,-4.5 -0.17,18.38 10.7,31.06 29.74,31.53l3.44 -7.63c5.55,-17.41 -3.26,-39.24 -3.07,-45.84 3.18,5.37 1.14,4.58 7.91,6.1 0.06,-8.65 15.74,-37.58 20.43,-43.99 -5.09,18.64 -20.56,54.86 -5.71,84.31 -2.34,-25.89 -7.64,-36.18 0.31,-63.19 17.73,-60.25 83.02,-82.27 133.94,-53.37 27.65,15.68 45.72,49.13 49.56,93.5 3.97,45.93 -13.63,79.87 -30.77,109.72 23.26,-52.16 36.45,-97.67 0.58,-151.16 -11.63,-17.35 -33.03,-34.58 -64.68,-33.5 -27.23,0.93 -56.21,15.55 -50.69,42.82l3.59 -5.57c1.18,-1.99 -0.35,-0.98 2.7,-4.7 18.63,0.7 8.45,13.32 31.59,10.73 7.05,-0.79 11.62,-1.89 18.46,-3.01 15.07,-2.46 3.56,0.2 14.75,0.7 16.37,0.73 18.37,1.54 27.03,12 5.04,6.08 14.77,8.55 19.37,21.51 -13.24,-22.62 -63.04,-9.83 -64.36,19.33 11.13,-8.02 6.9,6.8 36.68,6.9l-6.4 5.32 12 5.42c0.3,0.27 0.66,0.72 0.95,1 0.29,0.27 0.65,0.72 0.93,1 25.86,25.53 2.22,1.55 12.08,22.31 3.71,7.82 3.59,7.52 3.9,17.31 -2.6,-2.21 -22.36,-33.27 -36.38,-10.5 2.85,5.12 -1.01,-0.18 2.56,2.36 0.88,0.62 0.99,0.33 2.88,1.57 3.75,2.46 2.58,0.96 5.3,5.48l16.06 43.45c0.41,0.13 1.05,0.31 1.23,0.36l-69.36 128.13c-1.92,18.43 -8.23,30.32 -8.45,54.09 -0.12,12.79 -0.29,43.06 6.42,54.69 -1.04,-17.49 -4.86,-30.26 -4.58,-50.84 0.63,-47.31 16.99,-79.45 40.46,-118.28 8.21,-13.6 43.72,-69.57 55.37,-77.74 8.57,-6 22.76,-15.57 32.97,-19.19 12.92,-4.57 9.59,-0.37 16.42,-8.78 15.41,3.96 22.23,-4.18 30.91,-3.45l3.09 0.8c2.92,0.38 2.62,2.57 5.47,-0.24 5.21,-10.8 -2.63,-21.47 -9.19,-25.34 -10.23,-6.02 -18.86,-1.65 -28.41,1.18 4.14,-6.56 14.34,-12.02 26.59,-10.6 20.32,2.34 8.91,5.86 25.77,-2.53 0.41,-0.21 0.94,-0.4 1.35,-0.6 11.27,-5.54 9.32,-9.02 13,-23.75 2.37,-9.47 10.16,-20.73 18.05,-7.31 1.79,-5.83 0.9,-6.02 -1.45,-11.12 -30.02,-9.92 -51.8,8.91 -67.54,21.34 10.29,-14.64 26.6,-22.05 40.22,-28.66 -12.6,-1.65 -32.8,-3.27 -41.48,6.38 -1.85,2.05 -1.54,2.24 -3.28,4.51l-4.01 4.6c-2.62,-6.29 -11.91,-14.21 -20.01,-7.64 -4.36,4.34 1.17,-2.47 2.36,13.08 0.55,7.2 0.02,11.17 -1.52,17.12 -2.28,8.79 -6.88,18.63 -10.74,27.67 -7.65,17.86 -12.24,39.64 -29.54,50.04 6.03,-15.84 15.11,-28.49 21.44,-48.47 9.07,-28.64 10.11,-60.71 1.49,-90.29 -6.28,-21.57 -8.61,-14.32 -4.09,-24 6.46,-13.82 2.14,-12.12 2.79,-20.97 0.19,-2.57 -0.17,-1 0.48,-3.16 0.13,-0.45 0.37,-0.95 0.55,-1.38l4.13 -7.04c0.1,-4.05 -7.42,-12.2 -14.58,-2.11 0.55,-1.73 2.35,-6.2 2.37,-6.4 1.1,-9.98 -0.31,-1.54 -1.19,-6.19 -0.05,-0.28 -0.26,-0.83 -0.29,-1.11 -0.47,-4.86 2.61,-4.87 2.74,-12.96 0.1,-6.42 -3.18,-11.67 -3.11,-16.18 0.21,-12.91 8.24,0.29 2.67,-8.01 -8.62,-17.92 -36.29,6.05 -22.9,47.59z"/>
   <path class="fil17" d="M1619.2 995.43c2.31,1.8 1.36,0.88 3.46,3.13 0.88,0.95 1.93,2.34 2.7,3.39 0.65,0.9 2.65,4.07 3.81,5.78 20.37,29.98 36.92,52.09 54.32,86.61 30.71,60.94 20.3,83.14 17.28,135.5 16.35,-30.02 -0.4,-91.24 -2.14,-108.69 -4.98,-7.15 -10.83,-24.06 -15.87,-33.86l-37.23 -63.15c-6.93,-10.17 -12.57,-20.93 -19.07,-30.33l4.08 -1.26c3.65,-11.67 8.26,-21.21 12.05,-31.72 2.9,-8.04 0.62,-11.59 10.3,-17.62 2.83,-1.76 1.96,1.05 4.42,-3.43 -13.9,-22.82 -34.37,8.75 -36.32,10.41 0.24,-9.65 0.17,-9.55 3.84,-17.28 8.9,-18.73 -11.49,-2.24 8.16,-18.62 2.34,-1.95 0.5,-0.23 3.02,-2.67 6.14,-5.97 5.27,-6.53 14.81,-8.38 -3.79,-4.71 -0.52,-2.45 -7.07,-5.17 10.36,-0.65 12.29,0.86 21.16,-4.02 6.61,-3.64 9.61,-7.8 16.22,-3 -1.78,-29.72 -51.85,-41.69 -64.32,-19.45 4.48,-13.54 13.96,-14.25 19.94,-22.34 4.26,-5.76 -2.13,-0.8 3.87,-4.7 0.96,-0.62 4.74,-2.32 6.37,-3.22 10.08,-5.52 3.03,-2.56 16.18,-3.16 10.53,-0.47 0.69,-0.9 7.39,-1.47 2.82,-0.25 5.65,0.5 9.09,1.07 50.52,8.5 23.58,-7.27 48.32,-8.01 2.85,3.57 1.51,2.73 2.67,4.7l3.59 5.56c8.51,-42.98 -77.51,-66.64 -116.14,-8.18 -36.31,54.94 -20.23,100.58 1.37,150.12 -14.31,-25.26 -29.35,-52.3 -31.18,-90.41 -3.42,-71.51 41.17,-139.31 116.2,-123.25 17.12,3.66 30.89,10.5 41.08,20.66 5.51,5.49 9.77,9.74 14.32,16.64 4.11,6.23 6.77,13.79 11.42,18.43l-4.52 -13.08c5.3,7.16 20.34,35.89 20.43,43.95 6.7,-1.6 4.7,-0.87 7.93,-6.18 0.3,14.4 -5.54,11.88 -4.52,27.95 0.01,0.01 1.83,29.29 4.07,24.05 0.13,-0.3 0.49,1.05 0.82,1.54 19.01,-0.55 29.84,-13.16 29.73,-31.58 21.24,28.5 40.87,-16.87 46.54,4.56 -1.98,-10.01 -17.58,-17.02 -28.46,-20.1 -15.02,-4.26 -23.68,-5.75 -37.27,-11.26 14.49,3.44 31.19,10.85 48.19,10.16 -20.71,-11.51 -13.11,-19.67 -43.11,-18.92 5.77,-4.13 6.66,-3.05 7.4,-11.49 -8.67,-1.08 -27.83,2.39 -33.4,4.99 -13.87,-25.91 -48.22,-56 -77.93,-62.81 -21.01,-4.82 -43.25,-2.81 -61.39,4.91 -24.11,10.27 -27.44,20.26 -39.59,30.3 6.59,-14.22 15.42,-21.29 16.39,-40.69 0.96,-19.06 -7.79,-34.43 -25.85,-33.12 -5.76,14.36 -2.5,3.23 -0.01,9.46 4.63,11.55 -6.24,4.03 0.15,29.35 1.37,5.42 1.05,-3.32 0.41,3.42 -0.45,4.69 -4.54,-3.28 0.92,13.73 -2.85,-4 -5.37,-7.19 -12.02,-2.69 -4.6,3.11 -2.23,6.11 -0.97,8.35l1.74 2.26c4.66,8.58 -2.24,12.39 4.58,26.74 4.72,9.93 1.88,3.51 -4.09,23.91 -8.66,29.58 -7.51,61.82 1.5,90.36 6.34,20.09 15.24,32.51 21.38,48.43 -16.8,-10.18 -21.5,-31.28 -28.88,-48.62 -3.68,-8.67 -8.02,-17.73 -10.89,-27.6 -2.12,-7.29 -3.05,-16.52 -1.09,-24.03 2.62,-10.01 0.67,0.92 3.58,-7.63 -14.06,-6.76 -18.46,3.44 -24.64,7.67 -5.8,-18.12 -23.45,-18.53 -46.22,-15.54 9.5,4.69 14.14,5.41 22.44,12.04 5.9,4.72 14.34,11.79 17.78,16.66 -43.65,-34.44 -74.84,-28.34 -68.95,-10.26 7.52,-13.2 15.66,-2.6 18.03,7.31 4.46,18.68 1.53,17.76 15.62,25.03 14.8,7.64 6.55,3.92 24.5,1.86 12.35,-1.42 22.23,4.07 26.52,10.57 -10.34,-3.02 -21.41,-6.87 -30.67,0.41 -5.84,4.59 -12.38,15.46 -5.99,24.71 14.92,1.28 -3.27,-5.32 17.16,0.09 8.93,2.36 11.28,4.26 21.44,1.87l2.54 3.32c1.98,1.73 -0.02,0.7 3.5,2.4 14.03,6.77 9.85,-0.65 42.15,21.53 6.69,4.58 9.34,4.64 10.92,13.1z"/>
   <path class="fil17" d="M3557.33 1624.82c7.79,2.12 24.21,11.99 33.8,16.37 16.15,7.39 92.4,35.63 106.45,38.67 -5.67,0.16 -4.98,-2.05 -9.03,1.48 3.63,4.87 15.31,41.98 15.55,44.18 1.92,17.41 -3.82,4.32 -2.86,14.05 13.63,6.76 25.59,-4.74 20.47,-31.82 4.25,3.48 7.17,7.07 8.94,14.15 3.7,14.75 0.74,7.13 7.28,12.89 0.17,7.68 -1.16,8.37 -2.47,15.74 -1.55,8.69 -1.12,8.86 -6.46,14.4l9.34 0.09c-8.04,3.93 -9.83,5.21 -13.55,13.87 -4.04,9.41 -4.27,10.55 -11.26,15.94 15.08,9.5 23.01,9.67 40.99,2.25 12.27,-5.07 20.92,-13.54 21.48,-30.15 1.68,9.25 -1.09,31.82 -2.25,36.41 -3.6,14.36 -8.91,15.43 -13.3,19.08 -16.72,13.89 12.52,-4.5 -16.07,12.73 -0.38,0.23 -0.84,0.54 -1.21,0.76 -36.02,21.62 -11.79,15.84 -27.64,34.16 -10.68,-0.65 -3.1,-1.99 -10.8,-5.22 0.98,36.54 106.61,17.07 93.48,-73.86 -8.06,-55.79 -50.46,-90.57 -93.92,-107.7 13.54,2.8 35.62,15.06 46.75,21.87 41.27,25.24 80.72,81.99 68.86,136.14 -11.87,54.2 -72.12,88.74 -126.23,64.02 -22.96,-10.48 -27.75,-22.46 -38.25,-29.9 8.66,15.55 25.21,25.3 42.37,34.58 -16.44,-2.5 -32.53,-14.05 -45.94,-20.85 -3.73,6.7 -1.43,5.26 -1.33,8.98 -3.88,-4.64 -4.2,-5.13 -6.51,-12.64 -0.6,-1.95 -1.57,-5.65 -2.42,-7.15 -4.9,-8.66 -0.01,1.4 -8.23,-9.21l-10.99 -10.33c-3.38,-2.06 -1.01,-1.4 -5.25,-2.49 -14.13,11.74 -13.53,25.41 -5.39,43.16 -9.24,-1.11 -17.14,1.51 -21.56,7.23 -6.05,7.86 2.17,2.45 -9.02,22.25 20.88,-0.77 20.81,-4.38 36.34,-8.88 -3.76,3.2 -11.93,8.03 -17.04,10.75 23.24,-0.26 31.98,1.14 45.42,-11.93 -1.35,8.5 -2.86,7.17 2.12,12.7 6.91,-3.23 7.52,-6.93 12.69,-12.31 1.01,-1.06 4.81,-4.67 5.7,-5.72l2.84 -5.13c22.44,2.58 32.33,8.8 57.92,7.84 52.33,-1.98 98.84,-34.7 99.34,-96.47 0.43,-53.35 -34.13,-96.66 -74.09,-121.76 -13.42,-8.43 -27.96,-13.4 -42.38,-20.61 26.73,0.45 40.55,12.75 59.59,22.68 14.34,7.48 33.01,17.73 38.64,33.28l1.84 5.68c10.91,-2.99 11.97,-9.14 12.58,-20.62 19.96,7.37 34.41,-3.7 47.05,-18 -34.5,9.98 -39.28,2 -68.63,0.75 20.62,0.6 36.43,5.37 57.93,-2.36 12.25,-4.4 34.57,-16.86 21.71,-30.82l-0.83 9.18c-25.38,6.89 -13.86,-18.17 -48.17,-12.79 -19.62,3.09 -11.43,21.77 -42.22,23.31 2.53,-2.71 0.8,-1.1 4.18,-3.46l2.75 -1.67c2.38,-1.43 2.84,-1 6.11,-3.56 3.54,-2.75 5.63,-5.68 6.84,-10.47 3.09,-12.12 -0.55,-22.51 -10.87,-24.53 -2.79,0.52 -1.15,2.22 -5.34,6.05l-12.46 6.94c-18.24,5.96 -4.68,9.17 -16.14,8.45 -2.12,-0.13 -0.44,-0.5 -3.04,0.07 -2.49,0.55 -5.09,2.21 -7.75,3.34 -18.13,7.68 -46.6,8.82 -63.97,2.95 -25.24,-8.52 -50.28,-15.05 -74.71,-23.7 -24.33,-8.62 -47.55,-19.68 -65.54,-32.86 -18.83,-13.79 -29.66,-26.56 -42.88,-44.03l-5.12 -5.83c2.39,8.93 18.79,26.72 24.55,32.77 4.93,5.17 9.05,8.52 15.17,13.76 4.76,4.08 12.07,8.4 16.05,12.88z"/>
   <path class="fil17" d="M1409.58 1665.43c-39.47,23.34 -89.22,-0.24 -93.45,0.03 -11.12,0.7 0.28,-1.65 -11.62,-7.09l-9.91 -3.56c-15.26,-7.65 -5.57,-9.42 -12.39,-10.79 -9.96,-2 -19.76,24.29 -2.97,35.85 3.1,2.13 3.9,1.98 6.37,3.53 5.63,3.53 2.1,0.64 5.57,4.3 -31.67,-1.52 -21.14,-19.9 -43.51,-23.48 -31.89,-5.11 -21.95,19.72 -47.41,12.99l-0.7 -9.01 -4.18 3.24 0 9.01c27.9,30.07 50.47,21.73 84.25,20.74 -19.92,-0.24 -28.41,10.88 -68.64,-0.74 12.4,14.64 27.22,25.06 47.03,18.04 0.61,11.45 1.66,17.68 12.62,20.59l4.65 -10.97c9.68,-14.28 17.91,-18.7 35.81,-28.01 19.1,-9.93 32.78,-22.22 59.61,-22.67 -27.28,13.46 -56.41,23.37 -78.57,49.99 -47.82,57.41 -57.06,133.39 9.56,175.16 39.48,24.75 78.58,9.73 109.8,5.86l1.03 2.52c0.1,0.16 0.37,0.69 0.48,0.86 0.23,0.34 1,1.39 1.31,1.76 5.73,6.87 13.95,16.97 20.11,17.83l1.18 -11.97c16.95,15.93 17.91,8.94 41.92,11.11l-21.69 -14.2c18.02,5.58 18.24,11.61 43.73,12.62l-5.4 -10.24c-1.79,-6.1 0.61,-6.04 -3.63,-11.97 -4.09,-5.73 -12.54,-8.38 -21.57,-7.3 8,-17.92 8.76,-31.29 -5.37,-43.15l-16.98 14c-6.53,7.9 -5.07,-0.83 -9.95,15.15 -2.33,7.62 -2.59,7.96 -6.55,12.62 0.31,-4.34 2.14,-2.58 -1.25,-8.93 -13.32,6.58 -30.08,18.3 -46.03,20.9 20.8,-11.35 28.67,-16.74 42.41,-33.5 -3.96,1.42 0.22,-0.78 -3.35,1.96l-5.64 5.85c-53.58,56.52 -141.98,24.74 -155.83,-44.57 -14.07,-70.42 57.8,-144.56 115.99,-156.5 -43.66,17.13 -85.76,51.91 -93.93,107.7 -13.3,90.76 92.47,110.39 93.45,73.92 -7.35,2.95 -0.22,4.46 -10.75,5.19 -14.99,-17.02 6.91,-13.74 -26.45,-33.4l-14.14 -8c-0.15,-0.16 -0.41,-0.65 -0.53,-0.82 -0.1,-0.13 0.81,-1.6 -3.84,-5.42 -2.45,-2.02 -4.2,-2.38 -5.83,-3.96 -8.33,-8.09 -10.95,-35.46 -10.78,-48.18 5.38,10.07 1.2,17.88 25.38,27.85 17.16,7.07 25.01,5.16 38.09,-3.45 -16.35,-12.09 -5.65,-20.43 -24.78,-29.89l9.39 -0.78c-6.58,-5.64 -9.16,-20.38 -8.95,-29.31 13.23,-11.41 1.9,-15.89 16.25,-27.02 -4.91,25.88 6.28,38.98 20.44,31.82 0.85,-8.59 -5.87,1.44 -2.53,-15.83 0.96,-4.98 3.16,-8.02 5.08,-14.5 2.92,-9.91 4.53,-20.7 10.18,-27.94 -3.89,-3.3 -3.86,-1.24 -9.09,-1.41l73.61 -25.23c12.09,-4.67 22.63,-8.76 34.19,-14.08 9.26,-4.26 25.16,-13.88 32.49,-15.7l2.88 -2.91c9.75,-8.69 12.47,-7.12 28.32,-23.82 7.07,-7.45 20.72,-22.27 25.34,-33.56 -1.96,1.72 -1.27,1.05 -3.27,3.33l-28.65 33.33c-33.17,30.01 -92.73,55.99 -138.41,64.21z"/>
   <path class="fil17" d="M1458.41 1795.25c25.32,1.04 40.2,9.83 74.42,-27.24 -6.84,12.48 -14.75,18.61 -27.14,24.27l-12.36 7.51c9.68,0.35 19.4,2.96 28.15,2.53 14.42,-0.7 13.11,-5.08 17.38,-14.84 9.3,5.65 13.58,11.75 27.41,3.96l-7.7 -38.71c0.05,-0.38 0.05,-0.97 0.1,-1.37 0.05,-0.41 0.04,-1 0.1,-1.42 2.22,-15.57 5.77,2.02 24.52,-5.29 -4.66,-15.63 -5.42,2.29 -10.8,-39.43 -2.19,-16.95 -2.22,-31.61 3.93,-45.61l1.61 -9.84c-5.99,4.93 -4.27,5.2 -8.52,13.5 -6.33,12.38 -7.92,7.42 -19.63,20.88 -7.03,8.08 -6.88,2 -14.97,3.98 -0.35,15.75 6.75,10.46 15.31,15.48l-14.43 7.24c-12.94,6.75 9.17,0.75 -13.61,9.13 -5.06,1.86 -4.78,10.66 -26.91,5.99 1.1,14.55 7.26,18.57 16.53,24.09 -8.97,0.8 -16.61,-2.31 -22.9,-1.4 -16.34,2.35 -22.94,23.61 -24.39,25.78 -7.78,11.69 -16.03,1.24 -16.09,1.21 -1.58,9.33 -2.15,7.52 6.75,16.16 1.87,1.82 1.69,1.61 3.24,3.44z"/>
   <path class="fil17" d="M3511.33 1663.16c-3.59,-6.83 -3.55,-9.13 -8.64,-13.3 1.64,16.7 9.44,16 5.91,51.93 -4.17,42.42 -6.95,28.87 -11.25,42.91 19.52,7.23 22.43,-11.29 24.67,6.64 1.93,15.5 1.56,2.26 -5.78,29.27 -0.31,1.14 -1.37,4.77 -1.56,5.82l-0.33 3.87c-0.02,-0.23 -0.07,0.8 0.02,1.19 12.58,6.85 18.98,1.02 27.49,-3.98 9.81,22.78 11.9,13.52 45.52,12.27 -2.35,-2.36 -1.04,-1.3 -4.29,-3.49l-19.19 -10.14c-7.17,-4.89 -11.61,-9.85 -16.05,-18.07 44.9,47.72 88.05,29.55 84.42,7.56 -0.01,0 -6.87,11.35 -15.9,-1.38 -3.78,-5.33 -4.28,-11.21 -8.96,-16.15 -2.51,-2.66 -12.06,-8.96 -15.61,-9.46 -6.37,-0.9 -13.82,2.2 -22.87,1.39 9.29,-5.55 15.39,-9.53 16.48,-24.1 -6.71,1.44 -14.21,2.26 -20.28,-0.9 -11.11,-5.77 9.41,0.95 -10.99,-6.17 -9.38,-3.27 -4.17,-2.55 -5.29,-4.15 -4.28,-6.12 -4.34,-3.15 -12.24,-7.33 -3.09,-1.64 -3.19,-2.16 -6.12,-3.78 8.53,-4.93 15.6,0.15 15.27,-15.42 -7.87,-2.09 -7.31,3.53 -14.04,-2.95l-5.12 -6.54c-5.85,-5.35 -8.15,-2 -15.27,-15.54z"/>
   <path class="fil17" d="M1535.24 1348.11l-3.35 -4.16c-5.43,0.92 -52.37,-9.52 -60.58,-12.4 -18.4,-6.45 -36.95,-15.92 -57.32,-19.85 -22.55,-4.35 -45.85,0.1 -61.85,10.67 -8.89,5.88 -33.99,32.47 -21.68,51.18 1.04,-1.58 -0.35,-5.94 3.56,-12.98 21.27,-4.44 21.51,8.7 35.92,-6.9 12.54,-13.57 -1.16,-18.53 15.75,-32.7 -17.39,20.74 4.8,45.33 25.1,44.35 3.75,-5.3 0.12,-3.31 4.39,-8.85 3.51,-4.55 5.41,-2.57 7.97,-3.7 5.86,-16.58 7.41,-17.18 13.9,-18.49 17.21,-3.45 4,0.77 24.77,1 -3.13,3.54 -6.89,8.27 -9.14,13.54 9.17,-3.37 24.23,-6.86 34.66,-7.59 -6.4,2.75 -14.73,3.78 -22.54,6.88 -8.1,3.22 -13.92,6.22 -20.2,10.72 -11.13,7.97 -20.26,16.55 -26.82,33.02 -19.74,49.6 28.84,79.57 37.73,54.02 -39.73,20.5 -64.79,-73.77 18.76,-97.93 28.84,-8.34 38.5,0.37 60.97,0.17z"/>
   <path class="fil17" d="M3248.55 2453.24c5.77,-10.44 -2.85,-23.31 25.43,-14.15 12.27,24.69 -15.23,54.04 -47.53,66.87 -61.13,24.29 -140.09,24.27 -208.41,36.59 -24.12,4.35 -77.67,19.53 -91.51,31.96 46.49,-10.89 40.78,-19.62 122.31,-30.11 47.35,-6.09 93.48,-9.1 141.64,-11.43 110.44,-5.35 121.96,-91.79 88.7,-106.96 -31.62,-14.41 -51.43,22.84 -30.63,27.23z"/>
   <path class="fil17" d="M3182.94 2573.56c7.13,-5.16 1.9,-8.92 11.29,-8.61 6.08,0.21 10.78,4.65 10.41,11.17 -0.52,9.21 -12.5,18.19 -19.35,21.82 -47.25,25.08 -147.66,-21.37 -212.68,-20.19l-9.67 3.17c37.57,3.5 39,2.31 81.45,12.35 29.59,7.01 55.63,14.16 83.91,22.28 93.5,26.85 110.8,-68.03 62.39,-59.19 -15.35,2.8 -8.55,15.43 -8.54,15.45 0.15,0.49 0.46,1.2 0.79,1.75z"/>
   <path class="fil17" d="M2128.71 2578.11c-88.31,-2.22 -179.69,42.72 -229.36,21.73 -24.95,-10.54 -30.16,-32.06 -14.39,-34.71 12.34,-2.07 5.1,4.98 12.82,8.52 11.06,-14.28 -13.06,-23.91 -27.23,-12.93 -22.09,17.12 7.11,75.38 80.35,55.24 28.43,-7.81 54.39,-15.34 83.86,-22.33 14.79,-3.5 29.62,-6.66 44.83,-9.04l49.12 -6.48z"/>
   <path class="fil17" d="M2528.78 2649.5c23.48,0 54.24,0.2 74.66,-8.9l-136.19 -0.33c6.58,4.4 19.22,5.79 27.16,6.84 11.33,1.51 22.98,2.39 34.37,2.39z"/>
   <path class="fil17" d="M3462.77 779.88c-9.54,-19.82 -9.37,-24.2 -1.56,-44.49 -44.96,11.74 -8.11,32.92 0.08,47.74l1.48 -3.25z"/>
   <path class="fil17" d="M3828.89 1839.78c-0.72,31.06 -8.56,48.13 28.02,36.65l-2.64 -1.97c-9.67,-6.62 -14.07,-8.82 -19.44,-23.1 -3.28,-8.74 -1.28,-6.21 -5.94,-11.58z"/>
   <path class="fil17" d="M1583.61 1338.7c19.78,-2.82 26.39,-26.67 19.41,-32.92 -10.37,-9.26 -10.03,10.14 -11.24,15.4 -1.17,5.05 -6.66,11.15 -8.17,17.52z"/>
   <path class="fil17" d="M1559.86 1418.84c15.24,4.99 19.87,-22.64 9.88,-35.75 -1.8,2.03 -2.47,1.23 -3.95,8.49 -4.08,19.9 -2,7.15 -6.66,16.52 -1.4,2.83 -1.37,1.28 -1.45,4.56 -0.24,9.55 1.03,4.44 2.18,6.18z"/>
   <path class="fil17" d="M3510.99 1383.07c-9.15,11.83 -5.87,36.44 6.18,36.85 14.17,0.47 0.99,-16.4 0.99,-16.41 -5.53,-8.16 -0.5,-12.66 -7.17,-20.44z"/>
   <path class="fil17" d="M3477.74 1304.5c-6.25,15.78 3.44,32.04 19.36,34.22 -1.55,-6.14 -7.06,-12.69 -8.2,-17.53 -2.61,-11.09 3.27,-17.37 -11.16,-16.69z"/>
   <path class="fil18" d="M2517.67 2555.07c-9.13,-32.98 39.62,-41.08 45.63,-13.1 6.96,32.38 -37.86,41.17 -45.63,13.1zm128.9 -1.93c-11.72,27.27 -57.93,12.13 -43.13,-19.85 12.4,-26.82 55.75,-9.49 43.13,19.85zm-214.09 -5.79c-3.65,-33.53 42.38,-36.25 46.73,-7.65 5.06,33.3 -43.59,36.59 -46.73,7.65zm252.47 -11.58c-4.83,-32.88 41.41,-37.1 46.48,-9.37 5.97,32.61 -42.25,38.17 -46.48,9.37zm-290.33 3.86c-12.2,29.95 -55.97,12.48 -43.95,-17.94 11.23,-28.4 55.44,-10.25 43.95,17.94zm372.19 -25.08c-4.46,-33.08 42.88,-38.23 46.87,-7.15 4.17,32.44 -43.09,35.24 -46.87,7.15zm-499.77 0c-4.32,-33.2 42.77,-38.13 46.83,-7.13 4.23,32.44 -43,36.53 -46.83,7.13zm624.49 -23.16c-11.97,27.05 -57.26,11.94 -43.13,-19.93 11.78,-26.59 56.28,-9.81 43.13,19.93zm-703.69 -3.86c-6.94,-32.72 40.15,-38.55 46.01,-11.37 7.15,33.16 -40.15,38.98 -46.01,11.37zm735.18 -36.67c-6.51,-32.78 39.68,-39.66 46.02,-11.37 7.56,33.7 -40.53,39.01 -46.02,11.37zm-766.64 3.86c-11.39,27.29 -57.96,12.32 -43.13,-19.89 12.13,-26.33 55.59,-10 43.13,19.89zm839.47 -46.32c-8.1,-32.11 38.53,-42.88 45.63,-12.8 3.48,14.77 -5.57,25.97 -16.14,29 -13.54,3.88 -26.66,-5 -29.49,-16.2zm-956.53 0c-4.14,-15.02 5.37,-26.74 15.96,-29.73 14.14,-4 26.91,5.18 29.67,16.55 7.65,31.58 -37.61,42.29 -45.63,13.18zm1024.56 -50.17c-9.74,-32.01 37.38,-42.12 45.23,-14.8 9.1,31.69 -36.44,43.67 -45.23,14.8zm-1092.22 0c-9.72,-32.08 37.45,-42.07 45.19,-14.77 8.94,31.56 -36.43,43.67 -45.19,14.77zm1153.85 -61.76c-2.9,-32.42 44.26,-34.91 47.08,-5.35 3,31.41 -44.44,34.82 -47.08,5.35zm-1171.17 3.86c-9.31,30.41 -54.48,16.49 -45.33,-13.85 8.95,-29.63 54.55,-16.22 45.33,13.85zm1272.99 -59.83c-11.93,27.45 -55.56,10.66 -43.21,-19.96 10.76,-26.66 56.87,-11.44 43.21,19.96zm-1375.32 -3.86c-8.02,-33.05 40.33,-41.39 45.97,-11.34 6.05,32.22 -39.5,38.07 -45.97,11.34zm-50.09 -67.54c-9.54,-32.8 39.44,-41.49 45.61,-13.18 7.01,32.12 -37.51,41 -45.61,13.18zm1476.12 1.93c-13.99,30.35 -57.25,9.18 -43.33,-19.64 13.11,-27.12 56.15,-8.15 43.33,19.64zm-1.7 -77.2c-6.3,-33 42.03,-39.5 46.61,-8.83 4.63,30.97 -41.02,38.1 -46.61,8.83zm-1518.43 0c-6.27,-32.58 41.87,-40.12 46.55,-9 4.82,32.02 -41.31,36.25 -46.55,9zm-18.78 -105.16c30.53,-8.27 41.32,38.19 12.63,46.1 -31.57,8.71 -41,-38.42 -12.63,-46.1zm1590.34 0.15c30.79,-9.56 40.42,38.76 12.5,46.03 -29.97,7.82 -43.24,-36.49 -12.5,-46.03zm31.31 -80.88c29.93,-5.75 36.25,41 8.95,46.82 -31.69,6.76 -41.85,-40.5 -8.95,-46.82zm-1653.84 2.13c29.14,-14.85 46.46,31.42 19.49,43.31 -26.81,11.82 -49.73,-27.9 -19.49,-43.31zm1668.96 -83.19c30.93,-12.83 44.85,33.66 18.21,43.99 -30.43,11.8 -47.35,-31.89 -18.21,-43.99zm-1688.65 -0.09c31.16,-12.34 44.94,33.76 18.31,43.99 -31.08,11.95 -46.92,-32.66 -18.31,-43.99zm1702.41 -84.71c31.23,-11.63 40.92,36.61 15.25,44.97 -30.67,10 -44.49,-34.08 -15.25,-44.97zm-1713.5 0.03c29.28,-10.97 44.47,35.62 15.23,44.98 -30.52,9.76 -44.45,-34.03 -15.23,-44.98zm52.99 -7.23c-8.63,-123.89 12.41,-248.63 53.16,-352.86 19.12,-48.92 42.24,-96.11 67.91,-136.67 33.89,-53.56 67.85,-98.13 112.05,-142.66 28.19,-28.4 48.23,-46.7 80.29,-72.14 121.33,-96.27 278.48,-158.93 443.73,-169.99 467.84,-31.32 836.94,332.09 865.28,763.82 30.82,469.42 -325.47,844.71 -756.84,873.58 -125.16,8.38 -244.55,-12.91 -350.26,-54.15 -50.74,-19.8 -93.32,-43.05 -135.58,-68.97 -44.09,-27.06 -81.18,-57.46 -115.53,-89.02 -71.17,-65.38 -129.85,-140.32 -176.2,-231.01 -47.07,-92.08 -79.75,-201.32 -88.01,-319.93zm1664.17 -77.8c30.31,-11.54 43.96,34.84 16.61,44.53 -30.94,10.95 -45.58,-33.5 -16.61,-44.53zm-1721.57 -0.19c29.98,-10.32 44.8,34.53 15.45,44.95 -31.31,11.12 -41.93,-35.84 -15.45,-44.95zm1717.13 -85.09c31.17,-11.01 43.71,34.24 16.93,44.52 -30.2,11.59 -46.05,-34.22 -16.93,-44.52zm-1713.49 0.04c31.25,-11.16 43.69,34.4 16.89,44.51 -30.15,11.38 -46.23,-34.03 -16.89,-44.51zm1701.57 -83.9c30.01,-12 43.94,33.39 16.11,44.22 -26.74,10.41 -48.2,-31.38 -16.11,-44.22zm-1688.62 -0.08c27.69,-12.12 45.27,32.27 16.21,44.2 -13.95,5.72 -26.78,-3.79 -30.59,-13.42 -6.59,-16.65 3.83,-26.17 14.38,-30.78zm1670.07 -83.78c29.84,-8.47 41.7,37.92 12.45,45.87 -30.87,8.39 -43.73,-36.98 -12.45,-45.87zm-1647.86 0.06c29.64,-9.02 42.54,38.27 12.46,45.91 -30.66,7.78 -43.29,-36.53 -12.46,-45.91zm1615.62 -78.65c29.75,-14.03 46.52,31.04 19.2,43.09 -14.18,6.25 -26.88,-2.1 -31.29,-11.89 -5.09,-11.31 -1.67,-24.71 12.09,-31.2zm-1590.46 -0.32c30.15,-14 43.94,31.67 19.53,43.33 -27.21,13 -50.05,-29.16 -19.53,-43.33zm1555.03 -77.36c31.03,-12.42 45.21,33.54 18.29,43.94 -31.31,12.1 -46.56,-32.62 -18.29,-43.94zm-1518.54 0.09c31.74,-13.33 44.27,34.28 18.27,43.93 -30.85,11.45 -46.81,-31.94 -18.27,-43.93zm1475.12 -72.74c27.16,-13.52 46.7,29.89 19.04,43 -26.72,12.66 -50.7,-27.25 -19.04,-43zm-1431.04 -0.78c31,-11.33 44.29,34.46 16.94,44.51 -30.64,11.25 -45.7,-34.01 -16.94,-44.51zm1383.11 -68.66c29.1,-10.34 42.43,35.23 14.78,44.76 -28.99,10 -47.87,-33 -14.78,-44.76zm-1330.27 -0.51c30.89,-8.46 40,38.39 12.27,45.93 -30.89,8.4 -43.12,-37.47 -12.27,-45.93zm1270.68 -62.15c30.25,-12.5 46.32,33 18.59,43.93 -31.53,12.44 -44.79,-33.09 -18.59,-43.93zm-1217.44 0.05c30.3,-12.71 46.4,33.28 18.47,43.95 -31.57,12.06 -44.53,-33.02 -18.47,-43.95zm1156.25 -57.7c30.27,-11.18 43.9,34.68 16.73,44.56 -30.95,11.26 -45.96,-33.78 -16.73,-44.56zm-1092.23 -0.02c30.28,-10.99 44.55,35.34 15.41,44.96 -30.09,9.93 -44.2,-34.51 -15.41,-44.96zm1022.91 -49.98c29.57,-13.52 45.5,30.72 19.54,43.23 -27.47,13.25 -49.74,-29.42 -19.54,-43.23zm-956.73 0.23c29.48,-15.35 45.9,31.89 19.32,43.17 -27.05,11.5 -49.26,-27.58 -19.32,-43.17zm885.4 -44.63c31.33,-12.11 42.85,36.09 16.7,44.55 -30.12,9.75 -46.02,-33.21 -16.7,-44.55zm-811.87 0.41c27.97,-12.88 45.24,29.39 19.05,42.97 -27.55,14.28 -51.23,-28.16 -19.05,-42.97zm736.36 -37.26c31.05,-10.29 43.81,36.62 13.99,45.41 -29.75,8.77 -43.25,-35.71 -13.99,-45.41zm-659.35 0.39c29.4,-11.54 44.56,34.5 16.61,44.44 -29.33,10.43 -47.49,-32.32 -16.61,-44.44zm581.52 -29.87c31.81,-7.64 39.01,39.72 11.28,46.53 -30.15,7.4 -41.69,-39.23 -11.28,-46.53zm-500.89 0.57c31.6,-9.71 40.26,37.01 13.86,45.51 -29.08,9.37 -44.82,-35.99 -13.86,-45.51zm419.29 -20.97c30.49,-7.88 39.16,38.24 12.07,45.89 -30.83,8.7 -43.94,-37.66 -12.07,-45.89zm-335.89 -0.09c30.63,-7.71 39.7,38.62 12.15,45.93 -30.91,8.19 -44.14,-37.87 -12.15,-45.93zm249.9 -11.99c29.34,-11.13 43.95,33.33 16.88,44.49 -30.86,12.72 -46.66,-33.19 -16.88,-44.49zm-169.14 0.43c30.26,-11.82 44.58,35.36 16.59,44.5 -29.89,9.77 -46.42,-32.85 -16.59,-44.5zm83.47 -3.55c26.71,-13.34 47.73,29.63 19.02,43.03 -26.23,12.25 -50.72,-27.2 -19.02,-43.03zm-825.44 475.7c16.64,-32.04 31.72,-69.15 48.43,-107.55 13.26,-30.45 41.16,-85.06 81.78,-65.28 -0.86,3.28 -3.42,3.17 -4.93,6.08 3.82,8.11 7.14,1.7 -7.51,20.47 -5.94,7.62 -11.1,14.85 -17.3,23.21 -11.05,14.88 -21.39,31.22 -31.83,47.29 -20.51,31.53 -38.24,65.45 -55.91,102.31 -33.55,70 -60.91,158.75 -74.06,244.33 -34.74,225.95 16.92,464.14 133.32,639.47 40.11,60.42 92.09,127.93 144.44,173.97 31.25,27.48 51.75,47.04 87.58,72.62 117.49,83.9 280.98,160.84 467.04,170.77l-10 1.71c31.8,8.22 98.32,15.18 131.78,1.96 18.72,-7.4 18.14,-4.55 43.19,-7.39 162.74,-18.45 302.6,-77.07 427.7,-166.27 37.24,-26.55 99.34,-79.7 130.08,-115.02 4.67,-5.37 6.24,-6.89 12.19,-12.87l56.24 -69.22c41.56,-57.16 79.46,-121.26 107.64,-189.52 3.82,-9.25 25.17,-68.71 27.15,-71.32 3.75,-17.81 10.64,-37.26 15.53,-55.84 36.68,-139.31 37.21,-292.1 6.61,-431.35 -27.59,-125.5 -87.15,-254.34 -164.71,-354.47 -24.45,-31.56 -9.51,-13.02 -12.26,-25.26 -2.03,-9.08 0.64,0.77 -1.48,-2.7 -7.2,-11.74 1.41,10.08 -2.1,-3 67.25,-32.18 94.69,122.69 131.34,173.96 -4.18,-10.19 -9.68,-19.21 -14.4,-30.04 -19.9,-45.73 -37.75,-114.68 -69.51,-144.54 -7.35,-6.91 -14.3,-13.26 -28.12,-13.65 -14.05,-0.4 -21.47,5.11 -26.25,14.55 -0.45,-0.33 -71.19,-77.6 -95.87,-97.69 -5.83,-4.75 -11.83,-10.43 -17.53,-15.29 -275.06,-234.78 -674.8,-284.52 -997.01,-114.93 -82.57,43.46 -110.15,66.6 -172.82,116.64l-49.31 45.24c-18.69,17.74 -52.76,58.14 -61.3,65.95 -16.79,-22.69 -37.6,-17.04 -56.05,0.06 -26.06,24.18 -43.02,78.89 -56.91,114.8 -4.31,11.14 -24.43,54.96 -24.87,57.81z"/>
   <path class="fil18" d="M3043.43 1093.36l53.88 51.69c4.51,4.31 7.52,8.49 11.65,13.48 4.38,5.29 8.4,8.73 12.73,14.26 8.22,10.5 15.29,18.59 24.19,29.85 30.76,38.92 56.27,81.03 81.65,130.63 108.19,211.44 106.21,478.43 0.97,690.34 -24.61,49.55 -51.88,92.9 -81.43,130.85 -29.79,38.24 -66.85,79.72 -103.86,110.38 -4.76,3.95 -8.81,7.86 -13.39,11.68 -34.36,28.67 -70.86,54.45 -110.28,76.87 -212.49,120.85 -457.69,133.93 -685.33,36.99 -67.85,-28.9 -142.01,-76.87 -194.64,-123.74 -19.68,-17.52 -37.35,-33.01 -54.28,-51.91 -4.7,-5.26 -6.34,-6.84 -12.3,-12.74l-36.83 -44.25c-14.72,-19.17 -32.18,-41.69 -44.22,-63.14 -43.64,-65.63 -81.37,-156.88 -101.46,-246.75 -44.39,-198.62 -7.85,-393.97 89.75,-564.72 20.39,-35.67 47.87,-74.32 71.63,-102.08 25.28,-29.55 43.9,-45.37 62.71,-66.59 8.13,-9.17 13.93,-12.33 22.1,-20.34 50.73,-49.74 148.7,-105.77 214.26,-133.07 256.14,-106.65 557.12,-60.53 768.91,112.87 7.16,5.85 16.91,13.11 23.59,19.44zm-551.75 -210.62c-422.13,26.72 -767.43,389.81 -740.88,844.35 24.74,423.38 383.96,775.66 837.72,748.82 420.84,-24.9 766.96,-389.72 741.43,-843.24 -23.83,-423.37 -384.88,-778.63 -838.27,-749.93z"/>
   <path class="fil18" d="M2591.97 2824.36c11.54,-6.9 25.96,-15.48 35.59,-25.8 4.42,-4.74 1.2,-0.46 3.85,-5.01 -62.92,-13.26 -76.82,-66.6 -78.74,-137.05 -8.13,-2.98 -18.8,-1.51 -27.75,-1.51 -7.98,2.72 0.78,46.92 -21.44,90.88 -18.11,35.84 -31.28,37.68 -55.98,50.16 -3.36,1.71 -2.49,1.37 -3.5,2.2 15.05,9.73 25.9,22.14 38.47,25.86 2.91,-5.09 4.37,-11.05 10.58,-13.35 6.94,-2.58 13.44,-2.46 18.7,1 9.57,18.09 -7.87,28.45 -12.29,40.53 7.79,16.89 14.69,28.18 21.89,48.06l11.38 40.52c1.61,7.3 0.81,8.77 5.69,13.85 1.32,-38.18 21.65,-73.36 36.46,-102.43 -5.1,-13.03 -24.42,-26.03 -8.99,-41.88 21.08,-4.64 19.29,3.7 26.08,13.97z"/>
   <path class="fil18" d="M2183.56 2590.3c-7.49,-12.71 -53.34,-47.17 -70.79,-59.18 -76.69,-52.79 -178.86,-84.12 -266.07,-121.82 -57.17,-24.72 -128.25,-62.87 -155.27,-103.3 -10.86,-16.23 -39.08,-92.09 7.24,-86.5 36.5,4.4 10.03,30.98 21.86,34.35 12.03,3.42 23.08,-24.77 6.67,-41.53 -27.37,-27.96 -70.22,-17.11 -81.94,18.83 -12.23,37.48 3.69,76.88 20.87,100.15 38.79,52.58 93.02,64.39 169.52,89.06 72.47,23.38 207.19,77.41 271.93,115.98l57.2 39.29c7.89,6.26 7.86,9.54 18.78,14.67z"/>
   <path class="fil18" d="M2897.14 2590.29l36.39 -27.99c12.05,-9 25.81,-17.75 39.6,-25.97 65.94,-39.34 197.81,-91.7 271.96,-115.95 76.65,-25.07 130.35,-36.1 169.47,-89.11 17.54,-23.78 32.85,-62.16 20.8,-100.1 -11.35,-35.73 -55.59,-47.07 -81.83,-18.83 -18.11,19.5 -3.77,42.21 5.17,41.7 16.13,-0.91 -15.57,-29.91 23.36,-34.55 46.22,-5.5 18.06,70.31 7.19,86.47 -52.71,78.4 -245.33,135.57 -338.4,178.78 -44.5,20.65 -83.55,43.97 -119.38,73.59 -7.31,6.04 -30.46,25.29 -34.33,31.96z"/>
   <path class="fil18" d="M2685.59 2748.6l2.9 2.18c3.27,2.25 7.85,5.19 13.87,-2.85 5.07,-6.75 0.22,-4.94 6.86,-13.32 0.28,-0.36 2.56,-3.59 2.62,-3.68 3.69,5.87 5.6,10.39 9.76,12.3l4.1 0.97c6.24,24.01 5.97,11.03 15.97,32.84l1.31 3.53c20.2,-3.58 15.73,-12.93 21.74,-28.02 23.36,15.72 32.6,-9.35 40.03,-17.99 6.1,-7.09 7.22,-5.39 10.92,-13.65 -20.44,8.39 -29.73,16.71 -58.33,12.57 -23.37,-3.38 -38.16,-10.51 -58.51,-16.76l-0.85 -23.37c11.17,-1.32 13.7,12.2 30.18,18.26 4.27,-6.23 6.28,-8.95 3.71,-19.55 10.12,0.61 12.86,-0.13 16.44,-10.05 1.68,-4.65 5.21,-15.77 5.3,-19.73 -10.04,16.38 -34.01,23.03 -60.81,22.8 -5.67,-4.5 -5.22,-7.18 -13.5,-9.83 -2.56,5.2 -0.03,3.85 -3.86,8.65l-19.48 -2.19c9.31,9.12 20.71,5.81 17.14,19.83 -7.63,-1.65 -24.04,-10.78 -29.57,-14.35 5.67,3.5 19.09,17.86 22.66,24.2 -16.89,25.78 -64.99,-7.97 -78.34,-39.73 -2.74,-6.53 -2.29,-10.71 -7.58,-15.24 -13.03,34.82 1.76,68.56 20.91,88.72 23.2,24.41 59.9,28.54 84.41,3.46z"/>
   <path class="fil18" d="M2410.91 2717.15c2.33,-6.96 20.84,-26.79 26.27,-29.95 -4.36,2.78 -36.7,21.13 -39.72,18.68 -8.28,-6.7 22.05,-18.9 27.32,-23.75l-30.99 2.98 -3.27 -10.45c-13.51,5.57 -1.45,15.33 -34.74,7.1 -14.97,-3.7 -21.03,-12.02 -29.16,-18.93 1.27,5.22 3.76,13.74 5.76,19.21 3.62,9.96 6.29,10.6 16.45,10.03 -2.75,10.83 -0.69,13.23 3.67,19.56 8.19,-3.03 14.85,-9.09 19.78,-14.47l-3.93 24.64c-56.08,14.46 -52.16,20.89 -103.35,-0.92 3.34,7.57 4.36,6.53 10,12.73 3.44,3.78 6.47,9.17 9.71,13.48 8.77,11.68 18.19,13.98 31.28,5.46 4.56,16.29 4.08,25.04 21.75,28.02 0.15,-0.26 0.26,-1.07 0.29,-0.85l8.12 -15.73c6.22,-10.88 2.89,2.41 8.83,-19.79 5.92,-3 1.77,5.04 13.91,-13.2 7.57,14.83 13.88,27.57 36.4,30.88 53.27,7.81 119.05,-52.84 82.49,-105.76 -9.98,14.29 -28.41,75.55 -76.87,61.03z"/>
   <path class="fil18" d="M2154.09 2574.43c-34.78,-29.79 -151.74,-40.03 -197.58,-45.74 -40.26,-5.01 -168.61,-22.38 -151.47,-87.84 27.73,-16.01 26.1,10.56 27.13,12.4 19.87,-4.36 2.44,-40.27 -29.31,-27.85 -20.71,8.1 -21.38,34.04 -11.85,55.03 15.44,34.01 52.1,50.25 99.23,52.54 48.16,2.33 94.52,5.37 142.12,11.51 80.28,10.36 79.95,20.76 121.73,29.95z"/>
   <path class="fil18" d="M2628.65 2631.86l0.27 -18.9c-28.13,-8.19 -67.4,-3.46 -98.21,-4.08 -21.84,-0.44 -82.1,-7.97 -88.43,10.64 -6.46,19.01 20.55,13.21 32.37,12.95 17.03,-0.38 34.78,0.92 52.2,0.61 33.37,-0.58 68.82,0.08 101.8,-1.22z"/>
   <path class="fil18" d="M1523.37 1624.85c-1.89,8.94 2.87,10.56 9.95,14.84 -8.68,0.03 -19.44,-2.58 -27.15,-1.28 -7.47,1.26 -1.98,0.28 -5.72,2.06 -10.99,5.22 -9.56,2.29 -14.78,6.49 -4.96,3.99 -6.5,12.64 -11.34,17.63 -7.14,7.37 -10.62,5.26 -18,1.22 1.25,8.08 5.08,9.09 14.71,11.36 45.41,10.72 97.54,-49.23 104.51,-70.63 -12.13,4.36 -11.52,7.81 -27.18,10.3 -17.24,2.74 -13.79,14.48 -25,8.01z"/>
   <path class="fil18" d="M3557.33 1624.82c-5.03,2.87 -6.71,2.41 -12.91,-2.29 -6.04,-4.59 -0.54,-3.85 -12.07,-5.7 -15.74,-2.52 -15.06,-5.94 -27.22,-10.31 5.77,18.18 34.54,45.38 48.08,55.26 28.91,21.08 68.36,22.08 71.17,4.02 -22.27,11.79 -19.5,-12.58 -30.44,-19.67l-10.03 -3.67c-0.4,-0.18 -0.88,-0.44 -1.27,-0.62 -16.44,-7.8 -13.44,-2.15 -35.23,-2.14 6.97,-4.25 11.81,-5.88 9.92,-14.88z"/>
   <path class="fil18" d="M1226.31 1812.08c-3.99,8.83 -0.67,12.56 8.2,13.58 -5.37,3.4 -10.16,4.77 -5.14,10.66 -9.14,2.12 -12.98,5.74 -16.26,12.76 -1.62,3.47 -2.35,7.06 -4.19,9.45 -3.03,3.95 -0.38,1.66 -5.8,3.23l-2.07 0.49c0.33,14.18 11.75,13.94 23.19,9.59 29.16,-11.08 27.27,-51.31 31.15,-79.94 -20.19,9.03 -13.77,15.45 -21.61,19.79 -7.79,4.31 0.49,-2.41 -7.47,0.39z"/>
   <path class="fil18" d="M3825.31 1791.91c5.6,22.47 0.67,41.6 11.86,62.36 11.53,21.4 41.95,28.72 42.46,7.98l-3.1 -0.73c-12.26,-4.1 -3.12,-20.11 -25.2,-25.18 4.85,-5.99 0.3,-7.21 -5.15,-10.69 9.1,-1.09 12.38,-4.28 8.2,-13.57 -6.17,-2.18 -3.87,7.82 -13.38,-7.84 -4.25,-6.98 -7.85,-8.77 -15.69,-12.33z"/>
   <path class="fil18" d="M1619.23 780.35l2.71 -1.98c4.95,-4.31 16.29,-15.29 18.09,-21.29 4.45,-14.77 -9.57,-18.84 -20.53,-21.64 11.18,27.72 3.31,20.82 -0.27,44.91z"/>
   <path class="fil18" d="M1223.76 1876.48c36.87,11.09 28.54,-5.45 28.1,-36.78 -10.75,12.27 -0.57,17.54 -25.44,34.76l-2.66 2.02z"/>
   <path class="fil19" d="M1272.57 1819.97c3.32,8.67 3.58,17.9 7.39,26.97l1.25 2.83c6.04,12.85 11.43,13.4 9.06,23.34 0.27,-0.17 0.69,-0.76 0.81,-0.51l5.11 -3.34c1.17,4.88 1.08,5.26 7.38,10.64 6.01,5.14 6.46,1.59 5.53,11.26l5.37 -3.36 24.52 10.25c14.79,2.99 22.93,2.1 33.7,-2.34 -18.21,11.47 -46.68,10.75 -64.45,-1.44l-2.28 -1.76c-0.34,-0.25 -0.75,-0.63 -1.09,-0.89 -0.32,-0.25 -0.75,-0.6 -1.07,-0.85l-10.49 -8.92c-8.1,-9.08 -14.6,-20.32 -18.44,-31.21l-5.11 -21.99c-0.42,-6.01 -0.3,-5.22 2.81,-8.68zm302.83 -204.72c-3.89,20.58 -51.23,72.58 -80.35,87.41 -18.81,9.58 -45.65,17.48 -69.8,14.47 -33.09,-4.11 -41.39,-40.53 -17.84,-39.56 3.63,5.28 2.35,1.32 2.08,9.21l-1.75 -2.42c-2.57,-2.36 0.93,-1.57 -2.49,-1.9 -5.68,-0.55 -7.41,30.61 44.63,26.78 11.68,-0.86 25.82,-3.96 36.21,-7.87 12.92,-4.86 21.17,-12.89 30.39,-16.29l-4.3 -1.48c-3.51,0.03 -15.48,9.31 -30.28,11.93 -5.78,1.02 -10.1,0.46 -16.17,2.01 2.19,-3.39 45.95,-18.51 53.07,-21.24 3.95,-1.5 5.77,5.26 24.85,-17.65 3.45,-4.14 7.49,-9.3 11.06,-14.01 4.25,-5.6 6.86,-9.69 10.24,-14.95 2.11,-3.28 2.62,-4.36 4.4,-7.14l6.05 -7.3zm-52.03 9.6c11.21,6.47 7.76,-5.27 25,-8.01 15.66,-2.49 15.05,-5.94 27.18,-10.3 -6.97,21.4 -59.1,81.35 -104.51,70.63 -9.63,-2.27 -13.46,-3.28 -14.71,-11.36 7.38,4.04 10.86,6.15 18,-1.22 4.84,-4.99 6.38,-13.64 11.34,-17.63 5.22,-4.2 3.79,-1.27 14.78,-6.49 3.74,-1.78 -1.75,-0.8 5.72,-2.06 7.71,-1.3 18.47,1.31 27.15,1.28 -7.08,-4.28 -11.84,-5.9 -9.95,-14.84zm-126.13 -103.03c-5.21,-4.1 -5.16,6.09 -4.2,-5.01 -0.56,0.32 -3.24,0.5 -4.84,0 4.7,1.59 3.16,1.7 7.46,4.46 -0.52,0.53 -1.28,0.94 -1.82,1.27 -0.51,0.3 -1.14,0.82 -1.74,1.14l-12.08 2.1c2.76,13.95 2.13,29.72 2.41,45.51 4.08,-5.78 1.33,-5.15 7.85,-8.96 10,5.98 12.08,34.69 22.81,40.03 10.19,5.06 41.73,5.53 56.14,5.43 -19.75,5.08 -63.16,-3.6 -85.79,-13.14l-7.62 -4.27c-1.57,-4.59 5.8,-5.28 -5.26,-3.22 -9.88,-0.53 -32.21,-18.44 -39.66,-26.41l-11.03 -10.86c0.59,4.88 0.69,4.71 2.2,10.76l-13.31 0.54c-1.92,4.75 -6.22,3.89 4.38,17.06 9.99,12.41 7.54,10.08 13.63,9.04 8.81,-0.1 49.24,26.02 98.37,32.95l46.78 2.52 39.29 -10.9c-76.15,32.07 -99.07,23.9 -170.8,14.95l4.88 2.27 -5.18 13.16c16.01,0.27 20.51,9.65 72.52,9.65 -2.72,2.72 -0.24,0.85 -3.9,2.03 -0.24,0.08 -1.16,0.1 -1.69,-0.09 8.14,2.78 5.31,1.86 7.18,6.58l-4.64 5.02c45.68,-8.22 105.24,-34.2 138.41,-64.21l28.65 -33.33c2,-2.28 1.31,-1.61 3.27,-3.33 -4.62,11.29 -18.27,26.11 -25.34,33.56 -15.85,16.7 -18.57,15.13 -28.32,23.82l-2.88 2.91c-7.33,1.82 -23.23,11.44 -32.49,15.7 -11.56,5.32 -22.1,9.41 -34.19,14.08l-73.61 25.23c5.23,0.17 5.2,-1.89 9.09,1.41 -5.65,7.24 -7.26,18.03 -10.18,27.94 -1.92,6.48 -4.12,9.52 -5.08,14.5 -3.34,17.27 3.38,7.24 2.53,15.83 -14.16,7.16 -25.35,-5.94 -20.44,-31.82 -14.35,11.13 -3.02,15.61 -16.25,27.02 -0.21,8.93 2.37,23.67 8.95,29.31l-9.39 0.78c19.13,9.46 8.43,17.8 24.78,29.89 -13.08,8.61 -20.93,10.52 -38.09,3.45 -24.18,-9.97 -20,-17.78 -25.38,-27.85 -0.17,12.72 2.45,40.09 10.78,48.18 1.63,1.58 3.38,1.94 5.83,3.96 4.65,3.82 3.74,5.29 3.84,5.42 0.12,0.17 0.38,0.66 0.53,0.82l14.14 8c33.36,19.66 11.46,16.38 26.45,33.4 10.53,-0.73 3.4,-2.24 10.75,-5.19 -0.98,36.47 -106.75,16.84 -93.45,-73.92 8.17,-55.79 50.27,-90.57 93.93,-107.7 -58.19,11.94 -130.06,86.08 -115.99,156.5 13.85,69.31 102.25,101.09 155.83,44.57l5.64 -5.85c3.57,-2.74 -0.61,-0.54 3.35,-1.96 3.77,-0.7 2.69,1.33 7.68,-4.81 11.92,-14.68 23.77,-56.49 19.5,-73.17 3.19,-4.22 -0.45,-2.08 5.98,-3.32 -1.55,-1.83 -1.37,-1.62 -3.24,-3.44 -8.9,-8.64 -8.33,-6.83 -6.75,-16.16 0.06,0.03 8.31,10.48 16.09,-1.21 1.45,-2.17 8.05,-23.43 24.39,-25.78 6.29,-0.91 13.93,2.2 22.9,1.4 -9.27,-5.52 -15.43,-9.54 -16.53,-24.09 22.13,4.67 21.85,-4.13 26.91,-5.99 22.78,-8.38 0.67,-2.38 13.61,-9.13l14.43 -7.24c-8.56,-5.02 -15.66,0.27 -15.31,-15.48 8.09,-1.98 7.94,4.1 14.97,-3.98 11.71,-13.46 13.3,-8.5 19.63,-20.88 4.25,-8.3 2.53,-8.57 8.52,-13.5l-1.61 9.84 0.15 -0.5c3.24,-4.06 16.06,-55.98 21.23,-67.98l2.56 -4.5c0.26,-19.39 19.01,-50.27 18.01,-89.81l-2.73 10.09c-4.76,32.4 -10.24,53.52 -25.61,84.17l-14.63 24.17c0.84,-5.84 15.05,-31.22 19.13,-40.83 5.92,-13.97 11.95,-28.85 14.35,-45.35 -4.61,4.11 -0.08,-0.78 -3.56,4l-5.02 9.03c2.94,-7.77 4.85,-11.56 7.3,-18.84 11.29,-33.6 6.29,-34.34 6.01,-68.06 -2,13.96 -0.75,44.26 -9.85,56.22 0.32,-11.53 11.53,-47.51 3.58,-69.48l-1.53 -3.2c-0.01,35.48 -7.19,60.65 -22.85,87.36 -28.41,48.44 -86.94,79.22 -143.31,59.15 -21.74,-7.74 -47.66,-32.33 -42.41,-63.43z"/>
   <path class="fil20" d="M1541.49 996.83c2.69,2.71 34.24,16.52 42.24,21.52 34.1,21.31 75.27,57.06 92.06,95.37 -5.09,-3.6 -4.51,-4.45 -8.17,-9.42l-23.68 -24.66c-12.41,-10.19 -23.64,-17.63 -39.94,-25.35l-38.48 -15.81c-0.23,-0.14 -0.66,-0.57 -0.86,-0.69l-28.18 -6.9c-10.03,-2.1 -19.1,-3.58 -30.47,-2.62 31.1,-9.78 76.82,6.84 105.64,22.01 9.81,5.16 18.92,14.77 28.46,17.51 -9.42,-20.78 -67.21,-51.8 -85.42,-58.85 -53.07,-20.52 -106.25,-6.12 -95.9,24.38 10.96,-1.18 1.16,-3.7 7.37,-5.44 0.57,9.09 -5.23,9.92 -14.12,8.67l4.06 2.1c12.56,4.94 5.51,-0.37 9.41,3.34l0.96 1.44c7.27,7.78 -5.41,1.49 5.58,2.45l9.79 10.12c29.59,-6.59 40.79,-11.25 72.6,-3.95 21.92,5.03 40.89,11.24 57.55,22.74 -17.07,-6.73 -10.11,-11.16 -29.19,-0.36l-10.7 4.51c-5.84,2.97 -7.74,6.27 -17.07,7.34l1.15 -12.93 -24.56 31.53c2.34,1.87 3.72,-1.41 2.06,14.31 -1.12,10.54 0.39,-0.73 -0.75,4 -1.64,6.84 -2.81,9.46 1.65,15.35 -1.75,-69.54 139.84,-61.02 149.65,67.49 1.19,15.66 0.03,32.38 -3.54,47.15 -1.67,6.86 -3.59,13.36 -5.87,19.42 -2.29,6.07 -4.48,12.68 -8.9,15.74 -8.4,4.6 -5.28,5.22 -12.61,15.13 -1.53,2.07 -2.43,3.41 -4.14,5.45 -3.61,4.28 -14.24,12.84 -15.76,16.84 1.2,0.52 -0.43,3.44 8.23,-5 6.82,-6.63 5.75,-3.99 7.2,-14.3 -11.17,3.27 -5.54,0.48 -17.83,13.04 -2.94,3 -11.94,10.19 -13.03,12.05 2.37,4.07 -0.16,1.83 1.92,-1.94 -9.93,-2.7 -4.41,-2.06 -17.86,6.31l-5.68 3.99c-0.43,0.33 -1.05,0.82 -1.53,1.28 5.16,12.32 -2.28,-1.57 1.93,4.17 8.99,-2.05 13.13,-3.7 20.14,-7.15 6.9,-3.39 12.15,-7.92 19.78,-6.07 5.41,-0.42 5.18,0.35 12.25,-3.96l28.11 -22.3c5.2,-4.2 12.58,-11.71 16.49,-16.73 2.74,-3.51 4.9,-6.34 7.48,-9.91 4.57,-6.31 4.71,-4.89 4.91,-14.46 -5.74,1.19 -6.29,-1.58 -3.05,1.15 1.72,-1.42 2.9,-3.99 3.95,-6.15 2.67,-5.51 2.91,-4.36 2.59,-10.81 0.14,-9.29 7.84,-23.09 10.98,-33.22 2.96,-9.54 8.17,-27.02 9.3,-37.36 1.11,-10.03 -0.65,-7.71 -4.89,-17.32 -2.86,-6.51 -3.72,-10.05 -8.35,-14.86 -5.61,-5.84 -6.64,-3.37 -8.43,-12.66 -3.24,-16.79 -5.45,-12.02 -9.39,-12.4 1.74,17.45 18.49,78.67 2.14,108.69 3.02,-52.36 13.43,-74.56 -17.28,-135.5 -17.4,-34.52 -33.95,-56.63 -54.32,-86.61 -1.16,-1.71 -3.16,-4.88 -3.81,-5.78 -0.77,-1.05 -1.82,-2.44 -2.7,-3.39 -2.1,-2.25 -1.15,-1.33 -3.46,-3.13l2.96 15.68 -13.07 2.25c-0.27,-0.06 -0.82,-0.22 -1.08,-0.3 -0.26,-0.08 -0.81,-0.29 -1.06,-0.4 -0.44,-0.18 -3.7,-2.09 -4.15,-2.36 -8.33,-5.05 -18.82,-11.26 -29.02,-14.12 -2.68,-0.75 -3.48,-1.13 -5.91,-1.17l-26.38 1.82z"/>
   <path class="fil21" d="M1535.24 1348.11c4.74,4.77 10.25,5.08 16.86,8.88 5.64,3.25 9.81,6.29 13.59,9.48 17.48,14.71 5.16,8.37 13.41,19.38 26.39,35.22 6.09,123.53 -53.78,124.59 -19.94,0.35 -43.59,-15.22 -40.16,-30.12 2.17,-9.43 6.72,-1.72 9.57,-2.11 0.91,-13.29 1.17,11.17 0.21,-3.97l-1.33 -3.15c-17.34,-5.2 -29.78,20.75 0.17,38.78 53.17,32 104.24,-31.73 98.42,-87.47 -0.49,-4.64 -2.12,-9.61 0.71,-14.55 5.47,24.41 9.06,35.53 1.67,62.36 -9.01,32.7 -33.28,67.73 -71.29,71.14 -16.88,1.51 -50.97,-3.22 -40.39,-22.42 5.18,2.03 2.91,4.13 7.26,4.26l-0.58 -9.3c-12.82,-2.75 -22.72,4.06 -18.2,19.74 2.82,9.79 12.19,13.93 22.71,16.25 59.73,13.17 108.49,-48.66 105.49,-122.7 8.45,9.82 3.44,39.64 0.65,50.63 -11.4,44.91 -37.67,64.85 -67.16,88.38 -3.01,-5.24 3.36,-1.1 -3.86,-4.35 -20.86,13.72 -56.71,10.82 -81.58,5.53 10.35,22.77 79.31,2.04 79.41,2.03 -82.76,46.79 -152.78,-31.76 -118.13,-59.1 10.65,-8.4 14.57,-2.98 20.26,1.95 -6.67,-19.26 -27.48,-5.52 -31.93,9.57 -5.25,31.1 20.67,55.69 42.41,63.43 56.37,20.07 114.9,-10.71 143.31,-59.15 15.66,-26.71 22.84,-51.88 22.85,-87.36l1.53 3.2c7.95,21.97 -3.26,57.95 -3.58,69.48 9.1,-11.96 7.85,-42.26 9.85,-56.22 0.28,33.72 5.28,34.46 -6.01,68.06 -2.45,7.28 -4.36,11.07 -7.3,18.84l5.02 -9.03c3.48,-4.78 -1.05,0.11 3.56,-4 -2.4,16.5 -8.43,31.38 -14.35,45.35 -4.08,9.61 -18.29,34.99 -19.13,40.83l14.63 -24.17c15.37,-30.65 20.85,-51.77 25.61,-84.17l2.73 -10.09c1,39.54 -17.75,70.42 -18.01,89.81 0.35,-0.37 0.8,-1.52 0.93,-1.22 2.01,4.7 15.83,-59.08 16.65,-64.43 7.88,-51.79 -8.64,-120.7 -47.93,-155.03 -10.81,-9.44 -20.8,-12.62 -24.6,-17.11 -3.56,-4.49 7.32,-3.78 -4.62,-3.78l-0.02 -2.12 -8.88 1.01 3.35 4.16z"/>
   <path class="fil22" d="M3535.3 1348.86c-0.84,0.93 1.58,-0.81 -2.7,2.33 -13.04,9.56 -22.08,9.61 -39.75,33.66 -22.77,30.97 -32.67,80.31 -31.61,118.38 0.31,11.32 5.74,50.36 11.99,61.81 0.22,0.39 0.86,1.77 1.02,1.46 0.17,-0.32 0.69,1.01 1.09,1.46 -3.88,-24.94 -13.57,-42.35 -13,-69.35l2.26 6.62c1.87,8.08 2.79,26.57 7.5,37.1 1.26,2.82 1.84,3.19 2.35,3.82l-2.6 -16.99c5.83,5.22 4.98,8.08 8.64,13.07l-9.34 -23.47c-3.79,-6.14 -5.13,-23.4 -5.29,-32.81 -0.17,-10.36 1.23,-20.42 1.36,-30.77 3.52,45.36 5.74,60.87 26.53,99.94l7.81 10.29 -5.73 -17.1c0.01,-0.07 0.13,-0.45 0.12,-0.52 0,-0.2 -23.88,-38.8 -24.96,-75.38 -0.56,-18.75 -0.13,-26.85 3.86,-33.74 -0.34,66.48 37.45,131.15 98.88,148.62 39.57,11.26 71.66,1.67 94.1,-19.79 41.69,-39.9 -5.98,-85.43 -16.37,-55.19 0.45,-0.39 0.96,-0.92 1.29,-1.21l5.08 -3.93c9.28,-4.68 25.11,7.69 21.77,28.02 -6.45,39.27 -66.66,65.13 -125.9,34.28 8.27,0.78 11.53,3.68 20.68,5.74 11.46,2.59 52.21,7.09 58.67,-7.81 -36.39,6.95 -51.09,6.51 -83.73,-5.79 -1.99,3.86 -0.42,2.24 -1.67,4.51 -11.41,-9.04 -20.31,-16.15 -31.46,-25.54 -33.13,-27.92 -50.46,-102.5 -32.22,-128.07 -0.23,12.11 -7.35,29.05 -1.76,41.01 -0.29,-21.92 1.35,-27.16 5.63,-45.76 2.43,4.48 1.59,7.28 1.58,7.92 0,0.18 -0.86,5.9 -0.94,6.72 -3.16,30.03 11.05,64.92 33.93,83.09 32.62,25.9 92.49,5.69 80.76,-28.39 -4.62,-6.2 -7.55,-8.52 -16.17,-6.12l-1.31 3.22c-1.31,5.2 -0.44,-0.8 0.22,4.01 7.38,1.03 -2.98,-0.22 4.01,-2.08 0.05,-0.01 1.6,-3.1 4.48,1.46 2.92,4.61 1.58,9.21 -0.92,13.63 -3.37,5.95 -11.26,11.94 -19.27,15.4 -19.05,8.24 -38.97,2.09 -52.66,-8.13 -29.46,-22 -38.95,-79.13 -24.91,-103.26 -2.24,-1.81 0.25,0.01 -2.23,-1.08l-2.13 -0.85c14.19,-18.54 24.54,-35.1 53.43,-42.93 0.25,-0.59 1.15,-2.14 1.18,-2.51 0.02,-0.27 -0.14,-1.11 -0.14,-1.35l-1.03 -3.38c-5.28,0.94 -6.56,0.71 -10.42,5.73z"/>
   <path class="fil23" d="M1452.04 1036.55c8.89,1.25 14.69,0.42 14.12,-8.67 -6.21,1.74 3.59,4.26 -7.37,5.44 -10.35,-30.5 42.83,-44.9 95.9,-24.38 18.21,7.05 76,38.07 85.42,58.85 -9.54,-2.74 -18.65,-12.35 -28.46,-17.51 -28.82,-15.17 -74.54,-31.79 -105.64,-22.01 11.37,-0.96 20.44,0.52 30.47,2.62l28.18 6.9c0.2,0.12 0.63,0.55 0.86,0.69l38.48 15.81c16.3,7.72 27.53,15.16 39.94,25.35l23.68 24.66c3.66,4.97 3.08,5.82 8.17,9.42 -16.79,-38.31 -57.96,-74.06 -92.06,-95.37 -8,-5 -39.55,-18.81 -42.24,-21.52 -23.29,-0.6 -35.69,-11.47 -66.22,-3.04 -21.42,5.92 -32.21,20.82 -23.23,42.76z"/>
  </g>
 </g>
</svg>
