<?xml version="1.0" encoding="UTF-8"?>
<!DOCTYPE svg PUBLIC "-//W3C//DTD SVG 1.1//EN" "http://www.w3.org/Graphics/SVG/1.1/DTD/svg11.dtd">
<!-- Creator: CorelDRAW 2017 -->
<svg xmlns="http://www.w3.org/2000/svg" xml:space="preserve" width="50.7998mm" height="33.8666mm" version="1.1" style="shape-rendering:geometricPrecision; text-rendering:geometricPrecision; image-rendering:optimizeQuality; fill-rule:evenodd; clip-rule:evenodd"
viewBox="0 0 5079.98 3386.66"
 xmlns:xlink="http://www.w3.org/1999/xlink">
 <defs>
  <style type="text/css">
   <![CDATA[
    .fil0 {fill:#606062}
   ]]>
  </style>
 </defs>
 <g id="Capa_x0020_1">
  <metadata id="CorelCorpID_0Corel-Layer"/>
  <g id="_1806585056960">
   <path class="fil0" d="M2554.55 2145.3l19.01 0.33c4.69,19.87 -0.9,24.26 -21.71,19.6 -2.84,-9.92 -0.96,-13.23 2.7,-19.93zm-50.25 16.78l-0.33 -18.8 21.61 -1.1c6.47,20.7 0.51,26.6 -21.28,19.9zm116.95 -1.6c-8.55,6.09 -12.01,5.28 -22.33,3.17l-0.98 -19.59c16.29,-3.91 29.04,-2.9 23.31,16.42zm47.1 -5.91c-8.97,3.14 -14.14,3.55 -23.06,0.25 -5.98,-26.02 27.6,-31.29 23.06,-0.25zm-212.46 -15.08c13.63,-10.02 28.47,-2.91 23.61,12.72 -3.43,11.06 -27.41,11.16 -23.61,-12.72zm-27.28 -16.25c9.97,18.65 6.81,29.93 -18.65,20.71 -1.49,-16.25 1.82,-23.42 18.65,-20.71zm266.38 -0.31c14.23,-1.64 21.62,2.41 21.72,16.16 -7.28,8.07 -8.44,8.38 -22.31,6.68 -5.33,-11.4 -3.63,-14.04 0.59,-22.84zm63.95 -12.23l1.38 15.72c-30.05,21.94 -36.31,-31.45 -1.38,-15.72zm-389.7 20.29c-10.47,-19.56 -2.16,-29.52 19.37,-19.32 2.77,13.76 -3.04,21.56 -19.37,19.32zm-45.89 -43.35c11.86,-3.57 13.25,-2.36 21.91,2.98 4.83,29.72 -34.01,27.36 -21.91,-2.98zm479.28 -0.48c1.53,18.73 -1.41,26.57 -19.18,22.78 -10.72,-22.15 -3.13,-22.88 19.18,-22.78zm37.56 -1.95l-15.76 0.57c-21.31,-31.74 37.07,-33.51 15.76,-0.57zm-559.64 -19.49c8.66,-3.54 8.66,-4.59 20.91,-2.82l2.55 22c-20.56,2.25 -27.18,-0.19 -23.46,-19.18zm601.48 -12.89c-7.67,6.15 -14.47,5.98 -22.73,0.64 -6.17,-29.78 28.23,-28.25 22.73,-0.64zm-618.42 -18.58c6.89,16.85 -1.5,31.62 -16.76,21.68 -11.21,-7.3 -8.39,-26.98 16.76,-21.68zm652.6 -30.03l1.34 18.95c-39.03,6.4 -27.76,-31.37 -1.34,-18.95zm-687.97 20.28c-9.19,0.46 -15,-0.61 -20.72,-4.16 -5.25,-19.1 6.52,-21.5 21.19,-18.07 3.58,9.05 3.02,12.24 -0.47,22.23zm697.39 -54.55c13.15,-6.91 34.52,-6.23 22.62,15.14 -5.36,9.64 -26.23,9.8 -22.62,-15.14zm-749.3 -2.62c6.14,-2.37 10.66,-3.53 18.97,-1.55 2.6,5.4 3.74,10.64 3.35,18.77 -18.02,7.33 -30.15,6.4 -22.32,-17.22zm-29.08 -36.83c10.38,-6.51 12.94,-6.31 21.67,0.2 3.1,11.08 2.99,18.78 -8.62,20.37 -15.64,2.15 -14.6,-8.19 -13.05,-20.57zm810.81 -2.73c8.23,-1.93 14.15,-0.75 20.43,3.2 5.04,28.8 -33.28,30.33 -20.43,-3.2zm43.04 -20.26l-19.16 2.18c-2.18,-7.14 -4.13,-12.44 -1.6,-20.91 19.49,-11.36 26.16,0.79 20.76,18.73zm-858.76 -22.33c13.39,28 -9.32,26.7 -20.89,18.16 -1.56,-14.89 5.74,-20.69 20.89,-18.16zm878.5 -20.17c-40.06,6.51 -17.11,-36.57 -1.39,-20.43 4.5,4.64 2.85,13.4 1.39,20.43zm-916.65 -20.93c9.38,-3.62 11.31,-2.33 20.56,-0.18 8.1,34.67 -34.33,27.86 -20.56,0.18zm933.14 -25.89l-19.84 2.14c-8.9,-33.85 26.26,-33.02 19.84,-2.14zm-929.31 0.65c-7.98,2.52 -14.16,2.34 -20.9,-1.64 -5.51,-16.61 2,-22.77 18.18,-20.32 5.43,9.12 6.05,9.96 2.72,21.96zm918.7 -65.19c6.74,-3.74 8.37,-5.47 18.62,-3.89 15.15,17.02 2.48,31.83 -17.77,20.5l-0.85 -16.61zm-931.6 17.48c-8.79,5.64 -10.31,2.98 -20.5,0.16l-0.72 -17.26c33.41,-18.45 21.28,16.63 21.22,17.1zm940.39 -46.37l-0.43 -18.61c5.27,-2.51 8.95,-4.15 15.87,-4.6 12.55,13.94 10.31,29.4 -15.44,23.21zm-968.44 -19.45l17.02 -4.1c25.38,26.79 -23.79,39.71 -17.02,4.1zm952.97 -4.79c-5.62,67.16 -23.21,127.37 -50.79,179.86 -14.38,27.38 -27.81,47.83 -44.95,70.04 -92.18,119.42 -237.09,188.7 -396.74,177.33 -241.98,-17.22 -442.77,-233.13 -422.48,-499.53 18.36,-241.03 228.81,-443.48 493.43,-423.55 238.57,17.96 443.6,232.17 421.53,495.85zm23.96 -47.09c16.65,-0.81 17.59,6.09 15.02,22.6 -8.42,1.37 -13.21,2.98 -20.77,0.43 -3.51,-12.87 -1.66,-16.47 5.75,-23.03zm-956.17 5.08c6.05,20.86 -15.06,24.95 -21.01,15.77 -10.99,-16.96 6.02,-24.44 21.01,-15.77zm968.87 -29.95l-21.18 0.97c-4.46,-34.16 25.05,-33.67 21.18,-0.97zm-989.56 -19.59c8.67,-3.77 15.12,-4.45 22.95,1.77 3.38,17.35 -2.5,21.65 -18.8,18.92 -5.69,-9.56 -6.14,-10.04 -4.15,-20.69zm979.25 -50.21c7.8,16.11 6.15,29.24 -17.46,22.68 -4.93,-18.31 -3.54,-23.88 17.46,-22.68zm-969.92 1.32c20.54,-4.69 27.2,2.5 18.55,21.05l-17.81 0.09c-3.49,-9.91 -5.05,-10.04 -0.74,-21.14zm8.99 -44.18c32.26,-20.13 33.65,36.76 0.79,16.26l-0.79 -16.26zm952.4 0.11c5.61,26.58 -16.77,25.01 -22.04,14.11 -7.59,-15.71 7.32,-23.05 22.04,-14.11zm-35.12 -48.37c25.64,-6.61 24.86,16.19 16.67,21.67 -13.71,9.17 -25.85,-2.87 -16.67,-21.67zm-878.6 18.95c-2.91,2.02 -4.01,6.47 -19.61,3.35l-0.24 -19.69c11.72,-7.46 25.05,-6.19 19.85,16.34zm878.5 -45.46c-12.82,12.55 -27.95,5.8 -23.94,-10.42 2.82,-11.39 27.38,-16.71 23.94,10.42zm-880.8 -2.68c-2.58,-19.88 22.73,-22.25 24.09,-5.35 1.48,18.25 -22.25,19.5 -24.09,5.35zm850.08 -32.44c-15.29,0.74 -20.91,-3.9 -15.76,-19.97l14.69 -5.41c5.99,6.43 6.75,5.83 8.7,15.04l-7.63 10.34zm-804.48 -1.23c-26.52,5.76 -24.74,-17.57 -15.13,-23.23 15.34,-9.03 22.14,10.09 15.13,23.23zm758.45 -56.63c7.97,-5.5 10.87,-6.95 22.05,-4l2.31 18.63c-9.24,5.92 -15.73,6.33 -23.59,0.14l-0.77 -14.77zm-750.07 -1.73c23.1,-13.05 28.25,6.52 16.79,21.72l-11.11 0.77c-6.3,-8.84 -7.53,-10.47 -5.68,-22.49zm740.11 -16.96c-8.6,3.41 -11.59,3.07 -20.58,0.14 -6.63,-36.37 30.66,-28 20.58,-0.14zm-706.22 1.52c-3.63,-13.7 1.27,-31.54 16.49,-22.4 8.1,4.86 12.94,27.28 -16.49,22.4zm649.54 -36.93c-7.36,-18.8 14.09,-25.21 21.45,-11 10.03,19.37 -17.45,21.22 -21.45,11zm-618.24 -7.71c5.31,-5.51 8.95,-9.8 18.84,-10.71 11.74,10.8 12.72,26.19 -13.38,23.34l-5.46 -12.63zm599.18 -16.39c-25.16,2.35 -25.95,-17.11 -15.32,-20.85 11.12,-3.92 23.95,7.15 15.32,20.85zm-559.7 -7.99c3.61,-12.46 8.5,-13.86 22.12,-13.65l1.49 19.91c-12.79,5.01 -16.01,7.26 -23.61,-6.26zm499.86 -35.58c7.44,-2.82 14.49,-1.96 22.88,8.84 -6.8,22.89 -28.84,9.98 -22.88,-8.84zm-458.71 8.84c3.72,-3.79 10.17,-8.8 16.46,-9.44 4.78,-0.48 2.68,0.42 4.9,1.51 12.39,11.89 -11.8,32.23 -21.36,7.93zm415.21 -28.62c10.38,-0.7 17.17,3.38 23.7,6.36 -3.73,16.18 -12.93,16.9 -23.52,7.66l-0.18 -14.02zm-348.99 -0.71c1.37,27.2 -18.07,25.96 -23.7,6.93l23.7 -6.93zm327.68 -8.11c-3.12,12.49 -3.37,12.17 -17.1,10.93 -6.86,-5.91 -7.69,-5.7 -6.9,-17.83l18.3 3.68c10.73,3.87 0.19,-0.32 5.7,3.22zm-306.06 0c7.12,-4.57 14.08,-5.37 23.95,-6.47 -2.62,24.27 -17.95,27.35 -23.95,6.47zm258.76 -10.7c-2.64,9.54 -0.86,7.42 -9.91,11.68 -11.19,-3.28 -11.85,-6.39 -13.36,-18.84l23.27 7.16zm-190.45 9.14c-13.58,3.32 -19.73,5.97 -21.77,-9.14 3.93,-5.44 16.67,-5.28 24.4,-5.18l-2.63 14.32zm119.89 -21.11l25.21 2.69 -2.19 9.28c-14.15,9.07 -20.76,3.17 -23.02,-11.97zm-35.63 14.55c-8.7,-4.15 -9.93,-4.91 -11.78,-15.8l24.8 0.21c-1.91,10.78 -3.53,12.46 -13.02,15.59zm-57.94 -3.27c-3.71,-16.42 0.14,-23.9 17.09,-19.71l3.18 7.55c3.59,7.77 2.4,8.11 -1.06,16.49 -8.89,1.16 -13.15,0.07 -19.21,-4.33zm-57.07 -23.69c-0.73,0.72 -1.76,1.22 -2.59,1.63l-5.04 2.6c-16.03,5.72 4.42,-0.45 -4.85,1.15 -0.04,0.01 -7.91,0.09 -9.36,0.17 -31.68,1.63 -93.02,42.03 -115.98,41.42 -0.77,9.28 2.6,3.79 -3.91,7.07 -13.33,-10.98 -4.8,-26.07 -18.72,-39.51 -18.93,21.94 -13.22,63.99 -30.81,72.75 -5.14,-24.24 0.61,-15.29 -5.87,-29.02 -0.19,-0.4 -0.63,-1.22 -1.03,-1.76 -20.89,35 -4.63,47.36 -24.13,56.24l2.95 -34.2c-17.28,6.26 -27.37,20.35 -36.16,37.98l-22.62 51.98c-20.53,-5.96 -26.43,-4.8 -37.79,10.68 -6.98,9.52 -16.22,27.3 -17.8,39.93 10.4,-22.71 17.85,-47.72 50.02,-48.13 -1.56,16.41 -24.21,41.08 -34.35,56.82 -83.06,128.91 -100.68,293.5 -51.72,441.75 3.01,9.13 17.54,59.07 27.19,63.5l49.53 84.29 41.94 51.81c8.11,7.59 13.17,7.25 20.83,16.57 13.85,16.82 9.15,4.77 21.76,15.94l5.45 2.54 3.12 3.97c2.61,3.4 1.33,2.04 3.95,5.22 12.76,15.51 48.24,34.75 65.27,44.14 17.98,9.91 52.57,27.11 74.24,32.01l13.69 4.8c20.21,14.46 151.62,34.2 183.68,29.3 28.21,-4.31 63.44,-10.28 90.21,-16.59 28.05,-6.62 54.46,-17.95 81.83,-25.33 0.75,-0.49 1.94,-1.87 2.42,-1.17 0.46,0.68 1.74,-0.86 2.37,-1.11l17.52 -7.2c6.19,-3.51 11.59,-7.51 18.34,-11.17 35.81,-19.43 62.3,-31.86 92.15,-60.35 30.53,-29.15 9.71,-23.02 29.15,-32.35 8.21,-3.94 12.37,-5.08 18.49,-11.01 11.01,-10.67 60.76,-80.06 67.1,-101.34 1.39,-4.64 0.49,-2.88 2.01,-5.89l3.97 -5.57c16.33,-8.6 45.59,-107.61 51.51,-134.28 11.97,-54.02 13.53,-115.62 5.99,-171.79 -7.16,-53.29 -20.69,-102.08 -41.05,-146.57 -17.46,-38.15 -27.71,-56.34 -50.51,-88.52 -7.44,-10.51 -14.81,-16.04 -17.71,-32.67 29.67,1.04 39.01,22.32 48.5,47.3 -0.18,-10.68 -11.36,-31.07 -16.79,-39.38 -11.62,-17.8 -19,-15.24 -41.66,-9.15 -4.64,-11.21 -30.53,-34.75 -39.85,-43.02l-42.63 -37.93c-14.66,-12.64 -53.03,-37.07 -69.68,-45.15 -22.84,-11.08 -51.49,-22.95 -78.13,-31.63 -23.22,-7.56 -65.27,-19.33 -88.56,-20.43 -21.39,-1 -92.26,-4.26 -108.57,-0.88 -13.5,-4.12 -67.16,2.09 -77.31,9.54z"/>
   <path class="fil0" d="M2129.55 1689.83c-3.69,-90.61 19.39,-184.15 66.26,-256.58 13.42,-20.75 31.2,-46.24 48.17,-61.45 10.15,-9.11 16.34,-17.67 26.26,-27.21 70.38,-67.68 165.16,-108.8 267.63,-114.88 247.73,-14.69 446.6,182.34 456.85,414.55 10.96,247.97 -176.14,445.48 -408.99,458.54 -244.43,13.7 -446.82,-182.62 -456.18,-412.97zm-12.55 8.02c11.27,135.64 72.2,247.19 176.3,327.58 84.24,65.07 191.02,97.69 300.95,90.21 236.25,-16.07 431.44,-224.13 413.42,-481.75 -16.6,-237.42 -219.66,-435.04 -477.82,-417.43 -232.28,15.85 -434.1,225.73 -412.85,481.39z"/>
   <path class="fil0" d="M2610.19 3132.2c-26.26,-9.81 -51.34,-68.06 -36.77,-93.92 4.34,-7.69 11.25,-18.95 16.61,-26.12 8.66,8.65 3.84,11.14 17.49,15.82 10.34,-5.62 6.71,-8.14 16.04,-13.55 3.57,3.75 15.83,22.84 17.88,26.68 13.68,25.52 -17.61,76.6 -31.25,91.09zm-11.68 -231.96c39.19,8.7 23.22,70.57 14.52,76.55 -16.48,11.3 -23.4,-14.41 -22.95,-30.07 0.45,-16.02 5.72,-31.85 8.43,-46.48zm466.44 -288.67c10.21,24.6 26.46,27.25 26.04,53.48 -19.91,-7 -40.01,-21.29 -51.64,4.78 -7.88,17.66 -8.59,38.21 -17.74,57.11 -14.06,29.03 -48.78,54.77 -90.19,61.2 3.23,-14.74 35.61,-48.28 45.8,-62.76 61.62,-87.62 2.59,-136.79 -37.5,-77.65 -41.61,61.37 14.61,148.85 -127.56,196.05 -50.21,16.66 -127.97,29.75 -185.45,27.6 -0.85,-21.04 -3.02,-36.61 -19.19,-41.75 -23.18,6.46 -17.12,22.16 -24.63,41.33 -62.35,1.23 -131.27,-11.73 -184.1,-31.14 -134.11,-49.31 -76.46,-130.64 -123.55,-197.33 -31.82,-45.06 -96.22,-14.94 -32.51,85.99 14.77,23.39 30.69,33.44 45.1,59.08 -19.77,0.67 -42.5,-10.16 -55.77,-18.98 -42.7,-28.39 -32.27,-65.25 -53.66,-101.43 -13.91,-23.52 -29.68,-11.3 -50.51,-3.49 2.6,-30.38 16.42,-32.7 24.68,-48.57 -26.03,-30.9 -29.06,-44.07 -37.14,-53.41 -32.56,6.33 -38.39,57.23 -29.66,83 12.32,36.4 39.94,45.45 52.53,72.44 -32.78,-4.62 -143.54,-53.27 -227.65,-71.32 -53.16,-11.4 -79.41,-9.09 -128.88,7.34 -37.23,12.36 -78.61,25.02 -94.92,53.03 40.65,-9.16 61.3,-41.96 116.49,-40.88 -5.19,11.79 -9.74,11.87 -19.33,19.58 -25.61,20.59 -37.73,34.91 -30.11,70.21 15.72,0.44 27.33,-4.88 41.97,-2.13 19.34,3.64 14.81,8.99 36.8,4.06 12.69,-33.14 -11.44,-64.62 26.77,-81.45 5.6,49.33 12.14,56.19 61.32,41.71 24.67,-7.26 67.18,-28.67 91.99,-10.28 -21.92,12 -54.85,6.05 -88.07,27.57 -17.24,11.17 -59.49,49.87 -18.12,68 31.11,13.64 53.24,-21.91 73.7,-39.16 86.66,-73.07 162.52,-0.33 250.03,36.36 29.26,12.27 152.85,53.2 166.54,66.83 -29.39,6.51 -64.87,14.27 -90.89,-3.44 -9.92,-6.76 -46.08,-50.1 -63.89,-36.25 -5.73,5.4 -6.59,8.46 -4.55,19.01 10.1,52.33 88.45,44.36 128.89,46.18l-13.45 38.67c19.33,-4.1 29.72,-16.47 52.67,-19.77 22.69,-3.27 40.37,4.51 62.81,3.6 34.7,-1.4 65.89,-31.26 110.97,-28.14 -4.42,13.02 -13.4,28.58 -15.89,43.22 -3.44,20.25 7.17,31.27 5.72,51.32 -2.01,28.04 -32.62,56.11 -57.48,62.58 -34.64,9.01 -72.74,-10.3 -73.27,-43.44 -0.64,-40.33 52.12,-54.32 62.02,-16 -6.12,13.27 -12.48,10.11 -16.7,24.06 23.48,42.44 61.64,-22.48 32.97,-56.32 -24.23,-28.59 -69.2,-18.97 -92.4,4.17 -25.41,25.33 -17.67,74.22 3.89,95.04 28.4,27.43 69.62,15.47 112.41,14.84 5.04,10.86 4.08,28.39 9.44,39.79 10.69,22.69 25.16,24.96 38.41,57.86 4.31,10.68 8.54,24.2 16.33,32.59 14.83,-15.98 21.31,-48.51 34.83,-64.93 8.99,-10.92 14.76,-11.46 22.07,-26.03 6,-11.94 6.76,-25.38 8.5,-39.76 44.62,-10.01 61.84,23.89 109.49,-13.4 25.32,-19.81 34.52,-66.87 12.32,-94.49 -9.7,-12.07 -21.78,-21.85 -43.24,-23.26 -83.9,-5.49 -80.44,104.89 -18.3,79.49 -2.99,-20.94 -13.05,-16.33 -18.69,-32.33 13.72,-37.56 61.97,-21.32 62.14,16.04 0.17,35.35 -36.54,52.71 -72.03,44.67 -24.85,-5.63 -55.74,-33.52 -58.42,-58.73 -1.85,-17.51 6.12,-33.24 5.4,-52.89 -0.74,-20.2 -10.78,-29.75 -15.71,-46.16 20.42,1.02 44.88,4.36 63.29,10.82 22.08,7.74 20.38,17.48 50.05,19.14 22.97,1.29 43.94,-6.27 66.95,-3.06 21.18,2.96 32.92,15.13 51.61,20.02 -1.86,-18.99 -9.11,-24.53 -11.18,-40.15 29.88,0.1 62.67,3.14 89.1,-7.42 53.15,-21.23 50.6,-88.93 0.35,-47.78 -11.74,9.62 -18,18.03 -29.87,26.31 -19.81,13.84 -72.67,17.77 -91.93,1.86 55.53,-23.4 113.5,-42.55 170.12,-65.42 56.03,-22.63 109.83,-67.54 166.78,-66.86 57.35,0.68 79.52,31 113.69,63.65 36.97,35.3 93.97,-21.53 19.98,-62.72 -27.49,-15.29 -66.76,-14.25 -87.09,-25.65 24.24,-14.36 73.26,3.5 97.12,10.3 73.71,21.01 40.03,-12.62 59.52,-40.62 42.42,16.47 3.92,77.36 32.6,82.15 10.62,1.77 19.63,-4.54 29.98,-6.08 16.28,-2.42 26.02,3.47 41.33,3.79 2.04,-24.73 -0.15,-41.96 -14.4,-57.23 -6.54,-7.02 -10.45,-10.59 -18.25,-16.55 -7.56,-5.79 -13.6,-10.35 -17.83,-17.15 52.31,-4.05 83.07,36.05 116.91,39.6 -8.49,-11.82 -5.98,-10.89 -19.9,-18.69 -9.11,-5.1 -14.95,-9.65 -23.19,-14.27 -98.44,-55.17 -202.26,-28.2 -301.04,9.66 -29.17,11.18 -80.68,34.61 -112.49,37.09 5.38,-9.43 22.18,-22.33 31.23,-32.87 42.85,-49.87 38.11,-111.83 -5.48,-125.36 -9.73,18.75 -17.28,41.14 -36.21,50.68z"/>
   <path class="fil0" d="M1957.37 783.57c-21.8,5.68 -101.72,58.43 -152.78,76.67 -111.66,39.89 -105.14,-22.2 -186.59,-8.44 -14.77,-14.67 -18.16,-40.54 -56.61,-44.41 -2.72,9.51 -8.19,25.73 -12.58,35.09 -9.34,19.9 -7.49,12.2 -6.42,36.46l-62.27 -1.87c2.85,22.95 33.37,18.93 37.17,50.25 -46.28,1.68 -178.41,14.54 -196.37,-42.42 27.83,-15.36 40.68,-5.25 58.1,-33.04 13.6,-21.7 16.81,-49.04 4.1,-74.37 -24.42,-48.7 -96.68,-38.24 -120.52,0.75 -36.3,59.37 -7.61,146.89 69.45,178.69 109.97,45.4 290.96,-6.15 388.87,-41.28 48.9,-17.56 180.13,-82.72 224.73,-120.33l8.19 -7.59c3.8,-4.04 0.01,0.79 3.53,-4.16z"/>
   <path class="fil0" d="M3714.57 884.9c-23.54,53.15 -161.38,48.5 -196.2,41.23 -1.57,-23.37 25.72,-24.4 37.42,-48.18l-63.15 2.18c0.45,-29.61 -10.47,-47.64 -18.51,-72.53 -32.86,1.7 -40.4,23.19 -56.28,42.83 -20.03,0.68 -32.56,-3.8 -52.59,3.34 -49.13,17.5 -54.11,35.44 -138,5.16 -65.86,-23.77 -123.48,-68.48 -151.44,-78.01 15.92,32.01 181.82,113.49 237.16,134 114.32,42.36 350.67,108.95 444.7,2.2 31.15,-35.37 42.06,-96.52 12.43,-141.11 -29,-43.64 -92.8,-44.43 -118.02,3.46 -18.37,34.89 -8.53,74.83 27.23,92.74 16.65,8.33 28.56,7.65 35.25,12.69z"/>
   <path class="fil0" d="M1265.14 2350.35c20.77,-52.09 127.58,-43.3 189.73,-40.69 -2.42,28.99 -27.45,23.54 -34.17,45.54 17.66,6.1 39.13,2.26 58.64,0.58 1.1,19 10.34,54.46 18.31,69.02 26.3,0.8 45.68,-24.16 53.26,-42.38 63.95,7.32 38.58,-1.42 87.46,-17.02 52.64,-16.8 131.17,20.97 175.42,45.9 15,8.45 60.48,40.52 72.77,42.27 -3.18,-2.08 -6.41,-6.3 -9.6,-9 -4.52,-3.83 -6.47,-5.16 -11.9,-9.66 -7.94,-6.58 -16.98,-12.94 -26.08,-19.38 -18.32,-12.95 -36.34,-23.03 -56.45,-34.53 -125.97,-72.01 -446.74,-182.96 -556.53,-67 -56.38,59.56 -32.54,169.47 36.19,174.11 60.09,4.06 87.61,-59.28 60.37,-104.4 -13.57,-22.47 -30.55,-23.25 -48.46,-29.04 -0.82,-0.27 -3.17,-1.08 -3.89,-1.4 -4,-1.72 -2.89,-1.15 -5.07,-2.92z"/>
   <path class="fil0" d="M3261 2411.48c17.74,-3.59 48.2,-25.88 65.28,-35.01 162.78,-87.03 161.6,-4.56 244.07,-20.01 15.88,19.33 22.02,40.1 56.92,43.48 3.75,-28.91 14.8,-35.19 16.69,-69.54 20.86,-1.29 39.53,8.05 59.03,-2.46 -7.73,-17.81 -30.82,-17.94 -35.28,-44.78 62.92,-0.58 168.79,-12.54 190.31,40.45 -13.13,12.67 -39.81,5.56 -55.26,29.22 -51.47,78.85 53.92,146.82 106.19,82.05 41.1,-50.93 26.51,-179.21 -119.05,-194.84 -52.98,-5.69 -111.28,3.46 -163.27,8.97 -44.26,4.68 -97.68,24.21 -138.02,38.35 -40.83,14.31 -84.89,36.13 -121.26,55.25 -37.27,19.58 -76.66,39.6 -106.35,68.87z"/>
   <path class="fil0" d="M2674.89 804.68c-14.19,85.35 -114.51,61.26 -99.52,-15.85 15.65,-80.48 111.57,-56.66 99.52,15.85zm-158.3 -254.3c-8.21,-21.2 14.18,-24.98 20.31,-7.77 -3.46,10.4 -8.36,12.98 -20.31,7.77zm82.2 171.4c-22.21,16.67 -37.8,24.79 -44.99,58.58 -8.52,40.08 9.77,90.96 52.71,100.29 19.65,4.26 32.46,-4.57 48.78,-1.08 30.57,6.54 33.03,51.66 61.49,34.75 -1.83,-29.67 -41.59,-35.12 -24.96,-86.83 15.51,-48.25 -0.08,-81.23 -34.8,-104.42 -25.52,-17.05 -20.32,-14.25 -38.86,-54.69 -12.82,-27.98 -27.73,-53.86 -41.35,-81.63 -32.84,-66.9 -34.32,-119.3 -52.03,-194.13 -15.65,-66.11 -26.74,-135.38 -41.16,-202.13 -14.2,35.49 8.04,285.9 8.73,349.44 0.17,15.92 -1.79,24.79 9.18,31.09 34.04,19.57 23.08,-6.8 44.98,37.95 10.9,22.27 49.89,92.39 52.28,112.81z"/>
   <path class="fil0" d="M2409.31 736.61c60.55,-11.03 80.91,109.24 15.01,120.08 -64.25,10.57 -85.94,-107.15 -15.01,-120.08zm30.49 -20.18c13.1,-32.44 69.91,-96.13 79.28,-125.72l-36.57 -12.26c-11.91,11.44 -29.2,46.08 -39.3,64.61 -8.76,16.08 -28.16,55.8 -37.68,66.61 -17.02,19.33 -36.55,5.15 -55.51,48.76 -42.75,98.31 90.4,175.42 131.17,75.09 10.76,-26.48 16.75,-13.51 22.48,-28.44 6.58,-17.15 -11.42,-18.96 -18.39,-30.61 -7,-11.69 -7.97,-22.99 -16.82,-34.04 -9.48,-11.84 -19.12,-13.68 -28.66,-24z"/>
   <path class="fil0" d="M3332.92 991.75c-39.19,-4.57 -43.53,40.98 -23.4,63.01 16.45,17.99 44.33,34.99 77.94,24.37 50.79,-16.05 49.86,-70.78 20.79,-104.44 -37.19,-43.07 -200.61,-35.08 -303.41,-140.47 -7.21,-7.39 -21.11,-19.37 -31.74,-24.84 8.15,27.04 69.1,77.45 96.46,93.81 96.21,57.5 177.27,46.89 210.74,72.77 15.35,11.87 34.91,39.97 24.23,66.86 -8.72,21.96 -45.35,22.2 -68.19,9.18 -47,-26.8 -4.27,-58.82 -3.42,-60.25z"/>
   <path class="fil0" d="M1701.74 992.58c4.64,5.54 39.87,32.54 1.09,57.38 -22.24,14.24 -53.14,15.72 -69.3,-4.13 -18.47,-22.69 2.62,-51.6 14.6,-63.93 18.36,-18.9 39.02,-20.79 70.35,-26 108.7,-18.06 198.1,-72.99 240.21,-141.95 -11.68,5.64 -48.5,36.75 -62.09,47.34 -19.1,14.9 -43.2,30.18 -68.08,41.6 -72.68,33.37 -114.73,30.95 -168.47,50.83 -26.93,9.96 -45.63,26.78 -51.6,57.91 -7.21,37.59 11.29,59.78 39.74,67.7 84.84,23.62 121.34,-93.81 53.55,-86.75z"/>
   <path class="fil0" d="M3410.73 2107.63l-4.81 -7.33c-4.69,-6.74 -10.4,-13.79 -10.86,-23.11 -2.27,-45.38 108.63,-52.54 88.23,15.01 -3.93,13.03 -10.78,19.39 -18.72,26.72 -29.86,27.57 -114.38,21.48 -206.01,72.16 -26.97,14.92 -86.93,64.6 -94.79,91.1 11.46,-4.59 40.75,-33.35 58.62,-47.05 19.51,-14.95 40.72,-28.2 66.31,-40.66 52.93,-25.8 109.98,-27.77 161.82,-49.44 26.03,-10.89 42.94,-24.7 51.87,-52.52 10.94,-34.09 -6.83,-57.07 -32.48,-67.02 -75.08,-29.11 -130.76,77 -59.18,82.14z"/>
   <path class="fil0" d="M1818.15 2325.51c-5.8,-24.64 -68.02,-75.51 -92.9,-90.42 -96.7,-57.91 -173.58,-43.1 -206.28,-71.86 -59.23,-52.1 4.07,-102.69 48.93,-70.28 42.56,30.75 -1.11,57 -1.12,57.02 65.32,3.06 34.88,-106.23 -53.23,-83.21 -55.41,14.47 -50.48,96.29 17.6,121.69 68.27,25.49 127.43,11.23 228.22,90.06l58.78 47z"/>
   <path class="fil0" d="M2563.95 520.14c9.26,-25.64 15.25,-126.44 18.42,-161.03 3.51,-38.24 18.51,-131.79 6.16,-161.16 -6.83,11.53 -34.56,132.83 -40.39,156.93 -10.42,43.09 -10.22,41.9 -1.86,85.98 3.88,20.39 8.96,63.83 17.67,79.28z"/>
   <path class="fil0" d="M3048.13 1262.2c17.41,0.2 35.85,3.23 52.44,0.94 17.03,-2.36 27.4,-8.75 44.89,-9.4 2.44,5.14 5.65,8.48 7.91,13.55 5.74,12.89 1.9,9.9 1.53,12.47l-1.54 4.15c-19.91,14.75 -91.5,-9.75 -105.23,-21.71zm-34.64 645.06l-3.97 5.57c-1.52,3.01 -0.62,1.25 -2.01,5.89 -6.34,21.28 -56.09,90.67 -67.1,101.34 -6.12,5.93 -10.28,7.07 -18.49,11.01 -19.44,9.33 1.38,3.2 -29.15,32.35 -29.85,28.49 -56.34,40.92 -92.15,60.35 -6.75,3.66 -12.15,7.66 -18.34,11.17l-17.52 7.2c-0.63,0.25 -1.91,1.79 -2.37,1.11 -0.48,-0.7 -1.67,0.68 -2.42,1.17 65.69,6.7 86.62,16.6 165.92,8.07 145.49,-15.65 173.24,-36.04 286.82,-111.56 127.18,-84.57 206.39,-126.28 373.19,-69.89 39.63,13.4 84.76,40.92 113.86,62.65 26.24,19.59 27.14,23.19 47.33,40.9 14.23,12.5 33.18,35.31 48.77,44.91 -7.04,-49.74 -89,-127.22 -119.1,-148.38l-81.37 -49.68c-24.84,-13.72 -73.18,-24.68 -105.99,-27.84 -107.58,-10.34 -202.57,19.84 -276.34,86.23 -21.19,19.07 -70.21,69.69 -90.35,78.42 8.93,-16.03 47.09,-48.91 66.63,-72.82 74.55,-91.26 184.44,-123.2 308.53,-105.81 113.85,15.96 209.14,69.04 272.08,153.4 16.15,21.64 29.79,52 48.23,75.04 2.91,3.64 5.53,5.34 7.43,8.22 -0.92,-54.82 -83.38,-149.21 -120.17,-181.88 -122.18,-108.48 -326.47,-121.69 -475.54,-55.43 -84.91,37.73 -130.96,100.14 -186.67,118.32 21.03,-21.97 79.79,-62.13 107.79,-82.23 36.31,-26.06 71.15,-51.6 119.45,-70.44 48.17,-18.78 103.4,-29.84 160.75,-30.63 96.93,-1.35 111.34,24.95 161.05,33.27 -11.58,-23.67 -94.01,-60.49 -125.33,-70.17 -89.87,-27.77 -110.41,-9.94 -176.46,-13.31 21.54,-19.96 129.26,-33.72 167.53,-36.36 65.51,-4.53 128.65,2.91 185.06,23.33 60.02,21.74 91.86,48.91 126.77,81.87 50.36,47.55 45.88,122.15 59.6,148.21 22.16,-47.83 -16.29,-128.53 -38.04,-161.78 -77.73,-118.89 -238.42,-157.02 -376.22,-151.87 -33.91,1.26 -65.49,8.29 -98.77,8.4 44.68,-24.55 170.6,-27.92 226.8,-17.58 92.16,16.96 141.6,65.73 180.46,77 -7.99,-21.12 -56.88,-54.62 -79.63,-68.1 -31.37,-18.58 -64.35,-34.33 -101.92,-47.82 -109.78,-39.4 -159.26,-28.61 -262.05,-30.08 3.5,-5.73 2.27,-6.5 16.81,-12.23 6.96,-2.75 14.99,-5.54 22.21,-7.28 16.33,-3.93 33.1,-5.41 50.6,-6.25 45.11,-2.16 61.41,8.79 99.85,15.38 -10.95,-27.6 -65.29,-52.37 -101.98,-65.78 -43.89,-16.04 -91.13,-24.03 -141.33,-27.99 8.31,-23.68 64.48,-50.41 68.35,-110.64 -31.3,7.3 -31.56,11.62 -70.58,11.42 13.45,-21.4 63.66,-44.35 71.66,-106.24 -22.68,6.58 -21.52,9.99 -50.1,9.89 6.43,-12.75 48.08,-56.61 62.2,-78.56 22.09,-34.3 22.3,-67.13 30.68,-108.32 -41.57,9.86 -38.78,61.64 -144.71,54.26 -0.06,-13.98 14.22,-32.45 18.85,-49.07 6.15,-22.09 2.48,-43.94 4.14,-67.01 -25.41,14.09 -21.91,44.99 -79.81,60.87 -77.03,21.13 -90.78,-10.95 -146.58,-53.8 -113.04,-86.79 -233.86,-121.14 -380.58,-96.36 -39.8,6.73 -74.69,17.04 -107.93,33.76 -23.34,11.74 -73.77,39.51 -89.1,54.95 9.43,5.81 44.2,-4.72 54.27,-6.95 67.95,-14.98 109.4,-15.68 179.26,8.31 43.47,14.93 117.49,58.16 148.59,89.42 7.2,7.24 8.74,11.85 15.57,19.25 5.04,5.47 12,9.42 17.24,14.82 31.2,32.23 88.49,101.46 118.15,122.54 92.51,65.74 153.54,27.78 217.13,15.72 10.15,26.96 22.85,79.35 26.72,109.48 8.41,65.47 -23.26,54.82 8.61,114.4 17.14,32.03 32.6,60.22 51.49,87.58 37.68,54.54 -37.51,60.49 -50.78,67.44 -4.07,21.61 2.97,32.77 2.47,53.41 -6.93,3.47 -12.94,6.91 -18.48,13.24 1.62,16.21 12.27,19.61 -0.29,34.85 -6.14,7.44 -15.02,13.97 -17.68,27.94 -4.83,25.4 14.02,57.22 -3.23,76.87 -11.15,12.69 -43.23,25.34 -66.94,23.04 -14.97,-1.46 -26.51,-4.65 -43.28,-2.41l-29.63 6.12c-9.88,-2.02 -6.62,2.9 -8.42,-7.81z"/>
   <path class="fil0" d="M1813.73 1302.07c0,-45.49 5.76,-115.79 41,-131.53 -2.29,22.65 -13.61,44.7 -18.56,69.05 -5.28,25.96 -8.3,49.08 -2.12,76.73 5.17,23.21 7.73,48.83 15.2,70.04 7.7,21.81 20.69,35.7 27.32,54.59 -40.19,-15.75 -62.84,-91.68 -62.84,-138.88zm424.8 762.29c-12.61,-11.17 -7.91,0.88 -21.76,-15.94 -7.66,-9.32 -12.72,-8.98 -20.83,-16.57l-41.94 -51.81 -49.53 -84.29c-3.83,12.56 2.27,3.43 -6.75,4.06 -0.21,0.01 -8.77,-2.59 -9.86,-2.97 -58.22,-20.81 -109.82,-0.81 -150.43,-18.18 -33.49,-14.32 -20.72,-36.59 -19.2,-71.15 1.84,-41.78 -26.6,-27.37 -29.07,-69.55 7.45,-7.06 6.17,-1.54 10.02,-10.69 -5.57,-11.52 -15.88,-22.09 -9.91,-38.78 4.46,-12.47 18.4,-14.08 10.29,-38.95 -12.01,-19.02 -68.25,-28.08 -38.87,-64.65 16.52,-20.56 70.76,-77.3 79.74,-96.79 4.18,-9.05 4.33,-12.94 9.3,-20.12 19.15,-27.64 11.01,-36.31 6.65,-73.48 -2.35,-20.1 1.51,-36.07 4.22,-54.84 4.01,-27.88 6.96,-22.46 16.29,-42.4 31.76,-67.89 25.66,-73.88 105.46,-55.85 39.16,8.85 66.78,8.51 101.23,-7.56 23.25,-10.85 59.74,-33.64 68.3,-51.9 -29.59,-0.6 -36.48,-1.4 -62.54,-9.92 -54.78,-17.89 -77.58,-71.1 -154.26,-65.99 -111.25,7.4 -136.02,139.65 -93.48,164.78 17.74,-24.16 -10.87,-97.57 115.37,-104.42l21.78 1.64c4.32,1.76 2.99,1.42 5.48,3.45 -54.16,11.9 -47.65,-8.14 -105.18,50.4 -34.43,35.03 -30.83,66.2 -37.36,121.03 -43.61,-29.98 -49.26,-162.12 1.37,-207.88 17.67,-15.96 37.32,-27.22 60.64,-32.94 129.46,-31.72 136.37,38.82 201.06,59.89 23.05,7.51 57.57,-0.6 70.53,-14.28 -86.49,-7.29 -55.89,-8.32 -100.52,-52.03 -59.36,-58.13 -160.59,-59.27 -232.71,-20.48 -19.41,10.44 -47.98,36.78 -60.09,54.95 -42.62,63.97 -9.63,2.21 -57.73,51.89 -42.27,43.66 -67.97,76.26 -83.52,149.08 -9.36,43.83 -8.71,95.71 5.86,136.53 7.14,20.03 16.58,31.82 24.76,52.82 8.48,21.78 20.9,30.7 27.79,48.93 -53.61,-2.51 -129.51,-52.5 -287.94,-31.82 -33.61,4.39 -103.92,21.35 -130.1,35.69 -25.51,13.97 -86.73,46.35 -96.38,67.55 31.81,-5.54 87.71,-53.85 186.09,-63.44 48.93,-4.77 186.67,8.58 218.96,31.91 -33.81,5.23 -187.91,-53.3 -355.41,18.9 -51.1,22.04 -91.74,51.53 -119.91,85.94 -24.96,30.49 -59.68,96.62 -55.72,152.28 22.42,-25.23 17.22,-92.09 95.14,-152.95 105.26,-82.21 283.34,-78.64 404.56,-34.73 32.65,11.82 60.08,21.43 90.3,35.47 47.27,21.97 37.56,17.78 79.11,44.13 -39.86,-0.45 -140.79,-74.75 -325.22,-36.85 -24.09,4.94 -51.25,12.53 -72.33,24 -5.8,3.16 -15.36,11.51 -16.38,12.04 43.39,5.99 76.75,-33.11 199.58,-9.54 80.96,15.54 177.61,57.64 236.65,105.52 22.28,18.07 40.13,34.52 62.5,52.47 10.13,8.13 22.61,14.01 33.07,23.06 28.41,24.61 34.18,28.27 68.93,46.1 11.47,5.88 30.65,14.15 37.87,22.77l-55.03 -11.27c8.7,22.1 63.84,54.96 94.42,66.47 55.02,20.71 86.61,13.66 146.64,11.26z"/>
   <path class="fil0" d="M2602.09 603.86c55.56,3.91 122.88,14.91 169.17,34.4 24.19,10.19 47.3,24.09 58.01,43.63 22.13,40.33 8.37,116.34 52.56,150.66 31.49,24.45 94.09,-14.42 -6.41,-135.3 -7.68,-9.24 -14.79,-16.89 -20.76,-27.97 36.3,2.59 83.84,36.65 93.8,61.91 7.6,19.29 7.67,39.44 18.64,58.86 18.26,32.28 30.58,15.55 53.1,6.09 -3.76,35.28 -19.19,32.41 -26.67,51.15 6.43,8.88 14.17,16.72 21.31,26.07 7.57,9.93 9.02,20.89 17.9,29.61 26.41,-8.13 45.67,-54.98 29.12,-90.05 -23.3,-49.37 -51.15,-57.21 -58.52,-72.97 65.18,6.53 224.48,111.58 372.57,70.99 32.43,-8.89 88.05,-34.06 98.05,-57.03 -15.68,3.47 -39.74,18.35 -54.4,25.73 -21.04,10.6 -38.96,16.61 -65.71,16.29 11.17,-23.46 58.51,-23.17 52.82,-92.62 -16.78,-1.59 -25.87,4.16 -42.07,2.22 -5.06,-0.61 -39.25,-13.53 -40.81,-0.42 -0.51,4.29 -4.27,-0.52 -1.19,20.87 3.35,23.26 -5.3,46.15 -24.05,58.96 -11.49,-34.93 4.38,-63.22 -63.37,-42.53 -19.77,6.04 -79.99,30.06 -97,7.83 118.13,-11.05 151.33,-72.75 109.9,-96.68 -48.08,-27.78 -61.91,77.93 -158.77,73.12 -59.39,-2.94 -122.26,-47.06 -172.32,-68.3 -56.98,-24.17 -119.85,-43.87 -175.53,-67.87 18.23,-15.51 71.96,-12.95 92.17,-1.23 18.22,10.57 39.58,49.58 72.08,40.51 12.3,-76.82 -95.45,-65.39 -132.78,-67.73 6.62,-16.71 12.03,-18.4 13.86,-41.11 -19.41,5.04 -25.26,16.47 -46.99,20.04 -47.28,7.75 -58.6,-17.4 -118.86,12.35 -27.04,13.35 -20.23,16.21 -18.85,50.52z"/>
   <path class="fil0" d="M2272.89 561.96c-59.56,3.99 -139.5,-6.89 -132.73,68.66 37.08,5.07 49.49,-27.67 70.86,-40.54 22.2,-13.37 71.92,-15.28 93.39,-0.11 -23.42,13.2 -131.56,48.99 -173.22,67.4 -94.98,41.98 -165.69,112.85 -259.7,35.58 -15.63,-12.85 -43.34,-54.98 -74.85,-38.58 -21.45,11.17 -25.52,44.54 19.22,70.08 44.78,25.56 78.28,18.56 92.79,28.51 -27.17,14.47 -71.09,-2.28 -97.59,-10.3 -54.37,-16.45 -54.55,-8.41 -62.26,42.62 -10.08,-5.1 -19.96,-15.7 -24.14,-30.93 -5.14,-18.74 1.01,-33.43 -1.29,-52.36 -20.89,-7.34 -18.88,-0.17 -36.57,2.92 -17.24,3.01 -29.61,-4.94 -44.73,0.37 -13.32,17.46 2.63,40.27 11.53,53.1 12.65,18.22 30.56,24.76 38.84,37.53 -56.69,2.05 -78.1,-32.71 -120.79,-41.72 10.23,21.68 65.89,46.53 96.78,56.1 144.3,44.72 288.46,-58.78 373.68,-70.52 -8.23,12.34 -23.02,24.9 -32.19,34.33 -12.78,13.16 -18.57,21.76 -26.11,38.43 -16.66,36.84 4.85,81.92 30.8,91.28 19.38,-43.17 23.21,-33.84 37.25,-56.35 -6.78,-19.08 -24.08,-15.41 -25.99,-50.6 21.38,6.04 30.51,25.43 50.46,-1.88 11.16,-15.28 12.15,-40.79 20.57,-59.61 15.48,-34.59 46.09,-60.98 94.07,-66.71 -4.61,13.49 -32.37,43.44 -43.17,58.73 -68.74,97.3 -13.25,128.74 18.15,103.72 19.74,-15.72 26.42,-37.61 32.34,-69.06 13.59,-72.18 13.91,-102.68 73.08,-130.37 42.48,-19.88 101.48,-25.53 149.55,-28.85 3.78,-0.27 9.16,-0.4 12.76,-0.95l11.37 -3.35 1.6 -37.2c-6.69,-13.51 -73.34,-23.27 -92.91,-21.2 -17.28,1.83 -36.75,4.15 -53.33,-0.64 -16.56,-4.79 -22.92,-14.81 -41.78,-18.68 2.06,21.81 9.14,24.71 14.26,41.15z"/>
   <path class="fil0" d="M2404.25 2157.04l-13.69 -4.8c-21.67,-4.9 -56.26,-22.1 -74.24,-32.01 -17.03,-9.39 -52.51,-28.63 -65.27,-44.14 -2.62,-3.18 -1.34,-1.82 -3.95,-5.22l-3.12 -3.97c-0.08,13.59 -12.98,10.74 -40.77,12.66 -83.86,5.79 -138.57,-4.88 -204.54,-56.36 -23.95,-18.69 -36.54,-26.21 -55.46,-48.82 -7.57,-9.03 -15.64,-18.84 -23.05,-27.85 -13.54,-16.44 -64.07,-61.2 -82.44,-75.29 -131.31,-100.69 -236.71,-121.9 -408.19,-94.47 -36.53,5.84 -50.06,11.56 -77.72,26.64 -42.65,23.26 -97.63,58.83 -121.87,86.65 -15.59,17.9 -75.09,98.49 -78.84,131.01 8.37,-4.54 21.71,-42.81 46.81,-66.74l57.75 -59.87c88.79,-83.72 244.11,-109.86 364.2,-78.21 24.39,6.43 65,20.53 86.74,30.96l72.02 45.7c22.48,15.88 45.15,37.17 61.66,56.03 9.44,10.79 22.43,16.8 30.91,27.93 31.04,40.67 27,27.05 59.78,57.86 10.95,10.29 16.04,20.35 27.72,31.1 50.49,46.48 79.16,62.68 142.1,93.29 47.71,23.2 147.44,29.41 204.01,19.71 30.74,-5.27 70.52,-20.78 99.45,-21.79z"/>
   <path class="fil0" d="M2267.87 1455.12c53.36,-3.18 -17.95,-88.46 88.14,-94.41 31.68,-1.78 154.35,-3.11 173.6,10.89 -8.27,9.96 -17.6,13.28 -27.78,22.67 -32.63,30.11 -36.55,76.2 -38.49,121.63 -41.17,-9.09 -30.46,-10.79 -30.06,-80.12 0.22,-39.68 8,-58.01 -11.53,-57.43l-0.53 124.29c-10.33,15.73 -51.1,13.69 -61.49,45.3 24.01,-0.37 30.06,-11.08 59.02,-3.33 6.1,20.26 3.1,91.6 2.79,118.48l-0.99 91.09c-0.28,16.92 -3.47,18.89 11.03,21.11 6.07,-18.24 0.71,-182.59 2.01,-219.27 17.85,7.21 24.15,20.43 28.89,43.53 4.39,21.42 4.61,46.41 4.81,68.88 0.37,41.18 6.63,103.16 -13.24,135.34 -26.23,42.46 -71.27,-6.75 -111.31,-5.06 -29.47,1.24 -90.47,39.03 -83.4,62.54 23.07,-5.06 6.56,-33.11 49.56,-22.45 39.32,9.74 73.33,55.53 154.14,-25.98 30.28,-30.55 42.4,-51.4 47.32,-102.02 4.79,-49.3 0.34,-99.48 1.45,-148.99 23.15,-2.71 49.53,-1.61 69.37,4.59l4.87 21.41c6.19,-7.87 25.48,-54.11 27.46,-66.5l-100.73 -1.4c-3.97,-21.22 0.71,-100.11 11.21,-122.14 6.67,-13.99 13.75,-14.84 20.9,-26.5 41.62,0 87.48,12.79 127.32,6.33 29.97,-4.85 73.23,-27.77 81.66,-53.57 -26.98,10.8 -25.53,17.39 -63.4,18.06 -58.86,1.05 -167.56,-16.7 -232.3,-21.83 -62.19,-4.92 -93.52,-0.58 -133.61,30.46 -17.32,13.41 -83.92,65.31 -56.69,104.4z"/>
   <path class="fil0" d="M2650.44 1818.26c29.45,6.27 72.64,34.98 84.57,54.27 22.4,36.22 2.28,81.25 -16.59,104.71 -6.99,8.68 -26.09,24.36 -44.32,25.31 -25.21,1.33 -24.39,-23.35 -24.12,-45.3 0.56,-45.65 -1.81,-93.77 0.46,-138.99zm-0.79 -67.61c-55.32,-7.31 -113.15,-73.84 -39.92,-129.69 11.16,4.15 19.29,12.06 29.88,18.03 9.87,5.56 22.11,10.13 33.45,12.68 -2.97,16.7 -9.61,33.22 -13.84,49.66 -4.16,16.1 -6.47,32.33 -9.57,49.32zm61.95 -140.8c3.02,-15.47 17.11,-27.34 27.84,-34.12 49.15,-31.02 62.03,13.54 24.4,29.74 -15.84,6.82 -34.48,6.12 -52.24,4.38zm-50.6 -35.28c-9.95,2.79 -200.76,114.05 -100.29,196.81 21.58,17.78 51.77,26.16 78.96,41.46l1.38 29.4c-27.86,-1.18 -34.16,-1.7 -48.18,14.79 -6.53,7.68 -19.8,27.42 -18.81,40.07 15.36,-15.04 43.32,-27.15 59.01,-0.19 11.88,20.42 8.18,54.11 7.84,79.89 -33.92,-7.14 -54.72,-29.73 -95.89,-15.2 -15.84,5.59 -66.53,33.57 -55.28,59.81 16.7,-5.67 2.6,-22.96 24.74,-29.05 23.91,-6.57 66.01,13.92 84.85,26.52 17.29,11.58 11.68,17.33 41.47,14.16 -0.2,13.96 -5.94,38.33 7.23,44.29 10.54,-19.7 -10.33,-43.31 15.04,-56.51 17.39,-9.05 30.44,-14.9 46.71,-25.51 62.8,-40.94 120.56,-115.49 56.97,-178.59 -26.69,-26.49 -56.41,-35.33 -92.98,-54.06 -18.64,-9.55 -15.15,-22.03 -8.78,-55.41 3,-15.75 9.04,-46.17 20.29,-52.01 11.54,-5.99 20.76,1.86 54.55,-17.65 16.03,-9.26 78.92,-58.05 58.39,-79.5 -19.19,-20.06 -60.72,9.69 -76.65,23.83 -5.01,4.45 -15.06,17.8 -17.96,19.48 -15.28,8.86 -35.56,-20.24 -42.61,-26.83z"/>
   <path class="fil0" d="M1184.33 2018.04c12.97,-5.52 55.7,-46.95 79.92,-64.19 87.28,-62.16 235.42,-99.06 343.17,-74.41 66.68,15.25 131.59,67.16 177.62,111.33 43.87,42.1 123.96,102.43 181.73,109.45 -6.97,-15.45 -30.57,-25.56 -44.5,-35.4 -67.87,-47.95 -135.42,-133.03 -203.94,-191.87 -23.79,-20.43 -74.6,-40.13 -112.25,-48.17 -92.02,-19.65 -187.94,-1.95 -265.11,31.91 -55.5,24.36 -153.05,104.5 -156.64,161.35z"/>
   <path class="fil0" d="M2524.35 1153.16c16.31,-3.38 87.18,-0.12 108.57,0.88 23.29,1.1 65.34,12.87 88.56,20.43 26.64,8.68 55.29,20.55 78.13,31.63 16.65,8.08 55.02,32.51 69.68,45.15 -14.59,-37.19 -131.91,-137.55 -170.62,-152.7 -7.37,-2.89 -12.11,-3.04 -19.62,-7.07 -17.34,-9.3 -10.03,-12.94 -54.3,-25.92 -65.36,-19.18 -116.97,-23.75 -185.31,-6.47 -35.57,8.99 -49.54,13.41 -74.71,32.32 -13.31,10 -44.36,38.85 -49.27,57.93 35.95,-3.8 66.4,-17.55 104.78,-18.23 24,-0.43 94.46,2.92 104.11,22.05z"/>
   <path class="fil0" d="M1939.23 1056.89c36.56,-7.35 134.96,-71.84 197,-34.97 -12.47,5.38 -36.92,4.02 -43.7,18.76 63.49,13.61 62.7,4.34 96.22,49.01 18.24,24.31 61.77,48.02 109.99,37.27 4.91,-36.79 -31.07,-60.8 -35.77,-77.78 15.46,5.31 21.98,8.21 32.89,18.99 21.88,21.62 12,23.9 26.63,31.21 3.88,-17.95 -5.78,-41.8 -12.44,-58.77 -18.93,-48.23 -96.18,-76.41 -154.45,-78.82 -46.01,-1.9 -93.55,7.67 -129.68,26.02 -27.24,13.85 -77.55,43.14 -86.69,69.08z"/>
   <path class="fil0" d="M2214.19 2319.96c17.18,30.97 18.96,-1.14 18.4,89.34 -0.14,23.15 -15.97,59.65 16.56,79.95 13.85,-4.95 18.85,-12.01 25.63,-21.98 -15.81,-34.34 -13.07,4.3 -15.69,-68.79 -0.96,-26.67 -3.22,-55.75 14.13,-72.23 39.36,3.07 27.12,92.05 23.67,125.9 -2.25,22.09 8.54,22.57 15.74,37.98 16.26,-3.78 22.52,-12.52 30.16,-22.12 -9.86,-27.22 -14.94,7.51 -14.96,-72.2 0,-27.06 -3.24,-56.6 14.92,-72.09 33.01,2.83 29.16,51.07 27.55,82.82 -2.61,51.49 -12.52,52.94 22.88,82.52 18.1,-1.87 25.22,-13.42 34.07,-21.81 -8.29,-6.99 -28.4,-1.33 -30.24,-60.85 -0.92,-29.59 3.65,-58.7 3.65,-87.33 -7.5,-5.7 -8.6,-5.48 -15.13,-11.48 -6.54,-6 -7.03,-6.82 -16.03,-11.63 -19.11,7.1 -25.36,20.15 -37.45,30.38 -13.15,-7.89 -13.76,-21.75 -32.09,-29.5 -15.15,7.84 -24.02,23.39 -37.44,28.71 -4.46,-5.05 -11.67,-21.17 -16.43,-27.79 -14.67,5.17 -21.96,13.6 -31.9,22.2z"/>
   <path class="fil0" d="M2723.09 2363.09c31.1,3.98 66.12,33.72 54.55,71.68 -9.89,32.47 -54.57,65.74 -54.58,1.15l0 -56.16 0.03 -16.67zm-0.02 -42.01c-47.89,-10.25 -58.1,-49.76 -23.99,-77.07l36.68 18.57 -12.69 58.5zm38.21 -84.48c0.61,-18.5 19.71,-26.63 41.63,-25.01 1.53,24.8 -19.29,27.5 -41.63,25.01zm-29.56 -20.74c-24.26,5.52 -68.74,48.4 -77.35,69.06 -16.67,39.98 33.07,63.23 62.85,73.21l0 16.29c-24.87,9.45 -33.49,3.08 -39.72,32.92 13.1,-5.1 26.41,-14.1 36.01,2.77 6.3,11.06 5.03,33.12 2.89,46.42 -18.38,-5.21 -33.36,-15.75 -56.37,-8.3 -13.2,4.27 -42.16,20.06 -31.12,34.67 5,-6.77 4.85,-13.88 14.45,-16.42 8.18,-2.16 20.56,1.96 27.75,4.8 22.02,8.69 22.62,18.9 45.41,21.37l2.42 23.51c7.28,-9.08 4.02,-15.59 5.15,-27.86 34.3,-19.77 76.08,-39.62 84.01,-79.34 11.4,-57.15 -46.91,-61.76 -77.83,-85.35 -2.1,-21.66 0.68,-54.95 21.39,-61.88 90.54,-30.29 69.14,-82.74 24.6,-50.2 -21.63,15.79 -23.75,32.93 -44.54,4.33z"/>
   <path class="fil0" d="M2989.96 2318.5l15.53 8.46c5.08,39.1 5.69,98.97 -7.9,132.83 -13.01,1 -21.31,-2.64 -29.25,-10.27 -10.17,-9.76 -8.43,-19.16 -8.42,-34.99 0.01,-20.07 -1.19,-50.36 1.14,-69.27 6.03,-48.97 -30.23,-67.96 -46.98,-24.33l2.99 2.96c8.44,7.3 14.18,7.42 15.03,29.37 0.48,12.52 2.29,42.36 1.05,53.25l-5.09 53.59c3.83,7.43 23.33,28.6 40.02,26.41 15.48,-2.04 26.81,-23.27 40.8,-28.89 41.18,128 -91.71,104.19 -85.8,51.25 -17.85,10.42 -27.34,53.05 4.32,61.68 47.83,13.02 104.88,-42.03 113.83,-75.27 7.07,-26.28 -6.82,-55.87 -6.82,-86.1l0 -58.83c0,-40.66 20.93,-19.14 30.85,-48.87 -36.8,6.83 -23.77,-3.97 -43.89,-6.62 -13.88,-1.83 -27.13,14.5 -31.41,23.64z"/>
   <path class="fil0" d="M2126.13 2463.35l-20.61 -18.86 2.63 -63.93 35.34 -9.44c2.1,19.31 1.59,36.1 1.37,54.18 -0.26,21.78 0.02,30.42 -18.73,38.05zm-43.53 -108.91c5.77,-5.29 10.3,-23.54 13.56,-31.48 16.21,-0.3 49.87,13.59 47.29,42.01l-67.89 16.78c0.87,45.75 1.14,30.04 -4.72,78.34 17.28,15.26 16.15,6.4 28.47,31.75 20.74,-8.3 28.91,-25.09 45.54,-35.11 11.05,5.61 15.98,20.08 26.74,29.22 9.66,-2.98 18.84,-12.27 29.23,-17.59 -13.64,-30.17 -27.58,-16.03 -27.25,-67.2 0.21,-33.37 -1.2,-44.46 6.48,-75.11 -10.95,-4.04 -20.39,-10.81 -31.29,-17.05 -21.75,-12.46 -22.31,-22.44 -61.24,16.05 -9.59,9.48 -16.88,19.5 -4.92,29.39z"/>
   <path class="fil0" d="M3076.05 2230.37c14.19,14.18 14.47,-4.19 14.51,47.77l0.24 128.37c0.04,9.61 0.86,22.56 -0.07,31.76 -0.97,9.66 -4.91,16.29 -6.49,26.77 30.08,27.35 10.32,11.22 28.73,32.34 13.76,-2.38 26.14,-15.63 35.07,-24.02 -11.81,-13.78 -26.29,-6.22 -26.18,-53.4 0.06,-27.39 -4.73,-185.71 5.84,-199.42 9.26,-12 18.29,-2.58 24.62,2.79 9.72,-6.14 13.38,-8.27 9.89,-20.78 -18.17,-5.5 -30.24,3.86 -43.61,11.66 -17.02,9.92 -24.48,9.79 -42.55,16.16z"/>
   <path class="fil0" d="M2444.24 2331.63c8.41,43 2.84,84.33 -2.88,125.98 11.79,5.85 10.47,8.27 20,17.49l20.46 17.21c10.93,-6.94 19.77,-13.47 30.28,-20.75 9.67,-6.69 27.64,-13.43 21.59,-28.65 -11.57,-0.54 -8.33,6.75 -17.1,20.02 -15.55,0.78 -26.46,-7.33 -33.07,-15.36 -10.74,-13.04 -5.58,-66.02 -5.77,-94.58 -0.13,-19.73 -3.43,-30.83 12.09,-38.08 8.86,3.05 2.11,-1.9 8.39,5.66 2.34,2.82 3.97,7.34 5.08,10.98 13.37,44.11 -20.18,50.86 -20.29,65.65 20.1,-9.99 60.4,-48.02 49.49,-86.9 -7.87,-28.07 -21.42,-19.82 -40.11,-5.55 -15.27,11.67 -35.64,17.55 -48.16,26.88z"/>
   <path class="fil0" d="M3170.35 2328.9c3.27,37.08 6.76,63.75 1.41,101.76 -3.68,26.17 -9.18,19.68 6.59,36.11 8.47,8.83 18.74,19.75 30.9,25.25 12.07,-5.77 20.51,-12.85 30.39,-20.36 7.49,-5.7 28.13,-16.2 17.75,-29.08 -10.37,2.85 -6.3,11.35 -16.05,20.2 -16.87,1.93 -25.06,-7.26 -31.83,-16.44 -10.19,-13.81 -7.01,-22.13 -6.48,-39.8 0.68,-23.1 -6.58,-78.83 11.57,-92 14.59,5.03 19.47,24.09 16.84,43.92 -3.98,30.13 -17.32,16.97 -23,38.71 13.15,-3.58 34.46,-29.31 43.26,-41.79 15.1,-21.4 9.12,-45.31 -2.59,-63.42 -21.83,-1 -47.26,29.9 -78.76,36.94z"/>
   <path class="fil0" d="M2810.03 2312.8l26.79 -0.13c10.79,30.8 1.03,117.68 -2.6,150.82 28.79,19.54 20.98,51.45 64.7,10.68 -6.81,-12.64 -16.51,-10.85 -24.19,-24.7 -11.99,-21.63 -6.04,-111.24 -4.89,-136.8 22.45,-11.12 19.15,-9.14 35.42,-25.89 -29.6,-3.33 -33.02,7.05 -33.59,-24.47 -11.12,1.64 -24.46,14.29 -35.53,19.81 -13.39,6.68 -23.5,15.64 -26.11,30.68z"/>
   <path class="fil0" d="M2309.22 1209.67c22.96,0.61 84.3,-39.79 115.98,-41.42 1.45,-0.08 9.32,-0.16 9.36,-0.17 9.27,-1.6 -11.18,4.57 4.85,-1.15l5.04 -2.6c0.83,-0.41 1.86,-0.91 2.59,-1.63 -49.31,5.73 -83.25,-16.59 -136.41,0.62l-1.41 46.35z"/>
   <path class="fil0" d="M1863.67 2294.74c36.63,-7.48 -10.86,-47.99 51.21,-53.85 11.29,-1.07 76.08,0.1 89.96,3.54 10.53,2.6 4.26,0.12 8.79,4.81 -11.51,11.34 -19.99,10.11 -27.48,30.58 -6.3,17.21 -6.23,31.12 -9.64,48.62l-16.2 -4.74 -2.67 -72.39c-11.74,7.79 -4.4,54.58 -4.31,69.62 -9.28,11.73 -23.2,6.63 -33.92,26.91l30.25 -2.34c1.49,3.77 1.43,2.88 2.38,7.82 3.46,18.05 -2.97,111.07 2.93,124.81 8.29,-3.75 5.22,-15.08 5.11,-26.12 -0.11,-10.7 -0.02,-21.43 -0.01,-32.13 0.02,-20.42 -1.37,-46.38 0.77,-66.09 24.51,11.21 24.51,105.98 13.08,135.84 -10.35,27.03 -38.47,4.5 -59.19,1.95 -24.91,-3.07 -48.64,15.82 -54.05,34.01 10.34,-6.4 14.18,-16.04 31.24,-10.85 15.16,4.6 45.94,30.49 87.25,-17.14 37.68,-43.46 21.87,-78.49 26.58,-142.17 42.38,-1.79 29.74,2.04 45.44,11.76l12.15 -33.67 -57.72 -2.01c-1.06,-20.16 -1.92,-77.29 21.56,-84.32 42.54,2.83 100.96,11.54 114.87,-25.79 -85.65,21.17 -85.59,0.44 -165.86,-4.43 -31.14,-1.89 -55.14,1.56 -76.36,16.72 -7.82,5.59 -19.74,16.02 -25.53,22.66 -10.38,11.89 -12.27,19.84 -10.63,38.39z"/>
   <path class="fil0" d="M2504.11 1186.39c6.06,4.4 10.32,5.49 19.21,4.33 3.46,-8.38 4.65,-8.72 1.06,-16.49l-3.18 -7.55c-16.95,-4.19 -20.8,3.29 -17.09,19.71z"/>
  </g>
 </g>
</svg>
