<?xml version="1.0" encoding="UTF-8"?>
<!DOCTYPE svg PUBLIC "-//W3C//DTD SVG 1.1//EN" "http://www.w3.org/Graphics/SVG/1.1/DTD/svg11.dtd">
<!-- Creator: CorelDRAW 2017 -->
<svg xmlns="http://www.w3.org/2000/svg" xml:space="preserve" width="100mm" height="100mm" version="1.1" style="shape-rendering:geometricPrecision; text-rendering:geometricPrecision; image-rendering:optimizeQuality; fill-rule:evenodd; clip-rule:evenodd"
viewBox="0 0 10000 10000"
 xmlns:xlink="http://www.w3.org/1999/xlink">
 <defs>
  <style type="text/css">
   <![CDATA[
    .fil0 {fill:none}
    .fil1 {fill:#0096DB}
   ]]>
  </style>
 </defs>
 <g id="Capa_x0020_1">
  <metadata id="CorelCorpID_0Corel-Layer"/>
  <rect class="fil0" width="10000" height="10000"/>
  <g id="_1212857734544">
   <path class="fil1" d="M7227.56 6311.52l-0.75 1418.63 -30.74 3.88 -5431.34 -3.88 5.91 -5457.79 3481.87 -3.48c478.24,-53.23 797.68,-606.91 483.41,-1063.23 -281.02,-408.02 -926.6,-293.28 -1531.79,-293.28 -608.12,0 -1216.24,0 -1824.36,0 -622.94,0 -1106.76,-30.29 -1495.16,329.54 -404.33,374.58 -478.42,621.05 -478.37,1350.47l0 3651.56c0,448.94 -49.67,1409.28 35.7,1794.31 102.98,464.46 451.43,817.25 855.05,968.12 373.17,139.5 1284.49,86.07 1739.55,86.07 1216.24,0 2432.48,0 3648.71,0 655.75,0 1064.21,17.35 1459.64,-364.97 411.3,-397.68 440.92,-664.5 440.92,-1388.07 -0.01,-603.84 114.82,-1258.36 -294.89,-1534.15 -459.39,-309.22 -1026.28,8.57 -1063.36,506.27z"/>
   <path class="fil1" d="M4836.57 4707.2c-240.21,-166.51 -515.54,-632.63 -867.94,-709.25 -465.85,-101.29 -860.55,266.3 -833.04,711.99 21.62,350.37 394.72,633.14 670.69,909.64 382.74,383.49 874.35,1060.18 1459.5,591.69 181.53,-145.35 2552.36,-2539.79 2780.87,-2767.66 277.84,-277.07 1432.01,-1353.73 1525.8,-1636.65 211.82,-638.96 -563.11,-1245.54 -1165.71,-656.38 -276,269.84 -3439.41,3466.99 -3570.17,3556.62z"/>
   <path class="fil1" d="M7227.56 6311.52l-29.21 150.53c-0.3,56.5 1.32,114.53 1.35,171.39l0 1069.91c-1802.45,0 -3604.9,0 -5407.35,0l0 -5398.25 3407.03 -8.08c43.26,-12.4 31,-12.26 53.13,-28.14l-3481.87 3.48 -5.91 5457.79 5431.34 3.88 30.74 -3.88 0.75 -1418.63z"/>
  </g>
 </g>
</svg>
