<?xml version="1.0" encoding="UTF-8"?>
<!DOCTYPE svg PUBLIC "-//W3C//DTD SVG 1.1//EN" "http://www.w3.org/Graphics/SVG/1.1/DTD/svg11.dtd">
<!-- Creator: CorelDRAW 2017 -->
<svg xmlns="http://www.w3.org/2000/svg" xml:space="preserve" width="20mm" height="20mm" version="1.1" style="shape-rendering:geometricPrecision; text-rendering:geometricPrecision; image-rendering:optimizeQuality; fill-rule:evenodd; clip-rule:evenodd"
viewBox="0 0 2000 2000"
 xmlns:xlink="http://www.w3.org/1999/xlink">
 <defs>
  <style type="text/css">
   <![CDATA[
    .fil0 {fill:none}
    .fil5 {fill:#0B1538}
    .fil16 {fill:#201E1E}
    .fil2 {fill:#451C04}
    .fil12 {fill:#4C2D54}
    .fil13 {fill:#656665}
    .fil14 {fill:#673816}
    .fil6 {fill:#88520F}
    .fil10 {fill:#976937}
    .fil3 {fill:#A28A59}
    .fil1 {fill:#B3B3B3}
    .fil8 {fill:#D38E34}
    .fil9 {fill:#D8A659}
    .fil11 {fill:#E6BA86}
    .fil4 {fill:#F7A939}
    .fil7 {fill:#F8DAA7}
    .fil15 {fill:#FAFEFE}
   ]]>
  </style>
 </defs>
 <g id="Capa_x0020_1">
  <metadata id="CorelCorpID_0Corel-Layer"/>
  <rect class="fil0" width="2000" height="2000"/>
  <g id="_1219682082224">
   <rect class="fil0" y="73.43" width="2000" height="1824.6"/>
   <path class="fil1" d="M789.66 1912.26c-6.08,-7.59 -18.74,-14.89 -27.73,-23.75 -4.86,-4.79 -7.7,-7.56 -12.41,-12.29 -6.26,-6.3 -9.24,-6.52 -17.29,-11 -55.87,-0.64 -204.99,-51.8 -254.18,-71.85 -178.25,-72.65 -398.02,-228.92 -355.47,-451.41 4.44,-23.23 10.81,-41.69 19.49,-62.55 5.95,-14.3 25.59,-47.32 26.61,-54.45 -59.71,83.66 -97.9,164.28 -65.42,278.33 26.1,91.64 96.19,165.68 155.25,210.22 148.7,112.16 309.05,161.82 531.15,198.75z"/>
   <path class="fil2" d="M1125.48 1468.36c-25.3,-9.66 -50.61,2.41 -73.6,6.37 -29.34,8.86 -68.61,25.4 -101.82,27.53l-20.22 5.09c32.08,5.91 41.53,-1.04 70.82,-4.47l69.89 -22.37 -25.4 24.68c-7.76,9.1 -3.83,6.41 1.54,7.56 11.74,-8.29 4.02,0.57 17.27,-13.9 3.52,1.62 13.3,6.83 18.17,11.56 6.68,6.48 9.75,14.13 16,20.43 -4.79,-16.28 -10.88,-19.6 -16.14,-31.17 17.76,0.41 15.11,-1.62 25.66,15.51 0.34,0.55 0.77,1.26 1.1,1.79 3.22,5.07 1.11,2.14 3.58,5.21 -0.79,-14.21 -2.19,-11.1 -5.58,-22.06 13.95,1.04 22.16,8.58 26.29,18.93 0.64,0.75 1.64,0.76 1.98,2.19 0.32,1.33 1.36,1.56 1.76,2.1 0.41,0.54 2.16,2.97 2.62,3.76 21.38,-0.72 31.65,-4.37 37.28,-22.92 6.32,-20.81 -1.16,-34.96 -7.23,-50.39 -7.1,-10.71 -4.98,-8.26 -20.65,-10.52 4.61,25.48 17.37,32.51 14.52,62.62 -12.25,-7 -8,-12.79 -16.55,-21.71 -8.41,-8.79 -13.69,-5.94 -21.29,-15.82z"/>
   <path class="fil2" d="M1325.7 1091.77l-1.62 7.59c15.76,4.53 40.95,16.66 54.07,25.82 19.3,6.74 5.23,1.99 10.58,-1.88l-1.28 -16.48c-6.88,-15.74 -4.87,-16.43 -23.56,-18.27 -13.89,-1.36 -26.72,1.03 -38.19,3.22z"/>
   <path class="fil2" d="M966.52 1311.14c8.77,5.82 8.67,1.69 10.18,12.05 -11.38,-0.91 -10.79,-5.29 -22.34,-3.34 1.28,4.31 0.23,1.34 3.03,4.8l4.41 4.75 -12.82 7.11c9,12.41 35.51,-7.34 44.17,-18.1 -7.78,-8.12 -14.03,-8.56 -26.63,-7.27z"/>
   <path class="fil2" d="M858.47 1191.34l7.89 -4.16c9.89,-4.58 4.99,0.4 8.02,-6.76l-10.09 0.12c0.8,-11.6 7.82,-12.27 -2.23,-11.74 -4.88,2.61 -0.44,-0.55 -2.99,3.41 -11.37,17.62 -11.48,12.54 -10.33,29.68l9.73 -10.55z"/>
   <path class="fil3" d="M624.85 1064.6c5.84,6.6 13.72,10.94 14.6,20.35 1.17,12.52 -6.39,12.57 1.61,31.09 7.12,16.51 16.64,34.04 23.13,52.35 -8.19,-8.12 -13.81,-16.41 -21.17,-29.32 -22.62,-39.69 -9.28,-10.04 -22.14,-30.65l13.72 34.85c-0.02,0.1 -5.32,-6.88 0.39,3.86 1.97,3.7 3.33,5.11 5.37,8.19 3.01,4.59 2.49,4.18 5.76,8.41l30.39 40.88c9.4,9.11 7.34,9.23 13.96,10.11 11.33,1.5 0.39,-1.17 14.41,6.8 -16.29,-25.6 -52.86,-76.3 -53.73,-101.3 19.84,-2.21 14.7,0.13 36.56,37.45 9.12,15.56 19.06,39.29 32.33,45.61 -16.1,-33.62 -40.57,-51.59 -45.31,-77.22 11.72,4.22 11.76,6.91 16.94,16.63 11.07,20.77 13.9,30.27 29.24,47.56 8.88,10.01 3.17,-1.04 7.37,11.44 16.25,-21.72 16.21,-36.78 30.2,-48.16 -20.97,-5.37 -13.01,-10.6 -27.73,-28.04 -11.87,-14.08 -11.53,-22.11 -31.53,-28.05l2.97 3.63c0.43,0.47 1.03,1.15 1.51,1.65 10.29,10.71 24.29,24.31 23.15,41.54l-14.6 -19.31c-5.05,-4.61 -1.17,-2.05 -8.8,-5.97 3.64,13.24 9.65,19.24 13.07,30.36 1.23,-5.75 2.4,-0.11 -3.38,-8.36 -2.08,-2.97 -3.82,-4.73 -6.34,-7.85 -6.25,-7.74 -8.18,-11.2 -15.88,-15.31l14.5 25.01c-23.36,-10.3 -6.84,-26.51 -44.27,-36.38 0.73,-0.31 1.8,-0.42 2.32,-0.56l7.54 -2.35c2.36,-1.16 1,-4.17 17.24,-7.13 -9.61,-6.58 -21.5,-5.91 -34.27,-14.88 -12.3,-8.64 -16.57,-15.31 -25.78,-22.97l-3.35 6.04z"/>
   <path class="fil3" d="M569.01 1118.97l2.04 7.05 7.03 -6.33c0.1,-0.11 4,-6.46 -0.36,-0.28 6.15,4.38 7.15,6.23 12.69,12.27 6.09,6.63 10.37,7.79 7.01,9.09 -0.74,0.65 -1.95,0.37 -2.44,1.67 -2.66,6.99 -0.94,0.79 -4.61,3.01 -5.12,3.08 -2.05,-0.27 -7.42,4.09 25.69,-0.14 43.09,22.36 53.04,40.31 3.11,5.61 4.84,10.34 9.52,15.5 11.85,13.04 21.62,19.63 20.6,47.1 0.61,0.5 1.45,1.23 1.81,1.51 0.32,0.26 1.3,1.09 1.64,1.35 0.28,0.22 1.15,0.87 1.39,1.07 0.35,0.26 1.39,0.94 2.09,1.39 6.3,-1.82 10.74,-3.73 19.07,-4.63l-144.9 -199.51c-15.39,-19.47 -65.05,-77.2 -90.58,-45.75 7.66,30.56 87.05,63.27 110.39,89.17 1.01,1.11 5.48,7.14 5.88,8.58 5.52,19.82 -0.21,10.34 -3.89,13.34z"/>
   <path class="fil4" d="M753.36 1530.48l0.7 23.18c31.07,14 60.61,37.08 99.15,55.78 0.58,0.28 1.27,0.64 1.84,0.92 14.43,7.28 44.86,22.57 57.55,22.4 3.68,-14.1 -3.1,-15.56 -12.94,-19.06 -43.53,-15.5 -69.48,-30.9 -108.56,-53.45 -6.67,-3.84 -12.91,-7.85 -20.55,-12.36 -15.83,-9.35 -13.11,-5.79 -18.33,-15.14 11.87,-8.05 17.43,0.65 33.23,10.18 17.25,10.42 130.27,82.93 146.68,65.44 5,-5.33 5.15,-12.32 2.01,-20.02 -3.18,-7.79 -40.41,-22.35 -42.3,-22.64 5.27,7.01 3.49,4.78 12.05,6.92 -18.72,1.33 -6.81,-1.12 -11.62,4.09 9.49,2 6.53,2.26 14.72,6.43 10.89,5.53 10.55,5.2 15.46,12.79 -35.31,-5.29 -66.91,-28.74 -91.44,-42.64l-62.06 -36.81c-1.34,-0.76 -9.76,-5.8 -10.18,-6.27 -5.87,-6.48 -3.76,-2.58 -6.55,-13.18 12.35,1.72 10.97,1.19 19.99,7.23 0.17,0.11 8.13,5.62 11.31,7.52 14.93,8.93 61.02,40.06 74.38,42.96 -5.68,-6.77 -20.83,-13.47 -30.16,-16.07 2.56,-1.29 0.06,-3.52 15.85,-0.56l-56.29 -34.68c-33.37,-20.77 -27.56,-11.92 -32.33,-28.39 12.17,1.67 9.23,0.59 18.45,6.09 37.74,22.53 75.74,50.21 121.55,72.68 21.48,10.54 35.87,24.32 52.81,21.22 -13.76,-7.27 -37.45,-17.36 -53.71,-24.34 -18.76,-8.07 -32.45,-17.86 -49,-27.75l-82.73 -51.88c-10.09,-8.88 -4.83,2.14 -7.37,-15.25 15.02,3.96 52.75,28.59 55.17,32.97 -4.67,1.89 1.71,1.72 -3.56,-0.22l-28.4 -20.37c-7.89,-6.3 -18.09,-14.27 -20.47,-21l-6.68 -2.99c6.47,27.61 -3.23,58.73 2.33,86.27z"/>
   <path class="fil4" d="M943.32 1436.86c8.02,4.57 25.08,22.23 25,35.42 -0.12,18.59 -16.44,24.56 -32.3,29.74l14.04 0.24c33.21,-2.13 72.48,-18.67 101.82,-27.53 3.71,-7.3 -9.67,-8.69 -28.77,-17.94 -32.93,-15.96 -22.32,-5.96 -47.15,-24.25 -5.77,-4.26 -8.62,-5.29 -15.48,-9.18 -11.77,-6.69 -19.34,-12.83 -31.42,-19.07 10.38,6.89 30.43,21.91 35.4,33.33l-78.7 -55.12c-10.74,-7.16 -17.8,-11.94 -28.22,-18.41 -16.49,-10.22 -95.44,-57.83 -103.01,-78.51l-7.02 7.99c6.1,17.43 73.49,59.82 95.19,74.53 24.18,16.4 89.87,51.74 100.62,68.76z"/>
   <path class="fil4" d="M782.75 1821.57c6.56,9.75 27.77,21.08 43.6,23.31 7.3,-10.26 15.74,-36.43 20.92,-48.8 7.14,-17.09 14.28,-31.74 20.77,-48.57l-11.55 0.27c-6.6,12.77 1.37,9.04 -13.17,13.76 -0.83,0.27 -3.32,0.98 -4.18,1.22l-16.68 2.62c3.44,11.65 1.69,6.38 0.02,12.11l-7.56 32.94c-1.48,0.03 -10.14,-0.07 -10.68,0.03 -17.22,3.09 -1.83,10.35 -21.49,11.11z"/>
   <path class="fil4" d="M748.28 1584.33c12.22,-0.29 10.61,0.81 19.26,6.61 14.3,9.58 78.9,46.94 95.53,53.14 21.31,7.94 -4.35,-1.03 9.96,0.05 35.08,3.94 32.43,-4.14 35.69,-8.88 -30.29,-0.35 -63.98,-17.84 -87.45,-31.18 -15.81,-8.99 -66.9,-33.05 -71.45,-43.86l-1.54 24.12z"/>
   <path class="fil5" d="M1050.45 1765.16c60.58,8.57 271.59,-32.59 332.85,-48.87 48.14,-12.8 99.38,-27.71 143.54,-45.75 30.3,-12.39 106.1,-45.4 125.2,-63.05 -4.04,-2.57 -13.75,-3.93 -20.36,-2.53l-129.84 60.74c-107.3,41.29 -235.48,65.61 -351.51,79.98 -32.66,4.05 -66.84,5.14 -98.64,8.92l-80.04 2.74c-14.32,-0.24 -10.38,-3.07 -17.09,10.15l95.89 -2.33z"/>
   <path class="fil5" d="M608.05 1693.38c0.6,-2.32 2.9,-0.32 -5.22,-5.42l-6.76 -3.85c-101.49,-29.55 -191.77,-80.04 -257.1,-133.58 -14,-11.48 -37.14,-36.02 -48.47,-50.38 -62.21,-78.79 -67.77,-133.87 -36.29,-221 0.36,-7.77 -2.55,-14.56 -7.31,-19.81 -33.19,31.78 -37.69,115.1 -16.63,169.22 36.57,93.96 131.07,164.26 220.86,207.64 26.59,12.85 128.84,56.9 156.92,57.18z"/>
   <path class="fil6" d="M747.34 1330.76l-0.83 -15.33c12.59,6.87 27.94,23.49 41.66,33.03l130.64 87.28c-7.59,4.86 -10.04,3.2 -13.8,2.58 -14.35,-2.4 -56.54,-24.6 -68.64,-30.7 -13.93,-7.03 -23.53,-13.56 -35.73,-21.85 -6.41,-4.35 -27.48,-20.66 -28.27,-20.43 8.79,2.96 28.67,19.49 40.09,27.12 25.86,17.31 55.46,35.86 85.04,46.46 34.03,12.19 36.13,5.44 42.82,25.42 -53.36,16.71 -104.96,-27.55 -146.67,-55.03 30.23,16.33 97.02,77.86 151.25,64.28 -26.99,39.08 -106.62,-13.96 -135.3,-34.02l-34.94 -28.35c-6.95,-7.45 -12.08,-11.26 -21.65,-14.81 0.69,6.65 1.44,15.81 0.13,23.59 -1.76,10.47 -4.48,12.09 -2.11,24.21l6.68 2.99c33.81,20.94 112.07,73.84 145.76,85.53 9.45,3.28 44.94,7.47 58.07,3.45 8.01,-2.45 9.61,-3.04 18.47,-3.88 3.09,-0.29 6.77,-0.3 9.6,-0.88l23.46 -10.05 -13.7 0.44 5.58 -7.19c3.02,-3.94 2.37,-1.22 4.06,-5.59 -6.45,-5.9 -1.09,-1.88 -8.35,-6.15 -29.29,3.43 -38.74,10.38 -70.82,4.47l20.22 -5.09 -14.04 -0.24c15.86,-5.18 32.18,-11.15 32.3,-29.74 0.08,-13.19 -16.98,-30.85 -25,-35.42 -5.1,3.57 1.58,2.21 -4.3,-0.59l-20.19 -12.42c-8.93,-5.98 -16.32,-10.42 -25.17,-15.97 -17.78,-11.13 -34.9,-22.49 -52.04,-33.16l-74.92 -54.2c-10.53,-8.96 -15,-15.03 -23.22,-18.8 -0.54,7.26 -1.92,10.13 -0.95,16.82l3.5 9.94c0.2,-0.4 0.83,1.54 1.31,2.28z"/>
   <path class="fil6" d="M1012.2 1116.19c-4.93,-14.44 -6.15,-50.14 -21.47,-60.61 -1.91,-2.63 -5.07,-11.96 -8.85,-16.12 -11.71,-12.88 -25.34,-3.43 -28.37,-3.48 -10.75,-0.18 8.83,-2.13 -8.33,-1.74 -3.51,0.08 -3.86,0.62 -7.04,2.37 -7.96,-11.3 0.91,-7.07 -14.2,-11.39 2.2,24.08 9.31,3.24 10.85,25.48l21.2 -1.51c-13.76,9.79 -7.73,4.84 -6.07,7.51 19.92,-12.29 9.52,-12.2 26.2,1.54l-17.44 5.52 0.84 11.05c13.75,-2.89 21.46,-1.66 25.53,7.27 -6.96,3.03 -4.07,-0.61 -11.03,-1.19 -1.73,1.88 -1.59,1.85 -3.81,4.75 -1.63,2.14 -1.57,2.45 -3.55,4.92 22.47,24.06 26.59,22.62 45.54,25.63z"/>
   <path class="fil6" d="M869.72 1022.25c10.74,6.88 29.75,4.93 37.81,13.86l3.95 5.73c5.13,-3.62 3.85,-3.04 11.9,-4.43 -3.21,-7.63 -5.37,-5.57 -7.03,-10.84 8.88,-1.91 19.23,-1.01 23,-2.2 -3.35,-8.74 -1.74,-6.91 -11.76,-9.37l10.96 -5.94c-6.3,-9.76 -1.13,-8.4 -10.58,-12.18 -5.94,-9.89 1.77,-3.04 -8.45,-6.34l8.42 25.57 -33.53 -4.84c-12.49,-14.92 1.29,1.25 6.05,-19.49 -13.25,-4.46 -14.73,-3.61 -24.24,5.11 3.75,2.78 12.87,3.63 10.77,12.46 -3.46,14.55 0.81,1.46 -5.72,8.7 -8.21,-2.54 -13.26,-12.61 -14.98,-19.33 -0.12,-0.46 -0.19,-1.3 -0.29,-1.75 -1.44,-7.01 3.12,-6.24 -9.44,-12.71 -4.35,5.97 -8.68,-1.46 0.38,15.07 -13.67,-3.55 8.99,6.7 -5.1,-3.91 -11.61,-8.74 1.71,0.14 -3.29,-2.69 -0.17,-0.1 8.38,-7.96 -10.34,-1.5 -6.95,2.4 -9.05,10.93 -12.07,18.97 8.71,-4.38 5.04,-4.03 16.68,-5.86l0.11 12.86 25.5 -2.26 1.29 7.31z"/>
   <path class="fil6" d="M888.97 1206.76l47.15 6.15c2.43,-11.01 -10.64,-10.74 10.03,-10.01 12.41,19.33 -9.37,24.25 -15.45,30.31l0.01 -11c-7.31,-2.73 -26.81,-6.97 -34.51,1.24 -3.26,3.48 -1.74,1.95 -3.11,4.27 13.16,1.41 7.2,-3.09 15.63,6.83 -1.85,4.15 -6.1,4.7 -7.27,12.1 6.02,-2.79 7.14,-6.15 17.06,-6.77 0.7,-2.25 -0.91,-3.6 -0.99,-4.01 -0.45,-2.18 -2.23,0.2 -0.55,-4.44 12.68,2.16 0.2,1.43 9.86,7.63 4.25,2.72 11.66,3.52 17.6,5.56l14.16 -16.9c-4.07,1.3 -3.31,2.35 -3.31,-1.61l-5.45 -3.88c5.49,-10.77 5.29,-13.14 -3.83,-20.73 -4.29,-3.57 -3.5,-1.88 -9.27,-7.27 -3.63,-3.39 -2.41,-2.99 -6.34,-6.21 -5.03,4.64 -3.7,2.72 -5.65,7.09 -6.47,14.55 5.79,-6.55 -1.85,4.63 -3.65,5.33 7.47,0.24 -4.74,3.68 -7.35,-14.65 2.28,-6.41 -3.46,-19.42 -16.7,4.56 -2.8,12.37 -14.18,12.78 -10.61,0.39 -5.68,-3.61 -7.23,-24.02l-3.97 -2.51c-9.78,-5.93 -11.69,-7.63 -16.55,-4.12 0.3,0.43 6.84,7.44 7.24,8.15 8.03,14.26 1.33,-1.67 2.53,8.96 0.05,0.4 0.14,1.23 0.17,1.65 0.03,0.45 0.07,1.29 0.09,1.75l0.21 9.47c0.03,0.12 2.04,4.96 2.24,5.33 2.44,4.63 3.11,4.36 3.73,5.32z"/>
   <path class="fil7" d="M1043.26 1193.5c8.25,16.56 4.49,28.51 4.14,47.51 33.19,-0.36 34.31,5.9 70.05,21.45 12.27,5.34 23.46,9.98 34.89,14.6 28.24,11.42 156.22,62.18 182.02,66.09 -9.2,10.49 1.65,4.13 -10.71,6.61 -6.16,1.23 -127.98,-44.58 -134.49,-47.02 -25.54,-9.56 -46.38,-17.93 -68.97,-27.26l-70.29 -30.52c3.1,6.13 6.79,10.61 12.61,15.85 6.83,6.14 17.32,8.08 18.17,8.4 13.42,5.12 23.22,11.27 37.52,17.07 75.5,30.6 128.75,47.82 203.43,71.4 10.6,3.35 33.49,14.39 35.99,8.84 -0.98,-14.96 -13.97,-24.85 -22.75,-32.14 -10.46,-8.68 -19.04,-14.96 -31.9,-22.93 -51.47,-31.88 -181.8,-81.62 -238.83,-92.07 20.63,-8.45 74.77,13.19 94.48,19.06l6.33 6.98c46.94,17.39 66.24,21.16 117.19,48.23 47.39,25.18 54.62,38.62 91.87,48.89 16.24,4.48 20.11,1.33 24.75,-13.14 -27.42,-23.78 -185.98,-63.46 -200.46,-78.35 29.58,2.12 81.22,27.37 102.19,30.94l-172.01 -64.81c-15.81,-5.56 -42.28,-16.14 -54.74,-19.7 -0.45,-0.81 -1.16,-1.67 -1.59,-2.26 -13,-17.83 -6.34,-11.63 -5.7,-18.05 0.09,-0.86 0.68,-1.08 0.94,-1.66 -20.59,-5.36 -7.15,-0.6 -13.1,-10.98 24.61,0.39 28.71,12.03 52.54,16.49 -3.3,-16.05 -5.79,-11.43 -16.07,-19.42l-53.19 -16.26 5.69 48.16z"/>
   <path class="fil7" d="M1005.33 1043.78c1.07,9.13 10.84,31.4 14.64,42.42 4.93,14.31 9.37,30.07 12.86,45.07l48.71 15.93c4.16,-5.96 1.42,-6.12 -2.61,-10.57 13.15,1.36 15.9,-1.89 16.48,-2.06 8.01,-2.3 6.44,1.26 12.85,-1.64 -12.53,-4.56 -22.82,-8.94 -36.31,-13.32l-2.52 14.55c-3.87,-7.1 5.21,-5.4 -11.16,-6.41 0.27,-6.88 1.2,-6.22 3.24,-14.21 -8.11,3.53 -7.1,6.5 -11.65,8.56 -1.97,-4.01 -4.57,-4.4 -6.42,-11.93 9.4,0.64 12.19,2.36 20.13,3.57 3.59,-12.5 1.3,-0.52 4.55,-9.01 0.1,-0.28 0.39,-1.04 0.46,-1.29l0.07 -2.77c-0.01,-0.07 -0.27,-0.6 -0.29,-0.65 -0.01,-0.05 -0.43,-0.37 -0.36,-0.59 20.25,6.16 80.66,19.55 93.39,32.62 27.05,4.87 132.6,50.4 169.01,66.49 12.29,5.43 15.47,10.37 21.03,1.7 -10.99,-8.33 -133.81,-60.15 -154.77,-68.3 -57.58,-22.38 -111.9,-40.79 -166.7,-60.09 59.62,5.35 319.63,120.88 326.38,121.95 5.94,-5.6 7.15,-9.35 9.2,-18.29 -20.69,-16.76 -212.29,-103.02 -242.65,-110.95 -16.45,0.31 -37.49,-11.24 -54.83,-17.24 -21.07,-7.29 -34.25,-13.7 -61.43,-12.26 -1.66,3.31 -1.25,2.36 -1.3,8.72z"/>
   <path class="fil7" d="M1650.42 1398.2l-87 -20.75c-28.65,-6.28 -63.55,-10.93 -89,-17.4l-29.91 54.33 0.46 3.76c13.15,-1.2 133.9,22.57 158.98,26.55l156.05 21.25c5.82,2.43 2.88,0.61 6.79,4.03 -39.23,4.67 -94.64,-6.01 -135.97,-5.41 16.83,4.43 88.82,13.04 105.74,11.76 9.72,-1.94 16.47,1.06 25.47,4.1l4.4 1.83c15.2,-10.88 28.33,-20.93 38.58,-34.99 -0.3,-12.7 2.27,-1.89 -6.74,-10.45 -2.9,-2.76 -0.31,0.97 -3.92,-3.96 -4.47,-6.1 -0.87,2.4 -2.01,-5.03l-34.64 -24.27c-23.7,-13.33 -92.07,-47.69 -113.6,-46.67 4.02,8.52 1.73,6.42 14.23,9.38 6.87,1.62 11.86,2.08 19.3,1.74 3.4,10.43 -22.52,-2.22 39.74,22.72 9.75,3.9 18.23,8.22 26.02,12.9 4.39,2.64 7.78,4.27 12.13,6.91l10.38 7.37c-19.29,-4.5 -17.7,-8.73 -27.64,-9.46l-3.51 0.65c6.2,9.69 12.4,4.02 32.73,16.97 10.95,6.97 23.05,9.3 34.42,15.56 -11.66,9.1 -18.13,-3.97 -36.73,-5.05 3.95,12.49 14.68,5.54 28.42,13.74 -7.02,3.9 -12.31,2.84 -22.6,2.55 -0.12,0.28 -0.03,0.83 -0.02,0.92 0.27,12.98 5.66,-6.25 0.02,4.33 -27.14,4.72 -136.02,-14.97 -165.42,-19.94 -23.23,-3.93 -58.78,-9.09 -78.54,-14.17 -12.08,-3.11 -62.84,-16.59 -69.04,-23.56 22.06,-6.31 55.23,5.96 79.59,11.22l8.24 -8.23c23.37,8.52 -16.89,6.29 38.03,15.99 17.3,3.06 30.37,5.36 46.92,8.01 33.24,5.32 63.41,11.32 97.05,14.7 -43.08,-11.52 -82.52,-18.57 -122.62,-28.29l-125.27 -26.75c6.45,-7.67 -12.96,-13.61 33.62,-1.91l207.81 46.11c-27.02,-13.77 -23.74,-3.83 -39.35,-13.06 -14.04,-8.29 -21.44,-3.97 -31.59,-20.03z"/>
   <path class="fil7" d="M882.24 1129.98c12.43,7.34 22.98,16.47 33.81,24.66 8.9,6.73 8.54,6.17 23.01,5.39l10.01 -3.08c-7.01,9.57 -2.2,-0.61 -5.63,11.19 13.07,-6.24 8.61,-7.46 19.32,4.92 10.58,12.21 10.5,4.23 20.25,13.86 7.8,2.46 8.03,3.03 14.45,10.12 7.19,3.01 25.05,19.67 21.51,-1.24l-12 -27.98 -24.5 8.02c-3.39,-9.48 -0.27,-5.46 -7.06,-10.24 3.55,-7.14 1.63,-2.33 6.02,-7.33 13.51,-15.36 -1.59,8.49 3.21,-3.41 -18.97,-0.41 -32.23,-18.55 -39.22,-20.97 -11.04,-3.83 0.89,3.19 -12.87,-1.9 -10.18,-3.77 5.33,-3.97 -13.48,-2.7l-8.81 -0.27c-0.36,0.05 -1.15,0.32 -1.53,0.39 -22.52,4.01 -19.56,-7.41 -20.4,-9.87l8.77 -6.62c0.37,-1.16 1.36,-1.12 2.06,-1.65 0.66,-8.23 -0.06,-2.99 1.33,-4.55l-16.39 3.01c2.27,-10.66 3.4,-8.08 -0.08,-11.83l-21.13 2.76c-0.62,-8.81 1.34,-12.8 -3,-19.77 -7.71,-12.37 -22.72,-9.25 -35.07,-2.83 -17.15,8.94 -1.53,1.22 -16.93,-0.41 -7.07,5.83 -4.72,1.89 -10.3,9.92 8.92,12.24 2.29,-5.75 9.54,13.46 12.13,-2.5 -0.58,-10.95 24.99,-10.64 2.88,5.03 4.01,7.49 8.41,13.17 2.17,2.82 3.35,4.23 4.69,6.1 7.62,10.67 18.87,15.39 37.02,20.32z"/>
   <path class="fil7" d="M1215.14 1211.23c-0.6,19.86 2.73,9.27 8.33,11.76 0.6,0.27 2.26,1.02 2.86,1.26 17.49,6.98 4.79,-6.81 15.76,2.2 5.35,4.4 1.66,2.3 -0.78,6.46l-2.14 3.05c10.46,2.09 21.95,8.18 32.93,12.51 22.04,8.67 11.82,-5.9 24.64,10.61 19.71,0.22 18.88,0.79 29.5,-8.78 -3.68,-10.85 5.4,3.15 -10.39,-9.73 -8.15,-6.65 -3.72,-8.21 -23.92,-12.47 -33.18,-6.99 -24.42,-7.78 -28.31,-0.46 -4.6,8.67 6.16,3.82 -3.39,7.11 -9.17,-38.34 10.16,-8.92 -27.32,-24.14 -16.42,-6.67 -17.74,0.6 -17.77,0.62z"/>
   <path class="fil7" d="M1382.58 1400.96l-23.59 26.94c-2.32,13.97 -1.96,25.16 -10.83,36.15l6.58 5.07c4.22,-6.05 43.87,-30.87 74.45,-84.23 -15.57,22.07 -44.78,61 -68.05,69.2 3.67,-23.57 57.13,-47.04 55.97,-80.98 -19.23,7.57 -17.99,20.9 -34.53,27.85z"/>
   <path class="fil8" d="M753.36 1530.48c-3.83,6.33 -3.19,19.68 -3.54,29.73 4.55,10.81 55.64,34.87 71.45,43.86 23.47,13.34 57.16,30.83 87.45,31.18 -3.26,4.74 -0.61,12.82 -35.69,8.88 -14.31,-1.08 11.35,7.89 -9.96,-0.05 -16.63,-6.2 -81.23,-43.56 -95.53,-53.14 -8.65,-5.8 -7.04,-6.9 -19.26,-6.61l-0.97 11.61 64.04 34.62c15.26,9.06 57.67,24.95 72.65,29.11 8.05,15.76 8.75,16.15 4.56,35.04l-19.57 3.72c5.81,1.94 1.93,-1.94 7.11,8.47 10.49,6.84 13.61,19.62 13.52,35.7l68.64 -119.2c15.41,-23.05 61.27,-94.59 77.8,-108.59l-22.99 6.56 -23.46 10.05c-2.83,0.58 -6.51,0.59 -9.6,0.88 -8.86,0.84 -10.46,1.43 -18.47,3.88 -13.13,4.02 -48.62,-0.17 -58.07,-3.45 -33.69,-11.69 -111.95,-64.59 -145.76,-85.53 2.38,6.73 12.58,14.7 20.47,21l28.4 20.37c5.27,1.94 -1.11,2.11 3.56,0.22 -2.42,-4.38 -40.15,-29.01 -55.17,-32.97 2.54,17.39 -2.72,6.37 7.37,15.25l82.73 51.88c16.55,9.89 30.24,19.68 49,27.75 16.26,6.98 39.95,17.07 53.71,24.34 -16.94,3.1 -31.33,-10.68 -52.81,-21.22 -45.81,-22.47 -83.81,-50.15 -121.55,-72.68 -9.22,-5.5 -6.28,-4.42 -18.45,-6.09 4.77,16.47 -1.04,7.62 32.33,28.39l56.29 34.68c-15.79,-2.96 -13.29,-0.73 -15.85,0.56 9.33,2.6 24.48,9.3 30.16,16.07 -13.36,-2.9 -59.45,-34.03 -74.38,-42.96 -3.18,-1.9 -11.14,-7.41 -11.31,-7.52 -9.02,-6.04 -7.64,-5.51 -19.99,-7.23 2.79,10.6 0.68,6.7 6.55,13.18 0.42,0.47 8.84,5.51 10.18,6.27l62.06 36.81c24.53,13.9 56.13,37.35 91.44,42.64 -4.91,-7.59 -4.57,-7.26 -15.46,-12.79 -8.19,-4.17 -5.23,-4.43 -14.72,-6.43 4.81,-5.21 -7.1,-2.76 11.62,-4.09 -8.56,-2.14 -6.78,0.09 -12.05,-6.92 1.89,0.29 39.12,14.85 42.3,22.64 3.14,7.7 2.99,14.69 -2.01,20.02 -16.41,17.49 -129.43,-55.02 -146.68,-65.44 -15.8,-9.53 -21.36,-18.23 -33.23,-10.18 5.22,9.35 2.5,5.79 18.33,15.14 7.64,4.51 13.88,8.52 20.55,12.36 39.08,22.55 65.03,37.95 108.56,53.45 9.84,3.5 16.62,4.96 12.94,19.06 -12.69,0.17 -43.12,-15.12 -57.55,-22.4 -0.57,-0.28 -1.26,-0.64 -1.84,-0.92 -38.54,-18.7 -68.08,-41.78 -99.15,-55.78l-0.7 -23.18z"/>
   <path class="fil8" d="M1046.69 1512.75c-5.04,10.87 -18.51,25.2 -26.04,35.79 -53.18,74.78 -73.76,107.65 -114.89,192.6 -9,18.59 -33.13,64.93 -37.16,84.46 2.78,-5.88 9.39,-13.26 13.81,-19.64 5.29,-7.63 8.65,-12.78 14.33,-21.38l159.66 -197.47 57.33 -50.06c9.37,-6.4 17.53,-6.57 19.31,-18 -4.13,-10.35 -12.34,-17.89 -26.29,-18.93 3.39,10.96 4.79,7.85 5.58,22.06 -2.47,-3.07 -0.36,-0.14 -3.58,-5.21 -0.33,-0.53 -0.76,-1.24 -1.1,-1.79 -10.55,-17.13 -7.9,-15.1 -25.66,-15.51 5.26,11.57 11.35,14.89 16.14,31.17 -6.25,-6.3 -9.32,-13.95 -16,-20.43 -4.87,-4.73 -14.65,-9.94 -18.17,-11.56 -13.25,14.47 -5.53,5.61 -17.27,13.9z"/>
   <path class="fil8" d="M1424.84 1329.47c-11.35,25.95 -42.06,70.97 -42.26,71.49 16.54,-6.95 15.3,-20.28 34.53,-27.85 1.16,33.94 -52.3,57.41 -55.97,80.98 23.27,-8.2 52.48,-47.13 68.05,-69.2 -30.58,53.36 -70.23,78.18 -74.45,84.23l-49.3 25.95c-12.86,4.81 -2.84,2.38 -18.18,3.17 -3.04,-12.6 -3.43,-8.43 0.13,-20.92l-37.28 13.28c12.89,10.44 10.7,13.15 21.1,24.96 13.68,7.13 64.12,-14.82 84.62,-29.75 18.83,-13.71 16.59,-8.08 21.95,-18.46 -2.07,-5.52 -2.65,2.9 1.8,-4.73l15.63 -20.13c4.83,-4.3 3.14,-2.51 6.32,-4.67 8.19,-5.54 3.05,0.38 10.81,-11.11l10.76 -13.97c1.32,-1.84 3.22,-4.57 4.54,-6.45 3.84,-5.46 6.13,-9.71 10.28,-14.73 40.41,-48.93 42.02,-131.26 15.3,-191.32l-1.83 1.11c-0.05,0.01 -0.58,0.01 -0.63,0l-1.85 -1.11c7.08,24.72 15.34,82.3 -1.95,104.24 -0.48,-0.55 -0.99,-2.25 -1.12,-1.87l-2.76 -8.84c-0.33,-2.67 0.1,-9.67 0.09,-12.89l-9.64 37.6c-4.48,11.32 -1.29,7.62 -8.69,10.99z"/>
   <path class="fil8" d="M747.34 1330.76c0.22,16.34 -2.59,50.38 7.22,61.79 -3.37,-11.3 -4.38,-14.8 -1.12,-26.26 5.17,7.08 6.62,6.87 13.68,11.37 11.96,7.6 6.01,6.6 16.22,14.22 0.65,0.48 2.67,1.75 3.34,2.22l21.75 16.83c3.99,2.97 1.03,0.83 4.89,3.44 1.5,1.01 4.15,2.69 5.02,3.25 25.58,16.35 52.4,30.03 81.52,40.92 -7.45,-13.28 -17.61,-13.24 -33.9,-23.77 -7.4,-4.78 -11.38,-5.63 -18.25,-9l-43.81 -27.38c-0.5,-0.32 -1.21,-0.72 -1.71,-1.04l-22.21 -16.2c-9.86,-11.85 0.18,-2.65 -17.79,-12.53 5.36,-5.13 0.21,-3.76 10.18,-3.28 0.79,-0.23 21.86,16.08 28.27,20.43 12.2,8.29 21.8,14.82 35.73,21.85 12.1,6.1 54.29,28.3 68.64,30.7 3.76,0.62 6.21,2.28 13.8,-2.58l-130.64 -87.28c-13.72,-9.54 -29.07,-26.16 -41.66,-33.03l0.83 15.33z"/>
   <path class="fil8" d="M862.06 1168.8c10.05,-0.53 3.03,0.14 2.23,11.74l10.09 -0.12c-3.03,7.16 1.87,2.18 -8.02,6.76l-7.89 4.16c10.67,-0.35 21.35,-4.58 20.55,8.69 -1.13,18.87 -14.51,-2.46 -6,17.38 -0.57,-1.56 -7.41,0.29 4.51,-6.19 3.07,-1.68 7.54,-2.53 11.44,-4.46 -0.62,-0.96 -1.29,-0.69 -3.73,-5.32 -0.2,-0.37 -2.21,-5.21 -2.24,-5.33l-0.21 -9.47c-0.02,-0.46 -0.06,-1.3 -0.09,-1.75 -0.03,-0.42 -0.12,-1.25 -0.17,-1.65 -1.2,-10.63 5.5,5.3 -2.53,-8.96 -0.4,-0.71 -6.94,-7.72 -7.24,-8.15 4.86,-3.51 6.77,-1.81 16.55,4.12l3.97 2.51c1.55,20.41 -3.38,24.41 7.23,24.02 11.38,-0.41 -2.52,-8.22 14.18,-12.78 5.74,13.01 -3.89,4.77 3.46,19.42 12.21,-3.44 1.09,1.65 4.74,-3.68 7.64,-11.18 -4.62,9.92 1.85,-4.63 1.95,-4.37 0.62,-2.45 5.65,-7.09 3.93,3.22 2.71,2.82 6.34,6.21 5.77,5.39 4.98,3.7 9.27,7.27 9.12,7.59 9.32,9.96 3.83,20.73l5.45 3.88c0.52,-0.62 0.91,-2.61 1.1,-2.15 0.2,0.44 0.82,-1.63 1.1,-2.1l7.82 -9.46c0.34,-0.28 1.21,-0.72 1.76,-1.17 -3.01,-6.25 -3.42,-5.8 -5.96,-11.34 9.94,-8.36 4.8,-12.72 21.91,-12.97 -9.75,-9.63 -9.67,-1.65 -20.25,-13.86 -10.71,-12.38 -6.25,-11.16 -19.32,-4.92 3.43,-11.8 -1.38,-1.62 5.63,-11.19l-10.01 3.08c-14.47,0.78 -14.11,1.34 -23.01,-5.39 -10.83,-8.19 -21.38,-17.32 -33.81,-24.66l3.74 8.81c-5.39,23.78 10.66,-16.86 -3.24,5.11 -9.12,14.39 -1.83,10.15 -1.14,13.71 -10.12,0.55 -14.41,0.25 -19.54,11.19z"/>
   <path class="fil8" d="M533.94 1097.44c-25.37,-4.02 -93,-23.06 -120.82,-14.16l2.17 14.1c24.56,4.45 -11.26,-16.5 42.13,4.68 7.49,2.97 13.62,3.27 21.15,6.67 11.18,5.03 8.54,8.01 17.87,11.48l-12.9 -15.95c27.46,2.7 56.08,22.36 83.33,23.2 -3.69,-11.45 -2.23,-4.98 -5.12,-10.96l-2.68 -5.59c-7.38,-12.42 -12.5,-7.89 -25.13,-13.47z"/>
   <path class="fil8" d="M556.83 1051.66c0.38,-0.43 1.45,-1.12 1.65,-0.52 1.06,3.18 -1.01,-2.93 4.6,0.33 2.7,1.57 3.26,3.53 5.01,5.88 3.71,4.96 6.81,8.91 11.2,13.84l3.98 4.26c10.89,11.48 12.56,19.63 19.26,25.1l-12.66 -18.65c-6.05,-8.48 -7.72,-13.76 -9.46,-21.81l10.74 -3.54c6.15,-2.98 -5.59,-3.89 9.67,-4.66 -13.13,-25.39 -72.94,-48.38 -81.85,-56.07l-14.51 -1.88c6.1,9.72 20.06,22.22 26.93,28.88 9.93,9.63 16.38,19.02 25.44,28.84z"/>
   <path class="fil8" d="M1328.99 1050.01c1.25,16.23 -7.19,22.5 -23.72,20.96 3.24,5.77 8.61,12.42 12.62,17.2 0.59,-0.4 1.46,-1.78 1.71,-1.29l12.55 -9.94c5.69,-3.58 12.49,-6.13 16.91,-9.65 -8.57,-10.15 -5.87,-11.84 -17.33,-20.81 0.65,4.57 1.72,3.53 -2.74,3.53z"/>
   <path class="fil9" d="M1485.02 1279.92c4.2,33 -8.46,50.65 -10.43,77.51 53.06,9.34 102.33,22.32 150.85,33.44l24.98 7.33c10.15,16.06 17.55,11.74 31.59,20.03 15.61,9.23 12.33,-0.71 39.35,13.06l-207.81 -46.11c-46.58,-11.7 -27.17,-5.76 -33.62,1.91l125.27 26.75c40.1,9.72 79.54,16.77 122.62,28.29 -33.64,-3.38 -63.81,-9.38 -97.05,-14.7 -16.55,-2.65 -29.62,-4.95 -46.92,-8.01 -54.92,-9.7 -14.66,-7.47 -38.03,-15.99l-8.24 8.23c-24.36,-5.26 -57.53,-17.53 -79.59,-11.22 6.2,6.97 56.96,20.45 69.04,23.56 19.76,5.08 55.31,10.24 78.54,14.17 29.4,4.97 138.28,24.66 165.42,19.94 5.64,-10.58 0.25,8.65 -0.02,-4.33 -0.01,-0.09 -0.1,-0.64 0.02,-0.92 10.29,0.29 15.58,1.35 22.6,-2.55 -13.74,-8.2 -24.47,-1.25 -28.42,-13.74 18.6,1.08 25.07,14.15 36.73,5.05 -11.37,-6.26 -23.47,-8.59 -34.42,-15.56 -20.33,-12.95 -26.53,-7.28 -32.73,-16.97l3.51 -0.65c9.94,0.73 8.35,4.96 27.64,9.46l-10.38 -7.37c-4.35,-2.64 -7.74,-4.27 -12.13,-6.91 -7.79,-4.68 -16.27,-9 -26.02,-12.9 -62.26,-24.94 -36.34,-12.29 -39.74,-22.72 -7.44,0.34 -12.43,-0.12 -19.3,-1.74 -12.5,-2.96 -10.21,-0.86 -14.23,-9.38 21.53,-1.02 89.9,33.34 113.6,46.67l34.64 24.27c-1.17,-16.25 3.34,-0.27 -6.48,-8.8l-4.88 -3.51c-0.45,-0.36 -1.05,-0.9 -1.49,-1.26 -0.63,-0.51 -2.3,-2.08 -2.92,-2.6l-22.66 -18.74c-23.39,-17.21 -58.48,-28.58 -86.75,-39.74l-55.97 -19.11c-15.3,-4.72 -23.86,-1.72 -39.1,-7.21 -0.73,-0.26 -1.43,-0.49 -2.12,-0.79l-10.41 -7.65c9.02,-6.8 22.86,0.2 32.82,3.34 29.82,9.4 52.7,14.04 80.42,24.4l7.8 2.73c0.8,0.29 3.1,1.11 3.88,1.43 7.19,2.92 17.34,8.34 25.25,12.39 4.82,2.48 8.21,4.48 13.18,6.64 15.09,6.58 2.46,-0.3 14.32,7.51 0.47,0.31 1.14,0.77 1.61,1.09 0.49,0.31 1.17,0.75 1.66,1.07l18.93 11.46c0.5,0.31 1.2,0.72 1.69,1.04 0.49,0.32 1.15,0.78 1.62,1.1l4.65 3.58c8.69,5.97 10.08,3.72 17.3,13.22 -10.86,-10.5 -11.63,-4.57 -16.43,-19.54 19.75,21.31 21.42,17.77 34.77,31.32 6.25,6.33 5.49,3.81 10.84,8.23 -4.42,-12.24 -11.45,-19.61 -18.42,-28.38 -4.73,-5.94 -2.87,-5.57 -8.97,-12.08 -4.99,-5.33 -6.54,-8.43 -11.27,-14.33 -1.77,-2.21 -3.71,-4.16 -5.03,-5.86l-3.38 -4.86c-4.89,-7.06 -22.81,-19.95 -24.59,-25.8 -0.04,-0.14 0.03,-0.81 0,-0.97 -0.04,-0.17 0.06,-0.91 0.02,-1.09l-9.68 -10.67c-2.2,3.31 -3.66,9.62 0,8.18 -3.64,-9.85 -1.17,-5.32 -10.99,-8.88 -0.45,0.76 -0.87,1.27 -0.94,2.48 -0.06,1.05 -0.7,1.85 -0.75,2.18l1.69 2.82c-14.46,-24.78 -138.11,-67.93 -165.39,-77.22 -6.82,-2.32 -45.83,-20.24 -52.11,-19.2 -12.93,2.15 -0.33,-5.19 -10.4,5.71l141.17 54.22c12.91,5.72 22.52,9.63 33.65,15.35 19.66,10.1 38.43,18.24 55.72,32.46l11.95 10.2c4.95,4.23 3.69,3.51 7.03,6.38 3.65,3.13 3.22,2.41 6.25,4.75l8.25 7.42c-4.67,-5.28 -7.27,-7.25 -13.03,-11.31 -3.5,-2.47 -3.85,-2.45 -6.58,-4.24 -0.49,-0.33 -1.17,-0.77 -1.66,-1.1l-13.24 -9.03c-0.4,-0.25 -6.19,-3.79 -6.69,-4.05l-9.63 -4.39c-0.61,-0.28 -1.34,-0.58 -1.93,-0.86 -45.77,-21.77 -106.22,-47.2 -159.77,-60.5 -41.32,-10.26 -41.17,-26.95 -56.99,-10.57l20.07 8.06c0.58,0.23 1.3,0.55 1.86,0.8l27.29 10.85c4.48,1.52 8.47,2.56 12.96,4.22l36.65 14.57c-7.38,5.21 4.02,6.88 -27.51,-0.22 -13.2,-2.97 -14.44,-2.38 -28.02,-8.17l-32.75 -11.58c-0.65,-0.31 -3.36,-2.1 -3.86,-2.36l-9.83 -2.43z"/>
   <path class="fil9" d="M281.75 1225.32c-2.62,-9.71 1.24,-5.44 -8.21,-13.33 -1.7,-1.42 -6.39,-4.09 -8.73,-5.79 -9.15,4.49 -6.79,4.89 -13.52,9.39 -1.75,29.57 24.34,78.53 46.5,93.58 52.2,35.46 162.35,75.52 194.25,102.86 -1.15,-2.45 5.5,3.06 -2.38,-2.43l-139.09 -68.99c-16.04,-8.65 -33.96,-22.76 -50.27,-27.69 7.41,14.81 33.87,46.44 41.03,52.2 -32.89,46.14 30.68,41.33 89.31,93.78l27.74 28.91 47.43 -88.38 -166.95 -85.56c-8.75,-5.22 -16.35,-9.8 -25.27,-15.86 -7.57,-5.15 -17.39,-14.07 -24.04,-16.96 16.6,19.23 128.11,72.22 163.46,89.96 16.26,8.16 42.26,26.47 57.18,26.86 6.67,-8 15.87,-20.74 18.79,-31.23 -38.12,-14.05 -229.96,-120.08 -247.23,-141.32z"/>
   <path class="fil9" d="M692.11 1253.14l-26.18 11.81c7.98,4.22 6.36,-6.88 6.35,9.47l-5.13 3.68c-11.94,14.04 -12.47,4.31 -22.47,18.89 -18.7,-3.72 7.33,-23.37 -37.7,10.58 -15.15,11.43 -17.61,28.39 -43.93,49.43 -17.57,14.04 -41.14,34.1 -46.99,57.57 18.54,-10.89 10.66,-6.8 22.77,-18.45 7.47,-7.2 3.16,-0.21 9.97,-9.08 4.66,-6.06 2.6,-5.77 7.45,-11.81 6.8,-8.47 13.54,-9.85 19.97,-18.77 9.82,-13.61 5.61,-15.25 24.94,-18.8 -18.29,32.93 -37.91,30.89 -58.59,67.95l-14.71 25.41c3.11,-6.58 8.04,-15.63 14.03,-20.63 1.61,-1.34 2.58,-1.55 5.04,-3.34l26.31 -31.28c9.75,-13.1 18.06,-22.61 31.52,-31.9 16.58,-11.45 5.9,-5.81 14.35,-12.97l18.93 -11.17c9.61,-7.02 2.71,-6.38 29.91,-25.64 8.86,-6.28 4.08,-7.81 8.3,-3.15 7.33,-4.24 13.68,-9.13 22.63,-11.55 -0.47,0.63 -1.31,0.68 -1.6,1.74l-4.99 4.51c-1.98,1.51 -4.51,2.85 -6.76,4.43 -30.42,21.26 -44.77,37.66 -69.64,62.35l-22.8 23.99c-11.26,13.63 -18.16,19.1 -29.62,39.1 -11.1,19.37 -25.21,36.12 -33.74,57.39l50.68 -59.95c4.69,-5.13 5.41,-8.37 9.27,-12.75l20.99 -22.85c16.29,-20.06 71.27,-70.33 97.69,-77.07l-6.81 -40.89c4.44,4.63 6.05,7.1 8.55,18.46 15.56,70.64 17.47,210.51 14.62,282.38l-2.75 79.64c-1.94,22.01 -2.04,19.91 4.54,24.12 9.9,-3.12 5.91,-10.22 10.37,-37.7 2.7,-16.73 3.43,-30.94 5.19,-46.81 4.98,-44.83 5.56,-154.48 2.38,-200.71 -1.15,-16.68 -2.37,-31.24 -4.03,-48.39l-4.35 -34.36c0.91,-7.55 0.07,-4.69 3.78,-7.84 -15.45,-11.38 0.94,-8.93 -34.27,-35.51l20.96 5.79c-4.15,-12.46 -7.48,-10.44 -17.95,-20.86 13.53,1.21 20.2,5.13 26.03,13.52 5.18,-18.69 11.11,-28.17 18.17,-45.04 5.13,-12.23 5.31,-10.97 11.44,-21.3 5.17,-8.73 1.67,-12.1 -1.72,-21.34 -7.65,14.95 -14.33,6.73 -33.47,44l-0.76 -5.75c-4.2,-12.48 1.51,-1.43 -7.37,-11.44 -15.34,-17.29 -18.17,-26.79 -29.24,-47.56 -5.18,-9.72 -5.22,-12.41 -16.94,-16.63 4.74,25.63 29.21,43.6 45.31,77.22 -13.27,-6.32 -23.21,-30.05 -32.33,-45.61 -21.86,-37.32 -16.72,-39.66 -36.56,-37.45 0.87,25 37.44,75.7 53.73,101.3 -14.02,-7.97 -3.08,-5.3 -14.41,-6.8 -6.62,-0.88 -4.56,-1 -13.96,-10.11l-30.39 -40.88c-3.27,-4.23 -2.75,-3.82 -5.76,-8.41 -2.04,-3.08 -3.4,-4.49 -5.37,-8.19 -5.71,-10.74 -0.41,-3.76 -0.39,-3.86l-13.72 -34.85c12.86,20.61 -0.48,-9.04 22.14,30.65 7.36,12.91 12.98,21.2 21.17,29.32 -6.49,-18.31 -16.01,-35.84 -23.13,-52.35 -8,-18.52 -0.44,-18.57 -1.61,-31.09 -0.88,-9.41 -8.76,-13.75 -14.6,-20.35 -20.06,-0.43 -12.88,-1.37 -24.03,-12.71 -15.26,0.77 -3.52,1.68 -9.67,4.66l-10.74 3.54c1.74,8.05 3.41,13.33 9.46,21.81l12.66 18.65c-6.7,-5.47 -8.37,-13.62 -19.26,-25.1l-3.98 -4.26c-4.39,-4.93 -7.49,-8.88 -11.2,-13.84 -1.75,-2.35 -2.31,-4.31 -5.01,-5.88 -5.61,-3.26 -3.54,2.85 -4.6,-0.33 -0.2,-0.6 -1.27,0.09 -1.65,0.52l133.96 185.49c1.06,2.59 1.74,5.59 1.96,8.32 0.06,0.8 -0.06,3.64 -0.07,3.96l-0.57 3.71z"/>
   <path class="fil9" d="M1226.33 1224.25c-0.6,-0.24 -2.26,-0.99 -2.86,-1.26 -5.6,-2.49 -8.93,8.1 -8.33,-11.76 0.03,-0.02 1.35,-7.29 17.77,-0.62 37.48,15.22 18.15,-14.2 27.32,24.14 9.55,-3.29 -1.21,1.56 3.39,-7.11 3.89,-7.32 -4.87,-6.53 28.31,0.46 20.2,4.26 15.77,5.82 23.92,12.47 15.79,12.88 6.71,-1.12 10.39,9.73 -10.62,9.57 -9.79,9 -29.5,8.78 -12.82,-16.51 -2.6,-1.94 -24.64,-10.61 -10.98,-4.33 -22.47,-10.42 -32.93,-12.51l2.14 -3.05c2.44,-4.16 6.13,-2.06 0.78,-6.46 -10.97,-9.01 1.73,4.78 -15.76,-2.2zm-144.79 -77.05c6.62,7.23 14.05,9.29 23.93,13.47l-14.71 0.93c10.28,7.99 12.77,3.37 16.07,19.42 -23.83,-4.46 -27.93,-16.1 -52.54,-16.49 5.95,10.38 -7.49,5.62 13.1,10.98 -0.26,0.58 -0.85,0.8 -0.94,1.66 -0.64,6.42 -7.3,0.22 5.7,18.05 0.43,0.59 1.14,1.45 1.59,2.26 17.66,-2.82 67.37,16.91 85.36,21.88 12.09,3.33 72.14,23.4 78.92,29.01l-16.33 -3.74c34.08,17.18 107.4,42.29 139.13,58.65 47.4,24.44 46.81,31.82 60.3,-37.58 5.09,-26.18 3.93,-45.08 -0.52,-70.04 -11.24,16.81 -5.79,60.1 -25.84,81.18 -13.56,3.91 -27.27,-1.02 -37.29,-8.97 -11.88,-9.44 -9.23,-9.75 -1.12,-27.4 -5.8,-5.03 -7.07,-3.76 -13.57,-7.6 -6.85,-4.04 -6.79,-5.4 -10.9,-8.91 -9.12,-7.8 -14.92,-6.24 -26.62,-11.29 -30.21,-13.03 -143.74,-69.34 -160.59,-68.01 24.75,6.22 75.28,26.76 101.12,37.59l84.55 36.69c12.59,3.39 12.62,-1.45 12.62,-1.45 -0.65,-13.28 9.34,-2.58 -20.75,-16.63l-160.82 -68.81c-12.73,-13.07 -73.14,-26.46 -93.39,-32.62 -0.07,0.22 0.35,0.54 0.36,0.59 0.02,0.05 0.28,0.58 0.29,0.65l-0.07 2.77c-0.07,0.25 -0.36,1.01 -0.46,1.29 -3.25,8.49 -0.96,-3.49 -4.55,9.01 -7.94,-1.21 -10.73,-2.93 -20.13,-3.57 1.85,7.53 4.45,7.92 6.42,11.93 4.55,-2.06 3.54,-5.03 11.65,-8.56 -2.04,7.99 -2.97,7.33 -3.24,14.21 16.37,1.01 7.29,-0.69 11.16,6.41l2.52 -14.55c13.49,4.38 23.78,8.76 36.31,13.32 -6.41,2.9 -4.84,-0.66 -12.85,1.64 -0.58,0.17 -3.33,3.42 -16.48,2.06 4.03,4.45 6.77,4.61 2.61,10.57z"/>
   <path class="fil9" d="M978.41 1342.9l-14.6 1.81 -20.45 7.6c-0.44,-0.65 -1.74,0.87 -2.05,1.7l66.22 35.72c34.12,15.48 212.65,68.83 235.59,70.64l35.01 -19.82c15.86,-9.53 24.65,-7.7 38.39,-18.86 9.24,-7.5 5.1,-0.12 6.23,-8.93 -28.11,-12.25 -52.15,-14.7 -78.21,-23.92 -45.6,-16.13 -109.79,-33.27 -150.31,-50.61 -12.66,-5.42 -24.44,-8.72 -35.95,-13.53 -13.61,-5.69 -19.28,-9.27 -33.55,-10.39 29.8,17.3 77.43,29.45 79.82,34.84l-0.16 1.88c-0.53,2.97 1.32,-0.96 -0.69,2.02 -11.42,-4.13 -52.43,-18.84 -62.9,-16.96 -0.67,0.12 -1.69,0.5 -2.22,0.63l-4.35 1.75c12.69,5.86 24.2,11.54 38.73,16.89 40.53,14.93 32.63,5.44 29.88,20.75 -16.79,4.71 -73.33,-26.97 -106.22,-27.46l6.45 6.72c6.67,5.32 51.13,16.74 58.6,34.48 -0.54,0.14 -1.91,0.78 -6.38,0.22 -15.24,-1.9 -45.84,-20.94 -66.03,-31.91l-15.48 -6.78c0.75,-2.2 0.1,-4.36 4.63,-8.48z"/>
   <path class="fil9" d="M899.5 1059.78c-8.05,1.14 -10.16,-3.48 -18.71,-6.89 -0.13,-0.51 -0.23,-1.29 -0.28,-1.56 -2.05,-11.72 -2.53,-12.55 0.93,-19.45l14.6 3.82 3.67 12.84c5.66,-8.81 -1.09,-6.72 7.92,-6.5 5.96,0.15 13.84,7.34 18.35,11.89l5.8 7.59c0.3,0.58 0.6,1.34 0.87,1.93l2.51 6.53c0.16,-0.42 0.46,1.6 0.86,2.31 2.46,-10.02 1.65,-7.48 8.28,-14.14l10.27 8.13 -3.29 15.35c-15.37,-7.61 -6.05,0.34 -19.97,-8.53 -20.33,-12.95 -10.82,2.59 -25.79,-4.74 -2.4,-12.64 2.03,-1.56 5.69,-2.83l-2.48 -8.96c-1.48,0.38 -8.5,3.11 -9.23,3.21zm-6.54 -109.46c-0.02,0.02 -16.66,6.8 10.02,17.37 9.27,3.68 16.43,7.72 23.2,9.96 -3.8,7.69 -2.95,9.27 1.79,19.23 9.45,3.78 4.28,2.42 10.58,12.18l-10.96 5.94c10.02,2.46 8.41,0.63 11.76,9.37 -3.77,1.19 -14.12,0.29 -23,2.2 1.66,5.27 3.82,3.21 7.03,10.84 -8.05,1.39 -6.77,0.81 -11.9,4.43l-3.95 -5.73c-8.06,-8.93 -27.07,-6.98 -37.81,-13.86 -4.38,-8.47 2.52,-5.55 -9.74,-5.02 1.48,6.03 0.08,1.38 3.95,5.72 11.55,12.96 6.38,5.88 4.1,23.51l-17.64 -14.33 -5.43 11.31c10.17,7.84 14.57,6.09 18.84,9.22 -6.19,8.11 -8,15.28 1.65,19.85 1.95,0.92 23.78,5.09 28.9,6.05l-30.67 -15.72c8.6,-7.52 3.85,-8.05 13.86,-7.62 13.06,0.56 16.53,8.36 16.56,8.39 20.82,22.76 3.09,-3.29 22.87,22.47 7.15,-10.21 -0.98,-6.08 19.2,-3.34 12.65,1.71 -4.97,-3.16 9.7,0.35l1.64 18.47c9.48,-2.35 4.79,-10.43 19.71,-4.58 17.48,6.86 11.15,3.87 20.27,16.41 12.54,17.25 3.6,-0.62 21.28,28.18 7.26,11.82 6.59,2.85 7.04,17.44 -16.49,-5.14 -11.37,-2.45 -25.57,-31.98 -10.47,6.54 -7.47,6.19 -17.06,-1.98l3.37 3.72c3.45,4.25 2.37,1.64 3.84,4.85 2.54,5.53 1.3,3.06 -0.83,12.4l14.25 -5.15 8.5 18.03c-8.34,-2.84 -1.5,0.09 -7.03,-4 -5.47,-4.04 -1.65,-3.1 -6.94,-4.73 -24.79,-7.61 3.12,4.16 -29.62,-16.45 -2.62,-1.65 -4.97,-3.12 -6.39,-4.66 -0.4,-0.44 -0.9,-1.07 -1.26,-1.54l-2.13 -3.57c-0.29,-0.51 -0.69,-1.54 -0.92,-1.98 -0.22,-0.43 -0.49,-1.4 -0.84,-2.05 -16.63,-2.04 -17.45,2.13 -28.77,-5.71 -7.21,9.38 5.55,-11.27 -2.48,6.45l-1.71 3.39c-11.81,-3.07 -14.87,1.66 -15.06,-12.78 -0.7,0.53 -1.69,0.49 -2.06,1.65l-8.77 6.62c0.84,2.46 -2.12,13.88 20.4,9.87 0.38,-0.07 1.17,-0.34 1.53,-0.39l8.81 0.27c18.81,-1.27 3.3,-1.07 13.48,2.7 13.76,5.09 1.83,-1.93 12.87,1.9 6.99,2.42 20.25,20.56 39.22,20.97 -4.8,11.9 10.3,-11.95 -3.21,3.41 -4.39,5 -2.47,0.19 -6.02,7.33 6.79,4.78 3.67,0.76 7.06,10.24l24.5 -8.02 12 27.98c3.54,20.91 -14.32,4.25 -21.51,1.24 4.54,10.38 -1.68,4.87 10.98,10.76l-27.39 6.47c-10.32,3.19 0.65,-4.96 -5.86,2.46 3.06,0.99 6.49,0.82 6.64,0.86 8.23,2.54 0.16,-2.14 5,3.14 4.07,4.45 -4.03,4.35 12.52,10.8 5.5,-5.63 -0.41,0.14 2.87,-4.35 0.21,-0.29 0.69,-0.99 0.93,-1.3 8.33,-10.68 10.34,-9.38 20.87,-11.24 -1.63,16.37 -4.62,6.62 0.42,21.66l-8.5 3.12c-0.52,0.24 -1.46,0.8 -1.89,1 -0.45,0.21 -1.29,0.69 -1.94,1.04 11.8,10.6 3.68,19.26 7.99,36.38 13.74,-42.56 5.76,-91.14 -0.6,-134.62l23.17 -1.74 -27.2 -9.51 -3.27 -15.78c-18.95,-3.01 -23.07,-1.57 -45.54,-25.63 1.98,-2.47 1.92,-2.78 3.55,-4.92 2.22,-2.9 2.08,-2.87 3.81,-4.75 6.96,0.58 4.07,4.22 11.03,1.19 -4.07,-8.93 -11.78,-10.16 -25.53,-7.27l-0.84 -11.05 17.44 -5.52c-16.68,-13.74 -6.28,-13.83 -26.2,-1.54 -1.66,-2.67 -7.69,2.28 6.07,-7.51l-21.2 1.51c-1.54,-22.24 -8.65,-1.4 -10.85,-25.48 15.11,4.32 6.24,0.09 14.2,11.39 3.18,-1.75 3.53,-2.29 7.04,-2.37 17.16,-0.39 -2.42,1.56 8.33,1.74 3.03,0.05 16.66,-9.4 28.37,3.48 3.78,4.16 6.94,13.49 8.85,16.12 -7.82,-22.22 -20.9,-44.17 -32.09,-61.96 -7.95,-12.63 -15.49,-12.94 -24.64,-22.07 -12.17,-12.13 -9.2,-12.28 -19.98,-14.24 -4.19,-0.76 -1.1,0.79 -6.43,-1.64 11.38,-3.96 9.05,3.8 8.37,-15.59 -0.95,0.26 -2.2,-0.08 -2.73,1.17l-9.21 4.64c-4.7,2.39 -6.1,2.9 -11.06,4.43z"/>
   <path class="fil9" d="M754.56 1392.55l-1.55 3.86c9.57,3.55 14.7,7.36 21.65,14.81l34.94 28.35c28.68,20.06 108.31,73.1 135.3,34.02 -54.23,13.58 -121.02,-47.95 -151.25,-64.28 41.71,27.48 93.31,71.74 146.67,55.03 -6.69,-19.98 -8.79,-13.23 -42.82,-25.42 -29.58,-10.6 -59.18,-29.15 -85.04,-46.46 -11.42,-7.63 -31.3,-24.16 -40.09,-27.12 -9.97,-0.48 -4.82,-1.85 -10.18,3.28 17.97,9.88 7.93,0.68 17.79,12.53l22.21 16.2c0.5,0.32 1.21,0.72 1.71,1.04l43.81 27.38c6.87,3.37 10.85,4.22 18.25,9 16.29,10.53 26.45,10.49 33.9,23.77 -29.12,-10.89 -55.94,-24.57 -81.52,-40.92 -0.87,-0.56 -3.52,-2.24 -5.02,-3.25 -3.86,-2.61 -0.9,-0.47 -4.89,-3.44l-21.75 -16.83c-0.67,-0.47 -2.69,-1.74 -3.34,-2.22 -10.21,-7.62 -4.26,-6.62 -16.22,-14.22 -7.06,-4.5 -8.51,-4.29 -13.68,-11.37 -3.26,11.46 -2.25,14.96 1.12,26.26z"/>
   <path class="fil9" d="M1325.7 1091.77c11.47,-2.19 24.3,-4.58 38.19,-3.22 18.69,1.84 16.68,2.53 23.56,18.27l3.96 11.59c0.06,0.32 1.08,8.67 1.31,10.28 1.3,8.78 2.54,12.71 2.13,22.12 -2.03,46.78 -17.59,72.65 -32.72,104.39 29.14,31.68 34.23,-6.6 37.82,-16.92 4.32,-12.42 6.56,-19.6 8.66,-34.73 4.45,-32.08 7.36,-54.19 -1.83,-85.73 6.25,7.09 7.35,12.38 8.93,20.63 0.97,5.04 2.65,11.74 3.78,17.84 -3.55,-7.83 46.01,-64.82 -4.12,-61.56 16.44,5.43 15.77,11.29 12.38,29.97 3.83,-7.63 0.28,-18.83 -5.32,-23.79 -7.39,-6.54 -17.48,-4.27 -24.73,-7.84l6.88 -14.82c0.17,-0.96 0.82,-1.09 1.2,-1.65l8.85 4.9 0.92 -5.83c-34.73,-12.78 -68.93,4.62 -95.14,15.18l5.29 0.92z"/>
   <path class="fil9" d="M831.05 1696.6c-3.58,-18.24 -2.63,-4.27 6.27,-9.7 3.12,3.75 11.54,4.77 18.54,7.81 11.37,4.94 8.1,5.8 20.24,12.19 -5.18,-10.41 -1.3,-6.53 -7.11,-8.47l19.57 -3.72c4.19,-18.89 3.49,-19.28 -4.56,-35.04 -14.98,-4.16 -57.39,-20.05 -72.65,-29.11l-64.04 -34.62 -3.16 24.61c11.69,2.99 65.44,51.41 77.29,65.08l9.61 10.97z"/>
   <path class="fil9" d="M754.53 1285.58c15.8,8.74 7.61,10.45 22.99,21.25l46.79 30.15c24.3,16.13 52.15,34.32 76.63,47.42 -6.36,-7.93 -21.43,-20.34 -31.83,-26.15 -7.88,-4.4 -8.76,-4.54 -16.47,-10.99l-33.32 -24.56c-5.68,-3.98 -10.37,-8.23 -17,-13.35 -7.01,-5.4 -10.64,-7.79 -17.22,-12.98 -5.76,-4.54 -1.99,-1.33 -8.07,-5.45 -1.02,-0.69 -4.36,-2.99 -5.26,-3.85 -5.96,-5.71 1.24,4.89 -4.66,-5.87 16.09,11.89 36.55,33.65 65.81,44.36 -6.4,-18.8 -7.74,-12.36 -14.12,-16.14 -0.51,-0.3 -1.26,-0.63 -1.74,-0.96l-34.71 -31.18c-4.73,-4.56 -2.9,-2.32 -6.94,-9.12 -7.56,2.37 -17.08,9.64 -20.88,17.42z"/>
   <path class="fil9" d="M958.59 1227.72l-14.16 16.9c-5.94,-2.04 -13.35,-2.84 -17.6,-5.56 -9.66,-6.2 2.82,-5.47 -9.86,-7.63 -1.68,4.64 0.1,2.26 0.55,4.44 0.08,0.41 1.69,1.76 0.99,4.01 8.33,3.38 6.58,-9.02 6.7,9.84 1.91,-3.14 -2.85,-2.78 8.47,-4.67l4.94 0.18c3.46,13.07 -1.18,9.8 -7.92,17.39 8.97,5.35 2.29,13.69 21.06,18.8 -6.03,-15.57 -2.33,-3.8 -11.92,-15.23 2.38,-4.31 0.18,-0.87 1.92,-5.83 0.2,-0.59 0.43,-1.38 0.65,-1.99 0.24,-0.63 0.48,-1.42 0.72,-2.02 2.6,-6.5 0.26,-2.56 4.31,-8.44l13.3 5.81 -1.43 20.09 7.09 -9.34c5.81,4.31 8.07,4.07 12.27,6.53 14.4,8.44 -5.18,-8.44 5.42,4.9l4.28 6.77c3.7,-2.59 10.46,-7.4 12.65,-9.42l5.37 -6.63c0.25,-0.25 0.9,-0.81 1.16,-1.04 0.28,-0.26 1.05,-0.75 1.34,-0.99 0.28,-0.24 1.12,-0.69 1.38,-0.92 9.36,-8.27 -6.24,-6.82 -14.67,-7.19l2.1 -15.9c-4.94,3.21 -7.03,4.16 -14.71,6.37l-0.11 -12.64c-3.52,6.21 -2.08,4.82 -10.51,3.1l1.9 -10.97 -10.39 -4.01c-0.31,0.37 -0.96,1.17 -1.27,1.52 -3.85,4.43 1.02,0.25 -4.02,3.77z"/>
   <path class="fil9" d="M1287.39 1477.32c-3.56,12.49 -3.17,8.32 -0.13,20.92 15.34,-0.79 5.32,1.64 18.18,-3.17l49.3 -25.95 -6.58 -5.07c8.87,-10.99 8.51,-22.18 10.83,-36.15 -9.55,5.31 -7.79,6.02 -16.62,13.9 -4.3,3.85 -11.99,8.92 -17.53,12.66 -12.54,8.46 -23.13,13.86 -37.45,22.86z"/>
   <path class="fil10" d="M966.52 1311.14c12.6,-1.29 18.85,-0.85 26.63,7.27 -8.66,10.76 -35.17,30.51 -44.17,18.1l12.82 -7.11 -4.41 -4.75c-2.8,-3.46 -1.75,-0.49 -3.03,-4.8 11.55,-1.95 10.96,2.43 22.34,3.34 -1.51,-10.36 -1.41,-6.23 -10.18,-12.05zm-25.21 42.87c0.31,-0.83 1.61,-2.35 2.05,-1.7l20.45 -7.6c2.81,1.6 29.46,-17.53 33.76,-22.67 3.5,-4.18 10.66,-13.46 13.91,-19.04 5.74,-9.84 8.29,-14.31 8.62,-25.16 -4.31,-17.12 3.81,-25.78 -7.99,-36.38 0.65,-0.35 1.49,-0.83 1.94,-1.04 0.43,-0.2 1.37,-0.76 1.89,-1l8.5 -3.12c-5.04,-15.04 -2.05,-5.29 -0.42,-21.66 -10.53,1.86 -12.54,0.56 -20.87,11.24 -0.24,0.31 -0.72,1.01 -0.93,1.3 -3.28,4.49 2.63,-1.28 -2.87,4.35 -16.55,-6.45 -8.45,-6.35 -12.52,-10.8 -4.84,-5.28 3.23,-0.6 -5,-3.14 -0.15,-0.04 -3.58,0.13 -6.64,-0.86 6.51,-7.42 -4.46,0.73 5.86,-2.46l27.39 -6.47c-12.66,-5.89 -6.44,-0.38 -10.98,-10.76 -6.42,-7.09 -6.65,-7.66 -14.45,-10.12 -17.11,0.25 -11.97,4.61 -21.91,12.97 2.54,5.54 2.95,5.09 5.96,11.34 -0.55,0.45 -1.42,0.89 -1.76,1.17l-7.82 9.46c-0.28,0.47 -0.9,2.54 -1.1,2.1 -0.19,-0.46 -0.58,1.53 -1.1,2.15 0,3.96 -0.76,2.91 3.31,1.61 5.04,-3.52 0.17,0.66 4.02,-3.77 0.31,-0.35 0.96,-1.15 1.27,-1.52l10.39 4.01 -1.9 10.97c8.43,1.72 6.99,3.11 10.51,-3.1l0.11 12.64c7.68,-2.21 9.77,-3.16 14.71,-6.37l-2.1 15.9c8.43,0.37 24.03,-1.08 14.67,7.19 -0.26,0.23 -1.1,0.68 -1.38,0.92 -0.29,0.24 -1.06,0.73 -1.34,0.99 -0.26,0.23 -0.91,0.79 -1.16,1.04l-5.37 6.63c-2.19,2.02 -8.95,6.83 -12.65,9.42l-4.28 -6.77c-10.6,-13.34 8.98,3.54 -5.42,-4.9 -4.2,-2.46 -6.46,-2.22 -12.27,-6.53l-7.09 9.34 1.43 -20.09 -13.3 -5.81c-4.05,5.88 -1.71,1.94 -4.31,8.44 -0.24,0.6 -0.48,1.39 -0.72,2.02 -0.22,0.61 -0.45,1.4 -0.65,1.99 -1.74,4.96 0.46,1.52 -1.92,5.83 9.59,11.43 5.89,-0.34 11.92,15.23 -18.77,-5.11 -12.09,-13.45 -21.06,-18.8 6.74,-7.59 11.38,-4.32 7.92,-17.39l-4.94 -0.18c-11.32,1.89 -6.56,1.53 -8.47,4.67 -0.12,-18.86 1.63,-6.46 -6.7,-9.84 -9.92,0.62 -11.04,3.98 -17.06,6.77 1.17,-7.4 5.42,-7.95 7.27,-12.1 -8.43,-9.92 -2.47,-5.42 -15.63,-6.83 1.37,-2.32 -0.15,-0.79 3.11,-4.27 7.7,-8.21 27.2,-3.97 34.51,-1.24l-0.01 11c6.08,-6.06 27.86,-10.98 15.45,-30.31 -20.67,-0.73 -7.6,-1 -10.03,10.01l-47.15 -6.15c-3.9,1.93 -8.37,2.78 -11.44,4.46 -11.92,6.48 -5.08,4.63 -4.51,6.19 -8.51,-19.84 4.87,1.49 6,-17.38 0.8,-13.27 -9.88,-9.04 -20.55,-8.69l-9.73 10.55c-1.15,-17.14 -1.04,-12.06 10.33,-29.68 2.55,-3.96 -1.89,-0.8 2.99,-3.41 5.13,-10.94 9.42,-10.64 19.54,-11.19 -0.69,-3.56 -7.98,0.68 1.14,-13.71 13.9,-21.97 -2.15,18.67 3.24,-5.11l-3.74 -8.81c-18.15,-4.93 -29.4,-9.65 -37.02,-20.32 -1.34,-1.87 -2.52,-3.28 -4.69,-6.1 -4.4,-5.68 -5.53,-8.14 -8.41,-13.17 -25.57,-0.31 -12.86,8.14 -24.99,10.64 -7.25,-19.21 -0.62,-1.22 -9.54,-13.46 5.58,-8.03 3.23,-4.09 10.3,-9.92 15.4,1.63 -0.22,9.35 16.93,0.41 12.35,-6.42 27.36,-9.54 35.07,2.83 4.34,6.97 2.38,10.96 3,19.77l21.13 -2.76c3.48,3.75 2.35,1.17 0.08,11.83l16.39 -3.01c-1.39,1.56 -0.67,-3.68 -1.33,4.55 0.19,14.44 3.25,9.71 15.06,12.78l1.71 -3.39c8.03,-17.72 -4.73,2.93 2.48,-6.45 11.32,7.84 12.14,3.67 28.77,5.71 0.35,0.65 0.62,1.62 0.84,2.05 0.23,0.44 0.63,1.47 0.92,1.98l2.13 3.57c0.36,0.47 0.86,1.1 1.26,1.54 1.42,1.54 3.77,3.01 6.39,4.66 32.74,20.61 4.83,8.84 29.62,16.45 5.29,1.63 1.47,0.69 6.94,4.73 5.53,4.09 -1.31,1.16 7.03,4l-8.5 -18.03 -14.25 5.15c2.13,-9.34 3.37,-6.87 0.83,-12.4 -1.47,-3.21 -0.39,-0.6 -3.84,-4.85l-3.37 -3.72c9.59,8.17 6.59,8.52 17.06,1.98 14.2,29.53 9.08,26.84 25.57,31.98 -0.45,-14.59 0.22,-5.62 -7.04,-17.44 -17.68,-28.8 -8.74,-10.93 -21.28,-28.18 -9.12,-12.54 -2.79,-9.55 -20.27,-16.41 -14.92,-5.85 -10.23,2.23 -19.71,4.58l-1.64 -18.47c-14.67,-3.51 2.95,1.36 -9.7,-0.35 -20.18,-2.74 -12.05,-6.87 -19.2,3.34 -19.78,-25.76 -2.05,0.29 -22.87,-22.47 -0.03,-0.03 -3.5,-7.83 -16.56,-8.39 -10.01,-0.43 -5.26,0.1 -13.86,7.62l30.67 15.72c-5.12,-0.96 -26.95,-5.13 -28.9,-6.05 -9.65,-4.57 -7.84,-11.74 -1.65,-19.85 -4.27,-3.13 -8.67,-1.38 -18.84,-9.22l5.43 -11.31 17.64 14.33c2.28,-17.63 7.45,-10.55 -4.1,-23.51 -3.87,-4.34 -2.47,0.31 -3.95,-5.72 12.26,-0.53 5.36,-3.45 9.74,5.02l-1.29 -7.31 -25.5 2.26 -0.11 -12.86c-11.64,1.83 -7.97,1.48 -16.68,5.86 3.02,-8.04 5.12,-16.57 12.07,-18.97 18.72,-6.46 10.17,1.4 10.34,1.5 5,2.83 -8.32,-6.05 3.29,2.69 14.09,10.61 -8.57,0.36 5.1,3.91 -9.06,-16.53 -4.73,-9.1 -0.38,-15.07 12.56,6.47 8,5.7 9.44,12.71 0.1,0.45 0.17,1.29 0.29,1.75 1.72,6.72 6.77,16.79 14.98,19.33 6.53,-7.24 2.26,5.85 5.72,-8.7 2.1,-8.83 -7.02,-9.68 -10.77,-12.46 9.51,-8.72 10.99,-9.57 24.24,-5.11 -4.76,20.74 -18.54,4.57 -6.05,19.49l33.53 4.84 -8.42 -25.57c10.22,3.3 2.51,-3.55 8.45,6.34 -4.74,-9.96 -5.59,-11.54 -1.79,-19.23 -6.77,-2.24 -13.93,-6.28 -23.2,-9.96 -26.68,-10.57 -10.04,-17.35 -10.02,-17.37 -11.12,-7.22 -12.82,1.88 -22.67,3.75 -9.9,-14.53 7.82,4.22 -2.75,-7.62 -10.18,11.1 -4.45,1.91 -21.63,7.71 -1.73,-3.24 -2.35,-5.52 -4.47,-8.35 -4.65,-6.23 -0.74,-4.1 -7.72,-6.31 -17.74,35.74 3.35,28.9 -38.03,54.64 -0.75,30.25 -49.15,121.66 -18.77,166.53 10.04,-4.26 13.26,-9.11 16.8,-15.57 0.32,-0.59 0.66,-1.32 0.95,-1.91l4.22 -10.84c2.45,3.79 3.58,6.36 4.04,11.44l-1.82 11.44c-4.68,12.58 -13.01,-6.39 -9.09,15.83 11.74,-2.91 4.34,-7.13 13.43,-1.05 -0.72,2.77 -1.49,2.83 -3.4,5.71 -3.11,4.71 -0.83,-1.56 -5.43,8.03 0.61,0.27 1.71,-0.45 1.99,0.22 0.27,0.65 1.55,0.16 1.92,0.16 13.09,0 -3.87,-4.31 10.67,-0.53 12.84,43.06 -13.4,24.74 10.64,48.54l29.36 28.44c20.32,14.6 9.07,9.74 21.65,19.51 4.59,3.57 6.66,4.72 10.97,8.32l26.98 30.51c9.89,14.2 0.83,21.36 30.51,35.09z"/>
   <path class="fil10" d="M1122.89 1064.56c30.36,7.93 221.96,94.19 242.65,110.95 -2.05,8.94 -3.26,12.69 -9.2,18.29 -6.75,-1.07 -266.76,-116.6 -326.38,-121.95 54.8,19.3 109.12,37.71 166.7,60.09 20.96,8.15 143.78,59.97 154.77,68.3 -5.56,8.67 -8.74,3.73 -21.03,-1.7 -36.41,-16.09 -141.96,-61.62 -169.01,-66.49l160.82 68.81c30.09,14.05 20.1,3.35 20.75,16.63 0,0 -0.03,4.84 -12.62,1.45l-84.55 -36.69c-25.84,-10.83 -76.37,-31.37 -101.12,-37.59 16.85,-1.33 130.38,54.98 160.59,68.01 11.7,5.05 17.5,3.49 26.62,11.29 4.11,3.51 4.05,4.87 10.9,8.91 6.5,3.84 7.77,2.57 13.57,7.6 -8.11,17.65 -10.76,17.96 1.12,27.4 10.02,7.95 23.73,12.88 37.29,8.97 20.05,-21.08 14.6,-64.37 25.84,-81.18 4.45,24.96 5.61,43.86 0.52,70.04 -13.49,69.4 -12.9,62.02 -60.3,37.58 -31.73,-16.36 -105.05,-41.47 -139.13,-58.65l16.33 3.74c-6.78,-5.61 -66.83,-25.68 -78.92,-29.01 -17.99,-4.97 -67.7,-24.7 -85.36,-21.88 12.46,3.56 38.93,14.14 54.74,19.7l172.01 64.81c-20.97,-3.57 -72.61,-28.82 -102.19,-30.94 14.48,14.89 173.04,54.57 200.46,78.35 -4.64,14.47 -8.51,17.62 -24.75,13.14 -37.25,-10.27 -44.48,-23.71 -91.87,-48.89 -50.95,-27.07 -70.25,-30.84 -117.19,-48.23l-6.33 -6.98c-19.71,-5.87 -73.85,-27.51 -94.48,-19.06 57.03,10.45 187.36,60.19 238.83,92.07 12.86,7.97 21.44,14.25 31.9,22.93 8.78,7.29 21.77,17.18 22.75,32.14 5.68,5.61 4.25,6.1 4.96,15.22l8.65 -5.29c0.59,6.98 -1.21,15.27 3.39,21.16 7.41,-19.54 29.24,-30.82 48.61,-93.91 22.46,-73.16 -1.35,-100.68 0.75,-120.99 -5.78,-15.08 -11.83,-13.95 3.84,-29.48l6.98 -6.74c1.6,1.64 4.35,4.54 6.32,7.22 7.2,9.81 -1.82,2.49 7.97,10.3l2.6 -0.64c-5.98,-13.94 -0.36,-12.36 2.86,-27.17 3.87,-17.77 -0.37,-14.56 -4.08,-24.24 -8.74,-22.85 10.9,-37.75 -35.84,-30.46l-8.85 -4.9c-0.38,0.56 -1.03,0.69 -1.2,1.65l-6.88 14.82c7.25,3.57 17.34,1.3 24.73,7.84 5.6,4.96 9.15,16.16 5.32,23.79 3.39,-18.68 4.06,-24.54 -12.38,-29.97 50.13,-3.26 0.57,53.73 4.12,61.56 -1.13,-6.1 -2.81,-12.8 -3.78,-17.84 -1.58,-8.25 -2.68,-13.54 -8.93,-20.63 9.19,31.54 6.28,53.65 1.83,85.73 -2.1,15.13 -4.34,22.31 -8.66,34.73 -3.59,10.32 -8.68,48.6 -37.82,16.92 15.13,-31.74 30.69,-57.61 32.72,-104.39 0.41,-9.41 -0.83,-13.34 -2.13,-22.12 -0.23,-1.61 -1.25,-9.96 -1.31,-10.28l-3.96 -11.59 1.28 16.48c-5.35,3.87 8.72,8.62 -10.58,1.88l-1.64 10.42c-8.96,1.85 -13.92,-3.46 -23.98,-8.27 -8.32,-3.97 -16.12,-7.84 -24.02,-11.86 -72.96,-37.15 -272.53,-135.41 -342.25,-148.29 70.74,25.03 132.01,51.2 200.66,81.08 45.93,20 158.74,84.32 189.57,90.14l-3.56 18.06c-21.85,-3.85 -284.86,-134.23 -355.39,-146.88 3.65,2.86 -1.58,-0.18 5.98,3.75l341.54 145.2c6.03,4.77 4.52,-0.68 3.87,8.74 -9.78,7.46 -48.18,-17.74 -60.38,-23.31 -18.93,-8.64 -40.5,-18.53 -59.68,-28.06 -21.81,-10.84 -108.35,-49.32 -125.98,-51.34z"/>
   <path class="fil10" d="M538.52 1495.02c4.98,4.6 60.89,31.33 74.56,39.65 48.15,29.3 62.13,27.4 57.18,52.6 -16.66,-4.16 -99.92,-57.48 -143.57,-73.2 5.81,-10.27 7.72,-8.64 11.83,-19.05zm29.7 -39.7c17.54,0.33 55,24.52 69.05,32.98 30.36,18.29 55.53,30.52 40.79,49.13 -18.97,-5.17 -80.87,-57.31 -119.14,-60.69l110.44 64.87c7.41,5.33 8.97,4.04 6.62,17.4 -13.76,-3.71 -50.6,-26.13 -66.78,-34.21 -23.26,-11.61 -42.97,-26.74 -66.38,-32.88l25.4 -36.6zm118.82 32.84l-1.39 18.79c-10,-0.22 -19.99,-9.47 -27.84,-14.37 -32,-20 -47.69,-28.63 -84.36,-41.27 9.68,-27.54 19.46,-14.1 57.55,4.95 20.09,10.04 37.08,23.72 56.04,31.9zm-56.94 -94.15l5.4 -2.5c3.61,-17.29 -0.02,-2.51 4.38,-9.66 15.36,-24.98 1.74,-6.33 7.98,-18.1 4.66,10.91 2.81,4.14 13.65,7.15 13.31,3.7 30.76,9.93 33.78,24.36 -16.75,-5.83 -26.63,-15.19 -48.21,-15.87 7.85,3.94 19.59,10.36 28.89,15.5 18.93,10.49 18.87,3.79 19.08,25.67 -13.73,-4.2 -22.98,-12.45 -39.02,-17.32 10.58,8.83 36.8,14.2 38.09,32.34 -11.56,-0.01 -23.32,-10.82 -34.04,-16.77 -16.95,-9.41 -24.36,-9.71 -29.98,-24.8zm-10.83 8.69c30.23,21.88 73.86,25.73 72.09,54.15 -17.62,-5.95 -57.79,-33.03 -74.9,-32.48l73.34 42.44 -1.25 14.53c-15.69,-5 -53.22,-31.92 -75.56,-40 -25.14,-9.1 -18.1,-0.81 -25.97,-12.11 10.48,-8.41 11.02,-6.33 20.18,-18.24l-13.11 0.3c-8.24,14.16 0.04,2.07 -13.25,12.5l-34.26 43.3c-13.1,18.76 -31.64,42.72 -41.53,61.82 -17.22,1.11 -6.25,1.79 -10.92,-4.93 -2.33,1.91 -3,1.36 -4.59,4.86l2.24 6.64c9.6,-0.11 5.2,-0.67 16.03,-4.53l4.68 5.6c3.02,-8.8 7.92,-12.04 11.79,-20.04 9.96,8.58 2.51,4.77 17.92,12.12 34.41,16.4 68.37,43.64 98.94,65.82 3.84,2.78 15.21,9.76 18.78,14.18 6.34,7.87 2.2,11.32 0.27,22.61 -18.46,-5.57 -41.22,-31.69 -63.56,-40.63 4.69,23.48 72.66,86.7 94.7,112.96 4.3,5.11 6.98,8.8 11.32,13.48 5.26,5.66 8.9,7.78 13.95,13.41 8.56,9.57 15.17,19.08 24.1,28.21 18.28,18.72 19.37,17.02 36.72,40.19 5.31,7.09 7.64,6.37 11.75,13.65 -5.21,-13.65 -9.12,-16.23 -18.51,-26.19l-31.23 -37.5c-22.15,-21.13 -13.52,-18.15 -34.28,-37.09 -9.54,-8.7 -11.02,-15.95 -21.43,-25.22l-54.7 -60.7c-9.2,-8.13 -7.02,-2.37 -11.74,-13.93 43.98,22.6 99.09,74.46 137.73,102.28 12.49,9 61.31,57.67 70.36,72.73 -5.96,-26.36 -23.07,-46.25 -37.54,-64.36 -4.22,-5.28 -6.02,-9.05 -10.77,-14.07 -11.21,-11.86 -35.08,-26.78 -37.73,-39.33 -13.46,1.83 -6.49,-6.25 -16.96,4.3 17.72,-4.53 21.07,6.65 28.55,14.53 10.57,11.12 14.32,12.83 23.17,23.45 13.92,16.7 36.06,37.36 40.41,53.44l-99.92 -87.23c-7.51,-4.6 -11.75,-11.96 -26.68,-22.84l-16.97 -16.01 10.13 0.42c5.45,-0.83 0.89,-3.77 8,-5.63 11.69,5.72 7.61,9.67 21.93,15.78 -11.66,-25.67 -24.7,-8.66 -19.47,-37.89 12.26,2.71 9.11,5.38 20.2,8.85 -3.99,-19.54 -19.51,-0.32 -14.39,-29.56 6.16,0.86 5.16,1.47 6.27,1.9 0.8,0.3 3.85,1.56 4.68,1.91l5.15 2.29c-3.66,-12.49 0.04,-5.44 -10.67,-13.77 11.4,10.48 9.66,-1.46 9.76,-1.53 -9.46,-2.94 -9.35,-1.95 -10.16,-13.07 5.87,-2.57 6.25,0.21 10.61,-2.75 -3.76,-14.31 -10.5,1.34 -1.56,-29.36 0.19,-0.65 0.47,-1.32 0.62,-2l1.76 -23.11c0.12,-0.89 1.67,-9.02 1.78,-9.41l4.81 -10.73 -4.84 -103.78c-1.89,-1.51 -16.69,-11.34 -17.19,-11.98 -5.97,-7.57 -1.09,-12 -7.09,-23.56 -10,-1.24 -5.85,-2.94 -13.45,2.13l-4.44 5.49c-0.12,-0.38 -0.42,1.03 -0.8,1.42 -14.1,-7.06 -6.19,-7.66 -19.22,-16.84 -12.83,9.81 -17.26,10.52 -19.11,20.42l-1.97 16.01c-3.26,16.44 -17.03,6.19 -13,22.28z"/>
   <path class="fil10" d="M775.41 1268.16c4.04,6.8 2.21,4.56 6.94,9.12l34.71 31.18c0.48,0.33 1.23,0.66 1.74,0.96 6.38,3.78 7.72,-2.66 14.12,16.14 -29.26,-10.71 -49.72,-32.47 -65.81,-44.36 5.9,10.76 -1.3,0.16 4.66,5.87 0.9,0.86 4.24,3.16 5.26,3.85 6.08,4.12 2.31,0.91 8.07,5.45 6.58,5.19 10.21,7.58 17.22,12.98 6.63,5.12 11.32,9.37 17,13.35l33.32 24.56c7.71,6.45 8.59,6.59 16.47,10.99 10.4,5.81 25.47,18.22 31.83,26.15 -24.48,-13.1 -52.33,-31.29 -76.63,-47.42l-46.79 -30.15c-15.38,-10.8 -7.19,-12.51 -22.99,-21.25 7.57,20.68 86.52,68.29 103.01,78.51 10.42,6.47 17.48,11.25 28.22,18.41l78.7 55.12c-4.97,-11.42 -25.02,-26.44 -35.4,-33.33 12.08,6.24 19.65,12.38 31.42,19.07 6.86,3.89 9.71,4.92 15.48,9.18 24.83,18.29 14.22,8.29 47.15,24.25 19.1,9.25 32.48,10.64 28.77,17.94 22.99,-3.96 48.3,-16.03 73.6,-6.37 17.97,1.69 15.71,-8.25 13.24,-25.3 -14.77,-4.83 -61.78,-16.77 -75.53,-23.84 -9.74,-5.02 -12.75,-5.53 -22.91,-9.45l3.66 6.73c5.81,10.82 2.76,8.5 9.01,13.38 -2.6,-14.28 -33.43,-33.2 -57.46,-38.73l5.18 5.07c12.94,13.12 2.56,6.62 13.62,17.12 6.43,6.1 10.74,12.05 18.21,17.41 -3.62,-2.86 -21.22,-22.35 -30.1,-27.59 -0.52,-0.31 -1.27,-0.64 -1.8,-0.95 -0.53,-0.3 -1.26,-0.64 -1.79,-0.94 -0.52,-0.3 -1.23,-0.67 -1.75,-0.97l-120.52 -79.86c-27.4,-20.44 -44.32,-19.55 -52.74,-40.47 6.82,3.96 9.74,6.11 14.99,9.67 18.79,12.78 53.34,36.57 73.72,46.36 -4.38,-16.46 -8.12,-16.49 -22.79,-23.35 -9.77,-4.56 -9.98,-7.49 -19.76,-13.32l-27.27 -16.52c-0.88,-0.66 -5.77,-4.45 -6.22,-4.81 -21.15,-17.14 -18.69,-9.01 -23.84,-25.39l10.78 4.96c0.65,0.38 5.84,4.3 6.67,4.93 8.53,6.52 3.89,2.47 10.91,10.78l12.36 9.74c3.19,2.02 3.45,2.51 6.86,4.58 1.09,0.66 8.83,4.63 9.2,4.82 -6.45,-14.33 -8.9,-7.42 -19.1,-20.1 -14.09,-17.52 0.13,-1.92 -20.44,-15.61 -9.1,-6.05 -8.59,-5.21 -22.97,-0.62 -15.94,5.1 -10.45,7.06 -29.97,5.41 -3.46,2.96 -0.24,1.06 -1.52,6.66z"/>
   <path class="fil10" d="M1736.56 1476.32c-16.92,1.28 -88.91,-7.33 -105.74,-11.76 41.33,-0.6 96.74,10.08 135.97,5.41 -3.91,-3.42 -0.97,-1.6 -6.79,-4.03l-156.05 -21.25c-25.08,-3.98 -145.83,-27.75 -158.98,-26.55l-2.3 3.13c65.23,15.63 200.61,30.57 232.09,39.67 -64.95,2.47 -205.29,-27.79 -216.9,-24.73 26.68,21.58 218.32,35.7 237.06,44.29 -86.93,3.93 -254.98,-32.58 -271,-30.12 20.08,19.65 166.76,38.13 207.11,41.84 27.42,2.52 50.88,0.53 79.05,3.9 -151.33,25.68 -270.57,-38.7 -307.27,-22.09l11.36 9.42c66.59,31.57 197.88,52.93 261.76,33.28 -4.49,-3.03 -6.24,-3.07 -15.31,-1.87 -61.64,8.1 -125.45,-2.26 -184.91,-19.16 -10.3,-2.92 -54.76,-19.04 -57.13,-19.16 14.75,-0.54 53.29,10.6 70.51,14.07 89.27,17.98 137.37,20.6 226.01,8.28 8.97,-1.25 12.38,-1.91 18.61,-7.32 -14.99,-0.67 -45.34,0.12 -55.71,-5.82l69.96 -1.15c-0.78,-1.7 -1.94,-3.37 -2.36,-2.7l-9.04 -5.58z"/>
   <path class="fil10" d="M609.04 1293.77c0.48,-0.54 1.13,-2.15 1.36,-1.68 0.01,0.01 -6.29,1.55 27.21,-19.55 -12.3,2.18 -20.28,-12.51 -27.34,-21.17 -8.06,-9.87 -14.9,-18.4 -21.69,-30.4l-40.56 -63.66c-0.23,5.28 0.65,3.24 -1.53,6.49 -27.35,-0.09 -82.37,-42.29 -107.38,-51.95 15.38,17.16 61.1,36.45 83.21,49.3 -47.58,-10.05 -127.72,-59.53 -160.28,-68.29 6.32,14.83 56.85,41.18 73.38,50.68l76.99 45.35c-54.47,-14.73 -126.8,-58.38 -174.96,-81.78 19.04,22.14 150.53,78.75 192.38,95.93 26.99,11.08 24.89,10.09 35.32,24.9l13.21 19.31 -205.7 -95.86c-22.15,-11.87 -44.23,-27.58 -62.87,-36.88 10.5,27.46 193.1,101.16 237.1,123.63 24.27,12.39 53.88,26.44 62.15,55.63z"/>
   <path class="fil10" d="M336.01 1160.4c33.74,20.68 18.17,14.57 24.32,28.36 -19.19,-5.03 -66.93,-35.65 -77.24,-46.03 7.38,12.29 37.46,32.47 52.62,40.16 10.84,5.5 14.36,5.92 17.32,14.6 -8.4,4.47 -13.2,0.25 -24.18,-5.06 -6.7,-3.24 -13.42,-7.38 -19.04,-11.16 -9.85,-6.63 -29,-17.14 -33.51,-24.01 8.9,11.83 25.04,27.73 41.26,35.46l45.69 26.08c2.97,2.28 2.76,2.19 4.7,4.9l-21.36 -2.85c12.87,2.12 69.68,32.07 73.74,31.5 0.34,-0.05 1.09,-0.59 1.52,-0.64 12.59,-1.41 111.36,56.88 115.46,60.49 -5.82,-11.86 -22.14,-19.05 -33.48,-25.61 -17.07,-9.86 -70.13,-34.4 -79.22,-46.01l-1.1 -1.09c-0.08,-0.05 -7.52,-3.32 -7.94,-3.51 -10.23,-4.55 -13.14,-5.63 -16.94,-13.75 0.7,-0.3 1.7,-0.51 2.21,-0.57l91.42 40.89c32.84,15.96 60.15,32.02 87.28,48.21 -11.72,-26.23 -153.63,-82.67 -185.91,-103.93 -1.29,-10 3.85,-4.72 -1.36,-9.42 -8.96,-8.06 -4.08,3.09 -9.4,-11.16 20.46,5.45 125.31,55.93 152.77,71.35l43.28 27.15c-17.66,-28.37 -94.36,-56.57 -136.3,-76.73l-71.83 -35.53c-12.71,-6.41 -62.12,-36.3 -70.25,-37.52l35.47 25.43z"/>
   <path class="fil10" d="M1539.63 1551.02c-4.81,-4.77 2.06,-1.29 -10.28,-4.32l-75.74 -13.83c-16.19,-2.24 -15.72,-8.09 -36.71,-8.45 -7.99,-0.13 -30.32,-0.29 -35.38,-5.23 -6.99,-6.81 -6.75,9.6 -5.19,-11.16 -9.88,6.98 0.33,-0.08 -7.02,7.32 -18.76,18.9 -50.25,19.83 -61.02,26.11 4.22,11.67 -8.06,3.32 10.33,9.89 35.27,12.6 189.05,3.74 221.01,-0.33z"/>
   <path class="fil10" d="M1322.75 1412.76c-1.13,8.81 3.01,1.43 -6.23,8.93 -13.74,11.16 -22.53,9.33 -38.39,18.86l-35.01 19.82c10.67,6.09 14.45,11.69 26.5,7.39 16.13,-5.75 55.95,-29.58 65.01,-36.24l12.36 -12.34c-10.4,4.73 -22.33,12.93 -33.53,13.18 24.85,-12.3 41.89,-24.59 49.12,-50.62 -8.86,8.27 -26.29,25.44 -39.83,31.02z"/>
   <path class="fil10" d="M742.13 1271.68c16.65,-4.49 13.78,-9.12 32.07,-16.61 -0.23,-0.71 -0.79,-2.46 -0.89,-2.07 -0.09,0.4 -0.68,-1.65 -0.8,-2.15l-1.07 -8.42c20,-3.2 29.91,-4.89 36,-9.21 -13.36,-12.2 -14.47,-2.46 -28.58,-1.24 -13.84,1.2 -12.06,-2.68 -15.66,-6.99 4.79,-1.09 11.81,-2.34 17.11,-3.81l11.5 -4.45c-6.19,-4.67 -8.64,-12.56 -13.79,-19.93 -1.88,3.4 -8.21,9.82 -11.71,14.77 -3.43,4.84 -7.66,13.92 -11.47,18.83 -13.5,17.34 -19.14,-1.33 -12.71,41.28z"/>
   <path class="fil10" d="M1288.66 1014.99c-0.99,-8.04 3.24,-1.39 -2.38,-5.79 -5.03,-3.92 1.58,-2.35 -8.66,-2.37 -18.03,-1.95 -38.02,-25.59 -56.38,-24.08 3.7,-0.43 57.69,37.21 70.51,61.42 -12.43,-3.28 -2.87,0.39 -18.33,-11.05 -9.97,-7.37 -21.86,-24.17 -51.04,-33.7l67.08 50.6c3.81,3.16 18.69,14.34 24.12,16.74 -15.92,-32.93 -25.71,-27.66 -36.01,-49.93 6.21,3.26 10.65,5.2 15.36,8.07 10.55,6.44 15.77,20.69 28.88,24.86 -0.05,-0.03 -13.67,-13.41 -16.16,-15.91l-16.99 -18.86z"/>
   <path class="fil10" d="M880.79 1052.89c8.55,3.41 10.66,8.03 18.71,6.89 0.73,-0.1 7.75,-2.83 9.23,-3.21l2.48 8.96c-3.66,1.27 -8.09,-9.81 -5.69,2.83 14.97,7.33 5.46,-8.21 25.79,4.74 13.92,8.87 4.6,0.92 19.97,8.53l3.29 -15.35 -10.27 -8.13c-6.63,6.66 -5.82,4.12 -8.28,14.14 -0.4,-0.71 -0.7,-2.73 -0.86,-2.31l-2.51 -6.53c-0.27,-0.59 -0.57,-1.35 -0.87,-1.93l-5.8 -7.59c-4.51,-4.55 -12.39,-11.74 -18.35,-11.89 -9.01,-0.22 -2.26,-2.31 -7.92,6.5l-3.67 -12.84 -14.6 -3.82c-3.46,6.9 -2.98,7.73 -0.93,19.45 0.05,0.27 0.15,1.05 0.28,1.56z"/>
   <path class="fil11" d="M300.54 1134.97c8.13,1.22 57.54,31.11 70.25,37.52l71.83 35.53c41.94,20.16 118.64,48.36 136.3,76.73l-43.28 -27.15c-27.46,-15.42 -132.31,-65.9 -152.77,-71.35 5.32,14.25 0.44,3.1 9.4,11.16 5.21,4.7 0.07,-0.58 1.36,9.42 32.28,21.26 174.19,77.7 185.91,103.93 -27.13,-16.19 -54.44,-32.25 -87.28,-48.21l-91.42 -40.89c-0.51,0.06 -1.51,0.27 -2.21,0.57 3.8,8.12 6.71,9.2 16.94,13.75 0.42,0.19 7.86,3.46 7.94,3.51l1.1 1.09c9.09,11.61 62.15,36.15 79.22,46.01 11.34,6.56 27.66,13.75 33.48,25.61 -4.1,-3.61 -102.87,-61.9 -115.46,-60.49 -0.43,0.05 -1.18,0.59 -1.52,0.64 -4.06,0.57 -60.87,-29.38 -73.74,-31.5l21.36 2.85c-1.94,-2.71 -1.73,-2.62 -4.7,-4.9l-45.69 -26.08c-16.22,-7.73 -32.36,-23.63 -41.26,-35.46 4.51,6.87 23.66,17.38 33.51,24.01 5.62,3.78 12.34,7.92 19.04,11.16 10.98,5.31 15.78,9.53 24.18,5.06 -2.96,-8.68 -6.48,-9.1 -17.32,-14.6 -15.16,-7.69 -45.24,-27.87 -52.62,-40.16 10.31,10.38 58.05,41 77.24,46.03 -6.15,-13.79 9.42,-7.68 -24.32,-28.36l-35.47 -25.43zm233.4 -37.53c12.63,5.58 17.75,1.05 25.13,13.47l2.68 5.59c2.89,5.98 1.43,-0.49 5.12,10.96 -27.25,-0.84 -55.87,-20.5 -83.33,-23.2l12.9 15.95c-9.33,-3.47 -6.69,-6.45 -17.87,-11.48 -7.53,-3.4 -13.66,-3.7 -21.15,-6.67 -53.39,-21.18 -17.57,-0.23 -42.13,-4.68l-2.17 -14.1c27.82,-8.9 95.45,10.14 120.82,14.16zm-269.13 108.76c2.34,1.7 7.03,4.37 8.73,5.79 9.45,7.89 5.59,3.62 8.21,13.33 16.27,17.79 90.45,58.59 119.41,73.65 20.5,10.67 119.13,60.15 128.74,68.15 17.39,-12.94 49.9,-57.69 79.14,-73.35 -8.27,-29.19 -37.88,-43.24 -62.15,-55.63 -44,-22.47 -226.6,-96.17 -237.1,-123.63 18.64,9.3 40.72,25.01 62.87,36.88l205.7 95.86 -13.21 -19.31c-10.43,-14.81 -8.33,-13.82 -35.32,-24.9 -41.85,-17.18 -173.34,-73.79 -192.38,-95.93 48.16,23.4 120.49,67.05 174.96,81.78l-76.99 -45.35c-16.53,-9.5 -67.06,-35.85 -73.38,-50.68 32.56,8.76 112.7,58.24 160.28,68.29 -22.11,-12.85 -67.83,-32.14 -83.21,-49.3 25.01,9.66 80.03,51.86 107.38,51.95 2.18,-3.25 1.3,-1.21 1.53,-6.49l-1.09 -8.2c18.52,-10.43 29.8,-8.66 50.49,-8.34 3.36,-1.3 -0.92,-2.46 -7.01,-9.09 -5.54,-6.04 -6.54,-7.89 -12.69,-12.27 4.36,-6.18 0.46,0.17 0.36,0.28l-7.03 6.33 -2.04 -7.05c-6.83,-10.47 -20.33,-23.72 -35.07,-21.53 -48.81,-22.53 -116.29,-29.64 -174.21,-15.05 -50.07,12.61 -99.48,50.19 -109.7,95.87 15.53,16.17 14.75,0.84 14.78,27.94z"/>
   <path class="fil11" d="M512.49 1536.55c15.83,10.05 33.76,32.98 46.94,48.93 47.99,58.08 181.89,259.99 223.32,276.68 19.66,-0.76 4.27,-8.01 21.49,-11.11 0.54,-0.09 9.2,0 10.68,-0.02l7.56 -32.94c1.67,-5.74 3.42,-0.47 -0.02,-12.11l16.68 -2.62c0.86,-0.25 3.35,-0.96 4.18,-1.23 14.54,-4.71 6.57,-0.98 13.17,-13.75l11.55 -0.28 21.58 -45.5c0.09,-16.08 -3.03,-28.86 -13.52,-35.7 -12.14,-6.39 -8.87,-7.25 -20.24,-12.19 -7,-3.04 -15.42,-4.06 -18.54,-7.81 -8.9,5.43 -9.85,-8.54 -6.27,9.7l-1.95 2.9c-20.04,-13.77 -65.87,-50.04 -87.51,-56.44l-2.26 26.07c2.65,12.55 26.52,27.47 37.73,39.33 4.75,5.02 6.55,8.79 10.77,14.07 14.47,18.11 31.58,38 37.54,64.36 -9.05,-15.06 -57.87,-63.73 -70.36,-72.73 -38.64,-27.82 -93.75,-79.68 -137.73,-102.28 4.72,11.56 2.54,5.8 11.74,13.93l54.7 60.7c10.41,9.27 11.89,16.52 21.43,25.22 20.76,18.94 12.13,15.96 34.28,37.09l31.23 37.5c9.39,9.96 13.3,12.54 18.51,26.19 -4.11,-7.28 -6.44,-6.56 -11.75,-13.65 -17.35,-23.17 -18.44,-21.47 -36.72,-40.19 -8.93,-9.13 -15.54,-18.64 -24.1,-28.21 -5.05,-5.63 -8.69,-7.75 -13.95,-13.41 -4.34,-4.68 -7.02,-8.37 -11.32,-13.48 -22.04,-26.26 -90.01,-89.48 -94.7,-112.96 22.34,8.94 45.1,35.06 63.56,40.63 1.93,-11.29 6.07,-14.74 -0.27,-22.61 -3.57,-4.42 -14.94,-11.4 -18.78,-14.18 -30.57,-22.18 -64.53,-49.42 -98.94,-65.82 -15.41,-7.35 -7.96,-3.54 -17.92,-12.12 -3.87,8 -8.77,11.24 -11.79,20.04z"/>
   <path class="fil11" d="M1423.98 1182.71c22.7,38.16 21.12,109.28 0.86,146.76 7.4,-3.37 4.21,0.33 8.69,-10.99l9.64 -37.6c0.01,3.22 -0.42,10.22 -0.09,12.89l2.76 8.84c0.13,-0.38 0.64,1.32 1.12,1.87 17.29,-21.94 9.03,-79.52 1.95,-104.24l1.85 1.11c0.05,0.01 0.58,0.01 0.63,0l1.83 -1.11c26.72,60.06 25.11,142.39 -15.3,191.32 -4.15,5.02 -6.44,9.27 -10.28,14.73 -1.32,1.88 -3.22,4.61 -4.54,6.45l-10.76 13.97c-7.76,11.49 -2.62,5.57 -10.81,11.11 -3.18,2.16 -1.49,0.37 -6.32,4.67l-15.63 20.13c-4.45,7.63 -3.87,-0.79 -1.8,4.73 12.63,-8.43 20.52,-14.37 30.02,-25.97 45.62,-55.7 79.39,-117.61 65.42,-195.63 -7.82,-43.67 -20.54,-53.86 -29.48,-78.72 0.5,0.48 1.17,1.15 1.47,1.48l14.38 21.85c4.68,8.79 8.44,16.89 12.12,26.24 8.47,21.58 11.9,39.11 13.31,63.32l9.83 2.43c0.5,0.26 3.21,2.05 3.86,2.36l32.75 11.58c13.58,5.79 14.82,5.2 28.02,8.17 31.53,7.1 20.13,5.43 27.51,0.22l-36.65 -14.57c-4.49,-1.66 -8.48,-2.7 -12.96,-4.22l-27.29 -10.85c-0.56,-0.25 -1.28,-0.57 -1.86,-0.8l-20.07 -8.06c15.82,-16.38 15.67,0.31 56.99,10.57 53.55,13.3 114,38.73 159.77,60.5 0.59,0.28 1.32,0.58 1.93,0.86l9.63 4.39c0.5,0.26 6.29,3.8 6.69,4.05l13.24 9.03c0.49,0.33 1.17,0.77 1.66,1.1 2.73,1.79 3.08,1.77 6.58,4.24 5.76,4.06 8.36,6.03 13.03,11.31l-8.25 -7.42c-3.03,-2.34 -2.6,-1.62 -6.25,-4.75 -3.34,-2.87 -2.08,-2.15 -7.03,-6.38l-11.95 -10.2c-17.29,-14.22 -36.06,-22.36 -55.72,-32.46 -11.13,-5.72 -20.74,-9.63 -33.65,-15.35l-141.17 -54.22c10.07,-10.9 -2.53,-3.56 10.4,-5.71 6.28,-1.04 45.29,16.88 52.11,19.2 27.28,9.29 150.93,52.44 165.39,77.22l-1.69 -2.82c0.05,-0.33 0.69,-1.13 0.75,-2.18 0.07,-1.21 0.49,-1.72 0.94,-2.48 9.82,3.56 7.35,-0.97 10.99,8.88 -3.66,1.44 -2.2,-4.87 0,-8.18l9.68 10.67c0.04,0.18 -0.06,0.92 -0.02,1.09 0.03,0.16 -0.04,0.83 0,0.97 1.78,5.85 19.7,18.74 24.59,25.8l3.38 4.86c1.32,1.7 3.26,3.65 5.03,5.86 4.73,5.9 6.28,9 11.27,14.33 6.1,6.51 4.24,6.14 8.97,12.08 6.97,8.77 14,16.14 18.42,28.38 -5.35,-4.42 -4.59,-1.9 -10.84,-8.23 -13.35,-13.55 -15.02,-10.01 -34.77,-31.32 4.8,14.97 5.57,9.04 16.43,19.54 -7.22,-9.5 -8.61,-7.25 -17.3,-13.22l-4.65 -3.58c-0.47,-0.32 -1.13,-0.78 -1.62,-1.1 -0.49,-0.32 -1.19,-0.73 -1.69,-1.04l-18.93 -11.46c-0.49,-0.32 -1.17,-0.76 -1.66,-1.07 -0.47,-0.32 -1.14,-0.78 -1.61,-1.09 -11.86,-7.81 0.77,-0.93 -14.32,-7.51 -4.97,-2.16 -8.36,-4.16 -13.18,-6.64 -7.91,-4.05 -18.06,-9.47 -25.25,-12.39 -0.78,-0.32 -3.08,-1.14 -3.88,-1.43l-7.8 -2.73c-27.72,-10.36 -50.6,-15 -80.42,-24.4 -9.96,-3.14 -23.8,-10.14 -32.82,-3.34l10.41 7.65c0.69,0.3 1.39,0.53 2.12,0.79 15.24,5.49 23.8,2.49 39.1,7.21l55.97 19.11c28.27,11.16 63.36,22.53 86.75,39.74l22.66 18.74c0.62,0.52 2.29,2.09 2.92,2.6 0.44,0.36 1.04,0.9 1.49,1.26l4.88 3.51c9.82,8.53 5.31,-7.45 6.48,8.8 1.14,7.43 -2.46,-1.07 2.01,5.03 3.61,4.93 1.02,1.2 3.92,3.96 9.01,8.56 6.44,-2.25 6.74,10.45 -8.81,27.2 -52.56,61.51 -58.95,68.64 -5.66,-11.27 3.34,12.86 -1.18,-5.88 -1.27,-5.3 1.24,-0.66 -1.35,-4.27 -9.54,6.17 -4.04,5.41 -10.85,15.95l-31.33 42.91c-27.32,-2.3 -82.86,-25.04 -161.72,-13.59 -31.96,4.07 -185.74,12.93 -221.01,0.33 -18.39,-6.57 -6.11,1.78 -10.33,-9.89 10.77,-6.28 42.26,-7.21 61.02,-26.11 7.35,-7.4 -2.86,-0.34 7.02,-7.32l8.98 -12.18c-9.65,3.02 -8.51,13.26 -20.9,14.15 -14.91,1.05 -10.83,-9.47 -28.74,-0.73 -20.35,9.94 -33.38,17.39 -59.53,18.33 6.87,19.19 -3.61,16.3 -20.96,22.36 60.52,25.47 255.93,15.49 323.59,14.38 143.85,-2.35 100.33,32.7 172.4,-26.66 18.66,-15.37 43.36,-48.12 55.42,-71.09 16.71,-31.82 18.58,-32.65 1.19,-61.3 -95.62,-157.46 -282.19,-166.28 -358.69,-241.28 -9.79,-7.81 -0.77,-0.49 -7.97,-10.3 -1.97,-2.68 -4.72,-5.58 -6.32,-7.22l-6.98 6.74c-15.67,15.53 -9.62,14.4 -3.84,29.48z"/>
   <path class="fil11" d="M978.41 1342.9c-4.53,4.12 -3.88,6.28 -4.63,8.48l15.48 6.78c20.19,10.97 50.79,30.01 66.03,31.91 4.47,0.56 5.84,-0.08 6.38,-0.22 -7.47,-17.74 -51.93,-29.16 -58.6,-34.48l-6.45 -6.72c32.89,0.49 89.43,32.17 106.22,27.46 2.75,-15.31 10.65,-5.82 -29.88,-20.75 -14.53,-5.35 -26.04,-11.03 -38.73,-16.89l4.35 -1.75c0.53,-0.13 1.55,-0.51 2.22,-0.63 10.47,-1.88 51.48,12.83 62.9,16.96 2.01,-2.98 0.16,0.95 0.69,-2.02l0.16 -1.88c-2.39,-5.39 -50.02,-17.54 -79.82,-34.84 14.27,1.12 19.94,4.7 33.55,10.39 11.51,4.81 23.29,8.11 35.95,13.53 40.52,17.34 104.71,34.48 150.31,50.61 26.06,9.22 50.1,11.67 78.21,23.92 13.54,-5.58 30.97,-22.75 39.83,-31.02 -0.71,-9.12 0.72,-9.61 -4.96,-15.22 -2.5,5.55 -25.39,-5.49 -35.99,-8.84 -74.68,-23.58 -127.93,-40.8 -203.43,-71.4 -14.3,-5.8 -24.1,-11.95 -37.52,-17.07 -0.85,-0.32 -11.34,-2.26 -18.17,-8.4 -5.82,-5.24 -9.51,-9.72 -12.61,-15.85l70.29 30.52c22.59,9.33 43.43,17.7 68.97,27.26 6.51,2.44 128.33,48.25 134.49,47.02 12.36,-2.48 1.51,3.88 10.71,-6.61 -25.8,-3.91 -153.78,-54.67 -182.02,-66.09 -11.43,-4.62 -22.62,-9.26 -34.89,-14.6 -35.74,-15.55 -36.86,-21.81 -70.05,-21.45 0.35,-19 4.11,-30.95 -4.14,-47.51 3.25,75.48 -6.54,125.84 -64.85,149.4z"/>
   <path class="fil11" d="M1005.33 1043.78c0.05,-6.36 -0.36,-5.41 1.3,-8.72 27.18,-1.44 40.36,4.97 61.43,12.26 17.34,6 38.38,17.55 54.83,17.24 17.63,2.02 104.17,40.5 125.98,51.34 19.18,9.53 40.75,19.42 59.68,28.06 12.2,5.57 50.6,30.77 60.38,23.31 0.65,-9.42 2.16,-3.97 -3.87,-8.74l-341.54 -145.2c-7.56,-3.93 -2.33,-0.89 -5.98,-3.75 70.53,12.65 333.54,143.03 355.39,146.88l3.56 -18.06c-30.83,-5.82 -143.64,-70.14 -189.57,-90.14 -68.65,-29.88 -129.92,-56.05 -200.66,-81.08 69.72,12.88 269.29,111.14 342.25,148.29 7.9,4.02 15.7,7.89 24.02,11.86 10.06,4.81 15.02,10.12 23.98,8.27l1.64 -10.42c-13.12,-9.16 -38.31,-21.29 -54.07,-25.82 -14.02,-12.18 -7.22,-3.02 -24.56,-6.92l-70.21 -34.44c-61.02,-28.05 -240.74,-107.4 -297.15,-119.5l11.49 12.56c4.82,4.62 5.95,6.45 10.4,11.51 7.52,8.52 12.71,14.58 19.32,24.55 7.32,11.04 25.57,49.49 31.96,56.66z"/>
   <path class="fil11" d="M1766.43 1482.25l-4.4 -1.83c-9,-3.04 -15.75,-6.04 -25.47,-4.1l9.04 5.58c0.42,-0.67 1.58,1 2.36,2.7l-69.96 1.15c10.37,5.94 40.72,5.15 55.71,5.82 -6.23,5.41 -9.64,6.07 -18.61,7.32 -88.64,12.32 -136.74,9.7 -226.01,-8.28 -17.22,-3.47 -55.76,-14.61 -70.51,-14.07 2.37,0.12 46.83,16.24 57.13,19.16 59.46,16.9 123.27,27.26 184.91,19.16 9.07,-1.2 10.82,-1.16 15.31,1.87 -63.88,19.65 -195.17,-1.71 -261.76,-33.28l-11.36 -9.42c36.7,-16.61 155.94,47.77 307.27,22.09 -28.17,-3.37 -51.63,-1.38 -79.05,-3.9 -40.35,-3.71 -187.03,-22.19 -207.11,-41.84 16.02,-2.46 184.07,34.05 271,30.12 -18.74,-8.59 -210.38,-22.71 -237.06,-44.29 11.61,-3.06 151.95,27.2 216.9,24.73 -31.48,-9.1 -166.86,-24.04 -232.09,-39.67l2.3 -3.13 -0.46 -3.76c-21.44,21.14 -26.42,36.55 -63.96,66.16l44.2 16.22c109.05,35.62 246.88,53.92 341.68,-14.51z"/>
   <path class="fil11" d="M489.54 1528.84c1.59,-3.5 2.26,-2.95 4.59,-4.86 9.65,-42.67 88.38,-149.19 127.55,-185.07l54.57 -47.97c-4.22,-4.66 0.56,-3.13 -8.3,3.15 -27.2,19.26 -20.3,18.62 -29.91,25.64l-18.93 11.17c-8.45,7.16 2.23,1.52 -14.35,12.97 -13.46,9.29 -21.77,18.8 -31.52,31.9l-26.31 31.28c-2.46,1.79 -3.43,2 -5.04,3.34 -5.99,5 -10.92,14.05 -14.03,20.63l14.71 -25.41c20.68,-37.06 40.3,-35.02 58.59,-67.95 -19.33,3.55 -15.12,5.19 -24.94,18.8 -6.43,8.92 -13.17,10.3 -19.97,18.77 -4.85,6.04 -2.79,5.75 -7.45,11.81 -6.81,8.87 -2.5,1.88 -9.97,9.08 -12.11,11.65 -4.23,7.56 -22.77,18.45 5.85,-23.47 29.42,-43.53 46.99,-57.57 26.32,-21.04 28.78,-38 43.93,-49.43 45.03,-33.95 19,-14.3 37.7,-10.58 10,-14.58 10.53,-4.85 22.47,-18.89l5.13 -3.68c0.01,-16.35 1.63,-5.25 -6.35,-9.47 -37.99,11.84 -79.33,57.35 -98.06,72.45 -15.92,12.84 -15.16,16.98 -26.9,30.73 -24.67,28.89 -70.9,99.52 -78.93,148.13l27.5 12.58z"/>
   <path class="fil11" d="M673.04 1257.77c-0.7,-0.45 -1.74,-1.13 -2.09,-1.39 -0.24,-0.2 -1.11,-0.85 -1.39,-1.07 -0.34,-0.26 -1.32,-1.09 -1.64,-1.35 -0.36,-0.28 -1.2,-1.01 -1.81,-1.51 1.02,-27.47 -8.75,-34.06 -20.6,-47.1 -4.68,-5.16 -6.41,-9.89 -9.52,-15.5 -9.95,-17.95 -27.35,-40.45 -53.04,-40.31 -10.14,-0.14 -10.41,-0.53 -18.82,5.54 1.52,12.17 67.83,108.41 80.98,116.2l27.93 -13.51z"/>
   <path class="fil11" d="M542.82 1491.92c23.41,6.14 43.12,21.27 66.38,32.88 16.18,8.08 53.02,30.5 66.78,34.21 2.35,-13.36 0.79,-12.07 -6.62,-17.4l-110.44 -64.87c38.27,3.38 100.17,55.52 119.14,60.69 14.74,-18.61 -10.43,-30.84 -40.79,-49.13 -14.05,-8.46 -51.51,-32.65 -69.05,-32.98l-25.4 36.6z"/>
   <path class="fil11" d="M1305.27 1070.97c16.53,1.54 24.97,-4.73 23.72,-20.96 -10.36,-10.9 -6.43,-9.36 -18.93,-17.89 -6.43,-4.39 -4.65,-3.47 -10.58,-8.54 -3.8,-3.25 -5.65,-4.11 -10.82,-8.59l16.99 18.86c2.49,2.5 16.11,15.88 16.16,15.91 -13.11,-4.17 -18.33,-18.42 -28.88,-24.86 -4.71,-2.87 -9.15,-4.81 -15.36,-8.07 10.3,22.27 20.09,17 36.01,49.93 -5.43,-2.4 -20.31,-13.58 -24.12,-16.74l-67.08 -50.6c29.18,9.53 41.07,26.33 51.04,33.7 15.46,11.44 5.9,7.77 18.33,11.05 -12.82,-24.21 -66.81,-61.85 -70.51,-61.42 18.36,-1.51 38.35,22.13 56.38,24.08 -16.15,-13.34 -31.8,-23.52 -52.51,-35.48 -12.97,-7.48 -15.89,-8.9 -31.17,-2.66 -11.2,4.58 -20.92,8.57 -28.85,17.21 3.43,3.23 64.84,30.61 75.3,36.4 41.94,23.24 44.19,34.76 64.88,48.67z"/>
   <path class="fil11" d="M722.37 1673.43c-10.89,-5.4 -8.79,-4.07 -8.53,-16.82l3.9 -70.57c0.71,-25.9 -1.03,-71.9 2.64,-94.93l-4.81 10.73c-0.11,0.39 -1.66,8.52 -1.78,9.41l-1.76 23.11c-0.15,0.68 -0.43,1.35 -0.62,2 -8.94,30.7 -2.2,15.05 1.56,29.36 -4.36,2.96 -4.74,0.18 -10.61,2.75 0.81,11.12 0.7,10.13 10.16,13.07 -0.1,0.07 1.64,12.01 -9.76,1.53 10.71,8.33 7.01,1.28 10.67,13.77l-5.15 -2.29c-0.83,-0.35 -3.88,-1.61 -4.68,-1.91 -1.11,-0.43 -0.11,-1.04 -6.27,-1.9 -5.12,29.24 10.4,10.02 14.39,29.56 -11.09,-3.47 -7.94,-6.14 -20.2,-8.85 -5.23,29.23 7.81,12.22 19.47,37.89 -14.32,-6.11 -10.24,-10.06 -21.93,-15.78 -7.11,1.86 -2.55,4.8 -8,5.63l-10.13 -0.42 16.97 16.01c14.93,10.88 19.17,18.24 26.68,22.84l99.92 87.23c-4.35,-16.08 -26.49,-36.74 -40.41,-53.44 -8.85,-10.62 -12.6,-12.33 -23.17,-23.45 -7.48,-7.88 -10.83,-19.06 -28.55,-14.53z"/>
   <path class="fil11" d="M607.2 1410.99c-9.16,11.91 -9.7,9.83 -20.18,18.24 7.87,11.3 0.83,3.01 25.97,12.11 22.34,8.08 59.87,35 75.56,40l1.25 -14.53 -73.34 -42.44c17.11,-0.55 57.28,26.53 74.9,32.48 1.77,-28.42 -41.86,-32.27 -72.09,-54.15 -6.23,3.08 -8.97,5.17 -12.07,8.29z"/>
   <path class="fil11" d="M526.69 1514.07c43.65,15.72 126.91,69.04 143.57,73.2 4.95,-25.2 -9.03,-23.3 -57.18,-52.6 -13.67,-8.32 -69.58,-35.05 -74.56,-39.65 -4.11,10.41 -6.02,8.78 -11.83,19.05z"/>
   <path class="fil11" d="M635.5 1391.51l-5.4 2.5c5.62,15.09 13.03,15.39 29.98,24.8 10.72,5.95 22.48,16.76 34.04,16.77 -1.29,-18.14 -27.51,-23.51 -38.09,-32.34 16.04,4.87 25.29,13.12 39.02,17.32 -0.21,-21.88 -0.15,-15.18 -19.08,-25.67 -9.3,-5.14 -21.04,-11.56 -28.89,-15.5 21.58,0.68 31.46,10.04 48.21,15.87 -3.02,-14.43 -20.47,-20.66 -33.78,-24.36 -10.84,-3.01 -8.99,3.76 -13.65,-7.15 -6.24,11.77 7.38,-6.88 -7.98,18.1 -4.4,7.15 -0.77,-7.63 -4.38,9.66z"/>
   <path class="fil11" d="M573.45 1451.31c36.67,12.64 52.36,21.27 84.36,41.27 7.85,4.9 17.84,14.15 27.84,14.37l1.39 -18.79c-18.96,-8.18 -35.95,-21.86 -56.04,-31.9 -38.09,-19.05 -47.87,-32.49 -57.55,-4.95z"/>
   <path class="fil11" d="M699.22 1097.44l-10.97 -1.03c-16.24,2.96 -14.88,5.97 -17.24,7.13l-7.54 2.35c-0.52,0.14 -1.59,0.25 -2.32,0.56 37.43,9.87 20.91,26.08 44.27,36.38l-14.5 -25.01c7.7,4.11 9.63,7.57 15.88,15.31 2.52,3.12 4.26,4.88 6.34,7.85 5.78,8.25 4.61,2.61 3.38,8.36 -3.42,-11.12 -9.43,-17.12 -13.07,-30.36 7.63,3.92 3.75,1.36 8.8,5.97l14.6 19.31c1.14,-17.23 -12.86,-30.83 -23.15,-41.54 -0.48,-0.5 -1.08,-1.18 -1.51,-1.65l-2.97 -3.63z"/>
   <path class="fil11" d="M748.81 1624.28c-0.38,-0.11 -1.69,0.69 -1.98,-0.03 -0.29,-0.75 -1.38,0.06 -2.46,0.11l-1.5 14.98c17.04,5.19 47.55,35.75 71.07,43.12 -6.46,-15.72 -44.2,-46.89 -59.65,-56.01 -2.3,-1.36 -3.07,-1.5 -5.48,-2.17z"/>
   <path class="fil1" d="M869.82 1885c-10.46,8.64 -15.46,25.98 -26.31,30.83l8.57 3.84c35.17,0.11 74.76,5.06 111.57,6.19 106.46,3.25 219.54,-4.75 323.3,-22.56 213.83,-36.71 493.75,-139.78 598.19,-327.75 69.62,-125.3 46.44,-249.82 -30.77,-345.37 0.59,7.28 23.3,47.6 33.04,75.98 31.05,90.38 9.99,183.93 -38.31,257.97 -144.69,221.8 -505.2,314.49 -767.98,324.87 -74.36,2.94 -138.26,-1.48 -211.3,-4z"/>
   <path class="fil1" d="M1738 1317.74c8.51,10.6 20.59,21.76 30.57,28.76 -6.8,-62.26 -36.19,-106.72 -66.6,-137.62 -24.7,-25.09 -78.33,-63.67 -123.35,-76.64 69.18,38.67 139.44,83.55 160.85,168.8 0.43,1.74 1.58,7.28 1.48,9.04 -0.57,10.14 4.69,4.38 -2.95,7.66z"/>
   <path class="fil12" d="M168.68 1224.96c-1.02,7.13 -20.66,40.15 -26.61,54.45 -8.68,20.86 -15.05,39.32 -19.49,62.55 -42.55,222.49 177.22,378.76 355.47,451.41 49.19,20.05 198.31,71.21 254.18,71.85 5.51,-4.18 6.59,-4.94 -8.54,-11.61l-9.91 -4.43c-43.84,-12.49 -89.76,-20.9 -134.09,-33.83 -121.43,-35.43 -246.22,-101.27 -331.71,-179.26 -96.59,-88.13 -155.01,-227.49 -86.94,-365.21 13.54,-27.41 52.21,-86.69 71.7,-98.04 1.84,-17.97 12.11,-27.81 21.34,-41.48 -12.39,8.05 -34.05,31.07 -45.17,44.56 -6.95,8.44 -12.3,14.64 -20.05,24.01 -9.24,11.17 -14.75,10.08 -20.18,25.03z"/>
   <path class="fil13" d="M1253.78 1560.49c-3.96,5.23 0.7,2.01 -6.76,5.19 -1.95,0.83 -4.36,1.16 -6.44,1.43 -4.93,0.62 -12.11,0.4 -17.19,0.47 6.48,16.21 12.22,16.51 29.76,21.84 128.16,38.93 239.81,10.48 314.3,17.37 -17.34,12.47 -99.9,43.35 -126.49,51.38 -140.26,42.35 -309.37,76.03 -458.76,74.01 7.92,-16.81 38.34,-51.68 51.4,-66.23 25.7,-28.63 88.53,-104.96 122.15,-109.1 45.41,-5.6 26.54,-47.61 24.75,-78.29l46.56 10.72c0.75,-10.25 -3.18,-2.36 2.96,-7.78 14.99,3.85 6.55,2.66 10.5,-1.23l5.54 -5.37c0.04,-0.02 5.62,-2.43 6,-2.61 -8.38,-8.3 -29.29,-10.95 -40.71,-13.64 -10.39,-2.45 -32.89,-11.86 -41.9,-4.86 6.07,15.43 13.55,29.58 7.23,50.39 -5.63,18.55 -15.9,22.2 -37.28,22.92 -30.69,22.44 -68.21,56.93 -92.69,85.99 -58.97,69.99 -99.47,120.38 -154.08,197.53 -36.09,51 -49.81,91.25 -91.31,79.92 -65.38,-17.85 -190.05,-213.98 -242.26,-285.52 -62.14,-85.15 -58.03,-56.64 -81.43,-72.13 -5.97,-3.94 -8.13,-5.01 -13.9,-9.32l-5.88 22.92c6.09,4.45 0.58,0.75 7.32,4.18l16.3 8.47c23.23,14.19 12.81,6.68 25.61,9.94 18.68,4.75 67.51,74.99 82.72,95.97 17.7,24.42 12.17,16.23 6.27,19.06l6.76 3.85c8.12,5.1 5.82,3.1 5.22,5.42l11.61 12.99c-20.34,5.04 -157.62,-54.77 -180.91,-66.44 -27.11,-13.58 -75.69,-42.26 -98.57,-60.52l-49.12 -40.98c13.12,19.02 27.99,33.58 45.41,47.84 5.72,4.69 2.12,2.43 7.27,6.4 2.5,1.92 3.4,2.21 6.53,4.5 80.26,58.56 170.14,98.47 267.98,125.47 17.18,4.75 14.84,3.79 24.8,18.26 13.39,19.45 66.9,96.2 79.41,104.42 -3.39,5.14 6.31,4.39 -8.68,3.86l9.91 4.43c15.13,6.67 14.05,7.43 8.54,11.61 8.05,4.48 11.03,4.7 17.29,11 4.71,4.73 7.55,7.5 12.41,12.29 8.99,8.86 21.65,16.16 27.73,23.75 9.15,2.76 17.94,8.1 28.34,8.91 11.51,0.88 21,-2.01 34.08,-1.5l-8.57 -3.84c10.85,-4.85 15.85,-22.19 26.31,-30.83 5.72,-13.41 2.83,-9.61 17.29,-10.69l-8.18 -6.31c12.15,-14.31 24.68,-33.23 35.77,-48.97 12.4,-17.58 25.46,-32.43 35.97,-49.3 19.88,1.57 86.76,4.24 99.78,-4.57l-95.89 2.33c6.71,-13.22 2.77,-10.39 17.09,-10.15l80.04 -2.74c31.8,-3.78 65.98,-4.87 98.64,-8.92 116.03,-14.37 244.21,-38.69 351.51,-79.98l129.84 -60.74c6.61,-1.4 16.32,-0.04 20.36,2.53 39.84,-7.27 42,18.39 78.07,-5.71 37.03,-24.75 66.28,-56.71 89.32,-94.79 29.05,-48.01 10.67,-42.35 9.34,-65.8 -9.37,15.2 -16.85,59.5 -77.54,110.23 -12.33,10.31 -37.59,35.33 -58.22,31.8 -127.63,-21.85 -366.47,20.27 -439.23,-22.73z"/>
   <path class="fil13" d="M458.36 1521.04c-9.43,-7.53 -3.59,-19.87 -2.94,-26.76 -39.39,-31.2 -17.7,-27.45 -93.36,-73.7l-25.37 -15.57c-5.28,-3.77 -0.85,-0.28 -4.67,-4.02l-5.03 -5.63c-2.48,38.25 10.13,30.6 59.2,64.03 13.89,9.47 22.63,15.54 35.29,25.11 10.49,7.92 27.14,19.15 28.92,34.51l7.96 2.03z"/>
   <path class="fil13" d="M1155.03 1015.76l10.23 4.58c36.24,14.48 137.29,65.35 145.59,68.19l-2.99 -3.8c-33.98,-39.17 -92.76,-64.54 -140.85,-85.51l-11.23 15.53c-0.08,-0.32 -0.46,0.71 -0.75,1.01z"/>
   <path class="fil14" d="M744.37 1624.36c1.08,-0.05 2.17,-0.86 2.46,-0.11 0.29,0.72 1.6,-0.08 1.98,0.03 2.41,0.67 3.18,0.81 5.48,2.17 15.45,9.12 53.19,40.29 59.65,56.01 -23.52,-7.37 -54.03,-37.93 -71.07,-43.12l1.5 -14.98zm-2.24 -352.68c-6.43,-42.61 -0.79,-23.94 12.71,-41.28 3.81,-4.91 8.04,-13.99 11.47,-18.83 3.5,-4.95 9.83,-11.37 11.71,-14.77 5.15,7.37 7.6,15.26 13.79,19.93l-11.5 4.45c-5.3,1.47 -12.32,2.72 -17.11,3.81 3.6,4.31 1.82,8.19 15.66,6.99 14.11,-1.22 15.22,-10.96 28.58,1.24 -6.09,4.32 -16,6.01 -36,9.21l1.07 8.42c0.12,0.5 0.71,2.55 0.8,2.15 0.1,-0.39 0.66,1.36 0.89,2.07 -18.29,7.49 -15.42,12.12 -32.07,16.61zm-218.59 -274.97l-4.57 -0.89c8.91,7.69 68.72,30.68 81.85,56.07 11.15,11.34 3.97,12.28 24.03,12.71l3.35 -6.04c9.21,7.66 13.48,14.33 25.78,22.97 12.77,8.97 24.66,8.3 34.27,14.88l10.97 1.03c20,5.94 19.66,13.97 31.53,28.05 14.72,17.44 6.76,22.67 27.73,28.04 -13.99,11.38 -13.95,26.44 -30.2,48.16l0.76 5.75c19.14,-37.27 25.82,-29.05 33.47,-44 3.39,9.24 6.89,12.61 1.72,21.34 -6.13,10.33 -6.31,9.07 -11.44,21.3 -7.06,16.87 -12.99,26.35 -18.17,45.04 -5.83,-8.39 -12.5,-12.31 -26.03,-13.52 10.47,10.42 13.8,8.4 17.95,20.86l-20.96 -5.79c35.21,26.58 18.82,24.13 34.27,35.51 -3.71,3.15 -2.87,0.29 -3.78,7.84l4.35 34.36c1.66,17.15 2.88,31.71 4.03,48.39 3.18,46.23 2.6,155.88 -2.38,200.71 -1.76,15.87 -2.49,30.08 -5.19,46.81 -4.46,27.48 -0.47,34.58 -10.37,37.7 -6.58,-4.21 -6.48,-2.11 -4.54,-24.12l2.75 -79.64c2.85,-71.87 0.94,-211.74 -14.62,-282.38 -2.5,-11.36 -4.11,-13.83 -8.55,-18.46l6.81 40.89c-26.42,6.74 -81.4,57.01 -97.69,77.07l-20.99 22.85c-3.86,4.38 -4.58,7.62 -9.27,12.75l-50.68 59.95c8.53,-21.27 22.64,-38.02 33.74,-57.39 11.46,-20 18.36,-25.47 29.62,-39.1l22.8 -23.99c24.87,-24.69 39.22,-41.09 69.64,-62.35 2.25,-1.58 4.78,-2.92 6.76,-4.43l4.99 -4.51c0.29,-1.06 1.13,-1.11 1.6,-1.74 -8.95,2.42 -15.3,7.31 -22.63,11.55l-54.57 47.97c-39.17,35.88 -117.9,142.4 -127.55,185.07 4.67,6.72 -6.3,6.04 10.92,4.93 9.89,-19.1 28.43,-43.06 41.53,-61.82l34.26 -43.3c13.29,-10.43 5.01,1.66 13.25,-12.5l13.11 -0.3c3.1,-3.12 5.84,-5.21 12.07,-8.29 -4.03,-16.09 9.74,-5.84 13,-22.28l1.97 -16.01c1.85,-9.9 6.28,-10.61 19.11,-20.42 13.03,9.18 5.12,9.78 19.22,16.84 0.38,-0.39 0.68,-1.8 0.8,-1.42l4.44 -5.49c7.6,-5.07 3.45,-3.37 13.45,-2.13 6,11.56 1.12,15.99 7.09,23.56 0.5,0.64 15.3,10.47 17.19,11.98l4.84 103.78c-3.67,23.03 -1.93,69.03 -2.64,94.93l-3.9 70.57c-0.26,12.75 -2.36,11.42 8.53,16.82 10.47,-10.55 3.5,-2.47 16.96,-4.3l2.26 -26.07c21.64,6.4 67.47,42.67 87.51,56.44l1.95 -2.9 -9.61 -10.97c-11.85,-13.67 -65.6,-62.09 -77.29,-65.08l3.16 -24.61 0.97 -11.61 1.54 -24.12c0.35,-10.05 -0.29,-23.4 3.54,-29.73 -5.56,-27.54 4.14,-58.66 -2.33,-86.27 -2.37,-12.12 0.35,-13.74 2.11,-24.21 1.31,-7.78 0.56,-16.94 -0.13,-23.59l1.55 -3.86c-9.81,-11.41 -7,-45.45 -7.22,-61.79 -0.48,-0.74 -1.11,-2.68 -1.31,-2.28l-3.5 -9.94c-0.97,-6.69 0.41,-9.56 0.95,-16.82 8.22,3.77 12.69,9.84 23.22,18.8l74.92 54.2c17.14,10.67 34.26,22.03 52.04,33.16 8.85,5.55 16.24,9.99 25.17,15.97l20.19 12.42c5.88,2.8 -0.8,4.16 4.3,0.59 -10.75,-17.02 -76.44,-52.36 -100.62,-68.76 -21.7,-14.71 -89.09,-57.1 -95.19,-74.53l7.02 -7.99c3.8,-7.78 13.32,-15.05 20.88,-17.42 1.28,-5.6 -1.94,-3.7 1.52,-6.66 19.52,1.65 14.03,-0.31 29.97,-5.41 14.38,-4.59 13.87,-5.43 22.97,0.62 20.57,13.69 6.35,-1.91 20.44,15.61 10.2,12.68 12.65,5.77 19.1,20.1 -0.37,-0.19 -8.11,-4.16 -9.2,-4.82 -3.41,-2.07 -3.67,-2.56 -6.86,-4.58l-12.36 -9.74c-7.02,-8.31 -2.38,-4.26 -10.91,-10.78 -0.83,-0.63 -6.02,-4.55 -6.67,-4.93l-10.78 -4.96c5.15,16.38 2.69,8.25 23.84,25.39 0.45,0.36 5.34,4.15 6.22,4.81l27.27 16.52c9.78,5.83 9.99,8.76 19.76,13.32 14.67,6.86 18.41,6.89 22.79,23.35 -20.38,-9.79 -54.93,-33.58 -73.72,-46.36 -5.25,-3.56 -8.17,-5.71 -14.99,-9.67 8.42,20.92 25.34,20.03 52.74,40.47l120.52 79.86c0.52,0.3 1.23,0.67 1.75,0.97 0.53,0.3 1.26,0.64 1.79,0.94 0.53,0.31 1.28,0.64 1.8,0.95 8.88,5.24 26.48,24.73 30.1,27.59 -7.47,-5.36 -11.78,-11.31 -18.21,-17.41 -11.06,-10.5 -0.68,-4 -13.62,-17.12l-5.18 -5.07c24.03,5.53 54.86,24.45 57.46,38.73 -6.25,-4.88 -3.2,-2.56 -9.01,-13.38l-3.66 -6.73c10.16,3.92 13.17,4.43 22.91,9.45 13.75,7.07 60.76,19.01 75.53,23.84 2.47,17.05 4.73,26.99 -13.24,25.3 7.6,9.88 12.88,7.03 21.29,15.82 8.55,8.92 4.3,14.71 16.55,21.71 2.85,-30.11 -9.91,-37.14 -14.52,-62.62 15.67,2.26 13.55,-0.19 20.65,10.52 9.01,-7 31.51,2.41 41.9,4.86 11.42,2.69 32.33,5.34 40.71,13.64 -0.38,0.18 -5.96,2.59 -6,2.61l-5.54 5.37c-3.95,3.89 4.49,5.08 -10.5,1.23 -6.14,5.42 -2.21,-2.47 -2.96,7.78 11.71,2.63 19.55,6.78 27.09,10.97 -3.6,12.59 7.45,-14.29 -4.62,6.89 -0.18,0.31 -0.6,1 -0.76,1.32l-2.27 6.21c-0.96,-0.25 -6.21,-1.8 -6.92,-1.87l-6.27 0.71c12.78,11.55 17.3,0.51 27.24,17.33 -12.93,4.73 -28.88,6.85 -44.97,7.15 7.44,21.5 33.25,23.7 38.2,22.5 72.76,43 311.6,0.88 439.23,22.73 20.63,3.53 45.89,-21.49 58.22,-31.8 60.69,-50.73 68.17,-95.03 77.54,-110.23 -0.52,-13.7 -13.87,-34.63 -20.59,-44.53 -24.36,-35.91 11.32,-60.9 -42.36,-147.18 -27.18,-43.7 -94.07,-101.25 -143.08,-112.77 21.63,19.33 160.73,74.04 157.57,222.98l-11.74 -13.19c-9.98,-7 -22.06,-18.16 -30.57,-28.76 -20.76,-14.9 -39.68,-32.2 -64.06,-47.89 -35.21,-22.67 -108.03,-50.04 -149.54,-70.29 -15.24,-7.43 -63.96,-34.92 -72.71,-36.19l-2.6 0.64c76.5,75 263.07,83.82 358.69,241.28 17.39,28.65 15.52,29.48 -1.19,61.3 -12.06,22.97 -36.76,55.72 -55.42,71.09 -72.07,59.36 -28.55,24.31 -172.4,26.66 -67.66,1.11 -263.07,11.09 -323.59,-14.38 17.35,-6.06 27.83,-3.17 20.96,-22.36 26.15,-0.94 39.18,-8.39 59.53,-18.33 17.91,-8.74 13.83,1.78 28.74,0.73 12.39,-0.89 11.25,-11.13 20.9,-14.15l-8.98 12.18c-1.56,20.76 -1.8,4.35 5.19,11.16 5.06,4.94 27.39,5.1 35.38,5.23 20.99,0.36 20.52,6.21 36.71,8.45l75.74 13.83c12.34,3.03 5.47,-0.45 10.28,4.32 78.86,-11.45 134.4,11.29 161.72,13.59l31.33 -42.91c6.81,-10.54 1.31,-9.78 10.85,-15.95 2.59,3.61 0.08,-1.03 1.35,4.27 4.52,18.74 -4.48,-5.39 1.18,5.88 6.39,-7.13 50.14,-41.44 58.95,-68.64 -10.25,14.06 -23.38,24.11 -38.58,34.99 -94.8,68.43 -232.63,50.13 -341.68,14.51l-44.2 -16.22c37.54,-29.61 42.52,-45.02 63.96,-66.16l29.91 -54.33c25.45,6.47 60.35,11.12 89,17.4l87 20.75 -24.98 -7.33c-48.52,-11.12 -97.79,-24.1 -150.85,-33.44 1.97,-26.86 14.63,-44.51 10.43,-77.51 -1.41,-24.21 -4.84,-41.74 -13.31,-63.32 -3.68,-9.35 -7.44,-17.45 -12.12,-26.24l-14.38 -21.85c-0.3,-0.33 -0.97,-1 -1.47,-1.48 8.94,24.86 21.66,35.05 29.48,78.72 13.97,78.02 -19.8,139.93 -65.42,195.63 -9.5,11.6 -17.39,17.54 -30.02,25.97 -5.36,10.38 -3.12,4.75 -21.95,18.46 -20.5,14.93 -70.94,36.88 -84.62,29.75 -10.4,-11.81 -8.21,-14.52 -21.1,-24.96l37.28 -13.28c14.32,-9 24.91,-14.4 37.45,-22.86 5.54,-3.74 13.23,-8.81 17.53,-12.66 8.83,-7.88 7.07,-8.59 16.62,-13.9l23.59 -26.94c0.2,-0.52 30.91,-45.54 42.26,-71.49 20.26,-37.48 21.84,-108.6 -0.86,-146.76 -2.1,20.31 21.71,47.83 -0.75,120.99 -19.37,63.09 -41.2,74.37 -48.61,93.91 -4.6,-5.89 -2.8,-14.18 -3.39,-21.16l-8.65 5.29c-7.23,26.03 -24.27,38.32 -49.12,50.62 11.2,-0.25 23.13,-8.45 33.53,-13.18l-12.36 12.34c-9.06,6.66 -48.88,30.49 -65.01,36.24 -12.05,4.3 -15.83,-1.3 -26.5,-7.39 -22.94,-1.81 -201.47,-55.16 -235.59,-70.64l-66.22 -35.72c-29.68,-13.73 -20.62,-20.89 -30.51,-35.09l-26.98 -30.51c-4.31,-3.6 -6.38,-4.75 -10.97,-8.32 -12.58,-9.77 -1.33,-4.91 -21.65,-19.51l-29.36 -28.44c-24.04,-23.8 2.2,-5.48 -10.64,-48.54 -14.54,-3.78 2.42,0.53 -10.67,0.53 -0.37,0 -1.65,0.49 -1.92,-0.16 -0.28,-0.67 -1.38,0.05 -1.99,-0.22 4.6,-9.59 2.32,-3.32 5.43,-8.03 1.91,-2.88 2.68,-2.94 3.4,-5.71 -9.09,-6.08 -1.69,-1.86 -13.43,1.05 -3.92,-22.22 4.41,-3.25 9.09,-15.83l1.82 -11.44c-0.46,-5.08 -1.59,-7.65 -4.04,-11.44l-4.22 10.84c-0.29,0.59 -0.63,1.32 -0.95,1.91 -3.54,6.46 -6.76,11.31 -16.8,15.57 -30.38,-44.87 18.02,-136.28 18.77,-166.53 41.38,-25.74 20.29,-18.9 38.03,-54.64 6.98,2.21 3.07,0.08 7.72,6.31 2.12,2.83 2.74,5.11 4.47,8.35 17.18,-5.8 11.45,3.39 21.63,-7.71 10.57,11.84 -7.15,-6.91 2.75,7.62 9.85,-1.87 11.55,-10.97 22.67,-3.75 4.96,-1.53 6.36,-2.04 11.06,-4.43l9.21 -4.64c0.53,-1.25 1.78,-0.91 2.73,-1.17 0.68,19.39 3.01,11.63 -8.37,15.59 5.33,2.43 2.24,0.88 6.43,1.64 10.78,1.96 7.81,2.11 19.98,14.24 9.15,9.13 16.69,9.44 24.64,22.07 11.19,17.79 24.27,39.74 32.09,61.96 15.32,10.47 16.54,46.17 21.47,60.61l3.27 15.78 27.2 9.51 -23.17 1.74c6.36,43.48 14.34,92.06 0.6,134.62 -0.33,10.85 -2.88,15.32 -8.62,25.16 -3.25,5.58 -10.41,14.86 -13.91,19.04 -4.3,5.14 -30.95,24.27 -33.76,22.67l14.6 -1.81c58.31,-23.56 68.1,-73.92 64.85,-149.4l-5.69 -48.16 53.19 16.26 14.71 -0.93c-9.88,-4.18 -17.31,-6.24 -23.93,-13.47l-48.71 -15.93c-3.49,-15 -7.93,-30.76 -12.86,-45.07 -3.8,-11.02 -13.57,-33.29 -14.64,-42.42 -6.39,-7.17 -24.64,-45.62 -31.96,-56.66 -6.61,-9.97 -11.8,-16.03 -19.32,-24.55 -4.45,-5.06 -5.58,-6.89 -10.4,-11.51l-11.49 -12.56c56.41,12.1 236.13,91.45 297.15,119.5l70.21 34.44c17.34,3.9 10.54,-5.26 24.56,6.92l1.62 -7.59 -5.29 -0.92c26.21,-10.56 60.41,-27.96 95.14,-15.18 2.7,-9.76 3.17,-6.42 7.73,-16.16 -38.52,-5.22 -42.57,1.28 -74.22,7.78 -4.42,3.52 -11.22,6.07 -16.91,9.65l-12.55 9.94c-0.25,-0.49 -1.12,0.89 -1.71,1.29 -4.01,-4.78 -9.38,-11.43 -12.62,-17.2 -20.69,-13.91 -22.94,-25.43 -64.88,-48.67 -10.46,-5.79 -71.87,-33.17 -75.3,-36.4 7.93,-8.64 17.65,-12.63 28.85,-17.21 15.28,-6.24 18.2,-4.82 31.17,2.66 20.71,11.96 36.36,22.14 52.51,35.48 10.24,0.02 3.63,-1.55 8.66,2.37 5.62,4.4 1.39,-2.25 2.38,5.79 5.17,4.48 7.02,5.34 10.82,8.59 5.93,5.07 4.15,4.15 10.58,8.54 12.5,8.53 8.57,6.99 18.93,17.89 4.46,0 3.39,1.04 2.74,-3.53 -18.4,-23.84 -52.17,-51.29 -81.02,-70.35 -52.75,-34.82 -52.41,-24.5 -101.14,3.2 2.87,13.7 4.46,18.07 17.44,19.89 48.09,20.97 106.87,46.34 140.85,85.51l2.99 3.8c-8.3,-2.84 -109.35,-53.71 -145.59,-68.19l-10.23 -4.58c-52.5,-22.31 -208.14,-90.7 -265.54,-90.4l-1.85 -10.69 -5.49 -1.33 -20.17 1.91 -2.66 -26.62c-4.4,-7.58 -10.32,-81.49 -12.31,-97.24 -3.25,-25.75 -12.54,-64.09 -31.68,-74.17 18.93,29.6 20.87,47.49 25.79,88.96 2.78,23.41 12.39,83.79 10.61,103.99l-18.49 9.86c6.94,8.48 1.52,-4.09 1.32,3.48 -0.01,0.55 -2.14,6.75 -3.04,9.57 -9.61,30.08 -15.64,32.41 -35.16,42.15l-4.16 2.42c-2.65,63.96 -38.1,79.51 -34.74,160.06 -7.44,-5.45 -15.99,-19.31 -22.83,-27.04 -27,-30.5 -60.54,-6.15 -92.36,-50.47 -13.22,-18.4 -6.63,-12.6 -28.22,-13.9 -6.35,-0.38 -16.01,-11.83 -25.14,-17.99 -15.99,-10.78 -43.43,-25.08 -65.37,-31.6z"/>
   <path class="fil14" d="M372.97 1065.31c15.81,-12.53 60.56,-36.91 83.33,-42.18 4.36,27.71 8.09,31.35 20.95,47.33 -49.36,-2.6 -25.73,-9.61 -104.28,-5.15zm319.14 187.83c-8.33,0.9 -12.77,2.81 -19.07,4.63l-27.93 13.51c-13.15,-7.79 -79.46,-104.03 -80.98,-116.2 8.41,-6.07 8.68,-5.68 18.82,-5.54 5.37,-4.36 2.3,-1.01 7.42,-4.09 3.67,-2.22 1.95,3.98 4.61,-3.01 0.49,-1.3 1.7,-1.02 2.44,-1.67 -20.69,-0.32 -31.97,-2.09 -50.49,8.34l1.09 8.2 40.56 63.66c6.79,12 13.63,20.53 21.69,30.4 7.06,8.66 15.04,23.35 27.34,21.17 -33.5,21.1 -27.2,19.56 -27.21,19.55 -0.23,-0.47 -0.88,1.14 -1.36,1.68 -29.24,15.66 -61.75,60.41 -79.14,73.35 -9.61,-8 -108.24,-57.48 -128.74,-68.15 -28.96,-15.06 -103.14,-55.86 -119.41,-73.65 17.27,21.24 209.11,127.27 247.23,141.32 -2.92,10.49 -12.12,23.23 -18.79,31.23 -14.92,-0.39 -40.92,-18.7 -57.18,-26.86 -35.35,-17.74 -146.86,-70.73 -163.46,-89.96 6.65,2.89 16.47,11.81 24.04,16.96 8.92,6.06 16.52,10.64 25.27,15.86l166.95 85.56 -47.43 88.38 -27.74 -28.91c-58.63,-52.45 -122.2,-47.64 -89.31,-93.78 -7.16,-5.76 -33.62,-37.39 -41.03,-52.2 16.31,4.93 34.23,19.04 50.27,27.69l139.09 68.99c7.88,5.49 1.23,-0.02 2.38,2.43 -31.9,-27.34 -142.05,-67.4 -194.25,-102.86 -22.16,-15.05 -48.25,-64.01 -46.5,-93.58 6.73,-4.5 4.37,-4.9 13.52,-9.39 -0.03,-27.1 0.75,-11.77 -14.78,-27.94 10.22,-45.68 59.63,-83.26 109.7,-95.87 57.92,-14.59 125.4,-7.48 174.21,15.05 14.74,-2.19 28.24,11.06 35.07,21.53 3.68,-3 9.41,6.48 3.89,-13.34 -0.4,-1.44 -4.87,-7.47 -5.88,-8.58 -23.34,-25.9 -102.73,-58.61 -110.39,-89.17 25.53,-31.45 75.19,26.28 90.58,45.75l144.9 199.51zm-438.03 -121.78c-9.23,13.67 -19.5,23.51 -21.34,41.48l13.6 13.66c-19.19,55.14 -0.4,31.26 0.56,72.84 4.76,5.25 7.67,12.04 7.31,19.81 5.62,3.86 0.94,-0.08 5.15,4.61l6.62 10.33c3.49,6.07 5.74,9.74 9.33,15.27l40.78 52.73c7.63,13.27 -4.65,27.9 10.9,33.27l5.03 5.63c3.82,3.74 -0.61,0.25 4.67,4.02l25.37 15.57c75.66,46.25 53.97,42.5 93.36,73.7 -0.65,6.89 -6.49,19.23 2.94,26.76l5.37 2.53c5.77,4.31 7.93,5.38 13.9,9.32 23.4,15.49 19.29,-13.02 81.43,72.13 52.21,71.54 176.88,267.67 242.26,285.52 41.5,11.33 55.22,-28.92 91.31,-79.92 54.61,-77.15 95.11,-127.54 154.08,-197.53 24.48,-29.06 62,-63.55 92.69,-85.99 -0.46,-0.79 -2.21,-3.22 -2.62,-3.76 -0.4,-0.54 -1.44,-0.77 -1.76,-2.1 -0.34,-1.43 -1.34,-1.44 -1.98,-2.19 -1.78,11.43 -9.94,11.6 -19.31,18l-57.33 50.06 -159.66 197.47c-5.68,8.6 -9.04,13.75 -14.33,21.38 -4.42,6.38 -11.03,13.76 -13.81,19.64 4.03,-19.53 28.16,-65.87 37.16,-84.46 41.13,-84.95 61.71,-117.82 114.89,-192.6 7.53,-10.59 21,-24.92 26.04,-35.79 -5.37,-1.15 -9.3,1.54 -1.54,-7.56l25.4 -24.68 -69.89 22.37c7.26,4.27 1.9,0.25 8.35,6.15 -1.69,4.37 -1.04,1.65 -4.06,5.59l-5.58 7.19 13.7 -0.44 22.99 -6.56c-16.53,14 -62.39,85.54 -77.8,108.59l-68.64 119.2 -21.58 45.5c-6.49,16.84 -13.63,31.49 -20.77,48.58 -5.18,12.37 -13.62,38.54 -20.92,48.8 -15.83,-2.24 -37.04,-13.57 -43.6,-23.32 -41.43,-16.69 -175.33,-218.6 -223.32,-276.68 -13.18,-15.95 -31.11,-38.88 -46.94,-48.93l-4.68 -5.6c-10.83,3.86 -6.43,4.42 -16.03,4.53l-2.24 -6.64 -27.5 -12.58c8.03,-48.61 54.26,-119.24 78.93,-148.13 11.74,-13.75 10.98,-17.89 26.9,-30.73 18.73,-15.1 60.07,-60.61 98.06,-72.45l26.18 -11.81 0.57 -3.71c0.01,-0.32 0.13,-3.16 0.07,-3.96 -0.22,-2.73 -0.9,-5.73 -1.96,-8.32l-133.96 -185.49c-9.06,-9.82 -15.51,-19.21 -25.44,-28.84 -6.87,-6.66 -20.83,-19.16 -26.93,-28.88 -1.31,-1.08 -1.08,-1.23 -4.72,-3.12 -0.58,-0.3 -4.26,-1.47 -5.37,-1.86 -13.3,-10.03 -6.81,-7.74 -13.06,-14.77 -13.57,6.81 -14.78,-3.11 -25.77,8.7 -8.35,8.98 -6.5,13.73 -6.97,29.19l-54.82 25.13c-9.94,4.98 -15.75,10.79 -25.44,15.52 -11.08,5.42 -14.9,8.5 -23.94,14.25 -19.09,12.15 -78.8,33.56 -90.29,64.38z"/>
   <path class="fil15" d="M713.78 1849.18c14.99,0.53 5.29,1.28 8.68,-3.86 -12.51,-8.22 -66.02,-84.97 -79.41,-104.42 -9.96,-14.47 -7.62,-13.51 -24.8,-18.26 -97.84,-27 -187.72,-66.91 -267.98,-125.47 -3.13,-2.29 -4.03,-2.58 -6.53,-4.5 -5.15,-3.97 -1.55,-1.71 -7.27,-6.4 -17.42,-14.26 -32.29,-28.82 -45.41,-47.84l49.12 40.98c22.88,18.26 71.46,46.94 98.57,60.52 23.29,11.67 160.57,71.48 180.91,66.44l-11.61 -12.99c-28.08,-0.28 -130.33,-44.33 -156.92,-57.18 -89.79,-43.38 -184.29,-113.68 -220.86,-207.64 -21.06,-54.12 -16.56,-137.44 16.63,-169.22 -0.96,-41.58 -19.75,-17.7 -0.56,-72.84l-13.6 -13.66c-19.49,11.35 -58.16,70.63 -71.7,98.04 -68.07,137.72 -9.65,277.08 86.94,365.21 85.49,77.99 210.28,143.83 331.71,179.26 44.33,12.93 90.25,21.34 134.09,33.83z"/>
   <path class="fil15" d="M1253.78 1560.49c-4.95,1.2 -30.76,-1 -38.2,-22.5 16.09,-0.3 32.04,-2.42 44.97,-7.15 -9.94,-16.82 -14.46,-5.78 -27.24,-17.33l6.27 -0.71c0.71,0.07 5.96,1.62 6.92,1.87l2.27 -6.21c0.16,-0.32 0.58,-1.01 0.76,-1.32 12.07,-21.18 1.02,5.7 4.62,-6.89 -7.54,-4.19 -15.38,-8.34 -27.09,-10.97l-46.56 -10.72c1.79,30.68 20.66,72.69 -24.75,78.29 -33.62,4.14 -96.45,80.47 -122.15,109.1 -13.06,14.55 -43.48,49.42 -51.4,66.23 149.39,2.02 318.5,-31.66 458.76,-74.01 26.59,-8.03 109.15,-38.91 126.49,-51.38 -74.49,-6.89 -186.14,21.56 -314.3,-17.37 -17.54,-5.33 -23.28,-5.63 -29.76,-21.84 5.08,-0.07 12.26,0.15 17.19,-0.47 2.08,-0.27 4.49,-0.6 6.44,-1.43 7.46,-3.18 2.8,0.04 6.76,-5.19z"/>
   <path class="fil15" d="M596.07 1684.11c5.9,-2.83 11.43,5.36 -6.27,-19.06 -15.21,-20.98 -64.04,-91.22 -82.72,-95.97 -12.8,-3.26 -2.38,4.25 -25.61,-9.94l-16.3 -8.47c-6.74,-3.43 -1.23,0.27 -7.32,-4.18l5.88 -22.92 -5.37 -2.53 -7.96 -2.03c-1.78,-15.36 -18.43,-26.59 -28.92,-34.51 -12.66,-9.57 -21.4,-15.64 -35.29,-25.11 -49.07,-33.43 -61.68,-25.78 -59.2,-64.03 -15.55,-5.37 -3.27,-20 -10.9,-33.27l-40.78 -52.73c-3.59,-5.53 -5.84,-9.2 -9.33,-15.27l-6.62 -10.33c-4.21,-4.69 0.47,-0.75 -5.15,-4.61 -31.48,87.13 -25.92,142.21 36.29,221 11.33,14.36 34.47,38.9 48.47,50.38 65.33,53.54 155.61,104.03 257.1,133.58z"/>
   <path class="fil15" d="M372.97 1065.31c78.55,-4.46 54.92,2.55 104.28,5.15 -12.86,-15.98 -16.59,-19.62 -20.95,-47.33 -22.77,5.27 -67.52,29.65 -83.33,42.18z"/>
   <path class="fil16" d="M496.02 630.26c11.43,20.29 15.65,84.5 19.29,115.69 5.38,46.04 -0.86,33.67 -4.12,39.61 -52.41,14.23 -58.68,-18.84 -63.13,-66.45 -4.38,-46.88 -0.28,-86.73 47.96,-88.85zm25.74 213.82c11.39,10.26 18.52,25.39 45.27,20.84 29.13,-4.97 22.84,-14.97 20.43,-43.43 -10.65,-125.75 -7.02,-531.1 -176.14,-417.58 -19.24,12.92 -78.57,39.46 -48.9,70.09 28.68,29.6 46.21,-19.2 94.54,-16.77 18.39,25.9 33.44,62.41 33.85,107.21 -48.61,18.1 -70.69,7.42 -93.92,49.75 -31.66,57.72 -25.68,331.14 124.87,229.89z"/>
   <path class="fil16" d="M1184.63 774.01c-60.89,3.87 -58.49,-26.4 -54.02,-83.59 3.55,-45.34 14.27,-76.85 65.7,-72.46 -1.06,46.11 6.35,118.41 -11.68,156.05zm82.04 -191.4c1.48,-45.13 3.37,-107.26 -7.39,-149.59 -34.5,-135.69 -177.34,-19.67 -179.51,-12.57 -7.04,23.1 13.47,37.3 40.17,31.87 28,-5.68 80.93,-64.64 78.42,102.19 -102.66,0.2 -126.55,37.77 -134.15,140.7 -7.7,104.4 2.04,172.39 118.45,140.55l6.46 7.87c30.31,31.09 -19.68,-13.31 7.02,7.15 18.94,14.5 28.26,10.52 51.95,6.05l18.58 -274.22z"/>
   <path class="fil16" d="M320.64 301.35c21.61,-57.08 -8.21,-52.48 -56.7,-52.2 -47.71,0.28 -186.8,0.76 -173.84,70.17 7.11,38.1 45.04,12.89 85.36,11.38l89.53 561.06c28.32,5.09 47.76,-0.88 68.28,-5.73 -4.73,-114.05 -92.23,-498.24 -83.14,-570.89l70.51 -13.79z"/>
   <path class="fil16" d="M1564.99 575.48c6.68,-45.48 13.59,-85.86 51.33,-88.8 21.7,23.5 18.36,54.17 3.76,90.48l-55.09 -1.68zm97.57 57.42c87.43,-220.1 -82.27,-330.18 -170.87,-59.68 -116.32,355.06 139.87,390.96 144.08,274 -55.01,-10.47 -93.03,-17.26 -99.43,-72.33 -5.4,-46.45 5.31,-111.22 18.65,-153.61l107.57 11.62z"/>
   <path class="fil16" d="M1391.97 863.54c8.17,-84.03 77.81,-608.49 72.52,-635.35 -31.8,-10.08 -38.31,-11.01 -71.11,-3.78l-72.52 630.79c27.94,13.66 40.96,12.02 71.11,8.34z"/>
   <path class="fil16" d="M1862.38 430.72c-43.45,2.97 -86.58,43.87 -104.28,72.29 -30.14,48.37 -24.8,97.87 -17.84,156.43 6.15,51.66 19.32,113.78 -1.69,164.32 -9.43,22.7 -21.27,35.51 -36.35,49.57 -89.28,83.25 138.37,125.21 115.02,-149.49 -10.82,-127.33 -36.17,-155.02 26.66,-211.35 23.7,-21.26 33.24,-23.56 44.59,-42.16 -6.52,-24.28 -11.07,-26.39 -26.11,-39.61z"/>
   <path class="fil16" d="M625.25 386.14c-6.71,87.99 40.18,219.67 15.43,454.73 31.68,9.52 44.56,19.23 74.95,3.24 41.02,-88.67 -25.62,-306.4 -1.64,-397.34 119.77,-67.95 44.07,335.35 79.48,378.78 26.49,16.31 42.14,12.49 68.2,-2.74 17.13,-99.11 -39.88,-289.99 -4.86,-394.19 109.89,-32.76 55.73,315.19 69.39,393.33l3.4 11.01c0.31,-0.89 1.2,3.59 2.11,5.25 30.68,9.44 43.93,1.5 71.2,-8.35 4.29,-43.2 -4.29,-120.91 -5.21,-170.23 -2.28,-123.56 20.92,-416.35 -177.27,-264.74 -38.24,-25.79 -60.13,-44.35 -112.09,-4.55 -7.87,-8.1 -10.75,-14.93 -17.69,-23.83 -34.95,-2.34 -42.8,2.07 -65.4,19.63z"/>
  </g>
 </g>
</svg>
