<?xml version="1.0" encoding="UTF-8"?>
<!DOCTYPE svg PUBLIC "-//W3C//DTD SVG 1.1//EN" "http://www.w3.org/Graphics/SVG/1.1/DTD/svg11.dtd">
<!-- Creator: CorelDRAW 2017 -->
<svg xmlns="http://www.w3.org/2000/svg" xml:space="preserve" width="100mm" height="100mm" version="1.1" style="shape-rendering:geometricPrecision; text-rendering:geometricPrecision; image-rendering:optimizeQuality; fill-rule:evenodd; clip-rule:evenodd"
viewBox="0 0 10000 10000"
 xmlns:xlink="http://www.w3.org/1999/xlink">
 <defs>
  <style type="text/css">
   <![CDATA[
    .fil0 {fill:none}
    .fil1 {fill:#0096DB}
   ]]>
  </style>
 </defs>
 <g id="Capa_x0020_1">
  <metadata id="CorelCorpID_0Corel-Layer"/>
  <rect class="fil0" width="10000" height="10000"/>
  <path class="fil1" d="M2707.04 603.16c-148.22,10.92 -284.2,86.78 -406.74,145.65 -465.9,242.52 -882.22,831.24 -887.48,1335.24 341.93,7.01 615.01,-33.95 870.41,136.83 445.08,297.61 486.72,977.65 -10.9,1307.65 -277.03,183.72 -522.98,114.48 -885.18,130.57l6.77 541.42c341.44,21.45 631.14,-39.43 889.65,138.54 456,313.95 476.93,987.83 -10.67,1308.52 -267.26,175.78 -528.04,116.43 -885.42,131.97l6.26 539.78c336.13,19.36 612.53,-48.4 877.45,129.55 484.16,325.23 472.64,996.66 14.52,1308.6 -266.22,181.28 -512.9,133.93 -871.33,139.22 -13.86,291.88 199.29,672.49 332.25,852.6 155.91,211.2 360.24,401.83 646.87,530.76 486.9,219 1635.3,135.41 2249.68,135.42 442.49,0 2068.89,22.24 2376.58,-8.5 642.81,-64.23 1135.86,-540.82 1329.67,-1025.34 233.54,-583.81 141.01,-1533.52 147.23,-2227.2 7.03,-783.25 0.83,-1570.35 0.86,-2354.03 0.06,-1246.42 259.66,-2924.93 -1477.32,-3228.13l-4068.95 -3.42 -244.21 34.3zm672.28 5827.41l3127.36 1.23c15.68,-214.23 -46.38,-406.08 -127.6,-578.4 -96.78,-205.34 -181.77,-281.01 -312.45,-414.85 -265.28,-271.69 -640.06,-339.87 -1123.63,-341.12 -483.65,-1.26 -845.13,63.79 -1113.53,329.85 -251.11,248.92 -482.11,595.79 -450.15,1003.29zm1463.01 -2872.06c-366.24,60.91 -681.24,368.12 -609.28,819.86 150.7,946.06 1579.67,708.17 1417.28,-234.37 -58.31,-338.43 -390.32,-654.96 -808,-585.49z"/>
  <path class="fil1" d="M1259.53 7567.99c390.71,-0.06 954.35,100.71 1037.15,-373.18 32.15,-184.03 -38.17,-336.65 -147.02,-431.62 -184.54,-161.03 -624.64,-113.22 -890.13,-113.17 -189.27,-0.02 -414.25,-22.47 -558.42,58.73 -285.27,160.69 -325.01,594.52 -15.39,789.88 147.63,93.14 378.77,69.4 573.81,69.36z"/>
  <path class="fil1" d="M981.13 5449.27l813.79 0.04c322.51,0.13 604,-255.12 488.03,-597.29 -134.65,-397.29 -530.97,-320.57 -1023.42,-320.63 -273.25,-0.04 -662.59,-60.12 -772.91,336.81 -96.98,348.92 174.23,581.07 494.51,581.07z"/>
  <path class="fil1" d="M981.13 3330.68l770.96 -0.05c677.58,-0.91 654.27,-652.07 348.36,-841.22 -181.45,-112.19 -600.94,-76.69 -840.92,-76.57 -270.01,0.14 -661.38,-60.26 -772.52,337.13 -98.75,353.08 172.15,580.87 494.12,580.71z"/>
  <path class="fil1" d="M8825.12 2366.58l1.06 1617.69c92.75,-19.31 312.03,-121.76 417.88,-165.76 330.74,-137.49 281.57,-168.5 278.36,-638.71l1.95 -449.41c0.08,-231.33 -97.9,-251.06 -273.73,-325.18 -99.2,-41.82 -328.04,-146.16 -425.46,-163.4l-0.06 124.77z"/>
  <path class="fil1" d="M8824.92 4357.51l-0.47 934.08c120.82,-21.99 583.01,-242.46 640.28,-311.23 103.14,-123.84 60.11,-730.13 59.28,-933.97 -137.72,37.35 -587.75,245.85 -699.09,311.12z"/>
  <path class="fil1" d="M8825.82 6972.65l-1.73 937.92c104.16,-15.41 395.14,-165.71 507.23,-217.53 258.99,-119.7 194.98,-319.68 193.04,-746.78l-2.62 -282.8 -695.92 309.19z"/>
  <path class="fil1" d="M8822.93 5663.63l2.88 936.07c94.24,-13.32 373.22,-158.78 487.21,-209.05 272.96,-120.37 209.42,-263.58 211.49,-685.61l-2.18 -350.46 -699.4 309.05z"/>
 </g>
</svg>
