<?xml version="1.0" encoding="UTF-8"?>
<!DOCTYPE svg PUBLIC "-//W3C//DTD SVG 1.1//EN" "http://www.w3.org/Graphics/SVG/1.1/DTD/svg11.dtd">
<!-- Creator: CorelDRAW 2017 -->
<svg xmlns="http://www.w3.org/2000/svg" xml:space="preserve" width="100mm" height="100mm" version="1.1" style="shape-rendering:geometricPrecision; text-rendering:geometricPrecision; image-rendering:optimizeQuality; fill-rule:evenodd; clip-rule:evenodd"
viewBox="0 0 10000 10000"
 xmlns:xlink="http://www.w3.org/1999/xlink">
 <defs>
  <style type="text/css">
   <![CDATA[
    .fil0 {fill:none}
    .fil3 {fill:#030204}
    .fil4 {fill:#19191E}
    .fil1 {fill:#F7BA15}
    .fil2 {fill:white}
   ]]>
  </style>
 </defs>
 <g id="Capa_x0020_1">
  <metadata id="CorelCorpID_0Corel-Layer"/>
  <rect class="fil0" x="-14999.61" y="4746.15" width="10000" height="10000"/>
  <g id="_1212728956656">
   <path class="fil1" d="M1215.25 4536.43c-2.08,2070.05 1728.34,3681.19 3861.79,3665.68 2092.8,-15.21 3758.43,-1748.17 3706.55,-3886.58 -48.05,-1979.02 -1721.32,-3683.66 -3853.42,-3658.78 -2122.96,24.79 -3712.75,1719.65 -3714.92,3879.68z"/>
   <path class="fil2" d="M7169.2 1688.82c233.71,1320.88 -911.36,1422.5 -1371.66,1036.29 -507.74,-426.04 -469.31,-1484.25 662.47,-1552.86 -513.48,-250.33 -1155.58,-332.61 -1835.47,-278.06 -958.92,1296.61 -6.03,3102.26 1473.22,3213.56 1059.75,79.72 2543.34,-763.25 1812.08,-1749.27 -226.79,-305.78 -428.88,-586.7 -740.64,-669.66z"/>
   <path class="fil2" d="M1656.01 3680.52c1513.72,-396.19 1700.92,1866.54 73.69,1634.45 -322.13,-24.08 -75.86,-32.94 -169.29,96.03 88.2,411.69 294.63,812.83 529.27,1086.41 1059.55,67.58 1928.24,-1009.62 1905.93,-2033.75 -23.47,-1077.15 -908.06,-2044.25 -1965.11,-2017.23 -175.28,250.07 -643.3,969.35 -374.49,1234.09z"/>
   <path class="fil3" d="M4418.05 7524.51c98.18,207.72 184.34,288.74 294.75,434 1449.32,162.11 842.33,-358.35 1920.77,-767.89 518.7,-196.97 635.47,48.41 972.21,-343.84 252.69,-294.36 250.35,-1166.64 -217.55,-1020.89l-1413.79 773.9c-323.01,183.1 -1347.98,688.26 -1556.39,924.72z"/>
   <path class="fil4" d="M7169.2 1688.82l-119.4 -147.2c-234.82,-241.43 -321.36,-187.89 -589.79,-369.37 -1131.78,68.61 -1170.21,1126.82 -662.47,1552.86 460.3,386.21 1605.37,284.59 1371.66,-1036.29z"/>
   <path class="fil4" d="M1729.7 5314.97c1627.23,232.09 1440.03,-2030.64 -73.69,-1634.45 -261.91,169.04 -237.66,474.4 -226.86,858.45 11.47,408.3 -4.61,602.28 300.55,776z"/>
   <path class="fil1" d="M7702.1 8020.34c-858.16,372.71 -316.86,1586.83 599.02,1271.44 862,-296.84 424.32,-1715.89 -599.02,-1271.44z"/>
  </g>
 </g>
</svg>
