<?xml version="1.0" encoding="UTF-8"?>
<!DOCTYPE svg PUBLIC "-//W3C//DTD SVG 1.1//EN" "http://www.w3.org/Graphics/SVG/1.1/DTD/svg11.dtd">
<!-- Creator: CorelDRAW 2017 -->
<svg xmlns="http://www.w3.org/2000/svg" xml:space="preserve" width="50.7998mm" height="33.8666mm" version="1.1" style="shape-rendering:geometricPrecision; text-rendering:geometricPrecision; image-rendering:optimizeQuality; fill-rule:evenodd; clip-rule:evenodd"
viewBox="0 0 5079.98 3386.66"
 xmlns:xlink="http://www.w3.org/1999/xlink">
 <defs>
  <style type="text/css">
   <![CDATA[
    .str0 {stroke:#FEFEFE;stroke-width:50;stroke-miterlimit:22.9256;stroke-opacity:0.909804}
    .fil17 {fill:none}
    .fil8 {fill:#000066;fill-opacity:0.909804}
    .fil11 {fill:#3427A9;fill-opacity:0.909804}
    .fil10 {fill:#360099;fill-opacity:0.909804}
    .fil0 {fill:#472652;fill-opacity:0.909804}
    .fil6 {fill:#6746B6;fill-opacity:0.909804}
    .fil9 {fill:#691CA5;fill-opacity:0.909804}
    .fil2 {fill:#9070C7;fill-opacity:0.909804}
    .fil1 {fill:#9B9797;fill-opacity:0.909804}
    .fil3 {fill:#B29FD9;fill-opacity:0.909804}
    .fil13 {fill:#C03A00;fill-opacity:0.909804}
    .fil12 {fill:#E36D00;fill-opacity:0.909804}
    .fil4 {fill:#E3DDF1;fill-opacity:0.909804}
    .fil7 {fill:#FB9400;fill-opacity:0.909804}
    .fil14 {fill:#FDFC67;fill-opacity:0.909804}
    .fil15 {fill:#FFCC7D;fill-opacity:0.909804}
    .fil5 {fill:white;fill-opacity:0.909804}
    .fil16 {fill:#FEFEFE;fill-rule:nonzero;fill-opacity:0.909804}
   ]]>
  </style>
 </defs>
 <g id="Capa_x0020_1">
  <metadata id="CorelCorpID_0Corel-Layer"/>
  <path class="fil0" d="M1398.61 2904.85l1.97 -63.43c-71.97,-9.52 -17.25,-6.69 -33.59,14.09 2.45,2.62 5.26,6.1 6.84,8.32 1.54,2.15 4.66,5.77 6.39,8.31l14.41 24.82c0.77,-1.64 2.41,5.4 3.98,7.89z"/>
  <path class="fil0" d="M1283.53 2447.65l-9.93 -22.09c-15.85,17.02 -14.18,-26.9 -13.07,33.06 43.79,3.19 3.86,2.63 23,-10.97z"/>
  <path class="fil0" d="M1303.79 2860.43l11.74 -25.17c-11.93,-11.79 19.82,-14.98 -25.73,-6.64l13.99 31.81z"/>
  <path class="fil1" d="M3439.34 600.06l45.78 -4.34c-18.02,-28.56 24.26,-18.28 -37.77,-19.48 -12.14,-0.23 -38.05,12.47 -38.39,12.61l30.38 11.21z"/>
  <path class="fil1" d="M3244.12 599.82l36.46 -10.97 -89.9 -16.32c13.57,13.63 -3.69,8.08 23.7,19.85 21.04,9.04 10.59,3.58 29.74,7.44z"/>
  <path class="fil1" d="M3442.44 754.65c14.23,34.16 5.13,22.15 31.1,40.68 -20.63,-82.55 -0.09,-19.59 -31.1,-40.68z"/>
  <path class="fil2" d="M2258.38 647.15l-28.41 -32.16c-1.33,-4.86 -5.16,-4.59 -7.79,-6.82l14.61 -12.67 9.51 -47.85c37.82,0.93 52.18,-4.64 83.79,-11.84 -1.4,25.67 -5.04,33.96 1.04,56.58 4.68,17.44 8.07,16.55 11.73,24.74l10.03 23.67 -24.02 -107.11 -78.52 0.03c-51.47,59.23 -56.86,43.56 -68.98,78.5 24.98,28.09 36.48,29.47 77.01,34.93z"/>
  <path class="fil2" d="M3880.74 1279.42c61.91,59.81 30.06,-8.55 75.91,61.86 -10.49,-46.72 -32.09,-46.98 8.01,-81.72l-35.94 -0.07c-6.99,25.83 0.31,15.05 -19.07,30.6l-4.2 -25.83c-32.4,-20.83 -22.46,-10.93 -11.2,-57.05 -25.06,27.65 -19.06,32.22 -13.51,72.21z"/>
  <path class="fil2" d="M3489.46 1816.43l-107.53 12.28 9.52 -160.09c-21.35,37.94 -19.26,119.49 -13.9,166.17 45.04,0.75 88.9,4.11 111.91,-18.36z"/>
  <path class="fil2" d="M2776.26 1819.85l-100.01 6.13 6.68 -158.26c-6.69,13.65 -3.27,-12.12 -9.91,27.51 -1.33,7.92 -2.75,35.85 -3.3,45.32 -2.31,39.64 -2.45,55.97 2.44,95.62 43.34,-2.8 72.91,0.07 104.1,-16.32z"/>
  <path class="fil2" d="M1542.85 945.67c24.49,34.66 8.42,24.8 56.63,18.9l13.67 -41.7c-20.18,-43.45 -2.27,-13.74 -28.08,-27.72l15.41 21.25c-6.81,21.27 -18.34,41.77 -34.75,30.47 -20.9,-16.53 -6.19,-0.17 -13.26,-27.91 -0.71,-2.8 1.53,-21.62 2.38,-25.81 -20.48,34.76 -13.05,9.26 -12,52.52z"/>
  <path class="fil2" d="M3062.22 1470.48l47.22 -5.4c-61.44,-4.69 -3.06,8.68 -26.82,-22.76l-17.92 -7.16 -2.48 35.32z"/>
  <polygon class="fil2" points="3905.45,1264.26 3928.72,1259.49 3922.12,1205.78 "/>
  <path class="fil2" d="M3339.95 1412.34l18.01 -1.09c-12.53,-40.66 9.21,-13.79 -24.65,-30.01l6.64 31.1z"/>
  <path class="fil2" d="M2411.74 1024.81l12.93 -47.49c-55.03,-5.11 -8.34,-3.35 -27.36,9.6 19.52,18.12 15.03,-28.51 14.43,37.89z"/>
  <path class="fil2" d="M2817.28 1187.98l15.65 -29.72c-48.92,-3.4 -12.73,-4.26 -24.32,12.99l8.67 16.73z"/>
  <path class="fil2" d="M3301.25 1387.75l21.89 -4.31c-4.24,-47.69 -19.13,-6.42 -21.89,4.31z"/>
  <polygon class="fil2" points="3160.53,1359.58 3142.39,1356.41 3146.56,1388.31 "/>
  <path class="fil2" d="M3149.74 1557.16l7.79 4.16c13.41,-12.92 5.43,24.15 8.32,-9.64 1.48,-17.39 -2.68,-17.54 -3.48,-19.59l-12.63 25.07z"/>
  <polygon class="fil2" points="3207.08,1162.83 3220.44,1132.63 3199.18,1149.65 "/>
  <path class="fil3" d="M2236.79 595.5c55.4,-33.74 -4.86,-18.3 59.16,-29.41l24.5 55.44c-76.75,5.01 -32.68,-0.64 -98.27,-13.36 2.63,2.23 6.46,1.96 7.79,6.82l28.41 32.16c-0.96,24.75 -3.79,1.29 20.46,11.83 27.42,-23.34 28.71,-16.41 74.05,-18.18l-10.03 -23.67c-3.66,-8.19 -7.05,-7.3 -11.73,-24.74 -6.08,-22.62 -2.44,-30.91 -1.04,-56.58 -31.61,7.2 -45.97,12.77 -83.79,11.84l-9.51 47.85z"/>
  <path class="fil3" d="M3512.01 2055.91c-28.25,-21.49 -2.35,-3.35 -41.52,-15.86l-35.11 -16.04 -39.43 -0.52c-22.84,12.94 18.86,15.29 -39.31,12.86 -33.09,-1.39 -10.81,7.54 -24.85,-14.27l-54.68 12.37c16.21,25.88 73.33,14.86 113.26,15.68 42.3,0.86 79.43,2.47 121.64,5.78z"/>
  <path class="fil3" d="M2923.02 1002.58c78.82,2.04 22.89,-4.45 42.48,20.04 -14.65,10.19 21.13,44.15 -30.65,12.81 -27.67,-16.74 -5.26,7.41 -14.9,-30.95 -18.34,18.31 -21.98,-30.64 -11.92,34.32 33.41,27.45 31.76,24.77 78.07,30.45l0.04 -67.92c-6.43,-3.17 -36.04,-15.84 -40.38,-18.7 -22.61,16.53 -4.21,-3.72 -22.74,19.95z"/>
  <path class="fil3" d="M2648.7 1241.42l-3.75 -199.88 84.47 4.09c-33.08,-22.41 -42.95,-22.25 -87.68,-9.26 -10.93,39.99 -8.99,58.89 -8.71,100.25 0.29,43.93 -1.59,73.09 15.67,104.8z"/>
  <path class="fil3" d="M2650.01 1024.39l-0.89 -175.74 72.81 2.66c-35.66,-19.1 -35.56,-15.25 -72.57,-11.84 -16.01,32.61 -19.5,98.83 -16.17,138.44 3.67,43.66 6.55,35.45 16.82,46.48z"/>
  <path class="fil3" d="M3870.56 908.68c54.46,16.01 25.02,-14.16 32.86,34.18 -14.49,-6.33 -9.49,-1.35 -18.08,-11.88 -1.78,-2.18 -11.29,-20.78 -14.78,-22.3zm-14.33 26.27l58.55 27.97c19.89,-44.67 8.34,-48.11 -8.61,-77.39 -42.68,11.18 -37.72,4.73 -49.94,49.42z"/>
  <path class="fil3" d="M2275.78 2020.71c-15.9,15.37 1.27,15.53 -34.54,15.28 -40.16,-0.28 -8,1.16 -21.05,-13.57l-20.63 -1.43c-2.47,34.16 -27.07,32.83 74.44,30.81 45.43,-0.9 35.65,0.52 54.62,-14.56l-52.84 -16.53z"/>
  <path class="fil3" d="M3094.44 2021.65c-20.96,19.59 28.03,15.49 -33.49,14.22 -32.67,-0.67 -7.13,1.93 -24.46,-13.86l-44.65 12.42c21.87,22.06 11.33,15.5 67.59,15.72 11.13,0.05 38.62,1.88 46.64,0.93 40.8,-4.84 24.01,-6.12 34.59,-13.84l-46.22 -15.59z"/>
  <path class="fil3" d="M3082.62 1442.32c23.76,31.44 -34.62,18.07 26.82,22.76 2.2,1.46 5.71,0.82 6.61,4.36l25.84 28.01 4.92 -70.41 -64.19 15.28z"/>
  <path class="fil3" d="M3575.04 495.95c49.73,-36.63 25.39,-38.96 50.11,-27.1 45.76,21.96 15.09,4.19 15.61,28.72 1.08,51.56 -14.16,33.98 -16.92,37.85l-48.8 -39.47zm0 0c-4.06,41.56 32.38,48.91 74.37,56.1l-36.71 -116.56c-25.85,33.11 -12.93,21.96 -49.98,40.19 -6.05,49.06 -3.49,5.54 12.32,20.27z"/>
  <path class="fil3" d="M2375.53 1460.52c-2.27,3.28 -5.47,13.23 -9.81,21.12l89.78 -4.99 -21.24 -51.63c-9.43,53.56 21.01,16.81 -58.73,35.5z"/>
  <path class="fil3" d="M2112.37 1632.28c56.71,-14.21 16.06,-6.96 35.44,5.96 -11.65,38.21 8.26,11.52 -30.57,24.3 19.04,16.67 -27.4,19.64 29.62,11.61 17.59,-25.09 -6.64,-6.25 29.77,-13.2l0 -9.54c-13.79,-15.52 -6.43,-6.96 -17.31,-23.68 -33.83,-52.01 12.76,12.76 -11.41,-18.96 -52.61,14.04 -17.46,4.93 -35.54,23.51z"/>
  <path class="fil3" d="M1476.38 1430.16l-15.9 -3.95 -26.47 14.32 23.62 19.47c27.34,17.54 -12.68,-6.41 15.29,8.17 27.51,14.33 25.66,13.41 28.34,25.19 -5.97,-11.11 -4.28,-5.86 -9.33,-27.88 -16.34,-71.39 59.29,30.07 -15.55,-35.32z"/>
  <path class="fil3" d="M3340.87 1413l-32.95 5.53 -6.67 -30.78c-19.6,25.32 -17.36,2.07 -11.79,53.72 9.04,-1.97 15.32,0.08 24.57,-4.54 27.34,-13.64 11.74,-0.08 26.84,-23.93z"/>
  <path class="fil3" d="M1565.73 946.87l-5.3 -38.95 40.05 8.48 -15.41 -21.25 -30.22 -2c-0.85,4.19 -3.09,23.01 -2.38,25.81 7.07,27.74 -7.64,11.38 13.26,27.91z"/>
  <path class="fil3" d="M2761.89 1055.54c2.49,42.89 3.5,27.29 17.41,42.01l10.42 -61.45c-9.63,8.13 -18.83,13.43 -27.83,19.44z"/>
  <path class="fil3" d="M2159.41 841.25l28.01 -11.87c-11.98,-8.12 14.75,-13.32 -43.23,-13.32 -6.19,56.34 -4.06,6 15.22,25.19z"/>
  <path class="fil3" d="M2231.74 1866.45l3.11 18.89 34.39 10.11 5.45 -29.62c-29.36,13.92 4.14,17.85 -42.95,0.62z"/>
  <path class="fil3" d="M3277.65 840.26l24.31 -8.91c-11.21,-8.32 7.74,-12.07 -40.52,-13.34 -4.45,48 -4,4.85 16.21,22.25z"/>
  <path class="fil3" d="M2695.01 600.87c0.67,3.66 0.56,6.69 1.86,10.99 8.48,28.04 28.74,3.68 32.23,2.06 -15.83,-21.42 13.71,-13.38 -34.09,-13.05z"/>
  <path class="fil3" d="M3435.71 840.75c20.44,-10.69 22.65,33.54 14.64,-22.74 -62.04,0 -6.2,-2.37 -30.56,12.67l15.92 10.07z"/>
  <path class="fil3" d="M2819.37 1993.78l14.5 0.73c11.35,-25.84 6.44,-23.93 -2.11,-37.87l-12.39 37.14z"/>
  <path class="fil3" d="M3528.76 1986.32l5.25 6.91c20.84,-28.2 8.92,-28.65 4.56,-36.38l-9.81 29.47z"/>
  <path class="fil4" d="M2729.93 1568.69c0.12,-71.1 -14.71,-153.47 6.92,-220.31 251.61,-38.93 244.97,264.61 -6.92,220.31zm-37.3 -219.85c3.07,41.8 16.96,198.61 -13.23,229.36l-22.87 14.45c86.78,-0.41 273.33,14.24 297.45,-129.22 26.47,-157.42 -170.1,-137.18 -292.69,-130.64l31.34 16.05z"/>
  <path class="fil4" d="M1896.74 1568.5c-4.38,-64.16 -12.57,-160.73 8.39,-219.35 244.42,-36.12 241.54,257.8 -8.39,219.35zm-37.96 1.33l-35.06 17.97c68.43,3.09 128.76,7.83 192.46,-12.52 55.39,-17.7 92.51,-54.43 101.05,-114.24 22.14,-154.94 -157.01,-134.34 -288.41,-127.96 54.1,30.26 35.35,141.88 29.96,236.75z"/>
  <path class="fil4" d="M3157.53 1561.32l-7.79 -4.16c-12.04,9.25 0.22,11.51 -37.21,18.32 -18.64,3.39 -28.11,1.28 -45.17,-0.07l-5.14 -104.93 2.48 -35.32c-1.2,-10.91 -3.41,-24.28 -3.13,-36.49 0.87,-37.96 -0.95,-24.2 9.59,-51.74l71.23 9.48 18.14 3.17 3.67 -42.51c-43.12,21.38 -107.63,12.05 -170.48,16.39l32.17 16.91 2 219.46 -39.3 22.18c50.6,0 133.7,-14.76 168.65,18.3l0.29 -48.99z"/>
  <path class="fil4" d="M2387.71 1358.25c-19.29,43.78 -63.74,184.59 -89.7,213.49 -1.79,2 -4.47,4.1 -6.36,6.01l68.28 12.07c-6.96,-4.62 -54.26,3.82 5.79,-108.18 4.34,-7.89 7.54,-17.84 9.81,-21.12 2.74,-22.69 3.46,-40.69 12.96,-60.53 24.34,-50.82 2.97,-23.29 32.81,-31.83 -14.07,-27.9 6.04,-33.56 -13.02,-16.6 10.84,0.53 8.33,1.63 12.42,4.32l22.51 20.09 -1.4 -19.69c10.09,-15.29 -9.39,-16.68 17.22,-19.63l-88.18 -3.4c35.54,11.26 0.65,-2.7 16.86,25z"/>
  <path class="fil4" d="M2260.14 1020.09l0.32 27.86c30.08,-3.11 71.51,-5.98 101.11,2.92 58.37,17.55 8.72,16.82 44.88,59.45l5.29 -85.51c0.6,-66.4 5.09,-19.77 -14.43,-37.89l-5.02 28.44 -132.15 4.73z"/>
  <path class="fil4" d="M3575.04 495.95l48.8 39.47c2.76,-3.87 18,13.71 16.92,-37.85 -0.52,-24.53 30.15,-6.76 -15.61,-28.72 -24.72,-11.86 -0.38,-9.53 -50.11,27.1z"/>
  <path class="fil4" d="M2923.02 1002.58l-3.07 1.9c9.64,38.36 -12.77,14.21 14.9,30.95 51.78,31.34 16,-2.62 30.65,-12.81 -19.59,-24.49 36.34,-18 -42.48,-20.04z"/>
  <path class="fil4" d="M2117.24 1662.54c38.83,-12.78 18.92,13.91 30.57,-24.3 -19.38,-12.92 21.27,-20.17 -35.44,-5.96l-12.44 14.02c14.03,17.09 -16.08,9.82 17.31,16.24z"/>
  <path class="fil4" d="M1565.73 946.87c16.41,11.3 27.94,-9.2 34.75,-30.47l-40.05 -8.48 5.3 38.95z"/>
  <polygon class="fil4" points="3301.25,1387.75 3307.92,1418.53 3340.87,1413 3339.95,1412.34 3333.31,1381.24 3323.14,1383.44 "/>
  <polygon class="fil4" points="2809.71,861.48 2784.78,862.37 2791.97,917.72 "/>
  <path class="fil4" d="M3870.56 908.68c3.49,1.52 13,20.12 14.78,22.3 8.59,10.53 3.59,5.55 18.08,11.88 -7.84,-48.34 21.6,-18.17 -32.86,-34.18z"/>
  <path class="fil4" d="M3928.72 1259.49l-23.27 4.77 4.2 25.83c19.38,-15.55 12.08,-4.77 19.07,-30.6z"/>
  <path class="fil5" d="M3549.78 924.76c-1.35,27.47 -8.58,21.66 17.07,21.66 0.87,-69.89 9.11,-82.45 80.67,-90.63 52.35,-5.98 114.66,-7.94 170.15,-10.47 -21.74,46.54 -122.15,199.06 -159.88,219.36 -6.64,39.5 2.34,13.64 -24.89,52.07l-106.7 147.07 320.2 -2.83c20.86,33.32 10.34,23.67 14.19,65.06l20.15 -46.63c-5.55,-39.99 -11.55,-44.56 13.51,-72.21l4.77 -86.78 -33.74 92.36c-82.28,23.78 -175.96,27.4 -263.56,26.67l147.54 -208.62c49.47,-77.87 110.23,-123.89 145.28,-202.55l-298.96 -2.64c-34.89,-42.89 10.1,-26.78 -31.08,-56.38l-14.72 155.49z"/>
  <path class="fil5" d="M2589.61 874.48l1.86 363.12 -66.41 18.42 51.67 3.39c43.65,-0.56 86.7,1.78 130.28,2.05 97.13,0.59 73.34,5.92 106.33,38.12l-0.34 -37.61 4.28 -73.99 -8.67 -16.73c-7.33,82.34 -76.88,72.07 -159.91,70.17 -17.26,-31.71 -15.38,-60.87 -15.67,-104.8 -0.28,-41.36 -2.22,-60.26 8.71,-100.25 44.73,-12.99 54.6,-13.15 87.68,9.26l32.47 9.91c9,-6.01 18.2,-11.31 27.83,-19.44l3.55 -45.81c-37.72,15.56 4.22,14.73 -54.8,26.65 -24.88,5.03 -61.8,4.95 -88.46,7.45 -10.27,-11.03 -13.15,-2.82 -16.82,-46.48 -3.33,-39.61 0.16,-105.83 16.17,-138.44 37.01,-3.41 36.91,-7.26 72.57,11.84l62.85 11.06 24.93 -0.89 7.09 -65.3c-46.07,18.43 7.85,13.26 -44.67,25.67l-213.55 17.12c50.16,27.92 -15.06,-14.1 15.75,8.71 15.17,11.23 9.5,-17.49 15.28,26.8z"/>
  <path class="fil5" d="M2269.09 1846.78l3.33 -179.36c72.91,1.13 146.83,13.01 146.5,84.23 -0.36,80.16 -70.18,93.61 -149.83,95.13zm-60.27 -177.26c21.36,9.31 12.06,-1.57 17.43,25.72l5.49 171.21c47.09,17.23 13.59,13.3 42.95,-0.62l66.83 -1.88c38.19,41.42 57.2,70.33 91.12,105.09 34.75,35.62 49.46,79.42 104.74,88.94 -25.26,-51.26 -106.99,-138.03 -139.99,-214.54 29.27,-45.25 224.25,-209.06 -187.39,-192.66l-33.37 0.63 0 9.54 32.19 8.57z"/>
  <path class="fil5" d="M2811.34 2076.18c8.1,-14.11 0.61,-2.97 19.19,-11.62l3.34 -70.05 -14.5 -0.73 -5.5 21.82 -118.97 10.2c-29.09,-22.81 -13.07,26.08 -21.36,-44.8l-0.52 -139.82c34.51,0.66 84.78,-6.98 98.31,19.02 22.64,17.55 3.59,-11.03 22.12,35.45l16.89 -98.16c-13.2,12.38 -15.24,14.78 -34.08,22.36 -31.19,16.39 -60.76,13.52 -104.1,16.32 -4.89,-39.65 -4.75,-55.98 -2.44,-95.62 0.55,-9.47 1.97,-37.4 3.3,-45.32 6.64,-39.63 3.22,-13.86 9.91,-27.51l115.05 12.59 16.93 54.82c12.73,-48.26 17.46,-71.89 11.66,-113.45 -23.48,42.36 -54.56,30.55 -108.64,30.35 -50.01,-0.19 -99.65,-0.16 -149.56,-1.37l58.81 19.11 2.58 344.67c-4.37,1.97 -8.51,1.25 -9.78,5.09l-47.45 25.24 225.04 2.47c10.99,13.43 9.89,4.8 13.77,28.94z"/>
  <path class="fil5" d="M2986.14 1001.33l-0.04 67.92c-3.75,32.73 -2.91,56.49 -3.51,90.45l-13.89 83 -55.18 12.49 248.87 5.86 14.45 74.82 30.24 -173.04 -7.9 -13.18 -17.62 31.43c-2.08,66.87 -83.93,58.83 -147.78,61.24l-2.42 -85.17 5.22 -305.53c21.36,-10.61 14.54,-4.17 34.69,-12.77 30.47,-13.01 11.72,-2.65 28.78,-13.5l-182.03 -0.66c2.93,2.04 6.96,3.93 9.39,5.15l51.48 21.73 7.25 149.76z"/>
  <path class="fil5" d="M2187.42 829.38l-28.01 11.87 49.06 3.72 6.7 393.75 -68.67 16.63 186.45 2.79 -65.24 -21.48 -7.25 -188.71 -0.32 -27.86c23.68,-148.8 -53.45,-220.54 157.53,-152.45l11.04 53.65c8.56,-19.3 12.43,-45.23 14.87,-73.01l-5.66 -69.27c-20.22,60.7 -28,47.25 -107.31,47 -47.43,-0.15 -97.06,-3.37 -143.19,3.37z"/>
  <path class="fil5" d="M3036.49 2022.01c17.33,15.79 -8.21,13.19 24.46,13.86 61.52,1.27 12.53,5.37 33.49,-14.22 -42.8,-112.01 59.61,-316.94 157.38,-364.91l-77.38 31.93 -89.64 145.75c-67.76,-61.09 -57.11,-76.47 -111.21,-154.82l34.63 -24.2c1.47,-0.91 5.04,-2.76 7.42,-4.37l-139.17 2.41c73.64,43.08 207.57,232.3 160.02,368.57z"/>
  <path class="fil5" d="M3331.79 2022.08c14.04,21.81 -8.24,12.88 24.85,14.27 58.17,2.43 16.47,0.08 39.31,-12.86l-16.58 -31.21 -1.48 -150.03c41.93,-1.73 76.43,-7.9 100.26,17.57 17.38,12.53 12.15,3.9 21.65,36.05l17.1 -96.39c-18.25,18.46 -14.83,9.36 -27.44,16.95 -23.01,22.47 -66.87,19.11 -111.91,18.36 -5.36,-46.68 -7.45,-128.23 13.9,-166.17 35.1,0.09 91.58,-4.6 115.76,23.28 1.58,1.82 3.18,4.84 4.56,6.89 1.46,2.16 2.76,5.48 4.04,7.75 1.33,2.37 2.66,6.03 3.79,8.28 1.15,2.33 2.83,6.65 3.73,8.59 0.92,1.98 2.09,6.04 3.72,8.76 4.01,-48.31 8.86,-68 8.67,-107.35 -45.45,52.02 -182.43,20.25 -260.2,31.39l60.41 12.47 -4.14 353.4z"/>
  <path class="fil5" d="M3789.32 2027.69l-0.47 5.39c85.85,-11.93 99.6,-127.24 31.25,-186.39 -77.9,-67.4 -149.05,-67.06 -125.06,-168.15 76.55,-31.28 139.36,-29.31 142.51,74.76 24.7,-17 20.04,-65.14 27.51,-136.91l-30.08 37.6c-155.14,-32.84 -233.91,67.18 -143.01,161.35 77.56,80.36 198.82,83.24 97.35,212.35z"/>
  <path class="fil5" d="M3310.63 1240.05l137.45 19.57c-14.47,-7.78 -10.27,-3.14 -24.16,-9.68l-24.75 -13.44c-26.03,-20.05 -10.38,10.21 -18.47,-42.23l-0.02 -148.85c0.5,-67.33 -1.52,-131.3 5.51,-199.83l49.52 -4.84 -15.92 -10.07 -117.83 0.67 -24.31 8.91 48.31 6.78 7.39 301.26c0.7,98.89 -5.05,81.79 -22.72,91.75z"/>
  <path class="fil5" d="M2158.44 1585.08l8.89 6.84 83.33 -8.4c-3.08,-2.43 -16.98,-12.06 -19.4,-13.69l-5.98 -198.46c10.32,-38.88 -1.33,-21.83 33.36,-36.41l-97.39 -2.85c48.69,31.15 36.45,31.58 36.08,101.2 -0.26,47.07 2.29,90.45 -5.5,136.52l-33.39 15.25z"/>
  <path class="fil5" d="M2421.3 1368.16l12.96 56.86 21.24 51.63c24.6,87.02 35.22,89.09 -3.45,114.45l102.34 -1.38c-75.45,-40.55 -63.41,-137.95 -111.18,-213.75l-22.51 -20.09c-4.09,-2.69 -1.58,-3.79 -12.42,-4.32 19.06,-16.96 -1.05,-11.3 13.02,16.6z"/>
  <path class="fil5" d="M3628.52 2070.72c-4.71,50.46 -7.32,15.87 18.9,28.5 -0.22,-48.68 -3.69,-54.16 38.42,-48.79 20.56,2.62 36.86,7.1 58.73,4.21 42.31,-5.58 27,-2.99 44.28,-21.56l0.47 -5.39c-57.4,9.03 -109.99,5.25 -131.41,-51.81 -10.23,-27.27 -0.7,-26.81 -20.21,-53.87l-9.18 148.71z"/>
  <path class="fil5" d="M2220.19 2022.42c13.05,14.73 -19.11,13.29 21.05,13.57 35.81,0.25 18.64,0.09 34.54,-15.28 -5.84,-38.74 2.04,-44.89 -13.38,-73.65l0.92 25.47c-36.76,-15.31 -18.91,-9.96 -34.16,-3.69l-8.97 53.58z"/>
  <path class="fil5" d="M2236.79 595.5l-14.61 12.67c65.59,12.72 21.52,18.37 98.27,13.36l-24.5 -55.44c-64.02,11.11 -3.76,-4.33 -59.16,29.41z"/>
  <path class="fil5" d="M3435.38 2024.01l35.11 16.04c39.17,12.51 13.27,-5.63 41.52,15.86l6.81 20.83 25 -47.54 -9.81 -35.97 -5.25 -6.91 -8.05 29.59 -85.33 8.1z"/>
  <path class="fil6" d="M2352.89 640.8c-45.34,1.77 -46.63,-5.16 -74.05,18.18 -24.25,-10.54 -21.42,12.92 -20.46,-11.83 -40.53,-5.46 -52.03,-6.84 -77.01,-34.93 12.12,-34.94 17.51,-19.27 68.98,-78.5l78.52 -0.03 24.02 107.11zm376.21 -26.88c-3.49,1.62 -23.75,25.98 -32.23,-2.06 -1.3,-4.3 -1.19,-7.33 -1.86,-10.99 47.8,-0.33 18.26,-8.37 34.09,13.05zm845.94 -117.97c-15.81,-14.73 -18.37,28.79 -12.32,-20.27 37.05,-18.23 24.13,-7.08 49.98,-40.19l36.71 116.56c-41.99,-7.19 -78.43,-14.54 -74.37,-56.1zm-222.88 -240.66c-36.16,53.38 -190.03,60.23 -272.02,70.29 -103.15,12.65 -198.78,23.73 -302.48,39.06 -100.86,14.92 -197.06,29.98 -292.75,48.39 -93.4,17.96 -190.27,49.33 -282.12,65.13 1.52,1.73 0.23,3.88 -0.11,6.9l-191.41 85.14c-83.28,39.43 -132.15,55.89 -204.97,92.08l-165.45 95.21c-93.92,61.93 -109.95,84.3 -180.86,147.25 42.41,30.04 49.22,-7.05 64.63,-22.8l18.23 63.73c-1.05,-43.26 -8.48,-17.76 12,-52.52l30.22 2c25.81,13.98 7.9,-15.73 28.08,27.72 2.84,-2.11 19.9,-16.47 20.08,-16.58l73.34 -19.33c56.89,1.87 26.67,30.37 73.62,15.92 18.83,-5.8 -2.91,1.12 18.06,-6.15l91.39 -41.01c24.45,-14.19 -12.64,-14.27 52.66,-15.74l-22.79 -34.2c19.93,-0.43 13.99,-0.61 29.58,-4.66l14.91 -4.61c68.4,-23.93 63.61,-56.13 183.13,-56.44 116.03,-0.31 232.37,0.36 348.44,0.49 35.12,-38.79 48.97,0.71 91.55,-39.38 51.74,-48.72 -61.75,12.43 18.27,-18.45l15.26 -4.27c0.69,-0.37 3.45,-2.08 4.04,-2.5 60.18,-42.36 -32.47,6.18 11.1,-13.3 34.94,-15.62 7.55,8.63 64.57,-6.17 66.17,-17.18 9.17,-19.75 74.73,-27.28 163.13,-18.73 357.98,15.18 512.91,-12.2 -11.89,-10.01 -3.15,-5.67 -23.24,-14.43 -21.43,-9.35 -1.34,-0.99 -20.64,-2.76 -19.15,-3.86 -8.7,1.6 -29.74,-7.44 -27.39,-11.77 -10.13,-6.22 -23.7,-19.85l89.9 16.32 56.13 3.9c1.47,-14.5 2.2,-39.34 4.42,-52.78l20.74 47.98 47.09 0.9c0.34,-0.14 26.25,-12.84 38.39,-12.61 62.03,1.2 19.75,-9.08 37.77,19.48 52.92,19.93 -14.4,-8.24 85.11,-9.21l378.75 17.51 12.91 -27.66c-32.44,-98.17 -200.25,-246.82 -290.85,-301.56 -117.58,-71.04 -291.39,-141.36 -455.33,-140.99 41.56,30.62 106.9,34.31 153.3,103.84l-16.85 17.64z"/>
  <path class="fil6" d="M2811.34 2076.18l-2.5 52.56 -238.33 4.38c10.88,21.98 -2.71,4.83 22.66,18.26 6.58,3.49 17.94,4.8 31.42,11.27l3.81 79.85 34.06 58.69c0.77,1.05 3.59,4.07 4.84,6.45 9.44,-64.46 -4.8,-80.33 9.79,-129.96 15.11,-51.42 131.98,-7.59 153.08,6.17l0.36 -119.29c-18.58,8.65 -11.09,-2.49 -19.19,11.62z"/>
  <path class="fil6" d="M3518.82 2076.74l-5.49 50.93 -228.74 9.44 50.14 21.15 0.35 46.93 21.53 34.2c9.01,-26.83 -3.73,-21.65 14.56,-7.9 3.34,-41.46 -3.07,-47.87 23.13,-75.74 26.86,-1.14 55.08,-3.01 81.95,1.01 45.91,6.85 45.44,18.97 63.32,44.25 -0.75,-25.41 -6.4,-62.99 -5.73,-84.27 1.71,-54.86 17.32,-34.56 9.98,-87.54l-25 47.54z"/>
  <path class="fil6" d="M3824.77 2205.19c44.31,12.07 14.12,8.47 24.47,-12.53 -43.33,-73.04 -102.4,-79.09 -195.94,-54.74l-5.88 -38.7c-26.22,-12.63 -23.61,21.96 -18.9,-28.5 -17,27.74 6,84.55 8.94,133.92 3.12,-1.89 7.59,-8.5 9.12,-6.05l56.17 -43.96c36.39,-14.99 71.86,-2.33 102.8,4.58l19.22 45.98z"/>
  <path class="fil6" d="M3071.17 2133.34l-73.83 3.04c2.92,1.85 7.47,1.13 9,5.74l35.06 23.63c0.62,11.38 0.18,33.26 1.68,43.14l19.52 47.79c14.85,-14.74 15.81,-8.28 22.14,-36.59 2.42,-10.8 2.13,-41.81 2.75,-55.01 24.56,-18.26 26.12,-10.63 51.96,-25.23l-68.28 -6.51z"/>
  <path class="fil6" d="M2269.47 2240.8c-0.35,-3.03 -6.02,-42.14 4.36,-65.8 27.4,-62.41 29.75,15.47 54.01,-44.79l-153.23 1.89 58.42 25.87c5.08,75.95 -8.67,91.99 36.44,82.83z"/>
  <path class="fil6" d="M3301.25 1387.75c2.76,-10.73 17.65,-52 21.89,-4.31l10.17 -2.2c33.86,16.22 12.12,-10.65 24.65,30.01l-18.01 1.09 0.92 0.66c-15.1,23.85 0.5,10.29 -26.84,23.93 -9.25,4.62 -15.53,2.57 -24.57,4.54 -5.57,-51.65 -7.81,-28.4 11.79,-53.72zm56.71 23.5c33.34,-49.63 -39.13,-57.68 -69.99,-54.58 -12.46,18.17 -41.24,62.14 -13.62,90.51 11.82,12.13 34.13,12.84 52.81,5.87 31.12,-11.62 25.38,-13.06 30.8,-41.8z"/>
  <path class="fil6" d="M2443.07 2207.73l-10.03 23.1 25.19 -0.02c21.07,-39.86 62.97,-64.26 84.7,-110.55 -50.97,-3.22 -38.13,1.29 -62.2,33.6 -13.96,18.74 -30.8,31.44 -37.66,53.87z"/>
  <path class="fil6" d="M2694.9 2025.8l-14.54 -175.56 90.97 9.96c-13.53,-26 -63.8,-18.36 -98.31,-19.02l0.52 139.82c8.29,70.88 -7.73,21.99 21.36,44.8z"/>
  <path class="fil6" d="M3395.95 2023.49l-7.64 -177.47 89.84 13.8c-23.83,-25.47 -58.33,-19.3 -100.26,-17.57l1.48 150.03 16.58 31.21z"/>
  <path class="fil6" d="M2208.82 1669.52l-32.19 -8.57c-36.41,6.95 -12.18,-11.89 -29.77,13.2 -57.02,8.03 -10.58,5.06 -29.62,-11.61 -33.39,-6.42 -3.28,0.85 -17.31,-16.24l12.44 -14.02c18.08,-18.58 -17.07,-9.47 35.54,-23.51 24.17,31.72 -22.42,-33.05 11.41,18.96 10.88,16.72 3.52,8.16 17.31,23.68l33.37 -0.63c-43.84,-18.95 -25.34,0.91 -42.67,-58.86l-8.89 -6.84c-34.73,39.54 -31.82,10.57 -73.79,64.55 16.61,14.99 22.36,19.87 40.3,34.53 16.2,-3.92 27.1,-8.81 34.34,-10.15 9.03,-1.66 39.32,-3.89 49.53,-4.49z"/>
  <path class="fil6" d="M3566.85 946.42c-25.65,0 -18.42,5.81 -17.07,-21.66 -12.57,18 -14.63,-26.27 -8.81,28.74 65.23,25.79 6.67,5.18 25.88,-7.08z"/>
  <path class="fil6" d="M1460.48 1426.21l15.9 3.95c-1.54,-35.74 9.36,-11.14 -12.59,-31.39 6.59,9.39 8.21,0.09 -3.31,27.44z"/>
  <path class="fil7" d="M3188.49 137.72l27.22 -3.91c163.94,-0.37 337.75,69.95 455.33,140.99 90.6,54.74 258.41,203.39 290.85,301.56 86.95,85.31 132.49,292.68 177.15,427.64 111.65,704.49 29.08,1318.52 -412.34,1665.65 -220.15,173.11 -512.47,248.84 -851.97,191.4 -183.36,-31.02 -449.58,-126.11 -622.62,-199.21 -51.24,-21.65 -146.55,-70.06 -199.98,-78.03l4.75 8.45c60.62,68.97 587.28,244.26 744.72,271.19 45.87,7.84 95.59,18.87 144.91,25.19 49.89,6.39 106.37,0.22 155.25,10.58 184.38,29.62 437.69,-82 576.25,-174.69 115.64,-77.37 252.24,-206.42 318.99,-330.87 15.43,-28.77 18.45,-40.96 49.09,-63.84 -19.73,180.8 -174.41,434.24 -306.19,536.09 -142.54,110.18 -354.78,226.73 -577.59,245.32l-72.73 21.19c-282.47,31.44 -643.52,-9.82 -921.65,-43.22 -62.74,-7.53 -125.42,2.85 -180.36,-1.77 -60.97,-5.12 0.78,-0.3 -101.57,-32.71 -3.66,-1.17 -6.54,-1.81 -10.09,-3.14l-19.5 -9.71c-2.73,-1.32 -6.81,-3.32 -9.53,-5.87 39.74,-41.19 11.45,-24.79 79.8,-36.67 -11.92,0 -29.66,1.45 -40.51,-2.28 -31.93,-10.96 -12.08,9.53 -27.89,-20.53 -16.08,-2.9 -38.02,-49.37 -43.27,-65.92l-21.69 -2.48 21.61 120.55c-138,117.11 -71.71,103.17 -41.48,172.25 -58.6,-1.24 -28.95,5.15 -52.58,-19.18 -54.48,-56.12 10.22,-167.66 -15.52,-382.89 -97.76,17.68 -219.16,3.81 -258.91,-60.69 -10.33,56.6 -2.21,206.7 3.58,268.05 16.88,178.88 55.54,148.95 87.04,196.96 -45.11,5.75 -41.69,-1.45 -59.62,-38.79 -34.84,-72.55 -87.74,-181.45 -78.83,-259.53 -1.57,-2.49 -3.21,-9.53 -3.98,-7.89l-14.41 -24.82c-1.73,-2.54 -4.85,-6.16 -6.39,-8.31 -1.58,-2.22 -4.39,-5.7 -6.84,-8.32 -3.18,58.19 -24.05,119.74 -21.66,196.47 4.98,160.01 25.85,134.7 55.51,171.03 -67.12,-3.52 -61.32,-14.54 -83.7,-150.66 -12.21,-74.24 -16.63,-134.51 -13.35,-211.92l-13.99 -31.81c-27,-102.61 -24.94,-174.01 15.11,-266.13 20.71,-47.62 77.14,-172.98 75.15,-223.86l-52.7 -11.3 -43.83 120.32c-19.14,13.6 20.79,14.16 -23,10.97 -1.11,-59.96 -2.78,-16.04 13.07,-33.06 10.26,-26.16 25.24,-60.17 30.53,-101.89l-128.43 -0.37c4.12,67.28 25.59,110.89 47.79,156.92 -43.56,-3.52 -36.14,-4.34 -51.6,-60.09 -8.31,-29.94 -13.69,-53.64 -19.13,-82.75l-27.48 -2.64c1.05,52.99 25.55,132.31 20.05,142.78 -25.57,-21.03 -18.22,-17.6 -29.92,-57.26 -8.54,-28.93 -13.71,-48.18 -19.08,-77.15 -156.2,-413.21 -80.37,-947.76 140.07,-1262.75 106.38,-152 237.24,-267.6 414.34,-372.54 190.44,-112.83 330.6,-144.13 552.05,-229.66 91.85,-15.8 188.72,-47.17 282.12,-65.13 95.69,-18.41 191.89,-33.47 292.75,-48.39 103.7,-15.33 199.33,-26.41 302.48,-39.06 81.99,-10.06 235.86,-16.91 272.02,-70.29l-8.78 -4.58c-87.05,46.72 -724.84,110.36 -968.94,167.11 -813.8,189.22 -1376.95,565.43 -1375.43,1459.84 0.37,216.36 39.17,297.95 78.13,478.79 -97.13,81.03 -220.45,156.1 -201.64,361.36 37.16,405.39 638.37,647.4 1065.18,620.55 -40.38,-124.42 -85.77,-222.61 103.88,-231.04 125.32,-5.57 269.77,17.26 393.5,29.39 273.47,26.81 528.95,39.44 794.3,-15.3 478.38,-98.69 735.38,-373.86 846.35,-838.66 60.58,-253.71 118.37,-427.41 126.66,-724.32 12.94,-463.31 -92.88,-966.93 -448.9,-1243.82 -135.31,-105.24 -401.05,-222.86 -626.44,-205.49 17.33,32.52 8.7,27.35 58.46,28.6z"/>
  <path class="fil7" d="M1945.99 2552.92c-11.02,-37.76 17.88,-16.37 -37.98,-33.86l-17.54 48.49c47.57,5.24 30.84,9.24 55.52,-14.63z"/>
  <path class="fil7" d="M1876.68 2516.24c-13.37,-20.09 -0.5,-10.39 -24.19,-23.7 -0.09,-0.04 -29.97,-9.53 -34.49,-10.98 6.92,16.62 1.88,15.56 19.42,36.62 20.62,24.77 8.31,9.94 28.04,22.26l11.22 -24.2z"/>
  <path class="fil8" d="M1945.99 2552.92c-24.68,23.87 -7.95,19.87 -55.52,14.63l17.54 -48.49c23.65,-49.67 35.3,-20.7 41.74,-83.44 4.19,-40.78 4.39,-82.17 8.89,-124.07 29.27,86.56 12.43,172.06 -12.65,241.37zm-187.34 -274.78c5.2,40.84 10.71,99.74 -7.25,130.61 -34.64,-32.63 -10.96,-105.91 7.25,-130.61zm118.03 238.1l-11.22 24.2c-19.73,-12.32 -7.42,2.51 -28.04,-22.26 -17.54,-21.06 -12.5,-20 -19.42,-36.62 -40.14,-62.28 -25.71,-169.25 -6.44,-244.7 35.96,7.23 57.23,17.07 112.24,24.33 6.77,86.97 -12.2,186.69 -47.12,255.05zm-780.35 -173.13c5.37,28.97 10.54,48.22 19.08,77.15 11.7,39.66 4.35,36.23 29.92,57.26 5.5,-10.47 -19,-89.79 -20.05,-142.78l5.37 -63.6c8.23,11.52 8.66,4.4 16.19,26.79 5.56,16.55 3.98,23.34 5.92,39.45 5.44,29.11 10.82,52.81 19.13,82.75 15.46,55.75 8.04,56.57 51.6,60.09 -22.2,-46.03 -43.67,-89.64 -47.79,-156.92l33.79 -244.42c23.96,0.47 78.33,27.83 119.73,39.88l-25.09 204.91c-5.29,41.72 -20.27,75.73 -30.53,101.89l9.93 22.09 43.83 -120.32 22.66 -112.95c26.32,43.59 20.51,64.89 30.04,124.25 1.99,50.88 -54.44,176.24 -75.15,223.86 -40.05,92.12 -42.11,163.52 -15.11,266.13 45.55,-8.34 13.8,-5.15 25.73,6.64l-11.74 25.17c-3.28,77.41 1.14,137.68 13.35,211.92 22.38,136.12 16.58,147.14 83.7,150.66 -29.66,-36.33 -50.53,-11.02 -55.51,-171.03 -2.39,-76.73 18.48,-138.28 21.66,-196.47 16.34,-20.78 -38.38,-23.61 33.59,-14.09l-1.97 63.43c-8.91,78.08 43.99,186.98 78.83,259.53 17.93,37.34 14.51,44.54 59.62,38.79 -31.5,-48.01 -70.16,-18.08 -87.04,-196.96 -5.79,-61.35 -13.91,-211.45 -3.58,-268.05 39.75,64.5 161.15,78.37 258.91,60.69 25.74,215.23 -38.96,326.77 15.52,382.89 23.63,24.33 -6.02,17.94 52.58,19.18 -30.23,-69.08 -96.52,-55.14 41.48,-172.25l-21.61 -120.55c-5.73,-44.97 -21.37,-83.76 -8.95,-117.34 19.82,-53.63 37.64,-54.55 94.57,-65.17 114.66,-21.39 126.78,-76.59 177.94,-133.35l-4.75 -8.45c8.22,-57.97 17.05,-88.38 55.54,-118.56 34.87,-27.34 57.41,-55.92 110.66,-64.05l-1.4 -39.74c-12.97,-56.18 -24.36,-39.04 -62.72,-38.22 -44.84,0.96 -62.04,-7.81 -113.77,-3.23 -12.49,21.57 -27.51,57.69 -40.83,77.97 -14.05,-231.62 70.77,-190.91 113.29,-212.01 27.79,-13.8 37.34,-32.22 61.71,-53.87l24.95 -111.11 20.63 1.43 8.97 -53.58c15.25,-6.27 -2.6,-11.62 34.16,3.69l-0.92 -25.47c7.25,-19.27 7.51,-22.59 6.84,-51.61l-34.39 -10.11c-112.15,5.31 -83.56,-5.17 -102.41,92.56 -9.03,46.84 -18.26,85.84 -53.09,111.08 -43.51,-9.57 -143.14,-129.89 -165.63,-170.43 -19.26,-34.74 -6.55,-6.94 -12.47,-56.62 -8.86,-74.42 -14.54,-78.18 -55.79,-73.67l-12.71 1.95c-0.29,0.03 -21.03,-0.35 -23.19,-0.48 52.32,73.44 -51.16,201.51 -92.25,261.72 -79.67,116.75 -22.85,174.66 -13.13,248.26 3.64,27.57 0.04,64.6 -0.11,93.83 -57.88,-6.39 -47.75,7.3 -61.4,-45.79 -12.53,-48.73 -4.72,-189.1 4.45,-243.09 -4.43,-1.33 -58.83,2.87 -66.07,-35.88 -0.77,-4.18 -2.67,-5.62 -4.81,-7.8 -2.09,28.33 7.19,29.66 -12.58,43.1 -8.86,6.02 -26.34,-31.84 -33.55,7.08 -13.28,71.74 11.26,31.65 -46.64,116.28 -24.13,35.27 -50.22,86.34 -84.07,107.36 -5.23,-66.44 -23.77,-275.55 37.08,-302.37 1.76,-0.77 5.75,-2.79 7.93,-3.71 2.18,-0.92 5.62,-2.43 8.06,-3.41 62.75,-25.22 78.01,-28.23 133.24,-105.69 66.14,-92.75 59.59,-64.07 154.08,-121.78 -2.38,-55.62 -8.69,-57.41 -52.29,-76.76 -29.97,-13.31 -51.11,-28.91 -73.27,-35.48 -43.25,102.35 -48.74,133.48 -112.52,209.02 -24.24,-20.23 -47.7,-54.02 -75.74,-81.56 -27.86,-27.36 -66.07,-42.22 -88.57,-71.29 -15.55,-23.95 -44.65,-233.83 -44.67,-233.88l-45.6 0.15 -39.28 102.28c-12.12,30.48 -19.63,67 -29.25,95.93 -31.11,93.52 -88.21,58.84 -103.06,160.24 -21.91,149.5 47.74,298.96 20.79,476.62z"/>
  <path class="fil8" d="M1647.12 2104.66c12.28,-8.37 17.12,-5.89 10.42,-24.33 -14.36,13.63 -14.6,-23.48 -10.42,24.33z"/>
  <path class="fil9" d="M1647.12 2104.66c-4.18,-47.81 -3.94,-10.7 10.42,-24.33 6.7,18.44 1.86,15.96 -10.42,24.33zm-186.64 -678.45c11.52,-27.35 9.9,-18.05 3.31,-27.44 21.95,20.25 11.05,-4.35 12.59,31.39 74.84,65.39 -0.79,-36.07 15.55,35.32 5.05,22.02 3.36,16.77 9.33,27.88 -2.68,-11.78 -0.83,-10.86 -28.34,-25.19 -27.97,-14.58 12.05,9.37 -15.29,-8.17l-23.62 -19.47 26.47 -14.32zm398.3 143.62c5.39,-94.87 24.14,-206.49 -29.96,-236.75 131.4,-6.38 310.55,-26.98 288.41,127.96 -8.54,59.81 -45.66,96.54 -101.05,114.24 -63.7,20.35 -124.03,15.61 -192.46,12.52l35.06 -17.97zm-762.45 773.28c26.95,-177.66 -42.7,-327.12 -20.79,-476.62 14.85,-101.4 71.95,-66.72 103.06,-160.24 9.62,-28.93 17.13,-65.45 29.25,-95.93l39.28 -102.28 45.6 -0.15c0.02,0.05 29.12,209.93 44.67,233.88 22.5,29.07 60.71,43.93 88.57,71.29 28.04,27.54 51.5,61.33 75.74,81.56 63.78,-75.54 69.27,-106.67 112.52,-209.02 22.16,6.57 43.3,22.17 73.27,35.48 43.6,19.35 49.91,21.14 52.29,76.76 -94.49,57.71 -87.94,29.03 -154.08,121.78 -55.23,77.46 -70.49,80.47 -133.24,105.69 -2.44,0.98 -5.88,2.49 -8.06,3.41 -2.18,0.92 -6.17,2.94 -7.93,3.71 -60.85,26.82 -42.31,235.93 -37.08,302.37 33.85,-21.02 59.94,-72.09 84.07,-107.36 57.9,-84.63 33.36,-44.54 46.64,-116.28 7.21,-38.92 24.69,-1.06 33.55,-7.08 19.77,-13.44 10.49,-14.77 12.58,-43.1 2.14,2.18 4.04,3.62 4.81,7.8 7.24,38.75 61.64,34.55 66.07,35.88 -9.17,53.99 -16.98,194.36 -4.45,243.09 13.65,53.09 3.52,39.4 61.4,45.79 0.15,-29.23 3.75,-66.26 0.11,-93.83 -9.72,-73.6 -66.54,-131.51 13.13,-248.26 41.09,-60.21 144.57,-188.28 92.25,-261.72 2.16,0.13 22.9,0.51 23.19,0.48l12.71 -1.95c41.25,-4.51 46.93,-0.75 55.79,73.67 5.92,49.68 -6.79,21.88 12.47,56.62 22.49,40.54 122.12,160.86 165.63,170.43 34.83,-25.24 44.06,-64.24 53.09,-111.08 18.85,-97.73 -9.74,-87.25 102.41,-92.56l-3.11 -18.89 -5.49 -171.21c-5.37,-27.29 3.93,-16.41 -17.43,-25.72 -10.21,0.6 -40.5,2.83 -49.53,4.49 -7.24,1.34 -18.14,6.23 -34.34,10.15 -17.94,-14.66 -23.69,-19.54 -40.3,-34.53 41.97,-53.98 39.06,-25.01 73.79,-64.55l33.39 -15.25c7.79,-46.07 5.24,-89.45 5.5,-136.52 0.37,-69.62 12.61,-70.05 -36.08,-101.2l97.39 2.85c-34.69,14.58 -23.04,-2.47 -33.36,36.41l162.43 -13.12c-16.21,-27.7 18.68,-13.74 -16.86,-25l88.18 3.4c-26.61,2.95 -7.13,4.34 -17.22,19.63 113.67,-38.03 24.79,0.53 55.81,-74.99 15.54,-4.12 26.18,-2.93 38.55,-5.77 51.91,-11.89 22.08,2.09 40.56,-16.11l-51.67 -3.39 66.41 -18.42 -1.86 -363.12 -4.64 -26.87c-33.42,19.7 -29.19,18.83 -58.48,21.63 -32.52,3.1 -60.24,2.7 -93.39,2.7l-4.39 49.35 -11.04 -53.65c-210.98,-68.09 -133.85,3.65 -157.53,152.45l132.15 -4.73 5.02 -28.44c19.02,-12.95 -27.67,-14.71 27.36,-9.6l-12.93 47.49 -5.29 85.51c-36.16,-42.63 13.49,-41.9 -44.88,-59.45 -29.6,-8.9 -71.03,-6.03 -101.11,-2.92l7.25 188.71 65.24 21.48 -186.45 -2.79 68.67 -16.63 -6.7 -393.75 -49.06 -3.72c-19.28,-19.19 -21.41,31.15 -15.22,-25.19 57.98,0 31.25,5.2 43.23,13.32 46.13,-6.74 95.76,-3.52 143.19,-3.37 79.31,0.25 87.09,13.7 107.31,-47 74.6,5.49 41.17,-7.35 57.65,-38.45 -116.07,-0.13 -232.41,-0.8 -348.44,-0.49 -119.52,0.31 -114.73,32.51 -183.13,56.44l-14.91 4.61c-15.59,4.05 -9.65,4.23 -29.58,4.66l22.79 34.2c-65.3,1.47 -28.21,1.55 -52.66,15.74l-91.39 41.01c-20.97,7.27 0.77,0.35 -18.06,6.15 -46.95,14.45 -16.73,-14.05 -73.62,-15.92l-73.34 19.33c-0.18,0.11 -17.24,14.47 -20.08,16.58l-13.67 41.7c-48.21,5.9 -32.14,15.76 -56.63,-18.9l-18.23 -63.73c-15.41,15.75 -22.22,52.84 -64.63,22.8 70.91,-62.95 86.94,-85.32 180.86,-147.25l165.45 -95.21c72.82,-36.19 121.69,-52.65 204.97,-92.08l191.41 -85.14c0.34,-3.02 1.63,-5.17 0.11,-6.9 -221.45,85.53 -361.61,116.83 -552.05,229.66 -177.1,104.94 -307.96,220.54 -414.34,372.54 -220.44,314.99 -296.27,849.54 -140.07,1262.75z"/>
  <path class="fil9" d="M2216.93 2361.46l20.86 33.37 46.76 -56.97c107.81,19.96 125.73,-10.25 165.67,-91.09l8.01 -15.96 -25.19 0.02 10.03 -23.1c-52.62,25.86 -73.72,66.91 -103.95,110.31l-72.45 -10.14c0.46,-7.13 5.23,-35.46 5.23,-35.61 0.11,-2.43 0.22,-6.04 0.22,-8.4l-2.65 -23.09c-45.11,9.16 -31.36,-6.88 -36.44,-82.83l-58.42 -25.87c-24.37,21.65 -33.92,40.07 -61.71,53.87 -42.52,21.1 -127.34,-19.61 -113.29,212.01 13.32,-20.28 28.34,-56.4 40.83,-77.97 51.73,-4.58 68.93,4.19 113.77,3.23 38.36,-0.82 49.75,-17.96 62.72,38.22z"/>
  <path class="fil9" d="M1175.7 2323.3l128.43 0.37 25.09 -204.91c-41.4,-12.05 -95.77,-39.41 -119.73,-39.88l-33.79 244.42z"/>
  <path class="fil9" d="M1818 2481.56c4.52,1.45 34.4,10.94 34.49,10.98 23.69,13.31 10.82,3.61 24.19,23.7 34.92,-68.36 53.89,-168.08 47.12,-255.05 -55.01,-7.26 -76.28,-17.1 -112.24,-24.33 -19.27,75.45 -33.7,182.42 6.44,244.7z"/>
  <path class="fil9" d="M3335.08 2205.19l3.41 148c84.25,0.02 103.52,-1.61 170.91,-15.14l-132.69 0.19 17.59 -182.49c-26.2,27.87 -19.79,34.28 -23.13,75.74 -18.29,-13.75 -5.55,-18.93 -14.56,7.9l-21.53 -34.2z"/>
  <path class="fil9" d="M2667.3 2307.64c-1.25,-2.38 -4.07,-5.4 -4.84,-6.45l-34.06 -58.69c-9.81,165.07 -28.7,119.96 112.55,113.68 43.36,-1.93 37.22,0.23 64.53,-19.05 -26.23,-15.37 -48.67,-3.01 -131.58,-3.01 -10.53,-15.07 -2.97,-11.53 -6.6,-26.48z"/>
  <path class="fil9" d="M1908.01 2519.06c55.86,17.49 26.96,-3.9 37.98,33.86 25.08,-69.31 41.92,-154.81 12.65,-241.37 -4.5,41.9 -4.7,83.29 -8.89,124.07 -6.44,62.74 -18.09,33.77 -41.74,83.44z"/>
  <path class="fil9" d="M3824.77 2205.19l-17.85 99.56c38.85,-13.99 44.84,-1.34 54.78,-39.15 7.7,-29.26 -3.78,-55.85 -12.46,-72.94 -10.35,21 19.84,24.6 -24.47,12.53z"/>
  <path class="fil9" d="M1327.36 2327.33l52.7 11.3c-9.53,-59.36 -3.72,-80.66 -30.04,-124.25l-22.66 112.95z"/>
  <path class="fil9" d="M1758.65 2278.14c-18.21,24.7 -41.89,97.98 -7.25,130.61 17.96,-30.87 12.45,-89.77 7.25,-130.61z"/>
  <path class="fil9" d="M1125.28 2334.74l27.48 2.64c-1.94,-16.11 -0.36,-22.9 -5.92,-39.45 -7.53,-22.39 -7.96,-15.27 -16.19,-26.79l-5.37 63.6z"/>
  <path class="fil10" d="M3084.74 2220.09c-6.33,28.31 -7.29,21.85 -22.14,36.59l-19.52 -47.79c-1.5,-9.88 -1.06,-31.76 -1.68,-43.14l-35.06 -23.63c-1.53,-4.61 -6.08,-3.89 -9,-5.74l73.83 -3.04 68.28 6.51c-25.84,14.6 -27.4,6.97 -51.96,25.23 -0.62,13.2 -0.33,44.21 -2.75,55.01zm306.71 -551.47l-9.52 160.09 107.53 -12.28c12.61,-7.59 9.19,1.51 27.44,-16.95l-17.1 96.39c-9.5,-32.15 -4.27,-23.52 -21.65,-36.05l-89.84 -13.8 7.64 177.47 39.43 0.52 85.33 -8.1 8.05 -29.59 9.81 -29.47c4.36,7.73 16.28,8.18 -4.56,36.38l9.81 35.97c7.34,52.98 -8.27,32.68 -9.98,87.54 -0.67,21.28 4.98,58.86 5.73,84.27 -17.88,-25.28 -17.41,-37.4 -63.32,-44.25 -26.87,-4.02 -55.09,-2.15 -81.95,-1.01l-17.59 182.49 132.69 -0.19c-67.39,13.53 -86.66,15.16 -170.91,15.14l-3.41 -148 -0.35 -46.93 -50.14 -21.15 228.74 -9.44 5.49 -50.93 -6.81 -20.83c-42.21,-3.31 -79.34,-4.92 -121.64,-5.78 -39.93,-0.82 -97.05,10.2 -113.26,-15.68l54.68 -12.37 4.14 -353.4 -60.41 -12.47c77.77,-11.14 214.75,20.63 260.2,-31.39 0.19,39.35 -4.66,59.04 -8.67,107.35 -1.63,-2.72 -2.8,-6.78 -3.72,-8.76 -0.9,-1.94 -2.58,-6.26 -3.73,-8.59 -1.13,-2.25 -2.46,-5.91 -3.79,-8.28 -1.28,-2.27 -2.58,-5.59 -4.04,-7.75 -1.38,-2.05 -2.98,-5.07 -4.56,-6.89 -24.18,-27.88 -80.66,-23.19 -115.76,-23.28zm-297.01 353.03l46.22 15.59c-10.58,7.72 6.21,9 -34.59,13.84 -8.02,0.95 -35.51,-0.88 -46.64,-0.93 -56.26,-0.22 -45.72,6.34 -67.59,-15.72l44.65 -12.42c47.55,-136.27 -86.38,-325.49 -160.02,-368.57l139.17 -2.41c-2.38,1.61 -5.95,3.46 -7.42,4.37l-34.63 24.2c54.1,78.35 43.45,93.73 111.21,154.82l89.64 -145.75 77.38 -31.93c-97.77,47.97 -200.18,252.9 -157.38,364.91zm-411.51 -353.93l-6.68 158.26 100.01 -6.13c18.84,-7.58 20.88,-9.98 34.08,-22.36l-16.89 98.16c-18.53,-46.48 0.52,-17.9 -22.12,-35.45l-90.97 -9.96 14.54 175.56 118.97 -10.2 5.5 -21.82 12.39 -37.14c8.55,13.94 13.46,12.03 2.11,37.87l-3.34 70.05 -0.36 119.29c-21.1,-13.76 -137.97,-57.59 -153.08,-6.17 -14.59,49.63 -0.35,65.5 -9.79,129.96 3.63,14.95 -3.93,11.41 6.6,26.48 82.91,0 105.35,-12.36 131.58,3.01 -27.31,19.28 -21.17,17.12 -64.53,19.05 -141.25,6.28 -122.36,51.39 -112.55,-113.68l-3.81 -79.85c-13.48,-6.47 -24.84,-7.78 -31.42,-11.27 -25.37,-13.43 -11.78,3.72 -22.66,-18.26l238.33 -4.38 2.5 -52.56c-3.88,-24.14 -2.78,-15.51 -13.77,-28.94l-225.04 -2.47 47.45 -25.24c1.27,-3.84 5.41,-3.12 9.78,-5.09l-2.58 -344.67 -58.81 -19.11c49.91,1.21 99.55,1.18 149.56,1.37 54.08,0.2 85.16,12.01 108.64,-30.35 5.8,41.56 1.07,65.19 -11.66,113.45l-16.93 -54.82 -115.05 -12.59zm1105.92 365.36c-17.28,18.57 -1.97,15.98 -44.28,21.56 -21.87,2.89 -38.17,-1.59 -58.73,-4.21 -42.11,-5.37 -38.64,0.11 -38.42,48.79l5.88 38.7c93.54,-24.35 152.61,-18.3 195.94,54.74 8.68,17.09 20.16,43.68 12.46,72.94 -9.94,37.81 -15.93,25.16 -54.78,39.15l17.85 -99.56 -19.22 -45.98c-30.94,-6.91 -66.41,-19.57 -102.8,-4.58l-56.17 43.96c-1.53,-2.45 -6,4.16 -9.12,6.05 -2.94,-49.37 -25.94,-106.18 -8.94,-133.92l9.18 -148.71c19.51,27.06 9.98,26.6 20.21,53.87 21.42,57.06 74.01,60.84 131.41,51.81 101.47,-129.11 -19.79,-131.99 -97.35,-212.35 -90.9,-94.17 -12.13,-194.19 143.01,-161.35l30.08 -37.6c-7.47,71.77 -2.81,119.91 -27.51,136.91 -3.15,-104.07 -65.96,-106.04 -142.51,-74.76 -23.99,101.09 47.16,100.75 125.06,168.15 68.35,59.15 54.6,174.46 -31.25,186.39zm-430.89 -621.83c-5.42,28.74 0.32,30.18 -30.8,41.8 -18.68,6.97 -40.99,6.26 -52.81,-5.87 -27.62,-28.37 1.16,-72.34 13.62,-90.51 30.86,-3.1 103.33,4.95 69.99,54.58zm-197.43 -51.67l-13.97 28.73 -4.17 -31.9 -71.23 -9.48c-10.54,27.54 -8.72,13.78 -9.59,51.74 -0.28,12.21 1.93,25.58 3.13,36.49l17.92 7.16 64.19 -15.28 -4.92 70.41 -25.84 -28.01c-0.9,-3.54 -4.41,-2.9 -6.61,-4.36l-47.22 5.4 5.14 104.93c17.06,1.35 26.53,3.46 45.17,0.07 37.43,-6.81 25.17,-9.07 37.21,-18.32l12.63 -25.07c0.8,2.05 4.96,2.2 3.48,19.59 -2.89,33.79 5.09,-3.28 -8.32,9.64l-0.29 48.99c-34.95,-33.06 -118.05,-18.3 -168.65,-18.3l39.3 -22.18 -2 -219.46 -32.17 -16.91c62.85,-4.34 127.36,4.99 170.48,-16.39l-3.67 42.51zm-499.24 -26.79c122.59,-6.54 319.16,-26.78 292.69,130.64 -24.12,143.46 -210.67,128.81 -297.45,129.22l22.87 -14.45c30.19,-30.75 16.3,-187.56 13.23,-229.36l-31.34 -16.05zm1087.97 -301.95l-147.54 208.62c87.6,0.73 181.28,-2.89 263.56,-26.67l33.74 -92.36 -4.77 86.78c-11.26,46.12 -21.2,36.22 11.2,57.05l16.67 -58.48 6.6 53.71 35.94 0.07c-40.1,34.74 -18.5,35 -8.01,81.72 -45.85,-70.41 -14,-2.05 -75.91,-61.86l-20.15 46.63c-3.85,-41.39 6.67,-31.74 -14.19,-65.06l-320.2 2.83 106.7 -147.07c27.23,-38.43 18.25,-12.57 24.89,-52.07 -29.14,-54.65 -215.05,47.94 -259.29,14.79l0.67 157.03 24.75 13.44c13.89,6.54 9.69,1.9 24.16,9.68l-137.45 -19.57 0 -172.02c1.37,16.11 3.57,5.18 -0.09,22.94 -4.44,21.56 -3.79,11.65 -11.66,21.75l-78.44 19.91 -13.36 30.2 -30.24 173.04 -14.45 -74.82 -248.87 -5.86 55.18 -12.49 -3.94 -54.77c-52,39.35 -89.45,4.58 -151.76,74.04l0.34 37.61c-32.99,-32.2 -9.2,-37.53 -106.33,-38.12 -43.58,-0.27 -86.63,-2.61 -130.28,-2.05 -18.48,18.2 11.35,4.22 -40.56,16.11 -12.37,2.84 -23.01,1.65 -38.55,5.77 -31.02,75.52 57.86,36.96 -55.81,74.99l1.4 19.69c47.77,75.8 35.73,173.2 111.18,213.75l-102.34 1.38c38.67,-25.36 28.05,-27.43 3.45,-114.45l-89.78 4.99c-60.05,112 -12.75,103.56 -5.79,108.18l-68.28 -12.07c1.89,-1.91 4.57,-4.01 6.36,-6.01 25.96,-28.9 70.41,-169.71 89.7,-213.49l-162.43 13.12 5.98 198.46c2.42,1.63 16.32,11.26 19.4,13.69l-83.33 8.4c17.33,59.77 -1.17,39.91 42.67,58.86 411.64,-16.4 216.66,147.41 187.39,192.66 33,76.51 114.73,163.28 139.99,214.54 -55.28,-9.52 -69.99,-53.32 -104.74,-88.94 -33.92,-34.76 -52.93,-63.67 -91.12,-105.09l-66.83 1.88 -5.45 29.62c0.67,29.02 0.41,32.34 -6.84,51.61 15.42,28.76 7.54,34.91 13.38,73.65l52.84 16.53c-18.97,15.08 -9.19,13.66 -54.62,14.56 -101.51,2.02 -76.91,3.35 -74.44,-30.81l-24.95 111.11 153.23 -1.89c-24.26,60.26 -26.61,-17.62 -54.01,44.79 -10.38,23.66 -4.71,62.77 -4.36,65.8l2.65 23.09c0,2.36 -0.11,5.97 -0.22,8.4 0,0.15 -4.77,28.48 -5.23,35.61l72.45 10.14c30.23,-43.4 51.33,-84.45 103.95,-110.31 6.86,-22.43 23.7,-35.13 37.66,-53.87 24.07,-32.31 11.23,-36.82 62.2,-33.6 -21.73,46.29 -63.63,70.69 -84.7,110.55l-8.01 15.96c-39.94,80.84 -57.86,111.05 -165.67,91.09l-46.76 56.97 -20.86 -33.37 1.4 39.74c-53.25,8.13 -75.79,36.71 -110.66,64.05 -38.49,30.18 -47.32,60.59 -55.54,118.56 53.43,7.97 148.74,56.38 199.98,78.03 173.04,73.1 439.26,168.19 622.62,199.21 339.5,57.44 631.82,-18.29 851.97,-191.4 441.42,-347.13 523.99,-961.16 412.34,-1665.65l-389.78 26.84z"/>
  <path class="fil10" d="M2729.93 1568.69c251.89,44.3 258.53,-259.24 6.92,-220.31 -21.63,66.84 -6.8,149.21 -6.92,220.31z"/>
  <path class="fil10" d="M1896.74 1568.5c249.93,38.45 252.81,-255.47 8.39,-219.35 -20.96,58.62 -12.77,155.19 -8.39,219.35z"/>
  <path class="fil10" d="M2269.09 1846.78c79.65,-1.52 149.47,-14.97 149.83,-95.13 0.33,-71.22 -73.59,-83.1 -146.5,-84.23l-3.33 179.36z"/>
  <path class="fil10" d="M3031.36 1157.15l2.42 85.17c63.85,-2.41 145.7,5.63 147.78,-61.24l10.83 -39.35c-70.7,10.14 -108.29,34.29 -161.03,15.42z"/>
  <path class="fil10" d="M2375.53 1460.52c79.74,-18.69 49.3,18.06 58.73,-35.5l-12.96 -56.86c-29.84,8.54 -8.47,-18.99 -32.81,31.83 -9.5,19.84 -10.22,37.84 -12.96,60.53z"/>
  <path class="fil11" d="M3906.17 885.53c16.95,29.28 28.5,32.72 8.61,77.39l-58.55 -27.97c12.22,-44.69 7.26,-38.24 49.94,-49.42zm-463.73 -130.88c31.01,21.09 10.47,-41.87 31.1,40.68 -25.97,-18.53 -16.87,-6.52 -31.1,-40.68zm42.68 -158.93l-45.78 4.34 -63.9 13.26c18.27,57.67 61.87,99.38 67,141.33 -6.96,-6.98 -32.3,-35.56 -47.73,-55.52 -19.87,-25.72 -22.23,-39.2 -50.14,-61 -24.6,23.52 -31.01,44.86 -65.61,65.96 12.18,-25.59 32.97,-60.19 41.8,-90.01l-32.76 2.93c-154.93,27.38 -349.78,-6.53 -512.91,12.2 -65.56,7.53 -8.56,10.1 -74.73,27.28 -57.02,14.8 -29.63,-9.45 -64.57,6.17 -43.57,19.48 49.08,-29.06 -11.1,13.3 -0.59,0.42 -3.35,2.13 -4.04,2.5l-15.26 4.27c-80.02,30.88 33.47,-30.27 -18.27,18.45 -42.58,40.09 -56.43,0.59 -91.55,39.38 -16.48,31.1 16.95,43.94 -57.65,38.45l5.66 69.27c-2.44,27.78 -6.31,53.71 -14.87,73.01l4.39 -49.35c33.15,0 60.87,0.4 93.39,-2.7 29.29,-2.8 25.06,-1.93 58.48,-21.63l4.64 26.87c-5.78,-44.29 -0.11,-15.57 -15.28,-26.8 -30.81,-22.81 34.41,19.21 -15.75,-8.71l213.55 -17.12c52.52,-12.41 -1.4,-7.24 44.67,-25.67l-7.09 65.3 -17.74 56.24 -7.19 -55.35 -62.85 -11.06 -72.81 -2.66 0.89 175.74c26.66,-2.5 63.58,-2.42 88.46,-7.45 59.02,-11.92 17.08,-11.09 54.8,-26.65l-3.55 45.81 -10.42 61.45c-13.91,-14.72 -14.92,0.88 -17.41,-42.01l-32.47 -9.91 -84.47 -4.09 3.75 199.88c83.03,1.9 152.58,12.17 159.91,-70.17 11.59,-17.25 -24.6,-16.39 24.32,-12.99l-15.65 29.72 -4.28 73.99c62.31,-69.46 99.76,-34.69 151.76,-74.04l3.94 54.77 13.89 -83c0.6,-33.96 -0.24,-57.72 3.51,-90.45 -46.31,-5.68 -44.66,-3 -78.07,-30.45 -10.06,-64.96 -6.42,-16.01 11.92,-34.32l3.07 -1.9c18.53,-23.67 0.13,-3.42 22.74,-19.95 4.34,2.86 33.95,15.53 40.38,18.7l-7.25 -149.76 -51.48 -21.73c-2.43,-1.22 -6.46,-3.11 -9.39,-5.15l182.03 0.66c-17.06,10.85 1.69,0.49 -28.78,13.5 -20.15,8.6 -13.33,2.16 -34.69,12.77l-5.22 305.53c52.74,18.87 90.33,-5.28 161.03,-15.42l-10.83 39.35 17.62 -31.43 21.26 -17.02 78.44 -19.91c7.87,-10.1 7.22,-0.19 11.66,-21.75 3.66,-17.76 1.46,-6.83 0.09,-22.94l0 172.02c17.67,-9.96 23.42,7.14 22.72,-91.75l-7.39 -301.26 -48.31 -6.78c-20.21,-17.4 -20.66,25.75 -16.21,-22.25 48.26,1.27 29.31,5.02 40.52,13.34l117.83 -0.67c24.36,-15.04 -31.48,-12.67 30.56,-12.67 8.01,56.28 5.8,12.05 -14.64,22.74l-49.52 4.84c-7.03,68.53 -5.01,132.5 -5.51,199.83l0.02 148.85c8.09,52.44 -7.56,22.18 18.47,42.23l-0.67 -157.03c44.24,33.15 230.15,-69.44 259.29,-14.79 37.73,-20.3 138.14,-172.82 159.88,-219.36 -55.49,2.53 -117.8,4.49 -170.15,10.47 -71.56,8.18 -79.8,20.74 -80.67,90.63 -19.21,12.26 39.35,32.87 -25.88,7.08 -5.82,-55.01 -3.76,-10.74 8.81,-28.74l14.72 -155.49c41.18,29.6 -3.81,13.49 31.08,56.38l298.96 2.64c-35.05,78.66 -95.81,124.68 -145.28,202.55l389.78 -26.84c-44.66,-134.96 -90.2,-342.33 -177.15,-427.64l-12.91 27.66 -378.75 -17.51c-99.51,0.97 -32.19,29.14 -85.11,9.21z"/>
  <path class="fil12" d="M1793.32 2908.12l21.69 2.48c5.25,16.55 27.19,63.02 43.27,65.92 15.81,30.06 -4.04,9.57 27.89,20.53 10.85,3.73 28.59,2.28 40.51,2.28 -68.35,11.88 -40.06,-4.52 -79.8,36.67 2.72,2.55 6.8,4.55 9.53,5.87l19.5 9.71c3.55,1.33 6.43,1.97 10.09,3.14 102.35,32.41 40.6,27.59 101.57,32.71 54.94,4.62 117.62,-5.76 180.36,1.77 278.13,33.4 639.18,74.66 921.65,43.22l72.73 -21.19c-73.93,-4.32 -57.66,-18.81 -61.78,-27.49l-10.17 -103.89c-16.57,-7.48 -9.59,-2.01 -25.09,-13.77 -21.4,-16.25 -2.94,0.93 -20.51,-20.43 28.81,-18.28 8.54,-11.41 25.34,-25.7l31.66 -20.73c-48.88,-10.36 -105.36,-4.19 -155.25,-10.58 -49.32,-6.32 -99.04,-17.35 -144.91,-25.19 -157.44,-26.93 -684.1,-202.22 -744.72,-271.19 -51.16,56.76 -63.28,111.96 -177.94,133.35 -56.93,10.62 -74.75,11.54 -94.57,65.17 -12.42,33.58 3.22,72.37 8.95,117.34z"/>
  <path class="fil13" d="M3101.76 2899.22l-31.66 20.73c-16.8,14.29 3.47,7.42 -25.34,25.7 17.57,21.36 -0.89,4.18 20.51,20.43 15.5,11.76 8.52,6.29 25.09,13.77l10.17 103.89c4.12,8.68 -12.15,23.17 61.78,27.49 222.81,-18.59 435.05,-135.14 577.59,-245.32 131.78,-101.85 286.46,-355.29 306.19,-536.09 -30.64,22.88 -33.66,35.07 -49.09,63.84 -66.75,124.45 -203.35,253.5 -318.99,330.87 -138.56,92.69 -391.87,204.31 -576.25,174.69z"/>
  <path class="fil14" d="M3280.58 588.85l-36.46 10.97c19.3,1.77 -0.79,-6.59 20.64,2.76 20.09,8.76 11.35,4.42 23.24,14.43l32.76 -2.93c-8.83,29.82 -29.62,64.42 -41.8,90.01 34.6,-21.1 41.01,-42.44 65.61,-65.96 27.91,21.8 30.27,35.28 50.14,61 15.43,19.96 40.77,48.54 47.73,55.52 -5.13,-41.95 -48.73,-83.66 -67,-141.33l63.9 -13.26 -30.38 -11.21 -47.09 -0.9 -20.74 -47.98c-2.22,13.44 -2.95,38.28 -4.42,52.78l-56.13 -3.9z"/>
  <path class="fil15" d="M3188.49 137.72c13.26,18.89 -12.37,4.89 32.81,29.1 14.95,8.01 22.26,9.51 45.42,22.79 23.87,13.7 56,22.25 76.66,61.1l8.78 4.58 16.85 -17.64c-46.4,-69.53 -111.74,-73.22 -153.3,-103.84l-27.22 3.91z"/>
  <path class="fil16" d="M2468.66 2305.59c5.64,0.42 8.59,1.36 8.89,2.92l5.68 -4.67 1.07 0.62 0.78 -0.15 4.43 -1.66 5.69 0.68 4.47 -1.79 3.04 1.38 5.92 -3.08 2.13 1.56 3.42 -1.66 2.86 0.46c1.19,-1.58 5.48,-3.28 12.96,-5.23 0.93,1.65 3,2.2 6.01,1.63l4.45 -0.84 5.98 -3.09 12.98 -0.51 1.35 -2.21 0.98 -0.19 2.06 1.57 0.79 -1.17 1.9 -0.36 0.97 0.83 0.8 -1.16 0.91 -0.17 2.1 1.42 0.77 -0.96 0.79 -0.15 12.94 -0.69 5.04 -2.72 0.98 -0.19 8.56 1.16 2.69 -1.53 4.9 1.85 2.51 -1.42 2.31 1.53 3.22 -1.63 9.53 0.97 3.52 -1.48c9.94,5.56 16.37,8.07 19.25,7.52l16.03 10.86 0.76 -0.96 6.49 9.88 1.6 3.5 0.8 -1.18 0.78 -0.14c1.58,1.52 2.87,4.74 3.78,9.58l0.79 -0.14 -0.32 -1.71 0.91 -0.17 2.33 6.88 0.73 9.21 -1.1 -0.81 -0.79 0.15 -0.79 1.16 0.51 2.69c2.8,1.57 4.39,3.16 4.68,4.66 -0.29,10.3 -1.39,17.69 -3.3,22.25 -0.76,8.14 -5.31,16.73 -13.81,25.87 0.25,1.31 -0.8,2.18 -3.22,2.64 0.13,0.72 -2.06,2.36 -6.48,4.76l0.51 2.68c2.42,-0.46 3.89,0.54 4.36,2.97 1.37,-0.27 3.05,0.36 4.89,1.84 2.42,-0.45 4.01,1.14 4.72,4.87 2.29,-0.44 5.54,2.07 9.75,7.5 0.92,-0.18 2.34,2.67 4.38,8.45l0.99 -0.19 0.74 -1.08 2.27 2.35 1.2 6.27c1.76,-0.33 3.55,0.89 5.42,3.59l-0.81 1.1 0.7 3.65c1.96,-0.37 4.34,0.74 7.18,3.19l0.19 0.98 -0.8 1.16c0.79,4.19 2.76,5.99 5.83,5.4l1.21 6.35c1.76,-0.33 2.9,0.67 3.34,2.96l5.76 6.42 -0.1 3.82c4.5,4.02 7.63,10.88 9.48,20.63 0.31,1.64 -2.93,5.64 -9.79,11.95l-1.12 -0.52 -4.44 1.58 -2.83 -0.2 -3.32 1.37 -3.02 -0.17 -5.23 1.74 -0.78 0.14 -5.09 -1.81 -3.75 4.5 -0.92 0.18 -2.22 -1.34 -6.2 1.93 -3.47 0.65 -2.22 -1.34 -15.77 4.76 -5.29 -2.53 -7.95 -12.58 -4.98 -6.65 -0.99 0.19 -0.14 -0.72 1.91 -0.36 -0.38 -1.96 -0.73 1.15 -0.98 0.19 -7.77 -11.67 -1.02 -5.37 -0.59 1.13 -0.93 0.18c-1.56,-1.13 -2.63,-3.17 -3.16,-5.98 -1.76,0.34 -3.01,-1.26 -3.7,-4.85l-2.85 -0.41 -0.19 -0.98 1.96 -0.37 -0.51 -2.68c-1.83,0.34 -2.9,-0.67 -3.37,-3.16 -2.61,-0.53 -4.29,-2.64 -5,-6.37 -3.16,0.19 -5.12,-1.94 -5.96,-6.39 -2.42,0.46 -4.12,-1.73 -5.06,-6.63l-0.6 1.13 -0.91 0.17c-1.8,-5.89 -5.05,-8.39 -9.77,-7.5l-0.32 -1.7 0.54 -1.11 -0.17 -0.92 -0.88 -0.65 -0.97 0.19 -0.84 0.96 -0.71 0.14c-5.05,0.96 -8.47,-0.63 -10.23,-4.63l-5.21 2.96 -0.95 -0.78 -0.92 0.18 -5.84 3.89 1.5 2.49 0.23 12.02 3.87 9.63 -0.95 5.74 1.86 4.4 4.62 24.33 -0.3 3.85 1.65 3.27c0.46,2.43 -0.24,3.78 -2,4.11l0.36 1.9 2.83 0.28 -0.12 4.76 1.54 8.11c-0.71,4.48 -2.14,6.92 -4.17,7.3l-8.14 6.36 -3.79 -0.3 -5.04 2.71c-1.17,0.23 -1.93,-0.51 -2.27,-2.34l-0.73 1.16 -1.77 0.33 -1.1 -0.81 -4.14 3.57 -8.18 0.81 -0.37 -1.96 -0.92 0.17 -2.49 1.49 -3.65 -0.33c-6.6,1.66 -9.75,2.94 -9.58,3.85l-6.89 -1.67 -2.51 1.42c-5.43,0.63 -8.27,0.29 -8.55,-1.16l-0.79 1.18 -0.92 0.17c-1.18,0.23 -1.94,-0.57 -2.28,-2.35 -4.71,0.9 -8.06,-0.36 -10.02,-3.85l-0.5 -2.69 1.7 -0.32 -0.52 -2.68c-1.76,0.33 -2.79,-0.09 -3.01,-1.26l0.49 -2.8 -2.01 -5.25 0.11 -4.76 -2.36 -7.08 2.02 -3.97 -0.87 -4.58 -0.8 1.1 -0.73 0.14 -1.48 -2.5 0.8 -1.1 -0.18 -0.98 -1.13 -0.6 0.11 -4.77 -0.51 -2.68 1.7 -0.32 -0.32 -1.7 -0.84 0.9 -0.73 0.14 -0.51 -2.68 1.7 -0.32 -0.32 -1.7 -1.7 0.33 -0.19 -0.99 1.71 -0.32 -0.69 -3.6 -1.7 0.32 -0.15 -0.79c1.77,-0.33 2.4,-2.02 1.82,-5.08l-0.19 -0.98c-0.22,-1.18 -1.23,-1.53 -3.01,-1.19l-0.18 -0.99 1.7 -0.32 -1.52 -8.05 0.28 -3.85c-0.85,-2.34 -1.99,-3.35 -3.37,-3.08l-0.51 -2.69 1.71 -0.32 -0.15 -0.79 -1.16 -0.78 0.43 -8.42 -2.04 -5.38 -1.53 -8.05 -1.7 0.33 1.02 -3.92 -2.26 -17.26 -1.85 -4.39 -0.73 -9.22 -0.15 -0.79 -2.36 -7.07 0.37 -8.4 -1.1 -0.81 -0.51 -2.68 -0.1 -5.54 -3.28 -6.9 -0.32 -12.07 -1.74 -4.21 -1.21 -6.34 0.05 -4.76 -1.93 -5.19 -1.91 -10c2.59,-4.22 4.61,-6.44 6.05,-6.71l-0.96 -0.77 -0.15 -0.78c-0.25,-1.31 3.45,-3.23 11.02,-5.89zm6.72 15.4l0.37 1.96 4.08 2.96 0.81 -1.11 -0.7 -3.66 -4.56 -0.15zm21.36 -0.26l0.36 1.9 0.78 -0.15 -0.35 -1.9 -0.79 0.15zm60.26 -6.69l0.34 1.76 2.68 -0.51 -0.51 -2.68 -2.51 1.43zm25.83 -2.12l0.18 0.97 1.7 -0.32 -0.18 -0.98 -1.7 0.33zm-51.49 23.65l0.51 2.69 1.38 -2.02 -1.17 -0.8 -0.72 0.13zm-48.16 11.92l0.37 1.96 1.71 -0.32 -0.38 -1.96 -1.7 0.32zm70.83 -9.64l-4.6 0.06 0.5 2.69 1.63 13.58 2.31 7.15 -0.78 0.89 0.18 0.99 1.94 5.18 0.5 2.69 -0.72 1.15 1.09 0.74 0.34 1.77 -1.54 2.25 -0.91 -0.84 0.34 1.77c1.76,-0.34 2.74,0.15 2.97,1.4l-2.9 4.34 1.12 0.53 0.37 1.97 -0.15 4.57c2.42,-0.46 3.89,0.88 4.47,3.9l9.03 -1.72 3.29 -2.59 5.56 -0.04c2.07,-2.28 6.57,-4.63 13.55,-7.18 4.42,-3.07 6.33,-6.28 5.69,-9.61 1.89,-0.37 2.84,-3.6 2.68,-9.8l-0.9 -0.85 -0.15 -0.78c-0.2,-2.48 0.43,-3.81 1.99,-4.11l-2.22 -11.71c-2.48,0.47 -4.06,-1.39 -4.86,-5.64 -1.77,0.33 -2.84,-0.35 -3.19,-2.18l-2.68 0.51 2 -4.11 -1.17 -0.79 -5.01 2.91 -0.91 0.17 -1.67 -3.4 -0.61 1.06 -0.91 0.17 -2.13 -1.56 -0.73 1.16 -4.83 -0.1 -7.07 1.34 -1.13 -0.6 -1.46 -2.7 -0.78 0.15 -7.54 5.22zm77.47 -0.6l0.51 2.67 2.68 -0.5 -0.36 -1.9 -2.83 -0.27zm-144.51 30.2l0.83 4.38 1.38 -2.02 -1.49 -2.5 -0.72 0.14zm33.39 -0.79l0.33 1.7 0.91 -0.17 -0.32 -1.7 -0.92 0.17zm25.58 -3.08l0.18 0.98 1.78 -0.34 -0.19 -0.98 -1.77 0.34zm-56.73 11.77l0.19 0.98 2.28 1.33 0.77 -0.95 -0.35 -1.9 -2.89 0.54zm30.77 -1.09l0.33 1.77 1.43 -2.11 -1.76 0.34zm110.85 -6.13l0.33 1.7 1.38 -2.02 -1.71 0.32zm-120.89 36.84l0.19 0.98 1.7 -0.32 -0.19 -0.98 -1.7 0.32zm7.05 2.45l0.51 2.69 0.71 -0.13 -0.51 -2.69 -0.71 0.13zm-8.85 2.63l0.51 2.75 2.5 -1.49 -0.34 -1.76 -2.67 0.5zm90.4 -15.32l0.51 2.67 0.79 -0.15 -0.51 -2.67 -0.79 0.15zm4.15 2.94l0.53 2.75 2.87 -0.55 -0.33 -1.77 -3.07 -0.43zm-21.08 6.03l-0.84 0.97 0.37 1.9 2.49 -1.49 -2.02 -1.38zm-32.53 10.71l-0.8 1.17 0.51 2.68 3.66 -0.69 -0.5 -2.68 -2.87 -0.48zm-50.14 16.09l0.69 3.67 0.72 -0.14 3.15 -3.37 -0.51 -2.69 -2.67 0.51 -1.38 2.02zm81.77 -6.17l0.33 1.71 0.98 -0.19 2.53 -1.29 -0.69 -3.59 -0.97 0.18 -2.18 3.18zm-83.4 17.6l2.06 1.57 2.51 -1.42 -2.04 -1.44 -2.53 1.29zm-2.8 5.27l0.34 1.77 1.96 -0.37 -2.3 -1.4zm112.71 -21.38l0.34 1.76 0.78 -0.15 -0.34 -1.76 -0.78 0.15zm-106.65 24.03l0.15 0.78 2.85 0.41 -0.68 -3.6 -0.71 0.14 -1.61 2.27zm-3.07 2.35l0.18 0.98 2.68 -0.52 -0.19 -0.97 -2.67 0.51zm32.37 -6.15l0.34 1.77 2.68 -0.51 -0.33 -1.77 -2.69 0.51zm-12.67 11.75l-0.29 3.85 1.77 -0.33 0.22 -3.84 -1.7 0.32zm-14.41 3.75l0.15 0.73 2.33 1.58 -0.51 -2.68 -1.97 0.37zm133.52 -24.59l0.37 1.97 2.86 0.4 -0.55 -2.87 -2.68 0.5zm-113.24 22.5l1.48 3.52c0.56,2.95 -0.67,4.67 -3.62,5.23l0.19 0.99c0.23,1.23 2.24,1.81 5.87,1.65l-1.06 -0.61 -0.36 -1.89 2.74 -5.13 -0.5 -2.68 -0.89 -0.78 -0.19 -0.99 -0.8 1.17 -0.97 0.19 -1.1 -0.81 -0.79 0.14zm-6.96 12.65l0.33 1.69 0.78 -0.14 -0.33 -1.7 -0.78 0.15zm8.85 7.67l0.13 0.72 1.58 -2.06 -0.19 -0.97 -1.52 2.31zm138.74 -26.33l0.14 0.72 3.6 -0.68 -0.33 -1.7 -3.41 1.66zm-157.85 33.48l2.58 4.32 0.98 -0.18 -0.04 -5.56 -1.96 0.38 -0.58 0.86 -0.98 0.18zm6.42 4.54l0.52 12.03 0.86 0.65 0.99 -0.18c1.31,-0.25 1.54,-3.68 0.82,-10.32l-1.29 -2.53 -1.9 0.35zm16.88 20.04l0.36 1.9 0.98 -0.18 -0.37 -1.9 -0.97 0.18zm19.83 0.99l0.15 0.78 3.19 2.17 0.66 -0.87 -0.19 -0.98 -2.03 -1.44 -1.78 0.34zm-35.63 8.59c0.33,1.76 -0.41,2.85 -2.17,3.19l0.36 1.9 0.53 -1.12 0.98 -0.19 3.85 0.29 1.15 -3.21 -0.13 -0.71 -4.57 -0.15zm30.56 -1.05l0.34 1.76 2.86 0.4 -1.06 -5.55 -2.14 3.39zm202.02 -262.87l2.21 2.36 14.27 -5.48c2.45,-0.33 3.79,-0.05 3.98,1l0.77 -0.95 0.99 -0.19 5.69 0.75 0.18 0.91 4.21 -2.76 5.01 1.01 0.74 -1.08 11.1 -1.16 0.98 -0.19 6.19 -3.14c0.25,1.31 1.53,1.67 3.95,1.22l1.17 0.79 0.15 0.78 5.03 -2.78 0.98 -0.19 1.1 0.82 4.21 -2.77 5.74 0.88 6.35 -2.23 0.19 0.99 2.32 -2.41 4.75 0.04 14.78 -2.8c1.18,-0.22 1.88,0.59 2.21,2.36l1.96 -0.37 2.37 -2.21 1.89 -0.36 0.51 2.67 4.39 -1.83 0.19 0.97 0.8 -1.17 8.23 -1.56 0.98 0.83c3.38,1.05 5.24,2.66 5.63,4.69l1.89 -0.36 -1.38 3.05 0.18 0.97 5.19 -3.01c1.18,-0.23 2.55,2.36 4.25,7.73l2.27 1.61 1.74 9.15 -0.73 1.16 1.06 0.6 1.74 9.17 -0.74 1.15 1.11 0.81 -1.13 8.68 -2.87 0.55 -1.1 -0.74 -0.78 0.15c0.31,1.63 -1.16,3.87 -4.51,6.61l-0.98 0.19 -2.06 -1.57 -4.88 4.65c-1.38,-0.89 -4.5,-0.91 -9.54,0.05l-0.19 -0.99 -0.73 1.16 -0.78 0.15 -22.4 2.29 -1.54 2.25 -1.77 0.34 -3.23 -1.35 -7.09 2.29 -1.1 -0.74 -0.97 0.18 -5.2 1.94 -0.98 0.18 -3.23 -1.35 -7.88 3.46 -0.18 -0.91c-2.67,0.57 -4.94,3.58 -6.86,8.83l1.16 0.79 0.44 7.64 1.11 0.54 0.19 0.97 0.22 10.47 0.91 0.84 0.98 -0.18 -0.5 6.66 1.7 -0.32 6.72 -0.33 1.35 -2.21 4.2 2.18 0.73 -1.16 2.23 1.42 2.75 -0.53 -0.33 -1.77 0.91 -0.17 6.53 -0.22 1.54 -2.26c1.18,-0.23 1.86,0.52 2.21,2.36l0.98 -0.18 7.54 -5.24 0.98 -0.19 3.05 1.39 4.57 -0.86 2.53 -2.45c1.88,1.01 6.37,1.1 13.36,0.45l9.65 -3.79 2.58 3.23 0.98 -0.18 -0.51 -2.69c2.68,-0.51 5.08,0.67 7.17,3.46 2.42,-0.47 3.88,0.48 4.34,2.9l0.81 -1.1 0.91 -0.17 1.16 0.72 1.75 9.22 -1.58 2.07 -1.11 -0.53 -0.78 0.15 1.61 4.22 0.18 0.99 -0.1 3.74 1.52 3.72 0.32 1.7 -0.59 1.12 0.18 0.99 0.92 0.57 0.98 -0.19 0.78 -0.89 1.12 0.53 0.19 0.98c-1.92,3.14 -2.4,7.37 -1.41,12.6l0.72 3.79c-2.26,4.16 -10.49,7.55 -24.62,10.23 -0.21,-1.1 -2.29,-1.66 -6.07,-1.62l-10.02 2.92 -0.18 -0.98 -0.73 1.15 -0.79 0.15 -5.92 -0.84 -0.19 -0.98 -0.79 1.16 -6.29 1.19 0.37 1.9 -0.98 0.19c-3.08,0.58 -4.71,0.21 -4.95,-1.03l-6 4.05c-3.3,-1.33 -6.22,-1.73 -8.78,-1.25l-9.58 3.79 1.15 0.73 0.34 1.77 -1.45 3.05 2.51 2.51 0.87 4.57c-1.96,0.38 -2.42,2.97 -1.5,7.81l2.48 8.07 0.48 7.5 12.37 0.63 0.8 -1.16c11.82,-1.3 17.86,-1.23 18.16,0.34l7.49 -5.21 2.32 1.53 4.4 -1.79 2.03 1.37 7.01 -4.1c6.07,-0.88 9.14,-0.79 9.32,0.2l0.81 -1.11 4.57 -0.87c2.61,0.52 4.09,1.53 4.35,2.91l4.58 -0.88c-0.06,-2.49 0.69,-3.85 2.2,-4.14l2.44 3.26 6.12 -3.12 1.33 2.73 0.8 -1.17 0.91 -0.17 2.46 3.32 0.28 5.71 0.93 0.64 0.17 0.91 -0.23 3.04 0.92 0.63 0.19 0.98c0.43,2.29 -1.96,4.64 -7.18,7.12 0.33,1.77 -0.41,2.86 -2.18,3.2l1.23 6.47 3.38 3.16 -1.44 2.03 -4.72 0.15 -0.98 0.18 0.14 0.73 1.71 3.67 -2.65 6.06 0.19 0.98 -2.87 0.55 -5.2 1.93 -3.77 -0.23c-0.32,1.89 -1.98,3.15 -5.05,3.74l-0.98 0.18c-2.64,-1.4 -6.2,-1.6 -10.64,-0.76l-9.84 2.82 -6.65 0.31 -5.01 2.91c-4.48,0.32 -6.76,0.07 -6.9,-0.65l-8.8 3.64c-3.69,0.15 -5.58,-0.16 -5.72,-0.88l-0.81 1.1 -3.67 0.69 -3.38 -2.14 -5.02 2.79 -0.92 0.17 -1.17 -0.79 -0.8 1.17 -0.91 0.17c-6.29,-0.3 -9.58,-1.23 -9.91,-2.93l-3.31 3.61 -0.89 -0.78 -2.89 0.55 -16.95 5.99c-2.12,-0.81 -8.38,-0.58 -18.7,0.77l-3.68 1.65c-8.1,0.52 -12.45,-0.96 -13.07,-4.23l-0.81 1.1 -0.78 0.15c-3.84,-0.28 -6.74,-5.16 -8.54,-14.64l-0.4 -7.45 -1.49 -2.5 0.43 -3.06 -2.54 -8.06 -0.69 -3.66 0.28 -3.85 -1.15 -0.73 0.1 -4.83 -1.49 -2.49 -0.22 -6.47 -2.97 -15.7 -1.68 -3.47c-0.52,-4.92 0.26,-7.57 2.29,-7.96l-0.55 -2.88 -1.7 0.32 -0.34 -1.76 -2.54 -8.06 -0.76 -9.34 -1.05 -5.56 1.7 -0.32 -1.02 -5.37c-1.56,0.3 -2.72,-1.12 -3.56,-4.14 -0.39,-5.61 0.03,-9.83 1.37,-12.72l-1.12 -0.6 -0.19 -0.99 0.67 -6.83 -0.92 0.17 -2.83 -0.27 -1.24 -6.54 2 -4.11 -2.73 -9.04 0.8 -1.1 -0.18 -0.98 -1.68 -3.48 -0.86 -4.58 0.82 -0.97 -1.16 -0.8 -0.17 -0.91 0.46 -2.87 -1.52 -2.69 -1.79 -14.77 -1.52 -2.7 -2.43 -23.12 0.78 -0.15 4.76 0.05 -0.36 -1.9 -2.21 -2.35c3.21,-3.12 6.31,-5 9.25,-5.56l3.86 -0.73 0.87 0.65 0.83 -0.97 6.54 -1.24 0.34 1.76 0.71 -0.13 11.6 -4.99zm136.8 -5.15l0.37 1.96 0.78 -0.15 -0.37 -1.96 -0.78 0.15zm-95.07 20.08l1.49 2.49 0.78 -0.15 0.41 -2.86 -2.68 0.52zm42.81 5.96l-1.75 5.08 0.18 0.98 0.93 -0.17 4.2 -2.83 -0.51 -2.68 -3.05 -0.38zm-23.98 8.29l0.18 0.97 1.9 -0.36 -0.19 -0.98 -1.89 0.37zm-32.23 10.11l0.32 1.7 0.91 -0.17 -0.32 -1.7 -0.91 0.17zm70.05 -11.53l0.18 0.98 2.5 -1.49 -0.32 -1.7 -0.98 0.19 -1.38 2.02zm19.86 0.02l0.55 2.88 0.97 -0.19 -0.54 -2.87 -0.98 0.18zm-83.08 32.85l0.19 0.98 1.78 4.41 -3.6 0.68 0.86 4.58 0.92 -0.18c1.18,-0.22 2,-2.27 2.61,-6.25l1.7 -0.33 -0.51 -2.67 -2.05 -1.58 -1.9 0.36zm20.99 -0.05l0.33 1.76 0.79 -0.15 -0.33 -1.76 -0.79 0.15zm-37.05 10.82l0.33 1.7 0.98 -0.18 -0.33 -1.71 -0.98 0.19zm10.09 2.83l1.91 -0.36 2.51 -1.43 -0.2 -0.98 -2.68 0.51 -1.54 2.26zm22.79 -5.27l0.68 3.6 3.5 -1.61 -0.51 -2.69 -3.67 0.7zm14.63 6.71l1.7 -0.32 0.18 0.97 -1.7 0.33 -0.18 -0.98zm-40.99 14.35l-2.01 5.13 0.19 0.98c1.69,-2.16 3.41,-3.43 5.05,-3.74l-0.55 -2.88 -2.68 0.51zm5.55 -0.04l2.25 1.55 0.99 -0.2 -0.37 -1.89 -2.87 0.54zm-12.65 3.35l0.34 1.77 1.89 -0.36 -2.23 -1.41zm91.31 -14.54l0.18 0.97 1.6 -2.26 -0.15 -0.78 -1.63 2.07zm-33.19 10.09l-1.16 3.2 0.87 0.65 2.88 -0.55 -0.33 -1.76 -2.26 -1.54zm-19.29 8.4c1.18,-0.22 1.96,0.65 2.32,2.54l0.92 -0.17 -0.07 -5.75 -0.99 0.19 -2.18 3.19zm80.92 -14.33l0.18 0.98 1.9 -0.36 -0.19 -0.99 -1.89 0.37zm-142.5 30.83l0.17 0.91 1.96 -0.37 -0.17 -0.92 -1.96 0.38zm9.67 4.87l0.15 0.79 0.64 -0.94 1.88 -0.36 1.14 0.6 2.54 -1.29 -0.68 -3.59 -0.99 0.18c-3.34,2.05 -4.87,3.64 -4.68,4.61zm12.46 -4.32l0.36 1.89 1.4 -2.23 -0.32 -1.7 -1.44 2.04zm32.96 -6.26l0.19 0.98 1.77 -0.34 -0.19 -0.97 -1.77 0.33zm-33.8 12.17l0.32 1.71c1.76,-0.34 2.86,0.47 3.22,2.37l1.17 0.79 0.92 -0.17 0.36 -7.79 -1.31 -2.54c-1.18,0.23 -1.81,1.9 -2.01,5.13l-2.67 0.5zm47.2 -11.94l1.7 -0.32 1.57 -2.06 -1.89 0.36 -1.38 2.02zm-26.84 4.28l0.34 1.78 1.96 -0.38 -0.33 -1.77 -1.97 0.37zm44.97 -3.72l0.51 2.68 1.77 -0.33 0.17 0.91 -0.6 1.14 0.15 0.78 0.79 -0.15c1.7,-3.5 3.24,-5.42 4.68,-5.69l-1.13 -0.54 -0.18 -0.98 -0.79 1.17 -1.7 0.32 -1.17 -0.8 -2.5 1.49zm-73.35 19.48l0.17 0.92 3.66 -0.69 1.58 -2.07 -0.19 -0.98 -3.6 0.68 -1.62 2.14zm93.54 -17.75l0.68 3.59 1.89 -0.35 1.45 -2.04 -0.37 -1.9 -2.09 -1.43 -1.56 2.13zm-26.62 5.05l2.26 1.53 0.78 -1.15 -0.32 -1.71 -2.72 1.33zm46.81 -9.69l0.32 1.69 1.7 -0.32 -0.32 -1.69 -1.7 0.32zm-110.54 28.5l0.51 2.67 1.7 -0.32 1.57 -2.06 -3.78 -0.29zm9.34 -0.76l0.32 1.69 2.65 4.32 0.92 -0.17 -0.22 -6.54 -3.67 0.7zm5.15 2.82l0.32 1.69 0.91 -0.17 2.56 -2.25 -1.46 -2.7 -2.33 3.43zm-21.17 7.74l1.23 2.55 0.98 -0.19 -0.51 -2.68 -1.7 0.32zm43.36 8.85l0.51 2.68 2.37 -3.22 -0.18 -0.92 -2.7 1.46zm2.4 2.32l0.36 1.9 0.98 -0.19 -0.35 -1.89 -0.99 0.18zm-4.39 1.85l-0.33 8.61 4.4 -1.86 -0.52 -2.68 -2.57 -4.26 -0.98 0.19zm-21.35 7.85l0.87 4.58 2.68 -0.51 0.12 -4.77 -0.34 -1.76 -1.77 0.33 -1.56 2.13zm-0.58 11.56l0.18 0.99 1.7 -0.32 -0.55 -2.89 -1.33 2.22zm16.12 -5.02l0.55 2.88 0.98 -0.19 1.34 -2.22 -0.18 -0.98 -2.69 0.51zm24.75 5.81l0.19 0.97 1.9 -0.36 -0.19 -0.97 -1.9 0.36zm-4.44 11.2l0.18 0.92 1.52 2.7 0.72 -0.14 0.43 -3.06 -2.85 -0.42zm9.66 5.9l0.15 0.78 1.56 -2.12 -0.18 -0.92 -1.53 2.26zm40.93 -4.99l0.79 -0.15 2.9 -4.34 -0.9 -0.79 -0.97 0.19c-1.39,0.26 -2.01,1.94 -1.82,5.09zm-86.4 15.38l0.37 1.96 1.33 -2.29 -1.7 0.33zm8.68 6.14l0.15 0.72 1.57 -2.06 -0.19 -0.98 -1.53 2.32zm31.62 -8.03l0.37 1.96 1.6 -2.33 -1.97 0.37zm-24.03 8.35l1.97 -0.37 -0.33 -1.7 -1.64 2.07zm10.02 -2.91l0.19 0.98c1.04,2.31 3.17,3.19 6.25,2.61l1.7 -0.33 -0.69 -3.66 -7.45 0.4zm47.82 -3.32l0.38 1.97 2.81 0.21 1.8 -5.91 -0.17 -0.9c-3.43,1.93 -5.03,3.52 -4.82,4.63zm-60.93 9.6l0.55 2.88 3.41 -1.66 -0.51 -2.69 -0.91 0.18 -2.54 1.29zm86.95 -12.5l0.51 2.68 1.52 -2.32 -1.04 -0.55 -0.99 0.19zm24.61 0.07l6.87 0.46 -0.69 -3.6 -4.58 0.87 -1.6 2.27zm-0.21 2.83l-0.8 1.15 0.14 0.73 1.17 0.79 4.58 -0.86 -0.51 -2.69 -0.79 1.17 -0.93 0.17 -2.86 -0.46zm-83.64 20.61l0.33 1.77 2.88 -0.55 -0.34 -1.77 -2.87 0.55zm73.9 -11.25l0.55 2.88 3.6 -0.68 -0.18 -0.92 -2.07 -1.64 -1.9 0.36zm60.08 -249.4l5.53 0.92 0.15 0.78 0.77 -0.96 7.25 0.38 14.59 -4.52 0.94 0.63 0.98 -0.19 2.53 -1.29c7.6,-1.04 11.54,-0.97 11.79,0.34l0.57 -0.92 0.99 -0.19c3.63,0.26 5.72,1.96 6.33,5.16l1.12 0.61 0.73 -0.14 0.65 3.41 1.66 3.47 -1.5 10.99 0.34 1.77c1.7,-0.32 2.59,0.11 2.84,1.42 -1.63,0.31 -2.37,1.06 -2.16,2.17l0.15 0.79c0.23,1.18 1.17,1.54 2.81,1.23l0.37 1.96c-1.64,0.31 -1.99,3.09 -0.99,8.33l2.59 9.4 -0.78 0.15 0.93 0.63 1.17 6.15 -0.62 1.06 1.26 2.34 -1.18 3.07 3.37 8.44 0.02 4.41 2 10.52 -0.26 3.65 1.43 2.51 -0.92 0.17 1.09 0.74 -0.11 4.42 0.68 3.6 -1.77 0.34 0.81 4.25 1.77 -0.34 0.36 1.9 -1.77 0.34 1.82 9.61 3.8 1.05c0.78,4.11 -0.02,6.37 -2.31,6.8l0.32 1.7 1.78 -0.33 0.47 2.48 -1.77 0.34 1.59 13.38 1.76 4.28 -0.27 3.58 1.07 0.61 -0.03 9.15 1.44 3.32 0.17 0.91 -0.26 2.84 1.58 4.1 0.84 4.38 0.06 4.59 2.01 1.39 -0.2 8.17 1.61 4.23 -0.78 0.14 0.93 0.65 0.19 0.98 -0.63 0.93 0.95 0.76 0.98 5.18c0.56,2.94 -0.01,4.6 -1.64,4.91l0.84 4.39 -0.33 3.65 1.16 0.73 0.15 0.78c0.99,5.24 -0.61,8.25 -4.66,9.03l-1.14 -0.6 -2.33 1.25 -5.69 -0.68 -4.34 5.36 -1.7 0.32 -7.45 -0.34 -6 1.95 -5.5 -0.79 -2.49 1.49 -14.34 0.89 -2.48 0.48c-8.32,-3.45 -12.72,-5.93 -13.07,-7.42 -0.89,-4.71 -0.55,-7.22 1.15,-7.54l-0.33 -1.76 -0.6 1.13 -0.99 0.18 -0.9 -0.84 -0.83 -4.38 0.24 -2.63 -1.56 -4.31 -1.35 -7.06 0.58 -0.92 -0.9 -0.79 -1.49 -7.84 -1.82 -4.26 0 -5.35 -2 -10.54 0.57 -0.92 -0.9 -0.78 -1.16 -6.15c-0.22,-1.18 0.46,-1.92 2.15,-2.24l-0.32 -1.7 -0.6 1.13 -0.98 0.19 -0.91 -0.85 -0.32 -1.7 0.06 -3.6 -1.38 -3.33 -0.36 -1.9c-0.22,-1.18 0.47,-1.85 2.17,-2.17l-0.47 -2.48c-1.7,0.32 -2.61,-0.19 -2.86,-1.5l-1.3 -6.87c1.88,-2.59 2.54,-5.16 2.08,-7.57l-2.69 0.5 -0.82 -4.38 1.76 -0.34 -0.33 -1.77 -1.77 0.34 -0.68 -3.6 1.77 -0.33 -0.34 -1.76c-1.7,0.32 -2.87,-1.56 -3.64,-5.61l-0.34 -1.78 0.59 -0.85 -0.91 -0.84 -0.14 -0.78c1.9,-2.47 2.67,-4.45 2.38,-6.01 -2.48,-10.92 -4.04,-16.32 -4.83,-16.17l-0.99 0.19 -0.51 -2.68c1.84,-0.35 2.31,-2.54 1.54,-6.59 -0.56,-2.95 -1.7,-4.3 -3.53,-3.94 1.44,-2.39 1.91,-4.57 1.52,-6.67l-2.14 -11.24 0.28 -2.84 -1.59 -4.1 -5.83 -30.68c-0.18,-0.98 1.15,-2.18 3.95,-3.52 -0.32,-1.63 0.3,-2.64 2.01,-2.96l0.74 -1.09 -0.15 -0.78 4.59 -0.07 7.85 -1.48 2.96 -3.34zm6.87 32.24l-0.55 1.05 0.14 0.79 0.92 0.84 2.68 -0.5 -0.51 -2.69 -0.55 1.05 -0.98 0.18 -1.15 -0.72zm35.87 6.88l1.7 -0.32 -0.36 -1.9 -1.34 2.22zm-4.07 2.54l0.34 1.76 0.72 -0.13 -0.34 -1.77 -0.72 0.14zm4.06 2.82l0.15 0.78 1.77 -0.33 -0.15 -0.79 -1.77 0.34zm-3.08 2.34l0.34 1.77 0.72 -0.14 -0.34 -1.76 -0.72 0.13zm-34.74 7.61l-0.76 6.32 1.16 0.72 1.68 -0.32 1.13 -3.73 -0.33 -1.77 -2.1 -1.37 -0.78 0.15zm1.23 11.49l0.15 0.72 2.02 1.45 1.77 -0.34 0.44 -2.66 -4.38 0.83zm47.48 45.21l0.17 0.91 3.2 2.18 0.6 -1.07 -0.33 -1.76c-1.18,0.22 -1.93,-0.53 -2.27,-2.35l-1.37 2.09zm-15.87 21.03l0.51 2.69 1.7 -0.33 1.45 -2.03 -1.17 -0.8 -0.15 -0.78 -2.34 1.25zm31.66 -4.98l0.32 1.69 0.72 -0.13 -0.32 -1.7 -0.72 0.14zm-33.53 19.03l0.87 0.65 0.19 0.99 2.49 -1.5 -0.47 -2.49 -1.7 0.32 -1.38 2.03zm7.2 0.46l0.51 2.69c0.14,0.71 1.55,1.33 4.14,1.78l-0.38 -6.29 -0.94 -0.64 -1.9 0.36 -1.43 2.1zm-15.39 13.84l0.47 2.48 0.91 -0.18 2.02 -2.95 -0.34 -1.76 -1.7 0.32 -1.36 2.09zm13.87 0.95l0.51 2.69 0.71 -0.13 -0.51 -2.69 -0.71 0.13zm1.27 21.39l0.51 2.67 2.69 -0.5 -0.51 -2.69 -2.69 0.52zm-15.79 12.14l0.14 0.71c1.57,-0.3 3.45,0.3 5.67,1.71l3.69 -8.83 -0.86 -0.58 -0.98 0.18c-2.94,0.56 -5.51,2.81 -7.66,6.81zm-3.55 5.21l1.71 -0.32 -0.33 -1.71 -1.38 2.03zm26.74 3.06l0.15 0.79c0.17,0.91 1.51,1.54 3.98,2.01l-0.33 -1.69 -2.03 -1.45 -1.77 0.34zm-6.21 4.76l0.19 0.99 2.02 1.38 1.65 -4.85 -2.48 0.46 -1.38 2.02zm6.98 3.22l0.34 1.77 1.69 -0.32 -2.03 -1.45zm58.78 -236.27l1.34 0.96 0.21 1.1 0.97 -1.33 11.74 0.15 5.48 -2.26 2.35 -0.45c7.55,-1.29 11.42,-1.21 11.69,0.15l0.96 -1.33 2.28 -0.43c3.77,-0.58 5.73,-0.2 6,1.23l6.5 -3.6c0.42,2.15 3.63,2.69 9.59,1.56 6.64,5.05 12.82,8.68 18.5,10.72 0.5,2.63 3.8,5.04 9.83,7.49 2.92,4.33 9.37,9.4 19.35,15.24l0.89 -1.39 1.18 -0.22 0.22 1.18 -1.65 3.83 0.19 0.98c3.2,-0.61 7.6,2.16 13.28,8.19 1.5,-0.28 2.71,1.79 3.57,6.3 15.52,7.9 25.94,15.27 31.2,22.28 3.07,-0.59 4.86,0.63 5.45,3.71 3.27,1.2 5.21,3.21 5.75,6.02 1.7,-0.66 3.07,-4.11 4.02,-10.25l-2.73 -1.86 0.06 -5.76 -1.34 -0.98 -0.21 -1.1 0.02 -5.97 -1.33 -0.97 -0.19 -0.98 0.9 -1.32 -0.23 -1.18 -1.32 -0.9 -0.41 -8.26 -0.85 -4.44 -1.97 -4.37 0.45 -3.68 -3.99 -8.53 2.08 -20.46 -0.66 -3.47 -3.46 0.66c-1.58,-8.3 -0.11,-15.22 4.4,-20.69l8.05 -0.51 8.61 -3.87 5.76 -1.09 1.39 0.96 0.89 -1.4 6.74 -1.27 1.34 0.96 0.95 -1.4 6.87 -1.3 2.7 1.72 5.37 -2.03 1.18 -0.23 1.36 0.76 8.75 -3.9 0.22 1.18 3.05 -1.79c5.49,-1.05 10.72,1.89 15.75,8.73l-1.66 2.69 -1.17 0.22 3.37 6.34 1.17 -0.23 2.59 13.61 -1.44 3.87 0.21 1.11 1.15 1 -0.71 1.28 0.88 4.66 2.1 -0.41 1.26 6.68 2.05 4.35 -0.9 13.12 0.66 3.46 3.48 0.49c0.86,4.52 0.16,6.96 -2,7.36l0.87 4.58 1.14 1.01 -0.7 1.28 1.28 6.73 2.74 3.07 0.88 4.59 -2.1 0.39 0.66 3.47 2.1 -0.4 0.17 0.92 -2.1 0.39 0.23 1.18 1.13 0.94 -0.7 1.36 1.75 9.22 2.1 -0.4 0.39 2.09 -1.44 3.87 2.14 11.25 2.75 3.07 -2.09 0.39 0.43 2.29 1.15 1.01 -2.12 6.37c1.82,1.34 3.1,3.81 3.78,7.41l2.09 -0.4 0.44 2.29c-2.16,0.41 -2.97,2.19 -2.4,5.2l2.45 6.52 -0.52 3.68 3.54 12.21 1.31 6.94 -0.34 4.6 2.05 4.36 0.88 4.64 -1.64 3.83 2.14 11.32 -2.93 9.91 -5.32 3.38 -11.48 0.96 -6.51 2.45 -7.16 0.14 -4.35 2.05 -2.53 -1.89 -14.55 5.13 -1.14 -1.01 -1.18 0.23 -0.88 1.39 -1.18 0.22c-5.9,0.3 -9.85,-0.1 -11.97,-1.31l-5.76 1.08 -0.21 -1.11 0.95 -1.4 -0.21 -1.11c-1.89,0.36 -5.94,-2.39 -12.07,-8.28 -5.15,-2.48 -10.8,-7.24 -17.05,-14.45l-20.5 -15.97c-0.29,-1.5 -3.09,-3.75 -8.47,-6.73 -0.46,-2.42 -4.97,-5.83 -13.61,-10.29l-0.43 -2.29c-3.08,0.58 -4.95,-0.69 -5.52,-3.7 -1.76,0.34 -8.75,-5.38 -20.93,-17.1 -0.36,-1.9 -2.03,-2.81 -5.04,-2.64l-0.43 -2.29c-3.6,0.68 -5.17,4.92 -4.73,12.63l-0.95 1.39 0.44 2.29 2.93 2.97 0.22 1.17 -1.63 3.91 0.62 3.27 2.29 -0.44 0.22 1.12 -0.9 1.39 0.21 1.11 2 4.43 -2.29 0.44 0.21 1.11 2.95 3.03 -1.67 3.71 0.21 1.11 2.95 3.03 -1.63 3.91 1.05 5.55 2.3 -0.43 0.86 4.57 -1.63 3.91 2.95 3.03 0.43 2.28 4.59 17.77 -1.2 6.19 1.99 4.38c-2.79,6.76 -6.01,10.48 -9.6,11.16l-1.78 -3.24 -0.95 1.39 -4.58 0.87 -1.4 -0.95 -3.19 1.82 -12.92 0.09 -5.13 3.34 -3.9 -1.63 -6.44 3.59 -1.17 0.22 -1.14 -1 -0.96 1.4 -4.57 0.87 -1.4 -0.96 -0.89 1.39 -4.65 0.88 -1.33 -0.96 -0.76 1.36 -1.11 0.21c-13.68,2.6 -21.97,-3.62 -24.84,-18.74l3.27 -1.77 -1.84 -3.24c-0.81,-9.26 -0.49,-14.01 0.88,-14.26l-3.6 -6.5 -0.16 -6.88 -2.63 -7.84 0.26 -4.66 -1.32 -0.9 -0.22 -1.18 0.02 -5.96 -2.38 -6.46 1.11 -0.21 -1.34 -0.97 -0.2 -1.11 0.88 -1.39 -1.33 -0.97 -0.21 -1.11 0.96 -7.37 -2.58 -13.6 -2 -4.17 1.31 -10.95 -0.23 -1.18 -2.71 -2.87 -3.23 -17 0.96 -1.41 -1.4 -0.89 -0.22 -1.18 1 -6.15c-1.63,0.31 -3.52,-3.6 -5.63,-11.81 -0.98,-5.23 0.4,-8.28 4.07,-8.97l-2.94 -2.97 -0.66 -3.46 0.13 -5.79 -2.54 -1.89 0.7 -1.35 -0.22 -1.11 -2.52 -1.9 -0.45 -2.35 1.49 -3.6 -0.44 -2.29 -2.75 -3.07 -2.15 -11.32 0.31 -4.8 -2.06 -4.42 -0.21 -1.11c4.83,-5.32 11.05,-9.62 18.63,-12.88zm30.06 40.17l2.72 1.85 1.11 -0.21 -0.44 -2.28 -3.39 0.64zm-7.39 4.99l0.65 3.4 2.28 -0.43 0.91 -1.32 1.17 -0.23 -1.83 -3.25 -3.18 1.83zm46.74 10.99l0.43 2.29 3.48 -0.66 -0.62 -3.27 -3.29 1.64zm107.63 -15.69l0.21 1.12 4.58 -0.87 -0.65 -3.4 -2.29 0.44 -1.85 2.71zm32.52 10.3l-1.42 5.02 1.1 -0.21 5.33 -3.39 -2.73 -1.85 -2.28 0.43zm-141.91 32.9l0.22 1.11 2.7 1.73 0.55 -3.5 -3.47 0.66zm-60.85 13.92l2.69 1.66 0.89 -1.32 -0.19 -0.99 -3.39 0.65zm89.02 -1.58l0.17 0.92 3.69 0.52 -0.4 -2.1 -3.46 0.66zm-63.3 18.92l0.44 2.29 0.91 -0.17 -0.43 -2.29 -0.92 0.17zm113.27 9.08l0.88 4.64 2.73 1.85 -0.23 -1.18 -2.2 -5.54 -1.18 0.23zm48.49 20.2l0.44 2.3 2.35 -0.45 -2.79 -1.85zm55.25 -0.99l0.41 2.16 1.11 -0.22 -0.41 -2.15 -1.11 0.21zm-46.5 21.76l0.44 2.29 2.29 -0.43 -0.44 -2.3 -2.29 0.44zm57.29 10.14l0.45 2.35 0.98 -0.18 -0.44 -2.36 -0.99 0.19zm-2.07 1.61l0.44 2.29 1.18 -0.22 -0.43 -2.29 -1.19 0.22zm109.38 -242.9l3.78 1.05 0.63 -0.94 8.39 0.24 4.98 -1.96 1.7 -0.33c3,-0.3 4.62,0.08 4.81,1.06 3.03,-1.86 7.69,-3.42 13.77,-4.58l0.19 0.98 0.6 -1.13 0.97 -0.18c1.82,1.35 7.03,1.64 15.61,0.83l3.29 -1.65 0.98 -0.18c9.64,0.13 14.75,1.68 15.29,4.49l1.96 -0.37 0.51 2.67 -1.17 -0.78 -0.98 0.18 0.51 2.68c1.31,-0.25 3.45,1.45 6.53,5.13l15.34 4.41 0.15 0.79 -1.7 0.32 -11.39 -2.45 -0.78 1.17 0.15 0.78c0.23,1.25 1.6,1.66 4.02,1.2l0.83 4.39c3.42,1.92 5.84,6.89 7.37,14.92l0.32 1.71c5.26,2.32 8.27,5.68 9.12,10.19 2.16,-0.41 4.13,3.16 5.79,10.83l2.81 0.21 -0.72 1.16 0.14 0.78c4.55,4.7 7.21,8.74 7.87,12.2l1.35 7.06 0.61 -1.06 1.7 -0.32 2.13 5.9 0.37 1.96c2.3,-0.43 3.73,1.05 4.39,4.52 1.56,-0.3 2.69,0.98 3.51,3.87l1.17 0.8 0.6 -1.13 1.7 -0.32 0.19 0.98c0.2,1.11 -0.53,1.86 -2.17,2.17l0.66 3.47c1.64,-0.31 2.82,1.29 3.5,4.89 5.9,1.79 9.91,8.28 12.04,19.54 2.29,-0.44 3.81,1.11 4.45,4.51l2.68 -0.51 -0.28 3.85c1.26,3.07 3.19,5.42 5.93,7 0.49,2.55 2.55,5.55 6.24,8.92l-0.31 2.69c1.84,-0.34 3.66,1.75 5.6,6.26l-0.13 3.62c3.56,2.64 5.82,6.76 6.9,12.38 1.82,-0.35 2.79,0.08 3,1.19l-0.08 4.63c3.54,-0.67 5.71,0.74 6.39,4.34l-0.33 3.59 0.18 0.98c1.76,-0.34 2.79,0.08 3,1.19l0.34 1.77 -1.71 0.32c2.11,11.13 -1.01,17.48 -9.32,19.05 -4.13,0.38 -6.27,0.18 -6.42,-0.61l-0.6 1.13 -0.98 0.18 -5.55 0.04 -4.47 4.64 -4.57 -0.14 -4.26 1.82 -1.11 -0.8 -0.17 -0.92 -0.61 1.07 -0.98 0.18 -2.02 -1.38 -11.79 5.02 -1.43 -2.51 -1.77 0.33 -4.65 3.67c-0.25,-1.31 -1.54,-1.67 -3.96,-1.21l-0.94 -0.64c-10.59,-1.58 -16.53,-5.34 -17.67,-11.35l0.64 -0.93 0.98 -0.2c-0.33,-1.76 -1.75,-2.44 -4.17,-1.99l-0.5 -2.67 -5.48 -9.88 0.99 -0.18c-0.19,-0.98 -2.56,-2.36 -7.13,-4.01l-6.29 1.2 -7.76 2.29 -3.02 -1.26 -0.53 1.11 -4.63 -0.13 -2.69 0.5 -18.19 4.48 -1.17 -0.8 -0.71 0.14 -0.8 1.16 -0.99 0.19 -11.03 -0.68 -1.98 3.15 -3.6 0.68 -4.96 -1.83 -0.63 0.93 -1.91 0.36 -0.93 -0.64 -0.91 0.18c0.33,1.76 -2.69,3.29 -9.1,4.5 0.17,0.92 -1.59,2.74 -5.25,5.61l-1.16 -0.8c1.22,6.41 0.48,10.76 -2.06,13.07 0.65,3.47 -0.93,6.54 -4.63,9.2l0.33 1.78 1.06 0.54 0.19 0.98c-1.25,0.24 -1.73,1.28 -1.39,3.04l-0.64 0.94 -2.68 0.51 -3.55 -0.14 -3.52 1.48 -2.62 -0.32 -0.52 2.68 -6.3 0.38 -4.38 0.83 -0.32 -1.71 -0.98 0.2 -5.61 3.64 -2.09 -1.37 -0.75 1.09 -0.78 0.15 -5.86 -1.6 -1.7 0.32 -2.36 2.21c-1.17,0.23 -1.94,-0.58 -2.27,-2.35l-0.53 1.12 -8.12 1.55 -2.82 -1.3 -7.9 2.31c-1.28,-2.12 -2.36,-3.15 -3.14,-3l-0.73 1.16 -2.79 -5.03 -0.73 1.09 -0.8 0.15 -1.14 -0.73 -0.66 -3.47c-0.23,-1.17 0.59,-1.87 2.35,-2.21l0.6 -1.12 -0.18 -0.99c-2.43,-0.28 -3.76,-0.91 -3.94,-1.83l-0.51 -2.68 3.47 -0.66 -0.17 -0.91c-0.57,-2.94 -1.7,-4.29 -3.34,-3.98l-0.15 -0.79c1.11,-0.2 1.48,-1.49 1.02,-3.91 1.84,-0.35 3.63,-3.41 5.45,-9.17l0.77 -0.96 1.76 -0.33 1.06 0.61 0.79 -0.15 -0.15 -0.78c-0.17,-0.92 -1.51,-1.55 -3.97,-2.03l-0.33 -1.7c0.78,-7.33 3.24,-13.29 7.5,-17.96 -1.68,-8.9 -0.43,-15.5 3.65,-19.74l-1.81 -4.18c3.49,-1.22 4.64,-4.82 3.49,-10.84 1.63,-2.14 3.16,-3.38 4.66,-3.67l-0.79 -4.18c-0.42,-2.96 -0.11,-4.52 0.93,-4.72l-0.97 -0.83 -1.01 -5.36c2.94,-0.57 3.83,-3.71 2.74,-9.47 1.57,-0.3 2.29,-2.6 2.26,-7 1.77,-0.34 2.3,-2.54 1.53,-6.59 1.44,-0.95 3.54,-5.62 6.49,-13.98l0.79 -0.15 -0.32 -1.69 -0.62 1.06 -0.97 0.18 -0.51 -2.68 1.76 -0.34c-0.55,-2.94 0.61,-4.65 3.55,-5.21l-1.01 -5.36 5.88 -26.53c-0.2,-2.47 0.81,-3.95 2.96,-4.36l-0.32 -1.7 -1.13 -0.6 -0.17 -0.92c2.31,-3.89 3.14,-7.7 2.43,-11.44l5.19 -1.93 0.89 0.78 -0.51 -2.68 -1.69 0.32 -0.14 -0.72 1.7 -0.32 -0.19 -0.98c-2.11,-11.12 -0.48,-17.19 4.89,-18.21l1.97 -3.16 1.17 0.8 0.15 0.79c4.05,-5.05 8.97,-8.08 14.73,-9.17zm124.88 -8.25c0.05,1.35 -1.23,2.81 -3.68,4.5l-0.19 -0.98c-0.23,-1.25 1.1,-2.45 3.87,-3.52zm-5.85 6.67l0.79 -0.15 -1.42 2.1 -0.93 0.18 1.56 -2.13zm-3.87 3.51l1.7 -0.32 0.15 0.78 -1.7 0.32 -0.15 -0.78zm-109.37 24.35l-1.19 3.01 0.47 2.48 4.57 0.15 0.6 -1.13 -0.66 -3.47 -3.79 -1.04zm96.34 -15.5l1.71 -0.32 0.32 1.69 -1.71 0.32 -0.32 -1.69zm67.76 -2.9l0.92 -0.18 0.17 0.92c0.18,0.92 -0.77,1.98 -2.99,3.15l-0.13 -0.72 2.03 -3.17zm-164.61 43.91l0.36 1.9 1.7 -0.33 -0.36 -1.89 -1.7 0.32zm48.61 7.25l0.33 1.76 2.69 -0.51 2.34 -2.27 4.79 0.92 -0.15 -0.79c-0.36,-1.9 -2.02,-3.82 -4.87,-5.65l-0.14 -0.78c-2.2,0.96 -3.04,2.94 -2.48,5.89l-2.51 1.43zm-9.55 7.16l0.38 1.97 0.79 -1.18 0.72 -0.13 1.17 0.79 -0.19 -0.98 -1.49 -2.49 -1.38 2.02zm22.88 0.26l3.65 0.26 -0.18 -0.91 -2.1 -1.44 -1.37 2.09zm-34.53 24.04l0.86 0.59 0.18 0.97 0.26 5.3 1.23 2.56c-2.02,0.38 -2.9,3.6 -2.7,9.66 -1.78,0.33 -2.24,2.86 -1.35,7.57 -1.24,0.23 -2.44,3.52 -3.49,9.81l-4.83 22.74c1.02,1.84 2.41,2.73 4.12,2.81l0.32 1.7 0.98 -0.19c1.17,-1.36 3.94,-2.84 8.26,-4.33l7.32 -0.38 0.72 -0.14c-0.34,-1.77 0.08,-2.79 1.25,-3.01l3.93 1.02 4.12 -2.55c0.6,1.72 3.06,2.2 7.38,1.37l1.44 -2.03 1.89 -0.36 2.03 1.38 0.6 -1.13 1.9 -0.36 6.33 -0.19 -0.83 -4.38 0.6 -1.13c-3.19,-2.17 -5.48,-6.01 -6.78,-11.45l-0.53 1.11 -0.99 0.19c-1.76,-6.44 -3.22,-9.48 -4.53,-9.24l-0.61 1.07 -1.08 -0.74 -0.66 -3.47 0.72 -1.16 -0.14 -0.71c-1.11,0.21 -1.93,-0.92 -2.39,-3.35l-1.9 0.36 -0.98 -5.17 1.1 0.75 0.98 -0.18 -0.69 -3.6c-2.42,0.46 -3.99,-1.07 -4.64,-4.47l-0.7 -3.67c-2.29,0.43 -3.83,-1.64 -4.71,-6.23l-0.1 -5.54c-1.23,0.24 -3.14,-1.56 -5.54,-5.3 -1.57,0.3 -4.32,4.74 -8.35,13.5zm44.75 -13.1l1.12 0.6 0.18 0.92 -0.46 2.93c3.6,-0.68 4.96,-3.18 4.16,-7.36l-0.98 0.19c-2.94,0.56 -4.25,1.48 -4.02,2.72zm-7.24 0.43l-0.93 4.72 1.76 -0.34 1.25 -3.83 -0.18 -0.91 -1.9 0.36zm-102.45 21.2l0.18 0.92 1.77 -0.34 -0.17 -0.91 -1.78 0.33zm111.98 -14.88l1.02 5.37 3.4 -0.65 -1.01 -5.36 -0.92 0.17 -0.61 1.06 -0.98 0.19 -0.9 -0.78zm-92.79 24.93l0.51 2.68 2.5 -1.49 -0.32 -1.7 -2.69 0.51zm25.19 -1.19l0.36 1.9 2.83 0.27 -0.5 -2.68 -2.69 0.51zm-37.77 16.25l0.33 1.76 1.7 -0.32 1.36 -2.09 -2.02 -1.38 -1.37 2.03zm127.75 -22.42l1.02 5.38 2.69 -0.52 -0.2 -0.98 -1.81 -4.2 -1.7 0.32zm-14.29 6.51l0.14 0.72 2.69 -0.51 0.65 -0.87 -0.19 -0.98 -0.78 0.15 -2.51 1.49zm14.66 0.75l0.5 2.68 2.68 -0.51 -0.32 -1.7 -2.86 -0.47zm-105.88 32.01l-0.64 0.94 0.51 2.68 2.33 -1.25 -0.19 -0.99 -2.01 -1.38zm32.69 18.4l0.34 1.77 1.7 -0.33 -0.34 -1.76 -1.7 0.32zm77.13 -11.04l0.18 0.98 1.33 -2.29 -0.13 -0.72 -1.38 2.03zm-90.47 17.17l0.19 0.97 3.4 -0.64 -0.18 -0.98 -3.41 0.65zm10.86 -0.3l0.51 2.68 4.57 0.15 0.78 -0.15 -0.19 -0.98c-1.77,0.33 -2.84,-0.35 -3.18,-2.17l-2.49 0.47zm82.73 -14.69l2.09 1.37 1.7 -0.32 -0.51 -2.68 -3.28 1.63zm-85.55 19.83l0.32 1.7 0.98 -0.19 -0.32 -1.7 -0.98 0.19zm101.19 -19.21l0.33 1.71 1.69 -0.33 -2.02 -1.38zm-154.32 32.07l0.32 1.7 0.92 -0.17 -0.33 -1.7 -0.91 0.17zm28.75 1.87l0.47 2.47 0.78 -0.15 2.55 -1.22 -0.66 -3.46 -1.77 0.33 -1.37 2.03zm31.59 -6l0.47 2.48 1.76 -0.34c0.85,-0.16 1.57,-1.44 2.05,-3.9l-0.99 0.19 -3.29 1.57zm37.3 -4.5l1.89 -0.37 1.38 -2.02 -0.15 -0.78 -0.91 0.17 -2.21 3zm-125.49 29.37l0.19 0.98c1.42,1.08 2.33,3.02 2.87,5.83l0.59 -1.14 0.98 -0.19 -1.13 -0.59 -0.17 -0.92 0.13 -4.63 -3.46 0.66zm219.1 -36.02l0.34 1.76 0.78 -0.14 -0.33 -1.77 -0.79 0.15zm-212.77 41.18l0.51 2.68 1.77 -0.32 -0.19 -0.99 -2.09 -1.37zm176.47 -30.71l1.07 0.62 0.79 -0.15 2.52 -1.3 -0.5 -2.68 -0.98 0.19 -2.9 3.32zm-54.02 8.5l0.14 0.71 1.76 -0.33 -0.13 -0.72 -1.77 0.34zm-101.59 21.04l-2.5 6.84 1.9 -0.36c2.23,-1.1 3,-3.08 2.45,-6.02l-1.14 -0.6 -0.71 0.14zm0.41 11.85l0.15 0.78 2.09 1.36 0.72 -0.13c-0.56,-2.94 0.41,-4.62 2.84,-5.08l-0.34 -1.76c-3.9,1.55 -5.78,3.12 -5.46,4.83zm-9.35 8.14l2.08 1.36 1.7 -0.32 -0.32 -1.7 -2.08 -1.64 -1.38 2.3zm277.56 -271.09l9.51 -0.25 7.17 -2.92 0.29 1.51 1.21 -1.79 1.57 -0.3 26.42 -1.83 1.28 -1.86 1.51 -0.29 1.86 1.27 1.51 -0.28 4.08 -2.41 2.71 5.66 7.64 -1.45c18.81,6.25 28.78,11.68 29.87,16.35l4.78 16.58 0.67 20.34 3.25 8.93 1.71 8.97 -3.11 8.58 -3.08 0.58 -33.92 -21.95 -5.86 2.67 -8.24 -1.62 -7.35 3.02 -9.03 1.71 -1.43 17.49c2.42,-0.46 5.76,3.18 9.99,10.84l1.22 -1.79 1.57 -0.29c11.35,-0.87 17.77,2.59 19.24,10.37l10.84 -0.43 4.28 -2.43c1.57,3.96 7.54,7.58 17.99,10.87l19.16 18.46 11.04 24.68 -2.22 5.03 1.79 1.22 0.87 4.57 -2.49 3.66 2.45 4.35c-0.74,10.04 -4.21,19.64 -10.47,28.76 -4.48,7.08 -9.41,11.14 -14.9,12.17l-7.29 10.88 -6.43 -0.34c-3.96,1.29 -5.76,3.19 -5.29,5.74l-3.07 0.59 -0.59 -3.07 -4.57 0.86c0.58,3.07 -0.04,4.83 -2,5.2l-4.88 -0.71 -8.92 3.33 -7.95 -0.13 -2.29 3.62 -1.51 0.29 -5.23 -2.2 -7.65 1.46c-2.03,0.38 -2.79,2.09 -2.23,5.03l-3.08 0.58 -0.54 -2.87 -5.89 1.12 -7.43 2.96c-0.39,-2.02 -4.68,-2.84 -12.91,-2.29l-12.18 -5.62 -3.08 0.58 0.58 3.01c-7.06,-4.35 -13.96,-10.36 -20.72,-18.09l-3.45 -18.18 -2.67 -5.87 3.04 -25.78 4.38 -0.84c4.31,2.37 8.2,3.2 11.6,2.54l-0.88 -4.57 4.65 -0.88 0.3 1.57 -1.28 1.8 0.28 1.5c4.77,3.37 12.93,4.93 24.54,4.7 0.44,2.29 3.29,3.37 8.52,3.12 13.15,-2.49 19.2,-6.69 18.06,-12.7l5.95 -1.13 -0.58 -3.08c-11.64,-10.26 -24.2,-15.73 -37.69,-16.5 -0.85,-4.45 -9.59,-9.09 -26.28,-13.85l-13.35 -11.77 -8.82 -13.98 0.4 -6.44c-2.56,-2.03 -5.51,-9.39 -8.98,-21.95 0.38,-16.2 4.58,-30.15 12.56,-41.69l1.28 -1.81 4.29 -2.43c-0.13,-6.35 0.74,-9.63 2.64,-10l4.93 0.63c8.37,-5.86 12.36,-10.21 11.8,-13.15l10.54 -2 3.99 -3.94zm-20.88 22.81l-1.27 1.86 0.87 4.58 4.64 -0.88 -0.59 -3.08 -3.65 -2.48zm32.78 6.31l0.58 3.07 -1.57 0.3c2.34,3.76 4.23,5.5 5.8,5.2l2.01 -5.12c-1.97,0.37 -3.16,-0.96 -3.75,-4.04l-3.07 0.59zm-52.79 21.12l-1.28 1.81 0.3 1.57 1.85 1.21 3.08 -0.59 -0.28 -1.5 -3.67 -2.5zm47.55 9.83l0.58 3.07 1.51 -0.28 -0.58 -3.08 -1.51 0.29zm69.86 -5.33l0.59 3.07 1.51 -0.28 -0.58 -3.08 -1.52 0.29zm-20.49 41.64l0.59 3.07 3.59 2.5 0.69 -4.94 -1.86 -1.21 -3.01 0.58zm5.49 28.91l0.3 1.57 3 -0.58 -0.86 -4.58 -2.44 3.59zm-6.64 6.07l0.29 1.51 3.66 2.48 1.37 -0.26 -0.28 -1.5 -3.47 -2.53 -1.57 0.3zm-35.77 60.39l-0.68 4.67 1.81 1.28 3.07 -0.58 -1.13 -5.96 -3.07 0.59zm58.53 -6.57l0.29 1.57 3.07 -0.58 -0.29 -1.57 -3.07 0.58zm-76.87 17.77l-0.34 6.44 1.5 -0.28 2.3 -3.62 -0.59 -3.08 -2.87 0.54z"/>
  <path class="fil17 str0" d="M2262.35 2124.01l-41.02 -37.69c601.69,-181.18 1075.93,-286.98 1681.37,-357.47 42.98,-5 53.76,-19.1 -34.28,42.62"/>
  <path class="fil17 str0" d="M3894.07 2124.01l41.02 -37.69c-601.69,-181.18 -1075.92,-286.98 -1681.37,-357.47 -42.97,-5 -53.75,-19.1 34.29,42.62"/>
 </g>
</svg>
