<?xml version="1.0" encoding="UTF-8"?>
<!DOCTYPE svg PUBLIC "-//W3C//DTD SVG 1.1//EN" "http://www.w3.org/Graphics/SVG/1.1/DTD/svg11.dtd">
<!-- Creator: CorelDRAW 2017 -->
<svg xmlns="http://www.w3.org/2000/svg" xml:space="preserve" width="50.7998mm" height="33.8666mm" version="1.1" style="shape-rendering:geometricPrecision; text-rendering:geometricPrecision; image-rendering:optimizeQuality; fill-rule:evenodd; clip-rule:evenodd"
viewBox="0 0 5079.98 3386.66"
 xmlns:xlink="http://www.w3.org/1999/xlink">
 <defs>
  <style type="text/css">
   <![CDATA[
    .fil0 {fill:none}
    .fil3 {fill:#01CDCC}
    .fil1 {fill:#027391}
    .fil2 {fill:#D9EEEF}
   ]]>
  </style>
 </defs>
 <g id="Capa_x0020_1">
  <metadata id="CorelCorpID_0Corel-Layer"/>
  <rect class="fil0" x="-0" width="5079.99" height="3386.66"/>
  <path class="fil1" d="M1007.99 2267.96l15.62 0 0 170.75c0,27.76 10.08,50.99 30.24,69.81 20.16,18.76 44.39,28.17 72.69,28.17 26.42,0 48.85,-10.02 67.28,-29.97 18.42,-20.03 27.63,-43.72 27.63,-71.22l0 -167.54 15.62 0 0 167.54c0,31.77 -10.54,59.14 -31.64,82.23 -21.09,23.03 -47.12,34.58 -78.1,34.58 -32.57,0 -60.6,-10.95 -84.1,-32.78 -23.49,-21.89 -35.24,-48.79 -35.24,-80.82l0 -170.75zm345.02 111.34c-16.62,0 -32.58,6.2 -47.99,18.62 -15.35,12.42 -26.3,27.57 -32.71,45.46l0 106.93 -14.82 0 0 -176.62 15.22 0 -0.4 36.04c9.88,-13.87 21.63,-24.82 35.24,-32.84 14.96,-8.81 30.44,-13.21 46.46,-13.21 31.24,0 55.14,10.82 71.69,32.51 13.08,17.15 19.62,36.91 19.62,59.4l0 94.72 -15.62 0 0 -94.72c0,-19.82 -5.08,-36.44 -15.29,-49.8 -13.34,-17.68 -33.84,-26.49 -61.4,-26.49zm302.17 22.69l-10.42 11.35c-10.94,-9.88 -21.89,-17.15 -32.84,-21.83 -10.94,-4.67 -21.89,-7 -32.84,-7 -22.42,0 -41.91,8.81 -58.47,26.36 -16.55,17.55 -24.83,37.04 -24.83,58.34 1.87,21.56 9.95,39.58 24.23,54.13 14.29,14.48 31.98,21.76 53.07,21.76 20.56,0 39.65,-7.34 57.26,-22.02 17.63,-14.62 26.44,-29.97 26.44,-45.99l0 -207.53 15.62 0 0 207.86c0,21.36 -10.35,40.58 -31.04,57.67 -20.69,17.08 -43.72,25.63 -69.08,25.63 -25.37,0 -47.06,-8.75 -65.08,-26.3 -18.02,-17.49 -27.04,-38.71 -27.04,-63.61 0,-26.5 9.82,-50.06 29.44,-70.82 19.62,-20.76 42.92,-31.1 69.89,-31.1 13.08,0 25.83,2.54 38.24,7.67 12.41,5.14 24.9,13.62 37.45,25.43zm98.92 132.3c9.61,5.33 20.29,8 32.03,8 20.83,0 38.73,-7.47 53.67,-22.42 7.21,-7.74 12.36,-15.22 15.42,-22.43 3.07,-7.2 5.28,-16.95 6.61,-29.24l15.62 1.61c-1.61,13.35 -4.28,24.7 -8.01,34.04 -3.74,9.35 -9.88,18.42 -18.42,27.23 -8.55,8.81 -18.23,15.49 -29.03,20.02 -10.82,4.54 -22.23,6.81 -34.25,6.81 -17.89,0 -35.11,-5.07 -51.66,-15.22 -13.62,-8.81 -24.37,-20.35 -32.24,-34.64 -7.88,-14.28 -11.81,-29.16 -11.81,-44.65 0,-16.02 4.27,-31.3 12.81,-45.85 8.55,-14.55 20.09,-25.97 34.64,-34.24 14.55,-8.28 29.84,-12.42 45.86,-12.42 16.55,0 31.5,4.53 44.85,13.62l6.01 3.6 -82.1 146.18zm-36.04 -109.34c-6.94,11.75 -10.42,24.56 -10.42,38.45 0,12.01 2.8,23.43 8.41,34.24 5.61,10.82 13.89,19.96 24.84,27.43l74.49 -131.75c-8.81,-4.54 -18.69,-6.81 -29.64,-6.81 -13.61,0 -26.56,3.4 -38.85,10.21 -12.28,6.81 -21.89,16.22 -28.83,28.23zm204.25 124.15l-16.02 0 0.4 -90.5c0,-13.36 3.86,-26.97 11.61,-40.85 4.8,-8.55 11.08,-17.22 18.82,-26.03 6.95,-7.21 15.09,-13.09 24.43,-17.63 11.48,-5.61 23.23,-8.41 35.25,-8.41l0.79 15.62c-9.34,0 -19.08,2.4 -29.23,7.2 -8.54,4.01 -15.22,8.69 -20.02,14.02 -7.75,8.02 -14.29,18.16 -19.63,30.44 -4.27,9.61 -6.4,18.16 -6.4,25.64l0 90.5zm175.21 -8.41c13.28,0 24.96,-4.2 34.91,-12.61 10.01,-8.41 17.48,-19.42 22.56,-33.04l0 -5.21 0 -115.74 15.62 0 0 116.28c0,11.28 6.47,22.49 19.42,33.63 12.94,11.15 26.76,16.69 41.45,16.69 15.48,0 28.5,-5.94 39.05,-17.89 10.54,-11.94 15.82,-25.96 15.82,-42.05l0 -107.86 15.62 0 0 107.8c0,20.35 -6.61,38.11 -19.83,53.13 -13.22,15.02 -29.84,22.49 -49.86,22.49 -14.42,0 -27.97,-3.6 -40.65,-10.81 -12.68,-7.21 -22.22,-16.82 -28.64,-28.84 -6.93,11.75 -16.01,21.3 -27.23,28.64 -11.21,7.35 -23.89,11.01 -38.04,11.01 -20.56,0 -38.25,-7.14 -53.07,-21.42 -14.82,-14.29 -22.22,-31.57 -22.22,-51.86l0 -106.54 15.62 0 0 106.54c0,16.01 5.87,29.63 17.55,40.84 11.74,11.22 25.7,16.82 41.92,16.82zm286.94 -6.4c9.61,5.33 20.3,8 32.04,8 20.83,0 38.72,-7.47 53.67,-22.42 7.21,-7.74 12.35,-15.22 15.41,-22.43 3.07,-7.2 5.28,-16.95 6.62,-29.24l15.62 1.61c-1.61,13.35 -4.28,24.7 -8.02,34.04 -3.73,9.35 -9.88,18.42 -18.42,27.23 -8.55,8.81 -18.22,15.49 -29.03,20.02 -10.82,4.54 -22.23,6.81 -34.24,6.81 -17.89,0 -35.12,-5.07 -51.67,-15.22 -13.62,-8.81 -24.36,-20.35 -32.24,-34.64 -7.87,-14.28 -11.81,-29.16 -11.81,-44.65 0,-16.02 4.27,-31.3 12.82,-45.85 8.54,-14.55 20.09,-25.97 34.63,-34.24 14.56,-8.28 29.84,-12.42 45.86,-12.42 16.56,0 31.51,4.53 44.86,13.62l6 3.6 -82.1 146.18zm-36.04 -109.34c-6.94,11.75 -10.41,24.56 -10.41,38.45 0,12.01 2.8,23.43 8.41,34.24 5.61,10.82 13.88,19.96 24.83,27.43l74.49 -131.75c-8.81,-4.54 -18.69,-6.81 -29.64,-6.81 -13.61,0 -26.56,3.4 -38.84,10.21 -12.28,6.81 -21.9,16.22 -28.84,28.23zm345.22 88.11l10.81 11.48c-12.28,11.42 -24.76,19.7 -37.44,24.83 -12.69,5.14 -25.57,7.75 -38.65,7.75 -26.69,0 -49.86,-10.36 -69.48,-30.98 -19.62,-20.63 -29.44,-44.18 -29.44,-70.55 0,-24.76 9.08,-45.92 27.24,-63.54 18.15,-17.55 39.78,-26.37 64.88,-26.37 25.36,0 48.32,8.55 68.88,25.63 20.55,17.09 30.83,36.45 30.83,58.07l0 98.93 -15.62 0 0 -98.93c0,-16.28 -8.74,-31.7 -26.23,-46.25 -17.48,-14.55 -36.5,-21.83 -57.07,-21.83 -21.35,0 -39.58,7.28 -54.66,21.76 -15.09,14.55 -22.63,32.44 -22.63,53.73 0,21.56 8.21,41.12 24.63,58.54 16.42,17.42 35.97,26.17 58.67,26.17 11.21,0 22.23,-2.27 33.04,-6.75 10.82,-4.47 21.56,-11.67 32.24,-21.69zm74.09 36.04l-16.02 0 0.4 -90.5c0,-13.36 3.87,-26.97 11.61,-40.85 4.81,-8.55 11.08,-17.22 18.82,-26.03 6.95,-7.21 15.09,-13.09 24.43,-17.63 11.49,-5.61 23.24,-8.41 35.25,-8.41l0.8 15.62c-9.35,0 -19.09,2.4 -29.24,7.2 -8.54,4.01 -15.21,8.69 -20.02,14.02 -7.74,8.02 -14.29,18.16 -19.63,30.44 -4.27,9.61 -6.4,18.16 -6.4,25.64l0 90.5zm406.09 -16.55l6.81 11.75 -13.21 7.61 -6.01 -10.82c-8.81,4.81 -17.63,8.48 -26.44,11.02 -8.8,2.54 -18.02,3.81 -27.63,3.81 -32.04,0 -59.34,-11.02 -81.9,-33.04 -22.55,-22.04 -33.84,-48.94 -33.84,-80.71 0,-21.62 5.48,-40.85 16.42,-57.66 10.14,-15.49 24.83,-28.84 44.05,-40.06 -2.4,-5.07 -4.33,-10.28 -5.8,-15.61 -1.47,-5.34 -2.21,-10.42 -2.21,-15.22 0,-9.08 2.41,-17.62 7.22,-25.63 11.48,-21.1 30.3,-31.64 56.46,-31.64 18.96,0 34.31,7.34 46.06,22.02l-12.02 10.01c-5.34,-5.87 -10.48,-10.07 -15.42,-12.61 -4.93,-2.53 -11.14,-3.8 -18.62,-3.8 -19.76,0 -34.04,8 -42.85,23.96 -3.47,5.88 -5.21,12.02 -5.21,18.42 0,6.87 2.21,15.02 6.55,24.37 1.07,2.13 4.07,7.74 9,16.75l91.38 163c16.89,-14.16 27.3,-32.98 31.24,-56.4 0.81,-6.14 1.2,-11.62 1.2,-16.43 0,-16.48 -5.74,-33.83 -17.22,-51.93l12.82 -8.41c13.34,19.23 20.02,39.59 20.02,61.21 0,5.61 -0.4,11.48 -1.2,17.63 -2.14,14.14 -6.61,26.96 -13.41,38.37 -6.81,11.49 -15.56,21.49 -26.24,30.04zm-20.02 -5.07l-92.11 -164.2 -2.81 -5.21c-17.08,10.41 -29.77,22.03 -38.04,34.85 -9.08,14.15 -13.62,30.57 -13.62,49.25 0,27.5 9.74,50.74 29.23,69.69 19.5,18.95 42.86,28.44 70.09,28.44 17.09,0 32.84,-4.28 47.26,-12.82zm313.98 -159.93l5.61 14.49c-5.08,2.13 -10.15,4.14 -15.23,6 -6.13,2.94 -11.07,7.47 -14.81,13.62 -6.41,9.88 -10.14,29.03 -11.21,57.47 -1.07,28.43 -6.01,51.66 -14.82,69.55 -4.27,8.28 -11.08,14.82 -20.42,19.63 -7.75,4 -16.82,6.4 -27.24,7.2l-1.6 -15.62c8.01,0 15.22,-1.6 21.62,-4.8 6.41,-3.21 10.95,-7.61 13.62,-13.22 8.81,-42.78 17.62,-85.5 26.44,-128.22 4.26,-7.21 9.87,-12.82 16.81,-16.82 2.94,-1.6 10.01,-4.67 21.23,-9.28zm102.32 173.14c13.28,0 24.96,-4.2 34.91,-12.61 10.01,-8.41 17.48,-19.42 22.56,-33.04l0 -5.21 0 -115.74 15.62 0 0 116.28c0,11.28 6.47,22.49 19.43,33.63 12.94,11.15 26.75,16.69 41.45,16.69 15.48,0 28.5,-5.94 39.04,-17.89 10.55,-11.94 15.82,-25.96 15.82,-42.05l0 -107.86 15.62 0 0 107.8c0,20.35 -6.61,38.11 -19.83,53.13 -13.21,15.02 -29.84,22.49 -49.86,22.49 -14.42,0 -27.96,-3.6 -40.64,-10.81 -12.69,-7.21 -22.23,-16.82 -28.64,-28.84 -6.94,11.75 -16.02,21.3 -27.23,28.64 -11.21,7.35 -23.9,11.01 -38.05,11.01 -20.55,0 -38.25,-7.14 -53.06,-21.42 -14.82,-14.29 -22.23,-31.57 -22.23,-51.86l0 -106.54 15.62 0 0 106.54c0,16.01 5.87,29.63 17.55,40.84 11.75,11.22 25.7,16.82 41.92,16.82zm240.89 -170.2l15.63 0 0 179.82 -15.63 0 0 -179.82zm0 -26.84l15.63 0 0 12.82 -15.63 0 0 -12.82zm250.51 39.26c-13.28,0 -24.89,3.99 -34.71,12.01 -9.88,8.01 -17.29,18.69 -22.36,32.04l0 4.8 0 119.75 -15.62 0 0 -119.75c0,-11.21 -6.48,-22.36 -19.43,-33.44 -12.95,-11.07 -26.89,-16.62 -41.84,-16.62 -15.22,0 -28.1,5.94 -38.65,17.82 -10.54,11.89 -15.82,25.97 -15.82,42.26l0 109.73 -15.62 0 0 -109.73c0,-20.3 6.61,-37.99 19.83,-53.07 13.21,-15.09 29.83,-22.63 49.86,-22.63 14.41,0 27.96,3.6 40.64,10.81 12.69,7.21 22.23,16.69 28.64,28.44 7.48,-11.48 16.69,-20.69 27.64,-27.63 10.94,-6.95 23.35,-10.42 37.24,-10.42 20.55,0 38.32,6.81 53.26,20.43 14.95,13.61 22.43,30.57 22.43,50.86l0 112.94 -15.62 0 0 -112.94c0,-15.76 -5.87,-28.97 -17.56,-39.65 -11.74,-10.68 -25.82,-16.01 -42.31,-16.01zm174.61 157.78c13.29,0 24.97,-4.2 34.92,-12.61 10.01,-8.41 17.48,-19.42 22.55,-33.04l0 -5.21 0 -115.74 15.62 0 0 116.28c0,11.28 6.48,22.49 19.43,33.63 12.94,11.15 26.76,16.69 41.45,16.69 15.48,0 28.5,-5.94 39.04,-17.89 10.55,-11.94 15.82,-25.96 15.82,-42.05l0 -107.86 15.62 0 0 107.8c0,20.35 -6.6,38.11 -19.82,53.13 -13.22,15.02 -29.84,22.49 -49.86,22.49 -14.42,0 -27.97,-3.6 -40.65,-10.81 -12.69,-7.21 -22.23,-16.82 -28.64,-28.84 -6.94,11.75 -16.01,21.3 -27.23,28.64 -11.21,7.35 -23.9,11.01 -38.05,11.01 -20.55,0 -38.24,-7.14 -53.06,-21.42 -14.82,-14.29 -22.23,-31.57 -22.23,-51.86l0 -106.54 15.62 0 0 106.54c0,16.01 5.88,29.63 17.56,40.84 11.74,11.22 25.7,16.82 41.91,16.82zm286.95 -6.4c9.61,5.33 20.29,8 32.04,8 20.82,0 38.72,-7.47 53.66,-22.42 7.21,-7.74 12.36,-15.22 15.42,-22.43 3.07,-7.2 5.28,-16.95 6.62,-29.24l15.61 1.61c-1.6,13.35 -4.27,24.7 -8.01,34.04 -3.74,9.35 -9.88,18.42 -18.42,27.23 -8.55,8.81 -18.23,15.49 -29.03,20.02 -10.82,4.54 -22.23,6.81 -34.24,6.81 -17.9,0 -35.12,-5.07 -51.67,-15.22 -13.62,-8.81 -24.37,-20.35 -32.24,-34.64 -7.88,-14.28 -11.81,-29.16 -11.81,-44.65 0,-16.02 4.27,-31.3 12.81,-45.85 8.55,-14.55 20.1,-25.97 34.64,-34.24 14.55,-8.28 29.84,-12.42 45.86,-12.42 16.55,0 31.5,4.53 44.86,13.62l6 3.6 -82.1 146.18zm-36.04 -109.34c-6.94,11.75 -10.41,24.56 -10.41,38.45 0,12.01 2.8,23.43 8.4,34.24 5.61,10.82 13.89,19.96 24.84,27.43l74.49 -131.75c-8.81,-4.54 -18.69,-6.81 -29.64,-6.81 -13.61,0 -26.56,3.4 -38.85,10.21 -12.28,6.81 -21.89,16.22 -28.83,28.23zm345.22 88.11l10.81 11.48c-12.28,11.42 -24.76,19.7 -37.44,24.83 -12.69,5.14 -25.57,7.75 -38.65,7.75 -26.7,0 -49.86,-10.36 -69.49,-30.98 -19.62,-20.63 -29.43,-44.18 -29.43,-70.55 0,-24.76 9.08,-45.92 27.24,-63.54 18.14,-17.55 39.78,-26.37 64.87,-26.37 25.37,0 48.33,8.55 68.88,25.63 20.56,17.09 30.84,36.45 30.84,58.07l0 98.93 -15.62 0 0 -98.93c0,-16.28 -8.74,-31.7 -26.23,-46.25 -17.49,-14.55 -36.51,-21.83 -57.07,-21.83 -21.35,0 -39.58,7.28 -54.66,21.76 -15.09,14.55 -22.64,32.44 -22.64,53.73 0,21.56 8.21,41.12 24.64,58.54 16.41,17.42 35.97,26.17 58.67,26.17 11.21,0 22.22,-2.27 33.04,-6.75 10.81,-4.47 21.56,-11.67 32.24,-21.69zm74.09 36.04l-16.03 0 0.41 -90.5c0,-13.36 3.86,-26.97 11.61,-40.85 4.8,-8.55 11.08,-17.22 18.82,-26.03 6.95,-7.21 15.09,-13.09 24.43,-17.63 11.48,-5.61 23.23,-8.41 35.25,-8.41l0.79 15.62c-9.34,0 -19.08,2.4 -29.23,7.2 -8.54,4.01 -15.22,8.69 -20.02,14.02 -7.75,8.02 -14.29,18.16 -19.63,30.44 -4.27,9.61 -6.4,18.16 -6.4,25.64l0 90.5z"/>
  <path class="fil1" d="M1430.73 1783.23l-395.67 0 0 415.41 -40.5 0 0 -732.14 436.17 0 0 40.49 -395.67 0 0 235.75 395.67 0 0 40.49zm124.39 -276.24l0 234.7 391.51 0 0 40.51 -391.51 0 0 379.05 390.47 0 0 40.5 -430.97 0 0 -735.25 430.97 0 0 40.49 -390.47 0zm519.02 416.44l0 277.28 -40.5 0 0 -729.03 199.39 -2.07c75.46,0 138.46,22.5 189,67.68 54.7,48.46 82.04,113.88 82.04,196.44 0,74.25 -27,131.37 -80.99,171.53 -46.92,34.79 -106.1,52.09 -177.42,52.09l-50.71 0 314.83 226.05 -24.4 33.75 -411.24 -293.72zm0 -6.23l170.84 0c64.89,0 116.13,-13.84 153.34,-41.36 43.45,-31.85 65.25,-79.45 65.25,-142.98 0,-69.74 -22.5,-124.61 -67.32,-164.77 -42.06,-37.21 -96.59,-55.9 -163.57,-55.9l-158.54 0 0 405.01zm537.71 6.23l0 277.28 -40.5 0 0 -729.03 199.4 -2.07c75.46,0 138.46,22.5 189,67.68 54.69,48.46 82.04,113.88 82.04,196.44 0,74.25 -27,131.37 -81,171.53 -46.91,34.79 -106.1,52.09 -177.41,52.09l-50.71 0 314.83 226.05 -24.4 33.75 -411.25 -293.72zm0 -6.23l170.84 0c64.9,0 116.14,-13.84 153.35,-41.36 43.44,-31.85 65.25,-79.45 65.25,-142.98 0,-69.74 -22.5,-124.61 -67.33,-164.77 -42.06,-37.21 -96.58,-55.9 -163.56,-55.9l-158.55 0 0 405.01zm537.72 -410.21l0 234.7 391.51 0 0 40.51 -391.51 0 0 379.05 390.47 0 0 40.5 -430.97 0 0 -735.25 430.97 0 0 40.49 -390.47 0zm482.67 -37.38l40.5 0 0 695.79 363.48 0 0 40.5 -403.98 0 0 -736.29zm821.22 476.5l0 -38.25c-25.61,47.77 -59.19,85.68 -101.08,113.71 -41.71,28.04 -90,42.06 -144.52,42.06 -92.6,0 -165.82,-33.58 -219.81,-100.74 -48.99,-61.61 -73.57,-137.77 -73.57,-228.46l0 -239.89 40.51 0 0 239.89c0,81.69 21.11,149.2 63.17,202.51 45.69,57.45 109.21,86.19 190.74,86.19 69.75,0 127.91,-27.35 174.64,-82.05 46.56,-54.68 69.92,-119.77 69.92,-195.22l0 -251.32 40.5 0 0 247.85 0 203.2c0,80.31 -26.65,149.37 -79.96,207.53 -53.31,57.98 -119.43,87.05 -198.35,87.05 -65.77,0 -122.37,-16.09 -169.79,-48.46 -47.43,-32.36 -84.99,-79.27 -112.68,-140.54l36.34 -16.62c25.62,54.35 58.51,95.38 98.66,123.24 40.15,27.86 88.62,41.88 145.39,41.88 67.16,0 123.92,-24.74 170.31,-74.42 46.38,-49.68 69.58,-109.39 69.58,-179.14z"/>
  <path class="fil1" d="M763.01 1798.34c0.24,-15.32 0.41,-32.53 15.93,-35.77 10.55,21.26 -3.06,29.22 -15.93,35.77zm-545.36 -65.94c-4.51,-7.74 -5.98,-17.79 -1.05,-28.72 2.21,-4.9 2.26,-6.61 8.34,-8.58 13.18,-4.27 12.08,2 13.67,2.32 0.16,8.94 3.62,23.05 -20.96,34.98zm96.16 -70.01c2.46,-26.86 17.38,-103.48 27.37,-125.64 99.59,6.42 212.78,63.68 313.54,29.91 13.87,-4.64 24.69,-11.28 40.37,-13.42 1.68,36.76 19.34,80.63 9.07,121.36 -10.28,14.07 -84.11,37.01 -93.3,44.09 -20.1,15.48 0.34,21.31 -38.25,30.46 -21.5,5.1 -37.87,4.79 -60.95,2.93 -4.72,-14.07 -0.2,-12.61 -12.59,-23.02 -37.72,-31.71 -135.61,-73.08 -185.26,-66.67zm337.74 -1049.67c-2.89,11.17 -23.34,6.38 -47.12,8.76 -13.32,1.32 -36.53,3.62 -48.09,7.34 -69.34,22.33 -41.8,100.45 -48.03,124.01 -2.62,9.89 -14.38,13.49 -4.1,46.54 12.01,38.63 30.22,20.15 17.55,91.29 -8.8,49.49 -110.04,55.5 -163.05,66.35 -41.03,8.39 -58.84,9.46 -77.7,36.66 -14.82,21.38 -23.08,52.41 -27.41,83.21 -5.26,37.43 -18.16,52.53 -31.09,83.8 -14.27,34.49 -12.74,57.77 -19.53,94.68 -4.96,26.97 -25.77,50.65 -31.55,82.81 -20.28,112.72 -4.41,199.88 -7.67,326.75 -1.22,47.6 7.35,92.46 50.95,113.32 55.95,26.76 39.01,-0.94 46.9,-13.28 3.86,-6.03 8.86,-9.35 13.99,-18.49 -20.39,-56.88 -6.2,-28.6 -15.15,-76.2 -12.23,-65.11 -58.96,-36.02 -0.31,-207.31 17.71,-51.74 11.56,-107.45 26.65,-152.93 9.68,-29.17 40.35,-101.17 56.33,-120.7 1.94,22.31 -0.55,35 4.92,57.18 16.7,67.79 29.97,73.31 8.7,155.84 -9.32,36.15 -7.42,70.27 -16.22,108.39 -7.5,32.46 -17.42,66.82 -23.61,100.41 -7.27,39.44 -5.29,50.18 -17.01,107.34 -22.32,108.8 -21.32,234.76 -16.82,345.06 1.02,25.05 -23.79,69.6 -30.62,94.03 -6.22,22.25 -13.94,83.05 -16.35,108.18 -8.8,91.81 10.35,139.13 25.53,220.35 4.43,23.69 3.23,95.53 2.37,122.89 -1.46,46.47 -36.36,123.62 -10.9,163.2 1.61,2.5 25.22,26.87 33.01,28.56 13.62,2.96 101.02,1.04 119.55,-0.02 -11.04,-41.35 -57.89,-94.19 -59.88,-101.36 -5.9,-21.18 -1.78,-129.6 -1.45,-159.06 1.43,-129.27 -2.84,-102.28 21.16,-220.61 4.9,-24.13 1.99,-49.43 4.55,-74.12 20.77,-200.7 55.81,-162.47 71.51,-247.81 8.69,-47.22 26.96,-152.43 48.17,-194.35 19.56,-38.65 12.42,-41.54 38.17,-41.17 -4.77,26.18 -13.34,46.71 -19.7,72.99 -21.97,90.78 16.52,83.28 11.47,155.67 -2.58,36.9 -6.04,43.28 5.3,77.92 8.79,26.82 11.17,53.37 -1.69,78.57 -48.38,94.79 -41.79,127.52 -14.46,211.84 36.3,112.04 28.75,198.81 -1.12,308.3 -4.86,17.84 -5.34,23.07 -4.76,42.82 1.56,52.81 47.28,39.72 89.65,45.65 51.67,7.24 28.09,33.17 151.78,30.01 15.02,-27.93 24.64,-14.47 -34.88,-58.64 -11.97,-8.89 -23.85,-15.58 -34.89,-24.02 -10.36,-7.91 -43.54,-47.64 -48.25,-65.64 -29.24,-111.82 -4.82,-75.01 3.64,-132.84 10.08,-69 24.16,-241.57 23.23,-317.39 -1.21,-97.74 8.32,-57.66 11.78,-104.51 1.38,-18.78 -0.95,-38.38 2.25,-56.86 2.15,-12.38 7.41,-29.9 10.87,-43.78l26.04 -203.33c1.93,-36.28 0.6,-72 4.37,-108.5 6.51,-63.03 -19.66,-111.4 -21.29,-205.1 -0.79,-45.56 -15.89,-49.36 -6.01,-101.33 5.3,-27.84 3.82,-75.94 15.75,-98.32 4.3,26.91 12.73,44.79 19.16,70.25 8.91,35.3 6.96,33.62 7.39,70.64 0.79,67.22 17.45,88.66 29.22,143.82 36.96,173.12 26.03,62.56 -6,209.38 -2.65,12.13 -8.61,22.94 -10.86,32.92 -5.95,26.4 2.81,20.34 16.13,25.86l-22.1 16.03c2.06,7.61 1.93,5.72 5.74,10.78l5.36 5.78c0.31,-0.59 1.33,1.33 1.98,2 61.9,-8.76 62.1,-39.94 74.87,-64.2 12.2,-23.18 3.47,-94.93 8.31,-129.36 0.67,-4.76 1.65,-143.84 7.18,-199.29 2.1,-21.11 -2.62,-42.98 -1.05,-62.97 -2.78,-2.9 -2.07,-1.83 -4.84,-6.4 -17.65,-29.16 -14.62,-92.91 -17.07,-113.76 -6.88,-58.53 38.67,-186.69 -29.8,-228.28 -20.03,-12.17 -116.07,-63.15 -126.39,-82.85 -17.75,-33.88 15.5,-77.32 17.29,-81.79 2.45,-6.13 4.94,-18.84 8.22,-24.38 12.14,-20.49 3.56,12.4 28.53,-39.94 21.78,-45.65 -9.31,-17.92 7.16,-47.98 11.17,-20.4 11.38,-27.65 14.09,-54.7 5.33,-53.2 -10.95,-70.99 -44.36,-92.17 5.08,-4.83 5.37,-5.33 10.69,-8.14l-24.7 5.06c-0.27,-0.4 -0.65,-1.08 -0.76,-1.23 -0.11,-0.16 -0.68,-1.03 -0.82,-1.22l-18 -6.91z"/>
  <rect class="fil1" x="7.06" y="3315.97" width="5080" height="75.49"/>
  <ellipse class="fil1" cx="4904.59" cy="213.07" rx="123.31" ry="128.44"/>
  <ellipse class="fil2" cx="4894.31" cy="521.34" rx="123.31" ry="128.44"/>
  <ellipse class="fil3" cx="4884.04" cy="829.62" rx="123.31" ry="128.44"/>
 </g>
</svg>
