<?xml version="1.0" encoding="UTF-8"?>
<!DOCTYPE svg PUBLIC "-//W3C//DTD SVG 1.1//EN" "http://www.w3.org/Graphics/SVG/1.1/DTD/svg11.dtd">
<!-- Creator: CorelDRAW 2017 -->
<svg xmlns="http://www.w3.org/2000/svg" xml:space="preserve" width="50.7998mm" height="33.8666mm" version="1.1" style="shape-rendering:geometricPrecision; text-rendering:geometricPrecision; image-rendering:optimizeQuality; fill-rule:evenodd; clip-rule:evenodd"
viewBox="0 0 5079.98 3386.66"
 xmlns:xlink="http://www.w3.org/1999/xlink">
 <defs>
  <style type="text/css">
   <![CDATA[
    .str0 {stroke:#C4BC41;stroke-width:20;stroke-miterlimit:22.9256}
    .fil5 {fill:#201E1E}
    .fil6 {fill:black}
    .fil2 {fill:#C4BC41}
    .fil7 {fill:#FFC83D}
    .fil1 {fill:#727376;fill-rule:nonzero}
    .fil0 {fill:#727376;fill-rule:nonzero}
    .fil3 {fill:#201E1E;fill-rule:nonzero}
    .fil4 {fill:#FFC83D;fill-rule:nonzero}
   ]]>
  </style>
 </defs>
 <g id="Capa_x0020_1">
  <metadata id="CorelCorpID_0Corel-Layer"/>
  <g id="_2018137098768">
   <g>
    <path class="fil0" d="M700.35 1542.53l-295.76 39.35 -13.56 -101.92 295.76 -39.35 58.19 51.73 -44.63 50.19zm-13.56 -101.92c28.14,-3.74 54,16.04 57.74,44.18 3.74,28.14 -16.04,54 -44.18,57.74l-13.56 -101.92zm-45.91 135.28l1.28 -85.09 102.82 1.54 -1.28 85.09 -44.63 50.19 -58.19 -51.73zm102.82 1.54c-0.42,28.39 -23.79,51.06 -52.18,50.64 -28.39,-0.42 -51.06,-23.79 -50.64,-52.18l102.82 1.54zm-267.8 -23.85l209.61 -27.88 13.56 101.92 -209.61 27.88 -58.19 -51.69 44.63 -50.23zm13.56 101.92c-28.14,3.74 -54,-16.04 -57.74,-44.18 -3.74,-28.14 16.04,-54 44.18,-57.74l13.56 101.92zm-60.51 111.21l2.32 -162.9 102.82 1.46 -2.32 162.9 -44.63 50.23 -58.19 -51.69zm102.82 1.46c-0.4,28.39 -23.75,51.08 -52.14,50.68 -28.39,-0.4 -51.08,-23.75 -50.68,-52.14l102.82 1.46zm164.31 22.43l-208.94 27.8 -13.56 -101.92 208.94 -27.8 58.19 51.56 -44.63 50.36zm-13.56 -101.92c28.14,-3.74 54,16.04 57.74,44.18 3.74,28.14 -16.04,54 -44.18,57.74l-13.56 -101.92zm-45.64 137.48l1.01 -87.12 102.82 1.2 -1.01 87.12 -44.63 50.36 -58.19 -51.56zm102.82 1.2c-0.33,28.39 -23.62,51.14 -52.01,50.81 -28.39,-0.33 -51.14,-23.62 -50.81,-52.01l102.82 1.2zm-267.46 -23.72l209.27 -27.84 13.56 101.92 -209.27 27.84 -58.19 -51.7 44.63 -50.22zm13.56 101.92c-28.14,3.74 -54,-16.04 -57.74,-44.18 -3.74,-28.14 16.04,-54 44.18,-57.74l13.56 101.92zm-62.66 258.52l4.47 -310.22 102.82 1.48 -4.47 310.22 -44.63 50.22 -58.19 -51.7zm102.82 1.48c-0.4,28.39 -23.76,51.07 -52.15,50.67 -28.39,-0.4 -51.07,-23.76 -50.67,-52.15l102.82 1.48zm-145.7 -40.05l87.51 -11.65 13.56 101.92 -87.51 11.65 -58.18 -51.82 44.62 -50.1zm13.56 101.92c-28.14,3.74 -54,-16.04 -57.74,-44.18 -3.74,-28.14 16.04,-54 44.18,-57.74l13.56 101.92zm55.39 -695.65l-10.77 645.55 -102.8 -1.72 10.77 -645.55 44.62 -50.1 58.18 51.82zm-102.8 -1.72c0.47,-28.38 23.88,-51.01 52.26,-50.54 28.38,0.47 51.01,23.88 50.54,52.26l-102.8 -1.72zm528.93 -10.81l-84.79 11.28 -13.56 -101.92 84.79 -11.28 58.19 51.57 -44.63 50.35zm-13.56 -101.92c28.14,-3.74 54,16.04 57.74,44.18 3.74,28.14 -16.04,54 -44.18,57.74l-13.56 -101.92zm-49.82 491.32l5.19 -440.97 102.82 1.22 -5.19 440.97 -102.82 -1.03 0 -0.19zm104.2 15.33l-101.92 13.56 0 -0.01 -0.13 -0.95 -0.14 -1.08 -0.13 -1.05 -0.13 -1.03 -0.08 -0.72 -0.13 -1 -0.12 -1.05 -0.08 -0.71 -0.11 -1 -0.1 -0.95 -0.11 -1.01 -0.1 -1.01 -0.05 -0.59 -0.1 -0.95 -0.09 -0.99 -0.05 -0.62 -0.08 -0.95 -0.08 -0.95 -0.07 -0.95 -0.06 -0.94 -0.04 -0.56 -0.06 -0.95 -0.05 -0.94 -0.05 -0.98 -0.04 -0.96 -0.02 -0.49 -0.03 -0.98 -0.02 -0.98 -0.01 -0.47 -0.02 -0.99 0 -1.01 0 -0.88 102.82 0.84 0 0.04 0 -0.07 0 -0.01 0.01 0.53 0 0.06 0.01 0.08 0.02 0.59 0 0.16 0.01 0.16 0.01 0.22 0.02 0.25 0.04 0.66 0.02 0.3 0.03 0.33 0.02 0.35 0.04 0.39 0.07 0.74 0.03 0.39 0.04 0.45 0.09 0.85 0.04 0.47 0.05 0.47 0.06 0.57 0.07 0.56 0.1 0.87 0.06 0.55 0.07 0.62 0.12 0.94 0.07 0.65 0.09 0.67 0.08 0.66 0.11 0.81 0 -0.01zm24.6 45.08l-57.06 85.54 0.17 0.11 -3.64 -2.48 -3.52 -2.54 -3.49 -2.67 -3.4 -2.77 -3.33 -2.86 -3.29 -3.01 -3.11 -3.02 -3.02 -3.1 -2.98 -3.24 -2.88 -3.32 -2.78 -3.41 -2.68 -3.49 -2.56 -3.55 -2.43 -3.58 -2.38 -3.7 -2.26 -3.78 -2.15 -3.84 -2.04 -3.9 -1.91 -3.88 -1.81 -3.96 -1.73 -4.06 -1.61 -4.08 -1.52 -4.14 -1.42 -4.22 -1.28 -4.15 -1.21 -4.25 -1.1 -4.3 -1 -4.27 -0.92 -4.38 -0.82 -4.4 -0.72 -4.36 -0.64 -4.46 101.92 -13.56 0.34 2.32 0.38 2.32 0.4 2.16 0.44 2.08 0.48 2.07 0.5 1.92 0.53 1.87 0.58 1.87 0.56 1.68 0.6 1.64 0.63 1.6 0.65 1.52 0.69 1.5 0.71 1.46 0.7 1.34 0.73 1.28 0.74 1.24 0.76 1.2 0.83 1.22 0.82 1.13 0.82 1.07 0.86 1.05 0.88 1.02 0.92 1 1 1.02 1.03 1 0.97 0.89 1.07 0.92 1.12 0.91 1.17 0.89 1.26 0.92 1.26 0.86 0.17 0.11zm67.35 9.74l13.56 101.92 0.01 0 -4.74 0.59 -4.66 0.51 -4.64 0.44 -4.68 0.35 -4.65 0.28 -4.65 0.19 -4.54 0.1 -4.53 0.02 -4.58 -0.06 -4.54 -0.16 -4.47 -0.24 -4.44 -0.33 -4.55 -0.43 -4.4 -0.53 -4.37 -0.6 -4.42 -0.72 -4.39 -0.82 -4.37 -0.93 -4.17 -0.98 -4.3 -1.12 -4.29 -1.24 -4.14 -1.31 -4.16 -1.43 -4.18 -1.56 -4.05 -1.64 -4.02 -1.74 -4.04 -1.89 -3.87 -1.95 -3.84 -2.04 -3.86 -2.21 -3.77 -2.3 -3.67 -2.37 57.06 -85.54 1.31 0.85 1.31 0.8 1.3 0.73 1.44 0.78 1.47 0.73 1.42 0.67 1.52 0.66 1.57 0.64 1.56 0.58 1.66 0.57 1.76 0.55 1.71 0.5 1.8 0.46 2.01 0.48 1.91 0.41 1.99 0.36 2.04 0.34 2.19 0.3 2.26 0.27 2.19 0.21 2.38 0.17 2.47 0.14 2.46 0.08 2.54 0.04 2.67 -0.02 2.74 -0.06 2.75 -0.11 2.81 -0.16 2.9 -0.23 3.02 -0.28 3.08 -0.33 3.1 -0.39 0.01 0zm82.92 -38.19l75.3 70.02 0.1 -0.11 -3.47 3.66 -3.5 3.53 -3.67 3.52 -3.72 3.38 -3.72 3.24 -3.9 3.24 -4 3.14 -4 3 -4.1 2.92 -4.16 2.81 -4.21 2.71 -4.36 2.66 -4.36 2.51 -4.4 2.42 -4.59 2.37 -4.53 2.21 -4.55 2.11 -4.71 2.06 -4.77 1.95 -4.8 1.85 -4.82 1.74 -4.85 1.64 -4.96 1.57 -5.02 1.47 -5.06 1.38 -5.05 1.27 -5.1 1.19 -5.22 1.11 -5.19 1.01 -5.29 0.94 -5.34 0.84 -5.34 0.75 -13.56 -101.92 3.7 -0.53 3.56 -0.56 3.49 -0.62 3.47 -0.67 3.32 -0.71 3.3 -0.77 3.23 -0.81 3.1 -0.84 3.02 -0.89 2.94 -0.93 2.95 -1 2.84 -1.02 2.74 -1.05 2.65 -1.09 2.57 -1.12 2.61 -1.21 2.53 -1.23 2.33 -1.21 2.4 -1.32 2.32 -1.33 2.18 -1.34 2.23 -1.43 2.14 -1.45 2.08 -1.48 2.06 -1.54 1.96 -1.54 1.9 -1.58 1.98 -1.72 1.86 -1.7 1.79 -1.72 1.82 -1.83 1.75 -1.84 0.1 -0.11zm28.62 -80.36l102.82 1.3 -0.01 0.27 -0.14 5.28 -0.23 5.3 -0.35 5.26 -0.42 5.12 -0.53 5.2 -0.64 5.17 -0.72 5.09 -0.84 5.09 -0.94 5.06 -1.05 4.99 -1.15 4.98 -1.27 4.96 -1.34 4.8 -1.47 4.87 -1.58 4.8 -1.7 4.78 -1.82 4.75 -1.87 4.56 -2.04 4.65 -2.14 4.56 -2.23 4.48 -2.38 4.48 -2.44 4.33 -2.54 4.28 -2.69 4.28 -2.8 4.18 -2.88 4.11 -3 4.04 -3.06 3.93 -3.19 3.88 -3.29 3.81 -3.39 3.74 -75.3 -70.02 1.69 -1.86 1.61 -1.87 1.57 -1.92 1.54 -1.97 1.46 -1.96 1.4 -1.99 1.34 -2.02 1.27 -2.02 1.28 -2.14 1.22 -2.17 1.14 -2.14 1.11 -2.24 1.06 -2.24 0.98 -2.27 1.01 -2.46 0.92 -2.37 0.86 -2.46 0.84 -2.52 0.77 -2.55 0.76 -2.72 0.69 -2.68 0.63 -2.74 0.59 -2.85 0.54 -2.88 0.48 -2.93 0.44 -3.05 0.38 -3.07 0.31 -3.14 0.28 -3.32 0.21 -3.28 0.15 -3.34 0.1 -3.46 -0.01 0.27zm108.29 -432.29l-5.47 433.59 -102.82 -1.3 5.47 -433.59 44.64 -50.31 58.18 51.61zm-102.82 -1.3c0.35,-28.39 23.67,-51.11 52.06,-50.76 28.39,0.35 51.11,23.67 50.76,52.06l-102.82 -1.3zm144.16 40.18l-85.98 11.43 -13.54 -101.92 85.98 -11.43 58.17 51.97 -44.63 49.95zm-13.54 -101.92c28.14,-3.74 54,16.04 57.73,44.18 3.73,28.14 -16.05,54 -44.19,57.74l-13.54 -101.92zm-53.55 505.56l8.92 -455.61 102.8 2.02 -8.92 455.61 -102.81 -1.8 0.01 -0.22zm26.81 198.78l-75.28 -70.04 0.15 -0.16 2.91 -3.17 2.82 -3.24 2.73 -3.28 2.63 -3.31 2.53 -3.36 2.42 -3.36 2.33 -3.44 2.27 -3.52 2.15 -3.49 2.03 -3.54 2 -3.66 1.9 -3.68 1.78 -3.7 1.72 -3.79 1.63 -3.84 1.54 -3.91 1.48 -3.98 1.36 -3.99 1.28 -4.08 1.22 -4.22 1.12 -4.21 1.03 -4.3 0.95 -4.39 0.85 -4.42 0.78 -4.57 0.69 -4.61 0.59 -4.64 0.5 -4.78 0.41 -4.85 0.31 -4.93 0.23 -5.01 0.12 -5.09 102.82 1.58 -0.18 7.07 -0.31 7.03 -0.45 6.97 -0.59 6.93 -0.72 6.88 -0.87 6.88 -1.01 6.79 -1.14 6.69 -1.29 6.72 -1.45 6.63 -1.57 6.58 -1.74 6.55 -1.86 6.42 -2.02 6.42 -2.18 6.37 -2.3 6.26 -2.46 6.21 -2.61 6.14 -2.74 6.07 -2.92 6.02 -3.04 5.92 -3.16 5.8 -3.35 5.8 -3.49 5.71 -3.59 5.56 -3.75 5.5 -3.9 5.46 -4.03 5.32 -4.15 5.25 -4.29 5.14 -4.42 5.06 -4.57 4.99 0.15 -0.16zm-193.68 94.56l-13.56 -101.92 0 0 5.48 -0.78 5.38 -0.86 5.27 -0.93 5.14 -1.02 5.1 -1.1 5.03 -1.19 4.87 -1.24 4.8 -1.34 4.75 -1.42 4.59 -1.47 4.53 -1.56 4.44 -1.63 4.33 -1.69 4.29 -1.8 4.19 -1.85 4.07 -1.91 4.06 -2.02 3.93 -2.06 3.83 -2.12 3.8 -2.22 3.7 -2.28 3.64 -2.37 3.58 -2.44 3.49 -2.49 3.41 -2.58 3.37 -2.66 3.31 -2.75 3.25 -2.82 3.19 -2.91 3.08 -2.94 3.04 -3.06 3.02 -3.17 75.28 70.04 -4.62 4.85 -4.76 4.78 -4.9 4.68 -4.95 4.51 -5.05 4.4 -5.15 4.27 -5.25 4.16 -5.37 4.04 -5.47 3.93 -5.54 3.78 -5.64 3.65 -5.74 3.54 -5.82 3.4 -5.93 3.3 -6.01 3.14 -6.04 3 -6.19 2.91 -6.23 2.75 -6.29 2.62 -6.43 2.53 -6.46 2.37 -6.55 2.26 -6.65 2.13 -6.65 1.98 -6.76 1.88 -6.87 1.76 -6.85 1.61 -6.96 1.52 -7.06 1.38 -7.11 1.27 -7.16 1.14 -7.22 1.02 0 0zm-204.16 -40.46l57.98 -84.92 0 0 3.07 2.04 3.09 1.93 3.14 1.85 3.25 1.8 3.27 1.71 3.28 1.59 3.37 1.53 3.44 1.45 3.52 1.38 3.57 1.3 3.64 1.22 3.73 1.14 3.78 1.05 3.89 0.99 3.95 0.89 4.02 0.82 4.13 0.73 4.2 0.65 4.25 0.56 4.38 0.47 4.51 0.39 4.55 0.29 4.61 0.21 4.74 0.1 4.83 0.02 4.93 -0.08 5.01 -0.18 5.11 -0.28 5.21 -0.37 5.29 -0.48 5.38 -0.58 5.48 -0.68 13.56 101.92 -7.18 0.9 -7.12 0.76 -7.09 0.64 -7.03 0.51 -6.99 0.38 -6.95 0.24 -6.91 0.12 -6.85 -0.02 -6.82 -0.16 -6.81 -0.29 -6.73 -0.45 -6.63 -0.57 -6.62 -0.71 -6.63 -0.86 -6.52 -1.01 -6.47 -1.15 -6.44 -1.3 -6.35 -1.45 -6.31 -1.59 -6.26 -1.75 -6.17 -1.9 -6.14 -2.04 -6.05 -2.2 -5.98 -2.34 -5.92 -2.51 -5.85 -2.65 -5.8 -2.83 -5.67 -2.95 -5.57 -3.08 -5.52 -3.25 -5.45 -3.41 -5.33 -3.54 0 0zm-100.64 -171.6l101.94 -13.5 -0.01 -0.03 0.65 4.51 0.74 4.45 0.81 4.34 0.88 4.18 0.97 4.12 1.04 4.01 1.1 3.89 1.18 3.78 1.23 3.66 1.32 3.59 1.39 3.52 1.47 3.42 1.52 3.34 1.55 3.17 1.64 3.11 1.73 3.08 1.77 2.98 1.86 2.92 1.91 2.83 1.95 2.72 2.05 2.68 2.15 2.65 2.19 2.57 2.28 2.5 2.37 2.47 2.41 2.38 2.49 2.31 2.64 2.32 2.76 2.29 2.76 2.18 2.87 2.12 3.01 2.12 -57.98 84.92 -5.21 -3.66 -5.15 -3.82 -5.02 -3.96 -4.82 -4.01 -4.74 -4.16 -4.67 -4.33 -4.53 -4.46 -4.35 -4.53 -4.24 -4.68 -4.11 -4.79 -3.95 -4.89 -3.83 -5.02 -3.71 -5.16 -3.53 -5.23 -3.38 -5.32 -3.25 -5.42 -3.09 -5.52 -2.96 -5.63 -2.83 -5.77 -2.64 -5.78 -2.49 -5.86 -2.35 -5.94 -2.22 -6.03 -2.09 -6.16 -1.92 -6.2 -1.78 -6.25 -1.64 -6.33 -1.49 -6.38 -1.38 -6.5 -1.21 -6.52 -1.1 -6.57 -0.95 -6.69 -0.01 -0.03zm-2.28 -44.45l102.82 0.98 0 0.01 -0.01 1.23 -0.01 1.16 0 1.14 0 1.11 0.01 1.11 0.01 1.09 0.02 1.07 0.02 1.25 0.01 1.05 0.03 1.02 0.02 1.01 0.03 0.99 0.04 0.97 0.04 0.95 0.05 1.16 0.03 0.93 0.04 0.68 0.06 0.9 0.06 1.09 0.06 0.84 0.06 0.84 0.07 1.07 0.06 0.79 0.05 0.55 0.07 0.78 0.1 0.98 0.07 0.74 0.08 0.73 0.07 0.68 0.08 0.65 0.08 0.67 0.1 0.73 -101.94 13.5 -0.16 -1.23 -0.16 -1.29 -0.16 -1.35 -0.15 -1.34 -0.14 -1.33 -0.13 -1.32 -0.1 -1.12 -0.13 -1.34 -0.13 -1.59 -0.1 -1.37 -0.09 -1.13 -0.1 -1.36 -0.08 -1.4 -0.08 -1.17 -0.08 -1.4 -0.08 -1.62 -0.07 -1.41 -0.05 -1.2 -0.06 -1.43 -0.04 -1.43 -0.05 -1.45 -0.04 -1.45 -0.03 -1.46 -0.03 -1.47 -0.02 -1.27 -0.02 -1.49 -0.01 -1.49 -0.01 -1.51 0 -1.51 0 -1.52 0.01 -1.54 0.01 -1.47 0 0.01zm106.94 -427.25l-4.12 428.23 -102.82 -0.98 4.12 -428.23 44.63 -50.47 58.19 51.45zm-102.82 -0.98c0.27,-28.39 23.51,-51.19 51.9,-50.92 28.39,0.27 51.19,23.51 50.92,51.9l-102.82 -0.98zm1004.92 19.32l14.21 -103.37 101.86 14 -14.21 103.37 -83.26 32.98 -18.6 -46.98zm101.86 14c-3.86,28.12 -29.81,47.79 -57.93,43.93 -28.12,-3.86 -47.79,-29.81 -43.93,-57.93l101.86 14zm-246.41 -18.18l-13.56 -101.92 0 0 8 -0.97 8.03 -0.75 8.03 -0.55 7.98 -0.32 7.97 -0.12 8 0.1 7.93 0.31 7.92 0.52 7.93 0.74 7.91 0.97 7.84 1.17 7.81 1.38 7.81 1.61 7.76 1.83 7.68 2.03 7.65 2.23 7.64 2.46 7.54 2.65 7.53 2.86 7.47 3.09 7.36 3.24 7.36 3.47 7.31 3.67 7.23 3.86 7.18 4.06 7.09 4.24 7.04 4.42 7 4.62 6.94 4.81 6.86 4.98 6.82 5.16 6.75 5.35 -64.66 79.96 -5.09 -4.03 -5.08 -3.86 -5.1 -3.7 -5.06 -3.51 -5.06 -3.34 -5.06 -3.18 -5.07 -3.02 -5.02 -2.84 -5.03 -2.68 -5.01 -2.53 -5 -2.35 -5.06 -2.24 -4.99 -2.05 -4.99 -1.9 -5.02 -1.77 -4.98 -1.6 -5.03 -1.47 -5.04 -1.33 -5 -1.17 -5.01 -1.03 -5.07 -0.9 -5.08 -0.77 -5.07 -0.61 -5.09 -0.48 -5.16 -0.34 -5.19 -0.21 -5.18 -0.06 -5.25 0.08 -5.3 0.22 -5.29 0.35 -5.35 0.51 -5.42 0.65 0 0zm-137.16 77.22l-81.44 -62.76 0 0 4.75 -6.02 4.87 -5.89 5 -5.75 5.09 -5.59 5.23 -5.47 5.34 -5.32 5.47 -5.18 5.59 -5.03 5.69 -4.87 5.79 -4.7 5.92 -4.57 6.06 -4.42 6.12 -4.23 6.2 -4.07 6.36 -3.94 6.49 -3.77 6.54 -3.59 6.64 -3.43 6.73 -3.26 6.81 -3.08 6.93 -2.94 7.02 -2.76 7.11 -2.61 7.16 -2.41 7.22 -2.26 7.4 -2.11 7.37 -1.91 7.46 -1.77 7.61 -1.61 7.61 -1.43 7.68 -1.27 7.78 -1.12 13.56 101.92 -5.58 0.8 -5.52 0.93 -5.41 1.01 -5.23 1.11 -5.2 1.23 -5.13 1.33 -4.94 1.41 -4.92 1.54 -4.84 1.63 -4.69 1.71 -4.62 1.82 -4.53 1.92 -4.49 2.04 -4.39 2.12 -4.3 2.21 -4.24 2.33 -4.13 2.41 -4.06 2.52 -4.06 2.65 -3.98 2.75 -3.86 2.82 -3.82 2.95 -3.79 3.08 -3.71 3.17 -3.65 3.29 -3.59 3.4 -3.54 3.52 -3.49 3.65 -3.45 3.79 -3.38 3.89 -3.33 4.03 -3.29 4.16 0 0zm-39.26 150.17l-101.92 13.56 0 0 -0.94 -7.69 -0.77 -7.68 -0.59 -7.68 -0.42 -7.62 -0.23 -7.64 -0.05 -7.57 0.12 -7.55 0.31 -7.55 0.49 -7.49 0.68 -7.44 0.86 -7.46 1.05 -7.37 1.23 -7.33 1.43 -7.33 1.6 -7.23 1.8 -7.23 1.99 -7.14 2.15 -7.09 2.35 -7.02 2.52 -6.97 2.73 -6.96 2.91 -6.87 3.07 -6.75 3.24 -6.72 3.45 -6.68 3.6 -6.56 3.77 -6.49 3.95 -6.44 4.12 -6.36 4.26 -6.25 4.43 -6.19 4.63 -6.14 81.44 62.76 -3.17 4.22 -3.05 4.27 -2.94 4.29 -2.76 4.26 -2.63 4.28 -2.51 4.33 -2.38 4.34 -2.23 4.32 -2.12 4.38 -2.01 4.43 -1.85 4.39 -1.73 4.4 -1.62 4.49 -1.51 4.52 -1.39 4.55 -1.27 4.58 -1.14 4.59 -1.04 4.67 -0.91 4.67 -0.79 4.75 -0.69 4.81 -0.56 4.82 -0.44 4.92 -0.33 4.97 -0.21 4.99 -0.08 5.09 0.03 5.15 0.17 5.18 0.28 5.28 0.41 5.32 0.55 5.42 0.66 5.49 0 0zm72.5 129.75l-63.66 80.74 -0.08 -0.06 -5.74 -4.64 -5.57 -4.74 -5.44 -4.83 -5.33 -4.97 -5.2 -5.07 -5.06 -5.19 -4.9 -5.26 -4.78 -5.4 -4.66 -5.52 -4.47 -5.6 -4.32 -5.67 -4.19 -5.82 -4.05 -5.91 -3.88 -6.01 -3.74 -6.1 -3.58 -6.21 -3.4 -6.23 -3.27 -6.37 -3.12 -6.5 -2.96 -6.57 -2.77 -6.6 -2.63 -6.71 -2.46 -6.76 -2.31 -6.84 -2.16 -6.92 -2.01 -7.04 -1.83 -7.07 -1.68 -7.13 -1.53 -7.22 -1.37 -7.26 -1.21 -7.32 -1.06 -7.39 101.92 -13.56 0.76 5.21 0.85 5.14 0.95 5.04 1.03 4.92 1.16 4.87 1.23 4.77 1.33 4.64 1.42 4.6 1.53 4.52 1.62 4.46 1.71 4.35 1.81 4.3 1.88 4.19 1.98 4.1 2.09 4.07 2.2 4.05 2.26 3.93 2.38 3.88 2.46 3.81 2.57 3.75 2.67 3.7 2.8 3.67 2.89 3.62 2.96 3.52 3.1 3.5 3.22 3.46 3.32 3.41 3.44 3.35 3.55 3.31 3.7 3.27 3.81 3.24 3.9 3.16 -0.08 -0.06zm138.7 37.78l13.54 101.92 0.02 0 -7.33 0.89 -7.3 0.73 -7.33 0.55 -7.26 0.37 -7.2 0.2 -7.26 0.04 -7.24 -0.16 -7.13 -0.32 -7.19 -0.51 -7.1 -0.69 -7.07 -0.86 -7.09 -1.07 -6.99 -1.23 -6.97 -1.42 -6.92 -1.59 -6.86 -1.78 -6.81 -1.95 -6.81 -2.15 -6.72 -2.32 -6.64 -2.49 -6.63 -2.68 -6.54 -2.86 -6.44 -3 -6.4 -3.19 -6.36 -3.37 -6.25 -3.53 -6.17 -3.67 -6.16 -3.88 -6.07 -4.03 -5.94 -4.16 -5.91 -4.33 -5.83 -4.5 63.66 -80.74 3.97 3.06 3.97 2.91 4.04 2.82 3.97 2.65 3.98 2.5 4.05 2.41 4.03 2.27 4.02 2.13 4.08 2.03 4.1 1.92 4.08 1.78 4.09 1.66 4.14 1.55 4.16 1.44 4.15 1.31 4.23 1.21 4.26 1.1 4.28 0.99 4.33 0.88 4.37 0.77 4.37 0.65 4.47 0.54 4.5 0.45 4.51 0.31 4.67 0.22 4.62 0.1 4.68 -0.02 4.84 -0.14 4.84 -0.25 4.87 -0.37 4.98 -0.49 5.03 -0.61 0.02 0zm217.91 -20.8l-102.82 -0.46 82.38 41.27 -5.59 4.17 -5.59 4.06 -5.61 3.97 -5.63 3.88 -5.63 3.77 -5.63 3.67 -5.64 3.57 -5.67 3.48 -5.65 3.36 -5.68 3.27 -5.68 3.16 -5.68 3.06 -5.71 2.96 -5.73 2.86 -5.73 2.75 -5.75 2.65 -5.75 2.53 -5.75 2.42 -5.78 2.33 -5.8 2.22 -5.8 2.1 -5.81 1.99 -5.81 1.88 -5.85 1.78 -5.84 1.66 -5.84 1.54 -5.92 1.44 -5.87 1.31 -5.82 1.18 -5.88 1.08 -5.91 0.97 -5.9 0.84 -13.54 -101.92 3.86 -0.56 3.89 -0.63 3.9 -0.72 4 -0.82 3.95 -0.87 3.92 -0.96 4 -1.06 4.04 -1.14 4.03 -1.22 4.07 -1.32 4.11 -1.41 4.12 -1.5 4.14 -1.58 4.16 -1.67 4.21 -1.78 4.23 -1.87 4.25 -1.95 4.27 -2.05 4.29 -2.14 4.31 -2.24 4.36 -2.34 4.38 -2.44 4.4 -2.53 4.43 -2.64 4.45 -2.72 4.46 -2.83 4.51 -2.93 4.51 -3.03 4.53 -3.12 4.55 -3.23 4.59 -3.34 4.61 -3.43 82.38 41.27zm-82.38 -41.27c22.66,-17.1 54.91,-12.59 72.01,10.07 17.1,22.66 12.59,54.91 -10.07,72.01l-61.94 -82.08zm-20.91 147.53l0.47 -106.72 102.82 0.46 -0.47 106.72 -24.46 43.55 -78.36 -44.01zm102.82 0.46c-0.12,28.39 -23.25,51.3 -51.64,51.18 -28.39,-0.12 -51.3,-23.25 -51.18,-51.64l102.82 0.46zm-188.28 106.09l-13.56 -101.92 0 0 3.47 -0.5 3.52 -0.55 3.43 -0.59 3.56 -0.69 3.58 -0.73 3.57 -0.8 3.6 -0.85 3.66 -0.94 3.68 -0.99 3.66 -1.05 3.76 -1.13 3.72 -1.17 3.74 -1.25 3.8 -1.32 3.87 -1.41 3.84 -1.44 3.85 -1.51 3.91 -1.6 3.89 -1.64 3.98 -1.75 4.03 -1.82 3.98 -1.85 3.99 -1.92 4.09 -2.03 4.09 -2.08 4.09 -2.15 4.12 -2.22 4.12 -2.28 4.22 -2.4 4.19 -2.42 4.22 -2.52 4.25 -2.58 53.9 87.56 -5.13 3.12 -5.14 3.06 -5.13 2.98 -5.08 2.88 -5.16 2.86 -5.14 2.76 -5.13 2.69 -5.11 2.6 -5.09 2.53 -5.15 2.48 -5.16 2.41 -5.07 2.28 -5.08 2.23 -5.15 2.18 -5.11 2.08 -5.15 2.03 -5.14 1.94 -5.07 1.83 -5.1 1.78 -5.16 1.71 -5.14 1.63 -5.08 1.53 -5.14 1.47 -5.1 1.37 -5.1 1.3 -5.14 1.23 -5.13 1.14 -5.08 1.05 -5.1 0.97 -5.19 0.91 -5.08 0.79 -5.09 0.72 0 0zm-286.64 -73.92l62.6 -81.58 -0.01 0 5.8 4.35 5.8 4.13 5.88 3.97 5.9 3.8 5.91 3.59 6.01 3.45 5.99 3.26 6.01 3.06 6.09 2.91 6.14 2.74 6.19 2.57 6.23 2.41 6.25 2.23 6.34 2.08 6.37 1.9 6.43 1.74 6.53 1.58 6.58 1.42 6.62 1.25 6.7 1.09 6.76 0.93 6.88 0.76 6.94 0.6 7 0.43 7.07 0.26 7.17 0.1 7.27 -0.08 7.37 -0.24 7.42 -0.42 7.51 -0.59 7.63 -0.77 7.7 -0.93 13.56 101.92 -9.88 1.21 -9.81 0.99 -9.81 0.77 -9.76 0.54 -9.69 0.32 -9.63 0.1 -9.63 -0.12 -9.57 -0.36 -9.52 -0.59 -9.44 -0.82 -9.38 -1.04 -9.36 -1.27 -9.3 -1.51 -9.24 -1.75 -9.14 -1.98 -9.07 -2.2 -9.03 -2.44 -8.97 -2.68 -8.86 -2.9 -8.81 -3.13 -8.71 -3.37 -8.63 -3.59 -8.54 -3.82 -8.45 -4.03 -8.41 -4.28 -8.29 -4.5 -8.15 -4.69 -8.11 -4.93 -8 -5.14 -7.9 -5.35 -7.84 -5.59 -7.7 -5.77 -0.01 0zm-145.96 -258.14l101.92 -13.56 0 0 1.11 7.73 1.26 7.57 1.39 7.44 1.56 7.35 1.69 7.22 1.83 7.05 1.96 6.92 2.13 6.84 2.25 6.72 2.37 6.51 2.54 6.48 2.67 6.35 2.79 6.19 2.96 6.13 3.09 6.02 3.21 5.88 3.36 5.78 3.51 5.7 3.66 5.62 3.8 5.5 3.93 5.4 4.08 5.31 4.23 5.22 4.39 5.13 4.55 5.05 4.69 4.95 4.88 4.89 5.03 4.81 5.18 4.72 5.34 4.63 5.51 4.55 5.69 4.46 -62.6 81.58 -7.57 -5.96 -7.41 -6.11 -7.24 -6.27 -7.04 -6.4 -6.85 -6.55 -6.66 -6.69 -6.49 -6.85 -6.29 -6.99 -6.11 -7.15 -5.91 -7.28 -5.72 -7.43 -5.51 -7.56 -5.3 -7.7 -5.1 -7.82 -4.91 -7.96 -4.7 -8.1 -4.51 -8.24 -4.27 -8.34 -4.08 -8.45 -3.89 -8.63 -3.65 -8.69 -3.46 -8.8 -3.27 -8.99 -3.03 -9.04 -2.83 -9.12 -2.64 -9.28 -2.43 -9.39 -2.21 -9.46 -2.02 -9.55 -1.83 -9.68 -1.62 -9.79 -1.41 -9.87 0 0zm78.62 -297.34l80.86 63.52 0.04 -0.05 -4.64 6.06 -4.44 6.1 -4.24 6.13 -4.06 6.2 -3.86 6.19 -3.66 6.25 -3.49 6.3 -3.3 6.33 -3.12 6.38 -2.93 6.42 -2.75 6.47 -2.58 6.51 -2.39 6.57 -2.22 6.61 -2.04 6.69 -1.87 6.78 -1.71 6.8 -1.51 6.85 -1.35 6.97 -1.18 7.04 -1 7.06 -0.83 7.16 -0.65 7.29 -0.48 7.33 -0.3 7.38 -0.11 7.5 0.06 7.61 0.24 7.68 0.43 7.8 0.6 7.86 0.8 7.92 0.98 8.07 -101.92 13.56 -1.26 -10.25 -1.02 -10.24 -0.78 -10.18 -0.55 -10.1 -0.32 -10.08 -0.08 -10.01 0.15 -9.98 0.4 -9.96 0.64 -9.87 0.89 -9.79 1.11 -9.76 1.38 -9.74 1.62 -9.6 1.85 -9.55 2.11 -9.53 2.35 -9.44 2.59 -9.32 2.84 -9.29 3.08 -9.21 3.33 -9.13 3.56 -9.03 3.81 -8.95 4.05 -8.86 4.28 -8.76 4.52 -8.69 4.75 -8.56 4.98 -8.49 5.22 -8.39 5.42 -8.26 5.66 -8.19 5.9 -8.1 6.1 -7.98 0.04 -0.05zm271.88 -151l13.58 101.92 -0.01 0 -8.28 1.19 -8.17 1.35 -8 1.49 -7.84 1.64 -7.76 1.8 -7.61 1.95 -7.44 2.09 -7.34 2.24 -7.21 2.39 -7.07 2.54 -6.96 2.68 -6.82 2.83 -6.72 2.97 -6.57 3.11 -6.49 3.28 -6.37 3.41 -6.22 3.55 -6.15 3.72 -6.04 3.85 -5.91 4 -5.83 4.16 -5.73 4.32 -5.61 4.46 -5.54 4.64 -5.44 4.78 -5.34 4.95 -5.23 5.1 -5.16 5.29 -5.09 5.46 -4.97 5.61 -4.88 5.78 -4.8 5.97 -80.86 -63.52 6.3 -7.83 6.48 -7.68 6.63 -7.47 6.75 -7.26 6.92 -7.09 7.09 -6.9 7.24 -6.71 7.38 -6.5 7.52 -6.3 7.69 -6.1 7.83 -5.9 7.95 -5.68 8.13 -5.5 8.24 -5.27 8.37 -5.06 8.56 -4.87 8.65 -4.63 8.75 -4.42 8.93 -4.23 9.04 -4.01 9.16 -3.79 9.28 -3.58 9.39 -3.36 9.51 -3.15 9.64 -2.96 9.76 -2.73 9.83 -2.51 9.94 -2.32 10.1 -2.12 10.18 -1.89 10.27 -1.69 10.38 -1.49 -0.01 0zm278.78 108.28l-101.86 -14 25.1 51.46 -6.24 -3.57 -6.21 -3.4 -6.19 -3.26 -6.14 -3.09 -6.15 -2.96 -6.11 -2.82 -6.07 -2.66 -6.07 -2.53 -6.02 -2.37 -6.01 -2.24 -5.97 -2.09 -5.91 -1.94 -5.94 -1.8 -5.94 -1.69 -5.88 -1.54 -5.85 -1.39 -5.8 -1.26 -5.82 -1.13 -5.82 -1 -5.75 -0.86 -5.76 -0.73 -5.79 -0.6 -5.73 -0.48 -5.69 -0.34 -5.71 -0.2 -5.71 -0.09 -5.7 0.05 -5.7 0.18 -5.69 0.3 -5.69 0.44 -5.69 0.56 -5.69 0.69 -13.58 -101.92 7.99 -0.97 7.99 -0.8 8.01 -0.6 8.01 -0.44 8.02 -0.24 8.02 -0.07 8.03 0.11 8.03 0.3 8.05 0.48 8.03 0.66 7.99 0.84 8 1.01 8.05 1.2 7.96 1.38 7.98 1.53 8.02 1.74 7.97 1.91 7.94 2.08 7.9 2.23 7.92 2.42 7.95 2.6 7.89 2.77 7.87 2.92 7.86 3.11 7.81 3.25 7.83 3.42 7.81 3.6 7.77 3.74 7.78 3.93 7.75 4.08 7.73 4.24 7.72 4.39 25.1 51.46zm-25.1 -51.46c24.55,14.26 32.89,45.74 18.63,70.29 -14.26,24.55 -45.74,32.89 -70.29,18.63l51.66 -88.92zm129.87 17.62l-84.28 11.21 -13.56 -101.92 84.28 -11.21 58.19 51.57 -44.63 50.35zm-13.56 -101.92c28.14,-3.74 54,16.04 57.74,44.18 3.74,28.14 -16.04,54 -44.18,57.74l-13.56 -101.92zm-47.67 306.36l3.04 -256.01 102.82 1.22 -3.04 256.01 -10.78 30.89 -92.04 -32.11zm102.82 1.22c-0.33,28.39 -23.63,51.13 -52.02,50.8 -28.39,-0.33 -51.13,-23.63 -50.8,-52.02l102.82 1.22zm210.19 -254.12l-220.97 285.01 -81.26 -63 220.97 -285.01 33.85 -19.46 47.41 82.46zm-81.26 -63c17.39,-22.43 49.7,-26.52 72.13,-9.13 22.43,17.39 26.52,49.7 9.13,72.13l-81.26 -63zm166.12 66.67l-118.71 15.79 -13.56 -101.92 118.71 -15.79 47.5 82.34 -33.94 19.58zm-13.56 -101.92c28.14,-3.74 54,16.04 57.74,44.18 3.74,28.14 -16.04,54 -44.18,57.74l-13.56 -101.92zm-291.65 354l257.71 -334.42 81.44 62.76 -257.71 334.42 -75.53 6.46 -5.91 -69.22zm81.44 62.76c-17.33,22.48 -49.62,26.67 -72.1,9.34 -22.48,-17.33 -26.67,-49.62 -9.34,-72.1l81.44 62.76zm251.13 306.97l-326.66 -300.51 69.62 -75.68 326.66 300.51 -28.03 88.8 -41.59 -13.12zm69.62 -75.68c20.89,19.22 22.25,51.76 3.03,72.65 -19.22,20.89 -51.76,22.25 -72.65,3.03l69.62 -75.68zm-150.98 1.44l109.39 -14.56 13.56 101.92 -109.39 14.56 -41.58 -13.11 28.02 -88.81zm13.56 101.92c-28.14,3.74 -54,-16.04 -57.74,-44.18 -3.74,-28.14 16.04,-54 44.18,-57.74l13.56 101.92zm-272.06 -364.73l300.08 275.92 -69.6 75.7 -300.08 -275.92 -16.61 -38.47 86.21 -37.23zm-69.6 75.7c-20.9,-19.21 -22.26,-51.75 -3.05,-72.65 19.21,-20.9 51.75,-22.26 72.65,-3.05l-69.6 75.7zm-20.44 277.88l3.83 -316.35 102.82 1.24 -3.83 316.35 -44.63 50.34 -58.19 -51.58zm102.82 1.24c-0.34,28.39 -23.64,51.13 -52.03,50.79 -28.39,-0.34 -51.13,-23.64 -50.79,-52.03l102.82 1.24zm-142.47 -40.36l84.28 -11.22 13.56 101.92 -84.28 11.22 -58.19 -51.57 44.63 -50.35zm13.56 101.92c-28.14,3.74 -54,-16.04 -57.74,-44.18 -3.74,-28.14 16.04,-54 44.18,-57.74l13.56 101.92zm52.34 -695.49l-7.71 645.14 -102.82 -1.22 7.71 -645.14 44.63 -50.35 58.19 51.57zm-102.82 -1.22c0.33,-28.39 23.63,-51.13 52.02,-50.8 28.39,0.33 51.13,23.63 50.8,52.02l-102.82 -1.22zm845.91 -53.24l-351.05 46.71 -13.56 -101.92 351.05 -46.71 57.74 44.18 -44.18 57.74zm-13.56 -101.92c28.14,-3.74 54,16.04 57.74,44.18 3.74,28.14 -16.04,54 -44.18,57.74l-13.56 -101.92zm-32.67 144.23l-11.51 -86.49 101.92 -13.56 11.51 86.49 -44.18 57.74 -57.74 -44.18zm101.92 -13.56c3.74,28.14 -16.04,54 -44.18,57.74 -28.14,3.74 -54,-16.04 -57.74,-44.18l101.92 -13.56zm-322.3 -8.98l264.56 -35.2 13.56 101.92 -264.56 35.2 -57.74 -44.18 44.18 -57.74zm13.56 101.92c-28.14,3.74 -54,-16.04 -57.74,-44.18 -3.74,-28.14 16.04,-54 44.18,-57.74l13.56 101.92zm-36.89 112.52l-20.85 -156.7 101.92 -13.56 20.85 156.7 -44.18 57.74 -57.74 -44.18zm101.92 -13.56c3.74,28.14 -16.04,54 -44.18,57.74 -28.14,3.74 -54,-16.04 -57.74,-44.18l101.92 -13.56zm220.37 22.55l-264.55 35.19 -13.56 -101.92 264.55 -35.19 57.74 44.18 -44.18 57.74zm-13.56 -101.92c28.14,-3.74 54,16.04 57.74,44.18 3.74,28.14 -16.04,54 -44.18,57.74l-13.56 -101.92zm-32.67 144.22l-11.51 -86.48 101.92 -13.56 11.51 86.48 -44.18 57.74 -57.74 -44.18zm101.92 -13.56c3.74,28.14 -16.04,54 -44.18,57.74 -28.14,3.74 -54,-16.04 -57.74,-44.18l101.92 -13.56zm-322.3 -8.98l264.56 -35.2 13.56 101.92 -264.56 35.2 -57.74 -44.18 44.18 -57.74zm13.56 101.92c-28.14,3.74 -54,-16.04 -57.74,-44.18 -3.74,-28.14 16.04,-54 44.18,-57.74l13.56 101.92zm-28.9 172.56l-28.84 -216.74 101.92 -13.56 28.84 216.74 -44.18 57.74 -57.74 -44.18zm101.92 -13.56c3.74,28.14 -16.04,54 -44.18,57.74 -28.14,3.74 -54,-16.04 -57.74,-44.18l101.92 -13.56zm220.38 22.54l-264.56 35.2 -13.56 -101.92 264.56 -35.2 57.74 44.18 -44.18 57.74zm-13.56 -101.92c28.14,-3.74 54,16.04 57.74,44.18 3.74,28.14 -16.04,54 -44.18,57.74l-13.56 -101.92zm-32.67 144.23l-11.51 -86.49 101.92 -13.56 11.51 86.49 -44.18 57.74 -57.74 -44.18zm101.92 -13.56c3.74,28.14 -16.04,54 -44.18,57.74 -28.14,3.74 -54,-16.04 -57.74,-44.18l101.92 -13.56zm-408.79 2.53l351.05 -46.71 13.56 101.92 -351.05 46.71 -57.74 -44.18 44.18 -57.74zm13.56 101.92c-28.14,3.74 -54,-16.04 -57.74,-44.18 -3.74,-28.14 16.04,-54 44.18,-57.74l13.56 101.92zm-40.03 -690.65l84.21 632.91 -101.92 13.56 -84.21 -632.91 44.18 -57.74 57.74 44.18zm-101.92 13.56c-3.74,-28.14 16.04,-54 44.18,-57.74 28.14,-3.74 54,16.04 57.74,44.18l-101.92 13.56zm1168.88 501.78l-261.21 -636.28 95.12 -39.04 261.21 636.28 -40.78 70.48 -54.34 -31.44zm95.12 -39.04c10.78,26.26 -1.78,56.3 -28.04,67.08 -26.26,10.78 -56.3,-1.78 -67.08,-28.04l95.12 -39.04zm-138.11 -20.29l83.77 -11.15 13.56 101.92 -83.77 11.15 -54.34 -31.44 40.78 -70.48zm13.56 101.92c-28.14,3.74 -54,-16.04 -57.74,-44.18 -3.74,-28.14 16.04,-54 44.18,-57.74l13.56 101.92zm-119.35 -460.63l160.13 390.15 -95.12 39.04 -160.13 -390.15 -2.06 -32.97 97.18 -6.07zm-95.12 39.04c-10.78,-26.26 1.78,-56.3 28.04,-67.08 26.26,-10.78 56.3,1.78 67.08,28.04l-95.12 39.04zm-124.78 419.67l122.72 -452.64 99.24 26.9 -122.72 452.64 -93.98 12.54 -5.26 -39.44zm99.24 26.9c-7.42,27.4 -35.67,43.59 -63.07,36.17 -27.4,-7.42 -43.59,-35.67 -36.17,-63.07l99.24 26.9zm-243.07 -445.32l237.81 405.88 -88.72 51.98 -237.81 -405.88 -6.66 -32.32 95.38 -19.66zm-88.72 51.98c-14.35,-24.49 -6.12,-56 18.37,-70.35 24.49,-14.35 56,-6.12 70.35,18.37l-88.72 51.98zm-58.7 387.27l52.04 -419.59 102.04 12.66 -52.04 419.59 -44.24 44.63 -57.8 -57.29zm102.04 12.66c-3.49,28.17 -29.18,48.18 -57.35,44.69 -28.17,-3.49 -48.18,-29.18 -44.69,-57.35l102.04 12.66zm-142.09 -46.08l84.29 -11.21 13.56 101.92 -84.29 11.21 -57.8 -57.3 44.24 -44.62zm13.56 101.92c-28.14,3.74 -54,-16.04 -57.74,-44.18 -3.74,-28.14 16.04,-54 44.18,-57.74l13.56 101.92zm128.98 -726.93l-84.74 682.31 -102.04 -12.68 84.74 -682.31 95.38 -19.65 6.66 32.33zm-102.04 -12.68c3.5,-28.17 29.19,-48.18 57.36,-44.68 28.17,3.5 48.18,29.19 44.68,57.36l-102.04 -12.68zm267.69 477.75l-261.03 -445.42 88.72 -51.98 261.03 445.42 5.29 39.33 -94.01 12.65zm88.72 -51.98c14.35,24.49 6.12,56 -18.37,70.35 -24.49,14.35 -56,6.12 -70.35,-18.37l88.72 -51.98zm139.07 -458.62l-133.78 497.95 -99.3 -26.68 133.78 -497.95 97.21 -6.18 2.09 32.86zm-99.3 -26.68c7.36,-27.42 35.57,-43.67 62.99,-36.31 27.42,7.36 43.67,35.57 36.31,62.99l-99.3 -26.68zm296.91 48.34l79.8 64.84 0.05 -0.06 -4.83 6.1 -4.62 6.1 -4.43 6.16 -4.23 6.15 -4 6.14 -3.84 6.19 -3.62 6.19 -3.42 6.2 -3.25 6.25 -3.06 6.25 -2.85 6.25 -2.68 6.31 -2.51 6.35 -2.3 6.33 -2.14 6.39 -1.95 6.4 -1.77 6.47 -1.62 6.51 -1.42 6.5 -1.24 6.56 -1.08 6.64 -0.9 6.69 -0.73 6.75 -0.56 6.8 -0.37 6.8 -0.19 6.92 -0.03 6.99 0.16 7.06 0.33 7.12 0.52 7.14 0.71 7.27 0.88 7.34 -101.92 13.56 -1.18 -9.74 -0.95 -9.73 -0.7 -9.74 -0.45 -9.66 -0.22 -9.64 0.03 -9.59 0.27 -9.56 0.53 -9.58 0.78 -9.48 1.01 -9.43 1.28 -9.39 1.5 -9.34 1.78 -9.32 2.02 -9.26 2.26 -9.17 2.51 -9.11 2.77 -9.08 3 -8.99 3.26 -8.93 3.49 -8.83 3.72 -8.77 3.99 -8.73 4.2 -8.61 4.43 -8.53 4.68 -8.48 4.92 -8.39 5.12 -8.29 5.36 -8.22 5.59 -8.13 5.79 -8.02 6.02 -7.98 6.25 -7.88 0.05 -0.06zm268.57 -149.28l13.56 101.92 0 0 -7.93 1.15 -7.81 1.29 -7.68 1.45 -7.56 1.59 -7.45 1.75 -7.34 1.9 -7.22 2.05 -7.1 2.19 -6.96 2.35 -6.92 2.51 -6.79 2.63 -6.68 2.8 -6.57 2.93 -6.48 3.1 -6.39 3.24 -6.25 3.37 -6.22 3.56 -6.11 3.69 -6.01 3.85 -5.93 4 -5.85 4.17 -5.76 4.31 -5.69 4.49 -5.59 4.63 -5.5 4.79 -5.47 5 -5.37 5.13 -5.3 5.32 -5.2 5.46 -5.14 5.66 -5.07 5.83 -4.99 6.01 -79.8 -64.84 6.43 -7.75 6.57 -7.55 6.7 -7.38 6.86 -7.2 6.98 -7 7.11 -6.81 7.23 -6.6 7.4 -6.45 7.53 -6.23 7.65 -6.03 7.78 -5.83 7.91 -5.63 8.03 -5.42 8.17 -5.23 8.29 -5.01 8.38 -4.8 8.57 -4.63 8.65 -4.38 8.76 -4.18 8.89 -3.97 9 -3.76 9.09 -3.55 9.18 -3.33 9.34 -3.13 9.42 -2.91 9.52 -2.71 9.62 -2.48 9.71 -2.29 9.8 -2.07 9.92 -1.87 9.99 -1.65 10.09 -1.45 0 0zm294.39 75.61l-60.92 82.84 0.05 0.04 -6.35 -4.56 -6.36 -4.35 -6.38 -4.16 -6.42 -3.99 -6.43 -3.79 -6.46 -3.61 -6.46 -3.41 -6.5 -3.23 -6.54 -3.07 -6.54 -2.87 -6.58 -2.7 -6.62 -2.52 -6.67 -2.36 -6.66 -2.16 -6.73 -2.01 -6.75 -1.83 -6.82 -1.65 -6.86 -1.5 -6.85 -1.31 -6.96 -1.14 -7 -0.99 -7.04 -0.8 -7.12 -0.64 -7.16 -0.47 -7.21 -0.29 -7.31 -0.12 -7.37 0.05 -7.41 0.23 -7.49 0.4 -7.57 0.58 -7.63 0.76 -7.71 0.94 -13.56 -101.92 9.95 -1.22 9.93 -0.98 9.87 -0.76 9.87 -0.54 9.83 -0.29 9.77 -0.07 9.73 0.16 9.73 0.39 9.68 0.63 9.6 0.86 9.6 1.1 9.52 1.33 9.46 1.56 9.47 1.81 9.36 2.04 9.3 2.27 9.27 2.51 9.19 2.73 9.14 2.98 9.05 3.2 8.98 3.42 8.94 3.66 8.86 3.89 8.78 4.11 8.7 4.33 8.64 4.57 8.54 4.77 8.47 4.99 8.4 5.21 8.32 5.42 8.24 5.65 8.15 5.84 0.05 0.04zm153.88 254.89l-101.92 13.56 0 0 -1.05 -7.2 -1.21 -7.1 -1.36 -7.01 -1.52 -6.88 -1.66 -6.73 -1.83 -6.66 -1.99 -6.59 -2.13 -6.45 -2.27 -6.33 -2.45 -6.26 -2.6 -6.21 -2.74 -6.07 -2.91 -5.98 -3.05 -5.9 -3.22 -5.82 -3.39 -5.77 -3.52 -5.65 -3.72 -5.61 -3.88 -5.56 -4.02 -5.43 -4.2 -5.38 -4.4 -5.34 -4.56 -5.27 -4.71 -5.17 -4.91 -5.12 -5.08 -5.06 -5.28 -5 -5.47 -4.94 -5.67 -4.89 -5.84 -4.82 -6.01 -4.73 -6.23 -4.68 60.92 -82.84 8.01 6.02 7.83 6.17 7.62 6.28 7.43 6.41 7.23 6.54 7.06 6.68 6.86 6.82 6.67 6.96 6.47 7.11 6.24 7.21 6.04 7.34 5.84 7.48 5.64 7.63 5.4 7.72 5.2 7.85 5 8.01 4.75 8.09 4.56 8.24 4.33 8.36 4.09 8.46 3.88 8.59 3.64 8.65 3.43 8.78 3.21 8.93 2.97 8.99 2.73 9.07 2.53 9.18 2.3 9.31 2.06 9.38 1.84 9.43 1.63 9.56 1.39 9.64 0 0zm-79.35 294.1l-80.94 -63.4 -0.04 0.04 4.67 -6.11 4.48 -6.16 4.28 -6.19 4.08 -6.2 3.89 -6.23 3.7 -6.28 3.53 -6.32 3.31 -6.29 3.12 -6.35 2.97 -6.42 2.79 -6.47 2.6 -6.47 2.4 -6.47 2.24 -6.59 2.07 -6.64 1.89 -6.65 1.72 -6.69 1.54 -6.77 1.36 -6.81 1.19 -6.88 1.02 -6.97 0.86 -7.04 0.67 -7.04 0.49 -7.15 0.32 -7.25 0.15 -7.29 -0.03 -7.37 -0.22 -7.45 -0.4 -7.52 -0.58 -7.64 -0.75 -7.7 -0.95 -7.77 101.92 -13.56 1.23 10.07 0.99 10.02 0.76 9.96 0.52 9.96 0.28 9.91 0.05 9.87 -0.19 9.83 -0.44 9.75 -0.67 9.73 -0.93 9.72 -1.16 9.6 -1.4 9.55 -1.65 9.52 -1.9 9.47 -2.14 9.39 -2.38 9.35 -2.63 9.25 -2.87 9.16 -3.1 9.09 -3.36 9.09 -3.6 8.95 -3.81 8.85 -4.05 8.78 -4.3 8.73 -4.55 8.65 -4.75 8.52 -4.98 8.42 -5.21 8.37 -5.44 8.26 -5.66 8.17 -5.88 8.08 -6.09 7.99 -0.04 0.04zm-268.62 151.32l-13.56 -101.92 0 0 8.04 -1.16 7.91 -1.31 7.79 -1.47 7.66 -1.62 7.53 -1.78 7.4 -1.92 7.25 -2.06 7.14 -2.23 7.05 -2.37 6.91 -2.52 6.8 -2.67 6.69 -2.82 6.57 -2.96 6.45 -3.1 6.33 -3.26 6.26 -3.42 6.14 -3.55 6.06 -3.73 5.96 -3.87 5.84 -4.01 5.76 -4.17 5.68 -4.35 5.59 -4.49 5.48 -4.64 5.41 -4.83 5.33 -4.99 5.24 -5.15 5.16 -5.32 5.06 -5.48 5.01 -5.69 4.91 -5.84 4.83 -6.02 80.94 63.4 -6.29 7.86 -6.45 7.66 -6.57 7.47 -6.74 7.3 -6.88 7.1 -7.02 6.91 -7.17 6.71 -7.31 6.51 -7.48 6.34 -7.59 6.11 -7.74 5.91 -7.88 5.71 -8.02 5.51 -8.16 5.29 -8.26 5.07 -8.42 4.89 -8.54 4.66 -8.69 4.46 -8.81 4.24 -8.91 4.02 -9.03 3.8 -9.14 3.59 -9.27 3.38 -9.37 3.17 -9.5 2.95 -9.61 2.74 -9.7 2.52 -9.81 2.3 -9.9 2.1 -10.01 1.89 -10.13 1.69 -10.22 1.46 0 0zm-297.75 -76.65l61.56 -82.36 0.05 0.03 6.29 4.61 6.31 4.41 6.35 4.21 6.37 4.02 6.39 3.82 6.44 3.65 6.47 3.46 6.47 3.26 6.55 3.09 6.57 2.91 6.61 2.73 6.66 2.55 6.68 2.37 6.75 2.21 6.76 2.02 6.84 1.85 6.89 1.68 6.93 1.5 6.99 1.32 7.06 1.17 7.14 0.98 7.19 0.82 7.22 0.63 7.34 0.46 7.39 0.3 7.48 0.11 7.55 -0.06 7.59 -0.24 7.71 -0.43 7.79 -0.6 7.86 -0.79 7.94 -0.96 13.56 101.92 -10.16 1.24 -10.12 1.01 -10.07 0.78 -10.03 0.55 -10.03 0.32 -9.95 0.08 -9.9 -0.15 -9.87 -0.38 -9.82 -0.62 -9.8 -0.87 -9.71 -1.1 -9.66 -1.34 -9.62 -1.57 -9.55 -1.82 -9.51 -2.06 -9.43 -2.3 -9.36 -2.53 -9.32 -2.78 -9.23 -3.01 -9.16 -3.25 -9.06 -3.49 -9.01 -3.71 -8.91 -3.95 -8.83 -4.17 -8.79 -4.42 -8.67 -4.64 -8.58 -4.85 -8.53 -5.1 -8.41 -5.32 -8.33 -5.53 -8.23 -5.75 -8.15 -5.95 0.05 0.03zm-154.23 -262.33l101.92 -13.56 0 0 1.11 7.66 1.26 7.51 1.42 7.39 1.58 7.3 1.74 7.18 1.88 7.03 2.03 6.92 2.2 6.81 2.35 6.72 2.5 6.6 2.64 6.47 2.82 6.41 2.95 6.3 3.1 6.16 3.28 6.1 3.43 6.03 3.57 5.9 3.75 5.83 3.89 5.74 4.08 5.66 4.22 5.57 4.39 5.48 4.59 5.44 4.73 5.33 4.9 5.25 5.1 5.19 5.28 5.13 5.43 5.02 5.63 4.96 5.82 4.88 6.01 4.83 6.19 4.73 -61.56 82.36 -8.03 -6.15 -7.83 -6.27 -7.64 -6.42 -7.47 -6.58 -7.27 -6.72 -7.06 -6.85 -6.86 -6.99 -6.68 -7.15 -6.47 -7.29 -6.23 -7.4 -6.07 -7.56 -5.84 -7.71 -5.62 -7.82 -5.43 -7.98 -5.19 -8.09 -4.99 -8.24 -4.75 -8.33 -4.54 -8.46 -4.34 -8.64 -4.09 -8.7 -3.88 -8.83 -3.66 -8.97 -3.42 -9.04 -3.21 -9.16 -2.98 -9.29 -2.77 -9.38 -2.54 -9.49 -2.3 -9.56 -2.1 -9.66 -1.88 -9.77 -1.66 -9.89 -1.43 -9.94 0 0zm529.05 -207.04l60.2 -83.36 0.08 0.06 6.19 4.6 6.05 4.71 5.93 4.84 5.78 4.97 5.64 5.08 5.47 5.2 5.32 5.29 5.18 5.44 5.04 5.57 4.86 5.65 4.7 5.77 4.55 5.9 4.38 5.99 4.25 6.15 4.05 6.24 3.86 6.29 3.71 6.44 3.53 6.51 3.37 6.63 3.2 6.75 3 6.78 2.85 6.92 2.66 6.98 2.48 7.04 2.31 7.16 2.14 7.24 1.96 7.27 1.8 7.39 1.62 7.49 1.43 7.49 1.27 7.56 1.11 7.66 -101.92 13.56 -0.77 -5.32 -0.89 -5.26 -0.99 -5.15 -1.08 -4.99 -1.2 -4.93 -1.3 -4.87 -1.4 -4.74 -1.51 -4.64 -1.62 -4.6 -1.7 -4.48 -1.81 -4.4 -1.92 -4.34 -2 -4.23 -2.13 -4.17 -2.23 -4.13 -2.33 -4.02 -2.46 -4.01 -2.53 -3.9 -2.63 -3.81 -2.78 -3.81 -2.87 -3.72 -3.02 -3.69 -3.12 -3.65 -3.24 -3.57 -3.36 -3.52 -3.5 -3.49 -3.63 -3.44 -3.74 -3.38 -3.88 -3.33 -4.01 -3.28 -4.17 -3.25 -4.31 -3.2 0.08 0.06zm-158.68 -37.53l-13.56 -101.92 0 0 7.92 -0.97 7.89 -0.81 7.88 -0.63 7.81 -0.46 7.86 -0.3 7.78 -0.1 7.72 0.06 7.68 0.23 7.69 0.41 7.69 0.59 7.57 0.77 7.54 0.94 7.57 1.14 7.48 1.32 7.41 1.48 7.39 1.67 7.29 1.85 7.29 2.03 7.23 2.22 7.13 2.38 7.15 2.58 7.04 2.76 6.91 2.9 6.92 3.1 6.84 3.28 6.77 3.45 6.7 3.63 6.57 3.76 6.56 3.96 6.49 4.14 6.36 4.27 6.31 4.44 -60.2 83.36 -4.37 -3.08 -4.42 -2.97 -4.39 -2.8 -4.44 -2.68 -4.51 -2.58 -4.48 -2.43 -4.51 -2.29 -4.54 -2.18 -4.56 -2.04 -4.67 -1.96 -4.64 -1.82 -4.63 -1.68 -4.75 -1.58 -4.75 -1.46 -4.79 -1.33 -4.89 -1.23 -4.87 -1.11 -4.97 -1 -5 -0.88 -4.99 -0.74 -5.14 -0.64 -5.19 -0.53 -5.19 -0.41 -5.27 -0.27 -5.38 -0.17 -5.44 -0.04 -5.48 0.08 -5.5 0.2 -5.65 0.34 -5.68 0.45 -5.75 0.59 -5.84 0.71 0 0zm-136.27 77.66l-80.8 -63.6 -0.05 0.07 4.82 -6.01 4.91 -5.85 5.05 -5.74 5.15 -5.6 5.25 -5.44 5.38 -5.31 5.46 -5.14 5.59 -5.03 5.71 -4.86 5.75 -4.68 5.91 -4.56 6.01 -4.4 6.12 -4.25 6.2 -4.07 6.29 -3.91 6.44 -3.78 6.48 -3.57 6.58 -3.43 6.66 -3.25 6.77 -3.1 6.84 -2.91 6.89 -2.76 7.06 -2.61 7.08 -2.41 7.15 -2.25 7.2 -2.08 7.31 -1.93 7.41 -1.76 7.4 -1.58 7.5 -1.42 7.57 -1.26 7.62 -1.1 13.56 101.92 -5.4 0.78 -5.31 0.88 -5.2 1 -5.16 1.1 -4.99 1.18 -4.95 1.31 -4.88 1.4 -4.79 1.51 -4.7 1.61 -4.58 1.69 -4.57 1.82 -4.48 1.91 -4.39 2.02 -4.34 2.11 -4.28 2.23 -4.22 2.33 -4.1 2.4 -4.09 2.55 -4.04 2.65 -3.96 2.75 -3.91 2.86 -3.85 2.98 -3.85 3.12 -3.75 3.2 -3.71 3.33 -3.68 3.46 -3.6 3.57 -3.59 3.72 -3.53 3.82 -3.47 3.96 -3.45 4.11 -3.4 4.23 -0.05 0.07zm-40.97 146.21l-101.92 13.56 0 0 -0.92 -7.54 -0.73 -7.53 -0.56 -7.51 -0.37 -7.46 -0.19 -7.49 0 -7.46 0.18 -7.39 0.37 -7.42 0.56 -7.38 0.74 -7.35 0.94 -7.29 1.12 -7.28 1.32 -7.25 1.49 -7.17 1.71 -7.2 1.88 -7.09 2.05 -7.02 2.26 -7.04 2.45 -6.97 2.62 -6.87 2.8 -6.82 2.99 -6.78 3.17 -6.73 3.34 -6.63 3.5 -6.56 3.71 -6.55 3.86 -6.42 4.03 -6.39 4.21 -6.3 4.35 -6.22 4.53 -6.17 4.68 -6.09 80.8 63.6 -3.3 4.29 -3.15 4.27 -3.01 4.32 -2.87 4.3 -2.71 4.29 -2.6 4.34 -2.43 4.29 -2.32 4.34 -2.2 4.37 -2.05 4.33 -1.91 4.34 -1.8 4.4 -1.68 4.41 -1.55 4.41 -1.42 4.4 -1.31 4.48 -1.2 4.51 -1.05 4.46 -0.95 4.57 -0.84 4.57 -0.7 4.6 -0.6 4.69 -0.48 4.69 -0.36 4.72 -0.23 4.78 -0.12 4.87 0 4.88 0.13 4.93 0.25 5.02 0.36 5.05 0.51 5.11 0.62 5.18 0 0zm78.93 129.82l-59.5 83.86 -0.08 -0.05 -6.27 -4.58 -6.11 -4.67 -6 -4.82 -5.85 -4.92 -5.71 -5.05 -5.55 -5.18 -5.38 -5.26 -5.27 -5.4 -5.09 -5.53 -4.92 -5.61 -4.78 -5.75 -4.64 -5.89 -4.44 -5.97 -4.24 -6.02 -4.14 -6.21 -3.96 -6.35 -3.75 -6.37 -3.58 -6.47 -3.43 -6.61 -3.24 -6.71 -3.06 -6.78 -2.88 -6.87 -2.71 -6.98 -2.51 -7.02 -2.34 -7.12 -2.17 -7.22 -1.98 -7.26 -1.8 -7.35 -1.64 -7.45 -1.44 -7.46 -1.29 -7.55 -1.1 -7.64 101.92 -13.56 0.76 5.22 0.87 5.15 0.98 5.06 1.08 4.93 1.2 4.85 1.3 4.76 1.39 4.66 1.52 4.58 1.61 4.52 1.71 4.4 1.82 4.35 1.92 4.26 2.02 4.17 2.13 4.11 2.26 4.09 2.35 4.01 2.44 3.89 2.56 3.85 2.72 3.86 2.8 3.77 2.9 3.69 3.04 3.65 3.18 3.63 3.29 3.55 3.41 3.52 3.56 3.48 3.69 3.42 3.81 3.37 3.95 3.34 4.1 3.28 4.25 3.25 4.39 3.2 -0.08 -0.05zm161.06 37.51l13.56 101.92 0.01 0 -7.97 0.98 -7.95 0.82 -7.97 0.64 -7.86 0.46 -7.82 0.3 -7.88 0.13 -7.8 -0.06 -7.73 -0.22 -7.74 -0.4 -7.66 -0.58 -7.65 -0.75 -7.67 -0.95 -7.53 -1.11 -7.5 -1.29 -7.53 -1.48 -7.43 -1.67 -7.35 -1.83 -7.3 -2.01 -7.28 -2.19 -7.22 -2.38 -7.17 -2.55 -7.08 -2.74 -7.01 -2.89 -6.96 -3.09 -6.86 -3.24 -6.84 -3.42 -6.76 -3.61 -6.64 -3.74 -6.63 -3.94 -6.53 -4.1 -6.43 -4.24 -6.38 -4.42 59.5 -83.86 4.46 3.08 4.51 2.98 4.49 2.82 4.51 2.68 4.58 2.58 4.56 2.43 4.58 2.3 4.66 2.2 4.64 2.05 4.71 1.95 4.72 1.82 4.73 1.69 4.78 1.58 4.82 1.45 4.9 1.35 4.95 1.23 4.97 1.11 4.95 0.98 5.1 0.87 5.15 0.77 5.13 0.63 5.23 0.51 5.32 0.4 5.34 0.28 5.45 0.16 5.48 0.04 5.5 -0.09 5.66 -0.22 5.72 -0.34 5.71 -0.46 5.83 -0.6 5.91 -0.72 0.01 0zm133.21 -77.23l81.12 63.18 0 0.01 -4.77 5.98 -4.87 5.84 -4.98 5.72 -5.08 5.58 -5.18 5.42 -5.3 5.3 -5.4 5.15 -5.52 5.01 -5.61 4.86 -5.72 4.71 -5.8 4.53 -5.89 4.38 -6.06 4.27 -6.11 4.08 -6.22 3.93 -6.3 3.74 -6.39 3.61 -6.53 3.44 -6.55 3.25 -6.66 3.1 -6.74 2.92 -6.82 2.77 -6.96 2.61 -6.97 2.42 -7.01 2.24 -7.18 2.11 -7.19 1.91 -7.27 1.75 -7.35 1.58 -7.36 1.41 -7.45 1.26 -7.53 1.08 -13.56 -101.92 5.21 -0.76 5.15 -0.86 5.08 -0.97 4.93 -1.06 4.89 -1.19 4.79 -1.27 4.68 -1.37 4.67 -1.5 4.59 -1.58 4.44 -1.67 4.42 -1.79 4.36 -1.9 4.3 -2 4.25 -2.11 4.13 -2.18 4.11 -2.31 4.06 -2.42 4 -2.53 3.95 -2.62 3.86 -2.73 3.87 -2.88 3.82 -2.99 3.76 -3.09 3.71 -3.2 3.66 -3.33 3.62 -3.45 3.58 -3.58 3.56 -3.74 3.5 -3.82 3.46 -3.98 3.43 -4.12 3.37 -4.24 0 0.01zm40.77 -145.18l101.92 -13.56 0 0 0.91 7.43 0.73 7.47 0.54 7.46 0.36 7.35 0.19 7.42 -0.01 7.41 -0.18 7.29 -0.37 7.36 -0.56 7.34 -0.75 7.25 -0.93 7.28 -1.12 7.2 -1.3 7.17 -1.5 7.16 -1.68 7.08 -1.87 7.08 -2.06 7.04 -2.22 6.91 -2.42 6.92 -2.62 6.88 -2.77 6.78 -2.95 6.73 -3.12 6.66 -3.33 6.66 -3.48 6.54 -3.65 6.5 -3.84 6.43 -3.97 6.33 -4.14 6.29 -4.34 6.26 -4.49 6.16 -4.63 6.08 -81.12 -63.18 3.29 -4.32 3.13 -4.3 2.96 -4.28 2.86 -4.33 2.73 -4.35 2.56 -4.31 2.43 -4.32 2.32 -4.36 2.15 -4.3 2.04 -4.36 1.93 -4.37 1.79 -4.38 1.66 -4.36 1.52 -4.38 1.44 -4.47 1.3 -4.4 1.17 -4.44 1.06 -4.5 0.94 -4.48 0.82 -4.55 0.72 -4.58 0.59 -4.58 0.47 -4.67 0.36 -4.64 0.23 -4.7 0.12 -4.83 0.01 -4.79 -0.13 -4.84 -0.24 -4.97 -0.36 -4.94 -0.49 -4.99 -0.61 -5.09 0 0zm387.63 -322.28l-86.49 11.51 -13.56 -101.92 86.49 -11.51 57.74 44.18 -44.18 57.74zm-13.56 -101.92c28.14,-3.74 54,16.04 57.74,44.18 3.74,28.14 -16.04,54 -44.18,57.74l-13.56 -101.92zm17.55 521.74l-61.73 -464 101.92 -13.56 61.73 464 -101.92 13.56zm-74.79 254.42l-13.58 -101.92 0.01 0 7.71 -1.18 7.27 -1.4 6.75 -1.61 6.3 -1.81 5.9 -1.99 5.45 -2.15 5 -2.28 4.61 -2.43 4.25 -2.55 3.9 -2.68 3.6 -2.81 3.33 -2.95 3.09 -3.11 2.9 -3.3 2.7 -3.51 2.52 -3.74 2.38 -4.06 2.25 -4.38 2.06 -4.69 1.9 -5.08 1.73 -5.51 1.54 -5.93 1.32 -6.33 1.1 -6.8 0.86 -7.22 0.58 -7.67 0.32 -8.17 0.03 -8.55 -0.28 -8.99 -0.58 -9.48 -0.9 -9.86 -1.23 -10.28 101.92 -13.56 1.57 13.04 1.16 12.82 0.78 12.54 0.38 12.35 -0.05 12.15 -0.46 11.87 -0.9 11.73 -1.36 11.5 -1.82 11.28 -2.32 11.07 -2.82 10.83 -3.33 10.59 -3.88 10.36 -4.44 10.09 -4.97 9.74 -5.54 9.42 -6.12 9.06 -6.66 8.65 -7.18 8.2 -7.69 7.73 -8.17 7.23 -8.6 6.71 -9.04 6.2 -9.39 5.65 -9.75 5.13 -10.06 4.6 -10.35 4.09 -10.6 3.59 -10.9 3.13 -11.19 2.65 -11.37 2.2 -11.65 1.78 0.01 0zm-165.49 -85.8l94.12 41.4 -28.96 -68.82 2.94 1.08 2.84 1.01 2.89 0.97 2.88 0.93 2.77 0.85 2.92 0.85 2.83 0.78 2.76 0.72 2.81 0.69 2.77 0.64 2.7 0.57 2.77 0.55 2.75 0.5 2.72 0.45 2.73 0.42 2.65 0.35 2.69 0.32 2.68 0.28 2.68 0.23 2.68 0.19 2.58 0.14 2.66 0.1 2.64 0.06 2.56 0.02 2.64 -0.03 2.69 -0.07 2.55 -0.11 2.55 -0.15 2.68 -0.21 2.6 -0.23 2.55 -0.28 2.59 -0.32 13.58 101.92 -4.25 0.54 -4.31 0.46 -4.24 0.39 -4.2 0.31 -4.33 0.27 -4.33 0.17 -4.19 0.11 -4.28 0.05 -4.34 -0.02 -4.28 -0.1 -4.28 -0.16 -4.34 -0.24 -4.28 -0.31 -4.28 -0.37 -4.28 -0.44 -4.27 -0.5 -4.33 -0.59 -4.27 -0.64 -4.28 -0.71 -4.25 -0.78 -4.25 -0.83 -4.34 -0.93 -4.25 -0.98 -4.23 -1.03 -4.3 -1.12 -4.23 -1.18 -4.16 -1.21 -4.31 -1.31 -4.2 -1.37 -4.21 -1.41 -4.26 -1.51 -4.18 -1.54 -28.96 -68.82zm28.96 68.82c-26.57,-9.99 -40.01,-39.65 -30.02,-66.22 9.99,-26.57 39.65,-40.01 66.22,-30.02l-36.2 96.24zm98.55 -103.31l-33.39 75.89 -94.12 -41.4 33.39 -75.89 57.1 -29.72 37.02 71.12zm-94.12 -41.4c11.43,-25.99 41.77,-37.79 67.76,-26.36 25.99,11.43 37.79,41.77 26.36,67.76l-94.12 -41.4zm110.35 -25.09l13.56 101.92 0.01 0 -2.55 0.32 -2.55 0.27 -2.42 0.23 -2.57 0.2 -2.57 0.15 -2.43 0.12 -2.6 0.1 -2.6 0.06 -2.61 0.02 -2.62 -0.01 -2.64 -0.04 -2.51 -0.07 -2.66 -0.1 -2.67 -0.13 -2.57 -0.15 -2.82 -0.19 -2.61 -0.21 -2.63 -0.23 -2.87 -0.28 -2.77 -0.3 -2.69 -0.31 -2.83 -0.34 -2.84 -0.38 -2.73 -0.38 -2.88 -0.42 -2.91 -0.45 -2.94 -0.47 -2.93 -0.51 -2.87 -0.5 -2.99 -0.55 -3.01 -0.57 -3.01 -0.59 20.08 -100.84 2.41 0.47 2.35 0.45 2.29 0.41 2.35 0.42 2.21 0.37 2.14 0.35 2.11 0.33 2.08 0.3 2.15 0.3 1.96 0.26 1.93 0.24 1.99 0.23 1.85 0.2 1.67 0.16 1.85 0.15 1.81 0.15 1.52 0.11 1.71 0.09 1.53 0.09 1.5 0.04 1.55 0.05 1.38 0.02 1.32 0.01 1.27 -0.02 1.2 -0.02 1.16 -0.04 1.23 -0.06 1.05 -0.07 0.97 -0.08 1.06 -0.09 0.85 -0.09 0.79 -0.1 0.01 0zm11.83 -42.74l101.92 -13.56 0 0 0.83 6.83 0.66 6.81 0.46 6.74 0.26 6.58 0.08 6.62 -0.15 6.56 -0.35 6.42 -0.6 6.47 -0.85 6.43 -1.1 6.27 -1.39 6.36 -1.71 6.31 -2 6.15 -2.34 6.1 -2.69 6.03 -3.08 5.93 -3.46 5.77 -3.79 5.53 -4.15 5.31 -4.53 5.09 -4.83 4.75 -5.16 4.46 -5.41 4.09 -5.6 3.71 -5.79 3.33 -5.96 2.98 -6.12 2.61 -6.15 2.23 -6.24 1.91 -6.3 1.57 -6.33 1.28 -6.4 0.99 -13.56 -101.92 1.96 -0.31 1.73 -0.34 1.44 -0.37 1.18 -0.35 0.95 -0.35 0.68 -0.29 0.52 -0.26 0.37 -0.21 0.26 -0.17 0.13 -0.09 0.06 -0.06 0.09 -0.09 0.07 -0.07 0.13 -0.17 0.19 -0.27 0.2 -0.35 0.26 -0.51 0.33 -0.73 0.38 -1 0.4 -1.25 0.39 -1.41 0.37 -1.7 0.36 -2.09 0.31 -2.27 0.22 -2.53 0.17 -2.92 0.07 -3.08 -0.04 -3.36 -0.16 -3.72 -0.26 -3.88 -0.4 -4.11 -0.53 -4.43 0 0zm38.41 -490.95l63.51 477.39 -101.92 13.56 -63.51 -477.39 44.18 -57.74 57.74 44.18zm-101.92 13.56c-3.74,-28.14 16.04,-54 44.18,-57.74 28.14,-3.74 54,16.04 57.74,44.18l-101.92 13.56zm319.73 9.32l-86.49 11.51 -13.56 -101.92 86.49 -11.51 57.74 44.18 -44.18 57.74zm-13.56 -101.92c28.14,-3.74 54,16.04 57.74,44.18 3.74,28.14 -16.04,54 -44.18,57.74l-13.56 -101.92zm40.03 690.65l-84.21 -632.91 101.92 -13.56 84.21 632.91 -44.18 57.74 -57.74 -44.18zm101.92 -13.56c3.74,28.14 -16.04,54 -44.18,57.74 -28.14,3.74 -54,-16.04 -57.74,-44.18l101.92 -13.56zm-144.23 -32.68l86.49 -11.5 13.56 101.92 -86.49 11.5 -57.74 -44.18 44.18 -57.74zm13.56 101.92c-28.14,3.74 -54,-16.04 -57.74,-44.18 -3.74,-28.14 16.04,-54 44.18,-57.74l13.56 101.92zm-40.03 -690.64l84.21 632.9 -101.92 13.56 -84.21 -632.9 44.18 -57.74 57.74 44.18zm-101.92 13.56c-3.74,-28.14 16.04,-54 44.18,-57.74 28.14,-3.74 54,16.04 57.74,44.18l-101.92 13.56z"/>
    <path id="1" class="fil1" d="M397.81 1530.92l295.76 -39.35 -1.28 85.09 -209.61 27.88 -2.32 162.9 208.94 -27.8 -1.01 87.12 -209.27 27.84 -4.47 310.22 -87.51 11.65 10.77 -645.55zm385.96 -51.35l84.79 -11.28 -5.19 440.97c-0.04,4.84 0.57,12.01 1.83,21.5 4.85,36.47 20.54,63.55 47.03,81.07 26.33,17.56 60.6,23.53 102.66,17.93 48.51,-6.45 86.32,-24.43 113.79,-54.14 27.47,-29.54 41.54,-67.83 42.38,-114.72l5.47 -433.59 85.98 -11.43 -8.92 455.61c-1,65.2 -21.72,119.57 -62.23,162.75 -40.32,43.34 -94.65,69.55 -162.82,78.62 -67.84,9.03 -123.97,-1.63 -168.39,-31.96 -44.42,-30.33 -70.65,-75.69 -78.66,-135.89 -1.37,-10.35 -1.98,-22.69 -1.84,-37.21l4.12 -428.23zm1018.65 -77.54l-14.21 103.37c-63.05,-50.98 -130.52,-71.69 -202.26,-62.14 -71.73,9.54 -128.71,41.8 -171.1,96.8 -42.39,55.01 -58.89,117.78 -49.5,188.33 9,67.66 39.54,122.11 91.63,163.34 52.06,41.05 111.16,57.18 177.3,48.37 52.06,-6.92 105.31,-30.92 159.73,-71.99l-0.47 106.72c-50.09,30.83 -98.03,49.29 -143.65,55.36 -94.12,12.52 -176.86,-8.74 -248.56,-63.75 -71.69,-55.01 -113.73,-129.67 -126.3,-224.13 -13.04,-98.03 9.67,-184.24 68.09,-258.8 58.59,-74.6 138.02,-118.47 238.24,-131.8 72.93,-9.71 146.61,7.07 221.06,50.32zm64.64 -66.59l84.28 -11.21 -3.04 256.01 220.97 -285.01 118.71 -15.79 -257.71 334.42 326.66 300.51 -109.39 14.56 -300.08 -275.92 -3.83 316.35 -84.28 11.22 7.71 -645.14zm436.67 -58.1l351.05 -46.71 11.51 86.49 -264.56 35.2 20.85 156.7 264.55 -35.19 11.51 86.48 -264.56 35.2 28.84 216.74 264.56 -35.2 11.51 86.49 -351.05 46.71 -84.21 -632.91zm904.27 -147.24l261.21 636.28 -83.77 11.15 -160.13 -390.15 -122.72 452.64 -237.81 -405.88 -52.04 419.59 -84.29 11.21 84.74 -682.31 261.03 445.42 133.78 -497.95zm215.11 315.88c-12.16,-91.41 11.86,-174.17 72.05,-248.46 60.36,-74.3 138.79,-117.88 235.45,-130.74 94.46,-12.56 180.07,9.53 257.15,66.07 76.91,56.56 121.35,129.86 133.38,220.25 12.7,95.48 -10.31,180.69 -68.86,255.62 -58.71,74.95 -136.91,119.01 -234.93,132.06 -96.83,12.88 -183.51,-9.42 -260.19,-66.87 -76.85,-57.43 -121.48,-133.47 -134.05,-227.93zm607.1 -75.78c-9.27,-69.69 -42.18,-125.03 -98.91,-166.16 -56.71,-40.95 -121.96,-56.6 -195.56,-46.81 -69.87,9.29 -126.51,41.51 -169.89,96.82 -43.4,55.14 -60.58,116.79 -51.53,184.79 9.19,69.03 42.56,123.96 100.14,164.97 57.55,40.84 123.31,56.43 197.59,46.54 68.35,-9.09 123.94,-41.34 166.99,-96.6 43.04,-55.27 60.08,-116.56 51.17,-183.55zm243.4 -354.95l86.49 -11.51 61.73 464c16.79,126.17 -27.39,196.25 -132.54,210.24 -36.46,4.86 -73.67,0.14 -111.64,-14.14l33.39 -75.89c29.08,5.79 52.43,7.52 70.07,5.17 45.45,-6.05 64.11,-39.6 56.01,-100.48l-63.51 -477.39zm175.5 -23.35l86.49 -11.51 84.21 632.91 -86.49 11.5 -84.21 -632.9z"/>
   </g>
   <polygon class="fil2 str0" points="209.82,2460.68 4876.79,1798.16 4870.16,1702.26 203.19,2364.78 "/>
   <g>
    <path class="fil3" d="M640.5 1488.11l-295.76 39.35 -13.56 -101.92 295.76 -39.35 58.19 51.73 -44.63 50.19zm-13.56 -101.92c28.14,-3.74 54,16.04 57.74,44.18 3.74,28.14 -16.04,54 -44.18,57.74l-13.56 -101.92zm-45.91 135.28l1.28 -85.09 102.82 1.54 -1.28 85.09 -44.63 50.19 -58.19 -51.73zm102.82 1.54c-0.42,28.39 -23.79,51.06 -52.18,50.64 -28.39,-0.42 -51.06,-23.79 -50.64,-52.18l102.82 1.54zm-267.8 -23.84l209.61 -27.89 13.56 101.92 -209.61 27.89 -58.19 -51.69 44.63 -50.23zm13.56 101.92c-28.14,3.74 -54,-16.04 -57.74,-44.18 -3.74,-28.14 16.04,-54 44.18,-57.74l13.56 101.92zm-60.51 111.2l2.32 -162.89 102.82 1.46 -2.32 162.89 -44.63 50.23 -58.19 -51.69zm102.82 1.46c-0.4,28.39 -23.75,51.08 -52.14,50.68 -28.39,-0.4 -51.08,-23.75 -50.68,-52.14l102.82 1.46zm164.31 22.43l-208.94 27.8 -13.56 -101.92 208.94 -27.8 58.19 51.56 -44.63 50.36zm-13.56 -101.92c28.14,-3.74 54,16.04 57.74,44.18 3.74,28.14 -16.04,54 -44.18,57.74l-13.56 -101.92zm-45.64 137.48l1.01 -87.12 102.82 1.2 -1.01 87.12 -44.63 50.36 -58.19 -51.56zm102.82 1.2c-0.33,28.39 -23.62,51.14 -52.01,50.81 -28.39,-0.33 -51.14,-23.62 -50.81,-52.01l102.82 1.2zm-267.47 -23.72l209.28 -27.84 13.56 101.92 -209.28 27.84 -58.19 -51.7 44.63 -50.22zm13.56 101.92c-28.14,3.74 -54,-16.04 -57.74,-44.18 -3.74,-28.14 16.04,-54 44.18,-57.74l13.56 101.92zm-62.65 258.53l4.46 -310.23 102.82 1.48 -4.46 310.23 -44.63 50.22 -58.19 -51.7zm102.82 1.48c-0.4,28.39 -23.76,51.07 -52.15,50.67 -28.39,-0.4 -51.07,-23.76 -50.67,-52.15l102.82 1.48zm-145.7 -40.06l87.51 -11.64 13.56 101.92 -87.51 11.64 -58.18 -51.82 44.62 -50.1zm13.56 101.92c-28.14,3.74 -54,-16.04 -57.74,-44.18 -3.74,-28.14 16.04,-54 44.18,-57.74l13.56 101.92zm55.39 -695.65l-10.77 645.55 -102.8 -1.72 10.77 -645.55 44.62 -50.1 58.18 51.82zm-102.8 -1.72c0.47,-28.38 23.88,-51.01 52.26,-50.54 28.38,0.47 51.01,23.88 50.54,52.26l-102.8 -1.72zm528.93 -10.81l-84.79 11.28 -13.56 -101.92 84.79 -11.28 58.19 51.57 -44.63 50.35zm-13.56 -101.92c28.14,-3.74 54,16.04 57.74,44.18 3.74,28.14 -16.04,54 -44.18,57.74l-13.56 -101.92zm-49.82 491.32l5.19 -440.97 102.82 1.22 -5.19 440.97 -102.82 -1.03 0 -0.19zm104.2 15.33l-101.92 13.56 0 -0.01 -0.13 -0.95 -0.14 -1.08 -0.13 -1.05 -0.13 -1.03 -0.08 -0.72 -0.13 -1 -0.12 -1.05 -0.08 -0.71 -0.11 -1 -0.1 -0.95 -0.11 -1.01 -0.1 -1.01 -0.05 -0.59 -0.1 -0.95 -0.09 -0.99 -0.05 -0.62 -0.08 -0.95 -0.08 -0.95 -0.07 -0.95 -0.06 -0.94 -0.04 -0.56 -0.06 -0.95 -0.05 -0.94 -0.05 -0.98 -0.04 -0.96 -0.02 -0.49 -0.03 -0.98 -0.02 -0.98 -0.01 -0.47 -0.02 -0.99 0 -1.01 0 -0.88 102.82 0.84 0 0.04 0 -0.07 0 -0.01 0.01 0.53 0 0.06 0.01 0.08 0.02 0.59 0 0.16 0.01 0.16 0.01 0.22 0.02 0.25 0.04 0.66 0.02 0.3 0.03 0.33 0.02 0.35 0.04 0.39 0.07 0.74 0.03 0.39 0.04 0.45 0.09 0.85 0.04 0.47 0.05 0.47 0.06 0.57 0.07 0.56 0.1 0.87 0.06 0.55 0.07 0.62 0.12 0.94 0.07 0.65 0.09 0.67 0.08 0.66 0.11 0.81 0 -0.01zm24.59 45.09l-57.04 85.54 0.15 0.1 -3.63 -2.47 -3.52 -2.54 -3.49 -2.67 -3.45 -2.82 -3.33 -2.87 -3.19 -2.92 -3.16 -3.05 -3.02 -3.11 -2.98 -3.23 -2.92 -3.38 -2.74 -3.36 -2.68 -3.49 -2.56 -3.55 -2.43 -3.58 -2.38 -3.7 -2.26 -3.78 -2.15 -3.84 -2.04 -3.9 -1.91 -3.88 -1.81 -3.96 -1.73 -4.06 -1.61 -4.08 -1.52 -4.14 -1.42 -4.22 -1.28 -4.15 -1.21 -4.25 -1.1 -4.3 -1 -4.27 -0.92 -4.38 -0.82 -4.4 -0.72 -4.36 -0.64 -4.46 101.92 -13.56 0.34 2.32 0.38 2.32 0.4 2.16 0.44 2.08 0.48 2.07 0.5 1.92 0.53 1.87 0.58 1.87 0.56 1.68 0.6 1.64 0.63 1.6 0.65 1.52 0.69 1.5 0.71 1.46 0.7 1.34 0.73 1.28 0.74 1.24 0.76 1.2 0.83 1.22 0.82 1.13 0.82 1.07 0.9 1.1 0.84 0.98 0.92 0.99 1 1.03 0.98 0.95 1.07 0.98 1.07 0.93 1.07 0.86 1.17 0.89 1.26 0.92 1.27 0.87 0.15 0.1zm67.35 9.74l13.58 101.92 -0.02 0 -4.73 0.6 -4.66 0.5 -4.69 0.44 -4.69 0.35 -4.52 0.27 -4.64 0.19 -4.68 0.11 -4.53 0.01 -4.51 -0.06 -4.48 -0.16 -4.53 -0.23 -4.52 -0.34 -4.42 -0.42 -4.46 -0.53 -4.44 -0.62 -4.34 -0.71 -4.31 -0.8 -4.38 -0.92 -4.32 -1.02 -4.3 -1.13 -4.18 -1.21 -4.16 -1.31 -4.21 -1.45 -4.07 -1.52 -4.1 -1.65 -4.09 -1.78 -3.92 -1.83 -3.95 -1.98 -3.93 -2.1 -3.76 -2.16 -3.71 -2.25 -3.72 -2.41 57.04 -85.54 1.26 0.81 1.37 0.83 1.4 0.8 1.33 0.72 1.41 0.7 1.52 0.71 1.45 0.64 1.54 0.61 1.65 0.62 1.61 0.55 1.76 0.55 1.82 0.53 1.8 0.47 1.86 0.44 1.9 0.4 2.07 0.38 2.12 0.35 2.12 0.3 2.18 0.25 2.32 0.22 2.32 0.18 2.39 0.13 2.54 0.08 2.61 0.04 2.67 -0.01 2.6 -0.05 2.74 -0.13 2.96 -0.17 2.89 -0.21 2.95 -0.28 3.1 -0.34 3.11 -0.38 -0.02 0zm82.93 -38.21l75.28 70.04 0.12 -0.12 -3.47 3.66 -3.55 3.56 -3.6 3.46 -3.7 3.38 -3.8 3.3 -3.87 3.21 -3.96 3.12 -4.03 3.02 -4.13 2.94 -4.14 2.79 -4.2 2.71 -4.32 2.63 -4.37 2.54 -4.48 2.45 -4.54 2.34 -4.53 2.21 -4.57 2.12 -4.7 2.05 -4.74 1.94 -4.76 1.84 -4.88 1.77 -4.91 1.65 -4.9 1.55 -5.02 1.47 -5 1.36 -5.05 1.28 -5.16 1.21 -5.22 1.11 -5.25 1.02 -5.23 0.92 -5.29 0.84 -5.38 0.76 -13.58 -101.92 3.66 -0.52 3.61 -0.58 3.55 -0.62 3.41 -0.66 3.32 -0.71 3.24 -0.75 3.23 -0.82 3.16 -0.86 3.02 -0.89 3 -0.95 2.89 -0.97 2.78 -1.01 2.78 -1.06 2.66 -1.1 2.6 -1.13 2.59 -1.2 2.53 -1.23 2.38 -1.24 2.32 -1.27 2.29 -1.32 2.24 -1.37 2.22 -1.43 2.18 -1.47 2.05 -1.46 2.03 -1.52 1.98 -1.56 1.95 -1.61 1.9 -1.66 1.86 -1.7 1.86 -1.78 1.79 -1.8 1.73 -1.84 0.12 -0.12zm28.62 -80.35l102.82 1.3 -0.01 0.27 -0.14 5.28 -0.23 5.3 -0.35 5.26 -0.42 5.12 -0.53 5.2 -0.64 5.17 -0.72 5.09 -0.84 5.09 -0.94 5.06 -1.05 4.99 -1.15 4.98 -1.27 4.96 -1.34 4.8 -1.47 4.87 -1.61 4.86 -1.68 4.72 -1.79 4.69 -1.92 4.68 -2.02 4.59 -2.13 4.56 -2.24 4.48 -2.34 4.43 -2.47 4.38 -2.57 4.33 -2.71 4.28 -2.76 4.13 -2.85 4.07 -2.99 4.04 -3.09 3.97 -3.23 3.92 -3.29 3.81 -3.37 3.71 -75.28 -70.04 1.71 -1.89 1.63 -1.87 1.53 -1.88 1.51 -1.93 1.45 -1.96 1.43 -2.03 1.38 -2.07 1.27 -2.02 1.25 -2.09 1.19 -2.12 1.16 -2.19 1.12 -2.24 1.05 -2.24 1.02 -2.33 0.96 -2.34 0.93 -2.43 0.9 -2.52 0.81 -2.46 0.77 -2.55 0.76 -2.72 0.69 -2.68 0.63 -2.74 0.59 -2.85 0.54 -2.88 0.48 -2.93 0.44 -3.05 0.38 -3.07 0.31 -3.14 0.28 -3.32 0.21 -3.28 0.15 -3.34 0.1 -3.46 -0.01 0.27zm108.29 -432.28l-5.47 433.58 -102.82 -1.3 5.47 -433.58 44.63 -50.31 58.19 51.61zm-102.82 -1.3c0.35,-28.39 23.67,-51.11 52.06,-50.76 28.39,0.35 51.11,23.67 50.76,52.06l-102.82 -1.3zm144.17 40.17l-85.98 11.44 -13.56 -101.92 85.98 -11.44 58.18 51.97 -44.62 49.95zm-13.56 -101.92c28.14,-3.74 54,16.04 57.74,44.18 3.74,28.14 -16.04,54 -44.18,57.74l-13.56 -101.92zm-53.54 505.57l8.92 -455.62 102.8 2.02 -8.92 455.62 -102.81 -1.8 0.01 -0.22zm26.81 198.78l-75.28 -70.04 0.14 -0.15 2.92 -3.18 2.82 -3.24 2.73 -3.28 2.63 -3.31 2.53 -3.36 2.42 -3.36 2.33 -3.44 2.27 -3.52 2.15 -3.49 2.02 -3.52 2.01 -3.69 1.9 -3.67 1.78 -3.71 1.72 -3.79 1.63 -3.83 1.54 -3.91 1.47 -3.97 1.36 -4 1.29 -4.11 1.22 -4.2 1.12 -4.2 1.03 -4.3 0.95 -4.39 0.85 -4.42 0.78 -4.57 0.69 -4.61 0.59 -4.64 0.5 -4.78 0.41 -4.85 0.31 -4.93 0.23 -5.01 0.12 -5.09 102.82 1.58 -0.18 7.07 -0.31 7.03 -0.45 6.97 -0.59 6.93 -0.72 6.88 -0.87 6.88 -1.01 6.79 -1.14 6.69 -1.29 6.72 -1.45 6.63 -1.57 6.58 -1.74 6.56 -1.86 6.42 -2.01 6.39 -2.18 6.38 -2.31 6.27 -2.46 6.21 -2.61 6.15 -2.74 6.05 -2.92 6.03 -3.04 5.91 -3.15 5.79 -3.36 5.82 -3.49 5.71 -3.59 5.56 -3.75 5.5 -3.9 5.46 -4.03 5.32 -4.15 5.25 -4.29 5.14 -4.42 5.06 -4.56 4.98 0.14 -0.15zm-193.68 94.55l-13.56 -101.92 0 0 5.48 -0.78 5.38 -0.86 5.27 -0.93 5.14 -1.02 5.1 -1.1 5.03 -1.19 4.87 -1.24 4.8 -1.34 4.75 -1.42 4.59 -1.47 4.53 -1.56 4.44 -1.63 4.36 -1.71 4.26 -1.77 4.15 -1.84 4.15 -1.95 4.02 -1.99 3.9 -2.05 3.86 -2.14 3.8 -2.22 3.73 -2.3 3.65 -2.36 3.54 -2.42 3.49 -2.49 3.41 -2.58 3.37 -2.66 3.31 -2.75 3.25 -2.82 3.16 -2.89 3.11 -2.97 3.06 -3.08 3 -3.14 75.28 70.04 -4.64 4.88 -4.74 4.74 -4.87 4.67 -4.98 4.53 -5.05 4.4 -5.15 4.27 -5.25 4.16 -5.37 4.04 -5.47 3.93 -5.58 3.8 -5.63 3.64 -5.71 3.52 -5.82 3.4 -5.9 3.28 -6.04 3.17 -6.08 3.01 -6.11 2.87 -6.27 2.78 -6.32 2.63 -6.4 2.51 -6.46 2.37 -6.55 2.26 -6.65 2.13 -6.65 1.98 -6.76 1.88 -6.87 1.76 -6.85 1.61 -6.96 1.52 -7.06 1.38 -7.11 1.27 -7.16 1.14 -7.22 1.02 0 0zm-204.16 -40.46l57.98 -84.92 0 0 3.07 2.04 3.09 1.93 3.14 1.85 3.25 1.8 3.27 1.71 3.28 1.59 3.37 1.53 3.44 1.45 3.52 1.38 3.57 1.3 3.64 1.22 3.73 1.14 3.78 1.05 3.89 0.99 3.95 0.89 4.02 0.82 4.13 0.73 4.2 0.65 4.25 0.56 4.38 0.47 4.51 0.39 4.55 0.29 4.61 0.21 4.74 0.1 4.83 0.02 4.93 -0.08 5.01 -0.18 5.11 -0.28 5.21 -0.37 5.29 -0.48 5.38 -0.58 5.48 -0.68 13.56 101.92 -7.18 0.9 -7.12 0.76 -7.09 0.64 -7.03 0.51 -6.99 0.38 -6.95 0.24 -6.91 0.12 -6.85 -0.02 -6.82 -0.16 -6.81 -0.29 -6.73 -0.45 -6.63 -0.57 -6.62 -0.71 -6.63 -0.86 -6.52 -1.01 -6.47 -1.15 -6.44 -1.3 -6.35 -1.45 -6.31 -1.59 -6.26 -1.75 -6.17 -1.9 -6.14 -2.04 -6.05 -2.2 -5.98 -2.34 -5.92 -2.51 -5.85 -2.65 -5.8 -2.83 -5.67 -2.95 -5.57 -3.08 -5.52 -3.25 -5.45 -3.41 -5.33 -3.54 0 0zm-100.63 -171.56l101.92 -13.58 0 0.01 0.65 4.52 0.74 4.45 0.8 4.32 0.89 4.19 0.97 4.12 1.04 4.02 1.11 3.91 1.16 3.75 1.24 3.66 1.33 3.62 1.38 3.5 1.46 3.4 1.52 3.33 1.57 3.21 1.63 3.1 1.71 3.05 1.79 3 1.86 2.92 1.91 2.83 1.95 2.72 2.05 2.68 2.15 2.65 2.19 2.57 2.28 2.5 2.37 2.47 2.41 2.38 2.49 2.31 2.64 2.32 2.76 2.29 2.76 2.18 2.87 2.12 3.01 2.12 -57.98 84.92 -5.21 -3.66 -5.15 -3.82 -5.02 -3.96 -4.82 -4.01 -4.74 -4.16 -4.67 -4.33 -4.53 -4.46 -4.35 -4.53 -4.24 -4.68 -4.11 -4.79 -3.95 -4.89 -3.83 -5.02 -3.71 -5.16 -3.53 -5.23 -3.38 -5.32 -3.23 -5.4 -3.11 -5.53 -2.97 -5.66 -2.81 -5.73 -2.64 -5.77 -2.5 -5.88 -2.36 -5.96 -2.21 -6.02 -2.08 -6.14 -1.94 -6.23 -1.77 -6.25 -1.64 -6.32 -1.49 -6.38 -1.37 -6.49 -1.22 -6.52 -1.1 -6.59 -0.95 -6.68 0 0.01zm-2.29 -44.49l102.82 0.98 0 0.04 -0.01 1.2 -0.01 1.16 0 1.14 0 1.11 0.01 1.11 0.01 1.29 0.01 1.07 0.02 1.05 0.01 1.05 0.02 0.81 0.04 1.22 0.03 1.2 0.03 0.76 0.04 0.95 0.04 0.95 0.04 0.91 0.06 1.13 0.05 0.9 0.05 0.87 0.06 0.84 0.06 0.84 0.06 0.83 0.06 0.79 0.09 1.03 0.06 0.78 0.05 0.5 0.08 0.73 0.11 0.98 0.07 0.68 0.08 0.65 0.08 0.67 0.09 0.69 -101.92 13.58 -0.17 -1.27 -0.16 -1.29 -0.16 -1.35 -0.15 -1.34 -0.11 -1.08 -0.14 -1.33 -0.15 -1.6 -0.12 -1.34 -0.09 -1.11 -0.12 -1.37 -0.1 -1.37 -0.1 -1.36 -0.08 -1.4 -0.09 -1.39 -0.07 -1.4 -0.06 -1.17 -0.08 -1.43 -0.06 -1.41 -0.06 -1.43 -0.05 -1.64 -0.03 -1.24 -0.04 -1.24 -0.04 -1.67 -0.03 -1.47 -0.02 -1.47 -0.01 -1.49 -0.01 -1.29 -0.01 -1.51 0 -1.51 0 -1.52 0.01 -1.54 0.01 -1.5 0 0.04zm106.94 -427.25l-4.12 428.23 -102.82 -0.98 4.12 -428.23 44.63 -50.47 58.19 51.45zm-102.82 -0.98c0.27,-28.39 23.51,-51.19 51.9,-50.92 28.39,0.27 51.19,23.51 50.92,51.9l-102.82 -0.98zm1004.92 19.33l14.21 -103.38 101.86 14 -14.21 103.38 -83.26 32.98 -18.6 -46.98zm101.86 14c-3.86,28.12 -29.81,47.79 -57.93,43.93 -28.12,-3.86 -47.79,-29.81 -43.93,-57.93l101.86 14zm-246.41 -18.19l-13.56 -101.92 0 0 8 -0.97 8.03 -0.75 8.03 -0.55 7.98 -0.32 7.97 -0.12 8 0.1 7.93 0.31 7.92 0.52 7.93 0.74 7.91 0.97 7.84 1.17 7.81 1.38 7.81 1.61 7.76 1.83 7.68 2.03 7.65 2.23 7.64 2.46 7.58 2.66 7.49 2.86 7.44 3.06 7.42 3.28 7.33 3.46 7.28 3.65 7.26 3.87 7.18 4.06 7.12 4.25 7.03 4.43 6.98 4.61 6.92 4.79 6.88 4.99 6.84 5.19 6.73 5.33 -64.66 79.96 -5.11 -4.05 -5.06 -3.85 -5.08 -3.67 -5.08 -3.53 -5.08 -3.35 -5.07 -3.19 -5.04 -3.01 -5.02 -2.84 -5 -2.67 -5.04 -2.53 -5.03 -2.38 -5 -2.2 -5.02 -2.06 -5.03 -1.92 -4.98 -1.76 -4.98 -1.6 -5.03 -1.47 -5.04 -1.33 -5 -1.17 -5.01 -1.03 -5.07 -0.9 -5.08 -0.77 -5.07 -0.61 -5.09 -0.48 -5.16 -0.34 -5.19 -0.21 -5.18 -0.06 -5.25 0.08 -5.3 0.22 -5.29 0.35 -5.35 0.51 -5.42 0.65 0 0zm-137.16 77.23l-81.44 -62.76 0 0 4.75 -6.02 4.87 -5.89 5 -5.75 5.09 -5.59 5.23 -5.47 5.34 -5.32 5.47 -5.18 5.56 -5.01 5.7 -4.88 5.81 -4.72 5.92 -4.57 6.06 -4.42 6.12 -4.23 6.23 -4.08 6.33 -3.92 6.49 -3.78 6.54 -3.58 6.61 -3.43 6.76 -3.27 6.81 -3.08 6.93 -2.94 7.02 -2.76 7.11 -2.61 7.16 -2.41 7.22 -2.26 7.4 -2.11 7.37 -1.91 7.46 -1.77 7.61 -1.61 7.61 -1.43 7.68 -1.27 7.78 -1.12 13.56 101.92 -5.58 0.8 -5.52 0.93 -5.41 1.01 -5.23 1.11 -5.2 1.23 -5.13 1.33 -4.94 1.41 -4.92 1.54 -4.84 1.63 -4.69 1.71 -4.62 1.82 -4.53 1.92 -4.49 2.04 -4.36 2.11 -4.33 2.23 -4.24 2.32 -4.13 2.42 -4.09 2.52 -4.03 2.64 -3.98 2.75 -3.86 2.82 -3.82 2.95 -3.77 3.06 -3.7 3.18 -3.68 3.31 -3.59 3.4 -3.54 3.52 -3.49 3.65 -3.45 3.79 -3.38 3.89 -3.33 4.03 -3.29 4.16 0 0zm-39.26 150.16l-101.92 13.56 0 0 -0.94 -7.69 -0.77 -7.68 -0.59 -7.68 -0.42 -7.62 -0.23 -7.64 -0.05 -7.57 0.12 -7.55 0.31 -7.55 0.49 -7.49 0.68 -7.44 0.86 -7.46 1.05 -7.37 1.23 -7.33 1.43 -7.33 1.6 -7.23 1.8 -7.23 1.99 -7.14 2.15 -7.09 2.35 -7.02 2.52 -6.97 2.73 -6.96 2.91 -6.87 3.07 -6.77 3.25 -6.7 3.44 -6.67 3.6 -6.56 3.77 -6.49 3.93 -6.42 4.13 -6.37 4.29 -6.28 4.43 -6.19 4.61 -6.12 81.44 62.76 -3.19 4.24 -3.05 4.25 -2.91 4.26 -2.75 4.27 -2.65 4.3 -2.51 4.33 -2.38 4.34 -2.24 4.33 -2.11 4.38 -2.01 4.41 -1.85 4.39 -1.73 4.4 -1.62 4.49 -1.51 4.52 -1.39 4.55 -1.27 4.58 -1.14 4.59 -1.04 4.67 -0.91 4.67 -0.79 4.75 -0.69 4.81 -0.56 4.82 -0.44 4.92 -0.33 4.97 -0.21 4.99 -0.08 5.09 0.03 5.15 0.17 5.18 0.28 5.28 0.41 5.32 0.55 5.42 0.66 5.49 0 0zm72.49 129.75l-63.66 80.74 -0.08 -0.06 -5.74 -4.64 -5.57 -4.74 -5.44 -4.83 -5.35 -4.99 -5.2 -5.07 -5.01 -5.15 -4.93 -5.28 -4.79 -5.42 -4.62 -5.48 -4.49 -5.61 -4.34 -5.71 -4.17 -5.79 -4.03 -5.88 -3.91 -6.04 -3.72 -6.08 -3.58 -6.19 -3.44 -6.32 -3.25 -6.36 -3.1 -6.44 -2.96 -6.56 -2.78 -6.62 -2.63 -6.71 -2.47 -6.78 -2.31 -6.84 -2.15 -6.91 -2.01 -7.04 -1.82 -7.06 -1.69 -7.13 -1.53 -7.24 -1.36 -7.25 -1.22 -7.31 -1.06 -7.4 101.92 -13.56 0.76 5.22 0.84 5.13 0.96 5.05 1.03 4.92 1.15 4.85 1.24 4.78 1.33 4.64 1.43 4.61 1.53 4.54 1.61 4.44 1.71 4.35 1.8 4.28 1.88 4.18 2 4.16 2.09 4.08 2.16 3.98 2.28 3.93 2.38 3.9 2.45 3.78 2.59 3.78 2.69 3.73 2.78 3.65 2.87 3.59 3 3.56 3.07 3.48 3.21 3.44 3.37 3.45 3.42 3.35 3.53 3.29 3.7 3.27 3.81 3.24 3.9 3.16 -0.08 -0.06zm138.7 37.79l13.56 101.92 0 0 -7.32 0.89 -7.3 0.73 -7.33 0.55 -7.26 0.37 -7.25 0.21 -7.21 0.02 -7.19 -0.15 -7.22 -0.33 -7.15 -0.51 -7.1 -0.68 -7.11 -0.88 -7.05 -1.06 -6.95 -1.22 -7.01 -1.42 -6.96 -1.61 -6.82 -1.77 -6.81 -1.95 -6.81 -2.15 -6.72 -2.32 -6.64 -2.49 -6.63 -2.68 -6.52 -2.85 -6.47 -3.01 -6.41 -3.2 -6.32 -3.35 -6.26 -3.53 -6.21 -3.69 -6.13 -3.87 -6.08 -4.03 -5.93 -4.16 -5.9 -4.32 -5.85 -4.51 63.66 -80.74 3.95 3.05 4 2.92 4.03 2.82 3.98 2.65 3.99 2.51 4.01 2.39 4.04 2.27 4.06 2.15 4.05 2.02 4.09 1.91 4.1 1.79 4.09 1.66 4.14 1.55 4.16 1.44 4.15 1.31 4.23 1.21 4.3 1.11 4.24 0.99 4.29 0.86 4.41 0.78 4.41 0.66 4.43 0.54 4.5 0.44 4.55 0.33 4.58 0.21 4.67 0.09 4.73 -0.02 4.79 -0.13 4.84 -0.25 4.87 -0.37 4.98 -0.49 5.04 -0.61 0 0zm217.92 -20.81l-102.82 -0.46 82.38 41.27 -5.59 4.17 -5.59 4.06 -5.61 3.97 -5.63 3.88 -5.63 3.77 -5.63 3.67 -5.64 3.57 -5.67 3.48 -5.65 3.36 -5.68 3.27 -5.68 3.16 -5.68 3.06 -5.71 2.96 -5.73 2.86 -5.73 2.75 -5.75 2.65 -5.75 2.53 -5.75 2.42 -5.78 2.33 -5.8 2.22 -5.8 2.1 -5.81 1.99 -5.81 1.88 -5.85 1.78 -5.84 1.66 -5.84 1.54 -5.87 1.43 -5.87 1.32 -5.87 1.19 -5.88 1.08 -5.91 0.97 -5.89 0.84 -13.56 -101.92 3.87 -0.56 3.89 -0.63 3.9 -0.72 3.95 -0.81 3.95 -0.88 3.97 -0.97 4 -1.06 4.04 -1.14 4.03 -1.22 4.07 -1.32 4.11 -1.41 4.12 -1.5 4.14 -1.58 4.16 -1.67 4.21 -1.78 4.23 -1.87 4.25 -1.95 4.27 -2.05 4.29 -2.14 4.31 -2.24 4.36 -2.34 4.38 -2.44 4.4 -2.53 4.43 -2.64 4.45 -2.72 4.46 -2.83 4.51 -2.93 4.51 -3.03 4.53 -3.12 4.55 -3.23 4.59 -3.34 4.61 -3.43 82.38 41.27zm-82.38 -41.27c22.66,-17.1 54.91,-12.59 72.01,10.07 17.1,22.66 12.59,54.91 -10.07,72.01l-61.94 -82.08zm-20.91 147.53l0.47 -106.72 102.82 0.46 -0.47 106.72 -24.46 43.55 -78.36 -44.01zm102.82 0.46c-0.12,28.39 -23.25,51.3 -51.64,51.18 -28.39,-0.12 -51.3,-23.25 -51.18,-51.64l102.82 0.46zm-188.28 106.09l-13.56 -101.92 0 0 3.47 -0.5 3.52 -0.55 3.43 -0.59 3.56 -0.69 3.58 -0.73 3.57 -0.8 3.6 -0.85 3.66 -0.94 3.68 -0.99 3.66 -1.05 3.76 -1.13 3.72 -1.17 3.74 -1.25 3.8 -1.32 3.87 -1.41 3.84 -1.44 3.85 -1.51 3.91 -1.6 3.89 -1.64 3.98 -1.75 4.03 -1.82 3.98 -1.85 3.99 -1.92 4.09 -2.03 4.09 -2.08 4.09 -2.15 4.12 -2.22 4.12 -2.28 4.22 -2.4 4.19 -2.42 4.22 -2.52 4.25 -2.58 53.9 87.56 -5.13 3.12 -5.14 3.06 -5.13 2.98 -5.08 2.88 -5.16 2.86 -5.14 2.76 -5.13 2.69 -5.11 2.6 -5.09 2.53 -5.15 2.48 -5.16 2.41 -5.07 2.28 -5.08 2.23 -5.15 2.18 -5.11 2.08 -5.15 2.03 -5.14 1.94 -5.07 1.83 -5.1 1.78 -5.16 1.71 -5.14 1.63 -5.08 1.53 -5.14 1.47 -5.1 1.37 -5.1 1.3 -5.14 1.23 -5.13 1.14 -5.08 1.05 -5.1 0.97 -5.19 0.91 -5.08 0.79 -5.09 0.72 0 0zm-286.64 -73.92l62.6 -81.58 -0.01 0 5.8 4.35 5.8 4.13 5.88 3.97 5.9 3.8 5.91 3.59 6.01 3.45 5.99 3.26 6.03 3.07 6.1 2.92 6.11 2.73 6.17 2.56 6.22 2.4 6.28 2.24 6.34 2.08 6.37 1.9 6.46 1.75 6.5 1.58 6.55 1.41 6.65 1.25 6.7 1.09 6.79 0.93 6.85 0.77 6.91 0.59 7.03 0.43 7.07 0.26 7.2 0.1 7.24 -0.07 7.34 -0.25 7.45 -0.42 7.54 -0.59 7.6 -0.76 7.7 -0.94 13.56 101.92 -9.88 1.22 -9.84 0.98 -9.78 0.77 -9.73 0.54 -9.72 0.33 -9.66 0.09 -9.6 -0.12 -9.57 -0.36 -9.49 -0.59 -9.47 -0.81 -9.41 -1.05 -9.33 -1.27 -9.3 -1.51 -9.21 -1.75 -9.17 -1.97 -9.1 -2.22 -9 -2.43 -8.97 -2.68 -8.86 -2.9 -8.78 -3.12 -8.72 -3.36 -8.65 -3.6 -8.57 -3.83 -8.44 -4.04 -8.39 -4.27 -8.29 -4.5 -8.15 -4.69 -8.11 -4.93 -8 -5.14 -7.9 -5.35 -7.84 -5.59 -7.7 -5.77 -0.01 0zm-145.96 -258.14l101.92 -13.56 0 0 1.11 7.73 1.26 7.57 1.39 7.44 1.56 7.35 1.69 7.22 1.83 7.05 1.96 6.92 2.13 6.84 2.25 6.72 2.37 6.51 2.54 6.48 2.67 6.35 2.79 6.19 2.96 6.13 3.09 6.02 3.21 5.88 3.36 5.78 3.51 5.7 3.66 5.62 3.8 5.5 3.93 5.4 4.08 5.31 4.23 5.22 4.39 5.13 4.55 5.05 4.69 4.95 4.88 4.89 5.03 4.81 5.18 4.72 5.34 4.63 5.51 4.55 5.69 4.46 -62.6 81.58 -7.57 -5.96 -7.41 -6.11 -7.24 -6.27 -7.04 -6.4 -6.85 -6.55 -6.66 -6.69 -6.49 -6.85 -6.29 -6.99 -6.11 -7.15 -5.91 -7.28 -5.72 -7.43 -5.51 -7.56 -5.3 -7.7 -5.1 -7.82 -4.91 -7.96 -4.7 -8.1 -4.51 -8.24 -4.27 -8.34 -4.08 -8.45 -3.89 -8.63 -3.65 -8.69 -3.46 -8.8 -3.27 -8.99 -3.03 -9.04 -2.83 -9.12 -2.64 -9.28 -2.43 -9.39 -2.21 -9.46 -2.02 -9.55 -1.83 -9.68 -1.62 -9.79 -1.41 -9.87 0 0zm78.62 -297.34l80.86 63.52 0.04 -0.05 -4.64 6.07 -4.45 6.11 -4.23 6.11 -4.05 6.18 -3.87 6.22 -3.66 6.24 -3.49 6.31 -3.31 6.33 -3.11 6.37 -2.93 6.42 -2.75 6.46 -2.58 6.53 -2.39 6.56 -2.22 6.62 -2.04 6.69 -1.87 6.77 -1.71 6.8 -1.51 6.85 -1.35 6.97 -1.18 7.05 -1 7.05 -0.83 7.17 -0.65 7.28 -0.48 7.33 -0.3 7.38 -0.11 7.5 0.06 7.61 0.24 7.68 0.43 7.8 0.6 7.86 0.8 7.92 0.98 8.07 -101.92 13.56 -1.26 -10.25 -1.02 -10.24 -0.78 -10.18 -0.55 -10.1 -0.32 -10.08 -0.08 -10.01 0.15 -9.98 0.4 -9.96 0.64 -9.87 0.89 -9.78 1.11 -9.77 1.38 -9.73 1.62 -9.61 1.85 -9.55 2.11 -9.53 2.35 -9.44 2.59 -9.33 2.84 -9.27 3.08 -9.22 3.33 -9.12 3.56 -9.03 3.81 -8.96 4.05 -8.86 4.29 -8.77 4.51 -8.67 4.75 -8.57 4.98 -8.48 5.21 -8.38 5.43 -8.28 5.67 -8.21 5.89 -8.07 6.1 -7.99 0.04 -0.05zm271.89 -151l13.56 101.92 0 0 -8.28 1.19 -8.15 1.35 -8.02 1.5 -7.87 1.64 -7.73 1.79 -7.58 1.94 -7.47 2.11 -7.37 2.24 -7.16 2.38 -7.06 2.54 -6.99 2.69 -6.82 2.83 -6.72 2.97 -6.59 3.12 -6.47 3.26 -6.35 3.41 -6.27 3.57 -6.12 3.7 -6.01 3.84 -5.94 4.02 -5.83 4.16 -5.73 4.32 -5.63 4.48 -5.52 4.61 -5.44 4.79 -5.34 4.94 -5.23 5.11 -5.18 5.29 -5.07 5.45 -4.97 5.61 -4.88 5.78 -4.8 5.97 -80.86 -63.52 6.3 -7.83 6.48 -7.68 6.63 -7.47 6.77 -7.27 6.9 -7.07 7.09 -6.91 7.24 -6.7 7.38 -6.51 7.54 -6.31 7.67 -6.08 7.83 -5.9 7.95 -5.68 8.1 -5.48 8.27 -5.3 8.4 -5.06 8.51 -4.85 8.67 -4.65 8.77 -4.42 8.91 -4.22 9.04 -4.01 9.16 -3.79 9.25 -3.57 9.4 -3.38 9.56 -3.16 9.61 -2.94 9.73 -2.73 9.86 -2.52 9.97 -2.33 10.07 -2.1 10.16 -1.9 10.29 -1.69 10.38 -1.49 0 0zm278.77 108.28l-101.86 -14 25.1 51.46 -6.24 -3.57 -6.21 -3.4 -6.19 -3.26 -6.14 -3.09 -6.15 -2.96 -6.11 -2.82 -6.07 -2.66 -6.07 -2.53 -6.02 -2.37 -6.01 -2.24 -5.97 -2.09 -5.91 -1.94 -5.94 -1.8 -5.94 -1.69 -5.88 -1.54 -5.81 -1.39 -5.84 -1.25 -5.86 -1.14 -5.75 -1 -5.78 -0.85 -5.79 -0.74 -5.72 -0.6 -5.74 -0.47 -5.75 -0.34 -5.68 -0.21 -5.71 -0.08 -5.74 0.04 -5.66 0.18 -5.69 0.3 -5.69 0.44 -5.69 0.56 -5.7 0.69 -13.56 -101.92 7.98 -0.97 7.99 -0.8 8.01 -0.6 8.01 -0.44 8.06 -0.24 7.98 -0.06 8.03 0.1 8.06 0.31 7.99 0.48 8.02 0.65 8.06 0.84 7.97 1.02 8.02 1.19 8.03 1.38 7.94 1.54 7.98 1.73 8.01 1.91 7.94 2.08 7.9 2.23 7.92 2.42 7.95 2.6 7.89 2.77 7.87 2.92 7.86 3.11 7.81 3.25 7.83 3.42 7.81 3.6 7.77 3.74 7.78 3.93 7.75 4.08 7.73 4.24 7.72 4.39 25.1 51.46zm-25.1 -51.46c24.55,14.26 32.89,45.74 18.63,70.29 -14.26,24.55 -45.74,32.89 -70.29,18.63l51.66 -88.92zm129.87 17.62l-84.28 11.21 -13.56 -101.92 84.28 -11.21 58.19 51.57 -44.63 50.35zm-13.56 -101.92c28.14,-3.74 54,16.04 57.74,44.18 3.74,28.14 -16.04,54 -44.18,57.74l-13.56 -101.92zm-47.67 306.36l3.04 -256.01 102.82 1.22 -3.04 256.01 -10.78 30.89 -92.04 -32.11zm102.82 1.22c-0.33,28.39 -23.63,51.13 -52.02,50.8 -28.39,-0.33 -51.13,-23.63 -50.8,-52.02l102.82 1.22zm210.19 -254.12l-220.97 285.01 -81.26 -63 220.97 -285.01 33.85 -19.46 47.41 82.46zm-81.26 -63c17.39,-22.43 49.7,-26.52 72.13,-9.13 22.43,17.39 26.52,49.7 9.13,72.13l-81.26 -63zm166.12 66.67l-118.71 15.79 -13.56 -101.92 118.71 -15.79 47.5 82.34 -33.94 19.58zm-13.56 -101.92c28.14,-3.74 54,16.04 57.74,44.18 3.74,28.14 -16.04,54 -44.18,57.74l-13.56 -101.92zm-291.65 354l257.71 -334.42 81.44 62.76 -257.71 334.42 -75.53 6.46 -5.91 -69.22zm81.44 62.76c-17.33,22.48 -49.62,26.67 -72.1,9.34 -22.48,-17.33 -26.67,-49.62 -9.34,-72.1l81.44 62.76zm251.13 306.98l-326.66 -300.52 69.62 -75.68 326.66 300.52 -28.03 88.8 -41.59 -13.12zm69.62 -75.68c20.89,19.22 22.25,51.76 3.03,72.65 -19.22,20.89 -51.76,22.25 -72.65,3.03l69.62 -75.68zm-150.98 1.43l109.39 -14.55 13.56 101.92 -109.39 14.55 -41.58 -13.11 28.02 -88.81zm13.56 101.92c-28.14,3.74 -54,-16.04 -57.74,-44.18 -3.74,-28.14 16.04,-54 44.18,-57.74l13.56 101.92zm-272.06 -364.73l300.08 275.92 -69.6 75.7 -300.08 -275.92 -16.61 -38.47 86.21 -37.23zm-69.6 75.7c-20.9,-19.21 -22.26,-51.75 -3.05,-72.65 19.21,-20.9 51.75,-22.26 72.65,-3.05l-69.6 75.7zm-20.44 277.88l3.83 -316.35 102.82 1.24 -3.83 316.35 -44.63 50.34 -58.19 -51.58zm102.82 1.24c-0.34,28.39 -23.64,51.13 -52.03,50.79 -28.39,-0.34 -51.13,-23.64 -50.79,-52.03l102.82 1.24zm-142.47 -40.36l84.28 -11.22 13.56 101.92 -84.28 11.22 -58.19 -51.57 44.63 -50.35zm13.56 101.92c-28.14,3.74 -54,-16.04 -57.74,-44.18 -3.74,-28.14 16.04,-54 44.18,-57.74l13.56 101.92zm52.34 -695.49l-7.71 645.14 -102.82 -1.22 7.71 -645.14 44.63 -50.35 58.19 51.57zm-102.82 -1.22c0.33,-28.39 23.63,-51.13 52.02,-50.8 28.39,0.33 51.13,23.63 50.8,52.02l-102.82 -1.22zm845.91 -53.23l-351.05 46.7 -13.56 -101.92 351.05 -46.7 57.74 44.18 -44.18 57.74zm-13.56 -101.92c28.14,-3.74 54,16.04 57.74,44.18 3.74,28.14 -16.04,54 -44.18,57.74l-13.56 -101.92zm-32.68 144.23l-11.5 -86.49 101.92 -13.56 11.5 86.49 -44.18 57.74 -57.74 -44.18zm101.92 -13.56c3.74,28.14 -16.04,54 -44.18,57.74 -28.14,3.74 -54,-16.04 -57.74,-44.18l101.92 -13.56zm-322.29 -8.98l264.55 -35.2 13.56 101.92 -264.55 35.2 -57.74 -44.18 44.18 -57.74zm13.56 101.92c-28.14,3.74 -54,-16.04 -57.74,-44.18 -3.74,-28.14 16.04,-54 44.18,-57.74l13.56 101.92zm-36.9 112.52l-20.84 -156.7 101.92 -13.56 20.84 156.7 -44.18 57.74 -57.74 -44.18zm101.92 -13.56c3.74,28.14 -16.04,54 -44.18,57.74 -28.14,3.74 -54,-16.04 -57.74,-44.18l101.92 -13.56zm220.38 22.54l-264.56 35.2 -13.56 -101.92 264.56 -35.2 57.74 44.18 -44.18 57.74zm-13.56 -101.92c28.14,-3.74 54,16.04 57.74,44.18 3.74,28.14 -16.04,54 -44.18,57.74l-13.56 -101.92zm-32.67 144.23l-11.51 -86.49 101.92 -13.56 11.51 86.49 -44.18 57.74 -57.74 -44.18zm101.92 -13.56c3.74,28.14 -16.04,54 -44.18,57.74 -28.14,3.74 -54,-16.04 -57.74,-44.18l101.92 -13.56zm-322.3 -8.98l264.56 -35.2 13.56 101.92 -264.56 35.2 -57.74 -44.18 44.18 -57.74zm13.56 101.92c-28.14,3.74 -54,-16.04 -57.74,-44.18 -3.74,-28.14 16.04,-54 44.18,-57.74l13.56 101.92zm-28.9 172.55l-28.84 -216.73 101.92 -13.56 28.84 216.73 -44.18 57.74 -57.74 -44.18zm101.92 -13.56c3.74,28.14 -16.04,54 -44.18,57.74 -28.14,3.74 -54,-16.04 -57.74,-44.18l101.92 -13.56zm220.38 22.54l-264.56 35.2 -13.56 -101.92 264.56 -35.2 57.74 44.18 -44.18 57.74zm-13.56 -101.92c28.14,-3.74 54,16.04 57.74,44.18 3.74,28.14 -16.04,54 -44.18,57.74l-13.56 -101.92zm-32.68 144.23l-11.5 -86.49 101.92 -13.56 11.5 86.49 -44.18 57.74 -57.74 -44.18zm101.92 -13.56c3.74,28.14 -16.04,54 -44.18,57.74 -28.14,3.74 -54,-16.04 -57.74,-44.18l101.92 -13.56zm-408.78 2.53l351.04 -46.71 13.56 101.92 -351.04 46.71 -57.74 -44.18 44.18 -57.74zm13.56 101.92c-28.14,3.74 -54,-16.04 -57.74,-44.18 -3.74,-28.14 16.04,-54 44.18,-57.74l13.56 101.92zm-40.03 -690.65l84.21 632.91 -101.92 13.56 -84.21 -632.91 44.18 -57.74 57.74 44.18zm-101.92 13.56c-3.74,-28.14 16.04,-54 44.18,-57.74 28.14,-3.74 54,16.04 57.74,44.18l-101.92 13.56zm1168.88 501.79l-261.21 -636.28 95.12 -39.04 261.21 636.28 -40.78 70.48 -54.34 -31.44zm95.12 -39.04c10.78,26.26 -1.78,56.3 -28.04,67.08 -26.26,10.78 -56.3,-1.78 -67.08,-28.04l95.12 -39.04zm-138.11 -20.3l83.77 -11.14 13.56 101.92 -83.77 11.14 -54.34 -31.44 40.78 -70.48zm13.56 101.92c-28.14,3.74 -54,-16.04 -57.74,-44.18 -3.74,-28.14 16.04,-54 44.18,-57.74l13.56 101.92zm-119.35 -460.63l160.13 390.15 -95.12 39.04 -160.13 -390.15 -2.06 -32.97 97.18 -6.07zm-95.12 39.04c-10.78,-26.26 1.78,-56.3 28.04,-67.08 26.26,-10.78 56.3,1.78 67.08,28.04l-95.12 39.04zm-124.78 419.67l122.72 -452.64 99.24 26.9 -122.72 452.64 -93.98 12.54 -5.26 -39.44zm99.24 26.9c-7.42,27.4 -35.67,43.59 -63.07,36.17 -27.4,-7.42 -43.59,-35.67 -36.17,-63.07l99.24 26.9zm-243.07 -445.32l237.81 405.88 -88.72 51.98 -237.81 -405.88 -6.66 -32.32 95.38 -19.66zm-88.72 51.98c-14.35,-24.49 -6.12,-56 18.37,-70.35 24.49,-14.35 56,-6.12 70.35,18.37l-88.72 51.98zm-58.7 387.27l52.04 -419.59 102.04 12.66 -52.04 419.59 -44.24 44.63 -57.8 -57.29zm102.04 12.66c-3.49,28.17 -29.18,48.18 -57.35,44.69 -28.17,-3.49 -48.18,-29.18 -44.69,-57.35l102.04 12.66zm-142.09 -46.07l84.29 -11.22 13.56 101.92 -84.29 11.22 -57.8 -57.3 44.24 -44.62zm13.56 101.92c-28.14,3.74 -54,-16.04 -57.74,-44.18 -3.74,-28.14 16.04,-54 44.18,-57.74l13.56 101.92zm128.98 -726.94l-84.74 682.32 -102.04 -12.68 84.74 -682.32 95.38 -19.65 6.66 32.33zm-102.04 -12.68c3.5,-28.17 29.19,-48.18 57.36,-44.68 28.17,3.5 48.18,29.19 44.68,57.36l-102.04 -12.68zm267.69 477.76l-261.03 -445.43 88.72 -51.98 261.03 445.43 5.29 39.33 -94.01 12.65zm88.72 -51.98c14.35,24.49 6.12,56 -18.37,70.35 -24.49,14.35 -56,6.12 -70.35,-18.37l88.72 -51.98zm139.07 -458.62l-133.78 497.95 -99.3 -26.68 133.78 -497.95 97.21 -6.18 2.09 32.86zm-99.3 -26.68c7.36,-27.42 35.57,-43.67 62.99,-36.31 27.42,7.36 43.67,35.57 36.31,62.99l-99.3 -26.68zm296.91 48.33l79.8 64.84 0.05 -0.06 -4.83 6.1 -4.62 6.1 -4.43 6.16 -4.23 6.15 -4 6.14 -3.84 6.19 -3.62 6.19 -3.42 6.2 -3.25 6.25 -3.06 6.25 -2.85 6.25 -2.68 6.31 -2.51 6.35 -2.3 6.33 -2.14 6.39 -1.95 6.4 -1.77 6.47 -1.62 6.51 -1.42 6.5 -1.24 6.56 -1.08 6.64 -0.9 6.69 -0.73 6.75 -0.56 6.8 -0.37 6.8 -0.19 6.92 -0.03 6.99 0.16 7.06 0.33 7.12 0.52 7.14 0.71 7.27 0.88 7.34 -101.92 13.56 -1.18 -9.74 -0.95 -9.73 -0.7 -9.74 -0.45 -9.66 -0.22 -9.64 0.03 -9.59 0.27 -9.56 0.53 -9.58 0.78 -9.48 1.01 -9.43 1.28 -9.39 1.5 -9.34 1.78 -9.32 2.02 -9.26 2.26 -9.17 2.51 -9.11 2.77 -9.08 3 -8.99 3.26 -8.93 3.49 -8.83 3.72 -8.77 3.99 -8.73 4.2 -8.61 4.43 -8.53 4.68 -8.48 4.92 -8.39 5.12 -8.29 5.36 -8.22 5.59 -8.13 5.79 -8.02 6.02 -7.98 6.25 -7.88 0.05 -0.06zm268.57 -149.27l13.56 101.92 0 0 -7.93 1.15 -7.81 1.29 -7.69 1.45 -7.56 1.59 -7.45 1.75 -7.32 1.9 -7.23 2.05 -7.1 2.2 -7.01 2.35 -6.88 2.49 -6.77 2.64 -6.68 2.79 -6.59 2.95 -6.48 3.08 -6.37 3.24 -6.29 3.39 -6.17 3.53 -6.13 3.71 -6.02 3.85 -5.93 4 -5.84 4.16 -5.77 4.32 -5.66 4.47 -5.61 4.65 -5.52 4.8 -5.45 4.98 -5.37 5.13 -5.3 5.32 -5.2 5.46 -5.14 5.66 -5.07 5.83 -4.99 6.01 -79.8 -64.84 6.43 -7.75 6.57 -7.55 6.7 -7.38 6.86 -7.2 6.98 -7 7.11 -6.81 7.25 -6.62 7.38 -6.42 7.51 -6.23 7.66 -6.03 7.79 -5.84 7.9 -5.62 8.05 -5.44 8.16 -5.21 8.27 -5.01 8.43 -4.83 8.53 -4.59 8.65 -4.4 8.78 -4.18 8.87 -3.97 8.98 -3.75 9.11 -3.56 9.22 -3.33 9.31 -3.13 9.42 -2.9 9.51 -2.71 9.62 -2.48 9.71 -2.29 9.82 -2.07 9.91 -1.87 9.99 -1.65 10.09 -1.45 0 0zm294.39 75.6l-60.92 82.84 0.05 0.04 -6.35 -4.56 -6.36 -4.35 -6.38 -4.16 -6.42 -3.99 -6.43 -3.79 -6.46 -3.61 -6.46 -3.41 -6.5 -3.23 -6.54 -3.07 -6.54 -2.87 -6.58 -2.7 -6.62 -2.52 -6.67 -2.36 -6.66 -2.16 -6.73 -2.01 -6.75 -1.83 -6.79 -1.65 -6.86 -1.49 -6.91 -1.32 -6.93 -1.14 -7 -0.98 -7.07 -0.82 -7.06 -0.63 -7.19 -0.46 -7.24 -0.3 -7.25 -0.12 -7.37 0.06 -7.44 0.23 -7.49 0.4 -7.57 0.58 -7.63 0.76 -7.71 0.94 -13.56 -101.92 9.95 -1.22 9.93 -0.98 9.87 -0.76 9.87 -0.54 9.8 -0.29 9.77 -0.08 9.79 0.16 9.7 0.4 9.65 0.62 9.66 0.87 9.57 1.1 9.52 1.32 9.49 1.58 9.41 1.8 9.36 2.03 9.33 2.27 9.27 2.51 9.19 2.73 9.14 2.98 9.05 3.2 8.98 3.42 8.94 3.66 8.86 3.89 8.78 4.11 8.7 4.33 8.64 4.57 8.54 4.77 8.47 4.99 8.4 5.21 8.32 5.42 8.24 5.65 8.15 5.84 0.05 0.04zm153.88 254.89l-101.92 13.56 0 0 -1.05 -7.2 -1.21 -7.1 -1.36 -7.01 -1.52 -6.88 -1.66 -6.73 -1.83 -6.66 -1.99 -6.59 -2.13 -6.45 -2.27 -6.33 -2.45 -6.26 -2.6 -6.21 -2.74 -6.07 -2.91 -5.98 -3.05 -5.9 -3.22 -5.82 -3.39 -5.77 -3.52 -5.65 -3.72 -5.61 -3.88 -5.56 -4.02 -5.43 -4.2 -5.38 -4.4 -5.34 -4.56 -5.27 -4.71 -5.17 -4.91 -5.12 -5.08 -5.06 -5.28 -5 -5.47 -4.94 -5.67 -4.89 -5.84 -4.82 -6.01 -4.73 -6.23 -4.68 60.92 -82.84 8.01 6.02 7.83 6.17 7.62 6.28 7.43 6.41 7.23 6.54 7.06 6.68 6.86 6.82 6.67 6.96 6.47 7.11 6.24 7.21 6.04 7.34 5.84 7.48 5.64 7.63 5.4 7.72 5.2 7.85 5 8.01 4.75 8.09 4.56 8.24 4.33 8.36 4.09 8.46 3.88 8.59 3.64 8.65 3.43 8.78 3.21 8.93 2.97 8.99 2.73 9.07 2.53 9.18 2.3 9.31 2.06 9.38 1.84 9.43 1.63 9.56 1.39 9.64 0 0zm-79.34 294.1l-80.96 -63.4 -0.03 0.04 4.67 -6.11 4.49 -6.17 4.27 -6.17 4.08 -6.21 3.89 -6.22 3.7 -6.29 3.53 -6.31 3.31 -6.29 3.13 -6.37 2.97 -6.41 2.77 -6.45 2.61 -6.49 2.4 -6.47 2.24 -6.58 2.07 -6.63 1.89 -6.67 1.72 -6.69 1.54 -6.76 1.36 -6.81 1.19 -6.88 1.02 -6.97 0.86 -7.04 0.67 -7.04 0.49 -7.15 0.32 -7.25 0.15 -7.29 -0.03 -7.37 -0.22 -7.45 -0.4 -7.53 -0.58 -7.65 -0.75 -7.69 -0.95 -7.77 101.92 -13.56 1.23 10.07 0.99 10.03 0.76 9.97 0.52 9.95 0.28 9.91 0.05 9.87 -0.19 9.83 -0.44 9.75 -0.67 9.73 -0.93 9.72 -1.16 9.6 -1.4 9.55 -1.65 9.52 -1.9 9.47 -2.14 9.4 -2.38 9.33 -2.63 9.25 -2.87 9.17 -3.1 9.1 -3.36 9.07 -3.59 8.95 -3.83 8.87 -4.05 8.77 -4.29 8.71 -4.55 8.67 -4.75 8.51 -4.98 8.43 -5.21 8.36 -5.44 8.27 -5.67 8.17 -5.87 8.07 -6.09 7.99 -0.03 0.04zm-268.63 151.32l-13.56 -101.92 0 0 8.04 -1.16 7.91 -1.31 7.81 -1.48 7.66 -1.61 7.49 -1.76 7.4 -1.93 7.3 -2.08 7.14 -2.21 7.02 -2.37 6.91 -2.52 6.8 -2.67 6.69 -2.82 6.55 -2.95 6.47 -3.12 6.35 -3.26 6.24 -3.41 6.14 -3.55 6.06 -3.73 5.96 -3.87 5.82 -4 5.78 -4.19 5.68 -4.34 5.57 -4.48 5.52 -4.68 5.41 -4.81 5.3 -4.96 5.24 -5.16 5.17 -5.34 5.06 -5.48 5.01 -5.69 4.91 -5.84 4.82 -6.02 80.96 63.4 -6.3 7.86 -6.45 7.66 -6.57 7.47 -6.74 7.3 -6.87 7.08 -7.02 6.92 -7.2 6.74 -7.31 6.51 -7.44 6.3 -7.61 6.14 -7.74 5.9 -7.86 5.71 -8.04 5.52 -8.16 5.29 -8.26 5.07 -8.42 4.89 -8.56 4.67 -8.67 4.44 -8.79 4.24 -8.93 4.03 -9.03 3.8 -9.14 3.59 -9.27 3.38 -9.4 3.17 -9.5 2.95 -9.56 2.72 -9.7 2.53 -9.85 2.32 -9.9 2.09 -9.99 1.88 -10.13 1.69 -10.22 1.46 0 0zm-297.75 -76.65l61.56 -82.36 0.05 0.03 6.29 4.61 6.31 4.41 6.35 4.21 6.37 4.02 6.39 3.82 6.44 3.65 6.47 3.46 6.47 3.26 6.55 3.09 6.57 2.91 6.61 2.73 6.66 2.55 6.68 2.37 6.75 2.21 6.76 2.02 6.84 1.85 6.89 1.68 6.93 1.5 6.99 1.32 7.06 1.17 7.14 0.98 7.19 0.82 7.22 0.63 7.34 0.46 7.39 0.3 7.48 0.11 7.55 -0.06 7.59 -0.24 7.71 -0.43 7.79 -0.6 7.86 -0.79 7.94 -0.96 13.56 101.92 -10.16 1.24 -10.12 1.01 -10.07 0.78 -10.03 0.55 -10.03 0.32 -9.95 0.08 -9.9 -0.15 -9.87 -0.38 -9.82 -0.62 -9.8 -0.87 -9.71 -1.1 -9.66 -1.34 -9.62 -1.57 -9.55 -1.82 -9.51 -2.06 -9.43 -2.3 -9.36 -2.53 -9.32 -2.78 -9.23 -3.01 -9.16 -3.25 -9.06 -3.49 -9.01 -3.71 -8.91 -3.95 -8.83 -4.17 -8.79 -4.42 -8.67 -4.64 -8.58 -4.85 -8.53 -5.1 -8.41 -5.32 -8.33 -5.53 -8.23 -5.75 -8.15 -5.95 0.05 0.03zm-154.23 -262.33l101.92 -13.56 0 0 1.11 7.66 1.26 7.51 1.42 7.39 1.58 7.3 1.74 7.18 1.88 7.03 2.03 6.92 2.2 6.81 2.35 6.72 2.5 6.6 2.64 6.47 2.82 6.41 2.95 6.3 3.1 6.16 3.28 6.1 3.43 6.03 3.57 5.9 3.75 5.83 3.89 5.74 4.08 5.66 4.22 5.57 4.39 5.48 4.59 5.44 4.73 5.33 4.9 5.25 5.1 5.19 5.28 5.13 5.43 5.02 5.63 4.96 5.82 4.88 6.01 4.83 6.19 4.73 -61.56 82.36 -8.03 -6.15 -7.83 -6.27 -7.64 -6.42 -7.47 -6.58 -7.27 -6.72 -7.06 -6.85 -6.86 -6.99 -6.68 -7.15 -6.47 -7.29 -6.23 -7.4 -6.07 -7.56 -5.84 -7.71 -5.62 -7.82 -5.43 -7.98 -5.19 -8.09 -4.99 -8.24 -4.75 -8.33 -4.54 -8.46 -4.34 -8.64 -4.09 -8.7 -3.88 -8.83 -3.66 -8.97 -3.42 -9.04 -3.21 -9.16 -2.98 -9.29 -2.77 -9.38 -2.54 -9.49 -2.3 -9.56 -2.1 -9.66 -1.88 -9.77 -1.66 -9.89 -1.43 -9.94 0 0zm529.05 -207.03l60.2 -83.36 0.07 0.05 6.2 4.61 6.05 4.71 5.93 4.84 5.78 4.97 5.62 5.06 5.49 5.21 5.34 5.32 5.14 5.4 5.04 5.56 4.88 5.67 4.72 5.79 4.53 5.89 4.38 5.98 4.25 6.16 4.04 6.21 3.88 6.33 3.7 6.43 3.52 6.48 3.38 6.65 3.21 6.77 2.99 6.77 2.85 6.91 2.66 7 2.48 7.03 2.31 7.16 2.14 7.24 1.96 7.27 1.8 7.39 1.62 7.49 1.43 7.49 1.27 7.56 1.11 7.66 -101.92 13.56 -0.77 -5.32 -0.89 -5.26 -0.99 -5.15 -1.08 -4.99 -1.2 -4.93 -1.3 -4.87 -1.4 -4.74 -1.51 -4.64 -1.62 -4.61 -1.7 -4.48 -1.81 -4.39 -1.93 -4.37 -1.99 -4.21 -2.12 -4.15 -2.24 -4.14 -2.34 -4.05 -2.44 -3.97 -2.54 -3.91 -2.63 -3.82 -2.78 -3.8 -2.89 -3.75 -3 -3.67 -3.1 -3.63 -3.24 -3.56 -3.4 -3.56 -3.48 -3.48 -3.61 -3.41 -3.76 -3.4 -3.88 -3.33 -4.01 -3.28 -4.17 -3.25 -4.3 -3.19 0.07 0.05zm-158.68 -37.54l-13.56 -101.92 0 0 7.92 -0.97 7.89 -0.81 7.88 -0.63 7.81 -0.46 7.86 -0.3 7.78 -0.1 7.72 0.06 7.68 0.23 7.69 0.41 7.69 0.59 7.57 0.77 7.58 0.95 7.53 1.14 7.44 1.3 7.45 1.49 7.39 1.67 7.29 1.85 7.29 2.03 7.23 2.22 7.17 2.39 7.11 2.58 7.01 2.74 6.98 2.93 6.88 3.09 6.84 3.27 6.77 3.46 6.7 3.62 6.6 3.79 6.53 3.94 6.46 4.12 6.39 4.28 6.31 4.45 -60.2 83.36 -4.37 -3.09 -4.39 -2.94 -4.42 -2.82 -4.47 -2.7 -4.48 -2.57 -4.48 -2.42 -4.51 -2.3 -4.54 -2.17 -4.6 -2.07 -4.6 -1.93 -4.67 -1.82 -4.67 -1.7 -4.71 -1.57 -4.75 -1.46 -4.79 -1.33 -4.89 -1.23 -4.87 -1.11 -4.93 -0.99 -5.04 -0.88 -5.03 -0.76 -5.1 -0.63 -5.19 -0.53 -5.19 -0.41 -5.27 -0.27 -5.38 -0.17 -5.44 -0.04 -5.48 0.08 -5.5 0.2 -5.65 0.34 -5.68 0.45 -5.75 0.59 -5.84 0.71 0 0zm-136.27 77.66l-80.8 -63.6 -0.05 0.07 4.82 -6.01 4.91 -5.85 5.05 -5.74 5.15 -5.6 5.25 -5.44 5.38 -5.31 5.48 -5.16 5.57 -5 5.68 -4.85 5.78 -4.7 5.91 -4.56 6.04 -4.42 6.09 -4.22 6.2 -4.08 6.32 -3.92 6.38 -3.74 6.51 -3.6 6.58 -3.42 6.66 -3.26 6.77 -3.09 6.84 -2.92 6.93 -2.76 6.98 -2.58 7.08 -2.43 7.19 -2.26 7.24 -2.09 7.27 -1.91 7.37 -1.76 7.44 -1.59 7.5 -1.42 7.57 -1.26 7.62 -1.1 13.56 101.92 -5.4 0.78 -5.31 0.88 -5.2 1 -5.12 1.09 -5.03 1.2 -4.99 1.31 -4.84 1.39 -4.75 1.5 -4.7 1.61 -4.66 1.72 -4.53 1.8 -4.48 1.92 -4.39 2.01 -4.34 2.12 -4.28 2.22 -4.19 2.32 -4.16 2.44 -4.06 2.52 -4.04 2.66 -3.99 2.76 -3.88 2.84 -3.85 2.98 -3.82 3.1 -3.78 3.23 -3.73 3.34 -3.66 3.44 -3.6 3.57 -3.59 3.72 -3.53 3.82 -3.47 3.96 -3.45 4.11 -3.4 4.23 -0.05 0.07zm-40.97 146.21l-101.92 13.58 0 -0.01 -0.92 -7.54 -0.73 -7.53 -0.56 -7.52 -0.37 -7.46 -0.19 -7.48 0 -7.46 0.18 -7.4 0.37 -7.41 0.56 -7.39 0.74 -7.35 0.94 -7.28 1.12 -7.29 1.32 -7.25 1.49 -7.17 1.71 -7.2 1.88 -7.09 2.05 -7.02 2.27 -7.05 2.44 -6.95 2.62 -6.87 2.8 -6.83 2.99 -6.78 3.17 -6.73 3.34 -6.63 3.5 -6.56 3.71 -6.55 3.86 -6.42 4.03 -6.39 4.22 -6.32 4.34 -6.19 4.52 -6.17 4.69 -6.1 80.8 63.6 -3.29 4.28 -3.16 4.29 -3.02 4.33 -2.86 4.28 -2.71 4.29 -2.6 4.34 -2.43 4.29 -2.32 4.34 -2.2 4.37 -2.05 4.33 -1.91 4.34 -1.8 4.39 -1.68 4.43 -1.56 4.41 -1.41 4.39 -1.31 4.48 -1.2 4.51 -1.05 4.46 -0.95 4.57 -0.84 4.57 -0.7 4.61 -0.6 4.68 -0.48 4.69 -0.36 4.73 -0.23 4.77 -0.12 4.88 0 4.88 0.13 4.92 0.25 5.04 0.36 5.04 0.51 5.11 0.62 5.18 0 -0.01zm78.93 129.82l-59.5 83.86 -0.07 -0.05 -6.28 -4.58 -6.11 -4.67 -6 -4.82 -5.85 -4.92 -5.71 -5.05 -5.53 -5.16 -5.41 -5.28 -5.28 -5.43 -5.07 -5.5 -4.92 -5.61 -4.78 -5.75 -4.61 -5.84 -4.46 -5.98 -4.3 -6.11 -4.11 -6.19 -3.93 -6.29 -3.77 -6.4 -3.59 -6.51 -3.41 -6.57 -3.24 -6.71 -3.06 -6.78 -2.87 -6.86 -2.71 -6.97 -2.52 -7.05 -2.34 -7.11 -2.17 -7.21 -1.98 -7.28 -1.8 -7.33 -1.64 -7.44 -1.44 -7.47 -1.29 -7.55 -1.1 -7.63 101.92 -13.58 0.76 5.23 0.87 5.15 0.98 5.05 1.08 4.92 1.2 4.87 1.3 4.76 1.39 4.65 1.52 4.61 1.6 4.49 1.71 4.39 1.83 4.36 1.92 4.26 2.02 4.17 2.15 4.15 2.23 4.05 2.35 3.98 2.47 3.95 2.57 3.87 2.66 3.79 2.8 3.74 2.93 3.74 3.04 3.65 3.18 3.63 3.31 3.58 3.38 3.49 3.55 3.46 3.71 3.44 3.81 3.37 3.95 3.34 4.1 3.28 4.25 3.25 4.38 3.2 -0.07 -0.05zm161.06 37.51l13.56 101.92 0.01 0 -7.97 0.98 -7.95 0.82 -7.97 0.64 -7.86 0.46 -7.82 0.3 -7.88 0.13 -7.8 -0.06 -7.73 -0.22 -7.74 -0.4 -7.66 -0.58 -7.65 -0.75 -7.67 -0.95 -7.53 -1.11 -7.5 -1.29 -7.53 -1.48 -7.43 -1.67 -7.35 -1.83 -7.3 -2.01 -7.28 -2.19 -7.22 -2.38 -7.17 -2.55 -7.08 -2.74 -7.01 -2.89 -6.96 -3.09 -6.86 -3.24 -6.84 -3.42 -6.76 -3.61 -6.64 -3.74 -6.63 -3.94 -6.53 -4.1 -6.43 -4.24 -6.38 -4.42 59.5 -83.86 4.46 3.08 4.51 2.98 4.49 2.82 4.51 2.68 4.58 2.58 4.56 2.43 4.58 2.3 4.66 2.2 4.64 2.05 4.71 1.95 4.72 1.82 4.73 1.69 4.78 1.58 4.82 1.45 4.9 1.35 4.95 1.23 4.97 1.11 4.95 0.98 5.1 0.87 5.15 0.77 5.13 0.63 5.23 0.51 5.32 0.4 5.34 0.28 5.45 0.16 5.48 0.04 5.5 -0.09 5.66 -0.22 5.72 -0.34 5.71 -0.46 5.83 -0.6 5.91 -0.72 0.01 0zm133.21 -77.23l81.12 63.18 0 0.01 -4.77 5.98 -4.87 5.84 -4.98 5.72 -5.08 5.58 -5.18 5.42 -5.3 5.3 -5.4 5.15 -5.52 5.01 -5.61 4.86 -5.72 4.71 -5.8 4.53 -5.89 4.38 -6.06 4.27 -6.11 4.08 -6.22 3.93 -6.3 3.74 -6.39 3.61 -6.53 3.44 -6.55 3.25 -6.66 3.1 -6.74 2.92 -6.82 2.77 -6.96 2.61 -6.97 2.42 -7.01 2.24 -7.18 2.11 -7.19 1.91 -7.27 1.75 -7.35 1.58 -7.36 1.41 -7.45 1.26 -7.53 1.08 -13.56 -101.92 5.21 -0.76 5.15 -0.86 5.08 -0.97 4.93 -1.06 4.89 -1.19 4.79 -1.27 4.68 -1.37 4.67 -1.5 4.59 -1.58 4.44 -1.67 4.42 -1.79 4.36 -1.9 4.3 -2 4.25 -2.11 4.13 -2.18 4.11 -2.31 4.06 -2.42 4 -2.53 3.95 -2.62 3.86 -2.73 3.87 -2.88 3.82 -2.99 3.76 -3.09 3.71 -3.2 3.66 -3.33 3.62 -3.45 3.58 -3.58 3.56 -3.74 3.5 -3.82 3.46 -3.98 3.43 -4.12 3.37 -4.24 0 0.01zm40.77 -145.17l101.92 -13.56 0 0 0.91 7.43 0.73 7.47 0.54 7.46 0.36 7.35 0.19 7.42 -0.01 7.4 -0.18 7.3 -0.37 7.35 -0.56 7.34 -0.75 7.27 -0.93 7.26 -1.12 7.21 -1.3 7.17 -1.5 7.16 -1.68 7.09 -1.87 7.06 -2.06 7.05 -2.22 6.9 -2.42 6.93 -2.62 6.87 -2.76 6.78 -2.96 6.74 -3.12 6.66 -3.34 6.67 -3.48 6.54 -3.63 6.46 -3.84 6.45 -3.99 6.36 -4.15 6.28 -4.32 6.24 -4.49 6.16 -4.63 6.08 -81.12 -63.18 3.29 -4.32 3.13 -4.3 2.98 -4.3 2.85 -4.32 2.71 -4.32 2.56 -4.31 2.45 -4.36 2.32 -4.34 2.14 -4.29 2.04 -4.36 1.92 -4.36 1.8 -4.4 1.66 -4.35 1.52 -4.39 1.44 -4.46 1.3 -4.41 1.17 -4.44 1.06 -4.49 0.94 -4.48 0.82 -4.55 0.72 -4.59 0.59 -4.58 0.47 -4.65 0.36 -4.66 0.23 -4.69 0.12 -4.84 0.01 -4.78 -0.13 -4.84 -0.24 -4.97 -0.36 -4.94 -0.49 -4.99 -0.61 -5.09 0 0zm387.63 -322.29l-86.49 11.51 -13.56 -101.92 86.49 -11.51 57.74 44.18 -44.18 57.74zm-13.56 -101.92c28.14,-3.74 54,16.04 57.74,44.18 3.74,28.14 -16.04,54 -44.18,57.74l-13.56 -101.92zm17.55 521.74l-61.73 -464 101.92 -13.56 61.73 464 -101.92 13.56zm-74.79 254.42l-13.58 -101.92 0.01 0 7.71 -1.18 7.27 -1.4 6.78 -1.61 6.3 -1.8 5.87 -1.99 5.43 -2.14 4.99 -2.29 4.64 -2.44 4.27 -2.57 3.88 -2.65 3.58 -2.8 3.35 -2.97 3.09 -3.11 2.91 -3.31 2.69 -3.49 2.52 -3.75 2.38 -4.05 2.24 -4.38 2.07 -4.7 1.9 -5.08 1.73 -5.51 1.54 -5.93 1.32 -6.33 1.1 -6.8 0.86 -7.22 0.58 -7.66 0.32 -8.17 0.03 -8.56 -0.28 -8.99 -0.58 -9.48 -0.9 -9.86 -1.23 -10.28 101.92 -13.56 1.57 13.04 1.16 12.82 0.78 12.54 0.38 12.35 -0.05 12.14 -0.46 11.89 -0.9 11.72 -1.36 11.5 -1.82 11.28 -2.32 11.07 -2.82 10.83 -3.33 10.59 -3.88 10.36 -4.43 10.08 -4.98 9.76 -5.54 9.41 -6.12 9.07 -6.67 8.65 -7.17 8.19 -7.69 7.73 -8.15 7.21 -8.62 6.74 -9.06 6.21 -9.37 5.63 -9.72 5.12 -10.07 4.61 -10.37 4.1 -10.63 3.59 -10.9 3.12 -11.16 2.65 -11.37 2.2 -11.65 1.78 0.01 0zm-165.49 -85.79l94.12 41.4 -28.97 -68.83 2.89 1.07 2.9 1.02 2.89 0.98 2.88 0.92 2.84 0.88 2.78 0.81 2.84 0.78 2.82 0.73 2.81 0.69 2.77 0.64 2.7 0.57 2.77 0.55 2.75 0.5 2.72 0.45 2.73 0.42 2.65 0.35 2.69 0.32 2.68 0.28 2.68 0.23 2.68 0.19 2.58 0.14 2.66 0.1 2.64 0.06 2.56 0.02 2.64 -0.03 2.69 -0.07 2.55 -0.11 2.55 -0.15 2.68 -0.21 2.6 -0.23 2.55 -0.28 2.59 -0.32 13.58 101.92 -4.25 0.54 -4.31 0.46 -4.24 0.39 -4.2 0.31 -4.33 0.27 -4.33 0.17 -4.19 0.11 -4.28 0.05 -4.34 -0.02 -4.28 -0.1 -4.28 -0.16 -4.34 -0.24 -4.28 -0.31 -4.28 -0.37 -4.28 -0.44 -4.27 -0.5 -4.33 -0.59 -4.27 -0.64 -4.28 -0.71 -4.25 -0.78 -4.25 -0.83 -4.34 -0.93 -4.25 -0.98 -4.23 -1.03 -4.24 -1.11 -4.22 -1.16 -4.3 -1.25 -4.24 -1.3 -4.2 -1.36 -4.21 -1.42 -4.2 -1.48 -4.23 -1.55 -28.97 -68.83zm28.97 68.83c-26.58,-9.99 -40.03,-39.64 -30.04,-66.22 9.99,-26.58 39.64,-40.03 66.22,-30.04l-36.18 96.26zm98.54 -103.33l-33.39 75.9 -94.12 -41.4 33.39 -75.9 57.1 -29.72 37.02 71.12zm-94.12 -41.4c11.43,-25.99 41.77,-37.79 67.76,-26.36 25.99,11.43 37.79,41.77 26.36,67.76l-94.12 -41.4zm110.36 -25.09l13.54 101.92 0.02 0 -2.55 0.32 -2.55 0.27 -2.42 0.23 -2.57 0.2 -2.57 0.15 -2.43 0.12 -2.6 0.1 -2.6 0.06 -2.61 0.02 -2.62 -0.01 -2.64 -0.04 -2.51 -0.07 -2.66 -0.1 -2.67 -0.13 -2.57 -0.15 -2.82 -0.19 -2.61 -0.21 -2.63 -0.23 -2.87 -0.28 -2.77 -0.3 -2.69 -0.31 -2.83 -0.34 -2.84 -0.38 -2.73 -0.38 -2.88 -0.42 -2.91 -0.45 -2.94 -0.47 -2.93 -0.51 -2.87 -0.5 -2.99 -0.55 -3.01 -0.57 -3.01 -0.59 20.08 -100.84 2.41 0.47 2.35 0.45 2.29 0.41 2.35 0.42 2.21 0.37 2.14 0.35 2.11 0.33 2.08 0.3 2.15 0.3 1.96 0.26 1.93 0.24 1.99 0.23 1.85 0.2 1.67 0.16 1.85 0.15 1.81 0.15 1.52 0.11 1.71 0.09 1.53 0.09 1.5 0.04 1.55 0.05 1.38 0.02 1.32 0.01 1.27 -0.02 1.2 -0.02 1.16 -0.04 1.23 -0.06 1.05 -0.07 0.97 -0.08 1.06 -0.09 0.85 -0.09 0.79 -0.1 0.02 0zm11.82 -42.73l101.92 -13.56 0 0 0.83 6.83 0.66 6.81 0.46 6.74 0.26 6.58 0.08 6.62 -0.15 6.56 -0.35 6.42 -0.6 6.47 -0.85 6.43 -1.1 6.27 -1.39 6.36 -1.71 6.31 -2 6.15 -2.34 6.1 -2.69 6.03 -3.08 5.93 -3.46 5.77 -3.79 5.53 -4.15 5.31 -4.53 5.09 -4.87 4.78 -5.12 4.42 -5.41 4.1 -5.6 3.7 -5.79 3.34 -6.02 2.99 -6 2.57 -6.15 2.24 -6.3 1.93 -6.36 1.59 -6.33 1.26 -6.35 0.98 -13.54 -101.92 2.01 -0.32 1.73 -0.34 1.38 -0.35 1.12 -0.33 0.95 -0.36 0.8 -0.33 0.46 -0.23 0.37 -0.22 0.26 -0.16 0.13 -0.1 0.1 -0.08 0.05 -0.06 0.07 -0.07 0.13 -0.17 0.19 -0.27 0.2 -0.35 0.26 -0.51 0.33 -0.73 0.38 -1 0.4 -1.25 0.39 -1.41 0.37 -1.7 0.36 -2.09 0.31 -2.27 0.22 -2.53 0.17 -2.92 0.07 -3.08 -0.04 -3.36 -0.16 -3.72 -0.26 -3.88 -0.4 -4.11 -0.53 -4.43 0 0zm38.41 -490.96l63.51 477.4 -101.92 13.56 -63.51 -477.4 44.18 -57.74 57.74 44.18zm-101.92 13.56c-3.74,-28.14 16.04,-54 44.18,-57.74 28.14,-3.74 54,16.04 57.74,44.18l-101.92 13.56zm319.73 9.32l-86.49 11.51 -13.56 -101.92 86.49 -11.51 57.74 44.18 -44.18 57.74zm-13.56 -101.92c28.14,-3.74 54,16.04 57.74,44.18 3.74,28.14 -16.04,54 -44.18,57.74l-13.56 -101.92zm40.03 690.65l-84.21 -632.91 101.92 -13.56 84.21 632.91 -44.18 57.74 -57.74 -44.18zm101.92 -13.56c3.74,28.14 -16.04,54 -44.18,57.74 -28.14,3.74 -54,-16.04 -57.74,-44.18l101.92 -13.56zm-144.23 -32.67l86.49 -11.51 13.56 101.92 -86.49 11.51 -57.74 -44.18 44.18 -57.74zm13.56 101.92c-28.14,3.74 -54,-16.04 -57.74,-44.18 -3.74,-28.14 16.04,-54 44.18,-57.74l13.56 101.92zm-40.03 -690.65l84.21 632.91 -101.92 13.56 -84.21 -632.91 44.18 -57.74 57.74 44.18zm-101.92 13.56c-3.74,-28.14 16.04,-54 44.18,-57.74 28.14,-3.74 54,16.04 57.74,44.18l-101.92 13.56z"/>
    <path id="1" class="fil4" d="M337.96 1476.5l295.76 -39.35 -1.28 85.09 -209.61 27.89 -2.32 162.89 208.94 -27.8 -1.01 87.12 -209.28 27.84 -4.46 310.23 -87.51 11.64 10.77 -645.55zm385.96 -51.35l84.79 -11.28 -5.19 440.97c-0.04,4.84 0.57,12.01 1.83,21.5 4.85,36.47 20.54,63.55 47.03,81.08 26.32,17.55 60.6,23.52 102.66,17.93 48.51,-6.46 86.32,-24.44 113.78,-54.15 27.48,-29.54 41.55,-67.83 42.39,-114.72l5.47 -433.58 85.98 -11.44 -8.92 455.62c-1,65.2 -21.72,119.56 -62.23,162.75 -40.32,43.33 -94.65,69.54 -162.82,78.61 -67.84,9.03 -123.97,-1.63 -168.39,-31.96 -44.42,-30.33 -70.65,-75.68 -78.66,-135.89 -1.38,-10.35 -1.99,-22.69 -1.84,-37.21l4.12 -428.23zm1018.65 -77.54l-14.21 103.38c-63.05,-50.99 -130.52,-71.7 -202.26,-62.15 -71.73,9.54 -128.71,41.8 -171.1,96.81 -42.39,55 -58.89,117.77 -49.5,188.32 9,67.67 39.54,122.11 91.62,163.34 52.07,41.05 111.17,57.18 177.31,48.38 52.06,-6.93 105.31,-30.93 159.73,-72l-0.47 106.72c-50.09,30.83 -98.03,49.29 -143.65,55.36 -94.12,12.53 -176.86,-8.74 -248.56,-63.75 -71.69,-55.01 -113.73,-129.67 -126.3,-224.13 -13.04,-98.03 9.67,-184.23 68.09,-258.8 58.59,-74.59 138.02,-118.46 238.24,-131.8 72.93,-9.7 146.61,7.07 221.06,50.32zm64.64 -66.59l84.28 -11.21 -3.04 256.01 220.97 -285.01 118.71 -15.79 -257.71 334.42 326.66 300.52 -109.39 14.55 -300.08 -275.92 -3.83 316.35 -84.28 11.22 7.71 -645.14zm436.67 -58.1l351.05 -46.7 11.5 86.49 -264.55 35.2 20.84 156.7 264.56 -35.2 11.51 86.49 -264.56 35.2 28.84 216.73 264.56 -35.2 11.5 86.49 -351.04 46.71 -84.21 -632.91zm904.27 -147.23l261.21 636.28 -83.77 11.14 -160.13 -390.15 -122.72 452.64 -237.81 -405.88 -52.04 419.59 -84.29 11.22 84.74 -682.32 261.03 445.43 133.78 -497.95zm215.11 315.87c-12.16,-91.41 11.86,-174.17 72.05,-248.46 60.36,-74.3 138.78,-117.87 235.45,-130.73 94.46,-12.57 180.07,9.52 257.15,66.06 76.91,56.56 121.35,129.86 133.38,220.25 12.7,95.49 -10.31,180.7 -68.86,255.62 -58.71,74.96 -136.91,119.02 -234.93,132.06 -96.83,12.88 -183.51,-9.42 -260.19,-66.87 -76.85,-57.43 -121.48,-133.47 -134.05,-227.93zm607.1 -75.77c-9.27,-69.7 -42.18,-125.04 -98.91,-166.16 -56.71,-40.96 -121.96,-56.61 -195.56,-46.82 -69.87,9.3 -126.51,41.51 -169.89,96.82 -43.4,55.14 -60.58,116.79 -51.53,184.8 9.19,69.02 42.55,123.95 100.14,164.96 57.55,40.84 123.31,56.43 197.59,46.54 68.35,-9.09 123.94,-41.34 166.99,-96.6 43.04,-55.26 60.08,-116.56 51.17,-183.54zm243.4 -354.96l86.49 -11.51 61.73 464c16.79,126.17 -27.39,196.26 -132.54,210.24 -36.46,4.86 -73.67,0.14 -111.64,-14.13l33.39 -75.9c29.08,5.79 52.43,7.52 70.07,5.17 45.45,-6.04 64.11,-39.59 56.01,-100.47l-63.51 -477.4zm175.5 -23.35l86.49 -11.51 84.21 632.91 -86.49 11.51 -84.21 -632.91z"/>
   </g>
   <g>
    <path class="fil5" d="M3681.66 1133.58c38.69,41.09 36.69,-3.56 104.01,1.42 25.35,1.87 79.42,32.1 79.18,-9.53 -0.29,-49.05 -149.19,-62.52 -183.19,8.11z"/>
    <path class="fil5" d="M3486.23 1328.59c43.92,-28.37 23.85,-35.38 51.54,-73.2 35.95,-49.1 55.95,-22.12 61.32,-80.74 -41.33,-9.14 -69.33,13.26 -100.84,54.73 -33.12,43.58 -43.66,62.16 -12.02,99.21z"/>
    <path class="fil6" d="M3820.53 1557.74c89.33,-44.43 146.88,-126.51 120.06,-205.45 -91.49,38.42 38.12,63.74 -151.27,167.67 -65.51,35.96 -39.11,17.47 -33.08,61.83l64.29 -24.05z"/>
    <path class="fil6" d="M3552.92 1431.67c9.93,-34.17 8.22,-55.18 45.41,-84.36l53.3 86.71 36.84 -29.2c-4.92,-181.08 -228.91,-50.28 -135.55,26.85z"/>
    <path class="fil5" d="M3766.33 1326.92c35.55,-48.25 -17.87,-36.58 54.07,-90.17l51.89 88.49 36.88 -31.06c-11.77,-149.3 -196.99,-106.6 -142.84,32.74z"/>
    <path class="fil7" d="M3820.53 1557.74l-64.29 24.05c-6.03,-44.36 -32.43,-25.87 33.08,-61.83 189.39,-103.93 59.78,-129.25 151.27,-167.67 26.82,78.94 -30.73,161.02 -120.06,205.45zm-54.2 -230.82c-54.15,-139.34 131.07,-182.04 142.84,-32.74l-36.88 31.06 -51.89 -88.49c-71.94,53.59 -18.52,41.92 -54.07,90.17zm-213.41 104.75c-93.36,-77.13 130.63,-207.93 135.55,-26.85l-36.84 29.2 -53.3 -86.71c-37.19,29.18 -35.48,50.19 -45.41,84.36zm-66.69 -103.08c-31.64,-37.05 -21.1,-55.63 12.02,-99.21 31.51,-41.47 59.51,-63.87 100.84,-54.73 -5.37,58.62 -25.37,31.64 -61.32,80.74 -27.69,37.82 -7.62,44.83 -51.54,73.2zm195.43 -195.01c34,-70.63 182.9,-57.16 183.19,-8.11 0.24,41.63 -53.83,11.4 -79.18,9.53 -67.32,-4.98 -65.32,39.67 -104.01,-1.42zm-151.93 -30.92c-323.19,292.47 97.01,777.23 400.36,487.13 290.46,-277.78 -85.42,-772.13 -400.36,-487.13z"/>
   </g>
  </g>
 </g>
</svg>
