<?xml version="1.0" encoding="UTF-8"?>
<!DOCTYPE svg PUBLIC "-//W3C//DTD SVG 1.1//EN" "http://www.w3.org/Graphics/SVG/1.1/DTD/svg11.dtd">
<!-- Creator: CorelDRAW 2017 -->
<svg xmlns="http://www.w3.org/2000/svg" xml:space="preserve" width="50.7998mm" height="33.8666mm" version="1.1" style="shape-rendering:geometricPrecision; text-rendering:geometricPrecision; image-rendering:optimizeQuality; fill-rule:evenodd; clip-rule:evenodd"
viewBox="0 0 5079.98 3386.66"
 xmlns:xlink="http://www.w3.org/1999/xlink">
 <defs>
  <style type="text/css">
   <![CDATA[
    .fil0 {fill:none}
    .fil1 {fill:#DCD9D5}
    .fil6 {fill:#CF3539}
    .fil11 {fill:#D28D8E}
    .fil4 {fill:#CA8358}
    .fil8 {fill:#9A3235}
    .fil15 {fill:#B0C2D6}
    .fil10 {fill:#B2B1AE}
    .fil13 {fill:#68473A}
    .fil12 {fill:#8B94AC}
    .fil14 {fill:#6E6E71}
    .fil16 {fill:#6597C8}
    .fil2 {fill:#352F35}
    .fil7 {fill:#5B3462}
    .fil3 {fill:#316B41}
    .fil9 {fill:#41539E}
    .fil5 {fill:#0D65A8}
   ]]>
  </style>
 </defs>
 <g id="Capa_x0020_1">
  <metadata id="CorelCorpID_0Corel-Layer"/>
  <rect class="fil0" x="-0" width="5079.99" height="3386.66"/>
  <g id="_2450507068688">
   <path class="fil1" d="M387.85 2258.37c72.64,23.41 96.44,52.93 216.09,58.51 24.3,1.13 67.44,-11.57 86.23,1.34 -19.44,24.24 -141.62,14.66 -174.07,6.58 -35.38,-8.8 -121.56,-38.94 -128.25,-66.43zm367.62 51.83c6.36,-18.47 4.24,-13.47 23.75,-20.11 17.61,-6.01 51.92,-30.23 79.16,-38.96 -3.67,31 -66.25,56.57 -102.91,59.07zm-411.7 -325.92c-4.02,7.91 -7.16,10.61 -19.21,13.07 -23.87,4.88 -61.26,-0.75 -76.91,-15.5 3.92,-3.05 -4.82,-0.78 7.91,-4.36l30.67 -1.82c14.61,-0.09 29.2,0.18 43.82,0.07 32.58,-9.04 51.6,-38.13 70.83,-56.7 3.65,26.63 -34.22,63.5 -57.11,65.24zm-117.84 -52.8c-36.53,-6.62 -68.41,-47.55 -67.75,-95.2 0.67,-47.34 26.41,-84.93 63.32,-94.4 81.49,-21.83 154.53,10.75 155.34,94.58 0.68,71.03 -85.53,129.49 -150.91,95.02zm227.49 44.52c-2.24,-38.35 74.26,-94.98 96.01,-119.25 12.3,-13.73 93.23,-113.79 114.65,-91.17 23.03,24.32 -80.26,104.32 -91.43,114.39 -25.46,22.94 -75.91,98.33 -119.23,96.03zm-34.66 -172.59c-7.9,-8.55 -15.15,-35.8 -22.53,-47.89 -42.54,-69.78 -113.11,-59.22 -135.19,-70.52 49.27,-5.3 90.83,-3.43 118.88,25.38 16.81,17.26 58.42,57.91 38.84,93.03zm319.67 27.22l0.77 -13.73c-48.39,-42.59 -32.98,-39.5 -25.97,-61.84 -37.54,-1.57 -60.53,4.31 -87.13,-18.3l-61.43 -70.7c-7.61,-5.4 -4.67,-0.48 -9.57,-11.2 -2.69,-5.9 -2.17,-6.42 -3.14,-12.69 -10.45,-9.97 -4.8,-10.34 -11.18,-21.45 -6.13,-10.65 -5.48,-5.24 -15.09,-13.96 -11.19,-10.17 -13.29,-21.01 -25.85,-32.38 -10.83,-9.81 -64.68,-42.9 -41.5,-64.33 21.36,-17.53 60.67,37.28 70.4,50.52l2.78 -22.5c2.87,-20 -5.93,-51.73 7.17,-66.21 16.68,2.5 6.7,-1.2 12.38,8.07l196.3 153.72c25.39,10.98 35.8,-17 50.13,-30.37 16.07,-15.01 23.46,-30.39 43.66,-37.81l-2.76 -13.26 -2.73 -19.95 13.96 3.28 8.5 6.24c11.21,-5.85 32.61,-25.24 37.07,-36.8 -8.64,-4.59 -5.62,-2.17 -13.41,-11.44 -9.04,-13.45 -176.36,-87.91 -205.28,-92.25 -94.45,-14.17 -174.49,11.33 -257.87,33.66 -94.27,25.24 -214.78,108.09 -256.01,193.76 -7.67,15.95 -17.53,35.44 -19.85,55.51 -7.89,68.28 8.52,39.13 18.85,45.36 -7.19,29.1 -22.07,37.53 -27.14,81.21 -2.11,18.2 6.92,99.37 6.29,100.57 -7.43,13.85 -18.1,-17.39 -15.01,34.68 2.23,37.41 18.33,104.16 35.48,138.05 110.93,219.21 373.18,323.75 606.66,246.48 90.19,-29.85 220.15,-131.03 232.65,-218.85l-401.57 -201.87 139.44 -79.22z"/>
   <path class="fil2" d="M3623.16 2012.71c-19.79,-16.28 -22.42,-71.88 3.17,-70.43 19.67,1.11 28.87,60.48 -3.17,70.43zm879.89 -40.19l3.69 53.96 20.93 20.06c-29.47,66.8 -158.93,4.55 -108.69,-147.91 6.15,-24.23 14.15,-36.06 33.93,-42.48 2.98,-8.66 3.31,-8.93 17.42,-11.14 8.16,-1.27 13.48,-0.96 20.9,0.26l0.35 11.95c24.83,13.3 2.51,84.3 31.73,58.24 0.19,-10.12 4.7,-21.59 12.57,-27.16 8.43,5.78 15.64,10.92 12.96,25.51 13.53,9.29 10.51,14.22 8.78,32.08 -16.24,-2.85 -6.69,-8.84 -32.42,-4.9 8.55,18 7.52,2.58 19.4,16.03 5.58,6.33 6.81,16.16 7.36,24.95 1.23,19.77 -4.41,38.33 -22.55,40.95 -16.18,-9.49 -14.55,-28.43 -16.49,-51.83l-9.87 1.43zm-989.91 51.46c-1.17,-38.03 -65.6,-91.45 58.25,-101.1l41.95 -8.96c16.42,-0.77 28.47,-1.85 40.18,6.48l0.06 16.48c-12.07,-2.5 -18.2,-8.38 -27.18,-12.57 -19.35,6.6 -31.49,28.76 -29.81,57.6 2.71,46.65 23.75,27.2 27.33,58.16l-13.17 10.31c-39.94,29.51 -73.46,17.7 -97.61,-26.4zm-11.41 -105.13c-1.8,-42.42 26.06,-90.73 61.91,-96.75 41.16,-6.9 80.31,39.34 78.78,78.58 -28.23,2.66 -47.08,-1.73 -75.14,5.87 -20.24,5.48 -44.26,12.06 -65.55,12.3zm1064.53 -38.74c-8.83,-4.46 -20.89,-16.32 -24.52,-26.54 -2.38,-6.67 -1.95,-16.26 -2.03,-23.8l2.64 -20.26c8.99,3.68 6.02,-0.78 11.51,12.14 6.76,15.89 11.69,40.81 12.4,58.46zm-1305.01 433.09c-37.47,-16.48 -51.14,-92.13 -85.33,-79.89 -36.55,13.08 -49.88,72.52 -90.52,78.11 -9,-30.85 -16.18,-336.02 -7.1,-355.54 13.91,0.76 10.35,-1.52 18,6.75l32.77 3.62c9.3,-81.92 -46.13,-81.31 -0.1,-177.46 25.75,-53.81 56.94,-88.35 98.48,-118.28 126.55,-91.18 212.82,125.32 243.6,145.63 42.54,-37.32 38.26,-153.65 59.38,-174.06 53.85,-24.23 170.51,128.54 136.98,241.49 -25.63,-31.27 -64.63,-121.22 -135.91,-67.76 -115.01,86.26 -30.6,326.28 82.87,251.05 23.11,-15.32 39.03,-37.51 48.85,-70.71 15.14,-51.17 -0.98,-71.88 2.99,-103.28 54.35,22.98 35.35,120.67 34.71,189.25 -0.34,35.8 1.56,198.38 -6.55,220.07 -43.21,3.19 -63.37,-99.4 -111.18,-69.57 -27.97,17.44 -56.6,104.39 -102.57,79.57 -32.48,-17.54 -64.49,-93.56 -110.41,-78.99 -41.56,13.19 -65.19,90.08 -108.96,80zm140.39 -1043.34c15.9,27.84 62.9,85.56 71.69,123.98 18.9,10.2 14.41,-9.73 13.08,-32.53 -1.06,-18.09 -2.23,-36.72 -2.64,-55.12 13.54,3.48 29.74,27.67 35.16,40.62 5.18,5.77 21.33,28.95 24.22,36.58 12.5,16.42 46.8,87.59 48.9,105.77 8.81,8.33 10.41,19.73 13.06,31.99 2.28,10.54 3.36,23.3 8.34,29.12 36.78,-35.95 -4.18,-131.48 9.71,-156.79 21.33,13.96 48.02,74.13 52.45,109.92l13.78 56.89 7.05 20.9c5.56,42.87 5.46,142.56 14.11,153.39 10.57,-3.87 6.45,-2.27 11.84,-15.78 3.03,-7.61 5.42,-12.93 7.4,-21.6 3.39,-14.81 3.81,-31.43 13.5,-41.96l6.31 40.61c0.23,24.51 0.63,50.53 -4.26,75.08 -3.83,19.28 -14.09,38.02 -18.83,58.1 -3.77,15.91 -7.12,19.79 -13.43,32.41 -7.5,15.01 -3.33,24.95 -9,35.96 -29.24,-9.89 15.73,-63.5 -18.99,-132.58 -40.97,-63.65 -58.32,-107.13 -119.83,-142.32 -88.36,-50.52 -62.63,99.85 -93.81,145.1 -46.65,-21.58 -120.87,-205.86 -248.73,-117.97 -35.73,24.56 -84.17,69.07 -104.76,105.97 -40.48,72.51 -27.54,89.97 -13.4,167.39 5.93,8.78 5.07,6.01 3.34,19.24 -44.58,-1.86 -117.16,-60.83 -115.34,-101.54 25.02,4.94 28.5,12.63 59.5,12.76 -11.82,-18.49 -30.99,-26.22 -46.73,-46.61 -32.77,-42.44 -72.5,-143.57 -73.14,-197.58 10.21,2.44 39.01,34.05 48.97,43.84 14.2,13.95 24.87,30.33 52.25,33.56 1.68,-30.45 -28.8,-101.15 -33.57,-142.59 -3.25,-28.32 -2.61,-60.76 -2.26,-89.41 0.29,-23.88 -6.53,-66.11 13.87,-73.36 7.17,5.47 42.39,95.92 79.8,101.07 7.57,-39.51 -10.95,-117.69 3.91,-150.8l17.79 -93.25c10.39,-43.45 83.43,-168.32 109.03,-182.24 2.33,18.91 2.03,32.87 2.09,52.58 0.14,39.13 27.48,108.87 29.46,130.44l-0.41 2.2c17.89,13.48 70.29,112.96 105.96,119.51 1.95,-46.28 -17.17,-106.71 -13.64,-141.17 21.56,6.81 45.63,32.25 56.2,50.22zm1263.72 13.07c-2.11,9.09 -163.27,131.3 -162.37,198.39l0.57 44.5c4.66,1.59 77.22,-70.92 94.14,-83.77 34.75,-26.4 66.8,-49.91 121.32,-63.03 68.87,-16.59 245.49,65.26 254.42,102.06l-42.44 7.81c-68.47,11.8 -207.53,132.83 -220.99,185.3l16.14 -1.03c22.37,-5.72 47.71,-11.98 69.18,-14.9 34.59,-4.69 48.29,4.18 75.71,5.99 18.86,2.37 39.55,10.64 56.14,17.12 17.45,6.81 36.14,12.12 38.63,28.93 -16.84,9.2 -61.69,16.2 -85.79,23.57 -63.12,19.27 -178.34,82.09 -188.07,141.95l25.51 -0.83 5.36 -0.37c30.48,-2.42 47.43,-3.1 77.73,1.27 13.07,2.23 14.38,1.07 20.18,12.17 -5.8,3.26 -181.01,29.91 -183.27,28.44 -11.79,-9.95 -8.88,-58.15 -14.35,-77.27 -23.23,12.14 -8.05,34.81 -32.21,40.35 -2.29,-4.18 -37.68,-151.63 -82.65,-154.97 -0.69,37.43 20.24,52.22 8.75,106.38 -21.23,-1.95 -19.68,-14.28 -31.61,-28.34 -11.51,-13.56 -20.29,-14.89 -26.9,-31.71l-64.59 -34.17c-53.76,-13.95 -64.5,-61.07 -120.05,-23.2 -29.23,19.92 -75.06,60.92 -87.2,92.63l-0.52 23.84c18.85,-3.78 7.47,-5.81 20.98,-15.4 5.91,-23.85 82.15,-104.22 128.06,-82.04 39.62,19.14 130.09,50.59 138.89,90.77 -18.89,17.05 -32.61,5.07 -50.54,33.27 -12.24,19.25 -24.17,31.08 -30.7,56.63 -29.76,116.59 62.63,224.89 134.92,160.72 61,-54.16 31.85,-89.81 53.59,-121.73 3.14,-9.85 12.72,-27.63 22.52,-31.3 8.8,15.4 5.38,346.51 -1.61,378.29 -14.42,21.86 -55.29,-43.87 -66.48,-55.29 -35.29,-36.01 -59.33,7.38 -76.43,30.07 -76.91,102.06 -85.75,-19.9 -151.04,-36.56 -72.9,-18.61 -86.24,137.42 -155.3,46.15 -17.62,-23.28 -31.45,-71.51 -71.18,-44.14 -28.39,19.54 -42.76,65.71 -75.76,66.16l-5.5 -400.3 9.2 -0.54 53.8 71.08 5.87 -4.44c3.81,-40.18 -14.84,-76.38 4.02,-115.36 11.65,-24.1 32.86,-69.97 51.4,-78.95l21.56 46.19c13.63,11.29 5.12,16.39 21.5,23.86l-2.4 -18.16 -30.95 -90.84c-53.46,30.98 -91.19,158.01 -104.65,163.72l-33.84 -79.59 -19.31 86.37c-28.66,10.17 -94.04,28.16 -111.86,-6.29l75.51 -59.54 -4.15 -5.27c-56.03,-2.92 -125.04,-6 -143.9,-53.02 18.96,-64.12 172.01,-46.45 192.74,-61.45 -15.4,-19.37 -71.07,-17.32 -77.95,-54.98 91.56,-31.83 63.55,47.99 124.17,-64.33 23.34,-43.25 47.12,-68.33 108.97,-75.71l21.11 -0.98c20.43,-15.77 71.89,-7.89 99.38,-11.6 21.29,-10.6 122.65,-261.24 331.85,-265.26l-0.04 1.78c0.82,-0.55 1.9,-1.16 2.59,-1.49l15.9 -5.07c31.1,-5.5 96.54,-16.26 121.99,-10.45 -2.99,9.4 -5.02,8.78 -14.13,14.4 -17.52,10.81 -38.9,28.23 -53.57,33.51zm365.72 447.69l0 -6.31c-37.66,-30.4 -54.39,-44.88 -111.66,-67.52 -22.35,-8.84 -142.51,-27.73 -145.35,-30.23 -2.22,-25.23 83.32,-76.08 102.09,-87.36 43.81,-26.32 132.47,-30.55 151.29,-42.49 -0.33,-38.84 -164.13,-125.13 -216.55,-135.78 -148.01,-30.05 -217.52,70.97 -259.57,81.24 23.14,-87.79 237.02,-208.05 244.25,-227.43 -62.86,-19.61 -249.33,10.14 -307.41,33.8 -67.77,27.6 -155.93,115.04 -187.21,162.17 -35.81,53.98 -21.24,76.95 -95.27,79.87 -89.47,3.54 -71.28,12.52 -134.36,39.94 -46.87,20.39 -49.56,55.66 -75.47,99.3 -32.3,54.4 -116.5,-13.24 -140.8,4.23l54.14 75.2 -142.69 52.46 -24.62 -231.46 -10.81 0.97 -6.51 66.75c-20.34,-16.15 -52.35,-252.96 -137.78,-271.74l20.19 103.97 -6.47 1.26c-16.67,-8.02 -89.78,-173.27 -161.91,-190.99l23.33 66.75c-21.44,7.48 -87.91,-140.81 -161.3,-143.05l43.24 144.83 -8.56 2.55c-26.84,-6.34 -71.71,-93.26 -81.08,-131.77 -20.66,-84.92 -3.61,-111.42 -5.37,-190.85l-5.55 0c-35.79,53.96 -77.85,85.73 -127.98,184.68 -73.85,145.77 -33.22,186.39 -42.09,262.43 -42.84,-10.43 -48.36,-119.5 -65.03,-126.17 -25.24,9.13 -34.11,123.72 -33.13,157.82 1.41,48.97 25.42,146.31 23.08,170.5 -49.32,-7.33 -71.38,-108.58 -98.58,-136.84 -9.99,61.66 35.27,199.51 60.5,260.7 16.83,40.82 -6.39,4.3 -1.96,46.26 3.92,37.21 24.75,70.06 42.01,91.06 77.39,94.2 54,40.3 54.11,198.91 0.03,60.39 -9.63,201.65 25.18,235.03 44.82,5.51 72.48,-68.62 103.57,-78.33 32.5,16.07 36.42,89.18 95.63,81.36 48.53,-6.41 71.41,-72.34 105.04,-80.7 38.06,12.04 66.33,80.18 110.86,84.1 58.35,5.13 67.68,-76 109.22,-84.53 23.24,8.77 65.72,95.68 99.59,72.83 34.23,-14.39 22.86,-217.56 22.86,-268.57 0,-113.32 -10.48,-165.71 32.91,-261.89l125.89 64.91 -48.98 34.23c11.86,49.11 93.19,38.7 137.98,45.53 9.88,32.57 6.28,242.92 6.16,295.15 -0.49,205.37 86.36,24.57 128.9,23.18 21.6,21 37.22,93.65 97.77,75.19 36.51,-11.12 66.31,-84.95 102.61,-69.97 21.67,8.94 56.34,79.49 102.41,74.23 48.44,-5.52 67.24,-71.18 98.15,-82.1 37.71,16.37 113.47,175.68 121,-19.81 2.57,-66.63 -7.53,-241.57 4.11,-293.3l240.64 -43.84c-8.2,-48.64 -99.11,-45.72 -129.33,-57.76 8.11,-35.6 74.28,-65.34 117.16,-80.52 57.52,-20.36 129.27,-18.55 167.51,-32.08z"/>
   <path class="fil3" d="M1327.51 2146.8c-0.04,-23.48 -0.05,-48.85 16.88,-57.3 7.66,19.24 7.88,53.1 7.65,76.71 -0.15,15.81 1.24,58.08 -10.67,70.5 -9.69,-4.32 -8.14,-1.22 -10.22,-15.38l-3.64 -74.53zm567.32 120.59c-22.7,-9.1 -6.89,-16.76 -7.01,-42.78l1.86 -120.93c1.06,-41.39 -5.02,-44.39 11.62,-48.43 9,19.93 1.42,84.22 0.63,110.96 -0.75,25.48 12.41,86.47 -7.1,101.18zm-355.85 -418.99c107.53,-45.08 153.82,227.75 37.01,251.5 -107.7,21.91 -173.84,-194.15 -37.01,-251.5zm251.38 -1.02c111.03,-14.7 134.61,232.02 15.11,252.33 -110.6,18.79 -142.39,-235.47 -15.11,-252.33zm-426.34 -25.51c-2.71,-5.78 -5.68,-18.74 0.65,-42.95 2.66,-10.17 40.18,-75.48 66.35,-71.06l-34.12 54.59c-22.71,37.45 -15.33,53.86 -32.88,59.42zm540.75 56.32l-0.5 35.57c-12.89,-9.34 -12.28,-22.95 -16.51,-41.09 -5.97,-25.58 -43.38,-117.73 -44.09,-127.2l15.78 7.93 -26.22 -44.59c-7.9,4.31 -14.51,24.09 -18.75,32.64l-3.81 -1.89c-39.55,-66.04 121.95,-153.1 215.75,-145.87l33.38 29.37 4.41 -5.01c-1.3,-66.03 -143.25,-21.02 -175.85,-1.61 -40.85,24.32 -107.63,82.05 -155.83,69.19l36.07 -24.35c-36.95,-21.64 -185.91,-65.52 -225.77,-25.4l9.66 46.62c-52.24,-30.77 -25.55,-84.68 4.33,-128.95 33.01,-48.9 75.91,-70.97 93.38,-96.04 -99.75,21.15 -137.94,208.36 -195.55,265.02l-7.39 -2.98 30.59 -68.02c-48.87,8.46 -99.72,73.56 -120.22,113.68 -61.84,121.02 11.27,64.47 25.37,145.21l-118.72 -99.56c7.72,56.66 111.32,95.89 91.32,201.6 -37.5,-22.51 7.46,-41.12 -25.09,-81.19 -20.5,-25.23 -24.05,-45.35 -52.76,-61.18 -1.92,13.29 5.39,17.53 3.87,30.5 -2.63,22.44 -2.79,-2.41 -15.34,3.64 6.82,36.35 9.15,93.02 33.19,113 20.81,17.29 77.6,35.18 81.7,64.99 -13.22,-4.82 -54.54,-23.15 -65.78,-21.55l5.1 238.91c43.05,-3.56 76.45,-122.65 126.29,-44.65 43.5,68.08 60.95,67.46 111.44,5.03 46.98,-58.07 103.11,15.9 129.65,38.71 45.35,38.96 99.06,-39.45 111.71,-67.73 66.78,1.22 67.69,75.05 111.7,75.17l-6.51 -427.92z"/>
   <path class="fil4" d="M3674.95 2046.86l15.79 -0.24c7.13,17.78 3.64,153.32 3.53,190.88 -0.07,25.23 -0.5,38.45 -25.79,40.66 -16.71,-16.89 -15.06,-24.36 -6.71,-44.08 7.59,-17.92 4.05,-43.96 3.91,-64.64 -0.17,-24.91 -1.42,-106.86 9.27,-122.58zm-575.74 155.09c6.3,16.92 5.69,38.21 0.81,55.58 -2.21,-1.43 -10.28,3.39 -10.34,-26.61 -0.03,-16.2 1.49,-21.98 9.53,-28.97zm194.64 -398.55c109.65,-40.06 166.26,245.79 28.9,276.06 -114.03,25.12 -168.78,-224.95 -28.9,-276.06zm-197.55 159.23l-16.95 -0.88 6.54 86.35c8.14,-12.22 -0.37,-16.91 12.95,-22.12 15.16,27.85 7.44,121.16 0.47,153.74 -12.04,-8.43 -7.21,-20.22 -11.07,-39.23 -10.88,17.2 -5.5,136.45 -1.13,163.77 34.86,-3.44 53.17,-71.14 89.84,-77.28 27.6,-4.63 36.2,19.53 47.09,37.3 20.99,34.25 33.23,38.54 37.21,48.92 43.77,10.08 67.4,-66.81 108.96,-80 45.92,-14.57 77.93,61.45 110.41,78.99 45.97,24.82 74.6,-62.13 102.57,-79.57 47.81,-29.83 67.97,72.76 111.18,69.57 8.11,-21.69 6.21,-184.27 6.55,-220.07 0.64,-68.58 19.64,-166.27 -34.71,-189.25 -3.97,31.4 12.15,52.11 -2.99,103.28 -9.82,33.2 -25.74,55.39 -48.85,70.71 -113.47,75.23 -197.88,-164.79 -82.87,-251.05 71.28,-53.46 110.28,36.49 135.91,67.76 33.53,-112.95 -83.13,-265.72 -136.98,-241.49 -21.12,20.41 -16.84,136.74 -59.38,174.06 -30.78,-20.31 -117.05,-236.81 -243.6,-145.63 -41.54,29.93 -72.73,64.47 -98.48,118.28 -46.03,96.15 9.4,95.54 0.1,177.46l-32.77 -3.62z"/>
   <path class="fil5" d="M3112.95 1238.32l-17.79 93.25 3.1 158.41c-41.25,-2.87 -62.89,-58.47 -75.89,-78.61 -8.06,-12.48 1.06,-10.7 -11.72,-6.63 -11.93,5.48 -6.84,51.58 -6.82,75.8 0.02,32.37 0.65,49.04 5.31,79.21 6.03,38.99 34.11,104.22 29.84,135.62 -43.96,-2.07 -64.98,-55.63 -94.05,-63.64 -1.04,49.32 39.91,146.61 72.51,182.41 12.88,14.15 41.62,25.55 45.57,41.11 -27.04,8.54 -37.99,-0.85 -62.27,-4.64 6.48,33.22 63.23,85.59 104.82,86.23l-1 -13.85c-14.14,-77.42 -27.08,-94.88 13.4,-167.39 20.59,-36.9 69.03,-81.41 104.76,-105.97 127.86,-87.89 202.08,96.39 248.73,117.97 31.18,-45.25 5.45,-195.62 93.81,-145.1 61.51,35.19 78.86,78.67 119.83,142.32 19.34,3.77 14.41,25.65 22.22,39.39 6.67,-3.41 8.17,-6.81 11.72,-11.4l-0.08 -36.11 -20.85 -6.56 -1.43 -59.38c-8.71,-4.95 -14.52,9.07 -17.88,-19.67 -1.85,-15.85 -1.18,-32.25 -0.87,-48.06 1.8,-13 -6.13,-59.39 -8.52,-76.39 -3.06,-21.77 -11.79,-42.67 -16.74,-63.75l-11.96 -9.72 -18.53 93.39c-48.52,-0.95 -47.18,-58.77 -52.16,-68.49 -4.51,-8.79 -10.75,-13.85 -16.31,-22.54 -8.26,-12.9 -27.81,-97.26 -55.03,-104.53l-4.22 39.13c-31.07,9.5 -35.42,-3.97 -50.47,-22.22 -39.79,-48.27 -37.99,-78.46 -54.73,-100.56 -11.05,-14.58 -22.56,-32.08 -34.06,-43.54 4.15,41.29 13.66,85.88 9.39,131.06l-10.33 1.94c-0.76,7.61 -0.69,7.51 -3.89,11.91 -17.02,-10.62 -30.8,-27.8 -46.13,-42.25 -12.25,-11.56 -36.5,-32.94 -43.61,-49.16 -14.15,-7.76 -22.92,-32.09 -31.81,-50.28 -9.13,-18.7 -11.7,-43.05 -18.98,-59.48 -19.71,-9.62 -8.22,-73.49 -4.14,-88.49l10.27 3.08c6.19,-10.62 2.72,-14.53 0.37,-26.75 -18.04,4.27 -23.5,21.16 -33.34,36.72 -8.85,14 -16.58,25.57 -25.02,39.62 -16.3,27.14 -31.95,74.48 -45.02,86.59z"/>
   <path class="fil4" d="M4020.23 2137.44c-5.53,-30.49 -11.4,-140.17 1.03,-165.5 3.5,3.45 1.24,-4.76 5.08,7.76l1.2 76.54c0.06,15.1 -0.12,30.2 -0.08,45.3 0.04,20.78 2.9,27.79 -7.23,35.9zm186.88 -322.8l0.39 10.21c34.08,2.11 62.12,1.56 73.73,28.37 54.14,61.83 47.03,176.76 -12.5,223.87 -79.64,63.02 -145.38,-53.22 -140.47,-139.38 3.26,-21.52 10.46,-41.88 20.5,-58.14 14.99,-24.26 3.53,-31.64 -2.36,-56.25l-21.56 -46.19c-18.54,8.98 -39.75,54.85 -51.4,78.95 -18.86,38.98 -0.21,75.18 -4.02,115.36l-5.87 4.44 -53.8 -71.08 -9.2 0.54 5.5 400.3c33,-0.45 47.37,-46.62 75.76,-66.16 39.73,-27.37 53.56,20.86 71.18,44.14 69.06,91.27 82.4,-64.76 155.3,-46.15 65.29,16.66 74.13,138.62 151.04,36.56 17.1,-22.69 41.14,-66.08 76.43,-30.07 11.19,11.42 52.06,77.15 66.48,55.29 -21.28,-0.97 -39.42,-28.71 -48.21,-45.72 32.03,-60.54 -5.24,-170.27 21.54,-178.81l-0.92 -7.77c1.1,-31.63 -4.15,-19.95 19.59,-26.88 2.52,-17.12 5.85,-72.2 -3.34,-83.48 -9.33,12.46 -4.69,55 -16.86,71.77 -2.85,-13.63 4.85,-20.97 6.53,-34.09 1.44,-11.18 0.8,-30.24 0.76,-42.01 -21.74,31.92 7.41,67.57 -53.59,121.73 -72.29,64.17 -164.68,-44.13 -134.92,-160.72 6.53,-25.55 18.46,-37.38 30.7,-56.63 17.93,-28.2 31.65,-16.22 50.54,-33.27 -8.8,-40.18 -99.27,-71.63 -138.89,-90.77 -45.91,-22.18 -122.15,58.19 -128.06,82.04z"/>
   <path class="fil6" d="M4576.23 1496.73l-219.06 205.74 4.17 5.53 32.56 28.77 64.59 34.17c25.35,6.34 30.2,30.14 51.62,35.54 4.81,-41.53 -23.58,-69.78 -15.64,-108.15 12.79,4.23 31.43,20.5 37.57,28.61 64.54,85.16 38.21,92.57 64.79,135.07 14.93,-16.07 3.1,-33.23 29.68,-35.34 17.18,21.39 4.2,53.18 11.16,79.29 20.81,6.75 111.08,-12.92 131.54,-20.38l-48.4 -2.02 2.01 -8.94 -5.36 0.37c-7.7,8.88 -22.29,13.95 -35.54,9.83 -10.3,-20.89 29.97,-59.12 38.7,-67.67 42.19,-41.38 82.24,-65.64 140.79,-85.68 15.29,-5.23 79,-20.01 85.13,-24.53 -2.32,-11.7 -3.04,-9.7 -13.8,-14.91 -7.94,-3.85 -13.3,-6.09 -21.22,-9.46 -12.05,12.13 -26.24,6.2 -48.43,1.56 -93.33,-19.5 -111.06,7.28 -141.53,1.92 0.05,-7.91 0.87,-6.73 4.59,-12.89l-16.14 1.03c13.46,-52.47 152.52,-173.5 220.99,-185.3l29.74 -16.81 -42.43 -27.08c-7.77,15.2 -26.42,-3.3 -39.86,-9.13 -15.02,-6.53 -30.02,-9.66 -44.08,-17.46 -24.73,-13.73 -73.03,-15.84 -107.72,-12.47 -46.71,4.55 -135.84,66.06 -150.42,90.79z"/>
   <path class="fil2" d="M1940.13 2030.32l-2.7 -106.69c16.16,10.3 6.95,22.03 25.99,28.89 -0.16,-28.7 -29.46,-56.47 32.32,-105.18 20.64,18.39 7.45,31.05 -20.65,88.69 -17.41,35.72 -7.09,16.85 -9.65,52.09 -1.1,15.19 -15.62,37.28 -25.31,42.2zm-80.68 -276.92c14.4,20.84 40.29,92.4 45.32,124.79l6.51 427.92c-44.01,-0.12 -44.92,-73.95 -111.7,-75.17 -12.65,28.28 -66.36,106.69 -111.71,67.73 -26.54,-22.81 -82.67,-96.78 -129.65,-38.71 -50.49,62.43 -67.94,63.05 -111.44,-5.03 -49.84,-78 -83.24,41.09 -126.29,44.65l-5.1 -238.91c11.24,-1.6 52.56,16.73 65.78,21.55 -4.1,-29.81 -60.89,-47.7 -81.7,-64.99 -24.04,-19.98 -26.37,-76.65 -33.19,-113 12.55,-6.05 12.71,18.8 15.34,-3.64 1.52,-12.97 -5.79,-17.21 -3.87,-30.5 28.71,15.83 32.26,35.95 52.76,61.18 32.55,40.07 -12.41,58.68 25.09,81.19 20,-105.71 -83.6,-144.94 -91.32,-201.6l118.72 99.56c-14.1,-80.74 -87.21,-24.19 -25.37,-145.21 20.5,-40.12 71.35,-105.22 120.22,-113.68l-30.59 68.02 7.39 2.98c57.61,-56.66 95.8,-243.87 195.55,-265.02 -17.47,25.07 -60.37,47.14 -93.38,96.04 -29.88,44.27 -56.57,98.18 -4.33,128.95l-9.66 -46.62c39.86,-40.12 188.82,3.76 225.77,25.4l-36.07 24.35c48.2,12.86 114.98,-44.87 155.83,-69.19 32.6,-19.41 174.55,-64.42 175.85,1.61l-4.41 5.01 -33.38 -29.37c-93.8,-7.23 -255.3,79.83 -215.75,145.87l3.81 1.89c4.24,-8.55 10.85,-28.33 18.75,-32.64l26.22 44.59zm-166.98 -313.68c15.57,-16.82 48.12,-13.21 46.74,5.16 -1.98,26.35 -42.24,-2.04 -46.74,-5.16zm-529.06 269.79c5.59,85.21 82.57,155.78 96.56,256.63 8.49,61.22 26.1,63.56 30.69,89.75 10.78,61.53 -6.36,159.44 0.21,229.5 10.6,113.08 98.75,-21.58 124.94,-29.34 26.2,21.9 43.09,91.62 97.94,76.19 42.49,-11.95 64.87,-87.87 104.75,-65.11 27.02,15.42 59.16,77.85 100.54,74.96 42.9,-3 67.46,-59.25 94.56,-81.25 19.83,8.08 115.47,144.76 123.19,25.14 3.17,-49.06 -9.79,-199.72 10.95,-228.61 23.33,-32.48 36.32,-28.51 35.95,-82.58 -0.18,-27.05 23.31,-63.4 35.37,-85.52 18.7,-34.3 90.67,-138.62 49.6,-180.37l-137.27 134.83c-1.93,-1.81 -40.07,-92 -53.32,-110.36 -38.43,-53.24 -26.36,-59.32 18.73,-92.37 18.29,-13.4 94.44,-48.81 119.12,-32.61 10.68,7.01 22.05,36.66 50.62,24.68 24.95,-10.45 15.7,-40.23 -1.25,-51.18 -76.39,-49.34 -190.51,22.05 -243.18,52.53 -39.58,22.89 -56.17,-7.06 -110.42,-22.73 -60.39,-17.43 -92.59,-7.65 -154.25,-11.81 2.69,-45.51 97.8,-148.79 138.08,-137.71 17.58,4.84 51.91,25.35 58.61,-12.18 12.67,-70.92 -138.11,-27.75 -215.32,82.33 -35.14,50.08 -22.82,72.28 -82.84,101.53 -153.64,74.9 -119.41,219.04 -178.44,149.78 -17.47,-20.48 -72.04,-69.86 -114.12,-74.12z"/>
   <path class="fil2" d="M872 1763.23c-11.83,16.8 -43.79,27.76 -64.32,37.81 -11.16,5.46 -60.39,27.57 -69.25,29.59l-139.44 79.22 401.57 201.87c-12.5,87.82 -142.46,189 -232.65,218.85 -233.48,77.27 -495.73,-27.27 -606.66,-246.48 -17.15,-33.89 -33.25,-100.64 -35.48,-138.05 -3.09,-52.07 7.58,-20.83 15.01,-34.68 0.63,-1.2 -8.4,-82.37 -6.29,-100.57 5.07,-43.68 19.95,-52.11 27.14,-81.21 -10.33,-6.23 -26.74,22.92 -18.85,-45.36 2.32,-20.07 12.18,-39.56 19.85,-55.51 41.23,-85.67 161.74,-168.52 256.01,-193.76 83.38,-22.33 163.42,-47.83 257.87,-33.66 28.92,4.34 196.24,78.8 205.28,92.25 20.43,7.11 54.95,35.81 62.9,54.53 16.42,27.83 79.6,93.18 76.34,144.87l-149.03 70.29zm-770.25 80.78l0 127.11c31.52,68.81 3.35,146.48 155.24,279.28 42.4,37.07 70.77,54.57 131.63,85.17 63.8,32.08 134.49,30.84 170.51,47.33l110.99 0c47.87,-22.25 126.55,-12 230.12,-91.54 29.54,-22.68 135.24,-130.95 130.52,-193.98l-371.68 -195.4 396.22 -195.5c-12.89,-196.53 -310.47,-375.13 -535.79,-326.21 -175.98,38.21 -325.98,107.02 -393.99,266.29 -23.74,55.59 -0.04,143.35 -23.77,197.45z"/>
   <path class="fil1" d="M2392.81 1873.31l0.18 6.53c13.88,5.85 55.21,41.75 70.67,54.3 34.07,27.67 44.28,22.1 43.34,80.42 -15.11,101.99 -101.14,101.99 -104.74,105.17 -9.98,17.77 -3.86,58.49 2.34,80.36 3.39,11.99 8.58,21.42 11.55,33.97 3.2,13.53 3.02,23.99 7.61,38.44l13.39 0.35c36.8,-71.82 87.69,-24.41 124.14,10.1 54.02,51.15 70.48,44.34 112.79,-22.17 8.24,-23.05 28.16,-22.42 33.7,-65.53 2.45,-19.05 10.73,-72.39 7.96,-87.6l-90.22 -20.31c-19.15,-9.1 -44.46,-70.46 -37.19,-97.86 5.89,-22.19 43.86,-44.61 56.74,-75.76 -21.31,-11.9 -32.56,-31.83 -48.33,-50.5 -38.84,0.25 -85.37,13.1 -131.7,5.01 -6.03,-1.05 -11.55,-2.38 -17.94,-4.61l-16.73 -8.29 0.11 0.2 -17.8 -4.79c-12.81,9.8 -16.73,6.23 -19.87,22.57z"/>
   <path class="fil1" d="M2212.01 2239.75c-13.71,-14.1 -7.67,-50.86 -4.25,-70.43 15.73,4.86 15.05,16.82 14.91,35.73 -0.14,17.74 -1.91,25.64 -10.66,34.7zm32.12 -141.94c-3.17,-24.43 3.64,-20.7 5.86,-38.79 3.19,-26.03 -6.11,-25.1 7.33,-36.02 10.6,4.16 2.18,-4.99 8.85,8.23 4.06,8.04 5.69,63.38 -22.04,66.58zm-70.96 -128.12c20.95,19.87 21.46,121.76 -3.21,121.25 -16.25,-0.34 -16.53,-49.46 -16.83,-63.79 -0.5,-23.43 0.16,-49.71 20.04,-57.46zm59.51 -217.31c-6.03,15.96 -14.99,29.83 -13.42,47.76 12.43,-13.18 12.49,-31.76 31.62,-37.39 -0.29,18.94 -14.06,43.82 -19.39,63.92 -4.72,17.82 -3.82,50.12 -21.07,56.51 -2.31,-21.79 10.01,-50.81 1.59,-69.18 -7.95,12.8 -20.63,74.37 -14.51,93.46l9.06 5.34c14.35,5.13 38.79,-1.21 42.6,28.61 -28.28,2.93 -2.88,-9.82 -52.37,-10.84 -58.73,12.7 -63.87,58.51 -55.13,128.22 13.91,110.98 58.9,61.32 96.43,68.56l-44.76 29.2 3.17 147.41c44.42,-0.95 57.34,-69.93 97.57,-74.41 43.58,-4.85 45.37,69.05 85.94,79.75 62.68,4.55 5.21,-77.09 2.36,-159.13 -0.33,-9.64 2.47,-31.57 0.77,-38.47 -3.16,-12.77 -8.71,-5.55 -16.95,-21.4l-15.06 -14.73c-38.1,-28.94 -18.2,-92.56 -27.99,-136.93 -22.72,12.22 -18.16,34.3 -59.95,36.64 -0.4,-40.91 32.94,-59.82 52.25,-77.69 21.32,-19.72 33.43,-48.12 64.53,-62.42l0.66 -13.28c-10.52,-14.73 -115.28,-134.59 -147.95,-69.51z"/>
   <path class="fil6" d="M4665.65 1248.07c-2.56,14.01 -16.91,8.57 -34.04,11.68 -11.27,2.05 -20.9,5.82 -33.04,8.67 -22.52,5.28 -43.48,11.5 -66.81,17.31 -30.79,7.67 -96.12,44.51 -107.24,61.88 4.35,5.64 6.56,5.38 -2.84,15.08l-40.3 37.8c-14.24,11.82 -12.01,16.24 -22.4,29.38 -8.53,10.78 -5.78,1.38 -12.44,13.76 -4.72,8.8 -2.37,11.96 -6.98,18.7l-8.32 7.75c-28.95,25.29 -29.92,4.41 -51.04,36.38 -17.12,25.91 -20.02,12.65 -81.52,20.11l2.66 11.3 -38.73 4.28 -17.26 21.64 131.03 131.05c22.21,0.87 66.2,-14.08 77.9,-27.01l110.11 -109.92c39.45,-34.29 17.4,-65.09 38.6,-76.59 -0.9,-67.09 160.26,-189.3 162.37,-198.39 13.89,-20.38 32.46,-20.43 44.3,-40.92l-44.01 6.06z"/>
   <path class="fil7" d="M2381.83 1603.87l-37.31 13.69c44.3,5.13 -15.27,37.09 -21.5,41.82 -19.95,15.15 -39.56,22.35 -48.17,44.32 2.31,3.85 173.66,115.85 107.3,118.19 10.13,10.95 25.42,18.69 40.22,23.42l0.44 -11.33c11.32,-3.21 59.85,10.05 83.74,10.11 27.5,0.08 45.55,-8.55 63.22,-3.07 18.62,5.77 11.93,3.44 10.55,15.36 20.39,-1.97 46.26,-4.62 56.18,-18.95l-22.3 5.8c3.86,-34.06 20.4,-2.24 76.36,-72.07 21.28,-26.56 52.73,-75.14 10.6,-96.55l9.77 22.25c-33.14,6.16 -61.03,-26.75 -90.75,-38.81l-71.85 -25c-14.69,-2.07 -18.39,2.66 -28.01,-6.97 11.1,-7.04 74.55,4.32 91.59,7.86 30.57,6.36 49.95,21.56 76.04,32.53 -22.52,-38.12 -66.22,-6.99 -45.24,-57.77l-26.8 -9.11c-9.09,17.18 -31.61,11.86 -52.41,8.77 -76.27,-11.36 -146.89,11.02 -181.08,4.71l-0.59 -9.2z"/>
   <path class="fil2" d="M2843.15 2069.4c-8.44,-12.84 -5.25,-73.62 -5.92,-103.81 -0.36,-16.08 -0.9,-22.55 5.92,-32.91 22.92,8.26 15.85,42.1 15.86,68.58 0.03,28.25 5.91,59.77 -15.86,68.14zm-155.2 -402.93c5.79,4.16 5.72,6.39 13.21,8.14 42.13,21.41 10.68,69.99 -10.6,96.55 -55.96,69.83 -72.5,38.01 -76.36,72.07l22.3 -5.8 40.12 -17.8 69.74 -100.47c33.47,13.81 67,133.33 67.31,183.73 10.33,68.27 4.35,139.07 2.38,208.33 -1.57,54.85 7.39,153.48 -8.45,200.31 -23.97,-0.96 -40.57,-29.88 -52.92,-43.93 -31.62,-35.96 -32.99,-15.64 -38.95,-58.38 -8.64,16.39 -0.46,16.09 -14.83,28.32 -7.3,6.22 -5.04,2.65 -11.82,10.78 -9.7,11.63 -0.51,7.41 -15,12.46 -42.31,66.51 -58.77,73.32 -112.79,22.17 -36.45,-34.51 -87.34,-81.92 -124.14,-10.1 -5.34,7.03 0.81,0.13 -5.75,5.79 -18.7,16.15 -32.39,49.59 -51.39,30.66 -40.57,-10.7 -42.36,-84.6 -85.94,-79.75 -40.23,4.48 -53.15,73.46 -97.57,74.41l-3.17 -147.41 44.76 -29.2c-37.53,-7.24 -82.52,42.42 -96.43,-68.56 -8.74,-69.71 -3.6,-115.52 55.13,-128.22 -0.83,-15.46 -10.38,-16.44 -7.18,-48.75 1.61,-16.25 5.48,-33.36 10.02,-48.21 8.39,-27.45 13.18,-64.88 33.05,-81.23 32.67,-65.08 137.43,54.78 147.95,69.51l1.52 0c66.36,-2.34 -104.99,-114.34 -107.3,-118.19 8.61,-21.97 28.22,-29.17 48.17,-44.32 6.23,-4.73 65.8,-36.69 21.5,-41.82 -49.07,-1.07 -125.15,106.09 -144.42,151.79 -14,33.2 -24.96,80.12 -29.22,119.99 -6.95,65.09 -36.86,32.94 -46.08,102.4 -4.72,35.59 -0.73,97.02 17.73,124.22 36.72,54.13 31.8,25.13 31.5,118.18 -0.63,197.05 84.91,31.47 124.56,17.26 25.82,19.51 45.38,89.56 95.93,80.87 42.38,-7.29 65.63,-83.47 105.83,-72.51 36,9.83 60.89,77.19 103.83,80.08 53.82,3.61 76.57,-64.99 103.03,-80.74 34.63,4.29 128.52,178.09 130.74,-18.49 0.45,-39.53 -8.47,-110.01 9.15,-138.36 28.91,-46.52 29.57,-54.18 26.62,-122.26 -3.99,-91.89 -33.9,-33.5 -41.43,-107.16 -4.3,-42.14 -15.78,-83.51 -32.89,-118.87 -25.65,-53 -93.15,-137.38 -156.69,-145.26 -20.98,50.78 22.72,19.65 45.24,57.77z"/>
   <path class="fil6" d="M4038.95 1614.83c-11.09,1.79 -19.15,45.88 -34.18,52.87 -15.12,7.03 -65.34,4.86 -85.32,5.72l-2.83 6.7 107.32 45.28c-14.32,33.89 -149.57,-17.62 -219.44,55.93 17.69,59.56 128.01,40.28 141.53,48.52 18.01,24.08 -56.17,52.7 -63.52,75.05 16.85,17.48 68.7,12.84 85.41,-5.39 20.76,-22.64 -4.81,-79.71 28.34,-94.34l35.33 77.34c12.67,-39.28 78.53,-159.17 111.31,-156.67l20.59 76.63 89.28 -90.29 -155.14 -144.22c-14.75,13.66 -16.22,10.49 -29.69,27.21l-27.26 30.41c-2.74,-2.74 -5.14,6.14 -1.73,-10.75z"/>
   <path class="fil1" d="M2676.62 1819.63c-14.79,18.44 -23.55,19.08 -44.14,29.51 3.65,8.62 17.57,18.78 23.18,25.78 7.47,9.31 14.29,16.02 29.08,9.24l45.95 -42.08c21.9,24.8 37.33,109.04 36.58,149.56 -0.58,31.35 -4.75,51.3 -18.91,73.38 -28.45,44.35 -12.54,18.93 -14.43,66.55 0.85,36.87 -14.88,70.77 -10.16,99.32 7.01,8.23 12.52,10.47 20.46,17.97 42.73,40.33 62.17,98.16 65.3,9.93 3.78,-106.82 2.53,-224.43 2.08,-332.03l2.06 -23.87c-0.31,-50.4 -33.84,-169.92 -67.31,-183.73l-69.74 100.47z"/>
   <path class="fil8" d="M4502.99 1481.32c-21.2,11.5 0.85,42.3 -38.6,76.59l-110.11 109.92c-11.7,12.93 -55.69,27.88 -77.9,27.01l-131.03 -131.05 17.26 -21.64c-34.65,6.46 -40.27,12.91 -64.98,25.81l155.14 144.22 -89.28 90.29 -20.59 -76.63c-32.78,-2.5 -98.64,117.39 -111.31,156.67l-35.33 -77.34c-33.15,14.63 -7.58,71.7 -28.34,94.34 -16.71,18.23 -68.56,22.87 -85.41,5.39 7.35,-22.35 81.53,-50.97 63.52,-75.05 -13.52,-8.24 -123.84,11.04 -141.53,-48.52 69.87,-73.55 205.12,-22.04 219.44,-55.93l-107.32 -45.28 2.83 -6.7c19.98,-0.86 70.2,1.31 85.32,-5.72 15.03,-6.99 23.09,-51.08 34.18,-52.87 8.43,-20.39 24.37,-40.31 42.78,-51.26 15.87,-9.44 12.37,-15.36 26.13,-22.48 12.61,-6.53 22.19,-4.01 32.42,-13 -61.85,7.38 -85.63,32.46 -108.97,75.71 -60.62,112.32 -32.61,32.5 -124.17,64.33 6.88,37.66 62.55,35.61 77.95,54.98 -20.73,15 -173.78,-2.67 -192.74,61.45 18.86,47.02 87.87,50.1 143.9,53.02l4.15 5.27 -75.51 59.54c17.82,34.45 83.2,16.46 111.86,6.29l19.31 -86.37 33.84 79.59c13.46,-5.71 51.19,-132.74 104.65,-163.72l30.95 90.84 10.02 4 11.13 -26.82c12.14,-31.71 57.97,-72.71 87.2,-92.63 55.55,-37.87 66.29,9.25 120.05,23.2l-32.56 -28.77 -4.17 -5.53 219.06 -205.74 -18.36 9.77c4.17,-27.57 45.82,-58.29 64.71,-71.95 127.33,-92.01 191.57,-43.53 295.73,10.45l42.43 27.08 -29.74 16.81 42.44 -7.81c-8.93,-36.8 -185.55,-118.65 -254.42,-102.06 -54.52,13.12 -86.57,36.63 -121.32,63.03 -16.92,12.85 -89.48,85.36 -94.14,83.77l-0.57 -44.5z"/>
   <path class="fil1" d="M879.49 1638.37c-1.52,-8.64 -6.83,-17.08 -11.48,-22.01l-15.37 -12.04c-8.29,5.22 -59.95,56.54 -61.86,60.57 10.12,14.8 31.68,21.33 38.7,39.45 -9.59,11.12 -26.62,19.66 -45.72,27.52 -11.59,4.76 -47.38,15.68 -54.25,20.36 2,18.23 -2.83,2.77 11.31,14.81 16.49,14.06 29.96,32.95 38.1,39.53l93.08 -43.33 149.03 -70.29c3.26,-51.69 -59.92,-117.04 -76.34,-144.87 -13.93,-5.63 -10.98,-11.15 -24.08,-15.18 -9.95,10.5 -8.98,11.61 -20.04,21.36 -7.51,6.62 -11.74,14.82 -23.28,18.94 6.46,32.94 28.9,63.85 7.72,76.72 -2.86,-3.48 -3.34,0.16 -5.52,-11.54z"/>
   <path class="fil2" d="M221.5 1741.88c-12.04,28.5 16.64,-9.82 -11.13,34.79 -15.07,24.22 -9.65,29.5 -19.97,39.73l0.59 45.95c-1.21,9.59 -1.11,6.11 -5.08,10.8 -3.67,-4.1 -2.54,-1.65 -5.81,-8.4 -14.97,-30.91 -3.69,-44.03 1.58,-63.39 5.63,-21.49 18.93,-27.71 26.88,-45.19 -29.06,12.34 -50.02,48.2 -44.04,94.83 8.2,63.89 46.93,61.2 61.41,80.48 65.38,34.47 151.59,-23.99 150.91,-95.02 -0.81,-83.83 -73.85,-116.41 -155.34,-94.58z"/>
   <path class="fil2" d="M563.33 1512.86c27.06,12.36 25.91,24.45 22.95,58.25 -1.53,36.44 1.29,47.82 12.48,79.03 10.32,28.77 26.11,55.56 27.99,63.26 -21.29,-5.8 -33.15,-23.95 -40.14,-40.07 -10.6,-5.88 -9.96,-9.91 -14.92,-22 -4.83,-11.76 -5.76,-17.06 -15.76,-21.87l8.74 36.6 61.43 70.7c40.36,6.52 64.78,13.8 108.83,4.63 28.21,-5.87 72.14,-19.18 82.88,-40.92 -3.71,-7.95 -22.73,-23.79 -32.99,-25.89 -8.96,-0.52 -5.43,-7.8 -5.27,7 -2.38,21.49 0.49,37.65 -26.27,25.87 -30.22,-4.28 -11.02,12.69 -38.46,4.99 0.84,-38.62 44.02,-30.37 36.02,-67.27l-3.47 -11.52 -196.3 -153.72 -12.67 -3.13c-2.41,28.8 -2.17,85.7 10.57,106.51 8.38,-23.21 -9.2,-60.5 2.21,-82.72 12.18,4.21 7.03,1.14 12.15,12.27z"/>
   <path class="fil1" d="M1825.38 1955.03l40.22 -1.39c2.23,-131.74 -160.94,-113 -139.81,39.04 6.22,44.77 39.48,103.74 93.8,82.17 64.62,-25.66 -45.09,-34.05 5.79,-119.82z"/>
   <path class="fil1" d="M4198.33 1910.31c-7.39,-6.91 -11.54,-8.29 -13.12,-19.96l-15.06 -9.4c-33.24,32.84 -17.05,106.41 -5.06,149.59 21.39,33.87 67.88,65.53 103.58,19.23 -7.36,-20.32 -54.09,-73.14 -5.85,-106.99l7.11 -10.62 25.6 5.36 -2.53 -27.03 -11.73 -26.54c-19.51,-13.1 -29.4,-47.03 -68.26,-33.83 -5.78,23.76 5.22,44.21 0.39,71.52 -13.62,-3.23 -9.64,-0.77 -15.07,-11.33z"/>
   <path class="fil1" d="M1572.16 1974.24c7.7,-24.28 17.85,-29.09 44.29,-25.57 1.09,-19.25 -4.71,-24.29 -7.25,-42.07 -16.99,-66.42 -114.81,-59.59 -123.75,50.13 -7.03,86.12 60.35,171.93 113.26,96.28l-8.11 2.58 -18.44 -81.35z"/>
   <path class="fil2" d="M3357.76 1943.61c16.26,6.02 16.78,13.99 16.32,35.04 -0.47,21.1 -1.62,28.16 -15.62,34.1 -22.33,-11.17 -24.69,-56.27 -0.7,-69.14zm-18.22 73.24c4.67,11.55 34.61,25.29 -11.45,42.12 -26.54,9.7 -51.45,-1.93 -64.24,-15.61 -15.92,-17.04 -52.57,-99.12 -29.4,-128.33 1.6,-2.47 -4.01,-7.61 26.18,-6.11 21.58,1.08 68.27,2.74 83.19,14.72 -6.06,31.33 -32.12,39.27 -4.28,93.21zm-99.45 -127.05c2.13,-30.78 41.12,-77.47 82.76,-64.4 32.7,10.27 57.36,47.79 57.68,92.03 -17.21,-2.8 -48.84,-11.92 -67.76,-16.63 -24.38,-6.08 -54.59,-4.7 -72.68,-11zm53.76 -86.4c-139.88,51.11 -85.13,301.18 28.9,276.06 137.36,-30.27 80.75,-316.12 -28.9,-276.06z"/>
   <path class="fil1" d="M2343.67 1943.69c8.63,48.55 -5.7,79.54 24.04,121.9 22.7,32.33 66.38,45.52 89.88,3.59 -4.89,-15.89 -24.66,-17.65 -24.2,-54.81 0.53,-42.39 24.63,-39.02 31.74,-51.92l-75.12 -68.69c-14.4,-4.01 -10.37,-6.07 -22.64,-9.63 -21.1,18.3 -8.68,40.9 -23.7,59.56z"/>
   <path class="fil2" d="M1597.06 2030.69c-5.46,-4.76 -5.73,-3.17 -8.54,-14.55 -3.64,-14.75 -4.93,-40.59 11.78,-48.38 12.28,5.23 16.33,16.47 15.97,33.44 -0.35,16.58 -4.72,26.19 -19.21,29.49zm-24.9 -56.45l18.44 81.35 8.11 -2.58c-52.91,75.65 -120.29,-10.16 -113.26,-96.28 8.94,-109.72 106.76,-116.55 123.75,-50.13 8.24,3.9 5.87,0.31 9.31,11.99 5.14,17.43 9.04,28.64 7.35,43.91 -18.15,-3.18 -7.85,-9.54 -32.97,-9.39 -6.3,8.55 -11.54,16.44 -20.73,21.13zm-33.18 -125.84c-136.83,57.35 -70.69,273.41 37.01,251.5 116.81,-23.75 70.52,-296.58 -37.01,-251.5z"/>
   <path class="fil2" d="M1839.8 2029.36c-15.52,-14.88 -18.66,-42.63 0,-58.95 14.86,2.3 21.6,13.36 20.81,30.84 -0.89,19.56 -6.34,24.27 -20.81,28.11zm-14.42 -74.33c-50.88,85.77 58.83,94.16 -5.79,119.82 -54.32,21.57 -87.58,-37.4 -93.8,-82.17 -21.13,-152.04 142.04,-170.78 139.81,-39.04l-40.22 1.39zm-35.02 -107.65c-127.28,16.86 -95.49,271.12 15.11,252.33 119.5,-20.31 95.92,-267.03 -15.11,-252.33z"/>
   <path class="fil2" d="M2701.57 1988.31c-11.34,13.59 -9.57,27.52 -7.48,47.18l28.71 34.61c-27.8,45.78 -76.25,23.68 -93.95,-13.13 -19.71,-40.99 -11.33,-98.31 23.55,-104.24 6,-17.54 30.51,-40.93 44.13,-47.81 3.8,-7.24 14.73,-16.57 23.62,-26.92 12.29,-0.91 3.63,-1.18 5.75,2.95 7.61,5.61 8.88,7.3 11.94,21.81 3.55,16.87 19.07,72.67 1.69,74.01l-11.47 -0.61c0.06,7.88 27.61,55.33 -4.67,70.42 -22.77,-18.88 -1.8,-41.76 -11.29,-66.3 -9.35,5 -1.17,-0.67 -10.53,8.03zm-16.83 -104.15c-9.15,24.25 -22.25,30.68 -37.43,44.38 -86.55,78.13 -44.66,101.41 -21.79,158.8l90.22 20.31c0.6,0.71 1.33,0.95 1.53,2.34 0.19,1.4 1.15,1.77 1.38,2.43 8.25,23.11 -8.27,39.34 4.74,60.45 7.98,-9.92 3.27,-31.04 10.54,-41.3 1.89,-47.62 -14.02,-22.2 14.43,-66.55 14.16,-22.08 18.33,-42.03 18.91,-73.38 0.75,-40.52 -14.68,-124.76 -36.58,-149.56l-45.95 42.08z"/>
   <path class="fil1" d="M3339.54 2016.85c-17.9,-5.84 -16.91,-20.95 -16.54,-44.79 0.5,-31.68 10.06,-24.92 12.19,-48.98 -37.62,-3.83 -59.56,-10.9 -100.74,-8.05 -23.17,29.21 13.48,111.29 29.4,128.33 12.79,13.68 37.7,25.31 64.24,15.61 46.06,-16.83 16.12,-30.57 11.45,-42.12z"/>
   <path class="fil9" d="M3253.12 1241.3c3.4,21.53 16.93,30.53 22.39,45.89 9.87,6.08 13.54,14.86 19.64,23.08 5.89,7.93 13.62,17.68 18.94,23.13 15.09,15.45 25.66,29.31 40.16,43.41l10.33 -1.94c4.27,-45.18 -5.24,-89.77 -9.39,-131.06 11.5,11.46 23.01,28.96 34.06,43.54 16.74,22.1 14.94,52.29 54.73,100.56 15.05,18.25 19.4,31.72 50.47,22.22l4.22 -39.13c27.22,7.27 46.77,91.63 55.03,104.53 5.56,8.69 11.8,13.75 16.31,22.54 4.98,9.72 3.64,67.54 52.16,68.49l18.53 -93.39 11.96 9.72c-3.53,-12.35 -9.82,-15.92 -6.67,-30.87 7.22,6.08 11.27,13.26 15.72,22.41 6.13,12.59 5.2,21 13.9,28.97 -4.43,-35.79 -31.12,-95.96 -52.45,-109.92 -13.89,25.31 27.07,120.84 -9.71,156.79 -4.98,-5.82 -6.06,-18.58 -8.34,-29.12 -2.65,-12.26 -4.25,-23.66 -13.06,-31.99 2.9,15.8 6.73,25.75 4,41.7 -14.95,-7.41 -14.65,-14 -19.14,-30.15 -10.04,-36.07 -29.21,-80.72 -48.55,-111.56 -11.98,-6.9 -21.6,-35.8 -24.17,-50.29l14.74 7.95c-5.42,-12.95 -21.62,-37.14 -35.16,-40.62 0.41,18.4 1.58,37.03 2.64,55.12 1.33,22.8 5.82,42.73 -13.08,32.53l0.04 11.79c-16.85,-6.58 -56.07,-80.81 -68.68,-104.6 -7.72,-14.57 -18.25,-22 -21.36,-41.72 9.82,3.58 11.74,6.19 18.31,10.55 -10.57,-17.97 -34.64,-43.41 -56.2,-50.22 -3.53,34.46 15.59,94.89 13.64,141.17 -35.67,-6.55 -88.07,-106.03 -105.96,-119.51z"/>
   <path class="fil1" d="M4506.74 2026.48c-20.49,-17.55 -9.3,-47.65 -10.81,-70.42 -11.7,-8.9 -24.85,-21.57 -35.54,-31.39 -10.32,-9.48 -22.04,-31.18 -41.41,-26.04 -50.24,152.46 79.22,214.71 108.69,147.91l-20.93 -20.06z"/>
   <path class="fil2" d="M2467.28 2042.14c-5.62,-1.62 -5.37,0.86 -9.96,-7.78 -5.9,-11.13 -5.64,-30.51 3.91,-42.35 29.61,0.06 16.88,43.49 6.05,50.13zm-77.27 -148.38l75.12 68.69c-7.11,12.9 -31.21,9.53 -31.74,51.92 -0.46,37.16 19.31,38.92 24.2,54.81 -23.5,41.93 -67.18,28.74 -89.88,-3.59 -29.74,-42.36 -15.41,-73.35 -24.04,-121.9 2.51,-15.89 5,-18.79 -2.2,-27.08l-4.24 10.02c-3.74,13.79 1.23,17.83 -8.1,31.05 0.71,66.41 6.06,64.54 22,117.89l15.06 14.73c13.85,5.23 33.03,41.78 91.05,4 11.86,-7.73 19.98,-20.11 28.5,-36.13 7,-13.15 10.87,-32.64 21.26,-43.61 0.94,-58.32 -9.27,-52.75 -43.34,-80.42 -15.46,-12.55 -56.79,-48.45 -70.67,-54.3l-13.9 -3.17c4.5,11.42 2.65,8.4 10.92,17.09z"/>
   <path class="fil1" d="M3513.14 2023.98c8.89,5.44 55.75,72.37 102.87,12.86 -6.88,-17.39 -37.58,-29.55 -21.32,-86.59 5.7,-19.98 8.73,-10.27 12.2,-28.07l-35.5 0.7c-123.85,9.65 -59.42,63.07 -58.25,101.1z"/>
   <path class="fil2" d="M4285.67 2010.04l-4.01 12.27c-34.18,-7.01 -25.78,-69.64 -4.7,-68.93 12.39,0.42 21.58,28.56 18.81,44.01 -2.4,13.37 -3.84,9.69 -10.1,12.65zm-48.01 -166.06c26.99,9.88 31.57,16.16 43.61,39.97l11.73 26.54c8.36,8.09 9.77,20.75 7.5,33.46l-37.68 -1.17c-48.24,33.85 -1.51,86.67 5.85,106.99 -35.7,46.3 -82.19,14.64 -103.58,-19.23 -24.44,-13.67 -19.92,-77.6 -19.54,-108.71 -8.08,0.74 -11.05,8.52 -17.29,15.88 -4.91,86.16 60.83,202.4 140.47,139.38 59.53,-47.11 66.64,-162.04 12.5,-223.87 -18.49,-10.23 -20.07,-21.25 -49.69,-22.55l6.12 13.31z"/>
   <path class="fil10" d="M453.42 1976c43.32,2.3 93.77,-73.09 119.23,-96.03 11.17,-10.07 114.46,-90.07 91.43,-114.39 -21.42,-22.62 -102.35,77.44 -114.65,91.17 -21.75,24.27 -98.25,80.9 -96.01,119.25z"/>
   <path class="fil10" d="M747.37 1633.65l3.47 11.52c15.38,5.36 28.23,15.95 33.98,29.41 10.26,2.1 29.28,17.94 32.99,25.89 -10.74,21.74 -54.67,35.05 -82.88,40.92 -44.05,9.17 -68.47,1.89 -108.83,-4.63 26.6,22.61 49.59,16.73 87.13,18.3 -7.01,22.34 -22.42,19.25 25.97,61.84l-0.77 13.73c8.86,-2.02 58.09,-24.13 69.25,-29.59 20.53,-10.05 52.49,-21.01 64.32,-37.81l-93.08 43.33c-8.14,-6.58 -21.61,-25.47 -38.1,-39.53 -14.14,-12.04 -9.31,3.42 -11.31,-14.81 6.87,-4.68 42.66,-15.6 54.25,-20.36 19.1,-7.86 36.13,-16.4 45.72,-27.52 -7.02,-18.12 -28.58,-24.65 -38.7,-39.45 1.91,-4.03 53.57,-55.35 61.86,-60.57l15.37 12.04c-3.75,-13.28 -7.53,-20.99 -13.53,-34.13 -5.38,-11.75 -6.95,-22.35 -16.08,-30.02l2.76 13.26c-20.2,7.42 -27.59,22.8 -43.66,37.81 -14.33,13.37 -24.74,41.35 -50.13,30.37z"/>
   <path class="fil1" d="M2652.4 1952.73c-34.88,5.93 -43.26,63.25 -23.55,104.24 17.7,36.81 66.15,58.91 93.95,13.13l-28.71 -34.61c-7.73,-9.36 -7.66,-20.22 -5.28,-33.38 2.98,-16.51 26.04,-28.9 -20.44,-61.28 -7.66,4.3 -7.67,4.37 -15.97,11.9z"/>
   <path class="fil4" d="M3501.73 1918.85c21.29,-0.24 45.31,-6.82 65.55,-12.3 28.06,-7.6 46.91,-3.21 75.14,-5.87 1.53,-39.24 -37.62,-85.48 -78.78,-78.58 -35.85,6.02 -63.71,54.33 -61.91,96.75z"/>
   <path class="fil7" d="M2503.48 1499.48c-31.18,4.93 -62.17,15.23 -88.85,18.77 -38.23,5.07 -24.89,-3.82 -24.73,-4.36 -26.44,4.05 -62.35,6.11 -90.64,7.5 -16.02,0.78 -32.37,1.08 -48.4,0.48 -13.41,-0.5 -43.41,-5.18 -19.79,-18.42 3.78,-9.5 3.5,-8.61 11.58,-13.02 8.44,-13.09 38.27,-37.96 53.88,-43.35 33.86,-15.65 105.5,-66.99 147.9,-66.66 23.38,-24.06 138.29,-19.08 165.7,-19.33 -22.28,-11.76 -81.06,-1.18 -111.17,-3.95l7.39 -4.81c-22.86,-16.05 -153.46,43.51 -175.91,55.68 -25.39,13.78 -135.98,85.18 -124.94,110.1 8.53,22.51 48.98,13 74.49,12.83 32.81,-0.22 44.9,4.45 80.43,0.11 33.79,-4.12 125.23,-8.64 143.06,-31.57z"/>
   <path class="fil7" d="M2470.15 1397.47c-51.6,3.41 -133.29,45.56 -172.43,66.72 -12.06,16.01 -40.07,24.65 -43.51,44.59 42.16,2.59 61.84,-2.25 100.28,-6.08 17.68,-1.76 77.82,-8.74 88.97,-15.66 -18.97,-19.69 -104.16,10.06 -147.44,3.14 36.83,-57.83 239.56,-88.69 311.86,-88.56 -10.75,23.77 -24.07,10.19 -35.99,32.47 12.32,-3.66 22.1,-8.13 32.63,-14.16 3.59,-2.05 11.23,-6.84 13.83,-9.23 3.98,-3.67 3.21,-2.46 4.76,-6.46 10.12,-25.99 -107.14,10.21 -112.39,-12.09l-40.57 5.32z"/>
   <path class="fil4" d="M3240.09 1889.8c18.09,6.3 48.3,4.92 72.68,11 18.92,4.71 50.55,13.83 67.76,16.63 -0.32,-44.24 -24.98,-81.76 -57.68,-92.03 -41.64,-13.07 -80.63,33.62 -82.76,64.4z"/>
   <path class="fil11" d="M4581.33 1952.26c0.04,11.77 0.68,30.83 -0.76,42.01 -1.68,13.12 -9.38,20.46 -6.53,34.09 12.17,-16.77 7.53,-59.31 16.86,-71.77 9.19,11.28 5.86,66.36 3.34,83.48 -23.74,6.93 -18.49,-4.75 -19.59,26.88l8.31 -12.4c0.21,-1.04 0.91,-1.22 1.47,-1.74 11.19,15.91 10.79,81.77 11.03,106.93 0.43,44.37 3.63,66.08 -9.74,104.9 -30.43,-4.26 -11.15,-2.99 -10.25,-82.26 0.41,-35.3 2.02,-72.57 0.1,-107.66 -26.78,8.54 10.49,118.27 -21.54,178.81 8.79,17.01 26.93,44.75 48.21,45.72 6.99,-31.78 10.41,-362.89 1.61,-378.29 -9.8,3.67 -19.38,21.45 -22.52,31.3z"/>
   <path class="fil2" d="M2506.35 1352.33l-7.39 4.81c30.11,2.77 88.89,-7.81 111.17,3.95 12.71,0.37 89.53,7.8 100.83,15.95 -2.42,18.64 -18.83,25.76 -36.02,30.58l-32.37 18.23c-19.66,32.55 -197.32,78.84 -252.67,88.04 -0.16,0.54 -13.5,9.43 24.73,4.36 26.68,-3.54 57.67,-13.84 88.85,-18.77 35,-5.45 99.9,-34.59 130.31,-50.23 25.02,-12.85 99.46,-54.56 97.43,-83.29 -41.26,-24.97 -174.23,-24.41 -224.87,-13.63z"/>
   <path class="fil7" d="M3104.56 1922.99l1 13.85c-41.59,-0.64 -98.34,-53.01 -104.82,-86.23 24.28,3.79 35.23,13.18 62.27,4.64 -3.95,-15.56 -32.69,-26.96 -45.57,-41.11 -32.6,-35.8 -73.55,-133.09 -72.51,-182.41 29.07,8.01 50.09,61.57 94.05,63.64 4.27,-31.4 -23.81,-96.63 -29.84,-135.62 -4.66,-30.17 -5.29,-46.84 -5.31,-79.21 -0.02,-24.22 -5.11,-70.32 6.82,-75.8 12.78,-4.07 3.66,-5.85 11.72,6.63 13,20.14 34.64,75.74 75.89,78.61l-3.1 -158.41c-14.86,33.11 3.66,111.29 -3.91,150.8 -37.41,-5.15 -72.63,-95.6 -79.8,-101.07 -20.4,7.25 -13.58,49.48 -13.87,73.36 -0.35,28.65 -0.99,61.09 2.26,89.41 4.77,41.44 35.25,112.14 33.57,142.59 -27.38,-3.23 -38.05,-19.61 -52.25,-33.56 -9.96,-9.79 -38.76,-41.4 -48.97,-43.84 0.64,54.01 40.37,155.14 73.14,197.58 15.74,20.39 34.91,28.12 46.73,46.61 -31,-0.13 -34.48,-7.82 -59.5,-12.76 -1.82,40.71 70.76,99.68 115.34,101.54 1.73,-13.23 2.59,-10.46 -3.34,-19.24z"/>
   <path class="fil12" d="M2461.99 1479.77c-7.71,7.21 -5.27,5.59 -18.53,7.27 -11.15,6.92 -71.29,13.9 -88.97,15.66 -38.44,3.83 -58.12,8.67 -100.28,6.08 3.44,-19.94 31.45,-28.58 43.51,-44.59l-25.57 10.31c5.95,-23.19 13.86,-8.5 24.38,-27.42 -15.61,5.39 -45.44,30.26 -53.88,43.35 9.7,1.73 4.41,-1.01 8.86,3.05 -7.02,15.65 -3.61,20.91 -21.62,19.28l1.18 -9.31c-23.62,13.24 6.38,17.92 19.79,18.42 16.03,0.6 32.38,0.3 48.4,-0.48 28.29,-1.39 64.2,-3.45 90.64,-7.5 55.35,-9.2 233.01,-55.49 252.67,-88.04 -2.71,-4.65 -2.12,-5.05 -2.99,-6.76 3.94,-3.24 0.91,-2.05 3.43,-7.77 -49.67,15.87 -124.49,74.43 -181.02,68.45z"/>
   <path class="fil11" d="M4592.58 1252.03l0.04 -1.78c-36.04,22.19 -92.86,10.57 -176.71,81.28 -14.09,11.89 -124.59,114.8 -106.59,142.56 13.35,-5.9 41.55,-51.63 53.48,-66.31l61.72 -60.17c11.12,-17.37 76.45,-54.21 107.24,-61.88 23.33,-5.81 44.29,-12.03 66.81,-17.31 12.14,-2.85 21.77,-6.62 33.04,-8.67 17.13,-3.11 31.48,2.33 34.04,-11.68l-73.07 3.96z"/>
   <path class="fil13" d="M3261.25 2313.2c-3.98,-10.38 -16.22,-14.67 -37.21,-48.92 -10.89,-17.77 -19.49,-41.93 -47.09,-37.3 -36.67,6.14 -54.98,73.84 -89.84,77.28 -4.37,-27.32 -9.75,-146.57 1.13,-163.77 3.86,19.01 -0.97,30.8 11.07,39.23 6.97,-32.58 14.69,-125.89 -0.47,-153.74 -13.32,5.21 -4.81,9.9 -12.95,22.12l-6.54 -86.35 16.95 0.88c-7.65,-8.27 -4.09,-5.99 -18,-6.75 -9.08,19.52 -1.9,324.69 7.1,355.54 40.64,-5.59 53.97,-65.03 90.52,-78.11 34.19,-12.24 47.86,63.41 85.33,79.89z"/>
   <path class="fil11" d="M3674.95 2046.86c-10.69,15.72 -9.44,97.67 -9.27,122.58 0.14,20.68 3.68,46.72 -3.91,64.64 -8.35,19.72 -10,27.19 6.71,44.08 25.29,-2.21 25.72,-15.43 25.79,-40.66 0.11,-37.56 3.6,-173.1 -3.53,-190.88l-15.79 0.24z"/>
   <path class="fil8" d="M4458.49 1770.94c6.61,16.82 15.39,18.15 26.9,31.71 11.93,14.06 10.38,26.39 31.61,28.34 11.49,-54.16 -9.44,-68.95 -8.75,-106.38 44.97,3.34 80.36,150.79 82.65,154.97 24.16,-5.54 8.98,-28.21 32.21,-40.35 5.47,19.12 2.56,67.32 14.35,77.27 2.26,1.47 177.47,-25.18 183.27,-28.44 -5.8,-11.1 -7.11,-9.94 -20.18,-12.17l2.32 9.07 -33.66 0.62c-20.46,7.46 -110.73,27.13 -131.54,20.38 -6.96,-26.11 6.02,-57.9 -11.16,-79.29 -26.58,2.11 -14.75,19.27 -29.68,35.34 -26.58,-42.5 -0.25,-49.91 -64.79,-135.07 -6.14,-8.11 -24.78,-24.38 -37.57,-28.61 -7.94,38.37 20.45,66.62 15.64,108.15 -21.42,-5.4 -26.27,-29.2 -51.62,-35.54z"/>
   <path class="fil11" d="M4576.23 1496.73c14.58,-24.73 103.71,-86.24 150.42,-90.79 34.69,-3.37 82.99,-1.26 107.72,12.47 14.06,7.8 29.06,10.93 44.08,17.46 13.44,5.83 32.09,24.33 39.86,9.13 -104.16,-53.98 -168.4,-102.46 -295.73,-10.45 -18.89,13.66 -60.54,44.38 -64.71,71.95l18.36 -9.77z"/>
   <path class="fil1" d="M2444.43 1380.42c-42.4,-0.33 -114.04,51.01 -147.9,66.66 -10.52,18.92 -18.43,4.23 -24.38,27.42l25.57 -10.31c39.14,-21.16 120.83,-63.31 172.43,-66.72 12.32,-10.01 64.97,-13.8 87.71,-17.35 32.05,-5 67.64,-2.63 100.95,-4.14 -77.14,-23.88 -138.86,-3.32 -214.38,4.44z"/>
   <path class="fil8" d="M4161.39 1527.11l37.29 -0.54c61.5,-7.46 64.4,5.8 81.52,-20.11 21.12,-31.97 22.09,-11.09 51.04,-36.38l8.32 -7.75c4.61,-6.74 2.26,-9.9 6.98,-18.7 6.66,-12.38 3.91,-2.98 12.44,-13.76 10.39,-13.14 8.16,-17.56 22.4,-29.38l40.3 -37.8c9.4,-9.7 7.19,-9.44 2.84,-15.08l-61.72 60.17c-11.93,14.68 -40.13,60.41 -53.48,66.31 -18,-27.76 92.5,-130.67 106.59,-142.56 83.85,-70.71 140.67,-59.09 176.71,-81.28 -209.2,4.02 -310.56,254.66 -331.85,265.26 -27.49,3.71 -78.95,-4.17 -99.38,11.6z"/>
   <path class="fil10" d="M2636.5 1837.43c-9.92,14.33 -35.79,16.98 -56.18,18.95 -21.64,5.02 -50.25,7.6 -73.71,7.74 -33.43,0.19 -46.96,-6.73 -76.24,-8.79l16.73 8.29c6.39,2.23 11.91,3.56 17.94,4.61 46.33,8.09 92.86,-4.76 131.7,-5.01 15.77,18.67 27.02,38.6 48.33,50.5 -12.88,31.15 -50.85,53.57 -56.74,75.76 -7.27,27.4 18.04,88.76 37.19,97.86 -22.87,-57.39 -64.76,-80.67 21.79,-158.8 15.18,-13.7 28.28,-20.13 37.43,-44.38 -14.79,6.78 -21.61,0.07 -29.08,-9.24 -5.61,-7 -19.53,-17.16 -23.18,-25.78 20.59,-10.43 29.35,-11.07 44.14,-29.51l-40.12 17.8z"/>
   <path class="fil10" d="M2351.13 2075.57c-15.94,-53.35 -21.29,-51.48 -22,-117.89 1.63,-35.57 10.42,-82.7 31.76,-102.15 15.16,3.9 15.32,11.01 31.92,17.78 3.14,-16.34 7.06,-12.77 19.87,-22.57l17.8 4.79 -8.11 -10.22c-14.8,-4.73 -30.09,-12.47 -40.22,-23.42l-1.52 0 -0.66 13.28c-31.1,14.3 -43.21,42.7 -64.53,62.42 -19.31,17.87 -52.65,36.78 -52.25,77.69 41.79,-2.34 37.23,-24.42 59.95,-36.64 9.79,44.37 -10.11,107.99 27.99,136.93z"/>
   <path class="fil2" d="M2381.83 1603.87l0.59 9.2c34.19,6.31 104.81,-16.07 181.08,-4.71 20.8,3.09 43.32,8.41 52.41,-8.77 -32.49,-25.52 -227.6,-31.74 -234.08,4.28z"/>
   <path class="fil10" d="M4418.98 1898.63c19.37,-5.14 31.09,16.56 41.41,26.04 10.69,9.82 23.84,22.49 35.54,31.39 1.51,22.77 -9.68,52.87 10.81,70.42l-3.69 -53.96c2.71,-17.7 7.95,-25.23 22.15,-31.53 25.73,-3.94 16.18,2.05 32.42,4.9 1.73,-17.86 4.75,-22.79 -8.78,-32.08l3.82 22.38c-4.93,-0.82 -15.56,-2.44 -19.28,-3.61 -14.69,-4.59 -11.11,-2.73 -10.07,-17.12 -29.22,26.06 -6.9,-44.94 -31.73,-58.24 2.4,15.94 11.55,38.78 5.46,52.36 -14.88,-5.82 -31.74,-31.11 -45.84,-40.65l1.71 -12.78c-19.78,6.42 -27.78,18.25 -33.93,42.48z"/>
   <path class="fil14" d="M387.85 2258.37c6.69,27.49 92.87,57.63 128.25,66.43 32.45,8.08 154.63,17.66 174.07,-6.58 -18.79,-12.91 -61.93,-0.21 -86.23,-1.34 -119.65,-5.58 -143.45,-35.1 -216.09,-58.51z"/>
   <path class="fil13" d="M4165.5 1829.02l2.4 18.16c-16.38,-7.47 -7.87,-12.57 -21.5,-23.86 5.89,24.61 17.35,31.99 2.36,56.25 -10.04,16.26 -17.24,36.62 -20.5,58.14 6.24,-7.36 9.21,-15.14 17.29,-15.88 -0.38,31.11 -4.9,95.04 19.54,108.71 -11.99,-43.18 -28.18,-116.75 5.06,-149.59l15.06 9.4c-2.84,-13.63 1.68,-17.57 7.09,-24.78 9.02,2.47 3.38,-0.42 11.51,4.31 -0.26,-13.67 -1.34,-16.54 5.18,-26.86 12.65,-3.6 16.28,-2.11 28.67,0.96l-6.12 -13.31c29.62,1.3 31.2,12.32 49.69,22.55 -11.61,-26.81 -39.65,-26.26 -73.73,-28.37l-0.39 -10.21c-13.51,9.59 -2.13,11.62 -20.98,15.4l0.52 -23.84 -11.13 26.82 -10.02 -4z"/>
   <path class="fil12" d="M2733.93 2131.57c-7.27,10.26 -2.56,31.38 -10.54,41.3 -13.01,-21.11 3.51,-37.34 -4.74,-60.45 -0.23,-0.66 -1.19,-1.03 -1.38,-2.43 -0.2,-1.39 -0.93,-1.63 -1.53,-2.34 2.77,15.21 -5.51,68.55 -7.96,87.6 -5.54,43.11 -25.46,42.48 -33.7,65.53 14.49,-5.05 5.3,-0.83 15,-12.46 6.78,-8.13 4.52,-4.56 11.82,-10.78 14.37,-12.23 6.19,-11.93 14.83,-28.32 5.96,42.74 7.33,22.42 38.95,58.38 12.35,14.05 28.95,42.97 52.92,43.93 15.84,-46.83 6.88,-145.46 8.45,-200.31 1.97,-69.26 7.95,-140.06 -2.38,-208.33l-2.06 23.87c0.45,107.6 1.7,225.21 -2.08,332.03 -3.13,88.23 -22.57,30.4 -65.3,-9.93 -7.94,-7.5 -13.45,-9.74 -20.46,-17.97 -4.72,-28.55 11.01,-62.45 10.16,-99.32z"/>
   <path class="fil3" d="M1940.13 2030.32c9.69,-4.92 24.21,-27.01 25.31,-42.2 2.56,-35.24 -7.76,-16.37 9.65,-52.09 28.1,-57.64 41.29,-70.3 20.65,-88.69 -61.78,48.71 -32.48,76.48 -32.32,105.18 -19.04,-6.86 -9.83,-18.59 -25.99,-28.89l2.7 106.69z"/>
   <path class="fil2" d="M2510.72 1392.15c5.25,22.3 122.51,-13.9 112.39,12.09 -1.55,4 -0.78,2.79 -4.76,6.46 -2.6,2.39 -10.24,7.18 -13.83,9.23 -10.53,6.03 -20.31,10.5 -32.63,14.16 -16.45,2.58 -38.31,15.21 -56.85,22.55 -14.25,5.64 -53.82,15.4 -62.45,20.66l9.4 2.47c56.53,5.98 131.35,-52.58 181.02,-68.45l6.51 -1.95c13.82,-24.16 19.66,-7.85 29.43,-26.42 -36.36,-5.33 -132.14,1.54 -168.23,9.2z"/>
   <path class="fil10" d="M551.96 1642.17c-7.83,-45.92 -9.21,-24.92 -17.09,-90.57 -1.35,-11.31 0.9,-5.26 -3.35,-13.53l-2.78 22.5c-9.73,-13.24 -49.04,-68.05 -70.4,-50.52 -23.18,21.43 30.67,54.52 41.5,64.33 12.56,11.37 14.66,22.21 25.85,32.38 9.61,8.72 8.96,3.31 15.09,13.96 6.38,11.11 0.73,11.48 11.18,21.45z"/>
   <path class="fil14" d="M2366.19 2090.3c8.24,15.85 13.79,8.63 16.95,21.4 1.7,6.9 -1.1,28.83 -0.77,38.47 2.85,82.04 60.32,163.68 -2.36,159.13 19,18.93 32.69,-14.51 51.39,-30.66 6.56,-5.66 0.41,1.24 5.75,-5.79l-13.39 -0.35c-4.59,-14.45 -4.41,-24.91 -7.61,-38.44 -2.97,-12.55 -8.16,-21.98 -11.55,-33.97 -6.2,-21.87 -12.32,-62.59 -2.34,-80.36 3.6,-3.18 89.63,-3.18 104.74,-105.17 -10.39,10.97 -14.26,30.46 -21.26,43.61 -8.52,16.02 -16.64,28.4 -28.5,36.13 -58.02,37.78 -77.2,1.23 -91.05,-4z"/>
   <path class="fil9" d="M3677.92 1623.03c-0.31,15.81 -0.98,32.21 0.87,48.06 3.36,28.74 9.17,14.72 17.88,19.67l1.43 59.38 20.85 6.56 0.08 36.11c5.26,-4.99 7.77,-15.07 9.66,-22.34 2.68,-10.27 3.94,-17.48 5.02,-27.97 1.97,-19.26 0.31,-45.79 6.42,-60.61 3.67,3.24 0.99,0.38 4.02,4.84 0.35,0.51 0.95,1.44 1.33,2.02l2.73 4.6c0.35,0.58 0.88,1.7 1.39,2.5l-6.31 -40.61c-9.69,10.53 -10.11,27.15 -13.5,41.96 -1.98,8.67 -4.37,13.99 -7.4,21.6 -5.39,13.51 -1.27,11.91 -11.84,15.78 -8.65,-10.83 -8.55,-110.52 -14.11,-153.39l-7.05 -20.9 1.75 67.31c-11.25,-2.13 -5.69,0.01 -13.22,-4.57z"/>
   <path class="fil1" d="M4574.65 2066.95l0.92 7.77c1.92,35.09 0.31,72.36 -0.1,107.66 -0.9,79.27 -20.18,78 10.25,82.26 13.37,-38.82 10.17,-60.53 9.74,-104.9 -0.24,-25.16 0.16,-91.02 -11.03,-106.93 -0.56,0.52 -1.26,0.7 -1.47,1.74l-8.31 12.4z"/>
   <path class="fil8" d="M4911.52 1682.57c7.92,3.37 13.28,5.61 21.22,9.46 10.76,5.21 11.48,3.21 13.8,14.91 -6.13,4.52 -69.84,19.3 -85.13,24.53 -58.55,20.04 -98.6,44.3 -140.79,85.68 -8.73,8.55 -49,46.78 -38.7,67.67 13.25,4.12 27.84,-0.95 35.54,-9.83l-25.51 0.83c9.73,-59.86 124.95,-122.68 188.07,-141.95 24.1,-7.37 68.95,-14.37 85.79,-23.57 -2.49,-16.81 -21.18,-22.12 -38.63,-28.93 -16.59,-6.48 -37.28,-14.75 -56.14,-17.12 11.21,8.56 22.93,8.07 40.48,18.32z"/>
   <path class="fil14" d="M2196.79 1930.57c49.49,1.02 24.09,13.77 52.37,10.84 -3.81,-29.82 -28.25,-23.48 -42.6,-28.61l-9.06 -5.34c-6.12,-19.09 6.56,-80.66 14.51,-93.46 8.42,18.37 -3.9,47.39 -1.59,69.18 17.25,-6.39 16.35,-38.69 21.07,-56.51 5.33,-20.1 19.1,-44.98 19.39,-63.92 -19.13,5.63 -19.19,24.21 -31.62,37.39 -1.57,-17.93 7.39,-31.8 13.42,-47.76 -19.87,16.35 -24.66,53.78 -33.05,81.23 -4.54,14.85 -8.41,31.96 -10.02,48.21 -3.2,32.31 6.35,33.29 7.18,48.75z"/>
   <path class="fil12" d="M2444.43 1380.42c75.52,-7.76 137.24,-28.32 214.38,-4.44 -33.31,1.51 -68.9,-0.86 -100.95,4.14 -22.74,3.55 -75.39,7.34 -87.71,17.35l40.57 -5.32c36.09,-7.66 131.87,-14.53 168.23,-9.2 -9.77,18.57 -15.61,2.26 -29.43,26.42 11.22,-7.47 12.42,-11.13 27.15,-8.72l-1.73 6.97c17.19,-4.82 33.6,-11.94 36.02,-30.58 -11.3,-8.15 -88.12,-15.58 -100.83,-15.95 -27.41,0.25 -142.32,-4.73 -165.7,19.33z"/>
   <path class="fil10" d="M2701.16 1674.61c-7.49,-1.75 -7.42,-3.98 -13.21,-8.14 -26.09,-10.97 -45.47,-26.17 -76.04,-32.53 -17.04,-3.54 -80.49,-14.9 -91.59,-7.86 9.62,9.63 13.32,4.9 28.01,6.97l71.85 25c29.72,12.06 57.61,44.97 90.75,38.81l-9.77 -22.25z"/>
   <path class="fil10" d="M2696.53 1904.92c-13.62,6.88 -38.13,30.27 -44.13,47.81 8.3,-7.53 8.31,-7.6 15.97,-11.9 46.48,32.38 23.42,44.77 20.44,61.28 -2.38,13.16 -2.45,24.02 5.28,33.38 -2.09,-19.66 -3.86,-33.59 7.48,-47.18 6.24,-21.66 12.08,-20.28 36.31,-19.41l1.65 7.87c17.38,-1.34 1.86,-57.14 -1.69,-74.01 -3.06,-14.51 -4.33,-16.2 -11.94,-21.81 4.13,28.79 10.39,47.91 11.85,80.02 -16.01,-8.62 -10.55,-16.21 -44.4,-44.04l3.18 -12.01z"/>
   <path class="fil2" d="M2173.17 1969.69c-19.88,7.75 -20.54,34.03 -20.04,57.46 0.3,14.33 0.58,63.45 16.83,63.79 24.67,0.51 24.16,-101.38 3.21,-121.25z"/>
   <path class="fil11" d="M4726.15 1673.16c-3.72,6.16 -4.54,4.98 -4.59,12.89 30.47,5.36 48.2,-21.42 141.53,-1.92 22.19,4.64 36.38,10.57 48.43,-1.56 -17.55,-10.25 -29.27,-9.76 -40.48,-18.32 -27.42,-1.81 -41.12,-10.68 -75.71,-5.99 -21.47,2.92 -46.81,9.18 -69.18,14.9z"/>
   <path class="fil10" d="M849.63 1535.54c12.29,34.54 36.01,54.89 38.62,100.24 -4.45,5.32 1.16,1.6 -8.76,2.59 2.18,11.7 2.66,8.06 5.52,11.54 21.18,-12.87 -1.26,-43.78 -7.72,-76.72 11.54,-4.12 15.77,-12.32 23.28,-18.94 11.06,-9.75 10.09,-10.86 20.04,-21.36 13.1,4.03 10.15,9.55 24.08,15.18 -7.95,-18.72 -42.47,-47.42 -62.9,-54.53 7.79,9.27 4.77,6.85 13.41,11.44 -4.46,11.56 -25.86,30.95 -37.07,36.8l-8.5 -6.24z"/>
   <path class="fil12" d="M1894.83 2267.39c19.51,-14.71 6.35,-75.7 7.1,-101.18 0.79,-26.74 8.37,-91.03 -0.63,-110.96 -16.64,4.04 -10.56,7.04 -11.62,48.43l-1.86 120.93c0.12,26.02 -15.69,33.68 7.01,42.78z"/>
   <path class="fil2" d="M2422.37 1845.31l8.11 10.22 -0.11 -0.2c29.28,2.06 42.81,8.98 76.24,8.79 23.46,-0.14 52.07,-2.72 73.71,-7.74 1.38,-11.92 8.07,-9.59 -10.55,-15.36 -17.67,-5.48 -35.72,3.15 -63.22,3.07 -23.89,-0.06 -72.42,-13.32 -83.74,-10.11l-0.44 11.33z"/>
   <path class="fil15" d="M3209.83 1187.55c7.28,16.43 9.85,40.78 18.98,59.48 8.89,18.19 17.66,42.52 31.81,50.28 9.43,8.81 3.04,6.83 15.96,8.79l-1.07 -18.91c-5.46,-15.36 -18.99,-24.36 -22.39,-45.89l0.41 -2.2c-11.94,-5.49 -13.77,-16.67 -18.51,-30.36 -4.08,-11.79 -7.24,-23.87 -9.21,-36.57 -18.43,-13.47 -6.73,-17.6 -16.93,-30.74 -8.73,14.22 -1.69,30.05 0.95,46.12z"/>
   <path class="fil13" d="M418.76 1803.41c19.58,-35.12 -22.03,-75.77 -38.84,-93.03 -28.05,-28.81 -69.61,-30.68 -118.88,-25.38 22.08,11.3 92.65,0.74 135.19,70.52 7.38,12.09 14.63,39.34 22.53,47.89z"/>
   <path class="fil2" d="M1327.51 2146.8l3.64 74.53c2.08,14.16 0.53,11.06 10.22,15.38 11.91,-12.42 10.52,-54.69 10.67,-70.5 0.23,-23.61 0.01,-57.47 -7.65,-76.71 -16.93,8.45 -16.92,33.82 -16.88,57.3z"/>
   <path class="fil11" d="M4140.28 1528.09c-10.23,8.99 -19.81,6.47 -32.42,13 -13.76,7.12 -10.26,13.04 -26.13,22.48 -18.41,10.95 -34.35,30.87 -42.78,51.26 -3.41,16.89 -1.01,8.01 1.73,10.75l27.26 -30.41c13.47,-16.72 14.94,-13.55 29.69,-27.21 24.71,-12.9 30.33,-19.35 64.98,-25.81l38.73 -4.28 -2.66 -11.3 -37.29 0.54 -21.11 0.98z"/>
   <path class="fil14" d="M531.52 1538.07c4.25,8.27 2,2.22 3.35,13.53 7.88,65.65 9.26,44.65 17.09,90.57 0.97,6.27 0.45,6.79 3.14,12.69 4.9,10.72 1.96,5.8 9.57,11.2l-8.74 -36.6c10,4.81 10.93,10.11 15.76,21.87 4.96,12.09 4.32,16.12 14.92,22l-30.18 -92.02 -3.05 -70.37 9.95 1.92c-5.12,-11.13 0.03,-8.06 -12.15,-12.27 -11.41,22.22 6.17,59.51 -2.21,82.72 -12.74,-20.81 -12.98,-77.71 -10.57,-106.51l12.67 3.13c-5.68,-9.27 4.3,-5.57 -12.38,-8.07 -13.1,14.48 -4.3,46.21 -7.17,66.21z"/>
   <path class="fil15" d="M3528.36 1389.15c19.34,30.84 38.51,75.49 48.55,111.56 4.49,16.15 4.19,22.74 19.14,30.15 2.73,-15.95 -1.1,-25.9 -4,-41.7 -2.1,-18.18 -36.4,-89.35 -48.9,-105.77 -12.86,-7.5 -8.14,-9.82 -19.49,-15.5l4.7 21.26z"/>
   <path class="fil1" d="M2843.15 2069.4c21.77,-8.37 15.89,-39.89 15.86,-68.14 -0.01,-26.48 7.06,-60.32 -15.86,-68.58 -6.82,10.36 -6.28,16.83 -5.92,32.91 0.67,30.19 -2.52,90.97 5.92,103.81z"/>
   <path class="fil7" d="M3112.95 1238.32c13.07,-12.11 28.72,-59.45 45.02,-86.59 8.44,-14.05 16.17,-25.62 25.02,-39.62 9.84,-15.56 15.3,-32.45 33.34,-36.72 2.35,12.22 5.82,16.13 -0.37,26.75 0.41,12.34 -0.02,24.85 1.15,37.09 1.6,16.7 5.55,19.08 8.7,32.94 1.97,12.7 5.13,24.78 9.21,36.57 4.74,13.69 6.57,24.87 18.51,30.36 -1.98,-21.57 -29.32,-91.31 -29.46,-130.44 -0.06,-19.71 0.24,-33.67 -2.09,-52.58 -25.6,13.92 -98.64,138.79 -109.03,182.24z"/>
   <path class="fil10" d="M1904.77 1878.19c-5.03,-32.39 -30.92,-103.95 -45.32,-124.79l-15.78 -7.93c0.71,9.47 38.12,101.62 44.09,127.2 4.23,18.14 3.62,31.75 16.51,41.09l0.5 -35.57z"/>
   <path class="fil15" d="M3473.33 1393.84c-8.79,-38.42 -55.79,-96.14 -71.69,-123.98 -6.57,-4.36 -8.49,-6.97 -18.31,-10.55 3.11,19.72 13.64,27.15 21.36,41.72 12.61,23.79 51.83,98.02 68.68,104.6l-0.04 -11.79z"/>
   <path class="fil15" d="M3652.66 1482.89c4.95,21.08 13.68,41.98 16.74,63.75 2.39,17 10.32,63.39 8.52,76.39 7.53,4.58 1.97,2.44 13.22,4.57l-1.75 -67.31 -13.78 -56.89c-8.7,-7.97 -7.77,-16.38 -13.9,-28.97 -4.45,-9.15 -8.5,-16.33 -15.72,-22.41 -3.15,14.95 3.14,18.52 6.67,30.87z"/>
   <path class="fil10" d="M556.43 1581.31l30.18 92.02c6.99,16.12 18.85,34.27 40.14,40.07 -1.88,-7.7 -17.67,-34.49 -27.99,-63.26 -11.19,-31.21 -14.01,-42.59 -12.48,-79.03 -8,10.32 -2.87,19.15 -9.79,34.29 -14.35,-9.4 -8.88,-14.28 -20.06,-24.09z"/>
   <path class="fil1" d="M556.43 1581.31c11.18,9.81 5.71,14.69 20.06,24.09 6.92,-15.14 1.79,-23.97 9.79,-34.29 2.96,-33.8 4.11,-45.89 -22.95,-58.25l-9.95 -1.92 3.05 70.37z"/>
   <path class="fil14" d="M3571.39 1922.88l35.5 -0.7c-3.47,17.8 -6.5,8.09 -12.2,28.07 -16.26,57.04 14.44,69.2 21.32,86.59 -47.12,59.51 -93.98,-7.42 -102.87,-12.86 24.15,44.1 57.67,55.91 97.61,26.4l13.17 -10.31c-3.58,-30.96 -24.62,-11.51 -27.33,-58.16 -1.68,-28.84 10.46,-51 29.81,-57.6 8.98,4.19 15.11,10.07 27.18,12.57l-0.06 -16.48c-11.71,-8.33 -23.76,-7.25 -40.18,-6.48l-41.95 8.96z"/>
   <path class="fil2" d="M1364.02 1821.87c17.55,-5.56 10.17,-21.97 32.88,-59.42l34.12 -54.59c-26.17,-4.42 -63.69,60.89 -66.35,71.06 -6.33,24.21 -3.36,37.17 -0.65,42.95z"/>
   <path class="fil12" d="M3719.03 1792.81l-2.8 38.91 10.28 -2.69c4.74,-20.08 15,-38.82 18.83,-58.1 4.89,-24.55 4.49,-50.57 4.26,-75.08 -0.51,-0.8 -1.04,-1.92 -1.39,-2.5l-2.73 -4.6c-0.38,-0.58 -0.98,-1.51 -1.33,-2.02 -3.03,-4.46 -0.35,-1.6 -4.02,-4.84 -6.11,14.82 -4.45,41.35 -6.42,60.61 -1.08,10.49 -2.34,17.7 -5.02,27.97 -1.89,7.27 -4.4,17.35 -9.66,22.34z"/>
   <path class="fil14" d="M225.93 1931.48c-14.48,-19.28 -53.21,-16.59 -61.41,-80.48 -5.98,-46.63 14.98,-82.49 44.04,-94.83 -7.95,17.48 -21.25,23.7 -26.88,45.19 12.71,-3.65 9.36,2.07 8.72,15.04 10.32,-10.23 4.9,-15.51 19.97,-39.73 27.77,-44.61 -0.91,-6.29 11.13,-34.79 -36.91,9.47 -62.65,47.06 -63.32,94.4 -0.66,47.65 31.22,88.58 67.75,95.2z"/>
   <path class="fil9" d="M3726.51 1829.03l-10.28 2.69 2.8 -38.91c-3.55,4.59 -5.05,7.99 -11.72,11.4 -7.81,-13.74 -2.88,-35.62 -22.22,-39.39 34.72,69.08 -10.25,122.69 18.99,132.58 5.67,-11.01 1.5,-20.95 9,-35.96 6.31,-12.62 9.66,-16.5 13.43,-32.41z"/>
   <path class="fil12" d="M3260.62 1297.31c7.11,16.22 31.36,37.6 43.61,49.16 15.33,14.45 29.11,31.63 46.13,42.25 3.2,-4.4 3.13,-4.3 3.89,-11.91 -14.5,-14.1 -25.07,-27.96 -40.16,-43.41 -5.32,-5.45 -13.05,-15.2 -18.94,-23.13 -6.1,-8.22 -9.77,-17 -19.64,-23.08l1.07 18.91c-12.92,-1.96 -6.53,0.02 -15.96,-8.79z"/>
   <path class="fil1" d="M4452.91 1856.15l-1.71 12.78c14.1,9.54 30.96,34.83 45.84,40.65 6.09,-13.58 -3.06,-36.42 -5.46,-52.36l-0.35 -11.95c-7.42,-1.22 -12.74,-1.53 -20.9,-0.26 -14.11,2.21 -14.44,2.48 -17.42,11.14z"/>
   <path class="fil13" d="M2329.13 1957.68c9.33,-13.22 4.36,-17.26 8.1,-31.05l4.24 -10.02c7.2,8.29 4.71,11.19 2.2,27.08 15.02,-18.66 2.6,-41.26 23.7,-59.56 12.27,3.56 8.24,5.62 22.64,9.63 -8.27,-8.69 -6.42,-5.67 -10.92,-17.09l13.9 3.17 -0.18 -6.53c-16.6,-6.77 -16.76,-13.88 -31.92,-17.78 -21.34,19.45 -30.13,66.58 -31.76,102.15z"/>
   <path class="fil13" d="M753.28 1707.45c-6.8,-28.33 1.6,-28.33 26.27,-25.87 -0.16,-14.8 -3.69,-7.52 5.27,-7 -5.75,-13.46 -18.6,-24.05 -33.98,-29.41 8,36.9 -35.18,28.65 -36.02,67.27 27.44,7.7 8.24,-9.27 38.46,-4.99z"/>
   <path class="fil1" d="M2696.53 1904.92l-3.18 12.01c33.85,27.83 28.39,35.42 44.4,44.04 -1.46,-32.11 -7.72,-51.23 -11.85,-80.02 -2.12,-4.13 6.54,-3.86 -5.75,-2.95 -8.89,10.35 -19.82,19.68 -23.62,26.92z"/>
   <path class="fil2" d="M4020.23 2137.44c10.13,-8.11 7.27,-15.12 7.23,-35.9 -0.04,-15.1 0.14,-30.2 0.08,-45.3l-1.2 -76.54c-3.84,-12.52 -1.58,-4.31 -5.08,-7.76 -12.43,25.33 -6.56,135.01 -1.03,165.5z"/>
   <path class="fil9" d="M3357.76 1943.61c-23.99,12.87 -21.63,57.97 0.7,69.14 14,-5.94 15.15,-13 15.62,-34.1 0.46,-21.05 -0.06,-29.02 -16.32,-35.04z"/>
   <path class="fil14" d="M755.47 2310.2c36.66,-2.5 99.24,-28.07 102.91,-59.07 -27.24,8.73 -61.55,32.95 -79.16,38.96 -19.51,6.64 -17.39,1.64 -23.75,20.11z"/>
   <path class="fil2" d="M330.05 1975.74l-11.05 6.45c-15.71,5.44 -24.89,-2.15 -39.02,9.15 28.32,8.54 39.63,1.68 63.79,-7.06 22.89,-1.74 60.76,-38.61 57.11,-65.24 -19.23,18.57 -38.25,47.66 -70.83,56.7z"/>
   <path class="fil7" d="M2701.57 1988.31c9.36,-8.7 1.18,-3.03 10.53,-8.03 9.49,24.54 -11.48,47.42 11.29,66.3 32.28,-15.09 4.73,-62.54 4.67,-70.42l11.47 0.61 -1.65 -7.87c-24.23,-0.87 -30.07,-2.25 -36.31,19.41z"/>
   <path class="fil13" d="M838.4 1552.21c9.13,7.67 10.7,18.27 16.08,30.02 6,13.14 9.78,20.85 13.53,34.13 4.65,4.93 9.96,13.37 11.48,22.01 9.92,-0.99 4.31,2.73 8.76,-2.59 -2.61,-45.35 -26.33,-65.7 -38.62,-100.24l-13.96 -3.28 2.73 19.95z"/>
   <path class="fil8" d="M4592.58 1252.03l73.07 -3.96 44.01 -6.06c-11.84,20.49 -30.41,20.54 -44.3,40.92 14.67,-5.28 36.05,-22.7 53.57,-33.51 9.11,-5.62 11.14,-5 14.13,-14.4 -25.45,-5.81 -90.89,4.95 -121.99,10.45l-15.9 5.07c-0.69,0.33 -1.77,0.94 -2.59,1.49z"/>
   <path class="fil13" d="M4543.84 2009.12l-11.05 1.96c-0.86,-0.07 -1.91,-0.35 -2.7,-0.48 -15.72,-2.53 -8.76,-43.48 -0.68,-51.47 19.69,3.64 18.67,36.38 14.43,49.99zm-40.79 -36.6l9.87 -1.43c1.94,23.4 0.31,42.34 16.49,51.83 18.14,-2.62 23.78,-21.18 22.55,-40.95 -0.55,-8.79 -1.78,-18.62 -7.36,-24.95 -11.88,-13.45 -10.85,1.97 -19.4,-16.03 -14.2,6.3 -19.44,13.83 -22.15,31.53z"/>
   <path class="fil3" d="M1839.8 2029.36c14.47,-3.84 19.92,-8.55 20.81,-28.11 0.79,-17.48 -5.95,-28.54 -20.81,-30.84 -18.66,16.32 -15.52,44.07 0,58.95z"/>
   <path class="fil3" d="M1597.06 2030.69c14.49,-3.3 18.86,-12.91 19.21,-29.49 0.36,-16.97 -3.69,-28.21 -15.97,-33.44 -16.71,7.79 -15.42,33.63 -11.78,48.38 2.81,11.38 3.08,9.79 8.54,14.55z"/>
   <path class="fil8" d="M4285.67 2010.04c-12.84,1.76 -14.36,1.21 -16.59,-11.68 -2.1,-12.12 -1.4,-18.75 4.64,-26.49 11.17,-0.08 12.56,-2.69 14.06,12.9 0.7,7.25 -1.21,17.87 -2.11,25.27zm0 0c6.26,-2.96 7.7,0.72 10.1,-12.65 2.77,-15.45 -6.42,-43.59 -18.81,-44.01 -21.08,-0.71 -29.48,61.92 4.7,68.93l4.01 -12.27z"/>
   <path class="fil12" d="M2244.13 2097.81c27.73,-3.2 26.1,-58.54 22.04,-66.58 -6.67,-13.22 1.75,-4.07 -8.85,-8.23 -13.44,10.92 -4.14,9.99 -7.33,36.02 -2.22,18.09 -9.03,14.36 -5.86,38.79z"/>
   <path class="fil14" d="M3339.54 2016.85c-27.84,-53.94 -1.78,-61.88 4.28,-93.21 -14.92,-11.98 -61.61,-13.64 -83.19,-14.72 -30.19,-1.5 -24.58,3.64 -26.18,6.11 41.18,-2.85 63.12,4.22 100.74,8.05 -2.13,24.06 -11.69,17.3 -12.19,48.98 -0.37,23.84 -1.36,38.95 16.54,44.79z"/>
   <path class="fil14" d="M343.77 1984.28c-24.16,8.74 -35.47,15.6 -63.79,7.06 14.13,-11.3 23.31,-3.71 39.02,-9.15l11.05 -6.45c-14.62,0.11 -29.21,-0.16 -43.82,-0.07l-30.67 1.82c-12.73,3.58 -3.99,1.31 -7.91,4.36 15.65,14.75 53.04,20.38 76.91,15.5 12.05,-2.46 15.19,-5.16 19.21,-13.07z"/>
   <path class="fil7" d="M3631.72 1951.32l2.49 37.05c-3.58,18.2 4.33,-13.65 -1.8,5.86 -0.25,0.77 -1.12,3.17 -1.32,2.71 -0.2,-0.46 -0.9,1.8 -1.45,2.64 -14.44,-2.94 -16.03,-7.51 -16.75,-24.24 -0.91,-20.95 0.73,-23.48 18.83,-24.02zm-8.56 61.39c32.04,-9.95 22.84,-69.32 3.17,-70.43 -25.59,-1.45 -22.96,54.15 -3.17,70.43z"/>
   <path class="fil4" d="M4566.26 1880.11c-0.71,-17.65 -5.64,-42.57 -12.4,-58.46 -5.49,-12.92 -2.52,-8.46 -11.51,-12.14l-2.64 20.26c0.08,7.54 -0.35,17.13 2.03,23.8 3.63,10.22 15.69,22.08 24.52,26.54z"/>
   <path class="fil6" d="M4543.84 2009.12c4.24,-13.61 5.26,-46.35 -14.43,-49.99 -8.08,7.99 -15.04,48.94 0.68,51.47 0.79,0.13 1.84,0.41 2.7,0.48l11.05 -1.96z"/>
   <path class="fil16" d="M3209.83 1187.55c-2.64,-16.07 -9.68,-31.9 -0.95,-46.12 10.2,13.14 -1.5,17.27 16.93,30.74 -3.15,-13.86 -7.1,-16.24 -8.7,-32.94 -1.17,-12.24 -0.74,-24.75 -1.15,-37.09l-10.27 -3.08c-4.08,15 -15.57,78.87 4.14,88.49z"/>
   <path class="fil14" d="M2212.01 2239.75c8.75,-9.06 10.52,-16.96 10.66,-34.7 0.14,-18.91 0.82,-30.87 -14.91,-35.73 -3.42,19.57 -9.46,56.33 4.25,70.43z"/>
   <path class="fil1" d="M4523.31 1915.46c-1.04,14.39 -4.62,12.53 10.07,17.12 3.72,1.17 14.35,2.79 19.28,3.61l-3.82 -22.38c2.68,-14.59 -4.53,-19.73 -12.96,-25.51 -7.87,5.57 -12.38,17.04 -12.57,27.16z"/>
   <path class="fil10" d="M181.68 1801.36c-5.27,19.36 -16.55,32.48 -1.58,63.39 3.27,6.75 2.14,4.3 5.81,8.4 3.97,-4.69 3.87,-1.21 5.08,-10.8l-0.59 -45.95c0.64,-12.97 3.99,-18.69 -8.72,-15.04z"/>
   <path class="fil12" d="M4203.81 1869.88l6.39 41.48 -11.87 -1.05c5.43,10.56 1.45,8.1 15.07,11.33 4.83,-27.31 -6.17,-47.76 -0.39,-71.52 38.86,-13.2 48.75,20.73 68.26,33.83 -12.04,-23.81 -16.62,-30.09 -43.61,-39.97 -12.39,-3.07 -16.02,-4.56 -28.67,-0.96 -6.52,10.32 -5.44,13.19 -5.18,26.86z"/>
   <path class="fil7" d="M2467.28 2042.14c10.83,-6.64 23.56,-50.07 -6.05,-50.13 -9.55,11.84 -9.81,31.22 -3.91,42.35 4.59,8.64 4.34,6.16 9.96,7.78z"/>
   <path class="fil11" d="M4722.82 1874.62l-2.01 8.94 48.4 2.02 33.66 -0.62 -2.32 -9.07c-30.3,-4.37 -47.25,-3.69 -77.73,-1.27z"/>
   <path class="fil3" d="M1692.47 1439.72c4.5,3.12 44.76,31.51 46.74,5.16 1.38,-18.37 -31.17,-21.98 -46.74,-5.16z"/>
   <path class="fil5" d="M3629.64 1999.58c0.55,-0.84 1.25,-3.1 1.45,-2.64 0.2,0.46 1.07,-1.94 1.32,-2.71 6.13,-19.51 -1.78,12.34 1.8,-5.86l-2.49 -37.05c-18.1,0.54 -19.74,3.07 -18.83,24.02 0.72,16.73 2.31,21.3 16.75,24.24z"/>
   <path class="fil2" d="M4185.21 1890.35c1.58,11.67 5.73,13.05 13.12,19.96l11.87 1.05 -6.39 -41.48c-8.13,-4.73 -2.49,-1.84 -11.51,-4.31 -5.41,7.21 -9.93,11.15 -7.09,24.78z"/>
   <path class="fil12" d="M1572.16 1974.24c9.19,-4.69 14.43,-12.58 20.73,-21.13 25.12,-0.15 14.82,6.21 32.97,9.39 1.69,-15.27 -2.21,-26.48 -7.35,-43.91 -3.44,-11.68 -1.07,-8.09 -9.31,-11.99 2.54,17.78 8.34,22.82 7.25,42.07 -26.44,-3.52 -36.59,1.29 -44.29,25.57z"/>
   <path class="fil15" d="M753.28 1707.45c26.76,11.78 23.89,-4.38 26.27,-25.87 -24.67,-2.46 -33.07,-2.46 -26.27,25.87z"/>
   <path class="fil6" d="M4285.67 2010.04c0.9,-7.4 2.81,-18.02 2.11,-25.27 -1.5,-15.59 -2.89,-12.98 -14.06,-12.9 -6.04,7.74 -6.74,14.37 -4.64,26.49 2.23,12.89 3.75,13.44 16.59,11.68z"/>
   <path class="fil16" d="M3528.36 1389.15l-4.7 -21.26c11.35,5.68 6.63,8 19.49,15.5 -2.89,-7.63 -19.04,-30.81 -24.22,-36.58l-14.74 -7.95c2.57,14.49 12.19,43.39 24.17,50.29z"/>
   <path class="fil13" d="M3099.21 2201.95c-8.04,6.99 -9.56,12.77 -9.53,28.97 0.06,30 8.13,25.18 10.34,26.61 4.88,-17.37 5.49,-38.66 -0.81,-55.58z"/>
   <path class="fil14" d="M4262.82 1942.78l37.68 1.17c2.27,-12.71 0.86,-25.37 -7.5,-33.46l2.53 27.03 -25.6 -5.36 -7.11 10.62z"/>
   <path class="fil1" d="M2649.52 1409.37l-6.51 1.95c-2.52,5.72 0.51,4.53 -3.43,7.77 0.87,1.71 0.28,2.11 2.99,6.76l32.37 -18.23 1.73 -6.97c-14.73,-2.41 -15.93,1.25 -27.15,8.72z"/>
   <path class="fil1" d="M2231.07 1503.45l-1.18 9.31c18.01,1.63 14.6,-3.63 21.62,-19.28 -4.45,-4.06 0.84,-1.32 -8.86,-3.05 -8.08,4.41 -7.8,3.52 -11.58,13.02z"/>
  </g>
 </g>
</svg>
