<?xml version="1.0" encoding="UTF-8"?>
<!DOCTYPE svg PUBLIC "-//W3C//DTD SVG 1.1//EN" "http://www.w3.org/Graphics/SVG/1.1/DTD/svg11.dtd">
<!-- Creator: CorelDRAW 2017 -->
<svg xmlns="http://www.w3.org/2000/svg" xml:space="preserve" width="50.7998mm" height="33.8666mm" version="1.1" style="shape-rendering:geometricPrecision; text-rendering:geometricPrecision; image-rendering:optimizeQuality; fill-rule:evenodd; clip-rule:evenodd"
viewBox="0 0 5079.98 3386.66"
 xmlns:xlink="http://www.w3.org/1999/xlink">
 <defs>
  <style type="text/css">
   <![CDATA[
    .fil7 {fill:#ED3237}
    .fil8 {fill:#71577F}
    .fil3 {fill:#FFCC29;fill-rule:nonzero}
    .fil2 {fill:#F58634;fill-rule:nonzero}
    .fil0 {fill:#EC268F;fill-rule:nonzero}
    .fil1 {fill:#ED3237;fill-rule:nonzero}
    .fil6 {fill:#C75EA3;fill-rule:nonzero}
    .fil5 {fill:#00AFEF;fill-rule:nonzero}
    .fil4 {fill:#00A859;fill-rule:nonzero}
   ]]>
  </style>
 </defs>
 <g id="Capa_x0020_1">
  <metadata id="CorelCorpID_0Corel-Layer"/>
  <g id="_1630127967808">
   <path class="fil0" d="M449.53 1779.14l-31.55 87.31 90.01 0 30.69 -87.31 -89.15 0zm0 -220.87l79.13 0 -52.22 148.95 86.7 0 52.96 -148.95 79.25 0 -53.08 148.95 101.38 0 -26.53 71.92 -100.29 0 -30.08 86.58 103.95 0 -25.56 71.91 -104.2 0 -52.95 148.96 -79.25 0 53.08 -148.96 -87.45 0 -53.32 148.96 -78.88 0 52.34 -148.96 -102.85 0 27.28 -71.91 101.01 0 30.82 -86.58 -107.13 0 26.54 -71.92 106.4 0 52.95 -148.95z"/>
   <path class="fil1" d="M1260.24 1794.54l0 252.55c-34.86,17.49 -68.86,30.57 -101.88,39.38 -33.14,8.92 -65.18,13.33 -96.24,13.33 -79.13,0 -144.68,-26.05 -196.9,-78.27 -52.22,-52.22 -78.27,-118.14 -78.27,-197.63 0,-80.35 26.42,-146.76 79.37,-199.23 52.95,-52.58 119.85,-78.88 200.93,-78.88 30.58,0 59.68,4.16 87.45,12.6 27.63,8.32 54.3,21.03 79.86,37.91l-13.33 130c-24.1,-24.33 -48.07,-42.19 -71.92,-53.44 -23.97,-11.37 -49.04,-17 -75.33,-17 -46.59,0 -85.12,15.53 -115.69,46.72 -30.58,31.18 -45.86,70.2 -45.86,116.91 0,49.29 14.79,89.4 44.27,120.59 29.47,31.18 67.51,46.71 113.98,46.71 10.76,0 21.64,-0.97 32.65,-2.81 11.01,-1.95 22.38,-4.65 34.37,-8.31l0 -75.46 -98.33 0 0 -105.67 220.87 0zm215.85 123.28l136.48 0 -67.38 -162.66 -69.1 162.66zm-194.45 165.1l265.01 -535.66 7.83 0 259.16 535.66 -129.77 0 -32.9 -75.58 -210.84 0 -33.63 75.58 -124.86 0zm621.64 0l0 -246.55 -185.64 -272.97 149.69 0 108.48 164.49 119.6 -164.49 131.47 0 -200.32 267.96 0 251.56 -123.28 0z"/>
   <path class="fil2" d="M2398.71 1658.8l-16.88 0 0 138.68 22.51 0c31.31,0 55.15,-5.99 71.66,-18.1 16.51,-12.11 24.71,-29.47 24.71,-52.1 0,-23.72 -8.07,-40.97 -24.34,-51.97 -16.27,-11.01 -42.19,-16.51 -77.66,-16.51zm-140.88 424.12l0 -519.52 133.67 0c41.09,0 73.74,2.94 97.83,8.93 24.1,5.99 45.5,16.02 64.21,30.09 19.32,14.06 34.36,31.67 45,52.83 10.64,21.16 15.9,43.54 15.9,67.14 0,52.59 -18.71,94.17 -56.13,124.99 -37.3,30.82 -88.05,46.22 -152.14,46.22 -6.6,0 -11.62,0 -15.04,-0.12 -3.3,-0.12 -6.48,-0.36 -9.3,-0.61l0 190.05 -124 0z"/>
   <path class="fil3" d="M2832.13 1658.06l-20.42 0 0 143.82 26.17 0c31.31,0 55.15,-6.36 71.66,-18.95 16.51,-12.6 24.71,-30.82 24.71,-54.43 0,-24.82 -7.95,-42.68 -23.97,-53.81 -16.02,-11.13 -42.07,-16.63 -78.15,-16.63zm-140.76 424.86l0 -519.52 133.54 0c42.81,0 75.95,2.82 99.55,8.44 23.61,5.63 44.4,14.92 62.62,28.13 19.32,13.82 34.36,30.94 45,51.37 10.64,20.42 15.9,41.94 15.9,64.57 0,32.77 -8.31,61.39 -24.95,85.97 -16.63,24.58 -40.6,43.78 -71.91,57.73l158.5 223.31 -141.62 0 -138.68 -203.99 -17.61 0 0 203.99 -120.34 0z"/>
   <polygon class="fil4" points="3160.37,2082.92 3160.37,1563.4 3284.38,1563.4 3284.38,2082.92 "/>
   <path class="fil5" d="M3528 1971.39l27.27 0c54.18,0 96.61,-13.09 127.19,-39.38 30.57,-26.3 45.86,-62.5 45.86,-108.85 0,-46.35 -15.29,-82.67 -45.86,-109.21 -30.58,-26.54 -73.01,-39.75 -127.19,-39.75l-27.27 0 0 297.19zm-122.54 111.53l0 -519.52 137.95 0c96.98,0 173.05,23.12 227.97,69.47 54.91,46.35 82.43,109.82 82.43,190.29 0,48.19 -10.89,91.11 -32.66,128.41 -21.64,37.43 -53.56,68.12 -95.64,92.34 -23.97,13.82 -49.9,23.72 -78.03,29.84 -28,6.11 -62.74,9.17 -104.07,9.17l-137.95 0z"/>
   <polygon class="fil6" points="3940.4,2082.92 3940.4,1563.4 4260.32,1563.4 4260.32,1670.54 4060.74,1670.54 4060.74,1764.46 4231.71,1764.46 4231.71,1870.86 4060.74,1870.86 4060.74,1973.59 4263.26,1973.59 4263.26,2082.92 "/>
  </g>
  <path class="fil7" d="M1175.19 1376.76c4.74,0 7.82,0.37 11.68,3.62l2.4 2.64c2.87,3.63 3.98,8.58 4.65,12.97 1.04,6.84 -0.43,15.1 -2.35,21.69 -2.28,7.86 -6.24,15.35 -10.92,22 -0.94,1.33 -1.79,2.37 -2.82,3.68 -2.95,3.76 -7.99,8.63 -11.74,11.12 -7.51,4.97 -17.17,9.29 -25.9,4.07 -9.11,-5.45 -10.23,-19.78 -8.48,-30.29 0.93,-5.62 2.82,-12.16 5.19,-17.25 0.27,-0.57 0.51,-1.01 0.77,-1.53 0.27,-0.55 0.41,-1 0.69,-1.62 0.48,-1.04 1.11,-1.82 1.61,-2.79l1.68 -2.93c0.63,-0.8 0.75,-0.23 1.96,-1.19 1.27,-1.03 1.72,-2.23 2.48,-3.39 2,-3.06 6.89,-7.8 10.44,-7.8 2.33,0 3.76,-0.05 5.93,2.04 1.86,1.78 2.04,2.75 2.04,5.3 0,5.34 -3.77,8.38 -8.2,10.04 -1,0.37 -1.72,0.65 -2.78,1 -6.64,2.17 -10.6,5.41 -14.87,10.71 -0.61,0.76 -1.13,1.37 -1.6,2.17 -0.81,1.36 -2.11,3.36 -2.11,5.45 0,2.69 2.69,4.56 5.3,4.05 3.73,-0.72 3.86,-3.14 4.98,-4.89 1.42,-2.2 5.23,-6.01 7.66,-7.02l7.15 -2.7c4.65,-2.19 5.19,-2.25 8.93,-5.96 3.94,-3.92 5.81,-10 5.81,-15.78 0,-3.36 -1.66,-6.47 -3.47,-8.91 -1.54,-2.07 -4.84,-4.33 -7.43,-4.94 0.27,-0.23 0.07,-0.09 0.49,-0.34l1.82 -0.92c2.23,-1.1 6.39,-2.3 9.01,-2.3zm31.66 18.94l0 4.73c-0.18,4.38 -0.82,8.73 -1.56,12.1 -0.42,1.97 -1.27,5.58 -1.95,7.39 -0.05,0.11 -0.3,0.56 -0.39,0.74 -2.63,4.85 -4.29,10.4 -6.35,15.48 -0.48,1.2 -1.42,2.27 -2.12,3.33 -5.15,7.79 -10.88,15.35 -13.42,24.54 -0.39,1.42 -0.75,2.76 -1.18,4.26 -0.34,1.18 -0.45,2.15 -1.02,3.2 -0.44,0.83 -0.14,1.93 -0.54,3.01 -0.13,0.35 -0.74,1.39 -1,1.73 -1.88,2.53 -4.92,3.03 -7.94,2.43 -4.57,-0.92 -33.29,-5.19 -38.21,-5.4 -4.91,-0.21 -9.64,-1.07 -14.66,-1.49l-15.11 -1.24c-3.24,-0.05 -9.42,-0.85 -12.79,-0.83 -1.23,0 -1.43,-0.19 -2.51,-0.23 -8.98,-0.26 -45.02,-1.76 -53.08,-0.86 -2.55,0.29 -5.54,-0.01 -8.15,0.02 -1.17,0.02 -1.34,0.22 -2.5,0.23 -3.67,0.05 -7.07,0 -10.7,0.2l-20.73 1.08c-1.57,0.18 -3.29,0.31 -5.06,0.39l-10.06 0.84c-4.94,0.23 -9.99,0.81 -14.73,1.41 -0.86,0.11 -1.83,0.15 -2.5,0.23 -12.08,1.37 -24.16,2.67 -36.2,4.68 -2.43,0.41 -7.39,1.55 -9.63,1.18 -2.48,-0.41 -5.16,-2.67 -5.63,-5.27 -0.36,-2 0.37,-1.55 -0.34,-3.43l-1.41 -5.3c-1.65,-6.03 -4.46,-11.33 -7.89,-16.45l-9.81 -14.71c-2.19,-3.64 -1.93,-3.23 -3.34,-7.57l-2.47 -8.44c-1.31,-4.23 -2.44,-9.04 -2.69,-13.66 -0.09,-1.69 -0.18,-3.41 -0.22,-5.16l0 -3.56c0.1,-3.75 0.53,-7.49 1.71,-10.97 1.65,-4.9 1.59,-4.67 4.31,-9.32 0.44,-0.76 0.64,-0.96 1.14,-1.58 6.53,-8.2 16.38,-11.85 27.56,-9.59 4.18,0.85 8.63,2.12 12.12,4.23 0.57,0.34 3.02,1.66 3.48,1.77 -0.62,-1.17 -1.42,-1.79 -2.22,-2.82 -2.57,-3.31 -6.15,-5.95 -10.13,-7.27 -4.71,-1.57 -6.14,-8.48 -1.77,-10.33 1.65,-0.7 2.31,-0.56 4.01,-0.1 2.43,0.67 4.83,1.76 6.81,3.26 0.97,0.73 1.9,1.22 2.82,2.01 2.25,1.93 4.17,4.06 6.19,6.18 0.45,0.47 0.72,0.85 1.14,1.37 0.72,0.89 1.26,2.06 2.16,2.66 0,-6.28 -0.19,-11.54 1.86,-17.23 1.5,-4.16 5.09,-10.27 10.19,-6.77 1.68,1.16 3.37,3.65 2.51,6.89 -0.92,3.46 -4.07,2.68 -4.07,14.81 0,3.52 0.62,7.36 0.62,8.8l0.21 0c0,-2.49 1.13,-5.66 1.68,-7.75 0.94,-3.59 2.25,-7.11 3.77,-10.5 2.29,-5.09 5.02,-10.33 8.66,-14.61 0.46,-0.55 0.7,-0.77 1.17,-1.35 1.72,-2.15 3.75,-4.15 5.87,-5.88 3.29,-2.68 7.62,-5.56 11.74,-6.91 5.22,-1.72 10.68,-2.76 16.32,-2.02 3.63,0.48 7.63,1.39 10.96,2.89 1.05,0.47 2.16,0.98 3.24,1.58 3.83,2.12 10.28,6.65 13.26,10.22 0.46,0.55 0.52,0.72 1.06,1.25 1.05,1.04 2.07,2.9 3.2,3.72 -0.43,-1.82 -1.46,-3.64 -2.24,-5.31l-3.83 -7.28c-1.37,-2.28 -3.01,-4.4 -4.62,-6.5 -4.73,-6.14 -9.21,-6.48 -11.08,-7.58 -4.3,-2.52 -3.83,-9.98 1.62,-11.12 4.22,-0.87 13.33,5.6 16.25,9.39 0.63,0.81 1.14,1.14 1.77,2l8.63 13.61c0,-1.49 0.21,-1.2 -0.06,-2.67 -0.72,-4.02 -1.65,-8.11 -2.79,-12.1 -1.2,-4.22 -2.84,-8.82 -5.6,-12.23 -1.78,-2.19 -2.56,-2.65 -4.55,-4.25 -3,-2.4 -2.77,-8.04 0.53,-10.16 4.37,-2.82 8.71,2.13 11.37,5.17 0.59,0.67 0.76,0.96 1.27,1.66 0.46,0.62 0.81,1.01 1.23,1.71 0.7,1.17 1.66,2.57 2.13,3.74 0.45,1.13 1.61,3.01 1.71,4.17l0.42 0c0.49,-2.11 1.79,-4.35 2.79,-6.22 2,-3.75 4.88,-7.05 8.22,-9.61 0.65,-0.49 1.04,-0.76 1.85,-1.08 5.09,-2.04 9.16,3.8 6.71,8.81 -0.91,1.87 -1.61,1.9 -3.05,3.03 -1.04,0.82 -2.03,1.94 -2.84,3.03 -4.36,5.88 -8.23,19.73 -8.23,27l1.4 -2.38c2.78,-5.57 6.3,-10.67 10.7,-15.08 2.57,-2.57 10.1,-8.37 14.33,-7.54 4.45,0.88 5.58,6 3.54,9.26 -1.21,1.95 -2.55,2.02 -4.47,2.87 -1.96,0.86 -3.02,1.62 -4.54,2.8 -4.1,3.18 -8.84,10.09 -11.02,14.98 -0.76,1.7 -3.1,6.08 -3.23,7.67 0.85,-0.57 1.57,-1.79 2.24,-2.58 0.45,-0.54 0.53,-0.72 1.06,-1.25l1.75 -1.81c2.99,-2.86 6.02,-5.66 9.61,-7.79 0.94,-0.56 1.86,-1.17 2.88,-1.74 2.1,-1.18 4.37,-1.96 6.7,-2.73 10.05,-3.36 21.46,-1.85 30.1,3.6 1.01,0.64 1.77,1.16 2.76,1.84 2.75,1.9 5.08,4.27 7.42,6.64 4.05,4.09 8.6,11.64 10.89,17 1.8,4.2 5.41,13.39 5.51,17.77l0.42 0c0,-1.67 0.34,-2.93 0.42,-4.41 0.23,-4.52 0.28,-8.57 -1.1,-12.96 -0.32,-1.01 -0.92,-2.37 -1.54,-3.28 -1.68,-2.45 -2.46,-4.08 -0.94,-7.05 0.46,-0.89 1.34,-1.85 2.24,-2.37 7.96,-4.64 11.13,10.45 11.76,15.44 0.38,2.97 0.06,6.12 0.06,8.96l4.8 -5.89c3.04,-3.6 6.95,-6.47 11.13,-8.58 8.94,-4.52 11.26,2.38 9.07,6.13 -1.73,2.95 -3.26,2.69 -6.07,4 -1.03,0.49 -2.16,1.31 -3.06,1.97l-2.72 2.32c-1.07,0.94 -3.82,4.41 -4.55,5.51 0.73,-0.2 0.34,-0.14 0.93,-0.53 1.98,-1.31 4.05,-2.25 6.25,-3.19 1.3,-0.56 2.55,-1.15 3.93,-1.53 6.18,-1.7 12.35,-2.89 18.94,-0.91 6.96,2.08 11.48,5.72 15.52,11.74 1.5,2.23 2.6,4.73 3.46,7.44 0.91,2.87 1.47,6.06 1.85,9.06 0.13,1.02 0.22,2.07 0.27,3.15zm-296.02 -0.69c0,9.31 6.02,17.21 14.34,20.67 4.85,2.02 8.22,2.17 11.71,5.7 5.57,5.63 4.23,5.99 5.73,7.48 1.71,1.71 4.17,2.31 6.17,1.17 0.94,-0.54 1.67,-1.15 2.01,-2.39 1.27,-4.64 -4.86,-10.39 -7.83,-13.39l-2.36 -2.05c-1.68,-1.22 -3.51,-2.09 -5.6,-2.99l-6.38 -2.43c-1.76,-0.72 -4.13,-2.06 -5.18,-3.63 -5.96,-8.95 1.19,-13.39 3.95,-13.39 3.2,0 4.77,0.55 7.67,2.81 1.48,1.15 3.28,3.14 4.33,4.7 0.96,1.43 1.5,2.84 2.88,3.82 1.63,1.17 1.04,-0.34 3.27,3.44 0.34,0.58 0.47,0.93 0.81,1.5 0.31,0.53 0.56,0.91 0.87,1.43 0.36,0.6 0.38,0.81 0.66,1.45 1.75,4.13 2.96,5.64 4.5,11.22 0.99,3.57 1.02,3.33 1.76,7.26 1.61,8.63 1.54,19.32 -3.39,26.43 -1.53,2.19 -2.74,3.53 -5,4.86 -6.75,3.98 -14.64,1.98 -21.02,-1.45l-2.15 -1.2c-3.17,-1.81 -8.42,-6.3 -10.97,-8.95 -0.63,-0.66 -0.87,-1.11 -1.57,-1.79 -0.67,-0.66 -0.93,-1.11 -1.57,-1.78l-4.26 -5.6c-2.27,-3.74 -2.62,-3.9 -4.91,-8.3 -0.46,-0.88 -0.69,-1.12 -1.14,-2.22 -0.37,-0.89 -0.65,-1.35 -1.05,-2.3 -3.46,-8.34 -5.57,-15.46 -5.57,-25.05 0,-6.09 1.56,-12.11 3.98,-15.73 2.65,-3.97 6.72,-7.55 12.16,-7.55 6.24,0 7.51,0.53 12.66,2.86 0.64,0.29 0.81,0.2 1.18,0.7 -2.72,0.64 -5.66,3.12 -7.37,5.22 -1.74,2.13 -3.32,5.68 -3.32,9.47zm18.66 -24.96l0 0zm0 0l-0.21 -0.21 0.21 0.21zm74.21 4.19c0,3.69 0.6,8.44 2.87,11.19 0.75,0.9 1.18,1.37 2,2.19 5.02,4.96 14.68,7.2 20.57,2.42 6.08,-4.95 4.41,-11.81 -1.33,-11.81 -1.6,0 -3.08,0.74 -3.81,1.63 -1.03,1.26 -1.76,4.71 -7.71,0.88 -3.16,-2.04 -3.33,-7.58 0.69,-10.84 4.64,-3.77 11.78,-2.85 14.68,2.59 1.83,3.43 2.65,9.19 2.65,13.5 0,2.74 -0.57,5.51 -1.49,7.94 -0.3,0.8 -0.73,1.42 -1.09,2.27 -1.56,3.64 0.77,7.32 4.47,7.4l-0.21 4.62c-3.55,-4.08 -8.69,-7.01 -14.09,-8.35 -6.79,-1.69 -15.19,-0.78 -20.97,2.85 -0.64,0.41 -1.09,0.74 -1.76,1.18 -1.56,1.02 -3.49,2.87 -4.57,4.44 -0.85,1.23 -1.67,2.38 -2.28,3.8 -3.67,8.61 -2.96,14.51 2.28,22.17 0.48,0.7 0.68,0.76 1.19,1.33 2.15,2.43 4.45,4.31 7.42,5.79 5.46,2.72 11.88,3.18 17.26,-0.08 1.04,-0.64 2.01,-1.26 2.89,-2.14 1.59,-1.59 2.24,-3.49 1.17,-5.68 -0.94,-1.92 -3.35,-2.93 -5.51,-2.45 -3.04,0.68 -3.4,3.44 -7.64,3.2 -5.7,-0.32 -11.45,-7.1 -11.45,-10.96 0,-15.83 20.09,-17.87 27.96,-9.31 0.18,0.2 0.21,0.24 0.4,0.45 2.17,2.32 3.55,4.28 4.53,7.41 0.69,2.19 0.15,2.64 -0.53,4.67 -0.97,2.93 -1.95,6.04 -3.52,8.65 -2.09,3.46 -2,3.82 -4.52,7.42 -1.64,2.33 -3.54,4.64 -5.78,6.39 -5.42,4.21 -9.7,7.04 -17.49,7.04 -6.49,0 -14.33,-3.76 -18.82,-8.23 -0.35,-0.35 -0.57,-0.62 -0.95,-0.94 -0.51,-0.42 -0.68,-0.41 -1.14,-0.96l-3.62 -4.13c-3.43,-4.52 -6.43,-9.24 -8.62,-14.66 -2.07,-5.11 -2.49,-6.02 -4.05,-11.47 -1.48,-5.17 -2.39,-10.93 -2.86,-16.44 -0.2,-2.35 0.36,-1.45 0.44,-3.15 0.19,-3.71 -0.07,-6.8 1.46,-10.08 1.2,-2.57 3.37,-5.24 6.71,-5.24 1.98,0 4.32,0.75 5.54,1.59 2.96,2.03 4.46,6.26 3.87,9.92 -0.31,1.91 -1.48,3.3 -2.54,4.59 -1.16,1.43 -2.31,2.34 -3.39,3.74 -0.58,0.74 -1.04,1.15 -1.63,1.94 -0.47,0.65 -1.04,1.48 -1.42,2.14 -2.35,4.05 -6.56,20.76 2.72,20.76 1.71,0 3.19,-1.07 3.85,-2.23 0.94,-1.67 0.34,-3.36 0.34,-5.53 0,-3.61 1.39,-7.36 3.48,-9.73 0.03,-0.03 0.07,-0.08 0.1,-0.11 0.03,-0.03 0.08,-0.08 0.11,-0.11 1.86,-2 3.84,-3.87 5.36,-6.16 0.75,-1.12 1.28,-1.94 1.85,-3.19 0.99,-2.22 1.85,-5.25 1.51,-8.22 -0.65,-5.54 -2.28,-10.29 -6.07,-14.06 -4.4,-4.39 -11.28,-6.88 -17.75,-5.49 -1.04,0.22 -1.57,0.64 -2.43,0.71 0.27,-1.14 0.57,-1.95 0.88,-3.1 0.99,-3.56 2.44,-6.95 4.02,-10.25l2.16 -4.12c0.52,-0.92 1.01,-1.73 1.63,-2.57l3.53 -4.64c0.62,-0.74 1.39,-1.41 2.09,-2.11 1.54,-1.55 2.78,-2.5 4.64,-3.74 10.43,-6.95 21.9,-5.05 31.61,2.82 2.17,1.75 4.33,3.91 6.08,6.08 2.57,3.2 3,4.18 5,7.16 -6.52,0 -9.79,0.86 -14.5,4.58 -3.03,2.4 -6.47,7.46 -6.47,12.83zm84.91 -37.75c5.77,0 10.03,1.16 14.63,4.23l3.46 2.62c0.5,0.43 0.66,0.48 1.15,0.96l3.03 3.25c3.17,3.56 5.96,8.33 7.8,12.76l1.82 4.47c0.41,1.13 1.84,5.29 1.86,6.52 -0.8,-0.18 -1.19,-0.49 -2.22,-0.71 -3.87,-0.83 -8.79,0.07 -12.01,1.37 -3.26,1.32 -6.34,3.98 -8.14,6.96 -3.9,6.45 -5.13,14.39 -1.18,21.19l7.2 8.53c1.68,2.16 2.43,4.74 2.85,7.63 0.49,3.42 -0.12,2.48 -0.12,4.53 0,6.92 14.68,8.23 8.99,-11.3 -0.83,-2.84 -1.57,-4.58 -3.12,-6.74l-3.41 -3.93c-0.46,-0.47 -0.8,-0.78 -1.26,-1.25 -0.78,-0.81 -1.45,-1.79 -2.09,-2.74 -2.96,-4.39 -0.33,-11.42 4.17,-13.33 7.37,-3.11 11.9,3.72 12.23,10.35 0.07,1.45 -0.29,3.3 0.12,4.7 0.33,1.09 0.51,0.73 0.51,1.8 0,3.62 -0.79,7.54 -1.38,10.79 -1.72,9.49 -4.94,18.56 -9.9,26.79 -1.89,3.13 -4.1,6.08 -6.57,8.75l-4.63 4.38c-1.7,1.38 -3.43,2.64 -5.4,3.61 -3.77,1.87 -7.6,3.36 -12.58,3.36 -4.4,0 -9.54,-1.9 -12.25,-3.69 -3.29,-2.18 -4.16,-2.87 -6.57,-5.39l-5.36 -6.58 -2.93 -5.04c-1.14,-2.03 -4.55,-10.03 -4.55,-11.6 0,-3.92 3.17,-7.68 5.61,-10.12 4.23,-4.26 12.72,-5.84 18.65,-3.46 5.69,2.29 8.86,6.77 8.86,13.58 0,2.75 -3.21,6.42 -5.3,8.12 -2.8,2.27 -7.39,3.4 -10.55,1.03 -1.42,-1.07 -1.05,-1.43 -3.38,-1.88 -4.43,-0.87 -9.7,5.36 -1.09,10.34 10.59,6.13 22.83,-1 27.98,-10.58 3.31,-6.17 2.64,-12.57 -0.11,-18.77 -0.57,-1.3 -1.4,-2.5 -2.24,-3.63 -2.6,-3.5 -6.18,-5.98 -10.42,-7.61 -6.25,-2.41 -14.64,-2.19 -20.86,0.35 -0.51,0.22 -0.85,0.42 -1.43,0.67 -2.84,1.21 -5.53,3.11 -7.66,5.34 -1.34,1.41 -1.41,0.89 -1.41,-3.52 2.67,-0.06 5.03,-1.95 5.03,-4.61 0,-1.55 -0.31,-2.53 -0.98,-3.84 -3.13,-6.18 -2.8,-16.5 0.34,-22.59 0.74,-1.43 1.81,-2.48 3.12,-3.39 5.63,-3.89 14.71,0.12 14.71,6.33 0,1.57 -0.38,3.6 -1.52,4.56 -0.95,0.79 -2.71,1.83 -3.99,2.1 -5.07,1.07 -2.9,-3.93 -8.75,-3.93 -4.73,0 -6.9,6.26 -1.79,11.01 0.26,0.24 0.51,0.43 0.8,0.68 3.97,3.54 10.58,3.18 15.22,1.28 1.38,-0.56 2.78,-1.39 3.95,-2.34l3.36 -3.14c0.75,-0.88 1.05,-1.79 1.53,-2.87 2.15,-4.84 1.82,-11.06 -0.49,-15.67 -1.13,-2.24 -2.65,-3.86 -4.39,-5.47 -4.07,-3.79 -8.99,-5.09 -14.83,-5.09 0.84,-3.15 8.54,-11.22 10.83,-13.07 3.89,-3.13 10.19,-7.06 17.05,-7.06zm-33.75 5.24l0 0z"/>
  <path class="fil8" d="M4497.23 1771.89c-1.28,-15.85 -11.06,-29.22 -24.45,-32.69 10.53,12.19 5.95,12.06 9.9,18.92 1.32,2.3 11.7,12.19 14.55,13.77zm-148.8 -40.23c-2.88,-3.41 -6.41,-5.01 -10.43,-8.12 -3.17,-2.46 -6.71,-5.82 -10.47,-7.43l-1.33 14.04 22.23 1.51zm217.27 60.03c-1.51,-16.37 -1.01,-19.05 -7.8,-38.15 -4.62,-12.97 -12.98,-25.37 -21.6,-29.79 12.14,15.65 25.24,45.86 14.99,62.81 -1.29,-21.98 -3.64,-41.62 -22.86,-47.21 6.32,10.91 13.53,20.96 11.04,37.98 -2.71,-3.88 -1,-1.29 -2.04,-6.06 -2.66,-12.21 -10.35,-25.88 -23.26,-29.29 9.68,12.8 12.62,14.07 8.01,35.17 -5.02,-8.96 -0.92,-13.69 -18.81,-25.74 0.4,9.39 -1.86,16.43 -1.84,23.2 5.52,3.64 4.82,2.9 10.36,5.3 4.17,1.81 5.15,3.24 9.42,5.03 6.57,2.77 14.95,4.33 20.89,9.12 19.06,15.34 23.12,70.46 29.86,-6.32 1.55,-17.72 1.33,-29.61 -7.46,-41.39 1.39,7.52 4.74,14.24 5,24.29 0.14,5.16 -0.59,21.91 -2.59,25.9l-1.31 -4.85zm-284.06 30.89l0 -2.07c1.71,-3.04 1.96,-5.09 2.61,-9.32 1.25,-8.15 1.04,-4.35 3.03,-10 3.66,-10.41 -4.58,-9.72 -1.5,-19.54 5.95,-19.03 4.49,-25.7 6.01,-45 8.14,-7.91 5.36,-8.95 19.6,-7.98 -2.88,-17.29 -3.54,-21.6 9.52,-30.44 8.56,-0.66 16.95,4.52 26.25,5.49 3.95,-16.13 19.11,-13.11 22.7,-30.61 2.06,-10.05 8.65,-40.53 3.41,-48.74 -8.62,-0.74 -2.71,4.62 -14.24,1.14 -4.82,-1.45 -10.4,-1.9 -15.86,-2.35l-4.97 6.24c-4.49,-1.87 -2.05,-2.09 -6.09,-3.2 -3.18,-0.89 -6.52,-0.38 -10.15,-0.63 -1.06,-9.09 -4.78,-15.55 -5.18,-21.92 8.52,-3.64 11.71,-9.57 20,-14.86 7.22,-4.61 16.43,-10.52 19.83,-17.08 -6.2,-3.3 -6.64,-3.96 -7.1,-12.58 5.06,3.05 7.18,5.35 13.31,7.44 -7.31,-17.9 -28.57,-50.27 -32.39,-66.4l6.94 8.08c5.97,9.24 27.81,41.06 34.08,46.99 3.04,2.88 5.21,2.09 9.47,4.96 3.04,-4.76 4.93,-4.37 10.95,-6.66 6.74,-2.58 6.56,-3.66 10.2,-7.7 6.57,8.17 1.33,15.59 -5.46,20.29 12.42,3.8 25.07,-7.78 34.92,12.4 -6.07,-2.28 -8.38,-4.36 -17.62,-3.63 12.62,5.51 13.3,1.99 26.4,13.51 4.58,4.03 14.85,12.02 21.1,5.96 5.38,-5.21 -3.62,-2.63 3.69,-4.45 6.24,15.18 -9.34,12.95 -20.11,10.45 3.06,2.67 6.4,4.31 9.46,6.63 4.1,3.1 6.13,3.91 8.47,8.72 -7.93,-3.59 -13.7,-8.12 -24.25,-8.27 9.43,5.69 21.26,10.9 30.48,17.61 7.31,5.32 19.78,16.48 22.44,27.85 -5.66,-3.75 -9.15,-11.42 -18.08,-17.73 -6.88,-4.86 -17.06,-8.02 -26.88,-8.09 11.79,6.5 21.43,13.58 25.13,26.87 -10.09,-7.99 -7.09,-11.53 -24.26,-15.15 8.5,9.78 22.58,15.85 26.88,33.91l9.44 -1.84c-0.25,0.22 -0.63,0.27 -0.77,0.8 -0.14,0.52 -0.57,0.67 -0.76,0.86l-6.51 5.5c-3.44,1.64 -8.53,0.46 -12.05,-0.1 4.36,5.41 7.93,8.83 4.61,19.09 -5.73,-12.89 -2.17,-14.16 -18.9,-17.58 0.4,9.9 11.16,18.61 9.92,38.52 11.67,-8.1 62.29,-64.9 32.74,-88.71 5.09,12.78 7.81,27.47 -0.67,39.03 4.67,-15.88 0.65,-20.81 -3.71,-34.43 -16.56,-51.68 63.07,-23.69 81.81,-14.81 -8.59,-10.15 -24.84,-14.83 -41.43,-17.92 19.13,-2.5 53.69,9.87 75.06,11.54 21.05,1.64 41.64,-3.29 56.63,-17.43l7.58 -6.01c-3,11.33 -15.27,23.82 -22.64,28.84 -11.29,7.7 -25.84,10.39 -41.86,10.17 32.69,10.14 107.48,-10.92 136.93,-38.18 4.76,-4.41 8.56,-10.22 14.05,-14.03 -7.77,27.34 -49.17,44.19 -75.4,52.3 -10.48,3.24 -24.93,5.36 -34.54,8.65 23.97,-1.21 49.65,-9.92 70.37,-20.19 8.41,-4.17 13.54,-8.28 21.02,-11.9 -1.81,5.45 0.97,0.59 -2.92,5.32 -3.39,4.12 -7.14,5.9 -11.48,9.4 -15.6,12.57 -41.62,19.34 -61.83,21.98 11.69,1.44 22.16,-2.81 32.89,-3.75l-21.15 7.71c-34.86,9.36 -51.55,2.33 -83.11,-0.25 42.49,18.47 119.71,9.04 162.84,-5.37 24.22,-8.09 45.68,-17.05 65.13,-29.08 10.62,-6.57 18.01,-11.81 27.37,-19.69 7.47,-6.27 18.24,-19.05 25.29,-23.68 -6.57,18.68 -23.02,27.84 -36.84,38.39 -45.53,34.78 -109.91,56.56 -170.61,57.89 28.47,6.63 82.64,-8.34 106.61,-18.68 15.17,-6.54 27.97,-13.03 41.85,-20.93 6.87,-3.91 12.86,-8.07 19.27,-12.12 6.01,-3.81 14,-10.83 19.74,-13.6 -7.29,19.04 -54.4,43.28 -73.23,53.09 8.83,-1.3 17.15,-5.85 24.61,-9.49 9.02,-4.41 15.13,-10.06 23.61,-13.41 -4.28,10.56 -23.26,20.44 -32.62,25.54 -14.59,7.95 -25.9,10.42 -41.49,13.9 15.89,3.67 25,-4.81 37.16,-7.51l-4.85 4.17c-2.41,1.54 -2.71,1.4 -5.13,2.68 -31.97,16.98 -61.55,19 -98.29,16.11 -27.93,-2.19 -55.91,-7.34 -81.37,-18.35 -7.96,-3.45 -15.89,-8.05 -23.42,-10.99 23.15,17.32 84.98,42.77 117.59,50.04 22.84,5.1 30.48,3.23 51.28,-2.58l-1.32 2.44c-2.15,3.38 -4.04,5.96 -7.78,7.71 -3.82,1.79 -10.93,2.57 -15.5,2.75 -20.46,0.83 -41.1,-4.38 -60.01,-10.66 -9.38,-3.12 -18.46,-7.65 -26.43,-10.22 26.85,15.71 53.14,28.67 93.02,26.21l-8.43 8.49c-11.52,8.1 -22.18,12.47 -36.85,6.53 -15.26,-6.18 -28.04,-15.69 -42.46,-23.44 7.47,10.42 24.44,18.85 36.46,25.19 4.12,2.17 2.94,1.04 5.87,4.1 -33.78,-3.36 -88.86,-58.4 -96.36,-62.89 11.11,17.16 20.88,22.8 29.67,46.62 5.15,13.96 11.1,26.03 24.29,31.66 4.65,1.98 11.13,2.17 14.8,5.95 -8.06,2.79 -16.44,7.1 -27.26,6.19l-14.88 -21.41c-2.59,-4.42 -10.75,-20.57 -11.22,-23.91 0.08,10.28 10.37,32.44 14.27,42.07 -20.33,-11.8 -19.47,-48.27 -37.34,-62.51 9.58,18.12 11.97,21.86 14.39,46.45 0.79,7.97 3.04,17.07 7.27,22.57 8.07,10.5 12.37,6.93 18.17,12.48 -9.8,0.61 -15.38,3.94 -22.31,-1.87 -15.53,-13.02 -8.74,-40.13 -23.72,-56.74 7.76,19.86 12.57,29.59 10.75,53.21 -0.88,11.32 -1.14,20.02 -3.26,31.12 -1.74,9.16 -4.79,18.73 -6.24,27.18 50.69,0.48 29.88,24.7 39.8,62.81 4.16,15.98 11.11,22.01 18.69,32.32 18.32,24.92 10.29,11.94 22.59,23.06 4.09,3.7 1.36,-0.13 3.57,4.98 -7.1,-3.07 -11.43,-7.08 -19.42,-9.61 3.69,8.33 8.62,15.38 13.99,22.29 3.68,4.74 3.53,4.93 8.74,9.55 2.9,2.57 7.47,7.01 10.25,9.72 -11.91,-2.8 -18.41,-12.98 -25.07,-20.11 3.7,9.7 9.93,17.49 17.86,23.04 3.52,2.46 6.37,3.58 8.85,6.79 -23.01,-6.06 -28.96,-24.8 -42.23,-40.51 1.35,11.26 7.4,20.45 14.9,27.37l7.96 7.52c-19.49,-5.91 -32.73,-30.46 -39.66,-48.52 0.88,13.42 7.86,24.35 16.22,32.96 4.13,4.26 6.16,3.8 7.74,10.95l-3.63 -3.25c-1.6,-1.43 -1,-0.97 -2.89,-2.49 -2,-1.61 -3.47,-2.72 -5.66,-4.66 -12.89,-11.43 -17.74,-25.9 -23.51,-42.7 -0.78,14.92 4.55,18.7 6.33,29.19 -1.39,-1.21 -0.96,-0.7 -2.33,-2.33 -11.3,-13.47 -15.52,-38.51 -16.69,-55.17 -2.12,16.46 1.24,25.61 4.81,40.06 -4.56,-2.93 -4.4,-4.47 -6.21,-10.22 -1.54,-4.86 -2.35,-7.38 -3.02,-12.63 -2.6,-20.18 5.77,-36.37 6.33,-55.84 0.37,-13.1 -3.13,-14.63 -13.11,-18.11 2.94,14.02 5.91,30.65 -1,44.58 -7.41,14.91 -12.37,20.81 -2,38.05 2.74,4.55 4.01,5.64 7.72,9.2l9.88 8.76c0.19,9.65 -6.51,22.66 -8.04,34.11 -1.55,11.64 -1.95,31.43 -3.44,39.88 1.67,1.7 2.89,0.68 3.55,2.16 1.64,3.68 -4.02,-1.03 1.87,3.21 -9.17,2.34 0.93,1.22 -8.55,2.55 3.03,20.89 -11.97,19.19 -27.68,17.67 9.12,-18.68 14.02,-12.98 18.71,-33.71 2.57,-11.36 5.82,-35.45 4.44,-47.41 -0.95,-8.26 -6.35,-10.15 -11.56,-14.2 -6.16,-4.8 -8.58,-6.73 -13.3,-13.04 -7.13,-9.53 -15.57,-18.41 -17.42,-34.23 -26.66,16.72 16.79,39.56 14.5,52.17 -2.97,5.84 -9.21,8.92 -13.68,13.06 -9.34,8.61 -17.89,19.35 -25.26,29.64 -6.23,8.71 -5.62,8.24 -4.71,20.69l-4.48 -1.33c-1.68,0.19 -2.77,1.02 -4.42,2.08 1.28,5.13 2.66,7.14 2.58,13.09 -8.7,6.5 -17.17,8.92 -29.77,5.91 -0.45,-10.59 49.07,-57.01 49.25,-76.59 0.11,-12.52 -13.84,-20.02 -21.38,-25.85 -4.61,-3.56 -4.71,-4.07 -8.81,-8.24 -10.19,-10.34 -10.56,-18.03 -18.12,-29.14 -2.93,-4.3 -5.84,-4.78 -7.06,-10.22 -1.92,-8.55 3.63,-18.17 5.65,-25.71 6.3,-23.5 -23.11,-19.38 -49.11,-45.65 -9.25,-9.35 -20.49,-24.66 -28.26,-35.9 -18.34,-26.52 -10.87,-11.97 -24.14,-17.5 -4.38,-1.82 -7.15,-4.02 -11.33,-6.42 0.53,8.87 0.45,13.86 -1.68,21.59l-30.02 -26.08c-2.34,-3.95 -1.66,-9.96 -4.86,-14.53 -12.73,0.08 -14.86,19.58 -15.82,32.53 4.89,3.67 2.08,2.26 2.78,3.71 0.53,1.08 1.92,0.9 3.48,3.7 -4.69,4.17 -11.86,5.94 -4.57,11.81 1.59,1.28 3.1,1.88 4.34,3.76 8.69,13.08 -9.39,20.47 -21.63,21.06z"/>
  <path class="fil7" d="M922.57 1512.46l0 1.05c0,2.29 2.73,4.82 5.03,4.82l4.62 -0.2c1.12,-0.08 2.12,-0.13 3.32,-0.25l38.72 -3.2c2.11,-0.32 4.7,-0.22 6.65,-0.49 1.07,-0.15 2.19,0.02 3.28,-0.07l13.23 -0.61c1.25,-0.01 1.87,-0.22 3.35,-0.22 2.42,0.02 4.34,-0.19 6.92,-0.2 1.33,0 1.75,-0.22 3.14,-0.22 7.94,0.03 16.11,-0.41 24.32,-0.41l19.92 0c4.69,0 8.92,0.21 13.41,0.21l22.89 0.81c1.11,0.12 2.38,-0.07 3.5,0.06l9.73 0.54c1.14,0.15 2.33,-0.04 3.48,0.09 1.95,0.22 4.18,0.18 6.29,0.42l9.52 0.75c0.87,0.11 2.37,0.23 3.09,0.26l12.63 0.99c2.15,0.28 4.37,0.39 6.29,0.63 2.16,0.27 4.34,0.38 6.29,0.63l7.49 0.48c3.03,0 5.45,-2.47 5.45,-5.45 0,-4.81 -7.16,-4.29 -10.36,-4.74l-20.88 -1.97c-4.69,-0.26 -9.63,-1.09 -14.26,-1.05 -1.39,0.01 -2.08,-0.17 -3.56,-0.21l-3.74 -0.24c-4.57,-0.51 -9.43,-0.55 -14.29,-0.81 -6.67,-0.36 -15.37,-0.84 -22.01,-0.84 -2.75,0 -4.76,-0.21 -7.55,-0.21 -5.1,0 -9.82,-0.21 -15.09,-0.21l-16.77 0c-5.28,0 -9.99,0.21 -15.1,0.21 -4.6,0 -10.6,0.42 -15.09,0.42 -2.79,0 -4.8,0.22 -7.55,0.21l-36.69 2.09c-2.74,0.07 -11.02,1.08 -14.26,1.26 -4.84,0.27 -9.55,0.83 -14.23,1.28l-7 0.75c-2.28,0.37 -4.13,1.86 -4.13,3.64z"/>
  <path class="fil7" d="M1128.44 1486.03c0,3.58 -0.32,5.82 -2.3,8.81 -0.65,0.99 -1.19,1.72 -2.05,2.57 -0.38,0.38 -0.76,0.83 -1.16,1.15 -0.78,0.61 -0.96,0.2 -1.2,1.1 4.48,0 16.51,1.56 21.59,1.9 1.4,0.09 2.83,0.28 4.37,0.45l12.62 1.43c1.27,0.14 3.2,0.52 4.25,0.58 1.75,0.09 2.31,-3.25 3.39,-5.94l2.63 -6.8c0.46,-1.15 0.85,-2.34 1.29,-3.54 0.19,-0.51 1.13,-2.48 1.13,-2.99 -0.01,-0.48 -0.14,-0.63 -0.47,-0.88 -0.57,-0.41 -10.38,-1.89 -11.03,-1.97 -4.2,-0.55 -8.01,-1.29 -12.09,-1.74l-18.51 -2.25c-2.14,-0.27 -4.35,-0.25 -6.23,-0.69 0.18,0.8 0.71,1.34 1.21,1.94 1.4,1.67 2.56,4.45 2.56,6.87z"/>
  <path class="fil7" d="M983.58 1475.54c0.69,1.04 1.97,1.49 2.89,2.36 1.52,1.43 3.62,4.52 4.26,6.63 2.64,8.64 -2.29,12.29 -2.54,13.25 2.12,0 3.45,-0.21 5.46,-0.21 1.26,0.01 1.51,-0.21 2.71,-0.22 0.97,-0.01 1.98,0.04 2.95,0.01l11.1 -0.42c2.1,0 3.36,-0.22 5.45,-0.21l17.19 -0.21c-0.24,-0.93 -1.11,-0.83 -2.35,-2.26l-1.98 -2.63c-3.12,-5.26 -2.78,-11.82 0.83,-16.03 0.61,-0.71 1.32,-1.4 1.83,-2.15 -2.03,0 -4.06,0 -6.08,0l-20.98 0.82c-1,0.09 -2.13,-0.04 -3.13,0.01l-17.61 1.26z"/>
  <path class="fil7" d="M914.6 1484.35c0,1 0.72,2.59 1.06,3.35 1.01,2.28 2.66,7.4 3.76,9.87 3.34,7.5 -0.5,6.07 11.36,4.85 2.86,-0.29 5.53,-0.54 8.18,-0.83l8.35 -0.87c4.3,-0.24 13.84,-1.27 16.98,-1.27 -0.37,-1.38 -8.8,-6.1 -5.76,-16.66 1.06,-3.68 2.72,-3.97 3.03,-5.15 -5.45,0 -37.24,4.58 -44.56,5.75 -0.78,0.13 -2.4,0.27 -2.4,0.96z"/>
  <path class="fil7" d="M1053.6 1496.52c7.62,0 15.12,0.18 22.65,0.41 1.07,0.03 1.29,0.22 2.5,0.22 4.1,0.01 7.89,0.41 11.33,0.41 1.63,0 5.7,0.43 8.38,0.43 -0.24,-0.91 -1.12,-1.02 -2.45,-3.85 -2.75,-5.88 -0.31,-12.11 4.07,-16.35 0.94,-0.9 2.37,-1.52 3,-2.46 -1.82,0 -4.06,-0.21 -5.7,-0.38l-11.92 -0.66c-1.3,0 -1.63,-0.22 -2.92,-0.22 -0.98,0 -2.19,0.07 -3.14,-0.01l-18.04 -0.61c-2.31,0 -3.8,-0.21 -6.08,-0.21 0.19,0.71 0.38,0.69 0.89,1.2 5.48,5.5 5.21,14.61 -0.21,20.04 -0.73,0.73 -1.91,1.36 -2.36,2.04z"/>
  <path class="fil7" d="M921.52 1337.12c0,5.39 0.73,9.87 4.7,12.92 2,1.53 5.35,2.27 7.88,0.71 1.27,-0.79 2.93,-3.73 2.93,-5.87 0,-4.32 -3.08,-8.97 -6.02,-12.01 -2,-2.08 -4.14,-4.6 -6.3,-6.5 -1.52,-1.33 -1.01,-1.34 -2.35,-2.05 0,4.48 -0.84,8.33 -0.84,12.8z"/>
  <path class="fil7" d="M1148.36 1343.41c0,2.76 0.62,5.78 2.81,7.26 3.68,2.48 8.7,-0.47 10.31,-2.94 4.03,-6.19 1.34,-17.25 1.34,-23.41 -0.73,0.5 -1.59,1.28 -2.25,1.94l-6.18 6.4c-2.14,2.42 -6.03,7.85 -6.03,10.75z"/>
  <path class="fil7" d="M1043.12 1492.74c6.65,0 11.23,-5.64 8.72,-11.45 -1.09,-2.54 -4.75,-4.91 -7.47,-4.91 -2.12,0 -3.33,-0.12 -5.38,0.91 -2.8,1.41 -5.08,4.48 -4.78,7.58 0.48,4.86 4.59,7.87 8.91,7.87z"/>
  <path class="fil7" d="M1102.66 1487.71c0,2.15 -0.19,2.55 0.9,4.55 0.51,0.94 0.95,1.37 1.75,2.02 6.1,4.94 15.58,0.21 15.58,-6.57 0,-8.78 -12.9,-10.27 -17.1,-3.27 -0.45,0.74 -1.13,2.2 -1.13,3.27z"/>
  <path class="fil7" d="M965.55 1486.87c0,3.35 0.63,4.58 3.08,6.98 1.72,1.68 4.42,2.46 6.98,2.46 4.66,0 9.05,-3.96 8.19,-8.82 -1,-5.58 -9.06,-10.35 -15.44,-5.57 -1.13,0.85 -2.81,3.12 -2.81,4.95z"/>
 </g>
</svg>
