<?xml version="1.0" encoding="UTF-8"?>
<!DOCTYPE svg PUBLIC "-//W3C//DTD SVG 1.1//EN" "http://www.w3.org/Graphics/SVG/1.1/DTD/svg11.dtd">
<!-- Creator: CorelDRAW 2017 -->
<svg xmlns="http://www.w3.org/2000/svg" xml:space="preserve" width="50.7998mm" height="33.8666mm" version="1.1" style="shape-rendering:geometricPrecision; text-rendering:geometricPrecision; image-rendering:optimizeQuality; fill-rule:evenodd; clip-rule:evenodd"
viewBox="0 0 5079.98 3386.66"
 xmlns:xlink="http://www.w3.org/1999/xlink">
 <defs>
  <style type="text/css">
   <![CDATA[
    .fil0 {fill:none}
    .fil1 {fill:#3E4095}
    .fil5 {fill:#3E4095}
    .fil4 {fill:#25B4D6}
    .fil3 {fill:#57B6C9}
    .fil2 {fill:#92E6EF}
    .fil6 {fill:#3E4095;fill-rule:nonzero}
   ]]>
  </style>
 </defs>
 <g id="Capa_x0020_1">
  <metadata id="CorelCorpID_0Corel-Layer"/>
  <rect class="fil0" x="-0" width="5079.99" height="3386.66"/>
  <rect class="fil0" x="-0" width="5079.99" height="3386.66"/>
  <g id="_1689641159104">
   <path class="fil1" d="M3109.55 2530.39l11.61 -10.56c0.5,-1.82 2.1,-1.8 3.15,-2.67l-19.7 -2.68c-3.17,-21.47 -3.44,-8.53 3.76,-24.58 -12.84,7.16 -6.28,1.58 -14.54,10.07 -4.54,-3.01 -6.88,-0.81 -12.57,-5 4.38,7.99 6.77,12.48 12.1,19.89 0.86,1.21 5.49,7.25 6.5,8.28 5.88,6.09 2.41,2.42 9.69,7.25z"/>
   <path class="fil1" d="M2742.49 2046.7l3.84 7.65c70.37,-9.98 57.83,0.87 91.32,-46.11 24.58,-34.45 30.62,-57.25 47.07,-96.24 -29.14,8.07 -11.04,-3.93 -31.52,1.63 -14.5,3.94 -5.64,0.95 -13.9,8.83l26.78 -3.63c-7.04,32.94 -27.1,64.25 -42.28,85.63 -31.81,44.81 -31.53,25.94 -72.12,36.89 -12.06,3.24 -2.34,-0.45 -9.19,5.35z"/>
   <path class="fil2" d="M3177.08 1031.23c-22.95,11.64 -9.59,3.72 -16.22,-0.78l-0.55 -48.62c-3.58,-14.78 3.31,-5.88 -7.67,-14.49 0.95,118.11 -10.47,265.65 -43.86,371.51 -10.21,32.37 -26.89,81.64 -27.65,114.33 24.76,-21.38 0.51,-18.51 32.94,-70.2 31.25,-49.82 86.13,-152.8 93.46,-201.82 -32.16,28.94 -42.53,107.86 -84.31,161.28 -3.93,-5.66 -11.27,15.89 3.62,-34.56l36.41 -194.16c5.53,-66.69 4.75,-36.54 13.83,-82.49z"/>
   <path class="fil2" d="M3092.69 1806.03c15.85,-2.98 22.15,-6.62 34.33,-17.13 10.68,-9.24 17.2,-13.02 27.28,-21.64l69.83 -73.16c26.42,-34.99 57.6,-50.64 57.82,-81.46 -29.81,6.18 -34.16,27.98 -53.27,47.59 -17.06,17.53 -25.53,32.29 -43.37,49.46 -15.31,14.73 -86.78,81.85 -92.62,96.34z"/>
   <path class="fil2" d="M2896.67 1536.13c-8.9,5.63 -7.29,-9.85 -8.26,13.45 18.64,9.44 20.16,-0.57 44.97,6.97 6.07,-29.74 47.15,-76.7 52.91,-109 -33.27,16.42 -37.86,96.29 -91.41,99.77l1.79 -11.19z"/>
   <path class="fil3" d="M2072.21 1178.03c0.57,-18.54 -19.38,-91.97 -25.4,-121.86 -0.98,-4.85 -4.25,-19.12 -4.08,-21.29 3,-36.15 -4.76,-8.56 11.05,-22.87 5.54,15.74 11.13,31.24 16.49,49.38l38.73 86.65c24.13,42.46 102.02,124.64 116.28,149.64 6.64,11.65 17.83,28.29 30.93,33.1l-132.25 -182.95c-19.31,-34.49 -60.74,-138.04 -72.03,-180.07 -9.19,-34.17 -9.77,-47.73 -26.79,-57.66 -15.27,35.47 0.35,77.86 11,134.19 4.41,23.29 18.76,114.68 36.07,133.74z"/>
   <path class="fil3" d="M2443.25 1735.7c-18.02,13.53 -18.66,25.61 -28.5,35.81 -8.94,9.29 -2.66,3.98 -17,11.18l10.28 -46.48c-21.8,18.69 -49.4,107.95 -63.47,142.01 -10.74,26 -56.15,126.92 -39.37,150.86 17.32,-8.06 46.06,-105.25 63.98,-146.71l74.08 -146.67z"/>
   <path class="fil3" d="M1846.56 988.7c3.33,-82.24 -0.82,-54.36 -39.2,-141l-48.41 -108.44c-10.43,-16.55 0.22,-5.74 -14.85,-14.38 0.03,28.7 27.59,113.02 38.09,142.86 7.39,21.01 16.57,41.62 25.37,61.97l20.34 48.31c8.6,9.56 5.47,6.91 18.66,10.68z"/>
   <path class="fil3" d="M3219.73 1860.28c21.9,-9.68 4.18,-5.31 29.7,-10.97l-6.06 24.37c10.38,-6.83 2.39,2.22 12.28,-10.69l24.09 -39.64c8.1,-12.33 25.51,-35.39 27.03,-51.01 -14.87,0.47 -77.91,69.88 -87.04,87.94z"/>
   <path class="fil4" d="M2025.14 910.1c17.02,9.93 17.6,23.49 26.79,57.66 11.29,42.03 52.72,145.58 72.03,180.07l132.25 182.95c-13.1,-4.81 -24.29,-21.45 -30.93,-33.1 -14.26,-25 -92.15,-107.18 -116.28,-149.64l-38.73 -86.65c-5.36,-18.14 -10.95,-33.64 -16.49,-49.38 -15.81,14.31 -8.05,-13.28 -11.05,22.87 -0.17,2.17 3.1,16.44 4.08,21.29 6.02,29.89 25.97,103.32 25.4,121.86 -1.77,23.37 31.27,93.32 41.61,121.9 25.01,69.15 89.66,146.47 144.91,193.27 26.63,22.54 71.97,71.2 96.31,76.51 11.24,-19.32 46.97,-91.46 11.5,-105.96 -1.01,-0.42 -5.9,-2.2 -7.22,-2.82 -9.59,-4.45 -7.17,-1.61 -14.44,-9.96 -14.04,-16.13 -39.88,-72.87 -48.04,-94.01l-33.71 -102.74 -9.96 -123.67c-3.87,-34.72 -11.73,-40.47 -30.69,-61.42l-88.14 -103.19c-26.7,-33.2 -23.26,-41.97 -53.23,-69.09l-16.17 -22.96c-0.54,-1.36 -1.87,-5.33 -2.4,-6.71 -0.38,-1.02 -0.87,-2.34 -1.28,-3.35 -21.42,-54.23 -72.1,-233.43 -89.69,-298.01 -9.37,-34.41 -17.89,-137.88 -28.85,-160.2 -72.25,74.33 -6.88,726.69 34.28,745.56 9.02,-20.43 -0.51,-234.58 29.39,-285.72l18.75 44.64z"/>
   <path class="fil4" d="M3177.08 1031.23c-9.08,45.95 -8.3,15.8 -13.83,82.49l-36.41 194.16c-14.89,50.45 -7.55,28.9 -3.62,34.56 41.78,-53.42 52.15,-132.34 84.31,-161.28 -7.33,49.02 -62.21,152 -93.46,201.82 -32.43,51.69 -8.18,48.82 -32.94,70.2 0.76,-32.69 17.44,-81.96 27.65,-114.33 33.39,-105.86 44.81,-253.4 43.86,-371.51 7.07,-47.27 -37.42,-247.57 -51.65,-311.25 -11.48,-51.35 -69.12,-240.8 -90.44,-278.61 -4.65,8.89 24.06,104.54 29.08,124.45 12.13,48.23 21.56,91.98 32.52,138.83 18.49,78.98 27.52,227.69 23.3,321.37 -1.24,27.46 -8.89,44.89 -18.47,66.32 -17.73,39.69 -12.11,27.88 -11.98,75.51 0.08,23.85 1.36,189.59 9.09,210.79 4.27,11.73 5.88,10.62 2.59,26.35 -23.18,111.14 -83.67,174.51 -22.04,178.47 10.45,-12.67 5.12,-10.96 11.61,-22.43 15.22,-26.82 11.52,6.57 48.98,-68.6 47.28,-94.85 83.6,-157.29 124.56,-262.35 7.55,-19.37 11.98,-37.97 20.59,-54.99 11.6,25.97 -118.78,283.82 -139.2,319.32 -10.91,18.96 -53.56,85.69 -57.62,99.47 10.04,18.06 15.74,28.49 35.17,34.67 48.51,-40.31 180.58,-386.57 203.49,-462.88 16,-53.28 20.47,-87.62 17.99,-149.86 -2.53,-63.43 -25.22,-236.74 -30.85,-303.45 -2.16,-25.74 -4.59,-142.5 -19.2,-149.05 -10.06,29.57 -0.24,260.4 -3.72,315.63 -3.77,59.66 -19.27,228.69 -65.38,265.26l1.53 -108.7 -25.51 59.62z"/>
   <path class="fil4" d="M2765.63 667c-23.75,-19.69 -16.72,-91.91 -14.7,-126.35 1.72,-29.02 0.93,-115.32 -9.79,-138.79 -6.59,7.36 -1.86,-0.77 -6.31,12.15 -12.45,36.21 -8.48,159.11 -36.33,251.25 -12.51,41.38 3.21,66.49 14.74,122.97 4.52,22.13 5.89,44.04 9.81,68.84 3.76,23.89 3.4,44.21 18.09,60.84 16.01,-8.81 53.87,-87.27 66.29,-110.31 16.34,-30.3 53.75,-87.73 57.02,-119.67 11.93,-116.9 -9.33,-227.19 -14.01,-335.93 24.76,13.96 10.58,78.87 19.34,108.67 6.21,21.09 14.57,15.26 16.53,50.96l4.9 61.3c0.36,1.02 1.02,2.67 1.79,3.9 8.76,-8.67 4.58,-3.1 10.86,-15.45 30.06,-59.01 20.62,-87.97 5.06,-143.4 -34.94,-124.5 -95.85,-244.14 -149.37,-360.76 -27.16,-59.18 -8.19,-55.95 -50.18,-57.23 -0.48,95.31 63.99,212.68 74.3,316.07 8.14,81.64 7.82,287.47 -18.04,350.94z"/>
   <path class="fil4" d="M2297.7 650.84l-5.73 -6.86c-36.33,-55.6 -71.45,-365.95 -74.95,-374.18 -29.96,9.2 -9.17,416.89 0.86,479.72 8.16,51.13 19.89,104.34 20.17,155.22 -48.03,-25.37 -43.2,-160.32 -65.11,-190.56 -13.8,38.22 11.59,289.31 18.54,307.81 0.79,2.11 31.8,54.63 54.93,58.2 6.67,-15.37 4.17,-93.16 13.6,-124.8 9.23,-30.95 28.56,-71.64 36.35,-105.13 15.86,-68.25 14.13,-14.91 26.65,-75.11l42.56 -139.7c10.37,-34.64 19.6,-71.87 35.83,-106.19 30.73,-65.01 19.85,-42.63 21.87,-120.77l5.92 -271.12c-16.44,11.26 -63.78,208.42 -73.9,242.49 -25.38,85.51 -37,184.24 -57.59,270.98z"/>
   <path class="fil4" d="M2485.15 1174.81c7.56,-9.26 6.47,8.35 7.02,-21.49 0.14,-7.51 -2.39,-11.52 -4.13,-18.95 17.35,17.24 44.98,117.69 55.75,146.93 30.22,-1.17 7.3,0.75 28.71,-8.91l23.75 -9.89c14.56,-6.3 36.57,-11.73 49.35,-18.91 6.79,-65.45 -25.57,-65.33 -62.03,-167.8 -52.45,-147.42 -59.97,-241.97 -76.04,-394.37l-7.83 -223.29c-0.41,-1.47 -1.26,-3.12 -1.65,-4.29 -0.39,-1.17 -1.05,-2.9 -1.82,-4.22 -8.21,5.73 -9.48,-0.22 -17.45,34.51 -47.49,206.72 -58.35,502.75 6.37,690.68z"/>
   <path class="fil4" d="M3220.77 1687.59c6.28,-15.58 83.11,-87.73 99.56,-103.56 19.18,-18.45 28.28,-34.32 46.62,-53.17 20.54,-21.08 25.22,-44.51 57.27,-51.15 -0.24,33.12 -33.76,49.95 -62.16,87.56l-75.06 78.64c-10.84,9.27 -17.85,13.33 -29.32,23.26 -13.1,11.31 -19.87,15.22 -36.91,18.42zm387.58 -544.01l-99.32 134.11c-78.12,89.57 -152.95,165.39 -245.2,239.23 -58.62,46.93 -19.08,25 -52.45,125.71 -5.37,16.24 -11.03,24.81 -9.3,36.96 1.92,13.48 -1.59,3.29 4.56,11.5 62.39,32.97 137.01,-48.48 163.03,-73.62 112.32,-108.46 164.23,-139.91 210.43,-289.66 6.32,-20.45 57.47,-177.64 64.25,-184.41l-13.53 -29.2c-6.66,18.89 -4.53,21.92 -22.47,29.38z"/>
   <path class="fil4" d="M1854.7 1436.62c-3.43,-15.93 -10.24,-20.66 -5.06,-31.98 19.12,19.54 102.18,142.79 137.16,148.24 12.99,-17.33 5.3,-18.16 10.76,-40.63 17.84,-73.47 37.34,13.83 -27.2,-112.13 -14.88,-29.03 -24.85,-49.91 -36.05,-76.09 -46.87,-109.64 -7.99,-67.54 -116.07,-114.48 -106.86,-46.4 -177.7,-140.23 -199.74,-150.3 3.97,40.12 78.31,174.95 97.71,208.15 17.78,30.41 112.57,160.81 138.49,169.22z"/>
   <path class="fil4" d="M2614.92 868.84c0.16,68.48 10.3,213.87 28.5,269.18 20.2,-7.89 12.25,-30.82 29.1,-73.63 13.69,-34.79 21.66,-32.28 21.42,-78.02 1.19,-0.91 3.26,-3.38 3.92,-2.28 0.02,0.01 14.96,-6.88 21.88,-19.35 22.65,-40.92 -9.57,-143.4 -19.44,-195.39 -37.02,-194.88 -23.3,-254 -41.44,-420.52 -38.42,22.16 -44.22,440.26 -43.94,520.01z"/>
   <path class="fil4" d="M2408.03 1736.21l-10.28 46.48c14.34,-7.2 8.06,-1.89 17,-11.18 9.84,-10.2 10.48,-22.28 28.5,-35.81 3.04,-2.45 40.1,-58.41 48.14,-68.81 20.8,-26.84 36.35,-44.67 57.07,-65.15 23.12,-22.86 100.38,-106.25 133.91,-108.69l8.25 31.65c10.34,-4.03 87.09,-101.97 -4.37,-116.62 -59.56,-9.55 -98.57,51.63 -124.03,80.18 -35.1,39.38 -156.27,207.55 -154.19,247.95z"/>
   <path class="fil4" d="M3219.73 1860.28c-16.83,7.67 -51.98,50.93 -138.83,97.44 -37.94,20.33 -48.66,11.25 -69.01,53.59 -12.15,25.26 -40.66,61.65 -44.34,76.33 36.35,0.92 57.67,-27 85.25,-31.49 -13.66,16.74 -92.44,68.53 -118.09,83.72 -27.32,16.17 -34.71,9.82 -32.98,46.34 30.17,-2.22 169.57,-99.89 201.7,-122.5 48.54,-34.13 138.06,-162.73 139.94,-190.03l6.06 -24.37c-25.52,5.66 -7.8,1.29 -29.7,10.97z"/>
   <path class="fil4" d="M2896.67 1536.13l-1.79 11.19c53.55,-3.48 58.14,-83.35 91.41,-99.77 -5.76,32.3 -46.84,79.26 -52.91,109 30.17,6.1 65.56,-80.21 77.1,-105.11 21.45,-46.36 41.41,-88.25 47.95,-142.79 5.44,-45.43 0.65,-344.52 -13.58,-363.29l-27.54 341.67c-19.5,121.49 -111.56,226.85 -120.64,249.1z"/>
   <path class="fil4" d="M2447.24 1383.93c17.87,-4.62 42.03,-39.92 42.81,-59.77l-44.17 -165.28c-2.69,-13.5 -5.43,-28.02 -10.26,-43.2 -7.5,-23.57 -6.06,-28 -19.98,-39.05 -0.26,60.98 10.05,273.38 31.6,307.3z"/>
   <path class="fil1" d="M3108.37 2489.9c-7.2,16.05 -6.93,3.11 -3.76,24.58l19.7 2.68c32.77,2.37 35.38,14.18 30.08,48.55 -3.21,20.87 -10.28,47.11 -18.76,64.4 -62.91,128.24 -54.26,98.95 -136.7,190.9 -183.6,204.77 -231.52,132.87 -499.82,157.35 -43.27,3.95 -108.85,-8.62 -152.09,-1.2 8.78,16.4 91.55,81.2 111.92,98.49 42.38,35.98 85.82,65.67 115.28,94.96 -28.35,28.33 -156.73,13.12 -204.19,-1.52l-161.74 -72.79c-77.53,-36.9 -254.36,-167.78 -290.51,-175.62 7.01,24.36 63.13,72.67 80.56,86.51l96.48 70.04c141.58,94.15 315.94,179.07 499.49,167.45 91.63,-5.82 215.05,-80.61 244.64,-84.27 -9.71,22.64 -70.45,40.8 -94.6,52.53 -68.67,33.37 -262.97,109.65 -327.33,85.74 -160.3,-59.52 -361.19,-201.63 -369.62,-204.31 7.24,29.78 85.84,106.11 113.24,127.74l142.6 97.31c153.29,88.81 162.56,89.26 355.02,3.64l167.01 -77.87c51.36,-28.73 96.43,-61.75 150.12,-90.11 27.25,-14.4 53.32,-29.82 77.96,-44.7 37.58,-22.67 44.96,-17.4 51.43,-71.7 7.03,-59 34.82,-150.23 35.24,-206.96 -22.29,9.71 -31.97,29.07 -51.08,54.75 -34.24,46.01 -107.07,115.53 -151.43,152.38 -27.84,23.14 -89.55,69.92 -142.34,63.95 -24.64,-2.79 -132.44,-39.95 -148.37,-54.63 8.51,-8.04 -7.72,-0.45 13.13,-8.3l110.83 -21.8c44.04,-7.17 86.6,-10.19 123.56,-27.54 51.18,-24.01 125.81,-98.39 162.88,-135.64 37.97,-38.14 91.05,-136.31 109.47,-189.31 80.94,-232.91 -39.01,-175.12 -58.3,-175.68z"/>
   <path class="fil1" d="M2746.33 2054.35c-36.75,6.58 -93.24,6.22 -102.77,29.04 17.06,26.55 172.56,7.78 190.86,29.38 -1.03,0.88 -2.56,1.74 -3.45,2.14 -0.89,0.39 -2.44,1.5 -3.58,1.93 -26.96,10.18 24.06,-3.67 -8.05,2.65l-44.22 -2.23c-48.96,-2.44 -55.48,37.72 -122.14,66.38 -56.67,-26.39 -38.12,-73.37 -97.59,-48.74l-6.26 126.08c25.11,-5.83 17.23,-14.24 38.89,-20.09 -6.01,15.43 -8.85,14.15 -21.81,25.16 -48.03,40.8 18.77,29.53 46.17,34.42 34.77,97.89 -60.65,31.88 -109.52,57.56l7.24 25.47c32.6,12.45 46.53,-2.76 79.71,22.08 -5.41,16.37 -23.61,26.52 -49.5,49.11 -23.34,-8.12 -13.65,-17.8 -40.15,-24.1 -1.84,52.31 4.45,54.36 24.01,89.73 66.26,3.22 58.2,1.43 98.04,-31.8l193.06 -184.2c32.11,-34.04 44.43,-109.85 54.42,-137.1l45.68 -139.36c9.66,-30.47 23.35,-61.74 28.16,-98.41l-35.84 8.58c-7.36,-12.26 -2.37,-10.95 -1.53,-25.41l-21.44 -0.62c-16.45,38.99 -22.49,61.79 -47.07,96.24 -33.49,46.98 -20.95,36.13 -91.32,46.11z"/>
   <path class="fil1" d="M2090.59 2715.15c14.71,9.03 47.91,9.7 68.89,12.24l167.96 48.96c20.25,8.71 4.1,-0.37 13.5,8.92 -55.66,3.6 -130.88,-5.8 -166.56,27.83 8.84,8.37 70.15,29.03 90.68,39.96 109.59,58.3 80.28,110.18 147.55,110.56 40.58,0.24 85.55,1.88 125.65,-1.2 7.76,-21.72 7.11,-181.46 0.92,-206.43 -101.51,-8.31 -107.56,-49.81 -210.31,-64.15 -63.99,-8.94 -195.5,-7.76 -238.28,23.31z"/>
   <path class="fil1" d="M2611.56 2736.33c45.18,-12.24 61.89,-17.72 71.28,-45.26 10.43,-30.51 20.54,-51.43 33.11,-78.92 13.12,-28.66 22.22,-53.54 35.67,-77.48 21.14,-37.6 22.05,-61.05 44.42,-70.99l-2.09 143.72c-1.06,41.72 47.48,94.71 89.09,98.22 64.52,5.44 71.5,38.41 136.51,-5.16 -23.75,-32.67 -107.65,-50.39 -116.21,-92.54 -8.93,-44.02 -10.08,-143.99 -10.12,-196.41 -0.01,-39.34 8.78,-226.71 -10.02,-243 -7.64,10.44 -21.41,63.24 -26.47,79.58 -26.01,84 -47.34,65.04 -86.08,124.28 -13.28,20.28 -22.44,45.71 -34.17,68.36 -40.68,78.48 -76.34,181.55 -95.4,219.01 -10.78,21.17 -26.53,48.99 -29.52,76.59z"/>
   <path class="fil1" d="M2596.18 2027.34c17.63,0.85 185.56,-131.07 211.98,-151.17 21.37,-16.26 49.46,-42.28 75.04,-53.97 12.54,7.57 11.96,7.49 20.77,19.95 11.93,16.85 4.68,15.5 24.67,23.14l-13.98 -60.89c11.77,4.85 3.42,0.32 11.04,6.28 1.1,0.85 5.22,4.23 6.34,5.13l6.61 5.45c2.49,-53.94 -1.49,-199.73 -29.36,-234.03 -8.9,-10.96 -59.79,-32.65 -88.87,12.47l-150.12 241.61c-62.46,96.44 -83.81,93.3 -74.12,186.03z"/>
   <path class="fil1" d="M2937.08 2862.89c20.85,-11.81 128.92,-119.59 137.22,-146.55 -31.69,-2.29 -71.05,-3.26 -92.08,15.47l39.56 10.47c-8.61,8.19 11.15,10.57 -24.69,6.34 -19.84,-2.34 -78.17,-27.48 -148,-33.78 -46.28,-4.19 -150.57,5.32 -166.39,39.49 16.76,12.6 44.16,18.93 60.6,31.99 30.59,24.28 8.67,23.04 57.44,30.59 27.13,4.2 51.71,8.79 74.71,18.17 23.46,9.57 38.19,21.22 61.63,27.81z"/>
   <path class="fil1" d="M3109.55 2530.39c-7.28,-4.83 -3.81,-1.16 -9.69,-7.25 -1.01,-1.03 -5.64,-7.07 -6.5,-8.28 -5.33,-7.41 -7.72,-11.9 -12.1,-19.89 -20.18,-27.76 -139.88,-156.92 -179.19,-163.26 -1.52,24.03 -0.97,46.17 -0.89,70.13 0.13,31.03 -1.69,37.23 15.68,54.39l69.75 62.36c59.35,42.97 98.65,131.59 117.02,146.25 10.38,-8.45 29.85,-54.13 33.23,-68.77 9.6,-41.61 -15.52,-42.39 -27.31,-65.68z"/>
   <path class="fil1" d="M2738.22 2952.92c75.43,10.85 155.61,-31.68 182.72,-76.15 -35.44,-33.9 -153.54,-53.55 -208.98,-58.02 -45.91,-3.69 -43.74,0.51 -75.02,12.84 24.1,40.27 14.98,15.63 57.07,58 10,10.06 18.68,14.92 25.69,28.07 8.6,16.15 5.97,18.24 18.52,35.26z"/>
   <path class="fil1" d="M2523.62 2702.46c33.74,5.43 49.47,-25.57 65.71,-46.06 18.81,-23.73 32.25,-45.29 46.47,-66.43 14.41,-21.42 74.98,-116.49 83.6,-142.83 -15.61,3.38 -111.82,105.86 -152.83,137.55 -30.79,23.8 -27.57,29.64 -67.13,20.49 5.51,21.38 12.12,23.57 18.28,44.6 5.9,20.12 2.07,31.95 5.9,52.68z"/>
   <path class="fil1" d="M2742.49 2046.7c6.85,-5.8 -2.87,-2.11 9.19,-5.35 40.59,-10.95 40.31,7.92 72.12,-36.89 15.18,-21.38 35.24,-52.69 42.28,-85.63l-26.78 3.63c-9.42,9.33 -46.74,21.64 -64.03,29.27 -52.53,23.17 -16.44,23.75 -40.94,56.34 -26.99,35.87 -47.93,4.89 -70.18,7.75 -6.49,0.83 -44.98,19.54 -48.78,34.81 -10.78,43.37 73.65,-11.07 127.12,-3.93z"/>
   <path class="fil1" d="M2337.04 2472.78c-10.5,-20.91 -32.93,-70.99 -53.56,-82.31l77.34 200.29c5.01,13.2 33.56,96.5 36.8,100.81 9.08,12.12 71.65,41.4 88.35,42.56 -4.54,-28.59 -120.83,-205.44 -148.93,-261.35z"/>
   <path class="fil1" d="M2469.21 2345.27c24.39,3.47 40.89,-4.04 66.04,-5.04 26.04,-1.04 48.49,4.22 74.35,3.24 -3.87,-19.19 3.66,-14.02 -19.49,-16.28 1.4,-2.39 5.12,-6.75 5.68,-7.74 1.84,-3.25 2.75,-3.07 5.69,-11.96l-124.79 -4.65c-10.77,24.28 -11.31,27.65 -7.48,42.43z"/>
   <path class="fil5" d="M1634.79 1940.47c-42.4,6.63 -111.21,-18.02 -104.14,-51.36 69.25,64.83 75.32,31.7 104.14,51.36z"/>
   <g>
    <path class="fil6" d="M1556.26 2382.98l0.43 0.15 2.16 0.77 2.22 0.75 2.28 0.74 2.39 0.73 2.43 0.72 2.45 0.68 2.53 0.67 2.57 0.64 2.59 0.62 2.64 0.58 2.66 0.57 2.7 0.53 2.66 0.5 2.69 0.45 2.72 0.43 2.69 0.39 2.67 0.35 2.67 0.3 2.65 0.26 2.61 0.21 2.58 0.17 2.57 0.12 2.49 0.09 2.43 0.01 2.42 -0.02 2.3 -0.08 2.26 -0.13 2.17 -0.17 2.07 -0.24 1.98 -0.28 1.89 -0.33 1.77 -0.37 5.2 22.4 -2.61 0.55 -2.65 0.47 -2.7 0.38 -2.75 0.3 -2.77 0.23 -2.82 0.17 -2.86 0.08 -2.86 0.04 -2.93 -0.03 -2.95 -0.09 -2.93 -0.14 -2.98 -0.19 -3.01 -0.25 -2.99 -0.3 -3.01 -0.34 -3.03 -0.39 -3.01 -0.43 -2.98 -0.47 -3.01 -0.51 -3 -0.56 -2.94 -0.59 -2.94 -0.61 -2.92 -0.66 -2.89 -0.68 -2.83 -0.72 -2.81 -0.73 -2.79 -0.78 -2.71 -0.8 -2.65 -0.81 -2.62 -0.84 -2.56 -0.87 -2.48 -0.89 0.43 0.15 7.02 -21.9zm0.43 0.15l-7.88 21.6c-5.96,-2.17 -9.03,-8.78 -6.86,-14.74 2.17,-5.96 8.78,-9.03 14.74,-6.86zm-31.77 13.96l-2.87 -1.38 9.89 -20.52 24.32 7.79 -7.02 21.9 -24.32 -7.79zm7.02 -21.9l-7.02 21.9c-6.04,-1.93 -9.37,-8.42 -7.44,-14.46 1.93,-6.04 8.42,-9.37 14.46,-7.44zm-17.24 8.18l10.78 -8.84 -0.23 0.02 -0.72 0.06 0.07 -0.01 0.17 -0.02 -0.74 0.13 0.07 -0.02 0.08 -0.01 0.07 -0.02 0.08 -0.01 0.07 -0.02 0.08 -0.01 0.07 -0.02 0.08 -0.01 0.07 -0.02 0.81 -0.14 0.07 -0.01 0.88 -0.08 0.04 0 0.07 -0.01 1.56 0 0.08 0.01 0.08 0 1.48 0.18 0.59 0.13 0.09 0.02 0.88 0.24 0.48 0.16 0.43 0.16 1.06 0.47 0.53 0.28 0.5 0.29 0.48 0.3 -12.76 19.14 0.3 0.18 0.32 0.19 0.35 0.18 0.88 0.39 0.25 0.1 0.32 0.1 0.72 0.2 -0.09 -0.02 0.43 0.09 1.32 0.16 -0.08 0 -0.08 -0.01 1.4 0 -0.07 0.01 -0.12 0 0.72 -0.06 -0.07 0.01 0.65 -0.12 -0.07 0.02 -0.08 0.01 -0.07 0.02 -0.08 0.01 -0.07 0.02 -0.08 0.01 -0.07 0.02 -0.08 0.01 -0.07 0.02 -0.9 0.15 0.01 0 -0.07 0.01 -0.88 0.08 -0.39 0.02 10.78 -8.84 -22.38 -5.3zm10.78 -8.84l0.82 22.98c-6.34,0.22 -11.68,-4.74 -11.9,-11.08 -0.22,-6.34 4.74,-11.68 11.08,-11.9zm46.65 155.7l0 0 -4.3 -3.71 -4.14 -3.88 -3.96 -4.01 -3.83 -4.15 -3.66 -4.29 -3.49 -4.39 -3.33 -4.49 -3.18 -4.59 -3.01 -4.66 -2.86 -4.76 -2.69 -4.8 -2.53 -4.84 -2.38 -4.9 -2.22 -4.93 -2.07 -4.95 -1.9 -4.98 -1.74 -4.97 -1.57 -4.97 -1.42 -4.95 -1.27 -4.94 -1.1 -4.91 -0.93 -4.87 -0.77 -4.83 -0.6 -4.76 -0.43 -4.71 -0.27 -4.64 -0.09 -4.56 0.09 -4.48 0.27 -4.39 0.46 -4.28 0.65 -4.19 0.84 -4.08 22.38 5.3 -0.6 2.86 -0.47 3.07 -0.34 3.24 -0.21 3.39 -0.07 3.56 0.07 3.68 0.21 3.8 0.37 3.93 0.5 4.02 0.65 4.09 0.81 4.17 0.94 4.23 1.09 4.28 1.24 4.31 1.39 4.35 1.52 4.35 1.66 4.34 1.81 4.35 1.94 4.33 2.08 4.28 2.23 4.26 2.35 4.2 2.48 4.12 2.63 4.06 2.74 3.97 2.89 3.89 2.99 3.77 3.12 3.65 3.25 3.53 3.38 3.41 3.48 3.26 3.6 3.11 0 0 -14.68 17.7zm0 0l14.68 -17.7c4.88,4.05 5.56,11.31 1.51,16.19 -4.05,4.88 -11.31,5.56 -16.19,1.51zm152.34 22.69l-8.82 11.61 -3.74 0.83 -3.83 0.73 -3.94 0.63 -4.04 0.52 -4.11 0.42 -4.21 0.32 -4.28 0.2 -4.35 0.1 -4.42 -0.01 -4.5 -0.13 -4.54 -0.26 -4.58 -0.36 -4.64 -0.49 -4.68 -0.62 -4.71 -0.75 -4.73 -0.87 -4.77 -1.02 -4.77 -1.15 -4.78 -1.3 -4.79 -1.44 -4.76 -1.58 -4.78 -1.73 -4.74 -1.89 -4.73 -2.04 -4.69 -2.21 -4.67 -2.37 -4.61 -2.54 -4.55 -2.7 -4.5 -2.88 -4.43 -3.05 -4.37 -3.24 -4.28 -3.42 14.68 -17.7 3.62 2.9 3.71 2.74 3.79 2.61 3.84 2.46 3.91 2.32 3.95 2.18 4.01 2.03 4.05 1.91 4.07 1.76 4.12 1.63 4.14 1.51 4.16 1.38 4.17 1.26 4.16 1.12 4.17 1.01 4.15 0.88 4.15 0.77 4.11 0.65 4.1 0.54 4.04 0.43 4.02 0.32 3.96 0.22 3.88 0.11 3.84 0.01 3.77 -0.08 3.68 -0.18 3.59 -0.26 3.49 -0.36 3.38 -0.44 3.28 -0.53 3.17 -0.59 3.02 -0.67 -8.82 11.61 22.98 -0.86zm-8.82 11.61l-5.34 -22.36c6.17,-1.47 12.38,2.34 13.85,8.51 1.47,6.17 -2.34,12.38 -8.51,13.85zm-20.02 -55.58l19.57 -2.68 -0.37 0.95 -0.27 0.89 -0.21 0.83 -0.14 0.8 -0.09 0.84 -0.05 0.81 0.02 0.81 0.06 0.87 0.11 0.92 0.16 0.99 0.22 1.03 0.28 1.1 0.33 1.16 0.37 1.19 0.44 1.28 0.48 1.37 0.52 1.4 0.57 1.51 0.57 1.53 0.59 1.57 0.62 1.66 0.64 1.76 0.63 1.84 0.59 1.87 0.58 1.91 0.56 2.03 0.51 2.12 0.46 2.2 0.39 2.25 0.32 2.31 0.23 2.39 0.15 2.46 -22.98 0.86 -0.09 -1.52 -0.15 -1.51 -0.2 -1.47 -0.25 -1.47 -0.3 -1.42 -0.35 -1.42 -0.4 -1.43 -0.44 -1.49 -0.47 -1.45 -0.49 -1.44 -0.52 -1.46 -0.56 -1.5 -0.59 -1.55 -0.59 -1.57 -0.57 -1.53 -0.6 -1.62 -0.58 -1.63 -0.58 -1.7 -0.55 -1.77 -0.51 -1.8 -0.46 -1.86 -0.4 -1.91 -0.34 -1.97 -0.25 -2.06 -0.14 -2.11 -0.02 -2.19 0.11 -2.23 0.25 -2.22 0.4 -2.3 0.57 -2.31 0.73 -2.29 0.89 -2.29 19.57 -2.68 -17.98 14.34zm19.57 -2.68l-21.16 -8.98c2.47,-5.84 9.23,-8.56 15.07,-6.09 5.84,2.47 8.56,9.23 6.09,15.07zm108.73 131.4l-0.01 0 -9.22 -1.76 -8.8 -2.23 -8.35 -2.68 -7.91 -3.1 -7.49 -3.46 -7.07 -3.84 -6.65 -4.15 -6.24 -4.42 -5.85 -4.67 -5.48 -4.88 -5.1 -5.06 -4.75 -5.2 -4.42 -5.3 -4.1 -5.39 -3.8 -5.43 -3.51 -5.43 -3.25 -5.41 -2.99 -5.37 -2.77 -5.28 -2.54 -5.17 -2.36 -5.03 -2.16 -4.87 -2 -4.66 -1.84 -4.42 -1.7 -4.15 -1.56 -3.84 -1.45 -3.49 -1.33 -3.11 -1.19 -2.6 -1.06 -2.11 -0.85 -1.49 -0.5 -0.72 17.98 -14.34 1.98 2.8 1.65 2.89 1.54 3.03 1.49 3.28 1.47 3.45 1.53 3.67 1.58 3.88 1.68 4.07 1.76 4.26 1.88 4.4 2.02 4.51 2.16 4.63 2.32 4.71 2.49 4.76 2.67 4.79 2.87 4.77 3.07 4.77 3.28 4.69 3.52 4.61 3.76 4.52 4.01 4.38 4.28 4.24 4.54 4.06 4.85 3.87 5.16 3.66 5.47 3.41 5.83 3.16 6.19 2.88 6.59 2.58 6.99 2.24 7.42 1.89 7.9 1.5 -0.01 0 -3.62 22.7zm-0.01 0l3.64 -22.7c6.26,1 10.53,6.91 9.53,13.17 -1,6.26 -6.91,10.53 -13.17,9.53zm159.2 -95.17l0.15 14.06 -4.72 6.18 -4.64 5.92 -4.58 5.66 -4.52 5.44 -4.47 5.19 -4.43 4.95 -4.42 4.73 -4.41 4.49 -4.41 4.26 -4.41 4.03 -4.43 3.8 -4.46 3.58 -4.51 3.34 -4.55 3.12 -4.61 2.89 -4.69 2.65 -4.74 2.41 -4.83 2.19 -4.92 1.93 -4.98 1.7 -5.07 1.46 -5.18 1.23 -5.26 0.98 -5.34 0.75 -5.45 0.52 -5.55 0.3 -5.64 0.08 -5.76 -0.13 -5.89 -0.33 -6.02 -0.55 -6.15 -0.73 -6.3 -0.93 3.62 -22.7 5.72 0.83 5.51 0.67 5.3 0.47 5.11 0.29 4.96 0.11 4.78 -0.06 4.59 -0.24 4.47 -0.44 4.34 -0.61 4.2 -0.78 4.1 -0.97 4.01 -1.16 3.96 -1.34 3.88 -1.53 3.83 -1.73 3.82 -1.95 3.79 -2.15 3.79 -2.37 3.81 -2.6 3.79 -2.82 3.84 -3.08 3.87 -3.32 3.91 -3.57 3.95 -3.82 3.99 -4.07 4.06 -4.35 4.13 -4.61 4.21 -4.87 4.28 -5.14 4.36 -5.42 4.46 -5.68 4.56 -5.96 0.15 14.06 18.04 -14.26zm0.15 14.06l-18.34 -13.86c3.82,-5.06 11.04,-6.06 16.1,-2.24 5.06,3.82 6.06,11.04 2.24,16.1zm-47.34 -81.07l0 0 1.26 2.81 1.25 2.67 1.24 2.56 1.24 2.45 1.21 2.31 1.23 2.24 1.23 2.18 1.21 2.05 1.24 2.01 1.23 1.95 1.23 1.86 1.27 1.86 1.27 1.81 1.3 1.78 1.33 1.78 1.33 1.76 1.37 1.74 1.42 1.78 1.46 1.79 1.47 1.79 1.52 1.83 1.56 1.86 1.63 1.92 1.66 1.98 1.68 1.99 1.75 2.07 1.81 2.16 1.86 2.23 1.9 2.31 1.96 2.39 2 2.49 2.07 2.6 -18.04 14.26 -1.97 -2.48 -1.92 -2.37 -1.88 -2.31 -1.84 -2.23 -1.78 -2.15 -1.75 -2.08 -1.73 -2.05 -1.72 -2.03 -1.64 -1.96 -1.63 -1.92 -1.62 -1.94 -1.6 -1.91 -1.57 -1.91 -1.54 -1.91 -1.54 -1.92 -1.53 -1.96 -1.51 -1.96 -1.49 -2 -1.48 -2.04 -1.47 -2.09 -1.45 -2.12 -1.47 -2.22 -1.43 -2.27 -1.42 -2.31 -1.43 -2.43 -1.39 -2.46 -1.41 -2.56 -1.41 -2.69 -1.38 -2.75 -1.4 -2.86 -1.39 -2.99 -1.4 -3.09 0 0 21.04 -9.3zm0 0l-21.04 9.3c-2.56,-5.81 0.06,-12.61 5.87,-15.17 5.81,-2.56 12.61,0.06 15.17,5.87zm-42.19 -66.54l14.8 -2.53 2.76 1.69 2.46 1.55 2.22 1.47 1.99 1.41 1.83 1.42 1.7 1.49 1.64 1.68 1.55 2 1.34 2.34 0.99 2.64 0.51 2.62 0.11 2.36 -0.14 1.99 -0.23 1.59 -0.26 1.36 -0.24 1.12 -0.2 1.05 -0.18 1.03 -0.14 1.07 -0.1 1.19 -0.05 1.34 0.02 1.57 0.11 1.79 0.24 2.06 0.38 2.38 0.57 2.71 0.76 3.05 0.99 3.43 1.25 3.81 1.52 4.19 1.83 4.62 2.16 5.05 -21.04 9.3 -2.38 -5.59 -2.07 -5.2 -1.76 -4.87 -1.47 -4.51 -1.23 -4.21 -0.98 -3.93 -0.75 -3.65 -0.56 -3.4 -0.36 -3.18 -0.19 -2.93 -0.04 -2.71 0.09 -2.5 0.2 -2.25 0.26 -2.03 0.3 -1.75 0.28 -1.45 0.24 -1.16 0.14 -0.7 0.05 -0.31 0 0.23 0.03 0.66 0.21 1 0.37 1 0.4 0.7 0.21 0.28 -0.12 -0.12 -0.54 -0.47 -0.91 -0.7 -1.31 -0.93 -1.7 -1.13 -2.12 -1.33 -2.5 -1.53 14.8 -2.53 -17.74 -14.64zm14.8 -2.53l-11.86 19.7c-5.44,-3.27 -7.19,-10.34 -3.92,-15.78 3.27,-5.44 10.34,-7.19 15.78,-3.92zm-91.09 14.92l0 0.01 2.31 1.77 2.32 1.62 2.36 1.46 2.36 1.33 2.37 1.16 2.37 1.02 2.4 0.88 2.41 0.76 2.41 0.61 2.42 0.48 2.4 0.34 2.43 0.2 2.44 0.08 2.45 -0.04 2.42 -0.18 2.46 -0.31 2.45 -0.44 2.44 -0.57 2.46 -0.71 2.45 -0.84 2.44 -0.97 2.44 -1.12 2.43 -1.24 2.4 -1.39 2.4 -1.53 2.38 -1.69 2.38 -1.82 2.31 -1.95 2.3 -2.11 2.27 -2.25 2.23 -2.4 2.18 -2.55 17.74 14.64 -2.76 3.21 -2.85 3.08 -2.93 2.91 -3 2.75 -3.09 2.59 -3.14 2.42 -3.2 2.25 -3.28 2.09 -3.34 1.93 -3.39 1.74 -3.44 1.58 -3.5 1.39 -3.51 1.2 -3.56 1.03 -3.62 0.85 -3.61 0.64 -3.64 0.47 -3.66 0.26 -3.67 0.08 -3.64 -0.12 -3.67 -0.32 -3.66 -0.52 -3.62 -0.72 -3.59 -0.91 -3.57 -1.1 -3.52 -1.3 -3.49 -1.5 -3.43 -1.7 -3.36 -1.87 -3.3 -2.06 -3.26 -2.26 -3.17 -2.45 0 0.01 14.44 -17.9zm0 0.01l-14.44 17.88c-4.93,-3.98 -5.7,-11.23 -1.72,-16.16 3.98,-4.93 11.23,-5.7 16.16,-1.72zm-45.82 -90.19l19.18 7.88 0.14 2.88 0.08 2.87 0.06 2.83 0.03 2.83 0.01 2.79 0.01 2.76 0.02 2.76 0.03 2.73 0.05 2.7 0.09 2.7 0.12 2.65 0.17 2.62 0.23 2.58 0.29 2.58 0.37 2.55 0.43 2.51 0.53 2.5 0.6 2.47 0.71 2.44 0.81 2.43 0.94 2.41 1.06 2.42 1.17 2.39 1.33 2.39 1.49 2.41 1.66 2.4 1.83 2.43 2.03 2.43 2.24 2.44 2.46 2.45 2.7 2.47 2.95 2.48 -14.44 17.9 -3.67 -3.08 -3.42 -3.13 -3.18 -3.17 -2.94 -3.22 -2.71 -3.25 -2.49 -3.27 -2.28 -3.32 -2.05 -3.33 -1.87 -3.35 -1.67 -3.39 -1.46 -3.34 -1.3 -3.37 -1.13 -3.37 -0.97 -3.34 -0.82 -3.31 -0.69 -3.28 -0.57 -3.27 -0.45 -3.21 -0.37 -3.18 -0.27 -3.14 -0.21 -3.1 -0.14 -3.05 -0.09 -2.98 -0.07 -2.94 -0.03 -2.89 -0.02 -2.84 -0.01 -2.8 -0.01 -2.71 -0.03 -2.65 -0.04 -2.61 -0.08 -2.53 -0.12 -2.46 19.18 7.88 -15.4 -17.08zm19.18 7.88l-22.96 1.32c-0.36,-6.34 4.48,-11.78 10.82,-12.14 6.34,-0.36 11.78,4.48 12.14,10.82zm-148.26 73.48l4.79 -17.04 3.12 -1.3 3.07 -1.14 3.03 -1.02 3.02 -0.89 2.94 -0.78 2.93 -0.73 2.89 -0.66 2.85 -0.63 2.88 -0.63 2.88 -0.63 2.88 -0.66 2.9 -0.7 2.97 -0.79 3.05 -0.86 3.14 -0.97 3.22 -1.08 3.35 -1.24 3.48 -1.39 3.62 -1.58 3.81 -1.78 3.97 -2.01 4.15 -2.26 4.37 -2.52 4.56 -2.8 4.78 -3.12 5.02 -3.45 5.25 -3.79 5.5 -4.17 5.77 -4.56 6.01 -4.95 6.3 -5.39 6.58 -5.84 15.4 17.08 -6.88 6.1 -6.6 5.65 -6.37 5.25 -6.13 4.84 -5.9 4.47 -5.69 4.11 -5.46 3.75 -5.28 3.44 -5.08 3.12 -4.89 2.84 -4.73 2.56 -4.57 2.31 -4.39 2.06 -4.24 1.86 -4.1 1.63 -3.95 1.46 -3.82 1.28 -3.66 1.13 -3.51 1 -3.39 0.89 -3.28 0.8 -3.14 0.72 -2.98 0.65 -2.84 0.63 -2.77 0.61 -2.63 0.6 -2.51 0.61 -2.44 0.66 -2.34 0.69 -2.29 0.76 -2.27 0.84 -2.22 0.94 4.79 -17.04 -18.92 13.06zm4.79 -17.04l9.34 21.02c-5.8,2.57 -12.61,-0.04 -15.18,-5.84 -2.57,-5.8 0.04,-12.61 5.84,-15.18zm147.69 56.53l10.63 19.79 -5.84 1.63 -5.75 1.51 -5.68 1.38 -5.6 1.23 -5.53 1.09 -5.49 0.93 -5.42 0.75 -5.38 0.57 -5.34 0.37 -5.3 0.17 -5.28 -0.07 -5.24 -0.3 -5.2 -0.55 -5.19 -0.81 -5.14 -1.09 -5.11 -1.37 -5.07 -1.66 -5.02 -1.96 -4.98 -2.26 -4.93 -2.57 -4.88 -2.89 -4.83 -3.19 -4.78 -3.51 -4.75 -3.83 -4.72 -4.16 -4.69 -4.49 -4.66 -4.81 -4.66 -5.17 -4.65 -5.51 -4.65 -5.87 -4.66 -6.23 -4.69 -6.61 18.92 -13.06 4.35 6.13 4.3 5.75 4.23 5.33 4.19 4.97 4.12 4.57 4.08 4.21 4.03 3.87 3.98 3.5 3.95 3.19 3.92 2.87 3.87 2.57 3.86 2.27 3.83 2.01 3.84 1.74 3.84 1.5 3.87 1.26 3.91 1.05 3.94 0.83 4.01 0.63 4.08 0.43 4.18 0.24 4.26 0.05 4.36 -0.13 4.48 -0.31 4.6 -0.49 4.72 -0.65 4.85 -0.83 4.97 -0.97 5.1 -1.13 5.24 -1.28 5.39 -1.41 5.52 -1.53 10.63 19.79 -14.94 -17.48zm10.63 19.79l-6.32 -22.1c6.1,-1.74 12.47,1.79 14.21,7.89 1.74,6.1 -1.79,12.47 -7.89,14.21zm-90.5 -4.97l0 0 2.15 0.57 2.2 0.52 2.28 0.47 2.37 0.43 2.39 0.38 2.44 0.33 2.49 0.28 2.51 0.2 2.57 0.16 2.58 0.09 2.61 0.01 2.65 -0.04 2.65 -0.12 2.67 -0.19 2.67 -0.26 2.65 -0.33 2.68 -0.42 2.68 -0.5 2.64 -0.57 2.65 -0.67 2.6 -0.74 2.59 -0.84 2.59 -0.93 2.55 -1.01 2.51 -1.11 2.48 -1.2 2.44 -1.3 2.41 -1.41 2.38 -1.5 2.3 -1.59 2.27 -1.71 2.22 -1.82 14.94 17.48 -2.96 2.42 -3.01 2.27 -3.08 2.13 -3.12 1.98 -3.15 1.83 -3.22 1.72 -3.24 1.56 -3.27 1.45 -3.31 1.31 -3.29 1.19 -3.33 1.08 -3.36 0.96 -3.35 0.83 -3.34 0.73 -3.34 0.62 -3.32 0.52 -3.33 0.43 -3.31 0.32 -3.27 0.23 -3.27 0.14 -3.23 0.06 -3.21 -0.03 -3.18 -0.11 -3.11 -0.18 -3.11 -0.26 -3.05 -0.34 -3 -0.39 -2.95 -0.48 -2.87 -0.53 -2.84 -0.59 -2.8 -0.66 -2.71 -0.71 0 0 6.12 -22.16zm0 0l-6.12 22.16c-6.11,-1.68 -9.7,-8.03 -8.02,-14.14 1.68,-6.11 8.03,-9.7 14.14,-8.02zm-80.56 -74.04l12.39 5.17 1.18 2.02 1.09 2.07 1.02 2.09 1 2.14 0.98 2.19 0.98 2.21 0.98 2.24 1.02 2.28 1.07 2.33 1.11 2.35 1.18 2.37 1.23 2.37 1.33 2.39 1.41 2.39 1.53 2.41 1.61 2.41 1.72 2.36 1.86 2.35 2 2.34 2.14 2.3 2.29 2.26 2.48 2.24 2.66 2.19 2.84 2.14 3.04 2.08 3.29 2.01 3.52 1.96 3.76 1.87 4.02 1.78 4.31 1.68 4.61 1.59 4.91 1.46 -6.12 22.16 -5.79 -1.72 -5.51 -1.89 -5.23 -2.04 -4.96 -2.2 -4.7 -2.33 -4.42 -2.46 -4.17 -2.57 -3.94 -2.68 -3.7 -2.78 -3.44 -2.85 -3.22 -2.9 -3.03 -2.98 -2.8 -3.02 -2.6 -3.04 -2.4 -3.05 -2.24 -3.06 -2.05 -3.03 -1.89 -2.99 -1.75 -2.97 -1.61 -2.91 -1.49 -2.85 -1.36 -2.75 -1.27 -2.67 -1.17 -2.55 -1.1 -2.44 -1.02 -2.32 -0.94 -2.15 -0.88 -1.97 -0.82 -1.78 -0.78 -1.57 -0.71 -1.35 -0.64 -1.1 12.39 5.17 -5.2 -22.4zm12.39 5.17l-19.58 12.06c-3.33,-5.4 -1.64,-12.49 3.76,-15.82 5.4,-3.33 12.49,-1.64 15.82,3.76zm581.94 -596.18l0 0 -1.71 -3.54 -1.69 -3.35 -1.68 -3.13 -1.67 -2.97 -1.69 -2.83 -1.66 -2.66 -1.66 -2.51 -1.68 -2.42 -1.66 -2.29 -1.67 -2.18 -1.69 -2.13 -1.7 -2.04 -1.73 -2 -1.74 -1.94 -1.77 -1.91 -1.81 -1.91 -1.83 -1.88 -1.87 -1.89 -1.91 -1.91 -1.95 -1.93 -2.01 -1.99 -2.02 -2.02 -2.07 -2.07 -2.12 -2.15 -2.16 -2.23 -2.18 -2.31 -2.22 -2.4 -2.29 -2.53 -2.29 -2.64 -2.33 -2.74 -2.38 -2.9 -2.4 -3.04 18.16 -14.1 2.16 2.72 2.12 2.6 2.11 2.48 2.07 2.38 2.03 2.25 2.04 2.2 2.02 2.13 2 2.07 1.98 2.01 2.01 2.01 1.98 1.98 1.97 1.95 1.99 1.97 1.99 1.99 1.99 2.01 1.99 2.06 1.99 2.09 2.01 2.17 2 2.24 1.99 2.3 2 2.4 1.99 2.49 1.99 2.6 1.98 2.73 1.96 2.82 1.98 2.99 1.94 3.12 1.93 3.25 1.95 3.43 1.92 3.61 1.91 3.77 1.91 3.96 0 0 -20.82 9.76zm0 0l20.82 -9.76c2.69,5.74 0.21,12.6 -5.53,15.29 -5.74,2.69 -12.6,0.21 -15.29,-5.53zm-13.25 146.73l-0.01 0 3.28 -4.12 3.07 -4.16 2.85 -4.2 2.66 -4.24 2.45 -4.29 2.26 -4.32 2.05 -4.36 1.88 -4.4 1.69 -4.43 1.49 -4.46 1.33 -4.49 1.13 -4.52 0.96 -4.56 0.78 -4.59 0.6 -4.6 0.43 -4.64 0.26 -4.66 0.09 -4.69 -0.08 -4.71 -0.25 -4.73 -0.41 -4.74 -0.59 -4.77 -0.74 -4.79 -0.91 -4.78 -1.07 -4.8 -1.23 -4.82 -1.39 -4.8 -1.56 -4.82 -1.71 -4.82 -1.86 -4.81 -2.02 -4.81 -2.18 -4.8 20.82 -9.76 2.42 5.36 2.28 5.39 2.1 5.43 1.93 5.44 1.76 5.46 1.59 5.5 1.41 5.5 1.23 5.5 1.05 5.54 0.86 5.53 0.67 5.53 0.49 5.54 0.29 5.53 0.1 5.53 -0.11 5.53 -0.3 5.5 -0.51 5.5 -0.72 5.48 -0.94 5.45 -1.14 5.42 -1.35 5.4 -1.57 5.35 -1.79 5.32 -2.01 5.27 -2.22 5.22 -2.45 5.18 -2.68 5.12 -2.89 5.05 -3.12 5 -3.35 4.92 -3.57 4.86 -3.8 4.78 -0.01 0 -17.72 -14.64zm-0.01 0l17.74 14.64c-4.04,4.89 -11.3,5.59 -16.19,1.55 -4.89,-4.04 -5.59,-11.3 -1.55,-16.19zm-48.78 85.02l0.26 -1.64 0.91 -3.91 0.91 -3.68 0.9 -3.48 0.9 -3.33 0.92 -3.13 0.92 -2.99 0.95 -2.87 0.98 -2.73 1 -2.62 1.07 -2.54 1.1 -2.44 1.14 -2.34 1.21 -2.3 1.25 -2.22 1.32 -2.17 1.36 -2.11 1.4 -2.05 1.48 -2.07 1.54 -2.03 1.57 -2.01 1.65 -2.06 1.73 -2.09 1.78 -2.1 1.88 -2.21 1.96 -2.26 2.03 -2.37 2.15 -2.49 2.27 -2.63 2.37 -2.76 2.48 -2.94 2.64 -3.14 2.76 -3.31 17.72 14.64 -2.84 3.43 -2.7 3.2 -2.56 3.02 -2.43 2.84 -2.29 2.67 -2.15 2.49 -2.05 2.37 -1.92 2.22 -1.78 2.09 -1.68 2 -1.55 1.87 -1.45 1.8 -1.37 1.75 -1.24 1.65 -1.16 1.61 -1.1 1.61 -1.02 1.57 -0.96 1.59 -0.91 1.6 -0.87 1.66 -0.84 1.74 -0.84 1.84 -0.79 1.92 -0.8 2.08 -0.8 2.23 -0.79 2.37 -0.8 2.59 -0.8 2.77 -0.82 2.97 -0.82 3.22 -0.85 3.44 -0.87 3.69 0.26 -1.64 -22.92 -1.88zm0.26 -1.64l22.4 5.16c-1.42,6.18 -7.6,10.04 -13.78,8.62 -6.18,-1.42 -10.04,-7.6 -8.62,-13.78zm22.02 75.01l0 0 -1.92 -2.28 -1.81 -2.3 -1.72 -2.34 -1.61 -2.34 -1.52 -2.37 -1.44 -2.39 -1.34 -2.41 -1.26 -2.42 -1.16 -2.43 -1.06 -2.4 -1.01 -2.42 -0.92 -2.44 -0.84 -2.42 -0.77 -2.43 -0.69 -2.4 -0.62 -2.4 -0.56 -2.4 -0.49 -2.36 -0.42 -2.35 -0.37 -2.32 -0.32 -2.32 -0.26 -2.3 -0.2 -2.24 -0.16 -2.22 -0.12 -2.23 -0.06 -2.18 -0.03 -2.13 0.01 -2.08 0.05 -2.08 0.09 -2.04 0.11 -1.97 0.14 -1.96 22.92 1.88 -0.12 1.56 -0.09 1.63 -0.07 1.64 -0.03 1.64 -0.01 1.72 0.01 1.71 0.06 1.72 0.08 1.73 0.14 1.78 0.16 1.8 0.2 1.78 0.24 1.8 0.29 1.82 0.34 1.83 0.37 1.82 0.42 1.82 0.48 1.82 0.53 1.84 0.57 1.83 0.64 1.82 0.68 1.82 0.75 1.82 0.82 1.84 0.86 1.79 0.92 1.78 1 1.79 1.06 1.77 1.14 1.77 1.21 1.76 1.28 1.74 1.35 1.72 1.44 1.72 0 0 -17.36 15.06zm0 0l17.36 -15.06c4.15,4.79 3.64,12.06 -1.15,16.21 -4.79,4.15 -12.06,3.64 -16.21,-1.15zm130.48 8.1l0 0 -3.64 -1.37 -3.48 -0.98 -3.4 -0.63 -3.34 -0.32 -3.3 -0.04 -3.32 0.23 -3.35 0.46 -3.4 0.69 -3.45 0.89 -3.51 1.08 -3.56 1.23 -3.63 1.37 -3.68 1.45 -3.75 1.52 -3.81 1.55 -3.89 1.54 -4 1.49 -4.08 1.4 -4.2 1.25 -4.35 1.07 -4.47 0.8 -4.61 0.49 -4.75 0.11 -4.88 -0.34 -4.95 -0.85 -4.97 -1.39 -4.97 -1.99 -4.88 -2.56 -4.83 -3.15 -4.75 -3.76 -4.67 -4.36 -4.61 -4.98 17.36 -15.06 3.55 3.84 3.39 3.14 3.19 2.54 3.03 1.97 2.88 1.52 2.71 1.07 2.65 0.75 2.63 0.45 2.64 0.18 2.73 -0.07 2.83 -0.31 2.97 -0.54 3.09 -0.75 3.22 -0.97 3.36 -1.14 3.48 -1.31 3.59 -1.42 3.73 -1.51 3.85 -1.56 3.96 -1.57 4.09 -1.53 4.24 -1.47 4.39 -1.34 4.53 -1.17 4.7 -0.95 4.87 -0.68 5.04 -0.33 5.18 0.06 5.3 0.52 5.4 0.99 5.48 1.54 5.5 2.09 0 0 -9.08 21.12zm0 0l9.08 -21.12c5.83,2.5 8.52,9.27 6.02,15.1 -2.5,5.83 -9.27,8.52 -15.1,6.02zm24.64 20.83l0.01 0.01 -0.56 -0.87 -0.56 -0.83 -0.61 -0.85 -0.65 -0.88 -0.61 -0.81 -0.64 -0.79 -0.7 -0.83 -0.66 -0.77 -0.71 -0.77 -0.71 -0.76 -0.73 -0.74 -0.74 -0.73 -0.78 -0.73 -0.77 -0.72 -0.78 -0.68 -0.8 -0.68 -0.79 -0.64 -0.82 -0.65 -0.83 -0.62 -0.8 -0.59 -0.87 -0.6 -0.87 -0.59 -0.85 -0.56 -0.84 -0.53 -0.85 -0.5 -0.91 -0.53 -0.82 -0.47 -0.86 -0.44 -0.94 -0.48 -0.86 -0.42 -0.84 -0.39 -0.89 -0.39 9.08 -21.12 1.25 0.55 1.28 0.59 1.26 0.62 1.18 0.6 1.26 0.66 1.28 0.71 1.17 0.67 1.23 0.74 1.22 0.77 1.21 0.78 1.15 0.79 1.15 0.8 1.2 0.87 1.15 0.88 1.14 0.89 1.15 0.94 1.1 0.94 1.12 0.98 1.07 0.98 1.06 0.99 1.06 1.05 1.05 1.06 1.01 1.08 1.01 1.11 1 1.15 0.94 1.13 0.96 1.19 0.93 1.21 0.87 1.18 0.87 1.23 0.88 1.29 0.82 1.29 0.01 0.01 -19.48 12.22zm0.01 0.01l19.46 -12.24c3.37,5.37 1.76,12.48 -3.61,15.85 -5.37,3.37 -12.48,1.76 -15.85,-3.61zm18.33 16.87l-12.58 8.64 0.14 -0.59 0.11 -0.6 0.11 -0.72 0.08 -0.7 0.06 -0.71 0.04 -0.73 0.01 -0.73 0 -0.81 -0.03 -0.82 -0.05 -0.76 -0.08 -0.84 -0.1 -0.88 -0.12 -0.84 -0.14 -0.85 -0.18 -0.88 -0.18 -0.89 -0.2 -0.84 -0.24 -0.86 -0.26 -0.91 -0.28 -0.92 -0.28 -0.85 -0.3 -0.83 -0.33 -0.88 -0.34 -0.84 -0.35 -0.83 -0.39 -0.86 -0.37 -0.79 -0.39 -0.77 -0.43 -0.81 -0.43 -0.78 -0.39 -0.68 -0.45 -0.72 19.48 -12.22 0.69 1.12 0.71 1.22 0.63 1.16 0.61 1.15 0.63 1.25 0.59 1.25 0.55 1.22 0.55 1.27 0.52 1.3 0.49 1.28 0.48 1.35 0.44 1.35 0.4 1.3 0.38 1.31 0.36 1.38 0.34 1.42 0.3 1.37 0.26 1.38 0.24 1.43 0.2 1.42 0.16 1.38 0.14 1.42 0.09 1.48 0.05 1.42 0.02 1.43 -0.03 1.47 -0.08 1.47 -0.12 1.45 -0.18 1.46 -0.21 1.4 -0.27 1.5 -0.34 1.47 -12.58 8.64 2.84 -22.82zm-12.58 8.64l22.32 5.54c-1.52,6.16 -7.77,9.91 -13.93,8.39 -6.16,-1.52 -9.91,-7.77 -8.39,-13.93zm-33.34 -4.62l0 0 1.69 -1.27 1.72 -1.16 1.69 -1.04 1.77 -0.97 1.76 -0.83 1.73 -0.73 1.84 -0.64 1.76 -0.5 1.77 -0.41 1.8 -0.3 1.67 -0.2 1.68 -0.12 1.67 -0.03 1.64 0.05 1.57 0.11 1.47 0.16 1.41 0.19 1.46 0.24 1.39 0.27 1.26 0.27 1.25 0.28 1.25 0.3 1.22 0.3 1.16 0.29 1.08 0.27 1.1 0.27 1.11 0.26 1.03 0.23 1 0.21 0.99 0.18 1 0.16 0.98 0.14 -2.84 22.82 -1.56 -0.22 -1.5 -0.24 -1.49 -0.28 -1.42 -0.29 -1.37 -0.31 -1.25 -0.3 -1.24 -0.29 -1.24 -0.31 -1.12 -0.29 -1.06 -0.26 -1.01 -0.24 -0.99 -0.22 -0.98 -0.21 -0.83 -0.17 -0.76 -0.12 -0.81 -0.11 -0.75 -0.08 -0.65 -0.05 -0.6 -0.01 -0.55 0.01 -0.58 0.04 -0.59 0.06 -0.48 0.08 -0.53 0.13 -0.58 0.16 -0.5 0.18 -0.65 0.27 -0.66 0.31 -0.67 0.37 -0.79 0.48 -0.82 0.56 -0.87 0.65 0 0 -14.18 -18.1zm0 0l14.18 18.1c-4.99,3.91 -12.23,3.03 -16.14,-1.96 -3.91,-4.99 -3.03,-12.23 1.96,-16.14zm-29.03 122.19l-19.11 -9.58 3.51 -3.31 3.11 -3.31 2.75 -3.3 2.42 -3.31 2.14 -3.31 1.87 -3.31 1.64 -3.35 1.42 -3.34 1.22 -3.38 1.07 -3.44 0.91 -3.44 0.78 -3.51 0.68 -3.53 0.57 -3.56 0.51 -3.61 0.46 -3.61 0.42 -3.66 0.41 -3.69 0.44 -3.71 0.48 -3.72 0.56 -3.74 0.66 -3.76 0.81 -3.78 0.98 -3.77 1.19 -3.79 1.44 -3.75 1.73 -3.72 2.07 -3.68 2.42 -3.56 2.78 -3.4 3.16 -3.24 3.53 -3.02 14.18 18.1 -2.01 1.72 -1.72 1.76 -1.5 1.84 -1.3 1.92 -1.15 2.04 -1.01 2.2 -0.92 2.37 -0.79 2.53 -0.7 2.73 -0.61 2.88 -0.54 3.06 -0.48 3.24 -0.44 3.38 -0.42 3.51 -0.41 3.65 -0.44 3.8 -0.48 3.91 -0.57 4.01 -0.67 4.12 -0.8 4.21 -0.96 4.27 -1.15 4.36 -1.37 4.4 -1.62 4.48 -1.92 4.5 -2.2 4.49 -2.53 4.49 -2.88 4.47 -3.26 4.43 -3.65 4.38 -4.05 4.29 -4.45 4.23 -19.11 -9.58 22.9 2zm-19.11 -9.58l15.32 17.16c-4.73,4.23 -12.01,3.81 -16.24,-0.92 -4.23,-4.73 -3.81,-12.01 0.92,-16.24zm22.09 3.91l0 0 -0.64 0.98 -0.61 0.88 -0.56 0.8 -0.56 0.76 -0.5 0.66 -0.45 0.57 -0.47 0.58 -0.51 0.59 -0.42 0.45 -0.47 0.49 -0.31 0.29 -0.17 0.18 -0.34 0.31 -0.19 0.18 0.35 -0.34 1 -1.15 0.77 -1.18 0.65 -1.39 0.44 -1.41 0.21 -1.12 0.05 -0.54 0.01 -0.28 0.01 -0.11 0 0.24 0 0.48 -0.02 0.48 -0.01 0.48 -0.02 0.54 -0.03 0.68 -0.05 0.82 -0.06 0.84 -0.08 0.91 -22.9 -2 0.06 -0.71 0.04 -0.58 0.03 -0.44 0.01 -0.42 0.02 -0.42 0.01 -0.32 0 -0.22 0 -0.12 0 -0.24 0.01 -0.51 0.03 -0.62 0.07 -0.8 0.25 -1.34 0.5 -1.61 0.73 -1.55 0.87 -1.34 1.14 -1.31 0.53 -0.5 0.03 -0.02 -0.08 0.07 0.13 -0.12 0.05 -0.05 -0.05 0.05 0.06 -0.07 0.03 -0.03 0.13 -0.16 0.23 -0.29 0.26 -0.34 0.28 -0.38 0.36 -0.52 0.41 -0.6 0.46 -0.7 0 0 19.28 12.54zm0 0l-19.28 -12.54c3.46,-5.32 10.59,-6.83 15.91,-3.37 5.32,3.46 6.83,10.59 3.37,15.91zm23.76 -73.52l0 0.01 -0.03 3.08 -0.07 2.97 -0.09 2.88 -0.14 2.78 -0.17 2.66 -0.21 2.61 -0.25 2.55 -0.3 2.47 -0.35 2.39 -0.38 2.35 -0.45 2.31 -0.5 2.29 -0.55 2.21 -0.6 2.16 -0.65 2.13 -0.71 2.13 -0.78 2.09 -0.82 2.06 -0.87 2.02 -0.91 2.01 -0.96 2 -1.03 2.02 -1.08 2 -1.1 2 -1.17 2.04 -1.22 2.05 -1.26 2.08 -1.31 2.11 -1.38 2.19 -1.41 2.2 -1.47 2.3 -1.54 2.37 -19.28 -12.54 1.5 -2.31 1.43 -2.22 1.37 -2.14 1.28 -2.03 1.21 -1.97 1.16 -1.88 1.06 -1.81 1.01 -1.74 0.94 -1.7 0.88 -1.64 0.79 -1.58 0.76 -1.56 0.71 -1.55 0.65 -1.52 0.6 -1.5 0.54 -1.49 0.51 -1.51 0.47 -1.53 0.44 -1.6 0.41 -1.61 0.36 -1.65 0.33 -1.73 0.3 -1.81 0.27 -1.91 0.24 -1.97 0.21 -2.07 0.17 -2.21 0.15 -2.32 0.12 -2.44 0.09 -2.54 0.05 -2.71 0.03 -2.84 0 0.01 23 0.1zm0 0.01l-23 -0.12c0.03,-6.35 5.21,-11.47 11.56,-11.44 6.35,0.03 11.47,5.21 11.44,11.56zm51.68 -60.81l-7.59 16.92 -2.45 0.48 -2.43 0.39 -2.34 0.31 -2.32 0.28 -2.27 0.25 -2.2 0.24 -2.17 0.24 -2.07 0.25 -1.95 0.28 -1.92 0.33 -1.82 0.36 -1.7 0.41 -1.58 0.46 -1.5 0.53 -1.39 0.58 -1.26 0.64 -1.19 0.72 -1.13 0.81 -1.07 0.91 -1.02 1.02 -0.99 1.21 -0.99 1.42 -0.96 1.64 -0.93 1.94 -0.9 2.23 -0.82 2.57 -0.76 2.93 -0.65 3.28 -0.53 3.68 -0.41 4.09 -0.26 4.49 -0.11 4.91 -23 -0.1 0.13 -5.73 0.32 -5.37 0.51 -5.07 0.69 -4.76 0.89 -4.5 1.08 -4.21 1.28 -3.97 1.48 -3.71 1.67 -3.46 1.88 -3.24 2.07 -2.96 2.25 -2.71 2.42 -2.46 2.55 -2.17 2.63 -1.89 2.71 -1.64 2.76 -1.4 2.75 -1.16 2.72 -0.97 2.72 -0.8 2.68 -0.65 2.6 -0.52 2.54 -0.43 2.51 -0.36 2.41 -0.29 2.31 -0.26 2.24 -0.24 2.13 -0.23 2.02 -0.24 1.92 -0.27 1.77 -0.27 1.63 -0.32 -7.59 16.92 20 -11.36zm-7.59 16.92l-4.82 -22.48c6.2,-1.33 12.32,2.63 13.65,8.83 1.33,6.2 -2.63,12.32 -8.83,13.65zm-121.02 -41.13l0 0 2.85 -0.72 2.94 -0.91 3.09 -1.1 3.16 -1.24 3.26 -1.38 3.34 -1.48 3.42 -1.57 3.51 -1.62 3.59 -1.65 3.68 -1.64 3.75 -1.61 3.83 -1.53 3.94 -1.43 4.06 -1.31 4.16 -1.11 4.26 -0.9 4.41 -0.63 4.51 -0.31 4.62 0.05 4.7 0.48 4.74 0.93 4.76 1.42 4.73 1.93 4.67 2.45 4.59 2.97 4.51 3.49 4.42 4.03 4.33 4.56 4.27 5.12 4.21 5.7 4.16 6.29 4.14 6.93 -20 11.36 -3.62 -6.07 -3.54 -5.35 -3.45 -4.68 -3.37 -4.04 -3.25 -3.42 -3.12 -2.85 -3.01 -2.33 -2.89 -1.87 -2.77 -1.45 -2.67 -1.09 -2.62 -0.78 -2.6 -0.51 -2.6 -0.26 -2.68 -0.03 -2.73 0.19 -2.83 0.41 -2.92 0.62 -3.02 0.81 -3.1 0.99 -3.18 1.17 -3.27 1.31 -3.33 1.41 -3.38 1.52 -3.47 1.59 -3.51 1.62 -3.58 1.65 -3.66 1.62 -3.72 1.58 -3.8 1.48 -3.87 1.38 -4 1.23 -4.07 1.02 0 0 -4.98 -22.44zm0 0l4.98 22.44c-6.19,1.37 -12.34,-2.54 -13.71,-8.73 -1.37,-6.19 2.54,-12.34 8.73,-13.71zm-62.21 -78.44l0 0 -0.05 3.09 0.1 3.23 0.26 3.4 0.41 3.52 0.57 3.58 0.72 3.68 0.89 3.73 1.03 3.76 1.17 3.75 1.33 3.73 1.48 3.71 1.6 3.65 1.74 3.56 1.87 3.49 1.99 3.35 2.1 3.21 2.21 3.06 2.33 2.9 2.4 2.7 2.49 2.49 2.57 2.28 2.64 2.05 2.7 1.81 2.76 1.57 2.81 1.32 2.88 1.08 2.93 0.82 3.01 0.55 3.11 0.3 3.23 -0.01 3.39 -0.3 3.54 -0.62 4.98 22.44 -5.48 0.98 -5.39 0.48 -5.33 -0.01 -5.19 -0.48 -5.05 -0.93 -4.87 -1.36 -4.68 -1.74 -4.47 -2.1 -4.28 -2.43 -4.06 -2.73 -3.86 -2.99 -3.65 -3.24 -3.45 -3.45 -3.24 -3.64 -3.05 -3.8 -2.87 -3.96 -2.68 -4.09 -2.49 -4.21 -2.31 -4.29 -2.14 -4.38 -1.96 -4.45 -1.78 -4.49 -1.61 -4.55 -1.43 -4.55 -1.25 -4.54 -1.07 -4.55 -0.9 -4.52 -0.71 -4.5 -0.51 -4.42 -0.34 -4.36 -0.14 -4.31 0.07 -4.21 0 0 22.98 0.94zm0 0l-22.98 -0.94c0.25,-6.34 5.62,-11.27 11.96,-11.02 6.34,0.25 11.27,5.62 11.02,11.96zm55.65 -251.66l0 0 6.45 13.43 5.36 12.82 4.29 12.25 3.29 11.72 2.31 11.2 1.41 10.72 0.53 10.27 -0.3 9.82 -1.07 9.38 -1.78 8.94 -2.41 8.51 -2.97 8.09 -3.45 7.7 -3.85 7.33 -4.17 7 -4.42 6.7 -4.6 6.45 -4.7 6.21 -4.75 6.05 -4.74 5.9 -4.65 5.79 -4.53 5.72 -4.33 5.67 -4.08 5.65 -3.79 5.67 -3.43 5.69 -3.06 5.76 -2.62 5.85 -2.17 6 -1.68 6.19 -1.15 6.42 -0.59 6.76 -22.98 -0.94 0.77 -8.82 1.51 -8.46 2.2 -8.07 2.77 -7.68 3.28 -7.33 3.7 -7 4.05 -6.71 4.31 -6.45 4.5 -6.25 4.65 -6.07 4.69 -5.94 4.71 -5.85 4.66 -5.8 4.55 -5.79 4.38 -5.79 4.16 -5.83 3.9 -5.92 3.59 -6.02 3.23 -6.15 2.83 -6.3 2.39 -6.53 1.93 -6.79 1.42 -7.1 0.85 -7.48 0.24 -7.92 -0.43 -8.41 -1.17 -8.98 -1.99 -9.6 -2.87 -10.24 -3.83 -10.93 -4.86 -11.64 -5.97 -12.41 0 0 20.48 -10.46zm0 0l-20.48 10.46c-2.88,-5.65 -0.64,-12.59 5.01,-15.47 5.65,-2.88 12.59,-0.64 15.47,5.01zm-275.88 15.58l0 0 0.11 -11.71 1.34 -11.23 2.55 -10.68 3.67 -10.08 4.73 -9.42 5.7 -8.75 6.59 -8.03 7.38 -7.3 8.11 -6.53 8.73 -5.8 9.3 -5.05 9.79 -4.29 10.23 -3.54 10.6 -2.79 10.92 -2.02 11.16 -1.26 11.37 -0.5 11.5 0.29 11.6 1.09 11.61 1.89 11.59 2.7 11.5 3.54 11.34 4.38 11.12 5.25 10.85 6.1 10.5 7.02 10.08 7.89 9.62 8.81 9.06 9.73 8.45 10.64 7.77 11.57 7.01 12.5 -20.48 10.46 -6.13 -10.92 -6.75 -10.05 -7.31 -9.22 -7.82 -8.39 -8.28 -7.59 -8.7 -6.81 -9.06 -6.04 -9.37 -5.28 -9.62 -4.53 -9.82 -3.8 -9.96 -3.06 -10.05 -2.34 -10.07 -1.65 -10.04 -0.93 -9.94 -0.25 -9.79 0.42 -9.56 1.08 -9.28 1.72 -8.94 2.35 -8.53 2.96 -8.07 3.53 -7.56 4.09 -6.99 4.64 -6.37 5.15 -5.72 5.64 -5.03 6.13 -4.3 6.59 -3.55 7.08 -2.77 7.58 -1.93 8.1 -1.04 8.65 -0.07 9.25 0 0 -22.98 1.02zm0 0l22.98 -1.02c0.28,6.34 -4.64,11.72 -10.98,12 -6.34,0.28 -11.72,-4.64 -12,-10.98zm47.27 56.49l0.01 0 -2.2 -1.97 -2.1 -1.77 -2.04 -1.61 -1.98 -1.46 -1.94 -1.34 -1.86 -1.23 -1.82 -1.12 -1.79 -1.07 -1.76 -0.99 -1.74 -0.96 -1.71 -0.9 -1.73 -0.93 -1.72 -0.92 -1.72 -0.96 -1.74 -1.01 -1.75 -1.08 -1.77 -1.2 -1.78 -1.33 -1.73 -1.47 -1.69 -1.62 -1.64 -1.83 -1.53 -2 -1.41 -2.18 -1.24 -2.32 -1.07 -2.41 -0.94 -2.57 -0.78 -2.69 -0.64 -2.78 -0.53 -2.93 -0.42 -3.12 -0.29 -3.26 -0.22 -3.46 22.98 -1.02 0.16 2.74 0.23 2.46 0.28 2.12 0.33 1.87 0.38 1.62 0.38 1.33 0.4 1.09 0.41 0.93 0.4 0.74 0.39 0.6 0.43 0.56 0.46 0.51 0.57 0.54 0.67 0.57 0.76 0.57 0.93 0.62 1.09 0.68 1.26 0.73 1.42 0.78 1.54 0.84 1.69 0.89 1.85 1 1.96 1.08 2.08 1.17 2.19 1.29 2.3 1.42 2.38 1.57 2.44 1.7 2.54 1.88 2.6 2.05 2.68 2.25 2.7 2.43 0.01 0 -15.62 16.88zm0.01 0l15.6 -16.88c4.66,4.3 4.94,11.58 0.64,16.24 -4.3,4.66 -11.58,4.94 -16.24,0.64zm55.64 109.88l-21.03 -1.46 1.1 -2.31 0.97 -2.47 0.86 -2.62 0.72 -2.75 0.58 -2.89 0.45 -3.01 0.29 -3.15 0.16 -3.25 0 -3.34 -0.15 -3.46 -0.29 -3.52 -0.46 -3.59 -0.6 -3.66 -0.75 -3.72 -0.89 -3.74 -1.05 -3.78 -1.2 -3.81 -1.34 -3.79 -1.49 -3.82 -1.63 -3.82 -1.78 -3.8 -1.9 -3.77 -2.05 -3.73 -2.18 -3.69 -2.31 -3.63 -2.44 -3.58 -2.58 -3.52 -2.69 -3.43 -2.81 -3.33 -2.95 -3.26 -3.04 -3.14 -3.17 -3.04 15.62 -16.88 3.77 3.62 3.62 3.74 3.47 3.84 3.33 3.95 3.17 4.05 3.02 4.12 2.88 4.2 2.71 4.27 2.56 4.33 2.41 4.39 2.24 4.43 2.08 4.46 1.93 4.5 1.77 4.52 1.6 4.55 1.42 4.55 1.27 4.54 1.09 4.56 0.91 4.52 0.74 4.5 0.56 4.51 0.37 4.46 0.19 4.4 0 4.38 -0.2 4.33 -0.41 4.27 -0.61 4.21 -0.84 4.13 -1.06 4.05 -1.28 3.94 -1.53 3.85 -1.78 3.73 -21.03 -1.46 21.66 -7.68zm-21.03 -1.46l20.4 10.6c-2.92,5.63 -9.87,7.82 -15.5,4.9 -5.63,-2.92 -7.82,-9.87 -4.9,-15.5zm4.73 -66.41l0 0 1.05 2.52 0.99 2.54 0.9 2.51 0.84 2.46 0.77 2.46 0.71 2.42 0.66 2.43 0.6 2.35 0.56 2.36 0.51 2.34 0.46 2.27 0.45 2.26 0.41 2.27 0.38 2.2 0.35 2.16 0.35 2.13 0.34 2.12 0.32 2.09 0.32 2.06 0.31 2.02 0.32 1.97 0.33 1.94 0.34 1.94 0.35 1.9 0.37 1.86 0.39 1.82 0.42 1.83 0.43 1.79 0.46 1.72 0.51 1.75 0.53 1.69 0.57 1.69 -21.66 7.68 -0.77 -2.21 -0.69 -2.23 -0.63 -2.19 -0.6 -2.22 -0.53 -2.19 -0.5 -2.15 -0.45 -2.16 -0.43 -2.16 -0.39 -2.14 -0.38 -2.1 -0.35 -2.12 -0.34 -2.11 -0.33 -2.1 -0.32 -2.06 -0.32 -2.05 -0.32 -2.04 -0.33 -2.05 -0.35 -2.06 -0.34 -2.02 -0.37 -1.99 -0.39 -2.02 -0.42 -2.03 -0.43 -1.98 -0.48 -2 -0.5 -2.01 -0.54 -1.99 -0.59 -2 -0.63 -2 -0.68 -2.02 -0.72 -2.01 -0.79 -2 -0.85 -2.04 0 0 21.12 -9.1zm0 0l-21.12 9.1c-2.51,-5.83 0.18,-12.6 6.01,-15.11 5.83,-2.51 12.6,0.18 15.11,6.01zm-138.8 -82.43l0 0 5.13 -0.45 5.16 -0.19 5.19 0.07 5.19 0.3 5.22 0.54 5.19 0.78 5.19 0.98 5.17 1.2 5.14 1.41 5.11 1.61 5.07 1.81 5 1.99 4.95 2.18 4.9 2.35 4.82 2.54 4.73 2.69 4.65 2.86 4.55 3.02 4.44 3.17 4.32 3.33 4.19 3.46 4.08 3.62 3.93 3.75 3.79 3.89 3.62 4.02 3.45 4.14 3.27 4.27 3.09 4.39 2.89 4.51 2.68 4.62 2.47 4.74 2.22 4.83 -21.12 9.1 -1.76 -3.83 -1.95 -3.76 -2.16 -3.72 -2.35 -3.67 -2.53 -3.59 -2.71 -3.53 -2.87 -3.44 -3.02 -3.36 -3.19 -3.27 -3.31 -3.17 -3.46 -3.06 -3.59 -2.96 -3.68 -2.83 -3.8 -2.71 -3.89 -2.6 -3.97 -2.44 -4.05 -2.31 -4.12 -2.16 -4.16 -2.01 -4.21 -1.84 -4.26 -1.69 -4.27 -1.53 -4.29 -1.35 -4.28 -1.17 -4.29 -1 -4.27 -0.82 -4.23 -0.62 -4.2 -0.44 -4.15 -0.24 -4.09 -0.05 -4.04 0.15 -3.95 0.33 0 0 -2.58 -22.84zm0 0l2.58 22.84c-6.3,0.71 -12,-3.83 -12.71,-10.13 -0.71,-6.3 3.83,-12 10.13,-12.71zm-61.71 43.81l-9.42 -20.27 1.88 -0.41 1.87 -0.46 1.83 -0.5 1.86 -0.57 1.83 -0.6 1.85 -0.65 1.87 -0.69 1.88 -0.74 1.88 -0.75 1.88 -0.8 1.94 -0.84 1.95 -0.85 1.94 -0.87 2.03 -0.92 2.06 -0.91 2.05 -0.92 2.13 -0.94 2.15 -0.92 2.21 -0.94 2.25 -0.92 2.31 -0.9 2.37 -0.89 2.41 -0.86 2.48 -0.83 2.54 -0.79 2.59 -0.75 2.69 -0.71 2.74 -0.65 2.8 -0.59 2.87 -0.52 2.95 -0.47 3.04 -0.38 2.58 22.84 -2.38 0.3 -2.33 0.37 -2.29 0.42 -2.22 0.47 -2.18 0.51 -2.13 0.57 -2.11 0.61 -2.08 0.65 -2.06 0.69 -2.03 0.72 -2.01 0.75 -2.01 0.8 -1.99 0.8 -1.99 0.84 -1.99 0.86 -1.99 0.88 -2.03 0.9 -2 0.89 -1.99 0.9 -2.08 0.93 -2.07 0.91 -2.08 0.9 -2.14 0.9 -2.18 0.89 -2.18 0.84 -2.21 0.83 -2.29 0.81 -2.33 0.76 -2.36 0.71 -2.45 0.68 -2.47 0.6 -2.52 0.55 -9.42 -20.27 14.3 18zm-9.42 -20.27l4.54 22.54c-6.22,1.25 -12.29,-2.78 -13.54,-9 -1.25,-6.22 2.78,-12.29 9,-13.54zm126.5 -8.97l0.03 0 -3.51 0.1 -3.48 0.05 -3.45 -0.01 -3.43 -0.04 -3.41 -0.08 -3.39 -0.07 -3.41 -0.08 -3.39 -0.07 -3.37 -0.04 -3.37 -0.01 -3.38 0.03 -3.37 0.08 -3.36 0.15 -3.41 0.23 -3.43 0.31 -3.44 0.4 -3.46 0.5 -3.5 0.62 -3.54 0.74 -3.57 0.87 -3.63 1.03 -3.7 1.19 -3.75 1.35 -3.81 1.54 -3.9 1.73 -3.96 1.93 -4.06 2.18 -4.14 2.39 -4.22 2.65 -4.33 2.91 -4.42 3.19 -4.52 3.47 -14.3 -18 5.08 -3.91 5 -3.61 4.95 -3.33 4.88 -3.07 4.84 -2.79 4.76 -2.54 4.72 -2.31 4.64 -2.07 4.59 -1.84 4.53 -1.63 4.46 -1.43 4.41 -1.25 4.35 -1.07 4.28 -0.9 4.2 -0.74 4.14 -0.6 4.06 -0.48 3.99 -0.35 3.91 -0.27 3.86 -0.17 3.79 -0.1 3.7 -0.03 3.63 0.01 3.57 0.06 3.49 0.07 3.41 0.08 3.37 0.07 3.31 0.06 3.23 0.04 3.17 0.01 3.1 -0.03 3.05 -0.1 0.03 0 0.88 22.98zm0.03 0l-0.94 -22.98c6.34,-0.25 11.71,4.68 11.96,11.02 0.25,6.34 -4.68,11.71 -11.02,11.96zm3.04 -0.27l0 0 0.11 -0.01 -0.13 0.02 -0.07 0 0.63 -0.06 -0.17 0.02 -0.83 0.08 -0.09 0 0.58 -0.05 -0.16 0.02 -0.09 0.01 -0.16 0.01 -0.1 0.01 -0.09 0.01 -0.1 0.01 -0.09 0.01 -0.16 0.02 -0.1 0.01 -0.1 0.01 -0.04 0 -0.09 0.01 -0.16 0.02 -0.04 0 -0.65 0.06 -0.13 0 0.5 -0.04 -0.02 0.01 -0.68 0.06 -0.08 0 -0.09 0.01 -0.04 -0.01 -0.04 0.01 -0.39 0.02 -0.88 -22.98 -0.25 0.02 0.12 -0.01 0.12 -0.01 0.09 -0.01 0.08 0 -0.5 0.04 0.16 -0.01 0.7 -0.06 0.05 0 -0.47 0.04 0.16 -0.02 0.04 0 0.09 -0.01 0.16 -0.02 0.1 -0.01 0.1 -0.01 0.04 0 0.09 -0.01 0.1 -0.01 0.09 -0.01 0.1 -0.01 0.02 -0.01 0.09 -0.01 0.02 0 0.74 -0.07 0.09 0 -0.67 0.06 -0.01 0 0.77 -0.08 0.07 0 0.01 0 0.23 -0.01 0 0 1.42 22.94zm0 0l-1.42 -22.94c6.33,-0.39 11.79,4.43 12.18,10.76 0.39,6.33 -4.43,11.79 -10.76,12.18zm12.68 -16.3l-9.1 15.94 -0.28 0.04 -0.09 0.01 0.53 -0.08 -0.19 0.04 -0.69 0.08 -0.09 0.01 -0.16 0.02 -0.04 0 -0.09 0.01 -0.16 0.02 -0.1 0.01 -0.04 0 -0.09 0.01 0.41 -0.05 -0.02 0.01 -1.28 0.13 -0.1 0 0.51 -0.04 -0.1 0.01 -0.02 0.01 -0.02 0 -0.08 0.01 -0.79 0.07 -0.05 0 0.67 -0.06 -0.08 0.01 -0.75 0.07 -0.01 0 -0.07 0.01 -0.07 0 -0.01 0 -0.23 0.01 -1.42 -22.94 -0.11 0.01 0.13 -0.02 0.07 0 0.07 -0.01 0.13 0 -0.59 0.05 0.08 -0.01 0.83 -0.08 0.13 0 -0.61 0.05 0.08 -0.01 0.16 -0.02 0.16 -0.01 0.1 -0.01 0.69 -0.06 0.1 0 -1.1 0.11 0.18 -0.03 0.61 -0.07 0.09 -0.01 0.16 -0.02 0.1 -0.01 0.04 0 0.09 -0.01 0.16 -0.02 0.04 0 0.09 -0.01 -0.49 0.06 -0.01 0 0.71 -0.1 0.09 -0.01 -0.1 0.02 -9.1 15.94 21.12 -9.08zm-9.1 15.94l-2.92 -22.8c6.29,-0.8 12.06,3.65 12.86,9.94 0.8,6.29 -3.65,12.06 -9.94,12.86zm53.44 -116.01l0.01 0 -2.09 2.79 -2.25 2.65 -2.36 2.54 -2.48 2.47 -2.54 2.41 -2.6 2.38 -2.67 2.4 -2.69 2.38 -2.67 2.39 -2.67 2.43 -2.65 2.47 -2.59 2.48 -2.5 2.55 -2.42 2.58 -2.3 2.65 -2.17 2.7 -2.01 2.75 -1.85 2.82 -1.68 2.9 -1.49 2.97 -1.3 3.06 -1.07 3.15 -0.87 3.27 -0.62 3.42 -0.38 3.6 -0.1 3.79 0.19 4.01 0.51 4.26 0.87 4.51 1.27 4.81 1.68 5.08 2.15 5.4 -21.12 9.08 -2.63 -6.58 -2.12 -6.42 -1.65 -6.23 -1.17 -6.07 -0.71 -5.9 -0.27 -5.71 0.16 -5.53 0.56 -5.34 0.94 -5.16 1.29 -4.93 1.61 -4.71 1.9 -4.5 2.13 -4.25 2.34 -4.04 2.53 -3.86 2.67 -3.65 2.77 -3.44 2.86 -3.29 2.9 -3.12 2.94 -2.97 2.93 -2.84 2.89 -2.69 2.85 -2.59 2.79 -2.49 2.67 -2.36 2.51 -2.26 2.38 -2.18 2.2 -2.09 1.96 -1.95 1.72 -1.86 1.47 -1.71 1.17 -1.57 0.01 0 18.86 13.14zm0.01 0l-18.88 -13.14c3.62,-5.21 10.8,-6.49 16.01,-2.87 5.21,3.62 6.49,10.8 2.87,16.01zm-113.56 -190.66l0 0 9.39 3.25 9.02 3.73 8.66 4.16 8.29 4.55 7.9 4.94 7.52 5.26 7.15 5.58 6.78 5.85 6.39 6.1 6.02 6.32 5.64 6.51 5.27 6.66 4.88 6.8 4.53 6.9 4.14 6.96 3.79 7.03 3.41 7.05 3.04 7.04 2.68 7.01 2.31 6.97 1.94 6.9 1.56 6.78 1.2 6.67 0.82 6.56 0.43 6.37 0.04 6.2 -0.37 6.01 -0.78 5.82 -1.26 5.58 -1.72 5.33 -2.28 5.06 -2.84 4.71 -18.86 -13.14 1.32 -2.19 1.18 -2.66 1.02 -3.15 0.8 -3.58 0.54 -4 0.27 -4.39 -0.04 -4.74 -0.33 -5.03 -0.66 -5.28 -1 -5.51 -1.32 -5.72 -1.64 -5.86 -1.99 -5.97 -2.32 -6.09 -2.64 -6.12 -2.99 -6.17 -3.31 -6.15 -3.64 -6.12 -3.97 -6.06 -4.3 -5.96 -4.63 -5.86 -4.94 -5.71 -5.26 -5.52 -5.59 -5.34 -5.9 -5.09 -6.23 -4.86 -6.54 -4.58 -6.86 -4.28 -7.17 -3.95 -7.5 -3.6 -7.82 -3.23 -8.15 -2.83 0 0 6.92 -21.92zm0 0l-6.92 21.92c-6.05,-1.91 -9.41,-8.37 -7.5,-14.42 1.91,-6.05 8.37,-9.41 14.42,-7.5zm-170.05 34.42l0 0 4.82 -4.23 4.95 -3.99 5.05 -3.74 5.15 -3.5 5.25 -3.26 5.32 -3.02 5.38 -2.8 5.46 -2.58 5.5 -2.36 5.56 -2.15 5.58 -1.93 5.61 -1.73 5.63 -1.53 5.65 -1.35 5.66 -1.15 5.64 -0.96 5.63 -0.79 5.61 -0.61 5.58 -0.44 5.56 -0.28 5.51 -0.12 5.47 0.04 5.42 0.19 5.34 0.34 5.29 0.48 5.19 0.62 5.1 0.75 5.05 0.89 4.93 1.01 4.83 1.14 4.73 1.26 4.6 1.38 -6.92 21.92 -3.94 -1.18 -4.05 -1.08 -4.19 -0.98 -4.29 -0.89 -4.39 -0.77 -4.5 -0.65 -4.57 -0.56 -4.63 -0.42 -4.72 -0.3 -4.76 -0.17 -4.81 -0.02 -4.87 0.1 -4.88 0.24 -4.92 0.4 -4.93 0.53 -4.95 0.69 -4.94 0.84 -4.92 1.01 -4.93 1.17 -4.89 1.33 -4.87 1.51 -4.84 1.67 -4.78 1.85 -4.74 2.02 -4.68 2.22 -4.62 2.4 -4.56 2.58 -4.45 2.78 -4.39 2.98 -4.29 3.18 -4.21 3.39 -4.1 3.59 0 0 -15.52 -16.96zm0 0l15.52 16.96c-4.68,4.28 -11.96,3.96 -16.24,-0.72 -4.28,-4.68 -3.96,-11.96 0.72,-16.24zm-47.96 148.28l0 0 -1.11 -4.94 -0.93 -4.97 -0.76 -5 -0.56 -4.99 -0.4 -5.02 -0.2 -5.01 -0.05 -5.01 0.14 -5.01 0.31 -5 0.48 -4.99 0.65 -4.99 0.82 -4.96 0.98 -4.92 1.15 -4.91 1.33 -4.86 1.47 -4.82 1.63 -4.79 1.81 -4.75 1.95 -4.69 2.12 -4.64 2.27 -4.58 2.43 -4.52 2.57 -4.45 2.72 -4.38 2.88 -4.33 3.04 -4.23 3.18 -4.16 3.32 -4.05 3.46 -3.97 3.61 -3.88 3.76 -3.79 3.89 -3.67 15.52 16.96 -3.37 3.17 -3.22 3.25 -3.11 3.34 -2.98 3.43 -2.86 3.49 -2.72 3.56 -2.6 3.63 -2.46 3.69 -2.34 3.76 -2.21 3.81 -2.07 3.88 -1.95 3.92 -1.8 3.96 -1.67 3.99 -1.53 4.05 -1.39 4.07 -1.27 4.12 -1.11 4.12 -0.97 4.15 -0.84 4.18 -0.7 4.2 -0.55 4.19 -0.4 4.21 -0.25 4.22 -0.12 4.21 0.03 4.21 0.18 4.23 0.32 4.18 0.48 4.19 0.62 4.16 0.79 4.15 0.93 4.14 0 0 -22.34 5.46zm0 0l22.34 -5.46c1.5,6.16 -2.28,12.4 -8.44,13.9 -6.16,1.5 -12.4,-2.28 -13.9,-8.44zm14.07 7.41l-12.03 5.37 0.57 -0.95 0.53 -0.89 0.39 -0.68 0.33 -0.61 0.29 -0.52 0.14 -0.29 0.13 -0.27 0.06 -0.14 -0.07 0.19 -0.11 0.38 -0.08 0.42 -0.07 0.6 -0.02 0.76 0.04 0.65 0.08 0.52 0.09 0.38 0.06 0.21 0.05 0.14 -0.05 -0.12 -0.14 -0.32 -0.21 -0.47 -0.22 -0.52 -0.3 -0.65 -0.37 -0.87 -0.35 -0.86 -0.38 -0.96 -0.4 -1.07 -0.42 -1.2 -0.4 -1.26 -0.41 -1.36 -0.4 -1.47 -0.4 -1.55 22.34 -5.46 0.28 1.13 0.28 0.99 0.27 0.9 0.26 0.8 0.24 0.7 0.24 0.65 0.24 0.62 0.23 0.56 0.19 0.45 0.24 0.53 0.26 0.58 0.25 0.55 0.26 0.62 0.31 0.74 0.35 0.98 0.3 1.01 0.27 1.14 0.2 1.28 0.1 1.43 -0.04 1.54 -0.17 1.42 -0.26 1.3 -0.37 1.3 -0.43 1.17 -0.4 0.94 -0.41 0.91 -0.5 0.99 -0.47 0.88 -0.51 0.93 -0.59 1 -0.57 0.97 -0.63 1.07 -12.03 5.37 4.34 -22.58zm-12.03 5.37l19.72 11.84c-3.26,5.44 -10.34,7.2 -15.78,3.94 -5.44,-3.26 -7.2,-10.34 -3.94,-15.78zm-28.86 -21.11l0 0 1.76 0.35 1.73 0.4 1.7 0.44 1.65 0.49 1.6 0.51 1.6 0.55 1.52 0.57 1.48 0.58 1.49 0.61 1.46 0.63 1.37 0.62 1.41 0.64 1.34 0.65 1.29 0.61 1.3 0.64 1.27 0.62 1.25 0.62 1.19 0.59 1.17 0.57 1.16 0.56 1.17 0.55 1.12 0.52 1.07 0.48 1.05 0.46 1.03 0.41 1.04 0.41 1.03 0.37 0.96 0.33 0.92 0.28 0.96 0.27 0.91 0.22 0.89 0.19 -4.34 22.58 -1.67 -0.35 -1.61 -0.4 -1.56 -0.43 -1.58 -0.48 -1.54 -0.53 -1.45 -0.53 -1.44 -0.55 -1.43 -0.59 -1.41 -0.6 -1.39 -0.62 -1.32 -0.62 -1.29 -0.61 -1.3 -0.62 -1.29 -0.63 -1.27 -0.63 -1.21 -0.6 -1.21 -0.6 -1.2 -0.58 -1.21 -0.59 -1.16 -0.55 -1.13 -0.52 -1.17 -0.52 -1.12 -0.49 -1.09 -0.45 -1.14 -0.44 -1.1 -0.41 -1.06 -0.37 -1.1 -0.35 -1.07 -0.31 -1.04 -0.28 -1.05 -0.24 -1.06 -0.21 0 0 4.12 -22.62zm0 0l-4.12 22.62c-6.24,-1.13 -10.38,-7.13 -9.25,-13.37 1.13,-6.24 7.13,-10.38 13.37,-9.25zm-147.66 245.33l-15.68 -4.87 -3.87 -8.64 -3.02 -9.07 -2.2 -9.41 -1.44 -9.7 -0.69 -9.95 0 -10.13 0.67 -10.29 1.3 -10.4 1.91 -10.48 2.5 -10.49 3.06 -10.48 3.61 -10.42 4.13 -10.32 4.65 -10.16 5.12 -9.97 5.6 -9.73 6.06 -9.43 6.49 -9.1 6.93 -8.72 7.33 -8.29 7.74 -7.8 8.13 -7.28 8.5 -6.68 8.87 -6.03 9.23 -5.34 9.58 -4.57 9.89 -3.74 10.19 -2.84 10.48 -1.86 10.69 -0.83 10.89 0.27 11.01 1.42 -4.12 22.62 -8.67 -1.12 -8.51 -0.21 -8.39 0.65 -8.26 1.48 -8.15 2.28 -8.03 3.02 -7.88 3.77 -7.71 4.46 -7.53 5.13 -7.3 5.74 -7.07 6.32 -6.8 6.86 -6.49 7.33 -6.17 7.78 -5.83 8.18 -5.46 8.49 -5.04 8.77 -4.64 9.01 -4.19 9.18 -3.73 9.3 -3.25 9.38 -2.74 9.38 -2.22 9.33 -1.69 9.24 -1.14 9.08 -0.57 8.87 0 8.59 0.57 8.27 1.16 7.88 1.74 7.45 2.32 6.97 2.91 6.48 -15.68 -4.87 10.9 20.24zm-15.68 -4.87l20.46 -10.5c2.89,5.64 0.66,12.59 -4.98,15.48 -5.64,2.89 -12.59,0.66 -15.48,-4.98zm71.32 -36.11l0 0 -0.82 2.6 -1.03 2.48 -1.19 2.36 -1.35 2.23 -1.48 2.08 -1.58 1.96 -1.68 1.83 -1.75 1.7 -1.8 1.58 -1.89 1.52 -1.93 1.4 -1.92 1.31 -1.98 1.26 -2.02 1.19 -2.01 1.12 -2.01 1.06 -2.04 1.03 -2.04 0.99 -2.04 0.95 -2.03 0.91 -2 0.89 -2 0.86 -1.95 0.83 -1.9 0.81 -1.87 0.8 -1.85 0.79 -1.77 0.77 -1.7 0.75 -1.64 0.75 -1.54 0.73 -1.45 0.73 -1.38 0.71 -10.9 -20.24 1.82 -0.95 1.85 -0.93 1.9 -0.89 1.88 -0.87 1.92 -0.85 1.91 -0.83 1.89 -0.81 1.91 -0.82 1.92 -0.81 1.89 -0.81 1.86 -0.8 1.84 -0.81 1.81 -0.81 1.76 -0.83 1.7 -0.81 1.66 -0.85 1.63 -0.86 1.55 -0.86 1.44 -0.85 1.36 -0.86 1.32 -0.89 1.17 -0.86 1.07 -0.86 1 -0.88 0.87 -0.84 0.76 -0.83 0.68 -0.82 0.56 -0.8 0.47 -0.77 0.39 -0.76 0.31 -0.78 0.26 -0.8 0 0 22.18 6.06zm0 0l-22.18 -6.06c1.67,-6.12 8,-9.73 14.12,-8.06 6.12,1.67 9.73,8 8.06,14.12zm137.05 -111.71l-5.51 21.5 -4.47 -2.31 -4.5 -1.92 -4.54 -1.52 -4.59 -1.17 -4.59 -0.79 -4.65 -0.44 -4.69 -0.09 -4.72 0.24 -4.73 0.58 -4.76 0.93 -4.76 1.26 -4.77 1.6 -4.76 1.93 -4.73 2.25 -4.71 2.58 -4.65 2.89 -4.59 3.22 -4.51 3.51 -4.43 3.82 -4.32 4.11 -4.21 4.41 -4.07 4.67 -3.92 4.95 -3.78 5.23 -3.62 5.47 -3.42 5.71 -3.23 5.96 -3.03 6.2 -2.8 6.41 -2.58 6.64 -2.33 6.83 -2.08 7.05 -22.18 -6.06 2.34 -7.95 2.65 -7.75 2.92 -7.52 3.2 -7.31 3.45 -7.06 3.69 -6.82 3.94 -6.57 4.16 -6.31 4.36 -6.03 4.58 -5.77 4.77 -5.47 4.95 -5.17 5.12 -4.89 5.29 -4.56 5.43 -4.23 5.59 -3.9 5.71 -3.55 5.83 -3.2 5.95 -2.83 6.04 -2.45 6.15 -2.06 6.22 -1.64 6.28 -1.23 6.35 -0.78 6.34 -0.34 6.37 0.13 6.39 0.6 6.35 1.11 6.29 1.59 6.22 2.1 6.12 2.6 6.01 3.11 -5.51 21.5 -0.32 -23zm-5.51 21.5l11.34 -20c5.52,3.13 7.46,10.15 4.33,15.67 -3.13,5.52 -10.15,7.46 -15.67,4.33zm-14.79 1.79l-0.66 -0.01 0.34 -22.99 20.62 -0.29 0.32 23 -20.62 0.29zm-0.32 -23l0.32 23c-6.35,0.08 -11.58,-4.99 -11.66,-11.34 -0.08,-6.35 4.99,-11.58 11.34,-11.66zm-125.37 95.21l0 0 1.78 -5.49 1.94 -5.36 2.07 -5.23 2.21 -5.11 2.37 -4.97 2.51 -4.84 2.65 -4.7 2.8 -4.56 2.95 -4.42 3.1 -4.26 3.23 -4.08 3.37 -3.94 3.54 -3.79 3.66 -3.59 3.81 -3.43 3.95 -3.25 4.1 -3.08 4.22 -2.86 4.35 -2.69 4.51 -2.48 4.61 -2.28 4.74 -2.07 4.86 -1.86 4.98 -1.65 5.11 -1.44 5.21 -1.2 5.31 -0.99 5.43 -0.78 5.52 -0.53 5.61 -0.32 5.72 -0.09 5.81 0.14 -1 22.98 -4.91 -0.12 -4.8 0.07 -4.67 0.26 -4.56 0.45 -4.43 0.62 -4.33 0.81 -4.21 0.98 -4.07 1.14 -3.98 1.33 -3.88 1.48 -3.76 1.65 -3.67 1.8 -3.55 1.96 -3.45 2.13 -3.36 2.28 -3.26 2.44 -3.15 2.59 -3.05 2.75 -2.96 2.91 -2.86 3.05 -2.75 3.22 -2.67 3.38 -2.56 3.52 -2.45 3.66 -2.34 3.82 -2.25 3.98 -2.13 4.12 -2.03 4.27 -1.91 4.39 -1.81 4.57 -1.68 4.68 -1.58 4.83 0 0 -21.96 -6.8zm0 0l21.96 6.8c-1.87,6.06 -8.32,9.45 -14.38,7.58 -6.06,-1.87 -9.45,-8.32 -7.58,-14.38zm62.52 151.76l-11.34 19.05 -4.94 -5.26 -4.71 -5.28 -4.49 -5.26 -4.27 -5.27 -4.04 -5.27 -3.84 -5.28 -3.61 -5.29 -3.39 -5.3 -3.17 -5.3 -2.96 -5.29 -2.75 -5.33 -2.52 -5.33 -2.32 -5.33 -2.09 -5.35 -1.88 -5.35 -1.67 -5.37 -1.45 -5.37 -1.24 -5.39 -1.02 -5.38 -0.82 -5.37 -0.61 -5.38 -0.4 -5.4 -0.19 -5.39 0.02 -5.39 0.21 -5.39 0.43 -5.37 0.6 -5.36 0.81 -5.39 1.01 -5.34 1.18 -5.36 1.39 -5.34 1.55 -5.33 21.96 6.8 -1.35 4.63 -1.19 4.62 -1.02 4.58 -0.85 4.58 -0.69 4.55 -0.52 4.56 -0.35 4.53 -0.19 4.51 0 4.53 0.15 4.51 0.34 4.5 0.51 4.52 0.68 4.53 0.86 4.52 1.04 4.53 1.23 4.53 1.41 4.55 1.62 4.59 1.79 4.57 2 4.61 2.2 4.63 2.39 4.65 2.6 4.67 2.81 4.7 3.03 4.72 3.23 4.73 3.46 4.76 3.68 4.79 3.89 4.81 4.13 4.84 4.35 4.86 4.58 4.88 -11.34 19.05 6.08 -22.18zm-11.34 19.05l16.6 -15.92c4.39,4.58 4.24,11.87 -0.34,16.26 -4.58,4.39 -11.87,4.24 -16.26,-0.34zm-15.24 -41.88l0.01 0 0.72 0.89 0.77 0.93 0.77 0.94 0.77 0.91 0.81 0.95 0.81 0.93 0.83 0.94 0.85 0.95 0.84 0.92 0.87 0.93 0.87 0.9 0.9 0.92 0.87 0.87 0.9 0.87 0.9 0.85 0.89 0.8 0.91 0.81 0.9 0.77 0.91 0.74 0.91 0.72 0.87 0.66 0.89 0.64 0.88 0.6 0.84 0.55 0.86 0.52 0.81 0.46 0.81 0.43 0.79 0.38 0.75 0.33 0.71 0.28 0.71 0.25 0.65 0.19 -6.08 22.18 -1.67 -0.51 -1.59 -0.55 -1.59 -0.62 -1.55 -0.69 -1.49 -0.72 -1.47 -0.77 -1.45 -0.82 -1.4 -0.86 -1.4 -0.89 -1.32 -0.92 -1.33 -0.94 -1.31 -1 -1.25 -0.98 -1.23 -1.02 -1.22 -1.03 -1.19 -1.05 -1.19 -1.08 -1.14 -1.09 -1.12 -1.07 -1.11 -1.11 -1.06 -1.08 -1.07 -1.12 -1.03 -1.11 -1.02 -1.1 -0.97 -1.09 -0.97 -1.08 -0.93 -1.09 -0.91 -1.05 -0.91 -1.09 -0.85 -1.02 -0.83 -1.01 -0.82 -1.01 0.01 0 17.88 -14.44zm0.01 0l-17.9 14.44c-3.98,-4.94 -3.21,-12.19 1.73,-16.17 4.94,-3.98 12.19,-3.21 16.17,1.73zm-18.32 -31.14l0 0 0.48 1.14 0.47 1.11 0.49 1.11 0.5 1.12 0.48 1.06 0.47 1.01 0.5 1.03 0.51 1.05 0.51 1.04 0.51 0.99 0.5 0.97 0.51 0.96 0.53 0.98 0.55 0.99 0.54 0.96 0.51 0.89 0.56 0.92 0.58 0.96 0.59 0.95 0.56 0.9 0.6 0.92 0.61 0.92 0.59 0.88 0.65 0.94 0.66 0.94 0.64 0.9 0.64 0.88 0.69 0.91 0.71 0.94 0.71 0.92 0.72 0.92 0.74 0.93 -17.88 14.44 -0.86 -1.07 -0.86 -1.08 -0.83 -1.08 -0.81 -1.06 -0.81 -1.09 -0.82 -1.12 -0.78 -1.1 -0.74 -1.06 -0.73 -1.06 -0.77 -1.12 -0.71 -1.1 -0.72 -1.1 -0.72 -1.14 -0.67 -1.09 -0.66 -1.08 -0.68 -1.14 -0.69 -1.19 -0.64 -1.14 -0.61 -1.11 -0.63 -1.14 -0.63 -1.18 -0.62 -1.19 -0.59 -1.19 -0.59 -1.18 -0.57 -1.17 -0.58 -1.21 -0.59 -1.27 -0.56 -1.24 -0.54 -1.22 -0.55 -1.25 -0.55 -1.27 -0.54 -1.28 0 0 21.22 -8.86zm0 0l-21.22 8.86c-2.44,-5.85 0.33,-12.6 6.18,-15.04 5.85,-2.44 12.6,0.33 15.04,6.18zm-29.05 -73.23l15.32 7.58 0.6 2.26 0.53 2.2 0.48 2.15 0.41 2.12 0.37 2.07 0.32 2.03 0.29 2.02 0.24 1.96 0.22 1.89 0.2 1.89 0.18 1.84 0.18 1.85 0.17 1.83 0.18 1.78 0.18 1.81 0.19 1.79 0.22 1.78 0.23 1.8 0.27 1.83 0.29 1.87 0.32 1.85 0.39 1.94 0.42 2 0.46 2.02 0.53 2.08 0.6 2.17 0.67 2.25 0.74 2.31 0.82 2.41 0.92 2.53 1 2.61 1.11 2.71 -21.22 8.86 -1.27 -3.11 -1.16 -3.03 -1.06 -2.91 -0.98 -2.85 -0.88 -2.77 -0.79 -2.67 -0.72 -2.61 -0.65 -2.56 -0.58 -2.48 -0.5 -2.38 -0.45 -2.32 -0.4 -2.29 -0.35 -2.19 -0.31 -2.15 -0.27 -2.08 -0.24 -2.04 -0.21 -1.99 -0.2 -1.89 -0.18 -1.9 -0.17 -1.81 -0.18 -1.77 -0.18 -1.76 -0.18 -1.71 -0.2 -1.71 -0.2 -1.66 -0.23 -1.62 -0.26 -1.65 -0.29 -1.65 -0.33 -1.66 -0.36 -1.67 -0.41 -1.7 -0.46 -1.72 15.32 7.58 -8.5 -21.36zm15.32 7.58l-22.14 6.2c-1.71,-6.11 1.86,-12.46 7.97,-14.17 6.11,-1.71 12.46,1.86 14.17,7.97zm44.62 482.18l-0.01 0 -22.33 -2.52 -21.38 -4.5 -20.36 -6.37 -19.31 -8.12 -18.19 -9.74 -17.04 -11.26 -15.86 -12.65 -14.63 -13.91 -13.39 -15.06 -12.12 -16.08 -10.81 -17.01 -9.48 -17.81 -8.13 -18.5 -6.75 -19.09 -5.33 -19.56 -3.91 -19.93 -2.43 -20.19 -0.94 -20.34 0.61 -20.39 2.16 -20.32 3.77 -20.14 5.4 -19.86 7.09 -19.45 8.77 -18.92 10.52 -18.28 12.28 -17.52 14.08 -16.63 15.87 -15.62 17.71 -14.49 19.54 -13.23 21.4 -11.88 23.26 -10.39 8.5 21.36 -21.5 9.61 -19.64 10.9 -17.84 12.07 -16.09 13.17 -14.37 14.14 -12.72 15.03 -11.08 15.82 -9.5 16.52 -7.95 17.12 -6.41 17.63 -4.9 18.04 -3.43 18.34 -1.98 18.54 -0.55 18.65 0.86 18.62 2.23 18.51 3.57 18.27 4.89 17.94 6.19 17.49 7.43 16.92 8.66 16.27 9.85 15.49 11 14.62 12.13 13.64 13.21 12.55 14.28 11.39 15.3 10.1 16.31 8.74 17.29 7.28 18.28 5.71 19.22 4.06 20.21 2.28 -0.01 0 -1.5 22.94zm-0.01 0l1.52 -22.94c6.33,0.41 11.12,5.9 10.71,12.23 -0.41,6.33 -5.9,11.12 -12.23,10.71zm186.63 -99.57l11.68 1.17 -2.44 1.29 -2.59 1.69 -2.77 2.1 -2.94 2.5 -3.09 2.88 -3.24 3.21 -3.38 3.53 -3.54 3.78 -3.7 4.02 -3.88 4.21 -4.08 4.39 -4.3 4.49 -4.51 4.59 -4.77 4.63 -5.04 4.66 -5.33 4.63 -5.63 4.58 -5.96 4.48 -6.31 4.36 -6.69 4.18 -7.06 3.98 -7.46 3.74 -7.87 3.45 -8.3 3.15 -8.75 2.79 -9.19 2.42 -9.67 1.99 -10.14 1.55 -10.65 1.06 -11.14 0.57 -11.68 0.03 -12.2 -0.53 1.5 -22.94 11.18 0.49 10.6 -0.03 10.02 -0.51 9.49 -0.96 8.98 -1.37 8.47 -1.75 8.03 -2.1 7.59 -2.43 7.18 -2.71 6.79 -2.99 6.44 -3.22 6.1 -3.44 5.79 -3.64 5.51 -3.8 5.24 -3.94 5.01 -4.06 4.77 -4.15 4.56 -4.22 4.39 -4.27 4.21 -4.27 4.06 -4.27 3.94 -4.23 3.84 -4.17 3.76 -4.08 3.7 -3.96 3.68 -3.83 3.7 -3.67 3.73 -3.46 3.82 -3.26 3.97 -3 4.17 -2.69 4.38 -2.31 11.68 1.17 -13.66 18.5zm11.68 1.17l-9.7 -20.84c5.75,-2.67 12.6,-0.18 15.27,5.57 2.67,5.75 0.18,12.6 -5.57,15.27zm-22.75 41.31l0 0 0.43 -2.27 0.52 -2.2 0.63 -2.15 0.68 -2.09 0.74 -2.04 0.77 -1.99 0.8 -1.95 0.83 -1.95 0.83 -1.89 0.81 -1.85 0.81 -1.81 0.77 -1.77 0.75 -1.74 0.7 -1.67 0.64 -1.64 0.59 -1.57 0.5 -1.44 0.42 -1.39 0.36 -1.32 0.26 -1.19 0.17 -1.06 0.1 -0.89 0.01 -0.8 -0.03 -0.67 -0.06 -0.49 -0.09 -0.38 -0.12 -0.33 -0.13 -0.27 -0.2 -0.31 -0.3 -0.37 -0.45 -0.45 -0.67 -0.54 13.66 -18.5 2.35 1.92 2.13 2.11 1.88 2.31 1.6 2.49 1.29 2.61 0.96 2.67 0.67 2.7 0.38 2.67 0.13 2.55 -0.07 2.52 -0.24 2.47 -0.39 2.36 -0.5 2.29 -0.58 2.2 -0.66 2.17 -0.74 2.16 -0.77 2.05 -0.8 2 -0.82 1.99 -0.83 1.92 -0.83 1.91 -0.83 1.85 -0.79 1.79 -0.77 1.75 -0.71 1.67 -0.66 1.63 -0.61 1.55 -0.52 1.46 -0.46 1.37 -0.35 1.25 -0.28 1.14 -0.19 1.01 0 0 -22.72 -3.56zm0 0l22.72 3.56c-0.98,6.27 -6.87,10.56 -13.14,9.58 -6.27,-0.98 -10.56,-6.87 -9.58,-13.14zm74.72 97.26l0 0 -4.95 0.25 -4.84 -0.1 -4.73 -0.42 -4.62 -0.76 -4.46 -1.08 -4.3 -1.37 -4.16 -1.66 -3.98 -1.93 -3.8 -2.19 -3.63 -2.45 -3.42 -2.65 -3.22 -2.85 -3.04 -3.04 -2.85 -3.23 -2.64 -3.37 -2.46 -3.51 -2.26 -3.66 -2.08 -3.77 -1.88 -3.87 -1.7 -3.97 -1.5 -4.06 -1.33 -4.13 -1.14 -4.21 -0.95 -4.24 -0.77 -4.3 -0.58 -4.36 -0.38 -4.36 -0.2 -4.39 0 -4.42 0.19 -4.39 0.38 -4.39 0.58 -4.38 22.72 3.56 -0.44 3.34 -0.3 3.37 -0.15 3.39 0 3.38 0.16 3.39 0.3 3.38 0.44 3.34 0.59 3.3 0.73 3.28 0.86 3.19 1.01 3.13 1.14 3.06 1.26 2.95 1.38 2.85 1.5 2.73 1.62 2.6 1.74 2.49 1.84 2.35 1.93 2.19 2.04 2.04 2.14 1.89 2.22 1.73 2.31 1.55 2.42 1.39 2.5 1.23 2.6 1.04 2.74 0.87 2.84 0.68 2.94 0.48 3.09 0.28 3.24 0.06 3.39 -0.17 0 0 1.92 22.92zm0 0l-1.92 -22.92c6.32,-0.53 11.89,4.18 12.42,10.5 0.53,6.32 -4.18,11.89 -10.5,12.42zm37.99 -44.84l16.52 1.37 -1.31 1.22 -1.22 1.24 -1.1 1.22 -1.04 1.27 -1.01 1.33 -0.92 1.3 -0.89 1.37 -0.89 1.43 -0.88 1.48 -0.86 1.48 -0.88 1.57 -0.92 1.62 -0.93 1.63 -0.99 1.69 -1.08 1.74 -1.16 1.77 -1.26 1.78 -1.38 1.8 -1.53 1.79 -1.69 1.75 -1.82 1.7 -2.01 1.64 -2.16 1.53 -2.32 1.43 -2.51 1.32 -2.65 1.17 -2.77 1.02 -2.94 0.9 -3.09 0.77 -3.27 0.64 -3.42 0.49 -3.61 0.38 -1.92 -22.92 2.71 -0.28 2.42 -0.35 2.15 -0.42 1.93 -0.47 1.7 -0.52 1.49 -0.56 1.29 -0.57 1.11 -0.58 1.02 -0.63 0.92 -0.65 0.83 -0.68 0.8 -0.74 0.75 -0.79 0.73 -0.87 0.76 -0.96 0.74 -1.06 0.76 -1.15 0.76 -1.26 0.81 -1.37 0.85 -1.49 0.88 -1.54 0.92 -1.65 1.02 -1.76 1.06 -1.78 1.15 -1.85 1.27 -1.93 1.4 -1.98 1.49 -1.95 1.64 -2.01 1.82 -2.02 1.94 -1.96 2.11 -1.96 16.52 1.37 -17.84 14.5zm16.52 1.37l-15.2 -17.24c4.76,-4.19 12.03,-3.74 16.22,1.02 4.19,4.76 3.74,12.03 -1.02,16.22zm-8.07 15.15l0 0 -1.02 -1.32 -0.89 -1.24 -0.75 -1.06 -0.73 -1.1 -0.67 -1.09 -0.58 -1.04 -0.58 -1.18 -0.55 -1.4 -0.43 -1.53 -0.31 -2.02 0.05 -2.32 0.43 -2.17 0.89 -2.23 0.9 -1.49 0.62 -0.81 0.11 -0.13 -0.44 0.59 -0.67 1.12 -0.66 1.62 -0.45 2.24 0 1.83 0.24 1.4 0.27 0.9 0.18 0.44 0.08 0.14 -0.06 -0.1 -0.22 -0.34 -0.34 -0.5 -0.52 -0.72 -0.62 -0.83 -0.77 -0.99 -0.96 -1.19 17.84 -14.5 1.12 1.39 1.03 1.31 0.9 1.21 0.78 1.08 0.74 1.08 0.64 1.02 0.62 1.06 0.58 1.14 0.54 1.28 0.49 1.62 0.34 1.98 0 2.33 -0.53 2.64 -0.82 1.98 -0.85 1.42 -0.66 0.87 -0.11 0.13 0.4 -0.53 0.7 -1.17 0.75 -1.89 0.35 -1.75 0.03 -1.82 -0.21 -1.42 -0.23 -0.81 -0.21 -0.54 -0.08 -0.16 0.08 0.14 0.17 0.29 0.33 0.48 0.53 0.76 0.61 0.84 0.76 1 0 0 -18.18 14.06zm0 0l18.18 -14.06c3.88,5.02 2.96,12.24 -2.06,16.12 -5.02,3.88 -12.24,2.96 -16.12,-2.06zm13.97 2.28l4.17 11.55 -0.82 -0.63 -0.76 -0.55 -0.61 -0.44 -0.51 -0.33 -0.52 -0.33 -0.35 -0.21 -0.35 -0.19 -0.23 -0.13 -0.08 -0.03 -0.17 -0.07 -0.07 -0.03 -0.13 -0.05 -0.2 -0.07 -0.1 -0.03 -0.47 -0.15 -0.63 -0.22 -0.52 -0.19 -0.75 -0.3 -0.8 -0.37 -0.94 -0.5 -1.03 -0.64 -0.79 -0.56 -0.7 -0.54 -0.77 -0.65 -0.81 -0.75 -0.7 -0.72 -0.68 -0.72 -0.67 -0.76 -0.69 -0.8 -0.75 -0.91 -0.74 -0.93 -0.8 -1.03 18.18 -14.06 0.66 0.83 0.58 0.73 0.47 0.57 0.43 0.5 0.35 0.4 0.26 0.28 0.16 0.16 -0.01 -0.01 -0.01 -0.01 0 0 -0.15 -0.1 -0.39 -0.24 -0.32 -0.18 -0.2 -0.09 -0.15 -0.06 0.08 0.03 -0.01 0 0.19 0.05 0.58 0.19 0.54 0.19 0.65 0.23 0.77 0.31 0.75 0.33 0.94 0.45 0.85 0.45 0.85 0.47 0.95 0.57 0.9 0.57 1.05 0.69 1.07 0.76 1.08 0.79 1.16 0.89 4.17 11.55 -22.46 -4.96zm4.17 11.55l14.12 -18.14c5,3.89 5.9,11.13 2.01,16.13 -3.89,5 -11.13,5.9 -16.13,2.01zm10.24 71.96l0 0 -1.73 -3.03 -1.65 -2.94 -1.54 -2.87 -1.47 -2.8 -1.38 -2.74 -1.29 -2.69 -1.19 -2.63 -1.13 -2.59 -1.04 -2.57 -0.96 -2.55 -0.86 -2.5 -0.79 -2.49 -0.69 -2.5 -0.62 -2.47 -0.53 -2.47 -0.45 -2.47 -0.35 -2.49 -0.28 -2.46 -0.18 -2.45 -0.12 -2.49 -0.03 -2.48 0.04 -2.47 0.11 -2.53 0.2 -2.52 0.24 -2.51 0.31 -2.55 0.36 -2.59 0.43 -2.65 0.48 -2.67 0.51 -2.72 0.58 -2.78 0.61 -2.84 22.46 4.96 -0.57 2.64 -0.52 2.52 -0.47 2.42 -0.42 2.33 -0.35 2.21 -0.3 2.15 -0.25 2.07 -0.2 2.01 -0.14 1.92 -0.09 1.83 -0.02 1.83 0.01 1.76 0.08 1.73 0.14 1.73 0.18 1.7 0.25 1.69 0.31 1.71 0.37 1.75 0.44 1.77 0.51 1.8 0.59 1.85 0.66 1.94 0.74 1.97 0.82 2.03 0.93 2.15 1.01 2.21 1.11 2.29 1.2 2.4 1.31 2.5 1.4 2.59 1.51 2.7 1.61 2.83 0 0 -19.9 11.52zm0 0l19.9 -11.52c3.18,5.49 1.3,12.53 -4.19,15.71 -5.49,3.18 -12.53,1.3 -15.71,-4.19zm234.88 88.04l0 0 -8.11 2.91 -8.2 2.49 -8.24 2.07 -8.33 1.67 -8.36 1.26 -8.37 0.86 -8.4 0.46 -8.38 0.09 -8.39 -0.31 -8.33 -0.68 -8.32 -1.05 -8.26 -1.41 -8.19 -1.78 -8.11 -2.12 -8.02 -2.47 -7.93 -2.81 -7.81 -3.15 -7.69 -3.48 -7.55 -3.8 -7.4 -4.13 -7.23 -4.44 -7.06 -4.75 -6.86 -5.05 -6.69 -5.36 -6.46 -5.66 -6.23 -5.94 -5.99 -6.22 -5.75 -6.51 -5.49 -6.79 -5.2 -7.05 -4.91 -7.31 -4.62 -7.58 19.9 -11.52 4.08 6.7 4.35 6.47 4.6 6.23 4.85 6.01 5.09 5.75 5.31 5.52 5.53 5.26 5.72 5.02 5.91 4.74 6.1 4.49 6.26 4.21 6.41 3.94 6.56 3.65 6.69 3.38 6.81 3.08 6.91 2.79 7.01 2.49 7.08 2.17 7.17 1.88 7.23 1.56 7.26 1.25 7.3 0.91 7.33 0.6 7.33 0.27 7.34 -0.07 7.32 -0.4 7.31 -0.76 7.28 -1.08 7.21 -1.45 7.18 -1.81 7.12 -2.15 7.03 -2.53 0 0 8.3 21.44zm0 0l-8.3 -21.44c5.92,-2.29 12.58,0.65 14.87,6.57 2.29,5.92 -0.65,12.58 -6.57,14.87zm55.01 -299.06l18.44 -1.88 7.33 8.63 6.73 8.99 6.14 9.35 5.54 9.64 4.92 9.9 4.33 10.16 3.72 10.36 3.11 10.53 2.49 10.68 1.88 10.79 1.25 10.87 0.65 10.92 0.02 10.95 -0.6 10.94 -1.24 10.88 -1.86 10.83 -2.5 10.71 -3.14 10.59 -3.78 10.41 -4.43 10.21 -5.07 9.99 -5.74 9.71 -6.37 9.41 -7.04 9.08 -7.7 8.7 -8.34 8.3 -9.01 7.86 -9.65 7.38 -10.31 6.89 -10.95 6.34 -11.59 5.77 -12.24 5.17 -8.3 -21.44 10.94 -4.63 10.31 -5.13 9.69 -5.6 9.07 -6.07 8.49 -6.48 7.87 -6.88 7.3 -7.26 6.72 -7.6 6.12 -7.9 5.57 -8.21 5 -8.47 4.43 -8.71 3.87 -8.93 3.3 -9.11 2.76 -9.27 2.18 -9.39 1.64 -9.51 1.08 -9.58 0.54 -9.62 -0.02 -9.63 -0.57 -9.62 -1.11 -9.57 -1.66 -9.51 -2.19 -9.4 -2.73 -9.25 -3.26 -9.1 -3.81 -8.92 -4.32 -8.7 -4.84 -8.44 -5.38 -8.17 -5.89 -7.87 -6.41 -7.55 18.44 -1.88 -19.82 -11.66zm18.44 -1.88l-17.06 15.42c-4.25,-4.71 -3.89,-11.99 0.82,-16.24 4.71,-4.25 11.99,-3.89 16.24,0.82zm9.42 114.74l0 -0.01 -0.05 -5.34 -0.29 -5.05 -0.51 -4.75 -0.7 -4.49 -0.89 -4.25 -1.03 -4.04 -1.19 -3.81 -1.31 -3.66 -1.41 -3.47 -1.52 -3.32 -1.6 -3.23 -1.66 -3.07 -1.71 -2.99 -1.77 -2.91 -1.78 -2.84 -1.79 -2.78 -1.79 -2.76 -1.76 -2.74 -1.74 -2.78 -1.66 -2.79 -1.58 -2.84 -1.49 -2.96 -1.33 -3.1 -1.14 -3.22 -0.89 -3.4 -0.59 -3.58 -0.21 -3.74 0.23 -3.81 0.67 -3.83 1.12 -3.84 1.55 -3.75 1.96 -3.71 19.82 11.66 -0.98 1.85 -0.67 1.63 -0.42 1.4 -0.21 1.27 -0.07 1.17 0.07 1.18 0.21 1.28 0.39 1.44 0.56 1.6 0.77 1.76 0.97 1.94 1.18 2.12 1.36 2.29 1.52 2.42 1.68 2.6 1.79 2.76 1.89 2.94 1.94 3.1 1.99 3.29 2.01 3.49 1.98 3.69 1.94 3.89 1.88 4.12 1.77 4.37 1.65 4.58 1.49 4.85 1.31 5.08 1.11 5.33 0.88 5.63 0.63 5.87 0.35 6.15 0.07 6.42 0 -0.01 -23 -0.3zm0 -0.01l23 0.32c-0.08,6.35 -5.31,11.42 -11.66,11.34 -6.35,-0.08 -11.42,-5.31 -11.34,-11.66zm-23.36 114.8l-18.68 -12.23 3.01 -2.89 2.86 -2.92 2.71 -2.97 2.59 -3.02 2.45 -3.05 2.34 -3.12 2.22 -3.13 2.09 -3.15 1.97 -3.21 1.87 -3.23 1.76 -3.26 1.63 -3.25 1.54 -3.31 1.45 -3.31 1.33 -3.32 1.25 -3.33 1.14 -3.35 1.07 -3.35 0.97 -3.33 0.88 -3.34 0.8 -3.35 0.73 -3.34 0.64 -3.31 0.57 -3.31 0.5 -3.28 0.43 -3.26 0.35 -3.24 0.3 -3.2 0.24 -3.15 0.17 -3.15 0.12 -3.09 0.06 -3.04 23 0.3 -0.08 3.44 -0.14 3.47 -0.19 3.53 -0.26 3.61 -0.34 3.62 -0.41 3.66 -0.49 3.72 -0.56 3.74 -0.65 3.77 -0.74 3.81 -0.83 3.82 -0.92 3.83 -1.02 3.88 -1.13 3.89 -1.23 3.87 -1.34 3.89 -1.45 3.89 -1.57 3.9 -1.69 3.87 -1.8 3.87 -1.95 3.87 -2.08 3.84 -2.19 3.79 -2.33 3.79 -2.49 3.77 -2.62 3.71 -2.76 3.66 -2.91 3.63 -3.07 3.58 -3.23 3.53 -3.38 3.46 -3.53 3.39 -18.68 -12.23 21.7 7.62zm-18.68 -12.23l15.66 16.84c-4.65,4.32 -11.93,4.06 -16.25,-0.59 -4.32,-4.65 -4.06,-11.93 0.59,-16.25zm2.57 -181.41l17.86 -0.72 6.48 7.79 5.75 7.75 5.07 7.74 4.38 7.7 3.74 7.64 3.11 7.61 2.5 7.54 1.92 7.45 1.38 7.38 0.85 7.26 0.38 7.14 -0.06 7.02 -0.49 6.86 -0.83 6.71 -1.19 6.56 -1.46 6.39 -1.72 6.22 -1.93 6.05 -2.11 5.88 -2.25 5.7 -2.35 5.54 -2.43 5.37 -2.45 5.19 -2.46 5.01 -2.42 4.82 -2.35 4.65 -2.26 4.45 -2.12 4.25 -1.93 4.03 -1.75 3.81 -1.51 3.56 -1.24 3.29 -21.7 -7.62 1.6 -4.23 1.81 -4.28 1.97 -4.31 2.11 -4.37 2.22 -4.45 2.28 -4.51 2.33 -4.61 2.36 -4.7 2.34 -4.77 2.31 -4.87 2.23 -4.93 2.13 -5.02 2.01 -5.1 1.85 -5.16 1.67 -5.23 1.46 -5.3 1.24 -5.37 0.97 -5.4 0.69 -5.49 0.39 -5.54 0.06 -5.6 -0.3 -5.68 -0.69 -5.76 -1.08 -5.84 -1.54 -5.95 -2 -6.06 -2.53 -6.17 -3.08 -6.32 -3.66 -6.44 -4.31 -6.56 -4.97 -6.71 -5.7 -6.83 17.86 -0.72 -18.44 -13.74zm17.86 -0.72l-17.28 15.18c-4.19,-4.77 -3.72,-12.04 1.05,-16.23 4.77,-4.19 12.04,-3.72 16.23,1.05zm-84.92 93.69l-13.34 -17.25 3.5 -1.29 3.37 -1.36 3.26 -1.45 3.12 -1.5 3.02 -1.59 2.91 -1.64 2.81 -1.72 2.73 -1.79 2.65 -1.86 2.57 -1.93 2.51 -2.01 2.46 -2.08 2.39 -2.13 2.35 -2.23 2.32 -2.29 2.28 -2.36 2.25 -2.43 2.23 -2.5 2.21 -2.57 2.19 -2.65 2.2 -2.7 2.17 -2.76 2.2 -2.85 2.19 -2.88 2.21 -2.97 2.23 -3.01 2.25 -3.07 2.29 -3.13 2.32 -3.16 2.35 -3.23 2.41 -3.27 2.45 -3.31 18.44 13.74 -2.39 3.23 -2.37 3.21 -2.33 3.19 -2.32 3.18 -2.29 3.13 -2.29 3.13 -2.29 3.09 -2.29 3.07 -2.31 3.04 -2.32 3.01 -2.35 2.98 -2.38 2.94 -2.41 2.89 -2.47 2.87 -2.51 2.82 -2.57 2.77 -2.62 2.72 -2.7 2.67 -2.77 2.61 -2.87 2.57 -2.94 2.48 -3.03 2.43 -3.15 2.35 -3.23 2.28 -3.35 2.19 -3.45 2.12 -3.57 2.02 -3.68 1.93 -3.82 1.84 -3.92 1.73 -4.07 1.66 -4.2 1.53 -13.34 -17.25 19.1 12.8zm-13.34 -17.25l7.58 21.7c-5.99,2.09 -12.55,-1.07 -14.64,-7.06 -2.09,-5.99 1.07,-12.55 7.06,-14.64zm79.95 -56.56l0 0.01 -2.18 3.97 -2.24 3.83 -2.3 3.66 -2.35 3.5 -2.38 3.34 -2.41 3.22 -2.45 3.08 -2.47 2.94 -2.48 2.82 -2.5 2.7 -2.47 2.57 -2.48 2.48 -2.47 2.37 -2.44 2.27 -2.41 2.19 -2.39 2.11 -2.32 2.02 -2.3 1.96 -2.22 1.88 -2.17 1.85 -2.1 1.77 -2.03 1.73 -1.96 1.7 -1.85 1.64 -1.75 1.6 -1.68 1.59 -1.58 1.57 -1.46 1.52 -1.36 1.51 -1.25 1.49 -1.13 1.46 -1.03 1.46 -19.1 -12.8 1.63 -2.32 1.73 -2.24 1.81 -2.15 1.86 -2.07 1.92 -2 1.96 -1.93 2 -1.91 2.05 -1.88 2.09 -1.84 2.1 -1.82 2.13 -1.83 2.14 -1.81 2.17 -1.83 2.18 -1.84 2.18 -1.88 2.2 -1.9 2.19 -1.93 2.19 -1.99 2.2 -2.05 2.17 -2.09 2.16 -2.16 2.17 -2.25 2.14 -2.32 2.12 -2.4 2.09 -2.5 2.07 -2.6 2.05 -2.72 2.02 -2.84 1.97 -2.96 1.94 -3.08 1.9 -3.23 1.86 -3.39 0 0.01 20.32 10.74zm0 0.01l-20.32 -10.76c2.97,-5.61 9.93,-7.75 15.54,-4.78 5.61,2.97 7.75,9.93 4.78,15.54zm-14.8 -174.05l0 0 3.84 4.91 3.64 4.97 3.41 5.04 3.2 5.08 2.97 5.16 2.75 5.21 2.53 5.24 2.31 5.3 2.09 5.35 1.86 5.38 1.66 5.43 1.41 5.47 1.2 5.49 0.98 5.52 0.76 5.55 0.53 5.58 0.32 5.58 0.1 5.6 -0.12 5.61 -0.34 5.62 -0.55 5.62 -0.76 5.63 -0.98 5.63 -1.18 5.6 -1.39 5.61 -1.6 5.6 -1.81 5.59 -2.01 5.57 -2.2 5.55 -2.41 5.55 -2.61 5.51 -2.8 5.49 -20.32 -10.74 2.48 -4.89 2.31 -4.87 2.11 -4.87 1.94 -4.87 1.75 -4.87 1.57 -4.85 1.38 -4.82 1.19 -4.83 1.02 -4.82 0.84 -4.79 0.64 -4.77 0.47 -4.78 0.28 -4.74 0.1 -4.71 -0.08 -4.72 -0.26 -4.68 -0.45 -4.66 -0.64 -4.63 -0.82 -4.64 -1 -4.61 -1.19 -4.57 -1.38 -4.55 -1.58 -4.56 -1.75 -4.51 -1.97 -4.48 -2.15 -4.48 -2.35 -4.45 -2.55 -4.4 -2.76 -4.4 -2.95 -4.36 -3.16 -4.33 -3.38 -4.29 0 0 17.86 -14.5zm0 0l-17.86 14.5c-4,-4.93 -3.25,-12.18 1.68,-16.18 4.93,-4 12.18,-3.25 16.18,1.68zm-85.86 -29.66l-2.46 -21.64 2.98 0.65 2.96 0.65 2.92 0.67 2.86 0.68 2.85 0.69 2.87 0.74 2.82 0.77 2.78 0.79 2.81 0.86 2.77 0.91 2.77 0.95 2.75 1.03 2.75 1.1 2.77 1.19 2.72 1.26 2.71 1.34 2.73 1.44 2.72 1.55 2.7 1.64 2.69 1.74 2.69 1.86 2.69 1.97 2.69 2.09 2.68 2.21 2.67 2.34 2.69 2.47 2.68 2.59 2.69 2.73 2.7 2.87 2.71 3.02 2.75 3.18 2.75 3.32 -17.86 14.5 -2.47 -3 -2.41 -2.8 -2.39 -2.64 -2.36 -2.51 -2.31 -2.35 -2.26 -2.19 -2.25 -2.07 -2.21 -1.92 -2.2 -1.81 -2.15 -1.69 -2.15 -1.57 -2.15 -1.48 -2.13 -1.38 -2.14 -1.3 -2.12 -1.21 -2.13 -1.12 -2.17 -1.08 -2.18 -1 -2.19 -0.95 -2.23 -0.88 -2.27 -0.85 -2.31 -0.81 -2.35 -0.77 -2.39 -0.72 -2.48 -0.71 -2.5 -0.69 -2.55 -0.64 -2.65 -0.65 -2.72 -0.64 -2.76 -0.63 -2.82 -0.63 -2.92 -0.63 -2.46 -21.64 9.78 20.8zm-2.46 -21.64l-4.86 22.48c-6.2,-1.34 -10.15,-7.47 -8.81,-13.67 1.34,-6.2 7.47,-10.15 13.67,-8.81zm79.31 53.58l0 0 -2.22 -2.3 -2.3 -2.27 -2.36 -2.21 -2.43 -2.16 -2.47 -2.11 -2.53 -2.06 -2.56 -1.97 -2.61 -1.92 -2.64 -1.84 -2.66 -1.75 -2.69 -1.67 -2.69 -1.58 -2.7 -1.49 -2.72 -1.39 -2.7 -1.29 -2.68 -1.18 -2.65 -1.07 -2.64 -0.95 -2.61 -0.84 -2.56 -0.72 -2.51 -0.6 -2.47 -0.48 -2.38 -0.35 -2.33 -0.22 -2.26 -0.11 -2.17 0.02 -2.1 0.14 -2.01 0.25 -1.91 0.38 -1.83 0.48 -1.77 0.61 -1.69 0.71 -9.78 -20.8 3.25 -1.39 3.31 -1.13 3.37 -0.9 3.43 -0.66 3.43 -0.43 3.44 -0.24 3.47 -0.02 3.46 0.15 3.47 0.34 3.46 0.51 3.45 0.66 3.45 0.82 3.42 0.96 3.41 1.1 3.4 1.23 3.37 1.35 3.36 1.48 3.32 1.59 3.28 1.69 3.28 1.79 3.23 1.9 3.19 1.99 3.16 2.09 3.1 2.16 3.07 2.24 3.02 2.33 2.95 2.4 2.89 2.45 2.83 2.54 2.76 2.59 2.7 2.65 2.62 2.7 0 0 -16.72 15.8zm0 0l16.72 -15.8c4.36,4.61 4.15,11.9 -0.46,16.26 -4.61,4.36 -11.9,4.15 -16.26,-0.46zm34.89 82.36l0 0 -0.09 -2.34 -0.15 -2.41 -0.21 -2.45 -0.27 -2.48 -0.32 -2.49 -0.4 -2.55 -0.44 -2.58 -0.51 -2.59 -0.58 -2.61 -0.65 -2.66 -0.69 -2.65 -0.77 -2.64 -0.84 -2.7 -0.9 -2.7 -0.95 -2.67 -1.05 -2.69 -1.1 -2.71 -1.16 -2.67 -1.24 -2.68 -1.32 -2.69 -1.36 -2.64 -1.45 -2.63 -1.52 -2.65 -1.59 -2.6 -1.67 -2.6 -1.72 -2.57 -1.8 -2.53 -1.88 -2.5 -1.95 -2.48 -2.04 -2.44 -2.09 -2.41 -2.18 -2.35 16.72 -15.8 2.58 2.81 2.49 2.85 2.38 2.88 2.31 2.92 2.22 2.96 2.14 3.01 2.04 3.01 1.95 3.04 1.87 3.08 1.78 3.07 1.71 3.11 1.62 3.14 1.52 3.13 1.46 3.14 1.38 3.17 1.28 3.15 1.21 3.15 1.15 3.19 1.04 3.14 0.98 3.12 0.91 3.16 0.83 3.13 0.75 3.1 0.68 3.11 0.61 3.09 0.54 3.06 0.46 3.03 0.4 3.03 0.31 2.98 0.25 2.95 0.19 2.93 0.11 2.9 0 0 -22.98 0.62zm0 0l22.98 -0.62c0.17,6.34 -4.84,11.63 -11.18,11.8 -6.34,0.17 -11.63,-4.84 -11.8,-11.18zm47.46 93.09l0 0 -1.85 -4.44 -1.85 -4.14 -1.87 -3.87 -1.86 -3.64 -1.86 -3.4 -1.85 -3.18 -1.86 -3 -1.83 -2.83 -1.83 -2.67 -1.81 -2.54 -1.8 -2.43 -1.8 -2.33 -1.76 -2.26 -1.77 -2.21 -1.75 -2.17 -1.74 -2.17 -1.71 -2.17 -1.67 -2.18 -1.67 -2.24 -1.63 -2.32 -1.57 -2.38 -1.52 -2.49 -1.44 -2.61 -1.33 -2.73 -1.23 -2.85 -1.1 -2.97 -0.98 -3.11 -0.82 -3.28 -0.67 -3.41 -0.5 -3.53 -0.35 -3.69 -0.18 -3.85 22.98 -0.62 0.14 2.85 0.25 2.63 0.34 2.41 0.43 2.21 0.52 2.04 0.6 1.93 0.68 1.85 0.77 1.77 0.85 1.73 0.94 1.69 1.04 1.73 1.15 1.74 1.25 1.78 1.37 1.84 1.49 1.92 1.57 1.99 1.68 2.09 1.75 2.19 1.85 2.31 1.92 2.44 1.98 2.59 2.04 2.75 2.07 2.9 2.11 3.09 2.13 3.27 2.14 3.48 2.15 3.7 2.16 3.94 2.14 4.16 2.13 4.43 2.11 4.7 2.07 4.98 0 0 -21.34 8.58zm0 0l21.34 -8.58c2.36,5.89 -0.49,12.6 -6.38,14.96 -5.89,2.36 -12.6,-0.49 -14.96,-6.38zm-104.75 232.71l0 0 8.6 -3.49 8.34 -3.86 8.06 -4.24 7.78 -4.6 7.5 -4.94 7.19 -5.27 6.89 -5.6 6.6 -5.9 6.26 -6.18 5.94 -6.46 5.61 -6.71 5.27 -6.97 4.91 -7.18 4.55 -7.41 4.18 -7.6 3.81 -7.8 3.43 -7.97 3.03 -8.12 2.63 -8.28 2.23 -8.39 1.81 -8.51 1.38 -8.61 0.95 -8.69 0.51 -8.76 0.07 -8.84 -0.39 -8.87 -0.85 -8.9 -1.33 -8.92 -1.8 -8.94 -2.3 -8.92 -2.8 -8.9 -3.31 -8.88 21.34 -8.58 3.71 10 3.16 10.04 2.6 10.1 2.04 10.1 1.51 10.1 0.97 10.1 0.43 10.05 -0.07 10 -0.57 9.94 -1.09 9.85 -1.56 9.75 -2.05 9.63 -2.51 9.49 -2.97 9.34 -3.43 9.18 -3.87 8.99 -4.29 8.8 -4.72 8.58 -5.13 8.35 -5.55 8.12 -5.93 7.83 -6.31 7.57 -6.7 7.28 -7.06 6.96 -7.42 6.64 -7.77 6.3 -8.11 5.95 -8.44 5.56 -8.76 5.18 -9.08 4.78 -9.36 4.34 -9.66 3.91 0 0 -8.1 -21.52zm0 0l8.1 21.52c-5.94,2.23 -12.58,-0.77 -14.81,-6.71 -2.23,-5.94 0.77,-12.58 6.71,-14.81zm-187.38 -21.26l13.27 -4.94 4.11 1.43 4.04 1.61 4.02 1.76 4.01 1.9 4 2 4.04 2.08 4.07 2.14 4.11 2.18 4.2 2.19 4.24 2.2 4.32 2.15 4.43 2.12 4.54 2.05 4.64 1.98 4.76 1.86 4.88 1.74 5.03 1.6 5.19 1.44 5.35 1.27 5.52 1.07 5.71 0.84 5.9 0.61 6.13 0.35 6.34 0.07 6.6 -0.24 6.85 -0.55 7.1 -0.92 7.4 -1.29 7.68 -1.69 7.98 -2.13 8.3 -2.57 8.62 -3.05 8.1 21.52 -9.46 3.35 -9.18 2.85 -8.92 2.37 -8.66 1.91 -8.4 1.47 -8.16 1.04 -7.89 0.65 -7.66 0.28 -7.42 -0.09 -7.17 -0.41 -6.94 -0.71 -6.71 -1 -6.48 -1.25 -6.25 -1.47 -6.03 -1.68 -5.81 -1.84 -5.6 -2 -5.4 -2.12 -5.18 -2.2 -5 -2.27 -4.81 -2.3 -4.64 -2.31 -4.46 -2.3 -4.28 -2.25 -4.13 -2.18 -3.97 -2.08 -3.82 -1.98 -3.66 -1.82 -3.51 -1.66 -3.34 -1.48 -3.2 -1.27 -3.03 -1.05 13.27 -4.94 -19.58 -12.04zm13.27 -4.94l-6.96 21.92c-6.05,-1.92 -9.4,-8.39 -7.48,-14.44 1.92,-6.05 8.39,-9.4 14.44,-7.48zm-131.68 84.57l0 0 5.18 -0.54 5.02 -0.62 4.86 -0.71 4.69 -0.78 4.54 -0.88 4.4 -0.96 4.25 -1.06 4.11 -1.16 3.99 -1.27 3.88 -1.38 3.78 -1.48 3.68 -1.6 3.59 -1.73 3.5 -1.84 3.44 -1.99 3.38 -2.13 3.34 -2.28 3.29 -2.43 3.26 -2.61 3.24 -2.77 3.21 -2.95 3.2 -3.15 3.2 -3.34 3.2 -3.54 3.21 -3.76 3.22 -3.97 3.22 -4.19 3.25 -4.42 3.27 -4.66 3.3 -4.9 3.33 -5.15 3.38 -5.38 19.58 12.04 -3.56 5.7 -3.55 5.47 -3.54 5.24 -3.53 5.04 -3.55 4.84 -3.56 4.61 -3.58 4.43 -3.61 4.22 -3.64 4.04 -3.68 3.84 -3.72 3.65 -3.79 3.49 -3.84 3.29 -3.9 3.11 -3.99 2.95 -4.04 2.76 -4.12 2.59 -4.2 2.43 -4.28 2.26 -4.37 2.09 -4.44 1.94 -4.52 1.78 -4.62 1.64 -4.71 1.49 -4.81 1.36 -4.91 1.22 -5 1.1 -5.1 0.98 -5.23 0.88 -5.34 0.77 -5.48 0.68 -5.6 0.58 0 0 -2.18 -22.88zm0 0l2.18 22.88c-6.31,0.6 -11.93,-4.04 -12.53,-10.35 -0.6,-6.31 4.04,-11.93 10.35,-12.53zm-135.22 -76.18l9.41 4.41 3.76 4.73 3.79 4.59 3.79 4.42 3.81 4.26 3.83 4.12 3.84 3.97 3.85 3.79 3.87 3.64 3.88 3.48 3.89 3.31 3.89 3.16 3.91 2.98 3.92 2.83 3.91 2.66 3.94 2.51 3.93 2.33 3.94 2.17 3.94 2 3.96 1.85 3.96 1.68 3.95 1.51 3.97 1.35 3.98 1.18 3.97 1.02 3.99 0.85 4.01 0.69 4.01 0.53 4.03 0.37 4.05 0.2 4.05 0.03 4.08 -0.14 4.11 -0.3 2.18 22.88 -5.03 0.38 -5.04 0.18 -5.01 -0.05 -4.99 -0.24 -4.97 -0.45 -4.93 -0.65 -4.91 -0.85 -4.89 -1.05 -4.85 -1.24 -4.82 -1.44 -4.79 -1.63 -4.75 -1.81 -4.7 -2 -4.68 -2.17 -4.64 -2.36 -4.6 -2.53 -4.55 -2.71 -4.52 -2.87 -4.49 -3.04 -4.44 -3.21 -4.41 -3.38 -4.37 -3.54 -4.33 -3.69 -4.3 -3.86 -4.25 -4 -4.23 -4.17 -4.18 -4.31 -4.17 -4.46 -4.11 -4.62 -4.09 -4.76 -4.05 -4.91 -4.02 -5.05 9.41 4.41 -0.7 -22.98zm9.41 4.41l-18.12 14.16c-3.91,-5 -3.02,-12.23 1.98,-16.14 5,-3.91 12.23,-3.02 16.14,1.98zm-153.58 -37.53l0 0 5.94 4.89 5.76 4.45 5.62 4.04 5.48 3.65 5.32 3.25 5.2 2.91 5.05 2.58 4.92 2.26 4.8 1.96 4.71 1.7 4.58 1.43 4.49 1.19 4.4 0.98 4.32 0.76 4.29 0.6 4.2 0.42 4.15 0.27 4.11 0.12 4.09 0 4.05 -0.1 4.02 -0.21 4.04 -0.28 4.01 -0.35 4 -0.4 4.02 -0.44 4.02 -0.45 4.04 -0.46 4.06 -0.44 4.06 -0.4 4.11 -0.35 4.15 -0.28 4.16 -0.18 0.7 22.98 -3.6 0.16 -3.65 0.24 -3.75 0.33 -3.82 0.38 -3.9 0.42 -3.98 0.44 -4.08 0.47 -4.14 0.44 -4.26 0.44 -4.35 0.37 -4.44 0.32 -4.54 0.23 -4.65 0.12 -4.73 0 -4.85 -0.16 -4.95 -0.31 -5.04 -0.52 -5.13 -0.7 -5.24 -0.94 -5.34 -1.18 -5.45 -1.45 -5.52 -1.73 -5.61 -2.02 -5.7 -2.32 -5.8 -2.66 -5.89 -3 -5.98 -3.35 -6.08 -3.73 -6.16 -4.11 -6.28 -4.5 -6.38 -4.93 -6.48 -5.35 0 0 14.9 -17.5zm0 0l-14.9 17.5c-4.83,-4.11 -5.41,-11.37 -1.3,-16.2 4.11,-4.83 11.37,-5.41 16.2,-1.3zm-55.57 -107.02l-0.08 -2.41 0.57 3.91 0.63 3.9 0.7 3.86 0.77 3.86 0.82 3.83 0.9 3.8 0.98 3.8 1.04 3.76 1.11 3.73 1.19 3.72 1.26 3.67 1.33 3.63 1.42 3.61 1.49 3.58 1.57 3.55 1.64 3.49 1.73 3.45 1.81 3.43 1.9 3.36 1.97 3.34 2.07 3.29 2.15 3.24 2.24 3.19 2.32 3.15 2.42 3.08 2.53 3.06 2.59 3 2.69 2.92 2.81 2.89 2.9 2.84 3 2.77 3.1 2.72 -14.9 17.5 -3.58 -3.12 -3.46 -3.21 -3.34 -3.26 -3.23 -3.33 -3.13 -3.4 -3.01 -3.46 -2.89 -3.5 -2.8 -3.58 -2.68 -3.63 -2.58 -3.67 -2.47 -3.74 -2.37 -3.77 -2.27 -3.82 -2.16 -3.86 -2.07 -3.91 -1.97 -3.93 -1.88 -3.99 -1.77 -4.01 -1.69 -4.02 -1.6 -4.09 -1.51 -4.11 -1.4 -4.13 -1.33 -4.14 -1.25 -4.17 -1.16 -4.2 -1.08 -4.2 -1 -4.24 -0.92 -4.23 -0.85 -4.26 -0.76 -4.28 -0.69 -4.26 -0.63 -4.29 -0.08 -2.41 22.94 1.7zm-0.08 -2.41l-22.78 3.12c-0.86,-6.29 3.54,-12.09 9.83,-12.95 6.29,-0.86 12.09,3.54 12.95,9.83zm-20.32 -33.6l0.14 -1.09 22.8 2.79 -2.54 34.31 -22.94 -1.7 2.54 -34.31zm22.94 1.7l-22.94 -1.7c0.46,-6.33 5.99,-11.08 12.32,-10.62 6.33,0.46 11.08,5.99 10.62,12.32zm0.3 -1.78l-0.03 0.21 0.01 -0.06 0.01 -0.08 0.01 -0.05 -0.12 0.69 0.01 -0.05 0.1 -0.61 -0.01 0.08 -0.1 0.65 -0.02 0.09 0.09 -0.58 -0.07 0.54 -0.02 0.1 0.06 -0.43 -0.08 0.61 -0.02 0.1 -0.01 0.09 -0.02 0.1 0.06 -0.5 -0.07 0.61 -0.03 0.18 -0.03 0.19 0 -0.01 -0.01 0.1 -0.04 0.19 0.08 -0.53 -0.1 0.71 -0.04 0.2 0.08 -0.49 -0.12 0.77 -0.02 0.08 0.09 -0.52 -0.08 0.49 -22.66 -3.88 -0.06 0.35 0.11 -0.68 0.02 -0.08 -0.1 0.61 0.1 -0.65 0 0.02 -0.08 0.53 0.1 -0.71 0 0.01 0.01 -0.1 0.04 -0.19 -0.01 0.01 0.01 -0.02 -0.05 0.41 0.08 -0.68 0.02 -0.1 0.01 -0.09 0.02 -0.1 -0.06 0.43 0.08 -0.61 0.02 -0.1 -0.05 0.36 0.11 -0.74 0.02 -0.09 -0.08 0.49 0.01 -0.08 0.12 -0.77 0.05 -0.21 -0.1 0.55 0.03 -0.19 0.03 -0.2 0.03 -0.18 -0.03 0.21 22.7 3.6zm-0.03 0.21l-22.64 -4.02c1.11,-6.25 7.08,-10.42 13.33,-9.31 6.25,1.11 10.42,7.08 9.31,13.33zm-4.66 -14.41l5.18 10.75 -0.02 0.25 -0.01 0.09 -0.01 0.09 -0.01 0.09 -0.01 0.02 -0.01 0.1 -0.08 0.68 -0.02 0.1 0.06 -0.5 -0.08 0.69 -0.02 0.09 0.06 -0.49 -0.08 0.68 -0.02 0.1 -0.03 0.19 -0.02 0.09 0.08 -0.6 -0.08 0.69 -0.04 0.19 -0.03 0.2 -0.02 0.08 0.09 -0.57 -0.13 0.86 -0.02 0.08 0.1 -0.61 -0.12 0.77 -0.05 0.21 0.1 -0.55 -0.01 0.07 -0.03 0.19 -0.03 0.2 0 -0.03 -22.7 -3.6 0.02 -0.15 -0.01 0.08 -0.01 0.05 0.01 -0.07 0.12 -0.69 -0.01 0.05 -0.1 0.61 0.12 -0.77 0.02 -0.08 -0.11 0.7 0.11 -0.75 0.02 -0.08 -0.01 0.02 0 0.01 -0.06 0.49 0.1 -0.78 0.02 -0.09 -0.01 0.01 0.02 -0.1 -0.06 0.5 0.08 -0.69 0.02 -0.09 -0.06 0.49 0.08 -0.68 0.02 -0.1 -0.06 0.5 0.01 -0.1 0.01 -0.16 0.01 -0.09 0.01 -0.09 0.01 -0.09 0 0.07 5.18 10.75 12.52 -19.28zm5.18 10.75l-22.88 -2.22c0.61,-6.31 6.24,-10.94 12.55,-10.33 6.31,0.61 10.94,6.24 10.33,12.55zm-75.19 -383.43l0 0 -8.39 10.79 -7.73 11.05 -7.04 11.33 -6.38 11.56 -5.72 11.77 -5.04 11.97 -4.36 12.13 -3.7 12.29 -3.02 12.41 -2.35 12.51 -1.67 12.59 -0.99 12.63 -0.31 12.68 0.37 12.69 1.05 12.67 1.74 12.63 2.43 12.59 3.13 12.5 3.8 12.4 4.51 12.27 5.21 12.12 5.91 11.95 6.62 11.77 7.32 11.55 8.04 11.31 8.75 11.04 9.48 10.76 10.2 10.45 10.93 10.13 11.67 9.76 12.4 9.4 13.15 8.98 -12.52 19.28 -14.05 -9.6 -13.3 -10.06 -12.55 -10.5 -11.77 -10.91 -11.02 -11.29 -10.26 -11.66 -9.49 -11.98 -8.74 -12.29 -7.98 -12.57 -7.22 -12.83 -6.45 -13.05 -5.69 -13.26 -4.93 -13.43 -4.18 -13.58 -3.41 -13.7 -2.67 -13.79 -1.92 -13.87 -1.15 -13.91 -0.41 -13.91 0.35 -13.92 1.09 -13.87 1.83 -13.81 2.57 -13.71 3.32 -13.61 4.04 -13.45 4.78 -13.29 5.52 -13.09 6.24 -12.87 6.96 -12.62 7.7 -12.35 8.41 -12.05 9.11 -11.71 0 0 17.78 14.58zm0 0l-17.78 -14.58c4.02,-4.9 11.28,-5.62 16.18,-1.6 4.9,4.02 5.62,11.28 1.6,16.18zm58.88 -63.11l-2.69 11.09 -1.79 1.86 -1.8 1.81 -1.79 1.75 -1.8 1.7 -1.8 1.66 -1.82 1.64 -1.82 1.6 -1.79 1.54 -1.81 1.54 -1.81 1.51 -1.79 1.48 -1.79 1.47 -1.77 1.45 -1.77 1.45 -1.78 1.46 -1.78 1.46 -1.75 1.44 -1.75 1.47 -1.74 1.47 -1.74 1.49 -1.74 1.52 -1.72 1.54 -1.72 1.57 -1.72 1.61 -1.7 1.62 -1.71 1.69 -1.71 1.73 -1.7 1.78 -1.7 1.83 -1.69 1.89 -1.7 1.97 -1.69 2.02 -17.78 -14.58 1.95 -2.34 1.96 -2.25 1.95 -2.19 1.96 -2.11 1.94 -2.04 1.95 -1.97 1.93 -1.91 1.94 -1.86 1.92 -1.79 1.92 -1.75 1.92 -1.7 1.88 -1.64 1.88 -1.63 1.86 -1.57 1.85 -1.55 1.85 -1.52 1.8 -1.48 1.78 -1.46 1.77 -1.45 1.77 -1.45 1.75 -1.43 1.71 -1.42 1.69 -1.41 1.67 -1.42 1.67 -1.44 1.62 -1.42 1.6 -1.44 1.6 -1.48 1.56 -1.48 1.57 -1.53 1.54 -1.53 1.51 -1.58 -2.69 11.09 22.08 -6.38zm-2.69 11.09l-16.7 -15.8c4.36,-4.61 11.64,-4.81 16.25,-0.45 4.61,4.36 4.81,11.64 0.45,16.25zm135.75 -240.71l0 0 -7.93 0.37 -7.89 0.94 -7.85 1.5 -7.78 2.05 -7.71 2.58 -7.59 3.1 -7.47 3.62 -7.33 4.12 -7.15 4.6 -6.95 5.07 -6.74 5.53 -6.49 5.99 -6.24 6.4 -5.94 6.83 -5.62 7.22 -5.3 7.61 -4.93 7.98 -4.56 8.33 -4.15 8.67 -3.72 9 -3.29 9.31 -2.81 9.6 -2.33 9.88 -1.82 10.16 -1.29 10.39 -0.72 10.64 -0.15 10.87 0.44 11.07 1.07 11.28 1.72 11.46 2.39 11.64 3.07 11.81 -22.08 6.38 -3.39 -12.97 -2.63 -12.84 -1.9 -12.68 -1.19 -12.52 -0.5 -12.33 0.17 -12.11 0.82 -11.88 1.43 -11.65 2.04 -11.38 2.61 -11.08 3.17 -10.8 3.69 -10.47 4.2 -10.14 4.69 -9.79 5.14 -9.41 5.59 -9.04 6 -8.63 6.4 -8.2 6.76 -7.77 7.12 -7.32 7.43 -6.85 7.76 -6.37 8.03 -5.85 8.29 -5.34 8.53 -4.8 8.77 -4.24 8.95 -3.66 9.13 -3.06 9.28 -2.43 9.41 -1.8 9.51 -1.14 9.57 -0.45 0 0 0.26 23zm0 0l-0.26 -23c6.35,-0.07 11.56,5.02 11.63,11.37 0.07,6.35 -5.02,11.56 -11.37,11.63zm55.09 -3.43l-12.5 10.97 -1.79 -0.17 -1.77 -0.21 -1.69 -0.25 -1.57 -0.26 -1.57 -0.28 -1.53 -0.32 -1.42 -0.31 -1.42 -0.34 -1.35 -0.34 -1.27 -0.34 -1.29 -0.35 -1.22 -0.35 -1.15 -0.33 -1.21 -0.35 -1.08 -0.32 -1.09 -0.3 -1.08 -0.31 -1.06 -0.27 -1.11 -0.29 -1.03 -0.25 -1.03 -0.23 -1.12 -0.22 -1.16 -0.22 -1.15 -0.19 -1.19 -0.17 -1.24 -0.15 -1.33 -0.14 -1.38 -0.11 -1.45 -0.09 -1.52 -0.06 -1.61 -0.02 -1.71 0 -0.26 -23 2.15 0 2.07 0.04 2.02 0.08 1.91 0.11 1.86 0.15 1.79 0.18 1.74 0.21 1.69 0.25 1.61 0.27 1.52 0.28 1.48 0.3 1.51 0.33 1.43 0.35 1.29 0.33 1.32 0.35 1.24 0.35 1.23 0.34 1.2 0.36 1.09 0.31 1.15 0.33 1.08 0.31 1.05 0.29 1.09 0.28 1.07 0.28 1.04 0.24 1.12 0.25 1.07 0.22 1.11 0.2 1.21 0.2 1.19 0.17 1.21 0.15 1.33 0.13 -12.5 10.97 22.98 0.96zm-12.5 10.97l2.02 -22.9c6.32,0.55 10.99,6.14 10.44,12.46 -0.55,6.32 -6.14,10.99 -12.46,10.44zm49.63 -134.19l0 0 -3.1 3.74 -2.92 3.72 -2.72 3.67 -2.53 3.63 -2.36 3.63 -2.2 3.61 -2.04 3.59 -1.9 3.57 -1.75 3.56 -1.6 3.55 -1.49 3.59 -1.37 3.57 -1.25 3.58 -1.15 3.62 -1.04 3.62 -0.94 3.65 -0.86 3.69 -0.77 3.72 -0.69 3.78 -0.63 3.82 -0.56 3.85 -0.48 3.9 -0.44 3.97 -0.38 4.02 -0.35 4.09 -0.29 4.15 -0.27 4.21 -0.24 4.27 -0.22 4.37 -0.21 4.42 -0.19 4.49 -0.19 4.57 -22.98 -0.96 0.19 -4.59 0.21 -4.55 0.21 -4.5 0.22 -4.45 0.24 -4.45 0.29 -4.39 0.31 -4.37 0.37 -4.35 0.4 -4.32 0.48 -4.31 0.54 -4.3 0.62 -4.27 0.69 -4.26 0.79 -4.24 0.87 -4.24 0.98 -4.25 1.1 -4.23 1.22 -4.22 1.33 -4.22 1.47 -4.22 1.61 -4.21 1.75 -4.19 1.9 -4.21 2.07 -4.22 2.22 -4.19 2.38 -4.19 2.56 -4.19 2.74 -4.21 2.93 -4.21 3.12 -4.21 3.3 -4.2 3.5 -4.22 0 0 17.5 14.92zm0 0l-17.5 -14.92c4.12,-4.83 11.38,-5.41 16.21,-1.29 4.83,4.12 5.41,11.38 1.29,16.21zm241.95 -0.44l0 0 -6.36 -6.28 -6.62 -5.91 -6.84 -5.53 -7.06 -5.14 -7.27 -4.76 -7.45 -4.38 -7.61 -3.97 -7.76 -3.59 -7.89 -3.19 -7.99 -2.78 -8.1 -2.38 -8.18 -1.98 -8.23 -1.57 -8.26 -1.15 -8.3 -0.74 -8.29 -0.31 -8.29 0.11 -8.26 0.52 -8.2 0.95 -8.15 1.39 -8.06 1.8 -7.96 2.26 -7.86 2.67 -7.71 3.12 -7.58 3.57 -7.42 4 -7.23 4.47 -7.05 4.92 -6.84 5.37 -6.62 5.84 -6.38 6.32 -6.13 6.79 -17.5 -14.92 6.99 -7.75 7.32 -7.24 7.6 -6.7 7.88 -6.19 8.11 -5.66 8.35 -5.15 8.56 -4.62 8.72 -4.11 8.91 -3.6 9.04 -3.09 9.16 -2.58 9.26 -2.08 9.33 -1.59 9.4 -1.09 9.44 -0.6 9.45 -0.13 9.47 0.37 9.44 0.84 9.4 1.31 9.35 1.77 9.26 2.24 9.18 2.7 9.07 3.16 8.93 3.61 8.78 4.05 8.61 4.51 8.41 4.94 8.21 5.38 8 5.82 7.74 6.25 7.46 6.67 7.18 7.1 0 0 -16.56 15.94zm0 0l16.56 -15.94c4.4,4.57 4.26,11.85 -0.31,16.25 -4.57,4.4 -11.85,4.26 -16.25,-0.31zm35.71 60.65l0 0 -0.62 -2.01 -0.66 -2.02 -0.68 -2.02 -0.71 -2 -0.75 -2 -0.76 -1.97 -0.81 -1.97 -0.84 -1.99 -0.87 -1.98 -0.88 -1.95 -0.92 -1.92 -0.97 -1.96 -0.98 -1.93 -1.03 -1.92 -1.05 -1.93 -1.09 -1.9 -1.12 -1.89 -1.15 -1.89 -1.2 -1.9 -1.22 -1.87 -1.24 -1.85 -1.28 -1.83 -1.34 -1.85 -1.36 -1.84 -1.4 -1.82 -1.42 -1.81 -1.47 -1.79 -1.5 -1.79 -1.54 -1.78 -1.58 -1.77 -1.62 -1.76 -1.65 -1.74 16.56 -15.94 1.89 2 1.84 2 1.8 2.01 1.78 2.04 1.72 2.05 1.69 2.07 1.66 2.09 1.6 2.1 1.56 2.1 1.52 2.11 1.5 2.15 1.46 2.17 1.4 2.15 1.36 2.16 1.35 2.19 1.28 2.19 1.27 2.22 1.21 2.21 1.19 2.22 1.14 2.25 1.11 2.22 1.08 2.28 1.04 2.27 0.99 2.26 0.96 2.27 0.93 2.29 0.9 2.31 0.85 2.3 0.83 2.32 0.78 2.3 0.76 2.32 0.72 2.33 0 0 -22.02 6.64zm0 0l22.02 -6.64c1.83,6.08 -1.61,12.5 -7.69,14.33 -6.08,1.83 -12.5,-1.61 -14.33,-7.69zm15.81 72.84l-10.84 -10.37 -0.22 -2.51 -0.17 -2.41 -0.13 -2.31 -0.1 -2.27 -0.05 -2.21 -0.03 -2.08 -0.01 -2.04 0.02 -2 0.04 -1.94 0.05 -1.88 0.05 -1.79 0.05 -1.78 0.05 -1.72 0.04 -1.71 0.04 -1.69 0.01 -1.62 0 -1.6 -0.02 -1.62 -0.05 -1.66 -0.07 -1.66 -0.1 -1.66 -0.14 -1.67 -0.17 -1.73 -0.23 -1.8 -0.26 -1.86 -0.31 -1.91 -0.37 -1.95 -0.45 -2.09 -0.5 -2.18 -0.56 -2.25 -0.65 -2.37 -0.73 -2.5 22.02 -6.64 0.83 2.88 0.77 2.79 0.68 2.71 0.6 2.6 0.53 2.53 0.47 2.49 0.39 2.41 0.34 2.3 0.27 2.26 0.23 2.19 0.18 2.17 0.12 2.1 0.09 2.02 0.05 1.96 0.04 1.94 0 1.94 -0.03 1.88 -0.04 1.81 -0.04 1.79 -0.05 1.78 -0.05 1.76 -0.05 1.79 -0.05 1.74 -0.02 1.74 -0.02 1.76 0.01 1.8 0.01 1.86 0.05 1.83 0.08 1.91 0.11 1.99 0.15 2.05 0.18 2.11 -10.84 -10.37 -1.2 22.96zm-10.84 -10.37l22.88 -2.22c0.61,6.31 -4.02,11.94 -10.33,12.55 -6.31,0.61 -11.94,-4.02 -12.55,-10.33zm115.53 12.01l-0.01 0 -5.1 -1.85 -4.84 -1.59 -4.59 -1.38 -4.37 -1.16 -4.15 -0.96 -3.94 -0.78 -3.75 -0.61 -3.54 -0.45 -3.39 -0.3 -3.24 -0.18 -3.1 -0.06 -2.98 0.05 -2.89 0.14 -2.79 0.23 -2.73 0.31 -2.67 0.38 -2.64 0.42 -2.63 0.5 -2.63 0.52 -2.59 0.55 -2.65 0.59 -2.71 0.6 -2.73 0.59 -2.76 0.57 -2.85 0.56 -2.94 0.5 -3 0.45 -3.1 0.37 -3.2 0.27 -3.31 0.16 -3.39 0.03 -3.48 -0.11 1.2 -22.96 2.56 0.07 2.47 -0.01 2.41 -0.12 2.4 -0.21 2.4 -0.29 2.42 -0.35 2.4 -0.42 2.47 -0.48 2.56 -0.53 2.57 -0.55 2.63 -0.58 2.73 -0.61 2.85 -0.61 2.91 -0.58 3.03 -0.56 3.14 -0.52 3.25 -0.46 3.39 -0.37 3.51 -0.29 3.63 -0.18 3.78 -0.07 3.92 0.08 4.04 0.22 4.21 0.38 4.38 0.55 4.53 0.75 4.68 0.92 4.87 1.14 5.05 1.34 5.25 1.56 5.46 1.81 5.68 2.05 -0.01 0 -8.08 21.52zm-0.01 0l8.1 -21.52c5.94,2.23 8.94,8.87 6.71,14.81 -2.23,5.94 -8.87,8.94 -14.81,6.71zm33.77 14.39l7.43 4.33 -1.64 -0.28 -1.57 -0.34 -1.58 -0.4 -1.57 -0.47 -1.46 -0.49 -1.46 -0.53 -1.47 -0.59 -1.39 -0.59 -1.4 -0.63 -1.39 -0.67 -1.34 -0.66 -1.3 -0.67 -1.33 -0.69 -1.32 -0.73 -1.27 -0.69 -1.29 -0.72 -1.28 -0.73 -1.23 -0.7 -1.24 -0.71 -1.22 -0.7 -1.19 -0.67 -1.21 -0.67 -1.18 -0.66 -1.18 -0.63 -1.16 -0.62 -1.16 -0.6 -1.11 -0.57 -1.04 -0.51 -1.1 -0.5 -1.1 -0.49 -1 -0.42 -1.01 -0.39 8.08 -21.52 1.53 0.59 1.52 0.64 1.42 0.63 1.44 0.66 1.48 0.71 1.41 0.71 1.34 0.7 1.36 0.72 1.32 0.73 1.32 0.72 1.29 0.73 1.29 0.73 1.26 0.72 1.22 0.69 1.23 0.7 1.18 0.67 1.15 0.64 1.17 0.65 1.1 0.59 1.09 0.57 1.1 0.57 1.04 0.52 0.99 0.47 0.96 0.43 0.95 0.41 0.87 0.35 0.86 0.31 0.84 0.29 0.71 0.21 0.7 0.18 0.67 0.14 0.6 0.1 7.43 4.33 -18.16 14.1zm7.43 4.33l3.3 -22.76c6.28,0.91 10.64,6.75 9.73,13.03 -0.91,6.28 -6.75,10.64 -13.03,9.73z"/>
    <path id="1" class="fil5" d="M1637.2 2403.99c-22.91,5.32 -60.11,-1.17 -84.45,-10.06l-24.32 -7.79c-0.99,-0.66 -1.7,-0.15 -2.54,-0.12 -8.59,36.2 10.7,99.83 53.58,135.36 41.74,34.59 98.08,40.42 133.51,31.97 -0.81,-21.54 -15.74,-34.16 -8.36,-51.57 13.13,16.46 27.34,109.53 121.12,124.54 65.06,10.4 98.37,-10.59 148.36,-76.69 -21.8,-27.59 -34.47,-37.32 -48.69,-69.49 -26.04,-58.93 7.22,-45.79 -22.8,-63.87 -26.05,31.57 -63.4,37.42 -92.38,14.02 -36.63,-29.56 -29.28,-62.22 -30.9,-90.59 -73.21,66.05 -98.73,53.58 -127.32,66.29 48.42,70.1 89.26,72.27 150.49,54.76 -27.27,23.29 -64.83,24.22 -90.4,17.16 -58.7,-16.22 -65.13,-58.06 -74.9,-73.92zm539.57 -685.7c24.5,31.53 43.29,37.53 62.57,78.61 25.39,54.11 24.1,111.8 -14.8,158.93 -30.66,37.13 -36.56,36.84 -46.19,78.64 -1.52,18.6 1.14,43.74 19.5,64.9 43.88,50.59 77.09,-16.09 126.34,5.07 11.38,4.89 22.56,13.7 29.84,25.28 6.11,9.73 9.89,23.47 7.18,34.4 -13.69,-1.7 -23.6,-9.16 -37.41,1.66 -31.34,24.56 -2.84,72.21 -47.57,112.14 0.8,-9.12 -1.37,-1.47 4.79,-10.94 16.56,-25.46 21.74,-35.02 21.9,-67.3 0.28,-58.78 31.69,-50.46 53.18,-55.07 -41.45,-72.96 -79.19,-26.87 -116.12,-18.67 -48.73,10.83 -77.76,-51.98 -76.19,-90.13 3.51,-85.11 129.21,-104.41 56.9,-245.96 -66.25,-129.68 -259.26,-104.73 -254.15,9.84 1.54,34.49 17.08,24.05 43.59,48.56 37.68,34.85 53.37,90.66 37.01,122.16 -7.38,-20.8 -5.49,-42.71 -16.03,-67.16 -20.05,-46.55 -78.81,-81.01 -126.95,-75.56 -29.26,3.31 -46.45,18.62 -70.15,23.39 51.6,-40.96 88.92,-30.31 123.79,-31.73 0.78,-0.03 2.15,-0.21 2.8,-0.25 0.65,-0.04 1.89,-0.17 2.83,-0.29 -28.07,-65.23 29.29,-87.94 45.47,-111.18 24.09,-34.58 -12.2,-143.06 -107.58,-173.13 -44.89,-14.16 -111.82,-11.05 -158.83,31.94 -39.37,36 -56.35,88.81 -44.55,137.07 3.64,14.89 7.51,10.14 0.73,21.43 -13.66,-2.62 -25.66,-12.97 -40.78,-15.72 -105.6,-19.22 -191.05,145.9 -151.05,223.9 16.68,-8.98 44.96,-15.42 50,-33.89 22.12,-81.03 92.92,-128.57 148.3,-97.18l-20.62 0.29c-57.77,-2.53 -97.34,31.43 -114.55,87.11 -16.44,53.17 -3.48,105.26 48.5,159.45 -12.36,-3.39 -24.36,-16.64 -32.48,-26.7 -8.66,-10.72 -14.56,-20.94 -19.98,-33.93 -13.21,-31.62 -8.18,-45.53 -14.19,-66.98 -248.69,98.92 -175.41,452.35 56.44,467.61 127.82,8.41 156.11,-80.31 192.7,-97.35 17.26,12.74 -3.83,36.23 -6.54,53.51 -6.43,40.97 17.27,87.8 62.4,84.02 34.92,-2.93 28.83,-23.84 47.87,-40.63 11.84,14.57 -1.56,3.58 8.62,16.74 8.08,10.45 5.08,3.2 16.11,11.79 -6.57,29.71 -5.24,43.52 13.13,75.27 44.78,77.39 140.45,114.19 220.78,83.08 126.99,-49.16 145.3,-198.23 69.07,-282.51 -17.75,30.2 30.33,42.82 29.45,107.18 -0.46,34.25 -10.04,77.66 -45.71,110.83 13.82,-39.34 72.81,-104.56 3.96,-182.96 -26.1,35.05 -44,65.1 -85.83,79.7 13.69,-20.43 44.77,-32.65 66,-72.78 29.22,-55.27 26.08,-112.58 -13.57,-161.42 -28.04,-34.54 -50.1,-40.45 -81.82,-47.31 25.95,-12.2 64.67,7.53 90.1,34.44 25.81,27.32 37.26,62.18 38.02,89.95 0.99,36.86 25.82,37.34 46.64,89.11 40.38,100.36 -12.53,210.6 -111.37,247.76 -98.03,36.86 -143.87,-13.99 -181.64,-26 -37.15,60.41 -68.74,79.48 -127.11,85.05 -48.88,4.66 -94.59,-23.15 -135.96,-76.13 -41.34,1.26 -85.04,21.14 -151.97,-35.86 -36.19,-30.82 -53.6,-72.88 -59.59,-116.62l2.54 -34.31c0.13,-0.76 0.31,-2.11 0.42,-2.73 0.1,-0.63 0.31,-1.83 0.4,-2.76 -149.1,-96.75 -169.7,-271.35 -72.64,-389.61 19.44,-23.69 39.16,-34.05 56.73,-52.63 -38.41,-132.85 50.46,-243.28 143.97,-244.31 21.04,-0.23 26.79,6.09 43.73,7.59 2.07,-49.19 3.55,-87.61 39.87,-130.2 68.44,-80.28 188.25,-74.43 258.98,-0.95 19.1,19.84 31.43,42.08 38.44,65.3 8.82,29.23 2.97,39.61 5.4,64.68 32.64,1.71 49.39,-19.73 108.13,2.36 13.5,5.07 26.93,16.38 38.8,18.1z"/>
   </g>
   <path class="fil5" d="M2336.2 2140.6c-12.28,72.05 9.65,-56.65 0,0z"/>
   <path class="fil3" d="M3608.35 1143.58c17.94,-7.46 15.81,-10.49 22.47,-29.38l13.53 29.2c10.34,-29.49 58.49,-159.37 51.53,-173.7 -18.6,18.6 -29.33,58.42 -41.55,84.97 -14.4,31.26 -35.81,60.74 -45.98,88.91z"/>
  </g>
 </g>
</svg>
