<?xml version="1.0" encoding="UTF-8"?>
<!DOCTYPE svg PUBLIC "-//W3C//DTD SVG 1.1//EN" "http://www.w3.org/Graphics/SVG/1.1/DTD/svg11.dtd">
<!-- Creator: CorelDRAW 2017 -->
<svg xmlns="http://www.w3.org/2000/svg" xml:space="preserve" width="61.722mm" height="39.7932mm" version="1.1" style="shape-rendering:geometricPrecision; text-rendering:geometricPrecision; image-rendering:optimizeQuality; fill-rule:evenodd; clip-rule:evenodd"
viewBox="0 0 6172.2 3979.32"
 xmlns:xlink="http://www.w3.org/1999/xlink">
 <defs>
  <style type="text/css">
   <![CDATA[
    .fil0 {fill:none}
    .fil1 {fill:black}
   ]]>
  </style>
 </defs>
 <g id="Capa_x0020_1">
  <metadata id="CorelCorpID_0Corel-Layer"/>
  <rect class="fil0" y="-0" width="6172.2" height="3979.33"/>
  <path class="fil1" d="M3048.83 1946.87c12.29,5 10.53,-8.24 23.89,0 -8.52,12.88 -8.3,15.32 -16.73,27.74 -27.53,-4.37 24.48,-16.61 -19.79,-7.33 -12.88,2.7 -43.13,68.37 -46.87,80.31 51.79,-28.29 92.2,-45.44 152.19,-69.53 69.56,-27.93 109.79,-51.69 91.01,-116.66 -84.36,-45.43 -148.71,40.75 -183.7,85.47zm-34.75 239.71c24.07,-8.9 36.09,-28.24 67.24,-16.11 28.58,11.13 31.25,25.05 71.41,34.68 62.47,14.98 122.44,-18.54 114.43,-77.06 -13.75,-100.52 -239.05,-12.22 -253.08,58.49zm-105.43 -160.84c42.6,-19.85 72,-130.86 99.33,-175.34 16.47,-26.81 20.79,-44.48 12.81,-75.77 -59.35,-17.39 -97.62,23.5 -108.6,81.68 -5.07,26.84 -6.55,61.72 -6.51,91.02 0.07,38.83 -4.58,57.19 2.97,78.41z"/>
 </g>
</svg>
