<?xml version="1.0" encoding="UTF-8"?>
<!DOCTYPE svg PUBLIC "-//W3C//DTD SVG 1.1//EN" "http://www.w3.org/Graphics/SVG/1.1/DTD/svg11.dtd">
<!-- Creator: CorelDRAW 2017 -->
<svg xmlns="http://www.w3.org/2000/svg" xml:space="preserve" width="6.3498mm" height="3.8098mm" version="1.1" style="shape-rendering:geometricPrecision; text-rendering:geometricPrecision; image-rendering:optimizeQuality; fill-rule:evenodd; clip-rule:evenodd"
viewBox="0 0 634.98 380.98"
 xmlns:xlink="http://www.w3.org/1999/xlink">
 <defs>
  <style type="text/css">
   <![CDATA[
    .fil0 {fill:black}
   ]]>
  </style>
 </defs>
 <g id="Capa_x0020_1">
  <metadata id="CorelCorpID_0Corel-Layer"/>
  <path class="fil0" d="M288.41 347.63c-4.33,-0.14 -35.25,-12.21 -39.59,-19.4 -1.14,-1.88 -0.54,-0.96 -1.12,-2.77 -2.02,-2.81 -3.69,-8.43 -2.48,-12.58 2.58,-1.05 0.46,-0.39 2.42,-0.29 5.41,-5.08 9,-4.43 12.37,-13.16 -4.75,-5.93 -3.95,-9.56 -1.77,-18.51 -0.33,-1.68 -1.1,-3.96 -1.67,-5.91 -1.08,-3.71 -0.89,-2.04 -1.18,-5.81 -2.22,-1.84 -3.73,-4.01 -4.14,-7.59 -1.94,-2.11 -2.67,-3.14 -4.3,-5.56 -0.61,-0.9 -0.96,-1.44 -1.48,-2.34 -1.42,-2.46 -0.58,-0.78 -1.33,-2.64l-3.85 -1.15 -0.97 -9.37c-0.74,-2.03 -0.06,0.62 -0.96,-2.75 -0.1,-0.37 -0.36,-1.5 -0.43,-1.88 -0.66,-3.65 -0.29,-1.07 -0.32,-4.14 -2.25,-2.35 -2.31,-4.52 -6.56,-8.18 -2.49,-2.15 -7.05,-5.25 -9.98,-6.8 -8.35,-4.44 -17.25,-4.03 -23.9,-7.5l-4.93 0.63c-1.06,-0.02 -2.39,-0.23 -3.82,-0.29 -4.44,-0.19 -5.37,0.12 -9.58,-0.65 -3.88,1.5 -10.54,1.2 -16.23,0.32 -7.95,-1.24 -12.14,-0.41 -14.15,-6.21 -0.6,-1.1 -1.56,-1.73 -1.12,-5.12 0.25,-1.97 1.37,-3.61 2.3,-5.59 -0.5,-0.27 -2.21,-1.32 -2.59,-1.61l-1.24 -1.51c3.62,-7.46 3.67,-4.73 8.22,-8.79 3.46,-3.09 5.32,-8.4 6.77,-9.53l5.52 -9.37c12.18,1.16 8.74,-0.09 17,-2.33 3.26,-0.89 15.25,-1.8 17.85,-1.73 1.98,-1.56 2.21,-2.54 5.46,-1.86 5.87,-5.21 19.13,-14.36 26.19,-17.25 3.11,5.08 3.58,6.94 12.01,9.91l9.02 2.75c6.26,2.03 8.63,-0.36 12.79,-3.69l6.13 1.93c6.15,2.06 12.47,2.74 17.64,2.51 3,-0.13 4.83,-0.17 8.21,-0.81 3.76,-0.71 4.47,-1.29 7.57,-0.92 1.74,-1.14 0.89,-0.88 2.76,-1.63 2.13,-0.87 0.62,-0.26 3.15,-0.53 2.73,-2.92 8.47,-5.48 12.9,-9.14 3.24,-2.67 8.26,-11.33 12.14,-12.33 3.72,-0.96 28.81,-3.17 32.1,-2.14 2.9,-1.67 1.83,-1.38 5.99,-1.31 3.53,-1 8.57,-1.68 12.18,-0.5 2.69,-1.45 0.79,-0.82 4.44,-1.51 1.03,-0.19 3.1,-0.32 4.56,-0.44 3.82,-0.31 5.96,-0.62 10.06,-0.27l0.37 -0.73 87.88 -8.32c6.82,-0.91 19.54,-2.19 27.69,-2.62l7.53 -0.72 -0.24 0.7c2.01,-1.04 -0.16,-0.69 3.73,-1.27 3.66,-0.54 0.84,-0.24 4.49,0.16l9.79 -0.69c3.86,-1.72 15.84,-2.51 19.24,-2.34l1.29 0.54c2.49,-1.31 0.75,-0.84 4.45,-1.52 2.11,-0.38 2.66,-0.3 4.51,-0.47 4.11,-0.36 5.29,-0.46 9.2,-0.18 1.54,-0.83 3.33,-1.31 5.14,-1.53 0.45,-1.1 1.99,-1.34 3.09,-1.74 8.47,-3.1 13.19,-4.71 21.09,-8.54 0.95,-0.46 3.4,-1.19 5.94,-2 -0.05,-0.27 -0.1,-0.54 -0.14,-0.82l-23.07 6.4c-6.65,2.05 -5.87,5.54 -10.49,2.39 -2.11,-1.44 -2.24,-0.29 -3.67,-1.93 -2.72,-3.12 2.88,-4.12 4.18,-4.54 2.26,-0.72 4.98,-1.82 6.69,-2.89 -4.39,-0.41 -5.99,5.46 -11.45,-0.62 1.69,-2.3 2.17,-1.21 4.43,-3.42 -4.23,-0.88 -3.63,2.89 -8.56,1.19 -0.34,-0.76 -0.57,-1.52 -0.85,-2.33 2.05,-3.19 7.99,-3.97 10.89,-5.69 -1.79,0.43 -4.21,0.66 -5.9,1.06 -2.45,0.58 -3.28,1.9 -5.81,1.9 -0.43,-0.74 -0.95,-1.47 -1.45,-2.48l4.45 -1.22c1.85,1.13 -1.53,-0.63 0.55,0.87 2.41,1.74 -0.59,-1.82 9.66,-5.44 12.26,-4.34 15.63,-4.99 26.98,-8.42 0.33,-0.11 0.69,-0.21 1.06,-0.32l-0.11 -0.97 -15.25 3.93c-2.74,0.73 -4.41,1.89 -6.88,2.59 -2.53,0.72 -3.79,1.47 -6.51,2.43 -1.02,0.36 -2.29,0.88 -3.31,1.11 -8.39,1.96 -7.32,1.22 -8.55,-1.77 4.57,-3.18 26.05,-8.56 25.14,-9.31l-12.6 3.48c-2.14,0.52 -4.61,1.04 -6.38,1.73 -5.01,1.94 -2.68,2.47 -5.91,2.57 1.37,-2.34 0.54,-1.08 2.11,-2.34 1.9,-1.52 -1.26,0.6 1.01,-1.05l1.35 -0.78c-0.93,-1.33 -1.6,-0.84 -2.99,-1.46 1.65,-2.23 4.82,-3.36 7.68,-4.35 2.22,-0.77 4.79,-1.62 7.31,-3.27 -2.19,0.39 -3.65,0.66 -5.57,1.43 -2.33,0.94 -3.44,0.98 -5.5,1.81 -5.55,2.27 -8.69,3.77 -10.25,-0.47 1.15,-1.76 3.59,-2.99 5.19,-4.15 -3.01,0.76 -3.97,0.72 -4,-1.07 2.22,1.25 3.34,0.37 5.68,-1.75 1.54,-1.4 1.57,-0.92 0.5,-3.01 -0.16,0.05 -0.31,-0.01 -0.42,0.13 -0.52,0.69 -3.3,0.8 -4.8,0.69 1.08,-0.9 0.82,-0.79 2.03,-1.5l-0.31 -0.36c-1.4,-0.01 -2.77,-0.06 -4.06,-0.16 -3.46,1.37 -30.35,3.95 -33.57,2.93l-16.4 2.23 -1.79 -0.42c-3.97,1.82 -5.1,1.38 -9.36,1.73 -3.49,0.29 -5.61,0.67 -9.55,0.75 -5.46,1.02 -11.66,1.07 -17.83,1.85 -5.75,0.73 -12.04,1.78 -18.42,1.59 -5.46,1.39 -27.87,3.87 -34.31,3.27l-6.45 -0.01c-2.16,1.08 -0.65,0.75 -3.81,1.4 -0.14,0.02 -2.35,0.23 -2.7,0.26 -3.51,0.3 -2.97,0.31 -6.75,-0.05 -2.02,1.53 -11.88,2.24 -14.97,1.35 -1.52,0.66 -0.98,0.57 -3.09,1.01 -2.33,0.49 2.15,0.21 -2.35,-0.04 -3.54,0.94 -8.7,1.65 -12.18,0.58 -1.78,0.92 -0.6,0.51 -2.73,1.05 -0.28,0.07 -0.65,0.15 -0.93,0.2l-14.59 0.8 -0.03 -0.37c-4.21,2.45 -16.33,2.85 -20.78,2.3 -5.17,3.18 -11.72,2.42 -15.39,-2.95 -3.82,-3.07 -6.42,-5.78 -10.65,-8.31 -4.86,-2.92 -9.5,-4.2 -14.25,-7.41 -2.78,0.6 -0.68,0.36 -4.6,-0.35 -2.15,-0.38 -3.09,-0.73 -5.28,-1.05 -3.51,-0.53 -6.38,-0.57 -10.01,-0.92 -1.57,0.87 -11.23,1.8 -14.06,2.67 -4.45,1.35 -8.04,4.73 -12.55,5.16 -1.67,2.06 -10.4,10.02 -12.51,11.89 -7.03,11.86 -6.45,13.41 -10.28,25.1 -6.9,0.34 -14.64,-1.16 -21.02,-0.61 -7.78,0.68 -12,4.64 -17.19,5.37 -2.31,1.26 1.98,2.33 -4.38,0.33l-11.28 -1.44c-6.19,3.79 -5.3,1.58 -10.66,-1.09 -5.31,-2.64 -5.98,-0.82 -11.2,-2.08 7.54,-15.49 3.41,-15.12 3.57,-26.65 -1.25,-1.25 -1.03,-0.12 -2.2,-3.38 -1.42,-3.95 -0.46,-0.98 -0.39,-3.1 -2.43,-2.83 -1.13,-0.97 -2.7,-4.27 -2.98,-6.24 -4.11,-5.6 -5.25,-10.83 -2.21,-0.95 -1.69,1.29 -1.5,-1.72l-9.89 -11.77 3.18 11.75c2.38,1.65 2.22,3.25 2.37,6.55l-25.09 -18.72 -14.08 -7.22 -14.94 -6.27c-3.73,-0.03 -0.18,-1.2 -0.78,0.62 -0.02,0.06 -0.01,0.94 0.08,0.76 0.11,-0.22 0.12,0.64 0.19,0.95 3.97,1.56 4.59,2.79 7.83,6.01 2.68,2.65 4,3.15 5.2,6.72 4.08,2.15 6,5.59 9,9.19l2.96 4.67c-1.3,0.58 -0.46,0.46 -2.58,0.68l-18.22 -2.41c-2.87,0.72 -9.97,0.1 -13.17,-1.18 -4.37,2.01 -20.35,1.95 -26.06,2.34 -8.46,0.56 -7.76,-0.42 -4.42,2.75l12.81 0.62c-3.21,1.19 -18.23,5.36 -21.46,4.82 -2.11,1.24 -0.56,0.45 -2.81,1.31 -10.79,4.15 -18.41,1.75 -14,5.35 6.88,0.9 15.93,1.17 22.18,4.61 5.26,-1.04 14.77,3.11 20.23,5.14l-9.84 4.22c-1.98,2.12 -0.78,1.23 -4.11,2.82 -2.28,1.09 -2.87,1.22 -4.59,1.53 -3.25,2.69 -6.39,4.2 -11.43,4.34 -1.8,1.67 -2.24,1.92 -5,3.24 -1.06,0.5 -1.94,0.87 -3.14,1.23 -2.02,0.6 -0.94,0.35 -2.19,0.38 -2.3,1.98 -2.82,2.49 -5.76,3.67 -2.31,0.93 -2.93,1.08 -6.16,1.33 -0.72,2.47 -0.33,0.88 0.26,2.47l4.41 1.18c0.34,-0.1 0.79,-0.19 1.04,-0.24 7.8,-1.31 42.74,1.54 46.83,2.81 -4.29,3.06 -18.31,7.47 -18.43,6.59 -0.04,-0.31 -0.73,0.11 -1.1,0.15l-10.33 4.63c4.43,0.64 6.7,-1.16 10.24,0.5 4.73,-2.21 10.33,-2.23 15.54,-1.62l2.32 0.26 5.81 -1.11c2.13,-0.04 3.54,0.04 5.65,0.07 3.85,0.06 6.73,0.03 10.51,0.73l-14.74 8.04c-1.56,5 -2.09,4.41 -5.27,7.52 -6.7,11.33 -3.95,10.43 -4.48,20.41 0.67,0.8 0.32,0.18 1.24,1.88l1.71 5.18 2.92 15.72c-8.09,-2.29 -10.05,-3.59 -14.67,1.98l8.08 1.73c7.55,1.36 0.43,0.05 4.38,3.67 0.26,0.24 0.56,0.51 0.82,0.73 0.28,0.24 0.7,0.52 0.95,0.72 0.25,0.2 1.82,1.15 2.19,1.33 3.53,-1.06 2.03,-0.99 6.33,0.9l-0.46 6.43 -4.72 4.89 4.48 6.16 -8.44 -0.6c-3.08,1.71 -1.74,1.36 -6.12,1.19l-13.3 1.6 -1.94 0.77c-0.26,0.09 -0.65,0.24 -0.94,0.34l-12 2.49c-1.44,1.22 -3.88,2.8 -6.01,3.39 -2.81,4.9 -1.78,1.75 0.49,3.87 1.21,-0.99 1.17,-1.51 4.28,-2.26 4.21,-1 2.61,-0.64 5.49,0.16l7.93 0.37c3.93,-0.36 1.25,-1.28 6.7,-1.28 1.15,-1.07 0.93,-1.46 3.42,-2.06 5.75,-1.4 0.9,-0.61 4.36,0.26 1.77,-0.97 0.72,-0.6 2.81,-1.22l12.39 -0.86 -5.61 15.11 -3.37 13.04c1.64,2.11 2.01,-1.67 0.74,3.93 1.23,5.37 4.3,9.8 1.74,15.36 0.95,2.87 0.66,0.22 0.59,4.76 -0.02,1.22 -0.29,3.82 -0.44,5.05 -0.59,4.71 -1.82,5.19 -3.89,10.03 -1.57,1.49 -0.78,0.9 -3.01,2.12 -4.22,2.29 -0.51,1.08 -4.43,1.38 -6.09,0.46 -0.51,-2.15 -7.84,1.3 -0.28,0.46 -1.92,3.16 -2.36,3.7 -2.13,2.57 -0.17,0.63 -2.44,1.74 -1.58,2.02 0.32,0.16 -2.52,2.28 -1.19,0.89 -1.28,0.81 -2.98,1.97 -3.59,2.45 -1.83,2.73 -5.77,2.96 -4.09,6.79 -1.28,9.58 -1.68,16.72l1.54 3.83c-6.82,2.03 -7.35,-0.83 -14.06,5.69 -2.63,7.72 2.99,14.03 4.48,19.77 6.35,34.3 32.01,32.98 19.35,8.14l2.13 -14.64 4.24 -5.74 10.58 2.42c1.15,-0.33 1.26,-0.35 3.13,-0.57 32.74,-3.91 23.81,-10.26 37.9,-14.5l13.48 -4.78c2.14,-4.86 5.96,-8.96 9.75,-13 2.28,-2.42 3.91,-3.44 5.56,-5.6 2.22,-2.92 1.53,-3.49 3.55,-5.89 3.43,-4.02 4.8,-7.35 9.5,-8.31 2.31,-0.47 8.96,-0.97 11.53,-0.97l5.17 -1.09c0.26,3.31 0.53,5.43 1.04,8.97 0.37,2.56 1.63,6.17 1.65,7.63 2.44,1.73 4.95,3.52 7.64,5.73 1.52,1.26 1.72,1.29 2.81,2.8 1.92,2.66 0.51,-0.18 1.28,2.82 1.92,1.06 1.34,-0.43 1.31,2.26 3.01,3.9 2.72,5.76 4.85,8.84 2.77,4 19.52,12.11 19.84,12.22 3.29,1.09 6.39,0.1 10.63,1.05 4.03,7.9 2.69,6.2 2.37,8.61 5.95,2.44 3.7,2.94 4.25,8.8 0.61,6.52 1.63,2.99 -0.87,10.94 -0.14,6.23 -0.52,5.47 2.49,9.72 7.54,4 11.72,1.8 18.06,1.78 3.32,-1.85 7.85,-0.61 11.78,1.47l4.19 -0.53c57,2.43 70.74,-2.35 36.2,-15.2zm314.96 -247.11c0.5,-0.01 1.13,-0.01 1.98,-0.03l2.94 -0.12c1.04,-0.69 0.56,-0.55 2.8,-0.77l0.98 0.22c4.49,-2.73 1.4,-2.09 4.79,-1.77 -1.05,1.03 -1.78,1.32 -2.46,2.07 0.68,-0.75 1.41,-1.04 2.46,-2.07 -3.39,-0.32 -0.3,-0.96 -4.79,1.77l-0.98 -0.22c1.07,-0.95 2.97,-1.32 6,-3.15l1.05 -0.55c1.29,-0.67 1.22,-0.14 2.04,-1.67l-16.81 6.29zm17.37 -19.55c-0.05,-0.79 -0.08,-1.56 -0.11,-2.27 -4.49,1.27 -2.02,0.62 -5.75,-0.02 -1.85,2.49 1.56,0.52 -1.65,2.01l-9.6 3.13c-0.11,0.04 -0.26,0.12 -0.36,0.16 -2.68,0.99 -2.49,-0.66 -4.11,0.54 -1.98,1.48 1.39,-1.57 -0.51,0.78 -0.72,0.89 -1.23,0.59 -1.74,1.73 -0.06,0.14 -0.31,1.67 -0.37,1.84 4.58,0.6 3.21,-0.36 6.56,-1.31l15.25 -5.47c0.73,-0.31 1.51,-0.71 2.39,-1.12zm-2.75 -28.42l-0.24 -2.1 -0.13 0.1c-2.29,1.68 -13.41,5.68 -13.75,5.86 2.58,-0.57 4.19,-1.32 6.48,-2.17 1.5,-0.56 2.17,-0.41 3.51,-0.6l4.13 -1.09zm-0.78 -6.76l-0.2 -1.78 -1.62 0.6c-1.09,-0.62 -0.69,-0.19 -1.18,-0.97 0.06,-0.11 0.12,-0.3 0.18,-0.53 -0.06,0.23 -0.12,0.42 -0.18,0.53 0.49,0.78 0.09,0.35 1.18,0.97 -2.31,2.1 -2.69,0.48 -5.87,2.79 2.73,0.03 4.78,-1.47 7.69,-1.61zm-28.15 38.38c-0.05,-1.66 -1.37,-0.77 -0.04,-3.03 -0.01,0 -1.17,0.96 -2.01,-0.43 5.12,-2.78 1.67,-0.85 3.81,-1.27 0.95,-0.18 1.75,-1.26 3.21,-0.03 -0.25,0.32 -0.51,-0.14 -1.25,1.78 -1.38,3.62 -0.52,2.09 -3.72,2.98zm-12.96 -35.31c-1.06,-0.34 -0.19,-0.32 -1.18,-0.13 -0.85,2.16 -0.96,2.7 0.22,4.07 2.22,1.25 3.34,0.37 5.68,-1.75 1.54,-1.4 1.57,-0.92 0.5,-3.01 -0.16,0.05 -0.31,-0.01 -0.42,0.13 -0.52,0.69 -3.3,0.8 -4.8,0.69zm2.7 19.64c1.37,-2.34 0.54,-1.08 2.11,-2.34 1.9,-1.52 -1.26,0.6 1.01,-1.05l1.35 -0.78c-0.93,-1.33 -1.6,-0.84 -2.99,-1.46 -1.31,0.19 -3.71,1.74 -4.83,2.89 0.08,0.88 0.32,1.92 1.08,2.58 0.53,0.46 0.06,0.35 1.04,0.52 1.04,0.18 1.2,-0.34 1.23,-0.36z"/>
 </g>
</svg>
