<?xml version="1.0" encoding="UTF-8"?>
<!DOCTYPE svg PUBLIC "-//W3C//DTD SVG 1.1//EN" "http://www.w3.org/Graphics/SVG/1.1/DTD/svg11.dtd">
<!-- Creator: CorelDRAW 2017 -->
<svg xmlns="http://www.w3.org/2000/svg" xml:space="preserve" width="50.7998mm" height="33.8666mm" version="1.1" style="shape-rendering:geometricPrecision; text-rendering:geometricPrecision; image-rendering:optimizeQuality; fill-rule:evenodd; clip-rule:evenodd"
viewBox="0 0 5079.98 3386.66"
 xmlns:xlink="http://www.w3.org/1999/xlink">
 <defs>
  <style type="text/css">
   <![CDATA[
    .str0 {stroke:#373435;stroke-width:7.62;stroke-miterlimit:22.9256}
    .fil0 {fill:none}
    .fil6 {fill:#FEFEFE}
    .fil4 {fill:#3E4095}
    .fil8 {fill:black}
    .fil5 {fill:#010101}
    .fil1 {fill:#020202}
    .fil2 {fill:#FBFBFB}
    .fil7 {fill:white}
    .fil9 {fill:#373435;fill-rule:nonzero}
    .fil3 {fill:#373435;fill-rule:nonzero}
   ]]>
  </style>
 </defs>
 <g id="Capa_x0020_1">
  <metadata id="CorelCorpID_0Corel-Layer"/>
  <polygon class="fil0" points="-0,0 5079.99,0 5079.99,3386.66 -0,3386.66 "/>
  <path class="fil1" d="M1612.85 1945.36c-123.07,293.71 -106.27,533.62 0,739.12 48.47,89.06 53.76,169.82 104.44,237.53 59.7,79.76 102.42,103.03 177.36,160.31 96.47,-205.27 -109.45,-179.82 -186.45,-293.6 -36.42,-53.83 -56.54,-148.96 -11.74,-213.15 30.46,-43.63 125.06,-23.6 204.44,-21.23 83.25,92.32 69.24,169.42 226.08,166.7 202.33,-3.52 125.08,-130.63 226.55,-187.49 122.64,25.66 42.63,157.2 207.98,187.35 162.15,29.56 219.86,-45.1 246.64,-173.59l142.04 168.99c79.54,-86.38 64.37,-196.17 60.15,-326.45 -8.52,-263.34 46.21,-237.93 -202.76,-578.84 -47.59,-65.19 -27.65,-60.5 -114.57,-91.42 -125.9,-44.78 -61.36,-14.64 -92.58,-64.49l-427.39 10.31 82.17 -138.71c-89.8,35.05 -76.06,66.89 -144.13,120.67 7.18,-33.43 15.11,-48.85 20.38,-77.83l-4.49 -82.16c-60.91,92.6 -52.38,135.86 -56.3,269.03 -86.62,-19.34 -197.89,-26.9 -282.53,5.25 -134.3,51.01 8.04,23.02 -175.29,183.7zm1535.49 175.27c3.26,-19.8 20.46,-47.02 35.38,-63.33l14.05 -16.65c0.84,-0.56 0.68,-1.29 0.93,-1.96 -25.76,-18.54 -82.21,-24.01 -124.17,-1.74 -40.84,21.67 -63.75,64.2 -68.61,94.89 17.25,6.37 32.06,-1.31 43.39,10.17 -17.26,5.01 -95.26,-14.05 -137.58,55.04 -29.36,47.93 -23.62,81.02 12.25,141.93 28.85,-8.23 40.64,-15.05 70.63,-15.81 54.93,-1.38 33.77,20.58 57.78,2.77 -16.43,-30.8 -8.9,-62.15 18.97,-77.41 35.22,-19.27 58.58,-2.86 81.48,5.09 -28.28,-79.21 -10.15,-95.29 -10.89,-121.96 -71.02,15.4 -86.01,46.89 -92.1,100.88 -9.5,-29.08 1.97,-59 15.86,-76.87 31.86,-41.02 66.94,-32.49 82.63,-35.04zm365.37 648.4c-32.83,9.06 -43.67,21.94 -82.33,23.79 -50.93,2.43 -96.01,-17.33 -120.52,-63.33 -19.32,-36.25 -17.18,-40.81 -47.02,-61.99 -14.16,-7.25 -34.85,-13.32 -57.51,-5.72 -54.15,18.16 -12.37,66.02 -45.06,97.99 -7.55,7.38 -18.14,13.34 -29.63,15.31 -9.67,1.66 -21.74,0.18 -29.47,-5.52 5.8,-10.24 14.9,-15.63 10.85,-30.04 -9.18,-32.69 -56.02,-25.71 -72.97,-73.97 6.94,3.6 1.6,-0.6 7.07,7.34 14.7,21.33 20.55,28.52 45.96,39.14 46.26,19.33 29.48,41.4 26.14,59.85 71.01,-8.98 46.93,-53.72 52.46,-85.52 7.31,-41.94 66.27,-44.42 95.84,-30.78 65.98,30.44 40.35,135.83 175.47,124.83 123.81,-10.1 166.87,-170.42 74.86,-203.63 -27.71,-10 -24.52,5.65 -52.47,18.59 -39.73,18.39 -88.83,12.62 -108.36,-10.52 18.8,0.94 35.47,9.55 58.17,9.19 43.24,-0.69 89.51,-35.83 100.85,-75.56 6.91,-24.16 0.42,-42.68 4.36,-62.92 15.53,54 -5,79.97 -15.21,107.93 -0.23,0.63 -0.54,1.76 -0.71,2.29 -0.19,0.53 -0.49,1.55 -0.69,2.33 60.56,-0.93 59.82,51.68 72.88,72 19.45,30.24 116.79,36.88 171.51,-28.56 25.76,-30.81 45.06,-84.6 26.44,-135.65 -15.6,-42.74 -51.72,-73.3 -93.61,-79.69 -12.93,-1.96 -10.44,2.64 -17.14,-6.38 6.51,-9.93 18.57,-16.02 25.65,-27.05 49.48,-77.04 -52.96,-198.09 -127.48,-191.9 1.67,16.07 -2.44,40.47 10.48,50.44 56.72,43.79 71.19,115.08 28.44,148.54l6.47 -16.35c20.78,-44.74 6.85,-86.98 -31.47,-118.65 -36.58,-30.25 -81.87,-36.96 -141.5,-13.58 6.69,-8.65 21.03,-13.8 31.61,-16.94 11.27,-3.34 21.25,-4.67 33.26,-4.73 29.23,-0.13 38.56,8.35 57.43,10.58 2.82,-228.27 -299.72,-285.36 -387.11,-107.48 -48.19,98.07 12.59,149.22 14.14,183.6 -15.67,9.48 -27.34,-14.79 -40.08,-22.54 -30.21,-18.39 -74.85,-14.92 -86.54,21.9 -9.04,28.49 9.43,30.49 16.48,50.96 -15.34,4.6 -2.32,-2.4 -16,1.36 -10.87,2.97 -4.18,2.96 -14.54,8.87 -21.29,-14.84 -32.61,-18.29 -63.63,-14.11 -75.58,10.16 -135.7,73.64 -137.28,147.1 -2.5,116.12 109.11,179.01 200.34,146.29 -18.04,-23.81 -43.62,10 -94.09,-11.6 -26.86,-11.5 -57.98,-33.16 -72.55,-72.08 26.54,23.69 58.8,91.41 143.01,62.59 -19.16,-31.97 -37.04,-55.86 -34.96,-93.59 11.66,17.44 11.2,45.92 35.95,75.71 34.08,41 80.3,57.16 131.7,41.77 36.35,-10.89 48.19,-26.37 63.9,-49.14 1.19,24.42 -26.95,48.54 -56.45,59.85 -29.92,11.47 -61.14,9.17 -83.29,0.74 -29.39,-11.19 -37.83,8.22 -85.43,7.82 -92.28,-0.78 -162.01,-78.34 -159.19,-168.36 2.8,-89.29 57.8,-108.91 79.55,-134.79 -35.57,-48.93 -40.34,-80.04 -25.76,-127.89 12.22,-40.06 49.01,-67.07 104.23,-82.48 12.45,-33.01 10.98,-73.93 77.68,-108.19 36.07,-18.51 74.89,-18.57 111.35,-9.08l26.22 13.15c0.55,0.35 1.56,0.93 2.02,1.22 0.46,0.29 1.34,0.84 2.04,1.22 124.76,-86.14 269.15,-45.63 330.87,69.35 12.36,23.03 14.12,41.95 23.06,61.85 117.26,12.89 175.46,118.86 145.87,192.94 -6.66,16.67 -13.52,19.15 -20.2,32.03 38.12,17.62 67.94,31.27 89.72,73.75 41.06,80.08 -2.49,172.66 -83.43,204.55 -21.85,8.61 -43.4,11.11 -63.99,9.09 -25.92,-2.55 -32.21,-10.54 -52.77,-16.77 -11.96,25.19 -0.49,45.36 -37,84.51 -8.39,9 -21.67,15.91 -26.89,24.72z"/>
  <path class="fil2" d="M2010.71 2108.37l-68.67 60.1c-72.44,68.47 -147.08,196.1 -137.93,337.68 265.17,-59.12 195,-183.29 378.92,-133.55 139.02,37.6 208.56,214.88 343.22,-3.06 -96.67,-82 -153.64,-3.99 -378.46,-289.37l-137.08 28.2z"/>
  <path class="fil2" d="M2063.44 2446.08c-148.93,79.2 -17.74,288.22 130.66,197.72 128.21,-78.18 10.93,-273.03 -130.66,-197.72z"/>
  <path class="fil2 str0" d="M2668.24 2432.98c-228.06,-25.94 -215.34,196.69 -84.19,224.22 71.22,14.95 123.01,-25.75 143.76,-78.93 28.52,-73.11 -23.65,-108.19 -59.57,-145.29z"/>
  <g>
   <path class="fil3" d="M3134.27 3000.4l-6.36 -13.12 10.44 7.23 -0.58 3.61 -1.05 3.43 -1.47 3.21 -1.87 2.98 -2.2 2.69 -2.47 2.43 -2.72 2.17 -2.93 1.95 -3.12 1.72 -3.28 1.51 -3.42 1.33 -3.55 1.15 -3.7 0.99 -3.81 0.84 -3.89 0.67 -3.98 0.52 -4.06 0.39 -4.13 0.24 -4.16 0.1 -4.19 -0.03 -4.2 -0.16 -4.24 -0.3 -4.21 -0.43 -4.17 -0.56 -4.15 -0.69 -4.08 -0.81 -4.03 -0.94 -3.95 -1.08 -3.85 -1.19 -3.74 -1.35 -3.62 -1.46 -3.48 -1.61 6.42 -13.08 2.84 1.31 3.02 1.22 3.18 1.13 3.31 1.03 3.45 0.94 3.53 0.82 3.62 0.73 3.69 0.61 3.73 0.5 3.75 0.39 3.76 0.26 3.76 0.14 3.73 0.03 3.68 -0.08 3.61 -0.22 3.54 -0.33 3.42 -0.46 3.31 -0.57 3.15 -0.68 3 -0.81 2.81 -0.91 2.62 -1.01 2.4 -1.11 2.14 -1.18 1.89 -1.25 1.64 -1.31 1.37 -1.35 1.12 -1.37 0.89 -1.4 0.67 -1.45 0.47 -1.53 0.26 -1.67 10.44 7.23zm-10.44 -7.23c0.37,-4 3.93,-6.96 7.93,-6.59 4,0.37 6.96,3.93 6.59,7.93l-14.52 -1.34zm-87.36 9.58l-6.42 13.08 1.07 -13.51 2.99 -0.82 2.85 -0.61 2.73 -0.39 2.63 -0.21 2.51 -0.03 2.38 0.12 2.28 0.26 2.13 0.35 2.04 0.41 1.97 0.46 1.87 0.48 1.79 0.46 1.78 0.43 1.8 0.41 1.8 0.36 1.85 0.3 1.96 0.22 2.09 0.15 2.24 0.04 2.43 -0.07 2.66 -0.2 2.9 -0.36 3.16 -0.54 3.46 -0.74 3.77 -0.95 4.11 -1.2 4.45 -1.46 4.82 -1.74 5.21 -2.04 5.61 -2.36 6.04 -2.71 6.48 -3.06 6.36 13.12 -6.74 3.18 -6.32 2.83 -5.93 2.5 -5.57 2.18 -5.2 1.88 -4.89 1.6 -4.59 1.34 -4.29 1.09 -4.02 0.86 -3.8 0.64 -3.56 0.44 -3.34 0.26 -3.13 0.09 -2.96 -0.06 -2.77 -0.19 -2.6 -0.3 -2.45 -0.38 -2.28 -0.46 -2.1 -0.47 -1.98 -0.49 -1.87 -0.48 -1.73 -0.44 -1.59 -0.38 -1.56 -0.31 -1.51 -0.25 -1.46 -0.16 -1.5 -0.08 -1.55 0.01 -1.65 0.13 -1.79 0.27 -1.97 0.41 -2.17 0.6 1.07 -13.51zm-1.07 13.51c-3.84,1.18 -7.93,-0.99 -9.11,-4.83 -1.18,-3.84 0.99,-7.93 4.83,-9.11l4.28 13.94z"/>
   <path id="1" class="fil4" d="M3033.26 3009.29c32.85,16.13 95.14,13.5 97.83,-15.45 -72.83,35.26 -69.37,6.73 -97.83,15.45z"/>
  </g>
  <g>
   <path class="fil3" d="M2404.04 2993.6l0 0 0.55 -4.1 0.43 -3.22 0.32 -2.41 0.23 -1.7 0.14 -0.98 -0.01 0.07 14.47 1.7 -0.09 0.76 -0.17 1.19 -0.2 1.54 -0.25 1.88 -0.29 2.14 -0.31 2.35 -0.33 2.5 -0.35 2.56 -0.34 2.61 -0.35 2.55 -0.32 2.46 -0.32 2.31 -0.27 2.07 -0.24 1.79 -0.19 1.44 -0.14 1.08 -0.09 0.61 -14.46 -1.89 0.07 -0.51 0.15 -1.16 0.26 -1.9 0.35 -2.63 0.46 -3.45 0.58 -4.36 0.71 -5.3 14.46 1.94 -0.71 5.3 -0.58 4.34 -0.46 3.47 -0.37 2.65 -0.24 1.84 -0.15 1.16 -0.07 0.53 -14.44 -2.03 0.07 -0.55 0.14 -1.04 0.19 -1.46 0.24 -1.81 0.29 -2.09 0.3 -2.27 0.32 -2.46 0.35 -2.57 0.34 -2.59 0.35 -2.58 0.33 -2.48 0.31 -2.35 0.29 -2.16 0.25 -1.88 0.22 -1.56 0.15 -1.15 0.09 -0.68 14.53 1.26 -0.09 0.77 -0.14 0.98 -0.21 1.64 -0.32 2.43 -0.43 3.24 -0.55 4.1 0 0 -14.46 -1.94zm0 0l14.46 1.94c-0.53,3.99 -4.21,6.79 -8.2,6.26 -3.99,-0.53 -6.79,-4.21 -6.26,-8.2z"/>
   <path id="1" class="fil4" d="M2411.27 2994.57c-8.26,61.79 6.49,-48.59 0,0z"/>
  </g>
  <path class="fil5" d="M2039.51 2147.26l-4.19 0c0.28,7.08 3.65,11.4 6.4,16.85 2.95,5.83 5.68,9.91 8.65,15.91 4.19,8.47 14.38,24.03 16.39,32.73l-35.5 13.65c1.6,5.85 6.12,9.29 9.55,13.68l55.63 64.46c5.18,5.41 19.59,22.27 26.28,22.86 -0.22,-9.2 -23.5,-62.87 -29.97,-75.02 3.25,-1.67 8.81,-3.39 13.1,-4.63 6.05,-1.74 8.61,-1.33 12.78,-4.97 -0.17,-6.95 -3.25,-10.27 -5.65,-16.19 -2.11,-5.23 -4.5,-9.26 -6.85,-15.01 -2.09,-5.14 -4.37,-9.14 -7.07,-14.73l-17.65 -36.95c-4.47,-9.29 -13.02,-8.43 -32.81,-10.86 -1.41,-0.17 -3.74,-0.3 -4.92,-0.51l-2.21 -0.51c-0.3,-0.08 -0.77,-0.29 -1,-0.36 -0.23,-0.07 -0.67,-0.21 -0.96,-0.4z"/>
  <path class="fil6" d="M2481.9 3066.63c1.25,-5.94 2.29,-5.3 2.33,-12.55 0.12,-15.25 1.1,-4.05 -2.16,-13.39l-9.24 33.15 1.3 -17.14c0.13,-0.97 0.49,-2.37 0.63,-3.35 0.14,-0.98 0.47,-2.37 0.6,-3.35l0.25 -34.1c9.71,4.83 9.65,7.43 12.12,21l0.27 17.38c-0.23,0.94 -0.76,2.33 -1.06,3.22 -0.66,1.87 -3.96,7.44 -5.04,9.13z"/>
  <path class="fil6" d="M2464.53 3081.54l-10.91 -14.68 -0.76 -13.55 7.95 16.71 4.63 -23.74c0.26,1.09 -0.11,1.98 0.64,3.29 0.74,1.28 0.47,2.61 0.48,3.25l-2.03 28.72z"/>
  <polygon class="fil6" points="2451.94,3055.27 2450.51,3060.97 "/>
  <path class="fil6" d="M2513.81 3071.9l-13.14 0.6c1.1,-0.65 2.02,-2.81 3.4,-1.83 1.25,0.88 2.72,-0.94 3.36,-0.87l6.38 2.1z"/>
  <path class="fil6" d="M2537.7 3070.89l-13.35 0.18c13.16,-7.04 4.05,-5.25 13.35,-0.18z"/>
  <polygon class="fil6" points="2577.73,3064.75 2555.44,3067.86 "/>
  <path class="fil6" d="M2412.23 3064.67l-4.64 23.74 -7.95 -16.72c5.91,-19.24 -1.37,-10.93 -1.5,-32.37l5.02 -31.47c12.35,18.03 7.9,38.2 9.07,56.82z"/>
  <path class="fil6" d="M3052.75 2939.98c9.46,1.37 15.45,1.63 22.74,3.77 -30.9,6.65 -75.11,-2.65 -91.81,-19.87 15.96,5.28 31.92,10.56 47.87,15.84l21.2 0.26z"/>
  <path class="fil6" d="M3062.2 2969.49l14.38 -5.24c-23.47,8.04 -29.34,-3.93 -48.68,5.83 -3.78,-8.9 -1.69,-8.32 -6.33,0.15 -9.69,-6.07 0.79,-8.49 -12.88,-0.09 -11.72,-6.64 1.84,-5.03 -9.13,0.89l-12.1 -4.82c-8.44,-2.51 -1.99,-0.11 -11.97,-2.77l81.05 -5.93c29.92,8.95 90.43,-9.98 113.48,-22.96 -23.69,47.04 -55.82,35.58 -107.82,34.94z"/>
  <path class="fil6" d="M3135.34 2980.41c-1.46,0.15 -5.12,0.98 -6.05,0.95 -10.76,-0.29 -1.86,1.64 -12.87,-1.7 20.55,-6.46 22.77,-6.07 18.92,0.75z"/>
  <path class="fil6" d="M2966.2 2971.29c1.15,-5.44 2.09,-4.85 2.13,-11.49 0.11,-13.96 1,-3.72 -1.98,-12.27l-8.46 30.37 1.19 -15.7c0.12,-0.89 0.46,-2.18 0.58,-3.07 0.13,-0.9 0.43,-2.17 0.54,-3.07l0.24 -31.24c8.89,4.43 8.84,6.81 11.1,19.23l0.24 15.92c-0.21,0.86 -0.7,2.15 -0.97,2.96 -0.6,1.71 -3.63,6.82 -4.61,8.36z"/>
  <path class="fil6" d="M2950.28 2984.94l-9.99 -13.44 -0.7 -12.41 7.29 15.31 4.24 -21.74c0.23,0.99 -0.1,1.81 0.59,3 0.68,1.17 0.43,2.4 0.43,2.98l-1.86 26.3z"/>
  <polygon class="fil6" points="2938.75,2960.88 2937.44,2966.11 "/>
  <path class="fil6" d="M2995.43 2976.12l-12.05 0.55c1.02,-0.6 1.85,-2.58 3.13,-1.68 1.14,0.81 2.48,-0.85 3.08,-0.8l5.84 1.93z"/>
  <path class="fil6" d="M3017.31 2975.19l-12.23 0.16c12.05,-6.44 3.72,-4.8 12.23,-0.16z"/>
  <polygon class="fil6" points="3053.98,2969.57 3033.56,2972.42 "/>
  <path class="fil6" d="M3085.5 2982.79l-25.2 -0.71c-0.8,0.02 -2.38,0.18 -3.57,0.15 13.64,-2.4 17.09,-6.26 28.77,0.56z"/>
  <path class="fil6" d="M3107.52 2981.79c-10.89,3.97 -4.96,2.85 -13.17,-0.83l10.32 -1.18c0.69,0.2 1.94,1.29 2.85,2.01z"/>
  <path class="fil6" d="M3154.63 3115.06l-11.73 -11.69 23.35 -23.87 16.28 4.89c-12.18,15.85 -10.11,16.96 -27.9,30.67z"/>
  <path class="fil6" d="M3134.42 3087.95c14.39,-10.16 11.39,-19.1 25.3,-10.98 -2.44,10.74 -12.63,15.52 -21.04,19.22l-4.26 -8.24z"/>
  <path class="fil6" d="M3046.55 2785.34c75.48,-10.43 -59.37,8.19 0,0z"/>
  <path class="fil6" d="M3116.33 2877.72c9.27,4.3 19.84,6.71 18.16,26.82 -19.35,22.9 -46.29,19.25 -71.17,19.18 -25.88,-0.07 -44.54,5.83 -67.43,-14.17 -9.27,-4.3 -19.85,-6.7 -18.17,-26.82 19.36,-22.9 46.3,-19.24 71.18,-19.17 25.87,0.06 44.55,-5.85 67.43,14.16z"/>
  <path class="fil6" d="M3003.33 2900.25c22.26,19.06 65.92,15.59 90.97,9.36l6.88 2.02 7.34 -3.51 18.42 -12.61 -7.81 -9.12 -10.24 0.64c-22.27,-19.07 -65.92,-15.59 -90.98,-9.36l-6.89 -2.02 -7.32 3.51 -18.42 12.61 7.81 9.11 10.24 -0.63z"/>
  <path class="fil6" d="M2659.94 3077.62l-6.39 0.23c0.66,-0.13 2.08,-0.35 6.39,-0.23z"/>
  <path class="fil6" d="M2902.3 3080.01c-0.08,-0.58 -0.16,-1.16 -0.25,-1.76 -7.59,-12.88 -17.71,-15.07 -29.41,-14.98 -35.07,0.27 -18.93,9.28 -28.56,-1.97 -5.58,4.96 -1.83,4.93 -9.42,5.68 -2.68,0.26 -4.81,0.21 -7.03,0.71l-0.47 3.54 -39.06 6.12 1.31 -4.38 -129.03 4.63c1.43,-0.14 4.77,-0.87 6.19,-1.02 4.19,-7.44 1.77,-7.87 -20.66,-0.82 4.59,1.4 6.01,1.95 6.66,2.12l-13.01 0.47 -3.63 -0.47c-0.96,-0.77 -2.17,-1.78 -2.84,-1.99l-8.54 0.98c-6.7,-0.33 -11.55,0.01 -15.29,0.75 -10.54,-5.21 -14.81,-1.46 -28.52,0.95 1.3,0.03 3.02,-0.14 3.89,-0.16l19.83 0.56c-13.46,5.08 -10.19,16.21 -70.96,4.07l-8.99 0.09 -22.29 3.12c-5.98,4.5 -3.74,4.82 -6.18,-2.56 -6.15,8.67 -4.09,10.47 -6.9,0.17l-4.65 5.41 -13.35 0.18c-12.23,7.54 0.76,-13.1 -10.54,0.84l-13.14 0.6c-17.34,3.94 -3.14,3.86 -18.77,-5.88 1.25,-5.94 2.28,-5.28 2.33,-12.55 0.11,-15.24 1.1,-4.05 -2.17,-13.39l-9.23 33.16 -8.31 7.7 -10.91 -14.68 -3.11 -5.9 1.44 -5.7c-5.9,-20.32 -10.14,-55.96 4.76,-74.8 64.59,6.51 13.82,3.81 72.07,0.46l13.1 -0.25 10.91 -0.85 14.22 -2.77c3.53,4.65 1.06,3.86 1.43,8.67 5.82,-4.2 10.69,-3.88 16.72,-4.6 6.13,-0.73 10.4,-1.22 16.5,-1.7 21.44,-1.71 5.07,0.28 14.73,1.08 0.58,0.05 13.67,-2.49 15.68,-2.85l122.62 -5.02c15.69,0.36 9.07,-1.21 19.17,0.24 3.72,0.54 4.3,0.9 8.13,1.86 7.81,-4.97 1.39,-3.06 12.15,-4.46 13.13,-1.7 26.54,-4.49 40.77,-6.21 14.74,-1.77 24.19,-0.24 34.69,0.39l0.54 -1.79 6.49 2.03 0.17 0 -0.01 0.04 7.56 2.37c20.3,-43.99 32.83,36.61 63.53,-31.33 4.34,-8.7 6.79,-16.3 11.21,-25.4 23.95,-49.24 77.05,-77.11 119.51,-84.37 55.49,-9.48 111.61,12.4 149.93,56.85 14.8,17.17 17.51,32.33 20.14,52.95 4.62,36.28 6.7,66.57 3.79,103.1 -1.79,22.42 -5.92,30.69 -20.86,49.77 -26.46,33.77 -61.43,54.9 -102.99,59.74l-4.79 1.31 0.17 -0.66c-3.16,1.14 -6.4,2.16 -9.69,3.06 -7.52,1.78 -14.08,3.02 -20.12,3.8l0.21 0.24c-27.02,3.63 -56.03,0.49 -80.47,-9.32 -32.8,-29.66 -39.7,-45.58 -58.4,-85.22z"/>
  <path class="fil6" d="M2611.87 2986.34l-0.62 -2.5c-4.68,2.43 -10.11,5.72 -14.96,9.78 -7.8,-13.04 6.41,-5.43 -54.82,-2.12 -72,3.89 -23.09,0.48 -56.28,-5.59 -23.58,23.01 -16.87,39.1 -16,62.82 0.74,20.38 -1.4,42.55 17.97,57.67 8.42,3.78 90.21,-20.66 123.37,-9.45 14.89,-2.61 18.66,-6.83 31.42,0.62l9.66 -1.99 11.27 -1.31c0.74,0.23 2.1,1.42 3.1,2.21l9.72 -2.34c22.43,-7.04 24.85,-6.62 20.66,0.83l212.56 -15.72 0.88 1.38c2.95,-2.13 37.21,-7.07 40.65,-7.15 11.93,2.59 19.35,6.07 23.78,10.15 9.13,32.7 25.23,61.94 49.6,81.03l16.77 12.47c25.82,7.94 47.8,6.39 73.02,6.4 5.26,0 11.77,0.38 18.09,-0.17l0.88 1.02c23.68,-0.93 42.08,-2.78 44.39,-3.37 25.61,-5.59 48.66,-17.44 68.13,-33.53l4.6 -3.95c29.32,-26.01 49.8,-61.86 57.53,-100.01 7.36,-36.34 2.92,-79.54 -18.13,-117.6 -29.79,-53.87 -53.56,-57.79 -96.69,-81.38 -2.51,-1.37 -3.89,-2.48 -6.27,-3.52l-15.24 -3.96c-3.56,0.45 -5.64,0.23 -9.17,2.06 -9.9,-15.86 -67.66,3.23 -130.14,30.78 -13.42,8.36 -65.22,80.86 -73.23,96.12 -7.91,15.07 -38.01,-10.79 -47.71,6.7 -0.65,1.17 -1.27,2.51 -1.87,4 -9.54,-2.42 -22.02,-7.74 -26.55,-6.76 -5.71,1.23 -10.78,2.3 -15.13,3.19l-35.39 0.27c-9.09,-0.06 -4.08,-0.3 -12.14,1.1 -15.59,2.7 -28.59,2.63 -46.26,3.68 -21.37,1.27 -122.48,7.91 -139.26,6.96 -15.66,-2.57 -7.85,-0.27 -22.19,1.18z"/>
  <path class="fil6" d="M2586.71 3064.65l15.71 -5.71c-25.62,8.77 -32.04,-4.29 -53.16,6.37 -4.12,-9.73 -1.83,-9.09 -6.91,0.16 -10.58,-6.63 0.86,-9.27 -14.06,-0.1 -12.8,-7.24 2.01,-5.49 -9.97,0.98l-13.21 -5.27c-9.21,-2.73 -2.17,-0.12 -13.06,-3.02l130.98 -24.76c10.65,-1.17 15.43,-1.31 27.35,-2.52 22.54,-2.29 37.98,-6.82 54.05,-4.26 -25.88,51.36 -60.95,38.85 -117.72,38.13z"/>
  <path class="fil4" d="M2641.81 3053.2l16.42 -5.96c-26.78,9.16 -33.48,-4.48 -55.55,6.64 -4.3,-10.15 -1.92,-9.49 -7.22,0.17 -11.05,-6.92 0.9,-9.68 -14.69,-0.1 -13.37,-7.57 2.1,-5.74 -10.41,1.02l-13.81 -5.5c-9.62,-2.86 -2.27,-0.13 -13.65,-3.15l136.86 -25.89c11.13,-1.22 16.13,-1.35 28.58,-2.62 23.55,-2.39 39.68,-7.13 56.47,-4.45 -27.04,53.66 -63.68,40.59 -123,39.84zm83.44 12.46c-1.66,0.18 -5.85,1.12 -6.91,1.1 -12.27,-0.34 -2.12,1.87 -14.68,-1.95 23.45,-7.37 25.97,-6.92 21.59,0.85zm-192.94 -10.4c1.3,-6.2 2.37,-5.52 2.43,-13.11 0.12,-15.92 1.14,-4.23 -2.26,-13.99l-9.65 34.64 1.35 -17.91c0.14,-1.02 0.52,-2.47 0.66,-3.5 0.15,-1.03 0.5,-2.47 0.62,-3.5l0.27 -35.63c10.14,5.05 10.08,7.76 12.66,21.94l0.28 18.16c-0.24,0.98 -0.79,2.44 -1.11,3.36 -0.68,1.96 -4.13,7.79 -5.25,9.54zm-18.16 15.59l-11.41 -15.34 -0.79 -14.16 8.31 17.46 4.84 -24.8c0.27,1.13 -0.11,2.06 0.67,3.43 0.77,1.34 0.49,2.73 0.5,3.39l-2.12 30.02zm-13.15 -27.46l-1.5 5.96 1.5 -5.96zm64.65 17.39l-13.74 0.62c1.16,-0.68 2.11,-2.94 3.56,-1.91 1.3,0.92 2.83,-0.98 3.51,-0.91l6.67 2.2zm24.96 -1.06l-13.95 0.18c13.75,-7.34 4.23,-5.48 13.95,-0.18zm41.82 -6.42l-23.29 3.25 23.29 -3.25zm35.97 15.08l-28.76 -0.81c-0.91,0.02 -2.71,0.2 -4.07,0.17 15.57,-2.73 19.5,-7.14 32.83,0.64zm25.11 -1.14c-12.42,4.53 -5.66,3.26 -15.02,-0.94l11.78 -1.36c0.77,0.24 2.2,1.48 3.24,2.3z"/>
  <path class="fil4" d="M2459.5 3053.22l-4.84 24.8 -8.31 -17.46c6.17,-20.11 -1.44,-11.43 -1.56,-33.82l5.23 -32.89c12.91,18.84 8.26,39.91 9.48,59.37z"/>
  <path class="fil4" d="M3128.77 2922.94c9.87,1.42 16.13,1.69 23.74,3.93 -32.27,6.94 -78.46,-2.77 -95.92,-20.76 16.68,5.51 33.35,11.03 50.03,16.55l22.15 0.28z"/>
  <path class="fil4" d="M3138.64 2953.76l15.03 -5.46c-24.53,8.39 -30.67,-4.11 -50.88,6.08 -3.94,-9.3 -1.76,-8.69 -6.61,0.16 -10.12,-6.34 0.82,-8.87 -13.46,-0.09 -12.25,-6.94 1.93,-5.26 -9.54,0.93l-12.64 -5.04c-8.81,-2.62 -2.08,-0.12 -12.5,-2.89l84.68 -6.2c31.26,9.36 94.49,-10.43 118.57,-23.99 -24.76,49.16 -58.32,37.18 -112.65,36.5zm76.42 11.41c-1.53,0.17 -5.36,1.03 -6.33,1 -11.24,-0.3 -1.94,1.72 -13.44,-1.78 21.47,-6.74 23.78,-6.34 19.77,0.78zm-176.73 -9.52c1.19,-5.69 2.18,-5.07 2.23,-12.01 0.11,-14.59 1.05,-3.88 -2.07,-12.82l-8.84 31.73 1.23 -16.4c0.14,-0.94 0.48,-2.27 0.62,-3.21 0.13,-0.94 0.45,-2.27 0.56,-3.21l0.24 -32.64c9.3,4.63 9.24,7.12 11.61,20.1l0.25 16.63c-0.22,0.91 -0.72,2.24 -1.02,3.09 -0.62,1.79 -3.78,7.13 -4.81,8.74zm-16.63 14.27l-10.45 -14.05 -0.72 -12.97 7.61 16 4.43 -22.72c0.25,1.04 -0.1,1.89 0.62,3.14 0.7,1.23 0.44,2.5 0.45,3.11l-1.94 27.49zm-12.05 -25.15l-1.37 5.46 1.37 -5.46zm59.22 15.93l-12.58 0.57c1.06,-0.63 1.93,-2.7 3.26,-1.75 1.19,0.84 2.59,-0.9 3.21,-0.84l6.11 2.02zm22.86 -0.97l-12.77 0.17c12.59,-6.73 3.87,-5.02 12.77,-0.17zm38.31 -5.88l-21.33 2.98 21.33 -2.98zm32.95 13.81l-26.34 -0.74c-0.84,0.02 -2.49,0.19 -3.73,0.15 14.26,-2.5 17.86,-6.53 30.07,0.59zm23 -1.04c-11.38,4.14 -5.19,2.98 -13.76,-0.87l10.79 -1.24c0.71,0.22 2.01,1.36 2.97,2.11z"/>
  <path class="fil4" d="M3235.21 3105.87l-12.26 -12.22 24.4 -24.93 17.01 5.1c-12.73,16.56 -10.56,17.72 -29.15,32.05z"/>
  <path class="fil4" d="M3214.09 3077.54c15.04,-10.61 11.91,-19.95 26.44,-11.47 -2.55,11.22 -13.2,16.22 -21.99,20.08l-4.45 -8.61z"/>
  <path class="fil4" d="M3187.42 2867.61c-23.26,-19.93 -68.88,-16.29 -95.06,-9.78l-7.19 -2.12 -7.66 3.67 -19.25 13.17 9.39 10.97 41.79 13.41c-12.06,3.69 2.24,2.99 -17.17,2.1 -9.25,-0.43 -8.37,-1.71 -15.87,-3.6 -10.08,-8.73 -28.24,-5.8 -26.03,-32.31 20.22,-23.93 48.37,-20.11 74.37,-20.04 30.26,0.08 51.09,-7.67 79.23,23.5l-16.55 1.03z"/>
  <path class="fil4" d="M3077.12 2881.42c23.26,19.92 68.88,16.29 95.06,9.78l7.19 2.11 7.66 -3.66 19.25 -13.18 -9.39 -10.96 -41.79 -13.42c12.06,-3.69 -2.24,-2.99 17.17,-2.09 9.25,0.43 8.37,1.71 15.87,3.59 10.08,8.74 28.24,5.81 26.03,32.32 -20.22,23.93 -48.37,20.11 -74.37,20.04 -30.26,-0.09 -51.09,7.67 -79.23,-23.51l16.55 -1.02z"/>
  <path class="fil4" d="M3142.56 3165.72c-8.45,12.08 -27.69,10.03 -40.22,10.02 -26.34,-0.01 -49.31,1.61 -76.28,-6.68l-17.52 -13.03c-25.47,-19.95 -42.3,-50.51 -51.84,-84.66l11.57 -3.79c19.54,41.42 26.76,58.05 61.02,89.04 35.25,14.15 79.6,15.04 115.01,2.32l-1.74 6.78zm-248.65 -196.9c21.22,-45.96 34.3,38.25 66.37,-32.74 4.55,-9.08 7.11,-17.03 11.73,-26.53 25.02,-51.45 80.5,-80.58 124.87,-88.16 57.98,-9.91 116.61,12.96 156.65,59.4 15.47,17.94 18.3,33.78 21.04,55.33 4.83,37.91 7.01,69.55 3.96,107.72 -1.87,23.43 -6.17,32.07 -21.79,52.01 -27.65,35.29 -64.18,57.35 -107.62,62.42 -14.56,4.05 -25.94,6.54 -35.96,7.84l9.01 10.53c24.74,-0.98 43.96,-2.92 46.38,-3.53 26.76,-5.84 50.85,-18.22 71.19,-35.04l4.81 -4.11c30.64,-27.19 52.03,-64.65 60.1,-104.5 7.69,-37.98 3.05,-83.12 -18.94,-122.88 -31.13,-56.29 -55.96,-60.39 -101.03,-85.03 -2.63,-1.44 -4.07,-2.59 -6.55,-3.69l-15.93 -4.13c-3.71,0.47 -5.89,0.24 -9.57,2.15 -10.35,-16.56 -70.7,3.38 -135.99,32.17 -14.01,8.72 -68.14,84.48 -76.52,100.43 -8.26,15.74 -39.71,-11.28 -49.84,6.99 -1.55,2.81 -2.95,6.55 -4.27,10.88l7.9 2.47zm-315.82 0.89l-0.65 -2.61c-4.9,2.54 -10.56,5.97 -15.64,10.21 -8.15,-13.62 6.7,-5.67 -57.28,-2.21 -75.22,4.06 -24.11,0.5 -58.8,-5.84 -24.63,24.04 -17.62,40.85 -16.72,65.63 0.77,21.29 -1.46,44.47 18.78,60.26 8.81,3.95 94.26,-21.58 128.91,-9.87 15.56,-2.73 19.49,-7.13 32.82,0.65l10.09 -2.09 11.78 -1.35c0.78,0.23 2.2,1.48 3.25,2.3l10.15 -2.44c23.44,-7.36 25.96,-6.92 21.58,0.86l222.1 -16.42 0.92 1.44c3.09,-2.22 38.88,-7.39 42.48,-7.48 15.76,3.43 23.99,8.34 27.89,14.13l8.52 -7.3c-0.08,-0.6 -0.16,-1.21 -0.26,-1.84 -7.93,-13.45 -18.51,-15.75 -30.73,-15.65 -36.64,0.28 -19.78,9.7 -29.84,-2.07 -5.83,5.19 -1.92,5.16 -9.85,5.95 -2.79,0.27 -5.02,0.22 -7.33,0.74l-0.5 3.69 -40.81 6.4 1.37 -4.58 -156.57 5.63c-67.08,-9.23 -19.04,23.23 -110.82,4.9l-9.39 0.09 -23.29 3.26c-6.26,4.71 -3.91,5.03 -6.46,-2.67 -6.43,9.06 -4.27,10.93 -7.21,0.17l-4.86 5.66 -13.95 0.19c-12.77,7.87 0.79,-13.69 -11.01,0.87l-13.74 0.63c-18.11,4.12 -3.27,4.02 -19.6,-6.14 1.3,-6.21 2.38,-5.53 2.43,-13.11 0.12,-15.93 1.14,-4.24 -2.26,-14l-9.65 34.65 -8.68 8.04 -11.4 -15.34 -3.25 -6.16 1.5 -5.95c-6.17,-21.24 -10.6,-58.47 4.98,-78.16 67.48,6.8 14.43,3.99 75.29,0.48l13.69 -0.27 11.41 -0.88 14.85 -2.89c3.7,4.86 1.11,4.03 1.49,9.05 6.09,-4.39 11.18,-4.05 17.48,-4.8 6.41,-0.77 10.87,-1.27 17.24,-1.78 22.4,-1.78 5.29,0.3 15.39,1.13 0.61,0.05 14.29,-2.61 16.39,-2.98l128.12 -5.24c16.39,0.37 9.47,-1.26 20.03,0.26 3.88,0.55 4.49,0.93 8.48,1.93 8.16,-5.2 1.47,-3.2 12.71,-4.66 13.71,-1.77 27.73,-4.69 42.59,-6.48 15.4,-1.86 25.28,-0.25 36.25,0.4l0.56 -1.87 6.78 2.12 0.18 0 2.31 -6.64c-9.97,-2.53 -23.01,-8.09 -27.74,-7.07 -5.97,1.28 -11.26,2.4 -15.81,3.34l-36.98 0.28c-9.5,-0.06 -4.26,-0.31 -12.69,1.15 -16.28,2.82 -29.87,2.74 -48.33,3.84 -22.33,1.33 -127.97,8.27 -145.51,7.27 -16.35,-2.69 -8.2,-0.27 -23.18,1.24z"/>
  <path class="fil7" d="M1677.09 1613.86c0.59,-0.69 1.47,-2.72 1.73,-2.11l5.22 -6.31c2.49,-2.92 4.48,-5.48 7.25,-8.11 18.2,-17.25 50.69,-10.55 85.76,-10.32 -0.21,-58.38 30.04,-129.93 63.79,-178.43 29.87,-42.92 83.76,-91.38 130.89,-115.15 200.27,-101.03 432.29,6.04 501.56,200.77 1.81,5.09 2.32,7.22 4.69,14.61l3.98 11.39c0.29,0.73 0.94,2.07 1.19,2.65 0.24,0.57 0.72,1.79 1.23,2.6 10.3,-2.85 99.29,-83.23 241.8,-38.04 40.75,12.92 40.77,21.28 65.65,37.95 1.4,-55.81 71.51,-157.16 126.9,-196.05 69.29,-48.65 129.96,-79.26 253.8,-73.02 164.01,8.27 317.78,166.89 322.99,330.57 17.73,0.11 60.53,-2.89 75.03,1.88 9.23,3.04 13.91,9.38 17.08,13.64 0.67,0.9 2.44,3.75 3.05,4.64 3.68,5.37 -0.67,0.68 4.68,6.84l0 -903.38 -1253.13 0c0.82,0.54 2.07,0.93 2.71,1.13 0.65,0.2 1.99,0.8 2.82,1.02l6.23 1.43c3.31,0.59 9.88,0.96 13.85,1.45 55.76,6.83 79.83,4.42 92.44,30.58l49.71 104.09c7.6,15.75 14.03,27.04 19.93,41.5 6.62,16.21 13.35,27.57 19.31,42.29 6.74,16.67 15.42,26.04 15.89,45.6 -11.73,10.27 -18.95,9.1 -35.99,14.01 -12.09,3.49 -27.74,8.33 -36.9,13.05 18.23,34.22 83.79,185.43 84.42,211.35 -18.85,-1.67 -59.42,-49.16 -74.04,-64.4l-156.71 -181.59c-9.65,-12.37 -22.4,-22.07 -26.89,-38.55l100 -38.46c-5.67,-24.5 -34.37,-68.35 -46.17,-92.2 -8.36,-16.91 -16.08,-28.41 -24.36,-44.82 -7.75,-15.34 -17.25,-27.51 -18.04,-47.48l-653.35 0 0 903.38z"/>
  <path class="fil8" d="M2591.57 206.07c-19.69,1.7 -59.08,4.07 -87.94,5.43 -58.07,2.72 -62.48,4.76 -44.49,20.38 29.21,24.78 29.55,25.12 35.32,54.33 3.05,15.28 5.43,35.99 5.43,45.84 0,9.5 2.04,35.31 4.75,56.7 2.72,21.4 6.8,55.69 8.83,76.41 3.06,33.27 2.72,37.69 -2.03,41.42 -4.08,3.06 -7.48,3.06 -12.23,0.68 -3.39,-1.7 -7.81,-2.37 -9.85,-1.02 -4.07,2.38 -2.37,33.62 5.44,99.84 2.71,23.43 7.47,64.51 10.18,91.68 3.06,27.16 7.81,68.93 10.53,93.38 3.05,24.11 5.09,48.56 4.41,54.33 -1.36,9.51 -2.03,10.19 -14.6,9.17l-13.24 -1.36 2.38 13.24c1.35,7.13 3.73,26.49 5.43,43.47 1.36,16.64 4.41,43.46 6.45,59.42 2.04,15.96 5.77,49.58 8.49,74.71 15.96,147.03 24.11,219.69 29.54,264.86 1.7,15.96 4.42,43.12 6.11,60.44 3.06,32.6 5.78,41.43 8.49,27.5 2.04,-11.54 8.83,-109.68 12.23,-182 3.05,-58.41 7.47,-90.33 13.92,-97.46 1.7,-2.04 7.13,0.68 13.24,6.45 8.83,8.49 11.21,9.17 13.92,5.1 2.38,-3.4 3.06,-62.82 2.38,-172.84 -0.68,-109.68 0,-168.09 2.38,-168.77 2.03,-0.67 6.45,5.1 10.18,13.25 12.57,26.82 19.36,37.01 23.09,33.27 2.04,-2.03 1.36,-41.76 -2.37,-114.09 -3.06,-60.78 -4.76,-112.39 -3.4,-114.09 2.38,-4.08 18.34,9.51 18.34,15.96 0,7.47 17.32,25.13 24.79,25.13 9.84,0 51.95,-9.17 66.89,-14.27 6.79,-2.37 20.04,-10.18 29.54,-17.31 19.7,-14.27 23.09,-14.95 34.64,-6.12 7.81,6.12 8.49,8.49 10.87,61.8 6.79,139.57 8.48,158.24 16.29,169.11 10.53,14.6 56.37,56.37 79.46,72.33 22.41,15.28 30.9,15.96 62.14,3.73 41.43,-16.3 93.38,-46.86 99.83,-58.74 7.81,-14.61 2.38,-264.87 -6.45,-298.14 -6.79,-25.13 -77.42,-82.18 -101.87,-82.18 -11.88,0 -94.74,41.77 -120.2,60.44 -13.92,10.53 -20.04,17.66 -21.73,24.79 -2.72,13.93 -6.46,14.94 -16.64,4.76 -7.81,-7.81 -8.49,-10.53 -6.79,-26.49 1.35,-9.51 3.73,-54.67 5.43,-99.49 4.07,-96.44 4.07,-96.1 -28.19,-140.24 -11.88,-15.96 -30.22,-42.11 -40.74,-58.07 -25.81,-39.39 -29.21,-40.75 -81.16,-40.41 -22.75,0.34 -57.73,2.04 -77.42,3.74l0 0zm97.8 50.93c3.05,4.08 8.83,95.42 13.24,212.23l2.04 55.35 -11.55 4.75c-15.96,6.46 -45.84,10.19 -48.55,5.78 -1.36,-1.7 -3.74,-63.84 -5.78,-137.87 -3.05,-105.6 -3.05,-135.14 0.34,-139.22 5.44,-6.45 45.16,-7.13 50.26,-1.02l0 0zm269.61 281.5c-1.7,11.21 -23.43,37.02 -31.58,37.02 -12.22,0 -7.81,-14.95 9.85,-31.92 16.98,-16.64 23.43,-18.34 21.73,-5.1l0 0zm-265.54 36.68c2.38,4.75 2.38,9.5 0,15.96 -3.39,8.82 -3.73,8.82 -11.2,2.71 -19.36,-16.64 -20.72,-25.13 -4.08,-25.13 8.15,0 12.57,2.04 15.28,6.46zm288.63 41.76c6.12,30.9 8.83,245.51 3.4,255.7 -2.38,4.41 -10.19,10.52 -17.32,13.92 -12.56,5.43 -13.58,5.43 -20.03,-0.34 -19.36,-17.66 -19.36,-17.66 -21.74,-149.75 -2.03,-108.66 -1.69,-123.26 3.06,-127 4.75,-3.73 33.62,-12.56 44.48,-13.24 2.38,-0.34 5.78,9.17 8.15,20.71z"/>
  <path class="fil8" d="M2100.9 280.77c-3.73,2.04 -7.47,4.76 -8.49,6.11 -3.39,4.76 -74.7,85.24 -77.76,88.29 -1.02,1.02 -5.09,5.1 -8.49,9.51 -6.45,7.47 -6.45,7.81 0,12.22 7.47,5.44 7.13,-1.35 5.78,260.45l-1.02 141.26 -14.26 15.96c-16.3,19.02 -13.93,23.77 10.52,20.71 8.15,-1.01 39.73,-1.69 70.29,-1.69 32.6,0 55.69,-1.36 55.69,-3.06 0,-2.04 -4.41,-8.49 -10.19,-14.6l-10.18 -10.87 0 -197.96c0,-164.01 0.68,-197.97 4.75,-197.97 10.53,0 21.05,72.33 14.6,102.55 -2.37,10.87 -1.7,12.9 2.72,12.9 7.81,0 89.98,-70.97 89.98,-77.76 0,-5.43 -8.82,-33.95 -18.33,-59.76 -10.53,-28.19 -25.81,-56.03 -31.24,-56.03 -5.1,0 -18.68,6.11 -21.74,9.85 -5.09,6.11 -33.95,27.5 -37.01,27.5 -2.37,0 -3.73,-13.92 -3.73,-41.76 0,-45.84 -1.7,-51.28 -11.89,-45.84l0 -0.01z"/>
  <path class="fil8" d="M3190.23 309.64c-9.51,10.86 -43.13,46.18 -75.39,78.77 -31.92,32.6 -58.06,60.11 -58.06,61.47 0,1.35 11.54,3.39 25.8,4.07 13.93,1.02 26.83,3.06 28.53,4.75 1.35,1.7 4.41,108.33 6.79,237.36l4.07 234.3 8.83 6.79c18.68,14.6 106.96,66.22 113.42,66.22 3.39,0 7.13,-2.38 8.48,-5.77 1.7,-3.74 -3.73,-10.87 -18.33,-24.45 -11.21,-10.53 -21.39,-22.75 -22.41,-26.83 -2.38,-9.85 3.39,-419.02 6.45,-460.11 2.38,-34.63 5.77,-39.73 26.49,-39.73 16.97,0 22.41,-4.41 22.41,-18.33 0,-16.98 -4.42,-20.72 -27.85,-22.42l-21.39 -1.69 -0.68 -49.24c-1.02,-50.94 -2.38,-64.52 -7.47,-64.52 -1.36,0 -10.53,8.83 -19.69,19.36l0 0z"/>
  <path class="fil8" d="M1399.02 298.43c-29.2,2.04 -54.33,4.75 -55.69,6.45 -1.36,1.36 1.36,6.79 6.11,11.89 21.06,22.75 19.7,10.52 19.7,192.87l0 166.73 -9.17 7.13c-5.43,3.73 -15.62,11.88 -23.09,17.65 -28.52,21.74 -63.84,44.15 -69.95,44.15 -3.74,0 -7.13,-3.06 -8.15,-7.81 -1.36,-4.42 -1.7,-84.22 -1.02,-177.6 1.02,-179.63 0.68,-175.89 17.32,-193.89 3.74,-4.41 6.45,-8.49 5.43,-9.17 -2.37,-2.71 -165.71,-3.39 -168.42,-1.01 -1.36,1.35 3.39,8.15 10.18,15.28l12.57 12.9 0 188.8c0,104.58 -1.36,189.82 -3.06,190.83 -3.05,2.04 -35.99,-21.73 -61.12,-44.48 -13.24,-11.54 -14.6,-13.92 -11.21,-20.37 2.38,-4.08 10.19,-11.89 17.66,-18 15.96,-12.56 17.32,-18.34 4.42,-15.62 -5.44,1.02 -19.02,2.72 -30.9,4.07 -23.1,2.38 -34.64,10.19 -34.64,23.09 0,9.17 12.9,31.58 29.54,51.62 12.57,15.62 57.39,52.29 78.44,64.52l10.87 6.11 1.02 83.53c0.34,45.84 0.68,101.19 0.68,123.26l0 40.41 -18 15.62c-10.19,8.83 -16.98,17.32 -15.62,18.68 1.36,1.36 9.85,2.37 18.68,2.37 9.16,0 32.93,2.04 52.97,4.76 48.56,6.45 108.66,9.85 111.04,6.11 1.01,-1.7 -5.1,-10.19 -12.91,-19.02l-14.94 -15.96 -0.34 -130.39 -0.68 -130.05 7.81 -5.44c4.08,-3.05 11.89,-5.43 16.98,-5.43 5.43,0 12.22,-1.36 15.62,-3.05 3.06,-1.7 13.58,-6.8 22.75,-10.87 9.51,-4.07 22.75,-12.22 29.88,-17.66 8.15,-6.45 14.26,-8.83 16.3,-6.79 2.04,2.04 2.72,64.52 2.04,162.65 -1.02,176.58 0,168.77 -24.45,201.37 -7.47,10.18 -14.94,20.37 -16.98,22.75 -1.7,2.37 -2.04,5.43 -0.68,7.13 2.72,2.71 199.33,11.2 203.74,8.82 4.76,-2.71 2.38,-7.81 -12.56,-27.16 -27.85,-37.35 -25.81,-16.3 -25.81,-253.32l0 -211.55 10.87 -8.48c17.99,-13.59 24.11,-16.3 35.99,-16.64 13.24,0 13.58,3.05 2.04,13.92 -16.3,14.94 -28.53,34.3 -28.53,45.16 0,5.77 2.04,21.05 4.76,34.3 3.05,12.9 7.47,35.99 10.52,50.93 6.46,30.9 15.29,71.99 17.66,80.48 0.68,3.4 6.79,11.21 12.91,18 10.86,11.2 12.56,11.54 27.84,9.84 8.83,-1.35 24.45,-6.45 33.96,-11.88 23.09,-12.56 28.86,-12.56 38.71,2.04 16.3,23.77 44.14,19.35 69.95,-11.21 8.83,-10.52 25.47,-29.2 36.33,-41.09 19.7,-21.39 20.04,-21.73 12.23,-25.8 -13.59,-7.13 -18,-23.77 -20.38,-76.4 -9.17,-185.07 -10.53,-205.44 -16.3,-217.33 -7.13,-14.94 -21.05,-33.61 -44.48,-59.42 -9.85,-11.21 -24.45,-27.85 -31.92,-37.35 -24.79,-31.58 -34.63,-32.26 -85.23,-6.79 -65.2,32.59 -73.69,48.55 -51.27,93.72 20.37,41.08 31.91,57.04 41.42,57.38 3.74,0 14.94,-16.98 14.6,-22.07 -0.34,-14.26 2.04,-19.02 22.41,-38.03 14.27,-13.58 24.79,-21.39 29.89,-21.39 14.6,0 15.96,15.96 17.99,186.76 1.7,142.61 1.36,158.57 -3.73,162.65 -4.08,3.39 -6.79,3.73 -9.85,0.68 -9.51,-7.81 -24.79,-150.77 -18.34,-173.52 1.7,-6.45 7.81,-17.66 13.59,-24.79 8.15,-10.86 9.5,-13.92 5.43,-16.3 -2.72,-1.69 -36.68,-3.05 -76.06,-2.71l-71.31 0.34 -2.38 -87.61c-1.36,-48.56 -1.7,-111.72 -0.34,-140.58l2.04 -52.63 14.94 -19.7c8.15,-10.86 13.92,-21.05 12.9,-22.75 -2.71,-4.07 -50.59,-3.4 -121.22,1.36l0 0z"/>
  <path class="fil8" d="M1857.09 333.4c-6.45,5.44 -24.44,19.36 -39.73,31.58 -15.28,12.23 -37.01,29.55 -48.55,38.38 -11.55,9.16 -21.06,18.33 -21.06,20.37 0,2.38 7.14,4.41 17.32,5.09 32.26,1.7 29.88,-13.58 31.24,213.25l1.36 198.31 -10.53 11.88c-5.77,6.79 -10.52,13.58 -10.52,15.62 0,2.38 10.19,3.06 31.58,1.7 16.98,-1.02 50.59,-2.72 74.7,-4.08 23.77,-1.01 43.81,-3.39 44.82,-4.75 1.02,-1.36 -2.37,-5.09 -7.13,-8.49 -15.96,-10.53 -17.99,-21.39 -21.73,-125.98 -2.04,-53.99 -5.09,-114.09 -6.79,-133.79 -4.75,-55.01 -4.41,-126.65 1.02,-124.96 2.04,1.02 5.09,9.17 6.11,18.34 1.36,9.17 3.74,22.75 6.11,30.22 2.04,7.47 3.74,23.77 3.74,36.33 0,14.95 1.36,23.1 3.73,23.1 2.04,0 15.62,-8.49 29.89,-18.68 14.26,-10.53 32.25,-23.43 40.4,-28.86 16.3,-11.55 16.98,-15.96 9.51,-50.94 -6.11,-26.82 -11.54,-42.44 -27.16,-75.72 -15.96,-34.3 -24.79,-36.67 -53.99,-15.62 -7.47,5.43 -16.98,9.85 -21.06,9.85 -7.13,0 -7.81,-2.04 -10.52,-34.64 -1.7,-19.02 -4.76,-34.97 -6.79,-35.65 -2.04,-0.68 -9.17,3.05 -15.96,8.15l-0.01 -0.01z"/>
  <path class="fil8" d="M3357.63 331.71c-2.71,4.41 -15.96,26.14 -29.2,48.22 -25.81,43.12 -47.2,72.66 -69.27,96.43 -23.77,25.13 -24.79,34.64 -4.08,34.64 22.75,0 21.74,-8.49 25.81,232.6 2.72,149.41 4.75,218.34 7.47,221.74 2.04,2.37 12.22,8.15 22.75,12.9 10.53,5.09 28.19,12.9 39.39,18.34 58.07,26.82 68.93,31.58 79.8,36.67 6.45,2.72 15.96,7.13 21.05,9.85 21.05,10.52 31.58,4.41 56.03,-32.6 6.79,-10.53 16.64,-23.09 22.07,-28.19 5.1,-5.09 9.51,-10.52 9.51,-12.22 0,-1.7 -18,-4.07 -39.73,-5.09 -22.07,-1.36 -51.27,-3.4 -64.52,-4.42 -15.62,-1.36 -24.79,-1.02 -24.79,1.02 0,4.41 31.58,14.6 45.51,14.6 16.97,0 20.71,4.08 14.6,15.62 -2.72,5.43 -8.15,12.57 -11.89,15.96 -6.79,6.11 -7.47,6.11 -29.54,-4.75 -12.22,-6.11 -26.83,-15.28 -32.26,-20.04l-9.51 -8.49 -2.37 -226.15c-2.04,-200 -1.7,-226.49 2.71,-231.24 3.06,-2.72 14.6,-6.11 26.15,-7.13 11.54,-1.36 22.41,-3.06 24.11,-4.42 5.09,-3.05 3.39,-24.1 -2.38,-29.88 -3.73,-3.73 -11.54,-5.43 -26.48,-5.43 -13.25,0 -23.1,-1.7 -25.13,-4.41 -1.7,-2.04 -4.42,-34.98 -5.78,-73.01 -2.37,-63.84 -3.05,-68.59 -8.82,-68.59 -3.4,0 -8.49,3.39 -11.21,7.47l0 0z"/>
  <path class="fil8" d="M3728.1 453.61c-31.24,31.92 -56.03,59.43 -54.67,61.12 1.02,1.7 4.75,3.06 8.15,3.06 3.73,0 8.49,3.4 10.52,7.47 5.44,10.19 9.17,106.28 9.51,246.18l0.34 109.01 -11.2 14.94c-6.12,7.81 -14.95,16.29 -19.36,18.67 -20.03,10.19 -8.49,14.94 62.82,26.83 18.68,3.05 44.48,7.47 57.39,10.18 12.9,2.72 27.16,4.76 31.92,4.76 4.75,0 18.67,2.37 30.56,5.43 14.6,3.74 22.75,4.42 25.12,2.04 3.4,-3.4 2.38,-4.08 -28.52,-20.04 -8.15,-4.41 -20.03,-12.9 -26.15,-19.01 -10.52,-11.21 -11.2,-13.24 -14.26,-50.26 -1.7,-21.39 -4.07,-111.71 -5.43,-201.36 -1.36,-128.36 -1.02,-162.31 2.38,-160.95 2.37,0.68 6.11,6.45 8.49,12.9 2.03,6.45 7.47,21.39 11.54,32.94l7.47 20.71 -10.19 18.68c-5.77,9.84 -9.5,19.35 -8.15,20.37 1.02,1.36 6.8,2.38 12.57,2.38 10.52,-0.34 15.62,-4.08 77.76,-61.12 13.58,-12.57 18.67,-29.55 12.9,-42.45 -11.2,-24.79 -37.35,-76.4 -42.44,-84.21 -8.15,-12.23 -15.62,-11.55 -45.5,3.05 -14.95,7.47 -26.15,11.21 -28.19,9.17 -1.7,-1.7 -5.09,-12.56 -7.47,-24.79 -2.38,-11.88 -5.77,-22.07 -7.81,-22.75 -2.04,-0.68 -28.86,25.13 -60.1,57.05l0 0z"/>
  <path class="fil8" d="M3535.56 445.46c-15.28,6.11 -91.68,76.74 -100.17,93.04 -3.73,6.79 -5.43,38.37 -7.13,134.81l-2.37 125.98 16.63 19.69c22.08,26.49 41.09,47.54 56.71,62.82l12.91 12.91 34.97 0c40.41,0 37.69,1.7 71.65,-45.84 28.86,-40.41 28.52,-38.04 12.22,-64.86 -20.71,-34.3 -26.48,-41.09 -30.9,-36.33 -4.07,3.73 -13.58,34.97 -20.37,65.53 -7.47,33.28 -12.91,49.24 -16.64,48.9 -2.04,-0.34 -5.09,-0.68 -6.45,-1.02 -1.7,0 -8.15,-7.47 -14.6,-16.64l-11.55 -15.96 -3.73 -91.68c-3.06,-79.8 -2.72,-92.36 1.35,-95.76 6.12,-5.09 9.17,-4.41 78.1,14.6 28.19,7.81 36,4.76 53.32,-20.37 12.56,-18 13.58,-21.39 12.9,-40.75 -0.34,-11.2 -2.38,-25.47 -4.41,-30.9 -2.38,-5.77 -5.44,-15.62 -6.8,-22.07 -9.5,-40.41 -20.71,-53.65 -66.55,-77.08 -34.3,-17.32 -49.92,-22.41 -59.08,-19.02l-0.01 0zm16.3 56.03c3.4,8.15 9.17,21.39 12.23,29.88 3.39,8.49 8.15,19.7 10.52,25.47 12.91,30.22 18.68,46.18 18.68,52.97 0,6.79 -1.36,7.13 -13.58,5.09 -7.47,-1.01 -20.04,-3.05 -27.85,-4.07 -8.15,-1.36 -16.64,-3.74 -18.67,-5.77 -6.11,-4.42 -6.11,-107.98 -0.34,-113.76 7.13,-7.13 12.22,-4.41 19.01,10.19l0 0z"/>
  <path class="fil8" d="M2335.2 531.03c-1.02,2.04 1.36,5.1 5.1,7.13 8.15,4.42 9.16,23.09 2.03,36.68 -2.71,5.09 -7.13,15.96 -10.52,24.44 -3.06,8.49 -7.81,19.7 -10.19,25.47 -2.38,5.43 -6.45,16.3 -9.51,23.77 -20.71,54.33 -29.88,71.31 -33.61,63.84 -1.7,-3.06 -10.87,-36.33 -18.34,-67.24 -3.06,-11.2 -7.47,-27.16 -10.19,-35.65 -6.11,-19.69 -6.11,-26.15 1.02,-29.88 8.49,-4.76 3.06,-15.62 -6.79,-12.91 -4.08,1.02 -30.9,2.04 -59.09,2.04 -53.31,0 -57.72,1.02 -47.53,13.25 4.41,5.09 10.52,29.88 21.05,83.53 6.79,34.63 15.28,75.04 20.37,98.47 2.38,11.21 7.13,35.32 10.53,53.31 6.45,36 7.13,32.26 -12.23,75.73 -35.65,79.45 -56.7,122.24 -63.83,128.35 -6.8,6.11 -9.17,6.11 -60.79,1.02 -29.54,-2.72 -75.38,-6.79 -101.86,-8.83 -26.49,-1.7 -50.6,-4.41 -53.32,-5.43 -6.45,-2.38 -6.79,-9.17 -1.01,-25.13 7.47,-20.71 16.29,-30.22 38.03,-41.09 18.33,-8.82 28.52,-17.99 24.45,-22.07 -2.72,-3.05 -92.37,-7.47 -99.16,-4.75 -15.96,6.11 -55.69,79.46 -49.57,91 6.45,11.89 16.97,19.36 50.93,36.33 71.65,35.66 119.19,48.56 207.47,56.37 19.7,1.7 45.85,4.08 58.41,5.43 24.45,2.04 30.9,-0.34 37.01,-14.26 1.7,-3.73 8.15,-15.96 14.26,-27.16 6.46,-11.21 20.38,-37.36 31.25,-57.73 10.86,-20.71 22.75,-42.78 26.48,-49.24 3.74,-6.45 15.28,-27.84 25.47,-47.53 10.53,-19.7 26.15,-49.58 34.97,-66.22 17.66,-32.94 58.41,-115.11 66.22,-133.11 2.72,-6.11 7.13,-16.3 10.19,-23.09 2.71,-6.45 7.47,-17.66 10.52,-24.45 7.81,-18.34 12.57,-29.54 24.79,-60.44 6.11,-14.94 12.9,-30.9 15.28,-35.66 2.38,-4.75 5.43,-13.24 6.45,-19.35 2.04,-8.83 1.02,-11.55 -4.41,-14.26 -8.15,-4.76 -87.61,-5.1 -90.33,-0.68l0 0z"/>
  <path class="fil9" d="M2772.61 1118.39c-1.96,2.41 -3.01,3.74 -3.13,3.98 -1.05,1.93 -1.57,5.24 -1.57,9.94l0 51.84c0.73,3.14 -2.83,7.89 -10.65,14.28 -3.26,2.65 -9.34,6.5 -18.25,11.56l4.15 44.8 -6.86 -10.48 -0.72 -1.44 1.08 34.51 -5.78 -9.04 1.08 30.53 -12.64 -49.14 6.5 4.34 -8.67 -32.16 9.03 3.98 -4.67 -16.98c-3.58,-3.02 -7.91,-6.75 -12.94,-11.21 -9.1,-8.07 -14.18,-14.45 -15.27,-19.15 -0.36,-9.27 -0.24,-21.13 0.36,-35.59 0.12,-1.92 -0.42,-3.55 -1.62,-4.87 -0.12,-0.24 -1.63,-1.45 -4.52,-3.62 -0.84,-0.12 -1.08,-0.3 -0.72,-0.54l0.72 0.54c1.33,0.24 4.7,0.24 10.12,0l13.91 -0.54c1.56,-0.12 3.13,-0.12 4.7,0 2.52,0.24 3.73,0.72 3.61,1.45 -2.53,1.44 -3.8,3.67 -3.8,6.68 0,0.96 0,1.99 0,3.07l0 43.18c0.73,2.05 2.68,4.52 5.94,7.41 2.86,2.65 5.45,4.51 7.7,5.6 8.98,-2.89 14.37,-6.02 16.17,-9.4l-0.72 -64.13c0.36,-1.33 -0.36,-3.37 -2.17,-6.14 -2.16,-3.38 -3.31,-5.18 -3.43,-5.42 2.89,0.6 9.7,0.96 20.42,1.08 8.43,0.12 12.64,0.48 12.64,1.08zm76.43 119.6l-1.27 -90.15c-3.73,1.33 -7.41,3.98 -11.02,7.95l5.24 -26.74c3.49,0.36 5.72,0.85 6.68,1.45 0.49,0.24 3.74,0.36 9.76,0.36 17.22,0 33.42,-0.9 48.6,-2.71l6.68 28.73c-1.8,-3.14 -4.36,-5.76 -7.74,-7.86 -3.37,-2.11 -6.83,-3.11 -10.44,-2.98l-27.71 0.54c0,0.6 0,1.14 0,1.62l0 36.5 22.77 0c3.13,-0.49 5.96,-3.92 8.49,-10.3l-0.54 34.14c-2.02,-6.62 -5.57,-9.93 -10.66,-9.93l-19.33 0 0 40.28 26.98 0.55c3.61,0.12 7.07,-0.88 10.44,-2.98 3.38,-2.11 5.94,-4.73 7.74,-7.86l-6.68 28.72c-15.18,-1.8 -31.38,-2.71 -48.6,-2.71 -6.02,0 -9.27,0.12 -9.76,0.36 -0.96,0.61 -3.19,1.09 -6.68,1.45l-5.24 -26.74c4.1,4.46 8.19,7.23 12.29,8.31zm158.8 11.56c0,0.61 -0.73,2.83 -2.17,6.69l-8.13 21.86c-0.36,0.36 -0.79,0.48 -1.27,0.36 -3.49,-1.69 -7.77,-3.31 -12.82,-4.88 -11.2,-3.49 -22.89,-5.96 -35.05,-7.41 -8.79,-1.08 -13.79,-1.92 -15,-2.52 -2.29,-1.21 -4.03,-4.58 -5.24,-10.12l-1.62 -54.2 0 -52.21c0,-6.5 -1.81,-9.82 -5.42,-9.94 0.96,-0.12 6.44,-0.06 16.44,0.18 6.5,0.12 11.8,-0.3 15.9,-1.26 -2.65,3.01 -4.28,5.06 -4.88,6.14 -1.21,2.17 -1.81,4.7 -1.81,7.59 0,15.78 0.3,48.66 0.91,98.64 0,1.08 1.14,2.05 3.43,2.89 0.81,0.36 4.85,1.51 12.04,3.43 8.76,2.41 15.3,3.62 19.6,3.62 0.85,0 2.05,-0.4 3.62,-1.18 1.56,-0.78 2.22,-1.17 1.98,-1.17 0.49,0.12 1,-1.09 1.6,-3.62l2.71 -12.46c-0.36,-2.05 -1.87,-4.58 -4.52,-7.59l0 -0.72 16.8 13.37c1.93,1.56 2.9,3.07 2.9,4.51zm113.09 -68.11l-2.16 -52.93 -12.29 5.78 0.18 45.35 8.86 6.5 5.41 -4.7zm3.08 11.93c0.96,9.27 4.51,22.58 10.66,39.92 6.5,18.31 11.26,26.92 14.27,25.84 3.13,0.24 6.98,1.93 11.56,5.06 5.78,3.97 10.6,6.74 14.45,8.31 -1.08,0.12 -2.23,0.18 -3.43,0.18 -4.34,0 -10.81,-1.09 -19.42,-3.25 -8.61,-2.17 -15.09,-3.26 -19.42,-3.26 -1.81,0 -3.43,0.18 -4.88,0.55 0.84,-1.21 1.26,-3.01 1.26,-5.42 0,-5.54 -2.46,-15.66 -7.4,-30.35 -6.14,-18.31 -9.52,-28.79 -10.12,-31.44l-5.78 -9.03 1.08 31.07 -6.86 -10.48 -0.72 -1.44 1.08 47.15 -5.78 -9.03 -3.98 43.36 -13 -74.62 6.5 4.34 -6.86 -44.81 9.03 3.98 -7.59 -63.41 27.82 0 0 9.75 13.73 -7.22 22.04 26.92 -3.97 40.82 -14.27 6.51zm104.41 -55.46c-1.86,2.16 -2.89,3.49 -3.13,3.97 -1.05,2.17 -1.56,5.48 -1.56,9.94 -0.12,18.06 -0.12,43.78 0,77.14 0.72,3.13 -2.83,7.89 -10.66,14.27 -9.52,7.71 -18.73,12.23 -27.64,13.55l-5.42 -0.9c-5.42,-4.46 -10.66,-8.92 -15.72,-13.37 -9.15,-8.07 -14.27,-14.45 -15.36,-19.15 -0.96,-25.29 -0.78,-53.42 0.55,-84.37 0.12,-2.05 -0.49,-3.73 -1.81,-5.06l-5.06 -3.97 -0.18 0.18c0,0.24 2.95,0.3 8.85,0.18l16.08 0c2.77,0 4.88,0.12 6.32,0.36 1.45,0.24 2.11,0.54 1.99,0.9 -2.53,1.45 -3.79,3.68 -3.79,6.69 0,0.96 0,1.95 0,3.04l0 91.83c0.72,2.05 2.68,4.49 5.93,7.38 2.86,2.65 5.45,4.52 7.71,5.6 8.97,-2.89 14.36,-6.02 16.17,-9.39 -0.12,-16.5 -0.36,-46.31 -0.73,-89.43 0.37,-1.32 -0.36,-3.37 -2.16,-6.14 -2.17,-3.37 -3.32,-5.18 -3.44,-5.42 2.89,0.6 9.7,0.96 20.42,1.08 8.43,0.12 12.64,0.48 12.64,1.09zm79.13 88.16c-3.37,2.89 -9.93,8.25 -19.69,16.08 -12.89,10.35 -21.44,15.53 -25.65,15.53 -0.61,0 -1.03,-0.18 -1.27,-0.54l-22.58 -27.1c-3.13,-6.74 -4.7,-11.2 -4.7,-13.37 0,-2.65 1.45,-4.87 4.34,-6.68l6.32 -3.98 13.73 -3.25c-1.68,1.57 -3.37,3.07 -5.06,4.52 -1.8,1.93 -2.83,3.91 -3.07,5.96 0.85,3.01 4.07,8.25 9.7,15.72 5.99,7.95 9.99,11.62 12.04,11.02 2.05,-3.61 5.93,-8.61 11.68,-15l-1.26 0.37c0.84,-0.61 1.26,-1.51 1.26,-2.71 0,-2.77 -8.73,-14.19 -26.19,-34.24 -17.47,-20.05 -26.2,-30.86 -26.2,-32.43 0,-0.96 0.36,-1.68 1.09,-2.17l2.71 -3.25 19.87 -15.9c13.01,-10.35 21.5,-15.53 25.47,-15.53 0.6,0 1.09,0.18 1.45,0.54l22.58 27.1c3.13,6.74 4.7,11.2 4.7,13.37 0,2.65 -1.51,4.87 -4.52,6.68l-17.88 4.52 -0.19 -1.27c1.33,-1.32 2.9,-2.53 4.7,-3.61 0.6,-0.24 1.03,-1.26 1.27,-3.07 -0.97,-3.13 -5.18,-7.92 -12.65,-14.36 -7.47,-6.45 -12.59,-9.37 -15.36,-8.77 -1.56,0.37 -3.25,1.96 -5.05,4.79 -1.81,2.83 -2.71,5.09 -2.71,6.78 0,1.44 0.54,2.89 1.62,4.33 7.47,9.64 19.27,23.07 35.41,40.29 11.68,12.4 17.53,20.53 17.53,24.39 0,1.32 -0.55,2.47 -1.63,3.43l-1.99 0.36 0.18 1.45zm19.88 -37.22l-6.51 2.53c-1.68,0.84 -2.41,1.99 -2.16,3.43 0.12,4.82 4.09,8.37 11.92,10.66l-0.57 -56.36c-0.51,-4.22 -2.83,-7.23 -7.02,-9.04l33.78 0c-2.77,2.17 -4.15,4.7 -4.15,7.59l0.9 58.17c4.97,-1.68 10.93,-4.63 17.89,-8.85l0 -50.76c0,-3.01 -0.24,-5 -0.69,-5.97 -0.97,-1.8 -3.38,-3.61 -7.26,-5.42l34.87 -0.54c-4.46,3.86 -6.87,7.17 -7.23,9.94l0.72 40.65c5.3,-2.77 9.22,-4.16 11.75,-4.16 2.53,0 5.72,0.72 9.57,2.17 -4.24,3.25 -6.32,7.41 -6.2,12.47 -2.41,-3.38 -5.03,-5.06 -7.83,-5.06 -1.93,0 -4.37,0.84 -7.29,2.53l1.27 65.21c0,3.14 2.71,5.79 8.13,7.95l-38.12 -0.54c4.54,-1.93 7.31,-4.82 8.31,-8.67l0 -50.95c-6.72,3.74 -12.68,6.27 -17.89,7.59l0 35.95c0.61,3.62 3.44,6.45 8.49,8.49l-41.37 -0.54c6.63,-2.05 9.94,-5.66 9.94,-10.84l0 -34.86c-11.68,-2.78 -17.4,-9.28 -17.16,-19.52 4.21,-2.28 7.83,-3.43 10.84,-3.43 0.96,0 1.98,0.06 3.07,0.18zm180.48 67.75c0.24,0 0.42,0 0.54,0l-41.01 -0.36c6.62,-2.05 9.94,-5.66 9.94,-10.81l-0.91 -106.26c-0.48,-4.22 -2.71,-7.23 -6.68,-9.03l30.17 0c-0.24,0.12 -0.48,0.3 -0.72,0.54l1.8 0c15.18,5.66 29.81,13.82 43.9,24.54 0.97,17.43 1.45,33.84 1.45,49.23 0,4.21 -0.18,10.48 -0.54,18.79 -1.09,4.66 -6.21,11.05 -15.36,19.12 -5.06,4.42 -10.3,8.88 -15.72,13.34l-5.42 0.9 -1.44 0zm-11.02 -17.16c0.12,0.36 0.24,0.78 0.36,1.26 2.74,1.93 6.8,3.73 12.19,5.42 2.41,-1.32 4.97,-3.19 7.71,-5.6 3.25,-2.89 5.21,-5.36 5.93,-7.41l0 -74.61c-1.23,-4.09 -4.57,-7.65 -10.05,-10.66 -3.07,-1.44 -7.65,-3.67 -13.73,-6.68 -0.76,1.92 -1.3,4.94 -1.66,9.03 -0.36,4.1 -0.93,7.11 -1.66,9.03l0.91 80.22zm68.47 -1.45l-1.27 -90.15c-3.73,1.33 -7.41,3.98 -11.02,7.95l5.24 -26.74c3.49,0.36 5.72,0.85 6.68,1.45 0.49,0.24 3.74,0.36 9.76,0.36 17.22,0 33.42,-0.9 48.6,-2.71l6.68 28.73c-1.8,-3.14 -4.36,-5.76 -7.74,-7.86 -3.37,-2.11 -6.83,-3.11 -10.44,-2.98l-27.71 0.54c0,0.6 0,1.14 0,1.62l0 36.5 22.77 0c3.13,-0.49 5.96,-3.92 8.49,-10.3l-0.54 34.14c-2.02,-6.62 -5.57,-9.93 -10.66,-9.93l-19.33 0 0 40.28 26.98 0.55c3.61,0.12 7.07,-0.88 10.44,-2.98 3.38,-2.11 5.94,-4.73 7.74,-7.86l-6.68 28.72c-15.18,-1.8 -31.38,-2.71 -48.6,-2.71 -6.02,0 -9.27,0.12 -9.76,0.36 -0.96,0.61 -3.19,1.09 -6.68,1.45l-5.24 -26.74c4.1,4.46 8.19,7.23 12.29,8.31zm158.8 11.56c0,0.61 -0.73,2.83 -2.17,6.69l-8.13 21.86c-0.36,0.36 -0.79,0.48 -1.27,0.36 -3.49,-1.69 -7.77,-3.31 -12.82,-4.88 -11.2,-3.49 -22.89,-5.96 -35.05,-7.41 -8.79,-1.08 -13.79,-1.92 -15,-2.52 -2.29,-1.21 -4.03,-4.58 -5.24,-10.12l-1.62 -54.2 0 -52.21c0,-6.5 -1.81,-9.82 -5.42,-9.94 0.96,-0.12 6.44,-0.06 16.44,0.18 6.5,0.12 11.8,-0.3 15.9,-1.26 -2.65,3.01 -4.28,5.06 -4.88,6.14 -1.21,2.17 -1.81,4.7 -1.81,7.59 0,15.78 0.3,48.66 0.91,98.64 0,1.08 1.14,2.05 3.43,2.89 0.81,0.36 4.85,1.51 12.04,3.43 8.76,2.41 15.3,3.62 19.6,3.62 0.85,0 2.05,-0.4 3.62,-1.18 1.56,-0.78 2.22,-1.17 1.98,-1.17 0.49,0.12 1,-1.09 1.6,-3.62l2.71 -12.46c-0.36,-2.05 -1.87,-4.58 -4.52,-7.59l0 -0.72 16.8 13.37c1.93,1.56 2.9,3.07 2.9,4.51zm146.7 -20.59c0.72,3.13 -2.83,7.89 -10.66,14.27 -9.52,7.71 -18.73,12.23 -27.64,13.55l-5.42 -0.9c-5.42,-4.46 -10.66,-8.92 -15.72,-13.37 -9.15,-8.07 -14.27,-14.45 -15.36,-19.15 -0.36,-8.31 -0.54,-14.58 -0.54,-18.79 0,-15.42 0.48,-31.86 1.45,-49.32 14.09,-10.72 28.72,-18.91 43.9,-24.57l4.51 0 16.08 20.05c1.93,1.93 3.5,4.76 4.7,8.49l-25.11 19.33c3.13,-4.21 4.7,-7.88 4.7,-11.02 0,-0.84 -0.12,-1.68 -0.37,-2.53 0.13,-0.48 0.19,-1.02 0.19,-1.62 0,-1.93 -2.14,-8.49 -6.42,-19.69 -3.4,1.44 -8.04,3.61 -13.91,6.5 -3.31,2.17 -5.45,4.94 -6.41,8.31l0 74.61c0.72,2.05 2.71,4.52 5.96,7.41 2.89,2.65 5.48,4.52 7.77,5.6 9.03,-2.89 14.45,-6.02 16.26,-9.39l0 -17.17 21.68 4.7 0.36 4.7zm54.37 -47.52l-2.16 -52.93 -12.29 5.78 0.18 45.35 8.86 6.5 5.41 -4.7zm3.08 11.93c0.96,9.27 4.51,22.58 10.66,39.92 6.5,18.31 11.26,26.92 14.27,25.84 3.13,0.24 6.98,1.93 11.56,5.06 5.78,3.97 10.6,6.74 14.45,8.31 -1.08,0.12 -2.23,0.18 -3.43,0.18 -4.34,0 -10.81,-1.09 -19.42,-3.25 -8.61,-2.17 -15.09,-3.26 -19.42,-3.26 -1.81,0 -3.43,0.18 -4.88,0.55 0.84,-1.21 1.26,-3.01 1.26,-5.42 0,-5.54 -2.46,-15.66 -7.4,-30.35 -6.14,-18.31 -9.52,-28.79 -10.12,-31.44l-5.78 -9.03 1.08 31.07 -6.86 -10.48 -0.72 -1.44 1.08 47.15 -5.78 -9.03 -3.98 43.36 -13 -74.62 6.5 4.34 -6.86 -44.81 9.03 3.98 -7.59 -63.41 27.82 0 0 9.75 13.73 -7.22 22.04 26.92 -3.97 40.82 -14.27 6.51zm47.51 52.39c0.6,3.61 3.43,6.44 8.49,8.49l-37.76 -0.54c6.5,-2.05 9.76,-5.66 9.76,-10.84l-0.88 -97.38c-0.48,-4.21 -2.65,-7.22 -6.53,-9.03l30.17 0c-2.77,2.17 -4.16,4.7 -4.16,7.59l0.91 101.71zm84.72 -19.69c-3.37,2.89 -9.93,8.25 -19.69,16.08 -12.89,10.35 -21.44,15.53 -25.65,15.53 -0.61,0 -1.03,-0.18 -1.27,-0.54l-22.58 -27.1c-3.13,-6.74 -4.7,-11.2 -4.7,-13.37 0,-2.65 1.45,-4.87 4.34,-6.68l6.32 -3.98 13.73 -3.25c-1.68,1.57 -3.37,3.07 -5.06,4.52 -1.8,1.93 -2.83,3.91 -3.07,5.96 0.85,3.01 4.07,8.25 9.7,15.72 5.99,7.95 9.99,11.62 12.04,11.02 2.05,-3.61 5.93,-8.61 11.68,-15l-1.26 0.37c0.84,-0.61 1.26,-1.51 1.26,-2.71 0,-2.77 -8.73,-14.19 -26.19,-34.24 -17.47,-20.05 -26.2,-30.86 -26.2,-32.43 0,-0.96 0.36,-1.68 1.09,-2.17l2.71 -3.25 19.87 -15.9c13.01,-10.35 21.5,-15.53 25.47,-15.53 0.6,0 1.09,0.18 1.45,0.54l22.58 27.1c3.13,6.74 4.7,11.2 4.7,13.37 0,2.65 -1.51,4.87 -4.52,6.68l-17.88 4.52 -0.19 -1.27c1.33,-1.32 2.9,-2.53 4.7,-3.61 0.6,-0.24 1.03,-1.26 1.27,-3.07 -0.97,-3.13 -5.18,-7.92 -12.65,-14.36 -7.47,-6.45 -12.59,-9.37 -15.36,-8.77 -1.56,0.37 -3.25,1.96 -5.05,4.79 -1.81,2.83 -2.71,5.09 -2.71,6.78 0,1.44 0.54,2.89 1.62,4.33 7.47,9.64 19.27,23.07 35.41,40.29 11.68,12.4 17.53,20.53 17.53,24.39 0,1.32 -0.55,2.47 -1.63,3.43l-1.99 0.36 0.18 1.45z"/>
 </g>
</svg>
