<?xml version="1.0" encoding="UTF-8"?>
<!DOCTYPE svg PUBLIC "-//W3C//DTD SVG 1.1//EN" "http://www.w3.org/Graphics/SVG/1.1/DTD/svg11.dtd">
<!-- Creator: CorelDRAW 2017 -->
<svg xmlns="http://www.w3.org/2000/svg" xml:space="preserve" width="6.3498mm" height="3.8098mm" version="1.1" style="shape-rendering:geometricPrecision; text-rendering:geometricPrecision; image-rendering:optimizeQuality; fill-rule:evenodd; clip-rule:evenodd"
viewBox="0 0 634.98 380.98"
 xmlns:xlink="http://www.w3.org/1999/xlink">
 <defs>
  <style type="text/css">
   <![CDATA[
    .fil0 {fill:#ED3237}
   ]]>
  </style>
 </defs>
 <g id="Capa_x0020_1">
  <metadata id="CorelCorpID_0Corel-Layer"/>
  <path class="fil0" d="M338.23 270.99c-8.02,4.34 -4.25,1.81 -9.76,9.06 -5.65,7.44 -4.96,1.99 -8.64,10.81 4.48,2.39 3.51,3.09 8.82,-1.43 -0.72,4.66 0.23,1.96 2.43,3.65 -5.63,2.43 -4.08,2.54 -5.86,10.42 8.93,-2.15 6.13,-0.82 12.22,-7.23 5.67,-5.96 19.77,-22.49 22.02,-28.42 -8.39,2.21 -5.01,0.25 -11.39,5.35 0.51,-6.98 3.09,-8.01 5.76,-14.37 -10.73,3.4 -2.15,-2.52 -12.33,11.58l-3.27 0.58zm69.47 -11.86l4.63 -5.24c1.98,-3.02 1.69,-2.54 2.99,-5.89 -5.9,-1.09 2.46,3.1 -3.66,0.44 -4.32,-1.89 -0.05,1.92 -3.2,-5.35 -3.99,4.03 -2.89,3.74 -9.52,5.34l4.66 -5.51c1.98,-3.27 2,-4.56 3.35,-7.53 -5.03,-0.15 -6.63,3.16 -10.13,6.66 -4.14,4.13 -6.52,4.4 -10.22,9.56 2.35,8.07 0.95,-2.41 3.23,5.44l0.4 1.15c17.3,3.08 4.37,0.02 19.66,-5.92l-2.19 6.85zm6.79 -176.95c5.44,3.26 5.25,5.76 9.88,10.74 5.84,-6.78 4.92,-2 3.63,-5.41l-7.21 8.23c8,-0.82 9.53,0.53 18.33,1.33 2.68,-1.97 3.33,-2.62 6.11,-4.81l7.06 -6.72c-2.9,-2.74 -0.97,0.44 -2.82,-3.66l-2.04 -8.79c3.09,-0.71 2.45,-2.26 3.99,-3.49l-1.51 -3.85c-1.57,-8.16 2.22,2.87 -0.28,-4.06 -13.54,-1.54 -13.69,-0.18 -20.54,7.09 -9.58,10.16 -10.74,5.01 -14.6,13.4zm25.1 22.64c-0.05,0.14 -4.81,5.25 -9.28,6.62 4.19,4.17 4.82,1.58 7.13,4.48 0.83,1.03 0.98,4.93 1.15,6.07 -8.21,9.51 -11.84,9.44 -19.23,-2.49l-7.68 1.42c-4.71,-0.06 -8.21,-2.67 -14.13,13.47 7.74,-1.25 8.56,-0.31 17.82,-11.25 5.12,3.72 9.01,11.8 17.64,7.24l44.46 -43.55 5.06 0.68c-11,-18 -11.88,-1.33 -32.51,9.4 -6.03,3.13 -7,1.95 -10.43,7.91zm-153.26 87.96c2.02,0.92 4.85,1.69 6.42,2.3 1.89,-7.27 2.15,-1.94 13.93,-14.37 0.26,-0.29 0.6,-0.7 0.88,-0.97l39.94 -35.67c4.19,-4.65 1.95,-0.47 4.34,-7.48 -14.09,4.26 -37.55,31.67 -49.88,41.19 -14.12,10.91 -6.47,11.51 -15.63,15zm-32.55 -85.48l-7.33 -0.36c-0.38,0.86 -1.19,1.43 -1.29,1.48l-0.79 0.21c0.08,-0.03 3.9,-1.23 4.56,-1.44 -3.26,-5 0.16,-2.21 -3.99,-5.2 -6.5,4.04 -1.69,4.39 -11.56,6.3l2.12 4.44c0.22,3.02 -3.58,6.26 -5.7,8.4 -0.3,0.31 -0.84,0.78 -1.25,1.18 8.84,-0.88 16.31,-6.17 22.3,-11.81 2.82,-2.66 1.18,-1.13 2.93,-3.2zm-2.51 145.01c-2.27,-5 -5.15,-0.58 -4.01,-9.18 -0.01,0.01 -2.3,4.43 -6.67,1.27 12.01,-15.05 3.99,-4.72 10,-8.75 2.63,-1.77 3.69,-6.08 9.71,-4.22 -0.34,1.29 -1.71,0.23 -1.49,7.01 0.41,12.81 1.1,7.04 -7.54,13.87zm28.87 4.7c-0.06,-0.6 -1.26,-5.58 -1.25,-6.09 0.1,-4.11 2.02,-3.85 3.07,-7.51 2.75,-9.59 -3.59,4.03 0.55,-3.01 3.37,-5.75 4.93,-0.47 11.82,-6.95 0.27,-0.25 0.61,-0.68 0.88,-0.95l25.23 -21.88c7.87,-8.67 0.02,1.72 2.43,-8.24 13.42,-3.13 3.98,3.44 21.78,-10.71 3.78,-3 6.42,-3.33 10.86,-6.97 7.26,-5.95 0.78,-4.53 11.88,-7.86 -0.25,0.48 -0.72,0.6 -0.89,1.38l-3.61 4.74c-1.37,1.61 -3.98,4.51 -5.12,5.68 -3.38,3.45 -6.2,5.35 -10.41,9.39 -3.98,3.83 -6.75,7.42 -9.52,10.29l-39.43 36.25c-8.96,7.22 -3.56,8.39 -18.27,12.44zm102.64 -35.73c2.42,-7.27 22.63,-25.97 29.32,-32.57 2.51,-2.48 4.4,-3.04 7.34,-5.25 5.03,-3.78 6.21,-7.4 14.18,-11.65 -7.28,11.54 -19.95,22.82 -30.23,31.75l-12.37 12.98c-5.97,6.18 1.15,3.66 -8.24,4.74zm-96.45 -28.5c9.16,-3.49 1.51,-4.09 15.63,-15 12.33,-9.52 35.79,-36.93 49.88,-41.19 -2.39,7.01 -0.15,2.83 -4.34,7.48l-39.94 35.67c-0.28,0.27 -0.62,0.68 -0.88,0.97 -11.78,12.43 -12.04,7.1 -13.93,14.37 -1.57,-0.61 -4.4,-1.38 -6.42,-2.3zm80.17 -55.16c8.91,-2.14 1.84,-0.03 15.05,-11.92 3.15,-2.83 1.27,-1.94 3.98,-4.93l21.4 -14.46c-2.58,9.66 -5.78,5.88 -22.06,21.08 -4.51,4.21 -6.61,7.01 -11.35,10.33 -4.98,3.48 -1.3,0.21 -5.95,4.85 -2.51,2.5 -1.84,1.42 -4.5,4.61 -0.17,-0.31 -0.29,-0.83 -0.33,-0.99l-0.54 -1.99c-0.08,-0.28 -0.52,-1.29 -0.57,-1.97 -0.03,-0.46 -0.19,-0.67 -0.27,-0.81l-9.22 3.82c1.25,-8.41 10.71,-13.5 19.46,-16.24 -2.6,7.2 0.76,2.51 -5.1,8.62zm-85.89 -39.68c-4.12,-0.48 -2.33,0.32 -4.85,-1.41 0.27,-2.59 -3.76,-14.13 10.12,-9.17l0.77 2.23c0.07,0.4 -0.27,2.22 -0.51,3.18 2.31,-1.16 4.33,0.91 3.96,-4.89 -0.48,-7.45 -12.99,-6.02 -18.39,0.38 -4.79,5.65 -9.86,13.38 -17.93,19.04 -1.75,2.07 -0.11,0.54 -2.93,3.2 -5.99,5.64 -13.46,10.93 -22.3,11.81 0.41,-0.4 0.95,-0.87 1.25,-1.18 2.12,-2.14 5.92,-5.38 5.7,-8.4l-2.12 -4.44c9.87,-1.91 5.06,-2.26 11.56,-6.3 3.59,-4.76 20.79,-16.4 22.6,-27.47 -17.61,-7.29 -14.08,2.43 -28.55,7.09 3.41,-5.74 4.81,-3.95 8.82,-8.46 8.73,-9.83 4.13,-16.13 -4.76,-12.43 -3.7,1.54 -3.62,3.62 -6.38,6.8 -4.68,5.39 -7.06,4.63 -13.67,11.48 -16.67,17.26 -13.99,12.71 -22.51,20.9 -3.7,3.56 -1.61,1.32 -3.72,4.44 3.88,3.69 2.84,11.44 -0.22,16.54 -4.81,8.05 -17.51,29.95 -27.79,28.83 -6.95,-0.75 -1.7,-0.2 -4.06,-1.14l-3.54 -2.25c2.03,5.33 -0.62,1.46 3.1,4.61 0.31,0.26 0.77,0.55 1.11,0.79l5.28 2.51c-2.77,3.74 -2.13,3.07 -4.25,7.21 4.71,-1.61 13.06,-5.52 13.75,-8.28 0.14,-0.58 0.66,-0.59 1.11,-0.94 5.92,4.98 5.24,3.57 2.34,9.8 -4.41,9.47 -6.69,13.59 -15.05,12.64 2.41,5.42 5.35,4.3 13.55,-1.89 -3.37,5.61 -9.24,12.49 -10.45,19.34 10.19,10.88 17.83,2.27 31.83,-11.76 5.19,-5.19 8.5,-6.74 14.4,-12.59 4.88,-4.82 8.97,-7.51 15.15,-11.52 -5.58,8.28 -12.3,14.17 -18.08,19.37 -7.42,6.68 -15.64,14.2 -17.8,23.11 5.03,0.12 6.46,-2.25 11,0.6l-3.13 4.12c-4.77,7.94 2.12,-2.57 -1.72,4.51 -3.17,5.83 -2.26,0.95 -3.42,9.84 9.71,-4.45 1.94,-3.07 14.7,-15.45 4.5,-4.36 11.35,-9.13 17.22,-13.47l33.9 -26.82c3.73,1.12 -54.76,45.16 -64.6,60.71 7.58,7.53 5.28,11.16 28.32,-5.59 2.79,-2.03 6.01,-5.26 8.65,-7.66 7.04,-6.41 9.93,-10.33 16.71,-15.76 6.62,-5.3 10.2,-10.98 17.62,-16.75l74.88 -57.1c-6.31,9.26 -24.39,22.07 -34.73,30.67 -30.15,25.03 -39.58,31.38 -71.34,60.34 -26.56,24.22 -12.85,31.2 -22.43,29.01 -8.27,-1.89 4.29,-0.86 -2.8,-1.95l-11.99 9.44c2.83,2.44 5.36,3.99 7.61,5.7 7.7,-3.26 8.55,-8.36 15.27,-13.28 4.62,-3.39 11.71,-7.19 16.6,-10.8 -6.63,8.97 -23.71,18.96 -25.85,31.31 1.9,2.14 3.56,4.16 5.58,6.03 17.19,-1.16 10.53,-11.87 24.54,-14.63 -4.02,9.64 -6.92,6.93 -9.08,16.11 24.45,11.5 21.76,-8.44 35.65,-12.84 -3.83,5.46 -10.69,12.31 -16.63,17.41 -3.43,2.94 -19.2,13.19 -6.92,19.19 6.49,3.17 5.4,-0.49 13.65,1.17 18.15,3.65 11.28,-5.99 28.9,-20.78l80.82 -64.05c-4.36,7.71 -27.97,25.42 -32.81,30.94 -19.16,21.84 -31.47,32.81 -53.27,53.12 -3.22,3.01 -8.43,6.13 -6.89,10.97 1.35,4.28 7.93,7.99 13.15,4.54 2.8,-1.85 2.93,-3.45 5.19,-5.86 2.54,-2.72 2.8,-2.32 5.8,-5.18 3.97,-3.77 6.74,-8.54 9.67,-11.88l44.06 -41.68c-0.53,5.71 -1.01,4.04 -4.07,7.72l-2.48 3.02c-6.88,9.47 -12.21,13.06 -14.25,17.33l3.27 -0.58c10.18,-14.1 1.6,-8.18 12.33,-11.58 -2.67,6.36 -5.25,7.39 -5.76,14.37 6.38,-5.1 3,-3.14 11.39,-5.35 -2.25,5.93 -16.35,22.46 -22.02,28.42 -6.09,6.41 -3.29,5.08 -12.22,7.23 1.78,-7.88 0.23,-7.99 5.86,-10.42 -2.2,-1.69 -3.15,1.01 -2.43,-3.65 -5.31,4.52 -4.34,3.82 -8.82,1.43 -6.83,3.25 -19.09,15.66 -19.56,23.86 8.53,8.23 9.84,1.99 15.52,9.41 3.31,4.33 4.69,11.95 13.69,9.28 6.01,-1.78 21.16,-18.59 27.33,-25.01 8.05,-8.37 3.9,-9.13 7.27,-14.64l28.04 -23.91c5.69,-5.02 9.61,-5.94 15.58,-10.72l2.19 -6.85c-15.29,5.94 -2.36,9 -19.66,5.92l-0.4 -1.15c-2.28,-7.85 -0.88,2.63 -3.23,-5.44 3.7,-5.16 6.08,-5.43 10.22,-9.56 3.5,-3.5 5.1,-6.81 10.13,-6.66 3.79,-6.41 2.32,-2.6 6.88,-6.91 4.23,-3.99 3.51,-5.06 7.07,-9.13 4.43,-5.07 10.07,-11.07 16.05,-15.39 -3.17,-10.58 -9.38,-5.03 -4.58,-2.09l-8.22 1.67c1.43,-3.02 1.81,-4.05 3.64,-6.46l5.84 -5.4c5.12,-8.06 26.38,-24.88 31.41,-39.25 -1.55,-2.6 -2.32,-2.6 -3.01,-3.38 -3.52,-4.04 -0.56,2.25 -3.16,-3.83l9.23 -6.52c0.55,-0.21 2.36,-0.77 2.87,-0.94 0.44,-0.15 1.12,-0.38 1.48,-0.5 0.37,-0.13 1.04,-0.27 1.51,-0.51 -19.34,0.66 -14.76,-13.31 -0.22,-9.96l1.73 8.41c9.44,-4.36 2.25,-6.65 0.41,-10.83 3.33,-6.41 7,-11.73 8.27,-19.57l-10.98 -2.96c-9.11,14.29 -11.28,22.6 -24.37,35.35 -4.85,4.72 -6.14,4.17 -11.19,8.8 -6.49,5.93 -2.14,5.54 -8.85,10.78 -4.42,3.45 -9.15,3.03 -12.84,4.21 -5.44,1.75 -16.62,11.51 -23.65,14.74 22.41,-27.35 28.94,-27.58 45.56,-44.1l44.7 -44.11 -5.06 -0.68 -44.46 43.55c-8.63,4.56 -12.52,-3.52 -17.64,-7.24 -9.26,10.94 -10.08,10 -17.82,11.25 5.92,-16.14 9.42,-13.53 14.13,-13.47 4.3,-4.16 8.75,-6.5 13.57,-10.87 5.72,-5.19 9,-8.37 13.87,-12.98 -8.8,-0.8 -10.33,-2.15 -18.33,-1.33l7.21 -8.23c1.29,3.41 2.21,-1.37 -3.63,5.41 -4.63,-4.98 -4.44,-7.48 -9.88,-10.74l-5.84 3.61c6.91,-8.03 3.24,-6.02 14.84,-15.41 5.9,-4.78 13.75,-8.91 12.59,-18 -14.85,-8.63 -13.6,7.3 -31.36,9.93 3.38,-5.39 5.83,-4.87 6.62,-12.63 -8.53,-5.91 -9.05,-1.05 -16.34,4.48 -2.59,-3.93 -6.9,-11.6 -19.84,-3.43l-52.18 42.01c-10.57,11.23 7.5,3.16 -8.84,14.24l-26.58 20.44c-3.83,2.29 -6.07,2.71 -9.91,6.34 -5.89,5.55 -9.82,9.89 -16.94,14.94 0.8,-0.98 29.54,-27.46 34.34,-35.53 2.4,-4.04 1.49,-3.66 4.57,-8.11 2.78,-4.01 2.61,-0.72 4.49,-8.95 -21.95,-0.5 -25.45,12.84 -37.77,17.89 6.71,-11.13 9.93,-6.68 14.27,-16.06zm-119.45 48.38l3.54 2.25c2.36,0.94 -2.89,0.39 4.06,1.14 10.28,1.12 22.98,-20.78 27.79,-28.83 3.06,-5.1 4.1,-12.85 0.22,-16.54 -2.97,-12.39 45.07,-36.72 35.97,-46.99 -10.11,-11.41 -21,19.26 -37.42,23.29 6.93,-10.21 15.9,-8.92 19.92,-24.09 -10.52,1.2 -19.23,13.49 -27.08,18.88 -0.15,-0.31 -0.09,-1.28 -0.09,-1.04 0,0.22 -0.06,-0.87 -0.06,-1.02l0.05 -1.93c0.1,-3.45 3.07,2.4 0.1,-3.22 -7.06,5.29 -8.14,5.4 -13.78,12.78 -5.09,6.66 -9.02,8.14 -14.44,14.22 0.31,5.22 2.03,2.87 2.42,7.94 -6.56,5.01 -14.63,13.92 -9.92,21.62 9.96,-1.55 9.65,-13.55 23.47,-18.94 -1.81,3.77 -9.84,11.96 -13.31,15.65 -5.71,6.08 -8.85,7.22 -11.77,16.29 5.08,6.16 4.67,2.11 10.33,8.54zm5.24 15.12c-3.64,0.32 -0.98,-0.74 -3.75,1.12 0.17,7.66 0.53,9.44 5.9,12.1 8.36,0.95 10.64,-3.17 15.05,-12.64 2.9,-6.23 3.58,-4.82 -2.34,-9.8 -0.45,0.35 -0.97,0.36 -1.11,0.94 -0.69,2.76 -9.04,6.67 -13.75,8.28zm33.48 56.35c1.16,-8.89 0.25,-4.01 3.42,-9.84 3.84,-7.08 -3.05,3.43 1.72,-4.51l3.13 -4.12c-4.54,-2.85 -5.97,-0.48 -11,-0.6 -3.73,2.27 -9.07,10.07 -10.97,15.02 1.35,2.57 3.43,5.45 6.57,6.46 2.22,0.72 0.63,1 3.87,0.25 3.39,-0.78 3.19,-2.56 3.26,-2.66zm251.54 -148.19c-1.54,1.23 -0.9,2.78 -3.99,3.49l2.04 8.79c1.85,4.1 -0.08,0.92 2.82,3.66 5.53,-3.09 10.84,-6.37 9.7,-15.98 -3.67,-1.37 -6.79,-2.11 -10.57,0.04zm-170.81 28.34l5.53 -5.17c0.24,-0.96 0.58,-2.78 0.51,-3.18l-0.77 -2.23c-13.88,-4.96 -9.85,6.58 -10.12,9.17 2.52,1.73 0.73,0.93 4.85,1.41z"/>
 </g>
</svg>
