<?xml version="1.0" encoding="UTF-8"?>
<!DOCTYPE svg PUBLIC "-//W3C//DTD SVG 1.1//EN" "http://www.w3.org/Graphics/SVG/1.1/DTD/svg11.dtd">
<!-- Creator: CorelDRAW 2017 -->
<svg xmlns="http://www.w3.org/2000/svg" xml:space="preserve" width="5.5878mm" height="5.5878mm" version="1.1" style="shape-rendering:geometricPrecision; text-rendering:geometricPrecision; image-rendering:optimizeQuality; fill-rule:evenodd; clip-rule:evenodd"
viewBox="0 0 558.78 558.78"
 xmlns:xlink="http://www.w3.org/1999/xlink">
 <defs>
  <style type="text/css">
   <![CDATA[
    .fil0 {fill:none}
    .fil1 {fill:black}
   ]]>
  </style>
 </defs>
 <g id="Capa_x0020_1">
  <metadata id="CorelCorpID_0Corel-Layer"/>
  <rect class="fil0" x="-0" y="-0" width="558.79" height="558.79"/>
  <g id="_1766880593264">
   <g>
    <path class="fil1" d="M190.64 303.92l0 56.06 -77.08 0c-19.53,0 -23.63,37.37 4.67,37.37l401.75 0c10.97,0 7.01,-14.35 7.01,-42.04 0,-38.64 -27.96,-39.59 -63.15,-41.97 -26.17,-1.76 -251.71,-27.05 -260,-24.41 -5.82,1.86 -13.2,8.75 -13.2,14.99z"/>
    <path class="fil1" d="M31.81 259.54l0 282.63 36.15 0c3.91,-0.93 5.89,-2.94 5.89,-7.01l0 -70.07 408.76 0 0 70.07c0,4.07 1.98,6.08 5.89,7.01l36.15 0 0 -116.79 -450.8 0 0 -158.83c0,-36.03 -42.04,-31.39 -42.04,-7.01z"/>
    <path class="fil1" d="M15.46 145.09c0.88,10.61 16.01,37.24 21.02,46.71 10.61,-2.47 103.02,-50.34 120.68,-59.17 15.79,-7.89 114.24,-59.71 121.91,-59.22 11.36,0.72 227.27,114.67 243.25,118.39l21 -44.39c-23.6,-12.49 -259.21,-130.79 -263.92,-130.79 -9.74,0 -248.88,124.96 -263.94,128.47z"/>
    <path class="fil1" d="M97.21 301.58c0,44.52 45.99,48.36 63.76,28.73 20.96,-23.14 10.26,-61.43 -31.06,-61.43 -15.45,0 -32.7,17.26 -32.7,32.7z"/>
   </g>
  </g>
 </g>
</svg>
