<?xml version="1.0" encoding="UTF-8"?>
<!DOCTYPE svg PUBLIC "-//W3C//DTD SVG 1.1//EN" "http://www.w3.org/Graphics/SVG/1.1/DTD/svg11.dtd">
<!-- Creator: CorelDRAW 2017 -->
<svg xmlns="http://www.w3.org/2000/svg" xml:space="preserve" width="50.7998mm" height="33.8666mm" version="1.1" style="shape-rendering:geometricPrecision; text-rendering:geometricPrecision; image-rendering:optimizeQuality; fill-rule:evenodd; clip-rule:evenodd"
viewBox="0 0 5079.98 3386.66"
 xmlns:xlink="http://www.w3.org/1999/xlink">
 <defs>
  <style type="text/css">
   <![CDATA[
    .fil0 {fill:black}
   ]]>
  </style>
 </defs>
 <g id="Capa_x0020_1">
  <metadata id="CorelCorpID_0Corel-Layer"/>
  <g id="_2159944999968">
   <g>
    <path class="fil0" d="M2612.18 2738.45c1.03,20.57 -5.52,63.95 -6.8,88.79 -1.19,23.09 -5.31,75.9 -1.07,96.36 -0.79,13.44 -2.57,24.18 5.08,33.91 8.57,-3.68 6.75,-10.73 16.31,-21.99 8.14,-9.59 10.76,-16.99 14.18,-31.12 12.88,-19.16 10.69,-117.5 20.16,-142.73l22.77 45.92c8.1,17.6 16.62,35.85 19.14,53.42 8.6,3.09 5.26,-3.38 11.73,4.4l18.3 29.94c10.4,13.08 4.45,3.74 11.34,8.36 6.54,4.38 5.15,14.45 13.47,25.99 7.06,9.8 15.48,15.86 19.29,30.34 7.82,-5.14 5.48,-6.64 8.73,-5 -4.25,17.51 -5.92,-5.53 -5.56,21.34 11.32,-4.9 1.11,2.12 5.79,-5.58 3.54,-5.82 1.03,-2.71 3.48,-9.55 3.52,-9.86 -0.83,-7.47 7.67,-9.2 -3.27,-18.34 0.47,-19.04 5.64,-36.82 9.56,-32.85 19.43,-166.9 20.08,-204.42 1.08,-61.55 -3.65,-22.69 -5.8,-53.74 -0.44,-6.32 0.63,-4.45 -0.89,-11.53 -1.29,-5.99 -0.85,-4.13 -3.21,-7.56 -10.31,4.62 -3.51,-0.75 -9.13,9.94l-15.15 38.4c-16.63,59.9 -22.09,124.38 -23.87,187.65l-81.29 -194.07c-0.48,-0.29 -1.11,-0.85 -1.31,-1.04l-10.39 -15.24c-0.4,-0.85 -1.51,-3.34 -1.87,-4.22 -1.99,-4.94 -0.69,-1.91 -2.32,-6.6l-8.31 -17.78c-8.37,-12.75 1.27,-4.82 -7.27,-8.26 -13.88,15.16 -10.82,38.33 -19.9,57.78 -10.82,23.17 -13.51,45.63 -19.02,53.91z"/>
    <path class="fil0" d="M3420.21 2960.72c6.07,-6.85 23.01,-13.46 31.08,-19.1 6.76,-4.73 6.76,-5.28 12.94,-10.78 19.57,-17.41 45.57,-43.58 52.89,-72.87 -3.86,42.05 -25.96,61.53 -32.23,72.54 -6.09,10.67 -1.59,6.97 -11.19,15.88 -4.02,3.72 -9.34,8.91 -14.29,12.51 -5.83,4.22 -11.8,7.4 -19.02,8.04l-20.18 -6.22zm44.95 -100.21c-4.13,9.96 1.42,4.85 -8.26,9.79 -2.73,17.57 -24.31,35.08 -38.96,41.81 -6.32,2.9 -10.82,4.09 -12.01,-2.26 -0.15,-0.77 -0.55,-1.12 -0.93,-1.6 -4.8,7.75 -3.23,10.61 -15.87,6.62 -6.41,-2.03 -11.06,-7.96 -13.35,-11.54 18.43,-66.94 1.85,-73.76 41.9,-98.71l8.43 -9.95c14.52,-17.35 46.43,-21.65 52.08,4.25 3.66,16.8 -4.63,52.66 -13.03,61.59zm12.03 -12.76c1.47,-10.49 5.01,-18.32 6.14,-29.64 1.43,-14.3 -1.96,-21.3 -2.26,-31.06 4.5,7.5 17.74,8.94 13.59,30.58 -2.17,11.29 -11.97,23.77 -17.47,30.12zm-11.96 -74.48c17.81,-11.51 26.45,1.12 30.46,18.5l-7.22 -6.85c-10.29,-10.02 -10.08,-6.14 -23.24,-11.65zm7.26 -32.95c10.19,-9.37 40.52,-16.33 46.69,10.22 -16.33,-5.84 -24.31,-12.66 -46.69,-10.22zm-69.4 7.78c4.66,-53.93 37.18,-79.11 54.48,-69.25 10.15,5.78 6.4,13.77 -3.52,27.19 -16.47,22.29 -15.88,34.03 -49.05,59.87l-1.91 -17.81zm73.45 -117.13c-21.2,6.51 -19.73,5.85 -34.48,18.4 -15.56,13.25 -7.62,10.33 -28.36,24.3l1.04 -40.19 -17.48 2.01 -5.76 2.96c-0.73,11.1 -9.46,26.79 -14.32,38.49l-7.8 28.06c-0.51,12.76 -6.08,8.26 -7.6,21.43 -2.36,20.54 7.65,-1.32 0.5,15.88 -5.57,13.41 -3.8,0.57 -7.48,18.76 -1.6,7.92 -2.49,13.03 -3.38,21.24 -3.44,31.91 -2.2,66.38 -5.88,98.28 -2.52,21.9 -4.79,22.52 -1.28,45.75 2.5,16.5 -1.68,23.97 0.5,32.83 2.75,11.21 0.37,3.05 3.7,7.51 4.49,-4.47 9.45,-12.87 13.58,-18.84 0.56,0.71 1.04,1.77 1.42,2.32l4.46 6.18c12.65,13.25 37.87,-0.6 52.29,4.38 1.97,8.29 -5.16,3.5 8.04,9.7 3.77,1.77 11.06,2.64 15.29,3.58 5.17,-4.92 0.46,-1.13 7.64,-5.52 42.15,-25.7 33.57,-36.24 50.27,-45.81 -0.13,-12.7 9.21,-21.39 13.34,-36.64 3.71,-13.67 5.98,-26.76 8.19,-37.43 6.24,-30.12 4.18,-56.96 7.17,-88.77l-11.36 -26.35c-21.92,-9.77 -23.85,-7.3 -48.21,-0.83 3.38,-13.6 11.44,-26.16 16.18,-41.42 6.82,-21.98 -2.62,-24.83 4.21,-42.24l-1.37 -15.17c11.35,-0.32 2.57,-4.1 11.28,7.27l-1.67 -12.96 -12.44 -0.92 -10.23 3.76z"/>
    <path class="fil0" d="M2294.4 2863.76c0.91,-11.6 2.01,-45.36 8.41,-54.68 8.54,11.91 6.52,28.44 2.11,42.55 -5.72,18.26 -2.03,7.42 -10.52,12.13zm-111.01 -30.88c-1.14,9.77 -2.47,32.13 -5.57,38.31 2.04,5.01 0.69,14.43 4.89,-3.03 0.74,-3.1 1.62,-12.96 2.1,-16.72 0.58,-4.47 1.31,-11.36 2.35,-15.62 0.05,-0.21 2.16,-6.74 2.34,-7.14 2.15,-4.76 1.72,-3.63 3.94,-6.39 0.09,14.91 -2.41,21.9 -4.35,35.64 -4.44,31.38 -6.83,19.91 -2.16,35.25 -17.94,-10.77 11.6,9.97 -4.96,-5.08 -7.15,-6.49 4.31,-6.64 -3.66,-2.43 1.12,24.87 -3.71,62.35 7.14,72.81 0.77,0.75 5.23,3.82 6.39,4.88 4.97,-4.49 6.39,-7.04 9.24,-16.32 11.99,-17.58 21.53,-60.72 30.75,-84.53 5.08,-13.08 11.65,-29.31 20.42,-39.24 13.05,-14.8 17.34,-23.14 35.66,-24.5 8.55,11.51 6.48,5.74 4.54,26.6 -2.7,28.99 -4.92,82.55 -16.73,105.01 -1.75,18.37 -2.85,10.92 5.67,20.83l6.52 18.13c7.67,-1.65 2.09,-0.37 7.91,-4.07 4.82,-3.06 -2.53,-0.57 5.66,-4.38 -9.38,14.76 -14.12,7.39 -15.9,28.38 12.8,-3.84 14.22,-21.88 25.99,-34.43l14.84 -40.03c16.44,-39.64 30.1,-101.84 22.91,-144.71 -7.57,-13.95 -6.76,-3.97 -13.7,-18.51 -35.47,-8.32 -63.38,16.57 -76.42,19.77l23.47 -85.36c2.05,-19.27 6.7,-39.43 7.29,-55.84 -9.56,-2.7 -7.71,-4.93 -13.97,-9.81 -35.88,37.69 -37.76,54.21 -56.01,95.85 -26.18,59.73 -21.95,70.97 -36.59,116.68z"/>
    <path class="fil0" d="M4063.52 2940.56c-6.74,5.34 -3.64,-2.34 -3.84,7.24 -0.11,5.06 2.45,5.65 3.86,7.67 14.79,-6.28 2.27,-9.42 16.77,-16.62 19.79,-9.83 19.41,-38.13 30.31,-67.88 3.51,-15.6 1.95,-14.3 13,-22.7 8.25,-6.26 3.36,-2.58 9.22,-8.65 10.25,-10.64 -3.35,-4.92 11.66,-7.58 2.57,15.33 2.82,18.71 7.26,31.93 6.64,19.79 -1.99,22.1 15.71,24.71 5.11,12.19 8.49,23.25 14.51,34.56 10.22,19.21 16.8,13.27 19.19,28.82 -4.7,1.99 -1.31,0.55 -5.35,1.26l-12.55 1.72c11.81,9.83 -1.38,5.98 14.36,10.6 12.43,-9.55 0.41,-7.16 14.24,-14.17 22.15,-11.21 -7.96,7.81 6.41,-2.39 3.54,-25.51 -20.23,-76.9 -31.23,-114.76 -8.13,-27.97 -19.65,-8.93 -14.88,-29.89 17.04,-4.14 18.11,3.08 25.97,12.02 5.78,-15.02 -13.81,-14.31 -23.98,-22.32 4.97,-24.25 26.81,-30.49 46.54,-71.79l2.56 -6.69 -5.52 -4.89c-29.04,5.06 -43.12,19.98 -65.92,40.51 -3.48,3.14 -6.48,7.23 -8.43,9.36 -9.8,10.66 7.24,4.03 -13.19,8.94 9.32,-22.81 26.26,-119.43 26.29,-149 -5.9,1.13 -9.22,3.03 -9.4,3.08 -11.54,2.76 -8.27,-4.92 -19.45,4.91 -6.57,5.78 -7.77,14.13 -12.69,21 -11.86,16.55 -19.04,29.89 -26.55,53.16l-6.2 29.15c-5.55,24.22 -16.15,37.74 -24.25,87.07 9.01,-8.09 5.78,-10.41 8.23,-24.47l10.95 -23.51c-5.59,27.68 -8.94,60.52 -12.82,90.26 -3.64,27.98 -1.16,59.11 4.6,84.36 -7.25,-1.46 -4.8,4.4 -5.39,-5.02z"/>
    <path class="fil0" d="M1343.75 2949.87c-1.99,2.05 3.99,6.79 -11.86,5.09 -12.92,-1.38 -18.77,-12.76 -21.49,-22.96 8.85,4.56 22.69,12.58 33.35,17.87zm39.25 -2.48c4.81,-7 8.5,-15.02 19.54,-20.47 19,-9.37 4.67,-11.15 24.59,-15.08 -0.54,13.83 2.43,8.85 -8.91,16 -28.19,17.77 -10.01,20.02 -35.22,19.55zm41.12 -124c-1.45,18.64 -4.73,11.13 -7.85,14.43 -14.22,15.06 2.82,45.77 -31.08,68.92 -6.81,4.64 -19.54,11.89 -28.6,13l-8.84 -0.82c2.48,-7.3 35.1,-24.61 41.53,-32.79 -16.15,5.79 -28.76,17.44 -44.05,23.87 0.68,-22.52 8.05,-45.4 18.41,-67.02 8.27,-17.25 -7.07,-12.07 9.05,-20.15 17.96,-8.99 15.86,-29.8 41.68,-28.61 6.25,0.28 2.22,-1.62 7.69,2.05 1.08,7.93 2.71,18.77 2.06,27.12zm-59.34 -50.56c-4.51,6.73 -3.12,4.72 -7.75,7.75 -18.56,6.96 -24.75,20.41 -34.76,36.26 -10.06,15.93 -11.86,30.22 -20.27,47.38 -2.24,10.3 -5.98,48.17 -7.35,50.02 0.27,14.31 -6.23,22.84 0.54,37.53 3.33,7.23 12.76,14.88 21.89,15.83 10.71,1.12 50.63,-5.72 67.95,-6.64 0.24,-0.47 0.35,-1.3 0.47,-1.51 5.93,-10.23 10.18,-3.72 23.27,-11.28 10.99,-6.35 13.36,-10.71 20.96,-16.81 9.81,9.35 0.68,19.57 15.95,27.65 33.44,17.69 4.27,8.73 24.35,17.2l10.22 -24.04c1.79,-12.62 -2.99,-11.7 -1.16,-27.77 -9.5,-3.52 -5.66,4.78 -9.54,-12.34 -1.99,-8.77 -3.56,-13.9 -5.36,-22.01 -2.88,-12.93 -3.04,-36.51 4.87,-47.36 -2.25,44.22 5.35,41.33 6.55,56.48 1.3,-20.2 -1.97,-46.81 -3,-67.4 -0.89,-17.72 3.49,-23.03 3.63,-32.66 0.67,-47.28 -12.35,-17.23 -34.6,-46.05l-15.83 -0.21c-12.98,-10.29 2.56,2.15 -2.04,-8.97 -41.09,5.75 -47.26,21.68 -58.99,28.95z"/>
    <path class="fil0" d="M3088.11 2944.99c12.85,0.83 19.64,2.78 27.05,9.3 -4.54,2.28 -8.58,5.31 -15.95,3.07 -9.68,-2.95 -9.03,-9.98 -11.1,-12.37zm141.04 -73.17c5.81,12.45 5.72,19.15 0.53,30.05 -7.7,-5.11 -9.58,-12.58 -13.12,-23.58 -3.96,-12.34 -4.27,-15.74 -6.04,-28.05 17.13,8.44 8.65,0.2 18.63,21.58zm47.37 -113.41l-7.04 13.85 -0.03 15.34 10.4 -22.33c13.87,17.01 -6.48,34.24 -9.16,50.33 -0.66,3.97 0.33,2.54 -1.64,9.01 -2.97,9.72 -5.11,10.33 -7.36,21.96l-4.9 -16.39c-1.5,12.52 -2.33,31.42 -8.72,40.42 -9.8,-10.97 -7.06,-16.31 -13.8,-28.03l-53.11 -65.42 -5.73 -0.29c-11.52,15.82 3.72,18.51 -7.2,42.57 -5.26,11.58 -8.71,22.08 -13.52,34.31 -11.28,28.65 -19.93,52.75 -43.33,52.11 -15.15,-20.35 -35.05,-72.92 -32.54,-104.79 -9.65,-10.45 1.84,-29.7 -8.01,-38.97 -13.18,7.49 -2.41,4.08 -11.37,11.29 -1.91,1.54 -16.94,1.57 -18.41,37.11 6.1,-6.07 -2.78,-4.83 7.91,-8.96 1.14,6.86 2.86,11.4 3.27,14.07 3.7,24.61 4.85,80.41 15.93,103.8 5.09,10.75 3.82,0.79 7.72,17.19 -12,-3.69 -4.21,-0.3 -10.3,-5.44l-3.86 1.84c7.98,2.34 4.24,-1.16 8.59,7.04 18.63,4.82 6.68,3.79 17.47,16.48 7.75,9.12 16.76,7.94 25.37,4.71 29.5,-11.04 31.57,-5.49 49.29,-20.17 -7.36,4.08 -8.85,7.94 -18.78,6.99 2.57,-4.93 39.21,-52.53 47.99,-57.91 -2.41,14.5 -3.46,16.86 -10.85,26.91 11.01,-8.35 6.87,-10.25 14.86,-17.79 13.39,20.25 1.43,16.93 19.28,29.96 3.87,2.83 4.76,3.43 6.42,8.89 -2.68,-5.71 -3.48,-5.08 -10.36,-8.41 3.6,12.06 4.08,8.81 18.19,26.37 8.45,-6.22 4.12,-14.96 23.62,-9.9 0.2,0.05 0.89,0.47 1.34,0.38 4.67,-19.32 -4.07,-6.5 11.16,-15.46 4.93,-2.9 0.7,6.89 5.68,-3.94 1.91,-4.14 -0.29,-1.85 -2.1,-6.93 0.08,0.01 -5.46,-7.72 9.86,3.94 -1.11,-13.17 -0.42,-0.51 -1.91,-5.86 -3.97,-14.3 4.96,-17.87 11.78,-35.05 3.52,-8.88 3.84,-15.9 9.26,-23.37 9.2,-12.69 21.99,-13.88 21.26,-71.84 -0.42,-33.62 -6.77,-28.46 -27.68,-23.71l-2.68 -17.89 -12.26 11.98z"/>
    <path class="fil0" d="M3677.08 2928.48c14.13,9.63 23.66,12.11 32.77,20.6 -9.87,5.83 -13.27,4.54 -22.37,-2.31 -13.14,-9.91 -3.96,-5.26 -10.4,-18.29zm101.45 -17.08c12.74,-0.22 14.44,-6.63 15.84,7.05 -3.58,2.88 -12.67,8.86 -15.94,10.98 -0.51,0.33 -1.36,0.77 -1.84,1.07 -19.16,11.86 13.35,2.07 -25.87,15.94 5.6,-16.65 13.22,-19.17 21.4,-23.55 1.69,-0.9 13.88,-5.94 6.41,-11.49zm-34.95 -92.22c9.95,-4.4 0.85,0.56 11.41,-14.48 9.26,-13.19 20.68,-13.11 34.14,-14.7 1.01,16.78 4.21,22.44 0.72,39.89 -5.95,16.71 -3.98,-18.36 -15.65,36.64l-0.7 5.54c-6.46,38.52 -51.86,46.66 -58.74,44.23 3.84,-7.98 12.7,-11.89 19.7,-16.26 4.56,-2.85 5.41,-3.07 10.76,-7.01l10.28 -9.36c-13.26,5.22 -33.43,20.57 -42.33,22.39 -1.19,-11.82 -1.91,-14.86 2.1,-25.14l17.23 -49.66c0.01,-0.59 -0.47,-2.57 -0.46,-3.2 0.13,-11.81 7.09,-6.91 11.54,-8.88zm-18.56 -44.74c-5.96,9.4 -11.21,3.27 -20.16,15.52 -6.17,8.43 -5.57,12.44 -15.26,18.71 -1.02,9.45 -4.75,11.3 -9.2,22.38 -2.83,7.06 -4.96,14.84 -7.42,22.32 -9.58,29.15 -9.02,18.9 -8.79,53.23l-4.66 30.58c5.87,38.71 33.57,23.79 65.39,25.1 6.5,-5.97 1.58,-3.09 13.49,-4.17 5.51,-0.5 13.36,-0.31 19.09,-0.44 -9.52,-7.35 -4.47,-1.88 -3.86,-5.61 8.18,-3.27 6.92,-0.68 14.46,-2.78 9.44,-2.64 3.56,-0.3 12.33,-6.24l9.88 -7.73c8.15,-7.2 -4.19,-1.88 8.02,-6.57 7.09,12.62 -0.03,19.1 14.04,26.84 18,9.91 8.43,2.66 21.72,16.27 23.26,-23.48 8.89,-16.31 12.18,-49.59l-6.43 -3.94c-3.64,-4.72 -2.01,-2.48 -3.52,-9.22 -1.65,-7.41 -1.84,-8.99 -4.2,-17.69 -3.53,-13 -4.4,-39.51 1.97,-50.89 5.29,9.77 0.37,33.25 5.96,46.24 4.77,-6.5 -0.57,-46.57 -0.79,-62.76 -0.01,-1.42 7.57,-55.49 -3.42,-57.45 -35,-6.24 -10.11,-10.44 -33.06,-16.81l-1.47 5.03c-17.31,-16 -4.5,-1.38 -11.92,-14.32 -46.86,10.03 -36.94,16.13 -64.37,33.99z"/>
    <path class="fil0" d="M981.21 2835.88c-2.57,21.88 -6.2,20.22 -26.59,25.27 0.71,-4.34 0.97,-8.85 2.32,-13.24 2.59,-8.45 2.85,-5.7 4.93,-8.77l19.34 -3.26zm46.26 -117.46c-12.87,7.25 -17.77,24.33 -24.04,41.7 -10.1,27.98 -4.36,29.53 -33.98,35.09 3.73,-21.19 12.26,-40.94 9.77,-64.04l-23.58 9.53c1.44,-5.08 1.45,-6.65 4.21,-9.25 6.9,-6.49 -3.18,0.51 2.9,-0.76l3.74 -13.68c-19.74,0.74 -17.28,1.3 -21.04,9.6l-5.15 8.94c-0.56,11.48 -16.48,68.79 -20.98,74.41 -6.7,7.82 -39.25,15 -49.75,18.8 9.05,6.17 8.55,2.45 20.81,-1.05 0.17,0.52 -0.06,1.39 -0.08,1.64l6.01 20.35 -20.46 6.13c10.27,5.4 13.85,-4.71 37.47,-6.06l-2.81 20.15c-5.92,4.38 -40.54,16.59 -45.78,18.01l-3.59 15.8 19.27 0.89c-10.74,7.54 -16.21,4.79 -23.69,12.78 12.66,-1.97 23.8,-5.88 35.19,-4.41 7.7,0.99 7.87,3.26 10.77,4.77l2.55 0.68c-2.08,20.84 -4.13,10.15 -6.9,15.61l-4.9 17.6c-4.67,-13.69 -1.6,-19.28 0.71,-34.71 -1.37,1.89 -2.21,2.63 -4.1,6.59 -13.02,27.3 2.24,33.85 18.22,37.83 6.97,-10.53 8.44,-20.87 13.33,-28.91 13.39,2.77 10.96,5.24 15.86,15.34 9.54,-63.66 12.97,-49.51 32.57,-58.62 14.17,7.87 11.67,8.88 11.04,16.02 -1.14,-0.46 -4.82,-1.24 -5.94,-7.39 -0.25,-1.37 -0.82,-1.8 -1.51,-2.63l3.89 41.15 10.14 2.98c-2.9,11.6 2.25,-4.64 -2.11,4.97l-2.24 4.72c-2.36,5.08 -2.44,1.24 -4.31,9.56 18.61,-10.28 28.93,-59.49 33.22,-79.86 6.2,-7.9 13,-6.46 24.27,-10.98 22.35,-8.97 -2.63,-9.5 27.67,-12.27 0.82,-2.69 4.84,0.34 -4.12,-5.16 -2.67,-1.64 -7.68,-3.46 -10.6,-4.33 -10.26,-3.04 -16.62,-2.77 -28.1,-2.27 6.69,-43.83 16.29,-21.75 48.18,-37.29 14.3,-9.29 -9.89,-0.69 12.73,-14.79 10.3,-6.42 12.47,-4.46 14.22,-18.18 -11.8,1.32 -19.3,5.97 -30.27,1.99 2.4,-3.67 0.26,-2.19 6.63,-5.36l22.7 -6.46c-3.59,-2.93 -3.45,-4.59 -15.37,-1.39 -12.98,3.49 -35.76,12.34 -48.16,12.44l4.82 -29.04c0.52,-7.18 0.21,-20.8 3.31,-26.57 6.19,-11.58 1.56,-3.79 10.84,2.62l-5.08 -15.64c-0.16,-1.15 -0.68,-1.46 -1.19,-2.08 -8.15,8.52 -5.48,9.25 -17.21,14.49z"/>
    <path class="fil0" d="M2112.69 2611.78c-5.66,12.42 -1.9,5.96 -10.88,13.13 -26.8,21.39 3.9,5.97 -41.82,24 -24.64,9.71 -39.39,14.49 -61.11,26.37 -4.31,6.45 -8.08,7.98 -6.81,12.86 9.95,-6.98 8.7,-9.64 22.45,-14.46 -0.5,0.63 -1.49,0.58 -1.75,1.68 -0.25,1.09 -1.36,1.3 -1.69,1.71 -0.4,0.51 -2.5,2.81 -2.93,3.54 -1.03,1.73 -8.24,1.46 1.99,17.53 2.04,3.2 4.01,5.97 5.7,8.45l50.5 -7.43c-6.81,35.77 -9.02,65.13 -11.15,100.18 -1.06,17.32 -1.61,32.37 -0.91,49.27 0.93,22.43 -4.6,24.58 -4.59,34.51 0.03,16.23 -2.32,4.97 3.39,11.24 17.97,-7.51 3.52,-0.73 9.87,-16.21 3.38,20.36 -7.4,0.11 -5.4,28.12 0.84,11.76 3.64,19.13 3.91,32.72 8.29,-2.52 1.82,-0.51 11.29,-15.2l6.86 12.22c6.23,-8.1 3.59,-9.77 7.07,-19.59 3.89,-10.97 5.78,-3.29 11.1,-18.83 -3.31,-1.05 -1.88,-0.34 -3.74,-0.28 -10.22,0.33 6.34,2.94 -2.17,0.28 6.37,-13.13 5.45,4.51 9.72,-19.78 0.68,-3.9 0.68,-8.38 1.02,-11.35l8.99 -67.92c5.57,-38.42 6.41,-71.53 11.09,-111.09 14.86,-2.51 90.73,-34.21 102.41,-46.4 9.02,-9.41 12.93,-17.99 27.18,-20.6 -0.9,-7.59 10.69,-13.63 -28.81,-7.81l-90.51 15.58 -3.41 -13.54c-0.51,-3.46 -0.3,-6.66 -0.94,-10.22 -9.09,1.9 -10.71,3.73 -15.92,7.32z"/>
    <path class="fil0" d="M2499.51 2805.29l7.76 -6.97c5.7,-6.02 -1.19,-0.8 7.87,-6.9 -4.51,26.57 -16.86,35.94 -40.35,43.71 6.71,-13.97 16.21,-16.69 24.72,-29.84zm0 0c-15.63,6.48 -26.73,34.82 -57.43,37.49 -9,0.79 -15.69,0.9 -20.48,-3.38 13.69,-11.64 14.18,-2.39 22,-3.73 7.71,-12.17 1.15,-1.52 4.06,-10.96 6.6,-21.47 14.66,-0.5 20.51,-24.38 -14.66,6.15 -9.39,8.34 -25.32,13.18 3.96,-8.09 18.92,-17.56 26.21,-23.7 12.66,-10.66 11.95,-16.51 34.7,-18.53l-15.52 10.25 20.74 5.91 -9.47 17.85zm-36.24 -50.74c2.89,-2.59 8.61,-4.63 12.98,-5.3 23.71,-3.65 9.96,-0.63 14.9,4.13 -15.29,6.96 -19.19,9.16 -27.88,1.17zm-75.63 197.62c5.04,2.27 2.52,0.61 8.07,4.26 11.76,7.74 -4.25,-3.48 3.79,2.72 6.06,4.66 2.35,1.78 5.59,4.93 13.02,-0.53 28.88,2.55 43.14,3.66 20.85,1.63 23.43,4.45 35.81,-8.69l-1.84 -5.53c-6.02,8.57 -6.99,9.9 -23.59,12.68 4.65,-18.02 19.95,-3.84 33.36,-25.38 10.46,-16.81 17.5,-23.52 18.68,-38.64l-15.31 6.73c0.76,3.48 5.29,5.36 2.7,10.44 -5.16,10.09 -4.65,1.74 -4.87,1.72l-3.79 -1.36c-0.27,-0.82 -1.28,-0.79 -2,-0.94 -37.72,12.79 -45.48,3.8 -68.25,-15.22l11.4 -3.44c7.62,-2.04 -1.25,3.89 8.15,-2.52 -14.92,-7.83 -1.46,4.32 -13.59,-6.47 58.91,-17.4 38.14,-22.51 67.82,-35.78 6.69,-2.99 8.88,-2.13 15.82,-5.34 10.79,-4.98 10.11,-11.05 24.44,-16.62 -2.85,8.7 4.53,3.28 -6.77,8.84 14.62,1.11 10.68,-8.82 18.19,-21.46 5.34,-8.98 13.75,-14.45 18.15,-23.88 5.34,-11.44 1.71,-22.97 -2.52,-34.79 -6.23,-17.4 -12.83,-8.44 -23.69,-16.62 -21.4,-4.42 -25.49,3.33 -45.99,1.1 -21.16,-2.3 -26.81,-2.33 -38.91,10.8 -16.07,17.43 -28.81,37.85 -45.78,52.55l-26.86 23.66c-13.37,13.7 -9.95,17.76 -9.03,40.24 0.59,14.26 0.32,31.68 4.26,45.04 6.3,21.37 12.2,27.76 13.42,33.31z"/>
    <path class="fil0" d="M2979.06 2800.37l11.32 -11.16c4.89,23.88 -21.1,36.13 -38.09,43.35 6.11,-12.88 18.61,-18.77 26.77,-32.19zm0 0c-5.81,2.56 -0.51,-0.36 -5.61,3.25 -18.36,12.98 -23.17,34.31 -60.34,36.74 0.49,-0.69 1.24,-1.49 1.61,-1.94l8.3 -11.03c5.51,-10.63 -1.64,-3.74 5.37,-12.26 9.01,-10.96 16.09,0.11 16.94,-17.69l-24.67 12.89 12.71 -14.24c26.38,-19.05 27.1,-25.82 47.29,-27.41 -8.21,8.58 -7.44,4.94 -16.44,10.18l21.94 6.33c-4.02,5.99 -6,7.11 -7.1,15.18zm-42.93 -53.35c-22.82,21.69 -30.59,40.71 -57.37,63.27 -11.5,9.68 -21.33,14.53 -29.51,30.11 -5.95,11.34 -0.13,34.75 -2.57,52.99 7.41,10.74 3.37,40.04 21.67,55.87 16.2,14.02 38.38,13.69 62.86,15.52 19.14,-9.32 -15.43,11.78 5.09,-4.35 8.88,-6.99 11.23,-6.82 26.03,-11.91 -3.8,4.35 1.5,-0.28 -5.15,5.28 -0.42,0.35 -4.98,3.7 -5.55,4.06 -4.35,2.72 -8.08,3.78 -12.14,6.12 5.65,2.13 9.84,1.67 15.65,-2.57 10.01,-7.3 0.85,0.22 5.6,-6.21l5.29 -7.75c0.34,-0.47 0.93,-1.41 1.54,-1.98 1.95,-20.83 21.06,-22.32 20,-46.1l-15.44 4.64 2.36 3.9c0.93,2.24 8.45,11.87 -4.29,10.67 -26.03,-2.47 -5.83,4.66 -40.63,2.17 -27.89,-2 11.02,7.02 -21.75,3.13 -3.9,-25.61 4.02,0.62 5.51,-9.76 -9.25,-5.18 -11.76,-6.76 -17.72,-15.42l21.54 -2.02c-0.76,-0.65 -2.07,-1.89 -2.47,-1.23 -0.02,0.03 -8.47,-1.73 -11.31,-8.73 33.72,-11.01 29.52,-7.46 55.01,-26.78 13.36,-10.11 18.17,-7.45 28.07,-13.84 11.76,-7.59 5.39,-12.32 23.87,-15.29 -1.56,6.71 -3.52,7.74 -7.36,10.57 19.84,-4.7 7.9,-5.86 19.34,-24.45 5,-8.12 17.36,-18.82 20.19,-28.02 2.43,-7.88 -2.32,-27.14 -6.58,-33.96 -6.07,-9.72 -22.96,-11.78 -36.15,-14.19 -49.29,6.96 -24.71,14.12 -46.03,16.28 -7.85,0.8 -8.28,-0.52 -12.76,-4.63 7.39,-8.5 2.04,-2.83 19.16,-8.33 0.7,-0.23 2.1,0.07 2.62,-1.05 0.51,-1.11 1.81,-0.6 2.4,-2.21l-29.02 6.2z"/>
    <path class="fil0" d="M1124.15 2704.76l-22.09 186.87c4.95,12.94 -4.81,-7.83 2.32,3.01 0.27,0.42 1.11,1.61 1.35,2.11 0.1,0.22 0.46,0.95 0.55,1.19l2.81 44.2c10.83,2.72 1.42,14.54 -3.8,19.42 -0.45,0.42 -1.38,1.02 -2.03,1.58 1.64,13.86 -1.15,1.45 7.61,5.63 -0.1,-8.99 1.2,-11.11 7.68,-16.51 0.36,-0.48 2.32,-4.67 2.47,-5.46 0.06,-0.33 0.2,-1.32 0.24,-1.67 0.04,-0.33 -0.05,-1.23 -0.03,-1.55 0.15,-2.22 -9.99,2.83 3.47,-9.02l10.72 -27.21c3.14,-11.5 5.65,-15.44 9.6,-26.21 3.23,-8.78 4.58,-23.94 4.53,-26.02l0.91 -26.07c6.58,-2.8 -4.01,-2.14 2.55,0.25 0.33,0.12 0.61,8.16 2.39,1.36 0.13,-0.48 0.88,0.65 1.38,0.85 2.03,-24.07 0.96,-3.79 -3.27,-16.22 8.13,-1.56 15.35,-2.16 23.02,-3.71 18.98,-3.83 17.36,-9.17 18.72,-11.12l-29.25 6c12.14,-2.52 30.27,-19.1 47.42,-20.32 -4.98,3.18 -11.18,8.8 -13.72,16.05 11.11,-2.32 9.06,-1.26 15.6,-8.79 9.04,-10.43 -0.3,-7.37 12.18,-10.77 3.07,-24.9 8.58,-23.98 12.23,-31.06l-6.21 -7.16c-18.18,0.66 -57.31,5.69 -71.69,4.39 1.51,-17.22 1.76,-38.44 8.67,-52.55 38.36,-10.75 18.6,3.18 69.93,-18.07l3.49 -1.14c0.42,-0.11 1.29,-0.19 1.71,-0.28 10.94,-2.26 10.29,-1.84 22.38,-9.08 16.18,-6.04 46.32,-26.59 58.31,-28.06 6.95,-10.63 7.7,-3.42 11.18,-16.24 -7.53,-0.91 -15.71,-2.65 -23.97,-2.88 -4.58,-0.13 -9.41,-0.16 -13.72,1l28.69 3.7c-9.75,20.79 -14.16,6.9 -14.34,6.85 -25.44,-7.39 -42.69,4.75 -70.09,7.21l36.79 -9.75c7.59,-3.12 3.11,-0.82 7.07,-3.64 -43.44,1.02 -76.92,23.36 -115.38,34.15l-0.69 -19.64c-10.01,2.89 1.46,2.78 -5.91,5.96 -9.64,4.18 2.42,0.29 -9.9,-2.28 -6.61,19.77 -9.15,3.8 -20.62,24.58 -5.58,10.1 -12.46,24.93 -11.26,36.12z"/>
    <path class="fil0" d="M1830.84 2872.7c20.17,-1.94 38.36,10.4 49.9,17.9 18.45,11.99 33.61,10.95 43.13,27.84 -29.36,21.23 -60.46,-18.32 -85.24,-24.93 -7.78,-2.08 -7.85,-2.59 -13.76,-6.85l-6.38 -5.29c-3.6,-4.24 -2.78,-1.3 -2.72,-5.78 14.67,-3.58 1.39,-1.81 9.16,2.03 8.16,4.04 3.56,1.41 8.91,6.04 0.15,-4.22 -1.22,-7.25 -3,-10.96zm-14.46 -8.83c3.95,-4.45 -3.79,-6.68 15.52,-6.57 3.77,0.03 10.79,1.31 14.6,2.08 16.97,3.43 54.37,22.53 60.8,38.04 -21.7,-5.91 -25.09,-12.39 -41.73,-21.16 -16.15,-8.51 -35.68,-7.09 -49.19,-12.39zm106.36 -117.3c-3.65,1.8 -14.39,3.58 -20.79,9.35 -6.46,5.83 -8.52,10.76 -16.21,16.59 -7.2,12.15 -21.82,22.49 -14.63,44.3 5.76,17.46 4.71,31.43 12.21,51.63 -20.27,-3.74 -39.79,-24.81 -65.09,-14.43 -12.43,5.09 -9.74,15.01 -12.06,23.89 -3.44,13.15 -12.22,19 5.14,25.88l-6.63 11.14c19.38,7.26 17.27,16.87 28.25,23.09 11.13,6.31 8.16,-4.36 16.53,4.54 16.97,18.06 -4.07,-4.83 -0.55,12.2 29.7,12.36 31.23,7.71 66.55,9.29 39.9,1.78 15.18,-12.34 44.84,-18.79l-1 -6.63 -7.54 2.35c-2.44,-25.75 20.78,-33.18 8.73,-61.7 -5.25,-12.44 -33.14,-30.23 -30.4,-41.19 9.96,-4.99 39.93,16.67 45.64,26.17 9.41,15.63 8.98,53.9 -7.07,60.17 0.54,1.33 -3.47,12.06 6.92,-1.63 1.75,-2.31 5.14,-10.74 7.26,-14.1 8.05,-38.62 -0.73,-51.29 -23.91,-66.02 -25.71,-16.33 -43.81,-12.4 -42.91,-54.56 35.88,-17.88 84.1,4.08 106.51,-12.7 -2.09,-12.2 -6.42,-10.11 -15.63,-19.81 -18.4,-19.39 -59.47,-12.09 -84.16,-9.03z"/>
    <path class="fil0" d="M1576.47 2660.22l-10.56 20.82c-4.75,9.18 -7,14.55 -10.66,22.99 -1.36,3.12 -7.82,21.15 -9.22,23.61 -9.55,16.92 -28.23,4.76 -22.54,34.51l-7.29 -3.73c-2.2,-0.62 -3.62,-5.52 -6.85,5.07 9.8,4.87 9.25,1.99 20.6,3.89 -1.12,11.14 -13.85,38.61 -17.61,94.24 -1.1,16.24 -6.02,77.29 -0.55,90.5 0.8,0.3 1.87,0.33 2.54,0.39l5.37 0.44c30.72,1.28 13.81,-1.14 25.7,9.21 3.54,-15.64 -1.62,-19.79 4.07,-34.25 6.14,-15.62 1.65,-14.45 4.57,-30.28 1.73,-9.41 15.46,-37.78 20.12,-50.7 -8.36,-6 2.16,1.66 -7.11,0 0.04,-3.96 11.41,-77.41 17.63,-83.89 0,-0.01 72.63,-30.5 90.51,-28.65 -5,-36.54 -52.86,-18.64 -56.3,-31.56 -0.25,-0.91 -0.95,-1.09 -1.44,-1.62 -5.55,8.63 -2.46,8.18 -7.65,5.67 1.67,-8.21 5.12,-30.33 6.24,-39.93 1.57,-13.39 -2.67,-24.89 5.35,-36.43 9.73,15.05 -0.97,53.02 -4.05,67.78l3.65 -5.46c0.29,-0.57 0.69,-1.37 0.96,-1.99 5.18,-11.58 11.91,-52.98 6.64,-61.45 -27.07,-22.47 -42.22,13.6 -52.12,30.82z"/>
    <path class="fil0" d="M1710.64 2745.58c-2.22,13.68 -3.45,26.72 -4.57,44.79 -0.63,10.13 -3.28,49.13 -3.98,52.18 -0.46,16.67 -1.62,70.31 -10.06,78.83 -26.8,27.06 -37.14,18.61 -46.23,39.85 16.82,2.52 13.21,2.93 17.71,7.86 5.8,-3.23 15.11,-2.57 24.24,-4.88 7.96,-2.02 6.5,-3.15 12.59,-2.5l12.6 3.85 2.03 -12.6c15.48,-9.34 25.43,-5.01 42.76,-19.34 24.28,-20.08 34.4,-13.13 30.43,-27.86 -9.57,-3.87 -6.42,-1.16 -15.84,-2.24l-11.91 -3.06c-11.18,-4.93 -2.14,-4.75 -24.82,-2.2 9.74,-33.28 16.31,-72.7 19.44,-110.74 1.91,-23.31 4.61,-41.43 5.97,-62.53l0.36 -59.62 13.53 -10.84c12.56,-7.99 8.81,1.33 13.89,-13.21 -6.46,-9.31 -7.33,-1.98 -11.44,-10.54l-1 -9.44c-0.02,-0.97 0.17,-1.43 -0.02,-3.08l-15.18 -0.62c-9.56,1.8 -55.63,20.06 -59.9,23.86 -4.83,7.28 2.04,-2.91 3.09,6.28 0.68,6.01 -0.97,-0.83 -2.77,11.13 3.94,0.85 6.1,1.02 9.46,2.78 14.88,7.77 -4.16,-6.3 5.93,5.08 -8.05,4.33 -9.24,4.62 -12.96,14.14 2.83,-1.72 9.8,-6.62 9.92,-6.64 23.48,-4.27 6.03,-2.01 12.83,4.39l-24.39 6.55c11.23,3.89 8.21,1.97 20.62,0.3 -4.19,17.06 -8.65,48.26 -12.33,60.07z"/>
    <path class="fil0" d="M3925.69 2869.46c13.05,17.96 9.31,15.21 17.66,36.17 -12.44,-1.19 -20.15,-4.05 -24.96,-23.32 -9.28,0.01 -8.33,2.1 -9.78,-13.68l13.04 -4.4c2.02,2.44 0.63,0.53 4.04,5.23zm-17.39 -79.04c5.05,-21.9 32.85,-59.22 63.07,-46.94 -2.73,2.17 -0.22,1.2 -6.2,3.52 -34.35,13.27 -24.22,19.25 -56.87,43.42zm6.22 161.14c5.6,-1.02 15.64,-2.72 21.09,-2.78 19.49,-0.2 38.65,23.79 59.93,12.42 0.96,-7.54 -11.17,-5.24 -7.82,-19.55l-10.54 -6.33c-0.85,-0.28 -1.93,-0.87 -2.63,-1.14l-5.89 -4.06 18.95 -8.39c-1.6,-25.76 -2.88,-8.89 6.55,-27.58l-11.06 1.15 -17.32 3.52 -9.52 -19.84 -2.49 9.6c-0.05,-0.4 -0.21,1.26 -0.49,1.83 -2.05,-1.1 -40.62,-35.89 -22.39,-65.29 7.9,-12.76 5.73,-2.16 16.31,-12.95l32.9 -28.81c8.52,2.94 28.53,14.8 34.09,22.56l13.25 -11.89c12.44,4.33 3.93,5.14 19.39,6.57 -4.14,-41.22 -27.43,-26.11 -33.66,-57.33 -9.23,-1.3 -16.41,-0.95 -25.16,-1.95 -12.55,-1.42 -12.38,-3.88 -21.06,-5.72 -43.02,-9.14 -62.48,48.48 -73.44,78.42 -8.68,23.68 -33.29,43.9 -27.08,78.17 3.14,17.33 9.52,22.62 16.95,37.5 8.13,16.3 9.56,19.54 31.14,21.87z"/>
    <path class="fil0" d="M3650.24 2608.27c-3.32,14.4 -4.24,5.77 -12.85,19.02l-14.6 30.23c-1.66,4.21 -0.93,3.07 -2.41,6.75l-26.11 82.77c-1.82,16.27 -10.48,26.29 -12.59,37.49 -4.82,25.59 -5.24,0.36 -4.39,19.8 0.39,8.76 1.87,4.69 0.35,9.3 -2.99,9.03 -4.5,-5.49 -5.52,17.07l-0.55 5.81c-0.05,0.31 -0.19,1.17 -0.24,1.49 -3.1,18.37 -14.21,63.03 -8.77,81.3 -2.81,37.51 10.16,23.61 7.65,40.21 -1.52,10.08 -2.48,-1.28 -4.26,12.85 21.16,-8.72 9.98,-20.18 29.54,-53.43 12.24,-20.81 10.29,-45.39 16.85,-50.36l16.59 -59.55c1.28,-14.63 0.34,-8.14 3.91,-11.29 0.08,-23.24 8.92,-30.45 9.12,-54.24 6.98,-8.52 27.12,-122.24 31.91,-144.67 -4.52,1.43 -10.05,3.2 -12.99,4.34 -9.67,3.75 -1.91,-0.31 -10.64,5.11z"/>
   </g>
   <path class="fil0" d="M822.7 1490.42l8.5 -78.4c2.8,-16.8 4.12,-21.78 21.06,-19.67 0.39,-12.96 -5,-6.07 -1.69,-19.3 14.73,-2.06 14.68,3.07 20.37,12.19 7.43,11.88 6.98,2.85 11.24,20.35 5.91,24.23 16.62,12.22 9.77,47.81 -3.16,16.43 -36.8,79.39 -57.8,70.38 -11.84,-10.62 -9.08,-14.71 -11.45,-33.36zm-467.95 -1100.54c-4.01,-11.38 2.8,-22.31 16.36,-21.23 -1.84,11.3 -8.11,17.52 -16.36,21.23zm-123.88 170.95c3.42,4.62 -2.41,27.63 -2.75,36.63 -0.69,18.23 3.3,27.92 0.87,43.52 -5.84,37.52 -4.25,52.03 -2.73,89.85 3.73,4.65 4.18,36.68 1.74,42.43 -5.23,12.27 -18.96,10.73 -29.01,22.85 -6.25,7.54 -6.98,6.49 -12.59,12.33 -3.4,3.54 -9.63,11.68 -12.06,14.97 -20.75,28.06 -18,67.06 -22.02,84.55 -5.16,22.42 -20.9,46.41 -28.23,102.87 -0.86,6.65 -1.08,17.52 -5.35,21.55 1.22,11.81 -0.37,24.08 0.88,35.13 1.32,11.61 7.07,13.69 10.78,23.38 11.94,31.17 9.17,16.2 26.75,43.39 14.12,21.82 34.48,35.07 -10.45,56.9 -7.94,3.86 -14.51,9.54 -22.87,13.25 -23.77,10.56 -12.99,2.53 -45.59,22.19 -10.72,6.46 -44.23,38.83 -54.01,50.06 -5.47,6.29 -8.31,12.2 -12.57,21.34 -24.89,53.37 -4,121.74 8.01,176.64 2.11,9.61 6.41,18.52 7.09,26.74 0.77,9.33 1.6,23.46 1.61,31.01 0,0.53 -4.11,13.44 13.29,17.82l315.72 0.01c7.19,-7.1 13.37,1.4 21.03,-16.52 5.97,-13.97 11.5,-13.49 13.98,-28.86 2.2,-13.55 2.62,-23.14 5.14,-35.54 2.38,-11.72 4.2,-24.82 6.73,-36.27l9.2 -31.52c9.96,-25.56 5.29,4.72 6.87,-35.88 0.44,-11.35 2.83,-25.36 9.47,-31.51 17.66,-16.37 4.48,2.35 15.04,-27.49 12.26,1.54 11.18,5.87 22.4,-0.35 0.91,-7.21 1.86,-16.42 -0.51,-23.02 -3.89,-10.82 -7.93,-1.62 -3.26,-19.09 2.43,-9.12 3.93,-38.85 3.46,-48.57 -0.48,-10.01 2.33,-12.7 3.1,-21.88 1.01,-12.15 -4.62,-67.57 -1.09,-73.56 14.64,-11.84 28.55,-11.5 41.66,-0.2 10.9,9.39 4.9,6.56 21,11.01 11.71,3.24 8.21,6.36 20.11,11.54l15.99 -8.9c-2.18,-12.31 -7.53,-10.94 -6.96,-20.79l-11.29 -0.16c-5.85,-6.06 -2.78,-4.75 -7.13,-10.97 -24.73,-35.33 -37.68,-35.53 -62.9,-61.37 -29.86,-30.61 -12.5,-14.76 -24.32,-29.95 -2.64,-3.4 -5.24,-5 -7.31,-8.45 -7.96,-13.21 -16.41,-43.42 -11.78,-53.05 1.13,-18.6 9.84,-19.09 12.82,-34 2.26,-11.31 -3.83,-23.44 -5.85,-34.72 -4.32,-24.22 2.14,-51.35 2.32,-79.38 0.14,-23.76 13.26,-49.83 29.94,-56.14 9.32,-3.52 43.96,-1.63 75.56,-10.27 -22.86,-11.8 -17.51,-0.92 -30.3,-7.98 3.02,-16.49 26.13,-10.77 44.32,-11.96 -0.5,-10.49 -5.72,-6.78 -6.66,-11.8 -0.11,-0.62 -0.62,-0.74 -0.79,-1.19 -17.3,-6.22 -20.77,-16.03 -46.28,-15.92 -17.87,0.08 -39.41,-1.11 -58.64,-2.21 -0.28,-9.27 1.73,-8.94 3.81,-15.43 -7.5,-5.36 -13.36,-8.17 -15.18,-20.83 -4.38,-30.6 13.55,-33.67 36.22,-32.17 11.31,0.74 19.96,6.6 20.17,-8.4 -7.75,-3.28 -11.73,-1.12 -20.09,-4.66 -5.34,-2.26 -1.92,-1.74 -9.43,-4.12 -4.21,-1.34 -4.71,-0.72 -8.84,-2.49 -1.78,-18.8 27.32,-64.49 43.77,-73.8 11.74,-6.64 69.8,-33.3 82.73,-32.74 13.52,0.59 139.6,86.13 139.91,93.05 -7.18,23.26 -73.93,27.09 -74.62,62.16 10.18,-2.63 11.74,-6.28 18.84,-11.94 20.62,-16.45 78.28,-46.38 100.13,-24.36 40.21,40.5 15.57,30.34 1.65,39.66 10.45,6.8 20.25,4.63 24.24,20.13 -13.42,0.88 -23.78,-3.3 -40.26,-1.42 -21.91,2.5 -80.08,23.78 -80.47,41.09 18.56,3.1 36.09,-14.07 51.27,1.2 -4.36,11.17 -12.91,7.34 -27.17,14.22 0.7,0.26 3.8,1.22 4.23,1.42 3.8,1.75 2.71,1.32 5,3.08 20.85,-4.07 31.89,6.21 58.78,-2.2 15.19,-4.75 40.59,-3.93 57.97,-7.19 12.37,14.25 18.72,23.03 28.63,40.98 14.23,25.77 5.37,29.49 4.35,59.78 -35.96,27.17 1.24,18.59 -31.92,45.03 -2.59,11.36 -5.38,0.12 -3.32,16.59 7.23,4.15 5.45,1.18 12.43,3.48 6.88,2.26 3.39,2.45 10.88,5.41 16.67,-24.99 0.74,-22.96 16.3,-27.73 3.34,8.66 -2.23,43.31 -4.73,54.14l-15.99 44.82c-6.94,17.66 -24.08,42.64 -38.57,53.88 -7.68,5.95 -8.52,8.2 -14.21,17.42 -44.33,7.01 -22.59,4.53 -45.7,21.95 -13,9.81 -6.4,8.5 -18.7,15.16 -12.34,6.68 -10.23,7.94 -18.87,15.16 -12.57,10.5 -53.84,26.12 -75.61,22.55 -11.37,-1.87 -20.74,-5.59 -30.92,-5.19l7.48 4.5c3.04,1.13 7.79,1.96 10.66,2.81 7.06,2.1 12.34,4.66 19.03,7.93 16.04,7.83 27.1,0.59 43.6,8.08 -2.21,10.52 -8.86,11.28 -19.41,15.6 -9.66,3.96 -4.64,0.67 -10.91,7.31 -6.19,6.54 -2,3.75 -10.34,8.36 4.49,3.49 11.83,2.27 15.7,5.8 20.24,7.35 30.91,3.34 45.87,2.55 17.93,-0.95 5.98,4.22 22.89,-3.33 7.18,-3.21 16.19,-1.88 25.02,-2.19l6.12 -13.02c10.01,2.5 1.28,4.35 19.15,15.54l-6.41 31.82c-2.91,9.3 -7.41,18.17 -8.33,29.63 11.86,4.48 -2.49,-0.69 17.66,21.31 -1.67,21.89 3.26,30.03 10.49,44.29 3.58,7.06 2.13,8.43 4.83,15.4 4.42,11.38 8.83,12.87 11.65,26.36 2.66,12.69 7.8,19.71 6.12,35.94l-8.97 69.92c0,13.45 -0.31,23.87 1.6,36.98 2.21,15.14 -5.24,22.53 -4.63,37.7 15.5,0.06 21.53,19.62 21.5,34.74l28.16 -4.75c9.11,-8.28 16.37,-4.43 24.29,-17l16.55 -26.64c3.83,-7.94 9.48,-25.24 12.64,-30 5.06,-7.62 3.92,-2.17 8.52,-12.08 3.24,-6.97 2.86,-8.46 8.06,-14.11 14.25,4.42 3.81,7.24 19.08,21.38 20.96,19.43 -0.32,48.58 -0.76,59.82 -1.61,41.5 26.84,29.21 94.65,29.21 28.18,0 57.05,0.62 85.15,-0.29l24.6 -11.7c9.53,-3.14 4.31,0.62 8.54,-5.02 12.52,-16.75 11.04,-32.24 12.65,-39.38 -0.21,-29.05 -8.4,-52.95 -12.14,-78.59 -2.95,-20.17 -25.53,-44.92 -25.47,-58.4 -12.68,-6.64 -31.92,-44.47 -47.14,-56.03 -5.88,-4.46 -9.48,-6.75 -15.25,-11.84 -6.79,-5.99 -3.71,-6.37 -12.63,-12.25l-30.08 -16.32c-0.12,-0.51 -0.62,-0.57 -0.83,-0.94 -18.83,-5.04 -43.63,-28.83 -51.32,-41.25 -1.38,-6.14 47.09,-152.81 47.09,-152.82 2.08,-50.41 0.38,-68.93 -27.11,-115.03 -4.83,-8.08 -17.08,-21.14 -18.01,-28.26 -8.88,-4.6 -8.14,-5.61 -14.18,-14.12 -9.67,-13.6 -43.3,-47.57 -54.66,-69.69 -8.55,-16.65 0.12,-18.48 6.4,-33.84 11.81,-28.82 9.73,-38.54 24.13,-75.33 24.74,-63.19 7.73,-39.18 11.27,-85.84 -3.24,-3.37 -1.51,3.1 -2.7,-7.94 -2.56,-23.69 -1.16,-31.73 -9.34,-61.32 -3.01,-10.9 -5.31,-19.83 -11.04,-30.16 -2.78,-4.99 -11.54,-22.55 -12.21,-26.26 -8.56,-8.12 -12.41,-23.36 -19.41,-32.34 -7.6,-9.76 -16.76,-12.46 -24.39,-23.92 2.94,-8.73 2.62,-3.48 5.34,-11.3 -9.81,-11.01 -21.1,-14.53 -32.19,-24.1 -10.64,-9.18 -6.58,-20.05 -23.44,-30.86 -32.27,-20.71 -74.53,0.63 -97,-8.3 4.91,-14.46 37.66,-7.05 46.96,-22.59 -4.55,-6.67 -7.62,-6.47 -14.51,-8.05 -29.44,-6.75 -8.69,-9.27 -54.62,-13.69 -0.49,-11.71 27.58,-23.63 36.36,-28.59 6.39,-3.6 6.9,-6.87 13.73,-6.83 13.62,0.09 52.12,22.68 60.02,29.29 17.51,14.67 52.03,51.74 61.79,73.93 7.54,17.13 6.8,16.64 7.98,37.53 8.2,8.08 5.96,0.49 14.03,14.86 4.83,8.61 4.62,11.36 13.4,15.21 0.2,-21.52 -9.94,-47.81 -18.06,-64.77 -10.49,-21.95 -27.77,-43.19 -27.46,-50.16l-10.54 -9.19c-2.44,-2.67 -4.06,-4.92 -7.47,-8.2 -40.04,-38.57 -21.18,-21.53 -56.09,-43.21 -38.67,-24 -37.54,-18.57 -69.73,-29.13 -7.08,-2.32 -6,-0.39 -16.35,-14.17 -27.2,-6.44 -51.53,-7.16 -77.25,1.78 -9.82,3.41 -22.37,6.75 -31.82,10.93 -10.7,4.72 -16.82,11.9 -29.49,11.83 -0.31,-0.57 -0.49,-1.37 -0.61,-1.85l-1 -3.88c-1.01,-5.19 1.66,-18.45 -14.77,-13.55 -10.87,3.24 -12.31,8.99 -26.54,12.15 -15.31,3.4 -14.84,5.82 -26.9,11.3 -10.69,4.85 -23.32,0.81 -29.31,8.83 -12.43,16.68 6.79,10.33 -43.32,33.44 -36.5,16.84 -24.09,25.58 -40.57,34.9 -2.8,-4.49 -1.78,-9.02 -4.52,-13.61 -14.53,0.95 -10.99,-1.72 -20.61,5.75 -6.58,5.11 -9,3.92 -14.79,9.41 0.35,0.27 1.06,0.38 1.28,0.44 0.22,0.05 1.01,0.32 1.28,0.39l7.98 1.43c-4.2,8.32 -19.04,28.09 -27.11,30.88 -4.82,-5.8 -1.54,-3.84 -4.52,-10.6l-6.87 6.76c-16.61,21.8 -3.68,-17.14 -38.3,27.17 -30.13,38.55 -36.39,83.08 -36.16,137.26z"/>
   <path class="fil0" d="M2200.71 1356.58c8.52,0.53 6.5,1.94 12.16,2.68 0.01,0 21.59,-5.6 21,21.63 -0.18,8.89 -4.6,-0.37 0.95,11.32 11.87,24.96 1.67,7.91 3.1,35.06 1.81,34.77 -45.65,89.02 -68.32,86.71 -15.12,-34.05 0.33,-68.91 5.72,-102.08 3.76,-23.2 -3.57,-23.6 19.34,-18.2 0.28,-20.43 -8.1,-24.18 6.05,-37.12zm-419.1 -265.81c-1.14,-6.9 1.32,-10.03 4.4,-15.63 4.33,-7.89 4.06,-9.76 12.5,-11.25 6.12,10.02 5.21,28.22 -16.9,26.88zm79.7 -548.91c8.16,-17.98 41.79,-35.26 59.09,-40.06 6.6,-1.83 12.28,-1.97 18.76,-3.83 18.45,-5.28 17.31,-19.95 55.01,5.46 18.78,12.66 56.14,45.69 82.08,64.73 8.54,6.26 22.02,13.36 25.64,24.62 -12.95,22.45 -32.24,9.59 -37.93,35.23 12.43,-3.71 50.79,-20.05 59.8,-19.17 14.4,1.42 34.95,26.93 37,41.25l-16.65 6.27c4.59,11.34 13.52,6.59 16.51,22.28 -34.57,-8.59 -68.4,-3.79 -99.62,11.71 -9.26,4.61 -21.07,9.3 -17.65,22.82 5.89,-1.69 14.45,-2.34 20.32,-4.52 10.9,-4.02 5.2,-8.46 17.28,-9.44l10.27 24.43c-8.59,0.39 -32.13,1.22 -34.59,2.44 10.95,13.79 85.3,17.24 104.22,14.14 11.09,-1.82 20.01,-10.25 32.04,-8.68 4.1,11.61 0.6,13.78 7.74,23.95 5.79,8.27 7.55,11.02 11.77,21.92 12.41,32.03 1.23,30.51 -5.65,49.92 -2.24,6.31 -8.39,15.36 -13.99,19.61 -19.89,15.09 -5.71,-7.08 -18.63,31.39 -2.4,7.16 -2.94,5.14 -5.55,12.54 -5.22,14.77 -0.71,5.85 -9.37,15.18 -4.4,4.75 -1.24,-1.42 -3.62,5.29 9.57,6.67 15.52,7.41 27.77,3.05 15.77,-5.62 13.25,-14.99 24.12,-15.87 7.44,11.4 0.33,11.51 -2.18,24.57 -9.49,49.42 -12.91,30.59 -20.54,51.29 -3.98,10.79 -8.89,16.33 -16.81,20.51 -5.05,14.32 -8.89,21.97 -20.99,29.9 -7.98,5.23 -6.68,5.17 -16.34,8.82 -16.15,6.1 -4.71,5.59 -15.78,11.96 -11.64,-4.73 -11.09,-11.87 -28.12,-3.96 -7.82,3.63 -5.08,3.99 -10.27,9.82 -3.22,3.62 -7.47,6.69 -10.99,9.38 -10.31,7.87 -41.28,22.78 -55.95,24.33 -0.35,0.25 -0.99,0.09 -1.14,0.58l-5.64 2.06c-33.3,8.99 -51.5,-2.09 -75.37,-11.12 -12.63,-4.78 -7.38,-1.52 -16.31,-8.95 -15.31,-12.74 -13.48,-3.68 -23.99,-14.46 -12.33,-12.64 -26.81,-1.9 -55.99,-34.4 -3.84,-4.27 -13.21,-23.43 -18.8,-33.09 -6.69,-11.55 -12.89,-23 -10.61,-39.47 2.33,-16.8 6.31,-27.67 19.31,-31.37 0.29,-25.35 -3.19,-30.82 -5.78,-51.92 -1.25,-10.19 4.16,-37.53 6.04,-48.71 4.53,-26.94 6.87,-78.53 38.27,-75.98 6.05,-5.39 50.2,-8.16 60.26,-10.79 -21.49,-11.96 -29.08,2.7 -46.95,-8.22 4.38,-5.95 11.67,-4.41 18.51,-6.8 11.38,-3.96 3.32,-3.52 11.13,-13.42 19.28,2.64 -9.4,8.86 31.47,8.56 -0.34,-9.11 -7.23,-13.69 -18.79,-21.35 -30.77,-20.36 -74.99,-11.12 -82.82,-19.07 -5.23,-5.3 0.36,-9.52 1.87,-15.24 -17.05,-8.07 -14.5,-26.31 -9.06,-43.95 21,-8.82 28.11,-4.18 50.03,0.58 14.31,3.11 26.22,19.38 41.27,13.54 -5.07,-22.02 -61.38,-27.45 -74.49,-38.41 -0.57,-12.63 3.63,-11.52 8.25,-22.96 2.84,-7.04 4.81,-14.54 11.13,-18.92zm398.16 -52.9c12.94,-1.49 8.51,0.22 14.79,9.96 5.02,7.77 6.07,6.17 9.14,18.45 -14.91,-5 -5.51,-5.38 -14.05,-13.7 -6.87,-6.71 -10.59,-1.5 -9.88,-14.71zm-143.12 -152.18c7.61,-3.74 16.37,-10.64 23.34,-10.78 27,-0.55 67.91,38.33 81.36,56.66 12.2,16.63 19.24,20.9 27.99,39.94 4.39,9.56 21.04,50.11 -4.6,38.68 -29.79,-13.27 -20.93,-27.32 -31.2,-36.84 -40.21,-37.31 -87.7,-14.81 -111.49,-23.7 2.02,-6.72 -3.34,-1.1 5.2,-5.89l22.41 -4.06c6.54,-1.36 21.92,-4.71 28.13,-8.12 -1.68,-5.12 -0.74,-3.14 -4.98,-5.73l-54.58 -23.64c-0.36,-11.99 8.11,-11.45 18.42,-16.52zm-116.73 -64.43c-5.32,2.82 -40.04,14.66 -49.35,13.9l2.14 -19.27c-23.65,-1.83 -26.94,5.37 -44.41,12.75 -8.7,3.69 -10.89,1.34 -20.18,6.83 -9.47,5.6 4.83,2.95 -10.1,4.16 -5.24,0.42 -7.04,-1.06 -13.93,-0.89 -11.12,17.27 -11.57,14.79 -24.69,22.45 -5.47,3.19 -3.24,2.35 -7.89,5.9 -12.57,9.61 -27.64,6.27 -40.91,17.82l-25.56 33.16c-5.41,7.47 -9.62,11.29 -13,16.41 -6.44,9.77 -1.72,12.52 -9.71,19.61 -2.99,-4.52 -1.24,-10.54 1.15,-16.75 1.84,-4.77 4.56,-9.25 7.34,-15.25 5.95,-12.82 13.69,-13.81 16.12,-27.03 -13.91,-0.08 -5.7,7.86 -25.94,18.04 -4.78,11.27 -30.39,37.59 -39.97,42.6 -7.8,4.07 -9.5,8.14 -18.88,8.75 -1.79,-9.75 0.58,-7.86 5.32,-13.93 -45.05,29.28 -37.14,88.65 -50.05,102.9 1.3,10.13 -7.14,44.58 -7.88,58.96 -1.14,22.32 -1.77,42.15 0.64,66.36 3.47,6.47 -0.78,27.33 -0.78,39.72 0.02,16.65 2.16,28.51 2.39,42.93 1.02,63.05 -43.49,22.37 -81.01,102.21 -11.14,23.69 -6.33,44.92 -14.51,64.52l-4.95 9.64c-0.16,9.36 -7.13,21.29 -9.58,32.51 -13.55,61.79 -17.56,54.7 -16.96,118 6.69,3.51 7.3,12.58 11.22,21.54 3.56,8.15 7.36,13.6 13.2,20.64l25.04 42.18c-14.72,27.53 -68.42,51.26 -78.46,58.83 -11.83,8.91 -14.45,13.8 -29.43,20.28 -1.79,9.24 -12.43,17.61 -18.81,24.08 -9.8,9.94 -12.44,10.81 -21.52,25.94 -11.95,19.92 -17.57,51.3 -16.29,78.71 0.97,1.2 10.35,70.91 10.81,79.07 1.52,26.7 8.74,39.41 5.92,60.07 -1.78,13.06 1.18,8.24 0.81,20.99 -4.96,3.97 -3.51,3.7 -9.59,6.89l-21.44 22.77c-4.18,3 -8.95,5.18 -14.03,8.55 -7.71,5.11 -9.65,4.35 -12.11,13.76l286.03 0.19c8.44,0 21.45,0.78 29.36,-0.09 9.65,-1.05 12.39,-5.83 20.31,-8.6 6.76,-2.38 16.33,-2.33 21.42,-5.98l24.29 -34.42c2.94,-3.94 3.46,-3.63 5.8,-7.77l4.59 -9.78c2.58,-10.09 1.68,-17.15 3.94,-26.89 1.94,-8.31 5.62,-14.5 6.84,-22.28 4.23,-26.84 3.82,-15.93 13.15,-45.81 5.12,-16.42 11.17,-27.61 14.24,-44.58 9.52,-52.52 31.35,-39.89 42.42,-50.18 10.55,-9.82 2.02,-18.8 7.69,-23.69 0.66,-8.31 1.62,-14.75 2.67,-22.62 1.9,-14.42 3.5,-5.93 6.09,-16.28l6.56 -38.06c2.09,-29.41 -11.77,-28.16 -0.24,-55.26 3,-7.08 0.01,-26.63 25.19,-9.38 7.05,4.82 17.27,7.11 21.88,10.53l41.92 12.67c0.19,-22.27 -3.2,-15.38 -12.61,-26.98 -6.25,-7.69 -5.11,-19.19 0.15,-27.48 11.07,-0.59 14.36,3.7 24.16,5.85 18.71,4.11 8.13,6.44 22.26,9.52 9.46,2.06 19.22,1.38 29.07,2.61 19.19,2.41 -7.69,2.87 30.56,2.21 -1.26,12.01 -0.31,7.03 -24.17,23.05 -11.6,7.78 -23.46,3.73 -23.07,20.07 8.71,-5.87 23.55,1.58 31.3,4.75 19.88,8.16 6.81,9.07 33.23,6.01 8.2,-0.95 11.33,-2.08 17.36,-4.03 3.31,-1.07 14.8,-3.74 18.09,-4.33 16.17,-2.89 -2.5,7.09 32.31,-5.41 3.11,7.34 7.38,12.25 8.32,16.16 0.65,2.67 0.78,19.36 1.11,24.61 -4.92,3.38 -8.35,5.25 -9.84,13.06 7.65,7.11 21.4,11.5 23.13,22.89 0.22,1.49 -3.9,25.59 1,39.15 2.82,7.8 3.33,0.4 7.26,16.28 4.77,19.27 10.4,7.32 12.97,53.56 1.44,25.98 -14.94,60.64 -15.29,118.99 -0.08,13.4 -5.43,25.44 -8.8,36.07 14.5,12.79 19.33,18.39 20.06,45.08 70.96,2.71 52.69,-30.09 75.7,-43.66 4.18,-13 7.38,-10.26 12.81,-17.72 6.38,-8.76 10.44,-68.15 27.43,-56.14 8.24,7.52 2.01,11.39 5.52,23.96 3.26,11.68 6.82,7.29 14.23,14.59 -4.95,12.77 -1.47,35.26 -9.47,46.41 -3.79,5.27 -22.88,10.81 -16.23,39.18 26.83,0.46 230.63,2.7 238.98,-1.91 9.39,-5.18 15.46,-28.93 15.17,-43.02 -0.5,-25.03 -9.46,-80.07 -20.14,-101.63l-49.51 -70.07c-8.13,-7.09 -7.8,-7.34 -14.56,-14.83 -4.64,-5.14 -10.55,-11.48 -15.96,-15.68 -6.06,-4.71 -11.83,-7.02 -18.1,-11.19 -7.99,-5.32 -9.09,-7.73 -19.51,-12.26 -11.17,-4.86 -26.29,-17.7 -34.87,-26.05 -16.63,-16.17 -10.95,-20.52 -4.66,-43.09 11.12,-39.89 20.98,-45.07 38.4,-113.01 2.2,-8.6 2.27,-20.26 4.2,-25.98 2.49,-43.1 -25.89,-89.77 -49.03,-125.29 -13.14,-20.18 -33.26,-39.62 -51.31,-63.99 -7.36,-9.93 -22.05,-25.24 -12.58,-40.44 23.86,-38.33 15.61,-44.63 25.55,-60.47 3.88,-6.2 7.36,-12.5 10.92,-17.66 5.85,-18.53 14.16,-26.5 14.23,-51.27 0.06,-21.3 1,-44.01 -2.3,-63.08 -3.18,-18.34 -6.03,-37.78 -11.14,-54.3 -4.26,-13.77 -20.4,-40.49 -13.83,-49.01 11.84,-39.39 -4.98,-86.2 -21.87,-120.73 -27.02,-55.24 -87.83,-107.92 -143.14,-127.44 -6.36,-2.25 -9.17,-1.69 -14.32,-3.53 -11.33,-4.05 -31.9,-40.64 -113.5,-15.41z"/>
   <path class="fil0" d="M4830.46 1451.68c45.36,-15.28 19.4,41.14 -13.44,38.38 -45.97,-3.87 -33.48,-22.57 13.44,-38.38zm-16.81 -44.03c-1.22,-19.66 7.64,-16.74 12.5,-34.62 4.42,-16.29 -1.02,-23.74 13,-29.68 9.86,6.71 7.97,5.96 9,20.91l10.76 6.61c1.54,52.04 4.22,36.66 -41.71,70.49 -10.6,7.8 -9.54,10.99 -28.23,10.66 2.48,-16.25 14.97,-16.27 24.32,-25.86 25.33,-25.96 22.34,-7.72 26.54,-23.83 -4.25,-2.11 -0.43,-1.96 -6.62,-1.21 -7.11,0.87 -3.89,5.46 -19.56,6.53zm-56.44 14.91c-17.41,-25.5 -6.65,-47.89 -2.22,-73.22 3.53,-20.16 -0.98,-22.62 12.81,-34.19 9.7,-8.14 19.1,-13 31.01,-1.23 47.86,47.31 -14.49,107.81 -41.6,108.64zm-221.47 -306.55c-13.73,-21.32 -20.65,-5.2 -27.8,-29.11 18.24,6.66 -0.18,3.31 30.05,11.46 8.9,2.39 3.12,4.04 12.04,6.17 7.84,1.88 7.18,-1.54 15.68,1.8l-0.18 8.94c-3.29,0.63 -25.46,0.97 -29.79,0.74zm-43.68 -45.43c-7.02,-1.79 -8.36,-0.82 -11.68,-7.15 8.88,-5.29 10.39,-1.74 11.68,7.15zm-112.61 -10.69c-1.95,-9.33 2.66,-11.26 10.28,-7.76 -1.31,8.01 -1.75,8.02 -10.28,7.76zm311.69 -384.28c23.43,-4.3 25.26,31.97 4.54,27.53 -1.74,-27.86 -3.67,-17.4 -4.54,-27.53zm-253.8 5.9c6.21,-4.85 3.87,-5.46 14.75,-6.07 1.34,9.52 0.14,6.65 -5.6,13l2.1 20.47c-14.47,-3.56 -11.98,-12.12 -11.25,-27.4zm196.64 -66.86c16.46,1.77 36.08,-15.94 56.33,-16.34 14.88,-0.29 34.72,20.48 36.64,35.85 -7.55,4.86 -9.23,2.87 -16.96,6.78 4.37,8.67 13.54,6.78 18.46,20.18 -27.28,-1.4 -38.88,-9 -67.01,3.17 -11.41,4.93 -44.51,14.79 -42.64,32.41l17.07 0.35c0.97,-1.59 8.14,-30.46 33.33,-26.17 0.06,12.46 -6.37,10.46 -8.52,20.39 -3.15,14.57 4.49,5.69 7.17,19.74l-34.01 0.32c11.56,18.23 72.52,18.53 97.63,13.84 16.92,-3.15 16.01,-7.76 26.33,-11.79 4.52,4.88 14.7,28.63 14.64,36.66 5.87,5.02 3.27,2.84 5.45,10.57 4.17,14.73 9.44,19.68 -3.01,32.96 -10.43,11.12 -4.89,5.7 -9.63,20.08 -3.55,10.77 -7.94,7.56 -15.19,13.89 -7.95,6.92 -6.23,10.53 -10.32,19.29 -5.76,12.33 -4.9,-0.2 -13.03,16.25 -5.98,12.08 -5.51,8.54 -4.84,21.73 0.57,11.08 0.55,12.36 15.6,10.86 7.69,-9.44 -1.81,-6.39 10.97,-10.96 9.91,-3.54 21.74,-8.85 28.51,-16.89 6.49,-7.72 2.24,-6.91 7.45,-14.28 11.15,5.17 2.5,15.18 -0.5,28.45 -3.38,14.99 -2.34,18.28 -8.14,32.45 -4.87,11.91 -11.17,16.51 -14.88,25.8 -5.95,14.9 -1.9,16 -12.91,27.49 -7.52,7.86 -10,15.35 -17.26,23.45 -6.31,7.05 -4.17,1.98 -9.48,11 -4.98,8.46 -0.89,4.67 -8.91,11.24 -10.92,8.93 -11.49,19.41 -17.76,23.38 -17.93,11.38 -19.59,-11.59 -22.62,-14.57 -11.25,2.15 -6.99,3.15 -11.66,11.7l-52.72 48.91c-22.63,9.72 -45.49,9.23 -68.56,0.95 -9.69,-3.47 -17.16,-10.3 -25.2,-15.83 -12.44,-8.54 -11.48,-13.97 -20.05,-20.59 -5.62,-4.35 -20.59,-7.96 -22.37,-8.96 -5.11,-2.87 -2.33,0.63 -5.49,-5.27 -16.55,-4.68 -11.92,-10.79 -19.28,-17.67 -9.19,-8.61 -12.64,-2.42 -12.86,-21.04 -0.1,-7.8 -5.23,-18.39 -10.4,-26.01 -8.62,-12.68 -12.66,-4.93 -4.8,-22.47 -6.36,-4.9 -5,-2.4 -8.46,-9.04 2.24,-6.29 2.43,-4.04 5.12,-10.49 2.07,-4.97 1.63,-6.76 4.17,-11.37 17.37,-6.21 27.02,-0.78 25.39,-21.63 -2.9,-37.17 -9.05,-20.59 -14.74,-36.8l-6.16 -8.11c-6.78,-14.1 0.67,-80.94 4.37,-94.36 11.42,-41.29 64.48,-17.78 78.67,-38.65 -12.83,-7.72 -22.84,7.02 -40.65,-4.52l18.03 -9.05c1.7,-18.96 -4.84,-11.89 -7.67,-27.63 25.01,1.47 19.59,7.14 26.89,22.75l14.7 -1.68c-1.45,-10.07 -9.08,-14.35 -16.22,-20.03 -16.17,-12.86 -30.19,-14.72 -52.9,-17.11 -8.53,-0.9 -5.46,0.34 -14.59,0.67 -26.32,0.97 -8.54,-14.05 -7.26,-17.96 -12.19,-7.5 -23.38,-13.87 -15.12,-33.88 12.69,-30.73 102.78,21.01 116.29,19.39 0.38,-12.93 -6.9,-16.87 -15.74,-20.57l-52.35 -19.97c-9.59,-2.56 -20.31,-4.93 -26.95,-8.94 -0.66,-22.73 31.38,-50.13 42.97,-57.22 9.54,-5.83 63.12,-26.86 75.18,-23.45 4.89,1.38 26.93,17.19 31.98,20.76 17.05,12.02 79.29,54.6 84.93,65.14 -7.98,24.67 -26.35,4.05 -34.45,32.45zm186.42 -115.21c-7.34,-6.24 -7.3,-7.36 -7.1,-19.97 15.03,4.54 24.69,25.64 21.33,32.66 -5.48,-3.01 -8.45,-7.77 -14.23,-12.69zm-155.33 -152.08c6.97,-2.71 25.84,-11.1 31.73,-11.15 10.3,-0.08 50.73,22.8 57.11,28.65 8.14,7.48 11.68,12.81 21.27,21.57 19.28,17.61 45.13,52.97 40.04,83.74 -8.35,-0.59 -21.71,-12.61 -27.95,-16.74 -23.58,-15.62 -7.14,-29.81 -50.37,-44.3 -13.14,-4.4 -30.08,-2.01 -44.62,-2.01 -18.28,0 -23.95,2.17 -30.43,-4.78 11.67,-3.72 37.26,-6.67 46.42,-14.44 -9.81,-13.19 -9.9,-8.45 -25.96,-14.59 -37.49,-14.35 -24.04,-2.41 -45.44,-9.38 3.46,-7.48 -1.01,-2.25 6.13,-7.25l22.07 -9.32zm-114.42 -52.38c-2.06,2.32 -16.9,8.5 -21.14,9.91 -12.67,4.21 -6.64,-4.87 -9.65,-17.8 -11.47,0.5 -28.74,8.84 -39.57,13.39 -17.53,7.35 -17.86,10.88 -41.07,12.25 -4.65,5.37 -3.09,6.79 -10.44,12.73 -37.62,30.4 -30.31,10.21 -49.7,29.38 -10.4,10.27 -15.71,11 -27.03,29.47 -5.13,8.37 -2.53,7.63 -10.53,10.62 0.49,-10.82 3.99,-13.73 3.94,-21.79 -9.11,-2.91 -5.59,-0.95 -14.7,0.62 -20.75,42.43 -15.22,24.81 -40.67,50.48 -12.52,-1.81 -0.37,-1.43 -11.3,-4.42 -8.67,6.11 -25.81,31.35 -30.82,43.43 -8.33,20.13 -21.09,98.84 -21.06,125.73 0.02,12.82 2.69,63.4 0.5,66.66 -5.18,79.81 18.9,69.35 -31.96,100.84 -5.82,3.6 -17.04,15.39 -21.71,21.16 -13.04,16.11 -24.27,38.72 -26.28,64.39 -2.77,35.36 3.76,17.09 -12.5,50.59l-7.18 11.57c-0.86,13.29 -3.32,19.46 -5.56,32.08 -8.3,46.62 -1.39,82.96 -2.69,93.81 9.82,7.98 14.19,22.22 21.16,33.67 4.09,6.74 21.64,20.03 13.2,32.9 -17.13,26.14 -54.03,29.89 -67.91,36 -28.47,12.53 -65.09,48.39 -80.93,75.09 -5.28,8.89 -10.57,33.4 -13.41,37.15 -5.56,37.93 -4.87,51.42 1.01,88.38 2.99,18.79 5.41,23.33 13.37,36.77 7.03,11.87 9.56,21.35 11.8,34.75 0.12,0.14 8.02,1.34 0.61,17.29 -1.56,3.35 -6.28,9.55 -9.4,13.26 -4.55,5.44 -7.52,6.42 -11.85,10.86 -6.69,6.86 -2.77,6.24 -6.57,13.89l-21.64 23.35c-9.33,6.21 -20.26,8.14 -22.45,21.54l15.19 1.83c-2.21,8.42 -4.61,4.02 -5.81,14.75 22.18,0.49 25.35,-3.95 49.3,0.83 2.1,5.34 1.27,4.81 -0.1,10.88l22.9 4c54.33,2.82 114.49,0.39 169.5,0.5 12.98,0.02 58.49,-7.72 67.95,-15.47 12.67,-10.39 27.4,-36.62 41.53,-43.3 1.07,-4.03 -1.25,0.33 2.5,-5.39 1.25,-1.92 1.38,-1.95 2.97,-3.65l18 -13.82c28.62,-23.74 18.42,-9.44 36.66,-42.32 8.03,-14.48 8.95,-33.77 13.13,-50.06l12.31 -42.27c1.49,-5.3 -0.23,-2.06 2.23,-5.38 -0.18,-2.57 7.36,-43.18 9.13,-48.88 3.88,-12.45 9.89,-27.95 21.77,-34.51 45.89,-25.34 47.47,-11.66 48.47,-36.25 0.39,-9.84 4.47,-7.28 8.19,-17.81 -6.68,-13.94 -8.51,-5.14 -13.51,-25.1 -4.33,-17.25 -3.16,-14.88 6.54,-26.01 15.32,-0.94 17.78,-1.27 29.45,3.36 13.59,5.39 16.91,1.73 29.82,4.32 8.44,1.69 19.77,4.69 28.94,5.45 12.19,1.01 17.54,-0.91 28.72,2.59 34.37,10.74 34.72,-0.58 84.6,-8.7 16.83,-2.73 9.71,-8.44 24.19,-6.67l0.08 12.36c-1.02,12 -5.13,20.14 -7.51,31.62 8.34,14.03 7.69,1.51 8.46,22.54 0.53,14.59 4.09,7.34 8.06,20.17 3.45,11.16 -0.02,12.46 6.08,23.76l8.94 19.17c16.31,8.38 8.02,14.14 11.12,28.35 1.32,6.07 1.85,1.35 2.68,10.48 0.74,8.02 -6.74,41.17 -8.58,43.4 -0.99,14.29 0.03,28.13 -0.41,42.29 -0.52,16.64 -8.06,22.3 3.43,35.67 27.22,31.69 -21.22,34.5 -14.44,52.4 5.02,5.99 14.25,11.5 24.93,10.84 20.31,-1.26 13.31,-6.68 28.08,6.61 8.02,7.21 11.39,13.98 19.63,18.81 6.77,3.96 19.53,7.08 27.17,10.79 10.3,-3.47 7.26,-10.79 19.78,-3.82 -2.66,10.35 -3.4,3.24 -9.68,10.99 19.82,15.64 10.07,13.54 41.87,13.44 11.36,-0.03 50.58,-2.42 56.06,-1.56 0.51,-0.37 1.38,-1.39 1.67,-0.9l4.92 -2.56c11.97,-6.68 37.74,-66.6 34.76,-15.12 -0.1,1.77 -1.11,10.34 -1.11,10.45 -0.19,19.66 29.04,5.35 37.01,0.85l5.92 -31.72c30.63,3.04 -2.33,39.58 66.35,35.62 6.48,-17.96 2.77,-40.49 0.39,-58.76l-3.06 -62.69c-3.66,-1.7 -2.01,-6.84 -2.39,-13.29 -0.98,-16.95 -8.74,-55.22 -14.78,-68.58 -5.14,-11.34 -7.93,-9.7 -11.93,-22.06 -6.33,-2.6 -15.69,-23.18 -21.27,-30.53 -7.3,-9.62 -16,-19.33 -24.37,-27.62 -40.46,-40.13 -51.1,-30.32 -62.3,-44.56l-12.52 -7.06c-17,-11.95 -29.33,-13.2 -22.2,-34.87 13.47,-40.98 48.06,-103.23 37.33,-159.39 -2.01,-10.55 -7.14,-19.27 -8.85,-30.89l-12.93 -21.42c-16.1,-29 -39.78,-56.27 -43.81,-65.31 -8.68,-3.57 -1.29,0.91 -6.8,-6.07 -49.15,-62.26 -32.77,-44.41 -17.02,-90.29 2.16,-6.28 2.82,-14.11 5.26,-19.8 2.39,-5.57 5.57,-8.57 8.64,-15.71 16.31,-37.92 15.77,-37.42 15.23,-83.71 -0.38,-32.48 -12.79,-65.71 -14.01,-84.13 -25.37,-65.06 -17.53,-27.7 -13.37,-58.45 2.04,-15.09 -6.5,-53.95 -11.05,-66.81 -21.17,-59.9 -52.6,-81.79 -60.2,-96.62 -11.97,-3.39 -8.12,-7.06 -24.87,-17.08 -6.88,-4.12 -17.63,-10.84 -24.85,-15.73 -23.32,-15.78 -46.08,-21.71 -52.67,-26.23 -26.52,-5.91 -14.6,-21.71 -60.27,-22.71 -25.86,-0.56 -44.24,9.42 -67.04,12.52z"/>
   <path class="fil0" d="M3470.23 1494.57c-1.32,-19.75 10.03,-19.77 25.15,-25.52 27.06,-10.28 47.81,-11.7 28.24,19.55 -11.58,18.51 -40.13,14.53 -53.39,5.97zm51.46 -81.23c-10.84,0.73 -19.39,7.52 -24.92,6.12 -8.8,-2.23 1.79,-12.13 5.1,-15.97 18.05,-21.01 2.56,-37.03 19.5,-44.41 8.66,6.13 6.57,10.74 6.74,21.05l10.4 7.23c-0.11,6.72 -1.69,8.6 -1.92,15.16 -0.29,8.08 1.34,10.27 0.78,18.13 -3.45,10.87 -52.12,44.19 -67.08,42.13 -0.82,-15.87 14.73,-17.35 24.77,-25.51 20.65,-16.79 23.67,-11.52 26.63,-23.93zm-85.67 22.49c-10.1,-20.1 7.98,-96.11 19.74,-107.93 9.51,-9.54 21.13,-9.3 29.99,1.74 36.24,45.16 -19.12,105 -49.73,106.19zm-712.26 -157.64c-3.91,-9.78 -0.82,-12.01 9.11,-11.33 0.52,10.97 -0.18,10.91 -9.11,11.33zm751.16 -361.36c-5.59,22.77 -9.94,28.45 -17.2,46.58 -6.66,16.62 -13.37,24.97 -26.28,32.49 -10.12,41.16 -9.26,25.29 -31.21,35.02 -16.31,7.24 -12.62,29.5 -28.36,35.91 -7.28,14.17 -39.67,38.38 -56.39,48.46 -11.55,6.97 -68.6,16.82 -81.51,3.03l-1.82 -3.05c-5.02,4.07 -0.7,4.76 -10.57,2.5 -0.07,-0.01 -7.16,-3.97 -7.6,-4.33 -6.41,-5.27 -4.1,-6.36 -11.24,-11.38 -14.01,-9.83 -14.59,-9.22 -25.12,-20.01 -4.59,-4.7 -6.94,-5.77 -11.63,-10.96 -5.22,-5.79 -5.03,-6.46 -9.33,-13.3 -5.86,-9.29 -15.97,-14.84 -21.66,-23.51 -6.63,-10.09 -10.9,-20.5 -16.22,-31.3 -15.61,-31.67 -39.26,-50.12 -21.93,-99.65 23.5,-10.72 25.43,4.89 21.69,-48.52l-7.83 -8.55c-2.93,-3.79 -5.05,-5.98 -7.04,-8.85 -10.67,-15.41 -1.86,-69.97 3.09,-86.51 15.43,-51.61 69.18,-26.18 93.31,-39.67 -6.8,-11.48 -12.59,-3.13 -22.58,-9.04 5.54,-7.72 3.48,-4.13 15.63,-5.49 5.97,-0.67 11.59,-1.75 19.52,-1.99 -2.46,-11.94 -7.99,-14.59 -16.52,-19.73 -35.7,-21.48 -71.28,-3.23 -83.55,-13.46 1.59,-10.09 0.62,-5.16 8.13,-11.3 -1.42,-1.08 -26.71,-7.57 -20.78,-30.32 5.07,-19.42 20.33,-14.34 37.41,-13.46 34.72,1.78 13.19,0.59 45.94,8.7 20.88,5.18 29,10.74 39.3,13.9 4.99,-29.02 -25.95,-25.37 -43.22,-32.29 -37.42,-14.98 -43.19,-7.15 -59.62,-14.72 1.85,-25.32 26.95,-49.67 40.53,-60.26 14,-10.9 56.15,-28.62 69.73,-29.6 18.06,-1.3 64.38,34.07 80.41,46 20.09,14.96 67.41,30.75 31.39,47.61 -17.43,8.16 -13.96,10.41 -26.74,16.14 -14.54,6.52 -5.49,4.67 -12.41,14.64 -3.3,4.77 -1.74,-1.44 -6.26,6.55 7.41,5.3 22.1,-10.38 30.62,-13.87 7.21,-2.95 11.14,-4.01 17.65,-7.12 12.08,-5.75 35.13,-23.81 51.61,-7.51 14.79,14.62 19.77,16.34 19.25,28.92 -8.1,2.55 -12.72,0.98 -20.15,6.36 7.56,7.27 16.01,3.13 22.39,15.82 -10.79,5.8 -20.35,-1.51 -35.11,1.18 -11.75,2.15 -19.45,4.15 -29.99,8.49 -10.47,4.31 -47.5,21.01 -38.44,32.38 7.24,7.52 27.03,-13.09 40.41,0.87 -3.09,7.28 2.69,1.49 -5.57,6.23 -2.97,1.71 -6.5,2.06 -8.93,2.37 -7.78,0.98 -11.03,-1.28 -16.47,2.7 5.63,3.52 46.4,8.16 55.53,8.37 1.07,0.03 26.46,-4.8 58.75,-4.37 15.52,0.2 15.48,2.88 23.43,10.83 22.36,22.36 31.07,58.99 26.13,68.76 -10.96,9.73 -17.69,17.03 -30.39,26.06 -6.2,4.41 -6.81,12.07 -9.76,19.49 -5.72,14.31 1.81,6.55 -10.77,15.45 -0.38,13.31 -4.47,25.89 6.45,42.14 7.35,1.17 12.2,2.5 17.13,-1.73 7.63,-6.54 -2.83,-2.7 9.26,-10.95 19.64,-13.39 4.78,-19.93 15.8,-24.21 11,26.99 -10.27,67.05 -10.29,67.06zm-127.74 -582.9c22.44,-9.38 8.39,-18.12 61.02,9.3 6.96,3.63 22.16,16 28.13,21.51 5.3,4.88 9.54,6.99 14.41,12.73 25.69,30.3 38.47,42.19 47.06,79.98 4.09,18.01 15.29,18.38 14.94,34.74 -15.23,-6.19 -23.19,-16.85 -23.45,-33.54 -14.43,-5 -6.39,-2.88 -14.41,-12.81 -5.77,-7.15 -9.23,-4.99 -16.35,-10.61 -11.77,-9.3 -9.45,-39.63 -68.17,-39.26 -7.55,0.05 -44.11,2.03 -46.64,-3.31 4.72,-2.36 35.14,-8.76 41.89,-15.81 -7.39,-9 -22.34,-11.81 -35.7,-15.7 -14.56,-4.23 -29.89,2.2 -44.52,-4.64 3.46,-13.2 27.99,-16.81 41.79,-22.58zm-87.88 -54.22c-5.63,5.46 -1.41,2.51 -9.77,5.73 -46.2,17.78 -41.96,22.05 -54.47,4.31 -20.39,-0.69 -23.15,4.78 -35.86,11.84 -9.41,5.23 -8.68,1.51 -16.95,3.33 -0.62,0.13 -1.22,0.25 -1.79,0.44 -0.54,0.17 -1.11,0.44 -1.62,0.66 -7.7,3.39 -2.05,8.46 -16.22,4.85l-9.62 10.19c-11.98,13.96 -55.81,45.6 -64.83,46.31 -18.31,25.66 -6.84,17.72 -21.63,29.7l-4.52 -10.75c-10.76,-0.1 -17.15,4.66 -21.89,11.55l-14.2 19.81c-9.16,10.1 -23.4,5.05 -38.02,27.43 -42.04,64.36 -26.57,87.35 -34.33,97.51 -0.79,20.82 -1.03,36.42 -3.78,56.46 -2.49,18.14 1.41,34.3 1.39,53.46 -0.02,20.47 -4.53,31.37 -4.44,54.16 0.04,9.8 0.19,19.75 0.14,29.52 -0.08,13 -0.43,15.71 -7.13,18.94l-20.28 16.91c-17.96,14.32 -17.18,15.49 -29.61,38.14 -3.08,5.63 -2.92,4.89 -5.81,12.53l-4.96 9.19c-4.5,80.59 -15.76,51.52 -27.97,84.34 -1.32,3.54 -7.92,26.36 -7.98,26.47 -1.8,18.26 0.04,45.79 1.76,64.32 6.74,72.99 32.98,47.44 18.17,95.08 -3.88,12.51 -23.72,24.81 -39.42,22.07 -0.45,0.47 -1.11,0.99 -1.48,1.26 -9.16,6.83 -14.03,6.46 -24.31,10.61 -8.87,3.58 -12.86,7.74 -20.91,13.21 -15.88,10.79 -26.58,28.36 -35.4,30.91 -3.09,6.3 -8.98,14.56 -14.21,23.21 -7.27,12 -5.89,12.68 -9.08,26.56 -12.27,53.38 -5.51,17.56 -5.29,68.66 2.95,2.89 6.65,39.47 11.76,47.85 4.11,6.73 8.68,7.51 13.19,18.42 13.11,31.74 11.4,23.04 3.53,45.07 -9.44,26.38 -6.09,17.96 -23.15,39.88 -15.58,20.02 7.53,19.94 -27.5,34.84 -8.28,11.88 -16.12,3.62 -20.48,19.55 3.94,4.66 9.94,4.94 12.97,6.78 -3.51,8.45 -3.47,3.65 -3.53,13.17 14.9,0.15 33.63,-6.3 47.84,0.61 3.91,10.04 -2.94,12.37 -6.35,19.92l259.41 -0.49c7.13,-5.85 12.75,-6.96 18.65,-14.51l32.22 -40.11c7.27,-10.87 24.95,-30.62 36.47,-35.99 27.55,-12.85 31.32,-37.27 36.66,-53.43l7.62 -14.33c-3.53,-17.71 12.46,-55.14 19.99,-71.12 2.78,-5.88 5.3,-9.1 6.15,-16.29 2.67,-22.54 3.7,-30.75 14.85,-55.47 6.79,-2.11 14.03,-1.55 20.38,-4.29 9.71,-4.18 6.03,-5.95 16.8,-10.26 32.47,-13.02 16.92,-11.51 30.98,-21.91 -0.9,-14.42 7.59,-3.34 14.43,-18.58 -4.29,-8.22 -21.34,-9.95 -19.82,-36.15 16.54,-10.76 27.61,0.89 46.62,1.42 20.01,0.57 72.54,18.87 104.6,15.29 14.53,-1.63 16.91,-7.36 25.1,-8.33 17.29,-2.05 8.23,9.76 6.79,16.47 17.35,19.4 4.57,0.71 17.19,25.17 5.58,10.82 11.02,10.13 17.93,25.2 7.84,17.08 19.91,41.99 32.78,53.56 -0.24,6.9 -2.84,11.11 -0.74,18.35 2.6,8.92 4.57,4.34 3.03,16.48 -1.34,10.51 -5.93,25.85 -8.57,35.2 -2.9,15.95 -3.86,36.56 -7.62,51.99 -6.74,27.69 7.72,21.24 9.46,48.5 -5.02,3.53 -23.96,18.95 -26.27,26.04 4.94,7.31 14.17,16.11 27.15,14.81 35.5,-3.53 15.65,15 52.47,30.51 4.32,1.82 11.25,3.26 14.92,5.38 8.72,5.01 2.26,4.95 12.09,10.51 14.56,8.23 99.91,11.79 116.29,0.51 5.16,-3.55 7.14,-4.75 10.12,-10.43 4.92,-9.4 0.77,-10.14 11.5,-10.14l3.05 23.24c20.87,6.38 50.59,3.76 73.08,2.95 3.65,-3.31 5.63,-1.37 10.33,-10.79 2.86,-5.73 4.19,-10.9 6.05,-16.19 4.1,-11.72 16.4,-67.5 15.34,-78.45 -1.46,-15.01 -1.57,-29.38 -2.54,-46.23 -3.7,-6.19 -2.68,-24.48 -6.58,-34.8l-64.52 -104.59c-16.7,-20.91 -56.63,-39.81 -66.51,-48.87 -5.67,-5.2 -1.92,-1.53 -4.72,-5.78 -18.83,-1.18 -11.41,-29.49 -6.17,-42.61 5.5,-13.77 12.37,-29.75 18.37,-44.91 12.22,-30.87 22.36,-69.5 18.34,-107.75 -0.02,-0.04 -18.1,-61.78 -42.05,-87.62 -4.13,-4.45 -4.84,-3.96 -8.55,-9.45l-20.4 -27.03c-7.36,-10.44 -24.72,-25.23 -28.35,-38.53 -19.21,-14.6 0.35,-33.63 5.69,-58.74 10.85,-50.92 27.92,-44.64 23.88,-115.41 -1.93,-2.56 -8.24,-55.6 -10.44,-64.81 -5.17,-21.71 -8.7,-39.63 -18.47,-58.68 -4.33,-8.43 -11.13,-18.61 -11.07,-26.2 0.29,-36.31 -2.89,-50.23 -22.02,-87.52 -30.17,-58.77 -47.53,-68.74 -90.6,-99.23l-23.67 -14.56c-28.85,-15 -31.04,-17.1 -54.62,-15.65 6.74,-7.21 5.6,-1.21 3.86,-10.6 -29.27,-19.86 -65.3,-6.83 -78.3,-9.76z"/>
   <path class="fil0" d="M3216.46 919.08c13.87,-17.23 19.52,-10.7 28.02,-12.52 7.27,-1.56 0.07,-2.27 12.45,-3.35 10.85,-0.94 19.97,1.29 31.14,-0.4 40.01,-6.04 24.91,4.71 43.51,18.21 -2.6,6.89 -1.94,3.23 -4.96,8.82 -5.09,9.45 -2.7,16.58 -18.59,19.59 7.64,4.21 10.36,2.28 12.17,8.65 7.64,26.97 -113.15,25.27 -94.4,-9.01 12.83,0.21 1.47,1.14 19.91,15.03 6.31,-2.44 17.62,-6.54 23.96,-9.54 -47.58,-14.1 -38.14,1.36 -53.21,-35.48zm100.35 -37.95c-19.36,-0.15 -26.37,-3.99 -56.36,3.17 -11.6,2.76 -44.44,3.19 -56.08,-2.77 -0.32,-0.16 -0.98,-0.53 -1.43,-0.86 24.28,-20.38 92.22,-25.76 106.32,-20.48 12.98,4.86 2.68,3.03 15.95,2.78 10.04,-0.2 11.64,0.74 13.83,8.67 -0.57,0.38 -1.49,0.12 -1.85,0.91 -1.98,4.39 -12.4,0.04 -16.92,-2.4 -2.1,4.45 -1.51,6.55 -3.46,10.98zm-148.77 24.07l6.91 10.28c1.82,3.72 3.02,7.05 4.77,10.98 5.49,12.36 7.14,41.14 30.1,64.73 27.44,28.21 62.66,17.6 105.06,16.01 2.49,-1.96 18.11,-3.92 32.89,-17.62 19.62,-18.18 25.43,-49.71 30.64,-75.82 5.26,-26.37 1.17,-24.36 -1.66,-47.89 -1.67,-1.36 -0.52,0.82 -2.47,-3.13 -3.22,-6.51 -2.21,-11.24 -6.56,-15.86 -4.4,-4.68 -15.2,-5.16 -19.29,-8.49 -26.3,-1.29 -26.2,-13.16 -57.78,-7.45 -13.01,2.36 -14.83,7.67 -26.45,6.82 -30.37,-2.24 -48.99,1.06 -75.21,22.33 -18.33,14.87 -14.56,21.03 -20.95,45.11z"/>
   <path class="fil0" d="M568.19 921.23l92.15 -16.36c17.53,-1.01 15.51,4.07 24.68,10.97l2.18 -4.52c8.68,-14.34 28.83,-4.51 13.82,11.65 -10.53,11.35 -23.76,14.47 -43.09,14.35 -23.43,-0.15 -89.86,10.31 -89.74,-16.09zm28.86 -32.23c4.81,-2.82 10.65,-3.42 17.81,-2.05 7.72,1.49 1.72,0.23 5.13,2.05 -2.04,2.38 -0.02,1.73 -5.28,4.62 -0.15,0.08 -6.82,2.56 -7.01,2.59 -10.83,1.77 -9.41,0.08 -10.65,-7.21zm78.23 88.18c4.14,-3.43 17.01,-4.36 23.42,-6.62 35.67,-12.56 40.77,-45.54 47.5,-52.93 1.03,-21.74 -9.42,-34.51 -26.57,-40.41 -50.34,-17.31 -56.48,-2.28 -78.08,2.62 -27.05,6.13 -2.51,-8.95 -55.49,5.39 -8,2.16 -66.23,14.01 -54.59,39.71 1.11,2.44 26.54,32.22 30.48,35.2 32.66,24.71 65.66,18.4 113.33,17.04z"/>
   <path class="fil0" d="M2010.91 882.53c-17.42,0 -17.24,6.31 -26.97,6.29 -10.49,-0.02 -12.97,-7.25 -28.19,-5.34 -10.11,1.27 -20.36,2.83 -29.02,7.1 -9.02,4.44 -15.46,7 -22.2,13.83 -4.65,4.73 -12.74,14.07 -11.54,22.04 0.32,2.14 11.06,19.64 12.92,22.12 24.21,32.45 79.92,26.35 116.6,22.12 12.04,-1.39 19.07,-3.21 27.94,-8.45 3.93,-2.32 7.34,-5.57 10.37,-7.7 5.27,-3.7 8.7,-4.2 11.73,-6.46 7.08,-5.26 12.43,-15.68 5.88,-25.01 -3.28,-4.67 -13.62,-12.69 -19.09,-17.2 -13.79,-11.36 -22.18,-23.29 -48.43,-23.34z"/>
   <path class="fil0" d="M4549.94 977.38c62.94,3.37 62.14,1.08 81.5,-42.73 9.09,-20.57 -2.78,-19.72 -6.94,-32.96 -5.45,-6.65 -7.88,-17.5 -14.64,-24.68 -19.56,-20.76 -34.02,-10.86 -39.62,-10.69 -4.48,0.14 -10.4,-2.43 -14.29,-2.73 -12.11,-0.92 -48.02,30.47 -36.38,70.26 11.38,38.87 19.5,31.95 30.37,43.53z"/>
   <path class="fil0" d="M3294.94 688.04c5.17,-12.73 -1.35,-25.23 27.66,-37.92 8.74,-3.82 45.97,-15.28 49.3,-17.97 -14.56,-17.38 -49.83,2.93 -64.73,7.13 -25.4,7.15 -32.72,40.38 -12.23,48.76z"/>
   <path class="fil0" d="M2029 665.48c-1.39,6.9 -10.66,11.77 -14.76,18.57 -5.08,8.4 -9.7,17.85 3.67,22.69 13.34,-17.86 7.72,-24.71 32.82,-33.62l49.63 -17.08c-16.29,-13.87 -45.71,8.46 -71.36,9.44z"/>
   <path class="fil0" d="M4639.42 641.74c-0.1,0.05 -15.39,5.61 -16.91,6.12 -6.89,2.28 -14.47,2.89 -19.54,7.75 -5.72,5.5 -18.88,21.17 -14.62,32.96l9.06 0.51c8.54,-25.93 29.64,-29.67 50.88,-38.07 7.75,-3.06 16.96,-4.23 23.56,-7.81 -2.29,-2.75 2.38,-1.21 -5.19,-3.84 -2.54,-0.87 -5.34,-1.03 -8.13,-1.08 -9.7,-0.21 -10.85,0.98 -19.11,3.46z"/>
   <path class="fil0" d="M653.22 703.19c12.71,-20.79 5.77,-22.04 31.53,-33.72 9.8,-4.45 38.62,-13.94 44.27,-19.96 -10.13,-6.82 -47.44,8.66 -58.49,12.8 -21.93,8.21 -33.41,34.5 -17.31,40.88z"/>
   <path class="fil0" d="M3163.02 645.71c3.02,1.74 29.86,8.97 36.98,11.64 13.75,5.17 23.19,11.16 36.09,14.8 -0.26,-23.81 -31.57,-36.4 -50.07,-32.14 -6.04,1.39 -19.44,2.89 -23,5.7z"/>
   <path class="fil0" d="M3289.19 784.9c-4.3,7.6 -9.96,6.05 -17.99,12.18 5.87,16.89 28.06,6.98 45.75,6.58 3.08,-7.06 3.6,-1.35 3.16,-13.45 -13.67,-9.75 -15.69,-9.92 -26.61,-6.68l-2.91 0.94c-0.28,0.08 -0.92,0.35 -1.4,0.43z"/>
   <path class="fil0" d="M4481.52 643.2c3.97,5.39 50.04,26.08 57,28.98 -1.04,-13.41 -8.92,-20.51 -19.52,-25.26 -9.93,-4.45 -26.22,-10.44 -37.48,-3.72z"/>
   <path class="fil0" d="M573.33 630.66c-14.39,-4.93 -38.63,-20.77 -62.69,-15.77 3.73,3.82 -5.39,4.04 10.88,6.71 2.95,0.48 7.15,0.59 11.51,1.7l42.04 16.73c8.22,4.57 8.81,9.29 15.53,2.7 -0.87,-2.44 2.89,-5.17 -17.27,-12.07z"/>
   <path class="fil0" d="M3146.75 867.13c-0.13,12.27 0.68,25.56 6.32,33.37 2,-2.79 1.12,0.96 2,-4.36 1.98,-11.92 -3.04,-13.77 3.52,-19.82 -2.47,-18.07 14.2,-31.38 14.41,-49.23 -8.41,2.63 -10.84,10.48 -15.91,19.15 -3.04,5.2 -6.95,17.92 -10.34,20.89z"/>
   <path class="fil0" d="M1908.3 658.3c5.66,6.73 2.3,2.63 10.73,5.91 10.36,4.04 3.84,2.55 10.74,7.43 4.28,3.03 18.34,7.86 23.82,10.39 1.68,-13.09 -4.55,-17.19 -15.63,-20.76 -7.13,-2.29 -27.82,-12.86 -29.66,-2.97z"/>
   <path class="fil0" d="M2132.59 351.04c9.25,6.16 33.95,11.24 46.17,13.94 -2.05,-11.69 -8.69,-12.68 -18.89,-18.27 -5.14,-2.82 -7.46,-4.44 -15.6,-3.23 -8.03,1.2 -10.11,3.32 -11.68,7.56z"/>
   <path class="fil0" d="M570.42 684.07l15.35 2.37 -1.43 -9.74c-8.04,-4.54 -28.89,-18.13 -43.28,-13.63 0.91,4.83 -3.61,1.34 5.19,7.51 7.39,5.18 17.79,7.76 24.17,13.49z"/>
   <path class="fil0" d="M4586.08 828.09c8.16,-2.29 15.3,-7.34 17.78,-16.2 4.71,-16.81 -17.45,-8 -21.83,-3.21 -7.68,8.39 0.12,15.07 4.05,19.41z"/>
   <path class="fil0" d="M1996.85 831.22c1.14,16.99 10.99,13.46 21.55,9.27l2.48 -2.6c8.75,-10.89 -3.03,7.09 2.29,-2.76 1.46,-2.71 2.04,4.68 1.49,-5.07 -0.9,-16.1 -21.54,-3.05 -27.81,1.16z"/>
   <path class="fil0" d="M1781.61 1090.77c22.11,1.34 23.02,-16.86 16.9,-26.88 -8.44,1.49 -8.17,3.36 -12.5,11.25 -3.08,5.6 -5.54,8.73 -4.4,15.63z"/>
   <path class="fil0" d="M650.55 839.24c5.95,0.03 14.58,-1.15 20.91,-2.22 7.87,-1.33 9.8,-3.7 11.25,-11.28 -12.91,-9.51 -27.31,0.12 -32.16,13.5z"/>
   <path class="fil0" d="M3178.57 1060.09c5.19,7.71 -2.27,4.87 10.25,10.75 2.46,19.54 -1.27,9.65 9.2,20.29 4.5,4.57 0.61,7.83 18.14,11.28 -3.1,-7.32 -11.63,-16.02 -16.97,-21.58 -9.51,-9.92 -4.77,-16.5 -20.62,-20.74z"/>
   <path class="fil0" d="M4437.34 681.51c-0.73,15.28 -3.22,23.84 11.25,27.4l-2.1 -20.47c5.74,-6.35 6.94,-3.48 5.6,-13 -10.88,0.61 -8.54,1.22 -14.75,6.07z"/>
   <path class="fil0" d="M4834.63 512.13c3.36,-7.02 -6.3,-28.12 -21.33,-32.66 -0.2,12.61 -0.24,13.73 7.1,19.97 5.78,4.92 8.75,9.68 14.23,12.69z"/>
   <path class="fil0" d="M1933.17 625.3c3.47,9.35 3.07,9.24 13.25,12.08 -1.15,-13.98 0.23,-10.13 -9.57,-15.86 -6.35,-3.72 -6.05,-6.31 -15.36,-5.43 0.76,8.43 3.19,6.93 11.68,9.21z"/>
   <path class="fil0" d="M354.75 389.88c8.25,-3.71 14.52,-9.93 16.36,-21.23 -13.56,-1.08 -20.37,9.85 -16.36,21.23z"/>
   <path class="fil0" d="M597.05 889c1.24,7.29 -0.18,8.98 10.65,7.21 0.19,-0.03 6.86,-2.51 7.01,-2.59 5.26,-2.89 3.24,-2.24 5.28,-4.62 -3.41,-1.82 2.59,-0.56 -5.13,-2.05 -7.16,-1.37 -13,-0.77 -17.81,2.05z"/>
   <path class="fil0" d="M3331.44 792.56c11.01,5.47 16.02,-0.04 16.02,-11.62 -9.28,1.18 -12.82,4.43 -16.02,11.62z"/>
   <path class="fil0" d="M3226.26 803.15c9.21,0.97 13.23,-2.77 17.05,-8.33 -8.08,-7.01 -16.7,-3.14 -17.05,8.33z"/>
   <path class="fil0" d="M2723.76 1278.19c8.93,-0.42 9.63,-0.36 9.11,-11.33 -9.93,-0.68 -13.02,1.55 -9.11,11.33z"/>
   <path class="fil0" d="M4540.2 810.39c4.05,6.52 4.65,6.63 12.29,9.06 0.11,-6.15 2.6,-5.13 -2.31,-9.35 -5.64,-4.83 -9.96,0.28 -9.98,0.29z"/>
   <g>
    <path class="fil0" d="M2069.64 2434.34c7.46,-32.99 -51.4,-155.55 -65.01,-175.92l-51.58 -121.43c-1.59,-25.51 62.54,-137.16 72.31,-163.76 12.42,-33.82 25.42,-45.46 36.37,-82.08 17.83,-59.59 60.48,-101.66 68.71,-161.61 5.99,-43.71 80.55,-182.75 -11.75,-87.76 -69.64,71.66 -54.29,69.37 -105.04,125.82 -36.07,40.13 -30.84,45.33 -46.25,66.64l-96.24 140.29c-4.23,-9.38 -11.03,-21.58 -17.71,-31.99 -27.09,-42.16 -67.21,-128.53 -80.88,-144.44 -16.03,-18.68 -25.26,-37.25 -60.28,-30.54 -21.79,27.73 -8.48,50.82 -5.06,90.79 5.43,63.34 27.15,125.12 53.52,177.03l35.48 78.04c5.93,26.22 -45.55,118.53 -65,161.41l-33.73 82.45c-13.51,26.79 -17.15,107.85 31.91,66.26 10.99,-9.31 17.85,-13.92 27.59,-21.2l33.54 -35.96c0.66,-0.95 1.5,-2.31 2.17,-3.24l14.05 -17.94c21.26,-30.96 72.48,-81.03 74.84,-93.01 0.39,-1.98 1.61,-2.36 2.53,-3.44 17.21,9.59 113.39,138.27 132.85,159.1 10.98,11.75 15.38,13.28 23.63,24.5 12.81,17.43 -0.04,12.89 20.73,22.16l8.3 -20.17z"/>
    <path class="fil0" d="M2497.43 2175.55c-77.4,-2.13 -102.18,100.6 -142.28,148.5 -18.67,22.3 -52.28,11.63 -66.24,-0.39 -34.21,-29.47 -28.93,-144.8 -26.94,-184.67l41.17 -183.32c27.94,-58.99 108.98,-201.18 182.43,-195.32 7.18,19.32 2.59,14.21 0.37,32.66 -2.49,20.62 -1.62,4.39 4.76,26.64l1.5 6.89c8.63,36.24 -0.06,-8.04 17.09,29.75l3.13 8.32c43.37,-19 46.93,1.38 55.54,-51.27 4.24,-25.94 15.79,-15.77 33.01,-25.86 -21.99,-56.66 -21.46,-51.45 -48.04,-82.28 -23.84,-27.66 -49.19,-46.04 -95.83,-30.52 -145.58,48.43 -251.15,306.45 -268.64,439 -3.54,26.86 -12.15,42.49 -18.77,67.48 -9.06,34.23 -17.82,34.03 -18.99,74.52 -2.2,76.6 76.21,147.93 79.03,173.92 19.88,-19.17 31.12,-5.13 53.88,3.75l-41.66 7.88c-10.42,5.23 -3.96,-11.42 -7.6,8.36 11.22,3.29 83.31,6.14 101.08,4.83 43.41,-3.19 44.2,-14.35 73.83,-33.46 43.45,-28.04 22.67,-22.07 51.78,-55.15 19.3,-21.94 47.21,-22.16 55.68,-51.33 -19.1,7.54 -10.16,11.72 -28.24,18.92 2.41,-15.55 20.81,-40.26 34.43,-50.01l4.17 19.14c0.1,0.56 0.63,3.86 0.7,3.18 0.08,-0.69 0.19,2.26 0.75,3.2 10.25,-14.12 11.9,-21.81 13.44,-40.43 -21.88,-4.61 -9.51,1.06 -34.2,10.89 6.75,-50.35 24.41,-62.1 -10.34,-103.82z"/>
    <path class="fil0" d="M3211.94 2024.07c-5.73,20.97 -6.76,17.53 -15.89,34.49 -17.01,31.63 -23.68,82.41 -34.99,116.66l10.31 -4.3c0.41,-0.11 2.02,-0.45 2.41,-0.54l5.19 -0.53c4.71,106 -1.78,57.24 24.51,136.95 12.19,36.97 -12.48,16.55 5.75,35.28 12.28,12.62 6.07,-5.55 17.14,20.95 31.52,-13.8 27.68,-6.28 58.64,11.66 58.51,33.9 61.94,8.48 93.62,-15.31 8.69,-6.53 21.46,-13.41 29.36,-18.8 40.26,-27.52 14.84,-41.13 48.37,-46.66 -2.21,11.81 -5.26,69.45 -5.39,85.5 80.88,-48.4 50.02,5.76 97.57,-113.45 30.77,-77.14 51.38,-214.77 42.35,-296.25 -5.72,-26.89 -20.51,-29.47 -34.85,-46.14 -6.87,3.56 -20.3,8.32 -25.77,13.24l-33.53 68.17c-17.53,59.51 -45.09,148.32 -83.99,195.1 -17.84,21.44 -46.46,59.04 -67.99,71.24 -49.01,-17.96 -55.03,-90 -54.99,-139.07 0.08,-105.53 14.35,-96.66 20.84,-124.85 3.77,-16.38 3.24,-31.97 2.05,-48.63 -45.85,-1.46 -98.27,63.95 -100.72,65.29z"/>
    <path class="fil0" d="M2848.22 1955.05c23.85,-12.02 13.38,-11.74 26.04,-51.41 16.34,-51.21 42.72,-118.08 95.98,-138.38 -15.26,28.99 -31.75,35.58 -46.79,63.76 -20.57,38.53 -35.25,50.79 -22.91,69.83 7.93,-30.11 21.89,-47.3 36.51,-72.11 10.34,-17.57 32.95,-44.28 53.3,-54.86 13.43,10.85 17.07,18.36 23.65,41.11 16.69,57.66 17.64,84.61 11.53,150.01 -15.75,168.57 -21.37,98.38 -42.06,196.46 -33.84,-3.3 -47.57,-19.51 -48.95,57.12 -35.79,-15.27 -54.3,-122.11 -62.84,-138.22 -2.73,40.58 13.85,74.02 26.96,103.1 28.13,62.42 47.63,40.94 40.87,77.03 -26.82,5.05 -20.73,5.8 -33.49,-9.69 -8.25,-10 -10.91,-17.02 -17.86,-30.38 -13.99,-26.92 -18.58,-40.73 -25.32,-70.82 -25.71,-114.92 -4.81,-107.8 -2.1,-158.21 0.08,-1.33 0.34,-1.95 0.73,-2.86 2.79,4.15 2.69,1.44 4.97,12.26 6.17,29.41 -11.31,44.64 5.13,68.93 1.47,-18.06 -1.21,-29.85 -0.17,-48.08 0.84,-14.88 3.95,-26.14 5.26,-44.8 -26.66,-15.82 26.44,8.19 -9.86,-1.23 -0.03,-0.01 -2.27,6.44 -14.03,-10.39 -4.84,-6.92 -0.51,-5.07 -4.55,-8.17zm214.23 473.76c-3.75,-45.13 -5.93,-62.17 -15.8,-105.66 -7.82,-34.44 -38.39,-62.14 -18.25,-94.23 -22.37,-14.63 6.21,8.34 -15.95,0 3.77,-22.89 14.57,-35.59 20.36,-59.65 5.71,-23.71 9.44,-44.44 15.31,-65.19 13.29,-46.91 23.79,-82.67 28.44,-132.92 5.23,-56.42 -0.99,-88.99 -4.13,-146.54 -5.39,-98.78 -12.56,-86.2 -47.33,-111.22 79.56,-39.4 78.17,130.67 73.59,188.15l2.39 -7.53c8.96,-35.96 4.15,-64.13 9.59,-96.66 -13.58,-17.62 -9.87,-55.99 -26.1,-76.03 -36.69,-45.31 -86.17,-5.4 -121.44,-1.86 -19,1.9 -20.27,-3.92 -39.92,6.96 -50.51,27.95 -64.26,83.11 -80.23,118.5 -10.54,23.34 -22.27,38.64 -34.3,62.35 -21.09,41.6 -38.15,108.62 -38.78,160.54l4.43 2.39c6.43,5.75 2.63,2.09 0.78,7.81 -8.76,27.01 -4.83,59.29 0.98,90.98 5.75,31.43 19.48,74.14 31.77,102.98 11.24,26.34 40.38,57.95 70.77,68.4 71.94,24.72 64.31,0.71 84.87,-26.39 30.81,19.27 20.72,50.13 36.39,66.37l49.53 57.07c0.71,-0.57 11.74,-7.48 13.03,-8.62z"/>
    <path class="fil0" d="M3878.58 1999.93c36.01,-19.08 41.06,-1.54 41.16,-1.47l-34.31 8.75c15.91,10.94 25.56,11.35 44.94,6.85 -10.18,31.97 -52.66,69.14 -77.26,89.6 -27.79,23.11 -44.87,33.1 -78.86,28.51 -18.31,-2.48 -17.97,5.08 -27.92,0.09 5.01,-7.03 6.85,-13.25 21.12,-16.77 34.72,-8.55 -13.31,6.7 17.12,1.68 21.52,-3.55 13.45,-24.89 14.15,-35.12 10.39,-3.27 12.32,-3.23 23.33,-9.35l19.62 -15.62c-9.2,-4.61 -2.75,-4.42 -15.01,-1.36 -11.74,2.92 -9.95,12.24 -38.93,18.18l90.85 -73.97zm-75.67 -41.09c-15,61.91 -134.05,127.05 -164.01,178.13 -13.68,23.32 -5.23,14.87 -2.38,34.25 8.07,54.9 -6.03,108.08 27.7,161.8 30.88,49.18 96.39,46.76 156.2,47.89l2.47 -16.85c54.08,-9.37 59.86,-11.79 73.26,-40.14 9.78,-20.67 8.61,-15.83 21.26,-32.51 12.37,-16.31 9.99,-13.79 14.58,-36.27l-28.9 10.15c-0.1,0.9 0.92,2.1 1.06,2.5 12.14,35.72 -3.83,21.17 -12.41,20.49 -37.89,-2.99 -68.58,41.98 -153.31,-32.51 15.46,-9.29 25.51,-6.2 42.47,-8.57l-30.44 -19.77c68.26,-14.22 71.78,-24.56 118.72,-54.19 47.5,-29.98 35.8,-11.4 59.58,-26.15 21.4,-13.28 16.98,-24.13 50.5,-32.92 -5.79,15.78 -6.17,14.37 -15.79,22.57 39.92,-11.34 15.52,-7.3 32.18,-40.38 9.2,-18.29 55.84,-46.47 51.48,-86.11 -7.32,-66.56 -36.5,-64.14 -67.88,-72.35 -26.8,-7.02 -32.18,-2.94 -58.77,1.8 -51.15,9.12 -59.37,48.36 -91.38,15.87 24.86,-15.26 39.77,-4.37 58.03,-17.6 -63.14,-3.29 -51.47,8.35 -84.22,20.87z"/>
    <path class="fil0" d="M4504.68 2175.2c19.89,-11.06 12.73,-29.86 21.48,-63.1 28.01,-106.48 27.41,-72.3 39.64,-100.03 1.15,17.73 -32.5,123.79 -38.74,152.95 -34.45,160.96 5.19,98.38 -6.92,166.86l-22.56 4.44c20.27,29.78 17.57,-6.1 31.62,13.9 6.3,8.98 4.66,24.66 8.29,39.93 3.44,14.49 0.36,6.01 4.78,13.51 54.23,-48.57 58.55,-283.37 136.2,-317.64 -7.63,18.72 -0.69,2.95 -6.54,13.61 -5.95,10.84 -0.42,0.08 -6.72,10.74 -8.56,14.5 -4,0.77 -8.81,17.98 27.56,-23.15 35.95,-59.54 80.71,-79.36 0.68,32.89 -1.05,88.54 -6.08,121.49 -5.78,37.89 -24.67,87.66 -11.55,110.69 19.04,-13.38 8.51,-12.58 19.89,-33.74 3.76,20.18 3.15,11.17 -2.45,30.88l-7.59 25.72c-13.25,53.46 -37.61,10.43 -18.69,85.31 4,15.8 3.73,17.55 24.95,28.87 8.45,-9.81 17.97,-16.56 25.95,-28.91 7.56,-11.7 9.7,-21.65 17.82,-36 41.62,-73.52 63.92,-154.33 74.35,-237.41 15.45,-123.14 -29.76,-114.24 -55.16,-143.03 -33.77,-38.28 -32.32,-21.8 -66.81,-5.3 -30.12,14.42 -34.72,-8.91 -79.92,17.56 -2.9,-3.63 -10.85,-15.22 -11.13,-15.52l-8.67 -7.05c-24.55,-20.09 15.42,16.75 -6.29,-4.58 -17.33,-17.03 -5.29,-15.79 -15.32,-32.03 -29.38,7.41 -64.76,77.7 -74.19,108.58 -8.12,26.55 -36.19,122.6 -31.54,140.68z"/>
    <path class="fil0" d="M4314.61 2012.04c22.47,0.24 27.48,7.06 50.89,1.95 -6.58,24.37 -40.75,58.25 -57.1,72.23 -21.43,18.34 -41.74,42.97 -85.55,46.66 3.88,15.93 3.75,9.84 2.41,13.78 -2.29,6.77 -3.53,5.88 -12.98,10 -13.09,5.7 -21.42,8.83 -32.72,3.95 9.49,-17.11 17.94,-15.45 42.96,-18.71 -9.57,-7.37 7.38,0.88 -9.42,-8.1 -14.36,-7.69 -2,-0.7 -24.55,-0.57l-6.51 -0.97c12.21,-15.44 17.62,-20.07 35.17,-15.32l5.56 1.91c25.56,-28.26 8.47,-11.65 12.13,-36.57 19.15,-7.39 41.53,-11.35 41.31,-33.01 -23.81,8.49 -25.62,19.36 -52.39,25.42 4.76,-7.9 83.78,-80.72 109.83,-82.1 27.11,-1.44 14.67,0.4 21.95,5.46 -16.43,6.4 -26.98,6.06 -40.99,13.99zm-116.87 273.53c0,-0.56 0.65,-2.13 0.67,-2.67 0.02,-0.52 0.59,-2.04 0.57,-2.54 -0.47,-12.13 -6.14,-9 -25,-24.59 15.28,-9.84 21.26,-5.99 42.13,-8.02l-29.37 -19.62c82.86,-25.85 48.76,-8.09 117.01,-55.33 25.59,-17.72 39.55,-13.55 60.36,-25.2 24.93,-13.96 13.52,-23.06 50.44,-33.21 -5.38,14.69 -7.59,15.01 -15.79,22.7l21.93 -7.55c14.5,-49.02 20.76,-44.54 51.19,-83.77 16.85,-21.73 24.47,-137.01 -125.05,-104.54 -42.28,9.18 -41.4,42.71 -81.95,15.74 7.53,-5.95 13.84,-7.98 26.36,-10.73l28.9 -8.93c-91.32,-0.67 -88.73,52.13 -135.59,95.07 -33.57,30.76 -92.24,72.09 -111.43,109.25 -9.46,18.33 3.22,132.26 18.64,172.85 26.51,69.79 138.12,79.06 164.41,58.04 0.89,-0.71 2.06,-1.87 3,-2.58l6.3 -4.7c13.82,-8.25 44.91,-10 59.79,-30.97 9.66,-13.63 39,-58.74 43.04,-79.72 -9.97,2.15 -24.57,3.78 -29.57,11.02 -11.75,17.04 -0.31,-5.1 7.89,14.72 -12.07,22.74 -18.92,29.26 -48.94,36 1.19,-1.05 2.84,-2.2 3.79,-2.9 19.28,-14.09 24.82,-13.53 29.79,-29.22 -18.38,2.82 -34.18,11.16 -53.56,13.43 -17.77,2.08 -49.47,-5.5 -51.51,-4.39 -5.29,2.89 20.45,13.96 -14.54,8.35 -15.83,-2.54 -13.84,-5.68 -13.91,-15.99z"/>
    <path class="fil0" d="M1115.82 2192.02c58.97,1.79 67.64,13.64 107.96,37.23 34.57,20.22 76.25,25.97 92.75,60.04 -89.53,15.97 -114.59,-18.04 -154.42,-47.3 -16.54,-12.14 -63.75,-8.33 -75.51,-46.83 1.71,0.24 4.17,-0.85 5.04,1.2l13.21 4.88c3.42,1.92 11.05,8.95 14.83,13.25 1.52,-2.07 19.76,3.45 -3.86,-22.47zm405.74 -191.96c-1.35,-30.54 -18.84,-16.92 -35.12,-41.69 -5.58,-8.48 9.19,-16.64 -54.7,-23.02 -36.18,-3.61 -122.69,-2.38 -151.56,17.3 -6.98,4.75 -37.24,35.95 -43.66,42.37 -37.18,37.22 -43.38,52.74 -30.65,89.81 14.96,43.59 -11.13,12.63 25.23,100.43 -60.5,-13.77 -87.96,-56.77 -159.35,-18.2 -5.25,30.89 -3.32,24.92 -11.28,54.48 -8.29,30.77 3.97,27.35 21.97,39.6l-12.08 8.06c-8.5,6.42 -1.65,-1.98 -6.88,6.33 76.41,33.06 7.36,26.21 74.98,44.48 27.49,7.43 18.8,11.74 41.22,22.57 21.42,10.33 22.58,8.41 37.89,23.21l-61.12 -19.06c16.38,27.33 52.64,26.18 83.07,25.73 148.09,-2.18 80.99,9.34 124.14,-24.82 10.65,-8.42 17,-8.62 28.38,-16.69l-21.63 -5.37c1.6,-46.96 46.19,-67.58 22.17,-120.85 -9.17,-20.34 -24.79,-23.38 -39.79,-40.61 -6.23,-7.15 -10.21,-13.46 -16.81,-21.84l-8.28 -10.14c-10.23,-14.09 -6.87,7.29 -2.32,-4.68 8.54,-15.52 1.48,-12.08 18.97,-4.37 92.74,40.88 106.3,65.65 81.13,161.09 5.89,-5.45 3.45,-1.88 8.57,-10.2l3.85 -7.57c0.94,-2.25 4.48,-18.82 4.94,-21.96 2.44,-16.72 4.29,-35.5 -0.26,-51.6 -6.64,-23.46 -26.44,-41.65 -47.78,-54.43 -43.86,-26.27 -101.72,-22.26 -95.57,-113.56 68.21,-45.18 160.07,10.81 222.33,-24.8z"/>
    <path class="fil0" d="M521.97 1729.51c-14.55,-19.76 -14.35,-1.35 -25.35,-15.79 -12.5,-16.4 3.65,-7.27 2.94,-18 -2.74,-41.12 -127.93,25.16 -129.59,25.5 -22.68,4.74 -11.18,-3.65 -36.29,9.92 4.86,8.49 15.82,10.34 21.6,15.33 -16.21,4.62 -11.97,-2.72 -16.15,17.16l30.61 8.84c-7.83,23.68 -9.1,8.88 -23.86,33.01 57.49,-26.91 39.59,-10.81 47.56,-2.88l-50.8 12.38c16.72,9.96 19.92,4.32 39.48,0.74 0.51,27.06 -12.46,49.36 -15.52,76.06 -3.5,30.59 -8.64,51.96 -10.29,74.6 -2.03,27.77 -24.21,310.53 -31,320.27 -16.15,23.17 -86.74,52.92 -102.18,76.52 1.3,0.92 3.25,1.55 4.35,2l29.22 10.32c43.1,13.84 45.96,-2.58 71.76,-6.07 28.06,-3.79 5.06,0.96 30.51,10.58 22.42,-64.01 19.18,-12.68 97.32,-65.11l12.89 -8.39c8.52,-5.95 6.1,-5.72 19.27,-12.69 19.64,-10.38 30.01,-9.71 35.33,-31.91 -8.83,-3.15 -18.34,-3.47 -30.65,-4.56 -59.17,-5.23 10.07,-19.34 -83.33,-15.14 3.18,-10.38 8.73,-22.22 9.71,-32.16 1.48,-14.98 -0.07,-2.62 -0.55,-9.45l-1.45 -21.39c-0.46,-20.36 1.03,-10.53 2.99,-11.7 2.42,-14.79 -0.71,-1.67 1.94,3.94l6.5 13.61c1.8,-22.09 4.54,-37.92 6.1,-61.84 1.33,-20.57 2.16,-16.85 6.04,-36.84 9.73,-50.25 10.57,-118.87 20.41,-163.41 13.34,-60.29 3.77,-129.53 4.56,-145.12 37.97,-30.78 46.96,-20.27 55.92,-48.33z"/>
    <path class="fil0" d="M714.98 2155.25c23.07,-35.02 25.62,-10.16 50.69,-40.55 25.25,-30.6 13.72,-5.5 41.47,-44.62 23.41,-32.99 24.3,-7.85 38.31,-46.8 12.8,-35.6 22.25,-31.11 24.08,-62.91 -33.56,2.1 -59.14,18.27 -85.08,33.54 -62.78,36.94 -36.19,3.48 -53.2,-35.56 -15.52,-6.18 -21.21,-7.02 -30.46,10.22 -7.98,-3.14 -18.09,-13.65 -31.07,-15.24 -21.55,56.46 -54.05,39.3 -70.36,98.09 29.97,-33.37 23.77,-38.73 43.91,-45.99l-13.71 38.69c19.36,-17.8 8,-23.25 30.98,-40.54 -5.15,20.11 -21.2,47.09 -34.42,62.33 -7.6,8.76 -1.02,-2.14 -12.08,14.94 -23.35,36.08 -7.33,28.37 -6.81,29.37 0.56,1.06 3.55,4.48 4.11,5.24 20.73,28.2 -2.94,-18.86 4.61,5.44 -19.16,15.49 -22.17,27.38 -21.54,35.92 4.04,54.53 -3.83,31.83 -7.13,88.43 -0.94,16.04 -2.8,33.33 -3.09,48.46 -0.94,49.43 -5.92,29.38 -6.45,46.21 -0.69,21.83 8.3,39.56 27,46.46 -10.12,19.06 -5.3,-1.13 -15.28,21.99 26.26,-10.6 1.48,-6.81 27.36,-12.35 9.02,10.27 1.78,3.25 8.89,12.58 5.41,7.09 0.59,2.7 7.22,8.43 18.65,-7.88 6.07,3.84 16.99,-16.27 -0.66,-0.2 -1.7,0.6 -1.95,0.66l-4.42 1.12c-12.76,1.39 11.73,14.52 -16.58,-1.78 8.73,-44.67 36.8,-31.57 68.41,-143.55 0.34,-1.21 1.53,-4.56 1.87,-5.75 2.5,-8.66 1.72,-3.91 3.01,-14.67 1.28,-10.71 0.2,-6.58 1.96,-14.52l16.12 -48.02c5.4,-16.18 -1.38,-10.83 -2.01,-16.93 -0.1,-1 -1.15,-1.27 -1.35,-2.07z"/>
    <path class="fil0" d="M953.65 2223.4c-2.78,-7.37 0.61,-60.05 7.49,-72.35 0.21,-0.36 1.1,-1.47 1.29,-1.83l8.47 -29.4c-1.38,-66.58 33.46,-102.51 11.4,-142.04 -36.2,-4.31 -39.7,15.91 -76.66,47.08 4.75,76.55 -39.65,132.77 -24.5,278.51 0.56,5.39 18.59,70.64 20.29,74.32 4.46,-15.89 -3.49,7.26 -0.08,-14.53 2.56,-16.4 -1.52,-7.42 5.45,-15.97 14.9,8.36 27.42,23.31 46.05,24.38 8.34,-13.43 6.95,-21.26 9.06,-40.99l16.73 20.11c-6.67,-41.78 -10.41,-99.18 -7.14,-140.52 2.28,-28.9 -3.49,-22.21 -4.69,-31.91 -0.29,-2.39 -1.29,-2.99 -2.25,-4.28 -5.94,22.33 1.99,6.3 -0.6,27.47 -2.05,16.76 -5.27,16.53 -10.31,21.95z"/>
    <path class="fil0" d="M928.44 1847.33c15.64,-15.27 25.03,-32.87 36.97,-42.67 -5.45,15.7 -8.06,22.59 -16.87,36.29 -14.45,22.43 -7.32,11.07 -14.5,38.92 0.68,1.08 2.05,2.28 2.58,2.83l7.98 8.05c11.16,11.07 0.06,-6.78 9.94,9.99 -18.21,3.81 -13.36,3.08 -38.19,-8.11 13.09,30.4 30.01,22.22 48.93,8.34l80.06 -70.37c6.29,-7.17 35.5,-60.05 -15.56,-69.02 -48.31,-8.48 -92.05,30.48 -101.34,85.75z"/>
   </g>
  </g>
 </g>
</svg>
