<?xml version="1.0" encoding="UTF-8"?>
<!DOCTYPE svg PUBLIC "-//W3C//DTD SVG 1.1//EN" "http://www.w3.org/Graphics/SVG/1.1/DTD/svg11.dtd">
<!-- Creator: CorelDRAW 2017 -->
<svg xmlns="http://www.w3.org/2000/svg" xml:space="preserve" width="50.7998mm" height="33.8666mm" version="1.1" style="shape-rendering:geometricPrecision; text-rendering:geometricPrecision; image-rendering:optimizeQuality; fill-rule:evenodd; clip-rule:evenodd"
viewBox="0 0 5079.98 3386.66"
 xmlns:xlink="http://www.w3.org/1999/xlink">
 <defs>
  <style type="text/css">
   <![CDATA[
    .fil0 {fill:none}
    .fil1 {fill:black}
   ]]>
  </style>
 </defs>
 <g id="Capa_x0020_1">
  <metadata id="CorelCorpID_0Corel-Layer"/>
  <rect class="fil0" x="-0" width="5079.99" height="3386.66"/>
  <g id="_2159945017696">
   <path class="fil1" d="M2808.5 133.62c-6.64,-19.62 -2.84,-16.32 0.09,-37.09 -28.41,0.65 -20.11,2.04 -38.07,10.76 -4.8,-19.65 -55.14,-88.58 -77.69,-91.42 -20.5,30.52 3.79,42.45 -5.96,71.28 -2.71,7.99 -34.46,41.22 -41.84,45.89 -18.04,11.42 -38.75,18.01 -55.66,30.95 -88.01,67.37 -106.44,187.01 -146.27,283.67 -20.13,48.85 -91.78,209.65 -102.26,246.08l-72.81 228.97c-5.81,11.02 -10,6.97 -12.84,24.39 27.76,-8.07 27.21,-7.7 32.93,-35.86l33.36 -108.57c18.46,-43.33 33.79,-114.85 52.38,-158.21 8.06,-18.79 5.73,-10.77 13.65,-23.21l32.03 -73.59c2.7,-9.76 4.44,-19.01 8.52,-27.88l49.48 -128.86c7,-17.06 15.39,-29.01 22.18,-46.28 13.69,-34.8 29.09,-64.81 49.8,-92.15 17.73,-23.41 27.62,-41.42 47.13,-58.32l18.44 -15.02c-12.68,37.6 -47.61,109.59 -70.15,150.75 -34.03,62.11 -54.44,149.89 -85.53,212.16 -40.03,80.16 -61.72,165.24 -96.23,247.1 -17.72,42.04 -22.22,82.48 -40.05,128.93 -20,52.11 -16.7,29.69 -31.6,55.49 -6.97,12.07 -2.42,15.14 -10.85,30.2 -4.89,8.73 -12.65,16.14 -17.22,24.03 -15.72,27.14 -27.84,57.14 -46.54,81.55 -2.9,3.78 -7.64,10.51 -9.94,13.23 -10,11.86 1.04,2.04 -11.04,11.05 3.8,-11.69 6.7,-16.18 13.69,-26.92 23.07,-35.45 7.47,-40.93 25.08,-65.56 19.81,-27.71 13.99,-65.41 43.46,-86.08l-20.09 -0.44c-31.59,40.09 -51,120.81 -73.23,168.46 -12.26,26.28 -12.98,23.24 -23.59,40.5 -12.74,20.72 -6.05,24.59 -10.26,43.38 -4.14,18.5 -12.48,4.29 -15.21,39.8 -1.91,24.86 -5.97,28.16 -25.95,36.73 0.87,0.86 2.09,2 2.56,2.63 0.45,0.63 1.82,1.94 2.31,2.72l-25.96 84.82 -62.63 -87.25c-35.79,-86.73 -90.86,-128.21 -112.98,-189.2 -11.89,-32.77 -12.03,-23.07 -36.34,-41.13 -26.45,-19.65 -43.66,-63.35 -56.73,-94.5 -33.54,-79.98 -10.96,-51.64 -39.41,-74.35 -18.17,-14.5 -34.13,-45.42 -45.47,-64.99 -22.26,-38.41 -18.89,-71.33 -52.72,-98.2 -24.37,-19.36 -8.87,0.06 -14.98,-21.98 -6.35,-22.87 8.77,-6.83 -16.37,-19.88 -24.9,-12.92 -14.5,-20.28 -22.27,-50.5 -33.08,-11.21 -23.91,0.56 -41.54,-25.6 8.03,-30.38 12.88,2.16 13.64,-36.61 -9.76,-9.16 -11.79,-8.61 -30.02,-13.66 -12.57,-3.49 -16.33,-4.89 -30.13,-5.88 5.12,-24.83 -3.43,-50.76 -14.95,-71.77 -59.97,-0.51 -73.81,84.23 -82.44,127.9 -9.9,50.06 -17.1,14.15 -17.02,87.06 0.07,63.94 -32.32,101.22 -54.5,157.04 -15.76,39.68 4.28,52.75 -12.27,92.35 -18.6,44.51 -0.46,47.9 -12.03,93.5l-18.2 191.04c1.63,19.4 2.99,24.6 -2.59,44.65 -9.65,34.68 3.3,21.9 -0.69,46.88 -2.81,17.63 -9.38,6.67 -11.26,28.71 -1.19,13.98 1.98,34.26 1.26,50.51l-8.16 205.95c-1.53,89.15 36.4,151.65 14.74,290.37 39.37,18.92 13.12,59.68 15.09,77.6 0.45,4.07 4.89,17.28 6.12,25.26 6.25,40.25 9.28,78.63 37.37,98.28 61.37,-8.69 31.03,-34.86 59.25,-82.33 26.04,-43.78 34.82,2.58 74.67,-81.19 60.58,-127.33 30.06,-155.14 55.35,-251.2 14.57,-55.37 16.71,-75.53 18.26,-136.32 1.27,-50.16 11.14,-80.55 8.6,-131.27 -3.31,-66.31 -21.59,-239.92 -10.14,-293.62 20.77,3.19 24.05,20.62 35.74,39.56l124.49 177.47c18.13,20.05 26.28,16.78 32.52,42.18 5.46,22.23 10.97,27.83 25.85,46.06 33.09,40.57 14.41,13.52 17.66,46.02 17.55,-8.03 2.57,-15.46 25.15,-11.32 4.5,14.38 1,5.86 -1.37,12.29l-3.3 4.93c-0.19,-0.66 -1.52,1.38 -1.98,2.28 26.17,6.66 8.47,8.48 21.86,22.2l24.67 20.37 -8.23 25.76c16.61,16.4 18.7,9.82 26.47,37.4 6.55,23.28 8.05,27.52 30.94,32.76 12.31,-20.48 -3.99,-8.33 9.15,-26.17 11.37,2.87 24.01,18.35 33.18,25.24 21.27,15.99 -0.49,20.82 33.67,48.81l40.91 41.49c28.19,27.32 53.55,58.16 83.57,80.87 2.5,1.89 4.7,3.53 8,5.91 1.07,0.78 7.68,5.53 7.94,5.67 11.67,6.1 2.97,4.6 20.08,3.45 -0.21,-13.07 -2.12,-9.79 -9.05,-20.78 17.95,5.09 85.42,72.71 83.46,-31.53 -0.87,-46.51 18.13,-61.18 21.16,-87.7 3,-26.25 -8.95,-12.82 7.89,-38.94 15.82,-24.56 26.71,-48.87 39.97,-70.31 15.87,-25.64 29.83,-44.8 43.61,-65.88 8.93,-13.65 12.9,-20.56 22.27,-32.71 26.99,-34.99 52.24,-108.84 64.53,-154.88 8.8,-33 12.19,-9.84 19.29,-35.91 4.24,-15.57 -5.43,-1.87 4.95,-22.32 11.13,-21.92 19.15,-11.81 28.22,-49.34 9.14,-37.8 23.27,-43.95 31.93,-77.85 6.59,-25.78 17.78,-57.97 26.89,-83.27 17.63,-48.97 69.15,-191.88 93.87,-235.76 28.34,-50.29 29.77,-118.13 50.38,-169.64 12.93,-32.31 -0.36,-64.76 42.52,-68.37 -9.66,25.65 -16.33,11.87 -15.67,37.12 0.41,15.77 3.98,17.26 15.85,25.32 -3.99,42.66 -6.03,29.59 15.21,54.86 11.77,14 11.05,34.14 16.53,56.42l37.84 4.01c-10.4,3.35 -19.99,2.81 -25.73,8.28 7.67,26.42 7.15,30.6 20.69,51.37 10.54,16.16 42.66,76.79 47.95,98.19 10.54,42.6 -2.38,25.84 31.84,42.64 -13.16,21.55 -13.26,21.43 3.77,41.1l74.66 131.27c12.27,18.68 38.56,52.91 40.81,70.75 7.78,61.56 11.85,34.3 40.8,76.4l40.65 78.75c5.38,10.97 3.56,13.06 10.61,21.13 7.07,8.11 6.73,3.11 15.11,12.26 11.74,12.82 4.72,18.76 9.76,34.44 2.95,9.17 1.13,4.35 5.11,9.5 21.57,27.93 28.55,24.17 51.75,68.36 26.81,51.06 63.19,51.33 33.8,87.59 19.71,26.68 37.55,42.85 46.39,83.1 29.2,132.97 12.6,89.37 50.17,105.35 12.71,5.4 9.58,11.73 14.93,12.9 22.19,-3.47 27.18,-11.52 43.98,-7.82 32.45,7.15 1.56,8.02 43.17,4.76 1.1,-0.09 2.43,-0.05 3.55,-0.06 15.59,-0.27 -4.17,1.2 10.97,0.98 30.98,-0.45 19.86,-29.94 14.57,-50.08 21.99,-7.17 34.58,-32.35 49.85,-51.5 5.15,-6.46 8.45,-12.74 13.46,-18.73l61.51 -66.67c14.3,-13.8 17.1,-12.54 30.1,-33.97 13.3,-21.91 37.09,-40.54 55.06,-59.53 19.65,-20.78 33.03,-45.33 48.52,-65.52 6.2,-8.08 9.64,-10.09 15.12,-17.14 27.97,-35.95 49.89,-79.78 80.75,-111.35 33.39,-34.17 51.66,-46.38 63.47,-96.74 6.68,-28.51 -1.06,-4.83 12.32,-18.8 10.59,-11.05 15.45,-26.05 33.55,-28.99 4.17,11.66 2.93,7.94 4.75,18.26l3.64 18.87c5.94,19.14 6,9.06 6.45,34.65 0.54,30.93 -3.23,52.63 20.39,62.83 -14.66,37.59 -12.4,26.69 11.72,51.8 -5.58,48.83 -10.3,44.16 -3.77,96.6 5.78,46.38 18.59,90.23 20,136.17 1.05,33.87 2.99,0.89 12.48,32.95 13.01,43.98 -6.21,51.9 20.04,77.51 -6.47,37.47 2.17,53.28 12.71,84.91l20.88 75.42c34.76,68.61 15.66,69.71 25.23,164.27 0.93,9.18 18.43,67.61 22.82,76.03 13.67,26.23 19.2,36.84 24.71,71.93 4.87,31.01 18.15,41.71 26.68,69.1 19.59,62.93 -24.53,75.42 25.66,88.93 18.12,4.88 40.72,13.91 37.7,40.11 -113.05,16.09 -214.61,-25.79 -319.49,-41.46l-104.85 -6.3c12.75,24.53 36.25,29.68 64.96,30.89 23.04,0.97 50.18,4.97 67.02,23.48 -8.93,6.31 -17.38,3.96 -33.84,0.34 -13.6,-3 -22.82,-5.12 -32.93,-9.78 -38.18,-17.59 -42.96,-0.78 -68.99,-11.89 -5.51,-14.75 14.81,-26.56 -13.94,-31.77 -9.8,-1.77 -43.38,-2.99 -56.62,-4.15 -34.58,-3.03 -83.04,-14.81 -115.31,-4.69 -48.71,15.27 -13.4,4 -44.53,-3.79 -20.69,-5.18 -30.83,3.33 -47.57,8.07 -20.3,5.75 -72.6,-9.74 -101.79,-11.76 -36.92,-2.56 -87.02,-1.16 -123.85,1.9 -27.6,2.29 -26.14,-1.9 -46.05,-4.4 -7.64,-0.97 -42.03,2.8 -54.37,3.05 -70.5,1.4 -161.38,-18.84 -224.3,7.4 -24.78,-11.01 0.53,-20.24 -49.01,-13.5 -25.11,3.42 -29.77,12.24 -51.67,2.27 -10.86,19.33 -9.37,23.53 -34.71,20.52 13.52,-23.83 -0.09,-1.73 16.25,-11.8 18.44,-11.35 0.55,8.07 5.88,-4.66 -17.23,-10.2 -25.92,-2.75 -33.75,-0.06 -32.96,11.31 -3.6,0.61 -21.16,1.25 -1.83,0.06 -18.23,5.46 -32.13,6.23 -20.29,1.13 -16.86,-2.97 -25.67,-3.9 -29.5,-3.11 -17.63,22.72 -47.36,5.11 -28.19,-16.7 -38.07,-0.49 -59.28,-1.07 -18.39,-0.51 -46.72,-8.34 -70.09,-9.37 -53.16,-2.33 -79.68,7.98 -144.08,0.74 -26.03,-2.93 -45.22,0.79 -71.04,1.02 -0.49,0.77 -0.96,2.11 -1.11,2.52l-2.95 9.26c-0.06,-0.51 -0.21,1.46 -0.52,2.12 -9.37,-10.06 -6.44,-14.61 -22.96,-14.98 -32.9,-0.73 0.13,-3.89 -22.8,10.95 -15.63,-15.28 -48.43,-7.98 -72.38,-10.89 -33.46,-4.08 -73.36,-14.36 -110.67,-13.67 -24.43,0.45 -10.27,5.36 -33.59,1.48 -59.77,-9.95 -27.98,-2.31 -55.47,-3.5 -28.8,-1.25 -26.3,-13.14 -66.15,-6.26 -27.89,4.82 1.15,-6.67 -60,-4.49 -17.27,0.62 -26.22,-4.87 -33.29,-5.58l-59.4 -0.15c-27.12,-0.44 -2.63,1.42 -21.61,-10.74 -17.01,7.3 -6.91,8.64 -22.71,10.24 -24.77,2.51 -107.16,-17.76 -142.54,-8.3 -47.3,12.66 -180.97,-5.94 -240.95,3.61 -22.25,3.54 4.14,10.13 -19.45,2.22 -32.92,-11.02 -18.73,-7.22 -50.45,-4.04l-88.47 1.29c-38.8,-5.26 -29.25,-0.49 -58.19,6.04 -44.61,10.06 -98.06,-16.77 -133.14,-8.76 -15.36,3.52 -13.65,0.96 -30.47,-4.27 -6.65,-2.07 -101.72,-5.87 -110.03,-3.88 7.41,15.76 9.75,8.64 19.9,29.18 -33.02,1.85 -295.89,27.64 -307.85,34.38 8.28,24.53 26.59,19.18 53.48,23.25 21.69,3.28 25.08,10.22 41.88,13.85l19.13 4.09 -61.91 20.85c-21.45,6.37 -10.83,-5.21 -14.65,11.18 10.44,11.04 73.07,14.05 93.71,15.57 53.23,3.89 71.78,-21.98 66.92,30.2 29.82,4.41 73.98,32.31 99.4,4.57 -1.09,-0.69 -2.64,-1.34 -3.51,-1.68l-22.16 -5.9c-9.75,-1.87 -15.26,-3.02 -21.8,-5.91 7.83,-6.31 -1.87,-1.82 10.34,-4.3 6.02,-1.23 5.34,-0.73 11.58,-0.5 52.08,1.93 43.15,10.29 35.59,30.9 39.55,11.91 106.53,9.38 149.68,14.86 16.44,2.08 20.2,2.33 31.37,-8.9 0.55,-0.55 1.79,-1.22 2.17,-2.83 0.37,-1.6 1.23,-2.06 3.81,-3.28l6.51 22.8c120.11,-2.19 216.47,1.68 334.05,12.56 18.76,1.74 19.97,3.72 30.99,-13.15 0.82,1.1 1.52,2.73 2.15,3.52 5.73,7.14 4.33,8.44 14.28,11.92 23.07,8.06 53.68,0.24 77.2,3.5 5.67,0.79 19.27,4.09 24,4.27 18.66,0.68 12.72,-5.42 25.13,-1.07l24.6 2.39c44.7,-7.1 50.83,13.82 99.92,5.14 9.65,-1.71 15.29,-4.41 23.59,-4.43 37.61,-0.13 101.37,17.28 168.76,12.24 31.83,-2.38 79.03,4.7 102.18,2 23.16,-2.7 -6.82,-4.7 16.19,-3.26 20.23,1.27 -5.03,2.58 17.74,4.27 19.62,1.45 23.69,-6.79 41.07,-4.61 32.62,4.11 52.88,12.44 92.84,14.22 5.92,6.68 12.2,34.57 42.8,13.6l5.3 -5.99c0.53,-1.87 1.54,-2.26 2.24,-3.44 26.36,17.57 44.5,18.02 82.38,15.71 105.41,-6.45 69.5,28.86 100.68,-9.91 39.87,42.85 89.51,18.36 146.44,25.81l7.2 -8.49c7.71,-7.78 -5.44,0.39 6.53,-4.65 14.09,5.89 79.09,11.76 95.22,7.27 13.82,-3.83 15.51,-7.64 41.09,-3.52 82.24,13.24 153.09,-10.08 238.96,15.95 10.67,-15.95 8.88,-19.88 34.65,-12.08 25.07,7.59 8.16,12.66 38.51,3.32 16.9,-5.19 0.61,-4.62 18.57,-0.57 16.05,3.62 -8.03,1.99 15.89,2.64l32.75 -1.79c12.36,-0.84 50.99,14.16 76.01,16.13 65.08,5.11 394.82,15 423.22,22.39 16.39,4.27 11.76,6.24 30.25,14.3l3.42 -18.82c25.93,2.33 50.23,7.24 73.31,9.58 24.24,2.47 48.51,-1.83 72.35,-2.43 50.97,-1.27 100.62,3.58 151.26,2.44l155.75 1.79c60.56,5.68 60.59,33.41 118.84,10.29 4.13,8.81 -0.5,15.16 0,16.6 10.33,2.37 46.71,5.14 55.67,4.39 12.82,-1.09 23.84,-10.95 35.86,-17.65 1.07,0.46 2.04,1.8 2.68,2.25 0.65,0.46 1.97,1.66 2.81,2.19 0.85,0.55 2,1.52 2.99,2.07 1.02,0.56 2.12,1.36 3.24,1.84 1.15,0.5 2.29,1.14 3.51,1.51 22.78,6.87 24.3,-4.18 32.7,-18.17 -6.95,-22.07 9.2,20.52 -5.99,-8.76 -3.82,-7.35 -3.8,2.47 -2.19,-7.24 25.58,-5.37 29.22,12.45 51.66,16.69 53.63,10.11 59.98,13.62 74.52,-31.34 9.38,-29.03 16.11,-10.05 25.81,-31.88 10.91,-23.25 -13.02,-26.81 -26.9,-38.15 1,-0.57 2.5,-1 3.23,-1.23 0.75,-0.23 2.38,-0.87 3.32,-1.14 0.98,-0.28 2.38,-0.73 3.48,-1.01 4.77,-1.23 2.4,-0.53 7.46,-1.58 15.44,-3.21 28.4,-6.08 37.33,-17.92 -6.38,-30.15 -23.5,-18.58 -48.32,-24.83 1.16,-24.77 19.71,-22.32 43.84,-30.09 3.76,-37.89 -16.91,-32.27 -57.46,-38.45 -4.37,-26.22 -2.26,-58.98 -9.75,-82.72l-28.94 -56.55c-16.23,34.6 8.98,24.59 1.65,68.8 -8.89,-6.08 -5.07,-0.82 -10.72,-10.38l-12.34 -56.93c6.79,-15.3 -6.73,3.33 6.79,-6.01l11.02 -5.39c-17.09,-43.93 -12.4,-92.77 -38.12,-128.14l18.87 -13.73c-48.08,-129.71 -81.69,-286.85 -102.5,-429.27 -3.28,-22.41 -15.85,-67.58 -15.06,-84.31 5.08,-107.57 -13.87,-28.35 -17.56,-129.44 -1.01,-27.49 2.27,-3.7 2.8,-17.56 0.41,-10.39 2.28,0.09 -4.22,-12.47 -22.81,-44.1 -39.35,-314.92 -40.8,-382.3 -1.33,-62.53 7.57,-132.04 9.51,-195.64 2.22,-72.58 -7.96,-121.72 -13.23,-192.45 -20.62,0.61 -26.06,8.3 -43.19,2.66 2.42,-24.81 -4.43,-5.69 16.86,-19.1 -7.2,-13.98 -2.42,-0.76 -10,-15.85 -3.23,-6.45 -3.18,-9.46 -6.57,-16.2 -26.86,-1.37 -55.96,12.58 -73.54,23.12 -32.08,19.23 -15.85,35.08 -55.23,39.65 -45,5.21 -65.1,45.12 -94.89,70.87 -30.69,26.54 -61.19,61.32 -86.64,91.97 -48.78,58.72 -103.81,124.41 -162.02,176.76 -4.02,3.62 -1.11,0.7 -6.81,6.98 -35.44,39.02 -80.86,72.24 -95.87,100.59 -11.69,22.08 -29.32,32.32 -46.85,49.28l-142.77 182.11 -4.23 -9.65c-3.72,-7.1 0.45,-2.41 -5.07,-8.5l-15.04 -8.97c5.06,-6.84 2.14,1.25 3.56,-8.82 0.18,-1.26 0.25,-5.32 0.15,-6.76 -3.7,-49.9 -34.62,-67.18 -35.82,-121.99 -10.1,-6.07 -7.13,-3.45 -24.02,-1.76 13.23,-34.59 9.27,-3.94 -7,-29.96 -9.08,-14.52 -3.77,-15.99 -7.13,-33.43 -6.45,-33.49 -45.95,-75.61 -64.95,-109.62 -11.92,-21.33 -6.22,-33.79 -24.95,-43.11l-14.15 -6.36c-4.72,-29.8 0.27,-31.29 -15.07,-56.4 -15.61,-25.55 -42.16,-65.54 -53.09,-92.97 -21.35,-53.62 -46.93,-97.14 -72.46,-147.77 -5.83,-11.57 -8.35,-13.12 -14.47,-22.29 -10.4,-15.58 -2.56,-8.95 -5.11,-23.18 -1.86,-10.4 -14.33,-24.3 -19.91,-34.05 -38.34,-67.08 -81.26,-131.25 -103.22,-207.66 -11.48,-39.97 -21.78,-72.99 -32.94,-113.56 -5.37,-19.52 -12.6,-33.04 -18.36,-55.27 -5.2,-20.09 -6.52,-33.88 -16.25,-52.65l-30.42 -5.34z"/>
   <g>
    <path class="fil1" d="M2139.15 3353.39c6.36,-28.11 -43.81,-132.56 -55.41,-149.92l-43.95 -103.49c-1.36,-21.74 53.29,-116.89 61.62,-139.55 10.59,-28.83 21.66,-38.75 31,-69.96 15.19,-50.79 51.54,-86.63 58.55,-137.73 5.11,-37.25 68.65,-155.74 -10.02,-74.78 -59.34,61.06 -46.26,59.11 -89.51,107.22 -30.74,34.2 -26.28,38.63 -39.41,56.8l-82.02 119.55c-3.61,-7.99 -9.4,-18.39 -15.1,-27.26 -23.08,-35.93 -57.27,-109.53 -68.92,-123.1 -13.66,-15.91 -21.53,-31.74 -51.37,-26.02 -18.57,23.63 -7.23,43.31 -4.31,77.37 4.62,53.98 23.13,106.63 45.61,150.87l30.23 66.5c5.06,22.35 -38.81,101.02 -55.39,137.56l-28.75 70.27c-11.52,22.83 -14.62,91.91 27.19,56.47 9.37,-7.94 15.22,-11.86 23.52,-18.07l28.58 -30.65c0.56,-0.81 1.28,-1.96 1.85,-2.76l11.97 -15.28c18.13,-26.39 61.78,-69.06 63.79,-79.27 0.33,-1.69 1.37,-2.01 2.15,-2.94 14.67,8.18 96.63,117.84 113.22,135.59 9.35,10.02 13.11,11.32 20.14,20.89 10.91,14.85 -0.04,10.98 17.66,18.88l7.08 -17.19z"/>
    <path class="fil1" d="M2503.72 3132.85c-65.96,-1.82 -87.08,85.73 -121.25,126.55 -15.92,19.01 -44.56,9.91 -56.45,-0.33 -29.16,-25.12 -24.66,-123.4 -22.96,-157.38l35.08 -156.24c23.81,-50.26 92.87,-171.44 155.47,-166.45 6.12,16.47 2.21,12.11 0.32,27.83 -2.13,17.58 -1.38,3.75 4.05,22.71l1.28 5.87c7.36,30.88 -0.05,-6.86 14.56,25.36l2.67 7.08c36.97,-16.19 40,1.18 47.34,-43.69 3.61,-22.1 13.46,-13.44 28.13,-22.04 -18.74,-48.28 -18.29,-43.85 -40.94,-70.12 -20.32,-23.57 -41.92,-39.24 -81.67,-26.01 -124.07,41.27 -214.04,261.16 -228.94,374.13 -3.02,22.89 -10.36,36.21 -16,57.5 -7.72,29.18 -15.19,29.01 -16.18,63.51 -1.88,65.28 64.94,126.07 67.35,148.22 16.94,-16.33 26.52,-4.37 45.92,3.2l-35.5 6.71c-8.89,4.46 -3.38,-9.73 -6.48,7.12 9.56,2.81 71,5.24 86.14,4.13 37,-2.73 37.67,-12.23 62.92,-28.52 37.03,-23.9 19.32,-18.81 44.12,-47 16.45,-18.7 40.24,-18.88 47.46,-43.74 -16.28,6.42 -8.66,9.98 -24.07,16.12 2.06,-13.26 17.74,-34.31 29.35,-42.62l3.55 16.31c0.09,0.48 0.53,3.29 0.6,2.71 0.06,-0.59 0.15,1.92 0.63,2.72 8.74,-12.03 10.14,-18.58 11.46,-34.45 -18.65,-3.93 -8.1,0.9 -29.15,9.28 5.75,-42.91 20.8,-52.92 -8.81,-88.47z"/>
    <path class="fil1" d="M3112.64 3003.75c-4.88,17.87 -5.76,14.94 -13.54,29.39 -14.5,26.96 -20.18,70.23 -29.82,99.42l8.78 -3.66c0.36,-0.1 1.73,-0.39 2.06,-0.46l4.42 -0.46c4.02,90.34 -1.51,48.79 20.89,116.72 10.39,31.5 -10.64,14.1 4.9,30.07 10.47,10.75 5.17,-4.73 14.6,17.85 26.87,-11.76 23.6,-5.35 49.98,9.94 49.87,28.88 52.79,7.22 79.78,-13.05 7.41,-5.57 18.3,-11.43 25.03,-16.03 34.31,-23.44 12.64,-35.04 41.22,-39.76 -1.88,10.07 -4.48,59.19 -4.59,72.86 68.92,-41.24 42.62,4.92 83.15,-96.67 26.22,-65.75 43.79,-183.04 36.09,-252.48 -4.87,-22.92 -17.48,-25.12 -29.7,-39.32 -5.86,3.03 -17.3,7.09 -21.96,11.28l-28.58 58.1c-14.94,50.72 -38.42,126.4 -71.58,166.27 -15.2,18.27 -39.59,50.31 -57.93,60.71 -41.77,-15.3 -46.9,-76.7 -46.87,-118.51 0.07,-89.94 12.23,-82.38 17.76,-106.41 3.21,-13.96 2.76,-27.24 1.74,-41.44 -39.07,-1.25 -83.74,54.5 -85.83,55.64z"/>
    <path class="fil1" d="M2802.67 2944.93c20.32,-10.24 11.41,-10.01 22.19,-43.82 13.92,-43.63 36.41,-100.62 81.8,-117.93 -13.01,24.71 -27.06,30.32 -39.88,54.34 -17.52,32.84 -30.04,43.29 -19.53,59.51 6.77,-25.65 18.66,-40.31 31.12,-61.45 8.82,-14.97 28.08,-37.74 45.42,-46.75 11.45,9.24 14.56,15.65 20.17,35.03 14.21,49.14 15.03,72.11 9.82,127.84 -13.42,143.67 -18.21,83.84 -35.84,167.43 -28.85,-2.81 -40.54,-16.63 -41.73,48.68 -30.49,-13.01 -46.27,-104.06 -53.55,-117.8 -2.32,34.59 11.81,63.09 22.98,87.87 23.97,53.2 40.59,34.89 34.83,65.65 -22.86,4.3 -17.67,4.94 -28.54,-8.26 -7.03,-8.52 -9.3,-14.51 -15.22,-25.89 -11.92,-22.94 -15.84,-34.71 -21.58,-60.35 -21.91,-97.94 -4.1,-91.87 -1.79,-134.83 0.07,-1.14 0.29,-1.67 0.62,-2.44 2.38,3.53 2.3,1.22 4.23,10.44 5.27,25.07 -9.63,38.05 4.38,58.75 1.26,-15.39 -1.03,-25.44 -0.15,-40.97 0.72,-12.69 3.37,-22.28 4.49,-38.19 -22.72,-13.48 22.53,6.98 -8.4,-1.05 -0.03,0 -1.94,5.49 -11.96,-8.85 -4.13,-5.89 -0.44,-4.32 -3.88,-6.96zm182.57 403.75c-3.19,-38.46 -5.05,-52.98 -13.47,-90.05 -6.66,-29.35 -32.71,-52.96 -15.55,-80.31 -19.06,-12.46 5.29,7.12 -13.59,0 3.21,-19.5 12.42,-30.33 17.35,-50.83 4.87,-20.21 8.05,-37.87 13.05,-55.55 11.33,-39.99 20.28,-70.46 24.24,-113.29 4.45,-48.07 -0.84,-75.83 -3.52,-124.88 -4.6,-84.18 -10.71,-73.46 -40.34,-94.78 67.8,-33.58 66.62,111.36 62.71,160.35l2.04 -6.42c7.64,-30.65 3.54,-54.65 8.18,-82.38 -11.58,-15.01 -8.42,-47.72 -22.25,-64.8 -31.26,-38.61 -73.44,-4.59 -103.49,-1.58 -16.19,1.62 -17.27,-3.34 -34.02,5.93 -43.04,23.83 -54.76,70.83 -68.37,100.99 -8.98,19.9 -18.98,32.93 -29.23,53.14 -17.98,35.45 -32.52,92.56 -33.06,136.81l3.78 2.04c5.48,4.9 2.24,1.78 0.66,6.66 -7.46,23.01 -4.11,50.53 0.84,77.53 4.9,26.79 16.6,63.18 27.08,87.76 9.57,22.45 34.41,49.39 60.31,58.29 61.3,21.07 54.8,0.61 72.32,-22.48 26.26,16.42 17.66,42.72 31.02,56.56l42.2 48.63c0.62,-0.48 10.01,-6.37 11.11,-7.34z"/>
    <path class="fil1" d="M3680.76 2983.17c30.69,-16.25 35,-1.31 35.08,-1.24l-29.24 7.45c13.56,9.32 21.79,9.68 38.3,5.84 -8.67,27.25 -44.87,58.93 -65.84,76.36 -23.68,19.69 -38.24,28.21 -67.21,24.29 -15.6,-2.11 -15.31,4.34 -23.79,0.08 4.27,-5.99 5.84,-11.29 18,-14.29 29.59,-7.28 -11.35,5.71 14.59,1.43 18.34,-3.02 11.46,-21.21 12.06,-29.93 8.85,-2.78 10.49,-2.75 19.88,-7.97l16.72 -13.31c-7.84,-3.93 -2.35,-3.77 -12.8,-1.16 -9.99,2.49 -8.47,10.43 -33.17,15.5l77.42 -63.05zm-64.48 -35.02c-12.79,52.77 -114.24,108.28 -139.77,151.81 -11.66,19.88 -4.46,12.68 -2.04,29.19 6.88,46.79 -5.13,92.11 23.61,137.89 26.32,41.91 82.15,39.85 133.12,40.81l2.1 -14.36c46.09,-7.97 51.02,-10.05 62.44,-34.21 8.33,-17.6 7.34,-13.48 18.12,-27.69 10.54,-13.9 8.51,-11.76 12.43,-30.92l-24.63 8.66c-0.09,0.76 0.78,1.78 0.89,2.13 10.35,30.44 -3.25,18.03 -10.57,17.46 -32.29,-2.55 -58.44,35.77 -130.65,-27.71 13.18,-7.92 21.74,-5.29 36.19,-7.3l-25.94 -16.85c58.17,-12.12 61.17,-20.94 101.17,-46.19 40.48,-25.55 30.51,-9.71 50.78,-22.28 18.24,-11.32 14.47,-20.56 43.04,-28.06 -4.93,13.45 -5.26,12.26 -13.46,19.24 34.02,-9.66 13.23,-6.22 27.42,-34.42 7.85,-15.58 47.59,-39.6 43.88,-73.38 -6.24,-56.72 -31.11,-54.66 -57.85,-61.66 -22.84,-5.98 -27.42,-2.51 -50.08,1.54 -43.6,7.77 -50.61,41.21 -77.88,13.52 21.18,-13.01 33.89,-3.73 49.45,-14.99 -53.81,-2.81 -43.86,7.11 -71.77,17.77z"/>
    <path class="fil1" d="M4214.34 3132.55c16.95,-9.43 10.85,-25.45 18.31,-53.78 23.87,-90.75 23.36,-61.62 33.78,-85.25 0.98,15.11 -27.7,105.5 -33.01,130.35 -29.36,137.18 4.41,83.85 -5.9,142.2l-19.23 3.78c17.27,25.39 14.97,-5.2 26.95,11.85 5.37,7.66 3.97,21.02 7.06,34.03 2.94,12.35 0.31,5.12 4.07,11.51 46.23,-41.39 49.91,-241.49 116.08,-270.7 -6.5,15.95 -0.59,2.52 -5.57,11.6 -5.08,9.25 -0.36,0.07 -5.73,9.16 -7.29,12.35 -3.41,0.66 -7.51,15.32 23.48,-19.73 30.64,-50.74 68.78,-67.63 0.59,28.02 -0.89,75.45 -5.18,103.54 -4.92,32.29 -21.02,74.7 -9.84,94.32 16.22,-11.4 7.25,-10.72 16.95,-28.75 3.21,17.2 2.68,9.52 -2.09,26.32l-6.47 21.91c-11.29,45.57 -32.05,8.9 -15.92,72.71 3.4,13.47 3.17,14.96 21.26,24.6 7.2,-8.36 15.31,-14.11 22.11,-24.63 6.45,-9.97 8.27,-18.45 15.19,-30.68 35.47,-62.66 54.48,-131.53 63.36,-202.33 13.17,-104.94 -25.36,-97.36 -47,-121.89 -28.78,-32.63 -27.55,-18.58 -56.94,-4.52 -25.67,12.29 -29.59,-7.6 -68.11,14.96 -2.47,-3.09 -9.25,-12.97 -9.49,-13.22l-7.39 -6.01c-20.92,-17.12 13.14,14.27 -5.36,-3.91 -14.76,-14.51 -4.51,-13.45 -13.05,-27.29 -25.04,6.32 -55.19,66.22 -63.23,92.54 -6.92,22.63 -30.84,104.48 -26.88,119.89z"/>
    <path class="fil1" d="M4052.36 2993.5c19.15,0.2 23.42,6.01 43.37,1.66 -5.61,20.77 -34.73,49.64 -48.66,61.56 -18.27,15.63 -35.58,36.62 -72.91,39.76 3.31,13.58 3.2,8.39 2.06,11.75 -1.96,5.76 -3.02,5 -11.07,8.51 -11.15,4.86 -18.25,7.53 -27.88,3.37 8.09,-14.58 15.29,-13.16 36.61,-15.95 -8.16,-6.27 6.28,0.76 -8.03,-6.9 -12.24,-6.55 -1.71,-0.59 -20.92,-0.48l-5.55 -0.83c10.41,-13.15 15.01,-17.1 29.97,-13.06l4.74 1.63c21.78,-24.08 7.22,-9.93 10.34,-31.16 16.32,-6.3 35.39,-9.68 35.2,-28.14 -20.28,7.24 -21.83,16.51 -44.64,21.67 4.06,-6.73 71.39,-68.79 93.6,-69.97 23.1,-1.23 12.5,0.34 18.7,4.65 -14,5.46 -22.99,5.17 -34.93,11.93zm-99.6 233.1c0,-0.48 0.56,-1.81 0.57,-2.27 0.02,-0.44 0.51,-1.74 0.49,-2.16 -0.4,-10.34 -5.24,-7.67 -21.31,-20.96 13.02,-8.39 18.12,-5.1 35.91,-6.84l-25.04 -16.72c70.62,-22.02 41.56,-6.89 99.72,-47.15 21.81,-15.1 33.71,-11.55 51.45,-21.48 21.24,-11.9 11.52,-19.65 42.98,-28.3 -4.59,12.52 -6.47,12.8 -13.45,19.35l18.68 -6.44c12.36,-41.77 17.7,-37.95 43.63,-71.39 14.36,-18.51 20.85,-116.76 -106.58,-89.09 -36.02,7.83 -35.27,36.4 -69.83,13.42 6.42,-5.08 11.79,-6.8 22.46,-9.15l24.63 -7.61c-77.82,-0.57 -75.61,44.43 -115.55,81.02 -28.61,26.21 -78.61,61.44 -94.97,93.11 -8.06,15.61 2.75,112.72 15.89,147.31 22.59,59.47 117.71,67.37 140.11,49.46 0.76,-0.61 1.76,-1.59 2.57,-2.2l5.36 -4.01c11.78,-7.03 38.28,-8.52 50.95,-26.39 8.24,-11.61 33.24,-50.06 36.68,-67.94 -8.49,1.83 -20.94,3.22 -25.19,9.39 -10.02,14.52 -0.27,-4.34 6.72,12.55 -10.28,19.38 -16.12,24.94 -41.71,30.68 1.01,-0.9 2.42,-1.88 3.23,-2.47 16.43,-12.01 21.16,-11.53 25.39,-24.9 -15.66,2.39 -29.13,9.5 -45.65,11.44 -15.14,1.77 -42.16,-4.69 -43.9,-3.74 -4.5,2.46 17.43,11.9 -12.39,7.11 -13.48,-2.16 -11.79,-4.84 -11.85,-13.63z"/>
    <path class="fil1" d="M1326.28 3146.88c50.25,1.53 57.65,11.62 92.01,31.72 29.45,17.24 64.98,22.14 79.04,51.18 -76.3,13.61 -97.66,-15.38 -131.6,-40.31 -14.1,-10.35 -54.33,-7.11 -64.35,-39.92 1.46,0.21 3.55,-0.71 4.3,1.03l11.25 4.16c2.91,1.63 9.42,7.62 12.64,11.29 1.3,-1.77 16.84,2.94 -3.29,-19.15zm345.78 -163.6c-1.15,-26.02 -16.05,-14.42 -29.93,-35.52 -4.75,-7.23 7.83,-14.18 -46.61,-19.62 -30.84,-3.08 -104.57,-2.03 -129.17,14.74 -5.95,4.05 -31.73,30.64 -37.21,36.12 -31.68,31.71 -36.97,44.94 -26.12,76.53 12.75,37.15 -9.48,10.76 21.51,85.59 -51.57,-11.73 -74.97,-48.38 -135.8,-15.51 -4.48,26.32 -2.83,21.24 -9.62,46.43 -7.06,26.22 3.38,23.31 18.73,33.74l-10.3 6.87c-7.24,5.48 -1.41,-1.69 -5.87,5.4 65.12,28.17 6.28,22.34 63.9,37.91 23.44,6.33 16.02,10 35.14,19.23 18.25,8.8 19.24,7.17 32.28,19.78l-52.08 -16.24c13.96,23.29 44.86,22.31 70.79,21.93 126.21,-1.86 69.02,7.95 105.8,-21.15 9.07,-7.18 14.49,-7.35 24.18,-14.23l-18.43 -4.58c1.36,-40.02 39.36,-57.59 18.89,-102.99 -7.82,-17.33 -21.12,-19.92 -33.91,-34.61 -5.3,-6.09 -8.7,-11.47 -14.32,-18.61l-7.06 -8.64c-8.72,-12.01 -5.86,6.22 -1.98,-3.99 7.28,-13.22 1.26,-10.29 16.17,-3.72 79.03,34.83 90.59,55.94 69.14,137.28 5.02,-4.64 2.94,-1.6 7.3,-8.69l3.29 -6.46c0.79,-1.91 3.81,-16.03 4.21,-18.71 2.08,-14.24 3.65,-30.25 -0.23,-43.97 -5.66,-20 -22.53,-35.5 -40.71,-46.39 -37.38,-22.39 -86.69,-18.97 -81.45,-96.78 58.13,-38.5 136.41,9.22 189.47,-21.14z"/>
    <path class="fil1" d="M820.19 2752.72c-12.4,-16.84 -12.23,-1.15 -21.61,-13.46 -10.65,-13.97 3.12,-6.2 2.51,-15.34 -2.34,-35.04 -109.02,21.44 -110.44,21.74 -19.33,4.03 -9.53,-3.11 -30.92,8.45 4.14,7.23 13.48,8.81 18.4,13.06 -13.82,3.94 -10.2,-2.31 -13.76,14.63l26.09 7.53c-6.68,20.18 -7.76,7.57 -20.34,28.13 48.99,-22.94 33.74,-9.21 40.54,-2.45l-43.3 10.55c14.25,8.48 16.98,3.68 33.64,0.62 0.44,23.07 -10.62,42.07 -13.22,64.83 -2.98,26.07 -7.36,44.28 -8.77,63.57 -1.73,23.67 -20.64,264.65 -26.42,272.94 -13.76,19.75 -73.92,45.11 -87.08,65.21 1.11,0.79 2.77,1.33 3.71,1.71l24.9 8.8c36.73,11.79 39.17,-2.2 61.15,-5.17 23.92,-3.24 4.32,0.81 26.01,9.01 19.1,-54.55 16.34,-10.8 82.94,-55.49l10.98 -7.15c7.26,-5.06 5.19,-4.88 16.43,-10.81 16.73,-8.84 25.57,-8.27 30.1,-27.2 -7.52,-2.68 -15.63,-2.95 -26.12,-3.88 -50.42,-4.46 8.59,-16.48 -71.02,-12.9 2.71,-8.85 7.45,-18.94 8.28,-27.41 1.26,-12.77 -0.06,-2.23 -0.47,-8.06l-1.23 -18.22c-0.4,-17.36 0.87,-8.98 2.54,-9.97 2.07,-12.61 -0.6,-1.43 1.65,3.35l5.55 11.6c1.53,-18.83 3.87,-32.32 5.19,-52.7 1.14,-17.53 1.85,-14.36 5.15,-31.4 8.29,-42.82 9.01,-101.3 17.4,-139.26 11.36,-51.38 3.21,-110.39 3.89,-123.68 32.35,-26.22 40.01,-17.27 47.65,-41.18z"/>
    <path class="fil1" d="M984.68 3115.54c19.66,-29.84 21.83,-8.65 43.2,-34.55 21.52,-26.08 11.69,-4.69 35.34,-38.03 19.94,-28.12 20.71,-6.69 32.65,-39.89 10.91,-30.33 18.96,-26.5 20.52,-53.61 -28.61,1.79 -50.4,15.57 -72.51,28.58 -53.5,31.48 -30.84,2.97 -45.34,-30.3 -13.22,-5.27 -18.08,-5.98 -25.96,8.71 -6.8,-2.68 -15.41,-11.63 -26.48,-12.98 -18.36,48.11 -46.06,33.48 -59.95,83.59 25.53,-28.44 20.25,-33.01 37.42,-39.2l-11.69 32.97c16.5,-15.16 6.82,-19.81 26.4,-34.54 -4.39,17.13 -18.07,40.13 -29.33,53.12 -6.48,7.46 -0.87,-1.83 -10.29,12.73 -19.91,30.75 -6.26,24.17 -5.81,25.03 0.48,0.91 3.02,3.82 3.5,4.46 17.67,24.04 -2.5,-16.07 3.93,4.64 -16.32,13.2 -18.9,23.33 -18.36,30.61 3.45,46.47 -3.26,27.13 -6.07,75.36 -0.8,13.68 -2.39,28.41 -2.64,41.3 -0.8,42.13 -5.04,25.04 -5.49,39.38 -0.6,18.61 7.07,33.72 23.01,39.6 -8.63,16.24 -4.52,-0.97 -13.03,18.74 22.38,-9.04 1.27,-5.8 23.32,-10.53 7.69,8.76 1.51,2.78 7.58,10.72 4.61,6.04 0.5,2.3 6.15,7.19 15.9,-6.72 5.18,3.27 14.48,-13.87 -0.56,-0.17 -1.45,0.52 -1.66,0.57l-3.77 0.95c-10.87,1.19 10,12.38 -14.13,-1.52 7.44,-38.06 31.36,-26.9 58.3,-122.33 0.29,-1.03 1.31,-3.89 1.6,-4.9 2.12,-7.39 1.46,-3.33 2.56,-12.51 1.09,-9.12 0.17,-5.6 1.67,-12.37l13.74 -40.92c4.6,-13.79 -1.18,-9.24 -1.72,-14.43 -0.08,-0.85 -0.98,-1.09 -1.14,-1.77z"/>
    <path class="fil1" d="M1188.07 3173.62c-2.36,-6.28 0.53,-51.17 6.39,-61.65 0.17,-0.31 0.94,-1.26 1.1,-1.56l7.22 -25.06c-1.18,-56.74 28.51,-87.36 9.71,-121.05 -30.85,-3.67 -33.83,13.56 -65.33,40.12 4.05,65.24 -33.79,113.15 -20.88,237.36 0.48,4.59 15.84,60.2 17.29,63.34 3.8,-13.55 -2.97,6.18 -0.07,-12.39 2.19,-13.98 -1.29,-6.33 4.65,-13.61 12.7,7.12 23.37,19.87 39.25,20.77 7.1,-11.44 5.92,-18.11 7.71,-34.92l14.26 17.13c-5.69,-35.6 -8.87,-84.52 -6.08,-119.75 1.94,-24.63 -2.98,-18.93 -4,-27.2 -0.25,-2.04 -1.1,-2.54 -1.92,-3.65 -5.06,19.03 1.7,5.37 -0.51,23.41 -1.75,14.29 -4.49,14.1 -8.79,18.71z"/>
    <path class="fil1" d="M1166.59 2853.12c13.33,-13 21.33,-28 31.51,-36.35 -4.65,13.37 -6.87,19.25 -14.38,30.92 -12.31,19.11 -6.24,9.43 -12.36,33.17 0.58,0.92 1.75,1.94 2.21,2.41l6.79 6.86c9.51,9.44 0.05,-5.77 8.48,8.51 -15.53,3.25 -11.39,2.63 -32.55,-6.9 11.15,25.9 25.57,18.93 41.7,7.1l68.23 -59.97c5.36,-6.11 30.25,-51.18 -13.26,-58.82 -41.18,-7.23 -78.45,25.97 -86.37,73.07z"/>
   </g>
  </g>
 </g>
</svg>
