<?xml version="1.0" encoding="UTF-8"?>
<!DOCTYPE svg PUBLIC "-//W3C//DTD SVG 1.1//EN" "http://www.w3.org/Graphics/SVG/1.1/DTD/svg11.dtd">
<!-- Creator: CorelDRAW 2017 -->
<svg xmlns="http://www.w3.org/2000/svg" xml:space="preserve" width="24.108mm" height="24.108mm" version="1.1" style="shape-rendering:geometricPrecision; text-rendering:geometricPrecision; image-rendering:optimizeQuality; fill-rule:evenodd; clip-rule:evenodd"
viewBox="0 0 2410.8 2410.8"
 xmlns:xlink="http://www.w3.org/1999/xlink">
 <defs>
  <style type="text/css">
   <![CDATA[
    .fil0 {fill:#373435}
   ]]>
  </style>
 </defs>
 <g id="Capa_x0020_1">
  <metadata id="CorelCorpID_0Corel-Layer"/>
  <path class="fil0" d="M-0.01 1136.65l0 141.84c20.92,60.22 -6.39,166.08 117.32,441.68 61.14,136.24 152.88,248.36 232.91,331.31 163.88,169.88 404.71,294.27 642.09,336.31 32.08,5.68 104.07,9.43 126.75,18.74l154.84 0c86.07,-25.68 171.92,8.85 453.7,-118.94 188.6,-85.53 348.33,-230.97 464.45,-394 80.71,-113.3 145.47,-252.98 181.15,-392.95 9.85,-38.66 17.33,-78.73 23.86,-120.04 5.58,-35.32 7.06,-101.45 13.75,-129.2l0 -122.89c-11.62,-30.35 -22.61,-244.11 -81.15,-357.05 6.53,44.69 30.8,107.93 41.35,190.16 36.32,282.67 -43.49,588.18 -223.49,795.95 -20.44,23.59 -92.41,102.16 -113.57,117.76 -49.75,36.63 -140.9,118.72 -208.3,140.6 4.5,-93.01 -20.28,-174.27 -63.1,-238.77 -47.07,-70.93 -78.22,-110.67 -201.03,-99.29 62.79,-182.25 173.71,-27.88 270.69,-37.65 36.31,-3.66 72.8,-32.45 74.06,-67.84 -46.34,-74.42 -126.09,-39.85 -136.44,-164.52 -79.55,-4.68 -198.06,-7.7 -227.33,-120.71 31.09,15.96 29.17,27.28 96.14,40.46 35.84,7.05 92.14,13.63 129.32,6.85 -0.87,-21.5 -17.36,-31.15 -16.33,-56.05 0.32,-7.75 -0.28,-4.49 2.11,-11.56 14.58,-43.21 89.83,13.18 113.61,-0.61 33.96,-31.85 -22.64,-110.73 -39.09,-128.63 -35.06,-38.16 -96.85,-30.03 -123.11,-72.96 75.06,-27.56 228.13,-157.62 247.31,-231.03 23.59,-90.19 -110.26,-53.75 -157.28,-36.12 -55.56,20.82 -114.38,55.8 -170.3,69.54 -17.44,-13.55 -82.76,-125.7 -100.71,-153.39 -33.76,-52.09 -66.74,-103.51 -99.19,-156.3 -49.08,-79.83 -100.59,-152.96 -161.77,-219.18 -57.87,-62.64 -177.77,-113.44 -269.92,-118.47 -63.43,-3.46 -252.95,118.08 -353.57,160.1 -59.15,24.72 -131.7,48.82 -186.58,72.84 -8.87,48.96 12.33,60.02 77.3,58.98 92.21,-1.48 307.26,-67.88 388.8,-41.81 64.2,20.53 123.72,85.26 145.5,148.59 32.37,94.17 -1.53,172.84 -12.63,261.13 -101.66,-5.55 -310.87,-26.05 -335.69,73.41 -23.13,92.73 67.93,147.44 135.83,172.28 24,8.79 58.91,15.7 79.44,27.68 -76.69,44.31 -216.23,22.3 -301.97,-12.67 -32.42,-13.2 -57.52,-31.79 -86.99,-43.78 12.65,59.98 59.08,112.11 90.4,136.97 42.54,33.78 91.08,61.34 164.08,59.38 -13.72,16.75 -38.91,29.51 -58.16,39.76 -105.56,56.14 -156.05,32.55 -240.63,19.73 -0.66,121.88 103.35,124.26 133.53,138.12 -20.93,30.76 -71.34,48.29 -125.86,44.06 -60.09,-4.69 -84.72,-24.79 -133.03,-41.43 30.52,185.5 281.45,208.68 428.66,187.56 143.59,-20.57 336.11,-132.21 481.02,-122.82l20.19 4.96c-8.06,23.53 -12.11,15.01 -39.49,14.19 -49.07,-1.48 -96.91,12.77 -141.48,32.42 -63.7,28.09 -87.64,49.01 -117.76,108.97l-134.95 308.71c-3.35,5.78 -3.31,5.56 -6.19,8.68 -48.15,-19.22 -103.32,-52.07 -143.85,-78.41 -63.42,-41.19 -101.44,-69.69 -154.56,-120.16 -11.29,-10.72 -19.05,-15.8 -30.63,-27.34l-103.81 -117.96c-152.49,-199.78 -253.73,-478.46 -222.02,-774.32 49.4,-460.81 393.78,-813.8 825.23,-900.5 8.39,-1.69 17.22,-3.12 24.32,-4.76 3.58,-0.82 8.69,-2.05 12.09,-3.19l11.37 -4.81c-244.85,3.28 -577.8,178.08 -745.23,361.19 -54.77,59.89 -71.47,78.4 -123.53,151.27 -99.31,139.02 -170.21,324.06 -197.96,496.32 -5.45,33.87 -7.66,97.66 -14.49,123.61zm1106 -222.71l-28.78 113.38c71.53,34.72 303.29,-7 403.3,-57.47 61.42,-30.99 62.84,-44.61 98.2,-65.62 -6.03,-24.03 -35.32,-75.94 -50.27,-87.23 -82.09,39.27 -78.75,47.19 -185.46,73.64 -80.05,19.84 -152.59,23.49 -236.99,23.3zm540.55 211.56c-57.26,4.97 -79.5,-2.71 -130.81,-9.88 22.36,17.63 109.13,99.54 130.81,9.88z"/>
 </g>
</svg>
