<?xml version="1.0" encoding="UTF-8"?>
<!DOCTYPE svg PUBLIC "-//W3C//DTD SVG 1.1//EN" "http://www.w3.org/Graphics/SVG/1.1/DTD/svg11.dtd">
<!-- Creator: CorelDRAW 2017 -->
<svg xmlns="http://www.w3.org/2000/svg" xml:space="preserve" width="61.722mm" height="39.7932mm" version="1.1" style="shape-rendering:geometricPrecision; text-rendering:geometricPrecision; image-rendering:optimizeQuality; fill-rule:evenodd; clip-rule:evenodd"
viewBox="0 0 6172.2 3979.32"
 xmlns:xlink="http://www.w3.org/1999/xlink">
 <defs>
  <style type="text/css">
   <![CDATA[
    .fil0 {fill:none}
    .fil1 {fill:black}
   ]]>
  </style>
 </defs>
 <g id="Capa_x0020_1">
  <metadata id="CorelCorpID_0Corel-Layer"/>
  <rect class="fil0" y="-0" width="6172.2" height="3979.33"/>
  <path class="fil1" d="M2278.67 1876.83c1.35,237.05 22.29,430.4 354.62,385.51 240.85,-32.54 373.9,-124.9 337.7,-398.22 18.32,-15.79 1.64,7.01 45.17,-32.25 26.07,-23.51 111.26,-20 132.88,-4.38 17.7,12.79 2.73,9.46 20.25,21.14 12.87,8.57 16.45,4.78 29.29,9.67 -4.95,135.92 -20.59,211.09 66.5,295.43 61.06,59.14 156.54,92.15 265.11,107.67 302.3,43.22 363.19,-101.47 361.48,-374 9.89,-23.74 -4.01,-5.44 21.7,-15.06 31.23,-11.69 44.71,-34.31 29.77,-76.04 -21.03,-58.72 -295.22,-81.86 -353.42,-84.11 -94.72,-3.66 -184.74,-0.21 -269.9,20.82 -44.39,10.96 -72.3,25.84 -108.52,38.11 -18.89,6.4 -78.9,-20.36 -122.09,-20.77 -91.04,-0.86 -94.3,26.48 -120.57,23.69 -7.14,-0.76 -85.25,-32.4 -106.89,-38.15 -167.3,-44.51 -362.25,-24.15 -529.29,10.65 -38.56,8.03 -88.48,14.64 -103.21,43.14 -7.28,14.08 -8.77,47.75 -1.63,63.21 9.36,20.26 24.91,19.13 51.05,23.94zm1287.19 335.85c206.69,26.9 290.02,-66.71 276.79,-265.46 -8.61,71.23 -40.54,149.34 -81,187.8 -64.88,61.68 -130.98,42.24 -195.79,77.66zm-843.8 -23.65c113.98,-26.08 218.4,-94.21 202.7,-242.07 -30.3,51.34 -33.54,94.38 -74.65,143.71 -44.56,53.47 -73.72,57.1 -128.05,98.36zm530.13 -330.55c-6,44.91 -12.67,120.47 3.33,156.11 6.29,-133.79 8.68,-143.91 121.19,-177.67l59.95 -15.61c1.55,-0.5 3.07,-0.91 4.57,-1.48l17.04 -8.75c-83.53,0.54 -140.05,18.77 -206.08,47.4zm-925.86 10.88c-5.54,52.15 -11.37,111 3.42,156.26 7.15,-134.31 2.46,-150.12 162.32,-188.48l40.61 -14.48c-97.09,-1.16 -135.08,21.81 -206.35,46.7z"/>
 </g>
</svg>
