<?xml version="1.0" encoding="UTF-8"?>
<!DOCTYPE svg PUBLIC "-//W3C//DTD SVG 1.1//EN" "http://www.w3.org/Graphics/SVG/1.1/DTD/svg11.dtd">
<!-- Creator: CorelDRAW 2017 -->
<svg xmlns="http://www.w3.org/2000/svg" xml:space="preserve" width="50.7998mm" height="33.8666mm" version="1.1" style="shape-rendering:geometricPrecision; text-rendering:geometricPrecision; image-rendering:optimizeQuality; fill-rule:evenodd; clip-rule:evenodd"
viewBox="0 0 5079.98 3386.66"
 xmlns:xlink="http://www.w3.org/1999/xlink">
 <defs>
  <style type="text/css">
   <![CDATA[
    .str0 {stroke:#FEFEFE;stroke-width:48.01;stroke-linecap:round;stroke-linejoin:round;stroke-miterlimit:22.9256}
    .fil0 {fill:none}
    .fil2 {fill:none;fill-rule:nonzero}
    .fil6 {fill:#0074B3}
    .fil1 {fill:#6C9530}
    .fil7 {fill:#9B1A14}
    .fil8 {fill:#F9B500}
    .fil5 {fill:#96989A;fill-rule:nonzero}
    .fil3 {fill:#373435;fill-rule:nonzero}
    .fil4 {fill:#6C9530;fill-rule:nonzero}
   ]]>
  </style>
 </defs>
 <g id="Capa_x0020_1">
  <metadata id="CorelCorpID_0Corel-Layer"/>
  <rect class="fil0" x="-0" width="5079.99" height="3386.66"/>
  <g id="_2568060796160">
   <path class="fil1" d="M4253.17 2176.1c-13.01,-116.87 -0.65,-137.19 -48.97,-259.52 -5.94,112.9 75.06,468.15 -149.77,537.3 84.66,-89.13 123.52,-133.54 126.75,-254.97 -63.01,-65.79 -195.03,-122.27 -253.32,-181.81 -127.91,-130.64 -41.96,-194.4 -90.73,-343.78 374.25,-88.28 668.92,259.11 416.04,502.78z"/>
   <path class="fil1" d="M1842.76 866.4c-115.2,-23.64 -130.72,-41.65 -261.99,-33.38 105.58,40.44 468.5,72.85 465,308.04 -58.7,-108 -88.98,-158.66 -203.5,-199.15 -82,39.67 -176.42,147.87 -251.02,184.98 -163.7,81.43 -197.87,-20 -355.02,-19.62 31.34,-383.25 452.63,-556.54 606.53,-240.87z"/>
   <path class="fil1" d="M1915.41 1317.53c754.19,-599.07 1058.24,-454.36 942.81,-995.99 -381.01,1042.66 -570.09,394.18 -942.81,995.99z"/>
   <g>
    <path class="fil2 str0" d="M1042.18 1956.66c0,30.54 -1.68,52.31 -4.94,65.22 -1.57,6.4 -5.38,9.54 -11.44,9.54 -16.28,0 -40.53,-0.9 -72.97,-2.8 -32.44,-1.8 -56.68,-2.81 -72.96,-2.81 -15.26,0 -38.16,0.34 -68.58,1.01 -30.42,0.67 -53.32,1.01 -68.7,1.01 -5.5,0 -8.19,-2.69 -8.19,-8.19 0,-23.91 0.78,-59.94 2.36,-108.21 1.57,-48.27 2.35,-84.41 2.35,-108.55 0,-25.36 -1.12,-63.53 -3.36,-114.26 -2.25,-50.74 -3.37,-88.79 -3.37,-114.27 0,-4.83 2.69,-7.19 8.19,-7.19 4.04,0 9.99,0.34 18.19,1.01 8.08,0.68 14.25,1.01 18.41,1.01 3.92,0 10.1,-0.33 18.4,-1.01 8.42,-0.67 14.48,-1.01 18.52,-1.01 5.28,0 7.86,2.14 7.86,6.29 0,23.23 -0.9,58.14 -2.69,104.84 -1.8,46.69 -2.7,81.83 -2.7,105.29 0,11.33 0,28.73 0,51.97 -0.22,23.23 -0.33,40.52 -0.33,51.97 0,48.6 2.02,72.96 5.95,72.96 80.7,0 141.77,-1.91 182.85,-5.84 2.02,-0.22 7.07,-1.01 15.15,-2.35 6.51,-1.24 11.56,-1.91 15.16,-1.91 4.6,0 6.84,2.13 6.84,6.28zm357.74 -226.51c0,0.9 -0.33,2.8 -1.01,5.95 -8.75,50.17 -13.13,93.39 -13.13,129.76 0,2.24 2.81,51.41 8.42,147.6l0.33 4.6c0.23,6.4 -2.69,9.55 -8.75,9.55 -6.06,0 -15.15,0.67 -27.39,2.13 -12.12,1.46 -21.21,2.13 -27.16,2.13 -4.16,0 -7.3,-7.63 -9.54,-22.9 -2.25,-15.26 -4.27,-22.9 -6.29,-22.9 -1.35,0 -7.18,4.27 -17.74,12.8 -12.9,10.44 -25.03,18.41 -36.14,23.91 -17.4,8.75 -34.68,13.13 -51.97,13.13 -42.54,0 -78.46,-16.95 -107.65,-50.96 -27.61,-32.44 -41.42,-70.27 -41.42,-113.48 0,-48.61 13.92,-88.9 41.76,-120.67 29.18,-33.11 67.57,-49.61 115.17,-49.61 33.56,0 62.86,11.67 87.77,34.91 3.71,4.37 9.55,10.77 17.52,19.08 0.56,0.67 1.23,1.01 1.9,1.01 1.35,0 3.26,-6.85 5.62,-20.77 2.47,-13.8 5.5,-20.76 9.31,-20.76 5.95,0 17.06,1.68 33.34,4.94 18.07,3.92 27.05,7.52 27.05,10.55zm-84.18 137.5c0,-26.94 -7.97,-49.95 -24.03,-69.26 -16.83,-20.76 -38.38,-31.2 -64.76,-31.2 -26.27,0 -48.16,10.33 -65.78,30.87 -16.84,19.75 -25.26,42.88 -25.26,69.59 0,26.49 8.42,49.5 25.26,69.03 17.62,20.32 39.51,30.54 65.78,30.54 25.7,0 47.14,-10.44 64.43,-31.21 16.27,-19.53 24.36,-42.2 24.36,-68.36zm805.6 148.06c0,8.53 -2.58,12.79 -7.63,12.79 -3.25,0 -8.31,-0.33 -14.93,-1.01 -6.73,-0.67 -11.78,-1.01 -15.38,-1.01 -3.7,0 -9.31,0.23 -16.72,0.68 -7.52,0.45 -13.13,0.67 -16.84,0.67 -4.6,0 -6.96,-5.16 -6.96,-15.49 0,-10.1 0.45,-25.14 1.24,-45.24 0.78,-20.09 1.12,-35.13 1.12,-45.23 0,-55.45 -0.22,-86.43 -0.67,-92.83 -1.69,-22.56 -6.29,-38.17 -13.81,-46.7 -8.53,-9.2 -23.8,-13.8 -45.69,-13.8 -13.8,0 -29.29,6.62 -46.58,19.75 -17.96,13.81 -27.27,27.39 -27.95,40.75 -0.9,17.17 -1.35,48.38 -1.35,93.84 0,10.77 0.45,26.83 1.35,48.38 0.9,21.44 1.24,37.6 1.24,48.38 0,5.83 -1.91,8.86 -5.84,8.86 -4.04,0 -9.77,-0.33 -17.29,-1.01 -7.63,-0.67 -13.35,-1.01 -17.28,-1.01 -3.59,0 -8.65,0.23 -15.49,0.68 -6.85,0.45 -12.01,0.67 -15.49,0.67 -4.38,0 -6.63,-3.14 -6.63,-9.54 0,-10.55 0.34,-26.38 1.01,-47.59 0.68,-21.11 1.01,-36.93 1.01,-47.49l0 -79.36c0,-24.8 -2.91,-42.42 -8.86,-52.98 -8.31,-14.93 -24.25,-22.33 -47.71,-22.33 -13.81,0 -30.19,5.83 -49.28,17.39 -20.99,12.8 -31.54,25.6 -31.54,38.51l0 96.08c0,11 0.11,27.39 0.34,49.05 0.22,21.78 0.34,37.94 0.34,48.72 0,6.4 -2.59,9.54 -7.64,9.54l-61.17 0c-4.38,0 -6.63,-2.92 -6.63,-8.87 0,-17.73 0.12,-44.34 0.34,-79.92 0.23,-35.58 0.34,-62.18 0.34,-79.92 0,-40.07 -4.38,-80.03 -13.13,-119.88 -0.68,-2.81 -1.01,-5.16 -1.01,-6.85 0,-2.92 1.01,-4.49 3.03,-4.94 8.08,-0.89 19.98,-2.58 35.69,-5.05 7.3,-2.24 18.19,-4.71 32.67,-7.41l2.69 -0.33c2.58,0 5.05,7.74 7.41,23.23 2.24,15.61 4.38,23.35 6.06,23.35 0,0 5.5,-4.94 16.5,-14.59 12.91,-11.23 25.82,-20.21 38.73,-26.83 18.63,-9.77 37.26,-14.59 55.89,-14.59 50.52,0 82.62,20.65 96.43,62.07 13.58,-17.62 30.42,-32.1 50.62,-43.55 21.44,-12.35 42.77,-18.52 63.76,-18.52 40.63,0 68.69,11.78 84.18,35.47 11.23,17.62 16.84,45.35 16.84,83.29 0,7.18 -0.22,18.41 -0.67,33.45 -0.45,15.15 -0.68,26.38 -0.68,33.56 0,13.81 0.34,34.57 1.01,62.3 0.68,27.72 1.01,48.6 1.01,62.41zm385.13 -285.56c0,0.9 -0.33,2.8 -1.01,5.95 -8.75,50.17 -13.13,93.39 -13.13,129.76 0,2.24 2.81,51.41 8.42,147.6l0.33 4.6c0.23,6.4 -2.69,9.55 -8.75,9.55 -6.06,0 -15.15,0.67 -27.39,2.13 -12.12,1.46 -21.21,2.13 -27.16,2.13 -4.16,0 -7.3,-7.63 -9.54,-22.9 -2.25,-15.26 -4.27,-22.9 -6.29,-22.9 -1.35,0 -7.18,4.27 -17.74,12.8 -12.9,10.44 -25.03,18.41 -36.14,23.91 -17.4,8.75 -34.68,13.13 -51.97,13.13 -42.54,0 -78.46,-16.95 -107.65,-50.96 -27.61,-32.44 -41.42,-70.27 -41.42,-113.48 0,-48.61 13.92,-88.9 41.76,-120.67 29.18,-33.11 67.57,-49.61 115.17,-49.61 33.56,0 62.86,11.67 87.77,34.91 3.71,4.37 9.55,10.77 17.52,19.08 0.56,0.67 1.23,1.01 1.9,1.01 1.35,0 3.26,-6.85 5.62,-20.77 2.47,-13.8 5.5,-20.76 9.31,-20.76 5.95,0 17.06,1.68 33.34,4.94 18.07,3.92 27.05,7.52 27.05,10.55zm-84.18 137.5c0,-26.94 -7.97,-49.95 -24.03,-69.26 -16.83,-20.76 -38.38,-31.2 -64.76,-31.2 -26.27,0 -48.16,10.33 -65.78,30.87 -16.84,19.75 -25.26,42.88 -25.26,69.59 0,26.49 8.42,49.5 25.26,69.03 17.62,20.32 39.51,30.54 65.78,30.54 25.7,0 47.14,-10.44 64.43,-31.21 16.27,-19.53 24.36,-42.2 24.36,-68.36zm427.11 -146.48c0,26.38 -0.23,65.89 -0.68,118.64 -0.45,52.76 -0.67,92.27 -0.67,118.54 0,52.19 -11.23,90.69 -33.56,115.5 -23.46,26.38 -60.95,39.51 -112.59,39.51 -49.73,0 -90.02,-9.43 -120.67,-28.17 -4.82,-3.03 -7.29,-5.73 -7.29,-7.86 0,2.36 3.25,-13.81 9.88,-48.6 0.67,-3.71 2.24,-5.61 4.6,-5.61 1.12,0 2.58,0.56 4.26,1.68 33,18.63 66.01,27.95 99.12,27.95 21.77,0 39.85,-4.83 54.1,-14.48 16.39,-10.89 24.7,-26.83 24.7,-47.59 0,-4.61 -0.45,-14.93 -1.35,-30.87 -24.36,29.63 -55.23,44.45 -92.83,44.45 -40.52,0 -73.86,-14.59 -100.01,-43.78 -25.03,-28.06 -37.49,-62.63 -37.49,-103.6 0,-41.65 12.12,-77.12 36.25,-106.3 25.71,-31.1 59.05,-46.7 100.13,-46.7 36.25,0 65.1,13.92 86.43,41.65 3.48,4.6 5.95,6.84 7.52,6.84 1.8,0 2.58,-2.02 2.58,-5.95 0,-2.8 -0.22,-7.4 -0.67,-13.58 -0.34,-6.28 -0.56,-10.89 -0.56,-13.92 0,-13.13 1.23,-19.75 3.93,-19.75 2.13,0 13.91,2.02 35.24,6.06 21.44,4.04 33.11,6.51 35.02,7.41 3.03,1.12 4.61,3.93 4.61,8.53zm-78.8 135.71c0,-24.47 -6.74,-45.35 -20.1,-62.41 -14.7,-18.64 -34.01,-27.95 -57.8,-27.95 -23.69,0 -42.88,9.42 -57.59,28.28 -13.35,17.06 -20.09,37.83 -20.09,62.08 0,23.9 6.85,44.56 20.43,61.84 14.7,18.86 33.79,28.29 57.25,28.29 23.23,0 42.31,-9.43 57.13,-28.29 13.81,-17.28 20.77,-37.94 20.77,-61.84zm224.94 -222.37c0,26.94 -15.04,40.41 -45.13,40.41 -30.53,0 -45.79,-13.47 -45.79,-40.41 0,-12.01 4.71,-22 14.14,-29.86 8.76,-7.52 19.31,-11.22 31.65,-11.22 12.24,0 22.9,3.82 31.77,11.45 8.87,7.74 13.36,17.62 13.36,29.63zm-2.7 89.13c0,16.83 -1.01,42.31 -3.03,76.44 -2.02,34.12 -3.03,59.71 -3.03,76.78 0,16.05 0.34,39.96 1.01,71.83 0.68,31.88 1.01,55.79 1.01,71.51 0,4.6 -2.02,6.96 -5.95,6.96l-64.2 0c-4.6,0 -6.96,-4.49 -6.96,-13.47 0,-15.16 0.45,-37.94 1.23,-68.25 0.79,-30.42 1.13,-53.21 1.13,-68.58 0,-17.07 -1.24,-42.77 -3.71,-77.01 -2.47,-34.12 -3.7,-59.82 -3.7,-76.89 0,-3.7 2.24,-5.61 6.84,-5.61 3.93,0 9.99,0.56 18.19,1.68 8.19,1.02 14.37,1.58 18.52,1.58 4.15,0 10.33,-0.56 18.52,-1.58 8.19,-1.12 14.37,-1.68 18.52,-1.68 3.71,0 5.61,2.13 5.61,6.29zm385.35 6.51c0,0.9 -0.33,2.8 -1.01,5.95 -8.75,50.17 -13.13,93.39 -13.13,129.76 0,2.24 2.81,51.41 8.42,147.6l0.33 4.6c0.23,6.4 -2.69,9.55 -8.75,9.55 -6.06,0 -15.15,0.67 -27.39,2.13 -12.12,1.46 -21.21,2.13 -27.16,2.13 -4.16,0 -7.3,-7.63 -9.54,-22.9 -2.25,-15.26 -4.27,-22.9 -6.29,-22.9 -1.35,0 -7.18,4.27 -17.74,12.8 -12.9,10.44 -25.03,18.41 -36.14,23.91 -17.4,8.75 -34.68,13.13 -51.97,13.13 -42.54,0 -78.46,-16.95 -107.65,-50.96 -27.61,-32.44 -41.42,-70.27 -41.42,-113.48 0,-48.61 13.92,-88.9 41.76,-120.67 29.18,-33.11 67.57,-49.61 115.17,-49.61 33.56,0 62.86,11.67 87.77,34.91 3.71,4.37 9.55,10.77 17.52,19.08 0.56,0.67 1.23,1.01 1.9,1.01 1.35,0 3.26,-6.85 5.62,-20.77 2.47,-13.8 5.5,-20.76 9.31,-20.76 5.95,0 17.06,1.68 33.34,4.94 18.07,3.92 27.05,7.52 27.05,10.55zm-84.18 137.5c0,-26.94 -7.97,-49.95 -24.03,-69.26 -16.83,-20.76 -38.38,-31.2 -64.76,-31.2 -26.27,0 -48.16,10.33 -65.78,30.87 -16.84,19.75 -25.26,42.88 -25.26,69.59 0,26.49 8.42,49.5 25.26,69.03 17.62,20.32 39.51,30.54 65.78,30.54 25.7,0 47.14,-10.44 64.43,-31.21 16.27,-19.53 24.36,-42.2 24.36,-68.36z"/>
    <path id="1" class="fil3" d="M1042.18 1956.66c0,30.54 -1.68,52.31 -4.94,65.22 -1.57,6.4 -5.38,9.54 -11.44,9.54 -16.28,0 -40.53,-0.9 -72.97,-2.8 -32.44,-1.8 -56.68,-2.81 -72.96,-2.81 -15.26,0 -38.16,0.34 -68.58,1.01 -30.42,0.67 -53.32,1.01 -68.7,1.01 -5.5,0 -8.19,-2.69 -8.19,-8.19 0,-23.91 0.78,-59.94 2.36,-108.21 1.57,-48.27 2.35,-84.41 2.35,-108.55 0,-25.36 -1.12,-63.53 -3.36,-114.26 -2.25,-50.74 -3.37,-88.79 -3.37,-114.27 0,-4.83 2.69,-7.19 8.19,-7.19 4.04,0 9.99,0.34 18.19,1.01 8.08,0.68 14.25,1.01 18.41,1.01 3.92,0 10.1,-0.33 18.4,-1.01 8.42,-0.67 14.48,-1.01 18.52,-1.01 5.28,0 7.86,2.14 7.86,6.29 0,23.23 -0.9,58.14 -2.69,104.84 -1.8,46.69 -2.7,81.83 -2.7,105.29 0,11.33 0,28.73 0,51.97 -0.22,23.23 -0.33,40.52 -0.33,51.97 0,48.6 2.02,72.96 5.95,72.96 80.7,0 141.77,-1.91 182.85,-5.84 2.02,-0.22 7.07,-1.01 15.15,-2.35 6.51,-1.24 11.56,-1.91 15.16,-1.91 4.6,0 6.84,2.13 6.84,6.28zm357.74 -226.51c0,0.9 -0.33,2.8 -1.01,5.95 -8.75,50.17 -13.13,93.39 -13.13,129.76 0,2.24 2.81,51.41 8.42,147.6l0.33 4.6c0.23,6.4 -2.69,9.55 -8.75,9.55 -6.06,0 -15.15,0.67 -27.39,2.13 -12.12,1.46 -21.21,2.13 -27.16,2.13 -4.16,0 -7.3,-7.63 -9.54,-22.9 -2.25,-15.26 -4.27,-22.9 -6.29,-22.9 -1.35,0 -7.18,4.27 -17.74,12.8 -12.9,10.44 -25.03,18.41 -36.14,23.91 -17.4,8.75 -34.68,13.13 -51.97,13.13 -42.54,0 -78.46,-16.95 -107.65,-50.96 -27.61,-32.44 -41.42,-70.27 -41.42,-113.48 0,-48.61 13.92,-88.9 41.76,-120.67 29.18,-33.11 67.57,-49.61 115.17,-49.61 33.56,0 62.86,11.67 87.77,34.91 3.71,4.37 9.55,10.77 17.52,19.08 0.56,0.67 1.23,1.01 1.9,1.01 1.35,0 3.26,-6.85 5.62,-20.77 2.47,-13.8 5.5,-20.76 9.31,-20.76 5.95,0 17.06,1.68 33.34,4.94 18.07,3.92 27.05,7.52 27.05,10.55zm-84.18 137.5c0,-26.94 -7.97,-49.95 -24.03,-69.26 -16.83,-20.76 -38.38,-31.2 -64.76,-31.2 -26.27,0 -48.16,10.33 -65.78,30.87 -16.84,19.75 -25.26,42.88 -25.26,69.59 0,26.49 8.42,49.5 25.26,69.03 17.62,20.32 39.51,30.54 65.78,30.54 25.7,0 47.14,-10.44 64.43,-31.21 16.27,-19.53 24.36,-42.2 24.36,-68.36zm805.6 148.06c0,8.53 -2.58,12.79 -7.63,12.79 -3.25,0 -8.31,-0.33 -14.93,-1.01 -6.73,-0.67 -11.78,-1.01 -15.38,-1.01 -3.7,0 -9.31,0.23 -16.72,0.68 -7.52,0.45 -13.13,0.67 -16.84,0.67 -4.6,0 -6.96,-5.16 -6.96,-15.49 0,-10.1 0.45,-25.14 1.24,-45.24 0.78,-20.09 1.12,-35.13 1.12,-45.23 0,-55.45 -0.22,-86.43 -0.67,-92.83 -1.69,-22.56 -6.29,-38.17 -13.81,-46.7 -8.53,-9.2 -23.8,-13.8 -45.69,-13.8 -13.8,0 -29.29,6.62 -46.58,19.75 -17.96,13.81 -27.27,27.39 -27.95,40.75 -0.9,17.17 -1.35,48.38 -1.35,93.84 0,10.77 0.45,26.83 1.35,48.38 0.9,21.44 1.24,37.6 1.24,48.38 0,5.83 -1.91,8.86 -5.84,8.86 -4.04,0 -9.77,-0.33 -17.29,-1.01 -7.63,-0.67 -13.35,-1.01 -17.28,-1.01 -3.59,0 -8.65,0.23 -15.49,0.68 -6.85,0.45 -12.01,0.67 -15.49,0.67 -4.38,0 -6.63,-3.14 -6.63,-9.54 0,-10.55 0.34,-26.38 1.01,-47.59 0.68,-21.11 1.01,-36.93 1.01,-47.49l0 -79.36c0,-24.8 -2.91,-42.42 -8.86,-52.98 -8.31,-14.93 -24.25,-22.33 -47.71,-22.33 -13.81,0 -30.19,5.83 -49.28,17.39 -20.99,12.8 -31.54,25.6 -31.54,38.51l0 96.08c0,11 0.11,27.39 0.34,49.05 0.22,21.78 0.34,37.94 0.34,48.72 0,6.4 -2.59,9.54 -7.64,9.54l-61.17 0c-4.38,0 -6.63,-2.92 -6.63,-8.87 0,-17.73 0.12,-44.34 0.34,-79.92 0.23,-35.58 0.34,-62.18 0.34,-79.92 0,-40.07 -4.38,-80.03 -13.13,-119.88 -0.68,-2.81 -1.01,-5.16 -1.01,-6.85 0,-2.92 1.01,-4.49 3.03,-4.94 8.08,-0.89 19.98,-2.58 35.69,-5.05 7.3,-2.24 18.19,-4.71 32.67,-7.41l2.69 -0.33c2.58,0 5.05,7.74 7.41,23.23 2.24,15.61 4.38,23.35 6.06,23.35 0,0 5.5,-4.94 16.5,-14.59 12.91,-11.23 25.82,-20.21 38.73,-26.83 18.63,-9.77 37.26,-14.59 55.89,-14.59 50.52,0 82.62,20.65 96.43,62.07 13.58,-17.62 30.42,-32.1 50.62,-43.55 21.44,-12.35 42.77,-18.52 63.76,-18.52 40.63,0 68.69,11.78 84.18,35.47 11.23,17.62 16.84,45.35 16.84,83.29 0,7.18 -0.22,18.41 -0.67,33.45 -0.45,15.15 -0.68,26.38 -0.68,33.56 0,13.81 0.34,34.57 1.01,62.3 0.68,27.72 1.01,48.6 1.01,62.41zm385.13 -285.56c0,0.9 -0.33,2.8 -1.01,5.95 -8.75,50.17 -13.13,93.39 -13.13,129.76 0,2.24 2.81,51.41 8.42,147.6l0.33 4.6c0.23,6.4 -2.69,9.55 -8.75,9.55 -6.06,0 -15.15,0.67 -27.39,2.13 -12.12,1.46 -21.21,2.13 -27.16,2.13 -4.16,0 -7.3,-7.63 -9.54,-22.9 -2.25,-15.26 -4.27,-22.9 -6.29,-22.9 -1.35,0 -7.18,4.27 -17.74,12.8 -12.9,10.44 -25.03,18.41 -36.14,23.91 -17.4,8.75 -34.68,13.13 -51.97,13.13 -42.54,0 -78.46,-16.95 -107.65,-50.96 -27.61,-32.44 -41.42,-70.27 -41.42,-113.48 0,-48.61 13.92,-88.9 41.76,-120.67 29.18,-33.11 67.57,-49.61 115.17,-49.61 33.56,0 62.86,11.67 87.77,34.91 3.71,4.37 9.55,10.77 17.52,19.08 0.56,0.67 1.23,1.01 1.9,1.01 1.35,0 3.26,-6.85 5.62,-20.77 2.47,-13.8 5.5,-20.76 9.31,-20.76 5.95,0 17.06,1.68 33.34,4.94 18.07,3.92 27.05,7.52 27.05,10.55zm-84.18 137.5c0,-26.94 -7.97,-49.95 -24.03,-69.26 -16.83,-20.76 -38.38,-31.2 -64.76,-31.2 -26.27,0 -48.16,10.33 -65.78,30.87 -16.84,19.75 -25.26,42.88 -25.26,69.59 0,26.49 8.42,49.5 25.26,69.03 17.62,20.32 39.51,30.54 65.78,30.54 25.7,0 47.14,-10.44 64.43,-31.21 16.27,-19.53 24.36,-42.2 24.36,-68.36zm427.11 -146.48c0,26.38 -0.23,65.89 -0.68,118.64 -0.45,52.76 -0.67,92.27 -0.67,118.54 0,52.19 -11.23,90.69 -33.56,115.5 -23.46,26.38 -60.95,39.51 -112.59,39.51 -49.73,0 -90.02,-9.43 -120.67,-28.17 -4.82,-3.03 -7.29,-5.73 -7.29,-7.86 0,2.36 3.25,-13.81 9.88,-48.6 0.67,-3.71 2.24,-5.61 4.6,-5.61 1.12,0 2.58,0.56 4.26,1.68 33,18.63 66.01,27.95 99.12,27.95 21.77,0 39.85,-4.83 54.1,-14.48 16.39,-10.89 24.7,-26.83 24.7,-47.59 0,-4.61 -0.45,-14.93 -1.35,-30.87 -24.36,29.63 -55.23,44.45 -92.83,44.45 -40.52,0 -73.86,-14.59 -100.01,-43.78 -25.03,-28.06 -37.49,-62.63 -37.49,-103.6 0,-41.65 12.12,-77.12 36.25,-106.3 25.71,-31.1 59.05,-46.7 100.13,-46.7 36.25,0 65.1,13.92 86.43,41.65 3.48,4.6 5.95,6.84 7.52,6.84 1.8,0 2.58,-2.02 2.58,-5.95 0,-2.8 -0.22,-7.4 -0.67,-13.58 -0.34,-6.28 -0.56,-10.89 -0.56,-13.92 0,-13.13 1.23,-19.75 3.93,-19.75 2.13,0 13.91,2.02 35.24,6.06 21.44,4.04 33.11,6.51 35.02,7.41 3.03,1.12 4.61,3.93 4.61,8.53zm-78.8 135.71c0,-24.47 -6.74,-45.35 -20.1,-62.41 -14.7,-18.64 -34.01,-27.95 -57.8,-27.95 -23.69,0 -42.88,9.42 -57.59,28.28 -13.35,17.06 -20.09,37.83 -20.09,62.08 0,23.9 6.85,44.56 20.43,61.84 14.7,18.86 33.79,28.29 57.25,28.29 23.23,0 42.31,-9.43 57.13,-28.29 13.81,-17.28 20.77,-37.94 20.77,-61.84zm224.94 -222.37c0,26.94 -15.04,40.41 -45.13,40.41 -30.53,0 -45.79,-13.47 -45.79,-40.41 0,-12.01 4.71,-22 14.14,-29.86 8.76,-7.52 19.31,-11.22 31.65,-11.22 12.24,0 22.9,3.82 31.77,11.45 8.87,7.74 13.36,17.62 13.36,29.63zm-2.7 89.13c0,16.83 -1.01,42.31 -3.03,76.44 -2.02,34.12 -3.03,59.71 -3.03,76.78 0,16.05 0.34,39.96 1.01,71.83 0.68,31.88 1.01,55.79 1.01,71.51 0,4.6 -2.02,6.96 -5.95,6.96l-64.2 0c-4.6,0 -6.96,-4.49 -6.96,-13.47 0,-15.16 0.45,-37.94 1.23,-68.25 0.79,-30.42 1.13,-53.21 1.13,-68.58 0,-17.07 -1.24,-42.77 -3.71,-77.01 -2.47,-34.12 -3.7,-59.82 -3.7,-76.89 0,-3.7 2.24,-5.61 6.84,-5.61 3.93,0 9.99,0.56 18.19,1.68 8.19,1.02 14.37,1.58 18.52,1.58 4.15,0 10.33,-0.56 18.52,-1.58 8.19,-1.12 14.37,-1.68 18.52,-1.68 3.71,0 5.61,2.13 5.61,6.29zm385.35 6.51c0,0.9 -0.33,2.8 -1.01,5.95 -8.75,50.17 -13.13,93.39 -13.13,129.76 0,2.24 2.81,51.41 8.42,147.6l0.33 4.6c0.23,6.4 -2.69,9.55 -8.75,9.55 -6.06,0 -15.15,0.67 -27.39,2.13 -12.12,1.46 -21.21,2.13 -27.16,2.13 -4.16,0 -7.3,-7.63 -9.54,-22.9 -2.25,-15.26 -4.27,-22.9 -6.29,-22.9 -1.35,0 -7.18,4.27 -17.74,12.8 -12.9,10.44 -25.03,18.41 -36.14,23.91 -17.4,8.75 -34.68,13.13 -51.97,13.13 -42.54,0 -78.46,-16.95 -107.65,-50.96 -27.61,-32.44 -41.42,-70.27 -41.42,-113.48 0,-48.61 13.92,-88.9 41.76,-120.67 29.18,-33.11 67.57,-49.61 115.17,-49.61 33.56,0 62.86,11.67 87.77,34.91 3.71,4.37 9.55,10.77 17.52,19.08 0.56,0.67 1.23,1.01 1.9,1.01 1.35,0 3.26,-6.85 5.62,-20.77 2.47,-13.8 5.5,-20.76 9.31,-20.76 5.95,0 17.06,1.68 33.34,4.94 18.07,3.92 27.05,7.52 27.05,10.55zm-84.18 137.5c0,-26.94 -7.97,-49.95 -24.03,-69.26 -16.83,-20.76 -38.38,-31.2 -64.76,-31.2 -26.27,0 -48.16,10.33 -65.78,30.87 -16.84,19.75 -25.26,42.88 -25.26,69.59 0,26.49 8.42,49.5 25.26,69.03 17.62,20.32 39.51,30.54 65.78,30.54 25.7,0 47.14,-10.44 64.43,-31.21 16.27,-19.53 24.36,-42.2 24.36,-68.36z"/>
   </g>
   <g id="_2568060800704">
    <path class="fil4" d="M1043.21 3044.42c0,14.14 -0.99,27.04 -2.9,38.61 -0.39,2.97 -1.71,4.41 -3.88,4.41 -2.69,0 -6.77,-0.26 -12.23,-0.85 -5.53,-0.59 -9.67,-0.86 -12.5,-0.86 -16.25,0 -26.65,4.54 -31.12,13.69 -2.7,5.52 -4.08,17.04 -4.08,34.47l0 21.25c0,7.17 0.26,18.09 0.79,32.76 0.52,14.61 0.79,25.53 0.79,32.77 0,3.42 -1.45,5.19 -4.41,5.19 -3.95,0 -9.93,-0.06 -17.96,-0.19 -8.03,-0.13 -14.08,-0.2 -18.03,-0.2 -2.89,0 -4.41,-1.58 -4.41,-4.8 0,-10.4 0.2,-26.12 0.53,-47.04 0.33,-20.92 0.46,-36.71 0.46,-47.24 0,-31.71 -2.89,-57.24 -8.68,-76.51 -0.27,-1.06 -0.4,-1.78 -0.4,-2.31 0,-1.58 0.86,-2.63 2.5,-3.29 4.67,-0.52 11.32,-1.31 19.87,-2.36 13.75,-2.64 20.13,-3.95 19.08,-3.95 2.04,0 3.42,3.81 4.01,11.45 0.66,7.69 1.85,11.51 3.49,11.51 0.26,0 0.59,-0.13 0.99,-0.4 5.26,-3.35 10.52,-6.71 15.85,-10.13 5.79,-3.48 11.71,-6.05 17.83,-7.76 5,-1.51 11.45,-2.3 19.34,-2.3 10.07,0 15.07,1.38 15.07,4.08zm184.34 77.5c0,9.47 -4.07,15.85 -12.3,19.08 -5.59,2.04 -45.39,5.85 -119.54,11.44 1.65,11.32 7.9,20.92 18.75,28.88 10.33,7.57 21.38,11.39 33.23,11.39 20.39,0 39.07,-6.52 56.05,-19.48 2.1,-1.71 4.14,-3.35 6.18,-5 1.06,0 1.71,0.13 2.04,0.4 0.33,0.26 2.77,4.67 7.24,13.29 4.54,8.68 6.78,13.29 6.78,13.94 0,0.79 -1.06,2.24 -3.1,4.41 -18.88,19.94 -43.09,29.94 -72.69,29.94 -29.81,0 -53.56,-8.88 -71.32,-26.71 -17.7,-17.77 -26.58,-41.52 -26.58,-71.19 0,-26.51 8.49,-49.54 25.39,-69.21 17.9,-20.46 39.74,-30.66 65.73,-30.66 24.14,0 44.28,8.88 60.46,26.58 15.79,17.24 23.68,38.23 23.68,62.9zm-45.79 -11.71c0,-10.66 -4.21,-20.14 -12.63,-28.36 -8.42,-8.22 -17.89,-12.3 -28.48,-12.3 -11.85,0 -22.31,4.73 -31.52,14.21 -9.21,9.47 -13.81,20.13 -13.81,31.91 0,2.69 2.3,4.01 6.9,4.01 19.08,0 41.85,-1.91 68.36,-5.66 7.43,-1.05 11.18,-2.3 11.18,-3.81zm207.63 -59.61c0,2.83 -1.44,9.14 -4.4,18.88 -2.97,9.8 -5.07,14.67 -6.19,14.67 -5.79,-2.56 -11.64,-5.06 -17.5,-7.63 -5.85,-2.56 -12.24,-3.81 -19.14,-3.81 -15.86,0 -29.02,5.85 -39.61,17.5 -10.53,11.71 -15.79,25.52 -15.79,41.38 0,15.66 5.26,29.21 15.79,40.66 10.79,11.77 24.01,17.69 39.54,17.69 8.62,0 17.11,-2.1 25.46,-6.31 8.36,-4.21 12.04,-6.32 10.99,-6.32 1.64,0 3.55,5.4 5.59,16.19 1.91,9.73 2.89,16.44 2.89,20.19 0,3.95 -7.5,7.83 -22.56,11.71 -12.63,3.23 -21.91,4.81 -27.96,4.81 -26.52,0 -48.88,-9.87 -67.11,-29.67 -17.89,-19.28 -26.84,-42.31 -26.84,-69.02 0,-27.24 8.75,-50.39 26.25,-69.41 18.03,-19.54 40.46,-29.27 67.3,-29.27 18.03,0 34.54,4.54 49.41,13.68 2.57,1.58 3.88,2.9 3.88,4.08zm187.04 71.32c0,9.47 -4.07,15.85 -12.3,19.08 -5.59,2.04 -45.39,5.85 -119.54,11.44 1.65,11.32 7.9,20.92 18.75,28.88 10.33,7.57 21.38,11.39 33.23,11.39 20.39,0 39.07,-6.52 56.05,-19.48 2.1,-1.71 4.14,-3.35 6.18,-5 1.06,0 1.71,0.13 2.04,0.4 0.33,0.26 2.77,4.67 7.24,13.29 4.54,8.68 6.78,13.29 6.78,13.94 0,0.79 -1.06,2.24 -3.1,4.41 -18.88,19.94 -43.09,29.94 -72.69,29.94 -29.81,0 -53.56,-8.88 -71.32,-26.71 -17.7,-17.77 -26.58,-41.52 -26.58,-71.19 0,-26.51 8.49,-49.54 25.39,-69.21 17.9,-20.46 39.74,-30.66 65.73,-30.66 24.14,0 44.28,8.88 60.46,26.58 15.79,17.24 23.68,38.23 23.68,62.9zm-45.79 -11.71c0,-10.66 -4.21,-20.14 -12.63,-28.36 -8.42,-8.22 -17.89,-12.3 -28.48,-12.3 -11.85,0 -22.31,4.73 -31.52,14.21 -9.21,9.47 -13.81,20.13 -13.81,31.91 0,2.69 2.3,4.01 6.9,4.01 19.08,0 41.85,-1.91 68.36,-5.66 7.43,-1.05 11.18,-2.3 11.18,-3.81zm180.4 80c0,2.83 -0.27,6.64 -0.79,11.51 -0.6,5.99 -0.99,9.87 -1.12,11.64 -0.13,2.31 -0.33,3.69 -0.59,4.22 -0.53,0.92 -1.71,1.77 -3.62,2.69 -10.53,5.07 -27.04,7.57 -49.61,7.57 -29.8,0 -44.8,-13.62 -44.93,-40.86 0,-10.92 0.19,-27.3 0.59,-49.21 0.39,-21.91 0.59,-38.35 0.59,-49.27 0,-5.27 -2.63,-8.1 -7.89,-8.49 -4.81,0 -9.48,-0.07 -14.08,-0.2 -2.7,-0.66 -4.08,-5.92 -4.08,-15.85 0,-3.69 0.26,-7.64 0.79,-11.78 0.39,-3.09 2.43,-4.94 6.18,-5.59 3.16,0 6.32,-0.07 9.41,-0.2 5.92,-0.26 8.88,-2.9 8.88,-7.9 0,-5.13 -0.13,-12.96 -0.39,-23.55 -0.27,-10.52 -0.4,-18.42 -0.4,-23.68 0,-9.41 1.78,-14.08 5.4,-14.08 1.12,0 13.16,1.97 35.98,5.92 2.97,0.39 4.41,1.78 4.41,4.21 0,5.72 -0.46,14.21 -1.38,25.53 -0.92,11.31 -1.38,19.8 -1.38,25.46 0,3.75 1.78,5.59 5.26,5.59l46.52 0c2.17,0 3.29,0.79 3.29,2.3 0,1.52 -0.27,4.02 -0.73,7.44 -0.46,3.35 -0.66,5.92 -0.66,7.56 0,1.91 0.07,4.87 0.2,8.88 0.13,3.95 0.2,6.91 0.2,8.82 0,2.43 -1.78,3.68 -5.4,3.68 -5.19,0 -12.96,-0.32 -23.42,-0.98 -10.39,-0.66 -18.16,-0.99 -23.35,-0.99 -0.99,0 -1.78,3.68 -2.31,10.99 -0.26,9.14 -0.39,21.91 -0.39,38.42l0 28.75c0,11.05 1.05,18.75 3.09,23.09 3.03,6.71 9.34,10.07 18.95,10.07 3.95,0 9.74,-0.86 17.43,-2.57 7.64,-1.71 13.36,-2.56 17.04,-2.56 1.52,0 2.31,1.11 2.31,3.42zm215.07 -139.22c0,0.53 -0.2,1.65 -0.59,3.49 -5.14,29.41 -7.7,54.74 -7.7,76.06 0,1.31 1.64,30.13 4.93,86.51l0.2 2.7c0.13,3.75 -1.58,5.59 -5.13,5.59 -3.55,0 -8.88,0.39 -16.05,1.25 -7.11,0.85 -12.44,1.25 -15.92,1.25 -2.44,0 -4.28,-4.48 -5.6,-13.42 -1.31,-8.95 -2.5,-13.42 -3.68,-13.42 -0.79,0 -4.21,2.5 -10.4,7.5 -7.56,6.11 -14.67,10.79 -21.18,14.01 -10.2,5.13 -20.33,7.7 -30.46,7.7 -24.94,0 -45.99,-9.94 -63.09,-29.87 -16.19,-19.02 -24.28,-41.19 -24.28,-66.52 0,-28.48 8.16,-52.1 24.47,-70.72 17.11,-19.41 39.61,-29.08 67.5,-29.08 19.68,0 36.85,6.84 51.45,20.46 2.17,2.57 5.59,6.32 10.26,11.19 0.33,0.39 0.73,0.59 1.12,0.59 0.79,0 1.91,-4.01 3.29,-12.17 1.45,-8.1 3.23,-12.17 5.46,-12.17 3.49,0 10,0.98 19.54,2.89 10.6,2.3 15.86,4.41 15.86,6.18zm-49.34 80.6c0,-15.79 -4.68,-29.28 -14.08,-40.59 -9.87,-12.18 -22.5,-18.29 -37.96,-18.29 -15.4,0 -28.23,6.05 -38.56,18.09 -9.87,11.58 -14.8,25.13 -14.8,40.79 0,15.52 4.93,29.01 14.8,40.46 10.33,11.91 23.16,17.89 38.56,17.89 15.06,0 27.63,-6.12 37.76,-18.29 9.54,-11.44 14.28,-24.73 14.28,-40.06zm190.72 -87.17c0,14.14 -0.99,27.04 -2.9,38.61 -0.39,2.97 -1.71,4.41 -3.88,4.41 -2.69,0 -6.77,-0.26 -12.23,-0.85 -5.53,-0.59 -9.67,-0.86 -12.5,-0.86 -16.25,0 -26.65,4.54 -31.12,13.69 -2.7,5.52 -4.08,17.04 -4.08,34.47l0 21.25c0,7.17 0.26,18.09 0.79,32.76 0.52,14.61 0.79,25.53 0.79,32.77 0,3.42 -1.45,5.19 -4.41,5.19 -3.95,0 -9.93,-0.06 -17.96,-0.19 -8.03,-0.13 -14.08,-0.2 -18.03,-0.2 -2.89,0 -4.41,-1.58 -4.41,-4.8 0,-10.4 0.2,-26.12 0.53,-47.04 0.33,-20.92 0.46,-36.71 0.46,-47.24 0,-31.71 -2.89,-57.24 -8.68,-76.51 -0.27,-1.06 -0.4,-1.78 -0.4,-2.31 0,-1.58 0.86,-2.63 2.5,-3.29 4.67,-0.52 11.32,-1.31 19.87,-2.36 13.75,-2.64 20.13,-3.95 19.08,-3.95 2.04,0 3.42,3.81 4.01,11.45 0.66,7.69 1.85,11.51 3.49,11.51 0.26,0 0.59,-0.13 0.99,-0.4 5.26,-3.35 10.52,-6.71 15.85,-10.13 5.79,-3.48 11.71,-6.05 17.83,-7.76 5,-1.51 11.45,-2.3 19.34,-2.3 10.07,0 15.07,1.38 15.07,4.08zm71.45 -49.48c0,15.79 -8.82,23.69 -26.45,23.69 -17.89,0 -26.84,-7.9 -26.84,-23.69 0,-7.04 2.76,-12.89 8.29,-17.5 5.13,-4.41 11.31,-6.58 18.55,-6.58 7.17,0 13.42,2.24 18.62,6.71 5.2,4.54 7.83,10.33 7.83,17.37zm-1.58 52.24c0,9.87 -0.59,24.8 -1.78,44.8 -1.18,20 -1.77,35 -1.77,45 0,9.41 0.19,23.42 0.59,42.11 0.39,18.68 0.59,32.7 0.59,41.91 0,2.69 -1.18,4.08 -3.49,4.08l-37.63 0c-2.69,0 -4.08,-2.64 -4.08,-7.9 0,-8.88 0.27,-22.24 0.73,-40 0.46,-17.83 0.66,-31.18 0.66,-40.2 0,-10 -0.73,-25.06 -2.18,-45.13 -1.44,-20 -2.17,-35.07 -2.17,-45.07 0,-2.17 1.32,-3.29 4.02,-3.29 2.3,0 5.85,0.33 10.65,0.99 4.81,0.59 8.43,0.92 10.86,0.92 2.43,0 6.05,-0.33 10.86,-0.92 4.8,-0.66 8.42,-0.99 10.85,-0.99 2.17,0 3.29,1.25 3.29,3.69zm212.83 84.34c0,26.84 -8.81,49.8 -26.38,68.82 -18.03,19.67 -40.26,29.47 -66.84,29.47 -26.78,0 -49.08,-9.73 -67.11,-29.27 -17.56,-18.89 -26.38,-41.78 -26.38,-68.62 0,-26.85 8.82,-49.74 26.38,-68.62 18.16,-19.28 40.46,-28.88 67.11,-28.88 26.45,0 48.62,9.6 66.64,28.88 17.7,18.75 26.58,41.51 26.58,68.22zm-40.66 0.4c0,-15.66 -4.8,-29.02 -14.47,-40.07 -10,-11.71 -22.7,-17.57 -38.09,-17.57 -15.46,0 -28.23,5.79 -38.36,17.37 -9.67,11.19 -14.47,24.61 -14.47,40.27 0,15.39 4.87,28.81 14.67,40.06 10.26,11.98 22.96,17.96 38.16,17.96 15.26,0 27.96,-5.98 38.09,-17.96 9.67,-11.25 14.47,-24.67 14.47,-40.06zm287 34.08c0,19.14 -7.63,34.47 -22.96,46.05 -13.95,10.53 -30.86,15.79 -50.86,15.79 -7.7,0 -12.1,-0.2 -13.16,-0.59 -2.17,-0.99 -3.29,-4.15 -3.29,-9.41 0,-2.83 -0.33,-7.04 -1.05,-12.7 -0.72,-5.66 -1.05,-9.8 -1.05,-12.5 0,-1.64 1.18,-2.76 3.49,-3.29 1.64,-0.39 4.01,-0.39 7.1,0 4.01,0.4 5.92,0.59 5.79,0.59 24.34,0 36.51,-7.5 36.51,-22.43 0,-7.04 -5.33,-13.49 -15.92,-19.41 -17.23,-9.54 -27.17,-15.33 -29.73,-17.56 -10.6,-9.08 -15.93,-21.06 -15.93,-35.79 0,-19.28 7.31,-34.28 21.85,-45.07 13.15,-9.67 29.73,-14.47 49.87,-14.47 1.77,0 3.09,0.85 3.94,2.5 0.86,1.71 2.44,6.9 4.87,15.65 2.37,8.75 3.55,14.02 3.55,15.86 0,1.38 -1.25,2.3 -3.68,2.7 -8.22,1.11 -16.51,2.23 -24.87,3.22 -9.93,2.7 -14.87,8.09 -14.87,16.12 0,5.79 5.2,11.64 15.53,17.56 15.33,8.56 25.06,14.81 29.14,18.69 10.46,10 15.73,22.83 15.73,38.49zm190.98 -44.08c0,9.47 -4.07,15.85 -12.3,19.08 -5.59,2.04 -45.39,5.85 -119.54,11.44 1.65,11.32 7.9,20.92 18.75,28.88 10.33,7.57 21.38,11.39 33.23,11.39 20.39,0 39.07,-6.52 56.05,-19.48 2.1,-1.71 4.14,-3.35 6.18,-5 1.06,0 1.71,0.13 2.04,0.4 0.33,0.26 2.77,4.67 7.24,13.29 4.54,8.68 6.78,13.29 6.78,13.94 0,0.79 -1.06,2.24 -3.1,4.41 -18.88,19.94 -43.09,29.94 -72.69,29.94 -29.81,0 -53.56,-8.88 -71.32,-26.71 -17.7,-17.77 -26.58,-41.52 -26.58,-71.19 0,-26.51 8.49,-49.54 25.39,-69.21 17.9,-20.46 39.74,-30.66 65.73,-30.66 24.14,0 44.28,8.88 60.46,26.58 15.79,17.24 23.68,38.23 23.68,62.9zm-45.79 -11.71c0,-10.66 -4.21,-20.14 -12.63,-28.36 -8.42,-8.22 -17.89,-12.3 -28.48,-12.3 -11.85,0 -22.31,4.73 -31.52,14.21 -9.21,9.47 -13.81,20.13 -13.81,31.91 0,2.69 2.3,4.01 6.9,4.01 19.08,0 41.85,-1.91 68.36,-5.66 7.43,-1.05 11.18,-2.3 11.18,-3.81zm207.63 -59.61c0,2.83 -1.44,9.14 -4.4,18.88 -2.97,9.8 -5.07,14.67 -6.19,14.67 -5.79,-2.56 -11.64,-5.06 -17.5,-7.63 -5.85,-2.56 -12.24,-3.81 -19.14,-3.81 -15.86,0 -29.02,5.85 -39.61,17.5 -10.53,11.71 -15.79,25.52 -15.79,41.38 0,15.66 5.26,29.21 15.79,40.66 10.79,11.77 24.01,17.69 39.54,17.69 8.62,0 17.11,-2.1 25.46,-6.31 8.36,-4.21 12.04,-6.32 10.99,-6.32 1.64,0 3.55,5.4 5.59,16.19 1.91,9.73 2.89,16.44 2.89,20.19 0,3.95 -7.5,7.83 -22.56,11.71 -12.63,3.23 -21.91,4.81 -27.96,4.81 -26.52,0 -48.88,-9.87 -67.11,-29.67 -17.89,-19.28 -26.84,-42.31 -26.84,-69.02 0,-27.24 8.75,-50.39 26.25,-69.41 18.03,-19.54 40.46,-29.27 67.3,-29.27 18.03,0 34.54,4.54 49.41,13.68 2.57,1.58 3.88,2.9 3.88,4.08zm134.15 -6.18c0,14.14 -0.99,27.04 -2.9,38.61 -0.39,2.97 -1.71,4.41 -3.88,4.41 -2.69,0 -6.77,-0.26 -12.23,-0.85 -5.53,-0.59 -9.67,-0.86 -12.5,-0.86 -16.25,0 -26.65,4.54 -31.12,13.69 -2.7,5.52 -4.08,17.04 -4.08,34.47l0 21.25c0,7.17 0.26,18.09 0.79,32.76 0.52,14.61 0.79,25.53 0.79,32.77 0,3.42 -1.45,5.19 -4.41,5.19 -3.95,0 -9.93,-0.06 -17.96,-0.19 -8.03,-0.13 -14.08,-0.2 -18.03,-0.2 -2.89,0 -4.41,-1.58 -4.41,-4.8 0,-10.4 0.2,-26.12 0.53,-47.04 0.33,-20.92 0.46,-36.71 0.46,-47.24 0,-31.71 -2.89,-57.24 -8.68,-76.51 -0.27,-1.06 -0.4,-1.78 -0.4,-2.31 0,-1.58 0.86,-2.63 2.5,-3.29 4.67,-0.52 11.32,-1.31 19.87,-2.36 13.75,-2.64 20.13,-3.95 19.08,-3.95 2.04,0 3.42,3.81 4.01,11.45 0.66,7.69 1.85,11.51 3.49,11.51 0.26,0 0.59,-0.13 0.99,-0.4 5.26,-3.35 10.52,-6.71 15.85,-10.13 5.79,-3.48 11.71,-6.05 17.83,-7.76 5,-1.51 11.45,-2.3 19.34,-2.3 10.07,0 15.07,1.38 15.07,4.08zm184.34 77.5c0,9.47 -4.07,15.85 -12.3,19.08 -5.59,2.04 -45.39,5.85 -119.54,11.44 1.65,11.32 7.9,20.92 18.75,28.88 10.33,7.57 21.38,11.39 33.23,11.39 20.39,0 39.07,-6.52 56.05,-19.48 2.1,-1.71 4.14,-3.35 6.18,-5 1.06,0 1.71,0.13 2.04,0.4 0.33,0.26 2.77,4.67 7.24,13.29 4.54,8.68 6.78,13.29 6.78,13.94 0,0.79 -1.06,2.24 -3.1,4.41 -18.88,19.94 -43.09,29.94 -72.69,29.94 -29.81,0 -53.56,-8.88 -71.32,-26.71 -17.7,-17.77 -26.58,-41.52 -26.58,-71.19 0,-26.51 8.49,-49.54 25.39,-69.21 17.9,-20.46 39.74,-30.66 65.73,-30.66 24.14,0 44.28,8.88 60.46,26.58 15.79,17.24 23.68,38.23 23.68,62.9zm-45.79 -11.71c0,-10.66 -4.21,-20.14 -12.63,-28.36 -8.42,-8.22 -17.89,-12.3 -28.48,-12.3 -11.85,0 -22.31,4.73 -31.52,14.21 -9.21,9.47 -13.81,20.13 -13.81,31.91 0,2.69 2.3,4.01 6.9,4.01 19.08,0 41.85,-1.91 68.36,-5.66 7.43,-1.05 11.18,-2.3 11.18,-3.81zm180.4 80c0,2.83 -0.27,6.64 -0.79,11.51 -0.6,5.99 -0.99,9.87 -1.12,11.64 -0.13,2.31 -0.33,3.69 -0.59,4.22 -0.53,0.92 -1.71,1.77 -3.62,2.69 -10.53,5.07 -27.04,7.57 -49.61,7.57 -29.8,0 -44.8,-13.62 -44.93,-40.86 0,-10.92 0.19,-27.3 0.59,-49.21 0.39,-21.91 0.59,-38.35 0.59,-49.27 0,-5.27 -2.63,-8.1 -7.89,-8.49 -4.81,0 -9.48,-0.07 -14.08,-0.2 -2.7,-0.66 -4.08,-5.92 -4.08,-15.85 0,-3.69 0.26,-7.64 0.79,-11.78 0.39,-3.09 2.43,-4.94 6.18,-5.59 3.16,0 6.32,-0.07 9.41,-0.2 5.92,-0.26 8.88,-2.9 8.88,-7.9 0,-5.13 -0.13,-12.96 -0.39,-23.55 -0.27,-10.52 -0.4,-18.42 -0.4,-23.68 0,-9.41 1.78,-14.08 5.4,-14.08 1.12,0 13.16,1.97 35.98,5.92 2.97,0.39 4.41,1.78 4.41,4.21 0,5.72 -0.46,14.21 -1.38,25.53 -0.92,11.31 -1.38,19.8 -1.38,25.46 0,3.75 1.78,5.59 5.26,5.59l46.52 0c2.17,0 3.29,0.79 3.29,2.3 0,1.52 -0.27,4.02 -0.73,7.44 -0.46,3.35 -0.66,5.92 -0.66,7.56 0,1.91 0.07,4.87 0.2,8.88 0.13,3.95 0.2,6.91 0.2,8.82 0,2.43 -1.78,3.68 -5.4,3.68 -5.19,0 -12.96,-0.32 -23.42,-0.98 -10.39,-0.66 -18.16,-0.99 -23.35,-0.99 -0.99,0 -1.78,3.68 -2.31,10.99 -0.26,9.14 -0.39,21.91 -0.39,38.42l0 28.75c0,11.05 1.05,18.75 3.09,23.09 3.03,6.71 9.34,10.07 18.95,10.07 3.95,0 9.74,-0.86 17.43,-2.57 7.64,-1.71 13.36,-2.56 17.04,-2.56 1.52,0 2.31,1.11 2.31,3.42zm202.04 -58.69c0,26.84 -8.81,49.8 -26.38,68.82 -18.03,19.67 -40.26,29.47 -66.84,29.47 -26.78,0 -49.08,-9.73 -67.11,-29.27 -17.56,-18.89 -26.38,-41.78 -26.38,-68.62 0,-26.85 8.82,-49.74 26.38,-68.62 18.16,-19.28 40.46,-28.88 67.11,-28.88 26.45,0 48.62,9.6 66.64,28.88 17.7,18.75 26.58,41.51 26.58,68.22zm-40.66 0.4c0,-15.66 -4.8,-29.02 -14.47,-40.07 -10,-11.71 -22.7,-17.57 -38.09,-17.57 -15.46,0 -28.23,5.79 -38.36,17.37 -9.67,11.19 -14.47,24.61 -14.47,40.27 0,15.39 4.87,28.81 14.67,40.06 10.26,11.98 22.96,17.96 38.16,17.96 15.26,0 27.96,-5.98 38.09,-17.96 9.67,-11.25 14.47,-24.67 14.47,-40.06zm157.97 34.08c0,19.14 -7.63,34.47 -22.96,46.05 -13.95,10.53 -30.86,15.79 -50.86,15.79 -7.7,0 -12.1,-0.2 -13.16,-0.59 -2.17,-0.99 -3.29,-4.15 -3.29,-9.41 0,-2.83 -0.33,-7.04 -1.05,-12.7 -0.72,-5.66 -1.05,-9.8 -1.05,-12.5 0,-1.64 1.18,-2.76 3.49,-3.29 1.64,-0.39 4.01,-0.39 7.1,0 4.01,0.4 5.92,0.59 5.79,0.59 24.34,0 36.51,-7.5 36.51,-22.43 0,-7.04 -5.33,-13.49 -15.92,-19.41 -17.23,-9.54 -27.17,-15.33 -29.73,-17.56 -10.6,-9.08 -15.93,-21.06 -15.93,-35.79 0,-19.28 7.31,-34.28 21.85,-45.07 13.15,-9.67 29.73,-14.47 49.87,-14.47 1.77,0 3.09,0.85 3.94,2.5 0.86,1.71 2.44,6.9 4.87,15.65 2.37,8.75 3.55,14.02 3.55,15.86 0,1.38 -1.25,2.3 -3.68,2.7 -8.22,1.11 -16.51,2.23 -24.87,3.22 -9.93,2.7 -14.87,8.09 -14.87,16.12 0,5.79 5.2,11.64 15.53,17.56 15.33,8.56 25.06,14.81 29.14,18.69 10.46,10 15.73,22.83 15.73,38.49z"/>
    <path class="fil5" d="M2482.73 3133.39c0,14.96 -0.45,23.95 -1.36,27.07 -1.13,3.93 -12.06,21.28 -32.8,51.91 -20.74,30.68 -33.02,47.8 -36.91,51.46 -3.52,3.16 -14.91,4.74 -34.2,4.74 -2.31,0 -3.75,-0.22 -4.43,-0.72 -0.63,-0.5 -2.12,-3.71 -4.47,-9.62 -2.31,-5.92 -3.48,-9.45 -3.48,-10.58 0,-1.98 2.35,-2.93 7.05,-2.93 9.89,0 17.17,-1.4 21.86,-4.21 1.59,-0.99 4.03,-4.02 7.23,-9.12 3.21,-5.06 4.84,-8.5 4.84,-10.26 0,-2.39 -6.37,-11.7 -19.16,-27.96 -13.51,-17.22 -21.05,-28.15 -22.63,-32.71 -1.27,-3.66 -1.9,-12.29 -1.9,-25.98 0,-3.39 0.04,-8.45 0.13,-15.18 0.09,-6.78 0.14,-11.89 0.14,-15.32 0,-1.94 1.04,-2.89 3.16,-2.89 2.85,0 7,0.13 12.56,0.5 5.51,0.36 9.67,0.54 12.52,0.54 1.4,0 2.12,0.95 2.12,2.8 0,2.44 -0.14,6.14 -0.41,11.11 -0.27,4.93 -0.4,8.68 -0.4,11.12 0,10.8 0.36,18.84 1.04,24.12 0.54,3.39 5.33,11.75 14.41,25.17 9.08,13.37 14.68,20.06 16.81,20.06 1.49,0 6.28,-6.55 14.27,-19.74 8.04,-13.15 12.34,-21.33 12.88,-24.4 0.68,-4.43 1.04,-12.47 1.04,-24.13 0,-2.57 -0.27,-6.32 -0.82,-11.34 -0.54,-4.97 -0.81,-8.72 -0.81,-11.2 0,-2.22 0.72,-3.3 2.12,-3.3 2.85,0 7.1,-0.18 12.79,-0.59 5.74,-0.4 9.99,-0.59 12.83,-0.59 2.67,0 3.98,10.71 3.98,32.17z"/>
   </g>
   <path class="fil6" d="M2252.77 926.6c12.42,-5.83 -1,8.4 17.22,-13.69l41.4 -65.49c90.92,-138.97 298.19,-411.63 444.71,-430.35 -37.98,36.42 -55.01,37.72 -117.64,104.56 -115.2,122.94 -223.19,321.79 -277.17,486.54 61.89,36.99 108.26,38.15 170.29,29.39 155.43,-21.94 308.88,-106.64 369.58,-274.51 23.76,-65.7 33.07,-147.36 40.7,-213.35 22.63,-195.51 70.25,-266.8 154.64,-431.61 -39.07,1.38 -249.37,87.76 -300.52,106.77 -110.61,41.11 -322.54,140.81 -423.81,213.63 -41.8,30.07 -91.09,68.26 -113.46,134.19 -29.37,86.57 -34.63,189.23 -21.9,273.52 4.17,27.58 13.76,56.22 15.96,80.4z"/>
   <path class="fil7" d="M3004.56 441.43c-26.88,68.7 -24.62,186.75 -44.17,263.75 36.64,-0.58 175.46,-63.76 259.65,-36.3 -102.69,22.38 -160.3,45.98 -242.62,91.15 -53.19,29.18 -30.25,17.72 -63.07,77.97 -94.07,172.72 -249.71,198.97 -286.74,223.28 41.57,89.31 401.7,192.46 595.07,-32.92 73.12,-85.22 125.03,-203.2 195.54,-292.44 122.02,-154.43 207.67,-177.88 233.34,-204.63 -95.54,-42.04 -246.29,-77.22 -343.45,-90.84 -149.65,-20.98 -168.3,-10.61 -303.55,0.98z"/>
   <path class="fil8" d="M2209.51 963.44c12.35,-34.92 -35.51,-191.13 -46.81,-226.17 -24.29,-75.38 -57.18,-121.51 -109.33,-194.46 58.69,23.91 104.79,107.82 134.14,149.15 7.74,-27.46 8.19,-61.22 15.3,-93.9 7.85,-36.1 20.22,-66.2 31.35,-101.97 -74.79,-89.09 -223.62,-146.74 -349.27,-189.84 -1.81,13.49 27.8,124.01 31.85,198.21 3.99,73.14 -10.43,147.83 -5.7,218.07 4.55,67.52 33.89,122.08 87.61,171.03 52.35,47.71 145.39,92.12 210.86,69.88z"/>
   <g>
    <path class="fil2 str0" d="M1318.39 2618.75c0,8.19 -2.36,12.23 -6.96,12.23 -6.73,0 -17.06,-0.11 -30.98,-0.33 -13.81,-0.23 -24.13,-0.34 -30.87,-0.34 -5.5,0 -8.3,-3.59 -8.3,-10.89 0,-10.55 0.45,-26.38 1.23,-47.7 0.79,-21.22 1.12,-37.27 1.12,-48.05 0,-10.1 -0.33,-25.36 -1.12,-45.91 -0.78,-20.42 -1.23,-35.91 -1.23,-46.13 0,-39.51 -18.52,-59.27 -55.79,-59.27 -12.12,0 -27.84,6.06 -47.37,18.08 -20.77,12.9 -31.2,24.8 -31.2,35.58l0 195.42c0,6.29 -2.25,9.54 -6.85,9.54 -6.85,0 -16.95,-0.11 -30.53,-0.33 -13.59,-0.23 -23.69,-0.34 -30.53,-0.34 -5.06,0 -7.53,-2.92 -7.53,-8.87l0 -158.83c0,-25.82 -1.45,-80.93 -4.37,-165 -0.45,-26.16 -2.36,-64.77 -5.73,-115.84 -0.45,-2.59 -0.67,-4.38 -0.67,-5.28 0,-3.7 1.35,-5.95 3.93,-6.85 3.7,-1.23 16.16,-1.91 37.15,-1.91 4.6,0 11.56,-0.78 20.77,-2.46 9.2,-1.58 15.94,-2.36 20.09,-2.36 2.81,0 4.27,2.13 4.27,6.28 0,20.55 -0.79,51.64 -2.36,92.95 -1.57,41.3 -2.25,72.4 -2.25,92.94 0,5.05 0.79,7.74 2.58,7.97 11.23,-9.54 25.6,-20.99 43.33,-34.46 21.44,-13.47 44.12,-20.21 68.03,-20.21 41.08,0 69.48,12.24 85.08,36.82 11.11,17.96 16.72,46.47 16.72,85.53 0,6.74 -0.22,17.29 -0.56,31.43 -0.33,14.15 -0.45,24.58 -0.45,31.32 0,14.03 0.23,35.02 0.68,62.86 0.45,27.84 0.67,48.6 0.67,62.41zm341.46 -165.12c0,16.16 -6.96,27.05 -20.99,32.55 -9.55,3.48 -77.46,9.99 -203.96,19.53 2.81,19.31 13.47,35.7 31.99,49.28 17.62,12.91 36.48,19.42 56.69,19.42 34.79,0 66.67,-11.11 95.63,-33.23 3.59,-2.91 7.07,-5.72 10.55,-8.53 1.8,0 2.92,0.23 3.48,0.68 0.56,0.45 4.72,7.97 12.35,22.67 7.75,14.82 11.56,22.68 11.56,23.8 0,1.35 -1.79,3.81 -5.27,7.52 -32.22,34.01 -73.53,51.07 -124.04,51.07 -50.85,0 -91.37,-15.15 -121.68,-45.57 -30.19,-30.31 -45.34,-70.83 -45.34,-121.45 0,-45.24 14.48,-84.53 43.32,-118.09 30.54,-34.91 67.8,-52.31 112.14,-52.31 41.2,0 75.54,15.16 103.16,45.35 26.94,29.41 40.41,65.22 40.41,107.31zm-78.13 -19.98c0,-18.18 -7.18,-34.35 -21.55,-48.38 -14.37,-14.03 -30.53,-20.99 -48.6,-20.99 -20.21,0 -38.06,8.08 -53.77,24.25 -15.72,16.16 -23.57,34.35 -23.57,54.44 0,4.6 3.93,6.84 11.78,6.84 32.55,0 71.39,-3.25 116.63,-9.65 12.68,-1.79 19.08,-3.93 19.08,-6.51zm312.5 -112.25c0,24.14 -1.69,46.14 -4.94,65.89 -0.67,5.05 -2.92,7.52 -6.62,7.52 -4.61,0 -11.56,-0.45 -20.88,-1.46 -9.43,-1.01 -16.5,-1.46 -21.33,-1.46 -27.72,0 -45.46,7.75 -53.09,23.35 -4.6,9.43 -6.96,29.07 -6.96,58.82l0 36.26c0,12.23 0.45,30.86 1.35,55.9 0.89,24.92 1.34,43.55 1.34,55.9 0,5.83 -2.47,8.86 -7.52,8.86 -6.73,0 -16.95,-0.11 -30.64,-0.33 -13.7,-0.23 -24.02,-0.34 -30.76,-0.34 -4.94,0 -7.52,-2.69 -7.52,-8.19 0,-17.74 0.34,-44.57 0.9,-80.26 0.56,-35.7 0.78,-62.64 0.78,-80.6 0,-54.1 -4.93,-97.65 -14.81,-130.54 -0.45,-1.8 -0.68,-3.03 -0.68,-3.93 0,-2.69 1.46,-4.49 4.27,-5.61 7.97,-0.9 19.31,-2.25 33.9,-4.04 23.46,-4.49 34.35,-6.74 32.55,-6.74 3.48,0 5.84,6.51 6.85,19.53 1.12,13.14 3.14,19.65 5.95,19.65 0.45,0 1.01,-0.23 1.68,-0.68 8.98,-5.72 17.96,-11.45 27.05,-17.28 9.88,-5.95 19.98,-10.33 30.42,-13.25 8.53,-2.58 19.53,-3.93 33,-3.93 17.18,0 25.71,2.36 25.71,6.96zm362.33 150.08c0,43.44 -13.47,81.27 -40.41,113.59 -28.73,34.24 -64.43,51.3 -107.19,51.3 -28.51,0 -53.55,-7.29 -75.32,-21.77 -8.76,-7.53 -17.51,-14.93 -26.27,-22.23 -2.35,0.67 -3.93,7.3 -4.71,19.87 -0.79,12.46 -2.58,18.74 -5.39,18.74l-69.48 0c-2.58,0 -3.93,-1.46 -3.93,-4.26 0,0.22 0.22,-1.8 0.67,-5.95 3.6,-35.02 5.39,-102.15 5.39,-201.26 0,-40.52 -1.79,-100.13 -5.39,-178.59 -2.24,-49.95 -3.36,-71.95 -3.36,-65.78 0,-5.72 2.8,-8.86 8.53,-9.54 7.97,-0.22 19.64,-0.67 35.24,-1.23 3.03,-0.23 9.32,-1.01 18.75,-2.25 7.86,-1.23 14.25,-1.91 19.08,-1.91 3.48,0 5.28,2.47 5.28,7.52 0,7.53 -0.57,18.86 -1.58,34.13 -1.12,15.38 -1.57,26.83 -1.57,34.46 0,11.45 -0.56,28.51 -1.46,51.41 -1.01,22.9 -1.46,39.96 -1.46,51.41 0,8.3 1.58,12.46 4.61,12.46 1.57,0 3.14,-1.24 4.94,-3.59 24.02,-29.97 55.9,-45.02 95.52,-45.02 45.35,0 82.05,16.95 110.11,50.96 26.27,32.11 39.4,71.28 39.4,117.53zm-74.08 -3.03c0,-26.04 -8.19,-49.05 -24.69,-68.92 -17.52,-21.22 -39.07,-31.88 -64.77,-31.88 -26.27,0 -48.16,10.44 -65.67,31.2 -16.95,19.76 -25.37,42.88 -25.37,69.6 0,27.16 8.42,50.62 25.37,70.38 17.51,20.54 39.63,30.87 66.34,30.87 25.93,0 47.48,-10.67 64.77,-31.88 16.05,-19.76 24.02,-42.77 24.02,-69.37zm419.03 1.57c0,45.8 -15.04,84.97 -45.01,117.41 -30.76,33.56 -68.7,50.29 -114.05,50.29 -45.68,0 -83.74,-16.61 -114.49,-49.95 -29.97,-32.22 -45.01,-71.28 -45.01,-117.08 0,-45.79 15.04,-84.86 45.01,-117.07 30.98,-32.89 69.03,-49.28 114.49,-49.28 45.13,0 82.95,16.39 113.71,49.28 30.19,31.99 45.35,70.83 45.35,116.4zm-69.37 0.67c0,-26.71 -8.2,-49.5 -24.7,-68.36 -17.06,-19.98 -38.72,-29.97 -64.99,-29.97 -26.38,0 -48.15,9.88 -65.44,29.64 -16.5,19.08 -24.69,41.98 -24.69,68.69 0,26.27 8.3,49.17 25.03,68.36 17.51,20.43 39.17,30.65 65.1,30.65 26.04,0 47.71,-10.22 64.99,-30.65 16.5,-19.19 24.7,-42.09 24.7,-68.36zm198.79 -296.44l-0.33 4.26c-4.72,81.49 -7.07,151.54 -7.07,210.13 0,26.04 0.44,65.1 1.34,117.19 0.9,52.08 1.24,91.03 1.24,116.96 0,5.05 -1.69,7.52 -5.17,7.52l-62.86 0c-3.92,0 -5.94,-2.47 -5.94,-7.52 0,-25.93 0.22,-64.88 0.67,-116.96 0.45,-52.09 0.67,-91.15 0.67,-117.19 0,-23.69 -1.12,-59.27 -3.37,-106.75 -2.24,-47.48 -3.36,-82.84 -3.36,-106.3 0,-4.38 2.24,-6.62 6.84,-6.62 3.93,0 9.88,0.34 17.74,1.01 7.86,0.67 13.69,1.01 17.74,1.01 4.04,0 10.21,-0.34 18.29,-1.01 8.08,-0.67 14.03,-1.01 17.96,-1.01 3.93,0 5.84,1.8 5.61,5.28zm385.35 158.38c0,0.9 -0.33,2.8 -1.01,5.95 -8.75,50.17 -13.13,93.39 -13.13,129.76 0,2.24 2.81,51.41 8.42,147.6l0.33 4.6c0.23,6.4 -2.69,9.55 -8.75,9.55 -6.06,0 -15.15,0.67 -27.39,2.13 -12.12,1.46 -21.21,2.13 -27.16,2.13 -4.16,0 -7.3,-7.63 -9.54,-22.9 -2.25,-15.26 -4.27,-22.9 -6.29,-22.9 -1.35,0 -7.18,4.27 -17.74,12.8 -12.9,10.44 -25.03,18.41 -36.14,23.91 -17.4,8.75 -34.68,13.13 -51.97,13.13 -42.54,0 -78.46,-16.95 -107.65,-50.96 -27.61,-32.44 -41.42,-70.27 -41.42,-113.48 0,-48.61 13.92,-88.9 41.76,-120.67 29.18,-33.11 67.57,-49.61 115.17,-49.61 33.56,0 62.86,11.67 87.77,34.91 3.71,4.37 9.55,10.77 17.52,19.08 0.56,0.67 1.23,1.01 1.9,1.01 1.35,0 3.26,-6.85 5.62,-20.77 2.47,-13.8 5.5,-20.76 9.31,-20.76 5.95,0 17.06,1.68 33.34,4.94 18.07,3.92 27.05,7.52 27.05,10.55zm-84.18 137.5c0,-26.94 -7.97,-49.95 -24.03,-69.26 -16.83,-20.76 -38.38,-31.2 -64.76,-31.2 -26.27,0 -48.16,10.33 -65.78,30.87 -16.84,19.75 -25.26,42.88 -25.26,69.59 0,26.49 8.42,49.5 25.26,69.03 17.62,20.32 39.51,30.54 65.78,30.54 25.7,0 47.14,-10.44 64.43,-31.21 16.27,-19.53 24.36,-42.2 24.36,-68.36zm325.41 -148.73c0,24.14 -1.69,46.14 -4.94,65.89 -0.67,5.05 -2.92,7.52 -6.62,7.52 -4.61,0 -11.56,-0.45 -20.88,-1.46 -9.43,-1.01 -16.5,-1.46 -21.33,-1.46 -27.72,0 -45.46,7.75 -53.09,23.35 -4.6,9.43 -6.96,29.07 -6.96,58.82l0 36.26c0,12.23 0.45,30.86 1.35,55.9 0.89,24.92 1.34,43.55 1.34,55.9 0,5.83 -2.47,8.86 -7.52,8.86 -6.73,0 -16.95,-0.11 -30.64,-0.33 -13.7,-0.23 -24.02,-0.34 -30.76,-0.34 -4.94,0 -7.52,-2.69 -7.52,-8.19 0,-17.74 0.34,-44.57 0.9,-80.26 0.56,-35.7 0.78,-62.64 0.78,-80.6 0,-54.1 -4.93,-97.65 -14.81,-130.54 -0.45,-1.8 -0.68,-3.03 -0.68,-3.93 0,-2.69 1.46,-4.49 4.27,-5.61 7.97,-0.9 19.31,-2.25 33.9,-4.04 23.46,-4.49 34.35,-6.74 32.55,-6.74 3.48,0 5.84,6.51 6.85,19.53 1.12,13.14 3.14,19.65 5.95,19.65 0.45,0 1.01,-0.23 1.68,-0.68 8.98,-5.72 17.96,-11.45 27.05,-17.28 9.88,-5.95 19.98,-10.33 30.42,-13.25 8.53,-2.58 19.53,-3.93 33,-3.93 17.18,0 25.71,2.36 25.71,6.96zm121.9 -84.41c0,26.94 -15.04,40.41 -45.13,40.41 -30.53,0 -45.79,-13.47 -45.79,-40.41 0,-12.01 4.71,-22 14.14,-29.86 8.76,-7.52 19.31,-11.22 31.65,-11.22 12.24,0 22.9,3.82 31.77,11.45 8.87,7.74 13.36,17.62 13.36,29.63zm-2.7 89.13c0,16.83 -1.01,42.31 -3.03,76.44 -2.02,34.12 -3.03,59.71 -3.03,76.78 0,16.05 0.34,39.96 1.01,71.83 0.68,31.88 1.01,55.79 1.01,71.51 0,4.6 -2.02,6.96 -5.95,6.96l-64.2 0c-4.6,0 -6.96,-4.49 -6.96,-13.47 0,-15.16 0.45,-37.94 1.23,-68.25 0.79,-30.42 1.13,-53.21 1.13,-68.58 0,-17.07 -1.24,-42.77 -3.71,-77.01 -2.47,-34.12 -3.7,-59.82 -3.7,-76.89 0,-3.7 2.24,-5.61 6.84,-5.61 3.93,0 9.99,0.56 18.19,1.68 8.19,1.02 14.37,1.58 18.52,1.58 4.15,0 10.33,-0.56 18.52,-1.58 8.19,-1.12 14.37,-1.68 18.52,-1.68 3.71,0 5.61,2.13 5.61,6.29zm385.35 6.51c0,0.9 -0.33,2.8 -1.01,5.95 -8.75,50.17 -13.13,93.39 -13.13,129.76 0,2.24 2.81,51.41 8.42,147.6l0.33 4.6c0.23,6.4 -2.69,9.55 -8.75,9.55 -6.06,0 -15.15,0.67 -27.39,2.13 -12.12,1.46 -21.21,2.13 -27.16,2.13 -4.16,0 -7.3,-7.63 -9.54,-22.9 -2.25,-15.26 -4.27,-22.9 -6.29,-22.9 -1.35,0 -7.18,4.27 -17.74,12.8 -12.9,10.44 -25.03,18.41 -36.14,23.91 -17.4,8.75 -34.68,13.13 -51.97,13.13 -42.54,0 -78.46,-16.95 -107.65,-50.96 -27.61,-32.44 -41.42,-70.27 -41.42,-113.48 0,-48.61 13.92,-88.9 41.76,-120.67 29.18,-33.11 67.57,-49.61 115.17,-49.61 33.56,0 62.86,11.67 87.77,34.91 3.71,4.37 9.55,10.77 17.52,19.08 0.56,0.67 1.23,1.01 1.9,1.01 1.35,0 3.26,-6.85 5.62,-20.77 2.47,-13.8 5.5,-20.76 9.31,-20.76 5.95,0 17.06,1.68 33.34,4.94 18.07,3.92 27.05,7.52 27.05,10.55zm-84.18 137.5c0,-26.94 -7.97,-49.95 -24.03,-69.26 -16.83,-20.76 -38.38,-31.2 -64.76,-31.2 -26.27,0 -48.16,10.33 -65.78,30.87 -16.84,19.75 -25.26,42.88 -25.26,69.59 0,26.49 8.42,49.5 25.26,69.03 17.62,20.32 39.51,30.54 65.78,30.54 25.7,0 47.14,-10.44 64.43,-31.21 16.27,-19.53 24.36,-42.2 24.36,-68.36z"/>
    <path id="1" class="fil3" d="M1318.39 2618.75c0,8.19 -2.36,12.23 -6.96,12.23 -6.73,0 -17.06,-0.11 -30.98,-0.33 -13.81,-0.23 -24.13,-0.34 -30.87,-0.34 -5.5,0 -8.3,-3.59 -8.3,-10.89 0,-10.55 0.45,-26.38 1.23,-47.7 0.79,-21.22 1.12,-37.27 1.12,-48.05 0,-10.1 -0.33,-25.36 -1.12,-45.91 -0.78,-20.42 -1.23,-35.91 -1.23,-46.13 0,-39.51 -18.52,-59.27 -55.79,-59.27 -12.12,0 -27.84,6.06 -47.37,18.08 -20.77,12.9 -31.2,24.8 -31.2,35.58l0 195.42c0,6.29 -2.25,9.54 -6.85,9.54 -6.85,0 -16.95,-0.11 -30.53,-0.33 -13.59,-0.23 -23.69,-0.34 -30.53,-0.34 -5.06,0 -7.53,-2.92 -7.53,-8.87l0 -158.83c0,-25.82 -1.45,-80.93 -4.37,-165 -0.45,-26.16 -2.36,-64.77 -5.73,-115.84 -0.45,-2.59 -0.67,-4.38 -0.67,-5.28 0,-3.7 1.35,-5.95 3.93,-6.85 3.7,-1.23 16.16,-1.91 37.15,-1.91 4.6,0 11.56,-0.78 20.77,-2.46 9.2,-1.58 15.94,-2.36 20.09,-2.36 2.81,0 4.27,2.13 4.27,6.28 0,20.55 -0.79,51.64 -2.36,92.95 -1.57,41.3 -2.25,72.4 -2.25,92.94 0,5.05 0.79,7.74 2.58,7.97 11.23,-9.54 25.6,-20.99 43.33,-34.46 21.44,-13.47 44.12,-20.21 68.03,-20.21 41.08,0 69.48,12.24 85.08,36.82 11.11,17.96 16.72,46.47 16.72,85.53 0,6.74 -0.22,17.29 -0.56,31.43 -0.33,14.15 -0.45,24.58 -0.45,31.32 0,14.03 0.23,35.02 0.68,62.86 0.45,27.84 0.67,48.6 0.67,62.41zm341.46 -165.12c0,16.16 -6.96,27.05 -20.99,32.55 -9.55,3.48 -77.46,9.99 -203.96,19.53 2.81,19.31 13.47,35.7 31.99,49.28 17.62,12.91 36.48,19.42 56.69,19.42 34.79,0 66.67,-11.11 95.63,-33.23 3.59,-2.91 7.07,-5.72 10.55,-8.53 1.8,0 2.92,0.23 3.48,0.68 0.56,0.45 4.72,7.97 12.35,22.67 7.75,14.82 11.56,22.68 11.56,23.8 0,1.35 -1.79,3.81 -5.27,7.52 -32.22,34.01 -73.53,51.07 -124.04,51.07 -50.85,0 -91.37,-15.15 -121.68,-45.57 -30.19,-30.31 -45.34,-70.83 -45.34,-121.45 0,-45.24 14.48,-84.53 43.32,-118.09 30.54,-34.91 67.8,-52.31 112.14,-52.31 41.2,0 75.54,15.16 103.16,45.35 26.94,29.41 40.41,65.22 40.41,107.31zm-78.13 -19.98c0,-18.18 -7.18,-34.35 -21.55,-48.38 -14.37,-14.03 -30.53,-20.99 -48.6,-20.99 -20.21,0 -38.06,8.08 -53.77,24.25 -15.72,16.16 -23.57,34.35 -23.57,54.44 0,4.6 3.93,6.84 11.78,6.84 32.55,0 71.39,-3.25 116.63,-9.65 12.68,-1.79 19.08,-3.93 19.08,-6.51zm312.5 -112.25c0,24.14 -1.69,46.14 -4.94,65.89 -0.67,5.05 -2.92,7.52 -6.62,7.52 -4.61,0 -11.56,-0.45 -20.88,-1.46 -9.43,-1.01 -16.5,-1.46 -21.33,-1.46 -27.72,0 -45.46,7.75 -53.09,23.35 -4.6,9.43 -6.96,29.07 -6.96,58.82l0 36.26c0,12.23 0.45,30.86 1.35,55.9 0.89,24.92 1.34,43.55 1.34,55.9 0,5.83 -2.47,8.86 -7.52,8.86 -6.73,0 -16.95,-0.11 -30.64,-0.33 -13.7,-0.23 -24.02,-0.34 -30.76,-0.34 -4.94,0 -7.52,-2.69 -7.52,-8.19 0,-17.74 0.34,-44.57 0.9,-80.26 0.56,-35.7 0.78,-62.64 0.78,-80.6 0,-54.1 -4.93,-97.65 -14.81,-130.54 -0.45,-1.8 -0.68,-3.03 -0.68,-3.93 0,-2.69 1.46,-4.49 4.27,-5.61 7.97,-0.9 19.31,-2.25 33.9,-4.04 23.46,-4.49 34.35,-6.74 32.55,-6.74 3.48,0 5.84,6.51 6.85,19.53 1.12,13.14 3.14,19.65 5.95,19.65 0.45,0 1.01,-0.23 1.68,-0.68 8.98,-5.72 17.96,-11.45 27.05,-17.28 9.88,-5.95 19.98,-10.33 30.42,-13.25 8.53,-2.58 19.53,-3.93 33,-3.93 17.18,0 25.71,2.36 25.71,6.96zm362.33 150.08c0,43.44 -13.47,81.27 -40.41,113.59 -28.73,34.24 -64.43,51.3 -107.19,51.3 -28.51,0 -53.55,-7.29 -75.32,-21.77 -8.76,-7.53 -17.51,-14.93 -26.27,-22.23 -2.35,0.67 -3.93,7.3 -4.71,19.87 -0.79,12.46 -2.58,18.74 -5.39,18.74l-69.48 0c-2.58,0 -3.93,-1.46 -3.93,-4.26 0,0.22 0.22,-1.8 0.67,-5.95 3.6,-35.02 5.39,-102.15 5.39,-201.26 0,-40.52 -1.79,-100.13 -5.39,-178.59 -2.24,-49.95 -3.36,-71.95 -3.36,-65.78 0,-5.72 2.8,-8.86 8.53,-9.54 7.97,-0.22 19.64,-0.67 35.24,-1.23 3.03,-0.23 9.32,-1.01 18.75,-2.25 7.86,-1.23 14.25,-1.91 19.08,-1.91 3.48,0 5.28,2.47 5.28,7.52 0,7.53 -0.57,18.86 -1.58,34.13 -1.12,15.38 -1.57,26.83 -1.57,34.46 0,11.45 -0.56,28.51 -1.46,51.41 -1.01,22.9 -1.46,39.96 -1.46,51.41 0,8.3 1.58,12.46 4.61,12.46 1.57,0 3.14,-1.24 4.94,-3.59 24.02,-29.97 55.9,-45.02 95.52,-45.02 45.35,0 82.05,16.95 110.11,50.96 26.27,32.11 39.4,71.28 39.4,117.53zm-74.08 -3.03c0,-26.04 -8.19,-49.05 -24.69,-68.92 -17.52,-21.22 -39.07,-31.88 -64.77,-31.88 -26.27,0 -48.16,10.44 -65.67,31.2 -16.95,19.76 -25.37,42.88 -25.37,69.6 0,27.16 8.42,50.62 25.37,70.38 17.51,20.54 39.63,30.87 66.34,30.87 25.93,0 47.48,-10.67 64.77,-31.88 16.05,-19.76 24.02,-42.77 24.02,-69.37zm419.03 1.57c0,45.8 -15.04,84.97 -45.01,117.41 -30.76,33.56 -68.7,50.29 -114.05,50.29 -45.68,0 -83.74,-16.61 -114.49,-49.95 -29.97,-32.22 -45.01,-71.28 -45.01,-117.08 0,-45.79 15.04,-84.86 45.01,-117.07 30.98,-32.89 69.03,-49.28 114.49,-49.28 45.13,0 82.95,16.39 113.71,49.28 30.19,31.99 45.35,70.83 45.35,116.4zm-69.37 0.67c0,-26.71 -8.2,-49.5 -24.7,-68.36 -17.06,-19.98 -38.72,-29.97 -64.99,-29.97 -26.38,0 -48.15,9.88 -65.44,29.64 -16.5,19.08 -24.69,41.98 -24.69,68.69 0,26.27 8.3,49.17 25.03,68.36 17.51,20.43 39.17,30.65 65.1,30.65 26.04,0 47.71,-10.22 64.99,-30.65 16.5,-19.19 24.7,-42.09 24.7,-68.36zm198.79 -296.44l-0.33 4.26c-4.72,81.49 -7.07,151.54 -7.07,210.13 0,26.04 0.44,65.1 1.34,117.19 0.9,52.08 1.24,91.03 1.24,116.96 0,5.05 -1.69,7.52 -5.17,7.52l-62.86 0c-3.92,0 -5.94,-2.47 -5.94,-7.52 0,-25.93 0.22,-64.88 0.67,-116.96 0.45,-52.09 0.67,-91.15 0.67,-117.19 0,-23.69 -1.12,-59.27 -3.37,-106.75 -2.24,-47.48 -3.36,-82.84 -3.36,-106.3 0,-4.38 2.24,-6.62 6.84,-6.62 3.93,0 9.88,0.34 17.74,1.01 7.86,0.67 13.69,1.01 17.74,1.01 4.04,0 10.21,-0.34 18.29,-1.01 8.08,-0.67 14.03,-1.01 17.96,-1.01 3.93,0 5.84,1.8 5.61,5.28zm385.35 158.38c0,0.9 -0.33,2.8 -1.01,5.95 -8.75,50.17 -13.13,93.39 -13.13,129.76 0,2.24 2.81,51.41 8.42,147.6l0.33 4.6c0.23,6.4 -2.69,9.55 -8.75,9.55 -6.06,0 -15.15,0.67 -27.39,2.13 -12.12,1.46 -21.21,2.13 -27.16,2.13 -4.16,0 -7.3,-7.63 -9.54,-22.9 -2.25,-15.26 -4.27,-22.9 -6.29,-22.9 -1.35,0 -7.18,4.27 -17.74,12.8 -12.9,10.44 -25.03,18.41 -36.14,23.91 -17.4,8.75 -34.68,13.13 -51.97,13.13 -42.54,0 -78.46,-16.95 -107.65,-50.96 -27.61,-32.44 -41.42,-70.27 -41.42,-113.48 0,-48.61 13.92,-88.9 41.76,-120.67 29.18,-33.11 67.57,-49.61 115.17,-49.61 33.56,0 62.86,11.67 87.77,34.91 3.71,4.37 9.55,10.77 17.52,19.08 0.56,0.67 1.23,1.01 1.9,1.01 1.35,0 3.26,-6.85 5.62,-20.77 2.47,-13.8 5.5,-20.76 9.31,-20.76 5.95,0 17.06,1.68 33.34,4.94 18.07,3.92 27.05,7.52 27.05,10.55zm-84.18 137.5c0,-26.94 -7.97,-49.95 -24.03,-69.26 -16.83,-20.76 -38.38,-31.2 -64.76,-31.2 -26.27,0 -48.16,10.33 -65.78,30.87 -16.84,19.75 -25.26,42.88 -25.26,69.59 0,26.49 8.42,49.5 25.26,69.03 17.62,20.32 39.51,30.54 65.78,30.54 25.7,0 47.14,-10.44 64.43,-31.21 16.27,-19.53 24.36,-42.2 24.36,-68.36zm325.41 -148.73c0,24.14 -1.69,46.14 -4.94,65.89 -0.67,5.05 -2.92,7.52 -6.62,7.52 -4.61,0 -11.56,-0.45 -20.88,-1.46 -9.43,-1.01 -16.5,-1.46 -21.33,-1.46 -27.72,0 -45.46,7.75 -53.09,23.35 -4.6,9.43 -6.96,29.07 -6.96,58.82l0 36.26c0,12.23 0.45,30.86 1.35,55.9 0.89,24.92 1.34,43.55 1.34,55.9 0,5.83 -2.47,8.86 -7.52,8.86 -6.73,0 -16.95,-0.11 -30.64,-0.33 -13.7,-0.23 -24.02,-0.34 -30.76,-0.34 -4.94,0 -7.52,-2.69 -7.52,-8.19 0,-17.74 0.34,-44.57 0.9,-80.26 0.56,-35.7 0.78,-62.64 0.78,-80.6 0,-54.1 -4.93,-97.65 -14.81,-130.54 -0.45,-1.8 -0.68,-3.03 -0.68,-3.93 0,-2.69 1.46,-4.49 4.27,-5.61 7.97,-0.9 19.31,-2.25 33.9,-4.04 23.46,-4.49 34.35,-6.74 32.55,-6.74 3.48,0 5.84,6.51 6.85,19.53 1.12,13.14 3.14,19.65 5.95,19.65 0.45,0 1.01,-0.23 1.68,-0.68 8.98,-5.72 17.96,-11.45 27.05,-17.28 9.88,-5.95 19.98,-10.33 30.42,-13.25 8.53,-2.58 19.53,-3.93 33,-3.93 17.18,0 25.71,2.36 25.71,6.96zm121.9 -84.41c0,26.94 -15.04,40.41 -45.13,40.41 -30.53,0 -45.79,-13.47 -45.79,-40.41 0,-12.01 4.71,-22 14.14,-29.86 8.76,-7.52 19.31,-11.22 31.65,-11.22 12.24,0 22.9,3.82 31.77,11.45 8.87,7.74 13.36,17.62 13.36,29.63zm-2.7 89.13c0,16.83 -1.01,42.31 -3.03,76.44 -2.02,34.12 -3.03,59.71 -3.03,76.78 0,16.05 0.34,39.96 1.01,71.83 0.68,31.88 1.01,55.79 1.01,71.51 0,4.6 -2.02,6.96 -5.95,6.96l-64.2 0c-4.6,0 -6.96,-4.49 -6.96,-13.47 0,-15.16 0.45,-37.94 1.23,-68.25 0.79,-30.42 1.13,-53.21 1.13,-68.58 0,-17.07 -1.24,-42.77 -3.71,-77.01 -2.47,-34.12 -3.7,-59.82 -3.7,-76.89 0,-3.7 2.24,-5.61 6.84,-5.61 3.93,0 9.99,0.56 18.19,1.68 8.19,1.02 14.37,1.58 18.52,1.58 4.15,0 10.33,-0.56 18.52,-1.58 8.19,-1.12 14.37,-1.68 18.52,-1.68 3.71,0 5.61,2.13 5.61,6.29zm385.35 6.51c0,0.9 -0.33,2.8 -1.01,5.95 -8.75,50.17 -13.13,93.39 -13.13,129.76 0,2.24 2.81,51.41 8.42,147.6l0.33 4.6c0.23,6.4 -2.69,9.55 -8.75,9.55 -6.06,0 -15.15,0.67 -27.39,2.13 -12.12,1.46 -21.21,2.13 -27.16,2.13 -4.16,0 -7.3,-7.63 -9.54,-22.9 -2.25,-15.26 -4.27,-22.9 -6.29,-22.9 -1.35,0 -7.18,4.27 -17.74,12.8 -12.9,10.44 -25.03,18.41 -36.14,23.91 -17.4,8.75 -34.68,13.13 -51.97,13.13 -42.54,0 -78.46,-16.95 -107.65,-50.96 -27.61,-32.44 -41.42,-70.27 -41.42,-113.48 0,-48.61 13.92,-88.9 41.76,-120.67 29.18,-33.11 67.57,-49.61 115.17,-49.61 33.56,0 62.86,11.67 87.77,34.91 3.71,4.37 9.55,10.77 17.52,19.08 0.56,0.67 1.23,1.01 1.9,1.01 1.35,0 3.26,-6.85 5.62,-20.77 2.47,-13.8 5.5,-20.76 9.31,-20.76 5.95,0 17.06,1.68 33.34,4.94 18.07,3.92 27.05,7.52 27.05,10.55zm-84.18 137.5c0,-26.94 -7.97,-49.95 -24.03,-69.26 -16.83,-20.76 -38.38,-31.2 -64.76,-31.2 -26.27,0 -48.16,10.33 -65.78,30.87 -16.84,19.75 -25.26,42.88 -25.26,69.59 0,26.49 8.42,49.5 25.26,69.03 17.62,20.32 39.51,30.54 65.78,30.54 25.7,0 47.14,-10.44 64.43,-31.21 16.27,-19.53 24.36,-42.2 24.36,-68.36z"/>
   </g>
   <path class="fil4" d="M3583.01 1914.23c0,14.35 -0.63,35.87 -1.88,64.45 -1.26,28.64 -1.88,50.05 -1.88,64.28 0,43.9 0.97,77.16 2.9,99.7l0.17 2.17c0.12,1.14 -1.42,1.82 -4.5,2.16 -2.16,0.23 -5.18,0.23 -9.05,0 -4.72,-0.34 -6.89,-0.51 -6.55,-0.51 -1.65,0 -4.15,0.17 -7.4,0.51 -3.19,0.34 -5.69,0.51 -7.34,0.51 -1.6,0 -2.51,-3.93 -2.79,-11.73 -0.29,-7.8 -0.74,-11.73 -1.31,-11.84 -0.69,0.34 -1.48,1.08 -2.51,2.16 -15.2,16.57 -32.74,24.83 -52.5,24.83 -22.43,0 -40.88,-8.54 -55.34,-25.68 -13.66,-16.11 -20.5,-35.59 -20.5,-58.36 0,-23.69 6.89,-43.62 20.67,-59.73 14.46,-16.91 33.31,-25.34 56.6,-25.34 14,0 26.25,4.1 36.67,12.36 4.78,4.15 9.56,8.31 14.23,12.58 0.85,-0.34 1.31,-1.14 1.31,-2.33l0 -54.09c0,-3.65 -0.17,-9.23 -0.51,-16.69 -0.34,-7.46 -0.51,-13.04 -0.51,-16.85 0,-2.68 0.91,-3.99 2.67,-3.99 4.1,0 10.25,-0.34 18.34,-1.02 8.14,-0.68 14.17,-1.03 18.16,-1.03 1.88,0 2.85,1.14 2.85,3.48zm-41.68 151.68c0,-13.32 -4.1,-25.05 -12.36,-35.13 -8.77,-10.76 -19.64,-16.17 -32.68,-16.17 -13.67,0 -24.94,5.35 -33.82,16 -8.49,10.02 -12.7,21.98 -12.7,35.98 0,13.33 4.38,24.94 13.15,34.85 9.06,10.42 20.16,15.66 33.37,15.66 13.38,0 24.37,-5.3 33.02,-15.83 8.03,-9.91 12.02,-21.69 12.02,-35.36zm212.54 -8.71c0,8.2 -3.53,13.72 -10.64,16.51 -4.84,1.77 -39.29,5.07 -103.46,9.91 1.42,9.79 6.83,18.1 16.23,24.99 8.94,6.55 18.5,9.85 28.75,9.85 17.65,0 33.82,-5.63 48.51,-16.85 1.83,-1.48 3.59,-2.9 5.36,-4.33 0.91,0 1.48,0.12 1.76,0.35 0.28,0.22 2.39,4.04 6.26,11.5 3.93,7.51 5.87,11.5 5.87,12.07 0,0.68 -0.91,1.93 -2.68,3.81 -16.34,17.25 -37.29,25.91 -62.91,25.91 -25.8,0 -46.35,-7.69 -61.73,-23.12 -15.31,-15.37 -23,-35.93 -23,-61.6 0,-22.95 7.35,-42.88 21.98,-59.9 15.49,-17.71 34.39,-26.54 56.88,-26.54 20.9,0 38.32,7.69 52.33,23.01 13.66,14.91 20.49,33.08 20.49,54.43zm-39.62 -10.14c0,-9.22 -3.65,-17.42 -10.94,-24.54 -7.28,-7.11 -15.48,-10.64 -24.65,-10.64 -10.25,0 -19.3,4.1 -27.27,12.29 -7.98,8.2 -11.96,17.43 -11.96,27.62 0,2.33 1.99,3.47 5.98,3.47 16.51,0 36.21,-1.65 59.16,-4.89 6.43,-0.91 9.68,-2 9.68,-3.31z"/>
   <path class="fil4" d="M818.29 2118.76l-0.17 2.16c-2.39,41.34 -3.59,76.87 -3.59,106.59 0,13.21 0.23,33.03 0.69,59.45 0.45,26.41 0.62,46.17 0.62,59.33 0,2.56 -0.85,3.81 -2.62,3.81l-31.88 0c-1.99,0 -3.02,-1.25 -3.02,-3.81 0,-13.16 0.12,-32.92 0.34,-59.33 0.23,-26.42 0.34,-46.24 0.34,-59.45 0,-12.01 -0.56,-30.06 -1.7,-54.15 -1.14,-24.08 -1.71,-42.02 -1.71,-53.92 0,-2.22 1.14,-3.36 3.47,-3.36 1.99,0 5.01,0.17 9,0.52 3.98,0.34 6.94,0.51 8.99,0.51 2.05,0 5.19,-0.17 9.28,-0.51 4.1,-0.35 7.12,-0.52 9.12,-0.52 1.99,0 2.96,0.91 2.84,2.68zm195.48 80.34c0,0.46 -0.18,1.42 -0.52,3.02 -4.44,25.45 -6.66,47.37 -6.66,65.82 0,1.14 1.42,26.08 4.27,74.87l0.17 2.34c0.12,3.24 -1.36,4.84 -4.44,4.84 -3.07,0 -7.69,0.34 -13.89,1.08 -6.15,0.74 -10.76,1.08 -13.78,1.08 -2.11,0 -3.7,-3.87 -4.84,-11.62 -1.14,-7.74 -2.16,-11.61 -3.19,-11.61 -0.68,0 -3.64,2.16 -9,6.49 -6.54,5.3 -12.69,9.34 -18.33,12.13 -8.82,4.44 -17.59,6.66 -26.36,6.66 -21.58,0 -39.8,-8.6 -54.61,-25.85 -14,-16.46 -21.01,-35.64 -21.01,-57.57 0,-24.65 7.06,-45.09 21.19,-61.2 14.8,-16.8 34.27,-25.17 58.41,-25.17 17.03,0 31.89,5.92 44.53,17.71 1.88,2.22 4.84,5.46 8.88,9.68 0.29,0.34 0.63,0.51 0.97,0.51 0.68,0 1.65,-3.47 2.85,-10.53 1.25,-7.01 2.79,-10.54 4.72,-10.54 3.02,0 8.66,0.86 16.91,2.51 9.17,1.99 13.73,3.81 13.73,5.35zm-42.71 69.75c0,-13.67 -4.04,-25.34 -12.18,-35.13 -8.54,-10.54 -19.48,-15.83 -32.86,-15.83 -13.32,0 -24.42,5.24 -33.36,15.66 -8.54,10.02 -12.81,21.75 -12.81,35.3 0,13.44 4.27,25.11 12.81,35.02 8.94,10.3 20.04,15.48 33.36,15.48 13.04,0 23.92,-5.29 32.69,-15.83 8.25,-9.9 12.35,-21.4 12.35,-34.67z"/>
   <polygon class="fil1" points="851.38,1279.85 4020.84,1279.85 4020.84,1342.82 851.38,1342.82 "/>
   <g>
    <path class="fil5" d="M1384.8 2842.44c0,4.71 -2.03,7.88 -6.12,9.49 -2.78,1.01 -22.56,2.91 -59.41,5.68 0.82,5.63 3.92,10.4 9.32,14.36 5.13,3.76 10.62,5.66 16.51,5.66 10.14,0 19.42,-3.24 27.86,-9.68 1.05,-0.85 2.06,-1.67 3.07,-2.49 0.53,0 0.85,0.07 1.02,0.2 0.16,0.13 1.37,2.32 3.59,6.6 2.26,4.32 3.37,6.61 3.37,6.94 0,0.39 -0.52,1.11 -1.54,2.19 -9.38,9.9 -21.41,14.87 -36.13,14.87 -14.81,0 -26.61,-4.41 -35.44,-13.27 -8.8,-8.83 -13.21,-20.63 -13.21,-35.38 0,-13.18 4.22,-24.62 12.62,-34.4 8.89,-10.17 19.75,-15.24 32.66,-15.24 12.01,0 22.01,4.42 30.05,13.21 7.85,8.57 11.78,19 11.78,31.26zm-22.76 -5.82c0,-5.29 -2.09,-10 -6.28,-14.09 -4.19,-4.09 -8.89,-6.12 -14.16,-6.12 -5.88,0 -11.08,2.36 -15.66,7.07 -4.58,4.71 -6.87,10 -6.87,15.86 0,1.34 1.15,1.99 3.44,1.99 9.48,0 20.79,-0.95 33.97,-2.81 3.69,-0.52 5.56,-1.15 5.56,-1.9zm128.3 -76.28c0,8.24 -0.36,20.6 -1.08,37.01 -0.72,16.45 -1.08,28.74 -1.08,36.92 0,25.21 0.56,44.3 1.67,57.25l0.1 1.25c0.07,0.65 -0.82,1.04 -2.58,1.24 -1.25,0.13 -2.98,0.13 -5.2,0 -2.72,-0.2 -3.96,-0.3 -3.76,-0.3 -0.95,0 -2.39,0.1 -4.25,0.3 -1.83,0.19 -3.27,0.29 -4.22,0.29 -0.92,0 -1.44,-2.25 -1.6,-6.73 -0.17,-4.48 -0.43,-6.74 -0.76,-6.8 -0.39,0.19 -0.85,0.62 -1.43,1.24 -8.73,9.51 -18.81,14.25 -30.15,14.25 -12.89,0 -23.48,-4.9 -31.78,-14.74 -7.85,-9.26 -11.78,-20.44 -11.78,-33.52 0,-13.6 3.96,-25.05 11.87,-34.3 8.31,-9.71 19.13,-14.55 32.51,-14.55 8.04,0 15.07,2.35 21.05,7.1 2.75,2.38 5.5,4.77 8.18,7.22 0.49,-0.19 0.75,-0.65 0.75,-1.34l0 -31.06c0,-2.09 -0.1,-5.3 -0.29,-9.58 -0.2,-4.29 -0.3,-7.49 -0.3,-9.68 0,-1.54 0.52,-2.29 1.54,-2.29 2.35,0 5.88,-0.2 10.53,-0.59 4.67,-0.39 8.14,-0.59 10.43,-0.59 1.08,0 1.63,0.66 1.63,2zm-23.93 87.11c0,-7.66 -2.36,-14.39 -7.1,-20.18 -5.03,-6.18 -11.28,-9.29 -18.77,-9.29 -7.84,0 -14.32,3.08 -19.42,9.19 -4.87,5.76 -7.29,12.62 -7.29,20.67 0,7.65 2.52,14.32 7.55,20.01 5.2,5.98 11.58,8.99 19.16,8.99 7.69,0 14,-3.04 18.97,-9.09 4.61,-5.69 6.9,-12.46 6.9,-20.3zm65.95 -68.11c0,7.84 -4.39,11.77 -13.15,11.77 -8.89,0 -13.34,-3.93 -13.34,-11.77 0,-3.5 1.37,-6.41 4.12,-8.7 2.55,-2.19 5.62,-3.27 9.22,-3.27 3.57,0 6.67,1.11 9.25,3.33 2.59,2.26 3.9,5.14 3.9,8.64zm-0.79 25.96c0,4.9 -0.29,12.32 -0.88,22.27 -0.59,9.94 -0.88,17.39 -0.88,22.36 0,4.68 0.09,11.64 0.29,20.93 0.2,9.28 0.29,16.25 0.29,20.83 0,1.34 -0.58,2.02 -1.73,2.02l-18.7 0c-1.34,0 -2.03,-1.3 -2.03,-3.92 0,-4.41 0.13,-11.05 0.36,-19.88 0.23,-8.86 0.33,-15.5 0.33,-19.98 0,-4.97 -0.36,-12.46 -1.08,-22.43 -0.72,-9.94 -1.08,-17.43 -1.08,-22.4 0,-1.08 0.65,-1.63 1.99,-1.63 1.15,0 2.91,0.16 5.3,0.49 2.39,0.29 4.19,0.45 5.4,0.45 1.21,0 3,-0.16 5.39,-0.45 2.39,-0.33 4.19,-0.49 5.4,-0.49 1.07,0 1.63,0.62 1.63,1.83zm85.96 1.7c0,1.4 -0.72,4.54 -2.19,9.38 -1.47,4.87 -2.52,7.29 -3.07,7.29 -2.88,-1.27 -5.79,-2.51 -8.7,-3.79 -2.91,-1.27 -6.08,-1.9 -9.52,-1.9 -7.88,0 -14.42,2.91 -19.68,8.7 -5.23,5.82 -7.85,12.69 -7.85,20.57 0,7.78 2.62,14.52 7.85,20.21 5.36,5.85 11.93,8.79 19.65,8.79 4.28,0 8.5,-1.04 12.65,-3.14 4.16,-2.09 5.99,-3.14 5.47,-3.14 0.81,0 1.76,2.69 2.77,8.05 0.95,4.84 1.44,8.17 1.44,10.04 0,1.96 -3.72,3.89 -11.21,5.82 -6.28,1.6 -10.89,2.38 -13.9,2.38 -13.18,0 -24.29,-4.9 -33.35,-14.74 -8.9,-9.58 -13.34,-21.03 -13.34,-34.3 0,-13.54 4.35,-25.05 13.04,-34.5 8.96,-9.71 20.11,-14.55 33.45,-14.55 8.96,0 17.17,2.26 24.56,6.8 1.28,0.79 1.93,1.44 1.93,2.03zm36.86 -27.66c0,7.84 -4.39,11.77 -13.15,11.77 -8.89,0 -13.34,-3.93 -13.34,-11.77 0,-3.5 1.37,-6.41 4.12,-8.7 2.55,-2.19 5.62,-3.27 9.22,-3.27 3.57,0 6.67,1.11 9.25,3.33 2.59,2.26 3.9,5.14 3.9,8.64zm-0.79 25.96c0,4.9 -0.29,12.32 -0.88,22.27 -0.59,9.94 -0.88,17.39 -0.88,22.36 0,4.68 0.09,11.64 0.29,20.93 0.2,9.28 0.29,16.25 0.29,20.83 0,1.34 -0.58,2.02 -1.73,2.02l-18.7 0c-1.34,0 -2.03,-1.3 -2.03,-3.92 0,-4.41 0.13,-11.05 0.36,-19.88 0.23,-8.86 0.33,-15.5 0.33,-19.98 0,-4.97 -0.36,-12.46 -1.08,-22.43 -0.72,-9.94 -1.08,-17.43 -1.08,-22.4 0,-1.08 0.65,-1.63 1.99,-1.63 1.15,0 2.91,0.16 5.3,0.49 2.39,0.29 4.19,0.45 5.4,0.45 1.21,0 3,-0.16 5.39,-0.45 2.39,-0.33 4.19,-0.49 5.4,-0.49 1.07,0 1.63,0.62 1.63,1.83zm105.78 41.92c0,13.34 -4.39,24.75 -13.12,34.2 -8.96,9.78 -20.01,14.65 -33.22,14.65 -13.31,0 -24.39,-4.84 -33.35,-14.55 -8.73,-9.39 -13.11,-20.77 -13.11,-34.11 0,-13.34 4.38,-24.72 13.11,-34.1 9.02,-9.58 20.11,-14.36 33.35,-14.36 13.15,0 24.17,4.78 33.13,14.36 8.79,9.32 13.21,20.63 13.21,33.91zm-20.21 0.19c0,-7.78 -2.39,-14.42 -7.2,-19.91 -4.97,-5.82 -11.28,-8.73 -18.93,-8.73 -7.68,0 -14.03,2.88 -19.06,8.63 -4.81,5.56 -7.19,12.23 -7.19,20.01 0,7.65 2.41,14.32 7.29,19.92 5.1,5.95 11.41,8.92 18.96,8.92 7.59,0 13.9,-2.97 18.93,-8.92 4.81,-5.6 7.2,-12.27 7.2,-19.92zm3.33 -80.14c-0.95,2.62 -8.01,7.49 -21.15,14.55 -12.85,6.96 -20.8,10.46 -23.87,10.46 -1.18,0 -2.19,-1.6 -3.04,-4.77 -0.66,-2.49 -0.98,-4.61 -0.98,-6.31 0,-0.66 0.62,-1.24 1.83,-1.83 10.59,-5.23 21.54,-12.13 32.92,-20.77 0.27,-0.22 0.72,-0.52 1.44,-0.85 0.33,0.13 0.72,0.43 1.25,0.85 2.71,2.29 6.24,4.78 10.56,7.43 0.32,0.19 0.65,0.62 1.04,1.24zm114.81 124.71c0,1.41 -0.65,2.13 -1.93,2.13 -2.09,0 -5.26,-0.04 -9.45,-0.1 -4.18,-0.07 -7.32,-0.1 -9.45,-0.1 -1.14,0 -1.73,-0.92 -1.73,-2.78 0,-3.14 0.1,-7.88 0.29,-14.29 0.2,-6.37 0.3,-11.18 0.3,-14.35 0,-2.59 -0.03,-6.38 -0.1,-11.48 -0.07,-5.07 -0.1,-8.89 -0.1,-11.44 0,-7.3 -1.04,-12.43 -3.14,-15.44 -2.58,-3.56 -7.29,-5.36 -14.19,-5.36 -3.17,0 -7.62,1.8 -13.31,5.39 -5.98,3.76 -8.99,7.13 -8.99,10.08l0 57.48c0,1.57 -0.62,2.39 -1.83,2.39 -2.03,0 -5.1,-0.04 -9.19,-0.1 -4.12,-0.07 -7.16,-0.1 -9.22,-0.1 -1.34,0 -2.03,-0.72 -2.03,-2.19 0,-5.07 0.1,-12.62 0.27,-22.73 0.16,-10.1 0.22,-17.69 0.22,-22.82 0,-13.6 -1.4,-26.16 -4.21,-37.64 -0.2,-0.58 -0.3,-1.01 -0.3,-1.24 0,-0.65 0.43,-1.11 1.24,-1.37 0.46,-0.03 4.09,-0.66 10.96,-1.77 6.87,-1.11 10.46,-1.66 10.79,-1.66 0.36,0 0.62,0.52 0.75,1.53 0.33,3.96 1.05,7.98 2.19,12 3.34,-2.61 7.72,-5.88 13.11,-9.77 6.71,-4.09 13.21,-6.12 19.46,-6.12 12,0 20.21,3.47 24.59,10.43 3.27,5.14 4.9,13.38 4.9,24.82 0,1.99 -0.06,5 -0.16,9.09 -0.1,4.09 -0.13,7.16 -0.13,9.22 0,4.25 0.06,10.66 0.2,19.13 0.13,8.5 0.19,14.91 0.19,19.16zm150.88 -1.44c0,2.39 -0.69,3.57 -2.03,3.57 -1.96,0 -4.97,-0.04 -9.03,-0.1 -4.02,-0.07 -7.03,-0.1 -8.99,-0.1 -1.6,0 -2.42,-1.05 -2.42,-3.17 0,-3.08 0.13,-7.69 0.36,-13.9 0.23,-6.18 0.33,-10.85 0.33,-13.99 0,-2.95 -0.1,-7.39 -0.33,-13.38 -0.23,-5.95 -0.36,-10.46 -0.36,-13.44 0,-11.51 -5.39,-17.26 -16.25,-17.26 -3.53,0 -8.11,1.76 -13.8,5.26 -6.05,3.76 -9.09,7.23 -9.09,10.37l0 56.93c0,1.83 -0.65,2.78 -1.99,2.78 -2,0 -4.94,-0.04 -8.9,-0.1 -3.95,-0.07 -6.9,-0.1 -8.89,-0.1 -1.47,0 -2.19,-0.85 -2.19,-2.58l0 -46.27c0,-7.52 -0.43,-23.58 -1.28,-48.07 -0.13,-7.62 -0.68,-18.86 -1.66,-33.74 -0.13,-0.75 -0.2,-1.28 -0.2,-1.54 0,-1.08 0.39,-1.73 1.14,-1.99 1.08,-0.36 4.71,-0.56 10.83,-0.56 1.34,0 3.37,-0.23 6.05,-0.72 2.68,-0.46 4.64,-0.69 5.85,-0.69 0.82,0 1.24,0.63 1.24,1.84 0,5.98 -0.23,15.04 -0.68,27.07 -0.46,12.03 -0.66,21.09 -0.66,27.07 0,1.48 0.23,2.26 0.75,2.33 3.27,-2.78 7.46,-6.12 12.63,-10.04 6.24,-3.93 12.85,-5.89 19.81,-5.89 11.97,0 20.24,3.57 24.79,10.73 3.23,5.23 4.87,13.53 4.87,24.91 0,1.96 -0.07,5.04 -0.17,9.16 -0.09,4.12 -0.13,7.16 -0.13,9.12 0,4.09 0.07,10.2 0.2,18.31 0.13,8.11 0.2,14.16 0.2,18.18zm43.36 -111.2c0,7.84 -4.39,11.77 -13.15,11.77 -8.89,0 -13.34,-3.93 -13.34,-11.77 0,-3.5 1.37,-6.41 4.12,-8.7 2.55,-2.19 5.62,-3.27 9.22,-3.27 3.57,0 6.67,1.11 9.25,3.33 2.59,2.26 3.9,5.14 3.9,8.64zm-0.79 25.96c0,4.9 -0.29,12.32 -0.88,22.27 -0.59,9.94 -0.88,17.39 -0.88,22.36 0,4.68 0.09,11.64 0.29,20.93 0.2,9.28 0.29,16.25 0.29,20.83 0,1.34 -0.58,2.02 -1.73,2.02l-18.7 0c-1.34,0 -2.03,-1.3 -2.03,-3.92 0,-4.41 0.13,-11.05 0.36,-19.88 0.23,-8.86 0.33,-15.5 0.33,-19.98 0,-4.97 -0.36,-12.46 -1.08,-22.43 -0.72,-9.94 -1.08,-17.43 -1.08,-22.4 0,-1.08 0.65,-1.63 1.99,-1.63 1.15,0 2.91,0.16 5.3,0.49 2.39,0.29 4.19,0.45 5.4,0.45 1.21,0 3,-0.16 5.39,-0.45 2.39,-0.33 4.19,-0.49 5.4,-0.49 1.07,0 1.63,0.62 1.63,1.83zm100.09 37.14c0,4.71 -2.03,7.88 -6.12,9.49 -2.78,1.01 -22.56,2.91 -59.41,5.68 0.82,5.63 3.92,10.4 9.32,14.36 5.13,3.76 10.62,5.66 16.51,5.66 10.14,0 19.42,-3.24 27.86,-9.68 1.05,-0.85 2.06,-1.67 3.07,-2.49 0.53,0 0.85,0.07 1.02,0.2 0.16,0.13 1.37,2.32 3.59,6.6 2.26,4.32 3.37,6.61 3.37,6.94 0,0.39 -0.52,1.11 -1.54,2.19 -9.38,9.9 -21.41,14.87 -36.13,14.87 -14.81,0 -26.61,-4.41 -35.44,-13.27 -8.8,-8.83 -13.21,-20.63 -13.21,-35.38 0,-13.18 4.22,-24.62 12.62,-34.4 8.89,-10.17 19.75,-15.24 32.66,-15.24 12.01,0 22.01,4.42 30.05,13.21 7.85,8.57 11.78,19 11.78,31.26zm-22.76 -5.82c0,-5.29 -2.09,-10 -6.28,-14.09 -4.19,-4.09 -8.89,-6.12 -14.16,-6.12 -5.88,0 -11.08,2.36 -15.66,7.07 -4.58,4.71 -6.87,10 -6.87,15.86 0,1.34 1.15,1.99 3.44,1.99 9.48,0 20.79,-0.95 33.97,-2.81 3.69,-0.52 5.56,-1.15 5.56,-1.9zm91.03 -32.7c0,7.03 -0.49,13.44 -1.44,19.2 -0.2,1.47 -0.85,2.19 -1.93,2.19 -1.34,0 -3.37,-0.13 -6.08,-0.43 -2.75,-0.29 -4.81,-0.42 -6.22,-0.42 -8.07,0 -13.24,2.25 -15.46,6.8 -1.34,2.75 -2.03,8.47 -2.03,17.13l0 10.57c0,3.56 0.13,8.99 0.39,16.28 0.26,7.26 0.4,12.69 0.4,16.28 0,1.7 -0.72,2.59 -2.2,2.59 -1.96,0 -4.93,-0.04 -8.92,-0.1 -3.99,-0.07 -7,-0.1 -8.96,-0.1 -1.44,0 -2.19,-0.78 -2.19,-2.39 0,-5.16 0.1,-12.98 0.26,-23.38 0.16,-10.39 0.23,-18.24 0.23,-23.47 0,-15.76 -1.44,-28.45 -4.32,-38.03 -0.13,-0.53 -0.19,-0.88 -0.19,-1.15 0,-0.78 0.42,-1.3 1.24,-1.63 2.32,-0.26 5.62,-0.66 9.87,-1.18 6.84,-1.31 10.01,-1.96 9.49,-1.96 1.01,0 1.7,1.9 1.99,5.69 0.33,3.82 0.92,5.72 1.73,5.72 0.13,0 0.3,-0.06 0.49,-0.19 2.62,-1.67 5.24,-3.34 7.88,-5.04 2.88,-1.73 5.82,-3.01 8.87,-3.86 2.48,-0.75 5.68,-1.14 9.61,-1.14 5,0 7.49,0.68 7.49,2.02zm105.55 43.72c0,12.66 -3.93,23.68 -11.78,33.09 -8.37,9.98 -18.76,14.95 -31.22,14.95 -8.31,0 -15.6,-2.13 -21.94,-6.35 -2.55,-2.19 -5.1,-4.35 -7.65,-6.47 -0.69,0.19 -1.15,2.12 -1.38,5.79 -0.23,3.63 -0.75,5.46 -1.57,5.46l-20.24 0c-0.75,0 -1.14,-0.43 -1.14,-1.25 0,0.07 0.06,-0.52 0.19,-1.73 1.05,-10.2 1.57,-29.75 1.57,-58.63 0,-11.8 -0.52,-29.16 -1.57,-52.02 -0.65,-14.55 -0.98,-20.96 -0.98,-19.16 0,-1.67 0.82,-2.58 2.49,-2.78 2.32,-0.07 5.72,-0.2 10.27,-0.36 0.88,-0.07 2.71,-0.3 5.46,-0.65 2.28,-0.36 4.15,-0.56 5.55,-0.56 1.02,0 1.54,0.72 1.54,2.19 0,2.19 -0.16,5.49 -0.46,9.94 -0.32,4.48 -0.45,7.82 -0.45,10.04 0,3.33 -0.17,8.3 -0.43,14.97 -0.29,6.68 -0.42,11.65 -0.42,14.98 0,2.42 0.45,3.63 1.34,3.63 0.45,0 0.91,-0.36 1.43,-1.05 7,-8.73 16.29,-13.11 27.83,-13.11 13.21,0 23.9,4.94 32.08,14.85 7.65,9.35 11.48,20.76 11.48,34.23zm-21.59 -0.88c0,-7.59 -2.38,-14.29 -7.19,-20.08 -5.1,-6.18 -11.38,-9.28 -18.87,-9.28 -7.65,0 -14.02,3.04 -19.12,9.09 -4.94,5.75 -7.39,12.49 -7.39,20.27 0,7.91 2.45,14.75 7.39,20.5 5.1,5.98 11.54,8.99 19.32,8.99 7.55,0 13.83,-3.1 18.87,-9.28 4.67,-5.76 6.99,-12.46 6.99,-20.21zm128.54 -39.57c0,0.27 -0.1,0.82 -0.29,1.74 -2.56,14.61 -3.83,27.2 -3.83,37.8 0,0.65 0.82,14.97 2.45,42.99l0.1 1.35c0.07,1.86 -0.78,2.77 -2.55,2.77 -1.77,0 -4.41,0.2 -7.98,0.63 -3.53,0.42 -6.18,0.62 -7.91,0.62 -1.21,0 -2.13,-2.23 -2.78,-6.67 -0.65,-4.45 -1.24,-6.67 -1.83,-6.67 -0.39,0 -2.09,1.24 -5.17,3.72 -3.76,3.04 -7.29,5.37 -10.53,6.97 -5.07,2.55 -10.1,3.82 -15.14,3.82 -12.39,0 -22.85,-4.93 -31.35,-14.84 -8.05,-9.45 -12.07,-20.47 -12.07,-33.06 0,-14.16 4.05,-25.9 12.16,-35.15 8.51,-9.65 19.69,-14.45 33.55,-14.45 9.78,0 18.31,3.4 25.57,10.17 1.08,1.27 2.78,3.14 5.1,5.56 0.17,0.19 0.36,0.29 0.56,0.29 0.39,0 0.95,-1.99 1.63,-6.05 0.72,-4.02 1.61,-6.05 2.72,-6.05 1.73,0 4.97,0.49 9.71,1.44 5.26,1.14 7.88,2.19 7.88,3.07zm-24.52 40.06c0,-7.85 -2.33,-14.55 -7,-20.18 -4.91,-6.04 -11.18,-9.09 -18.87,-9.09 -7.65,0 -14.03,3.01 -19.16,9 -4.9,5.75 -7.36,12.49 -7.36,20.27 0,7.72 2.46,14.42 7.36,20.11 5.13,5.92 11.51,8.89 19.16,8.89 7.49,0 13.73,-3.04 18.77,-9.09 4.74,-5.69 7.1,-12.29 7.1,-19.91zm84.78 17.1c0,9.52 -3.79,17.13 -11.41,22.89 -6.93,5.23 -15.34,7.85 -25.28,7.85 -3.82,0 -6.01,-0.1 -6.54,-0.3 -1.08,-0.49 -1.63,-2.06 -1.63,-4.67 0,-1.41 -0.16,-3.5 -0.52,-6.31 -0.36,-2.82 -0.53,-4.88 -0.53,-6.22 0,-0.81 0.59,-1.37 1.74,-1.63 0.81,-0.2 1.99,-0.2 3.53,0 1.99,0.19 2.94,0.29 2.87,0.29 12.1,0 18.15,-3.72 18.15,-11.15 0,-3.5 -2.65,-6.7 -7.91,-9.64 -8.57,-4.74 -13.51,-7.62 -14.78,-8.73 -5.27,-4.52 -7.91,-10.47 -7.91,-17.79 0,-9.58 3.63,-17.04 10.85,-22.4 6.54,-4.81 14.78,-7.19 24.79,-7.19 0.88,0 1.53,0.42 1.96,1.24 0.42,0.85 1.21,3.43 2.42,7.78 1.18,4.35 1.76,6.97 1.76,7.88 0,0.69 -0.62,1.15 -1.83,1.34 -4.08,0.56 -8.2,1.11 -12.36,1.6 -4.93,1.34 -7.39,4.03 -7.39,8.02 0,2.87 2.59,5.78 7.72,8.73 7.62,4.25 12.46,7.35 14.49,9.28 5.19,4.97 7.81,11.35 7.81,19.13zm143.58 -37.08c0,10.82 -0.32,17.33 -0.98,19.59 -0.81,2.84 -8.73,15.4 -23.74,37.57 -15,22.2 -23.9,34.59 -26.71,37.24 -2.55,2.29 -10.79,3.43 -24.75,3.43 -1.67,0 -2.72,-0.16 -3.21,-0.52 -0.46,-0.36 -1.53,-2.68 -3.24,-6.96 -1.66,-4.29 -2.51,-6.84 -2.51,-7.66 0,-1.43 1.7,-2.12 5.1,-2.12 7.16,0 12.42,-1.01 15.82,-3.04 1.15,-0.72 2.91,-2.91 5.24,-6.61 2.32,-3.66 3.49,-6.14 3.49,-7.42 0,-1.73 -4.61,-8.47 -13.86,-20.24 -9.78,-12.46 -15.24,-20.37 -16.38,-23.67 -0.92,-2.65 -1.37,-8.9 -1.37,-18.8 0,-2.46 0.03,-6.12 0.09,-10.99 0.07,-4.91 0.1,-8.6 0.1,-11.09 0,-1.4 0.75,-2.09 2.29,-2.09 2.06,0 5.07,0.1 9.09,0.36 3.99,0.26 7,0.39 9.06,0.39 1.01,0 1.53,0.69 1.53,2.03 0,1.77 -0.09,4.45 -0.29,8.04 -0.2,3.57 -0.29,6.28 -0.29,8.05 0,7.81 0.26,13.63 0.75,17.46 0.39,2.45 3.86,8.5 10.43,18.21 6.57,9.68 10.63,14.52 12.16,14.52 1.08,0 4.55,-4.74 10.34,-14.29 5.82,-9.51 8.92,-15.43 9.31,-17.66 0.49,-3.2 0.76,-9.02 0.76,-17.46 0,-1.86 -0.2,-4.57 -0.59,-8.2 -0.39,-3.6 -0.59,-6.31 -0.59,-8.11 0,-1.61 0.52,-2.39 1.54,-2.39 2.06,0 5.13,-0.13 9.25,-0.43 4.15,-0.29 7.23,-0.42 9.29,-0.42 1.93,0 2.87,7.75 2.87,23.28zm142.84 15.17c0,4.71 -2.03,7.88 -6.12,9.49 -2.78,1.01 -22.56,2.91 -59.41,5.68 0.82,5.63 3.92,10.4 9.32,14.36 5.13,3.76 10.62,5.66 16.51,5.66 10.14,0 19.42,-3.24 27.86,-9.68 1.05,-0.85 2.06,-1.67 3.07,-2.49 0.53,0 0.85,0.07 1.02,0.2 0.16,0.13 1.37,2.32 3.59,6.6 2.26,4.32 3.37,6.61 3.37,6.94 0,0.39 -0.52,1.11 -1.54,2.19 -9.38,9.9 -21.41,14.87 -36.13,14.87 -14.81,0 -26.61,-4.41 -35.44,-13.27 -8.8,-8.83 -13.21,-20.63 -13.21,-35.38 0,-13.18 4.22,-24.62 12.62,-34.4 8.89,-10.17 19.75,-15.24 32.66,-15.24 12.01,0 22.01,4.42 30.05,13.21 7.85,8.57 11.78,19 11.78,31.26zm-22.76 -5.82c0,-5.29 -2.09,-10 -6.28,-14.09 -4.19,-4.09 -8.89,-6.12 -14.16,-6.12 -5.88,0 -11.08,2.36 -15.66,7.07 -4.58,4.71 -6.87,10 -6.87,15.86 0,1.34 1.15,1.99 3.44,1.99 9.48,0 20.79,-0.95 33.97,-2.81 3.69,-0.52 5.56,-1.15 5.56,-1.9zm81.02 27.73c0,9.52 -3.79,17.13 -11.41,22.89 -6.93,5.23 -15.34,7.85 -25.28,7.85 -3.82,0 -6.01,-0.1 -6.54,-0.3 -1.08,-0.49 -1.63,-2.06 -1.63,-4.67 0,-1.41 -0.16,-3.5 -0.52,-6.31 -0.36,-2.82 -0.53,-4.88 -0.53,-6.22 0,-0.81 0.59,-1.37 1.74,-1.63 0.81,-0.2 1.99,-0.2 3.53,0 1.99,0.19 2.94,0.29 2.87,0.29 12.1,0 18.15,-3.72 18.15,-11.15 0,-3.5 -2.65,-6.7 -7.91,-9.64 -8.57,-4.74 -13.51,-7.62 -14.78,-8.73 -5.27,-4.52 -7.91,-10.47 -7.91,-17.79 0,-9.58 3.63,-17.04 10.85,-22.4 6.54,-4.81 14.78,-7.19 24.79,-7.19 0.88,0 1.53,0.42 1.96,1.24 0.42,0.85 1.21,3.43 2.42,7.78 1.18,4.35 1.76,6.97 1.76,7.88 0,0.69 -0.62,1.15 -1.83,1.34 -4.08,0.56 -8.2,1.11 -12.36,1.6 -4.93,1.34 -7.39,4.03 -7.39,8.02 0,2.87 2.59,5.78 7.72,8.73 7.62,4.25 12.46,7.35 14.49,9.28 5.19,4.97 7.81,11.35 7.81,19.13zm109.64 -16.54c0,12.91 -4.09,24.09 -12.26,33.61 -8.57,10.04 -19.2,15.04 -31.92,15.04 -7.91,0 -14.84,-2.45 -20.76,-7.36 -2.68,-2.48 -5.36,-5 -8.08,-7.55 -0.35,0.2 -0.62,0.69 -0.75,1.54 -0.06,0.39 -0.1,3.95 -0.1,10.72l-0.09 27.04c0,2.06 -0.72,3.08 -2.19,3.08 -9.81,0 -15.6,-0.13 -17.37,-0.4 -1.47,-0.19 -2.22,-1.01 -2.22,-2.48 0,-8.17 0.06,-20.44 0.2,-36.82 0.13,-16.35 0.19,-28.61 0.19,-36.78 0,-15.05 -0.98,-29.14 -2.94,-42.28 -0.13,-0.79 -0.2,-1.28 -0.2,-1.54 0,-0.69 0.33,-1.14 0.95,-1.34 2.45,-0.13 5.98,-0.49 10.66,-1.05 6.25,-1.14 9.78,-1.7 10.53,-1.7 1.11,0 1.8,1.93 2.13,5.79 0.19,2.58 0.35,5.1 0.45,7.62 0,0.52 0.2,1.05 0.59,1.54 0.46,-0.23 0.95,-0.69 1.54,-1.34 8.92,-9.19 17.98,-13.8 27.11,-13.8 12.65,0 23.31,4.93 31.97,14.84 8.37,9.52 12.56,20.73 12.56,33.62zm-22.37 -0.33c0,-7.69 -2.38,-14.39 -7.19,-20.21 -5.03,-6.18 -11.35,-9.29 -18.9,-9.29 -7.39,0 -13.47,3.21 -18.21,9.59 -4.35,5.72 -6.51,12.42 -6.51,20.07 0,7.82 2.22,14.55 6.7,20.31 4.94,6.18 11.19,9.28 18.81,9.28 7.29,0 13.4,-3.23 18.41,-9.67 4.61,-5.99 6.89,-12.69 6.89,-20.08z"/>
    <path class="fil5" d="M3042.14 2842.44c0,4.71 -2.03,7.88 -6.12,9.49 -2.78,1.01 -22.56,2.91 -59.41,5.68 0.82,5.63 3.92,10.4 9.32,14.36 5.13,3.76 10.62,5.66 16.51,5.66 10.14,0 19.42,-3.24 27.86,-9.68 1.05,-0.85 2.06,-1.67 3.07,-2.49 0.53,0 0.85,0.07 1.02,0.2 0.16,0.13 1.37,2.32 3.59,6.6 2.26,4.32 3.37,6.61 3.37,6.94 0,0.39 -0.52,1.11 -1.54,2.19 -9.38,9.9 -21.41,14.87 -36.13,14.87 -14.81,0 -26.61,-4.41 -35.44,-13.27 -8.8,-8.83 -13.21,-20.63 -13.21,-35.38 0,-13.18 4.22,-24.62 12.62,-34.4 8.89,-10.17 19.75,-15.24 32.66,-15.24 12.01,0 22.01,4.42 30.05,13.21 7.85,8.57 11.78,19 11.78,31.26zm-22.76 -5.82c0,-5.29 -2.09,-10 -6.28,-14.09 -4.19,-4.09 -8.89,-6.12 -14.16,-6.12 -5.88,0 -11.08,2.36 -15.66,7.07 -4.58,4.71 -6.87,10 -6.87,15.86 0,1.34 1.15,1.99 3.44,1.99 9.48,0 20.79,-0.95 33.97,-2.81 3.69,-0.52 5.56,-1.15 5.56,-1.9zm103.19 -29.62c0,1.4 -0.72,4.54 -2.19,9.38 -1.47,4.87 -2.52,7.29 -3.07,7.29 -2.88,-1.27 -5.79,-2.51 -8.7,-3.79 -2.91,-1.27 -6.08,-1.9 -9.52,-1.9 -7.88,0 -14.42,2.91 -19.68,8.7 -5.23,5.82 -7.85,12.69 -7.85,20.57 0,7.78 2.62,14.52 7.85,20.21 5.36,5.85 11.93,8.79 19.65,8.79 4.28,0 8.5,-1.04 12.65,-3.14 4.16,-2.09 5.99,-3.14 5.47,-3.14 0.81,0 1.76,2.69 2.77,8.05 0.95,4.84 1.44,8.17 1.44,10.04 0,1.96 -3.72,3.89 -11.21,5.82 -6.28,1.6 -10.89,2.38 -13.9,2.38 -13.18,0 -24.29,-4.9 -33.35,-14.74 -8.9,-9.58 -13.34,-21.03 -13.34,-34.3 0,-13.54 4.35,-25.05 13.04,-34.5 8.96,-9.71 20.11,-14.55 33.45,-14.55 8.96,0 17.17,2.26 24.56,6.8 1.28,0.79 1.93,1.44 1.93,2.03zm36.86 -27.66c0,7.84 -4.39,11.77 -13.15,11.77 -8.89,0 -13.34,-3.93 -13.34,-11.77 0,-3.5 1.37,-6.41 4.12,-8.7 2.55,-2.19 5.62,-3.27 9.22,-3.27 3.57,0 6.67,1.11 9.25,3.33 2.59,2.26 3.9,5.14 3.9,8.64zm-0.79 25.96c0,4.9 -0.29,12.32 -0.88,22.27 -0.59,9.94 -0.88,17.39 -0.88,22.36 0,4.68 0.09,11.64 0.29,20.93 0.2,9.28 0.29,16.25 0.29,20.83 0,1.34 -0.58,2.02 -1.73,2.02l-18.7 0c-1.34,0 -2.03,-1.3 -2.03,-3.92 0,-4.41 0.13,-11.05 0.36,-19.88 0.23,-8.86 0.33,-15.5 0.33,-19.98 0,-4.97 -0.36,-12.46 -1.08,-22.43 -0.72,-9.94 -1.08,-17.43 -1.08,-22.4 0,-1.08 0.65,-1.63 1.99,-1.63 1.15,0 2.91,0.16 5.3,0.49 2.39,0.29 4.19,0.45 5.4,0.45 1.21,0 3,-0.16 5.39,-0.45 2.39,-0.33 4.19,-0.49 5.4,-0.49 1.07,0 1.63,0.62 1.63,1.83zm112.25 1.89c0,0.27 -0.1,0.82 -0.29,1.74 -2.56,14.61 -3.83,27.2 -3.83,37.8 0,0.65 0.82,14.97 2.45,42.99l0.1 1.35c0.07,1.86 -0.78,2.77 -2.55,2.77 -1.77,0 -4.41,0.2 -7.98,0.63 -3.53,0.42 -6.18,0.62 -7.91,0.62 -1.21,0 -2.13,-2.23 -2.78,-6.67 -0.65,-4.45 -1.24,-6.67 -1.83,-6.67 -0.39,0 -2.09,1.24 -5.17,3.72 -3.76,3.04 -7.29,5.37 -10.53,6.97 -5.07,2.55 -10.1,3.82 -15.14,3.82 -12.39,0 -22.85,-4.93 -31.35,-14.84 -8.05,-9.45 -12.07,-20.47 -12.07,-33.06 0,-14.16 4.05,-25.9 12.16,-35.15 8.51,-9.65 19.69,-14.45 33.55,-14.45 9.78,0 18.31,3.4 25.57,10.17 1.08,1.27 2.78,3.14 5.1,5.56 0.17,0.19 0.36,0.29 0.56,0.29 0.39,0 0.95,-1.99 1.63,-6.05 0.72,-4.02 1.61,-6.05 2.72,-6.05 1.73,0 4.97,0.49 9.71,1.44 5.26,1.14 7.88,2.19 7.88,3.07zm-24.52 40.06c0,-7.85 -2.33,-14.55 -7,-20.18 -4.91,-6.04 -11.18,-9.09 -18.87,-9.09 -7.65,0 -14.03,3.01 -19.16,9 -4.9,5.75 -7.36,12.49 -7.36,20.27 0,7.72 2.46,14.42 7.36,20.11 5.13,5.92 11.51,8.89 19.16,8.89 7.49,0 13.73,-3.04 18.77,-9.09 4.74,-5.69 7.1,-12.29 7.1,-19.91zm84.78 17.1c0,9.52 -3.79,17.13 -11.41,22.89 -6.93,5.23 -15.34,7.85 -25.28,7.85 -3.82,0 -6.01,-0.1 -6.54,-0.3 -1.08,-0.49 -1.63,-2.06 -1.63,-4.67 0,-1.41 -0.16,-3.5 -0.52,-6.31 -0.36,-2.82 -0.53,-4.88 -0.53,-6.22 0,-0.81 0.59,-1.37 1.74,-1.63 0.81,-0.2 1.99,-0.2 3.53,0 1.99,0.19 2.94,0.29 2.87,0.29 12.1,0 18.15,-3.72 18.15,-11.15 0,-3.5 -2.65,-6.7 -7.91,-9.64 -8.57,-4.74 -13.51,-7.62 -14.78,-8.73 -5.27,-4.52 -7.91,-10.47 -7.91,-17.79 0,-9.58 3.63,-17.04 10.85,-22.4 6.54,-4.81 14.78,-7.19 24.79,-7.19 0.88,0 1.53,0.42 1.96,1.24 0.42,0.85 1.21,3.43 2.42,7.78 1.18,4.35 1.76,6.97 1.76,7.88 0,0.69 -0.62,1.15 -1.83,1.34 -4.08,0.56 -8.2,1.11 -12.36,1.6 -4.93,1.34 -7.39,4.03 -7.39,8.02 0,2.87 2.59,5.78 7.72,8.73 7.62,4.25 12.46,7.35 14.49,9.28 5.19,4.97 7.81,11.35 7.81,19.13z"/>
   </g>
  </g>
 </g>
</svg>
