<?xml version="1.0" encoding="UTF-8"?>
<!DOCTYPE svg PUBLIC "-//W3C//DTD SVG 1.1//EN" "http://www.w3.org/Graphics/SVG/1.1/DTD/svg11.dtd">
<!-- Creator: CorelDRAW 2017 -->
<svg xmlns="http://www.w3.org/2000/svg" xml:space="preserve" width="6.7732mm" height="6.7732mm" version="1.1" style="shape-rendering:geometricPrecision; text-rendering:geometricPrecision; image-rendering:optimizeQuality; fill-rule:evenodd; clip-rule:evenodd"
viewBox="0 0 677.32 677.32"
 xmlns:xlink="http://www.w3.org/1999/xlink">
 <defs>
  <style type="text/css">
   <![CDATA[
    .str0 {stroke:#FEFEFE;stroke-width:20;stroke-miterlimit:22.9256}
    .fil0 {fill:#FEFEFE}
    .fil8 {fill:#00447A}
    .fil9 {fill:#0869A8}
    .fil14 {fill:#095986}
    .fil13 {fill:#0A89C2}
    .fil10 {fill:#174767}
    .fil11 {fill:#19152A}
    .fil12 {fill:#272745}
    .fil7 {fill:#E51B23}
    .fil16 {fill:#E7ECF4}
    .fil4 {fill:#F37A2A}
    .fil2 {fill:#F5995A}
    .fil3 {fill:#F7AF7D}
    .fil15 {fill:#F9F9F9}
    .fil1 {fill:#FEFEFE}
    .fil17 {fill:#373435;fill-rule:nonzero}
    .fil6 {fill:#4B4B4D;fill-rule:nonzero}
    .fil5 {fill:#F37A2A;fill-rule:nonzero}
   ]]>
  </style>
 </defs>
 <g id="Capa_x0020_1">
  <metadata id="CorelCorpID_0Corel-Layer"/>
  <ellipse class="fil0" cx="338.66" cy="338.66" rx="338.66" ry="338.67"/>
  <g id="_2274266733664">
   <circle class="fil1 str0" cx="-1155.47" cy="308.26" r="533.08"/>
   <g id="_2562967761024">
    <path class="fil2" d="M-1104.98 37.82c7.15,4.22 1.57,4.46 16.21,6.79 6.29,1 14.82,0.54 21.35,0.54l-5.83 -23.65c-1.05,-1.62 -2.83,-5.86 -3.1,-4.86l-5.6 -26.08c-0.57,-10.81 0.54,-28.35 0.61,-40.01 0.17,-28.2 0.01,-56.45 0.01,-84.66l-47.3 -5.62 0 11.94 40.41 1.79 0.48 155.38c-9.54,11.38 14.62,11.29 -17.24,8.44z"/>
    <path class="fil2" d="M-1097.1 348.95l0 12.2 39.42 1.38c0,-26.49 -1.1,-15.83 7.02,-25.68l-7.02 -15.36 -7.89 -0.41 1.97 33.31 -33.5 -5.44z"/>
    <path class="fil2" d="M-848.52 163.41l11.14 0 -0.42 -39.42 -14.9 8.08c10.72,19.73 7.53,2.11 4.18,31.34z"/>
    <path class="fil2" d="M-1215.36 -108.94l-7.88 -18.87c-19.71,0 -15.73,-5.47 -15.73,12.47 29.24,5.33 15.49,-4.94 23.61,6.4z"/>
    <path class="fil2" d="M-1026.15 61.21l22.8 15.47 6.84 -15.76 -5.98 -3.63c-12.23,6.74 -1.7,3.96 -23.66,3.92z"/>
    <polygon class="fil2" points="-868.47,211.73 -849.04,218.59 -845.73,201.37 "/>
    <polygon class="fil2" points="-1049.57,5.73 -1041.91,10.84 -1034.7,-2.16 -1041.91,-8.56 "/>
    <path class="fil2" d="M-1207.47 123.99l15.35 -8.56c0.42,-17.61 2.69,0.68 -7.47,-5.14l-4.17 5.81 -3.71 7.89z"/>
    <path class="fil2" d="M-1175.94 71.99l15.68 5.22 0.09 -16.29 -4.81 0c0,14.72 3.7,11.07 -10.96,11.07z"/>
    <polygon class="fil2" points="-1057.38,37.26 -1049.79,33.39 -1042.89,21.5 -1049.79,22.86 "/>
    <path class="fil3" d="M-1226.67 147.64l6.4 -23.65c-31.86,-6.29 -59.59,-13.02 -92.99,-20.36 -33.37,-7.34 -68.2,-18.37 -99.19,-19.06 -14.84,63.66 -1.04,41.96 60.88,49.48 31.1,3.78 88.15,13.59 124.9,13.59z"/>
    <path class="fil3" d="M-1243.66 218.59l-0.79 -31.53 -168 39.42c0.53,24.01 3.55,28.74 7.88,47.3l160.91 -55.19z"/>
    <path class="fil3" d="M-1203.76 116.1l4.17 -5.81 0 -9.96 -7.88 -7.88c-24.01,-2 -155.35,-65.09 -181.33,-78.84 -8.6,16.25 -10.94,18.69 -15.77,39.42 73.74,17.18 151.76,59.66 200.81,63.07z"/>
    <path class="fil3" d="M-1239.53 179.17l2.36 -23.65 -183.17 0 0 39.42c39.72,0 60.84,-1.9 88.88,-5.73 27.4,-3.74 70.88,-9.56 91.93,-10.04z"/>
    <path class="fil3" d="M-1220.19 289.55l-10.93 -13.92c-25.8,3.91 -12.9,1.35 -35.18,18.03 -16.1,12.05 -16.31,13.66 -30.3,25.02 -24.39,19.81 -44.02,24.76 -52.78,57.59l22.7 16.91c28.84,-8.59 95.46,-79.53 106.49,-103.63z"/>
    <path class="fil3" d="M-1057.68 362.53l-39.42 -1.38 0 125.49 55.19 0c-5.88,-25.25 -15.77,-95.14 -15.77,-124.11z"/>
    <path class="fil3" d="M-1237.67 250.12l-9.22 -15.12c-43.7,8.49 -104.55,42.66 -141.91,62.43 4.83,20.73 7.17,23.17 15.77,39.42 26.65,-14.11 41.32,-25.31 67.7,-42.67 27.03,-17.79 42.79,-24.81 67.66,-44.06z"/>
    <path class="fil3" d="M-1188.65 321.08c-7.13,-10.35 -4.58,-9.53 -18.82,-17.1 -20.45,15.93 -79.52,84.72 -86.73,111.71 7.59,10.36 -1.78,0.28 10.99,12.67l8.27 7.49c0.83,0.75 2.99,2.26 4.4,3.49 29.07,-19.47 49.56,-75.68 81.89,-118.26z"/>
    <path class="fil3" d="M-1149.74 344.73l-26.2 -18.14c-10.47,23.33 -21.27,43.96 -30.45,66.53 -10.94,26.91 -22.25,39.97 -24.73,69.87 21.28,1.77 21.44,3.7 39.42,7.88 2,-24.08 31.47,-99.09 41.96,-126.14z"/>
    <path class="fil3" d="M-1104.98 350.89l-31.54 -5.81c-4.37,51.61 -23.65,83.98 -23.65,141.56l39.42 0c0,-38.39 8.8,-102.73 15.77,-135.75z"/>
    <path class="fil3" d="M-1041.91 356.34c0,27.42 8.21,143.22 51.34,119.61 22.6,-12.37 2.97,-44.56 -2.87,-61.26l-24.82 -62.98 -23.65 4.63z"/>
    <path class="fil3" d="M-997.38 352.62l50.15 102.45c20.66,-4.79 23.09,-7.13 39.35,-15.73l-63.07 -103.93 -26.43 17.21z"/>
    <path class="fil3" d="M-955.19 326.95c10.42,18.14 18.63,25.04 31.56,41.46 15.65,19.85 24.82,22.2 31.51,47.28 33.9,-2.82 14.21,1.11 39.42,-15.77 -6.95,-26.04 -14.68,-26.96 -33.4,-45.41 -26.44,-26.07 -20.57,-26.96 -49.96,-41.31l-19.13 13.75z"/>
    <path class="fil3" d="M-908.86 297.43c17.37,23.16 52.1,55.67 79.82,63.07l25.34 -21.96c-19.59,-28.41 -60.93,-47.71 -90.26,-64.76l-14.9 23.65z"/>
    <path class="fil3" d="M-845.73 201.37l-3.31 17.22c17.66,1.83 45.58,11.88 63.1,13.56 33.96,3.26 27.85,-12.67 27.85,-45.09 -44.74,0 -52.91,-7.17 -89.67,-7.89l2.03 22.2z"/>
    <path class="fil3" d="M-877.44 258.01l61.73 34.97c29.26,14.61 38.42,14.11 41.85,-27.09 -15.09,-7.24 -75.28,-29.92 -93.47,-31.53l-10.11 23.65z"/>
    <path class="fil3" d="M-837.8 123.99l0.42 39.42 79.29 0c7.19,-30.86 7.19,-16.45 0,-47.31 -25.48,12.22 -43.75,7.89 -79.71,7.89z"/>
    <path class="fil3" d="M-900 -28.66l17.55 26.5c8.25,-5.04 14.42,-8.55 22.9,-14.61 20.16,-14.43 5.02,-10.12 30.51,-16.92 -2.62,-31.4 -3.19,-25.72 -23.66,-39.42 -20.93,5.59 -9.02,-2.18 -26.16,12.88 -16.4,14.42 -13.44,15.3 -21.14,31.57z"/>
    <path class="fil3" d="M-864.24 21.5l7.33 23.65c21.87,-4.06 49.5,-15.12 67.28,-23.65 -2.82,-33.9 1.12,-14.21 -15.77,-39.42 -22.09,11.68 -39.21,20.62 -58.84,39.42z"/>
    <path class="fil3" d="M-846.37 76.68l3.01 31.54c25.66,-6.56 46.12,-15.08 77.39,-15.77l0 -39.42 -80.4 23.65z"/>
    <path class="fil3" d="M-939.72 -73.11l23.95 23.37 39.42 -47.02 -30.32 -25c-22.97,17.29 -19.73,24.49 -33.05,48.65z"/>
    <path class="fil3" d="M-994.61 -102.46l31.54 15.2 23.86 -48.82c-16.46,-8.7 -18.9,-11.04 -39.63,-15.87 -8.2,17.09 -11.37,28.1 -15.77,49.49z"/>
    <path class="fil3" d="M-1057.68 -123.13l39.42 7.09c4.08,-22.18 17.74,-45 -9.09,-51.47 -32.98,-7.96 -30.33,18.06 -30.33,44.38z"/>
    <polygon class="fil3" points="-1128.63,-139.73 -1081.33,-134.11 -1081.33,-167.72 -1128.63,-167.72 "/>
    <path class="fil3" d="M-1191.7 -126.21l39.41 -5.51c-1.96,-18.75 -1.7,-15.64 -7.88,-28.11 -38.99,0.86 -43.54,3.58 -31.53,33.62z"/>
    <path class="fil3" d="M-1262.66 -102.1l23.69 -13.24c0,-17.94 -3.98,-12.47 15.73,-12.47 -7.98,-9.66 2.07,-7.23 -14.2,-6.61 -7.71,0.29 -10.2,2.62 -25.22,6.12l0 26.2z"/>
    <path class="fil3" d="M-1314.9 -65.23c15.11,-20.29 7.86,-12.64 28.59,-22.32 -8.09,-11.32 12.72,-9.21 -15.77,-9.21l-22.7 16.91c-0.95,30.57 -2.94,2.28 9.88,14.62z"/>
    <path class="fil4" d="M-947.3 234.36l-15.77 -7.88 15.77 7.88zm-15.77 -7.88l0 0zm7.88 -31.54c8.38,-8.38 29.9,12.51 8.78,4.1 -0.18,-0.08 -21.98,9.1 -8.78,-4.1zm-39.42 47.3l7.89 7.88c34.32,9.17 44.16,37.73 77.86,47.31l14.9 -23.65c-21.83,-17.23 -38.29,-18.87 -53.34,-39.42 30.1,7.01 43.99,17.2 69.86,23.65l10.11 -23.65c-26.96,-21.21 -40.99,-15.4 -64.21,-31.54 28.98,0.65 34.22,6.78 63.07,8.91l22.74 -10.36 -2.03 -22.2c-32.54,-0.85 -54.07,-7.88 -99.54,-7.88l0 -7.88 98.78 0c3.35,-29.23 6.54,-11.61 -4.18,-31.34 -53.44,-0.53 -71.91,7.68 -118.25,7.68 0,25.51 2.56,36.1 -4.9,58.17 -16.72,49.4 -12.97,-8.59 -18.76,44.32z"/>
    <path class="fil4" d="M-1026.15 305.32l-9.06 -15.38 9.06 15.38zm-102.48 -23.66l2.35 2.35c-0.16,-0.15 -3.14,-1.57 -2.35,-2.35zm86.72 -7.88l2.35 2.35c-0.15,-0.15 -3.14,-1.57 -2.35,-2.35zm-110.38 0c-5.21,22.37 -12.95,36.2 -23.65,52.81l26.2 18.14 18.24 -42.18c0.57,-1.11 1.75,-3.52 2.87,-5.12 -0.54,24.16 -3.59,28.82 -7.89,47.65l31.54 5.81 0 -37.69 7.88 0 0 35.75 33.5 5.44 -1.97 -33.31c0.02,-40.23 -0.11,-13.07 7.89,-23.65l0 24.06 7.02 15.36c2.19,41.48 -1.79,13.68 8.75,19.49l23.65 -4.63 -7.89 -46.39 28.77 47.3 26.43 -17.21c-9.73,-16.38 -18.22,-25.5 -23.66,-45.86l-7.88 -15.77 -7.89 -7.89 -7.88 -7.88c-38.65,3.22 -25.85,13.69 -63.54,15.82 -38.98,2.19 -41.73,-13.85 -70.49,-0.05z"/>
    <path class="fil4" d="M-1136.52 45.15c18.13,-1.55 20.4,-2.27 31.54,-7.33 31.86,2.85 7.7,2.94 17.24,-8.44l-0.48 -155.38 -40.41 -1.79c3.35,39.24 15.77,100.27 15.77,141.4l-20.35 -66.36c-6.63,-31.35 -9.65,-54.41 -19.08,-78.97l-39.41 5.51c12.64,47.4 50.87,119.54 55.18,171.36z"/>
    <path class="fil4" d="M-1018.26 37.26l0 0zm7.88 -15.76l-7.88 15.76 7.88 -15.76zm-24.32 -23.66l-7.21 13 -0.98 10.66 -6.9 11.89c7.91,24.87 -2.19,5.27 9.48,17.73 1.02,1.09 3.22,3.05 4.29,4.05 1.06,0.98 3.86,2.49 4.8,3.26 0.93,0.76 3.51,1.65 5.07,2.78 21.96,0.04 11.43,2.82 23.66,-3.92l7.88 -4.26 7.89 -7.88 7.88 -7.89 7.89 -7.88c7.44,-27.88 7.42,-17.43 24.55,-38.51 10.05,-12.37 22.56,-28.28 30.63,-40.61l-23.95 -23.37c-32.16,24.17 -38.24,70.85 -70.66,94.61 5.57,-23.91 35.52,-89.2 47.31,-108.76l-31.54 -15.2 -40.09 100.3z"/>
    <path class="fil4" d="M-947.3 100.33l-15.38 9.07 15.38 -9.07zm103.94 7.89l-3.01 -31.54c-45.22,1.09 -58.18,20.09 -100.93,23.65l80.47 -45c13.41,-10.1 3.73,-1.4 9.92,-10.18l-7.33 -23.65c-30.48,9.12 -88.43,52.93 -122.48,70.95 4.88,13.5 13.51,12.84 7.88,39.42 49.32,0 92.54,-14.46 135.48,-23.65z"/>
    <path class="fil4" d="M-1207.47 92.45l7.88 7.88c15.31,-4.05 12.2,-1.44 23.65,-7.88 -15.06,-22.5 -14.03,-18.1 -36.07,-34.88l-129.49 -107.03 -33.29 29.78c16.67,22.11 57.73,42.73 80.99,56.54l86.33 55.59z"/>
    <path class="fil4" d="M-1262.66 -102.1c18.61,21.96 80.04,110.66 86.72,139.36l15.77 23.66 23.65 0 0 -15.77c-22.32,-29.75 -21.22,-42.37 -36.64,-73.74 -14.83,-30.18 -24.07,-51.25 -42.2,-80.35 -8.12,-11.34 5.63,-1.07 -23.61,-6.4l-23.69 13.24z"/>
    <path class="fil4" d="M-1314.9 -65.23c6.03,14.12 -6.14,-3.13 10.89,17.74l128.07 119.48c14.66,0 10.96,3.65 10.96,-11.07 -13.11,-15.18 -7.1,-2.81 -10.96,-23.66 -37.65,-25.21 -75.21,-105.11 -110.37,-124.81 -20.73,9.68 -13.48,2.03 -28.59,22.32z"/>
    <path class="fil4" d="M-1073.25 21.5l5.83 23.65 10.04 -7.89 7.59 -14.4 0.22 -17.13 7.66 -14.29c6.51,-30.47 20.62,-79.59 23.65,-107.48l-39.42 -7.09c-8.89,22.21 -15.91,109.86 -15.57,144.63z"/>
    <path class="fil4" d="M-1231.12 210.71l2.35 2.35c-0.16,-0.16 -3.14,-1.57 -2.35,-2.35zm4.45 -63.07c22.26,0 3.32,-1.69 11.31,7.88l-21.81 0 -2.36 23.65 17.44 4.26 -22.36 3.63 0.79 31.53c3.48,9.91 3.81,3.29 -3.23,16.41l9.22 15.12 30.2 -7.88 7.88 -7.88c14.1,-29.39 4.82,-21.03 -3.23,-52.28 -12.76,-49.55 12.39,-21.25 -4.65,-58.09l-12.8 0 -6.4 23.65z"/>
    <path class="fil4" d="M-970.95 29.38l-7.89 7.88 -7.88 7.89 -7.89 7.88 -1.9 7.89 -6.84 15.76 120.9 -78.84 -17.55 -26.5c-10.61,2.71 -5.83,-0.76 -17.8,8.6 -5.42,4.24 -10.32,10.21 -15.72,15.79 -15.04,15.55 -20.6,22.38 -37.43,33.65z"/>
    <path class="fil4" d="M-1018.26 258.01l7.88 7.88 7.89 7.89 7.88 15.77 39.42 37.4 19.13 -13.75c-3.76,-12.62 3.6,-0.83 -5.7,-13.73 -3.78,-5.25 -10.2,-11.02 -15.18,-15.89 -14.83,-14.5 -18.82,-17.07 -29.78,-33.46l-7.89 -7.88 -23.65 0 0 15.77z"/>
    <path class="fil4" d="M-1199.59 234.36l-7.88 7.88 -23.65 33.39 10.93 13.92 20.6 -7.89 7.89 -7.88 7.88 -7.89 7.88 -7.88 7.89 -7.89c-4.06,-15.3 -1.45,-12.19 -7.89,-23.64 -10.62,5.96 -8.71,4.3 -23.65,7.88z"/>
    <path class="fil4" d="M-1175.94 258.01l-7.88 7.88 -7.88 7.89 -7.89 7.88c-2.76,14.94 -1.7,12.86 -7.88,22.32 14.24,7.57 11.69,6.75 18.82,17.1 10.29,-17.49 20.15,-35.42 36.36,-47.3l0 -23.66 -15.76 0 -7.89 7.89z"/>
   </g>
   <path class="fil5" d="M-1485.06 596.29c0,5.25 -0.98,9.92 -2.92,14.05 -1.95,4.09 -4.67,7.55 -8.26,10.36 -3.58,2.8 -7.82,4.94 -12.76,6.38 -4.95,1.44 -10.4,2.18 -16.31,2.18 -3.66,0 -7.13,-0.27 -10.44,-0.86 -3.3,-0.54 -6.26,-1.24 -8.91,-2.14 -2.61,-0.85 -4.83,-1.75 -6.66,-2.68 -1.82,-0.94 -3.15,-1.79 -3.97,-2.53 -0.85,-0.75 -1.48,-1.84 -1.83,-3.2 -0.39,-1.36 -0.58,-3.23 -0.58,-5.6 0,-1.44 0.08,-2.65 0.23,-3.62 0.16,-1.02 0.35,-1.79 0.55,-2.42 0.23,-0.62 0.58,-1.05 0.97,-1.32 0.43,-0.27 0.9,-0.39 1.44,-0.39 0.82,0 2.07,0.51 3.7,1.56 1.63,1.01 3.66,2.14 6.03,3.35 2.38,1.2 5.22,2.33 8.49,3.34 3.27,1.06 7.01,1.56 11.25,1.56 3.19,0 6.07,-0.35 8.64,-1.05 2.61,-0.66 4.83,-1.67 6.74,-3.04 1.9,-1.32 3.34,-3.03 4.39,-5.1 1.02,-2.06 1.52,-4.51 1.52,-7.35 0,-2.88 -0.74,-5.34 -2.22,-7.28 -1.48,-1.99 -3.42,-3.74 -5.83,-5.26 -2.46,-1.52 -5.18,-2.88 -8.22,-4.05 -3.03,-1.16 -6.15,-2.41 -9.38,-3.69 -3.19,-1.33 -6.35,-2.77 -9.42,-4.4 -3.08,-1.64 -5.8,-3.62 -8.25,-6 -2.42,-2.37 -4.36,-5.17 -5.84,-8.45 -1.48,-3.26 -2.22,-7.16 -2.22,-11.75 0,-4.01 0.78,-7.86 2.34,-11.56 1.55,-3.7 3.89,-6.93 7,-9.69 3.16,-2.77 7.05,-5.03 11.72,-6.7 4.67,-1.67 10.12,-2.49 16.39,-2.49 2.72,0 5.45,0.23 8.21,0.7 2.72,0.47 5.18,1.09 7.4,1.79 2.22,0.7 4.08,1.48 5.64,2.3 1.56,0.85 2.77,1.55 3.54,2.22 0.82,0.62 1.33,1.16 1.6,1.59 0.27,0.47 0.47,0.97 0.58,1.56 0.12,0.54 0.24,1.24 0.35,2.06 0.12,0.86 0.16,1.87 0.16,3.08 0,1.28 -0.04,2.41 -0.16,3.34 -0.11,0.94 -0.31,1.72 -0.58,2.3 -0.27,0.62 -0.58,1.05 -0.97,1.32 -0.39,0.28 -0.82,0.4 -1.25,0.4 -0.7,0 -1.67,-0.43 -3,-1.29 -1.28,-0.82 -2.96,-1.71 -5.02,-2.69 -2.06,-0.97 -4.48,-1.86 -7.24,-2.68 -2.76,-0.86 -5.96,-1.29 -9.54,-1.29 -3.19,0 -6.03,0.35 -8.44,1.09 -2.46,0.7 -4.44,1.72 -6,3.04 -1.56,1.32 -2.76,2.88 -3.54,4.71 -0.82,1.79 -1.21,3.78 -1.21,5.88 0,2.96 0.78,5.45 2.3,7.47 1.52,2.03 3.46,3.78 5.92,5.29 2.41,1.52 5.21,2.89 8.33,4.13 3.11,1.21 6.27,2.45 9.5,3.74 3.23,1.32 6.42,2.76 9.57,4.36 3.15,1.6 5.96,3.54 8.37,5.8 2.45,2.29 4.4,5.02 5.88,8.21 1.48,3.19 2.22,7.01 2.22,11.41zm122.19 -24.53c0,8.37 -1.09,16.08 -3.31,23.13 -2.18,7 -5.49,13.08 -9.85,18.18 -4.36,5.09 -9.85,9.07 -16.39,11.91 -6.58,2.84 -14.21,4.28 -22.85,4.28 -8.44,0 -15.8,-1.25 -22.07,-3.78 -6.26,-2.49 -11.48,-6.15 -15.65,-10.94 -4.16,-4.78 -7.28,-10.62 -9.34,-17.44 -2.06,-6.84 -3.08,-14.59 -3.08,-23.27 0,-8.37 1.09,-16.08 3.24,-23.09 2.18,-7.04 5.45,-13.12 9.81,-18.21 4.36,-5.1 9.81,-9.04 16.34,-11.88 6.55,-2.8 14.18,-4.2 22.9,-4.2 8.44,0 15.8,1.24 22.07,3.78 6.26,2.49 11.48,6.14 15.64,10.93 4.17,4.79 7.32,10.59 9.42,17.44 2.07,6.85 3.12,14.56 3.12,23.16zm-19.62 1.21c0,-5.57 -0.51,-10.82 -1.56,-15.77 -1.01,-4.94 -2.72,-9.26 -5.1,-13 -2.33,-3.73 -5.56,-6.69 -9.61,-8.83 -4.01,-2.18 -9.07,-3.27 -15.1,-3.27 -5.57,0 -10.36,0.97 -14.37,2.96 -4.01,1.98 -7.28,4.78 -9.89,8.4 -2.6,3.62 -4.51,7.91 -5.76,12.85 -1.28,4.94 -1.91,10.35 -1.91,16.19 0,5.65 0.51,10.94 1.56,15.88 1.01,4.95 2.73,9.27 5.14,12.97 2.41,3.66 5.65,6.62 9.65,8.76 4.05,2.18 9.11,3.27 15.15,3.27 5.49,0 10.24,-0.98 14.28,-2.96 4.05,-1.99 7.36,-4.75 9.97,-8.33 2.61,-3.58 4.51,-7.87 5.72,-12.81 1.21,-4.94 1.83,-10.39 1.83,-16.31zm71.31 -38.54l0 89.89c0,0.62 -0.15,1.12 -0.46,1.55 -0.31,0.39 -0.82,0.78 -1.52,1.09 -0.74,0.27 -1.72,0.51 -2.92,0.66 -1.21,0.16 -2.73,0.24 -4.55,0.24 -1.83,0 -3.35,-0.08 -4.56,-0.24 -1.2,-0.15 -2.18,-0.39 -2.92,-0.66 -0.7,-0.31 -1.21,-0.7 -1.52,-1.09 -0.31,-0.43 -0.46,-0.93 -0.46,-1.55l0 -89.89 -14.56 0c-1.21,0 -2.14,-0.62 -2.73,-1.83 -0.62,-1.2 -0.93,-3.19 -0.93,-5.95 0,-1.44 0.08,-2.65 0.23,-3.62 0.16,-1.01 0.39,-1.83 0.7,-2.49 0.27,-0.63 0.67,-1.09 1.13,-1.37 0.47,-0.27 1.01,-0.38 1.6,-0.38l14.56 0 0 -10.63c0,-7.2 0.66,-13.35 1.98,-18.49 1.36,-5.14 3.35,-9.38 6.07,-12.65 2.69,-3.27 6.11,-5.73 10.28,-7.28 4.13,-1.56 9.03,-2.34 14.68,-2.34 2.8,0 5.52,0.27 8.21,0.86 2.65,0.58 4.55,1.09 5.68,1.59 1.17,0.51 1.95,0.98 2.42,1.44 0.46,0.43 0.81,1.06 1.09,1.76 0.27,0.74 0.46,1.59 0.58,2.64 0.12,1.01 0.16,2.26 0.16,3.7 0,1.44 -0.04,2.61 -0.16,3.5 -0.12,0.86 -0.31,1.56 -0.55,2.11 -0.19,0.5 -0.46,0.89 -0.77,1.09 -0.31,0.15 -0.67,0.27 -1.05,0.27 -0.59,0 -1.29,-0.16 -2.03,-0.51 -0.78,-0.35 -1.71,-0.74 -2.88,-1.17 -1.13,-0.38 -2.49,-0.77 -4.05,-1.12 -1.55,-0.35 -3.38,-0.51 -5.45,-0.51 -2.8,0 -5.17,0.47 -7.12,1.36 -1.95,0.94 -3.54,2.38 -4.75,4.32 -1.21,1.95 -2.1,4.44 -2.69,7.55 -0.58,3.08 -0.85,6.86 -0.85,11.29l0 11.22 46.36 0 0 -24.61c0,-0.5 0.16,-1.01 0.47,-1.48 0.31,-0.46 0.78,-0.85 1.48,-1.2 0.7,-0.35 1.63,-0.59 2.88,-0.74 1.2,-0.16 2.76,-0.24 4.71,-0.24 1.83,0 3.34,0.08 4.55,0.24 1.25,0.15 2.18,0.39 2.88,0.74 0.7,0.35 1.17,0.74 1.48,1.2 0.31,0.47 0.47,0.98 0.47,1.48l0 24.61 26.04 0c0.62,0 1.17,0.11 1.63,0.38 0.51,0.28 0.9,0.74 1.21,1.37 0.31,0.66 0.55,1.48 0.74,2.49 0.19,0.97 0.27,2.18 0.27,3.62 0,2.76 -0.35,4.75 -1.01,5.95 -0.7,1.21 -1.59,1.83 -2.72,1.83l-26.16 0 0 57.11c0,7.04 1.01,12.38 3.07,15.96 2.03,3.62 5.76,5.41 11.21,5.41 1.64,0 3.16,-0.16 4.56,-0.51 1.4,-0.35 2.65,-0.7 3.7,-1.09 1.05,-0.38 1.98,-0.74 2.76,-1.09 0.82,-0.35 1.48,-0.5 1.99,-0.5 0.46,0 0.81,0.07 1.12,0.27 0.32,0.2 0.55,0.55 0.74,1.09 0.2,0.55 0.35,1.25 0.51,2.18 0.15,0.9 0.23,2.06 0.23,3.43 0,2.21 -0.15,3.96 -0.5,5.25 -0.35,1.29 -0.82,2.26 -1.44,2.84 -0.59,0.63 -1.48,1.21 -2.61,1.71 -1.13,0.55 -2.49,0.98 -4.05,1.33 -1.55,0.35 -3.19,0.62 -4.98,0.85 -1.79,0.24 -3.5,0.35 -5.18,0.35 -5.41,0 -10,-0.7 -13.78,-2.1 -3.77,-1.4 -6.89,-3.54 -9.34,-6.38 -2.42,-2.84 -4.17,-6.46 -5.3,-10.82 -1.08,-4.36 -1.63,-9.5 -1.63,-15.42l0 -59.87 -46.25 0zm263.5 -13.04c0,0.55 -0.08,1.17 -0.23,1.95 -0.16,0.74 -0.43,1.71 -0.82,2.84l-30.21 97.55c-0.23,0.86 -0.58,1.56 -1.09,2.06 -0.46,0.55 -1.17,0.98 -2.02,1.25 -0.9,0.31 -2.1,0.54 -3.62,0.66 -1.52,0.12 -3.43,0.16 -5.69,0.16 -2.37,0 -4.35,-0.08 -5.95,-0.24 -1.6,-0.15 -2.84,-0.39 -3.82,-0.66 -0.93,-0.31 -1.63,-0.74 -2.1,-1.28 -0.46,-0.51 -0.78,-1.17 -1.01,-1.95l-21.56 -74.51 -0.24 -1.01 -0.23 1.01 -19.97 74.51c-0.2,0.86 -0.58,1.56 -1.05,2.06 -0.51,0.55 -1.25,0.98 -2.22,1.25 -1.01,0.31 -2.3,0.54 -3.86,0.66 -1.55,0.12 -3.46,0.16 -5.76,0.16 -2.33,0 -4.24,-0.08 -5.76,-0.24 -1.48,-0.15 -2.68,-0.39 -3.62,-0.66 -0.97,-0.31 -1.67,-0.74 -2.1,-1.28 -0.47,-0.51 -0.82,-1.17 -1.05,-1.95l-29.98 -97.55c-0.38,-1.13 -0.66,-2.1 -0.81,-2.84 -0.16,-0.78 -0.24,-1.4 -0.24,-1.95 0,-0.7 0.16,-1.24 0.47,-1.67 0.31,-0.39 0.82,-0.74 1.56,-1.01 0.7,-0.27 1.67,-0.43 2.88,-0.51 1.25,-0.08 2.72,-0.11 4.48,-0.11 2.1,0 3.81,0.03 5.1,0.15 1.32,0.12 2.29,0.31 2.99,0.58 0.66,0.27 1.17,0.67 1.48,1.13 0.27,0.51 0.55,1.09 0.78,1.79l24.76 84.79 0.23 1.01 0.24 -1.01 22.69 -84.79c0.16,-0.7 0.39,-1.28 0.74,-1.79 0.31,-0.46 0.86,-0.86 1.52,-1.13 0.7,-0.27 1.63,-0.46 2.8,-0.58 1.17,-0.12 2.73,-0.15 4.63,-0.15 1.83,0 3.31,0.03 4.48,0.15 1.2,0.12 2.14,0.31 2.8,0.58 0.7,0.27 1.17,0.63 1.48,1.09 0.31,0.47 0.55,0.98 0.7,1.6l24.52 85.02 0.24 1.01 0.12 -1.01 24.4 -84.79c0.12,-0.7 0.39,-1.28 0.74,-1.79 0.31,-0.46 0.86,-0.86 1.6,-1.13 0.7,-0.27 1.67,-0.46 2.96,-0.58 1.24,-0.12 2.84,-0.15 4.82,-0.15 1.83,0 3.31,0.03 4.4,0.11 1.09,0.08 1.99,0.27 2.61,0.59 0.66,0.27 1.13,0.62 1.4,1.01 0.23,0.39 0.39,0.89 0.39,1.59zm98.14 103.04c0,0.9 -0.32,1.6 -0.9,2.06 -0.62,0.47 -1.44,0.78 -2.53,1.02 -1.05,0.23 -2.61,0.35 -4.67,0.35 -1.95,0 -3.54,-0.12 -4.71,-0.35 -1.17,-0.24 -2.03,-0.55 -2.57,-1.02 -0.55,-0.46 -0.82,-1.12 -0.82,-2.06l0 -10.27c-4.47,4.78 -9.46,8.52 -14.99,11.17 -5.52,2.6 -11.36,3.93 -17.51,3.93 -5.41,0 -10.32,-0.7 -14.68,-2.1 -4.36,-1.4 -8.09,-3.47 -11.17,-6.11 -3.08,-2.65 -5.49,-5.96 -7.2,-9.81 -1.72,-3.9 -2.57,-8.3 -2.57,-13.24 0,-5.8 1.17,-10.82 3.54,-15.06 2.34,-4.29 5.72,-7.83 10.16,-10.63 4.4,-2.8 9.81,-4.95 16.19,-6.35 6.39,-1.4 13.59,-2.1 21.57,-2.1l14.17 0 0 -8.02c0,-3.93 -0.43,-7.43 -1.25,-10.51 -0.85,-3.03 -2.17,-5.57 -4.05,-7.59 -1.86,-2.02 -4.28,-3.54 -7.23,-4.55 -2.96,-1.05 -6.62,-1.56 -10.94,-1.56 -4.64,0 -8.8,0.55 -12.46,1.67 -3.7,1.13 -6.93,2.34 -9.69,3.7 -2.77,1.36 -5.1,2.57 -6.97,3.7 -1.83,1.13 -3.23,1.67 -4.13,1.67 -0.62,0 -1.16,-0.15 -1.59,-0.46 -0.47,-0.27 -0.86,-0.74 -1.21,-1.36 -0.35,-0.59 -0.58,-1.37 -0.74,-2.3 -0.15,-0.98 -0.23,-1.99 -0.23,-3.16 0,-1.86 0.11,-3.38 0.39,-4.47 0.27,-1.09 0.93,-2.14 1.94,-3.12 1.01,-0.97 2.8,-2.14 5.3,-3.5 2.49,-1.32 5.41,-2.57 8.68,-3.7 3.23,-1.09 6.81,-2.02 10.7,-2.76 3.86,-0.74 7.79,-1.09 11.72,-1.09 7.36,0 13.62,0.82 18.8,2.49 5.18,1.67 9.34,4.17 12.54,7.4 3.19,3.23 5.48,7.24 6.93,12.02 1.44,4.79 2.18,10.4 2.18,16.78l0 69.29zm-18.69 -47.02l-16.08 0c-5.13,0 -9.61,0.43 -13.43,1.32 -3.77,0.86 -6.93,2.18 -9.46,3.89 -2.49,1.72 -4.32,3.74 -5.52,6.15 -1.17,2.42 -1.76,5.18 -1.76,8.3 0,5.33 1.68,9.57 5.07,12.72 3.38,3.16 8.09,4.75 14.2,4.75 4.91,0 9.5,-1.24 13.71,-3.77 4.2,-2.49 8.64,-6.35 13.27,-11.52l0 -21.84zm113.27 -49.13c0,1.68 -0.03,3.08 -0.11,4.21 -0.08,1.13 -0.24,2.02 -0.47,2.68 -0.19,0.66 -0.51,1.13 -0.86,1.48 -0.31,0.35 -0.77,0.51 -1.4,0.51 -0.62,0 -1.36,-0.16 -2.21,-0.51 -0.9,-0.35 -1.87,-0.7 -2.96,-1.01 -1.09,-0.35 -2.34,-0.66 -3.7,-0.97 -1.36,-0.31 -2.84,-0.47 -4.44,-0.47 -1.91,0 -3.77,0.39 -5.61,1.13 -1.79,0.78 -3.73,2.02 -5.72,3.81 -2.02,1.76 -4.12,4.09 -6.34,6.97 -2.18,2.92 -4.63,6.46 -7.28,10.67l0 67.54c0,0.62 -0.16,1.12 -0.47,1.55 -0.31,0.39 -0.78,0.78 -1.48,1.09 -0.7,0.27 -1.63,0.51 -2.88,0.66 -1.2,0.16 -2.76,0.24 -4.67,0.24 -1.87,0 -3.39,-0.08 -4.59,-0.24 -1.25,-0.15 -2.22,-0.39 -2.92,-0.66 -0.74,-0.31 -1.25,-0.7 -1.52,-1.09 -0.27,-0.43 -0.39,-0.93 -0.39,-1.55l0 -102.69c0,-0.63 0.12,-1.13 0.35,-1.56 0.24,-0.39 0.66,-0.78 1.36,-1.13 0.7,-0.35 1.56,-0.58 2.65,-0.7 1.05,-0.12 2.49,-0.15 4.24,-0.15 1.68,0 3.08,0.03 4.17,0.15 1.13,0.12 1.98,0.35 2.61,0.7 0.58,0.35 1.05,0.74 1.32,1.13 0.23,0.43 0.39,0.93 0.39,1.56l0 14.94c2.8,-4.12 5.45,-7.47 7.9,-10.08 2.49,-2.57 4.83,-4.63 7.01,-6.11 2.22,-1.48 4.4,-2.49 6.54,-3.08 2.18,-0.58 4.36,-0.85 6.58,-0.85 0.97,0 2.1,0.04 3.34,0.15 1.25,0.12 2.57,0.35 3.94,0.63 1.36,0.31 2.6,0.66 3.69,1.05 1.09,0.39 1.87,0.74 2.34,1.13 0.47,0.39 0.78,0.74 0.89,1.09 0.16,0.35 0.32,0.78 0.43,1.28 0.12,0.55 0.2,1.33 0.24,2.34 0.03,1.05 0.03,2.41 0.03,4.16zm105.69 40.21c0,2.96 -0.74,5.06 -2.22,6.35 -1.48,1.24 -3.19,1.87 -5.09,1.87l-67.43 0c0,5.72 0.59,10.86 1.72,15.41 1.12,4.6 3.03,8.53 5.72,11.8 2.65,3.27 6.11,5.76 10.35,7.51 4.28,1.75 9.5,2.65 15.65,2.65 4.87,0 9.23,-0.39 13,-1.21 3.82,-0.78 7.13,-1.67 9.89,-2.65 2.76,-0.97 5.06,-1.87 6.85,-2.64 1.79,-0.82 3.11,-1.21 4.05,-1.21 0.55,0 1.01,0.12 1.44,0.39 0.39,0.27 0.74,0.66 0.93,1.21 0.24,0.5 0.43,1.24 0.55,2.17 0.12,0.98 0.16,2.11 0.16,3.47 0,0.97 -0.04,1.83 -0.12,2.57 -0.08,0.7 -0.16,1.36 -0.27,1.91 -0.12,0.58 -0.32,1.09 -0.59,1.56 -0.27,0.42 -0.58,0.85 -1.01,1.28 -0.43,0.43 -1.68,1.09 -3.7,2.02 -2.06,0.98 -4.71,1.87 -7.98,2.81 -3.27,0.89 -7.04,1.71 -11.33,2.41 -4.28,0.74 -8.83,1.09 -13.7,1.09 -8.45,0 -15.8,-1.17 -22.15,-3.54 -6.34,-2.34 -11.68,-5.84 -16,-10.47 -4.32,-4.68 -7.59,-10.48 -9.77,-17.48 -2.22,-6.97 -3.31,-15.11 -3.31,-24.41 0,-8.8 1.13,-16.74 3.43,-23.79 2.26,-7 5.57,-13 9.85,-17.9 4.28,-4.91 9.5,-8.64 15.57,-11.29 6.07,-2.61 12.88,-3.93 20.4,-3.93 8.06,0 14.9,1.28 20.55,3.89 5.68,2.57 10.32,6.07 13.97,10.43 3.63,4.36 6.31,9.5 8.02,15.42 1.72,5.88 2.57,12.18 2.57,18.88l0 3.42zm-18.92 -5.56c0.24,-9.89 -1.94,-17.68 -6.57,-23.32 -4.64,-5.64 -11.45,-8.45 -20.52,-8.45 -4.67,0 -8.76,0.86 -12.26,2.61 -3.5,1.75 -6.42,4.09 -8.8,7.01 -2.37,2.88 -4.2,6.26 -5.49,10.08 -1.28,3.85 -2.02,7.86 -2.18,12.07l55.82 0z"/>
   <path class="fil6" d="M-1338.11 731.6c0,2.71 -0.45,4.5 -1.35,5.39 -0.89,0.9 -2.51,1.34 -4.86,1.34 -2.3,0 -3.88,-0.44 -4.75,-1.32 -0.88,-0.88 -1.31,-2.63 -1.31,-5.25 0,-2.71 0.45,-4.5 1.35,-5.4 0.89,-0.89 2.51,-1.34 4.86,-1.34 2.3,0 3.87,0.43 4.75,1.31 0.86,0.87 1.31,2.64 1.31,5.27zm54.24 -3.06c0,0.65 -0.02,1.21 -0.06,1.68 -0.04,0.49 -0.1,0.87 -0.2,1.21 -0.09,0.33 -0.21,0.6 -0.35,0.85 -0.13,0.25 -0.42,0.62 -0.91,1.09 -0.46,0.49 -1.28,1.07 -2.41,1.79 -1.15,0.7 -2.44,1.34 -3.86,1.89 -1.44,0.56 -2.97,1.01 -4.65,1.34 -1.67,0.35 -3.4,0.53 -5.19,0.53 -3.7,0 -6.97,-0.61 -9.81,-1.83 -2.86,-1.21 -5.26,-2.98 -7.16,-5.31 -1.93,-2.34 -3.39,-5.22 -4.4,-8.61 -1.02,-3.4 -1.52,-7.32 -1.52,-11.77 0,-5.04 0.62,-9.38 1.85,-13.02 1.24,-3.62 2.93,-6.6 5.07,-8.92 2.17,-2.32 4.7,-4.03 7.6,-5.16 2.91,-1.11 6.07,-1.67 9.46,-1.67 1.63,0 3.21,0.16 4.75,0.47 1.55,0.29 2.95,0.7 4.26,1.18 1.28,0.51 2.45,1.07 3.44,1.74 1.01,0.64 1.75,1.2 2.2,1.65 0.47,0.47 0.78,0.84 0.96,1.09 0.15,0.27 0.31,0.59 0.42,0.96 0.1,0.35 0.18,0.75 0.22,1.22 0.03,0.45 0.06,1.03 0.06,1.71 0,1.48 -0.18,2.51 -0.51,3.12 -0.35,0.58 -0.76,0.87 -1.27,0.87 -0.56,0 -1.22,-0.31 -1.96,-0.95 -0.74,-0.62 -1.68,-1.32 -2.82,-2.08 -1.15,-0.76 -2.53,-1.46 -4.15,-2.08 -1.62,-0.65 -3.52,-0.96 -5.72,-0.96 -4.54,0 -8.02,1.73 -10.43,5.22 -2.42,3.46 -3.62,8.5 -3.62,15.1 0,3.29 0.31,6.19 0.93,8.68 0.64,2.47 1.56,4.56 2.78,6.23 1.21,1.65 2.71,2.9 4.48,3.72 1.77,0.82 3.8,1.22 6.07,1.22 2.18,0 4.09,-0.35 5.73,-1.03 1.63,-0.68 3.03,-1.44 4.24,-2.28 1.2,-0.81 2.22,-1.55 3.03,-2.21 0.82,-0.69 1.44,-1.02 1.91,-1.02 0.26,0 0.49,0.08 0.68,0.24 0.2,0.15 0.35,0.41 0.49,0.76 0.14,0.37 0.23,0.81 0.29,1.38 0.06,0.54 0.08,1.2 0.08,1.96zm59.15 -18.37c0,4.19 -0.55,8.04 -1.66,11.56 -1.09,3.51 -2.74,6.54 -4.92,9.09 -2.18,2.55 -4.93,4.54 -8.19,5.96 -3.29,1.42 -7.11,2.14 -11.43,2.14 -4.22,0 -7.9,-0.63 -11.03,-1.89 -3.14,-1.25 -5.75,-3.07 -7.83,-5.47 -2.08,-2.39 -3.64,-5.31 -4.67,-8.72 -1.03,-3.43 -1.54,-7.3 -1.54,-11.64 0,-4.18 0.55,-8.04 1.62,-11.54 1.09,-3.52 2.72,-6.56 4.9,-9.11 2.18,-2.55 4.91,-4.51 8.18,-5.93 3.27,-1.41 7.08,-2.11 11.44,-2.11 4.22,0 7.9,0.63 11.04,1.89 3.13,1.25 5.74,3.08 7.82,5.47 2.08,2.39 3.66,5.29 4.71,8.72 1.03,3.43 1.56,7.28 1.56,11.58zm-9.81 0.6c0,-2.78 -0.26,-5.41 -0.78,-7.88 -0.51,-2.47 -1.36,-4.63 -2.55,-6.5 -1.17,-1.87 -2.78,-3.35 -4.81,-4.42 -2,-1.09 -4.53,-1.63 -7.55,-1.63 -2.78,0 -5.18,0.48 -7.18,1.48 -2.01,0.99 -3.64,2.39 -4.94,4.2 -1.31,1.81 -2.26,3.95 -2.89,6.42 -0.64,2.48 -0.95,5.18 -0.95,8.1 0,2.82 0.25,5.47 0.78,7.94 0.5,2.47 1.36,4.63 2.57,6.48 1.21,1.83 2.82,3.31 4.83,4.38 2.02,1.09 4.55,1.64 7.57,1.64 2.74,0 5.12,-0.49 7.14,-1.48 2.02,-1 3.68,-2.38 4.98,-4.17 1.31,-1.79 2.26,-3.93 2.86,-6.4 0.61,-2.47 0.92,-5.2 0.92,-8.16zm99.88 25.68c0,0.31 -0.07,0.56 -0.23,0.77 -0.15,0.2 -0.39,0.39 -0.74,0.55 -0.33,0.14 -0.82,0.25 -1.42,0.33 -0.6,0.08 -1.36,0.12 -2.28,0.12 -0.95,0 -1.73,-0.04 -2.33,-0.12 -0.61,-0.08 -1.09,-0.19 -1.46,-0.33 -0.35,-0.16 -0.61,-0.35 -0.76,-0.55 -0.16,-0.21 -0.23,-0.46 -0.23,-0.77l0 -31.2c0,-2.18 -0.2,-4.17 -0.57,-5.94 -0.39,-1.79 -0.99,-3.33 -1.83,-4.63 -0.84,-1.29 -1.89,-2.28 -3.17,-2.96 -1.28,-0.68 -2.8,-1.03 -4.56,-1.03 -2.16,0 -4.34,0.84 -6.5,2.51 -2.17,1.67 -4.59,4.12 -7.2,7.36l0 35.89c0,0.31 -0.08,0.56 -0.23,0.77 -0.16,0.2 -0.41,0.39 -0.78,0.55 -0.35,0.14 -0.84,0.25 -1.46,0.33 -0.6,0.08 -1.36,0.12 -2.28,0.12 -0.89,0 -1.63,-0.04 -2.27,-0.12 -0.63,-0.08 -1.13,-0.19 -1.48,-0.33 -0.37,-0.16 -0.63,-0.35 -0.76,-0.55 -0.14,-0.21 -0.2,-0.46 -0.2,-0.77l0 -31.2c0,-2.18 -0.21,-4.17 -0.62,-5.94 -0.43,-1.79 -1.05,-3.33 -1.89,-4.63 -0.83,-1.29 -1.88,-2.28 -3.15,-2.96 -1.29,-0.68 -2.78,-1.03 -4.54,-1.03 -2.16,0 -4.35,0.84 -6.56,2.51 -2.19,1.67 -4.59,4.12 -7.18,7.36l0 35.89c0,0.31 -0.07,0.56 -0.23,0.77 -0.16,0.2 -0.39,0.39 -0.74,0.55 -0.35,0.14 -0.82,0.25 -1.44,0.33 -0.6,0.08 -1.38,0.12 -2.34,0.12 -0.93,0 -1.69,-0.04 -2.29,-0.12 -0.63,-0.08 -1.11,-0.19 -1.46,-0.33 -0.37,-0.16 -0.62,-0.35 -0.76,-0.55 -0.14,-0.21 -0.2,-0.46 -0.2,-0.77l0 -51.35c0,-0.31 0.06,-0.56 0.18,-0.78 0.12,-0.19 0.33,-0.39 0.68,-0.56 0.35,-0.18 0.78,-0.29 1.32,-0.35 0.53,-0.06 1.25,-0.08 2.13,-0.08 0.83,0 1.53,0.02 2.08,0.08 0.56,0.06 0.99,0.17 1.3,0.35 0.3,0.17 0.53,0.37 0.66,0.56 0.12,0.22 0.2,0.47 0.2,0.78l0 6.8c2.88,-3.25 5.7,-5.63 8.43,-7.13 2.7,-1.5 5.47,-2.26 8.23,-2.26 2.14,0 4.05,0.26 5.74,0.74 1.69,0.51 3.19,1.19 4.48,2.09 1.3,0.89 2.41,1.96 3.31,3.21 0.91,1.22 1.67,2.61 2.29,4.14 1.72,-1.87 3.33,-3.44 4.87,-4.75 1.54,-1.3 3.01,-2.33 4.43,-3.15 1.43,-0.8 2.81,-1.38 4.15,-1.73 1.36,-0.37 2.71,-0.55 4.07,-0.55 3.31,0 6.07,0.59 8.31,1.74 2.24,1.16 4.05,2.72 5.45,4.65 1.38,1.94 2.36,4.22 2.96,6.83 0.58,2.61 0.87,5.35 0.87,8.25l0 32.47zm29.3 -4.85c0,2.71 -0.45,4.5 -1.35,5.39 -0.89,0.9 -2.51,1.34 -4.86,1.34 -2.3,0 -3.87,-0.44 -4.75,-1.32 -0.88,-0.88 -1.3,-2.63 -1.3,-5.25 0,-2.71 0.44,-4.5 1.34,-5.4 0.89,-0.89 2.51,-1.34 4.86,-1.34 2.3,0 3.88,0.43 4.75,1.31 0.86,0.87 1.31,2.64 1.31,5.27zm93.48 4.85c0,0.31 -0.08,0.56 -0.24,0.77 -0.15,0.2 -0.39,0.39 -0.74,0.55 -0.33,0.14 -0.81,0.25 -1.42,0.33 -0.6,0.08 -1.36,0.12 -2.27,0.12 -0.96,0 -1.73,-0.04 -2.34,-0.12 -0.6,-0.08 -1.09,-0.19 -1.46,-0.33 -0.35,-0.16 -0.6,-0.35 -0.76,-0.55 -0.15,-0.21 -0.23,-0.46 -0.23,-0.77l0 -31.2c0,-2.18 -0.19,-4.17 -0.56,-5.94 -0.4,-1.79 -1,-3.33 -1.84,-4.63 -0.83,-1.29 -1.88,-2.28 -3.17,-2.96 -1.28,-0.68 -2.8,-1.03 -4.55,-1.03 -2.16,0 -4.34,0.84 -6.5,2.51 -2.18,1.67 -4.59,4.12 -7.2,7.36l0 35.89c0,0.31 -0.08,0.56 -0.24,0.77 -0.15,0.2 -0.41,0.39 -0.78,0.55 -0.35,0.14 -0.83,0.25 -1.46,0.33 -0.6,0.08 -1.36,0.12 -2.27,0.12 -0.9,0 -1.64,-0.04 -2.28,-0.12 -0.62,-0.08 -1.13,-0.19 -1.48,-0.33 -0.37,-0.16 -0.62,-0.35 -0.76,-0.55 -0.14,-0.21 -0.19,-0.46 -0.19,-0.77l0 -31.2c0,-2.18 -0.22,-4.17 -0.63,-5.94 -0.42,-1.79 -1.05,-3.33 -1.88,-4.63 -0.84,-1.29 -1.89,-2.28 -3.16,-2.96 -1.28,-0.68 -2.78,-1.03 -4.53,-1.03 -2.16,0 -4.36,0.84 -6.56,2.51 -2.2,1.67 -4.6,4.12 -7.18,7.36l0 35.89c0,0.31 -0.08,0.56 -0.24,0.77 -0.15,0.2 -0.39,0.39 -0.74,0.55 -0.35,0.14 -0.81,0.25 -1.44,0.33 -0.6,0.08 -1.38,0.12 -2.33,0.12 -0.94,0 -1.69,-0.04 -2.3,-0.12 -0.62,-0.08 -1.11,-0.19 -1.46,-0.33 -0.37,-0.16 -0.62,-0.35 -0.76,-0.55 -0.13,-0.21 -0.19,-0.46 -0.19,-0.77l0 -51.35c0,-0.31 0.06,-0.56 0.17,-0.78 0.12,-0.19 0.33,-0.39 0.68,-0.56 0.35,-0.18 0.78,-0.29 1.33,-0.35 0.52,-0.06 1.24,-0.08 2.12,-0.08 0.84,0 1.54,0.02 2.08,0.08 0.57,0.06 0.99,0.17 1.31,0.35 0.29,0.17 0.52,0.37 0.66,0.56 0.11,0.22 0.19,0.47 0.19,0.78l0 6.8c2.88,-3.25 5.71,-5.63 8.43,-7.13 2.71,-1.5 5.47,-2.26 8.23,-2.26 2.14,0 4.05,0.26 5.74,0.74 1.7,0.51 3.2,1.19 4.48,2.09 1.31,0.89 2.41,1.96 3.31,3.21 0.91,1.22 1.67,2.61 2.3,4.14 1.71,-1.87 3.32,-3.44 4.86,-4.75 1.54,-1.3 3.02,-2.33 4.44,-3.15 1.42,-0.8 2.8,-1.38 4.14,-1.73 1.37,-0.37 2.71,-0.55 4.07,-0.55 3.31,0 6.08,0.59 8.32,1.74 2.23,1.16 4.04,2.72 5.44,4.65 1.39,1.94 2.36,4.22 2.96,6.83 0.59,2.61 0.88,5.35 0.88,8.25l0 32.47zm54.87 -1.09c0.31,0.54 0.46,0.99 0.46,1.34 0,0.37 -0.19,0.66 -0.54,0.89 -0.37,0.22 -0.92,0.39 -1.66,0.49 -0.74,0.1 -1.71,0.14 -2.88,0.14 -1.15,0 -2.04,-0.02 -2.7,-0.08 -0.68,-0.06 -1.21,-0.16 -1.6,-0.29 -0.41,-0.14 -0.72,-0.31 -0.91,-0.51 -0.22,-0.21 -0.39,-0.45 -0.55,-0.72l-12.32 -20.38 -12.26 20.38c-0.16,0.27 -0.33,0.51 -0.55,0.72 -0.19,0.2 -0.5,0.37 -0.91,0.51 -0.39,0.13 -0.92,0.23 -1.56,0.29 -0.64,0.06 -1.5,0.08 -2.57,0.08 -1.11,0 -2,-0.04 -2.7,-0.14 -0.7,-0.1 -1.23,-0.27 -1.54,-0.49 -0.33,-0.23 -0.49,-0.52 -0.47,-0.89 0.02,-0.35 0.22,-0.8 0.55,-1.34l15.98 -25.03 -15.12 -24.14c-0.3,-0.54 -0.47,-0.99 -0.49,-1.34 -0.02,-0.37 0.15,-0.66 0.52,-0.92 0.35,-0.25 0.9,-0.4 1.66,-0.48 0.74,-0.08 1.71,-0.12 2.92,-0.12 1.11,0 1.98,0.02 2.66,0.08 0.66,0.06 1.19,0.15 1.56,0.27 0.39,0.1 0.66,0.25 0.86,0.45 0.19,0.19 0.37,0.43 0.52,0.68l11.68 19.11 11.87 -19.11c0.14,-0.23 0.32,-0.43 0.51,-0.62 0.19,-0.2 0.45,-0.35 0.76,-0.49 0.33,-0.14 0.78,-0.23 1.38,-0.29 0.58,-0.06 1.4,-0.08 2.41,-0.08 1.11,0 2.01,0.04 2.71,0.12 0.72,0.08 1.23,0.21 1.58,0.43 0.35,0.21 0.48,0.5 0.44,0.87 -0.04,0.39 -0.21,0.86 -0.56,1.44l-14.99 23.85 15.85 25.32z"/>
  </g>
  <circle class="fil1 str0" cx="-977.65" cy="-1486.06" r="533.08"/>
  <g id="_2563125107760">
   <path class="fil7" d="M-1309.1 -1493.74c-4.72,13.05 -13.97,21.71 -21.37,33.11l33.71 0.15 38.92 -55.69c5.82,7.07 19.17,27.3 20.11,36.75 -37.8,0 -37.18,-4.76 -48.34,19.41l100.73 -0.14c-5.79,-12.15 -18.1,-26.35 -26.96,-39.02 -18.38,-26.29 -39.42,-73.69 -68.45,-31.91 -7.11,10.23 -19.7,29.69 -28.35,37.34z"/>
   <path class="fil7" d="M-1342.41 -1427.63c10.21,4 122.81,3.07 144.23,1.18 5.13,-9.18 6.61,-7.06 11.51,-16.78l-145.41 -0.11c-5.34,6.39 -6.25,7.52 -10.33,15.71z"/>
   <path class="fil8" d="M-1198.18 -1426.45l711.32 0.73 0 -17.61 -699.81 0.1c-4.9,9.72 -6.38,7.6 -11.51,16.78z"/>
   <path class="fil8" d="M-1468.45 -1464.56l0 3.78c57.22,1.53 26.14,-3.11 45.16,-37.77 12.48,10.78 18.25,40.54 41.66,38.25 21.29,-2.09 24.29,-30.05 36.7,-41.85l14.46 41.52c7.4,-11.4 16.65,-20.06 21.37,-33.11 -20.37,-28.64 -2.21,-53.62 -40.02,-53.13 -8.86,9.82 -12.01,13.08 -18.83,24.92 -5.55,9.65 -9.12,17.77 -16.2,25.71 -14.86,-11.6 -27.08,-64.22 -53.88,-47.83 -15.12,9.24 -19.6,62.63 -30.42,79.51z"/>
   <path class="fil8" d="M-826.23 -1520.07c5.15,-5.77 -3.6,-2.64 11.04,-4.62 2.11,-0.28 12.29,0.01 15.11,0.05 54.38,0.85 41,0.73 59.02,-21.56l-86.04 -1.02c-37.3,0 -35.19,40.21 -18.6,48.68 10.68,5.46 29.63,2.66 42.69,2.6 32.45,-0.14 32.86,-3.9 39.59,5.98 -5.31,9.93 -10.67,7.16 -24.41,7.05 -47.64,-0.38 -51.4,-5.2 -66.81,22.5l72.73 0.24c20.56,0.04 37.55,2.91 43.33,-16.46 18.5,-61.96 -65.9,-35.02 -87.65,-43.44z"/>
   <path class="fil8" d="M-486.86 -1476.21l0 -25.5c-13.18,-15.31 -11.75,-16.31 -39.06,-16.45 -14.88,-0.07 -38.32,3.73 -50.41,-1.91 4.07,-4.02 5.04,-4.11 16.93,-4.38 56.96,-1.3 48.46,9.59 68.44,-21.63 -19.45,-2.57 -47.62,-0.68 -68.18,-0.79 -23.59,-0.13 -41.41,-2.4 -46.48,19.47 -8.94,38.56 32.45,32.29 67.74,31.72 29.03,-0.47 22.61,2.23 24.34,8.73 -29.24,20.53 -66.59,-20.31 -91.44,26.96 22.31,0.04 44.63,-0.05 66.94,0.02 33.21,0.11 33.39,3.78 51.18,-16.24z"/>
   <path class="fil8" d="M-870.51 -1461.13c-9.62,-7.43 -11.22,-12.12 -23.13,-19.2l12.39 -12.62c3.68,-4.72 6.16,-10.02 6.64,-18.16 2.73,-46.77 -52.2,-35.74 -103.04,-35.74 -9.53,3.74 -16.17,14.14 -17.6,22.49 17.9,0 35.83,0.09 53.73,-0.01 13.69,-0.08 41.83,-5.35 39.41,13.07 -1.87,14.17 -30.72,9.04 -45.43,9.05 -16.5,0.01 -33.89,-1.2 -50.2,1.33l0.02 40.56 25.62 0.19 1.65 -22.49c45.92,0.61 35.34,-2.91 61.14,22.79l38.8 -1.26z"/>
   <path class="fil8" d="M-1020.84 -1524.36c5.65,-6.5 11.77,-14.38 15.36,-22.2l-95 0.05 0.03 86.12 11.39 0.42c67.54,1.22 71.59,6.3 82.27,-19.52 -58.35,0 -68.81,7.35 -66.98,-12.66l52.07 -0.09c4.28,-9.63 8.47,-13 13.02,-21.65l-56.47 -0.68c-13.09,-2.6 -6.96,4.09 -9.61,-9.79l53.92 0z"/>
   <path class="fil8" d="M-732.95 -1546.29c49.94,59.65 51.74,36.34 53.01,86.32l25.05 0c1.01,-38.18 -2.49,-27.28 19.26,-49.21 5.07,-5.12 29.21,-31.9 31.96,-37.82 -55.58,-0.29 -32.74,5.21 -63.85,31.49 -30.36,-19.78 -10.92,-36.23 -65.43,-30.78z"/>
   <path class="fil8" d="M-1107.84 -1546.78l-89.89 -0.04c-5.23,9.4 -8.22,9.92 -13.27,22.41l36.14 0.57 0.8 63.62 25.53 0.25 0.04 -63.86 28.26 -0.48 12.39 -22.47z"/>
   <path class="fil8" d="M-1468.45 -1425.72c24.53,0 110.79,4.62 126.04,-1.91 4.08,-8.19 4.99,-9.32 10.33,-15.71l-136.37 0.01 0 17.61z"/>
  </g>
  <g id="_2274266728000">
   <circle class="fil1 str0" cx="-670.52" cy="-2908.58" r="533.08"/>
   <g id="_2563028161840">
    <path class="fil9" d="M-1099.23 -3076.27c10.69,1.75 9.47,1.42 20.02,-1.19l12.93 -2.7c35.47,-5.2 63.14,-2.25 97.95,1 -0.57,0.04 -12.35,4.4 -13.72,5.02 -7.61,3.45 -4.18,2.23 -6.36,3.74 -6.47,4.48 2.16,1.19 -5.04,3.04l-13.69 2.97c-6.14,1.06 -8.57,-0.36 -17.48,-0.92l-4.13 8.43c-0.2,0.39 -0.6,1.22 -0.97,1.79l-15.29 0.51 -4.81 9.44c-10.29,14.48 -19.1,14.32 -21.17,15.69l-9.15 10.18c-14.7,15.63 -9.13,20.15 -15.39,30.35 -3.13,5.11 -3.93,4.12 -6.42,6.53 -6.41,6.17 -6.16,8.27 -7.16,15.58 -1.03,7.5 0.46,9.3 1.81,20.5l-7.57 -6.93c-0.17,-0.1 -0.74,-0.36 -0.89,-0.42l-3.3 0.38c-15.74,-22.71 -10.28,-30.51 -21.51,-35.79 11.58,63.67 98.68,155.95 140.17,204.96l56.79 57.1c-3.74,-9.51 -12.48,-21.52 -19.08,-31.05 -42.73,-61.72 -127.12,-203.19 -48.05,-255.39 65.71,-43.38 194.82,-29.87 276.59,-19.29 24.96,3.23 69.82,14.48 90.6,14.54 -30.19,-6.87 -70.6,-20.48 -103.8,-29.13 -77.92,-20.29 -293.81,-65.63 -351.88,-28.94z"/>
    <path class="fil10" d="M-594.94 -2949.39c-0.22,-1.08 -1.09,-6.8 -1.09,-6.83l-3.06 -8.13 -28.49 -0.21 0.94 114.89 31.29 -0.31c1.91,-26.98 -4.26,-64.35 2.39,-87.02 10.79,-5.09 18.1,-7.16 22.86,7.98l17.79 0.14c-2,36.56 -0.26,64.39 30.28,76.81 74.72,30.39 110.71,-64.1 64.44,-102.79 -10.46,-8.75 -25.06,-13.1 -42.23,-12.33 -24.62,1.11 -26.8,7.99 -40.67,17.04 -0.46,-0.48 -1.13,-1.93 -1.34,-1.49l-3.87 -4.36c-17.18,-18.82 -38.24,-11.39 -49.24,6.61z"/>
    <path class="fil11" d="M-838.85 -2961.97c-61.68,7.05 -17.39,-14.63 -100.73,2.01l0 20.08c21.97,-5 53.04,-20.06 53.59,15.7 -37.22,-10.52 -70.98,-1.75 -70.19,39.47 0.8,42 48.49,45.91 69.19,22.93 3.37,7.07 -0.11,5.55 5.06,11.95l27.03 -0.09c0.97,-13.77 -1.78,-88.9 1,-94.14l13.49 0.05c3.43,51.62 -13.78,112.74 61.69,91.32l0.35 -17.87 -23.62 1.05c-8.41,-12.9 -6.94,-55.7 -5.44,-74.22l29.24 -0.34 0.85 -17.48 -29.43 -0.64 -0.93 -37.78 -21.13 0.24 -10.02 37.76z"/>
    <path class="fil12" d="M-681.22 -2866.37c3.34,42.73 -39.06,29.04 -66.05,24.23l-0.06 21.12c31.93,17.51 80.62,6.11 92.57,-19.95 8.09,-17.66 6.09,-98.61 5.12,-123.55 -18.33,-0.16 -24.17,-3.25 -33.54,6.31 -18.11,-12.86 -75.02,-18.7 -74.28,53.14 0.4,38.66 18.34,60.04 53.35,52.83 11.49,-2.37 14.98,-7.36 22.89,-14.13z"/>
    <path class="fil10" d="M-265.29 -2953.35c-0.42,-0.53 -0.74,-2.22 -0.92,-1.81 -1.56,3.75 1.2,-8.02 -9.27,-9.23l-24.16 0.8 -0.31 146.84 31.74 0.73 0.4 -38.37c91.01,30.71 83.1,-88.58 53.55,-106.71 -19.24,-11.79 -39.43,-3.42 -51.03,7.75z"/>
    <path class="fil13" d="M-1099.23 -3076.27c-17.69,2.11 -34.49,17.45 -41.33,29.74 -8.81,15.83 -8.11,44.91 -0.01,57.46 11.23,5.28 5.77,13.08 21.51,35.79l3.3 -0.38c0.15,0.06 0.72,0.32 0.89,0.42l7.57 6.93c-1.35,-11.2 -2.84,-13 -1.81,-20.5 1,-7.31 0.75,-9.41 7.16,-15.58 2.49,-2.41 3.29,-1.42 6.42,-6.53 6.26,-10.2 0.69,-14.72 15.39,-30.35l9.15 -10.18c2.07,-1.37 10.88,-1.21 21.17,-15.69l4.81 -9.44 15.29 -0.51c0.37,-0.57 0.77,-1.4 0.97,-1.79l4.13 -8.43c8.91,0.56 11.34,1.98 17.48,0.92l13.69 -2.97c7.2,-1.85 -1.43,1.44 5.04,-3.04 2.18,-1.51 -1.25,-0.29 6.36,-3.74 1.37,-0.62 13.15,-4.98 13.72,-5.02 -34.81,-3.25 -62.48,-6.2 -97.95,-1l-12.93 2.7c-10.55,2.61 -9.33,2.94 -20.02,1.19z"/>
    <path class="fil14" d="M-357.02 -2862.44c4.46,5.13 2.85,5.77 5.09,12.02l29.51 0.69 0.65 -113.73 -32.04 -0.45 -0.09 83.81c-12.77,6.04 -16.51,9.54 -31.69,5.6 -8.27,-21.71 -2.7,-62.82 -3.88,-89.59l-32.1 -0.14c0.66,23.7 -2.82,74.41 1.57,94.1 7.69,34.47 44.17,23.85 62.98,7.69z"/>
    <path class="fil15" d="M-499.9 -2946.85c-19.06,4.5 -21.02,24.11 -20.37,44.37 0.65,20.35 6.6,40.13 29.8,34.75 29.94,-6.93 25.86,-87.45 -9.43,-79.12z"/>
    <path class="fil15" d="M-267.79 -2933.79c-0.34,10.21 -1.54,48.54 0.55,56.21 4.67,17.09 29.27,14.22 35.49,-1.46 4.23,-10.67 4.65,-42.04 0.7,-52.78 -7.93,-21.51 -25.54,-8.78 -36.74,-1.97z"/>
    <path class="fil15" d="M-712.8 -2942.59c-12.77,9.4 -13.29,23.59 -10.86,44.95 1.96,17.28 13.46,31.51 30.88,21.39 17.35,-10.07 17.26,-93.77 -20.02,-66.34z"/>
    <path class="fil16" d="M-908.13 -2911.49c-24.07,3.97 -21.88,47.69 7.88,41.91 22.22,-4.31 20.49,-46.6 -7.88,-41.91z"/>
   </g>
  </g>
  <path class="fil17" d="M83.14 306.59c2.57,0 4.36,-0.25 5.36,-0.74l0.25 0.06 -0.63 15.64 -46.68 0 0 -83.33c1.13,0.09 2.36,0.15 3.75,0.19l4.36 0.13c2.91,0.09 6.06,0.11 9.46,0.11 9.51,0 18.94,-0.15 28.23,-0.49 -0.44,3.66 -0.68,8.53 -0.68,14.66 0,0.66 0.05,1.14 0.13,1.48l-0.13 0.2c-2.17,-0.64 -5.23,-0.94 -9.23,-0.94l-19.61 0 0 15.89 14.76 0c4.57,0 7.32,-0.13 8.23,-0.38l0.17 15.4c-1.98,-0.21 -4.55,-0.32 -7.72,-0.32l-15.44 0 0 22.44 25.42 0zm11.27 -50.18l17.64 0 15.21 42.89 14.72 -42.89 17.25 0 -25.74 65.14 -12.82 0 -26.26 -65.14zm68.95 32.91c0,-4.57 0.79,-8.93 2.34,-13.1 1.56,-4.19 3.79,-7.83 6.71,-10.96 6.36,-6.72 14.59,-10.08 24.74,-10.08 10.1,0 18.1,3.17 24.06,9.53 5.68,6.06 8.53,13.93 8.53,23.61 0,9.7 -2.94,17.7 -8.79,24.06 -6.19,6.74 -14.4,10.11 -24.61,10.11 -10.55,0 -18.83,-3.3 -24.81,-9.92 -5.44,-6.02 -8.17,-13.76 -8.17,-23.25zm15.15 -0.36c0,2.62 0.43,5.15 1.3,7.59 0.87,2.45 2.13,4.56 3.74,6.3 3.45,3.79 7.98,5.68 13.6,5.68 5.19,0 9.27,-1.85 12.27,-5.55 2.92,-3.58 4.36,-8.23 4.36,-13.96 0,-5.83 -1.49,-10.51 -4.49,-14.08 -3.19,-3.83 -7.57,-5.74 -13.14,-5.74 -5.66,0 -10.09,2.04 -13.28,6.1 -2.91,3.75 -4.36,8.3 -4.36,13.66zm78.65 25.61c0,3.58 0.09,5.9 0.26,6.98l-15.83 0 0 -92.86 15.57 0 0 85.88zm12.78 -25.25c0,-4.57 0.79,-8.93 2.34,-13.1 1.56,-4.19 3.79,-7.83 6.71,-10.96 6.36,-6.72 14.59,-10.08 24.74,-10.08 10.1,0 18.1,3.17 24.06,9.53 5.68,6.06 8.53,13.93 8.53,23.61 0,9.7 -2.94,17.7 -8.79,24.06 -6.19,6.74 -14.4,10.11 -24.61,10.11 -10.55,0 -18.83,-3.3 -24.81,-9.92 -5.44,-6.02 -8.17,-13.76 -8.17,-23.25zm15.15 -0.36c0,2.62 0.43,5.15 1.3,7.59 0.87,2.45 2.13,4.56 3.74,6.3 3.45,3.79 7.98,5.68 13.6,5.68 5.19,0 9.27,-1.85 12.27,-5.55 2.92,-3.58 4.36,-8.23 4.36,-13.96 0,-5.83 -1.49,-10.51 -4.49,-14.08 -3.19,-3.83 -7.57,-5.74 -13.14,-5.74 -5.66,0 -10.09,2.04 -13.28,6.1 -2.91,3.75 -4.36,8.3 -4.36,13.66zm63.95 -44.7c0,-1.36 -0.06,-3.23 -0.19,-5.61l59.1 0 -36.29 67.94 22.63 0c5.89,0 9.38,-0.17 10.45,-0.53 1.04,-0.36 1.89,-0.68 2.51,-0.95l0 17.38c-1.79,-0.17 -3.26,-0.32 -4.43,-0.45 -1.15,-0.11 -2.38,-0.21 -3.68,-0.3 -1.93,-0.13 -5.72,-0.19 -11.34,-0.19l-41.93 0 37.51 -67.93 -19.64 0c-8.08,0 -13.25,0.43 -15.44,1.3 0.49,-2.08 0.74,-5 0.74,-8.78l0 -1.88zm72.36 -6.42c3.32,-5.19 6.79,-9.77 10.4,-13.7l13.4 10.53c-1.78,2.21 -3.44,4.36 -4.97,6.49 0,0 -1.62,2.25 -4.81,6.78l-14.02 -10.1zm16.38 76.73c0,3.58 0.08,5.9 0.25,6.98l-15.82 0 0 -65.14 15.57 0 0 58.16zm14.46 -25.06c0,-4.85 0.83,-9.36 2.49,-13.53 1.66,-4.15 4.02,-7.78 7.04,-10.89 6.49,-6.62 14.98,-9.91 25.44,-9.91 8.85,0 15.96,2.93 21.32,8.78 5.28,5.66 7.91,12.77 7.91,21.32 0,3.28 -0.25,5.53 -0.74,6.72 -4.17,1.17 -12.62,1.75 -25.38,1.75l-21.93 0c1.08,4.44 3.59,7.91 7.53,10.38 3.96,2.46 9.08,3.7 15.4,3.7 6.62,0 12.28,-1.17 17.02,-3.55 1.25,-0.62 2.17,-1.2 2.81,-1.75 -0.09,1.75 -0.19,3.53 -0.32,5.36l-0.68 9.72c-3.17,2.17 -8.28,3.66 -15.34,4.49 -2.06,0.26 -4.06,0.39 -5.98,0.39 -10.55,0 -19.27,-3.09 -26.19,-9.24 -6.93,-6.19 -10.4,-14.1 -10.4,-23.74zm47.61 -7.85c-1.7,-8.93 -6.55,-13.4 -14.57,-13.4 -6.32,0 -11.13,2.72 -14.4,8.17 -1,1.66 -1.77,3.49 -2.3,5.49 1,0.04 2.21,0.08 3.68,0.13l4.59 0c1.56,0.04 3.03,0.06 4.43,0.06l3.55 0c2.13,0 4.21,-0.02 6.24,-0.06l5.12 -0.2c1.36,-0.04 2.6,-0.1 3.66,-0.19zm59.04 26.17c5.36,0 9.04,-1.38 11.04,-4.17l0.49 0 0.19 14.46c-2.04,2.05 -5.83,3.39 -11.34,4.05 -1.51,0.21 -3.36,0.32 -5.59,0.32 -2.22,0 -4.62,-0.43 -7.21,-1.26 -2.62,-0.83 -4.83,-2.17 -6.64,-4.04 -3.79,-3.87 -5.68,-9.91 -5.68,-18.15l0 -28.29 -9.4 0c-0.05,-1.19 -0.07,-2.43 -0.07,-3.68l0 -9.6c0,-0.7 0.02,-1.06 0.07,-1.06l9.4 0 0 -17.76 15.27 0 0 17.76 17.13 0 0 14.34 -17.13 0 0 25.44c0,6.51 1.81,10.23 5.43,11.15 1.15,0.34 2.51,0.49 4.04,0.49zm21.25 -18.32c0,-4.85 0.83,-9.36 2.49,-13.53 1.66,-4.15 4.02,-7.78 7.04,-10.89 6.49,-6.62 14.98,-9.91 25.44,-9.91 8.85,0 15.96,2.93 21.32,8.78 5.28,5.66 7.91,12.77 7.91,21.32 0,3.28 -0.25,5.53 -0.74,6.72 -4.17,1.17 -12.62,1.75 -25.38,1.75l-21.93 0c1.08,4.44 3.59,7.91 7.53,10.38 3.96,2.46 9.08,3.7 15.4,3.7 6.62,0 12.28,-1.17 17.02,-3.55 1.25,-0.62 2.17,-1.2 2.81,-1.75 -0.09,1.75 -0.19,3.53 -0.32,5.36l-0.68 9.72c-3.17,2.17 -8.28,3.66 -15.34,4.49 -2.06,0.26 -4.06,0.39 -5.98,0.39 -10.55,0 -19.27,-3.09 -26.19,-9.24 -6.93,-6.19 -10.4,-14.1 -10.4,-23.74zm47.61 -7.85c-1.7,-8.93 -6.55,-13.4 -14.57,-13.4 -6.32,0 -11.13,2.72 -14.4,8.17 -1,1.66 -1.77,3.49 -2.3,5.49 1,0.04 2.21,0.08 3.68,0.13l4.59 0c1.56,0.04 3.03,0.06 4.43,0.06l3.55 0c2.13,0 4.21,-0.02 6.24,-0.06l5.12 -0.2c1.36,-0.04 2.6,-0.1 3.66,-0.19z"/>
  <path class="fil17" d="M158.35 438.14c0,2.59 0.07,4.28 0.19,5.07l-11.51 0 0 -67.53 11.32 0 0 62.46zm44.02 2.25c-4.29,2.34 -8.17,3.5 -11.65,3.5 -3.47,0 -6.46,-0.32 -8.93,-0.97 -2.48,-0.65 -4.58,-1.61 -6.3,-2.88 -3.51,-2.57 -5.26,-6.28 -5.26,-11.16 0,-4.34 2.15,-7.96 6.44,-10.87 4.66,-3.14 10.97,-4.72 18.95,-4.72l1.81 0.04c0.36,0.04 0.77,0.07 1.22,0.08 0.45,0.02 0.87,0.05 1.23,0.11 -0.25,-4.83 -2.33,-7.66 -6.25,-8.48 -1.3,-0.26 -2.7,-0.4 -4.15,-0.4 -1.47,0 -2.91,0.12 -4.32,0.39 -1.39,0.24 -2.77,0.58 -4.1,1.02 -2.92,0.93 -5.03,2.01 -6.29,3.22l-0.14 -0.1 -1.37 -10.02c5.36,-2.8 11.21,-4.21 17.55,-4.21 9.85,0 16.15,3.54 18.91,10.64 0.86,2.28 1.31,4.83 1.31,7.66l0 16.42c0,3.51 1.24,5.89 3.71,7.16l-8.2 7.52c-1.73,-0.9 -3.11,-2.21 -4.17,-3.95zm-2.45 -18.72c-0.82,-0.14 -1.65,-0.21 -2.54,-0.21l-1.81 0c-6.68,0 -10.92,1.47 -12.73,4.44 -0.56,0.86 -0.82,1.79 -0.82,2.77 0,0.96 0.17,1.81 0.51,2.55 0.36,0.74 0.95,1.35 1.75,1.84 1.58,0.9 3.91,1.36 7.01,1.36 3.09,0 5.99,-0.74 8.68,-2.23 -0.03,-0.32 -0.05,-0.68 -0.05,-1.03l0 -9.49zm66.71 16.47c0,2.59 0.06,4.28 0.18,5.07l-11.29 0 0 -47.37 11.11 0 0 3.49c2.57,-2.92 5.26,-4.39 8.09,-4.39 2.83,0 5.06,0.34 6.68,1.04l-0.82 12.19 -0.17 0.14c-1.06,-1.88 -3.24,-2.82 -6.57,-2.82 -1.27,0 -2.57,0.43 -3.88,1.3 -1.32,0.87 -2.42,2 -3.33,3.42l0 27.93zm18.04 -18.23c0,-3.53 0.61,-6.81 1.81,-9.84 1.21,-3.02 2.93,-5.66 5.13,-7.92 4.71,-4.81 10.89,-7.21 18.5,-7.21 6.44,0 11.6,2.13 15.5,6.39 3.84,4.11 5.76,9.28 5.76,15.5 0,2.38 -0.19,4.02 -0.54,4.89 -3.04,0.85 -9.18,1.27 -18.46,1.27l-15.95 0c0.79,3.23 2.61,5.75 5.47,7.55 2.88,1.79 6.61,2.69 11.21,2.69 4.81,0 8.92,-0.85 12.37,-2.58 0.92,-0.45 1.58,-0.87 2.04,-1.27 -0.06,1.27 -0.13,2.57 -0.23,3.9l-0.49 7.07c-2.31,1.58 -6.02,2.66 -11.16,3.26 -1.5,0.19 -2.95,0.28 -4.34,0.28 -7.68,0 -14.02,-2.24 -19.05,-6.71 -5.04,-4.51 -7.57,-10.26 -7.57,-17.27zm34.63 -5.71c-1.24,-6.5 -4.77,-9.75 -10.6,-9.75 -4.59,0 -8.09,1.98 -10.47,5.94 -0.73,1.21 -1.29,2.54 -1.67,4 0.72,0.03 1.61,0.06 2.67,0.09l3.34 0c1.13,0.03 2.2,0.05 3.22,0.05l2.59 0c1.54,0 3.06,-0.02 4.53,-0.05l3.73 -0.14c0.99,-0.03 1.89,-0.08 2.66,-0.14zm15.05 -18.36l12.83 0 11.06 31.19 10.71 -31.19 12.55 0 -18.72 47.37 -9.33 0 -19.1 -47.37zm52.14 -13.51c2.42,-3.78 4.94,-7.1 7.57,-9.96l9.75 7.65c-1.3,1.61 -2.51,3.18 -3.62,4.72 0,0 -1.18,1.64 -3.5,4.94l-10.2 -7.35zm11.92 55.81c0,2.59 0.06,4.28 0.18,5.07l-11.51 0 0 -47.37 11.33 0 0 42.3zm28.74 5.75c-8.53,0 -14.95,-1.56 -19.26,-4.67 0.06,-0.9 0.15,-1.94 0.26,-3.08l0.42 -3.27c0.23,-2.15 0.38,-3.48 0.45,-4 0.06,-0.53 0.11,-0.82 0.14,-0.87 0.03,-0.05 0.26,0.2 0.72,0.73 0.45,0.52 1.32,1.17 2.59,1.92 1.27,0.76 2.72,1.42 4.39,1.99 3.59,1.24 7.35,1.86 11.23,1.86 5.23,0 7.85,-1.73 7.85,-5.2 0,-1.13 -0.5,-1.95 -1.49,-2.51 -1.79,-0.89 -4.41,-1.59 -7.87,-2.05 -3.45,-0.47 -6.28,-1.16 -8.5,-2.06 -2.21,-0.91 -4,-2 -5.4,-3.27 -2.56,-2.38 -3.85,-5.52 -3.85,-9.39 0,-4.7 1.83,-8.4 5.45,-11.09 3.59,-2.66 8.57,-3.99 14.91,-3.99 6.28,0 11.65,1.78 16.09,5.35 -0.21,0.78 -0.45,1.53 -0.68,2.26 -0.69,2 -1.21,3.44 -1.55,4.3l-1.03 2.68c-0.06,0.25 -0.11,0.37 -0.14,0.37 -0.06,0 -0.3,-0.33 -0.73,-0.96 -1.9,-2.2 -4.86,-3.65 -8.88,-4.35 -1.24,-0.24 -2.51,-0.37 -3.81,-0.37 -5.5,0 -8.24,1.67 -8.24,5 0,1.14 0.57,2.03 1.72,2.63 2.15,1.14 5.09,1.99 8.81,2.54 3.73,0.54 6.56,1.26 8.5,2.19 1.93,0.92 3.5,2.03 4.67,3.33 2.18,2.35 3.27,5.49 3.27,9.39 0,4.26 -1.72,7.72 -5.13,10.37 -3.57,2.81 -8.54,4.22 -14.91,4.22zm51.58 -10.66c3.9,0 6.58,-1 8.03,-3.03l0.36 0 0.14 10.52c-1.49,1.48 -4.24,2.46 -8.25,2.94 -1.1,0.15 -2.44,0.23 -4.07,0.23 -1.61,0 -3.35,-0.31 -5.24,-0.91 -1.9,-0.61 -3.51,-1.58 -4.83,-2.94 -2.75,-2.82 -4.13,-7.21 -4.13,-13.2l0 -20.58 -6.84 0c-0.03,-0.86 -0.04,-1.76 -0.04,-2.67l0 -6.98c0,-0.51 0.01,-0.77 0.04,-0.77l6.84 0 0 -12.92 11.11 0 0 12.92 12.45 0 0 10.42 -12.45 0 0 18.51c0,4.73 1.31,7.44 3.94,8.1 0.84,0.25 1.83,0.36 2.94,0.36zm49.01 7.16c-4.29,2.34 -8.17,3.5 -11.65,3.5 -3.47,0 -6.46,-0.32 -8.93,-0.97 -2.48,-0.65 -4.58,-1.61 -6.3,-2.88 -3.51,-2.57 -5.26,-6.28 -5.26,-11.16 0,-4.34 2.15,-7.96 6.44,-10.87 4.66,-3.14 10.97,-4.72 18.95,-4.72l1.81 0.04c0.36,0.04 0.77,0.07 1.22,0.08 0.45,0.02 0.87,0.05 1.23,0.11 -0.25,-4.83 -2.33,-7.66 -6.25,-8.48 -1.3,-0.26 -2.7,-0.4 -4.15,-0.4 -1.47,0 -2.91,0.12 -4.32,0.39 -1.39,0.24 -2.77,0.58 -4.1,1.02 -2.92,0.93 -5.03,2.01 -6.29,3.22l-0.14 -0.1 -1.37 -10.02c5.36,-2.8 11.21,-4.21 17.55,-4.21 9.85,0 16.15,3.54 18.91,10.64 0.86,2.28 1.31,4.83 1.31,7.66l0 16.42c0,3.51 1.24,5.89 3.71,7.16l-8.2 7.52c-1.73,-0.9 -3.11,-2.21 -4.17,-3.95zm-2.45 -18.72c-0.82,-0.14 -1.65,-0.21 -2.54,-0.21l-1.81 0c-6.68,0 -10.92,1.47 -12.73,4.44 -0.56,0.86 -0.82,1.79 -0.82,2.77 0,0.96 0.17,1.81 0.51,2.55 0.36,0.74 0.95,1.35 1.75,1.84 1.58,0.9 3.91,1.36 7.01,1.36 3.09,0 5.99,-0.74 8.68,-2.23 -0.03,-0.32 -0.05,-0.68 -0.05,-1.03l0 -9.49zm-352.77 93.24c-3.84,2.15 -7.68,3.22 -11.51,3.22 -3.84,0 -7.2,-0.6 -10.06,-1.81 -2.88,-1.21 -5.32,-2.88 -7.35,-5 -4.16,-4.34 -6.25,-9.99 -6.25,-16.94 0,-7.19 2.42,-13.18 7.26,-17.95 4.86,-4.84 11.08,-7.25 18.67,-7.25 2.32,0 4.6,0.29 6.84,0.9l0 -20.16 11.11 0 0 48.45c0,4.01 0.18,6.64 0.56,7.88 0.38,1.24 0.8,2.15 1.26,2.72 0.48,0.57 1.07,1.12 1.8,1.64l-8.53 7.52c-1.56,-0.85 -2.83,-1.92 -3.8,-3.22zm-9.38 -7.21c2.54,0 4.86,-0.48 6.98,-1.45l0 -25.11c-2.12,-0.87 -4.41,-1.32 -6.88,-1.32 -2.5,0 -4.61,0.34 -6.38,1.01 -1.76,0.66 -3.28,1.58 -4.55,2.75 -2.66,2.49 -3.99,5.71 -3.99,9.66 0,4.33 1.21,7.76 3.62,10.33 2.6,2.76 6.33,4.13 11.2,4.13zm28.87 -13.55c0,-3.53 0.61,-6.81 1.81,-9.84 1.21,-3.02 2.93,-5.66 5.13,-7.92 4.71,-4.81 10.89,-7.21 18.5,-7.21 6.44,0 11.6,2.13 15.5,6.39 3.84,4.11 5.76,9.28 5.76,15.5 0,2.38 -0.19,4.02 -0.54,4.89 -3.04,0.85 -9.18,1.27 -18.46,1.27l-15.95 0c0.79,3.23 2.61,5.75 5.47,7.55 2.88,1.79 6.61,2.69 11.21,2.69 4.81,0 8.92,-0.85 12.37,-2.58 0.92,-0.45 1.58,-0.87 2.04,-1.27 -0.06,1.27 -0.13,2.57 -0.23,3.9l-0.49 7.07c-2.31,1.58 -6.02,2.66 -11.16,3.26 -1.5,0.19 -2.95,0.28 -4.34,0.28 -7.68,0 -14.02,-2.24 -19.05,-6.71 -5.04,-4.51 -7.57,-10.26 -7.57,-17.27zm34.63 -5.71c-1.24,-6.5 -4.77,-9.75 -10.6,-9.75 -4.59,0 -8.09,1.98 -10.47,5.94 -0.73,1.21 -1.29,2.54 -1.67,4 0.72,0.03 1.61,0.06 2.67,0.09l3.34 0c1.13,0.03 2.2,0.05 3.22,0.05l2.59 0c1.54,0 3.06,-0.02 4.53,-0.05l3.73 -0.14c0.99,-0.03 1.89,-0.08 2.66,-0.14zm64.92 15.91c0,6.8 0.1,11.17 0.35,13.1l-11.83 0 0 -47.37 11.48 0 0 4.08c4.13,-3.33 8.38,-4.98 12.73,-4.98 5.14,0 8.86,2.21 11.2,6.65 2.32,-2.38 4.26,-3.94 5.8,-4.7 2.57,-1.3 5.14,-1.95 7.72,-1.95 2.59,0 4.78,0.43 6.59,1.31 1.83,0.87 3.32,2.12 4.49,3.72 2.4,3.23 3.59,7.67 3.59,13.32l0 18.04c0,5.1 0.08,8.18 0.22,9.2 0.15,1.04 0.35,1.71 0.62,2 0.26,0.31 0.48,0.57 0.66,0.82l-0.09 0.18c-2.43,-0.21 -4.21,-0.32 -5.35,-0.32l-3.41 0c-1.11,0 -2.49,0.05 -4.11,0.14l0 -24.52c0,-7.07 -1.1,-11.28 -3.27,-12.61 -0.73,-0.42 -1.58,-0.64 -2.57,-0.64 -0.97,0 -1.84,0.13 -2.6,0.34 -0.75,0.24 -1.47,0.61 -2.13,1.12 -1.12,0.82 -2.38,2.41 -3.81,4.81 0.03,0.23 0.05,0.48 0.05,0.73 0,0.23 0,4.22 0,11.96 0,7.73 0.18,13.95 0.54,18.67 -2.57,0 -4.75,0 -6.54,0 -1.81,0 -3.52,0.05 -5.16,0.14l0 -24.57c0,-4.94 -0.29,-8.14 -0.88,-9.61 -0.59,-1.48 -1.22,-2.44 -1.89,-2.91 -0.66,-0.45 -1.47,-0.68 -2.44,-0.68 -3.99,0 -7.3,1.92 -9.96,5.76l0 18.77zm62.99 -10.2c0,-3.53 0.61,-6.81 1.81,-9.84 1.21,-3.02 2.93,-5.66 5.13,-7.92 4.71,-4.81 10.89,-7.21 18.5,-7.21 6.44,0 11.6,2.13 15.5,6.39 3.84,4.11 5.76,9.28 5.76,15.5 0,2.38 -0.19,4.02 -0.54,4.89 -3.04,0.85 -9.18,1.27 -18.46,1.27l-15.95 0c0.79,3.23 2.61,5.75 5.47,7.55 2.88,1.79 6.61,2.69 11.21,2.69 4.81,0 8.92,-0.85 12.37,-2.58 0.92,-0.45 1.58,-0.87 2.04,-1.27 -0.06,1.27 -0.13,2.57 -0.23,3.9l-0.49 7.07c-2.31,1.58 -6.02,2.66 -11.16,3.26 -1.5,0.19 -2.95,0.28 -4.34,0.28 -7.68,0 -14.02,-2.24 -19.05,-6.71 -5.04,-4.51 -7.57,-10.26 -7.57,-17.27zm34.63 -5.71c-1.24,-6.5 -4.77,-9.75 -10.6,-9.75 -4.59,0 -8.09,1.98 -10.47,5.94 -0.73,1.21 -1.29,2.54 -1.67,4 0.72,0.03 1.61,0.06 2.67,0.09l3.34 0c1.13,0.03 2.2,0.05 3.22,0.05l2.59 0c1.54,0 3.06,-0.02 4.53,-0.05l3.73 -0.14c0.99,-0.03 1.89,-0.08 2.66,-0.14zm33.82 23.21c0,2.66 0.13,4.59 0.37,5.8l-11.38 0 0 -47.37 11.01 0 0 4.03c3.99,-3.29 8.25,-4.93 12.78,-4.93 4.97,0 8.93,1.68 11.88,5.06 2.96,3.35 4.44,7.8 4.44,13.29l0 18.04c0,5.1 0.08,8.18 0.24,9.2 0.13,1.04 0.35,1.71 0.6,2 0.26,0.31 0.48,0.57 0.66,0.82l-0.09 0.18c-2.44,-0.21 -4.24,-0.32 -5.35,-0.32l-3.17 0c-0.96,0 -2.26,0.05 -3.9,0.14l0 -24.71c0,-8.85 -2.69,-13.27 -8.06,-13.27 -3.99,0 -7.34,2.04 -10.03,6.15l0 25.89zm63.37 -4.18c3.9,0 6.58,-1 8.03,-3.03l0.36 0 0.14 10.52c-1.49,1.48 -4.24,2.46 -8.25,2.94 -1.1,0.15 -2.44,0.23 -4.07,0.23 -1.61,0 -3.35,-0.31 -5.24,-0.91 -1.9,-0.61 -3.51,-1.58 -4.83,-2.94 -2.75,-2.82 -4.13,-7.21 -4.13,-13.2l0 -20.58 -6.84 0c-0.03,-0.86 -0.04,-1.76 -0.04,-2.67l0 -6.98c0,-0.51 0.01,-0.77 0.04,-0.77l6.84 0 0 -12.92 11.11 0 0 12.92 12.45 0 0 10.42 -12.45 0 0 18.51c0,4.73 1.31,7.44 3.94,8.1 0.84,0.25 1.83,0.36 2.94,0.36zm15.46 -13.32c0,-3.53 0.61,-6.81 1.81,-9.84 1.21,-3.02 2.93,-5.66 5.13,-7.92 4.71,-4.81 10.89,-7.21 18.5,-7.21 6.44,0 11.6,2.13 15.5,6.39 3.84,4.11 5.76,9.28 5.76,15.5 0,2.38 -0.19,4.02 -0.54,4.89 -3.04,0.85 -9.18,1.27 -18.46,1.27l-15.95 0c0.79,3.23 2.61,5.75 5.47,7.55 2.88,1.79 6.61,2.69 11.21,2.69 4.81,0 8.92,-0.85 12.37,-2.58 0.92,-0.45 1.58,-0.87 2.04,-1.27 -0.06,1.27 -0.13,2.57 -0.23,3.9l-0.49 7.07c-2.31,1.58 -6.02,2.66 -11.16,3.26 -1.5,0.19 -2.95,0.28 -4.34,0.28 -7.68,0 -14.02,-2.24 -19.05,-6.71 -5.04,-4.51 -7.57,-10.26 -7.57,-17.27zm34.63 -5.71c-1.24,-6.5 -4.77,-9.75 -10.6,-9.75 -4.59,0 -8.09,1.98 -10.47,5.94 -0.73,1.21 -1.29,2.54 -1.67,4 0.72,0.03 1.61,0.06 2.67,0.09l3.34 0c1.13,0.03 2.2,0.05 3.22,0.05l2.59 0c1.54,0 3.06,-0.02 4.53,-0.05l3.73 -0.14c0.99,-0.03 1.89,-0.08 2.66,-0.14zm-310.61 100.43c-4.29,2.34 -8.17,3.5 -11.65,3.5 -3.47,0 -6.46,-0.32 -8.93,-0.97 -2.48,-0.65 -4.58,-1.61 -6.3,-2.88 -3.51,-2.57 -5.26,-6.28 -5.26,-11.16 0,-4.34 2.15,-7.96 6.44,-10.87 4.66,-3.14 10.97,-4.72 18.95,-4.72l1.81 0.04c0.36,0.04 0.77,0.07 1.22,0.08 0.45,0.02 0.87,0.05 1.23,0.11 -0.25,-4.83 -2.33,-7.66 -6.25,-8.48 -1.3,-0.26 -2.7,-0.4 -4.15,-0.4 -1.47,0 -2.91,0.12 -4.32,0.39 -1.39,0.24 -2.77,0.58 -4.1,1.02 -2.92,0.93 -5.03,2.01 -6.29,3.22l-0.14 -0.1 -1.37 -10.02c5.36,-2.8 11.21,-4.21 17.55,-4.21 9.85,0 16.15,3.54 18.91,10.64 0.86,2.28 1.31,4.83 1.31,7.66l0 16.42c0,3.51 1.24,5.89 3.71,7.16l-8.2 7.52c-1.73,-0.9 -3.11,-2.21 -4.17,-3.95zm-2.45 -18.72c-0.82,-0.14 -1.65,-0.21 -2.54,-0.21l-1.81 0c-6.68,0 -10.92,1.47 -12.73,4.44 -0.56,0.86 -0.82,1.79 -0.82,2.77 0,0.96 0.17,1.81 0.51,2.55 0.36,0.74 0.95,1.35 1.75,1.84 1.58,0.9 3.91,1.36 7.01,1.36 3.09,0 5.99,-0.74 8.68,-2.23 -0.03,-0.32 -0.05,-0.68 -0.05,-1.03l0 -9.49zm36.57 -24.1c3.39,-1.75 6.84,-2.63 10.39,-2.63 3.54,0 6.57,0.56 9.12,1.65 2.56,1.1 4.8,2.68 6.73,4.74 4.21,4.56 6.32,10.33 6.32,17.31 0,7.64 -2.29,13.82 -6.86,18.49 -4.38,4.5 -9.82,6.76 -16.35,6.76 -5.74,0 -10.48,-1.5 -14.19,-4.49 -4.18,-3.38 -6.27,-8.06 -6.27,-14l0 -49.63 11.11 0 0 21.8zm0 27.69c0,5.33 3.31,7.97 9.94,7.97 3.23,0 5.94,-1.41 8.15,-4.25 2.24,-2.9 3.36,-6.52 3.36,-10.83 0,-4.35 -1.18,-7.63 -3.55,-9.84 -2.1,-1.97 -4.95,-2.94 -8.51,-2.94 -2.15,0 -4.51,0.72 -7.11,2.16 -0.82,0.47 -1.58,0.96 -2.28,1.5l0 16.23zm41.03 -42.93c2.42,-3.78 4.94,-7.1 7.57,-9.96l9.75 7.65c-1.3,1.61 -2.51,3.18 -3.62,4.72 0,0 -1.18,1.64 -3.5,4.94l-10.2 -7.35zm11.92 55.81c0,2.59 0.06,4.28 0.18,5.07l-11.51 0 0 -47.37 11.33 0 0 42.3zm10.51 -18.23c0,-3.53 0.61,-6.81 1.81,-9.84 1.21,-3.02 2.93,-5.66 5.13,-7.92 4.71,-4.81 10.89,-7.21 18.5,-7.21 6.44,0 11.6,2.13 15.5,6.39 3.84,4.11 5.76,9.28 5.76,15.5 0,2.38 -0.19,4.02 -0.54,4.89 -3.04,0.85 -9.18,1.27 -18.46,1.27l-15.95 0c0.79,3.23 2.61,5.75 5.47,7.55 2.88,1.79 6.61,2.69 11.21,2.69 4.81,0 8.92,-0.85 12.37,-2.58 0.92,-0.45 1.58,-0.87 2.04,-1.27 -0.06,1.27 -0.13,2.57 -0.23,3.9l-0.49 7.07c-2.31,1.58 -6.02,2.66 -11.16,3.26 -1.5,0.19 -2.95,0.28 -4.34,0.28 -7.68,0 -14.02,-2.24 -19.05,-6.71 -5.04,-4.51 -7.57,-10.26 -7.57,-17.27zm34.63 -5.71c-1.24,-6.5 -4.77,-9.75 -10.6,-9.75 -4.59,0 -8.09,1.98 -10.47,5.94 -0.73,1.21 -1.29,2.54 -1.67,4 0.72,0.03 1.61,0.06 2.67,0.09l3.34 0c1.13,0.03 2.2,0.05 3.22,0.05l2.59 0c1.54,0 3.06,-0.02 4.53,-0.05l3.73 -0.14c0.99,-0.03 1.89,-0.08 2.66,-0.14zm32.6 23.94c0,2.59 0.06,4.28 0.18,5.07l-11.29 0 0 -47.37 11.11 0 0 3.49c2.57,-2.92 5.26,-4.39 8.09,-4.39 2.83,0 5.06,0.34 6.68,1.04l-0.82 12.19 -0.17 0.14c-1.06,-1.88 -3.24,-2.82 -6.57,-2.82 -1.27,0 -2.57,0.43 -3.88,1.3 -1.32,0.87 -2.42,2 -3.33,3.42l0 27.93zm41.34 -4.91c3.9,0 6.58,-1 8.03,-3.03l0.36 0 0.14 10.52c-1.49,1.48 -4.24,2.46 -8.25,2.94 -1.1,0.15 -2.44,0.23 -4.07,0.23 -1.61,0 -3.35,-0.31 -5.24,-0.91 -1.9,-0.61 -3.51,-1.58 -4.83,-2.94 -2.75,-2.82 -4.13,-7.21 -4.13,-13.2l0 -20.58 -6.84 0c-0.03,-0.86 -0.04,-1.76 -0.04,-2.67l0 -6.98c0,-0.51 0.01,-0.77 0.04,-0.77l6.84 0 0 -12.92 11.11 0 0 12.92 12.45 0 0 10.42 -12.45 0 0 18.51c0,4.73 1.31,7.44 3.94,8.1 0.84,0.25 1.83,0.36 2.94,0.36zm49.01 7.16c-4.29,2.34 -8.17,3.5 -11.65,3.5 -3.47,0 -6.46,-0.32 -8.93,-0.97 -2.48,-0.65 -4.58,-1.61 -6.3,-2.88 -3.51,-2.57 -5.26,-6.28 -5.26,-11.16 0,-4.34 2.15,-7.96 6.44,-10.87 4.66,-3.14 10.97,-4.72 18.95,-4.72l1.81 0.04c0.36,0.04 0.77,0.07 1.22,0.08 0.45,0.02 0.87,0.05 1.23,0.11 -0.25,-4.83 -2.33,-7.66 -6.25,-8.48 -1.3,-0.26 -2.7,-0.4 -4.15,-0.4 -1.47,0 -2.91,0.12 -4.32,0.39 -1.39,0.24 -2.77,0.58 -4.1,1.02 -2.92,0.93 -5.03,2.01 -6.29,3.22l-0.14 -0.1 -1.37 -10.02c5.36,-2.8 11.21,-4.21 17.55,-4.21 9.85,0 16.15,3.54 18.91,10.64 0.86,2.28 1.31,4.83 1.31,7.66l0 16.42c0,3.51 1.24,5.89 3.71,7.16l-8.2 7.52c-1.73,-0.9 -3.11,-2.21 -4.17,-3.95zm-2.45 -18.72c-0.82,-0.14 -1.65,-0.21 -2.54,-0.21l-1.81 0c-6.68,0 -10.92,1.47 -12.73,4.44 -0.56,0.86 -0.82,1.79 -0.82,2.77 0,0.96 0.17,1.81 0.51,2.55 0.36,0.74 0.95,1.35 1.75,1.84 1.58,0.9 3.91,1.36 7.01,1.36 3.09,0 5.99,-0.74 8.68,-2.23 -0.03,-0.32 -0.05,-0.68 -0.05,-1.03l0 -9.49z"/>
 </g>
</svg>
