<?xml version="1.0" encoding="UTF-8"?>
<!DOCTYPE svg PUBLIC "-//W3C//DTD SVG 1.1//EN" "http://www.w3.org/Graphics/SVG/1.1/DTD/svg11.dtd">
<!-- Creator: CorelDRAW 2017 -->
<svg xmlns="http://www.w3.org/2000/svg" xml:space="preserve" width="50.7998mm" height="33.8666mm" version="1.1" style="shape-rendering:geometricPrecision; text-rendering:geometricPrecision; image-rendering:optimizeQuality; fill-rule:evenodd; clip-rule:evenodd"
viewBox="0 0 5079.98 3386.66"
 xmlns:xlink="http://www.w3.org/1999/xlink">
 <defs>
  <style type="text/css">
   <![CDATA[
    .fil0 {fill:none}
    .fil4 {fill:#F19135}
    .fil1 {fill:#695037}
    .fil3 {fill:#3D9A50}
    .fil2 {fill:#29834B}
    .fil5 {fill:#374374}
    .fil6 {fill:black}
    .fil7 {fill:#F6F6F6}
   ]]>
  </style>
 </defs>
 <g id="Capa_x0020_1">
  <metadata id="CorelCorpID_0Corel-Layer"/>
  <rect class="fil0" x="-0" width="5079.99" height="3386.66"/>
  <g id="_1964437318256">
   <path class="fil1" d="M1512.25 3005.62c1.78,-39.49 -24.31,-22.96 -71.65,-54.66 -78.03,-52.25 -103.64,-61.99 -181,-128.75 -10.76,-9.28 -30.59,-28.39 -42.47,-16.53 -19.19,19.16 40.44,54.07 52.86,64.06 37.66,30.27 104.72,77.54 148.15,100.56 26.47,14.02 58,39.84 94.11,35.32z"/>
   <path class="fil1" d="M1630 2408.02c-4.33,35.33 19.97,35.18 67.45,67.17 13.92,9.38 28.48,16.09 42.08,24.14 8.77,5.2 35.74,26.73 49.19,13.25 15.38,-15.41 -13.12,-29.49 -23.29,-34.31l-85.09 -48.15c-16.47,-10.58 -26.56,-22.36 -50.34,-22.1z"/>
   <path class="fil2" d="M1943.85 1559.3c7.99,-9.51 18.87,-10.21 23.04,-18.5 8.25,-15.68 18.19,-14.37 16.51,-37.78 -6.01,-83.85 -63.31,-187.87 -114.97,-245.91 -51.29,-57.62 -128.67,-126.68 -198.92,-161.93l-23.15 -13.08c-5.95,-5.43 -3.43,-1.47 -6.23,-8.14 158.33,-7.79 344.61,-108.75 449.94,-1.41 33.04,33.66 64.88,66.87 85.04,109.94l27.59 55.88c6.16,16.26 8.72,25.18 19.39,37.03l21.51 -7.83c-7.45,-65.68 -102.37,-210.69 -181.31,-249.53 -79.33,-39.02 -51.98,0.33 -86.41,-86.66 -9.37,-23.66 -16.6,-34.07 -31.82,-56.27 -9.51,-13.85 -10.78,-11.41 -18.66,-22.71 -58.16,-83.42 -175.97,-151.04 -245.17,-234.32 -12.13,-14.59 -66.44,-80.3 -63.47,-105.91 16.47,20.16 102.05,48.56 138.5,52.96 111.44,13.47 255.63,6.19 361.56,29.72 29.99,6.66 64.62,22.76 90.15,34.77 56.37,26.54 98.96,85.62 124.99,142.27 19.98,43.48 7.63,33.13 -1.82,75.6 -6.18,27.74 -9.82,55.56 -17.41,82.71 -24.17,86.45 -26.67,266.13 9.22,352.76l26.15 2.2c0.66,-15.36 -23.84,-125.98 -26.68,-176.15 -10.85,-191.44 100.52,-335.37 58.93,-537.2 -16.2,-78.62 -52.8,-145.86 -96.75,-210.03 -38.14,-55.68 -181.84,-225.56 -240.33,-267.54 75.55,-19.17 233.01,41.06 310.27,78.15 58.55,28.1 110.33,60.5 161.93,98.51 128.15,94.39 223.76,215.9 299.9,357.04l42.83 88.96c12.1,34.05 23.8,59.31 35.3,97.39l41.49 157.04c9.82,48.53 39.05,278.07 21.89,297.4 -8.83,9.95 -84.76,-2.25 -150.73,19.7 -19.99,6.66 -39.7,15.13 -58.12,23.88 -10.91,5.19 -17.13,7.82 -27.58,13.8 -30.29,17.32 -13.77,37.75 8.37,30.46l54.89 -28.18c31.37,-12.58 53.45,-15.42 87.75,-22.73 156.1,-33.25 356.33,109.21 464.06,180.7 125.59,83.36 266.94,182.31 418.37,227.82 23.82,7.16 60.12,17.55 83.93,22.58 15.42,3.26 89.17,10.48 94.05,14.29 -30.25,19.4 -90.75,42.46 -125.52,57.62l-356.49 156.85c-38.88,21.53 -54.48,-7.89 -89.21,-33.12 -18.24,-13.25 -37.02,-27 -57.3,-36.7 -112.73,-53.93 -189.22,-58.58 -307.99,-21.86 -38.77,11.99 -107.57,34.04 -135.05,55.14l10.44 20.97c19.97,-1.88 76.39,-28.48 100.84,-37.24 316.25,-113.28 355.48,93.58 591.39,180.43 36.09,13.29 106.82,12.96 122.88,22.05 -4.51,12.48 -0.09,4.7 -7.63,12.18 -14.47,14.37 -72.06,42.85 -89.37,51.11 -127.39,60.81 -262.92,70.55 -406.69,60.79 -52.5,-3.56 -93.78,-12.77 -140.62,-18.99 -28.15,-3.74 -33.79,-10.11 -58.55,-15.56 -58.74,-12.93 -54.43,-46.43 -177.99,-60.7l-115.62 -6.89c-25.11,0.47 -21.93,2.39 -22.16,26.13 84.92,30.23 223.22,-36.1 339.81,123.21 30.79,42.08 88.8,145.88 86.4,194.8 -11.59,-2.02 -110.31,-64.5 -128.47,-74.25 -109.44,-58.83 -342.04,-179.02 -444.6,-169.76 -3.48,2.24 -3.18,0.52 -7.17,7.43 -4.4,7.63 -3.35,6.98 -4.88,14.85l37.96 7.79 81.51 21.27c123.18,39.98 324.99,138.32 429.91,208 25.15,16.7 36.05,34.16 77.29,26.19 3.31,-31.08 -53.14,-175.48 -80.39,-217.68 -6.15,-9.52 -38.84,-55.22 -39.56,-59.12 23.03,-0.51 47.51,5.78 69.54,9.91 23.09,4.34 51.5,5.78 72.77,9.67 71.81,13.15 242.96,4.58 315.85,-16.29 113.42,-32.46 135.04,-41.54 230.36,-104.77 41.02,-27.2 94.43,-71.62 4.26,-65.12 -46.66,3.37 -97.16,1.45 -139.75,-18.57l-23.97 -8.52c-21.57,-7.99 -86.64,-37.88 -91.02,-57.12l206.85 -89.17c21.98,-9.8 45.68,-20.97 68.47,-30.61l278.75 -124.35 -2.29 -30.98c-322.96,-3.85 -493.93,-157.89 -758.69,-326.8 -44.68,-28.51 -129.7,-75.8 -180.8,-92.24 -120.02,-38.61 -51.75,32.93 -93.23,-277.9 -41.28,-309.45 -208.56,-622.72 -470.22,-797.57 -17.13,-11.45 -25.65,-18.35 -42.53,-27.91 -37.61,-21.32 -24.73,-20.99 -87.6,-51.66 -33.04,-16.12 -121.29,-50.59 -153.58,-57.65 -40.79,-8.9 -74.68,-19.82 -116.39,-23.23 -44.27,-3.62 -97.22,-19.48 -109.2,22.47 75.52,66.57 189.84,181.11 249.31,265.73 80.09,113.98 133.09,210.32 114.41,389.57 -10.23,-4.85 -17.69,-23.04 -25.4,-35.22 -138.27,-218.73 -418.09,-134.21 -563.27,-169.73 -14.78,-3.61 -41.3,-6.54 -53.71,-11.67 -46.88,-19.36 -82.15,-27.79 -128.24,-73.53l-23.58 10.87c-4.91,71.76 136.72,223.3 195.85,270.95 42.21,34 83.57,69.36 122.2,109.42 25.49,26.42 86.43,109.6 83.84,147.66l-117.97 15.32c-62.08,7.91 -106.12,37.14 -231.39,34.62 -78.18,-1.58 -90.09,-20.87 -113.25,-16.37l-4.75 24.34c111.64,43.16 213.56,91.77 302.98,177.09 76.36,72.86 157.55,184.8 156.11,327.95l-11.91 4.72z"/>
   <path class="fil2" d="M2042.52 1597.79c0.9,13.33 5.27,34.77 18.85,40.01 19.98,-29.25 24.08,-46.94 54.9,-84.09 40.13,-48.38 94.89,-104.3 154.36,-131.16 29.82,-13.47 69.4,-37.94 109.55,-36.25 -4.39,16.71 -26.1,44.49 -35.52,60.47 -25.85,43.87 -85.49,189.08 -56.65,221.94 8.88,5.45 -11.86,6.2 12.45,2.73l220.44 -118.85c18.18,-9.61 32.5,-15.6 52.71,-20.73 23.19,-5.88 81.43,-22.92 104.05,-20.83 22.8,2.1 9.17,-0.39 15.51,5.74 11.85,18.7 -4.66,79.88 -11.6,102.65 -15.03,49.27 -80.75,153.75 -116.45,192.75 -14.44,15.78 -23.05,18.73 -26.29,39.72l100.2 0.24c4.67,29.69 -26.15,70.77 -40.67,88.71l-52.39 46.79c-11.23,8.44 -13.23,7.21 -16.87,19.26 19.05,1.58 78.96,5.97 90.67,-2.67l61.36 -26.89c16.67,-5.8 41.82,-9.54 40.49,-46.82 -33.34,0.34 -26.88,11.09 -53.35,25.39 -14.58,7.87 -36.92,18.74 -56.77,18.5 3.22,-14.87 24.42,-30.36 42.74,-64.59 10.38,-19.39 25.56,-57.56 22.34,-83.82l-80.35 -2.25c2.33,-7.68 37.73,-55.77 47.9,-69.12 14.26,-18.73 31.64,-52.46 43.5,-76.13 24.7,-49.33 48.2,-133.97 30.92,-196.33 -72.91,-5.99 -165.08,24.1 -222.1,47.36 -53.3,21.74 -165.65,88.38 -181.46,91.83 3.02,-94.3 86.91,-220.37 133.17,-268.42 -11.16,-11.85 1.49,-4.19 -13.62,-7.62l-55.45 6.49c-60.9,13.69 -110.42,35 -161.79,67.1 -4.96,3.1 -19.73,14.3 -23.64,17.68 -37.47,32.38 -18.75,12.1 -58.83,52.92 -6.63,6.75 -12.04,8.61 -21.7,19.54 -18.6,21.05 -36.55,55.66 -48.62,56.93 -24.5,-80.52 53.39,-181.05 9.6,-174.83 -4.2,0.6 -11.17,-4.25 -24.32,32.69 -4.62,13.01 -11.26,42.18 -14.82,56.29 -4,15.84 1.41,4.54 3.41,21.99 1.65,14.32 -1.63,19.04 -0.9,33.85 1.04,21.09 8.44,43.28 5.04,61.83z"/>
   <path class="fil3" d="M1966.89 1540.8c24.62,-7.51 42.38,-36.49 64.34,-37.15 1.32,24.8 -6.13,74.73 11.29,94.14 3.4,-18.55 -4,-40.74 -5.04,-61.83 -0.73,-14.81 2.55,-19.53 0.9,-33.85 -2,-17.45 -7.41,-6.15 -3.41,-21.99 3.56,-14.11 10.2,-43.28 14.82,-56.29 13.15,-36.94 20.12,-32.09 24.32,-32.69 43.79,-6.22 -34.1,94.31 -9.6,174.83 12.07,-1.27 30.02,-35.88 48.62,-56.93 9.66,-10.93 15.07,-12.79 21.7,-19.54 40.08,-40.82 21.36,-20.54 58.83,-52.92 3.91,-3.38 18.68,-14.58 23.64,-17.68 51.37,-32.1 100.89,-53.41 161.79,-67.1l55.45 -6.49c15.11,3.43 2.46,-4.23 13.62,7.62 -46.26,48.05 -130.15,174.12 -133.17,268.42 15.81,-3.45 128.16,-70.09 181.46,-91.83 57.02,-23.26 149.19,-53.35 222.1,-47.36 17.28,62.36 -6.22,147 -30.92,196.33 -11.86,23.67 -29.24,57.4 -43.5,76.13 -10.17,13.35 -45.57,61.44 -47.9,69.12l80.35 2.25c3.22,26.26 -11.96,64.43 -22.34,83.82 -18.32,34.23 -39.52,49.72 -42.74,64.59 19.85,0.24 42.19,-10.63 56.77,-18.5 26.47,-14.3 20.01,-25.05 53.35,-25.39 1.33,37.28 -23.82,41.02 -40.49,46.82l-61.36 26.89c23.27,-4.06 36.04,-12.53 58.56,-13.88 -2.99,25.68 -96.26,161.84 -114.12,185.4 -15.37,20.26 -33.58,37.29 -43.84,61.52 102.56,-9.26 335.16,110.93 444.6,169.76 18.16,9.75 116.88,72.23 128.47,74.25 2.4,-48.92 -55.61,-152.72 -86.4,-194.8 -116.59,-159.31 -254.89,-92.98 -339.81,-123.21 0.23,-23.74 -2.95,-25.66 22.16,-26.13l115.62 6.89c123.56,14.27 119.25,47.77 177.99,60.7 24.76,5.45 30.4,11.82 58.55,15.56 46.84,6.22 88.12,15.43 140.62,18.99 143.77,9.76 279.3,0.02 406.69,-60.79 17.31,-8.26 74.9,-36.74 89.37,-51.11 7.54,-7.48 3.12,0.3 7.63,-12.18 -16.06,-9.09 -86.79,-8.76 -122.88,-22.05 -235.91,-86.85 -275.14,-293.71 -591.39,-180.43 -24.45,8.76 -80.87,35.36 -100.84,37.24l-10.44 -20.97c27.48,-21.1 96.28,-43.15 135.05,-55.14 118.77,-36.72 195.26,-32.07 307.99,21.86 20.28,9.7 39.06,23.45 57.3,36.7 34.73,25.23 50.33,54.65 89.21,33.12l356.49 -156.85c34.77,-15.16 95.27,-38.22 125.52,-57.62 -4.88,-3.81 -78.63,-11.03 -94.05,-14.29 -23.81,-5.03 -60.11,-15.42 -83.93,-22.58 -151.43,-45.51 -292.78,-144.46 -418.37,-227.82 -107.73,-71.49 -307.96,-213.95 -464.06,-180.7 -34.3,7.31 -56.38,10.15 -87.75,22.73l-54.89 28.18c-22.14,7.29 -38.66,-13.14 -8.37,-30.46 10.45,-5.98 16.67,-8.61 27.58,-13.8 18.42,-8.75 38.13,-17.22 58.12,-23.88 65.97,-21.95 141.9,-9.75 150.73,-19.7 17.16,-19.33 -12.07,-248.87 -21.89,-297.4l-41.49 -157.04c-11.5,-38.08 -23.2,-63.34 -35.3,-97.39l-42.83 -88.96c-76.14,-141.14 -171.75,-262.65 -299.9,-357.04 -51.6,-38.01 -103.38,-70.41 -161.93,-98.51 -77.26,-37.09 -234.72,-97.32 -310.27,-78.15 58.49,41.98 202.19,211.86 240.33,267.54 43.95,64.17 80.55,131.41 96.75,210.03 41.59,201.83 -69.78,345.76 -58.93,537.2 2.84,50.17 27.34,160.79 26.68,176.15l-26.15 -2.2c-35.89,-86.63 -33.39,-266.31 -9.22,-352.76 7.59,-27.15 11.23,-54.97 17.41,-82.71 9.45,-42.47 21.8,-32.12 1.82,-75.6 -26.03,-56.65 -68.62,-115.73 -124.99,-142.27 -25.53,-12.01 -60.16,-28.11 -90.15,-34.77 -105.93,-23.53 -250.12,-16.25 -361.56,-29.72 -36.45,-4.4 -122.03,-32.8 -138.5,-52.96 -2.97,25.61 51.34,91.32 63.47,105.91 69.2,83.28 187.01,150.9 245.17,234.32 7.88,11.3 9.15,8.86 18.66,22.71 15.22,22.2 22.45,32.61 31.82,56.27 34.43,86.99 7.08,47.64 86.41,86.66 78.94,38.84 173.86,183.85 181.31,249.53l-21.51 7.83c-10.67,-11.85 -13.23,-20.77 -19.39,-37.03l-27.59 -55.88c-20.16,-43.07 -52,-76.28 -85.04,-109.94 -105.33,-107.34 -291.61,-6.38 -449.94,1.41 2.8,6.67 0.28,2.71 6.23,8.14l23.15 13.08c70.25,35.25 147.63,104.31 198.92,161.93 51.66,58.04 108.96,162.06 114.97,245.91 1.68,23.41 -8.26,22.1 -16.51,37.78z"/>
   <path class="fil4" d="M1259.6 2822.21c77.36,66.76 102.97,76.5 181,128.75 47.34,31.7 73.43,15.17 71.65,54.66 -36.11,4.52 -67.64,-21.3 -94.11,-35.32 -43.43,-23.02 -110.49,-70.29 -148.15,-100.56 -12.42,-9.99 -72.05,-44.9 -52.86,-64.06 11.88,-11.86 31.71,7.25 42.47,16.53zm728.89 -561.88c96.92,-20.24 183.87,51.75 204.09,158.67 17.27,91.35 -44.69,205.61 -147.65,219.21 -177.69,23.47 -265.85,-186.42 -170.12,-308.46 32.94,-41.99 64.21,-59.09 113.68,-69.42zm-248.96 239c-13.6,-8.05 -28.16,-14.76 -42.08,-24.14 -47.48,-31.99 -71.78,-31.84 -67.45,-67.17 23.78,-0.26 33.87,11.52 50.34,22.1l85.09 48.15c10.17,4.82 38.67,18.9 23.29,34.31 -13.45,13.48 -40.42,-8.05 -49.19,-13.25zm123.31 -306.42c-37.5,0.09 -73.93,-7.26 -105.57,-17.76 -20.28,-6.73 -24.69,-13.17 -28.68,-32.2 -14.77,-70.38 22.13,-229.99 51.53,-251.79 14.05,9.19 23.22,46.27 76.79,89.27 34.52,27.7 56.91,41.58 97.6,63.87 97.66,53.5 170.53,63.19 228.61,89.46 -36.43,19.28 -259.2,59 -320.28,59.15zm179.68 -595.12c-17.42,-19.41 -9.97,-69.34 -11.29,-94.14 -21.96,0.66 -39.72,29.64 -64.34,37.15 -4.17,8.29 -15.05,8.99 -23.04,18.5 -119.78,88.07 -215.7,198.33 -302.73,313.42 -108.91,144.03 -147.41,215.73 -237.24,370.93l-101.87 204.84c-37.62,85.33 -79.05,178.77 -113.72,270.74 -7.09,18.82 -10.42,39.09 -17.87,57.46 -7.35,18.16 -16.83,38.22 -21.79,55.78 -28.62,101.21 -38.53,134.27 -62.11,240.02l-10.63 55.3c-0.28,0.75 -1.26,3.66 -1.48,3.06 -0.21,-0.6 -0.93,2.08 -1.57,3.02l0 116.29c21.72,29.98 -11.06,72.78 82.53,76.45 125.57,4.92 128.42,-10.98 208.11,-35.94 47.62,-14.91 22.08,-9.43 53.58,-24.17 154.51,-72.34 254.28,-154.67 387.14,-258.31l168.96 -149.55c12.34,-11.68 27.05,-28.91 40.99,-41.74 76.81,-70.68 130.25,-124.67 199.63,-201.65 43.25,-47.99 112.52,-120.6 151.87,-170.71 23.41,-29.81 48.07,-58.27 71.35,-90.4 12.05,-16.63 22.22,-30.27 33.58,-44.84 8.8,-11.27 25.5,-33.16 32.29,-47.52l43.41 5.55 -37.96 -7.79c1.53,-7.87 0.48,-7.22 4.88,-14.85 3.99,-6.91 3.69,-5.19 7.17,-7.43 10.26,-24.23 28.47,-41.26 43.84,-61.52 17.86,-23.56 111.13,-159.72 114.12,-185.4 -22.52,1.35 -35.29,9.82 -58.56,13.88 -11.71,8.64 -71.62,4.25 -90.67,2.67 3.64,-12.05 5.64,-10.82 16.87,-19.26l52.39 -46.79c14.52,-17.94 45.34,-59.02 40.67,-88.71l-100.2 -0.24c3.24,-20.99 11.85,-23.94 26.29,-39.72 35.7,-39 101.42,-143.48 116.45,-192.75 6.94,-22.77 23.45,-83.95 11.6,-102.65 -6.34,-6.13 7.29,-3.64 -15.51,-5.74 -22.62,-2.09 -80.86,14.95 -104.05,20.83 -20.21,5.13 -34.53,11.12 -52.71,20.73l-220.44 118.85c-24.31,3.47 -3.57,2.72 -12.45,-2.73 -28.84,-32.86 30.8,-178.07 56.65,-221.94 9.42,-15.98 31.13,-43.76 35.52,-60.47 -40.15,-1.69 -79.73,22.78 -109.55,36.25 -59.47,26.86 -114.23,82.78 -154.36,131.16 -30.82,37.15 -34.92,54.84 -54.9,84.09 -13.58,-5.24 -17.95,-26.68 -18.85,-40.01z"/>
   <path class="fil5" d="M1862.84 2192.91c61.08,-0.15 283.85,-39.87 320.28,-59.15 -58.08,-26.27 -130.95,-35.96 -228.61,-89.46 -40.69,-22.29 -63.08,-36.17 -97.6,-63.87 -53.57,-43 -62.74,-80.08 -76.79,-89.27 -29.4,21.8 -66.3,181.41 -51.53,251.79 3.99,19.03 8.4,25.47 28.68,32.2 31.64,10.5 68.07,17.85 105.57,17.76z"/>
   <g>
    <path class="fil6" d="M2067.94 2252.97c-98.97,-26.59 -217.56,28.92 -247.27,148.9 -24.23,97.88 29.66,215.15 149.09,245.17 135.73,34.11 268.86,-75.98 250.08,-225.93 -1.36,-10.87 -4.2,-26.41 -7.08,-34.47 -2.06,-5.76 -1.12,-2.33 -3.17,-6.96l-11.79 -26.36c-25.7,-45.91 -64.1,-82.69 -129.86,-100.35z"/>
    <path class="fil7" d="M2073.93 2279.37c-89.54,-26.87 -193.81,13.33 -226.6,116.34 -28.14,88.38 16.6,192.89 118.56,225.46 87.87,28.06 193.24,-18.74 224.27,-118.84 26.32,-84.94 -17.53,-193.34 -116.23,-222.96z"/>
    <path class="fil6" d="M1929.17 2307.33c-4.8,18.4 11.57,28.19 30.64,33.58 -26.8,59.6 -31.73,53.98 -9.13,64.14 19.01,8.55 -0.33,-8.48 54,17.42l-9.67 24 -50.01 -22.16c-14.87,-6.69 0.51,-13.53 -20.44,-20.84 -14.82,7.83 -33.14,58.18 -39.87,74.65l-3.53 9.56c17.28,12.33 49.02,22.53 68.97,32.19 28.68,13.89 -21.08,35.17 1.14,58.66 14.96,15.82 92.79,36.42 122.17,30.62 2.78,-11.97 2.22,-11.29 -2.99,-20.31 -3.69,-6.4 -7.19,-11.51 -10.92,-16.43l14.24 2.92c10.24,1.1 2.88,10.44 24.32,-37.02 9.94,-21.98 20.26,-36.07 4.49,-53.39 -19,-3.47 -7.38,6.93 -28.63,-2.63l-40.89 -18.92 9.98 -23.07 31.65 13.41c21.53,9.78 0.49,11.97 40.66,24.69 11.3,-8.94 16.85,-30.44 23.14,-44.17 9.92,-21.61 10.18,-24.7 7.08,-42.01 -9.72,-5.36 -9.06,-7.07 -19.2,-4.04 -12.95,3.88 -5.94,18.01 -55.08,-11.08 7.55,-6.6 13.7,-7.6 22.61,-9.49 8.37,-1.77 15.62,-4.99 23.63,-8.37 -0.36,-9.83 -5.19,-17.58 -12.18,-24.96 -17.43,0.55 1.07,10.12 -46,-11.78l-10.76 -5.18c-2.22,-19.6 -1.89,-18.35 -9.45,-22.82 -19.35,7.44 -11.94,27.98 -47.38,26.32 -22.91,-1.08 -47.03,-18.6 -62.59,-13.49z"/>
    <path class="fil7" d="M1985.42 2567.15c13.57,21.51 51.56,24.86 59.15,17.08 14.81,-15.18 4.95,-19.73 -7.8,-25.25 -12.92,-5.61 -25.75,-12.16 -39.06,-16.68l-12.29 24.85z"/>
    <path class="fil7" d="M1927.2 2468.68c-2.78,3.37 -8.69,11.83 -10.09,18.04 -1.91,8.55 -1.67,7.3 8.85,12.27 28.24,13.34 39.02,23.76 46.84,1.01 4.01,-11.68 3.92,-11.86 -39.73,-29.27l-5.87 -2.05z"/>
    <path class="fil7" d="M2001.74 2531.75c9.5,5.9 26.72,13.56 36.41,17.69 10.63,4.53 9.91,5.59 15.05,-1.53 3.73,-5.18 6.12,-15.19 6.46,-18.97l-46.18 -21.98 -11.74 24.79z"/>
    <path class="fil7" d="M2016.64 2496.65l49.25 22.62c8.7,-19.15 16.47,-22.54 -0.48,-30.51 -10.34,-4.86 -25.64,-11.73 -36.25,-15.3l-12.52 23.19z"/>
    <polygon class="fil7" points="1930.24,2457.32 1980.4,2481.18 1990.55,2455.65 1942.62,2434.07 "/>
    <path class="fil7" d="M1997.12 2344.86l38.41 17.34 42.72 -21.85c-29.54,-14.94 -19.37,-12.36 -41.97,-5.04l-36.84 8.82c-0.57,0.17 -1.56,0.46 -2.32,0.73z"/>
    <path class="fil7" d="M2058.21 2404l43.95 20.47c8.63,-16.77 12.77,-17.49 -2.73,-24.69 -9.37,-4.35 -21.64,-9.82 -31.28,-13.2l-9.94 17.42z"/>
    <polygon class="fil7" points="2046.44,2430.94 2089.92,2451.04 2098.2,2432.86 2055.93,2413.13 "/>
    <path class="fil7" d="M1980.76 2369.7l39.81 18.05c5.44,-9.47 6.87,-9.41 7.62,-19.4l-36.87 -16.78 -10.56 18.13z"/>
    <polygon class="fil7" points="1968.79,2396.58 2008.73,2414.64 2016.75,2396.07 1978.86,2378.43 "/>
   </g>
  </g>
 </g>
</svg>
