<?xml version="1.0" encoding="UTF-8"?>
<!DOCTYPE svg PUBLIC "-//W3C//DTD SVG 1.1//EN" "http://www.w3.org/Graphics/SVG/1.1/DTD/svg11.dtd">
<!-- Creator: CorelDRAW 2017 -->
<svg xmlns="http://www.w3.org/2000/svg" xml:space="preserve" width="50.7998mm" height="33.8666mm" version="1.1" style="shape-rendering:geometricPrecision; text-rendering:geometricPrecision; image-rendering:optimizeQuality; fill-rule:evenodd; clip-rule:evenodd"
viewBox="0 0 5079.98 3386.66"
 xmlns:xlink="http://www.w3.org/1999/xlink">
 <defs>
  <style type="text/css">
   <![CDATA[
    .str0 {stroke:#FEFEFE;stroke-width:20;stroke-miterlimit:22.9256}
    .fil3 {fill:none}
    .fil1 {fill:none;fill-rule:nonzero}
    .fil2 {fill:#4B4B4D;fill-rule:nonzero}
    .fil0 {fill:#0098DA;fill-rule:nonzero}
   ]]>
  </style>
 </defs>
 <g id="Capa_x0020_1">
  <metadata id="CorelCorpID_0Corel-Layer"/>
  <g id="_1746633068992">
   <path class="fil0" d="M457.28 1767.82l0 301.54 160.56 0c82.53,0 141.64,-11.62 176.97,-35.17 35.17,-23.41 52.9,-62.18 52.9,-116.13 0,-53.7 -17.75,-92.17 -52.9,-115.34 -35.35,-23.28 -94.55,-34.9 -176.97,-34.9l-160.56 0zm165.05 -184.12c74.07,0 127.31,-10.9 159.51,-32.53 30.28,-20.32 46.38,-52.67 48.21,-96.86l207.74 37.81c-11.86,32.66 -29.67,59.93 -53.33,81.53 -47.52,43.36 -125.91,70.89 -234.88,82.8l0 10.05c108.71,0.52 190.31,23.54 244.95,69.04 54.47,45.38 81.73,113.22 81.73,203.69 0,115.84 -35.47,199.97 -106.61,252.61 -71.14,52.64 -185.02,79.09 -340.96,79.09l-401.55 0 0 -926.35 230.14 41.87 0 197.25 165.05 0zm207.76 -130.31l0.15 -7.77c0.81,-41.69 -9.86,-73.11 -29.78,-94.46l254.73 46.35c-1.54,35.1 -7.24,66.34 -17.08,93.75l-208.02 -37.87zm-602.95 -109.75l0 -96.84 342.46 62.33 -112.32 0 0 76.41 -230.14 -41.9zm572.25 6.39c-3.28,-3.41 -6.92,-6.58 -10.67,-9.43 -27.48,-20.81 -74.96,-31.47 -141.51,-31.47l-72.51 0 -347.56 -63.27 0 -96.84 820.8 149.4c5.13,24.21 7.68,50.6 7.68,79.22 0,6.43 -0.13,12.75 -0.39,18.96l-255.84 -46.57zm-572.25 -201.95l0 -56.4 447.31 0c132.27,0 228.79,23.19 289.65,69.04 43.01,32.37 70.99,77.96 83.63,136.73l-820.59 -149.37zm882.97 1122.85l0 -751.98 230.14 41.88 0 3.82 21 0 633.68 88.05 37.49 132.57 -692.17 0 0 265.04 748.41 0 37.49 220.62 -1016.04 0zm0 -752.92l0 -96.84 230.14 41.88 0 96.86 -230.14 -41.9zm256.24 46.64l609.83 0 18.75 87.11 -628.58 -87.11zm-256.24 -144.42l0 -96.84 230.14 41.88 0 96.86 -230.14 -41.9zm0 -97.77l0 -230.78 734.85 0 0 231.73 -504.71 0 0 40.94 -230.14 -41.89z"/>
   <path class="fil1" d="M4909.37 1218.05l-5.11 -96.7 -338.69 80.31 112.16 -5.93m4.04 76.3l120.93 -28.69 106.67 -25.29m-907.69 976.55l-39.68 -750.94m-248.37 58.89l-441.71 104.75 -36.69 8.7 7 132.38 504 -26.63 13.99 264.68 -504.01 26.63 11.64 220.31 733.83 -38.77"/>
   <path class="fil2" d="M2839.42 1091.68l87.56 528.53 0 2.91c1.67,10.29 3.28,20.6 4.84,30.93l-248.27 -45.2c-3.26,-26.54 -6.09,-54.08 -8.4,-82.55 -5.29,-61.9 -8.45,-129.35 -10.05,-202.1l-4.76 -0.79c-3.45,89.4 -8.73,167.44 -15.35,234.62 -1.5,14.61 -3.08,28.93 -4.74,42.95l-235.49 -42.87 83.65 -466.43 351.01 0zm92.53 563.32c4.95,32.88 9.35,65.97 13.25,99.26l-246.52 -44.87 -1.84 -11.16c-4.95,-28.14 -9.37,-57.62 -13.18,-88.42l248.29 45.19zm13.36 100.22c3.83,32.69 7.14,65.57 9.97,98.66l-240.09 -43.7 -16.36 -99.84 246.48 44.88zm10.05 99.59c4.39,51.46 7.63,103.39 9.71,155.84l6.09 0c2.55,-52.38 6.13,-102.75 10.69,-151.02l246.54 44.88 -85.82 366.42 -351.82 0 -75.39 -459.79 240 43.67zm26.56 3.92c2.03,-21.37 4.28,-42.34 6.69,-62.89 1.32,-10.72 2.7,-21.39 4.13,-32l257.6 46.9 -21.74 92.89 -246.68 -44.9zm10.93 -95.79c4.33,-31.87 9.24,-63.25 14.77,-94.16l264.69 48.18 -21.74 92.88 -257.72 -46.9zm14.94 -95.06c4.03,-22.4 8.38,-44.56 13.09,-66.45l104.75 -509.75 293.1 0 -146.21 624.38 -264.73 -48.18zm-367.66 -66c-3.95,33.1 -8.41,64.56 -13.42,94.4l-238.93 -43.49 16.81 -93.78 235.54 42.87zm-13.59 95.3c-2.55,15.05 -5.19,29.69 -8,43.9l-9.54 49.75 -236.16 -42.98c3.2,-25.68 6.82,-49.71 10.82,-72.09l3.95 -22.07 238.93 43.49zm-17.71 94.55l-91.86 479.2 -344.15 0 -136.61 -583.42 291.71 53.11 0.44 3.39c11.64,89.4 18.25,178.27 20.37,266.64l6.36 0c2.12,-69.33 5.28,-131.75 10.04,-187.29 2.14,-26.25 4.69,-51.08 7.6,-74.59l236.1 42.96zm-572.85 -105.2l-23.69 -101.15 300.58 54.72c5.63,33.52 10.57,66.72 14.9,99.56l-291.79 -53.13zm-23.92 -102.12l-23.69 -101.17 305.72 55.65c6.86,33.78 13.05,67.17 18.61,100.24l-300.64 -54.72zm-23.92 -102.13l-91.48 -390.6 298.66 0 83.58 376.43c5.31,23.45 10.31,46.71 15,69.83l-305.76 -55.66zm1468.18 788.65l0 -321.51 304.73 55.45 0 266.06 -304.73 0zm18.74 -322.44l-18.74 -96.84 304.73 55.46 0 96.84 -285.99 -55.46zm0 -97.78l-18.74 -96.84 304.73 55.47 0 96.84 -285.99 -55.47zm0 -97.78l-18.74 -661.25 304.73 0 0 716.72 -285.99 -55.47zm336.15 518l0 -239.85 276.16 50.26 0 189.59 -276.16 0zm0 -240.79l0 -96.84 276.16 50.26 0 96.86 -276.16 -50.28zm0 -97.78l0 -96.84 276.16 50.26 0 96.86 -276.16 -50.28zm0 -97.77l0 -742.91 421.38 0 196.03 461.87c25.72,60.59 48.68,124.32 69.04,190.18 20.35,65.85 38.61,135.17 54.49,207.92l9.26 0c-6.09,-69.04 -10.82,-133.43 -13.76,-192.05 -2.94,-58.91 -4.76,-113.2 -4.76,-162.67l0 -505.25 276.16 0 0 926.35 -526.21 -95.77 -107.32 -234.08c-19.62,-42.83 -37.49,-88.93 -53.44,-138.6 -15.86,-49.34 -30.42,-102.63 -43.12,-159.51l-11.64 0c3.72,40.74 6.21,83.96 7.67,129.35 1.48,45.38 2.38,98.37 2.38,157.93l0 207.51 -276.16 -50.27zm1007.84 184.38l0 96.84 -477.32 -86.87 -48.44 -105.67 525.76 95.7zm0 97.78l0 96.84 -428.41 -77.99 -48.44 -105.65 476.85 86.8zm0 97.77l0 56.41 -366.36 0 -61.58 -134.29 427.94 77.88z"/>
   <polygon class="fil3 str0" points="4931.53,1150.22 152.16,2091.28 152.15,2111.29 4931.7,1151.09 "/>
   <polygon class="fil3 str0" points="4931.53,1248.43 151.98,2204.91 152.15,2205.79 4931.69,1249.33 "/>
   <polygon class="fil3 str0" points="4931.52,1345.3 148.3,2294.07 148.48,2294.97 4931.7,1346.2 "/>
  </g>
 </g>
</svg>
