<?xml version="1.0" encoding="UTF-8"?>
<!DOCTYPE svg PUBLIC "-//W3C//DTD SVG 1.1//EN" "http://www.w3.org/Graphics/SVG/1.1/DTD/svg11.dtd">
<!-- Creator: CorelDRAW 2017 -->
<svg xmlns="http://www.w3.org/2000/svg" xml:space="preserve" width="50.7998mm" height="33.8666mm" version="1.1" style="shape-rendering:geometricPrecision; text-rendering:geometricPrecision; image-rendering:optimizeQuality; fill-rule:evenodd; clip-rule:evenodd"
viewBox="0 0 5079.98 3386.66"
 xmlns:xlink="http://www.w3.org/1999/xlink">
 <defs>
  <style type="text/css">
   <![CDATA[
    .fil0 {fill:none}
    .fil1 {fill:black}
    .fil2 {fill:black}
    .fil3 {fill:#00A859;fill-rule:nonzero}
    .fil4 {fill:#373435;fill-rule:nonzero}
   ]]>
  </style>
 </defs>
 <g id="Capa_x0020_1">
  <metadata id="CorelCorpID_0Corel-Layer"/>
  <rect class="fil0" x="-0" width="5079.99" height="3386.66"/>
  <path class="fil1" d="M-2900.75 4499c-46.43,0 -115.21,5.69 -115.21,-64.01l0 -576.07 85.34 -4.27c215.9,0 285.9,153.09 285.9,337.11 0,159.48 -91.34,307.24 -256.03,307.24zm-1177.75 -661.42c0,18.6 17.2,11.91 33.9,13.05 35.47,2.41 72.79,37.96 72.79,80.83l0 469.4c0,31.05 -10.52,65.07 -24.77,81.9 -14.76,17.43 -50.37,24.77 -81.92,24.77l0 34.14 162.16 -4.27c44.23,0 71.57,4.27 115.21,4.27l0 -34.14c-127.23,0 -115.21,-50.49 -115.21,-213.36 0,-109.52 0,-219.05 0,-328.57 27.75,18.59 292.78,329.87 344.52,380.9l137.04 153.14c11.7,14.67 23.4,22.42 34.63,37.9 17.36,23.9 21.08,16.93 59.88,16.93 -14.92,-64.02 -8.53,-476.55 -8.53,-563.27 0,-159.18 51.2,-140.81 149.35,-140.81 29.87,0 46.93,24.61 46.93,55.48l0 541.92c0,53.13 -41.08,59.74 -93.87,59.74 0,54.86 7.04,29.87 110.94,29.87 47.38,0 181.97,-1.94 218.79,3.1 91.15,12.5 199.02,-17.33 267.71,-67.07 242.61,-175.67 210.18,-607.22 -184.65,-656.06 -65.36,-8.08 -193.38,-1.12 -276.24,-1.12 -49.07,0 -88.27,-4.32 -132.29,-4.32l-166.42 4.32c-41.5,0 -65.81,-4.27 -106.67,-4.27l0 38.41c43.08,0 96.84,-4.95 109.39,65.55 4.62,25.94 1.55,369.19 1.55,412.38l-430.98 -482.2c-36.85,-48.3 -29.89,-29.87 -153.62,-29.87 -36.14,0 -54.3,-4.27 -89.62,-4.27l0 25.6zm1847.7 324.32l-72.54 0 0 -302.98 64 -4.27c88.02,0 144.2,63.42 143.85,149.34 -0.38,94.62 -38.07,157.91 -135.31,157.91zm-302.97 -337.12c0,48.7 30.63,13.02 64.16,29.72 16.45,8.2 29.71,30.42 29.71,55.62l0 546.21c0,45.36 -57.87,51.2 -93.87,51.2 0,55.1 3.79,29.87 136.55,29.87l196.28 4.27 0 -34.14c-70.99,0 -102.4,-6.07 -102.4,-85.34l0 -217.63c92.92,0 52.77,-10.4 112.26,62.68l193.95 224.24c72.07,77.78 25.59,49.67 120.47,50.17l341.41 -4.25c226.8,0 206.72,26.03 218.01,-33.76 2.88,-15.28 5.53,-29.19 9.19,-46.27 5.79,-27.05 13.81,-58.56 20.3,-86.38l-34.02 -5.01c-32.55,140.04 -121.06,124.48 -247.62,124.48 -20.38,0 -43.05,-3.49 -57.18,-11.09 -14.05,-7.55 -28.16,-25.18 -28.16,-44.38l0 -247.5c151.53,0 200.56,-22.66 200.56,102.42 15.89,-3.71 34.13,-0.8 34.13,-17.07l0 -234.7 -34.13 0c0,30.46 -6.89,55.39 -22.13,71.75 -29.84,32.06 -119.01,22.13 -178.43,22.13l0 -268.83c166.5,0 264.57,-25.9 264.57,119.48 13.85,-0.31 29.1,-4.08 38.4,-8.53 -0.43,-19.31 -4.28,-16.96 -4.28,-38.41l0 -123.75c-63.28,0 -111.32,4.27 -174.94,4.27l-183.49 0c-60.85,0 -105.95,-4.27 -166.42,-4.27l0 38.41c50.36,0 102.41,-9.88 102.41,68.27l0 512.06c0,61.82 -19.69,76.81 -81.08,76.81 -14.23,0 -111.8,-148.8 -120.33,-161.3 -17.99,-26.39 -109.5,-149.05 -114.36,-167.27 36.84,-8.59 70.92,-38.96 95.01,-62.87 69.02,-68.55 76.62,-243.86 -83.91,-289.61 -107.63,-30.67 -306.08,1.09 -404.88,-13.37 -18.29,-2.67 -45.74,-6.83 -45.74,11.67zm-2120.8 -797.96l0 0zm763.83 -183.49c17.57,20.21 18.89,55.58 -4.27,72.55 2,-23.94 4.27,-42.12 4.27,-72.55zm-4.27 -12.8c4.37,4.71 4.27,-7.46 4.27,12.8 -4.36,-4.71 -4.27,7.46 -4.27,-12.8zm-4.26 -8.54l4.26 8.54 -4.26 -8.54zm-157.88 4.27l-4.28 4.27 4.28 -4.27zm4.26 -4.27l-4.26 4.27 4.26 -4.27zm0 0c7.49,-11.17 2.15,-8.82 17.07,-12.8 -7.49,11.18 -2.16,8.83 -17.07,12.8zm17.07 -12.8c8.28,-12.37 8.82,-13.16 25.61,-17.07 -6.32,8.62 -13.66,13.88 -25.61,17.07zm34.14 -21.33l-8.53 4.26 8.53 -4.26zm-349.91 12.8l0 -12.8 12.8 -8.53c-3.24,12.14 -5.6,13.05 -12.8,21.33zm0 -12.8l-4.9 -8.32 4.9 8.32zm349.91 0c3.92,-3.41 -0.36,-1.78 10.15,-6.91 34.16,-16.69 88.88,0.48 92.26,41.04l-7.78 -9.28c-45.81,-52.75 -59.33,-27.79 -94.63,-24.85zm-337.11 -8.53l0 0zm-17.07 -17.07l-4.27 0c0,-42.6 4.27,-54.91 4.27,-72.55 12.42,13.1 13.32,7.14 7.49,28.11 -4.4,15.77 -7.49,26.28 -7.49,44.44zm4.27 -85.35c0,-10.91 6.76,-0.68 2.53,0 -0.04,0.01 -2.53,11.91 -2.53,0zm247.49 -187.76c0,20.27 0.09,8.09 -4.26,12.8 0,-20.26 -0.1,-8.09 4.26,-12.8zm0 0l0 -21.33 4.27 0c0,3.16 0.31,9.51 -0.37,12.43 -1.92,8.24 -1.09,4.48 -3.9,8.9zm-132.28 -153.61l1.28 1.27c-0.09,-0.08 -1.7,-0.85 -1.28,-1.27zm17.07 -4.27l-8.32 4.91 8.32 -4.91zm110.95 170.68c2.77,10.43 -1.9,5.78 8.53,8.54 18.33,-15.93 33.57,-35.92 32.62,-67.78 -0.81,-26.8 -12.12,-57.89 -36.89,-64.5 7.56,-4.8 12.39,-1.22 17.07,-12.8 -8.33,-6.11 -4.9,-4.55 -11.02,-10.32 -2.14,-2.01 -10.11,-9.18 -11.27,-10.06 -36.27,-27.41 -85.58,-13.76 -109.99,-13.76 0.52,-0.4 8.01,-8.14 8.54,-8.53 -30.86,0 -46.72,2.58 -64.81,16.27 -23.87,18.07 -30.63,37.2 -37.24,43.84 -4.34,4.36 -18.76,9.77 -40.58,27.69l-66.47 31.67c0,32.21 10.77,51.22 29.87,64.02 0.38,-16.95 -0.05,-13.2 8.54,-21.34 20.57,4.79 21.33,9.4 21.33,34.14 -10.03,4.81 -15.56,3.71 -25.6,8.53 3.18,6.01 7.27,12.59 9.09,20.33 3.62,15.37 -11.33,54.16 29.32,65.02 0,-9.04 -1.81,-20.31 2.09,-28.03 4.31,-8.54 2.67,-4.88 10.7,6.69 0.81,-36.44 30.93,-46.86 67.08,-60.95 71.68,-27.95 46.57,-46.02 69.48,-62.8 -1.91,85.7 -114.37,50.39 -149.35,200.56 -21.38,-1.78 -73.09,-29.44 -92.5,-39.8 -19.56,-10.41 -43.71,-27.27 -58.6,-43.8 -17.57,-19.52 -22.92,-41.62 -36.85,-65.56 -29.51,-50.74 -23.74,-85.19 -58.15,-75.59 -18.38,5.13 -10.41,12.1 -10.81,14.78 -1.16,7.84 6.51,-3.78 -2.86,6.11 -3.15,3.31 -0.05,-4.74 -9.06,7.56 3.36,12.63 1.73,6.92 8.52,17.07 -14.9,3.99 -16.88,8.03 -14.32,22.43 2.49,13.94 4.48,-8.08 1.91,12.5 -1.59,12.67 -1.28,1.8 -4.65,16.28l4.46 0.43c0.02,0 5.08,0.26 7.73,1.12 9.1,2.97 4.13,-1.51 11.82,8.28 5.6,7.13 12.67,24.32 13.86,33.37 7.21,54.86 -3.65,33.55 34.67,59.21 -1.53,18.35 0.6,7.7 -8.53,21.34 22.55,0 25.55,-7.78 44,-1.67 8.94,2.97 24.25,14.22 32.05,19.49 18.17,12.28 45.5,32.72 47.69,58.99 -9.8,6.56 -8.57,8.16 -25.6,8.53l16.9 13.33c-5.81,10.78 -7.98,11.88 -8.36,29.34 51.59,-59.35 35.68,43.85 102.41,8.54 -8.68,32.5 -83.27,123.82 -126.57,150.81 -20.02,12.47 -97.16,46.14 -125.33,45.24 -2.43,-0.07 -47.15,-17.72 -53.93,14.77 -3.93,18.82 1.01,12.53 2.85,15.34 -4.55,19.54 -4.55,10.33 0,29.87 22.17,-5.16 15.4,-6.5 25.61,12.8 9.43,-6.55 5.31,-0.7 8.54,-12.8 17.71,12.97 -0.88,11.14 21.33,17.07 13.6,-9.96 3.47,-7.1 17.07,-17.07 44.1,23.34 68.12,1.72 92.72,-22.49 32.82,-32.29 127.7,-71 82.23,-3.11 29.07,-2.42 44.53,-26.44 46.94,-55.48l25.6 -8.53c-13.96,-5.05 -3.09,5.54 -12.79,-12.8 14.33,-27.09 12.56,-24.38 40.13,-40.94 15.44,-9.28 37.19,-22.6 58.01,-23.07 -10.8,46.36 -8.82,9.09 0,46.94l8.53 0c0,-24 5.47,-25.81 16.28,-39.21 13.5,-16.74 3.27,-0.99 8.38,-17.22 6.55,-20.84 -10.74,-13.43 13.75,-16.11 -3.54,-13.25 -11.66,-19.06 -12.33,-34.37 -0.59,-13.81 6.74,-26.52 8.06,-42.44 12.29,17.68 7.3,56.51 53.73,70.23 42.22,12.47 62.96,-19.98 91.35,-27.56 -3.48,6.21 -2.06,4.51 -4.26,12.8 19.75,4.61 49.75,27.76 59.74,42.67 -11.76,22.22 -30.44,40.59 -50.11,56.57 -10.47,8.51 -23.36,16.76 -36.3,19.37 -20.88,4.22 -32.15,-2.99 -50.14,-3.39 9.35,13.97 13.84,15.37 25.6,25.6 -15.31,1.27 -25.19,6.58 -38.91,8.02 -18.29,1.93 -33.82,-2.1 -46.71,4.5 -31,15.88 -19.17,79.56 -8.25,38.69l8.53 0c3.98,14.9 1.62,9.58 12.8,17.06 0.96,-11.52 2,-11.61 4.26,-21.33 3.49,5 3.7,11.75 12.37,14.23 0.37,0.11 1.62,0.08 1.98,0.12 0.35,0.05 1.57,-0.12 1.93,-0.11l9.16 -0.91c56.54,-10.89 57.73,18.04 100.39,-28.32 12.94,-14.07 40.14,-33.88 58.04,-40.12 36.17,-12.59 47.02,-1.3 72.16,-30.23 -1.32,15.89 -6.67,22.58 -12.79,34.13 35.88,-9.58 32.73,-54.46 47.04,-56.11 55.91,-6.42 39.61,17.19 84.82,16.27 12.49,-0.26 23.04,-1.47 30.29,-11.36 -23.36,0 -19.66,2.44 -29.87,-12.8 18.86,-25.76 76.95,-23.34 112.63,-14.49 17.24,4.28 23.76,11.02 36.72,14.49 0,31.67 -1.86,30.52 -12.81,51.2l12.81 0c-33.66,63.62 -56.48,17.33 -92.56,39.73 -14.06,8.73 -12.07,15.36 -18.38,28.55 11.52,-0.96 11.6,-2 21.33,-4.27l-2.14 21.33c24.69,-6.02 6.52,-10.68 32.01,-12.8 1.42,17.07 2.53,18.08 12.8,25.6 3.74,-14.02 6.19,-14.05 17.07,-21.33 16.05,11.75 3.86,15.53 25.6,21.33 15.5,-58.02 122.95,27.13 71.86,-97.45 -10.81,-26.35 -12.11,-39.47 -12.11,-77.5 13.03,6.9 5.99,1.54 14.46,11.13l11.14 14.48c0,-46.07 -4.38,-34.42 -21.34,-59.75 12.6,1.05 17.19,2.27 24.49,9.65l13.92 20.22c0,-140.24 -137.89,-27.95 -194.99,-65.3 -46.4,-30.36 18.79,-102.35 -19.98,-172.06 -9.84,-17.67 -20.14,-26.59 -41.06,-31.47l0 -8.53c15.82,-4.23 25.82,-17.84 34.28,-29.72 20.33,-28.54 -0.93,-13.27 25.99,-38.02 11.37,-10.48 19.49,-24.05 13.96,-44.67 -8.13,-30.4 -9.52,-21.04 6.84,-45.48 -21.76,5.07 -25.6,11.78 -25.6,38.4 -77.84,-89.54 -166.43,14.6 -166.43,-72.54 -19.03,13.95 -10.41,20.06 -8.53,42.67 -39.82,-0.88 -63.32,-30.3 -45.51,-71.09 13.43,-30.72 46.57,-38.83 75.38,-52.65 28.43,19.03 36.62,29.88 91.47,14.49 17.98,-5.04 17.81,-6.85 19.79,-14.19 1.02,-3.8 -5.11,2.09 2.7,-6.23 8.8,-9.38 6.41,-2.44 15.81,-13.57 7.38,-8.76 8.38,-11.73 11.05,-23.18 -24.06,16.13 -25.9,16.42 -59.73,8.53 5.46,-15.11 9.04,-7.3 12.79,-21.33 -63.46,14.79 -33.76,-12.5 -97.4,30.62 -22.4,15.17 -36.18,6.92 -78.71,49.31 -17.94,17.86 -14.8,15.35 -25.68,38.33l-4.22 8.58c-0.38,0.71 -1.22,2.15 -1.54,2.73 -0.31,0.58 -0.94,1.86 -1.54,2.72 0,-33.73 4.25,-54.71 -29.87,-55.47 13.38,25.27 16.2,16.44 6.92,49.66 -5.44,19.45 -4.85,41.31 16.41,50.75 20.31,9.03 5.24,-5.62 21.28,12.86 23.96,27.62 40.38,27.54 83.41,27.54 -11.95,17.83 -12.81,16.77 -12.81,46.94 12.07,-8.84 5.74,-6.39 15.53,-18.61 6.03,-7.52 1.59,-2.36 6.06,-6.74 53.5,-52.51 165.13,-34.89 102.93,47.46 -40.84,54.06 -150.91,79.08 -221.73,62.29 -79.62,-18.85 -62.54,-78.94 -116.15,-80.14 12.5,-18.64 16.43,-9.2 32.33,-31.68 2.49,-3.51 2.48,-4.03 5.02,-7.77 5.06,-7.49 0.46,-1.89 5.33,-7.49zm2521.9 524.87l0 0zm-763.82 -183.49c0,30.43 2.28,48.61 4.26,72.55 -23.14,-16.97 -21.83,-52.34 -4.26,-72.55zm4.26 -12.8c0,20.26 0.1,8.09 -4.26,12.8 0,-20.26 -0.09,-8.09 4.26,-12.8zm166.42 0l-4.26 -4.27 4.26 4.27zm-162.15 -8.54l-4.27 8.54 4.27 -8.54zm157.89 4.27l-4.28 -4.27 4.28 4.27zm-4.28 -4.27c-14.9,-3.97 -9.58,-1.62 -17.06,-12.8 14.91,3.98 9.58,1.63 17.06,12.8zm-17.06 -12.8c-11.95,-3.19 -19.3,-8.45 -25.6,-17.07 16.78,3.91 17.32,4.7 25.6,17.07zm-25.6 -17.07l-8.54 -4.26 8.54 4.26zm341.37 -4.26l2.35 -9.18 -2.35 9.18zm-12.8 -8.53l12.8 8.53 0 12.8c-7.2,-8.28 -9.56,-9.19 -12.8,-21.33zm0 0l0 0zm-439.52 42.66c3.7,-44.48 70.38,-61.98 102.41,-34.13 -35.83,-2.98 -48.87,-28.77 -96.59,27.15 -0.54,0.64 -1.47,1.74 -1.95,2.32 -0.49,0.58 -1.55,1.86 -1.95,2.33 -0.38,0.47 -1.26,1.57 -1.92,2.33zm456.59 -132.28c0,17.64 4.27,29.95 4.27,72.55l-4.27 0c0,-61.25 -25.79,-45.36 0,-72.55zm-8.53 -12.8c0,-10.91 6.75,-0.68 2.53,0 -0.05,0.01 -2.53,11.91 -2.53,0zm-243.23 -187.76c4.36,4.71 4.27,-7.46 4.27,12.8 -4.37,-4.71 -4.27,7.47 -4.27,-12.8zm0 0c-2.91,-4.58 -2.45,-0.07 -3.9,-8.9 -0.64,-3.87 -0.37,-8.48 -0.37,-12.43l4.27 0 0 21.33zm128.01 -153.61l1.27 1.27c-0.08,-0.08 -1.69,-0.85 -1.27,-1.27zm-12.8 -4.27l9.17 2.34 -9.17 -2.34zm-76.81 627.28c-43.79,0.97 -48.18,14.31 -84.14,-14.02 -20.16,-15.88 -40.57,-36.16 -52.41,-58.53 9.99,-14.91 39.99,-38.06 59.74,-42.67 -2.99,-11.29 0.34,-3.51 -4.27,-12.8 14.41,3.85 84.86,63.13 126.47,2.71 9.92,-14.42 8.19,-24.29 15.51,-39.95l3.1 -5.43c2.65,31.8 20.27,40.06 -4.26,68.27 8.79,21.77 -9.94,-15.83 5.75,7.05 5.05,7.35 2.4,1.16 6,11.07 6.41,17.64 -4.7,3.62 8.37,21.49 11.83,16.15 18.28,13.8 18.28,41.47l8.54 0c8.07,-34.62 10.2,-3.14 0,-46.94 20.82,0.47 42.57,13.79 58,23.07 27.57,16.56 25.81,13.85 40.15,40.94 -9.7,18.34 1.15,7.75 -12.81,12.8l25.61 8.53c2.42,29.04 17.87,53.06 46.93,55.48 -44.35,-66.23 45.78,-31.44 80.09,1 13.91,13.15 18.01,23.19 38.51,29.78 23.15,7.44 37.96,4.55 56.36,-5.18 13.6,9.97 3.47,7.11 17.07,17.07 22.21,-5.93 3.63,-4.1 21.33,-17.07 2.99,12.48 -0.54,6.15 8.53,12.8 10.23,-19.3 3.44,-17.96 25.61,-12.8 4.55,-19.54 4.55,-10.33 0,-29.87 0.01,-0.01 13.76,-3.74 -1.29,-23.88 -19.16,-25.63 -34.22,0.62 -74.74,-10.97 -98.48,-28.17 -113.23,-43.26 -170.37,-107.07 -13.06,-14.58 -51.87,-66.63 -56.57,-84.24 66.73,35.31 50.82,-67.89 102.42,-8.54 -0.4,-17.46 -2.56,-18.56 -8.54,-29.86l17.07 -12.81c-17.03,-0.37 -15.8,-1.97 -25.6,-8.53 2.67,-32.19 57.53,-69.24 76.69,-77.21 16.8,-6.99 26.02,0.4 47.05,0.4 -9.13,-13.64 -7.01,-2.99 -8.53,-21.34 30.75,-20.59 30.02,-7.57 34.33,-55.28 1.96,-21.61 10.44,-42.89 31.3,-46.45 25.56,-4.36 -10.88,7.71 6.91,-0.68 -3.36,-14.45 -3.1,-3.67 -4.64,-16.28 -2.31,-18.83 13.8,-27.92 -12.43,-34.93 6.79,-10.15 5.16,-4.44 8.54,-17.07 -9.64,-13.16 -8.04,2.23 -11.93,-12 -0.13,-0.47 10.77,-7.15 -7.61,-15.32 -21.92,-9.73 -35.35,9.73 -39.2,24.06 -7.74,28.73 -43.84,101.01 -63.19,120.3 -30.44,30.34 -116.47,76.72 -146.9,79.26 -34.99,-150.17 -147.44,-114.86 -149.36,-200.56 15.23,11.16 3.14,0.75 11.72,18.15 30,60.82 123.38,40.41 124.83,105.6 9.53,-13.71 4.58,-18.84 10.71,-6.69 3.89,7.72 2.1,18.99 2.1,28.03 15.91,-4.25 27.76,-17.02 29.57,-34.71 1.74,-16.82 -2.53,-16.36 -0.86,-27.44 1.36,-9.06 6.32,-16.84 9.69,-23.2 -10.03,-4.82 -15.57,-3.72 -25.6,-8.53 0,-24.74 0.76,-29.35 21.33,-34.14 8.59,8.14 8.16,4.39 8.53,21.34 19.11,-12.8 29.88,-31.81 29.88,-64.02l-66.47 -31.67c-25.51,-20.94 -30.28,-18.89 -38.36,-25.65 -18.93,-15.87 -22.27,-62.15 -104.27,-62.15 0.11,0.08 8.38,8.38 8.54,8.53 -31.91,0 -41.49,-9.33 -77.05,-0.24 -27.13,6.94 -30.13,10.86 -48.57,28.24 -7.6,7.16 0.33,1.01 -6.66,6.14 4.99,12.37 -0.23,1.82 17.07,12.8 -32.14,8.58 -62.63,81.56 -4.27,132.28 11.09,-2.94 4.75,1.58 8.54,-8.54l8.65 12.69c18.09,26.58 21,14.82 34.01,34.25 -51.89,1.16 -38.66,60.25 -112.68,79.34 -146.23,37.73 -285.62,-80.49 -232,-129.57 20.74,-18.99 79.51,-6.9 107.52,18.57 17.79,16.18 8.07,15.87 23.81,27.4 0,-30.17 -0.86,-29.11 -12.8,-46.94 72.32,0 65.02,-12.37 87.31,-32.16 14.5,-12.89 46.14,-7.47 34.79,-55.53 -9.42,-39.94 -11.62,-19.99 5.9,-53.12 -34.11,0.76 -29.86,21.74 -29.86,55.47l-3.08 -5.45c-0.72,-1.41 -4.12,-8.36 -4.23,-8.58 -32.26,-68.35 -76.41,-68.7 -104.38,-87.64 -63.64,-43.12 -33.94,-15.83 -97.41,-30.62 2.46,9.21 1.9,4.42 6.03,11.05 8.94,14.35 -0.22,-9.06 6.78,10.28 -33.83,7.89 -35.68,7.6 -59.74,-8.53 2.55,10.97 3.07,12.54 9.14,20.76 10.83,14.66 4.12,3.79 15.81,14.36 6.57,5.94 3.97,7.35 4.65,9.49 2.51,7.89 6.13,8.33 16.31,11.58 54.87,17.51 66.93,5.22 94.91,-13.51 28.81,13.82 61.96,21.93 75.38,52.65 17.81,40.79 -5.68,70.21 -45.51,71.09 1.87,-22.61 10.5,-28.72 -8.54,-42.67 0,87.14 -88.58,-17 -166.42,72.54 0,-26.62 -3.84,-33.33 -25.6,-38.4 16.36,24.44 14.98,15.08 6.84,45.48 -9.13,34.08 16.11,38.3 27.94,60.55 10.22,19.2 21.93,45.35 46.29,51.86l0 8.53c-39.09,9.1 -54.97,51.24 -55.72,85.44 -0.59,27.36 29.18,89.88 -2.86,116.27 -52.39,43.14 -197.45,-75.74 -197.45,67.12 7.03,-8.09 0.89,-1.1 6.89,-10.17 7.86,-11.88 9.79,-17.89 31.51,-19.7 -16.96,25.33 -21.33,13.68 -21.33,59.75 4.13,-4.76 0.95,-1.05 5.65,-7.16 3.65,-4.74 1.87,-3.22 5.49,-7.32 8.48,-9.59 1.44,-4.23 14.47,-11.13 0,85.53 -42.46,123.96 -21.34,145.09 27.76,13.31 71.91,-4.48 81.08,29.86 21.75,-5.8 9.55,-9.58 25.6,-21.33 10.88,7.28 13.32,7.31 17.07,21.33 10.26,-7.52 11.38,-8.53 12.8,-25.6 25.49,2.12 7.32,6.78 29.87,12.8l2.13 -21.33c7.59,2.27 7.68,3.31 19.21,4.27 -11.79,-24.56 -7.44,-34.26 -55.5,-34.12 -42.27,0.12 -41.07,-6.97 -55.45,-34.16l12.8 0c-10.94,-20.68 -12.8,-19.53 -12.8,-51.2 25.75,-6.88 10.29,-12.26 73.8,-20.38 27.65,-3.54 64.57,5.39 75.55,20.38 -10.21,15.24 -6.52,12.8 -29.87,12.8 12.37,16.89 42.63,12.41 60.96,5.54 28.24,-10.61 13.1,-15.13 51.64,-10.74 20.02,2.27 11.65,46.28 49.55,56.4 -6.11,-11.55 -11.47,-18.24 -12.8,-34.13 34.19,39.33 72.99,8.15 130.2,70.35 43.7,47.5 55.35,18.39 98.3,27.84 0.47,0.1 1.65,0.39 2.09,0.48 0.4,0.08 1.56,0.21 1.92,0.27 17.82,2.75 -2.26,7.79 13.13,0.08l10.39 -13.68c2.27,9.72 3.31,9.81 4.27,21.33 11.17,-7.48 8.82,-2.16 12.8,-17.06l8.53 0c10.92,40.87 22.76,-22.81 -8.25,-38.69 -11.63,-5.96 -25.65,-3.02 -42.77,-4.17 -17.26,-1.17 -25.76,-6.93 -42.86,-8.35 10.94,-9.51 16.17,-11.5 25.61,-25.6zm-3405.21 716.88l4766.44 0 0 -55.47 -4766.44 0 0 55.47zm827.83 486.47c0,-118.98 24.68,-236.73 126.54,-291.65 94.95,-51.19 220.54,-22.27 289.12,76.54 85.99,123.86 91.24,325.5 25.35,455.56 -63.37,125.11 -270.99,157.77 -376.26,-2.23 -35.62,-54.13 -64.75,-149.2 -64.75,-238.22zm-149.35 4.26c0,159.76 68.04,286.48 210.49,352.78 104.26,48.52 251.41,48.37 355.69,0.03 44.1,-20.45 76.77,-46.6 109.12,-78.62 55,-54.45 94.36,-141.76 104.55,-219.76 14.91,-114.2 -15.52,-234.72 -95.89,-311.68l-52.35 -41.52c-19.43,-12.74 -36.53,-23.2 -61.01,-32.87 -139.43,-55.07 -285.85,-51.6 -411.96,33.69 -91.28,61.75 -158.64,186.41 -158.64,297.95zm1143.6 -1723.15c71.76,-28.53 130.61,-57.06 211.89,-79.21 80.64,-21.97 163.15,-35.65 251.63,-43.19 10.69,-38.79 2.67,-326.59 2.67,-390.45 -165.49,0 -387.16,80.18 -525.93,153.62 0,116.6 15.11,211.56 45.46,317.25l14.28 41.98zm1105.21 -6.29c7.76,-10 20.66,-64.36 23.89,-77.29 21.82,-87.3 35.85,-182 35.85,-275.65 -70.02,-37.05 -138.31,-68.35 -220.24,-95.54 -39.28,-13.04 -221.61,-63.85 -266.22,-50.54l-41.48 -3.96 -0.1 385.23c48.06,12.42 131.89,10.86 252.93,44.25 50.54,13.94 116.72,36.27 164.44,57.39 16.19,7.17 38.35,21.34 50.93,16.11zm-456.6 612.81c44.49,-5.64 221.1,-192.24 237.7,-211.74 27.32,-32.12 173.42,-236.98 170.41,-280.36 -3.38,-11.32 -1.34,-7.9 -17.71,-14.8 -7.88,-3.32 -15.87,-6.12 -24.7,-9.53l-148.61 -47.52c-57.61,-14.69 -168.63,-38.22 -228.79,-35.33l0.26 605.03 11.44 -5.75zm-605.94 -497.44c2.72,13.06 10.01,27.06 15.82,40.73 7.27,17.09 12.99,23.29 21.18,38.55 88.38,164.59 203,293.55 350.71,404.6 13.11,9.86 21.7,16.9 35.91,24.98l-0.1 -611.79c-114.38,5.93 -222.87,31.25 -328.73,66.53 -33.47,11.16 -65.26,27.47 -94.79,36.4zm2393.89 1460.45c0,207.65 209.71,207.7 279.97,300.38 37.87,49.96 35.55,119.68 -12.04,163.84 -47.34,43.95 -179.02,53.56 -228.17,-51.65 -9.34,-19.98 -10.54,-41.97 -18.42,-58.39 -16.57,1.37 -11.12,3.85 -29.86,4.27 0,46.94 12.79,87.46 12.79,136.54 80.74,42.72 109.21,46.94 196.29,46.94 116.85,0 226.16,-90.36 226.16,-217.62 0,-164.64 -139.02,-199.13 -240.35,-258.91 -48.65,-28.71 -71.15,-59.67 -71.15,-116.6 0,-36.83 13.29,-72.84 32.94,-90.82 51.99,-47.6 153.28,-55.22 200.45,49.45 25.54,56.67 -11.23,50.22 43.98,45.63 0,-38.95 -8.54,-89.62 -8.54,-153.62 -99.47,0 -222.68,-50.6 -323.36,47.88 -33.84,33.11 -60.69,87.32 -60.69,152.68zm-4177.57 -174.96c0,34.01 93.88,-20.38 93.88,68.29l0 537.65c0,57.67 -45.07,64.01 -93.88,64.01l0 34.14 324.31 -4.27c80.48,0 145.93,4.27 226.17,4.27 5.88,-12.26 38.4,-159.68 38.4,-179.23l-34.14 0c-0.79,35.1 -29.4,78.62 -54.74,98.89 -50.47,40.39 -118.07,33.4 -188.5,33.4 -40.82,0 -81.07,-11.35 -81.07,-51.21l0 -546.19c0,-92.3 98.14,-7.04 98.14,-72.55 0,-24.43 -67.85,-8.53 -119.48,-8.53l-209.09 -4.27 0 25.6zm1758.08 -1962.9c0.86,-0.6 2.3,-2.36 2.72,-1.55l79.56 -35.66c31.1,-12.49 58.78,-23.16 92.67,-31.06 -8.71,16.46 -19.29,26.87 -29.86,42.66 7.46,11.16 24.25,35.44 34.13,42.68 10.2,-15.22 22.3,-29.04 34.14,-42.68 -11.47,-17.12 -22.67,-29.81 -34.14,-46.93 58.69,-4.89 153.24,-51.21 349.91,-51.21 -5.44,20.4 -24.31,26.14 -29.86,46.94 8.31,12.42 20.97,25.12 29.86,38.41 12.8,-8.58 30.07,-30.21 38.41,-42.68 -13.97,-20.86 -25.75,-27.23 -29.87,-42.67 48,0 305.83,21.88 354.18,55.48 28.45,0.63 101.3,32.6 127.46,43.22l115.76 54.92 0 -59.74c-289.74,-153.32 -603.88,-198.89 -929.39,-110.1 -71.5,19.5 -138.82,46.31 -205.62,76.02 -23.07,10.26 -42.74,22.8 -64.07,34.08l0 59.74c21.91,-5.1 37.89,-23.78 64.01,-29.87zm1058.27 81.08l0 0zm-1054 4.26l-68.28 38.41 0 38.4 128.58 -59.17c130.28,-53.67 282.31,-89.88 426.31,-90.03 21.43,-0.02 27.94,-3.78 42.76,-4.21 16.51,-0.48 20.85,3.96 42.26,4.23 15.27,0.19 32.05,-0.99 47.13,-0.19 141.45,7.59 320.4,55.34 445.2,118.08 18.07,9.08 49.19,27.18 66.84,31.29l0 -38.4c-14.84,-9.95 -49.34,-29.72 -68.27,-34.14 2.02,-24.25 23.95,-29.02 29.87,-51.2 -9.39,-14.02 -20.19,-29.07 -34.14,-38.41 -9.31,13.91 -24.82,28.75 -34.13,42.68 8.31,12.41 20.97,25.12 29.87,38.4 -18.03,-1.51 -24.2,-8.56 -40.19,-15.3 -28.43,-11.98 -106.34,-42.43 -130.5,-44.45 4.03,-15.1 24.37,-35.7 34.14,-46.94 -10.58,-15.79 -21.16,-26.2 -29.87,-42.66 -12.42,3.31 -13.35,9 -20.5,17.91 -7.61,9.48 -11.49,15.17 -17.9,24.75 11.02,20.83 18.84,21.85 29.86,42.68 -15.19,-1.27 -24.53,-6.14 -40.92,-10.29 -14.85,-3.77 -29.22,-7.48 -41.19,-10.02 -26.69,-5.66 -59.63,-13.83 -88.58,-13.83 5.59,-20.91 16.34,-21.37 29.87,-46.94 -6.52,-12.34 -23.36,-35.45 -34.13,-42.67 -11.47,17.13 -22.67,29.81 -34.14,46.94 9.71,7.11 26.87,27.19 29.87,38.41 -31.1,0 -62.55,-8.32 -93.71,-8.72 -33.99,-0.41 -68.51,0.18 -102.58,0.18 -115.23,-0.01 -247.82,23.34 -351.52,58.13l-152.01 57.08zm25.61 1408.18c-35.64,8.3 -24.44,8.53 -64.01,8.53l0 -55.48c39.57,0 28.37,0.23 64.01,8.54 2.2,9.21 8.52,19.32 0,38.41zm-115.22 -85.35l0 221.89c64.02,0 51.21,15.6 51.21,-89.61 31.33,0 25.11,-1.68 69.49,58.52 27.74,37.63 19.66,31.09 79.86,31.09 -4.47,-16.74 -56.81,-74.65 -72.54,-98.14 63.17,-33.43 48.45,-96.29 11.63,-114.04 -44.66,-21.52 -91.86,-9.71 -139.65,-9.71zm2457.9 179.22l-38.41 0 0 -140.82c61.56,0 93.88,8.88 93.88,72.55 0,33.21 -23.02,68.27 -55.47,68.27zm-42.67 -179.22l-46.94 0 0 221.89c52.93,0 116.39,6.23 157.49,-25.99 57.75,-45.25 63.65,-180.24 -55.72,-195.31 -48.4,-6.11 -28.96,-0.59 -54.83,-0.59zm-1438.04 179.22l-29.88 0 0 -140.82 17.07 0c48.05,0 74.02,20.76 75.26,64.44 1.14,39.86 -19.95,76.38 -62.45,76.38zm-34.14 -179.22l-46.94 0 0 221.89c91.93,0 196.29,6.45 196.29,-123.74 0,-68.95 -61.21,-96.71 -121.01,-100.46 -16.09,-1.01 -9.34,2.31 -28.34,2.31zm789.42 179.22l-38.4 0 0 -140.82c61.56,0 93.88,8.88 93.88,72.55 0,33.21 -23.02,68.27 -55.48,68.27zm-42.66 -179.22l-46.95 0 0 221.89c56.92,0 110.97,6.49 157.26,-26.23 57.36,-40.55 64.05,-179.99 -55.49,-195.07 -4.99,-0.63 -23.84,-2.73 -26.48,-2.9 -16.09,-1.02 -9.33,2.31 -28.34,2.31zm-2974.23 221.89l46.94 0 0 -136.54c21.07,24.24 43.17,46.76 65.04,71.5 7.55,8.55 7.44,10.62 15.01,19.13 6.23,7.01 10.65,9.95 16.83,17.31 8.43,10.05 20.51,32.87 35.39,32.87 9.85,0 12.81,-2.97 12.81,-12.8l0 -213.36 -46.94 0 0 132.28 -60.72 -67.29c-50.85,-51.3 -42.89,-64.99 -84.36,-64.99l0 221.89zm2261.61 -1796.48l243.22 102.41 0 -102.41c-19.7,-4.59 -143.45,-74.9 -243.22,-98.15l0 98.15zm-1310.02 1587.39l0 196.29c0,9.84 2.96,12.8 12.79,12.8l145.09 0c19.06,0 19.06,-42.67 0,-42.67l-106.68 0 0 -55.47c98.68,0 85.34,10.6 85.34,-42.67l-85.34 0 0 -38.41 106.68 0c19.06,0 19.06,-42.67 0,-42.67l-145.09 0c-9.83,0 -12.79,2.97 -12.79,12.8zm-1314.3 0c0,73.47 -12.47,156.78 26.43,191.2 38.6,34.17 174.12,40.84 174.12,-63.18l0 -128.02c0,-17.82 -14.8,-12.8 -51.2,-12.8l0 145.09c0,48.34 -98.15,60.36 -98.15,-8.54l0 -136.55c-36.4,0 -51.2,-5.02 -51.2,12.8zm1668.46 -1587.39l0 102.41c13.3,-3.09 41.25,-20.7 56.85,-28.5l120.56 -50.13c21.01,-8.05 48.14,-15.29 65.82,-23.78l0 -98.15c-99.77,23.25 -223.52,93.56 -243.23,98.15zm2713.94 1800.75l157.88 0c19.06,0 19.06,-42.67 0,-42.67l-106.68 0 0 -59.74 85.34 0c0,-48.03 12.4,-38.4 -85.34,-38.4l0 -42.68 119.48 0 0 -38.4 -170.68 0 0 221.89zm-2236 -1945.83l0 98.15c45.76,0 74.8,-4.28 119.47,-4.28 46.44,0 76.78,4.28 123.75,4.28l0 -98.15c-21.64,0 -23.25,-4.27 -46.94,-4.27l-149.35 0c-23.69,0 -25.3,4.27 -46.93,4.27zm874.76 1800.75c2.44,29.26 27.44,56.08 29.87,85.34l-72.54 0c9.88,-20.59 27.83,-74.47 42.67,-85.34zm-123.73 140.82c91.4,-0.01 39.72,-6.16 69.38,-15.95l105.56 -1.13c1.48,17.81 2.2,16.74 20.8,17.61 11.2,0.52 27.05,-0.54 38.94,-0.54 -4.39,-18.8 -17.91,-38.37 -25.55,-55.52 -8.73,-19.62 -17.46,-37.17 -25.6,-55.48 -9.03,-20.28 -16.3,-36.23 -25.72,-55.35 -4.94,-10.01 -8.15,-19.54 -12.82,-29.86 -5.14,-11.35 -9.51,-16.16 -12.72,-29.95l-21.33 0 -110.94 226.17zm-1856.24 4.26c24.22,0 25.5,-24.46 36.98,-48.36 9.35,-19.49 19.1,-40.93 26.43,-58.91 7.98,-19.62 17.33,-40.86 26.2,-59.15 6.13,-12.64 22.64,-47.02 25.6,-59.74l-55.47 0c-7.88,33.83 -46.28,101.34 -55.47,140.82l-64.01 -140.82 -55.48 0c19.67,37.17 34.39,77.59 54.07,116.62 10.16,20.13 17.6,39.1 27.07,58.28 7.38,14.92 15.72,51.26 34.08,51.26zm964.38 -170.68c0,82.99 110.95,57.48 110.95,106.67 0,42.31 -90.73,9.27 -93.88,8.54 -6.4,12.11 -13.66,23.76 -17.07,38.4 72.25,38.24 162.15,5.98 162.15,-46.94 0,-83.65 -110.94,-61.09 -110.94,-106.67 0,-37.06 67.28,-10.04 85.34,-8.54 4.37,-18.73 11.1,-17.83 12.8,-38.4 -25.89,-6.04 -24.19,-12.81 -68.27,-12.81 -39.92,0 -81.08,22.54 -81.08,59.75zm324.31 166.41l51.21 0 0 -221.89 -51.21 0 0 221.89zm-1613 0l51.21 0 0 -221.89 -51.21 0 0 221.89zm1019.86 -1544.72c5.45,-20.39 23.87,-24.49 29.87,-46.93 -9.38,-14.02 -20.19,-29.07 -34.14,-38.41 -9.31,13.91 -24.82,28.75 -34.13,42.68 5.64,8.41 10.65,13.05 17.01,21.38 7.94,10.42 10.23,13.82 21.39,21.28zm315.77 -145.08c9.71,7.11 26.88,27.19 29.88,38.41 15.61,-4.17 30.88,-28.46 38.4,-42.68 -8.72,-16.46 -19.29,-26.87 -29.87,-42.67 -11.66,7.8 -29.96,34.32 -38.41,46.94zm1246.02 1143.61l4.27 0 -3.56 -4.98 -0.71 4.98zm-2043.98 0l0 -4.27 -4.98 3.55 4.98 0.72z"/>
  <g id="_1746511917936">
   <path class="fil2" d="M-6063.01 2126.15l47.8 120.45 29.66 64.58c27.9,34.66 58.9,100.29 14.59,132.69 -13.69,31.27 -34.68,30.87 -61,55.36 266.67,-70.08 -23.48,-290.63 35.45,-363.87 45.93,-1.49 153.75,213.58 155.39,264.41 4.83,149.03 -160.91,151.56 -224.11,220.04 -67.11,72.71 -41.65,219.5 -310.28,336.56 -37.36,16.32 -123.78,57.43 -158.32,31.13 -19.52,-86.38 168.53,-123.95 226.62,-194.51 56.11,-68.22 22.2,-108.59 45.77,-165.56 14.87,-36 88.46,-59.41 126.63,-96.63l-113.78 33.27 -25.88 20.1c-99.39,81.3 26.6,126.89 -57.14,202.46 -40.34,36.42 -122.48,56.29 -177.25,87.99 -56.35,32.63 -101.22,73.89 -139.99,125.21 -50.3,66.52 -56.72,114.68 -93.23,170.99l-4.54 -24.18c-21.8,134.31 4.52,368.93 116.72,459.6l14.59 -5.01 -0.95 -43c2.15,-108.92 -25.53,-148.6 24.07,-262.99 25.2,-58.03 81.66,-144.97 142.26,-167.81 100.23,-113.28 262.73,-136.51 376.52,-215.2 108.67,-75.17 -30.53,-137.24 62.27,-203.25 91.67,-65.14 409.43,-127.89 114.25,-538.45 -91.7,-127.58 -146.2,-303.24 37.55,-378.63l11.16 -18.33c-70.68,-27.68 -184.17,19.94 -221.73,89.56 -49.49,91.67 -15.41,174.47 6.9,263.02zm-406.31 1327.12l-30.1 4c-18.2,57.04 -19.58,120.48 -14.01,180.75 6.73,72.74 53.78,54.31 53.69,123.4 218.24,139.77 509.57,-28.19 511.2,-282.95 0.73,-112.98 -62.45,-251.05 -187.32,-266.04 -158.02,-18.97 -246.52,153.24 -166.25,208.45 20.14,-29.11 27.18,-150.09 135.02,-86.81 63.29,37.19 53.23,121.03 17.48,173.95 -90.46,133.96 -248.9,65.31 -319.71,-54.75zm218.73 -1769.43l20.95 19.69 10.2 -22.47c21.06,42.96 9.03,57.79 45.18,94.75 106.3,108.6 80.54,-2.88 65.81,165.26 -3.87,44.07 8.76,66.56 16.31,107.36l29.13 77.72c-22.31,-88.55 -56.39,-171.35 -6.9,-263.02 37.56,-69.62 151.05,-117.24 221.73,-89.56l-11.16 18.33c65.2,-4.97 144.25,8.39 194.77,52.35 -1.54,-41.65 -11.91,-17.61 -34.82,-58 8.52,-28.55 14.88,-32.24 37.59,-49.91 -20.9,-15.45 -43.55,-44.71 -14.08,-61.2 -25.62,-47.68 -45.99,-93.97 -68.13,-143.09 -46.06,-102.3 -54.84,-55.65 -139.75,-64.25 -43.5,-38.68 -34.59,-74.88 -107.36,-66.13 -48.98,26.92 -40.11,62.61 -84.78,93.26l-105.77 5.7c-34.95,34.42 -55.04,134.95 -68.92,183.21zm-162.35 651.46l-8.87 28.78c-1.36,96.22 -167.08,363.07 -237.31,430.34 -49.05,97.87 -79.82,242.95 -87.5,352.22l4.54 24.18c36.51,-56.31 42.93,-104.47 93.23,-170.99 38.77,-51.32 83.64,-92.58 139.99,-125.21 54.77,-31.7 136.91,-51.57 177.25,-87.99 83.74,-75.57 -42.25,-121.16 57.14,-202.46l-13.14 -251.82c-22.24,-22.76 -79.63,-162.86 -90.1,-200.4l-8.63 -33.82 -46.51 -46.14c9.43,80.98 67.73,208.73 19.91,283.31zm380.98 163.93c-30.1,0.22 -77.41,14.57 -102.85,31.57 -38.17,37.22 -111.76,60.63 -126.63,96.63 -23.57,56.97 10.34,97.34 -45.77,165.56 -58.09,70.56 -246.14,108.13 -226.62,194.51 34.54,26.3 120.96,-14.81 158.32,-31.13 268.63,-117.06 243.17,-263.85 310.28,-336.56 63.2,-68.48 228.94,-71.01 224.11,-220.04 -1.64,-50.83 -109.46,-265.9 -155.39,-264.41 -58.93,73.24 231.22,293.79 -35.45,363.87zm-465.17 -621.38l-44.73 40.69c-16.46,28.73 -41.53,52.52 -72.9,64.18 -55.72,81.66 -95.96,66.39 -99,195.69 -1.7,73.27 21.91,184.63 53.16,250.96l15.27 -83.84c-2.18,-36.51 -2.6,-49.69 16.62,-80.98 6.75,-63.96 111.36,-231.2 170.04,-233.13 2.8,-45.92 164.24,-179.67 12.81,-219.63l-21.59 3.28c-17.27,38.33 4.18,31.66 -29.68,62.78zm246.54 -194.01c-34.95,27.96 -72.49,19.63 -95.33,62.49 -22.07,41.37 -11.46,104.37 8.17,144.1l7.04 -15.95c28.78,51.01 -3.63,24.32 38.92,43.97 38.58,17.87 23.07,30.43 55.66,50.15 44.95,27.17 97.23,55.12 143.99,79.83 -7.55,-40.8 -20.18,-63.29 -16.31,-107.36 14.73,-168.14 40.49,-56.66 -65.81,-165.26 -36.15,-36.96 -24.12,-51.79 -45.18,-94.75l-10.2 22.47 -20.95 -19.69zm-107.96 362.65l-27.79 51.64 8.63 33.82c34.21,25.46 42.62,60.32 62.54,98.17 45.06,2.72 81.9,20.17 133.39,28.73 47.52,7.95 83.92,19.24 117.92,53.91l34.63 -29.75 43.68 28.17 -29.66 -64.58 -69.95 -88.97c-59.66,18.46 -81.55,-23.74 -137.6,-43.23 -112.15,-39.04 -61.74,-20.86 -105.16,-76.12l-30.63 8.21zm-87.29 25.99c-3.72,48.34 -61.98,137.3 -93.47,178.81 -23.1,30.45 -66.35,143.79 -101.07,147.58l-4.95 -53.34 -15.27 83.84 33.82 93.14c9.81,-18.44 -4.9,1.01 11.46,7.46l22.74 1.93c9.1,-17.75 8.89,-26.33 14.67,-39.19 11.86,-26.42 6.98,-7.1 27.29,-31.73l94.59 -142.98c19.66,-34.63 7,-60.4 42.89,-68.45l0.2 85.75c47.82,-74.58 -10.48,-202.33 -19.91,-283.31l-25.82 -20.57 12.83 41.06zm197.25 491.59l113.78 -33.27c25.44,-17 72.75,-31.35 102.85,-31.57 26.32,-24.49 47.31,-24.09 61,-55.36l-2.73 -46.34c-53.82,-16.58 -107.84,-16.6 -155.09,-29.51 -44.29,-12.08 -86.87,-42.4 -134.66,-20.33 -6.43,22.31 4.77,83.22 4.95,113.87 0.09,27.02 -11.62,85.77 9.9,102.51zm-89.16 -673.64c-10.25,58.29 -3.43,90.18 -20.8,156.06l30.63 -8.21c43.42,55.26 -6.99,37.08 105.16,76.12 56.05,19.49 77.94,61.69 137.6,43.23l69.95 88.97 -47.8 -120.45 -29.13 -77.72c-46.76,-24.71 -99.04,-52.66 -143.99,-79.83 -32.59,-19.72 -17.08,-32.28 -55.66,-50.15 -42.55,-19.65 -10.14,7.04 -38.92,-43.97l-7.04 15.95zm50.14 441.92l13.14 251.82 25.88 -20.1c-21.52,-16.74 -9.81,-75.49 -9.9,-102.51 -0.18,-30.65 -11.38,-91.56 -4.95,-113.87 47.79,-22.07 90.37,8.25 134.66,20.33 47.25,12.91 101.27,12.93 155.09,29.51l2.73 46.34c44.31,-32.4 13.31,-98.03 -14.59,-132.69l-43.68 -28.17 -34.63 29.75c-34,-34.67 -70.4,-45.96 -117.92,-53.91 -51.49,-8.56 -88.33,-26.01 -133.39,-28.73l27.56 102.23zm-341.83 306.04l-29.68 156.03c70.23,-67.27 235.95,-334.12 237.31,-430.34l1.23 -43.92 -155.35 247.66c-20.06,32.85 -0.85,11.26 -27.79,33.88 -11.33,9.49 -10.14,17.36 -25.72,36.69zm13.18 919.84l31.29 53.93c-9.59,-78.55 -24.38,-100.34 7.15,-176.73 16.29,-39.5 29.31,-93.74 71.58,-112.98l7.7 5.86c-4.51,-87.8 13.58,-125.12 48.61,-200.88 -60.6,22.84 -117.06,109.78 -142.26,167.81 -49.6,114.39 -21.92,154.07 -24.07,262.99zm951.69 -1713.98c54.92,21.52 100.86,29.33 139.85,-23.94l-27.79 -12.52 11.69 -44.06 50.3 7.99c-49.2,-67.73 -96.05,28.26 -185.36,-96.58 -29.47,16.49 -6.82,45.75 14.08,61.2 -22.71,17.67 -29.07,21.36 -37.59,49.91 22.91,40.39 33.28,16.35 34.82,58zm-865.94 1872.28c19.61,24.12 41.61,34.55 70.77,44.89 0.09,-69.09 -46.96,-50.66 -53.69,-123.4 -5.57,-60.27 -4.19,-123.71 14.01,-180.75l30.1 -4 -25.89 -78.93c-46.46,35.87 -60.58,114.73 -58.41,174.63 5.57,157.26 14.07,70.19 23.11,167.56zm-96.27 -1194.02l-2.66 115.88c15.58,-19.33 14.39,-27.2 25.72,-36.69 26.94,-22.62 7.73,-1.03 27.79,-33.88l155.35 -247.66 -1.23 43.92 8.87 -28.78 -0.2 -85.75c-35.89,8.05 -23.23,33.82 -42.89,68.45l-94.59 142.98c-20.31,24.63 -15.43,5.31 -27.29,31.73 -5.78,12.86 -5.57,21.44 -14.67,39.19l-22.74 -1.93c-16.36,-6.45 -1.65,-25.9 -11.46,-7.46zm-1.93 -257.96l-1.33 43.62c32.15,-5.06 25.15,-20.73 44.65,-50.09 13.43,-20.28 30.61,-36.88 45.55,-59.41 32.39,-48.69 41.19,-104.17 94,-126.19l-12.83 -41.06c-58.68,1.93 -163.29,169.17 -170.04,233.13zm43.74 1347.61l27.9 76.87 26.56 27.5c-9.04,-97.37 -17.54,-10.3 -23.11,-167.56 -2.17,-59.9 11.95,-138.76 58.41,-174.63l-3.33 -46.03 -7.7 -5.86c-42.27,19.24 -55.29,73.48 -71.58,112.98 -31.53,76.39 -16.74,98.18 -7.15,176.73zm-43.74 -1347.61c-19.22,31.29 -18.8,44.47 -16.62,80.98l4.95 53.34c34.72,-3.79 77.97,-117.13 101.07,-147.58 31.49,-41.51 89.75,-130.47 93.47,-178.81 -52.81,22.02 -61.61,77.5 -94,126.19 -14.94,22.53 -32.12,39.13 -45.55,59.41 -19.5,29.36 -12.5,45.03 -44.65,50.09l1.33 -43.62zm-18.33 -313.62c32.58,-35.43 1.51,-68.28 65.88,-118.92l1.89 -21.58 1.38 -35.28 -25.1 0.82c-86.22,26.16 -82.8,109.16 -44.05,174.96zm44.05 -174.96l25.1 -0.82 -1.38 35.28 36.83 -52.83c41.59,36.39 58.16,65.83 45.31,120.25 33.86,-31.12 12.41,-24.45 29.68,-62.78l21.59 -3.28 -96.51 -96.16 -60.62 60.34zm-44.05 174.96l34.65 24.93 -5.06 -30.61 56.53 -34.81c-13.73,-38.36 -19.87,-35.54 -20.24,-78.43 -64.37,50.64 -33.3,83.49 -65.88,118.92zm359.43 381.42l-27.56 -102.23c-19.92,-37.85 -28.33,-72.71 -62.54,-98.17 10.47,37.54 67.86,177.64 90.1,200.4zm-342.29 1273.89c14.32,33.96 42.58,62.21 72.83,82.79l-27.9 -76.87 -31.29 -53.93 0.95 43 -14.59 5.01zm17.51 -1630.38l-2.37 6.86c31.37,-11.66 56.44,-35.45 72.9,-64.18l-19.06 -8.1 -56.53 34.81 5.06 30.61zm1087.67 -155.55c26.56,-10.61 33.17,-19.45 34.2,-48.59l-50.3 -7.99 -11.69 44.06 27.79 12.52z"/>
   <path class="fil2" d="M-4058.24 2299.19c38.11,-10.87 135.81,-7.86 178.43,-4.42 63.25,5.12 86.33,42.22 57.48,99.87 -36.2,30.52 -191.06,30.98 -239.27,16.48l3.36 -111.93zm-67.88 -58.71c-3.68,64.96 -16.55,373.33 13.4,409.19 87.23,19.85 31.03,-108.04 59.37,-166.59 31.62,-13.75 115.67,-16.68 140.39,12.04 46.25,53.75 69.49,155.9 155.48,198.23 33.75,16.62 110.81,30.67 132.93,-8.19 -49.78,-29.33 -75.04,5.02 -133.33,-71.16 -159.05,-207.85 -28.45,-107.99 5.83,-220.21 14.41,-47.18 1.87,-105.63 -41.47,-133.44 -52.97,-33.98 -268.35,-30.03 -332.6,-19.87z"/>
   <path class="fil2" d="M-3247.8 2964.51c-13.7,-30.69 -9.94,-83.88 -3.93,-115.72 56.08,-11.2 243.06,-26.56 246.88,55.45 4.23,90.68 -184.75,73.03 -242.95,60.27zm217.85 66.01c26.14,-34.96 72.57,-26.78 86.61,-93.63 47,-223.8 -368.36,-138.78 -368.36,-138.78 -20.2,44.7 -21.28,365.45 4.65,404.8l39.16 -3.48c32.44,-47.31 -4.99,-108.46 24.38,-162.28 36.47,-17.23 116.52,-20.27 142.81,16.35 19.72,27.44 44.19,73.75 63.38,104.5 84.97,136.14 197.88,112.63 216.5,79.96 -33.25,-27.24 -78.05,2.09 -133.2,-74.58 -20.68,-28.76 -74.81,-101.1 -75.93,-132.86z"/>
   <path class="fil2" d="M-2878.23 2488.1c-45.6,180.47 -406.01,143.68 -351.85,-84.74 42.62,-179.71 410.33,-146.69 351.85,84.74zm-254.07 -248.12c-295.25,77.52 -186.15,495.66 159.64,412.82 282.28,-67.6 188.36,-504.17 -159.64,-412.82z"/>
   <path class="fil2" d="M-4493.39 2302.38c68.1,-16.15 238.06,10.83 283.15,-23.7l-3.22 -30.41c-28.38,-20.13 -300.33,-20.11 -336.24,-4.58 -18.18,34.95 -17.87,365.83 -0.31,402.11 34.98,17.3 305.35,17.32 343.51,-0.71l-4.23 -38.94c-62.56,-30.89 -206.15,13.07 -271.36,-20.2 -17.42,-32.39 -17.77,-74.36 -0.04,-106.66 55.34,-27.2 133.53,10.87 183.39,-24.11 5.21,-96.45 -134.63,-9.51 -183.3,-55.7 -18.22,-33.02 -11.6,-59.14 -11.35,-97.1z"/>
   <path class="fil2" d="M-5394.56 2299.12c48.08,-13.33 232.72,-28.19 233.12,56.36 0.43,85.04 -186.98,69.81 -237.1,55.86l3.98 -112.22zm-64.21 351.32l52.94 3.19 8.5 -174.87c95.37,-18.57 333.27,39.94 299.5,-149.54 -25.86,-145.05 -350.37,-89.71 -361.47,-85.29 -12.43,36.77 -13.44,368.93 0.53,406.51z"/>
   <path class="fil2" d="M-4926.77 3031.69c-1.45,-27.07 43.68,-124.43 65.11,-143.01 19.78,16.93 65.68,117.16 65.25,143.03 -36.22,11.38 -94.32,11.31 -130.36,-0.02zm-140.54 167.08c81,36.88 65.22,-66.76 106.7,-94.29 25.35,-16.81 161.07,-11.09 192.49,-2.91 48.72,41.9 31.33,132.63 117.92,98.98 4.6,-37.74 -69.2,-171.94 -88.59,-215.62 -19.3,-43.42 -73.23,-197.14 -122.5,-196.56 -48.32,0.59 -99.36,155.43 -119.96,199.18 -18.99,40.38 -93.89,177.9 -86.06,211.22z"/>
   <path class="fil2" d="M-3660.25 3032.41c-0.3,-22.44 49.32,-128.89 65.91,-147.55 17.89,14.39 67.16,124.52 68.63,151.76l-134.54 -4.21zm-140.51 167.13c84.25,35.49 66.91,-63.37 105.95,-93.01 25.48,-19.34 166.48,-13.67 198.7,-3.68 41.6,44.72 34.01,132.23 112.85,96.27 2.38,-12.48 -149.54,-415.62 -212.54,-410.43 -49.83,4.12 -208.37,393.02 -204.96,410.85z"/>
   <path class="fil2" d="M-2398.12 3031.82c-1.87,-34.22 40.73,-115.96 60.73,-146.5 19.81,11.79 69.54,122.82 69.62,146.79 -37.29,10.82 -93.76,10.8 -130.35,-0.29zm-145.39 168.11c86.13,34.82 70.38,-63.06 105.39,-91.91 25.48,-20.99 165.29,-15.12 199.48,-6.89 43.62,41.17 31.69,134.78 112.84,97.62 8.21,-34.2 -69.51,-175.56 -88.58,-217.65 -38.93,-85.92 -71.76,-199.33 -125.15,-192.07 -46,6.25 -206.33,391.47 -203.98,410.9z"/>
   <path class="fil2" d="M-5003.67 2237.27c-54.73,15.29 -37.13,74.24 -37.02,127.01 0.11,51.71 -2.33,108.43 1.06,159.51 7.37,111.14 77.48,135.7 178.87,137.85 86.86,1.85 185.3,-11.18 200.64,-113.32 7.22,-48.06 11.35,-270.32 -7.79,-309.05l-41.13 4.27c-21.93,41.72 -9.26,189.24 -10.01,244.75 -1.47,104.96 -40.13,117.13 -141.86,113.32 -114.05,-4.29 -113.7,-38.74 -113.74,-139.97 0,-57.89 26.07,-193.32 -29.02,-224.37z"/>
   <path class="fil2" d="M-5462.07 2794.88c23.2,49.22 61.04,152.31 87.84,215.05 120.39,282.01 123.98,252.12 237.06,-1.74 17.62,-39.56 90.02,-180.63 82.77,-212.48 -101.32,-42.07 -129.45,238.46 -198.3,310.57 -24.49,-15.11 -69.02,-142.71 -84.8,-177.39 -30.79,-67.71 -40.05,-164.13 -124.57,-134.01z"/>
   <path class="fil2" d="M-2505.99 2832.64l-1.54 -33.65c-35.67,-22.16 -364.87,-22.51 -401.84,0.11l6.1 38.78c48.23,18.06 106.59,-0.07 157.33,11.97 23.78,80.22 -13.41,269.66 11.39,355.25l53.8 -4.35c25.15,-80.1 -11.86,-269.6 11.29,-351.02 50.37,-11.86 119.58,12.22 163.47,-17.09z"/>
   <path class="fil2" d="M-3716.24 2287.28l165.22 9.22c18.71,88.62 -14.37,286.37 11.12,353.86l52.7 3.32c24.62,-82.41 -11.75,-272.08 11.29,-354.14l158.4 -7.31 2.53 -53.2 -397.63 -3.24 -3.63 51.49z"/>
   <path class="fil2" d="M-4175.14 2793.74c-13.54,45.7 -13.34,363.35 -0.31,406.37 36.83,13.58 306.14,13.64 347.47,0.75l-3.59 -45.11c-74.07,-24.07 -202.35,10.05 -279.23,-11.58 -21,-84.64 13.72,-276.87 -11.32,-354.57l-53.02 4.14z"/>
   <path class="fil2" d="M-4582.25 2793.67c-13.62,44.86 -13.25,364.17 -0.06,406.6 35.11,12.87 308.1,13.15 347.47,0.72l-3.42 -45.5c-70.59,-23.04 -204.72,9.92 -279.6,-11.21 -21.26,-83.99 14.32,-276.13 -11.07,-354.59l-53.32 3.98z"/>
  </g>
  <g id="_1746511917424">
   <g id="_2189106169744">
    <path class="fil3" d="M174.11 1744.3c-1.23,-2.24 -2.5,-4.6 -3.93,-7.04 0.4,1.1 0.27,0.19 -0.36,-2.67 -0.69,-2.84 -1.9,-7.7 -3.7,-14.53 0.48,-1.69 0.74,-3.09 0.81,-4.21 -0.02,-1.16 0.07,-2.23 0.14,-3.21 -1.56,-0.88 -2.74,-1.69 -3.62,-2.39 -0.89,-0.72 -1.39,-1.36 -1.61,-1.96 -1.65,-7.58 -3.29,-14.74 -4.81,-21.55 -0.54,-1.87 -0.24,-4.24 0.89,-7.19 1.13,-2.96 2.97,-6.37 5.43,-10.21 1.92,-3.24 3.88,-6.16 5.93,-8.63 2.06,-2.46 4.09,-4.64 6.12,-6.41 2.82,-2.26 4.37,-3.85 4.73,-4.74 0.35,-0.95 0.88,-1.56 1.56,-1.81 1.93,-0.7 3.74,-0.26 5.4,1.27 1.72,1.51 3.23,4.19 4.62,8.01 0.73,2 1.26,4.97 1.51,8.86 0.27,3.96 0.73,6.74 1.33,8.38 0.26,0.73 1.38,3.41 3.28,8.09 1.9,4.67 4.62,11.37 8.22,20.15 2.44,6.33 5.84,12.86 10.17,19.46 4.38,6.59 9.31,13.32 14.88,20.16 7.41,8.85 14.11,14.99 20.19,18.5 6.15,3.47 11.74,4.31 16.84,2.46 4.01,-1.46 8.39,-6 13.18,-13.65 4.72,-7.63 9.69,-18.3 14.88,-32.01 3.99,-10.58 7.38,-20.34 10.24,-29.28 2.8,-8.92 4.84,-16.93 6.08,-23.91 1.2,-6.35 3.08,-12.32 5.74,-18.03 2.63,-5.64 5.97,-11.18 10.08,-16.51 1.28,-1.58 2.39,-2.87 3.23,-3.79 0.86,-1 1.61,-1.61 2.21,-1.84 2.13,-0.76 4.34,0.22 6.6,3.04 2.32,2.79 4.59,7.32 6.86,13.58 1.4,6.09 2.94,12.06 4.54,17.94 2.12,9.25 3.92,19.11 5.34,29.45 1.42,10.34 2.3,21.28 2.78,32.78 0.2,5.85 0.46,10.9 0.67,15.29 0.26,4.31 0.63,7.95 1.14,10.86 0.31,1.6 0.72,3.66 1.12,6.11 0.42,2.46 0.97,5.28 1.6,8.56 -0.07,3.39 -0.33,6.86 -0.63,10.33 -0.36,2.81 -0.3,6.02 0.1,9.58 0.49,3.61 1.17,7.75 2.21,12.32 0.29,0.79 0.63,1.91 0.99,3.28 0.34,1.32 0.7,2.7 1.11,4.2 1.67,13.07 3.16,25.86 4.43,38.24 0.15,1.19 0.08,2.72 -0.1,4.64 -1.41,1.06 -2.73,2.71 -4.18,4.97 -1.37,2.27 -2.66,5.14 -3.79,8.64 -1.26,3.14 -2.38,5.55 -3.44,7.16 -0.98,1.67 -1.87,2.61 -2.54,2.86 -0.97,0.34 -1.87,0.33 -2.7,-0.06 -0.74,-0.34 -1.43,-1.26 -1.93,-2.65 -0.23,-1.03 -0.33,-1.88 -0.31,-2.57 0.18,-4.6 -0.49,-10.97 -2.03,-18.99 -1.48,-8.05 -3.73,-17.81 -6.75,-29.35 -0.74,-2.41 -2.09,-9.14 -4.11,-20.21 -1.98,-11.11 -4.63,-26.5 -7.95,-46.25 -0.6,-3.15 -1.32,-7.01 -2.1,-11.6 -0.77,-4.6 -1.61,-9.92 -2.49,-15.92 -0.19,-3.17 -0.4,-5.84 -0.6,-8.1 -0.21,-2.27 -0.52,-3.86 -0.86,-4.84 -0.45,-1.22 -0.94,-2 -1.54,-2.32 -0.63,-0.4 -1.34,-0.48 -2.19,-0.17 -0.73,0.26 -1.65,1.7 -2.87,4.2 -1.22,2.5 -2.65,6.12 -4.1,10.83 -0.97,2.63 -1.9,5.37 -2.78,8.23 -0.86,2.92 -1.89,5.77 -3,8.58 -2.01,4.51 -3.85,8.68 -5.5,12.64l-8.38 17.96c-0.89,1.15 -2.04,2.53 -3.34,4.24 -1.39,1.67 -2.92,3.67 -4.78,5.93 -1.01,4.41 -3.48,8.75 -7.47,13.09 -3.99,4.33 -8.03,7.24 -12.21,8.76 -4.97,1.81 -10.28,1.96 -16.02,0.53 -5.7,-1.49 -11.89,-4.74 -18.5,-9.69 -3.06,-2.53 -6.1,-5.07 -9.07,-7.55 -2.99,-2.56 -6.16,-5.05 -9.45,-7.5l-0.85 0.52c-0.34,0.95 0.31,6.14 1.97,15.64 1.58,9.45 4.33,23.23 8.08,41.3 3.69,18.66 6.68,33.31 8.89,43.9 2.26,10.58 3.89,17.34 4.98,20.32 1.23,4.15 1.63,7.52 1.14,10.16 -0.41,2.63 -1.89,4.61 -4.37,5.92 -1.23,0.59 -2.91,1.61 -5.17,2.98 -2.17,1.4 -4.72,3.09 -7.75,5.15 -0.64,0.1 -1.26,0.11 -1.85,-0.01 -0.53,-0.15 -0.93,-0.48 -1.16,-1.09l-1.37 -7 -4.21 -6.09c-0.62,-3.97 -1.23,-7.74 -1.75,-11.45 -2.11,-7.28 -4.1,-14.11 -6.03,-20.56 -0.35,-1.31 -0.73,-3.71 -1.05,-7.03 -0.4,-3.36 -0.81,-5.82 -1.39,-7.4 -0.28,-0.79 -0.9,-1.93 -1.87,-3.44 -0.93,-1.45 -1.56,-2.6 -1.87,-3.45 -2.36,-6.49 -4.83,-16.51 -7.42,-30.06 -2.53,-13.58 -5.03,-23.67 -7.46,-30.35 -1.36,-2.6 -2.77,-5.17 -4.25,-7.72 -0.93,-4.47 -1.91,-10.17 -2.95,-17 -1.06,-6.9 -2.26,-14.91 -3.73,-24.06zm229.76 47.08l12.28 -16.49c0.39,-0.82 0.83,-1.88 1.24,-3.19 0.5,-1.29 0.95,-3.09 1.29,-5.36 0.27,-1.88 0.9,-3.55 1.9,-5.15 0.96,-1.51 2.19,-3.07 3.64,-4.55 0.55,-1.51 1.33,-3.51 2.51,-5.93 1.13,-2.4 2.62,-5.27 4.49,-8.64 1.01,-1.19 2.33,-2.84 3.83,-4.97 1.52,-2.06 3.04,-4.67 4.59,-7.78 7.1,-14.12 13.79,-25.21 20.07,-33.26 6.21,-8.03 12.14,-13.07 17.73,-15.1 3.1,-1.13 5.57,-1.28 7.56,-0.56 1.95,0.81 3.33,2.37 4.19,4.74 0.91,2.48 1.27,4.82 1.05,7.03 -0.15,2.25 -0.97,4.34 -2.36,6.36 -2.2,3.2 -4.56,6.74 -7.07,10.61 -0.97,3.17 -2.33,6.61 -4.05,10.4 -1.72,3.79 -3.94,7.68 -6.59,11.74 -0.64,2.01 -1.12,3.71 -1.53,5.22 -0.42,0.78 -1.1,2.26 -2.25,4.4 -1.07,2.17 -2.61,4.73 -4.61,7.73 -0.27,3.04 -1.59,7.37 -4.04,12.93 -2.47,5.64 -5.94,12.54 -10.52,20.74 -0.48,1.13 -1.31,3.56 -2.37,7.31 -1.03,3.74 -2.41,8.64 -4.08,14.82l1.84 1.1c2.31,-1.8 4.53,-4.17 6.65,-7.21 2.04,-3.09 4.22,-6.91 6.49,-11.44 2.66,-5.15 4.86,-9.33 6.57,-12.56 1.72,-3.23 2.98,-5.41 3.81,-6.53 0.61,-0.78 1.28,-1.57 1.98,-2.3 0.61,-0.78 1.36,-1.73 2.13,-2.84 3.1,-8.47 6.43,-15.19 10.1,-20.02 3.59,-4.87 7.38,-8.04 11.39,-9.5 2.55,-0.92 4.78,-0.64 6.76,0.84 2.06,1.52 3.85,4.16 5.51,7.96 1.92,6.04 3.93,11.76 5.92,17.22 1.24,3.81 3.51,6.84 6.79,9.08 3.3,2.24 6.7,2.71 10.28,1.41 1.09,-0.4 2.01,-1.07 2.76,-2.03 0.81,-0.99 1.58,-2.09 2.32,-3.46 0.39,-1.38 0.83,-2.63 1.26,-3.89 0.44,-1.26 0.9,-2.46 1.4,-3.74 0.4,-0.41 0.91,-1.08 1.54,-2 0.69,-0.94 1.29,-1.91 1.83,-3.07 2.94,2.98 5.47,5.57 7.59,7.82 2.06,2.28 3.77,4.33 5.1,6.12 -1.82,3.48 -3.54,7.06 -5.27,10.63 -1.7,3.64 -3.62,7.24 -5.67,10.65 -2.59,4.04 -5.3,7.36 -8.09,9.89 -2.83,2.61 -5.93,4.49 -9.2,5.68 -7.71,2.8 -14.45,2.78 -20.16,-0.09 -5.8,-2.91 -10.64,-8.64 -14.55,-17.32 -0.37,-1.03 -0.95,-2.06 -1.67,-3.1 -0.71,-0.98 -1.73,-1.91 -3.14,-2.77 -0.33,0.8 -0.77,1.65 -1.26,2.59 -0.49,0.92 -0.97,2.06 -1.56,3.45 -1.08,1.76 -2.49,3.93 -4.14,6.58 -1.66,2.6 -3.62,5.71 -5.75,9.31 -2.64,5.77 -4.83,10.55 -6.68,14.31 -1.86,3.77 -3.16,6.44 -3.93,8.09 -1.64,2.87 -3.64,5.87 -6.07,9.02 -2.42,3.14 -5.18,6.54 -8.35,10.11 -2.02,2.18 -3.77,3.98 -5.25,5.41 -1.47,1.42 -2.68,2.27 -3.52,2.58 -5.65,2.05 -10.4,2.2 -14.15,0.41 -3.74,-1.8 -6.64,-5.62 -8.74,-11.4 -1.17,-3.2 -1.61,-6.48 -1.27,-9.91 0.28,-3.39 1.3,-7 3.07,-10.66 -0.34,-1.67 -0.65,-2.93 -1,-3.9 -0.23,-0.6 -0.57,-1.17 -1.11,-1.72 -0.53,-0.5 -1.22,-1.07 -1.96,-1.76 -1.32,-1.38 -2.79,-2.97 -4.48,-4.77 -1.59,-1.76 -3.38,-3.64 -5.33,-5.62 0.31,-0.66 0.64,-1.81 1.06,-3.47 0.35,-1.71 0.77,-3.79 1.25,-6.23zm133.87 -39.8c0.67,-1.55 1.17,-3.37 1.63,-5.54 0.41,-2.07 1.18,-4.48 2.22,-7.12l7.98 -14.52c0.35,-0.53 0.42,-1.11 0.26,-1.74 -0.14,-0.56 -0.39,-1.43 -0.76,-2.47 -0.69,-1.53 -1.32,-2.68 -1.92,-3.57 -0.99,-2.73 -2.1,-7.48 -3.41,-14.29 -1.22,-6.76 -1.64,-10.94 -1.33,-12.56l-2.27 -3.03c-1.35,-8.44 -2.32,-17.91 -2.97,-28.39 -0.63,-10.43 -1.18,-21.76 -1.67,-34.09 0.53,-2.32 0.86,-5.19 1.13,-8.59 0.22,-3.37 0.54,-7.2 0.86,-11.44 -0.26,-6.92 0.08,-14.32 0.95,-22.33 0.9,-7.94 2.07,-16.22 3.68,-24.83 2.1,-11.42 4.53,-20.27 7.11,-26.57 2.59,-6.3 5.61,-10.08 9.07,-11.33 6.86,-2.5 12.08,-2.88 15.6,-1.14 3.52,1.74 6.6,6.26 9.27,13.59 0.71,1.95 1.46,4.98 2.22,9.16 0.8,4.25 1.57,7.33 2.3,9.34 0.76,2.06 1.1,5.1 1.17,9.26 -0.01,4.13 0.56,7.77 1.69,10.86 0.23,1.02 0.25,2.04 0.17,3.16l1.1 2.43c0.1,1.81 0.1,4.07 0,6.8 -0.06,2.69 -0.29,6.01 -0.6,9.9 0.23,3.29 0.43,7.06 0.53,11.48 0.14,4.35 0.14,9.24 0.05,14.49 -0.31,1.42 -0.69,3.2 -1.15,5.36 -0.53,2.12 -1.03,4.5 -1.54,7.09 0.19,1.64 0.22,3.63 0.13,6.01 -0.07,2.27 -0.36,5.07 -0.77,8.31 -0.22,1.65 -0.62,3.59 -1.17,5.65 -0.62,2.07 -1.24,4.7 -1.99,7.93 -0.23,1.45 -0.5,3.2 -0.68,5.33 -0.15,2.04 -0.39,4.4 -0.66,7.04 -0.55,2.47 -1.34,5.58 -2.45,9.35 -1.04,3.74 -2.19,8.14 -3.46,13.14 -1.26,7.88 -2.83,15.46 -4.56,22.82 4.17,11.47 9.57,19.33 16.32,23.54 6.68,4.16 14.61,4.65 23.71,1.34 0.61,-0.22 2.22,-1.28 4.87,-3.22 2.7,-1.86 6.27,-4.67 10.85,-8.33 1.17,-1.52 2.57,-3.55 4.05,-6.08 1.51,-2.47 3.19,-5.42 5.05,-8.77l12.88 13.87c-2.11,3.85 -4.18,7.77 -6.18,11.72 -2.06,3.98 -4.2,7.92 -6.42,11.82 -2.54,4.36 -5.44,8.09 -8.63,11.04 -3.23,3.03 -6.65,5.16 -10.35,6.5 -1.89,0.69 -4.86,1.57 -8.9,2.55 -4.1,1.02 -7.1,1.83 -9.15,2.57 -6.62,2.41 -13.05,1.73 -19.34,-1.96 -6.26,-3.78 -12.2,-10.68 -17.85,-20.73 -0.63,-1 -1.33,-1.78 -2.07,-2.47 -0.67,-0.71 -1.78,-1.35 -3.21,-2.05 -1.03,2.08 -2.1,4.61 -3.4,7.48 -1.35,2.89 -2.96,6.22 -4.94,10.04l-13.05 -13.81zm34.06 -170.34l-1.45 -0.22c-4.37,8.8 -7.14,16.68 -8.46,23.62 -1.29,6.85 -0.98,12.99 0.96,18.33 0.32,0.85 0.39,2.41 0.37,4.61 -0.08,2.23 -0.32,5.14 -0.72,8.78 -0.6,4.41 -1.09,9.12 -1.49,14.22 0.17,7.49 0.38,13.53 0.72,18.08 0.29,4.56 0.82,7.73 1.46,9.5l1.56 1.07c1.06,-0.51 1.93,-2.07 2.77,-4.64 0.8,-2.56 1.47,-6.17 2.13,-10.8 0.14,-2.46 0.64,-5.46 1.35,-8.94 0.73,-3.5 1.49,-7.63 2.39,-12.35 0.93,-3.29 1.51,-11.12 1.74,-23.37 0.2,-12.3 -0.04,-19.98 -0.77,-23.08 -0.73,-2.42 -1.23,-4.91 -1.59,-7.4 -0.28,-2.5 -0.61,-4.92 -0.97,-7.41z"/>
    <g>
     <path class="fil3" d="M684.65 1522.56l16.53 30.69 0 0 -15.14 8.16 -13.41 7.24 -11.73 6.34 -10.15 5.51 -8.62 4.69 -7.19 3.95 -5.81 3.2 -4.49 2.52 -3.23 1.83 -1.88 1.11 -0.01 -0.02 -8.77 -31.17 -7.38 0.91 0.76 -0.34 1.98 -0.9 2.8 -1.33 3.44 -1.64 4.01 -1.94 4.48 -2.18 4.85 -2.37 5.16 -2.51 5.38 -2.63 5.55 -2.69 5.61 -2.71 5.61 -2.7 5.55 -2.65 5.39 -2.55 5.17 -2.43 4.91 -2.25 4.54 -2.04 4.15 -1.81 3.73 -1.54 12.95 32.36 -3.03 1.26 -3.69 1.61 -4.23 1.9 -4.66 2.14 -5.01 2.34 -5.26 2.48 -5.43 2.6 -5.54 2.67 -5.57 2.69 -5.49 2.67 -5.37 2.61 -5.15 2.51 -4.87 2.37 -4.51 2.2 -4.1 1.98 -3.6 1.73 -3.06 1.44 -2.53 1.16 -2.24 0.94 -8.76 1.33 -8.32 -31.68 2.4 -1.57 2.62 -1.56 3.55 -2.01 4.68 -2.61 5.93 -3.28 7.26 -3.98 8.69 -4.74 10.19 -5.53 11.78 -6.37 13.42 -7.24 15.16 -8.17 0 0zm290.12 -131.9l15.57 31.18 -0.92 0.43 -8.71 3.73 -8.82 3.76 -8.9 3.8 -9.01 3.83 -9.06 3.86 -9.15 3.9 -9.21 3.92 -9.25 3.96 -9.31 3.98 -9.35 4.01 -9.37 4.03 -9.38 4.05 -9.4 4.09 -9.4 4.09 -9.39 4.13 -9.39 4.14 -9.36 4.15 -9.33 4.17 -9.28 4.19 -9.23 4.21 -9.2 4.21 -9.11 4.22 -9.04 4.24 -8.96 4.24 -8.86 4.25 -8.77 4.25 -8.65 4.26 -8.55 4.26 -8.41 4.27 -8.28 4.26 -8.13 4.26 -7.98 4.26 -16.53 -30.69 8.21 -4.38 8.37 -4.38 8.48 -4.37 8.61 -4.36 8.72 -4.36 8.84 -4.34 8.92 -4.34 9.02 -4.32 9.1 -4.3 9.16 -4.3 9.25 -4.28 9.29 -4.27 9.34 -4.25 9.39 -4.23 9.42 -4.22 9.45 -4.19 9.45 -4.17 9.46 -4.15 9.47 -4.13 9.45 -4.1 9.44 -4.08 9.4 -4.05 9.39 -4.02 9.31 -3.99 9.29 -3.97 9.22 -3.92 9.15 -3.91 9.08 -3.86 8.99 -3.84 8.9 -3.78 8.79 -3.76 8.68 -3.71 -0.92 0.43zm15.57 31.18l-0.49 0.24 -0.43 0.19 0.92 -0.43zm-135.69 291.44l-33.82 -8.46 0.15 -0.55 3.04 -9.75 3.65 -10.28 4.2 -10.81 4.72 -11.28 5.19 -11.72 5.59 -12.1 5.95 -12.42 6.27 -12.69 6.52 -12.89 6.73 -13.05 6.88 -13.11 6.99 -13.12 7.03 -13.07 7.04 -12.95 6.98 -12.76 6.86 -12.51 6.71 -12.19 6.49 -11.79 6.22 -11.33 5.9 -10.8 5.51 -10.19 5.08 -9.52 4.59 -8.76 4.03 -7.92 3.41 -6.98 2.71 -5.9 1.94 -4.63 1.04 -2.96 0.11 -0.23 1.08 6.55 13.8 9.97 7.1 -1.24 -15.57 -31.18 11.05 -2.35 15.85 11.52 1.34 10.6 -1.32 6.19 -1.96 5.69 -2.55 6.12 -3.14 6.83 -3.71 7.58 -4.24 8.33 -4.74 9.07 -5.2 9.72 -5.58 10.33 -5.95 10.9 -6.25 11.39 -6.5 11.8 -6.7 12.17 -6.85 12.46 -6.93 12.7 -6.99 12.84 -6.95 12.95 -6.91 12.97 -6.78 12.91 -6.61 12.8 -6.38 12.63 -6.1 12.35 -5.76 12.03 -5.38 11.62 -4.93 11.13 -4.41 10.56 -3.87 9.91 -3.24 9.16 -2.58 8.27 0.15 -0.56zm-33.82 -8.46l0.09 -0.34 0.06 -0.21 -0.15 0.55zm168.31 -79.02l0 34.86 7.8 -1.84 -4.92 2.48 -5.23 2.73 -5.52 2.92 -5.74 3.08 -5.97 3.24 -6.14 3.35 -6.28 3.45 -6.39 3.52 -6.47 3.57 -6.53 3.59 -6.55 3.58 -6.54 3.56 -6.49 3.51 -6.43 3.44 -6.35 3.34 -6.22 3.23 -6.08 3.08 -5.9 2.9 -5.7 2.73 -5.51 2.53 -5.28 2.29 -5.05 2.07 -4.86 1.79 -4.65 1.5 -4.6 1.2 -4.72 0.82 -5.19 0.25 -6.24 -0.96 -7.55 -3.84 -6.05 -7.88 -1.77 -8.47 0.81 -6.6 33.82 8.46 0.23 -2.2 -1.12 -5.09 -4.2 -5.49 -4.56 -2.39 -2.2 -0.38 -0.12 -0.02 1.29 -0.24 2.32 -0.61 3.07 -1 3.64 -1.34 4.17 -1.7 4.58 -1.98 4.93 -2.27 5.27 -2.53 5.55 -2.74 5.77 -2.92 5.98 -3.09 6.14 -3.24 6.28 -3.36 6.37 -3.44 6.46 -3.51 6.49 -3.55 6.47 -3.56 6.47 -3.58 6.42 -3.53 6.32 -3.48 6.22 -3.38 6.08 -3.3 5.91 -3.17 5.71 -3.02 5.5 -2.86 5.26 -2.67 7.79 -1.84zm-7.79 1.84l3.67 -1.84 4.12 0 -7.79 1.84zm2.54 45l-28.99 -19.33 2.18 -2.66 0.97 -0.95 1 -0.94 1.01 -0.89 1.02 -0.89 1.04 -0.87 1.01 -0.84 1.02 -0.83 1.08 -0.89 1.05 -0.84 1.04 -0.83 1.03 -0.82 1 -0.81 1 -0.81 0.97 -0.78 0.86 -0.7 0.83 -0.69 0.86 -0.72 0.66 -0.56 0.54 -0.49 0.54 -0.49 0.41 -0.39 0.22 -0.21 -0.04 0.04 -0.26 0.31 -0.57 0.83 -0.96 1.79 -1.11 3.65 0.13 6.51 3.78 7.49 5.68 4.23 4.09 1.22 2.16 0.18 0 -34.86 3.24 0.25 4.88 1.44 6.18 4.6 4.03 7.98 0.13 7.14 -1.36 4.39 -1.42 2.63 -1.25 1.79 -1.12 1.36 -1.08 1.18 -1 1 -0.95 0.91 -0.95 0.87 -1.06 0.94 -1.07 0.91 -0.95 0.8 -1.05 0.88 -1.09 0.89 -1.03 0.83 -1.03 0.82 -1.05 0.84 -1.03 0.83 -1.01 0.81 -0.97 0.78 -0.9 0.73 -0.91 0.75 -0.85 0.7 -0.75 0.64 -0.67 0.57 -0.56 0.51 -0.44 0.4 -0.33 0.32 2.17 -2.65zm-28.99 -19.33l0.95 -1.43 1.23 -1.23 -2.18 2.66zm-55.49 155.7l-31.18 -15.59 -0.43 0.93 2.04 -4.63 2.13 -4.65 2.25 -4.65 2.33 -4.67 2.43 -4.67 2.5 -4.67 2.58 -4.68 2.63 -4.65 2.71 -4.67 2.75 -4.66 2.81 -4.65 2.86 -4.64 2.89 -4.64 2.94 -4.61 2.93 -4.56 2.98 -4.57 2.99 -4.53 2.98 -4.5 3 -4.48 2.99 -4.42 2.98 -4.39 2.97 -4.34 2.95 -4.3 2.91 -4.24 2.88 -4.19 2.85 -4.13 2.79 -4.04 2.74 -4.01 2.68 -3.91 2.61 -3.84 2.55 -3.78 2.47 -3.67 28.99 19.33 -2.54 3.81 -2.61 3.85 -2.67 3.94 -2.73 3.97 -2.76 4.04 -2.82 4.09 -2.84 4.12 -2.86 4.17 -2.91 4.22 -2.91 4.25 -2.93 4.29 -2.93 4.31 -2.93 4.34 -2.93 4.36 -2.91 4.39 -2.9 4.39 -2.86 4.4 -2.85 4.43 -2.8 4.4 -2.76 4.41 -2.71 4.42 -2.66 4.4 -2.6 4.38 -2.52 4.37 -2.47 4.35 -2.38 4.31 -2.28 4.29 -2.21 4.24 -2.1 4.2 -2 4.16 -1.89 4.09 -1.78 4.05 -0.43 0.93zm0.43 -0.93l-0.21 0.49 -0.22 0.44 0.43 -0.93zm-71 124.79l-34.86 0 0.67 -4.79 1.47 -4.84 1.62 -4.83 1.76 -4.75 1.88 -4.72 2.01 -4.69 2.1 -4.63 2.21 -4.61 2.29 -4.57 2.37 -4.51 2.45 -4.5 2.5 -4.45 2.55 -4.41 2.58 -4.36 2.63 -4.36 2.66 -4.3 2.66 -4.26 2.69 -4.24 2.67 -4.17 2.65 -4.14 2.66 -4.12 2.62 -4.05 2.58 -4.01 2.54 -3.97 2.48 -3.92 2.42 -3.85 2.36 -3.84 2.28 -3.75 2.18 -3.69 2.1 -3.64 1.97 -3.56 1.88 -3.49 1.76 -3.43 31.18 15.59 -2.06 4.03 -2.16 4.01 -2.24 4.03 -2.32 4.03 -2.39 4.03 -2.44 4.04 -2.49 4.03 -2.54 4.05 -2.58 4.06 -2.6 4.06 -2.62 4.07 -2.63 4.07 -2.62 4.07 -2.62 4.1 -2.63 4.09 -2.58 4.07 -2.55 4.1 -2.52 4.07 -2.46 4.08 -2.42 4.08 -2.36 4.07 -2.27 4.05 -2.2 4.05 -2.11 4.02 -2.01 4 -1.91 3.98 -1.8 3.98 -1.69 3.92 -1.55 3.92 -1.44 3.86 -1.29 3.83 -1.14 3.79 0.67 -4.78zm-34.86 0l0 -2.45 0.67 -2.34 -0.67 4.79zm37.13 -2.95l13.26 32.23 -6.63 1.31 -1.62 -0.04 -1.52 -0.13 -1.29 -0.14 -1.39 -0.2 -1.45 -0.26 -1.33 -0.28 -1.28 -0.29 -1.37 -0.34 -1.37 -0.37 -1.39 -0.39 -1.45 -0.46 -1.39 -0.46 -1.36 -0.47 -1.45 -0.54 -1.41 -0.56 -1.43 -0.58 -1.46 -0.66 -1.42 -0.67 -1.37 -0.68 -1.42 -0.76 -1.49 -0.85 -1.43 -0.9 -1.42 -0.98 -1.43 -1.07 -1.44 -1.2 -1.53 -1.45 -1.52 -1.69 -1.43 -1.88 -1.43 -2.38 -1.24 -2.83 -0.9 -3.36 -0.33 -3.72 34.86 0 -0.23 -2.5 -0.56 -2.12 -0.7 -1.6 -0.69 -1.16 -0.51 -0.67 -0.44 -0.5 -0.27 -0.26 -0.05 -0.04 0.11 0.08 0.22 0.15 0.34 0.21 0.37 0.22 0.54 0.28 0.64 0.33 0.68 0.31 0.68 0.3 0.74 0.31 0.8 0.32 0.76 0.27 0.86 0.3 0.83 0.28 0.73 0.22 0.77 0.23 0.74 0.2 0.69 0.17 0.69 0.15 0.57 0.12 0.36 0.06 0.32 0.05 0.29 0.04 -0.07 0 -0.31 -0.02 -6.63 1.32zm13.26 32.23l-3.19 1.31 -3.44 0 6.63 -1.31zm316.04 -256.11l12.94 32.36 1.32 -0.59 -9.42 4.9 -9.5 5.3 -9.6 5.69 -9.68 6.05 -9.75 6.38 -9.82 6.68 -9.88 6.96 -9.95 7.21 -10.02 7.43 -10.07 7.62 -10.11 7.79 -10.17 7.93 -10.21 8.04 -10.26 8.12 -10.3 8.16 -10.34 8.2 -10.4 8.19 -10.42 8.17 -10.46 8.1 -10.51 8.02 -10.55 7.91 -10.58 7.76 -10.62 7.6 -10.66 7.41 -10.71 7.18 -10.75 6.92 -10.8 6.64 -10.84 6.34 -10.9 5.99 -10.95 5.63 -11 5.22 -11.07 4.8 -13.26 -32.23 9.91 -4.3 9.97 -4.73 10.03 -5.17 10.08 -5.53 10.1 -5.91 10.15 -6.25 10.18 -6.56 10.21 -6.84 10.23 -7.1 10.25 -7.33 10.27 -7.54 10.28 -7.71 10.28 -7.85 10.3 -7.98 10.31 -8.07 10.31 -8.12 10.31 -8.18 10.31 -8.18 10.31 -8.15 10.3 -8.11 10.32 -8.04 10.32 -7.94 10.31 -7.8 10.29 -7.65 10.31 -7.47 10.31 -7.26 10.32 -7.02 10.32 -6.75 10.32 -6.45 10.34 -6.13 10.35 -5.78 10.37 -5.39 1.33 -0.59zm-1.33 0.59l0.63 -0.32 0.7 -0.27 -1.33 0.59zm82.91 22.8l-31.74 -14.42 -0.31 0.74 0.74 -1.99 0.42 -1.44 0.19 -0.84 0 -0.04 0.03 0.77 0.32 1.56 0.92 2.21 1.66 2.31 2.01 1.74 1.88 1.03 1.38 0.45 0.64 0.12 0 0 -0.56 0.03 -0.98 0.12 -1.4 0.25 -1.71 0.38 -1.92 0.5 -2.19 0.65 -2.36 0.74 -2.5 0.86 -2.64 0.95 -2.76 1.04 -2.88 1.12 -2.96 1.17 -3.01 1.21 -3.08 1.26 -3.12 1.29 -3.15 1.31 -3.2 1.31 -3.18 1.29 -3.18 1.29 -12.94 -32.36 3.01 -1.22 3.09 -1.26 3.1 -1.28 3.15 -1.31 3.18 -1.3 3.18 -1.31 3.21 -1.29 3.18 -1.26 3.15 -1.22 3.17 -1.2 3.14 -1.12 3.13 -1.07 3.08 -0.98 3.04 -0.89 3.09 -0.81 3.06 -0.67 3.08 -0.54 3.21 -0.38 3.34 -0.16 3.54 0.17 3.84 0.62 4.2 1.35 4.28 2.32 4.01 3.45 3.21 4.46 2 4.83 0.92 4.67 0.12 4.38 -0.44 4.1 -0.81 3.85 -1.13 3.84 -1.44 3.88 -0.31 0.74zm0.31 -0.74l-0.14 0.37 -0.17 0.37 0.31 -0.74zm-151.21 216.72l-32.75 -11.91 0 0 2.96 -7.56 3.32 -7.47 3.66 -7.4 3.97 -7.33 4.24 -7.25 4.49 -7.2 4.74 -7.14 4.92 -7.08 5.1 -7.07 5.27 -7 5.4 -6.97 5.51 -6.94 5.58 -6.9 5.67 -6.89 5.72 -6.86 5.71 -6.82 5.73 -6.8 5.69 -6.75 5.64 -6.76 5.59 -6.73 5.48 -6.68 5.35 -6.65 5.23 -6.63 5.06 -6.59 4.87 -6.56 4.67 -6.52 4.43 -6.47 4.17 -6.41 3.89 -6.36 3.61 -6.31 3.29 -6.23 2.95 -6.16 31.74 14.42 -3.56 7.41 -3.87 7.35 -4.16 7.28 -4.42 7.21 -4.66 7.16 -4.86 7.11 -5.05 7.05 -5.23 7.04 -5.35 6.97 -5.47 6.95 -5.57 6.92 -5.65 6.9 -5.7 6.85 -5.71 6.83 -5.73 6.82 -5.71 6.77 -5.67 6.75 -5.6 6.72 -5.51 6.7 -5.4 6.68 -5.28 6.63 -5.1 6.6 -4.93 6.57 -4.73 6.53 -4.51 6.49 -4.26 6.44 -3.98 6.37 -3.71 6.32 -3.38 6.25 -3.06 6.19 -2.72 6.1 -2.35 6.02 -0.01 0zm220.87 -101.2l12.64 32.49 0.15 -0.06 -2.91 1.27 -4.41 2.08 -5.6 2.77 -6.62 3.36 -7.53 3.87 -8.33 4.32 -9.05 4.69 -9.65 5.02 -10.2 5.25 -10.64 5.46 -10.99 5.57 -11.26 5.63 -11.45 5.65 -11.56 5.59 -11.58 5.47 -11.52 5.29 -11.37 5.05 -11.18 4.76 -10.88 4.41 -10.54 3.98 -10.12 3.52 -9.67 2.98 -9.21 2.39 -8.77 1.71 -8.42 0.92 -8.34 -0.11 -8.62 -1.77 -8.81 -4.66 -7.11 -8.51 -3 -10.28 0.43 -9.7 2.5 -9.12 32.75 11.91 -0.91 3.23 -0.08 0.32 -0.77 -2.47 -2.31 -2.82 -1.6 -0.95 0.83 0.11 3.15 0.01 4.96 -0.55 6.33 -1.25 7.44 -1.93 8.35 -2.58 9.1 -3.16 9.72 -3.68 10.23 -4.13 10.64 -4.54 10.94 -4.86 11.15 -5.12 11.26 -5.31 11.29 -5.47 11.24 -5.54 11.09 -5.55 10.85 -5.5 10.52 -5.39 10.11 -5.23 9.63 -4.98 9.04 -4.71 8.4 -4.34 7.66 -3.94 6.87 -3.48 6.01 -2.97 5.15 -2.44 4.43 -1.92 0.15 -0.06zm-0.15 0.06l0.15 -0.06 0 0 -0.15 0.06zm-29.66 133.61l-33.07 -11.02 0.35 -0.97 2.66 -5.45 3.17 -5.06 3.67 -5.07 4.14 -5.18 4.57 -5.38 4.94 -5.56 5.28 -5.76 5.54 -5.9 5.74 -6.01 5.85 -6.07 5.88 -6.09 5.87 -6.1 5.76 -6 5.56 -5.87 5.29 -5.71 4.93 -5.47 4.49 -5.14 3.95 -4.77 3.3 -4.27 2.54 -3.62 1.65 -2.73 0.67 -1.39 -0.16 0.93 0.45 4.57 3.89 6.16 4.58 2.62 1.17 0.24 -1.93 0.15 -4.27 0.81 -6.23 1.68 -8.02 2.63 -9.76 3.62 -12.64 -32.49 10.86 -4.02 9.51 -3.12 8.37 -2.26 7.57 -1.4 7.28 -0.44 7.91 1.16 8.99 4.98 6.16 9.86 0.71 9.47 -1.76 6.99 -2.63 5.73 -3.18 5.3 -3.68 5.27 -4.16 5.38 -4.58 5.53 -4.98 5.72 -5.3 5.87 -5.55 5.98 -5.76 6.09 -5.87 6.12 -5.91 6.13 -5.89 6.09 -5.77 6 -5.58 5.85 -5.32 5.66 -4.95 5.4 -4.51 5.07 -3.98 4.69 -3.32 4.16 -2.55 3.5 -1.65 2.63 -0.64 1.24 0.35 -0.96zm-33.07 -11.02l0.15 -0.47 0.2 -0.5 -0.35 0.97zm130.94 -44.69l34.5 -4.94 -0.71 7.98 -2.8 7.12 -3.47 6.71 -4.06 6.25 -4.55 5.81 -4.96 5.36 -5.31 4.95 -5.63 4.56 -5.86 4.19 -6.06 3.84 -6.25 3.53 -6.37 3.2 -6.44 2.9 -6.52 2.63 -6.54 2.35 -6.51 2.08 -6.47 1.81 -6.38 1.57 -6.28 1.33 -6.12 1.07 -5.94 0.83 -5.77 0.6 -5.54 0.34 -5.28 0.11 -5.09 -0.15 -4.89 -0.45 -4.74 -0.79 -4.74 -1.29 -4.88 -2.1 -5.19 -3.61 -4.85 -6.26 -2.37 -8.65 1.13 -8.19 33.07 11.02 0.62 -4.69 -1.5 -5.53 -2.69 -3.54 -1.8 -1.3 -0.35 -0.17 0.85 0.22 1.82 0.3 2.56 0.23 3.16 0.09 3.7 -0.07 4.1 -0.26 4.44 -0.46 4.74 -0.66 4.95 -0.87 5.13 -1.08 5.25 -1.29 5.33 -1.49 5.33 -1.71 5.32 -1.91 5.25 -2.12 5.14 -2.31 4.97 -2.5 4.74 -2.67 4.51 -2.85 4.2 -3 3.87 -3.15 3.51 -3.25 3.11 -3.37 2.71 -3.44 2.28 -3.52 1.87 -3.6 1.46 -3.72 -0.71 7.98zm-6.77 -55.13l34.86 0 -0.01 -0.07 0.04 0.53 0.07 0.91 0.11 1.13 0.13 1.37 0.16 1.54 0.2 1.71 0.21 1.85 0.23 1.95 0.26 2.07 0.26 2.16 0.29 2.2 0.28 2.26 0.3 2.27 0.3 2.31 0.31 2.31 0.31 2.27 0.3 2.26 0.3 2.21 0.29 2.13 0.29 2.06 0.26 1.95 0.26 1.84 0.24 1.74 0.22 1.56 0.2 1.41 0.18 1.26 0.14 1.03 0.13 0.87 0.08 0.57 0.04 0.3 0.03 0.23 -34.5 4.94 0 -0.03 -0.08 -0.47 -0.09 -0.69 -0.12 -0.83 -0.15 -1.07 -0.18 -1.23 -0.2 -1.44 -0.22 -1.61 -0.24 -1.73 -0.26 -1.87 -0.28 -1.99 -0.28 -2.08 -0.3 -2.16 -0.3 -2.22 -0.31 -2.29 -0.31 -2.32 -0.31 -2.34 -0.31 -2.34 -0.3 -2.35 -0.3 -2.31 -0.29 -2.28 -0.27 -2.21 -0.27 -2.15 -0.24 -2.07 -0.23 -1.97 -0.21 -1.88 -0.19 -1.77 -0.16 -1.62 -0.14 -1.53 -0.1 -1.38 -0.09 -1.37 -0.04 -1.53z"/>
    </g>
    <path class="fil4" d="M911.97 1639.77c12.53,-0.44 21.83,-3.07 27.83,-7.79 6.07,-4.73 9.07,-11.93 9.07,-21.45 0,-8.18 -2.84,-14.55 -8.47,-19.2 -5.7,-4.58 -13.57,-6.9 -23.55,-6.9l-5.1 0 0.22 55.34zm-0.22 124.64l4.65 0c10.73,0 18.98,-2.85 24.75,-8.55 5.78,-5.7 8.62,-13.8 8.62,-24.15 0,-10.12 -3.3,-17.99 -9.97,-23.62 -6.6,-5.62 -15.98,-8.47 -28.05,-8.47l0 64.79zm-87.06 72.44l0 -320.82 99.89 0c36.22,0 63.44,6.76 81.59,20.26 18.22,13.42 27.3,33.52 27.3,60.21 0,19.36 -5.11,34.95 -15.3,46.8 -10.13,11.85 -25.57,20.17 -46.2,24.82 23.1,5.03 40.27,13.88 51.45,26.7 11.17,12.82 16.79,29.99 16.79,51.52 0,30.07 -9.75,52.65 -29.25,67.79 -19.49,15.15 -48.29,22.72 -86.38,22.72l-99.89 0zm311.81 -140.83l48.15 0c0,-12.75 -2.02,-22.35 -6.08,-28.72 -3.97,-6.38 -10.05,-9.53 -18.06,-9.53 -6.31,0 -11.41,3.15 -15.3,9.37 -3.9,6.23 -6.83,15.83 -8.71,28.88zm116.17 62.09c-3.22,26.4 -13.43,47.17 -30.67,62.32 -17.18,15.15 -39.3,22.73 -66.22,22.73 -31.65,0 -56.1,-10.21 -73.2,-30.6 -17.16,-20.48 -25.71,-49.57 -25.71,-87.29 0,-37.95 8.62,-67.34 25.94,-88.27 17.25,-20.92 41.47,-31.42 72.52,-31.42 33.82,0 59.1,9.3 75.82,27.9 16.72,18.59 25.04,46.64 25.04,84.06 0,4.42 0,7.73 -0.07,10.05 -0.08,2.25 -0.3,4.35 -0.6,6.23l-119.02 0 0 3.07c0,16.57 1.88,28.42 5.63,35.62 3.75,7.2 9.83,10.8 18.38,10.8 6.29,0 11.31,-2.1 15.22,-6.22 3.9,-4.13 6.74,-10.43 8.47,-18.98l68.47 0zm26.55 78.74l0 -224.97 78.29 0 0 33.37c7.65,-12.75 16.57,-22.2 26.85,-28.27 10.19,-6.08 22.34,-9.15 36.22,-9.15 17.02,0 29.92,5.03 38.84,15.14 8.85,10.13 13.28,25.05 13.28,44.71l0 169.17 -80.99 0 0 -131.01c0,-6.82 -1.28,-11.99 -3.9,-15.45 -2.63,-3.45 -6.61,-5.17 -11.86,-5.17 -4.8,0 -8.62,1.95 -11.47,5.93 -2.85,3.97 -4.27,9.29 -4.27,16.04l0 129.66 -80.99 0zm301.99 -112.48c0,15.97 1.64,27.97 4.95,36.07 3.3,8.02 8.24,12.07 14.84,12.07 6.9,0 12.3,-4.2 16.2,-12.67 3.9,-8.4 5.85,-20.25 5.85,-35.47 0,-15.23 -1.95,-27.08 -5.85,-35.48 -3.9,-8.47 -9.3,-12.67 -16.2,-12.67 -6.6,0 -11.54,4.05 -14.84,12.07 -3.31,8.1 -4.95,20.1 -4.95,36.08zm41.84 112.48l0 -24.82c-7.64,10.5 -15.75,18.22 -24.37,23.25 -8.7,4.95 -18.23,7.42 -28.58,7.42 -22.71,0 -40.34,-10.35 -52.86,-31.04 -12.53,-20.7 -18.82,-49.8 -18.82,-87.29 0,-37.35 6.29,-66.38 18.89,-87.14 12.6,-20.78 30.22,-31.2 52.79,-31.2 10.21,0 19.58,2.47 28.13,7.35 8.47,4.87 16.8,12.67 24.82,23.32l0 -149.91 81.44 0 0 350.06 -81.44 0zm106.71 -301.92c0,-13.79 4.73,-25.34 14.1,-34.64 9.37,-9.3 20.85,-13.95 34.5,-13.95 13.64,0 25.05,4.65 34.26,13.95 9.23,9.3 13.88,20.85 13.88,34.64 0,13.5 -4.65,24.97 -13.94,34.42 -9.31,9.45 -20.7,14.18 -34.2,14.18 -13.65,0 -25.13,-4.73 -34.5,-14.1 -9.37,-9.37 -14.1,-20.84 -14.1,-34.5zm7.65 301.92l0 -224.97 81.44 0 0 224.97 -81.44 0zm128.31 0l0 -153.88 -27 0 0 -71.09 27 0 0 -66.14 81.89 0 0 66.14 29.25 0 0 71.09 -29.25 0 0 153.88 -81.89 0zm206.08 -112.48c0,15.97 1.64,27.97 4.95,36.07 3.3,8.02 8.25,12.07 14.84,12.07 6.6,0 11.63,-4.12 15.07,-12.45 3.46,-8.25 5.18,-20.17 5.18,-35.69 0,-15.83 -1.72,-27.9 -5.18,-36.15 -3.44,-8.32 -8.47,-12.45 -15.07,-12.45 -6.45,0 -11.32,4.13 -14.7,12.3 -3.37,8.25 -5.09,20.32 -5.09,36.3zm41.84 112.48l0 -24.82c-8.02,10.8 -16.35,18.68 -24.97,23.7 -8.55,4.95 -17.93,7.43 -27.98,7.43 -22.42,0 -39.96,-10.43 -52.64,-31.28 -12.67,-20.84 -19.04,-50.02 -19.04,-87.51 0,-37.8 6.29,-67.04 18.82,-87.74 12.52,-20.7 30.15,-31.05 52.86,-31.05 10.21,0 19.58,2.47 28.13,7.34 8.47,4.88 16.8,12.68 24.82,23.33l0 -24.37 81.44 0 0 224.97 -81.44 0zm215.15 0l22.87 -320.82 106.8 0 27.97 169.19 27.89 -169.19 106.57 0 22.87 320.82 -81.74 0 -6.83 -227.22 -35.62 227.22 -66.59 0 -35.62 -227.22 -7.05 227.22 -81.52 0zm408.49 -140.83l48.15 0c0,-12.75 -2.03,-22.35 -6.08,-28.72 -3.97,-6.38 -10.05,-9.53 -18.07,-9.53 -6.3,0 -11.41,3.15 -15.3,9.37 -3.9,6.23 -6.83,15.83 -8.7,28.88zm116.16 62.09c-3.22,26.4 -13.43,47.17 -30.67,62.32 -17.18,15.15 -39.3,22.73 -66.22,22.73 -31.65,0 -56.09,-10.21 -73.19,-30.6 -17.17,-20.48 -25.72,-49.57 -25.72,-87.29 0,-37.95 8.62,-67.34 25.94,-88.27 17.25,-20.92 41.48,-31.42 72.52,-31.42 33.82,0 59.1,9.3 75.82,27.9 16.72,18.59 25.05,46.64 25.05,84.06 0,4.42 0,7.73 -0.08,10.05 -0.08,2.25 -0.3,4.35 -0.6,6.23l-119.01 0 0 3.07c0,16.57 1.87,28.42 5.62,35.62 3.75,7.2 9.83,10.8 18.38,10.8 6.29,0 11.32,-2.1 15.22,-6.22 3.9,-4.13 6.75,-10.43 8.47,-18.98l68.47 0zm26.55 78.74l0 -224.97 76.49 0 0 31.42c7.05,-11.4 15.68,-20.25 25.87,-26.55 10.2,-6.3 21.97,-9.97 35.32,-11.17l0 79.19 -1.72 0c-20.1,0 -34.12,3.75 -42.07,11.32 -8.03,7.58 -12,21 -12,40.35l0 100.41 -81.89 0zm284.89 -3.6c-5.85,3.38 -12.22,5.85 -19.04,7.51 -6.83,1.57 -14.56,2.4 -23.17,2.4 -29.03,0 -51.9,-10.58 -68.62,-31.73 -16.73,-21.15 -25.05,-50.17 -25.05,-87.06 0,-36.15 8.62,-65.02 25.87,-86.54 17.17,-21.53 40.12,-32.25 68.69,-32.25 7.88,0 15.3,0.75 22.05,2.17 6.82,1.5 13.28,3.75 19.27,6.83l0 68.84c-2.77,-1.72 -5.62,-3 -8.55,-3.75 -2.92,-0.82 -6.07,-1.2 -9.45,-1.2 -8.47,0 -15.3,4.13 -20.32,12.3 -5.03,8.17 -7.57,19.34 -7.57,33.6 0,14.32 2.32,25.12 7.05,32.32 4.64,7.28 11.62,10.87 20.84,10.87 2.63,0 5.48,-0.37 8.48,-1.2 3,-0.75 6.15,-1.87 9.52,-3.3l0 70.19zm101.69 -108.88c0,15.97 1.65,27.97 4.95,36.07 3.3,8.02 8.25,12.07 14.85,12.07 6.6,0 11.62,-4.12 15.07,-12.45 3.46,-8.25 5.18,-20.17 5.18,-35.69 0,-15.83 -1.72,-27.9 -5.18,-36.15 -3.45,-8.32 -8.47,-12.45 -15.07,-12.45 -6.45,0 -11.32,4.13 -14.7,12.3 -3.37,8.25 -5.1,20.32 -5.1,36.3zm41.85 112.48l0 -24.82c-8.03,10.8 -16.35,18.68 -24.98,23.7 -8.55,4.95 -17.92,7.43 -27.97,7.43 -22.42,0 -39.97,-10.43 -52.64,-31.28 -12.68,-20.84 -19.05,-50.02 -19.05,-87.51 0,-37.8 6.3,-67.04 18.82,-87.74 12.52,-20.7 30.15,-31.05 52.87,-31.05 10.2,0 19.58,2.47 28.13,7.34 8.47,4.88 16.79,12.68 24.82,23.33l0 -24.37 81.44 0 0 224.97 -81.44 0zm190.4 -112.48c0,15.97 1.65,27.97 4.95,36.07 3.3,8.02 8.25,12.07 14.84,12.07 6.91,0 12.31,-4.2 16.2,-12.67 3.9,-8.4 5.86,-20.25 5.86,-35.47 0,-15.23 -1.96,-27.08 -5.86,-35.48 -3.89,-8.47 -9.29,-12.67 -16.2,-12.67 -6.59,0 -11.54,4.05 -14.84,12.07 -3.3,8.1 -4.95,20.1 -4.95,36.08zm41.85 112.48l0 -24.82c-7.65,10.5 -15.75,18.22 -24.38,23.25 -8.7,4.95 -18.22,7.42 -28.57,7.42 -22.72,0 -40.35,-10.35 -52.87,-31.04 -12.53,-20.7 -18.82,-49.8 -18.82,-87.29 0,-37.35 6.29,-66.38 18.9,-87.14 12.6,-20.78 30.22,-31.2 52.79,-31.2 10.2,0 19.57,2.47 28.12,7.35 8.48,4.87 16.8,12.67 24.83,23.32l0 -149.91 81.44 0 0 350.06 -81.44 0zm188.14 -113.83c0,16.72 1.73,29.32 5.11,37.71 3.37,8.48 8.39,12.68 15.15,12.68 6.75,0 11.84,-4.2 15.22,-12.68 3.37,-8.39 5.02,-20.99 5.02,-37.71 0,-16.58 -1.65,-28.95 -5.02,-37.2 -3.38,-8.17 -8.47,-12.3 -15.22,-12.3 -6.76,0 -11.78,4.13 -15.15,12.3 -3.38,8.25 -5.11,20.62 -5.11,37.2zm-84.13 1.35c0,-37.8 9.15,-67.04 27.37,-87.74 18.22,-20.7 43.87,-31.05 77.02,-31.05 33.06,0 58.71,10.35 76.79,31.05 18.07,20.7 27.15,49.94 27.15,87.74 0,37.79 -9.08,67.04 -27.15,87.74 -18.08,20.7 -43.73,31.05 -76.79,31.05 -33.3,0 -58.95,-10.35 -77.17,-31.05 -18.15,-20.7 -27.22,-49.95 -27.22,-87.74zm244.77 112.48l0 -153.88 -27 0 0 -71.09 27 0 0 -66.14 81.89 0 0 66.14 29.24 0 0 71.09 -29.24 0 0 153.88 -81.89 0zm197.97 -140.83l48.15 0c0,-12.75 -2.02,-22.35 -6.08,-28.72 -3.97,-6.38 -10.05,-9.53 -18.06,-9.53 -6.31,0 -11.41,3.15 -15.3,9.37 -3.9,6.23 -6.83,15.83 -8.71,28.88zm116.17 62.09c-3.22,26.4 -13.43,47.17 -30.67,62.32 -17.18,15.15 -39.3,22.73 -66.22,22.73 -31.65,0 -56.1,-10.21 -73.2,-30.6 -17.16,-20.48 -25.71,-49.57 -25.71,-87.29 0,-37.95 8.62,-67.34 25.94,-88.27 17.25,-20.92 41.48,-31.42 72.52,-31.42 33.82,0 59.1,9.3 75.82,27.9 16.72,18.59 25.05,46.64 25.05,84.06 0,4.42 0,7.73 -0.08,10.05 -0.08,2.25 -0.3,4.35 -0.6,6.23l-119.02 0 0 3.07c0,16.57 1.88,28.42 5.63,35.62 3.75,7.2 9.83,10.8 18.38,10.8 6.29,0 11.32,-2.1 15.22,-6.22 3.9,-4.13 6.75,-10.43 8.47,-18.98l68.47 0zm153.88 75.14c-5.85,3.38 -12.22,5.85 -19.04,7.51 -6.83,1.57 -14.56,2.4 -23.17,2.4 -29.03,0 -51.9,-10.58 -68.62,-31.73 -16.73,-21.15 -25.05,-50.17 -25.05,-87.06 0,-36.15 8.62,-65.02 25.87,-86.54 17.17,-21.53 40.12,-32.25 68.69,-32.25 7.88,0 15.3,0.75 22.05,2.17 6.82,1.5 13.28,3.75 19.27,6.83l0 68.84c-2.77,-1.72 -5.62,-3 -8.55,-3.75 -2.92,-0.82 -6.07,-1.2 -9.45,-1.2 -8.47,0 -15.3,4.13 -20.32,12.3 -5.03,8.17 -7.57,19.34 -7.57,33.6 0,14.32 2.32,25.12 7.05,32.32 4.64,7.28 11.62,10.87 20.84,10.87 2.63,0 5.48,-0.37 8.47,-1.2 3.01,-0.75 6.16,-1.87 9.53,-3.3l0 70.19zm22.5 3.6l0 -224.97 78.29 0 0 33.37c7.65,-12.75 16.57,-22.2 26.85,-28.27 10.2,-6.08 22.35,-9.15 36.22,-9.15 17.02,0 29.92,5.03 38.85,15.14 8.85,10.13 13.27,25.05 13.27,44.71l0 169.17 -80.99 0 0 -131.01c0,-6.82 -1.28,-11.99 -3.9,-15.45 -2.63,-3.45 -6.6,-5.17 -11.85,-5.17 -4.8,0 -8.63,1.95 -11.48,5.93 -2.84,3.97 -4.27,9.29 -4.27,16.04l0 129.66 -80.99 0zm218.3 -301.92c0,-13.79 4.72,-25.34 14.1,-34.64 9.37,-9.3 20.84,-13.95 34.49,-13.95 13.65,0 25.05,4.65 34.27,13.95 9.23,9.3 13.87,20.85 13.87,34.64 0,13.5 -4.64,24.97 -13.94,34.42 -9.3,9.45 -20.7,14.18 -34.2,14.18 -13.65,0 -25.12,-4.73 -34.49,-14.1 -9.38,-9.37 -14.1,-20.84 -14.1,-34.5zm7.65 301.92l0 -224.97 81.44 0 0 224.97 -81.44 0zm194 -112.48c0,15.97 1.65,27.97 4.95,36.07 3.3,8.02 8.25,12.07 14.84,12.07 6.61,0 11.63,-4.12 15.08,-12.45 3.45,-8.25 5.18,-20.17 5.18,-35.69 0,-15.83 -1.73,-27.9 -5.18,-36.15 -3.45,-8.32 -8.47,-12.45 -15.08,-12.45 -6.45,0 -11.32,4.13 -14.69,12.3 -3.38,8.25 -5.1,20.32 -5.1,36.3zm41.85 112.48l0 -24.82c-8.03,10.8 -16.36,18.68 -24.98,23.7 -8.55,4.95 -17.92,7.43 -27.97,7.43 -22.43,0 -39.97,-10.43 -52.65,-31.28 -12.67,-20.84 -19.04,-50.02 -19.04,-87.51 0,-37.8 6.29,-67.04 18.82,-87.74 12.52,-20.7 30.15,-31.05 52.87,-31.05 10.2,0 19.57,2.47 28.12,7.34 8.47,4.88 16.8,12.68 24.83,23.33l0 -24.37 81.44 0 0 224.97 -81.44 0z"/>
   </g>
  </g>
 </g>
</svg>
