<?xml version="1.0" encoding="UTF-8"?>
<!DOCTYPE svg PUBLIC "-//W3C//DTD SVG 1.1//EN" "http://www.w3.org/Graphics/SVG/1.1/DTD/svg11.dtd">
<!-- Creator: CorelDRAW 2017 -->
<svg xmlns="http://www.w3.org/2000/svg" xml:space="preserve" width="50.7998mm" height="33.8666mm" version="1.1" style="shape-rendering:geometricPrecision; text-rendering:geometricPrecision; image-rendering:optimizeQuality; fill-rule:evenodd; clip-rule:evenodd"
viewBox="0 0 5079.98 3386.66"
 xmlns:xlink="http://www.w3.org/1999/xlink">
 <defs>
  <style type="text/css">
   <![CDATA[
    .fil0 {fill:none}
    .fil1 {fill:black}
   ]]>
  </style>
 </defs>
 <g id="Capa_x0020_1">
  <metadata id="CorelCorpID_0Corel-Layer"/>
  <rect class="fil0" x="-0" width="5079.99" height="3386.66"/>
  <path class="fil1" d="M3006.69 2628.85c-25.35,9.82 -233.11,16.32 -275.79,-14.42 -11.2,-8.06 -5.5,-4.22 -13.28,-13.18 -18.57,-11.24 -41.95,-39.53 -45.24,-66.4 12.32,-12.39 1.7,-3.36 13.25,-7.65 18.64,-42.5 40.95,-47.62 38.91,-106.21 -41.99,-22.45 -46.28,-45.34 -55.72,-102.27 -6.05,-8.85 -16.08,-20.09 -24.17,-29.95 -15.32,-18.68 -10.14,-9.55 -21.1,-30.58 -17.26,-5.11 -31.3,-13.9 -42.51,-33.51 -16.29,-7.37 -23.1,-11.52 -38.42,-21.48 -5.71,-3.66 -9.03,-5.91 -14.28,-9.82 -14.25,-10.69 -5.26,-3.08 -14.12,-11.97l-25.04 2.88 -28.63 -51.61c-9.24,-9.89 1.17,3.74 -12.28,-13.49 -1.45,-1.86 -5.78,-7.74 -7.09,-9.75 -12.8,-19.4 -4.32,-5.46 -12.04,-23.1 -18.74,-7.99 -24.38,-20.34 -57.93,-30.99 -19.61,-6.23 -53.54,-12.9 -74.18,-14.63 -59.01,-5.01 -109.29,19.2 -156.16,15.6l-26.84 15.7c-6.15,2.56 -14.31,4.57 -22.68,7.75 -26.08,9.82 -30.68,13.9 -56.79,19.81 -18.68,18.16 -57.8,32.83 -92.73,41.72 -48.87,12.45 -70.97,27.49 -96.77,-0.97 -6.19,-4.85 -13.25,-6.12 -19.09,-26.74 -3.36,-11.93 -0.97,-24.1 -0.48,-37.83 -3.53,-0.32 -15.95,-2.15 -18.89,-2.91l-10.86 -5.67c2.53,-51.85 9.51,-36.28 25.77,-70.87 12.31,-26.25 9.99,-61.42 15.53,-71.52l8.82 -67.55c72.97,-23.24 50.11,-22.03 92.17,-55.26 16.6,-13.11 83.45,-47.84 98.57,-53.85 7.54,-13.84 6.46,-20.06 26.9,-24.11 21,-44.41 74.92,-129.77 108.46,-163.8 30.41,21.62 37.7,31.2 93.56,27.57l58.69 -6.33c41.09,-3.67 48.87,-23.31 64.68,-52.71l40.01 -3.94c40.5,-3.26 78.58,-14.88 107.81,-28.88 16.94,-8.13 27.39,-12.87 45.3,-24.87 19.92,-13.35 22.55,-18.43 41.37,-23.93 7.19,-10.86 2.94,-7.27 11.83,-16.19 10.2,-10.24 2.97,-2.97 16.87,-10.83 8.55,-23.51 35.31,-52.32 51.88,-84.35 12.07,-23.38 19.72,-85.56 39.6,-100.89 19.06,-14.63 158.16,-89.05 179.67,-91.23 12.59,-16.74 7.13,-12.45 31.27,-22.24 17.88,-14.49 45.27,-30.78 68.93,-32.86 11.97,-15.01 2.56,-6.67 21.86,-19.61 5.5,-3.7 17.05,-9.51 25.21,-13.76 21.24,-11.17 32.82,-18.23 57.27,-26.29l0.32 -5.12 485.85 -264.06c37.05,-21.96 107.22,-60.59 153.05,-83.14l41.64 -22.66 0.34 4.6c9,-10.93 -2.66,-3.59 18.33,-16.49 19.75,-12.11 4.26,-3.39 26.29,-10.07l54.71 -28.08c18.02,-19.37 85.08,-53.37 105.04,-60.8l8.79 -0.07c11.13,-13.66 2.21,-6.68 21.92,-19.68 11.17,-7.37 14.6,-8.27 24.8,-13.77 22.79,-12.21 29.36,-15.66 52.57,-23.69 17.26,-21.54 48.7,-34.58 72.11,-36.55 13.11,-17.75 6.43,-12.18 31.3,-23.52l79.83 -38.01c17.36,-31.48 8.61,-7.16 5.94,-43.72 -19.92,-15.74 -51.39,-78.72 -59.93,-101.2l-98.05 -171.99 -25.98 3.25c-13.49,18.61 -5.22,9.75 -27.01,21.86 -9.89,5.5 -17.26,8.4 -25.8,12.93 -17.47,9.24 -32.79,19.41 -54.92,28.02l-7.82 0.1c-20.33,23.73 -64.36,45.14 -100.16,57.38 -16.56,16.39 -165.11,97.36 -186.17,99.4l-88.99 53.16 -11.38 2c-18.37,20.27 -26.01,20.51 -49.7,33 -19.37,10.2 -30.61,17.64 -53.12,27.77 -28.95,19.33 -64.57,34.9 -98.19,54.54 -31.34,18.33 -64.99,39.84 -102.17,54.44 -28.08,21.44 -151.07,90.82 -189.67,103.2l-37.14 15.77c-9.82,11.59 -1.97,5.92 -18.57,17.43 -0.7,0.49 -12.94,7.13 -14.91,8.17 -19.44,10.34 -16.29,9.06 -38.94,16.32 -7.89,13.77 -62.95,42.13 -82.94,44.58 -7.12,7.51 -4.25,5.71 -15.36,13.42 -12.17,8.54 12.9,-4.05 -13.59,5.57 -18.09,14.11 -46.07,30.85 -68.75,33.27 -7.99,9.62 -2.18,4.39 -13.18,12.76 -1.38,1.08 -3.32,2.42 -4.81,3.43l-82.11 40.5 -1.1 -2.08c-18.23,24.49 -87.05,56.62 -114.03,64.37 -21.93,31.02 -61.56,42.71 -95.91,20.85 -29.57,-8.33 -51.25,-17.53 -81.83,-21.72 -35.17,-4.84 -65.05,-0.83 -100.33,-7.64 -14.49,10.3 -2.97,3.73 -27.29,9.34 -13.35,3.04 -19.61,3.35 -33.03,6.88 -21.54,5.6 -38.15,12.38 -59.93,19.3 -6.92,8.89 -60.25,38.04 -74.43,49.94 -22.31,18.74 -34.69,47.04 -59.63,60.63 -4.53,16.01 -35.21,83.31 -42.82,99.22 -11.37,85.64 -4.21,93.14 2.53,169.89 -38.98,18.92 -87.23,29.36 -122.61,48.18 -43.16,23.03 -57.75,56.27 -85.84,73.21 -10.2,12.9 17.16,8.55 -24.42,12.66l-68.54 19.47c-26.29,37.01 -26.64,22.14 -64.06,19.93 -37.11,-2.18 -36.45,9.96 -69.65,15.56 5.32,-107.8 -17.5,-95.53 -44.96,-162.31 -10.28,-4.15 -6.23,1.8 -20.96,-14.04 -17.92,-19.3 -5.12,-4.53 -9.89,-16.92 -20.93,-10.34 -8.86,-2.8 -26.08,-17.98 -32.51,-28.64 -37.42,-22.2 -56.86,-49.49 -15.08,-0.07 -6.57,11.65 -12.87,-6.19l-85.87 -43.48 47.14 59.84c17.77,3.7 20.85,13.24 29.81,31.88l-190.6 -46.13 -98.85 -6.96 -101.54 0.59c-21.51,9.03 -3.94,-6.46 -2.91,5.5 0.04,0.42 2.22,5.43 2.32,4.22 0.1,-1.55 2.28,3.32 3.43,4.98 26.66,-0.79 33.3,4.77 59.9,15.32 21.96,8.72 30.78,8.37 46.48,25.94 28.78,2.42 48.28,17.47 74.43,30.85l28.57 19.61c-6.09,6.54 -1.52,3.77 -13.21,10.27l-110.92 30.96c-14.73,11.17 -57.17,25.04 -78.79,25.59 -20.2,22.28 -112.4,61.22 -144.36,77.51 -47.35,24.07 -45.69,16.67 -18.67,26.73l75.32 -27.98c-15.56,14.81 -91.86,75.71 -111.81,80.59 -9.1,12.35 -2.11,3.98 -12.94,14.46 -51.98,50.42 -101.75,55.33 -67.54,65.22 41.88,-11.76 94.69,-32.47 139.14,-27.98 27.73,-18.95 92.75,-18.4 129.21,-20.12l-46.35 48.52c-6.15,17.05 -1.45,8.96 -16.7,26.32 -10.48,11.9 -13.59,14.11 -22.69,20.09 -12.17,23.52 -26.53,39.91 -55.16,53.13 -6.3,14.07 -8.2,16.56 -20.86,30.92 -4.88,5.56 -9.06,9.82 -15.08,14.83 -10.17,8.48 -4.53,4.33 -11.65,7.58 -8.41,17.05 -10.17,21.34 -24.18,35.34 -11,11 -14.21,13.39 -32.2,22.76 1.9,16.05 0.21,5.88 7.51,13.59l28.32 -4.01c1.73,-1.45 4.12,-3.08 5.47,-3.94 41.67,-26.74 249.98,-96.25 276.68,-98.95 -17.22,28.15 -87.12,88.05 -89.99,83.25 -1,-1.66 -3.94,2.42 -5.95,3.56l-48.18 52.09c27.08,-7.23 35.76,-23.18 60.25,-22.31 21.79,-24.35 54.02,-38.25 85.53,-47.52l14.04 -4.22 30.72 -20.68c12.13,-5.43 20.5,-8.51 32.71,-13.49 22.35,-9.13 38.84,-16.4 62.33,-21.65l-65.09 82.59c3.25,32.65 -1.21,30.57 -11.9,56.27 -10.76,81.72 2.87,69.79 24.38,128.59 5.85,2.97 2.32,0.24 11.76,7.78l22.59 25.66 55.47 83.35c-52.26,6.71 -66.71,4.05 -79.65,47.52l50.81 -9.92c46.83,-10.72 2.59,-0.73 34.24,10.37 2.14,0.73 4.49,1.56 6.53,2.22 2.18,0.69 5.36,1.24 7.23,1.76 1.97,0.55 13.32,2.15 15.88,2.32 17.74,-14.77 9.3,-10.72 38.7,-10.41l13.14 38.18 -15.11 39.77 40.91 24.49 -50.08 17.26c-13.52,17.43 -6.67,12.1 -32.34,21.93l-72.7 41.91 -9.26 9.2c-1.28,1.21 -3.15,3.01 -4.6,4.29l-62.98 43.86c-5.3,10.55 -15.5,25.62 -26.32,34.31 -4.12,35.13 -5.92,14.42 12.38,21.09 4.53,-8.68 2.97,-11.58 19.12,-23.55 21.76,-16.12 13.42,-10.06 31.96,-12.55l46.62 -17.4c21.76,-11.76 4.05,-10.45 35.42,-23.87 3.97,-8.99 1.8,-10.65 14.66,-20.3 29.68,-22.2 3.67,-5.7 25.73,-9.2 7.82,-9.89 2.67,-5.25 13.18,-13.93l69.31 -35.39 4.81 100.82 12.66 83.39c14.66,8.13 7.5,-14.56 13.9,20.85 20.3,27.91 48.9,45.86 47.83,84.18 12.56,14.22 4.32,-0.34 15.08,25.98 2.91,7.09 7.71,22.76 9.86,30.19 8.23,28.57 2.35,34.34 2.28,67.34 -5.36,12.45 -2.28,7.12 -12.14,19.58 -18.68,23.62 -0.28,7.5 -22.13,18.88 -33.9,17.64 -8.17,-11.14 -41.92,26.77 -0.49,3.32 -3.32,22.93 -4.57,27.08 -5.91,20.06 0.63,4.05 -9.72,16.08 -4.11,15.5 2.22,0.1 -8.92,19.3 -4.7,8.09 -5.39,7.78 -12.35,18.68 -14.66,22.96 -3.8,20.23 -25.94,31.23 -6.84,49.18 16.16,58.34 31.41,100.5l18.36 18.26c-34.34,28.47 -44.4,13.25 -67.06,67.31 3.84,50.94 51.71,73.53 74.43,102.92 120.95,181.93 265.51,111.23 131.49,-0.69l-23.72 -89.61 10.31 -43.44 66.88 -12.1c5.81,-4.74 6.44,-5.12 16.64,-11 178.98,-103 111.92,-117.63 182.72,-176.7l65.88 -60.7c0.38,-33.27 12.28,-66.23 24.21,-98.84 7.2,-19.61 14.04,-29.44 18.23,-45.97 5.6,-22.24 0.24,-23.83 6.02,-42.64 9.85,-31.61 9.58,-54.13 34.27,-71.25 12.14,-8.4 49.22,-27.6 64.05,-33.93l27.05 -19.02c9.65,18.44 16.43,29.99 28.08,49.15 8.41,13.87 24.56,31.54 28.22,39.87 18.34,3.98 37.22,8.13 58.14,14.29 11.9,3.49 13.08,3.18 23.11,9.2 17.57,10.55 2.45,-2.32 14.32,13.07 13.66,1.39 6.64,-5.77 13.07,9.79 26.94,15.08 29.85,26.53 49.7,39.01 25.8,16.26 142.18,21.79 144.32,21.62 21.62,-1.8 37.05,-15.12 63.81,-20.1 42.65,35.63 30.72,29.13 34.87,43.79 40.25,-0.55 28.5,7.85 46.07,40.26 19.57,36.07 16.73,13.17 21.92,65.12 14.49,36.25 10.41,32.82 38.25,49.91 53.23,4.5 71.94,-18.44 108.4,-34.14 14.56,-18.81 43.71,-22.82 71.48,-20.54l22.8 -13.35c334.4,-126.13 401.78,-187.49 171.23,-176.56z"/>
 </g>
</svg>
