<?xml version="1.0" encoding="UTF-8"?>
<!DOCTYPE svg PUBLIC "-//W3C//DTD SVG 1.1//EN" "http://www.w3.org/Graphics/SVG/1.1/DTD/svg11.dtd">
<!-- Creator: CorelDRAW 2017 -->
<svg xmlns="http://www.w3.org/2000/svg" xml:space="preserve" width="75mm" height="75mm" version="1.1" style="shape-rendering:geometricPrecision; text-rendering:geometricPrecision; image-rendering:optimizeQuality; fill-rule:evenodd; clip-rule:evenodd"
viewBox="0 0 7500 7500"
 xmlns:xlink="http://www.w3.org/1999/xlink">
 <defs>
  <style type="text/css">
   <![CDATA[
    .str3 {stroke:#FEFEFE;stroke-width:20;stroke-miterlimit:22.9256}
    .str2 {stroke:#6E4D8B;stroke-width:7.62;stroke-miterlimit:22.9256}
    .str0 {stroke:#09AD60;stroke-width:7.62;stroke-miterlimit:22.9256}
    .str1 {stroke:#FD4951;stroke-width:7.62;stroke-miterlimit:22.9256}
    .fil5 {fill:#FEFEFE}
    .fil4 {fill:#201E1E}
    .fil2 {fill:#09AD60}
    .fil6 {fill:#231D1F}
    .fil0 {fill:#7740D1}
    .fil9 {fill:#9F4E3F}
    .fil8 {fill:#C28678}
    .fil7 {fill:#F17A59}
    .fil1 {fill:#FD4951}
    .fil3 {fill:#FDC60E}
    .fil10 {fill:#FEFEFE;fill-rule:nonzero}
   ]]>
  </style>
 </defs>
 <g id="Capa_x0020_1">
  <metadata id="CorelCorpID_0Corel-Layer"/>
  <g id="_3131240560496">
   <polygon class="fil0" points="4418.69,4910.36 4423.09,4910.36 4419.43,4905.23 "/>
   <polygon class="fil1" points="3420.04,4910.36 3420.04,4905.96 3414.92,4909.62 "/>
   <path class="fil2" d="M2742.55 5335.45c34.71,-0.17 46.61,-60.55 20.22,-66.2 -21.3,-4.56 -45.3,44.66 -20.22,66.2z"/>
   <path class="fil1" d="M3573.76 6040.88c0.03,22.66 4.8,29.63 26.66,29.45 17.52,-17.05 22,-59.98 -17.37,-54.62 -5.56,7.08 -9.3,12.18 -9.29,25.17z"/>
   <path class="fil2 str0" d="M6596.93 5807.16c-29.04,13.41 -4.62,45.78 23.98,33.87 25.49,-10.62 5.96,-47.68 -23.98,-33.87z"/>
   <path class="fil2 str0" d="M6790.1 6397.41c-18.63,18.48 -0.18,53.45 23.38,37.38 20.02,-13.65 1.62,-62.18 -23.38,-37.38z"/>
   <path class="fil0" d="M1120.82 6427.99c3.48,11.11 0.44,17.4 16.83,20.53 35.77,6.83 52.26,-42.31 -5.69,-37.21l-11.14 16.68z"/>
   <path class="fil0" d="M756.71 6413.55c14.75,-43.86 -30.2,-35.59 -38.21,-25.26 -18.33,23.67 10.41,37.9 38.21,25.26z"/>
   <path class="fil3" d="M2319 6486.08c24.19,5.86 26.69,5.34 40.31,-9.7 0.73,-27.98 -9.66,-27.51 -37.19,-24.07 -10,12.17 -9.87,20.46 -3.12,33.77z"/>
   <path class="fil3" d="M2349.55 6219.82c0.96,-20.24 -3.65,-29.12 -24.61,-28.17 -39.96,1.81 -18.13,63.85 24.61,28.17z"/>
   <path class="fil0" d="M5104.99 5463.9l22.9 -2.01c5.6,-14.79 5.89,-17.24 1.56,-35.55 -34.43,-23.08 -47.89,13.26 -24.46,37.56z"/>
   <path class="fil0" d="M1597.19 6456.97c9.13,-13.08 8.43,-20.59 1.99,-33.62 -24.01,-4.94 -46.94,-2.23 -37.9,29.09 15.81,8.56 15.28,7.67 35.91,4.53z"/>
   <path class="fil2 str0" d="M6608.96 5034.21l34.26 3.53 7.23 -11.18 -2.11 -21.38c-26.92,-12.49 -52.13,-3.52 -39.38,29.03z"/>
   <path class="fil1" d="M3517.53 5974.52l12.42 7.44c26.52,-3.2 27.57,-23.96 15.82,-44.25 -28.8,-7.74 -33.88,10.99 -28.24,36.81z"/>
   <path class="fil0" d="M4234.93 5698.77c4.97,-17.93 -1.12,-47.53 1.27,-72.57 3.34,-34.98 8.61,-38.95 16.47,-68.16 8.21,-30.5 4.2,-48.5 4.52,-80.5 0.3,-29.08 14.31,-36.35 8.26,-61.98 -12.96,-54.86 -15.91,-251.82 4.89,-301.72 13.89,-33.31 65.85,-66.84 100.96,-42.01 42.2,29.83 22.89,78.36 31.12,132.42 12.52,82.26 -6.64,142.96 13,232.78 6.9,31.56 -3.1,323.1 0.44,401.15 3.83,84.25 27.21,205.81 11.13,303.89 -10.46,63.78 -10.28,80.89 -7.81,149.56 2.74,76.34 9.03,219.94 -85.28,240.77 -74.31,16.4 -96.83,-38.36 -95.05,-64.82 17.22,-9.47 29.22,-4.79 47.18,-16.85 4.29,-43.76 -31.81,-23.65 -60.7,-23.43 -35.53,-58.57 16.58,-92.65 -66.28,-135.52 -0.44,-25.98 2.48,-50.86 -5.59,-73.27 -9.84,-27.29 -18.4,-31.55 -14.16,-67.88 3.16,-27.13 53.99,-111.63 -11.79,-105.67 -9.49,19.25 -4.12,25.45 -12.37,44.37 -7.35,16.86 -12.87,16.45 -14.73,39.3 -4,49.06 -0.39,60.22 14.16,96.48 -39.33,9.67 -74.34,27.24 -60.04,87.59 14.75,8.07 27.95,13.49 34.61,-12.33 7.45,-28.89 -3.54,-32.01 30.69,-35.21 0,49.18 -21.02,65.61 -21.46,123.09 -0.32,41.79 9.13,93.14 -8.22,124.52 -41.62,75.26 -142.97,73.51 -138.23,-41.24l36.26 -20.04c4.47,-48.11 10.28,-83.4 -36.67,-62.05 -2.38,-32.63 0.23,-65.43 -0.97,-97.93 -0.93,-25.44 -7.84,-55.47 -10.3,-85.44 -4.95,-60.05 -8.23,-519.2 0.47,-552.29 8.01,-4.01 -0.33,-1 9.94,-1.78l25.08 -1.32c6.71,-22.45 8.11,-69.51 -0.73,-89.78 -16.83,-6.36 -16.01,-5.42 -33.99,2.45l0.43 -114.61c22.47,18.04 11.39,37.44 45.18,19.42 4.5,-19.96 -3.79,-32.37 -6.86,-56.56 -3.74,-29.44 -17.61,-25.34 -38.17,-16.29 -1.77,-38.36 -6.32,-153.1 6.38,-181.56 16.59,-37.21 49.66,-72.48 105.86,-74.26 64.55,96.49 43.05,89.05 58.34,174.15 3.3,18.36 9.62,39.6 14.34,60.65 5.95,26.62 1.67,46.44 8.35,70.5 21.22,76.54 13,68.5 24.27,129.46 5.28,28.55 22.31,19.96 40.01,35.54 -2.84,35 -6.44,66.87 8.77,93.55l27.02 -4.57zm-24.74 -131.03c-22.21,-10.7 -11.23,-12.58 -21.72,-65.81 -5.13,-25.98 -12.17,-46.98 -17.53,-70.74 -5.7,-25.26 -3.06,-47.42 -10.28,-77.94 -6.55,-27.67 -10.55,-45.48 -13.38,-76.55 -4.6,-50.62 -18.75,-94.06 -42.8,-131.2 -30.04,-46.37 -45.65,-62.16 -113.49,-29.38 -37.62,18.2 -66.37,48.84 -81.12,90.71 -14.15,40.14 -8.06,117.04 -8.06,165.42 0,117.08 1.47,235 -1.63,351.91 -3.33,125.61 -8.94,385.66 3.96,510.32 11.04,106.61 -3.71,257.79 28.16,319.25 19.98,38.53 64.85,64.49 124.09,39.84 34.27,-14.26 71.61,-54.37 80.74,-95.93 10.11,-46.08 -7.87,-104.77 7.92,-167.38 39.23,19.65 19.4,23.81 27.03,66.48 5.33,29.75 23.87,47.99 26.94,66.81 7.84,48.06 -1.45,29.25 24.93,66.68 16.42,23.28 15.33,36.46 50.97,41.27 226.93,30.59 176.86,-255.83 179.98,-363.68 1.21,-41.8 18.69,-66.1 15.35,-166.71 -0.89,-26.76 -1.44,-59.71 -3.19,-88.26 -1.63,-26.34 -8.53,-52.39 -10.7,-79.65 -7.47,-94.07 -2.84,-269.68 -0.34,-368.99 1.64,-65.69 -10.92,-109.95 -11.02,-175.95 -0.05,-30.15 4.01,-63.58 1.17,-92.55 -2.95,-30.15 -9.12,-51.1 -9.82,-83.26 -1.67,-77.12 -7.23,-92.88 -60.03,-125.09 -26.82,-16.35 -100.85,9.8 -125.95,44.68 -33.06,45.98 -30.29,90.28 -30.29,155.04 0,41.26 -4.82,150.17 2.88,182.63 7.59,32.01 -4.85,37.39 -3.77,76.88 1.16,42.44 -0.65,45.63 -9,81.15z"/>
   <path class="fil1" d="M3353.88 5638.24c10.31,-160.06 54.06,-334.5 83.48,-494.29 6.15,-33.41 14.25,-50.18 33.22,-64.25 41.94,-31.08 42.8,-30.72 90.25,-30.72 25.94,0 49.34,30.7 53.6,40.46 9.64,22.09 8.59,42.83 20.66,67.65 16.88,34.67 23.18,107.15 26.71,150.44 -39.84,-24.51 -47.17,18.01 -30.68,47.01l23.06 -0.38c7.09,-10.84 6.55,-16.19 11.69,-28.29 4.01,63.47 18,124.06 24.2,190 17.21,183.04 41.11,399.41 51.97,574.65 -16.67,-8.36 -10.83,-8.8 -31.12,-4.35 -6.46,11.2 -13.82,42.58 -6,61.75 5.47,13.37 20.45,17.93 33.47,4.85l8.56 -12.18c6.74,86 14.41,175.6 22.61,262.61 4.82,51.11 2.4,81.62 -26.01,110.57 -21.05,21.44 -63.18,42.4 -106.95,31.73 -20.4,-35.03 -46.2,-206.98 -46.2,-258.27l1.94 -77.1c16.43,9.27 14.23,12.83 34.78,7.04 7.91,-21.26 9.34,-49.29 -0.56,-70.57 -8,-2.39 -19.11,-6.55 -27.47,2.72 -3.84,4.28 -3.38,6.36 -5.5,11.64l-5.14 12.9c-12.4,-102.23 -118.36,-94.6 -134.52,-28.33 -31.9,130.8 -15.69,268.3 -36.09,358.5 -24.6,108.79 -82.56,86.19 -143.37,25.58 -33.57,-33.46 -38.95,-29.09 -32.53,-91.99l15.44 7.73c11.95,4.79 8.72,6.46 26.47,-5.53l-3.18 -34.6c-20.77,-6.05 -18.49,-5.6 -34.57,5.29l59.15 -426.91c13.22,6.58 16.79,9.05 32.79,5.4 12.14,-21.17 7.33,-35.32 2.59,-58.95 -11.87,-5.82 -12.36,-7.06 -27.08,-4.67l37.41 -276.38c6.07,10.55 9.39,32.45 32.52,22.53 15.54,-6.67 10.52,-27.03 6.78,-40.75 -16.95,-6.77 -25.38,-1.36 -36.38,7.46zm197.51 644.59c0,50 14.79,131.32 22.91,179.74 12.41,74.09 17.83,124.65 83.31,124.65 81.42,0 152.77,-57.44 152.77,-150.43 0,-65.35 -36.88,-434.73 -45.47,-530.41 -10.67,-118.94 -53.99,-678.22 -97.99,-772.33 -9.96,-21.3 -8.25,-34.48 -14.31,-55.69 -2.45,-8.56 -45.17,-66.28 -78.22,-67.9 -20.35,-1 -54.97,-2.94 -72.43,3.63 -23.29,8.75 -67.83,46.2 -81.72,63.62 -18.83,23.61 -24.76,77.93 -31.52,113.75 -15.27,80.75 -30.13,162.31 -49.01,241.22l-138.02 1019.32c-3.9,27.14 -8.98,35.55 2.92,54.89 59.75,97.08 228.53,206.07 257.21,-31.98 12.2,-101.29 2.52,-144.48 21.81,-269.41 2.94,-19.07 2.96,-45.26 12.44,-58.15 13.1,-17.82 32.57,-12.45 43.72,2.47 22.78,30.52 11.6,91.83 11.6,133.01z"/>
   <path class="fil0" d="M4997.17 5381.05c0,-75.8 -29.31,-136.8 -10.58,-262.93 17.28,-116.34 49.02,-128.96 135.62,-150.82 38.58,-9.74 75.07,-20.59 114.87,-30.16 18.24,-4.39 43.37,-6.54 59.54,-11.42 22.58,-6.84 16.4,-15.38 50.26,-18.18 115,-9.52 163.29,-33.5 168.89,104.22 -20.52,-7.56 -9.54,-12.81 -37.14,-9.26 -9.63,17.99 -8.12,21.97 6.73,37.6 19.92,20.94 10.61,8.56 35.99,19.82l0.14 74.79c-2.93,18.03 -43.86,6.66 -28.94,74.68 4.24,19.38 1.61,9.08 10.74,15.21 11.24,7.54 14.28,-5.31 14.28,20.08 0,212.54 3.89,201.32 -103.02,252.47 -69.97,33.49 -50.41,20.41 -54.76,121.63 -2.23,51.93 -1.65,115.16 -6.62,168.67 -15.35,-4.18 -14.38,-2.55 -26.99,3.44 -12.82,50.9 15.56,56.04 27.87,61.42 6.38,55.66 9.43,24.33 7.4,100.98 -20.49,-11.71 -43.53,-14.15 -36.6,25.06 0.23,1.29 5.25,17.4 5.4,17.68 12.09,22.97 26.56,5.86 31.6,22.86l-2.06 124.73c-19.84,-13.6 -7.44,-24.08 -38.94,-18.41 -11.97,17.3 -4.81,25.21 1.59,44.72 12.69,38.73 30.69,6.06 35.52,24.92l-2.89 102.21c-8.11,-13.92 -2.5,-19.42 -18.02,-23.66 -16.34,-4.47 -21,4.2 -23.33,14.79 -2.52,11.46 -10.86,53.95 -7.83,66.68 30.33,9.76 24.88,3.38 42.38,-23.17l4.27 -5.37c2.89,116.25 -1.9,123.95 -57.64,181.55 -15.76,16.29 -21.2,21.84 -53.53,21.84 -57.73,0 -64.49,-66.59 -57.15,-79.74 0.39,-0.7 27.45,-13.38 26.76,-44.35 -1.02,-45.84 -37.79,-14.19 -39.58,-13.05 -3.2,-38.06 -4.62,-52.98 0.7,-90.96 15.58,28.33 39.93,25.29 39.93,-14.39 0,-41.03 0.56,-55.55 -39.89,-35.04 -1.09,-29.23 -8.51,-60.61 -10.54,-92.42 -9.18,-143.69 -1.52,-311.73 -0.2,-457.6 0.8,-88.04 11.88,-174.13 -85.35,-186.48 -52.01,-6.6 -46.49,-1.51 -56.4,-18.54 -20.09,-34.51 -22.48,-75.29 -22.48,-116.1zm404.22 167.16c44.19,-34.03 142.03,-38.16 148.63,-140.57 5.67,-88.03 10.46,-193.45 10.53,-281.57 0.07,-81.01 -0.28,-194.05 -46.34,-242.22 -29.52,-30.88 -69.05,-21.55 -118.82,-17.81 -22.43,1.68 -49.57,1.57 -70.13,4.91 -26.58,4.31 -24.88,15.75 -53.46,20.35 -38.05,6.13 -203.52,46.91 -232.16,59.04 -13.17,5.58 -33.28,22.95 -39.89,30.72 -60.8,71.39 -64.65,224.5 -51.88,307.05 16.71,108.05 5.37,53.28 11.85,136.98 2.41,31.1 20.22,88.67 36.32,108.86 22.12,27.75 90.93,10.39 112.86,36.75 27.05,32.54 11.96,216.42 11.58,272.23 -0.63,94.66 -4.48,199.21 1.43,290.82 2.43,37.54 13.16,101.98 11.65,129.86 -8.79,162.57 6.77,124.68 10.4,199.57 2.3,47.33 17.77,67.71 53.13,97.14 14.47,12.03 44.81,9.11 64.4,6.66 38.57,-4.82 64.73,-29.65 87.05,-58.14 33.41,-42.65 33.64,-36.77 39.13,-106.37 7.03,-89 9.37,-189.74 11.15,-282.4l2.21 -220.13c-0.63,-28.55 -9.39,-38.03 -10.06,-65.58l10.42 -286.15z"/>
   <path class="fil1" d="M4807.04 5309.35c-21.06,-13.93 -18.96,-15.05 -38.92,-2.19 -6.06,47.33 45.88,59.07 47.67,65.09 -0.45,26.44 -2.59,50.66 -4.99,75.42 -3.77,38.77 12.3,90.51 4.13,162.28 -3.71,32.65 -11.33,34.97 -4.93,71.26 4.27,24.28 7.45,48.64 7.72,74.58 0.35,34.24 -16.71,45.69 -16.48,65.29 0.22,19.49 14.93,28.32 14.67,70.19 -0.22,33.86 1.73,47.13 -6.25,78.57 -5.71,22.45 5.99,41.98 6.84,70.93 2.83,95.15 8.75,237.29 -0.98,326.7 -2.87,26.29 -10.57,47.01 -11.97,70.04 -2.14,35.48 7.15,44.66 -15.45,69.58 -69.92,77.04 -54.56,7.2 -82.1,-35.52 -57.55,-1.53 -13.61,68.25 -6.17,87.66 -30.85,15.59 -36.46,8.15 -62.88,-6.24 -5.65,-28.49 -8.23,-55.46 -16.1,-85.38 -9.19,-34.93 -14.75,-54.84 -1.45,-89.32 20.01,-51.86 20.72,-22.1 1.09,-73.02 -10.82,-28.07 -7.22,-69.92 -3.76,-101.85 25.94,-6.62 35.5,-15.37 38,-44.33 3.17,-36.88 -13.67,-47.16 -37.96,-25.43 -2.3,-21.61 0.91,-38.22 -5.01,-57.51 -9.34,-30.39 -6.68,-16.19 2.24,-48.01 8.85,18.51 5.7,25.03 33.46,21.06 24.8,-39.25 3.58,-111.39 -25.42,-78.41 -7.8,8.87 -4.73,30.09 -6.47,42.92 -23.47,-48.66 -13.49,-249.91 -11.47,-317.27 9.61,11.93 13.64,17.65 35.37,14.35 10.35,-23.62 20.43,-92.77 -32.87,-67.78 -0.15,-23.88 -6.89,-42.41 -7.04,-64.12 -0.22,-31.14 11.39,-22 2.7,-59.89 -19.71,-85.89 -15.4,-382.41 29.23,-452.96 11.71,-18.51 18.87,-24.84 40.45,-34.26 16.97,-7.41 39.84,-10.25 60.37,-12.22 78.62,-7.53 60.11,113.73 66.92,143.15 12.68,54.79 2.7,94.06 7.81,146.64zm-89.58 -325.97c-79.63,10.99 -118.48,36.85 -138.28,109.57 -47.54,174.54 -13.41,448.04 -15.92,458.61 -6.83,28.94 4.51,75.2 3.51,111.01l-3.87 246.38c0.58,28 12.32,102.32 10.01,117.8 -4.31,28.91 -11.04,19.29 -0.59,54.19 6.53,21.81 5.13,32.87 5.03,56.71 -0.18,42.29 -2.16,86.21 -2.07,127.69 0.1,52.1 25.66,55.79 10.2,96.06 -15.68,40.85 -15.39,62.8 -4.32,106.38 3.04,11.99 20.5,102.37 20.55,102.44 9.31,16.6 58.05,43.25 93.46,33.9 18.49,-4.88 29.08,-18.87 39.11,-22.89 22.13,-8.87 27.93,5.95 49.56,-12.33 69.44,-58.66 54.68,-86.83 58,-127.35 1.41,-17.33 6.49,-33.66 9.43,-52.15 15.28,-95.83 6.83,-268.78 2.6,-366.29 -1.06,-24.27 -9.65,-30.59 -5.37,-49.5 6.06,-26.82 8.41,-88.96 5.06,-117.21 -2.73,-23.06 -16.4,-24.82 -7.99,-48.22 14.62,-40.63 12.33,-66.33 5.75,-112.65 -7.62,-53.67 1.64,-59.95 4.1,-112.09 1.93,-41.05 -7.45,-82.17 -7.04,-118.81 0.45,-40.55 7.04,-78.97 5.33,-123.38 -0.92,-24.03 -7.31,-32.69 -9.03,-52.55 -1.51,-17.44 0.66,-42.92 0.43,-61.7 -0.55,-43.87 -13.49,-76.62 -12.77,-114.15 1.06,-56.13 6.95,-59.96 -25.65,-97.7 -29.75,-34.45 -26.23,-40.47 -89.23,-31.77z"/>
   <path class="fil0" d="M4207.22 5900.34c20.17,2.04 19.84,4.18 29.35,-8.14 0.58,31.05 -14.56,53.8 1.68,65.71 38.05,20.45 41.88,-66.66 35.94,-89.21 -30.69,-9.9 -18.37,1.73 -38.09,8.26 -6.72,-18.3 -7.76,-68.71 -37.63,-48.05 -24.1,16.66 2.21,60.88 8.75,71.43z"/>
   <path class="fil0" d="M607.8 5679.17c-4.88,17.57 -3.82,41.67 -3.96,62.78 -0.14,21.19 -3,43.99 22.06,40.4 28.43,-4.09 19.59,-79.37 11.4,-104.95l-29.5 1.77z"/>
   <path class="fil2" d="M3037.46 5829.74l0 52.79c0,33.19 14.57,32.72 36.01,23.49l3.61 -23.41 -0.62 -52.87c0,-32.13 -39,-35.29 -39,0z"/>
   <path class="fil0" d="M1396.9 5864.96c-34.52,0.59 -28.06,19.13 -27.92,48.29 0.09,18.48 -7.42,53.44 14.97,57.81 28.2,5.5 23.62,-28.1 23.54,-48.84 -0.13,-32.65 4.75,-38.16 -10.59,-57.26z"/>
   <path class="fil0" d="M1799.04 5581.01c41.13,11.5 33.13,-16.24 38.44,-49.16 4.59,-28.51 16.8,-55.92 -22.96,-52.9 -14.35,19.9 -23.19,72.22 -15.48,102.06z"/>
   <path class="fil2" d="M3037.46 6164.05l2.64 80.94c18.47,7.25 15.48,7.22 33.33,-0.3 21.27,-135.99 -35.97,-105.78 -35.97,-80.64z"/>
   <path class="fil2" d="M2642.35 5956.62c-28.56,-6.97 -31.56,6.28 -31.48,35.6 0.07,18.72 -6.81,56.3 8.86,66.23 42.79,27.08 28.92,-89.47 22.62,-101.83z"/>
   <path class="fil0" d="M3962.15 6230.04l0 48.38 2.78 26.31c23.58,8.18 35.26,0.44 35.26,-26.31l0 -48.38c0,-33.32 -38.04,-43.38 -38.04,0z"/>
   <path class="fil2" d="M2651.98 5650.32c-13.62,8.97 -9.7,2.51 -11.9,24.95 -1.93,19.59 -1.25,13.97 -6.12,33.6 -6.43,25.92 8.15,44.65 26.63,30.74 20.11,-15.14 31.83,-115.96 -8.61,-89.29z"/>
   <path class="fil0" d="M1403.44 6175.81c-10.39,26.95 1.86,75.35 15.11,94.39l23.4 -3.88c7.73,-21.53 0.65,-38.36 -2.86,-62.68 -3.98,-27.53 -6.67,-34.53 -35.65,-27.83z"/>
   <path class="fil0" d="M1382.25 6116.81c58.29,16.3 33.34,-83.07 29.34,-87.27 -17.65,-18.53 -32.36,1.8 -33.11,24.13 -0.68,20.68 -0.97,47.11 3.77,63.14z"/>
   <path class="fil3" d="M6139.21 5604.39c27.36,-1.6 27.97,-13.78 24.03,-40.58 -2.9,-19.81 -3.36,-50.61 -21.09,-55.17 -43.8,-11.3 -15.82,83.46 -2.94,95.75z"/>
   <path class="fil0" d="M651.81 6212.44c0,-41.46 -37.34,-44.2 -38.31,4.04 -0.71,35.29 -9.25,76.99 36.07,58.14l2.24 -22.59 0 -39.59z"/>
   <path class="fil0" d="M643.55 6015.62c-29.74,-4.1 -29.91,10.99 -30.03,38.21 -0.07,17.69 -5.81,47.78 11.49,55.43 26.61,11.76 27.08,-19.7 27.05,-37.33 -0.06,-27.69 3.81,-39.2 -8.51,-56.31z"/>
   <path class="fil2" d="M2877.8 5847.33c0,42.62 -5.9,70.01 33.37,62.71 8.55,-22.75 9.63,-71.43 -1.68,-92.41 -24.7,-5.23 -31.69,5.3 -31.69,29.7z"/>
   <path class="fil0" d="M947.25 5271.98c-8.91,19.87 -7.53,61.92 -3.37,86.73 29.18,14.5 36.2,2.47 36.24,-34.69 0.03,-34.21 8.23,-60.76 -32.87,-52.04z"/>
   <path class="fil3" d="M6156.1 5860.53c0,31.33 -6.37,70.75 35.35,57.06 5.81,-20.93 3.69,-41.59 3.69,-65.86 0,-21.06 -7.56,-27.64 -29.14,-25.2 -5.87,8.73 -9.9,17.09 -9.9,34z"/>
   <path class="fil0" d="M1756.93 6356.47c8.37,-12.51 21.7,-109.64 -18.61,-92.56 -16.89,7.16 -11.09,39.25 -11.24,58.77 -0.23,29.86 -3.2,40.7 29.85,33.79z"/>
   <path class="fil0" d="M1392.78 5799.48c3.22,-10.9 2.45,-17.94 4.24,-30.79 2.11,-15.11 6.38,-18.32 8.1,-28.4 4.23,-24.87 -18.37,-32.46 -32.14,-17.79 -12.99,13.85 -37.82,91.49 19.8,76.98z"/>
   <path class="fil2" d="M2659.78 5526.21c0,31.78 -3.67,38.68 8.22,55.98 36.37,6.73 30.82,-12.55 30.82,-55.98 0,-25.7 -4.91,-30.55 -31.77,-26.79 -3.41,7.48 -7.27,14.27 -7.27,26.79z"/>
   <path class="fil0" d="M4080.9 5455.83c0,29.23 -3.04,36.38 6.79,56.64 34.36,4.81 32.14,-6.18 32.46,-38.99 0.3,-30.01 3.77,-49.43 -31.42,-43.48 -5.71,9.07 -7.83,10.07 -7.83,25.83z"/>
   <path class="fil0" d="M1795.43 5688.97c0,39.14 -4.53,57.46 31.99,52.01 10.72,-19.94 10.52,-62.26 0.47,-82.52 -28.3,-3.91 -32.46,2.07 -32.46,30.51z"/>
   <path class="fil2" d="M3025.35 6391.66c31.3,33.42 50.46,-59.24 34.33,-74.56 -19.64,-18.66 -30.04,4.49 -32.56,21.88 -3.08,21.17 -14.88,39.19 -1.77,52.68z"/>
   <path class="fil0" d="M4055.21 6068.94c-5.5,19.04 -12.95,83.07 15.38,81.32 28.42,-1.76 22.5,-63.32 13.43,-82.58 -9.27,-3.72 -17.89,-5.79 -28.81,1.26z"/>
   <path class="fil0" d="M764.13 5821.65c6.04,-12.17 36.33,-99.01 -8.73,-84 -13.94,4.64 -16.69,32.68 -19.52,48.93 -5,28.74 -0.55,36.26 28.25,35.07z"/>
   <path class="fil1" d="M4766.15 6300.42c0,99.02 39.01,55.23 39.01,30.79 0,-23.41 2.63,-39.84 -7.95,-56.68 -25.66,-4.69 -31.06,1.32 -31.06,25.89z"/>
   <path class="fil1" d="M4617.21 5834.14c0,29.59 -3.4,38.36 8.58,56.68l22.42 0.68c9.9,-21.55 7.04,-28.83 7.04,-57.36 0,-39.9 -38.04,-39.27 -38.04,0z"/>
   <path class="fil0" d="M5003.65 5332.66c0,82.15 39.02,55.61 39.02,26.39 0,-28.39 3.05,-37.2 -4.47,-56.48 -23.36,-7.93 -34.55,2.39 -34.55,30.09z"/>
   <path class="fil0" d="M892.16 5631.78c0,9.89 4.31,14.55 8.42,20.15 45.03,6.44 34.28,-65.06 18.59,-84 -33.69,-1.18 -27.01,15.36 -27.01,63.85z"/>
   <path class="fil3" d="M5714.75 6175.28c-6.93,20.98 -5.54,13.63 0.96,32.73 5.95,17.49 2.65,23.06 7.04,37.7 64.96,22.19 34.51,-92.61 -8,-70.43z"/>
   <path class="fil0" d="M1495.71 6366.41c-1.33,-45.47 -30.63,-90.67 -45.66,-51.63 -6.97,18.11 0.88,42.97 10.05,54.14 16.7,20.35 24.99,7.99 35.61,-2.51z"/>
   <path class="fil0" d="M4113.63 5581.48c-6.96,32.53 -1.39,83.44 41.24,68.06 4.85,-16.27 -2.49,-33.21 -6.13,-52.24 -4.03,-21.2 -19.34,-27.71 -35.11,-15.82z"/>
   <path class="fil2" d="M2814 6305.57c11.43,-39.95 -7.08,-76.41 -27.32,-74.29 -26.87,14.26 -14.84,20.08 -9.2,43.63 6.39,26.68 4.16,40.3 36.52,30.66z"/>
   <path class="fil2" d="M3012.43 6007.27c4.43,-14.42 -5.38,-81.85 -47.53,-69.3 -9.94,19.25 5.9,82.84 47.53,69.3z"/>
   <path class="fil0" d="M4153.09 5781.87c13.06,15.79 17.16,12.97 32.8,4.87 14.72,-85.02 -56.28,-89.07 -41.2,-39.93l8.4 35.06z"/>
   <path class="fil2" d="M2927.69 5424.88c13.91,-18.31 34,-64.2 -0.37,-77.47 -20.22,8.06 -18.06,16.06 -24.32,40.61 -7.21,28.31 -6.95,37.18 24.69,36.86z"/>
   <path class="fil1" d="M4768.98 6118.35c-18.73,107.4 52.75,84.23 35.2,11.61 -6.54,-27.05 -19.55,-13.72 -35.2,-11.61z"/>
   <path class="fil2" d="M2769.31 6195.71c13.86,-13.19 7.21,-21.67 0.81,-45.7 -4.31,-16.13 -13.7,-36.34 -31.12,-24.75 -17.99,11.96 -4.67,91.11 30.31,70.45z"/>
   <path class="fil2" d="M2703.96 6376.22c-4.97,19.82 0.02,31.83 5.16,50.67 5.57,20.42 12.46,24.31 33.39,18.93 9.41,-27.02 1.43,-90.46 -38.55,-69.6z"/>
   <path class="fil3" d="M6088 6340.02l5.99 26.68c30.14,6.8 28.05,-5.73 38.35,-46.8 2.69,-10.74 1.15,-16.49 -1.6,-24.57 -28.64,-8.07 -42.74,11.88 -42.74,44.69z"/>
   <path class="fil0" d="M5324.99 5608.47c-20.13,10.6 -20.8,89.11 14.9,73.69 20.02,-8.65 18.4,-91.21 -14.9,-73.69z"/>
   <path class="fil3" d="M6161.48 5995.87c-18.3,8.14 -15.5,21.8 -14.54,45.32 0.73,18.05 8.04,37.89 28.35,27.73 18.64,-9.32 17.42,-86.91 -13.81,-73.05z"/>
   <path class="fil2" d="M3037.46 6014.49l0 21.99 2.81 19.01c18.08,7.7 36.19,9.01 36.19,-19.01l0 -21.99c0,-42.2 -39,-41.02 -39,0z"/>
   <path class="fil0" d="M4250.27 5741.76c0,28.62 -5.09,66.2 35.02,43.74 5.48,-32.67 4.05,-31.9 -0.7,-66.1 -22.8,-6.65 -34.32,-6.09 -34.32,22.36z"/>
   <path class="fil0" d="M4359.29 6023.29c0,17.3 -1.18,29.93 5.38,45.16 36.03,9.47 32.66,-15.9 32.66,-45.16 0,-39.16 -38.04,-42.24 -38.04,0z"/>
   <path class="fil2 str0" d="M6632.09 6237.96c37.94,6.02 46.76,-33.26 35,-61.21 -27.44,-10.34 -27.03,-3.05 -34.51,20.17 -5.88,18.26 -13.69,22.48 -0.49,41.04z"/>
   <path class="fil2 str0" d="M6509.62 6315.11c4.48,-19.19 -10.73,-87.23 -38.75,-56.93 -15.14,16.38 -4.94,71.68 38.75,56.93z"/>
   <path class="fil2" d="M2739.6 5535.01c0.08,36.9 30.7,49.82 45.61,-11.02 10.11,-41.2 -45.69,-29.34 -45.61,11.02z"/>
   <path class="fil0" d="M975.86 5838.54c12.69,-39.82 -27.52,-49.54 -40.07,-2.62 -5.09,19.03 -5.16,38.36 15.71,36.52 16.79,-1.48 19.43,-18.43 24.36,-33.9z"/>
   <path class="fil2 str0" d="M6856.27 5421.52c21.45,-67.49 -26.94,-81.76 -34.02,-43.88 -6.25,33.44 0.93,53.01 34.02,43.88z"/>
   <path class="fil2" d="M2952.97 6306.16l23.89 4.21c15.97,-22.92 23.47,-45.89 12.02,-65.91 -40.31,-8.94 -41.36,44.72 -35.91,61.7z"/>
   <path class="fil2" d="M2661.35 6267.02c-16.75,12.03 -10.88,18.73 -3.99,39.06 4.5,13.26 13.11,32.9 32.16,20.51 16.85,-10.97 0.54,-80.2 -28.17,-59.57z"/>
   <path class="fil3" d="M5758.99 6322.42c0,55.29 39,38.98 39,13.19 0,-23.1 2.03,-22.81 -5.07,-40.96 -24.32,-4.75 -33.93,-0.77 -33.93,27.77z"/>
   <path class="fil3" d="M2072.93 5473.43c0,-45.83 -36.44,-48.85 -38.56,-8.87 -3.24,61.32 38.56,49.29 38.56,8.87z"/>
   <path class="fil0" d="M5322.89 5486.62c0,28.58 0.84,51 35.69,29.4 2.23,-21.38 7.21,-56.99 -16.46,-58.58 -16.73,-1.12 -19.23,12.06 -19.23,29.18z"/>
   <path class="fil1" d="M3683.76 5961.7l0 8.8c0,45.61 37.06,40.82 37.06,4.4l0 -13.2c0,-39.93 -37.06,-37.24 -37.06,0z"/>
   <path class="fil0" d="M925.68 5950.41c14.49,-34.42 -20.43,-54.48 -38.2,-13.48 -17.26,39.82 23.48,48.44 38.2,13.48z"/>
   <path class="fil2 str0" d="M6451.18 5732.38c20.53,-17.57 10.59,-34.71 -7.71,-56.02 -21.19,0.72 -32.04,3.59 -25.8,27.66 5.09,19.68 12.59,28.9 33.51,28.36z"/>
   <path class="fil2 str0" d="M6597.62 6264.56c-16.46,6.32 -5.66,-3.21 -15.62,12.88 -1.82,2.95 -6.43,15.11 -6.79,19.38 -1.45,17.17 9.28,28.92 27.39,19.8 20.02,-10.07 28.36,-64.88 -4.98,-52.06z"/>
   <path class="fil3" d="M6122.79 6206.47c34.55,8.78 44.67,-21.93 39.67,-48.92 -17.67,-7.39 -24.95,-8.33 -34.94,8.25 -8.83,14.64 -12.45,25.22 -4.73,40.67z"/>
   <path class="fil0" d="M807.57 5891.47c16.94,3.16 24.32,-9.86 21.42,-25.48 -6.09,-32.75 -52.51,-45.94 -44.42,-5.46 1.81,9.07 11.3,28.76 23,30.94z"/>
   <path class="fil0" d="M1598.72 6055.04c-49.99,49.22 50.54,95.02 23.31,1.59l-23.31 -1.59z"/>
   <path class="fil1" d="M3385.92 6221.24c0,21.15 1.64,19.75 12.97,29.29 45.6,-5.09 26.44,-65.92 0.15,-58.47 -10.84,8.54 -13.12,9.36 -13.12,29.18z"/>
   <path class="fil2" d="M2838.92 6358.71c13.33,8.62 26.87,18.27 36.29,-0.44 9.32,-18.51 0.78,-35.59 -9.48,-45.24 -32.59,-2.32 -26.93,15.1 -26.81,45.68z"/>
   <path class="fil0" d="M865.7 5947.52c-38.43,-10.22 -39.49,19.83 -28.61,49.66 38.37,14.19 39.77,-22.32 28.61,-49.66z"/>
   <path class="fil2" d="M2792.75 6453.31c-47.41,-9.77 -36.55,44.2 -25.32,51.58 29.62,19.46 35.76,-25.82 25.32,-51.58z"/>
   <path class="fil0" d="M5153.55 5455.83l1.44 20.19c40.73,27.66 41.47,-17.41 30.1,-47.12 -23.98,-2.07 -33.91,0.49 -31.54,26.93z"/>
   <path class="fil1" d="M3298.34 6132.11c14.51,9.4 32.12,15.79 36.12,-11.74 4.03,-27.69 -5.34,-40.48 -32.25,-34.04 -8.23,16.09 -7.34,25.65 -3.87,45.78z"/>
   <path class="fil1" d="M3405.38 5345.85c0,17.2 1.51,26.91 15.77,29.24 16.99,2.78 22.28,-8.17 22.28,-24.83 0,-47.9 -38.05,-39.5 -38.05,-4.41z"/>
   <path class="fil1" d="M3281.31 6293.98c9.21,4.86 17.39,4.99 28.21,1.58 9.5,-23.99 7.71,-35.82 -3.77,-51.99 -34.11,-2.95 -35.74,22.6 -24.44,50.41z"/>
   <path class="fil2" d="M2993.68 6464.04c-6.64,14.83 -5.9,33.15 -2.44,49.77 40.98,13.29 41.82,-24.84 28.76,-51.75l-26.32 1.98z"/>
   <path class="fil2" d="M2908.98 5961.7l0 4.4c0,34.75 37.04,34.98 37.04,0l0 -4.4c0,-37.89 -37.04,-39.05 -37.04,0z"/>
   <path class="fil0" d="M1678.74 6389.13c-2.89,18.2 -2.43,34.43 4.81,48.29l24.53 -2.29c8.8,-14.96 7.01,-35.47 1.13,-51.64 -14.62,-3.01 -20.76,-0.29 -30.47,5.64z"/>
   <path class="fil2" d="M2793.99 5461.58c35.08,11.55 54.92,-24.31 36.04,-40.51 -13.9,-11.93 -47.05,8.6 -36.04,40.51z"/>
   <path class="fil0" d="M4038.08 6434.75c28.94,10.06 53.76,-24.7 34.27,-39 -18.03,-13.26 -52.68,10.67 -34.27,39z"/>
   <path class="fil3" d="M6056.47 6406.85c-35.97,25.78 -12.61,51.52 14.22,37.19 24.27,-12.96 14.08,-57.46 -14.22,-37.19z"/>
   <path class="fil0" d="M1531.85 6057.41c-8.82,33.68 24.71,55.38 40.3,36.31 12.46,-15.26 -7.63,-46.34 -40.3,-36.31z"/>
   <path class="fil1" d="M3376.01 6384c5.43,25.49 45.77,19.16 36.98,-17.55 -6.27,-26.24 -44.8,-19.19 -36.98,17.55z"/>
   <path class="fil0" d="M4088.36 5969.33c-5.16,4.02 -3.42,-4.06 -7.06,11.18 -4.82,20.17 10.14,41.45 30.56,26.73 17.61,-12.71 4.49,-59.76 -23.5,-37.91z"/>
   <path class="fil2" d="M3001.43 5757.49c-23.61,8.86 -15.85,53.35 12.31,44.52 23.26,-7.29 15.48,-54.96 -12.31,-44.52z"/>
   <path class="fil1" d="M3359.43 6444.7c-19.72,-5.98 -35.93,-4.26 -33.72,22.81 1.87,22.79 15.69,22.54 32.95,18.04 5.39,-13.83 6.2,-26.75 0.77,-40.85z"/>
   <path class="fil2" d="M2417.12 6426.31c-30.19,-12.53 -45.7,10.73 -31.51,33.23 14.09,22.35 41.61,7.13 31.51,-33.23z"/>
   <path class="fil0" d="M1657.76 6443.98c-39.29,-12.48 -49.1,17.67 -34.23,29.67 13.2,10.65 56.96,7.79 34.23,-29.67z"/>
   <path class="fil0" d="M5372.62 5393.21c11.13,-15.61 10.03,-25.52 1.94,-43.08 -44.32,-9.14 -46.64,50.78 -1.94,43.08z"/>
   <path class="fil3" d="M5900.7 6515.29c14.77,-29.72 -3.41,-60.81 -26.05,-39.4 -11.55,10.94 -10.82,47.56 26.05,39.4z"/>
   <path class="fil2 str0" d="M6723.94 5345.56c47.38,0 26.58,-39.66 4.4,-37.1l-18.07 1.68c-5.84,13.08 -11.74,35.42 13.67,35.42z"/>
   <path class="fil1" d="M3409.74 5529.09c5.08,-17.78 5.22,-18.64 -0.17,-36.36 -48.67,-22.41 -46.66,59.13 0.17,36.36z"/>
   <path class="fil2" d="M2396.42 6236.08c7.54,-24.14 8.59,-34.11 -14.61,-43.8 -32.32,11.32 -27.47,56.95 14.61,43.8z"/>
   <path class="fil1" d="M3411.47 6088.12l21.68 2.3c11.22,-14.82 12.54,-28.73 2.81,-43.46 -35.3,-10.42 -34.38,19.46 -24.49,41.16z"/>
   <path class="fil1 str1" d="M895.14 5428.17c4.88,-20.95 14.19,-16.27 21.96,-38.08l20.16 -165.84c7.71,-80.55 2.45,-156.15 48.58,-192.06 30.38,-23.65 116.7,-49.38 144.19,-27.04 63.56,51.64 31.04,81.37 29.46,138.33 -0.88,31.33 4.43,79.87 7.14,110l-24.75 13.45c-3.15,25.24 -3.81,63.98 2.16,84.97 6.1,2 8.61,1.65 14.82,3.14l14.46 3.97 2.1 64.8c-34.82,-19.98 -35.35,12.31 -35.28,40.76 0.07,35.92 -7.16,54.86 33.09,47.89l5.17 -24.38c11.28,3.75 7.37,2.65 9.51,21.84 12.39,110.56 7.94,397.47 7.94,508.97l-4.87 417.9c-0.88,112 -0.88,64.85 -25.83,111.15 -46.31,-0.48 -70.04,0.52 -83.45,-20.88 -19.42,-31 -12.42,-47.77 -12.33,-87.76 22.69,-0.04 21.1,1.41 37.96,-6.6l-2.25 -26.05c-11.03,-5.7 -26.16,-5.2 -39.3,-7.86 -1.42,-2.8 -1.26,-0.08 -3.92,-9.57l-8.66 -97.58c0.23,-15.86 5.98,-17.21 4.67,-34.94 -0.96,-12.99 -6.02,-17.03 -7.62,-31.61 -1.29,-11.74 -0.13,-26.97 -0.26,-39.13 -0.31,-26.78 -9.26,-44.98 -7.7,-64.21 2.14,-26.37 6.06,-45.63 2.14,-76.06 -4.27,-33.24 -11.55,-35.53 -20.15,-59.82 -11.07,-31.29 9.47,-36.96 2.34,-63.52 -6.72,-25.01 -5.83,-44.18 -10.79,-64.01 -56.57,-14.21 -28.84,47.5 -28.36,77.02 0.76,45.16 -24.36,46.28 -40.81,73.82 -18.33,30.72 -11.64,57.02 -35.55,78.97 -24.86,22.82 -51.04,4.97 -84.88,-1.86 1.66,-32.8 -4.46,-51.29 -11.37,-80.1 -8.4,-34.98 -12.75,-31.06 -42.71,-44.83 -1.15,-22 6.43,-54.59 -18.5,-56.37 -25.43,-1.82 -21.69,27.08 -21.47,48.1 0.78,71.7 33,5.22 51.95,88.43 14.25,62.57 -22.17,55.15 -4.3,109.7 8.21,25.06 4.66,102.82 5.68,136.01 1.45,47.14 3.3,89 4.43,136.36 1.39,58.33 7.29,81.59 -32.23,109.27 -30.22,21.16 -82.1,24.48 -115.49,11.32 -35.82,-14.11 -30.31,-74.86 -30.31,-113.97 20.13,-7.25 25.82,-6.04 40.49,-24.15l3.55 36.9c17.75,7.67 13.88,7.97 33.53,0.07 6.47,-34.66 -1.51,-71.64 -36.58,-41.04 -1.07,-12.89 2.12,-41.43 -3.08,-50.97 -6.88,-12.62 -22.82,-13.77 -34.45,1.13 -5.06,-37.19 -0.4,-67.94 -8.6,-106.99 -7.59,-36.2 -2.86,-60.79 -2.65,-98.66 0.41,-73.16 1.95,-146.17 1.77,-218.39l28.9 2.02c10.1,-20.57 13.43,-51.56 -0.82,-72.46 -22.53,-4.15 -15.72,1.78 -31.47,1.62 -1.31,-27.91 -7.53,-47.71 -9.28,-73.45 -1.76,-26.01 2.17,-212.98 6.85,-222.68 13.51,23.27 -5.25,47.46 36.59,38.39 7.83,-16.99 9.41,-32.88 -0.44,-54.2 -10.59,-22.88 -16.9,-20.32 -38.46,-17.36l-2.76 -91.55c18.25,7.34 18.58,8.29 34.41,-1.64 5.69,-22.07 4.66,-58.62 0.19,-80.87l-13.32 -9.57 -20.97 9.4 -1.42 64.62c-15.48,-51 -19.56,-170.6 -13.93,-230.38 5.85,-62 6.44,-57.34 38.45,-89.81 28.38,-28.81 46.38,-29.26 91.67,-14.19 -2.83,32.19 -19.7,47.83 -13.49,76.07 43.09,19.26 36.57,-30.66 53.06,-59.15 14.96,3.66 24.37,21.32 29,33.94 13.73,37.41 -16.86,57.03 14.65,99.35 13.54,18.18 9.3,19.8 9.3,48.06 -4.93,19.8 -29.96,-7.31 -29.5,66.06 0.2,29.73 7.44,59.8 42.46,52.16 11.33,-26.99 -4.38,-32.3 0.08,-44.03 9.24,14.51 5.22,26.21 16,41.79 12.13,17.53 22.08,9.27 20.17,46.42 -33.19,0.25 -35.74,1.52 -44.63,31.69 -24.67,83.73 21.52,106.57 32.4,72.57 6.81,-21.29 -8.21,-37.67 6.86,-64.35 14.6,4.74 6.42,-1.45 7.86,14.47 1.22,13.66 -2.76,50.54 3.84,57.85 22.43,16.11 37.67,-10.46 39.05,-24.69 1.46,-14.95 -6.77,-26.8 0.42,-52.45l6.02 -13.96c18.27,13.54 -0.64,20.92 17.08,33.5 31.61,22.42 31.36,-38.79 34.87,-50.94 5.17,-17.81 6.33,-14.47 -2.1,-30.57 -38.96,-7.94 -2.27,11.94 -58.34,8.38zm-17.29 -41.58c-17.84,-4.42 -14.66,-3.98 -19.62,-26.4l-16.85 -80.08c-0.2,-14.69 2.87,-32.93 -1.67,-46.18 -5.14,-15.01 -13.92,-12.54 -19.01,-25.65 -5.57,-14.32 -1.21,-32.09 -0.55,-47.33 1.49,-34.39 -10.66,-49.02 -24.49,-72.1 -18.36,-30.66 -32.09,-18.92 -60.78,-31.49 -27.21,-11.92 -40.14,-22.4 -77.13,-18.68 -49.54,4.99 -97.54,57.94 -105.71,83.58 -14.95,46.94 -14.35,223.05 -4.84,267.26 19.48,90.53 8.42,260.51 8.21,361.18 -0.09,41.71 0.58,42.13 6.33,81.7 15.08,103.77 6.14,258.9 2.65,366.87 -1.24,38.35 5.85,49.07 9.08,83.36 7.32,77.67 -12.82,218.64 17.56,268.69 43.17,71.13 224.23,44.59 238.22,-61.8 4.3,-32.68 -5.12,-223.13 -6.68,-281.48 -1.23,-45.92 0.65,-44.65 -10.91,-83.73 22.99,-0.33 36.13,7.36 58.23,12.1 4.02,19.93 -1.57,42.76 21.17,43.88 24.29,1.2 17.9,-24.01 19.44,-45 88.72,-59.36 35.73,-84.55 84.7,-123.78 11.33,28.22 15.61,50.07 11.84,85.2 -8.39,78.18 4.07,40.98 4.92,89.17 0.28,16.19 -2,32.72 0.56,48.47 4.99,30.67 7.63,11.49 1.69,45.18 -4.89,27.76 16.8,142.17 16.15,183.64 -0.75,48.14 -0.14,48.8 19,83.09 20.69,37.08 17.62,32.02 65.28,36.36 46.46,4.23 57.98,15.63 81.68,-15.95 19.72,-26.27 31.12,-23.83 32.14,-68.04 0.77,-33.75 -0.4,-67.79 0.59,-101.62 1.89,-63.68 2.29,-131.9 3.7,-197.76 4,-186.47 5.03,-423.16 -1.4,-611.54 -2.19,-64.25 -11.96,-118.26 -16.87,-182.91 -3.52,-46.36 -20.18,-244.48 -13.27,-283.96 15.58,-88.94 -1.28,-99.1 -49.37,-146.41 -38.44,-37.79 -171.02,-8.88 -218.28,58.31 -39.55,56.24 -31.97,276.2 -55.71,353.85z"/>
   <path class="fil2 str0" d="M6771.35 5024.73c0,-20.15 -4.72,-38.67 5.76,-48.6 12.39,-11.74 27.43,-4.74 30.99,9.56 4.53,18.19 -35.97,80.47 3.92,81.72 20.76,0.65 18.25,-27.69 30.7,-41.22 42.47,16.8 5.74,68.07 5.04,69.64 -19.74,44.19 21.02,42.16 50.71,52.87 13.35,84.4 -15.28,61.83 -0.66,110.47 19.91,66.24 -33.08,200.72 -59.49,207.68 -28.64,-0.4 -50.99,-26.01 -64.49,-41.81 13.47,-16.11 31.24,-34.67 24.06,-69.68 -39.27,-21.85 -29.38,15.06 -48.59,37.84 -11.23,13.32 -14.99,13.44 -38.3,14.83 -21.22,1.28 -29.08,6.5 -49.89,8.49 -7.16,-15.44 -11.71,-16.69 -24.46,-31.73 -12.05,-14.2 -13.43,-19.92 -37.22,-13.94 -5.52,14.14 -7.26,22.02 5.67,36.59 11.89,13.38 13.18,12.42 24.08,30.79 -28.15,57.36 -26.28,30.88 -26.28,118.77 0,20.05 8.17,32.4 14.72,48.39 -10.29,11.53 -30.51,18.49 -32.4,35.79 -1.88,17.24 12.14,44.19 19.25,52.29l23.23 -3.05c7.52,-20.19 0.48,-22.88 0.7,-43.75 57.8,-30.15 15.31,20.23 16.69,46.92 0.97,18.67 16.89,25.71 28.85,16.13 10.46,-8.38 11.74,-28.4 19.21,-42.26 60.51,-14.23 8.35,13.56 24.79,63.03 33.17,8.26 27.49,-0.37 36.8,-28.35 28.57,1.03 20.01,10.59 32.43,33.69 2.19,4.06 54.4,53.37 37.37,88.78 -0.02,0.05 -21.41,38.1 -7.54,52.87 10.3,4.7 26.24,6.81 41.51,7.51 11.62,19.44 24.07,77.21 23.36,104.21 -19.29,-13.31 -9.65,-29.33 -42.6,-22.09 -17.63,37.18 19.22,54.77 38.06,64.12 15.64,111 -4.81,60.82 -4.81,141.63 0,40.82 17.25,15.9 5.32,109.52 -27.99,11.49 -73.06,22.66 -46.28,55.12 23.12,4.74 21.8,-4.9 40.96,-10.13 -1.75,30.77 -37.28,184.03 -97.6,198.18 -21.48,-70.54 -46.11,-28.03 -40.56,2.63 3.31,18.23 7.39,14.46 16.59,27.38 -13.33,109.81 -195.83,211.64 -288.5,103.17 -18.84,-22.06 -34.32,-41.8 -50.25,-68.57 -23.66,-39.73 -27.41,-35.21 -31.16,-91.73 -2.01,-30.3 -9.13,-91.25 -3.36,-117.5 3.34,-15.18 10.36,-32.42 13.73,-48.47 4.2,-20.05 -3.04,-41.27 -1.61,-67.23l6.93 -62.71c18.47,4.44 9.22,6.66 22.8,19.98 14.93,14.65 52.39,11.21 18.7,-41.16 -17.33,-26.94 -54.06,-11.95 -25.44,-51.13 17.83,1.85 31.47,25.08 61.6,45.77 21.9,15.05 50.61,28.63 85.83,21.6 56.51,-11.29 81.75,-68.6 98.02,-126.05 9.87,18.08 -2.03,22.46 17.43,38.72 28.86,0.27 28.92,-18.26 25.28,-47.1 -3.63,-28.78 -14.45,-27.15 -38.1,-35.7 -2.31,-53.93 8.83,-43.61 -22.68,-74.3 -116.14,-113.15 -118.95,-52 -177.35,-121.86 -27.32,-32.68 -49.77,-86.51 -63.18,-134.61 -2.76,-9.92 -12.58,-78.9 -12.21,-85.86 0.94,-17.49 7.54,-21.28 0.47,-42.81 -11.22,-34.13 -13.68,5.25 -13.68,-76.99 0,-19.24 4.11,-13.85 13.52,-19.49 25.19,-15.08 26.49,-12.1 26.49,-50.89 0,-74.77 -67.17,15.12 -26.8,-121.22 15.2,-4.1 55.71,-10.94 42.76,-55.91 -19.61,-7.06 -21.83,-2.26 -36.09,5.35 -0.43,-30.81 11.11,-86.97 35.74,-96.87 5.49,20.19 2.23,29.43 25.74,35.44 22.01,-1.97 28.58,-45.13 -13.91,-74.72 5.05,-31.61 15.31,-41.81 33.74,-55.01 10.25,12.59 10.75,72.38 40.75,45.54 9.12,-8.16 17.54,-44.38 -16.38,-73.5 28.4,-63.24 146.8,-119.72 244.61,-78.71 -6.86,28.47 -15.71,23.27 -12.12,69.68 3.12,40.17 39.08,33.91 39.08,4.02zm-348.11 1039.95c-24.71,-1.92 -23,4.79 -28.55,24.37 -7.41,26.09 -16.34,17.56 -25.94,36.34 -7.14,13.94 -2.41,34.5 -4.3,51.84 -1.94,17.77 -8.35,33.82 -10.44,53.04 -3.63,33.44 2.26,82.33 -3.57,106.08 -12.4,50.49 -15.28,45.21 -11.6,104.67 8.43,136.49 -1.62,118.79 102.42,251.98 17.33,22.18 49.48,37.99 77.63,45.03 111.19,27.84 230.61,-55.8 262.61,-146.94 11,-31.32 -0.13,-21.41 25.02,-36.53 46.37,-27.87 68.4,-84.17 86.48,-150.98 13.47,-49.75 37.51,-155.51 23.19,-207.48 -15.03,-54.52 16.83,-81.47 0.7,-159.59 -7.5,-36.35 16.98,-68.76 -13.56,-148.28 -8.21,-21.37 -8.76,-20.91 -14.39,-44.22 -5.64,-23.32 -13.91,-15.62 -22.35,-37.6 -4.7,-12.23 -8.49,-31.98 -12.48,-45.18 -9.59,-31.74 -11.16,-18.58 -26.68,-34.91 -28.42,-29.9 4.69,-27.21 -55.62,-63.08 -19.97,-11.88 -11.41,-16.83 -28.83,-28.41 -13.62,-9.06 -36.55,-4.82 -49.45,-12.83 -12.06,-7.5 0.74,-4.36 -15.01,-15.02 -10.18,-6.9 -12.6,-3.72 -20.32,-10.74 -26.29,-23.93 -24.24,-117.18 6.97,-138.09 19.9,-13.32 60.26,-20.45 91.44,4.66 23.3,18.76 33.7,42.72 77.38,42.78 32.82,0.05 39.31,-6.93 65.02,-55.24 22.38,-42.03 52.67,-138.76 38.57,-194.85 -8.74,-34.8 9.75,-56.3 1.41,-102.34 -12.45,-68.82 -6.82,-65.75 -38.18,-84.97 -4.43,-102.34 -40.58,-51.28 -59.19,-99.48 -10.29,-26.67 -12.21,-29.49 -43.79,-35.52 -28.65,-5.46 -33.67,-16.99 -58.17,-25.44 -94.26,-32.53 -195.31,15.85 -242.81,61.47 -14.31,13.75 -21.14,25.93 -35.8,43.6 -11.87,14.3 -31.54,29.21 -40.58,42.78 -10.21,15.33 -13.98,38.92 -21.03,57.93 -7.93,21.34 -22.48,35.27 -30.25,53.35 -13.67,31.89 -13.27,101.54 -23.18,139.81 -11.05,42.62 -15.94,181.33 -10.43,232.9 3.37,31.57 20.36,28.93 14.66,57.54 -11.94,59.94 34.28,190.19 71.8,244.08 66.34,95.28 91.23,37.55 189.01,136.5 36.57,37.01 -6.18,231.01 -109.45,171.09 -14.29,-8.3 -32.8,-25.64 -43.75,-35.41 -38.86,-34.63 -14.85,-22.62 -34.61,-48.71z"/>
   <path class="fil0" d="M1364.64 5606.89c10.78,61.21 40.53,35.7 41.54,16.36 0.08,-1.69 -9.58,-60.7 -10.02,-61.92 -9.85,-27.49 -27.45,-12.07 -39.84,1.12 0.2,-22.95 -1.6,-71.77 2.48,-91.78 8.14,-39.99 27.2,-21.29 7.34,-68.31 -18.58,-43.97 -16.43,-114.41 -4.98,-162.08 18.76,-10.39 24.63,-2.23 25.53,-30.59 -7.69,-7.18 -29.9,-15.9 -14.74,-33.08 22.69,-25.75 132.68,-37.85 136.51,64.84 1.09,29.03 0.01,24.71 -15.78,38.2 -32.98,28.18 -20.96,54.81 14.66,69.62 0,28.25 3.33,79.59 -2.99,104.73 -11.23,44.71 5.51,39.43 5.13,85.31 -0.3,35.45 -9.22,63.7 -10.38,93.18 -0.9,23 9.65,62.75 10.73,91.66 1.32,35.51 -11.33,67.06 -9.18,96.95 1.98,27.33 26.18,42.42 15.87,85.69 -7.14,29.98 -37.93,30.78 -28.12,76.8 3.95,18.47 28.84,34.06 38.32,-4.87l6.01 -18.94c23.86,16.7 13.25,22.71 52.57,22.27 41.99,-0.48 29.96,-1.46 57.9,13.71 -4.51,21.12 -8.75,21.58 -1.68,42.8l23.97 1.95c23.19,-24.94 32.12,-59.94 -13.54,-83.56 3.93,-26.43 20.77,-53.85 27.84,-81.7 7.51,-29.65 -1.05,-24.48 -2.14,-45.81 -0.72,-14.14 6.4,-29.39 8.07,-45.11 1.88,-17.66 -1.04,-35.45 0.12,-51.46 1.33,-18.37 9.23,-25.41 8.93,-43.81 -0.4,-25.42 -11.35,-12.31 -10.41,-96.97 0.53,-48.12 18.15,-39.42 4.12,-89.67 -17.61,-63.04 8.01,-128.66 5.84,-146.55 -2.37,-19.66 -26.06,-76.58 1.19,-134.35 23.5,12.04 5.36,13.87 12.7,33.07 6.26,16.39 16.91,13.48 31.64,7.88 17.74,-47.9 -5.67,-45.23 -9.53,-76.55 33.59,-32.82 92.01,-12.42 101.18,11.28 6.62,17.12 13.19,110.56 11.76,130.56 -48.53,-46.68 -43.6,72.4 -27.86,96.84l20.57 -0.96c14.29,-21.48 4.74,-12.05 12.05,-34.31 0,117.7 13.68,329.75 -8.77,434.58 -13.37,-8.75 -4.61,-15.46 -21.83,-18.25 -27.72,-4.51 -19.98,42.06 -25.19,60.04 -4.84,16.67 -11.99,15.29 0.86,29.25 23.47,21.72 35.18,-12.45 41.71,-29.23 21.32,184.47 -39.9,116.84 -38.1,157.14 1.57,34.98 34.39,-8.49 29.83,66.31l-16.64 80.51c-0.14,-0.21 -18.1,-48.5 -39.35,-18.74 -9.62,13.49 3.47,41.02 6.93,53.79l27 7.71c2.12,48.34 -19.9,144.78 -35.15,188.1 -79.51,225.95 -234.47,216.51 -332.98,-12.63 -69.33,-161.26 -43.67,-205.77 -61.37,-277.34 -10.29,-41.58 -4.06,-59.54 -8.66,-100.56 -21.13,-188.61 -10.98,-251.04 -10.75,-432.82l3.49 7.23c9.85,25.31 -4.86,-17.98 2.66,7.41 0.28,0.94 2.61,13.19 2.93,15.06zm247.28 335.44c-45.19,2.55 -29.77,3.21 -57.23,-15.82 -1.57,-27.39 4.25,-56.66 -4.82,-82.94 -24.45,-70.76 10.48,-50.4 -6.57,-171.2 -10.87,-77.02 13.06,-103.64 3.26,-163.61 -2.14,-13.1 -8.21,-22.74 -7.58,-34.5 0.66,-12.47 6.61,-20.23 7.42,-40.21 1.05,-26.19 -3.24,-67.96 0.68,-91.69 2.1,-12.71 8.76,-18.64 9.89,-32.92 1.11,-14.07 -6.77,-23.27 -9.26,-35.27 -5.71,-27.63 3.28,-48.75 -8.94,-79.69 -9.48,-24.03 -23.59,-39.25 -40.86,-51.38 -48.88,-34.32 -93.25,-28.27 -143.44,-1.73 -33.35,17.63 -24.81,23.34 -26.28,63.38 -1.28,35.34 -24.71,84.37 -10.82,163.9 3.68,21.08 18.58,52.78 12.94,69.25 -16.44,48.09 -13.69,105.91 -13.76,167.49 -0.2,199.37 -9.42,318.72 23.38,526.8 9.03,57.29 6.49,98.01 22.25,158.1 99.14,377.92 343.02,399.72 436.61,139.75 53.47,-148.53 33.89,-193.23 60.61,-304.75 6.14,-25.67 8.64,-47.83 3.2,-75.51 -8.37,-42.64 3.63,-34.32 10.35,-72.83 5.7,-32.69 3.75,-57.6 2.31,-90.02 -1.68,-38.12 3.3,-53.22 6.36,-84.72 11.36,-116.91 8.26,-403.34 -2.38,-530.99 -5.35,-64.06 -0.75,-106.15 -54.92,-128.98 -57.06,-24.04 -94.22,-14.27 -127.16,29.2 -16.09,21.23 -5.67,5.56 -25.63,18.32 -11.39,7.28 -12.93,13.24 -17.93,30.64 -22.05,76.82 7.92,123.57 -2.62,160.38 -16.43,57.39 7.65,143.1 0.97,167.65 -18.88,69.32 8.23,120.4 -2.43,164.89 -6.34,26.47 1.3,59.6 -5.82,86.63 -7.55,28.69 8.22,87.7 -31.78,142.38z"/>
   <path class="fil2" d="M2866.2 6168.46c17.85,-11.47 16.05,-5.67 25.68,-26.63 7.55,-16.44 8.35,-19.02 22.24,-25.09 22.78,25.67 16.59,35.01 2.07,69.5 -32.95,3.03 -36.85,7.47 -49.99,-17.78zm-251.39 -365.12c-1.78,-19.68 38.11,-307.36 47.12,-335.01 30.21,-92.72 58.82,-204.07 98.92,-284.45 25.23,-50.59 57.93,-120.98 119.66,-130.27 82.8,-12.48 127.5,80.3 126.31,124.96 -1.86,69.43 -19.9,154.19 -36.18,219.53 -45.45,182.35 -103.65,4.45 -186.44,196.15 -28.7,66.42 -18.08,29.14 -62.41,60.17 -7.2,56.81 4.92,57.53 27.56,67.02 0.42,21.53 5.95,44.61 -1.6,65.2 -6.72,18.36 -21.8,25.71 -15.04,47.9 16.61,54.56 17.14,-2.85 16.59,117.33 -32.29,18.05 -51.3,8.47 -29.85,81.55 7.64,26 26.69,14.82 40.69,7.22 11.84,23.12 15.76,56.36 29.8,84.77 11.44,23.11 12.67,16.21 25.93,31.28 9.92,11.27 9.04,20.1 17.72,35.07 25.09,43.35 92.72,47.06 115.59,11.85 28.74,-44.24 27.96,-92.81 -12.76,-118.93 -28.4,-18.23 -48.32,-11.84 -52.73,-57.38 -6.63,-68.4 -19.54,-130.37 -20.43,-201.96 -1.04,-83.87 7.43,-128.32 94.68,-133.33 34.2,-1.97 73.38,5.71 97.51,18.56 30.06,16.01 36.25,28.14 40,70.46 11.29,127.55 8.17,296.54 -1.87,426.31 -10.76,139.12 -8.71,230.05 -76.28,372.25 -28.23,59.41 -41.09,101.99 -125.38,100.08 -51.75,-1.18 -100.92,-65.69 -124.34,-96.34 -111.93,-146.53 -80.59,-151.57 -95.31,-186.46 -5.91,-14.03 -13.06,-18.03 -18.2,-39.2 -7.24,-29.79 -12.19,-61.47 -18.51,-90.46 -6.95,-31.89 -12.78,-63.79 -19.94,-95.21 -8.56,-37.53 -2.59,-68.16 -8.55,-101.09 -12.49,-68.91 -1.38,-139.45 0.2,-211.38 6.77,18.74 -3.88,36.57 17.3,41.61 21.55,5.13 24.28,-9.87 24.92,-27.18 2.04,-55.83 2.77,-47.97 -34.68,-70.62zm259.21 294.73l-43.28 22.51c-28.19,-54.26 -27.56,-88.21 -40.58,-148.52 -5.17,-23.96 -1.25,-63.53 -1.6,-89.73 -0.56,-43.38 -24.75,-44.93 -11.26,-70.3 25.79,-48.5 -0.65,-89.34 25.45,-164.16 59.58,-170.77 114.87,-99.05 151.33,-130.15 57.32,-48.86 103.46,-321.29 86.58,-377.38 -12.72,-42.31 -54.71,-96.9 -79.66,-114.25 -16.07,-11.18 -59.46,-13.04 -82.12,-10.86 -109.28,10.47 -171.43,183.95 -201.7,273.76 -64.62,191.73 -68.58,262.6 -97.35,470.17 -8.26,59.55 -11.69,114.77 -14.08,176.11 -1.27,32.61 -3.81,60.3 -4.32,92.59 -0.52,32.77 10.44,49.02 9.25,87.81 -1.44,46.55 19.17,116.4 28.13,161.87l26.04 114.45c8.84,17.54 11.43,11.8 14.41,32.43 10.89,75.06 95.06,184.92 143.99,235.55 79.92,82.7 188.23,80.86 244.92,-16.72 32.09,-55.21 89.74,-213.86 96.31,-285.88 2.73,-30.05 -1.11,-61.26 1.97,-91.96 13.06,-130.86 16.4,-329.07 9.38,-457.59 -3.97,-72.72 -11.08,-103.39 -63.84,-131.49 -61.19,-32.6 -226.85,-53 -244.74,88.39 -10.7,84.64 9.43,181.93 18.28,265.25 8.63,81.43 20.7,33.11 28.49,68.1z"/>
   <path class="fil3" d="M2294.95 5723.96c22.74,34.31 35.92,53.93 39.26,109.99 1.48,24.71 3.53,121.87 -9.45,136.74 -41.23,47.28 -63.4,8.71 -108.04,27.74 -13.83,5.9 -81,96.38 8.97,146.01 34.6,19.08 121.01,-41.61 179.27,-12.69 30.32,15.05 30.38,74.99 32,116.06 6.21,156.53 32.88,275.17 -100.31,323.9 -50.34,18.42 -216.97,34.23 -250.67,-1.95 -36.09,-38.77 -19.84,-197.83 -26.06,-264.07 -11.41,-121.7 3.74,-155.38 -15.92,-274.22l-10.1 -285.41c-6.43,-149.95 -14.19,-103.8 -6.51,-280.81 3.9,-89.98 -5.29,-187 36.38,-257.04 53.02,-89.12 131.45,-71.6 197.6,-92.88 38.38,-12.35 98.74,-15.5 120.25,15.14 43.57,62.08 46.16,306.21 6.52,380.01 -72.65,135.24 -126.48,0.81 -190.86,64.39 -20.1,19.85 -34.93,80.7 -13.94,114.64 18.18,29.39 65.14,37.46 111.61,34.45zm-64.71 310.56c54.42,-10.4 54.9,24.14 124.61,-38.15 21.67,-19.36 17,-28.63 16.87,-65.4 -0.3,-81.52 11.72,-145.94 -35.32,-214.16 -13.76,-19.97 -19,-30.89 -51.13,-30.99 -28.61,-0.1 -50.98,-1.37 -69.37,-15.13 -12.6,-45.5 2.49,-88.42 52.09,-70.16 46.63,17.15 57.14,21.24 100.19,-8.62 48.87,-33.89 80.89,-100.56 82.48,-184.37 1.54,-80.76 6.26,-179.28 -15.57,-251.07 -22.85,-75.07 -80.55,-107.72 -173.72,-80.7 -81.73,23.7 -144.85,17.61 -198.76,69.86 -51.83,50.22 -67.22,127.38 -69.46,200.23 -2.61,84.99 -8.44,174.33 -8.01,259.71 0.31,60.17 13.67,166.52 14.77,255.17 0.5,40.87 0.93,85.56 3.13,127.37 2.56,48.48 11.66,78.53 13.7,123.01 2.01,44.04 -2.18,88.03 -1.35,132.2 0.81,42.94 8.84,82.12 9.71,127.48 1.53,79.49 -12.69,188.46 38.14,230.6 48.5,40.21 319.33,61.09 396.27,-82.56 33.11,-61.81 22.13,-301.87 4.81,-366.63 -23.02,-86.09 -123.45,-70.2 -188.36,-50.58 -57.89,17.5 -66.88,-17.69 -45.72,-67.11z"/>
   <path class="fil3" d="M5806.12 5280.44c19.98,-61.96 55.84,-130.12 126.11,-137.28 54.1,-5.52 60.93,18.55 87.27,44.9 30.27,30.28 37.27,27.24 52.6,78.61 -14.45,17.67 -26.3,27.69 -22.05,63.04 29.95,13.67 28.07,3.47 40.38,-23.7 18.78,9.05 31.89,27.73 25.19,56.42 -5.79,24.8 -32.24,18.23 -27.53,53.08 15.2,18.48 24.34,13.83 54.42,12.82 5.18,33.63 19.22,79.48 28.81,113.85 20.69,74.16 39.79,324.13 32.45,387.41 -9.9,85.42 -7.31,178.08 -24.69,257.47 -16.67,76.22 -36.16,150.51 -57.83,222.4 -18.16,60.28 -67.03,152.91 -103.73,178.77 -20.23,14.26 -107.49,11.41 -124.94,-2.04 -119.33,-91.99 -199.17,-376.18 -194.13,-506.66 43.93,34.82 47.13,-22.14 38.9,-60.22 -4.13,-19.16 -25.36,-21.94 -34.74,-6.06 -6.04,10.22 -3.25,41.41 -4.01,54.82 -12.88,-28.87 -4.8,-118.13 -3.58,-155.82 32.53,-2.24 48.18,-14.39 40.99,-62.43 -21.46,-8.15 -24.37,-3.96 -38.01,7.24l1.03 -81.49c14.03,5.24 16,9.47 33.05,3.82 16.28,-35.45 -0.3,-44.42 -12.62,-62.29 -15.67,-22.73 -2.39,-46.29 -1.26,-72.11 0.46,-10.38 0.43,-29.04 5.44,-37.15 6.91,-11.21 57.51,-24.98 38.3,-68.38 -16.28,-3.55 -20.71,0.36 -32.9,6.07 0.41,-22.11 6.55,-35.08 9.23,-58.96 2.23,-19.99 10.5,-34.61 18.91,-47.25 2.74,10.02 4.96,24.89 8.66,34.54l25.24 -1.23c29.47,-51.89 -20.52,-73.43 -22.31,-82.79 0.13,-25.91 8.78,-49.04 22.51,-67.38l8.82 19.28c5.38,11.14 -3.97,6.52 10.56,12.22 15.23,5.96 24.36,-4.37 25.9,-16.98 4.23,-34.48 -18.66,-43.35 -30.44,-56.54zm105.03 -172.89c-72.83,16.84 -101.84,62.04 -132.5,133.58 -13.01,30.35 -25.82,63.44 -38.08,93.89 -24.92,61.9 7.68,35.91 -30.36,105.69 -25.87,47.44 -18.62,168.74 -36.47,228.11 -9.2,30.57 1.95,27.44 1.11,50.74 -0.33,9.15 -11.37,35.31 -14.01,49.86 -8.48,46.82 2.52,89.95 -3.52,132.37 -10.67,74.95 -1.7,181.76 5.8,254.25 8.04,77.78 31.03,144.13 52.51,215.4 16.47,54.61 54.5,137.94 86.27,177.91 15.47,19.47 46.72,48.07 65.53,66.38 23.81,23.19 75.78,22.83 117.61,19.74 61.35,-4.53 58.71,-12.56 86.26,-46.48 22.78,-28.05 32.74,-46.11 51.55,-80.12 45.89,-82.99 105.78,-324.78 109.22,-424.09 3.49,-101.05 14.93,-149.75 8.27,-251.01l-16.41 -248.58c-3.65,-18.51 -51.78,-203.55 -56.79,-210.67 -9.56,-13.59 -7.28,3.56 -10.72,-20 -1.74,-11.91 1.37,-20.09 -2.02,-33.29 -7.11,-27.71 -35.03,-33.42 -49.84,-81.84 -15.08,-49.33 -35.87,-55.44 -88.69,-109.32 -28.65,-29.23 -52.02,-34.7 -104.72,-22.52z"/>
   <path class="fil3" d="M5932.67 5622.2c36.38,-15.51 39.4,6.49 54.68,24.69 20.66,24.63 20.66,17.54 26.28,56.71 27.61,192.44 31.02,106.42 4.64,301.15 -8.21,60.56 -5.61,94.82 -56.28,114.76 -79.19,31.16 -107.8,-157.07 -104.11,-228.19 1.36,-26.29 6.68,-52.03 9.36,-77.2 6.23,-58.73 3.25,-165.42 65.43,-191.92zm-1.71 -40.91c-55.49,15.64 -71.66,49.6 -89.76,117.79 -9.52,35.85 -8.45,57.59 -10.68,95.65 -1.95,33.38 -9.4,62.13 -10.92,96.57 -4.39,99.22 34.27,300.86 150.28,266.65 68.99,-20.36 77.31,-77.7 83.24,-124.36 5.26,-41.49 25.76,-149.02 21.24,-184.32 -6.94,-54.14 -16.31,-125.73 -26.64,-178.24 -4.73,-24.01 -28.55,-47.25 -43.74,-62.78 -22.89,-23.39 -20.46,-41.77 -73.02,-26.96z"/>
   <path class="fil1" d="M3482.34 5600.99c0,-58.25 -3.3,-138.53 43.29,-159 73.36,56.26 44.45,221.11 20.01,258.2 -31.11,47.21 -63.3,-24.27 -63.3,-72.81l0 -26.39zm-38 -30.79c0,76.06 -7.28,95.74 31.35,155.5 8.56,13.24 12.85,24.45 28.81,27.3 16.96,3.03 43.12,2.12 52.83,-5.96 52.98,-44.15 71.53,-211.72 31.22,-288.18 -10.58,-20.08 -40,-58.57 -63.39,-60.03 -21.83,-1.36 -54.43,40.5 -63.4,58.99 -17.17,35.38 -17.42,69.64 -17.42,112.38z"/>
   <path class="fil0" d="M1015.31 5770.97c13.35,26.26 -2.06,49.92 39.45,38.38 9.06,-24.08 2.54,-51.67 -12.82,-69.39 -18.47,-21.3 -14.39,-42.2 -46.24,-29.34 -12.09,31.5 10.49,42.46 19.61,60.35z"/>
   <path class="fil0" d="M3951.45 5895.72l0 52.79 1.91 24.93c20.32,13.18 36.09,11.87 36.09,-20.53l0 -57.19c0,-44.28 -38,-42.4 -38,0z"/>
   <path class="fil0" d="M3951.45 5746.15l0 48.39c0,39.84 38,39.97 38,0 0,-25.43 2.78,-56.7 -4.38,-76.29 -25.49,-5.02 -33.62,-0.38 -33.62,27.9z"/>
   <path class="fil2" d="M2978.08 6111.27c0,25.76 -2.29,52.41 4.57,76.61l29.07 0.1c7.03,-23.57 4.38,-48.7 4.38,-76.71 0,-42.27 -38.02,-35.69 -38.02,0z"/>
   <path class="fil0" d="M4060.47 5293.07c0,22.97 -2.81,49.42 6.95,69.61l24.83 1.22c9.51,-20.33 6.22,-47.95 6.22,-75.24 0,-42.33 -38,-40.97 -38,4.41z"/>
   <path class="fil2" d="M2668.6 6190.45c0,-87.48 -57.46,-83.65 -43.51,-33.05 3.39,12.28 4.53,48.97 10.47,56.53 13.63,17.32 33.04,3.43 33.04,-23.48z"/>
   <path class="fil0" d="M777.81 6236.92c-27.59,-9.17 -34.54,-2.95 -34.99,27.94 -0.23,15.83 -4.4,48.58 6.12,58.94 37.03,36.47 36.23,-56.59 28.87,-86.88z"/>
   <path class="fil0" d="M4359.31 5345.85c0,24.82 -2.81,48.51 4.87,67l28.36 0.59c26.51,-101.54 -33.23,-122.5 -33.23,-67.59z"/>
   <path class="fil0" d="M1173.3 6177.88c6.15,-16.56 6.03,-41.63 5.46,-62.59 -0.92,-34.25 -43.93,-72.25 -38.7,35.98 1.31,27.17 9.83,31.45 33.24,26.61z"/>
   <path class="fil0" d="M1145.62 5759.51c-7.86,18.3 -7.25,69.35 -1.71,89.01 36.62,11.5 34.69,-12.46 34.69,-45.17 -0.01,-33 3.41,-56.41 -32.98,-43.84z"/>
   <path class="fil0" d="M4359.31 5526.21c0,23.69 -2.86,48.17 6.35,65.76 38.01,5.91 31.66,-10.31 31.66,-65.76 0,-39.27 -38.01,-40.91 -38.01,0z"/>
   <path class="fil0" d="M1172.9 5916.98c-23.84,-5.53 -31.92,-0.12 -32.88,26.66 -3.8,105.52 37.76,70.94 38.74,36.06 0.62,-21.84 1.25,-46.81 -5.86,-62.72z"/>
   <path class="fil0" d="M4359.31 6181.65l0 39.59c0,31.31 16.52,33.89 35.64,20.41l2.86 -24.76 -0.49 -35.24c0,-37.49 -38.01,-43.54 -38.01,0z"/>
   <path class="fil0" d="M3951.43 6071.68l0 35.19c0,43.71 38.05,47.49 38.05,4.4l0 -39.59c0,-39.56 -38.05,-39.08 -38.05,0z"/>
   <path class="fil0" d="M1175.44 5666.46c24.5,-105.33 -55.12,-112.06 -32.77,-0.75 13.6,8.45 18.91,9.15 32.77,0.75z"/>
   <path class="fil0" d="M4393.45 5660.8c-52.72,-21.01 -34.62,68.83 -27.72,76.96 10.64,12.54 27.99,5.67 31.24,-13.61 3.44,-20.36 1.03,-45.95 -3.52,-63.35z"/>
   <path class="fil0" d="M5173.03 5781.35c0,21.28 -2.02,31.95 6.51,48.14l26.17 0.95c10.75,-25.02 6.14,-54.65 2.55,-81.46 -29.84,-8.95 -35.23,1.34 -35.23,32.37z"/>
   <path class="fil3" d="M6147.34 5693.37l0 30.79c0,35.39 14.11,30.63 36.32,23l2.09 -22.97 -0.35 -30.82c0,-36.19 -38.06,-39.7 -38.06,0z"/>
   <path class="fil0" d="M4359.31 5856.13c0,29.49 -5.22,75.64 35.68,46.87 4.58,-33.24 3.02,-40.73 -0.76,-74.17 -25.91,-6.56 -34.92,-2.78 -34.92,27.3z"/>
   <path class="fil0" d="M4359.31 6348.81l0 30.79c0,43.2 38.01,37.33 38.01,0l0 -26.39c0,-47.26 -38.01,-38.44 -38.01,-4.4z"/>
   <path class="fil2 str0" d="M6588.78 5480.81c-23.62,-5.35 -32.36,-6.27 -33.86,22.99 -0.88,17.03 -3.78,46.87 7.61,56.64 36.36,31.15 30.59,-62.47 26.25,-79.63z"/>
   <path class="fil0" d="M5173.03 5948.51c0,21.92 -2.96,40.03 16.45,42.72 26.59,3.68 22.52,-28.32 22.52,-47.12 0,-42.92 -38.97,-41.61 -38.97,4.4z"/>
   <path class="fil0" d="M5173.03 5622.99l0 8.79c0,42.53 38.97,44.29 38.97,4.4l0 -17.59c0,-45.86 -38.97,-45.87 -38.97,4.4z"/>
   <path class="fil0" d="M5173.03 6106.87l5.23 40.02 28.88 2.34c25.66,-80.31 -34.11,-104.62 -34.11,-42.36z"/>
   <path class="fil0" d="M1144.97 6255.78c-6.73,20.61 -7.48,50.5 0.61,71.23l26.66 0.1c8.95,-17.12 8.75,-53.12 1.52,-73.39l-28.79 2.06z"/>
   <path class="fil1" d="M4602.09 5382.48c13.02,3.22 16.07,3.24 28.41,-0.66 6.94,-17.24 6.97,-41.57 1.01,-59.62 -44.18,-13.27 -38.99,34.58 -29.42,60.28z"/>
   <path class="fil2" d="M2702.37 5439.27c55.37,21.59 33.73,-50.19 33.11,-51.37 -3.11,-5.94 -43.23,-39.31 -33.11,51.37z"/>
   <path class="fil2" d="M2851.5 6554.36c10.82,-23.2 8.07,-70.32 -23.56,-51 -7.89,4.82 -26.27,64.46 23.56,51z"/>
   <path class="fil2 str0" d="M6648.37 5918.37c16,4.35 37.85,3.44 33.44,-22.65l-3.79 -28.2c-40.44,-9.55 -40.1,19.72 -29.65,50.85z"/>
   <path class="fil4 str2" d="M5435.08 4734.4l7.6 0c175.81,1.12 206.22,163.76 210.1,313.74 0.46,17.76 1.3,50.19 -0.6,72.73 -3.64,42.96 -6.07,83.87 -6.07,128.21l13.29 -26.29c3.31,-8.55 5.75,-16.06 9.36,-25.84 6.04,-16.38 13.47,-33.51 21.32,-49.06 15.98,-31.64 32.15,-62.05 56.13,-89.04 8.4,-9.45 28.04,-29.71 38.12,-36.67 11.5,-7.93 31.83,-20.09 44.3,-26.08 42.45,-20.41 68.4,-19.82 116.77,-19.83 46.09,-0.02 74.93,6.86 106.16,30.15 28.96,21.59 47.42,46.65 72.97,72.2 30.39,30.38 43.34,39.17 60.85,84.32 17.03,43.9 47.76,60.72 50.24,90.54 17.26,-12.65 12.01,-32.47 14.14,-60.48 1.18,-15.33 1.77,-25.92 6.67,-50.56 14.69,-73.94 27.94,-62.27 43.47,-101.82l22.24 -60.65c10.84,-23.42 44.36,-51.24 60.51,-72.15 31.55,-40.85 74.08,-76.14 119.93,-100.02l52.47 -22.33c34.96,-11.6 121.77,-25.49 159.84,-15.17l31.09 8.04c31.25,7.26 50.7,24.57 75.36,30.52 21.34,5.15 30.17,6.54 47.87,17.8 18.96,12.08 26.02,15.83 38.12,36.7 26.48,45.63 53.54,40.82 75.09,109.67 5.98,19.13 21.2,28.6 27.6,47.18 10.51,30.54 22.96,127.35 20.04,156.61 -5.14,51.54 4.55,83.14 -3.25,137.56 -4.42,30.87 -11.79,66.55 -23.44,95.29 -25.3,62.35 -67.1,160.53 -147.45,160.53l33.71 49.87c14.43,25.29 40.74,42.15 49.03,71.04l19.76 58.13c23.16,43.02 34.2,90.63 46.15,138.15l5.25 78.54c-4.57,50.62 4.67,83.37 -0.21,136.37 -4.3,46.61 -5.84,13.06 -0.28,62.27 5.69,50.35 -3.97,95.09 -8.98,143.9 -7.26,70.73 -31.14,151.94 -66.67,210.47 -6.72,11.05 -10.52,12.82 -11.77,27.82 99.29,0 191.96,22.89 264.78,87.17 76.17,67.24 118.25,143.06 133.81,244.39 0.67,4.34 1.24,8.67 1.75,12.99l0 80.51c-5.93,50.22 -22.85,97.91 -48.54,142.26 -28.14,48.61 -58.89,82.76 -103.46,116.5 -15.56,11.78 -29.41,19.67 -45.66,29.12 -45.37,26.4 -94.2,38.55 -145.8,43.68l-241.65 0 -96.58 0c-2026.69,-0.11 -4053.4,-3.61 -6080.09,0l-18.14 0c-21.29,-0.09 -38.67,-0.66 -50.16,-3.39 -59.89,-14.25 -127.3,-34.23 -172.66,-76.78l-34.78 -31.21c-0.85,-0.95 -2.95,-4.04 -3.73,-5.07 -32.92,-43.43 -47.39,-53.77 -72.36,-107.99 -3.67,-7.94 -9.97,-21.27 -12.18,-27.42 -3.45,-9.63 -4.9,-17.16 -7.27,-27.93 -6.61,-29.94 -10.43,-58.03 -11.45,-85.09l0 -29.06c1.7,-44.53 11.33,-87.01 28.93,-131.4 5.19,-13.1 5.27,-16.74 11.47,-28.12 4.12,-7.59 8.56,-14.69 13.23,-21.97l61.19 -75.17c0.62,-0.66 1.52,-1.61 2.16,-2.25 44.51,-45.02 127.3,-94.97 190.97,-94.97 -1.56,-18.77 -10.75,-38.55 -15.08,-59.71 -11.44,-55.9 -8.98,-121.4 -4.1,-177.07l0.54 -8.91c0.05,-0.93 0.15,-2.18 0.18,-3.15 1.66,-40.01 -11.05,-94.91 -12.43,-133.72l5.78 -138.75c3.74,-38.78 -1.43,-49.59 -1.29,-98.92 0.17,-64.32 -2.94,-77.59 -7.96,-133.28 -8.15,-90.26 -0.83,-134.2 -0.83,-249.45 0,-133.57 -14.04,-176.32 -17.53,-263.6 -5.13,-128.67 -8.71,-213.48 56.38,-295.8 22.16,-28.03 51.18,-50.57 82.71,-66.86 20.58,-10.65 31.21,-12.9 57.69,-16.96 79.67,-12.24 163.4,40.03 203.49,49.37 27.16,-40.55 62.33,-74.19 106.97,-95.39 80.7,-38.34 189.93,-58.97 264,1.58 50.03,40.9 90.96,88.73 90.96,159.79 19.84,-10.5 55.38,-25.2 79.39,-30.59 66.67,-14.94 141.02,4.91 191.28,50.28l13.26 13.13c8.56,8.54 12.2,11.39 15.22,24.37 20.52,-1.71 26.69,-15.54 38.49,-27.49 60.88,-61.65 162.24,-68.92 237.26,-28.28 29.4,15.93 51.92,37.9 67.4,60.17l8.8 8.79c5.26,-22.54 53.63,-67.69 73.81,-80.15 32.45,-20.03 61.36,-35.46 105.38,-44.2 17.46,-3.46 46.43,-8.75 58.12,-10.26 30.14,-3.92 108.7,-37.92 191.22,-16.74 81.37,20.88 120.71,78.31 147.21,151.93 3.85,10.72 6.15,21.89 8.26,31.45 2.59,11.69 5.23,18.43 6.54,26.13l4.84 124.41c-0.03,12.36 -2.26,39.76 2.93,50.58 0.59,-0.93 1.17,-2.29 1.45,-2.95l43.79 -147.37c8.22,-26.92 44.99,-98.11 64.5,-131.74 4.76,-8.21 0.78,-0.21 5.4,-9.51 6.52,-13.15 -3.64,6.09 2.78,-6.42 3.16,-6.14 5.72,-9.05 9.44,-14.26 9.22,-12.96 14.66,-24.12 24.07,-37.81 40.76,-59.33 122.28,-94.89 196.24,-94.41 33.78,0.21 59.05,3.5 89.6,15.83 82.21,33.22 45.9,26.59 93.74,82.43 47.61,55.57 64.63,140.04 60.17,191.51 -3.31,38.18 -8.6,69.63 -14.55,102.51 -4.59,25.38 -8.15,54.62 -16.11,89.18 -22.64,98.24 -31.64,97.03 -67.8,165.36 117.63,27.4 148.41,95.95 162.78,105.57l30.72 -206.94c4.12,-75.63 23.04,-128.05 35.31,-202.11 5.84,-35.18 29.7,-180.8 47.9,-214.04l24.89 -34.3c4.78,-6.06 10.66,-11.37 15.08,-15.72l33.43 -28.15c7.92,-6.22 9.26,-8.79 16.42,-14.38 14.55,-11.37 11.28,-1.88 13.39,-8.61 0.42,-1.32 1.94,-0.96 2.82,-1.57 73.1,-38.67 146.35,-48.28 223.01,-7.43 28.3,15.08 33.1,28.53 54.15,42.62 8.48,12.67 13.31,14.75 22.4,30.39l41.21 108.37c13.38,33.58 24.38,127.65 24.38,173.57l4.4 0c0,-106.67 33.68,-181.1 114.99,-241.33 20.15,-14.94 32.18,-19.94 58.36,-29.93l21.54 -8.27c1.08,-0.24 4.27,-0.67 5.49,-0.87 27.96,-4.82 49.73,-9.21 79.69,-3.72 12.98,2.38 31.19,3.14 39.29,8.94l36.98 28.84c16.07,-60.16 151.74,-159.24 272.76,-101.18l5.61 3.2c0.7,0.42 1.97,1.17 2.74,1.65l15.1 11.3c31.84,25.42 45.98,47.69 55.74,54.23 3.71,-13.89 22.06,-36.81 31.83,-47.35 43.42,-46.8 85.85,-67.11 149.7,-79.06 110.24,-20.64 142.53,5.46 205.61,78.02 6.32,-23.65 36.59,-53.28 53.83,-69.34 32.16,-29.94 58.09,-36.79 99.92,-49.2l138.74 -37.68c2.29,-0.64 8,-2.14 10.33,-2.87l9.54 -3.66c88.62,-7.38 32.85,-33.76 237.7,-35.2zm791.73 1724.39l13.21 87.97 -48.4 0c1.57,-18.84 1.21,-8.4 7.77,-23.02 4.28,-9.57 5.59,-12.7 10.05,-20.75 8.67,-15.6 12.61,-23.73 17.37,-44.2zm-4311.34 -123.18l4.68 162.49c1.25,17.47 7.1,31.57 8.52,48.66l-101.18 0 87.98 -211.15zm-593.9 123.18l52.79 87.97 -70.4 0c3.3,-14.11 10.07,-24.95 12.21,-40.59 2.92,-21.45 -2.68,-30.55 5.4,-47.38zm-400.35 13.19c6.07,9.56 3.47,39.77 22,74.78l-48.39 0c3.87,-16.58 9.22,-19.17 14.45,-33.93 5.81,-16.39 4.47,-25.27 11.94,-40.85zm1667.36 74.78l-52.8 0c4.9,-21.06 15.45,-26.98 17.59,-52.78 10.14,7.42 12.52,14.82 18.59,27.4 0.45,0.92 1.49,3.3 1.95,4.17 0.24,0.45 0.83,1.55 1.09,2l13.58 19.21zm-1667.36 -74.78c-4.46,-5.9 -4.4,9.25 -4.4,-13.19 4.07,5.37 2.86,-4.95 4.4,13.19zm400.35 -13.19l0 0zm2229.82 -175.96c0,-41.18 11.18,-102.49 -11.6,-133.01 -11.15,-14.92 -30.62,-20.29 -43.72,-2.47 -9.48,12.89 -9.5,39.08 -12.44,58.15 -19.29,124.93 -9.61,168.12 -21.81,269.41 -28.68,238.05 -197.46,129.06 -257.21,31.98 -11.9,-19.34 -6.82,-27.75 -2.92,-54.89l138.02 -1019.32c18.88,-78.91 33.74,-160.47 49.01,-241.22 6.76,-35.82 12.69,-90.14 31.52,-113.75 13.89,-17.42 58.43,-54.87 81.72,-63.62 17.46,-6.57 52.08,-4.63 72.43,-3.63 33.05,1.62 75.77,59.34 78.22,67.9 6.06,21.21 4.35,34.39 14.31,55.69 44,94.11 87.32,653.39 97.99,772.33 8.59,95.68 45.47,465.06 45.47,530.41 0,92.99 -71.35,150.43 -152.77,150.43 -65.48,0 -70.9,-50.56 -83.31,-124.65 -8.12,-48.42 -22.91,-129.74 -22.91,-179.74zm2781.01 -325.52l0 0zm0 0c-8.04,-19.47 4.4,-40.88 4.4,-79.18l8.8 0c7.16,26.82 34.57,38.73 43.99,52.78 -26.7,2.22 -37.19,15.81 -57.19,26.4zm-421.25 -849.76c52.7,-12.18 76.07,-6.71 104.72,22.52 52.82,53.88 73.61,59.99 88.69,109.32 14.81,48.42 42.73,54.13 49.84,81.84 3.39,13.2 0.28,21.38 2.02,33.29 3.44,23.56 1.16,6.41 10.72,20 5.01,7.12 53.14,192.16 56.79,210.67l16.41 248.58c6.66,101.26 -4.78,149.96 -8.27,251.01 -3.44,99.31 -63.33,341.1 -109.22,424.09 -18.81,34.01 -28.77,52.07 -51.55,80.12 -27.55,33.92 -24.91,41.95 -86.26,46.48 -41.83,3.09 -93.8,3.45 -117.61,-19.74 -18.81,-18.31 -50.06,-46.91 -65.53,-66.38 -31.77,-39.97 -69.8,-123.3 -86.27,-177.91 -21.48,-71.27 -44.47,-137.62 -52.51,-215.4 -7.5,-72.49 -16.47,-179.3 -5.8,-254.25 6.04,-42.42 -4.96,-85.55 3.52,-132.37 2.64,-14.55 13.68,-40.71 14.01,-49.86 0.84,-23.3 -10.31,-20.17 -1.11,-50.74 17.85,-59.37 10.6,-180.67 36.47,-228.11 38.04,-69.78 5.44,-43.79 30.36,-105.69 12.26,-30.45 25.07,-63.54 38.08,-93.89 30.66,-71.54 59.67,-116.74 132.5,-133.58zm-968.94 493.44c29.81,14.3 43.17,13.2 74.8,13.2l-1.94 73.37c-7.16,69.52 -4.39,413.8 2.55,480.28 13.02,124.68 3.78,43.99 3.78,123.79l4 70.49c2.66,40.82 13.93,125.9 29.76,163.39l14.63 21.25 -167.17 0c3.89,-14.58 5.15,-7.48 10.53,-20.95l9.72 -29.07c7.02,-23.1 5.92,-48.33 9.16,-70.13 3.96,-26.57 7.74,-47.71 9.19,-61.66l9.79 -64.53c0,-54.11 2.34,-115.57 -2.19,-168.21l-1.74 -136.3c-13.74,-79.56 -0.46,-54.39 -0.46,-113.38l-4.15 -70.27c-2.61,-43.22 0.72,-32.52 5.25,-58.5 0.65,-3.74 0.57,-5.3 0.51,-14.16 -0.34,-48.71 -5.54,-67.4 -8.74,-108.56 -1.18,-15.19 2.72,-12.67 2.72,-30.05zm-2450.42 -35.19c0,55.73 -26.4,169.9 -26.4,211.15l-4.4 0c0,-31.74 -7.56,-51.3 -15.91,-76.46 -5.06,-15.23 -6.7,-21.8 -13.59,-35.16l-14.49 -24.74c28.81,-7.7 59.78,-63.79 74.79,-74.79zm0 0l0 0zm3070.73 87.98c0,51.11 9.47,2.14 -5.98,59.89 -11.95,44.7 -6.88,155.54 -7.12,208.67 -0.12,28.89 -2.4,35.46 -2.31,49.3l-0.06 54.64c0.26,10.12 1.19,8.04 1.97,23.29 1.5,29.18 3.3,44.1 5.1,70.38 4.96,72.36 54.19,252.66 88.37,333.65l42.74 80.44c4.26,5.77 5.35,6.88 9.27,12.72l-281.56 0c30.41,-45.41 37.2,-35.22 60.18,-111.66 14.11,-46.94 14.61,-372.4 14.61,-425.01 0,-26.99 -1.25,-55.01 1.29,-81.41 6.26,-65.16 -0.59,-71.15 -5.47,-129.97 -2.48,-29.96 2.1,-60.03 2.05,-69.12l2.21 -84.51c1.36,-15.9 4.71,-18.35 10.32,-33.7 4.75,-12.96 8,-19.59 11.88,-30.81 8.45,-24.41 18.08,-11.41 44.8,-35.67 11.79,-10.7 9.02,-14.34 25.31,-18.69 0,34 -7.2,13.52 -8.68,61.41l-8.92 66.16zm-3332.28 380.74c-21.16,49.42 -12.17,84.61 45.72,67.11 64.91,-19.62 165.34,-35.51 188.36,50.58 17.32,64.76 28.3,304.82 -4.81,366.63 -76.94,143.65 -347.77,122.77 -396.27,82.56 -50.83,-42.14 -36.61,-151.11 -38.14,-230.6 -0.87,-45.36 -8.9,-84.54 -9.71,-127.48 -0.83,-44.17 3.36,-88.16 1.35,-132.2 -2.04,-44.48 -11.14,-74.53 -13.7,-123.01 -2.2,-41.81 -2.63,-86.5 -3.13,-127.37 -1.1,-88.65 -14.46,-195 -14.77,-255.17 -0.43,-85.38 5.4,-174.72 8.01,-259.71 2.24,-72.85 17.63,-150.01 69.46,-200.23 53.91,-52.25 117.03,-46.16 198.76,-69.86 93.17,-27.02 150.87,5.63 173.72,80.7 21.83,71.79 17.11,170.31 15.57,251.07 -1.59,83.81 -33.61,150.48 -82.48,184.37 -43.05,29.86 -53.56,25.77 -100.19,8.62 -49.6,-18.26 -64.69,24.66 -52.09,70.16 18.39,13.76 40.76,15.03 69.37,15.13 32.13,0.1 37.37,11.02 51.13,30.99 47.04,68.22 35.02,132.64 35.32,214.16 0.13,36.77 4.8,46.04 -16.87,65.4 -69.71,62.29 -70.19,27.75 -124.61,38.15zm2487.22 -1051.14c63,-8.7 59.48,-2.68 89.23,31.77 32.6,37.74 26.71,41.57 25.65,97.7 -0.72,37.53 12.22,70.28 12.77,114.15 0.23,18.78 -1.94,44.26 -0.43,61.7 1.72,19.86 8.11,28.52 9.03,52.55 1.71,44.41 -4.88,82.83 -5.33,123.38 -0.41,36.64 8.97,77.76 7.04,118.81 -2.46,52.14 -11.72,58.42 -4.1,112.09 6.58,46.32 8.87,72.02 -5.75,112.65 -8.41,23.4 5.26,25.16 7.99,48.22 3.35,28.25 1,90.39 -5.06,117.21 -4.28,18.91 4.31,25.23 5.37,49.5 4.23,97.51 12.68,270.46 -2.6,366.29 -2.94,18.49 -8.02,34.82 -9.43,52.15 -3.32,40.52 11.44,68.69 -58,127.35 -21.63,18.28 -27.43,3.46 -49.56,12.33 -10.03,4.02 -20.62,18.01 -39.11,22.89 -35.41,9.35 -84.15,-17.3 -93.46,-33.9 -0.05,-0.07 -17.51,-90.45 -20.55,-102.44 -11.07,-43.58 -11.36,-65.53 4.32,-106.38 15.46,-40.27 -10.1,-43.96 -10.2,-96.06 -0.09,-41.48 1.89,-85.4 2.07,-127.69 0.1,-23.84 1.5,-34.9 -5.03,-56.71 -10.45,-34.9 -3.72,-25.28 0.59,-54.19 2.31,-15.48 -9.43,-89.8 -10.01,-117.8l3.87 -246.38c1,-35.81 -10.34,-82.07 -3.51,-111.01 2.51,-10.57 -31.62,-284.07 15.92,-458.61 19.8,-72.72 58.65,-98.58 138.28,-109.57zm-507.27 584.36c8.35,-35.52 10.16,-38.71 9,-81.15 -1.08,-39.49 11.36,-44.87 3.77,-76.88 -7.7,-32.46 -2.88,-141.37 -2.88,-182.63 0,-64.76 -2.77,-109.06 30.29,-155.04 25.1,-34.88 99.13,-61.03 125.95,-44.68 52.8,32.21 58.36,47.97 60.03,125.09 0.7,32.16 6.87,53.11 9.82,83.26 2.84,28.97 -1.22,62.4 -1.17,92.55 0.1,66 12.66,110.26 11.02,175.95 -2.5,99.31 -7.13,274.92 0.34,368.99 2.17,27.26 9.07,53.31 10.7,79.65 1.75,28.55 2.3,61.5 3.19,88.26 3.34,100.61 -14.14,124.91 -15.35,166.71 -3.12,107.85 46.95,394.27 -179.98,363.68 -35.64,-4.81 -34.55,-17.99 -50.97,-41.27 -26.38,-37.43 -17.09,-18.62 -24.93,-66.68 -3.07,-18.82 -21.61,-37.06 -26.94,-66.81 -7.63,-42.67 12.2,-46.83 -27.03,-66.48 -15.79,62.61 2.19,121.3 -7.92,167.38 -9.13,41.56 -46.47,81.67 -80.74,95.93 -59.24,24.65 -104.11,-1.31 -124.09,-39.84 -31.87,-61.46 -17.12,-212.64 -28.16,-319.25 -12.9,-124.66 -7.29,-384.71 -3.96,-510.32 3.1,-116.91 1.63,-234.83 1.63,-351.91 0,-48.38 -6.09,-125.28 8.06,-165.42 14.75,-41.87 43.5,-72.51 81.12,-90.71 67.84,-32.78 83.45,-16.99 113.49,29.38 24.05,37.14 38.2,80.58 42.8,131.2 2.83,31.07 6.83,48.88 13.38,76.55 7.22,30.52 4.58,52.68 10.28,77.94 5.36,23.76 12.4,44.76 17.53,70.74 10.49,53.23 -0.49,55.11 21.72,65.81zm-1665.61 -239.48l-2.42 9.45 2.42 -9.45zm-932.66 614.07c40,-54.68 24.23,-113.69 31.78,-142.38 7.12,-27.03 -0.52,-60.16 5.82,-86.63 10.66,-44.49 -16.45,-95.57 2.43,-164.89 6.68,-24.55 -17.4,-110.26 -0.97,-167.65 10.54,-36.81 -19.43,-83.56 2.62,-160.38 5,-17.4 6.54,-23.36 17.93,-30.64 19.96,-12.76 9.54,2.91 25.63,-18.32 32.94,-43.47 70.1,-53.24 127.16,-29.2 54.17,22.83 49.57,64.92 54.92,128.98 10.64,127.65 13.74,414.08 2.38,530.99 -3.06,31.5 -8.04,46.6 -6.36,84.72 1.44,32.42 3.39,57.33 -2.31,90.02 -6.72,38.51 -18.72,30.19 -10.35,72.83 5.44,27.68 2.94,49.84 -3.2,75.51 -26.72,111.52 -7.14,156.22 -60.61,304.75 -93.59,259.97 -337.47,238.17 -436.61,-139.75 -15.76,-60.09 -13.22,-100.81 -22.25,-158.1 -32.8,-208.08 -23.58,-327.43 -23.38,-526.8 0.07,-61.58 -2.68,-119.4 13.76,-167.49 5.64,-16.47 -9.26,-48.17 -12.94,-69.25 -13.89,-79.53 9.54,-128.56 10.82,-163.9 1.47,-40.04 -7.07,-45.75 26.28,-63.38 50.19,-26.54 94.56,-32.59 143.44,1.73 17.27,12.13 31.38,27.35 40.86,51.38 12.22,30.94 3.23,52.06 8.94,79.69 2.49,12 10.37,21.2 9.26,35.27 -1.13,14.28 -7.79,20.21 -9.89,32.92 -3.92,23.73 0.37,65.5 -0.68,91.69 -0.81,19.98 -6.76,27.74 -7.42,40.21 -0.63,11.76 5.44,21.4 7.58,34.5 9.8,59.97 -14.13,86.59 -3.26,163.61 17.05,120.8 -17.88,100.44 6.57,171.2 9.07,26.28 3.25,55.55 4.82,82.94 27.46,19.03 12.04,18.37 57.23,15.82zm2173.27 -680.06l1.31 1.31c-0.08,-0.08 -1.75,-0.87 -1.31,-1.31zm2638.05 802.41c19.76,26.09 -4.25,14.08 34.61,48.71 10.95,9.77 29.46,27.11 43.75,35.41 103.27,59.92 146.02,-134.08 109.45,-171.09 -97.78,-98.95 -122.67,-41.22 -189.01,-136.5 -37.52,-53.89 -83.74,-184.14 -71.8,-244.08 5.7,-28.61 -11.29,-25.97 -14.66,-57.54 -5.51,-51.57 -0.62,-190.28 10.43,-232.9 9.91,-38.27 9.51,-107.92 23.18,-139.81 7.77,-18.08 22.32,-32.01 30.25,-53.35 7.05,-19.01 10.82,-42.6 21.03,-57.93 9.04,-13.57 28.71,-28.48 40.58,-42.78 14.66,-17.67 21.49,-29.85 35.8,-43.6 47.5,-45.62 148.55,-94 242.81,-61.47 24.5,8.45 29.52,19.98 58.17,25.44 31.58,6.03 33.5,8.85 43.79,35.52 18.61,48.2 54.76,-2.86 59.19,99.48 31.36,19.22 25.73,16.15 38.18,84.97 8.34,46.04 -10.15,67.54 -1.41,102.34 14.1,56.09 -16.19,152.82 -38.57,194.85 -25.71,48.31 -32.2,55.29 -65.02,55.24 -43.68,-0.06 -54.08,-24.02 -77.38,-42.78 -31.18,-25.11 -71.54,-17.98 -91.44,-4.66 -31.21,20.91 -33.26,114.16 -6.97,138.09 7.72,7.02 10.14,3.84 20.32,10.74 15.75,10.66 2.95,7.52 15.01,15.02 12.9,8.01 35.83,3.77 49.45,12.83 17.42,11.58 8.86,16.53 28.83,28.41 60.31,35.87 27.2,33.18 55.62,63.08 15.52,16.33 17.09,3.17 26.68,34.91 3.99,13.2 7.78,32.95 12.48,45.18 8.44,21.98 16.71,14.28 22.35,37.6 5.63,23.31 6.18,22.85 14.39,44.22 30.54,79.52 6.06,111.93 13.56,148.28 16.13,78.12 -15.73,105.07 -0.7,159.59 14.32,51.97 -9.72,157.73 -23.19,207.48 -18.08,66.81 -40.11,123.11 -86.48,150.98 -25.15,15.12 -14.02,5.21 -25.02,36.53 -32,91.14 -151.42,174.78 -262.61,146.94 -28.15,-7.04 -60.3,-22.85 -77.63,-45.03 -104.04,-133.19 -93.99,-115.49 -102.42,-251.98 -3.68,-59.46 -0.8,-54.18 11.6,-104.67 5.83,-23.75 -0.06,-72.64 3.57,-106.08 2.09,-19.22 8.5,-35.27 10.44,-53.04 1.89,-17.34 -2.84,-37.9 4.3,-51.84 9.6,-18.78 18.53,-10.25 25.94,-36.34 5.55,-19.58 3.84,-26.29 28.55,-24.37zm-3549.22 33.39c-7.79,-34.99 -19.86,13.33 -28.49,-68.1 -8.85,-83.32 -28.98,-180.61 -18.28,-265.25 17.89,-141.39 183.55,-120.99 244.74,-88.39 52.76,28.1 59.87,58.77 63.84,131.49 7.02,128.52 3.68,326.73 -9.38,457.59 -3.08,30.7 0.76,61.91 -1.97,91.96 -6.57,72.02 -64.22,230.67 -96.31,285.88 -56.69,97.58 -165,99.42 -244.92,16.72 -48.93,-50.63 -133.1,-160.49 -143.99,-235.55 -2.98,-20.63 -5.57,-14.89 -14.41,-32.43l-26.04 -114.45c-8.96,-45.47 -29.57,-115.32 -28.13,-161.87 1.19,-38.79 -9.77,-55.04 -9.25,-87.81 0.51,-32.29 3.05,-59.98 4.32,-92.59 2.39,-61.34 5.82,-116.56 14.08,-176.11 28.77,-207.57 32.73,-278.44 97.35,-470.17 30.27,-89.81 92.42,-263.29 201.7,-273.76 22.66,-2.18 66.05,-0.32 82.12,10.86 24.95,17.35 66.94,71.94 79.66,114.25 16.88,56.09 -29.26,328.52 -86.58,377.38 -36.46,31.1 -91.75,-40.62 -151.33,130.15 -26.1,74.82 0.34,115.66 -25.45,164.16 -13.49,25.37 10.7,26.92 11.26,70.3 0.35,26.2 -3.57,65.77 1.6,89.73 13.02,60.31 12.39,94.26 40.58,148.52l43.28 -22.51zm2516.95 -263.71c0.67,27.55 9.43,37.03 10.06,65.58l-2.21 220.13c-1.78,92.66 -4.12,193.4 -11.15,282.4 -5.49,69.6 -5.72,63.72 -39.13,106.37 -22.32,28.49 -48.48,53.32 -87.05,58.14 -19.59,2.45 -49.93,5.37 -64.4,-6.66 -35.36,-29.43 -50.83,-49.81 -53.13,-97.14 -3.63,-74.89 -19.19,-37 -10.4,-199.57 1.51,-27.88 -9.22,-92.32 -11.65,-129.86 -5.91,-91.61 -2.06,-196.16 -1.43,-290.82 0.38,-55.81 15.47,-239.69 -11.58,-272.23 -21.93,-26.36 -90.74,-9 -112.86,-36.75 -16.1,-20.19 -33.91,-77.76 -36.32,-108.86 -6.48,-83.7 4.86,-28.93 -11.85,-136.98 -12.77,-82.55 -8.92,-235.66 51.88,-307.05 6.61,-7.77 26.72,-25.14 39.89,-30.72 28.64,-12.13 194.11,-52.91 232.16,-59.04 28.58,-4.6 26.88,-16.04 53.46,-20.35 20.56,-3.34 47.7,-3.23 70.13,-4.91 49.77,-3.74 89.3,-13.07 118.82,17.81 46.06,48.17 46.41,161.21 46.34,242.22 -0.07,88.12 -4.86,193.54 -10.53,281.57 -6.6,102.41 -104.44,106.54 -148.63,140.57l-10.42 286.15zm-4513.12 -447.77c23.74,-77.65 16.16,-297.61 55.71,-353.85 47.26,-67.19 179.84,-96.1 218.28,-58.31 48.09,47.31 64.95,57.47 49.37,146.41 -6.91,39.48 9.75,237.6 13.27,283.96 4.91,64.65 14.68,118.66 16.87,182.91 6.43,188.38 5.4,425.07 1.4,611.54 -1.41,65.86 -1.81,134.08 -3.7,197.76 -0.99,33.83 0.18,67.87 -0.59,101.62 -1.02,44.21 -12.42,41.77 -32.14,68.04 -23.7,31.58 -35.22,20.18 -81.68,15.95 -47.66,-4.34 -44.59,0.72 -65.28,-36.36 -19.14,-34.29 -19.75,-34.95 -19,-83.09 0.65,-41.47 -21.04,-155.88 -16.15,-183.64 5.94,-33.69 3.3,-14.51 -1.69,-45.18 -2.56,-15.75 -0.28,-32.28 -0.56,-48.47 -0.85,-48.19 -13.31,-10.99 -4.92,-89.17 3.77,-35.13 -0.51,-56.98 -11.84,-85.2 -48.97,39.23 4.02,64.42 -84.7,123.78 -1.54,20.99 4.85,46.2 -19.44,45 -22.74,-1.12 -17.15,-23.95 -21.17,-43.88 -22.1,-4.74 -35.24,-12.43 -58.23,-12.1 11.56,39.08 9.68,37.81 10.91,83.73 1.56,58.35 10.98,248.8 6.68,281.48 -13.99,106.39 -195.05,132.93 -238.22,61.8 -30.38,-50.05 -10.24,-191.02 -17.56,-268.69 -3.23,-34.29 -10.32,-45.01 -9.08,-83.36 3.49,-107.97 12.43,-263.1 -2.65,-366.87 -5.75,-39.57 -6.42,-39.99 -6.33,-81.7 0.21,-100.67 11.27,-270.65 -8.21,-361.18 -9.51,-44.21 -10.11,-220.32 4.84,-267.26 8.17,-25.64 56.17,-78.59 105.71,-83.58 36.99,-3.72 49.92,6.76 77.13,18.68 28.69,12.57 42.42,0.83 60.78,31.49 13.83,23.08 25.98,37.71 24.49,72.1 -0.66,15.24 -5.02,33.01 0.55,47.33 5.09,13.11 13.87,10.64 19.01,25.65 4.54,13.25 1.47,31.49 1.67,46.18l16.85 80.08c4.96,22.42 1.78,21.98 19.62,26.4z"/>
   <path class="fil2" d="M2866.2 6168.46c13.14,25.25 17.04,20.81 49.99,17.78 14.52,-34.49 20.71,-43.83 -2.07,-69.5 -13.89,6.07 -14.69,8.65 -22.24,25.09 -9.63,20.96 -7.83,15.16 -25.68,26.63z"/>
   <polygon class="fil1" points="3697.2,4945.55 3701.61,4945.55 3697.93,4940.42 "/>
   <polygon class="fil0" points="5197.38,4769.6 5197.38,4765.2 5192.24,4768.86 "/>
   <polygon class="fil3" points="1937.47,5086.32 1941.87,5086.32 1938.2,5081.18 "/>
   <rect class="fil5 str3" x="579.24" y="3069.62" width="5936.82" height="1688.61"/>
   <path class="fil6" d="M4209.61 4197.76c-29.4,11.72 -60.21,32.99 -91.66,48.76 -92.75,46.52 -209.12,83.33 -313.02,100.93 13.01,81.07 124.14,280.74 253.93,192.39 81.55,-55.51 138.63,-206.85 150.75,-342.08zm172.28 -203.14c140.28,-31.04 184.17,-163.59 138.59,-320.28 -18.32,-62.99 -40.78,-124.78 -63.64,-185.83 -22.98,-61.37 -51.26,-122.59 -72.48,-178.45 6.16,47.28 24.51,103.44 33.54,157.05 33.23,197.56 32.17,345.14 -36.01,527.51zm-1562.67 187.91c-0.71,520.72 370.4,636.22 494.83,238.58 14.57,-46.55 18.39,-106.59 32.41,-143.84 30.54,-5.32 100.85,2.91 136.73,3.54 48.95,0.85 98.84,-0.48 146.94,-3.94 222.93,-16.03 521.21,-93.48 638.94,-267.95 87.55,-129.76 88,-337.26 60.63,-508.89 -27.76,-174.14 -82.01,-308.83 -148.58,-452.68 -52.78,3.99 -188.65,42.86 -339.59,54.04 -280.21,20.76 -596.22,-15.01 -855.72,-122.07 -40.05,-16.52 -106.3,-53.85 -142.5,-63.38 -7.65,24.84 -26.44,56.68 -38.48,84.32 -14.01,32.2 -24.03,57.43 -35.79,91.72 -67.02,195.55 -119.54,443.67 -108.16,652 3.97,72.96 16.3,147.64 40.65,211.68 26.43,69.53 56.28,108.66 124.35,131.24 72.72,24.11 153.16,14.97 212.91,-20.53 60.6,-36.03 84.37,-81.07 83.9,-175.13 -0.81,-156.78 -41.24,-303.37 -44.36,-461.79 -0.8,-40.78 -9.28,-88.85 19.71,-105.82 103.29,-60.52 70.98,176.93 86.32,276.75 19.24,125.28 59.91,338.2 -0.91,446.72 -64.96,115.91 -187.89,157.93 -364.23,135.43zm269.14 -3385.25c-22.22,-59.89 -27.24,-108.66 -54.01,-168.56 -121.24,-271.43 -426.65,-420.65 -718.51,-292.16 -201.1,88.54 -341.44,273.47 -402.37,484.9 -105.68,366.73 73.17,793.63 411.96,857.15 -58.18,576.34 228.97,1067.67 785.7,1248.01 275.86,89.37 605.41,114.97 901.89,60.58 285.26,-52.32 548.42,-169.97 700.94,-319.28 68.14,-66.7 172.89,-204.36 122.88,-361.08 -38.59,-120.97 -75.48,-41.74 -36.49,-184.1 97.27,-354.99 -3.5,-755.95 -205.41,-995.49 -141.99,-168.48 -317.4,-322.08 -627.75,-392.92 -233.69,-53.33 -453.65,-48.99 -687.16,1.32 -103.29,22.25 -142.22,47.98 -191.67,61.63zm1261.44 -11.07c19.89,19.73 76.07,51.94 101.52,71.65 46.04,35.66 147.47,126.89 181.48,170.85l77.93 93.71 108.83 189.48c55.82,-19.15 129.12,-111.16 159.06,-171.3 148.61,-298.45 -58.63,-694.36 -399.48,-811.12 -266.63,-91.32 -555.57,40.43 -607.91,304.51 68.67,24.72 133.52,36.5 202.24,64.34 66.04,26.74 120.78,62.44 176.33,87.88zm-471.77 -170.02c38.34,-98 47.52,-160.97 136.34,-251.5 233.11,-237.61 594.67,-183.12 837.38,13.75 148.04,120.08 251.09,315.13 264.8,511.8 14.32,205.52 -92.91,430.53 -260.43,509.95 19.97,80.48 46.21,145.27 60.61,237.4 22.03,140.88 20.45,279.43 -6.5,419.62 -5.94,30.97 -25.55,93.42 -27.86,117.32 -2.22,22.96 33.39,75.6 42.64,104.46 101.39,316.13 -240.44,569.79 -483.63,675.22 -30.69,13.3 -75.93,28.18 -102.86,44.09 6.66,26.74 55.46,109.88 71.24,142.56 22.71,47 45.21,96.91 66.22,146.46 41.96,99 83.49,205.57 116.15,308.46 39.36,123.96 64.81,225.51 0.64,348.14 -24.36,46.54 -60.05,83.06 -102.98,109.69 -61.05,37.85 -137.47,30.5 -165.87,45.3 -24.59,15.7 -15.84,41.8 -18.59,77.82 -12.05,158.36 -68.79,355.14 -198.39,441.52 -97.03,64.66 -191.55,38.81 -262.77,-24.88 -98.01,-87.66 -106.27,-185.45 -136.22,-229.96 -97.03,2.2 -184.9,9.1 -285.16,8.9 -29.15,128.36 -67.73,207.77 -134.68,283.65 -145.84,165.29 -535,181.2 -561.11,-491.68 -2.35,-60.72 -86.88,-25.98 -140.06,-275.71 -66.22,-310.95 43.63,-760.03 178.5,-1017.83 -17.48,-19.68 -154.32,-111.23 -222.5,-195.69 -31.75,-39.31 -60.56,-70.91 -91.91,-114.59 -175.68,-244.86 -233.46,-488.05 -222.12,-816.52 -103.44,-20.53 -228,-140.29 -276.72,-203.26 -64.2,-82.96 -122.98,-200.19 -147.17,-332.18 -139.55,-761.6 689.24,-1340.51 1195.37,-801.1 10.54,11.24 16.2,21.02 26.76,34.08 16.99,21 31.39,40.54 47.66,67.69 26.59,44.35 61.6,108.84 74.29,163.42 52.6,-7.84 111.04,-28.14 168.04,-39.02 320.33,-61.22 414.96,-7.72 560.89,-17.38z"/>
   <path class="fil7" d="M3031.69 2210.93c287.57,28.56 545.37,305.12 391.21,493.61 -126.02,154.1 -522.99,62.07 -653.71,-174.23 -111.39,-201.37 55.37,-339.95 262.5,-319.38z"/>
   <path class="fil7" d="M4745.69 2289.87c153.95,39.73 3.41,361.71 -151.18,322.44 -73.44,-18.66 -79.56,-125.47 -31.95,-207.64 27.9,-48.12 96.23,-137.22 183.13,-114.8z"/>
   <path class="fil8" d="M2926.01 987.35c-75.19,49.63 -227.93,218.8 -282.12,300.25 -25.73,38.67 -55.35,81.23 -80.7,118 -141.62,-19.95 -262.01,-103.24 -304.36,-205.24 -52.76,-127.08 -9.98,-311.07 58.19,-403.6 174.66,-237.07 586.08,-55.41 608.99,190.59z"/>
   <path class="fil8" d="M4041.74 2293.67l-7.87 102.53c-88.54,8.29 -135.72,-49 -155,-53.11 -74.68,-15.9 -58.13,115.73 142.33,123.87 79.31,3.23 170.38,-24.46 209.14,-67.03 22.43,-24.63 4.71,-79.44 -38.64,-56.88 -26.24,13.65 -22.12,31.83 -94.64,47.99l7.49 -103.54c48.75,-27.08 129.46,-43.54 103.82,-127.14 -17.08,-55.71 -93.64,-85.52 -163.86,-81.05 -138.91,8.84 -215.96,153.78 -27.24,205.73 19.85,5.46 8.12,-0.02 24.47,8.63zm10.74 -276.99c100.46,13.85 156.41,54.7 201.62,110.22 105.55,129.57 72.58,349.63 -83.82,426.01 -130.02,63.5 -308.86,73.68 -423.24,-22.34 -74.1,-62.21 -121.43,-185.41 -92.7,-292.92 41.76,-156.28 197.61,-248.64 398.14,-220.97z"/>
   <path class="fil8" d="M4707.37 1122.42l-77.93 -93.71c-34.01,-43.96 -135.44,-135.19 -181.49,-170.85 -25.44,-19.71 -81.62,-51.92 -101.51,-71.65 -1.61,-43.16 99.24,-100.66 165.94,-109.38 89.62,-11.71 166.26,21.17 212.9,67.6 159.65,158.95 53.99,360.77 -17.91,377.99z"/>
   <path class="fil6" d="M4041.74 2293.67c-16.35,-8.65 -4.62,-3.17 -24.47,-8.63 -188.72,-51.95 -111.67,-196.89 27.24,-205.73 70.22,-4.47 146.78,25.34 163.86,81.05 25.64,83.6 -55.07,100.06 -103.82,127.14l-7.49 103.54c72.52,-16.16 68.4,-34.34 94.64,-47.99 43.35,-22.56 61.07,32.25 38.64,56.88 -38.76,42.57 -129.83,70.26 -209.14,67.03 -200.46,-8.14 -217.01,-139.77 -142.33,-123.87 19.28,4.11 66.46,61.4 155,53.11l7.87 -102.53z"/>
   <path class="fil6" d="M3555.57 2089.26c101.62,31.32 98.39,294.27 -67.29,261.49 -127.76,-25.27 -58.44,-300.25 67.29,-261.49z"/>
   <path class="fil6" d="M4510.7 2098.81c43.86,19.88 68.71,69.23 68.8,134.15 0.11,67.37 -35.26,103.16 -106.45,87.98 -104.81,-22.38 -81.27,-276.03 37.65,-222.13z"/>
   <path class="fil9" d="M3031.69 2210.93c-207.13,-20.57 -373.89,118.01 -262.5,319.38 130.72,236.3 527.69,328.33 653.71,174.23 154.16,-188.49 -103.64,-465.05 -391.21,-493.61zm1714 78.94c-86.9,-22.42 -155.23,66.68 -183.13,114.8 -47.61,82.17 -41.49,188.98 31.95,207.64 154.59,39.27 305.13,-282.71 151.18,-322.44zm-693.21 -273.19c-200.53,-27.67 -356.38,64.69 -398.14,220.97 -28.73,107.51 18.6,230.71 92.7,292.92 114.38,96.02 293.22,85.84 423.24,22.34 156.4,-76.38 189.37,-296.44 83.82,-426.01 -45.21,-55.52 -101.16,-96.37 -201.62,-110.22zm-496.91 72.58c-125.73,-38.76 -195.05,236.22 -67.29,261.49 165.68,32.78 168.91,-230.17 67.29,-261.49zm955.13 9.55c-118.92,-53.9 -142.46,199.75 -37.65,222.13 71.19,15.18 106.56,-20.61 106.45,-87.98 -0.09,-64.92 -24.94,-114.27 -68.8,-134.15zm-1584.69 -1111.46c-22.91,-246 -434.33,-427.66 -608.99,-190.59 -68.17,92.53 -110.95,276.52 -58.19,403.6 42.35,102 162.74,185.29 304.36,205.24 25.35,-36.77 54.97,-79.33 80.7,-118 54.19,-81.45 206.93,-250.62 282.12,-300.25zm158.99 -190.07c49.45,-13.65 88.38,-39.38 191.67,-61.63 233.51,-50.31 453.47,-54.65 687.16,-1.32 310.35,70.84 485.76,224.44 627.75,392.92 201.91,239.54 302.68,640.5 205.41,995.49 -38.99,142.36 -2.1,63.13 36.49,184.1 50.01,156.72 -54.74,294.38 -122.88,361.08 -152.52,149.31 -415.68,266.96 -700.95,319.28 -296.47,54.39 -626.03,28.79 -901.88,-60.58 -556.73,-180.34 -843.88,-671.67 -785.7,-1248.01 -338.79,-63.52 -517.64,-490.42 -411.96,-857.15 60.93,-211.43 201.27,-396.36 402.36,-484.9 291.87,-128.49 597.28,20.73 718.52,292.16 26.77,59.9 31.79,108.67 54.01,168.56z"/>
   <path class="fil9" d="M2815.86 4182.53c176.34,22.5 299.26,-19.52 364.23,-135.43 60.82,-108.52 20.15,-321.44 0.91,-446.72 -15.34,-99.82 16.97,-337.27 -86.32,-276.75 -28.99,16.97 -20.51,65.04 -19.71,105.82 3.12,158.42 43.55,305.01 44.36,461.79 0.47,94.06 -23.3,139.1 -83.9,175.13 -59.75,35.5 -140.19,44.64 -212.91,20.53 -68.07,-22.58 -97.92,-61.71 -124.35,-131.24 -24.35,-64.04 -36.68,-138.72 -40.65,-211.68 -11.38,-208.33 41.14,-456.45 108.16,-652 11.76,-34.29 21.78,-59.52 35.79,-91.72 12.04,-27.64 30.83,-59.48 38.48,-84.32 36.2,9.53 102.45,46.86 142.5,63.38 259.5,107.06 575.51,142.83 855.72,122.07 150.94,-11.18 286.81,-50.05 339.59,-54.04 66.57,143.85 120.82,278.54 148.58,452.68 27.37,171.63 26.92,379.13 -60.63,508.89 -117.74,174.47 -416.01,251.92 -638.94,267.95 -48.11,3.46 -98,4.79 -146.94,3.94 -35.88,-0.63 -106.19,-8.86 -136.73,-3.54 -14.02,37.25 -17.84,97.29 -32.41,143.84 -124.43,397.64 -495.54,282.14 -494.83,-238.58z"/>
   <path class="fil9" d="M4707.37 1122.42c71.9,-17.22 177.56,-219.04 17.91,-377.99 -46.64,-46.43 -123.28,-79.31 -212.9,-67.6 -66.7,8.72 -167.55,66.22 -165.94,109.38 -55.55,-25.44 -110.29,-61.14 -176.33,-87.88 -68.72,-27.84 -133.57,-39.62 -202.24,-64.34 52.34,-264.08 341.27,-395.83 607.91,-304.51 340.85,116.76 548.09,512.67 399.48,811.12 -29.94,60.14 -103.24,152.15 -159.06,171.3l-108.83 -189.48z"/>
   <path class="fil9" d="M3801.57 4347.45c103.9,-17.6 220.27,-54.41 313.02,-100.93 31.45,-15.77 62.26,-37.04 91.66,-48.76 -12.12,135.23 -69.2,286.57 -150.75,342.08 -129.79,88.35 -240.92,-111.32 -253.93,-192.39z"/>
   <path class="fil9" d="M4378.53 3994.62c68.18,-182.37 69.24,-329.95 36.01,-527.51 -9.03,-53.61 -27.38,-109.77 -33.54,-157.05 21.22,55.86 49.5,117.08 72.48,178.45 22.86,61.05 45.32,122.84 63.64,185.83 45.58,156.69 1.69,289.24 -138.59,320.28z"/>
   <g>
    <path class="fil10" d="M875.94 6756.8c2.99,65.36 8.09,132.98 15.29,202.85 7.2,69.86 14.99,136.58 23.39,200.15 1.8,26.39 -5.4,39.88 -21.59,40.48 -3.6,0 -7.2,-1.35 -10.8,-4.05 -3.6,-2.69 -6.89,-6.14 -9.89,-10.34 -3,-4.2 -5.85,-8.7 -8.55,-13.49 -2.7,-4.8 -4.35,-9 -4.95,-12.6 -4.79,-30.58 -9.29,-62.97 -13.49,-97.15 -4.2,-34.18 -7.95,-68.52 -11.24,-103 -3.3,-34.49 -6.15,-68.22 -8.55,-101.2 -2.4,-32.99 -3.9,-63.27 -4.5,-90.86 1.2,-14.39 3.3,-26.54 6.3,-36.43 3,-9.9 9.3,-14.55 18.89,-13.95 10.2,0.6 17.54,4.65 22.04,12.15 4.5,7.49 7.05,16.64 7.65,27.44zm327.55 53.97c-1.2,6 -5.4,9.29 -12.59,9.89 -7.2,0.6 -13.2,0.9 -18,0.9 -14.99,0.6 -30.43,2.1 -46.32,4.5 -15.9,2.4 -32.54,6 -49.93,10.8 -7.2,2.4 -14.99,1.5 -23.39,-2.7 -8.39,-4.2 -13.49,-12.6 -15.29,-25.19 0,-4.8 1.8,-8.7 5.4,-11.69 3.59,-3 7.79,-5.7 12.59,-8.1 7.8,-3.6 17.09,-6.75 27.89,-9.45 10.79,-2.69 21.74,-4.64 32.83,-5.84 11.1,-1.2 21.74,-1.65 31.94,-1.35 10.19,0.3 18.59,1.35 25.18,3.15 9.6,2.99 17.25,7.49 22.94,13.49 5.7,6 7.95,13.19 6.75,21.59zm-20.69 299.56c4.2,9.59 6.45,19.94 6.75,31.03 0.3,11.1 -2.85,18.74 -9.45,22.94 -8.39,5.4 -17.39,5.1 -26.99,-0.9 -9.59,-6 -16.79,-14.09 -21.59,-24.29 -6.59,-12.59 -11.69,-28.03 -15.29,-46.33 -3.6,-18.29 -6.3,-36.43 -8.09,-54.42 -1.8,-17.99 -2.85,-34.78 -3.15,-50.38 -0.3,-15.59 -0.45,-27.28 -0.45,-35.08 0.6,-8.39 3,-16.19 7.19,-23.39 4.2,-7.19 9.6,-11.39 16.2,-12.59 10.79,0.6 19.49,5.55 26.08,14.84 6.6,9.3 9.6,20.84 9,34.63 0,10.8 0.3,22.79 0.9,35.99 0.6,13.19 1.8,26.38 3.6,39.58 1.8,13.19 3.9,25.94 6.29,38.23 2.4,12.29 5.4,22.34 9,30.14zm205.22 -389.52c0.6,9.6 1.05,21.29 1.35,35.09 0.3,13.79 0.75,28.78 1.35,44.97 0.59,16.2 1.49,32.54 2.69,49.03 1.2,16.49 3,32.24 5.4,47.23 9,-14.99 19.34,-26.39 31.04,-34.19 11.69,-7.79 23.54,-12.59 35.53,-14.39 18.59,-2.4 34.78,-0.3 48.58,6.3 13.79,6.59 25.18,15.74 34.18,27.44 9,11.69 15.59,24.58 19.79,38.68 4.2,14.09 6.3,27.73 6.3,40.93 0,28.18 -7.35,54.27 -22.04,78.26 -14.69,23.99 -31.79,45.28 -51.28,63.87 -19.49,18.59 -38.68,34.18 -57.57,46.78 -18.89,12.59 -32.53,21.59 -40.93,26.98 -11.99,4.8 -23.69,6 -35.08,3.6 -11.4,-2.4 -18.89,-6 -22.49,-10.79 -3,-7.2 -3.9,-13.35 -2.7,-18.44 1.2,-5.1 3.6,-9.75 7.2,-13.95 3.59,-4.2 7.94,-7.94 13.04,-11.24 5.1,-3.3 9.44,-6.45 13.04,-9.45 -14.39,-65.97 -25.49,-132.68 -33.28,-200.15 -7.8,-67.47 -11.1,-135.99 -9.9,-205.55 0,-12 2.55,-18.89 7.65,-20.69 5.1,-1.8 9.45,-2.7 13.04,-2.7 8.4,1.2 15.9,4.5 22.49,9.89 6.6,5.4 10.8,12.9 12.6,22.49zm131.33 238.39c0,-20.39 -5.09,-34.64 -15.29,-42.73 -10.19,-8.1 -20.69,-11.55 -31.48,-10.35 -9,1.2 -17.1,4.5 -24.29,9.9 -7.2,5.4 -13.5,11.99 -18.89,19.79 -5.4,7.8 -9.45,16.49 -12.15,26.09 -2.7,9.59 -3.75,18.89 -3.15,27.88 1.2,15 2.85,31.19 4.95,48.58 2.1,17.39 4.65,32.98 7.65,46.78 9.59,-6.6 19.79,-14.25 30.58,-22.94 10.8,-8.7 20.84,-18.44 30.14,-29.24 9.29,-10.79 16.94,-22.34 22.94,-34.63 6,-12.29 8.99,-25.34 8.99,-39.13zm450.8 -91.76c-10.79,6 -22.04,12.3 -33.73,18.89 -11.69,6.6 -23.39,14.25 -35.08,22.94 -11.7,8.7 -22.79,18.89 -33.29,30.59 -10.49,11.69 -19.94,25.64 -28.33,41.83 -12,22.79 -20.09,46.03 -24.29,69.71 -4.2,23.69 -6.9,46.93 -8.1,69.72 0,10.8 -2.55,21.74 -7.64,32.84 -5.1,11.09 -12.15,16.64 -21.14,16.64 -11.4,0 -20.54,-5.85 -27.44,-17.54 -6.9,-11.7 -11.55,-22.94 -13.94,-33.74 -10.2,-42.58 -18.6,-84.71 -25.19,-126.39 -6.6,-41.68 -12.3,-83.21 -17.09,-124.59 0,-8.39 2.54,-13.79 7.64,-16.19 5.1,-2.4 10.95,-3.3 17.54,-2.7 7.2,0.6 14.1,2.4 20.69,5.4 6.6,3 10.5,7.79 11.7,14.39 2.4,22.19 5.4,45.43 8.99,69.72 3.6,24.29 7.2,45.13 10.8,62.52 2.4,-20.39 8.99,-40.18 19.79,-59.37 10.79,-19.19 24.14,-36.59 40.03,-52.18 15.89,-15.59 33.88,-28.78 53.97,-39.58 20.09,-10.79 40.63,-17.99 61.62,-21.59 9,-1.2 16.5,-1.2 22.49,0 6,1.2 10.2,3.3 12.6,6.3 2.4,3 2.85,7.79 1.35,14.39 -1.5,6.6 -6.15,12.59 -13.95,17.99zm324.86 -3.6c17.99,6.6 33.14,16.5 45.43,29.69 12.3,13.19 21.74,28.04 28.34,44.53 6.6,16.49 10.34,33.43 11.24,50.82 0.9,17.4 -1.05,33.59 -5.84,48.58 -6.6,16.79 -15,33.28 -25.19,49.48 -10.2,16.19 -21.89,30.58 -35.09,43.18 -13.19,12.59 -28.18,22.79 -44.97,30.58 -16.8,7.8 -35.39,11.7 -55.78,11.7 -24.59,0 -45.28,-5.7 -62.07,-17.1 -16.79,-11.39 -29.98,-26.08 -39.58,-44.07 -9.59,-18 -15.74,-38.39 -18.44,-61.18 -2.7,-22.78 -2.25,-45.57 1.35,-68.36 2.4,-16.79 6.45,-33.14 12.14,-49.03 5.7,-15.89 13.05,-29.98 22.04,-42.28 9,-12.29 19.34,-22.34 31.04,-30.13 11.69,-7.8 25.04,-11.7 40.03,-11.7 8.4,0 18.89,1.65 31.48,4.95 12.6,3.3 24.29,7.94 35.09,13.94 7.79,-7.19 17.39,-8.39 28.78,-3.6zm-34.18 65.67c-6.6,-4.2 -14.24,-9.74 -22.94,-16.64 -8.7,-6.9 -16.34,-10.34 -22.94,-10.34 -7.19,0 -14.24,3.29 -21.14,9.89 -6.89,6.6 -12.89,14.24 -17.99,22.94 -5.1,8.7 -9.45,17.54 -13.04,26.54 -3.6,8.99 -6,16.19 -7.2,21.59 -1.8,8.99 -3,19.79 -3.6,32.38 -0.6,12.6 0.3,25.04 2.7,37.33 2.4,12.3 7.05,23.39 13.94,33.29 6.9,9.89 17.25,16.94 31.04,21.14 8.4,2.4 18.29,2.25 29.68,-0.45 11.4,-2.7 22.64,-7.65 33.74,-14.85 11.09,-7.19 21.59,-16.79 31.48,-28.78 9.9,-12 17.55,-25.79 22.94,-41.38 6,-17.39 6.15,-35.53 0.45,-54.43 -5.69,-18.89 -17.24,-32.53 -34.63,-40.93 -4.2,3 -8.4,4.5 -12.59,4.5 -4.2,0 -7.5,-0.6 -9.9,-1.8zm422.91 -20.69c-1.2,-6.59 -2.4,-12.89 -3.6,-18.89 -1.2,-6 -4.19,-9.89 -8.99,-11.69 -10.2,-3 -20.99,-3.3 -32.39,-0.9 -11.39,2.4 -21.89,6.14 -31.48,11.24 -9.6,5.1 -17.69,10.8 -24.29,17.09 -6.6,6.3 -10.2,11.85 -10.79,16.65 -1.8,8.99 0.59,17.69 7.19,26.08 6.6,8.4 16.19,16.8 28.79,25.19 20.99,12.6 42.88,25.49 65.67,38.68 22.79,13.2 41.98,26.69 57.57,40.48 15.59,13.8 26.24,28.94 31.93,45.43 5.7,16.49 4.35,35.23 -4.04,56.22 -6.6,16.2 -18.9,29.39 -36.89,39.59 -17.99,10.19 -37.78,18.14 -59.37,23.83 -21.59,5.7 -43.18,9.6 -64.77,11.7 -21.59,2.1 -39.88,3.15 -54.87,3.15 -3.6,0 -7.95,-1.35 -13.04,-4.05 -5.1,-2.7 -9.9,-5.85 -14.4,-9.45 -4.5,-3.59 -8.39,-7.34 -11.69,-11.24 -3.3,-3.9 -4.95,-7.35 -4.95,-10.35 0,-10.79 4.8,-18.29 14.39,-22.48 9.6,-4.2 19.49,-6.3 29.69,-6.3 14.39,0 29.83,-0.75 46.33,-2.25 16.49,-1.5 32.23,-3.9 47.22,-7.2 15,-3.3 28.49,-7.64 40.48,-13.04 12,-5.4 20.4,-12.3 25.19,-20.69 4.2,-7.2 1.65,-15.74 -7.64,-25.64 -9.3,-9.89 -21.59,-20.24 -36.89,-31.03 -15.29,-10.8 -31.78,-21.29 -49.47,-31.49 -17.69,-10.19 -32.84,-19.49 -45.43,-27.89 -12.59,-8.39 -23.39,-18.44 -32.38,-30.13 -9,-11.7 -14.7,-26.24 -17.1,-43.63 -0.6,-15.59 2.7,-30.59 9.9,-44.98 7.2,-14.39 16.64,-27.14 28.33,-38.23 11.7,-11.1 25.04,-19.94 40.04,-26.54 14.99,-6.59 29.98,-9.89 44.97,-9.89 25.79,1.2 47.08,8.24 63.87,21.14 16.8,12.89 26.69,31.93 29.69,57.12 0,8.4 -1.35,15.29 -4.05,20.69 -2.7,5.4 -7.34,8.7 -13.94,9.89 -8.4,1.2 -15.14,0.15 -20.24,-3.14 -5.1,-3.3 -7.95,-7.65 -8.55,-13.05zm604.62 -187.11c-1.8,-10.79 -1.05,-20.69 2.25,-29.68 3.3,-9 10.04,-14.1 20.24,-15.3 8.99,-1.2 16.94,1.2 23.84,7.2 6.89,6 11.24,13.79 13.04,23.39 12,68.97 23.24,137.48 33.74,205.55 10.49,68.07 19.94,134.79 28.33,200.15 2.4,17.4 1.2,29.24 -3.6,35.54 -4.79,6.29 -10.49,10.94 -17.09,13.94 -7.2,3 -13.94,3 -20.24,0 -6.3,-3 -10.34,-8.39 -12.14,-16.19l-0.9 -5.4 -3.6 0.9c-19.79,7.2 -40.48,11.25 -62.07,12.15 -21.59,0.89 -42.28,-1.65 -62.07,-7.65 -19.79,-6 -37.33,-15.74 -52.63,-29.24 -15.29,-13.49 -26.23,-30.73 -32.83,-51.72 -14.39,-46.18 -5.4,-88.16 26.99,-125.94 13.79,-15.59 30.88,-29.69 51.27,-42.28 20.39,-12.6 44.98,-22.49 73.77,-29.69l16.19 -3.6 -22.49 -142.13zm-90.86 321.15c3.6,14.39 10.2,25.49 19.79,33.28 9.6,7.8 20.99,13.05 34.19,15.74 13.19,2.7 27.28,3.15 42.28,1.35 14.99,-1.79 29.68,-5.09 44.08,-9.89l8.09 -2.7 -25.19 -158.32 -17.99 4.49c-12.59,3.6 -25.93,9.15 -40.03,16.65 -14.09,7.49 -26.54,16.34 -37.33,26.53 -10.8,10.2 -19.04,21.59 -24.74,34.19 -5.7,12.59 -6.75,25.48 -3.15,38.68zm475.09 -232.09c-1.2,6 -5.4,9.29 -12.59,9.89 -7.2,0.6 -13.2,0.9 -18,0.9 -14.99,0.6 -30.43,2.1 -46.32,4.5 -15.9,2.4 -32.54,6 -49.93,10.8 -7.2,2.4 -14.99,1.5 -23.39,-2.7 -8.39,-4.2 -13.49,-12.6 -15.29,-25.19 0,-4.8 1.8,-8.7 5.4,-11.69 3.59,-3 7.79,-5.7 12.59,-8.1 7.8,-3.6 17.09,-6.75 27.89,-9.45 10.79,-2.69 21.74,-4.64 32.83,-5.84 11.1,-1.2 21.74,-1.65 31.94,-1.35 10.19,0.3 18.59,1.35 25.18,3.15 9.6,2.99 17.25,7.49 22.94,13.49 5.7,6 7.95,13.19 6.75,21.59zm-20.69 299.56c4.2,9.59 6.45,19.94 6.75,31.03 0.3,11.1 -2.85,18.74 -9.45,22.94 -8.39,5.4 -17.39,5.1 -26.99,-0.9 -9.59,-6 -16.79,-14.09 -21.59,-24.29 -6.59,-12.59 -11.69,-28.03 -15.29,-46.33 -3.6,-18.29 -6.3,-36.43 -8.09,-54.42 -1.8,-17.99 -2.85,-34.78 -3.15,-50.38 -0.3,-15.59 -0.45,-27.28 -0.45,-35.08 0.6,-8.39 3,-16.19 7.19,-23.39 4.2,-7.19 9.6,-11.39 16.2,-12.59 10.79,0.6 19.49,5.55 26.08,14.84 6.6,9.3 9.6,20.84 9,34.63 0,10.8 0.3,22.79 0.9,35.99 0.6,13.19 1.8,26.38 3.6,39.58 1.8,13.19 3.9,25.94 6.29,38.23 2.4,12.29 5.4,22.34 9,30.14zm303.27 -388.62c-1.8,-10.79 -1.05,-20.69 2.25,-29.68 3.3,-9 10.04,-14.1 20.24,-15.3 8.99,-1.2 16.94,1.2 23.84,7.2 6.89,6 11.24,13.79 13.04,23.39 12,68.97 23.24,137.48 33.74,205.55 10.49,68.07 19.94,134.79 28.33,200.15 2.4,17.4 1.2,29.24 -3.6,35.54 -4.79,6.29 -10.49,10.94 -17.09,13.94 -7.2,3 -13.94,3 -20.24,0 -6.3,-3 -10.34,-8.39 -12.14,-16.19l-0.9 -5.4 -3.6 0.9c-19.79,7.2 -40.48,11.25 -62.07,12.15 -21.59,0.89 -42.28,-1.65 -62.07,-7.65 -19.79,-6 -37.33,-15.74 -52.63,-29.24 -15.29,-13.49 -26.23,-30.73 -32.83,-51.72 -14.39,-46.18 -5.4,-88.16 26.99,-125.94 13.79,-15.59 30.88,-29.69 51.27,-42.28 20.39,-12.6 44.98,-22.49 73.77,-29.69l16.19 -3.6 -22.49 -142.13zm-90.86 321.15c3.6,14.39 10.2,25.49 19.79,33.28 9.6,7.8 20.99,13.05 34.19,15.74 13.19,2.7 27.28,3.15 42.28,1.35 14.99,-1.79 29.68,-5.09 44.08,-9.89l8.09 -2.7 -25.19 -158.32 -17.99 4.49c-12.59,3.6 -25.93,9.15 -40.03,16.65 -14.09,7.49 -26.54,16.34 -37.33,26.53 -10.8,10.2 -19.04,21.59 -24.74,34.19 -5.7,12.59 -6.75,25.48 -3.15,38.68zm548.85 -197.91c2.4,16.79 4.35,34.64 5.85,53.53 1.5,18.89 2.7,37.93 3.6,57.12 0.9,19.19 1.35,37.78 1.35,55.77 0,17.99 -0.3,34.19 -0.9,48.58 19.19,13.19 30.74,24.89 34.63,35.08 3.9,10.2 4.35,19.19 1.35,26.99 -3.6,10.8 -10.04,16.34 -19.34,16.64 -9.29,0.3 -19.94,-2.85 -31.93,-9.44 -8.4,5.99 -17.99,12.44 -28.79,19.34 -10.79,6.89 -22.19,13.49 -34.18,19.79 -12,6.3 -23.99,11.84 -35.99,16.64 -11.99,4.8 -23.08,8.1 -33.28,9.9 -19.19,2.99 -36.43,-0.6 -51.72,-10.8 -15.3,-10.19 -25.64,-25.49 -31.04,-45.88 -3.6,-13.79 -4.5,-28.03 -2.7,-42.73 1.8,-14.69 6.3,-28.78 13.5,-42.28 7.19,-13.49 16.94,-25.63 29.23,-36.43 12.3,-10.79 26.84,-19.19 43.63,-25.19 4.2,-1.8 10.05,-3.3 17.54,-4.5 7.5,-1.19 15.29,-1.64 23.39,-1.34 8.1,0.3 16.34,1.94 24.74,4.94 8.39,3 16.19,8.1 23.39,15.3 0,-10.2 -0.15,-21.44 -0.45,-33.74 -0.3,-12.29 -0.75,-24.74 -1.35,-37.33 -0.6,-12.59 -1.35,-24.44 -2.25,-35.53 -0.9,-11.1 -1.95,-20.54 -3.15,-28.34 -1.2,-9 -4.65,-14.54 -10.34,-16.64 -5.7,-2.1 -12.75,-1.65 -21.14,1.35 -14.4,4.8 -31.19,14.09 -50.38,27.88 -19.19,13.8 -37.48,28.49 -54.87,44.08 -5.4,5.4 -11.55,7.8 -18.44,7.2 -6.9,-0.6 -12.75,-3.3 -17.55,-8.1 -4.79,-4.79 -7.49,-10.34 -8.09,-16.64 -0.6,-6.3 1.8,-13.04 7.19,-20.24 10.2,-10.79 21.59,-21.89 34.19,-33.28 12.59,-11.4 25.79,-21.74 39.58,-31.04 13.79,-9.29 27.89,-16.94 42.28,-22.94 14.39,-5.99 28.78,-9.29 43.18,-9.89 20.99,-0.6 37.18,4.05 48.57,13.94 11.4,9.9 18.3,22.64 20.69,38.23zm-104.35 193.41c-7.79,1.8 -16.04,5.55 -24.73,11.25 -8.7,5.69 -16.5,12.59 -23.39,20.69 -6.9,8.09 -12,17.09 -15.29,26.98 -3.3,9.9 -3.45,19.64 -0.45,29.24 1.19,3.6 3.74,6.3 7.64,8.09 3.9,1.8 8.25,2.1 13.05,0.9 14.39,-2.99 30.73,-8.84 49.02,-17.54 18.29,-8.69 32.84,-18.14 43.63,-28.33 0,-3.6 -1.8,-8.25 -5.4,-13.95 -3.59,-5.69 -7.79,-11.39 -12.59,-17.09 -4.8,-5.7 -10.05,-10.64 -15.74,-14.84 -5.7,-4.2 -10.95,-6 -15.75,-5.4zm473.29 -91.76c-4.19,2.4 -9.29,3.15 -15.29,2.25 -6,-0.9 -11.09,-4.64 -15.29,-11.24 -9.6,-12.6 -21.29,-18.89 -35.09,-18.89 -12.59,0 -23.83,2.85 -33.73,8.54 -9.89,5.7 -18.59,13.2 -26.09,22.49 -7.49,9.3 -13.64,19.64 -18.44,31.04 -4.8,11.39 -8.09,22.79 -9.89,34.18 -3,20.99 0.6,38.68 10.79,53.08 10.2,14.39 26.09,21.59 47.68,21.59 17.39,0.6 37.03,-2.85 58.92,-10.35 21.89,-7.5 42.43,-17.24 61.62,-29.24 8.4,-3.59 16.19,-5.69 23.39,-6.29 7.2,-0.6 13.19,3 17.99,10.79 6,9.6 4.5,19.34 -4.5,29.24 -8.99,9.89 -20.99,18.74 -35.98,26.54 -14.99,8.39 -30.73,15.74 -47.23,22.04 -16.49,6.29 -33.13,10.79 -49.92,13.49 -16.79,2.7 -33.44,2.85 -49.93,0.45 -16.49,-2.4 -31.93,-8.1 -46.33,-17.09 -22.79,-15.6 -36.58,-37.78 -41.38,-66.57 -4.79,-28.79 -2.7,-58.47 6.3,-89.06 3.6,-11.39 8.7,-22.94 15.29,-34.63 6.6,-11.7 14.55,-22.34 23.84,-31.94 9.3,-9.59 19.64,-17.84 31.04,-24.73 11.39,-6.9 23.99,-11.55 37.78,-13.95 22.19,-3.6 43.48,-1.35 63.87,6.75 20.39,8.09 33.88,22.94 40.48,44.53 1.2,4.79 1.2,9.74 0,14.84 -1.2,5.1 -4.5,9.15 -9.9,12.14zm386.92 -9.89c11.4,-0.6 22.79,2.1 34.19,8.1 11.39,5.99 17.09,15.29 17.09,27.88 -1.2,10.2 -6.75,16.64 -16.64,19.34 -9.9,2.7 -17.84,4.05 -23.84,4.05 -11.99,0 -24.89,0.3 -38.68,0.9 -13.8,0.6 -27.89,1.5 -42.28,2.7 -1.2,19.79 -2.25,38.38 -3.15,55.77 -0.9,17.39 -1.65,32.84 -2.25,46.33 -0.6,13.49 -0.9,24.44 -0.9,32.83 0,8.4 0.3,12.9 0.9,13.5 13.19,-2.4 27.44,-6.45 42.73,-12.15 15.29,-5.69 30.59,-11.99 45.88,-18.89 15.29,-6.89 30.28,-14.09 44.98,-21.59 14.69,-7.49 28.63,-14.54 41.83,-21.14 5.99,-3 11.54,-3.89 16.64,-2.7 5.1,1.2 8.25,3.9 9.44,8.1 1.2,6.6 0.3,14.69 -2.69,24.29 -3,9.59 -8.4,18.29 -16.2,26.09 -8.99,7.19 -20.84,15.44 -35.53,24.73 -14.69,9.3 -30.43,18.15 -47.23,26.54 -16.79,8.4 -33.73,15.74 -50.82,22.04 -17.09,6.3 -32.24,10.05 -45.43,11.25 -19.79,1.8 -34.78,-3.6 -44.98,-16.2 -10.19,-12.59 -15.89,-28.48 -17.09,-47.67 -1.2,-19.19 -1.35,-41.38 -0.45,-66.57 0.9,-25.19 1.95,-51.88 3.15,-80.06 -11.4,1.2 -22.34,2.25 -32.84,3.15 -10.49,0.89 -20.54,1.94 -30.13,3.14 -7.8,0 -16.34,-1.8 -25.64,-5.39 -9.3,-3.6 -13.94,-10.5 -13.94,-20.69 0,-3.6 1.5,-8.4 4.49,-14.4 3,-5.99 9.6,-10.49 19.79,-13.49 24.59,-4.2 51.88,-7.8 81.87,-10.8 1.79,-28.18 3.89,-55.47 6.29,-81.86 2.4,-26.38 4.5,-50.37 6.3,-71.96 0.6,-7.2 2.7,-13.5 6.3,-18.89 3.6,-5.4 7.49,-8.1 11.69,-8.1 10.2,-0.6 19.94,1.95 29.24,7.65 9.29,5.69 13.94,12.14 13.94,19.34 -2.4,20.39 -4.65,43.48 -6.75,69.27 -2.1,25.78 -4.04,52.17 -5.84,79.16 11.99,-1.2 23.54,-1.95 34.63,-2.25 11.09,-0.3 21.74,-0.75 31.93,-1.35zm377.93 -125.94c-1.2,6 -5.4,9.29 -12.59,9.89 -7.2,0.6 -13.2,0.9 -18,0.9 -14.99,0.6 -30.43,2.1 -46.32,4.5 -15.9,2.4 -32.54,6 -49.93,10.8 -7.2,2.4 -14.99,1.5 -23.39,-2.7 -8.39,-4.2 -13.49,-12.6 -15.29,-25.19 0,-4.8 1.8,-8.7 5.4,-11.69 3.59,-3 7.79,-5.7 12.59,-8.1 7.8,-3.6 17.09,-6.75 27.89,-9.45 10.79,-2.69 21.74,-4.64 32.83,-5.84 11.1,-1.2 21.74,-1.65 31.94,-1.35 10.19,0.3 18.59,1.35 25.18,3.15 9.6,2.99 17.25,7.49 22.94,13.49 5.7,6 7.95,13.19 6.75,21.59zm-20.69 299.56c4.2,9.59 6.45,19.94 6.75,31.03 0.3,11.1 -2.85,18.74 -9.45,22.94 -8.39,5.4 -17.39,5.1 -26.99,-0.9 -9.59,-6 -16.79,-14.09 -21.59,-24.29 -6.59,-12.59 -11.69,-28.03 -15.29,-46.33 -3.6,-18.29 -6.3,-36.43 -8.09,-54.42 -1.8,-17.99 -2.85,-34.78 -3.15,-50.38 -0.3,-15.59 -0.45,-27.28 -0.45,-35.08 0.6,-8.39 3,-16.19 7.19,-23.39 4.2,-7.19 9.6,-11.39 16.2,-12.59 10.79,0.6 19.49,5.55 26.08,14.84 6.6,9.3 9.6,20.84 9,34.63 0,10.8 0.3,22.79 0.9,35.99 0.6,13.19 1.8,26.38 3.6,39.58 1.8,13.19 3.9,25.94 6.29,38.23 2.4,12.29 5.4,22.34 9,30.14zm358.14 -163.73c-4.19,2.4 -9.29,3.15 -15.29,2.25 -6,-0.9 -11.09,-4.64 -15.29,-11.24 -9.6,-12.6 -21.29,-18.89 -35.09,-18.89 -12.59,0 -23.83,2.85 -33.73,8.54 -9.89,5.7 -18.59,13.2 -26.09,22.49 -7.49,9.3 -13.64,19.64 -18.44,31.04 -4.8,11.39 -8.09,22.79 -9.89,34.18 -3,20.99 0.6,38.68 10.79,53.08 10.2,14.39 26.09,21.59 47.68,21.59 17.39,0.6 37.03,-2.85 58.92,-10.35 21.89,-7.5 42.43,-17.24 61.62,-29.24 8.4,-3.59 16.19,-5.69 23.39,-6.29 7.2,-0.6 13.19,3 17.99,10.79 6,9.6 4.5,19.34 -4.5,29.24 -8.99,9.89 -20.99,18.74 -35.98,26.54 -14.99,8.39 -30.73,15.74 -47.23,22.04 -16.49,6.29 -33.13,10.79 -49.92,13.49 -16.79,2.7 -33.44,2.85 -49.93,0.45 -16.49,-2.4 -31.93,-8.1 -46.33,-17.09 -22.79,-15.6 -36.58,-37.78 -41.38,-66.57 -4.79,-28.79 -2.7,-58.47 6.3,-89.06 3.6,-11.39 8.7,-22.94 15.29,-34.63 6.6,-11.7 14.55,-22.34 23.84,-31.94 9.3,-9.59 19.64,-17.84 31.04,-24.73 11.39,-6.9 23.99,-11.55 37.78,-13.95 22.19,-3.6 43.48,-1.35 63.87,6.75 20.39,8.09 33.88,22.94 40.48,44.53 1.2,4.79 1.2,9.74 0,14.84 -1.2,5.1 -4.5,9.15 -9.9,12.14zm389.62 -82.76c17.99,6.6 33.14,16.5 45.43,29.69 12.3,13.19 21.74,28.04 28.34,44.53 6.6,16.49 10.34,33.43 11.24,50.82 0.9,17.4 -1.05,33.59 -5.84,48.58 -6.6,16.79 -15,33.28 -25.19,49.48 -10.2,16.19 -21.89,30.58 -35.09,43.18 -13.19,12.59 -28.18,22.79 -44.97,30.58 -16.8,7.8 -35.39,11.7 -55.78,11.7 -24.59,0 -45.28,-5.7 -62.07,-17.1 -16.79,-11.39 -29.98,-26.08 -39.58,-44.07 -9.59,-18 -15.74,-38.39 -18.44,-61.18 -2.7,-22.78 -2.25,-45.57 1.35,-68.36 2.4,-16.79 6.45,-33.14 12.14,-49.03 5.7,-15.89 13.05,-29.98 22.04,-42.28 9,-12.29 19.34,-22.34 31.04,-30.13 11.69,-7.8 25.04,-11.7 40.03,-11.7 8.4,0 18.89,1.65 31.48,4.95 12.6,3.3 24.29,7.94 35.09,13.94 7.79,-7.19 17.39,-8.39 28.78,-3.6zm-34.18 65.67c-6.6,-4.2 -14.24,-9.74 -22.94,-16.64 -8.7,-6.9 -16.34,-10.34 -22.94,-10.34 -7.19,0 -14.24,3.29 -21.14,9.89 -6.89,6.6 -12.89,14.24 -17.99,22.94 -5.1,8.7 -9.45,17.54 -13.04,26.54 -3.6,8.99 -6,16.19 -7.2,21.59 -1.8,8.99 -3,19.79 -3.6,32.38 -0.6,12.6 0.3,25.04 2.7,37.33 2.4,12.3 7.05,23.39 13.94,33.29 6.9,9.89 17.25,16.94 31.04,21.14 8.4,2.4 18.29,2.25 29.68,-0.45 11.4,-2.7 22.64,-7.65 33.74,-14.85 11.09,-7.19 21.59,-16.79 31.48,-28.78 9.9,-12 17.55,-25.79 22.94,-41.38 6,-17.39 6.15,-35.53 0.45,-54.43 -5.69,-18.89 -17.24,-32.53 -34.63,-40.93 -4.2,3 -8.4,4.5 -12.59,4.5 -4.2,0 -7.5,-0.6 -9.9,-1.8z"/>
    <path class="fil10" d="M6662.75 6908.82c-1.2,-6.59 -2.4,-12.89 -3.6,-18.89 -1.2,-6 -4.19,-9.89 -8.99,-11.69 -10.2,-3 -20.99,-3.3 -32.39,-0.9 -11.39,2.4 -21.89,6.14 -31.48,11.24 -9.6,5.1 -17.69,10.8 -24.29,17.09 -6.6,6.3 -10.2,11.85 -10.79,16.65 -1.8,8.99 0.59,17.69 7.19,26.08 6.6,8.4 16.19,16.8 28.79,25.19 20.99,12.6 42.88,25.49 65.67,38.68 22.79,13.2 41.98,26.69 57.57,40.48 15.59,13.8 26.24,28.94 31.93,45.43 5.7,16.49 4.35,35.23 -4.04,56.22 -6.6,16.2 -18.9,29.39 -36.89,39.59 -17.99,10.19 -37.78,18.14 -59.37,23.83 -21.59,5.7 -43.18,9.6 -64.77,11.7 -21.59,2.1 -39.88,3.15 -54.87,3.15 -3.6,0 -7.95,-1.35 -13.04,-4.05 -5.1,-2.7 -9.9,-5.85 -14.4,-9.45 -4.5,-3.59 -8.39,-7.34 -11.69,-11.24 -3.3,-3.9 -4.95,-7.35 -4.95,-10.35 0,-10.79 4.8,-18.29 14.39,-22.48 9.6,-4.2 19.49,-6.3 29.69,-6.3 14.39,0 29.83,-0.75 46.33,-2.25 16.49,-1.5 32.23,-3.9 47.22,-7.2 15,-3.3 28.49,-7.64 40.48,-13.04 12,-5.4 20.4,-12.3 25.19,-20.69 4.2,-7.2 1.65,-15.74 -7.64,-25.64 -9.3,-9.89 -21.59,-20.24 -36.89,-31.03 -15.29,-10.8 -31.78,-21.29 -49.47,-31.49 -17.69,-10.19 -32.84,-19.49 -45.43,-27.89 -12.59,-8.39 -23.39,-18.44 -32.38,-30.13 -9,-11.7 -14.7,-26.24 -17.1,-43.63 -0.6,-15.59 2.7,-30.59 9.9,-44.98 7.2,-14.39 16.64,-27.14 28.33,-38.23 11.7,-11.1 25.04,-19.94 40.04,-26.54 14.99,-6.59 29.98,-9.89 44.97,-9.89 25.79,1.2 47.08,8.24 63.87,21.14 16.8,12.89 26.69,31.93 29.69,57.12 0,8.4 -1.35,15.29 -4.05,20.69 -2.7,5.4 -7.34,8.7 -13.94,9.89 -8.4,1.2 -15.14,0.15 -20.24,-3.14 -5.1,-3.3 -7.95,-7.65 -8.55,-13.05z"/>
   </g>
  </g>
 </g>
</svg>
