<?xml version="1.0" encoding="UTF-8"?>
<!DOCTYPE svg PUBLIC "-//W3C//DTD SVG 1.1//EN" "http://www.w3.org/Graphics/SVG/1.1/DTD/svg11.dtd">
<!-- Creator: CorelDRAW 2017 -->
<svg xmlns="http://www.w3.org/2000/svg" xml:space="preserve" width="50.7998mm" height="33.8666mm" version="1.1" style="shape-rendering:geometricPrecision; text-rendering:geometricPrecision; image-rendering:optimizeQuality; fill-rule:evenodd; clip-rule:evenodd"
viewBox="0 0 5079.98 3386.66"
 xmlns:xlink="http://www.w3.org/1999/xlink">
 <defs>
  <style type="text/css">
   <![CDATA[
    .fil0 {fill:none}
    .fil2 {fill:#373435}
    .fil5 {fill:#0041DA}
    .fil3 {fill:#00721E}
    .fil1 {fill:#0E3D95}
    .fil6 {fill:#720074}
    .fil4 {fill:#D30001}
    .fil8 {fill:#E1D600}
    .fil7 {fill:#E67800}
   ]]>
  </style>
 </defs>
 <g id="Capa_x0020_1">
  <metadata id="CorelCorpID_0Corel-Layer"/>
  <rect class="fil0" x="-0.01" width="5079.99" height="3386.66"/>
  <path class="fil1" d="M4354.42 1137.56l6.94 11.77 -6.94 -11.77zm0 0l-163.02 -259.63c-187.6,0 -150.96,-37.48 -150.96,181.14 0,112.7 0,225.42 0,338.13l132.84 0c0,-50.33 0,-100.64 0,-150.96l6.1 -132.89 32.18 58.39c35.94,66.4 97.39,150.94 136.82,225.46l132.84 0 0 -519.27c-160.99,0 -135.53,-35.25 -133.08,163.25 0.44,35.82 6.28,54.23 6.28,96.38zm-3037.13 138.88l-48.31 0 0 -277.75c84.11,0 132.84,28.3 132.84,138.87 0,57.85 -30.03,138.88 -84.53,138.88zm-205.3 120.76l229.45 0c122.22,0 223.41,-110.87 223.41,-235.49 0,-97.46 -3.11,-146.28 -79.87,-222.03 -81.87,-80.8 -239.33,-61.75 -372.99,-61.75l0 519.27zm-374.35 -205.3c0,-61.87 -14.44,-199.25 72.46,-199.25 80.1,0 66.41,126.6 66.41,181.13 0,164.83 -138.87,133.12 -138.87,18.12zm-175.11 -54.34c0,225.78 192.8,315.75 346.12,249.51 33.48,-14.47 51.54,-33.98 75.19,-57.65 114.42,-114.61 101.26,-457.53 -179.78,-457.53 -148.46,0 -241.53,117.34 -241.53,265.67zm1068.73 259.64l150.96 0c0,-92.02 -11.29,-106.75 19.2,-149.86 11,-15.55 18.46,-20.08 23.07,-37.33l12.07 0c1.56,18.74 28.78,75.94 38.22,94.63 9.18,18.23 12.16,26.88 20.43,45.98 8.4,19.39 15.02,25.89 19.85,46.58l175.09 0c-11.52,-21.79 -19.28,-44.54 -30.1,-66.51 -20.25,-41.12 -130.23,-243.3 -122.85,-267.57l122.77 -185.19 -144.91 0 -132.84 205.28 0.51 -163.54c0.42,-53.76 11.57,-41.74 -151.47,-41.74l0 519.27zm495.12 -501.16l0 501.16 386.44 0 0 -126.8 -229.45 0 0 -78.5 187.18 0 0 -120.76 -187.18 0 0 -66.41 229.45 0 0 -126.8 -368.33 0c-13.91,0 -18.11,4.19 -18.11,18.11zm1038.54 150.95l42.28 132.83 -78.5 0c7.92,-16.49 34.4,-110.91 36.22,-132.83zm-223.4 350.21l132.84 0c2.15,-25.9 20.8,-83.09 30.18,-102.65l132.84 0c3.15,37.81 21.01,64.83 24.16,102.65l163.02 0 -156.98 -519.27 -169.07 0c-30.82,132.28 -129.26,400.19 -156.99,519.27zm1805.37 -356.25c0.81,1.27 1.68,1.92 1.95,4.09l19.76 64.77c5.04,20.18 13.78,55.89 20.56,70.01l-78.49 0c7.46,-15.55 35.75,-117.78 36.22,-138.87zm-223.4 356.25l132.83 0c3.14,-37.82 21.01,-64.84 24.15,-102.65l138.88 0c3.05,36.52 21.42,69.75 24.16,102.65l163.02 0c-19.36,-83.11 -55.41,-175.21 -78.5,-259.64l-39.92 -129.13c-7.96,-23.72 -13.1,-43.41 -19.69,-64.86 -6.78,-22.08 -16.86,-41.45 -18.87,-65.64l-169.08 0c-10.05,43.16 -24.09,86.98 -38.42,130.62l-118.56 388.65zm-4287.02 0l163.04 0 79.28 -258.85c13.95,-41.2 25.92,-84.31 39.3,-129.77l38.4 -130.65 -126.8 0c-13.84,26.16 -71.58,235.67 -84.31,284.01 -6.04,22.92 -2.34,24.28 -18.33,36 -0.37,-16.23 -73.89,-285.26 -90.58,-320.01l-163.02 0 163.02 519.27zm2336.73 0l362.29 0 0 -126.8 -205.3 0 0 -392.47 -156.99 0 0 519.27zm821.17 -501.16l0 108.69c71.6,0 108.69,-10.25 108.69,18.11l0 374.36 150.94 0 0 -392.47 102.66 0 0 -126.8 -344.17 0c-13.91,0 -18.12,4.19 -18.12,18.11zm404.55 501.16l157 0 0 -519.27 -157 0 0 519.27z"/>
  <path class="fil2" d="M870.78 1826.97l0 0zm662.29 -21.72l0 0zm-510.3 -54.3l0 0zm1183.44 -43.41c-27.62,41.27 -56.73,103.36 -119.42,108.55 3.53,-42.4 8.69,-49.34 38.16,-70.39 26.05,-18.61 49.34,-30.72 81.26,-38.16zm-770.85 0c-23.02,43.48 -65.81,104.1 -119.45,108.55 4.71,-56.26 67.48,-96.45 119.45,-108.55zm770.85 0l0 0zm-770.85 0l0 0zm-228.01 -10.86l0 0zm-184.58 54.27c11.78,-44.09 29.75,-46.39 65.13,-65.13 -9.56,35.85 -29.27,55.56 -65.13,65.13zm184.58 -54.27c4.07,-48.89 33.41,-98.18 65.15,-119.43l-41.09 89.2c-8.32,12.28 -16.14,21.09 -24.06,30.23zm-43.42 186.7l32.56 -0.25c1.91,-1.89 5.06,-7.34 5.95,-5.47 1.19,2.5 6.35,-5.89 11.71,-10.93 40.44,-37.96 32.21,-40.75 69.19,-50.64 3.6,43.25 4.41,35.43 32.57,54.31 43.1,-11.51 49.54,-40.14 86.88,-65.15l0 75.99c71.45,-1.58 86.53,-46.7 130.28,-75.99 0,52.08 -6.58,93.67 58.64,71.98 38.87,-12.94 44.59,-48.1 93.36,-61.14 4.17,50.05 8.76,29.62 32.56,65.15 35.97,-8.38 68.44,-29.11 86.87,-54.27 38.46,13.92 18.59,23.04 54.29,32.57 14.33,-21.44 27.1,-33.23 43.28,-54.45 20.21,-26.49 26.05,-35.12 54.43,-54.14 -8.34,31.25 -57.27,86.27 -23.16,120.38 28,28 77.8,-40.92 99.17,-55.24 33.55,24.6 14.62,27.73 54.28,54.31 43.09,-11.51 49.51,-40.14 86.85,-65.15 -11.58,49.72 -11.58,26.27 0,75.99 59.86,-1.33 116.96,-51.3 130.3,-108.57 -28.02,18.75 -128.77,86.67 -72.23,-16.78 94.74,-173.36 -69.72,-113.26 -147.94,-40.53 -29.15,27.12 -21.92,31.02 -41.73,56l-63.82 44.73c5.95,-71.56 124.85,-148.65 35.33,-149.55 -37.13,-0.36 -108.21,93.09 -143.9,116.97 13.47,-50.47 49.16,-47.06 54.28,-108.55 -111.09,9.24 -62.82,138.19 -195.44,141.13 1.51,-67.55 17.32,-46.1 50.73,-91.7 48.53,-66.19 -5.93,-121.07 -95.54,36.02 -23.5,41.21 -43.39,54.5 -96.34,55.68 15.64,-187.88 125.24,-72.55 120.21,-198.91 -1.23,-30.62 5.95,-1.04 10.08,-50.79 -55.34,4.6 -12.57,-7.9 -46.26,18.88 -32.15,25.57 -3.37,17.65 -44.02,31.97 -31.13,10.97 -30.36,-1.33 -56.34,19.67 -13.72,11.08 -22.46,31.57 -27.08,48.91 14.69,6.9 -2.12,2.43 17.05,2.44 6.53,0 27.2,-2.23 37.22,-2.44 -20.93,31.27 -90.7,132.38 -131.34,125.62 -63.49,-10.56 15.75,-40.62 20.07,-115.8l2.72 -53.25c-83.08,0 -153.89,45.41 -195.48,97.68 -15.02,18.83 -21.58,38.34 -40.57,57.9 -57.05,58.71 -95.66,4.42 -54.93,-54.93 12.42,-18.13 26.27,-24.71 45.83,-52.64 118.27,-168.61 79.79,-278.85 -50.27,-72.01 -33.09,52.61 -35.41,74.64 -58.12,137.34 -18.52,51.1 -71.13,85.83 -124.18,60.36 5.81,-53.27 -4.4,-15.93 74.5,-66.63 32.44,-20.85 46.08,-43.75 55.78,-85.36 -128.88,-68.19 -166.85,134.93 -271.43,162.87 17.17,-64.37 91.13,-127.25 97.71,-206.3 -51.95,-11 -36.9,-8.41 -70.44,26.78 -50.13,52.59 -147.84,145.27 -222.71,146.94 9.8,-117.51 176.74,-242.73 260.58,-249.73 -30.94,42.24 -17.1,0.71 -32.58,43.45 51.73,-27.39 75.63,-26.8 108.59,-76.01 -6.67,-28.56 -9.89,-31.9 -21.72,-54.29 -94.3,7.84 -210.58,72.99 -268.52,122.37 -46.8,39.86 -100.3,124.2 -89.85,202.52 13.09,98.04 93.07,51.21 142.84,13.33 45.14,-34.38 62.25,-57.74 96.1,-66.79 -79.86,150.89 -68.8,124.24 -155.27,203.03 -34.42,31.36 -40.17,29.37 -40.17,90.11 79.65,-1.76 69.69,-45.96 138.04,-111.67l144.25 -105.46c1.38,62.02 5.48,35.53 32.58,75.99 88,0 91.22,-31.72 141.14,-65.15 7.51,32.23 18.34,43.32 32.58,67.29zm2442.87 -165c-6.52,28.09 -15.59,149.65 -65.3,99.94 -15.27,-15.26 -4.01,-39.16 8.2,-58.06 15.14,-23.41 28.71,-34.29 57.1,-41.88zm119.46 97.71c3.23,-38.94 8.03,-46.84 31.63,-66.06 21.2,-17.28 39.25,-28.5 76.94,-31.65 -19.15,36.2 -68.83,87.12 -108.57,97.71zm597.14 -108.55c-19.88,37.56 -16.02,32.06 -45.69,62.88 -27.44,28.45 -29.68,42.01 -73.74,45.67 4.68,-56.26 67.47,-96.45 119.43,-108.55zm-293.15 75.97c3.09,-4.6 6.13,-10.7 12.89,-19.65 20.88,-27.6 40.03,-47.27 73.96,-56.32 -19.58,37.01 -33.75,71.58 -86.85,75.97zm293.15 -75.97l0 0zm-466.87 86.85c0,-70.74 119.44,-210 119.44,-249.73 0,-41.5 3.32,-3.93 -10.85,-32.56 -40.47,27.1 -85.01,97.5 -97.73,152 -55.45,-12.93 -87.41,1.47 -127.47,35.4 -74.24,62.9 -21.63,58.87 -89.69,94.89 37.69,-161.69 7.41,-52.27 0,-141.15 -168.04,0 -219.88,217.16 -86.85,217.16 32.58,0 25.28,-18.58 60.6,-37.12l58.83 -28.03c7.73,33.21 16.91,41.74 32.59,65.15 40.44,-10.81 63.34,-34.36 88.01,-63.98 1.23,-1.49 3.89,-4.8 4.86,-6.01 1.01,-1.2 3.15,-4.08 4.82,-6.02 0,31.22 -8.42,86.85 21.74,86.85 48.98,0 76.37,-25.86 86.85,-65.15 1.42,2.18 4.06,2.61 4.39,6.44 0.36,4.01 3.2,5.54 3.57,7.32 3.22,15.07 2.54,14.12 2.9,29.69 65.22,-5.43 32.92,-22.73 75.99,-54.29 12.95,55.53 21.92,53.12 65.15,75.99 84.28,-44.59 40.19,-49.77 97.71,-65.15 9.22,39.53 6,34.83 32.58,54.31 43.1,-11.51 49.5,-40.14 86.85,-65.15l0 75.99c58.69,-1.31 125.55,-51.68 130.3,-108.57 -0.22,0.16 -117.95,95.21 -79.14,-0.52 9.08,-22.39 25.12,-30.07 31.18,-55.08 5.64,-23.14 0.99,-7.34 1.92,-28.99 0.56,-12.89 2.25,-29.88 2.61,-45.69 -213.53,0 -210.4,223.84 -314.87,173.7 38.31,-57.21 97.73,-47.99 97.73,-130.27 0,-105.1 -165.61,85.02 -184.58,97.69 9.35,-35.03 1.97,-13.27 23.77,-41.34l169.15 -213.62c46.46,-94.36 -72.63,-20.37 -186.63,152.7 -23.79,36.11 -32.75,72.34 -52.54,99.65 -15.74,21.73 -73.19,74.68 -73.19,13.49zm-890.3 -32.58l0 0zm-206.28 -43.43c-9.66,41.41 -10.86,43.16 -10.86,97.71 -43.54,10.15 -71.57,22.3 -56.37,-31.89 10.19,-36.45 32.52,-56.56 67.23,-65.82zm0 0l0 0zm206.28 43.43c-16.29,69.91 -45.04,53.21 -10.86,120.08l10.86 0c42.6,-24.02 94.98,-58.32 108.57,-109.22 -28.8,15.25 -47.18,28.19 -75.99,43.42 7.88,-94.81 75.19,-62.28 54.27,-151.99 -83.68,6.97 -107.45,82.35 -162.86,119.41 15.58,-58.28 49.56,-51.8 54.29,-108.55 -101.06,8.4 -46.1,69.15 -141.14,119.43 18.99,-81.53 29.96,-68.63 0,-141.15 -44.28,0 -49.63,0.88 -79.1,18.61 -73.81,44.39 -56.58,76.49 -91.58,114.72 -13.73,15 -52.84,36.68 -71.99,39.32 -93.11,12.92 -41.94,-86.77 10.78,-85.44l16.35 2.98c61.26,-6.24 92.21,-196.59 -86.33,-22.91 -24.83,24.19 -35.75,25.7 -36.12,73.62 -0.36,46.89 16.57,61.1 33.98,87.1 102.67,0 92.95,-36.45 152.02,-75.99 10.78,129.7 125.49,28.21 125.76,28.07 28.63,-15.45 26.34,-6.35 58.82,-28.07 5.77,24.76 8.39,24.96 10.86,54.29 45.67,-3.8 43.8,-13.2 65.41,-43.16 19.68,-27.24 25.12,-35.24 54,-54.57zm195.42 -65.13c32.5,-0.72 192.71,-40.84 76.03,-43.44 21.43,-32.03 82.07,-82.84 130.28,-86.85 -13.96,52.18 -108.58,161.31 -108.58,260.58 0,36.58 19.17,75.99 54.27,75.99 46.81,0 230.74,-271.23 238.87,-369.16 -83.54,6.96 -51.64,71.43 -110.52,160.94 -30.82,46.86 -72.5,128.17 -128.35,143.09 0,-72.98 44.04,-132.75 72.23,-188.37 28.99,-57.13 67.34,-94.8 65.91,-125.62 -4.88,-104.31 -169.61,5.49 -199.09,25 -59.07,39.12 -91.05,53.65 -91.05,147.84zm-1378.87 -54.29c35.12,-0.79 41.63,4.1 56.46,-21.18 7.57,-12.87 13.83,-43.96 -13.03,-43.96 -38.65,0 -42.53,25.73 -43.43,65.14z"/>
  <g id="_2486766445008">
   <path class="fil3" d="M2730.96 2557.59c0,-321.12 208.32,-260.39 208.32,-78.13 0,83.28 18.6,302.48 -116.4,273.21 -78.03,-16.92 -91.92,-128.81 -91.92,-195.08zm120.43 364.56l-72.62 0c-183.54,-11.48 -316.32,-218.21 -288.7,-431.85 29.28,-226.41 160.56,-336.87 397.13,-331.49l8.68 0 18.84 6.79c90.92,27.73 140.52,36.92 208.76,138.35 51.66,76.8 74.77,175.63 60.5,289.99 -25.81,206.94 -135.06,316.68 -332.59,328.21z"/>
   <path class="fil4" d="M465.43 2514.19c0,113.63 4.7,206.76 76.61,296.62 49.86,62.31 124.47,99.89 203.31,111.34l103.61 0c128.64,-18.9 244.79,-109.38 258.8,-277.76l-208.33 -17.37c-19.66,84.44 -19.29,121.53 -104.16,121.53 -126.67,0 -105.68,-278.16 -72.46,-358.92 35.45,-86.17 167.95,-95.38 167.95,81.15 84.43,0 133.88,-8.67 217,-8.67 0,-88.75 -43.64,-168.79 -85.23,-218.58 -127.25,-152.37 -557.1,-123.52 -557.1,270.66z"/>
   <path class="fil5" d="M3598.98 2470.78l-95.48 0 0 -138.88 112.85 0c98.66,0 107,138.88 -17.37,138.88zm-321.17 442.69l225.69 0 0 -277.76c91.78,0 58.04,-35.29 146.25,200.95 9.34,25 21.99,53.8 27.35,76.81l251.73 0c-19.16,-82.22 -120.12,-266.99 -121.53,-329.84 152.18,-35.46 234.12,-416.65 -182.28,-416.65l-347.21 0 0 746.49z"/>
   <path class="fil6" d="M3998.27 2375.3c0,114.7 20.38,188.3 157.17,233.44 93.54,30.86 223.32,38.6 228.05,89.68 7.32,79.05 -186.67,70.42 -211.62,-36.67 -58.49,0 -156.39,22.62 -208.32,34.72 1.25,55.89 53.95,130.86 86.41,156.64 48.71,38.68 115.95,61.57 187.07,69.04l104.71 0c142.85,-14.9 272.82,-90.95 272.82,-225.68 0,-109.39 -23.57,-192.71 -149.37,-232.55 -129.49,-41.01 -241.24,-34.88 -241.24,-97.3 0,-56.62 158.82,-53.19 182.29,34.72 58.92,-4.9 127.45,-46.8 190.96,-52.08 -65.1,-279.43 -598.93,-237.36 -598.93,26.04z"/>
   <path class="fil7" d="M1498.37 2331.9c123.27,0 104.16,171.63 104.16,269.08 0,188.03 -160.76,199.59 -193.31,63.12 -22.98,-96.34 -24.71,-332.2 89.15,-332.2zm55.89 590.25l-114.87 0c-24.6,-3.76 -48.25,-9.94 -70.18,-18.4 -242.53,-93.49 -274.47,-427.83 -140.08,-615.4 84.59,-118.04 175.42,-109.85 225.84,-128.34l26.04 -0.2c234.99,-15.95 350.36,145.18 372.34,355.89 3.72,35.65 -10.77,129.59 -19.76,160.1 -11.87,40.27 -38.31,91.63 -60.85,121.43 -54.91,72.61 -135.89,112.47 -218.48,124.92z"/>
   <polygon class="fil8" points="1941.07,2913.47 2461.88,2913.47 2461.88,2731.19 2166.75,2731.19 2166.75,2166.98 1941.07,2166.98 "/>
  </g>
 </g>
</svg>
