<?xml version="1.0" encoding="UTF-8"?>
<!DOCTYPE svg PUBLIC "-//W3C//DTD SVG 1.1//EN" "http://www.w3.org/Graphics/SVG/1.1/DTD/svg11.dtd">
<!-- Creator: CorelDRAW 2017 -->
<svg xmlns="http://www.w3.org/2000/svg" xml:space="preserve" width="50.7998mm" height="33.8666mm" version="1.1" style="shape-rendering:geometricPrecision; text-rendering:geometricPrecision; image-rendering:optimizeQuality; fill-rule:evenodd; clip-rule:evenodd"
viewBox="0 0 5079.98 3386.66"
 xmlns:xlink="http://www.w3.org/1999/xlink">
 <defs>
  <style type="text/css">
   <![CDATA[
    .fil0 {fill:none}
    .fil1 {fill:#F58634}
    .fil3 {fill:#727376;fill-rule:nonzero}
    .fil2 {fill:#F58634;fill-rule:nonzero}
   ]]>
  </style>
 </defs>
 <g id="Capa_x0020_1">
  <metadata id="CorelCorpID_0Corel-Layer"/>
  <rect class="fil0" x="-0" width="5079.99" height="3386.66"/>
  <g id="_2188926025424">
   <g>
    <path class="fil1" d="M461.08 1465.16l-36.61 -268c11.25,-0.89 22.52,-1.33 33.8,-1.33 5.98,0 11.97,0.12 17.94,0.38l-15.13 268.95z"/>
    <polygon class="fil1" points="37.63,1703.46 302.22,1653.43 302.22,1653.44 "/>
    <polygon class="fil1" points="595.68,1544.32 828.7,1409.32 595.69,1544.32 "/>
    <polygon class="fil1" points="874.47,1523.68 612.67,1586.74 612.67,1586.74 "/>
    <path class="fil1" d="M616.45 1637.86l0.01 0 0.13 -1.55 -0.14 1.55zm0.53 -8.9l0.01 -0.15 -0.01 0 0 0.15zm-4.39 32.54l0 0 -0.17 0.7 0.17 -0.7zm-4.21 14.33l-0.16 0.46 0 0 0.16 -0.46zm6.99 -75.16l0 0 -0.07 -0.45 0.07 0.45zm-2.64 -13.72l-0.05 -0.21 -0.01 0 0.06 0.21zm-4.26 -14.65l0.01 0 -0.04 -0.1 0.03 0.1zm-14.06 133.41l0 0 0.16 -0.26 -0.16 0.26zm8.88 -16.99l0.12 -0.27 -0.01 0 -0.11 0.27zm-85.19 82.33l-0.19 0.09 0 -0.01 0.19 -0.08zm-68 11.46c-1.32,-0.06 -2.64,-0.14 -3.94,-0.24l3.94 0.24zm-4.05 -0.26l-0.49 -0.03 0 -0.01 0.49 0.04zm-22.39 -3.32l-0.81 -0.18 0.81 0.17 0 0.01zm-124.06 -161.4l0.07 -1.36 -0.05 1.36 -0.02 0zm0.76 -10.41l0.22 -1.91 0 0 -0.22 1.91zm4.24 -23.35l0.73 -2.69 -0.72 2.69 -0.01 0zm3.41 -11.29c0.31,-0.95 0.64,-1.89 0.99,-2.82l0.01 0 -1 2.82zm9.59 -22.28l0.32 -0.61 -0.31 0.62 -0.01 -0.01z"/>
    <path class="fil1" d="M445.73 1465.63l-21.26 -268.47c11.25,-0.89 22.52,-1.33 33.81,-1.33 5.97,0 11.96,0.11 17.93,0.37l-11.28 269.08 -0.1 0 -0.1 0 -0.11 -0.01 -0.11 -0.01 -0.1 0 -0.1 0 -0.1 -0.01 -0.11 0 -0.1 -0.01 -0.1 0 -0.11 0 -0.1 -0.01 -0.11 0 -0.1 -0.01 -0.1 0 -0.11 0 -0.1 0 -0.11 0 -0.09 -0.01 -0.11 0 -0.11 -0.01 -0.62 -0.02 -0.1 0 -0.11 0 -0.1 0 -0.11 0 -0.1 -0.01 -0.1 0 -0.11 0 -0.1 -0.01 -0.1 0 -0.11 0 -2.41 -0.02 -0.1 0 -0.1 0 -0.1 0 -0.11 0 -0.2 0 -0.2 0 -2.95 0.03 -0.2 0.01 -0.2 0 -0.19 0 -0.15 0 -0.05 0.01 -0.2 0.01 -0.19 0 -0.2 0.01 -0.2 0.01 -0.19 0 -0.2 0 -0.2 0.01 -0.19 0.01 -0.78 0.03 -0.2 0.01 -0.39 0.02 -0.2 0.01 -0.19 0 -0.2 0.01 -0.2 0.01 -0.19 0.01 -0.59 0.03 -0.19 0.02 -0.19 0.01 -0.2 0.01 -0.19 0.01 -1.56 0.1 -0.2 0.01 -0.19 0.02 -0.2 0.01 -0.19 0.01 -0.19 0.02 -0.2 0.01 -0.39 0.03z"/>
    <path class="fil1" d="M411.56 1472.13l-79.2 -257.36c15.15,-4.67 30.53,-8.48 46.1,-11.44l50.21 264.57c-5.83,1.1 -11.53,2.51 -17.11,4.23z"/>
    <path class="fil1" d="M375.72 1488.25l-139.98 -230.03c20.02,-12.19 41.02,-22.72 62.77,-31.45l100.49 249.81c-8.12,3.27 -15.9,7.17 -23.28,11.67z"/>
    <path class="fil1" d="M347.99 1509.69l-187.05 -193.76c12.41,-11.98 25.53,-23.2 39.3,-33.6l162.32 214.9c-5.1,3.85 -9.97,8.02 -14.57,12.46z"/>
    <path class="fil1" d="M325 1537.58l-226 -146.44c10.74,-16.59 22.63,-32.42 35.57,-47.37l203.64 176.24c-4.8,5.53 -9.21,11.4 -13.21,17.57z"/>
    <path class="fil1" d="M309.01 1569.66l-253.08 -92.01c6.55,-17.99 14.29,-35.51 23.17,-52.47l238.51 125.02c-3.28,6.25 -6.17,12.74 -8.6,19.46z"/>
    <path class="fil1" d="M300.58 1605.21l-267.43 -31.73c2.31,-19.5 5.96,-38.81 10.93,-57.79l260.53 68.08c-1.82,6.97 -3.17,14.13 -4.03,21.44z"/>
    <path class="fil1" d="M300.17 1638.68l-268.14 25.01c-1.24,-13.22 -1.86,-26.49 -1.86,-39.76 0,-5.76 0.11,-11.51 0.36,-17.26l269.09 10.86c-0.08,2.12 -0.14,4.25 -0.14,6.4 0,4.97 0.25,9.89 0.69,14.75z"/>
    <path class="fil1" d="M309.47 1679.44l-252.3 94.11c-8.49,-22.77 -15.03,-46.21 -19.54,-70.09l264.59 -50.03c1.69,8.95 4.13,17.65 7.25,26.01z"/>
    <path class="fil1" d="M324.19 1709.02l-227.37 144.3c-10.19,-16.04 -19.29,-32.76 -27.26,-50.02l244.5 -112.82c2.97,6.42 6.36,12.61 10.13,18.54z"/>
    <path class="fil1" d="M351.79 1741.71l-180.62 199.78c-19.23,-17.38 -36.84,-36.48 -52.62,-57.06l213.72 -163.87c5.86,7.62 12.39,14.72 19.52,21.15z"/>
    <path class="fil1" d="M376.74 1760.21l-138.27 231.08c-16.15,-9.66 -31.65,-20.38 -46.39,-32.08l167.46 -210.92c5.46,4.34 11.2,8.31 17.2,11.92z"/>
    <path class="fil1" d="M406.88 1774.21l-87.14 254.78c-15.85,-5.41 -31.35,-11.75 -46.45,-18.98l116.35 -242.85c5.57,2.68 11.33,5.03 17.24,7.05z"/>
    <path class="fil1" d="M445.57 1782.21l-21.57 268.45c-19.86,-1.6 -39.6,-4.58 -59.05,-8.93l58.71 -262.81c7.13,1.6 14.45,2.7 21.91,3.29z"/>
    <path class="fil1" d="M483.83 1780.66l43.33 265.79c-16.39,2.67 -32.93,4.39 -49.53,5.15l-12.18 -269.05c6.23,-0.28 12.36,-0.91 18.38,-1.89z"/>
    <path class="fil1" d="M573.92 1732.73l196.15 184.55c-9.96,10.58 -20.44,20.65 -31.42,30.16l-176.38 -203.52c4.07,-3.53 7.96,-7.27 11.65,-11.19z"/>
    <path class="fil1" d="M517.91 1771.13l101.1 249.57c-16.3,6.62 -33.01,12.21 -50.01,16.76l-69.65 -260.12c6.35,-1.69 12.55,-3.77 18.56,-6.21z"/>
    <path class="fil1" d="M546.63 1755.89l149.82 223.77c-14.44,9.66 -29.45,18.44 -44.96,26.29l-121.53 -240.31c5.76,-2.92 11.33,-6.17 16.67,-9.75z"/>
    <path class="fil1" d="M479.2 1466.51l35.5 -266.95c21.13,2.82 42.01,7.19 62.48,13.11l-74.79 258.68c-7.51,-2.17 -15.26,-3.79 -23.19,-4.84z"/>
    <path class="fil1" d="M516.13 1476.01l98.06 -250.78c12.91,5.05 25.57,10.72 37.93,17l-121.93 240.09c-4.57,-2.31 -9.25,-4.43 -14.06,-6.31z"/>
    <path class="fil1" d="M543.99 1490.25l145.36 -226.7c18.03,11.57 35.16,24.46 51.27,38.58l-177.62 202.45c-5.95,-5.23 -12.31,-10.03 -19.01,-14.33z"/>
    <path class="fil1" d="M572.84 1513.99l194.31 -186.48c14.57,15.18 28.01,31.42 40.19,48.57l-219.59 155.91c-4.53,-6.37 -9.52,-12.38 -14.91,-18z"/>
    <path class="fil1" d="M595.68 1544.32l233.02 -135c10.85,18.72 20.25,38.23 28.15,58.36l-250.7 98.28c-2.95,-7.51 -6.46,-14.74 -10.47,-21.64z"/>
    <path class="fil1" d="M608.22 1676.28l254.23 88.77c-3.88,11.09 -8.2,22.03 -12.99,32.77l-246.06 -109.38c1.76,-3.97 3.38,-8.03 4.82,-12.16z"/>
    <path class="fil1" d="M594.41 1705.71l230.84 138.67c-8.61,14.34 -18.06,28.15 -28.28,41.38l-213.07 -164.72c3.79,-4.89 7.3,-10.01 10.51,-15.33z"/>
    <path class="fil1" d="M608.47 1572.3l254.66 -87.54c4.39,12.79 8.18,25.77 11.34,38.92l-261.8 63.06c-1.18,-4.9 -2.58,-9.72 -4.2,-14.44z"/>
    <path class="fil1" d="M615.37 1600.67l266.39 -39.45c3.07,20.77 4.62,41.72 4.62,62.71 0,4.39 -0.08,8.79 -0.21,13.18l-269.19 -8.3c0.05,-1.62 0.09,-3.24 0.09,-4.88 0,-7.91 -0.59,-15.67 -1.7,-23.26z"/>
    <path class="fil1" d="M616.45 1637.86l268.27 23.62c-1.89,21.47 -5.4,42.77 -10.5,63.71l-261.63 -63.69c1.86,-7.68 3.16,-15.57 3.86,-23.64z"/>
   </g>
   <g>
    <path class="fil2" d="M1122.78 1830.74c-19.42,0 -37.58,-3.31 -54.52,-10.04 -17.01,-6.74 -30.99,-13.81 -42.13,-21.46l0 -70.52 2.59 0c4.19,4.23 9.08,9.02 14.7,14.15 5.61,5.26 13.09,10.62 22.44,16.21 8.29,5.02 17.37,9.36 27.34,13.24 9.99,3.76 20.32,5.7 31,5.7 7.75,0 16.04,-1.14 24.86,-3.54 8.81,-2.28 15.41,-5.25 19.78,-8.9 6.05,-5.13 10.41,-10.61 13.09,-16.43 2.66,-5.82 4.01,-14.6 4.01,-26.24 0,-14.95 -3.13,-26.25 -9.36,-33.89 -6.24,-7.53 -17.37,-13.93 -33.23,-19.06 -6.23,-2.05 -14.43,-4.33 -24.58,-6.85 -10.06,-2.62 -19.42,-5.47 -27.97,-8.55 -22.17,-8.22 -38.39,-21 -48.45,-38.23 -10.07,-17.23 -15.15,-38.11 -15.15,-62.64 0,-33.55 9.89,-60.93 29.75,-82.16 19.87,-21.11 46.15,-31.72 79.01,-31.72 16.21,0 32.52,2.63 48.82,7.76 16.38,5.13 30.1,11.52 41.24,19.4l0 67.32 -2.58 0c-12.47,-12.9 -26.38,-23.05 -41.69,-30.58 -15.32,-7.42 -30.82,-11.18 -46.42,-11.18 -16.02,0 -29.65,4.33 -40.69,13.12 -11.14,8.67 -16.67,21.79 -16.67,39.48 0,15.64 3.3,27.27 9.8,35.03 6.51,7.65 16.93,13.92 31.27,18.94 7.3,2.4 15.41,4.8 24.4,7.07 8.91,2.4 18.35,5.14 28.33,8.22 21.56,6.96 37.76,18.37 48.64,34.35 10.87,16.09 16.29,37.88 16.29,65.5 0,15.97 -2.49,31.26 -7.39,45.53 -4.99,14.37 -12.2,26.7 -21.82,36.96 -10.43,11.07 -22.18,19.51 -35.27,25.34 -13.1,5.81 -29.58,8.67 -49.44,8.67zm399.5 -194.67c0,62.88 -11.85,111.25 -35.45,145.49 -23.69,34.11 -55.14,51.23 -94.42,51.23 -40.53,0 -72.42,-17.69 -95.58,-52.94 -23.25,-35.26 -34.83,-83.19 -34.83,-143.78 0,-62.3 11.94,-110.68 35.9,-145.14 23.87,-34.58 55.41,-51.8 94.51,-51.8 39.28,0 70.73,17.22 94.42,51.57 23.6,34.46 35.45,82.84 35.45,145.37zm-50.78 0c0,-48.03 -6.85,-83.75 -20.57,-107.15 -13.71,-23.39 -33.22,-35.02 -58.52,-35.02 -25.48,0 -45.16,11.63 -58.97,35.02 -13.81,23.4 -20.66,59.12 -20.66,107.15 0,46.55 6.85,81.82 20.66,105.89 13.81,24.08 33.49,36.06 58.97,36.06 25.12,0 44.63,-11.75 58.43,-35.37 13.81,-23.62 20.66,-59.11 20.66,-106.58zm254.4 -273.62l-2.58 0c-4.36,-2.06 -10.6,-4.11 -18.8,-6.05 -8.1,-1.94 -15.4,-2.86 -21.81,-2.86 -20.67,0 -35.37,6.05 -44.1,18.03 -8.82,11.98 -13.18,33.67 -13.18,65.04l0 12.78 80.7 0 0 52.72 -79.1 0 0 320.41 -49.16 0 0 -320.41 -33.14 0 0 -52.72 33.14 0 0 -12.43c0,-45.19 8.45,-79.54 25.29,-102.93 16.84,-23.5 40.97,-35.26 72.42,-35.26 9.08,0 17.9,0.57 26.63,1.83 8.64,1.26 16.57,2.62 23.69,4.22l0 57.63zm105.11 467.6c-26.81,0 -47.74,-9.7 -62.71,-29.21 -14.97,-19.4 -22.44,-50.21 -22.44,-92.2l0 -206.53 -33.14 0 0 -52.72 33.14 0 0 -107.49 49.16 0 0 107.49 90.33 0 0 52.72 -90.33 0 0 177.33c0,18.94 0.27,33.54 0.81,43.69 0.53,10.28 2.49,19.86 5.97,28.76 2.94,7.76 7.74,13.69 14.34,17.57 6.68,3.88 15.59,5.82 26.89,5.82 8.02,0 15.78,-1.6 23.25,-4.68 7.49,-3.08 12.92,-5.59 16.22,-7.64l2.85 0 0 56.37c-9.26,3.42 -18.62,6.05 -28.06,7.87 -9.53,1.94 -18.26,2.85 -26.28,2.85zm443.68 -380.66l-73.75 373.13 -45.34 0 -71.17 -287.66 -70.63 287.66 -45.08 0 -74.55 -373.13 50.77 0 51.66 288.92 69.03 -288.92 40.45 0 70.9 288.92 48.64 -288.92 49.07 0zm201.13 281.05l0 -103.04c-11.58,1.37 -26.28,3.2 -44.01,5.47 -17.81,2.29 -32.15,5.6 -43.01,9.82 -13.01,5.13 -23.79,12.89 -32.25,23.39 -8.46,10.5 -12.74,25.22 -12.74,44.05 0,21.22 4.72,37.31 14.08,48.15 9.35,10.84 22.97,16.31 40.97,16.31 15.51,0 29.4,-4.22 41.86,-12.77 12.48,-8.45 24.24,-18.95 35.1,-31.38zm0 52.15c-4.01,3.88 -9.35,9.12 -16.03,15.97 -6.68,6.73 -13.1,12.21 -19.33,16.2 -8.73,5.82 -17.1,10.27 -25.21,13.35 -8.01,3.08 -19.33,4.68 -33.94,4.68 -12.02,0 -23.33,-2.85 -34.12,-8.67 -10.77,-5.82 -20.21,-13.92 -28.41,-24.42 -7.75,-10.27 -13.98,-22.94 -18.7,-38 -4.72,-14.95 -7.04,-30.81 -7.04,-47.58 0,-25.9 4.28,-47.81 12.74,-66.07 8.55,-18.14 22,-32.52 40.35,-43.24 16.3,-9.59 35.63,-16.2 57.81,-19.86 22.27,-3.65 46.23,-6.39 71.88,-8.21l0 -12.21c0,-14.83 -1.77,-26.81 -5.26,-35.95 -3.47,-9.12 -8.27,-16.2 -14.51,-21.1 -6.33,-5.26 -13.9,-8.68 -22.98,-10.39 -9,-1.71 -18.35,-2.51 -27.88,-2.51 -11.31,0 -24.59,2.17 -39.91,6.62 -15.23,4.45 -30.56,10.95 -45.87,19.4l-2.85 0 0 -63.79c9.08,-3.3 22,-6.96 38.92,-10.95 16.93,-4 33.58,-6.05 50.15,-6.05 20.04,0 36.88,2.05 50.69,6.05 13.71,3.99 26.09,11.18 37.05,21.68 10.6,10.27 18.53,23.62 23.78,39.82 5.26,16.32 7.85,36.17 7.85,59.56l0 255.6 -49.18 0 0 -39.93zm272.48 -265.42l-2.58 0c-3.65,-1.25 -7.57,-1.93 -11.58,-2.28 -4.1,-0.34 -9,-0.46 -14.79,-0.46 -13.18,0 -26.28,3.65 -39.37,10.96 -13,7.41 -25.3,18.26 -36.96,32.75l0 264.38 -49.17 0 0 -373.13 49.17 0 0 55.46c17.9,-20.31 33.48,-34.57 46.76,-42.9 13.27,-8.33 26.19,-12.56 38.75,-12.56 4.99,0 8.81,0.12 11.31,0.46 2.49,0.35 5.35,0.92 8.46,1.6l0 65.72zm162.2 313.57c-46.49,0 -82.66,-16.78 -108.4,-50.21 -25.75,-33.43 -38.57,-81.01 -38.57,-142.63 0,-60.71 12.47,-108.98 37.41,-144.92 24.85,-35.94 57.46,-53.85 97.71,-53.85 18.18,0 34.21,3.31 48.11,10.03 13.98,6.62 26.18,17.12 36.61,31.39 10.5,14.26 18.52,31.6 24.04,52.25 5.62,20.55 8.38,45.76 8.38,75.54l0 34.12 -202.55 0c0,43.25 8.55,76.34 25.65,99.16 17.1,22.94 40.8,34.35 70.99,34.35 10.78,0 21.47,-1.6 31.8,-4.68 10.42,-3.08 19.77,-7.19 28.15,-12.1 8.91,-5.13 16.48,-10.04 22.54,-14.83 6.14,-4.8 11.21,-9.36 15.23,-13.58l2.84 0 0 68.58c-5.79,2.85 -12.92,6.5 -21.46,10.84 -8.55,4.33 -16.21,7.76 -22.98,10.15 -9.62,3.31 -18.26,5.94 -26.01,7.76 -7.75,1.71 -17.64,2.63 -29.49,2.63zm57.72 -236.21c-0.36,-16.88 -1.96,-31.49 -4.72,-43.69 -2.76,-12.21 -6.85,-22.6 -12.02,-31.04 -5.8,-9.25 -13.19,-16.43 -22.18,-21.34 -9,-4.91 -20.13,-7.3 -33.49,-7.3 -13.1,0 -24.23,2.51 -33.4,7.53 -9.18,5.02 -17.55,12.21 -25.04,21.79 -7.39,9.82 -12.92,20.65 -16.84,32.53 -3.82,11.86 -6.23,25.78 -7.29,41.52l154.98 0z"/>
    <path class="fil3" d="M3142.1 1822.52l-62.53 0 0 -95.16 62.53 0 0 95.16zm200.59 8.22c-20.04,0 -38.39,-4 -55.14,-11.87 -16.65,-7.87 -31.08,-19.85 -43.1,-35.94 -12.03,-15.98 -21.3,-36.18 -27.98,-60.59 -6.59,-24.43 -9.89,-53.06 -9.89,-86.04 0,-32.75 3.48,-61.05 10.33,-84.9 6.87,-23.84 16.04,-43.81 27.54,-60.13 11.49,-16.2 25.82,-28.75 43.01,-37.54 17.11,-8.79 35.55,-13.24 55.23,-13.24 16.04,0 31.54,2.86 46.41,8.67 14.87,5.83 28.15,12.56 39.81,20.09l0 70.52 -2.84 0c-3.48,-3.77 -8.02,-8.1 -13.55,-13.01 -5.43,-4.8 -12.11,-9.82 -19.95,-14.95 -6.77,-4.33 -14.79,-8.21 -24.05,-11.52 -9.26,-3.31 -18.17,-5.03 -26.72,-5.03 -25.39,0 -45.88,12.33 -61.28,36.86 -15.41,24.53 -23.16,59.23 -23.16,104.18 0,43.93 7.48,78.28 22.36,102.81 14.86,24.54 35.62,36.86 62.08,36.86 16.04,0 31.35,-4.22 45.79,-12.67 14.51,-8.33 27.25,-19.29 38.48,-32.52l2.84 0 0 70.51c-4.89,2.97 -10.95,6.4 -18.25,10.5 -7.31,4.23 -13.99,7.19 -19.86,9.25 -8.38,3.08 -15.86,5.47 -22.46,7.18 -6.68,1.72 -15.23,2.52 -25.65,2.52zm370.82 -194.67c0,62.88 -11.84,111.25 -35.45,145.49 -23.7,34.11 -55.14,51.23 -94.42,51.23 -40.53,0 -72.42,-17.69 -95.58,-52.94 -23.25,-35.26 -34.82,-83.19 -34.82,-143.78 0,-62.3 11.93,-110.68 35.89,-145.14 23.87,-34.58 55.41,-51.8 94.51,-51.8 39.28,0 70.72,17.22 94.42,51.57 23.61,34.46 35.45,82.84 35.45,145.37zm-50.77 0c0,-48.03 -6.86,-83.75 -20.58,-107.15 -13.72,-23.39 -33.22,-35.02 -58.52,-35.02 -25.48,0 -45.16,11.63 -58.96,35.02 -13.81,23.4 -20.68,59.12 -20.68,107.15 0,46.55 6.87,81.82 20.68,105.89 13.8,24.08 33.48,36.06 58.96,36.06 25.12,0 44.63,-11.75 58.43,-35.37 13.81,-23.62 20.67,-59.11 20.67,-106.58zm432.36 186.45l0 -215.88c0,-17.12 -0.53,-32.98 -1.6,-47.59 -0.98,-14.61 -3.21,-26.02 -6.5,-34.35 -3.47,-8.89 -8.47,-15.4 -14.88,-19.62 -6.41,-4.22 -15.14,-6.39 -26.1,-6.39 -10.15,0 -20.93,3.99 -32.51,11.98 -11.57,7.88 -23.6,19.4 -35.98,34.46 0.17,3.76 0.44,8.22 0.71,13.46 0.27,5.25 0.36,11.41 0.36,18.6l0 245.33 -49.18 0 0 -215.88c0,-17.12 -0.53,-32.98 -1.6,-47.59 -0.98,-14.61 -3.2,-26.02 -6.5,-34.35 -3.47,-8.89 -8.46,-15.4 -14.87,-19.62 -6.42,-4.22 -15.14,-6.39 -26.11,-6.39 -10.68,0 -21.81,4.22 -33.48,12.78 -11.68,8.56 -22.99,19.4 -33.94,32.63l0 278.42 -49.17 0 0 -373.13 49.17 0 0 41.54c12.92,-16.43 25.65,-29.21 38.3,-38.23 12.65,-9.01 26.54,-13.57 41.69,-13.57 17.19,0 32.51,5.02 45.87,15.06 13.27,10.04 23.42,26.47 30.38,49.41 14.87,-21.12 29.3,-37.2 43.38,-48.04 14.15,-10.96 29.48,-16.43 46.05,-16.43 12.55,0 23.96,2.5 34.2,7.53 10.24,5.02 19.24,13 26.9,24.19 7.84,11.41 13.89,25.44 18.17,42.44 4.28,16.89 6.41,38.11 6.41,63.79l0 245.44 -49.17 0zm194.45 0l-62.52 0 0 -95.16 62.52 0 0 95.16zm416.16 0l0 -215.88c0,-17.12 -0.53,-32.98 -1.6,-47.59 -0.98,-14.61 -3.21,-26.02 -6.51,-34.35 -3.47,-8.89 -8.46,-15.4 -14.87,-19.62 -6.42,-4.22 -15.15,-6.39 -26.1,-6.39 -10.15,0 -20.93,3.99 -32.52,11.98 -11.57,7.88 -23.6,19.4 -35.98,34.46 0.17,3.76 0.45,8.22 0.72,13.46 0.26,5.25 0.35,11.41 0.35,18.6l0 245.33 -49.17 0 0 -215.88c0,-17.12 -0.54,-32.98 -1.6,-47.59 -0.99,-14.61 -3.21,-26.02 -6.5,-34.35 -3.48,-8.89 -8.47,-15.4 -14.88,-19.62 -6.42,-4.22 -15.14,-6.39 -26.1,-6.39 -10.69,0 -21.82,4.22 -33.49,12.78 -11.67,8.56 -22.98,19.4 -33.94,32.63l0 278.42 -49.17 0 0 -373.13 49.17 0 0 41.54c12.92,-16.43 25.66,-29.21 38.3,-38.23 12.65,-9.01 26.55,-13.57 41.69,-13.57 17.19,0 32.51,5.02 45.87,15.06 13.27,10.04 23.43,26.47 30.38,49.41 14.88,-21.12 29.3,-37.2 43.37,-48.04 14.17,-10.96 29.49,-16.43 46.06,-16.43 12.56,0 23.96,2.5 34.2,7.53 10.24,5.02 19.24,13 26.9,24.19 7.84,11.41 13.9,25.44 18.17,42.44 4.28,16.89 6.41,38.11 6.41,63.79l0 245.44 -49.16 0zm344.09 0l-60.3 0 -70.55 -140.35 -72.68 140.35 -55.68 0 100.84 -184.96 -99.77 -188.17 60.3 0 70.38 138.76 71.79 -138.76 55.67 0 -100.3 183.95 100.3 189.18z"/>
   </g>
   <g>
    <path class="fil2" d="M3252.93 1959.95l0 95.74c0,13.91 6.06,20.83 18.18,20.83 9.1,0 19.11,-6.53 29.92,-19.64l5.6 11c-5.67,10.41 -13.64,18.98 -23.99,25.64 -10.8,6.98 -21.94,10.41 -33.34,10.41 -29.78,0 -44.61,-16.34 -44.61,-49.03l0 -94.95 -21.02 0 0 -10.22c11.54,-4.93 23.13,-13.37 34.73,-25.43 11.59,-11.99 19.24,-23.85 23,-35.59l11.53 0 0 49.43 51.73 0 -5.93 21.81 -45.8 0zm233.59 110.24l6 9.62c-5.53,6.06 -12.39,11.34 -20.5,15.82 -9.16,5.2 -17.32,7.77 -24.51,7.77 -15.41,0 -24.71,-8.11 -27.8,-24.32 -9.62,9.1 -16.94,15.09 -21.81,17.93 -7.71,4.61 -16.67,6.92 -26.82,6.92 -13.51,0 -24.39,-3.49 -32.62,-10.61 -8.77,-7.45 -13.11,-17.79 -13.11,-31.03 0,-12.92 4.02,-23.4 12.12,-31.51 6.2,-6.19 18.58,-12.19 37.16,-18.05 18.58,-5.86 33.35,-13.18 44.29,-21.88l0 -14.69c0,-7.45 -2.31,-13.71 -6.92,-18.85 -4.61,-5.07 -10.61,-7.58 -18,-7.58 -13.96,0 -21.01,7.52 -21.01,22.54 0,2.5 0.2,5.14 0.59,7.98l-44.41 15.21c-1.12,-5 -1.71,-9.61 -1.71,-13.7 0,-9.43 3.29,-17.4 9.95,-24.05 6.58,-6.59 16.8,-12.32 30.57,-17.07 12.98,-4.48 24.58,-6.79 34.73,-6.79 21.61,0 39.46,6.86 53.5,20.5 7.32,7.18 11.01,16.47 11.01,27.81l0 74.72c0,12.06 2.89,18.12 8.7,18.12 2.83,0 6.32,-1.58 10.6,-4.81zm-67.6 -5.01l0 -56.6c-3.56,3.36 -8.77,6.72 -15.62,10.08 -10.41,5.14 -15.95,7.91 -16.61,8.24 -9.22,5.47 -13.9,14.63 -13.9,27.61 0,7.11 1.52,13.18 4.48,18.18 3.43,6.07 8.5,9.09 15.22,9.09 6.2,0 15.02,-5.53 26.43,-16.6zm199.26 21.62l0 12.71 -109.85 0 0 -12.71 2.7 0c8.77,0 14.76,-2.51 18.13,-7.58 2.7,-3.95 4.08,-10.67 4.08,-20.04l0 -64.51c0,-8.1 -0.66,-13.57 -1.97,-16.4 -1.78,-4.09 -5.87,-7.45 -12.32,-10.02l-10.62 -4.28 0 -10.01 64.84 -24.52 8.3 0 0.79 44.42c5.02,-9.83 8.44,-16.15 10.22,-19.11 4.88,-8.64 9.1,-14.3 12.59,-16.94 3.42,-2.64 7.31,-3.96 11.53,-3.96 3.23,0 5.86,0.4 7.97,1.19l31.24 11.4c-5.01,17.33 -11.34,31.37 -18.92,42.04 -17.13,-6.65 -27.8,-10.01 -32.02,-10.01 -7.11,0 -14.89,5.93 -23.4,17.78l0 64.05c0,9.83 1.99,16.68 5.94,20.57 3.89,3.95 10.74,5.93 20.56,5.93l10.21 0zm250.79 -151.36l0 40.72 -39.6 -9.09c5.27,7.11 7.91,15.55 7.91,25.3 0,19.3 -9.55,33.94 -28.73,43.82 -15.49,8.11 -33.68,11.86 -54.7,11.2 -21.87,7.05 -32.81,13.25 -32.81,18.52 0,8.76 16.34,13.17 49.09,13.17l34.73 0c17.26,0 31.43,3.89 42.63,11.74 11.6,8.23 17.4,19.57 17.4,33.99 0,25.97 -18.12,45.14 -54.43,57.53 -17,5.67 -35.98,8.5 -56.93,8.5 -32.09,0 -55.55,-6.52 -70.51,-19.5 -7.05,-6.2 -10.61,-12.85 -10.61,-20.1 0,-9.88 5.14,-17.2 15.42,-21.81 6.72,-3.1 11.01,-5.2 12.98,-6.39 5.14,-2.9 8.63,-6 10.41,-9.23 -22.67,-7.84 -34,-20.29 -34,-37.29 0,-9.36 6.98,-17.13 20.89,-23.33 4.74,-2.05 15.68,-5.6 32.82,-10.61 -19.18,-0.79 -34.08,-9.36 -44.62,-25.69 -4.74,-7.32 -7.11,-14.83 -7.11,-22.61 0,-23.79 13.31,-41.38 39.93,-52.65 12.39,-5.2 25.96,-7.78 40.72,-7.78 21.36,0 39.14,5.28 53.31,15.88l55.81 -14.29zm-72.41 185.49l-31.7 0c-13.38,0 -25.04,-1.05 -35.12,-3.3 -10.28,7.25 -15.42,14.64 -15.42,22.21 0,12.92 9.89,22.67 29.72,29.39 9.02,3.1 18.58,4.61 28.8,4.61 22.33,0 38.74,-5.47 49.22,-16.41 4.88,-5.14 7.31,-10.74 7.31,-16.8 0,-13.11 -10.94,-19.7 -32.81,-19.7zm-68.73 -132.45c0,28.99 10.94,43.49 32.81,43.49 18.39,0 27.61,-11.59 27.61,-34.79 0,-19.9 -4.74,-33.54 -14.29,-40.92 -4.75,-3.56 -10.42,-5.41 -17.01,-5.41 -19.44,0 -29.12,12.59 -29.12,37.63zm311.02 57.73l9.09 7.37c-10.21,14.44 -22.33,26.17 -36.5,35.32 -15.82,10.02 -31.83,15.03 -48.04,15.03 -29.52,0 -50.61,-13.05 -63.32,-39.14 -6.07,-12.39 -9.1,-26.36 -9.1,-41.91 0,-35.78 13.65,-61.74 40.92,-77.82 12.85,-7.45 27.41,-11.21 43.62,-11.21 20.76,0 37.37,6.33 49.82,18.92 8.9,8.89 14.57,19.83 17,32.88 0.99,6 1.78,9.75 2.31,11.13 1.51,4.16 3.89,7.05 6.91,8.7l0 11.41 -109.64 0c1.58,14.42 6.39,27.14 14.49,38.21 9.43,13.05 20.83,19.5 34.2,19.5 14.04,0 30.12,-9.42 48.24,-28.39zm-98.05 -44.75l56.14 0c-0.46,-32.68 -9.89,-49.03 -28.14,-49.03 -11.99,0 -20.55,8.11 -25.69,24.32 -1.79,5.8 -2.7,11.73 -2.7,17.73 0,2.3 0.12,4.68 0.39,6.98zm201.7 -41.51l0 95.74c0,13.91 6.07,20.83 18.19,20.83 9.09,0 19.11,-6.53 29.91,-19.64l5.61 11c-5.67,10.41 -13.65,18.98 -23.99,25.64 -10.81,6.98 -21.95,10.41 -33.34,10.41 -29.79,0 -44.61,-16.34 -44.61,-49.03l0 -94.95 -21.02 0 0 -10.22c11.53,-4.93 23.13,-13.37 34.72,-25.43 11.6,-11.99 19.24,-23.85 23,-35.59l11.53 0 0 49.43 51.73 0 -5.93 21.81 -45.8 0z"/>
    <path class="fil2" d="M4286.87 2102.21l-54.62 -127.24c-6.92,-16.08 -17.26,-24.12 -30.91,-24.12l0 -12.71 94.63 0 0 12.71c-6.86,0.4 -11.4,2.44 -13.71,6.2 -2.31,3.89 -2.24,8.77 0.2,14.69l31.63 75.65 31.69 -72.02c-6.06,-16.34 -14.36,-24.52 -24.9,-24.52l0 -12.71 89.74 0 0 12.71c-11.59,0 -17.32,4.09 -17.32,12.2 0,3.23 0.85,7.05 2.7,11.6l29.91 72.74 27.81 -67.74c3.56,-8.9 3.69,-15.88 0.33,-20.89 -3.3,-4.87 -10.09,-7.51 -20.23,-7.91l0 -12.71 72.75 0 0 12.71c-12.06,1.19 -20.69,5.94 -25.83,14.3 -2.84,4.36 -6.07,10.81 -9.69,19.31l-49.82 117.75 -21.81 0 -44.22 -103.05 -47.43 103.05 -20.9 0zm397.94 -32.02l6 9.62c-5.54,6.06 -12.39,11.34 -20.49,15.82 -9.16,5.2 -17.34,7.77 -24.52,7.77 -15.42,0 -24.71,-8.11 -27.81,-24.32 -9.62,9.1 -16.93,15.09 -21.81,17.93 -7.71,4.61 -16.67,6.92 -26.82,6.92 -13.51,0 -24.37,-3.49 -32.62,-10.61 -8.76,-7.45 -13.11,-17.79 -13.11,-31.03 0,-12.92 4.02,-23.4 12.13,-31.51 6.19,-6.19 18.58,-12.19 37.17,-18.05 18.58,-5.86 33.34,-13.18 44.27,-21.88l0 -14.69c0,-7.45 -2.3,-13.71 -6.91,-18.85 -4.62,-5.07 -10.62,-7.58 -17.99,-7.58 -13.97,0 -21.02,7.52 -21.02,22.54 0,2.5 0.19,5.14 0.59,7.98l-44.41 15.21c-1.12,-5 -1.72,-9.61 -1.72,-13.7 0,-9.43 3.3,-17.4 9.95,-24.05 6.59,-6.59 16.81,-12.32 30.58,-17.07 12.98,-4.48 24.57,-6.79 34.72,-6.79 21.62,0 39.48,6.86 53.51,20.5 7.31,7.18 11.01,16.47 11.01,27.81l0 74.72c0,12.06 2.9,18.12 8.69,18.12 2.84,0 6.33,-1.58 10.61,-4.81zm-67.61 -5.01l0 -56.6c-3.56,3.36 -8.76,6.72 -15.62,10.08 -10.4,5.14 -15.94,7.91 -16.6,8.24 -9.23,5.47 -13.9,14.63 -13.9,27.61 0,7.11 1.51,13.18 4.48,18.18 3.42,6.07 8.5,9.09 15.22,9.09 6.19,0 15.02,-5.53 26.42,-16.6zm199.26 21.62l0 12.71 -109.83 0 0 -12.71 2.7 0c8.76,0 14.76,-2.51 18.11,-7.58 2.7,-3.95 4.09,-10.67 4.09,-20.04l0 -64.51c0,-8.1 -0.66,-13.57 -1.98,-16.4 -1.78,-4.09 -5.86,-7.45 -12.32,-10.02l-10.6 -4.28 0 -10.01 64.83 -24.52 8.31 0 0.79 44.42c5,-9.83 8.43,-16.15 10.21,-19.11 4.88,-8.64 9.09,-14.3 12.58,-16.94 3.43,-2.64 7.32,-3.96 11.54,-3.96 3.22,0 5.86,0.4 7.97,1.19l31.23 11.4c-5.01,17.33 -11.33,31.37 -18.9,42.04 -17.14,-6.65 -27.82,-10.01 -32.03,-10.01 -7.12,0 -14.9,5.93 -23.39,17.78l0 64.05c0,9.83 1.97,16.68 5.93,20.57 3.88,3.95 10.74,5.93 20.55,5.93l10.21 0zm202.5 -40.59l9.09 7.37c-10.21,14.44 -22.33,26.17 -36.5,35.32 -15.82,10.02 -31.83,15.03 -48.04,15.03 -29.52,0 -50.61,-13.05 -63.33,-39.14 -6.05,-12.39 -9.09,-26.36 -9.09,-41.91 0,-35.78 13.64,-61.74 40.92,-77.82 12.85,-7.45 27.42,-11.21 43.63,-11.21 20.76,0 37.36,6.33 49.81,18.92 8.9,8.89 14.56,19.83 17,32.88 0.99,6 1.79,9.75 2.31,11.13 1.51,4.16 3.88,7.05 6.92,8.7l0 11.41 -109.65 0c1.58,14.42 6.39,27.14 14.5,38.21 9.42,13.05 20.82,19.5 34.2,19.5 14.03,0 30.11,-9.42 48.23,-28.39zm-98.05 -44.75l56.14 0c-0.46,-32.68 -9.88,-49.03 -28.13,-49.03 -12,0 -20.57,8.11 -25.71,24.32 -1.77,5.8 -2.7,11.73 -2.7,17.73 0,2.3 0.14,4.68 0.4,6.98z"/>
    <path class="fil2" d="M3252.93 1959.95l0 95.74c0,13.91 6.06,20.83 18.18,20.83 9.1,0 19.11,-6.53 29.92,-19.64l5.6 11c-5.67,10.41 -13.64,18.98 -23.99,25.64 -10.8,6.98 -21.94,10.41 -33.34,10.41 -29.78,0 -44.61,-16.34 -44.61,-49.03l0 -94.95 -21.02 0 0 -10.22c11.54,-4.93 23.13,-13.37 34.73,-25.43 11.59,-11.99 19.24,-23.85 23,-35.59l11.53 0 0 49.43 51.73 0 -5.93 21.81 -45.8 0zm233.59 110.24l6 9.62c-5.53,6.06 -12.39,11.34 -20.5,15.82 -9.16,5.2 -17.32,7.77 -24.51,7.77 -15.41,0 -24.71,-8.11 -27.8,-24.32 -9.62,9.1 -16.94,15.09 -21.81,17.93 -7.71,4.61 -16.67,6.92 -26.82,6.92 -13.51,0 -24.39,-3.49 -32.62,-10.61 -8.77,-7.45 -13.11,-17.79 -13.11,-31.03 0,-12.92 4.02,-23.4 12.12,-31.51 6.2,-6.19 18.58,-12.19 37.16,-18.05 18.58,-5.86 33.35,-13.18 44.29,-21.88l0 -14.69c0,-7.45 -2.31,-13.71 -6.92,-18.85 -4.61,-5.07 -10.61,-7.58 -18,-7.58 -13.96,0 -21.01,7.52 -21.01,22.54 0,2.5 0.2,5.14 0.59,7.98l-44.41 15.21c-1.12,-5 -1.71,-9.61 -1.71,-13.7 0,-9.43 3.29,-17.4 9.95,-24.05 6.58,-6.59 16.8,-12.32 30.57,-17.07 12.98,-4.48 24.58,-6.79 34.73,-6.79 21.61,0 39.46,6.86 53.5,20.5 7.32,7.18 11.01,16.47 11.01,27.81l0 74.72c0,12.06 2.89,18.12 8.7,18.12 2.83,0 6.32,-1.58 10.6,-4.81zm-67.6 -5.01l0 -56.6c-3.56,3.36 -8.77,6.72 -15.62,10.08 -10.41,5.14 -15.95,7.91 -16.61,8.24 -9.22,5.47 -13.9,14.63 -13.9,27.61 0,7.11 1.52,13.18 4.48,18.18 3.43,6.07 8.5,9.09 15.22,9.09 6.2,0 15.02,-5.53 26.43,-16.6zm199.26 21.62l0 12.71 -109.85 0 0 -12.71 2.7 0c8.77,0 14.76,-2.51 18.13,-7.58 2.7,-3.95 4.08,-10.67 4.08,-20.04l0 -64.51c0,-8.1 -0.66,-13.57 -1.97,-16.4 -1.78,-4.09 -5.87,-7.45 -12.32,-10.02l-10.62 -4.28 0 -10.01 64.84 -24.52 8.3 0 0.79 44.42c5.02,-9.83 8.44,-16.15 10.22,-19.11 4.88,-8.64 9.1,-14.3 12.59,-16.94 3.42,-2.64 7.31,-3.96 11.53,-3.96 3.23,0 5.86,0.4 7.97,1.19l31.24 11.4c-5.01,17.33 -11.34,31.37 -18.92,42.04 -17.13,-6.65 -27.8,-10.01 -32.02,-10.01 -7.11,0 -14.89,5.93 -23.4,17.78l0 64.05c0,9.83 1.99,16.68 5.94,20.57 3.89,3.95 10.74,5.93 20.56,5.93l10.21 0zm250.79 -151.36l0 40.72 -39.6 -9.09c5.27,7.11 7.91,15.55 7.91,25.3 0,19.3 -9.55,33.94 -28.73,43.82 -15.49,8.11 -33.68,11.86 -54.7,11.2 -21.87,7.05 -32.81,13.25 -32.81,18.52 0,8.76 16.34,13.17 49.09,13.17l34.73 0c17.26,0 31.43,3.89 42.63,11.74 11.6,8.23 17.4,19.57 17.4,33.99 0,25.97 -18.12,45.14 -54.43,57.53 -17,5.67 -35.98,8.5 -56.93,8.5 -32.09,0 -55.55,-6.52 -70.51,-19.5 -7.05,-6.2 -10.61,-12.85 -10.61,-20.1 0,-9.88 5.14,-17.2 15.42,-21.81 6.72,-3.1 11.01,-5.2 12.98,-6.39 5.14,-2.9 8.63,-6 10.41,-9.23 -22.67,-7.84 -34,-20.29 -34,-37.29 0,-9.36 6.98,-17.13 20.89,-23.33 4.74,-2.05 15.68,-5.6 32.82,-10.61 -19.18,-0.79 -34.08,-9.36 -44.62,-25.69 -4.74,-7.32 -7.11,-14.83 -7.11,-22.61 0,-23.79 13.31,-41.38 39.93,-52.65 12.39,-5.2 25.96,-7.78 40.72,-7.78 21.36,0 39.14,5.28 53.31,15.88l55.81 -14.29zm-72.41 185.49l-31.7 0c-13.38,0 -25.04,-1.05 -35.12,-3.3 -10.28,7.25 -15.42,14.64 -15.42,22.21 0,12.92 9.89,22.67 29.72,29.39 9.02,3.1 18.58,4.61 28.8,4.61 22.33,0 38.74,-5.47 49.22,-16.41 4.88,-5.14 7.31,-10.74 7.31,-16.8 0,-13.11 -10.94,-19.7 -32.81,-19.7zm-68.73 -132.45c0,28.99 10.94,43.49 32.81,43.49 18.39,0 27.61,-11.59 27.61,-34.79 0,-19.9 -4.74,-33.54 -14.29,-40.92 -4.75,-3.56 -10.42,-5.41 -17.01,-5.41 -19.44,0 -29.12,12.59 -29.12,37.63zm311.02 57.73l9.09 7.37c-10.21,14.44 -22.33,26.17 -36.5,35.32 -15.82,10.02 -31.83,15.03 -48.04,15.03 -29.52,0 -50.61,-13.05 -63.32,-39.14 -6.07,-12.39 -9.1,-26.36 -9.1,-41.91 0,-35.78 13.65,-61.74 40.92,-77.82 12.85,-7.45 27.41,-11.21 43.62,-11.21 20.76,0 37.37,6.33 49.82,18.92 8.9,8.89 14.57,19.83 17,32.88 0.99,6 1.78,9.75 2.31,11.13 1.51,4.16 3.89,7.05 6.91,8.7l0 11.41 -109.64 0c1.58,14.42 6.39,27.14 14.49,38.21 9.43,13.05 20.83,19.5 34.2,19.5 14.04,0 30.12,-9.42 48.24,-28.39zm-98.05 -44.75l56.14 0c-0.46,-32.68 -9.89,-49.03 -28.14,-49.03 -11.99,0 -20.55,8.11 -25.69,24.32 -1.79,5.8 -2.7,11.73 -2.7,17.73 0,2.3 0.12,4.68 0.39,6.98zm201.7 -41.51l0 95.74c0,13.91 6.07,20.83 18.19,20.83 9.09,0 19.11,-6.53 29.91,-19.64l5.61 11c-5.67,10.41 -13.65,18.98 -23.99,25.64 -10.81,6.98 -21.95,10.41 -33.34,10.41 -29.79,0 -44.61,-16.34 -44.61,-49.03l0 -94.95 -21.02 0 0 -10.22c11.53,-4.93 23.13,-13.37 34.72,-25.43 11.6,-11.99 19.24,-23.85 23,-35.59l11.53 0 0 49.43 51.73 0 -5.93 21.81 -45.8 0z"/>
    <path class="fil2" d="M4286.87 2102.21l-54.62 -127.24c-6.92,-16.08 -17.26,-24.12 -30.91,-24.12l0 -12.71 94.63 0 0 12.71c-6.86,0.4 -11.4,2.44 -13.71,6.2 -2.31,3.89 -2.24,8.77 0.2,14.69l31.63 75.65 31.69 -72.02c-6.06,-16.34 -14.36,-24.52 -24.9,-24.52l0 -12.71 89.74 0 0 12.71c-11.59,0 -17.32,4.09 -17.32,12.2 0,3.23 0.85,7.05 2.7,11.6l29.91 72.74 27.81 -67.74c3.56,-8.9 3.69,-15.88 0.33,-20.89 -3.3,-4.87 -10.09,-7.51 -20.23,-7.91l0 -12.71 72.75 0 0 12.71c-12.06,1.19 -20.69,5.94 -25.83,14.3 -2.84,4.36 -6.07,10.81 -9.69,19.31l-49.82 117.75 -21.81 0 -44.22 -103.05 -47.43 103.05 -20.9 0zm397.94 -32.02l6 9.62c-5.54,6.06 -12.39,11.34 -20.49,15.82 -9.16,5.2 -17.34,7.77 -24.52,7.77 -15.42,0 -24.71,-8.11 -27.81,-24.32 -9.62,9.1 -16.93,15.09 -21.81,17.93 -7.71,4.61 -16.67,6.92 -26.82,6.92 -13.51,0 -24.37,-3.49 -32.62,-10.61 -8.76,-7.45 -13.11,-17.79 -13.11,-31.03 0,-12.92 4.02,-23.4 12.13,-31.51 6.19,-6.19 18.58,-12.19 37.17,-18.05 18.58,-5.86 33.34,-13.18 44.27,-21.88l0 -14.69c0,-7.45 -2.3,-13.71 -6.91,-18.85 -4.62,-5.07 -10.62,-7.58 -17.99,-7.58 -13.97,0 -21.02,7.52 -21.02,22.54 0,2.5 0.19,5.14 0.59,7.98l-44.41 15.21c-1.12,-5 -1.72,-9.61 -1.72,-13.7 0,-9.43 3.3,-17.4 9.95,-24.05 6.59,-6.59 16.81,-12.32 30.58,-17.07 12.98,-4.48 24.57,-6.79 34.72,-6.79 21.62,0 39.48,6.86 53.51,20.5 7.31,7.18 11.01,16.47 11.01,27.81l0 74.72c0,12.06 2.9,18.12 8.69,18.12 2.84,0 6.33,-1.58 10.61,-4.81zm-67.61 -5.01l0 -56.6c-3.56,3.36 -8.76,6.72 -15.62,10.08 -10.4,5.14 -15.94,7.91 -16.6,8.24 -9.23,5.47 -13.9,14.63 -13.9,27.61 0,7.11 1.51,13.18 4.48,18.18 3.42,6.07 8.5,9.09 15.22,9.09 6.19,0 15.02,-5.53 26.42,-16.6zm199.26 21.62l0 12.71 -109.83 0 0 -12.71 2.7 0c8.76,0 14.76,-2.51 18.11,-7.58 2.7,-3.95 4.09,-10.67 4.09,-20.04l0 -64.51c0,-8.1 -0.66,-13.57 -1.98,-16.4 -1.78,-4.09 -5.86,-7.45 -12.32,-10.02l-10.6 -4.28 0 -10.01 64.83 -24.52 8.31 0 0.79 44.42c5,-9.83 8.43,-16.15 10.21,-19.11 4.88,-8.64 9.09,-14.3 12.58,-16.94 3.43,-2.64 7.32,-3.96 11.54,-3.96 3.22,0 5.86,0.4 7.97,1.19l31.23 11.4c-5.01,17.33 -11.33,31.37 -18.9,42.04 -17.14,-6.65 -27.82,-10.01 -32.03,-10.01 -7.12,0 -14.9,5.93 -23.39,17.78l0 64.05c0,9.83 1.97,16.68 5.93,20.57 3.88,3.95 10.74,5.93 20.55,5.93l10.21 0zm202.5 -40.59l9.09 7.37c-10.21,14.44 -22.33,26.17 -36.5,35.32 -15.82,10.02 -31.83,15.03 -48.04,15.03 -29.52,0 -50.61,-13.05 -63.33,-39.14 -6.05,-12.39 -9.09,-26.36 -9.09,-41.91 0,-35.78 13.64,-61.74 40.92,-77.82 12.85,-7.45 27.42,-11.21 43.63,-11.21 20.76,0 37.36,6.33 49.81,18.92 8.9,8.89 14.56,19.83 17,32.88 0.99,6 1.79,9.75 2.31,11.13 1.51,4.16 3.88,7.05 6.92,8.7l0 11.41 -109.65 0c1.58,14.42 6.39,27.14 14.5,38.21 9.42,13.05 20.82,19.5 34.2,19.5 14.03,0 30.11,-9.42 48.23,-28.39zm-98.05 -44.75l56.14 0c-0.46,-32.68 -9.88,-49.03 -28.13,-49.03 -12,0 -20.57,8.11 -25.71,24.32 -1.77,5.8 -2.7,11.73 -2.7,17.73 0,2.3 0.14,4.68 0.4,6.98z"/>
   </g>
  </g>
 </g>
</svg>
