<?xml version="1.0" encoding="UTF-8"?>
<!DOCTYPE svg PUBLIC "-//W3C//DTD SVG 1.1//EN" "http://www.w3.org/Graphics/SVG/1.1/DTD/svg11.dtd">
<!-- Creator: CorelDRAW 2017 -->
<svg xmlns="http://www.w3.org/2000/svg" xml:space="preserve" width="50.7998mm" height="33.8666mm" version="1.1" style="shape-rendering:geometricPrecision; text-rendering:geometricPrecision; image-rendering:optimizeQuality; fill-rule:evenodd; clip-rule:evenodd"
viewBox="0 0 5079.98 3386.66"
 xmlns:xlink="http://www.w3.org/1999/xlink">
 <defs>
  <style type="text/css">
   <![CDATA[
    .str0 {stroke:#3E4095;stroke-width:65.18;stroke-linecap:round;stroke-linejoin:round;stroke-miterlimit:22.9256}
    .str3 {stroke:#2072B2;stroke-width:78.84;stroke-linecap:round;stroke-linejoin:round;stroke-miterlimit:22.9256}
    .str2 {stroke:#00608D;stroke-width:4.97;stroke-linecap:round;stroke-linejoin:round;stroke-miterlimit:22.9256}
    .str1 {stroke:#030303;stroke-width:4.97;stroke-linecap:round;stroke-linejoin:round;stroke-miterlimit:22.9256}
    .fil0 {fill:none}
    .fil5 {fill:#00608D}
    .fil4 {fill:#060606}
    .fil8 {fill:#282829}
    .fil3 {fill:#3E4095}
    .fil1 {fill:#E6E7E8}
    .fil2 {fill:#FEFEFE}
    .fil6 {fill:#282829;fill-rule:nonzero}
    .fil7 {fill:#C12519;fill-rule:nonzero}
   ]]>
  </style>
 </defs>
 <g id="Capa_x0020_1">
  <metadata id="CorelCorpID_0Corel-Layer"/>
  <rect class="fil0" x="-0" width="5079.99" height="3386.66"/>
  <g id="_1746537159344">
   <polygon class="fil1" points="2515.08,2682.78 3782,1393.29 2448.05,82.68 1181.13,1372.17 "/>
   <g>
    <path class="fil0 str0" d="M1855.17 822.7c-94.13,25.9 -239.5,99.83 -226.21,218.38 2.42,21.6 10.6,34.87 9.75,56.49 -4.98,127.07 -5.79,244.23 4.87,371.4 3.25,38.85 9.58,78.7 12.26,116.43 -48.07,-0.99 -66.54,-6.67 -104.53,19.11 -23.44,15.91 -43.96,40.55 -57.15,72.22 -27.98,67.14 -23.55,154.04 0.64,221.14 40.56,112.52 151.62,219.54 258.24,167.14 22.72,-11.17 26.28,-21.53 38.04,-26.28l53.04 105.53c64.27,118.84 141.08,228.68 235.3,320.08l63.38 55.24c7.71,5.59 14.68,11.62 22.99,17.39 174.35,121.19 347,145.84 538.77,32.1 39.72,-23.56 59.43,-40.06 92.33,-66.69 82.7,-66.94 161.45,-167.92 219.37,-257.75 30.57,-47.43 92,-155.49 111.13,-206.4 14.74,6.96 79.96,81.72 187.49,9.07 46.36,-31.31 84.98,-81.35 109.35,-149.47 33.15,-92.71 30.53,-237.46 -56.58,-293.19 -33.19,-21.24 -61.36,-24.21 -106.22,-18.13 4.71,-59.4 10.09,-112.39 6.47,-173.63 -1.58,-26.84 -6.49,-54.74 -7.73,-80.73 -1.41,-29.48 -0.1,-61.73 -0.64,-91.7 -0.53,-28.86 -2.08,-57.37 -3.02,-86.33 -1.06,-32.39 52.28,-103.86 37.05,-229.66 -22.86,-188.63 -197.95,-296.04 -375.01,-345.36 -238.22,-66.34 -697.07,-117.03 -928.3,16.87 -97.94,56.7 -132.67,114.85 -135.08,226.73z"/>
    <path id="1" class="fil2" d="M1855.17 822.7c-94.13,25.9 -239.5,99.83 -226.21,218.38 2.42,21.6 10.6,34.87 9.75,56.49 -4.98,127.07 -5.79,244.23 4.87,371.4 3.25,38.85 9.58,78.7 12.26,116.43 -48.07,-0.99 -66.54,-6.67 -104.53,19.11 -23.44,15.91 -43.96,40.55 -57.15,72.22 -27.98,67.14 -23.55,154.04 0.64,221.14 40.56,112.52 151.62,219.54 258.24,167.14 22.72,-11.17 26.28,-21.53 38.04,-26.28l53.04 105.53c64.27,118.84 141.08,228.68 235.3,320.08l63.38 55.24c7.71,5.59 14.68,11.62 22.99,17.39 174.35,121.19 347,145.84 538.77,32.1 39.72,-23.56 59.43,-40.06 92.33,-66.69 82.7,-66.94 161.45,-167.92 219.37,-257.75 30.57,-47.43 92,-155.49 111.13,-206.4 14.74,6.96 79.96,81.72 187.49,9.07 46.36,-31.31 84.98,-81.35 109.35,-149.47 33.15,-92.71 30.53,-237.46 -56.58,-293.19 -33.19,-21.24 -61.36,-24.21 -106.22,-18.13 4.71,-59.4 10.09,-112.39 6.47,-173.63 -1.58,-26.84 -6.49,-54.74 -7.73,-80.73 -1.41,-29.48 -0.1,-61.73 -0.64,-91.7 -0.53,-28.86 -2.08,-57.37 -3.02,-86.33 -1.06,-32.39 52.28,-103.86 37.05,-229.66 -22.86,-188.63 -197.95,-296.04 -375.01,-345.36 -238.22,-66.34 -697.07,-117.03 -928.3,16.87 -97.94,56.7 -132.67,114.85 -135.08,226.73z"/>
   </g>
   <g>
    <path class="fil0 str1" d="M2993.93 1612.33l-15.7 -0.45 -0.76 -34.44c-6.53,0.21 -8.96,0.89 -14.97,11.52l-19.96 0.32c4.77,-8.31 11.03,-10.77 21.46,-21.9 -4.87,-11.04 -16.78,-16.42 -24.73,-28.2 6.6,-3.14 6.94,1.33 12.84,-5.56 -18.7,-29.21 -56.95,-65.16 -87.46,-85.48 -80.09,-53.3 -184.62,-70.31 -279.05,-40.59 -35.71,11.24 -87.63,36.88 -112.83,60.48 -15.26,-5.89 -42.12,-37.59 -115.18,-60.5 -47,-14.73 -103.52,-18.7 -154.87,-9.33 -83.33,15.21 -169.35,68.69 -211.59,135.52 12.71,10.59 57.45,107.24 -7.55,10.99 -5.56,8.42 -12.34,18.08 -14.9,28.07 3.28,8.28 13.95,10.06 9.05,26.08 -3.3,10.79 -13.76,13.39 -27.43,14.3 -19.09,32.19 -19.49,111.25 -19.49,154.02 0,168.95 -11.61,283.93 87.41,435.75 217.09,332.87 699.85,324.17 907.74,-1.38 45.47,-71.22 80.32,-159.56 85.82,-263.13 1.8,-33.84 2.61,-220.97 -2,-257.4 -4.53,-35.64 -13.51,-53.58 -15.85,-68.69zm-1025.25 -39.55c-8.98,7.69 -15.89,29.8 -18.38,40.38 13.67,-0.91 24.13,-3.51 27.43,-14.3 4.9,-16.02 -5.77,-17.8 -9.05,-26.08zm22.45 -39.06l-7.55 10.99c64.06,94.84 19.67,-0.89 7.55,-10.99z"/>
    <path id="1" class="fil3" d="M2993.93 1612.33l-15.7 -0.45 -0.76 -34.44c-6.53,0.21 -8.96,0.89 -14.97,11.52l-19.96 0.32c4.77,-8.31 11.03,-10.77 21.46,-21.9 -4.87,-11.04 -16.78,-16.42 -24.73,-28.2 6.6,-3.14 6.94,1.33 12.84,-5.56 -18.7,-29.21 -56.95,-65.16 -87.46,-85.48 -80.09,-53.3 -184.62,-70.31 -279.05,-40.59 -35.71,11.24 -87.63,36.88 -112.83,60.48 -15.26,-5.89 -42.12,-37.59 -115.18,-60.5 -47,-14.73 -103.52,-18.7 -154.87,-9.33 -83.33,15.21 -169.35,68.69 -211.59,135.52 12.71,10.59 57.45,107.24 -7.55,10.99 -5.56,8.42 -12.34,18.08 -14.9,28.07 3.28,8.28 13.95,10.06 9.05,26.08 -3.3,10.79 -13.76,13.39 -27.43,14.3 -19.09,32.19 -19.49,111.25 -19.49,154.02 0,168.95 -11.61,283.93 87.41,435.75 217.09,332.87 699.85,324.17 907.74,-1.38 45.47,-71.22 80.32,-159.56 85.82,-263.13 1.8,-33.84 2.61,-220.97 -2,-257.4 -4.53,-35.64 -13.51,-53.58 -15.85,-68.69zm-1025.25 -39.55c-8.98,7.69 -15.89,29.8 -18.38,40.38 13.67,-0.91 24.13,-3.51 27.43,-14.3 4.9,-16.02 -5.77,-17.8 -9.05,-26.08zm22.45 -39.06l-7.55 10.99c64.06,94.84 19.67,-0.89 7.55,-10.99z"/>
   </g>
   <g>
    <path class="fil0 str2" d="M1998.02 1615.95l8.19 -14.81c2.19,-14.18 21.92,-40.86 30.29,-51.62 13.84,-17.79 24.95,-27.76 40.28,-41.99 120.94,-112.24 329.85,-65.89 354.86,3.48 4.01,-4.2 2.04,1.98 2.97,-4.8 0.51,-3.79 -0.44,-4.09 -1.49,-6.77l8.66 0.17c-7.37,13.73 0.41,14.56 0.43,14.58 7.68,-5.58 4.89,-7.4 2.13,-15.14l19.51 0.19c-2.39,7.31 -2.4,16.58 0.19,23.69l-8.95 -0.82c4.04,-6.74 3.9,-14.77 -1.12,-21.22 -2.42,3.15 -2.46,-4.35 -3.43,7.94 -0.86,11.02 -0.64,2.15 2.18,7.98l-15.6 2.06 7.87 23.83c10.17,0.88 2.38,-0.38 13.06,-4.04 6.34,-2.15 9.47,-2.45 16.26,-1.14 16.28,3.17 12.93,11.3 22.48,15.55 -0.11,-14.54 5.18,-24.01 10.31,-35.99 -8.79,2.94 -4.09,-2.69 -6.14,5.56 -11.27,-6.26 4.97,-5.21 -16.01,-5.35 1.22,-7.12 1.76,-5.51 -2.53,-11.12 -2.45,7.07 -2.57,3.5 -0.92,10.87l-7.95 -0.29c5.17,-6.59 7.83,-15.58 7.48,-23.24l7.14 -0.24c-2.14,8.36 -3.99,13.88 5.76,21.58 2.14,-3.28 2.36,2.05 2.95,-8.55 0.37,-6.65 -2.07,-1.48 -0.61,-6.89 4.62,1.84 4.7,-4.07 4.6,14.58l8.26 -0.42c-0.75,-8.18 -0.05,-7.33 -2.96,-13.68 3.93,1.73 0.47,-1.9 5.57,7.15 0.19,0.34 0.5,1.13 0.85,1.63 18.8,-36.62 79.21,-61.42 136.63,-67.8 66.16,-7.36 121.72,7.46 170.14,33.83 99.17,54.03 147.14,148.94 147.08,264.27 -0.05,137.43 10.99,251.32 -41.5,367.67 -90.47,200.52 -298.03,323.87 -521.27,291.98 -211.78,-30.24 -380.95,-191.65 -418.96,-401.54 -11.37,-62.7 -7.9,-131.62 -7.9,-196.99 0,-71.84 -4.29,-122.31 21.21,-184.14z"/>
    <path id="1" class="fil2" d="M1998.02 1615.95l8.19 -14.81c2.19,-14.18 21.92,-40.86 30.29,-51.62 13.84,-17.79 24.95,-27.76 40.28,-41.99 120.94,-112.24 329.85,-65.89 354.86,3.48 4.01,-4.2 2.04,1.98 2.97,-4.8 0.51,-3.79 -0.44,-4.09 -1.49,-6.77l8.66 0.17c-7.37,13.73 0.41,14.56 0.43,14.58 7.68,-5.58 4.89,-7.4 2.13,-15.14l19.51 0.19c-2.39,7.31 -2.4,16.58 0.19,23.69l-8.95 -0.82c4.04,-6.74 3.9,-14.77 -1.12,-21.22 -2.42,3.15 -2.46,-4.35 -3.43,7.94 -0.86,11.02 -0.64,2.15 2.18,7.98l-15.6 2.06 7.87 23.83c10.17,0.88 2.38,-0.38 13.06,-4.04 6.34,-2.15 9.47,-2.45 16.26,-1.14 16.28,3.17 12.93,11.3 22.48,15.55 -0.11,-14.54 5.18,-24.01 10.31,-35.99 -8.79,2.94 -4.09,-2.69 -6.14,5.56 -11.27,-6.26 4.97,-5.21 -16.01,-5.35 1.22,-7.12 1.76,-5.51 -2.53,-11.12 -2.45,7.07 -2.57,3.5 -0.92,10.87l-7.95 -0.29c5.17,-6.59 7.83,-15.58 7.48,-23.24l7.14 -0.24c-2.14,8.36 -3.99,13.88 5.76,21.58 2.14,-3.28 2.36,2.05 2.95,-8.55 0.37,-6.65 -2.07,-1.48 -0.61,-6.89 4.62,1.84 4.7,-4.07 4.6,14.58l8.26 -0.42c-0.75,-8.18 -0.05,-7.33 -2.96,-13.68 3.93,1.73 0.47,-1.9 5.57,7.15 0.19,0.34 0.5,1.13 0.85,1.63 18.8,-36.62 79.21,-61.42 136.63,-67.8 66.16,-7.36 121.72,7.46 170.14,33.83 99.17,54.03 147.14,148.94 147.08,264.27 -0.05,137.43 10.99,251.32 -41.5,367.67 -90.47,200.52 -298.03,323.87 -521.27,291.98 -211.78,-30.24 -380.95,-191.65 -418.96,-401.54 -11.37,-62.7 -7.9,-131.62 -7.9,-196.99 0,-71.84 -4.29,-122.31 21.21,-184.14z"/>
   </g>
   <path class="fil4" d="M2477.63 1553.17c-22.11,-9.38 -27.9,10.27 -19.67,19.56 11.48,12.95 27.89,-0.86 19.67,-19.56z"/>
   <path class="fil5" d="M2497.13 1928.98c-8.83,-11.77 -3.55,-147.37 -3.55,-173.56 0,-59.6 0.58,-119.48 -0.02,-179.06 -15.84,15.05 -17.11,17.65 -43.95,9.09l-0.27 336.94c-1.61,9.68 0.09,4.57 -3.55,8.7 1.03,26.39 -28.98,53.64 -41.08,64.2 -31.05,27.1 -58.52,27.22 -53.34,53.46 6.89,34.94 50.62,5.81 66.17,-5.37 33.77,-24.28 49.65,-48.88 55.23,-52.65 19.36,19.17 21.84,29.84 53.94,51.6 7.45,5.06 23.37,15.97 32.24,19.61 16.86,6.9 31.61,-3.01 33.25,-17.57 2.47,-22.04 -21.54,-25.71 -54.16,-50.99 -12.55,-9.73 -40.46,-38.61 -40.91,-64.4z"/>
   <polygon class="fil4" points="2977.47,1577.44 2978.23,1611.88 2993.93,1612.33 "/>
   <path class="fil4" d="M2507.1 1517.08c3.93,1.82 1.58,1.4 2.03,-3.51l-8.26 0.42c0.1,-18.65 0.02,-12.74 -4.6,-14.58 -1.46,5.41 0.98,0.24 0.61,6.89 -0.59,10.6 -0.81,5.27 -2.95,8.55 -9.75,-7.7 -7.9,-13.22 -5.76,-21.58l-7.14 0.24c0.35,7.66 -2.31,16.65 -7.48,23.24l7.95 0.29c-1.65,-7.37 -1.53,-3.8 0.92,-10.87 4.29,5.61 3.75,4 2.53,11.12 20.98,0.14 4.74,-0.91 16.01,5.35 2.05,-8.25 -2.65,-2.62 6.14,-5.56z"/>
   <path class="fil4" d="M2431.64 1511.01l5.48 7.86 15.6 -2.06c-2.82,-5.83 -3.04,3.04 -2.18,-7.98 0.97,-12.29 1.01,-4.79 3.43,-7.94 5.02,6.45 5.16,14.48 1.12,21.22l8.95 0.82c-2.59,-7.11 -2.58,-16.38 -0.19,-23.69l-19.51 -0.19c2.76,7.74 5.55,9.56 -2.13,15.14 -0.02,-0.02 -7.8,-0.85 -0.43,-14.58l-8.66 -0.17c1.05,2.68 2,2.98 1.49,6.77 -0.93,6.78 1.04,0.6 -2.97,4.8z"/>
   <path class="fil4" d="M2977.47 1577.44c-1.59,-8.29 -7.28,-16.15 -11.75,-23.51l-12.3 -18.89c-0.19,0.4 -0.86,-0.97 -1.31,-1.42 -5.9,6.89 -6.24,2.42 -12.84,5.56 7.95,11.78 19.86,17.16 24.73,28.2 -10.43,11.13 -16.69,13.59 -21.46,21.9l19.96 -0.32c6.01,-10.63 8.44,-11.31 14.97,-11.52z"/>
   <path class="fil4" d="M2497.13 1928.98c-1.4,-62.07 -0.95,-125.17 -0.95,-187.66 0.01,-58.26 -3.9,-132.11 0.61,-188.25 -9.55,-4.25 -6.2,-12.38 -22.48,-15.55 -6.79,-1.31 -9.92,-1.01 -16.26,1.14 -10.68,3.66 -2.89,4.92 -13.06,4.04 5.9,26.84 2.02,61.25 2.02,92.85 0,32.91 0,65.81 0,98.72 0,64.2 2.37,133.67 -1.22,196.82 3.64,-4.13 1.94,0.98 3.55,-8.7l0.27 -336.94c26.84,8.56 28.11,5.96 43.95,-9.09 0.6,59.58 0.02,119.46 0.02,179.06 0,26.19 -5.28,161.79 3.55,173.56z"/>
   <path class="fil4" d="M2477.63 1553.17c8.22,18.7 -8.19,32.51 -19.67,19.56 -8.23,-9.29 -2.44,-28.94 19.67,-19.56z"/>
   <g>
    <path class="fil0 str3" d="M2593.88 1069.05c8.99,-6.96 185.47,-64.61 122.12,-233.58 -25.65,-68.43 -98.62,-113.07 -178.52,-103.74 -29.08,3.39 -57.46,20.07 -69.83,21.82 -6.27,0.89 -173.65,-82.41 -247.18,72.31 -24.73,52.06 -21.6,115 5.47,159.41 28.59,46.9 50.63,57.74 110.3,80.5l-0.24 325.09c0.2,62.65 5.82,45.88 -20.2,89.96 -59.02,99.97 16.34,265.74 142.17,271.68 34.55,1.63 65.99,-8.19 88.67,-22.95 66.05,-42.97 115.07,-155.56 73.82,-238.9 -19.71,-39.84 -27.29,-21.32 -26.83,-81.8l0.25 -339.8z"/>
   </g>
   <path id="_1" class="fil2" d="M2593.88 1069.05c8.99,-6.96 185.47,-64.61 122.12,-233.58 -25.65,-68.43 -98.62,-113.07 -178.52,-103.74 -29.08,3.39 -57.46,20.07 -69.83,21.82 -6.27,0.89 -173.65,-82.41 -247.18,72.31 -24.73,52.06 -21.6,115 5.47,159.41 28.59,46.9 50.63,57.74 110.3,80.5l-0.24 325.09c0.2,62.65 5.82,45.88 -20.2,89.96 -59.02,99.97 16.34,265.74 142.17,271.68 34.55,1.63 65.99,-8.19 88.67,-22.95 66.05,-42.97 115.07,-155.56 73.82,-238.9 -19.71,-39.84 -27.29,-21.32 -26.83,-81.8l0.25 -339.8z"/>
   <path class="fil6" d="M1235.61 3281.43c4.52,0 8.28,-0.47 11.27,-1.42 2.99,-0.95 5.37,-2.26 7.11,-3.94 1.76,-1.68 2.96,-3.58 3.62,-5.69 0.65,-2.12 0.98,-4.27 0.98,-6.46 0,-2.77 -0.8,-5.25 -2.41,-7.44 -1.6,-2.19 -3.65,-4.12 -6.12,-5.8 -2.49,-1.68 -5.26,-3.21 -8.32,-4.6 -3.07,-1.39 -6.13,-2.66 -9.2,-3.83 -4.08,-1.46 -8.31,-3.14 -12.69,-5.03 -4.38,-1.9 -8.35,-4.31 -11.93,-7.23 -3.58,-2.92 -6.53,-6.53 -8.87,-10.83 -2.33,-4.31 -3.5,-9.67 -3.5,-16.09 0,-12.7 4.12,-22.62 12.37,-29.77 8.24,-7.16 19.59,-10.73 34.04,-10.73 8.31,0 15.57,0.95 21.78,2.85 6.2,1.9 11.42,4.01 15.65,6.34l-7.88 20.8c-3.65,-2.04 -7.7,-3.79 -12.15,-5.25 -4.45,-1.46 -9.6,-2.19 -15.44,-2.19 -14.3,0 -21.45,5.18 -21.45,15.54 0,2.62 0.73,4.92 2.19,6.89 1.46,1.98 3.32,3.73 5.58,5.26 2.26,1.53 4.82,2.88 7.67,4.05 2.84,1.17 5.65,2.26 8.43,3.28 4.23,1.61 8.64,3.4 13.24,5.36 4.6,1.97 8.83,4.6 12.69,7.88 3.87,3.29 7.05,7.38 9.52,12.26 2.49,4.89 3.73,11.06 3.73,18.5 0,12.69 -4.12,22.51 -12.37,29.44 -8.24,6.93 -20.76,10.4 -37.54,10.4 -11.24,0 -20.22,-1.21 -26.92,-3.62 -6.72,-2.4 -11.75,-4.63 -15.11,-6.67l7.88 -21.89c3.94,2.33 8.65,4.52 14.12,6.56 5.47,2.05 12.15,3.07 20.03,3.07z"/>
   <polygon class="fil6" points="1389.15,3301.13 1389.15,3165.64 1471.23,3165.64 1471.23,3187.97 1416.07,3187.97 1416.07,3218.39 1464.01,3218.39 1464.01,3240.72 1416.07,3240.72 1416.07,3278.81 1476.05,3278.81 1476.05,3301.13 "/>
   <path class="fil6" d="M1643.81 3301.13c-2.77,-7.44 -6.16,-15.69 -10.18,-24.73 -4.01,-9.05 -8.2,-18.1 -12.58,-27.14 -4.23,8.61 -8.47,17.54 -12.7,26.81 -4.23,9.26 -7.88,17.62 -10.94,25.06l-29.12 0c1.46,-3.94 3.62,-8.68 6.46,-14.23 2.85,-5.54 5.98,-11.53 9.41,-17.95 3.43,-6.42 7.04,-13.02 10.84,-19.81 3.79,-6.78 7.44,-13.31 10.94,-19.59l-35.46 -63.91 29.12 0 21.45 43.34 22.54 -43.34 27.14 0 -34.58 63.26c3.94,6.27 7.81,12.84 11.6,19.7 3.79,6.85 7.33,13.53 10.62,20.03 3.28,6.49 6.16,12.54 8.64,18.16 2.48,5.62 4.45,10.4 5.91,14.34l-29.11 0z"/>
   <path class="fil6" d="M1916.63 3281.43c4.52,0 8.28,-0.47 11.28,-1.42 2.99,-0.95 5.36,-2.26 7.11,-3.94 1.75,-1.68 2.96,-3.58 3.61,-5.69 0.66,-2.12 0.98,-4.27 0.98,-6.46 0,-2.77 -0.8,-5.25 -2.4,-7.44 -1.61,-2.19 -3.65,-4.12 -6.13,-5.8 -2.48,-1.68 -5.25,-3.21 -8.32,-4.6 -3.07,-1.39 -6.13,-2.66 -9.19,-3.83 -4.09,-1.46 -8.32,-3.14 -12.7,-5.03 -4.37,-1.9 -8.35,-4.31 -11.93,-7.23 -3.58,-2.92 -6.53,-6.53 -8.86,-10.83 -2.34,-4.31 -3.5,-9.67 -3.5,-16.09 0,-12.7 4.12,-22.62 12.36,-29.77 8.25,-7.16 19.59,-10.73 34.04,-10.73 8.31,0 15.58,0.95 21.78,2.85 6.2,1.9 11.42,4.01 15.65,6.34l-7.88 20.8c-3.65,-2.04 -7.7,-3.79 -12.15,-5.25 -4.45,-1.46 -9.59,-2.19 -15.43,-2.19 -14.3,0 -21.45,5.18 -21.45,15.54 0,2.62 0.73,4.92 2.19,6.89 1.46,1.98 3.31,3.73 5.57,5.26 2.27,1.53 4.82,2.88 7.67,4.05 2.84,1.17 5.65,2.26 8.43,3.28 4.23,1.61 8.64,3.4 13.24,5.36 4.6,1.97 8.83,4.6 12.69,7.88 3.87,3.29 7.05,7.38 9.53,12.26 2.48,4.89 3.72,11.06 3.72,18.5 0,12.69 -4.12,22.51 -12.37,29.44 -8.24,6.93 -20.76,10.4 -37.54,10.4 -11.24,0 -20.21,-1.21 -26.92,-3.62 -6.71,-2.4 -11.75,-4.63 -15.11,-6.67l7.88 -21.89c3.94,2.33 8.65,4.52 14.12,6.56 5.47,2.05 12.15,3.07 20.03,3.07z"/>
   <polygon class="fil6" points="2155.97,3165.64 2155.97,3301.13 2129.06,3301.13 2129.06,3241.38 2093.15,3241.38 2093.15,3301.13 2066.23,3301.13 2066.23,3165.64 2093.15,3165.64 2093.15,3219.04 2129.06,3219.04 2129.06,3165.64 "/>
   <path class="fil6" d="M2280.18 3233.27c0,6.57 0.26,12.74 0.76,18.5 0.52,5.76 1.54,10.76 3.07,14.99 1.53,4.24 3.69,7.6 6.46,10.07 2.77,2.49 6.49,3.72 11.16,3.72 4.53,0 8.21,-1.23 11.06,-3.72 2.84,-2.47 5.03,-5.87 6.56,-10.17 1.53,-4.31 2.55,-9.31 3.06,-15 0.52,-5.69 0.77,-11.82 0.77,-18.39 0,-6.56 -0.25,-12.73 -0.77,-18.49 -0.51,-5.77 -1.53,-10.77 -3.06,-15 -1.53,-4.23 -3.68,-7.58 -6.46,-10.07 -2.77,-2.47 -6.49,-3.72 -11.16,-3.72 -4.67,0 -8.39,1.25 -11.16,3.72 -2.77,2.49 -4.93,5.88 -6.46,10.18 -1.53,4.31 -2.55,9.31 -3.07,15 -0.5,5.69 -0.76,11.82 -0.76,18.38zm-27.36 0c0,-23.34 4.3,-40.96 12.91,-52.86 8.61,-11.89 20.58,-17.84 35.9,-17.84 15.91,0 28.02,5.95 36.34,17.84 8.32,11.9 12.47,29.52 12.47,52.86 0,23.35 -4.23,40.98 -12.69,52.87 -8.47,11.89 -20.43,17.84 -35.9,17.84 -15.91,0 -28.06,-5.95 -36.45,-17.84 -8.39,-11.89 -12.58,-29.52 -12.58,-52.87z"/>
   <path class="fil6" d="M2486.46 3164.1c17.22,0 30.57,3.54 40.05,10.62 9.49,7.08 14.23,18.64 14.23,34.7 0,16.19 -4.77,27.91 -14.34,35.13 -9.55,7.22 -23.09,10.83 -40.6,10.83l-9.63 0 0 45.75 -26.93 0 0 -133.74c2.63,-0.59 5.59,-1.1 8.87,-1.53 3.28,-0.44 6.61,-0.77 9.96,-0.99 3.36,-0.22 6.64,-0.4 9.85,-0.54 3.21,-0.15 6.06,-0.23 8.54,-0.23zm3.06 23.42c-1.61,0 -3.83,0.04 -6.68,0.11 -2.84,0.08 -5.07,0.26 -6.67,0.55l0 43.78 10.94 0c8.61,0 15.11,-1.71 19.49,-5.14 4.38,-3.43 6.57,-9.31 6.57,-17.62 0,-7.88 -2.16,-13.46 -6.46,-16.75 -4.31,-3.28 -10.04,-4.93 -17.19,-4.93z"/>
   <polygon class="fil6" points="2751.19,3301.13 2751.19,3165.64 2834.15,3165.64 2834.15,3187.97 2778.11,3187.97 2778.11,3220.8 2827.14,3220.8 2827.14,3243.13 2778.11,3243.13 2778.11,3301.13 "/>
   <path class="fil6" d="M2961.2 3233.27c0,6.57 0.26,12.74 0.77,18.5 0.51,5.76 1.53,10.76 3.06,14.99 1.53,4.24 3.69,7.6 6.46,10.07 2.77,2.49 6.49,3.72 11.16,3.72 4.53,0 8.21,-1.23 11.06,-3.72 2.84,-2.47 5.03,-5.87 6.56,-10.17 1.53,-4.31 2.56,-9.31 3.07,-15 0.51,-5.69 0.76,-11.82 0.76,-18.39 0,-6.56 -0.25,-12.73 -0.76,-18.49 -0.51,-5.77 -1.54,-10.77 -3.07,-15 -1.53,-4.23 -3.68,-7.58 -6.46,-10.07 -2.77,-2.47 -6.49,-3.72 -11.16,-3.72 -4.67,0 -8.39,1.25 -11.16,3.72 -2.77,2.49 -4.93,5.88 -6.46,10.18 -1.53,4.31 -2.55,9.31 -3.06,15 -0.51,5.69 -0.77,11.82 -0.77,18.38zm-27.36 0c0,-23.34 4.3,-40.96 12.91,-52.86 8.61,-11.89 20.58,-17.84 35.9,-17.84 15.91,0 28.02,5.95 36.34,17.84 8.32,11.9 12.48,29.52 12.48,52.86 0,23.35 -4.24,40.98 -12.7,52.87 -8.47,11.89 -20.43,17.84 -35.9,17.84 -15.91,0 -28.05,-5.95 -36.44,-17.84 -8.4,-11.89 -12.59,-29.52 -12.59,-52.87z"/>
   <path class="fil6" d="M3165.29 3164.1c7.73,0 14.74,0.88 21.02,2.63 6.27,1.75 11.67,4.45 16.19,8.1 4.53,3.65 8,8.28 10.4,13.9 2.41,5.62 3.61,12.22 3.61,19.81 0,7.88 -1.6,15.03 -4.82,21.45 -3.2,6.42 -8.53,11.31 -15.97,14.67 2.48,3.79 5.1,7.98 7.88,12.59 2.77,4.59 5.47,9.41 8.09,14.44 2.63,5.03 5.15,10.07 7.56,15.1 2.4,5.04 4.48,9.82 6.24,14.34l-28.24 0c-3.36,-8.75 -7.26,-17.18 -11.71,-25.28 -4.45,-8.1 -9.23,-16.31 -14.34,-24.63l-14.01 0 0 49.91 -26.92 0 0 -133.53c2.62,-0.58 5.51,-1.12 8.65,-1.64 3.13,-0.51 6.3,-0.87 9.52,-1.09 3.2,-0.22 6.27,-0.4 9.19,-0.54 2.92,-0.15 5.47,-0.23 7.66,-0.23zm23.86 44.22c0,-7.15 -2.19,-12.4 -6.56,-15.76 -4.38,-3.35 -10.15,-5.04 -17.3,-5.04 -1.02,0 -2.26,0.04 -3.72,0.11 -1.46,0.08 -2.92,0.26 -4.38,0.55l0 40.72 5.91 0c9.19,0 15.84,-1.79 19.92,-5.36 4.09,-3.58 6.13,-8.65 6.13,-15.22z"/>
   <path class="fil6" d="M3453.66 3165.64c1.02,3.06 2.29,7 3.83,11.82 1.53,4.81 3.18,9.99 4.92,15.54 1.76,5.55 3.51,11.16 5.26,16.85 1.75,5.69 3.43,10.95 5.04,15.76 1.74,-5.4 3.57,-10.98 5.46,-16.74 1.9,-5.77 3.73,-11.31 5.48,-16.64 1.75,-5.33 3.36,-10.32 4.82,-14.99 1.45,-4.67 2.77,-8.54 3.93,-11.6l22.33 0c1.02,11.82 2,23.34 2.96,34.58 0.94,11.24 1.75,22.36 2.4,33.39 0.66,11.01 1.21,22.1 1.64,33.26 0.44,11.17 0.81,22.59 1.1,34.26l-24.74 0 1.32 -105.28 -16.64 57.34 -19.7 0 -15.98 -57.34 1.1 105.28 -24.74 0c0.44,-11.09 0.91,-22.62 1.43,-34.58 0.51,-11.97 1.05,-23.86 1.64,-35.68 0.58,-11.83 1.27,-23.28 2.08,-34.37 0.8,-11.09 1.71,-21.38 2.73,-30.86l22.33 0z"/>
   <path class="fil6" d="M3687.53 3301.13l-6.35 -31.3 -36.11 0 -6.13 31.3 -28.02 0c6.42,-26.7 12.92,-51.03 19.48,-73 6.57,-21.96 12.92,-42.79 19.05,-62.49l29.33 0c6.42,19.84 12.81,40.9 19.15,63.15 6.35,22.25 12.51,46.37 18.5,72.34l-28.9 0zm-24.08 -109.23c-1.46,5.11 -2.81,9.96 -4.04,14.56 -1.24,4.6 -2.42,9.12 -3.5,13.57 -1.1,4.45 -2.12,8.94 -3.07,13.46 -0.95,4.53 -1.86,9.2 -2.73,14.01l26.48 0c-0.88,-4.81 -1.76,-9.48 -2.63,-14.01 -0.87,-4.52 -1.86,-9.01 -2.95,-13.46 -1.1,-4.45 -2.26,-8.97 -3.51,-13.57 -1.24,-4.6 -2.59,-9.45 -4.05,-14.56z"/>
   <path class="fil6" d="M3877.18 3301.13c-6.13,-15.03 -12.81,-30.02 -20.03,-44.98 -7.22,-14.96 -14.99,-29.96 -23.31,-44.99l0 89.97 -24.3 0 0 -135.49 21.67 0c4.08,6.42 8.17,13.38 12.26,20.9 4.08,7.51 8.06,15 11.92,22.44 3.88,7.44 7.45,14.67 10.73,21.67 3.29,7 6.1,13.13 8.43,18.38l0 -83.39 24.3 0 0 135.49 -21.67 0z"/>
   <path class="fil7" d="M1416.4 3108.73l-173.08 0c-6.51,0 -11.22,-1.45 -14.13,-4.36 -2.91,-2.91 -4.36,-7.62 -4.36,-14.13l0 -332.8c0,-6.51 1.45,-11.21 4.36,-14.12 2.91,-2.91 7.62,-4.37 14.13,-4.37l173.08 0c42.79,0 74.55,8.56 95.26,25.68 20.72,17.12 31.08,43.48 31.08,79.09l0 160.25c0,35.6 -10.36,61.97 -31.08,79.08 -20.71,17.13 -52.47,25.68 -95.26,25.68zm-74.99 -271.68l0 174.62 61.12 0c8.21,0 14.29,-2.06 18.23,-6.17 3.94,-4.1 5.91,-10.44 5.91,-19l0 -124.8c0,-8.56 -1.97,-14.81 -5.91,-18.75 -3.94,-3.93 -10.02,-5.9 -18.23,-5.9l-61.12 0z"/>
   <path class="fil7" d="M1838.71 3108.73l-238.3 0c-6.51,0 -11.22,-1.45 -14.12,-4.36 -2.92,-2.91 -4.37,-7.62 -4.37,-14.13l0 -332.8c0,-6.51 1.45,-11.21 4.37,-14.12 2.9,-2.91 7.61,-4.37 14.12,-4.37l238.3 0c6.51,0 11.21,1.46 14.13,4.37 2.9,2.91 4.36,7.61 4.36,14.12l0 60.09c0,6.51 -1.46,11.21 -4.36,14.13 -2.92,2.9 -7.62,4.36 -14.13,4.36l-141.75 0 0 39.55 100.15 0c6.51,0 11.22,1.45 14.12,4.36 2.92,2.91 4.37,7.62 4.37,14.12l0 54.96c0,6.51 -1.45,11.21 -4.37,14.12 -2.9,2.91 -7.61,4.37 -14.12,4.37l-100.15 0 0 44.17 141.75 0c6.51,0 11.21,1.45 14.13,4.36 2.9,2.91 4.36,7.62 4.36,14.12l0 60.09c0,6.51 -1.46,11.22 -4.36,14.13 -2.92,2.91 -7.62,4.36 -14.13,4.36z"/>
   <path class="fil7" d="M1989.87 3108.73l-79.6 0c-6.51,0 -11.22,-1.45 -14.13,-4.36 -2.91,-2.91 -4.36,-7.62 -4.36,-14.13l0 -332.8c0,-6.51 1.45,-11.21 4.36,-14.12 2.91,-2.91 7.62,-4.37 14.13,-4.37l157.15 0c46.57,0 78.41,9.24 95.53,27.74 17.12,18.49 25.68,42.62 25.68,72.41l0 65.74c0,29.79 -8.56,53.93 -25.68,72.41 -17.12,18.5 -48.96,27.74 -95.53,27.74l-59.06 0 0 85.25c0,6.51 -1.46,11.22 -4.36,14.13 -2.92,2.91 -7.62,4.36 -14.13,4.36zm17.46 -273.74l0 77.55 46.23 0c9.93,0 16.43,-2.56 19.51,-7.7 3.09,-5.14 4.62,-10.96 4.62,-17.46l0 -27.22c0,-6.51 -1.53,-12.33 -4.62,-17.46 -3.08,-5.14 -9.58,-7.71 -19.51,-7.71l-46.23 0z"/>
   <path class="fil7" d="M2332.07 2831.4l0 65.74 38.52 0c8.9,0 14.9,-2.32 17.97,-6.94 3.08,-4.62 4.63,-10.36 4.63,-17.2l0 -17.46c0,-6.85 -1.55,-12.59 -4.63,-17.21 -3.07,-4.62 -9.07,-6.93 -17.97,-6.93l-38.52 0zm-18.49 277.33l-79.09 0c-6.51,0 -11.22,-1.45 -14.12,-4.36 -2.92,-2.91 -4.37,-7.62 -4.37,-14.13l0 -332.8c0,-6.51 1.45,-11.21 4.37,-14.12 2.9,-2.91 7.61,-4.37 14.12,-4.37l171.02 0c38.35,0 64.8,7.96 79.35,23.88 14.55,15.93 21.83,36.56 21.83,61.89l0 23.62c0,14.39 -2.14,26.63 -6.42,36.72 -4.28,10.11 -11.73,17.38 -22.34,21.83 18.49,2.06 33.47,9.59 44.94,22.6 11.47,13.01 17.2,30.3 17.2,51.88l0 108.87c0,6.51 -1.45,11.22 -4.37,14.13 -2.9,2.91 -7.61,4.36 -14.11,4.36l-79.61 0c-6.51,0 -11.21,-1.45 -14.13,-4.36 -2.91,-2.91 -4.36,-7.62 -4.36,-14.13l0 -78.57c0,-7.54 -1.46,-13.1 -4.37,-16.69 -2.91,-3.6 -7.96,-5.4 -15.15,-5.4l-71.9 0 0 100.66c0,6.51 -1.45,11.22 -4.37,14.13 -2.9,2.91 -7.62,4.36 -14.12,4.36z"/>
   <path class="fil7" d="M2705.6 2846.8l-24.14 78.07 80.63 0 -24.13 -78.07c-1.37,-3.08 -2.83,-5.3 -4.37,-6.67 -1.54,-1.37 -3.34,-2.05 -5.39,-2.05l-12.84 0c-2.05,0 -3.85,0.68 -5.4,2.05 -1.54,1.37 -2.99,3.59 -4.36,6.67zm-29.28 243.44c0,6.51 -1.45,11.22 -4.36,14.13 -2.91,2.91 -7.62,4.36 -14.12,4.36l-75.5 0c-6.5,0 -11.22,-1.45 -14.12,-4.36 -2.92,-2.91 -4.37,-7.62 -4.37,-14.13l0 -135.58c0,-10.28 1.63,-22.09 4.88,-35.44 3.25,-13.35 8.3,-28.93 15.15,-46.74l44.68 -116.58c2.05,-5.82 5.22,-10.1 9.5,-12.84 4.28,-2.74 9.84,-4.11 16.69,-4.11l138.16 0c6.5,0 11.89,1.37 16.18,4.11 4.28,2.74 7.45,7.02 9.5,12.84l44.68 116.58c6.85,17.81 11.9,33.39 15.15,46.74 3.26,13.35 4.88,25.16 4.88,35.44l0 135.58c0,6.51 -1.45,11.22 -4.37,14.13 -2.9,2.91 -7.61,4.36 -14.12,4.36l-77.55 0c-6.85,0 -11.9,-1.45 -15.15,-4.36 -3.25,-2.91 -4.88,-7.62 -4.88,-14.13l0 -71.9 -90.91 0 0 71.9z"/>
   <path class="fil7" d="M3134.09 3108.73l-133.53 0c-6.51,0 -11.9,-1.19 -16.18,-3.59 -4.28,-2.4 -7.62,-6.85 -10.02,-13.35l-50.33 -125.83c-3.08,-7.54 -5.64,-14.13 -7.7,-19.78 -2.06,-5.65 -3.76,-11.04 -5.13,-16.17 -1.38,-5.14 -2.32,-10.53 -2.83,-16.18 -0.52,-5.65 -0.77,-12.59 -0.77,-20.8l0 -135.59c0,-6.51 1.45,-11.21 4.37,-14.12 2.9,-2.91 7.62,-4.37 14.12,-4.37l81.66 0c6.5,0 11.47,1.46 14.89,4.37 3.43,2.91 5.14,7.61 5.14,14.12l0 141.75c0,3.43 0.34,6.85 1.03,10.27 0.68,3.42 1.7,7.02 3.08,10.79l24.14 71.9c1.03,3.43 2.22,5.73 3.59,6.93 1.37,1.2 3.43,1.8 6.16,1.8l5.65 0c2.74,0 4.8,-0.6 6.16,-1.8 1.38,-1.2 2.57,-3.5 3.6,-6.93l24.14 -72.42c1.37,-3.76 2.4,-7.36 3.08,-10.78 0.69,-3.43 1.03,-6.85 1.03,-10.28l0 -141.23c0,-6.51 1.45,-11.21 4.37,-14.12 2.9,-2.91 7.61,-4.37 14.12,-4.37l80.63 0c6.51,0 11.22,1.46 14.12,4.37 2.92,2.91 4.37,7.61 4.37,14.12l0 135.59c0,8.21 -0.25,15.15 -0.77,20.8 -0.51,5.65 -1.45,11.04 -2.82,16.18 -1.38,5.13 -3.08,10.52 -5.14,16.17 -2.06,5.65 -4.62,12.24 -7.7,19.78l-50.33 125.83c-2.4,6.5 -5.74,10.95 -10.02,13.35 -4.28,2.4 -9.67,3.59 -16.18,3.59z"/>
   <path class="fil7" d="M3520.98 3108.73l-238.3 0c-6.52,0 -11.22,-1.45 -14.13,-4.36 -2.91,-2.91 -4.37,-7.62 -4.37,-14.13l0 -332.8c0,-6.51 1.46,-11.21 4.37,-14.12 2.91,-2.91 7.61,-4.37 14.13,-4.37l238.3 0c6.5,0 11.21,1.46 14.12,4.37 2.91,2.91 4.37,7.61 4.37,14.12l0 60.09c0,6.51 -1.46,11.21 -4.37,14.13 -2.91,2.9 -7.62,4.36 -14.12,4.36l-141.75 0 0 39.55 100.14 0c6.52,0 11.22,1.45 14.13,4.36 2.91,2.91 4.37,7.62 4.37,14.12l0 54.96c0,6.51 -1.46,11.21 -4.37,14.12 -2.91,2.91 -7.61,4.37 -14.13,4.37l-100.14 0 0 44.17 141.75 0c6.5,0 11.21,1.45 14.12,4.36 2.91,2.91 4.37,7.62 4.37,14.12l0 60.09c0,6.51 -1.46,11.22 -4.37,14.13 -2.91,2.91 -7.62,4.36 -14.12,4.36z"/>
   <path class="fil7" d="M3684.45 3090.24c0,6.51 -1.46,11.22 -4.37,14.13 -2.91,2.91 -7.62,4.36 -14.12,4.36l-78.07 0c-6.5,0 -11.21,-1.45 -14.12,-4.36 -2.91,-2.91 -4.36,-7.62 -4.36,-14.13l0 -54.95c0,-15.75 1.37,-27.56 4.1,-35.44 2.74,-7.87 7.88,-17.11 15.41,-27.73l41.6 -55.98 -41.6 -55.98c-7.87,-10.62 -13.09,-19.86 -15.66,-27.73 -2.57,-7.88 -3.85,-19.7 -3.85,-35.44l0 -39.55c0,-6.51 1.45,-11.21 4.36,-14.12 2.91,-2.91 7.62,-4.37 14.12,-4.37l79.1 0c6.5,0 11.21,1.46 14.12,4.37 2.91,2.91 4.37,7.61 4.37,14.12l0 35.43c0,3.43 0.17,7.02 0.51,10.79 0.34,3.77 1.71,7.37 4.11,10.79l22.6 32.35c1.7,2.74 3.5,4.89 5.39,6.42 1.88,1.54 4.2,2.32 6.93,2.32l6.16 0c2.75,0 4.97,-0.78 6.68,-2.32 1.72,-1.53 3.59,-3.68 5.65,-6.42l23.11 -32.35c2.4,-3.42 3.77,-7.02 4.11,-10.79 0.34,-3.77 0.52,-7.36 0.52,-10.79l0 -35.43c0,-6.51 1.45,-11.21 4.36,-14.12 2.91,-2.91 7.62,-4.37 14.12,-4.37l78.07 0c6.5,0 11.22,1.46 14.12,4.37 2.92,2.91 4.37,7.61 4.37,14.12l0 39.55c0,15.74 -1.37,27.56 -4.11,35.44 -2.74,7.87 -7.88,17.11 -15.4,27.73l-41.61 56.49 41.61 55.47c7.87,10.62 13.09,19.86 15.66,27.73 2.57,7.88 3.85,19.69 3.85,35.44l0 54.95c0,6.51 -1.45,11.22 -4.37,14.13 -2.9,2.91 -7.62,4.36 -14.12,4.36l-78.07 0c-6.5,0 -11.21,-1.45 -14.12,-4.36 -2.91,-2.91 -4.36,-7.62 -4.36,-14.13l0 -50.84c0,-3.43 -0.18,-7.02 -0.52,-10.78 -0.34,-3.77 -1.71,-7.37 -4.11,-10.79l-22.6 -32.36c-2.05,-3.08 -3.93,-5.3 -5.64,-6.67 -1.72,-1.38 -3.94,-2.06 -6.68,-2.06l-7.19 0c-2.74,0 -4.97,0.68 -6.68,2.06 -1.71,1.37 -3.59,3.59 -5.65,6.67l-23.11 32.36c-2.39,3.42 -3.77,7.02 -4.11,10.79 -0.34,3.76 -0.51,7.35 -0.51,10.78l0 50.84z"/>
   <path class="fil8" d="M2359.77 3135.35c-1.38,2.7 -27.9,40.1 -28.92,40.97l13.79 9.83c0.68,-1.81 21.51,-30.87 24.85,-35.54 0.95,-1.33 2.92,-3.91 3.52,-5.34 0.52,0.55 0.58,-0.49 1.02,3.07l1.5 10.39c0.65,4.66 1.33,9.17 1.99,13.74 0.35,2.38 0.53,4.55 2.98,4.83 2.27,0.26 3.48,-2.32 4.37,-3.61 2.2,-3.2 4.36,-6.26 6.5,-9.27 3.2,-4.53 2.43,-5.26 1.2,-12.71 -0.73,-4.47 -1.37,-9.21 -1.99,-13.8l-2.94 -20.52c-0.4,-2.48 -0.09,-5.2 -2.61,-5.47 -1.73,-0.18 -33.21,6.68 -39.46,7.86 -6.63,1.26 -7.02,0.69 -10.42,5.33 -2.2,3.02 -4.38,6.12 -6.52,9.25 -0.99,1.45 -3.04,3.12 -1.64,5.29 1.18,1.84 3.43,1.43 5.96,0.9l26.82 -5.2z"/>
   <g>
    <path class="fil0 str1" d="M2798.78 1251.31c11.8,-19.04 35.59,-38.39 52.53,-54.08 24.11,-22.33 46.18,-42.25 35.03,-69.16 -5.46,-13.16 -16.89,-20.65 -31.73,-22.24 -30.8,-3.3 -54.01,37.36 -92.15,72.01 -9.01,8.18 -46.54,45.84 -51.49,56.04 -17.18,35.39 16.71,52.64 32.06,68.23 13.9,14.13 38.29,49.01 69.57,21.68 34.44,-30.1 -11.27,-68.12 -13.82,-72.48z"/>
    <path id="1" class="fil3" d="M2798.78 1251.31c11.8,-19.04 35.59,-38.39 52.53,-54.08 24.11,-22.33 46.18,-42.25 35.03,-69.16 -5.46,-13.16 -16.89,-20.65 -31.73,-22.24 -30.8,-3.3 -54.01,37.36 -92.15,72.01 -9.01,8.18 -46.54,45.84 -51.49,56.04 -17.18,35.39 16.71,52.64 32.06,68.23 13.9,14.13 38.29,49.01 69.57,21.68 34.44,-30.1 -11.27,-68.12 -13.82,-72.48z"/>
   </g>
   <g>
    <path class="fil0 str1" d="M2045.67 1189.54c12.34,2.47 79.06,73.97 83.3,80.79 -7.68,13.06 -21.06,17.59 -24.95,35.68 -7.57,35.06 33.47,65.84 65.65,30.84 66.41,-72.24 82.8,-52.72 -22.77,-156.51l-14.65 -18.03c-23.32,-13.37 -30.07,-41.16 -62.67,-36.85 -35.4,4.7 -33.91,35.82 -23.91,64.08z"/>
    <path id="1" class="fil3" d="M2045.67 1189.54c12.34,2.47 79.06,73.97 83.3,80.79 -7.68,13.06 -21.06,17.59 -24.95,35.68 -7.57,35.06 33.47,65.84 65.65,30.84 66.41,-72.24 82.8,-52.72 -22.77,-156.51l-14.65 -18.03c-23.32,-13.37 -30.07,-41.16 -62.67,-36.85 -35.4,4.7 -33.91,35.82 -23.91,64.08z"/>
   </g>
  </g>
 </g>
</svg>
