<?xml version="1.0" encoding="UTF-8"?>
<!DOCTYPE svg PUBLIC "-//W3C//DTD SVG 1.1//EN" "http://www.w3.org/Graphics/SVG/1.1/DTD/svg11.dtd">
<!-- Creator: CorelDRAW 2017 -->
<svg xmlns="http://www.w3.org/2000/svg" xml:space="preserve" width="50.7998mm" height="33.8666mm" version="1.1" style="shape-rendering:geometricPrecision; text-rendering:geometricPrecision; image-rendering:optimizeQuality; fill-rule:evenodd; clip-rule:evenodd"
viewBox="0 0 5079.98 3386.66"
 xmlns:xlink="http://www.w3.org/1999/xlink">
 <defs>
  <style type="text/css">
   <![CDATA[
    .fil0 {fill:none}
    .fil1 {fill:black}
    .fil3 {fill:#50C987}
    .fil2 {fill:#693698}
   ]]>
  </style>
 </defs>
 <g id="Capa_x0020_1">
  <metadata id="CorelCorpID_0Corel-Layer"/>
  <rect class="fil0" x="-0" width="5079.99" height="3386.66"/>
  <rect class="fil0" x="184.74" y="229.72" width="931.33" height="5918.19"/>
  <g id="_2254128564288">
   <g>
    <path class="fil1" d="M1261.85 1948.45l-137.31 0 0 -253.65c0,-65.47 -23.8,-98.03 -71.54,-98.03 -24.41,0 -44.18,9.07 -59.22,27.36 -15.17,18.3 -22.75,41.66 -22.75,69.78l0 254.54 -137.62 0 0 -660.67 137.62 0 0 280.56 1.77 0c33.78,-51.33 79.45,-77.06 137.33,-77.06 101.16,0 151.72,61 151.72,182.99l0 274.18zm466.46 -183.88l-291.14 0c4.63,64.72 45.54,97.14 122.45,97.14 49.09,0 92.24,-11.6 129.43,-34.8l0 99.36c-41.22,22.03 -94.77,33.04 -160.82,33.04 -72,0 -127.94,-19.94 -167.81,-59.96 -39.73,-39.88 -59.66,-95.65 -59.66,-167.06 0,-74.09 21.43,-132.85 64.56,-176.14 43.01,-43.29 95.82,-64.87 158.6,-64.87 65,0 115.43,19.35 151,57.89 35.55,38.67 53.39,91.18 53.39,157.38l0 58.02zm-127.63 -84.66c0,-63.81 -25.89,-95.79 -77.65,-95.79 -22.03,0 -41.23,9.07 -57.29,27.36 -16.21,18.31 -25.88,41.22 -29.46,68.43l164.4 0zm303.85 268.54l-137.61 0 0 -660.67 137.61 0 0 660.65 0 0.02zm210.28 0l-137.61 0 0 -660.67 137.61 0 0 660.65 0 0.02zm285.24 10.86c-74.36,0 -132.83,-20.83 -175.38,-62.48 -42.55,-41.66 -63.82,-98.33 -63.82,-169.75 0,-73.78 22.02,-131.65 66.19,-173.31 44.18,-41.66 104,-62.49 179.13,-62.49 74.08,0 132.26,20.83 174.37,62.49 42.09,41.66 63.22,96.85 63.22,165.42 0,74.1 -21.72,132.7 -65.16,175.69 -43.44,43.01 -102.96,64.43 -178.55,64.43zm3.58 -362.54c-32.56,0 -57.86,11.16 -75.88,33.47 -17.99,22.46 -27.06,54.14 -27.06,95.05 0,85.69 34.67,128.54 103.83,128.54 65.91,0 98.94,-44.03 98.94,-131.95 0,-83.46 -33.31,-125.11 -99.83,-125.11z"/>
    <path class="fil2" d="M2619.9 2097.55c-8.64,0 -16.05,-2.99 -22.03,-9.09 -6.09,-5.96 -9.07,-13.38 -9.07,-22.02 0,-8.75 2.98,-16.26 8.85,-22.25 5.98,-6.08 13.4,-9.07 22.25,-9.07 4.31,0 8.31,0.77 12.06,2.42 3.77,1.67 7.1,3.78 9.86,6.43 2.88,2.77 5.1,5.98 6.86,9.86 1.66,3.98 2.56,8.18 2.56,12.61 0,4.32 -0.9,8.41 -2.56,12.18 -1.76,3.77 -3.98,7.08 -6.86,9.84 -2.76,2.79 -6.09,4.99 -9.86,6.66 -3.75,1.66 -7.75,2.43 -12.06,2.43zm519.88 -6.64l0 -195.49c0,-19.82 -1.54,-36.64 -4.53,-50.48 -2.99,-13.73 -7.74,-24.9 -14.06,-33.54 -6.43,-8.64 -14.49,-14.95 -24.25,-18.82 -9.85,-3.88 -21.58,-5.87 -35.2,-5.87 -12.06,0 -23.46,2.88 -34.31,8.63 -10.74,5.75 -20.15,13.62 -28.33,23.69 -8.08,10.07 -14.4,21.91 -19.06,35.54 -4.64,13.63 -6.96,28.33 -6.96,44.17l0 192.17 -41.85 0 0 -199.71c0,-69.63 -26.57,-104.49 -79.8,-104.49 -12.29,0 -23.69,2.76 -34.22,8.31 -10.63,5.53 -19.81,13.16 -27.66,23.12 -7.86,9.96 -13.97,21.93 -18.39,35.98 -4.41,13.96 -6.63,29.34 -6.63,46.17l0 190.62 -41.85 0 0 -332.1 41.85 0 0 53.8 1.32 0c23.36,-41.18 57.34,-61.77 102.07,-61.77 11.61,0 22.69,1.78 33.09,5.32 10.29,3.65 19.59,8.63 27.79,14.95 8.3,6.41 15.26,14.04 21.26,22.91 5.98,8.95 10.39,18.71 13.49,29.33 11.63,-23.69 26.8,-41.62 45.51,-54.03 18.71,-12.29 39.84,-18.48 63.31,-18.48 72.84,0 109.26,44.94 109.26,134.95l0 205.12 -41.85 0zm253.23 7.97c-24.59,0 -46.73,-4.09 -66.21,-12.29 -19.6,-8.29 -36.32,-19.93 -50.15,-34.98 -13.83,-15.05 -24.34,-32.98 -31.65,-54.03 -7.43,-21.03 -11.08,-44.27 -11.08,-69.85 0,-27.67 3.88,-52.46 11.62,-74.27 7.86,-21.91 18.94,-40.41 33.22,-55.68 14.39,-15.28 31.77,-26.9 52.01,-34.87 20.38,-8.08 43.07,-12.07 68.08,-12.07 24.03,0 45.63,3.99 64.76,11.85 19.27,7.86 35.55,19.38 48.94,34.21 13.39,14.94 23.69,33.21 30.78,54.57 7.19,21.48 10.73,45.83 10.73,73.06 0,26.02 -3.77,49.59 -11.18,70.96 -7.42,21.36 -18.04,39.63 -31.88,55.01 -13.84,15.39 -30.66,27.23 -50.58,35.75 -19.83,8.42 -42.29,12.63 -67.41,12.63zm3.31 -312.17c-18.28,0 -34.65,3.1 -49.37,9.4 -14.73,6.31 -27.35,15.4 -37.85,27.46 -10.53,11.96 -18.62,26.68 -24.26,44.17 -5.65,17.38 -8.41,37.19 -8.41,59.24 0,20.81 2.76,39.49 8.41,56.1 5.64,16.72 13.61,31 23.92,42.95 10.3,11.85 22.8,21.04 37.52,27.34 14.72,6.43 31.1,9.64 49.38,9.64 18.59,0 35.08,-3.1 49.36,-9.3 14.28,-6.09 26.35,-15.05 36.3,-26.9 9.98,-11.84 17.5,-26.23 22.59,-43.39 5.1,-17.04 7.64,-36.53 7.64,-58.46 0,-44.71 -9.97,-79.02 -29.89,-102.71 -19.91,-23.69 -48.37,-35.54 -85.34,-35.54zm442.39 304.2l0 -191.51c0,-75.17 -27.12,-112.69 -81.46,-112.69 -14.4,0 -27.81,2.88 -40.09,8.63 -12.28,5.75 -22.91,13.62 -31.87,23.8 -8.86,10.19 -15.95,22.25 -20.93,36.2 -5.09,13.95 -7.63,29.12 -7.63,45.28l0 190.29 -41.86 0 0 -332.1 41.86 0 0 57.57 1.32 0c24.59,-43.73 61.66,-65.54 111.03,-65.54 36.3,0 63.99,11.74 83.02,35.32 18.94,23.58 28.46,57.66 28.46,102.28l0 202.47 -41.85 0zm99.45 -59.67c6.3,4.98 13.07,9.41 20.38,13.29 7.29,3.86 14.94,7.19 22.69,10.08 7.74,2.76 15.49,4.87 23.46,6.3 7.85,1.44 15.28,2.1 22.48,2.1 49.14,0 73.72,-18.48 73.72,-55.35 0,-8.41 -1.76,-15.72 -5.21,-21.91 -3.43,-6.21 -8.41,-11.85 -14.83,-16.95 -6.53,-5.09 -14.28,-9.73 -23.35,-14.04 -9.09,-4.32 -19.37,-8.87 -30.79,-13.63 -15.38,-6.3 -28.56,-12.72 -39.62,-19.14 -10.96,-6.53 -20.03,-13.63 -27.23,-21.26 -7.08,-7.75 -12.41,-16.16 -15.83,-25.36 -3.42,-9.19 -5.21,-19.69 -5.21,-31.33 0,-14.71 3.22,-27.89 9.53,-39.29 6.42,-11.51 14.94,-21.25 25.68,-29.22 10.85,-7.97 23.25,-14.18 37.3,-18.39 14.17,-4.19 29,-6.3 44.51,-6.3 28.66,0 53.57,5.44 74.92,16.17l0 43.73c-24.78,-16.06 -51.58,-24.03 -80.25,-24.03 -10.28,0 -19.69,1.32 -28.21,3.88 -8.53,2.65 -15.84,6.31 -21.93,11.06 -5.96,4.76 -10.74,10.53 -14.05,17.16 -3.33,6.64 -4.98,13.95 -4.98,21.92 0,8.3 1.32,15.49 3.86,21.59 2.67,6.2 6.65,11.84 12.18,16.82 5.54,4.86 12.63,9.64 21.37,14.28 8.74,4.54 19.38,9.4 31.99,14.61 15.94,6.43 29.77,12.84 41.39,19.26 11.75,6.42 21.37,13.3 28.9,20.81 7.53,7.43 13.18,15.72 16.84,25.02 3.64,9.19 5.53,19.82 5.53,31.89 0,14.94 -3.11,28.33 -9.19,39.96 -6.21,11.73 -14.73,21.58 -25.58,29.55 -10.84,7.98 -23.69,14.06 -38.3,18.16 -14.61,4.1 -30.55,6.2 -47.82,6.2 -33.43,0 -61.55,-7.08 -84.35,-21.15l0 -46.49zm406.98 55.57c-14.28,7.2 -29.79,10.74 -46.61,10.74 -53.47,0 -80.25,-30.89 -80.25,-92.66l0 -209.55 -58.46 0 0 -36.53 58.46 0 0 -83.36 41.84 -13.61 0 96.97 85.02 0 0 36.53 -85.02 0 0 202.91c0,22.47 3.65,38.63 10.96,48.59 7.31,9.86 19.6,14.84 37.08,14.84 12.84,0 25.13,-3.87 36.98,-11.62l0 36.75zm59.38 -154.65c0.23,20.38 2.88,38.63 8.09,54.91 5.21,16.16 12.61,30 22.36,41.18 9.74,11.3 21.59,19.94 35.53,25.79 13.95,5.98 29.67,8.97 47.15,8.97 37.42,0 72.74,-13.06 106.06,-39.3l0 41.07c-31.77,22.69 -70.29,34.1 -115.46,34.1 -22.25,0 -42.5,-3.88 -60.66,-11.74 -18.16,-7.75 -33.55,-19.03 -46.39,-33.88 -12.72,-14.83 -22.58,-33.08 -29.44,-54.67 -6.97,-21.7 -10.41,-46.39 -10.41,-74.06 0,-24.9 3.76,-47.93 11.3,-69.19 7.63,-21.14 18.02,-39.51 31.43,-55.02 13.51,-15.49 29.34,-27.55 47.7,-36.3 18.39,-8.75 38.43,-13.18 60.23,-13.18 21.47,0 40.3,3.77 56.79,11.19 16.38,7.52 30.22,18.14 41.3,31.99 11.18,13.84 19.58,30.66 25.45,50.58 5.87,19.93 8.75,42.19 8.75,66.75l0 20.81 -239.78 0zm197.25 -36.52c-0.66,-34.55 -8.85,-61.33 -24.67,-80.38 -15.83,-19.03 -37.87,-28.55 -65.98,-28.55 -14.07,0 -27.13,2.44 -39.2,7.42 -11.95,4.98 -22.57,12.17 -31.66,21.59 -9.07,9.41 -16.61,20.92 -22.57,34.43 -5.98,13.5 -10.07,28.67 -12.52,45.49l196.6 0zm265.72 -94.21c-9.73,-7.18 -22.25,-10.73 -37.63,-10.73 -10.96,0 -20.7,2.1 -29.12,6.31 -8.52,4.2 -15.83,9.85 -22.25,17.05 -6.42,7.07 -11.73,15.38 -16.15,24.78 -4.55,9.41 -8.09,19.17 -10.75,29.36 -2.76,10.16 -4.65,20.47 -5.87,30.77 -1.2,10.39 -1.76,20.24 -1.76,29.54l0 162.4 -41.19 0 0 -332.1 41.19 0 0 71.19 1.33 0c3.87,-12.07 8.74,-23.03 14.72,-32.56 5.98,-9.62 12.83,-17.82 20.58,-24.34 7.76,-6.66 16.28,-11.64 25.47,-15.06 9.18,-3.43 18.82,-5.21 29.01,-5.21 6.74,0 12.72,0.46 18.02,1.32 5.21,0.79 10.08,2.13 14.4,3.89l0 43.39z"/>
    <path class="fil3" d="M583.07 1948.45l-71.56 0 0 -257.23c0,-92.97 -34.52,-139.39 -103.7,-139.39 -34.79,0 -64.26,13.39 -88.06,40.32 -23.8,26.93 -35.7,61.44 -35.7,103.53l0 252.77 -71.56 0 0 -660.67 71.56 0 0 288.45 1.79 0c34.22,-56.38 83,-84.49 146.37,-84.49 100.57,0 150.86,60.54 150.86,181.65l0 275.06zm128.14 -559.67c-12.64,0 -23.64,-4.32 -32.57,-13.08 -9.08,-8.64 -13.55,-19.65 -13.55,-33.04 0,-13.38 4.47,-24.54 13.55,-33.3 8.93,-8.93 19.93,-13.4 32.57,-13.4 13.1,0 24.25,4.47 33.47,13.4 9.08,8.76 13.7,19.92 13.7,33.3 0,12.79 -4.62,23.66 -13.7,32.59 -9.22,9.07 -20.37,13.53 -33.47,13.53zm34.97 559.67l-71.56 0 0 -446.3 71.56 0 0 446.3z"/>
   </g>
  </g>
 </g>
</svg>
