<?xml version="1.0" encoding="UTF-8"?>
<!DOCTYPE svg PUBLIC "-//W3C//DTD SVG 1.1//EN" "http://www.w3.org/Graphics/SVG/1.1/DTD/svg11.dtd">
<!-- Creator: CorelDRAW 2017 -->
<svg xmlns="http://www.w3.org/2000/svg" xml:space="preserve" width="50.7998mm" height="33.8666mm" version="1.1" style="shape-rendering:geometricPrecision; text-rendering:geometricPrecision; image-rendering:optimizeQuality; fill-rule:evenodd; clip-rule:evenodd"
viewBox="0 0 5079.98 3386.66"
 xmlns:xlink="http://www.w3.org/1999/xlink">
 <defs>
  <style type="text/css">
   <![CDATA[
    .fil0 {fill:none}
    .fil2 {fill:#373435;fill-rule:nonzero}
    .fil1 {fill:black;fill-rule:nonzero}
   ]]>
  </style>
 </defs>
 <g id="Capa_x0020_1">
  <metadata id="CorelCorpID_0Corel-Layer"/>
  <rect class="fil0" x="-0" width="5079.99" height="3386.66"/>
  <rect class="fil0" x="-0" width="5079.99" height="3386.66"/>
  <path class="fil1" d="M100.65 2165.21c0,-75.05 41.63,-132.61 124.65,-172.12 -46.95,-21.5 -70.56,-56.76 -70.56,-105.83 0,-47.21 24.95,-87.79 75.07,-122 -63.93,-48.8 -95.75,-115.65 -95.75,-200.51l0 -44.57c0,-76.37 27.32,-138.97 81.96,-187.77 54.64,-48.81 125.97,-73.21 214.04,-73.21 74.26,0 135.79,18.04 184.59,54.11 30.77,-71.08 65.25,-106.62 103.43,-106.62 20.17,0 36.61,6.11 49.35,18.3 12.72,12.2 19.08,25.2 19.08,38.99 0,16.97 -9.01,30.23 -27.04,39.79 -33.96,14.85 -60.47,36.07 -79.57,63.65 33.94,42.43 50.92,93.36 50.92,152.76l0 44.57c0,76.39 -28.11,139.5 -84.35,189.36 -56.22,49.87 -128.36,74.8 -216.41,74.8 -41.39,0 -77.99,-6.37 -109.82,-19.11 -20.15,13.81 -30.22,28.92 -30.22,44.83 0,21.49 16.71,37.13 50.12,46.68 33.42,9.56 73.74,17.24 120.93,22.55 47.22,5.3 94.43,13 141.64,23.34 47.22,10.07 87.54,31.82 120.94,64.99 33.43,33.4 50.14,77.44 50.14,132.08 0,78.23 -31.57,137.37 -94.69,177.16 -63.13,39.78 -142.96,59.68 -239.5,59.68 -96.54,0 -177.18,-19.62 -241.89,-58.62 -64.7,-39.25 -97.06,-91.76 -97.06,-157.28zm157.54 -17.76c0,38.46 16.7,69.48 50.12,92.55 33.43,23.09 76.65,34.49 129.69,34.49 51.99,0 93.89,-11.14 125.72,-33.68 31.82,-22.54 47.75,-53.32 47.75,-91.78 0,-24.66 -7.43,-45.34 -22.29,-62.05 -14.85,-16.46 -36.86,-28.92 -66.04,-36.88 -29.17,-7.94 -54.1,-13.52 -74.79,-16.18 -20.68,-2.65 -48.54,-5.04 -83.54,-7.15 -71.08,26.78 -106.62,67.1 -106.62,120.68zm38.19 -584.3c0,46.68 12.21,84.88 36.6,114.57 24.4,29.71 57.83,44.57 100.26,44.57 41.37,0 74.26,-14.6 98.65,-43.76 24.4,-29.18 36.61,-67.1 36.61,-113.78l0 -44.57c0,-44.55 -12.21,-81.41 -36.61,-110.59 -24.39,-29.17 -57.82,-43.77 -100.25,-43.77 -41.37,0 -74.26,14.6 -98.66,43.77 -24.39,29.18 -36.6,66.04 -36.6,110.59l0 42.97zm476.62 155.96l0 -151.18c0,-83.82 32.36,-156.22 97.05,-217.22 64.72,-61.01 142.71,-91.51 233.94,-91.51 87,0 161.53,27.58 223.58,82.75 62.07,55.18 93.1,124.93 93.1,209.01 0,32.36 -3.71,58.61 -11.14,78.76 -7.43,19.89 -19.1,33.96 -35,42.18 -15.93,7.96 -30.78,13.25 -44.57,15.38 -13.79,2.12 -31.82,3.18 -54.11,3.18l-335.77 0 0 36.87c0,53.57 19.1,96 57.29,127.57 38.19,31.57 88.05,47.22 149.58,47.22 43.5,0 84.61,-10.08 123.33,-30.51 38.74,-20.16 62.33,-30.5 70.82,-30.5 18.04,0 33.43,8.48 46.15,25.72 12.74,16.97 19.1,33.43 19.1,49.33 0,26.26 -25.46,52.79 -76.39,79.57 -50.93,26.79 -113.51,40.05 -187.77,40.05 -108.21,0 -196.81,-29.16 -265.76,-87.52 -68.96,-58.35 -103.43,-134.74 -103.43,-229.15zm167.08 -135.26l264.16 0c23.35,0 39,-3.2 46.96,-9.29 7.94,-6.38 11.93,-18.84 11.93,-37.67 0,-41.9 -15.39,-77.18 -46.15,-106.61 -30.77,-29.18 -68.96,-43.76 -114.57,-43.76 -44.57,0 -82.76,13.79 -114.58,41.37 -31.83,27.85 -47.75,63.11 -47.75,105.82l0 50.14zm516.41 138.44l0 -397.84c0,-14.85 8.49,-27.85 25.46,-38.99 16.99,-11.14 36.6,-16.72 58.89,-16.72 22.28,0 41.64,5.58 58.08,16.72 16.45,11.14 24.67,24.14 24.67,38.72l0 397.04c0,42.18 16.18,80.37 48.54,114.32 32.35,33.68 70.28,50.65 113.76,50.65 44.57,0 82.76,-16.71 114.58,-50.11 31.84,-33.17 47.75,-71.62 47.75,-114.86l0 -398.63c0,-14.58 8.22,-27.32 24.67,-37.92 16.44,-10.61 36.33,-15.93 59.68,-15.93 23.33,0 42.69,5.32 58.08,15.93 15.39,10.6 23.07,23.34 23.07,38.18l0 399.44c0,83.82 -32.36,157.01 -97.07,219.61 -64.72,62.58 -141.62,93.88 -230.76,93.88 -89.11,0 -166.29,-31.3 -231.52,-93.88 -65.25,-62.6 -97.88,-135.79 -97.88,-219.61zm685.08 186.19c0,-15.92 5.58,-32.36 16.97,-49.33 11.15,-16.99 24.68,-25.46 40.86,-25.46 9.54,0 22.79,6.1 40.04,18.56 16.97,12.47 40.04,24.93 68.96,37.4 28.9,12.47 63.65,18.83 104.23,18.83 90.97,0 136.32,-28.91 136.32,-86.47 0,-31.03 -13.25,-55.17 -39.78,-72.93 -26.51,-17.51 -58.61,-31.3 -96.27,-41.65 -37.67,-10.07 -75.06,-21.47 -112.18,-34.21 -37.14,-13 -68.97,-34.75 -95.5,-65.78 -26.51,-31.02 -39.78,-71.08 -39.78,-120.15 0,-62.33 22.28,-115.9 66.85,-160.72 44.54,-44.83 112.97,-67.37 205.27,-67.37 60.47,0 115.38,9.29 164.71,27.86 49.33,18.56 74,40.57 74,66.04 0,14.85 -6.1,32.08 -18.31,51.71 -12.19,19.64 -27.32,29.44 -45.36,29.44 -6.36,0 -28.11,-7.96 -65.23,-23.87 -37.13,-15.92 -72.67,-23.86 -106.63,-23.86 -42.43,0 -74.52,9.54 -96.27,28.9 -21.75,19.1 -32.63,40.58 -32.63,63.93 0,25.72 13.27,45.87 39.79,61 26.53,14.85 58.88,27.04 97.07,36.59 38.2,9.81 75.86,21.49 112.72,35.28 37.14,13.79 68.7,37.93 94.68,72.14 26.28,34.22 39.26,77.97 39.26,131.29 0,68.69 -24.4,122.54 -73.2,161.51 -48.81,39 -117.75,58.62 -206.87,58.62 -75.32,0 -139.78,-13.26 -193.35,-39.77 -53.58,-26.53 -80.37,-55.71 -80.37,-87.53z"/>
  <path class="fil1" d="M2980.85 1755.63l0 0c40.01,0 73.69,13.63 101.07,41 27.42,27.36 41.14,61.06 41.14,101.07l0 35.6c0,24.73 -5.9,47.77 -17.76,69.09 -11.88,21.32 -28.37,38.51 -49.47,51.53 20.82,10.86 37.24,26.08 49.25,45.76 12.01,19.62 17.98,41.15 17.98,64.46l0 0c0,35.11 -11.93,64.68 -35.88,88.63 -23.95,23.95 -53.53,35.89 -88.64,35.89l-35.4 0c-34.81,0 -64.32,-11.87 -88.4,-35.61 -24.09,-23.73 -36.11,-53.01 -36.11,-87.84l0 -1.07c0,-10.02 3.42,-18.39 10.32,-25.15 6.89,-6.83 15.26,-10.23 25.29,-10.23l0 0c10.02,0 18.41,3.4 25.31,10.23 6.89,6.76 10.29,15.13 10.29,25.15l0 0 0 17.99c0,20.04 6.83,36.88 20.55,50.6 13.65,13.72 30.48,20.54 50.46,20.54l0 0c19.96,0 36.81,-6.82 50.47,-20.54 13.7,-13.72 20.52,-30.56 20.52,-50.6l0 -35.75c0,-20.11 -6.82,-37.03 -20.39,-50.6 -13.65,-13.58 -30.48,-20.34 -50.6,-20.34l-0.22 0 0 0 0.22 0c-40.23,0 -74.07,-13.63 -101.28,-40.94 -27.29,-27.21 -40.94,-61.03 -40.94,-101.26l0 -35.61c0,-40.1 13.65,-73.85 41.01,-101.07 27.37,-27.3 61.12,-40.93 101.21,-40.93zm0 35.38c-20.11,0 -36.96,6.83 -50.6,20.55 -13.58,13.65 -20.41,30.55 -20.41,50.74l0 106.68c0,20.19 6.83,37.03 20.41,50.67 13.64,13.58 30.49,20.41 50.6,20.41l0 0c19.96,0 36.81,-6.83 50.47,-20.55 13.7,-13.65 20.52,-30.48 20.52,-50.53l0 -106.68c0,-20.04 -6.82,-36.88 -20.52,-50.67 -13.66,-13.72 -30.51,-20.62 -50.47,-20.62zm312.32 -35.38l0 0c40.01,0 73.69,13.63 101.06,41 27.43,27.36 41.15,60.99 41.15,101l0 35.61c0,40.07 -13.64,73.84 -41.01,101.2 -27.35,27.37 -61.12,41 -101.2,41l0 0c-40.23,0 -74.07,-13.63 -101.29,-40.94 -27.28,-27.21 -40.93,-61.03 -40.93,-101.26l0 -35.61c0,-40.1 13.65,-73.85 41,-101.07 27.38,-27.3 61.13,-40.93 101.22,-40.93zm0 35.38c-20.12,0 -36.96,6.83 -50.6,20.55 -13.58,13.65 -20.41,30.55 -20.41,50.74l0 106.68c0,20.19 6.83,37.03 20.41,50.67 13.64,13.58 30.48,20.41 50.6,20.41l0 0c19.96,0 36.81,-6.83 50.46,-20.55 13.71,-13.65 20.53,-30.48 20.53,-50.53l0 -106.68c0,-20.04 -6.82,-36.88 -20.53,-50.67 -13.65,-13.72 -30.5,-20.62 -50.46,-20.62zm242.94 177.97c0,20.19 6.83,37.03 20.41,50.67 13.64,13.58 30.49,20.41 50.6,20.41l0 0c19.96,0 36.81,-6.83 50.46,-20.55 13.71,-13.65 20.53,-30.48 20.53,-50.53l0 -177.97c0,-9.94 3.43,-18.4 10.32,-25.15 6.89,-6.83 15.27,-10.23 25.29,-10.23l0 0c10.03,0 18.42,3.4 25.31,10.3 6.89,6.89 10.3,15.28 10.3,25.17l0 142.34 0 0 0 0 0 0c0,40.1 -13.64,73.78 -41.01,101.06 -27.35,27.31 -61.12,40.94 -101.2,40.94l0 0c-39.73,0 -73.34,-13.63 -100.85,-40.94 -27.58,-27.21 -41.37,-60.69 -41.37,-100.2l0 -143.29c0,-10.01 3.42,-18.4 10.31,-25.15 6.9,-6.83 15.27,-10.23 25.3,-10.23l0 0c10.02,0 18.41,3.4 25.3,10.3 6.9,6.89 10.3,15.28 10.3,25.08l0 177.97zm524.25 -71.58l0.22 0.23c0,0.07 0.07,0.14 0.21,0.14 0,9.88 -3.48,18.34 -10.44,25.23 -6.89,6.97 -15.28,10.44 -25.17,10.44 -10.02,0 -18.4,-3.4 -25.29,-10.3 -6.9,-6.89 -10.32,-15.28 -10.32,-25.31l-0.2 0 0.2 -35.38c0,-19.98 -6.82,-36.9 -20.53,-50.6 -13.65,-13.72 -30.5,-20.62 -50.46,-20.62l0 0c-20.12,0 -36.97,6.83 -50.6,20.46 -13.58,13.73 -20.41,30.57 -20.41,50.69l0 177.45c0,9.89 -3.47,18.28 -10.37,25.24 -6.96,6.9 -15.35,10.37 -25.24,10.37 -10.02,0 -18.39,-3.4 -25.29,-10.3 -6.89,-6.89 -10.31,-15.28 -10.31,-25.31l0 -142.2c0,-40.1 13.65,-73.85 41,-101.07 27.38,-27.3 61.13,-40.93 101.22,-40.93l0 0c39.44,0 72.92,13.72 100.56,41.07 27.65,27.37 41.44,60.76 41.44,100.29l-0.22 0.21 0 0.2zm89.87 142.43c0,9.89 -3.49,18.28 -10.39,25.24 -6.96,6.9 -15.35,10.37 -25.22,10.37l0 0c-9.89,0 -18.28,-3.47 -25.24,-10.37 -6.89,-6.96 -10.37,-15.35 -10.37,-25.24l0 -143.06c0,-39.8 13.72,-73.28 41.21,-100.43 27.51,-27.15 61.13,-40.71 101,-40.71l0 0c42.23,0 77.75,16.19 106.62,48.53 28.28,-32.34 63.82,-48.53 106.59,-48.53l0 0c40.1,0 73.85,13.63 101.22,41 27.36,27.29 41.01,61.06 41.01,101.2l0 0 0 0 0 0 0 142.07c0,9.82 -3.49,18.21 -10.39,25.17 -6.96,6.9 -15.35,10.37 -25.22,10.37l0 0c-9.89,0 -18.28,-3.47 -25.24,-10.37 -6.89,-6.96 -10.37,-15.35 -10.37,-25.24l0 -177.6c0,-20.12 -6.82,-37.02 -20.41,-50.67 -13.63,-13.72 -30.48,-20.55 -50.6,-20.55l0 0c-20.11,0 -36.94,6.83 -50.6,20.55 -13.58,13.65 -20.39,30.55 -20.39,50.67l0 177.6c0,19.28 -9.52,30.92 -28.5,34.77 -2.77,0.57 -5.2,0.84 -7.1,0.84l0 0c-9.89,0 -18.28,-3.47 -25.24,-10.37 -6.9,-6.96 -10.37,-15.35 -10.37,-25.24l0 -177.6c0,-20.12 -6.83,-37.02 -20.41,-50.67 -13.64,-13.72 -30.48,-20.55 -50.6,-20.55l0 0c-20.12,0 -36.95,6.83 -50.6,20.55 -13.58,13.65 -20.39,30.55 -20.39,50.67l0 177.6zm671.36 -142.2l0 -35.33c0,-19.97 -6.82,-36.82 -20.52,-50.54 -13.66,-13.7 -30.51,-20.53 -50.47,-20.53l0 0c-20.11,0 -36.96,6.83 -50.6,20.46 -13.58,13.66 -20.41,30.51 -20.41,50.61l0 35.33 142 0zm-2.26 89.11l-0.3 0 0 0 0.3 0c2.49,-11.79 7.96,-17.69 16.42,-17.69l28.91 0c7.4,0 11.46,0.07 12.09,0.22 4.47,0.98 6.69,3.7 6.69,8.1 1.91,0 0.98,3.06 -2.92,9.16 -18.06,28.08 -35.89,49.04 -53.53,62.76 -22.31,17.42 -47.83,26.15 -76.39,26.15l0 0c-40.23,0 -74.07,-13.63 -101.28,-41 -27.29,-27.29 -40.94,-61.13 -40.94,-101.43l0 -35.38c0,-40.1 13.65,-73.85 41.01,-101.07 27.37,-27.3 61.12,-40.93 101.21,-40.93l0 0c39.45,0 72.92,13.72 100.57,41.14 27.64,27.44 41.43,60.92 41.43,100.43l-0.22 0.2 0 0.23 0.22 0c0,0.14 0.07,0.2 0.21,0.2 0,9.89 -3.34,18.21 -10.09,25.02 -6.74,6.76 -15.13,10.16 -25.09,10.16l0 0 -178.04 0 0 35.76c0,20.19 6.83,37.18 20.41,50.81 13.64,13.65 30.49,20.48 50.6,20.48l0 0c16.34,0 30.92,-4.9 43.5,-14.79 12.64,-9.88 21.03,-22.68 25.23,-38.53z"/>
  <polygon class="fil1" points="4754.56,1766.53 4801.13,1666.81 4885.57,1666.81 4807.69,1766.53 "/>
  <path class="fil2" d="M174.84 393.36l78.04 0c7.39,0 13.87,-1.72 19.48,-5.21 5.62,-3.44 9.92,-8.37 13.01,-14.73 3.1,-6.42 4.64,-13.75 4.64,-22l0 0c0,-8.43 -1.54,-15.82 -4.64,-22.18 -3.09,-6.36 -7.39,-11.34 -13.01,-14.84 -5.61,-3.55 -12.09,-5.27 -19.48,-5.27l-78.04 0 0 -32.61 76.9 0c14.55,0 27.33,3.1 38.45,9.35 11.05,6.18 19.65,14.95 25.72,26.24 6.13,11.34 9.17,24.41 9.17,39.31l0 0c0,14.9 -3.04,27.96 -9.17,39.19 -6.07,11.23 -14.67,19.94 -25.72,26.07 -11.12,6.19 -23.9,9.29 -38.45,9.29l-76.9 0 0 -32.61zm-17.65 -116.84l34.26 0 0 244.11 -34.26 0 0 -244.11zm202.33 69.86l34.21 0 0 174.25 -34.21 0 0 -174.25zm95.87 41.31c-3.04,-3.72 -6.88,-6.53 -11.46,-8.42 -4.58,-1.89 -9.86,-2.87 -15.93,-2.87 -10.83,0 -19.25,3.04 -25.27,9 -5.96,6.01 -9,14.32 -9,24.92l-3.49 -33.57c5.38,-10.38 12.32,-18.51 20.8,-24.24 8.54,-5.79 17.93,-8.66 28.19,-8.66 7.97,0 15.19,1.15 21.6,3.44 6.42,2.29 12.04,5.68 16.85,10.14l-22.29 30.26zm114.32 135.46c-15.13,0 -28.02,-2.98 -38.8,-8.88 -10.71,-5.96 -18.96,-14.61 -24.58,-25.96 -5.67,-11.34 -8.48,-25.04 -8.48,-41.03l0 -28.36c0,-15.82 2.81,-29.34 8.48,-40.57 5.62,-11.23 13.87,-19.83 24.58,-25.67 10.78,-5.9 23.67,-8.83 38.8,-8.83 15.07,0 28.02,2.93 38.79,8.83 10.72,5.84 18.91,14.44 24.58,25.67 5.62,11.23 8.48,24.75 8.48,40.57l0 28.82c0,15.93 -2.86,29.51 -8.48,40.74 -5.67,11.23 -13.86,19.83 -24.58,25.79 -10.77,5.9 -23.72,8.88 -38.79,8.88zm0 -32.55c11.97,0 21.2,-3.78 27.79,-11.28 6.53,-7.51 9.8,-18 9.8,-31.58l0 -28.82c0,-13.58 -3.27,-24.01 -9.8,-31.4 -6.59,-7.39 -15.82,-11.12 -27.79,-11.12 -11.98,0 -21.26,3.73 -27.79,11.12 -6.54,7.39 -9.8,17.82 -9.8,31.4l0 28.82c0,13.58 3.26,24.07 9.8,31.58 6.53,7.5 15.81,11.28 27.79,11.28zm219.58 -214.08l34.27 0 0 244.11 -34.27 0 0 -244.11zm-43.78 247.15c-12.77,0 -23.66,-2.81 -32.66,-8.31 -9,-5.56 -15.87,-13.64 -20.57,-24.3 -4.7,-10.6 -7.05,-23.38 -7.05,-38.28l0 -38.39c0,-15.01 2.29,-27.85 6.88,-38.45 4.58,-10.65 11.29,-18.73 20.05,-24.29 8.77,-5.5 19.31,-8.31 31.63,-8.31 10.32,0 19.77,2.69 28.31,8.08 8.54,5.38 15.47,12.89 20.74,22.63l-3.55 35.59c0,-7.34 -1.32,-13.7 -4.01,-18.97 -2.69,-5.21 -6.59,-9.23 -11.69,-11.98 -5.04,-2.75 -11.23,-4.12 -18.51,-4.12 -11.34,0 -20.05,3.55 -26.3,10.6 -6.19,7.05 -9.28,16.96 -9.28,29.68l0 37.93c0,12.67 3.09,22.41 9.28,29.34 6.25,6.88 14.96,10.32 26.3,10.32 7.28,0 13.47,-1.43 18.51,-4.3 5.1,-2.87 9,-6.99 11.69,-12.32 2.69,-5.39 4.01,-11.8 4.01,-19.31l2.35 36.73c-3.44,8.65 -9.11,15.87 -17.02,21.66 -7.91,5.84 -17.59,8.77 -29.11,8.77zm235.17 -177.29l34.03 0 0 174.25 -34.03 0 0 -174.25zm-70.89 105.95c0,12.14 3.16,21.6 9.34,28.25 6.19,6.64 14.96,10.02 26.31,10.02 11.17,0 19.82,-2.98 26.01,-8.94 6.13,-5.9 9.23,-14.38 9.23,-25.32l2.35 36.44c-3.61,8.6 -9.4,15.82 -17.48,21.66 -8.08,5.79 -17.94,8.71 -29.68,8.71 -19.26,0 -34.16,-6.19 -44.58,-18.56 -10.49,-12.38 -15.71,-29.8 -15.71,-52.26l0 -105.95 34.21 0 0 105.95zm227.32 70.82c-15.87,0 -29.45,-2.98 -40.68,-8.88 -11.23,-5.96 -19.83,-14.56 -25.79,-25.9 -5.9,-11.29 -8.88,-24.93 -8.88,-40.91l0 -28.71c0,-15.82 2.98,-29.28 8.88,-40.46 5.96,-11.23 14.56,-19.77 25.79,-25.61 11.23,-5.9 24.81,-8.83 40.68,-8.83 9.11,0 17.6,1.09 25.62,3.27 8.02,2.18 15.18,5.33 21.6,9.51 6.36,4.13 11.69,9.17 15.93,15.07l0 0 -24.7 22.18 0 0c-4.92,-5.62 -10.66,-9.91 -17.3,-12.95 -6.59,-2.98 -13.47,-4.53 -20.63,-4.53 -13.18,0 -23.44,3.73 -30.71,11.12 -7.28,7.39 -10.89,17.76 -10.89,31.23l0 28.71c0,13.75 3.61,24.35 10.83,31.86 7.16,7.5 17.48,11.28 30.77,11.28 7.28,0 14.21,-1.66 20.8,-4.87 6.65,-3.26 12.32,-7.85 17.13,-13.81l0 0 24.7 23.84 0 0c-4.35,5.85 -9.74,10.77 -16.1,14.9 -6.42,4.07 -13.58,7.16 -21.6,9.28 -7.97,2.12 -16.45,3.21 -25.45,3.21zm146.24 -1.66c-14.1,0 -24.41,-3.9 -31,-11.69 -6.53,-7.79 -9.8,-19.25 -9.8,-34.5l0 -179.64 34.27 0 0 179.99c0,4.24 0.8,7.5 2.46,9.8 1.72,2.29 4.18,3.43 7.39,3.43l16.45 0 0 32.61 -19.77 0zm-58.79 -175.11l78.56 0 0 30.88 -78.56 0 0 -30.88zm192.42 176.77c-15.13,0 -28.02,-2.98 -38.8,-8.88 -10.71,-5.96 -18.96,-14.61 -24.58,-25.96 -5.67,-11.34 -8.48,-25.04 -8.48,-41.03l0 -28.36c0,-15.82 2.81,-29.34 8.48,-40.57 5.62,-11.23 13.87,-19.83 24.58,-25.67 10.78,-5.9 23.67,-8.83 38.8,-8.83 15.07,0 28.02,2.93 38.79,8.83 10.72,5.84 18.91,14.44 24.58,25.67 5.62,11.23 8.48,24.75 8.48,40.57l0 28.82c0,15.93 -2.86,29.51 -8.48,40.74 -5.67,11.23 -13.86,19.83 -24.58,25.79 -10.77,5.9 -23.72,8.88 -38.79,8.88zm0 -32.55c11.97,0 21.2,-3.78 27.79,-11.28 6.53,-7.51 9.8,-18 9.8,-31.58l0 -28.82c0,-13.58 -3.27,-24.01 -9.8,-31.4 -6.59,-7.39 -15.82,-11.12 -27.79,-11.12 -11.98,0 -21.26,3.73 -27.79,11.12 -6.54,7.39 -9.8,17.82 -9.8,31.4l0 28.82c0,13.58 3.26,24.07 9.8,31.58 6.53,7.5 15.81,11.28 27.79,11.28zm182.16 32.55c-10.31,0 -19.94,-1.03 -28.93,-3.04 -9.06,-2 -17.48,-5.04 -25.27,-9.05 -7.85,-4.01 -15.07,-9.05 -21.66,-15.13l0 0 20.28 -24.98 0 0c9.4,7.16 18.74,12.55 28.08,16.1 9.28,3.61 18.45,5.39 27.5,5.39 13.53,0 23.73,-2.12 30.49,-6.31 6.76,-4.18 10.14,-10.48 10.14,-18.91 0,-5.55 -1.83,-9.79 -5.56,-12.54 -3.66,-2.81 -8.25,-4.7 -13.75,-5.68 -5.5,-0.91 -13.18,-1.77 -23.15,-2.58 -0.92,0 -1.83,0 -2.86,-0.05 -1.04,-0.06 -1.95,-0.17 -2.87,-0.29 -0.46,0 -0.86,0 -1.32,-0.06 -0.46,-0.05 -0.91,-0.11 -1.37,-0.11 -11.29,-0.86 -20.86,-2.52 -28.71,-4.93 -7.79,-2.41 -14.33,-6.93 -19.54,-13.52 -5.22,-6.59 -7.79,-16.05 -7.79,-28.37 0,-12.32 2.52,-22.57 7.56,-30.71 4.98,-8.19 12.49,-14.33 22.46,-18.39 9.97,-4.07 22.46,-6.14 37.48,-6.14 9.05,0 17.7,0.86 25.9,2.53 8.25,1.66 16.1,4.18 23.61,7.44 7.5,3.33 14.72,7.51 21.66,12.55l0 0 -20.69 24.99 0 0c-8.71,-5.62 -17.31,-9.8 -25.73,-12.61 -8.48,-2.75 -16.73,-4.18 -24.75,-4.18 -11.69,0 -20.4,2 -26.25,5.96 -5.78,3.95 -8.71,9.91 -8.71,17.88 0,4.69 1.66,8.25 4.99,10.6 3.26,2.35 7.45,3.89 12.49,4.7 5.04,0.74 12.21,1.43 21.49,2 0.69,0.12 1.37,0.17 2.06,0.17 0.75,0 1.49,0.06 2.29,0.17 0.35,0 0.69,0 1.03,0 0.29,0 0.63,0.06 0.98,0.18 12.2,0.74 22.58,2.4 31.17,4.87 8.54,2.46 15.76,7.33 21.55,14.61 5.84,7.28 8.71,17.76 8.71,31.51 0,12.55 -2.64,22.93 -8.03,31.18 -5.38,8.19 -13.46,14.38 -24.29,18.56 -10.77,4.13 -24.36,6.19 -40.69,6.19zm307.37 -113c0,-11.4 -3.09,-20.28 -9.17,-26.59 -6.13,-6.3 -14.72,-9.51 -25.95,-9.51 -6.94,0 -13.7,1.09 -20.4,3.21 -6.65,2.12 -12.55,5.1 -17.71,8.88l-24.98 -17.13c6.59,-7.91 15.3,-14.1 26.07,-18.51 10.83,-4.41 22.8,-6.65 36.04,-6.65 14.44,0 26.76,2.53 37.08,7.63 10.31,5.1 18.16,12.49 23.49,22.17 5.39,9.69 8.08,21.37 8.08,35.01l0 111.97 -32.55 0 0 -110.48zm-42.69 113c-21.49,0 -37.53,-4.47 -48.13,-13.35 -10.66,-8.88 -15.99,-22.4 -15.99,-40.57 0,-17.19 4.87,-30.14 14.61,-38.74 9.74,-8.65 24.47,-12.95 44.18,-12.95l49.51 0 2.35 27.57 -51.69 0c-8.99,0 -15.64,1.94 -20.05,5.96 -4.47,3.95 -6.65,10.02 -6.65,18.16 0,8.88 2.92,15.41 8.83,19.65 5.84,4.25 14.78,6.42 26.76,6.42 13.06,0 22.86,-1.43 29.28,-4.24 6.42,-2.75 9.68,-7.16 9.68,-13.06l3.5 24.52c-3.04,4.7 -6.76,8.54 -11.18,11.58 -4.41,2.98 -9.51,5.27 -15.35,6.76 -5.79,1.55 -12.38,2.29 -19.66,2.29zm127.26 -176.77l34.21 0 0 174.25 -34.21 0 0 -174.25zm95.87 41.31c-3.04,-3.72 -6.88,-6.53 -11.46,-8.42 -4.58,-1.89 -9.86,-2.87 -15.93,-2.87 -10.83,0 -19.25,3.04 -25.27,9 -5.96,6.01 -9,14.32 -9,24.92l-3.49 -33.57c5.38,-10.38 12.32,-18.51 20.8,-24.24 8.54,-5.79 17.93,-8.66 28.19,-8.66 7.97,0 15.19,1.15 21.6,3.44 6.42,2.29 12.04,5.68 16.85,10.14l-22.29 30.26zm96.21 133.8c-14.1,0 -24.41,-3.9 -31,-11.69 -6.53,-7.79 -9.8,-19.25 -9.8,-34.5l0 -179.64 34.27 0 0 179.99c0,4.24 0.8,7.5 2.46,9.8 1.72,2.29 4.18,3.43 7.39,3.43l16.45 0 0 32.61 -19.77 0zm-58.79 -175.11l78.56 0 0 30.88 -78.56 0 0 -30.88zm196.95 176.77c-16.11,0 -29.92,-3.04 -41.32,-9.05 -11.4,-6.08 -20.11,-14.96 -26.07,-26.65 -6.02,-11.69 -9,-25.78 -9,-42.34l0 -19.66c0,-17.25 2.87,-31.97 8.65,-44.18 5.73,-12.2 14.1,-21.49 25.1,-27.85 10.95,-6.36 24.18,-9.57 39.6,-9.57 14.55,0 26.99,3.67 37.3,10.89 10.26,7.28 18.11,17.82 23.55,31.57 5.45,13.76 8.14,30.32 8.14,49.57l0 11.4 -117.47 0 0 -27.56 84.92 0 0 0c-1.03,-14.21 -4.7,-25.27 -11,-33.12 -6.3,-7.91 -14.78,-11.86 -25.44,-11.86 -12.95,0 -23.04,4.24 -30.14,12.78 -7.11,8.48 -10.66,20.51 -10.66,36.1l0 22.12c0,14.44 3.84,25.55 11.4,33.23 7.62,7.74 18.45,11.63 32.44,11.63 6.93,0 13.8,-1.43 20.62,-4.24 6.82,-2.75 12.95,-6.7 18.34,-11.74l0 0 22.46 22.52 0 0c-8.59,8.25 -18.28,14.67 -29.05,19.19 -10.71,4.53 -21.54,6.82 -32.37,6.82zm174.59 0c-10.31,0 -19.94,-1.03 -28.93,-3.04 -9.06,-2 -17.48,-5.04 -25.27,-9.05 -7.85,-4.01 -15.07,-9.05 -21.66,-15.13l0 0 20.28 -24.98 0 0c9.4,7.16 18.74,12.55 28.08,16.1 9.28,3.61 18.45,5.39 27.5,5.39 13.53,0 23.73,-2.12 30.49,-6.31 6.76,-4.18 10.14,-10.48 10.14,-18.91 0,-5.55 -1.83,-9.79 -5.56,-12.54 -3.66,-2.81 -8.25,-4.7 -13.75,-5.68 -5.5,-0.91 -13.18,-1.77 -23.15,-2.58 -0.92,0 -1.83,0 -2.86,-0.05 -1.04,-0.06 -1.95,-0.17 -2.87,-0.29 -0.46,0 -0.86,0 -1.32,-0.06 -0.46,-0.05 -0.91,-0.11 -1.37,-0.11 -11.29,-0.86 -20.86,-2.52 -28.71,-4.93 -7.79,-2.41 -14.33,-6.93 -19.54,-13.52 -5.22,-6.59 -7.79,-16.05 -7.79,-28.37 0,-12.32 2.52,-22.57 7.56,-30.71 4.98,-8.19 12.49,-14.33 22.46,-18.39 9.97,-4.07 22.46,-6.14 37.48,-6.14 9.05,0 17.7,0.86 25.9,2.53 8.25,1.66 16.1,4.18 23.61,7.44 7.5,3.33 14.72,7.51 21.66,12.55l0 0 -20.69 24.99 0 0c-8.71,-5.62 -17.31,-9.8 -25.73,-12.61 -8.48,-2.75 -16.73,-4.18 -24.75,-4.18 -11.69,0 -20.4,2 -26.25,5.96 -5.78,3.95 -8.71,9.91 -8.71,17.88 0,4.69 1.66,8.25 4.99,10.6 3.26,2.35 7.45,3.89 12.49,4.7 5.04,0.74 12.21,1.43 21.49,2 0.69,0.12 1.37,0.17 2.06,0.17 0.75,0 1.49,0.06 2.29,0.17 0.35,0 0.69,0 1.03,0 0.29,0 0.63,0.06 0.98,0.18 12.2,0.74 22.58,2.4 31.17,4.87 8.54,2.46 15.76,7.33 21.55,14.61 5.84,7.28 8.71,17.76 8.71,31.51 0,12.55 -2.64,22.93 -8.03,31.18 -5.38,8.19 -13.46,14.38 -24.29,18.56 -10.77,4.13 -24.36,6.19 -40.69,6.19zm215.06 -113c0,-11.4 -3.09,-20.28 -9.17,-26.59 -6.13,-6.3 -14.72,-9.51 -25.95,-9.51 -6.94,0 -13.7,1.09 -20.4,3.21 -6.65,2.12 -12.55,5.1 -17.71,8.88l-24.98 -17.13c6.59,-7.91 15.3,-14.1 26.07,-18.51 10.83,-4.41 22.8,-6.65 36.04,-6.65 14.44,0 26.76,2.53 37.08,7.63 10.31,5.1 18.16,12.49 23.49,22.17 5.39,9.69 8.08,21.37 8.08,35.01l0 111.97 -32.55 0 0 -110.48zm-42.69 113c-21.49,0 -37.53,-4.47 -48.13,-13.35 -10.66,-8.88 -15.99,-22.4 -15.99,-40.57 0,-17.19 4.87,-30.14 14.61,-38.74 9.74,-8.65 24.47,-12.95 44.18,-12.95l49.51 0 2.35 27.57 -51.69 0c-8.99,0 -15.64,1.94 -20.05,5.96 -4.47,3.95 -6.65,10.02 -6.65,18.16 0,8.88 2.92,15.41 8.83,19.65 5.84,4.25 14.78,6.42 26.76,6.42 13.06,0 22.86,-1.43 29.28,-4.24 6.42,-2.75 9.68,-7.16 9.68,-13.06l3.5 24.52c-3.04,4.7 -6.76,8.54 -11.18,11.58 -4.41,2.98 -9.51,5.27 -15.35,6.76 -5.79,1.55 -12.38,2.29 -19.66,2.29zm127.26 -176.77l34.21 0 0 174.25 -34.21 0 0 -174.25zm105.78 68.64c0,-12.32 -3.21,-21.83 -9.62,-28.53 -6.36,-6.71 -15.3,-10.09 -26.82,-10.09 -11.23,0 -19.83,2.98 -25.96,8.94 -6.07,5.9 -9.17,14.27 -9.17,24.98l-3.49 -33.57c5.38,-10.49 12.38,-18.63 21.09,-24.36 8.65,-5.67 18.22,-8.54 28.76,-8.54 18.91,0 33.52,6.19 43.89,18.57 10.38,12.38 15.53,29.85 15.53,52.43l0 105.78 -34.21 0 0 -105.61zm184.69 -4.87c0,-11.4 -3.09,-20.28 -9.17,-26.59 -6.13,-6.3 -14.72,-9.51 -25.95,-9.51 -6.94,0 -13.7,1.09 -20.4,3.21 -6.65,2.12 -12.55,5.1 -17.71,8.88l-24.98 -17.13c6.59,-7.91 15.3,-14.1 26.07,-18.51 10.83,-4.41 22.8,-6.65 36.04,-6.65 14.44,0 26.76,2.53 37.08,7.63 10.31,5.1 18.16,12.49 23.49,22.17 5.39,9.69 8.08,21.37 8.08,35.01l0 111.97 -32.55 0 0 -110.48zm-42.69 113c-21.49,0 -37.53,-4.47 -48.13,-13.35 -10.66,-8.88 -15.99,-22.4 -15.99,-40.57 0,-17.19 4.87,-30.14 14.61,-38.74 9.74,-8.65 24.47,-12.95 44.18,-12.95l49.51 0 2.35 27.57 -51.69 0c-8.99,0 -15.64,1.94 -20.05,5.96 -4.47,3.95 -6.65,10.02 -6.65,18.16 0,8.88 2.92,15.41 8.83,19.65 5.84,4.25 14.78,6.42 26.76,6.42 13.06,0 22.86,-1.43 29.28,-4.24 6.42,-2.75 9.68,-7.16 9.68,-13.06l3.5 24.52c-3.04,4.7 -6.76,8.54 -11.18,11.58 -4.41,2.98 -9.51,5.27 -15.35,6.76 -5.79,1.55 -12.38,2.29 -19.66,2.29zm161.47 -47.5c0,4.24 0.98,7.5 2.81,9.8 1.84,2.29 4.41,3.43 7.79,3.43l16.11 0 0 32.61 -20.12 0c-13,0 -23.03,-4.07 -30.14,-12.09 -7.1,-8.08 -10.66,-19.43 -10.66,-34.1l0 -198.78 34.21 0 0 199.13zm136.67 47.5c-16.11,0 -29.92,-3.04 -41.32,-9.05 -11.4,-6.08 -20.11,-14.96 -26.07,-26.65 -6.02,-11.69 -9,-25.78 -9,-42.34l0 -19.66c0,-17.25 2.87,-31.97 8.65,-44.18 5.73,-12.2 14.1,-21.49 25.1,-27.85 10.95,-6.36 24.18,-9.57 39.6,-9.57 14.55,0 26.99,3.67 37.3,10.89 10.26,7.28 18.11,17.82 23.55,31.57 5.45,13.76 8.14,30.32 8.14,49.57l0 11.4 -117.47 0 0 -27.56 84.92 0 0 0c-1.03,-14.21 -4.7,-25.27 -11,-33.12 -6.3,-7.91 -14.78,-11.86 -25.44,-11.86 -12.95,0 -23.04,4.24 -30.14,12.78 -7.11,8.48 -10.66,20.51 -10.66,36.1l0 22.12c0,14.44 3.84,25.55 11.4,33.23 7.62,7.74 18.45,11.63 32.44,11.63 6.93,0 13.8,-1.43 20.62,-4.24 6.82,-2.75 12.95,-6.7 18.34,-11.74l0 0 22.46 22.52 0 0c-8.59,8.25 -18.28,14.67 -29.05,19.19 -10.71,4.53 -21.54,6.82 -32.37,6.82zm174.59 0c-10.31,0 -19.94,-1.03 -28.93,-3.04 -9.06,-2 -17.48,-5.04 -25.27,-9.05 -7.85,-4.01 -15.07,-9.05 -21.66,-15.13l0 0 20.28 -24.98 0 0c9.4,7.16 18.74,12.55 28.08,16.1 9.28,3.61 18.45,5.39 27.5,5.39 13.53,0 23.73,-2.12 30.49,-6.31 6.76,-4.18 10.14,-10.48 10.14,-18.91 0,-5.55 -1.83,-9.79 -5.56,-12.54 -3.66,-2.81 -8.25,-4.7 -13.75,-5.68 -5.5,-0.91 -13.18,-1.77 -23.15,-2.58 -0.92,0 -1.83,0 -2.86,-0.05 -1.04,-0.06 -1.95,-0.17 -2.87,-0.29 -0.46,0 -0.86,0 -1.32,-0.06 -0.46,-0.05 -0.91,-0.11 -1.37,-0.11 -11.29,-0.86 -20.86,-2.52 -28.71,-4.93 -7.79,-2.41 -14.33,-6.93 -19.54,-13.52 -5.22,-6.59 -7.79,-16.05 -7.79,-28.37 0,-12.32 2.52,-22.57 7.56,-30.71 4.98,-8.19 12.49,-14.33 22.46,-18.39 9.97,-4.07 22.46,-6.14 37.48,-6.14 9.05,0 17.7,0.86 25.9,2.53 8.25,1.66 16.1,4.18 23.61,7.44 7.5,3.33 14.72,7.51 21.66,12.55l0 0 -20.69 24.99 0 0c-8.71,-5.62 -17.31,-9.8 -25.73,-12.61 -8.48,-2.75 -16.73,-4.18 -24.75,-4.18 -11.69,0 -20.4,2 -26.25,5.96 -5.78,3.95 -8.71,9.91 -8.71,17.88 0,4.69 1.66,8.25 4.99,10.6 3.26,2.35 7.45,3.89 12.49,4.7 5.04,0.74 12.21,1.43 21.49,2 0.69,0.12 1.37,0.17 2.06,0.17 0.75,0 1.49,0.06 2.29,0.17 0.35,0 0.69,0 1.03,0 0.29,0 0.63,0.06 0.98,0.18 12.2,0.74 22.58,2.4 31.17,4.87 8.54,2.46 15.76,7.33 21.55,14.61 5.84,7.28 8.71,17.76 8.71,31.51 0,12.55 -2.64,22.93 -8.03,31.18 -5.38,8.19 -13.46,14.38 -24.29,18.56 -10.77,4.13 -24.36,6.19 -40.69,6.19zm267.37 68.3c-13.06,0 -24.81,-2.4 -35.12,-7.27 -10.37,-4.87 -18.39,-11.75 -24.13,-20.57l0 0 23.15 -20.98 0 0c4.53,6.14 9.86,10.89 16.05,14.27 6.25,3.33 12.72,5.04 19.54,5.04 13.12,0 23.26,-3.61 30.43,-10.83 7.16,-7.22 10.71,-17.42 10.71,-30.65l0 -174.08 34.27 0 0 169.04c0,15.98 -2.92,29.74 -8.83,41.14 -5.84,11.4 -14.38,20.11 -25.61,26.01 -11.17,5.96 -24.64,8.88 -40.46,8.88zm-3.15 -67.78c-12.77,0 -23.66,-2.81 -32.66,-8.31 -9,-5.56 -15.87,-13.64 -20.57,-24.3 -4.7,-10.6 -7.05,-23.38 -7.05,-38.28l0 -38.39c0,-15.01 2.29,-27.85 6.88,-38.45 4.58,-10.65 11.29,-18.73 20.05,-24.29 8.77,-5.5 19.31,-8.31 31.63,-8.31 10.32,0 19.77,2.69 28.31,8.08 8.54,5.38 15.47,12.89 20.74,22.63l-3.55 35.59c0,-7.34 -1.32,-13.7 -4.01,-18.97 -2.69,-5.21 -6.59,-9.23 -11.69,-11.98 -5.04,-2.75 -11.23,-4.12 -18.51,-4.12 -11.34,0 -20.05,3.55 -26.3,10.6 -6.19,7.05 -9.28,16.96 -9.28,29.68l0 37.93c0,12.67 3.09,22.41 9.28,29.34 6.25,6.88 14.96,10.32 26.3,10.32 7.28,0 13.47,-1.43 18.51,-4.3 5.1,-2.87 9,-6.99 11.69,-12.32 2.69,-5.39 4.01,-11.8 4.01,-19.31l2.35 36.73c-3.44,8.65 -9.11,15.87 -17.02,21.66 -7.91,5.84 -17.59,8.77 -29.11,8.77zm196.89 -0.52c-15.13,0 -28.02,-2.98 -38.8,-8.88 -10.71,-5.96 -18.96,-14.61 -24.58,-25.96 -5.67,-11.34 -8.48,-25.04 -8.48,-41.03l0 -28.36c0,-15.82 2.81,-29.34 8.48,-40.57 5.62,-11.23 13.87,-19.83 24.58,-25.67 10.78,-5.9 23.67,-8.83 38.8,-8.83 15.07,0 28.02,2.93 38.79,8.83 10.72,5.84 18.91,14.44 24.58,25.67 5.62,11.23 8.48,24.75 8.48,40.57l0 28.82c0,15.93 -2.86,29.51 -8.48,40.74 -5.67,11.23 -13.86,19.83 -24.58,25.79 -10.77,5.9 -23.72,8.88 -38.79,8.88zm0 -32.55c11.97,0 21.2,-3.78 27.79,-11.28 6.53,-7.51 9.8,-18 9.8,-31.58l0 -28.82c0,-13.58 -3.27,-24.01 -9.8,-31.4 -6.59,-7.39 -15.82,-11.12 -27.79,-11.12 -11.98,0 -21.26,3.73 -27.79,11.12 -6.54,7.39 -9.8,17.82 -9.8,31.4l0 28.82c0,13.58 3.26,24.07 9.8,31.58 6.53,7.5 15.81,11.28 27.79,11.28zm221.42 -144.22l34.03 0 0 174.25 -34.03 0 0 -174.25zm-70.89 105.95c0,12.14 3.16,21.6 9.34,28.25 6.19,6.64 14.96,10.02 26.31,10.02 11.17,0 19.82,-2.98 26.01,-8.94 6.13,-5.9 9.23,-14.38 9.23,-25.32l2.35 36.44c-3.61,8.6 -9.4,15.82 -17.48,21.66 -8.08,5.79 -17.94,8.71 -29.68,8.71 -19.26,0 -34.16,-6.19 -44.58,-18.56 -10.49,-12.38 -15.71,-29.8 -15.71,-52.26l0 -105.95 34.21 0 0 105.95zm157.01 -105.95l34.21 0 0 174.25 -34.21 0 0 -174.25zm95.87 41.31c-3.04,-3.72 -6.88,-6.53 -11.46,-8.42 -4.58,-1.89 -9.86,-2.87 -15.93,-2.87 -10.83,0 -19.25,3.04 -25.27,9 -5.96,6.01 -9,14.32 -9,24.92l-3.49 -33.57c5.38,-10.38 12.32,-18.51 20.8,-24.24 8.54,-5.79 17.93,-8.66 28.19,-8.66 7.97,0 15.19,1.15 21.6,3.44 6.42,2.29 12.04,5.68 16.85,10.14l-22.29 30.26zm259.06 27.33c0,-12.32 -3.21,-21.83 -9.57,-28.53 -6.42,-6.71 -15.35,-10.09 -26.87,-10.09 -10.66,0 -18.85,3.27 -24.7,9.74 -5.79,6.54 -8.71,15.7 -8.71,27.57l-6.88 -33.58c5.45,-11.52 12.73,-20.46 21.72,-26.76 9,-6.36 18.97,-9.52 29.8,-9.52 12.55,0 23.26,2.75 32.14,8.31 8.89,5.56 15.71,13.64 20.35,24.24 4.64,10.66 6.93,23.5 6.93,38.45l0 105.78 -34.21 0 0 -105.61zm-208.18 -68.64l34.21 0 0 174.25 -34.21 0 0 -174.25zm104.06 68.64c0,-12.32 -3.03,-21.83 -9.05,-28.53 -6.07,-6.71 -14.61,-10.09 -25.67,-10.09 -11.23,0 -19.83,2.98 -25.96,8.94 -6.07,5.9 -9.17,14.27 -9.17,24.98l-3.49 -33.57c5.38,-10.49 12.38,-18.63 21.09,-24.36 8.65,-5.67 18.22,-8.54 28.76,-8.54 12.21,0 22.63,2.75 31.23,8.31 8.6,5.56 15.18,13.64 19.71,24.24 4.53,10.66 6.82,23.5 6.82,38.45l0 105.78 -34.27 0 0 -105.61zm261.76 108.13c-16.11,0 -29.92,-3.04 -41.32,-9.05 -11.4,-6.08 -20.11,-14.96 -26.07,-26.65 -6.02,-11.69 -9,-25.78 -9,-42.34l0 -19.66c0,-17.25 2.87,-31.97 8.65,-44.18 5.73,-12.2 14.1,-21.49 25.1,-27.85 10.95,-6.36 24.18,-9.57 39.6,-9.57 14.55,0 26.99,3.67 37.3,10.89 10.26,7.28 18.11,17.82 23.55,31.57 5.45,13.76 8.14,30.32 8.14,49.57l0 11.4 -117.47 0 0 -27.56 84.92 0 0 0c-1.03,-14.21 -4.7,-25.27 -11,-33.12 -6.3,-7.91 -14.78,-11.86 -25.44,-11.86 -12.95,0 -23.04,4.24 -30.14,12.78 -7.11,8.48 -10.66,20.51 -10.66,36.1l0 22.12c0,14.44 3.84,25.55 11.4,33.23 7.62,7.74 18.45,11.63 32.44,11.63 6.93,0 13.8,-1.43 20.62,-4.24 6.82,-2.75 12.95,-6.7 18.34,-11.74l0 0 22.46 22.52 0 0c-8.59,8.25 -18.28,14.67 -29.05,19.19 -10.71,4.53 -21.54,6.82 -32.37,6.82zm158.32 -1.66c-14.1,0 -24.41,-3.9 -31,-11.69 -6.53,-7.79 -9.8,-19.25 -9.8,-34.5l0 -179.64 34.27 0 0 179.99c0,4.24 0.8,7.5 2.46,9.8 1.72,2.29 4.18,3.43 7.39,3.43l16.45 0 0 32.61 -19.77 0zm-58.79 -175.11l78.56 0 0 30.88 -78.56 0 0 -30.88z"/>
 </g>
</svg>
