<?xml version="1.0" encoding="UTF-8"?>
<!DOCTYPE svg PUBLIC "-//W3C//DTD SVG 1.1//EN" "http://www.w3.org/Graphics/SVG/1.1/DTD/svg11.dtd">
<!-- Creator: CorelDRAW 2017 -->
<svg xmlns="http://www.w3.org/2000/svg" xml:space="preserve" width="50.7998mm" height="33.8666mm" version="1.1" style="shape-rendering:geometricPrecision; text-rendering:geometricPrecision; image-rendering:optimizeQuality; fill-rule:evenodd; clip-rule:evenodd"
viewBox="0 0 5079.98 3386.66"
 xmlns:xlink="http://www.w3.org/1999/xlink">
 <defs>
  <style type="text/css">
   <![CDATA[
    .str1 {stroke:#24ABE2;stroke-width:79.37;stroke-miterlimit:22.9256}
    .str3 {stroke:#64CDF4;stroke-width:79.37;stroke-miterlimit:22.9256}
    .str2 {stroke:#24ABE2;stroke-width:105.83;stroke-miterlimit:22.9256}
    .str0 {stroke:#06A7F8;stroke-width:7.62;stroke-miterlimit:22.9256}
    .fil0 {fill:none}
    .fil5 {fill:#FEFEFE}
    .fil3 {fill:#013D79}
    .fil11 {fill:#0174B2}
    .fil8 {fill:#033955}
    .fil2 {fill:#06A7F8}
    .fil1 {fill:#24ABE2}
    .fil7 {fill:#31C5EA}
    .fil13 {fill:#80D4F8}
    .fil10 {fill:#83D3F5}
    .fil14 {fill:#89D8F9}
    .fil12 {fill:#CBECFC}
    .fil9 {fill:#CDEDFC}
    .fil6 {fill:#F9F9F9}
    .fil4 {fill:#9C9895;fill-rule:nonzero}
    .fil15 {fill:#FEFEFE;fill-opacity:0.501961}
   ]]>
  </style>
 </defs>
 <g id="Capa_x0020_1">
  <metadata id="CorelCorpID_0Corel-Layer"/>
  <rect class="fil0" x="-0" width="5079.99" height="3386.66"/>
  <g id="_2568048393712">
   <path class="fil1" d="M2972.65 2078.6c174.67,0 316.26,140.82 316.26,314.51 0,173.71 -141.59,314.52 -316.26,314.52 -174.65,0 -316.23,-140.81 -316.23,-314.52 0,-173.69 141.58,-314.51 316.23,-314.51zm0.02 157.25c87.33,0 158.12,70.41 158.12,157.26 0,86.85 -70.79,157.26 -158.12,157.26 -87.33,0 -158.12,-70.41 -158.12,-157.26 0,-86.85 70.79,-157.26 158.12,-157.26z"/>
   <polygon class="fil2 str0" points="2579.38,2328.78 2574.02,2328.78 2574.02,2334.15 2579.38,2334.15 "/>
   <polygon class="fil3" points="1776.69,1873.65 2240.8,1873.65 2240.8,2080.87 2110.13,2080.87 2114.6,2189.71 1973.77,2454.93 1894.6,2454.91 1895.42,2080.87 1776.69,2080.87 "/>
   <polygon class="fil1" points="2663.88,2109.78 2468.91,2109.78 2420.16,2410.05 2361.66,2109.78 2205.67,2109.78 2154.98,2413.95 2131.59,2306.71 2013.6,2499.02 2047.74,2647.92 2229.07,2647.92 2287.57,2394.45 2336.32,2647.92 2523.5,2647.92 "/>
   <path class="fil3" d="M1296.68 1873.79l-202.01 0 -4.97 308.65 -1.85 0 -144.18 -308.65 -229.66 0 0 581.2 202 0 -4.6 -271.45 167.59 271.45 217.68 0 0 -581.2zm469.73 433.09l-195.43 0 0 -50.77 169.61 0 0 -155.26 -169.61 0 0 -41.36 181.59 0 0 -185.7 -381.39 0 0 581.2 395.23 0 0 -148.11z"/>
   <polygon class="fil1" points="4252.68,2351.18 4424.9,2095.1 4186.29,2095.1 4085.85,2308.53 4083.22,2327.33 4083.22,2095.1 3873.53,2095.1 3873.53,2623.07 4083.22,2623.07 4083.22,2454.36 4193.15,2623.07 4431.02,2623.07 "/>
   <path class="fil1" d="M3334.04 2104.77l309.69 0c187.71,63.05 185.88,244.25 53.7,325.79l125.31 209.44 -214.82 0 -85.92 -164.68 -1.79 164.68 -186.17 0 0 -535.23zm180.8 139.63c67.53,-2.91 156.38,92.87 0,114.56l0 -114.56z"/>
  </g>
  <path class="fil4" d="M290.18 3187.8c-26.31,0 -49.4,-5.79 -69.38,-17.48 -19.98,-11.68 -35.41,-28.27 -46.38,-49.67 -10.97,-21.41 -16.41,-46.29 -16.41,-74.47l0 -104.26c0,-28.18 5.44,-53.06 16.41,-74.47 10.97,-21.4 26.4,-37.99 46.38,-49.76 19.98,-11.78 43.07,-17.66 69.38,-17.66 21.76,0 41.83,4.72 60.11,14 18.29,9.28 33.54,22.47 45.85,39.6 12.3,17.03 20.6,36.83 24.97,59.31l0 0 -54.67 0 0 0c-3.3,-11.87 -8.83,-22.48 -16.59,-31.75 -7.76,-9.37 -16.86,-16.5 -27.29,-21.59 -10.44,-4.99 -21.23,-7.58 -32.38,-7.58 -15.51,0 -29.07,3.75 -40.75,11.24 -11.69,7.49 -20.78,18.02 -27.21,31.48 -6.42,13.56 -9.63,29.25 -9.63,47.18l0 104.26c0,17.75 3.21,33.44 9.63,47 6.43,13.64 15.52,24.08 27.21,31.48 11.68,7.4 25.24,11.15 40.75,11.15 11.33,0 22.12,-2.32 32.56,-7.05 10.34,-4.72 19.35,-11.68 27.11,-20.95 7.76,-9.19 13.29,-20.16 16.59,-32.91l0 0 54.67 0 0 0c-4.37,22.47 -12.76,42.27 -25.15,59.3 -12.31,17.13 -27.65,30.33 -45.93,39.6 -18.29,9.37 -38.26,14 -59.85,14zm294.49 -383.85l45.4 0 140.11 379.93 -57.53 0 -105.32 -306.53 -105.24 306.53 -57.53 0 140.11 -379.93zm-75.54 245.88l199.87 0 0 50.66 -199.87 0 0 -50.66zm591.56 -245.88l49.86 0 0 379.93 -52 0 0 -284.5 2.68 16.68 -93.55 215.02 -37.11 0 -93.55 -209.76 2.59 -21.94 0 284.5 -52 0 0 -379.93 49.94 0 111.57 250.88 111.57 -250.88zm242.23 0l45.4 0 140.11 379.93 -57.53 0 -105.32 -306.53 -105.24 306.53 -57.53 0 140.11 -379.93zm-75.54 245.88l199.87 0 0 50.66 -199.87 0 0 -50.66zm341.76 -77.32l129.58 0c10.17,0 19.09,-2.41 26.94,-7.31 7.85,-4.91 13.91,-11.77 18.19,-20.78 4.19,-9.01 6.33,-19.27 6.33,-30.95l0 0c0,-11.68 -2.14,-22.03 -6.33,-30.95 -4.28,-9 -10.34,-15.96 -18.1,-20.78 -7.67,-4.9 -16.77,-7.31 -27.03,-7.31l-129.58 0 0 -50.75 127.53 0c21.94,0 41.21,4.55 57.88,13.65 16.59,9.01 29.52,21.85 38.62,38.53 9.19,16.59 13.73,35.85 13.73,57.61l0 0c0,21.76 -4.63,40.94 -13.82,57.61 -9.27,16.59 -22.21,29.44 -38.79,38.53 -16.68,9.01 -35.86,13.56 -57.62,13.56l-127.53 0 0 -50.66zm-23.28 -168.83l53.33 0 0 380.2 -53.33 0 0 -380.2zm126.73 207.72l53.07 -11.95 97.21 184.43 -63.23 0 -87.05 -172.48zm312.59 -207.45l45.4 0 140.11 379.93 -57.53 0 -105.32 -306.53 -105.24 306.53 -57.53 0 140.11 -379.93zm-75.54 245.88l199.87 0 0 50.66 -199.87 0 0 -50.66zm611.1 -245.88l53.33 0 0 379.93 -53.33 0 0 -379.93zm-68.14 384.66c-19.89,0 -36.83,-4.37 -50.83,-12.94 -14.01,-8.65 -24.71,-21.22 -32.02,-37.81 -7.31,-16.5 -10.97,-36.39 -10.97,-59.58l0 -59.75c0,-23.37 3.57,-43.34 10.7,-59.84 7.14,-16.59 17.57,-29.17 31.22,-37.82 13.64,-8.56 30.05,-12.93 49.23,-12.93 16.05,0 30.77,4.19 44.05,12.58 13.29,8.38 24.08,20.06 32.29,35.22l-5.53 55.39c0,-11.42 -2.05,-21.32 -6.24,-29.52 -4.2,-8.12 -10.26,-14.36 -18.2,-18.64 -7.85,-4.28 -17.48,-6.42 -28.8,-6.42 -17.66,0 -31.22,5.53 -40.94,16.5 -9.63,10.97 -14.45,26.4 -14.45,46.19l0 59.04c0,19.71 4.82,34.88 14.45,45.67 9.72,10.7 23.28,16.05 40.94,16.05 11.32,0 20.95,-2.23 28.8,-6.69 7.94,-4.46 14,-10.88 18.2,-19.17 4.19,-8.39 6.24,-18.37 6.24,-30.06l3.66 57.17c-5.36,13.47 -14.18,24.7 -26.49,33.71 -12.31,9.1 -27.38,13.65 -45.31,13.65zm313.48 -0.81c-25.06,0 -46.55,-4.72 -64.3,-14.09 -17.75,-9.45 -31.3,-23.27 -40.58,-41.47 -9.36,-18.19 -14,-40.13 -14,-65.91l0 -30.59c0,-26.84 4.46,-49.76 13.47,-68.76 8.91,-18.99 21.94,-33.44 39.06,-43.34 17.03,-9.9 37.64,-14.9 61.63,-14.9 22.65,0 42,5.71 58.06,16.95 15.96,11.33 28.18,27.74 36.65,49.14 8.47,21.4 12.67,47.18 12.67,77.15l0 17.74 -182.83 0 0 -42.89 132.17 0 0 0c-1.61,-22.12 -7.32,-39.34 -17.13,-51.55 -9.81,-12.31 -23.01,-18.47 -39.59,-18.47 -20.16,0 -35.86,6.6 -46.92,19.89 -11.05,13.2 -16.58,31.93 -16.58,56.19l0 34.43c0,22.47 5.97,39.77 17.74,51.72 11.87,12.04 28.72,18.11 50.48,18.11 10.79,0 21.5,-2.23 32.11,-6.6 10.61,-4.28 20.16,-10.44 28.54,-18.29l0 0 34.96 35.05 0 0c-13.38,12.85 -28.45,22.84 -45.22,29.88 -16.67,7.05 -33.53,10.61 -50.39,10.61zm584.53 -208.51l0 66.35c0,28.27 -5.53,53.07 -16.5,74.65 -10.97,21.49 -26.49,38.08 -46.65,49.86 -20.15,11.77 -43.43,17.65 -69.92,17.65 -26.84,0 -50.39,-5.53 -70.63,-16.58 -20.34,-11.06 -36.03,-26.67 -47.18,-46.92 -11.15,-20.24 -16.68,-43.61 -16.68,-70.27l0 -112.11c0,-28.18 5.44,-53.06 16.41,-74.47 10.97,-21.4 26.49,-37.99 46.65,-49.76 20.15,-11.78 43.43,-17.66 69.92,-17.66 21.76,0 41.82,4.72 60.2,14 18.37,9.28 33.71,22.47 46.1,39.6 12.4,17.03 20.7,36.83 25.07,59.31l0 0 -57.71 0 0 0c-3.12,-12.76 -8.47,-23.64 -15.96,-32.82 -7.49,-9.1 -16.32,-16.06 -26.4,-20.87 -10.08,-4.82 -20.51,-7.23 -31.3,-7.23 -15.7,0 -29.43,3.75 -41.3,11.24 -11.86,7.49 -21.04,18.02 -27.47,31.48 -6.42,13.56 -9.63,29.25 -9.63,47.18l0 112.11c0,16.41 3.3,30.68 9.9,42.98 6.6,12.31 15.97,21.76 28.1,28.63 12.12,6.78 26.13,10.17 41.91,10.17 15.7,0 29.43,-3.57 41.3,-10.61 11.86,-7.05 21.04,-17.31 27.46,-30.68 6.43,-13.38 9.64,-29.35 9.64,-47.81l0 -16.5 -77.06 0 0 -50.92 131.73 0zm80.89 -175.34l53.33 0 0 379.93 -53.33 0 0 -379.93zm25.86 329.27l218.24 0 0 50.66 -218.24 0 0 -50.66zm0 -163.29l189.43 0 0 50.65 -189.43 0 0 -50.65zm0 -165.98l218.24 0 0 50.75 -218.24 0 0 -50.75zm408.21 383.85c-18.29,0 -35.68,-1.78 -52,-5.26 -16.41,-3.48 -31.66,-8.65 -45.93,-15.61 -14.18,-7.04 -27.47,-15.69 -39.78,-26.13l0 0 33.18 -40.75 0 0c14.45,12.48 30.41,21.94 47.8,28.18 17.4,6.24 36.3,9.36 56.73,9.36 27.47,0 48.78,-5.08 63.94,-15.25 15.16,-10.16 22.74,-24.61 22.74,-43.25l0 -0.27c0,-13.2 -3.38,-23.72 -10.25,-31.48 -6.96,-7.76 -15.79,-13.47 -26.67,-17.21 -10.88,-3.75 -24.97,-7.23 -42.18,-10.35 -0.54,-0.18 -1.16,-0.27 -1.7,-0.27 -0.62,0 -1.25,-0.09 -1.78,-0.27l-3.84 -0.71c-25.5,-4.37 -46.19,-9.36 -62.07,-14.8 -15.96,-5.53 -29.61,-15.52 -40.93,-30.06 -11.33,-14.54 -16.95,-35.23 -16.95,-62.07l0 -0.27c0,-23.46 5.26,-43.52 15.79,-60.2 10.52,-16.59 25.95,-29.34 46.1,-37.99 20.25,-8.74 44.51,-13.11 72.96,-13.11 13.55,0 26.93,1.51 40.04,4.46 13.2,2.94 26.13,7.4 38.98,13.2 12.75,5.79 25.32,13.2 37.72,22.11l0 0 -30.32 42.28 0 0c-14.45,-10.62 -28.81,-18.55 -43.26,-23.9 -14.36,-5.27 -28.71,-7.94 -43.16,-7.94 -25.95,0 -46.2,5.17 -60.56,15.52 -14.36,10.34 -21.49,25.06 -21.49,44.05l0 0.27c0,13.02 3.65,23.28 11.06,30.77 7.4,7.49 16.67,13.02 27.73,16.59 11.06,3.57 26.4,7.31 46.11,11.15 0.72,0.18 1.34,0.26 1.96,0.35 0.63,0.09 1.25,0.27 1.97,0.45 0.89,0.18 1.78,0.36 2.85,0.54 1.07,0.08 1.96,0.26 2.85,0.44 23.01,4.73 42.19,10.35 57.62,16.77 15.43,6.42 28.36,16.85 38.7,31.21 10.35,14.36 15.52,33.98 15.52,58.95l0 0.45c0,23.19 -5.44,42.99 -16.41,59.49 -11.06,16.5 -26.93,28.98 -47.71,37.63 -20.87,8.65 -45.93,12.93 -75.36,12.93zm210.03 -383.85l53.33 0 0 379.93 -53.33 0 0 -379.93zm25.86 329.27l218.24 0 0 50.66 -218.24 0 0 -50.66zm0 -163.29l189.43 0 0 50.65 -189.43 0 0 -50.65zm0 -165.98l218.24 0 0 50.75 -218.24 0 0 -50.75zm293.96 0l53.33 0 0 379.93 -53.33 0 0 -379.93zm26.67 329.27l217.43 0 0 50.66 -217.43 0 0 -50.66zm280.04 -329.27l53.33 0 0 379.93 -53.33 0 0 -379.93zm26.67 329.27l217.43 0 0 50.66 -217.43 0 0 -50.66z"/>
  <g id="_2568048386064">
   <path class="fil3" d="M2493.34 104.86c485.51,0 879.09,391.43 879.09,874.29 0,482.86 -393.58,874.29 -879.09,874.29 -485.51,0 -879.09,-391.43 -879.09,-874.29 0,-482.86 393.58,-874.29 879.09,-874.29z"/>
   <path class="fil5 str1" d="M2493.34 161.48c453.04,0 820.3,366.08 820.3,817.67 0,451.58 -367.26,817.66 -820.3,817.66 -453.04,0 -820.31,-366.08 -820.31,-817.66 0,-451.59 367.27,-817.67 820.31,-817.67z"/>
   <path class="fil6" d="M1877.36 1327.61l6.9 18.7c58.77,102.58 140.64,202.99 243.2,266.66 243.56,151.2 549.8,162.6 787.22,1.18 90.74,-61.69 202.6,-162.8 243.88,-269.22l-6.93 -30.24c-38.16,54.46 -35.23,76.65 -102.78,152.66 -233.78,263.05 -611.2,320.64 -908.26,126.64 -45.62,-29.8 -70.76,-49.3 -105.11,-85.9 -45.03,-47.97 -91.11,-85.45 -133.29,-179.69 -13.58,-7.55 -2.71,7.1 -14.22,-19.51 -3.59,-8.32 -6.4,-15.35 -9.95,-21.07l-20.5 -1.29 19.84 41.08z"/>
   <path class="fil6" d="M3084.13 1345.54c-15.66,15.09 -67.58,93.1 -98.55,124.42 -113.14,114.4 -279.92,189.31 -458.97,191.31 -179.15,2 -279.23,-51.32 -408.26,-140.49 -41.21,-28.49 -135.36,-130.4 -149.33,-174.6l-27.41 4.38c33.95,80.53 154.71,190.56 230.57,235.54 231.23,137.09 487.88,130.65 716.95,-9.81 75.13,-46.06 183.61,-153.89 221.23,-237.58 -14.72,-5.54 -8.45,-2.04 -26.23,6.83z"/>
   <path class="fil5 str2" d="M2493.34 211.79c425.17,0 769.84,343.56 769.84,767.36 0,423.8 -344.67,767.36 -769.84,767.36 -425.17,0 -769.84,-343.56 -769.84,-767.36 0,-423.8 344.67,-767.36 769.84,-767.36z"/>
   <path class="fil5 str3" d="M2493.34 266.92c394.62,0 714.52,318.87 714.52,712.22 0,393.35 -319.9,712.22 -714.52,712.22 -394.62,0 -714.52,-318.87 -714.52,-712.22 0,-393.35 319.9,-712.22 714.52,-712.22z"/>
   <path class="fil7" d="M2493.34 320.39c364.99,0 660.88,294.94 660.88,658.76 0,363.82 -295.89,658.75 -660.88,658.75 -365,0 -660.88,-294.93 -660.88,-658.75 0,-363.82 295.88,-658.76 660.88,-658.76z"/>
   <path class="fil8" d="M2493.34 757.96c-122.16,0 -221.19,99.03 -221.19,221.19 0,122.15 99.03,221.19 221.19,221.19 122.15,0 221.19,-99.04 221.19,-221.19 0,-122.16 -99.04,-221.19 -221.19,-221.19z"/>
   <path class="fil9" d="M2174.88 648.55l-95.26 -100.17c107.19,-100.86 248.15,-158.37 395.49,-161.38l2.85 139.43c-101.03,8.97 -202.05,35.81 -303.08,122.12z"/>
   <path class="fil9" d="M2803.46 652.33l95.25 -100.17c-107.19,-100.86 -248.14,-158.37 -395.48,-161.38l-2.86 139.43c101.03,8.97 202.05,35.81 303.09,122.12z"/>
   <path class="fil10" d="M2874.23 1242.42l99.91 69.2c-108.2,162.43 -288.25,259.67 -480.8,259.67 -263.25,0 -493.64,-180.43 -561.55,-439.8l117.32 -31.95c215.93,396.41 491.28,428.01 825.12,142.88z"/>
   <path class="fil11" d="M2051.8 1070.19l-128.02 26.56c-7.76,-38.89 -11.67,-78.48 -11.67,-118.17 0,-146.04 52.87,-286.93 148.47,-395.67l98.23 89.81c-94.17,95.27 -147.67,216.41 -107.01,397.47z"/>
   <path class="fil11" d="M2840.27 674.8l91.21 -81.08c92.25,107.94 143.08,241.69 143.08,384.86 0,105.86 -27.8,209.8 -80.52,301l-111.87 -66.23c101.06,-217.86 77.59,-394.21 -41.9,-538.55z"/>
   <path class="fil12" d="M2295.25 759.16l-84.32 -86.18c72.08,-67.61 165.68,-107.17 264.04,-111.56l5.22 118.92c-70.59,2.12 -128.18,25.98 -184.94,78.82z"/>
   <path class="fil13" d="M2192.03 964.24l-112.81 -5.43c4.73,-98.44 43.79,-191.99 110.28,-264.2l79.22 74.18c-46.37,59.07 -76.42,122.53 -76.69,195.45z"/>
   <path class="fil13" d="M2228.86 1113.14l-105.94 53.71c-25.84,-51.82 -40.71,-108.49 -43.65,-166.41l118.02 -6.09c-3.17,44.15 7.08,83.84 31.57,118.79z"/>
   <path class="fil10" d="M2335.08 1231.34l-63.36 101.02c-56.69,-36.13 -103.83,-85.61 -137.39,-144.18l103.39 -60.23c20.2,40.59 49.5,76.63 97.36,103.39z"/>
   <path class="fil10" d="M2479.58 1396.88c-61.22,-2.05 -121.23,-17.76 -175.71,-45.98l55.02 -108c38.99,28.03 81.32,35.98 124.92,36.35l-4.23 117.63z"/>
   <path class="fil9" d="M2691.43 759.16l84.32 -86.18c-72.08,-67.61 -165.68,-107.17 -264.04,-111.56l-5.22 118.92c70.59,2.12 128.18,25.98 184.94,78.82z"/>
   <path class="fil13" d="M2794.65 964.24l112.81 -5.43c-4.73,-98.44 -43.79,-191.99 -110.28,-264.2l-79.22 74.18c46.37,59.07 76.42,122.53 76.69,195.45z"/>
   <path class="fil13" d="M2757.82 1113.14l105.94 53.71c25.84,-51.82 40.71,-108.49 43.65,-166.41l-118.02 -6.09c3.17,44.15 -7.08,83.84 -31.57,118.79z"/>
   <path class="fil14" d="M2651.6 1231.34l63.36 101.02c56.69,-36.13 103.83,-85.61 137.39,-144.18l-103.39 -60.23c-20.2,40.59 -49.5,76.63 -97.36,103.39z"/>
   <path class="fil10" d="M2507.1 1396.88c61.22,-2.05 121.23,-17.76 175.71,-45.98l-55.02 -108c-38.99,28.03 -81.32,35.98 -124.92,36.35l4.23 117.63z"/>
   <path class="fil15" d="M2343.29 760.88c47.69,0 86.34,37.61 86.34,84.01 0,46.4 -38.65,84.01 -86.34,84.01 -47.68,0 -86.34,-37.61 -86.34,-84.01 0,-46.4 38.66,-84.01 86.34,-84.01z"/>
   <path class="fil5" d="M2620.02 1005.06c28.33,0 51.3,22.35 51.3,49.91 0,27.57 -22.97,49.92 -51.3,49.92 -28.33,0 -51.29,-22.35 -51.29,-49.92 0,-27.56 22.96,-49.91 51.29,-49.91z"/>
   <path class="fil7" d="M2370.6 1170.95l10.26 6.92c0.53,13.22 -1.79,3.8 7.26,7.14 -4.21,-30.59 0.76,-14.58 21.29,-20.06l29.72 -5.78 9.1 19.85c11.63,-10.3 0.82,-7.8 20.72,-10.78 10.19,16.45 13.09,19.13 21.92,33.52l-0.08 -0.62 3.97 0.03c-2.42,-12.38 -5.89,-34.61 -6.71,-49.22l-1.48 -34.1 -13.32 32.93c-0.4,1.37 -1.76,5.73 -2.07,4.91 -0.31,-0.79 -1.32,3.25 -2.23,4.74 -19.85,-22.04 -3.63,-12.86 -6.71,-42.69 -2.17,-21.05 6.25,-0.4 -5.22,-11.63 -21.82,58.59 4.55,36.07 -23.86,46.83 -8.45,-20.92 -2.45,-7.53 0.86,-23.55 5.75,-27.8 3.61,-19.79 -0.86,-27.72 -6.39,12.06 -10.38,27.06 -17.04,39.5 -11.33,21.16 -10.98,17.83 -29.39,18.3 6.94,-13.3 32.54,-52.21 28.54,-70 -26.21,24.19 -32.81,69.56 -44.67,81.48z"/>
   <path class="fil7" d="M2620.29 1174.91l-10.26 6.92c-0.53,13.22 1.79,3.79 -7.26,7.13 4.2,-30.59 -0.76,-14.57 -21.29,-20.06l-29.72 -5.78 -9.11 19.85c-11.62,-10.3 -0.82,-7.79 -20.71,-10.78 -10.19,16.45 -13.09,19.13 -21.92,33.53l0.08 -0.63 -3.98 0.03c2.43,-12.38 5.9,-34.61 6.72,-49.21l1.48 -34.11 13.31 32.94c0.4,1.36 1.76,5.72 2.08,4.91 0.31,-0.8 1.31,3.25 2.23,4.73 19.84,-22.04 3.63,-12.86 6.7,-42.68 2.17,-21.06 -6.24,-0.41 5.23,-11.63 21.82,58.58 -4.56,36.07 23.86,46.83 8.44,-20.93 2.45,-7.54 -0.86,-23.55 -5.75,-27.81 -3.61,-19.8 0.86,-27.73 6.39,12.06 10.38,27.06 17.04,39.51 11.33,21.15 10.98,17.82 29.39,18.29 -6.95,-13.29 -32.54,-52.21 -28.54,-70 26.21,24.19 32.81,69.56 44.67,81.49z"/>
   <path class="fil11" d="M2832.07 1276.27l113.31 75.49c-7.42,12.05 -6.66,13.35 -18.17,23.35l-120.24 -79.58c13.55,-8.72 13.6,-8.49 25.1,-19.26z"/>
   <path class="fil11" d="M2788.48 1308.27l121.42 82.04c-7.43,12.05 -18.05,21.27 -29.57,31.27l-109.07 -99.59c13.54,-8.73 5.72,-2.95 17.22,-13.72z"/>
  </g>
 </g>
</svg>
