<?xml version="1.0" encoding="UTF-8"?>
<!DOCTYPE svg PUBLIC "-//W3C//DTD SVG 1.1//EN" "http://www.w3.org/Graphics/SVG/1.1/DTD/svg11.dtd">
<!-- Creator: CorelDRAW 2017 -->
<svg xmlns="http://www.w3.org/2000/svg" xml:space="preserve" width="50.7998mm" height="33.8666mm" version="1.1" style="shape-rendering:geometricPrecision; text-rendering:geometricPrecision; image-rendering:optimizeQuality; fill-rule:evenodd; clip-rule:evenodd"
viewBox="0 0 5079.98 3386.66"
 xmlns:xlink="http://www.w3.org/1999/xlink">
 <defs>
  <style type="text/css">
   <![CDATA[
    .fil0 {fill:none}
    .fil7 {fill:#606062}
    .fil5 {fill:#020202}
    .fil1 {fill:#212121}
    .fil2 {fill:#4A4A4A}
    .fil3 {fill:#6F6F71}
    .fil4 {fill:white}
    .fil8 {fill:#606062;fill-rule:nonzero}
    .fil6 {fill:#373435;fill-rule:nonzero}
   ]]>
  </style>
 </defs>
 <g id="Capa_x0020_1">
  <metadata id="CorelCorpID_0Corel-Layer"/>
  <rect class="fil0" x="-0.01" width="5079.99" height="3386.66"/>
  <path class="fil1" d="M2527.91 1248.91c0.87,-4.87 1.85,-5.13 4.21,-10.1l5.86 -17.33 -16.88 0.53 4.77 10.28c-13.17,17.44 -63.03,60.81 -66.13,73.57 10.1,-7.8 23.08,-16.97 33.61,-25.47 12.45,-10.04 27.44,-20.11 34.56,-31.48z"/>
  <path class="fil1" d="M2508.76 1222.19l-10.51 -5.21 -4.31 2.74c-12.71,10.71 -54.51,53.45 -56.98,61.85 8.06,-4.52 28.09,-19.99 35.48,-26.36 9.74,-8.41 31.35,-24.84 36.32,-33.02z"/>
  <path class="fil1" d="M2957 1707.22l-12.86 -0.84c-10.06,4.91 -53.19,50.49 -56.03,58.48 14.84,-7.33 45.75,-35.07 59.65,-47.23l9.24 -10.41z"/>
  <path class="fil1" d="M2992.59 1699.61c-5.21,-8.15 -1.7,-3.98 -10.71,-7.64 -0.73,6.48 -3.37,4.92 -1.9,18.54 1.76,16.15 -1.35,10.35 8.84,16.17l2.12 -11.46c0.43,-7.02 -1.49,-2.12 1.45,-9 7.16,9.37 -3.24,9.91 8.22,20.98 5.36,-7.6 4.23,-12.7 4.37,-26.9 0.13,-12.87 -9.26,-3.22 -12.39,-0.69z"/>
  <path class="fil1" d="M2895.62 1674.76l3.13 -7.19 -12.59 -0.46c-7.23,9.81 -14.71,15.11 -22.7,24.72 -7.08,8.52 -15.05,14.24 -20.97,24.45 9.73,-5.33 44.88,-32.1 53.13,-41.52z"/>
  <path class="fil1" d="M2910.25 1703.18l2.46 1.44c-2.59,-10.7 4.41,-8.55 -4.02,-9.06 -10.92,5.94 -38.77,35.49 -43.43,45.02 14.08,-7.81 23.55,-17.13 33.94,-25.96l11.05 -11.44z"/>
  <path class="fil1" d="M2858.73 1662.58l1.49 -6.74 -5.46 -0.18c-7.65,0.35 -7.25,4.29 -18.1,16.85 -5.9,6.83 -12.08,12.22 -17.13,19.54 9.47,-3.73 31.16,-21.87 39.2,-29.47z"/>
  <path class="fil2" d="M2429.34 1397.62l11.84 -0.94c7.07,6.15 2.38,-1.82 3.21,10.58 0.73,-0.61 1.82,-2.45 2.15,-1.88 2.73,4.87 29.89,-63.21 43.42,-80.31 7.44,-9.38 58.46,-46.8 67.78,-55.34l27.08 -22.78c0.42,-0.42 0.99,-1.1 1.41,-1.52l2.87 -2.9c8.44,-6.75 8.49,-4.29 18.07,-5.36l4.54 1.1c3.42,11.16 -4.5,3.95 5.02,8.98 2.08,-8.19 -1.42,5.06 -0.28,-6.59 0,-0.05 -1.45,-5.05 3.8,-12.44 7.93,6.13 3.53,12.76 8.25,19.99l1.34 -12.17c0.58,-8.76 2.28,-6.87 -0.44,-15.06 -3.9,-1.02 2.45,-3.04 -9.06,4.5 -4.29,-4.72 -1.96,-0.36 -2.53,-8.39 -10.29,11.24 -1.36,3.55 -11.75,3.19l-13.44 4.23c-20.61,10.21 -0.89,6.26 -30.65,7.11 6.77,11.05 -7.08,-12.13 6.23,5.03l1.3 3.65c-9.05,3.62 -5.86,2.43 -13.53,-1.43 -2.94,-11.61 -5.05,-14.9 5.65,-17.46 15.57,-3.73 10.8,11.59 16.58,-1.96 -25.82,-15.56 -46.14,22.28 -10.64,27.93 -8.56,7.79 -11.57,8.87 -19.55,14.99 -7.88,6.04 -7.39,7.97 -17.44,14.75l-36.82 30.63c-18.42,17.45 -12.32,9.75 -27.42,38.98 -9.03,17.47 -14.75,29.4 -22.08,45.8l-14.91 5.09z"/>
  <path class="fil2" d="M2883.22 1608.01l1.63 13.68 6.25 -4.78c2.77,5.58 6.23,8.63 13.33,10.76 -20.44,-0.33 -1.7,-1.03 -10.13,5.01l12.73 1.52c2.57,-4.41 8.02,-1.67 14.32,2.09 8.48,5.06 7.33,3.94 6.92,16.04 -20.81,-1.98 -4.29,-0.32 -11.09,4.51 14.54,0.44 14.11,0.05 13.67,13.84 7.85,-3.05 1.19,3.19 10.18,-6.09 11.49,-11.85 10.45,-33.66 -18.79,-46.26 -13.81,-5.95 -15.68,-4.59 -15.1,-17.16 15.02,-12.42 19.31,-0.2 35.41,-0.86l-14.3 -16.34c-5.78,-5.27 -0.27,-1.54 -7.55,-5.8 -8.8,3.42 -17.83,3.14 -24.39,8.63 -10.14,8.5 -4.98,14.05 -13.09,21.21z"/>
  <path class="fil2" d="M2226.23 1628.04l22.8 29.46c0.85,-8.81 -2,-3.6 6.05,-4.12 0.65,-0.04 12.55,1.4 16.09,1.43l1.63 10.5c2.97,-3.8 0.25,2.52 3.43,-6.83 1.38,-4.06 1.03,-3.59 1.92,-7.6 1.58,-7.16 1.8,-9.85 4.3,-17.94 -25.25,14.78 -44.88,-1.97 -26.63,-26.4 21.87,-4.85 25.21,-0.58 26.86,16.95 3.46,-3.38 0.01,0.95 4.27,-5.18 1.97,-2.84 1.66,-2.59 3.52,-5.65 3.12,-5.14 3.48,-6.14 7.43,-11.95 -9.5,-4.28 -46.07,-26.44 -63.16,4.35l-7.4 20.84c-0.13,-0.41 -0.61,1.51 -1.11,2.14z"/>
  <path class="fil2" d="M2180.08 1572.66c10.42,3.06 6.68,-3.57 8.03,7.39 1.73,13.98 0.38,2.77 -3.46,5.53 -3.46,2.49 -8.2,1.23 -13.67,2.39l-0.18 11.81c5.35,2.34 4.43,0.77 7.8,1.91l7.09 3.12c0.48,-0.72 1.66,0.81 2.37,1.39 -0.76,0.32 -1.76,0.62 -2.35,0.74 -0.61,0.12 -1.67,0.51 -2.43,0.63 -9.95,1.48 7.35,0.36 -5.29,0.58 -10.95,0.18 -40.57,-13.63 -38.32,-21.43 -7.1,2.28 -6.5,1.75 -14.52,5.56 -3.73,1.76 -2.09,0.79 -5.78,3.16 -5.61,3.6 -0.93,-0.62 -5.38,4.36 9.33,1.5 21.12,6.37 26.01,14.82 25.19,-5.51 40.81,-4.23 66.56,1.73l0.03 -12.55c12.73,-3.37 15.13,3.87 20.95,-8.23 -3.98,-8.9 -0.22,-4.2 -10.06,-7.4 -0.28,-0.1 -8.7,-0.77 -10.29,-1.03 -1.83,-22.01 2.65,-9.85 -9.25,-20.44l-17.86 5.96z"/>
  <path class="fil2" d="M2482.41 1201.69c10.93,-4.1 12.67,-4.24 21.85,0.72 -2.6,-14.59 -3.57,-56.2 4.2,-66.98 -2.76,-8 -0.26,-4.6 -7.17,-7.66 -13.88,7.94 -7.97,-6.23 -13.89,9.27 -0.51,19.57 3.27,48.37 -4.99,64.65z"/>
  <path class="fil2" d="M3002.7 1666c-6.2,-12.2 0.04,-5.59 -11.67,-12.4 2.84,10.41 4.66,1.73 -0.25,7.7 -11.1,-4.55 -6.31,0.69 -9.79,-10.69 4.3,-3.34 -5.97,-8.94 6.57,-0.72 -4.39,-10.35 -1.21,-4.84 -9.34,-12.77 -5.39,-5.26 -6.1,-7.15 -13.28,-10.44 -6.36,32.3 -1.52,49.77 31.29,49.81 9.17,-9.42 -0.4,-4.71 6.47,-10.49z"/>
  <path class="fil2" d="M2081.49 1604.23l2.99 3.44c0.98,0.89 4.41,3.53 4.51,3.6 -9.12,3.63 -5.29,0.43 -10.36,8.42 8.83,-3.68 1.68,-1.3 4.74,1.08l-2.43 19.9c7.03,-2.48 6.14,-1.84 12.62,-6.03 1.61,-1.04 3.71,-2.59 5.19,-3.85 3.76,-3.18 1.91,-1.33 5.08,-4.98 -5.97,-9.44 -0.58,-18.86 4.31,-25.68l-2.84 -3.34c-9.49,-13.45 7.51,-10.69 -14.92,-12.39 -7.6,3.93 -3.37,0.91 -6.18,9.71 -1.59,4.98 2.6,2.53 -2.71,10.12z"/>
  <path class="fil2" d="M2565.42 1196.22l-18.12 -19.47c-5.18,11.68 -19.29,-0.58 -25.67,-4.4l-11.39 9.6c14.27,22.92 32.14,11.51 55.18,14.27z"/>
  <path class="fil2" d="M2848.83 1584.62l13.28 1.35c1.82,9.27 0.7,9.71 -2.3,16.72 8.27,-2.3 28.34,-2.59 19.77,-18.38 -2.99,-5.52 -7.91,-5.89 -14.99,-5.08 -1.04,0.13 -7.57,1.63 -7.68,1.66 -4.93,1.49 -5.84,2.44 -8.08,3.73z"/>
  <path class="fil2" d="M2103.39 1575.33c5.8,-19.17 -9.15,-26.2 -18.09,-16.54 -8.98,9.71 0.35,20.75 18.09,16.54z"/>
  <path class="fil2" d="M2118.95 768.05c-0.88,-3.92 -1.67,-0.41 -0.92,-5.3 1.05,-6.85 1.05,-4.35 2.21,-6.6 15.59,-4.5 18.02,16.67 -1.29,11.9zm16.92 -13.39c-11.51,-4.97 -7.26,0.19 -19.21,-8.17 -5.28,-3.69 5.31,-0.9 -5.73,-3.16 2.65,14.99 1.96,15.17 -0.69,29.76 14.7,-0.83 12.77,3.3 24.83,-3.55l0.8 -14.88z"/>
  <path class="fil2" d="M2854.76 1655.66l5.46 0.18 -1.49 6.74 21.37 -18.52c-3.29,-5.56 -2.6,-0.03 -2.4,-11.86 -4.96,2.83 -2.26,0.6 -6.27,4.07 -1.77,1.54 -3.98,4.23 -5.77,6.1 -6.69,7.02 -5.18,4.24 -10.9,13.29z"/>
  <path class="fil2" d="M2886.16 1667.11l12.59 0.46 -3.13 7.19c6.23,-3.66 4.43,-2.84 10.49,-7.63 6.91,-5.47 5.66,-3.3 10.81,-11.23l-11.77 0.34 -0.6 -4.53c-7.1,3.75 -2.94,0.65 -9.59,6.73 -3.45,3.15 -5.99,5.9 -8.8,8.67z"/>
  <path class="fil2" d="M3006.78 1701.8c15.79,28.07 3.73,20.09 8.43,30.22 9.81,-4.55 2.76,-0.94 8.86,-15.66 6.2,-14.98 8.51,-5.27 3.84,-14.2 -7.9,3.27 -1.41,-0.93 -5.8,5.74 -0.43,0.65 -0.21,9.81 -2.2,4.39 -0.18,-0.48 -0.73,1.53 -1.22,2.22 -9.2,-16.84 6.46,-10.78 -11.91,-12.71z"/>
  <path class="fil2" d="M2160.29 761.39c-2.8,-5.91 2.46,-3.42 -7.95,-6.54l-2.49 11.46c-7.61,-10.16 -2.24,-7.22 -5.03,-14.48l-8.95 2.83c11.42,5.45 10.68,17.86 5.66,26.27l10.03 0.17c-3.46,-14.45 3.34,-16.6 8.73,-19.71z"/>
  <path class="fil2" d="M2964.94 1626.68c-2.67,-7.42 1.2,-1.38 -5.25,-9.1 -0.42,-0.49 -4.41,-4.62 -4.42,-4.63 -4.14,-3.64 -0.6,-0.89 -6.09,-4.37l-3.38 15.25 19.14 2.85z"/>
  <path class="fil2" d="M2815.5 1654.8l-2.36 -2.51c-9.35,4.59 -11.31,3.67 -16.31,15.76 8.52,-2.67 13.54,-6 18.67,-13.25z"/>
  <path class="fil2" d="M3061.61 1725.91c-6.35,-7.67 -5.93,-7.8 -13.53,-12.21l-2.15 11.68 15.68 0.53z"/>
  <path class="fil2" d="M2681 1508.97l-2.51 -2.86c-5.76,3.27 -4.13,1.71 -9.43,6.72 -5.75,5.44 -4.38,3.93 -7.58,10.44l15.01 -8.82c3.43,-3.19 1.79,-1.77 4.51,-5.48z"/>
  <path class="fil2" d="M2856.33 1620.2c10.97,-5.41 9.7,-4.54 14.84,-12.88l-9.25 0.51 -5.59 12.37z"/>
  <path class="fil2" d="M2699.9 1534.79l-1.81 -1.93c-6.61,4.29 -8.12,4.03 -14.17,14.83l11.39 -7.2c3.27,-3.19 1.83,-2.01 4.59,-5.7z"/>
  <path class="fil2" d="M2404.83 1221.3l-0.84 -1.1c-3.32,1.66 -6.2,-0.99 -13.27,13.4 12.11,-6.25 10.18,-5.86 14.11,-12.3z"/>
  <path class="fil2" d="M2244.31 1054.1l-0.44 -0.73c-7.52,4.35 -6.38,1.63 -10.78,10.79 4.57,-2.15 0.66,1.3 5.37,-2.82 6.39,-5.6 2.96,-3.07 5.85,-7.24z"/>
  <path class="fil3" d="M2662.59 1184.22c0.12,-0.68 12.16,-16.34 24.43,-20.53 -0.72,16.81 -9.01,28.34 -24.43,20.53zm29.54 -47.41c-5.25,3.05 -5.09,2.56 -9.89,6.51 -0.71,0.58 -2.67,2.36 -3.3,2.98 -3.69,3.64 -1.41,0.93 -4.62,5.37l7.76 2.22c-5.82,7.42 -6.9,6.07 -12.65,12.09 -6.88,7.2 -5.57,6.97 -15.22,11.99l-2.78 -8.52c-3.48,2.4 -5.46,3.66 -7.88,5.53 -0.73,0.57 -2.95,2.33 -3.66,2.94 -3.66,3.13 -2.41,1.85 -5.31,5.03 6.7,3.23 3.64,-3.51 6.32,5.91l-12.17 10.61 3.45 -13.95c-5.87,3.3 -4.84,2.42 -10.04,6.54 -0.73,0.57 -2.7,2.29 -3.35,2.88 -3.13,2.88 -2.18,1.94 -4.79,4.98l13.97 -0.86c-9.48,16.68 -11.02,4.6 -21.91,21.22 10.39,0.36 1.46,8.05 11.75,-3.19 15.21,-6.23 10.05,-10.67 22.5,-18.13 13.89,-8.32 41.92,16.13 58.69,-16.36 6.54,-12.66 1.14,-21.33 0.88,-33.04 9.63,-4.06 15.39,-11.3 32.15,-23.28 9.16,-6.55 2.99,-3.22 10.46,-9.98l164.96 -132.27c8.58,-6.09 3.3,-3.56 10.48,-10l43.51 -35.91c8.44,-7.16 5.11,-1.09 21.64,-16.52l22.51 -18.69c15.42,-13.42 34.3,-22.07 44.51,-40.77l-58.51 43.71c-5.62,4.28 -6.41,3.49 -11.99,8.63 -6.56,6.05 -2.8,4.43 -10.73,9.86l-208.84 167.69c-13.87,12.46 -52.56,45.64 -66.92,53.5 -2.49,-4.42 -1.38,-1.61 -0.98,-8.72z"/>
  <path class="fil3" d="M2425.09 1248.05l-2.34 -1.78c-4.72,2.81 -2.84,-0.04 -6.23,4.13 -3.73,4.59 -1.76,1.86 -3.26,7.89 10.63,-3.44 6.78,-1.23 11.83,-10.24z"/>
  <path class="fil3" d="M2379.26 1200.68l-1.4 -1.31c-7.95,4.29 -6.03,0.43 -10,9.9 10.68,-2.34 6.18,-0.74 11.4,-8.59z"/>
  <path class="fil4" d="M2140 1614.62c-14.65,2.31 -25.33,10.05 -36.17,11.19 -3.17,3.65 -1.32,1.8 -5.08,4.98 -1.48,1.26 -3.58,2.81 -5.19,3.85 -6.48,4.19 -5.59,3.55 -12.62,6.03 -5.64,13.85 -13.71,9.75 -29.69,37.31 -55.07,94.98 70.23,158.83 161.76,77.42 43.93,-39.07 34.9,-68.65 36.02,-97.9l-22.8 -29.46 -19.67 -11.69c-25.75,-5.96 -41.37,-7.24 -66.56,-1.73z"/>
  <path class="fil4" d="M2105.3 1596.79l2.84 3.34 5.85 -0.33c4.45,-4.98 -0.23,-0.76 5.38,-4.36 3.69,-2.37 2.05,-1.4 5.78,-3.16 8.02,-3.81 7.42,-3.28 14.52,-5.56l40.41 -14.06 17.86 -5.96c69,-15.2 93.62,-22.7 146.07,-55.49 31.27,-19.55 57.82,-44.5 79.67,-73.56 5.6,-7.46 15.45,-25.13 20.71,-30.39 -0.83,-12.4 3.86,-4.43 -3.21,-10.58l-11.84 0.94c-132.31,27.01 -174.56,35.05 -278.9,111.8 -48.08,35.36 -32.24,45.78 -45.14,87.37z"/>
  <path class="fil4" d="M2039.97 1338.88c-134.23,31.13 -76.43,187.2 51.44,162.78 42.68,-8.16 94.05,-49.03 73.61,-104.1 -15.14,-40.79 -66.88,-72.17 -125.05,-58.68z"/>
  <path class="fil4" d="M2517.8 1308.75c-38.01,20.46 -10.65,70.26 25.95,55.79 35.26,-13.95 13.26,-76.9 -25.95,-55.79z"/>
  <path class="fil5" d="M2517.8 1308.76c39.21,-21.12 61.21,41.83 25.96,55.77 -36.6,14.48 -63.97,-35.32 -25.96,-55.77zm164.63 -54.49c11.24,-5.47 20.32,-14.04 29.14,-27.86 7.32,-0.86 16.7,-10.16 18.42,-17.3 7.48,-4.28 7.2,-3.89 13.56,-9.87 6.52,-6.15 7.26,-6.85 11.07,-14.47 8.14,-3.88 18.05,-12.72 23.09,-20.84l22.1 -22.26c12.93,-6.24 58.82,-54.42 70.62,-66.18 23.66,-23.58 48.25,-46.4 71.27,-70.34l105.57 -106.9c8.8,-10.16 28.76,-25.44 29.25,-41.84 -8.75,-9.04 -10.25,-14.77 -27.61,-5.27 -6.94,3.79 -20.12,14.34 -25.48,18.73l-331.3 266.93c-0.41,7.11 -1.51,4.31 0.99,8.74 14.34,-7.88 53.04,-41.06 66.91,-53.51l208.85 -167.69c7.93,-5.43 4.16,-3.82 10.71,-9.87 5.6,-5.14 6.37,-4.34 12,-8.62l58.52 -43.7c-10.23,18.7 -29.11,27.35 -44.52,40.77l-22.5 18.68c-16.54,15.43 -13.21,9.35 -21.66,16.52l-43.5 35.9c-7.18,6.44 -1.9,3.92 -10.48,10l-164.96 132.27c-7.48,6.77 -1.29,3.44 -10.45,9.99 -16.77,11.97 -22.52,19.22 -32.16,23.27 0.27,11.72 5.66,20.4 -0.88,33.04 -16.77,32.5 -44.79,8.05 -58.69,16.37 -12.46,7.45 -7.3,11.91 -22.5,18.13 0.57,8.03 -1.76,3.67 2.53,8.38 11.51,-7.53 5.16,-5.52 9.07,-4.49 2.71,8.19 1.01,6.31 0.43,15.05l-1.34 12.18c-4.72,-7.24 -0.32,-13.87 -8.25,-19.98 -5.25,7.37 -3.79,12.38 -3.8,12.44 -1.14,11.65 2.35,-1.61 0.27,6.58 -9.5,-5.03 -1.59,2.18 -5.01,-8.97l-4.54 -1.12c-9.57,1.09 -9.63,-1.38 -18.08,5.38l-2.86 2.9c-0.42,0.4 -0.99,1.09 -1.42,1.52l-27.07 22.76c-9.32,8.54 -60.34,45.97 -67.77,55.35 -13.54,17.1 -40.69,85.18 -43.44,80.3 -0.32,-0.56 -1.41,1.28 -2.14,1.89 -5.27,5.27 -15.11,22.94 -20.71,30.38 -21.85,29.07 -48.4,54.01 -79.68,73.57 -52.44,32.78 -77.05,40.29 -146.06,55.49 11.89,10.58 7.42,-1.57 9.25,20.44 1.58,0.26 10.02,0.94 10.29,1.03 9.84,3.2 6.09,-1.5 10.07,7.41 -5.83,12.1 -8.23,4.85 -20.97,8.23l-0.02 12.54 19.68 11.69c0.5,-0.63 0.98,-2.56 1.1,-2.14l7.4 -20.84c17.1,-30.79 53.65,-8.64 63.16,-4.34 32.77,-39.12 82.76,-38.13 97.46,-47.01 4.58,-2.76 25.08,-34.89 31.48,-42.78 34.31,-42.34 159.58,-171.24 188.12,-186.8 -1.91,18.94 -46.89,48.68 -64.79,77.2 13.62,-7.5 28.61,-21.92 41.53,-31.67 6.88,-5.2 12.63,-10.6 19.41,-15.9 24.23,-18.9 30.43,-8.77 24.22,3.85l-63.67 67.17c15.01,-2.17 73.91,-67.18 85.71,-55.7 6.44,6.27 3.46,11.33 -8.06,22.22l-54.94 58.02c22.82,-5.94 72.6,-69.51 85.77,-55.46 11.4,12.14 -43.04,51.94 -63.04,79.91 28.77,-10.19 72.41,-70.09 85.68,-55.54 8.7,9.54 -14.46,27.02 -27.38,40.32l-35.75 39.5c13.97,-5.65 69.08,-54.69 72,-56.21 13.13,-6.8 24.59,1.16 8.23,18.17l-41.4 46.1 2.53 2.86c7.96,-4.47 22.88,-18 32.03,-25.59 6.28,-5.2 10.46,-8.02 16.47,-13.12 3.2,-2.72 5.16,-5.22 8.84,-5.96 39.18,-7.92 -35.51,60.2 -40.26,68.56l1.82 1.93c10.25,-4.2 55.29,-44.03 59.35,-45.57 13.24,-5.02 20.95,4.68 2.92,21.9 -7.59,7.24 -11.31,12.75 -18.41,20.11 -13.56,14.05 -26.32,24.11 -35.99,39.6 17.03,-9.02 64.09,-52.23 72.39,-56.43 16.17,-8.15 21.25,5.77 5.04,21.18l-54.68 59.55c31.65,-18.18 66.58,-63.08 85.83,-57.51 4.35,16.51 -19.02,31.73 -28.88,43.05l-35.51 37.85c18.37,-2.78 65.03,-63.18 87.26,-56.62 4.19,17.16 -19.8,32.13 -29.28,42.6 -11.16,12.35 -24.32,26.91 -35.37,38.5 6.98,-1.95 68.23,-50.81 74.25,-58.38 2.24,-1.29 3.15,-2.23 8.08,-3.73 0.1,-0.02 6.64,-1.54 7.68,-1.65 7.08,-0.83 12,-0.44 14.99,5.07 8.58,15.79 -11.5,16.09 -19.76,18.38 -8.05,2.37 -43.19,42.14 -46.69,49.59l2.36 2.51c5.4,-3.14 15.29,-11.9 20.74,-16.3 7.57,-6.13 17.61,-12.07 20.09,-18.28l5.59 -12.38 9.27 -0.52 12.04 0.71c8.11,-7.17 2.95,-12.73 13.09,-21.21 6.56,-5.5 15.59,-5.21 24.39,-8.64 -9.04,-19.38 -229.57,-242.97 -263.72,-285.96 -3.55,-4.47 -0.86,-0.05 -3.77,-5.59 8.42,-12.28 23.76,-19.94 29.22,-32.35zm-31 -84.82l2.79 8.52c9.64,-5.02 8.33,-4.79 15.21,-11.99 5.75,-6.02 6.83,-4.67 12.65,-12.09l-7.76 -2.21c-4.65,2 -19.94,14.83 -22.89,17.77zm11.15 14.78c15.44,7.79 23.71,-3.72 24.44,-20.54 -12.27,4.18 -24.31,19.85 -24.44,20.54zm-30.4 1.29l-3.45 13.96 12.17 -10.62c-2.68,-9.42 0.39,-2.68 -6.32,-5.92l-2.4 2.58zm13.68 74.13c-7.93,-5.07 -5.09,2.41 -6.17,-9.97 -2.23,-25.54 -5.13,-5.49 -5.88,-25.89 11.16,1.09 15.36,4 13.78,10l0 0.02 -0.09 0.3 -0.05 0.13 -0.06 0.2 -0.09 0.25 -0.42 1.13 -0.11 0.25 -0.04 0.11 -0.17 0.37 0.17 -0.37 0.04 -0.11 0.11 -0.25 0.42 -1.13 0.09 -0.25 0.06 -0.2 0.05 -0.13 0.09 -0.3 0 -0.02c2.61,-8.24 -0.69,-10.96 12.6,-7.41 -0.89,7.02 -2.92,9.32 -5.33,14.45 -5.02,10.68 -1.28,9.88 -9,18.82z"/>
  <path class="fil5" d="M2135.87 754.66l-0.8 14.88c-12.06,6.85 -10.13,2.72 -24.83,3.55 2.65,-14.59 3.34,-14.77 0.69,-29.76 11.04,2.26 0.45,-0.53 5.73,3.16 11.95,8.36 7.7,3.2 19.21,8.17zm108 298.71l0.44 0.73c27.08,-8.61 63.02,-62.69 75.82,-45.84 4.72,10.05 -2.21,13.51 -9.45,20.24l-54.48 59.25c13.29,-6.39 67.11,-58.32 78.32,-58.35 38.38,-0.13 -45.09,59.27 -55.14,82.71 18.56,-12.51 68.94,-59.35 82.66,-59.99l5.21 5.49c-0.97,14.69 -22.05,29.26 -31.54,40.11 -8.24,9.43 -29.89,28.77 -33.44,38.38l61.21 -48.45c18.37,-16.11 30.39,-12.82 23.81,3.14l-27.63 29.31c-10.06,10.76 -28.15,27.72 -34.82,38.98 31.31,-14.43 65.67,-64.18 86.27,-56.18 2.93,22.09 -46.52,51.41 -63.82,80.49 12.63,-6.53 31.14,-22.49 42.13,-31.64 4.39,-3.64 52.08,-45.29 44.01,-14.53 -1.49,5.69 -46.55,47.39 -55.57,62.15l1.4 1.31c9.04,-4.8 26.87,-19.77 36.14,-27.43 7.66,-6.33 28.78,-28.73 37.86,-21.62 11.32,10.17 0.43,12.32 -19.54,35.03 -10.1,11.49 -24.72,21.5 -29.73,33.54l0.84 1.1c16.63,-5.24 61.66,-56.61 72.47,-46.31 11.47,10.92 -37.92,51.97 -54.55,71.28l2.34 1.78c8.12,-3.18 20.91,-15.28 28.81,-21.7 8.19,-6.64 24.54,-15.74 28.51,-24.66 8.26,-16.28 4.48,-45.08 4.99,-64.65 5.92,-15.5 0.01,-1.33 13.89,-9.27 -2.66,-4.4 -14.16,-16.17 -19.69,-22.59l-277.63 -297.21c-14.26,-15.36 -29.24,-33.22 -43.68,-46.58 -5.39,3.11 -12.19,5.26 -8.73,19.71l-10.03 -0.17c5.02,-8.41 5.76,-20.82 -5.66,-26.27l8.95 -2.83c2.79,7.26 -2.58,4.32 5.03,14.48l2.49 -11.46c-3.77,-8.63 -22.29,-25.7 -36.31,-30.49 -20.63,-7.05 -32.38,8.06 -43.37,17.9 -10.91,9.77 -57.88,54.81 -58.24,75.21 28.69,-13.72 66.25,-65.9 79.12,-51.48 11.06,12.39 -43.15,50.31 -62.67,79.3 31.22,-13.24 73.79,-70.75 86.52,-55.78 7.4,8.69 -21.82,34.78 -27.95,40.51 -7.9,7.4 -28.57,28.37 -36.17,39.84 35.43,-18.47 75.15,-70.92 86.74,-56 9.23,11.86 -48.67,56.15 -64.04,80.4 14.65,-8.69 27.5,-21.25 41.37,-31.54 23.79,-17.67 34.33,-35.6 44.48,-23.28 7.02,8.52 -8.45,19.03 -26.82,39.03 -11.72,12.75 -28.02,25.99 -36.15,39.74 33.03,-18.39 66.01,-62.65 85.72,-57.51 4.06,13.6 -2.16,16.19 -10.01,23.29l-53.11 58.35c26.44,-14.14 89.3,-83.07 86.53,-49.81 -0.67,8.08 -55.81,64.38 -65.05,73.68l61.9 -47.02c8.21,-7.32 13.38,-14.94 24.63,-9.1 9.69,10.38 -45.63,58.73 -63.78,80.37 8.29,-2.53 52.17,-38.73 61.78,-47.28 5.68,-5.06 17.22,-16.77 24.53,-8.49 6.1,12.96 -18.95,31.34 -28.31,40.96 -9.62,9.88 -28.01,28.61 -35.39,39.26 14.97,-6.47 68.79,-54.11 71.75,-55.86 3.81,-2.26 0.85,-1.93 6.01,-2.31 16.52,-1.23 -13.18,-4.45 6.44,1.49 15.13,4.57 -16.18,32.61 -24.35,40.39 -8.63,8.22 -30.42,30.09 -35.36,39.03 12.97,-6.53 66.7,-56.41 75.95,-56.83 0,-0.01 4.58,-2.44 8.8,2.88 10.79,13.62 -42.71,45.69 -53.66,69.67z"/>
  <path class="fil5" d="M2103.39 1575.33c-17.74,4.21 -27.07,-6.83 -18.09,-16.54 8.94,-9.66 23.89,-2.63 18.09,16.54zm-63.42 -236.45c58.17,-13.49 109.91,17.89 125.05,58.68 20.44,55.07 -30.93,95.94 -73.61,104.1 -127.87,24.42 -185.67,-131.65 -51.44,-162.78zm464.29 -136.47c-2.8,8.49 -4.27,9.85 -6.01,14.57l10.51 5.21c4.53,-0.21 6.04,-0.79 12.34,-0.18l16.88 -0.53 -5.86 17.33c-2.36,4.97 -3.34,5.23 -4.21,10.1 8.39,-1.67 8.01,-4.62 18.93,-1.78 -3.35,13.37 -11.31,15.44 -18.94,21.32 -8.02,6.18 -13.94,11.38 -21.17,17.05 -54.96,43.14 -66.02,57.85 -143.76,84.34 -122.36,41.69 -163.09,-18.17 -239.93,-41.27 -41.96,-12.62 -94.89,-16.48 -126.85,7.87 -20.57,15.67 -59.58,53.58 -53.07,98.99 5.77,40.21 41.89,67.93 63.61,88.51 14.87,14.09 25.19,24.08 38.8,37.93 26.9,27.38 24.11,39.31 35.96,42.36 5.31,-7.59 1.12,-5.14 2.71,-10.12 2.81,-8.8 -1.42,-5.78 6.18,-9.71 22.43,1.7 5.43,-1.06 14.92,12.39 12.9,-41.59 -2.94,-52.01 45.14,-87.37 104.34,-76.75 146.59,-84.79 278.9,-111.8l14.91 -5.09c7.33,-16.4 13.05,-28.33 22.08,-45.8 15.1,-29.23 9,-21.53 27.42,-38.98l36.82 -30.63c10.05,-6.78 9.56,-8.71 17.44,-14.75 7.98,-6.12 10.99,-7.2 19.55,-14.99 -35.5,-5.65 -15.18,-43.49 10.64,-27.93 -5.78,13.55 -1.01,-1.77 -16.58,1.96 -10.7,2.56 -8.59,5.85 -5.65,17.46 7.67,3.86 4.48,5.05 13.53,1.43l-1.3 -3.65c-13.31,-17.16 0.54,6.02 -6.23,-5.03 29.76,-0.85 10.04,3.1 30.65,-7.11l13.44 -4.23c10.89,-16.62 12.43,-4.54 21.91,-21.22l-13.97 0.86c-10.36,5.73 -12.46,12.58 -25.89,18.05l-22.69 -21.75c-23.04,-2.76 -40.91,8.65 -55.18,-14.27l11.39 -9.6c6.38,3.82 20.49,16.08 25.67,4.4l-38.84 -41.32c-7.77,10.78 -6.8,52.39 -4.2,66.98z"/>
  <path class="fil5" d="M2272.8 1665.31l-1.63 -10.5c-3.54,-0.03 -15.44,-1.47 -16.09,-1.43 -8.05,0.52 -5.2,-4.69 -6.05,4.12 -1.12,29.25 7.91,58.83 -36.02,97.9 -91.53,81.41 -216.83,17.56 -161.76,-77.42 15.98,-27.56 24.05,-23.46 29.69,-37.31l2.43 -19.9c-3.06,-2.38 4.09,-4.76 -4.74,-1.08 -52.61,12.25 -135.93,159.56 -140.83,241.6 -1.25,20.95 4.23,85.46 23.24,101.85l11.02 -4.76c6.08,-24.17 -29.76,-85.97 -0.45,-136.93 27.68,-48.12 75.14,-15.69 123.95,-9.01 66.09,9.04 135.57,-20.5 162.48,-79.18 8.26,-18.02 16.63,-46.71 14.76,-67.95z"/>
  <path class="fil5" d="M3006.78 1701.8c18.37,1.93 2.71,-4.13 11.91,12.71 0.49,-0.69 1.04,-2.7 1.22,-2.22 1.99,5.42 1.77,-3.74 2.2,-4.39 4.39,-6.67 -2.1,-2.47 5.8,-5.74 4.67,8.93 2.36,-0.78 -3.84,14.2 -6.1,14.72 0.95,11.11 -8.86,15.66 -4.7,-10.13 7.36,-2.15 -8.43,-30.22zm-24.9 -9.83c9.01,3.66 5.5,-0.51 10.71,7.64 3.13,-2.53 12.52,-12.18 12.39,0.69 -0.14,14.2 0.99,19.3 -4.37,26.9 -11.46,-11.07 -1.06,-11.61 -8.22,-20.98 -2.94,6.88 -1.02,1.98 -1.45,9l-2.12 11.46c-10.19,-5.82 -7.08,-0.02 -8.84,-16.17 -1.47,-13.62 1.17,-12.06 1.9,-18.54zm-51.03 -21.29c-3.87,3.22 -6.86,6.09 -11.48,10.49 -7.08,6.71 -8.35,6.42 -10.68,14.39 8.43,0.51 1.43,-1.64 4.02,9.06l-2.46 -1.44c7.44,-1.09 0.68,1.75 8.89,-3.89 7.49,-5.13 24.4,-25.91 32.91,-14.13 5.84,8.09 -4.03,12.32 -7.91,21.22l12.86 0.84c45.1,-10.43 6.17,23.53 -4.02,34 -7.74,7.96 -39.14,40.12 -41.7,47.5 13.16,-10.07 25.97,-19.68 39.74,-31.29 12.07,-10.19 31.35,-28.09 43.31,-28.57 16.94,20.52 -54.09,60 -60.19,84.11l60.91 -48.38c20.4,-17.77 30.29,-11.82 23.69,3.05 -2.57,5.78 -52.7,52.24 -62.45,68.5 29.42,-14.63 84.5,-80.16 86.36,-50.29 0.29,4.79 0.19,3.28 -1.16,6.1l-60.7 65.24c18.35,10.75 74.28,-40.2 84.67,-48.19 28.97,-22.27 44.02,-36.41 -3.85,-83.09l-15.68 -0.53 2.15 -11.68c-3.52,-9.3 -13.44,-17.2 -21,-25.06 -5.04,-5.25 -18.72,-20.73 -24.38,-22.64 -6.87,5.78 2.7,1.07 -6.47,10.49 -32.81,-0.04 -37.65,-17.51 -31.29,-49.81l-19.14 -2.85 3.38 -15.25 -6.63 -8.27c-16.1,0.66 -20.39,-11.56 -35.41,0.86 -0.58,12.57 1.29,11.21 15.1,17.16 29.24,12.6 30.28,34.41 18.79,46.26 -8.99,9.28 -2.33,3.04 -10.18,6.09z"/>
  <path class="fil5" d="M2282.45 1632.94l0.23 -9.45c-1.65,-17.53 -4.99,-21.8 -26.86,-16.95 -18.25,24.43 1.38,41.18 26.63,26.4z"/>
  <path class="fil5" d="M2139.67 1586.72c-2.25,7.8 27.37,21.61 38.32,21.43 12.64,-0.22 -4.66,0.9 5.29,-0.58 0.76,-0.12 1.82,-0.51 2.43,-0.63 0.59,-0.12 1.59,-0.42 2.35,-0.74 -0.71,-0.58 -1.89,-2.11 -2.37,-1.39l-7.09 -3.12c-3.37,-1.14 -2.45,0.43 -7.8,-1.91l0.18 -11.81c5.47,-1.16 10.21,0.1 13.67,-2.39 3.84,-2.76 5.19,8.45 3.46,-5.53 -1.35,-10.96 2.39,-4.33 -8.03,-7.39l-40.41 14.06z"/>
  <path class="fil5" d="M2108.14 1600.13c-4.89,6.82 -10.28,16.24 -4.31,25.68 10.84,-1.14 21.52,-8.88 36.17,-11.19 -4.89,-8.45 -16.68,-13.32 -26.01,-14.82l-5.85 0.33z"/>
  <path class="fil5" d="M2904.55 1651.71l0.6 4.53 11.77 -0.34 0.26 0.94c6.8,-4.83 -9.72,-6.49 11.09,-4.51 0.41,-12.1 1.56,-10.98 -6.92,-16.04 -6.3,-3.76 -11.75,-6.5 -14.32,-2.09 2.56,7.54 -0.22,12.41 -2.48,17.51z"/>
  <path class="fil5" d="M2884.85 1621.69c-8.25,8.55 -4.32,0.45 -7.15,10.51 -0.2,11.83 -0.89,6.3 2.4,11.86l14.2 -11.38c8.43,-6.04 -10.31,-5.34 10.13,-5.01 -7.1,-2.13 -10.56,-5.18 -13.33,-10.76l-6.25 4.78z"/>
  <path class="fil5" d="M2118.95 768.05c19.31,4.77 16.88,-16.4 1.29,-11.9 -1.16,2.25 -1.16,-0.25 -2.21,6.6 -0.75,4.89 0.04,1.38 0.92,5.3z"/>
  <path class="fil5" d="M2991.03 1653.6l-3.47 -3.71c-12.54,-8.22 -2.27,-2.62 -6.57,0.72 3.48,11.38 -1.31,6.14 9.79,10.69 4.91,-5.97 3.09,2.71 0.25,-7.7z"/>
  <path class="fil6" d="M1299.2 2363.07l-2.45 0.19 -20.28 7.15 -8.54 8.59 -10.21 4.47 -16.65 11.68 -8.85 6.28 -4.94 8.72 -15.24 16.1 0.36 4.77 -7.77 4.15 -10.46 15.73 -5.31 7.52 -4.61 15.29 -10.38 14.76 -2.11 4.67 -6.81 16.97 -5.48 7.12 -9.14 27.68 32.17 -16.54 24.36 -16.64 7.59 -6.6 31.15 -33.74 16.19 -19.58 13.14 -21.96 4.5 -3.89 3.16 -7.09 6.95 -13.42 2.79 -11.85 4.54 -14.32 2.33 -16.21zm-38.23 -76.17l15.75 -3.66 23.26 -0.53 15.54 4.46 15.49 9.23 16.05 9.2 22.73 25.13 7.78 12.31 7.56 20.25 3.44 14.67 -1.5 10.93 1.38 1.95 -2.37 17.73 -12.41 20.67 -2.03 0.15 -5.49 7.27 -4.66 1.59 -6.82 0.51 -7.22 9.73 -5.35 8.89 -10.67 7.51 -29.6 28.84 -9.83 7.87 -6.11 9.77 -13.12 11.41 -9.79 9.91 -4.17 2.79 -3.54 0.26 -13.06 13.86 -10.09 4.34 -21 14.06 -4 5.1 -8.45 0.64 -12.06 8.99 -5.58 0.43 0.26 3.53 22.62 7.48 72.52 20.26 45.34 16.17 23.68 8.77 22.8 9.92 35.09 18.16 38.72 19.14 7 1.93 6.33 3.92 -1.07 2.39 -3.61 -0.82 -16.05 -0.01 0.36 4.77 -8.53 -0.59 0.09 1.23 1.65 5.49 -6.46 5.28 -3.54 0.26 -4.21 4.03 -3.73 -2.19 -14.25 -3.72 -7.95 1.85 -14.3 -2.63 -2.33 0.18 -31.98 -8 -18.48 -1.75 -78.24 -19.84 -14.55 -5.76 -6.85 -1.81 -75.77 -20.01 -21.19 -2.78 -3.97 10.7 -2.97 18.72 -4.53 19.94 -6.67 33.12 -3.13 7.5 -3.59 10.67 1.83 7.81 -3.25 5.87 -1.45 11.76 -3.97 10.72 -7.17 12.17 -3.98 5.24 0.27 3.54 -3.17 7.1 -5.32 3.96 -4.46 18.83 -3.35 4.64 -0.97 3.64 -5.3 4.08 -4.08 9.51 -11.57 0.87 -2.63 7.05 -10.54 -1.66 -0.95 3.76 -5.99 0.45 -7.78 4.16 -9.29 -1.63 -22.2 -18.05 -3.76 -0.95 -6.37 -9.94 -3.72 -2.04 0.15 -14.12 -4.1 -5.31 0.72 -6.9 2.4 -31.84 -1.64 -21.67 0.59 -8.4 5.89 -43.45 16.35 -75.37 7.48 -55.23 12.56 -62.34 7.4 -25.09 7.81 -18.26 -0.33 -4.36 5.48 -7.27 -1.68 -5.9 3.92 -22.37 6.97 -20.11 -0.26 -3.67 4.88 -9.55 7.43 -8.65 10.27 -2.01 8.12 -2.94 10.46 0.44 12.09 5.79 11.94 4.04 9.27 -0.71 3.35 -2.72 7.68 -5.37 32.25 -33.82 17.46 -13.66 10.85 -10.55 24.09 -16.61 29.27 -15.09 21.48 -9.58zm313.91 -27.02l22.98 -4.21 8.9 1.8 3.14 -0.23 8.9 0.12 15.14 -1.14 15.38 -3.2 22.64 -2.95 34.35 -2.6 18.64 1.87 21.1 -1.6 41.74 -0.69 17.73 0.59 68.77 1.65 35.38 0.47 18.64 1.87 3.14 -0.23 1.64 5.49 -0.71 6.91 -13.79 4.19 -7.4 1.79 -4.22 2.37 -18.89 0.21 -5.41 2.73 -15.2 0.06 -3.5 2.59 -4.53 -1.99 -1.72 4.52 -2.8 4.6 0.43 5.57 -10.93 3.99 -4.53 -1.58 -3.01 3.37 -1.23 0.1 -11.61 4.17 -10.51 9.57 -4.65 -1.7 -1.67 3.39 -4.59 -0.87 -2.88 3.5 -22.89 5.31 -3.23 -0.99 -9.75 5.11 0.15 2.05 -14.85 4.68 -8.23 7.06 -7.79 3.89 -4.85 4.74 -15.12 6.77 -14.2 4.21 -6.32 1.72 -2.88 3.51 -17.48 2.41 -12.15 4.22 -14.7 6.73 -15.93 6.81 -2.13 4.54 -5.43 2.47 -12.46 36.3 -4.97 24.76 -5.59 11.25 -0.72 6.91 -1.32 7.78 3.22 0.98 25.95 -6.48 42.7 -4.33 42.8 -1.32 20.21 0.95 6.55 1.41 8.8 0.57 4.54 2.13 3.33 0.56 0.18 2.31 -4.36 11.16 -15.92 12.44 -8.43 6.25 -4.02 -0.78 -3.13 5.84 -22.77 6.94 -26.58 10.79 -15.14 6.34 -45.37 10.7 -11.93 1.72 -14.21 2.31 -4.9 36.8 -1.64 9.04 -3.2 31.9 -2.85 5.83 2.74 36.37 1.8 7.41 0.68 8.85 3.97 10.94 9.24 4.51 13.32 0.21 20.71 -1.56 50.2 -10.24 16.02 -5.59 45.8 -10.31 26.53 -9.68 26 -7.59 32.36 -12.45 1.18 4.7 -11.57 17.33 0.15 2.03 -11.22 16.47 -19.38 19.14 -13.62 11.85 -5.35 3.69 -1.4 6.83 -7.38 3.85 -13.92 7.89 -4.03 4.71 -4.37 0.33 0.15 1.9 -7.11 7.39 -5.26 4.78 -3.21 -0.84 -6.49 4.87 -4.27 1.55 0.16 1.91 -8.68 3.12 -14.63 7.54 -4.18 2.65 -7.64 0.58 -2.17 2.22 -33.8 5.84 -19.95 0.69 -13.31 -0.23 -44.72 -7.86 -14.48 -6.57 -15.1 -7.63 -1.47 -3.17 -8.06 -6.94 -6.1 -6.38 -5.31 -10.42 -9.8 -13.79 -5.27 -11.65 -2.22 -2.16 -6.26 -24.87 -0.43 -5.58 -3.53 -14.14 -2.89 -27.18 -0.84 -11.17 2.61 -8.97 -1.46 -3.05 -1.24 -16.48 2.28 -13.31 0.33 -10.04 1.52 -23.41 5.9 -37.85 0.66 -7.71 4.07 -20.32 1.39 -8.88 -0.25 -3.25 5.5 -16.05 0.23 -7.69 0.58 -8.82 6.82 -25.86 5.15 -22.45 1.95 -1.39 2.88 -19.8 -6.74 -4.01 -13.93 -10.17 -8.69 -8.12 -3.53 -4.93 9.58 -5.54 -0.16 -2.04 5.36 -3.56 -2.79 -4.29 2.75 -6.93 -0.47 -6.41 13.63 -9.94 2.47 -0.19 7.06 -6.15 11.56 -6.48 5.49 -1.66 7.34 -4.52 6.38 -6.1 2.71 -5.82 9.48 -7.16 16.14 -5.6zm690.27 -139.78l10.1 -9.53 7.56 -7.01 12.08 -8.59 3.13 8.68 -2.55 9.78 -6.73 16.13 -2.94 13.51 -14.13 32.45 -4.53 14.3 -19.93 44.55 -7.76 18.93 -7.88 17.06 -6.19 14.16 -2.49 8.69 -13.36 26.21 -4.88 9.69 -7.27 14.52 -7.97 17.88 -3.27 3.8 -4.53 14.46 -5.3 9.57 -4.7 12.01 -8.08 14.71 -2.79 11.88 -11.74 29.79 -4.99 8.31 -5.48 18.1 0.25 3.27 -3.4 3.83 -3.99 10.72 -5.79 12.08 -1.95 7 1.68 5.89 0.18 34.93 2.09 43.96 -1.3 8.18 5.08 67.03 1.91 9.02 1.84 24.41 0.08 17.25 0.69 9.12 -2 6.18 0.49 12.02 -0.81 14.6 -0.96 3.64 -1.58 11.76 1.75 6.72 -2.54 8.14 -9.04 9.17 -35.52 6.65 -26.6 -5.51 -17.08 -24.87 -10.03 -31.31 -9.28 -31.91 -7.17 -36.73 -5.84 -50.12 0.79 -32.93 -1.74 -39.33 0.42 -36.07 -2.05 -27.12 -30.65 -28.64 -29.49 -29.43 -32.78 -40.12 -24.16 -27.9 -14.04 -26.22 -6.75 -20.3 -6.31 -25.29 3.26 -15.05 11.43 -13.75 5.58 -6.03 9.45 3.66 4.72 4.45 5.1 -6.69 24.25 6.93 15.81 11.68 42.64 38.43 21.39 23.72 44.51 52.41 16.38 24.52 9.57 -16.49 5.03 -18.73 5.78 -12.48 7.85 -13.9 6.1 -15.26 3.36 -2.72 4.72 -12.01 27.48 -49.76 15.9 -23.39 16.39 -27.68 33.52 -51.46 12.36 -15.86 9.92 -11.99 10.01 -10.75 15.25 -17.61 14.46 -10zm167.3 179.31l-8.55 -0.59 -25.88 1.96 1.43 18.8 -4.32 22.8 -2.17 3.73 4.47 10.49 0.17 34.5 1.85 8.35 -2.08 4.96 2.79 20.62 -0.25 29.34 -2.05 3.72 1.11 14.84 -1.37 14.5 -2.64 17.46 1.67 16.72 -1.45 13.41 -3.37 18.76 -2.05 3.72 -0.04 10.41 1.49 19.62 -2.94 4.6 3.92 8.48 -3.71 8.78 3.06 9.77 3.54 8.63 16.43 -10.97 11.13 -12.08 6.74 -5.31 17.4 -14.47 16.95 -14.98 15.05 -13.19 12.21 -14.22 5.74 -9.2 7.67 -9.08 7.9 -7.72 6.45 -8.99 11.97 -22.95 5.27 -9.99 5.56 -22.49 -0.47 -20.93 0.05 -15.62 -6.13 -33.65 -10.55 -27.29 -10.3 -20.18 -7.84 -7.77 -16.83 -15.99 -17.89 -8.24 -17.12 -3.5 -22.02 0.43zm-71.54 -107.07l-1.86 -8.23 3.54 -0.27 9 6.59 14.8 -0.02 20.43 -1.55 36.61 2.16 12.7 3.01 4.86 0.87 21.47 6.74 17.3 5.95 5.12 4.41 14.05 6.2 12.65 7.8 8.07 5.42 3.91 4.5 2.45 -0.19 10.47 11.68 2.91 5.83 7.5 3.11 2.59 3.38 11.29 17.23 10.7 12.75 3.32 13.03 6.93 11.95 3.63 15.35 5.44 3.16 4.85 16.89 3.15 25.51 -2.63 12.26 3.63 0.96 3.09 8.13 -0.65 7.72 -4.4 5.13 -0.51 9.63 0.82 10.76 -3.96 16.46 -3.3 3.81 1.82 9.47 -6.33 10.47 -5 13.68 -3.42 19.98 -9.44 23.59 -16.62 22.92 -19.19 23.5 -15.42 13.64 -10.06 15.57 -5.8 2.91 -1.96 4.93 -17.67 10.93 -0.94 3.77 -8.88 9.43 -9.22 6.73 -2.23 1.4 0.17 2.32 -8.86 0.66 -20.25 18.41 -4.77 0.36 -5.54 11.78 -12.08 -0.33 -6.64 6.54 -8.77 1.76 0.19 2.46 -4.59 2.82 -3.63 -0.96 -18.76 7.44 0.68 -7.32 -10.98 3.3 0.46 6 -4.6 2.67 -3.19 6.68 -3.54 0.27 -5.36 8.89 -6.51 -0.73 1.95 9.44 -4.31 6.35 -4.68 1.59 -12.26 -2.78 -6.68 7.77 -3.94 0.31 -3.95 -3.27 -5.82 2.77 0.09 1.23 -2.13 2.62 -10.46 4.77 -2.62 -2.13 -3.3 3.81 -2.92 -6.22 -1.86 -8.35 3.49 -2.59 -0.45 -6 9.96 -11.57 12.99 -18.25 -10.36 -42.92 -0.85 -11.32 -2.31 -14.2 0.41 -10.87 -2.07 -11.08 -0.53 -23.25 -1.66 -36.45 -0.02 -32.88 -0.14 -18.07 -2.33 -14.64 3.34 -2.7 1.64 -10.96 -1.84 -8.22 2.06 -5.35 -1.55 -20.45 1.46 -11.34 2.87 -14.61 0.77 -6.09 -0.73 -9.67 2.46 -0.18 1.83 -6.45 1.18 -17.07 1.16 -17.35 5.73 -18.39 -0.94 -12.39 3.42 -18.34 4.37 -12.81 -3.23 -4.55 -0.36 -4.76 -8.94 -7.82 -4.62 -11.99 -0.37 -4.9 0.96 -3.64 0.41 -10.86 4.11 -9.21 1.05 -2.41 4.41 -5.13 8.44 -4.33 9.6 -1.82 6.79 -4.22 8.6 -4.21 2.9 -8.72 3.19 -6.68 3.55 -0.26zm424.18 -24.01l22.97 -4.2 8.9 1.79 3.13 -0.23 8.92 0.13 15.12 -1.14 15.38 -3.21 22.65 -2.94 34.35 -2.6 18.63 1.87 21.11 -1.61 41.74 -0.67 17.72 0.57 68.77 1.66 35.39 0.47 18.65 1.88 3.12 -0.24 1.66 5.5 -0.72 6.89 -13.79 4.19 -7.4 1.8 -4.21 2.38 -18.89 0.19 -5.41 2.73 -15.2 0.07 -3.51 2.59 -4.54 -1.99 -1.72 4.51 -2.79 4.6 0.42 5.59 -10.93 3.97 -4.51 -1.57 -3.03 3.38 -1.23 0.09 -11.61 4.16 -10.51 9.58 -4.65 -1.71 -1.65 3.41 -4.6 -0.88 -2.89 3.5 -22.89 5.3 -3.23 -0.98 -9.75 5.11 0.16 2.05 -14.86 4.68 -8.23 7.06 -7.79 3.88 -4.84 4.76 -15.13 6.75 -14.2 4.23 -6.3 1.71 -2.88 3.51 -17.5 2.42 -12.15 4.2 -14.7 6.73 -15.93 6.82 -2.13 4.55 -5.42 2.46 -12.45 36.31 -4.99 24.74 -5.59 11.27 -0.7 6.91 -1.33 7.76 3.23 0.99 25.93 -6.48 42.71 -4.34 42.79 -1.3 20.21 0.93 6.55 1.43 8.8 0.56 4.55 2.13 3.34 0.56 0.16 2.32 -4.36 11.15 -15.9 12.43 -8.43 6.26 -4.04 -0.79 -3.13 5.86 -22.76 6.92 -26.59 10.79 -15.14 6.36 -45.36 10.69 -11.94 1.73 -14.21 2.3 -4.89 36.81 -1.65 9.02 -3.2 31.9 -2.84 5.83 2.75 36.38 1.8 7.4 0.66 8.86 3.97 10.93 9.26 4.51 13.3 0.23 20.71 -1.57 50.2 -10.23 16.02 -5.6 45.8 -10.32 26.53 -9.67 26.01 -7.59 32.36 -12.46 1.18 4.71 -11.56 17.32 0.15 2.05 -11.24 16.46 -19.38 19.15 -13.62 11.85 -5.33 3.69 -1.4 6.83 -7.38 3.83 -13.93 7.91 -4.03 4.69 -4.37 0.34 0.15 1.91 -7.12 7.38 -5.25 4.78 -3.22 -0.85 -6.48 4.87 -4.26 1.57 0.14 1.89 -8.67 3.13 -14.64 7.55 -4.18 2.64 -7.62 0.57 -2.18 2.22 -33.81 5.85 -19.94 0.69 -13.3 -0.23 -44.73 -7.85 -14.48 -6.58 -15.1 -7.62 -1.48 -3.17 -8.04 -6.95 -6.1 -6.38 -5.32 -10.42 -9.81 -13.78 -5.26 -11.66 -2.22 -2.16 -6.27 -24.87 -0.42 -5.59 -3.54 -14.12 -2.87 -27.18 -0.85 -11.18 2.62 -8.96 -1.47 -3.05 -1.25 -16.49 2.28 -13.32 0.34 -10.02 1.52 -23.41 5.9 -37.85 0.65 -7.73 4.08 -20.31 1.38 -8.88 -0.24 -3.26 5.49 -16.04 0.25 -7.69 0.56 -8.81 6.82 -25.86 5.15 -22.45 1.96 -1.39 2.89 -19.81 -6.74 -4.01 -13.94 -10.18 -8.7 -8.11 -3.52 -4.94 9.58 -5.53 -0.15 -2.03 5.35 -3.57 -2.8 -4.3 2.77 -6.93 -0.49 -6.39 13.64 -9.95 2.46 -0.18 7.06 -6.15 11.57 -6.5 5.49 -1.65 7.33 -4.53 6.39 -6.1 2.71 -5.81 9.47 -7.16 16.16 -5.61zm783.51 15.42l0.2 29.71 -2.21 17.84 5.27 6.31 4.02 27.93 -0.24 22.07 0.94 12.4 -1.67 10.54 4.64 12.39 -0.94 47.47 0.29 14.51 0.14 48.91 0.69 20.08 -3.72 14.26 -0.07 15.21 -2.21 18.25 -4.1 20.05 -0.53 9.23 -6.74 21.32 -4.2 18.82 -4.51 14.45 -3.95 13.18 0.18 2.33 -6.25 6.09 -2.75 23.49 -5.4 13.7 -7.49 11.39 -7.82 8.96 -3.84 7.14 -17.96 7.38 -12.93 -2.58 -13.69 -5.4 -13.48 -7.89 -15.54 -15.27 -21.19 -19.23 -21.07 -19.63 -10.05 -9.66 -24.82 -20.33 -30.62 -33.31 -7.47 -9.97 -7.27 -5.48 -31.33 -42.99 -19.07 -23.77 -20.63 -22.95 -5.96 28.13 -3.3 14.35 -0.54 9.23 -7.11 27.53 -7.01 28.6 -7.55 23.47 1.18 4.7 -4.88 9.55 -1.26 16.12 -1.96 21.12 -2.04 20.16 -6.74 17.76 -0.43 10.45 -2.13 2.63 -1.18 11.74 -8.21 -1.84 -5.69 18.92 -3.04 17.9 -5.22 10.81 -13.52 7.88 -3.13 0.23 -5.17 -3.17 -7.9 0.59 -6.05 -0.36 -4.91 -6.89 -13.49 -8.15 -2.97 -6.63 2.35 -17.85 -2.2 -12.73 -1.63 -37.96 0.66 -22.1 -0.08 -17.27 1.2 -58.32 -0.01 -16.43 1.42 -13.82 2.91 -33.92 3.03 -55.99 11.4 -110.07 2.35 -10.6 2.63 -14.3 5.1 -37.67 6.64 -24.6 3.57 -10.68 5.45 -7.67 0.4 -5.66 5.71 -3.99 6.4 -4.18 12.66 -2.89 28.45 4.69 11.14 9.59 1.5 3.45 12.5 11.52 8.86 10.15 11.04 24.52 10.56 11.12 7.07 19.2 16.21 24.11 21.74 26.44 10.8 16.04 10.43 11.28 8.94 11.23 5.85 8.47 9.78 13.24 7.85 13.11 1.48 3.44 6.65 13.61 8.71 19.07 8.94 13.31 10.05 9.65 18.43 37.1 5.28 6.45 8.9 10.98 8.26 14.72 0.33 -17.3 -0.96 -12.8 3.09 -17.08 1 -19.39 2.43 -9.36 0.26 -12.92 2.47 -19.91 7.6 -64.29 1.3 -42.7 3.19 -26.7 3.95 -21.94 2.71 -47.61 2.71 -23.91 -1.09 -14.31 1.18 -15.44 1.75 -20.12 4.26 -28.82 3.07 -17.51 5.32 -20.13 10.1 -34.88 8.93 -21.5 6.22 -17.33 6.92 -15.45 7.59 -15.78 7.24 -21.79 7.82 -1.83 6.76 4.28 1.9 8.77 -1.41 14.08 -3.24 26.01 0.18 2.31 -2.04 3.86 7.15 3.83 -0.38 11.27 2.12 11.91 0.16 18.34 2.47 16.4 3.77 24.52 2.18 17.91 0.65 24.89 0.56 32.85zm452.1 -51.47l-3.67 11.11 -6.78 10.1 -10.25 7.63 -12.73 7.39 -11.47 7.73 -11.41 8.53 -17.59 12.15 -16.94 7.72 -14.51 11.1 -10.6 8.34 -12.56 4.24 -6.26 6.09 -9.35 5.1 -8.56 2.71 -7.3 4.93 -5.4 2.87 -5.6 5.63 -11.12 6.87 -1.99 4.53 -12.94 10.15 -15.28 15.28 -12.84 11.39 -4.41 5.13 -10.89 10 -6.1 9.77 -10.06 4.73 -11.19 11.68 -8.01 20.75 -3.36 19.03 2.52 17.07 4.25 9 27.77 17.49 6.27 3.22 21.72 10.01 12.17 7.02 10.81 5.22 8.16 2.66 17.25 9.11 3.51 4.53 21.48 8.79 13.59 9.39 20.59 11.32 21.06 19.24 8.11 5.81 9.38 8.21 11.51 9.12 9.77 11.32 11.08 14.38 5.51 14.79 3.13 14.29 -0.78 11.29 0.27 8.88 -0.57 7.18 -6.04 16.07 -18.73 18.68 -20.03 10.42 -8.41 5.01 -9.9 2.81 -16.04 5.6 -22.5 4.84 -25.08 1.9 -31.75 0.49 -16.44 0.01 -14.46 -0.96 -8.44 0.64 -21.85 -2.73 -9.54 0.72 -4.68 -1.97 -4.76 0.35 -1.32 -1.12 -3.04 1.46 -3.82 -3.41 -2.36 1.41 0.27 3.54 -1.04 2.55 -3.32 -2.22 -3.67 0.28 -4 -5.73 -5.83 -2.7 -2.3 2.23 -5.92 -0.39 0.06 0.82 -4.42 1.43 -1.3 -0.99 -4.69 1.45 -4.59 -2.81 -2.32 0.18 -3.86 -2.18 -1.82 1.37 -0.09 -1.23 0.6 -1.13 9.49 -3.19 15.75 -3.65 11.58 -0.88 8.99 -2.59 13.94 -2.3 15.98 -5.99 1.81 -1.38 25.44 -4.39 9.07 -1.37 11.49 -2.1 18.39 -1.39 4.58 -2.82 18.32 -2.48 4.77 -0.36 5.3 -4.09 12.74 -1.8 8.05 -0.6 3.36 -2.6 9.03 -1.91 5.99 -0.46 5.49 -1.63 4.87 0.85 6.63 -2.95 7.45 -8.52 8.3 -0.63 5.31 -4.1 7.17 -6.58 1.48 -7.63 0.27 -7.3 -3.22 -4.55 0.27 -7.28 -3.63 -4.51 -3.11 -4.97 -4.64 -3.36 -3.6 -4.1 -7.92 -5.02 -8.96 -6.18 -13.16 -9.01 -12.99 -3.4 -18.04 -10.27 -12 -4.72 -8.3 -2.94 -17.16 -9.25 -8.22 -1.7 -6.4 -5.13 -4.36 0.33 -14.25 -3.73 -4.76 -2.92 -20.29 -3.69 -24.54 -5.66 -19.07 -2.27 -3.34 -2.49 -14.65 -3.41 -12.89 -5.73 -15.08 -12.57 -12.21 -7.56 -17.15 -14.74 -10.17 -13.21 -4.55 -11.29 -4.51 -12.55 -2.54 -33.51 5.48 -7.27 3.76 -8.23 -0.71 -9.26 7.22 -16.98 7.22 -9.73 7.15 -12.2 19.13 -22.4 11.93 -12.55 17.44 -14.06 14.05 -15.17 13.05 -12.23 33.73 -27.08 15.56 -11.59 18.47 -16.61 25.5 -17.96 6.62 -2.95 7.44 -8.65 25.37 -19.47 26.31 -18.16 7.67 -10.98 4.27 -1.57 6.28 -7.58 8.04 -3.9 7.51 -7.7 5.99 -0.46 7.66 -3.87 10.36 -0.78 16.94 1.19 24.17 11.74 6.79 15.52 5.48 12.45 2.92 7.87 3.64 10.14z"/>
  <path class="fil7" d="M1060.47 2092.81l-10.59 38.91c520.49,-30.13 1009.26,-72.15 1519.85,-110.69 173.88,-13.13 1414.01,-84.91 1471.99,-125.19l-84.54 -10.91c-58.45,-9.08 -30.85,33.3 -39.23,-60.4 -0.41,-4.73 3.78,-69.22 4.1,-81.66 1.71,-64.12 -4.85,-117.6 1.06,-181.62l-24 84.18c-2.07,29.33 0.66,67.03 0.16,97.62 -0.95,59.22 -3.28,100.14 -25.61,144.07 -5.74,-114.43 12.19,-261.03 -21.32,-357.03 3.46,78.39 12.41,198.43 -11.04,274.65l-13.47 28.24c4.17,-184.16 -16.47,-248.89 -35.05,-408.53 12.11,130.32 41.4,220.09 19.53,350.96l-22.72 87.12c-0.74,-2.13 -2.88,8.4 -4.94,12.32 2.24,-126.16 4.21,-289.41 -26.86,-393.81 14.9,222.97 38.98,178.68 -12.13,356.31l-19.62 -285.36c-11.83,120.76 15.91,235.44 -28.28,349.27l-1.27 -308.49c-2.71,-131.16 6.02,-30.44 -29.69,-71.82 5.64,97.61 13.87,299.84 -13.93,373.81 37.57,-176.97 -8.41,-429.8 -67.64,-582.01 8.3,89.34 31.82,156.36 37.92,254.16 6.04,96.65 8.3,179.73 -6.42,272.3 4.61,-118.87 3.01,-205.34 -15.16,-321.21 -13.31,-84.85 -72.76,-217.05 -74.47,-245.4 15.06,157.75 95.41,364.52 44.55,595.27 -7.09,32.2 -4.2,15.86 -11.34,33.63 -0.79,1.99 -4.8,11.13 -5.42,8.99 -0.6,-2.1 -3.63,5.84 -5.8,8.48 -6.03,-13.52 -5.38,-4.89 -7.71,-33.15l9.75 -95.1c11.63,-98.28 5.4,-180.88 -10.99,-277.51 -19.82,-116.8 -34.75,-95.25 -49.19,-104.84 34.49,193.36 58.19,301.11 14.79,495.67l-243.53 36.46c-313.96,19.93 -1574.1,136.39 -1746.95,126.55 -46.95,-172.28 -84.43,-306.34 -57.71,-510.42 30.7,-234.34 146.53,-367.34 121.64,-419.17 -122.02,237.97 -183.88,432.57 -142.88,714.98 17.13,117.94 62.64,181.72 30.04,226.17 -70.72,-92.14 -75.89,-383.44 -62.73,-512.72l0.98 -139.36c-0.58,-7.3 -2.87,-9.3 -5.36,-13.43 -12.38,155.31 -28.14,265.24 -33.04,439.42 -22.25,-148.57 0.38,-288.81 9.13,-425.03l-38.64 92.34c-5.37,31.9 -7.65,70.72 -10.13,99.73 -5.92,69.33 -4.26,133.02 -5.94,202.09 -28.55,-119.73 2.51,-255.72 7.26,-378.84 -78.35,98.44 -45.76,363.69 -45.97,482.66 9.62,-31.26 -15.56,-157.35 -16.75,-215.05 -1.85,-90.07 12.6,-161.02 15.59,-251.91 -73.58,92.43 -43.89,329.84 -49.46,439.65l2.01 -421.7c-52.13,63.95 -47.08,243.65 -45.34,319.51 -28.5,-151.67 13.69,-297.76 21.43,-436.34 -69.09,118.38 -65.57,313.94 -61.46,465.43 -53.74,-162.59 19.83,-394.34 39.95,-540.87 -88.45,332.86 -92.65,205.32 -82.58,627.35 11.89,-59.43 -59.1,-313.98 46.07,-639.12 -25.48,117.82 -83.68,192.17 -92.35,389.53 -7.99,181.54 29.41,287.69 37.52,448.95 -11.77,-12.84 -19.59,-6.88 -36.07,-18.09z"/>
  <path class="fil7" d="M1049.88 2131.72l10.59 -38.91c10.49,-207.77 -194.33,-681.25 248.59,-1276.44 698.5,-938.63 2133.6,-712.99 2551.58,342.03 142.82,360.47 67.82,491.71 96.54,726.53l84.54 10.91c45.83,7.7 81.91,18 120.79,-9.28 -44.73,-24.4 3.05,4.47 -39.23,-9.48l-26.35 -9.49c-4.54,-1.77 -10.4,-4.73 -14.19,-6.29 -3.92,-1.62 -10.17,-3.68 -14.53,-6.78 85.29,-1451.37 -1383.48,-2130.79 -2383.67,-1528.03 -597.13,359.86 -876.6,992.23 -743.75,1702.47 3.73,19.93 5.69,20.82 5.9,38.92l-5.32 37.41c-0.53,2.83 -1.89,8.39 -3.72,12.25l112.23 14.18z"/>
  <path class="fil7" d="M2804.86 2820.79l665.86 -43.92 -34.31 37.91c-187,183.31 -535.95,318.35 -791.82,342.57 -365.25,34.59 -706.37,-60.76 -953.89,-229.88l22.93 -9.18c176.55,-49.83 1007.47,-50.65 1089.84,-108.86 -512.18,1.29 -1195.13,100.33 -1737.97,128.55 -79.65,4.14 -187.69,-2.12 -239.14,36.55 127.88,6.09 295.65,-21.02 431.56,-28.29 265.42,-14.2 171.85,-50.31 358.5,71.44 191.99,125.25 421.5,217.47 690.83,250.94 480.77,59.72 970.67,-123.75 1297.88,-444.41l63.35 -82.36c-221.9,9.17 -757.85,36.8 -850.45,72.41 -3.63,1.4 -9.06,3.86 -13.17,6.53z"/>
  <polygon class="fil7" points="596.94,2369.48 635.76,2492.55 762.14,2492.29 659.75,2568.11 699.04,2691.02 596.94,2614.8 494.84,2691.02 534.13,2568.11 431.74,2492.29 558.12,2492.55 "/>
  <polygon class="fil7" points="4483.03,2110.94 4521.85,2234.01 4648.23,2233.76 4545.84,2309.58 4585.14,2432.48 4483.03,2356.26 4380.93,2432.48 4420.22,2309.58 4317.84,2233.76 4444.21,2234.01 "/>
  <path class="fil8" d="M1511.61 803.94l-2.54 2.07 -6.74 7.37 5.35 4.9 4.79 7.51 0.36 1.62 4.04 1.75 9.12 9.64 2.73 1.84 0.71 1.94 6.21 5.05 7.67 8.27 0.38 1.58 4.24 3.86 3.41 4.42 3.86 5.6 4.88 4.23 3.1 4.14 4 6.15 0.41 1.56 2.72 2.93 5.57 5.11 0.41 2.06 3.34 1.35 1.25 3.42 3.44 1.94 3.25 1.48 1.72 -7.4 -0.07 -6.32 0.5 -3.25 1.07 -8.62 0.81 -8.66 0.73 -7.65 -0.32 -7.19 -0.81 -4.09 -0.24 -4.57 0.19 -4.25 -0.57 -4.2 -2.69 -9.58 -1.15 -4.19 -4.37 -7.76 -5.64 -5.73 -4.09 -4.4 -10.57 -7.82 -10.15 -4.85 -8.18 -2.95 -4.25 -0.1 -8.92 -0.07 -7.18 2.42 -5.7 3.52 -6.08 5.92zm-48.2 -11.17l-2.69 -1.8 0.92 -1.02 4.26 -0.52 4.12 -3.9 5.34 -5.82 10.81 -9.03 4.35 -2.49 1.6 -1.04 7.78 -3.76 6.41 -2.89 2.6 -0.13 5.55 -1.94 5.61 -1.13 3.69 -0.63 2.27 0.24 0.64 -0.7 6.01 0.51 2.33 0.87 2.94 -1.11 1.6 0.28 7.7 1.85 6.35 0.75 4.37 2.78 5.07 1.52 5.05 3.34 2.37 -0.54 5.8 3.45 7.6 6.32 2.48 4.14 1.28 -0.71 3 1.48 1.85 2.33 0.13 2.6 2.38 2.82 3.06 2.79 3.23 5.68 0.08 1.92 3 2.17 0.98 4.6 2.2 5.13 4.3 6.51 3.57 9.11 1.37 10.78 0.82 11.65 -0.73 7.85 1.28 7.01 -0.86 2.35 0.74 1.9 -2.06 7.7 0.72 1.32 0 4.97 -0.81 4.32 -0.26 0.97 0.67 0.59 -2.31 2.53 -0.83 10.48 -1.26 1.36 1.57 4.77 -3.48 3.09 -0.14 3.56 -1.98 2.81 0.69 0.64 -0.55 1.98 -1.27 0.68 -3.3 7.04 -1.73 -2.23 -2.2 3.8 1.7 1.58 -0.58 1.95 0.85 2.72 -0.91 1.01 0.85 3.89 -2.01 1.5 3.04 2.13 0.44 2.92 -0.88 1.68 -4.18 2.46 0.18 3.92 -1.04 1.12 -1.95 0.13 -0.91 2.3 0.36 0.31 0.09 1.31 -1.66 4.09 -1.31 0.1 0.09 1.94 -2.47 -0.98 -2.72 -1.86 0.31 -1.64 -1.71 -1.56 -0.25 -5.86 -1.17 -8.55 -14.2 -9.27 -3.22 -2.95 -4.38 -3.37 -2.76 -3.16 -3.49 -2.55 -6.26 -6.37 -10.05 -9.77 -8.66 -9.21 -4.81 -5.02 -4.51 -3.5 0.25 -1.63 -2.43 -3.51 -2.69 -1.8 -0.83 -2.04 -5.81 -5.32 -2.57 -3.56 -3.04 -4.85 -1.38 -1.91 -2.76 -2.52 0.63 -0.71 -1.18 -2.27 -4.16 -5.1 -4.23 -5.16 -3.25 -6.67 -3.52 -3.21 -3.88 -6.04 -2.14 -4.74 -2.11 -0.42 -1.34 -1.23 -4.56 0.15 -4.45 -2.13 -1.4 -1.29 -0.69 -1.27 -2.73 -3.14 -1.28 -3.67 -0.35 -0.94 -0.11 -2.61 1.23 -3.42 2.2 -3.05 0.81 -2.96 1.28 -3.43 -1.47 -3.22 -0.87 -2.7 0.93 -1.02zm154.91 -59.42l1.06 -1.81 4.06 -0.74 3.27 -1.72 3.88 2.73 0.99 -0.32 0.03 1.46 4.02 4.43 3.3 5.94 -1.77 6.34 -3.48 4.63 -4.03 2.18 -9.91 -1.82 -3.14 -2.77 -2.67 -2.96 -2.08 -3.72 1.58 -2.06 -1.02 -1.14 0.5 -3.12 1.18 -1.06 0.04 -1.53 4.19 -2.94zm24.16 47.17l2.08 -4.57 2.82 -1.26 0.5 -1.74 0.77 -0.71 5.38 -0.06 2.2 -0.55 7.48 2.79 3.65 3.36 3.49 3.86 2.99 10.17 10.39 22.1 8.8 12.02 3.03 4.05 2.82 -1.27 6.51 -6.51 6.59 -10.15 1.19 4.54 0.95 1.03 1.24 5.76 -0.17 3.04 1.5 0.7 -0.96 4.19 -0.83 0.74 0.69 2.08 -2.06 3.91 0.03 1.46 -3.15 10.29 -0.84 4.29 -4.34 5.09 -0.37 1 -1.73 0.36 -6.32 2.17 -9.35 0.92 -7.11 -0.99 -4.9 -2.43 -9.01 -7 -9.15 -10.12 -4.01 -7.42 -5.73 -15.36 -3.67 -17.79 -1.19 -13.27 -0.21 -8.72zm75.21 -113.19l2.05 -3.04 5.49 -4.51 6.69 -2.92 0.79 -0.04 0.66 0.82 5.44 2.75 2.63 3.2 0.7 3.23 -2.23 7.74 -3.56 2.93 -3.56 11.47 -3.13 13.17 -1.22 13.49 1.7 3.78 0.98 1.22 2.78 1.65 23.39 2.35 12.82 2.81 10.28 4.47 0.7 0.86 1.04 0.51 3.36 2.45 0.27 0.32 1.46 3.43 0.96 1.18 0.72 4.78 -0.85 4.49 -1.97 6.38 -7.79 8.97 -2.43 2.6 -6.17 7.04 -1.9 1.57 -3.2 4.04 -14.51 15.1 -15.48 14.07 -1.71 -0.59 -2.04 1.68 -1.37 -0.29 -1.37 1.73 -5.84 4.8 -1.96 2.41 -2.18 -0.17 -1.72 -3.82 1.64 -5.3 3.22 -7.24 10.48 -15.12 11.79 -13.69 18.48 -19.71 2.6 -4.12 0.18 -0.77 -6.83 -1.78 -6.5 -0.65 -2.08 -0.05 -3.22 -0.76 -7.82 -0.1 -3.7 0.38 -0.27 -0.33 -6.81 -0.36 -2.48 -0.55 -11.69 -5.56 -8.55 -8.68 -3.83 -8.8 -0.96 -5.81 1.73 -13.19 3.28 -11.22 4.32 -10.06 8.3 -14.64zm124.8 -43.48l-0.92 0.61 -5.07 4.87 -5.8 8.72 -6.74 11.8 -4.73 15 -1.68 8.53 -1.18 13.38 5.03 -3.51 6.94 -9.54 5.69 -10.27 3.87 -9.12 2.07 -8.78 1.73 -8.19 0.79 -13.5zm-13.81 -9.45l6.34 -7.98 8.69 -4.49 3.37 0.69 2.88 2.31 -0.33 1.49 3.88 2.95 3.02 5.63 0.57 4.43 0.64 1.79 0.45 1.52 -0.34 6.94 0.73 1.92 -0.23 3.24 -1.2 4.54 -0.84 2.59 -1.36 6.86 -1.76 8.38 -1.99 6.92 0.48 1.57 -1.72 2.99 -0.87 0.59 -1.21 3.78 -1.59 2.9 -3.72 9.89 -2.6 3.58 0.06 1.67 -8.16 11.6 -4.77 3.91 1.18 4.59 1.4 0.96 2.7 1.27 8.11 -0.61 10.91 -3.63 10.93 -5.49 1.54 0.3 17.37 -10.59 12.15 -9.23 10.12 -9.4 5.04 -5.21 0.91 -0.61 0.59 0.86 -3.84 8.15 -3.91 6.87 0.17 1.01 -2 2.61 -3.04 2.61 -0.03 1.92 -4.07 5.84 -2 1.34 -0.03 1.92 -1.44 1.46 -2.4 1.11 -0.15 0.62 -2.54 1.69 -0.39 2.15 -4.9 4.37 -3.09 2.85 -4.45 4.13 -3.32 1.65 -0.11 0.65 -4.59 3.08 -0.72 1.75 -1.92 0.72 -2.54 1.71 -1.23 0.11 -3.3 2.23 -1.31 -0.25 -1.79 1.19 -3.52 1.1 -1.03 0.13 -0.36 -0.53 -0.75 -0.06 -2.96 2 -1.14 0.18 -1.39 1.51 -2.5 -0.15 -5 -0.18 -6.4 -1.26 -6.39 -2.37 -8.6 -5.36 -2.35 -2.65 -0.5 -1.58 -4.19 -3.8 -0.61 -0.93 -1.43 -0.69 -0.55 -2.23 -2.21 -3.29 -2.2 -4.12 0.17 -10.48 0.82 -11.49 1.76 -6.73 0.84 -6.72 1.54 -4.13 7.91 -21.83 6.59 -14.79 12.02 -18.46zm170.56 -11.34l0.91 5.24 7.04 12.13 5.18 5.08 10.26 8.96 3.94 2.77 3 1.9 -2.03 1.75 -0.81 2.71 -2.79 -0.95 -2.79 1.33 0.45 0.82 -0.76 0.96 -2.99 0.55 -4.14 1.03 -16.23 -6.1 -13.88 -13.69 -2.04 -1.88 -0.32 -1.55 -3.28 -2.77 -6.78 -14.89 -1.76 -0.08 -0.78 -6.55 -0.9 -0.77 -0.74 -1.33 0.47 -1.33 -4.21 -7.86 -1.9 -6.14 -1.83 -4.28 -1.92 -5.56 -1.4 -2.59 -3.3 -2.59 -3.55 -0.7 -5.13 2.06 -5.09 4.51 0.64 5.74 0.77 5.38 -0.6 4.32 1.84 8.97 -0.19 3.81 1.15 5.82 1.08 11.29 1.09 13.08 0.45 5 0.75 2.4 0.62 7.66 0.97 1.81 -0.13 2.99 1.37 9.94 -0.38 1.27 -0.09 4.06 -2.15 2.41 0.73 1.34 -3.03 0.92 -5.4 2.92 -3.86 -1.92 -1.41 -0.32 -2.27 0.02 -3.63 -1.55 -1.57 -0.72 -2.07 0.41 -2.65 -3.29 0.01 -3.51 -3.89 -12.41 -0.17 -1.64 -3.29 -15.52 -0.79 -3.65 -3.61 -17.42 -5.41 -19.1 -2.74 -19.36 0.61 -6.23 3.48 -4.66 6.24 -3.04 0.63 0.21 2.57 -2.64 1.27 0.04 5.55 1.88 2.97 2.95 4.53 -9.77 1.88 -4.01 5.24 -5.1 9.76 -8.25 16.39 -2.34 1 -0.05 5.33 1.16 0.91 0.7 6.1 2.87 5.68 7.91 4.37 9.39 0.89 3.69 0.89 6.17 2.15 10.39 1.6 7.86 2.86 8.25 0.1 2.74 0.2 2.35 1.27 0.38 1.79 2.67 1.7 3.14zm-48.09 -141.9l2.64 -2.96 2.32 -1.25 0.73 5.7 0.69 -0.03 0.17 0.28 -0.7 2.27 -0.01 6.15 0.97 2.48 0.31 2.1 -0.37 0.65 0.32 0.57 0.69 -0.03 0.68 6.79 0.96 1.09 0.12 0.25 1.72 0.33 0.75 2.92 0.76 3.42 1.19 -1.35 0.29 0.55 -0.43 1.43 0.31 0.54 -0.43 4.1 -0.12 0.44 0.83 2.83 -0.03 2.83 -1.04 1.62 -0.82 1.46 -1.52 2.73 -4.33 5.85 -7.32 5.5 -8.46 4.1 -8.05 1.35 -5.76 -0.41 -4.95 -1.33 -4.38 -2.71 -6.03 -4.62 -2.43 -2.21 -1.45 2.76 -1.22 7.46 -0.16 3.89 0.16 1 -1.52 2.36 0.25 1.11 -2.01 1.82 -0.85 1.99 -0.26 0.15 -2.03 1.09 -0.91 1.22 -2.72 1.46 -1.09 -0.13 -0.8 -0.82 -2.27 -0.68 -3.28 -1.21 0.51 -0.94 -1.46 -0.83 -0.64 -1.18 -1.39 -1.88 -1.39 -4.5 -0.68 -10.32 0.55 -7.47 3.17 -7.42 2.94 -5.83 2.21 -3.09 2.48 -0.81 4.82 -3.13 3.6 -1.06 11.68 0.5 9.62 4.6 1.75 1.68 0.15 0.82 3.64 6.74 0.38 0.16 2.09 0.24 2.04 -1.1 4.15 -3.26 1.5 -3.07 1.46 -7.66 1.9 -11.99 1.53 -6.24 0.92 -3.49 3.36 -6.37zm145.97 37.63l-2.5 0.4 -8.04 6.65 -10.3 12.71 -12.07 18.16 -6.85 14.11 -4.75 12.16 -0.95 12.64 0.87 4.27 4.14 0.63 10.22 -16.95 11.39 -21 12.73 -26.71 6.11 -17.07zm-18.7 -9.61l8.31 -5.46 3.76 -1.36 6.58 3.66 1.25 1.66 -0.19 7.6 4.33 -7.94 0.89 -0.32 3.74 -1.84 6.2 -0.46 1.96 0.96 2.91 2.18 1.43 1.11 3.06 7.1 -0.22 4.32 2.58 4.49 -0.63 19.99 -0.3 16.31 0.48 1.34 -1.19 7.47 1.33 11.89 0.94 4.42 -1.27 0.96 1.74 4.81 -0.24 3.81 1.5 2.75 0.17 4.18 0.62 3.08 1.99 0.89 3.3 6.96 2.94 2.23 1.73 1.99 3.79 1.42 3.68 -0.2 2.52 -0.25 0.31 0.84 -3.42 2.25 -0.97 1.96 -1.44 0.51 -2.46 3.53 -0.06 1.65 -1.44 0.52 -5.42 1.34 -3.9 -0.37 -9.72 -4.69 -4.19 -4.35 -4.14 -4.57 -0.68 -1.89 -3.53 -5.76 -6.25 -11.82 -3.87 -14.28 -1.99 -10.56 -0.9 0.32 0.38 0.99 -3.94 10.41 -4.41 8.97 -1.33 5.89 -1.9 3.84 -0.63 1.33 -1.49 3.16 -3.81 6.13 -7.24 8.98 -8.67 7.22 -4.98 1.19 -10.2 0.23 -8.36 -0.87 -4.29 -3.37 -3.3 -3.22 -2.69 -6.56 -1.73 -7.87 -1.29 -10.34 2 -12.98 0.87 -1.99 3.01 -8.57 9.46 -17.65 15.87 -22.63 13.89 -17.15 9.16 -9.52zm132.53 -15.7l-0.74 -0.31 -6.17 2.51 -7.19 8.67 -4.91 7.56 -1.98 4.61 -3.49 17.08 -0.34 4.86 2.25 8.95 2.95 5.43 1.41 1.72 2.55 -0.66 2.91 -2.79 3.22 -8.12 2.35 -6.94 4.36 -20.49 2.82 -22.08zm7.9 -130.2l3.48 -2.5 4.86 0.39 1.22 -1.44 7.51 0.81 1.66 -1.57 5.82 2.22 2.79 2.91 1.2 8.6 -0.58 6.54 0.91 5.44 0.14 4.26 -1.23 18.54 -0.22 8.95 -2.02 17.35 -0.58 5.83 -0.49 4.24 -1.03 4.11 0.94 1.82 -1.03 2.33 -2.05 3.64 1.1 4.33 -1.51 6.73 0.41 3.56 -2.3 3.29 1.15 2.71 0.27 1.06 -0.69 7.92 -1.18 3.48 0.54 10.33 0.49 1.93 -0.77 3.38 1.72 2.29 -0.99 2.3 1.5 8.5 -0.21 1.14 1.25 4.93 0.87 3.48 2.25 10.79 1.4 5.56 2.76 7.05 2 3.65 1.32 0.76 3.23 6.48 4.01 5.83 1.02 -0.25 2.54 3.62 1.32 3.3 4.28 2.6 1.14 0.19 2.94 -0.31 2.9 -1.16 3.76 -2.08 0.99 1.96 -0.7 1.76 0.61 2.38 -4.12 6.31 -4.17 4.19 -3.88 0.97 -1.06 0.27 -4.16 -2.09 -16.79 -16.72 -11 -16.55 -2.36 -3.09 -1.23 1.29 0.26 1.02 -0.98 2.36 -1.55 4.01 -3.33 5.61 -1.77 3.14 -5.08 4.92 -10.49 6.28 -8.46 3.61 -5.61 0.92 -7.6 -1.12 -7.88 -2.28 -7.22 -3.42 -6.05 -5.73 -7.22 -9.78 -2.4 -5.12 -1.54 -8.5 0.23 -13.71 3.44 -13.37 5.29 -12.28 3.55 -6.15 9.01 -16.42 13.26 -15.85 3.91 -2.72 7.5 -1.89 11.79 0.82 1.64 -28.04 2.21 -35.27 2.53 -18.89 0.07 -5.94 -1.93 -5.69 0.25 -5.3 1.52 -0.39 0.46 -3.75 0.24 -1.62zm128.18 102.21l-1.94 -1.58 -2.11 0.46 -2.81 1.17 -1.57 1.82 -3.08 3.38 -3.56 3.5 -5.61 9.05 -4.14 9.15 -3.46 8.15 -4.14 11.82 -2.48 12.76 0.62 6.45 2.28 2.79 3.33 0.31 4.02 -1.06 4.23 -1.91 5.02 -2.75 6.42 -6.21 4.64 -7.36 4.72 -9.3 2.11 -13.2 0.05 -7.91 -1.03 -11.38 -1.51 -8.15zm-15.11 -27.51l5.9 -4.42 3.19 0.44 5.05 -0.28 6.3 0.2 2.36 2.31 2.54 3.65 0.15 1.03 -0.78 1.07 1.55 0.85 4.22 4.54 -1.07 3.26 2.63 0.06 -0.19 1.61 2.27 1.69 1.11 4.5 3.9 6.54 4.3 10.13 0.93 2.95 1.44 3.82 1.85 4.88 -0.8 2.28 -0.23 4.57 2.2 4.34 -0.35 2.07 0.03 6.2 -2.16 9.98 0.6 4.1 -1.61 2.73 -3.35 2.51 -0.19 5.17 -5.17 6.98 -2.07 4.02 -6.03 5.56 -4.58 4.55 -2.37 1.95 0.15 1.02 -3.92 4.13 -2.57 0.38 -1.29 1.78 -1.6 -0.39 -0.78 1.17 -7.23 3.57 -3.66 -0.37 -0.23 1.57 -1.06 0.16 -1.08 -0.91 -2.73 2.43 -1.08 0.16 -7.45 1.08 -1.68 -0.7 -0.98 0.61 -9.54 -0.29 -6.26 -2.52 -4.93 -1.77 -4.01 -3.12 -2.87 -2.55 -1.6 -3.33 -1.05 -0.96 -1.94 -2.32 -0.51 -3.53 -1.37 -5.38 -1.58 -0.88 -0.69 -3.59 -2.34 -1.21 -0.73 -2.7 -0.44 -3.08 1.87 -1.33 -0.6 -0.87 -0.23 -1.51 -1.41 -6.46 -0.22 -4.64 3.52 -10.77 1.16 -6.22 2.29 -1.93 0.27 -4.73 13.57 -26.08 5.18 -6.97 3.32 -4.98 10.1 -11.74 2.83 -2 2.37 -2.69 4 -2.45 1.71 0.86 2.39 -1.46 3.36 1.67zm100.96 -3.55l3.03 -1.66 4.62 -0.19 5.75 5.28 0.28 6.6 -0.32 3.59 6.3 -3.85 9.12 -2.87 12.63 -0.09 6.22 0.68 10.84 5.2 4.31 3.4 3.8 6.45 0.62 3.49 -3.36 3.67 0.05 1.1 -4.04 4.18 -3.51 -0.32 -1.65 -2.56 -3.64 -1.36 -11.59 -1.96 -3.73 0.16 -6.98 1.23 -8.01 4.51 -5.75 5.3 -7.19 10.98 -4.63 10.83 -5.01 22.54 -1.4 13.73 -0.42 4.65 -1.98 11.33 -1.01 2.04 -4.97 1.81 -3 2.53 -2.91 0.77 -2.61 -0.95 -0.55 -1.97 -4.94 -6.88 -1.1 -3.51 0.4 -1.54 -1.09 -1.01 -1.07 -3.07 0.8 -3.12 1.37 -3.58 0.17 -7.1 5.84 -30.76 8.72 -34.38 6.36 -16.46 5.23 -6.86zm208.94 23.89l-0.59 -0.51 -6.66 0.53 -9.46 6.07 -6.97 5.74 -3.28 3.8 -8.5 15.21 -1.79 4.52 -0.57 9.23 1.17 6.06 0.83 2.05 2.62 0.17 3.62 -1.78 5.53 -6.77 4.34 -5.89 10.36 -18.22 9.35 -20.21zm46.93 -121.7l4.08 -1.33 4.51 1.85 1.59 -1 6.92 3.03 2.06 -0.98 4.87 3.87 1.78 3.62 -1.47 8.55 -2.51 6.06 -0.8 5.48 -1.14 4.07 -6.78 17.32 -2.92 8.46 -7.16 15.94 -2.32 5.38 -1.77 3.88 -2.2 3.61 0.34 2.02 -1.69 1.9 -3.06 2.87 -0.27 4.45 -3.48 5.95 -0.66 3.53 -3.21 2.43 0.3 2.93 -0.08 1.1 -3.05 7.34 -2.19 2.96 -2.6 9.99 -0.12 2 -1.75 2.98 0.95 2.69 -1.63 1.91 -1.17 8.56 -0.54 1.02 -0.3 5.08 -0.21 3.58 -1.13 10.97 -0.34 5.7 0.48 7.56 0.82 4.09 1.03 1.13 1.1 7.16 2.07 6.77 1.05 0.05 1.32 4.23 0.25 3.55 3.31 3.77 1.02 0.54 2.9 0.59 3.11 -0.23 4.22 -0.86 0.35 2.18 -1.18 1.46 -0.16 2.46 -5.81 4.75 -5.27 2.75 -3.99 -0.24 -1.1 -0.07 -3.33 -3.26 -10.93 -21.02 -5.49 -19.09 -1.31 -3.67 -1.56 0.86 -0.06 1.04 -1.66 1.96 -2.68 3.36 -4.88 4.34 -2.63 2.46 -6.34 3.14 -11.89 2.84 -9.15 0.86 -5.64 -0.81 -6.9 -3.36 -6.81 -4.58 -5.85 -5.44 -4.02 -7.29 -3.95 -11.5 -0.72 -5.61 1.1 -8.56 4.36 -13.01 7.32 -11.7 8.77 -10.12 5.24 -4.78 13.54 -12.91 17.46 -11.1 4.55 -1.41 7.71 0.46 10.99 4.34 10.06 -26.22 12.76 -32.95 8.13 -17.25 1.87 -5.62 -0.12 -6 1.84 -5 1.56 0.1 1.58 -3.43 0.71 -1.48zm98.13 139.83l-1.08 -0.18 -7.04 0.06 -10.19 2.38 -13.01 3.98 -13.7 7.67 -7.07 5.07 -10.04 8.94 6.08 0.9 11.6 -2.19 11.17 -3.6 9.06 -3.98 7.53 -4.98 6.87 -4.78 9.82 -9.29zm-3.58 -16.34l10.08 -1.47 9.41 2.66 1.99 2.83 0.51 3.65 -1.26 0.86 0.81 4.82 -1.68 6.15 -2.6 3.62 -0.76 1.74 -0.71 1.43 -5.02 4.81 -0.79 1.9 -2.37 2.2 -3.99 2.49 -2.39 1.3 -5.67 4.07 -7.03 4.91 -6.21 3.66 -0.7 1.49 -3.32 1 -1.03 -0.18 -3.47 1.93 -3.14 1.03 -9.5 4.65 -4.34 0.83 -1.1 1.26 -13.88 2.87 -6.17 -0.44 -2.28 4.16 0.36 1.65 1.09 2.78 6.34 5.1 10.42 4.85 11.73 3.48 0.91 1.27 19.9 4.19 15.18 1.6 13.83 0.09 7.22 -0.34 1.09 0.19 -0.16 1.01 -8.37 3.32 -7.56 2.32 -0.58 0.85 -3.22 0.53 -4.01 -0.17 -1.36 1.37 -6.96 1.46 -2.37 -0.39 -1.33 1.39 -2.04 0.06 -2.54 -0.82 -0.52 0.32 -3 -0.5 -1.77 1.32 -6.56 -0.18 -4.2 -0.05 -6.07 -0.05 -3.55 -1.06 -0.52 0.39 -5.46 -0.89 -1.73 0.78 -1.88 -0.8 -3 -0.5 -1 -0.74 -3.92 -0.65 -0.79 -1.08 -2.14 -0.36 -3.29 -1.6 -0.85 -0.63 0.09 -0.63 -0.48 -0.55 -3.53 -0.59 -0.96 -0.63 -2.05 0.15 -1.7 -1.82 -3.53 -3.58 -3.81 -5.29 -3.03 -6.1 -2.58 -9.79 0.09 -3.54 0.73 -1.49 -0.46 -5.65 0.19 -1.09 -0.56 -1.49 1.13 -2 0.65 -3.92 1.22 -4.5 7.3 -7.52 8.47 -7.8 5.89 -3.71 5.23 -4.3 3.94 -1.96 20.71 -10.47 14.93 -6.27 21.41 -5.2zm175.86 16.17l2.1 0.02 2.66 3.13 3.11 2.03 -0.45 4.71 0.77 0.71 -1.23 0.74 -1.89 5.69 -3.51 5.81 -6.38 1.6 -5.74 -0.72 -3.9 -2.45 -3.33 -9.49 0.84 -4.09 1.25 -3.8 2.2 -3.65 2.58 0.36 0.47 -1.45 2.97 -1.11 1.5 0.49 1.35 -0.72 4.63 2.19zm-29.01 44.34l5.02 -0.45 2.51 1.82 1.74 -0.42 0.99 0.32 2.73 4.65 1.56 1.63 1.28 7.88 -1.1 4.85 -1.63 4.92 -7.35 7.64 -14.05 19.98 -6.08 13.59 -2.01 4.64 2.49 1.82 8.88 2.43 12.09 0.71 -3.35 3.27 -0.44 1.35 -4.38 3.92 -2.72 1.37 0.13 1.65 -4.12 1.23 -1.05 -0.34 -1.47 1.61 -4.42 0.17 -1.24 0.74 -10.5 2.35 -4.16 1.41 -6.56 -1.25 -1.04 0.16 -1.17 -1.31 -5.01 -4.42 -5.45 -7.65 -2.67 -6.68 -0.31 -5.46 1.63 -11.3 4.26 -12.96 4.45 -7.15 10.5 -12.6 13.62 -11.99 10.95 -7.6 7.45 -4.53zm112.71 16.92l7.24 1.04 3.68 1.64 6.19 6.15 0.78 0.82 2.24 4.9 1.92 11.94 -2.3 6.22 -5.78 8.06 -1.99 2.29 -5.86 5.14 -3.37 3.04 -2.86 2.64 -4.43 3.53 -2.31 4.04 -5.1 4.96 0.21 2.28 -4.04 2.58 -0.06 1.69 -1.25 0.08 -0.57 1.29 1.01 0.45 40.89 -23.39 16.67 -7.6 7.28 -2.27 9.76 -2.36 3.65 -0.57 3.99 1.25 1.47 -1.06 5.83 0.92 5.9 2.63 1.35 2.28 3.22 1.44 0.22 1.82 1.63 1.24 2.13 4.28 1.34 14.39 -2.93 5.42 -0.21 1.63 -4.44 6.24 -4.3 3.16 -3.27 2.44 -3.99 4.08 -3.19 3.29 -3.23 1.28 -2 1.8 -3.25 1.61 -7.1 2.01 -5.79 3.85 -0.13 1.44 -2.43 0.58 -6.03 5.26 -7.72 5.98 -3.93 3.13 -5.61 4.23 -2.27 4.05 -5.1 6.54 -3.64 1.69 -0.73 3.07 -4.2 4.16 -1.89 4.23 -1.37 2.07 -1.71 -0.05 -2.61 7.04 -2.89 1.59 -2.08 3.46 -1.38 -0.62 -0.19 0.44 -1 -0.45 -1.52 0.01 -0.5 -1.43 1.05 -5.05 0.15 -2.64 2.15 -6.27 1.33 -1.6 -0.5 -1.44 0.57 -3.6 4.43 -6.47 1.61 -4.8 1.66 -3.7 1.86 -3.01 1.59 -0.96 2.25 -5.08 0.68 -0.36 6.88 -9.03 9.06 -11.68 9.55 -10.06 0.42 -0.96 0.66 -1.45 1.98 -0.75 2.7 -3.71 5.33 -5.55 1.61 -0.25 0.62 -1.4 4.66 -4.01 1.65 0.05 1.02 -2.27 -2.03 -0.38 -4.89 2.37 -4.44 4.64 -2.43 0.58 -1.07 1.2 -3.02 0.37 -0.8 1.82 -5.28 3.18 -4.3 2.45 -4.92 4.59 -4.23 5.35 -6.32 3.22 -4.72 2.97 -2.06 1.26 -3.28 3.6 -11.57 4.1 -8.33 2.04 -4.22 -0.73 -3 -0.13 -2.47 -0.11 -3.27 -2.09 -2.4 -2.63 -4.11 -8.04 -2.14 -11.42 0.05 -2.85 1.2 -1.13 0.22 -4.27 7.47 -14.55 6.27 -12.16 3.51 -4.52 0.44 -0.96 1.88 -3.07 3.55 -5.67 -14.12 9.4 -1.23 0.43 -11.43 9.42 -10.38 8.19 -3.71 3.4 -1.43 2.07 -4.21 4.16 -1.45 1.02 -0.83 1.87 -2.48 1.7 -3.03 3.09 -1.64 0.94 -4.5 4.19 -2.05 3.46 -1.4 0.41 -3.25 2.41 -3.24 -0.23 -0.62 1.39 -2.25 -1.01 -0.39 -0.68 -5.46 -2.45 -0.96 -4.28 -0.56 -1.45 -1.4 -1.78 -1.06 -3.68 -0.34 -1.82 -1.62 -1.24 0.8 -2.98 0.45 -1 1.58 0.18 1.88 -4.22 3.44 -2.83 7.46 -10.65 1.19 -1.14 10.26 -12.09 2.42 -2.84 12.04 -11.78 24.3 -19.85 5.07 -3.79 4.07 -2.03 3.4 -1.19 3.27 1.46 3.9 1.05 0.7 1 2.03 3.09 1.63 0.03 10.49 -2.41 4.35 -0.93zm192.79 125.39l-1.84 -1.73 -10.16 -2.32 -16.36 -0.42 -21.75 1.48 -15.37 3.16 -12.55 3.64 -10.6 6.93 -2.84 3.29 2.02 3.67 19.66 -2.22 23.6 -3.75 28.92 -6.18 17.27 -5.55zm-3.76 -20.66l9.38 3.24 3.39 2.17 1.1 7.43 -0.55 2.01 -6.15 4.48 8.92 -1.4 0.8 0.51 3.75 1.86 4.14 4.64 0.43 2.14 0.04 3.63 -0.03 1.79 -3.75 6.77 -3.56 2.45 -1.99 4.78 -16.25 11.66 -13.11 9.7 -0.77 1.21 -6.67 3.6 -8.61 8.31 -2.92 3.41 -1.55 -0.41 -2.74 4.31 -3.18 2.13 -1.26 2.87 -3.21 2.69 -2.08 2.34 0.51 2.13 -3.51 6.86 0.03 3.69 -0.54 2.59 1.19 3.87 2.41 2.78 1.73 1.86 -0.47 0.75 -3.87 -1.34 -2.16 0.42 -1.28 -0.82 -4.28 0.19 -1.36 0.96 -1.28 -0.83 -4.38 -3.47 -2.07 -3.32 -2.2 -10.59 0.88 -5.97 1.13 -6.06 1.08 -1.68 2.41 -6.31 5.57 -12.14 8.97 -11.78 7.17 -8.01 -0.8 -0.5 -0.57 0.87 -10.64 3.24 -9.81 1.96 -5.49 2.54 -4.18 0.81 -1.45 0.3 -3.41 0.77 -7.19 0.71 -11.53 -0.28 -11.01 -2.49 -3.97 -3.22 -6.4 -7.94 -4.4 -7.17 0.06 -5.46 0.56 -4.56 3.55 -6.14 5.19 -6.17 7.42 -7.32 11.5 -6.31 2.12 -0.52 8.63 -2.84 19.76 -3.25 27.61 -1.18 22.07 0.56 13.13 1.49zm97.77 87.74l6.16 -2.85 -5.89 -1.5 -14.86 -0.71 -3.03 2.15 -8.19 1.38 -5.08 2.49 -3.84 2.67 -0.05 2.28 3.05 1.39 3.78 1.64 3.59 -0.33 6.77 -0.95 9.62 -2.97 7.97 -4.69zm23.34 -7.51l3.65 0.34 5.26 4.72 0.73 3.32 -1.9 1.65 -1.21 4.85 -6.28 4.68 -3 2.12 -0.03 0.8 -5.64 3.16 -2.78 4.31 -9.66 7.28 -15.59 14.13 -3.15 1.47 -2.18 2.75 -5.96 4.35 -5.29 4.25 -5.22 5.13 -2.97 1.33 -4.66 4.22 -0.62 0.03 -1.97 -0.75 -2.68 2.38 -4.72 2.77 -1.82 2.32 -8.57 6.93 -3.65 3.62 -5.03 -0.08 -1.15 2.23 -1.04 -0.22 -0.28 0.37 -3.08 1.47 -3.69 0.44 -1.5 -0.56 -2.2 -0.42 -4.51 1 -3.31 -0.05 -3.42 -1.38 -2.14 -0.48 -3.94 -2.49 -5.55 -3.63 -8.27 -12.31 -2.72 -8.02 -1.45 -7.43 0.28 -7.58 1.09 -9.55 2.22 -7.82 7.3 -12.51 6.62 -6.88 3.75 -2.32 3.15 -4 1.12 0.27 -0.19 1.78 0.89 1.31 0.02 2.55 0.88 -0.45 0.5 0.39 -2.52 5.66 -0.68 0.87 -1.04 9.32 0.46 1.18 -1.05 3.04 0.74 0.59 -0.48 4.1 1.56 1.23 -1.91 8.11 0.64 4.96 1.74 6.73 2.14 4.74 2.36 2.68 4.14 7 3.91 2.46 10.79 -11.5 4.94 -4.73 6.12 -6.85 8.54 -7.81 8.3 -9.37 8.64 -8.43 -0.09 -0.68 -10.47 -3.14 -4.91 -4.47 -6.15 -6.77 -0.95 -1.36 -0.79 -3.89 0.3 -5.44 1.85 -3.09 5.04 -6.4 6.33 -4.82 11.57 -2.99 9.74 -2.69 6.19 -0.42 1.7 0.12 9.83 -0.07 4.04 0.63 1.85 0.85 3.07 1.03 6.04 1.61 4.96 5.08 1.78 4.15 0.01 2.55 -0.5 1.41 7.78 -0.97zm72.45 97.94l-0.79 -0.77 -5.84 -3.91 -9.76 -3.79 -12.97 -4.07 -15.65 -1.38 -8.7 0.18 -13.34 1.73 4.52 4.16 10.81 4.73 11.25 3.35 9.74 1.83 9.01 0.13 8.37 -0.07 13.35 -2.12zm6.27 -15.52l9.16 4.48 6.26 7.51 0.05 3.45 -1.66 3.31 -1.51 0 -2.05 4.42 -4.86 4.15 -4.19 1.5 -1.61 1.01 -1.4 0.78 -6.84 1.15 -1.73 1.11 -3.21 0.49 -4.69 -0.21 -2.71 -0.27 -6.98 0.17 -8.57 0.08 -7.19 -0.48 -1.42 0.82 -3.31 -1.05 -0.74 -0.72 -3.95 -0.35 -3.18 -0.94 -10.47 -1.5 -4.05 -1.78 -1.63 0.42 -13.07 -5.47 -4.84 -3.82 -4.23 2.13 -0.63 1.57 -0.68 2.91 2.36 7.8 5.87 9.88 7.71 9.48 0.03 1.56 14.07 14.69 11.63 9.89 11.36 7.87 6.15 3.81 0.81 0.76 -0.72 0.75 -8.77 -1.98 -7.55 -2.35 -0.95 0.37 -2.98 -1.38 -3.21 -2.41 -1.89 0.38 -6.56 -2.71 -1.74 -1.67 -1.9 0.37 -1.71 -1.09 -1.62 -2.1 -0.61 -0.03 -2.21 -2.11 -2.19 0.09 -5.33 -3.86 -3.44 -2.41 -4.98 -3.44 -2.32 -2.89 -0.67 0.01 -3.98 -3.81 -1.87 -0.32 -1.12 -1.72 -2.19 -2.1 -0.4 -1.18 -2.9 -2.77 -0.02 -1.33 -1.55 -1.49 -1.82 -3.2 -0.36 -0.99 0.44 -0.45 -0.09 -0.74 -2.58 -2.48 -0.44 -1.06 -1.78 -1.04 -0.37 -2.46 -0.9 -4.95 -0.15 -6.52 0.94 -6.74 3.38 -9.54 2.09 -2.87 1.43 -0.82 2.82 -4.92 0.76 -0.81 0.4 -1.52 2.03 -1.01 2.76 -2.89 3.54 -3.02 10.28 -2.08 11.41 -1.68 6.95 0.27 6.74 -0.6 4.36 0.62 23.02 3.03 15.86 3.26 20.6 7.78zm51.29 163.25l-4.92 2.02 -10.35 9.47 -3.83 6.15 -6.55 11.97 -1.84 4.43 -1.22 3.34 -2.14 -1.61 -2.83 -0.21 0.33 -2.92 -1.91 -2.44 -0.7 0.61 -1.09 -0.52 -1.17 -2.8 -1.91 -3.84 2.45 -17.16 10.38 -16.5 1.4 -2.41 1.46 -0.63 1.98 -3.81 13.09 -9.81 -0.31 -1.75 6.22 -2.19 0.56 -1.02 1.15 -1 1.41 0.18 6.76 -5.83 5.59 -3.17 3.78 -2.7 5.02 -3.09 2.23 -1.93 1.81 -3.78 -0.08 -3.6 -3.11 -4.59 -5.52 -3.99 -5.45 1.87 -5.11 1.91 -4.34 0.34 -8.36 3.75 -3.76 0.61 -5.42 2.38 -10.8 3.49 -12.54 3.88 -4.8 1.52 -2.17 1.26 -7.36 2.25 -1.55 1.33 -2.94 0.53 -9.4 3.48 -1.34 -0.1 -3.98 0.78 -2.82 -1.58 -1.15 1 -1.56 -2.76 -4.01 -4.66 1.05 -4.16 0 -1.45 -0.5 -2.2 0.73 -3.89 0.35 -1.69 -0.83 -1.92 2.64 -3.31 3.43 -0.74 11.27 -6.49 1.57 -0.5 14.45 -6.57 3.39 -1.55 16.24 -7.28 17.48 -9.41 18.3 -6.83 6.24 -0.74 5.3 2.37 4.29 5.45 -0.04 0.67 3.12 1.94 0.24 1.24 -0.65 5.82 -2.23 3.54 10.51 2.31 4.31 0.97 6.12 4.02 10.15 7.76 5.83 15.5 0.27 0.95 0 5.49 -0.49 1.02 -1.47 6.57 -6.51 7.25 -8.23 6.29 -3.41 1.69 -5.83 2.17 -9.7 4.37 -7.31 3.24 -7.44 4.55 -2.67 0.71 -2.24 0.69 -0.1 1.33 -2.22 2.32 -2.69 2.35z"/>
 </g>
</svg>
