<?xml version="1.0" encoding="UTF-8"?>
<!DOCTYPE svg PUBLIC "-//W3C//DTD SVG 1.1//EN" "http://www.w3.org/Graphics/SVG/1.1/DTD/svg11.dtd">
<!-- Creator: CorelDRAW 2017 -->
<svg xmlns="http://www.w3.org/2000/svg" xml:space="preserve" width="50.7998mm" height="33.8666mm" version="1.1" style="shape-rendering:geometricPrecision; text-rendering:geometricPrecision; image-rendering:optimizeQuality; fill-rule:evenodd; clip-rule:evenodd"
viewBox="0 0 5079.98 3386.66"
 xmlns:xlink="http://www.w3.org/1999/xlink">
 <defs>
  <style type="text/css">
   <![CDATA[
    .fil0 {fill:none}
    .fil1 {fill:#847059}
    .fil2 {fill:#537473}
    .fil3 {fill:#5B5A50}
   ]]>
  </style>
 </defs>
 <g id="Capa_x0020_1">
  <metadata id="CorelCorpID_0Corel-Layer"/>
  <rect class="fil0" x="-0.01" width="5079.99" height="3386.66"/>
  <path class="fil1" d="M3813.56 2815.96c-95.26,0 -98.15,-132.99 0,-132.99 81.28,0 78.69,132.99 0,132.99zm-148.32 -71.61c0,58.22 28.25,101.01 71.69,127.77 59.59,36.71 209.62,19.1 209.62,-127.77 0,-118.45 -145.46,-182.68 -236.68,-98.58 -19.78,18.23 -44.63,62.2 -44.63,98.58zm-158.57 163.66c32.12,0 46.02,-5.11 71.61,-5.11 0,-92.65 -44.44,-196.62 51.16,-204.58 0,-29.36 -5.12,-38.83 -5.12,-71.61 -58.37,0 -106.74,38.21 -123.56,91.27 -16.66,52.53 0.84,129.08 5.91,190.03zm-245.5 -143.21c12.55,-47 99.66,-58.4 112.53,-10.22 -26.95,0 -96.88,2.72 -112.53,10.22zm-81.83 25.57c0,138.76 180.08,189.76 245.5,92.07 -7.32,-10.94 -35.59,-44.16 -46.03,-51.15 -30.08,20.14 -22.74,25.58 -66.48,25.58 -25.46,0 -45.7,-20.47 -51.16,-40.91 37.65,0 65.21,-2.14 101.48,-5.94 23.78,-2.49 73.05,-9.41 97.99,-9.41 0,-84.89 -54.05,-148.33 -122.75,-148.33l-30.69 0c-67.74,0 -127.86,69.05 -127.86,138.09zm-168.79 97.18c-44.55,0 -63.68,-27.15 -69.7,-68.39l-12.13 -131.08 -71.61 5.13c0,37.51 10.66,154.94 20.35,179.1 57.34,142.87 271.19,97.99 271.19,-41.02 0,-61.75 -10.23,-105.3 -10.23,-163.66 -105.23,0 -70.57,7.78 -66.45,102.26 1.27,29.16 10.45,53.71 -2.17,79.72 -9.74,20.09 -32.24,37.94 -59.25,37.94zm-317.1 -107.4c38.96,0 71.58,36.82 71.58,66.49 0,106.25 -164.19,79.75 -132.44,-19.51 9.09,-28.44 40.66,-46.98 60.86,-46.98zm-138.11 66.49c0,81.44 59.39,143.19 148.32,143.19 30.92,0 46.51,-14.6 71.61,-20.45l15.35 153.44c32.77,0 42.25,-5.11 71.61,-5.11l-11.05 -127.06c-8.86,-84.44 -3.61,-176.73 -47.15,-234.14 -68.22,-89.92 -248.69,-49.89 -248.69,90.13zm-235.28 -30.68c109.41,0 91.47,132.97 10.22,132.97 -95.45,0 -84.21,-132.97 -10.22,-132.97zm-132.99 66.48c0,99.89 95.06,162.63 184.91,133.76 43.19,-13.88 42.48,-27.83 70.84,-46.82 6.41,12.12 11.85,20.85 15.33,35.8 118.74,-9.88 75.1,5.11 7.29,-160.71 -73.42,-179.52 -278.37,-100.69 -278.37,37.97zm-337.56 -240.38c0,89.02 -11.68,56.26 107.41,56.26 7.54,90.73 30.68,271.97 30.68,347.78 93.7,0 73.69,-14.7 72.59,-30.49 -2.68,-38.02 -6.9,-74.92 -10.39,-108.42 -3.96,-37.9 -5.38,-75.38 -9.64,-107.99 -4.63,-35.4 -6.52,-74.78 -6.52,-111.12 19.93,0 102.3,-1.64 102.3,-15.34 0,-28.4 -5.13,-30.33 -5.13,-56.25 -64.78,0 -223.33,25.57 -281.3,25.57zm-373.38 383.58c-108.06,0 -95.12,-132.98 -5.12,-132.98 80.08,0 84.63,132.98 5.12,132.98zm-148.33 -76.71c0,53.32 7.72,77.8 42.04,111.39 123.67,121.01 321.39,-47.01 204.43,-194.19 -70.54,-88.76 -246.47,-42.08 -246.47,82.8zm-184.13 -40.92c-80.14,0 -74.42,-105.23 -81.84,-194.36l-71.6 5.12c0,41.88 10.31,146.33 22.37,177.09 23.8,60.71 76.3,83.76 141.29,83.76 32.89,0 40.78,-14.47 66.5,-20.47 0,34.31 0.06,85.58 -61.37,86.95 0,87.15 12.15,79.43 42.24,68.18 131.18,-49.08 88.58,-176.15 80.85,-278.22 -12.04,-158.86 -3.07,-140.19 -41.08,-138.47 -32.54,1.47 -40.91,-7.66 -41.95,25.85 -1.77,56.78 32.39,123.28 -10.28,163.22 -9.15,8.57 -29.92,21.35 -45.13,21.35z"/>
  <path class="fil2" d="M1557.96 3230.22l0 0zm0 0c0,-30.97 -3.19,-43.35 -5.12,-66.49 -18.84,5.03 -20.75,10.27 -20.63,50.97 0.09,30.78 -4.43,43.73 -4.94,66.67 20.61,-1.72 26.21,-11.61 37.09,-24.29l29.41 -37.09c0.35,15.85 1.82,19.65 3.94,32.29 0.48,2.84 -5.04,42.67 30.84,7.96 11.06,-10.68 12.39,-10.03 16.37,-24.91 19.07,13.99 3.21,3.61 12.96,17.72l17.72 18.08c17.19,-9.08 9.52,-0.41 20.45,-15.34 -18.06,-0.4 -18.04,3.19 -24.1,-12.04 -3.82,-9.56 -1.28,-22.39 0.29,-31.78 3.74,-22.35 11.52,-41.46 3.36,-58.47 -21.69,5.79 -10.42,1.04 -17.99,17.82 -4.52,10.04 -5.38,16.3 -9.66,26.14 -8.38,19.22 -18.59,32.85 -33.72,42.99 0,-47.98 3.97,-34.1 0,-81.83 -34.1,9.1 -23.64,47.7 -56.27,71.6zm363.15 -71.6l0 76.71c0,19.55 -1.57,1.87 5.12,15.35 30.72,-8.21 3.94,-12.74 40.83,-76.8 3.08,-5.3 3.26,-6.94 8.38,-12.08 7.9,-7.96 0.52,-4.08 12.16,-8.3 15.01,31.29 -11.69,41.25 10.23,86.95l25.57 0 0 -15.34 -15.35 0c0,-46.19 17.5,-97.19 -25.57,-97.19 -16.89,0 -22.16,18.19 -32.42,34.07l-8.49 11.97c0,-31.39 12.61,-86.68 5.11,-102.29 -26.21,9.5 -25.57,62.01 -25.57,86.95zm-552.39 71.6c0,-25.89 -3.47,-26.31 -5.12,-46.03l-15.35 0c0,32.39 -7.32,102.34 0,117.63 25.47,-9.22 23.76,-56.65 61.39,-81.83 -10.52,45.13 -4.41,30.73 5.11,71.6 31.06,0 27.57,4.58 40.91,-15.35 -21.48,0 -19.5,5.09 -27.72,-8.46 -6.29,-10.36 -1.14,-21.81 0.52,-28.3 7.01,-27.63 11.86,-25.78 11.86,-60.4 -41.94,0.93 -46.15,34.09 -71.6,51.14zm1135.47 -117.64c0,20.85 42.56,29.04 71.61,35.81l0 15.34c-75.83,17.67 -25.16,1.92 -58.55,-2.81 -30.94,-4.4 -3.3,33.5 22.74,33.5 37.02,0 113.95,-52.9 -10.23,-81.84 23.4,-34.92 36.85,-12.01 66.49,-5.11 -0.45,-20.67 2.37,-19.12 -13.27,-27.89 -31.33,-17.58 -78.79,6.2 -78.79,33zm-450.1 122.75c39.73,0 28.96,-9.28 43.18,-11.94 19.9,-3.74 19.59,16 33.34,2.96 11.04,-10.48 -1.41,3.87 -11.37,-25.45 -9.03,-26.57 15.12,-45.15 -8.89,-62.74 -16.45,12.06 -8.64,26.45 -15.98,50.51 -6.13,20.09 -13.42,25.61 -40.28,26.2 -7.9,-33.9 6.69,-60.53 36.21,-76.31 21.84,-11.67 18.7,3.39 25.17,-20.85 -36.14,0 -52.16,4.82 -72.93,39.6 -23.87,40.02 -8.04,78.02 11.55,78.02zm562.62 -102.29c0,16.18 -4.9,51.15 30.69,51.15 14.26,0 29.44,-11.77 35.81,-20.46 19.15,12.83 12.46,15.17 35.8,10.23 -12.87,-35.55 -15.35,18.68 -15.35,-86.94 -49.71,4.13 11.41,59.75 -61.37,76.71 -22.05,-32.92 12.06,-70.1 29.21,-78.2 18.01,-8.51 21.24,-2.94 27.05,-18.98 -26.15,-21.84 -81.84,33.1 -81.84,66.49zm-301.77 40.92c0,64.47 62.05,21.88 77,25.3 6.86,1.57 13.8,17.84 30.41,-4.84 -15.13,-4.04 -8.29,-2.09 -20.46,-10.23 0,-25.23 3.12,-54.45 -5.11,-71.61 -26.29,17.62 -10.76,12.54 -15.96,45.43 -5.04,31.91 -27.76,31.3 -45.41,31.3 0,-41.55 14.02,-77.9 61.37,-81.84l0 -15.35c-35.92,0 -39.72,3.86 -57.67,24.18 -13.54,15.34 -24.17,30.72 -24.17,57.66zm-112.52 -25.57c15.57,10.43 52.14,21.03 71.61,25.57 -2.04,24.43 -13.59,25.57 -35.81,25.57 -14.15,0 -12.3,-3.94 -15.35,-15.34l-15.33 0c-11.59,54.73 86.94,44.07 86.94,-10.23 0,-23.53 -48.5,-27.18 -66.48,-35.8 22.99,-31.38 49.27,-6.97 71.6,-5.12 -3.92,-47.07 -92.38,-42.29 -97.18,15.35zm-475.68 0c-34.14,12.35 -16.23,91.89 -10.21,117.63 28.42,-0.64 37.91,-13.3 56.24,-25.57 5.83,21.81 12.34,19.24 30.69,15.34l0 -15.34c-30.27,-8.09 -10.21,-24.49 -10.21,-97.17l-15.35 0c-4.25,18.21 -6.94,31.97 -9.65,51.73 -2.83,20.69 -6.61,29.78 -23.37,39.29 -37.13,21.04 -3.73,-55.9 -18.14,-85.91zm-450.09 138.09l-15.34 0c-18.2,-34.37 -13.58,-76.72 20.45,-76.72 12.31,0 15.04,8.28 25.59,15.35 0,22.4 -1.84,61.37 -30.7,61.37zm-46.03 -35.8c0,27.83 14.71,40.03 25.57,56.25l25.57 0c17.23,0 46.04,-38.08 46.04,-56.25 0,-85.5 -97.18,-74.57 -97.18,0zm1196.85 -122.76c0,73.55 1.92,35.92 10.23,71.61 17.73,0 39.55,2.01 53.55,-12.93 10.13,-10.82 5.26,5.74 7.83,-17.76 -44.59,10.39 -51.15,40.18 -51.15,-40.92 0,-41.32 14.53,-66.16 15.34,-102.28 -30.2,8.06 -35.8,69.8 -35.8,102.28zm-1294.03 153.45c0,32.49 2.41,35.67 33.52,35.79l2.91 0c13.11,-0.17 23.92,-5.77 33.29,-12.11 12.11,-8.21 18.42,-14.11 22.34,-28.81 -32.93,8.8 -10.47,20.47 -71.61,20.47 0,-39.21 -2.31,-58.95 40.93,-81.84 9.72,23.53 -12.75,11.62 10.22,20.46 6.83,-14.21 5.11,-9.9 5.11,-30.68 -22.92,-5.49 -36.88,-15.91 -59.46,22.37 -9.17,15.57 -17.25,32 -17.25,54.35zm685.37 -61.38l5.12 30.69c42.47,10.17 77.71,-1.21 86.95,-35.81 -24.55,6.56 -71.61,48.29 -71.61,-5.11 0,-13.4 5.67,-24.39 12.12,-33.91 8.2,-12.12 14.12,-18.42 28.81,-22.35 5.15,12.49 3.45,4.13 0,20.46 48.62,-12.98 -7.65,-70.13 -44.12,-8.31 -9.2,15.57 -17.27,32 -17.27,54.34z"/>
  <path class="fil3" d="M4391.53 2826.18l0 0zm-3087.37 -2756.69l46.14 0 3.07 0.01c115.17,0 312.25,84.1 388.51,128.08 54.55,31.45 104.12,68.49 152.94,107.89l68.59 59.29c84.98,81.81 38.83,71.28 264.59,-19.09 95.42,-38.19 192.13,-76.47 290.89,-108.04 32.49,-10.37 69.85,-20.62 103.91,-29.07 99.86,-24.78 258.26,-52.41 364.31,-13.32 116.97,43.1 58.68,272.04 13.47,350.17l-75.45 103.55c-52.42,61.97 -136.61,124.61 -175.43,182.58 108.58,0 322.59,87.85 431.39,136.35 35.04,15.62 65.26,27.39 98.91,44.3 29.97,15.04 60.86,36.6 87.06,56.14 20.02,14.93 27.87,13.85 46.71,24.89 19.99,11.7 33.47,38.09 57.43,49.98 41.05,20.41 21.74,5.72 55.13,47.17 19.44,24.11 49.73,47.73 75.36,67.84l57.21 50.21c41.66,37.02 90.15,83.03 124.74,125.86 77.3,95.69 137.39,198.43 169.11,321.88l21.76 85.65c4.34,13.44 4.65,9.17 7.84,22.85 26.23,-7 37.25,-33.28 58.3,-49.1 44.5,-33.41 96.31,-52.31 152.86,-57.31 20.55,-1.82 22.62,4.37 38.11,10.56 138.33,55.35 126.47,-8.81 209.37,153.79 38.78,76.08 37.99,244.91 -78.74,296.36 -23.04,10.16 -13.5,3.26 -30.89,20.26 -116.04,113.55 -305.3,9.02 -364.35,9.02 -50.05,0 -88.67,-13.85 -39.69,34.54 29.34,29 95.21,93.33 136.86,93.33 104.34,0 157.74,-25.57 225.06,-25.57 164.84,0 260.85,126.28 260.85,286.41l0 43.58c-0.73,31.39 -5.63,42.31 -32.35,92.84 -58.14,109.93 -157.22,109.07 -274.54,109.07 -28.57,0 -83.67,-26.71 -106.59,-41.74 -53.5,-35.09 -106.33,-102.89 -128.79,-162.74 -33.61,-89.56 11.56,-133.77 -86.8,-204.73 -24.25,-17.49 -60.34,-39.68 -90.64,-52.58l-149.74 -70.53c-41.75,-16.77 -59.02,20.61 -143.28,-25.17 -40.24,-21.86 -21.91,-16.82 -73.75,-7.27 -169.52,31.22 -320.76,69.79 -493.55,89.55 -113.85,13.02 -235.9,22.18 -352.44,36.28l-696.68 75.63c-173.86,11.65 -352.7,30.77 -523.72,59.36 -51.24,8.55 -118.12,22.75 -171.54,22.82 -141.78,0.17 -232.92,36.09 -248.57,-22.87 -20.3,-76.46 -0.7,-64.25 -78.96,-64.25l10.24 -92.06c21.2,-10.18 35.8,-1.56 35.8,-35.81 0,-61.93 11.16,-61.37 -51.15,-61.37 0,-42.11 -12.65,-44.44 -15.34,-76.72l66.49 0c0,-69.45 60.15,-289 83.23,-346.39 12.38,-30.77 38.55,-72.4 44.64,-98.56 -32.57,0.72 -97.07,22.67 -129.13,29.42 -171.29,36.03 -84.66,26.54 -239.13,21.73 -33.23,-1.03 -60.52,0.39 -80.96,-16.23 -29.57,-24.02 -92.94,-50.9 -92.94,-96.29 0,-69.36 15.96,-104.09 40.19,-164.4 33.19,-82.61 23.21,-47.28 62.04,-106.73 31.7,-48.54 72.86,-96.51 113.77,-136.86 15.83,-15.61 27.29,-21.7 43.62,-38.2 29.17,-29.51 54.97,-55.07 84.35,-84.44l66.4 -61.45c26.05,-23.19 187.53,-165.73 203.4,-169.97 -4.11,-49.38 -22.15,-97.12 -25.42,-148.48l-10.39 -178.85c0,-92.32 28.96,-167.77 35.83,-255.69 4.26,-54.56 79.66,-228.09 107.26,-281.46 18.01,-34.84 31.02,-43.92 53.21,-45.9zm3000.41 2751.57l0 0zm0 0l0 -15.34c16.46,-3.83 37.17,-9.81 56.27,-10.23 3.67,-44.08 22.92,-76.8 66.5,-86.94l0 35.8c-61.97,5.16 -20.5,56.23 -80.18,68.14 -11.73,2.34 -29.13,5.44 -42.59,8.57zm86.96 5.12c3.75,-16.11 8.64,-20.94 16.8,-34.34 11.9,-19.53 11.61,-15.51 25.5,-30.77 25.96,-28.52 13.96,-40.33 13.96,-83.2 55.6,-4.65 51.73,-42.66 56.26,-97.19 56.99,41.76 2.88,235.9 -112.52,245.5zm30.69 -163.66l0 0zm-363.15 -86.95c-11.98,22.65 -2.92,13.59 -25.57,25.58 4.45,-16.66 8.91,-21.13 25.57,-25.58zm363.15 86.95c11.95,-17.85 22.32,-15.73 40.92,-25.57 0,-22.57 -6.71,-54.2 -4.93,-65.96 3.88,-25.62 23.09,-18.81 30.51,-46.56 23.24,17.02 3.42,29.52 -4.39,46.72 -8.6,18.94 -5.85,44.77 -5.85,70.91 -14.83,7.11 -38.84,16.4 -56.26,20.46zm-363.15 -86.95c13.43,-20.05 17.99,-17.55 35.98,-30.51 16.24,-11.69 15.21,-14.55 26.75,-34.64l0.35 49.94c-36.89,-0.13 -37.55,9.26 -63.08,15.21zm-3002.35 -51.14c-1.66,-19.87 -4.61,-13.33 -5.11,-35.81l46.03 0c-2.5,29.89 -9.75,35.81 -40.92,35.81zm3380.84 86.93c0,7.83 -11.53,13.14 -18.87,16.95 -14.53,7.5 -13.17,4.38 -27.16,13.75l0 56.26c-38.5,8.96 -46.03,25.38 -46.03,71.6 -73.62,1.64 -51.77,24.91 -77.27,45.49 -72.55,58.5 -219.4,-101.58 -219.4,-178.46 0,-42.11 85.88,-45.36 98.94,-85.21 3.7,-11.29 5.51,-30.94 7.21,-38.82 11.75,-54.85 24.24,-19.53 31.06,-61 2.23,-13.53 0.9,-35.72 0.9,-50.25 69.16,-5.74 138.39,-28.63 214.7,15.47 24.91,14.41 42.39,34.82 66.6,51.03 0,35.15 -5.76,50.1 -21.22,70.84 -25.44,34.09 -9.46,31.57 -9.46,72.35zm-3380.84 -199.45c21.63,5.04 13.27,10.23 40.92,10.23 13.26,0 27.98,-22.02 40.9,-30.69l0 66.49c-28.01,0 -39.15,-2.96 -67,-4.73 -9.54,-0.62 -39.01,9.1 -14.82,-41.3zm3073.96 61.37l20.45 -66.49 15.35 0c4.04,15.14 2.09,8.3 10.23,20.46 -7.37,31.64 -21.42,33 -46.03,46.03zm-30.69 46.03c-45.63,10.63 -53.04,38.53 -81.85,40.92 -1.54,-18.69 -10.83,-42.07 -15.33,-61.37 9.69,-14.46 22.09,-24.39 30.57,-41.03 15.18,-29.81 -0.55,-45.92 35.92,-45.92 28.4,0 30.33,5.11 56.27,5.11l0 20.46c-29.47,7.86 -25.58,51.06 -25.58,81.83zm-127.87 -56.26c4.03,-17.28 8.96,-19.59 17.05,-34.09 7.24,-12.99 10.2,-22.75 13.64,-37.51 9.33,4.63 6.4,3.95 20.46,5.12 0,37.25 -17.04,63.64 -51.15,66.48zm-429.64 -214.81c0,-20.93 11.37,-39.16 15.35,-56.24 21.21,14.19 24.64,25.23 33.96,52.96 8.07,24.01 17.18,45.83 17.18,74.89 -38.7,-9.02 -66.49,-38.48 -66.49,-71.61zm199.47 92.06c2.6,-31.12 12.88,-16.67 35.37,-46.46 12.56,-16.66 20.67,-38.03 26.02,-60.94 107.17,56.71 134.36,126.17 179.01,138.08 0,35.97 -15.82,49.41 -30.69,71.61 -74.86,-17.44 -113.37,-61.07 -158.56,-71.61 3.91,-46.91 35.81,-6.95 35.81,-117.61 -12.2,4.4 -4.1,-0.45 -11.69,8.76l-22.32 44.17c-11.61,20.6 -23.16,33.34 -52.95,34zm-46.02 -30.69c-22.27,-95.57 19.66,-92.05 86.95,-92.05 -27.9,52.71 -16.44,75.64 -86.95,92.05zm-2649.45 -86.93c0,17.63 -3.77,19.79 -5.11,35.8 22.63,6.03 20.46,10.11 20.46,35.8 62.19,0 12.85,-10.23 51.15,-20.46 5.94,25.49 24.04,48.53 -5.12,92.06 -25.75,-13.63 -23.55,-5.66 -39.35,-32.25 -30.9,-52.05 -52.42,-29.93 -88.51,-29.13 -7.75,-16.16 -6.85,-38.53 -15.35,-56.26 16.44,-3.82 37.17,-9.79 56.27,-10.22 -3.55,-15.25 -13.81,-28.51 -2.97,-33.23 9.37,-4.09 28.53,10.76 28.53,17.89zm2542.04 -51.15c15.42,-7.4 31.96,-8.6 46.02,-15.34 47.35,70.69 10.24,47.14 10.24,97.18 0,27.84 8.21,42.21 10.23,66.48 -45.67,-10.65 -13.29,-31.81 -51.26,-107.3 -7.67,-15.26 -8.73,-27.46 -15.23,-41.02zm76.72 -20.45l138.37 -20.77c24.62,-6.07 35.38,-3.64 47.79,18.72 12.16,21.95 13.31,36.37 13.31,68.53 -17.72,-8.51 -34.49,-12.34 -54.53,-22.2 -96.94,-47.72 -136.33,22.89 -144.94,-44.28zm347.79 -5.13c17.57,11.77 15.98,16.77 29.51,31.87 34.73,38.79 29.27,27.46 21.64,60.2 -32.71,-21.91 -39.73,-66.52 -51.15,-92.07zm-132.98 -56.24c17.02,-4.55 7.16,-1.06 17.79,-12.92 19.08,-21.29 29.48,-40.7 48.71,-53.59 0,25.71 -4.98,48.49 8.47,63.14 8.7,9.46 34.19,20.65 47.79,23.81 -4.06,17.43 -19.62,47.67 -16.64,58.57 5.96,21.7 28.76,15.28 31.97,53.96 -29.61,-6.91 -62.43,-18.68 -92.06,-25.58 0,-17.78 -4.87,-52.88 -12.06,-64.64 -11.24,-18.39 -14.98,-6.63 -33.97,-42.75zm-2654.55 424.49c0,-136.96 109.64,-532.17 177.92,-640.41 34.16,-54.17 212.35,-298.12 258.05,-340.34l71.98 -61.01c18.69,-15.21 34.07,-24.47 53.23,-38.83 248.43,-186.07 642.03,-310.53 973.25,-310.53 93.99,0 310.44,-7.23 378.12,31.04 44.17,24.95 63.05,-8.73 171.36,58.81 11.73,7.31 26.68,11.53 38.79,17.47 26.14,12.82 52.21,24.6 77.66,39.95 84.37,50.91 228.48,154.94 284.77,231.83l16.73 24.19c5.7,6.95 -0.94,-0.38 7.55,7.78 21.37,20.55 33.18,43.53 49.02,68.62 23.45,37.13 59.5,113.5 74.91,155.25 33.66,91.27 41.68,124.04 41.68,229.38 0,168.58 -240.37,96.4 -346.34,149.8 -27.09,13.64 -32.94,28.68 -45.08,57.21 -10.41,24.45 -9.32,22.34 -61.67,35.51 -29.18,7.33 -56.53,12.33 -84.39,17.9 -240.58,48.17 -623.72,99.42 -875.11,127.38l-183.04 16.42c-30.79,0.04 -66.08,-3.41 -94.48,2.7 -149.51,32.12 -213.57,29.14 -354.98,43.98 -24.12,2.52 -67.71,8.17 -92.92,9.36l-137.95 10.37c-20.37,0.49 -29.13,-0.25 -48.47,2.69l-350.59 53.48zm2726.16 -531.9c48.22,4.02 16.07,45.41 42.8,69.71 28.28,25.71 49.27,7.59 49.27,63.26 -17.72,-4.72 -17.06,-12.34 -50.36,-31.5 -37.89,-21.83 -21.25,-15.24 -21.25,-55.44 0,-30.19 -20.46,7.15 -20.46,-46.03zm-2828.45 -61.38c18.27,13.39 3.24,11.38 21.43,29.72 25.44,25.67 10.29,-10.13 56,51.4 9.2,12.39 17.37,20.21 24.86,31.4 -0.94,42.37 -35.43,62.09 -14.93,117.22 7.16,19.23 21.32,30.83 14.94,46.43 -7.78,19.04 -19.71,17.11 -20.47,51.15 -29.88,-2.47 -23.29,-17.27 -35.8,-40.91 -19.48,1.62 -47.33,13.38 -56.26,25.57 27.25,6.35 48.59,5.18 51.15,35.8 -51.34,11.96 -40.39,-4.67 -71.61,-25.57l-24.68 21.4c-0.43,-21.57 5.27,-34.65 9.33,-52.08 -51.55,-4.3 -56.01,-16.4 -66.48,-61.37 30.31,0 50.04,5.12 67.72,19.21 21.92,17.46 27.21,21.71 65.26,21.71 -2.48,-29.72 -19.36,-38.13 -25.58,-61.39 23.5,-35.07 24.15,-26.64 35.8,-76.71 0.72,1.02 1.63,1.48 1.89,3.23l5.18 10.16c2.76,6.64 2.86,7.48 5.15,15.3 3.44,11.74 5.81,22.23 8.25,32.68 23.15,-5.4 20.75,-7.54 25.59,-30.66 3.64,-17.34 5.09,-29.38 5.09,-51.17 -35.42,0 -73.31,0.56 -86.89,-20.66 -13.8,-21.59 5.06,-58.71 5.06,-91.86zm-71.6 92.07l0 -20.47 15.34 0c19.55,0 1.86,-1.56 15.35,5.12 -10.48,19.76 -1.14,15.35 -30.69,15.35zm3145.56 -209.7c2.72,11.7 18.7,55.71 25.43,61.51 9.03,7.76 6.82,4.97 32.5,8.42 34.08,4.58 29.02,-5.59 29.02,68.16 29.64,0.66 33.45,10.02 56.26,15.34 0,57.76 -10.23,50 -10.23,66.48 0,22.7 21.48,26.89 27.28,44.19 6,17.91 -11.93,35.27 -11.93,58.1 0,24.1 3.19,14.72 6.3,34.74 11.97,77.11 -189.84,132.67 -242.54,94.09 -14.22,-10.41 -17.41,-33.11 -26.19,-50.53 -8.21,-16.28 -26.27,-31.97 -31.09,-46.19 -10.15,-30 17.32,-17.24 17.32,-67.89 0,-22.46 -46.26,-39.17 -60.22,-57.5 -25.64,-33.61 13.3,-57.47 -42.07,-70.38 8.46,-31.68 62,-85.87 85.56,-108.79 42.93,-41.77 87.33,-49.75 144.6,-49.75zm153.44 132.98c18.1,4.21 26.32,12.73 40.92,20.45 -0.31,13.73 -11.16,62.87 -15.35,71.61l37 34.6c-8.23,31.43 -24.02,60.26 -26.76,93.26l-19.67 -16.22c-0.2,-49.58 41.75,-72.88 -16.14,-111.64 22.5,-46.89 19.31,-63.22 0,-92.06zm-3227.4 -15.35l0 0zm3171.14 -51.14c0,-19.56 -1.57,-1.86 5.11,-15.35 19.08,6.91 25.58,30.26 25.58,51.16 0,19.55 1.56,1.85 -5.12,15.33 -11.51,-8.43 -25.57,-31.57 -25.57,-51.14zm46.03 -20.46c72.34,38.28 105.62,124.48 86.96,204.58 -45.77,-33.52 10.2,-81.64 -32.19,-121.25 -10.38,-9.72 -16.11,-8.84 -27.92,-18.12 -18.24,-14.31 -26.02,-35.37 -26.85,-65.21zm-3068.84 10.23c39.53,9.21 82.37,19.98 92.06,56.26 -60.84,0 -84.39,7.69 -114.9,-12.97 -11.62,-7.84 8.61,-7.49 -12.96,-7.49 -19.76,0 -26.99,30.11 -30.7,46.03 -26.91,-14.25 -39.04,-18.04 -60.97,-41.32 -0.6,-0.63 -8.31,-9.77 -9.34,-11.11 -6.61,-8.57 -11.18,-16.12 -16.64,-24.29l51.15 0c2.59,-11.09 10.72,-31.27 15.34,-40.92l102.22 6.22c-6.62,23.98 -9.38,5.01 -15.26,29.59zm2956.31 -56.26c23.42,5.45 30.06,17.7 30.69,46.03 -29.99,-2.5 -17.38,-18.31 -30.69,-46.03zm-2905.16 -5.12c-35.74,0 -49.91,-5.11 -86.95,-5.11 0.46,-20.93 3.06,-22.24 10.23,-35.8 13.2,1.1 69.73,37.64 71.6,-46.03l20.47 0c13.34,55.76 -5.42,44.29 -15.35,86.94zm-721.18 -81.83c28.87,13.86 32.09,7.35 51.14,35.8 -20.31,9.75 -29.77,2.98 -35.8,25.58l-10.23 0c-11.85,-50.87 -5.11,-4.09 -5.11,-61.38zm792.78 -56.26c20.45,4.77 39.4,13.07 15.35,30.69 -18.75,-13.73 -4.65,-8.38 -15.35,-30.69zm-15.35 -71.59c13.44,-9 14.32,-11.8 30.7,-20.46 19.14,14.02 35.23,40.9 35.8,66.49 -37.13,-0.83 -53.36,-21.21 -66.5,-46.03zm-572.85 -25.58l0 0zm5.12 -5.11l-5.12 5.11 5.12 -5.11zm0 0c1.15,-13.81 2.4,-13.91 5.12,-25.57 -34.75,-23.28 -26.21,-44.85 -86.96,-30.69 11.92,-17.79 23.9,-33.35 35.81,-51.15 22.34,5.97 64.63,48.44 76.72,66.49 -11.75,22.23 -9.24,26.56 -30.69,40.92zm153.44 -158.55l0 0zm194.37 -173.88l0 0zm0 0c-8.51,31.84 -66.85,70.44 -95.17,88.96 -39.79,25.99 -59.33,58.22 -99.2,84.92 5.77,-21.61 28.98,-38.91 45.27,-51.9 18.83,-15.02 35.27,-34.13 51.91,-45.27 -4.12,-17.69 -10.84,-37.66 -21.71,-49.9 -18.79,-21.19 -33.22,-12.92 -39.67,-37.05 18.1,-4.22 26.33,-12.73 40.92,-20.47l27.66 49.09c38.5,44.58 61.51,-10.79 89.99,-18.38zm2035.66 -153.45l11 2.82 -11 -2.82zm0 0c-43.73,0 -219.53,-35.83 -322.05,-35.97 -23.92,-0.03 -47.86,0.24 -71.8,0.16l-143.22 5.1c-261.37,14.07 -668.62,110.13 -873.01,282.89 -93.54,79.06 -57.02,68.16 -160.02,131.52 -31.37,19.29 -113.15,119.46 -148.45,143.09 -10,-14.92 -14.78,-12.42 -19.23,-31.93 -2.11,-9.25 -5.72,-37.16 -6.35,-44.78 -20.94,4.87 -24.01,5.12 -51.14,5.12 10.59,-39.7 105.39,-148.83 136.82,-180.29l176.65 -145.57c32.77,-24.44 56.38,-44.38 91.57,-66.98 143.19,-91.93 430.13,-203.9 587.54,-215.46 150.1,-11.01 306.34,-20.34 450.83,19.07 66.28,18.08 317.64,87.33 351.86,134.03zm-1989.64 -81.83c-14.58,21.76 -34.53,36.6 -56.26,51.15 8.92,16.84 14.97,25.23 26.25,40.25 10.89,14.51 21.27,23.41 30.01,36.46 -15.55,21.22 -13.35,-1.04 -20.46,25.58l-10.22 0c-4.92,-18.41 -36.06,-88.14 -87.15,-51.43 -10.17,7.3 -12.03,10.86 -21.85,19.16l-160.62 146.27c-16.75,19.51 -25.77,30.69 -11.9,54.56 9.12,15.68 27.05,36.01 46.24,41.13 -13.27,18.1 -23.73,9.76 -30.69,35.8 -26.56,-7.08 -25.35,-23.94 -35.48,-41.24 -1.43,-2.42 -4.16,-22.5 -34.81,-19.2 -4.56,0.49 -12.86,3.85 -18.63,7.13 -34.95,19.9 -167.32,175.33 -166.82,206.74 0.23,13.9 31.65,34.86 56.27,71.6 -8.56,9.84 -16.51,15.86 -20.46,30.69 -14.55,-10.65 -40.81,-119.38 -93.87,-6.91 -6.51,13.81 -8.87,22.07 -15.19,35.95 -2.79,6.13 -5.86,12.47 -8.47,17.1l-10.34 15.24c1.76,-79.34 71.52,-178.71 108.85,-228.71 129.92,-173.99 283.52,-282.58 436.85,-412.18 17.07,-14.42 30.96,-26.33 47.6,-39.34 13.46,-10.51 33.95,-31.2 51.15,-35.8zm5.11 -5.1l-5.11 5.1 5.11 -5.1zm184.14 -5.12l0 0zm-179.02 0l-5.12 5.12 5.12 -5.12zm184.14 -5.12l-5.12 5.12 5.12 -5.12zm-179.02 0l-5.12 5.12 5.12 -5.12zm189.25 -5.11l-10.23 5.11 10.23 -5.11zm-179.02 0l-10.23 5.11 10.23 -5.11zm5.12 -5.12l-5.12 5.12 5.12 -5.12zm92.06 0l0 0zm-86.96 -5.11l-5.1 5.11 5.1 -5.11zm0 0c7.66,-11 0.76,-6.73 15.35,-10.23 -7.65,11.01 -0.74,6.73 -15.35,10.23zm20.47 -15.34l-5.12 5.11 5.12 -5.11zm0 0c7.64,-11 0.74,-6.74 15.34,-10.24 -7.65,11.01 -0.75,6.74 -15.34,10.24zm20.45 -15.35l-5.11 5.11 5.11 -5.11zm0 0c8.98,-13.4 2.6,-10.57 20.46,-15.34 -8.97,13.4 -2.59,10.57 -20.46,15.34zm20.46 -15.34c8.98,-13.41 2.59,-10.58 20.47,-15.34 -8.97,13.4 -2.59,10.56 -20.47,15.34zm444.99 -107.4l0 0zm0 0c-8.92,38.27 -39.26,31.02 -65.12,52.52 -14.7,12.22 -15.2,16.48 -32.98,28.39l-437.68 298.82c-15.13,15.63 -9.46,22 -37.07,24.31 37.54,-32.65 127.58,-119.04 163.68,-143.21 -7.53,-28.17 -35.07,-65.79 -66.5,-66.48l0 -10.24c23.4,-6.24 23.35,-22.83 56.26,-25.57 0,48.79 9.37,51.21 25.57,81.84 75.49,-1.69 235.82,-158.19 281.31,-168.79l-29.84 -81.18c-8.82,-7.01 -17.23,0.07 -26.41,-5.76 16.99,-4.54 12.12,-5.55 25.63,-15.27 10.26,-7.37 14.02,-9.34 25.51,-15.41l25.58 71.59c39.37,0 58.82,-17.82 92.06,-25.56zm81.83 -107.4l0 0zm184.13 -153.45l-10.23 5.12 10.23 -5.12zm0 0l0 0zm409.18 -51.14l1.53 1.52c-0.1,-0.1 -2.04,-1.01 -1.53,-1.52zm-66.49 342.67c17.03,-25.42 120.77,-75.85 156.87,-93.75 38.36,-19.03 133.54,-65.09 134.67,-115.94 -20,10.58 -41.1,20.57 -61.41,30.65 -22.93,11.37 -38.21,22.61 -63.06,34.11 -94.74,43.87 -164.82,78.81 -266.17,112.33 -51.36,16.98 -95.48,29.72 -149.32,45.03 -96.2,27.39 -193.51,66.52 -270.4,113.19l-147.59 87.69c-49.23,37.1 -34.02,9.02 -61.44,35.74 -53.27,51.93 -85.9,66.41 -132.67,107.72 -35.47,31.35 -59.5,67.69 -99.08,95.27 -21.45,14.94 -9.69,4.2 -22.79,23.23 -7.2,10.49 -12.26,15.68 -20.16,25.89 -17.17,22.23 -22.5,33.46 -37.79,59.37 -39.8,67.45 -28.62,-7.63 -70.16,124.21 -32.94,104.52 -96.91,146.58 -195.91,187.68 -55.38,22.99 -330.31,165.04 -330.31,63.53 0,-57.27 56.92,-100.09 83.41,-136.53 27.82,-38.28 5.86,-22.03 50.36,-57.03 18.56,-14.62 27.81,-33.29 54.1,-58.44 22,-21.06 35.92,-24.95 54.64,-52.76 12.93,-19.18 92.93,-92.19 112.57,-107.36 69.36,-53.59 139.98,-126.23 238.95,-200.9l65.99 -46.54c11.12,-6.68 19.62,-12.74 32.69,-18.45 52.06,-22.75 28.89,-26.6 96.98,-71.81 24.61,-16.33 42.98,-28.61 67.57,-44.94 24.75,-16.43 40.68,-30.67 65.41,-47.11 23.1,-15.37 41.41,-27.8 66.28,-41.14 23.79,-12.75 95.75,-65.97 170.4,-105.78 15.25,-8.14 19.54,-12.33 35.72,-20.54l219.99 -107.36c134.8,-68.5 416.71,-171.96 567.28,-205.02 33.25,-7.31 60.5,-13.29 94.51,-18.01 162,-22.55 112.39,-0.28 194.1,-0.28 19.11,79.82 -65.31,116.25 -104.56,166.53 -57.02,73.05 -147.19,134.92 -198.55,185.04 -39.03,38.1 -65.08,42.41 -147.13,42.11 -29.72,-0.1 -34.76,4.67 -61.06,5.42 -46.87,1.35 -77.93,4.95 -122.93,4.95zm-352.92 -286.41c-14.99,20.47 -40.65,18.77 -45.25,47.17 -4.77,29.52 18.77,42.76 24.79,65.35 68.86,0 228.92,-126.48 306.89,-132.98 -3.38,-40.48 -15.37,-68.38 -51.15,-76.72 22.87,-34.14 71.28,-45.45 117.64,-56.24 -15.28,22.81 -21.16,12.24 -71.61,46.02 1.13,50.69 21.58,58.06 40.92,86.94l-143.13 61.47c-162.58,73.14 -104.59,41.84 -273.32,140.95 -35.27,20.72 -101.09,59.34 -141.06,68.65 17.43,-32.92 105.26,-72.66 140.99,-94.29 14.28,-8.66 38.92,-24.59 53.38,-28.46 -8.89,-38.11 -35.8,-44.48 -35.8,-92.06 26.25,-6.12 45.39,-28.5 76.71,-35.8zm685.38 -194.34l0 0zm0 0c23.35,-34.87 25.58,-5.76 25.58,-66.49l20.45 46.03c-14.52,7.68 -28.47,16.37 -46.03,20.46zm-86.96 20.45c-0.71,-1.04 -1.51,-4.07 -1.79,-3.32l-23.77 -37.59c-29.55,6.88 -54.95,18.12 -86.96,25.57 19.75,-26.93 69.58,-30.7 117.65,-30.7 -12.33,25.69 -5.77,16.91 -5.13,46.04zm0 0l20.66 35.7c36.2,-8.38 79.3,-14.02 117.45,-20.36 37.2,-6.17 86.69,-17.45 122.76,-20.46 -1.19,-53.25 -24.09,-54.52 -61.39,-86.94l102.22 -6.21c-7.28,29.83 -18.57,18.54 -40.83,42.02 13.13,56.42 73.54,56.25 143.21,56.25l0 5.12c-50.71,0 -269.55,22.29 -311.7,30.99 -45.21,9.33 -85.23,25.87 -126.68,42.1 -32.83,12.85 -95.34,39.42 -134.48,39.42 15.14,-13.15 23.64,-12.89 40.84,-20.54l138.18 -61.28c-5.38,-11.22 -8.93,-20.13 -10.24,-35.81zm306.89 -148.33c37.39,0 48.03,8.67 76.72,15.36 -7.91,10.79 -14.48,13.03 -25.57,20.45 0,60.3 23.26,45.64 46.04,76.72 -71.99,0 -61.04,-6.84 -61.04,-6.77 0.05,0.46 0.37,-1.59 0.44,-1.86 0.18,-0.72 1.12,-3.79 1.41,-5.02 4.37,-18.74 5.22,-35.42 0.08,-55.09 -6.24,-23.89 -13.55,-27.26 -25.89,-35.51 -10.79,-7.23 -2.45,0.19 -12.19,-8.28zm0 0l-20.46 0c9.58,-6.05 -11.42,-5.74 10.24,-4.21 10.91,0.77 4.57,0.63 10.22,4.21zm-194.35 61.39l-3.69 -6.54c-0.5,-0.96 -2.82,-5.42 -3.47,-6.76 -3.8,-7.72 -4.88,-11.14 -8.19,-17.38 -110.38,0 -187.3,34.79 -276.2,81.82 23.4,100.46 46.64,67.68 117.64,51.14 -10.44,14.25 -72.95,30.31 -95.25,37.74l-99.11 33.87c10.74,-14.67 63.41,-38.73 71.61,-40.92 -3.17,-38.07 -8.98,-51.93 -25.58,-76.72 -36.4,3.03 -91.44,22.23 -124.73,33.83 -39.88,13.9 -73.43,30.89 -108.88,49.65 -108.31,57.35 -65.21,123.43 -5.15,102.44 24.38,-8.51 27.66,-21.53 59.75,-22.26l-199.48 97.18c3.84,-35.08 43.22,-10.27 61.81,-45.84 15.05,-28.77 -8.86,-64.06 -20.89,-82.02 -58.75,13.69 -100.2,44.62 -150.05,69.88 -21.91,11.11 -126.49,70.24 -131.27,88.68 -1.18,4.61 10.43,60.34 56.27,61.37 -15.52,13.5 -45.91,34.08 -66.49,35.79 -3.04,-36.57 -26.81,-80.01 -57.12,-72.65 -34.79,8.46 -230.8,131.84 -254.88,164.71 3.9,16.71 10.5,28.83 19.62,41.76 9.36,13.29 22.07,23.79 26.41,40.08 -10.3,15.37 -67.23,56.11 -86.94,61.37 13.1,-19.59 64.01,-45.57 14.36,-96.36 -36.31,-37.14 -57.9,13.16 -101.31,24.76 14.03,-20.97 126.69,-95.04 154.87,-116.2 64.27,-48.27 274.96,-177.5 337.86,-209.42 138.28,-70.12 210.14,-111.95 368.69,-178.56 35.22,-14.79 63.92,-25.52 99.38,-38.74 159.17,-59.26 377.53,-132.19 553.15,-132.19l0 5.1c-54.01,0 -95.29,29.42 -122.74,35.81l0 25.58zm-1411.68 -179.01c103,0 378.66,86.41 411.78,125.26 30.04,35.21 2.03,6.71 60.6,36.57 29.94,15.26 49.98,32.16 77.01,50.87 34.35,23.79 122.84,94.76 125.76,129.96l-98.67 49.68c-63.88,27.24 -136.91,73.62 -196.95,109.9 -17.48,10.56 -32.26,15.87 -50.1,26.62 -17.77,10.72 -28.68,19.58 -45.16,31.57 -68.81,50.1 -204.45,134.23 -280.07,180.24 -22.67,13.78 -76.74,46.29 -106.49,46.96 -16.28,-69.86 -40.91,-22.87 -40.91,-245.5 0,-89.87 23.79,-236.07 55.55,-322.91 6.32,-17.27 12.03,-22.92 16.05,-40.21 42.37,28.37 15.35,86.81 15.35,148.31l2.37 186.47c-3.2,18.93 -13.6,96.49 -17.72,105.06 69.21,-16.12 102.29,-134.19 102.29,-225.04 0,-34.15 0.23,-68.33 0.18,-102.46l-10.57 -204.24c0.2,-65.22 2.16,-44.67 -20.3,-87.11zm1340.07 2132.72c-69.99,0 -128.24,-5.73 -184.28,-45.88 -29.26,-20.96 -75.51,-69.87 -76.57,-117.78 78.59,0 307.87,-53.11 406.88,-68.78l150.62 -13.05c0,154.3 -163.13,245.49 -296.65,245.49zm-327.35 -173.89c53.55,229.86 390.35,254.1 548.15,128.73 66.31,-52.68 94.61,-120.55 116.77,-215.67 -18.82,-1.57 -14.59,-5.12 -40.92,-5.12 -63.19,0 -112.15,8.83 -168.78,10.22 -56.38,1.4 -107.63,16.11 -154.85,24.18 -54.19,9.26 -96.45,19.11 -150.64,28.37 -44.54,7.62 -103.91,18.63 -149.73,29.29zm828.59 -260.83l5.89 30.51 -26.35 0.17c1.76,-21.14 6.46,-21.31 20.46,-30.68zm35.81 5.11c-13.82,0 -14.11,-2.45 -25.58,-5.11 0,-33.14 3.38,-40.06 20.46,-56.27 47.75,11.13 35.8,61.38 5.12,61.38zm-15.34 148.31c57.07,0 107.4,-55.95 107.4,-92.05l0 -30.69c0,-52.18 -55.2,-117.64 -107.4,-117.64 -67.52,0 -86.22,17.13 -129.16,80.91 -11.07,16.46 -5.52,105.35 33.98,131.89 22.04,14.82 60.48,27.58 95.18,27.58zm-1074.11 -15.34l-20.45 0 -5.75 -20.25c12.67,-3.01 15.74,-4.97 31.32,-5.32 -3.18,13.65 -3.08,9.71 -5.12,25.57zm35.81 -15.34c-29.77,0 -24.69,-56.25 0,-56.25 55.7,0 40.13,56.25 0,56.25zm-143.22 51.15c0,66.76 107.08,116.09 175.69,78.49 52.97,-29.03 46.9,-31.65 55.56,-67.18 16.15,-66.19 18.04,-93.6 -43.32,-137.86 -24.79,-17.89 -54.19,-33.28 -87.28,-18.54 -11.04,4.91 -67.69,42.81 -73.56,49.43 -10.52,11.85 -27.09,73.82 -27.09,95.66zm2276.06 756.94c-15.01,-7.95 -36.11,-17.83 -40.9,-35.81 22.28,-5.19 28.85,-15.26 51.13,-20.46 -0.42,19.09 -6.39,39.82 -10.23,56.27zm-97.18 -117.64c0,32.62 4.56,77.33 28.42,99.44 15.51,14.38 55.06,43.76 78.99,43.76 44.25,0 -28.81,-51.15 66.49,-51.15 -1.28,-15.47 -4.11,-18.13 -6.58,-34.39 -4.08,-26.7 1.47,-4.11 1.47,-37.2 0,-40.53 -10.1,-56.33 -17.47,-89.93 -15.69,-71.61 6.81,-55.75 -8.11,-119.77 -80.85,-38.8 -143.21,110.33 -143.21,189.24zm92.08 -485.87c-6,-25.71 -14.95,-51.92 20.45,-61.37 9.53,6.98 22.05,22.61 25.57,35.79 -19.4,4.53 -31.25,15.69 -46.02,25.58zm-214.82 -184.11c0,66.58 104.24,252.41 245.55,184.15 15.6,-7.54 40.87,-11.45 40.87,-30.73 0,-20.39 -39.15,-21.56 -10.23,-81.84 -35.24,-2.92 -38.49,-10.59 -60.56,-26.37 -20.77,-14.85 -36.58,-18.93 -65.15,-26.94 -101.85,-28.52 -70.78,-46.58 -124.92,-59.19 -0.92,0.79 -2.48,0.65 -2.89,2.21 -1.31,4.97 -22.67,8.59 -22.67,38.71z"/>
 </g>
</svg>
