<?xml version="1.0" encoding="UTF-8"?>
<!DOCTYPE svg PUBLIC "-//W3C//DTD SVG 1.1//EN" "http://www.w3.org/Graphics/SVG/1.1/DTD/svg11.dtd">
<!-- Creator: CorelDRAW 2017 -->
<svg xmlns="http://www.w3.org/2000/svg" xml:space="preserve" width="50.7998mm" height="33.8666mm" version="1.1" style="shape-rendering:geometricPrecision; text-rendering:geometricPrecision; image-rendering:optimizeQuality; fill-rule:evenodd; clip-rule:evenodd"
viewBox="0 0 5079.98 3386.66"
 xmlns:xlink="http://www.w3.org/1999/xlink">
 <defs>
  <style type="text/css">
   <![CDATA[
    .str1 {stroke:#847059;stroke-width:83.21;stroke-linecap:round;stroke-linejoin:round;stroke-miterlimit:22.9256}
    .str0 {stroke:#847059;stroke-width:55.69;stroke-linecap:round;stroke-linejoin:round;stroke-miterlimit:22.9256}
    .fil0 {fill:none}
    .fil4 {fill:none;fill-rule:nonzero}
    .fil3 {fill:#373435}
    .fil2 {fill:#4B4B4D}
    .fil5 {fill:#FEFEFE}
    .fil1 {fill:#847059;fill-rule:nonzero}
    .fil6 {fill:#A45E4D;fill-rule:nonzero}
   ]]>
  </style>
 </defs>
 <g id="Capa_x0020_1">
  <metadata id="CorelCorpID_0Corel-Layer"/>
  <rect class="fil0" x="-0" width="5079.99" height="3386.66"/>
  <g id="_2189111158400">
   <g>
    <path class="fil0 str0" d="M1758.4 1632.55c-72.53,30.76 -123.42,102.7 -123.42,186.27 0,111.29 90.7,202.58 202.21,202.58 77.32,0 144.19,-43.91 178.24,-107.77 150.31,107.77 335.08,171.62 534.23,171.62 169.62,0 328.14,-46.33 464.39,-126.52 28.26,77.46 103.07,133.23 190.66,133.23 111.6,0 202.39,-90.65 202.39,-201.57 0,-80.83 -47.24,-150.44 -115.34,-183.03 110.69,-151.54 176.32,-338.37 176.32,-540.3 0,-157.8 -40.16,-306.19 -110.28,-436 88.42,-21.87 154.33,-101.97 154.33,-197.1 0,-111.37 -90.7,-201.7 -202.57,-201.7 -81.89,0 -152.87,49.29 -184.5,119.54 -157.43,-126.89 -357.31,-203.39 -575.4,-203.39 -180.02,0 -348.41,52.31 -490.09,142.04 -25.52,-82.48 -102.11,-142.77 -192.8,-142.77 -111.97,0 -202.3,90.83 -202.3,202.3 0,87.59 55.55,162.26 133.14,190.66 -104.52,149.12 -166.33,330.51 -166.33,526.42 0,169.98 46.51,328.96 127.12,465.49z"/>
   </g>
   <path class="fil1" d="M3529.75 1169.89l-78.88 0 0 0 -1.14 -45.28 -3.42 -44.69 -5.57 -44 -7.76 -43.27 -9.81 -42.5 -11.82 -41.72 -13.83 -40.8 -15.71 -39.94 -17.57 -38.89 -19.44 -37.93 -21.18 -36.79 -22.87 -35.65 -24.51 -34.51 -26.07 -33.18 -27.66 -31.91 -29.12 -30.53 -30.54 -29.17 -31.9 -27.57 -33.19 -26.11 -34.5 -24.51 -35.7 -22.87 -36.79 -21.18 -37.88 -19.44 -38.89 -17.58 -39.94 -15.7 -40.81 -13.83 -41.72 -11.82 -42.54 -9.82 -43.27 -7.75 -44 -5.57 -44.69 -3.43 -45.23 -1.14 0 -78.87 49.25 1.23 48.61 3.7 47.93 6.11 47.19 8.4 46.38 10.73 45.46 12.92 44.55 15.01 43.5 17.17 42.45 19.21 41.36 21.18 40.07 23.01 38.89 24.96 37.52 26.71 36.2 28.39 34.73 30.12 33.28 31.73 31.68 33.27 30.12 34.74 28.44 36.19 26.7 37.52 24.97 38.85 23 40.17 21.18 41.3 19.22 42.45 17.16 43.5 15.02 44.55 12.92 45.47 10.72 46.33 8.4 47.19 6.12 47.93 3.7 48.61 1.23 49.3 0 0zm-957.95 957.9l0 -78.87 0 0 45.23 -1.14 44.69 -3.42 44 -5.57 43.27 -7.76 42.54 -9.77 41.68 -11.87 40.85 -13.83 39.94 -15.7 38.89 -17.57 37.88 -19.45 36.79 -21.18 35.7 -22.87 34.5 -24.51 33.19 -26.11 31.9 -27.57 30.54 -29.16 29.12 -30.49 27.62 -31.96 26.11 -33.18 24.51 -34.51 22.87 -35.65 21.18 -36.83 19.44 -37.84 17.57 -38.94 15.71 -39.89 13.83 -40.81 11.82 -41.72 9.81 -42.54 7.76 -43.27 5.57 -44 3.42 -44.69 1.14 -45.23 78.88 0 -1.23 49.25 -3.7 48.61 -6.12 47.93 -8.4 47.2 -10.72 46.37 -12.92 45.46 -15.02 44.55 -17.16 43.46 -19.22 42.49 -21.18 41.31 -23 40.12 -24.97 38.85 -26.7 37.52 -28.39 36.19 -30.17 34.79 -31.68 33.22 -33.28 31.73 -34.73 30.12 -36.2 28.39 -37.52 26.71 -38.89 24.97 -40.07 23 -41.36 21.18 -42.45 19.22 -43.5 17.16 -44.5 15.02 -45.51 12.96 -46.38 10.68 -47.19 8.4 -47.93 6.11 -48.61 3.7 -49.25 1.23 0 0zm-957.95 -957.9l78.87 0 0 0 1.14 45.23 3.43 44.69 5.56 44 7.76 43.27 9.82 42.54 11.82 41.72 13.83 40.81 15.7 39.89 17.57 38.94 19.45 37.84 21.18 36.83 22.87 35.65 24.51 34.51 26.11 33.18 27.61 31.96 29.12 30.49 30.54 29.16 31.91 27.57 33.18 26.11 34.51 24.51 35.69 22.87 36.79 21.18 37.89 19.45 38.89 17.57 39.94 15.7 40.85 13.83 41.67 11.87 42.54 9.77 43.28 7.76 44 5.57 44.68 3.42 45.24 1.14 0 78.87 -49.25 -1.23 -48.62 -3.7 -47.92 -6.11 -47.2 -8.4 -46.37 -10.68 -45.51 -12.96 -44.51 -15.02 -43.5 -17.16 -42.45 -19.22 -41.35 -21.18 -40.08 -23 -38.89 -24.97 -37.52 -26.71 -36.19 -28.39 -34.74 -30.12 -33.27 -31.73 -31.68 -33.22 -30.17 -34.79 -28.39 -36.19 -26.71 -37.52 -24.96 -38.85 -23.01 -40.12 -21.18 -41.31 -19.22 -42.49 -17.16 -43.46 -15.01 -44.55 -12.92 -45.46 -10.73 -46.37 -8.4 -47.2 -6.11 -47.93 -3.7 -48.61 -1.23 -49.25 0 0zm957.95 -957.95l0 78.87 0 0 -45.24 1.14 -44.68 3.43 -44 5.57 -43.28 7.75 -42.54 9.82 -41.72 11.82 -40.8 13.83 -39.94 15.7 -38.89 17.58 -37.89 19.44 -36.79 21.18 -35.69 22.87 -34.51 24.51 -33.18 26.11 -31.91 27.57 -30.54 29.17 -29.12 30.53 -27.66 31.91 -26.06 33.18 -24.51 34.51 -22.87 35.65 -21.18 36.79 -19.45 37.93 -17.57 38.89 -15.7 39.94 -13.83 40.8 -11.82 41.72 -9.82 42.5 -7.76 43.27 -5.56 44 -3.43 44.69 -1.14 45.28 -78.87 0 1.23 -49.3 3.7 -48.61 6.11 -47.93 8.4 -47.19 10.73 -46.33 12.92 -45.47 15.01 -44.55 17.16 -43.5 19.22 -42.45 21.18 -41.3 23.01 -40.17 24.96 -38.85 26.71 -37.52 28.43 -36.19 30.13 -34.74 31.68 -33.27 33.27 -31.73 34.74 -30.12 36.19 -28.39 37.52 -26.71 38.89 -24.96 40.08 -23.01 41.35 -21.18 42.45 -19.21 43.5 -17.17 44.55 -15.01 45.47 -12.92 46.37 -10.73 47.2 -8.4 47.92 -6.11 48.62 -3.7 49.25 -1.23 0 0z"/>
   <path class="fil2" d="M3283.13 1965.02c0,-19.17 -20.04,-34.73 -44.78,-34.73 -24.74,0 -44.78,15.56 -44.78,34.73 0,19.18 20.04,34.74 44.78,34.74 24.74,0 44.78,-15.56 44.78,-34.74z"/>
   <path class="fil2" d="M3396.42 487.59c0,-19.17 -20.04,-34.74 -44.78,-34.74 -24.74,0 -44.78,15.57 -44.78,34.74 0,19.17 20.04,34.73 44.78,34.73 24.74,0 44.78,-15.56 44.78,-34.73z"/>
   <path class="fil2" d="M1826.14 1893.86c0,-19.17 -20.04,-34.73 -44.78,-34.73 -24.74,0 -44.77,15.56 -44.77,34.73 0,19.17 20.03,34.74 44.77,34.74 24.74,0 44.78,-15.57 44.78,-34.74z"/>
   <path class="fil2" d="M1878.04 443.45c0,-19.17 -20.04,-34.74 -44.78,-34.74 -24.74,0 -44.78,15.57 -44.78,34.74 0,19.17 20.04,34.73 44.78,34.73 24.74,0 44.78,-15.56 44.78,-34.73z"/>
   <path class="fil3" d="M3059.7 773.19c0,-35.38 -30.9,-64.09 -69.06,-64.09 -38.16,0 -69.06,28.71 -69.06,64.09 0,35.37 30.9,64.08 69.06,64.08 38.16,0 69.06,-28.71 69.06,-64.08z"/>
   <path class="fil2" d="M2073.63 616.9c0,-35.38 -30.9,-64.09 -69.06,-64.09 -38.16,0 -69.06,28.71 -69.06,64.09 0,35.37 30.9,64.09 69.06,64.09 38.16,0 69.06,-28.72 69.06,-64.09z"/>
   <path class="fil2" d="M3198.96 677.42c0,-35.37 -30.9,-64.08 -69.06,-64.08 -38.16,0 -69.06,28.71 -69.06,64.08 0,35.38 30.9,64.09 69.06,64.09 38.16,0 69.06,-28.71 69.06,-64.09z"/>
   <path class="fil3" d="M3035.46 1647.61c0,-35.38 -30.9,-64.09 -69.06,-64.09 -38.16,0 -69.06,28.71 -69.06,64.09 0,35.37 30.9,64.08 69.06,64.08 38.16,0 69.06,-28.71 69.06,-64.08z"/>
   <path class="fil3" d="M2187.74 1648.07c0,-35.38 -30.9,-64.09 -69.06,-64.09 -38.16,0 -69.06,28.71 -69.06,64.09 0,35.37 30.9,64.08 69.06,64.08 38.16,0 69.06,-28.71 69.06,-64.08z"/>
   <path class="fil3" d="M2162.04 760.13c0,-35.37 -30.9,-64.08 -69.06,-64.08 -38.16,0 -69.06,28.71 -69.06,64.08 0,35.38 30.9,64.09 69.06,64.09 38.16,0 69.06,-28.71 69.06,-64.09z"/>
   <path class="fil2" d="M2063.91 1747.57c0,-35.37 -30.91,-64.08 -69.07,-64.08 -38.15,0 -69.06,28.71 -69.06,64.08 0,35.38 30.91,64.09 69.06,64.09 38.16,0 69.07,-28.71 69.07,-64.09z"/>
   <path class="fil2" d="M3153.95 1759.71c0,-35.37 -30.9,-64.08 -69.06,-64.08 -38.16,0 -69.06,28.71 -69.06,64.08 0,35.38 30.9,64.09 69.06,64.09 38.16,0 69.06,-28.71 69.06,-64.09z"/>
   <path class="fil1" d="M2844.39 1207.27l-55.69 0 0 0 -0.36 -12.92 -0.92 -12.73 -1.59 -12.42 -2.24 -12.32 -2.78 -12.14 -3.38 -11.91 -3.88 -11.6 -4.47 -11.27 -5.03 -11.09 -5.52 -10.78 -6.02 -10.45 -6.49 -10.13 -7.02 -9.86 -7.4 -9.45 -7.9 -9.08 -8.26 -8.68 -8.67 -8.26 -9.08 -7.9 -9.45 -7.39 -9.86 -7.03 -10.13 -6.48 -10.46 -6.03 -10.77 -5.52 -11.09 -5.02 -11.28 -4.47 -11.59 -3.88 -11.91 -3.38 -12.14 -2.78 -12.33 -2.24 -12.41 -1.6 -12.74 -0.91 -12.92 -0.37 0 -55.68 15.66 0.36 15.56 1.19 15.34 1.96 15.06 2.69 14.79 3.43 14.47 4.11 14.24 4.79 13.93 5.48 13.55 6.11 13.15 6.8 12.82 7.31 12.42 8.03 11.96 8.49 11.55 9.04 11.09 9.63 10.68 10.09 10.09 10.68 9.63 11.09 9.04 11.55 8.49 11.96 8.03 12.41 7.3 12.83 6.8 13.14 6.12 13.56 5.48 13.92 4.79 14.24 4.11 14.47 3.42 14.79 2.69 15.06 1.97 15.34 1.18 15.57 0.37 15.65 0 0zm-305.78 305.78l0 -55.69 0 0 12.92 -0.36 12.74 -0.92 12.41 -1.59 12.33 -2.24 12.14 -2.79 11.91 -3.37 11.59 -3.88 11.28 -4.48 11.09 -5.02 10.77 -5.52 10.46 -6.03 10.13 -6.48 9.86 -7.03 9.45 -7.39 9.08 -7.9 8.67 -8.26 8.26 -8.67 7.9 -9.09 7.4 -9.44 7.02 -9.86 6.49 -10.14 6.02 -10.45 5.52 -10.77 5.03 -11.09 4.47 -11.28 3.88 -11.59 3.38 -11.91 2.78 -12.15 2.24 -12.32 1.59 -12.42 0.92 -12.73 0.36 -12.92 55.69 0 -0.37 15.66 -1.18 15.56 -1.97 15.34 -2.69 15.06 -3.42 14.79 -4.11 14.47 -4.79 14.24 -5.48 13.92 -6.12 13.56 -6.8 13.15 -7.3 12.82 -8.03 12.42 -8.49 11.96 -9.04 11.55 -9.63 11.09 -10.09 10.68 -10.68 10.09 -11.09 9.63 -11.55 9.03 -11.96 8.49 -12.42 8.04 -12.82 7.3 -13.15 6.8 -13.55 6.12 -13.93 5.48 -14.24 4.79 -14.47 4.11 -14.79 3.42 -15.06 2.69 -15.34 1.97 -15.56 1.18 -15.66 0.37 0 0zm-305.82 -305.78l55.69 0 0 0 0.36 12.92 0.92 12.73 1.59 12.42 2.24 12.32 2.79 12.15 3.37 11.86 3.93 11.6 4.47 11.32 5.02 11.09 5.48 10.77 6.07 10.45 6.48 10.18 6.99 9.77 7.44 9.49 7.85 9.09 8.31 8.67 8.67 8.31 9.04 7.85 9.44 7.39 9.86 7.03 10.14 6.48 10.45 6.03 10.82 5.52 11.09 5.02 11.27 4.48 11.6 3.88 11.91 3.37 12.14 2.79 12.33 2.24 12.41 1.59 12.74 0.92 12.91 0.36 0 55.69 -15.65 -0.37 -15.57 -1.18 -15.33 -1.97 -15.07 -2.69 -14.79 -3.42 -14.47 -4.11 -14.24 -4.79 -13.92 -5.48 -13.55 -6.12 -13.2 -6.8 -12.82 -7.3 -12.42 -8.04 -11.96 -8.49 -11.55 -9.03 -11.13 -9.68 -10.59 -10.04 -10.14 -10.68 -9.58 -11.09 -9.08 -11.51 -8.54 -12.05 -7.94 -12.37 -7.35 -12.82 -6.76 -13.15 -6.11 -13.56 -5.48 -13.87 -4.84 -14.24 -4.11 -14.52 -3.42 -14.79 -2.69 -15.06 -1.97 -15.34 -1.18 -15.56 -0.37 -15.66 0 0zm305.82 -305.77l0 55.68 0 0 -12.91 0.37 -12.74 0.91 -12.41 1.6 -12.33 2.24 -12.14 2.78 -11.91 3.38 -11.6 3.88 -11.27 4.47 -11.09 5.02 -10.82 5.52 -10.45 6.03 -10.14 6.48 -9.86 7.03 -9.44 7.39 -9.04 7.86 -8.67 8.3 -8.31 8.68 -7.85 9.08 -7.44 9.49 -6.99 9.77 -6.48 10.18 -6.07 10.45 -5.48 10.78 -5.02 11.09 -4.47 11.32 -3.93 11.59 -3.37 11.87 -2.79 12.14 -2.24 12.32 -1.59 12.42 -0.92 12.73 -0.36 12.92 -55.69 0 0.37 -15.65 1.18 -15.57 1.97 -15.34 2.69 -15.06 3.42 -14.79 4.11 -14.51 4.84 -14.24 5.48 -13.88 6.11 -13.56 6.76 -13.14 7.35 -12.83 7.94 -12.37 8.54 -12.05 9.08 -11.5 9.58 -11.09 10.14 -10.68 10.59 -10.05 11.13 -9.67 11.55 -9.04 11.96 -8.49 12.42 -8.03 12.82 -7.31 13.2 -6.8 13.55 -6.11 13.92 -5.48 14.24 -4.79 14.47 -4.11 14.79 -3.43 15.07 -2.69 15.33 -1.96 15.57 -1.19 15.65 -0.36 0 0z"/>
   <path class="fil1" d="M2711.75 1207.27l-39.9 0 0 0 -0.14 -6.89 -0.5 -6.71 -0.91 -6.71 -1.14 -6.62 -1.51 -6.39 -1.78 -6.3 -2.1 -6.21 -2.37 -6.07 -2.65 -5.88 -2.97 -5.71 -3.19 -5.61 -3.47 -5.44 -3.74 -5.15 -3.93 -5.12 -4.2 -4.79 -4.38 -4.61 -4.7 -4.43 -4.79 -4.24 -5.02 -3.88 -5.25 -3.74 -5.39 -3.47 -5.66 -3.2 -5.66 -2.97 -5.93 -2.64 -6.03 -2.38 -6.21 -2.1 -6.3 -1.78 -6.43 -1.5 -6.57 -1.14 -6.71 -0.92 -6.71 -0.5 -6.9 -0.14 0 -39.89 8.9 0.23 8.81 0.68 8.63 1.1 8.49 1.51 8.45 1.96 8.21 2.33 8.03 2.73 7.86 3.11 7.66 3.47 7.49 3.79 7.21 4.2 7.03 4.47 6.8 4.84 6.58 5.15 6.25 5.44 5.98 5.7 5.75 5.98 5.48 6.35 5.11 6.48 4.84 6.8 4.47 7.07 4.2 7.17 3.79 7.53 3.47 7.62 3.1 7.9 2.74 8.03 2.33 8.22 1.96 8.4 1.51 8.53 1.09 8.63 0.69 8.81 0.23 8.9 0 0zm-173.14 173.13l0 -39.89 0 0 6.9 -0.14 6.71 -0.5 6.71 -0.91 6.57 -1.14 6.43 -1.51 6.3 -1.78 6.21 -2.1 6.03 -2.37 5.93 -2.65 5.66 -2.97 5.66 -3.19 5.39 -3.47 5.25 -3.74 5.02 -3.88 4.79 -4.25 4.7 -4.43 4.38 -4.61 4.2 -4.79 3.93 -5.11 3.74 -5.16 3.47 -5.43 3.19 -5.62 2.97 -5.7 2.65 -5.89 2.37 -6.07 2.1 -6.21 1.78 -6.3 1.51 -6.39 1.14 -6.62 0.91 -6.71 0.5 -6.71 0.14 -6.89 39.9 0 -0.23 8.9 -0.69 8.81 -1.09 8.63 -1.51 8.53 -1.96 8.4 -2.33 8.22 -2.74 8.03 -3.1 7.9 -3.47 7.62 -3.79 7.53 -4.2 7.17 -4.47 7.08 -4.84 6.8 -5.11 6.48 -5.48 6.34 -5.75 5.98 -5.98 5.71 -6.25 5.43 -6.58 5.16 -6.8 4.84 -7.03 4.47 -7.21 4.2 -7.49 3.79 -7.66 3.47 -7.86 3.1 -8.03 2.74 -8.21 2.33 -8.45 1.96 -8.49 1.51 -8.63 1.09 -8.81 0.69 -8.9 0.22 0 0zm-173.13 -173.13l39.9 0 0 0 0.13 6.89 0.51 6.71 0.91 6.71 1.14 6.62 1.51 6.39 1.78 6.3 2.1 6.21 2.37 6.07 2.65 5.89 2.96 5.7 3.2 5.62 3.47 5.43 3.74 5.16 3.93 5.11 4.19 4.79 4.43 4.61 4.61 4.43 4.8 4.2 5.11 3.93 5.16 3.74 5.43 3.47 5.61 3.19 5.71 2.97 5.89 2.65 6.07 2.37 6.2 2.1 6.3 1.78 6.39 1.51 6.62 1.14 6.71 0.91 6.71 0.5 6.89 0.14 0 39.89 -8.9 -0.22 -8.81 -0.69 -8.62 -1.09 -8.54 -1.51 -8.4 -1.96 -8.21 -2.33 -8.04 -2.74 -7.89 -3.1 -7.63 -3.47 -7.53 -3.79 -7.16 -4.2 -7.08 -4.47 -6.8 -4.84 -6.48 -5.12 -6.35 -5.47 -5.98 -5.71 -5.7 -5.98 -5.48 -6.34 -5.11 -6.48 -4.84 -6.8 -4.47 -7.08 -4.2 -7.17 -3.79 -7.53 -3.47 -7.62 -3.1 -7.9 -2.74 -8.03 -2.33 -8.22 -1.96 -8.4 -1.51 -8.53 -1.09 -8.63 -0.69 -8.81 -0.23 -8.9 0 0zm173.13 -173.13l0 39.89 0 0 -6.89 0.14 -6.71 0.5 -6.71 0.92 -6.62 1.14 -6.39 1.5 -6.3 1.78 -6.2 2.1 -6.07 2.38 -5.89 2.64 -5.71 2.97 -5.61 3.2 -5.43 3.47 -5.16 3.74 -5.11 3.92 -4.8 4.2 -4.61 4.43 -4.43 4.61 -4.19 4.79 -3.93 5.12 -3.74 5.15 -3.47 5.44 -3.2 5.61 -2.96 5.71 -2.65 5.88 -2.37 6.07 -2.1 6.21 -1.78 6.3 -1.51 6.39 -1.14 6.62 -0.91 6.71 -0.51 6.71 -0.13 6.89 -39.9 0 0.23 -8.9 0.69 -8.81 1.09 -8.63 1.51 -8.53 1.96 -8.4 2.33 -8.22 2.74 -8.03 3.1 -7.9 3.47 -7.62 3.79 -7.53 4.2 -7.17 4.47 -7.07 4.84 -6.8 5.11 -6.48 5.48 -6.35 5.7 -5.98 5.98 -5.7 6.35 -5.48 6.48 -5.11 6.8 -4.84 7.08 -4.47 7.16 -4.2 7.53 -3.79 7.63 -3.47 7.89 -3.11 8.04 -2.73 8.21 -2.33 8.4 -1.96 8.54 -1.51 8.62 -1.1 8.81 -0.68 8.9 -0.23 0 0z"/>
   <path class="fil1" d="M2450.93 1213.11l-7.39 -6.57 6.57 -7.39 92.66 -5.62 0.82 13.97 -92.66 5.61zm-0.82 -13.96l0.82 13.96c-3.83,0.19 -7.21,-2.73 -7.39,-6.57 -0.19,-3.83 2.73,-7.21 6.57,-7.39zm93.07 101.19l0 0 -4.93 -0.09 -4.84 -0.41 -4.79 -0.59 -4.7 -0.78 -4.66 -1.05 -4.61 -1.23 -4.47 -1.46 -4.39 -1.65 -4.29 -1.82 -4.15 -2.06 -4.06 -2.19 -4.02 -2.42 -3.83 -2.64 -3.65 -2.74 -3.61 -2.92 -3.42 -3.11 -3.29 -3.24 -3.15 -3.38 -2.92 -3.51 -2.83 -3.61 -2.69 -3.88 -2.42 -3.88 -2.33 -4.01 -2.1 -4.2 -1.92 -4.29 -1.73 -4.43 -1.51 -4.47 -1.28 -4.61 -1.09 -4.66 -0.87 -4.7 -0.68 -4.84 -0.41 -4.93 13.96 -0.82 0.32 4.2 0.6 4.11 0.77 4.15 0.91 4.02 1.1 3.97 1.32 3.83 1.46 3.79 1.65 3.65 1.82 3.56 1.97 3.47 2.14 3.43 2.24 3.24 2.46 3.15 2.56 3.05 2.69 2.93 2.83 2.78 2.97 2.65 3.06 2.55 3.19 2.38 3.29 2.19 3.38 2.05 3.51 1.92 3.61 1.78 3.65 1.55 3.83 1.46 3.84 1.28 3.88 1.05 4.01 0.87 4.07 0.68 4.15 0.5 4.2 0.32 4.2 0.09 0 0 0 13.97zm92.84 -106.81l6.98 6.99 -0.13 5.15 -0.41 5.03 -0.6 4.97 -0.86 4.98 -1.15 4.79 -1.32 4.75 -1.6 4.65 -1.78 4.57 -2.05 4.42 -2.19 4.25 -2.38 4.2 -2.55 4.01 -2.83 3.98 -3.01 3.78 -3.11 3.56 -3.28 3.47 -3.47 3.29 -3.56 3.1 -3.79 3.02 -3.97 2.83 -4.02 2.55 -4.2 2.38 -4.24 2.19 -4.43 2.05 -4.57 1.78 -4.65 1.6 -4.75 1.32 -4.79 1.14 -4.98 0.87 -4.97 0.59 -5.02 0.42 -5.16 0.13 0 -13.97 4.43 -0.13 4.38 -0.32 4.33 -0.5 4.16 -0.78 4.15 -0.96 4.11 -1.14 3.92 -1.32 3.93 -1.6 3.79 -1.69 3.7 -1.92 3.65 -2.1 3.47 -2.19 3.33 -2.37 3.24 -2.56 3.1 -2.74 3.02 -2.83 2.83 -3.01 2.73 -3.1 2.56 -3.24 2.37 -3.33 2.2 -3.47 2.1 -3.66 1.91 -3.69 1.69 -3.79 1.6 -3.93 1.32 -3.92 1.14 -4.11 0.96 -4.15 0.78 -4.16 0.5 -4.33 0.32 -4.39 0.14 -4.42 6.98 6.98 0 -13.97zm6.98 6.99l-13.96 0c0,-3.84 3.15,-6.99 6.98,-6.99 3.83,0 6.98,3.15 6.98,6.99zm-99.82 6.98l-0.41 -13.97 0.41 0 92.84 0 0 13.97 -92.84 0zm0 -13.97l0 13.97c-3.84,0 -6.99,-3.15 -6.99,-6.98 0,-3.84 3.15,-6.99 6.99,-6.99z"/>
   <g id="_1823377787360">
    <g>
     <path class="fil4 str1" d="M1477.05 1195.27l1.87 -0.55 -0.55 -0.14 1.19 0 514.92 -138.12c-53.95,-362.24 427.01,36.38 3.06,138.35 426.09,101.56 -55.92,501.14 -1.87,138.58l-514.79 -138.12 -3.83 0z"/>
    </g>
    <path id="_1" class="fil5" d="M1477.05 1195.27l1.87 -0.55 -0.55 -0.14 1.19 0 514.92 -138.12c-53.95,-362.24 427.01,36.38 3.06,138.35 426.09,101.56 -55.92,501.14 -1.87,138.58l-514.79 -138.12 -3.83 0z"/>
   </g>
   <path class="fil6" d="M1197.2 2669.11c-8.88,5.64 -18.35,9.88 -28.49,12.79 -10.1,2.86 -20.87,4.29 -32.39,4.29 -14.94,0 -28.45,-2.36 -40.48,-7.03 -12.03,-4.67 -22.59,-11.69 -31.72,-21.08 -9.3,-9.59 -16.29,-20.61 -20.96,-32.94 -4.67,-12.37 -7.02,-26.04 -7.02,-41.02 0,-14.68 2.35,-28.23 7.07,-40.59 4.75,-12.37 11.69,-23.39 20.91,-33.07 9.21,-9.38 19.81,-16.41 31.85,-21.16 12.03,-4.72 25.49,-7.07 40.35,-7.07 11.36,0 22.08,1.47 32.22,4.37 10.14,2.95 19.69,7.28 28.66,13.05l0 49.73c-7.24,-9.43 -15.49,-16.54 -24.7,-21.33 -9.26,-4.8 -19.48,-7.2 -30.63,-7.2 -18.18,0 -32.57,5.68 -43.25,17 -10.69,11.36 -16.03,26.71 -16.03,46.1 0,19.65 5.3,35.17 15.94,46.53 10.65,11.41 25.08,17.09 43.34,17.09 11.23,0 21.5,-2.36 30.75,-7.11 9.22,-4.72 17.42,-11.79 24.58,-21.17l0 49.82zm162.14 -15.44c-6.73,10.68 -15.27,18.8 -25.71,24.4 -10.39,5.59 -22.29,8.37 -35.67,8.37 -21.88,0 -38.96,-7.11 -51.25,-21.33 -12.28,-14.18 -18.43,-33.83 -18.43,-58.9 0,-24.78 6.02,-44.43 18.01,-58.9 11.99,-14.43 28.32,-21.66 48.93,-21.66 20.91,0 37.19,7.74 48.97,23.22 11.74,15.52 17.63,37.06 17.63,64.66l0 2.48 -94.91 0 0 3.07c0,10.9 2.86,19.73 8.58,26.47 5.68,6.73 13.13,10.09 22.21,10.09 5.26,0 10.14,-1.38 14.69,-4.2 4.5,-2.78 8.79,-7.11 12.79,-12.96l34.16 15.19zm-92.43 -62.4l57.05 0c-0.97,-12.28 -3.96,-21.75 -8.92,-28.4 -4.97,-6.65 -11.49,-9.97 -19.52,-9.97 -8.17,0 -14.73,3.32 -19.69,9.97 -4.97,6.65 -7.96,16.12 -8.92,28.4zm212.29 90.88l0 -89.87c0,-11.91 -1.3,-20.11 -3.96,-24.57 -2.65,-4.5 -7.19,-6.73 -13.71,-6.73 -9.8,0 -17,4.16 -21.63,12.49 -4.58,8.38 -6.9,21.38 -6.9,39.05l0 69.63 -41.39 0 0 -152.46 37.35 0c-0.16,6.05 -0.54,12.2 -1.09,18.34 -0.59,6.17 -1.35,12.49 -2.36,19.01 6.19,-13.34 13.47,-23.22 21.8,-29.7 8.37,-6.43 18.13,-9.67 29.32,-9.67 14.35,0 25.25,4.37 32.74,13.12 7.49,8.75 11.23,21.54 11.23,38.32l0 103.04 -41.4 0zm94.41 0l0 -123.19 -26 0 0 -29.27 26 0 0 -43.17 39.89 0 0 43.17 26 0 0 29.27 -26 0 0 123.19 -39.89 0zm202.16 -105.48c-4.46,-3.15 -9.04,-5.47 -13.8,-7.02 -4.79,-1.56 -9.76,-2.36 -14.93,-2.36 -12.33,0 -21.5,4.21 -27.44,12.62 -5.97,8.42 -8.96,21.38 -8.96,38.88l0 63.36 -41.4 0 0 -152.46 37.87 0c-0.17,5.34 -0.55,10.98 -1.18,16.91 -0.63,5.88 -1.47,12.7 -2.52,20.44 7.32,-13.17 15.94,-23.01 25.87,-29.57 9.97,-6.52 21.25,-9.8 33.91,-9.8 2.32,0 4.5,0.08 6.61,0.25 2.1,0.17 4.08,0.42 5.97,0.76l0 47.99zm85.87 77.46c7.62,0 13.76,-4.33 18.31,-13 4.58,-8.67 6.85,-20.36 6.85,-35.17 0,-14.86 -2.27,-26.6 -6.85,-35.26 -4.55,-8.67 -10.69,-13 -18.31,-13 -7.74,0 -13.92,4.33 -18.47,13 -4.58,8.66 -6.85,20.4 -6.85,35.26 0,14.89 2.27,26.63 6.77,35.25 4.54,8.63 10.73,12.92 18.55,12.92zm0 32.06c-20.99,0 -37.57,-7.2 -49.73,-21.58 -12.16,-14.35 -18.26,-33.92 -18.26,-58.65 0,-24.62 6.15,-44.18 18.39,-58.65 12.24,-14.43 28.78,-21.66 49.6,-21.66 20.62,0 37.07,7.23 49.4,21.75 12.28,14.46 18.43,34.03 18.43,58.56 0,24.57 -6.15,44.09 -18.39,58.56 -12.24,14.43 -28.74,21.67 -49.44,21.67zm322.79 -17.08c-8.88,5.64 -18.35,9.88 -28.49,12.79 -10.1,2.86 -20.87,4.29 -32.39,4.29 -14.94,0 -28.45,-2.36 -40.48,-7.03 -12.03,-4.67 -22.58,-11.69 -31.71,-21.08 -9.3,-9.59 -16.29,-20.61 -20.96,-32.94 -4.67,-12.37 -7.02,-26.04 -7.02,-41.02 0,-14.68 2.35,-28.23 7.07,-40.59 4.75,-12.37 11.69,-23.39 20.91,-33.07 9.21,-9.38 19.8,-16.41 31.84,-21.16 12.03,-4.72 25.49,-7.07 40.35,-7.07 11.36,0 22.08,1.47 32.22,4.37 10.14,2.95 19.69,7.28 28.66,13.05l0 49.73c-7.24,-9.43 -15.49,-16.54 -24.7,-21.33 -9.26,-4.8 -19.48,-7.2 -30.63,-7.2 -18.18,0 -32.57,5.68 -43.25,17 -10.69,11.36 -16.03,26.71 -16.03,46.1 0,19.65 5.3,35.17 15.94,46.53 10.65,11.41 25.08,17.09 43.34,17.09 11.23,0 21.5,-2.36 30.75,-7.11 9.22,-4.72 17.42,-11.79 24.58,-21.17l0 49.82zm82.33 -139.42l0 95.2c0,9.17 1.98,16.11 5.89,20.74 3.91,4.67 9.76,6.98 17.58,6.98 7.75,0 13.55,-2.31 17.42,-6.98 3.87,-4.63 5.81,-11.57 5.81,-20.74l0 -95.2 41.65 0 0 94.44c0,19.61 -5.68,34.88 -17.04,45.73 -11.32,10.9 -27.26,16.33 -47.84,16.33 -20.57,0 -36.56,-5.43 -48,-16.33 -11.4,-10.85 -17.12,-26.12 -17.12,-45.73l0 -94.44 41.65 0zm140.86 152.46l0 -198.66 40.39 0 0 198.66 -40.39 0zm107.49 0l0 -123.19 -26 0 0 -29.27 26 0 0 -43.17 39.89 0 0 43.17 26 0 0 29.27 -26 0 0 123.19 -39.89 0zm134.51 -152.46l0 95.2c0,9.17 1.98,16.11 5.89,20.74 3.91,4.67 9.76,6.98 17.58,6.98 7.75,0 13.55,-2.31 17.42,-6.98 3.87,-4.63 5.81,-11.57 5.81,-20.74l0 -95.2 41.64 0 0 94.44c0,19.61 -5.68,34.88 -17.03,45.73 -11.32,10.9 -27.26,16.33 -47.84,16.33 -20.57,0 -36.56,-5.43 -48,-16.33 -11.4,-10.85 -17.12,-26.12 -17.12,-45.73l0 -94.44 41.65 0zm236.02 46.98c-4.46,-3.15 -9.04,-5.47 -13.8,-7.02 -4.79,-1.56 -9.76,-2.36 -14.93,-2.36 -12.33,0 -21.5,4.21 -27.44,12.62 -5.97,8.42 -8.96,21.38 -8.96,38.88l0 63.36 -41.4 0 0 -152.46 37.87 0c-0.17,5.34 -0.55,10.98 -1.18,16.91 -0.63,5.88 -1.47,12.7 -2.52,20.44 7.32,-13.17 15.94,-23.01 25.87,-29.57 9.97,-6.52 21.25,-9.8 33.91,-9.8 2.32,0 4.5,0.08 6.61,0.25 2.1,0.17 4.08,0.42 5.97,0.76l0 47.99zm121.64 105.48c0.08,-5.18 0.37,-10.69 0.88,-16.45 0.46,-5.81 1.18,-12.03 2.06,-18.72 -6.65,12.83 -14.18,22.59 -22.63,29.24 -8.46,6.65 -17.51,9.97 -27.14,9.97 -16.58,0 -30.04,-7.41 -40.39,-22.17 -10.35,-14.81 -15.53,-34.38 -15.53,-58.7 0,-23.09 5.3,-41.9 15.95,-56.41 10.64,-14.51 24.27,-21.75 40.85,-21.75 10.1,0 19.15,3.03 27.18,9.09 8,6.06 15.23,15.36 21.71,27.97 -0.71,-5.51 -1.35,-11.19 -1.89,-16.95 -0.55,-5.8 -0.89,-11.65 -1.05,-17.58l38.11 0 0 152.46 -38.11 0zm-30.72 -32.56c8.37,0 15.15,-4 20.37,-12.04 5.21,-7.99 7.82,-18.64 7.82,-31.97 0,-13.21 -2.61,-23.82 -7.82,-31.81 -5.22,-8.04 -12,-12.03 -20.37,-12.03 -8.5,0 -15.31,3.99 -20.53,12.03 -5.22,7.99 -7.83,18.6 -7.83,31.81 0,13.33 2.61,23.98 7.83,31.97 5.22,8.04 12.03,12.04 20.53,12.04zm120.08 32.56l0 -198.66 40.39 0 0 198.66 -40.39 0zm223.87 -110.32l23.73 0c18.94,0 31.94,-1.97 39.05,-5.93 7.1,-3.91 10.67,-10.73 10.67,-20.31 0,-9.93 -3.28,-16.83 -9.88,-20.7 -6.56,-3.87 -19.85,-5.81 -39.84,-5.81l-23.73 0 0 52.75zm0 110.32l-44.43 0 0 -195.63 84.82 0c26.37,0 46.11,4.71 59.15,14.09 13.08,9.43 19.6,23.73 19.6,42.96 0,16.53 -5.04,29.78 -15.14,39.75 -10.1,10.01 -24.74,16.24 -43.87,18.81l79.21 80.02 -58.06 0 -72.95 -78.76 -8.33 0 0 78.76zm220.87 -28.02c7.62,0 13.76,-4.33 18.31,-13 4.58,-8.67 6.85,-20.36 6.85,-35.17 0,-14.86 -2.27,-26.6 -6.85,-35.26 -4.55,-8.67 -10.69,-13 -18.31,-13 -7.74,0 -13.92,4.33 -18.47,13 -4.58,8.66 -6.85,20.4 -6.85,35.26 0,14.89 2.27,26.63 6.77,35.25 4.54,8.63 10.73,12.92 18.55,12.92zm0 32.06c-20.99,0 -37.57,-7.2 -49.73,-21.58 -12.16,-14.35 -18.26,-33.92 -18.26,-58.65 0,-24.62 6.15,-44.18 18.39,-58.65 12.24,-14.43 28.78,-21.66 49.6,-21.66 20.62,0 37.07,7.23 49.4,21.75 12.28,14.46 18.43,34.03 18.43,58.56 0,24.57 -6.15,44.09 -18.39,58.56 -12.24,14.43 -28.74,21.67 -49.44,21.67zm98.12 -4.04l0 -152.46 38.12 0c-0.17,5.76 -0.55,11.69 -1.18,17.79 -0.63,6.14 -1.47,12.62 -2.52,19.56 6.39,-13.34 14.17,-23.22 23.3,-29.7 9.09,-6.43 19.74,-9.67 31.9,-9.67 11.1,0 20.57,2.73 28.4,8.16 7.86,5.43 13.37,13.08 16.57,22.92 5.93,-10.43 13.05,-18.21 21.42,-23.38 8.33,-5.14 17.92,-7.7 28.78,-7.7 15.44,0 27.22,4.37 35.3,13.12 8.12,8.75 12.15,21.54 12.15,38.32l0 103.04 -41.65 0 0 -89.87c0,-11.65 -1.55,-19.82 -4.67,-24.4 -3.15,-4.59 -8.5,-6.9 -16.03,-6.9 -11.36,0 -19.65,4.12 -24.91,12.37 -5.25,8.29 -7.91,21.33 -7.91,39.17l0 69.63 -41.9 0 0 -89.87c0,-11.74 -1.56,-19.9 -4.63,-24.44 -3.07,-4.59 -8.37,-6.86 -15.82,-6.86 -11.36,0 -19.65,4.12 -24.91,12.37 -5.25,8.29 -7.91,21.33 -7.91,39.17l0 69.63 -41.9 0zm366.25 0c0.08,-5.18 0.37,-10.69 0.88,-16.45 0.46,-5.81 1.18,-12.03 2.06,-18.72 -6.65,12.83 -14.18,22.59 -22.63,29.24 -8.46,6.65 -17.51,9.97 -27.14,9.97 -16.58,0 -30.04,-7.41 -40.39,-22.17 -10.35,-14.81 -15.53,-34.38 -15.53,-58.7 0,-23.09 5.3,-41.9 15.95,-56.41 10.64,-14.51 24.27,-21.75 40.85,-21.75 10.1,0 19.15,3.03 27.18,9.09 8,6.06 15.23,15.36 21.71,27.97 -0.71,-5.51 -1.35,-11.19 -1.89,-16.95 -0.55,-5.8 -0.89,-11.65 -1.05,-17.58l38.1 0 0 152.46 -38.1 0zm-30.72 -32.56c8.37,0 15.15,-4 20.37,-12.04 5.21,-7.99 7.82,-18.64 7.82,-31.97 0,-13.21 -2.61,-23.82 -7.82,-31.81 -5.22,-8.04 -12,-12.03 -20.37,-12.03 -8.5,0 -15.31,3.99 -20.53,12.03 -5.22,7.99 -7.83,18.6 -7.83,31.81 0,13.33 2.61,23.98 7.83,31.97 5.22,8.04 12.03,12.04 20.53,12.04z"/>
   <path class="fil1" d="M1589.2 3028.34c0,2.18 -0.76,3.16 -2.29,3.16 -30.37,3.92 -61.19,6.64 -92.43,8.38 -2.18,0 -3.27,-0.87 -3.27,-2.61 -0.76,-14.92 3.16,-28.31 11.87,-40.17 8.71,-11.87 19.49,-18.62 32.55,-20.15 27.66,-3.59 45.51,13.5 53.57,51.39zm79.7 46.6c0,-4.24 -0.55,-10.12 -1.53,-17.53 -5.77,-46.81 -18.72,-82.85 -38.97,-108.11 -25.26,-31.58 -60.76,-44.53 -106.49,-38.98 -41.48,4.9 -72.94,25.15 -94.5,60.64 -19.49,32.12 -26.89,68.38 -21.99,108.77 5.33,43.12 19.16,78.06 41.48,104.62 25.69,30.38 60.1,45.62 103,45.62 40.82,0 74.58,-8.38 101.14,-24.93 1.09,-0.44 1.63,-1.52 1.63,-3.16 -10.45,-29.39 -18.72,-51.82 -24.93,-67.27 -0.76,-1.96 -2.07,-2.51 -3.81,-1.64 -14.48,10.24 -31.03,16.55 -49.76,19.16 -18.94,3.15 -35.92,-0.22 -51.06,-10.23 -16.77,-10.89 -24.93,-26.46 -24.5,-46.92 0.66,-1.42 1.64,-2.18 3.16,-2.18 64.46,-5.55 119.33,-10.67 164.62,-15.35 1.64,0 2.51,-0.87 2.51,-2.51zm249.1 67.61c0,-34.18 -27,-63.25 -81,-87.1 -23.62,-10.99 -36.14,-17.09 -37.67,-18.18 -9.91,-5.55 -14.91,-15.46 -14.91,-29.94 0,-8.49 4.46,-15.79 13.39,-21.67 8.27,-5.55 17.31,-8.38 27.11,-8.38 12.52,0 28.31,5.01 47.14,15.02 1.09,1.09 2.4,0.88 3.92,-0.65 3.38,-6.53 8.27,-16.22 14.58,-28.96 6.64,-12.85 11.54,-22.32 14.7,-28.74 0,-2.18 -0.22,-3.38 -0.65,-3.81 -25.69,-16.23 -52.25,-24.28 -79.69,-24.28 -30.49,0 -56.51,8.82 -78.17,26.45 -22.98,18.51 -34.41,42.36 -34.41,71.54 0,42.46 17.2,71.2 51.61,86.12 3.05,1.41 9.69,3.81 20.14,6.97 10.56,3.37 18.84,6.42 24.5,8.92 19.38,8.5 29.07,19.06 29.07,31.58 0,20.46 -14.05,30.58 -42.14,30.58 -15.24,0 -38.76,-8.49 -70.44,-25.47 -1.96,-0.87 -3.16,-0.65 -3.81,0.66 -2.62,7.17 -6.32,17.3 -11.22,30.26 -5.33,13.61 -9.14,23.62 -11.43,30.05 -0.65,0.54 -0.33,1.63 0.87,3.15 23.19,16.77 53.03,25.15 89.39,25.15 32.12,0 60.54,-6.96 85.47,-21.01 29.06,-16.77 43.65,-39.52 43.65,-68.26z"/>
   <path class="fil1" d="M2077.05 3233.13l0 -384.11 -140.45 0 0 -90.8 400.45 0 0 90.8 -140.45 0 0 384.11 -119.55 0zm646.28 -178.87c0,58.9 -16.11,105.27 -48.34,139.13 -32.34,33.86 -77.85,50.85 -136.86,50.85 -58.57,0 -104.09,-16.99 -136.53,-50.85 -32.44,-33.86 -48.66,-80.23 -48.66,-139.13 0,-59.45 16.22,-106.05 48.66,-139.69 32.44,-33.65 77.96,-50.52 136.53,-50.52 58.79,0 104.3,16.98 136.64,50.84 32.34,33.86 48.56,80.35 48.56,139.37zm-114.32 0.65c0,-21.12 -1.74,-38.76 -5.34,-52.81 -3.48,-14.15 -8.38,-25.36 -14.59,-33.86 -6.53,-8.92 -14.04,-15.13 -22.42,-18.61 -8.28,-3.49 -17.86,-5.23 -28.53,-5.23 -10.02,0 -19.16,1.52 -27.22,4.57 -8.16,3.05 -15.68,8.93 -22.54,17.64 -6.31,8.27 -11.54,19.6 -15.35,33.97 -3.81,14.48 -5.77,32.55 -5.77,54.33 0,21.88 1.85,39.52 5.45,52.91 3.59,13.5 8.38,24.17 14.15,32.23 5.99,8.28 13.39,14.25 22.43,18.06 8.93,3.81 18.94,5.77 29.83,5.77 8.93,0 18.07,-1.96 27.44,-5.77 9.25,-3.81 16.66,-9.46 22.21,-17.08 6.64,-9.15 11.65,-20.03 15.13,-32.88 3.38,-12.85 5.12,-30.59 5.12,-53.24zm508.99 178.22l-111.7 0 0 -177.46c0,-14.48 -0.54,-28.85 -1.74,-43.22 -1.2,-14.37 -3.38,-24.94 -6.64,-31.69 -3.81,-8.05 -9.37,-13.93 -16.66,-17.42 -7.3,-3.48 -16.99,-5.22 -29.18,-5.22 -9.26,0 -18.51,1.74 -27.98,5.11 -9.37,3.38 -19.49,8.82 -30.16,16.23l0 253.67 -111.71 0 0 -357.98 111.71 0 0 39.63c18.29,-15.56 36.15,-27.65 53.46,-36.36 17.31,-8.71 36.58,-13.07 57.59,-13.07 36.59,0 64.56,11.55 83.94,34.63 19.38,22.97 29.07,56.4 29.07,100.16l0 232.99zm279.71 -93.52l0 -75.01c-18.73,1.96 -33.97,3.59 -45.51,5.01 -11.65,1.3 -22.98,4.03 -34.19,8.16 -9.69,3.38 -17.2,8.6 -22.65,15.46 -5.33,6.97 -8.05,16.23 -8.05,27.77 0,16.87 4.46,28.41 13.39,34.72 9.03,6.31 22.21,9.47 39.74,9.47 9.69,0 19.6,-2.29 29.72,-6.75 10.13,-4.46 19.27,-10.77 27.55,-18.83zm0 55.52c-7.62,6.43 -14.48,12.2 -20.47,17.31 -6.1,5.01 -14.16,10.13 -24.39,15.25 -9.91,4.9 -19.6,8.71 -29.07,11.32 -9.36,2.61 -22.54,3.92 -39.52,3.92 -31.58,0 -57.82,-10.67 -78.61,-32.01 -20.91,-21.34 -31.36,-48.12 -31.36,-80.56 0,-26.67 5.34,-48.23 15.9,-64.56 10.56,-16.44 25.8,-29.51 45.73,-39.09 20.14,-9.8 44.2,-16.66 72.18,-20.47 27.98,-3.81 58.03,-6.75 90.26,-8.93l0 -1.96c0,-19.7 -7.3,-33.42 -21.78,-40.93 -14.48,-7.52 -36.25,-11.33 -65.21,-11.33 -13.18,0 -28.53,2.4 -46.06,7.19 -17.53,4.79 -34.73,10.89 -51.5,18.29l-9.47 0 0 -86.67c11.11,-3.15 28.85,-6.96 53.57,-11.32 24.6,-4.35 49.54,-6.53 74.58,-6.53 61.62,0 106.48,10.23 134.68,30.81 28.2,20.58 42.24,51.93 42.24,94.18l0 244.09 -111.7 0 0 -38zm305.5 38l-111.71 0 0 -496.47 111.71 0 0 496.47z"/>
   <g>
    <g>
     <path class="fil0 str1" d="M3617.2 1201.48l-1.82 -0.55 0.55 -0.09 -1.24 0 -514.87 -138.13c53.91,-362.28 -427.01,36.34 -3.06,138.31 -426.14,101.56 55.92,501.18 1.87,138.58l514.79 -138.12 3.78 0z"/>
    </g>
    <path id="_1_0" class="fil5" d="M3617.2 1201.48l-1.82 -0.55 0.55 -0.09 -1.24 0 -514.87 -138.13c53.91,-362.28 -427.01,36.34 -3.06,138.31 -426.14,101.56 55.92,501.18 1.87,138.58l514.79 -138.12 3.78 0z"/>
   </g>
   <g>
    <g>
     <path class="fil0 str1" d="M2539.62 2323.75l-0.55 -1.87 -0.14 0.54 0 -1.18 -138.07 -514.92c-362.29,53.95 36.33,-426.97 138.3,-3.02 101.56,-426.14 501.14,55.87 138.58,1.83l-138.12 514.78 0 3.84z"/>
    </g>
    <path id="_1_1" class="fil5" d="M2539.62 2323.75l-0.55 -1.87 -0.14 0.54 0 -1.18 -138.07 -514.92c-362.29,53.95 36.33,-426.97 138.3,-3.02 101.56,-426.14 501.14,55.87 138.58,1.83l-138.12 514.78 0 3.84z"/>
   </g>
   <g>
    <g>
     <path class="fil0 str1" d="M2558.29 142.42l-0.55 1.87 -0.14 -0.55 0 1.19 -138.07 514.92c-362.29,-53.95 36.33,426.96 138.3,3.01 101.56,426.15 501.14,-55.87 138.58,-1.82l-138.12 -514.79 0 -3.83z"/>
    </g>
    <path id="_1_2" class="fil5" d="M2558.29 142.42l-0.55 1.87 -0.14 -0.55 0 1.19 -138.07 514.92c-362.29,-53.95 36.33,426.96 138.3,3.01 101.56,426.15 501.14,-55.87 138.58,-1.82l-138.12 -514.79 0 -3.83z"/>
   </g>
  </g>
 </g>
</svg>
