<?xml version="1.0" encoding="UTF-8"?>
<!DOCTYPE svg PUBLIC "-//W3C//DTD SVG 1.1//EN" "http://www.w3.org/Graphics/SVG/1.1/DTD/svg11.dtd">
<!-- Creator: CorelDRAW 2017 -->
<svg xmlns="http://www.w3.org/2000/svg" xml:space="preserve" width="50.7998mm" height="33.8666mm" version="1.1" style="shape-rendering:geometricPrecision; text-rendering:geometricPrecision; image-rendering:optimizeQuality; fill-rule:evenodd; clip-rule:evenodd"
viewBox="0 0 5079.98 3386.66"
 xmlns:xlink="http://www.w3.org/1999/xlink">
 <defs>
  <style type="text/css">
   <![CDATA[
    .str0 {stroke:#373435;stroke-width:4.06;stroke-linecap:round;stroke-linejoin:round;stroke-miterlimit:22.9256}
    .fil0 {fill:none}
    .fil1 {fill:#FEFEFE}
    .fil3 {fill:#FEFEFE}
    .fil5 {fill:#A5A2A2}
    .fil2 {fill:#292929}
    .fil6 {fill:#DD1486}
    .fil4 {fill:#A53692;fill-rule:nonzero;fill-opacity:0.501961}
    .fil7 {fill:#201E1E;fill-rule:nonzero;fill-opacity:0.501961}
   ]]>
  </style>
    <clipPath id="id0">
     <path d="M3028.59 1069.51l1779.5 0 0 1449.53 -1190.4 3.06 -267.86 -383.14c49.64,-122.69 47.63,-236.78 -98.19,-326.89l92.71 -188.5 -315.76 -554.06z"/>
    </clipPath>
     <clipPath id="id1">
      <path d="M3418.89 1069.51l1389.2 0 0 1449.53 -1190.4 3.06 -198.8 -284.36 0 -1168.23z"/>
     </clipPath>
     <clipPath id="id2">
      <path d="M3028.59 1069.51l1779.5 0 0 1449.53 -1190.4 3.06 -267.86 -383.14c49.64,-122.69 47.63,-236.78 -98.19,-326.89l92.71 -188.5 -315.76 -554.06z"/>
     </clipPath>
     <clipPath id="id3">
      <path d="M3028.59 1069.51l440.66 0 0 1240.27 -119.42 -170.82c49.64,-122.69 47.63,-236.78 -98.19,-326.89l92.71 -188.5 -315.76 -554.06z"/>
     </clipPath>
      <clipPath id="id4">
       <rect transform="matrix(-0.0780136 -0 3.52197E-19 0.0413061 3469.25 992.581)" width="7330.91" height="37288.6"/>
      </clipPath>
     <clipPath id="id5">
      <path d="M3028.59 1069.51l1779.5 0 0 1449.53 -1190.4 3.06 -267.86 -383.14c49.64,-122.69 47.63,-236.78 -98.19,-326.89l92.71 -188.5 -315.76 -554.06z"/>
     </clipPath>
     <clipPath id="id6">
      <path d="M4808.09 2429.68l0 89.36 -1190.4 3.06 -64.61 -92.42 1255.01 0z"/>
     </clipPath>
      <clipPath id="id7">
       <rect transform="matrix(0.0413061 -0 -7.04395E-19 -0.0904847 3418.89 2532.82)" width="37288.6" height="1139.89"/>
      </clipPath>
     <clipPath id="id8">
      <path d="M3028.59 1069.51l1779.5 0 0 1449.53 -1190.4 3.06 -267.86 -383.14c49.64,-122.69 47.63,-236.78 -98.19,-326.89l92.71 -188.5 -315.76 -554.06z"/>
     </clipPath>
     <clipPath id="id9">
      <path d="M3028.59 1069.51l1779.5 0 0 1449.53 -1190.4 3.06 -267.86 -383.14c49.64,-122.69 47.63,-236.78 -98.19,-326.89l92.71 -188.5 -315.76 -554.06z"/>
     </clipPath>
     <clipPath id="id10">
      <path d="M3028.59 1069.51l1779.5 0 0 1449.53 -1190.4 3.06 -267.86 -383.14c49.64,-122.69 47.63,-236.78 -98.19,-326.89l92.71 -188.5 -315.76 -554.06z"/>
     </clipPath>
     <clipPath id="id11">
      <path d="M4808.09 1103.03l0 1416.01 -1190.4 3.06 -267.86 -383.14c36.56,-90.35 45.09,-176.04 -11.18,-250.92l0 -252.88 5.7 -11.59 -5.7 -10 0 -510.54 1469.44 0z"/>
     </clipPath>
     <clipPath id="id12">
      <path d="M3028.59 1069.51l1779.5 0 0 1449.53 -1190.4 3.06 -267.86 -383.14c49.64,-122.69 47.63,-236.78 -98.19,-326.89l92.71 -188.5 -315.76 -554.06z"/>
     </clipPath>
   <clipPath id="id13">
    <rect x="112.89" y="78.7" width="2515.26" height="3248.8"/>
   </clipPath>
 </defs>
 <g id="Capa_x0020_1">
  <metadata id="CorelCorpID_0Corel-Layer"/>
  <rect class="fil0" x="-0" width="5079.99" height="3386.66"/>
  <g id="_1746756200528">
   <path class="fil1" d="M2858.46 1915.72l0 137.69c59.55,-14.56 80.93,-45.92 168.53,-43.82 -0.86,-20.12 -9.28,-40.52 -3.66,-59.85 0.39,0.39 0.92,0.48 1.07,1.25l9.48 26.09c2.71,9.85 5.08,19.3 7.78,28.58 2.8,9.66 5.8,18.82 9.48,27.63 5.27,12.6 7.51,12.88 14.48,22.23 8.42,11.31 13.17,26.47 29.75,43.76 12.95,13.51 23.17,24.14 38.73,34.73 90.59,61.66 150.01,-28.2 96.44,-42.96 -24.34,-6.7 -42.55,7.22 -60.48,12.81 -0.4,-38.15 28.94,-25.9 58.13,-25.96 32.32,-0.06 38.4,-18.94 56.39,-27.22 -7.56,30.24 -19.83,20.86 -30.93,40.36 11.35,31.01 76.78,33 94.33,-35.71 11.11,-43.53 -26.7,-85.19 -55.27,-110.26 15.21,-1.51 28.93,18.97 39.36,24.96 -4.69,-32.44 -55.36,-73.28 -79.34,-87.14 -37.12,-21.45 -80.81,-32.18 -130.44,-37.15 -105.78,-10.6 -184.9,45.65 -263.83,69.98z"/>
   <path class="fil2" d="M3439.14 2352.57l150.12 228.79c-10.32,10.57 -26.11,9.13 -32.84,2.65l-71.99 -151.11c-6.38,-9.27 -11.31,-15.73 -18.15,-24.65 -17.13,-22.28 -21.12,-27.21 -30.84,-54.83l-3.91 -8.34c5.9,0.88 3.89,1.71 7.61,7.49zm-580.68 -458.78l0 21.93c78.93,-24.33 158.05,-80.58 263.83,-69.98 49.63,4.97 93.32,15.7 130.44,37.15 23.98,13.86 74.65,54.7 79.34,87.14 -10.43,-5.99 -24.15,-26.47 -39.36,-24.96 28.57,25.07 66.38,66.73 55.27,110.26 -17.55,68.71 -82.98,66.72 -94.33,35.71 11.1,-19.5 23.37,-10.12 30.93,-40.36 -17.99,8.28 -24.07,27.16 -56.39,27.22 -29.19,0.06 -58.53,-12.19 -58.13,25.96 17.93,-5.59 36.14,-19.51 60.48,-12.81 53.57,14.76 -5.85,104.62 -96.44,42.96 -15.56,-10.59 -25.78,-21.22 -38.73,-34.73 -16.58,-17.29 -21.33,-32.45 -29.75,-43.76 -6.97,-9.35 -9.21,-9.63 -14.48,-22.23 -3.68,-8.81 -6.68,-17.97 -9.48,-27.63 -2.7,-9.28 -5.07,-18.73 -7.78,-28.58l-9.48 -26.09c-0.15,-0.77 -0.68,-0.86 -1.07,-1.25 -5.62,19.33 2.8,39.73 3.66,59.85 -87.6,-2.1 -108.98,29.26 -168.53,43.82l0 21.9c18.09,-2.28 150.05,-69.52 175.3,-36.95 22.62,29.18 1.5,33.49 72.85,98.65 42.05,38.41 30.56,2.98 24.83,111.11l-3.91 73.79c1.26,12.44 -1.86,5.75 3.85,7.17l15.08 -156.34c1.55,-4.02 0.36,-1.96 2.4,-4.61 16.89,-0.93 14.43,24.36 16.53,40.33 7.26,55.31 14.34,105.62 29.35,158.82 10.11,35.8 42.01,174.23 62.03,188.51 4.45,-12.58 -18.68,-70.08 -22.91,-86.96 -21.47,-85.63 -38.91,-177.4 -48.88,-265.82 -1.08,-9.55 0.23,-18.13 -1.68,-26.52l30.9 -3.38c3.55,6.94 8.64,13.41 12.87,21.15l25.89 45.44c4.35,7.88 9.25,15.2 13.72,23.11 4.38,7.76 8.41,13.54 12.75,21.94 15.98,30.92 74.93,126.76 94.74,156.33 14.44,21.55 45.92,70.15 66.67,77.41l-77.57 -131.96c-4.43,-7.19 -7.96,-14.99 -12.38,-22.18 -8.94,-14.53 -112.53,-185.33 -112.87,-196.01 -0.38,-12 9.1,-20.15 27.22,12.22 6.38,11.4 13.71,20.95 20.43,30.58 28.09,40.26 53.59,84.81 79.36,122.67 8.26,12.12 33.6,55.02 42.81,59.97 -1.43,-10.54 -19.62,-40.88 -25.12,-48.95 -9.88,-14.52 -20.81,-31.28 -30.08,-45.49l-90.25 -134.29c-4.12,-7.22 -13.76,-21.91 0.13,-20.75 6.9,0.58 8.14,9.72 17.72,21.26 11.57,13.91 23.53,26.56 34.46,41.11l127.14 172.89c11,14.43 17.37,31.83 26.46,49.1 63.78,121.18 77.28,138.01 101.36,176.78 8.72,14.03 27.2,35.36 30.79,45.3l27.3 0c0.51,-17.12 17.96,-65.71 23.42,-83.73l1197.55 -1.81 7.28 -1524.19 -1913.51 -17.32 357.3 598.12c-33.4,47.49 -27.86,36.61 -54.52,88.37l-53.19 114.13c-4.03,9.45 -2.42,10.11 -12.67,9.23l17.99 -69.03c26.09,-94.77 80.04,-217.78 127.41,-305.38 12.65,-23.41 60.18,-97.23 60.53,-110.32 -12.5,10.18 -28.45,33.6 -39.16,50.11 -15.15,23.32 -87.94,152.49 -94.52,168.74 -8.46,20.87 -18.58,41.07 -27,62.53 -24.95,63.67 -47.59,131.84 -65.83,198.18l-27.45 -2.16c0,-86.47 21.97,-134.82 21.97,-211.71 -3.25,3.17 -1.85,0.93 -4.3,5.92l-5.71 18.59c-33.44,104.71 -17.17,86.7 -34.83,183.71l-12.9 -1.22c-8.76,-15.58 -9.99,-103.98 -10.04,-127.15 -17.46,11.59 0.68,116.43 2.91,130.03 -47.65,0 -68.66,16.32 -120.11,29.2 -37.77,9.45 -73.64,26.84 -109.91,40.21z"/>
   <g>
    <path class="fil0 str0" d="M3028.59 1069.51l1779.5 0 0 1449.53 -1190.4 3.06 -267.86 -383.14c49.64,-122.69 47.63,-236.78 -98.19,-326.89l92.71 -188.5 -315.76 -554.06z"/>
   </g>
   <path id="1" class="fil3" d="M3028.59 1069.51l1779.5 0 0 1449.53 -1190.4 3.06 -267.86 -383.14c49.64,-122.69 47.63,-236.78 -98.19,-326.89l92.71 -188.5 -315.76 -554.06z"/>
   <g style="clip-path:url(#id0)">
    <g id="_1746756204880">
    </g>
    <g style="clip-path:url(#id1)">
     <image x="3418.89" y="992.58" width="1540.25" height="1540.25" xlink:href="logo-papercraft-paralosmonster-conejo_Images\logo-papercraft-paralosmonster-conejo_ImgID1.png"/>
    </g>
    <g style="clip-path:url(#id2)">
    </g>
    <g style="clip-path:url(#id3)">
     <image style="clip-path:url(#id4)" transform="matrix(-0.0780136 -0 3.52197E-19 0.0413061 3469.25 992.581)" x="0" y="0" width="37288.6" height="37288.6" xlink:href="logo-papercraft-paralosmonster-conejo_Images\logo-papercraft-paralosmonster-conejo_ImgID2.png"/>
    </g>
    <g style="clip-path:url(#id5)">
    </g>
    <g style="clip-path:url(#id6)">
     <image style="clip-path:url(#id7)" transform="matrix(0.0413061 -0 -7.04395E-19 -0.0904847 3418.89 5577.78)" x="0" y="0" width="37288.6" height="37288.6" xlink:href="logo-papercraft-paralosmonster-conejo_Images\logo-papercraft-paralosmonster-conejo_ImgID3.png"/>
    </g>
    <g style="clip-path:url(#id8)">
    </g>
    <g style="clip-path:url(#id9)">
     <image transform="matrix(-1.24144 -0 -0 0.174357 5057.79 992.58)" x="0" y="0" width="9144" height="9144" xlink:href="logo-papercraft-paralosmonster-conejo_Images\logo-papercraft-paralosmonster-conejo_ImgID4.png"/>
    </g>
    <g style="clip-path:url(#id10)">
    </g>
    <g style="clip-path:url(#id11)">
     <image x="3338.65" y="1103.03" width="1483.87" height="1483.87" xlink:href="logo-papercraft-paralosmonster-conejo_Images\logo-papercraft-paralosmonster-conejo_ImgID5.png"/>
    </g>
    <g style="clip-path:url(#id12)">
    </g>
   </g>
   <g>
    <path class="fil4" d="M3605 1689.36c0.04,-5.6 4.64,-10.11 10.26,-10.07 5.62,0.04 10.14,4.63 10.1,10.23l-20.36 -0.16zm-5.93 714.36l5.93 -714.36 20.36 0.16 -5.93 714.36 -20.36 -0.16zm20.36 0.16c-0.04,5.6 -4.64,10.11 -10.26,10.07 -5.62,-0.04 -10.14,-4.63 -10.1,-10.23l20.36 0.16z"/>
   </g>
   <g>
    <path class="fil4" d="M4445.92 2384.78c3.62,-4.28 10.03,-4.82 14.31,-1.21 4.28,3.61 4.81,10.03 1.19,14.31l-15.5 -13.1zm-75.02 88.73l75.02 -88.73 15.5 13.1 -75.02 88.73 -15.5 -13.1zm15.5 13.1c-3.62,4.28 -10.03,4.82 -14.31,1.21 -4.28,-3.61 -4.81,-10.03 -1.19,-14.31l15.5 13.1z"/>
   </g>
   <g>
    <path class="fil4" d="M4408.23 1175.29l1.22 -19.82c5.59,0.32 9.85,5.03 9.52,10.5 -0.33,5.47 -5.15,9.64 -10.74,9.32zm-106.13 -6.19l1.22 -19.82 106.13 6.19 -1.22 19.82 -106.13 -6.19zm1.22 -19.82l-1.22 19.82c-5.59,-0.32 -9.85,-5.03 -9.52,-10.5 0.33,-5.47 5.15,-9.64 10.74,-9.32z"/>
   </g>
   <path class="fil5" d="M3636.84 2366.32l3.69 -0.85c-3.71,-5.78 -1.7,-6.62 -7.61,-7.49l3.92 8.34z"/>
   <path class="fil6" d="M4129.59 2352.84c-3.33,-14.48 -0.12,-9.48 -13.39,-13.29 0.24,21.07 -13.6,17.34 13.39,13.29z"/>
   <path class="fil7" d="M3567.15 1613.24c0.15,0.07 0.37,0.13 0.67,0.19l0.9 0.29c2.26,0.99 3.48,1.59 3.64,1.81 1.59,0.81 2.52,1.76 2.79,2.85 0.25,0.43 0.38,0.79 0.4,1.09 0,0 -0.34,0.65 -1.02,1.93 -0.67,1.29 -0.98,2.53 -0.92,3.7 -0.08,-1.54 -0.06,0.2 0.04,5.21l0.08 1.66c0.03,0.66 0.05,1.03 0.06,1.11 0.22,4.34 1.39,7.24 3.54,8.68 1.29,0.9 5.77,2.92 13.47,6.08 3.15,1.32 5.58,1.94 7.27,1.85 1.55,-0.08 2.57,-1.05 3.07,-2.92 0.24,-1.05 0.61,-2.62 1.09,-4.71 0.93,-3.67 2.07,-6.27 3.47,-7.82 0.97,-1.3 2.22,-2.21 3.74,-2.73 0.51,-0.1 2.09,-0.37 4.72,-0.79 0.37,0.05 1.16,0.16 2.35,0.32 4.07,0.54 7.83,2.05 11.28,4.54 6.87,4.9 12.07,9.69 15.53,14.4 0.57,1.07 1.63,3.79 3.18,8.15 0.82,1.58 1.73,3.57 2.73,5.95 0.44,2.71 -1.37,4.17 -5.42,4.38 -3.32,0.16 -5.14,-0.79 -5.46,-2.83 -0.16,-3.1 -0.68,-5.4 -1.57,-6.91 -0.95,-2.76 -2.44,-5.27 -4.47,-7.53 -0.86,-0.92 -2.34,-2.51 -4.46,-4.76 -3.66,-3.96 -6.27,-6.01 -7.83,-6.15 -0.67,-0.19 -1.41,-0.15 -2.21,0.11 -2.54,0.87 -4.33,2.84 -5.36,5.93 -0.25,0.82 -0.63,2.87 -1.13,6.14 -0.61,4.03 -1.87,6.19 -3.77,6.51 -0.37,0.17 -0.76,0.26 -1.21,0.28 -0.59,0.03 -1.44,-0.08 -2.56,-0.31 -4.91,-0.65 -11.06,-1.96 -18.48,-3.95 -10.03,-2.75 -15.82,-5.42 -17.35,-7.99 -2.65,-8.66 -4.07,-14.8 -4.25,-18.4 -0.06,-1.18 -0.01,-2.34 0.17,-3.45 -0.29,-1.09 -0.46,-2.34 -0.53,-3.74 -0.3,-5.9 0.98,-8.62 3.81,-8.17zm4.21 -39.55c4.03,0.61 6.09,1.91 6.19,3.91 0.01,0.36 -0.07,0.97 -0.24,1.83 -0.18,0.86 -0.26,1.44 -0.25,1.74 0.25,2.2 1.37,5.35 3.35,9.46 0.83,1.73 1.9,3.16 3.21,4.28 0.69,0.55 1.85,1.57 3.48,3.04 3.65,3.51 9.04,7.15 16.16,10.93 2.96,1.54 7.76,3.01 14.4,4.37 -0.08,-0.21 -1.27,-2.55 -3.56,-7.03 -1.64,-3.16 -2.49,-5.41 -2.56,-6.74l-0.01 -0.33c-0.75,-1.73 -1.17,-3.52 -1.26,-5.36 -0.13,-2.58 0.34,-4.85 1.43,-6.83 2.7,-4.93 6.16,-7.47 10.36,-7.61 0.38,0.13 1.01,0.24 1.9,0.35 4.31,0.52 8.49,2.75 12.52,6.68 3.72,3.59 6.4,7.59 8.03,12.01 0.77,2.11 1.2,4.23 1.31,6.36 0.24,4.86 -0.96,8.87 -3.6,12.03 -2.66,3.17 -6.36,5.01 -11.14,5.54 -2.79,0.29 -6.6,0.12 -11.44,-0.52 -7.88,-1.09 -15.33,-3.08 -22.35,-5.97 -5.27,-2.18 -11.37,-6.82 -18.31,-13.93 -2.95,-3.03 -5.6,-6.55 -7.95,-10.58 -2.82,-4.8 -4.33,-8.9 -4.5,-12.29 -0.17,-3.46 1,-5.26 3.51,-5.38 0.51,-0.03 0.96,-0.01 1.32,0.04zm53.45 14.28c-4.19,0.21 -6.19,2.38 -5.98,6.5 0.24,4.72 2.61,9.28 7.11,13.71 2.25,2.25 4.13,3.49 5.62,3.71 0.6,0.12 1.18,0.02 1.76,-0.31 2.84,-2.21 4.15,-5.35 3.95,-9.39 -0.08,-1.63 -1.17,-4.19 -3.26,-7.71 -2.74,-4.52 -5.8,-6.69 -9.2,-6.51zm-19.83 -59.95c0.59,-0.03 1.41,0.15 2.46,0.54 1.68,1.25 2.56,2.67 2.65,4.28 0.06,1.25 -0.9,1.97 -2.88,2.14 -1.47,0.15 -2.74,0.73 -3.8,1.72 -2.11,2.03 -3.24,3.82 -3.38,5.37l0.01 0.22c0.17,3.45 0.72,5.74 1.67,6.87 0.47,0.57 2.22,2.32 5.25,5.26 5.05,3.35 9.22,5.02 12.55,5 2.58,0.03 5.03,-0.86 7.35,-2.62 2.31,-1.77 4.03,-3.91 5.16,-6.38l1.69 -3.84c0.53,-1.21 0.84,-2.45 0.92,-3.68 0.04,-0.75 -0.21,-1.93 -0.73,-3.57 -0.52,-1.62 -0.77,-2.77 -0.72,-3.43l-0.02 -0.45c0.11,-2.2 1.08,-3.28 2.94,-3.23 2.51,0.1 4.5,0.71 5.96,1.81 1.71,1.76 2.53,3.38 2.45,4.86 -0.17,2.45 -0.78,5.37 -1.82,8.79 -1.05,3.42 -2.19,6.11 -3.42,8.09 -2.67,4.27 -6.38,7.49 -11.15,9.65 -2.24,0.99 -4.87,1.5 -7.91,1.5 -6.65,-0.04 -11.5,-1.12 -14.56,-3.26 -3.26,-1.83 -6.2,-4.34 -8.8,-7.54 -0.7,-0.92 -2.24,-2.88 -4.61,-5.85 -1.37,-2.3 -2,-4.52 -1.89,-6.67 0.13,-3.41 1.67,-6.66 4.61,-9.76 2.67,-2.87 5.75,-4.75 9.24,-5.67 0.14,-0.23 0.4,-0.28 0.78,-0.15zm21.85 -76.76c0.44,-0.16 0.91,-0.26 1.42,-0.29 1.92,-0.09 3.64,1.11 5.17,3.62 1.28,2.08 1.82,3.71 1.58,4.9 -0.18,0.82 -0.75,1.26 -1.71,1.31 -0.44,0.02 -1.74,-0.2 -3.91,-0.68 -1.04,-0.25 -3.42,-0.54 -7.13,-0.87 -3.12,-0.28 -5.48,-0.24 -7.08,0.14 -4.97,1.13 -7.89,1.86 -8.76,2.21 -1.96,0.76 -2.89,2.06 -2.79,3.9l0 0.11c0.1,1.99 1.52,4.54 4.26,7.66 1.49,1.7 3.55,3.92 6.2,6.67 1.89,0.71 3.81,1.43 5.77,2.14 2.32,0.78 4.3,1.08 5.91,0.93 2.35,-0.27 3.94,-0.31 4.76,-0.13 1.78,0.13 3.06,1.32 3.83,3.57 0.44,1.24 0.67,2.3 0.71,3.18 0.08,1.48 -0.76,2.25 -2.53,2.34 -1.77,0.09 -4.45,-0.29 -8.04,-1.15 -0.38,-0.12 -1.5,-0.48 -3.38,-1.04 -3.12,-0.44 -7.83,-0.98 -14.14,-1.63 -0.66,0.34 -1.84,0.99 -3.56,1.95 -0.58,0.33 -1.11,1 -1.62,2.03 -0.5,1.02 -0.74,1.87 -0.71,2.53 0.2,3.97 3.54,8.72 10.03,14.23 4,1.71 8.49,3.08 13.49,4.08 0.68,0.12 2.81,0.01 6.41,-0.32 2.5,-0.26 4.34,0.26 5.51,1.62 0.77,0.62 1.75,1.68 2.93,3.16 0.43,1.09 0.65,2.04 0.69,2.85 0.11,2.07 -0.47,2.98 -1.74,2.75 -0.29,0.02 -2.53,-0.35 -6.7,-1.1l-9.61 -1.73c-2.47,-0.55 -7.4,-1.56 -14.78,-3.04 -1.36,-0.44 -4.29,-0.92 -8.83,-1.44 -0.59,-0.04 -1.4,0 -2.42,0.12 -0.89,0.13 -1.62,0.24 -2.21,0.33 -1.99,0.1 -3.03,-0.94 -3.14,-3.16 -0.09,-1.69 1.02,-3.26 3.31,-4.7 0.93,-0.57 2.06,-0.85 3.39,-0.84 0.59,0.05 1.96,0.13 4.11,0.24 -0.41,-0.65 -1.19,-1.46 -2.34,-2.44 -2,-1.67 -3.31,-2.82 -3.94,-3.45 -2.57,-2.61 -3.94,-5.64 -4.12,-9.1l-0.01 -0.34c1.11,-5.96 5.9,-9.79 14.38,-11.46 -1.48,-1.63 -4.06,-4.56 -7.75,-8.8 -2.83,-3.27 -4.31,-6.48 -4.47,-9.64 -0.02,-0.37 0.02,-1.01 0.13,-1.89 1.33,-2.8 3.3,-4.82 5.89,-6.06 1.73,-0.82 4.47,-1.52 8.21,-2.08 1.84,-0.23 4.16,-0.32 6.97,-0.24 3.41,0.2 5.7,0.28 6.87,0.22 1.92,-0.1 3.76,-0.49 5.49,-1.17z"/>
   <path class="fil7" d="M4482.52 2336.8c0.38,1.38 0.51,3.63 0.4,6.72l-0.21 6.77c2.99,-1.82 6.34,-2.62 10.08,-2.41 3.73,0.21 6.92,1.43 9.57,3.67 1.24,1.04 2.31,2.34 3.23,3.89 3.6,6.03 4.56,13.18 2.91,21.43 -1.08,5.27 -3.62,12.21 -7.6,20.81 -0.16,0.64 -0.41,1.16 -0.74,1.55 -1.57,1.86 -3.89,1.98 -6.96,0.35 -1.53,-1.3 -1.72,-4.06 -0.55,-8.28 0.88,-3.22 1.56,-5.17 2.03,-5.83 0.08,-0.22 0.87,-1.33 2.39,-3.34 0.74,-1 1.04,-1.86 0.88,-2.59 1.81,-4.54 2.95,-7.83 3.39,-9.87 0.96,-4.22 0.62,-7.3 -1.01,-9.26 -0.13,-0.31 -0.44,-0.67 -0.96,-1.1 -2.71,-1.81 -5.54,-2.03 -8.46,-0.64 -0.51,0.15 -2.97,1.74 -7.37,4.79 -2.97,2.02 -5.25,2.71 -6.82,2.05 -1.07,-0.33 -2.11,-1.1 -3.11,-2.34 -0.94,-1.17 -1.76,-2.6 -2.48,-4.26 -0.03,-1.58 0.7,-5.4 2.18,-11.5 1.07,-4.49 0.76,-7.85 -0.94,-10.06 -0.18,-0.24 -0.44,-0.57 -0.79,-0.95 -2.6,-2.29 -5.87,-2.85 -9.8,-1.62 -3.32,1.05 -6.16,3 -8.54,5.81 -0.67,0.79 -1.8,2.78 -3.41,5.97 -0.22,0.49 -0.58,1.63 -1.09,3.42 -0.44,1.46 -0.94,2.53 -1.52,3.21 -1.86,2.2 -3.76,2.46 -5.73,0.79 -1.36,-1.14 -2.03,-2.29 -2.02,-3.43 0.14,-6.46 2.4,-12.27 6.78,-17.46 2.76,-3.27 5.95,-5.73 9.58,-7.4 3.98,-1.85 7.89,-2.38 11.72,-1.6 3.84,0.77 7.11,2.3 9.81,4.58 2.93,2.48 4.65,5.19 5.16,8.13zm30.36 -54.59c3.9,3.48 6.52,9.81 7.87,18.96 0.24,1.66 0.26,4.26 0.06,7.81 -0.2,3.55 -0.14,6.23 0.16,8.03 0.85,0.72 2.25,1.66 4.21,2.83 1.96,1.17 3.38,2.13 4.29,2.89 5.48,4.84 8.63,7.75 9.44,8.72 2.99,3.78 4.69,9.75 5.12,17.94 0.27,5.74 -1.99,11.45 -6.8,17.14 -4.01,4.74 -8.69,4.84 -14.04,0.31 -0.84,-0.71 -1.62,-1.51 -2.32,-2.4 -0.13,-0.29 -0.36,-0.59 -0.7,-0.88 -3.8,-4.76 -6.52,-10 -8.15,-15.73 -0.53,-1.88 -0.92,-5.7 -1.2,-11.43 -0.21,-5.12 -0.9,-8.69 -2.08,-10.74 -1.76,-0.54 -3.61,-0.98 -5.52,-1.35 -4.68,-0.86 -9.22,-3.25 -13.64,-7.18 -3.16,-2.76 -4.42,-6.48 -3.76,-11.15 0.45,-3.38 1.37,-6.47 2.76,-9.26 1.07,-2.18 3.77,-5.83 8.11,-10.96 3.62,-4.28 6.44,-6.09 8.49,-5.42 2.53,-1.05 5.1,-0.43 7.7,1.87zm-11.65 11.21c-4.44,5.25 -6.82,8.23 -7.13,8.94 -1.68,3.93 -1.05,7.13 1.88,9.6 0.17,0.14 2.23,1.26 6.17,3.33 2.2,1.17 5.13,1.47 8.81,0.89 0.46,-0.19 0.89,-1.22 1.31,-3.09 0.35,-1.66 0.49,-2.85 0.43,-3.59 -0.31,-2.38 -0.27,-5.17 0.1,-8.35 -0.04,-4.99 -1.13,-8.37 -3.28,-10.19 -2.42,-2.04 -5.18,-1.22 -8.29,2.46zm25.14 37.27c-3.16,-2.66 -5.86,-4.27 -8.1,-4.81 -0.87,2.29 -1.02,4.74 -0.43,7.36 0.24,1.09 0.69,3.13 1.36,6.1 0.48,4.01 1.18,7.17 2.11,9.51 2.2,5.63 3.69,8.94 4.5,9.92 0.82,0.98 1.76,1.57 2.86,1.76 1.09,0.2 2.05,-0.19 2.86,-1.15 3.63,-4.3 4.53,-5.3 2.67,-2.99 1.24,-1.58 1.9,-3 2.01,-4.25 0.44,-4.88 0.41,-8.26 -0.11,-10.16 -0.3,-1.14 -0.86,-2.13 -1.66,-3.01 -3.41,-3.85 -6.1,-6.61 -8.07,-8.28zm37.6 -59.05c0.45,0.38 0.93,1.07 1.43,2.07 0.38,2.06 0.06,3.7 -0.99,4.94 -0.8,0.95 -1.99,0.83 -3.56,-0.41 -1.18,-0.89 -2.49,-1.33 -3.95,-1.33 -2.93,0.04 -4.97,0.57 -6.14,1.61l-0.14 0.16c-2.23,2.65 -3.39,4.69 -3.47,6.17 -0.04,0.73 0.04,3.21 0.25,7.42 1.39,5.9 3.3,9.97 5.74,12.23 1.88,1.78 4.27,2.81 7.16,3.1 2.9,0.29 5.62,-0.11 8.13,-1.13l3.86 -1.65c1.21,-0.52 2.28,-1.22 3.18,-2.07 0.54,-0.51 1.17,-1.55 1.91,-3.1 0.72,-1.54 1.33,-2.54 1.81,-3l0.29 -0.34c1.58,-1.53 3.04,-1.65 4.36,-0.35 1.77,1.78 2.8,3.59 3.11,5.39 0.05,2.45 -0.46,4.2 -1.52,5.22 -1.8,1.68 -4.24,3.4 -7.33,5.18 -3.11,1.78 -5.77,2.97 -8.03,3.58 -4.86,1.29 -9.78,1.11 -14.73,-0.57 -2.32,-0.81 -4.58,-2.23 -6.8,-4.3 -4.83,-4.57 -7.64,-8.67 -8.41,-12.33 -1.14,-3.56 -1.57,-7.41 -1.28,-11.51 0.11,-1.16 0.32,-3.64 0.62,-7.43 0.57,-2.61 1.63,-4.67 3.18,-6.16 2.42,-2.4 5.77,-3.73 10.03,-3.99 3.91,-0.27 7.45,0.46 10.63,2.18 0.25,-0.07 0.48,0.07 0.66,0.42zm68.39 -41.14c0.43,0.17 0.85,0.42 1.24,0.75 1.46,1.24 1.9,3.3 1.3,6.17 -0.48,2.4 -1.21,3.96 -2.2,4.66 -0.69,0.48 -1.4,0.41 -2.14,-0.21 -0.33,-0.28 -1.13,-1.34 -2.38,-3.17 -0.6,-0.89 -2.13,-2.73 -4.62,-5.5 -2.09,-2.34 -3.84,-3.92 -5.27,-4.74 -4.4,-2.57 -7.03,-4.02 -7.91,-4.37 -1.94,-0.78 -3.51,-0.45 -4.7,0.95l-0.07 0.08c-1.29,1.52 -1.99,4.36 -2.12,8.51 -0.07,2.25 -0.08,5.28 -0.02,9.1 0.89,1.81 1.8,3.65 2.74,5.51 1.17,2.15 2.41,3.72 3.69,4.71 1.9,1.41 3.09,2.47 3.56,3.16 1.21,1.31 1.34,3.05 0.36,5.22 -0.53,1.21 -1.08,2.14 -1.65,2.81 -0.95,1.13 -2.1,1.12 -3.45,-0.02 -1.35,-1.14 -3.05,-3.25 -5.08,-6.33 -0.2,-0.35 -0.77,-1.37 -1.76,-3.07 -1.99,-2.45 -5.06,-6.07 -9.23,-10.85 -0.7,-0.2 -2.01,-0.53 -3.93,-1 -0.64,-0.15 -1.49,-0.03 -2.56,0.37 -1.07,0.41 -1.82,0.86 -2.24,1.37 -2.57,3.04 -3.37,8.79 -2.4,17.24 1.75,3.98 4.1,8.05 7.07,12.2 0.41,0.54 2.05,1.92 4.9,4.14 2.01,1.51 2.99,3.15 2.92,4.94 0.14,0.98 0.12,2.43 -0.02,4.32 -0.44,1.08 -0.92,1.93 -1.44,2.55 -1.34,1.58 -2.38,1.86 -3.15,0.82 -0.23,-0.19 -1.61,-1.99 -4.15,-5.39l-5.83 -7.82c-1.43,-2.09 -4.35,-6.19 -8.73,-12.31 -0.68,-1.25 -2.5,-3.61 -5.46,-7.08 -0.4,-0.44 -1.02,-0.96 -1.85,-1.57 -0.74,-0.51 -1.35,-0.94 -1.84,-1.27 -1.52,-1.28 -1.57,-2.76 -0.13,-4.45 1.09,-1.29 2.96,-1.69 5.62,-1.18 1.07,0.22 2.08,0.79 3.06,1.7 0.39,0.45 1.34,1.44 2.83,2.99 0.15,-0.75 0.13,-1.88 -0.04,-3.38 -0.33,-2.59 -0.49,-4.33 -0.52,-5.21 -0.1,-3.66 0.97,-6.82 3.2,-9.46l0.22 -0.26c4.89,-3.59 11,-3.11 18.34,1.45 0.03,-2.2 0.15,-6.11 0.35,-11.72 0.16,-4.32 1.27,-7.67 3.32,-10.09 0.24,-0.29 0.7,-0.72 1.38,-1.3 2.89,-1.13 5.71,-1.26 8.45,-0.4 1.82,0.58 4.3,1.94 7.41,4.09 1.5,1.09 3.25,2.61 5.25,4.58 2.36,2.48 3.98,4.1 4.88,4.86 1.46,1.24 3.07,2.2 4.8,2.9z"/>
   <path class="fil7" d="M4096.65 1122.16c-2.88,3.03 -6.02,7.34 -9.41,12.95 -3.54,5.97 -5.68,10.77 -6.42,14.38l-0.33 1.66c0.37,0.15 1,0.22 1.88,0.22 0.81,0 1.94,-0.2 3.38,-0.6 1.44,-0.41 2.38,-0.61 2.82,-0.61 1.84,-0.3 2.8,0.99 2.88,3.87 0.07,1.48 -0.19,2.88 -0.78,4.21 -0.74,1.77 -1.73,2.61 -2.99,2.54 -0.29,-0.15 -0.7,-0.22 -1.21,-0.22 -1.18,0 -2.88,0.4 -5.09,1.22 -2.73,0.07 -4.91,0.73 -6.53,1.99 -1.26,2.73 -1.88,4.42 -1.88,5.09 -0.89,3.1 -1.33,4.5 -1.33,4.2 -1.99,5.24 -3.1,10.22 -3.32,14.94 -0.07,1.77 -0.37,3.06 -0.89,3.87 -0.51,0.81 -1.54,1.81 -3.09,2.99 -2.81,0.74 -4.61,1.11 -5.43,1.11 -0.88,0 -1.51,-0.3 -1.88,-0.89 0.08,-0.59 0.19,-1.58 0.34,-2.99 1.18,-3.61 2.32,-7.26 3.43,-10.95 0.51,-1.77 1.4,-4.35 2.65,-7.75 1.62,-4.42 2.44,-7.37 2.44,-8.85l-1 0c-1.84,0 -6.27,0.92 -13.28,2.77 -2.8,0.74 -4.87,1.1 -6.19,1.1 -1.33,0 -2.51,-0.22 -3.55,-0.66 -0.81,-2.8 -0.84,-6.12 -0.11,-9.96 0.3,-1.69 1.59,-6.16 3.88,-13.39 0.81,-2.65 2.8,-6.01 5.97,-10.07 1.18,-1.99 3.39,-4.83 6.64,-8.52 1.03,-1.69 2.51,-3.54 4.43,-5.53 0.59,-0.22 1.25,-0.33 1.99,-0.33 2.06,0 3.35,0.41 3.87,1.22 1.48,0.66 2.07,1.66 1.77,2.98 -0.15,0.67 -0.96,1.74 -2.43,3.21 -1.92,1.92 -3.03,3.1 -3.32,3.54 -0.81,1.18 -2.55,3.4 -5.2,6.64 -1.7,2.14 -3.51,5.17 -5.42,9.08 -1.92,3.91 -3.1,7.15 -3.55,9.73 -0.14,0.37 -0.22,0.63 -0.22,0.78 0.59,0.44 2.14,0.66 4.65,0.66 1.4,0 6.2,-1.29 14.38,-3.87 0.3,-0.66 1.85,-4.28 4.65,-10.84 1.4,-3.25 3.17,-6.75 5.31,-10.52l5.54 -9.62c3.09,-5.24 5.53,-7.56 7.3,-6.97 1.33,0.44 2.14,0.73 2.43,0.88 1.04,0.44 1.7,0.96 1.99,1.55 0.52,1.55 0.78,2.25 0.78,2.1 0,0.52 -0.19,1.07 -0.55,1.66zm58.42 26.67c0.08,1.18 0.11,2.69 0.11,4.54 0,7.37 -1.25,13.53 -3.76,18.48 -4.28,8.48 -9.92,15.23 -16.93,20.24 -3.32,2.36 -5.57,3.84 -6.75,4.43 -1.99,0.96 -4.2,1.44 -6.64,1.44 -16.3,0 -24.56,-6.82 -24.78,-20.47 -0.15,-8.63 0.29,-15.46 1.32,-20.47l0 -0.44c1.92,-9.74 5.61,-18.41 11.07,-26.01 4.5,-6.27 9.92,-9.4 16.26,-9.4 2.14,0 4.36,0.62 6.64,1.88 0.82,-0.22 1.77,-0.33 2.88,-0.33 1.33,0 4.5,0.48 9.52,1.43 1.62,0.3 2.76,0.74 3.43,1.33 4.35,3.76 6.89,11.55 7.63,23.35zm-7.41 3.21c0,-7.3 -1.7,-12.73 -5.07,-16.27 -2,-2.06 -5.13,-3.28 -9.39,-3.65 -0.44,0.67 -1.51,1.27 -3.21,1.83 -1.68,0.55 -2.89,0.72 -3.63,0.5 -0.59,-0.15 -1.44,-0.76 -2.55,-1.83 -1.1,-1.07 -1.86,-1.6 -2.3,-1.6 -0.22,0 -0.52,0.03 -0.89,0.11 -10.23,9.44 -15.45,21.2 -15.67,35.29 0,1.85 0.14,5.2 0.44,10.07 0.22,2.95 1.11,5.2 2.66,6.75 2.78,2.73 6.47,4.1 11.02,4.1 11.84,0 20.01,-5.98 24.51,-17.93 2.71,-4.65 4.08,-10.44 4.08,-17.37zm56.21 6.2c0,0.59 -0.22,1.4 -0.66,2.43 -1.33,1.62 -2.79,2.43 -4.41,2.43 -1.25,0 -1.92,-0.99 -1.99,-2.98 -0.08,-1.48 -0.59,-2.77 -1.53,-3.88 -1.92,-2.21 -3.65,-3.43 -5.19,-3.65l-0.22 0c-3.46,0 -5.77,0.44 -6.95,1.33 -0.59,0.44 -2.43,2.1 -5.51,4.98 -3.6,4.87 -5.48,8.96 -5.63,12.28 -0.15,2.58 0.61,5.07 2.25,7.47 1.66,2.4 3.71,4.22 6.12,5.48l3.75 1.88c1.18,0.59 2.4,0.96 3.63,1.1 0.74,0.08 1.94,-0.11 3.6,-0.55 1.64,-0.44 2.8,-0.63 3.46,-0.55l0.45 0c2.19,0.22 3.22,1.25 3.08,3.1 -0.22,2.5 -0.93,4.46 -2.11,5.86 -1.84,1.62 -3.5,2.36 -4.97,2.21 -2.44,-0.29 -5.33,-1.05 -8.69,-2.26 -3.36,-1.22 -5.99,-2.49 -7.91,-3.82 -4.13,-2.88 -7.16,-6.75 -9.08,-11.62 -0.88,-2.29 -1.25,-4.94 -1.1,-7.97 0.37,-6.64 1.69,-11.43 3.98,-14.38 1.99,-3.17 4.65,-5.98 7.97,-8.41 0.96,-0.66 2.99,-2.1 6.08,-4.32 2.36,-1.25 4.61,-1.77 6.75,-1.55 3.4,0.3 6.57,2 9.52,5.09 2.73,2.81 4.46,5.98 5.2,9.52 0.22,0.15 0.26,0.41 0.11,0.78zm75.57 25.67c0.14,0.44 0.22,0.92 0.22,1.43 0,1.92 -1.29,3.58 -3.87,4.98 -2.14,1.18 -3.8,1.63 -4.98,1.33 -0.81,-0.22 -1.22,-0.81 -1.22,-1.77 0,-0.44 0.29,-1.73 0.88,-3.87 0.3,-1.03 0.71,-3.39 1.22,-7.08 0.44,-3.1 0.52,-5.46 0.22,-7.08 -0.88,-5.02 -1.47,-7.97 -1.77,-8.86 -0.66,-1.99 -1.92,-2.98 -3.76,-2.98l-0.11 0c-1.99,0 -4.61,1.29 -7.86,3.87 -1.77,1.4 -4.09,3.35 -6.97,5.86 -0.81,1.85 -1.62,3.73 -2.43,5.65 -0.89,2.28 -1.29,4.24 -1.22,5.86 0.15,2.36 0.11,3.95 -0.11,4.76 -0.22,1.77 -1.47,2.99 -3.76,3.65 -1.26,0.37 -2.33,0.55 -3.21,0.55 -1.48,0 -2.21,-0.88 -2.21,-2.65 0,-1.77 0.51,-4.43 1.55,-7.97 0.14,-0.37 0.55,-1.47 1.21,-3.32 0.59,-3.1 1.37,-7.78 2.33,-14.05 -0.3,-0.67 -0.89,-1.88 -1.77,-3.65 -0.3,-0.59 -0.94,-1.16 -1.94,-1.72 -1,-0.55 -1.83,-0.83 -2.49,-0.83 -3.98,0 -8.89,3.1 -14.72,9.3 -1.91,3.91 -3.5,8.33 -4.75,13.27 -0.15,0.67 -0.15,2.81 0,6.42 0.14,2.51 -0.48,4.32 -1.89,5.42 -0.66,0.74 -1.77,1.66 -3.31,2.77 -1.11,0.37 -2.07,0.55 -2.88,0.55 -2.07,0 -2.95,-0.62 -2.66,-1.88 0,-0.29 0.48,-2.51 1.44,-6.64l2.21 -9.51c0.67,-2.44 1.92,-7.31 3.77,-14.61 0.51,-1.33 1.14,-4.24 1.88,-8.74 0.07,-0.59 0.07,-1.4 0,-2.43 -0.08,-0.89 -0.15,-1.63 -0.22,-2.22 0,-1.99 1.1,-2.98 3.32,-2.98 1.69,0 3.2,1.18 4.53,3.54 0.52,0.96 0.74,2.1 0.67,3.43 -0.08,0.59 -0.23,1.95 -0.45,4.09 0.67,-0.37 1.52,-1.11 2.55,-2.21 1.77,-1.92 2.99,-3.17 3.65,-3.76 2.73,-2.44 5.83,-3.66 9.29,-3.66l0.34 0c5.9,1.41 9.48,6.39 10.73,14.94 1.7,-1.4 4.76,-3.83 9.18,-7.3 3.4,-2.66 6.68,-3.98 9.85,-3.98 0.37,0 1,0.07 1.88,0.22 2.73,1.47 4.65,3.54 5.76,6.19 0.73,1.77 1.29,4.54 1.66,8.3 0.14,1.85 0.11,4.17 -0.11,6.97 -0.37,3.4 -0.56,5.68 -0.56,6.86 0,1.92 0.3,3.77 0.89,5.54z"/>
   <g>
    <path class="fil4" d="M4648.25 2198.69c-3.62,4.28 -10.03,4.82 -14.31,1.21 -4.28,-3.61 -4.81,-10.03 -1.19,-14.31l15.5 13.1zm94.5 -111.78l-94.5 111.78 -15.5 -13.1 94.5 -111.78 15.5 13.1zm-15.5 -13.1c3.62,-4.28 10.03,-4.82 14.31,-1.21 4.28,3.61 4.81,10.03 1.19,14.31l-15.5 -13.1z"/>
   </g>
   <g>
    <path class="fil4" d="M3604.91 1439.68l20.54 -0.42c0.12,5.6 -4.38,10.25 -10.05,10.36 -5.67,0.11 -10.37,-4.34 -10.49,-9.94zm-5.93 -279.58l20.54 -0.42 5.93 279.58 -20.54 0.42 -5.93 -279.58zm20.54 -0.42l-20.54 0.42c-0.12,-5.6 4.38,-10.25 10.05,-10.36 5.67,-0.11 10.37,4.34 10.49,9.94z"/>
   </g>
   <g>
    <path class="fil4" d="M3672.05 1175.47c-5.6,0.1 -10.24,-4.33 -10.35,-9.9 -0.11,-5.57 4.35,-10.18 9.95,-10.28l0.4 20.18zm322.58 -6.19l-322.58 6.19 -0.4 -20.18 322.58 -6.19 0.4 20.18zm-0.4 -20.18c5.6,-0.1 10.24,4.33 10.35,9.9 0.11,5.57 -4.35,10.18 -9.95,10.28l-0.4 -20.18z"/>
   </g>
  </g>
  <g style="clip-path:url(#id13)">
   <image x="112.89" y="78.7" width="2515.26" height="3248.8" xlink:href="logo-papercraft-paralosmonster-conejo_Images\logo-papercraft-paralosmonster-conejo_ImgID6.png"/>
  </g>
 </g>
</svg>
