<?xml version="1.0" encoding="UTF-8"?>
<!DOCTYPE svg PUBLIC "-//W3C//DTD SVG 1.1//EN" "http://www.w3.org/Graphics/SVG/1.1/DTD/svg11.dtd">
<!-- Creator: CorelDRAW 2017 -->
<svg xmlns="http://www.w3.org/2000/svg" xml:space="preserve" width="5.5878mm" height="5.5878mm" version="1.1" style="shape-rendering:geometricPrecision; text-rendering:geometricPrecision; image-rendering:optimizeQuality; fill-rule:evenodd; clip-rule:evenodd"
viewBox="0 0 558.78 558.78"
 xmlns:xlink="http://www.w3.org/1999/xlink">
 <defs>
  <style type="text/css">
   <![CDATA[
    .str0 {stroke:#848688;stroke-width:0.31;stroke-linecap:round;stroke-linejoin:round;stroke-miterlimit:22.9256}
    .fil3 {fill:none;fill-rule:nonzero}
    .fil1 {fill:#848688}
    .fil5 {fill:#727376}
    .fil4 {fill:#A9ABAE;fill-rule:nonzero}
    .fil0 {fill:#848688;fill-rule:nonzero}
    .fil2 {fill:#727376;fill-rule:nonzero}
   ]]>
  </style>
 </defs>
 <g id="Capa_x0020_1">
  <metadata id="CorelCorpID_0Corel-Layer"/>
  <path class="fil0" d="M271.67 437.78c0,-5.92 1.72,-11.61 5.18,-17.11 3.47,-5.47 8.03,-9.87 13.72,-13.12 5.71,-3.28 11.71,-4.9 18.07,-4.9 5.88,0 11.28,1.39 16.18,4.18 4.9,2.82 8.79,6.62 11.66,11.45 2.87,4.85 4.3,10.21 4.3,16.08 0,6.17 -1.67,11.95 -5.04,17.36 -3.37,5.42 -7.88,9.75 -13.57,12.95 -5.72,3.23 -11.76,4.85 -18.14,4.85 -5.88,0 -11.31,-1.41 -16.28,-4.2 -4.97,-2.8 -8.89,-6.63 -11.78,-11.45 -2.87,-4.83 -4.3,-10.21 -4.3,-16.09zm33.96 -30.23c-3.63,0 -7.15,0.72 -10.54,2.13 -3.37,1.43 -6.36,3.44 -8.96,6.02 -2.59,2.58 -4.62,5.54 -6.1,8.89 -1.46,3.35 -2.2,6.79 -2.2,10.32 0,5.19 1.29,10.09 3.9,14.68 2.58,4.59 6.12,8.22 10.56,10.9 4.47,2.65 9.23,3.99 14.32,3.99 5.09,0 9.8,-1.2 14.15,-3.59 4.35,-2.36 7.74,-5.61 10.18,-9.7 2.46,-4.09 3.68,-8.56 3.68,-13.41 0,-4.06 -0.74,-7.96 -2.25,-11.68 -1.48,-3.73 -3.58,-6.98 -6.26,-9.78 -2.68,-2.77 -5.78,-4.92 -9.32,-6.48 -3.51,-1.53 -7.24,-2.29 -11.16,-2.29z"/>
  <path class="fil1" d="M268.04 494.85c7.41,-2.46 8.96,-7.58 22.33,-5.75 7.43,1.01 15.81,3.44 23.12,4.74 19.92,3.55 35.84,-9.64 36.3,-13.15 -10.15,-5.5 -11.07,3.72 -22.31,3.97 -16.17,0.37 -31.57,-12.38 -54.36,-0.61 -4.63,2.39 -18.38,8.35 -5.08,10.8z"/>
  <path class="fil2" d="M75.4 406.28l0 28.49 -2.11 0 0 -0.92 -0.11 -3.53c-0.24,-6.17 -2.11,-10.75 -5.66,-13.75 -1.9,-1.68 -4.52,-3.03 -7.87,-4 -3.35,-0.99 -6.92,-1.5 -10.68,-1.5 -5.18,0 -9.99,0.94 -14.47,2.81 -4.47,1.87 -8.36,4.46 -11.68,7.81 -3.31,3.35 -5.88,7.27 -7.71,11.77 -1.82,4.48 -2.73,9.37 -2.73,14.67 0,5.21 1.01,10.16 3.06,14.85 2.02,4.68 4.85,8.81 8.47,12.38 3.61,3.58 7.78,6.37 12.49,8.36 4.74,2 9.69,3 14.91,3 4.8,0 9.39,-0.82 13.78,-2.48 4.4,-1.65 8.26,-4.03 11.57,-7.11l1.87 1.95c-2.43,2.4 -5.16,4.4 -8.2,6.04 -3.06,1.64 -6.27,2.88 -9.68,3.72 -3.41,0.84 -7.04,1.25 -10.88,1.25 -8.14,0 -15.59,-1.79 -22.35,-5.4 -6.76,-3.58 -12.08,-8.5 -15.98,-14.69 -3.91,-6.22 -5.86,-13.08 -5.86,-20.62 0,-4.29 0.8,-8.61 2.39,-12.92 1.6,-4.32 3.9,-8.32 6.88,-12 3,-3.67 6.53,-6.86 10.6,-9.55 3.65,-2.48 7.6,-4.31 11.85,-5.5 4.23,-1.17 8.83,-1.75 13.78,-1.75 7.42,0 14.79,1.64 22.1,4.91l0 -6.29 2.22 0zm25.12 27.8l0 42.19 0 1.89c0,2.24 0.17,3.88 0.54,4.87 0.35,1.02 1.03,1.7 2.03,2.07 0.99,0.35 2.55,0.55 4.68,0.55l0.38 0 0 2.1 -21.06 0 0 -2.1 7.03 0 0 -64.41 0 -1.89c-0.07,-2.28 -0.29,-3.92 -0.62,-4.91 -0.35,-0.99 -1.01,-1.66 -1.99,-2.03 -0.95,-0.35 -2.51,-0.54 -4.63,-0.54l-0.47 0 0 -2.11 21.12 0 0 2.11 -7.01 0 0 19.76 25.62 0 0 -10.39 0 -1.89c-0.08,-2.28 -0.27,-3.92 -0.62,-4.91 -0.35,-0.99 -1,-1.66 -1.97,-2.03 -0.97,-0.35 -2.51,-0.54 -4.66,-0.54l-0.45 0 0 -2.11 21.13 0 0 2.11 -6.98 0 0 64.4 0 1.89c0,2.24 0.2,3.88 0.55,4.87 0.37,1.02 1.03,1.7 2.02,2.07 1,0.35 2.56,0.55 4.68,0.55l0.35 0 0 2.1 -21.06 0 0 -2.1 7.01 0 0 -51.57 -25.62 0zm61.6 -22.09l0 64.28 0 1.89c0,2.24 0.17,3.88 0.54,4.87 0.35,1.02 1.03,1.7 2.03,2.07 0.99,0.35 2.55,0.55 4.68,0.55l0.38 0 0 2.1 -21.06 0 0 -2.1 7.03 0 0 -64.41 0 -1.89c-0.07,-2.24 -0.29,-3.86 -0.62,-4.81 -0.35,-0.98 -1.01,-1.64 -1.99,-2.01 -0.95,-0.35 -2.51,-0.54 -4.63,-0.54l-0.47 0 0 -2.23 21.12 0 0 2.23 -7.01 0zm86.09 -5.71l0 28.49 -2.11 0 0 -0.92 -0.11 -3.53c-0.24,-6.17 -2.11,-10.75 -5.66,-13.75 -1.9,-1.68 -4.52,-3.03 -7.87,-4 -3.35,-0.99 -6.92,-1.5 -10.68,-1.5 -5.18,0 -9.99,0.94 -14.47,2.81 -4.47,1.87 -8.36,4.46 -11.68,7.81 -3.31,3.35 -5.88,7.27 -7.71,11.77 -1.82,4.48 -2.73,9.37 -2.73,14.67 0,5.21 1.01,10.16 3.06,14.85 2.02,4.68 4.85,8.81 8.47,12.38 3.61,3.58 7.78,6.37 12.49,8.36 4.74,2 9.69,3 14.91,3 4.8,0 9.39,-0.82 13.78,-2.48 4.4,-1.65 8.26,-4.03 11.57,-7.11l1.87 1.95c-2.43,2.4 -5.16,4.4 -8.2,6.04 -3.06,1.64 -6.27,2.88 -9.68,3.72 -3.41,0.84 -7.04,1.25 -10.88,1.25 -8.14,0 -15.59,-1.79 -22.35,-5.4 -6.76,-3.58 -12.08,-8.5 -15.98,-14.69 -3.91,-6.22 -5.86,-13.08 -5.86,-20.62 0,-4.29 0.8,-8.61 2.39,-12.92 1.6,-4.32 3.9,-8.32 6.88,-12 3,-3.67 6.53,-6.86 10.6,-9.55 3.65,-2.48 7.6,-4.31 11.85,-5.5 4.23,-1.17 8.83,-1.75 13.78,-1.75 7.42,0 14.79,1.64 22.1,4.91l0 -6.29 2.22 0zm156.83 -1.66l0 30.26 -2.34 0 0 -7.13 0 -2.45c-0.12,-9.98 -4.05,-14.97 -11.81,-14.97 -1.95,0 -3.68,0.43 -5.2,1.29 -1.52,0.85 -2.71,2.04 -3.57,3.56 -0.86,1.52 -1.28,3.26 -1.28,5.2 0,2.25 0.52,4.29 1.59,6.14 1.08,1.85 2.87,3.74 5.4,5.67 2.53,1.95 6.04,4.13 10.52,6.57l5.95 3.25c5.43,2.91 9.53,6.24 12.27,10 2.75,3.76 4.12,7.95 4.12,12.55 0,4.78 -1.41,9.14 -4.23,13.12 -2.81,3.97 -6.65,7.11 -11.5,9.41 -4.85,2.3 -10.17,3.47 -15.96,3.47 -5.9,0 -11.22,-1.13 -15.96,-3.36 -4.73,-2.22 -8.42,-5.33 -11.07,-9.33 -2.65,-3.99 -3.97,-8.5 -3.97,-13.52 0,-3.04 0.58,-5.91 1.75,-8.6 1.15,-2.69 2.75,-5.06 4.79,-7.13 2.03,-2.08 4.41,-3.7 7.1,-4.85 2.71,-1.17 5.55,-1.76 8.57,-1.76 2.93,0 5.63,0.61 8.13,1.82 2.49,1.19 4.48,2.8 5.94,4.85 1.46,2.03 2.2,4.23 2.2,6.59 0,1.71 -0.39,3.23 -1.17,4.56 -0.78,1.34 -1.85,2.37 -3.19,3.13 -1.37,0.78 -2.91,1.15 -4.66,1.15 -1.87,0 -3.55,-0.31 -5.03,-0.91l0.51 -1.99c0.7,0.21 1.46,0.33 2.3,0.33 1.85,0 3.37,-0.62 4.56,-1.91 1.19,-1.27 1.77,-2.84 1.77,-4.72 0,-2.72 -1.09,-5.08 -3.29,-7.03 -2.18,-1.97 -4.91,-2.94 -8.18,-2.94 -2.97,0 -5.73,0.84 -8.25,2.53 -2.53,1.7 -4.54,3.98 -6,6.82 -1.46,2.87 -2.2,5.98 -2.2,9.37 0,4.25 1.15,8.21 3.43,11.85 2.28,3.63 5.4,6.53 9.35,8.67 3.98,2.15 8.26,3.22 12.92,3.22 4.48,0 8.65,-0.94 12.49,-2.83 3.84,-1.87 6.88,-4.4 9.08,-7.58 2.21,-3.17 3.32,-6.7 3.32,-10.54 0,-3.72 -1.21,-7.27 -3.61,-10.62 -2.16,-3 -6.29,-6.2 -12.37,-9.59l-6.45 -3.64c-5.34,-2.98 -9.24,-6.04 -11.71,-9.24 -2.48,-3.17 -3.73,-6.76 -3.73,-10.75 0,-2.89 0.7,-5.5 2.07,-7.82 1.36,-2.32 3.29,-4.15 5.79,-5.47 2.49,-1.35 5.34,-2.01 8.53,-2.01 3.39,0 6.7,0.66 9.94,2.01l0 -4.7 2.34 0zm37.51 9.26l0.39 -0.24c6.1,-3.6 12.76,-5.42 19.99,-5.42 4.91,0 9.49,0.8 13.76,2.4 4.26,1.6 7.95,3.84 11.05,6.71 3.09,2.88 5.51,6.29 7.26,10.28 1.76,3.98 2.64,8.25 2.64,12.81 0,6.14 -1.62,11.84 -4.86,17.16 -3.23,5.31 -7.6,9.49 -13.07,12.59 -5.48,3.08 -11.44,4.62 -17.87,4.62 -6.59,0 -13.02,-1.52 -19.29,-4.56l0 6.04 0 1.89c0,2.24 0.17,3.88 0.54,4.87 0.35,1.02 1.03,1.7 2.03,2.07 0.99,0.35 2.55,0.55 4.68,0.55l4.11 0 0 2.1 -24.79 0 0 -2.1 7.03 0 0 -64.41 0 -1.89c-0.07,-2.24 -0.29,-3.86 -0.62,-4.81 -0.35,-0.98 -1.01,-1.64 -1.99,-2.01 -0.95,-0.35 -2.51,-0.54 -4.63,-0.54l-0.47 0 0 -2.23 14.11 0 0 4.12zm0 50c3,2.36 6.25,4.19 9.76,5.46 3.51,1.28 7.03,1.9 10.62,1.9 5.12,0 9.92,-1.28 14.32,-3.83 4.43,-2.58 7.87,-6.04 10.39,-10.37 2.51,-4.35 3.78,-9.1 3.78,-14.28 0,-5.64 -1.35,-10.86 -4.03,-15.69 -2.69,-4.83 -6.3,-8.67 -10.82,-11.52 -4.52,-2.82 -9.43,-4.25 -14.73,-4.25 -3.43,0 -6.88,0.67 -10.37,2.01 -3.47,1.33 -6.45,3.12 -8.92,5.36l0 45.21zm78.1 -29.8l-10.29 37.91c-0.82,3.02 -1.25,5.55 -1.25,7.6 0,2.66 1.21,4.42 3.61,5.26 1.2,0.41 3.5,0.68 6.89,0.8l0 2.1 -21.06 0 0 -2.1 5.03 0 21.51 -79.26 2.01 0 19.64 66.63c0.95,3.12 1.69,5.4 2.24,6.86 0.57,1.44 1.15,2.57 1.75,3.37 0.61,0.8 1.31,1.34 2.09,1.64 0.78,0.31 1.91,0.56 3.39,0.76l0 2.1 -19.53 0 0 -2.1 7.49 0 -14.85 -51.57 -8.67 0zm0.74 -2.45l7.25 0 -3.88 -12.4 -3.37 12.4z"/>
  <g>
   <path class="fil3 str0" d="M85.6 512.29l-10.67 27.92 -11.43 -26.78 0 33.15c0,1.1 0.07,2.03 0.2,2.76 0.14,0.74 0.37,1.31 0.69,1.7 0.31,0.38 0.78,0.66 1.4,0.84 0.62,0.16 1.39,0.28 2.33,0.33l0 1.26 -10.78 0 0 -1.26 4.28 0 0 -37.83c0,-1.84 -0.12,-3.19 -0.37,-4.02 -0.23,-0.83 -0.7,-1.4 -1.36,-1.72 -0.68,-0.3 -1.79,-0.49 -3.35,-0.56l0 -1.4 8.36 0 11.1 26.38 9.79 -26.38 7.89 0 0 1.26 -4.21 0 0 38.64 0 1.14c0,1.34 0.1,2.32 0.31,2.92 0.22,0.61 0.63,1.02 1.22,1.24 0.59,0.21 1.53,0.33 2.82,0.33l0.19 0 0 1.26 -12.63 0 0 -1.26 4.22 0 0 -39.92zm20.2 10.52l0 23.84c0,1.61 0.09,2.79 0.29,3.57 0.19,0.77 0.56,1.3 1.09,1.57 0.54,0.28 1.37,0.42 2.49,0.42l0.34 0 0 1.26 -10.99 0 0 -1.26 3.55 0 0 -25.6 -2.87 3.36 -0.96 -0.85 7.84 -9.25 1 0.85 -1.78 2.09zm-2.16 -15.79c0.69,0 1.27,0.24 1.75,0.72 0.48,0.48 0.71,1.07 0.71,1.75 0,0.69 -0.23,1.27 -0.71,1.75 -0.48,0.48 -1.06,0.71 -1.75,0.71 -0.64,0 -1.21,-0.23 -1.71,-0.71 -0.5,-0.48 -0.76,-1.06 -0.76,-1.75 0,-0.68 0.26,-1.27 0.76,-1.75 0.5,-0.48 1.07,-0.72 1.71,-0.72zm14.3 19.59l-2.87 3.36 -0.96 -0.85 7.84 -9.25 1 0.85 -1.78 2.09 0 3.36c2.01,-2.85 4.63,-4.28 7.88,-4.28 1.09,0 2.17,0.21 3.23,0.64 1.06,0.45 1.95,1.04 2.65,1.83 0.64,0.68 1.11,1.32 1.39,1.92 0.29,0.59 0.49,1.34 0.6,2.24 0.11,0.9 0.17,2.19 0.17,3.85l0 14.28c0,1.61 0.1,2.79 0.29,3.57 0.2,0.77 0.57,1.3 1.1,1.57 0.54,0.28 1.36,0.42 2.48,0.42l0.34 0 0 1.26 -10.99 0 0 -1.26 3.57 0 0 -17.2 0 -1.81 -0.07 -2.41c0,-1.46 -0.13,-2.56 -0.4,-3.32 -0.26,-0.75 -0.74,-1.42 -1.42,-1.99 -1.09,-1.02 -2.47,-1.53 -4.15,-1.53 -1.73,0 -3.21,0.55 -4.43,1.66 -1.22,1.1 -1.97,2.58 -2.24,4.43l0 16.61c0,1.61 0.09,2.79 0.29,3.57 0.19,0.77 0.56,1.3 1.09,1.57 0.54,0.28 1.37,0.42 2.49,0.42l0.41 0 0 1.26 -10.93 0 0 -1.26 3.42 0 0 -25.6zm59.83 4.97l-28.77 0c-0.84,1.73 -1.26,3.67 -1.26,5.83 0,2.03 0.38,3.92 1.14,5.7 0.76,1.77 1.83,3.32 3.18,4.68 1.37,1.34 2.96,2.39 4.81,3.14 1.84,0.76 3.75,1.14 5.76,1.14 1.97,0 3.87,-0.37 5.71,-1.08 1.84,-0.72 3.47,-1.76 4.9,-3.12 1.42,-1.36 2.63,-3.02 3.61,-4.98l1.4 0.68c-1.39,3.32 -3.59,5.97 -6.59,7.96 -3,2 -6.31,3 -9.95,3 -2.4,0 -4.59,-0.38 -6.59,-1.14 -2,-0.77 -3.76,-1.87 -5.26,-3.3 -1.5,-1.43 -2.68,-3.1 -3.51,-5.03 -0.83,-1.93 -1.25,-4.02 -1.25,-6.25 0,-2.99 0.83,-5.8 2.46,-8.43 1.65,-2.62 3.86,-4.7 6.63,-6.24 2.77,-1.55 5.78,-2.32 8.99,-2.32 2.2,0 4.28,0.42 6.27,1.25 1.99,0.83 3.72,1.99 5.18,3.46 1.46,1.48 2.51,3.16 3.14,5.05zm-4.41 -1.47c-0.99,-1.85 -2.55,-3.33 -4.69,-4.43 -2.15,-1.11 -4.49,-1.67 -7.03,-1.67 -2.47,0 -4.69,0.52 -6.68,1.56 -1.98,1.04 -3.64,2.55 -4.96,4.54l23.36 0zm15.69 -1.47l0 18.01c0,1.61 0.09,2.79 0.29,3.57 0.19,0.77 0.56,1.3 1.09,1.57 0.54,0.28 1.37,0.42 2.49,0.42l0.71 0 0 1.26 -11.36 0 0 -1.26 3.55 0 0 -25.6 -2.87 3.36 -0.96 -0.85 7.84 -9.25 1 0.85 -1.78 2.09 0 3.15c1.27,-1.49 2.52,-2.55 3.73,-3.22 1.21,-0.66 2.52,-0.99 3.94,-0.99 1.37,0 2.71,0.35 4.04,1.06l0 -2.8 1.34 0 0.07 13.39 -1.24 0 0 -0.48 -0.17 -2.19c-0.07,-1.38 -0.18,-2.4 -0.36,-3.09 -0.17,-0.69 -0.44,-1.31 -0.81,-1.88 -0.93,-1.3 -2.22,-1.95 -3.87,-1.95 -1.25,0 -2.47,0.43 -3.66,1.3 -1.19,0.86 -2.19,2.04 -3.01,3.53zm34.59 5.48l0 -0.86 0 -0.82c0,-1.71 -0.15,-3.14 -0.44,-4.27 -0.3,-1.12 -0.74,-2.02 -1.31,-2.69 -1.27,-1.41 -2.91,-2.12 -4.89,-2.12 -2.36,0 -4.31,0.85 -5.85,2.54 -1.56,1.68 -2.51,4 -2.86,6.95l-1.06 0 0 -13.05 1.41 0 0 6.44c2.14,-3.09 5.14,-4.63 8.97,-4.63 1.26,0 2.43,0.2 3.52,0.58 1.08,0.39 2.02,0.96 2.84,1.72 0.81,0.75 1.45,1.63 1.93,2.63 0.57,1.22 0.89,2.72 0.96,4.49l0 1.96c0.05,0.79 0.07,1.45 0.07,1.95l0 11.71c0,1.61 0.1,2.79 0.3,3.57 0.21,0.77 0.59,1.3 1.13,1.57 0.53,0.28 1.34,0.42 2.44,0.42l0.34 0 0 1.26 -7.43 0 0 -2.16c-2.26,1.9 -4.8,2.85 -7.64,2.85 -1.94,0 -3.71,-0.46 -5.32,-1.34 -1.62,-0.89 -2.89,-2.1 -3.84,-3.63 -0.94,-1.53 -1.42,-3.19 -1.42,-4.97 0,-1.94 0.58,-3.77 1.75,-5.52 1.16,-1.73 2.71,-3.14 4.67,-4.23 1.95,-1.07 3.99,-1.62 6.11,-1.62 2.17,0 4.05,0.42 5.62,1.27zm0.07 3.55c-0.83,-0.91 -1.85,-1.63 -3.12,-2.18 -1.25,-0.55 -2.51,-0.82 -3.76,-0.82 -1.53,0 -2.95,0.35 -4.25,1.08 -1.31,0.71 -2.32,1.71 -3.05,3.01 -0.73,1.29 -1.1,2.67 -1.1,4.13 0,1.64 0.41,3.18 1.22,4.61 0.81,1.42 1.9,2.56 3.27,3.39 1.37,0.83 2.84,1.25 4.42,1.25 2.12,0 4.25,-0.96 6.37,-2.88l0 -11.59zm18.01 -33.73l0 42.71c0,1.61 0.1,2.79 0.31,3.57 0.2,0.77 0.58,1.3 1.11,1.57 0.54,0.28 1.36,0.42 2.45,0.42l0.35 0 0 1.26 -10.93 0 0 -1.26 3.49 0 0 -44.47 -2.8 3.36 -1 -0.85 7.81 -9.25 0.96 0.85 -1.75 2.09zm51.14 3.8l-2.81 3.36 -0.99 -0.85 7.77 -9.25 1 0.85 -1.76 2.09 0 42.71c0,1.61 0.11,2.79 0.29,3.55 0.2,0.77 0.57,1.29 1.09,1.57 0.52,0.29 1.36,0.44 2.49,0.44l0.35 0 0 1.26 -7.36 0 -0.07 -4.76c-3.18,3.88 -7.15,5.82 -11.93,5.82 -2.9,0 -5.56,-0.69 -8.01,-2.07 -2.44,-1.39 -4.38,-3.26 -5.82,-5.63 -1.44,-2.39 -2.16,-4.96 -2.16,-7.74 0,-2.99 0.85,-5.82 2.57,-8.49 1.71,-2.65 3.99,-4.78 6.82,-6.38 2.82,-1.6 5.82,-2.4 8.97,-2.4 1.85,0 3.62,0.29 5.29,0.89 1.68,0.6 3.1,1.4 4.27,2.43l0 -17.4zm0 21.59c-1.3,-1.68 -2.91,-2.96 -4.82,-3.88 -1.91,-0.92 -3.95,-1.37 -6.15,-1.37 -2.62,0 -5.02,0.61 -7.17,1.8 -2.16,1.2 -3.84,2.85 -5.07,4.97 -1.22,2.11 -1.84,4.43 -1.84,6.96 0,2.59 0.63,4.97 1.89,7.18 1.26,2.2 2.95,3.96 5.09,5.26 2.13,1.3 4.43,1.96 6.9,1.96 2.26,0 4.32,-0.54 6.19,-1.62 1.85,-1.07 3.51,-2.71 4.98,-4.89l0 -16.37zm44.17 2.25l-28.77 0c-0.84,1.73 -1.26,3.67 -1.26,5.83 0,2.03 0.38,3.92 1.14,5.7 0.76,1.77 1.83,3.32 3.18,4.68 1.37,1.34 2.96,2.39 4.81,3.14 1.84,0.76 3.75,1.14 5.76,1.14 1.97,0 3.87,-0.37 5.71,-1.08 1.84,-0.72 3.47,-1.76 4.9,-3.12 1.42,-1.36 2.63,-3.02 3.61,-4.98l1.4 0.68c-1.39,3.32 -3.59,5.97 -6.59,7.96 -3,2 -6.31,3 -9.95,3 -2.4,0 -4.59,-0.38 -6.59,-1.14 -2,-0.77 -3.76,-1.87 -5.26,-3.3 -1.5,-1.43 -2.68,-3.1 -3.51,-5.03 -0.83,-1.93 -1.25,-4.02 -1.25,-6.25 0,-2.99 0.83,-5.8 2.46,-8.43 1.65,-2.62 3.86,-4.7 6.63,-6.24 2.77,-1.55 5.78,-2.32 8.99,-2.32 2.2,0 4.28,0.42 6.27,1.25 1.99,0.83 3.72,1.99 5.18,3.46 1.46,1.48 2.51,3.16 3.14,5.05zm-4.41 -1.47c-0.99,-1.85 -2.55,-3.33 -4.69,-4.43 -2.15,-1.11 -4.49,-1.67 -7.03,-1.67 -2.47,0 -4.69,0.52 -6.68,1.56 -1.98,1.04 -3.64,2.55 -4.96,4.54l23.36 0zm15.41 -26.17l0 42.71c0,1.61 0.1,2.79 0.31,3.57 0.2,0.77 0.58,1.3 1.11,1.57 0.54,0.28 1.36,0.42 2.45,0.42l0.35 0 0 1.26 -10.93 0 0 -1.26 3.49 0 0 -44.47 -2.8 3.36 -1 -0.85 7.81 -9.25 0.96 0.85 -1.75 2.09zm65.59 0.65l0 17.09 -1.27 0 0 -0.55 -0.07 -2.12c-0.14,-3.7 -1.26,-6.45 -3.39,-8.25 -1.14,-1.01 -2.71,-1.81 -4.72,-2.4 -2.01,-0.59 -4.15,-0.9 -6.41,-0.9 -3.11,0 -5.99,0.56 -8.68,1.69 -2.68,1.12 -5.02,2.67 -7.01,4.69 -1.98,2.01 -3.53,4.36 -4.63,7.06 -1.08,2.69 -1.63,5.62 -1.63,8.8 0,3.12 0.6,6.09 1.83,8.91 1.22,2.81 2.91,5.28 5.09,7.42 2.16,2.16 4.66,3.83 7.49,5.02 2.84,1.2 5.81,1.8 8.95,1.8 2.87,0 5.63,-0.49 8.26,-1.48 2.64,-1 4.96,-2.42 6.95,-4.27l1.12 1.17c-1.46,1.44 -3.1,2.64 -4.92,3.62 -1.84,0.98 -3.77,1.73 -5.81,2.23 -2.05,0.51 -4.22,0.75 -6.53,0.75 -4.88,0 -9.35,-1.07 -13.41,-3.24 -4.05,-2.15 -7.25,-5.09 -9.58,-8.81 -2.35,-3.73 -3.52,-7.85 -3.52,-12.37 0,-2.57 0.48,-5.17 1.43,-7.75 0.96,-2.6 2.34,-4.99 4.13,-7.2 1.8,-2.2 3.92,-4.12 6.36,-5.73 2.19,-1.49 4.56,-2.59 7.11,-3.3 2.54,-0.7 5.3,-1.05 8.27,-1.05 4.45,0 8.87,0.98 13.25,2.94l0 -3.77 1.34 0zm13.46 23.36l0 18.7c0,1.61 0.09,2.79 0.29,3.57 0.2,0.77 0.55,1.3 1.06,1.57 0.52,0.28 1.34,0.42 2.45,0.42l0.35 0 0 1.26 -10.93 0 0 -1.26 3.56 0 0 -44.47 -2.87 3.36 -1 -0.85 7.81 -9.25 0.96 0.85 -1.68 2.09 0 21.34c1.76,-2.35 4.17,-3.53 7.22,-3.53 3.41,0 5.91,1.38 7.51,4.15 0.43,0.75 0.71,1.57 0.85,2.44 0.14,0.88 0.21,2.46 0.21,4.72l0 13.59c0,1.61 0.11,2.79 0.31,3.57 0.21,0.77 0.57,1.3 1.11,1.57 0.54,0.28 1.35,0.42 2.45,0.42l0.34 0 0 1.26 -10.95 0 0 -1.26 3.52 0 0 -16.69 0 -2.8c0,-1.99 -0.1,-3.44 -0.3,-4.34 -0.18,-0.9 -0.6,-1.71 -1.24,-2.42 -1.23,-1.44 -2.91,-2.15 -5,-2.15 -1.32,0 -2.51,0.36 -3.57,1.1 -1.05,0.72 -1.87,1.74 -2.46,3.04zm30.94 -5.14l0 23.84c0,1.61 0.09,2.79 0.29,3.57 0.19,0.77 0.56,1.3 1.09,1.57 0.54,0.28 1.37,0.42 2.49,0.42l0.34 0 0 1.26 -10.99 0 0 -1.26 3.55 0 0 -25.6 -2.87 3.36 -0.96 -0.85 7.84 -9.25 1 0.85 -1.78 2.09zm-2.16 -15.79c0.69,0 1.27,0.24 1.75,0.72 0.48,0.48 0.71,1.07 0.71,1.75 0,0.69 -0.23,1.27 -0.71,1.75 -0.48,0.48 -1.06,0.71 -1.75,0.71 -0.64,0 -1.21,-0.23 -1.71,-0.71 -0.5,-0.48 -0.76,-1.06 -0.76,-1.75 0,-0.68 0.26,-1.27 0.76,-1.75 0.5,-0.48 1.07,-0.72 1.71,-0.72zm35.14 19.93c-1.2,-0.82 -2.53,-1.47 -4.01,-1.95 -1.49,-0.48 -3,-0.71 -4.53,-0.71 -1.8,0 -3.54,0.36 -5.2,1.07 -1.67,0.73 -3.11,1.69 -4.32,2.9 -1.21,1.21 -2.16,2.63 -2.86,4.26 -0.7,1.64 -1.04,3.35 -1.04,5.15 0,2.59 0.65,5.01 1.99,7.27 1.32,2.26 3.11,4.06 5.37,5.4 2.26,1.33 4.67,2 7.23,2 1.96,0 3.81,-0.39 5.57,-1.16 1.74,-0.78 3.37,-1.91 4.91,-3.39l1.02 0.92c-1.39,1.87 -3.19,3.33 -5.41,4.39 -2.21,1.05 -4.63,1.57 -7.26,1.57 -2.26,0 -4.36,-0.38 -6.3,-1.15 -1.94,-0.76 -3.67,-1.87 -5.19,-3.34 -1.52,-1.46 -2.67,-3.14 -3.46,-5.03 -0.79,-1.9 -1.18,-3.92 -1.18,-6.06 0,-2.25 0.48,-4.41 1.43,-6.51 0.96,-2.11 2.28,-3.97 3.94,-5.59 1.68,-1.62 3.58,-2.89 5.75,-3.8 2.16,-0.91 4.36,-1.37 6.62,-1.37 2.79,0 5.09,0.47 6.93,1.4l0 -3.42 1.4 0 0 17.82 -1.4 0 0 -10.67zm7.19 12.2c0,-2.9 0.84,-5.68 2.53,-8.37 1.7,-2.68 3.93,-4.83 6.71,-6.42 2.8,-1.6 5.73,-2.4 8.84,-2.4 2.88,0 5.52,0.68 7.92,2.05 2.4,1.38 4.3,3.24 5.7,5.6 1.41,2.37 2.11,4.99 2.11,7.87 0,3.01 -0.82,5.84 -2.47,8.48 -1.65,2.66 -3.86,4.77 -6.64,6.34 -2.79,1.58 -5.75,2.37 -8.87,2.37 -2.88,0 -5.53,-0.69 -7.96,-2.05 -2.44,-1.37 -4.35,-3.24 -5.77,-5.6 -1.4,-2.37 -2.1,-5 -2.1,-7.87zm16.61 -14.79c-1.78,0 -3.5,0.35 -5.16,1.04 -1.64,0.7 -3.11,1.68 -4.38,2.94 -1.26,1.27 -2.26,2.72 -2.98,4.35 -0.71,1.64 -1.08,3.32 -1.08,5.05 0,2.54 0.63,4.94 1.91,7.18 1.26,2.25 2.99,4.03 5.17,5.33 2.18,1.3 4.51,1.96 7,1.96 2.49,0 4.79,-0.59 6.92,-1.76 2.13,-1.15 3.79,-2.74 4.98,-4.74 1.21,-2 1.8,-4.19 1.8,-6.56 0,-1.99 -0.36,-3.9 -1.1,-5.72 -0.72,-1.82 -1.75,-3.41 -3.06,-4.78 -1.31,-1.36 -2.83,-2.41 -4.56,-3.17 -1.72,-0.75 -3.54,-1.12 -5.46,-1.12z"/>
   <path id="1" class="fil4" d="M85.6 512.29l-10.67 27.92 -11.43 -26.78 0 33.15c0,1.1 0.07,2.03 0.2,2.76 0.14,0.74 0.37,1.31 0.69,1.7 0.31,0.38 0.78,0.66 1.4,0.84 0.62,0.16 1.39,0.28 2.33,0.33l0 1.26 -10.78 0 0 -1.26 4.28 0 0 -37.83c0,-1.84 -0.12,-3.19 -0.37,-4.02 -0.23,-0.83 -0.7,-1.4 -1.36,-1.72 -0.68,-0.3 -1.79,-0.49 -3.35,-0.56l0 -1.4 8.36 0 11.1 26.38 9.79 -26.38 7.89 0 0 1.26 -4.21 0 0 38.64 0 1.14c0,1.34 0.1,2.32 0.31,2.92 0.22,0.61 0.63,1.02 1.22,1.24 0.59,0.21 1.53,0.33 2.82,0.33l0.19 0 0 1.26 -12.63 0 0 -1.26 4.22 0 0 -39.92zm20.2 10.52l0 23.84c0,1.61 0.09,2.79 0.29,3.57 0.19,0.77 0.56,1.3 1.09,1.57 0.54,0.28 1.37,0.42 2.49,0.42l0.34 0 0 1.26 -10.99 0 0 -1.26 3.55 0 0 -25.6 -2.87 3.36 -0.96 -0.85 7.84 -9.25 1 0.85 -1.78 2.09zm-2.16 -15.79c0.69,0 1.27,0.24 1.75,0.72 0.48,0.48 0.71,1.07 0.71,1.75 0,0.69 -0.23,1.27 -0.71,1.75 -0.48,0.48 -1.06,0.71 -1.75,0.71 -0.64,0 -1.21,-0.23 -1.71,-0.71 -0.5,-0.48 -0.76,-1.06 -0.76,-1.75 0,-0.68 0.26,-1.27 0.76,-1.75 0.5,-0.48 1.07,-0.72 1.71,-0.72zm14.3 19.59l-2.87 3.36 -0.96 -0.85 7.84 -9.25 1 0.85 -1.78 2.09 0 3.36c2.01,-2.85 4.63,-4.28 7.88,-4.28 1.09,0 2.17,0.21 3.23,0.64 1.06,0.45 1.95,1.04 2.65,1.83 0.64,0.68 1.11,1.32 1.39,1.92 0.29,0.59 0.49,1.34 0.6,2.24 0.11,0.9 0.17,2.19 0.17,3.85l0 14.28c0,1.61 0.1,2.79 0.29,3.57 0.2,0.77 0.57,1.3 1.1,1.57 0.54,0.28 1.36,0.42 2.48,0.42l0.34 0 0 1.26 -10.99 0 0 -1.26 3.57 0 0 -17.2 0 -1.81 -0.07 -2.41c0,-1.46 -0.13,-2.56 -0.4,-3.32 -0.26,-0.75 -0.74,-1.42 -1.42,-1.99 -1.09,-1.02 -2.47,-1.53 -4.15,-1.53 -1.73,0 -3.21,0.55 -4.43,1.66 -1.22,1.1 -1.97,2.58 -2.24,4.43l0 16.61c0,1.61 0.09,2.79 0.29,3.57 0.19,0.77 0.56,1.3 1.09,1.57 0.54,0.28 1.37,0.42 2.49,0.42l0.41 0 0 1.26 -10.93 0 0 -1.26 3.42 0 0 -25.6zm59.83 4.97l-28.77 0c-0.84,1.73 -1.26,3.67 -1.26,5.83 0,2.03 0.38,3.92 1.14,5.7 0.76,1.77 1.83,3.32 3.18,4.68 1.37,1.34 2.96,2.39 4.81,3.14 1.84,0.76 3.75,1.14 5.76,1.14 1.97,0 3.87,-0.37 5.71,-1.08 1.84,-0.72 3.47,-1.76 4.9,-3.12 1.42,-1.36 2.63,-3.02 3.61,-4.98l1.4 0.68c-1.39,3.32 -3.59,5.97 -6.59,7.96 -3,2 -6.31,3 -9.95,3 -2.4,0 -4.59,-0.38 -6.59,-1.14 -2,-0.77 -3.76,-1.87 -5.26,-3.3 -1.5,-1.43 -2.68,-3.1 -3.51,-5.03 -0.83,-1.93 -1.25,-4.02 -1.25,-6.25 0,-2.99 0.83,-5.8 2.46,-8.43 1.65,-2.62 3.86,-4.7 6.63,-6.24 2.77,-1.55 5.78,-2.32 8.99,-2.32 2.2,0 4.28,0.42 6.27,1.25 1.99,0.83 3.72,1.99 5.18,3.46 1.46,1.48 2.51,3.16 3.14,5.05zm-4.41 -1.47c-0.99,-1.85 -2.55,-3.33 -4.69,-4.43 -2.15,-1.11 -4.49,-1.67 -7.03,-1.67 -2.47,0 -4.69,0.52 -6.68,1.56 -1.98,1.04 -3.64,2.55 -4.96,4.54l23.36 0zm15.69 -1.47l0 18.01c0,1.61 0.09,2.79 0.29,3.57 0.19,0.77 0.56,1.3 1.09,1.57 0.54,0.28 1.37,0.42 2.49,0.42l0.71 0 0 1.26 -11.36 0 0 -1.26 3.55 0 0 -25.6 -2.87 3.36 -0.96 -0.85 7.84 -9.25 1 0.85 -1.78 2.09 0 3.15c1.27,-1.49 2.52,-2.55 3.73,-3.22 1.21,-0.66 2.52,-0.99 3.94,-0.99 1.37,0 2.71,0.35 4.04,1.06l0 -2.8 1.34 0 0.07 13.39 -1.24 0 0 -0.48 -0.17 -2.19c-0.07,-1.38 -0.18,-2.4 -0.36,-3.09 -0.17,-0.69 -0.44,-1.31 -0.81,-1.88 -0.93,-1.3 -2.22,-1.95 -3.87,-1.95 -1.25,0 -2.47,0.43 -3.66,1.3 -1.19,0.86 -2.19,2.04 -3.01,3.53zm34.59 5.48l0 -0.86 0 -0.82c0,-1.71 -0.15,-3.14 -0.44,-4.27 -0.3,-1.12 -0.74,-2.02 -1.31,-2.69 -1.27,-1.41 -2.91,-2.12 -4.89,-2.12 -2.36,0 -4.31,0.85 -5.85,2.54 -1.56,1.68 -2.51,4 -2.86,6.95l-1.06 0 0 -13.05 1.41 0 0 6.44c2.14,-3.09 5.14,-4.63 8.97,-4.63 1.26,0 2.43,0.2 3.52,0.58 1.08,0.39 2.02,0.96 2.84,1.72 0.81,0.75 1.45,1.63 1.93,2.63 0.57,1.22 0.89,2.72 0.96,4.49l0 1.96c0.05,0.79 0.07,1.45 0.07,1.95l0 11.71c0,1.61 0.1,2.79 0.3,3.57 0.21,0.77 0.59,1.3 1.13,1.57 0.53,0.28 1.34,0.42 2.44,0.42l0.34 0 0 1.26 -7.43 0 0 -2.16c-2.26,1.9 -4.8,2.85 -7.64,2.85 -1.94,0 -3.71,-0.46 -5.32,-1.34 -1.62,-0.89 -2.89,-2.1 -3.84,-3.63 -0.94,-1.53 -1.42,-3.19 -1.42,-4.97 0,-1.94 0.58,-3.77 1.75,-5.52 1.16,-1.73 2.71,-3.14 4.67,-4.23 1.95,-1.07 3.99,-1.62 6.11,-1.62 2.17,0 4.05,0.42 5.62,1.27zm0.07 3.55c-0.83,-0.91 -1.85,-1.63 -3.12,-2.18 -1.25,-0.55 -2.51,-0.82 -3.76,-0.82 -1.53,0 -2.95,0.35 -4.25,1.08 -1.31,0.71 -2.32,1.71 -3.05,3.01 -0.73,1.29 -1.1,2.67 -1.1,4.13 0,1.64 0.41,3.18 1.22,4.61 0.81,1.42 1.9,2.56 3.27,3.39 1.37,0.83 2.84,1.25 4.42,1.25 2.12,0 4.25,-0.96 6.37,-2.88l0 -11.59zm18.01 -33.73l0 42.71c0,1.61 0.1,2.79 0.31,3.57 0.2,0.77 0.58,1.3 1.11,1.57 0.54,0.28 1.36,0.42 2.45,0.42l0.35 0 0 1.26 -10.93 0 0 -1.26 3.49 0 0 -44.47 -2.8 3.36 -1 -0.85 7.81 -9.25 0.96 0.85 -1.75 2.09zm51.14 3.8l-2.81 3.36 -0.99 -0.85 7.77 -9.25 1 0.85 -1.76 2.09 0 42.71c0,1.61 0.11,2.79 0.29,3.55 0.2,0.77 0.57,1.29 1.09,1.57 0.52,0.29 1.36,0.44 2.49,0.44l0.35 0 0 1.26 -7.36 0 -0.07 -4.76c-3.18,3.88 -7.15,5.82 -11.93,5.82 -2.9,0 -5.56,-0.69 -8.01,-2.07 -2.44,-1.39 -4.38,-3.26 -5.82,-5.63 -1.44,-2.39 -2.16,-4.96 -2.16,-7.74 0,-2.99 0.85,-5.82 2.57,-8.49 1.71,-2.65 3.99,-4.78 6.82,-6.38 2.82,-1.6 5.82,-2.4 8.97,-2.4 1.85,0 3.62,0.29 5.29,0.89 1.68,0.6 3.1,1.4 4.27,2.43l0 -17.4zm0 21.59c-1.3,-1.68 -2.91,-2.96 -4.82,-3.88 -1.91,-0.92 -3.95,-1.37 -6.15,-1.37 -2.62,0 -5.02,0.61 -7.17,1.8 -2.16,1.2 -3.84,2.85 -5.07,4.97 -1.22,2.11 -1.84,4.43 -1.84,6.96 0,2.59 0.63,4.97 1.89,7.18 1.26,2.2 2.95,3.96 5.09,5.26 2.13,1.3 4.43,1.96 6.9,1.96 2.26,0 4.32,-0.54 6.19,-1.62 1.85,-1.07 3.51,-2.71 4.98,-4.89l0 -16.37zm44.17 2.25l-28.77 0c-0.84,1.73 -1.26,3.67 -1.26,5.83 0,2.03 0.38,3.92 1.14,5.7 0.76,1.77 1.83,3.32 3.18,4.68 1.37,1.34 2.96,2.39 4.81,3.14 1.84,0.76 3.75,1.14 5.76,1.14 1.97,0 3.87,-0.37 5.71,-1.08 1.84,-0.72 3.47,-1.76 4.9,-3.12 1.42,-1.36 2.63,-3.02 3.61,-4.98l1.4 0.68c-1.39,3.32 -3.59,5.97 -6.59,7.96 -3,2 -6.31,3 -9.95,3 -2.4,0 -4.59,-0.38 -6.59,-1.14 -2,-0.77 -3.76,-1.87 -5.26,-3.3 -1.5,-1.43 -2.68,-3.1 -3.51,-5.03 -0.83,-1.93 -1.25,-4.02 -1.25,-6.25 0,-2.99 0.83,-5.8 2.46,-8.43 1.65,-2.62 3.86,-4.7 6.63,-6.24 2.77,-1.55 5.78,-2.32 8.99,-2.32 2.2,0 4.28,0.42 6.27,1.25 1.99,0.83 3.72,1.99 5.18,3.46 1.46,1.48 2.51,3.16 3.14,5.05zm-4.41 -1.47c-0.99,-1.85 -2.55,-3.33 -4.69,-4.43 -2.15,-1.11 -4.49,-1.67 -7.03,-1.67 -2.47,0 -4.69,0.52 -6.68,1.56 -1.98,1.04 -3.64,2.55 -4.96,4.54l23.36 0zm15.41 -26.17l0 42.71c0,1.61 0.1,2.79 0.31,3.57 0.2,0.77 0.58,1.3 1.11,1.57 0.54,0.28 1.36,0.42 2.45,0.42l0.35 0 0 1.26 -10.93 0 0 -1.26 3.49 0 0 -44.47 -2.8 3.36 -1 -0.85 7.81 -9.25 0.96 0.85 -1.75 2.09zm65.59 0.65l0 17.09 -1.27 0 0 -0.55 -0.07 -2.12c-0.14,-3.7 -1.26,-6.45 -3.39,-8.25 -1.14,-1.01 -2.71,-1.81 -4.72,-2.4 -2.01,-0.59 -4.15,-0.9 -6.41,-0.9 -3.11,0 -5.99,0.56 -8.68,1.69 -2.68,1.12 -5.02,2.67 -7.01,4.69 -1.98,2.01 -3.53,4.36 -4.63,7.06 -1.08,2.69 -1.63,5.62 -1.63,8.8 0,3.12 0.6,6.09 1.83,8.91 1.22,2.81 2.91,5.28 5.09,7.42 2.16,2.16 4.66,3.83 7.49,5.02 2.84,1.2 5.81,1.8 8.95,1.8 2.87,0 5.63,-0.49 8.26,-1.48 2.64,-1 4.96,-2.42 6.95,-4.27l1.12 1.17c-1.46,1.44 -3.1,2.64 -4.92,3.62 -1.84,0.98 -3.77,1.73 -5.81,2.23 -2.05,0.51 -4.22,0.75 -6.53,0.75 -4.88,0 -9.35,-1.07 -13.41,-3.24 -4.05,-2.15 -7.25,-5.09 -9.58,-8.81 -2.35,-3.73 -3.52,-7.85 -3.52,-12.37 0,-2.57 0.48,-5.17 1.43,-7.75 0.96,-2.6 2.34,-4.99 4.13,-7.2 1.8,-2.2 3.92,-4.12 6.36,-5.73 2.19,-1.49 4.56,-2.59 7.11,-3.3 2.54,-0.7 5.3,-1.05 8.27,-1.05 4.45,0 8.87,0.98 13.25,2.94l0 -3.77 1.34 0zm13.46 23.36l0 18.7c0,1.61 0.09,2.79 0.29,3.57 0.2,0.77 0.55,1.3 1.06,1.57 0.52,0.28 1.34,0.42 2.45,0.42l0.35 0 0 1.26 -10.93 0 0 -1.26 3.56 0 0 -44.47 -2.87 3.36 -1 -0.85 7.81 -9.25 0.96 0.85 -1.68 2.09 0 21.34c1.76,-2.35 4.17,-3.53 7.22,-3.53 3.41,0 5.91,1.38 7.51,4.15 0.43,0.75 0.71,1.57 0.85,2.44 0.14,0.88 0.21,2.46 0.21,4.72l0 13.59c0,1.61 0.11,2.79 0.31,3.57 0.21,0.77 0.57,1.3 1.11,1.57 0.54,0.28 1.35,0.42 2.45,0.42l0.34 0 0 1.26 -10.95 0 0 -1.26 3.52 0 0 -16.69 0 -2.8c0,-1.99 -0.1,-3.44 -0.3,-4.34 -0.18,-0.9 -0.6,-1.71 -1.24,-2.42 -1.23,-1.44 -2.91,-2.15 -5,-2.15 -1.32,0 -2.51,0.36 -3.57,1.1 -1.05,0.72 -1.87,1.74 -2.46,3.04zm30.94 -5.14l0 23.84c0,1.61 0.09,2.79 0.29,3.57 0.19,0.77 0.56,1.3 1.09,1.57 0.54,0.28 1.37,0.42 2.49,0.42l0.34 0 0 1.26 -10.99 0 0 -1.26 3.55 0 0 -25.6 -2.87 3.36 -0.96 -0.85 7.84 -9.25 1 0.85 -1.78 2.09zm-2.16 -15.79c0.69,0 1.27,0.24 1.75,0.72 0.48,0.48 0.71,1.07 0.71,1.75 0,0.69 -0.23,1.27 -0.71,1.75 -0.48,0.48 -1.06,0.71 -1.75,0.71 -0.64,0 -1.21,-0.23 -1.71,-0.71 -0.5,-0.48 -0.76,-1.06 -0.76,-1.75 0,-0.68 0.26,-1.27 0.76,-1.75 0.5,-0.48 1.07,-0.72 1.71,-0.72zm35.14 19.93c-1.2,-0.82 -2.53,-1.47 -4.01,-1.95 -1.49,-0.48 -3,-0.71 -4.53,-0.71 -1.8,0 -3.54,0.36 -5.2,1.07 -1.67,0.73 -3.11,1.69 -4.32,2.9 -1.21,1.21 -2.16,2.63 -2.86,4.26 -0.7,1.64 -1.04,3.35 -1.04,5.15 0,2.59 0.65,5.01 1.99,7.27 1.32,2.26 3.11,4.06 5.37,5.4 2.26,1.33 4.67,2 7.23,2 1.96,0 3.81,-0.39 5.57,-1.16 1.74,-0.78 3.37,-1.91 4.91,-3.39l1.02 0.92c-1.39,1.87 -3.19,3.33 -5.41,4.39 -2.21,1.05 -4.63,1.57 -7.26,1.57 -2.26,0 -4.36,-0.38 -6.3,-1.15 -1.94,-0.76 -3.67,-1.87 -5.19,-3.34 -1.52,-1.46 -2.67,-3.14 -3.46,-5.03 -0.79,-1.9 -1.18,-3.92 -1.18,-6.06 0,-2.25 0.48,-4.41 1.43,-6.51 0.96,-2.11 2.28,-3.97 3.94,-5.59 1.68,-1.62 3.58,-2.89 5.75,-3.8 2.16,-0.91 4.36,-1.37 6.62,-1.37 2.79,0 5.09,0.47 6.93,1.4l0 -3.42 1.4 0 0 17.82 -1.4 0 0 -10.67zm7.19 12.2c0,-2.9 0.84,-5.68 2.53,-8.37 1.7,-2.68 3.93,-4.83 6.71,-6.42 2.8,-1.6 5.73,-2.4 8.84,-2.4 2.88,0 5.52,0.68 7.92,2.05 2.4,1.38 4.3,3.24 5.7,5.6 1.41,2.37 2.11,4.99 2.11,7.87 0,3.01 -0.82,5.84 -2.47,8.48 -1.65,2.66 -3.86,4.77 -6.64,6.34 -2.79,1.58 -5.75,2.37 -8.87,2.37 -2.88,0 -5.53,-0.69 -7.96,-2.05 -2.44,-1.37 -4.35,-3.24 -5.77,-5.6 -1.4,-2.37 -2.1,-5 -2.1,-7.87zm16.61 -14.79c-1.78,0 -3.5,0.35 -5.16,1.04 -1.64,0.7 -3.11,1.68 -4.38,2.94 -1.26,1.27 -2.26,2.72 -2.98,4.35 -0.71,1.64 -1.08,3.32 -1.08,5.05 0,2.54 0.63,4.94 1.91,7.18 1.26,2.25 2.99,4.03 5.17,5.33 2.18,1.3 4.51,1.96 7,1.96 2.49,0 4.79,-0.59 6.92,-1.76 2.13,-1.15 3.79,-2.74 4.98,-4.74 1.21,-2 1.8,-4.19 1.8,-6.56 0,-1.99 -0.36,-3.9 -1.1,-5.72 -0.72,-1.82 -1.75,-3.41 -3.06,-4.78 -1.31,-1.36 -2.83,-2.41 -4.56,-3.17 -1.72,-0.75 -3.54,-1.12 -5.46,-1.12z"/>
  </g>
  <g>
   <g id="_2839049812240">
    <polygon class="fil5" points="227.79,255.31 227.79,254.83 227.24,255.23 "/>
    <path class="fil5" d="M226.36 254.36l0.15 -0.14c-0.01,0.01 -0.19,0.09 -0.15,0.14z"/>
   </g>
   <g id="_2839049813360">
    <polygon class="fil5" points="244.91,251.03 245.39,251.03 244.99,250.47 "/>
    <polygon class="fil5" points="287.72,214.41 288.2,213.45 "/>
   </g>
   <g id="_2839049810032">
    <path class="fil5" d="M222.08 266.72c1.57,-1.15 0.54,-0.51 1.43,-2.37 -1.91,0.51 -1.38,0.12 -1.43,2.37z"/>
    <path class="fil5" d="M243.49 250.08c-0.08,0.08 -0.19,0.1 -0.22,0.26l-1.69 2.59c1.65,-0.44 1.74,-0.83 1.91,-2.85z"/>
   </g>
   <g id="_2839049811600">
    <path class="fil5" d="M332.43 281.47c0,2.77 -0.15,2.68 1.9,2.85 0,-3.51 0.28,-3.14 -1.43,-4.28 -0.32,0.58 -0.47,0.51 -0.47,1.43z"/>
    <path class="fil5" d="M218.75 261.02l0.15 -0.15c-0.01,0.01 -0.19,0.1 -0.15,0.15z"/>
   </g>
   <g id="_2839049808752">
    <path class="fil5" d="M288.67 241.99c1.99,0 3,0.34 4.28,0.95 0.54,2.31 0.21,0.82 0.08,2.51 -0.19,2.49 -0.42,1.31 1.35,2.25l0 -6.18 -4.49 -0.22c-2.21,0.6 -0.33,0.07 -1.22,0.69z"/>
    <path class="fil5" d="M340.51 289.08c0.64,-0.34 2.97,-0.04 0.48,-4.76 -1.08,0.72 -2.2,1.16 -0.48,4.76z"/>
    <path class="fil5" d="M360.01 265.77c1.11,-2.3 0.06,-4.71 -1.9,-5.23 -0.6,1.3 -0.36,1.13 0.3,2.53 0.85,1.82 0.26,1.72 1.6,2.7z"/>
    <path class="fil5" d="M323.39 294.79c1.06,-0.29 1.43,-0.12 1.43,-1.43 0,-1.46 -1.18,-2.06 -2.38,-2.38 0.3,1.31 0.65,2.5 0.95,3.81z"/>
   </g>
   <g id="_2839049809360">
    <path class="fil5" d="M356.68 258.64c2.94,-2.56 0.94,-1.7 0,-5.71l-1.42 0c-0.73,1.77 0.88,1.58 0.95,4.76l-1.74 -2.94c0.03,2.38 0.6,1.6 0.79,3.89l1.42 0z"/>
    <path class="fil5" d="M250.62 269.1c1.69,-0.45 1.97,-0.93 2.57,-2.66 0.66,-1.86 1.19,-2.42 1.24,-4.47 -1.98,0.52 -1.18,0.88 -2.22,3.02 -0.81,1.67 -1.14,2.18 -1.59,4.11z"/>
    <path class="fil5" d="M337.66 269.58c1.61,2.4 1.43,1.76 1.43,5.23l1.42 0c-0.04,-2.16 -0.45,-4.25 -1.42,-5.71 -0.83,0.46 -0.94,0.28 -1.43,0.48z"/>
    <path class="fil5" d="M352.4 268.63l1.43 0c-0.12,-1.49 -0.47,-1.69 -0.47,-3.33l0 -1.43 -1.43 0c0.04,2.1 0.47,2.22 0.47,4.76z"/>
   </g>
   <g id="_2839049805808">
    <path class="fil5" d="M288.67 232.95l0 1.43c-1.51,-0.5 -0.91,-0.38 0,-1.43zm-1.43 -0.95l0 0zm8.56 -2.37c1.49,-0.35 1.52,-0.65 2.86,0 -0.26,1.1 -0.14,1.82 -1.46,1.87 -1.41,0.06 -1.29,-0.57 -1.4,-1.87zm-8.56 2.37c0.45,-1.65 0.44,-1.74 2.38,-1.9 -0.77,0.67 -1.52,1.33 -2.38,1.9zm4.76 -2.85l0.14 0.14c-0.01,-0.01 -0.19,-0.09 -0.14,-0.14zm-6.18 2.85c0,1.64 0.12,0.72 -0.48,0.48 -1.19,0.72 -0.95,-1.16 -0.95,1.43 1.79,-0.11 1.2,0.1 2.38,-0.48 -0.08,3.39 -1.35,1.51 -1.43,5.23 2.31,-0.62 0.79,-0.19 1.86,-1.94 0.17,-0.28 0.53,-0.84 0.81,-1.1 0.73,-0.71 0.07,-0.38 1.14,-0.76 -0.71,1.46 -0.48,1.74 -0.48,3.8 3.97,-0.33 4.64,-0.41 6.18,-3.33 -1.47,-2.2 -2.57,-2.38 -6.18,-2.38 0.38,-1.41 0.07,-1.4 2.91,-2.38 2.48,-0.85 1.51,-0.06 6.13,2.38 1.11,-1.52 1.5,-0.51 2.38,-4.28 -1.72,-0.14 -2.27,-0.59 -3.81,-0.95 -1.05,0.73 -0.59,0.08 -0.95,1.43 -4.14,0 -0.79,-1.59 -5.2,-0.48 -3.16,0.79 -3.04,1.87 -4.31,3.33z"/>
    <path class="fil5" d="M329.1 262.92c3.26,1.56 13.76,-4.56 16.65,-5.23 -0.15,1.7 -1.02,3.49 -0.15,4.89 0.61,0.97 0.01,0.42 1.1,0.81 1.04,-1.86 0.31,-4.53 -0.48,-6.18 0.13,-0.07 8.05,-3.42 4.44,-3.51l-14.01 6.31c-1.29,0.48 -2.5,0.89 -3.95,1.28 -2,0.55 -2.62,0.29 -3.6,1.63z"/>
    <path class="fil5" d="M345.27 273.86c2.49,0 2.1,0.01 3.72,-1.04 3.49,-2.26 7.92,-2.38 9.6,-4.67 -3.65,0 -7.57,2.03 -10.79,3.48 -1.76,0.79 -2.09,0.57 -2.53,2.23z"/>
   </g>
   <g id="_2839049801840">
    <path class="fil5" d="M232.07 265.3l-0.26 1.02 0.26 -1.02zm5.23 0.47l0 0zm-8.56 0l1.91 -0.95 -0.54 1.88 -1.37 -0.93zm3.81 -1.42l-0.48 0.95 0.48 -0.95zm-1.9 0.47l0 0zm2.37 -1.43l-0.47 0.96 0.47 -0.96zm7.61 0c0,-1.21 0.76,-0.07 0.29,0 -0.01,0.01 -0.29,1.33 -0.29,0zm-7.61 0l0.26 -1.02 -0.26 1.02zm-1.42 -0.95l-0.27 1.03 0.27 -1.03zm-2.86 3.33l-1.87 -0.58 -0.03 -2.27c1.98,0.65 -0.37,-0.44 1.27,2.03 1.81,2.7 -0.49,-1.96 0.63,0.82zm12.84 -4.28l-0.26 1.02 0.26 -1.02zm-3.33 0.48c0.27,-0.27 2.17,-0.29 1.03,0.57 -0.69,0.53 -1.28,-0.31 -1.03,-0.57zm-6.18 -0.48l-0.47 0.95 0.47 -0.95zm8.09 -0.95l-0.26 1.02 0.26 -1.02zm-8.09 0.95l0 0zm8.56 -1.9l-0.47 0.95 0.47 -0.95zm-5.23 0.47c0.51,-0.5 1.81,0.76 0.53,0.25 -0.01,0 -1.33,0.55 -0.53,-0.25zm5.71 -1.42l-0.48 0.95 0.48 -0.95zm0.47 2.85c0.16,-1.85 0.76,-2.96 1.91,-3.8l-1.91 3.8zm-11.89 -3.8l3.36 -0.29c0.13,1.75 0.24,0.72 0.48,1.21 0.04,0.08 0.12,0.2 0.15,0.28l0.29 0.5c0.03,0.06 0.09,0.19 0.11,0.25 0.42,1.26 0.25,1.73 -0.58,2.33 -0.26,-0.97 -0.83,-2.1 -1.67,-2.64 -2.44,-1.6 -2.14,1.3 -2.14,-1.64zm11.42 0.95c0.45,-1.94 0.01,-2.28 1.43,-2.86 0.46,1.12 -0.3,2.03 -1.43,2.86zm-7.61 -2.38l1.99 0.74c-2.3,0.03 -0.92,0.72 -1.99,-0.74zm-4.28 -0.95l0 0zm4.75 -0.48l0.15 0.14c-0.01,0 -0.19,-0.09 -0.15,-0.14zm0.48 -0.95l0.14 0.14c-0.01,-0.01 -0.19,-0.09 -0.14,-0.14zm0.95 -0.95l0 0zm0.48 -0.95l-0.48 0.95 0.48 -0.95zm0 0l0.21 -1.48 -0.21 1.48zm-2.86 -4.28l1.02 1.37 -1.86 2.06c0.48,-2.32 0.96,-0.67 0.37,-2 -2.41,1.61 -2.16,3.33 -4.28,4.75l0.95 1.43 -1.43 0c0.53,1.28 -0.41,1.44 -1.43,3.31 -0.68,1.24 -1.55,2.8 -1.9,4.3 -2.3,-1.54 -3.46,-4.13 -6.18,-5.23 -2.24,0.01 0.02,-0.33 -0.95,0.95 3.2,0 4.47,2.96 6.3,4.64 2.02,1.86 4.04,3.03 5.59,5.35l3.17 -0.12c1.83,-0.36 1,0.12 3.01,0.59 0.84,-1.75 0.31,-2.16 1.9,-3.33l0 1.9 1.85 -1.94c-0.62,-1.83 -0.02,-0.01 -1.37,-1.86 3.08,0.26 4.29,2.67 7.13,3.33 -1.11,-1.66 -1.55,-1.92 -3.33,-2.85 1.87,-7 4.68,-6.48 5.71,-7.14l-3.78 -1.95 1.4 -4.23 -2.67 3.45 -1.98 -1.24c0.1,-2.26 3.48,-4.47 2.75,-6.02 -1.01,-0.44 -0.71,-0.09 -1.69,1.6 -1.02,1.76 -0.5,1.61 -2.11,2.68 -1.97,-0.52 -3.25,-3.02 -6.19,-3.8z"/>
    <path class="fil5" d="M285.83 105.96c7.71,-1.8 4.72,-11.83 4.73,-16.15 0.01,-3.24 0.28,-7.79 -0.06,-10.88 -0.92,-8.31 0.83,-8.16 -3.26,-8.16l-1.41 35.19z"/>
    <path class="fil5" d="M310.07 257.21c0,-1.64 0.51,-4.25 -0.71,-4.99 -2.38,-1.47 -8.5,0.34 -10.7,-0.72 0,6.24 -1.59,7.45 2.37,7.56 4.24,0.1 7.46,-1.72 9.04,-1.85z"/>
    <path class="fil5" d="M385.7 154.48c0.5,1.88 1.4,1.92 1.9,3.8 1.7,-0.14 7.73,-2.62 9.52,-3.32 1.53,-0.6 2.91,-1.2 4.3,-1.89 2.47,-1.22 2.52,-1.06 1.88,-3.82l-17.6 5.23z"/>
    <path class="fil5" d="M173.02 152.08c3.66,0.85 13.66,5.95 16.72,6.2 0.51,-1.88 1.4,-1.92 1.9,-3.8 -2.19,-0.05 -13.33,-4.13 -18.07,-5.23l-0.55 2.83z"/>
    <path class="fil5" d="M167.32 172.53c2.69,0.63 5.53,1.31 8.15,1.92 0.9,-1.69 -0.08,-1.37 1.91,-1.9l0 -1.43c-2.22,-0.51 -7,-1.42 -9.52,-1.42l-0.54 2.83z"/>
    <path class="fil5" d="M399.97 170.65c0.43,5.21 6.05,2.71 9.51,1.9 -0.03,-1.45 -0.22,-1.73 -0.48,-2.85 -3.17,0 -5.45,0.95 -9.03,0.95z"/>
    <path class="fil5" d="M265.84 242.94c1.25,0.29 1.4,0.44 2.38,0.95 2.49,-1.66 3.28,-2.05 3.8,-4.28 -1.62,-0.37 -2.83,-0.91 -4.75,-0.95 -0.48,1.8 -1.22,1.73 -1.43,4.28z"/>
   </g>
   <g id="_2839049793328">
    <path class="fil5" d="M279.63 311.43l9.11 -0.39 -0.07 0.9 -9.04 -0.51zm12.37 -2.38l0 0zm0.48 -1.42l-0.48 1.42 0.48 -1.42zm32.34 -0.48l3.33 0 0 0.48 -3.33 0 0 -0.48zm-32.34 0.48l0 0zm6.65 -1.91l8.09 -0.24 0 2.62c-1.49,0.13 -1.69,0.48 -3.33,0.48l-1.9 0c-2.9,0 -2.04,-1.03 -2.86,-2.86zm-4.28 0.48l0 0zm0 0l0 0zm-1.9 -0.48c0.85,-0.84 -0.84,0.85 0,0zm-14.27 0.48l0 0zm14.75 -1.43c0.84,-0.84 -0.85,0.85 0,0zm-15.22 -0.47c-0.02,-0.05 -0.45,-3.78 0.31,-0.97 0.09,0.36 0.15,2.61 -0.31,0.97zm16.17 -0.95l0 0zm-14.19 -2.84l0.45 3.79 -1.01 0 0.56 -3.79zm-13.87 3.31l3.33 0 0 0.48 -3.33 0 0 -0.48zm29.96 0.48c-0.99,0.99 -1.41,0.6 -0.4,-0.41 1,-1.01 1.4,-0.59 0.4,0.41zm-34.24 -0.48l2.85 -0.37 -2.85 0.37zm32.34 -0.47l0 0zm26.16 -0.95l3.8 0 0 0.47 -3.8 0 0 -0.47zm-4.28 0c0.5,-0.51 1.8,0.75 0.53,0.24 -0.01,0 -1.33,0.55 -0.53,-0.24zm5.23 -1.43l15.22 -0.11 0 0.58 -15.22 0 0 -0.47zm-42.81 5.23l8.13 -0.57 -0.06 -1.22 -5.69 0.37 0.6 -4.27 1.78 3.31c0,-6.13 -0.83,-4.86 2.79,-4.58 2.48,0.19 5.71,-0.64 8.63,-0.67 3.46,-0.04 5.02,0.71 9.07,0.39 4.48,-0.36 3.29,-0.17 3.29,5.34 -10.95,0.91 -6.29,-0.16 -11.68,-3.13 -6.07,-3.34 -7.57,4.43 -8.77,6.93l-8.09 -1.9zm-9.99 -6.18c0.85,-0.85 -0.84,0.84 0,0zm61.36 -0.95c0.51,-0.51 1.8,0.75 0.53,0.24 -0.01,0 -1.33,0.55 -0.53,-0.24zm-9.04 -0.48l5.71 0 0 0.48 -5.71 0 0 -0.48zm-59.93 0.08l3.35 -0.41 -3.35 0.41zm63.26 -1.98l8.09 0 0 0.47 -8.09 0 0 -0.47zm15.7 -0.48l-4.28 0.53 0 -0.53 4.28 0zm0 0l1.49 -0.75 -8.15 -0.2 0 -0.47 16.17 -0.54 0 0.54 -9.51 1.42zm-1.43 -2.85c0.85,-0.85 -0.84,0.84 0,0zm-2.85 0c0.5,-0.51 1.8,0.75 0.53,0.25 -0.01,-0.01 -1.33,0.55 -0.53,-0.25zm12.36 -0.48l-7.61 0.52 0 -0.52 7.61 0zm10.94 7.14l-8.09 -1.99 4.77 -1.74 3.32 -0.38 0 -1.12 -1.41 -1.57 10.93 -0.73 -9.52 7.53zm-10.94 -7.14l2.38 -0.35 -2.38 0.35zm-117.47 -0.47l8.59 0.36 -0.04 0.69 -8.55 -1.05zm-3.33 0c0.5,-0.51 1.8,0.75 0.53,0.24 -0.02,0 -1.33,0.55 -0.53,-0.24zm3.33 0l-1.48 -0.22 1.48 0.22zm123.66 -0.95c0.22,-0.23 2.81,-1.01 1.54,0.26 -0.1,0.09 0.51,0.12 -0.48,-0.05 -0.1,-0.02 -1.95,0.67 -1.06,-0.21zm-11.89 0l4.75 0 0 0.47 -4.75 0 0 -0.47zm-104.64 3.33c1.47,0 3.39,-0.12 4.8,-0.03 1.67,0.09 0.91,0 2.24,0.43 1.2,0.39 0.09,0.53 1.52,0.55l5.25 1.79 -0.48 0.93 4.86 0.54 -0.11 1.31 12.36 -0.1c-7.05,4.27 -22.74,-2.23 -22.84,1.78l-12.84 1.5 29.5 0.33 6.65 1.9 -21.96 2.67 0.12 1.21 27.8 -1.18 -5 2.06 9.98 0.95 -1.14 0.76c14.42,3.51 14.06,-0.23 24.81,-2.28 6.09,-1.16 18.83,-1.81 27.23,-1.81l-1.65 -2.19 -12.21 -0.74 28.12 -3.73 14.27 -1.42c-3.48,5.19 -25.45,13.85 -33.95,15.99 -13.18,3.31 -29.75,4.43 -45.97,4.47 -15.55,0.05 -30.66,-4.26 -41.39,-9.02 -8.01,-3.55 -25.19,-14.59 -29.46,-20.96 4.6,0 10.49,0.29 14.71,1.11 3.49,0.68 1.7,-0.03 0.99,1.75l13.79 1.43zm9.04 -4.29l1.69 -4.21 18.45 6.12 -2.07 2.85c-2.47,0 -4.31,-0.63 -6.38,-1.23 -3.25,-0.93 -4.56,-0.24 -4.56,-3.53l-0.95 0c-0.08,3.73 -5.26,0.81 -6.18,0zm0 -2.37l0 2.37 0 -2.37zm112.24 1.42c0.11,-0.11 3.35,-0.58 1.13,0.25 -0.65,0.24 2.14,0.45 -0.23,-0.04 -0.06,-0.01 -1.78,0.67 -0.9,-0.21zm-9.99 0l5.71 0 0 0.48 -5.71 0 0 -0.48zm12.85 -0.47l9.98 0c-1.91,2.86 -2.27,2.3 -4.75,2.38l-8.09 0.48c1.33,-0.93 2.43,-0.72 3.3,-1.34 1.29,-0.91 -0.14,-1.13 -0.44,-1.52zm-138.89 0l2.86 -0.37 -2.86 0.37zm124.62 -0.95l5.71 0 0 0.47 -5.71 0 0 -0.47zm-139.83 0c0.22,-0.23 2.81,-1.01 1.54,0.26 -0.1,0.09 0.51,0.12 -0.48,-0.05 -0.1,-0.01 -1.95,0.67 -1.06,-0.21zm39 0l0.18 -1.94 -0.18 1.94zm-23.79 0.95l-16.17 0.43 0 -0.43 17.56 -1.87 0.04 0.92 -11.41 0 9.98 0.95zm-17.59 -1.43c0.11,-0.11 3.35,-0.58 1.12,0.25 -0.65,0.24 2.14,0.45 -0.22,-0.04 -0.07,-0.01 -1.78,0.67 -0.9,-0.21zm154.58 0.57l-0.01 -0.57 13.8 -0.25 0.01 0.53 -13.8 0.29zm-53.29 -0.75c0.52,1.23 0.83,4.01 0.4,4.38 -1.35,1.18 -4.2,0.12 -6.55,0.07 -5.01,-0.12 -10.21,0.01 -15.24,0.01l22.35 1.57c-1.85,7.76 0.32,2.52 -18.72,4.47 -2.36,0.24 -3.84,-0.21 -5.14,-0.11 -3.18,0.25 -2.03,2.32 -3.24,0.24 -0.8,-1.37 0.13,-2.65 0.63,-3.97 1.21,-3.19 -0.63,0.65 -0.63,-6 0,-2.42 14.72,-2.63 17.12,0.95l-0.06 -1.14 9.08 -0.47zm-60.86 -1.25l0 0zm112.71 0.37l2.86 -0.37 -2.86 0.37zm-112.71 -0.37l0.76 -1.14 -0.76 1.14zm22.82 -1.42c0.02,-0.22 0.84,-1.91 0.74,0.01 -0.12,2.26 -0.75,0.15 -0.74,-0.01zm100.2 0.04l6.71 -0.24 0.13 1.43 -13.34 0.29 0 -0.57 6.5 -0.91zm-121.6 -0.99l1.69 -2.25 0.62 2.84 1.28 -3.51c18.68,4.39 17.17,2.56 17.04,7.17 -0.06,2.4 0.95,1.93 -2.08,1.93l0.6 -4.75 -1.07 -0.01 -0.6 4.27 -17.48 -5.69zm-16.17 -0.96l0.54 1.42 -0.54 -1.42zm5.71 0.96l-2.63 2.78c0.14,-1.46 0.18,-6.03 0.92,-7l9.83 4.61 -1.08 4.82 1.1 0.95c-0.97,-0.1 -4,-1.32 -5.44,-1.75 -4.09,-1.19 -2.77,-1.14 -2.7,-4.41zm10.46 0l-2.35 -0.58 0.22 -0.83 2.13 1.41zm107.02 -1.43l0 0zm-73.81 -0.55l25.77 0.64 1.81 3.47 -2.76 0.24 -0.17 -2.4c-0.82,3.58 -0.23,2.47 -14.57,1.83 -0.01,-3.56 0.09,-2.46 -0.96,-3.23l0 3.33 -8.56 0 -0.56 -3.88zm92.85 0.68l5.64 -1.11 0.05 0.52 -5.69 0.59zm-94.19 -0.13c-0.97,0.12 -0.52,-1.63 -0.03,-0.6 0,0 1.09,0.47 0.03,0.6zm-31.87 -0.95c0.85,-0.85 -0.84,0.84 0,0zm-47.08 -0.48c0.5,-0.5 1.8,0.76 0.53,0.25 -0.02,-0.01 -1.33,0.55 -0.53,-0.25zm1.9 -0.47c0.84,-0.85 -0.85,0.84 0,0zm70.84 0.2l2.88 -0.65 -0.03 0.75 -2.85 -0.1zm-62.28 -0.74l-5.23 0.54 0 -0.6 5.23 0.06zm170.27 -0.94l-4.72 1.12 -0.05 -0.95 4.77 -0.17zm-174.55 -0.43c0.11,-0.11 3.35,-0.58 1.12,0.25 -0.65,0.24 2.14,0.45 -0.22,-0.04 -0.07,-0.01 -1.78,0.67 -0.9,-0.21zm24.73 4.28l-5.37 -1.57c1.54,-2.42 1.25,-3.89 4.51,-3.93 3.15,-0.05 3.43,1.67 2.76,4.55l-1.54 -3.34 -0.36 4.29zm147.92 -5.23c0.22,-0.22 2.81,-1 1.54,0.27 -0.09,0.09 0.51,0.11 -0.48,-0.05 -0.1,-0.02 -1.94,0.67 -1.06,-0.22zm-21.4 -1.9l1.2 4.7c-2.92,0.68 -1.75,0.26 -2.82,0.29 -2.95,0.09 1.34,0.43 -1.71,1.67l-1.91 -4.28 5.24 -2.38zm-156.96 1.43c0.51,-0.51 1.81,0.75 0.53,0.24 -0.01,0 -1.33,0.55 -0.53,-0.24zm-5.23 0c0.22,-0.23 2.81,-1.01 1.54,0.26 -0.09,0.1 0.51,0.12 -0.48,-0.05 -0.1,-0.01 -1.94,0.67 -1.06,-0.21zm46.61 -0.48l3.34 1.42 -1.2 4.23 -3.1 -1.35 0.96 -4.3zm-37.1 0c0.52,-0.52 2.59,0.74 0.74,0.23 -0.39,-0.11 -1.55,0.58 -0.74,-0.23zm37.1 0l0 0zm134.1 -0.63l2.9 -0.16 -2.9 0.16zm-1.41 -0.38l-2.84 0.6 2.84 -0.6zm-135.07 0.06c0,-1.88 0,1.88 0,0zm-45.18 0l9.07 0.53 -9.06 -0.19 -0.01 -0.34zm185.25 1.31l4.43 -2.5 0.35 1.14 -4.78 1.36zm-111.06 -1.79l0 0zm88.95 0.48l3.8 -1.9 -0.76 5.87 -0.81 -0.3 -2.23 -3.67zm3.8 -1.9l1.41 -0.54 0.97 3.87 -2.38 -3.33zm-79.8 -0.48l5.59 -0.37 0.01 2.27 -5.6 -1.9zm98.83 -0.47l5.23 0 -0.01 0.52 -5.22 -0.04 0 -0.48zm-3.33 -1.91l3.8 0 0 0.48 -3.8 0 0 -0.48zm-15.7 0.48l0 0zm-58.98 0.48l-1.04 -0.86 1.04 0.86zm0 0l1.63 1.43 -9.71 2.85c9.07,0 14.02,-4.08 9.99,1.42l0.88 -0.51 1.49 4.04 -26.15 -0.49 0.57 -3.02 11.33 -2.06 -5.07 -1.03 4.1 -1.21c-1.53,-6.59 2.33,-2.24 8.57,-5.23l1.13 4.72 1.24 -0.91zm79.43 -1.43l5.23 0 0 0.47 -5.23 0 0 -0.47zm-19.02 -1.43l0.54 1.42 -0.54 -1.42zm4.39 0.43l4.01 -2.13 1.71 4.03 -6.96 4.35 -1.54 0.69 -1.51 -4.87 0.97 -1.19 4.92 3.34 -1.6 -4.22zm-65.75 -0.43l1.4 -0.56 0.03 1.04 -1.43 -0.48zm62.78 -0.95l1.05 0.86 -1.05 -0.86zm-1.9 -0.48l0.48 1.43 -0.48 -1.43zm-60.88 1.43l0 0zm-88.46 -0.95l0 0zm151.24 0l0 0zm8.57 -1.9l0.47 0c1.08,0 2.55,2.01 2.85,2.85 -4.66,3.13 -5.24,-2.85 -3.32,-2.85zm-7.61 0.47c0.84,-0.84 -0.85,0.85 0,0zm-177.41 0l-0.48 -0.47 0.48 0.47zm25.21 1.43l1.36 -3.83 2.92 0.98 -1.75 7.06 -0.53 0.37 -2 -4.58zm-25.69 -1.9l0 0zm176.46 0c-1.09,0.64 -1.79,-0.17 0.28,-0.91 3.16,-1.12 0.42,0.49 -0.28,0.91zm6.18 -2.86l1.07 1.85 -3.28 2.2 -1.81 -3.94 0.43 -0.67 3.59 0.56zm-70.39 1.91c-0.83,3.57 -2.65,2.84 -4.58,2.33 -1.56,-0.41 -0.6,0.46 -4.93,1.47 -2.18,4.62 2.06,2.86 -6.19,2.86l4.29 -3.81 -4.58 -0.55 -2.56 2.45c1.53,-2.9 1.1,-3.88 3.31,-3.85 1.19,0.02 5.95,1.22 7.15,-0.43l-7.15 -0.77 0.07 -0.98 15.17 1.28zm0 0l-2.63 -1.4 0.56 -0.94 2.07 2.34zm71.82 -1.91c0,-1.21 0.85,-0.55 0.57,0.31 -0.19,0.61 -0.57,2.21 -0.57,-0.31zm-1.43 0l0 0zm0.95 -1.42c0.85,-0.85 -0.84,0.84 0,0zm-1.9 0c0.85,-0.85 -0.85,0.84 0,0zm0.95 -0.48c0.85,-0.84 -0.84,0.85 0,0zm-2.85 -0.47l-0.48 0.47 0.48 -0.47zm-80.38 0c0.84,-0.85 -0.85,0.84 0,0zm80.38 0l0 0zm-78.48 -1.43c0.34,-0.34 2.7,0.45 0.81,0.24 -0.66,-0.07 -1.56,0.51 -0.81,-0.24zm74.67 -2.38l1.91 -1.43 -0.54 1.89 -1.37 -0.46zm1.91 -1.43l1.86 -0.53 0.04 0.53 -1.9 0zm-1.91 -0.95l-1.09 -5.19 0.9 -0.51 3.05 4.93 -0.48 0.28 -2.38 0.49zm-6.18 -4.28l1.33 -1.14 -1.33 1.14zm-2.38 -2.38l0 0zm0 0l-2.42 -2.82 2.4 -0.6 -0.47 0.14 0.49 3.28zm-67.54 -4.75c0.85,-0.85 -0.84,0.84 0,0zm-1.42 -0.95l0 0zm70.39 -0.48l-0.95 0.48 0.95 -0.48zm-70.39 0.48l-0.55 -1.42 0.55 1.42zm-26.16 1.42l29.91 9.23 0.41 5.52c-2.85,1.34 1.95,-4.99 -7.13,4.16 -2.72,2.74 -5.05,3.84 -6.07,8.2l-4.15 -2.15 -1.71 7.96c-0.12,-1.44 -0.03,-5.74 -0.93,-6.64l-2.84 4.76 1.54 0.35 -2.37 5.71 -1.09 2.37 -18.92 -5.6 -9.91 -6.37c0.34,-1.36 2.77,-4.12 0.28,-2.43 -3.82,2.58 0.41,0.73 -4.61,0.62l2.11 2.12c-1.22,1.15 -1.39,2.34 -2.23,4.49l-4.33 -3.06 1.6 -4.5c-2.8,-0.07 -2.53,-3.59 -3.81,1.9l-2.81 -1.05 -2.35 3.85 -1.46 -0.19 0.91 -4.04 -2.62 3.94 0.26 -6.35 2.34 0.06 -2.35 -1.45 1.42 -3.81 -2.13 2.1c-3.67,-5.31 0.6,-0.64 0.71,-4.95 0.97,-1.28 -1.29,-0.94 0.95,-0.95l6.39 -10.81c1.35,0.47 -0.48,4.05 3.6,-2.03l2.85 1.42 3.36 -0.12 2.57 -3.85c2.69,0.22 4,1.43 5.5,2.56 2.69,2.03 1.64,2.18 0.94,5.22l2.66 -3.97c1.16,-6.53 3.29,-4.62 5.42,-5.07l-2.03 4.69 3.46 -3.74c-0.08,3.56 -4.29,6.83 -2.27,6.91 1.72,0.07 3.81,-4.85 4.65,-6.43l4.28 1.42zm96.55 -1.9l0 -1.43 1.43 0.48 -1.43 0.95zm-121.76 -0.95c-0.35,-1.17 0.8,-0.11 0.76,0.12 0,0 -0.3,1.44 -0.76,-0.12zm-1.9 0.48l0 0zm125.09 -0.48l0 0zm-117.01 -0.48l0 0zm115.58 0l-0.48 -0.47 0.48 0.47zm-24.33 -1.41l9.42 -3.31 -0.18 0.67 2.66 4.09 -7.24 1.54 0.13 0.66 -3.76 1.13 -1.03 -4.78zm-91.25 1.41l0 0zm-7.13 -0.47c0.84,-0.85 -0.85,0.84 0,0zm-0.95 1.43c-0.7,3 -3.25,4.92 -2.67,1.93 0.3,-1.62 0.79,-4.28 2.19,-4.79l0.48 2.86zm29.01 -0.48l0.65 -2.03 -0.65 2.03zm94.17 -0.95l-1.04 -0.86 1.04 0.86zm-103.21 -0.95c0.85,-0.85 -0.84,0.84 0,0zm-1.42 -0.95c0.84,-0.85 -0.85,0.84 0,0zm-4.28 -1.91l0 0zm-14.27 0c0.84,-0.84 -0.85,0.85 0,0zm14.27 0l0 0zm-10.94 2.86l-0.95 -0.95c-3.61,-0.31 1.9,-5.46 3.8,-4.28l5.15 2.53 -1.85 3.01 -0.45 -0.31c2.43,-10.4 -2.45,4.43 -5.7,0zm21.88 -4.28l0 0zm-13.32 -0.95l0 1.42 -1.43 -0.95 1.43 -0.47zm96.07 0c0,-1.88 0,1.88 0,0zm-84.66 0c0.85,-0.85 -0.84,0.84 0,0zm-12.84 0.47l-0.95 -0.47 0.95 0.47zm98.45 -0.95c0.06,-0.43 2.29,-0.53 0.6,0.03 0,0 -0.78,1.47 -0.6,-0.03zm-87.51 0c0.51,-0.51 1.8,0.76 0.53,0.25 -0.01,-0.01 -1.33,0.55 -0.53,-0.25zm-9.51 0.48l0 0zm-2.38 0l-0.48 -0.48 0.48 0.48zm5.71 -0.96l0 0zm-6.19 0.48l-0.95 -0.48 0.95 0.48zm98.46 -0.95l0 0zm-91.8 0l-0.47 0.47 0.47 -0.47zm-7.61 0.47l-0.47 -0.47 0.47 0.47zm99.41 -0.47l0 0zm-91.32 -0.95l-0.48 0.95 0.48 -0.95zm9.99 0.47l0 0zm-18.55 0.48l-1.05 -0.86 1.05 0.86zm98.93 -1.43c0.84,-0.84 -0.85,0.85 0,0zm-1.43 0.48l-0.48 -0.48 0.48 0.48zm0 0c4.46,5.13 -1,3.9 -4.76,5.71 -0.09,-4.27 -6.06,-9.43 0.95,-4.29l-0.54 -2.83 0.44 -0.51 3.91 1.92zm-84.66 -0.48c0.07,-0.17 1.57,-1.16 1.09,0.28 -0.46,1.36 -1.11,-0.23 -1.09,-0.28zm-4.28 0.48l0 0zm88.46 -0.48l0 0zm-78 -0.47c0.85,-0.85 -0.84,0.84 0,0zm-11.89 0l0 0zm0 0l0 0zm90.37 -0.95l0 0zm-77.53 0l0 0zm77.53 0l-1.96 -0.05 0.07 -0.5 1.89 0.55zm-92.27 -0.48l0 0zm14.74 0.48l0.95 -1.43 -0.95 1.43zm-14.74 -0.48l0 0zm86.56 -1.43l1.43 -0.47 0.78 1.32 -2.21 -0.85zm-70.87 0.48l0 0zm-6.65 -0.48c-3.92,5.85 -3.31,0.28 0,0zm81.33 -0.47c0.84,-0.85 -0.85,0.84 0,0zm-4.28 -0.48l0.47 0.95 -0.47 -0.95zm5.7 0c0.85,-0.84 -0.84,0.85 0,0zm-4.28 -0.47l0.48 0.95 -0.48 -0.95zm-1.42 0.47l0 0zm-63.74 -0.95l-1.33 1.14 1.33 -1.14zm67.07 0l0 0zm-1.91 0.48l0 0zm1.91 -0.48l0 0zm-67.07 0l0 0zm63.74 -1.43c0.84,-0.84 -0.85,0.85 0,0zm-63.26 0c0.84,-0.84 -0.85,0.85 0,0zm-7.14 -0.47c0.66,-0.66 1.56,0.92 0.59,0.47 -0.01,-0.01 -1.2,0.14 -0.59,-0.47zm69.45 -1.9c0.84,-0.85 -0.85,0.84 0,0zm-1.43 0.47l0 0zm-60.88 -0.47l0 0zm63.26 -0.48c0.34,-0.34 2.7,0.45 0.81,0.24 -0.66,-0.07 -1.57,0.51 -0.81,-0.24zm-63.26 0.48l0 0zm0.47 -1.43c0.51,-0.51 1.81,0.75 0.53,0.25 -0.01,-0.01 -1.32,0.54 -0.53,-0.25zm60.41 1.9c-1.93,1.22 -6.78,1.57 -9.54,1.9 -4.41,0.53 -6.44,1.45 -7.58,-2.85l0.12 3.3 -28.19 -1.39 -2 6 0.94 0.76 8.9 -5.46 36.7 0.23 2.61 4.13 -7.62 2.14 -4.08 -4.33c2.12,3.23 3.02,3.71 2.7,5.57l7.06 -0.73 2.72 5.79 -19.39 3.97c2.29,3.12 15.09,-1.66 18.08,-1.91l1.77 4.46 -4.87 2.12 0.54 1.37 22.08 -7.84 5.21 2.75 -8.66 4.05 -1.63 -2.71c0.12,3.61 1.93,2.71 -1.19,4.25 -1.71,0.84 -4.06,1.21 -4.69,2.97l12.08 -4.58c1.51,0.87 2.17,2.88 3.01,4.38l2.98 -0.28 -5.54 2.68 0.37 0.82 3.27 -1.12 5.72 -2.82 2.36 4.72 -6.66 3.81 -16.87 9.07 0.51 1.01 23.02 -11.51 1.51 4.73 1.82 -0.45 -6.66 4.28 -1.62 1.7 4 0.2c-1.99,-0.82 -4.88,3.38 -0.95,3.81l-25.44 13.33 0.46 0.93 15.94 -7.6 0.96 5.23c-2.43,0.2 -25.87,14.74 -44.24,14.74l0.75 -17.71 1.55 3.48 14.87 -3.15 -1.47 -6.87 -16.22 3.6 -9.77 -17.29c-3.53,2.02 -0.15,2.08 -4.81,2.91 -2.37,0.42 -3.51,-0.16 -6.3,-0.16l0.06 -1.23 9.01 -0.83c-0.4,-4.77 -1.33,-0.8 -5.74,-0.8l0 -1.42 2.01 0.38 1.18 -10.39c-3.54,1 -5.66,-2.8 -5.57,-6.64 -3.51,-0.82 -0.64,-0.73 -2.6,-1.86 -0.64,-0.37 -1.46,-0.12 -2.12,-0.6 -1.55,-1.1 2.43,-0.49 0.44,-5.62 0,-2.59 -0.24,-0.71 0.95,-1.43l0.48 -0.48c-0.33,-3.79 -1.11,1.93 -3.49,3.66 -8.56,6.23 6.46,11.4 8.24,16.32l-30.91 -8.09 -5.05 -3.62 3.15 -5.41 4.73 1.49 -2.64 5.98 0.45 0.26 1.26 -1.55 0.19 1.94c2,-7.41 1.43,-5.36 5.52,-5.27l0.28 -0.78 -10.18 -3.74 1.34 -1.19 0.72 1.89 4.14 -6.57 20.68 4.42 0.14 -1.64 -15.75 -2.53c0.55,-2.17 1.7,-2.93 2.59,-4.58 2.22,-4.1 -0.81,1.46 -1.11,-1.93l0.94 0.66 4.59 -6.49c4.75,0.51 9.06,1.97 14.09,2.39 5.25,0.43 10.12,0.97 15.24,1.4 2.8,0.24 5.58,1.03 6.05,0.91 17.88,-4.62 13.54,2.18 18.07,2.56zm-59.45 -3.8c0.05,-0.44 2.28,-0.53 0.59,0.03 0,0 -0.78,1.46 -0.59,-0.03zm-2.95 -0.69l2.63 0.15 -0.22 0.7 -2.41 -0.85zm-1.33 -0.74c-0.04,-0.25 0.82,-2 0.63,-0.25 -0.03,0.19 -0.36,2.3 -0.63,0.25zm1.9 -1.43l0 0zm0.47 -0.47l-0.47 0.47 0.47 -0.47zm5.24 -0.48c0.5,-0.5 1.8,0.76 0.53,0.25 -0.02,-0.01 -1.33,0.55 -0.53,-0.25zm-5.24 0.48l0 0zm3.33 -0.95c0.85,-0.85 -0.84,0.84 0,0zm-2.38 -0.48c0.85,-0.85 -0.84,0.85 0,0zm48.04 -0.48l0 0zm-29.01 0.96l-9.53 0.25 2.74 -4.28 4.4 0.34 -2.43 4.12c3,-0.28 1.28,-2.64 4.16,-3.62 4.58,-1.56 2.7,1.58 2.56,3.19l2.1 -2.73c4.12,0.23 8.91,1.36 11.4,1 6.18,-0.91 7.33,0.8 9.33,4.58l-24.76 -0.9 0.03 -1.95zm-8.56 -3.81l0 0zm24.73 0.95l-6.67 -0.87c0.94,-2.01 1.06,-5.02 3.31,-3.93 1.03,0.5 3.24,3.34 3.36,4.8zm-24.73 -0.95l0 0zm14.74 -1.9l1.9 -2.38 -0.54 2.84 1.97 -2.36 -0.98 3.79 -2.82 -1.42 -2.32 1.08 3.2 -4.46 -0.41 2.91zm3.33 -1.9l0 0zm-1.43 -0.48l0 0zm-46.61 -75.15c2.28,-0.05 3.42,-0.95 5.24,-0.95 2.93,0 4.75,4.04 4.75,8.09 0,3.75 -13.47,16.7 -16.51,19.15 -3.19,2.57 -11.31,0.65 -15.56,2.04 -4.98,1.64 -22.4,23.45 -25.93,27.82 -2.68,3.33 -22.98,6.97 -29.04,7.11 0.33,-1.23 35.03,-41.13 36.02,-41.51 11.51,-4.43 0.54,8.93 24.27,-14.73 5.72,-5.71 13.25,-15.12 19.62,-19.38 2.35,10.08 -1.29,5.63 -2.86,12.36zm20.46 -14.74c-6.88,0 -3.94,3.18 -8.67,-0.82 -10.13,-8.57 -9.34,-5.19 -31.17,16.63 -3.84,3.84 -7.37,7.31 -11.17,11.18 -7.22,7.35 -8.85,-0.06 -15.94,6.41 -9,8.21 -34.87,43.69 -41.97,47.45 0,-72.51 54.57,-131.27 126.04,-131.27l2.85 0c72.03,0 126.52,58.27 126.52,131.27 -9.17,-6.14 -44.9,-56.6 -52.32,-56.6 -4.07,0 -5.11,0.28 -9.99,2.86 -3.02,-4.52 -24.83,-31.87 -29.01,-31.87 -7.71,0 -5.87,1.9 -9.51,1.9 -2.27,0 -9.88,-9.98 -15.7,-9.98 -5.93,0 -11.91,8.38 -15.34,11.77 -1.08,1.08 -5.77,6.21 -6.82,6.45 -2.37,0.54 -3.92,-5.38 -7.8,-5.38zm47.08 97.02l-2.37 0.5 2.43 3.26 -0.74 0.82 -12.38 -10.98 5.44 1.21c2.57,1.24 2.72,3.92 3.82,4.72 5.91,-2.84 -4.11,-7.22 -9.51,-8.57 -8.78,-2.19 -12.73,-0.68 -20.98,1.39 -10.63,2.65 -26.92,9.95 -34.15,15.78 -10.75,8.66 -23.81,19.42 -29.97,32.35 -1.31,2.76 -3.03,4.14 -4.59,7.77 -1.15,2.7 -2.33,6.67 -4.63,7.83 -2.59,1.3 -2.29,0.53 -3.9,-0.31 -4.09,-2.13 -0.35,0.02 -2.14,1.31l-15.22 -3.81c2.07,-3.33 -9.81,-7.22 -9.06,-23.77 0.81,-18.07 25.47,-25.42 40.51,-28 6.09,-1.05 26.33,-1.73 28.48,-5.78 -0.68,-8.19 -36.64,-8.13 -47.35,-6.92 -9.15,1.03 -16.46,1.31 -24.88,2.71 -6.53,1.08 -18.28,4.78 -22.9,5.16 0,33.21 28.66,73.46 47.78,88.74 25.94,20.73 56.36,34.78 103.43,31.08 66.97,-5.26 129.98,-71.65 120.92,-150.33 -4.61,-40.04 -22.8,-69.02 -46.85,-89.65 -22.1,-18.94 -59,-37.43 -102.32,-32.74 -37.58,4.08 -72.17,23.35 -90.36,46.15 -11.67,14.62 -17.94,24.31 -25.46,43.02 -8.31,20.66 -7.61,33.02 -7.61,59.93 4.34,-0.1 15.21,-4.34 21.12,-5.51 19.5,-3.88 54.46,-7.44 74.21,-5.16 12.98,1.49 96.08,3.87 103,0.21 -2.97,-4.45 -38.11,-8.82 -46.87,-9.73 -5.84,-0.61 -12.2,-0.27 -18.08,-0.95 -24.46,-2.81 -50.88,2.59 -72.98,2.59 0.71,-2.67 16.11,-19.81 18.99,-20.49 7.6,-1.78 10.43,2.56 15.86,-2.68 9.38,-9.04 44.29,-45.9 49.81,-49.6 3.79,16.27 -1.83,9.01 -4.28,19.5 5.31,0 8.64,-4.09 12.26,0.11 2.44,2.83 4.33,7.85 3.09,12.86 -2.01,8.09 -12.02,14.17 -12.02,21.28 9.9,-0.22 17.7,-14.44 26.99,-12.69l-3 15.96c5.24,1.21 14.26,-8.3 16.75,-0.26 2.68,8.69 2.04,10.63 9.84,14.9 11.01,6.03 24.38,7.25 35.9,14.03 27.71,16.32 23.51,41.71 7.22,66.03l-12.84 -0.62c-8.26,-12.18 -16.39,-25.08 -26.75,-35.41 -4.47,-4.47 -11.67,-10.25 -17.22,-13.7 -1.94,-1.21 -22.15,-14.34 -16.44,-3.54z"/>
    <path class="fil5" d="M288.67 48.41c79.41,0 145.06,65.62 145.06,145.07 0,80.14 -65.47,145.54 -145.53,145.54 -44.13,0 -80.11,-20.65 -102.39,-42.68 -20.07,-19.85 -44.57,-61.59 -42.69,-102.83 2.1,-45.92 18.54,-78.48 42.7,-102.41 22.55,-22.35 58.17,-42.69 102.85,-42.69zm-4.76 -30.91l-8.56 0 0 8.56c-11.02,0 -9.03,-1.98 -9.03,9.04l-8.56 0 0 7.13c-9.16,2.13 -14.32,3.44 -22.53,6.48 -3.38,1.26 -19.36,8.66 -20.28,8.74l-9.67 -18.02 13.66 -8.14c1.21,0.71 3.48,5.52 4.32,7.01 -1.5,0.76 -6.5,3.61 -7.78,3.7l4.82 8.52 15.53 -8.86 -13.06 -23.66 -30.48 17.86 3.98 8.09c-1.72,-0.41 -5.33,3.43 -7.52,3.3l4.25 8.33 -7.11 3.7 3.86 8.39c-1.32,0.05 -5.69,2.8 -7.14,3.59l3.61 7.45c-6.16,1.71 -25.45,27.07 -28.82,33.44l-17.93 -10.23 7.45 -14.04 7.05 3.52 -4.37 7.8 8.15 4.61 8.93 -16 -23.22 -13.33 -17.6 31.13 7.25 3.75 -4.09 8.32 7.34 3.71 -4.09 8.15c1.29,-0.09 5.82,2.93 7.22,3.71l-4.06 7.86 5.71 3.27 -8.22 44.12 -19.75 0.22 0 -16.17 7.61 0 0 8.56c6.23,0 9.98,0.92 9.98,-1.42l0 -16.65 -27.11 0 0 35.19 8.56 0.7 0.01 7.87 8.56 0c0,11.01 -1.99,9.03 9.03,9.03l0 8.56 6.19 0c1.93,0 6.43,19.57 7.39,22.1 2.2,5.82 7.76,16.36 8.78,20.71l-18.07 9.71 -8.21 -14.12c1.58,-0.33 5.51,-2.93 7.14,-3.87 0.78,1.55 3.57,6.45 3.7,7.81 1.53,-0.84 7.97,-4.06 8.72,-5l-8.94 -15.48 -23.81 13.14 18.06 30.64 7.93 -4.11c0.84,1.74 3.25,5.89 3.33,7.57l8.28 -4.34 4.08 7.16 8 -3.92c0.12,1.32 2.83,5.68 3.62,7.13l7.53 -3.4c1.22,4.5 28.12,26.94 33.33,28.15l-9.88 18.61 -14.36 -7.68 3.71 -7.17 7.93 4.74c-0.22,-1.31 3.34,-6.91 4.17,-8.43l-15.71 -9.3 -13.63 23.59 31.24 17.66 3.84 -7.2 8.23 4.04 3.71 -7.34 8.15 4.08c0.01,-1.09 2.87,-5.74 3.57,-7.02l8.05 3.78 3.38 -6.16c7.01,0.11 21.13,7.58 44.65,7.58l0 20.93 -16.64 0 0 -7.61 8.56 0c0,-6.24 0.92,-9.99 -1.43,-9.99l-16.64 0 0 27.11 35.67 0 0 -8.56c10.18,0 9.03,1.47 9.03,-8.56 9.93,0 8.09,1.92 8.09,-9.03l8.56 0 0 -6.19c0,-2.27 19.54,-6.18 22.23,-7.26 6.22,-2.5 14.97,-5.94 20.58,-8.91l9.75 18.14 -14.19 8.11c-0.28,-1.54 -2.93,-5.52 -3.85,-7.11l7.23 -3.65 -3.98 -8.85 -15.91 9.02c1.67,2.98 12.86,22.32 13.13,23.8l30.48 -17.86 -3.9 -8.15 7.34 -3.56 -3.75 -7.51 6.67 -4.27 -3.75 -8.37c1.28,0.12 5.86,-2.89 7.26,-3.67l-3.64 -6.93c4.81,-3.21 12.05,-11.24 15.71,-15.86 1.76,-2.22 12.96,-17.64 13.42,-17.98l17.88 10.33 -7.93 13.91 -6.64 -3.27 4.15 -8.43c-1.02,0.24 -7.37,-3.53 -8.74,-4.26l-8.86 16.11 23.63 13.25c0.4,-1.67 15.29,-27.01 17.41,-30.71 -0.76,-1.12 -5.67,-3.65 -7.14,-4.51l4.18 -7.94 -7.38 -3.72 4.14 -7.9 -7.21 -4.06 4.02 -7.75 -6.26 -3.44c0.07,-5.17 7.58,-20.32 7.58,-44.18l20.93 0 0 16.17 -7.61 0 0 -8.56c-6.24,0 -9.99,-0.92 -9.99,1.43l0 16.64 27.11 0 0 -35.19 -8.55 -0.7 -0.01 -7.86c-4.14,0 -5.09,0.33 -8.56,-0.48 -0.15,-1.75 -0.48,-1.36 -0.48,-3.8 0,-5.3 3.41,-4.76 -8.08,-4.76 0,-9.98 1.02,-8.56 -7.61,-8.56 -1.93,-8.28 -3.6,-15.05 -6.44,-22.57 -2.26,-5.97 -7.73,-15.71 -8.78,-20.24l18.1 -9.73 8.14 14.17c-1.49,0.23 -5.21,2.78 -6.72,3.68l-3.87 -7.14 -8.61 4.08 8.74 15.82c2.72,-1.52 23.06,-12.37 23.56,-13.46l-17.73 -30.37 -7.31 3.99c-0.91,-1.47 -4.06,-5.82 -4.1,-7.24l-8.34 4.25 -3.71 -7.09 -7.53 3.6 -4.47 -6.87 -6.04 2.63 -34.85 -28.37 10.27 -17.98 14.35 8.29 -3.9 6.72 -7.69 -4.4 -4.73 8.65 16.17 8.81c1.75,-4.24 13.11,-20.9 13.01,-23.49l-30.46 -17.57c-1.45,0.85 -3.38,5.45 -4.29,7.13l-8.22 -4.04 -3.71 7.35 -7.88 -4.18 -3.86 7.11 -8 -3.84 -3.57 6.4c-9.36,-1.05 -18.76,-7.76 -44.02,-7.76l0 -20.93 16.17 0 0 7.61 -8.56 0c-1.36,12.16 -1.56,9.99 18.07,9.99l0 -27.11 -35.2 0 0 8.56z"/>
    <path class="fil5" d="M116.02 156.72c13.99,0.14 17.45,3.33 18.55,-9.85l-7.1 -3.41 4.08 -8.32 -0.48 0.15 -7.27 -3.95 -0.43 0.23 -7.35 25.15z"/>
    <path class="fil5" d="M325.29 351.38l0 7.14 -8.56 -0.14c-0.39,1.88 -1.58,8.7 1.43,8.7 7.01,0 17.58,-4.15 24.26,-5.71l-7.45 -13.62c-2.1,0.39 -9.68,1.18 -9.68,3.63z"/>
    <path class="fil5" d="M398.54 310.96l4.03 7.01 -6.75 4.15 3.72 7.83 0.42 0.52 19.42 -18.64 -0.39 -0.4c-9.88,-5.22 -13.12,-11.42 -20.45,-0.47z"/>
    <path class="fil5" d="M335.28 39.85l3.4 -7.09 8.22 3.84 0.14 -0.63 4.02 -7.01 -25.64 -7.64 -0.13 0.46c0,13.23 -3.19,16.98 9.99,18.07z"/>
    <path class="fil5" d="M171.19 323.8l7.04 -13.11 -6.92 -6.98 -7.54 4.28 -3.57 -6.99c-10.58,2.45 -7.48,5.59 -1.97,11.03 2.58,2.55 9.55,11.48 12.96,11.77z"/>
    <path class="fil5" d="M442.23 147.23c1.14,2.35 1.5,9.63 3.87,9.63l7.61 0c0,10.83 -1.65,9.03 7.14,9.03 3.33,0 -4.62,-26.3 -4.62,-26.3l-14 7.64z"/>
    <path class="fil5" d="M405.67 83.61l7.4 -4.19 3.74 6.94 8.08 -3.8 0.05 -0.61 -18.37 -19.2 -0.42 0.41c-4.8,10 -11.78,12.88 -0.48,20.45z"/>
    <path class="fil5" d="M158.35 76l13.08 7.55 7.01 -6.96 -4.21 -7.08 7.4 -4.5c-4.88,-9.22 -4.27,-8.45 -11.5,-1.49 -4.2,4.04 -8.99,7.21 -11.78,12.48z"/>
    <path class="fil5" d="M120.3 247.22l14.33 -7.01c-2.76,-11.13 -0.78,-9.63 -11,-9.63l0 -8.56c-3.38,-0.79 -3.57,-0.48 -7.61,-0.48 -3.29,0 4.28,22.47 4.28,25.68z"/>
    <path class="fil5" d="M442.3 240.09l7.26 4.06 -4.04 8.01 0.6 0.25 7.06 3.49 7.71 -25.17 -0.52 -0.15c-15.96,0 -15.07,-3.36 -18.07,9.51z"/>
    <path class="fil5" d="M238.16 354.66l-7.45 -3.88 -4.52 7.65 25.23 7.73 0.15 -0.51c0,-16 3.36,-15.07 -9.51,-18.07l-3.9 7.08z"/>
    <path class="fil5" d="M234.93 25.58l7.19 14.24c11.17,-2.49 9.45,-1.27 9.45,-11.38 10.84,0 9.04,1.65 9.04,-7.14 0,-3.57 -22.33,4.28 -25.68,4.28z"/>
    <path class="fil5" d="M277.73 115c-0.07,-3.08 -8.46,-37.83 -8.56,-42.33l-2.85 0c-0.67,2.86 3.59,28.76 4.53,35.42 0.4,2.79 0.09,3.29 2.3,4.36 1.85,0.89 3.4,2.24 4.58,2.55z"/>
    <path class="fil5" d="M353.36 134.5l1.44 2.84c2.98,-0.23 6.44,-2.43 8.2,-4.14 3.07,-2.99 17.79,-16.7 19.84,-17.25l-1.05 -2.81c-2.77,0.2 -11.79,8.08 -14.44,10.15l-13.99 11.21z"/>
    <path class="fil5" d="M258.23 171.12c4.17,-0.97 31.63,-18.65 31.87,-29.48 -7.06,3.73 -18.47,17.24 -24.06,21.6 -1.78,1.39 -6.7,6.23 -7.81,7.88z"/>
    <path class="fil5" d="M343.37 123.09l2.63 3.49c2.56,-0.79 21.4,-24.64 21.62,-27.27l-1.88 -0.98c-1.27,0.87 -21.05,22.78 -22.37,24.76z"/>
    <path class="fil5" d="M193.97 115.44c6.13,4.1 17.77,16.74 24.78,21.44 1.69,-1.23 0.91,-2.21 3.33,-2.85 -1.55,-2.94 -3.35,-3.47 -5.98,-5.44 -5.68,-4.26 -14.79,-12.64 -20.18,-15.49l-1.95 2.34z"/>
    <path class="fil5" d="M209.14 100.15l9.89 12.68c1.88,2.52 8.34,11.4 10.19,12.63l3.44 -3.21c-2.1,-3.08 -19.23,-22.37 -21.52,-23.9l-2 1.8z"/>
    <path class="fil5" d="M260.13 108.34c-0.1,-4.58 -10.02,-24.46 -11.41,-30.44 -2.92,0 -3.42,-0.54 -2.94,1.86l4.57 14.11c1.12,2.9 2.31,6.04 3.02,8.87 1.3,5.17 -0.58,2.08 6.76,5.6z"/>
    <path class="fil5" d="M316.73 108.34c7.47,-3.95 3.5,4.48 9.34,-13.02 1.84,-5.54 4.1,-11.34 5.41,-16.94l-3.31 -0.6c-1.19,5.11 -3.92,10.64 -5.8,15.27 -1.02,2.49 -5.45,13.07 -5.64,15.29z"/>
    <path class="fil5" d="M240.16 114.05c2.64,-0.62 2.36,-1.57 4.28,-2.85 -2.39,-4.51 -14.24,-22.37 -14.75,-24.26 -2.67,0 -4.94,-1.08 -1.04,5.32l11.51 21.79z"/>
    <path class="fil5" d="M332.91 110.72l3.14 3.48c1.47,-1.09 10.33,-18.05 12.08,-21.55 0.48,-0.97 1.62,-2.96 1.92,-3.91 0.74,-2.31 -0.28,-1.8 -2.88,-1.8l-14.26 23.78z"/>
    <path class="fil5" d="M324.82 273.86c1.81,0.48 1.8,1.73 2.79,2.92 0.71,0.86 -0.12,0.08 0.73,0.72 0.34,0.25 1.4,0.71 1.58,0.75 3.47,0.92 3.49,-2.73 6.31,-2.97l-0.41 -3.33c-3.12,0.72 -1.75,0.09 -4.34,0.07 -1.78,-0.02 -2.88,0.73 -4.76,0.89 2.46,-3.68 4.18,0.16 4.28,-4.28 -1.48,0 -3.66,0.17 -4.95,0.12 -7.33,-0.27 -10.27,-4.01 -10.27,3.68 4.55,2.19 5.34,0 9.99,0 -0.59,1.57 0.32,0.22 -0.95,1.43z"/>
    <path class="fil5" d="M182.13 133.07c1.7,0.46 9.21,5.5 11.23,6.85 7.11,4.75 6.67,5.26 12.08,2.67 -1.34,-2.53 -6.53,-4.05 -11.8,-7.23 -2.07,-1.25 -4.17,-2.17 -6.27,-3.24 -2.65,-1.34 -4.88,-3.4 -5.24,0.95z"/>
    <path class="fil5" d="M373.33 140.68c0.95,1.43 1.4,2.36 2.85,3.33 3.76,-0.87 14.87,-9.97 19.03,-10.94 -1.53,-3.19 0.27,-4.2 -10.47,1.43 -3.72,1.95 -7.69,4.22 -11.41,6.18z"/>
    <path class="fil5" d="M226.84 154.95c2.42,-0.56 20.28,-11.46 20.45,-19.02 -4.21,2.82 -6.78,5.59 -10.34,9.15 -2.94,2.94 -8.01,6.74 -10.11,9.87z"/>
   </g>
   <path class="fil5" d="M302.39 99.29l4.27 1.65c1.83,-3.51 2.64,-15.57 3.62,-21.88 0.89,-5.73 2.02,-6.39 -2.58,-6.39l-5.31 26.62z"/>
   <path class="fil5" d="M240.16 295.74c0.55,-0.55 2.71,0.8 0.59,0.19 -0.06,-0.02 -1.42,0.63 -0.59,-0.19zm6.18 0c-1.43,-0.02 -0.32,-0.16 -1.52,-0.55 -1.33,-0.43 -0.57,-0.34 -2.24,-0.43 -1.41,-0.09 -3.33,0.03 -4.8,0.03 -0.31,0.77 -0.36,0.88 -0.61,1.51 -0.04,0.11 -0.16,0.41 -0.19,0.49l-0.15 0.37c-3.59,-0.83 -5.77,0.04 -8.09,-1.42 0.53,0 1.39,0.04 1.88,-0.03l1.12 -0.3c0.08,-0.03 0.23,-0.08 0.33,-0.15 -5.83,-0.48 -0.77,-0.35 -5.83,0.38 -1.87,0.27 -3.96,-0.38 -6.53,-0.38 -0.82,1.97 0.96,1.9 -2.86,1.9l5.71 0.48c-0.63,0.94 -0.87,1.32 -1.43,2.38l0.62 -0.37c1.49,-0.69 -1.16,-0.58 1.72,-0.51 1.39,0.03 1.26,0.54 2.53,0.71l6.07 -0.78c-2.32,-0.62 -0.41,-0.89 -2.79,-0.88 -1.16,0 -1.42,0.4 -3.39,0.4 2.97,-2.06 9.74,-0.48 12.84,-0.48l0 -1.42c0.91,0 1.34,-0.11 1.78,0.18 1.42,0.94 0.17,-0.16 -0.04,0.34 -0.56,1.32 -0.71,-0.85 -0.31,0.43 1.49,0.71 6.07,1.14 7.61,-0.95 -2.71,0 -0.56,0.2 -1.43,-0.95z"/>
   <path class="fil5" d="M254.9 260.54c1.69,-1.13 2.79,-3.43 2.86,-6.18l-1.43 0c-0.62,2.67 -1.43,2.34 -1.43,6.18z"/>
   <path class="fil5" d="M235.4 237.71c0.89,-0.6 0.99,-0.74 1.8,-1.53 1.12,-1.11 1.12,-0.72 1.53,-2.27 -1.85,0.49 -1.77,1.33 -3.33,2.37l0 1.43z"/>
   <path class="fil5" d="M251.57 291.93l0.48 0c0,-1.6 0.47,-1.52 0.47,-3.8 -1.48,1.08 -0.95,1.27 -0.95,3.8z"/>
   <path class="fil5" d="M222.08 266.72c-1.13,0.76 -0.49,0.58 -1.9,0.95l0 0.96c1.26,0.33 0.39,-0.04 1.43,0.47 0.11,-1.28 0.22,-1.29 0.47,-2.38z"/>
   <path class="fil5" d="M359.54 297.16c2.22,0 0.63,-0.47 2.85,-0.47l-4.28 -0.48c0.08,0.08 0.21,0.09 0.25,0.23 0.03,0.11 0.47,0.72 1.18,0.72z"/>
   <path class="fil5" d="M233.02 247.7c-0.92,-0.81 0.51,0.3 -0.76,-0.66 -0.54,-0.4 -0.71,-0.48 -1.14,-0.77 0.46,1.72 0.04,1.27 1.9,1.43z"/>
   <path class="fil5" d="M288.2 213.45c0.18,-0.13 0.55,0.03 0.76,-0.7 0.58,-1.97 -0.07,-0.84 -0.29,-1.2l-0.47 1.9z"/>
   <path class="fil5" d="M245.39 250.08l0.14 -0.14c-0.01,0 -0.19,0.09 -0.14,0.14z"/>
   <polygon class="fil5" points="236.83,283.85 237.38,282.92 "/>
   <polygon class="fil5" points="236.35,238.66 236.9,237.73 "/>
   <polygon class="fil5" points="235.4,237.71 234.93,238.19 "/>
   <polygon class="fil5" points="293.9,208.7 293.43,209.17 "/>
   <polygon class="fil5" points="236.35,238.66 235.88,239.14 "/>
  </g>
 </g>
</svg>
