<?xml version="1.0" encoding="UTF-8"?>
<!DOCTYPE svg PUBLIC "-//W3C//DTD SVG 1.1//EN" "http://www.w3.org/Graphics/SVG/1.1/DTD/svg11.dtd">
<!-- Creator: CorelDRAW 2017 -->
<svg xmlns="http://www.w3.org/2000/svg" xml:space="preserve" width="50.7998mm" height="33.8666mm" version="1.1" style="shape-rendering:geometricPrecision; text-rendering:geometricPrecision; image-rendering:optimizeQuality; fill-rule:evenodd; clip-rule:evenodd"
viewBox="0 0 5079.98 3386.66"
 xmlns:xlink="http://www.w3.org/1999/xlink">
 <defs>
  <style type="text/css">
   <![CDATA[
    .str0 {stroke:#FEFEFE;stroke-width:75;stroke-linecap:round;stroke-linejoin:round;stroke-miterlimit:22.9256}
    .fil0 {fill:none}
    .fil6 {fill:#0074B3}
    .fil1 {fill:#016737}
    .fil2 {fill:#6C9530}
    .fil7 {fill:#9B1A14}
    .fil8 {fill:#F9B500}
    .fil3 {fill:#009688;fill-rule:nonzero}
    .fil4 {fill:#373435;fill-rule:nonzero}
    .fil5 {fill:#738859;fill-rule:nonzero}
   ]]>
  </style>
 </defs>
 <g id="Capa_x0020_1">
  <metadata id="CorelCorpID_0Corel-Layer"/>
  <rect class="fil0" x="-0" width="5079.99" height="3386.66"/>
  <g id="_1746549143744">
   <g id="_2057429691648">
    <path class="fil1" d="M1679.63 3223.13c251.17,-2.14 320.88,-246.26 203.46,-441.73 -160.85,-267.75 -813.46,-452.48 -1192.43,-863.13 -217.29,-235.46 -426.4,-685.75 -316.95,-1069.73 134.15,-470.54 545.84,-444.66 910.5,-456.78 -670.46,-464.85 -2021.63,956.68 -41.23,2104.43 369.49,214.13 785.59,333.32 436.65,726.94z"/>
    <path class="fil2" d="M2009.07 404.03c169.08,-34.7 191.87,-61.15 384.57,-49.01 -154.98,59.37 -687.72,106.95 -682.59,452.2 86.17,-158.54 130.63,-232.92 298.74,-292.35 120.35,58.23 258.95,217.05 368.47,271.53 240.3,119.53 290.45,-29.35 521.13,-28.8 -46.01,-562.57 -664.41,-816.95 -890.32,-353.57z"/>
    <path class="fil2" d="M2111.14 3156.15c754.93,-599.68 932.08,-397.53 816.53,-939.7 -381.38,1043.7 -443.45,337.28 -816.53,939.7z"/>
    <g>
     <path class="fil0 str0" d="M1143.06 1284.75c0,44.82 -2.48,76.79 -7.25,95.74 -2.31,9.39 -7.91,14 -16.81,14 -23.9,0 -59.48,-1.33 -107.1,-4.12 -47.61,-2.64 -83.22,-4.12 -107.1,-4.12 -22.41,0 -56.02,0.5 -100.67,1.48 -44.66,0.99 -78.27,1.48 -100.85,1.48 -8.06,0 -12.02,-3.94 -12.02,-12.02 0,-35.1 1.15,-87.99 3.47,-158.84 2.29,-70.85 3.45,-123.91 3.45,-159.33 0,-37.23 -1.65,-93.27 -4.95,-167.74 -3.28,-74.48 -4.93,-130.33 -4.93,-167.73 0,-7.08 3.94,-10.55 12.02,-10.55 5.94,0 14.67,0.49 26.69,1.49 11.86,0.99 20.93,1.49 27.03,1.49 5.77,0 14.82,-0.5 27.02,-1.49 12.35,-1 21.25,-1.49 27.18,-1.49 7.74,0 11.54,3.13 11.54,9.24 0,34.1 -1.31,85.34 -3.95,153.88 -2.64,68.55 -3.96,120.12 -3.96,154.56 0,16.64 0,42.18 0,76.28 -0.33,34.11 -0.5,59.49 -0.5,76.3 0,71.34 2.98,107.1 8.75,107.1 118.46,0 208.09,-2.81 268.4,-8.57 2.96,-0.34 10.38,-1.48 22.23,-3.47 9.56,-1.81 16.98,-2.79 22.25,-2.79 6.76,0 10.06,3.13 10.06,9.22zm609.14 -562.19c0,37.41 -1.48,93.26 -4.44,167.73 -2.98,74.48 -4.46,130.34 -4.46,167.73 0,12.2 0.17,30.49 0.49,54.71 0.34,24.39 0.5,42.34 0.5,54.37 0,67.23 -6.26,113.85 -18.78,139.9 -19.45,39.87 -56.85,66.89 -112.53,81.06 -34.11,8.74 -82.23,13.01 -144.34,13.01 -112.7,0 -186.53,-18.61 -221.62,-56.02 -27.02,-28.83 -40.53,-86.82 -40.53,-173.66 0,-10.55 0.16,-28.5 0.5,-53.88 0.32,-25.21 0.49,-44.98 0.49,-59.49 0,-38.05 -1.65,-107.92 -4.95,-209.9 0,-26.37 -1.48,-65.75 -4.44,-118.31 -0.34,-3.78 -0.49,-6.42 -0.49,-7.57 0,-6.76 4.11,-10.23 12.52,-10.23 13.18,0 31.13,0.17 53.7,0.5 26.04,0.33 43.84,0.49 53.23,0.49 7.42,0 11.04,2.81 11.04,8.74 0,48.77 -0.99,122.42 -2.98,220.45 -1.97,98.21 -2.96,171.7 -2.96,220.47 0,55.35 12.37,92.93 37.24,112.53 21.09,17.3 60.31,26.04 117.16,26.04 51.9,0 88.64,-7.09 110.55,-21.26 27.68,-17.63 41.53,-50.75 41.53,-99.35 0,-50.91 -0.83,-127.21 -2.48,-229.04 -1.64,-101.81 -2.47,-178.11 -2.47,-229.02 0,-5.1 4.61,-8.23 14,-9.56 6.77,-0.99 16.31,-0.99 28.85,0 14.82,1.33 21.74,1.99 21.25,1.99 5.76,0 14.49,-0.5 26.19,-1.5 11.71,-0.98 20.43,-1.48 26.2,-1.48 8.08,0 12.03,3.47 12.03,10.55zm634.36 643.91c0,15.16 -4.61,22.74 -14,22.74l-111.06 0c-9.39,0 -33.77,-34.27 -73.15,-102.64 -33.12,-58.01 -55.2,-99.69 -66.24,-125.39 -10.87,-24.89 -17.3,-38.57 -18.78,-41.53 -9.72,-16.14 -20.93,-24.54 -33.79,-25.53 -3.78,-0.34 -14.49,-0.5 -32.12,-0.5 -40.36,0 -60.64,4.94 -60.64,14.99 0,29.5 0.99,73.82 2.97,132.64 1.98,58.82 2.97,102.82 2.97,131.97 0,10.72 -3.95,15.99 -12.03,15.99 -6.09,0 -15.33,-0.49 -27.52,-1.48 -12.19,-0.98 -21.25,-1.48 -27.34,-1.48 -5.77,0 -14.34,0.5 -25.88,1.48 -11.36,0.99 -19.93,1.48 -25.7,1.48 -8.08,0 -12.03,-3.62 -12.03,-11.04 0,-35.42 1.65,-88.64 4.94,-159.66 3.3,-70.84 4.95,-124.07 4.95,-159.49 0,-37.23 -1.65,-93.42 -4.95,-168.24 -3.29,-74.79 -4.94,-130.81 -4.94,-168.22 0,-7.08 3.95,-10.55 12.03,-10.55 5.77,0 14.66,0.5 26.52,1.48 11.87,1 20.77,1.5 26.86,1.5 5.77,0 14.5,-0.5 26.04,-1.5 11.54,-0.98 20.26,-1.48 26.03,-1.48 7.42,0 11.04,2.98 11.04,8.74 0,27.34 -0.83,68.54 -2.47,123.58 -1.65,55.03 -2.48,96.38 -2.48,124.06 0,12.53 0.83,20.43 2.48,23.56 2.47,5.77 9.06,8.74 19.77,8.74 62.28,0 107.92,-11.53 136.93,-34.77 24.71,-20.6 48.27,-58.33 70.35,-113.36 16.15,-43.16 32.12,-86.33 48.28,-129.51 2.3,-5.43 7.25,-9.06 14.99,-11.04 5.27,-1.31 22.25,-1.97 51.41,-1.97 35.42,0 53.21,5.1 53.21,14.99 0,5.76 -7.4,31.96 -22.24,78.27 -17.3,54.04 -39.7,101.66 -67.39,142.85 -18.29,28.01 -42.51,56.19 -72.83,84.53 -7.74,6.76 -11.53,13.02 -11.53,18.45 0,5.76 13.01,34.44 39.06,86 22.4,44.83 42.83,80.75 61.12,107.77 20.27,24.72 48.44,62.94 84.7,114.35 1.65,2.96 2.46,5.94 2.46,9.22zm647.04 18.8c0,2.63 -3.79,3.94 -11.53,3.94 -6.09,0 -15.16,-0.32 -26.86,-0.98 -11.86,-0.67 -20.76,-0.99 -26.86,-0.99 -6.09,0 -15.31,0.32 -27.68,0.99 -12.18,0.66 -21.42,0.98 -27.51,0.98 -8.89,0 -20.27,-24.39 -34.1,-73.16 -13.85,-48.77 -27.85,-73.47 -42.19,-74.14 -11.7,-0.66 -42.17,-0.98 -91.78,-0.98l-75.13 0c-52.23,0 -82.05,0.32 -89.47,0.98 -11.36,0.99 -24.22,25.88 -38.55,74.48 -14.34,48.6 -25.38,72.82 -33.12,72.82l-108.09 0c-6.43,0 -9.73,-2.31 -9.73,-7.07 0,-3.47 2.32,-11.21 6.93,-23.09l120.44 -322.6c10.22,-25.87 41.03,-100.84 92.44,-224.75 9.23,-20.6 21.75,-51.58 37.4,-92.93 3.95,-12.35 8.08,-18.45 12.69,-18.45 6.09,0 15.32,0.82 27.36,2.3 12.02,1.65 21.08,2.47 27.18,2.47 5.92,0 14.66,-0.82 26.52,-2.64 11.87,-1.8 20.6,-2.63 26.2,-2.63 2.81,0 6.92,5.76 12.2,17.3 7.41,18.13 44.65,115.5 111.54,292.13 94.58,248.48 141.7,373.7 141.7,376.02zm-222.27 -268.08c-2.96,-7.76 -18.45,-49.11 -46.47,-123.74 -27.18,-72.51 -44.98,-120.46 -53.87,-144.02 -66.74,169.87 -100.01,259.01 -100.01,266.92 0,11.04 12.02,17.3 36.25,19.29 1.31,0.33 16.8,0.5 46.79,0.5l49.1 0c45.47,0 68.21,-6.28 68.21,-18.95zm888.91 -394.63c0,37.07 -1.31,92.93 -3.94,167.58 -2.64,74.63 -3.95,130.65 -3.95,167.88 0,35.11 0.32,87.66 0.98,157.7 0.65,70.01 0.99,122.41 0.99,157.5 0,10.72 -4.12,15.99 -12.2,15.99 -4.94,0 -12.19,-0.49 -21.91,-1.48 -9.73,-0.98 -17.14,-1.48 -21.91,-1.48 -5.27,0 -13.18,0.5 -23.9,1.48 -10.7,0.99 -18.61,1.48 -23.88,1.48 -5.77,0 -12.52,-5.1 -20.43,-15.32 -69.37,-93.75 -174.33,-233.48 -315.2,-419.5 -21.93,-28.34 -34.6,-44.16 -38.07,-47.29 -3.13,0 -4.78,6.6 -4.78,19.78 0,49.59 0.83,123.9 2.31,223.26 1.65,99.19 2.47,173.66 2.47,223.08 0,10.72 -3.29,15.99 -9.72,15.99 -5.44,0 -13.84,-0.49 -25.04,-1.48 -11.21,-0.98 -19.61,-1.48 -25.05,-1.48 -5.77,0 -14.5,0.5 -25.86,1.48 -11.38,0.99 -20.11,1.48 -25.88,1.48 -8.08,0 -12.02,-3.3 -12.02,-9.71 0,-35.27 1.65,-88.65 4.93,-159.99 3.3,-71.19 4.95,-124.74 4.95,-160.49 0,-38.88 -1.48,-109.07 -4.29,-210.41 -0.49,-26.36 -2.14,-65.91 -4.61,-118.63l-0.49 -6.26c-0.32,-4.95 3.45,-7.42 11.53,-7.74 20.93,-0.34 37.24,-0.99 49.1,-1.99 4.62,-0.33 13.01,-1.64 25.55,-3.95 10.54,-1.97 18.93,-2.96 25.04,-2.96 2.96,0 8.06,4.61 15.16,14 73.98,101.66 187.17,253.08 339.75,453.77 6.75,8.41 13.01,15.65 18.78,21.75 2.31,-13.51 3.3,-44.32 3.3,-92.6 0,-41.85 -1.48,-104.63 -4.61,-188.33 -3.14,-83.7 -4.62,-146.14 -4.62,-187.67 0,-10.71 3.29,-15.99 9.72,-15.99 5.77,0 14.49,0.5 26.2,1.48 11.87,1 20.6,1.5 26.36,1.5 6.09,0 15.33,-0.5 27.51,-1.5 12.37,-0.98 21.43,-1.48 27.52,-1.48 6.76,0 10.21,3.47 10.21,10.55zm551.49 80.74c0,8.4 -2.96,12.52 -8.73,12.52 -9.06,0 -66.07,-1.98 -171.2,-5.93 -2.64,98.2 -3.95,176.8 -3.95,236.11 0,36.91 1.31,92.43 3.95,166.58 2.64,73.99 3.96,129.51 3.96,166.41 0,6.77 -4.62,10.22 -14.01,10.22 -5.77,0 -14.5,-0.49 -26.52,-1.48 -11.86,-0.98 -20.77,-1.48 -26.86,-1.48 -5.77,0 -14.67,0.5 -26.53,1.48 -11.87,0.99 -20.76,1.48 -26.53,1.48 -8.07,0 -12.03,-3.94 -12.03,-12.02 0,-36.75 1.48,-91.78 4.46,-165.44 2.96,-73.49 4.44,-128.84 4.44,-165.75 0,-57.33 -1.65,-136.1 -4.94,-236.11 -83.21,5.28 -144.34,7.91 -183.05,7.91 -3.8,0 -5.77,-1.65 -5.77,-4.78 0,-5.93 1.48,-14.17 4.44,-25.21 3.62,-14.17 5.77,-22.57 6.43,-25.05 0.66,-11.37 2.96,-27.02 6.92,-46.95 1.65,-4.12 4.29,-6.26 8.24,-6.26l5.76 0.49c113.86,6.58 189,9.88 225.4,9.88 32.14,0 84.86,-2.3 157.85,-7.08 49.93,-3.13 70.7,-4.77 62.29,-4.77 8.41,0 13.02,2.96 14.01,8.72 -0.67,-3.45 -0.99,12.03 -0.99,46.8 0,4.29 0.49,10.7 1.48,19.61 0.99,8.9 1.48,15.48 1.48,20.1zm190.97 575.69c0,6.77 -4.61,10.22 -14,10.22 -5.77,0 -14.5,-0.49 -26.53,-1.48 -11.87,-0.98 -20.6,-1.48 -26.36,-1.48 -6.11,0 -15.16,0.5 -27.03,1.48 -11.86,0.99 -20.76,1.48 -26.52,1.48 -8.08,0 -12.03,-3.62 -12.03,-11.04 0,-36.74 1.65,-91.94 4.93,-165.92 3.3,-73.82 4.95,-129.17 4.95,-166.25 0,-35.75 -1.65,-89.3 -4.95,-160.98 -3.28,-71.5 -4.93,-125.22 -4.93,-160.98 0,-8.06 3.79,-12.03 11.21,-12.03 6.09,0 15.31,0.5 28,1.48 12.52,1 22.08,1.5 28.51,1.5 5.77,0 14.5,-0.5 26.03,-1.5 11.7,-0.98 20.43,-1.48 26.2,-1.48 8.4,0 12.52,3.3 12.52,9.73 0,35.91 -1.31,89.96 -3.95,162.14 -2.64,71.99 -3.96,126.03 -3.96,162.12 0,37.08 1.32,92.6 3.96,166.58 2.64,73.99 3.95,129.51 3.95,166.41z"/>
     <path id="_1" class="fil3" d="M1143.06 1284.75c0,44.82 -2.48,76.79 -7.25,95.74 -2.31,9.39 -7.91,14 -16.81,14 -23.9,0 -59.48,-1.33 -107.1,-4.12 -47.61,-2.64 -83.22,-4.12 -107.1,-4.12 -22.41,0 -56.02,0.5 -100.67,1.48 -44.66,0.99 -78.27,1.48 -100.85,1.48 -8.06,0 -12.02,-3.94 -12.02,-12.02 0,-35.1 1.15,-87.99 3.47,-158.84 2.29,-70.85 3.45,-123.91 3.45,-159.33 0,-37.23 -1.65,-93.27 -4.95,-167.74 -3.28,-74.48 -4.93,-130.33 -4.93,-167.73 0,-7.08 3.94,-10.55 12.02,-10.55 5.94,0 14.67,0.49 26.69,1.49 11.86,0.99 20.93,1.49 27.03,1.49 5.77,0 14.82,-0.5 27.02,-1.49 12.35,-1 21.25,-1.49 27.18,-1.49 7.74,0 11.54,3.13 11.54,9.24 0,34.1 -1.31,85.34 -3.95,153.88 -2.64,68.55 -3.96,120.12 -3.96,154.56 0,16.64 0,42.18 0,76.28 -0.33,34.11 -0.5,59.49 -0.5,76.3 0,71.34 2.98,107.1 8.75,107.1 118.46,0 208.09,-2.81 268.4,-8.57 2.96,-0.34 10.38,-1.48 22.23,-3.47 9.56,-1.81 16.98,-2.79 22.25,-2.79 6.76,0 10.06,3.13 10.06,9.22zm609.14 -562.19c0,37.41 -1.48,93.26 -4.44,167.73 -2.98,74.48 -4.46,130.34 -4.46,167.73 0,12.2 0.17,30.49 0.49,54.71 0.34,24.39 0.5,42.34 0.5,54.37 0,67.23 -6.26,113.85 -18.78,139.9 -19.45,39.87 -56.85,66.89 -112.53,81.06 -34.11,8.74 -82.23,13.01 -144.34,13.01 -112.7,0 -186.53,-18.61 -221.62,-56.02 -27.02,-28.83 -40.53,-86.82 -40.53,-173.66 0,-10.55 0.16,-28.5 0.5,-53.88 0.32,-25.21 0.49,-44.98 0.49,-59.49 0,-38.05 -1.65,-107.92 -4.95,-209.9 0,-26.37 -1.48,-65.75 -4.44,-118.31 -0.34,-3.78 -0.49,-6.42 -0.49,-7.57 0,-6.76 4.11,-10.23 12.52,-10.23 13.18,0 31.13,0.17 53.7,0.5 26.04,0.33 43.84,0.49 53.23,0.49 7.42,0 11.04,2.81 11.04,8.74 0,48.77 -0.99,122.42 -2.98,220.45 -1.97,98.21 -2.96,171.7 -2.96,220.47 0,55.35 12.37,92.93 37.24,112.53 21.09,17.3 60.31,26.04 117.16,26.04 51.9,0 88.64,-7.09 110.55,-21.26 27.68,-17.63 41.53,-50.75 41.53,-99.35 0,-50.91 -0.83,-127.21 -2.48,-229.04 -1.64,-101.81 -2.47,-178.11 -2.47,-229.02 0,-5.1 4.61,-8.23 14,-9.56 6.77,-0.99 16.31,-0.99 28.85,0 14.82,1.33 21.74,1.99 21.25,1.99 5.76,0 14.49,-0.5 26.19,-1.5 11.71,-0.98 20.43,-1.48 26.2,-1.48 8.08,0 12.03,3.47 12.03,10.55zm634.36 643.91c0,15.16 -4.61,22.74 -14,22.74l-111.06 0c-9.39,0 -33.77,-34.27 -73.15,-102.64 -33.12,-58.01 -55.2,-99.69 -66.24,-125.39 -10.87,-24.89 -17.3,-38.57 -18.78,-41.53 -9.72,-16.14 -20.93,-24.54 -33.79,-25.53 -3.78,-0.34 -14.49,-0.5 -32.12,-0.5 -40.36,0 -60.64,4.94 -60.64,14.99 0,29.5 0.99,73.82 2.97,132.64 1.98,58.82 2.97,102.82 2.97,131.97 0,10.72 -3.95,15.99 -12.03,15.99 -6.09,0 -15.33,-0.49 -27.52,-1.48 -12.19,-0.98 -21.25,-1.48 -27.34,-1.48 -5.77,0 -14.34,0.5 -25.88,1.48 -11.36,0.99 -19.93,1.48 -25.7,1.48 -8.08,0 -12.03,-3.62 -12.03,-11.04 0,-35.42 1.65,-88.64 4.94,-159.66 3.3,-70.84 4.95,-124.07 4.95,-159.49 0,-37.23 -1.65,-93.42 -4.95,-168.24 -3.29,-74.79 -4.94,-130.81 -4.94,-168.22 0,-7.08 3.95,-10.55 12.03,-10.55 5.77,0 14.66,0.5 26.52,1.48 11.87,1 20.77,1.5 26.86,1.5 5.77,0 14.5,-0.5 26.04,-1.5 11.54,-0.98 20.26,-1.48 26.03,-1.48 7.42,0 11.04,2.98 11.04,8.74 0,27.34 -0.83,68.54 -2.47,123.58 -1.65,55.03 -2.48,96.38 -2.48,124.06 0,12.53 0.83,20.43 2.48,23.56 2.47,5.77 9.06,8.74 19.77,8.74 62.28,0 107.92,-11.53 136.93,-34.77 24.71,-20.6 48.27,-58.33 70.35,-113.36 16.15,-43.16 32.12,-86.33 48.28,-129.51 2.3,-5.43 7.25,-9.06 14.99,-11.04 5.27,-1.31 22.25,-1.97 51.41,-1.97 35.42,0 53.21,5.1 53.21,14.99 0,5.76 -7.4,31.96 -22.24,78.27 -17.3,54.04 -39.7,101.66 -67.39,142.85 -18.29,28.01 -42.51,56.19 -72.83,84.53 -7.74,6.76 -11.53,13.02 -11.53,18.45 0,5.76 13.01,34.44 39.06,86 22.4,44.83 42.83,80.75 61.12,107.77 20.27,24.72 48.44,62.94 84.7,114.35 1.65,2.96 2.46,5.94 2.46,9.22zm647.04 18.8c0,2.63 -3.79,3.94 -11.53,3.94 -6.09,0 -15.16,-0.32 -26.86,-0.98 -11.86,-0.67 -20.76,-0.99 -26.86,-0.99 -6.09,0 -15.31,0.32 -27.68,0.99 -12.18,0.66 -21.42,0.98 -27.51,0.98 -8.89,0 -20.27,-24.39 -34.1,-73.16 -13.85,-48.77 -27.85,-73.47 -42.19,-74.14 -11.7,-0.66 -42.17,-0.98 -91.78,-0.98l-75.13 0c-52.23,0 -82.05,0.32 -89.47,0.98 -11.36,0.99 -24.22,25.88 -38.55,74.48 -14.34,48.6 -25.38,72.82 -33.12,72.82l-108.09 0c-6.43,0 -9.73,-2.31 -9.73,-7.07 0,-3.47 2.32,-11.21 6.93,-23.09l120.44 -322.6c10.22,-25.87 41.03,-100.84 92.44,-224.75 9.23,-20.6 21.75,-51.58 37.4,-92.93 3.95,-12.35 8.08,-18.45 12.69,-18.45 6.09,0 15.32,0.82 27.36,2.3 12.02,1.65 21.08,2.47 27.18,2.47 5.92,0 14.66,-0.82 26.52,-2.64 11.87,-1.8 20.6,-2.63 26.2,-2.63 2.81,0 6.92,5.76 12.2,17.3 7.41,18.13 44.65,115.5 111.54,292.13 94.58,248.48 141.7,373.7 141.7,376.02zm-222.27 -268.08c-2.96,-7.76 -18.45,-49.11 -46.47,-123.74 -27.18,-72.51 -44.98,-120.46 -53.87,-144.02 -66.74,169.87 -100.01,259.01 -100.01,266.92 0,11.04 12.02,17.3 36.25,19.29 1.31,0.33 16.8,0.5 46.79,0.5l49.1 0c45.47,0 68.21,-6.28 68.21,-18.95zm888.91 -394.63c0,37.07 -1.31,92.93 -3.94,167.58 -2.64,74.63 -3.95,130.65 -3.95,167.88 0,35.11 0.32,87.66 0.98,157.7 0.65,70.01 0.99,122.41 0.99,157.5 0,10.72 -4.12,15.99 -12.2,15.99 -4.94,0 -12.19,-0.49 -21.91,-1.48 -9.73,-0.98 -17.14,-1.48 -21.91,-1.48 -5.27,0 -13.18,0.5 -23.9,1.48 -10.7,0.99 -18.61,1.48 -23.88,1.48 -5.77,0 -12.52,-5.1 -20.43,-15.32 -69.37,-93.75 -174.33,-233.48 -315.2,-419.5 -21.93,-28.34 -34.6,-44.16 -38.07,-47.29 -3.13,0 -4.78,6.6 -4.78,19.78 0,49.59 0.83,123.9 2.31,223.26 1.65,99.19 2.47,173.66 2.47,223.08 0,10.72 -3.29,15.99 -9.72,15.99 -5.44,0 -13.84,-0.49 -25.04,-1.48 -11.21,-0.98 -19.61,-1.48 -25.05,-1.48 -5.77,0 -14.5,0.5 -25.86,1.48 -11.38,0.99 -20.11,1.48 -25.88,1.48 -8.08,0 -12.02,-3.3 -12.02,-9.71 0,-35.27 1.65,-88.65 4.93,-159.99 3.3,-71.19 4.95,-124.74 4.95,-160.49 0,-38.88 -1.48,-109.07 -4.29,-210.41 -0.49,-26.36 -2.14,-65.91 -4.61,-118.63l-0.49 -6.26c-0.32,-4.95 3.45,-7.42 11.53,-7.74 20.93,-0.34 37.24,-0.99 49.1,-1.99 4.62,-0.33 13.01,-1.64 25.55,-3.95 10.54,-1.97 18.93,-2.96 25.04,-2.96 2.96,0 8.06,4.61 15.16,14 73.98,101.66 187.17,253.08 339.75,453.77 6.75,8.41 13.01,15.65 18.78,21.75 2.31,-13.51 3.3,-44.32 3.3,-92.6 0,-41.85 -1.48,-104.63 -4.61,-188.33 -3.14,-83.7 -4.62,-146.14 -4.62,-187.67 0,-10.71 3.29,-15.99 9.72,-15.99 5.77,0 14.49,0.5 26.2,1.48 11.87,1 20.6,1.5 26.36,1.5 6.09,0 15.33,-0.5 27.51,-1.5 12.37,-0.98 21.43,-1.48 27.52,-1.48 6.76,0 10.21,3.47 10.21,10.55zm551.49 80.74c0,8.4 -2.96,12.52 -8.73,12.52 -9.06,0 -66.07,-1.98 -171.2,-5.93 -2.64,98.2 -3.95,176.8 -3.95,236.11 0,36.91 1.31,92.43 3.95,166.58 2.64,73.99 3.96,129.51 3.96,166.41 0,6.77 -4.62,10.22 -14.01,10.22 -5.77,0 -14.5,-0.49 -26.52,-1.48 -11.86,-0.98 -20.77,-1.48 -26.86,-1.48 -5.77,0 -14.67,0.5 -26.53,1.48 -11.87,0.99 -20.76,1.48 -26.53,1.48 -8.07,0 -12.03,-3.94 -12.03,-12.02 0,-36.75 1.48,-91.78 4.46,-165.44 2.96,-73.49 4.44,-128.84 4.44,-165.75 0,-57.33 -1.65,-136.1 -4.94,-236.11 -83.21,5.28 -144.34,7.91 -183.05,7.91 -3.8,0 -5.77,-1.65 -5.77,-4.78 0,-5.93 1.48,-14.17 4.44,-25.21 3.62,-14.17 5.77,-22.57 6.43,-25.05 0.66,-11.37 2.96,-27.02 6.92,-46.95 1.65,-4.12 4.29,-6.26 8.24,-6.26l5.76 0.49c113.86,6.58 189,9.88 225.4,9.88 32.14,0 84.86,-2.3 157.85,-7.08 49.93,-3.13 70.7,-4.77 62.29,-4.77 8.41,0 13.02,2.96 14.01,8.72 -0.67,-3.45 -0.99,12.03 -0.99,46.8 0,4.29 0.49,10.7 1.48,19.61 0.99,8.9 1.48,15.48 1.48,20.1zm190.97 575.69c0,6.77 -4.61,10.22 -14,10.22 -5.77,0 -14.5,-0.49 -26.53,-1.48 -11.87,-0.98 -20.6,-1.48 -26.36,-1.48 -6.11,0 -15.16,0.5 -27.03,1.48 -11.86,0.99 -20.76,1.48 -26.52,1.48 -8.08,0 -12.03,-3.62 -12.03,-11.04 0,-36.74 1.65,-91.94 4.93,-165.92 3.3,-73.82 4.95,-129.17 4.95,-166.25 0,-35.75 -1.65,-89.3 -4.95,-160.98 -3.28,-71.5 -4.93,-125.22 -4.93,-160.98 0,-8.06 3.79,-12.03 11.21,-12.03 6.09,0 15.31,0.5 28,1.48 12.52,1 22.08,1.5 28.51,1.5 5.77,0 14.5,-0.5 26.03,-1.5 11.7,-0.98 20.43,-1.48 26.2,-1.48 8.4,0 12.52,3.3 12.52,9.73 0,35.91 -1.31,89.96 -3.95,162.14 -2.64,71.99 -3.96,126.03 -3.96,162.12 0,37.08 1.32,92.6 3.96,166.58 2.64,73.99 3.95,129.51 3.95,166.41z"/>
    </g>
    <g id="_2057429625760">
     <path class="fil4" d="M1116.87 1842.88c0,4.14 -1.93,6.27 -5.69,6.27 -6.18,0 -15.55,-0.1 -27.91,-0.28 -12.36,-0.2 -21.64,-0.3 -27.91,-0.3 -3.39,0 -5.12,-2.71 -5.12,-8.2 0,-9.28 0.29,-23.28 0.87,-42.21 0.58,-18.83 0.86,-33.03 0.86,-42.39 0,-7.63 -0.1,-18.84 -0.28,-33.9 -0.2,-14.97 -0.3,-26.27 -0.3,-33.81 0,-21.53 -3.08,-36.69 -9.26,-45.57 -7.63,-10.53 -21.54,-15.85 -41.92,-15.85 -9.36,0 -22.5,5.32 -39.31,15.93 -17.67,11.11 -26.55,21.07 -26.55,29.75l0 169.78c0,4.64 -1.83,7.05 -5.41,7.05 -5.98,0 -15.06,-0.1 -27.13,-0.28 -12.17,-0.2 -21.15,-0.3 -27.24,-0.3 -3.96,0 -5.99,-2.13 -5.99,-6.47 0,-14.97 0.29,-37.28 0.77,-67.12 0.48,-29.84 0.68,-52.25 0.68,-67.41 0,-40.17 -4.15,-77.25 -12.45,-111.16 -0.58,-1.73 -0.88,-2.99 -0.88,-3.67 0,-1.93 1.26,-3.28 3.67,-4.06 1.35,-0.08 12.07,-1.93 32.36,-5.2 20.27,-3.28 30.91,-4.93 31.86,-4.93 1.06,0 1.84,1.55 2.23,4.54 0.96,11.68 3.09,23.56 6.46,35.44 9.86,-7.72 22.8,-17.38 38.73,-28.87 19.8,-12.07 39.02,-18.07 57.46,-18.07 35.45,0 59.68,10.24 72.63,30.81 9.66,15.16 14.49,39.5 14.49,73.31 0,5.89 -0.2,14.77 -0.49,26.84 -0.28,12.07 -0.38,21.15 -0.38,27.23 0,12.56 0.2,31.49 0.58,56.5 0.38,25.11 0.57,44.03 0.57,56.6zm329.12 -250.42c0,0.76 -0.28,2.41 -0.86,5.12 -7.53,43.16 -11.31,80.34 -11.31,111.63 0,1.93 2.43,44.23 7.25,127l0.3 3.96c0.18,5.51 -2.33,8.2 -7.55,8.2 -5.2,0 -13.02,0.58 -23.56,1.84 -10.43,1.25 -18.24,1.84 -23.36,1.84 -3.58,0 -6.29,-6.57 -8.22,-19.71 -1.93,-13.12 -3.67,-19.69 -5.4,-19.69 -1.16,0 -6.19,3.66 -15.26,11.01 -11.11,8.98 -21.54,15.83 -31.1,20.57 -14.96,7.53 -29.84,11.29 -44.71,11.29 -36.6,0 -67.51,-14.58 -92.62,-43.83 -23.76,-27.92 -35.63,-60.46 -35.63,-97.64 0,-41.83 11.97,-76.5 35.92,-103.82 25.11,-28.5 58.14,-42.7 99.08,-42.7 28.88,0 54.09,10.06 75.54,30.05 3.18,3.77 8.2,9.26 15.05,16.41 0.48,0.58 1.06,0.88 1.64,0.88 1.17,0 2.81,-5.9 4.84,-17.88 2.12,-11.87 4.73,-17.87 8,-17.87 5.12,0 14.7,1.46 28.7,4.26 15.54,3.37 23.26,6.47 23.26,9.08zm-72.43 118.3c0,-23.18 -6.85,-42.98 -20.66,-59.59 -14.49,-17.86 -33.03,-26.84 -55.72,-26.84 -22.6,0 -41.44,8.88 -56.59,26.55 -14.5,17 -21.73,36.9 -21.73,59.88 0,22.79 7.23,42.6 21.73,59.39 15.15,17.48 33.99,26.27 56.59,26.27 22.11,0 40.55,-8.99 55.43,-26.85 14,-16.81 20.95,-36.31 20.95,-58.81zm275.92 86.05c0,4.15 -0.38,9.76 -1.16,16.89 -0.87,8.8 -1.45,14.5 -1.65,17.11 -0.18,3.37 -0.47,5.4 -0.86,6.17 -0.77,1.35 -2.51,2.61 -5.31,3.96 -15.45,7.43 -39.69,11.11 -72.81,11.11 -43.75,0 -65.78,-19.99 -65.98,-59.98 0,-16.03 0.3,-40.07 0.88,-72.23 0.58,-32.16 0.87,-56.3 0.87,-72.33 0,-7.73 -3.86,-11.89 -11.59,-12.47 -7.05,0 -13.91,-0.09 -20.67,-0.28 -3.96,-0.97 -5.99,-8.7 -5.99,-23.28 0,-5.41 0.39,-11.21 1.17,-17.28 0.58,-4.54 3.57,-7.25 9.07,-8.21 4.64,0 9.27,-0.1 13.81,-0.3 8.69,-0.38 13.05,-4.24 13.05,-11.59 0,-7.52 -0.2,-19.02 -0.6,-34.57 -0.38,-15.45 -0.57,-27.04 -0.57,-34.77 0,-13.8 2.6,-20.65 7.92,-20.65 1.64,0 19.32,2.89 52.83,8.68 4.35,0.58 6.46,2.61 6.46,6.18 0,8.4 -0.66,20.86 -2.02,37.47 -1.35,16.61 -2.03,29.08 -2.03,37.38 0,5.5 2.61,8.21 7.73,8.21l68.27 0c3.19,0 4.84,1.15 4.84,3.38 0,2.22 -0.4,5.88 -1.07,10.92 -0.68,4.92 -0.96,8.68 -0.96,11.09 0,2.81 0.1,7.15 0.28,13.04 0.2,5.8 0.3,10.14 0.3,12.95 0,3.57 -2.61,5.4 -7.93,5.4 -7.63,0 -19.02,-0.48 -34.37,-1.44 -15.26,-0.97 -26.65,-1.45 -34.29,-1.45 -1.44,0 -2.61,5.4 -3.37,16.13 -0.4,13.42 -0.58,32.15 -0.58,56.4l0 42.2c0,16.21 1.53,27.52 4.54,33.89 4.44,9.86 13.7,14.78 27.8,14.78 5.8,0 14.3,-1.25 25.59,-3.76 11.21,-2.51 19.62,-3.77 25.02,-3.77 2.22,0 3.38,1.64 3.38,5.02zm302.37 -204.94c0,13.82 -0.58,34.59 -1.73,62.49 -1.16,27.82 -1.74,48.67 -1.74,62.67 0,13.72 0.38,34.39 1.26,61.82 0.86,27.42 1.25,48.09 1.25,61.8 0,3.76 -1.75,6.29 -5.31,7.34 -1.55,0.38 -20.77,0.58 -57.66,0.58 -2.23,0 -3.56,-7.05 -4.06,-21.25 -0.48,-14.1 -1.53,-21.25 -3.28,-21.25 -0.96,0 -2.32,0.88 -4.25,2.61 -31.48,27.34 -62.49,41.05 -93.2,41.05 -41.62,0 -69.14,-15.06 -82.47,-45.29 -8.3,-18.64 -12.45,-52.25 -12.45,-100.73 0,-43.75 3.47,-80.83 10.42,-111.25 1.65,-7.34 4.74,-11.01 9.28,-11.01 5.5,0 13.71,0.1 24.72,0.28 10.91,0.2 19.12,0.3 24.63,0.3 3.76,0 5.7,2.03 5.7,6.17 0,7.35 -1.26,19.62 -3.67,36.8 -2.61,18.35 -3.96,31.19 -4.16,38.72 -0.58,11.41 -0.87,23.86 -0.87,37.38 0,33.04 2.32,55.15 7.05,66.54 8.12,20.37 26.08,30.52 53.89,30.52 11.88,0 25.88,-5.89 42.11,-17.58 16.99,-12.26 25.78,-24.04 26.45,-35.35 0.98,-14.1 1.46,-63.92 1.46,-149.4 0,-9.16 3.86,-13.8 11.59,-13.8l46.84 0c5.49,0 8.2,3.28 8.2,9.84zm219.52 -9.07c0,20.76 -1.45,39.69 -4.26,56.69 -0.57,4.34 -2.51,6.47 -5.69,6.47 -3.97,0 -9.94,-0.38 -17.97,-1.26 -8.1,-0.87 -14.19,-1.25 -18.34,-1.25 -23.86,0 -39.11,6.67 -45.68,20.09 -3.97,8.11 -6,25.01 -6,50.6l0 31.19c0,10.54 0.4,26.57 1.17,48.1 0.77,21.44 1.16,37.47 1.16,48.09 0,5.02 -2.13,7.63 -6.47,7.63 -5.8,0 -14.58,-0.1 -26.37,-0.28 -11.79,-0.2 -20.67,-0.3 -26.46,-0.3 -4.25,0 -6.48,-2.31 -6.48,-7.05 0,-15.25 0.3,-38.34 0.78,-69.05 0.48,-30.7 0.68,-53.88 0.68,-69.34 0,-46.54 -4.25,-84.02 -12.75,-112.32 -0.38,-1.53 -0.58,-2.61 -0.58,-3.38 0,-2.31 1.26,-3.86 3.67,-4.82 6.85,-0.78 16.61,-1.94 29.17,-3.49 20.18,-3.86 29.55,-5.79 28,-5.79 2.99,0 5.02,5.61 5.9,16.81 0.96,11.3 2.7,16.9 5.12,16.9 0.38,0 0.86,-0.2 1.45,-0.58 7.71,-4.93 15.44,-9.85 23.26,-14.87 8.5,-5.12 17.19,-8.88 26.17,-11.39 7.35,-2.23 16.81,-3.39 28.4,-3.39 14.78,0 22.12,2.03 22.12,5.99zm306.52 9.66c0,0.76 -0.28,2.41 -0.86,5.12 -7.53,43.16 -11.31,80.34 -11.31,111.63 0,1.93 2.42,44.23 7.25,127l0.29 3.96c0.19,5.51 -2.32,8.2 -7.54,8.2 -5.2,0 -13.03,0.58 -23.56,1.84 -10.44,1.25 -18.25,1.84 -23.36,1.84 -3.59,0 -6.29,-6.57 -8.23,-19.71 -1.93,-13.12 -3.66,-19.69 -5.4,-19.69 -1.15,0 -6.19,3.66 -15.25,11.01 -11.11,8.98 -21.55,15.83 -31.11,20.57 -14.96,7.53 -29.83,11.29 -44.71,11.29 -36.6,0 -67.51,-14.58 -92.62,-43.83 -23.76,-27.92 -35.63,-60.46 -35.63,-97.64 0,-41.83 11.97,-76.5 35.93,-103.82 25.11,-28.5 58.13,-42.7 99.08,-42.7 28.87,0 54.08,10.06 75.53,30.05 3.19,3.77 8.21,9.26 15.06,16.41 0.48,0.58 1.06,0.88 1.63,0.88 1.17,0 2.81,-5.9 4.84,-17.88 2.13,-11.87 4.74,-17.87 8.01,-17.87 5.12,0 14.69,1.46 28.69,4.26 15.54,3.37 23.27,6.47 23.27,9.08zm-72.43 118.3c0,-23.18 -6.86,-42.98 -20.66,-59.59 -14.49,-17.86 -33.04,-26.84 -55.72,-26.84 -22.6,0 -41.44,8.88 -56.6,26.55 -14.49,17 -21.73,36.9 -21.73,59.88 0,22.79 7.24,42.6 21.73,59.39 15.16,17.48 34,26.27 56.6,26.27 22.11,0 40.55,-8.99 55.42,-26.85 14.01,-16.81 20.96,-36.31 20.96,-58.81zm189.58 -254.57l-0.29 3.66c-4.06,70.12 -6.08,130.38 -6.08,180.79 0,22.41 0.38,56.02 1.16,100.83 0.77,44.81 1.05,78.32 1.05,100.63 0,4.34 -1.45,6.47 -4.44,6.47l-54.09 0c-3.36,0 -5.11,-2.13 -5.11,-6.47 0,-22.31 0.19,-55.82 0.57,-100.63 0.4,-44.81 0.6,-78.42 0.6,-100.83 0,-20.37 -0.98,-50.98 -2.91,-91.83 -1.93,-40.86 -2.89,-71.28 -2.89,-91.47 0,-3.76 1.93,-5.69 5.88,-5.69 3.39,0 8.5,0.29 15.27,0.87 6.76,0.58 11.78,0.88 15.26,0.88 3.47,0 8.78,-0.3 15.73,-0.88 6.95,-0.58 12.07,-0.87 15.46,-0.87 3.38,0 5.02,1.55 4.83,4.54zm501.83 254.47c0,39.41 -12.94,73.11 -38.72,101.03 -26.46,28.87 -59.11,43.25 -98.12,43.25 -39.31,0 -72.05,-14.29 -98.51,-42.97 -25.78,-27.72 -38.72,-61.32 -38.72,-100.73 0,-39.4 12.94,-73.01 38.72,-100.73 26.66,-28.28 59.4,-42.38 98.51,-42.38 38.82,0 71.36,14.1 97.83,42.38 25.98,27.52 39.01,60.94 39.01,100.15zm-59.69 0.58c0,-22.98 -7.04,-42.58 -21.24,-58.81 -14.68,-17.19 -33.32,-25.79 -55.91,-25.79 -22.7,0 -41.44,8.5 -56.3,25.49 -14.2,16.43 -21.25,36.13 -21.25,59.11 0,22.6 7.15,42.3 21.53,58.81 15.07,17.58 33.71,26.37 56.02,26.37 22.41,0 41.05,-8.79 55.91,-26.37 14.2,-16.51 21.24,-36.21 21.24,-58.81zm261.44 -128.44c0,20.76 -1.45,39.69 -4.25,56.69 -0.58,4.34 -2.51,6.47 -5.7,6.47 -3.96,0 -9.94,-0.38 -17.96,-1.26 -8.11,-0.87 -14.2,-1.25 -18.35,-1.25 -23.85,0 -39.11,6.67 -45.68,20.09 -3.96,8.11 -5.99,25.01 -5.99,50.6l0 31.19c0,10.54 0.39,26.57 1.17,48.1 0.76,21.44 1.15,37.47 1.15,48.09 0,5.02 -2.13,7.63 -6.47,7.63 -5.79,0 -14.58,-0.1 -26.37,-0.28 -11.78,-0.2 -20.67,-0.3 -26.46,-0.3 -4.24,0 -6.47,-2.31 -6.47,-7.05 0,-15.25 0.29,-38.34 0.77,-69.05 0.48,-30.7 0.68,-53.88 0.68,-69.34 0,-46.54 -4.24,-84.02 -12.75,-112.32 -0.38,-1.53 -0.57,-2.61 -0.57,-3.38 0,-2.31 1.25,-3.86 3.66,-4.82 6.85,-0.78 16.61,-1.94 29.17,-3.49 20.18,-3.86 29.56,-5.79 28.01,-5.79 2.99,0 5.02,5.61 5.89,16.81 0.96,11.3 2.71,16.9 5.12,16.9 0.38,0 0.86,-0.2 1.45,-0.58 7.71,-4.93 15.44,-9.85 23.26,-14.87 8.51,-5.12 17.19,-8.88 26.17,-11.39 7.35,-2.23 16.81,-3.39 28.4,-3.39 14.78,0 22.12,2.03 22.12,5.99zm280.45 1.94c0,22.68 -0.2,56.68 -0.58,102.06 -0.38,45.41 -0.58,79.4 -0.58,101.99 0,44.91 -9.66,78.04 -28.87,99.37 -20.19,22.7 -52.44,34 -96.87,34 -42.78,0 -77.45,-8.11 -103.82,-24.24 -4.14,-2.61 -6.27,-4.92 -6.27,-6.75 0,2.01 2.79,-11.89 8.5,-41.82 0.58,-3.19 1.93,-4.84 3.95,-4.84 0.97,0 2.23,0.49 3.68,1.45 28.38,16.03 56.78,24.06 85.28,24.06 18.72,0 34.27,-4.16 46.54,-12.47 14.1,-9.36 21.25,-23.08 21.25,-40.94 0,-3.96 -0.4,-12.85 -1.16,-26.57 -20.97,25.51 -47.52,38.26 -79.87,38.26 -34.86,0 -63.55,-12.57 -86.04,-37.68 -21.55,-24.14 -32.26,-53.89 -32.26,-89.14 0,-35.83 10.43,-66.34 31.19,-91.45 22.12,-26.75 50.8,-40.17 86.15,-40.17 31.19,0 56,11.97 74.36,35.83 2.99,3.96 5.12,5.89 6.47,5.89 1.54,0 2.21,-1.75 2.21,-5.12 0,-2.42 -0.19,-6.37 -0.57,-11.69 -0.29,-5.41 -0.48,-9.36 -0.48,-11.97 0,-11.3 1.05,-17 3.38,-17 1.83,0 11.97,1.73 30.32,5.22 18.44,3.48 28.49,5.59 30.13,6.37 2.61,0.97 3.96,3.38 3.96,7.35zm-67.79 116.74c0,-21.05 -5.8,-39.01 -17.29,-53.69 -12.65,-16.03 -29.27,-24.04 -49.74,-24.04 -20.38,0 -36.89,8.11 -49.54,24.34 -11.49,14.67 -17.28,32.54 -17.28,53.39 0,20.57 5.88,38.35 17.57,53.21 12.66,16.23 29.07,24.34 49.25,24.34 19.99,0 36.42,-8.11 49.16,-24.34 11.87,-14.86 17.87,-32.64 17.87,-53.21zm395.17 -109.02c0,0.76 -0.28,2.41 -0.86,5.12 -7.53,43.16 -11.31,80.34 -11.31,111.63 0,1.93 2.43,44.23 7.25,127l0.3 3.96c0.18,5.51 -2.33,8.2 -7.55,8.2 -5.2,0 -13.02,0.58 -23.56,1.84 -10.43,1.25 -18.24,1.84 -23.36,1.84 -3.58,0 -6.29,-6.57 -8.22,-19.71 -1.93,-13.12 -3.67,-19.69 -5.4,-19.69 -1.16,0 -6.19,3.66 -15.26,11.01 -11.11,8.98 -21.54,15.83 -31.1,20.57 -14.96,7.53 -29.84,11.29 -44.71,11.29 -36.6,0 -67.51,-14.58 -92.62,-43.83 -23.76,-27.92 -35.63,-60.46 -35.63,-97.64 0,-41.83 11.97,-76.5 35.92,-103.82 25.12,-28.5 58.14,-42.7 99.08,-42.7 28.88,0 54.09,10.06 75.54,30.05 3.18,3.77 8.2,9.26 15.05,16.41 0.48,0.58 1.06,0.88 1.64,0.88 1.17,0 2.81,-5.9 4.84,-17.88 2.13,-11.87 4.73,-17.87 8.01,-17.87 5.11,0 14.69,1.46 28.69,4.26 15.54,3.37 23.26,6.47 23.26,9.08zm-72.43 118.3c0,-23.18 -6.85,-42.98 -20.65,-59.59 -14.5,-17.86 -33.04,-26.84 -55.73,-26.84 -22.6,0 -41.44,8.88 -56.59,26.55 -14.5,17 -21.73,36.9 -21.73,59.88 0,22.79 7.23,42.6 21.73,59.39 15.15,17.48 33.99,26.27 56.59,26.27 22.11,0 40.55,-8.99 55.43,-26.85 14,-16.81 20.95,-36.31 20.95,-58.81zm22.6 -236.21c-2.79,7.71 -23.66,22.1 -62.47,42.96 -37.96,20.57 -61.43,30.9 -70.5,30.9 -3.48,0 -6.47,-4.72 -8.98,-14.1 -1.93,-7.33 -2.91,-13.6 -2.91,-18.64 0,-1.93 1.84,-3.66 5.42,-5.4 31.28,-15.45 63.63,-35.82 97.24,-61.33 0.78,-0.66 2.13,-1.54 4.25,-2.51 0.97,0.4 2.13,1.26 3.68,2.51 8.01,6.77 18.44,14.1 31.19,21.93 0.96,0.57 1.93,1.83 3.08,3.68zm344.87 368.33c0,4.14 -1.93,6.27 -5.69,6.27 -6.18,0 -15.56,-0.1 -27.91,-0.28 -12.36,-0.2 -21.64,-0.3 -27.92,-0.3 -3.38,0 -5.11,-2.71 -5.11,-8.2 0,-9.28 0.29,-23.28 0.87,-42.21 0.58,-18.83 0.86,-33.03 0.86,-42.39 0,-7.63 -0.1,-18.84 -0.28,-33.9 -0.2,-14.97 -0.3,-26.27 -0.3,-33.81 0,-21.53 -3.09,-36.69 -9.26,-45.57 -7.63,-10.53 -21.55,-15.85 -41.92,-15.85 -9.36,0 -22.5,5.32 -39.31,15.93 -17.67,11.11 -26.55,21.07 -26.55,29.75l0 169.78c0,4.64 -1.83,7.05 -5.41,7.05 -5.98,0 -15.06,-0.1 -27.13,-0.28 -12.17,-0.2 -21.15,-0.3 -27.24,-0.3 -3.97,0 -6,-2.13 -6,-6.47 0,-14.97 0.3,-37.28 0.78,-67.12 0.48,-29.84 0.68,-52.25 0.68,-67.41 0,-40.17 -4.15,-77.25 -12.45,-111.16 -0.58,-1.73 -0.88,-2.99 -0.88,-3.67 0,-1.93 1.26,-3.28 3.67,-4.06 1.35,-0.08 12.07,-1.93 32.36,-5.2 20.27,-3.28 30.9,-4.93 31.86,-4.93 1.06,0 1.84,1.55 2.23,4.54 0.96,11.68 3.09,23.56 6.46,35.44 9.85,-7.72 22.8,-17.38 38.73,-28.87 19.8,-12.07 39.01,-18.07 57.46,-18.07 35.44,0 59.68,10.24 72.63,30.81 9.65,15.16 14.49,39.5 14.49,73.31 0,5.89 -0.2,14.77 -0.49,26.84 -0.29,12.07 -0.38,21.15 -0.38,27.23 0,12.56 0.19,31.49 0.57,56.5 0.38,25.11 0.58,44.03 0.58,56.6zm127.48 -332.7c0,23.18 -12.95,34.77 -38.82,34.77 -26.27,0 -39.41,-11.59 -39.41,-34.77 0,-10.34 4.06,-18.94 12.17,-25.69 7.53,-6.48 16.61,-9.66 27.24,-9.66 10.52,0 19.7,3.28 27.33,9.85 7.62,6.66 11.49,15.16 11.49,25.5zm-2.31 76.67c0,14.5 -0.88,36.42 -2.61,65.78 -1.75,29.35 -2.61,51.38 -2.61,66.05 0,13.81 0.28,34.38 0.86,61.8 0.58,27.43 0.87,48 0.87,61.52 0,3.96 -1.73,5.99 -5.11,5.99l-55.25 0c-3.96,0 -5.98,-3.86 -5.98,-11.59 0,-13.04 0.38,-32.64 1.06,-58.71 0.68,-26.18 0.96,-45.78 0.96,-59.01 0,-14.67 -1.06,-36.8 -3.19,-66.25 -2.11,-29.36 -3.18,-51.48 -3.18,-66.16 0,-3.18 1.93,-4.82 5.89,-4.82 3.38,0 8.6,0.48 15.65,1.44 7.05,0.87 12.35,1.35 15.93,1.35 3.57,0 8.89,-0.48 15.94,-1.35 7.05,-0.96 12.36,-1.44 15.93,-1.44 3.19,0 4.84,1.83 4.84,5.4zm253.89 5.02c0,4.16 -2.13,13.44 -6.47,27.72 -4.36,14.4 -7.45,21.54 -9.08,21.54 -8.5,-3.76 -17.1,-7.44 -25.69,-11.2 -8.6,-3.77 -17.96,-5.6 -28.1,-5.6 -23.28,0 -42.6,8.58 -58.15,25.69 -15.44,17.19 -23.17,37.46 -23.17,60.74 0,22.98 7.73,42.88 23.17,59.68 15.85,17.29 35.25,25.98 58.05,25.98 12.65,0 25.11,-3.09 37.38,-9.27 12.25,-6.19 17.67,-9.28 16.11,-9.28 2.43,0 5.22,7.93 8.22,23.76 2.8,14.3 4.25,24.16 4.25,29.66 0,5.79 -11.01,11.49 -33.12,17.18 -18.54,4.74 -32.16,7.05 -41.05,7.05 -38.93,0 -71.75,-14.48 -98.51,-43.55 -26.27,-28.3 -39.4,-62.1 -39.4,-101.31 0,-39.97 12.85,-73.97 38.54,-101.88 26.45,-28.68 59.39,-42.98 98.8,-42.98 26.45,0 50.68,6.67 72.51,20.09 3.78,2.31 5.71,4.25 5.71,5.98zm291.36 118.79c0,39.41 -12.94,73.11 -38.72,101.03 -26.46,28.87 -59.1,43.25 -98.12,43.25 -39.31,0 -72.05,-14.29 -98.51,-42.97 -25.78,-27.72 -38.72,-61.32 -38.72,-100.73 0,-39.4 12.94,-73.01 38.72,-100.73 26.66,-28.28 59.4,-42.38 98.51,-42.38 38.82,0 71.36,14.1 97.83,42.38 25.98,27.52 39.01,60.94 39.01,100.15zm-59.68 0.58c0,-22.98 -7.05,-42.58 -21.25,-58.81 -14.68,-17.19 -33.32,-25.79 -55.91,-25.79 -22.7,0 -41.44,8.5 -56.3,25.49 -14.2,16.43 -21.25,36.13 -21.25,59.11 0,22.6 7.15,42.3 21.53,58.81 15.08,17.58 33.72,26.37 56.02,26.37 22.41,0 41.05,-8.79 55.91,-26.37 14.2,-16.51 21.25,-36.21 21.25,-58.81z"/>
     <path class="fil5" d="M2805.81 1713.41c0,21.95 -0.67,35.15 -1.99,39.72 -1.65,5.78 -17.71,31.24 -48.15,76.21 -30.44,45.03 -48.48,70.16 -54.19,75.53 -5.16,4.65 -21.88,6.97 -50.19,6.97 -3.39,0 -5.52,-0.33 -6.5,-1.06 -0.93,-0.73 -3.12,-5.44 -6.57,-14.13 -3.39,-8.68 -5.11,-13.86 -5.11,-15.51 0,-2.92 3.46,-4.31 10.35,-4.31 14.52,0 25.2,-2.06 32.09,-6.18 2.33,-1.45 5.91,-5.89 10.62,-13.39 4.71,-7.43 7.09,-12.47 7.09,-15.06 0,-3.51 -9.35,-17.18 -28.11,-41.05 -19.84,-25.26 -30.91,-41.32 -33.24,-48.02 -1.84,-5.37 -2.77,-18.03 -2.77,-38.13 0,-4.97 0.05,-12.4 0.19,-22.29 0.13,-9.94 0.2,-17.44 0.2,-22.47 0,-2.85 1.52,-4.25 4.64,-4.25 4.19,0 10.28,0.2 18.44,0.74 8.1,0.52 14.19,0.79 18.37,0.79 2.06,0 3.12,1.39 3.12,4.11 0,3.58 -0.2,9.01 -0.59,16.32 -0.41,7.22 -0.61,12.73 -0.61,16.31 0,15.85 0.54,27.65 1.52,35.42 0.81,4.96 7.83,17.24 21.17,36.94 13.32,19.63 21.56,29.44 24.67,29.44 2.19,0 9.21,-9.62 20.96,-28.99 11.8,-19.29 18.1,-31.3 18.9,-35.81 0.99,-6.49 1.53,-18.3 1.53,-35.41 0,-3.78 -0.41,-9.29 -1.2,-16.65 -0.79,-7.29 -1.2,-12.8 -1.2,-16.44 0,-3.26 1.07,-4.85 3.12,-4.85 4.18,0 10.42,-0.27 18.78,-0.86 8.41,-0.59 14.65,-0.86 18.82,-0.86 3.92,0 5.84,15.72 5.84,47.22z"/>
    </g>
    <path class="fil6" d="M2321.62 2822.11c12.44,-5.84 -1,8.42 17.24,-13.71l41.44 -65.55c91.02,-139.11 298.5,-412.05 445.16,-430.78 -38.03,36.47 -55.07,37.75 -117.77,104.67 -115.31,123.06 -223.42,322.11 -277.45,487.02 61.96,37.03 108.38,38.18 170.47,29.43 155.59,-21.97 309.18,-106.77 369.95,-274.8 23.77,-65.76 33.09,-147.49 40.74,-213.57 22.64,-195.7 70.31,-267.05 154.78,-432.03 -39.09,1.38 -249.6,87.84 -300.82,106.88 -110.71,41.16 -322.85,140.95 -424.22,213.85 -41.85,30.09 -91.18,68.33 -113.57,134.32 -29.4,86.65 -34.67,189.41 -21.93,273.79 4.18,27.6 13.78,56.27 15.98,80.48z"/>
    <path class="fil7" d="M3074.17 2336.45c-26.92,68.77 -24.65,186.94 -44.23,264.02 36.69,-0.59 175.64,-63.83 259.91,-36.35 -102.78,22.41 -160.45,46.04 -242.87,91.24 -53.24,29.22 -30.27,17.74 -63.12,78.06 -94.16,172.89 -249.96,199.17 -287.03,223.5 41.61,89.4 402.1,192.66 595.66,-32.96 73.19,-85.3 125.16,-203.4 195.73,-292.72 122.15,-154.59 207.89,-178.05 233.58,-204.84 -95.62,-42.08 -246.53,-77.3 -343.79,-90.93 -149.8,-21 -168.47,-10.61 -303.84,0.98z"/>
    <path class="fil8" d="M2278.32 2858.98c12.36,-34.95 -35.55,-191.31 -46.86,-226.39 -24.32,-75.46 -57.24,-121.64 -109.44,-194.65 58.76,23.93 104.89,107.92 134.27,149.29 7.75,-27.48 8.21,-61.27 15.33,-93.99 7.85,-36.13 20.23,-66.27 31.37,-102.07 -74.87,-89.18 -223.83,-146.89 -349.62,-190.03 -1.8,13.51 27.84,124.13 31.88,198.41 4.01,73.22 -10.43,147.98 -5.69,218.28 4.55,67.59 33.91,122.2 87.68,171.21 52.41,47.76 145.54,92.2 211.08,69.94z"/>
   </g>
  </g>
 </g>
</svg>
