<?xml version="1.0" encoding="UTF-8"?>
<!DOCTYPE svg PUBLIC "-//W3C//DTD SVG 1.1//EN" "http://www.w3.org/Graphics/SVG/1.1/DTD/svg11.dtd">
<!-- Creator: CorelDRAW 2017 -->
<svg xmlns="http://www.w3.org/2000/svg" xml:space="preserve" width="50.7998mm" height="33.8666mm" version="1.1" style="shape-rendering:geometricPrecision; text-rendering:geometricPrecision; image-rendering:optimizeQuality; fill-rule:evenodd; clip-rule:evenodd"
viewBox="0 0 5079.98 3386.66"
 xmlns:xlink="http://www.w3.org/1999/xlink">
 <defs>
  <style type="text/css">
   <![CDATA[
    .fil0 {fill:none}
    .fil5 {fill:black}
    .fil4 {fill:#1A3886}
    .fil6 {fill:#26156A}
    .fil10 {fill:#2B2A29}
    .fil3 {fill:#ED3237}
    .fil8 {fill:#005784;fill-rule:nonzero}
    .fil9 {fill:#1A96D4;fill-rule:nonzero}
    .fil1 {fill:#373435;fill-rule:nonzero}
    .fil7 {fill:#96989A;fill-rule:nonzero}
    .fil2 {fill:#ED3237;fill-rule:nonzero}
   ]]>
  </style>
 </defs>
 <g id="Capa_x0020_1">
  <metadata id="CorelCorpID_0Corel-Layer"/>
  <rect class="fil0" x="-0" width="5079.99" height="3386.66"/>
  <g id="_1746448310000">
   <g id="_2189101339952">
    <path class="fil1" d="M20095.59 3337.98c-17.5,-11.01 -34.99,-19.2 -52.41,-24.66 -17.4,-5.38 -35.49,-8.11 -54.19,-8.11 -29.02,0 -52.32,8.11 -69.91,24.24 -17.58,16.13 -26.37,37.47 -26.37,64.02 0,26.63 8.79,48.14 26.37,64.44 17.59,16.31 40.89,24.49 69.91,24.49 18.18,0 36.02,-2.81 53.42,-8.35 17.42,-5.55 35.17,-14.09 53.18,-25.36l2.99 94.66c-20.14,10.49 -41.14,18.35 -62.98,23.47 -21.86,5.21 -45.16,7.77 -70,7.77 -26.97,0 -52.07,-4.35 -75.11,-13.15 -23.13,-8.7 -43.79,-21.59 -62.15,-38.58 -18.86,-17.5 -32.86,-36.96 -42.08,-58.29 -9.3,-21.34 -13.91,-44.9 -13.91,-70.76 0,-26.04 4.69,-49.76 14,-71.28 9.3,-21.51 23.3,-40.97 41.99,-58.47 18.7,-17.32 39.78,-30.21 63.34,-38.58 23.65,-8.28 50.62,-12.46 80.92,-12.46 21,0 41.66,2.39 61.89,7.17 20.22,4.69 40.62,12.03 61.1,21.85l0 95.94zm1517.73 230.46l0 -349.79 255.64 0 0 76.31 -135.3 0 0 60.95 130.09 0 0 73.24 -130.09 0 0 62.98 139.82 0 0 76.31 -260.16 0zm-1379.67 -36.13c-1.14,-5.46 -1.94,-10.64 -2.51,-15.54 -0.56,-4.95 -0.85,-9.79 -0.85,-14.56 0,-1.03 0.06,-2.4 0.17,-4.16 0.12,-1.82 0.17,-3.13 0.17,-4.04l-19 7.34 -1.54 0.68c-15.88,6.15 -23.85,13.95 -23.85,23.39 0,5.35 1.54,9.62 4.67,12.75 3.13,3.13 7.34,4.67 12.69,4.67 4.1,0 8.25,-0.69 12.35,-2 4.1,-1.36 10.02,-4.21 17.7,-8.53zm9.33 22.87c-10.53,5.69 -20.89,9.85 -31.02,12.58 -10.07,2.73 -20.36,4.1 -30.78,4.1 -16.79,0 -29.82,-3.76 -39.09,-11.27 -9.28,-7.51 -13.89,-18.1 -13.89,-31.75 0,-10.93 3.53,-20.26 10.58,-28.11 7.06,-7.86 17.19,-13.72 30.39,-17.59 3.87,-1.14 9.68,-2.66 17.36,-4.66 21.05,-5.46 35.91,-10.64 44.44,-15.53 0.12,-0.68 0.23,-1.37 0.29,-1.99 0.05,-0.68 0.05,-1.77 0.05,-3.19 0,-7.06 -2.1,-12.06 -6.31,-15.14 -4.21,-3.07 -11.21,-4.61 -21,-4.61 -11.78,0 -23.28,2.23 -34.49,6.6 -11.21,4.44 -22.3,11.1 -33.34,20.04l0 -51.96c13.03,-9.16 26.46,-16.1 40.4,-20.71 13.94,-4.61 28.4,-6.89 43.42,-6.89 26.29,0 46.21,5.75 59.7,17.25 13.48,11.49 20.25,28.39 20.25,50.76l0 50.12c0,7.8 1.43,12.86 4.21,15.25 2.79,2.45 8.31,3.76 16.62,3.93l-12.58 47.4c-3.58,0.68 -6.77,1.19 -9.61,1.54 -2.85,0.34 -5.24,0.51 -7.23,0.51 -12.58,0 -22.54,-1.26 -29.88,-3.82 -7.34,-2.56 -13.48,-6.88 -18.49,-12.86zm320.26 13.26l0 -102.65c0,-7.74 -1.48,-13.37 -4.49,-16.78 -3.01,-3.47 -7.91,-5.18 -14.68,-5.18 -6.15,0 -11.5,1.48 -15.99,4.49 -4.5,3.02 -8.14,7.57 -10.93,13.66l0 106.46 -63.16 0 0 -102.65c0,-7.74 -1.48,-13.37 -4.5,-16.78 -3.02,-3.47 -7.85,-5.18 -14.63,-5.18 -6.14,0 -11.38,1.48 -15.76,4.44 -4.38,2.9 -8.08,7.51 -11.21,13.71l0 106.46 -69.99 0 0 -180.26 69.99 0 0 21.56c8.54,-8.54 17.3,-14.79 26.24,-18.72 8.93,-3.93 18.83,-5.92 29.7,-5.92 12.92,0 23.56,2.51 31.98,7.51 8.48,5.01 15.31,12.87 20.49,23.62 9.05,-10.75 18.49,-18.61 28.45,-23.62 9.96,-5 21.11,-7.51 33.45,-7.51 19.29,0 33.81,5.41 43.65,16.28 9.84,10.81 14.8,26.8 14.8,47.97l0 119.09 -73.41 0zm283.67 -31.24c-12.12,11.78 -25.26,20.49 -39.43,26.18 -14.17,5.63 -29.94,8.48 -47.29,8.48 -29.08,0 -52.87,-8.76 -71.36,-26.29 -18.44,-17.47 -27.66,-40.12 -27.66,-67.94 0,-26.86 8.82,-49.05 26.52,-66.41 17.64,-17.41 40.29,-26.12 67.83,-26.12 27.43,0 49.34,8.54 65.61,25.55 16.28,17.02 24.42,39.89 24.42,68.74 0,2.44 0,4.26 -0.06,5.46 -0.06,1.25 -0.17,2.33 -0.28,3.35l-114.1 0.18c1.71,12.86 6.72,22.81 15.02,29.87 8.37,7.06 19.3,10.59 32.89,10.59 8.43,0 16.68,-1.54 24.64,-4.67 8.03,-3.13 17.53,-8.59 28.57,-16.5l14.68 29.53zm-117.45 -71.52l51.56 0c0,-0.79 0.05,-1.76 0.17,-2.96 0.11,-1.14 0.17,-1.99 0.17,-2.56 0,-10.64 -2.28,-18.78 -6.77,-24.52 -4.5,-5.7 -10.87,-8.54 -19.07,-8.54 -8.71,0 -15.19,2.84 -19.57,8.48 -4.33,5.63 -6.49,14.05 -6.49,25.21l0 4.89zm144.82 102.76l0 -180.26 64.54 0 0 45.75c7.45,-15.99 16.1,-28 26,-36.08 9.9,-8.03 21,-12.07 33.35,-12.07 6.43,0 13.09,1.08 19.86,3.31 6.77,2.21 13.6,5.4 20.49,9.61l-32.16 70.45c-5.23,-4.32 -10.01,-7.51 -14.28,-9.44 -4.27,-1.94 -8.54,-2.91 -12.75,-2.91 -8.02,0 -14.85,3.02 -20.6,9.11 -5.74,6.03 -10.07,14.96 -13.09,26.73l0 75.8 -71.36 0zm187.11 -222.89c0,-6.88 2.39,-12.69 7.23,-17.47 4.78,-4.78 10.59,-7.17 17.47,-7.17 7.06,0 12.92,2.33 17.7,7.06 4.72,4.72 7.11,10.58 7.11,17.58 0,7.06 -2.39,12.92 -7.22,17.7 -4.79,4.78 -10.65,7.17 -17.59,7.17 -7,0 -12.8,-2.39 -17.58,-7.17 -4.73,-4.78 -7.12,-10.64 -7.12,-17.7zm-10.58 222.89l0 -180.26 71.01 0 0 180.26 -71.01 0zm104.53 0l0 -180.26 71.02 0 0 21.56c8.53,-8.54 17.41,-14.79 26.57,-18.72 9.16,-3.93 19.41,-5.92 30.73,-5.92 19.8,0 34.77,5.46 44.9,16.33 10.18,10.93 15.25,26.86 15.25,47.92l0 119.09 -71.02 0 0 -102.65c0,-7.74 -1.48,-13.37 -4.49,-16.78 -3.02,-3.47 -7.86,-5.18 -14.63,-5.18 -6.15,0 -11.44,1.48 -15.93,4.49 -4.5,3.02 -8.25,7.57 -11.38,13.66l0 106.46 -71.02 0zm284.42 -90.13c0,10.81 2.89,19.46 8.65,26 5.8,6.54 13.25,9.84 22.47,9.84 9.11,0 16.51,-3.3 22.2,-9.84 5.63,-6.54 8.47,-15.19 8.47,-26 0,-10.64 -2.78,-19.23 -8.42,-25.77 -5.58,-6.49 -13.03,-9.73 -22.25,-9.73 -9.33,0 -16.84,3.24 -22.53,9.73 -5.75,6.54 -8.59,15.13 -8.59,25.77zm-72.39 0c0,-28 9.45,-50.53 28.28,-67.6 18.84,-17.07 43.93,-25.61 75.29,-25.61 31.3,0 56.39,8.54 75.17,25.61 18.78,17.07 28.17,39.6 28.17,67.6 0,27.99 -9.45,50.53 -28.34,67.6 -18.89,17.07 -43.93,25.61 -75,25.61 -31.24,0 -56.34,-8.54 -75.23,-25.61 -18.89,-17.07 -28.34,-39.61 -28.34,-67.6zm539.14 90.13l0 -233.19 71.02 0 0 233.19 -71.02 0zm283.11 -31.24c-12.12,11.78 -25.26,20.49 -39.43,26.18 -14.17,5.63 -29.94,8.48 -47.29,8.48 -29.08,0 -52.87,-8.76 -71.36,-26.29 -18.44,-17.47 -27.66,-40.12 -27.66,-67.94 0,-26.86 8.82,-49.05 26.52,-66.41 17.64,-17.41 40.29,-26.12 67.83,-26.12 27.43,0 49.34,8.54 65.61,25.55 16.28,17.02 24.41,39.89 24.41,68.74 0,2.44 0,4.26 -0.06,5.46 -0.05,1.25 -0.17,2.33 -0.28,3.35l-114.09 0.18c1.71,12.86 6.72,22.81 15.02,29.87 8.37,7.06 19.3,10.59 32.89,10.59 8.43,0 16.68,-1.54 24.64,-4.67 8.03,-3.13 17.53,-8.59 28.57,-16.5l14.68 29.53zm-117.45 -71.52l51.56 0c0,-0.79 0.05,-1.76 0.17,-2.96 0.11,-1.14 0.17,-1.99 0.17,-2.56 0,-10.64 -2.28,-18.78 -6.77,-24.52 -4.5,-5.7 -10.87,-8.54 -19.07,-8.54 -8.7,0 -15.19,2.84 -19.57,8.48 -4.33,5.63 -6.49,14.05 -6.49,25.21l0 4.89zm242.41 66.63c-1.14,-5.46 -1.94,-10.64 -2.5,-15.54 -0.57,-4.95 -0.86,-9.79 -0.86,-14.56 0,-1.03 0.06,-2.4 0.17,-4.16 0.12,-1.82 0.17,-3.13 0.17,-4.04l-19 7.34 -1.54 0.68c-15.88,6.15 -23.84,13.95 -23.84,23.39 0,5.35 1.53,9.62 4.66,12.75 3.13,3.13 7.35,4.67 12.69,4.67 4.1,0 8.25,-0.69 12.35,-2 4.1,-1.36 10.02,-4.21 17.7,-8.53zm9.33 22.87c-10.53,5.69 -20.88,9.85 -31.01,12.58 -10.07,2.73 -20.37,4.1 -30.79,4.1 -16.79,0 -29.82,-3.76 -39.09,-11.27 -9.28,-7.51 -13.89,-18.1 -13.89,-31.75 0,-10.93 3.53,-20.26 10.59,-28.11 7.05,-7.86 17.18,-13.72 30.39,-17.59 3.86,-1.14 9.67,-2.66 17.35,-4.66 21.06,-5.46 35.91,-10.64 44.44,-15.53 0.12,-0.68 0.23,-1.37 0.29,-1.99 0.06,-0.68 0.06,-1.77 0.06,-3.19 0,-7.06 -2.11,-12.06 -6.32,-15.14 -4.21,-3.07 -11.21,-4.61 -21,-4.61 -11.78,0 -23.27,2.23 -34.49,6.6 -11.21,4.44 -22.3,11.1 -33.34,20.04l0 -51.96c13.03,-9.16 26.46,-16.1 40.4,-20.71 13.94,-4.61 28.4,-6.89 43.42,-6.89 26.29,0 46.21,5.75 59.7,17.25 13.48,11.49 20.25,28.39 20.25,50.76l0 50.12c0,7.8 1.43,12.86 4.21,15.25 2.79,2.45 8.32,3.76 16.62,3.93l-12.58 47.4c-3.58,0.68 -6.77,1.19 -9.61,1.54 -2.85,0.34 -5.24,0.51 -7.23,0.51 -12.57,0 -22.53,-1.26 -29.87,-3.82 -7.34,-2.56 -13.49,-6.88 -18.5,-12.86zm81.95 13.26l0 -5.52 79.66 -122.51 -73.52 0 0 -52.23 181.65 0 0 8.19 -76.14 118.47 76.14 0 0 53.6 -187.79 0zm310.36 -36.13c-1.14,-5.46 -1.94,-10.64 -2.5,-15.54 -0.57,-4.95 -0.86,-9.79 -0.86,-14.56 0,-1.03 0.06,-2.4 0.17,-4.16 0.12,-1.82 0.17,-3.13 0.17,-4.04l-19 7.34 -1.54 0.68c-15.88,6.15 -23.84,13.95 -23.84,23.39 0,5.35 1.53,9.62 4.66,12.75 3.13,3.13 7.35,4.67 12.69,4.67 4.1,0 8.25,-0.69 12.35,-2 4.1,-1.36 10.02,-4.21 17.7,-8.53zm9.32 22.87c-10.52,5.69 -20.87,9.85 -31,12.58 -10.07,2.73 -20.37,4.1 -30.79,4.1 -16.79,0 -29.82,-3.76 -39.09,-11.27 -9.28,-7.51 -13.89,-18.1 -13.89,-31.75 0,-10.93 3.53,-20.26 10.59,-28.11 7.05,-7.86 17.18,-13.72 30.39,-17.59 3.86,-1.14 9.67,-2.66 17.35,-4.66 21.06,-5.46 35.91,-10.64 44.44,-15.53 0.12,-0.68 0.23,-1.37 0.29,-1.99 0.06,-0.68 0.06,-1.77 0.06,-3.19 0,-7.06 -2.11,-12.06 -6.32,-15.14 -4.21,-3.07 -11.21,-4.61 -21,-4.61 -11.78,0 -23.27,2.23 -34.49,6.6 -11.21,4.44 -22.3,11.1 -33.34,20.04l0 -51.96c13.03,-9.16 26.46,-16.1 40.4,-20.71 13.94,-4.61 28.4,-6.89 43.42,-6.89 26.28,0 46.2,5.75 59.69,17.25 13.48,11.49 20.25,28.39 20.25,50.76l0 50.12c0,7.8 1.43,12.86 4.21,15.25 2.79,2.45 8.32,3.76 16.62,3.93l-12.57 47.4c-3.59,0.68 -6.78,1.19 -9.62,1.54 -2.85,0.34 -5.24,0.51 -7.23,0.51 -12.57,0 -22.53,-1.26 -29.87,-3.82 -7.34,-2.56 -13.49,-6.88 -18.5,-12.86zm96.97 13.26l0 -180.26 64.53 0 0 45.75c7.46,-15.99 16.11,-28 26.01,-36.08 9.9,-8.03 20.99,-12.07 33.34,-12.07 6.44,0 13.09,1.08 19.86,3.31 6.77,2.21 13.6,5.4 20.49,9.61l-32.15 70.45c-5.24,-4.32 -10.02,-7.51 -14.29,-9.44 -4.26,-1.94 -8.53,-2.91 -12.74,-2.91 -8.02,0 -14.86,3.02 -20.6,9.11 -5.75,6.03 -10.08,14.96 -13.09,26.73l0 75.8 -71.36 0z"/>
    <path class="fil2" d="M21606.36 3732.42l0 -1.98 70.15 -103.05 -68.26 0 0 -32.66 142.65 0 0 2.25 -68.37 100.97 68.37 0 0 34.47 -144.54 0zm215.44 -21.33c-0.67,-3.23 -1.14,-6.29 -1.48,-9.17 -0.34,-2.93 -0.51,-5.79 -0.51,-8.6 0,-0.61 0.04,-1.42 0.11,-2.46 0.06,-1.07 0.1,-1.85 0.1,-2.38l-11.23 4.33 -0.9 0.4c-9.38,3.63 -14.08,8.24 -14.08,13.81 0,3.16 0.91,5.68 2.76,7.53 1.84,1.85 4.33,2.76 7.49,2.76 2.42,0 4.87,-0.41 7.29,-1.18 2.42,-0.81 5.91,-2.49 10.45,-5.04zm5.51 13.51c-6.22,3.36 -12.33,5.81 -18.32,7.42 -5.94,1.61 -12.02,2.42 -18.17,2.42 -9.91,0 -17.61,-2.22 -23.08,-6.65 -5.48,-4.44 -8.2,-10.69 -8.2,-18.75 0,-6.45 2.08,-11.96 6.25,-16.6 4.16,-4.64 10.14,-8.1 17.94,-10.38 2.28,-0.67 5.71,-1.58 10.25,-2.76 12.43,-3.22 21.2,-6.28 26.24,-9.17 0.07,-0.41 0.14,-0.81 0.17,-1.18 0.03,-0.4 0.03,-1.04 0.03,-1.88 0,-4.17 -1.24,-7.12 -3.73,-8.94 -2.48,-1.81 -6.62,-2.72 -12.4,-2.72 -6.95,0 -13.74,1.31 -20.36,3.9 -6.62,2.62 -13.17,6.55 -19.69,11.83l0 -30.68c7.69,-5.41 15.63,-9.51 23.86,-12.23 8.23,-2.72 16.77,-4.07 25.63,-4.07 15.53,0 27.29,3.4 35.25,10.19 7.96,6.78 11.96,16.76 11.96,29.97l0 29.6c0,4.6 0.84,7.59 2.49,9.01 1.65,1.44 4.91,2.21 9.81,2.31l-7.42 27.99c-2.12,0.4 -4,0.71 -5.68,0.91 -1.68,0.2 -3.1,0.3 -4.27,0.3 -7.43,0 -13.31,-0.74 -17.64,-2.25 -4.34,-1.51 -7.96,-4.06 -10.92,-7.59zm146.36 3.82c-6.04,2.06 -11.92,3.57 -17.67,4.54 -5.74,0.98 -11.32,1.48 -16.77,1.48 -18.24,0 -32.96,-5.07 -44.15,-15.26 -11.19,-10.17 -16.76,-23.51 -16.76,-39.98 0,-16.53 5.54,-29.84 16.6,-39.91 11.05,-10.09 25.73,-15.13 44.11,-15.13 5.58,0 11.16,0.51 16.73,1.48 5.58,0.98 11.3,2.45 17.14,4.44l0 35.45c-5.91,-2.56 -10.72,-4.31 -14.38,-5.28 -3.66,-0.94 -7.19,-1.41 -10.62,-1.41 -8.06,0 -14.54,1.88 -19.45,5.65 -4.94,3.79 -7.39,8.7 -7.39,14.71 0,6.18 2.45,11.12 7.39,14.92 4.91,3.76 11.39,5.64 19.45,5.64 3.3,0 7.13,-0.5 11.56,-1.51 4.43,-1.04 9.17,-2.52 14.21,-4.5l0 34.67zm74.93 -17.33c-0.67,-3.23 -1.14,-6.29 -1.48,-9.17 -0.33,-2.93 -0.5,-5.79 -0.5,-8.6 0,-0.61 0.03,-1.42 0.1,-2.46 0.07,-1.07 0.1,-1.85 0.1,-2.38l-11.22 4.33 -0.91 0.4c-9.37,3.63 -14.08,8.24 -14.08,13.81 0,3.16 0.91,5.68 2.76,7.53 1.85,1.85 4.33,2.76 7.49,2.76 2.42,0 4.87,-0.41 7.29,-1.18 2.42,-0.81 5.91,-2.49 10.45,-5.04zm5.51 13.51c-6.21,3.36 -12.33,5.81 -18.31,7.42 -5.95,1.61 -12.03,2.42 -18.18,2.42 -9.91,0 -17.6,-2.22 -23.08,-6.65 -5.48,-4.44 -8.2,-10.69 -8.2,-18.75 0,-6.45 2.08,-11.96 6.25,-16.6 4.17,-4.64 10.15,-8.1 17.94,-10.38 2.29,-0.67 5.71,-1.58 10.25,-2.76 12.43,-3.22 21.2,-6.28 26.24,-9.17 0.07,-0.41 0.14,-0.81 0.17,-1.18 0.03,-0.4 0.03,-1.04 0.03,-1.88 0,-4.17 -1.24,-7.12 -3.73,-8.94 -2.48,-1.81 -6.62,-2.72 -12.39,-2.72 -6.96,0 -13.75,1.31 -20.37,3.9 -6.62,2.62 -13.17,6.55 -19.69,11.83l0 -30.68c7.7,-5.41 15.63,-9.51 23.86,-12.23 8.23,-2.72 16.77,-4.07 25.64,-4.07 15.52,0 27.28,3.4 35.25,10.19 7.96,6.78 11.96,16.76 11.96,29.97l0 29.6c0,4.6 0.84,7.59 2.48,9.01 1.65,1.44 4.91,2.21 9.81,2.31l-7.42 27.99c-2.12,0.4 -4,0.71 -5.68,0.91 -1.68,0.2 -3.09,0.3 -4.27,0.3 -7.42,0 -13.3,-0.74 -17.64,-2.25 -4.33,-1.51 -7.96,-4.06 -10.92,-7.59zm141.32 -1.58c-5.18,4 -10.76,6.92 -16.66,8.7 -5.95,1.81 -12.87,2.72 -20.8,2.72 -13.2,0 -23.18,-3.02 -29.97,-9.11 -6.79,-6.08 -10.18,-15.01 -10.18,-26.78l0 -45.76 -18.35 0 0 -12.7 50.03 -45.36 10.46 0 0 31.25 33.22 0 0 26.81 -33.22 0 0 31.89c0,5.17 0.94,8.8 2.78,10.82 1.89,2.05 5.11,3.05 9.71,3.05 3.6,0 7.33,-0.63 11.23,-1.88 3.89,-1.24 7.81,-3.09 11.75,-5.61l0 31.96zm120.96 -9.04c-7.16,6.95 -14.92,12.09 -23.29,15.45 -8.36,3.33 -17.67,5.01 -27.92,5.01 -17.17,0 -31.21,-5.17 -42.13,-15.52 -10.89,-10.32 -16.33,-23.69 -16.33,-40.12 0,-15.86 5.2,-28.97 15.65,-39.21 10.42,-10.29 23.8,-15.43 40.06,-15.43 16.19,0 29.13,5.04 38.74,15.09 9.61,10.05 14.41,23.55 14.41,40.59 0,1.45 0,2.52 -0.03,3.22 -0.03,0.75 -0.1,1.38 -0.17,1.99l-67.37 0.1c1.01,7.59 3.97,13.47 8.87,17.64 4.94,4.16 11.39,6.25 19.42,6.25 4.97,0 9.85,-0.91 14.55,-2.76 4.74,-1.85 10.35,-5.07 16.87,-9.74l8.67 17.44zm-69.35 -42.24l30.44 0c0,-0.47 0.03,-1.04 0.1,-1.75 0.07,-0.67 0.1,-1.17 0.1,-1.51 0,-6.28 -1.34,-11.08 -4,-14.48 -2.65,-3.36 -6.42,-5.04 -11.25,-5.04 -5.15,0 -8.97,1.68 -11.56,5.01 -2.56,3.33 -3.83,8.3 -3.83,14.88l0 2.89zm174.62 56.68c-6.05,2.06 -11.93,3.57 -17.67,4.54 -5.75,0.98 -11.32,1.48 -16.77,1.48 -18.25,0 -32.96,-5.07 -44.15,-15.26 -11.19,-10.17 -16.77,-23.51 -16.77,-39.98 0,-16.53 5.55,-29.84 16.6,-39.91 11.06,-10.09 25.74,-15.13 44.12,-15.13 5.58,0 11.15,0.51 16.73,1.48 5.58,0.98 11.29,2.45 17.14,4.44l0 35.45c-5.92,-2.56 -10.72,-4.31 -14.38,-5.28 -3.67,-0.94 -7.19,-1.41 -10.62,-1.41 -8.06,0 -14.55,1.88 -19.46,5.65 -4.94,3.79 -7.39,8.7 -7.39,14.71 0,6.18 2.45,11.12 7.39,14.92 4.91,3.76 11.4,5.64 19.46,5.64 3.29,0 7.12,-0.5 11.56,-1.51 4.43,-1.04 9.17,-2.52 14.21,-4.5l0 34.67zm74.93 -17.33c-0.68,-3.23 -1.14,-6.29 -1.48,-9.17 -0.34,-2.93 -0.51,-5.79 -0.51,-8.6 0,-0.61 0.04,-1.42 0.1,-2.46 0.07,-1.07 0.11,-1.85 0.11,-2.38l-11.23 4.33 -0.9 0.4c-9.38,3.63 -14.08,8.24 -14.08,13.81 0,3.16 0.9,5.68 2.76,7.53 1.84,1.85 4.33,2.76 7.49,2.76 2.42,0 4.87,-0.41 7.29,-1.18 2.42,-0.81 5.91,-2.49 10.45,-5.04zm5.51 13.51c-6.22,3.36 -12.33,5.81 -18.32,7.42 -5.94,1.61 -12.02,2.42 -18.17,2.42 -9.91,0 -17.61,-2.22 -23.08,-6.65 -5.48,-4.44 -8.2,-10.69 -8.2,-18.75 0,-6.45 2.08,-11.96 6.25,-16.6 4.16,-4.64 10.14,-8.1 17.94,-10.38 2.28,-0.67 5.71,-1.58 10.25,-2.76 12.43,-3.22 21.2,-6.28 26.24,-9.17 0.07,-0.41 0.13,-0.81 0.17,-1.18 0.03,-0.4 0.03,-1.04 0.03,-1.88 0,-4.17 -1.24,-7.12 -3.73,-8.94 -2.49,-1.81 -6.62,-2.72 -12.4,-2.72 -6.95,0 -13.74,1.31 -20.36,3.9 -6.62,2.62 -13.17,6.55 -19.69,11.83l0 -30.68c7.69,-5.41 15.63,-9.51 23.86,-12.23 8.23,-2.72 16.76,-4.07 25.63,-4.07 15.53,0 27.29,3.4 35.25,10.19 7.96,6.78 11.96,16.76 11.96,29.97l0 29.6c0,4.6 0.84,7.59 2.49,9.01 1.65,1.44 4.91,2.21 9.81,2.31l-7.43 27.99c-2.11,0.4 -4,0.71 -5.67,0.91 -1.68,0.2 -3.1,0.3 -4.27,0.3 -7.43,0 -13.31,-0.74 -17.64,-2.25 -4.34,-1.51 -7.96,-4.06 -10.92,-7.59zm54.84 -1.01l0 -30.27c7.29,5.54 13.37,9.4 18.21,11.62 4.87,2.18 9.57,3.29 14.11,3.29 3.46,0 6.25,-0.7 8.33,-2.12 2.05,-1.41 3.09,-3.35 3.09,-5.77 0,-3.56 -5.21,-7.53 -15.59,-11.93 -3.32,-1.38 -5.94,-2.52 -7.76,-3.36 -6.79,-3.03 -11.86,-7.03 -15.29,-12.06 -3.39,-5.01 -5.1,-10.99 -5.1,-17.95 0,-9.51 3.73,-17.03 11.22,-22.58 7.46,-5.54 17.71,-8.3 30.71,-8.3 7.12,0 13.91,0.71 20.26,2.12 6.35,1.41 12.43,3.53 18.21,6.35l0 27.82c-6.18,-3.32 -11.49,-5.84 -15.92,-7.53 -4.47,-1.71 -8,-2.55 -10.62,-2.55 -3.8,0 -6.62,0.57 -8.43,1.71 -1.79,1.15 -2.69,2.86 -2.69,5.15 0,3.15 4.77,6.78 14.28,10.92 2.28,0.97 4.1,1.74 5.41,2.35 8.1,3.53 14.14,7.86 18.1,12.94 3.97,5.1 5.95,11.08 5.95,18.01 0,10.34 -3.76,18.44 -11.25,24.26 -7.53,5.81 -18.05,8.73 -31.55,8.73 -8.61,0 -16.47,-0.87 -23.66,-2.65 -7.19,-1.79 -13.84,-4.51 -20.02,-8.2z"/>
    <polygon class="fil3" points="21606.61,3218.65 21661.05,3218.65 21661.05,3568.44 21606.61,3568.44 "/>
    <path class="fil1" d="M21486.47 3699.22c0,9.1 -2.19,16.36 -6.56,21.77 -4.38,5.41 -9.92,8.12 -16.62,8.12 -2.71,0 -5.12,-0.32 -7.22,-0.94 -2.1,-0.62 -4.26,-1.58 -6.45,-2.88l0 22.89 -9.24 0 0 -74.9 9.24 0 0 5.74c2.29,-2.06 4.85,-3.78 7.65,-5.17 2.81,-1.39 5.87,-2.08 9.17,-2.08 6.31,0 11.21,2.48 14.74,7.45 3.54,4.97 5.29,11.63 5.29,20zm-9.54 0.98c0,-6.24 -1,-11.07 -2.99,-14.52 -2.01,-3.45 -5.26,-5.17 -9.76,-5.17 -2.61,0 -5.15,0.58 -7.6,1.74 -2.44,1.15 -4.77,2.64 -6.96,4.48l0 31c2.43,1.18 4.5,1.99 6.23,2.41 1.72,0.41 3.7,0.63 5.92,0.63 4.8,0 8.52,-1.74 11.18,-5.24 2.66,-3.5 3.98,-8.6 3.98,-15.33zm64.03 0.45c0,9.23 -2.23,16.32 -6.66,21.34 -4.45,5.01 -10.36,7.51 -17.74,7.51 -7.62,0 -13.6,-2.59 -17.96,-7.76 -4.36,-5.17 -6.54,-12.2 -6.54,-21.09 0,-9.13 2.24,-16.23 6.74,-21.28 4.49,-5.07 10.41,-7.6 17.76,-7.6 7.38,0 13.29,2.53 17.74,7.57 4.43,5.05 6.66,12.14 6.66,21.31zm-9.54 0c0,-7.04 -1.29,-12.27 -3.86,-15.71 -2.58,-3.43 -6.25,-5.13 -11,-5.13 -4.79,0 -8.49,1.7 -11.08,5.13 -2.59,3.44 -3.88,8.67 -3.88,15.71 0,6.84 1.29,12.01 3.88,15.53 2.59,3.54 6.29,5.3 11.08,5.3 4.72,0 8.38,-1.73 10.97,-5.19 2.6,-3.47 3.89,-8.67 3.89,-15.64zm48 -17.43l-0.49 0c-0.69,-0.18 -1.42,-0.28 -2.18,-0.34 -0.77,-0.05 -1.69,-0.06 -2.77,-0.06 -2.48,0 -4.94,0.53 -7.4,1.6 -2.44,1.09 -4.76,2.68 -6.94,4.81l0 38.77 -9.24 0 0 -54.72 9.24 0 0 8.13c3.36,-2.98 6.29,-5.07 8.78,-6.29 2.49,-1.22 4.92,-1.84 7.28,-1.84 0.94,0 1.65,0.02 2.13,0.07 0.46,0.05 1,0.13 1.59,0.23l0 9.64z"/>
   </g>
  </g>
  <g id="_2093459531936">
   <path class="fil4" d="M577.21 1117.17c-1.34,23.75 0.89,32.55 -2.57,64.71 -6.85,63.8 -36.48,164.46 -65.64,218.5 -5.2,-6.09 -12.81,-21.3 -17.36,-29.1l-107.92 -209.31 -1.28 -3.33c-5.74,-16.49 -22.09,-82.01 -22.16,-90.37 -1.72,3.52 -3.87,9.69 -6.92,11.99 -16.15,37.94 -34.02,74.89 -50.55,112.8 -8.03,18.43 -13.5,40.05 -16.36,58.48 -3.01,19.46 -2.11,33.22 -2.63,51.77 -1.03,3.14 -0.41,1.18 -0.35,3.96 0.4,16.42 5.75,33.08 10.1,48.64l17.44 51.73c1.72,5.59 3.65,11.16 5.38,16.75 1.87,6.05 3.43,13.41 6.84,16.76 -0.62,4.33 0.06,6.14 2.38,12.08 1.83,4.63 2.63,5.7 4.21,10.86l13.38 39.74c0.28,0.98 0.51,1.8 0.86,2.82l26.91 71.95c3.49,8.54 1.54,5.99 3.29,11.29l5.03 24.34c0.71,6.48 -0.84,9.28 1.51,13.84 -5.31,4.56 -8.22,11.32 -12.06,17.32 -3.81,5.98 -8.54,11.54 -11.6,19.18 -2.59,0.99 -67.64,97.21 -69.92,100.22 -12.28,16.21 -23.89,33.51 -35.22,49.53l-71.5 99.06c-17.8,25.76 -34.97,47.87 -53.24,75.74 -6.22,9.49 -11.32,18.03 -17.38,27.65 -12.14,19.29 -20.4,37.04 -14.15,60.69 2.23,4.77 3.85,11.18 5.7,16.68l30.26 67.29c3.12,5.62 5.03,11.09 8.18,16.52 10.44,17.99 23.11,44.48 35.24,63.99 14.93,24.01 36.29,63.94 37.89,93.58l0.25 7.37c0.24,2.01 0.5,2.73 0.6,3.03 8.21,-10.35 24.11,-46.06 31.53,-60.19 20.5,-39.02 219.75,-423.29 222.05,-434.12 3.26,-2.03 5.89,-8.03 6.9,-12.62 5.88,-5.48 8.31,-20.42 14.99,-25.33 2.13,2.78 7.23,12.73 8.53,15.45 10.54,22.14 38.85,69.63 52.67,93.38 3.59,6.18 5.98,11.09 10.68,16.26 0.89,5.83 41.57,68.79 48.34,79.56 27.41,43.59 74.49,113.07 106.07,156.67 10.2,14.08 46.7,64.74 64.25,72.92 7.72,-5.81 61.25,-94.5 70.41,-110.01 24.59,-41.64 46.94,-81.72 63.58,-129.26 2.01,-7.83 1.33,-6.09 -4.25,-11.1 -3.77,-3.37 -5.9,-6.08 -9.23,-9.7 -17.98,-19.57 -33.3,-37.18 -49.43,-58.66l-22.3 -29.35c-3.89,-5.46 -34.1,-48.51 -38.33,-49.83 -1.22,-6.09 -3.41,-7.11 -7.61,-13.59l-17.82 -26.05c-3.32,-4.82 -6.11,-8.21 -9.12,-12.92l-34.69 -51.05 -88.99 -139.18c-9.42,-15.42 -18.51,-30.89 -28.18,-45.65l32.88 -81.31c28.6,-73.01 75.36,-167.52 74.06,-241.32 -0.84,-48.85 -17.63,-86.2 -45.6,-119.95 -12.05,-14.52 -84.84,-88.68 -100.3,-94.27l-2.08 -0.19c8.69,14.81 14.22,69.93 14.35,92.66z"/>
   <path class="fil5" d="M474.33 1838.99c-1.01,4.59 -3.64,10.59 -6.9,12.62 -2.3,10.83 -201.55,395.1 -222.05,434.12 -7.42,14.13 -23.32,49.84 -31.53,60.19 -0.1,-0.3 -0.36,-1.02 -0.6,-3.03l-0.25 -7.37c-1.6,-29.64 -22.96,-69.57 -37.89,-93.58 -12.13,-19.51 -24.8,-46 -35.24,-63.99 -3.15,-5.43 -5.06,-10.9 -8.18,-16.52l-30.26 -67.29c-1.85,-5.5 -3.47,-11.91 -5.7,-16.68 -16.18,42.52 -15.04,55.08 1.79,90.78l3.88 7.84c1.46,2.9 0.04,0.39 1.86,3.42l35.95 66.84c0.13,0.25 0.31,0.61 0.43,0.87l3.17 7.09c0.12,0.26 0.29,0.62 0.4,0.89 0.11,0.26 0.28,0.62 0.4,0.88l13.48 31.18c1.6,4.92 2.13,6.17 4.08,10.94l6.14 17.45c0.79,2.26 1.25,3.56 1.85,5.56 1.28,4.38 2.2,7.72 3.49,12.26 3.72,13.1 8.56,34.09 14.79,46.55 19.82,39.71 43.14,-10.75 52.65,-27.99 15.21,-27.61 26.54,-54.51 41.78,-82.32 5.06,-9.21 10.19,-18.54 14.15,-27.75l112.49 -221.08c4.4,-8.09 8.86,-18.83 13.99,-28.08 14.76,-26.66 27.03,-56.24 42.64,-82.78 5.15,-8.76 8.77,-15.58 16.22,-20.72 13.13,-9.05 24.62,-4.25 32.95,7.94l8.26 13.31c0.13,0.26 0.32,0.62 0.45,0.87l94.04 165.23c1.94,3.35 3.82,6.84 5.98,10.09 0.82,1.24 0.86,1.12 1.75,2.41l105.81 161c9,11.77 15.99,20.83 32.72,25.73 26.55,7.78 45.3,-31.65 57.09,-50.6l21.88 -36.56c18.28,-33.61 52.68,-89.61 64.63,-124.03 2.92,-8.45 4.67,-21.08 4.2,-28.48l-1.39 -12.14c0.5,-6.01 4.61,-9.99 4.12,-15.43 -16.64,47.54 -38.99,87.62 -63.58,129.26 -9.16,15.51 -62.69,104.2 -70.41,110.01 -17.55,-8.18 -54.05,-58.84 -64.25,-72.92 -31.58,-43.6 -78.66,-113.08 -106.07,-156.67 -6.77,-10.77 -47.45,-73.73 -48.34,-79.56 -4.7,-5.17 -7.09,-10.08 -10.68,-16.26 -13.82,-23.75 -42.13,-71.24 -52.67,-93.38 -1.3,-2.72 -6.4,-12.67 -8.53,-15.45 -6.68,4.91 -9.11,19.85 -14.99,25.33z"/>
   <path class="fil6" d="M353.36 1080.26c3.05,-2.3 5.2,-8.47 6.92,-11.99 0.07,8.36 16.42,73.88 22.16,90.37l1.28 3.33c3.35,-9.23 16.28,-23.06 23.35,-26.03 5.01,-2.87 8.71,-6.83 13.78,-9.8 32.53,-19.07 68.55,-23.73 106.25,-19.24 6.4,0.77 14.35,1.34 20.56,3.13 7.99,-0.56 21.53,3.31 29.55,7.14 -0.13,-22.73 -5.66,-77.85 -14.35,-92.66l2.08 0.19c-6.51,-13.02 -50.21,-23.98 -64.63,-25 -20.17,-1.43 -42.16,2.83 -57.34,7.36 -19.67,5.86 -34.26,10.82 -51.06,21.39 -19.2,12.07 -29.04,26.09 -38.55,51.81z"/>
   <path class="fil5" d="M283.82 1303.31c0.52,-18.55 -0.38,-32.31 2.63,-51.77 2.86,-18.43 8.33,-40.05 16.36,-58.48 16.53,-37.91 34.4,-74.86 50.55,-112.8 9.51,-25.72 19.35,-39.74 38.55,-51.81 16.8,-10.57 31.39,-15.53 51.06,-21.39 15.18,-4.53 37.17,-8.79 57.34,-7.36 14.42,1.02 58.12,11.98 64.63,25 15.46,5.59 88.25,79.75 100.3,94.27 27.97,33.75 44.76,71.1 45.6,119.95 1.3,73.8 -45.46,168.31 -74.06,241.32l-32.88 81.31c9.67,14.76 18.76,30.23 28.18,45.65l88.99 139.18c-1.14,-8.81 -19.95,-34.43 -26.13,-45.06l-19.75 -33.69c-0.87,-1.46 -1.32,-2.09 -2.04,-3.34l-12.95 -21.86c-0.13,-0.24 -0.32,-0.6 -0.45,-0.85 -4.54,-8.31 -11.49,-16.76 -14.15,-25.56 -8.07,-26.84 -12.11,-41.93 -9.59,-71.22 0.32,-3.74 1.2,-5.82 2.17,-10.55 5.81,-28.56 19.51,-57.38 29.9,-84.68 8.39,-22.06 31.56,-77.48 36.36,-96.09 12.33,-47.93 29.53,-72.34 23.55,-130.77 -3.75,-36.76 -16.96,-74.29 -41.16,-102.79 -3.09,-3.66 -2.8,-4.38 -5.18,-7.26l-6.21 -6.79c-4.28,-5.08 -8.35,-9.22 -13.29,-14.24l-42.85 -41.41c-10.32,-9.55 -20.66,-19.47 -33.4,-25.44 -18.29,-8.57 -20.79,-7.21 -38.78,-19.83 -15.24,-10.68 -23.15,-12.11 -40.81,-13.14 -5.68,-0.33 -8.55,1.72 -13.87,2.29 -1.81,0.2 -3.54,0.07 -5.24,0.16l-27.57 4.92c-0.4,0.1 -1.54,0.37 -1.93,0.47l-29.26 8.28c-1.96,0.66 -2.86,0.73 -4.72,1.33 -0.39,0.13 -1.47,0.5 -1.85,0.65l-1.8 0.79c-0.26,0.11 -0.62,0.3 -0.9,0.41l-7.01 1.22c-0.19,-0.01 -0.59,-0.09 -0.78,-0.1l-7.2 0.79c-0.3,0.06 -0.71,0.11 -1.01,0.18l-13.5 3.15c-16.95,3.54 -27.48,19.67 -35.53,34.63 -10.52,19.58 -26.15,37.4 -34.14,59.02 -3.56,9.66 -6.51,12.99 -10.07,22.61 -3.5,9.45 -6.49,13.4 -9.61,21.27 -12.4,31.21 -21.95,78.82 -21.31,110.69l2.23 29.83c0.49,3.72 0.13,5.98 2.58,8.91z"/>
   <path class="fil5" d="M547.66 1110.03c4.27,1.62 5.03,1.88 7.31,4.15 23.4,23.14 -0.8,155.83 -11.98,189.4 -2.66,8 -15.88,64.38 -40.06,45.68 -7.1,-5.49 -12.57,-12.72 -16.53,-20.29 -0.65,-1.22 -1.14,-2.1 -1.88,-3.42l-52.98 -103.87c-5.3,-11.89 -27.87,-55.36 -27.9,-67.27 0,-1.34 0.28,-7.97 0.37,-8.68 0.45,-3.78 1.65,-6.09 3.06,-9.79 -7.07,2.97 -20,16.8 -23.35,26.03l107.92 209.31c4.55,7.8 12.16,23.01 17.36,29.1 29.16,-54.04 58.79,-154.7 65.64,-218.5 3.46,-32.16 1.23,-40.96 2.57,-64.71 -8.02,-3.83 -21.56,-7.7 -29.55,-7.14z"/>
   <path class="fil7" d="M1019.36 1686.89c4.78,-2.82 12,-5.48 21.68,-8.01 9.68,-2.52 19.43,-3.79 29.24,-3.79 14.04,0 26.45,2.04 37.25,6.11 10.8,4.06 17.75,10.45 20.83,19.14 5.05,14.59 10.52,31.56 16.41,50.92 5.89,19.36 11.78,39.35 17.68,59.98 5.89,20.61 11.64,40.95 17.25,61.01 5.61,20.07 10.52,37.81 14.72,53.24 -3.35,3.92 -8.41,7.08 -15.14,9.47 -6.74,2.38 -14.73,3.58 -23.99,3.58 -6.73,0 -12.41,-0.57 -17.04,-1.69 -4.63,-1.12 -8.42,-2.8 -11.36,-5.05 -2.95,-2.24 -5.33,-5.19 -7.16,-8.83 -1.82,-3.66 -3.43,-7.86 -4.84,-12.63l-7.57 -29.03 -76.17 0c-2.24,8.41 -4.49,17.11 -6.73,26.08 -2.25,8.98 -4.49,17.68 -6.74,26.09 -3.93,1.4 -8.07,2.6 -12.41,3.58 -4.35,0.99 -9.61,1.48 -15.78,1.48 -14.31,0 -24.9,-2.46 -31.77,-7.37 -6.88,-4.91 -10.32,-11.71 -10.32,-20.41 0,-3.93 0.56,-7.85 1.68,-11.78 1.13,-3.93 2.39,-8.56 3.79,-13.9 1.97,-7.56 4.7,-16.96 8.21,-28.19 3.51,-11.22 7.36,-23.35 11.57,-36.39 4.22,-13.05 8.7,-26.45 13.47,-40.2 4.77,-13.75 9.26,-26.71 13.47,-38.92 4.2,-12.21 8.06,-23.08 11.57,-32.61 3.51,-9.55 6.25,-16.84 8.2,-21.88zm50.51 54.28c-3.93,11.78 -8.35,24.9 -13.26,39.34 -4.91,14.45 -9.33,29.11 -13.26,43.98l52.19 0c-3.93,-15.15 -7.93,-29.94 -12,-44.4 -4.07,-14.45 -7.78,-27.42 -11.15,-38.92l-2.52 0zm142.23 65.22c0,-21.88 3.45,-41.24 10.32,-58.07 6.88,-16.83 16.27,-30.93 28.19,-42.29 11.92,-11.37 25.95,-19.99 42.08,-25.88 16.14,-5.89 33.6,-8.84 52.4,-8.84 18.79,0 36.26,2.95 52.39,8.84 16.13,5.89 30.23,14.51 42.29,25.88 12.07,11.36 21.54,25.46 28.41,42.29 6.88,16.83 10.31,36.19 10.31,58.07 0,27.5 -5.06,50.86 -15.15,70.07 -10.1,19.22 -23.84,34.3 -41.24,45.24 4.21,1.97 9.18,4.07 14.94,6.31 5.75,2.25 11.78,4.49 18.09,6.74 6.31,2.24 12.84,4.41 19.57,6.52 6.74,2.1 13.05,4 18.94,5.68 0.28,1.69 0.42,3.16 0.42,4.42 0,1.26 0,2.46 0,3.58 0,15.99 -4.13,27.63 -12.41,34.93 -8.28,7.29 -19.15,10.93 -32.62,10.93 -12.9,0 -26.23,-3.57 -39.97,-10.72 -13.75,-7.16 -27.78,-17.47 -42.09,-30.94l-18.51 -17.24 -3.37 0c-19.08,0 -36.75,-3.03 -53.03,-9.06 -16.27,-6.03 -30.29,-14.79 -42.07,-26.3 -11.79,-11.5 -21.05,-25.67 -27.78,-42.5 -6.74,-16.84 -10.11,-36.05 -10.11,-57.66zm75.76 0c0,25.53 5.19,44.61 15.57,57.24 10.38,12.62 24.26,18.93 41.66,18.93 17.67,0 31.7,-6.31 42.08,-18.93 10.39,-12.63 15.58,-31.71 15.58,-57.24 0,-25.24 -5.13,-44.18 -15.37,-56.81 -10.24,-12.62 -24.2,-18.93 -41.87,-18.93 -17.4,0 -31.36,6.24 -41.87,18.72 -10.52,12.48 -15.78,31.5 -15.78,57.02zm459.54 33.68c0,15.14 -2.6,28.96 -7.79,41.45 -5.19,12.48 -12.69,23.13 -22.51,31.98 -9.83,8.84 -21.74,15.64 -35.78,20.4 -14.02,4.77 -29.87,7.16 -47.55,7.16 -17.67,0 -33.53,-2.39 -47.55,-7.16 -14.02,-4.76 -25.95,-11.56 -35.77,-20.4 -9.82,-8.85 -17.33,-19.5 -22.52,-31.98 -5.19,-12.49 -7.78,-26.31 -7.78,-41.45l0 -160.76c3.09,-0.56 7.99,-1.34 14.73,-2.31 6.73,-0.99 13.19,-1.48 19.36,-1.48 6.45,0 12.13,0.49 17.04,1.48 4.92,0.97 9.05,2.73 12.42,5.25 3.36,2.52 5.89,6.04 7.58,10.53 1.67,4.49 2.52,10.38 2.52,17.67l0 128.35c0,13.47 3.71,23.98 11.15,31.56 7.43,7.58 17.04,11.36 28.82,11.36 12.07,0 21.75,-3.78 29.04,-11.36 7.29,-7.58 10.95,-18.09 10.95,-31.56l0 -159.49c3.07,-0.56 7.99,-1.34 14.72,-2.31 6.74,-0.99 13.19,-1.48 19.36,-1.48 6.46,0 12.14,0.49 17.05,1.48 4.9,0.97 9.04,2.73 12.41,5.25 3.37,2.52 5.89,6.04 7.57,10.53 1.69,4.49 2.53,10.38 2.53,17.67l0 129.62zm118.67 -263.87c13.74,1.12 23.57,4.42 29.46,9.89 5.89,5.48 8.83,11.86 8.83,19.15 0,8.13 -2.31,14.59 -6.94,19.36 -4.63,4.77 -11.85,9.12 -21.68,13.04l-57.65 22.73c-8.13,-1.69 -14.66,-5.04 -19.57,-10.1 -4.91,-5.05 -7.37,-10.66 -7.37,-16.84 0,-3.92 1.06,-7.71 3.16,-11.35 2.11,-3.65 5.4,-6.59 9.89,-8.84l61.87 -37.04zm8.41 356.45c-3.08,0.83 -7.93,1.68 -14.52,2.52 -6.59,0.83 -13.11,1.26 -19.57,1.26 -6.45,0 -12.13,-0.49 -17.04,-1.47 -4.9,-0.99 -9.05,-2.73 -12.42,-5.27 -3.36,-2.52 -5.89,-6.02 -7.56,-10.51 -1.69,-4.49 -2.54,-10.38 -2.54,-17.68l0 -222.19c3.09,-0.56 8,-1.34 14.74,-2.31 6.73,-0.99 13.18,-1.48 19.36,-1.48 6.44,0 12.13,0.49 17.03,1.48 4.92,0.97 9.06,2.73 12.42,5.25 3.36,2.52 5.9,6.04 7.58,10.53 1.68,4.49 2.52,10.38 2.52,17.67l0 222.2zm369.91 -7.16c-3.92,3.92 -9.61,6.95 -17.04,9.05 -7.44,2.1 -16.34,3.15 -26.72,3.15 -10.38,0 -20.2,-1.54 -29.46,-4.63 -9.26,-3.08 -16.84,-10.51 -22.73,-22.3l-41.66 -85.01c-4.21,-8.7 -7.99,-16.9 -11.35,-24.61 -3.37,-7.71 -7.02,-16.63 -10.95,-26.73l-2.52 0.42c1.12,15.15 1.75,30.59 1.89,46.3 0.14,15.7 0.21,31.14 0.21,46.29l0 65.23c-3.08,0.83 -7.78,1.68 -14.09,2.52 -6.32,0.83 -12.56,1.26 -18.73,1.26 -6.18,0 -11.65,-0.43 -16.41,-1.26 -4.77,-0.84 -8.71,-2.52 -11.79,-5.06 -3.08,-2.52 -5.47,-5.95 -7.15,-10.3 -1.69,-4.35 -2.53,-10.03 -2.53,-17.04l0 -210.42c3.93,-5.61 9.96,-9.82 18.1,-12.62 8.13,-2.81 16.82,-4.21 26.09,-4.21 10.38,0 20.27,1.61 29.66,4.84 9.4,3.23 16.91,10.59 22.52,22.09l42.08 85.01c4.21,8.7 7.99,16.9 11.36,24.61 3.37,7.73 7.02,16.63 10.95,26.73l2.1 -0.42c-1.13,-15.15 -1.83,-30.3 -2.1,-45.45 -0.28,-15.15 -0.43,-30.3 -0.43,-45.45l0 -68.17c3.09,-0.85 7.79,-1.68 14.11,-2.53 6.31,-0.84 12.54,-1.26 18.72,-1.26 12.35,0 21.74,2.18 28.19,6.52 6.46,4.35 9.68,13.4 9.68,27.15l0 216.3zm108.99 -238.6c4.78,-2.82 12,-5.48 21.68,-8.01 9.68,-2.52 19.42,-3.79 29.24,-3.79 14.03,0 26.45,2.04 37.25,6.11 10.8,4.06 17.75,10.45 20.82,19.14 5.06,14.59 10.53,31.56 16.42,50.92 5.89,19.36 11.78,39.35 17.68,59.98 5.89,20.61 11.63,40.95 17.25,61.01 5.61,20.07 10.52,37.81 14.72,53.24 -3.36,3.92 -8.41,7.08 -15.15,9.47 -6.73,2.38 -14.72,3.58 -23.98,3.58 -6.73,0 -12.41,-0.57 -17.05,-1.69 -4.62,-1.12 -8.41,-2.8 -11.35,-5.05 -2.95,-2.24 -5.34,-5.19 -7.16,-8.83 -1.82,-3.66 -3.43,-7.86 -4.85,-12.63l-7.56 -29.03 -76.17 0c-2.25,8.41 -4.49,17.11 -6.74,26.08 -2.24,8.98 -4.48,17.68 -6.73,26.09 -3.93,1.4 -8.07,2.6 -12.41,3.58 -4.35,0.99 -9.62,1.48 -15.78,1.48 -14.32,0 -24.91,-2.46 -31.78,-7.37 -6.87,-4.91 -10.31,-11.71 -10.31,-20.41 0,-3.93 0.56,-7.85 1.68,-11.78 1.12,-3.93 2.39,-8.56 3.79,-13.9 1.97,-7.56 4.7,-16.96 8.21,-28.19 3.5,-11.22 7.36,-23.35 11.57,-36.39 4.21,-13.05 8.7,-26.45 13.47,-40.2 4.77,-13.75 9.26,-26.71 13.47,-38.92 4.2,-12.21 8.06,-23.08 11.57,-32.61 3.51,-9.55 6.24,-16.84 8.2,-21.88zm50.51 54.28c-3.94,11.78 -8.35,24.9 -13.26,39.34 -4.91,14.45 -9.34,29.11 -13.26,43.98l52.19 0c-3.94,-15.15 -7.94,-29.94 -12,-44.4 -4.07,-14.45 -7.78,-27.42 -11.15,-38.92l-2.52 0zm232.28 138.45c3.09,0.56 6.88,1.05 11.37,1.48 4.49,0.42 8.69,0.62 12.62,0.62 9.54,0 18.3,-1.4 26.31,-4.2 7.99,-2.81 14.86,-7.16 20.61,-13.05 5.76,-5.89 10.25,-13.54 13.47,-22.94 3.22,-9.4 4.83,-20.69 4.83,-33.87 0,-25.25 -5.89,-44.26 -17.67,-57.02 -11.78,-12.77 -27.49,-19.15 -47.13,-19.15 -3.93,0 -7.92,0.14 -11.99,0.41 -4.06,0.29 -8.21,0.72 -12.42,1.27l0 146.45zm23.57 61.44c-4.77,0 -10.24,-0.14 -16.41,-0.42 -6.17,-0.28 -12.56,-0.85 -19.15,-1.68 -6.59,-0.84 -13.18,-1.9 -19.78,-3.16 -6.59,-1.26 -12.69,-3.02 -18.31,-5.26 -15.42,-5.89 -23.14,-16.13 -23.14,-30.72l0 -196.53c0,-5.89 1.62,-10.45 4.84,-13.67 3.22,-3.23 7.65,-5.82 13.26,-7.79 12.06,-3.92 24.82,-6.52 38.29,-7.78 13.47,-1.27 25.53,-1.9 36.19,-1.9 21.89,0 41.74,2.67 59.55,8 17.82,5.32 33.11,13.54 45.86,24.62 12.77,11.08 22.66,25.03 29.68,41.87 7.01,16.84 10.52,36.75 10.52,59.75 0,22.45 -3.37,42.02 -10.1,58.71 -6.74,16.7 -16.35,30.72 -28.83,42.09 -12.48,11.36 -27.43,19.85 -44.82,25.46 -17.39,5.6 -36.61,8.41 -57.65,8.41zm257.12 -8.41c-3.08,0.83 -7.92,1.68 -14.51,2.52 -6.59,0.83 -13.12,1.26 -19.57,1.26 -6.46,0 -12.14,-0.49 -17.05,-1.47 -4.9,-0.99 -9.05,-2.73 -12.41,-5.27 -3.37,-2.52 -5.89,-6.02 -7.57,-10.51 -1.69,-4.49 -2.54,-10.38 -2.54,-17.68l0 -222.19c3.09,-0.56 8,-1.34 14.74,-2.31 6.73,-0.99 13.18,-1.48 19.36,-1.48 6.44,0 12.13,0.49 17.03,1.48 4.92,0.97 9.06,2.73 12.42,5.25 3.36,2.52 5.9,6.04 7.58,10.53 1.69,4.49 2.52,10.38 2.52,17.67l0 222.2zm54.71 -214.2c0,-12.07 3.51,-21.61 10.52,-28.62 7.01,-7.01 16.56,-10.52 28.62,-10.52l138.88 0c1.95,3.09 3.71,7.15 5.25,12.2 1.55,5.06 2.31,10.38 2.31,15.99 0,10.66 -2.31,18.24 -6.94,22.73 -4.62,4.49 -10.73,6.73 -18.3,6.73l-88.8 0 0 39.14 94.68 0c1.97,3.08 3.73,7.08 5.27,11.99 1.54,4.91 2.31,10.17 2.31,15.78 0,10.66 -2.24,18.24 -6.73,22.73 -4.49,4.49 -10.52,6.73 -18.09,6.73l-77.44 0 0 44.19 108.15 0c1.97,3.09 3.73,7.15 5.26,12.2 1.54,5.04 2.32,10.38 2.32,15.99 0,10.66 -2.32,18.3 -6.94,22.94 -4.64,4.62 -10.74,6.94 -18.31,6.94l-122.88 0c-12.06,0 -21.61,-3.51 -28.62,-10.52 -7.01,-7.01 -10.52,-16.56 -10.52,-28.62l0 -178zm387.17 114.46c-12.34,-4.21 -23.57,-8.49 -33.67,-12.84 -10.1,-4.34 -18.79,-9.61 -26.09,-15.78 -7.29,-6.17 -12.97,-13.53 -17.04,-22.09 -4.07,-8.56 -6.1,-19.01 -6.1,-31.35 0,-23.85 9.19,-42.93 27.56,-57.23 18.38,-14.31 44.12,-21.47 77.22,-21.47 12.06,0 23.28,0.84 33.66,2.52 10.38,1.69 19.3,4.28 26.73,7.79 7.44,3.51 13.26,7.99 17.46,13.47 4.21,5.47 6.31,11.85 6.31,19.15 0,7.29 -1.68,13.53 -5.04,18.72 -3.37,5.19 -7.44,9.62 -12.21,13.26 -6.17,-3.93 -14.44,-7.37 -24.82,-10.31 -10.38,-2.95 -21.75,-4.42 -34.1,-4.42 -12.62,0 -21.88,1.75 -27.77,5.26 -5.89,3.5 -8.83,7.93 -8.83,13.26 0,4.2 1.82,7.64 5.47,10.3 3.64,2.67 9.12,5.13 16.41,7.37l22.3 7.16c26.37,8.41 46.64,19.15 60.81,32.19 14.17,13.05 21.25,30.78 21.25,53.23 0,23.85 -9.39,43.13 -28.19,57.87 -18.8,14.72 -46.43,22.09 -82.91,22.09 -12.9,0 -24.89,-1.06 -35.98,-3.16 -11.08,-2.1 -20.76,-5.19 -29.04,-9.25 -8.27,-4.07 -14.72,-9.13 -19.34,-15.15 -4.64,-6.03 -6.95,-12.98 -6.95,-20.84 0,-8.13 2.38,-15.08 7.15,-20.82 4.77,-5.76 9.96,-10.18 15.58,-13.26 7.84,6.17 17.45,11.5 28.82,15.99 11.36,4.49 23.77,6.74 37.24,6.74 13.75,0 23.43,-2.12 29.04,-6.32 5.61,-4.21 8.41,-9.12 8.41,-14.73 0,-5.61 -2.24,-9.89 -6.73,-12.84 -4.49,-2.94 -10.8,-5.82 -18.94,-8.62l-17.67 -5.89zm159.48 -114.46c0,-12.07 3.52,-21.61 10.53,-28.62 7.01,-7.01 16.56,-10.52 28.61,-10.52l138.88 0c1.96,3.09 3.71,7.15 5.26,12.2 1.54,5.06 2.31,10.38 2.31,15.99 0,10.66 -2.31,18.24 -6.95,22.73 -4.62,4.49 -10.72,6.73 -18.3,6.73l-88.79 0 0 39.14 94.68 0c1.97,3.08 3.72,7.08 5.27,11.99 1.53,4.91 2.31,10.17 2.31,15.78 0,10.66 -2.25,18.24 -6.73,22.73 -4.49,4.49 -10.53,6.73 -18.1,6.73l-77.43 0 0 44.19 108.15 0c1.97,3.09 3.72,7.15 5.26,12.2 1.54,5.04 2.32,10.38 2.32,15.99 0,10.66 -2.32,18.3 -6.95,22.94 -4.63,4.62 -10.73,6.94 -18.3,6.94l-122.89 0c-12.05,0 -21.6,-3.51 -28.61,-10.52 -7.01,-7.01 -10.53,-16.56 -10.53,-28.62l0 -178zm388.01 133.4l0 80.8c-3.08,0.83 -7.92,1.68 -14.51,2.52 -6.59,0.83 -13.12,1.26 -19.57,1.26 -6.45,0 -12.14,-0.49 -17.05,-1.47 -4.9,-0.99 -8.97,-2.73 -12.2,-5.27 -3.22,-2.52 -5.68,-6.02 -7.36,-10.51 -1.69,-4.49 -2.53,-10.38 -2.53,-17.68l0 -198.21c0,-5.89 1.62,-10.45 4.84,-13.67 3.23,-3.23 7.65,-5.82 13.26,-7.79 9.54,-3.37 20.62,-5.82 33.24,-7.36 12.62,-1.54 26.09,-2.32 40.41,-2.32 38.71,0 67.89,8.13 87.52,24.42 19.64,16.26 29.46,38.29 29.46,66.06 0,17.39 -4.49,32.26 -13.47,44.61 -8.98,12.35 -19.63,21.88 -31.98,28.61 10.1,13.75 20.06,26.65 29.88,38.72 9.82,12.06 17.54,23.01 23.15,32.82 -2.81,9.82 -7.93,17.32 -15.37,22.51 -7.43,5.19 -15.78,7.79 -25.04,7.79 -6.16,0 -11.5,-0.7 -15.99,-2.1 -4.49,-1.41 -8.41,-3.36 -11.78,-5.9 -3.36,-2.52 -6.45,-5.6 -9.25,-9.26 -2.82,-3.64 -5.47,-7.56 -8.01,-11.77l-35.35 -56.81 -22.3 0zm26.52 -55.98c10.65,0 19.08,-2.73 25.25,-8.2 6.17,-5.47 9.25,-13.54 9.25,-24.19 0,-10.67 -3.43,-18.74 -10.3,-24.21 -6.88,-5.47 -17.75,-8.2 -32.62,-8.2 -4.21,0 -7.57,0.13 -10.1,0.42 -2.52,0.28 -5.33,0.7 -8.41,1.26l0 63.12 26.93 0zm230.19 136.78c-3.08,0.83 -7.92,1.68 -14.51,2.52 -6.59,0.83 -13.12,1.26 -19.57,1.26 -6.46,0 -12.14,-0.49 -17.05,-1.47 -4.9,-0.99 -9.05,-2.73 -12.41,-5.27 -3.37,-2.52 -5.89,-6.02 -7.57,-10.51 -1.69,-4.49 -2.54,-10.38 -2.54,-17.68l0 -222.19c3.09,-0.56 8.01,-1.34 14.74,-2.31 6.73,-0.99 13.18,-1.48 19.36,-1.48 6.44,0 12.13,0.49 17.03,1.48 4.92,0.97 9.06,2.73 12.42,5.25 3.37,2.52 5.9,6.04 7.58,10.53 1.69,4.49 2.52,10.38 2.52,17.67l0 222.2zm285.75 -7.16c-3.93,3.92 -9.62,6.95 -17.05,9.05 -7.44,2.1 -16.34,3.15 -26.72,3.15 -10.38,0 -20.2,-1.54 -29.46,-4.63 -9.25,-3.08 -16.83,-10.51 -22.72,-22.3l-41.67 -85.01c-4.21,-8.7 -7.99,-16.9 -11.35,-24.61 -3.37,-7.71 -7.01,-16.63 -10.95,-26.73l-2.52 0.42c1.12,15.15 1.75,30.59 1.89,46.3 0.14,15.7 0.21,31.14 0.21,46.29l0 65.23c-3.08,0.83 -7.78,1.68 -14.09,2.52 -6.31,0.83 -12.56,1.26 -18.73,1.26 -6.18,0 -11.64,-0.43 -16.41,-1.26 -4.77,-0.84 -8.7,-2.52 -11.79,-5.06 -3.08,-2.52 -5.47,-5.95 -7.15,-10.3 -1.69,-4.35 -2.53,-10.03 -2.53,-17.04l0 -210.42c3.93,-5.61 9.97,-9.82 18.1,-12.62 8.14,-2.81 16.83,-4.21 26.09,-4.21 10.38,0 20.27,1.61 29.67,4.84 9.4,3.23 16.9,10.59 22.51,22.09l42.08 85.01c4.22,8.7 7.99,16.9 11.36,24.61 3.37,7.73 7.03,16.63 10.95,26.73l2.1 -0.42c-1.12,-15.15 -1.82,-30.3 -2.1,-45.45 -0.28,-15.15 -0.42,-30.3 -0.42,-45.45l0 -68.17c3.09,-0.85 7.79,-1.68 14.1,-2.53 6.31,-0.84 12.54,-1.26 18.72,-1.26 12.35,0 21.74,2.18 28.2,6.52 6.45,4.35 9.68,13.4 9.68,27.15l0 216.3zm127.92 -45.87c3.09,0.56 6.88,1.05 11.37,1.48 4.49,0.42 8.69,0.62 12.62,0.62 9.53,0 18.3,-1.4 26.3,-4.2 7.99,-2.81 14.87,-7.16 20.62,-13.05 5.76,-5.89 10.24,-13.54 13.47,-22.94 3.22,-9.4 4.83,-20.69 4.83,-33.87 0,-25.25 -5.89,-44.26 -17.67,-57.02 -11.78,-12.77 -27.49,-19.15 -47.13,-19.15 -3.93,0 -7.92,0.14 -11.99,0.41 -4.07,0.29 -8.21,0.72 -12.42,1.27l0 146.45zm23.57 61.44c-4.77,0 -10.24,-0.14 -16.42,-0.42 -6.16,-0.28 -12.55,-0.85 -19.14,-1.68 -6.59,-0.84 -13.18,-1.9 -19.78,-3.16 -6.59,-1.26 -12.7,-3.02 -18.31,-5.26 -15.42,-5.89 -23.15,-16.13 -23.15,-30.72l0 -196.53c0,-5.89 1.63,-10.45 4.85,-13.67 3.22,-3.23 7.64,-5.82 13.26,-7.79 12.05,-3.92 24.82,-6.52 38.29,-7.78 13.47,-1.27 25.53,-1.9 36.19,-1.9 21.89,0 41.74,2.67 59.55,8 17.81,5.32 33.11,13.54 45.86,24.62 12.77,11.08 22.66,25.03 29.67,41.87 7.02,16.84 10.53,36.75 10.53,59.75 0,22.45 -3.37,42.02 -10.1,58.71 -6.74,16.7 -16.35,30.72 -28.83,42.09 -12.48,11.36 -27.43,19.85 -44.82,25.46 -17.39,5.6 -36.62,8.41 -57.65,8.41zm183.47 -222.61c0,-12.07 3.51,-21.61 10.53,-28.62 7.01,-7.01 16.55,-10.52 28.61,-10.52l138.88 0c1.96,3.09 3.71,7.15 5.26,12.2 1.54,5.06 2.31,10.38 2.31,15.99 0,10.66 -2.31,18.24 -6.95,22.73 -4.62,4.49 -10.72,6.73 -18.3,6.73l-88.79 0 0 39.14 94.68 0c1.97,3.08 3.72,7.08 5.27,11.99 1.53,4.91 2.31,10.17 2.31,15.78 0,10.66 -2.25,18.24 -6.74,22.73 -4.49,4.49 -10.52,6.73 -18.09,6.73l-77.43 0 0 44.19 108.15 0c1.96,3.09 3.72,7.15 5.25,12.2 1.55,5.04 2.33,10.38 2.33,15.99 0,10.66 -2.33,18.3 -6.95,22.94 -4.63,4.62 -10.73,6.94 -18.3,6.94l-122.89 0c-12.06,0 -21.6,-3.51 -28.61,-10.52 -7.02,-7.01 -10.53,-16.56 -10.53,-28.62l0 -178z"/>
   <path class="fil8" d="M1293.48 1475.34c0,13.39 -2.37,23.34 -7.13,29.82 -4.76,6.48 -12.31,12.74 -22.68,18.79 -6.06,3.45 -13.62,6.81 -22.7,10.04 -9.06,3.25 -19.01,6.06 -29.81,8.43 -10.8,2.38 -22.14,4.22 -34.03,5.51 -11.88,1.3 -23.66,1.94 -35.32,1.94 -31.11,0 -60.28,-4.21 -87.5,-12.63 -27.23,-8.42 -50.88,-21.17 -70.98,-38.24 -20.09,-17.07 -35.97,-38.35 -47.64,-63.84 -11.67,-25.5 -17.5,-55.1 -17.5,-88.81 0,-35.43 6.38,-66.32 19.12,-92.68 12.75,-26.36 29.6,-48.3 50.56,-65.79 20.96,-17.5 44.94,-30.57 71.94,-39.22 27.02,-8.64 54.78,-12.95 83.29,-12.95 41.05,0 73.57,6.58 97.55,19.76 23.98,13.18 35.98,30.36 35.98,51.53 0,11.23 -2.82,20.96 -8.43,29.17 -5.62,8.21 -12.1,14.69 -19.45,19.45 -10.8,-6.49 -24.3,-12.86 -40.5,-19.13 -16.21,-6.27 -34.46,-9.4 -54.78,-9.4 -36.29,0 -65.13,10.38 -86.52,31.11 -21.4,20.74 -32.09,49.48 -32.09,86.21 0,19.88 2.92,37.05 8.75,51.53 5.83,14.48 13.72,26.36 23.66,35.65 9.93,9.29 21.39,16.2 34.35,20.74 12.97,4.54 26.79,6.81 41.48,6.81 9.52,0 17.94,-0.87 25.29,-2.6 7.34,-1.73 12.95,-3.67 16.84,-5.84l0 -60.92 -69.34 0c-2.6,-4.75 -5.08,-11.02 -7.46,-18.8 -2.38,-7.77 -3.57,-15.98 -3.57,-24.63 0,-15.56 3.57,-26.79 10.69,-33.7 7.14,-6.92 16.32,-10.37 27.55,-10.37l109.54 0c12.97,0 23.02,3.57 30.14,10.69 7.14,7.13 10.7,17.18 10.7,30.15l0 132.22zm66.11 -246.31c4.33,-1.29 11.13,-2.59 20.42,-3.89 9.29,-1.29 18.9,-1.94 28.85,-1.94 9.5,0 18.03,0.65 25.59,1.94 7.57,1.3 13.94,3.89 19.13,7.78 5.19,3.89 9.18,9.19 11.99,15.88 2.81,6.7 4.21,15.45 4.21,26.25l0 139.36c0,17.71 4.32,30.36 12.97,37.92 8.63,7.56 21.17,11.34 37.59,11.34 9.94,0 18.04,-0.87 24.31,-2.59 6.25,-1.73 11.12,-3.45 14.58,-5.19l0 -226.86c4.32,-1.29 11.12,-2.59 20.41,-3.89 9.29,-1.29 18.9,-1.94 28.85,-1.94 9.5,0 18.04,0.65 25.6,1.94 7.56,1.3 13.94,3.89 19.12,7.78 5.19,3.89 9.18,9.19 11.99,15.88 2.81,6.7 4.21,15.45 4.21,26.25l0 197.05c0,21.6 -9.07,37.8 -27.21,48.61 -15.13,9.51 -33.18,16.74 -54.14,21.71 -20.94,4.98 -43.74,7.45 -68.37,7.45 -23.34,0 -44.83,-2.58 -64.49,-7.77 -19.66,-5.18 -36.63,-13.18 -50.89,-23.99 -14.26,-10.8 -25.27,-24.73 -33.05,-41.8 -7.78,-17.07 -11.67,-37.7 -11.67,-61.9l0 -185.38zm374.64 -92.03c0,-16.42 5.5,-30.25 16.53,-41.49 11.01,-11.23 25.6,-16.85 43.75,-16.85 18.15,0 32.73,5.62 43.75,16.85 11.01,11.24 16.53,25.07 16.53,41.49 0,16.42 -5.52,30.25 -16.53,41.48 -11.02,11.24 -25.6,16.85 -43.75,16.85 -18.15,0 -32.74,-5.61 -43.75,-16.85 -11.03,-11.23 -16.53,-25.06 -16.53,-41.48zm115.37 401.86c-4.75,0.86 -11.77,2.05 -21.06,3.56 -9.29,1.52 -18.69,2.28 -28.2,2.28 -9.51,0 -18.04,-0.66 -25.6,-1.95 -7.57,-1.3 -13.94,-3.89 -19.13,-7.78 -5.17,-3.89 -9.18,-9.19 -11.99,-15.88 -2.8,-6.7 -4.21,-15.45 -4.21,-26.25l0 -263.81c4.76,-0.85 11.78,-2.04 21.07,-3.55 9.29,-1.53 18.68,-2.28 28.2,-2.28 9.5,0 18.03,0.65 25.6,1.94 7.56,1.3 13.93,3.89 19.11,7.78 5.19,3.89 9.19,9.19 11.99,15.88 2.82,6.7 4.22,15.45 4.22,26.25l0 263.81zm182.14 0c-4.76,0.86 -11.77,2.05 -21.06,3.56 -9.29,1.52 -18.69,2.28 -28.21,2.28 -9.5,0 -18.03,-0.66 -25.59,-1.95 -7.57,-1.3 -13.94,-3.89 -19.12,-7.78 -5.19,-3.89 -9.18,-9.19 -12,-15.88 -2.81,-6.7 -4.21,-15.45 -4.21,-26.25l0 -375.94c4.76,-0.86 11.77,-2.05 21.06,-3.56 9.29,-1.51 18.69,-2.27 28.21,-2.27 9.5,0 18.03,0.64 25.59,1.94 7.57,1.3 13.93,3.89 19.12,7.78 5.19,3.89 9.18,9.18 12,15.88 2.81,6.71 4.21,15.45 4.21,26.25l0 375.94zm181.48 0c-4.75,0.86 -11.77,2.05 -21.06,3.56 -9.29,1.52 -18.69,2.28 -28.2,2.28 -9.5,0 -18.04,-0.66 -25.59,-1.95 -7.57,-1.3 -13.94,-3.89 -19.13,-7.78 -5.19,-3.89 -9.18,-9.19 -11.99,-15.88 -2.81,-6.7 -4.21,-15.45 -4.21,-26.25l0 -375.94c4.75,-0.86 11.77,-2.05 21.06,-3.56 9.29,-1.51 18.69,-2.27 28.2,-2.27 9.5,0 18.04,0.64 25.59,1.94 7.57,1.3 13.94,3.89 19.13,7.78 5.19,3.89 9.18,9.18 11.99,15.88 2.81,6.71 4.21,15.45 4.21,26.25l0 375.94zm204.18 -69.35c7.35,0 15.45,-0.76 24.3,-2.27 8.86,-1.51 15.45,-3.57 19.77,-6.16l0 -51.85 -46.67 3.89c-12.1,0.85 -22.04,3.46 -29.82,7.78 -7.78,4.31 -11.67,10.8 -11.67,19.43 0,8.65 3.36,15.67 10.05,21.07 6.7,5.41 18.05,8.11 34.04,8.11zm-5.19 -254.73c23.34,0 44.62,2.37 63.84,7.13 19.23,4.75 35.65,11.99 49.27,21.71 13.6,9.73 24.08,22.04 31.42,36.94 7.35,14.92 11.03,32.52 11.03,52.83l0 145.18c0,11.24 -3.14,20.43 -9.4,27.55 -6.27,7.14 -13.72,13.29 -22.36,18.48 -28.08,16.85 -67.62,25.27 -118.61,25.27 -22.9,0 -43.54,-2.15 -61.91,-6.47 -18.36,-4.33 -34.13,-10.81 -47.31,-19.45 -13.18,-8.64 -23.34,-19.66 -30.47,-33.05 -7.12,-13.4 -10.69,-28.96 -10.69,-46.68 0,-29.81 8.86,-52.72 26.57,-68.7 17.73,-15.99 45.16,-25.92 82.33,-29.81l84.9 -9.08 0 -4.54c0,-12.53 -5.5,-21.49 -16.53,-26.89 -11.02,-5.41 -26.89,-8.11 -47.64,-8.11 -16.41,0 -32.4,1.73 -47.96,5.19 -15.56,3.45 -29.6,7.78 -42.13,12.97 -5.62,-3.89 -10.37,-9.84 -14.26,-17.83 -3.89,-8 -5.83,-16.31 -5.83,-24.96 0,-11.23 2.7,-20.2 8.1,-26.89 5.4,-6.7 13.71,-12.42 24.95,-17.18 12.53,-4.76 27.33,-8.21 44.4,-10.37 17.07,-2.17 33.17,-3.24 48.29,-3.24zm220.38 -77.78c0,-16.42 5.5,-30.25 16.53,-41.49 11.01,-11.23 25.6,-16.85 43.75,-16.85 18.14,0 32.72,5.62 43.75,16.85 11.01,11.24 16.52,25.07 16.52,41.49 0,16.42 -5.51,30.25 -16.52,41.48 -11.03,11.24 -25.61,16.85 -43.75,16.85 -18.15,0 -32.74,-5.61 -43.75,-16.85 -11.03,-11.23 -16.53,-25.06 -16.53,-41.48zm115.36 401.86c-4.74,0.86 -11.76,2.05 -21.06,3.56 -9.29,1.52 -18.69,2.28 -28.19,2.28 -9.51,0 -18.05,-0.66 -25.6,-1.95 -7.57,-1.3 -13.94,-3.89 -19.13,-7.78 -5.18,-3.89 -9.18,-9.19 -11.99,-15.88 -2.8,-6.7 -4.21,-15.45 -4.21,-26.25l0 -263.81c4.76,-0.85 11.78,-2.04 21.07,-3.55 9.29,-1.53 18.68,-2.28 28.19,-2.28 9.5,0 18.04,0.65 25.61,1.94 7.55,1.3 13.93,3.89 19.11,7.78 5.19,3.89 9.19,9.19 11.99,15.88 2.81,6.7 4.21,15.45 4.21,26.25l0 263.81zm269.65 -198.99c0,-13.39 -3.78,-23.22 -11.35,-29.49 -7.56,-6.27 -17.82,-9.4 -30.78,-9.4 -8.65,0 -17.18,1.09 -25.61,3.24 -8.42,2.16 -15.65,5.4 -21.71,9.73l0 224.91c-4.32,1.29 -11.12,2.59 -20.41,3.89 -9.3,1.29 -18.91,1.95 -28.85,1.95 -9.51,0 -18.04,-0.66 -25.6,-1.95 -7.56,-1.3 -13.93,-3.89 -19.12,-7.78 -5.19,-3.89 -9.18,-9.19 -11.99,-15.88 -2.81,-6.7 -4.21,-15.45 -4.21,-26.25l0 -194.45c0,-11.67 2.47,-21.17 7.45,-28.52 4.97,-7.34 11.77,-14.04 20.42,-20.09 14.69,-10.37 33.16,-18.8 55.42,-25.28 22.24,-6.48 46.98,-9.72 74.21,-9.72 48.83,0 86.42,10.7 112.77,32.08 26.36,21.39 39.54,51.1 39.54,89.12l0 202.88c-4.32,1.29 -11.12,2.59 -20.41,3.89 -9.29,1.29 -18.91,1.95 -28.84,1.95 -9.51,0 -18.05,-0.66 -25.6,-1.95 -7.57,-1.3 -13.94,-3.89 -19.13,-7.78 -5.18,-3.89 -9.18,-9.19 -11.99,-15.88 -2.81,-6.7 -4.21,-15.45 -4.21,-26.25l0 -152.97zm176.29 79.08c-3.02,-4.75 -5.83,-11.02 -8.42,-18.8 -2.6,-7.78 -3.89,-15.99 -3.89,-24.63 0,-15.99 3.67,-27.54 11.01,-34.68 7.35,-7.12 16.86,-10.69 28.53,-10.69l138.7 0c2.59,4.76 5.29,11.02 8.1,18.79 2.81,7.78 4.21,15.99 4.21,24.64 0,15.98 -3.66,27.55 -11.01,34.67 -7.35,7.14 -16.86,10.7 -28.53,10.7l-138.7 0zm350 39.53c6.06,1.74 13.84,2.92 23.34,3.57 9.51,0.64 18.58,0.98 27.23,0.98 17.28,0 31.65,-3.57 43.09,-10.7 11.46,-7.13 17.18,-18.26 17.18,-33.38 0,-14.27 -4.75,-24.41 -14.25,-30.47 -9.52,-6.04 -23.98,-9.07 -43.43,-9.07l-53.16 0 0 79.07zm0 -158.15l47.32 0c18.58,0 32.09,-3.45 40.51,-10.36 8.43,-6.92 12.65,-17.07 12.65,-30.46 0,-11.67 -4.87,-20.96 -14.59,-27.88 -9.72,-6.92 -24.31,-10.38 -43.75,-10.38 -6.49,0 -13.93,0.23 -22.37,0.66 -8.42,0.43 -15.01,1.08 -19.77,1.94l0 76.48zm42.14 249.54c-7.35,0 -15.99,-0.21 -25.92,-0.64 -9.95,-0.43 -20.21,-1.3 -30.8,-2.59 -10.59,-1.3 -21.05,-2.92 -31.43,-4.87 -10.37,-1.94 -19.87,-4.64 -28.52,-8.1 -23.77,-9.07 -35.65,-24.85 -35.65,-47.32l0 -302.68c0,-9.08 2.49,-16.1 7.46,-21.07 4.96,-4.97 11.77,-8.97 20.41,-11.99 14.69,-5.19 33.06,-8.97 55.1,-11.35 22.04,-2.37 44.72,-3.55 68.05,-3.55 55.31,0 97.88,9.29 127.69,27.86 29.82,18.58 44.72,47.32 44.72,86.21 0,19.44 -5.61,36.18 -16.85,50.23 -11.23,14.05 -26.36,24.31 -45.37,30.78 21.6,6.06 39.65,17.07 54.12,33.07 14.48,15.99 21.71,36.08 21.71,60.27 0,42.79 -15.88,74.44 -47.64,94.96 -31.76,20.53 -77.45,30.78 -137.08,30.78zm375.29 -80.36c7.34,0 15.44,-0.76 24.3,-2.27 8.86,-1.51 15.45,-3.57 19.77,-6.16l0 -51.85 -46.67 3.89c-12.1,0.85 -22.04,3.46 -29.82,7.78 -7.78,4.31 -11.67,10.8 -11.67,19.43 0,8.65 3.36,15.67 10.05,21.07 6.7,5.41 18.05,8.11 34.04,8.11zm-5.19 -254.73c23.34,0 44.62,2.37 63.84,7.13 19.23,4.75 35.65,11.99 49.27,21.71 13.6,9.73 24.08,22.04 31.42,36.94 7.35,14.92 11.03,32.52 11.03,52.83l0 145.18c0,11.24 -3.14,20.43 -9.4,27.55 -6.27,7.14 -13.72,13.29 -22.36,18.48 -28.09,16.85 -67.63,25.27 -118.61,25.27 -22.91,0 -43.54,-2.15 -61.91,-6.47 -18.36,-4.33 -34.13,-10.81 -47.31,-19.45 -13.18,-8.64 -23.34,-19.66 -30.47,-33.05 -7.12,-13.4 -10.69,-28.96 -10.69,-46.68 0,-29.81 8.85,-52.72 26.57,-68.7 17.72,-15.99 45.16,-25.92 82.32,-29.81l84.91 -9.08 0 -4.54c0,-12.53 -5.5,-21.49 -16.53,-26.89 -11.02,-5.41 -26.89,-8.11 -47.64,-8.11 -16.41,0 -32.41,1.73 -47.96,5.19 -15.56,3.45 -29.6,7.78 -42.13,12.97 -5.63,-3.89 -10.37,-9.84 -14.26,-17.83 -3.89,-8 -5.83,-16.31 -5.83,-24.96 0,-11.23 2.7,-20.2 8.1,-26.89 5.4,-6.7 13.71,-12.42 24.95,-17.18 12.53,-4.76 27.33,-8.21 44.4,-10.37 17.07,-2.17 33.16,-3.24 48.29,-3.24zm333.15 324.08c-4.32,1.29 -11.12,2.59 -20.41,3.89 -9.29,1.29 -18.91,1.95 -28.85,1.95 -9.5,0 -18.04,-0.66 -25.59,-1.95 -7.57,-1.3 -13.94,-3.89 -19.13,-7.78 -5.19,-3.89 -9.18,-9.19 -11.99,-15.88 -2.81,-6.7 -4.21,-15.45 -4.21,-26.25l0 -194.45c0,-9.94 1.83,-18.47 5.51,-25.6 3.67,-7.13 8.96,-13.51 15.88,-19.12 6.91,-5.62 15.45,-10.7 25.59,-15.24 10.16,-4.53 21.07,-8.53 32.74,-11.99 11.67,-3.45 23.76,-6.15 36.3,-8.1 12.53,-1.94 25.06,-2.92 37.59,-2.92 20.74,0 37.16,4 49.27,12 12.09,7.99 18.14,21.06 18.14,39.21 0,6.06 -0.86,11.99 -2.6,17.82 -1.72,5.84 -3.89,11.13 -6.48,15.88 -9.06,0 -18.36,0.44 -27.87,1.3 -9.5,0.86 -18.79,2.16 -27.87,3.89 -9.07,1.73 -17.6,3.56 -25.6,5.5 -7.99,1.95 -14.79,4.23 -20.42,6.82l0 221.02zm259.91 0c-4.32,1.29 -11.12,2.59 -20.41,3.89 -9.29,1.29 -18.91,1.95 -28.85,1.95 -9.5,0 -18.04,-0.66 -25.6,-1.95 -7.56,-1.3 -13.93,-3.89 -19.12,-7.78 -5.19,-3.89 -9.18,-9.19 -11.99,-15.88 -2.81,-6.7 -4.21,-15.45 -4.21,-26.25l0 -194.45c0,-9.94 1.83,-18.47 5.51,-25.6 3.67,-7.13 8.96,-13.51 15.88,-19.12 6.91,-5.62 15.45,-10.7 25.59,-15.24 10.16,-4.53 21.07,-8.53 32.74,-11.99 11.67,-3.45 23.76,-6.15 36.3,-8.1 12.53,-1.94 25.06,-2.92 37.59,-2.92 20.74,0 37.16,4 49.26,12 12.1,7.99 18.15,21.06 18.15,39.21 0,6.06 -0.87,11.99 -2.6,17.82 -1.72,5.84 -3.89,11.13 -6.48,15.88 -9.07,0 -18.36,0.44 -27.87,1.3 -9.5,0.86 -18.79,2.16 -27.87,3.89 -9.07,1.73 -17.6,3.56 -25.6,5.5 -7.99,1.95 -14.8,4.23 -20.42,6.82l0 221.02zm310.46 11.01c-25.49,0 -49.15,-3.56 -70.96,-10.69 -21.83,-7.13 -40.84,-17.82 -57.05,-32.08 -16.2,-14.26 -28.95,-32.19 -38.24,-53.8 -9.29,-21.6 -13.93,-46.88 -13.93,-75.83 0,-28.53 4.64,-53.04 13.93,-73.57 9.29,-20.52 21.51,-37.38 36.62,-50.55 15.13,-13.18 32.42,-22.91 51.85,-29.17 19.45,-6.27 39.33,-9.4 59.64,-9.4 22.9,0 43.75,3.45 62.55,10.36 18.79,6.93 34.99,16.43 48.61,28.53 13.61,12.09 24.2,26.57 31.76,43.42 7.56,16.86 11.35,35.22 11.35,55.1 0,14.69 -4.12,25.92 -12.32,33.7 -8.21,7.78 -19.67,12.75 -34.36,14.9l-160.09 23.99c4.75,14.27 14.48,24.96 29.17,32.09 14.69,7.12 31.54,10.69 50.55,10.69 17.72,0 34.46,-2.27 50.23,-6.8 15.77,-4.55 28.63,-9.83 38.58,-15.88 6.91,4.31 12.74,10.37 17.49,18.15 4.75,7.78 7.13,15.98 7.13,24.62 0,19.45 -9.08,33.92 -27.22,43.43 -13.83,7.35 -29.39,12.32 -46.67,14.91 -17.29,2.6 -33.49,3.88 -48.62,3.88zm-18.14 -254.73c-10.37,0 -19.34,1.74 -26.9,5.19 -7.57,3.46 -13.72,7.89 -18.47,13.3 -4.75,5.4 -8.32,11.44 -10.7,18.14 -2.38,6.7 -3.78,13.5 -4.21,20.42l110.84 -18.15c-1.3,-8.65 -6.06,-17.28 -14.26,-25.93 -8.21,-8.64 -20.31,-12.97 -36.3,-12.97zm11.66 -237.87c22.47,0 38.79,4.33 48.95,12.97 10.14,8.64 15.22,19.02 15.22,31.11 0,11.23 -3.02,20.63 -9.07,28.19 -6.05,7.57 -15.99,15.02 -29.81,22.37l-83.62 44.07c-12.97,-1.3 -23.98,-6.49 -33.06,-15.55 -9.07,-9.08 -13.6,-18.8 -13.6,-29.18 0,-5.17 1.29,-10.36 3.88,-15.54 2.6,-5.19 6.92,-9.95 12.97,-14.27l88.14 -64.17z"/>
   <path class="fil9" d="M1019.36 1686.89c4.78,-2.82 12,-5.48 21.68,-8.01 9.68,-2.52 19.43,-3.79 29.24,-3.79 14.04,0 26.45,2.04 37.25,6.11 10.8,4.06 17.75,10.45 20.83,19.14 5.05,14.59 10.52,31.56 16.41,50.92 5.89,19.36 11.78,39.35 17.68,59.98 5.89,20.61 11.64,40.95 17.25,61.01 5.61,20.07 10.52,37.81 14.72,53.24 -3.35,3.92 -8.41,7.08 -15.14,9.47 -6.74,2.38 -14.73,3.58 -23.99,3.58 -6.73,0 -12.41,-0.57 -17.04,-1.69 -4.63,-1.12 -8.42,-2.8 -11.36,-5.05 -2.95,-2.24 -5.33,-5.19 -7.16,-8.83 -1.82,-3.66 -3.43,-7.86 -4.84,-12.63l-7.57 -29.03 -76.17 0c-2.24,8.41 -4.49,17.11 -6.73,26.08 -2.25,8.98 -4.49,17.68 -6.74,26.09 -3.93,1.4 -8.07,2.6 -12.41,3.58 -4.35,0.99 -9.61,1.48 -15.78,1.48 -14.31,0 -24.9,-2.46 -31.77,-7.37 -6.88,-4.91 -10.32,-11.71 -10.32,-20.41 0,-3.93 0.56,-7.85 1.68,-11.78 1.13,-3.93 2.39,-8.56 3.79,-13.9 1.97,-7.56 4.7,-16.96 8.21,-28.19 3.51,-11.22 7.36,-23.35 11.57,-36.39 4.22,-13.05 8.7,-26.45 13.47,-40.2 4.77,-13.75 9.26,-26.71 13.47,-38.92 4.2,-12.21 8.06,-23.08 11.57,-32.61 3.51,-9.55 6.25,-16.84 8.2,-21.88zm50.51 54.28c-3.93,11.78 -8.35,24.9 -13.26,39.34 -4.91,14.45 -9.33,29.11 -13.26,43.98l52.19 0c-3.93,-15.15 -7.93,-29.94 -12,-44.4 -4.07,-14.45 -7.78,-27.42 -11.15,-38.92l-2.52 0zm142.23 65.22c0,-21.88 3.45,-41.24 10.32,-58.07 6.88,-16.83 16.27,-30.93 28.19,-42.29 11.92,-11.37 25.95,-19.99 42.08,-25.88 16.14,-5.89 33.6,-8.84 52.4,-8.84 18.79,0 36.26,2.95 52.39,8.84 16.13,5.89 30.23,14.51 42.29,25.88 12.07,11.36 21.54,25.46 28.41,42.29 6.88,16.83 10.31,36.19 10.31,58.07 0,27.5 -5.06,50.86 -15.15,70.07 -10.1,19.22 -23.84,34.3 -41.24,45.24 4.21,1.97 9.18,4.07 14.94,6.31 5.75,2.25 11.78,4.49 18.09,6.74 6.31,2.24 12.84,4.41 19.57,6.52 6.74,2.1 13.05,4 18.94,5.68 0.28,1.69 0.42,3.16 0.42,4.42 0,1.26 0,2.46 0,3.58 0,15.99 -4.13,27.63 -12.41,34.93 -8.28,7.29 -19.15,10.93 -32.62,10.93 -12.9,0 -26.23,-3.57 -39.97,-10.72 -13.75,-7.16 -27.78,-17.47 -42.09,-30.94l-18.51 -17.24 -3.37 0c-19.08,0 -36.75,-3.03 -53.03,-9.06 -16.27,-6.03 -30.29,-14.79 -42.07,-26.3 -11.79,-11.5 -21.05,-25.67 -27.78,-42.5 -6.74,-16.84 -10.11,-36.05 -10.11,-57.66zm75.76 0c0,25.53 5.19,44.61 15.57,57.24 10.38,12.62 24.26,18.93 41.66,18.93 17.67,0 31.7,-6.31 42.08,-18.93 10.39,-12.63 15.58,-31.71 15.58,-57.24 0,-25.24 -5.13,-44.18 -15.37,-56.81 -10.24,-12.62 -24.2,-18.93 -41.87,-18.93 -17.4,0 -31.36,6.24 -41.87,18.72 -10.52,12.48 -15.78,31.5 -15.78,57.02zm459.54 33.68c0,15.14 -2.6,28.96 -7.79,41.45 -5.19,12.48 -12.69,23.13 -22.51,31.98 -9.83,8.84 -21.74,15.64 -35.78,20.4 -14.02,4.77 -29.87,7.16 -47.55,7.16 -17.67,0 -33.53,-2.39 -47.55,-7.16 -14.02,-4.76 -25.95,-11.56 -35.77,-20.4 -9.82,-8.85 -17.33,-19.5 -22.52,-31.98 -5.19,-12.49 -7.78,-26.31 -7.78,-41.45l0 -160.76c3.09,-0.56 7.99,-1.34 14.73,-2.31 6.73,-0.99 13.19,-1.48 19.36,-1.48 6.45,0 12.13,0.49 17.04,1.48 4.92,0.97 9.05,2.73 12.42,5.25 3.36,2.52 5.89,6.04 7.58,10.53 1.67,4.49 2.52,10.38 2.52,17.67l0 128.35c0,13.47 3.71,23.98 11.15,31.56 7.43,7.58 17.04,11.36 28.82,11.36 12.07,0 21.75,-3.78 29.04,-11.36 7.29,-7.58 10.95,-18.09 10.95,-31.56l0 -159.49c3.07,-0.56 7.99,-1.34 14.72,-2.31 6.74,-0.99 13.19,-1.48 19.36,-1.48 6.46,0 12.14,0.49 17.05,1.48 4.9,0.97 9.04,2.73 12.41,5.25 3.37,2.52 5.89,6.04 7.57,10.53 1.69,4.49 2.53,10.38 2.53,17.67l0 129.62zm118.67 -263.87c13.74,1.12 23.57,4.42 29.46,9.89 5.89,5.48 8.83,11.86 8.83,19.15 0,8.13 -2.31,14.59 -6.94,19.36 -4.63,4.77 -11.85,9.12 -21.68,13.04l-57.65 22.73c-8.13,-1.69 -14.66,-5.04 -19.57,-10.1 -4.91,-5.05 -7.37,-10.66 -7.37,-16.84 0,-3.92 1.06,-7.71 3.16,-11.35 2.11,-3.65 5.4,-6.59 9.89,-8.84l61.87 -37.04zm8.41 356.45c-3.08,0.83 -7.93,1.68 -14.52,2.52 -6.59,0.83 -13.11,1.26 -19.57,1.26 -6.45,0 -12.13,-0.49 -17.04,-1.47 -4.9,-0.99 -9.05,-2.73 -12.42,-5.27 -3.36,-2.52 -5.89,-6.02 -7.56,-10.51 -1.69,-4.49 -2.54,-10.38 -2.54,-17.68l0 -222.19c3.09,-0.56 8,-1.34 14.74,-2.31 6.73,-0.99 13.18,-1.48 19.36,-1.48 6.44,0 12.13,0.49 17.03,1.48 4.92,0.97 9.06,2.73 12.42,5.25 3.36,2.52 5.9,6.04 7.58,10.53 1.68,4.49 2.52,10.38 2.52,17.67l0 222.2zm369.91 -7.16c-3.92,3.92 -9.61,6.95 -17.04,9.05 -7.44,2.1 -16.34,3.15 -26.72,3.15 -10.38,0 -20.2,-1.54 -29.46,-4.63 -9.26,-3.08 -16.84,-10.51 -22.73,-22.3l-41.66 -85.01c-4.21,-8.7 -7.99,-16.9 -11.35,-24.61 -3.37,-7.71 -7.02,-16.63 -10.95,-26.73l-2.52 0.42c1.12,15.15 1.75,30.59 1.89,46.3 0.14,15.7 0.21,31.14 0.21,46.29l0 65.23c-3.08,0.83 -7.78,1.68 -14.09,2.52 -6.32,0.83 -12.56,1.26 -18.73,1.26 -6.18,0 -11.65,-0.43 -16.41,-1.26 -4.77,-0.84 -8.71,-2.52 -11.79,-5.06 -3.08,-2.52 -5.47,-5.95 -7.15,-10.3 -1.69,-4.35 -2.53,-10.03 -2.53,-17.04l0 -210.42c3.93,-5.61 9.96,-9.82 18.1,-12.62 8.13,-2.81 16.82,-4.21 26.09,-4.21 10.38,0 20.27,1.61 29.66,4.84 9.4,3.23 16.91,10.59 22.52,22.09l42.08 85.01c4.21,8.7 7.99,16.9 11.36,24.61 3.37,7.73 7.02,16.63 10.95,26.73l2.1 -0.42c-1.13,-15.15 -1.83,-30.3 -2.1,-45.45 -0.28,-15.15 -0.43,-30.3 -0.43,-45.45l0 -68.17c3.09,-0.85 7.79,-1.68 14.11,-2.53 6.31,-0.84 12.54,-1.26 18.72,-1.26 12.35,0 21.74,2.18 28.19,6.52 6.46,4.35 9.68,13.4 9.68,27.15l0 216.3zm108.99 -238.6c4.78,-2.82 12,-5.48 21.68,-8.01 9.68,-2.52 19.42,-3.79 29.24,-3.79 14.03,0 26.45,2.04 37.25,6.11 10.8,4.06 17.75,10.45 20.82,19.14 5.06,14.59 10.53,31.56 16.42,50.92 5.89,19.36 11.78,39.35 17.68,59.98 5.89,20.61 11.63,40.95 17.25,61.01 5.61,20.07 10.52,37.81 14.72,53.24 -3.36,3.92 -8.41,7.08 -15.15,9.47 -6.73,2.38 -14.72,3.58 -23.98,3.58 -6.73,0 -12.41,-0.57 -17.05,-1.69 -4.62,-1.12 -8.41,-2.8 -11.35,-5.05 -2.95,-2.24 -5.34,-5.19 -7.16,-8.83 -1.82,-3.66 -3.43,-7.86 -4.85,-12.63l-7.56 -29.03 -76.17 0c-2.25,8.41 -4.49,17.11 -6.74,26.08 -2.24,8.98 -4.48,17.68 -6.73,26.09 -3.93,1.4 -8.07,2.6 -12.41,3.58 -4.35,0.99 -9.62,1.48 -15.78,1.48 -14.32,0 -24.91,-2.46 -31.78,-7.37 -6.87,-4.91 -10.31,-11.71 -10.31,-20.41 0,-3.93 0.56,-7.85 1.68,-11.78 1.12,-3.93 2.39,-8.56 3.79,-13.9 1.97,-7.56 4.7,-16.96 8.21,-28.19 3.5,-11.22 7.36,-23.35 11.57,-36.39 4.21,-13.05 8.7,-26.45 13.47,-40.2 4.77,-13.75 9.26,-26.71 13.47,-38.92 4.2,-12.21 8.06,-23.08 11.57,-32.61 3.51,-9.55 6.24,-16.84 8.2,-21.88zm50.51 54.28c-3.94,11.78 -8.35,24.9 -13.26,39.34 -4.91,14.45 -9.34,29.11 -13.26,43.98l52.19 0c-3.94,-15.15 -7.94,-29.94 -12,-44.4 -4.07,-14.45 -7.78,-27.42 -11.15,-38.92l-2.52 0zm232.28 138.45c3.09,0.56 6.88,1.05 11.37,1.48 4.49,0.42 8.69,0.62 12.62,0.62 9.54,0 18.3,-1.4 26.31,-4.2 7.99,-2.81 14.86,-7.16 20.61,-13.05 5.76,-5.89 10.25,-13.54 13.47,-22.94 3.22,-9.4 4.83,-20.69 4.83,-33.87 0,-25.25 -5.89,-44.26 -17.67,-57.02 -11.78,-12.77 -27.49,-19.15 -47.13,-19.15 -3.93,0 -7.92,0.14 -11.99,0.41 -4.06,0.29 -8.21,0.72 -12.42,1.27l0 146.45zm23.57 61.44c-4.77,0 -10.24,-0.14 -16.41,-0.42 -6.17,-0.28 -12.56,-0.85 -19.15,-1.68 -6.59,-0.84 -13.18,-1.9 -19.78,-3.16 -6.59,-1.26 -12.69,-3.02 -18.31,-5.26 -15.42,-5.89 -23.14,-16.13 -23.14,-30.72l0 -196.53c0,-5.89 1.62,-10.45 4.84,-13.67 3.22,-3.23 7.65,-5.82 13.26,-7.79 12.06,-3.92 24.82,-6.52 38.29,-7.78 13.47,-1.27 25.53,-1.9 36.19,-1.9 21.89,0 41.74,2.67 59.55,8 17.82,5.32 33.11,13.54 45.86,24.62 12.77,11.08 22.66,25.03 29.68,41.87 7.01,16.84 10.52,36.75 10.52,59.75 0,22.45 -3.37,42.02 -10.1,58.71 -6.74,16.7 -16.35,30.72 -28.83,42.09 -12.48,11.36 -27.43,19.85 -44.82,25.46 -17.39,5.6 -36.61,8.41 -57.65,8.41zm257.12 -8.41c-3.08,0.83 -7.92,1.68 -14.51,2.52 -6.59,0.83 -13.12,1.26 -19.57,1.26 -6.46,0 -12.14,-0.49 -17.05,-1.47 -4.9,-0.99 -9.05,-2.73 -12.41,-5.27 -3.37,-2.52 -5.89,-6.02 -7.57,-10.51 -1.69,-4.49 -2.54,-10.38 -2.54,-17.68l0 -222.19c3.09,-0.56 8,-1.34 14.74,-2.31 6.73,-0.99 13.18,-1.48 19.36,-1.48 6.44,0 12.13,0.49 17.03,1.48 4.92,0.97 9.06,2.73 12.42,5.25 3.36,2.52 5.9,6.04 7.58,10.53 1.69,4.49 2.52,10.38 2.52,17.67l0 222.2zm54.71 -214.2c0,-12.07 3.51,-21.61 10.52,-28.62 7.01,-7.01 16.56,-10.52 28.62,-10.52l138.88 0c1.95,3.09 3.71,7.15 5.25,12.2 1.55,5.06 2.31,10.38 2.31,15.99 0,10.66 -2.31,18.24 -6.94,22.73 -4.62,4.49 -10.73,6.73 -18.3,6.73l-88.8 0 0 39.14 94.68 0c1.97,3.08 3.73,7.08 5.27,11.99 1.54,4.91 2.31,10.17 2.31,15.78 0,10.66 -2.24,18.24 -6.73,22.73 -4.49,4.49 -10.52,6.73 -18.09,6.73l-77.44 0 0 44.19 108.15 0c1.97,3.09 3.73,7.15 5.26,12.2 1.54,5.04 2.32,10.38 2.32,15.99 0,10.66 -2.32,18.3 -6.94,22.94 -4.64,4.62 -10.74,6.94 -18.31,6.94l-122.88 0c-12.06,0 -21.61,-3.51 -28.62,-10.52 -7.01,-7.01 -10.52,-16.56 -10.52,-28.62l0 -178zm387.17 114.46c-12.34,-4.21 -23.57,-8.49 -33.67,-12.84 -10.1,-4.34 -18.79,-9.61 -26.09,-15.78 -7.29,-6.17 -12.97,-13.53 -17.04,-22.09 -4.07,-8.56 -6.1,-19.01 -6.1,-31.35 0,-23.85 9.19,-42.93 27.56,-57.23 18.38,-14.31 44.12,-21.47 77.22,-21.47 12.06,0 23.28,0.84 33.66,2.52 10.38,1.69 19.3,4.28 26.73,7.79 7.44,3.51 13.26,7.99 17.46,13.47 4.21,5.47 6.31,11.85 6.31,19.15 0,7.29 -1.68,13.53 -5.04,18.72 -3.37,5.19 -7.44,9.62 -12.21,13.26 -6.17,-3.93 -14.44,-7.37 -24.82,-10.31 -10.38,-2.95 -21.75,-4.42 -34.1,-4.42 -12.62,0 -21.88,1.75 -27.77,5.26 -5.89,3.5 -8.83,7.93 -8.83,13.26 0,4.2 1.82,7.64 5.47,10.3 3.64,2.67 9.12,5.13 16.41,7.37l22.3 7.16c26.37,8.41 46.64,19.15 60.81,32.19 14.17,13.05 21.25,30.78 21.25,53.23 0,23.85 -9.39,43.13 -28.19,57.87 -18.8,14.72 -46.43,22.09 -82.91,22.09 -12.9,0 -24.89,-1.06 -35.98,-3.16 -11.08,-2.1 -20.76,-5.19 -29.04,-9.25 -8.27,-4.07 -14.72,-9.13 -19.34,-15.15 -4.64,-6.03 -6.95,-12.98 -6.95,-20.84 0,-8.13 2.38,-15.08 7.15,-20.82 4.77,-5.76 9.96,-10.18 15.58,-13.26 7.84,6.17 17.45,11.5 28.82,15.99 11.36,4.49 23.77,6.74 37.24,6.74 13.75,0 23.43,-2.12 29.04,-6.32 5.61,-4.21 8.41,-9.12 8.41,-14.73 0,-5.61 -2.24,-9.89 -6.73,-12.84 -4.49,-2.94 -10.8,-5.82 -18.94,-8.62l-17.67 -5.89zm159.48 -114.46c0,-12.07 3.52,-21.61 10.53,-28.62 7.01,-7.01 16.56,-10.52 28.61,-10.52l138.88 0c1.96,3.09 3.71,7.15 5.26,12.2 1.54,5.06 2.31,10.38 2.31,15.99 0,10.66 -2.31,18.24 -6.95,22.73 -4.62,4.49 -10.72,6.73 -18.3,6.73l-88.79 0 0 39.14 94.68 0c1.97,3.08 3.72,7.08 5.27,11.99 1.53,4.91 2.31,10.17 2.31,15.78 0,10.66 -2.25,18.24 -6.73,22.73 -4.49,4.49 -10.53,6.73 -18.1,6.73l-77.43 0 0 44.19 108.15 0c1.97,3.09 3.72,7.15 5.26,12.2 1.54,5.04 2.32,10.38 2.32,15.99 0,10.66 -2.32,18.3 -6.95,22.94 -4.63,4.62 -10.73,6.94 -18.3,6.94l-122.89 0c-12.05,0 -21.6,-3.51 -28.61,-10.52 -7.01,-7.01 -10.53,-16.56 -10.53,-28.62l0 -178zm388.01 133.4l0 80.8c-3.08,0.83 -7.92,1.68 -14.51,2.52 -6.59,0.83 -13.12,1.26 -19.57,1.26 -6.45,0 -12.14,-0.49 -17.05,-1.47 -4.9,-0.99 -8.97,-2.73 -12.2,-5.27 -3.22,-2.52 -5.68,-6.02 -7.36,-10.51 -1.69,-4.49 -2.53,-10.38 -2.53,-17.68l0 -198.21c0,-5.89 1.62,-10.45 4.84,-13.67 3.23,-3.23 7.65,-5.82 13.26,-7.79 9.54,-3.37 20.62,-5.82 33.24,-7.36 12.62,-1.54 26.09,-2.32 40.41,-2.32 38.71,0 67.89,8.13 87.52,24.42 19.64,16.26 29.46,38.29 29.46,66.06 0,17.39 -4.49,32.26 -13.47,44.61 -8.98,12.35 -19.63,21.88 -31.98,28.61 10.1,13.75 20.06,26.65 29.88,38.72 9.82,12.06 17.54,23.01 23.15,32.82 -2.81,9.82 -7.93,17.32 -15.37,22.51 -7.43,5.19 -15.78,7.79 -25.04,7.79 -6.16,0 -11.5,-0.7 -15.99,-2.1 -4.49,-1.41 -8.41,-3.36 -11.78,-5.9 -3.36,-2.52 -6.45,-5.6 -9.25,-9.26 -2.82,-3.64 -5.47,-7.56 -8.01,-11.77l-35.35 -56.81 -22.3 0zm26.52 -55.98c10.65,0 19.08,-2.73 25.25,-8.2 6.17,-5.47 9.25,-13.54 9.25,-24.19 0,-10.67 -3.43,-18.74 -10.3,-24.21 -6.88,-5.47 -17.75,-8.2 -32.62,-8.2 -4.21,0 -7.57,0.13 -10.1,0.42 -2.52,0.28 -5.33,0.7 -8.41,1.26l0 63.12 26.93 0zm230.19 136.78c-3.08,0.83 -7.92,1.68 -14.51,2.52 -6.59,0.83 -13.12,1.26 -19.57,1.26 -6.46,0 -12.14,-0.49 -17.05,-1.47 -4.9,-0.99 -9.05,-2.73 -12.41,-5.27 -3.37,-2.52 -5.89,-6.02 -7.57,-10.51 -1.69,-4.49 -2.54,-10.38 -2.54,-17.68l0 -222.19c3.09,-0.56 8.01,-1.34 14.74,-2.31 6.73,-0.99 13.18,-1.48 19.36,-1.48 6.44,0 12.13,0.49 17.03,1.48 4.92,0.97 9.06,2.73 12.42,5.25 3.37,2.52 5.9,6.04 7.58,10.53 1.69,4.49 2.52,10.38 2.52,17.67l0 222.2zm285.75 -7.16c-3.93,3.92 -9.62,6.95 -17.05,9.05 -7.44,2.1 -16.34,3.15 -26.72,3.15 -10.38,0 -20.2,-1.54 -29.46,-4.63 -9.25,-3.08 -16.83,-10.51 -22.72,-22.3l-41.67 -85.01c-4.21,-8.7 -7.99,-16.9 -11.35,-24.61 -3.37,-7.71 -7.01,-16.63 -10.95,-26.73l-2.52 0.42c1.12,15.15 1.75,30.59 1.89,46.3 0.14,15.7 0.21,31.14 0.21,46.29l0 65.23c-3.08,0.83 -7.78,1.68 -14.09,2.52 -6.31,0.83 -12.56,1.26 -18.73,1.26 -6.18,0 -11.64,-0.43 -16.41,-1.26 -4.77,-0.84 -8.7,-2.52 -11.79,-5.06 -3.08,-2.52 -5.47,-5.95 -7.15,-10.3 -1.69,-4.35 -2.53,-10.03 -2.53,-17.04l0 -210.42c3.93,-5.61 9.97,-9.82 18.1,-12.62 8.14,-2.81 16.83,-4.21 26.09,-4.21 10.38,0 20.27,1.61 29.67,4.84 9.4,3.23 16.9,10.59 22.51,22.09l42.08 85.01c4.22,8.7 7.99,16.9 11.36,24.61 3.37,7.73 7.03,16.63 10.95,26.73l2.1 -0.42c-1.12,-15.15 -1.82,-30.3 -2.1,-45.45 -0.28,-15.15 -0.42,-30.3 -0.42,-45.45l0 -68.17c3.09,-0.85 7.79,-1.68 14.1,-2.53 6.31,-0.84 12.54,-1.26 18.72,-1.26 12.35,0 21.74,2.18 28.2,6.52 6.45,4.35 9.68,13.4 9.68,27.15l0 216.3zm127.92 -45.87c3.09,0.56 6.88,1.05 11.37,1.48 4.49,0.42 8.69,0.62 12.62,0.62 9.53,0 18.3,-1.4 26.3,-4.2 7.99,-2.81 14.87,-7.16 20.62,-13.05 5.76,-5.89 10.24,-13.54 13.47,-22.94 3.22,-9.4 4.83,-20.69 4.83,-33.87 0,-25.25 -5.89,-44.26 -17.67,-57.02 -11.78,-12.77 -27.49,-19.15 -47.13,-19.15 -3.93,0 -7.92,0.14 -11.99,0.41 -4.07,0.29 -8.21,0.72 -12.42,1.27l0 146.45zm23.57 61.44c-4.77,0 -10.24,-0.14 -16.42,-0.42 -6.16,-0.28 -12.55,-0.85 -19.14,-1.68 -6.59,-0.84 -13.18,-1.9 -19.78,-3.16 -6.59,-1.26 -12.7,-3.02 -18.31,-5.26 -15.42,-5.89 -23.15,-16.13 -23.15,-30.72l0 -196.53c0,-5.89 1.63,-10.45 4.85,-13.67 3.22,-3.23 7.64,-5.82 13.26,-7.79 12.05,-3.92 24.82,-6.52 38.29,-7.78 13.47,-1.27 25.53,-1.9 36.19,-1.9 21.89,0 41.74,2.67 59.55,8 17.81,5.32 33.11,13.54 45.86,24.62 12.77,11.08 22.66,25.03 29.67,41.87 7.02,16.84 10.53,36.75 10.53,59.75 0,22.45 -3.37,42.02 -10.1,58.71 -6.74,16.7 -16.35,30.72 -28.83,42.09 -12.48,11.36 -27.43,19.85 -44.82,25.46 -17.39,5.6 -36.62,8.41 -57.65,8.41zm183.47 -222.61c0,-12.07 3.51,-21.61 10.53,-28.62 7.01,-7.01 16.55,-10.52 28.61,-10.52l138.88 0c1.96,3.09 3.71,7.15 5.26,12.2 1.54,5.06 2.31,10.38 2.31,15.99 0,10.66 -2.31,18.24 -6.95,22.73 -4.62,4.49 -10.72,6.73 -18.3,6.73l-88.79 0 0 39.14 94.68 0c1.97,3.08 3.72,7.08 5.27,11.99 1.53,4.91 2.31,10.17 2.31,15.78 0,10.66 -2.25,18.24 -6.74,22.73 -4.49,4.49 -10.52,6.73 -18.09,6.73l-77.43 0 0 44.19 108.15 0c1.96,3.09 3.72,7.15 5.25,12.2 1.55,5.04 2.33,10.38 2.33,15.99 0,10.66 -2.33,18.3 -6.95,22.94 -4.63,4.62 -10.73,6.94 -18.3,6.94l-122.89 0c-12.06,0 -21.6,-3.51 -28.61,-10.52 -7.02,-7.01 -10.53,-16.56 -10.53,-28.62l0 -178z"/>
  </g>
  <g id="_1746448316624">
   <g id="_2190422349376">
    <path class="fil10" d="M33150.06 4287.77c9.5,7.63 4.49,-6.55 9.77,12.06 7.36,-3.62 11.16,-7.9 17.93,-9.94 12.71,-3.84 20.03,-2.1 29.8,0.45 7.22,50.23 -8.68,5.28 13.11,63.61 2.66,7.11 2.94,13.74 5.58,19.82l5.17 -1.57c7.12,-4.31 8.11,-9.46 13.16,-17.51 16.98,-27 5.65,-2.81 15.04,-28.17l9.65 -12.25c13.5,-2.31 -2.82,-8.39 7.52,2.35l30.32 -56.74c29.85,69.52 -147.88,268.82 -160.37,293.2 63.97,-12.49 132.88,-172.4 190.6,-171.51l12.31 20.96c9.02,-23.53 40.8,-55.36 33.04,-88.64 -19.86,-4 -29.66,3.96 -45.19,9.46 9.31,-19.94 26.75,-40.94 39.93,-69.44 11.15,-24.08 21.3,-51.56 27.36,-79.91 13.3,-62.31 3.65,-149.96 -80.47,-121.95 -50.85,16.93 -98.34,58.07 -131.84,85.83 -20.48,16.97 -90.69,87.87 -102.83,110.84 31.49,-9.22 76.25,-63.09 111.05,-65.91 -0.53,23.98 -38.02,95.18 -50.64,104.96zm-57.03 -510.9l141.58 84.02c0.29,0.22 1.07,0.93 1.54,1.45l16.19 4.57 59.34 -18.31 -28.77 -16.38 63.93 -16.86 22.29 -103.49c4.06,-11.59 5.51,-58.27 4.31,-74.43 -2.03,-27.64 -8.24,-24.71 -10.77,-29.49 -5.8,-11 -2.5,-19.28 -7.54,-28.75l3.87 24.19c-13.83,11.33 -12.45,-2.32 -13.88,34.36l-130.76 1.89c-5.79,0.35 -1.05,0.31 -7.73,0.2l-21.5 -1.99 15.18 29.09c-11.76,-3.7 -54.23,-40.24 -67.43,-50.14 -15.43,-11.57 -51.25,-44.76 -75.76,-38.21 -13.44,64.37 28.79,88.86 72.32,125.89 12.21,10.4 24.64,24.72 34.33,31.2 -22.55,-10.15 -94.77,-48.47 -119.61,-51.56 7.16,24.18 33.76,75.43 48.87,92.75zm78.02 -300.49c-19.48,-20.99 -57.79,-68.95 -96.01,-66.44 -0.91,26.2 101.03,207.84 110.09,227.91l21.5 1.99c6.68,0.11 1.94,0.15 7.73,-0.2l130.76 -1.89c1.43,-36.68 0.05,-23.03 13.88,-34.36l-3.87 -24.19c5.04,9.47 1.74,17.75 7.54,28.75 2.53,4.78 8.74,1.85 10.77,29.49 1.2,16.16 -0.25,62.84 -4.31,74.43 15.19,-65.24 -6.94,-190.51 -30.35,-242.6l-13.84 1.23c-3.79,-21.17 -4.65,20.6 -13.21,-25.67 -2.68,-14.47 -4.44,-22.71 -8.74,-36.49 -3.21,10.78 -2.6,28.96 -0.64,40.29 2.34,13.55 8.28,24.38 0.64,36.66 -15.66,-3.82 -11.02,-2.07 -12.45,-22.29l-12.72 8.81c-0.34,-0.71 -1.5,1.23 -2.25,1.84 -9.59,-14.67 0.1,-6.06 -10.08,-11.17 -3.79,9.11 1.3,5.05 -7.95,8.35 10.16,6.62 12.04,4.49 7.42,17.93 -17.15,-4.25 -0.28,1.24 -11.83,-7.08l-6.58 -4.96c-35.96,-25.54 -15.17,-22.98 -43.21,-5.37l-3.3 1.88c-20.32,12.92 -6.27,16.75 -11.54,27.31 -20.67,-15.96 -16.85,-12.28 -17.45,-24.16zm0 0c0.6,11.88 -3.22,8.2 17.45,24.16 5.27,-10.56 -8.78,-14.39 11.54,-27.31l3.3 -1.88c28.04,-17.61 7.25,-20.17 43.21,5.37l6.58 4.96c11.55,8.32 -5.32,2.83 11.83,7.08 4.62,-13.44 2.74,-11.31 -7.42,-17.93 9.25,-3.3 4.16,0.76 7.95,-8.35 10.18,5.11 0.49,-3.5 10.08,11.17 0.75,-0.61 1.91,-2.55 2.25,-1.84l12.72 -8.81c1.43,20.22 -3.21,18.47 12.45,22.29 7.64,-12.28 1.7,-23.11 -0.64,-36.66 -1.96,-11.33 -2.57,-29.51 0.64,-40.29 4.3,13.78 6.06,22.02 8.74,36.49 8.56,46.27 9.42,4.5 13.21,25.67l13.84 -1.23c-3.79,-21.94 -17.38,-58.37 -24.3,-78.62 -15.59,-45.58 -31.92,-131.54 -31.92,-180.34 0,-59.45 8.81,-81.14 8.76,-99.01 -24.72,26.8 -47.15,110.98 -49.44,156.06 -1.72,33.93 -1.5,70.45 2.23,100.53 3.7,29.92 12.55,66.55 13.25,91 -29.92,-9.95 -116.47,-130.78 -139.24,-182.58 -7.51,-17.1 -7.19,-22.71 -18.43,-32.83 -2.72,105.07 75,217.18 80.02,240.1l-8.66 -7.2zm-140.42 319.82c11.4,8.26 35.17,14.4 44.32,28.01 -72.68,3.85 -123.74,2.03 -189.94,-20.47 -24.2,-8.22 -20.52,-2.44 -21.53,-1.91 34.31,21.33 84.85,38.13 132.39,44.42l-48.77 35.72 152.68 38.73c8.69,-7.86 -2.01,-2.82 12.47,-5.94 2.82,-0.61 15.17,-0.45 19,-0.56 4.07,-10.18 -1.76,-4.1 6.64,-13.94l6.35 -5.55c3.63,-2.92 0.86,2.13 7.07,-5.1l-23.2 -42.98c-4.2,-9.32 -4.9,-7.78 -6.49,-21.15 -2.34,-11.34 -2.07,-7.65 -9.84,-19.19 -4.81,-7.14 -7.41,-14.73 -14.52,-19.92l-63.37 -35.01c-0.86,11.35 4.41,14.94 13.17,20.9 14.96,10.18 7.72,6.44 17.84,6.68 -5.42,2.06 -11.86,3.11 -18.07,5.93l-16.2 11.33zm184.44 126.75l-1.94 4.49c24.94,8.65 11.93,7.42 34.25,21.52 58.76,37.17 86.33,17.46 124.72,5.84 3.76,-13.6 5.36,-11.11 13.68,-19.4 -18.31,-10.6 -22.14,0.67 -39.81,-18.8 -8.05,-3.42 -74.41,-37.53 -77.46,-41.59 -11.58,-3.73 -7.37,-0.6 -16.17,-8.1l-16.19 -4.57c-6.32,22.79 -14.93,-2.35 -20.62,24.81l40.3 3.46c-12,4.16 -8.1,-0.94 -11.71,12.94l-34.01 0c3.46,7.8 3.72,9.21 4.96,19.4zm-115.29 -2.25l45.48 10.2c-30.19,17.75 -96.38,14.26 -118.85,38.85 12.94,67 187.57,-33.75 187.64,-33.8l-0.92 -8.51 1.94 -4.49c-25.88,-8.79 -52.88,-50.28 -71.2,-72.69l-22.25 -24.78c1.59,13.37 2.29,11.83 6.49,21.15l23.2 42.98c-6.21,7.23 -3.44,2.18 -7.07,5.1l-6.35 5.55c-8.4,9.84 -2.57,3.76 -6.64,13.94 -3.83,0.11 -16.18,-0.05 -19,0.56 -14.48,3.12 -3.78,-1.92 -12.47,5.94zm177.01 395.92c-10.34,-10.74 5.98,-4.66 -7.52,-2.35l-9.65 12.25c-9.39,25.36 1.94,1.17 -15.04,28.17 -5.05,8.05 -6.04,13.2 -13.16,17.51l-5.17 1.57c-2.64,-6.08 -2.92,-12.71 -5.58,-19.82 -21.79,-58.33 -5.89,-13.38 -13.11,-63.61 -9.77,-2.55 -17.09,-4.29 -29.8,-0.45 -6.77,2.04 -10.57,6.32 -17.93,9.94 -5.28,-18.61 -0.27,-4.43 -9.77,-12.06 -8.24,21.24 -29.08,40.73 -33.82,58.82 11.81,-9.28 23.2,-19.78 37.1,-30.29 81.18,-61.38 31.2,50.76 18.53,83.54 -19.11,49.44 -20.5,55.64 -8.65,103.52 15.82,-7.32 11.84,-7.1 20.63,-23.25 24.87,-45.75 76.38,-121.76 92.94,-163.49zm-62.74 -380.67l10.98 0.78 -14.66 9.29c13.34,0.54 26.67,2.28 33.99,11.06 13.51,16.16 3.29,11.91 -8.66,15.42 16.12,2.75 11.46,2.59 10.49,23.95 -37.01,1.26 -43.3,1.5 -71.12,13.67l8.59 -0.02c30.24,2.32 45.22,-10.15 75.97,5.87 -1.82,18.93 -4.94,27.49 -15.56,39.95 -9.04,10.61 -22.51,19.61 -29.35,28.17 32.09,-8.18 151.91,-72.32 157.38,-129.29 -38.39,11.62 -65.96,31.33 -124.72,-5.84 -22.32,-14.1 -9.31,-12.87 -34.25,-21.52l0.92 8.51zm132.79 -120.59l-9.5 60.09c-17.19,1.72 -61.48,-6.22 -68.83,-0.44 3.05,4.06 69.41,38.17 77.46,41.59l-7.36 -38.33c39.31,-0.76 26.73,-0.99 55.98,8.52l12.78 -11.37c14.32,-8.79 15.57,-1.99 25.7,-16.31 8.9,-12.58 13.12,-37.6 3.72,-53.38 -8.61,-14.43 -29.79,-19.1 -48.26,-13.99 -0.85,0.23 -40.87,23.01 -41.69,23.62zm-316.21 -19.16l16.2 -11.33c6.21,-2.82 12.65,-3.87 18.07,-5.93 -10.12,-0.24 -2.88,3.5 -17.84,-6.68 -8.76,-5.96 -14.03,-9.55 -13.17,-20.9 -19.73,-17.75 -93.61,-56.63 -143.29,-101.98 -8.71,-7.95 -32.38,-35.37 -39.36,-40.24 15.14,19.68 18.32,52.59 70.66,108.19 17.52,18.61 77.05,69.18 108.73,78.87zm66.63 -9.83c7.11,5.19 9.71,12.78 14.52,19.92 7.77,11.54 7.5,7.85 9.84,19.19l22.25 24.78c18.32,22.41 45.32,63.9 71.2,72.69 -1.24,-10.19 -1.5,-11.6 -4.96,-19.4l34.01 0c3.61,-13.88 -0.29,-8.78 11.71,-12.94l-40.3 -3.46c5.69,-27.16 14.3,-2.02 20.62,-24.81 -0.47,-0.52 -1.25,-1.23 -1.54,-1.45l-141.58 -84.02 4.23 9.5zm86.4 223.73l-8.59 0.02c27.82,-12.17 34.11,-12.41 71.12,-13.67 0.97,-21.36 5.63,-21.2 -10.49,-23.95 11.95,-3.51 22.17,0.74 8.66,-15.42 -7.32,-8.78 -20.65,-10.52 -33.99,-11.06 -17.65,4.49 -50.88,30.52 -65.66,41.06 -8.36,5.96 -59.66,37.07 -62.44,46.11 19.69,1.33 84.9,-7.97 101.39,-23.09zm459.9 -336.64c10.25,13.49 0.31,4.81 12.6,9.28 20.18,-3.16 43.66,-15.83 67.16,-8.07 24.1,18.53 11.01,44.92 -7.65,55.24 -27.72,15.3 -41.54,-0.69 -64.65,-2.5 -10.88,2.47 -8.89,4.81 -6.93,-6.01l-1.58 7.93c33.84,37.14 99.4,13.84 129.85,-14.65 1.09,-8.43 -2.98,-38.79 -3.7,-54.82 -6.23,6.05 -8.07,10.03 -15.35,15.7 -5.08,-5.65 -18.69,-27.17 -24.4,-35.59 -29.53,2.46 -69.16,22.09 -85.35,33.49zm-14.94 52.8c-21.6,9.93 -50.44,32.3 -64.54,46.64 -8.19,8.33 -45.72,48.61 -47.39,63.33l-3.67 18.94 14.51 11.78c-10.28,8.42 -5.65,-2.1 -5.76,13.79 24.67,-27.09 37.45,-47.68 56.81,-78.2 10.3,-16.24 18.11,-27.72 28.28,-40.28 11.3,-13.94 17.78,-29.3 35.65,-32.93l1.58 -7.93 -5.88 -3.31 -9.59 8.17zm-535.53 720.75c29.33,-11.71 147.02,-112.15 41.29,-106.61 -17.31,48.98 -10,54.27 -52.54,83.49l10.02 20.39c0.2,-0.56 0.67,1.91 1.23,2.73zm242.79 49.38c-14.31,-8.97 -25.99,-6.82 -25.64,-30.23 0.22,-14.87 6.9,-37.25 9.48,-53.02 -79.2,16.12 -42.26,129.47 16.16,83.25zm185.89 -615.65c0.11,-15.89 -4.52,-5.37 5.76,-13.79l-14.51 -11.78 3.67 -18.94c-17.03,10.56 -27.74,28.51 -41.47,38.6 -16.98,12.5 -37.57,15.67 -55,26.22 3.62,2.94 -0.23,2.33 10.25,5.93 30.14,10.4 67.87,-0.5 91.3,-26.24zm-269.43 -13.83c8.8,7.5 4.59,4.37 16.17,8.1 7.35,-5.78 51.64,2.16 68.83,0.44l9.5 -60.09 -63.93 16.86 28.77 16.38 -59.34 18.31zm376.28 -140.65l9.59 -8.17 5.88 3.31c-1.96,10.82 -3.95,8.48 6.93,6.01 -1.86,-12.95 7.1,-17.28 12.44,-18.24l-24.28 7.16c-0.61,-26.89 1.23,-15.66 16.98,-33.59 -12.29,-4.47 -2.35,4.21 -12.6,-9.28 -35.16,18.66 -18.89,34.35 -14.94,52.8z"/>
    <path class="fil10" d="M33797.83 4250.3c5.69,1.58 14.85,2.35 20.73,1.55 0.79,-44.48 0.75,-85.47 45.67,-86.47 46.08,-1.04 42.64,42.33 44.08,83.01l12.92 1.19c1.75,4.04 1.65,5.89 3.4,10.08 3.39,8.1 1.83,4.71 4.71,8.9 0.35,-26.98 -5.01,-60.24 7.76,-80.77 10.89,-17.51 39.18,-28.5 62.5,-14.06 31.07,19.24 17.34,141.53 10.57,157.22l36.38 0.32c-22.59,-54.81 28.45,-179.05 -68.08,-178.75 -28.74,0.09 -38.23,15.03 -53.42,27.63 -13.82,-14.51 -23.39,-27.48 -50.08,-29.47 -26.25,-1.96 -44.19,10.03 -54.29,25.63l-6.68 -23.75 -29.38 1.14c18.53,9.98 14.03,15.86 13.63,41.11 -0.31,18.55 -0.8,36.97 -0.42,55.49z"/>
    <path class="fil10" d="M33483.6 4162.08c132.47,-18.59 132.23,152.09 37.11,156.88 -34.98,1.76 -40.72,4.23 -40.77,-28.34 -0.04,-28.67 -2.66,-105.34 3.66,-128.54zm-32.89 -9.62c14.37,16.93 8.81,147.81 9.06,178.12 41.55,1.23 80.02,6.67 110.53,-13.31 24.1,-15.78 42.32,-43.96 42.08,-80.36 -0.63,-95.32 -78.25,-89.49 -161.67,-84.45z"/>
    <path class="fil10" d="M33644.28 4219.82c-3.43,-68.8 112.92,-83.6 109.12,-0.52l-109.12 0.52zm130.82 59.73c-10.61,3.59 -7.93,6.8 -15.85,16.64 -31.77,39.51 -116.39,36.68 -116.94,-60.96l131.79 -0.42c19.9,-107.5 -144.64,-118.49 -154.39,-5.51 -9,104.4 83.35,116.9 125.84,95.31 23.77,-12.08 27.41,-13.66 29.55,-45.06z"/>
    <path class="fil10" d="M34594.85 4263.6c-34.39,-114.23 109.74,-140.67 134.16,-40.85 25.8,105.48 -104.01,140.98 -134.16,40.85zm-24.19 -7.63c4.37,48.51 49.23,88.2 106.29,78.2 46,-8.07 84.97,-52.69 75.45,-107.74 -20.12,-116.43 -193.18,-97.48 -181.74,29.54z"/>
    <path class="fil10" d="M33794.4 3945.62c7.82,18.4 23.09,154.56 -49.76,163.37 -81.45,9.86 -50.24,-158.13 -47.79,-162.92l-29.09 -0.1c19.44,42.27 -14.33,124.94 16.51,161.44 12.29,14.56 39.45,25.89 67.6,17.95 23.49,-6.63 33.81,-24.56 46.55,-37.7 0.36,43.48 -6.78,36.74 35.47,37.7 -10.51,-14.97 -9.09,2.13 -15.7,-18.23 -0.29,-37.49 -7.96,-136.18 4.71,-161.57l-28.5 0.06z"/>
    <path class="fil10" d="M34078.91 4020.99c-47.74,-3.19 -78.51,48.99 -47.19,86.22 39.42,46.85 101.74,-6.87 106.03,-8.42 -2.73,14.09 4.38,2.18 -8.34,14.41l-34.29 28.28c15.75,7.49 12.36,-17.46 78.74,-15.52 -17.24,-15.9 -15.86,-31.49 -15.68,-60.8 0.14,-24.48 -0.43,-48.89 -1.21,-73.1 -1.06,21.53 -5.44,19.52 -6.72,43.02l-12.22 -1.06c1.04,41.28 5.44,45.17 -22.74,64.79 -60.84,42.38 -97.37,-36.23 -54.23,-61.7 20.75,-12.25 50.17,-8.87 74.4,-8.7 8.26,0.22 2.28,2.16 6.52,-1.43l-2.21 -35.9c5.21,9.79 2.86,17.14 0.33,28.72l-61.19 1.19z"/>
    <path class="fil10" d="M34078.69 4219.67c-6.48,-74.72 112.62,-72.53 109.65,-13.02 -0.78,15.74 -9.45,13.69 -26.34,13.52 -27.76,-0.28 -55.57,-0.13 -83.31,-0.5zm-18.08 57.76l-2.97 -16.05c12.56,6.85 10.16,15.85 10.5,7.75 0.94,-0.85 3.85,-2.45 4.49,-2.82l6.15 -3.54 -1.95 -27.01c28.72,-1.21 111.77,8.38 129.84,-3.41 11.5,-11.78 -1.41,-100.32 -93.46,-78.46 -63.4,15.05 -71.58,105.38 -52.6,123.54z"/>
    <path class="fil10" d="M34303.67 4259.77l-5.66 -10.84c-26.51,6.95 1.25,-2.59 -12.27,-1.54 -8.11,0.62 7.64,-14.96 -5.33,1.95 1.43,12.91 12.57,27.41 18.95,40.38 3.31,6.73 7.24,13.24 10.56,20.21 5.32,11.18 0.77,0.99 4.38,11.07 0.39,1.08 1.61,4.78 1.88,5.58l85.86 5.04c-6.03,-9.51 4.41,-1.37 -12.13,-8.68 -0.97,-30.9 -0.95,-62.7 -1.1,-93.68 -0.23,-44.01 -4.65,-52.55 7.95,-78.47l-38.69 0.68c15.31,6.54 11.56,14.33 11.29,35.7 -0.45,35.62 1.41,110.17 -2.46,137.32 -40.73,7.16 -42.38,-53.9 -63.23,-64.72z"/>
    <path class="fil10" d="M34199.98 4111.65l6.94 -116.41c-1.03,1.65 -6.32,-3.55 -0.47,15.82 2.38,7.89 1.71,5.6 4.82,9.97 13.44,-18.01 3.99,-18.19 3.83,-18.47l8.47 105.96c-4.56,-18.69 -4.03,-133.73 0.42,-152.51 63.48,-5.85 107.81,17.8 103.74,83.96 5.71,6.44 2.37,0.34 6.14,9.9 1.6,4.07 1.95,8.28 2.57,12.6 -1.01,-17.19 0.35,7.34 5.94,-15.69 12.78,9.1 2.76,-3.58 7.44,10.66 14.22,-39.79 -4.72,-84.11 -31.41,-99.43 -27.56,-15.81 -88.44,-13.73 -126.25,-11.23 13.91,18.36 8.54,45.6 8.57,80.21 0.01,27.92 1.33,57.14 -0.75,84.66z"/>
    <path class="fil10" d="M34280.41 4249.34c12.97,-16.91 -2.78,-1.33 5.33,-1.95 13.52,-1.05 -14.24,8.49 12.27,1.54l5.66 10.84c-12.74,-39.99 -22.81,-17.91 4.75,-63.43 31.49,-52.02 29.32,-36.72 34.91,-45.8l-32.35 -0.03c2.19,20.86 -18.31,48.28 -25.32,65.22 -10.81,-6.21 -1.54,1.58 -10.05,-8.46 -11.53,-13.58 -26.21,-42.6 -20.65,-56.67l-41.99 0.68c5.73,8.08 7.93,-0.65 19.93,18.25 12.32,19.4 39.43,59.27 32.36,75.28 -4,9.06 -22.79,34.41 -30.19,46.79 -15.97,26.73 -9.63,20.62 -34.12,39.48l40.85 0.56c3.47,-10.31 -6.04,0.07 3.2,-22.76 5.15,-12.75 27.05,-55.51 35.41,-59.54z"/>
    <path class="fil10" d="M33876.11 4103.33l-8.29 -64.45c-10.29,-9.19 -8.31,-13.15 -11.12,-16.88l-3.78 90.25c-4.26,7.6 -2.2,4.07 -5.33,9.19 -0.45,0.73 -2.26,3.22 -3,4.25 41.6,-2.13 92.87,7.55 122.28,-14.94 27.79,-21.24 40.88,-49.9 39.04,-95.99l-12.17 11.95c-18.06,-9.54 4.3,-10.2 -14.44,-12.25 12.14,28.59 -9.97,109.17 -84.52,99.59 -15.95,-2.05 -12.51,-0.71 -18.67,-10.72z"/>
    <path class="fil10" d="M33852.92 4112.25l3.78 -90.25c2.81,3.73 0.83,7.69 11.12,16.88l8.29 64.45c-3.81,-15.92 -2.92,-128.33 1.05,-146.94 54.26,-7.4 92.76,11.59 102.14,58.07 18.74,2.05 -3.62,2.71 14.44,12.25l12.17 -11.95c-11.68,-79.84 -84.67,-71.76 -161.22,-67.92 15.11,16.08 9.19,54.73 9.16,80.15 -0.03,26.17 1.7,60.27 -0.93,85.26z"/>
    <path class="fil10" d="M34199.98 4111.65c-4.73,8.92 -1.96,5.09 -8.34,13.88 33.8,-1.62 79.58,4.95 107.24,-6.89 23.48,-10.04 44.85,-33.24 50.94,-61.2 -4.68,-14.24 5.34,-1.56 -7.44,-10.66 -5.59,23.03 -6.95,-1.5 -5.94,15.69 -0.62,-4.32 -0.97,-8.53 -2.57,-12.6 -3.77,-9.56 -0.43,-3.46 -6.14,-9.9 -4.68,48.6 -45.75,95.14 -104.16,68.55l-8.47 -105.96c0.16,0.28 9.61,0.46 -3.83,18.47 -3.11,-4.37 -2.44,-2.08 -4.82,-9.97 -5.85,-19.37 -0.56,-14.17 0.47,-15.82l-6.94 116.41z"/>
    <path class="fil10" d="M33615.22 3953.61l-0.23 138.49c0.21,23.44 3.17,22.86 -10.1,32.88l44.52 0.56 -13.75 -9.73c-1.45,-30.51 -0.84,-62.03 -0.93,-92.63 -0.05,-15.34 -0.29,-30.74 -0.32,-46.05 -0.06,-24.72 -2.6,-19.48 10.89,-32.16l-39.54 -0.05c4.35,7.46 0.47,1.78 9.46,8.69z"/>
    <path class="fil10" d="M34413.57 4257.97l3.29 -10.01c0.39,0.51 1.27,0.81 1.52,1.74 0.77,2.84 -0.3,4.25 7.68,1.26l4.57 -3.48c-2.37,-93.27 89.37,-114.67 128.44,-60.98l5.49 6.8c0.3,-0.64 1.33,1.49 3.25,2.12l-2.28 -30.82c-36.11,-17.89 -79.67,-23.04 -113.81,-3.99 -56.15,31.35 -40.35,96.32 -39.6,94.21 0.19,-0.51 0.9,2.14 1.45,3.15z"/>
    <path class="fil10" d="M33452.44 4044.75l-9.8 19.25c-1.3,-10.6 -3.14,-13.53 -4.6,-22.45 -0.66,-4.01 -1.16,-11.21 -1.79,-14.31l-2.87 -8.88c-0.15,-1.41 -0.78,-1.75 -1.34,-2.51 -8.41,117.61 98.84,130.06 160.46,87.01l-1.49 -24.76c-18.65,52.15 -122.68,47.41 -138.57,-33.35z"/>
    <path class="fil10" d="M33432.04 4015.85c0.56,0.76 1.19,1.1 1.34,2.51l2.87 8.88c0.63,3.1 1.13,10.3 1.79,14.31 1.46,8.92 3.3,11.85 4.6,22.45l9.8 -19.25c-5.31,-43.24 13.96,-74.04 41.55,-86.3 16.95,-7.53 39.33,-7.52 58.24,-0.76 25.53,9.12 22.6,23.37 36.53,32.23l-0.43 -30.43c-67.19,-31.85 -143.83,-17.19 -156.29,56.36z"/>
    <path class="fil10" d="M34413.57 4257.97c-1.57,43.66 58.12,105.15 157.64,52.33l-0.89 -24.06c-43.7,59.94 -131.89,28.6 -139.69,-38.76l-4.57 3.48c-7.98,2.99 -6.91,1.58 -7.68,-1.26 -0.25,-0.93 -1.13,-1.23 -1.52,-1.74l-3.29 10.01z"/>
    <path class="fil10" d="M34060.61 4277.43c2.98,41.2 66.71,76.79 127.24,43.03 19.36,-10.8 20.31,-11.74 20.23,-41.3 -21.79,16.88 -23.88,44.94 -72.13,39.96 -33.66,-3.47 -51.98,-25.53 -57.17,-56.35l-6.15 3.54c-0.64,0.37 -3.55,1.97 -4.49,2.82 -0.34,8.1 2.06,-0.9 -10.5,-7.75l2.97 16.05z"/>
    <path class="fil10" d="M34078.91 4020.99l61.19 -1.19c2.53,-11.58 4.88,-18.93 -0.33,-28.72l2.21 35.9c-4.24,3.59 1.74,1.65 -6.52,1.43l2.57 5.61 12.22 1.06c1.28,-23.5 5.66,-21.49 6.72,-43.02 -7.67,-29.18 -20.65,-42.47 -48.59,-46.29 -28.46,-3.89 -55.41,3.42 -75.04,16.34l-0.24 29.71c8.36,-5.32 10.5,-38.17 59.75,-35.93 32.54,1.49 44.41,26.33 43.44,60.48 -15.19,-0.03 -45.35,-5.03 -57.38,4.62z"/>
    <path class="fil10" d="M33818.56 4251.85c-5.88,0.8 -15.04,0.03 -20.73,-1.55 1.13,25.98 3.29,56.92 -5.06,80.23l31.67 -0.34c-7.34,-17.57 -6.64,-53.87 -5.88,-78.34z"/>
    <path class="fil10" d="M33929.34 4268.56c-2.88,-4.19 -1.32,-0.8 -4.71,-8.9 -1.75,-4.19 -1.65,-6.04 -3.4,-10.08l-12.92 -1.19c0.66,26.99 2.64,58.31 -4.97,81.91l33.84 -0.67c-11.18,-14.85 -8.43,-38.43 -7.84,-61.07z"/>
   </g>
  </g>
 </g>
</svg>
