<?xml version="1.0" encoding="UTF-8"?>
<!DOCTYPE svg PUBLIC "-//W3C//DTD SVG 1.1//EN" "http://www.w3.org/Graphics/SVG/1.1/DTD/svg11.dtd">
<!-- Creator: CorelDRAW 2017 -->
<svg xmlns="http://www.w3.org/2000/svg" xml:space="preserve" width="50.7998mm" height="33.8666mm" version="1.1" style="shape-rendering:geometricPrecision; text-rendering:geometricPrecision; image-rendering:optimizeQuality; fill-rule:evenodd; clip-rule:evenodd"
viewBox="0 0 5079.98 3386.66"
 xmlns:xlink="http://www.w3.org/1999/xlink">
 <defs>
  <style type="text/css">
   <![CDATA[
    .fil0 {fill:none}
    .fil5 {fill:#1084D9}
    .fil1 {fill:#1B96D9}
    .fil3 {fill:#2CACEC}
    .fil2 {fill:#5AC2EB}
    .fil4 {fill:#84E1FC}
    .fil8 {fill:#BDBFC1;fill-rule:nonzero}
    .fil7 {fill:#1084D9;fill-rule:nonzero}
    .fil9 {fill:#2CACEC;fill-rule:nonzero}
    .fil6 {fill:#84E1FC;fill-rule:nonzero}
   ]]>
  </style>
 </defs>
 <g id="Capa_x0020_1">
  <metadata id="CorelCorpID_0Corel-Layer"/>
  <rect class="fil0" x="-0" width="5079.99" height="3386.66"/>
  <rect class="fil0" x="-0" width="5079.99" height="3386.66"/>
  <g id="_2568047504544">
   <path class="fil1" d="M577.63 1578.45c63.1,-11.04 83.79,-32.75 164.6,-25.81l-0.4 -7.04 -0.41 -52.6c-58.21,3.34 -145.59,49.65 -163.79,85.45z"/>
   <path class="fil1" d="M355.07 1551.37c54.94,-1.79 129.05,6.96 169.57,33.56 -13.58,-38.68 -109.87,-86.04 -168.01,-92.42l-1.56 58.86z"/>
   <path class="fil2" d="M279.92 1490.48c-17.23,7.72 -1.14,2.21 -13.62,3.09l0.98 71.76c-9.48,39.98 -5.73,250.09 -2.93,301.95 22.59,3.43 38.16,-4.16 63.33,-3.1 19.37,0.81 43.16,6.46 61.59,10.43 -9.82,-11.29 0.49,-6.02 -20.96,-11.85 -5.43,-1.48 -23.78,-4.09 -29.94,-4.7 -26.39,-2.63 -42.67,0.99 -68.34,4.41 -2.47,-49.68 -6.39,-260.92 3.1,-297.95l83.17 -12.86 -1.23 -0.29 1.56 -58.86c58.14,6.38 154.43,53.74 168.01,92.42l8.75 -3.53c-14.47,-41.64 -53.48,-68.72 -68.95,-104.24 -28.48,-8.95 -38.54,-48.55 -107.1,-51.4l-1.35 62.09 -76.07 2.63z"/>
   <path class="fil2" d="M613.13 1500.76l-53.31 87.51c1.49,-0.81 3.8,-3.67 4.5,-2.35 0.64,1.21 3.34,-1.76 4.16,-2.21 1.31,-0.73 8.48,-4.84 9.15,-5.26 18.2,-35.8 105.58,-82.11 163.79,-85.45l0.41 52.6c9.71,5.28 72.66,16.24 89.27,18.89l-0.77 -71.43 -26.38 -2.99 -61.56 -2.59 -1.57 -61.39c-75.04,0.29 -101.61,65.33 -127.69,74.67z"/>
   <path class="fil3" d="M566.7 1948.32c30.52,-11.54 65.89,-46.72 111.11,-65.52 64.42,-26.79 80.54,-18.3 154.17,-19.33l-0.88 -298.98c-16.61,-2.65 -79.56,-13.61 -89.27,-18.89l0.4 7.04 -1.16 244.84c-84.78,11.19 -136.46,87.2 -174.37,150.84z"/>
   <path class="fil3" d="M389.27 1874.61c54.98,3.11 98.69,56.51 139.38,71.13 -16.21,-33.8 -49.16,-74.64 -69.6,-94.85 -34.1,-33.71 -46.94,-38.15 -102.51,-55.57l-0.24 -243.66 -83.17 12.86c-9.49,37.03 -5.57,248.27 -3.1,297.95 25.67,-3.42 41.95,-7.04 68.34,-4.41 6.16,0.61 24.51,3.22 29.94,4.7 21.45,5.83 11.14,0.56 20.96,11.85z"/>
   <path class="fil4" d="M533.39 1581.4c11.26,28.59 6.44,321.51 4.31,374.29 -13.52,-7.35 -6.13,0.88 -9.05,-9.95 -40.69,-14.62 -84.4,-68.02 -139.38,-71.13 -18.43,-3.97 -42.22,-9.62 -61.59,-10.43 -25.17,-1.06 -40.74,6.53 -63.33,3.1 -2.8,-51.86 -6.55,-261.97 2.93,-301.95l-66.7 23.92 -0.54 370.99c24.15,-4.22 47.99,-17.08 75.93,-24.43 146.35,-38.53 238.37,24.68 267.66,25.09 4.47,-74.16 0.95,-206.31 0.99,-290.78l-0.8 -73.53c-7.65,-29.96 -1.58,-9.8 -10.43,-15.19z"/>
   <path class="fil4" d="M566.7 1948.32l0.93 7.94c63.44,-14.32 85.18,-33.62 167.5,-32.29 92.5,1.49 134.94,33.96 162.19,35.21l-0.54 -373.73c-13.94,1.7 -33.48,-11.84 -57.72,-19.02l-7.96 -1.94 0.88 298.98c-73.63,1.03 -89.75,-7.46 -154.17,19.33 -45.22,18.8 -80.59,53.98 -111.11,65.52z"/>
   <path class="fil5" d="M528.65 1945.74c2.92,10.83 -4.47,2.6 9.05,9.95 2.13,-52.78 6.95,-345.7 -4.31,-374.29l-8.75 3.53c-40.52,-26.6 -114.63,-35.35 -169.57,-33.56l1.23 0.29 0.24 243.66c55.57,17.42 68.41,21.86 102.51,55.57 20.44,20.21 53.39,61.05 69.6,94.85z"/>
   <path class="fil5" d="M577.63 1578.45c-0.67,0.42 -7.84,4.53 -9.15,5.26 -0.82,0.45 -3.52,3.42 -4.16,2.21 -0.7,-1.32 -3.01,1.54 -4.5,2.35l-2.9 370.67 10.71 -2.68 -0.93 -7.94c37.91,-63.64 89.59,-139.65 174.37,-150.84l1.16 -244.84c-80.81,-6.94 -101.5,14.77 -164.6,25.81z"/>
   <g>
    <path class="fil6" d="M988.63 1938.1l0 -355.85 176.5 0 0 36.91 -137.23 0 0 114.51 128.24 0 0 35.97 -128.24 0 0 131.08 138.65 0 0 37.38 -177.92 0zm257.68 -34.07l51.51 0c16.64,0 29.49,-1.66 38.72,-5.05 9.15,-3.39 16.33,-8.91 21.53,-16.4 8.36,-12.15 14.36,-27.37 18.06,-45.51 3.71,-18.14 5.52,-43.61 5.52,-76.42 0,-57.42 -5.99,-95.75 -17.98,-114.99 -12.07,-19.25 -34.46,-28.87 -67.27,-28.87l-50.09 0 0 287.24zm-39.74 34.07l0 -355.85 100.71 0c40.38,0 70.11,13.48 89.28,40.46 19.09,26.97 28.63,68.85 28.63,125.71 0,39.99 -3.31,73.03 -9.86,98.98 -6.55,25.95 -16.8,46.53 -30.84,61.83 -9.54,10.49 -20.35,17.91 -32.33,22.32 -12.07,4.34 -29.9,6.55 -53.63,6.55l-91.96 0zm261.4 0l0 -355.85 40.69 0 0 355.85 -40.69 0zm155.95 0l0 -319.42 -90.86 0 0 -36.43 216.74 0 0 36.43 -85.18 0 0 319.42 -40.7 0zm184.19 -177.93c0,57.18 5.44,96.7 16.32,118.62 10.89,21.85 29.74,32.81 56.55,32.81 27.13,0 46.06,-10.65 56.79,-32.02 10.72,-21.37 16.08,-61.12 16.08,-119.41 0,-58.12 -5.36,-97.79 -16.08,-119.09 -10.73,-21.21 -29.66,-31.86 -56.79,-31.86 -26.81,0 -45.66,10.88 -56.55,32.73 -10.88,21.77 -16.32,61.2 -16.32,118.22zm-41.17 0c0,-66.25 8.99,-113.88 26.89,-142.91 17.9,-29.02 47.01,-43.53 87.15,-43.53 40.46,0 69.64,14.35 87.39,43.06 17.74,28.79 26.65,76.5 26.65,143.38 0,66.88 -8.83,114.6 -26.57,143.39 -17.67,28.7 -46.85,43.06 -87.47,43.06 -39.99,0 -69.01,-14.67 -87.07,-43.93 -17.98,-29.26 -26.97,-76.74 -26.97,-142.52zm309.19 -14.67l48.27 0c27.92,0 48.34,-5.36 61.36,-16.09 13.01,-10.64 19.55,-27.36 19.55,-50 0,-21.69 -5.75,-37.54 -17.35,-47.4 -11.51,-9.86 -30.2,-14.75 -55.91,-14.75l-55.92 0 0 128.24zm-38.8 192.6l0 -355.85 99.84 0c36.83,0 64.12,7.49 82.03,22.55 17.9,14.99 26.81,37.94 26.81,68.78 0,23.89 -5.36,42.9 -16.17,57.18 -10.8,14.27 -27.44,24.21 -49.92,29.97 19.72,1.65 34.46,8.04 44.32,19.16 9.86,11.04 15.86,28.23 18.06,51.5 0.71,8.6 1.58,20.59 2.53,35.81 2.44,38.8 8.67,62.46 18.69,70.9l-49.21 0c-4.89,-8.2 -8.05,-27.53 -9.47,-57.97 -0.79,-15.3 -1.5,-27.37 -2.29,-36.28 -2.13,-24.53 -8.51,-41.25 -19.08,-50.32 -10.57,-8.99 -29.42,-13.48 -56.71,-13.48l-50.63 0 0 158.05 -38.8 0zm262.34 0l0 -355.85 40.69 0 0 355.85 -40.69 0zm140.65 -138.65l94.72 0 -47.32 -186.45 -47.4 186.45zm-75.08 138.65l97.01 -355.85 50.63 0 98.43 355.85 -40.23 0 -26.97 -102.69 -112.78 0 -25.87 102.69 -40.22 0zm270.79 0l0 -355.85 39.74 0 0 317.52 141.97 0 0 38.33 -181.71 0z"/>
    <path class="fil7" d="M2883.23 1887.94l30.68 0c22.95,0 39.51,-5.68 49.69,-16.96 10.17,-11.35 15.22,-29.57 15.22,-54.81 0,-14.91 -3.87,-25.63 -11.68,-32.1 -7.72,-6.47 -20.66,-9.7 -38.64,-9.7 -5.6,0 -9.86,0.08 -12.86,0.24 -2.99,0.15 -5.91,0.39 -8.83,0.71l-23.58 112.62zm33.04 -160.89l26.98 0c19.16,0 33.44,-4.97 42.98,-14.99 9.54,-10.01 14.36,-25.16 14.36,-45.27 0,-13.25 -3.08,-22.63 -9.15,-28.07 -6.08,-5.45 -16.41,-8.21 -31.08,-8.21l-23.82 0 -20.27 96.54zm-106.39 211.05l74.3 -355.85 81.23 0c35.65,0 61.12,6.54 76.5,19.56 15.38,13.01 23.03,34.22 23.03,63.64 0,26.03 -5.28,46.77 -15.85,62.31 -10.57,15.46 -25.79,24.92 -45.74,28.31 13.32,4.89 23.42,13.25 30.36,25.08 6.94,11.75 10.41,26.42 10.41,44.01 0,21.37 -3.55,40.3 -10.65,56.71 -7.09,16.4 -17.27,29.1 -30.52,38.25 -9.54,6.47 -21.06,11.04 -34.62,13.8 -13.57,2.76 -37.86,4.18 -72.8,4.18l-85.65 0zm422.15 -314.21c-12.46,0 -22.55,4.49 -30.36,13.41 -7.81,8.91 -14.98,24.92 -21.61,48.03 -10.49,37.3 -19.01,71.61 -25.63,103.16 -6.63,31.47 -9.94,51.5 -9.94,60.17 0,15.86 3.39,27.69 10.25,35.57 6.87,7.81 17.28,11.75 31.08,11.75 14.98,0 26.58,-5.28 34.94,-15.93 8.28,-10.64 16.72,-33.28 25.16,-67.9 8.2,-33.92 14.66,-64.44 19.55,-91.73 4.82,-27.21 7.26,-45.74 7.26,-55.44 0,-13.41 -3.39,-23.58 -10.25,-30.6 -6.86,-7.02 -17.04,-10.49 -30.45,-10.49zm-149.53 226.59c0,-8.76 0.55,-18.46 1.58,-28.95 1.1,-10.57 2.84,-22.16 5.12,-34.78 5.05,-29.89 10.49,-56.47 16.25,-79.73 5.84,-23.27 11.2,-41.02 16.33,-53.32 12.14,-28.08 26.73,-48.42 43.77,-61.04 17.03,-12.62 38.41,-18.93 64.12,-18.93 36.04,0 62.7,7.96 80.05,23.82 17.27,15.85 25.95,40.22 25.95,73.19 0,6.62 -0.24,13.64 -0.79,20.9 -0.55,7.33 -1.34,14.98 -2.45,23.03 -3.55,25.86 -7.88,50.31 -12.93,73.42 -5.05,23.11 -10.41,42.99 -15.93,59.63 -11.83,35.09 -27.05,60.33 -45.67,75.55 -18.53,15.22 -43.06,22.87 -73.5,22.87 -33.44,0 -58.76,-8.12 -76.03,-24.29 -17.27,-16.16 -25.87,-39.9 -25.87,-71.37zm413.16 -226.59c-12.46,0 -22.55,4.49 -30.36,13.41 -7.81,8.91 -14.98,24.92 -21.61,48.03 -10.49,37.3 -19.01,71.61 -25.63,103.16 -6.63,31.47 -9.94,51.5 -9.94,60.17 0,15.86 3.39,27.69 10.25,35.57 6.87,7.81 17.28,11.75 31.08,11.75 14.98,0 26.58,-5.28 34.94,-15.93 8.28,-10.64 16.72,-33.28 25.16,-67.9 8.2,-33.92 14.66,-64.44 19.55,-91.73 4.82,-27.21 7.26,-45.74 7.26,-55.44 0,-13.41 -3.39,-23.58 -10.25,-30.6 -6.86,-7.02 -17.04,-10.49 -30.45,-10.49zm-149.53 226.59c0,-8.76 0.55,-18.46 1.58,-28.95 1.1,-10.57 2.84,-22.16 5.12,-34.78 5.05,-29.89 10.49,-56.47 16.25,-79.73 5.84,-23.27 11.2,-41.02 16.33,-53.32 12.14,-28.08 26.73,-48.42 43.77,-61.04 17.03,-12.62 38.41,-18.93 64.12,-18.93 36.04,0 62.7,7.96 80.05,23.82 17.27,15.85 25.95,40.22 25.95,73.19 0,6.62 -0.24,13.64 -0.79,20.9 -0.55,7.33 -1.34,14.98 -2.45,23.03 -3.55,25.86 -7.88,50.31 -12.93,73.42 -5.05,23.11 -10.41,42.99 -15.93,59.63 -11.83,35.09 -27.05,60.33 -45.67,75.55 -18.53,15.22 -43.06,22.87 -73.5,22.87 -33.44,0 -58.76,-8.12 -76.03,-24.29 -17.27,-16.16 -25.87,-39.9 -25.87,-71.37zm353.93 -121.07l105.53 -147.16 76.74 0 -126.35 167.04 60.49 188.81 -70.9 0 -40.22 -136.76 -27.92 37.39 -20.35 99.37 -65.3 0 74.29 -355.85 64.67 0 -30.68 147.16z"/>
    <polygon class="fil8" points="3857.46,1938.1 3857.46,1874.22 3917.08,1874.22 3917.08,1938.1 "/>
    <path class="fil9" d="M4026.6 1737.93l27.68 0c20.66,0 35.18,-4.02 43.54,-12.14 8.28,-8.05 12.46,-21.85 12.46,-41.41 0,-19.72 -3.79,-33.36 -11.44,-41.01 -7.65,-7.65 -22.16,-11.44 -43.61,-11.44l-28.63 0 0 106zm-63.96 200.17l0 -355.85 115.06 0c35.1,0 60.34,7.88 75.72,23.58 15.38,15.69 23.11,41.4 23.11,77.13 0,35.1 -8.21,61.28 -24.61,78.4 -16.41,17.19 -41.49,25.79 -75.16,25.79l-48.35 0 0 150.95 -65.77 0zm291.62 -142.91l56.39 0 -28.39 -149.22 -28 149.22zm-95.11 142.91l80.13 -355.85 88.88 0 80.84 355.85 -71.37 0 -17.51 -89.44 -76.19 0 -17.11 89.44 -67.67 0zm446.37 0l-4.89 -39.2c-6.71,17.04 -16.01,29.26 -27.85,36.68 -11.75,7.33 -27.91,11.04 -48.58,11.04 -37.3,0 -63.49,-14.12 -78.63,-42.28 -15.22,-28.15 -22.79,-79.89 -22.79,-155.05 0,-35.1 1.81,-63.25 5.44,-84.39 3.63,-21.22 9.31,-37.54 16.96,-49.13 9.22,-14.12 21.53,-24.61 36.75,-31.39 15.22,-6.79 34.23,-10.18 56.86,-10.18 38.17,0 66.33,8.99 84.47,27.05 18.06,18.06 27.13,46.06 27.13,84.16l0 8.99 -61.99 0 0 -3.71c0,-21.22 -3.94,-37.3 -11.91,-48.19 -7.89,-10.8 -19.72,-16.25 -35.41,-16.25 -19.32,0 -32.42,7.42 -39.51,22.17 -7.1,14.82 -10.65,54.02 -10.65,117.59 0,50.24 3.39,83.84 10.17,100.79 6.79,16.96 19.01,25.4 36.68,25.4 17.58,0 30.05,-6 37.54,-18.06 7.49,-11.99 11.2,-32.34 11.2,-61.05l0 -12.22 -45.9 0 0 -56.79 109.78 0 0 194.02 -44.87 0zm88.93 0l0 -355.85 182.73 0 0 59.15 -116.96 0 0 82.34 108.84 0 0 56.31 -108.84 0 0 97.95 119.72 0 0 60.1 -185.49 0z"/>
   </g>
  </g>
 </g>
</svg>
