<?xml version="1.0" encoding="UTF-8"?>
<!DOCTYPE svg PUBLIC "-//W3C//DTD SVG 1.1//EN" "http://www.w3.org/Graphics/SVG/1.1/DTD/svg11.dtd">
<!-- Creator: CorelDRAW 2017 -->
<svg xmlns="http://www.w3.org/2000/svg" xml:space="preserve" width="50.7998mm" height="33.8666mm" version="1.1" style="shape-rendering:geometricPrecision; text-rendering:geometricPrecision; image-rendering:optimizeQuality; fill-rule:evenodd; clip-rule:evenodd"
viewBox="0 0 5079.98 3386.66"
 xmlns:xlink="http://www.w3.org/1999/xlink">
 <defs>
  <style type="text/css">
   <![CDATA[
    .fil0 {fill:none}
    .fil1 {fill:#727376}
    .fil2 {fill:#606062;fill-rule:nonzero}
   ]]>
  </style>
 </defs>
 <g id="Capa_x0020_1">
  <metadata id="CorelCorpID_0Corel-Layer"/>
  <rect class="fil0" x="-0" width="5079.99" height="3386.66"/>
  <g id="_2060681481392">
   <path class="fil1" d="M1151.81 2197.53c0.19,1.26 0.45,2.86 0.5,4.18 0.22,5.56 -0.58,7.87 -2.1,12.72 -7.9,25.22 -63.45,82.91 -126.36,-17.92 -34.89,-55.92 57.36,-138.44 108.63,-37.49 -15.97,17.6 -51.75,36.34 -54.13,58 19.66,8.93 25.17,10.84 38.25,-7.81 15.3,-21.81 -7.73,-20.29 30.57,-23.36l4.64 11.68zm271.86 -1253.68c316.41,-35.21 571.99,212.65 598.15,488.72 30.49,321.88 -204.98,569.3 -488.94,599.51 -313.61,33.36 -569.86,-202.95 -598.98,-487.13 -33.23,-324.24 206.62,-569.58 489.77,-601.1zm-892.36 -47.72c19.57,-7.09 206.29,-7.31 227.69,0.69 63.26,23.64 53.83,115.79 -1.85,134.88 -20.61,7.07 -201.64,8.09 -225.33,0.58 -63.63,-20.18 -68.04,-111.67 -0.51,-136.15zm524.99 1399.03l1392.92 1.42c3.93,-50.9 -112.19,-363.66 -94.43,-380.35l388.25 -107.85 0.38 -277.56 -338.51 -187.04 159.3 -294.61c27.83,-46.37 3.94,-93.15 -13.46,-181.44 -12.45,-63.2 -23.79,-123.55 -37.3,-186.14l-620.87 -1.62c-36.11,-116.85 -129.67,-279.39 -245.31,-313.84 -51.22,-15.26 -112.01,-19.43 -168.81,-18.81 -56.39,0.62 -117.11,6.41 -167.61,20.16 -109.49,29.82 -179.36,141.03 -222.85,242.02 -9.33,21.67 -14.11,50.32 -26.33,70.19l-411.44 0.29c-160.93,-0.17 -228.53,-8.4 -333.57,77.5 -94.72,77.46 -105.03,186.12 -105,306.68l0.06 827.82c-0.03,151.79 11.56,239.73 97.99,318.99 93.68,85.91 169.27,85.25 324.49,85.26 138.57,0 285.36,-6.08 422.1,-1.07zm90.87 -109.31c-38.3,3.07 -15.27,1.55 -30.57,23.36 -13.08,18.65 -18.59,16.74 -38.25,7.81 2.38,-21.66 38.16,-40.4 54.13,-58 -51.27,-100.95 -143.52,-18.43 -108.63,37.49 62.91,100.83 118.46,43.14 126.36,17.92 1.52,-4.85 2.32,-7.16 2.1,-12.72 -0.05,-1.32 -0.31,-2.92 -0.5,-4.18l-4.64 -11.68z"/>
   <path class="fil1" d="M1408.77 1056.72c-467.01,80.83 -488.75,721.53 -60.08,846.16 61.87,17.99 122.59,28.78 194.68,17.19 392.82,-63.19 494.36,-553.13 206.35,-774.52 -79.96,-61.47 -203.91,-112.54 -340.95,-88.83z"/>
   <path class="fil1" d="M2798.86 2252.74l141.74 -41.65 -96.4 -348.19c-6.44,-19.14 -78.33,10.15 -96.57,15.23 -62.79,17.45 -273.79,72.74 -304.48,88.62l97.69 353.04c48.11,1.61 196.79,-56.73 258.02,-67.05z"/>
   <path class="fil1" d="M2505.08 1332.25c53.15,28.3 112.57,61.47 167.58,92.24l168.38 91.28c14.7,-16.77 161.2,-284.14 166.2,-303.26 -61.26,-26.38 -305.79,-175.17 -337.19,-180.66l-164.97 300.4z"/>
   <path class="fil1" d="M2626.78 594.17c0.85,31.91 50.41,282.06 61.3,309.77 1.48,0.69 3.81,-0.35 4.69,1.43 4.46,9 184.74,-26.23 191.03,-27.29l182.59 -32.97c10.28,-5.5 2.37,0.44 10.16,-8.03l-63.4 -307.77c-24,-1.92 -366.89,55.75 -386.37,64.86z"/>
   <path class="fil1" d="M3114.74 986.09l292.06 113.66c17.66,-23.08 93.04,-222.06 105.41,-259.9 -13.66,-10.76 -264.4,-109.88 -293.54,-117.17l-103.93 263.41z"/>
   <path class="fil1" d="M3090.95 1858.02c15.18,23.06 180.24,191.35 198.94,203.46l222.34 -218.78 -146.8 -149.2c-24.68,-18.42 -24.61,-31.03 -47.86,-51.93 -24.22,9.55 -61.41,62.33 -80.72,79.89 -11.65,10.58 -21.64,13.95 -32.83,26.05 -9.74,10.54 -14.35,21.41 -23.68,29.95 -8.49,7.76 -21.8,19.63 -30.12,28.62l-59.27 51.94z"/>
   <path class="fil1" d="M3040.32 1400.77l61.07 218.55c42.42,-2.72 198.89,-53.84 242.99,-69.15 -9.76,-46.34 -39.59,-175.35 -59.83,-215.96l-244.23 66.56z"/>
   <path class="fil1" d="M3638.15 2059.52l228.55 49.4c11.85,-20.28 20.84,-77.1 25.59,-100.82 6.92,-34.49 17.68,-73.07 20.64,-108.88l-232.1 -47.06 -42.68 207.36z"/>
   <path class="fil1" d="M3635.32 1101.55c5.99,10.65 140.38,136.4 156.85,143.14l128.61 -145.83c-13.53,-12.24 -148,-129.61 -160.67,-134.94 -26.51,24.73 -36.29,40.7 -61.43,65.59l-63.36 72.04z"/>
   <path class="fil1" d="M3888.68 1496.76l29.33 172.81 196.13 -33.7 -31.15 -173.5c-18.7,-1.99 -173.91,26.73 -194.31,34.39z"/>
   <path class="fil1" d="M4158.37 823.83l35.34 128.42c20.37,9.37 48.25,-3.73 77.66,-12.11 27.11,-7.72 53,-15.22 79.62,-22.87 -0.99,-16.06 -30.18,-123.08 -40.5,-138.44 -25.18,4.09 -138.16,34.68 -152.12,45z"/>
   <path class="fil1" d="M4159.63 1331.2c8.92,13.21 92.28,88.45 109.13,96.32 21.53,-28.33 64.88,-66.58 81.09,-96.32 -15.78,-21.35 -82.61,-73.25 -102.16,-94.85 -11.62,6.11 -36.14,32.22 -46.38,44.41 -14.21,16.92 -29.77,30.14 -41.68,50.44z"/>
   <path class="fil1" d="M4588.16 1361.23l58.12 98.4c27.17,-5.85 85.59,-50.19 113.19,-63.45l-58.73 -100.74 -112.58 65.79z"/>
   <path class="fil2" d="M519.92 2472.11c-14.89,0 -17.38,0 -24.2,11.79 -26.07,46.55 -140.28,332.07 -140.28,387.93 0,29.8 32.28,40.97 58.96,40.97l32.9 0c6.83,0 12.41,-3.73 14.28,-9.93l20.48 -85.66 108 0c6.83,59.59 13.65,95.59 85.03,95.59l31.66 0c11.17,0 16.76,-3.1 16.76,-14.9 0,-20.48 -16.76,-89.38 -83.17,-356.89 -8.7,-35.38 -19.87,-68.9 -61.45,-68.9l-58.97 0zm29.79 91.24l26.07 163.86 -71.38 0 45.31 -163.86zm397.86 258.83c-52.75,0 -77.58,-29.18 -77.58,-105.52 0,-47.17 9.31,-155.79 87.52,-155.79 37.24,0 37.24,24.82 38.48,81.93 0,8.69 2.48,11.17 20.48,11.17 56.48,0 89.38,-23.59 89.38,-76.35 0,-61.44 -44.69,-111.72 -142.76,-111.72 -182.48,0 -209.17,174.42 -209.17,256.97 0,152.69 90.62,196.14 175.66,196.14 85.03,0 129.1,-43.45 135.93,-71.38 5.58,-22.97 9.31,-42.21 9.31,-55.25 0,-11.79 -3.11,-18.62 -12.42,-18.62 -26.07,0 -46.55,48.42 -114.83,48.42l0 0zm518.9 90.62c7.45,0 9.31,-2.49 9.93,-9.31 1.86,-19.25 25.45,-350.07 25.45,-367.45 0,-42.21 -13.03,-63.93 -63.93,-63.93l-34.14 0c-6.83,0 -9.93,2.48 -9.93,9.31 0,19.24 -5.59,88.76 -11.17,162l-111.11 0c3.73,-55.86 6.83,-101.17 6.83,-107.38 0,-42.21 -13.03,-63.93 -63.93,-63.93l-34.14 0c-6.83,0 -9.93,2.48 -9.93,9.31 0,42.2 -26.07,328.34 -26.07,378.62 0,33.51 18.62,52.76 64.56,52.76l34.13 0c7.45,0 9.31,-2.49 9.93,-9.31l12.42 -170.07 110.48 0c-4.34,57.72 -8.07,108.62 -8.07,126.62 0,33.51 18.62,52.76 64.55,52.76l34.14 0zm282.41 -90.62c-52.76,0 -77.58,-29.18 -77.58,-105.52 0,-47.17 9.31,-155.79 87.51,-155.79 37.24,0 37.24,24.82 38.49,81.93 0,8.69 2.48,11.17 20.48,11.17 56.48,0 89.38,-23.59 89.38,-76.35 0,-61.44 -44.69,-111.72 -142.76,-111.72 -182.48,0 -209.17,174.42 -209.17,256.97 0,152.69 90.62,196.14 175.65,196.14 85.04,0 129.1,-43.45 135.93,-71.38 5.59,-22.97 9.31,-42.21 9.31,-55.25 0,-11.79 -3.1,-18.62 -12.41,-18.62 -26.07,0 -46.55,48.42 -114.83,48.42l0 0zm447.81 -110.49l17.21 -19.37 25.66 0 30.54 -153.93c-33.11,0 -60.01,8.94 -80.61,26.73 -20.61,17.8 -30.87,41.05 -30.87,69.69l0.25 5.29 -47.26 22.76c4.22,-49.66 23.51,-86.07 57.77,-109.16 34.34,-23.09 86.15,-34.67 155.5,-34.67l139.78 0 -21.84 68.94 -15.48 0c2.07,-6.54 3.14,-13 3.14,-19.29 0,-21.18 -33.02,-31.78 -99.06,-31.78l-10.43 0 -30.78 155.42 105.6 0 -23.92 24.75c-25.9,-3.56 -50.4,-5.38 -73.65,-5.38l-11.92 0 -14.07 71.09c-11.75,59.84 -34.59,107.67 -68.44,143.42 -33.85,35.76 -73.25,53.63 -118.1,53.63 -24.25,0 -45.93,-9.1 -64.97,-27.31l35.59 -35.75c12.83,26.15 33.35,39.23 61.57,39.23 25.82,0 46.18,-11.67 60.91,-35.1 14.82,-23.42 28.14,-64.79 39.89,-124.22l16.97 -84.99 -38.98 0zm327.31 172.31c-21.18,0 -38.81,-8.28 -52.96,-24.83 -14.15,-16.47 -21.19,-37.08 -21.19,-61.82 0,-46.43 17.63,-89.39 52.8,-128.78 35.26,-39.47 73.66,-59.17 115.2,-59.17 22.43,0 40.97,8.03 55.45,24.16 14.57,16.14 21.85,36.75 21.85,61.74 0,48.17 -17.63,91.7 -52.8,130.51 -35.26,38.82 -74.73,58.19 -118.35,58.19zm27.65 -20.86c23.91,0 44.93,-15.39 63.14,-46.1 18.12,-30.78 27.23,-66.45 27.23,-107.17 0,-53.38 -16.31,-80.11 -48.91,-80.11 -23.09,0 -43.87,15.89 -62.4,47.58 -18.46,31.7 -27.73,67.46 -27.73,107.09 0,52.47 16.23,78.71 48.67,78.71zm249.02 -230.4l-55.62 0 16.72 -17.88 42.37 0 13.41 -69.02 50.15 -11.92 -14.89 80.94 90.37 0 -19.86 21.27c-20.53,-2.23 -38.74,-3.39 -54.62,-3.39l-19.37 0 -33.52 165.76c-3.47,17.14 -5.21,29.13 -5.21,36.09 0,12.74 5.62,19.12 16.96,19.12 17.47,0 41.22,-12.91 71.42,-38.74l-4.46 22.35c-31.37,31.12 -61.49,46.68 -90.38,46.68 -27.47,0 -41.21,-15.15 -41.21,-45.52 0,-10.85 1.74,-25.24 5.29,-43.2l32.45 -162.54zm238.76 251.26c-21.19,0 -38.82,-8.28 -52.97,-24.83 -14.15,-16.47 -21.18,-37.08 -21.18,-61.82 0,-46.43 17.62,-89.39 52.8,-128.78 35.25,-39.47 73.65,-59.17 115.2,-59.17 22.42,0 40.96,8.03 55.45,24.16 14.56,16.14 21.85,36.75 21.85,61.74 0,48.17 -17.63,91.7 -52.8,130.51 -35.26,38.82 -74.74,58.19 -118.35,58.19zm27.64 -20.86c23.92,0 44.94,-15.39 63.15,-46.1 18.12,-30.78 27.22,-66.45 27.22,-107.17 0,-53.38 -16.3,-80.11 -48.91,-80.11 -23.09,0 -43.86,15.89 -62.4,47.58 -18.45,31.7 -27.72,67.46 -27.72,107.09 0,52.47 16.22,78.71 48.66,78.71zm214.51 10.92c-19.36,-9.68 -29.05,-29.13 -29.05,-58.42 0,-47.75 19.37,-94.02 58.18,-138.54 37.66,-43.45 84.42,-65.22 140.36,-65.22 10.68,0 33.19,1 67.62,2.9l-17.38 71.75 -11.42 56.2c-5.88,29.62 -9.85,51.39 -12,65.46 -8.86,57.35 -17.8,97.16 -26.73,119.34 -9.02,22.26 -24.91,44.03 -47.67,65.38 -33.44,31.03 -71.92,46.51 -115.54,46.51 -28.47,0 -51.56,-5.55 -69.35,-16.64 -17.79,-11 -26.64,-25.49 -26.64,-43.28 0,-35.51 29.87,-70.68 89.62,-105.44zm179.01 -224.02c-19.37,-9.52 -38.65,-14.32 -57.85,-14.32 -21.52,0 -39.72,9.6 -54.54,28.88 -11.75,15.14 -22.51,37.57 -32.11,67.28 -9.6,29.63 -14.4,54.96 -14.4,75.98 0,22.75 7.2,34.18 21.52,34.18 31.86,0 74.07,-45.93 126.71,-137.96l10.67 -54.04zm-19.12 96.25l-3.89 0c-17.13,37.98 -37.65,68.52 -61.57,91.61 -23.83,23.17 -48.99,36.74 -75.31,40.8 -42.71,29.21 -64.06,56.36 -64.06,81.43 0,16.14 7.87,29.96 23.67,41.3 15.81,11.42 35.01,17.13 57.52,17.13 28.97,0 51.81,-11.25 68.61,-33.85 16.8,-22.51 28.71,-58.09 35.83,-106.76l19.2 -131.66zm137.63 134.73l17.88 -74.57 23.5 -118.43c2.4,-11.92 3.65,-22.26 3.65,-30.95 0,-13.91 -4.81,-20.86 -14.49,-20.86 -17.13,0 -41.63,18.29 -73.41,54.87l4.39 -21.6c37.32,-40.38 69.77,-60.58 97.24,-60.58 23.26,0 34.93,13.33 34.93,40.06 0,11.75 -1.49,24.91 -4.39,39.31l-11.67 58.43 3.15 0c19.28,-40.39 42.04,-73.33 68.27,-98.9 26.32,-25.57 50.4,-38.4 72.25,-38.4 11.26,0 21.44,2.48 30.29,7.45l-32.27 43.7c-9.52,-6.29 -17.63,-9.44 -24.25,-9.44 -31.54,0 -73.58,46.26 -125.97,138.71l-17.79 88.3 -51.31 2.9zm449.71 -134.65l-4.46 0c-18.21,40.55 -40.22,73.57 -65.88,99.23 -25.65,25.57 -49.74,38.4 -72.17,38.4 -34.09,0 -51.14,-21.36 -51.14,-63.98 0,-47.01 18.79,-93.02 56.36,-138.12 38.81,-46.68 86.23,-70.02 142.26,-70.02 23.09,0 47.34,1 72.58,2.9l-17.54 71.67 -23.59 119.67c-3.73,18.7 -5.63,30.78 -5.63,36.33 0,10.18 4.8,15.23 14.4,15.23 16.22,0 40.39,-17.71 72.5,-53.13l-4.39 22.34c-35.58,38.07 -67.53,57.11 -95.83,57.11 -23.59,0 -35.34,-12.17 -35.34,-36.58 0,-8.11 1.99,-21.85 5.88,-41.22l11.99 -59.83zm19.54 -97.08c-20.36,-9.02 -40.47,-13.57 -60.42,-13.57 -29.38,0 -52.96,18.62 -70.59,55.78 -20.69,44.03 -31.04,83.58 -31.04,118.67 0,25.41 7.45,38.07 22.35,38.07 13.82,0 33.85,-14.56 60,-43.78 26.07,-29.21 48.99,-62.56 68.69,-100.05l11.01 -55.12zm-29.22 386.98l34.68 -36.08c15.56,6.29 31.45,9.43 47.58,9.43 23.18,0 41.05,-7.86 53.55,-23.5 12.58,-15.64 21.93,-41.63 28.06,-77.8l46.76 -275.58 -54.63 0 16.97 -17.88 41.3 0 0.74 -3.15c9.19,-46.84 30.46,-84.9 63.73,-114.28 33.27,-29.3 71.83,-43.95 115.78,-43.95 14.06,0 27.06,1.41 38.97,4.14l-34.67 36.74c-15.06,-9.35 -30.54,-14.07 -46.43,-14.07 -24.25,0 -42.29,7.12 -54.12,21.44 -11.84,14.32 -21.52,40.55 -29.14,78.7l-7.03 34.43 90.87 0 -19.69 21.52c-20.53,-2.4 -41.22,-3.64 -61.91,-3.64l-12.66 0 -35.26 208.39c-10.67,63.39 -31.94,112.22 -63.8,146.64 -31.87,34.43 -71.84,51.65 -119.84,51.65 -12.66,0 -25.9,-1.08 -39.81,-3.15zm521.22 -231.81l-4.3 22.52c-35.42,37.98 -67.2,57.02 -95.34,57.02 -23.26,0 -34.93,-12.17 -34.93,-36.5 0,-8.28 1.91,-21.85 5.63,-40.72l16.97 -84.17c4.63,-23.92 6.87,-39.8 6.87,-47.66 0,-13.58 -5.3,-20.36 -15.89,-20.36 -7.37,0 -20.44,2.81 -39.4,8.44l2.9 -14.98 119.01 -38.65 -18.29 77.38 -23.59 119.42c-3.72,18.7 -5.54,30.62 -5.54,35.75 0,10.51 4.71,15.73 14.23,15.73 15.81,0 39.73,-17.71 71.67,-53.22zm-85.9 -237.27l7.77 -21.85c21.6,-18.29 53.14,-39.97 94.52,-65.05l-15.73 38.82c-40.47,20.28 -69.27,36.25 -86.56,48.08zm296.19 179.18l-4.47 0c-18.21,40.55 -40.22,73.57 -65.87,99.23 -25.66,25.57 -49.74,38.4 -72.17,38.4 -34.1,0 -51.15,-21.36 -51.15,-63.98 0,-47.01 18.79,-93.02 56.36,-138.12 38.82,-46.68 86.24,-70.02 142.27,-70.02 23.09,0 47.34,1 72.58,2.9l-17.55 71.67 -23.58 119.67c-3.73,18.7 -5.63,30.78 -5.63,36.33 0,10.18 4.8,15.23 14.4,15.23 16.22,0 40.39,-17.71 72.5,-53.13l-4.39 22.34c-35.59,38.07 -67.53,57.11 -95.84,57.11 -23.58,0 -35.33,-12.17 -35.33,-36.58 0,-8.11 1.98,-21.85 5.87,-41.22l12 -59.83zm19.53 -97.08c-20.36,-9.02 -40.47,-13.57 -60.41,-13.57 -29.38,0 -52.97,18.62 -70.6,55.78 -20.68,44.03 -31.03,83.58 -31.03,118.67 0,25.41 7.45,38.07 22.35,38.07 13.82,0 33.84,-14.56 59.99,-43.78 26.08,-29.21 49,-62.56 68.7,-100.05l11 -55.12z"/>
  </g>
 </g>
</svg>
