<?xml version="1.0" encoding="UTF-8"?>
<!DOCTYPE svg PUBLIC "-//W3C//DTD SVG 1.1//EN" "http://www.w3.org/Graphics/SVG/1.1/DTD/svg11.dtd">
<!-- Creator: CorelDRAW 2017 -->
<svg xmlns="http://www.w3.org/2000/svg" xml:space="preserve" width="50.7998mm" height="33.8666mm" version="1.1" style="shape-rendering:geometricPrecision; text-rendering:geometricPrecision; image-rendering:optimizeQuality; fill-rule:evenodd; clip-rule:evenodd"
viewBox="0 0 5079.98 3386.66"
 xmlns:xlink="http://www.w3.org/1999/xlink">
 <defs>
  <style type="text/css">
   <![CDATA[
    .fil0 {fill:none}
    .fil5 {fill:#373435}
    .fil3 {fill:#202020}
    .fil2 {fill:#212121}
    .fil1 {fill:#222222}
    .fil4 {fill:#606062;fill-rule:nonzero}
    .fil6 {fill:#373435;fill-rule:nonzero}
   ]]>
  </style>
 </defs>
 <g id="Capa_x0020_1">
  <metadata id="CorelCorpID_0Corel-Layer"/>
  <rect class="fil0" x="-0" width="5079.99" height="3386.66"/>
  <rect class="fil0" x="-0" width="5079.99" height="3386.66"/>
  <g id="_2450570824304">
   <path class="fil1" d="M1079.04 982.4c53.05,40.96 142.13,221.39 187.24,302.58 30.01,54 56.31,90.39 94.26,51.96 54.99,-55.7 -237.32,-433.45 -294.97,-593l709.8 0.02c90.83,1.05 155.49,13.76 129.84,-82.09l-72.97 -8.15c-152.67,-0.32 -798.07,-17.12 -885.54,12.41 -25.89,100.59 119.06,215.15 132.34,316.27z"/>
   <path class="fil2" d="M3773.45 743.89c-55.69,150 -352.22,541.49 -295.71,595.49 69.9,33.47 98.01,-63.26 130.55,-119.9l204.75 -354.38c31.24,-56.47 95.83,-131.16 78.73,-197.68 -77.52,-32.09 -825.8,-13.63 -970,-13.62 -119.75,0 -121.47,87.77 -1.23,90.9l852.91 -0.81z"/>
   <path class="fil3" d="M1812.43 2208.9l63.09 144.71c32.67,21.45 361.77,613.32 430.5,730.44 74.68,127.26 89.5,197.11 165.38,112.39l15.06 -20.37 488.07 -844.89c9.69,-27.73 29.55,-57.98 32.63,-69.73 9.06,-34.64 5.7,-8.57 2.73,-34.7 -3.97,-35.12 0.62,-14.44 -15.15,-34.26 -70.51,-21.55 -127.78,129.19 -160.5,188.24l-414.26 705.87c-45.64,-40.64 -239.99,-397.73 -289.75,-486.22 -48.76,-86.73 -94.66,-161.51 -141.82,-245.27 -46.21,-82.05 -80.1,-212.07 -175.98,-146.21z"/>
   <path class="fil1" d="M2903.53 1048.32c-29.87,-128.19 175.86,-98.96 197.37,4.01 26.28,125.78 -176.72,84.65 -197.37,-4.01zm-984.51 18.52c-69.25,105.16 -233.43,78.1 -181.59,-33.36 52.48,-112.82 254.5,-77.37 181.59,33.36zm508.04 -358.6c15.04,33.44 -1.35,9.94 -7.67,19.98 -27.41,-12.86 -23.8,-6.51 -9.26,-31.54 20.72,7.93 8.18,-7.89 16.93,11.56zm-27.9 -41.57c-38.16,17.69 -46.57,0.05 -75.74,-22.06l-339.61 -243.88c-30.65,-21.83 -111.6,-71.79 -132.71,-105.84 36.09,12.07 236.15,152.17 284.4,185.33 47.67,32.76 86.82,59.9 137.04,94.39 37.85,25.99 104.94,61.34 126.62,92.06zm-649.5 301.95c-16.49,40.43 -48.67,47.56 -52.59,99.02 -7.88,103.27 114.5,111.36 190.35,69.18 57.84,-32.16 39.78,-32.65 73.09,-86.27 8.17,-51.37 -6.6,-36.13 31.53,-59.22l172.75 -95.6c37.93,-20.72 75.64,-50.76 124.67,-53.98 109.34,-7.16 53.04,2.99 128.09,-39.22 54.12,37.64 29.68,36.39 113.04,38.93 65.55,2.01 262.72,116.65 313.99,152.47 36.59,25.57 16.69,12.69 28.34,54.88 14.67,53.11 57.37,92.4 114.91,107.7 80.12,21.3 111.37,-17.19 129.05,-21.16 38.41,-8.62 45.9,17.07 120.88,-9.45 -2.19,-1.71 -5.52,-2.82 -7.58,-3.49 -2.07,-0.67 -5.18,-2.35 -7.79,-3.06 -2.65,-0.73 -5.17,-1.65 -8.18,-2.3 -3.1,-0.68 -5.35,-0.87 -8.64,-1.41 -36.02,-5.96 -55.91,9.84 -70.85,-40.96 -39.64,-134.76 -126.55,-166.63 -252.36,-109.17l-359.58 -239.52c27.99,-39.8 591.25,-443.62 643.82,-572.91l-540.64 361.04c-46.99,31.91 -135.95,98.53 -184.7,118.58l23.05 48.75c-39.59,-13.94 -164.28,-105.04 -204.35,-131.22 -65.6,-42.84 -128.31,-87.98 -193.14,-130.92l-390.01 -258.05c32.8,83.03 388.6,368.68 493.14,451.31l173.86 136.16c-54.71,-21.39 -61.34,-3.93 -105.78,25.5l-278.44 191.55c-38.81,-9.26 -61.63,-34.41 -113.66,-29.24 -45.4,4.5 -63.15,26.06 -96.27,32.08z"/>
   <g>
    <path class="fil4" d="M1142.05 1881.81c0.54,2.66 1.46,4.53 2.8,5.45 1.19,1.06 2.38,2.4 3.45,3.99 1.06,0.93 1.72,2.4 1.98,4.26 0.28,1.86 0.54,3.18 1.08,4.25 3.18,4.12 4.91,6.64 5.44,7.44 0.53,0.8 1.33,1.59 2.39,2.65 4.66,8.38 7.57,13.29 8.51,14.89l4.78 8.51c2,5.71 3.85,9.57 5.45,11.69 2.53,6.25 4.12,9.3 4.65,9.3 3.6,3.72 5.46,5.86 5.46,6.65 0,0.8 0.52,1.46 1.46,2 1.59,0.92 2.92,2.38 3.99,4.24 1.06,1.87 1.98,3.2 3.06,4.26 3.18,3.19 4.91,5.19 5.43,6.25 0.54,1.06 1.08,2.39 1.6,3.85 4.12,5.72 6.91,9.57 8.11,11.29 1.34,1.88 2.52,3.6 3.6,5.06 3.58,4.25 5.43,6.51 5.43,7.05 3.6,3.05 6.12,5.05 7.31,5.85 1.34,0.78 2.54,1.72 3.6,2.78 1.6,5.19 2.79,8.25 3.85,9.31 2.66,2.52 4.52,4.91 5.86,7.05 1.32,1.98 2.78,4.11 4.24,6.11 1.59,2.12 3.19,3.98 4.65,5.44 1.6,1.59 2.93,3.73 3.99,6.25 0.53,2.66 0.66,5.18 0.4,7.83 -0.26,2.54 -0.66,5.19 -1.2,7.85 -4.65,3.59 -7.31,5.58 -7.84,6.11 -6.24,2.12 -9.3,3.2 -9.3,3.2 -7.31,1.6 -11.96,2.12 -13.96,1.86 -2.12,-0.14 -4.25,0 -6.24,0.4 -2.67,0 -5.05,0 -7.45,0 -2.39,0 -4.25,0.26 -5.85,0.79 -5.17,-0.53 -8.51,-0.67 -10.09,-0.39 -1.6,0.26 -3.45,0.39 -5.45,0.39 -9.31,-1.45 -15.55,-2.13 -18.74,-1.85 -3.06,0.26 -6.91,0.4 -11.7,0.4 -5.72,0.38 -8.5,0.78 -8.5,1.06 0,0.26 -0.54,0.39 -1.6,0.39 -1.99,-0.53 -3.85,-0.67 -5.45,-0.39 -1.6,0.26 -2.79,0.39 -3.85,0.39 -8.37,-0.53 -14.75,-0.53 -19.54,0l-11.69 0c-4.12,-1.07 -7.17,-1.45 -9.31,-1.45 -2.52,-0.54 -5.05,-0.68 -7.31,-0.4 -2.4,0.26 -4.91,0.12 -7.43,-0.4 -4.66,-2.66 -8.11,-4 -10.11,-4 -2.66,-4.11 -5.45,-7.83 -8.63,-11.29 -3.06,-3.33 -5.72,-7.58 -7.71,-12.76 -3.74,-2.13 -5.99,-5.98 -7.05,-11.7 -1.06,-3.18 -2.26,-6.12 -3.46,-9.04 -1.32,-2.79 -2.52,-5.97 -3.58,-9.7 -1.6,-5.72 -2.53,-9.03 -3.06,-10.09 -1.59,-2.54 -2.39,-4.4 -2.39,-5.46 0,-1.06 -0.26,-2.12 -0.8,-3.05 -0.94,-1.6 -1.6,-3.06 -1.86,-4.38 -0.27,-1.2 -0.94,-2.93 -2,-5.05 -1.06,-3.06 -1.85,-5.2 -2.39,-6.26 -0.52,-0.93 -1.2,-1.99 -2.26,-3.05 -2.12,-3.6 -3.46,-5.72 -3.85,-6.25 -0.53,-0.53 -1.06,-1.33 -1.6,-2.26 -2.12,-4.26 -3.46,-7.04 -3.86,-8.63 -2.65,-5.2 -4.24,-7.98 -4.77,-8.51 -2,-3.72 -3.32,-6.65 -3.86,-9.04 -0.54,-2.25 -1.86,-3.99 -3.85,-5.05 -0.54,-2.53 -2.4,-5.97 -5.46,-10.1 -2.12,-4.66 -3.71,-7.58 -4.65,-8.51 -1.06,-1.06 -2.66,-1.33 -4.78,-0.79 -0.93,-4.25 -3.06,-5.45 -6.11,-3.99 -3.2,1.6 -3.99,4.51 -2.4,8.63 -1.06,2.53 -1.32,5.59 -0.8,8.91 0.54,3.46 0.8,6.65 0.8,9.71 -0.52,3.18 -0.92,6.37 -1.2,9.83 -0.26,3.32 -0.66,6.51 -1.19,9.7l0 10.9 -1.46 13.96c0,4.77 -0.26,7.83 -0.8,9.43 -0.52,1.6 -0.52,3.59 0,6.25 0.54,6.11 0.8,9.29 0.8,9.29l1.46 14.76c0.53,1.6 1.07,3.2 1.59,4.66 0.54,1.59 0.8,2.92 0.8,3.98 0.54,2.53 1.06,5.05 1.6,7.31 0.54,2.39 0.26,4.91 -0.8,7.45 -2.12,3.58 -3.19,5.71 -3.19,6.23 0,0.54 -0.26,1.08 -0.66,1.6 -4.26,5.19 -6.24,7.45 -6.24,6.91 0,-0.4 -0.28,-0.66 -0.8,-0.66 -4.65,1.46 -7.31,2.66 -7.85,3.46 -0.52,0.8 -1.32,1.46 -2.26,1.99 -4.25,1.46 -7.17,2.12 -9.03,1.86 -1.73,-0.26 -3.99,-0.4 -6.65,-0.4 -7.17,0 -11.96,-0.26 -14.35,-0.8 -2.27,-0.53 -4.79,-0.26 -7.44,0.8 -4.12,-1.06 -8.24,-1.33 -12.37,-0.8 -4.25,0.54 -8.63,1.06 -13.29,1.6 -5.17,0.52 -10.23,0.66 -15.14,0.4 -4.93,-0.28 -9.57,0.12 -13.7,1.2 -5.71,1.6 -8.5,2.12 -8.5,1.86 0,-0.14 -0.27,-0.26 -0.79,-0.26 -4.13,0.92 -6.65,1.32 -7.45,1.06 -0.8,-0.28 -1.6,-0.14 -2.66,0.39 -4.12,0.53 -7.04,0.8 -8.63,0.8 -1.48,0 -2.8,0 -3.86,0 -4.65,0.53 -8.77,0.93 -12.5,1.19 -3.58,0.27 -6.24,0.4 -7.7,0.4 -5.72,-2.12 -8.91,-3.06 -9.44,-2.78 -0.53,0.26 -0.92,-0.14 -1.46,-1.06 -2.66,-0.54 -4.66,-1.34 -5.85,-2.4 -1.32,-1.06 -3.32,-2.13 -5.84,-3.06l-4.65 -7.85c-3.74,-3.57 -5.46,-5.97 -5.46,-7.03 0,-1.07 -0.53,-2 -1.59,-3.06 -0.53,-2.13 -0.93,-3.85 -1.2,-5.05 -0.26,-1.34 -0.66,-2.8 -1.2,-4.39 -0.52,-3.06 -0.8,-5.32 -0.8,-6.52 0,-1.32 0,-2.51 0,-3.58 -0.38,-1.45 -0.66,-3.73 -0.66,-6.65 0,-2.79 0,-4.77 0,-5.71 0,-2.12 0.14,-3.85 0.28,-5.18 0.26,-1.19 0.38,-2.67 0.38,-4.25 0,-1.07 0,-2.4 0,-4.26 0,-1.85 0.28,-3.19 0.8,-4.25 2.13,-6.25 3.19,-9.83 3.19,-10.9 0,-1.06 0.27,-2.39 0.8,-3.98 0,-0.94 0,-2.8 0,-5.46 0,-2.52 0.26,-4.65 0.66,-6.11 1.06,-5.18 1.46,-8.63 1.2,-10.23 -0.26,-1.46 -0.14,-2.79 0.4,-3.85 0.54,-3.06 0.94,-5.86 1.2,-8.11 0.26,-2.4 0.93,-4.12 2,-5.18 -1.07,-2.53 -1.46,-5.45 -1.2,-8.51 0.26,-3.06 0.4,-5.99 0.4,-8.51 0,-5.71 0.12,-11.17 0.4,-16.34 0.26,-5.32 0.4,-9.97 0.4,-14.09 0,-3.59 0,-6.51 0,-8.51 0,-2.13 0.12,-4.25 0.39,-6.25 0.13,-2.12 0.27,-4.25 0.27,-6.25 0.53,-3.58 0.66,-7.03 0.4,-10.09 -0.27,-3.2 -0.14,-6.78 0.39,-10.91 0,-2.65 0.54,-5.03 1.6,-7.43 1.06,-2.4 1.6,-4.79 1.6,-7.45l-0.8 -24.85 0 -16.35 0 -10.9 0 -12.49 0 -12.49c-1.07,-3.05 -1.47,-5.85 -1.2,-8.11 0.26,-2.39 -0.14,-4.39 -1.2,-5.85 1.6,-2.65 2,-5.17 1.2,-7.83 -0.8,-2.54 -1.2,-5.19 -1.2,-7.71l0 -19.54c-0.53,-4.12 -0.79,-7.05 -0.79,-8.51 -1.46,-4.25 -2.12,-6.51 -1.86,-7.05 0.26,-0.52 0.4,-1.06 0.4,-1.58 0,-5.72 0,-8.77 0,-9.31l-0.8 -9.31c0,-2.65 0.14,-5.05 0.4,-7.43 0.26,-2.4 0.4,-5.05 0.4,-8.25 0.52,-4.12 0.52,-6.37 0,-6.91 -0.54,-0.52 -0.8,-1.32 -0.8,-2.38 0.53,-6.79 0.66,-11.05 0.4,-12.9 -0.26,-1.73 -0.4,-3.46 -0.4,-5.06 0,-1.46 0.14,-3.58 0.4,-6.23 0.26,-2.54 0.13,-5.2 -0.4,-7.71 0.53,-3.72 0.4,-7.05 -0.4,-10.11 -0.8,-3.18 -1.74,-6.24 -2.8,-9.43 0,-3.6 -0.26,-5.85 -0.66,-6.51 -0.53,-0.8 -0.8,-1.46 -0.8,-2 -1.06,-3.18 -1.59,-6.11 -1.59,-8.91 0,-2.92 0,-6.64 0,-11.29 0,-2.12 0,-4.52 0,-7.05 0,-2.66 -0.53,-4.64 -1.6,-6.24 0.54,-1.59 0.54,-3.05 0,-4.65 -0.52,-1.6 -0.52,-2.92 0,-3.86 0,-1.59 0.14,-3.19 0.4,-4.79 0.27,-1.46 0.4,-3.05 0.4,-4.64 0,-4.13 0.27,-7.18 0.8,-9.3 1.59,-9.84 3.05,-16.88 4.65,-21 1.6,-1.6 2.92,-3.2 3.86,-4.66 1.06,-1.59 2.12,-3.19 3.19,-4.79 5.18,-4.11 8.1,-6.37 8.89,-6.89 0.8,-0.54 1.74,-1.34 2.8,-2.4 4.12,-1.06 6.65,-2 7.31,-2.66 0.8,-0.8 2,-1.2 3.59,-1.2 1.06,0 2.26,0.14 3.86,0.4 1.58,0.27 3.18,0.4 4.64,0.4 2.66,-0.53 4.93,-0.93 7.05,-1.2 2.12,-0.26 4.39,-0.39 7.05,-0.39 2.52,0 4.91,0.26 6.91,0.79 2.12,0.53 4.52,0.8 7.04,0.8 2.65,0.53 5.05,0.53 7.45,0 2.25,-0.53 4.77,-0.53 7.43,0 4.12,0.53 7.05,0.66 8.91,0.4 1.86,-0.27 3.45,-0.4 5.05,-0.4 2.12,0.53 3.98,0.93 5.84,1.46 1.87,0.54 3.99,1.06 6.65,1.6 1.06,0 2.26,-0.14 3.85,-0.4 1.6,-0.26 3.06,-0.4 4.66,-0.4 3.72,-0.54 5.71,-0.66 6.25,-0.4 0.52,0.26 1.32,0.4 2.38,0.4 6.25,-1.06 9.97,-1.46 11.31,-1.2 1.19,0.26 2.65,0.4 4.25,0.4 3.58,0 5.71,-0.14 6.24,-0.4 0.53,-0.26 1.33,-0.4 2.26,-0.4 4.65,1.06 7.58,1.74 8.64,2 1.06,0.26 2,0.4 3.06,0.4 2.12,-0.54 4.12,-1.06 6.25,-1.6 2.12,-0.53 4.64,-0.53 7.83,0 3.06,0.54 5.32,0.54 6.52,0 1.33,-0.53 2.52,-0.93 3.59,-1.46 3.58,0.53 6.91,0.66 9.69,0.4 2.94,-0.27 5.32,-0.4 7.45,-0.4 7.18,0.93 11.97,1.46 13.95,1.46 2.13,0 5.71,-0.53 10.9,-1.46l10.1 0 14.89 -2.39c4.64,0 7.7,-0.14 9.3,-0.4 1.6,-0.26 3.33,-0.4 5.45,-0.4 1.06,0 2.52,0.14 4.25,0.4 1.86,0.26 3.32,0.4 4.38,0.4 7.71,-1.06 12.77,-1.32 15.16,-0.8 2.26,0.54 5.06,0.54 8.11,0 1.59,0 3.18,-0.26 4.66,-0.8 1.58,-0.52 3.44,-0.26 5.43,0.8 1.6,0 2.94,-0.14 4,-0.4 1.06,-0.26 2.52,-0.4 4.65,-0.4 2.52,0 4.92,0 7.04,0 1.99,0 4.39,0.28 6.91,0.8 8.37,0.54 15.42,2.13 21.13,4.65 2,1.06 4,1.6 5.86,1.6 1.72,0 3.18,0.26 4.25,0.8l17.94 8.49c0.92,2.67 2.78,5.46 5.44,8.65 0.93,1.06 2,2.26 3.06,3.86 1.07,1.59 2.39,2.91 3.85,3.85 3.19,5.18 5.19,8.11 6.25,8.63 2.66,2.54 5.05,5.59 7.45,8.91 2.26,3.46 4.78,6.38 7.44,9.03 0,1.46 0.13,3.06 0.66,4.66 0.53,1.46 1.07,2.79 1.59,3.85 1.06,2.14 2.26,3.86 3.46,5.45 1.33,1.6 2,3.58 2,6.24 2.65,2.54 4.65,5.45 6.25,8.51 1.59,3.2 3.58,5.99 6.23,8.65 0,1.59 0.54,2.92 1.6,4.25 0.94,1.32 1.74,2.78 2.26,4.24 3.19,4.26 4.65,7.05 4.65,8.65 2.14,3.06 3.6,5.18 4.39,6.25 0.67,0.92 1.6,2.26 2.66,3.84 2.66,4.13 3.86,6.51 3.86,7.05 0,0.54 0.26,0.94 0.8,1.46 3.71,6.25 6.11,10.11 7.43,11.31 1.34,1.32 2.4,3.05 3.46,5.05l3.19 8.63c2.52,2.12 4.26,3.99 5.05,5.85 0.79,1.86 1.59,3.46 2.66,5.04 1.06,2.14 1.98,3.99 2.78,5.85 0.8,1.86 1.6,4 2.66,6.65 2.66,5.72 3.86,9.04 3.59,10.1 -0.26,1.07 -0.13,1.99 0.4,3.05 0.4,2.66 0.66,4.66 0.66,6.25 0,1.6 0.28,3.72 0.8,6.25l0.8 9.3c0.54,3.19 1.06,5.19 1.6,6.25 0.52,1.06 0.8,2.13 0.8,3.19l-0.8 8.51c0.52,5.72 0.26,9.43 -0.8,11.29 -1.06,1.86 -1.86,3.32 -2.4,4.26 -1.46,6.25 -2.52,9.83 -3.05,10.5 -0.53,0.79 -1.06,1.99 -1.6,3.58l-3.85 7.71c-2.13,5.18 -3.19,7.98 -3.46,8.24 -0.26,0.27 -0.39,0.67 -0.39,1.19 -3.19,4.14 -5.45,6.92 -7.05,8.51 -1.06,1.6 -1.73,3.06 -1.99,4.26 -0.26,1.33 -0.92,3.05 -1.86,5.05 -2.12,1.6 -3.46,3.18 -3.99,4.78 -0.53,1.46 -1.19,2.79 -2.26,3.85 -1.59,3.6 -3.72,6.78 -6.24,9.31 -2.66,2.66 -4.65,5.98 -6.25,10.11 -4.12,3.72 -6.91,6.37 -8.23,8.23 -1.2,1.86 -2.67,3.72 -4.26,5.85 -1.07,1.06 -1.99,1.99 -3.05,3.06 -1.08,1.06 -2.14,2.12 -3.2,3.18 -3.59,5.19 -5.71,7.71 -6.11,7.71 -0.54,0 -1.06,0.28 -1.6,0.8 -3.19,3.72 -4.65,6.25 -4.65,7.85 -5.18,2.52 -7.98,3.98 -8.24,4.25 -0.27,0.26 -0.66,0.39 -1.19,0.39 -1.06,1.07 -2,1.99 -3.06,2.67 -1.06,0.78 -2.4,1.72 -3.86,2.78 -4.79,3.06 -7.57,4.92 -8.63,5.45 -1.07,0.54 -2.13,1.34 -3.06,2.4 -4.25,0 -7.18,0.92 -9.04,3.05 -1.72,2.12 -4.52,3.86 -8.11,5.46 -1.59,1.06 -3.46,1.72 -5.44,1.98 -2.13,0.27 -4.39,0.8 -7.05,1.86zm-155.76 -84.13c5.19,1.08 8.63,0.94 10.1,-0.26 1.6,-1.34 3.46,-2.52 5.44,-3.59 1.6,-1.06 3.2,-2.12 4.79,-3.46 1.46,-1.32 3.06,-2.26 4.66,-2.78 4.11,-1.46 6.23,-2.8 6.51,-3.86 0.26,-1.06 0.92,-2.13 2,-3.05 4.64,-2.66 6.77,-4.26 6.23,-4.79 -0.52,-0.4 -0.26,-0.93 0.8,-1.46 3.06,-1.6 4.92,-2.92 5.45,-3.98 0.54,-0.94 1.32,-1.48 2.26,-1.48 2.66,-4.65 5.72,-7.57 9.43,-8.63 1.48,-2.52 3.33,-4.65 5.46,-6.25 1.99,-1.46 4.39,-3.06 6.91,-4.65 4.79,-2.52 7.57,-4.38 8.63,-5.44 5.19,-3.6 7.99,-5.32 8.11,-5.05 0.27,0.26 0.67,0.12 1.2,-0.4 1.06,-3.06 2.65,-5.86 4.65,-8.11 2.12,-2.4 3.72,-5.32 4.78,-9.04 1.47,-3.05 2.13,-6.25 1.87,-9.3 -0.27,-3.2 -0.67,-5.46 -1.2,-7.05 -1.99,-2.52 -3.05,-4.24 -3.05,-5.04 0,-0.8 -0.28,-1.74 -0.8,-2.66 -2,-5.73 -3.2,-8.91 -3.46,-9.44 -0.26,-0.53 -0.4,-1.06 -0.4,-1.46 -4.65,-8.38 -7.84,-13.57 -9.3,-15.69 -3.72,-5.71 -5.46,-9.17 -5.46,-10.5 0,-1.19 -0.26,-2.38 -0.78,-3.46 -3.2,-4.11 -4.79,-7.03 -4.79,-8.63 -3.06,-3.06 -5.06,-6.11 -5.72,-9.31 -0.8,-3.06 -2.26,-5.97 -4.39,-8.49 -1.46,-5.72 -2.26,-8.65 -2.26,-8.65 -1.06,-2.52 -2.12,-5.18 -3.18,-7.71 -1.07,-2.66 -1.73,-5.18 -2.26,-7.84 -2.13,-1.06 -3.45,-2.39 -3.99,-3.85 -0.4,-1.6 -1.2,-2.92 -2.26,-3.99 -3.59,-3.58 -6.37,-6.24 -8.24,-8.11 -1.73,-1.86 -3.72,-3.45 -5.84,-5.04 -3.6,-3.6 -5.45,-5.59 -5.45,-5.85 0,-0.27 -0.27,-0.66 -0.67,-1.2 -8.37,-4.12 -14.36,-5.18 -17.94,-3.06l-8.64 3.86c-2,3.59 -3.32,6.77 -3.86,9.3 -1.59,4.66 -2.26,8.24 -1.99,10.5 0.27,2.39 0.13,4.91 -0.4,7.44 0,2.13 -0.13,4.26 -0.39,6.64 -0.14,2.27 0,4.26 0.39,5.85 0.53,6.78 0.53,11.03 0,12.89 -0.53,1.74 -0.93,3.99 -1.46,6.51 0,4.26 -0.13,6.52 -0.4,7.05 -0.26,0.54 -0.4,1.34 -0.4,2.4 0,3.05 0,5.97 0,8.51 0,2.65 -0.26,5.17 -0.8,7.83 -1.58,5.72 -2.26,9.83 -1.98,12.37 0.26,2.65 0.12,5.45 -0.4,8.63 -1.46,8.77 -2.26,14.62 -2.26,17.54 0,2.79 0,5.85 0,8.91 0.52,4.65 0.66,7.45 0.4,8.25 -0.28,0.66 -0.4,1.32 -0.4,1.85 0,5.72 0.12,8.77 0.4,9.04 0.26,0.26 0.4,0.66 0.4,1.06l0 14.88c0,2 0.12,3.73 0.4,5.05 0.26,1.34 0.38,2.4 0.38,3.46 -1.58,6.25 -2.25,11.03 -1.98,14.48 0.26,3.34 -0.14,6.25 -1.2,8.91 1.6,5.18 2.4,8.51 2.4,10.11 3.06,3.18 5.04,5.31 5.84,6.63 0.8,1.34 1.59,2.54 2.65,3.46l5.46 -0.8z"/>
    <path class="fil4" d="M1755 1645.11c-4.78,2.66 -8.63,4.12 -11.69,4.66 -3.73,0 -6.11,-0.4 -7.45,-1.2 -1.32,-0.66 -2.66,-1.06 -4.25,-1.06 -2.12,-0.54 -4.26,-1.06 -6.64,-1.6 -2.4,-0.54 -3.99,-1.33 -5.05,-2.39 -3.06,0 -6.52,-0.8 -10.11,-2.26 -5.18,-0.53 -7.83,-0.93 -7.83,-1.2 0,-0.26 -0.28,-0.4 -0.8,-0.4 -2,-0.52 -4.66,-0.52 -7.71,0 -3.2,0.54 -5.99,0.8 -8.65,0.8 -0.92,0 -2.26,-0.26 -3.85,-0.8 -1.59,-0.52 -3.58,-0.8 -6.24,-0.8 -4.12,0.54 -7.31,0.68 -9.31,0.4 -2.12,-0.26 -4.12,-0.4 -6.25,-0.4 -5.71,1.08 -9.43,1.2 -11.29,0.4 -1.86,-0.8 -3.19,-1.2 -4.25,-1.2 -4.26,0.54 -7.84,0.68 -10.9,0.4 -3.19,-0.26 -5.98,-0.4 -8.64,-0.4l-14.75 0c-2.66,0.54 -5.05,0.94 -7.45,1.2 -2.25,0.28 -4.77,0.14 -7.31,-0.4 -5.17,-0.52 -10.23,-1.06 -14.88,-1.58 -4.66,-0.4 -9.31,-0.68 -13.95,-0.68 -3.19,0 -6.25,0.14 -9.44,0.4 -3.06,0.14 -6.38,0.54 -10.1,1.06 -1.47,0 -3.33,0 -5.45,0 -2,0 -3.85,0.28 -5.45,0.8 -5.72,2.66 -9.43,3.99 -11.29,4.26 -1.74,0.27 -3.46,0.67 -5.05,1.19 -2.54,1.6 -4.12,5.19 -4.66,10.91 -0.54,5.71 -1.06,11.43 -1.6,17.14 0,4.12 0.14,9.17 0.4,15.15 0.27,5.99 0.94,11.82 2,17.54 2.12,4.65 3.72,6.91 5.05,6.65 1.32,-0.26 2.52,-0.4 3.46,-0.4 3.18,0 5.05,0.14 5.84,0.4 0.8,0.26 1.73,0.4 2.79,0.4 1.06,0.53 2.26,0.8 3.86,0.8 1.59,0 3.19,0.26 4.65,0.79 6.25,0 10.23,-0.13 12.09,-0.4 1.86,-0.26 3.73,0.14 5.85,1.2 2.66,0.4 4.65,0.66 6.25,0.66 1.6,0 2.78,-0.26 3.86,-0.66 2.12,0 4.25,-0.27 6.63,-0.8 2.4,-0.53 4.52,-0.79 6.65,-0.79 2.52,0 4.92,0.13 7.04,0.39 2,0.27 4.65,0.67 7.71,1.2 2.66,0 4.53,0.13 5.85,0.26 1.34,0.27 2.52,0.14 3.46,-0.26 1.59,0 3.19,-0.14 4.79,-0.4 1.46,-0.27 3.06,-0.4 4.64,-0.4 7.19,-0.53 12.9,-1.33 17.15,-2.39 6.78,0.53 10.76,0.66 12.09,0.4 1.2,-0.26 3.2,-0.4 5.86,-0.4 6.11,-1.06 11.02,-1.46 14.74,-1.2 3.6,0.28 6.51,-0.12 8.51,-1.2 1.6,0.54 3.19,1.08 4.65,1.6 1.6,0.54 2.92,0.8 3.98,0.8 1.08,0 2.26,-0.4 3.86,-1.2 1.6,-0.8 3.06,-1.2 4.65,-1.2 1.6,0 3.2,0.4 4.66,1.2 1.59,0.8 3.45,0.66 5.45,-0.4 4.78,1.06 7.57,1.74 8.63,2 1.06,0.26 2,0.13 3.06,-0.4 0.53,1.6 1.33,2.79 2.39,3.45 1.06,0.8 2,2 3.06,3.6 2.12,8.23 3.19,14.08 3.19,17.54 0,3.32 -0.53,7.03 -1.59,11.29 -0.54,7.19 -1.08,11.7 -1.6,13.16 -0.54,1.6 -1.2,3.46 -2.26,5.45 -1.59,4.26 -2.26,6.92 -1.99,8.24 0.26,1.33 0.13,2.39 -0.4,3.45 -2.12,4.12 -3.06,7.05 -3.06,8.65 -0.54,6.11 -1.6,10.35 -3.19,12.35 0,1.6 -0.27,3.33 -0.8,5.05 -0.53,1.86 -0.53,3.86 0,5.86 -1.99,6.23 -2.92,10.36 -2.66,12.08 0.28,1.86 0.14,3.72 -0.4,5.86 -2.12,4.11 -3.32,6.91 -3.84,8.23 -0.54,1.2 -1.07,2.4 -1.6,3.46 -1.6,4.13 -3.59,8.37 -6.25,12.5 -4.65,2.52 -7.57,3.85 -8.51,3.85 -1.6,0 -3.32,-0.14 -5.18,-0.4 -1.73,-0.27 -3.99,-0.4 -6.51,-0.4 -7.31,-0.53 -11.7,-1.19 -13.28,-1.85 -1.6,-0.8 -3.34,-1.2 -5.46,-1.2 -6.25,1.06 -10.1,1.32 -11.7,0.8 -1.58,-0.54 -2.78,-0.8 -3.86,-0.8 -4.64,0 -7.69,-0.28 -9.03,-0.8 -1.2,-0.54 -2.39,-1.06 -3.45,-1.6 -5.72,0 -9.83,0.14 -12.49,0.4 -2.53,0.26 -5.19,-0.14 -7.71,-1.2 -6.25,0.54 -10.91,-0.26 -14.09,-2.26 -2.53,1.07 -5.05,1.2 -7.31,0.4 -2.39,-0.79 -4.39,-1.73 -5.85,-2.79 -4.25,0 -8.23,-0.14 -12.09,-0.4 -3.85,-0.26 -7.71,-0.4 -11.3,-0.4 -6.24,-1.06 -10.23,-1.2 -12.09,-0.8 -1.86,0.54 -3.2,0.8 -4.26,0.8 -1.59,0.54 -3.19,0.66 -4.65,0.4 -1.6,-0.26 -3.19,-0.4 -4.65,-0.4 -1.6,0.54 -3.06,0.94 -4.38,1.2 -1.2,0.26 -2.66,0.14 -4.26,-0.4 0,2.13 -0.13,4.12 -0.4,6.25 -0.26,2.12 -0.13,4.12 0.4,6.24 2.66,6.25 3.58,10.5 3.18,12.9 -0.52,2.26 -0.78,4.51 -0.78,6.51 0.52,2.12 0.78,5.18 0.78,9.43l0 8.51c0,1.6 0.14,3.06 0.28,4.26 0.26,1.32 0.4,2.78 0.4,4.37 0,1.46 -0.14,3.06 -0.4,4.66 -0.14,1.6 -0.28,2.79 -0.28,3.85 2,1.06 3.74,1.46 5.06,1.2 1.2,-0.26 3.19,-0.14 5.85,0.4 1.46,0 3.19,-0.14 5.05,-0.4 1.72,-0.26 3.98,-0.66 6.51,-1.2 1.6,0 3.19,-0.13 4.78,-0.4 1.46,-0.26 2.8,-0.4 3.86,-0.4 2.53,0 4.79,0.27 6.65,0.8 1.72,0.54 3.45,0.8 5.05,0.8 1.58,0 2.92,-0.14 4.26,-0.4 1.32,-0.26 2.78,-0.66 4.24,-1.2 3.73,-0.52 6.11,-0.66 7.44,-0.39 1.33,0.27 2.66,0.66 4.26,1.19 5.18,-0.53 8.11,-0.8 8.63,-0.8 1.46,0 3.73,0 6.51,0 2.94,0 5.59,0.27 8.25,0.8 5.18,1.06 7.97,1.6 8.5,1.6 5.72,-1.06 8.91,-1.46 9.44,-1.2 0.53,0.26 1.2,0.4 2.26,0.4 6.25,-1.06 10.11,-1.46 11.69,-1.2 1.6,0.27 2.93,0.4 3.86,0.4l21.93 0c4.12,-0.53 8.11,-0.92 11.96,-1.19 3.98,-0.27 7.44,-0.93 10.5,-1.86l12.5 -1.6c1.58,0.54 3.58,0.54 5.83,0 2.4,-0.52 4,-1.06 5.06,-1.6 6.25,-0.52 10.23,-1.32 12.1,-2.26 1.86,-1.06 3.44,-1.59 5.04,-1.59 1.6,-0.53 3.06,-0.79 4.25,-0.79 1.34,0 3.06,-0.27 5.06,-0.8 4.78,-1.07 7.97,-2.25 9.83,-3.85 1.73,-1.6 3.99,-1.08 6.51,1.6 4.26,1.98 5.99,3.97 5.45,5.83 -0.4,1.74 -0.4,2.94 0.14,3.46l3.86 8.51c1.06,3.72 1.58,5.85 1.85,6.65 0.27,0.8 0.67,2.26 1.2,4.25l0 30.43 -1.47 13.96c0.94,4.78 1.33,9.3 1.07,13.69 -0.27,4.38 -0.4,8.63 -0.4,12.89 0.53,7.71 1.33,13.68 2.39,17.81 -0.53,5.72 -0.66,10.63 -0.39,14.49 0.26,3.85 0.66,7.03 1.18,9.69 0.54,3.06 0.94,5.59 1.2,7.45 0.28,1.72 -0.12,4.78 -1.2,8.91 -1.58,3.58 -2.65,6.23 -3.18,7.83 -0.53,1.46 -1.46,2.8 -3.05,3.86 -1.08,4.11 -3.06,6.77 -6.25,7.85 -3.06,0.92 -7.58,1.72 -13.29,2.25 -3.06,0 -5.99,0.27 -8.91,0.8 -2.79,0.53 -5.57,0.53 -8.11,0 -2.12,0 -4.25,-0.27 -6.24,-0.8 -2.13,-0.53 -4.53,-0.8 -7.04,-0.8l-11.69 0c-3.6,-1.07 -6.13,-1.33 -7.45,-1.19 -1.2,0.26 -2.4,0.12 -3.46,-0.26 -6.25,-0.54 -10.11,-1.08 -11.69,-1.6 -1.6,-0.54 -2.79,-1.08 -3.85,-1.6 -3.6,-0.54 -7.05,-0.54 -10.11,0 -3.19,0.52 -6.25,0.8 -9.43,0.8 -5.72,0 -8.51,0.12 -8.51,0.4 0,0.26 -0.26,0.4 -0.8,0.4 -5.18,0.52 -8.51,0.52 -10.11,0 -1.58,-0.54 -3.18,-0.8 -4.64,-0.8 -1.59,0 -3.33,0.12 -5.05,0.4 -1.86,0.26 -3.59,0.4 -5.05,0.4 -1.6,0 -3.2,-0.28 -4.79,-0.8 -1.46,-0.54 -3.06,-0.8 -4.64,-0.8 -1.48,-0.54 -3.2,-0.66 -5.06,-0.4 -1.85,0.26 -3.71,0.4 -5.85,0.4 -4.65,-0.54 -7.31,-0.66 -7.71,-0.4 -0.52,0.26 -1.32,0.4 -2.38,0.4 -7.85,0.52 -13.16,0.92 -15.96,1.2 -2.92,0.26 -5.85,0.12 -8.91,-0.4 -4.24,0 -6.63,0.12 -7.43,0.4 -0.8,0.26 -1.74,0.66 -2.8,1.2 -4.65,0.52 -7.57,0.52 -8.9,0 -1.33,-0.54 -2.52,-0.8 -3.46,-0.8 -5.71,-0.54 -8.77,-0.54 -9.03,0 -0.26,0.52 -1.2,0.8 -2.66,0.8 -6.77,0 -11.03,-0.14 -12.89,-0.4 -1.86,-0.28 -3.99,-0.14 -6.65,0.4l-22.59 0c-3.06,-0.54 -6.25,-0.94 -9.31,-1.2 -3.06,-0.28 -6.5,-0.68 -10.09,-1.2l-29.65 0c-6.23,0 -9.56,0.12 -10.09,0.4 -0.53,0.26 -1.33,0.4 -2.39,0.4l-14.75 0c-5.73,1.06 -8.78,1.46 -9.31,1.2 -0.53,-0.28 -1.06,-0.4 -1.59,-0.4 -2.52,0 -4.78,0.12 -6.65,0.4 -1.73,0.26 -3.98,0.4 -6.64,0.4 -5.19,0 -9.97,0 -14.36,0 -4.38,0 -9.17,-0.28 -14.35,-0.8 -2.13,0 -4.12,-0.14 -5.85,-0.4 -1.86,-0.28 -3.86,-0.14 -5.85,0.4 -9.43,0.52 -15.01,-1.08 -17.14,-4.66 -2.66,-6.25 -3.86,-10.36 -3.86,-12.5 -1.6,-8.37 -2.92,-12.49 -3.98,-12.49l0.8 -12.48 0.79 -10.11c0,-4.65 0.13,-7.17 0.39,-7.71 0.28,-0.52 0.4,-1.32 0.4,-2.38 0,-4.66 0.28,-7.85 0.8,-9.31 0.54,-1.6 0.8,-3.19 0.8,-4.65 0,-4.78 0.14,-7.98 0.66,-9.83 0.54,-1.74 0.8,-4 0.8,-6.52 0,-6.25 0.28,-10.1 0.8,-11.3 0.54,-1.32 0.54,-3.32 0,-5.84 1.07,-4.65 1.6,-7.98 1.6,-9.84 0,-1.72 0.26,-3.72 0.8,-5.84 1.45,-5.59 2.51,-8.79 3.05,-9.31 0.54,-4.12 0.66,-8.25 0.4,-12.49 -0.26,-4.13 -0.4,-8.24 -0.4,-12.36 0,-1.6 0.26,-3.2 0.8,-4.65 0.54,-1.6 0.8,-3.2 0.8,-4.8 0,-1.98 -0.14,-3.98 -0.4,-5.83 -0.26,-1.74 -0.14,-3.46 0.4,-5.06 1.06,-6.25 1.46,-9.83 1.2,-10.9 -0.28,-1.06 -0.4,-1.98 -0.4,-3.06 0.52,-3.58 0.92,-6.37 1.2,-8.23 0.12,-1.74 0.26,-3.2 0.26,-4.26 0.53,-5.71 0.93,-8.51 1.19,-8.51 0.27,0 0.4,-0.26 0.4,-0.79 -0.53,-6.24 -0.66,-10.63 -0.4,-13.29 0.27,-2.52 0.4,-5.18 0.4,-7.71 0,-1.6 0,-3.32 0,-5.05 0,-1.86 -0.26,-3.32 -0.79,-4.38 0,-3.06 -0.14,-5.72 -0.4,-7.71 -0.27,-2.12 -0.4,-4.26 -0.4,-6.25 -0.4,-5.18 -0.66,-8.9 -0.66,-10.9 0,-2.13 0.12,-3.99 0.4,-5.85 0.12,-1.86 -0.14,-3.58 -1.2,-5.05 1.06,-2.66 1.46,-5.31 1.46,-8.23 0,-2.8 0,-5.59 0,-8.11 0,-2.66 -0.14,-5.06 -0.66,-7.44 -0.54,-2.39 -0.8,-5.05 -0.8,-8.25 0,-3.59 -0.14,-5.85 -0.4,-6.91 -0.26,-1.06 -0.4,-2.12 -0.4,-3.19 -1.06,-7.7 -1.06,-15.81 0,-24.06 0,-2.65 -0.14,-5.03 -0.4,-7.43 -0.26,-2.4 -0.4,-4.79 -0.4,-7.45 0,-4.12 -0.14,-8.11 -0.4,-11.95 -0.26,-3.99 -0.4,-7.71 -0.4,-11.3 0,-7.84 0.14,-12.77 0.4,-14.89 0.26,-1.99 -0.14,-4.11 -1.2,-6.25 1.06,-3.06 1.34,-6.24 0.8,-9.29 -0.54,-3.06 -0.8,-5.99 -0.8,-8.51 -0.52,-6.78 -0.52,-11.97 0,-15.68 -0.52,-1.46 -0.66,-3.06 -0.4,-4.66 0.28,-1.46 0.4,-2.79 0.4,-3.85 0,-2.12 -0.12,-4.12 -0.4,-6.25 -0.26,-2.12 0.14,-3.86 1.2,-5.44 -1.06,-6.79 -1.72,-11.57 -1.86,-14.36 -0.26,-2.92 -0.66,-5.58 -1.19,-8.24 -0.54,-5.19 -1.33,-9.04 -2.4,-11.7 -1.06,-2.52 -1.06,-5.71 0,-9.31l-2.26 -10.89c0.4,-6.77 0.4,-10.63 0,-11.69 -1.06,-7.31 -1.6,-11.96 -1.6,-13.96 1.08,-7.83 1.48,-12.76 1.2,-14.88 -0.26,-2 0.68,-3.86 2.66,-5.46 1.07,-3.05 2,-5.05 2.79,-5.85 0.67,-0.78 1.6,-1.58 2.66,-2.65 2.14,-2.66 3.99,-4.64 5.85,-6.24 1.86,-1.6 3.32,-2.66 4.26,-3.2 4.25,-1.46 8.09,-2.25 11.69,-2.25 5.19,-1.06 9.17,-1.6 11.7,-1.6l13.29 0c5.71,-0.52 9.3,-0.52 10.89,0 1.47,0.54 2.79,1.06 3.85,1.6l18.74 0c8.77,-1.06 16.36,-1.46 22.6,-1.2 6.11,0.26 12.36,0.66 18.61,1.2 1.59,0 3.18,0.13 4.64,0.39 1.6,0.27 3.2,0.4 4.79,0.4 5.18,0 7.84,-0.13 8.11,-0.4 0.26,-0.26 0.66,-0.39 1.2,-0.39 6.24,1.59 10.77,2.25 13.55,1.99 2.93,-0.27 5.59,-0.14 8.25,0.26 2.52,0 5.31,0.14 8.09,0.4 2.94,0.26 5.59,0.4 8.25,0.4 2.52,0.54 6.25,0.8 10.89,0.8 4.65,0 8.25,-0.26 10.91,-0.8 4.65,0 7.31,0.14 7.83,0.4 0.4,0.26 0.94,0.4 1.47,0.4 2.12,0 3.98,-0.14 5.44,-0.4 1.6,-0.26 3.2,-0.4 4.66,-0.4 4.79,-0.53 9.96,-0.53 15.68,0l20.21 0 17.94 -0.8c2.52,-0.93 4.64,-1.32 6.24,-1.06 1.46,0.27 3.33,0.4 5.45,0.4 7.71,0 13.82,-0.13 18.2,-0.4 4.53,-0.26 8.79,-0.4 12.9,-0.4 4.66,0 7.18,-0.13 7.44,-0.4 0.27,-0.26 0.67,-0.39 1.2,-0.39l8.51 1.59c5.71,0.53 9.43,0.53 11.29,0 1.87,-0.53 3.19,0 4.25,1.46 1.6,-1.06 3.99,-1.46 7.45,-1.46 3.32,0 5.58,0.4 6.65,1.46l11.69 -0.8c4.65,-0.4 7.71,-0.93 9.31,-1.46l9.29 -0.79c4.13,-0.54 7.05,-0.54 8.65,0 1.46,0.53 3.31,1.06 5.44,1.59 1.99,0.53 3.99,0.53 5.85,0 1.73,-0.53 3.45,-0.53 5.05,0 6.65,3.06 10.63,4.92 11.69,5.46 4.65,4.11 7.71,7.17 9.31,9.29 1.59,2.13 1.99,5.19 1.59,9.31 -1.06,4.65 -1.33,7.97 -0.79,9.7 0.53,1.86 0.79,3.58 0.79,5.18 -2.12,7.17 -3.45,11.57 -3.99,13.16 -1.98,5.18 -3.18,8.5 -3.45,9.7 -0.27,1.33 -0.13,2.53 0.39,3.59 -2.12,5.71 -3.05,9.31 -2.78,10.89 0.26,1.6 0.13,3.06 -0.4,4.65 0,1.6 -0.13,2.94 -0.4,4.26 -0.27,1.33 -0.53,2.79 -1.06,4.25l-1.59 8.64 -4.66 32.7c-0.53,2.65 -0.79,5.05 -0.79,7.45 0,2.25 -0.54,4.77 -1.6,7.29l-2.26 7.05z"/>
    <path class="fil4" d="M2331.93 1497.2c0.54,4.11 0.66,7.83 0.4,11.29 -0.26,3.32 -0.66,7.05 -1.2,11.3 -3.58,5.71 -5.45,8.63 -5.45,8.9 0,0.27 -0.26,0.93 -0.66,1.99 -3.18,4.66 -4.78,7.05 -4.78,7.31 0,0.26 -0.27,0.4 -0.67,0.4 -1.06,1.6 -2.26,3.2 -3.58,4.66 -1.34,1.59 -2.4,3.18 -3.46,4.77 -2.66,4.66 -3.85,7.71 -3.85,9.31 0,1.6 -0.27,2.8 -0.8,3.86 -4.26,4.65 -5.98,7.03 -5.46,7.03 -3.71,6.25 -6.23,10.25 -7.83,12.1 -1.6,1.73 -3.06,3.98 -4.65,6.65 -2.66,4.12 -5.06,7.44 -7.45,10.1 -2.26,2.53 -4.26,5.19 -5.84,7.71 -3.59,4.25 -6.79,9.17 -9.31,14.88 -2.65,3.06 -4.65,6.25 -6.25,9.31 -3.05,6.24 -5.18,10.37 -6.24,12.49 -4.13,5.19 -6.25,7.97 -6.25,8.51 0,0.52 -0.26,1.32 -0.8,2.39 -3.05,3.58 -4.77,5.72 -5.05,6.24 -0.26,0.54 -0.8,1.2 -1.86,2.26 -2.65,4.65 -4.25,7.18 -4.65,7.45 -0.52,0.26 -0.8,0.93 -0.8,1.99 -4.25,6.64 -6.24,10.09 -6.24,10.09 -2.65,3.6 -4.13,5.46 -4.65,5.46 -0.54,0 -1.06,0.53 -1.6,1.46 -0.53,2.65 -1.2,5.05 -1.99,7.05 -0.8,2.12 -1.6,4.11 -2.66,6.25 -4.12,4.64 -6.25,7.29 -6.25,7.83 -4.12,5.72 -6.51,9.17 -7.04,10.51 -0.53,1.32 -1.33,2.38 -2.26,3.45 -3.19,5.18 -5.05,8.24 -5.85,9.03 -0.8,0.67 -1.72,1.86 -2.79,3.46 -3.06,5.71 -4.92,9.03 -5.44,10.11 -0.54,1.06 -1.34,2.12 -2.27,3.05 -2.12,3.72 -3.72,6.52 -4.78,8.64 -1.46,3.59 -3.06,7.17 -4.65,10.5 -1.46,3.32 -3.58,7.18 -6.26,11.29l-4.64 8.51c-0.53,3.18 -0.93,5.18 -1.19,5.85 -0.28,0.79 -0.54,1.72 -1.06,2.78 -1.08,2.54 -1.88,5.19 -2.4,7.71 -0.54,2.66 -1.33,5.98 -2.26,10.23 -2.13,11.97 -2.93,21.8 -2.39,29.51 0,2.66 -0.14,5.05 -0.4,7.45 -0.26,2.4 -0.4,4.25 -0.4,5.84 0,2.53 0.14,4.93 0.4,7.05 0.26,1.99 0.4,4.39 0.4,6.91 0,2.66 -0.14,5.31 -0.4,8.23 -0.26,2.8 -0.4,6.12 -0.4,9.71 1.06,5.71 1.46,9.17 1.2,10.11 -0.27,1.06 -0.4,2.91 -0.4,5.43 0,4.26 -0.14,6.52 -0.4,7.05 -0.26,0.54 -0.4,1.34 -0.4,2.4l1.6 14.75c0,2.65 0.26,4.79 0.79,6.65 0.53,1.72 0.8,3.97 0.8,6.65 0.4,1.46 0.8,3.84 1.06,6.89 0.26,3.2 0.4,5.19 0.4,6.25 0,6.78 0.14,10.91 0.4,12.49 0.26,1.6 0.4,3.6 0.4,6.25 0.52,4.12 0.8,7.31 0.8,9.31 0,2.12 0.26,4.38 0.8,7.04 0.52,6.25 0.92,9.84 1.18,10.9 0.28,1.06 0.28,2.12 0.28,3.06 -0.4,2.66 -0.54,5.18 -0.28,7.83 0.28,2.67 0.28,5.19 0.28,7.85 0.52,2.52 1.06,5.05 1.59,7.31 0.53,2.4 1.06,4.78 1.59,7.44 0.54,3.05 0.67,6.11 0.4,8.91 -0.26,2.93 -0.13,6.11 0.4,9.83 0.53,4.13 1.33,8.78 2.25,13.96 -3.05,2.12 -5.71,2.79 -7.69,2.39 -2.14,-0.53 -4.39,-0.8 -7.05,-0.8 -5.18,0.53 -8.37,0.67 -9.71,0.4 -1.32,-0.27 -2.52,-0.4 -3.58,-0.4l-9.31 0c-2.12,0.53 -4.37,0.93 -7.05,1.06 -2.51,0.27 -5.17,0 -7.69,-1.06l-9.31 0c-1.06,0 -2.52,0.13 -4.39,0.4 -1.72,0.27 -3.46,0.4 -5.04,0.4 -5.19,0.93 -9.05,1.72 -11.7,2.26 -2.52,0.52 -5.18,0.8 -7.71,0.8 -6.78,-1.06 -10.77,-1.46 -12.09,-1.2 -1.34,0.26 -2.52,0.4 -3.6,0.4l-9.29 0c-3.59,0 -5.85,-0.14 -6.65,-0.4 -0.66,-0.26 -1.6,-0.14 -2.66,0.4 -3.59,0.52 -6.51,0.92 -8.65,1.2 -1.98,0.26 -4.11,0.66 -6.11,1.2l-12.49 0c-4.65,0.52 -7.17,0.52 -7.43,0 -0.28,-0.54 -0.68,-0.8 -1.2,-0.8 -6.25,1.06 -9.31,1.6 -9.31,1.6 -1.59,0 -3.45,0.12 -5.85,0.26 -2.38,0.26 -4.51,0.4 -6.63,0.4 -6.66,0 -11.83,0.12 -15.16,0.4 -3.32,0.26 -6.38,0.12 -8.9,-0.4 -6.25,-3.06 -9.57,-5.32 -9.84,-6.52 -0.26,-1.33 -0.8,-2.53 -1.86,-3.59 1.06,-5.18 1.73,-7.97 2.26,-8.51 1.06,-9.43 1.85,-15.14 2.39,-17.14 1.06,-9.29 1.6,-14.75 1.6,-16.34 0.52,-3.72 0.8,-7.05 0.8,-10.11 0,-3.18 0.12,-6.24 0.66,-9.43 1.6,-7.18 2.52,-12.49 2.79,-15.95 0.27,-3.33 0.66,-7.58 1.2,-12.76 -0.54,-5.71 -0.8,-9.71 -0.8,-11.69 0,-1.6 0.13,-3.19 0.4,-4.65 0.26,-1.6 0.4,-3.46 0.4,-5.45 0,-3.72 -0.14,-7.18 -0.4,-10.63 -0.27,-3.34 0.13,-6.26 1.06,-8.91 -1.99,-4.12 -2.53,-10.63 -1.46,-19.4 0,-3.2 0,-6.39 0,-9.85 0,-3.32 0.26,-6.37 0.8,-8.89 0.92,-8.37 1.32,-14.49 1.06,-18.74 -0.27,-4.13 -0.4,-7.71 -0.4,-10.91 0.53,-3.58 0.66,-5.85 0.4,-6.63 -0.27,-0.68 -0.14,-1.6 0.4,-2.67 0.52,-5.18 0.52,-8.1 0,-8.64 1.6,-4.11 2.12,-8.77 1.6,-13.94 -0.54,-5.19 -0.28,-9.85 0.78,-13.96 0.54,-2.66 0.54,-5.46 0,-8.64 0,-5.19 -1.06,-9.57 -3.18,-13.3l-5.31 -8.49c-2.14,-4.66 -3.2,-7.19 -3.2,-7.45 0,-0.26 -0.26,-0.66 -0.8,-1.06 -3.59,-5.72 -5.71,-9.31 -6.25,-10.63 -0.52,-1.2 -1.18,-2.4 -2.25,-3.46 -3.72,-4.65 -5.32,-7.31 -5.04,-7.71 0.26,-0.53 0.12,-1.06 -0.4,-1.59 -2.14,-3.72 -3.46,-6.26 -4,-7.85 -2.52,-3.58 -3.71,-5.72 -3.45,-6.24 0.26,-0.54 0.14,-0.94 -0.4,-1.46 -2.12,-2.13 -3.2,-3.85 -3.46,-5.05 -0.26,-1.34 -0.92,-2.54 -1.99,-3.6 -4.66,-5.71 -6.78,-8.51 -6.24,-8.51 -3.59,-5.17 -5.45,-8.37 -5.45,-9.43 -3.6,-5.17 -5.59,-7.97 -5.85,-8.51 -0.27,-0.52 -0.93,-1.32 -1.86,-2.39 -2.12,-3.06 -4.26,-6.24 -6.25,-9.3 -2.66,-5.71 -4.66,-9.56 -6.24,-11.7 -1.6,-1.98 -3.2,-4.38 -4.66,-7.03 -3.71,-6.12 -6.38,-10.11 -8.24,-11.57 -1.72,-1.6 -3.18,-3.19 -4.26,-4.79 -3.58,-5.18 -5.44,-7.97 -5.44,-8.5 -1.59,-4.13 -2.79,-6.51 -3.45,-7.05 -0.8,-0.52 -1.46,-1.32 -2,-2.25 -4.11,-5.72 -6.65,-9.44 -7.45,-10.9 -0.8,-1.59 -1.58,-2.93 -2.65,-3.99 -1.06,-1.46 -2.12,-3.05 -3.18,-4.65 -0.94,-1.6 -2,-3.32 -3.06,-5.45 -3.2,-3.58 -5.19,-6.24 -6.25,-7.84 -2.66,-4.12 -4.12,-6.25 -4.66,-6.51 -0.52,-0.26 -1.06,-0.94 -1.59,-2 -1.99,-3.05 -3.46,-5.45 -4.26,-7.05 -0.78,-1.46 -1.72,-2.78 -2.78,-3.84 -2,-3.59 -3.99,-6.51 -5.85,-8.51 -1.72,-2.13 -3.46,-4.51 -5.05,-7.05 -4.66,-4.65 -7.18,-7.31 -7.71,-7.83 -2.66,-3.59 -3.98,-5.85 -4.26,-6.65 -0.26,-0.66 -0.92,-1.6 -1.98,-2.66 -3.2,-5.18 -4.92,-7.97 -5.45,-8.23 -0.54,-0.28 -1.06,-0.54 -1.6,-1.08 -3.06,-4.25 -4.92,-6.37 -5.45,-6.63 -0.53,-0.28 -1.06,-0.94 -1.6,-2 -4.12,-5.71 -6.77,-9.05 -8.1,-10.11 -1.33,-1.06 -2.53,-2.12 -3.45,-3.05 -2.14,-4.26 -3.2,-8.11 -3.2,-11.69 -1.06,-4.66 -1.59,-8.11 -1.59,-10.11 1.59,-3.72 2.79,-5.84 3.59,-6.63 0.8,-0.8 1.46,-1.2 1.86,-1.2l12.49 -1.6c3.73,-0.54 5.71,-0.54 6.25,0 0.53,0.52 1.33,0.8 2.39,0.8 3.06,-0.54 5.98,-0.66 8.51,-0.4 2.66,0.26 5.44,0.4 8.64,0.4 1.45,0 3.45,-0.14 5.71,-0.4 2.4,-0.26 4.12,-0.4 5.18,-0.4l8.51 -0.8c3.05,-0.53 6.51,-0.53 10.1,0 5.18,0.54 8.51,0.66 9.69,0.4 1.34,-0.26 2.54,-0.4 3.6,-0.4 6.25,1.6 9.31,2.4 9.31,2.4 3.18,0 5.71,-0.14 7.83,-0.4 2,-0.28 4.92,-0.4 8.51,-0.4 4.65,0.52 8.37,0.66 10.9,0.4 2.66,-0.28 5.72,-0.4 9.44,-0.4 5.57,-0.54 9.17,-0.54 10.49,0 1.19,0.52 2.39,0.8 3.45,0.8l13.96 -0.8c5.32,-0.54 8.51,-0.8 9.83,-0.8 1.2,0 3.2,0 5.86,0 4.11,0.52 8.23,0.26 12.36,-0.8 2.12,0 4.26,-0.26 6.24,-0.8 2.13,-0.4 3.99,-0.93 5.45,-1.46 4.12,4.66 6.77,7.04 7.85,7.32 1.06,0.26 1.98,0.92 3.06,1.99 1.58,2.66 2.91,4.38 3.97,5.44 0.94,1.07 1.74,2.13 2.26,3.06 1.08,1.07 1.6,2.65 1.6,4.79 0,1.99 0.8,3.85 2.26,5.45 1.06,1.46 1.59,3.18 1.59,5.04 0,1.73 1.06,2.66 3.2,2.66 0.52,3.73 0.8,6.11 1.06,7.45 0.26,1.33 0.66,2.52 1.2,3.45 2.12,3.72 3.45,5.85 3.85,6.65 0.53,0.8 1.06,1.72 1.6,2.78 3.18,6.65 5.44,11.17 7.04,13.17 3.05,5.17 4.65,8.37 4.65,9.43 3.19,4.11 4.91,6.65 5.45,7.71 1.06,3.19 1.86,5.05 2.4,5.85 0.52,0.8 1.06,1.72 1.46,2.79 3.18,5.72 4.91,8.9 5.05,9.7 0.26,0.8 0.38,1.73 0.38,2.66 1.6,5.19 4.53,9.96 8.65,14.08 2,4.65 3.06,7.99 3.06,10.11 2.12,0.53 3.32,1.72 3.59,3.45 0.26,1.86 1.06,3.06 2.66,3.6 2.66,-0.54 4.24,-1.88 5.04,-4 0.8,-1.99 1.73,-4.11 2.79,-6.11 2,-5.71 3.32,-8.63 3.86,-8.63 3.19,-5.19 4.65,-8.25 4.65,-9.31 0,-1.06 0.26,-2.13 0.8,-3.19 1.6,-3.06 2.66,-5.18 3.18,-6.24 0.4,-0.94 0.94,-2 1.47,-3.06 2.66,-5.73 4.38,-9.04 5.44,-10.1 1.08,-1.06 2.14,-2.14 3.2,-3.2 1.46,-5.18 2.66,-7.97 3.45,-8.51 0.8,-0.52 1.46,-1.32 2,-2.38 2.52,-5.19 3.86,-7.71 3.86,-7.71 1.59,-3.19 2.65,-5.05 3.05,-5.85 0.53,-0.8 1.06,-1.72 1.6,-2.8 1.58,-2.52 3.06,-5.17 4.24,-7.69 1.34,-2.66 3.06,-4.93 5.19,-7.05 4.12,-8.77 7.05,-14.75 8.91,-17.94 1.86,-3.06 3.45,-6.25 5.04,-9.31 3.59,-5.18 6.39,-8.37 8.11,-9.29 1.86,-1.08 3.85,-2.4 5.85,-4 4.78,-1.46 7.71,-2.12 9.03,-1.86 1.34,0.27 2.4,0.4 3.46,0.4 2.65,0 4.79,-0.27 6.65,-0.8 1.86,-0.53 3.45,-0.79 5.05,-0.79l11.69 0 17.14 0.79c5.72,1.06 8.77,1.46 9.31,1.2 0.54,-0.27 1.34,-0.4 2.4,-0.4 6.25,0.93 9.96,1.32 11.29,1.06 1.19,-0.26 2.93,-0.13 5.05,0.4 8.25,0.54 13.16,0.54 14.76,0 8.37,1.06 13.29,1.6 14.74,1.6 2.66,0 5.18,-0.14 7.45,-0.4 2.39,-0.26 4.24,-0.4 5.84,-0.4 6.25,0 9.45,-0.14 9.71,-0.4 0.26,-0.26 0.92,-0.4 1.99,-0.4l8.5 0c2.67,-0.53 4.79,-0.8 6.25,-0.8 1.6,0 3.72,0 6.25,0 3.18,-0.4 5.45,-0.53 7.04,-0.26 1.59,0.26 2.79,0.26 3.85,0.26 2.66,0 4.92,-0.13 7.05,-0.66 2.12,-0.53 4.38,-0.8 7.05,-0.8 2.52,0.53 4.92,1.2 6.9,2.26 2.13,1.06 4.25,2.12 6.25,3.2z"/>
    <path class="fil4" d="M2397.32 1492.54c6.25,0 11.56,0.13 15.94,0.4 4.39,0.26 8.77,0.26 12.9,0.26 3.58,2.12 8.24,3.2 13.95,3.2 4.65,0.52 7.97,1.06 9.83,1.6 1.74,0.52 3.73,0.66 5.73,0.66 7.3,-1.46 13.29,-1.74 17.94,-0.66 7.83,0.92 13.42,1.06 16.74,0.39 3.46,-0.79 6.91,-0.93 10.49,-0.39 5.72,0.92 9.45,1.18 10.91,0.78 1.6,-0.52 3.19,-0.52 4.78,-0.12 5.59,1.06 8.77,1.46 9.3,1.19 0.54,-0.27 1.34,-0.4 2.26,-0.4 3.72,1.06 6.51,1.33 8.65,0.8 1.06,0.53 3.18,0.53 6.64,0 3.33,-0.53 5.85,-0.8 7.31,-0.8 4.65,0.53 9.3,0.93 13.68,1.2 4.39,0.26 8.65,-0.14 12.9,-1.2 6.12,0 9.7,0.13 10.5,0.4 0.67,0.27 1.59,0.4 2.65,0.4 2.66,0 4.79,-0.13 6.65,-0.4 1.86,-0.27 3.46,-0.4 5.06,-0.4 1.59,-0.53 2.91,-0.67 4.25,-0.39 1.32,0.26 2.78,0.39 4.25,0.39 6.24,-0.53 10.1,-0.67 11.29,-0.39 1.34,0.26 3.06,0.39 5.18,0.39 4.66,1.06 8.39,1.2 11.17,0.4 2.93,-0.79 5.59,-0.93 8.25,-0.4 7.31,2.12 12.88,3.58 16.74,4.38 3.85,0.68 7.17,2.14 9.71,4.26 2.65,0 4.77,0.66 6.63,1.86 1.86,1.33 3.73,2.53 5.85,3.59 5.72,2.52 9.04,4.25 10.11,5.05 1.06,0.8 2.12,1.72 3.18,2.66 2,1.06 3.99,1.86 5.85,2.4 1.72,0.52 3.2,1.85 4.26,3.84 3.58,2.13 5.57,3.59 5.85,4.39 0.26,0.66 0.66,1.6 1.18,2.66 2.54,4.65 4.93,7.57 6.91,8.51 2.14,1.06 4,2.39 5.46,3.98 1.06,1.47 2.13,3.19 3.19,5.05 1.06,1.86 2,3.45 3.06,5.05 3.18,5.18 4.91,7.97 5.45,8.51 3.18,4.25 5.18,6.91 6.24,8.23 1.06,1.34 2.13,2.66 3.05,4.26 1.06,1.6 2,3.05 2.8,4.25 0.8,1.34 1.72,3.06 2.66,5.06 3.71,4.77 5.71,7.31 6.25,7.83 1.59,2.66 3.45,5.45 5.43,8.65l5.46 9.29c1.59,3.59 2.65,5.59 3.19,5.85 0.52,0.26 1.06,0.94 1.6,1.86 2.52,5.19 4.12,7.97 4.65,8.25 0.53,0.26 0.92,0.66 1.46,1.2 3.18,5.71 5.05,9.03 5.44,10.09 4.79,5.19 7.19,8.77 7.45,10.9 0.26,2.12 0.94,3.86 2,5.44 1.06,2.14 2.52,4.66 4.65,7.85 2.52,5.18 4.12,7.71 4.65,7.71 1.06,2.12 2.26,3.72 3.45,5.05 1.33,1.33 2.53,2.78 3.59,4.26 2,4.24 3.19,7.03 3.45,8.63 0.27,1.6 0.94,2.8 2,3.86 3.06,6.25 4.66,10.09 4.66,11.69 0,1.59 0.52,3.19 1.59,4.65 3.58,7.31 5.98,11.96 6.9,14.08 2.13,4.14 3.19,6.52 3.19,6.92 0,0.53 0.27,1.33 0.8,2.39 1.46,2.66 2.52,5.06 3.06,7.45 0.54,2.26 0.8,3.98 0.8,5.04 1.6,4.65 2.26,7.85 1.99,9.71 -0.27,1.86 0.13,3.99 1.07,6.65 0.53,2.52 1.19,5.17 1.99,7.71 0.8,2.66 0.66,5.44 -0.4,8.63 1.6,6.77 2.26,11.17 2,13.16 -0.28,2.12 -0.4,4.52 -0.4,7.04 0,2.13 0.12,3.85 0.4,5.45 0.26,1.6 0.12,3.46 -0.4,5.45 -0.54,2.12 -1.07,3.98 -1.6,5.84 -0.53,1.87 -1.06,3.86 -1.59,5.85l-3.86 10.91c-0.54,1.58 -0.94,3.32 -1.2,5.04 -0.26,1.87 -0.92,3.59 -1.86,5.05 0.54,1.6 0,3.72 -1.59,6.25 -1.6,2.66 -2.66,4.38 -3.06,5.45 -1.06,6.24 -2.12,9.83 -3.18,10.89 -1.07,2.14 -2,4.26 -2.67,6.26 -0.79,2.12 -1.98,4.37 -3.58,7.03 -3.06,6.25 -4.66,9.31 -4.66,9.31 -1.06,2.66 -2.39,4.79 -3.85,6.65 -1.6,1.86 -2.92,3.72 -3.98,5.84 -2,3.05 -3.86,5.45 -5.45,7.05 -3.06,8.24 -4.66,12.62 -4.66,13.16 -1.99,2.66 -3.19,4.38 -3.45,5.44 -0.26,1.07 -0.94,2.13 -2,3.19 -3.58,5.19 -5.71,8.11 -6.25,8.91 -0.39,0.8 -1.18,2 -2.26,3.46 -3.72,5.71 -5.71,9.17 -6.23,10.23 -0.54,0.93 -1.08,1.99 -1.6,3.05 -3.06,4.66 -4.92,7.18 -5.45,7.45 -0.53,0.26 -1.06,0.92 -1.6,1.86 -3.06,4.78 -4.92,7.31 -5.44,7.84 -0.4,0.53 -1.2,1.06 -2.27,1.59 -3.18,6.25 -5.72,10.11 -7.84,11.71 -4.65,8.23 -9.3,15 -13.96,20.19 -3.58,3.58 -5.57,5.84 -5.84,6.64 -0.27,0.8 -0.93,1.6 -1.99,2.66 -3.06,4.65 -5.72,7.58 -7.71,8.64 -4.66,4.66 -7.45,7.32 -8.24,8.11 -0.79,0.8 -1.73,1.46 -2.65,1.99 -3.2,3.59 -5.59,6.51 -7.45,8.51 -1.86,2.13 -3.72,3.99 -5.85,5.45 -2.66,4.65 -4.26,7.31 -5.06,7.83 -0.78,0.54 -1.72,1.08 -2.78,1.6 -4.65,1.46 -7.45,2.53 -8.51,3.06 -5.71,3.59 -9.7,5.59 -12.09,5.85 -2.27,0.26 -4.79,0.66 -7.31,1.2 -5.71,1.59 -9.17,2.52 -10.24,3.05 -1.06,0.54 -1.98,0.8 -3.06,0.8 -5.17,0 -8.63,0.12 -10.09,0.4 -1.6,0.26 -3.46,-0.14 -5.45,-1.2 -2.66,1.06 -5.45,1.32 -8.63,0.8 -3.06,-0.54 -6.52,-0.8 -10.11,-0.8 -1.6,0 -3.32,0.26 -5.45,0.8 -2.12,0.52 -4.12,0.26 -6.24,-0.8 -4.13,0 -6.79,0.14 -7.71,0.4 -1.06,0.26 -2.14,0.14 -3.2,-0.4 -5.17,0 -8.23,-0.26 -9.3,-0.8 -3.18,0 -5.04,-0.13 -5.84,-0.4 -0.8,-0.13 -1.74,-0.26 -2.8,-0.26 -7.17,0.93 -11.82,1.32 -13.96,1.06 -2.12,-0.26 -4.38,-0.4 -7.03,-0.4 -7.71,0 -12.89,-0.13 -15.16,-0.4 -2.38,-0.13 -4.78,-0.26 -7.44,-0.26 -4.65,0 -7.45,0.13 -8.51,0.26 -1.06,0.27 -2.12,0.4 -3.19,0.4 -1.46,0 -3.06,-0.13 -4.64,-0.4 -1.6,-0.13 -3.06,-0.26 -4.65,-0.26 -4.12,0.4 -6.39,0.53 -6.65,0.26 -0.27,-0.13 -0.93,-0.26 -1.86,-0.26 -3.2,0 -6.52,0.13 -10.23,0.26 -3.6,0.27 -6.92,0.67 -10.11,1.2 -4.12,-0.53 -6.91,-0.8 -8.51,-0.8l-8.63 0.8 -9.31 -0.8c-5.71,1.06 -9.83,1.6 -12.49,1.6 -4.11,0 -6.91,0.26 -8.51,0.8 -5.71,0.52 -9.43,0.92 -11.29,1.2 -1.85,0.26 -3.45,0.4 -5.05,0.4 -7.31,0 -12.76,0 -16.34,0 -3.73,0 -7.31,0.26 -10.91,0.8 -3.71,-1.6 -5.85,-2.54 -6.65,-2.8 -0.78,-0.28 -1.72,-0.66 -2.78,-1.2 -4.65,0.54 -7.19,0.66 -7.71,0.4 -0.54,-0.26 -1.33,-0.4 -2.39,-0.4 -5.72,-1.46 -9.17,-2.52 -10.5,-3.05 -1.33,-0.54 -2.13,-1.6 -2.67,-3.2 -4.24,-1.46 -6.37,-2.66 -6.63,-3.45 -0.27,-0.8 -0.94,-0.93 -2,-0.4 -0.54,-2.12 -1.2,-3.86 -1.86,-5.44 -0.8,-1.6 -1.46,-3.6 -2,-6.25 0,-1.6 0.14,-3.2 0.4,-5.06 0.27,-1.86 0.4,-3.45 0.4,-5.05 0.54,-5.71 0.66,-12.49 0.4,-20.2 -0.26,-7.83 0.14,-14.34 1.06,-19.54 0.54,-5.71 0.8,-8.5 0.8,-8.5 1.06,-6.78 1.74,-10.9 2,-12.49 0.26,-1.6 0.66,-3.6 1.2,-6.25 0.52,-5.18 0.92,-9.43 1.19,-12.89 0.13,-3.32 0.26,-6.25 0.26,-8.91 -0.39,-3.06 -0.53,-5.31 -0.26,-6.64 0.13,-1.33 -0.13,-2.39 -1.19,-3.45 1.06,-2.14 1.32,-3.99 1.19,-5.85 -0.27,-1.86 -0.13,-3.72 0.26,-5.85 0,-5.72 0.14,-9.3 0.4,-10.9 0.27,-1.59 0.4,-2.93 0.4,-3.85 1.6,-5.19 2.12,-8.11 1.6,-8.65 -0.54,-0.52 -0.8,-1.32 -0.8,-2.26 -1.06,-2.65 -0.54,-6.51 1.6,-11.69 -1.07,-6.25 -1.34,-9.83 -0.8,-10.9 0.52,-1.06 0.8,-2.12 0.8,-3.18 -1.07,-4.65 -1.74,-7.45 -2,-8.51 -0.26,-1.06 -0.66,-2.13 -1.2,-3.19 0.54,-4.66 0.67,-7.18 0.4,-7.71 -0.26,-0.53 -0.4,-1.33 -0.4,-2.39 1.06,-6.25 1.6,-9.84 1.6,-10.9 -0.54,-6.77 -0.4,-10.89 0.4,-12.49 0.8,-1.46 1.2,-3.06 1.2,-4.65 0,-1.06 -0.4,-2.26 -1.2,-3.86 -0.8,-1.6 -1.46,-3.05 -2,-4.65 -0.93,-7.31 -1.06,-14.49 -0.26,-21.4 0.66,-7.05 0.8,-13.95 0.26,-20.73 -0.93,-6.12 -0.93,-11.83 0,-17.15 0,-3.59 -0.13,-7.31 -0.26,-11.16 -0.27,-3.98 -0.67,-7.71 -1.19,-11.29 0.52,-5.19 0.79,-8.11 0.79,-8.65l0.66 -24.05c-0.39,-2.66 -0.79,-5.06 -1.06,-7.04 -0.27,-2.13 -0.39,-4.39 -0.39,-7.05 0,-1.59 0.12,-3.19 0.39,-5.05 0.27,-1.86 0.4,-3.72 0.4,-5.84 0,-2.13 -0.27,-4.13 -0.79,-6.25 -0.54,-2 -0.8,-4.12 -0.8,-6.25 0.53,-6.25 0.66,-9.57 0.4,-10.09 -0.27,-0.54 -0.4,-1.34 -0.4,-2.27 0,-2.66 0.13,-5.04 0.4,-7.04 0.26,-2.13 -0.4,-4.25 -2,-6.25l0 -10.89c-1.6,-6.25 -2.12,-11.17 -1.86,-14.76 0.14,-3.72 0,-7.57 -0.4,-11.69 -0.54,-2.66 -0.8,-5.05 -0.8,-7.45 0,-2.38 -0.26,-5.58 -0.8,-9.69l-2.39 -10.11c0.54,-2.66 0.67,-6.25 0.4,-10.9 -0.26,-4.78 -0.66,-9.44 -1.2,-14.09l0 -10.09c-0.39,-6.79 -0.26,-11.71 0.8,-14.76 1.07,-3.18 1.07,-6.78 0,-10.89 1.6,-1.06 2.66,-2.66 3.19,-4.79 0.54,-2 1.34,-3.86 2.26,-5.46 8.37,-4.64 13.03,-7.69 14.09,-9.29 5.71,-1.06 9.04,-1.86 10.1,-2.4 7.31,0 12.23,0 14.75,0 2.66,0 4.93,-0.13 7.05,-0.66zm150.31 471.81c6.25,-1.46 9.97,-2.53 11.3,-3.06 1.33,-0.53 2.39,-0.79 3.46,-0.79 4.64,-4.66 7.57,-7.32 8.63,-7.71 6.25,-6.78 10.63,-10.51 13.17,-11.03 3.71,-3.6 5.57,-5.72 5.83,-6.12 0.28,-0.53 0.94,-1.06 2,-1.59 2.53,-3.2 4.25,-5.19 5.05,-6.25 0.8,-1.06 1.46,-2.13 2,-3.06 2,-1.06 3.45,-2.52 4.25,-4.38 0.8,-1.73 1.59,-3.19 2.66,-4.25 5.18,-6.78 8.63,-10.91 10.23,-12.51 3.06,-3.58 4.65,-5.57 4.65,-5.83 0,-0.28 0.27,-0.54 0.67,-1.06 4.25,-5.73 6.77,-8.91 7.84,-9.45 2.66,-4.12 3.98,-6.37 4.24,-6.51 0.28,-0.26 0.68,-0.4 1.2,-0.4 2.14,-3.72 3.46,-5.84 3.86,-6.64 0.53,-0.8 0.8,-1.47 0.8,-1.99 2.65,-3.06 3.85,-4.92 3.59,-5.46 -0.28,-0.53 0.12,-1.32 1.06,-2.25 2.12,-5.72 3.19,-8.64 3.19,-8.64 0.53,-1.07 1.33,-2.39 2.26,-3.85 1.06,-1.6 1.86,-3.2 2.38,-4.66 2.14,-5.71 3.6,-9.44 4.66,-10.9 1.07,-1.6 2.13,-3.72 3.19,-6.24 0.94,-3.73 1.72,-6.25 2.26,-7.85 0.54,-1.59 0.8,-3.31 0.8,-5.45 1.06,-5.71 1.06,-9.29 0,-10.89 0.54,-2.53 0.66,-4.52 0.4,-5.85 -0.26,-1.32 -0.66,-2.92 -1.2,-5.05 -1.6,-8.78 -2.4,-14.61 -2.66,-17.55 -0.26,-2.79 -1.46,-5.57 -3.59,-8.11 0.54,-2.65 0.27,-5.03 -0.79,-7.43 -0.93,-2.4 -1.99,-4.79 -3.07,-7.45 -1.58,-5.71 -2.38,-8.77 -2.38,-9.29 -3.59,-8.79 -6.11,-15.82 -7.71,-21.01 -1.6,-2.12 -2.39,-3.98 -2.39,-5.84 0,-1.86 -0.27,-3.33 -0.8,-4.26 -3.58,-7.31 -5.84,-11.96 -6.91,-14.08 -4.26,-5.19 -6.38,-8.11 -6.64,-8.91 -0.28,-0.8 -0.94,-1.73 -2,-2.79 -3.05,-5.18 -5.05,-8.24 -5.85,-9.3 -0.8,-1.07 -1.6,-2.13 -2.66,-3.06 -2.65,-4.79 -3.98,-7.58 -3.98,-8.64l-9.3 -11.69c-1.6,-4.13 -2.26,-6.39 -2.26,-6.65 0,-0.26 -0.28,-0.8 -0.8,-1.86 -4.25,-5.19 -6.91,-8.37 -8.25,-9.43 -1.32,-0.94 -2.12,-2 -2.65,-3.06 -3.18,-5.19 -5.58,-8.38 -7.44,-9.71 -1.86,-1.33 -3.46,-2.79 -5.05,-4.25 -3.6,-4.78 -5.45,-7.17 -5.45,-7.45 0,-0.26 -0.27,-0.4 -0.8,-0.4 -4.12,-3.58 -7.04,-5.44 -8.51,-5.44 -4.78,-3.59 -7.04,-5.99 -7.04,-7.05 -5.19,-3.58 -7.85,-5.45 -7.85,-5.45 -6.23,3.2 -9.29,7.05 -9.29,11.7 -0.54,6.78 -0.8,11.43 -0.8,14.09 0,1.46 0,3.19 0,5.05 0,1.72 -0.27,3.72 -0.8,5.85 -1.06,5.72 -1.59,9.3 -1.86,10.9 -0.27,1.46 -0.4,2.79 -0.4,3.85l0 20.2 0 15.56c0,3.72 0.13,6.37 0.4,8.23 0.27,1.86 0.13,3.99 -0.4,6.65l0 8.5c0,2.13 -0.13,4.39 -0.39,7.05 -0.27,2.65 -0.4,5.17 -0.4,7.83 1.99,4.65 2.52,8.11 1.59,10.51 -1.07,2.25 -1.59,4.79 -1.59,7.31 -0.54,2.65 -0.66,4.91 -0.4,7.05 0.26,2.12 0.4,4.38 0.4,7.03 0.52,6.25 0.79,10.91 0.79,13.96 -1.59,7.84 -2.25,13.29 -1.99,16.35 0.26,3.19 0.66,5.97 1.2,8.63l0 9.31c0.52,3.19 0.79,6.37 0.79,9.7 0,3.46 0.27,6.64 0.8,9.84 0.93,6.65 1.2,10.9 0.66,12.36 -0.53,1.6 -0.66,3.18 -0.66,4.65 0,4.78 -0.13,8.1 -0.4,10.23 -0.27,2 -0.4,4.38 -0.4,6.92 1.07,5.71 1.33,8.89 1.07,9.43 -0.27,0.53 -0.27,0.93 -0.27,1.46 0.93,15.68 1.2,28.44 0.66,38.55 -0.53,10.23 0,19.92 1.6,29.23 1.6,4.12 2.4,7.57 2.4,10.11 0.92,3.71 1.72,7.31 2.26,10.89 0.52,3.73 1.32,7.31 2.38,10.9l5.45 0z"/>
    <path class="fil4" d="M3321.66 1645.11c-4.78,2.66 -8.63,4.12 -11.69,4.66 -3.73,0 -6.11,-0.4 -7.45,-1.2 -1.32,-0.66 -2.66,-1.06 -4.25,-1.06 -2.13,-0.54 -4.26,-1.06 -6.64,-1.6 -2.4,-0.54 -3.99,-1.33 -5.05,-2.39 -3.06,0 -6.52,-0.8 -10.11,-2.26 -5.18,-0.53 -7.83,-0.93 -7.83,-1.2 0,-0.26 -0.28,-0.4 -0.8,-0.4 -2,-0.52 -4.66,-0.52 -7.71,0 -3.2,0.54 -5.99,0.8 -8.65,0.8 -0.92,0 -2.26,-0.26 -3.86,-0.8 -1.58,-0.52 -3.58,-0.8 -6.23,-0.8 -4.12,0.54 -7.31,0.68 -9.31,0.4 -2.12,-0.26 -4.12,-0.4 -6.25,-0.4 -5.72,1.08 -9.43,1.2 -11.29,0.4 -1.86,-0.8 -3.2,-1.2 -4.26,-1.2 -4.25,0.54 -7.83,0.68 -10.89,0.4 -3.19,-0.26 -5.99,-0.4 -8.64,-0.4l-14.75 0c-2.66,0.54 -5.05,0.94 -7.45,1.2 -2.26,0.28 -4.78,0.14 -7.31,-0.4 -5.18,-0.52 -10.23,-1.06 -14.88,-1.58 -4.66,-0.4 -9.31,-0.68 -13.95,-0.68 -3.2,0 -6.25,0.14 -9.45,0.4 -3.05,0.14 -6.37,0.54 -10.09,1.06 -1.47,0 -3.33,0 -5.45,0 -2,0 -3.86,0.28 -5.45,0.8 -5.72,2.66 -9.43,3.99 -11.29,4.26 -1.74,0.27 -3.46,0.67 -5.06,1.19 -2.53,1.6 -4.11,5.19 -4.65,10.91 -0.54,5.71 -1.06,11.43 -1.6,17.14 0,4.12 0.14,9.17 0.4,15.15 0.26,5.99 0.94,11.82 2,17.54 2.12,4.65 3.72,6.91 5.05,6.65 1.32,-0.26 2.52,-0.4 3.46,-0.4 3.18,0 5.05,0.14 5.83,0.4 0.8,0.26 1.74,0.4 2.8,0.4 1.06,0.53 2.26,0.8 3.86,0.8 1.59,0 3.19,0.26 4.65,0.79 6.25,0 10.23,-0.13 12.09,-0.4 1.86,-0.26 3.73,0.14 5.85,1.2 2.66,0.4 4.65,0.66 6.25,0.66 1.6,0 2.78,-0.26 3.86,-0.66 2.12,0 4.25,-0.27 6.63,-0.8 2.4,-0.53 4.52,-0.79 6.65,-0.79 2.52,0 4.92,0.13 7.04,0.39 1.99,0.27 4.65,0.67 7.71,1.2 2.66,0 4.53,0.13 5.85,0.26 1.34,0.27 2.52,0.14 3.46,-0.26 1.59,0 3.19,-0.14 4.79,-0.4 1.46,-0.27 3.05,-0.4 4.64,-0.4 7.18,-0.53 12.9,-1.33 17.15,-2.39 6.78,0.53 10.76,0.66 12.09,0.4 1.2,-0.26 3.2,-0.4 5.85,-0.4 6.12,-1.06 11.03,-1.46 14.75,-1.2 3.59,0.28 6.51,-0.12 8.51,-1.2 1.6,0.54 3.19,1.08 4.65,1.6 1.6,0.54 2.92,0.8 3.98,0.8 1.08,0 2.26,-0.4 3.86,-1.2 1.59,-0.8 3.05,-1.2 4.65,-1.2 1.6,0 3.19,0.4 4.65,1.2 1.6,0.8 3.46,0.66 5.46,-0.4 4.77,1.06 7.57,1.74 8.63,2 1.06,0.26 2,0.13 3.06,-0.4 0.53,1.6 1.33,2.79 2.39,3.45 1.06,0.8 2,2 3.06,3.6 2.12,8.23 3.19,14.08 3.19,17.54 0,3.32 -0.53,7.03 -1.59,11.29 -0.54,7.19 -1.08,11.7 -1.6,13.16 -0.54,1.6 -1.2,3.46 -2.26,5.45 -1.6,4.26 -2.26,6.92 -2,8.24 0.27,1.33 0.14,2.39 -0.4,3.45 -2.12,4.12 -3.05,7.05 -3.05,8.65 -0.54,6.11 -1.6,10.35 -3.2,12.35 0,1.6 -0.26,3.33 -0.79,5.05 -0.53,1.86 -0.53,3.86 0,5.86 -1.99,6.23 -2.92,10.36 -2.66,12.08 0.27,1.86 0.14,3.72 -0.4,5.86 -2.12,4.11 -3.32,6.91 -3.84,8.23 -0.54,1.2 -1.08,2.4 -1.6,3.46 -1.6,4.13 -3.59,8.37 -6.25,12.5 -4.65,2.52 -7.57,3.85 -8.51,3.85 -1.6,0 -3.32,-0.14 -5.18,-0.4 -1.73,-0.27 -3.99,-0.4 -6.51,-0.4 -7.31,-0.53 -11.7,-1.19 -13.29,-1.85 -1.59,-0.8 -3.33,-1.2 -5.45,-1.2 -6.25,1.06 -10.1,1.32 -11.7,0.8 -1.59,-0.54 -2.78,-0.8 -3.86,-0.8 -4.64,0 -7.69,-0.28 -9.03,-0.8 -1.2,-0.54 -2.39,-1.06 -3.46,-1.6 -5.71,0 -9.83,0.14 -12.48,0.4 -2.54,0.26 -5.19,-0.14 -7.71,-1.2 -6.25,0.54 -10.91,-0.26 -14.09,-2.26 -2.53,1.07 -5.05,1.2 -7.31,0.4 -2.4,-0.79 -4.39,-1.73 -5.85,-2.79 -4.26,0 -8.24,-0.14 -12.09,-0.4 -3.86,-0.26 -7.71,-0.4 -11.3,-0.4 -6.24,-1.06 -10.23,-1.2 -12.09,-0.8 -1.86,0.54 -3.2,0.8 -4.26,0.8 -1.59,0.54 -3.19,0.66 -4.65,0.4 -1.6,-0.26 -3.2,-0.4 -4.66,-0.4 -1.59,0.54 -3.05,0.94 -4.37,1.2 -1.2,0.26 -2.66,0.14 -4.26,-0.4 0,2.13 -0.14,4.12 -0.4,6.25 -0.26,2.12 -0.14,4.12 0.4,6.24 2.66,6.25 3.58,10.5 3.18,12.9 -0.52,2.26 -0.78,4.51 -0.78,6.51 0.52,2.12 0.78,5.18 0.78,9.43l0 8.51c0,1.6 0.14,3.06 0.28,4.26 0.26,1.32 0.4,2.78 0.4,4.37 0,1.46 -0.14,3.06 -0.4,4.66 -0.14,1.6 -0.28,2.79 -0.28,3.85 2,1.06 3.73,1.46 5.06,1.2 1.19,-0.26 3.19,-0.14 5.85,0.4 1.46,0 3.19,-0.14 5.05,-0.4 1.72,-0.26 3.98,-0.66 6.51,-1.2 1.6,0 3.18,-0.13 4.78,-0.4 1.46,-0.26 2.8,-0.4 3.86,-0.4 2.53,0 4.79,0.27 6.65,0.8 1.72,0.54 3.45,0.8 5.05,0.8 1.58,0 2.92,-0.14 4.25,-0.4 1.33,-0.26 2.78,-0.66 4.24,-1.2 3.74,-0.52 6.12,-0.66 7.45,-0.39 1.32,0.27 2.66,0.66 4.26,1.19 5.17,-0.53 8.11,-0.8 8.63,-0.8 1.46,0 3.73,0 6.51,0 2.94,0 5.59,0.27 8.25,0.8 5.18,1.06 7.97,1.6 8.5,1.6 5.72,-1.06 8.9,-1.46 9.44,-1.2 0.52,0.26 1.2,0.4 2.26,0.4 6.25,-1.06 10.1,-1.46 11.69,-1.2 1.6,0.27 2.93,0.4 3.85,0.4l21.94 0c4.11,-0.53 8.11,-0.92 11.96,-1.19 3.98,-0.27 7.44,-0.93 10.49,-1.86l12.51 -1.6c1.58,0.54 3.58,0.54 5.83,0 2.4,-0.52 4,-1.06 5.06,-1.6 6.25,-0.52 10.23,-1.32 12.1,-2.26 1.86,-1.06 3.44,-1.59 5.04,-1.59 1.6,-0.53 3.05,-0.79 4.25,-0.79 1.34,0 3.06,-0.27 5.06,-0.8 4.77,-1.07 7.97,-2.25 9.83,-3.85 1.73,-1.6 3.99,-1.08 6.51,1.6 4.25,1.98 5.99,3.97 5.45,5.83 -0.4,1.74 -0.4,2.94 0.14,3.46l3.85 8.51c1.06,3.72 1.59,5.85 1.86,6.65 0.26,0.8 0.66,2.26 1.2,4.25l0 30.43 -1.47 13.96c0.93,4.78 1.33,9.3 1.07,13.69 -0.27,4.38 -0.4,8.63 -0.4,12.89 0.53,7.71 1.32,13.68 2.38,17.81 -0.52,5.72 -0.66,10.63 -0.38,14.49 0.26,3.85 0.66,7.03 1.18,9.69 0.54,3.06 0.94,5.59 1.2,7.45 0.28,1.72 -0.12,4.78 -1.2,8.91 -1.58,3.58 -2.65,6.23 -3.18,7.83 -0.53,1.46 -1.46,2.8 -3.05,3.86 -1.08,4.11 -3.06,6.77 -6.26,7.85 -3.05,0.92 -7.57,1.72 -13.28,2.25 -3.06,0 -5.99,0.27 -8.91,0.8 -2.8,0.53 -5.58,0.53 -8.11,0 -2.12,0 -4.25,-0.27 -6.24,-0.8 -2.13,-0.53 -4.53,-0.8 -7.05,-0.8l-11.69 0c-3.59,-1.07 -6.12,-1.33 -7.45,-1.19 -1.19,0.26 -2.39,0.12 -3.45,-0.26 -6.25,-0.54 -10.11,-1.08 -11.69,-1.6 -1.6,-0.54 -2.8,-1.08 -3.86,-1.6 -3.59,-0.54 -7.05,-0.54 -10.1,0 -3.2,0.52 -6.25,0.8 -9.43,0.8 -5.72,0 -8.51,0.12 -8.51,0.4 0,0.26 -0.26,0.4 -0.8,0.4 -5.18,0.52 -8.51,0.52 -10.11,0 -1.58,-0.54 -3.18,-0.8 -4.64,-0.8 -1.59,0 -3.33,0.12 -5.05,0.4 -1.86,0.26 -3.59,0.4 -5.05,0.4 -1.6,0 -3.2,-0.28 -4.79,-0.8 -1.46,-0.54 -3.06,-0.8 -4.64,-0.8 -1.48,-0.54 -3.2,-0.66 -5.06,-0.4 -1.86,0.26 -3.72,0.4 -5.85,0.4 -4.65,-0.54 -7.31,-0.66 -7.71,-0.4 -0.52,0.26 -1.32,0.4 -2.38,0.4 -7.85,0.52 -13.16,0.92 -15.96,1.2 -2.92,0.26 -5.85,0.12 -8.91,-0.4 -4.24,0 -6.63,0.12 -7.43,0.4 -0.8,0.26 -1.74,0.66 -2.8,1.2 -4.65,0.52 -7.57,0.52 -8.91,0 -1.32,-0.54 -2.52,-0.8 -3.45,-0.8 -5.72,-0.54 -8.77,-0.54 -9.03,0 -0.27,0.52 -1.2,0.8 -2.66,0.8 -6.78,0 -11.03,-0.14 -12.89,-0.4 -1.86,-0.28 -3.99,-0.14 -6.65,0.4l-22.59 0c-3.06,-0.54 -6.25,-0.94 -9.31,-1.2 -3.06,-0.28 -6.5,-0.68 -10.09,-1.2l-29.65 0c-6.23,0 -9.57,0.12 -10.09,0.4 -0.54,0.26 -1.34,0.4 -2.4,0.4l-14.74 0c-5.73,1.06 -8.79,1.46 -9.31,1.2 -0.54,-0.28 -1.06,-0.4 -1.6,-0.4 -2.52,0 -4.77,0.12 -6.65,0.4 -1.72,0.26 -3.98,0.4 -6.63,0.4 -5.19,0 -9.97,0 -14.36,0 -4.38,0 -9.17,-0.28 -14.35,-0.8 -2.13,0 -4.12,-0.14 -5.85,-0.4 -1.86,-0.28 -3.86,-0.14 -5.85,0.4 -9.44,0.52 -15.01,-1.08 -17.15,-4.66 -2.65,-6.25 -3.85,-10.36 -3.85,-12.5 -1.6,-8.37 -2.92,-12.49 -3.98,-12.49l0.8 -12.48 0.78 -10.11c0,-4.65 0.14,-7.17 0.4,-7.71 0.28,-0.52 0.4,-1.32 0.4,-2.38 0,-4.66 0.28,-7.85 0.8,-9.31 0.54,-1.6 0.8,-3.19 0.8,-4.65 0,-4.78 0.14,-7.98 0.66,-9.83 0.54,-1.74 0.8,-4 0.8,-6.52 0,-6.25 0.27,-10.1 0.8,-11.3 0.53,-1.32 0.53,-3.32 0,-5.84 1.07,-4.65 1.59,-7.98 1.59,-9.84 0,-1.72 0.27,-3.72 0.8,-5.84 1.46,-5.59 2.52,-8.79 3.06,-9.31 0.54,-4.12 0.66,-8.25 0.4,-12.49 -0.26,-4.13 -0.4,-8.24 -0.4,-12.36 0,-1.6 0.26,-3.2 0.8,-4.65 0.54,-1.6 0.8,-3.2 0.8,-4.8 0,-1.98 -0.14,-3.98 -0.4,-5.83 -0.26,-1.74 -0.14,-3.46 0.4,-5.06 1.06,-6.25 1.46,-9.83 1.19,-10.9 -0.27,-1.06 -0.39,-1.98 -0.39,-3.06 0.52,-3.58 0.92,-6.37 1.19,-8.23 0.13,-1.74 0.26,-3.2 0.26,-4.26 0.54,-5.71 0.94,-8.51 1.2,-8.51 0.26,0 0.4,-0.26 0.4,-0.79 -0.53,-6.24 -0.66,-10.63 -0.4,-13.29 0.26,-2.52 0.4,-5.18 0.4,-7.71 0,-1.6 0,-3.32 0,-5.05 0,-1.86 -0.26,-3.32 -0.8,-4.38 0,-3.06 -0.13,-5.72 -0.4,-7.71 -0.26,-2.12 -0.4,-4.26 -0.4,-6.25 -0.39,-5.18 -0.66,-8.9 -0.66,-10.9 0,-2.13 0.13,-3.99 0.4,-5.85 0.13,-1.86 -0.13,-3.58 -1.19,-5.05 1.06,-2.66 1.45,-5.31 1.45,-8.23 0,-2.8 0,-5.59 0,-8.11 0,-2.66 -0.13,-5.06 -0.66,-7.44 -0.53,-2.39 -0.79,-5.05 -0.79,-8.25 0,-3.59 -0.14,-5.85 -0.4,-6.91 -0.27,-1.06 -0.4,-2.12 -0.4,-3.19 -1.06,-7.7 -1.06,-15.81 0,-24.06 0,-2.65 -0.14,-5.03 -0.4,-7.43 -0.26,-2.4 -0.4,-4.79 -0.4,-7.45 0,-4.12 -0.14,-8.11 -0.4,-11.95 -0.26,-3.99 -0.4,-7.71 -0.4,-11.3 0,-7.84 0.14,-12.77 0.4,-14.89 0.26,-1.99 -0.14,-4.11 -1.2,-6.25 1.06,-3.06 1.34,-6.24 0.8,-9.29 -0.54,-3.06 -0.8,-5.99 -0.8,-8.51 -0.52,-6.78 -0.52,-11.97 0,-15.68 -0.52,-1.46 -0.66,-3.06 -0.4,-4.66 0.28,-1.46 0.4,-2.79 0.4,-3.85 0,-2.12 -0.12,-4.12 -0.4,-6.25 -0.26,-2.12 0.14,-3.86 1.2,-5.44 -1.06,-6.79 -1.72,-11.57 -1.86,-14.36 -0.26,-2.92 -0.66,-5.58 -1.2,-8.24 -0.53,-5.19 -1.32,-9.04 -2.39,-11.7 -1.06,-2.52 -1.06,-5.71 0,-9.31l-2.26 -10.89c0.4,-6.77 0.4,-10.63 0,-11.69 -1.06,-7.31 -1.6,-11.96 -1.6,-13.96 1.08,-7.83 1.48,-12.76 1.2,-14.88 -0.26,-2 0.67,-3.86 2.66,-5.46 1.07,-3.05 1.99,-5.05 2.79,-5.85 0.66,-0.78 1.6,-1.58 2.66,-2.65 2.13,-2.66 3.99,-4.64 5.85,-6.24 1.86,-1.6 3.32,-2.66 4.26,-3.2 4.25,-1.46 8.09,-2.25 11.69,-2.25 5.19,-1.06 9.17,-1.6 11.7,-1.6l13.29 0c5.71,-0.52 9.3,-0.52 10.89,0 1.47,0.54 2.79,1.06 3.85,1.6l18.74 0c8.77,-1.06 16.36,-1.46 22.59,-1.2 6.12,0.26 12.37,0.66 18.62,1.2 1.58,0 3.18,0.13 4.64,0.39 1.6,0.27 3.19,0.4 4.79,0.4 5.18,0 7.84,-0.13 8.11,-0.4 0.26,-0.26 0.66,-0.39 1.2,-0.39 6.24,1.59 10.77,2.25 13.55,1.99 2.93,-0.27 5.59,-0.14 8.24,0.26 2.52,0 5.32,0.14 8.1,0.4 2.93,0.26 5.59,0.4 8.25,0.4 2.52,0.54 6.25,0.8 10.89,0.8 4.65,0 8.25,-0.26 10.9,-0.8 4.66,0 7.31,0.14 7.84,0.4 0.4,0.26 0.93,0.4 1.47,0.4 2.12,0 3.98,-0.14 5.44,-0.4 1.6,-0.26 3.19,-0.4 4.65,-0.4 4.8,-0.53 9.97,-0.53 15.69,0l20.21 0 17.94 -0.8c2.52,-0.93 4.64,-1.32 6.24,-1.06 1.46,0.27 3.33,0.4 5.45,0.4 7.71,0 13.82,-0.13 18.2,-0.4 4.53,-0.26 8.78,-0.4 12.9,-0.4 4.66,0 7.17,-0.13 7.44,-0.4 0.27,-0.26 0.67,-0.39 1.19,-0.39l8.51 1.59c5.72,0.53 9.43,0.53 11.29,0 1.88,-0.53 3.2,0 4.26,1.46 1.6,-1.06 3.99,-1.46 7.45,-1.46 3.32,0 5.57,0.4 6.65,1.46l11.69 -0.8c4.65,-0.4 7.71,-0.93 9.3,-1.46l9.3 -0.79c4.13,-0.54 7.05,-0.54 8.64,0 1.46,0.53 3.32,1.06 5.44,1.59 2,0.53 4,0.53 5.85,0 1.74,-0.53 3.46,-0.53 5.06,0 6.65,3.06 10.63,4.92 11.69,5.46 4.65,4.11 7.71,7.17 9.31,9.29 1.59,2.13 1.99,5.19 1.59,9.31 -1.06,4.65 -1.33,7.97 -0.8,9.7 0.54,1.86 0.8,3.58 0.8,5.18 -2.12,7.17 -3.45,11.57 -3.99,13.16 -1.98,5.18 -3.18,8.5 -3.46,9.7 -0.26,1.33 -0.12,2.53 0.4,3.59 -2.12,5.71 -3.05,9.31 -2.78,10.89 0.26,1.6 0.13,3.06 -0.4,4.65 0,1.6 -0.14,2.94 -0.4,4.26 -0.27,1.33 -0.53,2.79 -1.06,4.25l-1.59 8.64 -4.66 32.7c-0.54,2.65 -0.8,5.05 -0.8,7.45 0,2.25 -0.53,4.77 -1.59,7.29l-2.26 7.05z"/>
    <path class="fil4" d="M3953.88 2032.93c-1.07,0.53 -2.13,1.06 -3.45,1.59 -1.34,0.53 -3.06,0.53 -5.06,0 -1.06,1.07 -2.25,2.39 -3.59,4.25 -1.2,1.86 -2.66,3.46 -4.25,5.05 -3.58,2.12 -6.78,3.46 -9.3,4.26 -2.65,0.8 -5.45,1.99 -8.64,3.59 -6.12,2.52 -9.57,3.84 -10.1,3.84 -0.53,0 -1.07,0.28 -1.47,0.8 -5.18,1.6 -8.77,2.66 -10.63,3.46 -1.72,0.8 -3.72,1.73 -5.71,2.79 -3.18,1.46 -5.32,2.14 -6.24,1.86 -1.07,-0.26 -2.13,-0.12 -3.19,0.4 -3.6,1.6 -6.38,2.4 -8.11,2.4 -1.86,0 -3.32,0.26 -4.38,0.79 -4.66,1.46 -7.45,2.26 -8.51,2.26 -1.06,0 -2.14,0.26 -3.06,0.8 -4.79,1.6 -7.45,2.52 -8.25,2.8 -0.79,0.26 -1.72,0.66 -2.65,1.06l-11.69 2.39c-2.14,0.53 -4.12,1.06 -5.85,1.59 -1.86,0.53 -3.86,0.79 -5.86,0.79 -2.65,0.4 -5.57,0.68 -9.03,0.68 -3.32,0 -6.25,0 -8.91,0 -5.17,0 -8.77,-0.28 -10.89,-0.68 -4.65,-1.06 -7.31,-1.99 -7.84,-2.78 -0.53,-0.8 -1.2,-1.2 -2.26,-1.2 -8.37,-2.53 -13.83,-5.19 -16.35,-7.71 -3.71,-4.65 -6.11,-8.5 -7.45,-11.3 -1.32,-2.92 -2.38,-5.58 -3.45,-8.23 -2.12,-3.06 -3.32,-5.06 -3.58,-5.85 -0.28,-0.8 -0.68,-1.6 -1.07,-2.66 -1.06,-1.6 -2.13,-3.6 -3.19,-5.85 -1.06,-2.39 -2.13,-4.52 -3.05,-6.64 -1.6,-2.66 -2.54,-4.52 -2.8,-5.85 -0.26,-1.32 -1.19,-2 -2.65,-2 -2.12,-6.63 -4.52,-10.89 -7.05,-12.35 -1.06,-2.66 -2.39,-5.05 -3.85,-7.45 -1.59,-2.39 -3.19,-4.78 -4.65,-7.45 -2.66,-6.23 -4.39,-10.09 -5.19,-11.69 -0.66,-1.46 -1.32,-3.05 -1.86,-4.65l-5.45 -6.91c-3.18,-5.32 -4.78,-7.84 -5.04,-7.84 -0.28,0 -0.67,-0.27 -1.2,-0.79 -2.66,-4.12 -3.99,-6.52 -4.25,-7.05 -0.28,-0.53 -0.94,-1.2 -2,-2.26 -2.12,-5.72 -3.32,-8.91 -3.85,-9.43 -1.06,-2.54 -2.4,-5.19 -4,-7.71 -3.05,-4.12 -4.64,-6.52 -4.64,-7.05 0,-0.53 -0.27,-1.06 -0.8,-1.59 -0.93,-1.47 -1.99,-3.05 -3.05,-4.65 -1.08,-1.47 -2.14,-3.33 -3.2,-5.45 -1.46,-1.46 -2.92,-3.2 -4.25,-5.06 -1.32,-1.72 -2.4,-3.45 -3.46,-5.05 -0.52,-1.06 -1.19,-2.38 -1.99,-4.25 -0.8,-1.86 -1.59,-3.58 -2.66,-5.04 -1.06,-2.66 -2.12,-5.46 -3.18,-8.65 -1.08,-0.92 -1.86,-2.26 -2.66,-3.85 -0.8,-1.6 -1.47,-2.79 -2,-3.86 -1.99,-4.25 -3.59,-6.77 -4.65,-7.83 -2.12,-3.06 -3.59,-5.72 -4.65,-7.71 -4.12,-6.78 -6.64,-11.03 -7.44,-12.49 -0.8,-1.6 -1.47,-3.73 -1.87,-6.25 -2.66,-3.6 -3.98,-5.72 -3.98,-6.25 0,-0.53 -0.54,-0.8 -1.46,-0.8 -3.73,-6.24 -6.51,-10.37 -8.65,-12.49 -2.12,-5.18 -3.18,-7.71 -3.45,-7.71 -0.26,0 -0.4,-0.52 -0.4,-1.6 -2.66,-5.18 -5.44,-8.23 -8.63,-9.29 -1.46,1.06 -2.52,2.65 -3.06,5.04 -0.54,2.27 -1.06,4.79 -1.6,7.45l-0.8 8.5c0,5.72 -0.12,8.78 -0.4,9.3 -0.26,0.54 -0.39,1.33 -0.39,2.39 0,1.6 0.27,3.2 0.79,5.06 0.54,1.86 0.8,3.99 0.8,6.65 0,1.98 -0.26,4.11 -0.8,6.23 -0.52,2 -0.79,4.13 -0.79,6.26 0,2.52 -0.13,4.65 -0.27,6.11 -0.26,1.6 -0.4,2.66 -0.4,3.19l0.67 14.75c0.53,1.6 1.06,3.19 1.59,4.65 0.54,1.6 0.8,3.2 0.8,4.66 0.54,2.12 0.8,4.77 0.8,7.83 0,3.06 -0.26,5.45 -0.8,7.05 0,1.6 -0.14,3.32 -0.4,5.45 -0.26,1.99 -0.4,4.12 -0.4,6.24 0,0.94 0.14,2.93 0.4,5.85 0.26,2.8 0.14,5.58 -0.4,8.11 0,4.66 0.26,7.84 0.8,9.43 0.54,1.46 0.8,3.6 0.8,6.12 0.54,2.65 0.66,5.45 0.4,8.64 -0.26,3.06 0.14,5.98 1.2,8.5 0,4.65 -0.14,7.19 -0.4,7.45 -0.28,0.26 -0.4,0.66 -0.4,1.19 0,1.06 0.12,2.4 0.4,4.26 0.26,1.86 0.4,3.46 0.4,5.05 -0.54,5.18 -0.68,8.5 -0.4,9.7 0.26,1.33 0.4,2.53 0.4,3.59 0.52,3.06 0.8,5.58 1.06,7.31 0.26,1.86 0.66,3.58 1.19,5.05l3.19 11.69c0.53,5.72 0.93,8.91 1.47,9.43 0,4.66 0.12,7.05 0.4,7.32 0.26,0.26 0.4,0.66 0.4,1.19 -1.6,7.85 -2.27,12.63 -2.27,14.36 0,1.86 -0.53,3.58 -1.59,5.18 -4.13,5.18 -6.51,7.71 -7.05,7.71 -0.53,0 -0.8,0.52 -0.8,1.6 -4.11,2.52 -6.77,3.72 -8.11,3.45 -1.32,-0.27 -1.98,0.4 -1.98,1.99l-9.31 -1.59c-7.31,-1.07 -14.22,-1.87 -20.59,-2.25 -6.52,-0.54 -11.83,-1.08 -16.09,-1.6 -2.53,0 -5.05,0 -7.31,0 -2.39,0 -5.05,0.26 -8.24,0.8 -5.18,0.52 -8.5,0.52 -10.1,0 -1.59,-0.54 -3.05,-0.8 -4.65,-0.8 -1.06,0 -2.4,0.26 -3.86,0.8 -1.59,0.52 -3.71,1.06 -6.25,1.46 -2.65,-0.4 -5.43,-0.28 -8.63,0.79 -3.06,0.53 -5.97,0.93 -8.51,1.2 -2.66,0.26 -4.91,-0.13 -7.03,-1.2 -7.31,1.07 -12.51,2.13 -15.56,3.19 -5.18,1.07 -8.77,1.33 -10.49,0.79 -1.88,-0.52 -3.6,-0.79 -5.06,-0.79 -3.19,0 -5.05,-0.13 -5.85,-0.4 -0.8,-0.27 -1.72,-0.4 -2.79,-0.4l-9.3 -2.39c-6.25,-1.45 -9.44,-2.39 -9.7,-2.65 -0.27,-0.28 -0.94,-0.68 -2,-1.2 -3.58,-2.66 -6.11,-3.99 -7.44,-4.25 -1.19,-0.27 -2.65,-0.94 -4.25,-2 -0.54,-1.6 -1.2,-3.06 -1.86,-4.66 -0.8,-1.59 -1.46,-2.91 -2,-3.85 0,-2.12 0.14,-4.25 0.4,-6.24 0.27,-2.13 0.4,-4.13 0.4,-6.25 -0.53,-6.25 -0.53,-10.5 0,-12.89 0.53,-2.25 1.06,-4.79 1.46,-7.31 2.12,-4.25 3.2,-7.17 3.2,-9.04 0,-1.86 0,-3.18 0,-4.26 0.52,-4.11 1.32,-7.29 2.25,-9.29 -0.93,-5.19 -1.45,-8.91 -1.45,-10.91 0,-2.65 0.12,-5.17 0.39,-7.83 0.27,-2.53 0.39,-5.19 0.39,-7.85 1.47,-6.11 2.27,-11.43 2.27,-15.54 0,-1.46 -0.14,-2.92 -0.4,-4.26 -0.27,-1.33 -0.13,-2.79 0.4,-4.25 1.06,-4.12 1.32,-6.78 0.8,-7.84 -0.54,-1.07 -0.54,-2.25 0,-3.85 0,-5.72 0.12,-9.57 0.39,-11.7 0.27,-2.13 0.13,-4.92 -0.39,-8.51l-0.8 -9.44c0,-3.05 0,-6.25 0,-9.3 0,-3.18 -0.27,-6.24 -0.8,-9.3 0,-1.59 -0.13,-3.33 -0.4,-5.05 -0.27,-1.86 -0.4,-4.12 -0.4,-6.65 -0.39,-2.12 -0.53,-4.25 -0.27,-6.24 0.14,-2.13 -0.12,-4.13 -1.18,-6.25 1.06,-2.66 1.18,-5.31 0.78,-8.23 -0.52,-2.8 -0.78,-5.73 -0.78,-8.91 0,-3.06 0.39,-6.11 1.18,-8.91 0.67,-2.92 0.54,-5.57 -0.4,-8.23 0,-6.25 -0.12,-10.11 -0.39,-11.71 -0.27,-1.45 -0.13,-3.05 0.39,-4.65l0 -13.95c-0.52,-1.59 -0.66,-3.19 -0.39,-4.65 0.27,-1.6 0.39,-3.72 0.39,-6.25 0,-4.78 0.14,-7.44 0.4,-8.23 0.14,-0.8 0.27,-1.74 0.27,-2.66 -0.39,-6.25 -1.19,-10.51 -2.25,-12.5 1.58,-4.12 1.86,-9.44 0.8,-15.55l-0.8 -17.94c-1.6,-3.59 -2.4,-7.31 -2.4,-10.9 0.54,-7.3 0.54,-12.09 0,-14.49 -0.54,-2.26 -0.8,-4.78 -0.8,-7.31l0 -12.49c-0.4,-5.17 -0.4,-8.11 0,-8.51l-0.66 -11.69c-1.06,-3.71 -1.6,-6.51 -1.6,-8.64 0,-1.99 -0.26,-4.12 -0.79,-6.24 -1.06,-4.65 -1.46,-7.45 -1.2,-8.51 0.26,-1.06 0.14,-2.12 -0.4,-3.19 -2,-8.24 -3.06,-14.49 -3.06,-18.6 0,-4.12 0,-8.11 0,-11.71 -0.52,-1.58 -0.66,-3.18 -0.4,-5.04 0.26,-1.86 0.4,-3.59 0.4,-5.05 -0.52,-6.77 -0.8,-12.23 -0.8,-16.34 0,-4.26 -0.26,-8.39 -0.8,-12.51 0,-8.77 -0.26,-14.48 -0.79,-17.14 -0.53,-2.52 -0.8,-5.97 -0.8,-10.1 0.53,-3.18 0.67,-5.18 0.4,-6.24 -0.26,-1.06 -0.13,-2.13 0.4,-3.06 2.65,-7.85 5.71,-13.02 9.44,-15.68 3.58,-3.59 6.38,-5.59 8.51,-5.85 2.12,-0.14 4.12,-0.8 6.24,-1.86l10.1 -2.4c4.66,-1.46 9.57,-2.25 14.75,-2.25 2.13,0 3.99,0.13 5.45,0.4 1.6,0.26 3.46,0.13 5.45,-0.4 4.26,-1.06 6.92,-1.46 8.24,-1.2 1.33,0.26 2.53,0.14 3.45,-0.4l14.09 -2.4c1.07,0.54 2.79,0.28 5.45,-0.66 2.54,-1.06 4.66,-1.86 6.25,-2.39 4.12,-1.06 6.91,-1.86 8.51,-2.39 2.12,-0.53 3.98,-1.06 5.84,-1.85 1.86,-0.8 3.46,-1.74 5.05,-2.8 5.72,-2.53 8.91,-4.39 9.31,-5.45 6.77,-0.52 11.29,-1.06 13.69,-1.6 2.39,-0.4 4.79,-0.66 7.45,-0.66 5.71,1.46 9.16,2.12 10.49,1.86 1.33,-0.26 2.39,0.14 3.45,1.2 3.2,2.65 5.19,5.45 6.25,8.51 1.06,1.59 2.4,3.18 3.86,4.77 1.6,1.46 2.92,3.06 3.98,4.66 2.53,2.53 4.39,4.91 5.45,7.05 2.52,6.11 3.86,9.57 3.86,10.09 0,0.54 0.26,1.2 0.79,2.26 1.6,3.73 2.26,5.73 2.26,6.25 0,0.54 0.26,1.33 0.8,2.39 3.2,5.18 4.78,8.51 5.05,10.1 0.27,1.59 0.66,2.79 1.2,3.85 1.59,4.13 2.66,6.79 3.18,7.85 0.4,1.06 0.94,2.26 1.46,3.85 1.6,3.58 2.54,5.58 2.8,5.86 0.26,0.26 0.66,0.92 1.19,1.98 2.52,4.65 4.26,7.85 5.06,9.71 0.8,1.85 0.92,3.71 0.4,5.85 0.92,1.06 1.86,2.38 2.65,4.25 0.8,1.86 1.73,3.18 2.79,4.24 1.99,2.67 3.19,4.4 3.45,5.06 0.28,0.79 0.68,1.73 1.2,2.79 2.53,4.65 3.99,7.05 4.25,7.05 0.28,0 0.66,0.26 1.2,0.66 0.54,1.06 1.06,2.4 1.6,3.98 0.4,1.6 0.94,3.33 1.46,5.45 2.13,1.6 3.72,3.32 4.65,5.46 1.06,1.99 2.4,4.11 3.99,6.25 1.07,1.98 2.26,3.98 3.85,5.83 1.59,1.74 3.05,3.74 4.65,5.86 1.07,3.59 2.66,6.65 4.65,9.3 2.14,2.52 3.72,5.72 4.66,9.3 1.06,1.07 1.86,2.39 2.39,3.99 0.53,1.46 1.86,2.26 3.86,2.26 1.6,5.19 2.52,8.25 2.78,8.91 0.28,0.79 0.94,1.72 1.87,2.79 1.06,1.58 2.26,2.78 3.58,3.84 1.34,1.08 2.4,2.66 3.46,4.66 2.66,6.25 4.11,9.7 4.65,10.24l7.05 11.55c2.66,4.79 4.24,7.85 5.04,9.45 0.8,1.58 1.74,2.78 2.8,3.85 0.93,2.66 1.99,4.52 3.05,5.84 1.06,1.34 2.4,2.8 3.86,4.26 5.31,6.25 8.63,10.62 10.23,13.28 1.46,2.54 3.33,5.73 5.45,9.31 3.59,4.65 5.71,7.17 6.11,7.45 0.54,0.26 1.06,0.66 1.6,1.2 1.06,0.92 2.26,2.25 3.58,3.84 1.2,1.59 2.67,3.07 4.25,4.65 1.08,2.14 2.26,3.73 3.86,5.05 1.6,1.34 2.93,1.46 3.86,0.4 4.79,-0.53 7.84,-1.06 9.44,-1.59 1.06,-1.46 1.58,-3.18 1.86,-5.06 0.26,-1.72 0.66,-3.71 1.2,-5.83 0.52,-2.54 0.92,-4.8 1.18,-6.52 0.28,-1.86 0.4,-3.85 0.4,-5.85 0.54,-2.12 0.8,-4.12 0.8,-5.85 0,-1.86 0,-3.58 0,-5.04 1.07,-4.79 1.2,-7.31 0.8,-7.85 -0.53,-0.53 -0.8,-1.32 -0.8,-2.39 1.07,-3.58 1.33,-5.72 1.2,-6.12 -0.26,-0.52 -0.13,-1.32 0.26,-2.38 0,-1.6 0.4,-3.19 1.2,-5.05 0.79,-1.86 1.19,-3.46 1.19,-5.05 0.54,-1.6 0.68,-3.2 0.4,-4.66 -0.26,-1.6 -0.4,-3.19 -0.4,-4.65l0 -14.89c-0.52,-5.17 -1.06,-8.23 -1.59,-9.3 2.13,-5.18 2.65,-10.63 1.59,-16.35 -1.06,-5.71 -1.85,-10.63 -2.39,-14.88 -0.39,-6.11 -0.66,-11.69 -0.66,-16.62 0,-5.04 0.27,-10.89 0.66,-17.54 0.54,-3.18 0.93,-6.24 1.2,-9.43 0.27,-3.06 0.4,-6.25 0.4,-9.31 0,-1.6 -0.53,-4.38 -1.6,-8.5 0,-4.79 -0.13,-7.31 -0.26,-7.84 -0.26,-0.54 -0.4,-1.06 -0.4,-1.6 -0.53,-3.06 -0.8,-6.24 -0.8,-9.31 0,-3.05 -0.26,-6.24 -0.8,-9.29 0,-2.66 0,-5.05 0,-7.45 0,-2.38 -0.26,-4.78 -0.8,-7.44 -0.52,-4.65 -0.66,-7.84 -0.38,-9.7 0.26,-1.86 0.38,-3.46 0.38,-5.06 0,-9.83 0.28,-15.8 0.8,-17.94 3.06,-5.17 5.19,-8.23 6.25,-9.3 1.06,-1.06 2,-2.12 3.06,-3.18 4.11,-4.12 6.51,-5.86 7.05,-5.46 0.52,0.54 0.8,0.27 0.8,-0.66 4.64,-1.06 7.43,-1.59 8.49,-1.59 1.08,0 2.14,-0.27 3.2,-0.8 5.71,-2.12 9.17,-3.06 10.5,-3.06 1.32,0 2.38,-0.26 3.46,-0.8 3.58,0 6.77,-0.14 9.29,-0.4 2.66,-0.26 5.71,0.14 9.45,1.2 6.23,-0.54 9.83,-0.66 10.89,-0.4 1.06,0.26 2.25,0.4 3.85,0.4 6.25,-0.54 9.71,-0.54 10.51,0 0.8,0.4 1.72,0.66 2.78,0.66 4.13,0.54 7.71,0.94 10.9,1.2 3.06,0.26 6.24,0.94 9.31,2 1.58,0.53 3.18,0.79 5.04,0.79 1.86,0 3.99,0.27 6.65,0.8l9.31 0c4.64,0.93 7.57,1.32 8.63,1.06 0.94,-0.26 2.26,-0.4 3.86,-0.4 2.65,0 4.77,0.14 6.65,0.4 1.72,0.26 3.98,0.14 6.63,-0.4 5.72,-0.4 9.45,-0.53 11.31,-0.26 1.72,0.26 3.18,0.26 4.25,0.26 6.78,1.6 10.75,2.4 12.09,2.4 1.2,0 2.4,0.52 3.46,1.6 6.77,5.17 11.16,9.57 13.28,13.15 0.4,1.59 0.54,3.33 0.4,5.05 -0.26,1.86 -0.4,3.85 -0.4,5.85 -1.06,4.25 -1.46,7.04 -1.19,8.63 0.27,1.6 0.39,3.34 0.39,5.46 0,3.05 -0.39,6.37 -1.19,9.7 -0.79,3.32 -1.19,6.91 -1.19,10.49 0.53,3.2 0.26,6.78 -0.8,10.91 -1.07,4.25 -1.47,7.03 -1.47,8.63 -1.06,6.65 -1.86,11.03 -2.38,12.77 -0.54,1.85 -1.06,4.11 -1.6,6.63 -0.54,2.66 -0.8,4.79 -0.8,6.65 0,1.86 0,3.99 0,6.65 -0.4,5.72 -0.8,11.55 -1.06,17.54 -0.27,5.98 -0.14,11.69 0.4,17.41 0.4,4.25 0.4,8.51 0,12.9 -0.54,4.38 -0.8,8.77 -0.8,12.89 -0.53,10.36 -0.27,19.93 0.8,28.84 0,1.98 -0.14,4.38 -0.4,6.9 -0.27,2.67 -0.14,5.45 0.4,8.65l0 16.34c-0.54,5.71 -0.67,8.77 -0.4,9.31 0.26,0.52 0.4,1.06 0.4,1.59 -0.54,4.12 -1.07,8.5 -1.6,13.15 -0.53,4.79 -0.79,9.17 -0.79,13.3 -0.54,5.18 -0.66,8.24 -0.4,8.9 0.26,0.8 0.13,1.46 -0.4,1.99 -0.54,7.31 -0.54,11.71 0,13.29 0.53,1.47 0.53,3.06 0,4.65 -0.54,6.25 -0.66,9.71 -0.4,10.51 0.26,0.8 0.4,1.72 0.4,2.66 -0.54,7.31 -0.54,12.48 0,15.68 0.53,3.06 0.26,5.97 -0.8,8.51 1.06,2.66 1.33,5.57 0.8,9.03 -0.54,3.32 -0.8,6.77 -0.8,10.51l0.8 17.14c0,4.65 0.14,7.03 0.4,7.31 0.26,0.26 0.4,0.92 0.4,1.98 0.53,3.6 0.4,5.72 -0.4,6.25 -0.8,0.54 -0.94,1.34 -0.4,2.26 1.06,3.19 1.46,6.11 1.2,9.05 -0.27,2.78 -0.67,5.83 -1.2,8.89l0 18.74c0.53,2.53 0.93,4.92 1.2,6.91 0.26,2.14 0.92,4.26 1.99,6.25 -1.07,5.72 -0.8,11.69 0.66,17.94 1.6,6.25 3.2,12.23 4.78,17.94 0.94,3.06 1.74,6.39 2.27,9.71 0.53,3.32 1.06,6.64 1.59,9.69 0,4.66 0.27,9.17 0.79,13.3 0.54,4.12 0.8,8.24 0.8,12.49 -0.52,2.52 -1.19,5.06 -1.99,7.31 -0.79,2.4 -1.46,4.78 -1.99,7.45z"/>
    <path class="fil4" d="M4053.55 1561.78c4.8,-4.11 7.45,-6.25 8.25,-6.25 0.8,0 1.46,-0.26 2,-0.79 3.05,-4.12 4.91,-6.38 5.44,-6.92 2.53,-1.06 4.51,-2.38 5.85,-3.98 1.2,-1.45 2.39,-2.79 3.45,-3.85 2.12,-1.6 4,-3.06 5.86,-4.65 1.85,-1.6 3.71,-3.46 5.83,-5.46 5.19,-4.11 8.25,-6.51 9.31,-7.03 1.06,-0.54 2.14,-1.6 3.2,-3.06 3.05,-2.13 5.71,-4.39 7.71,-6.65 2.12,-2.4 4.91,-3.99 8.63,-5.05 4.12,-3.72 6.51,-5.72 6.91,-6.25 2.66,-1.06 5.18,-3.18 7.84,-6.24 4.65,-2.13 7.31,-3.33 7.84,-3.86 3.6,-3.71 5.86,-5.59 6.52,-5.85 0.79,-0.26 1.19,-1.46 1.19,-3.58 5.72,-3.59 9.04,-5.45 9.7,-5.45 0.8,0 1.73,-0.28 2.79,-0.66 2.54,-2.13 4.79,-3.59 6.65,-4.39 1.72,-0.8 3.72,-1.86 5.85,-3.46 5.72,1.06 9.83,-0.26 12.35,-3.85 2.66,0 4.66,0.13 5.86,0.4 1.32,0.26 3.05,-0.14 5.17,-1.2 6.65,1.59 10.65,3.32 11.57,5.45 2.13,2 3.33,3.72 3.59,5.05 0.26,1.32 0.92,2.38 1.86,3.46 5.71,7.31 9.71,11.43 11.69,12.49 0,1.59 0.54,2.92 1.6,4.25 1.06,1.32 2.13,2.52 3.05,3.6 1.06,2.51 2.26,4.77 3.6,6.51 1.32,1.86 2.39,4.11 3.45,6.63 2.66,4.66 5.18,9.17 7.84,13.29 3.05,4.13 4.65,7.05 4.65,8.51l5.45 7.05c3.06,4.65 4.78,7.04 5.06,7.04 0.26,0 0.66,0.27 1.2,0.79 1.06,0.94 1.72,2.4 2.25,4.26 0.53,1.86 1.32,3.19 2.39,4.25 2.13,3.06 4.65,5.72 7.84,7.85l6.92 7.7c3.19,4.13 4.91,6.91 5.45,8.24 0.52,1.33 1.06,2.4 1.59,3.46 2.66,4.12 3.85,7.71 3.85,10.49 0,2.94 0.53,5.59 1.59,8.25 -2.52,5.71 -3.85,8.51 -3.85,8.51 -1.06,2.12 -1.98,3.72 -2.78,4.65 -0.8,1.06 -1.6,2.38 -2.66,3.98 -2.13,3.06 -4.39,4.92 -7.05,5.45 -4.12,3.58 -6.91,5.46 -8.23,5.46 -1.2,0 -2.4,0.26 -3.46,0.79 -1.07,0.39 -2.4,1.07 -4.25,1.86 -1.86,0.8 -3.34,1.72 -4.26,2.78 -3.19,2.54 -5.19,4.14 -6.25,4.66 -1.06,0.54 -2.12,1.33 -3.19,2.26 -4.12,3.73 -6.52,6.11 -7.3,7.45 -0.8,1.32 -1.74,2.25 -2.8,2.79 -3.59,1.98 -5.59,3.32 -5.85,3.84 -0.26,0.54 -0.66,1.08 -1.2,1.6 -3.05,2 -4.91,3.46 -5.45,4.25 -0.52,0.8 -1.18,1.74 -2.26,2.66 -4.64,4.26 -7.31,7.05 -7.83,8.65 -0.54,1.59 -1.46,2.52 -3.06,3.05 -3.19,6.24 -5.19,9.97 -6.25,11.29 -1.06,1.34 -2.12,3.32 -3.18,5.86 -0.4,2.12 -0.93,5.05 -1.47,9.03 -0.53,3.85 -0.26,7.31 0.8,10.5 1.46,4.66 2.25,7.18 2.25,7.71 0,0.53 0.54,1.33 1.6,2.39 1.6,4.13 2.4,6.91 2.4,8.11 0,1.33 0.4,2.53 1.46,3.59 3.19,4.65 4.79,6.91 5.05,6.91 0.26,0 0.66,0.26 1.2,0.8 2.66,4.25 3.85,6.77 3.85,7.83 0,1.06 0.26,2.14 0.8,3.06 3.18,4.79 5.04,8.11 5.84,10.23 0.8,2 2.26,3.33 4.25,3.86 2.14,5.71 3.2,8.51 3.2,8.51 1.06,1.06 1.99,2.13 3.06,3.19 1.06,1.06 2.12,2 3.19,3.06 1.06,1.59 1.58,3.05 1.86,4.25 0.26,1.32 0.92,2.52 1.99,3.58 4.12,5.71 6.5,9.05 7.04,10.11 3.59,4.65 6.11,7.83 7.31,9.3 1.34,1.59 2.52,3.46 3.6,5.44l4.64 8.65c6.25,7.71 10.1,12.63 11.7,14.75 2.52,3.59 4.12,5.59 4.65,5.85 0.53,0.26 1.06,0.93 1.6,1.99 1.46,3.58 2.26,6.64 2.26,9.3 1.06,1.59 1.98,3.33 2.78,5.45 0.8,2.13 1.87,3.85 3.45,5.45 0.54,6.25 1.48,9.43 2.8,9.71 1.2,0.26 2.12,1.2 2.66,2.78 0.53,4.65 1.06,9.31 1.59,13.96 0.54,4.66 0.27,9.57 -0.79,14.75 -1.06,5.31 -2.4,10.5 -3.86,15.68 -2.12,4.65 -3.19,7.71 -3.19,9.31 -2.52,4.65 -3.85,7.85 -3.85,9.31 -3.07,4.25 -4.79,6.37 -5.05,6.63 -0.27,0.28 -0.67,0.94 -1.2,2 -2.53,3.59 -3.99,6.11 -4.25,7.31 -0.26,1.33 -0.94,2.52 -2,3.59 -1.06,1.06 -1.86,2.26 -2.65,3.86 -0.8,1.58 -2,3.18 -3.6,4.64 -3.05,4.65 -4.78,7.31 -5.04,7.85 -0.27,0.53 -0.4,1.06 -0.4,1.59 -3.05,5.72 -4.91,8.77 -5.45,9.3 -3.06,4.13 -5.45,6.78 -6.91,7.71 -1.6,1.07 -2.4,2.65 -2.4,4.79 -1.59,0.52 -2.78,1.46 -3.85,3.06 -1.06,1.59 -2.12,2.91 -3.18,3.85 -3.6,4.26 -5.45,6.64 -5.45,7.44 0,0.79 -0.27,1.46 -0.8,1.99 -4.12,4.12 -6.12,6.25 -6.12,6.25 -2.65,2.52 -4.11,4.12 -4.39,4.66 -0.26,0.52 -0.78,1.06 -1.86,1.46 -4.65,3.71 -7.31,5.71 -7.83,6.23 -2.54,3.2 -4.66,5.46 -6.25,7.05 -1.06,1.06 -2,2.26 -3.06,3.46 -1.06,1.33 -2.92,2 -5.45,2 -0.53,2.12 -1.32,3.58 -2.38,4.65 -1.08,1.06 -2,2.12 -3.06,3.18 -4.13,5.19 -6.51,7.71 -7.05,7.71 -0.54,0 -1.34,0.54 -2.4,1.6 -3.58,4.11 -5.71,6.25 -6.11,6.25 -3.72,3.58 -5.71,5.84 -6.24,6.63 -0.53,0.8 -1.33,1.6 -2.39,2.66l-9.31 8.65c-3.72,2.52 -5.98,4.12 -7.04,4.65 -1.07,0.53 -2.13,1.32 -3.05,2.26 -2.14,0 -4.13,0.4 -5.85,1.2 -1.86,0.8 -4.12,1.18 -6.65,1.18 -2.66,-0.52 -4.66,-1.06 -6.25,-1.58 -1.59,-0.54 -3.32,-0.8 -5.44,-0.8 -7.31,-6.25 -12.63,-11.03 -15.96,-14.36 -3.32,-3.32 -6.64,-6.91 -9.69,-10.49 -1.06,-1.6 -2.14,-3.2 -3.2,-4.66 -1.06,-1.59 -2.26,-2.93 -3.85,-3.99 -3.18,-3.58 -5.46,-6.11 -7.04,-7.71 -1.6,-1.58 -3.06,-3.45 -4.65,-5.44 -2.66,-4.13 -6.52,-8.37 -11.71,-12.5 -1.06,-1.06 -1.98,-2.26 -2.65,-3.46 -0.8,-1.32 -1.46,-2.78 -2,-4.37 -3.06,-3.06 -4.92,-4.92 -5.44,-5.46 -0.54,-0.4 -1.33,-1.19 -2.39,-2.25 -3.6,-3.2 -5.72,-5.06 -6.12,-5.86 -0.53,-0.79 -1.33,-1.19 -2.39,-1.19 -4.12,-5.72 -6.78,-9.04 -7.84,-10.1 -0.93,-1.06 -1.99,-2.39 -3.05,-3.85 -1.6,-2.14 -2.94,-3.72 -3.86,-4.79 -1.06,-0.93 -1.6,-2.26 -1.6,-3.86 -4.11,-5.71 -6.51,-8.77 -7.05,-9.29 -0.52,-0.54 -1.32,-1.6 -2.25,-3.2 -1.06,-1.46 -1.6,-3.31 -1.6,-5.45 0,-1.99 -0.52,-4.12 -1.58,-6.11 1.06,-1.6 1.18,-3.06 0.39,-4.38 -0.79,-1.2 -0.67,-2.93 0.39,-5.05 1.6,-5.19 2.79,-8.65 3.86,-10.51 1.07,-1.86 2.13,-3.98 3.19,-6.63 2.52,-0.54 4.52,-1.46 5.85,-3.06 1.2,-1.6 3.18,-2.66 5.84,-3.2 4.65,-3.59 8.78,-7.17 12.36,-10.89 4.79,-4.13 7.05,-6.12 7.05,-6.12 2.66,-4.24 4.26,-6.24 5.06,-6.24 0.79,0 0.92,-0.54 0.39,-1.6 2.13,-1.06 3.98,-2.39 5.84,-3.85 1.86,-1.6 3.46,-3.2 5.06,-4.66 1.06,-1.06 2.13,-2.12 3.19,-3.18 0.92,-1.07 1.46,-2.53 1.46,-4.65 4.65,-4.66 7.31,-7.31 7.83,-7.85 0.54,-0.52 1.34,-1.2 2.28,-2.26 2.65,-5.71 3.97,-8.63 3.97,-8.63 3.6,-5.71 6.26,-12.63 7.72,-21 0.53,-1.07 0.66,-2.53 0.39,-4.65 -0.26,-2.14 -0.13,-4.13 0.4,-6.25 1.06,-4.12 0.8,-8.24 -0.79,-12.49 -1.46,-4.13 -3.06,-8.77 -4.66,-13.96 -1.99,-6.25 -3.59,-11.97 -4.65,-17.14 -2.12,-5.18 -3.86,-8.91 -5.44,-10.91 -2.53,-4.12 -4.26,-6.51 -5.05,-7.03 -0.8,-0.54 -1.46,-1.34 -2,-2.26 -2,-3.2 -3.86,-5.32 -5.45,-6.65 -1.46,-1.32 -2.52,-3.32 -3.06,-5.85 -5.18,-4.12 -8.11,-7.04 -8.63,-8.64 -3.6,-4.11 -5.59,-6.25 -5.85,-6.51 -0.14,-0.26 -0.27,-0.66 -0.27,-1.2 -3.19,-2.65 -4.91,-4.25 -5.19,-5.05 -0.26,-0.8 -0.79,-1.72 -1.85,-2.78 -3.2,-5.19 -5.06,-7.59 -5.86,-7.31 -0.8,0.12 -1.18,-0.14 -1.18,-1.2 -3.59,-5.71 -6.25,-9.43 -7.85,-10.91 -3.59,-5.17 -5.71,-8.63 -6.11,-10.09 -0.54,-1.59 -1.34,-3.45 -2.4,-5.59 -2.12,-4.11 -3.05,-7.17 -3.05,-9.29 -1.06,-4.13 -1.86,-6.39 -2.4,-6.65 -0.52,-0.26 -0.78,-0.8 -0.78,-1.86 -1.08,-2.13 -1.88,-5.19 -2.28,-9.43 -0.52,-2 -0.78,-3.73 -0.78,-5.06 0,-1.19 -0.54,-2.93 -1.6,-5.05 -0.54,-4.65 -0.93,-7.97 -1.2,-10.1 -0.26,-2.12 -0.66,-4.92 -1.19,-8.5 -0.94,-4.25 -1.34,-6.51 -1.06,-7.05 0.26,-0.54 0.39,-1.33 0.39,-2.39 0.4,-1.06 0.4,-2.52 0,-4.66 -0.53,-1.98 -0.53,-3.85 0,-5.44l3.86 -14.76c1.58,-4.65 2.66,-7.83 3.46,-9.3 0.79,-1.59 0.92,-2.92 0.4,-3.98 3.18,-5.19 4.91,-8.37 5.43,-9.71 0.54,-1.32 1.34,-2.78 2.4,-4.26 1.46,-2.12 2.4,-3.71 2.66,-4.64 0.26,-1.07 0.66,-2.39 1.19,-3.99 4.66,-5.71 8.38,-9.7 11.29,-12.09 2.8,-2.27 5.59,-4.79 8.11,-7.31l0 -1.6z"/>
   </g>
   <path class="fil5" d="M2458.98 2622.77l67.76 -202.1 105.42 0.33 -173.18 201.77zm-41.24 22.47l-78.5 -223.29 153.18 -0.85 -74.68 224.14zm-217.46 -222.85l105.08 -1.49 70.72 200.78 -175.8 -199.29zm389.47 -100.95c8.05,7.39 44.7,60.25 46.81,70.5l-92.94 -1.34 46.13 -69.16zm-172.33 -5.06l63.32 75.41 -129.04 -1.43 65.72 -73.98zm-220.87 75.51c2.83,-11.28 39.13,-60.06 47.73,-70.84l44.49 70.62 -92.22 0.22zm320.39 -11.65c-9.77,-6.31 -58.04,-58.68 -64.87,-73.12l107.55 0.03c-7.48,25.27 -34.51,46.83 -42.68,73.09zm-243.6 -73.07l109.35 0.84 -63.59 72.15 -45.76 -72.99zm409.5 101.19c-4.66,-19.49 -68.16,-106.12 -83.9,-130.17l-364.94 -0.48c-92.74,156.23 -112.14,102.45 -28.32,197.31l193.11 224.14c21.09,20.3 36.88,-2.22 50.22,-18.47 40.43,-49.28 225.38,-251.82 233.83,-272.33z"/>
   <path class="fil6" d="M2039.9 1170.8l0 36.83 -46.98 0 0 44.94 43.26 0 0 35.48 -43.26 0 0 75.7 46.98 0 0 36.5 -83.47 0.68 0 -230.13 83.47 0zm71.83 130.77c7.21,0 10.81,3.61 10.81,10.81l0 41.57c0,7.21 -3.6,10.82 -10.81,10.82l-50.01 0 0 36.16 75.69 -0.68c6.08,0 11.27,-2.15 15.54,-6.41 4.29,-4.29 6.43,-9.35 6.43,-15.22l0 -92.59c0,-5.85 -2.14,-10.93 -6.43,-15.2 -4.27,-4.28 -9.46,-6.43 -15.54,-6.43l-28.05 0c-7.2,-0.22 -10.81,-3.83 -10.81,-10.87l0.33 -34.36c0,-7.26 3.61,-10.87 10.83,-10.87l51.02 0 -0.34 -37.17 -76.03 0.67c-6.09,0 -11.21,2.15 -15.38,6.43 -4.16,4.27 -6.25,9.46 -6.25,15.55l0 86.16c0,5.87 2.09,10.93 6.25,15.22 4.17,4.28 9.29,6.41 15.38,6.41l27.37 0zm183.36 -93.94l-38.2 0 0 193.3 -36.5 0 0 -193.3 -37.83 0 0 -36.83 112.53 0 0 36.83zm58.65 -36.83l0 229.45 -36.83 0.68 0 -230.13 36.83 0zm58.64 0l0 192.95 55.43 0 0 36.5 -92.59 0.68 0 -230.13 37.16 0zm113.74 0l0 229.45 -36.83 0.68 0 -230.13 36.83 0zm71.49 130.77c7.21,0 10.81,3.61 10.81,10.81l0 41.57c0,7.21 -3.6,10.82 -10.81,10.82l-50.01 0 0 36.16 75.69 -0.68c6.08,0 11.27,-2.15 15.54,-6.41 4.28,-4.29 6.43,-9.35 6.43,-15.22l0 -92.59c0,-5.85 -2.15,-10.93 -6.43,-15.2 -4.27,-4.28 -9.46,-6.43 -15.54,-6.43l-28.05 0c-7.2,-0.22 -10.81,-3.83 -10.81,-10.87l0.33 -34.36c0,-7.26 3.61,-10.87 10.83,-10.87l51.02 0 -0.34 -37.17 -76.03 0.67c-6.09,0 -11.21,2.15 -15.38,6.43 -4.16,4.27 -6.25,9.46 -6.25,15.55l0 86.16c0,5.87 2.09,10.93 6.25,15.22 4.17,4.28 9.29,6.41 15.38,6.41l27.37 0zm183.36 -93.94l-38.2 0 0 193.3 -36.5 0 0 -193.3 -37.83 0 0 -36.83 112.53 0 0 36.83zm79.37 112.87l37.74 0 -18.99 -75.93 -18.75 75.93zm48.38 37.17l-58.97 0 -10.42 43.26 -34.86 0 58.8 -229.46 31.77 0c0.45,0 20.28,76.49 59.48,229.46l-34.92 0 -10.88 -43.26z"/>
  </g>
 </g>
</svg>
