<?xml version="1.0" encoding="UTF-8"?>
<!DOCTYPE svg PUBLIC "-//W3C//DTD SVG 1.1//EN" "http://www.w3.org/Graphics/SVG/1.1/DTD/svg11.dtd">
<!-- Creator: CorelDRAW 2017 -->
<svg xmlns="http://www.w3.org/2000/svg" xml:space="preserve" width="50.7998mm" height="33.8666mm" version="1.1" style="shape-rendering:geometricPrecision; text-rendering:geometricPrecision; image-rendering:optimizeQuality; fill-rule:evenodd; clip-rule:evenodd"
viewBox="0 0 5079.98 3386.66"
 xmlns:xlink="http://www.w3.org/1999/xlink">
 <defs>
  <style type="text/css">
   <![CDATA[
    .str0 {stroke:#ED3237;stroke-width:70.56;stroke-miterlimit:22.9256}
    .fil0 {fill:none}
    .fil2 {fill:#373435}
    .fil4 {fill:#FEFEFE}
    .fil3 {fill:#373435;fill-rule:nonzero}
    .fil5 {fill:#ED3237;fill-rule:nonzero}
    .fil1 {fill:#FEFEFE;fill-rule:nonzero}
   ]]>
  </style>
 </defs>
 <g id="Capa_x0020_1">
  <metadata id="CorelCorpID_0Corel-Layer"/>
  <rect class="fil0" x="-0" width="5079.99" height="3386.66"/>
  <g id="_1746611025136">
   <g id="_2189112263984">
    <g>
     <path class="fil1" d="M371.66 755.98l-177.05 0 0 -49.12 177.05 0 25.03 24.56 -25.03 24.56zm0 -49.12c13.82,0 25.03,11 25.03,24.56 0,13.56 -11.21,24.56 -25.03,24.56l0 -49.12zm-25.04 236.85l0 -212.29 50.07 0 0 212.29 -25.03 24.56 -25.04 -24.56zm50.07 0c0,13.56 -11.21,24.56 -25.03,24.56 -13.83,0 -25.04,-11 -25.04,-24.56l50.07 0zm-202.08 -24.56l177.05 0 0 49.12 -177.05 0 -25.03 -24.56 25.03 -24.56zm0 49.12c-13.82,0 -25.03,-11 -25.03,-24.56 0,-13.55 11.21,-24.56 25.03,-24.56l0 49.12zm25.04 -236.85l0 212.29 -50.07 0 0 -212.29 25.03 -24.56 25.04 24.56zm-50.07 0c0,-13.56 11.21,-24.56 25.03,-24.56 13.83,0 25.04,11 25.04,24.56l-50.07 0z"/>
     <polygon id="_1" class="fil2" points="194.61,731.42 371.66,731.42 371.66,943.71 194.61,943.71 "/>
    </g>
    <g>
     <path class="fil3" d="M835.38 1087.78l-118.04 0 0 -49.12 118.04 0 25.04 24.56 -25.04 24.56zm0 -49.12c13.83,0 25.04,11.01 25.04,24.56 0,13.56 -11.21,24.56 -25.04,24.56l0 -49.12zm-25.03 178.97l0 -154.41 50.07 0 0 154.41 -25.04 24.55 -25.03 -24.55zm50.07 0c0,13.55 -11.21,24.55 -25.04,24.55 -13.82,0 -25.03,-11 -25.03,-24.55l50.07 0zm-143.08 -24.56l118.04 0 0 49.11 -118.04 0 -25.03 -24.55 25.03 -24.56zm0 49.11c-13.82,0 -25.03,-11 -25.03,-24.55 0,-13.56 11.21,-24.56 25.03,-24.56l0 49.11zm25.04 -178.96l0 154.41 -50.07 0 0 -154.41 25.03 -24.56 25.04 24.56zm-50.07 0c0,-13.55 11.21,-24.56 25.03,-24.56 13.83,0 25.04,11.01 25.04,24.56l-50.07 0z"/>
     <polygon id="_1_0" class="fil4" points="717.34,1063.22 835.38,1063.22 835.38,1217.63 717.34,1217.63 "/>
    </g>
    <g>
     <path class="fil3" d="M1025.14 614.65l-511.49 0 0 -49.12 511.49 0 25.03 24.56 -25.03 24.56zm0 -49.12c13.82,0 25.03,11 25.03,24.56 0,13.56 -11.21,24.56 -25.03,24.56l0 -49.12zm-25.04 371.95l0 -347.39 50.07 0 0 347.39 -25.03 24.56 -25.04 -24.56zm50.07 0c0,13.56 -11.21,24.56 -25.03,24.56 -13.83,0 -25.04,-11 -25.04,-24.56l50.07 0zm-536.52 -24.55l511.49 0 0 49.11 -511.49 0 -25.04 -24.56 25.04 -24.55zm0 49.11c-13.83,0 -25.04,-11 -25.04,-24.56 0,-13.55 11.21,-24.55 25.04,-24.55l0 49.11zm25.03 -371.95l0 347.39 -50.07 0 0 -347.39 25.04 -24.56 25.03 24.56zm-50.07 0c0,-13.56 11.21,-24.56 25.04,-24.56 13.82,0 25.03,11 25.03,24.56l-50.07 0z"/>
     <polygon id="_1_1" class="fil4" points="513.65,590.09 1025.14,590.09 1025.14,937.48 513.65,937.48 "/>
    </g>
    <g>
     <path class="fil1" d="M674.16 1226.44l-50.07 0 0 0 -0.26 -8.47 -0.69 -8.34 -1.16 -8.22 -1.62 -8.12 -2.04 -7.95 -2.47 -7.78 -2.88 -7.67 -3.29 -7.49 -3.68 -7.32 -4.09 -7.15 -4.43 -6.94 -4.82 -6.72 -5.2 -6.56 -5.5 -6.31 -5.85 -6.05 -6.2 -5.83 -6.49 -5.58 -6.8 -5.27 -7.09 -5.01 -7.34 -4.69 -7.64 -4.4 -7.9 -4.06 -8.11 -3.74 -8.37 -3.39 -8.57 -3.04 -8.8 -2.67 -8.96 -2.31 -9.14 -1.88 -9.35 -1.5 -9.49 -1.09 -9.65 -0.64 -9.79 -0.24 0 -49.12 12.08 0.27 11.97 0.82 11.8 1.35 11.61 1.86 11.44 2.36 11.22 2.87 10.97 3.33 10.73 3.81 10.49 4.25 10.22 4.7 9.92 5.13 9.63 5.53 9.34 5.96 8.96 6.35 8.64 6.7 8.28 7.09 7.89 7.44 7.54 7.8 7.11 8.13 6.66 8.4 6.27 8.77 5.8 9.06 5.31 9.32 4.84 9.6 4.33 9.87 3.81 10.08 3.27 10.34 2.69 10.54 2.12 10.7 1.55 10.9 0.93 11.04 0.32 11.18 0 0zm-237.74 215.55l0 -49.12 0 0 9.79 -0.24 9.65 -0.64 9.49 -1.08 9.35 -1.5 9.14 -1.89 8.96 -2.31 8.8 -2.67 8.57 -3.04 8.37 -3.38 8.11 -3.75 7.9 -4.06 7.64 -4.4 7.34 -4.68 7.09 -5.01 6.8 -5.28 6.49 -5.58 6.2 -5.82 5.85 -6.05 5.5 -6.32 5.2 -6.56 4.82 -6.72 4.43 -6.94 4.09 -7.15 3.68 -7.31 3.29 -7.5 2.88 -7.67 2.47 -7.77 2.04 -7.96 1.62 -8.11 1.16 -8.23 0.69 -8.34 0.26 -8.47 50.07 0 -0.32 11.18 -0.93 11.05 -1.55 10.89 -2.12 10.71 -2.69 10.54 -3.27 10.33 -3.81 10.08 -4.33 9.87 -4.84 9.6 -5.31 9.32 -5.8 9.06 -6.27 8.77 -6.66 8.4 -7.11 8.13 -7.54 7.81 -7.89 7.43 -8.28 7.09 -8.64 6.7 -8.96 6.35 -9.34 5.96 -9.63 5.53 -9.92 5.13 -10.22 4.7 -10.49 4.25 -10.73 3.81 -10.97 3.33 -11.22 2.87 -11.44 2.36 -11.61 1.86 -11.8 1.35 -11.97 0.82 -12.08 0.27 0 0zm-237.75 -215.55l50.07 0 0 0 0.26 8.47 0.69 8.34 1.16 8.23 1.62 8.11 2.04 7.96 2.47 7.77 2.88 7.67 3.29 7.5 3.69 7.31 4.08 7.15 4.43 6.96 4.82 6.72 5.17 6.52 5.53 6.34 5.86 6.06 6.19 5.83 6.48 5.56 6.79 5.26 7.09 5.03 7.38 4.69 7.61 4.39 7.91 4.06 8.11 3.75 8.34 3.38 8.6 3.04 8.8 2.67 8.96 2.31 9.14 1.89 9.36 1.5 9.48 1.08 9.65 0.64 9.8 0.24 0 49.12 -12.09 -0.27 -11.97 -0.82 -11.8 -1.35 -11.61 -1.86 -11.43 -2.36 -11.23 -2.87 -10.97 -3.33 -10.73 -3.81 -10.51 -4.25 -10.2 -4.7 -9.93 -5.13 -9.64 -5.54 -9.3 -5.95 -9 -6.33 -8.63 -6.72 -8.3 -7.11 -7.88 -7.43 -7.52 -7.79 -7.11 -8.12 -6.69 -8.43 -6.24 -8.77 -5.8 -9.04 -5.31 -9.32 -4.84 -9.6 -4.33 -9.87 -3.8 -10.08 -3.28 -10.33 -2.69 -10.54 -2.12 -10.71 -1.55 -10.89 -0.93 -11.05 -0.32 -11.18 0 0zm237.75 -215.55l0 49.12 0 0 -9.8 0.24 -9.65 0.64 -9.48 1.09 -9.36 1.5 -9.14 1.88 -8.96 2.31 -8.8 2.67 -8.6 3.04 -8.34 3.39 -8.11 3.74 -7.91 4.06 -7.61 4.39 -7.38 4.7 -7.09 5.02 -6.79 5.26 -6.48 5.56 -6.19 5.83 -5.86 6.07 -5.53 6.33 -5.17 6.53 -4.82 6.71 -4.43 6.96 -4.08 7.15 -3.69 7.32 -3.29 7.49 -2.88 7.67 -2.47 7.78 -2.04 7.95 -1.62 8.12 -1.16 8.22 -0.69 8.34 -0.26 8.47 -50.07 0 0.32 -11.18 0.93 -11.04 1.55 -10.9 2.12 -10.7 2.69 -10.54 3.28 -10.34 3.8 -10.08 4.33 -9.87 4.84 -9.6 5.31 -9.32 5.8 -9.04 6.24 -8.77 6.69 -8.43 7.11 -8.12 7.52 -7.79 7.88 -7.43 8.3 -7.11 8.63 -6.72 9 -6.33 9.3 -5.95 9.64 -5.54 9.93 -5.13 10.2 -4.7 10.51 -4.25 10.73 -3.81 10.97 -3.33 11.23 -2.87 11.43 -2.36 11.61 -1.86 11.8 -1.35 11.97 -0.82 12.09 -0.27 0 0z"/>
     <path id="_1_2" class="fil2" d="M436.42 1035.45c117.47,0 212.7,85.51 212.7,190.99 0,105.48 -95.23,190.99 -212.7,190.99 -117.49,0 -212.71,-85.51 -212.71,-190.99 0,-105.48 95.22,-190.99 212.71,-190.99z"/>
    </g>
    <g>
     <path class="fil1" d="M371.66 755.98l-177.05 0 0 -49.12 177.05 0 25.03 24.56 -25.03 24.56zm0 -49.12c13.82,0 25.03,11 25.03,24.56 0,13.56 -11.21,24.56 -25.03,24.56l0 -49.12zm-25.04 236.85l0 -212.29 50.07 0 0 212.29 -25.03 24.56 -25.04 -24.56zm50.07 0c0,13.56 -11.21,24.56 -25.03,24.56 -13.83,0 -25.04,-11 -25.04,-24.56l50.07 0zm-202.08 -24.56l177.05 0 0 49.12 -177.05 0 -25.03 -24.56 25.03 -24.56zm0 49.12c-13.82,0 -25.03,-11 -25.03,-24.56 0,-13.55 11.21,-24.56 25.03,-24.56l0 49.12zm25.04 -236.85l0 212.29 -50.07 0 0 -212.29 25.03 -24.56 25.04 24.56zm-50.07 0c0,-13.56 11.21,-24.56 25.03,-24.56 13.83,0 25.04,11 25.04,24.56l-50.07 0z"/>
     <polygon id="_1_3" class="fil2" points="194.61,731.42 371.66,731.42 371.66,943.71 194.61,943.71 "/>
    </g>
    <g>
     <path class="fil3" d="M835.38 1087.78l-118.04 0 0 -49.12 118.04 0 25.04 24.56 -25.04 24.56zm0 -49.12c13.83,0 25.04,11.01 25.04,24.56 0,13.56 -11.21,24.56 -25.04,24.56l0 -49.12zm-25.03 178.97l0 -154.41 50.07 0 0 154.41 -25.04 24.55 -25.03 -24.55zm50.07 0c0,13.55 -11.21,24.55 -25.04,24.55 -13.82,0 -25.03,-11 -25.03,-24.55l50.07 0zm-143.08 -24.56l118.04 0 0 49.11 -118.04 0 -25.03 -24.55 25.03 -24.56zm0 49.11c-13.82,0 -25.03,-11 -25.03,-24.55 0,-13.56 11.21,-24.56 25.03,-24.56l0 49.11zm25.04 -178.96l0 154.41 -50.07 0 0 -154.41 25.03 -24.56 25.04 24.56zm-50.07 0c0,-13.55 11.21,-24.56 25.03,-24.56 13.83,0 25.04,11.01 25.04,24.56l-50.07 0z"/>
     <polygon id="_1_4" class="fil4" points="717.34,1063.22 835.38,1063.22 835.38,1217.63 717.34,1217.63 "/>
    </g>
    <g>
     <path class="fil3" d="M1025.14 614.65l-511.49 0 0 -49.12 511.49 0 25.03 24.56 -25.03 24.56zm0 -49.12c13.82,0 25.03,11 25.03,24.56 0,13.56 -11.21,24.56 -25.03,24.56l0 -49.12zm-25.04 371.95l0 -347.39 50.07 0 0 347.39 -25.03 24.56 -25.04 -24.56zm50.07 0c0,13.56 -11.21,24.56 -25.03,24.56 -13.83,0 -25.04,-11 -25.04,-24.56l50.07 0zm-536.52 -24.55l511.49 0 0 49.11 -511.49 0 -25.04 -24.56 25.04 -24.55zm0 49.11c-13.83,0 -25.04,-11 -25.04,-24.56 0,-13.55 11.21,-24.55 25.04,-24.55l0 49.11zm25.03 -371.95l0 347.39 -50.07 0 0 -347.39 25.04 -24.56 25.03 24.56zm-50.07 0c0,-13.56 11.21,-24.56 25.04,-24.56 13.82,0 25.03,11 25.03,24.56l-50.07 0z"/>
     <polygon id="_1_5" class="fil4" points="513.65,590.09 1025.14,590.09 1025.14,937.48 513.65,937.48 "/>
    </g>
    <g>
     <path class="fil1" d="M674.16 1226.44l-50.07 0 0 0 -0.26 -8.47 -0.69 -8.34 -1.16 -8.22 -1.62 -8.12 -2.04 -7.95 -2.47 -7.78 -2.88 -7.67 -3.29 -7.49 -3.68 -7.32 -4.09 -7.15 -4.43 -6.94 -4.82 -6.72 -5.2 -6.56 -5.5 -6.31 -5.85 -6.05 -6.2 -5.83 -6.49 -5.58 -6.8 -5.27 -7.09 -5.01 -7.34 -4.69 -7.64 -4.4 -7.9 -4.06 -8.11 -3.74 -8.37 -3.39 -8.57 -3.04 -8.8 -2.67 -8.96 -2.31 -9.14 -1.88 -9.35 -1.5 -9.49 -1.09 -9.65 -0.64 -9.79 -0.24 0 -49.12 12.08 0.27 11.97 0.82 11.8 1.35 11.61 1.86 11.44 2.36 11.22 2.87 10.97 3.33 10.73 3.81 10.49 4.25 10.22 4.7 9.92 5.13 9.63 5.53 9.34 5.96 8.96 6.35 8.64 6.7 8.28 7.09 7.89 7.44 7.54 7.8 7.11 8.13 6.66 8.4 6.27 8.77 5.8 9.06 5.31 9.32 4.84 9.6 4.33 9.87 3.81 10.08 3.27 10.34 2.69 10.54 2.12 10.7 1.55 10.9 0.93 11.04 0.32 11.18 0 0zm-237.74 215.55l0 -49.12 0 0 9.79 -0.24 9.65 -0.64 9.49 -1.08 9.35 -1.5 9.14 -1.89 8.96 -2.31 8.8 -2.67 8.57 -3.04 8.37 -3.38 8.11 -3.75 7.9 -4.06 7.64 -4.4 7.34 -4.68 7.09 -5.01 6.8 -5.28 6.49 -5.58 6.2 -5.82 5.85 -6.05 5.5 -6.32 5.2 -6.56 4.82 -6.72 4.43 -6.94 4.09 -7.15 3.68 -7.31 3.29 -7.5 2.88 -7.67 2.47 -7.77 2.04 -7.96 1.62 -8.11 1.16 -8.23 0.69 -8.34 0.26 -8.47 50.07 0 -0.32 11.18 -0.93 11.05 -1.55 10.89 -2.12 10.71 -2.69 10.54 -3.27 10.33 -3.81 10.08 -4.33 9.87 -4.84 9.6 -5.31 9.32 -5.8 9.06 -6.27 8.77 -6.66 8.4 -7.11 8.13 -7.54 7.81 -7.89 7.43 -8.28 7.09 -8.64 6.7 -8.96 6.35 -9.34 5.96 -9.63 5.53 -9.92 5.13 -10.22 4.7 -10.49 4.25 -10.73 3.81 -10.97 3.33 -11.22 2.87 -11.44 2.36 -11.61 1.86 -11.8 1.35 -11.97 0.82 -12.08 0.27 0 0zm-237.75 -215.55l50.07 0 0 0 0.26 8.47 0.69 8.34 1.16 8.23 1.62 8.11 2.04 7.96 2.47 7.77 2.88 7.67 3.29 7.5 3.69 7.31 4.08 7.15 4.43 6.96 4.82 6.72 5.17 6.52 5.53 6.34 5.86 6.06 6.19 5.83 6.48 5.56 6.79 5.26 7.09 5.03 7.38 4.69 7.61 4.39 7.91 4.06 8.11 3.75 8.34 3.38 8.6 3.04 8.8 2.67 8.96 2.31 9.14 1.89 9.36 1.5 9.48 1.08 9.65 0.64 9.8 0.24 0 49.12 -12.09 -0.27 -11.97 -0.82 -11.8 -1.35 -11.61 -1.86 -11.43 -2.36 -11.23 -2.87 -10.97 -3.33 -10.73 -3.81 -10.51 -4.25 -10.2 -4.7 -9.93 -5.13 -9.64 -5.54 -9.3 -5.95 -9 -6.33 -8.63 -6.72 -8.3 -7.11 -7.88 -7.43 -7.52 -7.79 -7.11 -8.12 -6.69 -8.43 -6.24 -8.77 -5.8 -9.04 -5.31 -9.32 -4.84 -9.6 -4.33 -9.87 -3.8 -10.08 -3.28 -10.33 -2.69 -10.54 -2.12 -10.71 -1.55 -10.89 -0.93 -11.05 -0.32 -11.18 0 0zm237.75 -215.55l0 49.12 0 0 -9.8 0.24 -9.65 0.64 -9.48 1.09 -9.36 1.5 -9.14 1.88 -8.96 2.31 -8.8 2.67 -8.6 3.04 -8.34 3.39 -8.11 3.74 -7.91 4.06 -7.61 4.39 -7.38 4.7 -7.09 5.02 -6.79 5.26 -6.48 5.56 -6.19 5.83 -5.86 6.07 -5.53 6.33 -5.17 6.53 -4.82 6.71 -4.43 6.96 -4.08 7.15 -3.69 7.32 -3.29 7.49 -2.88 7.67 -2.47 7.78 -2.04 7.95 -1.62 8.12 -1.16 8.22 -0.69 8.34 -0.26 8.47 -50.07 0 0.32 -11.18 0.93 -11.04 1.55 -10.9 2.12 -10.7 2.69 -10.54 3.28 -10.34 3.8 -10.08 4.33 -9.87 4.84 -9.6 5.31 -9.32 5.8 -9.04 6.24 -8.77 6.69 -8.43 7.11 -8.12 7.52 -7.79 7.88 -7.43 8.3 -7.11 8.63 -6.72 9 -6.33 9.3 -5.95 9.64 -5.54 9.93 -5.13 10.2 -4.7 10.51 -4.25 10.73 -3.81 10.97 -3.33 11.23 -2.87 11.43 -2.36 11.61 -1.86 11.8 -1.35 11.97 -0.82 12.09 -0.27 0 0z"/>
     <path id="_1_6" class="fil2" d="M436.42 1035.45c117.47,0 212.7,85.51 212.7,190.99 0,105.48 -95.23,190.99 -212.7,190.99 -117.49,0 -212.71,-85.51 -212.71,-190.99 0,-105.48 95.22,-190.99 212.71,-190.99z"/>
    </g>
    <g>
     <path class="fil1" d="M371.66 755.98l-177.05 0 0 -49.12 177.05 0 25.03 24.56 -25.03 24.56zm0 -49.12c13.82,0 25.03,11 25.03,24.56 0,13.56 -11.21,24.56 -25.03,24.56l0 -49.12zm-25.04 236.85l0 -212.29 50.07 0 0 212.29 -25.03 24.56 -25.04 -24.56zm50.07 0c0,13.56 -11.21,24.56 -25.03,24.56 -13.83,0 -25.04,-11 -25.04,-24.56l50.07 0zm-202.08 -24.56l177.05 0 0 49.12 -177.05 0 -25.03 -24.56 25.03 -24.56zm0 49.12c-13.82,0 -25.03,-11 -25.03,-24.56 0,-13.55 11.21,-24.56 25.03,-24.56l0 49.12zm25.04 -236.85l0 212.29 -50.07 0 0 -212.29 25.03 -24.56 25.04 24.56zm-50.07 0c0,-13.56 11.21,-24.56 25.03,-24.56 13.83,0 25.04,11 25.04,24.56l-50.07 0z"/>
     <polygon id="_1_7" class="fil2" points="194.61,731.42 371.66,731.42 371.66,943.71 194.61,943.71 "/>
    </g>
    <g>
     <path class="fil3" d="M835.38 1087.78l-118.04 0 0 -49.12 118.04 0 25.04 24.56 -25.04 24.56zm0 -49.12c13.83,0 25.04,11.01 25.04,24.56 0,13.56 -11.21,24.56 -25.04,24.56l0 -49.12zm-25.03 178.97l0 -154.41 50.07 0 0 154.41 -25.04 24.55 -25.03 -24.55zm50.07 0c0,13.55 -11.21,24.55 -25.04,24.55 -13.82,0 -25.03,-11 -25.03,-24.55l50.07 0zm-143.08 -24.56l118.04 0 0 49.11 -118.04 0 -25.03 -24.55 25.03 -24.56zm0 49.11c-13.82,0 -25.03,-11 -25.03,-24.55 0,-13.56 11.21,-24.56 25.03,-24.56l0 49.11zm25.04 -178.96l0 154.41 -50.07 0 0 -154.41 25.03 -24.56 25.04 24.56zm-50.07 0c0,-13.55 11.21,-24.56 25.03,-24.56 13.83,0 25.04,11.01 25.04,24.56l-50.07 0z"/>
     <polygon id="_1_8" class="fil4" points="717.34,1063.22 835.38,1063.22 835.38,1217.63 717.34,1217.63 "/>
    </g>
    <g>
     <path class="fil3" d="M1025.14 614.65l-511.49 0 0 -49.12 511.49 0 25.03 24.56 -25.03 24.56zm0 -49.12c13.82,0 25.03,11 25.03,24.56 0,13.56 -11.21,24.56 -25.03,24.56l0 -49.12zm-25.04 371.95l0 -347.39 50.07 0 0 347.39 -25.03 24.56 -25.04 -24.56zm50.07 0c0,13.56 -11.21,24.56 -25.03,24.56 -13.83,0 -25.04,-11 -25.04,-24.56l50.07 0zm-536.52 -24.55l511.49 0 0 49.11 -511.49 0 -25.04 -24.56 25.04 -24.55zm0 49.11c-13.83,0 -25.04,-11 -25.04,-24.56 0,-13.55 11.21,-24.55 25.04,-24.55l0 49.11zm25.03 -371.95l0 347.39 -50.07 0 0 -347.39 25.04 -24.56 25.03 24.56zm-50.07 0c0,-13.56 11.21,-24.56 25.04,-24.56 13.82,0 25.03,11 25.03,24.56l-50.07 0z"/>
     <polygon id="_1_9" class="fil4" points="513.65,590.09 1025.14,590.09 1025.14,937.48 513.65,937.48 "/>
    </g>
    <g>
     <path class="fil1" d="M674.16 1226.44l-50.07 0 0 0 -0.26 -8.47 -0.69 -8.34 -1.16 -8.22 -1.62 -8.12 -2.04 -7.95 -2.47 -7.78 -2.88 -7.67 -3.29 -7.49 -3.68 -7.32 -4.09 -7.15 -4.43 -6.94 -4.82 -6.72 -5.2 -6.56 -5.5 -6.31 -5.85 -6.05 -6.2 -5.83 -6.49 -5.58 -6.8 -5.27 -7.09 -5.01 -7.34 -4.69 -7.64 -4.4 -7.9 -4.06 -8.11 -3.74 -8.37 -3.39 -8.57 -3.04 -8.8 -2.67 -8.96 -2.31 -9.14 -1.88 -9.35 -1.5 -9.49 -1.09 -9.65 -0.64 -9.79 -0.24 0 -49.12 12.08 0.27 11.97 0.82 11.8 1.35 11.61 1.86 11.44 2.36 11.22 2.87 10.97 3.33 10.73 3.81 10.49 4.25 10.22 4.7 9.92 5.13 9.63 5.53 9.34 5.96 8.96 6.35 8.64 6.7 8.28 7.09 7.89 7.44 7.54 7.8 7.11 8.13 6.66 8.4 6.27 8.77 5.8 9.06 5.31 9.32 4.84 9.6 4.33 9.87 3.81 10.08 3.27 10.34 2.69 10.54 2.12 10.7 1.55 10.9 0.93 11.04 0.32 11.18 0 0zm-237.74 215.55l0 -49.12 0 0 9.79 -0.24 9.65 -0.64 9.49 -1.08 9.35 -1.5 9.14 -1.89 8.96 -2.31 8.8 -2.67 8.57 -3.04 8.37 -3.38 8.11 -3.75 7.9 -4.06 7.64 -4.4 7.34 -4.68 7.09 -5.01 6.8 -5.28 6.49 -5.58 6.2 -5.82 5.85 -6.05 5.5 -6.32 5.2 -6.56 4.82 -6.72 4.43 -6.94 4.09 -7.15 3.68 -7.31 3.29 -7.5 2.88 -7.67 2.47 -7.77 2.04 -7.96 1.62 -8.11 1.16 -8.23 0.69 -8.34 0.26 -8.47 50.07 0 -0.32 11.18 -0.93 11.05 -1.55 10.89 -2.12 10.71 -2.69 10.54 -3.27 10.33 -3.81 10.08 -4.33 9.87 -4.84 9.6 -5.31 9.32 -5.8 9.06 -6.27 8.77 -6.66 8.4 -7.11 8.13 -7.54 7.81 -7.89 7.43 -8.28 7.09 -8.64 6.7 -8.96 6.35 -9.34 5.96 -9.63 5.53 -9.92 5.13 -10.22 4.7 -10.49 4.25 -10.73 3.81 -10.97 3.33 -11.22 2.87 -11.44 2.36 -11.61 1.86 -11.8 1.35 -11.97 0.82 -12.08 0.27 0 0zm-237.75 -215.55l50.07 0 0 0 0.26 8.47 0.69 8.34 1.16 8.23 1.62 8.11 2.04 7.96 2.47 7.77 2.88 7.67 3.29 7.5 3.69 7.31 4.08 7.15 4.43 6.96 4.82 6.72 5.17 6.52 5.53 6.34 5.86 6.06 6.19 5.83 6.48 5.56 6.79 5.26 7.09 5.03 7.38 4.69 7.61 4.39 7.91 4.06 8.11 3.75 8.34 3.38 8.6 3.04 8.8 2.67 8.96 2.31 9.14 1.89 9.36 1.5 9.48 1.08 9.65 0.64 9.8 0.24 0 49.12 -12.09 -0.27 -11.97 -0.82 -11.8 -1.35 -11.61 -1.86 -11.43 -2.36 -11.23 -2.87 -10.97 -3.33 -10.73 -3.81 -10.51 -4.25 -10.2 -4.7 -9.93 -5.13 -9.64 -5.54 -9.3 -5.95 -9 -6.33 -8.63 -6.72 -8.3 -7.11 -7.88 -7.43 -7.52 -7.79 -7.11 -8.12 -6.69 -8.43 -6.24 -8.77 -5.8 -9.04 -5.31 -9.32 -4.84 -9.6 -4.33 -9.87 -3.8 -10.08 -3.28 -10.33 -2.69 -10.54 -2.12 -10.71 -1.55 -10.89 -0.93 -11.05 -0.32 -11.18 0 0zm237.75 -215.55l0 49.12 0 0 -9.8 0.24 -9.65 0.64 -9.48 1.09 -9.36 1.5 -9.14 1.88 -8.96 2.31 -8.8 2.67 -8.6 3.04 -8.34 3.39 -8.11 3.74 -7.91 4.06 -7.61 4.39 -7.38 4.7 -7.09 5.02 -6.79 5.26 -6.48 5.56 -6.19 5.83 -5.86 6.07 -5.53 6.33 -5.17 6.53 -4.82 6.71 -4.43 6.96 -4.08 7.15 -3.69 7.32 -3.29 7.49 -2.88 7.67 -2.47 7.78 -2.04 7.95 -1.62 8.12 -1.16 8.22 -0.69 8.34 -0.26 8.47 -50.07 0 0.32 -11.18 0.93 -11.04 1.55 -10.9 2.12 -10.7 2.69 -10.54 3.28 -10.34 3.8 -10.08 4.33 -9.87 4.84 -9.6 5.31 -9.32 5.8 -9.04 6.24 -8.77 6.69 -8.43 7.11 -8.12 7.52 -7.79 7.88 -7.43 8.3 -7.11 8.63 -6.72 9 -6.33 9.3 -5.95 9.64 -5.54 9.93 -5.13 10.2 -4.7 10.51 -4.25 10.73 -3.81 10.97 -3.33 11.23 -2.87 11.43 -2.36 11.61 -1.86 11.8 -1.35 11.97 -0.82 12.09 -0.27 0 0z"/>
     <path id="_1_10" class="fil2" d="M436.42 1035.45c117.47,0 212.7,85.51 212.7,190.99 0,105.48 -95.23,190.99 -212.7,190.99 -117.49,0 -212.71,-85.51 -212.71,-190.99 0,-105.48 95.22,-190.99 212.71,-190.99z"/>
    </g>
    <g>
     <path class="fil1" d="M371.66 755.98l-177.05 0 0 -49.12 177.05 0 25.03 24.56 -25.03 24.56zm0 -49.12c13.82,0 25.03,11 25.03,24.56 0,13.56 -11.21,24.56 -25.03,24.56l0 -49.12zm-25.04 236.85l0 -212.29 50.07 0 0 212.29 -25.03 24.56 -25.04 -24.56zm50.07 0c0,13.56 -11.21,24.56 -25.03,24.56 -13.83,0 -25.04,-11 -25.04,-24.56l50.07 0zm-202.08 -24.56l177.05 0 0 49.12 -177.05 0 -25.03 -24.56 25.03 -24.56zm0 49.12c-13.82,0 -25.03,-11 -25.03,-24.56 0,-13.55 11.21,-24.56 25.03,-24.56l0 49.12zm25.04 -236.85l0 212.29 -50.07 0 0 -212.29 25.03 -24.56 25.04 24.56zm-50.07 0c0,-13.56 11.21,-24.56 25.03,-24.56 13.83,0 25.04,11 25.04,24.56l-50.07 0z"/>
     <polygon id="_1_11" class="fil2" points="194.61,731.42 371.66,731.42 371.66,943.71 194.61,943.71 "/>
    </g>
    <g>
     <path class="fil3" d="M835.38 1087.78l-118.04 0 0 -49.12 118.04 0 25.04 24.56 -25.04 24.56zm0 -49.12c13.83,0 25.04,11.01 25.04,24.56 0,13.56 -11.21,24.56 -25.04,24.56l0 -49.12zm-25.03 178.97l0 -154.41 50.07 0 0 154.41 -25.04 24.55 -25.03 -24.55zm50.07 0c0,13.55 -11.21,24.55 -25.04,24.55 -13.82,0 -25.03,-11 -25.03,-24.55l50.07 0zm-143.08 -24.56l118.04 0 0 49.11 -118.04 0 -25.03 -24.55 25.03 -24.56zm0 49.11c-13.82,0 -25.03,-11 -25.03,-24.55 0,-13.56 11.21,-24.56 25.03,-24.56l0 49.11zm25.04 -178.96l0 154.41 -50.07 0 0 -154.41 25.03 -24.56 25.04 24.56zm-50.07 0c0,-13.55 11.21,-24.56 25.03,-24.56 13.83,0 25.04,11.01 25.04,24.56l-50.07 0z"/>
     <polygon id="_1_12" class="fil4" points="717.34,1063.22 835.38,1063.22 835.38,1217.63 717.34,1217.63 "/>
    </g>
    <g>
     <path class="fil3" d="M1025.14 614.65l-511.49 0 0 -49.12 511.49 0 25.03 24.56 -25.03 24.56zm0 -49.12c13.82,0 25.03,11 25.03,24.56 0,13.56 -11.21,24.56 -25.03,24.56l0 -49.12zm-25.04 371.95l0 -347.39 50.07 0 0 347.39 -25.03 24.56 -25.04 -24.56zm50.07 0c0,13.56 -11.21,24.56 -25.03,24.56 -13.83,0 -25.04,-11 -25.04,-24.56l50.07 0zm-536.52 -24.55l511.49 0 0 49.11 -511.49 0 -25.04 -24.56 25.04 -24.55zm0 49.11c-13.83,0 -25.04,-11 -25.04,-24.56 0,-13.55 11.21,-24.55 25.04,-24.55l0 49.11zm25.03 -371.95l0 347.39 -50.07 0 0 -347.39 25.04 -24.56 25.03 24.56zm-50.07 0c0,-13.56 11.21,-24.56 25.04,-24.56 13.82,0 25.03,11 25.03,24.56l-50.07 0z"/>
     <polygon id="_1_13" class="fil4" points="513.65,590.09 1025.14,590.09 1025.14,937.48 513.65,937.48 "/>
    </g>
    <g>
     <path class="fil1" d="M674.16 1226.44l-50.07 0 0 0 -0.26 -8.47 -0.69 -8.34 -1.16 -8.22 -1.62 -8.12 -2.04 -7.95 -2.47 -7.78 -2.88 -7.67 -3.29 -7.49 -3.68 -7.32 -4.09 -7.15 -4.43 -6.94 -4.82 -6.72 -5.2 -6.56 -5.5 -6.31 -5.85 -6.05 -6.2 -5.83 -6.49 -5.58 -6.8 -5.27 -7.09 -5.01 -7.34 -4.69 -7.64 -4.4 -7.9 -4.06 -8.11 -3.74 -8.37 -3.39 -8.57 -3.04 -8.8 -2.67 -8.96 -2.31 -9.14 -1.88 -9.35 -1.5 -9.49 -1.09 -9.65 -0.64 -9.79 -0.24 0 -49.12 12.08 0.27 11.97 0.82 11.8 1.35 11.61 1.86 11.44 2.36 11.22 2.87 10.97 3.33 10.73 3.81 10.49 4.25 10.22 4.7 9.92 5.13 9.63 5.53 9.34 5.96 8.96 6.35 8.64 6.7 8.28 7.09 7.89 7.44 7.54 7.8 7.11 8.13 6.66 8.4 6.27 8.77 5.8 9.06 5.31 9.32 4.84 9.6 4.33 9.87 3.81 10.08 3.27 10.34 2.69 10.54 2.12 10.7 1.55 10.9 0.93 11.04 0.32 11.18 0 0zm-237.74 215.55l0 -49.12 0 0 9.79 -0.24 9.65 -0.64 9.49 -1.08 9.35 -1.5 9.14 -1.89 8.96 -2.31 8.8 -2.67 8.57 -3.04 8.37 -3.38 8.11 -3.75 7.9 -4.06 7.64 -4.4 7.34 -4.68 7.09 -5.01 6.8 -5.28 6.49 -5.58 6.2 -5.82 5.85 -6.05 5.5 -6.32 5.2 -6.56 4.82 -6.72 4.43 -6.94 4.09 -7.15 3.68 -7.31 3.29 -7.5 2.88 -7.67 2.47 -7.77 2.04 -7.96 1.62 -8.11 1.16 -8.23 0.69 -8.34 0.26 -8.47 50.07 0 -0.32 11.18 -0.93 11.05 -1.55 10.89 -2.12 10.71 -2.69 10.54 -3.27 10.33 -3.81 10.08 -4.33 9.87 -4.84 9.6 -5.31 9.32 -5.8 9.06 -6.27 8.77 -6.66 8.4 -7.11 8.13 -7.54 7.81 -7.89 7.43 -8.28 7.09 -8.64 6.7 -8.96 6.35 -9.34 5.96 -9.63 5.53 -9.92 5.13 -10.22 4.7 -10.49 4.25 -10.73 3.81 -10.97 3.33 -11.22 2.87 -11.44 2.36 -11.61 1.86 -11.8 1.35 -11.97 0.82 -12.08 0.27 0 0zm-237.75 -215.55l50.07 0 0 0 0.26 8.47 0.69 8.34 1.16 8.23 1.62 8.11 2.04 7.96 2.47 7.77 2.88 7.67 3.29 7.5 3.69 7.31 4.08 7.15 4.43 6.96 4.82 6.72 5.17 6.52 5.53 6.34 5.86 6.06 6.19 5.83 6.48 5.56 6.79 5.26 7.09 5.03 7.38 4.69 7.61 4.39 7.91 4.06 8.11 3.75 8.34 3.38 8.6 3.04 8.8 2.67 8.96 2.31 9.14 1.89 9.36 1.5 9.48 1.08 9.65 0.64 9.8 0.24 0 49.12 -12.09 -0.27 -11.97 -0.82 -11.8 -1.35 -11.61 -1.86 -11.43 -2.36 -11.23 -2.87 -10.97 -3.33 -10.73 -3.81 -10.51 -4.25 -10.2 -4.7 -9.93 -5.13 -9.64 -5.54 -9.3 -5.95 -9 -6.33 -8.63 -6.72 -8.3 -7.11 -7.88 -7.43 -7.52 -7.79 -7.11 -8.12 -6.69 -8.43 -6.24 -8.77 -5.8 -9.04 -5.31 -9.32 -4.84 -9.6 -4.33 -9.87 -3.8 -10.08 -3.28 -10.33 -2.69 -10.54 -2.12 -10.71 -1.55 -10.89 -0.93 -11.05 -0.32 -11.18 0 0zm237.75 -215.55l0 49.12 0 0 -9.8 0.24 -9.65 0.64 -9.48 1.09 -9.36 1.5 -9.14 1.88 -8.96 2.31 -8.8 2.67 -8.6 3.04 -8.34 3.39 -8.11 3.74 -7.91 4.06 -7.61 4.39 -7.38 4.7 -7.09 5.02 -6.79 5.26 -6.48 5.56 -6.19 5.83 -5.86 6.07 -5.53 6.33 -5.17 6.53 -4.82 6.71 -4.43 6.96 -4.08 7.15 -3.69 7.32 -3.29 7.49 -2.88 7.67 -2.47 7.78 -2.04 7.95 -1.62 8.12 -1.16 8.22 -0.69 8.34 -0.26 8.47 -50.07 0 0.32 -11.18 0.93 -11.04 1.55 -10.9 2.12 -10.7 2.69 -10.54 3.28 -10.34 3.8 -10.08 4.33 -9.87 4.84 -9.6 5.31 -9.32 5.8 -9.04 6.24 -8.77 6.69 -8.43 7.11 -8.12 7.52 -7.79 7.88 -7.43 8.3 -7.11 8.63 -6.72 9 -6.33 9.3 -5.95 9.64 -5.54 9.93 -5.13 10.2 -4.7 10.51 -4.25 10.73 -3.81 10.97 -3.33 11.23 -2.87 11.43 -2.36 11.61 -1.86 11.8 -1.35 11.97 -0.82 12.09 -0.27 0 0z"/>
     <path id="_1_14" class="fil2" d="M436.42 1035.45c117.47,0 212.7,85.51 212.7,190.99 0,105.48 -95.23,190.99 -212.7,190.99 -117.49,0 -212.71,-85.51 -212.71,-190.99 0,-105.48 95.22,-190.99 212.71,-190.99z"/>
    </g>
    <g>
     <path class="fil5" d="M520.69 2690.15c0,36.42 -7.92,66.41 -23.77,89.75 -18.36,27.5 -45.06,41.22 -80.1,41.22 -25.87,0 -48.61,-7.15 -68.21,-21.6 -21.68,-15.66 -32.54,-35.8 -32.54,-60.57l0 -18.52 37.55 0 0 18.63c0,13.6 6.26,24.76 18.77,33.46 11.26,7.87 23.98,11.78 38.17,11.78 24.62,0 43.38,-10.04 56.33,-30.2 10.84,-16.78 16.26,-38.06 16.26,-63.95l0 -194.41 37.54 0 0 194.41zm219.65 130.97l-37.55 0 0 -27.01c-18.78,15.15 -40.47,22.71 -65.07,22.71 -28.38,0 -52.57,-9.82 -72.61,-29.46 -20.02,-19.66 -30.03,-43.38 -30.03,-71.21l0 -100.69 37.54 0 0 101.09c0,18.42 6.17,33.67 18.48,45.54 12.29,11.96 27.84,17.89 46.62,17.89 19.19,0 34.83,-5.82 46.92,-17.6 12.1,-11.67 18.15,-27.01 18.15,-45.83l0 -101.09 37.55 0 0 205.66zm224.63 0l-37.54 0 0 -22.09c-18.77,14.73 -40.46,22.09 -65.07,22.09 -28.38,0 -52.58,-9.81 -72.59,-29.36 -20.02,-19.65 -30.04,-43.29 -30.04,-71 0,-27.74 10.02,-51.38 30.04,-71.02 20.01,-19.53 44.21,-29.38 72.59,-29.38 24.61,0 46.3,7.59 65.07,22.72l0 -27.62 37.54 0 0 205.66zm-37.54 -100.36c0,-18.94 -6.05,-34.28 -18.15,-45.95 -12.1,-11.78 -27.74,-17.61 -46.92,-17.61 -18.79,0 -34.32,5.95 -46.63,17.9 -12.31,11.88 -18.45,27.13 -18.45,45.66 0,18.51 6.14,33.74 18.45,45.62 12.31,11.97 27.84,17.92 46.63,17.92 19.18,0 34.82,-5.85 46.92,-17.61 12.1,-11.67 18.15,-27.01 18.15,-45.93zm264.71 100.36l-37.55 0 0 -100.69c0,-18.82 -6.05,-34.06 -18.14,-45.73 -12.11,-11.67 -27.75,-17.5 -46.94,-17.5 -18.76,0 -34.3,5.95 -46.61,17.81 -12.31,11.87 -18.46,27.02 -18.46,45.42l0 100.69 -37.56 0 0 -205.66 37.56 0 0 27.62c18.77,-15.13 40.46,-22.72 65.07,-22.72 28.38,0 52.58,9.85 72.59,29.38 20.02,19.64 30.04,43.28 30.04,71.02l0 100.36zm331.02 -316.77l0 35.6c-50.27,0 -96.99,0 -140.18,0l0 281.17 -37.54 0 0 -281.17 -139.55 0 0 -35.6 317.27 0zm43.18 53.4c0,18.83 -9.6,28.24 -28.78,28.24 -19.61,0 -29.42,-9.41 -29.42,-28.24 0,-18.82 9.81,-28.23 29.42,-28.23 19.18,0 28.78,9.41 28.78,28.23zm-11.25 263.37l-37.57 0 0 -205.66 37.57 0 0 205.66zm220.87 0l-201.48 0 0 -36.82c30.03,-27.85 74.88,-69.8 134.54,-125.86l-134.54 0 0 -36.84 201.48 0 0 36.94c-30.55,27.83 -75.92,69.77 -136.19,125.76l136.19 0 0 36.82zm56.33 -263.37c0,18.83 -9.61,28.24 -28.78,28.24 -19.61,0 -29.43,-9.41 -29.43,-28.24 0,-18.82 9.82,-28.23 29.43,-28.23 19.17,0 28.78,9.41 28.78,28.23zm-11.26 263.37l-37.56 0 0 -205.66 37.56 0 0 205.66zm228.38 0l-37.54 0 0 -22.09c-18.77,14.73 -40.46,22.09 -65.07,22.09 -28.38,0 -52.58,-9.81 -72.59,-29.36 -20.03,-19.65 -30.05,-43.29 -30.05,-71 0,-27.74 10.02,-51.38 30.05,-71.02 20.01,-19.53 44.21,-29.38 72.59,-29.38 24.61,0 46.3,7.59 65.07,22.72l0 -27.62 37.54 0 0 205.66zm-37.54 -100.36c0,-18.94 -6.05,-34.28 -18.15,-45.95 -12.09,-11.78 -27.74,-17.61 -46.92,-17.61 -18.79,0 -34.32,5.95 -46.63,17.9 -12.3,11.88 -18.45,27.13 -18.45,45.66 0,18.51 6.15,33.74 18.45,45.62 12.31,11.97 27.84,17.92 46.63,17.92 19.18,0 34.83,-5.85 46.92,-17.61 12.1,-11.67 18.15,-27.01 18.15,-45.93zm264.71 100.36l-37.55 0 0 -100.69c0,-18.82 -6.05,-34.06 -18.14,-45.73 -12.11,-11.67 -27.75,-17.5 -46.95,-17.5 -18.76,0 -34.29,5.95 -46.6,17.81 -12.31,11.87 -18.47,27.02 -18.47,45.42l0 100.69 -37.55 0 0 -205.66 37.55 0 0 27.62c18.78,-15.13 40.47,-22.72 65.07,-22.72 28.38,0 52.59,9.85 72.6,29.38 20.02,19.64 30.04,43.28 30.04,71.02l0 100.36zm219.64 -100.36c0,27.71 -10.01,51.35 -30.05,71 -20.02,19.55 -44.21,29.36 -72.58,29.36 -28.38,0 -52.56,-9.81 -72.59,-29.36 -20.02,-19.65 -30.04,-43.29 -30.04,-71 0,-27.74 10.02,-51.38 30.04,-71.02 20.03,-19.53 44.21,-29.38 72.59,-29.38 28.37,0 52.56,9.85 72.58,29.38 20.04,19.64 30.05,43.28 30.05,71.02zm-37.56 0c0,-18.94 -6.03,-34.28 -18.15,-45.95 -12.08,-11.78 -27.72,-17.61 -46.92,-17.61 -18.77,0 -34.32,5.95 -46.62,17.9 -12.31,11.88 -18.46,27.13 -18.46,45.66 0,18.51 6.15,33.74 18.46,45.62 12.3,11.97 27.85,17.92 46.62,17.92 19.2,0 34.84,-5.85 46.92,-17.61 12.12,-11.67 18.15,-27.01 18.15,-45.93z"/>
     <path class="fil3" d="M2622.62 2820.51l38.18 0 0 -18.42 0 -97 64.45 0c28.38,0 52.56,-9.81 72.59,-29.47 20.02,-19.65 30.03,-43.38 30.03,-71.21 0,-27.83 -10.01,-51.57 -30.03,-71.21 -20.03,-19.65 -44.21,-29.48 -72.59,-29.48l-102.63 0 0 316.79zm102.63 -279.95c17.94,0 33.27,6.25 45.99,18.72 12.73,12.49 19.09,27.53 19.09,45.13 0,17.61 -6.36,32.63 -19.09,45.12 -12.72,12.49 -28.05,18.72 -45.99,18.72l-64.45 0 0 -127.69 64.45 0zm277.19 100.68l-23.77 29.46c-11.68,-8.99 -25.02,-13.5 -40.05,-13.5 -17.93,0 -33.27,6.25 -45.98,18.63 -12.73,12.47 -19.1,27.41 -19.1,45.02l0 100.27 -37.54 0 0 -205.66 37.54 0 0 27.62c18.79,-15.13 41.09,-22.72 66.97,-22.72 24.19,0 44.84,6.98 61.93,20.88zm185.88 79.52c0,27.71 -10.01,51.35 -30.03,71 -20.04,19.55 -44.22,29.36 -72.6,29.36 -28.38,0 -52.56,-9.81 -72.59,-29.36 -20.02,-19.65 -30.04,-43.29 -30.04,-71 0,-27.74 10.02,-51.38 30.04,-71.02 20.03,-19.53 44.21,-29.38 72.59,-29.38 28.38,0 52.56,9.85 72.6,29.38 20.02,19.64 30.03,43.28 30.03,71.02zm-37.56 0c0,-18.94 -6.03,-34.28 -18.15,-45.95 -12.08,-11.78 -27.72,-17.61 -46.92,-17.61 -18.77,0 -34.32,5.95 -46.62,17.9 -12.31,11.88 -18.46,27.13 -18.46,45.66 0,18.51 6.15,33.74 18.46,45.62 12.3,11.97 27.85,17.92 46.62,17.92 19.2,0 34.84,-5.85 46.92,-17.61 12.12,-11.67 18.15,-27.01 18.15,-45.93zm257.19 100.36l-37.54 0 0 -22.09c-18.77,14.73 -40.46,22.09 -65.07,22.09 -28.38,0 -52.58,-9.81 -72.6,-29.36 -20.01,-19.65 -30.03,-43.29 -30.03,-71 0,-27.74 10.02,-51.38 30.03,-71.02 20.02,-19.53 44.22,-29.38 72.6,-29.38 24.61,0 46.3,7.59 65.07,22.72l0 -138.73 37.54 0 0 316.77zm-37.54 -100.36c0,-18.94 -6.05,-34.28 -18.15,-45.95 -12.08,-11.78 -27.74,-17.61 -46.92,-17.61 -18.79,0 -34.32,5.95 -46.63,17.9 -12.3,11.88 -18.45,27.13 -18.45,45.66 0,18.51 6.15,33.74 18.45,45.62 12.31,11.97 27.84,17.92 46.63,17.92 19.18,0 34.84,-5.85 46.92,-17.61 12.1,-11.67 18.15,-27.01 18.15,-45.93zm262.82 100.36l-37.53 0 0 -27.01c-18.78,15.15 -40.47,22.71 -65.09,22.71 -28.36,0 -52.56,-9.82 -72.59,-29.46 -20.02,-19.66 -30.03,-43.38 -30.03,-71.21l0 -100.69 37.54 0 0 101.09c0,18.42 6.15,33.67 18.46,45.54 12.31,11.96 27.85,17.89 46.62,17.89 19.2,0 34.83,-5.82 46.94,-17.6 12.08,-11.67 18.15,-27.01 18.15,-45.83l0 -101.09 37.53 0 0 205.66zm194.6 -29.78c-20.02,19.85 -44.42,29.78 -73.2,29.78 -28.38,0 -52.56,-9.81 -72.59,-29.36 -20.02,-19.65 -30.04,-43.29 -30.04,-71 0,-27.74 10.02,-51.38 30.04,-71.02 20.03,-19.53 44.21,-29.38 72.59,-29.38 27.95,0 51.72,9.64 71.33,28.86l-26.37 25.79c-12.62,-11.86 -27.64,-17.81 -45.27,-17.81 -19.31,0 -34.95,5.95 -46.84,17.71 -11.99,11.86 -17.93,27.12 -17.93,45.85 0,18.3 6.05,33.43 18.25,45.52 12.11,11.96 27.64,18.02 46.52,18.02 18.45,0 34.1,-6.16 47.14,-18.44l26.37 25.48zm179.6 0c-20.02,19.85 -44.43,29.78 -73.21,29.78 -28.37,0 -52.57,-9.81 -72.58,-29.36 -20.02,-19.65 -30.04,-43.29 -30.04,-71 0,-27.74 10.02,-51.38 30.04,-71.02 20.01,-19.53 44.21,-29.38 72.58,-29.38 27.95,0 51.72,9.64 71.34,28.86l-26.39 25.79c-12.62,-11.86 -27.63,-17.81 -45.26,-17.81 -19.3,0 -34.94,5.95 -46.83,17.71 -12,11.86 -17.93,27.12 -17.93,45.85 0,18.3 6.03,33.43 18.25,45.52 12.09,11.96 27.63,18.02 46.51,18.02 18.44,0 34.11,-6.16 47.14,-18.44l26.38 25.48zm51.93 -233.59c0,18.83 -9.59,28.24 -28.78,28.24 -19.59,0 -29.4,-9.41 -29.4,-28.24 0,-18.82 9.81,-28.23 29.4,-28.23 19.19,0 28.78,9.41 28.78,28.23zm-11.25 263.37l-37.55 0 0 -205.66 37.55 0 0 205.66zm228.39 -100.36c0,27.71 -10.01,51.35 -30.03,71 -20.04,19.55 -44.21,29.36 -72.59,29.36 -28.37,0 -52.57,-9.81 -72.58,-29.36 -20.04,-19.65 -30.06,-43.29 -30.06,-71 0,-27.74 10.02,-51.38 30.06,-71.02 20.01,-19.53 44.21,-29.38 72.58,-29.38 28.38,0 52.55,9.85 72.59,29.38 20.02,19.64 30.03,43.28 30.03,71.02zm-37.54 0c0,-18.94 -6.05,-34.28 -18.16,-45.95 -12.09,-11.78 -27.73,-17.61 -46.92,-17.61 -18.78,0 -34.31,5.95 -46.62,17.9 -12.31,11.88 -18.45,27.13 -18.45,45.66 0,18.51 6.14,33.74 18.45,45.62 12.31,11.97 27.84,17.92 46.62,17.92 19.19,0 34.83,-5.85 46.92,-17.61 12.11,-11.67 18.16,-27.01 18.16,-45.93zm260.94 100.36l-37.56 0 0 -100.69c0,-18.82 -6.03,-34.06 -18.13,-45.73 -12.1,-11.67 -27.74,-17.5 -46.94,-17.5 -18.76,0 -34.31,5.95 -46.62,17.81 -12.29,11.87 -18.46,27.02 -18.46,45.42l0 100.69 -37.54 0 0 -205.66 37.54 0 0 27.62c18.77,-15.13 40.46,-22.72 65.08,-22.72 28.37,0 52.57,9.85 72.58,29.38 20.03,19.64 30.05,43.28 30.05,71.02l0 100.36zm219.63 -82.88l-165.19 0c4.17,13.72 11.99,24.87 23.45,33.34 11.48,8.51 24.73,12.72 39.74,12.72 17.95,0 33.38,-6.16 46.31,-18.44l26.28 25.48c-20.02,19.85 -44.01,29.78 -71.96,29.78 -29.2,0 -53.82,-9.62 -73.83,-28.75 -20.02,-19.24 -30.04,-43.07 -30.04,-71.61 0,-27.74 10.02,-51.38 30.04,-71.02 20.01,-19.53 44.21,-29.38 72.58,-29.38 28.38,0 52.57,9.85 72.59,29.47 20.03,19.65 30.03,43.39 30.03,71.22l0 17.19zm-40.66 -36.82c-9.6,-29.47 -30.25,-44.22 -61.96,-44.22 -31.71,0 -52.36,14.75 -61.95,44.22l123.91 0zm231.53 -63.25l-26.39 25.78c-13.05,-11.86 -28.48,-17.79 -46.52,-17.79l-44.01 0c-15.12,0 -22.63,7.77 -22.63,23.32 0,19.24 15.96,28.86 47.76,28.86 22.63,0 41.72,5.31 57.27,15.97 17.62,12.26 26.37,29.04 26.37,50.33 0,16.37 -5.53,29.87 -16.59,40.53 -11.03,10.63 -24.91,15.95 -41.59,15.95l-43.82 0c-29.19,0 -53.59,-10.02 -73.21,-30.08l26.28 -25.79c13.77,13.52 35.68,20.26 65.71,20.26 25.85,0 38.99,-7.98 39.43,-23.95 0,-6.13 -4.91,-12.07 -14.71,-17.79 -9.81,-5.74 -18.04,-8.59 -24.72,-8.59 -23.37,0 -42.96,-5.34 -58.83,-15.97 -17.92,-11.86 -26.9,-28.85 -26.9,-50.96 0,-17.17 5.73,-31.29 17.2,-42.35 11.49,-11.07 25.98,-16.57 43.51,-16.57l43.8 0c28.78,0 52.98,9.61 72.59,28.84z"/>
    </g>
    <path class="fil1" d="M1950.09 2063.95c0,65.2 -22.02,120.16 -66.44,164.54 -44.02,44.36 -98.85,66.76 -164.51,66.76l-1191.95 0c-65.64,0 -120.86,-22.4 -166.1,-66.76 -44.82,-44.38 -67.26,-99.34 -67.26,-164.54l0 -246.99c0,-11.39 2.41,-19.24 7.63,-23.55 5.19,-4.34 13.99,-6.29 26.42,-6.29l335.4 0c11.61,0 20.02,1.95 24.42,6.29 4.79,4.31 7.21,12.16 7.21,23.55l0 89.54c0,44.36 13.6,79.31 40.41,105.22 27.23,25.54 64.06,38.48 110.88,38.48l553.95 0c46.04,0 82.85,-12.94 110.06,-39.26 27.62,-25.9 41.24,-60.85 41.24,-104.44l0 -1008.78c0,-10.6 1.99,-18.45 6.4,-22.76 4.41,-4.73 12.8,-7.06 25.23,-7.06l335.4 0c11.61,0 20,2.33 24.4,7.06 4.81,4.31 7.21,12.16 7.21,22.76l0 1166.23z"/>
    <path class="fil1 str0" d="M2368.07 1908.06c0,145.04 -33.27,254.17 -100.16,327.4 -66.89,73.25 -167.42,109.88 -301.22,109.88l-565.82 0c-133.41,0 -233.95,-36.63 -300.84,-109.88 -66.9,-73.23 -100.17,-182.36 -100.17,-327.4l0 -317.62 490.07 0 0 311.09 385.86 0 0 -1181.29 492.28 0 0 1187.82zm658.98 437.28l0 -1185.65 -507.82 0 0 -439.45 1536.73 0 0 439.45 -485.62 0 0 1185.65 -543.29 0z"/>
    <g>
     <path class="fil5" d="M520.69 2690.15c0,36.42 -7.92,66.41 -23.77,89.75 -18.36,27.5 -45.06,41.22 -80.1,41.22 -25.87,0 -48.61,-7.15 -68.21,-21.6 -21.68,-15.66 -32.54,-35.8 -32.54,-60.57l0 -18.52 37.55 0 0 18.63c0,13.6 6.26,24.76 18.77,33.46 11.26,7.87 23.98,11.78 38.17,11.78 24.62,0 43.38,-10.04 56.33,-30.2 10.84,-16.78 16.26,-38.06 16.26,-63.95l0 -194.41 37.54 0 0 194.41zm219.65 130.97l-37.55 0 0 -27.01c-18.78,15.15 -40.47,22.71 -65.07,22.71 -28.38,0 -52.57,-9.82 -72.61,-29.46 -20.02,-19.66 -30.03,-43.38 -30.03,-71.21l0 -100.69 37.54 0 0 101.09c0,18.42 6.17,33.67 18.48,45.54 12.29,11.96 27.84,17.89 46.62,17.89 19.19,0 34.83,-5.82 46.92,-17.6 12.1,-11.67 18.15,-27.01 18.15,-45.83l0 -101.09 37.55 0 0 205.66zm224.63 0l-37.54 0 0 -22.09c-18.77,14.73 -40.46,22.09 -65.07,22.09 -28.38,0 -52.58,-9.81 -72.59,-29.36 -20.02,-19.65 -30.04,-43.29 -30.04,-71 0,-27.74 10.02,-51.38 30.04,-71.02 20.01,-19.53 44.21,-29.38 72.59,-29.38 24.61,0 46.3,7.59 65.07,22.72l0 -27.62 37.54 0 0 205.66zm-37.54 -100.36c0,-18.94 -6.05,-34.28 -18.15,-45.95 -12.1,-11.78 -27.74,-17.61 -46.92,-17.61 -18.79,0 -34.32,5.95 -46.63,17.9 -12.31,11.88 -18.45,27.13 -18.45,45.66 0,18.51 6.14,33.74 18.45,45.62 12.31,11.97 27.84,17.92 46.63,17.92 19.18,0 34.82,-5.85 46.92,-17.61 12.1,-11.67 18.15,-27.01 18.15,-45.93zm264.71 100.36l-37.55 0 0 -100.69c0,-18.82 -6.05,-34.06 -18.14,-45.73 -12.11,-11.67 -27.75,-17.5 -46.94,-17.5 -18.76,0 -34.3,5.95 -46.61,17.81 -12.31,11.87 -18.46,27.02 -18.46,45.42l0 100.69 -37.56 0 0 -205.66 37.56 0 0 27.62c18.77,-15.13 40.46,-22.72 65.07,-22.72 28.38,0 52.58,9.85 72.59,29.38 20.02,19.64 30.04,43.28 30.04,71.02l0 100.36zm331.02 -316.77l0 35.6c-50.27,0 -96.99,0 -140.18,0l0 281.17 -37.54 0 0 -281.17 -139.55 0 0 -35.6 317.27 0zm43.18 53.4c0,18.83 -9.6,28.24 -28.78,28.24 -19.61,0 -29.42,-9.41 -29.42,-28.24 0,-18.82 9.81,-28.23 29.42,-28.23 19.18,0 28.78,9.41 28.78,28.23zm-11.25 263.37l-37.57 0 0 -205.66 37.57 0 0 205.66zm220.87 0l-201.48 0 0 -36.82c30.03,-27.85 74.88,-69.8 134.54,-125.86l-134.54 0 0 -36.84 201.48 0 0 36.94c-30.55,27.83 -75.92,69.77 -136.19,125.76l136.19 0 0 36.82zm56.33 -263.37c0,18.83 -9.61,28.24 -28.78,28.24 -19.61,0 -29.43,-9.41 -29.43,-28.24 0,-18.82 9.82,-28.23 29.43,-28.23 19.17,0 28.78,9.41 28.78,28.23zm-11.26 263.37l-37.56 0 0 -205.66 37.56 0 0 205.66zm228.38 0l-37.54 0 0 -22.09c-18.77,14.73 -40.46,22.09 -65.07,22.09 -28.38,0 -52.58,-9.81 -72.59,-29.36 -20.03,-19.65 -30.05,-43.29 -30.05,-71 0,-27.74 10.02,-51.38 30.05,-71.02 20.01,-19.53 44.21,-29.38 72.59,-29.38 24.61,0 46.3,7.59 65.07,22.72l0 -27.62 37.54 0 0 205.66zm-37.54 -100.36c0,-18.94 -6.05,-34.28 -18.15,-45.95 -12.09,-11.78 -27.74,-17.61 -46.92,-17.61 -18.79,0 -34.32,5.95 -46.63,17.9 -12.3,11.88 -18.45,27.13 -18.45,45.66 0,18.51 6.15,33.74 18.45,45.62 12.31,11.97 27.84,17.92 46.63,17.92 19.18,0 34.83,-5.85 46.92,-17.61 12.1,-11.67 18.15,-27.01 18.15,-45.93zm264.71 100.36l-37.55 0 0 -100.69c0,-18.82 -6.05,-34.06 -18.14,-45.73 -12.11,-11.67 -27.75,-17.5 -46.95,-17.5 -18.76,0 -34.29,5.95 -46.6,17.81 -12.31,11.87 -18.47,27.02 -18.47,45.42l0 100.69 -37.55 0 0 -205.66 37.55 0 0 27.62c18.78,-15.13 40.47,-22.72 65.07,-22.72 28.38,0 52.59,9.85 72.6,29.38 20.02,19.64 30.04,43.28 30.04,71.02l0 100.36zm219.64 -100.36c0,27.71 -10.01,51.35 -30.05,71 -20.02,19.55 -44.21,29.36 -72.58,29.36 -28.38,0 -52.56,-9.81 -72.59,-29.36 -20.02,-19.65 -30.04,-43.29 -30.04,-71 0,-27.74 10.02,-51.38 30.04,-71.02 20.03,-19.53 44.21,-29.38 72.59,-29.38 28.37,0 52.56,9.85 72.58,29.38 20.04,19.64 30.05,43.28 30.05,71.02zm-37.56 0c0,-18.94 -6.03,-34.28 -18.15,-45.95 -12.08,-11.78 -27.72,-17.61 -46.92,-17.61 -18.77,0 -34.32,5.95 -46.62,17.9 -12.31,11.88 -18.46,27.13 -18.46,45.66 0,18.51 6.15,33.74 18.46,45.62 12.3,11.97 27.85,17.92 46.62,17.92 19.2,0 34.84,-5.85 46.92,-17.61 12.12,-11.67 18.15,-27.01 18.15,-45.93z"/>
     <path class="fil3" d="M2622.62 2820.51l38.18 0 0 -18.42 0 -97 64.45 0c28.38,0 52.56,-9.81 72.59,-29.47 20.02,-19.65 30.03,-43.38 30.03,-71.21 0,-27.83 -10.01,-51.57 -30.03,-71.21 -20.03,-19.65 -44.21,-29.48 -72.59,-29.48l-102.63 0 0 316.79zm102.63 -279.95c17.94,0 33.27,6.25 45.99,18.72 12.73,12.49 19.09,27.53 19.09,45.13 0,17.61 -6.36,32.63 -19.09,45.12 -12.72,12.49 -28.05,18.72 -45.99,18.72l-64.45 0 0 -127.69 64.45 0zm277.19 100.68l-23.77 29.46c-11.68,-8.99 -25.02,-13.5 -40.05,-13.5 -17.93,0 -33.27,6.25 -45.98,18.63 -12.73,12.47 -19.1,27.41 -19.1,45.02l0 100.27 -37.54 0 0 -205.66 37.54 0 0 27.62c18.79,-15.13 41.09,-22.72 66.97,-22.72 24.19,0 44.84,6.98 61.93,20.88zm185.88 79.52c0,27.71 -10.01,51.35 -30.03,71 -20.04,19.55 -44.22,29.36 -72.6,29.36 -28.38,0 -52.56,-9.81 -72.59,-29.36 -20.02,-19.65 -30.04,-43.29 -30.04,-71 0,-27.74 10.02,-51.38 30.04,-71.02 20.03,-19.53 44.21,-29.38 72.59,-29.38 28.38,0 52.56,9.85 72.6,29.38 20.02,19.64 30.03,43.28 30.03,71.02zm-37.56 0c0,-18.94 -6.03,-34.28 -18.15,-45.95 -12.08,-11.78 -27.72,-17.61 -46.92,-17.61 -18.77,0 -34.32,5.95 -46.62,17.9 -12.31,11.88 -18.46,27.13 -18.46,45.66 0,18.51 6.15,33.74 18.46,45.62 12.3,11.97 27.85,17.92 46.62,17.92 19.2,0 34.84,-5.85 46.92,-17.61 12.12,-11.67 18.15,-27.01 18.15,-45.93zm257.19 100.36l-37.54 0 0 -22.09c-18.77,14.73 -40.46,22.09 -65.07,22.09 -28.38,0 -52.58,-9.81 -72.6,-29.36 -20.01,-19.65 -30.03,-43.29 -30.03,-71 0,-27.74 10.02,-51.38 30.03,-71.02 20.02,-19.53 44.22,-29.38 72.6,-29.38 24.61,0 46.3,7.59 65.07,22.72l0 -138.73 37.54 0 0 316.77zm-37.54 -100.36c0,-18.94 -6.05,-34.28 -18.15,-45.95 -12.08,-11.78 -27.74,-17.61 -46.92,-17.61 -18.79,0 -34.32,5.95 -46.63,17.9 -12.3,11.88 -18.45,27.13 -18.45,45.66 0,18.51 6.15,33.74 18.45,45.62 12.31,11.97 27.84,17.92 46.63,17.92 19.18,0 34.84,-5.85 46.92,-17.61 12.1,-11.67 18.15,-27.01 18.15,-45.93zm262.82 100.36l-37.53 0 0 -27.01c-18.78,15.15 -40.47,22.71 -65.09,22.71 -28.36,0 -52.56,-9.82 -72.59,-29.46 -20.02,-19.66 -30.03,-43.38 -30.03,-71.21l0 -100.69 37.54 0 0 101.09c0,18.42 6.15,33.67 18.46,45.54 12.31,11.96 27.85,17.89 46.62,17.89 19.2,0 34.83,-5.82 46.94,-17.6 12.08,-11.67 18.15,-27.01 18.15,-45.83l0 -101.09 37.53 0 0 205.66zm194.6 -29.78c-20.02,19.85 -44.42,29.78 -73.2,29.78 -28.38,0 -52.56,-9.81 -72.59,-29.36 -20.02,-19.65 -30.04,-43.29 -30.04,-71 0,-27.74 10.02,-51.38 30.04,-71.02 20.03,-19.53 44.21,-29.38 72.59,-29.38 27.95,0 51.72,9.64 71.33,28.86l-26.37 25.79c-12.62,-11.86 -27.64,-17.81 -45.27,-17.81 -19.31,0 -34.95,5.95 -46.84,17.71 -11.99,11.86 -17.93,27.12 -17.93,45.85 0,18.3 6.05,33.43 18.25,45.52 12.11,11.96 27.64,18.02 46.52,18.02 18.45,0 34.1,-6.16 47.14,-18.44l26.37 25.48zm179.6 0c-20.02,19.85 -44.43,29.78 -73.21,29.78 -28.37,0 -52.57,-9.81 -72.58,-29.36 -20.02,-19.65 -30.04,-43.29 -30.04,-71 0,-27.74 10.02,-51.38 30.04,-71.02 20.01,-19.53 44.21,-29.38 72.58,-29.38 27.95,0 51.72,9.64 71.34,28.86l-26.39 25.79c-12.62,-11.86 -27.63,-17.81 -45.26,-17.81 -19.3,0 -34.94,5.95 -46.83,17.71 -12,11.86 -17.93,27.12 -17.93,45.85 0,18.3 6.03,33.43 18.25,45.52 12.09,11.96 27.63,18.02 46.51,18.02 18.44,0 34.11,-6.16 47.14,-18.44l26.38 25.48zm51.93 -233.59c0,18.83 -9.59,28.24 -28.78,28.24 -19.59,0 -29.4,-9.41 -29.4,-28.24 0,-18.82 9.81,-28.23 29.4,-28.23 19.19,0 28.78,9.41 28.78,28.23zm-11.25 263.37l-37.55 0 0 -205.66 37.55 0 0 205.66zm228.39 -100.36c0,27.71 -10.01,51.35 -30.03,71 -20.04,19.55 -44.21,29.36 -72.59,29.36 -28.37,0 -52.57,-9.81 -72.58,-29.36 -20.04,-19.65 -30.06,-43.29 -30.06,-71 0,-27.74 10.02,-51.38 30.06,-71.02 20.01,-19.53 44.21,-29.38 72.58,-29.38 28.38,0 52.55,9.85 72.59,29.38 20.02,19.64 30.03,43.28 30.03,71.02zm-37.54 0c0,-18.94 -6.05,-34.28 -18.16,-45.95 -12.09,-11.78 -27.73,-17.61 -46.92,-17.61 -18.78,0 -34.31,5.95 -46.62,17.9 -12.31,11.88 -18.45,27.13 -18.45,45.66 0,18.51 6.14,33.74 18.45,45.62 12.31,11.97 27.84,17.92 46.62,17.92 19.19,0 34.83,-5.85 46.92,-17.61 12.11,-11.67 18.16,-27.01 18.16,-45.93zm260.94 100.36l-37.56 0 0 -100.69c0,-18.82 -6.03,-34.06 -18.13,-45.73 -12.1,-11.67 -27.74,-17.5 -46.94,-17.5 -18.76,0 -34.31,5.95 -46.62,17.81 -12.29,11.87 -18.46,27.02 -18.46,45.42l0 100.69 -37.54 0 0 -205.66 37.54 0 0 27.62c18.77,-15.13 40.46,-22.72 65.08,-22.72 28.37,0 52.57,9.85 72.58,29.38 20.03,19.64 30.05,43.28 30.05,71.02l0 100.36zm219.63 -82.88l-165.19 0c4.17,13.72 11.99,24.87 23.45,33.34 11.48,8.51 24.73,12.72 39.74,12.72 17.95,0 33.38,-6.16 46.31,-18.44l26.28 25.48c-20.02,19.85 -44.01,29.78 -71.96,29.78 -29.2,0 -53.82,-9.62 -73.83,-28.75 -20.02,-19.24 -30.04,-43.07 -30.04,-71.61 0,-27.74 10.02,-51.38 30.04,-71.02 20.01,-19.53 44.21,-29.38 72.58,-29.38 28.38,0 52.57,9.85 72.59,29.47 20.03,19.65 30.03,43.39 30.03,71.22l0 17.19zm-40.66 -36.82c-9.6,-29.47 -30.25,-44.22 -61.96,-44.22 -31.71,0 -52.36,14.75 -61.95,44.22l123.91 0zm231.53 -63.25l-26.39 25.78c-13.05,-11.86 -28.48,-17.79 -46.52,-17.79l-44.01 0c-15.12,0 -22.63,7.77 -22.63,23.32 0,19.24 15.96,28.86 47.76,28.86 22.63,0 41.72,5.31 57.27,15.97 17.62,12.26 26.37,29.04 26.37,50.33 0,16.37 -5.53,29.87 -16.59,40.53 -11.03,10.63 -24.91,15.95 -41.59,15.95l-43.82 0c-29.19,0 -53.59,-10.02 -73.21,-30.08l26.28 -25.79c13.77,13.52 35.68,20.26 65.71,20.26 25.85,0 38.99,-7.98 39.43,-23.95 0,-6.13 -4.91,-12.07 -14.71,-17.79 -9.81,-5.74 -18.04,-8.59 -24.72,-8.59 -23.37,0 -42.96,-5.34 -58.83,-15.97 -17.92,-11.86 -26.9,-28.85 -26.9,-50.96 0,-17.17 5.73,-31.29 17.2,-42.35 11.49,-11.07 25.98,-16.57 43.51,-16.57l43.8 0c28.78,0 52.98,9.61 72.59,28.84z"/>
    </g>
    <path class="fil1" d="M1950.09 2063.95c0,65.2 -22.02,120.16 -66.44,164.54 -44.02,44.36 -98.85,66.76 -164.51,66.76l-1191.95 0c-65.64,0 -120.86,-22.4 -166.1,-66.76 -44.82,-44.38 -67.26,-99.34 -67.26,-164.54l0 -246.99c0,-11.39 2.41,-19.24 7.63,-23.55 5.19,-4.34 13.99,-6.29 26.42,-6.29l335.4 0c11.61,0 20.02,1.95 24.42,6.29 4.79,4.31 7.21,12.16 7.21,23.55l0 89.54c0,44.36 13.6,79.31 40.41,105.22 27.23,25.54 64.06,38.48 110.88,38.48l553.95 0c46.04,0 82.85,-12.94 110.06,-39.26 27.62,-25.9 41.24,-60.85 41.24,-104.44l0 -1008.78c0,-10.6 1.99,-18.45 6.4,-22.76 4.41,-4.73 12.8,-7.06 25.23,-7.06l335.4 0c11.61,0 20,2.33 24.4,7.06 4.81,4.31 7.21,12.16 7.21,22.76l0 1166.23z"/>
    <path class="fil1 str0" d="M2368.07 1908.06c0,145.04 -33.27,254.17 -100.16,327.4 -66.89,73.25 -167.42,109.88 -301.22,109.88l-565.82 0c-133.41,0 -233.95,-36.63 -300.84,-109.88 -66.9,-73.23 -100.17,-182.36 -100.17,-327.4l0 -317.62 490.07 0 0 311.09 385.86 0 0 -1181.29 492.28 0 0 1187.82zm658.98 437.28l0 -1185.65 -507.82 0 0 -439.45 1536.73 0 0 439.45 -485.62 0 0 1185.65 -543.29 0z"/>
   </g>
  </g>
 </g>
</svg>
