<?xml version="1.0" encoding="UTF-8"?>
<!DOCTYPE svg PUBLIC "-//W3C//DTD SVG 1.1//EN" "http://www.w3.org/Graphics/SVG/1.1/DTD/svg11.dtd">
<!-- Creator: CorelDRAW 2017 -->
<svg xmlns="http://www.w3.org/2000/svg" xml:space="preserve" width="50.7998mm" height="33.8666mm" version="1.1" style="shape-rendering:geometricPrecision; text-rendering:geometricPrecision; image-rendering:optimizeQuality; fill-rule:evenodd; clip-rule:evenodd"
viewBox="0 0 5079.98 3386.66"
 xmlns:xlink="http://www.w3.org/1999/xlink">
 <defs>
  <style type="text/css">
   <![CDATA[
    .fil0 {fill:none}
    .fil2 {fill:#FEFEFE}
    .fil1 {fill:#DD1486}
    .fil4 {fill:#005DAA;fill-rule:nonzero}
    .fil3 {fill:#DD1486;fill-rule:nonzero}
    .fil5 {fill:#FEC02D;fill-rule:nonzero}
   ]]>
  </style>
 </defs>
 <g id="Capa_x0020_1">
  <metadata id="CorelCorpID_0Corel-Layer"/>
  <rect class="fil0" x="-0" width="5079.99" height="3386.66"/>
  <g id="_1746622565664">
   <path class="fil1" d="M707.2 1050.65c354.95,0 642.69,287.74 642.69,642.68 0,354.94 -287.74,642.68 -642.69,642.68 -354.94,0 -642.68,-287.74 -642.68,-642.68 0,-354.94 287.74,-642.68 642.68,-642.68z"/>
   <path class="fil2" d="M653.74 1580.13l156.04 83.12 -3.58 300.98 -156.66 -74.41 4.2 -309.69zm176.62 493.69c225.99,-255.23 237.34,-156.43 236.67,-375.34 -0.89,-290.44 25.62,-246.41 -97.68,-307.24 -89.4,-44.11 -353.75,-187.96 -414.25,-194.81l-1.97 218.54c-72.32,-15.44 -131.07,-75.45 -207.57,-84.37l0.22 724.23c70.09,28.31 236.11,134.49 303.46,135.41l1 -189.41c68.78,18.95 110.32,63.13 180.12,72.99z"/>
   <path class="fil3" d="M1689.78 1390.37c39.11,0 74.02,9.93 104.75,29.79 30.72,19.87 54.62,47.8 71.69,83.8 17.07,36 25.61,77.59 25.61,124.76 0,46.56 -8.38,87.52 -25.15,122.91 -16.75,35.38 -40.49,62.68 -71.22,81.93 -30.72,19.24 -65.95,28.86 -105.68,28.86 -34.13,0 -64.24,-7.29 -90.31,-21.88 -26.07,-14.58 -45.93,-35.53 -59.59,-62.85l0 245.81 -94.03 0 0 -621.96 94.03 0 0 74.49c13.66,-27.32 33.52,-48.42 59.59,-63.31 26.07,-14.9 56.18,-22.35 90.31,-22.35zm-22.34 397.56c40.96,0 72.62,-13.8 94.97,-41.43 22.34,-27.62 33.52,-66.88 33.52,-117.78 0,-51.51 -11.33,-91.56 -33.99,-120.11 -22.66,-28.55 -54.16,-42.82 -94.5,-42.82 -40.97,0 -72.47,13.96 -94.5,41.89 -22.04,27.94 -33.06,67.66 -33.06,119.18 0,51.52 11.02,91.24 33.06,119.18 22.03,27.93 53.53,41.89 94.5,41.89zm441.83 -397.56c60.84,0 105.99,15.2 135.47,45.62 29.49,30.42 44.23,76.66 44.23,138.73l0 281.18 -90.31 0 0 -75.41c-11.8,26.69 -29.33,47.02 -52.61,60.98 -23.27,13.97 -50.43,20.95 -81.46,20.95 -29.8,0 -57.11,-6.05 -81.94,-18.15 -24.83,-12.11 -44.23,-29.02 -58.19,-50.75 -13.96,-21.72 -20.95,-45.93 -20.95,-72.62 0,-32.9 8.53,-58.81 25.61,-77.74 17.06,-18.93 45.31,-32.44 84.72,-40.51 39.42,-8.07 93.57,-12.1 162.47,-12.1l21.41 0 0 -27c0,-34.76 -7.28,-59.9 -21.87,-75.42 -14.59,-15.52 -38.33,-23.28 -71.23,-23.28 -51.52,0 -103.04,15.83 -154.56,47.49l-27.93 -66.11c24.21,-16.76 53.53,-30.26 87.99,-40.5 34.45,-10.24 67.5,-15.36 99.15,-15.36zm-27.92 402.22c34.13,0 62.07,-11.64 83.79,-34.91 21.72,-23.28 32.58,-53.23 32.58,-89.85l0 -24.21 -16.75 0c-48.42,0 -85.66,2.17 -111.73,6.51 -26.07,4.35 -44.69,11.65 -55.86,21.89 -11.18,10.24 -16.76,24.98 -16.76,44.22 0,21.73 7.91,39.89 23.74,54.47 15.83,14.59 36.16,21.88 60.99,21.88zm503.28 -402.22c39.1,0 74.02,9.93 104.74,29.79 30.73,19.87 54.62,47.8 71.69,83.8 17.08,36 25.61,77.59 25.61,124.76 0,46.56 -8.38,87.52 -25.14,122.91 -16.76,35.38 -40.5,62.68 -71.23,81.93 -30.72,19.24 -65.95,28.86 -105.67,28.86 -34.14,0 -64.25,-7.29 -90.31,-21.88 -26.08,-14.58 -45.94,-35.53 -59.59,-62.85l0 245.81 -94.04 0 0 -621.96 94.04 0 0 74.49c13.65,-27.32 33.51,-48.42 59.59,-63.31 26.06,-14.9 56.17,-22.35 90.31,-22.35zm-22.35 397.56c40.97,0 72.62,-13.8 94.97,-41.43 22.35,-27.62 33.52,-66.88 33.52,-117.78 0,-51.51 -11.33,-91.56 -33.98,-120.11 -22.66,-28.55 -54.17,-42.82 -94.51,-42.82 -40.96,0 -72.47,13.96 -94.5,41.89 -22.04,27.94 -33.05,67.66 -33.05,119.18 0,51.52 11.01,91.24 33.05,119.18 22.03,27.93 53.54,41.89 94.5,41.89zm641.08 -143.38l-321.21 0c6.83,96.21 54.62,144.32 143.38,144.32 52.14,0 99.31,-17.07 141.53,-51.21l28.86 66.1c-21.11,18.01 -47.18,32.28 -78.21,42.83 -31.03,10.56 -62.7,15.83 -94.97,15.83 -72.63,0 -129.89,-20.8 -171.78,-62.38 -41.9,-41.59 -62.85,-99 -62.85,-172.25 0,-46.55 9.16,-87.83 27.47,-123.83 18.31,-36 44.06,-63.93 77.27,-83.8 33.21,-19.86 70.92,-29.79 113.13,-29.79 61.45,0 109.71,19.87 144.78,59.59 35.07,39.72 52.6,94.66 52.6,164.8l0 29.79zm-195.52 -185.28c-36,0 -64.71,11.33 -86.12,33.98 -21.42,22.66 -34.29,55.09 -38.64,97.3l239.28 0c-1.86,-42.21 -12.57,-74.64 -32.12,-97.3 -19.55,-22.65 -47.02,-33.98 -82.4,-33.98zm498.63 10.24l-56.8 5.59c-44.69,4.34 -76.81,18 -96.36,40.96 -19.55,22.97 -29.33,52.14 -29.33,87.53l0 252.31 -94.04 0 0 -454.36 91.25 0 0 79.14c24.21,-53.38 73.55,-82.86 148.04,-88.45l30.72 -1.86 6.52 79.14zm177.41 392.91c-45.93,0 -85.81,-9.62 -119.64,-28.86 -33.83,-19.25 -59.9,-46.4 -78.21,-81.47 -18.31,-35.07 -27.47,-76.19 -27.47,-123.37 0,-47.17 9.46,-88.76 28.4,-124.76 18.93,-36 45.62,-63.93 80.07,-83.8 34.45,-19.86 74.64,-29.79 120.57,-29.79 31.66,0 62.23,5.28 91.72,15.83 29.48,10.55 53.53,24.83 72.15,42.83l-28.86 67.03c-40.97,-33.51 -83.49,-50.27 -127.55,-50.27 -43.46,0 -77.44,14.12 -101.96,42.36 -24.52,28.24 -36.78,68.12 -36.78,119.64 0,50.9 12.11,90.16 36.32,117.79 24.21,27.61 58.34,41.43 102.42,41.43 44.06,0 86.58,-16.76 127.55,-50.29l28.86 67.97c-19.86,18 -44.69,32.13 -74.48,42.37 -29.8,10.24 -60.83,15.36 -93.11,15.36zm450.21 -392.91l-56.79 5.59c-44.69,4.34 -76.82,18 -96.37,40.96 -19.55,22.97 -29.32,52.14 -29.32,87.53l0 252.31 -94.04 0 0 -454.36 91.24 0 0 79.14c24.21,-53.38 73.56,-82.86 148.04,-88.45l30.72 -1.86 6.52 79.14zm174.62 -79.14c60.83,0 105.98,15.2 135.46,45.62 29.49,30.42 44.23,76.66 44.23,138.73l0 281.18 -90.31 0 0 -75.41c-11.8,26.69 -29.33,47.02 -52.61,60.98 -23.27,13.97 -50.43,20.95 -81.46,20.95 -29.8,0 -57.11,-6.05 -81.94,-18.15 -24.83,-12.11 -44.23,-29.02 -58.19,-50.75 -13.96,-21.72 -20.95,-45.93 -20.95,-72.62 0,-32.9 8.54,-58.81 25.61,-77.74 17.06,-18.93 45.31,-32.44 84.72,-40.51 39.42,-8.07 93.58,-12.1 162.47,-12.1l21.42 0 0 -27c0,-34.76 -7.29,-59.9 -21.88,-75.42 -14.59,-15.52 -38.33,-23.28 -71.23,-23.28 -51.52,0 -103.04,15.83 -154.56,47.49l-27.93 -66.11c24.21,-16.76 53.54,-30.26 87.99,-40.5 34.45,-10.24 67.5,-15.36 99.16,-15.36zm-27.93 402.22c34.13,0 62.07,-11.64 83.79,-34.91 21.72,-23.28 32.59,-53.23 32.59,-89.85l0 -24.21 -16.76 0c-48.41,0 -85.66,2.17 -111.73,6.51 -26.07,4.35 -44.69,11.65 -55.86,21.89 -11.18,10.24 -16.76,24.98 -16.76,44.22 0,21.73 7.91,39.89 23.74,54.47 15.83,14.59 36.16,21.88 60.99,21.88zm382.24 -391.05l124.76 0 0 72.63 -124.76 0 0 381.73 -94.04 0 0 -381.73 -88.45 0 0 -72.63 88.45 0 0 -8.38c0,-62.69 15.99,-109.86 47.95,-141.52 31.97,-31.66 80.85,-49.35 146.65,-53.07l41.89 -1.86 5.59 70.76 -42.83 2.79c-37.24,1.86 -64.09,11.48 -80.54,28.87 -16.44,17.37 -24.67,43.76 -24.67,79.14l0 23.27zm310.55 388.26c14.28,0 28.24,-0.93 41.9,-2.79l-4.66 71.69c-15.51,2.48 -31.65,3.72 -48.41,3.72 -58.97,0 -102.88,-14.43 -131.75,-43.29 -28.86,-28.87 -43.29,-70.61 -43.29,-125.23l0 -219.73 -88.45 0 0 -72.63 88.45 0 0 -136.86 94.03 0 0 136.86 124.77 0 0 72.63 -124.77 0 0 216.01c0,66.41 30.73,99.62 92.18,99.62z"/>
   <g>
    <path class="fil4" d="M2615.83 1977.44c17.32,0 32.78,4.4 46.4,13.19 13.61,8.8 24.18,21.17 31.75,37.11 7.56,15.95 11.34,34.37 11.34,55.26 0,20.62 -3.71,38.77 -11.13,54.43 -7.43,15.68 -17.95,27.77 -31.55,36.3 -13.61,8.52 -29.21,12.78 -46.81,12.78 -15.12,0 -28.45,-3.23 -40,-9.69 -11.55,-6.46 -20.34,-15.74 -26.39,-27.84l0 108.87 -41.65 0 0 -275.47 41.65 0 0 32.99c6.05,-12.09 14.84,-21.44 26.39,-28.04 11.55,-6.59 24.88,-9.89 40,-9.89zm-9.89 176.08c18.14,0 32.16,-6.11 42.06,-18.35 9.89,-12.23 14.84,-29.62 14.84,-52.17 0,-22.81 -5.02,-40.54 -15.05,-53.19 -10.03,-12.65 -23.99,-18.97 -41.85,-18.97 -18.15,0 -32.1,6.19 -41.86,18.56 -9.76,12.37 -14.64,29.96 -14.64,52.78 0,22.82 4.88,40.41 14.64,52.79 9.76,12.37 23.71,18.55 41.86,18.55zm195.69 -176.08c26.95,0 46.94,6.73 60.01,20.2 13.05,13.47 19.58,33.95 19.58,61.45l0 124.53 -40 0 0 -33.4c-5.22,11.82 -12.99,20.83 -23.3,27.01 -10.31,6.19 -22.34,9.28 -36.09,9.28 -13.19,0 -25.28,-2.68 -36.28,-8.04 -11,-5.36 -19.59,-12.85 -25.77,-22.48 -6.19,-9.61 -9.28,-20.34 -9.28,-32.16 0,-14.57 3.78,-26.05 11.34,-34.44 7.56,-8.38 20.06,-14.36 37.52,-17.93 17.46,-3.58 41.45,-5.36 71.96,-5.36l9.49 0 0 -11.96c0,-15.4 -3.23,-26.53 -9.7,-33.4 -6.45,-6.87 -16.97,-10.31 -31.54,-10.31 -22.82,0 -45.64,7 -68.45,21.03l-12.37 -29.28c10.71,-7.43 23.71,-13.4 38.97,-17.94 15.25,-4.53 29.89,-6.8 43.91,-6.8zm-12.37 178.15c15.12,0 27.49,-5.16 37.11,-15.47 9.63,-10.31 14.44,-23.57 14.44,-39.8l0 -10.72 -7.43 0c-21.44,0 -37.93,0.96 -49.48,2.89 -11.54,1.92 -19.79,5.15 -24.74,9.69 -4.95,4.53 -7.42,11.07 -7.42,19.59 0,9.62 3.5,17.66 10.51,24.12 7.01,6.46 16.02,9.7 27.01,9.7zm237.35 -143.1l-25.16 2.47c-19.79,1.93 -34.02,7.98 -42.68,18.15 -8.66,10.17 -12.99,23.09 -12.99,38.76l0 111.75 -41.65 0 0 -201.24 40.41 0 0 35.05c10.72,-23.64 32.58,-36.69 65.57,-39.17l13.61 -0.82 2.89 35.05zm77.34 -35.05c26.94,0 46.94,6.73 60,20.2 13.06,13.47 19.58,33.95 19.58,61.45l0 124.53 -40 0 0 -33.4c-5.22,11.82 -12.98,20.83 -23.29,27.01 -10.31,6.19 -22.34,9.28 -36.09,9.28 -13.19,0 -25.29,-2.68 -36.29,-8.04 -10.99,-5.36 -19.58,-12.85 -25.77,-22.48 -6.18,-9.61 -9.28,-20.34 -9.28,-32.16 0,-14.57 3.79,-26.05 11.34,-34.44 7.56,-8.38 20.07,-14.36 37.53,-17.93 17.46,-3.58 41.44,-5.36 71.96,-5.36l9.49 0 0 -11.96c0,-15.4 -3.23,-26.53 -9.7,-33.4 -6.46,-6.87 -16.97,-10.31 -31.54,-10.31 -22.82,0 -45.64,7 -68.46,21.03l-12.37 -29.28c10.72,-7.43 23.71,-13.4 38.97,-17.94 15.26,-4.53 29.89,-6.8 43.92,-6.8zm-12.37 178.15c15.12,0 27.49,-5.16 37.11,-15.47 9.62,-10.31 14.44,-23.57 14.44,-39.8l0 -10.72 -7.43 0c-21.44,0 -37.93,0.96 -49.48,2.89 -11.55,1.92 -19.8,5.15 -24.75,9.69 -4.94,4.53 -7.42,11.07 -7.42,19.59 0,9.62 3.51,17.66 10.52,24.12 7,6.46 16.01,9.7 27.01,9.7zm837.03 -178.15c45.08,0 67.62,27.08 67.62,81.23l0 124.95 -41.64 0 0 -123.3c0,-17.04 -2.96,-29.48 -8.87,-37.31 -5.91,-7.84 -15.47,-11.76 -28.66,-11.76 -15.12,0 -27.08,5.22 -35.88,15.67 -8.79,10.45 -13.19,24.75 -13.19,42.89l0 113.81 -41.66 0 0 -123.3c0,-17.04 -3.02,-29.48 -9.07,-37.31 -6.05,-7.84 -15.53,-11.76 -28.45,-11.76 -15.4,0 -27.49,5.22 -36.29,15.67 -8.8,10.45 -13.2,24.75 -13.2,42.89l0 113.81 -41.64 0 0 -201.24 40.82 0 0 30.52c6.32,-11.27 14.85,-20 25.57,-26.19 10.72,-6.18 22.96,-9.27 36.69,-9.27 31.07,0 51.28,12.92 60.62,38.76 6.33,-12.1 15.4,-21.58 27.23,-28.46 11.81,-6.87 25.15,-10.3 40,-10.3zm177.96 209.07c-19.79,0 -37.18,-4.26 -52.17,-12.78 -14.98,-8.53 -26.53,-20.69 -34.64,-36.5 -8.11,-15.81 -12.16,-34.15 -12.16,-55.05 0,-21.17 4.05,-39.65 12.16,-55.47 8.11,-15.8 19.66,-27.97 34.64,-36.49 14.99,-8.52 32.38,-12.78 52.17,-12.78 19.79,0 37.18,4.26 52.17,12.78 14.97,8.52 26.52,20.69 34.63,36.49 8.11,15.82 12.17,34.3 12.17,55.47 0,20.9 -4.06,39.24 -12.17,55.05 -8.11,15.81 -19.66,27.97 -34.63,36.5 -14.99,8.52 -32.38,12.78 -52.17,12.78zm0 -32.99c18.42,0 32.51,-6.05 42.26,-18.15 9.77,-12.09 14.64,-29.82 14.64,-53.19 0,-23.09 -4.94,-40.76 -14.84,-52.99 -9.9,-12.23 -23.92,-18.35 -42.06,-18.35 -18.15,0 -32.17,6.12 -42.06,18.35 -9.9,12.23 -14.85,29.9 -14.85,52.99 0,23.37 4.88,41.1 14.64,53.19 9.76,12.1 23.85,18.15 42.27,18.15zm219.61 -176.08c48.11,0 72.16,27.08 72.16,81.23l0 124.95 -41.65 0 0 -122.88c0,-17.05 -3.37,-29.56 -10.1,-37.53 -6.73,-7.98 -17.25,-11.96 -31.54,-11.96 -16.78,0 -30.25,5.22 -40.42,15.67 -10.17,10.45 -15.26,24.47 -15.26,42.06l0 114.64 -41.65 0 0 -201.24 40.83 0 0 32.17c6.59,-12.09 15.8,-21.3 27.63,-27.63 11.81,-6.32 25.15,-9.48 40,-9.48zm166 209.07c-34.92,0 -62.82,-8.52 -83.71,-25.57l12.78 -30.1c20.62,15.94 44.68,23.92 72.17,23.92 13.47,0 23.78,-2.27 30.92,-6.81 7.15,-4.53 10.73,-10.92 10.73,-19.17 0,-7.15 -2.41,-12.79 -7.22,-16.91 -4.81,-4.13 -13.13,-7.56 -24.95,-10.31l-33.4 -7.42c-17.87,-4.12 -31.34,-10.86 -40.41,-20.21 -9.07,-9.35 -13.61,-21.16 -13.61,-35.46 0,-18.15 7.35,-32.85 22.06,-44.12 14.71,-11.27 34.02,-16.91 57.94,-16.91 14.29,0 27.9,2.27 40.82,6.8 12.93,4.54 24.06,10.93 33.41,19.18l-12.79 29.27c-19.79,-15.66 -40.27,-23.5 -61.44,-23.5 -12.65,0 -22.61,2.48 -29.9,7.42 -7.29,4.95 -10.93,11.69 -10.93,20.21 0,6.87 2.27,12.44 6.81,16.7 4.54,4.26 11.75,7.49 21.65,9.69l34.23 7.84c19.52,4.4 33.81,11.2 42.88,20.41 9.07,9.21 13.61,21.23 13.61,36.08 0,18.14 -7.35,32.51 -22.07,43.09 -14.7,10.59 -34.56,15.88 -59.58,15.88zm187.03 -32.16c6.33,0 12.51,-0.42 18.56,-1.24l-2.06 31.75c-6.87,1.1 -14.02,1.65 -21.44,1.65 -26.12,0 -45.57,-6.39 -58.35,-19.18 -12.79,-12.78 -19.18,-31.26 -19.18,-55.46l0 -97.32 -39.17 0 0 -32.17 39.17 0 0 -60.62 41.65 0 0 60.62 55.26 0 0 32.17 -55.26 0 0 95.67c0,29.42 13.61,44.13 40.82,44.13zm188.69 -64.33l-142.27 0c3.03,42.61 24.19,63.91 63.51,63.91 23.09,0 43.98,-7.55 62.68,-22.68l12.78 29.28c-9.34,7.97 -20.89,14.3 -34.64,18.97 -13.74,4.68 -27.77,7.01 -42.06,7.01 -32.16,0 -57.53,-9.21 -76.09,-27.63 -18.55,-18.42 -27.83,-43.85 -27.83,-76.29 0,-20.62 4.06,-38.9 12.17,-54.85 8.11,-15.94 19.52,-28.31 34.22,-37.11 14.71,-8.79 31.42,-13.19 50.11,-13.19 27.22,0 48.59,8.8 64.12,26.39 15.54,17.59 23.3,41.93 23.3,72.99l0 13.2zm-86.59 -82.07c-15.95,0 -28.67,5.02 -38.15,15.06 -9.49,10.03 -15.19,24.39 -17.12,43.09l105.98 0c-0.82,-18.7 -5.56,-33.06 -14.22,-43.09 -8.66,-10.04 -20.83,-15.06 -36.49,-15.06zm220.85 4.54l-25.16 2.47c-19.8,1.93 -34.03,7.98 -42.68,18.15 -8.67,10.17 -13,23.09 -13,38.76l0 111.75 -41.64 0 0 -201.24 40.41 0 0 35.05c10.72,-23.64 32.58,-36.69 65.57,-39.17l13.6 -0.82 2.9 35.05z"/>
    <path class="fil3" d="M3206.45 2183.62l0 -290.72 41.64 0 0 290.72 -41.64 0zm153.22 2.89c-19.79,0 -37.18,-4.26 -52.17,-12.78 -14.98,-8.53 -26.53,-20.69 -34.64,-36.5 -8.11,-15.81 -12.16,-34.15 -12.16,-55.05 0,-21.17 4.05,-39.65 12.16,-55.47 8.11,-15.8 19.66,-27.97 34.64,-36.49 14.99,-8.52 32.38,-12.78 52.17,-12.78 19.79,0 37.18,4.26 52.17,12.78 14.97,8.52 26.52,20.69 34.63,36.49 8.11,15.82 12.17,34.3 12.17,55.47 0,20.9 -4.06,39.24 -12.17,55.05 -8.11,15.81 -19.66,27.97 -34.63,36.5 -14.99,8.52 -32.38,12.78 -52.17,12.78zm0 -32.99c18.42,0 32.51,-6.05 42.27,-18.15 9.76,-12.09 14.63,-29.82 14.63,-53.19 0,-23.09 -4.94,-40.76 -14.84,-52.99 -9.9,-12.23 -23.92,-18.35 -42.06,-18.35 -18.15,0 -32.17,6.12 -42.06,18.35 -9.9,12.23 -14.85,29.9 -14.85,52.99 0,23.37 4.88,41.1 14.64,53.19 9.76,12.1 23.85,18.15 42.27,18.15zm182.08 32.99c-34.91,0 -62.81,-8.52 -83.71,-25.57l12.78 -30.1c20.62,15.94 44.68,23.92 72.17,23.92 13.47,0 23.78,-2.27 30.92,-6.81 7.15,-4.53 10.73,-10.92 10.73,-19.17 0,-7.15 -2.41,-12.79 -7.22,-16.91 -4.81,-4.13 -13.12,-7.56 -24.95,-10.31l-33.4 -7.42c-17.87,-4.12 -31.34,-10.86 -40.41,-20.21 -9.07,-9.35 -13.61,-21.16 -13.61,-35.46 0,-18.15 7.35,-32.85 22.06,-44.12 14.71,-11.27 34.02,-16.91 57.94,-16.91 14.29,0 27.9,2.27 40.83,6.8 12.92,4.54 24.05,10.93 33.4,19.18l-12.79 29.27c-19.79,-15.66 -40.27,-23.5 -61.44,-23.5 -12.64,0 -22.61,2.48 -29.9,7.42 -7.28,4.95 -10.93,11.69 -10.93,20.21 0,6.87 2.28,12.44 6.81,16.7 4.54,4.26 11.75,7.49 21.65,9.69l34.23 7.84c19.52,4.4 33.81,11.2 42.88,20.41 9.07,9.21 13.61,21.23 13.61,36.08 0,18.14 -7.35,32.51 -22.06,43.09 -14.71,10.59 -34.57,15.88 -59.59,15.88z"/>
    <polygon class="fil5" points="3628.99,2134.55 3678.07,2134.55 3678.07,2183.62 3628.99,2183.62 "/>
   </g>
  </g>
 </g>
</svg>
