<?xml version="1.0" encoding="UTF-8"?>
<!DOCTYPE svg PUBLIC "-//W3C//DTD SVG 1.1//EN" "http://www.w3.org/Graphics/SVG/1.1/DTD/svg11.dtd">
<!-- Creator: CorelDRAW 2017 -->
<svg xmlns="http://www.w3.org/2000/svg" xml:space="preserve" width="50.7998mm" height="33.8666mm" version="1.1" style="shape-rendering:geometricPrecision; text-rendering:geometricPrecision; image-rendering:optimizeQuality; fill-rule:evenodd; clip-rule:evenodd"
viewBox="0 0 5079.98 3386.66"
 xmlns:xlink="http://www.w3.org/1999/xlink">
 <defs>
  <style type="text/css">
   <![CDATA[
    .fil0 {fill:none}
    .fil3 {fill:#ED3237}
    .fil1 {fill:#373435;fill-rule:nonzero}
    .fil2 {fill:#ED3237;fill-rule:nonzero}
   ]]>
  </style>
 </defs>
 <g id="Capa_x0020_1">
  <metadata id="CorelCorpID_0Corel-Layer"/>
  <rect class="fil0" x="-0" width="5079.99" height="3386.66"/>
  <g id="_2189101339952">
   <path class="fil1" d="M561.57 1473.57c-26.96,-16.97 -53.91,-29.59 -80.75,-38 -26.83,-8.29 -54.7,-12.5 -83.52,-12.5 -44.71,0 -80.62,12.5 -107.72,37.35 -27.09,24.86 -40.63,57.74 -40.63,98.65 0,41.03 13.54,74.18 40.63,99.29 27.1,25.13 63.01,37.75 107.72,37.75 28.01,0 55.5,-4.34 82.33,-12.88 26.84,-8.55 54.19,-21.71 81.94,-39.07l4.61 145.87c-31.03,16.16 -63.39,28.27 -97.06,36.16 -33.68,8.03 -69.58,11.98 -107.86,11.98 -41.56,0 -80.23,-6.71 -115.73,-20.27 -35.64,-13.4 -67.48,-33.26 -95.77,-59.44 -29.06,-26.97 -50.63,-56.95 -64.84,-89.84 -14.33,-32.88 -21.43,-69.18 -21.43,-109.03 0,-40.12 7.23,-76.67 21.57,-109.83 14.33,-33.14 35.9,-63.13 64.7,-90.09 28.82,-26.69 61.3,-46.55 97.6,-59.45 36.44,-12.76 78,-19.2 124.69,-19.2 32.35,0 64.19,3.68 95.36,11.05 31.17,7.23 62.61,18.54 94.16,33.67l0 147.83zm2338.64 355.12l0 -538.99 393.92 0 0 117.58 -208.48 0 0 93.92 200.45 0 0 112.85 -200.45 0 0 97.06 215.44 0 0 117.58 -400.88 0zm-2125.91 -55.67c-1.75,-8.42 -2.99,-16.4 -3.86,-23.95 -0.87,-7.62 -1.31,-15.08 -1.31,-22.43 0,-1.59 0.09,-3.7 0.26,-6.41 0.18,-2.81 0.26,-4.82 0.26,-6.23l-29.28 11.31 -2.37 1.05c-24.47,9.48 -36.75,21.5 -36.75,36.04 0,8.25 2.37,14.82 7.2,19.65 4.82,4.82 11.31,7.19 19.55,7.19 6.32,0 12.71,-1.06 19.03,-3.08 6.32,-2.09 15.44,-6.49 27.27,-13.14zm14.38 35.24c-16.23,8.76 -32.19,15.17 -47.8,19.38 -15.51,4.21 -31.37,6.32 -47.43,6.32 -25.87,0 -45.94,-5.79 -60.23,-17.37 -14.3,-11.57 -21.4,-27.89 -21.4,-48.92 0,-16.84 5.44,-31.22 16.3,-43.31 10.88,-12.11 26.49,-21.14 46.83,-27.11 5.96,-1.75 14.91,-4.11 26.75,-7.19 32.43,-8.41 55.33,-16.4 68.47,-23.93 0.19,-1.05 0.36,-2.11 0.45,-3.07 0.08,-1.05 0.08,-2.72 0.08,-4.91 0,-10.88 -3.24,-18.59 -9.73,-23.33 -6.48,-4.73 -17.27,-7.1 -32.35,-7.1 -18.15,0 -35.87,3.43 -53.15,10.16 -17.27,6.85 -34.36,17.11 -51.37,30.88l0 -80.06c20.08,-14.11 40.77,-24.81 62.25,-31.91 21.48,-7.1 43.76,-10.62 66.91,-10.62 40.5,0 71.2,8.86 91.98,26.58 20.78,17.71 31.21,43.75 31.21,78.22l0 77.24c0,12.02 2.2,19.82 6.48,23.5 4.3,3.77 12.81,5.79 25.61,6.05l-19.38 73.04c-5.52,1.05 -10.43,1.83 -14.81,2.37 -4.39,0.53 -8.07,0.79 -11.14,0.79 -19.38,0 -34.73,-1.94 -46.04,-5.89 -11.31,-3.94 -20.77,-10.6 -28.49,-19.81zm493.47 20.43l0 -158.19c0,-11.92 -2.28,-20.6 -6.91,-25.85 -4.64,-5.35 -12.19,-7.98 -22.62,-7.98 -9.48,0 -17.72,2.28 -24.64,6.92 -6.94,4.65 -12.54,11.66 -16.84,21.04l0 164.06 -97.32 0 0 -158.19c0,-11.92 -2.28,-20.6 -6.94,-25.85 -4.65,-5.35 -12.09,-7.98 -22.54,-7.98 -9.46,0 -17.54,2.28 -24.28,6.84 -6.75,4.47 -12.45,11.57 -17.28,21.12l0 164.06 -107.84 0 0 -277.77 107.84 0 0 33.22c13.16,-13.16 26.66,-22.79 40.43,-28.85 13.76,-6.05 29.02,-9.12 45.77,-9.12 19.91,0 36.3,3.87 49.27,11.57 13.07,7.72 23.59,19.84 31.58,36.4 13.94,-16.56 28.49,-28.68 43.83,-36.4 15.35,-7.7 32.53,-11.57 51.56,-11.57 29.72,0 52.1,8.34 67.26,25.09 15.16,16.65 22.8,41.29 22.8,73.91l0 183.52 -113.13 0zm437.11 -48.14c-18.67,18.15 -38.92,31.57 -60.75,40.34 -21.83,8.68 -46.13,13.07 -72.87,13.07 -44.81,0 -81.46,-13.5 -109.95,-40.51 -28.42,-26.92 -42.62,-61.82 -42.62,-104.7 0,-41.39 13.59,-75.58 40.86,-102.33 27.18,-26.83 62.08,-40.25 104.52,-40.25 42.26,0 76.02,13.16 101.09,39.37 25.09,26.23 37.63,61.47 37.63,105.92 0,3.78 0,6.58 -0.09,8.43 -0.1,1.92 -0.26,3.59 -0.43,5.16l-175.82 0.28c2.64,19.81 10.36,35.15 23.15,46.02 12.89,10.88 29.74,16.32 50.68,16.32 12.99,0 25.7,-2.37 37.96,-7.19 12.38,-4.83 27.01,-13.24 44.03,-25.43l22.61 45.5zm-180.97 -110.21l79.45 0c0,-1.22 0.07,-2.72 0.26,-4.57 0.17,-1.75 0.26,-3.06 0.26,-3.94 0,-16.4 -3.51,-28.94 -10.43,-37.78 -6.93,-8.79 -16.75,-13.16 -29.38,-13.16 -13.42,0 -23.41,4.37 -30.16,13.07 -6.67,8.67 -10,21.64 -10,38.84l0 7.54zm223.15 158.35l0 -277.77 99.45 0 0 70.49c11.47,-24.64 24.8,-43.14 40.06,-55.59 15.25,-12.37 32.36,-18.6 51.39,-18.6 9.9,0 20.16,1.66 30.6,5.1 10.43,3.41 20.95,8.32 31.57,14.81l-49.56 108.55c-8.05,-6.65 -15.42,-11.57 -22,-14.54 -6.58,-2.99 -13.16,-4.49 -19.64,-4.49 -12.36,0 -22.89,4.66 -31.75,14.04 -8.84,9.29 -15.51,23.05 -20.17,41.2l0 116.8 -109.95 0zm288.31 -343.46c0,-10.6 3.68,-19.55 11.14,-26.92 7.36,-7.36 16.32,-11.04 26.92,-11.04 10.88,0 19.91,3.59 27.27,10.87 7.27,7.28 10.96,16.31 10.96,27.09 0,10.88 -3.69,19.91 -11.13,27.28 -7.38,7.36 -16.41,11.04 -27.1,11.04 -10.79,0 -19.73,-3.68 -27.09,-11.04 -7.29,-7.37 -10.97,-16.4 -10.97,-27.28zm-16.3 343.46l0 -277.77 109.43 0 0 277.77 -109.43 0zm161.08 0l0 -277.77 109.43 0 0 33.22c13.14,-13.16 26.83,-22.79 40.94,-28.85 14.11,-6.05 29.91,-9.12 47.35,-9.12 30.51,0 53.58,8.42 69.18,25.17 15.69,16.84 23.5,41.38 23.5,73.83l0 183.52 -109.43 0 0 -158.19c0,-11.92 -2.28,-20.6 -6.92,-25.85 -4.65,-5.35 -12.11,-7.98 -22.54,-7.98 -9.48,0 -17.63,2.28 -24.55,6.92 -6.93,4.65 -12.71,11.66 -17.53,21.04l0 164.06 -109.43 0zm438.25 -138.89c0,16.67 4.45,30 13.33,40.07 8.93,10.08 20.41,15.17 34.62,15.17 14.04,0 25.44,-5.09 34.21,-15.17 8.67,-10.07 13.05,-23.4 13.05,-40.07 0,-16.4 -4.29,-29.63 -12.98,-39.71 -8.59,-10 -20.07,-14.99 -34.28,-14.99 -14.38,0 -25.95,4.99 -34.72,14.99 -8.86,10.08 -13.23,23.31 -13.23,39.71zm-111.54 0c0,-43.15 14.56,-77.86 43.57,-104.17 29.03,-26.3 67.69,-39.46 116.01,-39.46 48.23,0 86.89,13.16 115.83,39.46 28.94,26.31 43.4,61.02 43.4,104.17 0,43.14 -14.56,77.87 -43.66,104.17 -29.11,26.31 -67.69,39.46 -115.57,39.46 -48.13,0 -86.81,-13.15 -115.92,-39.46 -29.1,-26.3 -43.66,-61.03 -43.66,-104.17zm830.75 138.89l0 -359.33 109.43 0 0 359.33 -109.43 0zm436.25 -48.14c-18.69,18.15 -38.94,31.57 -60.78,40.34 -21.83,8.68 -46.13,13.07 -72.86,13.07 -44.81,0 -81.47,-13.5 -109.96,-40.51 -28.41,-26.92 -42.62,-61.82 -42.62,-104.7 0,-41.39 13.59,-75.58 40.87,-102.33 27.18,-26.83 62.08,-40.25 104.51,-40.25 42.27,0 76.03,13.16 101.1,39.37 25.08,26.23 37.63,61.47 37.63,105.92 0,3.78 0,6.58 -0.1,8.43 -0.07,1.92 -0.26,3.59 -0.43,5.16l-175.81 0.28c2.63,19.81 10.35,35.15 23.14,46.02 12.9,10.88 29.74,16.32 50.68,16.32 12.99,0 25.7,-2.37 37.97,-7.19 12.37,-4.83 27.01,-13.24 44.02,-25.43l22.64 45.5zm-180.99 -110.21l79.44 0c0,-1.22 0.08,-2.72 0.27,-4.57 0.17,-1.75 0.26,-3.06 0.26,-3.94 0,-16.4 -3.52,-28.94 -10.43,-37.78 -6.94,-8.79 -16.75,-13.16 -29.39,-13.16 -13.4,0 -23.4,4.37 -30.15,13.07 -6.67,8.67 -10,21.64 -10,38.84l0 7.54zm373.53 102.68c-1.75,-8.42 -2.99,-16.4 -3.85,-23.95 -0.88,-7.62 -1.33,-15.08 -1.33,-22.43 0,-1.59 0.1,-3.7 0.27,-6.41 0.18,-2.81 0.26,-4.82 0.26,-6.23l-29.28 11.31 -2.37 1.05c-24.47,9.48 -36.73,21.5 -36.73,36.04 0,8.25 2.35,14.82 7.18,19.65 4.82,4.82 11.32,7.19 19.55,7.19 6.32,0 12.71,-1.06 19.03,-3.08 6.32,-2.09 15.44,-6.49 27.27,-13.14zm14.38 35.24c-16.23,8.76 -32.18,15.17 -47.78,19.38 -15.52,4.21 -31.39,6.32 -47.45,6.32 -25.87,0 -45.95,-5.79 -60.23,-17.37 -14.3,-11.57 -21.4,-27.89 -21.4,-48.92 0,-16.84 5.44,-31.22 16.32,-43.31 10.86,-12.11 26.47,-21.14 46.82,-27.11 5.95,-1.75 14.9,-4.11 26.74,-7.19 32.45,-8.41 55.33,-16.4 68.47,-23.93 0.19,-1.05 0.36,-2.11 0.45,-3.07 0.09,-1.05 0.09,-2.72 0.09,-4.91 0,-10.88 -3.25,-18.59 -9.74,-23.33 -6.48,-4.73 -17.27,-7.1 -32.35,-7.1 -18.16,0 -35.86,3.43 -53.15,10.16 -17.27,6.85 -34.36,17.11 -51.37,30.88l0 -80.06c20.08,-14.11 40.77,-24.81 62.25,-31.91 21.48,-7.1 43.76,-10.62 66.9,-10.62 40.51,0 71.21,8.86 91.99,26.58 20.77,17.71 31.21,43.75 31.21,78.22l0 77.24c0,12.02 2.2,19.82 6.48,23.5 4.3,3.77 12.82,5.79 25.61,6.05l-19.38 73.04c-5.52,1.05 -10.43,1.83 -14.81,2.37 -4.39,0.53 -8.07,0.79 -11.14,0.79 -19.37,0 -34.72,-1.94 -46.03,-5.89 -11.31,-3.94 -20.78,-10.6 -28.5,-19.81zm126.27 20.43l0 -8.51 122.75 -188.78 -113.29 0 0 -80.48 279.9 0 0 12.62 -117.32 182.56 117.32 0 0 82.59 -289.36 0zm478.22 -55.67c-1.75,-8.42 -2.99,-16.4 -3.85,-23.95 -0.88,-7.62 -1.33,-15.08 -1.33,-22.43 0,-1.59 0.1,-3.7 0.27,-6.41 0.18,-2.81 0.26,-4.82 0.26,-6.23l-29.28 11.31 -2.37 1.05c-24.47,9.48 -36.73,21.5 -36.73,36.04 0,8.25 2.35,14.82 7.18,19.65 4.82,4.82 11.32,7.19 19.55,7.19 6.32,0 12.71,-1.06 19.03,-3.08 6.32,-2.09 15.44,-6.49 27.27,-13.14zm14.38 35.24c-16.23,8.76 -32.18,15.17 -47.78,19.38 -15.52,4.21 -31.39,6.32 -47.45,6.32 -25.87,0 -45.95,-5.79 -60.23,-17.37 -14.3,-11.57 -21.4,-27.89 -21.4,-48.92 0,-16.84 5.44,-31.22 16.32,-43.31 10.86,-12.11 26.47,-21.14 46.82,-27.11 5.95,-1.75 14.9,-4.11 26.74,-7.19 32.45,-8.41 55.33,-16.4 68.47,-23.93 0.19,-1.05 0.36,-2.11 0.45,-3.07 0.09,-1.05 0.09,-2.72 0.09,-4.91 0,-10.88 -3.25,-18.59 -9.74,-23.33 -6.48,-4.73 -17.27,-7.1 -32.35,-7.1 -18.16,0 -35.86,3.43 -53.15,10.16 -17.27,6.85 -34.36,17.11 -51.37,30.88l0 -80.06c20.08,-14.11 40.77,-24.81 62.25,-31.91 21.48,-7.1 43.76,-10.62 66.9,-10.62 40.51,0 71.21,8.86 91.99,26.58 20.77,17.71 31.21,43.75 31.21,78.22l0 77.24c0,12.02 2.2,19.82 6.48,23.5 4.3,3.77 12.82,5.79 25.61,6.05l-19.37 73.04c-5.53,1.05 -10.44,1.83 -14.82,2.37 -4.39,0.53 -8.07,0.79 -11.14,0.79 -19.37,0 -34.72,-1.94 -46.03,-5.89 -11.31,-3.94 -20.78,-10.6 -28.5,-19.81zm149.41 20.43l0 -277.77 99.44 0 0 70.49c11.49,-24.64 24.82,-43.14 40.07,-55.59 15.26,-12.37 32.35,-18.6 51.38,-18.6 9.92,0 20.17,1.66 30.6,5.1 10.43,3.41 20.95,8.32 31.57,14.81l-49.54 108.55c-8.07,-6.65 -15.44,-11.57 -22.02,-14.54 -6.56,-2.99 -13.14,-4.49 -19.63,-4.49 -12.36,0 -22.9,4.66 -31.74,14.04 -8.86,9.29 -15.53,23.05 -20.17,41.2l0 116.8 -109.96 0z"/>
   <path class="fil2" d="M2889.48 2081.36l0 -3.05 108.11 -158.79 -105.19 0 0 -50.32 219.82 0 0 3.47 -105.35 155.58 105.35 0 0 53.11 -222.74 0zm331.98 -32.87c-1.03,-4.97 -1.75,-9.69 -2.28,-14.13 -0.52,-4.51 -0.78,-8.92 -0.78,-13.25 0,-0.94 0.06,-2.19 0.17,-3.79 0.09,-1.65 0.15,-2.85 0.15,-3.67l-17.3 6.68 -1.39 0.61c-14.45,5.6 -21.7,12.7 -21.7,21.28 0,4.87 1.41,8.75 4.26,11.6 2.83,2.85 6.67,4.26 11.54,4.26 3.73,0 7.5,-0.64 11.23,-1.82 3.73,-1.25 9.11,-3.84 16.1,-7.77zm8.49 20.82c-9.58,5.18 -19,8.95 -28.23,11.43 -9.15,2.48 -18.52,3.73 -27.99,3.73 -15.27,0 -27.14,-3.42 -35.57,-10.25 -8.44,-6.84 -12.63,-16.47 -12.63,-28.89 0,-9.93 3.2,-18.42 9.63,-25.57 6.41,-7.15 15.62,-12.49 27.64,-16 3.52,-1.03 8.8,-2.43 15.8,-4.25 19.15,-4.96 32.66,-9.68 40.43,-14.13 0.11,-0.63 0.21,-1.25 0.26,-1.82 0.05,-0.62 0.05,-1.6 0.05,-2.9 0,-6.42 -1.91,-10.97 -5.75,-13.77 -3.82,-2.79 -10.2,-4.19 -19.11,-4.19 -10.71,0 -21.17,2.02 -31.37,6.01 -10.2,4.03 -20.29,10.09 -30.34,18.23l0 -47.28c11.85,-8.33 24.08,-14.65 36.77,-18.84 12.68,-4.19 25.84,-6.27 39.49,-6.27 23.93,0 42.05,5.23 54.31,15.7 12.27,10.44 18.43,25.82 18.43,46.18l0 45.61c0,7.08 1.3,11.69 3.84,13.88 2.54,2.22 7.56,3.4 15.11,3.56l-11.43 43.13c-3.27,0.61 -6.16,1.09 -8.75,1.4 -2.59,0.31 -4.78,0.46 -6.58,0.46 -11.45,0 -20.51,-1.14 -27.18,-3.47 -6.69,-2.32 -12.27,-6.25 -16.83,-11.69zm225.52 5.89c-9.3,3.17 -18.36,5.5 -27.22,6.99 -8.85,1.51 -17.45,2.28 -25.84,2.28 -28.11,0 -50.79,-7.81 -68.03,-23.51 -17.25,-15.67 -25.83,-36.23 -25.83,-61.61 0,-25.47 8.54,-45.97 25.58,-61.49 17.03,-15.55 39.65,-23.31 67.97,-23.31 8.6,0 17.19,0.78 25.78,2.28 8.59,1.51 17.41,3.77 26.41,6.84l0 54.62c-9.11,-3.94 -16.52,-6.64 -22.16,-8.13 -5.64,-1.45 -11.08,-2.18 -16.37,-2.18 -12.41,0 -22.4,2.9 -29.97,8.71 -7.61,5.84 -11.38,13.4 -11.38,22.66 0,9.53 3.77,17.14 11.38,22.99 7.57,5.8 17.56,8.69 29.97,8.69 5.09,0 10.99,-0.77 17.82,-2.32 6.82,-1.6 14.13,-3.89 21.89,-6.94l0 53.43zm115.46 -26.71c-1.03,-4.97 -1.76,-9.69 -2.28,-14.13 -0.51,-4.51 -0.77,-8.92 -0.77,-13.25 0,-0.94 0.04,-2.19 0.15,-3.79 0.11,-1.65 0.16,-2.85 0.16,-3.67l-17.29 6.68 -1.4 0.61c-14.44,5.6 -21.7,12.7 -21.7,21.28 0,4.87 1.4,8.75 4.25,11.6 2.85,2.85 6.68,4.26 11.54,4.26 3.73,0 7.51,-0.64 11.24,-1.82 3.73,-1.25 9.1,-3.84 16.1,-7.77zm8.49 20.82c-9.57,5.18 -19,8.95 -28.21,11.43 -9.17,2.48 -18.54,3.73 -28.02,3.73 -15.27,0 -27.12,-3.42 -35.56,-10.25 -8.44,-6.84 -12.63,-16.47 -12.63,-28.89 0,-9.93 3.2,-18.42 9.63,-25.57 6.42,-7.15 15.64,-12.49 27.64,-16 3.53,-1.03 8.8,-2.43 15.79,-4.25 19.16,-4.96 32.67,-9.68 40.43,-14.13 0.11,-0.63 0.22,-1.25 0.27,-1.82 0.04,-0.62 0.04,-1.6 0.04,-2.9 0,-6.42 -1.91,-10.97 -5.74,-13.77 -3.83,-2.79 -10.21,-4.19 -19.1,-4.19 -10.72,0 -21.18,2.02 -31.38,6.01 -10.2,4.03 -20.3,10.09 -30.34,18.23l0 -47.28c11.86,-8.33 24.08,-14.65 36.76,-18.84 12.68,-4.19 25.84,-6.27 39.51,-6.27 23.91,0 42.03,5.23 54.31,15.7 12.27,10.44 18.43,25.82 18.43,46.18l0 45.61c0,7.08 1.3,11.69 3.82,13.88 2.55,2.22 7.57,3.4 15.12,3.56l-11.43 43.13c-3.27,0.61 -6.17,1.09 -8.75,1.4 -2.59,0.31 -4.77,0.46 -6.58,0.46 -11.44,0 -20.5,-1.14 -27.18,-3.47 -6.68,-2.32 -12.27,-6.25 -16.83,-11.69zm217.77 -2.44c-7.98,6.17 -16.58,10.67 -25.69,13.41 -9.17,2.79 -19.83,4.19 -32.05,4.19 -20.34,0 -35.71,-4.65 -46.18,-14.04 -10.46,-9.36 -15.68,-23.12 -15.68,-41.26l0 -70.51 -28.28 0 0 -19.57 77.09 -69.89 16.12 0 0 48.15 51.2 0 0 41.31 -51.2 0 0 49.14c0,7.96 1.45,13.56 4.28,16.67 2.91,3.16 7.88,4.7 14.96,4.7 5.55,0 11.3,-0.97 17.31,-2.9 6.01,-1.91 12.05,-4.76 18.12,-8.64l0 49.24zm186.38 -13.92c-11.03,10.7 -22.99,18.62 -35.89,23.8 -12.88,5.13 -27.22,7.72 -43.02,7.72 -26.45,0 -48.09,-7.96 -64.91,-23.91 -16.78,-15.9 -25.17,-36.51 -25.17,-61.82 0,-24.44 8.02,-44.64 24.12,-60.42 16.05,-15.85 36.67,-23.77 61.73,-23.77 24.94,0 44.88,7.76 59.69,23.25 14.81,15.48 22.2,36.28 22.2,62.54 0,2.23 0,3.88 -0.04,4.96 -0.05,1.16 -0.16,2.13 -0.27,3.07l-103.8 0.15c1.55,11.7 6.11,20.76 13.66,27.18 7.62,6.41 17.55,9.63 29.93,9.63 7.66,0 15.18,-1.4 22.42,-4.25 7.3,-2.85 15.95,-7.81 25.99,-15.01l13.36 26.88zm-106.86 -65.09l46.91 0c0,-0.72 0.04,-1.6 0.15,-2.7 0.11,-1.03 0.15,-1.8 0.15,-2.32 0,-9.68 -2.06,-17.08 -6.16,-22.32 -4.08,-5.17 -9.89,-7.76 -17.33,-7.76 -7.94,0 -13.83,2.59 -17.82,7.72 -3.94,5.13 -5.9,12.79 -5.9,22.93l0 4.45zm269.07 87.34c-9.33,3.17 -18.39,5.5 -27.23,6.99 -8.86,1.51 -17.44,2.28 -25.84,2.28 -28.12,0 -50.79,-7.81 -68.03,-23.51 -17.24,-15.67 -25.84,-36.23 -25.84,-61.61 0,-25.47 8.55,-45.97 25.58,-61.49 17.04,-15.55 39.66,-23.31 67.98,-23.31 8.6,0 17.18,0.78 25.78,2.28 8.6,1.51 17.4,3.77 26.41,6.84l0 54.62c-9.12,-3.94 -16.52,-6.64 -22.16,-8.13 -5.65,-1.45 -11.08,-2.18 -16.36,-2.18 -12.42,0 -22.42,2.9 -29.99,8.71 -7.61,5.84 -11.38,13.4 -11.38,22.66 0,9.53 3.77,17.14 11.38,22.99 7.57,5.8 17.57,8.69 29.99,8.69 5.07,0 10.97,-0.77 17.81,-2.32 6.83,-1.6 14.13,-3.89 21.9,-6.94l0 53.43zm115.45 -26.71c-1.04,-4.97 -1.75,-9.69 -2.28,-14.13 -0.52,-4.51 -0.78,-8.92 -0.78,-13.25 0,-0.94 0.06,-2.19 0.15,-3.79 0.11,-1.65 0.17,-2.85 0.17,-3.67l-17.3 6.68 -1.39 0.61c-14.45,5.6 -21.7,12.7 -21.7,21.28 0,4.87 1.39,8.75 4.26,11.6 2.83,2.85 6.67,4.26 11.54,4.26 3.73,0 7.5,-0.64 11.23,-1.82 3.73,-1.25 9.11,-3.84 16.1,-7.77zm8.49 20.82c-9.58,5.18 -19,8.95 -28.23,11.43 -9.15,2.48 -18.52,3.73 -27.99,3.73 -15.27,0 -27.14,-3.42 -35.57,-10.25 -8.44,-6.84 -12.63,-16.47 -12.63,-28.89 0,-9.93 3.2,-18.42 9.63,-25.57 6.41,-7.15 15.62,-12.49 27.64,-16 3.52,-1.03 8.8,-2.43 15.8,-4.25 19.15,-4.96 32.66,-9.68 40.43,-14.13 0.11,-0.63 0.2,-1.25 0.26,-1.82 0.05,-0.62 0.05,-1.6 0.05,-2.9 0,-6.42 -1.91,-10.97 -5.75,-13.77 -3.84,-2.79 -10.2,-4.19 -19.11,-4.19 -10.71,0 -21.17,2.02 -31.37,6.01 -10.2,4.03 -20.29,10.09 -30.34,18.23l0 -47.28c11.85,-8.33 24.09,-14.65 36.77,-18.84 12.68,-4.19 25.82,-6.27 39.49,-6.27 23.93,0 42.05,5.23 54.31,15.7 12.27,10.44 18.43,25.82 18.43,46.18l0 45.61c0,7.08 1.3,11.69 3.84,13.88 2.54,2.22 7.56,3.4 15.11,3.56l-11.44 43.13c-3.25,0.61 -6.17,1.09 -8.74,1.4 -2.59,0.31 -4.78,0.46 -6.58,0.46 -11.45,0 -20.51,-1.14 -27.18,-3.47 -6.69,-2.32 -12.27,-6.25 -16.83,-11.69zm84.5 -1.56l0 -46.64c11.24,8.54 20.61,14.49 28.06,17.91 7.51,3.36 14.75,5.07 21.74,5.07 5.34,0 9.63,-1.08 12.84,-3.27 3.16,-2.17 4.76,-5.16 4.76,-8.89 0,-5.49 -8.03,-11.6 -24.02,-18.38 -5.12,-2.13 -9.15,-3.89 -11.96,-5.18 -10.46,-4.67 -18.27,-10.83 -23.56,-18.58 -5.22,-7.72 -7.86,-16.94 -7.86,-27.66 0,-14.66 5.75,-26.24 17.29,-34.8 11.5,-8.53 27.29,-12.78 47.32,-12.78 10.97,0 21.44,1.09 31.22,3.26 9.78,2.17 19.15,5.44 28.06,9.79l0 42.86c-9.52,-5.11 -17.71,-9 -24.53,-11.6 -6.89,-2.63 -12.33,-3.93 -16.37,-3.93 -5.85,0 -10.2,0.88 -12.98,2.64 -2.76,1.77 -4.15,4.4 -4.15,7.93 0,4.86 7.35,10.45 22,16.83 3.52,1.49 6.32,2.68 8.34,3.62 12.48,5.44 21.79,12.11 27.89,19.94 6.12,7.86 9.17,17.07 9.17,27.75 0,15.93 -5.8,28.41 -17.34,37.38 -11.6,8.95 -27.81,13.45 -48.61,13.45 -13.27,0 -25.38,-1.34 -36.46,-4.08 -11.08,-2.76 -21.32,-6.95 -30.85,-12.64z"/>
   <polygon class="fil3" points="2889.87,1289.7 2973.77,1289.7 2973.77,1828.69 2889.87,1828.69 "/>
   <path class="fil1" d="M2704.75 2030.2c0,14.02 -3.37,25.21 -10.11,33.55 -6.75,8.33 -15.28,12.51 -25.61,12.51 -4.17,0 -7.88,-0.49 -11.12,-1.45 -3.24,-0.96 -6.56,-2.43 -9.94,-4.44l0 35.27 -14.24 0 0 -115.41 14.24 0 0 8.85c3.53,-3.18 7.47,-5.83 11.79,-7.97 4.33,-2.14 9.04,-3.2 14.13,-3.2 9.72,0 17.27,3.82 22.71,11.48 5.45,7.65 8.15,17.92 8.15,30.81zm-14.7 1.51c0,-9.61 -1.54,-17.05 -4.61,-22.37 -3.09,-5.32 -8.1,-7.97 -15.03,-7.97 -4.03,0 -7.94,0.9 -11.71,2.68 -3.76,1.78 -7.35,4.07 -10.73,6.91l0 47.76c3.74,1.82 6.93,3.07 9.6,3.72 2.65,0.63 5.7,0.97 9.12,0.97 7.4,0 13.13,-2.68 17.23,-8.08 4.1,-5.39 6.13,-13.25 6.13,-23.62zm98.66 0.7c0,14.22 -3.43,25.14 -10.26,32.88 -6.86,7.72 -15.96,11.57 -27.33,11.57 -11.75,0 -20.96,-3.99 -27.68,-11.96 -6.72,-7.96 -10.08,-18.8 -10.08,-32.49 0,-14.07 3.46,-25.01 10.39,-32.79 6.92,-7.82 16.04,-11.71 27.37,-11.71 11.37,0 20.47,3.89 27.33,11.66 6.83,7.78 10.26,18.71 10.26,32.84zm-14.7 0c0,-10.85 -1.98,-18.91 -5.94,-24.21 -3.98,-5.29 -9.64,-7.91 -16.95,-7.91 -7.39,0 -13.09,2.62 -17.08,7.91 -3.99,5.3 -5.98,13.36 -5.98,24.21 0,10.54 1.99,18.5 5.98,23.93 3.99,5.45 9.69,8.16 17.08,8.16 7.27,0 12.91,-2.66 16.9,-8 4.01,-5.34 5.99,-13.35 5.99,-24.09zm73.96 -26.86l-0.75 0c-1.06,-0.28 -2.19,-0.43 -3.36,-0.53 -1.19,-0.07 -2.6,-0.09 -4.27,-0.09 -3.82,0 -7.61,0.82 -11.4,2.47 -3.76,1.68 -7.34,4.13 -10.69,7.41l0 59.74 -14.24 0 0 -84.32 14.24 0 0 12.53c5.17,-4.59 9.69,-7.81 13.52,-9.69 3.84,-1.88 7.59,-2.84 11.22,-2.84 1.45,0 2.54,0.03 3.28,0.11 0.71,0.08 1.54,0.2 2.45,0.35l0 14.86z"/>
  </g>
 </g>
</svg>
