<?xml version="1.0" encoding="UTF-8"?>
<!DOCTYPE svg PUBLIC "-//W3C//DTD SVG 1.1//EN" "http://www.w3.org/Graphics/SVG/1.1/DTD/svg11.dtd">
<!-- Creator: CorelDRAW 2017 -->
<svg xmlns="http://www.w3.org/2000/svg" xml:space="preserve" width="50.7998mm" height="33.8666mm" version="1.1" style="shape-rendering:geometricPrecision; text-rendering:geometricPrecision; image-rendering:optimizeQuality; fill-rule:evenodd; clip-rule:evenodd"
viewBox="0 0 5079.98 3386.66"
 xmlns:xlink="http://www.w3.org/1999/xlink">
 <defs>
  <style type="text/css">
   <![CDATA[
    .str0 {stroke:#FEFEFE;stroke-width:20;stroke-miterlimit:22.9256}
    .str1 {stroke:#FEFEFE;stroke-width:115.04;stroke-linecap:round;stroke-linejoin:round;stroke-miterlimit:22.9256}
    .fil4 {fill:none}
    .fil12 {fill:none;fill-rule:nonzero}
    .fil8 {fill:#FEFEFE}
    .fil11 {fill:#FEFEFE}
    .fil0 {fill:#E6E7E8}
    .fil10 {fill:#9A9999}
    .fil7 {fill:#353233}
    .fil9 {fill:#292929}
    .fil6 {fill:#005DAA}
    .fil2 {fill:#0B6BBA}
    .fil3 {fill:#0C78D1}
    .fil5 {fill:#CB48A8}
    .fil13 {fill:#FEFEFE;fill-rule:nonzero}
    .fil14 {fill:#005DAA;fill-rule:nonzero}
    .fil15 {fill:#DD1486;fill-rule:nonzero}
    .fil16 {fill:#FEC02D;fill-rule:nonzero}
    .fil1 {fill:url(#id1)}
   ]]>
  </style>
    <clipPath id="id0">
     <path d="M310.34 19.32l4459.28 0 0 3348.02 -4459.28 0 0 -3348.02z"/>
    </clipPath>
  <radialGradient id="id1" gradientUnits="userSpaceOnUse" gradientTransform="matrix(1.12207 0.114045 -0.1519 0.842454 -78 -49)" cx="2539.98" cy="1525.93" r="2185.05" fx="2539.98" fy="1525.93">
   <stop offset="0" style="stop-opacity:1; stop-color:#FEFEFE"/>
   <stop offset="0.6" style="stop-opacity:1; stop-color:#0098DA"/>
   <stop offset="0.345098" style="stop-opacity:1; stop-color:#7FADD4"/>
   <stop offset="1" style="stop-opacity:1; stop-color:#005DAA"/>
  </radialGradient>
 </defs>
 <g id="Capa_x0020_1">
  <metadata id="CorelCorpID_0Corel-Layer"/>
  <g id="_1746749384656">
   <polygon class="fil0" points="310.35,21.11 4769.63,21.11 4769.63,3365.57 310.35,3365.57 "/>
   <polygon class="fil1" points="310.34,19.32 4769.62,19.32 4769.62,3367.34 310.34,3367.34 "/>
   <g style="clip-path:url(#id0)">
    <g>
     <path id="1" class="fil2" d="M3989.93 2971.42c-94.51,49.1 -49.3,51.72 -144.72,0 -5.57,-98.11 118.06,-138.56 144.72,0zm25.71 -158.93c-400.84,-26.52 -317.45,221.18 -178.42,262.9 211.47,63.45 365.91,-89.13 178.42,-262.9z"/>
     <path class="fil2" d="M3361.67 3395.75l224.31 -18.76c11.95,-35.29 3.29,-90.62 19.81,-163.72 -156.29,-6.28 -87.05,8.19 -255.43,-11.72l11.31 194.2z"/>
     <path class="fil2" d="M4059.42 3357.01c-23.97,-125.67 57.8,-89.64 -117.46,-87.66 -1.33,125.47 -52.68,72.68 117.46,87.66z"/>
     <path class="fil2" d="M4864.21 3020.48c-323.81,-102.41 -525.04,299.28 -201.29,383.93 356.74,93.32 533.58,-278.88 201.29,-383.93z"/>
     <path class="fil2" d="M561.91 3163.07l74.06 46.5 196.76 9.89 67.9 -59.58 -2.41 -188.45c-240.23,-69.93 -394.53,-22.09 -336.31,191.64z"/>
     <path class="fil3" d="M4010.18 237.96c-95.91,49.82 -50.03,52.48 -146.85,0 -5.65,-99.55 119.8,-140.6 146.85,0zm26.09 -161.27c-406.74,-26.91 -322.13,224.43 -181.05,266.76 214.58,64.39 371.29,-90.44 181.05,-266.76z"/>
     <path class="fil2" d="M1104.72 3363.11c166.07,-13.57 98.76,-7.42 259.62,-6.66 -19.78,-110.07 -11.99,-74.67 -6.96,-181.03 -142.3,2.24 -92.27,9.04 -242.41,-6.08 3.89,131.92 14.4,62.25 -10.25,193.77z"/>
     <path class="fil2" d="M4274.4 116.81c46.75,26.72 -116.96,60.28 116.56,31.22 73.59,-9.17 69.78,-31.28 97.44,-58.53 -82.6,-52.09 -187.21,-21.43 -214,27.31z"/>
     <path class="fil2" d="M594.64 224.73c114.89,32.78 82.45,20.17 110.22,108.41 -74.28,32.07 -132.06,62.36 -179.76,-21.14 -43.33,-75.91 13.15,-74.68 69.54,-87.27zm-52 -93.85c-302.69,146.85 -95.39,342.15 178.16,305.54 115.88,-84.79 88.3,-81.31 90.24,-181l-124.06 -121.83 -144.34 -2.71z"/>
     <path class="fil3" d="M4466.93 525.97c212.09,183.58 416.18,4.49 434.2,-138.38 -205.58,-78.64 -341.41,-6.73 -434.2,138.38z"/>
     <path class="fil3" d="M4340.93 2791.63l227.62 -19.03c12.12,-35.82 3.33,-91.95 20.09,-166.13 -158.59,-6.38 -88.33,8.31 -259.18,-11.89l11.47 197.05z"/>
     <path class="fil3" d="M4410.17 143.75c14.21,52.02 11.16,55.99 79.41,90.63 148.16,75.21 78.65,34.36 160.21,7.75 -21.14,-46.79 -20.93,-53.77 -89.92,-85.81 -130.28,-60.45 -73.37,-33.69 -149.7,-12.57z"/>
     <path class="fil3" d="M4654.04 289.53c127.51,-22.24 70.19,-4.49 52.15,-64.84 -91.77,9.11 -84.23,-0.86 -52.15,64.84z"/>
     <path class="fil2" d="M441.96 631.44c-149.27,81.73 9.01,244.05 169.27,159.49 115.96,-61.2 14.09,-259.87 -169.27,-159.49z"/>
     <path class="fil2" d="M1192.92 -87.39c-19.42,23.35 -135.93,14.72 65.56,211.15 56.68,-61.58 76.76,-21.25 33.14,-124.59 -27.96,-66.3 -39.88,-62.24 -98.7,-86.56z"/>
     <path class="fil2" d="M1502.32 179.1c-6.07,0.55 -48.23,-57.95 -106.22,35.03 -19.59,31.39 -25.82,44.08 28.62,67.33 112.56,48.06 133.82,-16.61 77.6,-102.36z"/>
     <path class="fil3" d="M4815.25 2556.4c-19.04,-99.84 45.92,-71.22 -93.32,-69.64 -1.05,99.67 -41.85,57.74 93.32,69.64z"/>
     <path class="fil2" d="M4869.32 2583.4c-45.91,-67.86 60.81,-48.04 -99.62,-42.62 1.45,27.28 -26.88,32.24 14.58,52.42 113.02,55.08 65.08,-1.81 85.04,-9.8z"/>
     <path class="fil2" d="M406.79 2529.01c-56.39,12.59 -112.87,11.36 -69.54,87.26 47.7,83.51 105.48,53.22 179.76,21.15 -27.77,-88.24 4.67,-75.64 -110.22,-108.41z"/>
    </g>
   </g>
   <polygon class="fil4" points="310.34,19.32 4769.62,19.32 4769.62,3367.34 310.34,3367.34 "/>
   <path class="fil5" d="M2139.03 3071.33c2.62,1.64 1.76,5.25 12.31,4.62 17.08,-1 8.22,-0.74 13.09,-8.98 -9,-4.21 -19.01,-5.38 -25.4,4.36z"/>
   <path class="fil6" d="M2278.14 3216.36c6.39,-9.74 16.4,-8.57 25.4,-4.36 -4.87,8.24 3.99,7.98 -13.09,8.98 -10.55,0.63 -9.69,-2.98 -12.31,-4.62zm217.49 -132.17c4.69,-24.33 16.48,-43.51 44.25,-42 8.23,11.63 10.4,14.44 12.06,34.6l-56.31 7.4zm-91.98 -12.14c10.56,-51.41 87.73,-91.37 77.89,12.14 -28.52,1.36 -53.31,-6.18 -77.89,-12.14zm164.83 -3.17c16.3,-35.01 24.64,-14.1 24.68,-14.09 -7.04,9.08 -2.14,8.29 -24.68,14.09zm-219.5 -31.55c6.09,-13.34 11.54,-20.98 32.46,-20.9 11.18,14.54 10.8,24.39 8.62,47.5 -15,-4.2 -33,-16.18 -41.08,-26.6zm274.18 -26.11c-30.2,0.22 -25.43,-24.98 -22.14,-52.58 18.54,8.82 24.53,29.38 22.14,52.58zm-13.41 35.73c-20.46,-3.92 -0.24,0.63 -18.79,-6.07 -3.56,-1.28 -7.49,-2.6 -10.19,-3.55 -0.49,-70.48 -20.15,-47.1 1.27,-65.29 8.13,8.38 1.36,-2.98 5.89,9.13l5.92 27.62c5.66,11.79 5.55,8.05 19.47,15.79l-3.57 22.37zm-79.9 -83.45c-5.42,-14.62 -6.57,-29.42 -2.91,-47.88 13.36,2.52 25.6,7.56 37.41,13.49 14.88,7.46 20.96,10.53 27.05,20.89 -16.33,22.2 -31.23,25.18 -61.55,13.5zm-191.58 62.5c-22.76,-26.89 -25.93,-69.05 0,-97.9 8.95,9.16 21.83,39.73 58.27,10.19 10.46,-8.49 2.16,-5.94 14.43,-10.53 -0.51,22.82 -20.01,23.59 -31.34,54.83 -7.74,21.3 -1.18,15.22 -17.28,26.26 -7.66,5.24 -15.09,11.39 -24.08,17.15zm177.77 -113.95c-13.59,98.89 -96.13,103.45 -96.95,-17.81 34.49,1.18 66.4,8.29 96.95,17.81zm-166.19 7.38c9.53,-19.36 33.08,-23.36 57.12,-24.69 -4.1,33.82 -43.9,69.52 -57.12,24.69zm135.08 -295.24c75.46,-19.32 98.12,68.96 25.07,91.56 -78.45,24.27 -94.82,-73.71 -25.07,-91.56zm-22.23 118.29l-9.62 96.76c-9.55,5 1.66,0.94 -11.04,2.96 -4.25,0.68 -7.39,0.69 -11.74,0.85 -28.63,1.07 -43.12,0.45 -73.48,12.01 -33.22,12.64 -48.82,26.58 -64.45,47.98 -69.48,-15.05 -2.45,-54.68 -22.57,-106.62 -59.09,-14.8 -37.97,56.79 -58.38,86.84 -27.06,-2.1 -29.42,-21.65 -48.91,-32.77 -26.41,-15.07 -49.65,-1.39 -53.25,25.27 11.44,22.76 36.04,23.94 64.44,30.75l-36.14 8.83c-66.15,10.5 -12.47,60.19 35.55,48.32 52.58,-12.99 26.21,-19.52 94.22,-8.46 -8.15,120.08 86.83,147.94 127.8,173.83 3.72,23.91 1.29,53.64 -11.33,71.74 -16.2,23.23 -34.27,13.82 -56.7,5.05 -63.81,-24.94 -99.97,37.83 -59.75,59.59 19.3,10.44 129.94,17.23 149.07,7.17 45.9,-24.13 31.11,-117.47 39.76,-130.97 26.37,6.16 2.09,15.75 5.4,74.62 6.75,119.91 181.87,62.36 188.39,26.33 -1.24,-22.41 -12.58,-36.79 -36.5,-36.97 -24.08,-0.18 -33.93,13.81 -54.39,17.85 -59.68,11.8 -33.92,-54.14 -26.03,-83.07 63.31,-6.85 128.65,-43.69 148.38,-104.92l10.54 -30.98c60.93,4.63 41,3.77 79.02,28.1 25.52,16.33 64.51,14.67 76.95,-12.7 -15.36,-29.2 -37.64,-22.1 -60.73,-39.09 31.38,-2.77 48.58,2.73 71.07,-11.56 2.26,-27.77 -13.34,-48.6 -40.94,-42.03 -16.18,3.85 -33.52,19.14 -44.6,20.49 -51.45,6.23 16.75,-91.8 -37.73,-98.17 -40.44,-4.73 -16.25,63.57 -28.27,92.52l-29.13 6.37c-20.84,-66.07 -92.04,-77.64 -167.96,-99.24l5.27 -95.7c34.45,-22.96 97.35,-20.66 98.27,-74.24 0.75,-43.88 -44.63,-82.17 -85.02,-89.38 -109.35,-19.49 -188.73,127.13 -65.47,152.64z"/>
   <path class="fil6" d="M1767.75 2326.54l-26.1 35.58 24.98 10.42c10.58,-18.19 8.3,-32.92 1.12,-46zm-45.58 93.24c-11.85,-33 23.74,-92.12 51.68,-108.42 17.31,23.8 22.01,143.35 -51.68,108.42z"/>
   <path class="fil6" d="M1573.93 2903.01c-36.57,-7.3 -45.95,-12.33 -79.03,-29.65l-38.29 89.06c18.42,16.88 22.99,25.8 34.45,42.43 17.8,-7.6 29.2,-8.95 52,-9.24l30.87 -92.6zm-105.08 -223.55l29.3 -34.17c-16.17,1.05 -29.97,3.46 -41.93,16.1 2.63,14.1 -3.89,5.29 12.63,18.07zm285.73 77.57c-4.18,-15.63 -8.42,-19.13 -26.81,-31.07l0.1 42.52c14.16,1.19 17.23,-0.24 26.71,-11.45zm-147.23 -221.12c7.14,-13.82 10.98,-10.36 22.91,-22.9l-20.37 -14.1c-45.88,43.71 -2.34,58.03 19.24,51.1l24.58 -14.02c-21.8,-29.48 -20.68,0.08 -46.36,-0.08zm215.68 -235.93c-37.95,-30.65 -110.47,-34.26 -151.67,3.4 -49.14,44.92 -23.91,116.15 5,144.53 68.63,67.37 179.7,11.38 179.5,-83.45 -0.07,-30.92 -7.71,-44.21 -32.83,-64.48zm13.47 -110.1c5.13,-24.35 -8.52,-34.51 -23.43,-8.91l23.43 8.91zm-207.1 72.85c19.48,-40.3 58.46,-75.1 97.39,-85.33 8.35,-2.2 35.03,-5.25 40.22,-8.32 21.45,-12.66 32.53,-55.92 74.92,-40.15 38.21,14.2 28.17,44.11 27.47,77.55 -0.52,25.27 25.65,25.82 36.56,74.7 6.29,28.15 -9.13,72.76 0.74,87.64 15.93,24.01 47.06,29.71 34.27,72.15 -10.45,34.65 -42.93,41.17 -66.63,44.46 -17,58.04 -23.55,156.2 -152.38,150.55 4.92,15.38 11.55,21.05 21.56,32.1 8.03,8.86 15.32,17.01 24.35,26.37 124.39,128.75 -47.43,120.13 -61.17,137.76 -20.42,26.2 24.79,92.87 41.01,114.55 24.01,32.07 17.89,18.96 17.44,34.34 -65.76,-23.9 -87.55,-41.98 -135.29,-80.68l-46.37 119.94c19.07,13.1 31.44,31.22 28.02,51.99 -27.68,1.83 -43.12,-1.75 -73.73,-15.8 -17.99,-8.26 -51.79,-35.07 -55.23,-36.13 -21.88,-6.72 -78.2,3.82 -128.22,-46.49 11.35,-17.75 32.67,-22.95 55.64,-20.17 72.92,-189.93 36.09,-85.35 31.08,-177.84 -0.86,-16.02 4.15,-34.71 4.95,-52.89 -15.1,-18.43 -36.39,-35.94 -42.3,-55.56 -9.52,-31.56 22.63,-51.33 39.3,-57.45 20.34,-7.47 43.45,-12.82 66.89,-16.72 20.93,-3.48 48.8,-3.76 66.2,-12.23 -28.12,-42.86 -102.4,-83.62 -7.96,-217.67 -8.93,-17.33 -24.68,-46.02 -6.45,-77.22 16.62,-28.45 35.77,-23.46 67.72,-23.45z"/>
   <path class="fil6" d="M3464.92 2850.63c0.53,-0.78 1.26,-2.67 1.96,-2.04 0.7,0.63 1.61,-1.63 2.08,-1.95l26.64 -11.94c13.48,-6.07 23.69,-13.48 35.88,-22.03 22.79,-15.99 41.67,-33.94 61.4,-47.98 16.45,56.69 -88.74,97.4 -127.96,85.94zm-214.26 53.3c72.77,9.53 96.77,-12.52 173.18,-43.98 -14.16,33.95 -40.18,44.68 -83.13,55.86 -34.32,8.93 -72.23,18.86 -90.05,-11.88zm185.83 -89.21c24.01,-29.72 12.01,10.22 0.49,-64.7l46.96 -27.61c21.54,14.17 16.3,20.17 42.43,26.45 27.1,6.51 34.18,-3.96 56.83,-5.03 8.95,24.22 -25.15,41.46 -59.72,65.73 -14.75,10.36 -31.81,21.52 -50.48,26.52 -26.43,7.08 -22.72,-2.17 -36.51,-21.36zm5.76 -13.49l-22.46 10.22 -16.46 -39.23c3.35,-3.66 2.25,-4.04 8.49,-8.47 4.86,-3.44 11.26,-6.21 16.64,-8.92l13.79 46.4zm-202.12 80.62c51.19,-26.25 54.09,-27.63 56.4,-75.52l98.73 -33.12c4.38,9.29 7.93,21.74 12.53,30.95 9.3,18.61 55.52,35.36 -36.94,72.27 -41.7,16.64 -108.66,43.27 -130.72,5.42zm294.63 -195.69c12.96,7.48 23.77,22.27 32.04,36.77 -25.11,8.1 -45.11,5.29 -57.5,-18.32l25.46 -18.45zm20.67 46.89l19.41 0.8c-19.36,21.5 -80.76,6.24 -80.06,-19.41 27.16,-4.05 5.81,24.79 60.65,18.61zm-316.79 136.5c9.16,-15.29 20.89,-10.46 32.92,-27.2 4.5,-6.26 5.63,-11.19 6.95,-17.25l4.7 -16.88c11.23,8.43 4.51,30 -1.57,38.03 -7,9.26 -27.27,24.78 -43,23.3zm-9.2 -53.03c-0.97,-12.8 -0.28,-6.48 0.33,-10.82l41.09 6.44c3.81,24.4 -5.79,32.86 -33.51,44.62l-7.91 -40.24zm324.88 -122.24c-10.27,-13.32 -25.5,-35.88 -13.22,-53.32 10.67,-15.15 31.75,-11.66 50.07,-15.25l6.81 63.82 -43.66 4.75zm-359.18 88.07c22.33,13.79 24.5,20.24 28.94,48.35l-48.32 29.86 -32.28 -35.62 51.66 -42.59zm263.19 -76.22c25.72,-15.65 48.48,-36.6 70.49,-49.73 14.02,29.1 -33.35,49.66 -56.96,64.82 -60.07,38.58 -236.79,133.86 -274.02,43.16 13.32,2.14 21.83,6.75 38.34,8.4 77.16,7.72 157,-27.01 222.15,-66.65zm-334.97 -84.63c33.1,16.89 60.24,31.63 106.32,5.95 18.37,-10.25 33.07,-25.99 41.29,-39.91 11.79,-19.93 7.08,-34.97 14.44,-50.22 37.81,56.33 7.32,110.88 -40.63,142.77 -90.06,59.87 -129.46,-28.07 -121.42,-58.59zm270.25 -93.78c-1.05,-54.68 67.06,-71.1 111.89,-61.2 55.31,12.21 79.36,66.49 35.67,107.08 -21.37,-70.57 -89.38,-95.67 -147.56,-45.88zm145.6 -120.88c-17.53,-3.97 -21.04,-13.05 -11.38,-35.9 2.42,4.42 9.81,16.62 11.17,20.67 7.03,20.9 1.96,7.38 0.21,15.23zm-82.51 -12.37c2.57,-13.93 10.56,-19.84 22.44,-29.35 0.29,17.58 0.88,34.11 -22.44,29.35zm-265.32 109.08c-17.03,-4.73 -20.33,-16.11 -28.69,-36.73 2.6,0.32 10.08,-4.9 21.24,11.75 5.87,8.77 6.72,17.33 7.45,24.98zm-67.62 37.29c-13.39,-5.07 -24.7,-24.74 -24.75,-38.17 15.74,5.97 27.72,14.01 24.75,38.17zm-70.75 -123.37c-17.45,1.2 -48.6,-6.2 -54.81,32.98 -1.89,11.93 -0.96,16.59 5.65,21.14 3.04,-14.75 -0.39,-30.5 12.54,-41.14 15.51,-12.77 33.21,-4.37 44.57,1.22 -84.15,107.3 -44.79,243.51 88.22,309.18 16.68,8.23 33.79,9.35 42.28,30.21 -7.33,11.5 -37.94,33.68 -65.91,65.42 -26.25,29.8 -11.91,37.15 -23.77,47.38 -33.82,16.09 -33.12,-5.25 -56.84,-2.78 11.39,25.45 35.41,42.12 55.79,39.51 35.9,-4.58 32.88,-35.8 49.95,-55.73 26.69,-5.08 11.26,7.99 33.06,-0.09 6.46,-2.39 29.04,-18.93 40.93,-24.98 7.6,28.75 6.52,63.01 30.61,81.4 14.37,10.98 16.98,3.12 23.84,29.4 16.25,62.26 -56.21,35.61 -74.02,67.85 -9.37,16.95 -5.83,50.77 10.87,64.32 15.74,-32.16 23.56,-52 73.59,-43.55 66.11,11.16 104.55,-72.37 113.61,-129.93 3.88,-24.67 12.74,-14 24.45,-36.91 8.15,-15.94 2.77,-26.63 6.02,-45.39 52.64,58.19 14.71,4.01 69.81,59.49 25.42,25.59 46.9,36.19 82.42,35.12 80.6,-2.44 62.31,-74.07 110.31,-80.88 10.55,-1.49 13.53,-0.26 21.58,3.74 11.63,5.79 8.35,8.81 23.46,11.23 -13.27,-35.35 -33.27,-51.76 -66.75,-44.6 -43.82,9.37 -48.45,32.11 -82.1,1.02 5.63,-20.75 19.82,-18.89 5.18,-54.67 -9.15,-22.34 -23.63,-37.53 -34.89,-55.25 30.89,-9.15 14.14,6.25 49.19,-14.61 13.75,-8.17 22.98,-4.48 40.15,-26.92 9.42,-12.32 18.47,-31.49 28.71,-41.94 22.28,-22.72 34.71,-12.05 52.15,-19.17 -70.31,-51.49 -92.49,23.18 -125.56,34.86 -8.24,-5.6 -4.98,-10.6 -18.6,-13.99 -6.03,-1.5 -16.42,1.09 -25.44,-0.64 23.48,-31.44 46.65,-55.87 62.62,-88.17 15.31,-30.94 27.58,-63.67 31.78,-103.5 15.01,-142.69 -101.74,-166.19 -116.33,-180.24 16.27,-18.99 20.13,-21.34 42.34,-21.49l11.48 20.73c5.75,8.33 -1.83,1.52 5.52,5.89 0.78,-46.84 -34.34,-37.1 -61.72,-15.89 -43.22,-79.01 -101.21,-41.32 -93.86,-10.51 11.53,-13.08 15.26,-33.92 43.94,-28.35 24.91,4.84 34.96,23.33 44.15,47.97 -48.96,11.25 -96.84,-12.19 -157.44,113.61 -20.46,42.45 -36.06,127.55 -27.69,191.83 -32.12,-65.58 -61.24,-110.82 -114.04,-136.05 -49.99,-23.88 -99.89,-28.73 -160.69,5.27 -7.24,-21.3 -5.88,-40.47 4.72,-52.87 15.17,-17.78 38.67,-6.88 53.67,-6.8 -7.29,-11.11 -8.49,-10.7 -24.74,-10.97 -51.96,-0.88 -44.65,45.44 -46.54,63.8 -25.08,-42.91 -5.55,-57.75 -13.86,-78.07 -11.53,25.29 -9.71,48.63 6.44,81.51z"/>
   <path class="fil6" d="M2554.95 513.26c136.91,0 247.89,110.98 247.89,247.88 0,136.9 -110.98,247.89 -247.89,247.89 -136.9,0 -247.88,-110.99 -247.88,-247.89 0,-136.9 110.98,-247.88 247.88,-247.88z"/>
   <path class="fil7" d="M2760.47 491.37c3.2,4.6 5.64,7.59 8.46,10.9 2.9,-4.55 22.59,-13.89 24.54,-14.41 5.06,7.56 8.07,13.54 14.02,17.53 -0.25,-11.18 -6.04,-16.11 -10.51,-22.79 9.41,-6.3 23.36,-29.66 24.53,-43.81 13.29,9.73 17.51,51.43 -5.5,78.62 -0.33,0.39 -1.3,1.49 -1.64,1.87l-1.75 1.75c-0.26,0.25 -0.64,0.61 -0.9,0.86 -4.61,4.39 -4.55,5.73 -11.24,6.28 -1.93,-8.28 -6.09,-15.14 -12.27,-19.28 0.3,13.37 6.68,9.5 7.01,24.54 -4.5,3.02 -4.04,2.97 -9.61,5.26l2.6 4c27.95,-10.31 47.06,-35.41 49.08,-63.88l0 -9.99c-0.67,-9.55 -3.29,-19.32 -8.14,-28.91 -1.72,-3.39 -2.44,-5.19 -4.32,-7.94 -2.34,-3.41 -2.15,-4.21 -6.82,-5.45 -2.5,5.2 -2.81,18.69 -5.44,26.11 -5.62,15.81 -15.53,24.91 -28.58,34.52 -12.59,9.26 -14.01,7.59 -23.52,4.22z"/>
   <path class="fil7" d="M2605.93 449.62c6.3,-1.92 8.05,-1.78 12.65,-5.58l-7.39 0c0,-21.15 3.9,-32.18 14.43,-43.4 8.7,-9.27 20.75,-19.96 34.65,-23.2 -2.35,8.8 -11.85,15.53 -15.6,26.47 -1.91,5.55 -1.53,12.86 -5.27,15.76l-15.94 8.6c9.73,0 10.39,-1.75 19.28,-1.75 1.88,8.06 3.52,5.4 5.26,12.7l5.26 0.56c-1.72,-8.21 -7.6,-14.04 -6.4,-24.85 1.86,-16.83 14.17,-27.34 25.52,-39.7 15.26,-16.64 -25.72,-5.53 -51.11,22.8 -11.43,12.74 -15.34,27.65 -15.34,51.59z"/>
   <path class="fil7" d="M2698.84 445.8c5.98,5.42 20.64,10.53 28.03,14.67 10.69,-24.68 8.7,-22.44 7.01,-42.72 -10.02,0 -16.89,3.99 -22.01,9.55 -5.46,5.94 -9.4,11.59 -13.03,18.5z"/>
   <path class="fil7" d="M2522.59 499.49c15.7,0.58 19.46,-27.47 0.42,-32.91 -3.03,14.21 -2.32,18.23 -0.42,32.91z"/>
   <path class="fil8" d="M2520.05 487.86c0,35.11 0,-26.23 0,0zm2.54 11.63c-1.9,-14.68 -2.61,-18.7 0.42,-32.91 19.04,5.44 15.28,33.49 -0.42,32.91zm3.28 -54.12c-56.28,8.42 -40.94,80.63 6.47,76.16 50.47,-4.75 40.84,-83.23 -6.47,-76.16z"/>
   <path class="fil8" d="M2682.74 600.03c-10.28,-6.21 -58.5,-14.91 -72.79,-13.61 0.93,27.18 6.92,63.16 29.58,68.03 25.33,5.45 42.56,-31.43 43.21,-54.42z"/>
   <path class="fil8" d="M2548.21 685.27c5.93,-3.03 12.81,-8.61 18.45,-12.36 10.58,-7.03 8.25,-6.39 12.5,-19.06 6.95,-20.68 21.77,-24.2 23.87,-41.68 -10.2,3.56 -13.9,14.08 -27.95,16.48 -16.43,2.8 -18.95,-10.28 -26.99,-15.76 -17.17,11.97 -18.82,55.04 0.12,72.38z"/>
   <path class="fil8" d="M2657.13 730.22c0.9,-20.69 1.5,-52.52 -24.74,-48.08 -15.31,2.59 -31.07,22.48 -33.87,39.26 21.33,4.21 34.12,9.04 58.61,8.82z"/>
   <path class="fil8" d="M2740.14 628.08c-6.66,-12.83 -29.25,-21.21 -47.69,-25.64 -3.01,12.42 -5.51,34.07 9.24,38.54 21.06,6.38 31.39,-1.29 38.45,-12.9z"/>
   <path class="fil8" d="M2599.03 590.14c-3.92,-4.48 2.77,-2.17 -8.88,-2.18 -18.04,-0.79 -44.31,14.4 -26.21,29.61 14.51,12.19 33.3,-13.36 35.09,-27.43z"/>
   <path class="fil8" d="M2710.64 724.24c-1.33,-12.54 -2.16,-17.06 -8.96,-25.37 -20.53,-0.52 -30.24,12.29 -32.97,31.41l41.93 -6.04z"/>
   <path class="fil8" d="M2726.75 650.57c2.64,16.02 5.93,23.05 6.49,43.05 5.55,3.59 15.13,7.25 21.82,8.16l2.23 -17.49c-24.77,-8.59 -10.7,-21.21 -22.14,-38.18l-8.4 4.46z"/>
   <path class="fil8" d="M2557.06 694.68c4.02,5.49 19.79,19.7 30.36,18.57 2.05,-19.82 1.03,-19.9 -5.96,-34.26 -13.87,0.54 -21.07,4.68 -24.4,15.69z"/>
   <path class="fil8" d="M2765.38 674.39c0.34,-18 -3.22,-33.86 -17.24,-38.4 -1.37,19.34 -6.37,37.54 17.24,38.4z"/>
   <path class="fil8" d="M2724.9 717.87c9.98,-1.61 13.16,-2.31 16.92,-10.27 -3.07,-3.75 0.31,-0.73 -4.44,-3.94 -7.56,2.25 -9.65,6.33 -12.48,14.21z"/>
   <path class="fil9" d="M2477.99 859.43l7.01 -36.81 0 45.57c-2.99,-2 -7.01,-3.81 -7.01,-8.76zm190.72 -129.15c2.73,-19.12 12.44,-31.93 32.97,-31.41 6.8,8.31 7.63,12.83 8.96,25.37l-41.93 6.04zm-11.58 -0.06c-24.49,0.22 -37.28,-4.61 -58.61,-8.82 2.8,-16.78 18.56,-36.67 33.87,-39.26 26.24,-4.44 25.64,27.39 24.74,48.08zm67.77 -12.35c2.83,-7.88 4.92,-11.96 12.48,-14.21 4.75,3.21 1.37,0.19 4.44,3.94 -3.76,7.96 -6.94,8.66 -16.92,10.27zm-167.84 -23.19c3.33,-11.01 10.53,-15.15 24.4,-15.69 6.99,14.36 8.01,14.44 5.96,34.26 -10.57,1.13 -26.34,-13.08 -30.36,-18.57zm208.32 -20.29c-23.61,-0.86 -18.61,-19.06 -17.24,-38.4 14.02,4.54 17.58,20.4 17.24,38.4zm-8.09 9.9l-2.23 17.49c-6.69,-0.91 -16.27,-4.57 -21.82,-8.16 -0.56,-20 -3.85,-27.03 -6.49,-43.05l8.4 -4.46c11.44,16.97 -2.63,29.59 22.14,38.18zm-17.15 -56.21c-7.06,11.61 -17.39,19.28 -38.45,12.9 -14.75,-4.47 -12.25,-26.12 -9.24,-38.54 18.44,4.43 41.03,12.81 47.69,25.64zm-191.93 57.19c-18.94,-17.34 -17.29,-60.41 -0.12,-72.38 8.04,5.48 10.56,18.56 26.99,15.76 14.05,-2.4 17.75,-12.92 27.95,-16.48 -2.1,17.48 -16.92,21 -23.87,41.68 -4.25,12.67 -1.92,12.03 -12.5,19.06 -5.64,3.75 -12.52,9.33 -18.45,12.36zm134.53 -85.24c-0.65,22.99 -17.88,59.87 -43.21,54.42 -22.66,-4.87 -28.65,-40.85 -29.58,-68.03 14.29,-1.3 62.51,7.4 72.79,13.61zm-92.59 -12.07c4.74,-2.87 4.3,-2.24 10.86,-2.06l-1.98 4.24c-1.79,14.07 -20.58,39.62 -35.09,27.43 -18.1,-15.21 8.17,-30.4 26.21,-29.61zm-64.28 -142.59c47.31,-7.07 56.94,71.41 6.47,76.16 -47.41,4.47 -62.75,-67.74 -6.47,-76.16zm262.34 97.32l-2.6 -4c-1.59,-7.9 -10.21,-28.26 -15.91,-35.55 -0.14,-0.18 -0.49,-0.6 -0.77,-0.87 -2.82,-3.31 -5.26,-6.3 -8.46,-10.9 -1.05,-7.89 -27.93,-27.5 -33.6,-30.9 -7.39,-4.14 -22.05,-9.25 -28.03,-14.67 -12.36,-2.87 -28.79,-9.73 -45.58,-6.02l-5.26 -0.56 -29.42 4.82c-4.6,3.8 -6.35,3.66 -12.65,5.58 -41.01,15.42 -34.76,-15.34 -72.26,-20.97 -31.03,-4.64 -56.15,21.76 -59.02,45.37 -4.08,33.64 18.56,54.53 20.81,84 1.4,18.24 -1.27,34.04 -1.66,50.81l-11.56 144.44c-4.95,21.96 -17.1,91.87 -29.16,102.29 -5.48,4.74 -12.27,3.95 -18.91,7.38 -16.14,8.34 -24.81,43.4 -0.54,47.86 9.02,1.66 11.88,2.25 20.56,5.73 27.22,10.93 17.85,-1.68 32.56,-11.53l4.22 58.87c2.81,19.93 8.69,52.41 9.73,70.9 0.51,9.08 8.22,30.59 16.61,32.68 10.5,2.62 12.89,-7.33 16.18,-14.05 10.23,-20.81 16.14,-51.24 21.63,-74.77 4.06,-17.33 6.71,-37.68 10.05,-54.8 3.54,-18.15 7.02,-37.47 9.07,-55.78 1.93,-17.32 4.16,-40.52 8.11,-56.74 8.33,-34.24 53.19,-19.21 69.12,-18.45 25.17,1.2 65.7,2.24 80.7,-17.51 9.34,-12.3 18.81,-23.46 28.51,-36.34 35.02,-46.54 51.51,-85.75 41.08,-145.51 -3.21,-18.41 -8.98,-33.86 -13.55,-50.81z"/>
   <path class="fil10" d="M2599.03 590.14l1.98 -4.24c-6.56,-0.18 -6.12,-0.81 -10.86,2.06 11.65,0.01 4.96,-2.3 8.88,2.18z"/>
   <path class="fil11 str0" d="M2603.77 1234.53c419.64,0 759.83,112.84 759.83,252.03 0,139.2 -340.19,252.04 -759.83,252.04 -419.64,0 -759.82,-112.84 -759.82,-252.04 0,-139.19 340.18,-252.03 759.82,-252.03z"/>
   <g>
    <path class="fil12 str1" d="M1956.65 1171.93c23.2,0 43.91,5.89 62.14,17.67 18.22,11.79 32.4,28.36 42.53,49.72 10.12,21.35 15.18,46.02 15.18,74.01 0,27.62 -4.97,51.92 -14.91,72.91 -9.94,20.99 -24.03,37.19 -42.25,48.6 -18.23,11.42 -39.13,17.13 -62.69,17.13 -20.26,0 -38.11,-4.33 -53.58,-12.98 -15.47,-8.66 -27.25,-21.08 -35.35,-37.29l0 145.82 -55.79 0 0 -368.96 55.79 0 0 44.19c8.1,-16.21 19.88,-28.73 35.35,-37.56 15.47,-8.84 33.32,-13.26 53.58,-13.26zm-13.26 235.85c24.3,0 43.08,-8.19 56.34,-24.58 13.26,-16.39 19.88,-39.68 19.88,-69.87 0,-30.56 -6.72,-54.31 -20.16,-71.25 -13.44,-16.94 -32.12,-25.41 -56.06,-25.41 -24.3,0 -42.99,8.28 -56.06,24.85 -13.07,16.58 -19.61,40.14 -19.61,70.7 0,30.57 6.54,54.13 19.61,70.7 13.07,16.57 31.76,24.86 56.06,24.86zm262.11 -235.85c36.09,0 62.88,9.02 80.37,27.06 17.49,18.05 26.23,45.48 26.23,82.3l0 166.81 -53.57 0 0 -44.74c-7,15.83 -17.4,27.89 -31.21,36.18 -13.81,8.28 -29.92,12.43 -48.33,12.43 -17.68,0 -33.88,-3.59 -48.61,-10.77 -14.73,-7.18 -26.23,-17.22 -34.52,-30.11 -8.28,-12.88 -12.43,-27.25 -12.43,-43.08 0,-19.52 5.07,-34.89 15.19,-46.12 10.13,-11.23 26.88,-19.24 50.27,-24.03 23.38,-4.78 55.51,-7.18 96.38,-7.18l12.7 0 0 -16.01c0,-20.63 -4.32,-35.54 -12.98,-44.74 -8.65,-9.21 -22.73,-13.81 -42.25,-13.81 -30.56,0 -61.13,9.39 -91.69,28.17l-16.57 -39.22c14.36,-9.94 31.76,-17.95 52.2,-24.03 20.43,-6.07 40.04,-9.11 58.82,-9.11zm-16.57 238.61c20.25,0 36.82,-6.9 49.71,-20.71 12.89,-13.81 19.33,-31.58 19.33,-53.3l0 -14.36 -9.94 0c-28.72,0 -50.81,1.29 -66.28,3.86 -15.46,2.58 -26.51,6.91 -33.14,12.98 -6.63,6.08 -9.94,14.82 -9.94,26.24 0,12.89 4.69,23.66 14.08,32.31 9.39,8.65 21.45,12.98 36.18,12.98zm317.9 -191.66l-33.69 3.31c-26.52,2.58 -45.57,10.68 -57.17,24.31 -11.6,13.62 -17.4,30.93 -17.4,51.92l0 149.68 -55.79 0 0 -269.54 54.13 0 0 46.95c14.36,-31.67 43.64,-49.16 87.83,-52.48l18.22 -1.1 3.87 46.95zm103.59 -46.95c36.09,0 62.88,9.02 80.37,27.06 17.49,18.05 26.23,45.48 26.23,82.3l0 166.81 -53.57 0 0 -44.74c-7,15.83 -17.4,27.89 -31.21,36.18 -13.81,8.28 -29.92,12.43 -48.33,12.43 -17.68,0 -33.88,-3.59 -48.61,-10.77 -14.73,-7.18 -26.23,-17.22 -34.52,-30.11 -8.28,-12.88 -12.43,-27.25 -12.43,-43.08 0,-19.52 5.07,-34.89 15.19,-46.12 10.13,-11.23 26.88,-19.24 50.27,-24.03 23.38,-4.78 55.51,-7.18 96.38,-7.18l12.7 0 0 -16.01c0,-20.63 -4.32,-35.54 -12.98,-44.74 -8.65,-9.21 -22.73,-13.81 -42.25,-13.81 -30.56,0 -61.13,9.39 -91.69,28.17l-16.57 -39.22c14.36,-9.94 31.76,-17.95 52.2,-24.03 20.43,-6.07 40.04,-9.11 58.82,-9.11zm-16.57 238.61c20.25,0 36.82,-6.9 49.71,-20.71 12.89,-13.81 19.33,-31.58 19.33,-53.3l0 -14.36 -9.94 0c-28.72,0 -50.81,1.29 -66.28,3.86 -15.46,2.58 -26.51,6.91 -33.14,12.98 -6.63,6.08 -9.94,14.82 -9.94,26.24 0,12.89 4.69,23.66 14.08,32.31 9.39,8.65 21.45,12.98 36.18,12.98zm153.85 37.56l0 -389.4 55.79 0 0 389.4 -55.79 0zm205.23 3.87c-26.51,0 -49.8,-5.71 -69.87,-17.13 -20.07,-11.41 -35.54,-27.71 -46.4,-48.88 -10.86,-21.17 -16.29,-45.75 -16.29,-73.74 0,-28.35 5.43,-53.11 16.29,-74.29 10.86,-21.17 26.33,-37.46 46.4,-48.88 20.07,-11.41 43.36,-17.12 69.87,-17.12 26.51,0 49.8,5.71 69.87,17.12 20.07,11.42 35.53,27.71 46.4,48.88 10.86,21.18 16.29,45.94 16.29,74.29 0,27.99 -5.43,52.57 -16.29,73.74 -10.87,21.17 -26.33,37.47 -46.4,48.88 -20.07,11.42 -43.36,17.13 -69.87,17.13zm0 -44.19c24.67,0 43.54,-8.1 56.61,-24.3 13.08,-16.21 19.61,-39.96 19.61,-71.26 0,-30.93 -6.63,-54.59 -19.88,-70.97 -13.26,-16.39 -32.04,-24.58 -56.34,-24.58 -24.3,0 -43.08,8.19 -56.34,24.58 -13.25,16.38 -19.88,40.04 -19.88,70.97 0,31.3 6.53,55.05 19.61,71.26 13.07,16.2 31.94,24.3 56.61,24.3zm243.89 44.19c-46.77,0 -84.14,-11.42 -112.13,-34.25l17.12 -40.32c27.62,21.36 59.84,32.04 96.66,32.04 18.05,0 31.85,-3.04 41.43,-9.12 9.57,-6.07 14.36,-14.63 14.36,-25.68 0,-9.58 -3.22,-17.12 -9.67,-22.65 -6.44,-5.52 -17.58,-10.12 -33.41,-13.81l-44.74 -9.94c-23.94,-5.52 -41.98,-14.54 -54.13,-27.06 -12.15,-12.52 -18.23,-28.36 -18.23,-47.5 0,-24.31 9.85,-44.01 29.55,-59.1 19.7,-15.1 45.57,-22.65 77.61,-22.65 19.14,0 37.37,3.04 54.68,9.11 17.3,6.08 32.22,14.64 44.74,25.69l-17.13 39.21c-26.51,-20.99 -53.94,-31.48 -82.29,-31.48 -16.94,0 -30.29,3.31 -40.05,9.94 -9.76,6.63 -14.64,15.65 -14.64,27.07 0,9.2 3.04,16.66 9.12,22.37 6.07,5.7 15.74,10.03 28.99,12.98l45.85 10.49c26.14,5.89 45.29,15.01 57.44,27.34 12.15,12.34 18.23,28.45 18.23,48.33 0,24.3 -9.85,43.54 -29.55,57.72 -19.7,14.18 -46.31,21.27 -79.81,21.27zm116.85 -69.6l65.73 0 0 65.73 -65.73 0 0 -65.73z"/>
    <path id="1" class="fil13" d="M1956.65 1171.93c23.2,0 43.91,5.89 62.14,17.67 18.22,11.79 32.4,28.36 42.53,49.72 10.12,21.35 15.18,46.02 15.18,74.01 0,27.62 -4.97,51.92 -14.91,72.91 -9.94,20.99 -24.03,37.19 -42.25,48.6 -18.23,11.42 -39.13,17.13 -62.69,17.13 -20.26,0 -38.11,-4.33 -53.58,-12.98 -15.47,-8.66 -27.25,-21.08 -35.35,-37.29l0 145.82 -55.79 0 0 -368.96 55.79 0 0 44.19c8.1,-16.21 19.88,-28.73 35.35,-37.56 15.47,-8.84 33.32,-13.26 53.58,-13.26zm-13.26 235.85c24.3,0 43.08,-8.19 56.34,-24.58 13.26,-16.39 19.88,-39.68 19.88,-69.87 0,-30.56 -6.72,-54.31 -20.16,-71.25 -13.44,-16.94 -32.12,-25.41 -56.06,-25.41 -24.3,0 -42.99,8.28 -56.06,24.85 -13.07,16.58 -19.61,40.14 -19.61,70.7 0,30.57 6.54,54.13 19.61,70.7 13.07,16.57 31.76,24.86 56.06,24.86zm262.11 -235.85c36.09,0 62.88,9.02 80.37,27.06 17.49,18.05 26.23,45.48 26.23,82.3l0 166.81 -53.57 0 0 -44.74c-7,15.83 -17.4,27.89 -31.21,36.18 -13.81,8.28 -29.92,12.43 -48.33,12.43 -17.68,0 -33.88,-3.59 -48.61,-10.77 -14.73,-7.18 -26.23,-17.22 -34.52,-30.11 -8.28,-12.88 -12.43,-27.25 -12.43,-43.08 0,-19.52 5.07,-34.89 15.19,-46.12 10.13,-11.23 26.88,-19.24 50.27,-24.03 23.38,-4.78 55.51,-7.18 96.38,-7.18l12.7 0 0 -16.01c0,-20.63 -4.32,-35.54 -12.98,-44.74 -8.65,-9.21 -22.73,-13.81 -42.25,-13.81 -30.56,0 -61.13,9.39 -91.69,28.17l-16.57 -39.22c14.36,-9.94 31.76,-17.95 52.2,-24.03 20.43,-6.07 40.04,-9.11 58.82,-9.11zm-16.57 238.61c20.25,0 36.82,-6.9 49.71,-20.71 12.89,-13.81 19.33,-31.58 19.33,-53.3l0 -14.36 -9.94 0c-28.72,0 -50.81,1.29 -66.28,3.86 -15.46,2.58 -26.51,6.91 -33.14,12.98 -6.63,6.08 -9.94,14.82 -9.94,26.24 0,12.89 4.69,23.66 14.08,32.31 9.39,8.65 21.45,12.98 36.18,12.98zm317.9 -191.66l-33.69 3.31c-26.52,2.58 -45.57,10.68 -57.17,24.31 -11.6,13.62 -17.4,30.93 -17.4,51.92l0 149.68 -55.79 0 0 -269.54 54.13 0 0 46.95c14.36,-31.67 43.64,-49.16 87.83,-52.48l18.22 -1.1 3.87 46.95zm103.59 -46.95c36.09,0 62.88,9.02 80.37,27.06 17.49,18.05 26.23,45.48 26.23,82.3l0 166.81 -53.57 0 0 -44.74c-7,15.83 -17.4,27.89 -31.21,36.18 -13.81,8.28 -29.92,12.43 -48.33,12.43 -17.68,0 -33.88,-3.59 -48.61,-10.77 -14.73,-7.18 -26.23,-17.22 -34.52,-30.11 -8.28,-12.88 -12.43,-27.25 -12.43,-43.08 0,-19.52 5.07,-34.89 15.19,-46.12 10.13,-11.23 26.88,-19.24 50.27,-24.03 23.38,-4.78 55.51,-7.18 96.38,-7.18l12.7 0 0 -16.01c0,-20.63 -4.32,-35.54 -12.98,-44.74 -8.65,-9.21 -22.73,-13.81 -42.25,-13.81 -30.56,0 -61.13,9.39 -91.69,28.17l-16.57 -39.22c14.36,-9.94 31.76,-17.95 52.2,-24.03 20.43,-6.07 40.04,-9.11 58.82,-9.11zm-16.57 238.61c20.25,0 36.82,-6.9 49.71,-20.71 12.89,-13.81 19.33,-31.58 19.33,-53.3l0 -14.36 -9.94 0c-28.72,0 -50.81,1.29 -66.28,3.86 -15.46,2.58 -26.51,6.91 -33.14,12.98 -6.63,6.08 -9.94,14.82 -9.94,26.24 0,12.89 4.69,23.66 14.08,32.31 9.39,8.65 21.45,12.98 36.18,12.98zm153.85 37.56l0 -389.4 55.79 0 0 389.4 -55.79 0zm205.23 3.87c-26.51,0 -49.8,-5.71 -69.87,-17.13 -20.07,-11.41 -35.54,-27.71 -46.4,-48.88 -10.86,-21.17 -16.29,-45.75 -16.29,-73.74 0,-28.35 5.43,-53.11 16.29,-74.29 10.86,-21.17 26.33,-37.46 46.4,-48.88 20.07,-11.41 43.36,-17.12 69.87,-17.12 26.51,0 49.8,5.71 69.87,17.12 20.07,11.42 35.53,27.71 46.4,48.88 10.86,21.18 16.29,45.94 16.29,74.29 0,27.99 -5.43,52.57 -16.29,73.74 -10.87,21.17 -26.33,37.47 -46.4,48.88 -20.07,11.42 -43.36,17.13 -69.87,17.13zm0 -44.19c24.67,0 43.54,-8.1 56.61,-24.3 13.08,-16.21 19.61,-39.96 19.61,-71.26 0,-30.93 -6.63,-54.59 -19.88,-70.97 -13.26,-16.39 -32.04,-24.58 -56.34,-24.58 -24.3,0 -43.08,8.19 -56.34,24.58 -13.25,16.38 -19.88,40.04 -19.88,70.97 0,31.3 6.53,55.05 19.61,71.26 13.07,16.2 31.94,24.3 56.61,24.3zm243.89 44.19c-46.77,0 -84.14,-11.42 -112.13,-34.25l17.12 -40.32c27.62,21.36 59.84,32.04 96.66,32.04 18.05,0 31.85,-3.04 41.43,-9.12 9.57,-6.07 14.36,-14.63 14.36,-25.68 0,-9.58 -3.22,-17.12 -9.67,-22.65 -6.44,-5.52 -17.58,-10.12 -33.41,-13.81l-44.74 -9.94c-23.94,-5.52 -41.98,-14.54 -54.13,-27.06 -12.15,-12.52 -18.23,-28.36 -18.23,-47.5 0,-24.31 9.85,-44.01 29.55,-59.1 19.7,-15.1 45.57,-22.65 77.61,-22.65 19.14,0 37.37,3.04 54.68,9.11 17.3,6.08 32.22,14.64 44.74,25.69l-17.13 39.21c-26.51,-20.99 -53.94,-31.48 -82.29,-31.48 -16.94,0 -30.29,3.31 -40.05,9.94 -9.76,6.63 -14.64,15.65 -14.64,27.07 0,9.2 3.04,16.66 9.12,22.37 6.07,5.7 15.74,10.03 28.99,12.98l45.85 10.49c26.14,5.89 45.29,15.01 57.44,27.34 12.15,12.34 18.23,28.45 18.23,48.33 0,24.3 -9.85,43.54 -29.55,57.72 -19.7,14.18 -46.31,21.27 -79.81,21.27zm116.85 -69.6l65.73 0 0 65.73 -65.73 0 0 -65.73z"/>
   </g>
   <g id="_1746749384176">
    <path class="fil14" d="M1956.65 1171.93c23.2,0 43.91,5.89 62.14,17.67 18.22,11.79 32.4,28.36 42.53,49.72 10.12,21.35 15.18,46.02 15.18,74.01 0,27.62 -4.97,51.92 -14.91,72.91 -9.94,20.99 -24.03,37.19 -42.25,48.6 -18.23,11.42 -39.13,17.13 -62.69,17.13 -20.26,0 -38.11,-4.33 -53.58,-12.98 -15.47,-8.66 -27.25,-21.08 -35.35,-37.29l0 145.82 -55.79 0 0 -368.96 55.79 0 0 44.19c8.1,-16.21 19.88,-28.73 35.35,-37.56 15.47,-8.84 33.32,-13.26 53.58,-13.26zm-13.26 235.85c24.3,0 43.08,-8.19 56.34,-24.58 13.26,-16.39 19.88,-39.68 19.88,-69.87 0,-30.56 -6.72,-54.31 -20.16,-71.25 -13.44,-16.94 -32.12,-25.41 -56.06,-25.41 -24.3,0 -42.99,8.28 -56.06,24.85 -13.07,16.58 -19.61,40.14 -19.61,70.7 0,30.57 6.54,54.13 19.61,70.7 13.07,16.57 31.76,24.86 56.06,24.86zm262.11 -235.85c36.09,0 62.88,9.02 80.37,27.06 17.49,18.05 26.23,45.48 26.23,82.3l0 166.81 -53.57 0 0 -44.74c-7,15.83 -17.4,27.89 -31.21,36.18 -13.81,8.28 -29.92,12.43 -48.33,12.43 -17.68,0 -33.88,-3.59 -48.61,-10.77 -14.73,-7.18 -26.23,-17.22 -34.52,-30.11 -8.28,-12.88 -12.43,-27.25 -12.43,-43.08 0,-19.52 5.07,-34.89 15.19,-46.12 10.13,-11.23 26.88,-19.24 50.27,-24.03 23.38,-4.78 55.51,-7.18 96.38,-7.18l12.7 0 0 -16.01c0,-20.63 -4.32,-35.54 -12.98,-44.74 -8.65,-9.21 -22.73,-13.81 -42.25,-13.81 -30.56,0 -61.13,9.39 -91.69,28.17l-16.57 -39.22c14.36,-9.94 31.76,-17.95 52.2,-24.03 20.43,-6.07 40.04,-9.11 58.82,-9.11zm-16.57 238.61c20.25,0 36.82,-6.9 49.71,-20.71 12.89,-13.81 19.33,-31.58 19.33,-53.3l0 -14.36 -9.94 0c-28.72,0 -50.81,1.29 -66.28,3.86 -15.46,2.58 -26.51,6.91 -33.14,12.98 -6.63,6.08 -9.94,14.82 -9.94,26.24 0,12.89 4.69,23.66 14.08,32.31 9.39,8.65 21.45,12.98 36.18,12.98zm317.9 -191.66l-33.69 3.31c-26.52,2.58 -45.57,10.68 -57.17,24.31 -11.6,13.62 -17.4,30.93 -17.4,51.92l0 149.68 -55.79 0 0 -269.54 54.13 0 0 46.95c14.36,-31.67 43.64,-49.16 87.83,-52.48l18.22 -1.1 3.87 46.95zm103.59 -46.95c36.09,0 62.88,9.02 80.37,27.06 17.49,18.05 26.23,45.48 26.23,82.3l0 166.81 -53.57 0 0 -44.74c-7,15.83 -17.4,27.89 -31.21,36.18 -13.81,8.28 -29.92,12.43 -48.33,12.43 -17.68,0 -33.88,-3.59 -48.61,-10.77 -14.73,-7.18 -26.23,-17.22 -34.52,-30.11 -8.28,-12.88 -12.43,-27.25 -12.43,-43.08 0,-19.52 5.07,-34.89 15.19,-46.12 10.13,-11.23 26.88,-19.24 50.27,-24.03 23.38,-4.78 55.51,-7.18 96.38,-7.18l12.7 0 0 -16.01c0,-20.63 -4.32,-35.54 -12.98,-44.74 -8.65,-9.21 -22.73,-13.81 -42.25,-13.81 -30.56,0 -61.13,9.39 -91.69,28.17l-16.57 -39.22c14.36,-9.94 31.76,-17.95 52.2,-24.03 20.43,-6.07 40.04,-9.11 58.82,-9.11zm-16.57 238.61c20.25,0 36.82,-6.9 49.71,-20.71 12.89,-13.81 19.33,-31.58 19.33,-53.3l0 -14.36 -9.94 0c-28.72,0 -50.81,1.29 -66.28,3.86 -15.46,2.58 -26.51,6.91 -33.14,12.98 -6.63,6.08 -9.94,14.82 -9.94,26.24 0,12.89 4.69,23.66 14.08,32.31 9.39,8.65 21.45,12.98 36.18,12.98z"/>
    <path class="fil15" d="M2747.7 1448.1l0 -389.4 55.79 0 0 389.4 -55.79 0zm205.23 3.87c-26.51,0 -49.8,-5.71 -69.87,-17.13 -20.07,-11.41 -35.54,-27.71 -46.4,-48.88 -10.86,-21.17 -16.29,-45.75 -16.29,-73.74 0,-28.35 5.43,-53.11 16.29,-74.29 10.86,-21.17 26.33,-37.46 46.4,-48.88 20.07,-11.41 43.36,-17.12 69.87,-17.12 26.51,0 49.8,5.71 69.87,17.12 20.07,11.42 35.53,27.71 46.4,48.88 10.86,21.18 16.29,45.94 16.29,74.29 0,27.99 -5.43,52.57 -16.29,73.74 -10.87,21.17 -26.33,37.47 -46.4,48.88 -20.07,11.42 -43.36,17.13 -69.87,17.13zm0 -44.19c24.67,0 43.54,-8.1 56.61,-24.3 13.08,-16.21 19.61,-39.96 19.61,-71.26 0,-30.93 -6.63,-54.59 -19.88,-70.97 -13.26,-16.39 -32.04,-24.58 -56.34,-24.58 -24.3,0 -43.08,8.19 -56.34,24.58 -13.25,16.38 -19.88,40.04 -19.88,70.97 0,31.3 6.53,55.05 19.61,71.26 13.07,16.2 31.94,24.3 56.61,24.3zm243.89 44.19c-46.77,0 -84.14,-11.42 -112.13,-34.25l17.12 -40.32c27.62,21.36 59.84,32.04 96.66,32.04 18.05,0 31.85,-3.04 41.43,-9.12 9.57,-6.07 14.36,-14.63 14.36,-25.68 0,-9.58 -3.22,-17.12 -9.67,-22.65 -6.44,-5.52 -17.58,-10.12 -33.41,-13.81l-44.74 -9.94c-23.94,-5.52 -41.98,-14.54 -54.13,-27.06 -12.15,-12.52 -18.23,-28.36 -18.23,-47.5 0,-24.31 9.85,-44.01 29.55,-59.1 19.7,-15.1 45.57,-22.65 77.61,-22.65 19.14,0 37.37,3.04 54.68,9.11 17.3,6.08 32.22,14.64 44.74,25.69l-17.13 39.21c-26.51,-20.99 -53.94,-31.48 -82.29,-31.48 -16.94,0 -30.29,3.31 -40.05,9.94 -9.76,6.63 -14.64,15.65 -14.64,27.07 0,9.2 3.04,16.66 9.12,22.37 6.07,5.7 15.74,10.03 28.99,12.98l45.85 10.49c26.14,5.89 45.29,15.01 57.44,27.34 12.15,12.34 18.23,28.45 18.23,48.33 0,24.3 -9.85,43.54 -29.55,57.72 -19.7,14.18 -46.31,21.27 -79.81,21.27z"/>
    <polygon class="fil16" points="3313.67,1382.37 3379.4,1382.37 3379.4,1448.1 3313.67,1448.1 "/>
   </g>
   <g>
    <path class="fil12 str1" d="M2048.13 1587.31c60.39,0 90.59,36.27 90.59,108.81l0 167.36 -55.79 0 0 -165.15c0,-22.83 -3.96,-39.49 -11.87,-49.99 -7.92,-10.49 -20.72,-15.74 -38.39,-15.74 -20.25,0 -36.27,7 -48.05,20.99 -11.79,13.99 -17.68,33.14 -17.68,57.44l0 152.45 -55.79 0 0 -165.15c0,-22.83 -4.05,-39.49 -12.15,-49.99 -8.1,-10.49 -20.8,-15.74 -38.11,-15.74 -20.62,0 -36.82,7 -48.6,20.99 -11.79,13.99 -17.68,33.14 -17.68,57.44l0 152.45 -55.79 0 0 -269.54 54.69 0 0 40.87c8.46,-15.1 19.88,-26.79 34.24,-35.07 14.36,-8.29 30.75,-12.43 49.16,-12.43 41.61,0 68.67,17.31 81.19,51.92 8.47,-16.2 20.62,-28.91 36.46,-38.11 15.83,-9.21 33.69,-13.81 53.57,-13.81zm238.37 280.04c-26.51,0 -49.8,-5.71 -69.87,-17.13 -20.07,-11.41 -35.54,-27.71 -46.4,-48.88 -10.86,-21.17 -16.29,-45.75 -16.29,-73.74 0,-28.35 5.43,-53.11 16.29,-74.29 10.86,-21.17 26.33,-37.46 46.4,-48.88 20.07,-11.41 43.36,-17.12 69.87,-17.12 26.51,0 49.8,5.71 69.87,17.12 20.07,11.42 35.53,27.71 46.4,48.88 10.86,21.18 16.29,45.94 16.29,74.29 0,27.99 -5.43,52.57 -16.29,73.74 -10.87,21.17 -26.33,37.47 -46.4,48.88 -20.07,11.42 -43.36,17.13 -69.87,17.13zm0 -44.19c24.67,0 43.54,-8.1 56.61,-24.3 13.08,-16.21 19.61,-39.96 19.61,-71.26 0,-30.93 -6.63,-54.59 -19.88,-70.97 -13.26,-16.39 -32.04,-24.58 -56.34,-24.58 -24.3,0 -43.08,8.19 -56.34,24.58 -13.25,16.38 -19.88,40.04 -19.88,70.97 0,31.3 6.53,55.05 19.61,71.26 13.07,16.2 31.94,24.3 56.61,24.3zm294.15 -235.85c64.44,0 96.66,36.27 96.66,108.81l0 167.36 -55.79 0 0 -164.6c0,-22.83 -4.51,-39.58 -13.53,-50.26 -9.02,-10.68 -23.11,-16.02 -42.25,-16.02 -22.47,0 -40.51,7 -54.13,20.99 -13.63,13.99 -20.44,32.77 -20.44,56.34l0 153.55 -55.79 0 0 -269.54 54.69 0 0 43.08c8.83,-16.2 21.17,-28.54 37,-37.01 15.84,-8.47 33.69,-12.7 53.58,-12.7zm222.35 280.04c-46.77,0 -84.14,-11.42 -112.13,-34.25l17.12 -40.32c27.62,21.36 59.84,32.04 96.66,32.04 18.05,0 31.85,-3.04 41.43,-9.12 9.57,-6.07 14.36,-14.63 14.36,-25.68 0,-9.58 -3.22,-17.12 -9.67,-22.65 -6.44,-5.52 -17.58,-10.12 -33.41,-13.81l-44.74 -9.94c-23.94,-5.52 -41.98,-14.54 -54.13,-27.06 -12.15,-12.52 -18.23,-28.36 -18.23,-47.5 0,-24.31 9.85,-44.01 29.55,-59.1 19.7,-15.1 45.57,-22.65 77.61,-22.65 19.14,0 37.37,3.04 54.68,9.11 17.3,6.08 32.22,14.64 44.74,25.69l-17.13 39.21c-26.51,-20.99 -53.94,-31.48 -82.29,-31.48 -16.94,0 -30.29,3.31 -40.05,9.94 -9.76,6.63 -14.64,15.65 -14.64,27.07 0,9.2 3.04,16.66 9.12,22.37 6.07,5.7 15.74,10.03 28.99,12.98l45.85 10.49c26.14,5.89 45.29,15.01 57.44,27.34 12.15,12.34 18.23,28.45 18.23,48.33 0,24.3 -9.85,43.54 -29.55,57.72 -19.7,14.18 -46.31,21.27 -79.81,21.27zm250.51 -43.09c8.47,0 16.76,-0.55 24.86,-1.65l-2.76 42.53c-9.21,1.47 -18.78,2.21 -28.72,2.21 -34.99,0 -61.04,-8.56 -78.16,-25.69 -17.12,-17.12 -25.68,-41.88 -25.68,-74.29l0 -130.35 -52.48 0 0 -43.08 52.48 0 0 -81.2 55.78 0 0 81.2 74.02 0 0 43.08 -74.02 0 0 128.14c0,39.4 18.23,59.1 54.68,59.1zm252.73 -86.16l-190.56 0c4.06,57.07 32.41,85.61 85.06,85.61 30.94,0 58.92,-10.12 83.96,-30.38l17.12 39.22c-12.52,10.68 -27.98,19.15 -46.39,25.41 -18.41,6.26 -37.19,9.39 -56.34,9.39 -43.08,0 -77.05,-12.34 -101.91,-37.01 -24.85,-24.67 -37.28,-58.73 -37.28,-102.18 0,-27.62 5.43,-52.11 16.29,-73.46 10.86,-21.36 26.15,-37.93 45.85,-49.72 19.7,-11.78 42.07,-17.67 67.11,-17.67 36.45,0 65.08,11.78 85.88,35.35 20.81,23.57 31.21,56.15 31.21,97.76l0 17.68zm-115.99 -109.92c-21.36,0 -38.39,6.72 -51.09,20.16 -12.7,13.44 -20.35,32.68 -22.92,57.72l141.95 0c-1.11,-25.04 -7.46,-44.28 -19.06,-57.72 -11.6,-13.44 -27.89,-20.16 -48.88,-20.16zm295.81 6.08l-33.69 3.31c-26.52,2.58 -45.57,10.68 -57.17,24.31 -11.6,13.62 -17.4,30.93 -17.4,51.92l0 149.68 -55.79 0 0 -269.54 54.13 0 0 46.95c14.36,-31.67 43.64,-49.16 87.83,-52.48l18.22 -1.1 3.87 46.95z"/>
    <path id="1" class="fil13" d="M2048.13 1587.31c60.39,0 90.59,36.27 90.59,108.81l0 167.36 -55.79 0 0 -165.15c0,-22.83 -3.96,-39.49 -11.87,-49.99 -7.92,-10.49 -20.72,-15.74 -38.39,-15.74 -20.25,0 -36.27,7 -48.05,20.99 -11.79,13.99 -17.68,33.14 -17.68,57.44l0 152.45 -55.79 0 0 -165.15c0,-22.83 -4.05,-39.49 -12.15,-49.99 -8.1,-10.49 -20.8,-15.74 -38.11,-15.74 -20.62,0 -36.82,7 -48.6,20.99 -11.79,13.99 -17.68,33.14 -17.68,57.44l0 152.45 -55.79 0 0 -269.54 54.69 0 0 40.87c8.46,-15.1 19.88,-26.79 34.24,-35.07 14.36,-8.29 30.75,-12.43 49.16,-12.43 41.61,0 68.67,17.31 81.19,51.92 8.47,-16.2 20.62,-28.91 36.46,-38.11 15.83,-9.21 33.69,-13.81 53.57,-13.81zm238.37 280.04c-26.51,0 -49.8,-5.71 -69.87,-17.13 -20.07,-11.41 -35.54,-27.71 -46.4,-48.88 -10.86,-21.17 -16.29,-45.75 -16.29,-73.74 0,-28.35 5.43,-53.11 16.29,-74.29 10.86,-21.17 26.33,-37.46 46.4,-48.88 20.07,-11.41 43.36,-17.12 69.87,-17.12 26.51,0 49.8,5.71 69.87,17.12 20.07,11.42 35.53,27.71 46.4,48.88 10.86,21.18 16.29,45.94 16.29,74.29 0,27.99 -5.43,52.57 -16.29,73.74 -10.87,21.17 -26.33,37.47 -46.4,48.88 -20.07,11.42 -43.36,17.13 -69.87,17.13zm0 -44.19c24.67,0 43.54,-8.1 56.61,-24.3 13.08,-16.21 19.61,-39.96 19.61,-71.26 0,-30.93 -6.63,-54.59 -19.88,-70.97 -13.26,-16.39 -32.04,-24.58 -56.34,-24.58 -24.3,0 -43.08,8.19 -56.34,24.58 -13.25,16.38 -19.88,40.04 -19.88,70.97 0,31.3 6.53,55.05 19.61,71.26 13.07,16.2 31.94,24.3 56.61,24.3zm294.15 -235.85c64.44,0 96.66,36.27 96.66,108.81l0 167.36 -55.79 0 0 -164.6c0,-22.83 -4.51,-39.58 -13.53,-50.26 -9.02,-10.68 -23.11,-16.02 -42.25,-16.02 -22.47,0 -40.51,7 -54.13,20.99 -13.63,13.99 -20.44,32.77 -20.44,56.34l0 153.55 -55.79 0 0 -269.54 54.69 0 0 43.08c8.83,-16.2 21.17,-28.54 37,-37.01 15.84,-8.47 33.69,-12.7 53.58,-12.7zm222.35 280.04c-46.77,0 -84.14,-11.42 -112.13,-34.25l17.12 -40.32c27.62,21.36 59.84,32.04 96.66,32.04 18.05,0 31.85,-3.04 41.43,-9.12 9.57,-6.07 14.36,-14.63 14.36,-25.68 0,-9.58 -3.22,-17.12 -9.67,-22.65 -6.44,-5.52 -17.58,-10.12 -33.41,-13.81l-44.74 -9.94c-23.94,-5.52 -41.98,-14.54 -54.13,-27.06 -12.15,-12.52 -18.23,-28.36 -18.23,-47.5 0,-24.31 9.85,-44.01 29.55,-59.1 19.7,-15.1 45.57,-22.65 77.61,-22.65 19.14,0 37.37,3.04 54.68,9.11 17.3,6.08 32.22,14.64 44.74,25.69l-17.13 39.21c-26.51,-20.99 -53.94,-31.48 -82.29,-31.48 -16.94,0 -30.29,3.31 -40.05,9.94 -9.76,6.63 -14.64,15.65 -14.64,27.07 0,9.2 3.04,16.66 9.12,22.37 6.07,5.7 15.74,10.03 28.99,12.98l45.85 10.49c26.14,5.89 45.29,15.01 57.44,27.34 12.15,12.34 18.23,28.45 18.23,48.33 0,24.3 -9.85,43.54 -29.55,57.72 -19.7,14.18 -46.31,21.27 -79.81,21.27zm250.51 -43.09c8.47,0 16.76,-0.55 24.86,-1.65l-2.76 42.53c-9.21,1.47 -18.78,2.21 -28.72,2.21 -34.99,0 -61.04,-8.56 -78.16,-25.69 -17.12,-17.12 -25.68,-41.88 -25.68,-74.29l0 -130.35 -52.48 0 0 -43.08 52.48 0 0 -81.2 55.78 0 0 81.2 74.02 0 0 43.08 -74.02 0 0 128.14c0,39.4 18.23,59.1 54.68,59.1zm252.73 -86.16l-190.56 0c4.06,57.07 32.41,85.61 85.06,85.61 30.94,0 58.92,-10.12 83.96,-30.38l17.12 39.22c-12.52,10.68 -27.98,19.15 -46.39,25.41 -18.41,6.26 -37.19,9.39 -56.34,9.39 -43.08,0 -77.05,-12.34 -101.91,-37.01 -24.85,-24.67 -37.28,-58.73 -37.28,-102.18 0,-27.62 5.43,-52.11 16.29,-73.46 10.86,-21.36 26.15,-37.93 45.85,-49.72 19.7,-11.78 42.07,-17.67 67.11,-17.67 36.45,0 65.08,11.78 85.88,35.35 20.81,23.57 31.21,56.15 31.21,97.76l0 17.68zm-115.99 -109.92c-21.36,0 -38.39,6.72 -51.09,20.16 -12.7,13.44 -20.35,32.68 -22.92,57.72l141.95 0c-1.11,-25.04 -7.46,-44.28 -19.06,-57.72 -11.6,-13.44 -27.89,-20.16 -48.88,-20.16zm295.81 6.08l-33.69 3.31c-26.52,2.58 -45.57,10.68 -57.17,24.31 -11.6,13.62 -17.4,30.93 -17.4,51.92l0 149.68 -55.79 0 0 -269.54 54.13 0 0 46.95c14.36,-31.67 43.64,-49.16 87.83,-52.48l18.22 -1.1 3.87 46.95z"/>
   </g>
   <path class="fil14" d="M2048.13 1587.31c60.39,0 90.59,36.27 90.59,108.81l0 167.36 -55.79 0 0 -165.15c0,-22.83 -3.96,-39.49 -11.87,-49.99 -7.92,-10.49 -20.72,-15.74 -38.39,-15.74 -20.25,0 -36.27,7 -48.05,20.99 -11.79,13.99 -17.68,33.14 -17.68,57.44l0 152.45 -55.79 0 0 -165.15c0,-22.83 -4.05,-39.49 -12.15,-49.99 -8.1,-10.49 -20.8,-15.74 -38.11,-15.74 -20.62,0 -36.82,7 -48.6,20.99 -11.79,13.99 -17.68,33.14 -17.68,57.44l0 152.45 -55.79 0 0 -269.54 54.69 0 0 40.87c8.46,-15.1 19.88,-26.79 34.24,-35.07 14.36,-8.29 30.75,-12.43 49.16,-12.43 41.61,0 68.67,17.31 81.19,51.92 8.47,-16.2 20.62,-28.91 36.46,-38.11 15.83,-9.21 33.69,-13.81 53.57,-13.81zm238.37 280.04c-26.51,0 -49.8,-5.71 -69.87,-17.13 -20.07,-11.41 -35.54,-27.71 -46.4,-48.88 -10.86,-21.17 -16.29,-45.75 -16.29,-73.74 0,-28.35 5.43,-53.11 16.29,-74.29 10.86,-21.17 26.33,-37.46 46.4,-48.88 20.07,-11.41 43.36,-17.12 69.87,-17.12 26.51,0 49.8,5.71 69.87,17.12 20.07,11.42 35.53,27.71 46.4,48.88 10.86,21.18 16.29,45.94 16.29,74.29 0,27.99 -5.43,52.57 -16.29,73.74 -10.87,21.17 -26.33,37.47 -46.4,48.88 -20.07,11.42 -43.36,17.13 -69.87,17.13zm0 -44.19c24.67,0 43.54,-8.1 56.61,-24.3 13.08,-16.21 19.61,-39.96 19.61,-71.26 0,-30.93 -6.63,-54.59 -19.88,-70.97 -13.26,-16.39 -32.04,-24.58 -56.34,-24.58 -24.3,0 -43.08,8.19 -56.34,24.58 -13.25,16.38 -19.88,40.04 -19.88,70.97 0,31.3 6.53,55.05 19.61,71.26 13.07,16.2 31.94,24.3 56.61,24.3zm294.15 -235.85c64.44,0 96.66,36.27 96.66,108.81l0 167.36 -55.79 0 0 -164.6c0,-22.83 -4.51,-39.58 -13.53,-50.26 -9.02,-10.68 -23.11,-16.02 -42.25,-16.02 -22.47,0 -40.51,7 -54.13,20.99 -13.63,13.99 -20.44,32.77 -20.44,56.34l0 153.55 -55.79 0 0 -269.54 54.69 0 0 43.08c8.83,-16.2 21.17,-28.54 37,-37.01 15.84,-8.47 33.69,-12.7 53.58,-12.7zm222.35 280.04c-46.77,0 -84.14,-11.42 -112.13,-34.25l17.12 -40.32c27.62,21.36 59.84,32.04 96.66,32.04 18.05,0 31.85,-3.04 41.43,-9.12 9.57,-6.07 14.36,-14.63 14.36,-25.68 0,-9.58 -3.22,-17.12 -9.67,-22.65 -6.44,-5.52 -17.58,-10.12 -33.41,-13.81l-44.74 -9.94c-23.94,-5.52 -41.98,-14.54 -54.13,-27.06 -12.15,-12.52 -18.23,-28.36 -18.23,-47.5 0,-24.31 9.85,-44.01 29.55,-59.1 19.7,-15.1 45.57,-22.65 77.61,-22.65 19.14,0 37.37,3.04 54.68,9.11 17.3,6.08 32.22,14.64 44.74,25.69l-17.13 39.21c-26.51,-20.99 -53.94,-31.48 -82.29,-31.48 -16.94,0 -30.29,3.31 -40.05,9.94 -9.76,6.63 -14.64,15.65 -14.64,27.07 0,9.2 3.04,16.66 9.12,22.37 6.07,5.7 15.74,10.03 28.99,12.98l45.85 10.49c26.14,5.89 45.29,15.01 57.44,27.34 12.15,12.34 18.23,28.45 18.23,48.33 0,24.3 -9.85,43.54 -29.55,57.72 -19.7,14.18 -46.31,21.27 -79.81,21.27zm250.51 -43.09c8.47,0 16.76,-0.55 24.86,-1.65l-2.76 42.53c-9.21,1.47 -18.78,2.21 -28.72,2.21 -34.99,0 -61.04,-8.56 -78.16,-25.69 -17.12,-17.12 -25.68,-41.88 -25.68,-74.29l0 -130.35 -52.48 0 0 -43.08 52.48 0 0 -81.2 55.78 0 0 81.2 74.02 0 0 43.08 -74.02 0 0 128.14c0,39.4 18.23,59.1 54.68,59.1zm252.73 -86.16l-190.56 0c4.06,57.07 32.41,85.61 85.06,85.61 30.94,0 58.92,-10.12 83.96,-30.38l17.12 39.22c-12.52,10.68 -27.98,19.15 -46.39,25.41 -18.41,6.26 -37.19,9.39 -56.34,9.39 -43.08,0 -77.05,-12.34 -101.91,-37.01 -24.85,-24.67 -37.28,-58.73 -37.28,-102.18 0,-27.62 5.43,-52.11 16.29,-73.46 10.86,-21.36 26.15,-37.93 45.85,-49.72 19.7,-11.78 42.07,-17.67 67.11,-17.67 36.45,0 65.08,11.78 85.88,35.35 20.81,23.57 31.21,56.15 31.21,97.76l0 17.68zm-115.99 -109.92c-21.36,0 -38.39,6.72 -51.09,20.16 -12.7,13.44 -20.35,32.68 -22.92,57.72l141.95 0c-1.11,-25.04 -7.46,-44.28 -19.06,-57.72 -11.6,-13.44 -27.89,-20.16 -48.88,-20.16zm295.81 6.08l-33.69 3.31c-26.52,2.58 -45.57,10.68 -57.17,24.31 -11.6,13.62 -17.4,30.93 -17.4,51.92l0 149.68 -55.79 0 0 -269.54 54.13 0 0 46.95c14.36,-31.67 43.64,-49.16 87.83,-52.48l18.22 -1.1 3.87 46.95z"/>
  </g>
 </g>
</svg>
