<?xml version="1.0" encoding="UTF-8"?>
<!DOCTYPE svg PUBLIC "-//W3C//DTD SVG 1.1//EN" "http://www.w3.org/Graphics/SVG/1.1/DTD/svg11.dtd">
<!-- Creator: CorelDRAW 2017 -->
<svg xmlns="http://www.w3.org/2000/svg" xml:space="preserve" width="50.7998mm" height="33.8666mm" version="1.1" style="shape-rendering:geometricPrecision; text-rendering:geometricPrecision; image-rendering:optimizeQuality; fill-rule:evenodd; clip-rule:evenodd"
viewBox="0 0 5079.98 3386.66"
 xmlns:xlink="http://www.w3.org/1999/xlink">
 <defs>
  <style type="text/css">
   <![CDATA[
    .str1 {stroke:white;stroke-width:254.73;stroke-linecap:round;stroke-linejoin:round;stroke-miterlimit:22.9256}
    .str2 {stroke:white;stroke-width:254.73;stroke-linecap:round;stroke-linejoin:round;stroke-miterlimit:22.9256}
    .str0 {stroke:white;stroke-width:254.73;stroke-linecap:round;stroke-linejoin:round;stroke-miterlimit:22.9256}
    .fil0 {fill:none}
    .fil17 {fill:#15B2DF}
    .fil14 {fill:#2A2A2B}
    .fil10 {fill:#44C3D6}
    .fil6 {fill:#5788C6}
    .fil13 {fill:#69C6B9}
    .fil8 {fill:#8D72B2}
    .fil4 {fill:#90AFCD}
    .fil5 {fill:#98CC71}
    .fil11 {fill:#AAD5B5}
    .fil2 {fill:#B08DAF}
    .fil7 {fill:#B7529D}
    .fil16 {fill:#D8D0A4}
    .fil3 {fill:#E2DE5A}
    .fil1 {fill:#E4749B}
    .fil9 {fill:#E9427B}
    .fil15 {fill:#EFE02D}
    .fil12 {fill:#FEFEFE}
   ]]>
  </style>
 </defs>
 <g id="Capa_x0020_1">
  <metadata id="CorelCorpID_0Corel-Layer"/>
  <rect class="fil0" x="-0" width="5079.99" height="3386.66"/>
  <g id="_2260129962816">
   <g>
    <path class="fil0 str0" d="M1577.57 1716.15c29.86,-4.62 27.62,3.56 34.44,-26.35 0.64,-2.77 -1.21,-37.79 -2.23,-41.77 -4.98,-19.47 -22.36,-36.68 -35.15,-50.12l-33.18 -12.02c-2.03,60.41 5.7,94.32 36.12,130.26z"/>
    <path id="1" class="fil1" d="M1577.57 1716.15c29.86,-4.62 27.62,3.56 34.44,-26.35 0.64,-2.77 -1.21,-37.79 -2.23,-41.77 -4.98,-19.47 -22.36,-36.68 -35.15,-50.12l-33.18 -12.02c-2.03,60.41 5.7,94.32 36.12,130.26z"/>
   </g>
   <g>
    <path class="fil0 str0" d="M1577.57 1716.15l20.14 33.63c29.65,-6.95 58.15,-26.36 75.97,-38.34l3.41 -82.12 -102.46 -31.41c12.79,13.44 30.17,30.65 35.15,50.12 1.02,3.98 2.87,39 2.23,41.77 -6.82,29.91 -4.58,21.73 -34.44,26.35z"/>
    <path id="1" class="fil2" d="M1577.57 1716.15l20.14 33.63c29.65,-6.95 58.15,-26.36 75.97,-38.34l3.41 -82.12 -102.46 -31.41c12.79,13.44 30.17,30.65 35.15,50.12 1.02,3.98 2.87,39 2.23,41.77 -6.82,29.91 -4.58,21.73 -34.44,26.35z"/>
   </g>
   <g>
    <path class="fil0 str0" d="M1692.66 1251.97c14.8,43.48 42.43,61.77 59.2,97.02 20.38,42.81 41.43,60.19 70.12,87.86l1.72 -58.3c-13.07,-36.65 -79.35,-129.71 -103.58,-151.19l-27.46 24.61z"/>
    <path id="1" class="fil3" d="M1692.66 1251.97c14.8,43.48 42.43,61.77 59.2,97.02 20.38,42.81 41.43,60.19 70.12,87.86l1.72 -58.3c-13.07,-36.65 -79.35,-129.71 -103.58,-151.19l-27.46 24.61z"/>
   </g>
   <g>
    <path class="fil0 str0" d="M2961.53 1778.17c26.72,-13.32 24.81,-17.23 39.1,-38.05 5.97,-27.44 12.06,-32.13 25.49,-50.58 9.63,-13.22 17.84,-27.63 25.85,-42.89 23.56,-44.94 30.92,-42.43 45.74,-93 -5.91,-16.93 -0.42,-35.01 -20.83,-53.64 -39.01,37.52 -47.26,149.72 -88.91,211.47 -27.38,40.59 -30.9,19.06 -26.44,66.69z"/>
    <path id="1" class="fil3" d="M2961.53 1778.17c26.72,-13.32 24.81,-17.23 39.1,-38.05 5.97,-27.44 12.06,-32.13 25.49,-50.58 9.63,-13.22 17.84,-27.63 25.85,-42.89 23.56,-44.94 30.92,-42.43 45.74,-93 -5.91,-16.93 -0.42,-35.01 -20.83,-53.64 -39.01,37.52 -47.26,149.72 -88.91,211.47 -27.38,40.59 -30.9,19.06 -26.44,66.69z"/>
   </g>
   <g>
    <path class="fil0 str0" d="M1983.78 1540.55c17.07,74.64 72.01,103.85 85.17,172.61 17.92,20.53 35.66,36.84 55.58,51.64 -7.39,-72.57 -17.17,-3.47 -63.58,-140.32 -7.48,-22.07 -17.95,-45.32 -27.92,-72.37 -26.7,-72.45 -12.29,-53.8 -37.04,-62.88l-12.21 51.32z"/>
    <path id="1" class="fil3" d="M1983.78 1540.55c17.07,74.64 72.01,103.85 85.17,172.61 17.92,20.53 35.66,36.84 55.58,51.64 -7.39,-72.57 -17.17,-3.47 -63.58,-140.32 -7.48,-22.07 -17.95,-45.32 -27.92,-72.37 -26.7,-72.45 -12.29,-53.8 -37.04,-62.88l-12.21 51.32z"/>
   </g>
   <g>
    <path class="fil0 str0" d="M3736.24 1202.36l-18.83 35.09c9.9,5.48 5.05,5.66 20.97,9.06 6.05,1.29 17.22,1.67 23.71,2.11 2.05,75.21 24.88,18.19 3.94,57.43 38.23,-16.37 102.74,-49.3 119.23,-75.57 16.39,-51.69 -9.28,-8.23 3.14,-56.08 4.76,-18.36 13.6,-15.11 25.15,-42.32 -37.39,31.12 -117.37,75.86 -166.87,100.04 -13.87,-14.6 -15.62,25.37 -10.44,-29.76z"/>
    <path id="1" class="fil4" d="M3736.24 1202.36l-18.83 35.09c9.9,5.48 5.05,5.66 20.97,9.06 6.05,1.29 17.22,1.67 23.71,2.11 2.05,75.21 24.88,18.19 3.94,57.43 38.23,-16.37 102.74,-49.3 119.23,-75.57 16.39,-51.69 -9.28,-8.23 3.14,-56.08 4.76,-18.36 13.6,-15.11 25.15,-42.32 -37.39,31.12 -117.37,75.86 -166.87,100.04 -13.87,-14.6 -15.62,25.37 -10.44,-29.76z"/>
   </g>
   <g>
    <path class="fil0 str0" d="M1673.68 1711.44l49.04 -24.27c-3.72,41.18 -16.6,78.65 -9.82,117.21l34.77 16.1 25.39 -0.87c-5.41,-18.05 -17.91,-23.37 -17.73,-63.43 0.15,-32.89 7.97,-43.02 9.16,-74.07l42.36 -3.19 -129.76 -49.6 -3.41 82.12z"/>
    <path id="1" class="fil4" d="M1673.68 1711.44l49.04 -24.27c-3.72,41.18 -16.6,78.65 -9.82,117.21l34.77 16.1 25.39 -0.87c-5.41,-18.05 -17.91,-23.37 -17.73,-63.43 0.15,-32.89 7.97,-43.02 9.16,-74.07l42.36 -3.19 -129.76 -49.6 -3.41 82.12z"/>
   </g>
   <g>
    <path class="fil0 str0" d="M1601.96 1243.86l13.83 22.61c25.48,16.43 33.59,34.16 59.26,57.38 18.84,17.05 34.12,35.01 50.04,51.96 50.25,53.5 77.69,86.77 123.52,91.35l-18.24 -88.61 -6.67 0 -1.72 58.3c-28.69,-27.67 -49.74,-45.05 -70.12,-87.86 -16.77,-35.25 -44.4,-53.54 -59.2,-97.02 -20.74,-29.31 -105.07,-123.23 -126.03,-137.19 0.69,51.16 40.67,105.07 35.33,129.08z"/>
    <path id="1" class="fil5" d="M1601.96 1243.86l13.83 22.61c25.48,16.43 33.59,34.16 59.26,57.38 18.84,17.05 34.12,35.01 50.04,51.96 50.25,53.5 77.69,86.77 123.52,91.35l-18.24 -88.61 -6.67 0 -1.72 58.3c-28.69,-27.67 -49.74,-45.05 -70.12,-87.86 -16.77,-35.25 -44.4,-53.54 -59.2,-97.02 -20.74,-29.31 -105.07,-123.23 -126.03,-137.19 0.69,51.16 40.67,105.07 35.33,129.08z"/>
   </g>
   <g>
    <path class="fil0 str0" d="M3362.05 1241.54c56.89,133.74 -104.95,228.64 -120.78,230.4l1.28 -37.52c-17.33,0 -11.96,-3.8 -12.83,14.61l-1.43 41.2c60.43,0.77 46.02,-10.48 79.55,-44.1 21.53,-21.58 36.9,-46.77 63.24,-59.12 15.94,-29.81 19.21,-41.33 41.95,-63.6 10.63,-10.4 13.41,-13.76 24.87,-26.25 16.95,-18.45 13.44,-17.03 35.29,-29.61l0.26 -6.53c9.92,-40.78 31.15,-72.13 35.36,-118.18 -41.52,16.58 -83.14,74.83 -104.07,105.27 -49.25,0.2 -24.89,-22.71 -42.69,-6.57z"/>
    <path id="1" class="fil5" d="M3362.05 1241.54c56.89,133.74 -104.95,228.64 -120.78,230.4l1.28 -37.52c-17.33,0 -11.96,-3.8 -12.83,14.61l-1.43 41.2c60.43,0.77 46.02,-10.48 79.55,-44.1 21.53,-21.58 36.9,-46.77 63.24,-59.12 15.94,-29.81 19.21,-41.33 41.95,-63.6 10.63,-10.4 13.41,-13.76 24.87,-26.25 16.95,-18.45 13.44,-17.03 35.29,-29.61l0.26 -6.53c9.92,-40.78 31.15,-72.13 35.36,-118.18 -41.52,16.58 -83.14,74.83 -104.07,105.27 -49.25,0.2 -24.89,-22.71 -42.69,-6.57z"/>
   </g>
   <g>
    <path class="fil0 str0" d="M1352.4 1125.7c77.69,40.72 203.86,147.79 275.86,190.42 -6.08,-26.74 -9.28,-9.55 -12.47,-49.65l-13.83 -22.61c-51.63,-47.42 -84.89,-78.48 -126.04,-118.98 -30.86,-30.36 -95.77,-100.18 -126.14,-116.87 -31.39,-2.53 -26.03,-3.86 -49.1,-10.74 4.28,34.47 8.45,13.53 29.81,44.67 1.18,1.71 2.26,3.99 3.34,5.77l42.36 65.21c-15.24,17.84 23.09,21.14 -23.79,12.78z"/>
    <path id="1" class="fil6" d="M1352.4 1125.7c77.69,40.72 203.86,147.79 275.86,190.42 -6.08,-26.74 -9.28,-9.55 -12.47,-49.65l-13.83 -22.61c-51.63,-47.42 -84.89,-78.48 -126.04,-118.98 -30.86,-30.36 -95.77,-100.18 -126.14,-116.87 -31.39,-2.53 -26.03,-3.86 -49.1,-10.74 4.28,34.47 8.45,13.53 29.81,44.67 1.18,1.71 2.26,3.99 3.34,5.77l42.36 65.21c-15.24,17.84 23.09,21.14 -23.79,12.78z"/>
   </g>
   <g>
    <path class="fil0 str0" d="M3473.45 1261.02l-0.26 6.53c-5.29,29.6 -12.95,34.43 -20.3,64.24 1.41,-2.59 -6.48,2.45 15.46,-13.22l80.89 -53.27 132.21 -102.66c4.65,-50.81 13.3,-21.09 71.64,-110.22 1.07,-1.63 2.52,-3.56 3.57,-5.21 16.59,-26.09 28.92,-42.1 -2.56,-48.88 -36.69,20.78 -101.57,93.78 -138.71,128.82 -51.23,48.34 -86.86,91.16 -141.94,133.87z"/>
    <path id="1" class="fil6" d="M3473.45 1261.02l-0.26 6.53c-5.29,29.6 -12.95,34.43 -20.3,64.24 1.41,-2.59 -6.48,2.45 15.46,-13.22l80.89 -53.27 132.21 -102.66c4.65,-50.81 13.3,-21.09 71.64,-110.22 1.07,-1.63 2.52,-3.56 3.57,-5.21 16.59,-26.09 28.92,-42.1 -2.56,-48.88 -36.69,20.78 -101.57,93.78 -138.71,128.82 -51.23,48.34 -86.86,91.16 -141.94,133.87z"/>
   </g>
   <g>
    <path class="fil0 str0" d="M914.68 1009.24c14.62,23.52 73.76,61.19 99.38,80.5 39.22,29.56 65.59,56.37 109.02,74.68 -32.49,-87.25 -5.54,-3.06 -5.63,-68.2 -42.21,-31.46 -149.03,-156.97 -204.07,-167.4l19.69 75.37c-12.5,9.95 3.11,4.87 -18.39,5.05z"/>
    <path id="1" class="fil6" d="M914.68 1009.24c14.62,23.52 73.76,61.19 99.38,80.5 39.22,29.56 65.59,56.37 109.02,74.68 -32.49,-87.25 -5.54,-3.06 -5.63,-68.2 -42.21,-31.46 -149.03,-156.97 -204.07,-167.4l19.69 75.37c-12.5,9.95 3.11,4.87 -18.39,5.05z"/>
   </g>
   <g>
    <path class="fil0 str0" d="M603.59 1117.78c1.67,1.54 4.53,1.28 5.47,4.07 0.93,2.75 4.2,3.13 5.51,3.86l121.5 48.98c55.62,13.66 12.14,4.67 29.44,-18.8 -33.36,-14.56 -27.01,-24.22 -49.69,-51.85l-59.72 -55.98c-36.99,-23.16 -87.06,-48.93 -132.22,-75.6 -41.11,-24.28 -97.89,-61.56 -144.27,-75.85 25.31,43.86 224.4,210.61 223.98,221.17z"/>
    <path id="1" class="fil7" d="M603.59 1117.78c1.67,1.54 4.53,1.28 5.47,4.07 0.93,2.75 4.2,3.13 5.51,3.86l121.5 48.98c55.62,13.66 12.14,4.67 29.44,-18.8 -33.36,-14.56 -27.01,-24.22 -49.69,-51.85l-59.72 -55.98c-36.99,-23.16 -87.06,-48.93 -132.22,-75.6 -41.11,-24.28 -97.89,-61.56 -144.27,-75.85 25.31,43.86 224.4,210.61 223.98,221.17z"/>
   </g>
   <g>
    <path class="fil0 str0" d="M4436.55 1053.14c-16.6,15.1 -16.77,7.65 -28.71,26.81 -14.56,19.07 -53.83,53.53 -70.67,66.37 -18.18,13.86 -17.81,11.04 -30.01,26.5 -3.17,4.02 -19.41,26.42 -23.03,37.58l231.65 -100.98c-36.73,8.28 -9.41,2.97 -20.06,-2.84 21.27,-12.85 181.55,-155.98 196.54,-189.16 -66.05,14.24 -190.22,110.08 -255.71,135.72z"/>
    <path id="1" class="fil7" d="M4436.55 1053.14c-16.6,15.1 -16.77,7.65 -28.71,26.81 -14.56,19.07 -53.83,53.53 -70.67,66.37 -18.18,13.86 -17.81,11.04 -30.01,26.5 -3.17,4.02 -19.41,26.42 -23.03,37.58l231.65 -100.98c-36.73,8.28 -9.41,2.97 -20.06,-2.84 21.27,-12.85 181.55,-155.98 196.54,-189.16 -66.05,14.24 -190.22,110.08 -255.71,135.72z"/>
   </g>
   <g>
    <path class="fil0 str0" d="M2850.25 595.13c12.95,17.15 38.28,26.63 54.94,41.76 -11.61,56.06 -63.06,112.08 -67.01,164.3 38.01,-29.43 155.61,-144.07 168.03,-181l-56.6 -32.06 73.73 -165.66c-27.27,5.55 -155.93,142.56 -173.09,172.66z"/>
    <path id="1" class="fil7" d="M2850.25 595.13c12.95,17.15 38.28,26.63 54.94,41.76 -11.61,56.06 -63.06,112.08 -67.01,164.3 38.01,-29.43 155.61,-144.07 168.03,-181l-56.6 -32.06 73.73 -165.66c-27.27,5.55 -155.93,142.56 -173.09,172.66z"/>
   </g>
   <g>
    <path class="fil0 str0" d="M2149.48 664.46c34.05,-2.97 32.36,-8.32 60.11,-23.09 43.59,41.5 38.82,105.05 92.29,136.13l-36.27 -225.27 -71.69 27.75c-20.91,-48.47 -53.48,-120.2 -88.39,-152.18 0.13,54.02 21.78,195.97 43.95,236.66z"/>
    <path id="1" class="fil7" d="M2149.48 664.46c34.05,-2.97 32.36,-8.32 60.11,-23.09 43.59,41.5 38.82,105.05 92.29,136.13l-36.27 -225.27 -71.69 27.75c-20.91,-48.47 -53.48,-120.2 -88.39,-152.18 0.13,54.02 21.78,195.97 43.95,236.66z"/>
   </g>
   <g>
    <path class="fil0 str0" d="M3754.1 998.33c31.48,6.78 19.15,22.79 2.56,48.88 -1.05,1.65 -2.5,3.58 -3.57,5.21 -58.34,89.13 -66.99,59.41 -71.64,110.22 26.04,-8.89 169.46,-92.08 197.35,-133.57l-32.97 4.28c8.23,-35.74 11.81,-34.43 33.88,-58.26 15.17,-16.39 25.21,-25.52 36.18,-38.32 -5.18,-13.86 4.79,-36.46 10.46,-49.95 12.81,-30.47 16.43,-36.84 24.2,-73.25 -49.12,20.67 -71.03,56.01 -103.79,87.7 -26.93,26.06 -73.77,65.84 -92.66,97.06z"/>
    <path id="1" class="fil8" d="M3754.1 998.33c31.48,6.78 19.15,22.79 2.56,48.88 -1.05,1.65 -2.5,3.58 -3.57,5.21 -58.34,89.13 -66.99,59.41 -71.64,110.22 26.04,-8.89 169.46,-92.08 197.35,-133.57l-32.97 4.28c8.23,-35.74 11.81,-34.43 33.88,-58.26 15.17,-16.39 25.21,-25.52 36.18,-38.32 -5.18,-13.86 4.79,-36.46 10.46,-49.95 12.81,-30.47 16.43,-36.84 24.2,-73.25 -49.12,20.67 -71.03,56.01 -103.79,87.7 -26.93,26.06 -73.77,65.84 -92.66,97.06z"/>
   </g>
   <g>
    <path class="fil0 str0" d="M1153.38 913.8c13.3,15.57 27.6,25.6 45.5,46.37 19.86,23.05 26.59,25.06 34.77,55.74l-37.3 -2.53 75.24 60.81c23.74,18.59 54.55,37.18 80.81,51.51 46.88,8.36 8.55,5.06 23.79,-12.78l-42.36 -65.21c-1.08,-1.78 -2.16,-4.06 -3.34,-5.77 -21.36,-31.14 -25.53,-10.2 -29.81,-44.67 23.07,6.88 17.71,8.21 49.1,10.74 -16.73,-28.16 -203.02,-210.48 -229.78,-222.18l36.18 91.9c4.05,14.22 3.95,0.56 2.93,18.51 -1.39,24.71 7.39,2.97 -5.73,17.56z"/>
    <path id="1" class="fil8" d="M1153.38 913.8c13.3,15.57 27.6,25.6 45.5,46.37 19.86,23.05 26.59,25.06 34.77,55.74l-37.3 -2.53 75.24 60.81c23.74,18.59 54.55,37.18 80.81,51.51 46.88,8.36 8.55,5.06 23.79,-12.78l-42.36 -65.21c-1.08,-1.78 -2.16,-4.06 -3.34,-5.77 -21.36,-31.14 -25.53,-10.2 -29.81,-44.67 23.07,6.88 17.71,8.21 49.1,10.74 -16.73,-28.16 -203.02,-210.48 -229.78,-222.18l36.18 91.9c4.05,14.22 3.95,0.56 2.93,18.51 -1.39,24.71 7.39,2.97 -5.73,17.56z"/>
   </g>
   <g>
    <path class="fil0 str0" d="M3913.55 1132.08c-11.55,27.21 -20.39,23.96 -25.15,42.32 -12.42,47.85 13.25,4.39 -3.14,56.08 53.85,-23.49 90.05,-60.59 135.68,-93.1 37.94,-27.03 100.58,-70.23 131.78,-99.22l8.7 -78.38c-42.43,3.72 -151.86,98.28 -191.42,129.56 -18.17,14.37 -37.71,30.61 -56.45,42.74z"/>
    <path id="1" class="fil8" d="M3913.55 1132.08c-11.55,27.21 -20.39,23.96 -25.15,42.32 -12.42,47.85 13.25,4.39 -3.14,56.08 53.85,-23.49 90.05,-60.59 135.68,-93.1 37.94,-27.03 100.58,-70.23 131.78,-99.22l8.7 -78.38c-42.43,3.72 -151.86,98.28 -191.42,129.56 -18.17,14.37 -37.71,30.61 -56.45,42.74z"/>
   </g>
   <g>
    <path class="fil0 str0" d="M736.07 1174.69l163.09 71 -40.51 -101.55 1.47 26.88 -201.16 -119.26 -2.86 -3.7 59.72 55.98c22.68,27.63 16.33,37.29 49.69,51.85 -17.3,23.47 26.18,32.46 -29.44,18.8z"/>
    <path id="1" class="fil8" d="M736.07 1174.69l163.09 71 -40.51 -101.55 1.47 26.88 -201.16 -119.26 -2.86 -3.7 59.72 55.98c22.68,27.63 16.33,37.29 49.69,51.85 -17.3,23.47 26.18,32.46 -29.44,18.8z"/>
   </g>
   <g>
    <path class="fil0 str0" d="M4242 1156.43l-34.21 82.09 76.34 -28.12c3.62,-11.16 19.86,-33.56 23.03,-37.58 12.2,-15.46 11.83,-12.64 30.01,-26.5 16.84,-12.84 56.11,-47.3 70.67,-66.37 -32.31,13.28 -56.9,27.09 -83.8,44 -31.87,20.03 -39.01,32.24 -82.04,32.48z"/>
    <path id="1" class="fil8" d="M4242 1156.43l-34.21 82.09 76.34 -28.12c3.62,-11.16 19.86,-33.56 23.03,-37.58 12.2,-15.46 11.83,-12.64 30.01,-26.5 16.84,-12.84 56.11,-47.3 70.67,-66.37 -32.31,13.28 -56.9,27.09 -83.8,44 -31.87,20.03 -39.01,32.24 -82.04,32.48z"/>
   </g>
   <g>
    <path class="fil0 str0" d="M2469.08 517.38l98.1 3.86 1.86 244.14 62.01 -152.22c12.63,-38.58 46.23,-130.6 47.65,-164.92l-98.57 -3.72 -2.58 -257.73c-20.07,21.43 -108.29,290.33 -108.47,330.59z"/>
    <path id="1" class="fil9" d="M2469.08 517.38l98.1 3.86 1.86 244.14 62.01 -152.22c12.63,-38.58 46.23,-130.6 47.65,-164.92l-98.57 -3.72 -2.58 -257.73c-20.07,21.43 -108.29,290.33 -108.47,330.59z"/>
   </g>
   <g>
    <path class="fil0 str1" d="M2787.89 1717.53c-43.3,3.53 -31.68,-16.34 -72.06,-29.76 -0.64,25.56 -7.61,76.91 13.24,88.98 19.1,11.04 74.71,4.88 90.83,-0.97 43.53,-19.04 50.89,-143.14 -2.18,-201.83 -36.3,-40.14 -46.68,-39.67 -39.62,-116.67 39.33,2.94 17.24,10.69 58.34,16.14l5.73 -79.13c-72.58,2.38 -151.4,-38.91 -124.96,144.1 11.51,79.64 93.15,46.43 70.68,179.14zm-554.68 66.3l81.64 -0.61c-11.75,-69.17 -15.62,-109.36 -12.46,-187.32l6.6 12.39c3.56,8.83 4.18,9.27 7.08,19.68 11.26,40.41 4.27,75.96 30.91,101.72 20.45,-18.26 16.59,-24.67 22.35,-61.4 1.54,-9.87 3.48,-26.34 5.9,-36.1l16.77 -37.01c1.28,75.7 -0.98,118.02 -13.38,188.77l81.34 -0.9c-24.17,-94.18 -19.97,-288.79 -3.82,-391.69l-74.97 4.11 -31.72 146.22c-42.26,-79.43 18.17,-174.55 -117.37,-148.23 23.21,100.49 22.4,295.05 1.13,390.37zm345.62 -131.47c-8.93,-12.58 -7.23,4.14 -12.39,-29.59l12.39 -189.43c22.95,9.41 15.57,12.88 16.78,46.39l4.64 126.59c0.42,54.66 4.62,33.82 -21.42,46.04zm-111.54 163.71l99.51 1.97 -11.5 -89.45 52.04 -3.7 -6.26 94.29 97.66 -2.6c-9.08,-40.87 -20.93,-39.31 -26.7,-99.45 -9.06,-94.6 -22.65,-283.27 -7.58,-362.76l-162.23 -0.32c16.14,96.19 1.22,245.97 -7.63,354.74 -5.86,72.08 -16.54,60.82 -27.31,107.28zm87.18 -503.51l42.05 -9.59c0.8,-4.16 2.56,-10.13 3.19,-8.76 0.62,1.34 2.7,-5.12 3.54,-6.69l23.51 -37.69c-48.93,3.42 -51.41,23.63 -72.29,62.73z"/>
    <path id="1" class="fil9" d="M2787.89 1717.53c-43.3,3.53 -31.68,-16.34 -72.06,-29.76 -0.64,25.56 -7.61,76.91 13.24,88.98 19.1,11.04 74.71,4.88 90.83,-0.97 43.53,-19.04 50.89,-143.14 -2.18,-201.83 -36.3,-40.14 -46.68,-39.67 -39.62,-116.67 39.33,2.94 17.24,10.69 58.34,16.14l5.73 -79.13c-72.58,2.38 -151.4,-38.91 -124.96,144.1 11.51,79.64 93.15,46.43 70.68,179.14zm-554.68 66.3l81.64 -0.61c-11.75,-69.17 -15.62,-109.36 -12.46,-187.32l6.6 12.39c3.56,8.83 4.18,9.27 7.08,19.68 11.26,40.41 4.27,75.96 30.91,101.72 20.45,-18.26 16.59,-24.67 22.35,-61.4 1.54,-9.87 3.48,-26.34 5.9,-36.1l16.77 -37.01c1.28,75.7 -0.98,118.02 -13.38,188.77l81.34 -0.9c-24.17,-94.18 -19.97,-288.79 -3.82,-391.69l-74.97 4.11 -31.72 146.22c-42.26,-79.43 18.17,-174.55 -117.37,-148.23 23.21,100.49 22.4,295.05 1.13,390.37zm345.62 -131.47c-8.93,-12.58 -7.23,4.14 -12.39,-29.59l12.39 -189.43c22.95,9.41 15.57,12.88 16.78,46.39l4.64 126.59c0.42,54.66 4.62,33.82 -21.42,46.04zm-111.54 163.71l99.51 1.97 -11.5 -89.45 52.04 -3.7 -6.26 94.29 97.66 -2.6c-9.08,-40.87 -20.93,-39.31 -26.7,-99.45 -9.06,-94.6 -22.65,-283.27 -7.58,-362.76l-162.23 -0.32c16.14,96.19 1.22,245.97 -7.63,354.74 -5.86,72.08 -16.54,60.82 -27.31,107.28zm87.18 -503.51l42.05 -9.59c0.8,-4.16 2.56,-10.13 3.19,-8.76 0.62,1.34 2.7,-5.12 3.54,-6.69l23.51 -37.69c-48.93,3.42 -51.41,23.63 -72.29,62.73z"/>
   </g>
   <g>
    <path class="fil0 str0" d="M782.03 1068.41c27.23,18.63 30.26,31.07 55.03,25.69 -13.53,-45.58 -70.57,-156.35 -65.53,-183.91 -21.37,-24.66 -36.28,-59.61 -51.47,-89.08 -74.6,-38.88 -151.44,-109.36 -221.62,-135.38 16.16,41.59 100.81,143.32 139.43,193.32 51.21,66.29 99.38,129.29 144.16,189.36z"/>
    <path id="1" class="fil9" d="M782.03 1068.41c27.23,18.63 30.26,31.07 55.03,25.69 -13.53,-45.58 -70.57,-156.35 -65.53,-183.91 -21.37,-24.66 -36.28,-59.61 -51.47,-89.08 -74.6,-38.88 -151.44,-109.36 -221.62,-135.38 16.16,41.59 100.81,143.32 139.43,193.32 51.21,66.29 99.38,129.29 144.16,189.36z"/>
   </g>
   <g>
    <path class="fil0 str0" d="M4358.67 836.65c-13.82,24.3 -26.77,43.6 -35.38,73.52 17.22,12.43 5.44,-5.37 6.04,18.91 0.89,35.73 -47.43,99.14 -58.5,167.02l26.97 -12.07c49.17,-78.75 259.61,-321.98 286.66,-384.73 -32.75,6.57 -188.74,115.75 -225.79,137.35z"/>
    <path id="1" class="fil9" d="M4358.67 836.65c-13.82,24.3 -26.77,43.6 -35.38,73.52 17.22,12.43 5.44,-5.37 6.04,18.91 0.89,35.73 -47.43,99.14 -58.5,167.02l26.97 -12.07c49.17,-78.75 259.61,-321.98 286.66,-384.73 -32.75,6.57 -188.74,115.75 -225.79,137.35z"/>
   </g>
   <g>
    <path class="fil0 str0" d="M3915.89 936.77c-10.97,12.8 -21.01,21.93 -36.18,38.32 -22.07,23.83 -25.65,22.52 -33.88,58.26l32.97 -4.28 6.18 -0.57 19.9 -17.04c29.24,-36.2 136.42,-156.75 152.2,-193.46 -45.24,20.34 -101.42,86.25 -141.19,118.77z"/>
    <path id="1" class="fil9" d="M3915.89 936.77c-10.97,12.8 -21.01,21.93 -36.18,38.32 -22.07,23.83 -25.65,22.52 -33.88,58.26l32.97 -4.28 6.18 -0.57 19.9 -17.04c29.24,-36.2 136.42,-156.75 152.2,-193.46 -45.24,20.34 -101.42,86.25 -141.19,118.77z"/>
   </g>
   <g>
    <path class="fil0 str0" d="M1160.63 981.42l35.72 31.96 37.3 2.53c-8.18,-30.68 -14.91,-32.69 -34.77,-55.74 -17.9,-20.77 -32.2,-30.8 -45.5,-46.37 -27.18,-24.68 -83.59,-81.69 -116.12,-96.35 16.7,49.42 93.93,118.9 123.37,163.97z"/>
    <path id="1" class="fil9" d="M1160.63 981.42l35.72 31.96 37.3 2.53c-8.18,-30.68 -14.91,-32.69 -34.77,-55.74 -17.9,-20.77 -32.2,-30.8 -45.5,-46.37 -27.18,-24.68 -83.59,-81.69 -116.12,-96.35 16.7,49.42 93.93,118.9 123.37,163.97z"/>
   </g>
   <g>
    <path class="fil0 str0" d="M720.06 821.11c15.19,29.47 30.1,64.42 51.47,89.08 48.83,24.37 99.7,82.16 143.15,99.05 21.5,-0.18 5.89,4.9 18.39,-5.05l-19.69 -75.37c55.04,10.43 161.86,135.94 204.07,167.4 0.09,65.14 -26.86,-19.05 5.63,68.2l90.44 64.08c37.6,9.69 29.88,12.94 73.87,14.76 -3.84,-60.09 -31.18,-62.07 -69.68,-93.32 -32.02,-26 -46.18,-45.29 -78.09,-73.86 -40.67,-36.41 -116.43,-116.56 -154.17,-138.54 6.28,-30.51 7.22,-3.72 16.46,-44.64 -21.34,-15.89 -25.75,-15.22 -34.37,-44.48 -36.71,-29.57 -327.9,-242.8 -362.7,-252.24 11.74,45.39 88,179.15 115.22,224.93z"/>
    <path id="1" class="fil10" d="M720.06 821.11c15.19,29.47 30.1,64.42 51.47,89.08 48.83,24.37 99.7,82.16 143.15,99.05 21.5,-0.18 5.89,4.9 18.39,-5.05l-19.69 -75.37c55.04,10.43 161.86,135.94 204.07,167.4 0.09,65.14 -26.86,-19.05 5.63,68.2l90.44 64.08c37.6,9.69 29.88,12.94 73.87,14.76 -3.84,-60.09 -31.18,-62.07 -69.68,-93.32 -32.02,-26 -46.18,-45.29 -78.09,-73.86 -40.67,-36.41 -116.43,-116.56 -154.17,-138.54 6.28,-30.51 7.22,-3.72 16.46,-44.64 -21.34,-15.89 -25.75,-15.22 -34.37,-44.48 -36.71,-29.57 -327.9,-242.8 -362.7,-252.24 11.74,45.39 88,179.15 115.22,224.93z"/>
   </g>
   <g>
    <path class="fil0 str0" d="M3961.31 977.62c-12.1,91.09 2.86,70.02 -34.64,118.27 -19.73,25.4 -11.65,-0.98 -13.12,36.19 18.74,-12.13 38.28,-28.37 56.45,-42.74 39.56,-31.28 148.99,-125.84 191.42,-129.56l-8.7 78.38 19.68 -15.8c-5.33,-19.21 7.21,-24 7.55,-51.23 0.44,-35.34 -15.97,-26.71 -19.51,-43.8 -0.72,-3.48 -3.25,-3.81 -4.13,-6.08 2.75,0.04 6.12,0.49 8.2,0.93 2.01,0.42 5.52,0.66 7.89,1.26l26.06 10.68c1.01,-1.7 3.6,2.62 5.57,3.64 16.53,-15.84 94.03,-62.14 120.05,-70.55 -8.09,29.31 -15.79,25.7 -16.76,53.36l15.97 -10.4c8.61,-29.92 21.56,-49.22 35.38,-73.52l119.74 -222.03c-32.87,3.26 -512.65,345.91 -517.1,363z"/>
    <path id="1" class="fil10" d="M3961.31 977.62c-12.1,91.09 2.86,70.02 -34.64,118.27 -19.73,25.4 -11.65,-0.98 -13.12,36.19 18.74,-12.13 38.28,-28.37 56.45,-42.74 39.56,-31.28 148.99,-125.84 191.42,-129.56l-8.7 78.38 19.68 -15.8c-5.33,-19.21 7.21,-24 7.55,-51.23 0.44,-35.34 -15.97,-26.71 -19.51,-43.8 -0.72,-3.48 -3.25,-3.81 -4.13,-6.08 2.75,0.04 6.12,0.49 8.2,0.93 2.01,0.42 5.52,0.66 7.89,1.26l26.06 10.68c1.01,-1.7 3.6,2.62 5.57,3.64 16.53,-15.84 94.03,-62.14 120.05,-70.55 -8.09,29.31 -15.79,25.7 -16.76,53.36l15.97 -10.4c8.61,-29.92 21.56,-49.22 35.38,-73.52l119.74 -222.03c-32.87,3.26 -512.65,345.91 -517.1,363z"/>
   </g>
   <g>
    <path class="fil0 str0" d="M658.96 1051.76l201.16 119.26 -1.47 -26.88 -21.59 -50.04c-24.77,5.38 -27.8,-7.06 -55.03,-25.69 -26.4,-32.6 -496.68,-403.28 -519.71,-413.14 15.84,30.26 243.95,248.6 298.08,299.39 33.73,31.64 69.05,72.54 98.56,97.1z"/>
    <path id="1" class="fil10" d="M658.96 1051.76l201.16 119.26 -1.47 -26.88 -21.59 -50.04c-24.77,5.38 -27.8,-7.06 -55.03,-25.69 -26.4,-32.6 -496.68,-403.28 -519.71,-413.14 15.84,30.26 243.95,248.6 298.08,299.39 33.73,31.64 69.05,72.54 98.56,97.1z"/>
   </g>
   <g>
    <path class="fil0 str0" d="M4297.8 1084.03l-26.97 12.07 -28.83 60.33c43.03,-0.24 50.17,-12.45 82.04,-32.48 26.9,-16.91 51.49,-30.72 83.8,-44 11.94,-19.16 12.11,-11.71 28.71,-26.81 12.61,-18.51 67.32,-66.78 90.93,-91.14 94.72,-97.67 196.36,-183.42 290.18,-290.61 -24.54,8.61 -494.65,378.51 -519.86,412.64z"/>
    <path id="1" class="fil10" d="M4297.8 1084.03l-26.97 12.07 -28.83 60.33c43.03,-0.24 50.17,-12.45 82.04,-32.48 26.9,-16.91 51.49,-30.72 83.8,-44 11.94,-19.16 12.11,-11.71 28.71,-26.81 12.61,-18.51 67.32,-66.78 90.93,-91.14 94.72,-97.67 196.36,-183.42 290.18,-290.61 -24.54,8.61 -494.65,378.51 -519.86,412.64z"/>
   </g>
   <g>
    <path class="fil0 str0" d="M1747.67 1820.48c157.75,6.88 143.44,-10.5 171.48,-79.88 8.86,-21.91 -5.09,-1.52 9.95,-19.08 -19.72,-11.67 -39.78,-16.2 -61.98,-24.37 -22.08,-8.12 -34.64,-13.4 -60.27,-18.23l-42.36 3.19c-1.19,31.05 -9.01,41.18 -9.16,74.07 -0.18,40.06 12.32,45.38 17.73,63.43l-25.39 0.87z"/>
    <path id="1" class="fil10" d="M1747.67 1820.48c157.75,6.88 143.44,-10.5 171.48,-79.88 8.86,-21.91 -5.09,-1.52 9.95,-19.08 -19.72,-11.67 -39.78,-16.2 -61.98,-24.37 -22.08,-8.12 -34.64,-13.4 -60.27,-18.23l-42.36 3.19c-1.19,31.05 -9.01,41.18 -9.16,74.07 -0.18,40.06 12.32,45.38 17.73,63.43l-25.39 0.87z"/>
   </g>
   <g>
    <path class="fil0 str0" d="M3167.71 1719.81c37.77,-0.66 14.23,13.13 32.12,51.13 9.34,19.83 21.2,31.24 46.81,35.18l37.56 0.65c18.62,-28.76 30.76,-10.11 39.22,-100.89l-40.92 -24.31 -114.79 38.24z"/>
    <path id="1" class="fil10" d="M3167.71 1719.81c37.77,-0.66 14.23,13.13 32.12,51.13 9.34,19.83 21.2,31.24 46.81,35.18l37.56 0.65c18.62,-28.76 30.76,-10.11 39.22,-100.89l-40.92 -24.31 -114.79 38.24z"/>
   </g>
   <g>
    <path class="fil0 str0" d="M3108.09 1550.75c-0.84,43.02 -3.52,12.51 13.67,23.76l70.51 -90.86c46.11,-50.23 32.99,-51.94 47.82,-111.83 -12.18,-12.51 4.64,-4.71 -19.57,-4.06l-112.43 182.99z"/>
    <path id="1" class="fil10" d="M3108.09 1550.75c-0.84,43.02 -3.52,12.51 13.67,23.76l70.51 -90.86c46.11,-50.23 32.99,-51.94 47.82,-111.83 -12.18,-12.51 4.64,-4.71 -19.57,-4.06l-112.43 182.99z"/>
   </g>
   <g>
    <path class="fil0 str0" d="M3681.45 1162.64l-132.21 102.66c-18.77,34.03 -95.72,98.58 -129.81,130.57 -17.96,16.85 -18.99,24.01 -50.81,27.06l2.46 -35.92c-26.34,12.35 -41.71,37.54 -63.24,59.12 -33.53,33.62 -19.12,44.87 -79.55,44.1l1.43 -41.2c-10.55,14.66 -20,34.76 -22.31,50.21 -7.19,48.01 5.17,30.18 14.81,64.67 -3.54,55.93 -40.65,28.3 -25.71,55.33 29.34,-4.82 556.36,-297.16 569.52,-313.19 20.94,-39.24 -1.89,17.78 -3.94,-57.43 -6.49,-0.44 -17.66,-0.82 -23.71,-2.11 -15.92,-3.4 -11.07,-3.58 -20.97,-9.06l18.83 -35.09c26.51,-30.32 41.27,-63.87 66.99,-93.1 14.47,-16.45 27.71,-29.35 41.87,-42.25 21.47,-19.55 23.76,-10.9 39.88,-38.51l-6.18 0.57c-27.89,41.49 -171.31,124.68 -197.35,133.57z"/>
    <path id="1" class="fil11" d="M3681.45 1162.64l-132.21 102.66c-18.77,34.03 -95.72,98.58 -129.81,130.57 -17.96,16.85 -18.99,24.01 -50.81,27.06l2.46 -35.92c-26.34,12.35 -41.71,37.54 -63.24,59.12 -33.53,33.62 -19.12,44.87 -79.55,44.1l1.43 -41.2c-10.55,14.66 -20,34.76 -22.31,50.21 -7.19,48.01 5.17,30.18 14.81,64.67 -3.54,55.93 -40.65,28.3 -25.71,55.33 29.34,-4.82 556.36,-297.16 569.52,-313.19 20.94,-39.24 -1.89,17.78 -3.94,-57.43 -6.49,-0.44 -17.66,-0.82 -23.71,-2.11 -15.92,-3.4 -11.07,-3.58 -20.97,-9.06l18.83 -35.09c26.51,-30.32 41.27,-63.87 66.99,-93.1 14.47,-16.45 27.71,-29.35 41.87,-42.25 21.47,-19.55 23.76,-10.9 39.88,-38.51l-6.18 0.57c-27.89,41.49 -171.31,124.68 -197.35,133.57z"/>
   </g>
   <g>
    <path class="fil0 str0" d="M3355.72 1654.71l23.94 7.76c-1.76,8.83 -5.02,17.9 -3.51,26.98 3.02,18.01 4.04,13.61 9.73,22.52 0.9,-41.52 -1.59,-14.04 8.73,-23.33l27.4 11.55 31.27 4.38c1.64,-51.9 -6.52,-64.12 0.51,-82.4l-98.07 32.54z"/>
    <path id="1" class="fil11" d="M3355.72 1654.71l23.94 7.76c-1.76,8.83 -5.02,17.9 -3.51,26.98 3.02,18.01 4.04,13.61 9.73,22.52 0.9,-41.52 -1.59,-14.04 8.73,-23.33l27.4 11.55 31.27 4.38c1.64,-51.9 -6.52,-64.12 0.51,-82.4l-98.07 32.54z"/>
   </g>
   <g>
    <path class="fil0 str0" d="M2578.83 1652.36c26.05,-12.22 21.84,8.62 21.42,-46.04l-4.64 -126.59c-1.21,-33.51 6.17,-36.98 -16.78,-46.39l-12.39 189.43c5.17,33.73 3.46,17.01 12.39,29.59z"/>
    <path id="1" class="fil12" d="M2578.83 1652.36c26.05,-12.22 21.84,8.62 21.42,-46.04l-4.64 -126.59c-1.21,-33.51 6.17,-36.98 -16.78,-46.39l-12.39 189.43c5.17,33.73 3.46,17.01 12.39,29.59z"/>
   </g>
   <g>
    <path class="fil0 str0" d="M2647.53 946.48c-20.41,13.94 -12.91,35.35 -14.56,66.23 -1.87,35.26 -13.64,53.41 14.56,63.37 16.72,-24.62 9.26,-99.56 0,-129.6z"/>
    <path id="1" class="fil12" d="M2647.53 946.48c-20.41,13.94 -12.91,35.35 -14.56,66.23 -1.87,35.26 -13.64,53.41 14.56,63.37 16.72,-24.62 9.26,-99.56 0,-129.6z"/>
   </g>
   <g>
    <path class="fil0 str0" d="M1213.52 1228.5c49.58,55.27 319.74,193.27 416.72,247.61 70.89,39.72 141.13,77.99 213.79,117.82 59.27,32.5 168.67,101.56 224.92,119.23 -13.16,-68.76 -68.1,-97.97 -85.17,-172.61 -19.52,-15.86 -57.7,-85.73 -76.43,-115.94 -27.67,-44.63 -45.13,-74.02 -75.6,-117.87 -1.1,1.63 -2.1,2.59 -2.31,5.4l-4.48 24.54c-0.06,10.24 3.99,30.07 5.41,41.87l18.24 88.61c-45.83,-4.58 -73.27,-37.85 -123.52,-91.35 -15.92,-16.95 -31.2,-34.91 -50.04,-51.96 -25.67,-23.22 -33.78,-40.95 -59.26,-57.38 3.19,40.1 6.39,22.91 12.47,49.65 -72,-42.63 -198.17,-149.7 -275.86,-190.42 -26.26,-14.33 -57.07,-32.92 -80.81,-51.51l-75.24 -60.81 -35.72 -31.96 -193.09 -133c8.62,29.26 13.03,28.59 34.37,44.48 -9.24,40.92 -10.18,14.13 -16.46,44.64 37.74,21.98 113.5,102.13 154.17,138.54 31.91,28.57 46.07,47.86 78.09,73.86 38.5,31.25 65.84,33.23 69.68,93.32 -43.99,-1.82 -36.27,-5.07 -73.87,-14.76z"/>
    <path id="1" class="fil13" d="M1213.52 1228.5c49.58,55.27 319.74,193.27 416.72,247.61 70.89,39.72 141.13,77.99 213.79,117.82 59.27,32.5 168.67,101.56 224.92,119.23 -13.16,-68.76 -68.1,-97.97 -85.17,-172.61 -19.52,-15.86 -57.7,-85.73 -76.43,-115.94 -27.67,-44.63 -45.13,-74.02 -75.6,-117.87 -1.1,1.63 -2.1,2.59 -2.31,5.4l-4.48 24.54c-0.06,10.24 3.99,30.07 5.41,41.87l18.24 88.61c-45.83,-4.58 -73.27,-37.85 -123.52,-91.35 -15.92,-16.95 -31.2,-34.91 -50.04,-51.96 -25.67,-23.22 -33.78,-40.95 -59.26,-57.38 3.19,40.1 6.39,22.91 12.47,49.65 -72,-42.63 -198.17,-149.7 -275.86,-190.42 -26.26,-14.33 -57.07,-32.92 -80.81,-51.51l-75.24 -60.81 -35.72 -31.96 -193.09 -133c8.62,29.26 13.03,28.59 34.37,44.48 -9.24,40.92 -10.18,14.13 -16.46,44.64 37.74,21.98 113.5,102.13 154.17,138.54 31.91,28.57 46.07,47.86 78.09,73.86 38.5,31.25 65.84,33.23 69.68,93.32 -43.99,-1.82 -36.27,-5.07 -73.87,-14.76z"/>
   </g>
   <g>
    <path class="fil0 str0" d="M3220.52 1367.76c24.21,-0.65 7.39,-8.45 19.57,4.06 -14.83,59.89 -1.71,61.6 -47.82,111.83l-70.51 90.86c-17.19,-11.25 -14.51,19.26 -13.67,-23.76l-10.38 2.9c-14.82,50.57 -22.18,48.06 -45.74,93 -8.01,15.26 -16.22,29.67 -25.85,42.89 -13.43,18.45 -19.52,23.14 -25.49,50.58 41.39,-26.63 178.19,-100.77 195.88,-120.88 -14.94,-27.03 22.17,0.6 25.71,-55.33 -9.64,-34.49 -22,-16.66 -14.81,-64.67 2.31,-15.45 11.76,-35.55 22.31,-50.21 0.87,-18.41 -4.5,-14.61 12.83,-14.61l8.88 -44.23c1.32,-35.74 10.55,-43.92 -2.8,-67.3l-28.11 44.87z"/>
    <path id="1" class="fil13" d="M3220.52 1367.76c24.21,-0.65 7.39,-8.45 19.57,4.06 -14.83,59.89 -1.71,61.6 -47.82,111.83l-70.51 90.86c-17.19,-11.25 -14.51,19.26 -13.67,-23.76l-10.38 2.9c-14.82,50.57 -22.18,48.06 -45.74,93 -8.01,15.26 -16.22,29.67 -25.85,42.89 -13.43,18.45 -19.52,23.14 -25.49,50.58 41.39,-26.63 178.19,-100.77 195.88,-120.88 -14.94,-27.03 22.17,0.6 25.71,-55.33 -9.64,-34.49 -22,-16.66 -14.81,-64.67 2.31,-15.45 11.76,-35.55 22.31,-50.21 0.87,-18.41 -4.5,-14.61 12.83,-14.61l8.88 -44.23c1.32,-35.74 10.55,-43.92 -2.8,-67.3l-28.11 44.87z"/>
   </g>
   <g>
    <path class="fil0 str0" d="M3904.88 1011.46l-19.9 17.04c-16.12,27.61 -18.41,18.96 -39.88,38.51 -14.16,12.9 -27.4,25.8 -41.87,42.25 -25.72,29.23 -40.48,62.78 -66.99,93.1 -5.18,55.13 -3.43,15.16 10.44,29.76 49.5,-24.18 129.48,-68.92 166.87,-100.04 1.47,-37.17 -6.61,-10.79 13.12,-36.19 37.5,-48.25 22.54,-27.18 34.64,-118.27 -31.39,12.84 -30.87,13.82 -56.43,33.84z"/>
    <path id="1" class="fil13" d="M3904.88 1011.46l-19.9 17.04c-16.12,27.61 -18.41,18.96 -39.88,38.51 -14.16,12.9 -27.4,25.8 -41.87,42.25 -25.72,29.23 -40.48,62.78 -66.99,93.1 -5.18,55.13 -3.43,15.16 10.44,29.76 49.5,-24.18 129.48,-68.92 166.87,-100.04 1.47,-37.17 -6.61,-10.79 13.12,-36.19 37.5,-48.25 22.54,-27.18 34.64,-118.27 -31.39,12.84 -30.87,13.82 -56.43,33.84z"/>
   </g>
   <g>
    <path class="fil0 str0" d="M3282.5 1681.57l40.92 24.31c-8.46,90.78 -20.6,72.13 -39.22,100.89l-37.56 -0.65c42.84,35.5 107.69,11.94 146.86,-9.18l-7.62 -84.97c-5.69,-8.91 -6.71,-4.51 -9.73,-22.52 -1.51,-9.08 1.75,-18.15 3.51,-26.98l-23.94 -7.76c-31.19,5.6 -50.89,10.47 -73.22,26.86z"/>
    <path id="1" class="fil13" d="M3282.5 1681.57l40.92 24.31c-8.46,90.78 -20.6,72.13 -39.22,100.89l-37.56 -0.65c42.84,35.5 107.69,11.94 146.86,-9.18l-7.62 -84.97c-5.69,-8.91 -6.71,-4.51 -9.73,-22.52 -1.51,-9.08 1.75,-18.15 3.51,-26.98l-23.94 -7.76c-31.19,5.6 -50.89,10.47 -73.22,26.86z"/>
   </g>
   <g>
    <path class="fil0 str0" d="M3371.08 1387.01l-2.46 35.92c31.82,-3.05 32.85,-10.21 50.81,-27.06 34.09,-31.99 111.04,-96.54 129.81,-130.57l-80.89 53.27c-21.94,15.67 -14.05,10.63 -15.46,13.22 7.35,-29.81 15.01,-34.64 20.3,-64.24 -21.85,12.58 -18.34,11.16 -35.29,29.61 -11.46,12.49 -14.24,15.85 -24.87,26.25 -22.74,22.27 -26.01,33.79 -41.95,63.6z"/>
    <path id="1" class="fil13" d="M3371.08 1387.01l-2.46 35.92c31.82,-3.05 32.85,-10.21 50.81,-27.06 34.09,-31.99 111.04,-96.54 129.81,-130.57l-80.89 53.27c-21.94,15.67 -14.05,10.63 -15.46,13.22 7.35,-29.81 15.01,-34.64 20.3,-64.24 -21.85,12.58 -18.34,11.16 -35.29,29.61 -11.46,12.49 -14.24,15.85 -24.87,26.25 -22.74,22.27 -26.01,33.79 -41.95,63.6z"/>
   </g>
   <g>
    <path class="fil0 str0" d="M2063.6 3072.54c42.42,-10.66 36.09,43.51 25.77,58.88 -43.74,-16.83 11.39,-11.89 -39.87,-24.59l16.93 -22.77c-0.49,-0.57 -2.16,-2.87 -2.54,-3.46 -0.75,-1.17 1.42,-5.83 -0.29,-8.06zm-386.41 -117.95l24.25 7.82c-0.16,23.74 1.48,5.2 -13.05,38.18 18.84,-3.03 41.05,-14.43 41.45,8.62 0.55,31.01 -0.56,8.5 -9.72,24.52l-27.69 -16.58c-1.65,-1.37 -2.96,-3.56 -4.58,-4.91l-19.44 -12.79c-1.6,-0.76 -4.45,-1.56 -5.94,-2.21l-12.07 -5.23c68.66,-31.22 -11.1,-12.71 26.79,-37.42zm216.26 -438.22l-90.91 5.25c-13.82,-91.27 -12.21,-321.49 -4.01,-429.31 139.08,-17.16 107.73,-6.78 107.26,373.55 -0.09,33.6 -11.92,43.28 -12.34,50.51zm103.32 -4.41c-1.69,0.42 -4.35,-0.25 -5.06,1.34l-24.26 -6.45c7.41,-17.94 -1.63,-2.6 8.62,-17.31 11.65,-16.72 5.65,-6.46 11.02,-12.46l21.51 -15.6c-14.54,-23.03 -10.47,4.98 -38.01,-18.36 9.74,-41.36 79.63,-24.2 67.51,31.1 -25.98,13.54 -11.55,15.36 -25.35,-8.49 -1.88,36.84 -6.79,17.47 5.51,41.28l-21.49 4.95zm-276.65 -517.77c17.36,8.92 11.04,9.01 34.8,9.5 -29.37,63.67 -8.51,22 -7.92,69.96 -29.75,8.71 -51.55,10.75 -63.27,-14.77 -17.7,-38.5 11.64,0.19 1.17,-46.74 51.78,1.81 22.78,7.76 35.22,-17.95zm-883.06 -900.09l21.59 50.04 40.51 101.55 -163.09 -71 -121.5 -48.98c-1.31,-0.73 -4.58,-1.11 -5.51,-3.86 -0.94,-2.79 -3.8,-2.53 -5.47,-4.07 -71.64,-8.18 -148.9,-59.66 -240.38,-63.38 28.05,35.13 255.84,180.21 315.06,219.85l327.03 210.79c1.13,0.98 3.35,3 4.85,4.66l-444.52 -14.47c33.07,59.3 624.91,205.83 664.57,223.04l197.13 158.88c173.36,122.64 179.15,66.52 179.15,341.47l-1.28 867.05c-7.76,50.64 -48.61,71.04 -48.5,127.3 53.21,6.57 85.91,-7.9 137.68,-9.75 55.58,-1.97 93.28,15.85 147.1,10.85 1.56,-88.64 -41.85,-16.31 -41.67,-218.76 0.08,-77.34 -6.73,-189.81 2.41,-262.82 189.05,-46.95 28.54,375 160.7,460.99 36.05,23.45 125.43,34.99 176.76,18.97 30.35,-29.74 44.07,-147.22 32.49,-197.11 -43.99,-3.52 -25.64,16.46 -83.62,14.56 -17.54,-97.12 -9.54,-296.8 -32.75,-343.73 -23.67,-47.86 -47,-31.57 -66.49,-66.68 102.92,-94.06 109.31,-25.84 109.25,-300.66 -0.01,-75.38 6.31,-220.62 -11.26,-290.03 -9.59,-37.89 -25.45,-47.47 -34.47,-77.43 44.59,-25.42 112.46,-52.85 117.66,-95.46 -62.5,-9.35 -348.61,152.87 -598.39,22.18 -71.12,-37.21 -347.21,-284.68 -363.26,-348.68 80.42,-8.97 254.17,58.85 332.61,76.48l33.18 12.02 102.46 31.41 129.76 49.6c25.63,4.83 38.19,10.11 60.27,18.23 22.2,8.17 42.26,12.7 61.98,24.37l221.84 84.57 -26.41 -41.29c-19.92,-14.8 -37.66,-31.11 -55.58,-51.64 -56.25,-17.67 -165.65,-86.73 -224.92,-119.23 -72.66,-39.83 -142.9,-78.1 -213.79,-117.82 -96.98,-54.34 -367.14,-192.34 -416.72,-247.61l-90.44 -64.08c-43.43,-18.31 -69.8,-45.12 -109.02,-74.68 -25.62,-19.31 -84.76,-56.98 -99.38,-80.5 -43.45,-16.89 -94.32,-74.68 -143.15,-99.05 -5.04,27.56 52,138.33 65.53,183.91z"/>
    <path id="1" class="fil14" d="M2063.6 3072.54c42.42,-10.66 36.09,43.51 25.77,58.88 -43.74,-16.83 11.39,-11.89 -39.87,-24.59l16.93 -22.77c-0.49,-0.57 -2.16,-2.87 -2.54,-3.46 -0.75,-1.17 1.42,-5.83 -0.29,-8.06zm-386.41 -117.95l24.25 7.82c-0.16,23.74 1.48,5.2 -13.05,38.18 18.84,-3.03 41.05,-14.43 41.45,8.62 0.55,31.01 -0.56,8.5 -9.72,24.52l-27.69 -16.58c-1.65,-1.37 -2.96,-3.56 -4.58,-4.91l-19.44 -12.79c-1.6,-0.76 -4.45,-1.56 -5.94,-2.21l-12.07 -5.23c68.66,-31.22 -11.1,-12.71 26.79,-37.42zm216.26 -438.22l-90.91 5.25c-13.82,-91.27 -12.21,-321.49 -4.01,-429.31 139.08,-17.16 107.73,-6.78 107.26,373.55 -0.09,33.6 -11.92,43.28 -12.34,50.51zm103.32 -4.41c-1.69,0.42 -4.35,-0.25 -5.06,1.34l-24.26 -6.45c7.41,-17.94 -1.63,-2.6 8.62,-17.31 11.65,-16.72 5.65,-6.46 11.02,-12.46l21.51 -15.6c-14.54,-23.03 -10.47,4.98 -38.01,-18.36 9.74,-41.36 79.63,-24.2 67.51,31.1 -25.98,13.54 -11.55,15.36 -25.35,-8.49 -1.88,36.84 -6.79,17.47 5.51,41.28l-21.49 4.95zm-276.65 -517.77c17.36,8.92 11.04,9.01 34.8,9.5 -29.37,63.67 -8.51,22 -7.92,69.96 -29.75,8.71 -51.55,10.75 -63.27,-14.77 -17.7,-38.5 11.64,0.19 1.17,-46.74 51.78,1.81 22.78,7.76 35.22,-17.95zm-883.06 -900.09l21.59 50.04 40.51 101.55 -163.09 -71 -121.5 -48.98c-1.31,-0.73 -4.58,-1.11 -5.51,-3.86 -0.94,-2.79 -3.8,-2.53 -5.47,-4.07 -71.64,-8.18 -148.9,-59.66 -240.38,-63.38 28.05,35.13 255.84,180.21 315.06,219.85l327.03 210.79c1.13,0.98 3.35,3 4.85,4.66l-444.52 -14.47c33.07,59.3 624.91,205.83 664.57,223.04l197.13 158.88c173.36,122.64 179.15,66.52 179.15,341.47l-1.28 867.05c-7.76,50.64 -48.61,71.04 -48.5,127.3 53.21,6.57 85.91,-7.9 137.68,-9.75 55.58,-1.97 93.28,15.85 147.1,10.85 1.56,-88.64 -41.85,-16.31 -41.67,-218.76 0.08,-77.34 -6.73,-189.81 2.41,-262.82 189.05,-46.95 28.54,375 160.7,460.99 36.05,23.45 125.43,34.99 176.76,18.97 30.35,-29.74 44.07,-147.22 32.49,-197.11 -43.99,-3.52 -25.64,16.46 -83.62,14.56 -17.54,-97.12 -9.54,-296.8 -32.75,-343.73 -23.67,-47.86 -47,-31.57 -66.49,-66.68 102.92,-94.06 109.31,-25.84 109.25,-300.66 -0.01,-75.38 6.31,-220.62 -11.26,-290.03 -9.59,-37.89 -25.45,-47.47 -34.47,-77.43 44.59,-25.42 112.46,-52.85 117.66,-95.46 -62.5,-9.35 -348.61,152.87 -598.39,22.18 -71.12,-37.21 -347.21,-284.68 -363.26,-348.68 80.42,-8.97 254.17,58.85 332.61,76.48l33.18 12.02 102.46 31.41 129.76 49.6c25.63,4.83 38.19,10.11 60.27,18.23 22.2,8.17 42.26,12.7 61.98,24.37l221.84 84.57 -26.41 -41.29c-19.92,-14.8 -37.66,-31.11 -55.58,-51.64 -56.25,-17.67 -165.65,-86.73 -224.92,-119.23 -72.66,-39.83 -142.9,-78.1 -213.79,-117.82 -96.98,-54.34 -367.14,-192.34 -416.72,-247.61l-90.44 -64.08c-43.43,-18.31 -69.8,-45.12 -109.02,-74.68 -25.62,-19.31 -84.76,-56.98 -99.38,-80.5 -43.45,-16.89 -94.32,-74.68 -143.15,-99.05 -5.04,27.56 52,138.33 65.53,183.91z"/>
   </g>
   <g>
    <path class="fil0 str0" d="M3124.44 3033.44c0.29,-4.47 2.69,-4.96 3.97,-7.48 1.58,2.52 3.26,5.59 4.38,7.77l10.09 20.92c2.78,5.64 10.29,18.2 12.16,20.87l-24.51 26.99 -39.19 -18.64 30.49 -16.7 2.61 -33.73zm1182.88 -2112.87l-134.92 101.79 -19.68 15.8c-31.2,28.99 -93.84,72.19 -131.78,99.22 -45.63,32.51 -81.83,69.61 -135.68,93.1 -16.49,26.27 -81,59.2 -119.23,75.57 -13.16,16.03 -540.18,308.37 -569.52,313.19 -17.69,20.11 -154.49,94.25 -195.88,120.88 -14.29,20.82 -12.38,24.73 -39.1,38.05 -9.59,28.94 -1.21,13.37 3.72,19.73l202.46 -78.09 114.79 -38.24c22.33,-16.39 42.03,-21.26 73.22,-26.86l98.07 -32.54 112.99 -38.02c95.27,-23.31 232.19,-83.73 334.13,-80.54 -26.79,73.41 -289.56,309.18 -364.15,348.72 -136.85,72.56 -297.33,61.36 -449.91,18.44 -48.37,-13.6 -95.5,-40.49 -150.44,-43.23 15.9,61.59 73.06,68.43 130.42,103.83 -34.75,44.37 -63.33,49.43 -81.18,152.78 -19.04,110.24 -11.31,561.59 -11.32,690.72 0,289.43 -3.85,454.29 285.63,412.79 86.49,-12.4 161.73,16.48 227.46,4.46 3.31,-60.19 -9.79,-134.79 -10.25,-200.11 -1.48,-205.79 15.71,-446.75 11.11,-634.47l-246.88 -18.83c-5.8,61.59 41.37,77.52 49.49,127.89 6.78,42.04 1.34,135.61 1.34,183 0,63.46 12.15,322.36 -9.26,359.52 -30.32,10.17 -74.68,12.28 -103.04,0.83 -23.67,-19.02 -12.37,-583.2 -12.34,-686.06 0.02,-64.57 -18.08,-178.96 9.89,-228.42 28.6,-18.91 105.29,-14.83 145.71,-2.52 51.08,15.55 68.69,49.27 122.94,54.55 22.51,-36.3 22.46,-139.37 28.22,-188.96 139.04,-45.79 254.87,-133.4 351.02,-226.23 48.11,-46.45 52.86,-40.7 133.98,-62.25 118.46,-31.46 525.62,-141.02 586.17,-197.44l-458.26 14.82c55.43,-22.08 625.12,-401 661.86,-439.22 -86.47,4.47 -158.12,45.61 -233.34,61.2l-231.65 100.98 -76.34 28.12 34.21 -82.09 28.83 -60.33c11.07,-67.88 59.39,-131.29 58.5,-167.02 -0.6,-24.28 11.18,-6.48 -6.04,-18.91l-15.97 10.4z"/>
    <path id="1" class="fil14" d="M3124.44 3033.44c0.29,-4.47 2.69,-4.96 3.97,-7.48 1.58,2.52 3.26,5.59 4.38,7.77l10.09 20.92c2.78,5.64 10.29,18.2 12.16,20.87l-24.51 26.99 -39.19 -18.64 30.49 -16.7 2.61 -33.73zm1182.88 -2112.87l-134.92 101.79 -19.68 15.8c-31.2,28.99 -93.84,72.19 -131.78,99.22 -45.63,32.51 -81.83,69.61 -135.68,93.1 -16.49,26.27 -81,59.2 -119.23,75.57 -13.16,16.03 -540.18,308.37 -569.52,313.19 -17.69,20.11 -154.49,94.25 -195.88,120.88 -14.29,20.82 -12.38,24.73 -39.1,38.05 -9.59,28.94 -1.21,13.37 3.72,19.73l202.46 -78.09 114.79 -38.24c22.33,-16.39 42.03,-21.26 73.22,-26.86l98.07 -32.54 112.99 -38.02c95.27,-23.31 232.19,-83.73 334.13,-80.54 -26.79,73.41 -289.56,309.18 -364.15,348.72 -136.85,72.56 -297.33,61.36 -449.91,18.44 -48.37,-13.6 -95.5,-40.49 -150.44,-43.23 15.9,61.59 73.06,68.43 130.42,103.83 -34.75,44.37 -63.33,49.43 -81.18,152.78 -19.04,110.24 -11.31,561.59 -11.32,690.72 0,289.43 -3.85,454.29 285.63,412.79 86.49,-12.4 161.73,16.48 227.46,4.46 3.31,-60.19 -9.79,-134.79 -10.25,-200.11 -1.48,-205.79 15.71,-446.75 11.11,-634.47l-246.88 -18.83c-5.8,61.59 41.37,77.52 49.49,127.89 6.78,42.04 1.34,135.61 1.34,183 0,63.46 12.15,322.36 -9.26,359.52 -30.32,10.17 -74.68,12.28 -103.04,0.83 -23.67,-19.02 -12.37,-583.2 -12.34,-686.06 0.02,-64.57 -18.08,-178.96 9.89,-228.42 28.6,-18.91 105.29,-14.83 145.71,-2.52 51.08,15.55 68.69,49.27 122.94,54.55 22.51,-36.3 22.46,-139.37 28.22,-188.96 139.04,-45.79 254.87,-133.4 351.02,-226.23 48.11,-46.45 52.86,-40.7 133.98,-62.25 118.46,-31.46 525.62,-141.02 586.17,-197.44l-458.26 14.82c55.43,-22.08 625.12,-401 661.86,-439.22 -86.47,4.47 -158.12,45.61 -233.34,61.2l-231.65 100.98 -76.34 28.12 34.21 -82.09 28.83 -60.33c11.07,-67.88 59.39,-131.29 58.5,-167.02 -0.6,-24.28 11.18,-6.48 -6.04,-18.91l-15.97 10.4z"/>
   </g>
   <g>
    <path class="fil0 str0" d="M1212.96 3092.23c13.74,-16.11 -3.02,-2.63 17.99,-14.73 32.48,-18.7 32.11,-17.44 58.1,-18.33 -2.61,71.38 -33.1,50.35 -76.09,33.06zm-126.37 -77.58c-15.31,-57.77 -13.57,-888.5 2.43,-928.37 55.58,-5.77 77.79,-8.11 111.34,15.76 9.94,81.39 8.5,861.57 -4.17,907.12 -30.11,9.03 -72.3,9.23 -109.6,5.49zm-88.42 -963.71c-27.54,-23.91 -6.43,-3.71 -14.85,-26.64 -0.6,-1.61 -8.67,-16.17 -8.86,-19.16l41.08 9.75 -17.37 36.05zm-146.81 1142.85c95.44,8.62 175.16,-18.31 287.26,-4.17 113.1,14.26 186.29,6.54 224.23,-77.92 43.74,-97.39 27.62,-429.83 27.59,-562.32 -0.03,-131.02 15.49,-464.36 -28.28,-561.69 -63.31,-140.81 -224.5,-56.35 -363.64,-70.94 -53.11,-5.57 -88.38,-15.11 -145.74,-9.75 -5.59,56.31 36.68,70.96 46.9,119.73l1.3 1038.49c-8.15,55.81 -50.66,65.82 -49.62,128.57z"/>
    <path id="1" class="fil14" d="M1212.96 3092.23c13.74,-16.11 -3.02,-2.63 17.99,-14.73 32.48,-18.7 32.11,-17.44 58.1,-18.33 -2.61,71.38 -33.1,50.35 -76.09,33.06zm-126.37 -77.58c-15.31,-57.77 -13.57,-888.5 2.43,-928.37 55.58,-5.77 77.79,-8.11 111.34,15.76 9.94,81.39 8.5,861.57 -4.17,907.12 -30.11,9.03 -72.3,9.23 -109.6,5.49zm-88.42 -963.71c-27.54,-23.91 -6.43,-3.71 -14.85,-26.64 -0.6,-1.61 -8.67,-16.17 -8.86,-19.16l41.08 9.75 -17.37 36.05zm-146.81 1142.85c95.44,8.62 175.16,-18.31 287.26,-4.17 113.1,14.26 186.29,6.54 224.23,-77.92 43.74,-97.39 27.62,-429.83 27.59,-562.32 -0.03,-131.02 15.49,-464.36 -28.28,-561.69 -63.31,-140.81 -224.5,-56.35 -363.64,-70.94 -53.11,-5.57 -88.38,-15.11 -145.74,-9.75 -5.59,56.31 36.68,70.96 46.9,119.73l1.3 1038.49c-8.15,55.81 -50.66,65.82 -49.62,128.57z"/>
   </g>
   <g>
    <path class="fil0 str0" d="M3702.46 3066.42c1.21,-1.47 14.06,-6.61 16.73,-7.6 -15.03,-18.67 -16.53,-13.27 -6.86,-38.69 9.01,12.8 3.33,17.46 25.76,30.61 26.24,-27.79 0.35,-23.98 36.04,-37.22l18.15 20.25c-21.07,36.07 1.49,3.66 -26.39,19.64 -50.21,28.78 -4.1,47.37 -69.89,30.42l3.06 -12.58c0.74,-1.14 2.55,-3.79 3.4,-4.83zm276.99 -199.72c-7.77,-25.09 -4,-25.1 13.18,-44.84l11.66 -13.02c37.43,27.45 17.27,-5.62 34.31,41.15 -21.23,6.36 -37.35,15.57 -59.15,16.71zm-94.84 -745.16l55.18 -0.36 21.22 619.42 -42.59 1.59 -17.21 0.55 -45.26 -3.72 28.66 -617.48zm41.88 -94.06c20.87,-16.31 20.72,-6.8 42.54,-17.58l-34.8 -20.07 27.13 -15.31 42.85 65.58 -60.73 -8.51c14.19,40.69 16.06,18.15 -7.36,22.91 -17.69,-17.03 -6.4,3.01 -9.63,-27.02zm-337.43 1167.89c57.04,2.74 87.18,-12.99 140.44,-12.31 56.42,0.72 78.06,16.71 139.43,11.44 3.98,-65.06 -24.52,-73.72 -33.09,-120.88 -7.95,-43.72 -20.38,-136.37 31.74,-146.22l76.88 -0.98c24.57,2.67 -6.35,-2.76 14.77,2.37 43.78,10.63 33.58,105.68 25.95,145.29 -9.19,47.71 -36.7,54.5 -33.46,120.01 59.4,6.53 85.44,-9.87 138.4,-10.96 54.3,-1.12 94.28,22.03 142.89,7.23 0.72,-56.82 -40.05,-75.31 -57.17,-114.02 -18.79,-42.5 -74.31,-898.97 -77.58,-1020.09 -2.3,-84.88 40.78,-79.43 36.76,-150.64 -81.14,-5.94 -150.06,13.2 -224.99,13.08 -77.65,-0.14 -145.27,-20.2 -224.15,-12.56 -2.62,66.13 36.78,69.96 36.77,141.67l-71.97 1017.01c-14.52,46.27 -61.98,60.32 -61.62,130.56z"/>
    <path id="1" class="fil14" d="M3702.46 3066.42c1.21,-1.47 14.06,-6.61 16.73,-7.6 -15.03,-18.67 -16.53,-13.27 -6.86,-38.69 9.01,12.8 3.33,17.46 25.76,30.61 26.24,-27.79 0.35,-23.98 36.04,-37.22l18.15 20.25c-21.07,36.07 1.49,3.66 -26.39,19.64 -50.21,28.78 -4.1,47.37 -69.89,30.42l3.06 -12.58c0.74,-1.14 2.55,-3.79 3.4,-4.83zm276.99 -199.72c-7.77,-25.09 -4,-25.1 13.18,-44.84l11.66 -13.02c37.43,27.45 17.27,-5.62 34.31,41.15 -21.23,6.36 -37.35,15.57 -59.15,16.71zm-94.84 -745.16l55.18 -0.36 21.22 619.42 -42.59 1.59 -17.21 0.55 -45.26 -3.72 28.66 -617.48zm41.88 -94.06c20.87,-16.31 20.72,-6.8 42.54,-17.58l-34.8 -20.07 27.13 -15.31 42.85 65.58 -60.73 -8.51c14.19,40.69 16.06,18.15 -7.36,22.91 -17.69,-17.03 -6.4,3.01 -9.63,-27.02zm-337.43 1167.89c57.04,2.74 87.18,-12.99 140.44,-12.31 56.42,0.72 78.06,16.71 139.43,11.44 3.98,-65.06 -24.52,-73.72 -33.09,-120.88 -7.95,-43.72 -20.38,-136.37 31.74,-146.22l76.88 -0.98c24.57,2.67 -6.35,-2.76 14.77,2.37 43.78,10.63 33.58,105.68 25.95,145.29 -9.19,47.71 -36.7,54.5 -33.46,120.01 59.4,6.53 85.44,-9.87 138.4,-10.96 54.3,-1.12 94.28,22.03 142.89,7.23 0.72,-56.82 -40.05,-75.31 -57.17,-114.02 -18.79,-42.5 -74.31,-898.97 -77.58,-1020.09 -2.3,-84.88 40.78,-79.43 36.76,-150.64 -81.14,-5.94 -150.06,13.2 -224.99,13.08 -77.65,-0.14 -145.27,-20.2 -224.15,-12.56 -2.62,66.13 36.78,69.96 36.77,141.67l-71.97 1017.01c-14.52,46.27 -61.98,60.32 -61.62,130.56z"/>
   </g>
   <g>
    <path class="fil0 str0" d="M2365.45 3058.82c-15.9,-15.15 -22.72,9.41 -10.37,-31.1 9.16,-30.03 4.72,-8.64 17.66,-13.9 1.97,16.26 -34.09,-9.82 8.59,37.78 18.09,-32.58 17.84,-66.3 55.81,-17.83 -24.5,38.41 -7.08,2.66 -39.38,26.03 -30.47,22.05 9.42,7.6 -22.86,28.07 -27.29,17.31 -57.46,-12.54 -9.45,-29.05zm163.12 -937.2l50.26 2.19c14.26,34.65 34.56,561.77 26.4,617.38l-69.41 1.64 -34.93 -4.22 27.68 -616.99zm40.61 -81.68c13.53,-32.7 -2.69,-13.44 44.19,-29.91l-34.33 -20.2c1.55,-1.07 3.86,-2.65 4.64,-3.22l16.73 -13.04c25.95,22.02 -0.37,-3.92 13.47,16.06l33.44 51.06 -54.14 3.86c-5.36,19.34 5.64,-2.52 -5.76,12.57 -16.8,-8.69 -9.74,-3.32 -18.24,-17.18zm-335.69 1154.62c57.32,4.69 84.56,-12.01 139.32,-11.52 53.82,0.47 80.4,16.05 139.99,11.92 4.67,-73.4 -69.31,-162 -21.75,-263.66 20.37,-6.26 35.53,-5.14 61.98,-5.3 19.72,-0.12 57.47,-1.62 67.86,9.38 15.21,26.61 16.74,103.03 9.3,139.08 -10.1,49.01 -36.72,51.08 -32.99,118.04 56.75,10.99 81.64,-8.04 136.09,-9.35 56.4,-1.37 91.85,21.16 144.1,7.93 0.7,-55.05 -41.21,-78.56 -58,-116.11 -16.3,-36.44 -39.07,-446.92 -44.19,-507.4l-32.85 -519.45c-0.55,-73.03 41.61,-80.19 38.78,-138.06 -63.53,-18.62 -151.17,7.7 -219.48,8.53 -77.8,0.94 -153.04,-23.37 -231,-11.17 -2.78,62.77 37.2,68.27 37.8,140.44l-32.82 513.25c-2.85,49.92 -29.91,469.32 -41.08,503.94 -14.56,45.15 -62.45,63.69 -61.06,129.51z"/>
    <path id="1" class="fil14" d="M2365.45 3058.82c-15.9,-15.15 -22.72,9.41 -10.37,-31.1 9.16,-30.03 4.72,-8.64 17.66,-13.9 1.97,16.26 -34.09,-9.82 8.59,37.78 18.09,-32.58 17.84,-66.3 55.81,-17.83 -24.5,38.41 -7.08,2.66 -39.38,26.03 -30.47,22.05 9.42,7.6 -22.86,28.07 -27.29,17.31 -57.46,-12.54 -9.45,-29.05zm163.12 -937.2l50.26 2.19c14.26,34.65 34.56,561.77 26.4,617.38l-69.41 1.64 -34.93 -4.22 27.68 -616.99zm40.61 -81.68c13.53,-32.7 -2.69,-13.44 44.19,-29.91l-34.33 -20.2c1.55,-1.07 3.86,-2.65 4.64,-3.22l16.73 -13.04c25.95,22.02 -0.37,-3.92 13.47,16.06l33.44 51.06 -54.14 3.86c-5.36,19.34 5.64,-2.52 -5.76,12.57 -16.8,-8.69 -9.74,-3.32 -18.24,-17.18zm-335.69 1154.62c57.32,4.69 84.56,-12.01 139.32,-11.52 53.82,0.47 80.4,16.05 139.99,11.92 4.67,-73.4 -69.31,-162 -21.75,-263.66 20.37,-6.26 35.53,-5.14 61.98,-5.3 19.72,-0.12 57.47,-1.62 67.86,9.38 15.21,26.61 16.74,103.03 9.3,139.08 -10.1,49.01 -36.72,51.08 -32.99,118.04 56.75,10.99 81.64,-8.04 136.09,-9.35 56.4,-1.37 91.85,21.16 144.1,7.93 0.7,-55.05 -41.21,-78.56 -58,-116.11 -16.3,-36.44 -39.07,-446.92 -44.19,-507.4l-32.85 -519.45c-0.55,-73.03 41.61,-80.19 38.78,-138.06 -63.53,-18.62 -151.17,7.7 -219.48,8.53 -77.8,0.94 -153.04,-23.37 -231,-11.17 -2.78,62.77 37.2,68.27 37.8,140.44l-32.82 513.25c-2.85,49.92 -29.91,469.32 -41.08,503.94 -14.56,45.15 -62.45,63.69 -61.06,129.51z"/>
   </g>
   <g>
    <path class="fil0 str0" d="M3598.1 676.52c-15.99,-27.31 1.59,-17.34 -23.16,-40.23 -52.97,2.64 -96.38,98.27 -145.67,176.54 -21.42,34.01 -37.94,63.03 -61.16,98.68 -11.79,18.09 -20.65,31.01 -30.05,46.23 -16.3,26.38 -18.33,34.14 -38.18,49.04 2.62,-45.9 24.92,-110.38 0.27,-146.79 -36.03,8.82 -20.71,8.97 -56.94,80.7l-132.4 273.38c-0.93,-1.86 -1.78,-7.06 -1.93,-5.94l-1.13 -108.39c-69.76,0.96 -120.68,271.3 -120.42,276.6 16.24,-34.26 30.07,-93.75 42.47,-132.39 11.83,-36.84 34.14,-101.53 66.57,-124.85 0.71,81.07 -31.35,148.67 -40.31,224.08 30.05,-22.63 86.57,-150.55 106.52,-188.13l91.19 -171.74c9.31,-11.57 4.44,-6.46 14.52,-14.78l-30.88 195.61c27.96,-23.17 52.46,-68.42 73.26,-99.66l205.92 -303.23 -13.74 71.27c33.35,-15.59 48.34,-40.58 77.96,-72.96l225.98 -224.48 14.69 28.34c0.5,1.02 1.47,3.49 2.48,5.1 93.48,-70.7 182.21,-164.48 283.38,-232.17l4.81 17.13c0.33,1.06 1.5,4.22 1.8,5.14 0.32,0.98 1.11,3.74 1.97,5.49 100.51,6.28 162.55,12.04 238.68,57.33 66.07,39.3 124.46,96.55 183.3,124.08 -34.55,-47.57 -170.38,-158.55 -246.99,-186.48 -35.19,-12.83 -83.25,-16.17 -116.01,-31.15 7.99,-22.21 60.14,-86.13 -12.8,-74.71 -43.68,6.83 -221.29,154.76 -254.76,181.39 -82.19,65.38 -12.16,-66.03 -165.51,88.96 -43.19,43.66 -119.67,111.63 -143.73,152.99z"/>
    <path id="1" class="fil14" d="M3598.1 676.52c-15.99,-27.31 1.59,-17.34 -23.16,-40.23 -52.97,2.64 -96.38,98.27 -145.67,176.54 -21.42,34.01 -37.94,63.03 -61.16,98.68 -11.79,18.09 -20.65,31.01 -30.05,46.23 -16.3,26.38 -18.33,34.14 -38.18,49.04 2.62,-45.9 24.92,-110.38 0.27,-146.79 -36.03,8.82 -20.71,8.97 -56.94,80.7l-132.4 273.38c-0.93,-1.86 -1.78,-7.06 -1.93,-5.94l-1.13 -108.39c-69.76,0.96 -120.68,271.3 -120.42,276.6 16.24,-34.26 30.07,-93.75 42.47,-132.39 11.83,-36.84 34.14,-101.53 66.57,-124.85 0.71,81.07 -31.35,148.67 -40.31,224.08 30.05,-22.63 86.57,-150.55 106.52,-188.13l91.19 -171.74c9.31,-11.57 4.44,-6.46 14.52,-14.78l-30.88 195.61c27.96,-23.17 52.46,-68.42 73.26,-99.66l205.92 -303.23 -13.74 71.27c33.35,-15.59 48.34,-40.58 77.96,-72.96l225.98 -224.48 14.69 28.34c0.5,1.02 1.47,3.49 2.48,5.1 93.48,-70.7 182.21,-164.48 283.38,-232.17l4.81 17.13c0.33,1.06 1.5,4.22 1.8,5.14 0.32,0.98 1.11,3.74 1.97,5.49 100.51,6.28 162.55,12.04 238.68,57.33 66.07,39.3 124.46,96.55 183.3,124.08 -34.55,-47.57 -170.38,-158.55 -246.99,-186.48 -35.19,-12.83 -83.25,-16.17 -116.01,-31.15 7.99,-22.21 60.14,-86.13 -12.8,-74.71 -43.68,6.83 -221.29,154.76 -254.76,181.39 -82.19,65.38 -12.16,-66.03 -165.51,88.96 -43.19,43.66 -119.67,111.63 -143.73,152.99z"/>
   </g>
   <g>
    <path class="fil0 str0" d="M944.85 308.51c-105.62,12.88 -153.31,32.8 -222.58,84.4 -21.85,16.28 -150.54,125.45 -156.03,138.42 124.84,-56.3 139.42,-170.43 432.56,-192.18 1.01,-1.74 1.84,-6.89 2.03,-5.65l3.05 -10.58c1.06,-6.03 -2.4,-3.5 0.79,-16.84 46.81,42.17 100.13,75.69 145.08,117.2 41.53,38.35 107.8,83.92 139.02,122.38 14.9,-18.12 7.27,-21.46 18.27,-40.51l308.95 307.33 -23.86 -90.61 206.17 306.52c13.48,20.96 23.16,33.51 34.08,50.34 15.49,23.9 19.69,37.75 44.52,54.67l-32.72 -191.63c15.24,3.73 30.74,36.16 36.74,48.15l187.6 354.33 -48.19 -215.96c1.34,-40.32 -4.79,-15.36 12.14,-35.35 40.19,90.1 64.77,158.38 94.88,258.66 1.36,-11.4 -46.5,-263.85 -116.09,-279.67 -14.26,39.03 -0.48,70.19 0.77,116.03 -62.53,-74.95 -146.03,-342.52 -197.45,-351.95 -22.22,37.55 -0.52,100.03 0.79,144.6 -57.43,-51.53 -209.27,-348.4 -247.33,-364.58 -35.56,-15.11 -36.02,10.47 -54.68,29.6 -38.01,-49.6 -73.94,-78.34 -124.56,-129.07 -142.02,-142.33 -93.11,-80.62 -148.36,-87.1 -34.3,-4.02 -226.69,-213.24 -316.67,-198.89 -16.44,52.45 10.91,34.59 21.08,77.94z"/>
    <path id="1" class="fil14" d="M944.85 308.51c-105.62,12.88 -153.31,32.8 -222.58,84.4 -21.85,16.28 -150.54,125.45 -156.03,138.42 124.84,-56.3 139.42,-170.43 432.56,-192.18 1.01,-1.74 1.84,-6.89 2.03,-5.65l3.05 -10.58c1.06,-6.03 -2.4,-3.5 0.79,-16.84 46.81,42.17 100.13,75.69 145.08,117.2 41.53,38.35 107.8,83.92 139.02,122.38 14.9,-18.12 7.27,-21.46 18.27,-40.51l308.95 307.33 -23.86 -90.61 206.17 306.52c13.48,20.96 23.16,33.51 34.08,50.34 15.49,23.9 19.69,37.75 44.52,54.67l-32.72 -191.63c15.24,3.73 30.74,36.16 36.74,48.15l187.6 354.33 -48.19 -215.96c1.34,-40.32 -4.79,-15.36 12.14,-35.35 40.19,90.1 64.77,158.38 94.88,258.66 1.36,-11.4 -46.5,-263.85 -116.09,-279.67 -14.26,39.03 -0.48,70.19 0.77,116.03 -62.53,-74.95 -146.03,-342.52 -197.45,-351.95 -22.22,37.55 -0.52,100.03 0.79,144.6 -57.43,-51.53 -209.27,-348.4 -247.33,-364.58 -35.56,-15.11 -36.02,10.47 -54.68,29.6 -38.01,-49.6 -73.94,-78.34 -124.56,-129.07 -142.02,-142.33 -93.11,-80.62 -148.36,-87.1 -34.3,-4.02 -226.69,-213.24 -316.67,-198.89 -16.44,52.45 10.91,34.59 21.08,77.94z"/>
   </g>
   <g>
    <path class="fil0 str2" d="M2647.53 946.48c9.26,30.04 16.72,104.98 0,129.6 -28.2,-9.96 -16.43,-28.11 -14.56,-63.37 1.64,-30.88 -5.85,-52.29 14.56,-66.23zm-242.38 259.92l128.51 -1.11 3.43 -77.76c-46.66,11.9 -14.98,20.23 -60.31,25.4l-3.26 -240.82c1.39,-36.11 10.03,-45.54 9.68,-72.23l-74.52 1.29 9.1 179.89c-0.04,73.48 4.65,118.92 -12.63,185.34zm145.58 0.34l81.87 -0.32c-5.51,-30.24 -19.26,-45.11 -2.25,-73.53l25.77 -0.73c14.88,28.98 2.73,44.66 -1.78,74.41l80.36 -0.49c-22.66,-97.39 -15.02,-18.09 -27.28,-159.77 -5.58,-64.42 -3.85,-106.7 -2.85,-164.16l-123.33 -0.51c4.52,63.51 3.2,97.03 -2.75,164.61 -10.65,120.98 -0.48,57.43 -27.76,160.49z"/>
    <path id="1" class="fil14" d="M2647.53 946.48c9.26,30.04 16.72,104.98 0,129.6 -28.2,-9.96 -16.43,-28.11 -14.56,-63.37 1.64,-30.88 -5.85,-52.29 14.56,-66.23zm-242.38 259.92l128.51 -1.11 3.43 -77.76c-46.66,11.9 -14.98,20.23 -60.31,25.4l-3.26 -240.82c1.39,-36.11 10.03,-45.54 9.68,-72.23l-74.52 1.29 9.1 179.89c-0.04,73.48 4.65,118.92 -12.63,185.34zm145.58 0.34l81.87 -0.32c-5.51,-30.24 -19.26,-45.11 -2.25,-73.53l25.77 -0.73c14.88,28.98 2.73,44.66 -1.78,74.41l80.36 -0.49c-22.66,-97.39 -15.02,-18.09 -27.28,-159.77 -5.58,-64.42 -3.85,-106.7 -2.85,-164.16l-123.33 -0.51c4.52,63.51 3.2,97.03 -2.75,164.61 -10.65,120.98 -0.48,57.43 -27.76,160.49z"/>
   </g>
   <g>
    <path class="fil0 str0" d="M3251.43 1390.19l-8.88 44.23 -1.28 37.52c15.83,-1.76 177.67,-96.66 120.78,-230.4l-110.62 148.65z"/>
    <path id="1" class="fil15" d="M3251.43 1390.19l-8.88 44.23 -1.28 37.52c15.83,-1.76 177.67,-96.66 120.78,-230.4l-110.62 148.65z"/>
   </g>
   <g>
    <path class="fil0 str0" d="M3453.79 1622.17c-7.03,18.28 1.13,30.5 -0.51,82.4l-31.27 -4.38 82.58 47.4c40.73,-36.83 63.58,-94.99 62.19,-163.44l-112.99 38.02z"/>
    <path id="1" class="fil16" d="M3453.79 1622.17c-7.03,18.28 1.13,30.5 -0.51,82.4l-31.27 -4.38 82.58 47.4c40.73,-36.83 63.58,-94.99 62.19,-163.44l-112.99 38.02z"/>
   </g>
   <g>
    <path class="fil0 str0" d="M4172.4 1022.36l134.92 -101.79c0.97,-27.66 8.67,-24.05 16.76,-53.36 -26.02,8.41 -103.52,54.71 -120.05,70.55 -1.97,-1.02 -4.56,-5.34 -5.57,-3.64l-26.06 -10.68c-2.37,-0.6 -5.88,-0.84 -7.89,-1.26 -2.08,-0.44 -5.45,-0.89 -8.2,-0.93 0.88,2.27 3.41,2.6 4.13,6.08 3.54,17.09 19.95,8.46 19.51,43.8 -0.34,27.23 -12.88,32.02 -7.55,51.23z"/>
    <path id="1" class="fil17" d="M4172.4 1022.36l134.92 -101.79c0.97,-27.66 8.67,-24.05 16.76,-53.36 -26.02,8.41 -103.52,54.71 -120.05,70.55 -1.97,-1.02 -4.56,-5.34 -5.57,-3.64l-26.06 -10.68c-2.37,-0.6 -5.88,-0.84 -7.89,-1.26 -2.08,-0.44 -5.45,-0.89 -8.2,-0.93 0.88,2.27 3.41,2.6 4.13,6.08 3.54,17.09 19.95,8.46 19.51,43.8 -0.34,27.23 -12.88,32.02 -7.55,51.23z"/>
   </g>
   <path class="fil1" d="M1577.57 1716.15c29.86,-4.62 27.62,3.56 34.44,-26.35 0.64,-2.77 -1.21,-37.79 -2.23,-41.77 -4.98,-19.47 -22.36,-36.68 -35.15,-50.12l-33.18 -12.02c-2.03,60.41 5.7,94.32 36.12,130.26z"/>
   <path class="fil2" d="M1577.57 1716.15l20.14 33.63c29.65,-6.95 58.15,-26.36 75.97,-38.34l3.41 -82.12 -102.46 -31.41c12.79,13.44 30.17,30.65 35.15,50.12 1.02,3.98 2.87,39 2.23,41.77 -6.82,29.91 -4.58,21.73 -34.44,26.35z"/>
   <path class="fil3" d="M1692.66 1251.97c14.8,43.48 42.43,61.77 59.2,97.02 20.38,42.81 41.43,60.19 70.12,87.86l1.72 -58.3c-13.07,-36.65 -79.35,-129.71 -103.58,-151.19l-27.46 24.61z"/>
   <path class="fil3" d="M2961.53 1778.17c26.72,-13.32 24.81,-17.23 39.1,-38.05 5.97,-27.44 12.06,-32.13 25.49,-50.58 9.63,-13.22 17.84,-27.63 25.85,-42.89 23.56,-44.94 30.92,-42.43 45.74,-93 -5.91,-16.93 -0.42,-35.01 -20.83,-53.64 -39.01,37.52 -47.26,149.72 -88.91,211.47 -27.38,40.59 -30.9,19.06 -26.44,66.69z"/>
   <path class="fil3" d="M1983.78 1540.55c17.07,74.64 72.01,103.85 85.17,172.61 17.92,20.53 35.66,36.84 55.58,51.64 -7.39,-72.57 -17.17,-3.47 -63.58,-140.32 -7.48,-22.07 -17.95,-45.32 -27.92,-72.37 -26.7,-72.45 -12.29,-53.8 -37.04,-62.88l-12.21 51.32z"/>
   <path class="fil4" d="M3736.24 1202.36l-18.83 35.09c9.9,5.48 5.05,5.66 20.97,9.06 6.05,1.29 17.22,1.67 23.71,2.11 2.05,75.21 24.88,18.19 3.94,57.43 38.23,-16.37 102.74,-49.3 119.23,-75.57 16.39,-51.69 -9.28,-8.23 3.14,-56.08 4.76,-18.36 13.6,-15.11 25.15,-42.32 -37.39,31.12 -117.37,75.86 -166.87,100.04 -13.87,-14.6 -15.62,25.37 -10.44,-29.76z"/>
   <path class="fil4" d="M1673.68 1711.44l49.04 -24.27c-3.72,41.18 -16.6,78.65 -9.82,117.21l34.77 16.1 25.39 -0.87c-5.41,-18.05 -17.91,-23.37 -17.73,-63.43 0.15,-32.89 7.97,-43.02 9.16,-74.07l42.36 -3.19 -129.76 -49.6 -3.41 82.12z"/>
   <path class="fil5" d="M1601.96 1243.86l13.83 22.61c25.48,16.43 33.59,34.16 59.26,57.38 18.84,17.05 34.12,35.01 50.04,51.96 50.25,53.5 77.69,86.77 123.52,91.35l-18.24 -88.61 -6.67 0 -1.72 58.3c-28.69,-27.67 -49.74,-45.05 -70.12,-87.86 -16.77,-35.25 -44.4,-53.54 -59.2,-97.02 -20.74,-29.31 -105.07,-123.23 -126.03,-137.19 0.69,51.16 40.67,105.07 35.33,129.08z"/>
   <path class="fil5" d="M3362.05 1241.54c56.89,133.74 -104.95,228.64 -120.78,230.4l1.28 -37.52c-17.33,0 -11.96,-3.8 -12.83,14.61l-1.43 41.2c60.43,0.77 46.02,-10.48 79.55,-44.1 21.53,-21.58 36.9,-46.77 63.24,-59.12 15.94,-29.81 19.21,-41.33 41.95,-63.6 10.63,-10.4 13.41,-13.76 24.87,-26.25 16.95,-18.45 13.44,-17.03 35.29,-29.61l0.26 -6.53c9.92,-40.78 31.15,-72.13 35.36,-118.18 -41.52,16.58 -83.14,74.83 -104.07,105.27 -49.25,0.2 -24.89,-22.71 -42.69,-6.57z"/>
   <path class="fil6" d="M1352.4 1125.7c77.69,40.72 203.86,147.79 275.86,190.42 -6.08,-26.74 -9.28,-9.55 -12.47,-49.65l-13.83 -22.61c-51.63,-47.42 -84.89,-78.48 -126.04,-118.98 -30.86,-30.36 -95.77,-100.18 -126.14,-116.87 -31.39,-2.53 -26.03,-3.86 -49.1,-10.74 4.28,34.47 8.45,13.53 29.81,44.67 1.18,1.71 2.26,3.99 3.34,5.77l42.36 65.21c-15.24,17.84 23.09,21.14 -23.79,12.78z"/>
   <path class="fil6" d="M3473.45 1261.02l-0.26 6.53c-5.29,29.6 -12.95,34.43 -20.3,64.24 1.41,-2.59 -6.48,2.45 15.46,-13.22l80.89 -53.27 132.21 -102.66c4.65,-50.81 13.3,-21.09 71.64,-110.22 1.07,-1.63 2.52,-3.56 3.57,-5.21 16.59,-26.09 28.92,-42.1 -2.56,-48.88 -36.69,20.78 -101.57,93.78 -138.71,128.82 -51.23,48.34 -86.86,91.16 -141.94,133.87z"/>
   <path class="fil6" d="M914.68 1009.24c14.62,23.52 73.76,61.19 99.38,80.5 39.22,29.56 65.59,56.37 109.02,74.68 -32.49,-87.25 -5.54,-3.06 -5.63,-68.2 -42.21,-31.46 -149.03,-156.97 -204.07,-167.4l19.69 75.37c-12.5,9.95 3.11,4.87 -18.39,5.05z"/>
   <path class="fil7" d="M603.59 1117.78c1.67,1.54 4.53,1.28 5.47,4.07 0.93,2.75 4.2,3.13 5.51,3.86l121.5 48.98c55.62,13.66 12.14,4.67 29.44,-18.8 -33.36,-14.56 -27.01,-24.22 -49.69,-51.85l-59.72 -55.98c-36.99,-23.16 -87.06,-48.93 -132.22,-75.6 -41.11,-24.28 -97.89,-61.56 -144.27,-75.85 25.31,43.86 224.4,210.61 223.98,221.17z"/>
   <path class="fil7" d="M4436.55 1053.14c-16.6,15.1 -16.77,7.65 -28.71,26.81 -14.56,19.07 -53.83,53.53 -70.67,66.37 -18.18,13.86 -17.81,11.04 -30.01,26.5 -3.17,4.02 -19.41,26.42 -23.03,37.58l231.65 -100.98c-36.73,8.28 -9.41,2.97 -20.06,-2.84 21.27,-12.85 181.55,-155.98 196.54,-189.16 -66.05,14.24 -190.22,110.08 -255.71,135.72z"/>
   <path class="fil7" d="M2850.25 595.13c12.95,17.15 38.28,26.63 54.94,41.76 -11.61,56.06 -63.06,112.08 -67.01,164.3 38.01,-29.43 155.61,-144.07 168.03,-181l-56.6 -32.06 73.73 -165.66c-27.27,5.55 -155.93,142.56 -173.09,172.66z"/>
   <path class="fil7" d="M2149.48 664.46c34.05,-2.97 32.36,-8.32 60.11,-23.09 43.59,41.5 38.82,105.05 92.29,136.13l-36.27 -225.27 -71.69 27.75c-20.91,-48.47 -53.48,-120.2 -88.39,-152.18 0.13,54.02 21.78,195.97 43.95,236.66z"/>
   <path class="fil8" d="M3754.1 998.33c31.48,6.78 19.15,22.79 2.56,48.88 -1.05,1.65 -2.5,3.58 -3.57,5.21 -58.34,89.13 -66.99,59.41 -71.64,110.22 26.04,-8.89 169.46,-92.08 197.35,-133.57l-32.97 4.28c8.23,-35.74 11.81,-34.43 33.88,-58.26 15.17,-16.39 25.21,-25.52 36.18,-38.32 -5.18,-13.86 4.79,-36.46 10.46,-49.95 12.81,-30.47 16.43,-36.84 24.2,-73.25 -49.12,20.67 -71.03,56.01 -103.79,87.7 -26.93,26.06 -73.77,65.84 -92.66,97.06z"/>
   <path class="fil8" d="M1153.38 913.8c13.3,15.57 27.6,25.6 45.5,46.37 19.86,23.05 26.59,25.06 34.77,55.74l-37.3 -2.53 75.24 60.81c23.74,18.59 54.55,37.18 80.81,51.51 46.88,8.36 8.55,5.06 23.79,-12.78l-42.36 -65.21c-1.08,-1.78 -2.16,-4.06 -3.34,-5.77 -21.36,-31.14 -25.53,-10.2 -29.81,-44.67 23.07,6.88 17.71,8.21 49.1,10.74 -16.73,-28.16 -203.02,-210.48 -229.78,-222.18l36.18 91.9c4.05,14.22 3.95,0.56 2.93,18.51 -1.39,24.71 7.39,2.97 -5.73,17.56z"/>
   <path class="fil8" d="M3913.55 1132.08c-11.55,27.21 -20.39,23.96 -25.15,42.32 -12.42,47.85 13.25,4.39 -3.14,56.08 53.85,-23.49 90.05,-60.59 135.68,-93.1 37.94,-27.03 100.58,-70.23 131.78,-99.22l8.7 -78.38c-42.43,3.72 -151.86,98.28 -191.42,129.56 -18.17,14.37 -37.71,30.61 -56.45,42.74z"/>
   <path class="fil8" d="M736.07 1174.69l163.09 71 -40.51 -101.55 1.47 26.88 -201.16 -119.26 -2.86 -3.7 59.72 55.98c22.68,27.63 16.33,37.29 49.69,51.85 -17.3,23.47 26.18,32.46 -29.44,18.8z"/>
   <path class="fil8" d="M4242 1156.43l-34.21 82.09 76.34 -28.12c3.62,-11.16 19.86,-33.56 23.03,-37.58 12.2,-15.46 11.83,-12.64 30.01,-26.5 16.84,-12.84 56.11,-47.3 70.67,-66.37 -32.31,13.28 -56.9,27.09 -83.8,44 -31.87,20.03 -39.01,32.24 -82.04,32.48z"/>
   <path class="fil9" d="M2469.08 517.38l98.1 3.86 1.86 244.14 62.01 -152.22c12.63,-38.58 46.23,-130.6 47.65,-164.92l-98.57 -3.72 -2.58 -257.73c-20.07,21.43 -108.29,290.33 -108.47,330.59z"/>
   <path class="fil9" d="M2787.89 1717.53c-43.3,3.53 -31.68,-16.34 -72.06,-29.76 -0.64,25.56 -7.61,76.91 13.24,88.98 19.1,11.04 74.71,4.88 90.83,-0.97 43.53,-19.04 50.89,-143.14 -2.18,-201.83 -36.3,-40.14 -46.68,-39.67 -39.62,-116.67 39.33,2.94 17.24,10.69 58.34,16.14l5.73 -79.13c-72.58,2.38 -151.4,-38.91 -124.96,144.1 11.51,79.64 93.15,46.43 70.68,179.14zm-554.68 66.3l81.64 -0.61c-11.75,-69.17 -15.62,-109.36 -12.46,-187.32l6.6 12.39c3.56,8.83 4.18,9.27 7.08,19.68 11.26,40.41 4.27,75.96 30.91,101.72 20.45,-18.26 16.59,-24.67 22.35,-61.4 1.54,-9.87 3.48,-26.34 5.9,-36.1l16.77 -37.01c1.28,75.7 -0.98,118.02 -13.38,188.77l81.34 -0.9c-24.17,-94.18 -19.97,-288.79 -3.82,-391.69l-74.97 4.11 -31.72 146.22c-42.26,-79.43 18.17,-174.55 -117.37,-148.23 23.21,100.49 22.4,295.05 1.13,390.37zm345.62 -131.47c-8.93,-12.58 -7.23,4.14 -12.39,-29.59l12.39 -189.43c22.95,9.41 15.57,12.88 16.78,46.39l4.64 126.59c0.42,54.66 4.62,33.82 -21.42,46.04zm-111.54 163.71l99.51 1.97 -11.5 -89.45 52.04 -3.7 -6.26 94.29 97.66 -2.6c-9.08,-40.87 -20.93,-39.31 -26.7,-99.45 -9.06,-94.6 -22.65,-283.27 -7.58,-362.76l-162.23 -0.32c16.14,96.19 1.22,245.97 -7.63,354.74 -5.86,72.08 -16.54,60.82 -27.31,107.28zm87.18 -503.51l42.05 -9.59c0.8,-4.16 2.56,-10.13 3.19,-8.76 0.62,1.34 2.7,-5.12 3.54,-6.69l23.51 -37.69c-48.93,3.42 -51.41,23.63 -72.29,62.73z"/>
   <path class="fil9" d="M782.03 1068.41c27.23,18.63 30.26,31.07 55.03,25.69 -13.53,-45.58 -70.57,-156.35 -65.53,-183.91 -21.37,-24.66 -36.28,-59.61 -51.47,-89.08 -74.6,-38.88 -151.44,-109.36 -221.62,-135.38 16.16,41.59 100.81,143.32 139.43,193.32 51.21,66.29 99.38,129.29 144.16,189.36z"/>
   <path class="fil9" d="M4358.67 836.65c-13.82,24.3 -26.77,43.6 -35.38,73.52 17.22,12.43 5.44,-5.37 6.04,18.91 0.89,35.73 -47.43,99.14 -58.5,167.02l26.97 -12.07c49.17,-78.75 259.61,-321.98 286.66,-384.73 -32.75,6.57 -188.74,115.75 -225.79,137.35z"/>
   <path class="fil9" d="M3915.89 936.77c-10.97,12.8 -21.01,21.93 -36.18,38.32 -22.07,23.83 -25.65,22.52 -33.88,58.26l32.97 -4.28 6.18 -0.57 19.9 -17.04c29.24,-36.2 136.42,-156.75 152.2,-193.46 -45.24,20.34 -101.42,86.25 -141.19,118.77z"/>
   <path class="fil9" d="M1160.63 981.42l35.72 31.96 37.3 2.53c-8.18,-30.68 -14.91,-32.69 -34.77,-55.74 -17.9,-20.77 -32.2,-30.8 -45.5,-46.37 -27.18,-24.68 -83.59,-81.69 -116.12,-96.35 16.7,49.42 93.93,118.9 123.37,163.97z"/>
   <path class="fil10" d="M720.06 821.11c15.19,29.47 30.1,64.42 51.47,89.08 48.83,24.37 99.7,82.16 143.15,99.05 21.5,-0.18 5.89,4.9 18.39,-5.05l-19.69 -75.37c55.04,10.43 161.86,135.94 204.07,167.4 0.09,65.14 -26.86,-19.05 5.63,68.2l90.44 64.08c37.6,9.69 29.88,12.94 73.87,14.76 -3.84,-60.09 -31.18,-62.07 -69.68,-93.32 -32.02,-26 -46.18,-45.29 -78.09,-73.86 -40.67,-36.41 -116.43,-116.56 -154.17,-138.54 6.28,-30.51 7.22,-3.72 16.46,-44.64 -21.34,-15.89 -25.75,-15.22 -34.37,-44.48 -36.71,-29.57 -327.9,-242.8 -362.7,-252.24 11.74,45.39 88,179.15 115.22,224.93z"/>
   <path class="fil10" d="M3961.31 977.62c-12.1,91.09 2.86,70.02 -34.64,118.27 -19.73,25.4 -11.65,-0.98 -13.12,36.19 18.74,-12.13 38.28,-28.37 56.45,-42.74 39.56,-31.28 148.99,-125.84 191.42,-129.56l-8.7 78.38 19.68 -15.8c-5.33,-19.21 7.21,-24 7.55,-51.23 0.44,-35.34 -15.97,-26.71 -19.51,-43.8 -0.72,-3.48 -3.25,-3.81 -4.13,-6.08 2.75,0.04 6.12,0.49 8.2,0.93 2.01,0.42 5.52,0.66 7.89,1.26l26.06 10.68c1.01,-1.7 3.6,2.62 5.57,3.64 16.53,-15.84 94.03,-62.14 120.05,-70.55 -8.09,29.31 -15.79,25.7 -16.76,53.36l15.97 -10.4c8.61,-29.92 21.56,-49.22 35.38,-73.52l119.74 -222.03c-32.87,3.26 -512.65,345.91 -517.1,363z"/>
   <path class="fil10" d="M658.96 1051.76l201.16 119.26 -1.47 -26.88 -21.59 -50.04c-24.77,5.38 -27.8,-7.06 -55.03,-25.69 -26.4,-32.6 -496.68,-403.28 -519.71,-413.14 15.84,30.26 243.95,248.6 298.08,299.39 33.73,31.64 69.05,72.54 98.56,97.1z"/>
   <path class="fil10" d="M4297.8 1084.03l-26.97 12.07 -28.83 60.33c43.03,-0.24 50.17,-12.45 82.04,-32.48 26.9,-16.91 51.49,-30.72 83.8,-44 11.94,-19.16 12.11,-11.71 28.71,-26.81 12.61,-18.51 67.32,-66.78 90.93,-91.14 94.72,-97.67 196.36,-183.42 290.18,-290.61 -24.54,8.61 -494.65,378.51 -519.86,412.64z"/>
   <path class="fil10" d="M1747.67 1820.48c157.75,6.88 143.44,-10.5 171.48,-79.88 8.86,-21.91 -5.09,-1.52 9.95,-19.08 -19.72,-11.67 -39.78,-16.2 -61.98,-24.37 -22.08,-8.12 -34.64,-13.4 -60.27,-18.23l-42.36 3.19c-1.19,31.05 -9.01,41.18 -9.16,74.07 -0.18,40.06 12.32,45.38 17.73,63.43l-25.39 0.87z"/>
   <path class="fil10" d="M3167.71 1719.81c37.77,-0.66 14.23,13.13 32.12,51.13 9.34,19.83 21.2,31.24 46.81,35.18l37.56 0.65c18.62,-28.76 30.76,-10.11 39.22,-100.89l-40.92 -24.31 -114.79 38.24z"/>
   <path class="fil10" d="M3108.09 1550.75c-0.84,43.02 -3.52,12.51 13.67,23.76l70.51 -90.86c46.11,-50.23 32.99,-51.94 47.82,-111.83 -12.18,-12.51 4.64,-4.71 -19.57,-4.06l-112.43 182.99z"/>
   <path class="fil11" d="M3681.45 1162.64l-132.21 102.66c-18.77,34.03 -95.72,98.58 -129.81,130.57 -17.96,16.85 -18.99,24.01 -50.81,27.06l2.46 -35.92c-26.34,12.35 -41.71,37.54 -63.24,59.12 -33.53,33.62 -19.12,44.87 -79.55,44.1l1.43 -41.2c-10.55,14.66 -20,34.76 -22.31,50.21 -7.19,48.01 5.17,30.18 14.81,64.67 -3.54,55.93 -40.65,28.3 -25.71,55.33 29.34,-4.82 556.36,-297.16 569.52,-313.19 20.94,-39.24 -1.89,17.78 -3.94,-57.43 -6.49,-0.44 -17.66,-0.82 -23.71,-2.11 -15.92,-3.4 -11.07,-3.58 -20.97,-9.06l18.83 -35.09c26.51,-30.32 41.27,-63.87 66.99,-93.1 14.47,-16.45 27.71,-29.35 41.87,-42.25 21.47,-19.55 23.76,-10.9 39.88,-38.51l-6.18 0.57c-27.89,41.49 -171.31,124.68 -197.35,133.57z"/>
   <path class="fil11" d="M3355.72 1654.71l23.94 7.76c-1.76,8.83 -5.02,17.9 -3.51,26.98 3.02,18.01 4.04,13.61 9.73,22.52 0.9,-41.52 -1.59,-14.04 8.73,-23.33l27.4 11.55 31.27 4.38c1.64,-51.9 -6.52,-64.12 0.51,-82.4l-98.07 32.54z"/>
   <path class="fil12" d="M2578.83 1652.36c26.05,-12.22 21.84,8.62 21.42,-46.04l-4.64 -126.59c-1.21,-33.51 6.17,-36.98 -16.78,-46.39l-12.39 189.43c5.17,33.73 3.46,17.01 12.39,29.59z"/>
   <path class="fil12" d="M2647.53 946.48c-20.41,13.94 -12.91,35.35 -14.56,66.23 -1.87,35.26 -13.64,53.41 14.56,63.37 16.72,-24.62 9.26,-99.56 0,-129.6z"/>
   <path class="fil13" d="M1213.52 1228.5c49.58,55.27 319.74,193.27 416.72,247.61 70.89,39.72 141.13,77.99 213.79,117.82 59.27,32.5 168.67,101.56 224.92,119.23 -13.16,-68.76 -68.1,-97.97 -85.17,-172.61 -19.52,-15.86 -57.7,-85.73 -76.43,-115.94 -27.67,-44.63 -45.13,-74.02 -75.6,-117.87 -1.1,1.63 -2.1,2.59 -2.31,5.4l-4.48 24.54c-0.06,10.24 3.99,30.07 5.41,41.87l18.24 88.61c-45.83,-4.58 -73.27,-37.85 -123.52,-91.35 -15.92,-16.95 -31.2,-34.91 -50.04,-51.96 -25.67,-23.22 -33.78,-40.95 -59.26,-57.38 3.19,40.1 6.39,22.91 12.47,49.65 -72,-42.63 -198.17,-149.7 -275.86,-190.42 -26.26,-14.33 -57.07,-32.92 -80.81,-51.51l-75.24 -60.81 -35.72 -31.96 -193.09 -133c8.62,29.26 13.03,28.59 34.37,44.48 -9.24,40.92 -10.18,14.13 -16.46,44.64 37.74,21.98 113.5,102.13 154.17,138.54 31.91,28.57 46.07,47.86 78.09,73.86 38.5,31.25 65.84,33.23 69.68,93.32 -43.99,-1.82 -36.27,-5.07 -73.87,-14.76z"/>
   <path class="fil13" d="M3220.52 1367.76c24.21,-0.65 7.39,-8.45 19.57,4.06 -14.83,59.89 -1.71,61.6 -47.82,111.83l-70.51 90.86c-17.19,-11.25 -14.51,19.26 -13.67,-23.76l-10.38 2.9c-14.82,50.57 -22.18,48.06 -45.74,93 -8.01,15.26 -16.22,29.67 -25.85,42.89 -13.43,18.45 -19.52,23.14 -25.49,50.58 41.39,-26.63 178.19,-100.77 195.88,-120.88 -14.94,-27.03 22.17,0.6 25.71,-55.33 -9.64,-34.49 -22,-16.66 -14.81,-64.67 2.31,-15.45 11.76,-35.55 22.31,-50.21 0.87,-18.41 -4.5,-14.61 12.83,-14.61l8.88 -44.23c1.32,-35.74 10.55,-43.92 -2.8,-67.3l-28.11 44.87z"/>
   <path class="fil13" d="M3904.88 1011.46l-19.9 17.04c-16.12,27.61 -18.41,18.96 -39.88,38.51 -14.16,12.9 -27.4,25.8 -41.87,42.25 -25.72,29.23 -40.48,62.78 -66.99,93.1 -5.18,55.13 -3.43,15.16 10.44,29.76 49.5,-24.18 129.48,-68.92 166.87,-100.04 1.47,-37.17 -6.61,-10.79 13.12,-36.19 37.5,-48.25 22.54,-27.18 34.64,-118.27 -31.39,12.84 -30.87,13.82 -56.43,33.84z"/>
   <path class="fil13" d="M3282.5 1681.57l40.92 24.31c-8.46,90.78 -20.6,72.13 -39.22,100.89l-37.56 -0.65c42.84,35.5 107.69,11.94 146.86,-9.18l-7.62 -84.97c-5.69,-8.91 -6.71,-4.51 -9.73,-22.52 -1.51,-9.08 1.75,-18.15 3.51,-26.98l-23.94 -7.76c-31.19,5.6 -50.89,10.47 -73.22,26.86z"/>
   <path class="fil13" d="M3371.08 1387.01l-2.46 35.92c31.82,-3.05 32.85,-10.21 50.81,-27.06 34.09,-31.99 111.04,-96.54 129.81,-130.57l-80.89 53.27c-21.94,15.67 -14.05,10.63 -15.46,13.22 7.35,-29.81 15.01,-34.64 20.3,-64.24 -21.85,12.58 -18.34,11.16 -35.29,29.61 -11.46,12.49 -14.24,15.85 -24.87,26.25 -22.74,22.27 -26.01,33.79 -41.95,63.6z"/>
   <path class="fil14" d="M2063.6 3072.54c42.42,-10.66 36.09,43.51 25.77,58.88 -43.74,-16.83 11.39,-11.89 -39.87,-24.59l16.93 -22.77c-0.49,-0.57 -2.16,-2.87 -2.54,-3.46 -0.75,-1.17 1.42,-5.83 -0.29,-8.06zm-386.41 -117.95l24.25 7.82c-0.16,23.74 1.48,5.2 -13.05,38.18 18.84,-3.03 41.05,-14.43 41.45,8.62 0.55,31.01 -0.56,8.5 -9.72,24.52l-27.69 -16.58c-1.65,-1.37 -2.96,-3.56 -4.58,-4.91l-19.44 -12.79c-1.6,-0.76 -4.45,-1.56 -5.94,-2.21l-12.07 -5.23c68.66,-31.22 -11.1,-12.71 26.79,-37.42zm216.26 -438.22l-90.91 5.25c-13.82,-91.27 -12.21,-321.49 -4.01,-429.31 139.08,-17.16 107.73,-6.78 107.26,373.55 -0.09,33.6 -11.92,43.28 -12.34,50.51zm103.32 -4.41c-1.69,0.42 -4.35,-0.25 -5.06,1.34l-24.26 -6.45c7.41,-17.94 -1.63,-2.6 8.62,-17.31 11.65,-16.72 5.65,-6.46 11.02,-12.46l21.51 -15.6c-14.54,-23.03 -10.47,4.98 -38.01,-18.36 9.74,-41.36 79.63,-24.2 67.51,31.1 -25.98,13.54 -11.55,15.36 -25.35,-8.49 -1.88,36.84 -6.79,17.47 5.51,41.28l-21.49 4.95zm-276.65 -517.77c17.36,8.92 11.04,9.01 34.8,9.5 -29.37,63.67 -8.51,22 -7.92,69.96 -29.75,8.71 -51.55,10.75 -63.27,-14.77 -17.7,-38.5 11.64,0.19 1.17,-46.74 51.78,1.81 22.78,7.76 35.22,-17.95zm-883.06 -900.09l21.59 50.04 40.51 101.55 -163.09 -71 -121.5 -48.98c-1.31,-0.73 -4.58,-1.11 -5.51,-3.86 -0.94,-2.79 -3.8,-2.53 -5.47,-4.07 -71.64,-8.18 -148.9,-59.66 -240.38,-63.38 28.05,35.13 255.84,180.21 315.06,219.85l327.03 210.79c1.13,0.98 3.35,3 4.85,4.66l-444.52 -14.47c33.07,59.3 624.91,205.83 664.57,223.04l197.13 158.88c173.36,122.64 179.15,66.52 179.15,341.47l-1.28 867.05c-7.76,50.64 -48.61,71.04 -48.5,127.3 53.21,6.57 85.91,-7.9 137.68,-9.75 55.58,-1.97 93.28,15.85 147.1,10.85 1.56,-88.64 -41.85,-16.31 -41.67,-218.76 0.08,-77.34 -6.73,-189.81 2.41,-262.82 189.05,-46.95 28.54,375 160.7,460.99 36.05,23.45 125.43,34.99 176.76,18.97 30.35,-29.74 44.07,-147.22 32.49,-197.11 -43.99,-3.52 -25.64,16.46 -83.62,14.56 -17.54,-97.12 -9.54,-296.8 -32.75,-343.73 -23.67,-47.86 -47,-31.57 -66.49,-66.68 102.92,-94.06 109.31,-25.84 109.25,-300.66 -0.01,-75.38 6.31,-220.62 -11.26,-290.03 -9.59,-37.89 -25.45,-47.47 -34.47,-77.43 44.59,-25.42 112.46,-52.85 117.66,-95.46 -62.5,-9.35 -348.61,152.87 -598.39,22.18 -71.12,-37.21 -347.21,-284.68 -363.26,-348.68 80.42,-8.97 254.17,58.85 332.61,76.48l33.18 12.02 102.46 31.41 129.76 49.6c25.63,4.83 38.19,10.11 60.27,18.23 22.2,8.17 42.26,12.7 61.98,24.37l221.84 84.57 -26.41 -41.29c-19.92,-14.8 -37.66,-31.11 -55.58,-51.64 -56.25,-17.67 -165.65,-86.73 -224.92,-119.23 -72.66,-39.83 -142.9,-78.1 -213.79,-117.82 -96.98,-54.34 -367.14,-192.34 -416.72,-247.61l-90.44 -64.08c-43.43,-18.31 -69.8,-45.12 -109.02,-74.68 -25.62,-19.31 -84.76,-56.98 -99.38,-80.5 -43.45,-16.89 -94.32,-74.68 -143.15,-99.05 -5.04,27.56 52,138.33 65.53,183.91z"/>
   <path class="fil14" d="M3124.44 3033.44c0.29,-4.47 2.69,-4.96 3.97,-7.48 1.58,2.52 3.26,5.59 4.38,7.77l10.09 20.92c2.78,5.64 10.29,18.2 12.16,20.87l-24.51 26.99 -39.19 -18.64 30.49 -16.7 2.61 -33.73zm1182.88 -2112.87l-134.92 101.79 -19.68 15.8c-31.2,28.99 -93.84,72.19 -131.78,99.22 -45.63,32.51 -81.83,69.61 -135.68,93.1 -16.49,26.27 -81,59.2 -119.23,75.57 -13.16,16.03 -540.18,308.37 -569.52,313.19 -17.69,20.11 -154.49,94.25 -195.88,120.88 -14.29,20.82 -12.38,24.73 -39.1,38.05 -9.59,28.94 -1.21,13.37 3.72,19.73l202.46 -78.09 114.79 -38.24c22.33,-16.39 42.03,-21.26 73.22,-26.86l98.07 -32.54 112.99 -38.02c95.27,-23.31 232.19,-83.73 334.13,-80.54 -26.79,73.41 -289.56,309.18 -364.15,348.72 -136.85,72.56 -297.33,61.36 -449.91,18.44 -48.37,-13.6 -95.5,-40.49 -150.44,-43.23 15.9,61.59 73.06,68.43 130.42,103.83 -34.75,44.37 -63.33,49.43 -81.18,152.78 -19.04,110.24 -11.31,561.59 -11.32,690.72 0,289.43 -3.85,454.29 285.63,412.79 86.49,-12.4 161.73,16.48 227.46,4.46 3.31,-60.19 -9.79,-134.79 -10.25,-200.11 -1.48,-205.79 15.71,-446.75 11.11,-634.47l-246.88 -18.83c-5.8,61.59 41.37,77.52 49.49,127.89 6.78,42.04 1.34,135.61 1.34,183 0,63.46 12.15,322.36 -9.26,359.52 -30.32,10.17 -74.68,12.28 -103.04,0.83 -23.67,-19.02 -12.37,-583.2 -12.34,-686.06 0.02,-64.57 -18.08,-178.96 9.89,-228.42 28.6,-18.91 105.29,-14.83 145.71,-2.52 51.08,15.55 68.69,49.27 122.94,54.55 22.51,-36.3 22.46,-139.37 28.22,-188.96 139.04,-45.79 254.87,-133.4 351.02,-226.23 48.11,-46.45 52.86,-40.7 133.98,-62.25 118.46,-31.46 525.62,-141.02 586.17,-197.44l-458.26 14.82c55.43,-22.08 625.12,-401 661.86,-439.22 -86.47,4.47 -158.12,45.61 -233.34,61.2l-231.65 100.98 -76.34 28.12 34.21 -82.09 28.83 -60.33c11.07,-67.88 59.39,-131.29 58.5,-167.02 -0.6,-24.28 11.18,-6.48 -6.04,-18.91l-15.97 10.4z"/>
   <path class="fil14" d="M1212.96 3092.23c13.74,-16.11 -3.02,-2.63 17.99,-14.73 32.48,-18.7 32.11,-17.44 58.1,-18.33 -2.61,71.38 -33.1,50.35 -76.09,33.06zm-126.37 -77.58c-15.31,-57.77 -13.57,-888.5 2.43,-928.37 55.58,-5.77 77.79,-8.11 111.34,15.76 9.94,81.39 8.5,861.57 -4.17,907.12 -30.11,9.03 -72.3,9.23 -109.6,5.49zm-88.42 -963.71c-27.54,-23.91 -6.43,-3.71 -14.85,-26.64 -0.6,-1.61 -8.67,-16.17 -8.86,-19.16l41.08 9.75 -17.37 36.05zm-146.81 1142.85c95.44,8.62 175.16,-18.31 287.26,-4.17 113.1,14.26 186.29,6.54 224.23,-77.92 43.74,-97.39 27.62,-429.83 27.59,-562.32 -0.03,-131.02 15.49,-464.36 -28.28,-561.69 -63.31,-140.81 -224.5,-56.35 -363.64,-70.94 -53.11,-5.57 -88.38,-15.11 -145.74,-9.75 -5.59,56.31 36.68,70.96 46.9,119.73l1.3 1038.49c-8.15,55.81 -50.66,65.82 -49.62,128.57z"/>
   <path class="fil14" d="M3702.46 3066.42c1.21,-1.47 14.06,-6.61 16.73,-7.6 -15.03,-18.67 -16.53,-13.27 -6.86,-38.69 9.01,12.8 3.33,17.46 25.76,30.61 26.24,-27.79 0.35,-23.98 36.04,-37.22l18.15 20.25c-21.07,36.07 1.49,3.66 -26.39,19.64 -50.21,28.78 -4.1,47.37 -69.89,30.42l3.06 -12.58c0.74,-1.14 2.55,-3.79 3.4,-4.83zm276.99 -199.72c-7.77,-25.09 -4,-25.1 13.18,-44.84l11.66 -13.02c37.43,27.45 17.27,-5.62 34.31,41.15 -21.23,6.36 -37.35,15.57 -59.15,16.71zm-94.84 -745.16l55.18 -0.36 21.22 619.42 -42.59 1.59 -17.21 0.55 -45.26 -3.72 28.66 -617.48zm41.88 -94.06c20.87,-16.31 20.72,-6.8 42.54,-17.58l-34.8 -20.07 27.13 -15.31 42.85 65.58 -60.73 -8.51c14.19,40.69 16.06,18.15 -7.36,22.91 -17.69,-17.03 -6.4,3.01 -9.63,-27.02zm-337.43 1167.89c57.04,2.74 87.18,-12.99 140.44,-12.31 56.42,0.72 78.06,16.71 139.43,11.44 3.98,-65.06 -24.52,-73.72 -33.09,-120.88 -7.95,-43.72 -20.38,-136.37 31.74,-146.22l76.88 -0.98c24.57,2.67 -6.35,-2.76 14.77,2.37 43.78,10.63 33.58,105.68 25.95,145.29 -9.19,47.71 -36.7,54.5 -33.46,120.01 59.4,6.53 85.44,-9.87 138.4,-10.96 54.3,-1.12 94.28,22.03 142.89,7.23 0.72,-56.82 -40.05,-75.31 -57.17,-114.02 -18.79,-42.5 -74.31,-898.97 -77.58,-1020.09 -2.3,-84.88 40.78,-79.43 36.76,-150.64 -81.14,-5.94 -150.06,13.2 -224.99,13.08 -77.65,-0.14 -145.27,-20.2 -224.15,-12.56 -2.62,66.13 36.78,69.96 36.77,141.67l-71.97 1017.01c-14.52,46.27 -61.98,60.32 -61.62,130.56z"/>
   <path class="fil14" d="M2365.45 3058.82c-15.9,-15.15 -22.72,9.41 -10.37,-31.1 9.16,-30.03 4.72,-8.64 17.66,-13.9 1.97,16.26 -34.09,-9.82 8.59,37.78 18.09,-32.58 17.84,-66.3 55.81,-17.83 -24.5,38.41 -7.08,2.66 -39.38,26.03 -30.47,22.05 9.42,7.6 -22.86,28.07 -27.29,17.31 -57.46,-12.54 -9.45,-29.05zm163.12 -937.2l50.26 2.19c14.26,34.65 34.56,561.77 26.4,617.38l-69.41 1.64 -34.93 -4.22 27.68 -616.99zm40.61 -81.68c13.53,-32.7 -2.69,-13.44 44.19,-29.91l-34.33 -20.2c1.55,-1.07 3.86,-2.65 4.64,-3.22l16.73 -13.04c25.95,22.02 -0.37,-3.92 13.47,16.06l33.44 51.06 -54.14 3.86c-5.36,19.34 5.64,-2.52 -5.76,12.57 -16.8,-8.69 -9.74,-3.32 -18.24,-17.18zm-335.69 1154.62c57.32,4.69 84.56,-12.01 139.32,-11.52 53.82,0.47 80.4,16.05 139.99,11.92 4.67,-73.4 -69.31,-162 -21.75,-263.66 20.37,-6.26 35.53,-5.14 61.98,-5.3 19.72,-0.12 57.47,-1.62 67.86,9.38 15.21,26.61 16.74,103.03 9.3,139.08 -10.1,49.01 -36.72,51.08 -32.99,118.04 56.75,10.99 81.64,-8.04 136.09,-9.35 56.4,-1.37 91.85,21.16 144.1,7.93 0.7,-55.05 -41.21,-78.56 -58,-116.11 -16.3,-36.44 -39.07,-446.92 -44.19,-507.4l-32.85 -519.45c-0.55,-73.03 41.61,-80.19 38.78,-138.06 -63.53,-18.62 -151.17,7.7 -219.48,8.53 -77.8,0.94 -153.04,-23.37 -231,-11.17 -2.78,62.77 37.2,68.27 37.8,140.44l-32.82 513.25c-2.85,49.92 -29.91,469.32 -41.08,503.94 -14.56,45.15 -62.45,63.69 -61.06,129.51z"/>
   <path class="fil14" d="M3598.1 676.52c-15.99,-27.31 1.59,-17.34 -23.16,-40.23 -52.97,2.64 -96.38,98.27 -145.67,176.54 -21.42,34.01 -37.94,63.03 -61.16,98.68 -11.79,18.09 -20.65,31.01 -30.05,46.23 -16.3,26.38 -18.33,34.14 -38.18,49.04 2.62,-45.9 24.92,-110.38 0.27,-146.79 -36.03,8.82 -20.71,8.97 -56.94,80.7l-132.4 273.38c-0.93,-1.86 -1.78,-7.06 -1.93,-5.94l-1.13 -108.39c-69.76,0.96 -120.68,271.3 -120.42,276.6 16.24,-34.26 30.07,-93.75 42.47,-132.39 11.83,-36.84 34.14,-101.53 66.57,-124.85 0.71,81.07 -31.35,148.67 -40.31,224.08 30.05,-22.63 86.57,-150.55 106.52,-188.13l91.19 -171.74c9.31,-11.57 4.44,-6.46 14.52,-14.78l-30.88 195.61c27.96,-23.17 52.46,-68.42 73.26,-99.66l205.92 -303.23 -13.74 71.27c33.35,-15.59 48.34,-40.58 77.96,-72.96l225.98 -224.48 14.69 28.34c0.5,1.02 1.47,3.49 2.48,5.1 93.48,-70.7 182.21,-164.48 283.38,-232.17l4.81 17.13c0.33,1.06 1.5,4.22 1.8,5.14 0.32,0.98 1.11,3.74 1.97,5.49 100.51,6.28 162.55,12.04 238.68,57.33 66.07,39.3 124.46,96.55 183.3,124.08 -34.55,-47.57 -170.38,-158.55 -246.99,-186.48 -35.19,-12.83 -83.25,-16.17 -116.01,-31.15 7.99,-22.21 60.14,-86.13 -12.8,-74.71 -43.68,6.83 -221.29,154.76 -254.76,181.39 -82.19,65.38 -12.16,-66.03 -165.51,88.96 -43.19,43.66 -119.67,111.63 -143.73,152.99z"/>
   <path class="fil14" d="M944.85 308.51c-105.62,12.88 -153.31,32.8 -222.58,84.4 -21.85,16.28 -150.54,125.45 -156.03,138.42 124.84,-56.3 139.42,-170.43 432.56,-192.18 1.01,-1.74 1.84,-6.89 2.03,-5.65l3.05 -10.58c1.06,-6.03 -2.4,-3.5 0.79,-16.84 46.81,42.17 100.13,75.69 145.08,117.2 41.53,38.35 107.8,83.92 139.02,122.38 14.9,-18.12 7.27,-21.46 18.27,-40.51l308.95 307.33 -23.86 -90.61 206.17 306.52c13.48,20.96 23.16,33.51 34.08,50.34 15.49,23.9 19.69,37.75 44.52,54.67l-32.72 -191.63c15.24,3.73 30.74,36.16 36.74,48.15l187.6 354.33 -48.19 -215.96c1.34,-40.32 -4.79,-15.36 12.14,-35.35 40.19,90.1 64.77,158.38 94.88,258.66 1.36,-11.4 -46.5,-263.85 -116.09,-279.67 -14.26,39.03 -0.48,70.19 0.77,116.03 -62.53,-74.95 -146.03,-342.52 -197.45,-351.95 -22.22,37.55 -0.52,100.03 0.79,144.6 -57.43,-51.53 -209.27,-348.4 -247.33,-364.58 -35.56,-15.11 -36.02,10.47 -54.68,29.6 -38.01,-49.6 -73.94,-78.34 -124.56,-129.07 -142.02,-142.33 -93.11,-80.62 -148.36,-87.1 -34.3,-4.02 -226.69,-213.24 -316.67,-198.89 -16.44,52.45 10.91,34.59 21.08,77.94z"/>
   <path class="fil14" d="M2647.53 946.48c9.26,30.04 16.72,104.98 0,129.6 -28.2,-9.96 -16.43,-28.11 -14.56,-63.37 1.64,-30.88 -5.85,-52.29 14.56,-66.23zm-242.38 259.92l128.51 -1.11 3.43 -77.76c-46.66,11.9 -14.98,20.23 -60.31,25.4l-3.26 -240.82c1.39,-36.11 10.03,-45.54 9.68,-72.23l-74.52 1.29 9.1 179.89c-0.04,73.48 4.65,118.92 -12.63,185.34zm145.58 0.34l81.87 -0.32c-5.51,-30.24 -19.26,-45.11 -2.25,-73.53l25.77 -0.73c14.88,28.98 2.73,44.66 -1.78,74.41l80.36 -0.49c-22.66,-97.39 -15.02,-18.09 -27.28,-159.77 -5.58,-64.42 -3.85,-106.7 -2.85,-164.16l-123.33 -0.51c4.52,63.51 3.2,97.03 -2.75,164.61 -10.65,120.98 -0.48,57.43 -27.76,160.49z"/>
   <path class="fil15" d="M3251.43 1390.19l-8.88 44.23 -1.28 37.52c15.83,-1.76 177.67,-96.66 120.78,-230.4l-110.62 148.65z"/>
   <path class="fil16" d="M3453.79 1622.17c-7.03,18.28 1.13,30.5 -0.51,82.4l-31.27 -4.38 82.58 47.4c40.73,-36.83 63.58,-94.99 62.19,-163.44l-112.99 38.02z"/>
   <path class="fil17" d="M4172.4 1022.36l134.92 -101.79c0.97,-27.66 8.67,-24.05 16.76,-53.36 -26.02,8.41 -103.52,54.71 -120.05,70.55 -1.97,-1.02 -4.56,-5.34 -5.57,-3.64l-26.06 -10.68c-2.37,-0.6 -5.88,-0.84 -7.89,-1.26 -2.08,-0.44 -5.45,-0.89 -8.2,-0.93 0.88,2.27 3.41,2.6 4.13,6.08 3.54,17.09 19.95,8.46 19.51,43.8 -0.34,27.23 -12.88,32.02 -7.55,51.23z"/>
  </g>
 </g>
</svg>
