<?xml version="1.0" encoding="UTF-8"?>
<!DOCTYPE svg PUBLIC "-//W3C//DTD SVG 1.1//EN" "http://www.w3.org/Graphics/SVG/1.1/DTD/svg11.dtd">
<!-- Creator: CorelDRAW 2017 -->
<svg xmlns="http://www.w3.org/2000/svg" xml:space="preserve" width="50.7998mm" height="33.8666mm" version="1.1" style="shape-rendering:geometricPrecision; text-rendering:geometricPrecision; image-rendering:optimizeQuality; fill-rule:evenodd; clip-rule:evenodd"
viewBox="0 0 5079.98 3386.66"
 xmlns:xlink="http://www.w3.org/1999/xlink">
 <defs>
  <style type="text/css">
   <![CDATA[
    .str0 {stroke:#030303;stroke-width:23.16;stroke-linecap:round;stroke-linejoin:round;stroke-miterlimit:22.9256}
    .fil0 {fill:none}
    .fil3 {fill:none;fill-rule:nonzero}
    .fil4 {fill:black}
    .fil2 {fill:black;fill-rule:nonzero}
    .fil1 {fill:#2893B2;fill-rule:nonzero}
   ]]>
  </style>
 </defs>
 <g id="Capa_x0020_1">
  <metadata id="CorelCorpID_0Corel-Layer"/>
  <rect class="fil0" x="-0" width="5079.99" height="3386.66"/>
  <g id="_2735375280912">
   <path class="fil1" d="M2638.69 1071.1l82.76 0 -23.99 -85.62c-3.62,-13.19 -6.79,-25.69 -9.48,-37.33 -2.7,-11.64 -5.09,-23.29 -7.26,-34.85 -2.7,14.11 -5.32,26.76 -7.86,38.02 -2.55,11.18 -5.09,20.89 -7.49,29l-26.68 90.78zm-6.56 -196.68l100.35 0 104.66 343.83 -70.73 0 -25.99 -85.15 -122.01 0 -25.14 85.15 -66.64 0 105.5 -343.83zm460.89 119.85c-11.57,-19.13 -24.68,-33.16 -39.33,-42.11 -14.58,-8.94 -31.63,-13.42 -50.98,-13.42 -29.39,0 -51.83,9.64 -67.33,28.85 -15.5,19.2 -23.29,47.12 -23.29,83.68 0,34.4 7.79,61.55 23.29,81.52 15.5,19.97 36.55,29.93 63.24,29.93 20.9,0 39.56,-5.87 55.92,-17.52 16.27,-11.64 29.14,-28.37 38.48,-50.04l0 81.51c-14.19,15.97 -30.54,27.93 -49.21,36.02 -18.73,8.02 -39.48,12.03 -62.39,12.03 -42.57,0 -75.81,-15.65 -99.72,-46.97 -23.84,-31.38 -35.79,-75.12 -35.79,-131.34 0,-58.69 12.04,-103.12 36.01,-133.27 24.07,-30.16 59.4,-45.2 106.06,-45.2 22.44,0 42.33,3.48 59.77,10.41 17.35,6.94 32.47,17.51 45.27,31.7l0 84.22zm115.67 71.57l0 152.41 -67.56 0 0 -343.83 127.17 0c42.73,0 73.44,7.63 92.25,22.83 18.74,15.19 28.15,39.8 28.15,73.81 0,31 -8.63,54.61 -25.99,70.88 -17.35,16.27 -43.58,25.37 -78.6,27.3l113.85 149.01 -85.07 0 -70.96 -97.64c-8.02,-11.18 -14.57,-21.06 -19.82,-29.62 -5.17,-8.64 -9.64,-16.97 -13.42,-25.15zm0 -123.85l0 83.74 54.45 0c20.9,0 36.17,-3.31 45.66,-9.94 9.49,-6.63 14.19,-17.12 14.19,-31.62 0,-14.58 -4.78,-25.22 -14.35,-32.01 -9.56,-6.79 -24.75,-10.17 -45.5,-10.17l-54.45 0zm226.89 276.26l0 -343.83 214.25 0 0 67.57 -147.16 0 0 70.33 147.16 0 0 64.32 -147.16 0 0 77.28 147.16 0 0 64.33 -214.25 0zm271.15 -343.83l118.85 0c22.44,0 39.57,1.08 51.29,3.17 11.8,2.08 22.44,5.54 32.09,10.41 22.13,11.1 38.94,28.45 50.36,51.9 11.49,23.53 17.2,52.59 17.2,87.23 0,60.7 -13.81,107.75 -41.34,141.06 -27.54,33.4 -66.41,50.06 -116.54,50.06l-111.91 0 0 -343.83zm67.1 67.57l0 215.64 47.27 0c30.47,0 53.3,-9.72 68.57,-29.23 15.35,-19.52 22.98,-48.75 22.98,-87.78 0,-35.78 -7.09,-61.15 -21.36,-76.2 -14.26,-14.96 -38.79,-22.43 -73.57,-22.43l-43.89 0zm247.24 276.26l0 -343.83 67.1 0 0 343.83 -67.1 0zm184.17 0l0 -273.95 -87.92 0 0 -69.88 243.4 0 0 69.88 -87.92 0 0 273.95 -67.56 0zm184.62 0l0 -343.83 214.25 0 0 67.57 -147.15 0 0 70.33 147.15 0 0 64.32 -147.15 0 0 77.28 147.15 0 0 64.33 -214.25 0zm271.16 -343.83l118.84 0c22.45,0 39.57,1.08 51.29,3.17 11.8,2.08 22.45,5.54 32.09,10.41 22.13,11.1 38.95,28.45 50.36,51.9 11.49,23.53 17.2,52.59 17.2,87.23 0,60.7 -13.81,107.75 -41.34,141.06 -27.54,33.4 -66.41,50.06 -116.53,50.06l-111.91 0 0 -343.83zm67.09 67.57l0 215.64 47.28 0c30.46,0 53.29,-9.72 68.57,-29.23 15.34,-19.52 22.98,-48.75 22.98,-87.78 0,-35.78 -7.1,-61.15 -21.37,-76.2 -14.26,-14.96 -38.79,-22.43 -73.57,-22.43l-43.89 0z"/>
   <path class="fil2" d="M876.17 2142.17c-39.09,-45.86 -87.22,-81.45 -143.85,-106.52 -56.89,-25.31 -117.55,-37.84 -182.21,-37.84 -45.63,0 -82.46,8.27 -110.29,24.81 -27.82,16.79 -41.85,37.84 -41.85,63.91 0,35.09 48.37,67.42 145.37,96.5 51.88,16.29 94.24,30.07 127.06,41.85 80.46,29.33 140.12,69.17 178.96,119.31 38.85,50.12 58.4,112.53 58.4,186.97 0,106.27 -38.34,192.24 -115.04,258.15 -76.45,65.92 -177.45,98.75 -302.77,98.75 -69.67,0 -133.09,-10.02 -190.23,-29.82 -57.4,-19.81 -107.77,-48.87 -151.38,-87.73l0 -289.98c36.84,50.38 83.96,89.22 141.86,116.8 57.64,27.32 122.3,41.09 193.99,41.09 46.36,0 82.96,-8.01 109.02,-24.05 26.32,-16.29 39.35,-38.35 39.35,-66.16 0,-35.09 -44.11,-66.43 -132.33,-93.75 -23.06,-7.27 -41.11,-13.03 -54.39,-17.54 -127.83,-43.61 -216.05,-90.98 -264.16,-142.11 -48.39,-51.12 -72.44,-119.3 -72.44,-204.02 0,-105.77 37.84,-192.49 113.53,-260.41 75.7,-67.92 173.19,-101.75 292.75,-101.75 73.44,0 140.61,8.76 201.26,26.56 60.65,17.55 113.79,43.86 159.39,78.7l0 308.28zm1385.4 724.84l189.48 -1117.33 175.69 0 -86.71 519.06 437.85 -519.06 210.04 0 -473.7 532.35 340.11 584.98 -205.02 0 -314.55 -572.7 -97.49 572.7 -175.7 0zm792.52 0l189.48 -1117.33 676.07 0 -27.08 163.91 -503.61 0 -52.14 312.79 470.69 0 -27.32 159.41 -470.69 0 -52.63 317.31 454.4 0 -27.07 163.91 -630.1 0zm987.13 0l72.69 -422.07 -207.78 -695.26 192.23 0 129.33 517.56 336.85 -517.56 206.28 0 -484.48 709.8 -68.92 407.53 -176.2 0z"/>
   <path class="fil1" d="M2554.48 1682.32l0 -399 169.79 0c44.22,0 76.18,7.42 95.95,22.38 19.78,14.94 29.62,39.02 29.62,72.22 0,29.18 -7.34,51.83 -22.1,67.94 -14.76,16.19 -36.96,25.69 -66.51,28.46l0 3.4c31.16,2.6 54.52,11.9 70.09,27.83 15.58,15.94 23.36,38.49 23.36,67.67 0,35.98 -11.28,63.19 -33.75,81.54 -22.46,18.35 -55.85,27.56 -100.06,27.56l-166.39 0zm99.35 -160.03l0 73.57 38.76 0c20.58,0 35.44,-2.86 44.39,-8.68 9.04,-5.73 13.51,-15.21 13.51,-28.37 0,-12.97 -4.47,-22.29 -13.33,-28.02 -8.94,-5.64 -23.8,-8.5 -44.57,-8.5l-38.76 0zm30.61 -77.33c22.92,0 39.12,-2.86 48.87,-8.5 9.67,-5.64 14.51,-14.95 14.51,-27.84 0,-12.26 -4.4,-21.03 -13.08,-26.4 -8.77,-5.46 -23,-8.14 -42.69,-8.14l-38.22 0 0 70.88 30.61 0zm303.53 -161.64l0 234.14c0,26.32 4.47,45.56 13.51,57.65 8.94,12.07 23.09,18.07 42.33,18.07 19.78,0 34.19,-6.08 43.32,-18.26 9.04,-12.08 13.6,-31.33 13.6,-57.46l0 -234.14 100.43 0 0 248.28c0,23 -1.25,41.26 -3.67,54.59 -2.41,13.34 -6.53,25.43 -12.35,36.08 -12.53,22.82 -30.52,39.83 -53.88,50.93 -23.36,11.1 -52.81,16.64 -88.52,16.64 -29,0 -54.42,-4.38 -76.35,-13.24 -21.84,-8.78 -39.83,-21.93 -53.97,-39.38 -10.02,-12.09 -17.09,-25.78 -21.3,-41.17 -4.21,-15.4 -6.27,-36.88 -6.27,-64.45l0 -248.28 103.12 0zm256.88 364.54l0 -103.55c13.16,17.99 29.99,31.87 50.67,41.71 20.58,9.76 43.67,14.68 69.27,14.68 16.56,0 29.62,-2.87 38.93,-8.6 9.4,-5.81 14.06,-13.69 14.06,-23.62 0,-12.53 -15.76,-23.72 -47.26,-33.48 -8.23,-2.6 -14.68,-4.65 -19.42,-6.26 -45.65,-15.57 -77.15,-32.5 -94.34,-50.75 -17.28,-18.26 -25.88,-42.6 -25.88,-72.86 0,-37.77 13.52,-68.74 40.56,-92.99 27.03,-24.26 61.85,-36.34 104.53,-36.34 26.23,0 50.22,3.13 71.89,9.48 21.65,6.27 40.63,15.67 56.91,28.11l0 110.1c-13.96,-16.39 -31.14,-29.1 -51.37,-38.04 -20.32,-9.04 -41.98,-13.52 -65.07,-13.52 -16.29,0 -29.45,2.94 -39.38,8.85 -9.94,6 -14.95,13.52 -14.95,22.83 0,12.53 17.27,24.08 51.91,34.46 18.53,5.81 33.65,10.73 45.38,14.94 28.73,10.48 50.04,24.71 63.91,42.61 13.87,17.9 20.85,40.19 20.85,66.77 0,37.95 -13.69,68.65 -41.08,92.18 -27.3,23.55 -63.37,35.27 -108.12,35.27 -24.88,0 -47.53,-3.58 -67.93,-10.65 -20.5,-7.07 -38.49,-17.45 -54.07,-31.33zm303.52 34.46l0 -399 103.12 0 0 399 -103.12 0zm154.23 0l0 -399 142.58 0 66.32 156.27c8.68,20.59 16.47,42.07 23.37,64.35 6.89,22.28 13.06,45.74 18.43,70.35l3.14 0c-2.07,-23.36 -3.67,-45.11 -4.66,-64.97 -1.07,-19.96 -1.61,-38.31 -1.61,-55.05l0 -170.95 93.44 0 0 399 -123.96 0 -90.4 -197.17c-6.62,-14.5 -12.62,-30.08 -18.08,-46.9 -5.37,-16.74 -10.3,-34.73 -14.59,-53.98l-3.93 0c1.25,13.79 2.05,28.38 2.59,43.78 0.54,15.39 0.8,33.2 0.8,53.43l0 200.84 -93.44 0zm392.57 0l0 -399 262.08 0 0 99.35 -169.17 0 0 54.23 169.17 0 0 89.68 -169.17 0 0 60.16 169.17 0 0 95.58 -262.08 0zm305.68 -34.46l0 -103.55c13.15,17.99 29.98,31.87 50.66,41.71 20.58,9.76 43.67,14.68 69.27,14.68 16.56,0 29.62,-2.87 38.94,-8.6 9.39,-5.81 14.05,-13.69 14.05,-23.62 0,-12.53 -15.75,-23.72 -47.26,-33.48 -8.23,-2.6 -14.68,-4.65 -19.42,-6.26 -45.65,-15.57 -77.15,-32.5 -94.34,-50.75 -17.27,-18.26 -25.87,-42.6 -25.87,-72.86 0,-37.77 13.52,-68.74 40.55,-92.99 27.03,-24.26 61.85,-36.34 104.54,-36.34 26.23,0 50.21,3.13 71.88,9.48 21.66,6.27 40.63,15.67 56.92,28.11l0 110.1c-13.96,-16.39 -31.15,-29.1 -51.37,-38.04 -20.33,-9.04 -41.99,-13.52 -65.08,-13.52 -16.29,0 -29.45,2.94 -39.38,8.85 -9.94,6 -14.95,13.52 -14.95,22.83 0,12.53 17.28,24.08 51.92,34.46 18.52,5.81 33.64,10.73 45.37,14.94 28.73,10.48 50.04,24.71 63.91,42.61 13.87,17.9 20.85,40.19 20.85,66.77 0,37.95 -13.69,68.65 -41.08,92.18 -27.3,23.55 -63.37,35.27 -108.12,35.27 -24.88,0 -47.53,-3.58 -67.93,-10.65 -20.5,-7.07 -38.49,-17.45 -54.06,-31.33zm298.68 0l0 -103.55c13.16,17.99 29.98,31.87 50.66,41.71 20.59,9.76 43.68,14.68 69.28,14.68 16.56,0 29.62,-2.87 38.93,-8.6 9.4,-5.81 14.05,-13.69 14.05,-23.62 0,-12.53 -15.75,-23.72 -47.25,-33.48 -8.24,-2.6 -14.68,-4.65 -19.43,-6.26 -45.64,-15.57 -77.15,-32.5 -94.33,-50.75 -17.28,-18.26 -25.87,-42.6 -25.87,-72.86 0,-37.77 13.52,-68.74 40.54,-92.99 27.03,-24.26 61.85,-36.34 104.55,-36.34 26.23,0 50.2,3.13 71.87,9.48 21.66,6.27 40.63,15.67 56.93,28.11l0 110.1c-13.97,-16.39 -31.15,-29.1 -51.38,-38.04 -20.32,-9.04 -41.98,-13.52 -65.07,-13.52 -16.3,0 -29.45,2.94 -39.38,8.85 -9.94,6 -14.96,13.52 -14.96,22.83 0,12.53 17.29,24.08 51.92,34.46 18.53,5.81 33.65,10.73 45.38,14.94 28.74,10.48 50.04,24.71 63.9,42.61 13.88,17.9 20.86,40.19 20.86,66.77 0,37.95 -13.69,68.65 -41.09,92.18 -27.29,23.55 -63.36,35.27 -108.12,35.27 -24.88,0 -47.52,-3.58 -67.92,-10.65 -20.5,-7.07 -38.5,-17.45 -54.07,-31.33z"/>
   <polygon class="fil2" points="980.88,2867.01 980.88,1749.68 1269.61,1749.68 1269.61,2867.01 "/>
   <g>
    <path class="fil3 str0" d="M2056.31 1481.97c-87.14,-11.42 -148.3,-110.23 -117.6,-201.24 7.07,-20.89 29.4,-57.3 42.81,-68.42 46.3,19.9 103.93,58.81 149.13,78.88 8.52,3.79 17.81,5.22 25.59,8.97l-99.93 181.81zm-712.09 958.96c0,-88.22 12.29,-175.19 37.1,-261.16 24.81,-85.97 60.4,-164.67 106.77,-236.1 2.79,-4.35 5.62,-8.64 8.5,-12.87 0.08,-74.64 0.31,-149.3 -0.03,-223.92 -0.34,-74.73 -26.34,-159.51 -43.72,-228.16 -17.5,-69.19 -41.6,-149.25 -47.14,-221.68 -6.52,-84.88 -5.1,-179.47 -7.05,-265.43 -1.05,-45.63 -8.77,-228.78 -3.02,-259.03 11.15,-58.63 66.62,-89.6 119.53,-81.13 20.77,3.32 33.53,13.46 48.55,20.12 20.27,-61.91 32.88,-101.28 86.85,-123.61 41.21,-17.04 88.53,-11.18 123.98,14.95 12.64,9.32 15.73,16.64 26.31,25.66 17.35,-36.28 18.18,-45.94 46.85,-67.49 78.76,-59.2 205.37,5.29 187.05,114.86 -4.08,24.41 -20.38,60.71 -29.39,85.07 -12.37,33.3 -89.58,237.57 -92.9,253.17 60.07,-7.37 89.24,-11.3 149.73,4.39 44.1,11.42 85.62,30.47 120.63,50 70.06,39.01 137.98,82.02 122.73,170.31 -2.24,12.96 -7.8,23.16 -10.06,33.48 26.41,12.88 48.79,14.99 73.11,54.56 42.29,68.85 -2.67,122.86 -33.8,191.3 -47.33,104.07 -90.15,264.59 -177.72,349.4l2.71 2.76c65.92,67.68 98.75,161.66 98.75,281.46 0,87.73 -10.27,173.2 -30.58,256.41 -20.3,83.21 -50.12,162.16 -89.97,237.1 -49.38,92.48 -109.28,162.16 -179.46,209.28 -70.17,46.87 -150.13,70.42 -239.86,70.42 -117.8,0 -209.78,-39.09 -275.7,-117.04 -65.91,-78.2 -98.75,-187.23 -98.75,-327.08zm208.36 -579.32c31.48,-32.45 66.31,-58.91 104.44,-79.35 66.67,-35.84 143.36,-53.63 229.83,-53.63 86.64,0 159.31,18.86 218.01,56.69 46.13,-61.8 96.02,-169.68 117.28,-206.09 32.5,-49.84 66.71,-138.65 99.44,-200.56 28.71,-54.3 -24.58,-112.36 -81.52,-88.56 -23.49,9.8 -30.9,30.42 -43.77,54.25 -23.3,43.23 -46.75,84.01 -70.41,125.9 -31.33,55.47 -40.01,86.4 -121.11,54.44 -47.18,-18.57 -81.28,-52.1 -103.77,-92.59 -41.22,-74.23 -31.36,-161.39 17.43,-230.1 13.57,-19.11 23.49,-40.94 52.4,-45.34 45.91,-7 157.52,86.35 204.7,89.55 58.22,3.96 97.77,-57.44 64.37,-108.74 -9.56,-14.67 -36.84,-31.81 -54.99,-43.11 -94.01,-58.48 -193.48,-97.3 -301.06,-50.82 -28.83,12.46 -52.43,-12.07 -41.49,-41.54l133.38 -359.89c22.03,-59.46 -38.52,-110.1 -90.92,-79.14 -22.73,13.43 -26.23,31.07 -37.37,60.65 -9.15,24.28 -18,46.88 -26.94,71.28 -34.96,95.54 -71.31,191.27 -107.6,287.36 -9.54,25.23 -44.58,131.24 -58.12,140.63 -17,11.79 -56.2,2.84 -38.04,-42.63 45.36,-113.57 90.34,-242.73 134.73,-358.64 9.19,-23.96 23.59,-51.38 14.42,-79.98 -17.75,-55.46 -91.16,-63.38 -122.4,-20.96 -19.32,26.19 -151,429.6 -180.01,511.69 -12.94,36.66 -2.6,138.8 5.81,180.18 10.86,53.37 25.79,106.55 38.76,159.57 6.64,27.17 13.15,51.95 19.65,78.98l18.95 77.38c0.12,-0.34 0.52,1.19 0.85,1.72 -2.46,13.89 3.62,43.34 4.15,60.32 0.63,20.15 1.07,96.4 0.92,171.08zm-98.67 -875.97c-2.27,-61.1 -3.13,-122.42 -4.43,-183.37 -0.59,-28.39 -5.29,-63.24 11.42,-81.4 15.3,-16.63 47.3,-22.03 67.32,-5.02 21.97,18.64 8.07,35.64 -1.74,63.58 -6.38,18.24 -65.89,196.61 -72.57,206.21zm407.63 932.47c-52.39,0 -100.76,13.03 -144.87,39.34 -43.87,26.07 -80.46,63.67 -109.28,112.79 -31.83,53.39 -56.64,112.79 -74.18,178.45 -17.8,65.67 -26.57,131.59 -26.57,197.75 0,87.23 19.3,155.15 58.15,204.27 38.59,48.88 92.48,73.44 161.66,73.44 56.64,0 109.28,-18.3 157.39,-55.14 48.38,-36.59 89.23,-89.48 122.57,-157.9 25.31,-53.89 45.11,-111.29 59.39,-172.44 14.29,-60.91 21.31,-119.31 21.31,-175.19 0,-79.71 -19.3,-140.61 -57.65,-182.46 -38.59,-41.85 -94.48,-62.91 -167.92,-62.91z"/>
    <path id="_1" class="fil4" d="M2056.31 1481.97c-87.14,-11.42 -148.3,-110.23 -117.6,-201.24 7.07,-20.89 29.4,-57.3 42.81,-68.42 46.3,19.9 103.93,58.81 149.13,78.88 8.52,3.79 17.81,5.22 25.59,8.97l-99.93 181.81zm-712.09 958.96c0,-88.22 12.29,-175.19 37.1,-261.16 24.81,-85.97 60.4,-164.67 106.77,-236.1 2.79,-4.35 5.62,-8.64 8.5,-12.87 0.08,-74.64 0.31,-149.3 -0.03,-223.92 -0.34,-74.73 -26.34,-159.51 -43.72,-228.16 -17.5,-69.19 -41.6,-149.25 -47.14,-221.68 -6.52,-84.88 -5.1,-179.47 -7.05,-265.43 -1.05,-45.63 -8.77,-228.78 -3.02,-259.03 11.15,-58.63 66.62,-89.6 119.53,-81.13 20.77,3.32 33.53,13.46 48.55,20.12 20.27,-61.91 32.88,-101.28 86.85,-123.61 41.21,-17.04 88.53,-11.18 123.98,14.95 12.64,9.32 15.73,16.64 26.31,25.66 17.35,-36.28 18.18,-45.94 46.85,-67.49 78.76,-59.2 205.37,5.29 187.05,114.86 -4.08,24.41 -20.38,60.71 -29.39,85.07 -12.37,33.3 -89.58,237.57 -92.9,253.17 60.07,-7.37 89.24,-11.3 149.73,4.39 44.1,11.42 85.62,30.47 120.63,50 70.06,39.01 137.98,82.02 122.73,170.31 -2.24,12.96 -7.8,23.16 -10.06,33.48 26.41,12.88 48.79,14.99 73.11,54.56 42.29,68.85 -2.67,122.86 -33.8,191.3 -47.33,104.07 -90.15,264.59 -177.72,349.4l2.71 2.76c65.92,67.68 98.75,161.66 98.75,281.46 0,87.73 -10.27,173.2 -30.58,256.41 -20.3,83.21 -50.12,162.16 -89.97,237.1 -49.38,92.48 -109.28,162.16 -179.46,209.28 -70.17,46.87 -150.13,70.42 -239.86,70.42 -117.8,0 -209.78,-39.09 -275.7,-117.04 -65.91,-78.2 -98.75,-187.23 -98.75,-327.08zm208.36 -579.32c31.48,-32.45 66.31,-58.91 104.44,-79.35 66.67,-35.84 143.36,-53.63 229.83,-53.63 86.64,0 159.31,18.86 218.01,56.69 46.13,-61.8 96.02,-169.68 117.28,-206.09 32.5,-49.84 66.71,-138.65 99.44,-200.56 28.71,-54.3 -24.58,-112.36 -81.52,-88.56 -23.49,9.8 -30.9,30.42 -43.77,54.25 -23.3,43.23 -46.75,84.01 -70.41,125.9 -31.33,55.47 -40.01,86.4 -121.11,54.44 -47.18,-18.57 -81.28,-52.1 -103.77,-92.59 -41.22,-74.23 -31.36,-161.39 17.43,-230.1 13.57,-19.11 23.49,-40.94 52.4,-45.34 45.91,-7 157.52,86.35 204.7,89.55 58.22,3.96 97.77,-57.44 64.37,-108.74 -9.56,-14.67 -36.84,-31.81 -54.99,-43.11 -94.01,-58.48 -193.48,-97.3 -301.06,-50.82 -28.83,12.46 -52.43,-12.07 -41.49,-41.54l133.38 -359.89c22.03,-59.46 -38.52,-110.1 -90.92,-79.14 -22.73,13.43 -26.23,31.07 -37.37,60.65 -9.15,24.28 -18,46.88 -26.94,71.28 -34.96,95.54 -71.31,191.27 -107.6,287.36 -9.54,25.23 -44.58,131.24 -58.12,140.63 -17,11.79 -56.2,2.84 -38.04,-42.63 45.36,-113.57 90.34,-242.73 134.73,-358.64 9.19,-23.96 23.59,-51.38 14.42,-79.98 -17.75,-55.46 -91.16,-63.38 -122.4,-20.96 -19.32,26.19 -151,429.6 -180.01,511.69 -12.94,36.66 -2.6,138.8 5.81,180.18 10.86,53.37 25.79,106.55 38.76,159.57 6.64,27.17 13.15,51.95 19.65,78.98l18.95 77.38c0.12,-0.34 0.52,1.19 0.85,1.72 -2.46,13.89 3.62,43.34 4.15,60.32 0.63,20.15 1.07,96.4 0.92,171.08zm-98.67 -875.97c-2.27,-61.1 -3.13,-122.42 -4.43,-183.37 -0.59,-28.39 -5.29,-63.24 11.42,-81.4 15.3,-16.63 47.3,-22.03 67.32,-5.02 21.97,18.64 8.07,35.64 -1.74,63.58 -6.38,18.24 -65.89,196.61 -72.57,206.21zm407.63 932.47c-52.39,0 -100.76,13.03 -144.87,39.34 -43.87,26.07 -80.46,63.67 -109.28,112.79 -31.83,53.39 -56.64,112.79 -74.18,178.45 -17.8,65.67 -26.57,131.59 -26.57,197.75 0,87.23 19.3,155.15 58.15,204.27 38.59,48.88 92.48,73.44 161.66,73.44 56.64,0 109.28,-18.3 157.39,-55.14 48.38,-36.59 89.23,-89.48 122.57,-157.9 25.31,-53.89 45.11,-111.29 59.39,-172.44 14.29,-60.91 21.31,-119.31 21.31,-175.19 0,-79.71 -19.3,-140.61 -57.65,-182.46 -38.59,-41.85 -94.48,-62.91 -167.92,-62.91z"/>
   </g>
  </g>
 </g>
</svg>
