<?xml version="1.0" encoding="UTF-8"?>
<!DOCTYPE svg PUBLIC "-//W3C//DTD SVG 1.1//EN" "http://www.w3.org/Graphics/SVG/1.1/DTD/svg11.dtd">
<!-- Creator: CorelDRAW 2017 -->
<svg xmlns="http://www.w3.org/2000/svg" xml:space="preserve" width="50.7998mm" height="33.8666mm" version="1.1" style="shape-rendering:geometricPrecision; text-rendering:geometricPrecision; image-rendering:optimizeQuality; fill-rule:evenodd; clip-rule:evenodd"
viewBox="0 0 5079.98 3386.66"
 xmlns:xlink="http://www.w3.org/1999/xlink">
 <defs>
  <style type="text/css">
   <![CDATA[
    .str0 {stroke:#FEFEFE;stroke-width:20;stroke-miterlimit:22.9256}
    .fil12 {fill:#FEFEFE}
    .fil15 {fill:#435176}
    .fil16 {fill:#9DB9C5}
    .fil14 {fill:#B3B3B3}
    .fil3 {fill:#2B2A29;fill-rule:nonzero}
    .fil13 {fill:#373435;fill-rule:nonzero}
    .fil5 {fill:#9E9E9D;fill-rule:nonzero}
    .fil11 {fill:#D7BE9B;fill-rule:nonzero}
    .fil6 {fill:#E3C3B0;fill-rule:nonzero}
    .fil10 {fill:#E52A32;fill-rule:nonzero}
    .fil4 {fill:#E52D2E;fill-rule:nonzero}
    .fil1 {fill:#E7CBA5;fill-rule:nonzero}
    .fil7 {fill:#EB5F6A;fill-rule:nonzero}
    .fil2 {fill:#F1BC2C;fill-rule:nonzero}
    .fil0 {fill:whitesmoke;fill-rule:nonzero}
    .fil9 {fill:#FDD02C;fill-rule:nonzero}
    .fil8 {fill:#FEFEFE;fill-rule:nonzero}
   ]]>
  </style>
  <clipPath id="id0">
   <rect x="43777.69" y="-16805.15" width="4514" height="4570.41"/>
  </clipPath>
  <clipPath id="id1">
   <rect x="7252.17" y="-28677.08" width="4513.99" height="1544.95"/>
  </clipPath>
 </defs>
<symbol id="Fm92-302-0" viewBox="62426.01 -61933.99 4512.72 4512.72">
 <path class="fil0" d="M62426.01 -59677.63c0,-1246.22 1010.26,-2256.36 2256.36,-2256.36 1246.1,0 2256.36,1010.14 2256.36,2256.36 0,1246.1 -1010.26,2256.36 -2256.36,2256.36 -1246.1,0 -2256.36,-1010.26 -2256.36,-2256.36z"/>
</symbol>
<symbol id="Fm19-132-0" viewBox="63226.76 -186212.01 4512.63 6123.45">
 <path class="fil1" d="M63557.82 -185504.02c0,0 -841.31,1415.21 158.42,2815.67 1000.06,1400.57 3232.81,2599.79 3232.81,2599.79l790.34 -757.64 -2853 -3052.7 -408.22 -2313.11 -920.36 707.99 0.01 0z"/>
</symbol>
<symbol id="Fm37-172-0" viewBox="48273.42 -109850.38 4512.72 3422.24">
 <path class="fil1" d="M48273.42 -109850.37c0,0 876.18,150.18 2112.37,1038.67 1235.95,888.74 2280.42,2010.5 2400.35,2383.56 0,0 -603.06,-674.01 -995.26,-1087.95 -391.96,-413.88 -1983.45,-1630.02 -2661.09,-1930.86 -677.64,-300.53 -856.37,-403.43 -856.37,-403.43l0 0.01z"/>
</symbol>
<symbol id="Fm78-262-0" viewBox="644074.01 -1428397.8 622.54 6129.86">
 <polygon class="fil1" points="644696.55,-1422267.94 644587.08,-1426890.46 644074.01,-1428397.8 "/>
</symbol>
<symbol id="Fm44-188-0" viewBox="70554.9 -148570.31 4512.67 1508.51">
 <path class="fil1" d="M70554.9 -147686.09c0,0 3376.21,869.67 4215.89,556.1 0,0 414.36,-551.85 263.86,-1167.02 -150.84,-614.91 0,0 0,0 0,0 -1071.75,1043.88 -4479.75,610.91l0 0.01z"/>
</symbol>
<symbol id="Fm107-94-0" viewBox="57198.92 -22755.34 4512.72 4512.72">
 <path class="fil0" d="M57198.92 -20498.96c0,-1246.17 1010.21,-2256.38 2256.34,-2256.38 1246.17,0 2256.38,1010.21 2256.38,2256.38 0,1246.13 -1010.21,2256.34 -2256.38,2256.34 -1246.13,0 -2256.34,-1010.21 -2256.34,-2256.34z"/>
</symbol>
<symbol id="Fm42-184-0" viewBox="143995.01 -340644.86 4512.57 5897.06">
 <path class="fil1" d="M143996.99 -340640.9c-54.11,-160.19 994.08,4589.9 4510.59,5893.1 0,0 -3426.91,-2688.05 -4510.59,-5893.1z"/>
</symbol>
<symbol id="Fm39-176-0" viewBox="93149.81 -193271.86 4512.72 498.14">
 <path class="fil1" d="M93149.81 -192894.49c0,0 498.12,-291.43 1708.66,-369.93 1210.44,-78.5 2804.06,490.7 2804.06,490.7 0,0 -2190.78,-392.82 -4512.72,-120.77z"/>
</symbol>
<symbol id="Fm73-252-0" viewBox="221810.04 -410112.65 4289.11 6129.86">
 <path class="fil1" d="M223378.35 -410112.65c0,0 399.48,4874.17 -1568.31,6129.86 0,0 1000.07,-650.62 1787.83,-2235.6 788.51,-1585.73 1218.6,-2566.64 2240.58,-2375.98 1022.97,191.4 -1209.89,-1123.03 -2460.11,-1518.28l0.01 0z"/>
</symbol>
<symbol id="Fm64-232-0" viewBox="142275.18 -441054.37 4512.72 2140.55">
 <path class="fil1" d="M142275.18 -438913.82c0,0 34.83,-15.01 99.67,-39.92 599.41,-239.82 3713.98,-1448.27 4413.05,-971.74l-1686.11 -1128.89 -2826.61 2140.55z"/>
</symbol>
<symbol id="Fm24-144-0" viewBox="117702.25 -330771.79 4512.72 1845.68">
 <path class="fil1" d="M117702.25 -328926.11c0,0 2646.39,-1774.78 4512.72,-277.13 0,0 -793.68,-1915.51 -2241.49,-1512.94 -1447.14,402.74 -2271.23,1790.07 -2271.23,1790.07z"/>
</symbol>
<symbol id="Fm104-88-0" viewBox="62441.28 -20859.56 4512.72 4512.72">
 <path class="fil0" d="M62441.28 -18603.2c0,-1246.1 1010.14,-2256.36 2256.36,-2256.36 1246.1,0 2256.36,1010.26 2256.36,2256.36 0,1246.1 -1010.26,2256.36 -2256.36,2256.36 -1246.22,0 -2256.36,-1010.26 -2256.36,-2256.36z"/>
</symbol>
<symbol id="Fm84-276-0" viewBox="125408.17 -263026.54 3638.56 6129.86">
 <path class="fil1" d="M129046.73 -263026.54c0,0 -2388.1,4828.26 -3638.56,6129.86l936.58 -324.71c0,0 1409.38,-926.81 1491.21,-912.92 81.83,14.66 435.7,-3196.3 1210.77,-4892.22l0 -0.01z"/>
</symbol>
<symbol id="Fm15-124-0" viewBox="44427.17 -66224.87 4512.72 4512.76">
 <path class="fil0" d="M48939.89 -63968.49c0,1246.11 -1010.23,2256.38 -2256.34,2256.38 -1246.11,0 -2256.38,-1010.27 -2256.38,-2256.38 0,-1246.11 1010.27,-2256.38 2256.38,-2256.38 1246.11,0 2256.34,1010.27 2256.34,2256.38z"/>
</symbol>
<symbol id="Fm55-212-0" viewBox="345938.28 -1015119.01 4512.69 3073.88">
 <path class="fil1" d="M345975.19 -1012045.13l3687.25 -424.84 788.53 -2390.44 -456.05 -258.6 -2554.77 1491.71c0,0 -1777.7,795.54 -1464.96,1582.16l0 0.01z"/>
</symbol>
<symbol id="Fm96-310-0" viewBox="50524.35 -72496.74 4512.72 4512.72">
 <path class="fil0" d="M50524.35 -70240.38c0,-1246.19 1010.26,-2256.36 2256.36,-2256.36 1246.1,0 2256.36,1010.17 2256.36,2256.36 0,1246.1 -1010.26,2256.36 -2256.36,2256.36 -1246.1,0 -2256.36,-1010.26 -2256.36,-2256.36z"/>
</symbol>
<symbol id="Fm1-76-0" viewBox="23911.41 -17868.24 4512.72 4512.72">
 <path class="fil0" d="M28424.13 -15611.89c0,1246.11 -1010.26,2256.37 -2256.37,2256.37 -1246.11,0 -2256.35,-1010.26 -2256.35,-2256.37 0,-1246.11 1010.23,-2256.35 2256.35,-2256.35 1246.11,0 2256.37,1010.23 2256.37,2256.35z"/>
</symbol>
<symbol id="Fm95-308-0" viewBox="57180.43 -72507.6 4512.72 4512.72">
 <path class="fil0" d="M57180.43 -70251.26c0,-1246.13 1010.21,-2256.34 2256.34,-2256.34 1246.17,0 2256.38,1010.21 2256.38,2256.34 0,1246.17 -1010.21,2256.38 -2256.38,2256.38 -1246.13,0 -2256.34,-1010.21 -2256.34,-2256.38z"/>
</symbol>
<symbol id="Fm90-290-0" viewBox="94170.16 -221394.05 4512.72 841.19">
 <path class="fil1" d="M94170.16 -220552.86c0,0 3810.91,-108.89 4512.72,-841.19 0,0 -1092.3,583.74 -4478.1,642l-34.62 199.19z"/>
</symbol>
<symbol id="Fm63-230-0" viewBox="126522.31 -393358.82 1215.82 6129.7">
 <path class="fil1" d="M127738.13 -392878.42c0,0 -652.38,5106.19 -974.96,5568.19 -322.58,462.75 -227.9,-1205.59 -227.9,-1205.59l4.47 -3870.03 327.8 -972.97 870.58 480.4 0.01 0z"/>
</symbol>
<symbol id="Fm74-254-0" viewBox="101744.17 -191005.36 4512.72 2645.3">
 <path class="fil1" d="M101817.82 -188360.08c0,0 1347.47,6.88 1492,-299.04 144.88,-306.38 1185.62,-1735.64 1876.39,-1599.26 690.31,135.93 1070.68,-78.12 1070.68,-78.12l-355.25 -450.34 -1248.82 -218.52 -1617.04 1479.39 -1291.61 403.89 73.64 762 0.01 0z"/>
</symbol>
<symbol id="Fm16-126-0" viewBox="62345.27 -178870.77 4512.72 4512.46">
 <path class="fil0" d="M66857.99 -176614.54c0,1246.26 -1010.33,2256.23 -2256.23,2256.23 -1246.26,0 -2256.49,-1009.97 -2256.49,-2256.23 0,-1246.26 1010.24,-2256.23 2256.49,-2256.23 1245.9,0 2256.23,1009.97 2256.23,2256.23z"/>
</symbol>
<symbol id="Fm85-278-0" viewBox="66403.56 -153405.73 4512.72 3582.16">
 <path class="fil1" d="M66403.56 -149823.57l620.91 -1391.5 2555.5 -1844.27 1336.31 -346.39 -159.88 913.47c0,0 -3056.4,1244.38 -4352.84,2668.69z"/>
</symbol>
<symbol id="Fm67-238-0" viewBox="301599.29 -558319.5 1070.5 6129.86">
 <polygon class="fil1" points="301599.29,-558319.5 302153.31,-554906.48 301630.33,-552975.07 302495.46,-552189.64 302669.79,-554959.36 "/>
</symbol>
<symbol id="Fm82-272-0" viewBox="144007.66 -324742.2 4512.72 600.69">
 <path class="fil1" d="M144512.98 -324720.59c0,0 1784.13,556.01 4007.4,339.31 0,0 -3143.07,682.24 -4512.72,-254.96l18.94 -105.96 486.39 21.61 -0.01 0z"/>
</symbol>
<symbol id="Fm26-148-0" viewBox="241613.18 -665496.96 4512.58 5719.68">
 <path class="fil1" d="M241613.18 -664403.82c0,0 3579.57,2299.04 3999.47,4626.54 0,0 1161.84,-3306.81 -11.1,-5719.68l-3988.36 1093.13 -0.01 0.01z"/>
</symbol>
<symbol id="Fm86-280-0" viewBox="94800.64 -206843.84 2931.8 6129.86">
 <path class="fil1" d="M94800.64 -202432.78l294.4 1718.8c0,0 903.61,-3791.42 2637.4,-6129.86l-933.6 419.65 -1998.2 3991.41z"/>
</symbol>
<symbol id="Fm56-214-0" viewBox="50057.9 -158090.57 4512.64 4582.77">
 <path class="fil1" d="M50057.9 -153541.62c0,0 424.9,-58.19 1111.85,-711.18 686.95,-653.28 939.86,-1209.95 939.86,-1209.95l996.96 -1334.67c0,0 1287.8,-1084.54 1425.43,-1247.39 137.63,-163.25 -137.63,162.85 -137.63,162.85l-170.3 315.27c0,0 -617.54,364.72 -1138.16,1037.97 -520.13,672.95 -1394.15,1853.11 -1394.15,1853.11 0,0 -957.44,1400.9 -1633.86,1133.99z"/>
</symbol>
<symbol id="Fm79-264-0" viewBox="149062.19 -314615.1 4512.72 1841.25">
 <path class="fil1" d="M149062.19 -312773.86c0,0 2434.5,-1419.65 3731.38,-1766.63l781.34 -74.61c0,0 -2028.6,588.33 -4512.72,1841.25l0 -0.01z"/>
</symbol>
<symbol id="Fm60-224-0" viewBox="438578.09 -1430893 2531.81 6129.86">
 <path class="fil1" d="M440111.7 -1430893c0,0 -2222.36,4935.65 998.2,4840.37l-786.76 1289.49c0,0 -1748.67,-1068.98 -1745.04,-1987.33 0,-921.97 1533.6,-4142.53 1533.6,-4142.53z"/>
</symbol>
<symbol id="Fm97-312-0" viewBox="79414.85 -101162.93 4512.72 4512.68">
 <path class="fil0" d="M79414.85 -98906.61c0,-1246.1 1010.26,-2256.32 2256.36,-2256.32 1246.1,0 2256.36,1010.22 2256.36,2256.32 0,1246.14 -1010.26,2256.36 -2256.36,2256.36 -1246.1,0 -2256.36,-1010.22 -2256.36,-2256.36z"/>
</symbol>
<symbol id="Fm83-274-0" viewBox="172310.74 -378704.56 4479.86 6129.86">
 <path class="fil1" d="M172310.74 -378704.56c0,0 2381.01,4238.92 4225.62,5250.78l254.24 879.08 -187.74 -33.03c0,0 -3251.45,-2889.27 -4292.12,-6096.83z"/>
</symbol>
<symbol id="Fm93-304-0" viewBox="50524.35 -60843.02 4512.72 4512.72">
 <path class="fil0" d="M50524.35 -58586.66c0,-1246.19 1010.26,-2256.36 2256.36,-2256.36 1246.1,0 2256.36,1010.17 2256.36,2256.36 0,1246.1 -1010.26,2256.36 -2256.36,2256.36 -1246.1,0 -2256.36,-1010.26 -2256.36,-2256.36z"/>
</symbol>
<symbol id="Fm12-118-0" viewBox="34022.54 -71620.56 4512.72 4512.69">
 <path class="fil0" d="M38535.26 -69364.2c0,1246.12 -1010.24,2256.33 -2256.36,2256.33 -1246.16,0 -2256.36,-1010.2 -2256.36,-2256.33 0,-1246.16 1010.2,-2256.36 2256.36,-2256.36 1246.12,0 2256.36,1010.2 2256.36,2256.36z"/>
</symbol>
<symbol id="Fm25-146-0" viewBox="304828.63 -556846.77 4512.72 3149.71">
 <path class="fil1" d="M309341.35 -553697.06c-1196.79,-1432.21 -4512.72,-3149.71 -4512.72,-3149.71l4512.72 3149.71z"/>
</symbol>
<symbol id="Fm70-246-0" viewBox="134333.39 -258783 4512.56 4004.24">
 <path class="fil1" d="M138093.7 -258783c0,0 -3322.6,915.96 -3760.31,4004.24 0,0 1796.98,-2268.42 3178.44,-2927.34 1380.76,-659.1 1333.93,-744.72 1333.93,-744.72l-752.06 -332.17 0 -0.01z"/>
</symbol>
<symbol id="Fm98-314-0" viewBox="70765.54 -112820.73 4512.72 4512.68">
 <path class="fil0" d="M70765.54 -110564.37c0,-1246.1 1010.26,-2256.36 2256.36,-2256.36 1246.1,0 2256.36,1010.26 2256.36,2256.36 0,1246.1 -1010.26,2256.32 -2256.36,2256.32 -1246.1,0 -2256.36,-1010.22 -2256.36,-2256.32z"/>
</symbol>
<symbol id="Fm38-174-0" viewBox="190565.61 -423693.01 4512.72 5683.1">
 <path class="fil1" d="M195078.33 -423693.01c0,0 -2524.74,4209.29 -4512.72,4710.32 0,0 264.23,677.65 673.5,972.78 0,0 -207.51,-260.31 -48.88,-700.24 0,0 1038.03,-407.42 1400.71,-744.28 362,-337.55 1876.61,-2023.02 2487.39,-4238.57l0 -0.01z"/>
</symbol>
<symbol id="Fm34-166-0" viewBox="94362.25 -256265.35 4512.61 5999.04">
 <path class="fil1" d="M94362.25 -256265.35c0,0 471.64,1415.56 770.87,2741.09 199.1,882.24 321.71,1724.25 177.9,2082.86 0,0 785.81,-424.39 1796.79,-140.99 1010.97,283.78 1552.6,1316.08 1552.6,1316.08 109.96,-499.74 214.43,-2496.52 214.43,-2496.52 4.47,-550.57 -1007.91,-575.73 -1415.18,-957.33 -407.28,-381.6 -2117.09,232.82 -2117.09,232.82l-980.32 -2778 0 -0.01z"/>
</symbol>
<symbol id="Fm53-208-0" viewBox="306980.78 -629204.68 4512.45 6000.86">
 <path class="fil2" d="M309640.63 -628537.97c0,0 -611.43,4244.17 -1996.03,4992.68 -1384.97,747.02 -172.93,35.48 -172.93,35.48 0,0 3195.36,-1091.02 3676.44,-2326.95l345.12 -3106.84 -52.66 -261.08c0,0 -1379.36,150.15 -1799.93,666.71l-0.01 0z"/>
</symbol>
<symbol id="Fm69-242-0" viewBox="471060.32 -859168.35 2370.26 6129.86">
 <polygon class="fil1" points="471060.32,-859168.35 472349.02,-854317.18 472770.34,-853038.49 473430.58,-856411.47 "/>
</symbol>
<symbol id="Fm43-186-0" viewBox="113576.19 -240847.05 4512.72 1123.74">
 <path class="fil1" d="M114633.86 -240847.05c0,0 2201.95,295.23 3455.05,1123.74l-782.01 -66.49c0,0 -1532.09,-776.18 -2411.12,-492.61l-1319.59 181.14 1057.67 -745.78z"/>
</symbol>
<symbol id="Fm9-288-0" viewBox="12181.4 -58039.56 4512.72 4512.74">
 <path class="fil0" d="M16694.12 -55783.19c0,1246.23 -1010.23,2256.37 -2256.35,2256.37 -1246.11,0 -2256.37,-1010.15 -2256.37,-2256.37 0,-1246.11 1010.26,-2256.37 2256.37,-2256.37 1246.11,0 2256.35,1010.26 2256.35,2256.37z"/>
</symbol>
<symbol id="Fm49-198-0" viewBox="67042.29 -163680.2 4512.72 4675.11">
 <path class="fil2" d="M67042.29 -163680.19c0,0 1153.07,2162.45 1951.58,2989.72 0,0 1897.2,1389.38 2561.14,1685.38l-836.66 -585.93 -1204.6 -1008.44c0,0 -1194.16,-1066.61 -1379.32,-1546.35l-1092.14 -1534.39 0 0.01z"/>
</symbol>
<symbol id="Fm30-158-0" viewBox="117924.54 -326675.03 1518.22 6129.86">
 <path class="fil1" d="M117946.47 -326675.03c0,0 -140.61,3611.17 290.28,4646.34 430.57,1035.67 198.74,1483.52 198.74,1483.52 0,0 450.16,-881.72 994.34,-1274.41 0,0 116.24,94.02 -348.41,-707.51 -464.65,-801.04 -430.4,-1871.44 -430.4,-1871.44 0,0 -379.85,-1957.56 -704.55,-2276.49l0 -0.01z"/>
</symbol>
<symbol id="Fm48-196-0" viewBox="66350.18 -161888.42 4512.72 4294.09">
 <path class="fil2" d="M66850.56 -161888.42l380.24 493.44 781.46 1620.88c0,0 567.88,1000.56 1553.55,1503.55 985.95,503.46 1297.09,676.22 1297.09,676.22 0,0 -1826.31,-425.84 -2582.39,-1327.52 -756.46,-901.78 -1930.33,-2823.59 -1930.33,-2823.59l500.37 -142.98 0.01 0z"/>
</symbol>
<symbol id="Fm77-260-0" viewBox="232747.57 -530949.78 1052.34 6129.86">
 <path class="fil1" d="M233799.91 -529982.65c0,0 -103.14,3347.45 -1052.34,5162.73 0,0 1035.59,-3068.22 901.66,-6129.86l150.68 967.13z"/>
</symbol>
<symbol id="Fm100-80-0" viewBox="32227.67 -33287.64 4512.73 2273.01">
 <path class="fil3" d="M36203.72 -31419.08c-30.11,115.02 -58.69,230.41 -91.58,344.61 -6.33,21.85 -29.07,54.92 -45.3,55.53 -121.79,4.69 -243.79,2.56 -386.02,2.56 63.98,-356.69 67.59,-704.14 -0.88,-1057.67l187.18 0 196.12 196.12 -29.71 312.85c7.26,1.97 14.53,3.89 21.75,5.85 6.55,-17.42 14.81,-34.43 19.28,-52.4 17.07,-67.95 34.23,-135.87 51.11,-203.88l532.67 532.67c-72.98,65.94 -60.2,152.97 32.12,194.66 18.91,8.52 33.38,27 49.94,40.87 -21.75,10.38 -43.17,28.84 -65.18,29.66 -91.96,3.39 -184.25,-1.8 -276.1,2.68 -57.11,2.85 -84.15,-11.8 -96.06,-72.72 -21.85,-111.75 -54.75,-221.3 -83.05,-331.84 -5.47,0.17 -10.87,0.28 -16.28,0.45l-0.01 0z"/>
 <path class="fil3" d="M34176.45 -32192.5c17.16,-138.73 33.72,-272.38 50.28,-405.97 -119.08,110.37 -172.4,240.31 -136.11,404.22l-376.81 0c0.93,-81.04 -33.01,-164.19 50.43,-238.94 45.95,-41.09 70.77,-105.83 115.9,-139.71 50.32,-23.39 108.73,-38.09 147.53,-73.99 18.46,-17.05 14.53,-89.23 -6.01,-110.26 -31.32,-32.08 -85.84,-41.37 -130.54,-60.37 -5.25,8.09 -10.55,16.17 -15.8,24.21 -41.9,-80.99 -70.86,-173.27 -129.05,-240.04 -68.35,-78.51 -60.65,-158.94 -57.48,-252.43l395.86 0c-25.94,162.44 30.87,303.53 142.77,432.15 -16.28,-142.62 -32.56,-285.18 -49.5,-433.9l434.01 0c-58.62,363.08 -70.64,726.39 5.79,1095.05l-441.27 0 0 -0.02z"/>
 <path class="fil3" d="M35567.65 -32373.52c9.28,57.4 22.66,115.58 34.76,180.09l-361.06 0 25.11 -481.28 301.19 301.19z"/>
 <path class="fil3" d="M33092.31 -33286.93c34.69,261.4 53.5,321.28 152.24,437.34 -5.14,-72.29 -7.65,-144.91 -16.19,-216.76 -8.57,-71.74 -23.16,-142.71 -36.34,-221.29l440.19 0c-62.39,362.65 -75.46,725.56 6.57,1094.44l-449.05 0c18.8,-105.79 35.3,-206.65 56.29,-306.54 2.9,-13.49 29.01,-21.79 43.82,-33.16 52.46,-40.16 64.7,-92.17 29.94,-146.71 -34.59,-54.26 -88.46,-70.06 -144.96,-35.19 -54.54,33.66 -74.31,88.52 -37.75,143.32 26.27,39.4 22.61,63.94 2.4,103.39 -21.85,42.73 -31.43,93.38 -38.3,141.67 -6.12,42.95 -1.32,87.43 -1.32,135.29l-339.7 0c34.37,-66.49 57.2,-134.02 -13.06,-180.04 62.28,-99 123.15,-191.45 178.4,-287.24 10.59,-18.42 7,-54.15 -4,-74.31 -65.95,-121.52 -143.21,-237.41 -201.23,-362.43 -24.64,-53.05 -11.76,-123.54 -16.29,-191.78l388.33 0 0.01 0z"/>
 <path class="fil3" d="M34720.63 -31238.46l0 -208.45c-93.49,-1.32 -115.78,17.04 -119.34,92.82 -3.98,85.3 20.23,110.71 119.34,115.62l0 0.01zm-38.35 -837.21l420.45 0c-62.34,352.49 -66.55,700.05 -0.54,1042.88 -231.35,0 -447.51,9.12 -662.31,-3.89 -106.48,-6.51 -167.79,-105.83 -176,-223.64 -10.98,-158.73 26.78,-234.14 147.98,-283.64 54.63,-22.35 99.72,-57.48 84.8,-115.84 -9.84,-38.3 -49.46,-83.81 -85.84,-96.11 -32.73,-11.09 -79.29,18.69 -123.55,31.47 -18.29,-107.2 -38.35,-224.57 -59.88,-350.63l377.67 0c3.5,99.45 7.48,197.91 10.33,296.42 1.91,65.63 17.25,117.37 117.47,106.93 -16.56,-132.44 -32.99,-263.42 -50.59,-403.96l0.01 0.01z"/>
 <path class="fil3" d="M32227.67 -33117.14l0 -168.95 428.37 0c-13.06,75.96 -25.57,149.17 -38.35,222.34 -1.42,8.09 -6.55,15.95 -6.51,23.93 2.51,208.23 5.62,416.47 8.04,624.76 0.15,16.56 1.64,38.95 -7.82,48.9 -51.69,54.54 -41.8,109.88 -2.34,173.6l-379.98 0c14.76,-234.79 29.35,-467.34 44.55,-708.36 66,-15.41 140.09,-44.2 117.42,-142.88 -18.91,-82.24 -84.8,-93.49 -163.37,-73.34l-0.01 0z"/>
 <path class="fil3" d="M35086.87 -32854.3c-0.42,50.45 -0.42,100.88 0.81,151.31 1.21,48.46 -2.18,84.26 -54.97,114.68 -72.78,42.02 -57.26,146.77 19.9,182.35 19.67,9.06 42.01,12.45 70.43,20.54l0 99.17 0 94.7 -320.52 0c54.58,-120.1 45.07,-150.92 -62.4,-212.23 0,-198.63 4.93,-396.2 -2.12,-593.29 -2.88,-79.69 -22.27,-158.79 -39.02,-245.12l387.9 387.9 -0.01 -0.01z"/>
 <path class="fil3" d="M32862.35 -31180.18c75.34,4.2 141.46,-9.4 151.18,-95.24 9.08,-80.11 -43.77,-114.37 -121.79,-127.64 0,-39.17 2.23,-77.97 -0.39,-116.44 -10.83,-156.65 -23.34,-313.2 -34.54,-469.85 -1.91,-27.04 -0.26,-54.37 -0.26,-86.16l413.13 0c-66.82,352.65 -70.71,701.74 0.99,1055.16l-408.33 0 0 -159.83 0.01 0z"/>
 <path class="fil3" d="M35188.46 -31947.24l0 -127.42 412.43 0c-14.87,79.61 -34.2,150.1 -39.95,221.69 -7.98,99.65 -5.84,200.14 -7.76,300.29 -1.47,74.75 12.95,145.45 -65.52,206 -68.72,53.05 -18.51,142.77 95.69,177.86l0 148.29c-20.23,1.7 -36.34,4.1 -52.41,4.15 -111.08,0.34 -222.11,0.17 -355.59,0.17 12.67,-79.78 24.8,-150.43 34.85,-221.41 5.36,-38.24 9.4,-76.93 10.11,-115.5 1.58,-83.61 1.15,-167.31 0.54,-250.92 -0.37,-57.48 -1.15,-105.45 58.08,-149.11 79.67,-58.69 33.33,-153.6 -90.48,-194.09l0.01 0z"/>
 <path class="fil3" d="M33729.91 -31589.58c16.45,92.41 31.8,178.46 47.1,264.51 5.64,-0.71 11.26,-1.47 16.88,-2.23 13.4,-85.85 26.78,-171.74 40.94,-262.28l-104.92 0zm129.11 -217.84l0 -65.67c114.91,-36.83 130.38,-70.88 92.45,-202.89l249.49 0c-19.24,92.67 -37.42,176.21 -53.76,260.19 -32.4,166.83 -63.98,333.86 -95.56,500.84 -18.14,95.78 -35.69,191.63 -54.47,292.87l-332.82 0c7.81,-145.13 -36.55,-190.09 -171.63,-160.76 -31.3,-151.57 -59.62,-303.86 -95.13,-454.5 -20.71,-87.81 -58.9,-171.68 -77.69,-259.76 -11.76,-55.25 -2.18,-115.02 -2.18,-178.03l422.25 0c-11.91,90.59 -23.26,176.88 -35.24,267.69l154.3 0 -0.01 0.02z"/>
</symbol>
<symbol id="Fm80-268-0" viewBox="107901.74 -229964.45 4512.72 1274.78">
 <path class="fil1" d="M107901.74 -228689.67c0,0 586.8,-881.34 3961.93,-1274.78l550.79 164.07 -1240.92 148.88 -1427.42 255.04 -562.61 126.98 -725.74 246.97 -556.03 332.84z"/>
</symbol>
<symbol id="Fm58-218-0" viewBox="338977.94 -1085762.32 2646.24 6129.86">
 <path class="fil1" d="M339766.56 -1085762.32c0,0 -1340.84,1859.7 -525.79,3711.77 812.27,1852.76 1509.4,2418.09 1509.4,2418.09l874.01 -1335.99c0,0 -2219.71,-206.02 -1857.62,-4793.87z"/>
</symbol>
<symbol id="Fm99-316-0" viewBox="184546.28 -191863.28 4512.72 4512.46">
 <path class="fil0" d="M184546.28 -189607.05c0,-1246.26 1010.24,-2256.23 2256.14,-2256.23 1246.26,0 2256.58,1009.97 2256.58,2256.23 0,1246.26 -1010.33,2256.23 -2256.58,2256.23 -1245.9,0 -2256.14,-1009.97 -2256.14,-2256.23z"/>
</symbol>
<symbol id="Fm66-236-0" viewBox="72226.6 -142207.93 1390.11 6129.81">
 <path class="fil1" d="M73616.71 -142207.92c0,0 -297.74,1664.63 -213.25,1939.64 84.87,275.29 -993.92,2045.66 -953.31,2239.07 40.61,193.13 -71.3,1256.01 -71.3,1256.01 0,0 -9.26,854.96 1000.18,248.24 0,0 -198.75,361.09 -423.88,416.95 -225.04,56.05 -554.22,75.89 -675.02,-340.32 -120.8,-416.67 0.65,-1181.15 0.65,-1181.15l-1.96 -485.54 305.98 -1075.14 387.57 -1079.07 76.54 -48.56 34.06 -246.56c0,0 73.27,-710.77 252.83,-963.22 179.94,-252.55 280.9,-680.36 280.9,-680.36l0.01 0.01z"/>
</symbol>
<symbol id="Fm50-202-0" viewBox="226013.32 -500181.2 4512.72 1075.02">
 <path class="fil2" d="M226013.32 -500181.2c0,0 2996.11,1013.97 4512.72,962.18 0,0 -2803.01,598.74 -4512.72,-962.18z"/>
</symbol>
<symbol id="Fm106-92-0" viewBox="78712.62 -34865.56 4512.72 4512.76">
 <path class="fil0" d="M78712.62 -32609.16c0,-1246.21 1010.15,-2256.4 2256.36,-2256.4 1246.17,0 2256.36,1010.19 2256.36,2256.4 0,1246.17 -1010.19,2256.36 -2256.36,2256.36 -1246.21,0 -2256.36,-1010.19 -2256.36,-2256.36z"/>
</symbol>
<symbol id="Fm0-74-0" viewBox="12009.58 -16777.15 4512.72 4512.72">
 <path class="fil0" d="M16522.3 -14520.79c0,1246.1 -1010.26,2256.36 -2256.36,2256.36 -1246.1,0 -2256.36,-1010.26 -2256.36,-2256.36 0,-1246.1 1010.26,-2256.36 2256.36,-2256.36 1246.1,0 2256.36,1010.26 2256.36,2256.36z"/>
</symbol>
<symbol id="Fm22-140-0" viewBox="121625.93 -374209.31 4512.72 2504.53">
 <path class="fil1" d="M121625.93 -371704.78c0,0 2284.11,-2394.9 4512.72,-1296.08 0,0 -1235.65,-1763.77 -2612.12,-1029.64 -1377.04,734.13 -1900.6,2325.72 -1900.6,2325.72z"/>
</symbol>
<symbol id="Fm27-150-0" viewBox="307982.94 -812160.02 2278.04 6129.86">
 <path class="fil1" d="M308687.32 -812160.02c0,0 -1334.33,3933.09 -329.98,6129.86 0,0 1110.25,-5859.18 1903.64,-5694.83l-1573.66 -435.03z"/>
</symbol>
<symbol id="Fm6-222-0" viewBox="44166.72 -3643.88 4512.72 4512.76">
 <path class="fil0" d="M48679.44 -1387.5c0,1246.11 -1010.27,2256.38 -2256.38,2256.38 -1246.11,0 -2256.34,-1010.27 -2256.34,-2256.38 0,-1246.11 1010.23,-2256.38 2256.34,-2256.38 1246.11,0 2256.38,1010.27 2256.38,2256.38z"/>
</symbol>
<symbol id="Fm51-204-0" viewBox="66603.12 -143038.05 4512.72 943.21">
 <path class="fil2" d="M66603.12 -142284.61c0,0 1428.98,311.86 2531.9,136 1103.26,-175.77 1980.82,-889.44 1980.82,-889.44l-1265.95 439.77c0,0 -828.41,330.02 -1522.89,347.67 -694.48,17.65 -1723.88,-34 -1723.88,-34z"/>
</symbol>
<symbol id="Fm10-78-0" viewBox="24082.99 -59130.14 4512.72 4512.69">
 <path class="fil0" d="M28595.71 -56873.78c0,1246.19 -1010.26,2256.33 -2256.36,2256.33 -1246.1,0 -2256.36,-1010.14 -2256.36,-2256.33 0,-1246.1 1010.26,-2256.36 2256.36,-2256.36 1246.1,0 2256.36,1010.26 2256.36,2256.36z"/>
</symbol>
<symbol id="Fm14-122-0" viewBox="35777.77 -77882.72 4512.72 4512.72">
 <path class="fil0" d="M40290.49 -75626.38c0,1246.11 -1010.23,2256.38 -2256.38,2256.38 -1246.11,0 -2256.34,-1010.27 -2256.34,-2256.38 0,-1246.11 1010.23,-2256.34 2256.34,-2256.34 1246.15,0 2256.38,1010.23 2256.38,2256.34z"/>
</symbol>
<symbol id="Fm8-266-0" viewBox="6077.47 -7481.93 4512.72 2406.98">
 <path class="fil4" d="M7106.46 -6186.36c-84.12,84.13 -168.25,168.25 -273.85,273.87 400.6,85.84 771.32,165.22 1158.56,248.17 -14.01,-35.83 -21.42,-56.63 -30.21,-76.9 -33.55,-77.67 -75.89,-152.73 -99.76,-233.29 -60.79,-205.15 2.68,-344.4 192.32,-444.99 118.55,-62.88 127.92,-89.3 40.43,-193.83 -41.01,-48.97 -98.24,-102.14 -156.63,-115.27 -127.92,-28.7 -261.22,-34.23 -392.55,-46.48 -34.42,-3.22 -69.82,3.46 -137.79,7.65 73.05,-125.42 123.04,-235.96 194.72,-330.05 294.17,-386.26 698.19,-485.12 1138.06,-279.97 111.81,52.15 219.08,117.47 320.09,188.57 110.98,78.02 225.14,115.32 358.62,82.46 34.36,-8.44 68.74,-16.84 114.44,-28.07 -42.24,140.41 -108.24,199.2 -366.39,351.39 179.92,-9.23 276.89,-152.73 412.86,-225.04 52.92,198.09 -139.69,376.98 -608.55,573.26 72.51,18.06 198.14,-14.35 306.32,-80.18 147.22,-89.53 290.37,-186.65 442.11,-267.65 156.68,-83.54 441.33,-23.49 550.21,109.23 -31.98,8.93 -59.62,21.33 -88.13,23.78 -130.17,11.13 -237.04,67.76 -328.25,158.87 -223.28,223.19 -484.39,389.57 -775.92,509.92 3.21,8.36 6.44,16.75 9.72,25.11 98.33,-36.43 205.01,-59.08 293.19,-112.35 152.53,-92.08 293.48,-203.41 439.56,-306.28 71.83,-50.57 146.29,-97.64 216.1,-150.82 211.02,-160.78 417.31,-72.94 539.82,107.86 -323.28,117.42 -564.37,356.66 -834.81,553.04 -280.01,203.35 -597.19,313.95 -950.48,355.3 26.37,14.01 51.61,31 79.29,41.49 436.02,165.08 820.01,76.56 1155.73,-240.26 46.2,-43.6 91.7,-89.01 130.28,-139.19 19.43,-25.4 22.6,-63.28 33.09,-95.51 -33.98,-3.13 -70.1,-15.18 -101.41,-7.52 -55.22,13.58 -107.45,39.21 -162.19,60.25 85.45,-148.57 509.88,-420.43 662.46,-425.31 0.78,5.41 4.15,13.96 1.9,15.82 -160.14,134.61 -230.05,321.85 -303.04,508.9 -70.46,180.6 -205.12,311.11 -354.63,428.24 -358.76,281.04 -768.4,350.32 -1194.5,231.86 -878.36,-244.17 -1750.22,-511.68 -2624.68,-769.77 -5.41,-1.61 -10.01,-6.05 -35.1,-21.67 326.54,-166.15 672.71,-210.34 1006.96,-294.81 7.32,10.06 14.7,20.12 22.02,30.17l0.01 0z"/>
</symbol>
<symbol id="Fm65-234-0" viewBox="276918.7 -525316.14 1849.9 6129.86">
 <path class="fil1" d="M278176.32 -525316.14l592.28 6129.86c0,0 -972.53,-3466.38 -1683.77,-4002.59 -711.24,-537.66 1091.49,-2127.27 1091.49,-2127.27z"/>
</symbol>
<symbol id="Fm88-284-0" viewBox="127029.5 -284843.86 1789.52 6129.86">
 <path class="fil1" d="M127029.5 -283796.6c0,0 2062.22,2698.74 1738.32,5082.6 0,0 293.55,-3124.8 -525.21,-4456.74 0,0 -825.67,-1473.76 -1169.09,-1673.12l-44.02 1047.26z"/>
</symbol>
<symbol id="Fm21-138-0" viewBox="92629.47 -274674.8 4512.72 2504.49">
 <path class="fil1" d="M92629.47 -272170.31c0,0 2283.72,-2394.69 4512.72,-1295.98 0,0 -1235.44,-1763.81 -2612.6,-1029.72 -1376.74,733.95 -1900.12,2325.7 -1900.12,2325.7z"/>
</symbol>
<symbol id="Fm47-194-0" viewBox="91791.45 -226498.8 4512.65 5948.2">
 <path class="fil1" d="M93693.2 -220550.6c0,0 -187.15,-2640.44 1750,-4930.27 1937.02,-2290.34 0,0 0,0 0,0 -2045.65,1669.17 -3651.75,2280.3 0,0 1418.17,1802.26 1901.75,2649.97z"/>
</symbol>
<symbol id="Fm110-102-0" viewBox="70789.36 -50525.37 4512.72 4512.76">
 <path class="fil0" d="M70789.36 -48268.99c0,-1246.11 1010.23,-2256.38 2256.34,-2256.38 1246.15,0 2256.38,1010.27 2256.38,2256.38 0,1246.11 -1010.23,2256.38 -2256.38,2256.38 -1246.11,0 -2256.34,-1010.27 -2256.34,-2256.38z"/>
</symbol>
<symbol id="Fm68-240-0" viewBox="292350.9 -535707.09 1417.43 6129.86">
 <path class="fil1" d="M292350.9 -535707.09c0,0 659,2873.76 617.54,3317.74 -41.46,443.98 -108.98,1925.99 -108.98,1925.99 0,0 -190.07,1116.92 53.2,842.83 242.17,-273.36 855.67,-2888.07 855.67,-2888.07l-1417.43 -3198.49z"/>
</symbol>
<symbol id="Fm3-156-0" viewBox="33814.8 -21641.61 4512.72 4512.72">
 <path class="fil0" d="M38327.52 -19385.23c0,1246.13 -1010.21,2256.34 -2256.38,2256.34 -1246.13,0 -2256.34,-1010.21 -2256.34,-2256.34 0,-1246.17 1010.21,-2256.38 2256.34,-2256.38 1246.17,0 2256.38,1010.21 2256.38,2256.38z"/>
</symbol>
<symbol id="Fm13-120-0" viewBox="24082.99 -47476.46 4512.72 4512.72">
 <path class="fil0" d="M28595.71 -45220.1c0,1246.22 -1010.26,2256.36 -2256.36,2256.36 -1246.1,0 -2256.36,-1010.14 -2256.36,-2256.36 0,-1246.1 1010.26,-2256.36 2256.36,-2256.36 1246.1,0 2256.36,1010.26 2256.36,2256.36z"/>
</symbol>
<symbol id="Fm20-136-0" viewBox="231096.8 -620655.03 3991.11 6129.87">
 <path class="fil1" d="M235087.91 -620655.02c0,0 -2157.68,4479.18 -3991.11,6129.86l3991.11 -6129.86z"/>
 <path class="fil3" d="M235087.6 -620655.02c0,0 -164.14,431.29 -453.01,1058.67 -289.18,628.31 -724.81,1440.31 -1200.78,2230.59 -490.55,780.66 -1026.71,1535.88 -1497.4,2048.15 -467.59,515.37 -839.61,792.45 -839.61,792.45 0,0 317.41,-336.03 720.16,-889.88 406.15,-551.67 914.08,-1310.31 1383.53,-2094.07 488.38,-773.83 944.8,-1568.46 1298.2,-2159.54 353.72,-591.08 588.91,-986.38 588.91,-986.38l0 0.01z"/>
</symbol>
<symbol id="Fm76-258-0" viewBox="249128.45 -571275.53 1388.26 6129.86">
 <path class="fil1" d="M249128.45 -565145.67c0,0 1221.01,-2478.43 1388.26,-5305.86l-77.34 -824c0,0 63.48,1727.91 -1310.92,6129.86z"/>
</symbol>
<symbol id="Fm31-160-0" viewBox="243560.25 -769517.01 2995.52 6129.86">
 <path class="fil1" d="M243560.25 -768887.68c0,0 2053.39,1374.17 2183.48,5500.53 0,0 877.23,-5167.44 808.16,-6129.86l-2991.64 629.33z"/>
</symbol>
<symbol id="Fm111-104-0" viewBox="184594.94 -60703.26 4512.72 4512.46">
 <path class="fil0" d="M184594.94 -58447.03c0,-1246.26 1010.33,-2256.23 2256.23,-2256.23 1246.26,0 2256.49,1009.97 2256.49,2256.23 0,1246.26 -1010.24,2256.23 -2256.49,2256.23 -1245.9,0 -2256.23,-1009.97 -2256.23,-2256.23z"/>
</symbol>
<symbol id="Fm112-114-0" viewBox="43777.69 -16805.15 4514 4570.41">
 <g style="clip-path:url(#id0)">
  <image x="43777.69" y="-16805.15" width="4514" height="4570.41" xlink:href="logo-miguel-arambulo-piloto-aviador-contacto-telefono_Images\logo-miguel-arambulo-piloto-aviador-contacto-telefono_ImgID1.png"/>
 </g>
</symbol>
<symbol id="Fm75-256-0" viewBox="154674.83 -352465.43 775.87 6129.86">
 <path class="fil1" d="M155414.34 -350953.45c0,0 284.73,1923.8 -739.51,4617.88 0,0 881.17,-3225.58 430,-5322.02l-201.61 -807.84 511.12 1511.98z"/>
</symbol>
<symbol id="Fm101-82-0" viewBox="443137.75 -534440.01 4512.62 5665.76">
 <path class="fil5" d="M447650.37 -529768.89c0,0 -1168.2,-2698.04 -257.85,-3575.38 0,0 -2038.89,-321.58 -3561.47,-1095.74 0,0 -1692.61,2966.89 211.55,5665.76l3607.77 -994.64z"/>
</symbol>
<symbol id="Fm62-228-0" viewBox="559349.47 -1800363.75 4512.72 1219.72">
 <polygon class="fil1" points="559349.47,-1799935.82 563862.19,-1799144.03 562324.39,-1800363.75 "/>
</symbol>
<symbol id="Fm59-220-0" viewBox="346224.93 -1122362.06 3174.04 6129.83">
 <path class="fil1" d="M347411.37 -1122362.06c0,0 -1851.24,863.86 -928.83,2561.6 921.69,1694.89 888.85,3316.95 1888.36,3543.98 997.37,226.32 1028.07,-1206.55 1028.07,-1206.55 0,0 -2340.28,-1412.88 -1987.6,-4899.03z"/>
</symbol>
<symbol id="Fm29-154-0" viewBox="134577.85 -388207.77 3469.99 6129.87">
 <path class="fil1" d="M134577.85 -388207.76c0,0 2468.76,5523.28 2046.86,6129.86 0,0 1553.54,-928.51 1414.29,-1326.82 0,0 -601.82,-383.43 -1031.46,-1266.52 -429.64,-883.09 -1990.13,-3008.89 -2429.69,-3536.53l0 0.01z"/>
</symbol>
<symbol id="Fm54-210-0" viewBox="311462.31 -598293.12 2309.62 6129.72">
 <path class="fil2" d="M311462.31 -597446.37c0,0 121.5,2945.06 2309.62,5282.97 0,0 -1787.71,-3869.2 -1380.77,-5464.68 406.94,-1595.85 -928.85,181.71 -928.85,181.71z"/>
</symbol>
<symbol id="Fm35-168-0" viewBox="50136.53 -134049.38 4512.7 1522.26">
 <path class="fil1" d="M50136.53 -133099.33c0,0 1984.36,575.76 2954.87,301.7 0,0 1226.13,-21.64 1556.59,-1251.75 0,0 53.68,616.66 -546.72,1103.97 -600.12,487.59 -3.21,37.21 -3.21,37.21 0,0 -1071.45,332.2 -1470.38,362.5 -398.73,30.02 -1750.65,103.17 -2491.15,-553.63z"/>
</symbol>
<symbol id="Fm87-282-0" viewBox="85542.92 -204924.66 4106.52 6129.86">
 <polygon class="fil1" points="85615.11,-199207.44 85542.92,-198794.8 87796.48,-201982.3 89649.44,-204924.66 86959.57,-202796.71 "/>
</symbol>
<symbol id="Fm46-192-0" viewBox="243312.76 -539359.06 4512.57 3350.78">
 <path class="fil1" d="M243318.47 -539359.06c0,0 -353.61,4197.96 4506.86,3196.33 0,0 -4191.48,-1571.65 -4506.86,-3196.33z"/>
</symbol>
<symbol id="Fm102-84-0" viewBox="486031.87 -577601.13 4512.72 1291.46">
 <polygon class="fil5" points="490544.59,-577204.35 489981.01,-577601.13 486031.87,-576512.38 487267.2,-576309.67 "/>
</symbol>
<symbol id="Fm4-178-0" viewBox="23911.41 -6214.48 4512.72 4512.74">
 <path class="fil0" d="M28424.13 -3958.11c0,1246.11 -1010.26,2256.37 -2256.37,2256.37 -1246.11,0 -2256.35,-1010.26 -2256.35,-2256.37 0,-1246.11 1010.23,-2256.37 2256.35,-2256.37 1246.11,0 2256.37,1010.26 2256.37,2256.37z"/>
</symbol>
<symbol id="Fm33-164-0" viewBox="171031.66 -494342.14 3306.53 6129.86">
 <path class="fil1" d="M171031.66 -492427.35c0,0 1697.74,2677.74 1456.15,4215.07l1850.38 -4624.13 -995.56 -1505.73 -2310.97 1914.79z"/>
</symbol>
<symbol id="Fm36-170-0" viewBox="651062.42 -1499126.77 4512.72 4877.98">
 <polygon class="fil1" points="651062.42,-1497302.86 653740.17,-1494248.79 655575.14,-1497241.2 652219.85,-1499126.77 "/>
</symbol>
<symbol id="Fm72-250-0" viewBox="435222.09 -855344.61 1597.03 6129.86">
 <path class="fil1" d="M435561.95 -855344.61c0,0 1717.89,5078.16 1137.37,6129.86l-1477.23 -4185.39 339.86 -1944.47z"/>
</symbol>
<symbol id="Fm108-96-0" viewBox="50539.59 -31422.28 4512.72 4512.72">
 <path class="fil0" d="M50539.59 -29165.92c0,-1246.1 1010.26,-2256.36 2256.36,-2256.36 1246.1,0 2256.36,1010.26 2256.36,2256.36 0,1246.1 -1010.26,2256.36 -2256.36,2256.36 -1246.1,0 -2256.36,-1010.26 -2256.36,-2256.36z"/>
</symbol>
<symbol id="Fm32-162-0" viewBox="198058.84 -594599.22 2298.03 6129.71">
 <path class="fil1" d="M198058.84 -593959.9c0,0 1672.56,1493.43 1035.29,4217.78 -636.08,2724.05 -30.05,227.45 -30.05,227.45l1292.79 -5084.55 -2298.03 639.33 0 -0.01z"/>
</symbol>
<symbol id="Fm45-190-0" viewBox="87800.55 -206361.78 2627.45 6129.85">
 <path class="fil1" d="M87800.55 -203953.72c0,0 1464.84,2741.35 2627.45,3721.79 0,0 -977.53,-2478.47 -1145.24,-4265.26 0,0 -84.3,-1171.69 185.87,-1670.77l-168.94 -193.82c0,0 -1126.63,633.49 -1499.14,2408.07l0 -0.01z"/>
</symbol>
<symbol id="Fm57-216-0" viewBox="306232.72 -974483.58 4512.16 5885.03">
 <path class="fil1" d="M306821.43 -974483.58c0,0 1213.57,4797.97 3923.45,5238.98 0,0 -1034.66,2023.66 -3087.09,-1092.21 -2052.43,-3115.87 -1463.16,-2440.9 -836.36,-4146.77z"/>
</symbol>
<symbol id="Fm41-182-0" viewBox="228821.02 -471531.61 1645.98 6129.86">
 <path class="fil1" d="M229221.06 -471371.9c0,0 440.48,4616.72 -400.04,5970.15 0,0 1552.04,-3528.44 1645.98,-6129.86l-1245.94 159.71z"/>
</symbol>
<symbol id="Fm52-206-0" viewBox="116279.65 -243197.78 4512.72 559.91">
 <path class="fil2" d="M120792.37 -243197.78c0,0 -4111.78,435.31 -4512.72,429.58 0,0 2270.24,259.51 3016.31,46.12 745.63,-213.54 1496.41,-475.7 1496.41,-475.7z"/>
</symbol>
<symbol id="Fm28-152-0" viewBox="174570.18 -525017.47 3769.36 6129.86">
 <path class="fil1" d="M174570.18 -525017.47c0,0 3653.66,5460.54 2900.5,6129.86 0,0 1022.18,-503 849.12,-1371.27 0,0 -2628.51,-3920.79 -3749.62,-4758.59z"/>
</symbol>
<symbol id="Fm18-130-0" viewBox="67040.53 -136352.27 4512.72 2284.73">
 <path class="fil1" d="M67040.53 -135542.05c0,0 1748.23,1775.45 3309.07,1429.9 0,0 1035.6,-4.9 1203.65,-872.28l-2.19 -603.31 -4368.83 -764.53 -141.7 810.22z"/>
</symbol>
<symbol id="Fm113-116-0" viewBox="1182168.41 -519667.88 4512.72 4512.72">
 <path class="fil6" d="M1186681.13 -515155.16c0,0 -4100.56,-882.78 -4512.72,-4512.72l4512.72 4512.72z"/>
</symbol>
<symbol id="Fm91-300-0" viewBox="7252.17 -28677.08 4513.99 1544.95">
 <g style="clip-path:url(#id1)">
  <image x="7252.17" y="-28677.08" width="4513.99" height="1544.95" xlink:href="logo-miguel-arambulo-piloto-aviador-contacto-telefono_Images\logo-miguel-arambulo-piloto-aviador-contacto-telefono_ImgID2.png"/>
 </g>
</symbol>
<symbol id="Fm105-90-0" viewBox="50539.59 -19768.56 4512.72 4512.72">
 <path class="fil0" d="M50539.59 -17512.2c0,-1246.1 1010.26,-2256.36 2256.36,-2256.36 1246.1,0 2256.36,1010.26 2256.36,2256.36 0,1246.1 -1010.26,2256.36 -2256.36,2256.36 -1246.1,0 -2256.36,-1010.26 -2256.36,-2256.36z"/>
</symbol>
<symbol id="Fm7-244-0" viewBox="61795.61 -47110.71 4512.72 4512.36">
 <path class="fil0" d="M66308.33 -44854.53c0,1246.23 -1010.31,2256.18 -2256.18,2256.18 -1246.23,0 -2256.54,-1009.95 -2256.54,-2256.18 0,-1246.23 1010.31,-2256.18 2256.54,-2256.18 1245.87,0 2256.18,1009.95 2256.18,2256.18z"/>
</symbol>
<symbol id="Fm71-248-0" viewBox="205666.63 -394681.42 879.95 6129.86">
 <path class="fil1" d="M206542.48 -394606.39c0,0 67.58,4732.28 -346.4,6054.83 0,0 -30.06,-4842.96 -529.45,-6129.86l875.85 75.03z"/>
</symbol>
<symbol id="Fm23-142-0" viewBox="116598.16 -371790.24 4512.72 2504.63">
 <path class="fil1" d="M116598.16 -369285.61c0,0 2284.2,-2394.81 4512.72,-1295.95 0,0 -1235.7,-1764.04 -2612.04,-1029.88 -1377.1,734.16 -1900.68,2325.82 -1900.68,2325.82l0 0.01z"/>
</symbol>
<symbol id="Fm103-86-0" viewBox="508144.3 -609665.91 4512.52 4394.71">
 <path class="fil7" d="M511419.03 -606152.17c0,0 -632.94,-50.23 -377.05,-867.41 256.13,-816.95 -815.28,-895.02 -1033.56,-410.62 -219.23,483.69 -1046.41,126.87 -801.24,-435.85 245.18,-563.44 1121.16,-1621.51 196.62,-1777.67 -925.49,-155.44 -1242.08,556.77 -1242.08,556.77 0,0 -235.9,1656.03 1028.8,3604.13l1293.97 211.62 2172.33 -592c0,0 -221.61,-244.46 -1237.8,-288.98l0.01 0.01z"/>
</symbol>
<symbol id="Fm17-128-0" viewBox="5515.17 -26317.98 4512.73 3784.82">
 <path class="fil3" d="M7389.51 -23758.22c-89.03,-33.14 -166.43,-61.95 -249.8,-92.99 -14.83,38.68 -25.06,73.67 -41.27,105.68 -26.61,52.76 -5.35,84.72 41.32,106.5 67.69,31.66 136.18,61.64 215.29,97.24 12.51,-78.59 23.4,-146.81 34.46,-216.43zm-48.95 279.88c-93.12,-43.42 -186.46,-86.97 -287.03,-133.9 -6.1,38.42 -15.49,71.52 -15.46,104.62 0,31.52 -1.01,79.55 17.3,91.62 76.75,50.45 160.6,90.14 248.7,137.46 13.65,-74.64 24.63,-135 36.49,-199.8zm723.31 -259.68c-89.11,10.54 -168.83,19.94 -248.52,29.32l0 234.01c97.76,-12.56 188.55,-24.24 281.32,-36.14 -12.38,-85.52 -22.04,-152.51 -32.8,-227.19zm329.4 -104.27c-98.68,33.94 -188.37,64.76 -270.43,92.99 16.15,75.74 30.46,142.78 46.75,219.33 83.33,-32.31 163.93,-60.8 241.6,-95.92 16.94,-7.64 35.6,-41.44 32.08,-58.83 -10.58,-52.47 -31.73,-102.73 -50,-157.57zm-219.95 372.55c7.82,66.03 15.89,134.16 25.25,213.05 64.52,-28.75 120.99,-49.29 173.02,-77.88 170.69,-93.91 147.16,-45.4 114.27,-232.76 -0.39,-2.19 -3.02,-3.99 -9.83,-12.52 -96.32,35.04 -195.32,71.03 -302.7,110.11l-0.01 0zm-360.03 287.55c117.13,-19.97 223.76,-38.15 327.85,-55.93 -16.38,-81.49 -29.46,-146.32 -43.16,-214.37 -97.15,13.17 -189.6,25.67 -284.69,38.54l0 231.75 0 0.01zm-68.97 -290.19c0,-78.75 1.75,-141.22 -1.41,-203.43 -0.66,-13.04 -18.04,-34.68 -29.85,-36.23 -84.56,-11.24 -169.73,-18.26 -257.53,-26.9 -8.39,61.64 -18.79,115.77 -21.38,170.25 -0.83,17.02 16.73,47.8 30.29,50.57 88.94,17.99 179.03,30.03 279.88,45.73l0 0.01zm-4.96 289.45l0 -228.64c-113.88,-15.89 -222.01,-30.95 -337.61,-47.1 -7.5,68.93 -14.75,135.4 -23.22,213.32 124.25,21.5 239,41.35 360.83,62.42zm48.51 -1663.07c566.15,0 1132.31,0 1698.46,0 21.03,0 46.36,7.28 62.21,-1.84 26.12,-15.02 46.09,-40.66 68.66,-61.86 -21.73,-19.49 -41,-43.59 -66.03,-56.85 -16.5,-8.74 -41.27,-1.94 -62.33,-1.94 -1132.26,-0.04 -2264.56,-0.04 -3396.82,-0.04 -18.44,0 -36.92,0.75 -55.32,0.09 -52.07,-1.98 -61.86,32.48 -59.48,72.65 3.55,59.8 50.21,49.65 88.54,49.65 574.05,0.22 1148.07,0.17 1722.12,0.14l-0.01 0zm1510.73 -997.18c-13.88,16.55 -22.35,29.8 -33.76,39.74 -99.78,86.7 -199.62,173.36 -300.41,258.88 -41.8,35.47 -49.74,69.58 -22.92,122.13 41.93,82.1 72.87,169.77 112.39,264.51 162,-143.77 323.61,-287.21 484.24,-429.83 103.08,95.3 202.47,113.26 300.63,59.75 85.52,-46.67 127.67,-138.64 105.27,-240.45 -32.83,-149.31 -147.42,-174.33 -284.52,-170.15 21.69,-139.13 -14,-245.24 -155.58,-287.47 -100.71,-30.03 -201.12,-0.8 -260.34,94.91 -63.88,103.16 -41.09,205.46 55,287.99l0 -0.01zm-2793.97 695.97c33.67,-90.05 54.22,-175.34 95.92,-248.62 49.83,-87.62 8.09,-129.6 -53.16,-180.69 -103.3,-86.23 -200.93,-179.25 -300.2,-268.73 84.51,-134.56 106.29,-231.75 58.35,-289.53 -79.94,-96.36 -149.48,-136.79 -273.55,-99.66 -138.82,41.54 -167.09,150.68 -147.16,285.89 -40.35,0 -71.69,-2.9 -102.33,0.54 -105.68,11.76 -176.31,81.25 -184.7,182.19 -7.45,90.61 5.28,171.44 97.64,221.18 97.07,52.24 184.04,39.37 272.9,-19.19 18.17,-12.02 58.25,-11.59 76.04,0.71 42.27,29.28 76.83,69.63 115.37,104.57 113.22,102.64 226.84,204.84 344.89,311.35l-0.01 -0.01zm-106.94 1895.88c-117.53,-102.73 -239.05,-137.59 -367.55,-18.31 -70.32,65.28 -70.51,149.17 -42.5,225 44.17,119.58 151.64,146.5 268.07,142.63 8.65,178.73 51.01,252.31 163.18,285.94 85.29,25.55 200.75,-8.56 250.27,-74.02 59.97,-79.2 49.74,-200.37 -27.53,-314.02 66.25,-58.22 128.46,-122.49 200.11,-173.45 87.93,-62.57 117.7,-141.77 116.29,-246.46 -1.06,-77.49 14.85,-155.94 30.17,-232.6 9.97,-49.87 32.44,-97.24 49.34,-145.75 -4.57,-2.19 -9.13,-4.39 -13.7,-6.63 -205.58,183.12 -411.22,366.23 -626.16,557.69l0.01 -0.02zm2489.3 251.38c-134.7,194.52 -79.91,234.43 -18.18,323.2 45.09,64.85 153.96,90.45 236.81,64.89 112.87,-34.81 161.43,-115.37 169.54,-287.02 126.57,12.64 227.72,-32.27 273.29,-155.32 33.89,-91.54 -4.39,-191.11 -90.53,-245.99 -119.75,-76.33 -228.63,-36.08 -327.33,52.95 -212.08,-190.36 -420.7,-377.64 -627.92,-563.61 28.27,162.4 53.26,321.37 85.22,478.96 8.47,41.84 30.38,87.32 60.09,117.23 74.55,75.03 157.09,142.14 239.01,214.72l0 -0.01zm-1864.32 -351.61c-1.62,140.22 22.44,256.61 76.61,370.57 54.08,113.88 135.08,197.99 242.95,254.23 228.16,119.02 470.89,121.04 713.65,61.6 315.31,-77.18 481.25,-380.5 450.6,-651.72 -496.87,254.45 -989.66,267.01 -1483.82,-34.68l0.01 0zm-316.49 -2054.93l2132.6 0c-168.49,-347.61 -530.15,-609.01 -981.67,-630.77 -504.26,-24.33 -892.95,174.72 -1150.93,630.77zm2260.67 635.6l-2371.04 0c0,22.74 -5.26,42.76 0.83,58.3 50.85,129.34 96.11,261.65 157.83,385.72 89.46,179.77 235.44,308.36 412.41,400.64 259.02,135.05 535.81,163.76 820.47,122.49 246.29,-35.74 471.37,-123.28 643.55,-312.15 72.61,-79.63 148.39,-160.89 200.28,-253.92 67.56,-121.12 133.77,-247.92 135.66,-401.09l0.01 0.01zm-457.5 870.92c207.34,186.67 411.53,370.48 619,557.29 101.98,-64.8 209.9,-82.23 323.12,-41.54 98.34,35.34 142.5,122.23 174.89,209.5 51.51,138.68 -85.03,301.07 -291.45,351.82 -3.73,130.57 -63.09,226.28 -192.78,270.79 -120.99,41.53 -229.91,13.17 -320.92,-69.42 -76.75,-69.63 -99.05,-172.44 -66.55,-262.08 34.63,-95.45 12.78,-148.39 -63.22,-199.01 -35.91,-23.88 -66.29,-56.01 -105.06,-89.48 -55.32,181.49 -123.67,348.63 -283.12,456.97 -191.98,130.48 -409.16,161.03 -632.96,143.7 -406.84,-31.57 -626.39,-237.03 -716.69,-611.73 -55.54,46.11 -109.45,89.61 -161.95,134.82 -35.78,30.78 -48.33,60.42 -27.96,114.41 61.41,163 -9.1,310.34 -168.81,377.28 -128.68,53.92 -330.7,-7.82 -377.45,-150.58 -12.47,-38.06 -29.99,-74.46 -50.62,-124.94 -72.44,-24.28 -155.49,-51.81 -218.19,-135.57 -122.93,-164.14 -3.68,-391.16 167.44,-433.04 83.5,-20.46 160.37,-12.02 236.06,29.33 18.52,10.14 55.14,15.18 67.51,4.34 203.14,-177.1 403.67,-357.18 596.85,-529.49 -98.26,-112.83 -195.19,-219.87 -286.81,-331.25 -43.73,-53.16 -88.21,-110.32 -113.18,-173.28 -42.01,-105.8 -66.42,-218.45 -103.91,-326.23 -7.29,-20.93 -40.31,-46.04 -62.12,-46.7 -142.19,-4.22 -284.92,3.38 -426.67,-5.58 -44.08,-2.81 -103.75,-34.56 -124.73,-71.12 -51.36,-89.51 10.28,-180.83 116.21,-182.98 134.34,-2.68 268.81,-0.22 403.24,0.05 25.5,0.04 51.06,0 101.06,0 -80.12,-76.05 -143.21,-137.9 -208.45,-197.38 -80.52,-73.5 -164.54,-143.16 -243.56,-218.19 -37.58,-35.69 -64.1,-53.7 -119.85,-23.27 -104.53,57.07 -252.09,31.35 -330.75,-43.77 -98.87,-94.44 -129.78,-213.24 -74.73,-335.11 47.72,-105.67 140.45,-156.46 258.5,-169.06 1.98,-149.31 83.68,-240.63 217.22,-282.46 113.84,-35.65 223.29,-7.42 303.76,79.11 105.45,113.39 121.92,242.16 20.2,370.31 115.32,103.3 225.26,201.81 335.71,300.77 529.19,-742.55 1626.49,-754.45 2193.09,0.26 108.65,-96.58 216.92,-192.78 327.81,-291.33 -90.53,-125.3 -84.34,-247.57 15.84,-361.57 82.76,-94.17 193.7,-121.66 308.45,-87.93 133.07,39.06 214.9,133.32 221.05,264.2 67.91,36.56 135.43,58.48 183.77,101.85 110.68,99.36 132.45,270.66 51.63,368.73 -111.91,135.78 -254.63,164.54 -399.19,90.75 -37.63,-19.23 -58.27,-18.04 -87.58,8.56 -142.33,129.29 -286.2,256.9 -429.05,385.63 -4.88,4.43 -4.57,14.62 -9.31,31.3 20.58,3.07 39.2,8.21 57.9,8.3 147.55,0.87 295.15,0.17 442.75,1.18 85.17,0.62 137.36,44.83 140.57,116.17 3.2,70.46 -54.84,129.72 -137.37,131.26 -150.18,2.71 -300.46,0.75 -450.64,1.18 -15.37,0.04 -30.74,3.11 -49.13,5.09 -55.49,370.75 -249.89,654.44 -548.85,879.13l-0.02 0.01z"/>
 <path class="fil8" d="M7777.56 -23909.61c78.57,1.01 130.6,-36.87 128.58,-93.68 -1.84,-52.68 -54.83,-90.31 -126.47,-89.82 -65.55,0.49 -124.46,43.68 -124.94,91.72 -0.57,54 48.73,90.83 122.84,91.79l-0.01 -0.01zm-805.42 -499.11c4.39,157.87 152.87,334.05 330.92,331.28 171.22,-2.64 335.5,-158.93 332.95,-319.96 -2.5,-160.68 -176.18,-318.19 -348.88,-315.26 -175.69,2.99 -312.89,149.22 -314.99,303.93l0 0.01zm1285.69 -296.29c-183.81,-7.82 -334.22,155.8 -331.71,304.28 2.94,175.74 142.1,316.97 352.25,318.85 165.2,1.54 312.72,-170.46 311.62,-327.1 -1.06,-142.5 -158.36,-306.61 -332.17,-296.03l0.01 0zm709.02 -65.89c-1.93,153.17 -68.1,279.95 -135.66,401.12 -51.89,93.02 -127.67,174.25 -200.28,253.88 -172.17,188.87 -397.25,276.45 -643.54,312.15 -284.66,41.3 -561.46,12.59 -820.48,-122.49 -176.96,-92.28 -322.93,-220.86 -412.41,-400.64 -61.72,-124.07 -107.04,-256.38 -157.82,-385.72 -6.11,-15.54 -0.83,-35.52 -0.83,-58.3l2371.02 0z"/>
 <path class="fil9" d="M7436.67 -25633.47c-31.3,55.84 -54.39,90.26 -68.74,128.02 -3.12,8.16 25.1,28.22 38.89,42.85 24.8,-33.97 52.03,-66.59 72.44,-102.99 4.13,-7.38 -17.56,-29.14 -42.59,-67.87l0 -0.01zm827.27 1.27c-15.53,19.15 -34.2,33.1 -31.91,40.79 15.98,53.69 35.38,106.46 57.19,158 1.54,3.65 45.71,-4.83 45.66,-7.28 -0.61,-39.56 0.88,-81.05 -10.98,-117.89 -8.34,-25.93 -36.16,-45.61 -59.97,-73.62l0.01 0zm-931.44 14.8c-9.4,-17.25 -13.09,-34.23 -21.74,-37.36 -11.81,-4.31 -34.15,-3.29 -40.38,4.57 -42.85,54.26 -83.76,110.15 -122.23,167.61 -5.75,8.56 0.1,34.86 8.87,40.87 12.95,8.87 43.99,14.85 48.87,8.3 44.51,-59.71 85.03,-122.39 126.61,-183.99zm1131.51 -93.33c-23.18,12.47 -41.4,16.6 -43.21,24.42 -3.51,15.58 -2.85,35.95 4.7,49.57 35.95,64.8 72.91,129.29 114,190.87 10.28,15.42 37.27,19.67 56.55,29.07 7.03,-20.11 22.18,-41.54 19.23,-60.06 -5.23,-32.75 -15.49,-67.96 -34.37,-94.62 -34.72,-49.12 -77.22,-92.8 -116.9,-139.25zm-1258.61 2.32c-10.28,-12.95 -17.78,-31.73 -28.76,-34.06 -15.28,-3.25 -38.99,0.26 -48.94,10.62 -55.45,57.78 -110.99,116.12 -159.28,179.74 -12.95,17.07 -0.71,53.3 -0.05,80.78 22.84,-10.8 51.06,-16.38 67.52,-33.36 50.09,-51.58 95.97,-107.38 142.76,-162.18 9.79,-11.41 16.55,-25.46 26.74,-41.53l0.01 -0.01zm-499.21 301.92c257.97,-456.05 646.68,-655.1 1150.93,-630.77 451.52,21.77 813.19,283.16 981.67,630.77l-2132.6 0z"/>
 <path class="fil8" d="M7022.68 -23351.57c494.11,301.69 986.95,289.14 1483.82,34.72 30.64,271.23 -135.31,574.54 -450.6,651.68 -242.78,59.43 -485.55,57.42 -713.7,-61.6 -107.87,-56.24 -188.82,-140.35 -242.95,-254.23 -54.13,-113.97 -78.23,-230.35 -76.56,-370.57l-0.01 0z"/>
 <path class="fil8" d="M8887 -22999.94c-81.97,-72.61 -164.5,-139.69 -239.05,-214.72 -29.72,-29.94 -51.58,-75.43 -60.11,-117.26 -31.91,-157.56 -56.9,-316.58 -85.16,-478.96 207.21,186.01 415.83,373.3 627.91,563.6 98.65,-89.03 207.57,-129.24 327.33,-52.94 86.09,54.92 124.38,154.49 90.48,246.03 -45.52,123.05 -146.72,167.96 -273.28,155.27 -8.08,171.71 -56.63,252.21 -169.51,287.03 -82.88,25.6 -191.72,0 -236.81,-64.89 -61.72,-88.77 -116.52,-128.63 18.18,-323.16l0.02 0z"/>
 <path class="fil8" d="M6397.69 -23251.34c214.94,-191.46 420.54,-374.57 626.12,-557.64 4.62,2.2 9.17,4.39 13.74,6.58 -16.9,48.52 -39.37,95.88 -49.34,145.76 -15.32,76.65 -31.21,155.1 -30.15,232.59 1.39,104.71 -28.36,183.9 -116.31,246.46 -71.64,50.97 -133.85,115.24 -200.09,173.45 77.27,113.71 87.5,234.83 27.53,314.02 -49.57,65.46 -164.99,99.57 -250.33,74.02 -112.12,-33.59 -154.49,-107.21 -163.13,-285.92 -116.43,3.86 -223.9,-23.05 -268.05,-142.64 -28.01,-75.82 -27.84,-159.71 42.49,-225 128.5,-119.28 250.02,-84.42 367.55,18.31l-0.03 0.01z"/>
 <path class="fil8" d="M6504.62 -25147.21c-118.05,-106.5 -231.67,-208.71 -344.84,-311.35 -38.55,-34.94 -73.1,-75.29 -115.42,-104.57 -17.78,-12.33 -57.82,-12.73 -76.04,-0.71 -88.82,58.58 -175.83,71.43 -272.85,19.19 -92.38,-49.74 -105.14,-130.56 -97.64,-221.18 8.34,-100.92 79.02,-170.43 184.65,-182.24 30.64,-3.37 61.99,-0.47 102.38,-0.47 -19.94,-135.22 8.29,-244.36 147.11,-285.89 124.07,-37.15 193.61,3.29 273.55,99.66 47.94,57.77 26.21,154.97 -58.35,289.52 99.27,89.48 196.9,182.5 300.2,268.73 61.29,51.1 102.99,93.07 53.16,180.69 -41.65,73.27 -62.25,158.58 -95.92,248.62l0.01 0z"/>
 <path class="fil8" d="M9298.63 -25843.18c-96.1,-82.53 -118.88,-184.83 -55.05,-287.99 59.27,-95.71 159.63,-124.94 260.34,-94.91 141.62,42.22 177.27,148.34 155.63,287.47 137.1,-4.18 251.64,20.84 284.52,170.15 22.39,101.81 -19.8,193.79 -105.32,240.45 -98.11,53.51 -197.56,35.55 -300.6,-59.75 -160.67,142.63 -322.27,286.06 -484.23,429.83 -39.51,-94.74 -70.51,-182.41 -112.44,-264.51 -26.82,-52.55 -18.88,-86.66 22.96,-122.13 100.8,-85.52 200.63,-172.18 300.37,-258.88 11.42,-9.93 19.9,-23.18 33.81,-39.74l0.01 0.01z"/>
 <path class="fil9" d="M7787.88 -24845.99c-574.05,0 -1148.1,0.09 -1722.12,-0.12 -38.37,0 -85,10.09 -88.54,-49.65 -2.38,-40.17 7.42,-74.63 59.48,-72.7 18.39,0.7 36.84,-0.05 55.27,-0.05 1132.31,0 2264.61,0 3396.87,0 21.07,0 45.83,-6.76 62.33,1.98 25.03,13.25 44.3,37.36 65.99,56.85 -22.52,21.17 -42.5,46.85 -68.62,61.86 -15.85,9.08 -41.18,1.84 -62.26,1.84 -566.1,0 -1132.26,0 -1698.41,0l0.01 -0.01z"/>
 <path class="fil8" d="M7739.35 -23182.93c-121.78,-21.07 -236.54,-40.91 -360.83,-62.42 8.51,-77.93 15.75,-144.39 23.22,-213.32 115.6,16.17 223.73,31.22 337.61,47.11l0 228.63z"/>
 <path class="fil8" d="M7744.32 -23472.39c-100.85,-15.72 -190.97,-27.74 -279.88,-45.75 -13.56,-2.76 -31.12,-33.54 -30.29,-50.57 2.59,-54.47 12.99,-108.6 21.38,-170.24 87.8,8.65 172.93,15.72 257.53,26.9 11.81,1.58 29.19,23.18 29.85,36.26 3.16,62.21 1.41,124.64 1.41,203.39l0 0.01z"/>
 <path class="fil8" d="M7813.28 -23182.2l0 -231.75c95.09,-12.87 187.59,-25.37 284.71,-38.5 13.69,68.01 26.78,132.84 43.16,214.37 -104.05,17.73 -210.73,35.91 -327.86,55.89l-0.01 -0.01z"/>
 <path class="fil8" d="M8173.32 -23469.73c107.38,-39.08 206.42,-75.11 302.7,-110.11 6.81,8.52 9.48,10.32 9.83,12.52 32.88,187.36 56.41,138.86 -114.28,232.71 -52.02,28.62 -108.48,49.17 -173.02,77.93 -9.35,-78.89 -17.42,-147.02 -25.24,-213.05l0.01 0z"/>
 <path class="fil8" d="M8393.28 -23842.31c18.26,54.83 39.42,105.14 50,157.56 3.51,17.43 -15.14,51.2 -32.09,58.87 -77.67,35.08 -158.27,63.57 -241.58,95.88 -16.29,-76.57 -30.6,-143.61 -46.75,-219.3 82.05,-28.22 171.73,-59.09 270.43,-93.02l-0.01 0.01z"/>
 <path class="fil8" d="M8063.86 -23738.02c10.8,74.68 20.46,141.67 32.79,227.19 -92.71,11.91 -183.51,23.58 -281.32,36.14l0 -233.99c79.73,-9.4 159.41,-18.79 248.53,-29.33l0 -0.01z"/>
 <path class="fil8" d="M7340.54 -23478.33c-11.81,64.76 -22.82,125.12 -36.44,199.8 -88.16,-47.33 -171.96,-87.01 -248.7,-137.5 -18.34,-12.03 -17.3,-60.11 -17.34,-91.58 -0.05,-33.1 9.35,-66.2 15.46,-104.66 100.58,46.93 193.95,90.48 287.02,133.94z"/>
 <path class="fil8" d="M7389.51 -23758.22c-11.06,69.63 -21.95,137.85 -34.46,216.43 -79.11,-35.6 -147.6,-65.58 -215.29,-97.24 -46.67,-21.78 -67.92,-53.74 -41.32,-106.5 16.2,-32.01 26.43,-67 41.27,-105.68 83.37,31.04 160.77,59.85 249.8,92.99z"/>
 <path class="fil3" d="M8257.86 -24705.01c173.76,-10.62 331.11,153.53 332.12,296.03 1.14,156.6 -146.41,328.65 -311.57,327.12 -210.15,-1.94 -349.32,-143.12 -352.3,-318.87 -2.5,-148.48 147.9,-312.1 331.76,-304.28l-0.01 0z"/>
 <path class="fil3" d="M6972.13 -24408.7c2.15,-154.75 139.34,-300.95 314.99,-303.93 172.7,-2.94 346.43,154.59 348.93,315.26 2.5,160.99 -161.78,317.32 -332.99,319.96 -178.07,2.76 -326.54,-173.46 -330.94,-331.28l0.01 -0.01z"/>
 <path class="fil3" d="M7777.56 -23909.61c-74.11,-0.96 -123.41,-37.79 -122.84,-91.79 0.49,-48.04 59.4,-91.23 124.94,-91.72 71.64,-0.49 124.63,37.15 126.47,89.82 2.03,56.81 -50,94.69 -128.58,93.68l0.01 0.01z"/>
 <path class="fil3" d="M7205.39 -25708.39c-10.18,16.07 -16.94,30.08 -26.73,41.54 -46.8,54.78 -92.64,110.53 -142.73,162.16 -16.5,16.99 -44.74,22.56 -67.56,33.33 -0.66,-27.44 -12.9,-63.67 0.09,-80.78 48.25,-63.62 103.79,-121.92 159.23,-179.7 9.97,-10.35 33.67,-13.86 48.96,-10.66 10.98,2.33 18.48,21.12 28.75,34.11l-0.01 0z"/>
 <path class="fil3" d="M8463.99 -25710.72c39.69,46.46 82.18,90.09 116.95,139.25 18.83,26.61 29.14,61.86 34.37,94.62 2.94,18.52 -12.25,39.95 -19.23,60.06 -19.31,-9.4 -46.27,-13.65 -56.55,-29.07 -41.13,-61.59 -78.05,-126.08 -114.02,-190.92 -7.54,-13.56 -8.2,-33.94 -4.69,-49.52 1.75,-7.82 19.97,-11.95 43.16,-24.42l0.01 0z"/>
 <path class="fil3" d="M7332.49 -25617.39c-41.54,61.59 -82.06,124.28 -126.57,183.99 -4.92,6.53 -35.95,0.56 -48.86,-8.3 -8.79,-6.02 -14.67,-32.32 -8.92,-40.88 38.47,-57.46 79.38,-113.34 122.23,-167.61 6.23,-7.85 28.57,-8.86 40.38,-4.57 8.7,3.12 12.34,20.11 21.74,37.37z"/>
 <path class="fil3" d="M8263.94 -25632.21c23.83,28.01 51.62,47.67 59.97,73.62 11.9,36.87 10.35,78.33 10.98,117.87 0.04,2.46 -44.13,10.98 -45.66,7.33 -21.83,-51.58 -41.23,-104.35 -57.21,-158.05 -2.28,-7.68 16.38,-21.59 31.92,-40.78l0 0.01z"/>
 <path class="fil3" d="M7436.67 -25633.47c25.03,38.73 46.72,60.49 42.59,67.87 -20.41,36.4 -47.64,69.02 -72.44,102.99 -13.79,-14.62 -42.01,-34.68 -38.89,-42.85 14.35,-37.76 37.45,-72.18 68.74,-128.02l0 0.01z"/>
 <path class="fil10" d="M6680.43 -25359.44c0,0 -104.8,223.24 -86.75,326.32l2373.14 0c0,0 -45.4,-251.19 -93.86,-326.32l-2192.53 0z"/>
</symbol>
<symbol id="Fm5-200-0" viewBox="35516.95 -15301.56 4512.72 4512.68">
 <path class="fil0" d="M40029.67 -13045.24c0,1246.1 -1010.26,2256.36 -2256.36,2256.36 -1246.1,0 -2256.36,-1010.26 -2256.36,-2256.36 0,-1246.1 1010.26,-2256.32 2256.36,-2256.32 1246.1,0 2256.36,1010.22 2256.36,2256.32z"/>
</symbol>
<symbol id="Fm40-180-0" viewBox="87224.49 -177122.88 1507.69 6129.87">
 <path class="fil1" d="M87986.34 -176913.8c0,0 139.63,4837.56 -761.85,5920.79 0,0 663.49,-731.23 782.49,-907.14 119,-176.09 725.2,-3782.5 725.2,-3782.5l-459.69 -1440.23 -286.14 209.07 -0.01 0.01z"/>
</symbol>
<symbol id="Fm94-306-0" viewBox="78691.22 -90652.71 4512.72 4512.68">
 <path class="fil0" d="M78691.22 -88396.37c0,-1246.16 1010.18,-2256.34 2256.34,-2256.34 1246.2,0 2256.38,1010.18 2256.38,2256.34 0,1246.2 -1010.18,2256.34 -2256.38,2256.34 -1246.16,0 -2256.34,-1010.14 -2256.34,-2256.34z"/>
</symbol>
<symbol id="Fm109-98-0" viewBox="79438.75 -38867.47 4512.72 4512.76">
 <path class="fil0" d="M79438.75 -36611.09c0,-1246.11 1010.27,-2256.38 2256.38,-2256.38 1246.11,0 2256.34,1010.27 2256.34,2256.38 0,1246.11 -1010.23,2256.38 -2256.34,2256.38 -1246.11,0 -2256.38,-1010.27 -2256.38,-2256.38z"/>
</symbol>
<symbol id="Fm89-286-0" viewBox="49411.93 -128872.19 4512.66 2736.73">
 <path class="fil11" d="M49411.93 -126871.57c0,0 3566.91,-185.88 4418.81,-2000.62 0,0 166.28,559.87 56.17,1012.82 0,0 -52.21,806.29 -2155.56,1507.62 0,0 -1086.85,491.47 -1761.21,-7.3 0,0 -515.52,-317.82 -558.2,-512.53l-0.01 0.01z"/>
</symbol>
<symbol id="Fm61-226-0" viewBox="640045.42 -2025809.52 3244.76 6129.16">
 <path class="fil1" d="M640045.42 -2019680.36c0,0 1524.06,-1368.8 1337.75,-5001.7 -187.6,-3638.07 1907.01,2692.33 1907.01,2692.33l-3244.76 2309.37z"/>
</symbol>
<symbol id="Fm2-134-0" viewBox="23821.06 -14233.41 4512.72 4512.76">
 <path class="fil0" d="M28333.78 -11977.01c0,1246.17 -1010.19,2256.36 -2256.36,2256.36 -1246.21,0 -2256.36,-1010.19 -2256.36,-2256.36 0,-1246.21 1010.15,-2256.4 2256.36,-2256.4 1246.17,0 2256.36,1010.19 2256.36,2256.4z"/>
</symbol>
<symbol id="Fm81-270-0" viewBox="463314.21 -990483.52 4512.72 6007.56">
 <path class="fil1" d="M463314.21 -990483.51c0,0 3024.98,3688.47 3865.55,3820.11l647.17 2159.95c0,0 -47.18,201.55 -605.81,-486.98 -559.21,-686.2 -3906.91,-5493.09 -3906.91,-5493.09l0 0.01z"/>
</symbol>
<symbol id="Fm11-100-0" viewBox="24054.1 -70275.56 4512.72 4512.72">
 <path class="fil0" d="M28566.82 -68019.18c0,1246.16 -1010.18,2256.34 -2256.38,2256.34 -1246.16,0 -2256.34,-1010.18 -2256.34,-2256.34 0,-1246.2 1010.18,-2256.38 2256.34,-2256.38 1246.2,0 2256.38,1010.18 2256.38,2256.38z"/>
</symbol>
 <g id="Capa_x0020_1">
  <metadata id="CorelCorpID_0Corel-Layer"/>
  <rect class="fil12 str0" x="-0" width="5079.99" height="3386.66"/>
  <g id="_2718312447152">
   <path class="fil13" d="M239.28 539.84l0 158.47 -30.79 0 0 -370.93 47.95 0c30.95,0 55.68,7.57 74.19,22.71 22.54,18.16 33.81,45.75 33.81,82.76 0,44.08 -13.46,74.19 -40.38,90.34 -17.83,10.76 -46.09,16.32 -84.78,16.65zm23.72 -175.62l-23.72 0 0 138.78 26.24 0c44.08,0 66.11,-23.38 66.11,-70.15 0,-45.76 -22.87,-68.63 -68.63,-68.63zm144.84 9.59c-5.72,0 -10.43,-2.53 -14.13,-7.57 -3.7,-5.05 -5.55,-11.11 -5.55,-18.17 0,-6.73 1.85,-12.62 5.55,-17.67 3.7,-5.04 8.41,-7.57 14.13,-7.57 5.38,0 10.01,2.53 13.88,7.57 3.87,5.05 5.8,10.94 5.8,17.67 0,7.06 -1.93,13.12 -5.8,18.17 -3.87,5.04 -8.5,7.57 -13.88,7.57zm-13.12 324.5l0 -259.4 28.77 0 0 259.4 -28.77 0zm83.27 0l0 -370.93 28.77 0 0 370.93 -28.77 0zm166.04 8.07c-29.95,0 -54,-13.96 -72.17,-41.88 -17.16,-25.91 -25.74,-57.87 -25.74,-95.89 0,-38.02 8.41,-69.98 25.23,-95.89 17.83,-28.26 41.72,-42.39 71.67,-42.39 29.6,0 53.32,14.13 71.15,42.39 16.83,25.91 25.24,57.7 25.24,95.38 0,38.36 -7.91,70.32 -23.72,95.89 -17.5,28.26 -41.38,42.39 -71.66,42.39zm-1.01 -241.23c-21.2,0 -37.85,10.93 -49.97,32.72 -10.76,19.43 -16.15,43.15 -16.15,70.99 0,27.5 5.39,50.97 16.15,70.49 12.45,22.12 29.11,33.22 49.97,33.22 20.86,0 37.34,-11.44 49.45,-34.23 10.77,-19.77 16.15,-43.83 16.15,-72 0,-27.17 -5.55,-50.39 -16.65,-69.48 -12.11,-21.11 -28.43,-31.71 -48.95,-31.71zm184.7 239.72c-30.95,0 -46.43,-18.67 -46.43,-56.02l0 -277.06 29.28 0 0 66.61 45.42 0 0 33.82 -45.42 0 0 165.02c0,24.23 8.91,36.34 26.74,36.34 2.36,0 5.55,-0.51 9.59,-1.51 2.02,-0.68 6.23,-1.52 12.62,-2.53l0 31.29c-13.46,2.69 -24.06,4.04 -31.8,4.04zm159.48 1.51c-29.95,0 -54,-13.96 -72.17,-41.88 -17.16,-25.91 -25.74,-57.87 -25.74,-95.89 0,-38.02 8.41,-69.98 25.23,-95.89 17.83,-28.26 41.72,-42.39 71.67,-42.39 29.6,0 53.31,14.13 71.14,42.39 16.83,25.91 25.24,57.7 25.24,95.38 0,38.36 -7.91,70.32 -23.72,95.89 -17.5,28.26 -41.37,42.39 -71.65,42.39zm-1.01 -241.23c-21.2,0 -37.85,10.93 -49.97,32.72 -10.76,19.43 -16.15,43.15 -16.15,70.99 0,27.5 5.39,50.97 16.15,70.49 12.45,22.12 29.11,33.22 49.97,33.22 20.86,0 37.34,-11.44 49.45,-34.23 10.76,-19.77 16.14,-43.83 16.14,-72 0,-27.17 -5.55,-50.39 -16.64,-69.48 -12.11,-21.11 -28.43,-31.71 -48.95,-31.71zm368.39 233.16l-8.92 -47.95 -89.66 0 -9 47.95 -28.18 0 65.61 -370.93 33.31 0 68.63 370.93 -31.79 0zm-53.24 -298.6l-38.27 213.81 75.78 0 -37.51 -213.81zm205.65 298.6l-30.79 0 -84.78 -259.4 31.88 0 68.38 207.59 65.78 -207.59 31.79 0 -82.26 259.4zm126.16 -324.5c-5.72,0 -10.43,-2.53 -14.13,-7.57 -3.7,-5.05 -5.55,-11.11 -5.55,-18.17 0,-6.73 1.85,-12.62 5.55,-17.67 3.7,-5.04 8.41,-7.57 14.13,-7.57 5.38,0 10.01,2.53 13.88,7.57 3.87,5.05 5.8,10.94 5.8,17.67 0,7.06 -1.93,13.12 -5.8,18.17 -3.87,5.04 -8.5,7.57 -13.88,7.57zm-13.12 324.5l0 -259.4 28.77 0 0 259.4 -28.77 0zm224.07 0l0 -34.32c-17.16,28.26 -40.37,42.39 -69.64,42.39 -28.26,0 -50.47,-15.81 -66.62,-47.44 -13.79,-26.91 -20.69,-58.54 -20.69,-94.87 0,-36.34 7.74,-66.96 23.22,-91.85 17.15,-27.59 39.86,-41.39 68.13,-41.39 26.91,0 48.78,13.8 65.6,41.39l0 -41.39 28.77 0 0 267.48 -28.77 0zm-62.07 -235.68c-19.18,0 -34.99,10.26 -47.44,30.78 -11.44,18.84 -17.16,41.05 -17.16,66.62 0,28.26 4.37,52.65 13.12,73.18 10.43,25.57 25.57,38.35 45.42,38.35 45.42,0 68.13,-35.83 68.13,-107.49 0,-26.58 -5.04,-49.46 -15.14,-68.64 -11.44,-21.87 -27.08,-32.8 -46.93,-32.8zm283.62 235.68l0 -34.32c-17.16,28.26 -40.37,42.39 -69.64,42.39 -28.26,0 -50.47,-15.81 -66.62,-47.44 -13.79,-26.91 -20.69,-58.54 -20.69,-94.87 0,-36.34 7.74,-66.96 23.22,-91.85 17.15,-27.59 39.86,-41.39 68.13,-41.39 26.91,0 48.78,13.8 65.6,41.39l0 -144.84 28.77 0 0 370.93 -28.77 0zm-62.07 -235.68c-19.18,0 -34.99,10.26 -47.44,30.78 -11.44,18.84 -17.16,41.05 -17.16,66.62 0,28.26 4.37,52.65 13.12,73.18 10.43,25.57 25.57,38.35 45.42,38.35 45.42,0 68.13,-35.83 68.13,-107.49 0,-26.58 -5.04,-49.46 -15.14,-68.64 -11.44,-21.87 -27.08,-32.8 -46.93,-32.8zm227.1 243.75c-29.95,0 -54,-13.96 -72.17,-41.88 -17.16,-25.91 -25.74,-57.87 -25.74,-95.89 0,-38.02 8.41,-69.98 25.23,-95.89 17.83,-28.26 41.72,-42.39 71.67,-42.39 29.6,0 53.32,14.13 71.15,42.39 16.83,25.91 25.24,57.7 25.24,95.38 0,38.36 -7.91,70.32 -23.72,95.89 -17.5,28.26 -41.38,42.39 -71.66,42.39zm-1.01 -241.23c-21.2,0 -37.85,10.93 -49.97,32.72 -10.76,19.43 -16.15,43.15 -16.15,70.99 0,27.5 5.39,50.97 16.15,70.49 12.45,22.12 29.11,33.22 49.97,33.22 20.86,0 37.34,-11.44 49.45,-34.23 10.77,-19.77 16.15,-43.83 16.15,-72 0,-27.17 -5.55,-50.39 -16.65,-69.48 -12.11,-21.11 -28.43,-31.71 -48.95,-31.71zm224.57 -2.52c-19.85,0 -35.49,10.93 -46.93,32.8 -9.76,19.18 -14.64,42.06 -14.64,68.64l0 134.24 -29.27 0 0 -267.48 29.27 0 0 41.39c16.83,-28.27 40.21,-42.06 70.15,-41.39l0 31.8c-3.7,0 -6.56,0 -8.58,0z"/>
   <path class="fil13" d="M2559.96 2502.69l97.47 0 -10.38 19.93 -68.38 0 0.15 49.63c3.48,-0.92 6.9,-1.58 10.27,-2.04 3.33,-0.46 6.6,-0.66 9.77,-0.66 18.29,0 33.22,5.98 44.87,17.88 11.6,11.91 17.43,27.2 17.43,45.9 0,19.22 -6.34,35.42 -19.01,48.46 -12.68,13.08 -28.32,19.62 -46.87,19.62 -9,0 -17.69,-1.79 -26.17,-5.36 -8.49,-3.58 -15.95,-8.64 -22.34,-15.18l10.48 -16.15c5.21,5.46 11.14,9.71 17.84,12.62 6.64,2.96 13.6,4.45 20.75,4.45 12.57,0 23.1,-4.4 31.54,-13.19 8.43,-8.79 12.62,-19.83 12.62,-33.12 0,-14.11 -4.34,-25.51 -13.03,-34.19 -8.64,-8.69 -20.09,-13.04 -34.25,-13.04 -5.26,0 -10.58,0.82 -15.84,2.4 -5.32,1.59 -10.94,4.04 -16.92,7.36l0 -95.32zm170.56 0l97.47 0 -10.38 19.93 -68.38 0 0.15 49.63c3.48,-0.92 6.9,-1.58 10.27,-2.04 3.33,-0.46 6.6,-0.66 9.77,-0.66 18.29,0 33.22,5.98 44.87,17.88 11.6,11.91 17.43,27.2 17.43,45.9 0,19.22 -6.34,35.42 -19.01,48.46 -12.68,13.08 -28.32,19.62 -46.87,19.62 -9,0 -17.69,-1.79 -26.17,-5.36 -8.49,-3.58 -15.95,-8.64 -22.34,-15.18l10.48 -16.15c5.21,5.46 11.14,9.71 17.84,12.62 6.64,2.96 13.6,4.45 20.75,4.45 12.57,0 23.1,-4.4 31.54,-13.19 8.43,-8.79 12.62,-19.83 12.62,-33.12 0,-14.11 -4.34,-25.51 -13.03,-34.19 -8.64,-8.69 -20.09,-13.04 -34.25,-13.04 -5.26,0 -10.58,0.82 -15.84,2.4 -5.32,1.59 -10.94,4.04 -16.92,7.36l0 -95.32zm239.81 20.24l0 -20.24 116.23 0 -66.65 196.27 -22.9 1.53 62.62 -177.56 -89.3 0zm251.17 74.78c10.47,3.47 18.6,9.3 24.43,17.48 5.82,8.18 8.74,17.94 8.74,29.18 0,16.31 -5.73,29.9 -17.12,40.89 -11.45,10.99 -25.82,16.46 -43.04,16.46 -11.09,0 -21.26,-2.61 -30.51,-7.77 -9.2,-5.16 -17.02,-12.57 -23.41,-22.23l14.97 -14.98c4.4,8.18 9.97,14.36 16.67,18.5 6.69,4.14 14.41,6.24 23.2,6.24 11.19,0 20.29,-3.48 27.29,-10.43 7.01,-6.95 10.48,-15.89 10.48,-26.88 0,-10.99 -3.68,-19.73 -11.04,-26.22 -7.31,-6.49 -17.22,-9.76 -29.75,-9.76l-15.69 0 0 -20.24 15.13 0c12.78,0 22.8,-3.02 30.11,-9.05 7.31,-6.03 10.93,-14.31 10.93,-24.79 0,-9.46 -3.37,-17.48 -10.17,-24.07 -6.79,-6.6 -15.23,-9.87 -25.35,-9.87 -7.46,0 -14.46,1.74 -20.9,5.21 -6.44,3.53 -12.27,8.69 -17.43,15.59l-14.88 -12.57c7.21,-9.1 15.39,-16.1 24.54,-21.06 9.15,-4.96 18.55,-7.41 28.26,-7.41 16.67,0 30.31,5.01 40.89,15.03 10.58,10.07 15.9,22.79 15.9,38.28 0,10.68 -2.86,19.99 -8.64,28.01 -5.72,7.97 -13.6,13.44 -23.61,16.46zm89.95 -74.78l0 -20.24 116.22 0 -66.64 196.27 -22.9 1.53 62.61 -177.56 -89.29 0zm251.16 74.78c10.47,3.47 18.6,9.3 24.43,17.48 5.82,8.18 8.74,17.94 8.74,29.18 0,16.31 -5.73,29.9 -17.12,40.89 -11.45,10.99 -25.82,16.46 -43.04,16.46 -11.09,0 -21.26,-2.61 -30.51,-7.77 -9.2,-5.16 -17.02,-12.57 -23.41,-22.23l14.97 -14.98c4.4,8.18 9.97,14.36 16.67,18.5 6.69,4.14 14.41,6.24 23.2,6.24 11.19,0 20.29,-3.48 27.29,-10.43 7.01,-6.95 10.48,-15.89 10.48,-26.88 0,-10.99 -3.68,-19.73 -11.04,-26.22 -7.31,-6.49 -17.22,-9.76 -29.75,-9.76l-15.69 0 0 -20.24 15.13 0c12.78,0 22.8,-3.02 30.11,-9.05 7.31,-6.03 10.93,-14.31 10.93,-24.79 0,-9.46 -3.37,-17.48 -10.17,-24.07 -6.79,-6.6 -15.23,-9.87 -25.35,-9.87 -7.46,0 -14.46,1.74 -20.9,5.21 -6.44,3.53 -12.27,8.69 -17.43,15.59l-14.88 -12.57c7.21,-9.1 15.39,-16.1 24.54,-21.06 9.15,-4.96 18.55,-7.41 28.26,-7.41 16.67,0 30.31,5.01 40.89,15.03 10.58,10.07 15.9,22.79 15.9,38.28 0,10.68 -2.86,19.99 -8.64,28.01 -5.72,7.97 -13.6,13.44 -23.61,16.46zm255.76 0c10.47,3.47 18.6,9.3 24.43,17.48 5.82,8.18 8.74,17.94 8.74,29.18 0,16.31 -5.73,29.9 -17.12,40.89 -11.45,10.99 -25.82,16.46 -43.04,16.46 -11.09,0 -21.26,-2.61 -30.51,-7.77 -9.2,-5.16 -17.02,-12.57 -23.41,-22.23l14.97 -14.98c4.4,8.18 9.97,14.36 16.67,18.5 6.69,4.14 14.41,6.24 23.2,6.24 11.19,0 20.29,-3.48 27.29,-10.43 7.01,-6.95 10.48,-15.89 10.48,-26.88 0,-10.99 -3.68,-19.73 -11.04,-26.22 -7.31,-6.49 -17.22,-9.76 -29.75,-9.76l-15.69 0 0 -20.24 15.13 0c12.78,0 22.8,-3.02 30.11,-9.05 7.31,-6.03 10.93,-14.31 10.93,-24.79 0,-9.46 -3.37,-17.48 -10.17,-24.07 -6.79,-6.6 -15.23,-9.87 -25.35,-9.87 -7.46,0 -14.46,1.74 -20.9,5.21 -6.44,3.53 -12.27,8.69 -17.43,15.59l-14.88 -12.57c7.21,-9.1 15.39,-16.1 24.54,-21.06 9.15,-4.96 18.55,-7.41 28.26,-7.41 16.67,0 30.31,5.01 40.89,15.03 10.58,10.07 15.9,22.79 15.9,38.28 0,10.68 -2.86,19.99 -8.64,28.01 -5.72,7.97 -13.6,13.44 -23.61,16.46zm89.95 -74.78l0 -20.24 116.23 0 -66.65 196.27 -22.9 1.53 62.62 -177.56 -89.3 0zm194.07 107.03l54.39 0 0.92 -81.47 -55.31 81.47zm-22.89 18.09l0 -12.26 96.9 -141.69 0 135.86 26.68 0 0 18.09 -26.68 0 0 49.99 -19.62 1.53 0 -51.52 -77.28 0zm169.94 -125.12l0 -20.24 116.23 0 -66.65 196.27 -22.9 1.53 62.62 -177.56 -89.3 0zm-2919.62 380.83l-7.05 16.92c-6.18,-3.37 -11.55,-5.78 -16.15,-7.16 -4.6,-1.38 -9.46,-2.09 -14.57,-2.09 -11.45,0 -21.11,4.04 -28.98,12.16 -7.82,8.13 -11.75,18.2 -11.75,30.16 0,11.86 3.88,21.77 11.7,29.75 7.77,7.97 17.48,11.96 29.03,11.96 5.42,0 10.79,-0.97 16.05,-2.92 5.32,-1.94 10.68,-4.85 16.2,-8.74l6.14 17.48c-5.98,4.19 -12.32,7.47 -19.02,9.77 -6.69,2.3 -13.18,3.42 -19.57,3.42 -16.97,0 -31.28,-5.93 -42.94,-17.74 -11.7,-11.85 -17.53,-26.16 -17.53,-43.08 0,-16.97 5.83,-31.28 17.43,-43.04 11.6,-11.7 25.97,-17.58 43.04,-17.58 6.49,0 12.93,0.92 19.37,2.71 6.44,1.84 12.62,4.5 18.6,8.02zm56.99 46c-6.79,0 -12.67,2.35 -17.68,7.11 -4.96,4.75 -7.46,10.32 -7.46,16.81 0,6.9 2.4,12.68 7.25,17.43 4.86,4.76 10.79,7.11 17.89,7.11 7.11,0 12.99,-2.35 17.74,-7.06 4.75,-4.65 7.1,-10.37 7.1,-17.17 0,-6.7 -2.4,-12.37 -7.2,-17.12 -4.76,-4.76 -10.63,-7.11 -17.64,-7.11zm43.24 -20.6l0 80.71 -17.78 3.37 0 -14.41c-3.53,5.06 -7.82,8.94 -13.04,11.6 -5.16,2.71 -10.93,4.04 -17.22,4.04 -11.14,0 -20.39,-3.83 -27.75,-11.45 -7.31,-7.61 -10.99,-17.33 -10.99,-29.08 0,-11.4 3.83,-20.86 11.45,-28.47 7.61,-7.57 17.42,-11.35 29.38,-11.35 5.73,0 10.89,1.18 15.49,3.48 4.65,2.3 8.59,5.67 11.76,10.07l0 -17.33c0,-6.59 -1.79,-11.3 -5.37,-14.11 -3.63,-2.81 -9.81,-4.19 -18.55,-4.19 -3.73,0 -7.57,0.21 -11.55,0.67 -3.99,0.46 -8.08,1.12 -12.27,2.04l4.65 -18.71c5.67,-0.51 10.53,-0.86 14.52,-1.12 3.98,-0.26 7.36,-0.36 10.17,-0.36 14.16,0 23.87,2.4 29.18,7.21 5.27,4.75 7.92,13.9 7.92,27.39zm53.11 63.79l0 68.13 -19.32 2.76 0 -164.98 19.32 -2.76 0 19.98c5.22,-7.16 11.55,-12.68 19.02,-16.56 7.46,-3.94 15.54,-5.88 24.12,-5.88 16.26,0 30.06,5.88 41.4,17.58 11.3,11.76 16.97,26.17 16.97,43.35 0,16.2 -5.83,30.15 -17.53,41.91 -11.65,11.81 -25.71,17.68 -42.06,17.68 -9.1,0 -17.18,-1.84 -24.33,-5.47 -7.11,-3.62 -12.99,-8.89 -17.59,-15.74zm40.79 -81.52c-11.5,0 -21.16,4.09 -29.03,12.27 -7.82,8.17 -11.76,18.19 -11.76,30.05 0,11.86 3.94,21.88 11.76,30.05 7.87,8.18 17.53,12.27 29.03,12.27 11.4,0 21.06,-4.14 28.93,-12.42 7.92,-8.28 11.86,-18.25 11.86,-29.9 0,-11.65 -3.94,-21.62 -11.86,-29.9 -7.87,-8.28 -17.53,-12.42 -28.93,-12.42zm112.34 72.37l15.54 15.59 -15.54 15.69 -15.74 -15.69 15.74 -15.59zm78.96 9.15l0 68.13 -19.32 2.76 0 -164.98 19.32 -2.76 0 19.98c5.22,-7.16 11.55,-12.68 19.02,-16.56 7.46,-3.94 15.54,-5.88 24.12,-5.88 16.26,0 30.06,5.88 41.4,17.58 11.3,11.76 16.97,26.17 16.97,43.35 0,16.2 -5.83,30.15 -17.53,41.91 -11.65,11.81 -25.71,17.68 -42.06,17.68 -9.1,0 -17.18,-1.84 -24.33,-5.47 -7.11,-3.62 -12.99,-8.89 -17.59,-15.74zm40.79 -81.52c-11.5,0 -21.16,4.09 -29.03,12.27 -7.82,8.17 -11.76,18.19 -11.76,30.05 0,11.86 3.94,21.88 11.76,30.05 7.87,8.18 17.53,12.27 29.03,12.27 11.4,0 21.06,-4.14 28.93,-12.42 7.92,-8.28 11.86,-18.25 11.86,-29.9 0,-11.65 -3.94,-21.62 -11.86,-29.9 -7.87,-8.28 -17.53,-12.42 -28.93,-12.42zm112.34 72.37l15.54 15.59 -15.54 15.69 -15.74 -15.69 15.74 -15.59zm95.52 -34.04c-6.79,0 -12.67,2.35 -17.68,7.11 -4.96,4.75 -7.46,10.32 -7.46,16.81 0,6.9 2.4,12.68 7.25,17.43 4.86,4.76 10.79,7.11 17.89,7.11 7.11,0 12.99,-2.35 17.74,-7.06 4.75,-4.65 7.1,-10.37 7.1,-17.17 0,-6.7 -2.4,-12.37 -7.2,-17.12 -4.76,-4.76 -10.63,-7.11 -17.64,-7.11zm43.24 -20.6l0 80.71 -17.78 3.37 0 -14.41c-3.53,5.06 -7.82,8.94 -13.04,11.6 -5.16,2.71 -10.93,4.04 -17.22,4.04 -11.14,0 -20.39,-3.83 -27.75,-11.45 -7.31,-7.61 -10.99,-17.33 -10.99,-29.08 0,-11.4 3.83,-20.86 11.45,-28.47 7.61,-7.57 17.42,-11.35 29.38,-11.35 5.73,0 10.89,1.18 15.49,3.48 4.65,2.3 8.59,5.67 11.76,10.07l0 -17.33c0,-6.59 -1.79,-11.3 -5.37,-14.11 -3.63,-2.81 -9.81,-4.19 -18.55,-4.19 -3.73,0 -7.57,0.21 -11.55,0.67 -3.99,0.46 -8.08,1.12 -12.27,2.04l4.65 -18.71c5.67,-0.51 10.53,-0.86 14.52,-1.12 3.98,-0.26 7.36,-0.36 10.17,-0.36 14.16,0 23.87,2.4 29.18,7.21 5.27,4.75 7.92,13.9 7.92,27.39zm59.35 54.64l15.54 15.59 -15.54 15.69 -15.74 -15.69 15.74 -15.59zm95.52 -34.04c-6.79,0 -12.67,2.35 -17.68,7.11 -4.96,4.75 -7.46,10.32 -7.46,16.81 0,6.9 2.4,12.68 7.25,17.43 4.86,4.76 10.79,7.11 17.89,7.11 7.11,0 12.99,-2.35 17.74,-7.06 4.75,-4.65 7.1,-10.37 7.1,-17.17 0,-6.7 -2.4,-12.37 -7.2,-17.12 -4.76,-4.76 -10.63,-7.11 -17.64,-7.11zm43.24 -20.6l0 80.71 -17.78 3.37 0 -14.41c-3.53,5.06 -7.82,8.94 -13.04,11.6 -5.16,2.71 -10.93,4.04 -17.22,4.04 -11.14,0 -20.39,-3.83 -27.75,-11.45 -7.31,-7.61 -10.99,-17.33 -10.99,-29.08 0,-11.4 3.83,-20.86 11.45,-28.47 7.61,-7.57 17.42,-11.35 29.38,-11.35 5.73,0 10.89,1.18 15.49,3.48 4.65,2.3 8.59,5.67 11.76,10.07l0 -17.33c0,-6.59 -1.79,-11.3 -5.37,-14.11 -3.63,-2.81 -9.81,-4.19 -18.55,-4.19 -3.73,0 -7.57,0.21 -11.55,0.67 -3.99,0.46 -8.08,1.12 -12.27,2.04l4.65 -18.71c5.67,-0.51 10.53,-0.86 14.52,-1.12 3.98,-0.26 7.36,-0.36 10.17,-0.36 14.16,0 23.87,2.4 29.18,7.21 5.27,4.75 7.92,13.9 7.92,27.39zm84.09 -34.29l0 20.55 -4.65 0c-8.49,0 -14.98,3.01 -19.53,9.04 -4.55,6.03 -6.8,14.72 -6.8,25.97l0 60.36 -19.32 2.76 0 -114.69 19.32 -2.76 0 17.83c3.68,-6.23 8.18,-10.93 13.45,-14.21 5.31,-3.22 11.14,-4.85 17.53,-4.85zm56.42 54.89c-6.79,0 -12.67,2.35 -17.68,7.11 -4.96,4.75 -7.46,10.32 -7.46,16.81 0,6.9 2.4,12.68 7.25,17.43 4.86,4.76 10.79,7.11 17.89,7.11 7.11,0 12.99,-2.35 17.74,-7.06 4.75,-4.65 7.1,-10.37 7.1,-17.17 0,-6.7 -2.4,-12.37 -7.2,-17.12 -4.76,-4.76 -10.63,-7.11 -17.64,-7.11zm43.24 -20.6l0 80.71 -17.78 3.37 0 -14.41c-3.53,5.06 -7.82,8.94 -13.04,11.6 -5.16,2.71 -10.93,4.04 -17.22,4.04 -11.14,0 -20.39,-3.83 -27.75,-11.45 -7.31,-7.61 -10.99,-17.33 -10.99,-29.08 0,-11.4 3.83,-20.86 11.45,-28.47 7.61,-7.57 17.42,-11.35 29.38,-11.35 5.73,0 10.89,1.18 15.49,3.48 4.65,2.3 8.59,5.67 11.76,10.07l0 -17.33c0,-6.59 -1.79,-11.3 -5.37,-14.11 -3.63,-2.81 -9.81,-4.19 -18.55,-4.19 -3.73,0 -7.57,0.21 -11.55,0.67 -3.99,0.46 -8.08,1.12 -12.27,2.04l4.65 -18.71c5.67,-0.51 10.53,-0.86 14.52,-1.12 3.98,-0.26 7.36,-0.36 10.17,-0.36 14.16,0 23.87,2.4 29.18,7.21 5.27,4.75 7.92,13.9 7.92,27.39zm111.18 -15.58c3.98,-6.09 8.79,-10.84 14.41,-14.21 5.62,-3.43 11.45,-5.11 17.43,-5.11 11.4,0 19.73,3.73 25.04,11.14 5.37,7.46 8.03,19.27 8.03,35.42l0 69.97 -19.63 2.76 0 -70.02c0,-10.48 -1.53,-18.15 -4.55,-23 -3.06,-4.86 -7.77,-7.26 -14.16,-7.26 -7.56,0 -13.34,2.91 -17.32,8.74 -3.99,5.88 -5.98,14.36 -5.98,25.55l0 63.23 -19.32 2.76 0 -70.02c0,-10.58 -1.48,-18.3 -4.5,-23.05 -3.02,-4.81 -7.87,-7.21 -14.57,-7.21 -7.41,0 -13.08,2.91 -17.02,8.69 -3.93,5.77 -5.93,14.1 -5.93,24.99l0 63.84 -19.32 2.76 0 -114.69 19.32 -2.76 0 15.23c3.43,-5.27 7.87,-9.51 13.34,-12.68 5.52,-3.12 11.15,-4.7 16.97,-4.7 6.19,0 11.66,1.69 16.41,5.11 4.75,3.37 8.54,8.23 11.35,14.52zm154.76 -1.84c-11.45,0 -21.16,4.08 -29.19,12.26 -7.97,8.18 -11.96,18.2 -11.96,30.06 0,11.75 3.99,21.77 11.91,30 7.93,8.23 17.69,12.32 29.24,12.32 11.4,0 21.01,-4.09 28.93,-12.27 7.87,-8.18 11.8,-17.99 11.8,-29.44 0,-11.96 -3.98,-22.13 -11.9,-30.46 -7.93,-8.33 -17.54,-12.47 -28.83,-12.47zm-40.84 -123.59l0 127.01c4.91,-6.8 11.04,-12.06 18.4,-15.69 7.41,-3.68 15.39,-5.52 23.97,-5.52 16.36,0 30.21,5.93 41.56,17.73 11.29,11.86 16.96,26.22 16.96,43.19 0,16.97 -5.82,31.13 -17.42,42.53 -11.66,11.4 -26.28,17.07 -43.96,17.07 -9.66,0 -18.6,-2.04 -26.78,-6.08 -8.18,-4.04 -14.98,-9.66 -20.4,-16.97 -4.29,-5.88 -7.36,-12.32 -9.2,-19.42 -1.84,-7.06 -2.76,-18.05 -2.76,-32.92l0 -3.12 0 -144.75 19.63 -3.06zm145.62 107.03l0 67.82c0,10.79 1.94,18.86 5.77,24.33 3.84,5.42 9.66,8.13 17.43,8.13 8.69,0 15.64,-3.07 20.86,-9.2 5.16,-6.14 7.76,-14.42 7.76,-24.89l0 -63.13 19.32 -3.06 0 114.38 -19.32 2.76 0 -16.25c-3.98,5.57 -9.09,9.97 -15.38,13.24 -6.29,3.22 -12.93,4.85 -19.88,4.85 -12.27,0 -21.37,-3.78 -27.3,-11.34 -5.93,-7.62 -8.89,-19.27 -8.89,-35.01l0 -69.57 19.63 -3.06zm155.74 -0.31l0 20.55 -4.65 0c-8.49,0 -14.98,3.01 -19.53,9.04 -4.55,6.03 -6.8,14.72 -6.8,25.97l0 60.36 -19.32 2.76 0 -114.69 19.32 -2.76 0 17.83c3.68,-6.23 8.18,-10.93 13.45,-14.21 5.31,-3.22 11.14,-4.85 17.53,-4.85zm72.98 16.56c-11.39,0 -21.05,4.09 -28.93,12.32 -7.92,8.23 -11.85,18.24 -11.85,30 0,11.86 3.93,21.88 11.75,30.05 7.87,8.18 17.53,12.27 29.03,12.27 11.3,0 20.86,-4.14 28.73,-12.42 7.82,-8.28 11.75,-18.25 11.75,-29.9 0,-11.65 -3.93,-21.62 -11.75,-29.9 -7.87,-8.28 -17.43,-12.42 -28.73,-12.42zm-0.2 -18.71c16.76,0 31.02,5.98 42.88,17.89 11.81,11.96 17.74,26.27 17.74,43.04 0,16.81 -5.88,31.12 -17.69,42.98 -11.75,11.91 -26.06,17.84 -42.93,17.84 -16.92,0 -31.18,-5.93 -42.93,-17.74 -11.71,-11.85 -17.59,-26.16 -17.59,-43.08 0,-16.87 5.88,-31.23 17.59,-43.09 11.75,-11.91 26.01,-17.84 42.93,-17.84zm264.65 -5.72l9.15 -19.37 11.96 0 -20.49 82.85c-0.97,3.63 -1.74,6.85 -2.3,9.66 -0.57,2.86 -0.82,5.01 -0.82,6.54 0,4.4 1.48,7.77 4.55,10.17 3.06,2.4 7.36,3.58 12.93,3.58 4.8,0 9.81,-0.97 14.97,-2.91 5.22,-1.95 10.33,-4.76 15.44,-8.49 10.07,-7.36 18.15,-17.68 24.23,-30.97 6.08,-13.29 9.15,-27.4 9.15,-42.27 0,-27.24 -9.97,-49.22 -29.85,-65.83 -19.94,-16.61 -46.16,-24.95 -78.66,-24.95 -16.77,0 -32.31,2.41 -46.52,7.21 -14.2,4.75 -27.14,11.96 -38.69,21.52 -15.38,12.78 -26.93,27.65 -34.75,44.52 -7.77,16.86 -11.66,35.57 -11.66,56.12 0,32.66 11.04,58.73 33.18,78.2 22.08,19.47 51.62,29.18 88.52,29.18 16.1,0 32.25,-2.5 48.51,-7.56 16.25,-5.01 31.17,-12.11 44.77,-21.31l4.34 6.74c-14.56,10.94 -30,19.17 -46.2,24.64 -16.2,5.47 -33.17,8.23 -50.86,8.23 -18.65,0 -35.78,-2.3 -51.36,-6.95 -15.54,-4.66 -29.39,-11.56 -41.46,-20.76 -15.18,-11.44 -26.47,-24.84 -33.93,-40.02 -7.42,-15.23 -11.15,-32.61 -11.15,-52.18 0,-16.15 2.51,-31.49 7.57,-45.95 5.06,-14.46 12.42,-27.7 22.08,-39.66 14.36,-17.48 31.64,-30.72 51.77,-39.77 20.09,-9.04 42.53,-13.54 67.32,-13.54 15.95,0 31.18,2.2 45.59,6.59 14.41,4.4 26.83,10.58 37.21,18.55 12.78,9.82 22.49,21.11 29.08,33.94 6.6,12.83 9.87,26.68 9.87,41.56 0,16.86 -3.17,32.25 -9.46,46.1 -6.29,13.9 -15.28,25.45 -27.09,34.76 -6.69,5.36 -13.95,9.5 -21.77,12.36 -7.87,2.82 -15.8,4.25 -23.92,4.25 -9.46,0 -16.61,-1.84 -21.47,-5.47 -4.85,-3.63 -7.26,-9.05 -7.26,-16.2 0,-1.23 0.16,-2.92 0.41,-5.12 0.1,-0.25 0.16,-0.51 0.16,-0.71 -4.86,8.74 -11.1,15.54 -18.71,20.34 -7.57,4.75 -15.9,7.16 -24.89,7.16 -15.34,0 -27.04,-4.14 -34.96,-12.42 -7.93,-8.28 -11.91,-20.45 -11.91,-36.45 0,-22.74 6.69,-42.01 20.14,-57.8 13.44,-15.8 29.74,-23.67 48.91,-23.67 9.51,0 17.48,2.15 23.97,6.49 6.49,4.3 11.3,10.63 14.36,19.07zm-12.57 53.92l9.46 -38.03c-2.2,-9.91 -6.29,-17.43 -12.22,-22.64 -5.93,-5.16 -13.49,-7.77 -22.64,-7.77 -15.18,0 -27.96,6.9 -38.29,20.65 -10.32,13.8 -15.48,30.77 -15.48,50.91 0,11.5 2.86,20.49 8.58,26.99 5.78,6.49 13.7,9.71 23.92,9.71 11.04,0 20.86,-3.63 29.34,-10.84 8.49,-7.26 14.26,-16.92 17.33,-28.98zm183.58 -28.57c-8.12,0 -14.97,2.71 -20.6,8.07 -5.67,5.42 -8.48,12.02 -8.48,19.84 0,7.71 2.81,14.2 8.38,19.57 5.62,5.37 12.37,8.03 20.4,8.03 8.07,0 14.97,-2.71 20.65,-8.08 5.67,-5.42 8.53,-11.81 8.53,-19.22 0,-7.82 -2.76,-14.46 -8.33,-19.98 -5.52,-5.47 -12.37,-8.23 -20.55,-8.23zm50.6 -17.79l-5.26 15.23c-0.51,0 -1.18,0.05 -2.05,0.16 -0.81,0.1 -1.48,0.15 -1.84,0.15l-3.47 0 -3.27 0c4.39,3.99 7.82,8.64 10.22,13.95 2.4,5.32 3.58,10.79 3.58,16.51 0,7.77 -2.3,14.93 -6.85,21.37 -4.55,6.44 -10.63,11.19 -18.35,14.31 7.46,4.6 13.19,10.12 17.12,16.51 3.94,6.44 5.93,13.59 5.93,21.52 0,13.74 -4.7,24.94 -14.16,33.58 -9.4,8.63 -21.67,12.93 -36.75,12.93 -8.38,0 -16.3,-1.95 -23.76,-5.78 -7.52,-3.83 -13.7,-9.15 -18.61,-16.05l11.4 -16.2c3.27,6.29 7.72,11.24 13.34,14.82 5.57,3.63 11.65,5.42 18.25,5.42 9.25,0 16.81,-2.66 22.59,-7.92 5.77,-5.32 8.69,-12.12 8.69,-20.5 0,-8.12 -2.66,-14.82 -7.92,-20.24 -5.32,-5.36 -11.91,-8.07 -19.78,-8.07 -5.17,0 -9.97,1.02 -14.37,3.01 -4.39,2 -8.58,5.06 -12.57,9.25l-9.71 -12.88c2.4,-1.89 4.65,-3.52 6.8,-5.01 2.14,-1.43 3.93,-2.5 5.31,-3.22 -7.67,-4.08 -13.54,-9.3 -17.53,-15.64 -3.99,-6.33 -5.98,-13.59 -5.98,-21.82 0,-13.39 4.75,-24.28 14.21,-32.71 9.51,-8.44 21.93,-12.68 37.31,-12.68 1.48,0 5.06,0.26 10.63,0.77 5.62,0.46 10.43,0.71 14.52,0.71 1.84,0 4.24,-0.1 7.31,-0.3 3.01,-0.21 8.02,-0.56 15.02,-1.18zm105.04 19.02c3.98,-6.09 8.79,-10.84 14.41,-14.21 5.62,-3.43 11.45,-5.11 17.43,-5.11 11.4,0 19.73,3.73 25.04,11.14 5.37,7.46 8.03,19.27 8.03,35.42l0 69.97 -19.63 2.76 0 -70.02c0,-10.48 -1.53,-18.15 -4.55,-23 -3.06,-4.86 -7.77,-7.26 -14.16,-7.26 -7.56,0 -13.34,2.91 -17.32,8.74 -3.99,5.88 -5.98,14.36 -5.98,25.55l0 63.23 -19.32 2.76 0 -70.02c0,-10.58 -1.48,-18.3 -4.5,-23.05 -3.02,-4.81 -7.87,-7.21 -14.57,-7.21 -7.41,0 -13.08,2.91 -17.02,8.69 -3.93,5.77 -5.93,14.1 -5.93,24.99l0 63.84 -19.32 2.76 0 -114.69 19.32 -2.76 0 15.23c3.43,-5.27 7.87,-9.51 13.34,-12.68 5.52,-3.12 11.15,-4.7 16.97,-4.7 6.19,0 11.66,1.69 16.41,5.11 4.75,3.37 8.54,8.23 11.35,14.52zm133.85 36.18c-6.79,0 -12.67,2.35 -17.68,7.11 -4.96,4.75 -7.46,10.32 -7.46,16.81 0,6.9 2.4,12.68 7.25,17.43 4.86,4.76 10.79,7.11 17.89,7.11 7.11,0 12.99,-2.35 17.74,-7.06 4.75,-4.65 7.1,-10.37 7.1,-17.17 0,-6.7 -2.4,-12.37 -7.2,-17.12 -4.76,-4.76 -10.63,-7.11 -17.64,-7.11zm43.24 -20.6l0 80.71 -17.78 3.37 0 -14.41c-3.53,5.06 -7.82,8.94 -13.04,11.6 -5.16,2.71 -10.93,4.04 -17.22,4.04 -11.14,0 -20.39,-3.83 -27.75,-11.45 -7.31,-7.61 -10.99,-17.33 -10.99,-29.08 0,-11.4 3.83,-20.86 11.45,-28.47 7.61,-7.57 17.42,-11.35 29.38,-11.35 5.73,0 10.89,1.18 15.49,3.48 4.65,2.3 8.59,5.67 11.76,10.07l0 -17.33c0,-6.59 -1.79,-11.3 -5.37,-14.11 -3.63,-2.81 -9.81,-4.19 -18.55,-4.19 -3.73,0 -7.57,0.21 -11.55,0.67 -3.99,0.46 -8.08,1.12 -12.27,2.04l4.65 -18.71c5.67,-0.51 10.53,-0.86 14.52,-1.12 3.98,-0.26 7.36,-0.36 10.17,-0.36 14.16,0 23.87,2.4 29.18,7.21 5.27,4.75 7.92,13.9 7.92,27.39zm54.34 -33.98l0 115.61 -19.32 2.76 0 -115.31 19.32 -3.06zm-9.86 -60.11l15.69 15.69 -15.69 15.59 -15.29 -15.59 15.29 -15.69zm66.03 -46.92l0 222.64 -19.32 2.76 0 -222.34 19.32 -3.06zm61.18 195.65l15.54 15.59 -15.54 15.69 -15.74 -15.69 15.74 -15.59zm149.8 -80.04l-7.05 16.92c-6.18,-3.37 -11.55,-5.78 -16.15,-7.16 -4.6,-1.38 -9.46,-2.09 -14.57,-2.09 -11.45,0 -21.11,4.04 -28.98,12.16 -7.82,8.13 -11.75,18.2 -11.75,30.16 0,11.86 3.88,21.77 11.7,29.75 7.77,7.97 17.48,11.96 29.03,11.96 5.42,0 10.79,-0.97 16.05,-2.92 5.32,-1.94 10.68,-4.85 16.2,-8.74l6.14 17.48c-5.98,4.19 -12.32,7.47 -19.02,9.77 -6.69,2.3 -13.18,3.42 -19.57,3.42 -16.97,0 -31.28,-5.93 -42.94,-17.74 -11.7,-11.85 -17.53,-26.16 -17.53,-43.08 0,-16.97 5.83,-31.28 17.43,-43.04 11.6,-11.7 25.97,-17.58 43.04,-17.58 6.49,0 12.93,0.92 19.37,2.71 6.44,1.84 12.62,4.5 18.6,8.02zm73.55 7.67c-11.39,0 -21.05,4.09 -28.93,12.32 -7.92,8.23 -11.85,18.24 -11.85,30 0,11.86 3.93,21.88 11.75,30.05 7.87,8.18 17.53,12.27 29.03,12.27 11.3,0 20.86,-4.14 28.73,-12.42 7.82,-8.28 11.75,-18.25 11.75,-29.9 0,-11.65 -3.93,-21.62 -11.75,-29.9 -7.87,-8.28 -17.43,-12.42 -28.73,-12.42zm-0.2 -18.71c16.76,0 31.02,5.98 42.88,17.89 11.81,11.96 17.74,26.27 17.74,43.04 0,16.81 -5.88,31.12 -17.69,42.98 -11.75,11.91 -26.06,17.84 -42.93,17.84 -16.92,0 -31.18,-5.93 -42.93,-17.74 -11.71,-11.85 -17.59,-26.16 -17.59,-43.08 0,-16.87 5.88,-31.23 17.59,-43.09 11.75,-11.91 26.01,-17.84 42.93,-17.84z"/>
   <path class="fil13" d="M4315.59 2913.58c3.98,-6.09 8.79,-10.84 14.41,-14.21 5.62,-3.43 11.45,-5.11 17.43,-5.11 11.4,0 19.73,3.73 25.04,11.14 5.37,7.46 8.03,19.27 8.03,35.42l0 69.97 -19.63 2.76 0 -70.02c0,-10.48 -1.53,-18.15 -4.55,-23 -3.06,-4.86 -7.77,-7.26 -14.16,-7.26 -7.56,0 -13.34,2.91 -17.32,8.74 -3.99,5.88 -5.98,14.36 -5.98,25.55l0 63.23 -19.32 2.76 0 -70.02c0,-10.58 -1.48,-18.3 -4.5,-23.05 -3.02,-4.81 -7.87,-7.21 -14.57,-7.21 -7.41,0 -13.08,2.91 -17.02,8.69 -3.93,5.77 -5.93,14.1 -5.93,24.99l0 63.84 -19.32 2.76 0 -114.69 19.32 -2.76 0 15.23c3.43,-5.27 7.87,-9.51 13.34,-12.68 5.52,-3.12 11.15,-4.7 16.97,-4.7 6.19,0 11.66,1.69 16.41,5.11 4.75,3.37 8.54,8.23 11.35,14.52z"/>
   <path class="fil14" d="M4683.19 2321.04c0,56.63 83.84,25.25 -26.88,135.94 -115.67,115.64 -89.1,29.95 -135.93,29.95 -27.71,0 -79.88,36.42 -79.88,61.44 0,26.87 1.4,27.64 22.27,48.39 23.35,23.22 17.99,22.26 57.61,22.26 34.85,0 82.55,-26.75 106.24,-41.21 28.74,-17.53 58.47,-45.17 81.91,-68.61 46.88,-46.88 106.75,-123.58 106.75,-197.37 0,-23.79 -11.46,-31.4 -23.79,-43.79 -32.6,-32.79 -55.09,-33.47 -86.12,4.53 -10.34,12.66 -22.18,26.82 -22.18,48.47z"/>
   <path class="fil14" d="M4450.63 2994.83c0,15.85 12.79,24.57 27.65,24.57l365.56 0c12,0 27.65,-11.72 27.65,-21.5l0 -181.24c-22.67,0 -72.79,33.37 -106.5,50.17 -128.1,63.85 -77.2,65.29 -209.91,-1.02 -8.22,-4.11 -16.38,-8.19 -24.6,-12.27 -20.92,-10.37 -57.79,-36.39 -79.85,-36.88l0 178.17z"/>
   <path class="fil14" d="M4450.63 2752.15c0,22.11 40.56,36.91 68.65,51.15 33.17,16.81 113.39,68.65 143.32,68.65 14.34,0 20.97,-4.12 30.18,-9.75l131.65 -71.1c13.82,-7.74 47.06,-18.31 47.06,-35.88 0,-7.08 -2.14,-9.22 -9.22,-9.22l-402.42 0c-5.03,0 -9.22,1.84 -9.22,6.15z"/>
   <g>
    <g id="_1888328835296">
     <path class="fil15" d="M3560.71 1174.81c-14.21,42.5 -99.48,247.9 -119.27,276.9 -39.48,57.87 -244.54,58.77 -322.35,38.84l9.81 -106.65c-34.88,12.31 -46.49,55.36 -69.34,84.68 -63.27,-21.02 -127.97,-91.33 -188.68,-86.65 42.48,55.55 113.6,97.62 146.18,159.74 -43.03,57.54 -101.06,91.33 -169.9,156.37 66.34,-3.84 148.67,-95.62 197.55,-106.59 16.53,-3.71 83.48,25.27 111.6,32.74 45.72,12.15 90.62,15.81 137.72,22.95 -46.21,87.66 -310.33,317.03 -405.35,400.37l-83.4 -50.4c92.97,127.42 121.43,50.67 293.87,-76.49 73.51,-54.21 145.99,-111.7 216.72,-165.93 6.93,5.09 83.64,84.91 149.97,29.68 70.52,-58.73 -68.27,-78.24 -80.16,-85.44 47.5,-15.22 48.17,-30.05 107.97,-46.04 56.2,-15.02 67.98,-16.2 129.61,-20.77 86.02,-6.37 171.74,-27.57 212.02,-82.23 -21.41,-41.24 -74.61,-63.42 -134.94,-75.79l-22.05 -61.75 -113.99 -0.92 31.84 -256.35c-35.93,-17.48 -59.78,-42.16 -95.8,-50.57l60.37 70.3z"/>
     <path class="fil16" d="M3561.3 823.07c126.72,-44.45 216.45,-115.18 384.45,-116.71 192,-1.75 247.02,78.62 317.01,188.54 -76.69,40.69 -199,102.22 -240.7,183.78l-184.85 15.35c-37.24,-136.84 -212.78,-156.07 -361.15,-124.59 -52.86,-58.64 -70.03,-123.23 -192.19,-115.53 -91.93,5.79 -167.92,61.94 -211.27,107.33 91.95,-33.17 249.68,-157.13 350.67,22.63 -30.26,27.36 -83.28,49.43 -120.07,72.5 -44,27.6 -69.81,55.21 -104.29,85.78 -69.21,-54.91 -81.75,-117.61 -224.78,-115.46 -130.02,1.96 -279.12,84.46 -355.66,167.62 -99.18,107.76 -108.63,-16.04 -304.88,132.64 -31.59,23.93 -31.73,22.65 -46.15,57.61 55.48,-29.08 71.41,-52.15 143.88,-76.49 63.88,-21.47 117.56,-23.46 189.01,-24.96 81.56,-79.88 134.9,-138.59 252.63,-185.95 125.15,-50.35 253.14,-22.5 301.62,78.94 1.23,19.07 -76.23,101.06 -93.68,189.82 22.81,-26.45 38.01,-57.11 59.45,-86.55 52.18,-71.66 161.41,-171.45 242.63,-215.95 148.94,-81.6 361.6,-106.43 433.65,48.6 -52.55,49.05 -105.51,71.99 -129.55,152.94 67.53,-39.92 90.32,-92.3 210.73,-124.76 175.99,-47.44 113.75,38.53 244.83,-97.73 51.77,-53.81 126.34,-101.58 221.69,-119.7 151.85,-28.87 175.03,25.87 254.89,89.58 -20.98,-129.68 -156.38,-155.39 -295.53,-130.79 -42.88,-123.51 -159.17,-228.01 -336.71,-221.1 -135.01,5.26 -329.89,91.66 -405.68,162.61z"/>
     <path class="fil15" d="M1025.51 1400.37c125.17,193.25 1617.75,161.22 1922.62,142.52 -96.08,19.51 -1131.08,-37.87 -1292.02,-54.84 -357.86,-37.73 -549.09,-102.57 -77.6,-222.76 77.82,-19.84 277.47,-48.53 329.7,-79.59 -141.06,2.44 -339.14,44.72 -479.16,68.77 -97.31,16.71 -232.52,46.78 -324.49,81.17 -45.79,17.12 -64.74,21.77 -79.05,64.73z"/>
     <path class="fil13" d="M413.83 1004.22l-20.7 -149.51 -25.29 161.25 -20.7 -4.07 35.93 -209.5 18.4 -18.39 14.13 121.35 15.19 -103.53 18.97 -18.4 30.47 227.94 -19.79 4.03 -19.59 -161.31 -27.02 150.14zm87.38 7.14l0 -133.08 22.13 0 0 133.08 -22.13 0zm23.23 -199.24l-11.45 33.15 -13.17 -33.15 24.62 0zm49.44 133.42c0.38,14.99 2.21,26.2 5.46,33.63 3.21,7.47 9.3,11.3 18.11,11.5 8.62,0 14.47,-3.36 17.53,-10.07 2.88,-6.51 4.32,-16.09 4.32,-28.74l0 -7.18c-0.39,-15.33 -1.63,-26.54 -3.74,-33.68 -2.3,-7.04 -8.53,-10.69 -18.68,-10.88 -14.95,0 -22.81,14.09 -23.57,42.26 0.38,0.76 0.57,1.82 0.57,3.16zm44.84 80.48l0 -22.42c-6.71,7.86 -13.94,11.79 -21.8,11.79 -0.19,0 -0.43,0 -0.67,0 -27.74,0 -41.96,-22.9 -42.78,-68.7 0,-1.49 0,-2.92 0,-4.31 0,-10.11 1.15,-20.03 3.45,-29.61 2.49,-10.68 6.95,-19.69 13.22,-27.02 6.33,-7.09 14.66,-10.92 25.01,-11.5 0.58,0 1.15,0 1.73,0 6.89,0 12.64,3.26 17.2,9.73l4.07 4.93 0 -10.06 20.12 0 0 146.64c0,19.5 -3.55,33.49 -10.59,41.97 -6.13,7.43 -16,11.16 -29.65,11.16 -13.99,0 -24.53,-4.12 -31.67,-12.36l10.11 -27.88c0.38,5.94 2.68,11.02 6.9,15.24 3.44,3.64 7.66,5.46 12.6,5.46 0.81,0 1.58,0 2.34,0 8.58,-0.77 14.14,-4.08 16.67,-10.02 2.5,-5.94 3.74,-13.6 3.74,-23.04zm41.39 -56.63l0 -91.69 20.12 0 0 79.34c0,11.06 1.15,19.69 3.5,25.82 2.3,6.37 8.14,9.53 17.49,9.53 8.81,0 14.37,-3.16 16.67,-9.53 2.3,-6.13 3.45,-14.76 3.45,-25.82l0 -79.34 20.12 0 0 92.51c0,14.8 -3.64,26.01 -10.92,33.68 -7.43,7.61 -16.82,11.64 -28.13,12.07 -0.57,0 -1.14,0 -1.77,0 -12.26,0 -21.94,-3.93 -29.03,-11.78 -7.67,-8.29 -11.5,-19.88 -11.5,-34.79zm189.14 -46.85l-38.81 39.33 -15.47 -15.23 30.71 -30.71 -1.15 -2.87c-4.03,-8.24 -9.59,-12.36 -16.68,-12.36 -8.43,0 -14.37,4.41 -17.81,13.17 -3.65,9.06 -5.47,19.5 -5.47,31.38 0,11.88 1.82,22.33 5.47,31.28 3.44,9.06 9.19,13.56 17.24,13.56 6.32,0 11.11,-2.68 14.37,-8.05l1.68 -2.63 19.88 11.26 -3.45 4.88c-9.58,13.61 -20.6,20.41 -33.05,20.41 -15.33,0 -26.54,-7.28 -33.68,-21.89 -6.85,-13.61 -10.3,-29.13 -10.3,-46.52 0,-0.96 0,-1.92 0,-2.87 0.38,-18.98 3.93,-35.17 10.68,-48.58 6.66,-13.22 17.77,-20.12 33.3,-20.7 0.38,0 0.76,0 1.14,0 6.9,0 13.13,1.73 18.64,5.13 5.56,3.83 10.2,8.81 13.85,14.95 3.64,6.32 6.22,13.31 7.71,20.98l1.2 6.08zm44.02 88.82l-20.4 0 0 -240.3 20.4 0 0 240.3zm139.79 -161.25l-27.59 165.28 -22.47 -4.03 39.67 -209.83 19.31 -18.68 40.19 228.51 -20.7 4.03 -28.41 -165.28zm0 155.5l-21.03 -27.88 41.73 0 -20.7 27.88zm144.59 -75.02l0 80.2 -19.55 0 0 -72.44 0 -4.07c0,-23.14 -5.65,-34.73 -16.96,-34.73 -16.09,0 -24.14,12.36 -24.14,37.08l0 74.16 -20.12 0 0 -135.96 20.12 0 0 12.93c6.75,-9 15.71,-13.51 26.97,-13.51 22.47,0.58 33.68,19.36 33.68,56.34zm42.3 14.95c0.38,14.99 2.2,26.2 5.46,33.63 3.21,7.47 9.29,11.3 18.11,11.5 8.62,0 14.47,-3.36 17.53,-10.07 2.88,-6.51 4.31,-16.09 4.31,-28.74l0 -7.18c-0.38,-15.33 -1.62,-26.54 -3.73,-33.68 -2.3,-7.04 -8.53,-10.69 -18.69,-10.88 -14.94,0 -22.8,14.09 -23.57,42.26 0.39,0.76 0.58,1.82 0.58,3.16zm44.84 80.48l0 -22.42c-6.71,7.86 -13.94,11.79 -21.8,11.79 -0.19,0 -0.43,0 -0.67,0 -27.74,0 -41.97,-22.9 -42.78,-68.7 0,-1.49 0,-2.92 0,-4.31 0,-10.11 1.15,-20.03 3.45,-29.61 2.49,-10.68 6.94,-19.69 13.22,-27.02 6.32,-7.09 14.66,-10.92 25.01,-11.5 0.57,0 1.15,0 1.72,0 6.9,0 12.65,3.26 17.2,9.73l4.07 4.93 0 -10.06 20.12 0 0 146.64c0,19.5 -3.54,33.49 -10.58,41.97 -6.14,7.43 -16.01,11.16 -29.66,11.16 -13.98,0 -24.53,-4.12 -31.66,-12.36l10.1 -27.88c0.39,5.94 2.69,11.02 6.9,15.24 3.45,3.64 7.67,5.46 12.6,5.46 0.82,0 1.58,0 2.35,0 8.58,-0.77 14.13,-4.08 16.67,-10.02 2.49,-5.94 3.74,-13.6 3.74,-23.04zm125.61 -103.48l-38.81 39.33 -15.47 -15.23 30.71 -30.71 -1.15 -2.87c-4.03,-8.24 -9.58,-12.36 -16.67,-12.36 -8.43,0 -14.37,4.41 -17.82,13.17 -3.64,9.06 -5.46,19.5 -5.46,31.38 0,11.88 1.82,22.33 5.46,31.28 3.45,9.06 9.19,13.56 17.24,13.56 6.33,0 11.12,-2.68 14.37,-8.05l1.68 -2.63 19.88 11.26 -3.45 4.88c-9.58,13.61 -20.6,20.41 -33.05,20.41 -15.33,0 -26.54,-7.28 -33.68,-21.89 -6.85,-13.61 -10.3,-29.13 -10.3,-46.52 0,-0.96 0,-1.92 0,-2.87 0.38,-18.98 3.93,-35.17 10.68,-48.58 6.66,-13.22 17.77,-20.12 33.3,-20.7 0.38,0 0.76,0 1.15,0 6.9,0 13.12,1.73 18.63,5.13 5.56,3.83 10.21,8.81 13.85,14.95 3.64,6.32 6.23,13.31 7.71,20.98l1.2 6.08zm44.02 88.82l-20.4 0 0 -240.3 20.4 0 0 240.3zm139.8 -161.25l-27.6 165.28 -22.47 -4.03 39.67 -209.83 19.31 -18.68 40.19 228.51 -20.7 4.03 -28.4 -165.28zm0 155.5l-21.03 -27.88 41.72 0 -20.69 27.88zm87.96 -106.69c8.04,-14.89 17.24,-22.37 27.59,-22.37l3.45 0 -7.52 21.85c-7.04,1.53 -11.74,3.45 -14.04,5.75 -2.73,2.68 -4.93,7.33 -6.61,13.8 -1.92,6.7 -2.87,14.27 -2.87,22.65l0 70.19 -19.55 0 0 -132.51 19.55 0 0 20.64zm86.52 91.17l0.52 0c8.67,0 14.42,-2.68 17.3,-8.05 2.68,-5.36 4.07,-13.7 4.07,-25l0 -11.79c-0.43,-16.29 -1.73,-28.17 -3.79,-35.64 -1.91,-6.71 -7.18,-10.06 -15.81,-10.06 -0.95,0 -1.91,0 -2.87,0 -4.79,0.19 -8.72,2.58 -11.79,7.19 -3.25,4.74 -5.7,10.77 -7.47,18.1 -1.34,5.94 -2.01,11.69 -2.01,17.25 0,1.34 0,2.68 0,4.02 0.58,29.32 7.86,43.98 21.85,43.98zm20.11 9.49c-6.51,10.15 -14.37,15.23 -23.57,15.23 -0.38,0 -0.76,0 -1.14,0 -12.84,-0.57 -22.14,-7.57 -27.88,-20.98 -5.71,-13.18 -8.77,-28.7 -9.2,-46.52 0,-1.34 0,-2.73 0,-4.07 0,-16.29 3.06,-31.43 9.2,-45.42 6.51,-15.14 16.19,-22.99 29.02,-23.57 8.05,0 14.76,3.07 20.13,9.2l4.55 4.89 0 -10.06 19.59 0 0 133.66 -20.7 0 0 -12.36zm122.17 -57.2l0 69.56 -19.55 0 0 -69.56 0 -8.91c0,-20.51 -4.5,-31.43 -13.55,-32.77 -1.87,-0.39 -3.55,-0.58 -5.13,-0.58 -7.67,0 -13.22,3.36 -16.67,10.06 -4.22,8.05 -6.33,18.02 -6.33,29.9l0 71.86 -19.54 0 0 -136.54 19.54 0 0 12.94c6.52,-9.01 15.14,-13.51 25.87,-13.51 11.69,0 22.42,5.46 32.15,16.38 2.49,-4.79 6.56,-8.81 12.12,-12.07 5.37,-3.26 11.4,-4.89 18.11,-4.89 8.62,0 16.09,2.49 22.42,7.53 5.22,3.83 8.53,8.9 10.06,15.23 1.53,6.47 2.3,15.19 2.3,26.15l0 88.2 -20.12 0 0 -77.61 0 -4.93c0,-17.58 -5.08,-26.97 -15.24,-28.12 -1.53,-0.19 -3.02,-0.29 -4.6,-0.29 -8.62,0 -14.27,3.45 -17,10.3 -3.21,8.05 -5.03,18.25 -5.46,30.56 0.43,0.39 0.62,0.53 0.62,0.53 0,0.19 0,0.39 0,0.58zm147.12 0.57c0,-1.15 0,-2.3 0,-3.45 0,-9.77 -1.53,-18.49 -4.55,-26.16 -3.45,-8.23 -9.05,-12.64 -16.72,-13.22 -0.72,0 -1.39,0 -2.01,0 -7.62,0 -12.79,2.97 -15.52,8.91 -2.83,6.52 -4.46,15.52 -4.84,27.02 0.38,1.92 0.57,4.41 0.57,7.48 0,3.25 -0.19,6.03 -0.57,8.33 0.38,13.03 2.01,22.71 4.84,29.03 2.49,5.75 7.28,8.63 14.37,8.63 0.77,0 1.63,0 2.63,0 7.04,-0.96 12.41,-4.51 16.05,-10.64 3.64,-5.94 5.56,-17.92 5.75,-35.93zm-40.48 56.05l0 11.79 -20.74 0 0.57 -239.73 19.55 0 0 116.18 4.64 -4.94c4.94,-5.36 10.78,-8.05 17.54,-8.05 0.52,0 1.24,0 2.01,0 25.44,1.34 38.18,24.82 38.18,70.43 0,45.03 -12.36,67.97 -37.03,68.98 -0.58,0 -1.15,0 -1.77,0 -9.78,0 -17.44,-4.89 -22.95,-14.66zm81.3 -29.61l0 -91.69 20.12 0 0 79.34c0,11.06 1.15,19.69 3.5,25.82 2.29,6.37 8.14,9.53 17.48,9.53 8.81,0 14.37,-3.16 16.67,-9.53 2.3,-6.13 3.45,-14.76 3.45,-25.82l0 -79.34 20.12 0 0 92.51c0,14.8 -3.64,26.01 -10.92,33.68 -7.42,7.61 -16.82,11.64 -28.12,12.07 -0.58,0 -1.15,0 -1.77,0 -12.27,0 -21.95,-3.93 -29.04,-11.78 -7.66,-8.29 -11.49,-19.88 -11.49,-34.79zm128.48 -70.47c8.05,-14.89 17.25,-22.37 27.6,-22.37l3.44 0 -7.52 21.85c-7.04,1.53 -11.73,3.45 -14.03,5.75 -2.73,2.68 -4.94,7.33 -6.61,13.8 -1.92,6.7 -2.88,14.27 -2.88,22.65l0 70.19 -19.55 0 0 -132.51 19.55 0 0 20.64zm64.97 46.33c0,11.88 1.72,22.33 5.17,31.33 3.5,9.01 9.77,13.51 18.97,13.51 15.71,0 23.57,-15.71 23.57,-47.14 0,-12.65 -1.44,-22.8 -4.26,-30.47 -3.12,-7.66 -9.54,-11.78 -19.31,-12.36 -0.19,0 -0.38,0 -0.58,0 -14.7,0 -22.56,15.05 -23.56,45.13zm24.14 -71.86c12.07,0 21.46,3.26 28.22,9.77 6.51,6.71 10.92,14.85 13.17,24.39 2.11,9.77 3.35,21.61 3.74,35.4 0,1.15 0,2.3 0,3.4 0,18.02 -3.07,33.68 -9.2,46.9 -6.52,13.99 -18.06,20.99 -34.73,20.99 -30.71,0 -46.04,-23.38 -46.04,-70.09 0,-47.19 14.95,-70.76 44.84,-70.76zm202.65 103.14l8.62 25.35 -3.45 3.45c-6.52,6.32 -15.33,9.48 -26.44,9.48 -0.2,0 -0.39,0 -0.63,0 -14.18,0 -24.77,-5.55 -31.86,-16.62 -7.47,-11.16 -12.26,-24.77 -14.37,-40.87 -2.1,-16.09 -3.16,-34.78 -3.16,-56.05 0,-22.61 0.96,-41.58 2.87,-56.91 1.73,-15.33 6.23,-28.84 13.47,-40.53 7.14,-11.5 18.35,-17.34 33.68,-17.53 11.45,0 20.45,3.35 27.01,10.06l2.88 2.87 -8.62 24.72 -2.3 -4.55c-4.22,-7.14 -10.54,-10.68 -18.93,-10.68 -11.16,0 -18.54,5.46 -22.18,16.43 -3.64,10.87 -5.65,26.2 -6.03,45.94 0.38,7.09 0.57,17.15 0.57,30.18 0,13.8 -0.19,24.63 -0.57,32.48 0.38,13.42 1.24,23.96 2.58,31.62 1.39,7.86 4.07,14.38 8.1,19.55 4.02,5.36 9.87,8.05 17.53,8.05 8.77,0 15.09,-3.93 18.93,-11.79l2.3 -4.65zm47.76 -31.28c0,11.88 1.72,22.33 5.17,31.33 3.5,9.01 9.77,13.51 18.97,13.51 15.72,0 23.57,-15.71 23.57,-47.14 0,-12.65 -1.44,-22.8 -4.26,-30.47 -3.12,-7.66 -9.53,-11.78 -19.31,-12.36 -0.19,0 -0.38,0 -0.57,0 -14.71,0 -22.57,15.05 -23.57,45.13zm24.14 -71.86c12.07,0 21.46,3.26 28.22,9.77 6.51,6.71 10.92,14.85 13.17,24.39 2.11,9.77 3.36,21.61 3.74,35.4 0,1.15 0,2.3 0,3.4 0,18.02 -3.07,33.68 -9.2,46.9 -6.51,13.99 -18.06,20.99 -34.73,20.99 -30.71,0 -46.04,-23.38 -46.04,-70.09 0,-47.19 14.95,-70.76 44.84,-70.76zm89.35 25.53c8.05,-14.89 17.25,-22.37 27.59,-22.37l3.45 0 -7.52 21.85c-7.04,1.53 -11.74,3.45 -14.04,5.75 -2.73,2.68 -4.93,7.33 -6.61,13.8 -1.91,6.7 -2.87,14.27 -2.87,22.65l0 70.19 -19.55 0 0 -132.51 19.55 0 0 20.64zm58.92 -1.38l-19.49 0 5.41 -18.69 14.08 0 0 -107.79 19.55 0 0 107.22 26.4 0 -6.61 19.26 -19.79 0 0 113.82 -19.55 0 0 -113.82zm143.72 25l-38.8 39.33 -15.47 -15.23 30.7 -30.71 -1.15 -2.87c-4.02,-8.24 -9.58,-12.36 -16.67,-12.36 -8.43,0 -14.37,4.41 -17.82,13.17 -3.64,9.06 -5.46,19.5 -5.46,31.38 0,11.88 1.82,22.33 5.46,31.28 3.45,9.06 9.2,13.56 17.25,13.56 6.32,0 11.11,-2.68 14.37,-8.05l1.68 -2.63 19.88 11.26 -3.45 4.88c-9.58,13.61 -20.6,20.41 -33.06,20.41 -15.33,0 -26.54,-7.28 -33.68,-21.89 -6.85,-13.61 -10.3,-29.13 -10.3,-46.52 0,-0.96 0,-1.92 0,-2.87 0.39,-18.98 3.93,-35.17 10.69,-48.58 6.66,-13.22 17.77,-20.12 33.29,-20.7 0.39,0 0.77,0 1.15,0 6.9,0 13.13,1.73 18.64,5.13 5.56,3.83 10.2,8.81 13.84,14.95 3.64,6.32 6.23,13.31 7.71,20.98l1.2 6.08zm45.18 -49.72l15.57 17.2 -10.11 9.53c-5.94,6.32 -9.68,13.32 -11.21,20.98 0.58,5.32 2.92,10.49 6.95,15.52l4.26 5.75c8.62,10.92 12.94,21.18 12.94,30.76 0,11.11 -5.95,22.32 -17.78,33.58l-11.26 10.97 -16.43 -15.81 10.11 -9.53c7.91,-7.05 12.03,-13.08 12.36,-18.11 0,-0.38 0,-0.72 0,-1.1 0,-6.52 -2.59,-13.03 -7.76,-19.55l-5.22 -6.37c-6.9,-8.62 -10.59,-17.87 -11.16,-27.83 0.57,-8.44 2.97,-16.48 7.18,-24.15 1.53,-2.87 3.45,-5.56 5.75,-8.1 2.3,-2.29 4.89,-4.69 7.81,-7.13 2.83,-2.3 5.51,-4.51 8,-6.61z"/>
    </g>
   </g>
  </g>
 </g>
</svg>
