<?xml version="1.0" encoding="UTF-8"?>
<!DOCTYPE svg PUBLIC "-//W3C//DTD SVG 1.1//EN" "http://www.w3.org/Graphics/SVG/1.1/DTD/svg11.dtd">
<!-- Creator: CorelDRAW 2017 -->
<svg xmlns="http://www.w3.org/2000/svg" xml:space="preserve" width="50.7998mm" height="33.8666mm" version="1.1" style="shape-rendering:geometricPrecision; text-rendering:geometricPrecision; image-rendering:optimizeQuality; fill-rule:evenodd; clip-rule:evenodd"
viewBox="0 0 5079.98 3386.66"
 xmlns:xlink="http://www.w3.org/1999/xlink">
 <defs>
  <style type="text/css">
   <![CDATA[
    .str0 {stroke:#A11578;stroke-width:46.92;stroke-linecap:round;stroke-linejoin:round;stroke-miterlimit:22.9256}
    .fil0 {fill:none}
    .fil2 {fill:none;fill-rule:nonzero}
    .fil9 {fill:#FEFEFE}
    .fil11 {fill:#9A9999}
    .fil8 {fill:#353233}
    .fil10 {fill:#292929}
    .fil7 {fill:#DD1486}
    .fil1 {fill:#DD1486}
    .fil4 {fill:#005DAA;fill-rule:nonzero}
    .fil3 {fill:#A11578;fill-rule:nonzero}
    .fil5 {fill:#DD1486;fill-rule:nonzero}
    .fil6 {fill:#FEC02D;fill-rule:nonzero}
   ]]>
  </style>
 </defs>
 <g id="Capa_x0020_1">
  <metadata id="CorelCorpID_0Corel-Layer"/>
  <rect class="fil0" x="-0" width="5079.99" height="3386.66"/>
  <g id="_1823376473280">
   <path class="fil1" d="M569.89 1269.64c259.95,0 470.68,210.73 470.68,470.67 0,259.95 -210.73,470.68 -470.68,470.68 -259.94,0 -470.67,-210.73 -470.67,-470.68 0,-259.94 210.73,-470.67 470.67,-470.67z"/>
   <g>
    <path class="fil2 str0" d="M1330.56 1585.41c35.39,0 66.98,8.99 94.78,26.97 27.81,17.97 49.43,43.25 64.88,75.83 15.45,32.57 23.17,70.21 23.17,112.89 0,42.13 -7.58,79.2 -22.75,111.22 -15.16,32.01 -36.65,56.73 -64.45,74.14 -27.8,17.41 -59.68,26.12 -95.63,26.12 -30.89,0 -58.13,-6.6 -81.72,-19.8 -23.59,-13.2 -41.56,-32.16 -53.92,-56.87l0 222.42 -85.1 0 0 -562.8 85.1 0 0 67.4c12.36,-24.71 30.33,-43.81 53.92,-57.29 23.59,-13.48 50.83,-20.23 81.72,-20.23zm-20.22 359.77c37.07,0 65.72,-12.5 85.94,-37.5 20.22,-24.99 30.33,-60.52 30.33,-106.58 0,-46.62 -10.25,-82.84 -30.75,-108.68 -20.5,-25.84 -49.01,-38.76 -85.52,-38.76 -37.07,0 -65.57,12.64 -85.52,37.91 -19.93,25.28 -29.9,61.23 -29.9,107.85 0,46.62 9.97,82.57 29.9,107.84 19.95,25.28 48.45,37.92 85.52,37.92zm437.57 -359.77c55.04,0 95.91,13.77 122.59,41.29 26.68,27.52 40.02,69.37 40.02,125.54l0 254.44 -81.73 0 0 -68.24c-10.67,24.14 -26.54,42.54 -47.6,55.18 -21.06,12.64 -45.63,18.96 -73.72,18.96 -26.96,0 -51.67,-5.48 -74.14,-16.43 -22.47,-10.95 -40.02,-26.26 -52.66,-45.92 -12.64,-19.66 -18.96,-41.57 -18.96,-65.72 0,-29.77 7.72,-53.22 23.18,-70.35 15.44,-17.13 40.99,-29.34 76.66,-36.65 35.67,-7.3 84.67,-10.95 147.02,-10.95l19.38 0 0 -24.43c0,-31.46 -6.6,-54.2 -19.8,-68.25 -13.2,-14.04 -34.68,-21.06 -64.45,-21.06 -46.62,0 -93.24,14.32 -139.86,42.97l-25.28 -59.82c21.91,-15.17 48.45,-27.38 79.62,-36.65 31.18,-9.27 61.09,-13.91 89.73,-13.91zm-25.28 363.98c30.9,0 56.17,-10.54 75.83,-31.6 19.66,-21.06 29.49,-48.16 29.49,-81.3l0 -21.91 -15.16 0c-43.81,0 -77.52,1.97 -101.11,5.9 -23.59,3.93 -40.44,10.53 -50.55,19.8 -10.11,9.27 -15.16,22.61 -15.16,40.02 0,19.66 7.16,36.09 21.48,49.29 14.32,13.2 32.72,19.8 55.18,19.8zm476.33 -363.98c35.39,0 66.98,8.99 94.78,26.97 27.81,17.97 49.43,43.25 64.88,75.83 15.45,32.57 23.17,70.21 23.17,112.89 0,42.13 -7.58,79.2 -22.75,111.22 -15.16,32.01 -36.65,56.73 -64.45,74.14 -27.8,17.41 -59.68,26.12 -95.63,26.12 -30.89,0 -58.13,-6.6 -81.72,-19.8 -23.59,-13.2 -41.56,-32.16 -53.92,-56.87l0 222.42 -85.1 0 0 -562.8 85.1 0 0 67.4c12.36,-24.71 30.33,-43.81 53.92,-57.29 23.59,-13.48 50.83,-20.23 81.72,-20.23zm-20.22 359.77c37.07,0 65.72,-12.5 85.94,-37.5 20.22,-24.99 30.33,-60.52 30.33,-106.58 0,-46.62 -10.25,-82.84 -30.75,-108.68 -20.5,-25.84 -49.01,-38.76 -85.52,-38.76 -37.07,0 -65.57,12.64 -85.52,37.91 -19.93,25.28 -29.9,61.23 -29.9,107.85 0,46.62 9.97,82.57 29.9,107.84 19.95,25.28 48.45,37.92 85.52,37.92zm634.72 -129.75l-290.67 0c6.18,87.06 49.43,130.59 129.75,130.59 47.18,0 89.87,-15.45 128.06,-46.34l26.12 59.82c-19.09,16.29 -42.69,29.2 -70.77,38.75 -28.08,9.55 -56.73,14.33 -85.94,14.33 -65.72,0 -117.53,-18.82 -155.44,-56.45 -37.92,-37.64 -56.87,-89.59 -56.87,-155.87 0,-42.13 8.28,-79.48 24.85,-112.05 16.57,-32.58 39.88,-57.86 69.93,-75.83 30.05,-17.98 64.17,-26.97 102.37,-26.97 55.6,0 99.28,17.98 131.01,53.93 31.74,35.94 47.6,85.65 47.6,149.12l0 26.97zm-176.93 -167.67c-32.57,0 -58.55,10.25 -77.93,30.76 -19.38,20.5 -31.04,49.85 -34.97,88.04l216.53 0c-1.68,-38.19 -11.37,-67.54 -29.06,-88.04 -17.7,-20.51 -42.55,-30.76 -74.57,-30.76zm488.96 9.27l-51.39 5.06c-40.44,3.93 -69.51,16.29 -87.2,37.07 -17.69,20.78 -26.54,47.18 -26.54,79.19l0 228.33 -85.09 0 0 -411.15 82.56 0 0 71.61c21.91,-48.3 66.56,-74.98 133.96,-80.04l27.81 -1.69 5.89 71.62zm232 355.55c-41.57,0 -77.65,-8.71 -108.26,-26.12 -30.62,-17.41 -54.21,-41.99 -70.78,-73.72 -16.56,-31.74 -24.85,-68.95 -24.85,-111.64 0,-42.68 8.57,-80.32 25.7,-112.89 17.13,-32.58 41.28,-57.86 72.45,-75.83 31.18,-17.98 67.55,-26.97 109.11,-26.97 28.65,0 56.31,4.78 82.99,14.33 26.68,9.55 48.44,22.47 65.29,38.76l-26.11 60.66c-37.07,-30.33 -75.55,-45.5 -115.43,-45.5 -39.32,0 -70.07,12.78 -92.26,38.34 -22.18,25.55 -33.27,61.64 -33.27,108.26 0,46.06 10.95,81.59 32.85,106.58 21.91,24.99 52.8,37.49 92.68,37.49 39.88,0 78.36,-15.16 115.43,-45.5l26.11 61.51c-17.97,16.29 -40.44,29.07 -67.4,38.33 -26.96,9.27 -55.04,13.91 -84.25,13.91zm462 -355.55l-51.39 5.06c-40.44,3.93 -69.51,16.29 -87.2,37.07 -17.7,20.78 -26.54,47.18 -26.54,79.19l0 228.33 -85.1 0 0 -411.15 82.57 0 0 71.61c21.91,-48.3 66.56,-74.98 133.96,-80.04l27.8 -1.69 5.9 71.62zm229.47 -71.62c55.04,0 95.91,13.77 122.59,41.29 26.68,27.52 40.02,69.37 40.02,125.54l0 254.44 -81.73 0 0 -68.24c-10.67,24.14 -26.54,42.54 -47.6,55.18 -21.06,12.64 -45.64,18.96 -73.72,18.96 -26.96,0 -51.67,-5.48 -74.14,-16.43 -22.47,-10.95 -40.02,-26.26 -52.66,-45.92 -12.64,-19.66 -18.96,-41.57 -18.96,-65.72 0,-29.77 7.72,-53.22 23.17,-70.35 15.45,-17.13 41,-29.34 76.67,-36.65 35.67,-7.3 84.67,-10.95 147.02,-10.95l19.38 0 0 -24.43c0,-31.46 -6.6,-54.2 -19.8,-68.25 -13.2,-14.04 -34.68,-21.06 -64.45,-21.06 -46.62,0 -93.24,14.32 -139.86,42.97l-25.28 -59.82c21.91,-15.17 48.45,-27.38 79.62,-36.65 31.18,-9.27 61.09,-13.91 89.73,-13.91zm-25.28 363.98c30.9,0 56.17,-10.54 75.83,-31.6 19.66,-21.06 29.49,-48.16 29.49,-81.3l0 -21.91 -15.17 0c-43.8,0 -77.51,1.97 -101.1,5.9 -23.59,3.93 -40.44,10.53 -50.55,19.8 -10.11,9.27 -15.16,22.61 -15.16,40.02 0,19.66 7.16,36.09 21.48,49.29 14.32,13.2 32.72,19.8 55.18,19.8zm408.93 -353.86l112.9 0 0 65.71 -112.9 0 0 345.44 -85.1 0 0 -345.44 -80.04 0 0 -65.71 80.04 0 0 -7.59c0,-56.73 14.47,-99.41 43.39,-128.06 28.93,-28.64 73.16,-44.65 132.7,-48.02l37.91 -1.69 5.06 64.03 -38.76 2.53c-33.7,1.69 -57.99,10.39 -72.88,26.12 -14.88,15.73 -22.32,39.6 -22.32,71.61l0 21.07zm369.32 351.33c12.92,0 25.56,-0.84 37.92,-2.53l-4.22 64.88c-14.04,2.24 -28.64,3.37 -43.8,3.37 -53.37,0 -93.11,-13.06 -119.22,-39.18 -26.12,-26.12 -39.18,-63.89 -39.18,-113.32l0 -198.84 -80.04 0 0 -65.71 80.04 0 0 -123.85 85.09 0 0 123.85 112.9 0 0 65.71 -112.9 0 0 195.47c0,60.1 27.81,90.15 83.41,90.15z"/>
    <path id="1" class="fil3" d="M1330.56 1585.41c35.39,0 66.98,8.99 94.78,26.97 27.81,17.97 49.43,43.25 64.88,75.83 15.45,32.57 23.17,70.21 23.17,112.89 0,42.13 -7.58,79.2 -22.75,111.22 -15.16,32.01 -36.65,56.73 -64.45,74.14 -27.8,17.41 -59.68,26.12 -95.63,26.12 -30.89,0 -58.13,-6.6 -81.72,-19.8 -23.59,-13.2 -41.56,-32.16 -53.92,-56.87l0 222.42 -85.1 0 0 -562.8 85.1 0 0 67.4c12.36,-24.71 30.33,-43.81 53.92,-57.29 23.59,-13.48 50.83,-20.23 81.72,-20.23zm-20.22 359.77c37.07,0 65.72,-12.5 85.94,-37.5 20.22,-24.99 30.33,-60.52 30.33,-106.58 0,-46.62 -10.25,-82.84 -30.75,-108.68 -20.5,-25.84 -49.01,-38.76 -85.52,-38.76 -37.07,0 -65.57,12.64 -85.52,37.91 -19.93,25.28 -29.9,61.23 -29.9,107.85 0,46.62 9.97,82.57 29.9,107.84 19.95,25.28 48.45,37.92 85.52,37.92zm437.57 -359.77c55.04,0 95.91,13.77 122.59,41.29 26.68,27.52 40.02,69.37 40.02,125.54l0 254.44 -81.73 0 0 -68.24c-10.67,24.14 -26.54,42.54 -47.6,55.18 -21.06,12.64 -45.63,18.96 -73.72,18.96 -26.96,0 -51.67,-5.48 -74.14,-16.43 -22.47,-10.95 -40.02,-26.26 -52.66,-45.92 -12.64,-19.66 -18.96,-41.57 -18.96,-65.72 0,-29.77 7.72,-53.22 23.18,-70.35 15.44,-17.13 40.99,-29.34 76.66,-36.65 35.67,-7.3 84.67,-10.95 147.02,-10.95l19.38 0 0 -24.43c0,-31.46 -6.6,-54.2 -19.8,-68.25 -13.2,-14.04 -34.68,-21.06 -64.45,-21.06 -46.62,0 -93.24,14.32 -139.86,42.97l-25.28 -59.82c21.91,-15.17 48.45,-27.38 79.62,-36.65 31.18,-9.27 61.09,-13.91 89.73,-13.91zm-25.28 363.98c30.9,0 56.17,-10.54 75.83,-31.6 19.66,-21.06 29.49,-48.16 29.49,-81.3l0 -21.91 -15.16 0c-43.81,0 -77.52,1.97 -101.11,5.9 -23.59,3.93 -40.44,10.53 -50.55,19.8 -10.11,9.27 -15.16,22.61 -15.16,40.02 0,19.66 7.16,36.09 21.48,49.29 14.32,13.2 32.72,19.8 55.18,19.8zm476.33 -363.98c35.39,0 66.98,8.99 94.78,26.97 27.81,17.97 49.43,43.25 64.88,75.83 15.45,32.57 23.17,70.21 23.17,112.89 0,42.13 -7.58,79.2 -22.75,111.22 -15.16,32.01 -36.65,56.73 -64.45,74.14 -27.8,17.41 -59.68,26.12 -95.63,26.12 -30.89,0 -58.13,-6.6 -81.72,-19.8 -23.59,-13.2 -41.56,-32.16 -53.92,-56.87l0 222.42 -85.1 0 0 -562.8 85.1 0 0 67.4c12.36,-24.71 30.33,-43.81 53.92,-57.29 23.59,-13.48 50.83,-20.23 81.72,-20.23zm-20.22 359.77c37.07,0 65.72,-12.5 85.94,-37.5 20.22,-24.99 30.33,-60.52 30.33,-106.58 0,-46.62 -10.25,-82.84 -30.75,-108.68 -20.5,-25.84 -49.01,-38.76 -85.52,-38.76 -37.07,0 -65.57,12.64 -85.52,37.91 -19.93,25.28 -29.9,61.23 -29.9,107.85 0,46.62 9.97,82.57 29.9,107.84 19.95,25.28 48.45,37.92 85.52,37.92zm634.72 -129.75l-290.67 0c6.18,87.06 49.43,130.59 129.75,130.59 47.18,0 89.87,-15.45 128.06,-46.34l26.12 59.82c-19.09,16.29 -42.69,29.2 -70.77,38.75 -28.08,9.55 -56.73,14.33 -85.94,14.33 -65.72,0 -117.53,-18.82 -155.44,-56.45 -37.92,-37.64 -56.87,-89.59 -56.87,-155.87 0,-42.13 8.28,-79.48 24.85,-112.05 16.57,-32.58 39.88,-57.86 69.93,-75.83 30.05,-17.98 64.17,-26.97 102.37,-26.97 55.6,0 99.28,17.98 131.01,53.93 31.74,35.94 47.6,85.65 47.6,149.12l0 26.97zm-176.93 -167.67c-32.57,0 -58.55,10.25 -77.93,30.76 -19.38,20.5 -31.04,49.85 -34.97,88.04l216.53 0c-1.68,-38.19 -11.37,-67.54 -29.06,-88.04 -17.7,-20.51 -42.55,-30.76 -74.57,-30.76zm488.96 9.27l-51.39 5.06c-40.44,3.93 -69.51,16.29 -87.2,37.07 -17.69,20.78 -26.54,47.18 -26.54,79.19l0 228.33 -85.09 0 0 -411.15 82.56 0 0 71.61c21.91,-48.3 66.56,-74.98 133.96,-80.04l27.81 -1.69 5.89 71.62zm232 355.55c-41.57,0 -77.65,-8.71 -108.26,-26.12 -30.62,-17.41 -54.21,-41.99 -70.78,-73.72 -16.56,-31.74 -24.85,-68.95 -24.85,-111.64 0,-42.68 8.57,-80.32 25.7,-112.89 17.13,-32.58 41.28,-57.86 72.45,-75.83 31.18,-17.98 67.55,-26.97 109.11,-26.97 28.65,0 56.31,4.78 82.99,14.33 26.68,9.55 48.44,22.47 65.29,38.76l-26.11 60.66c-37.07,-30.33 -75.55,-45.5 -115.43,-45.5 -39.32,0 -70.07,12.78 -92.26,38.34 -22.18,25.55 -33.27,61.64 -33.27,108.26 0,46.06 10.95,81.59 32.85,106.58 21.91,24.99 52.8,37.49 92.68,37.49 39.88,0 78.36,-15.16 115.43,-45.5l26.11 61.51c-17.97,16.29 -40.44,29.07 -67.4,38.33 -26.96,9.27 -55.04,13.91 -84.25,13.91zm462 -355.55l-51.39 5.06c-40.44,3.93 -69.51,16.29 -87.2,37.07 -17.7,20.78 -26.54,47.18 -26.54,79.19l0 228.33 -85.1 0 0 -411.15 82.57 0 0 71.61c21.91,-48.3 66.56,-74.98 133.96,-80.04l27.8 -1.69 5.9 71.62zm229.47 -71.62c55.04,0 95.91,13.77 122.59,41.29 26.68,27.52 40.02,69.37 40.02,125.54l0 254.44 -81.73 0 0 -68.24c-10.67,24.14 -26.54,42.54 -47.6,55.18 -21.06,12.64 -45.64,18.96 -73.72,18.96 -26.96,0 -51.67,-5.48 -74.14,-16.43 -22.47,-10.95 -40.02,-26.26 -52.66,-45.92 -12.64,-19.66 -18.96,-41.57 -18.96,-65.72 0,-29.77 7.72,-53.22 23.17,-70.35 15.45,-17.13 41,-29.34 76.67,-36.65 35.67,-7.3 84.67,-10.95 147.02,-10.95l19.38 0 0 -24.43c0,-31.46 -6.6,-54.2 -19.8,-68.25 -13.2,-14.04 -34.68,-21.06 -64.45,-21.06 -46.62,0 -93.24,14.32 -139.86,42.97l-25.28 -59.82c21.91,-15.17 48.45,-27.38 79.62,-36.65 31.18,-9.27 61.09,-13.91 89.73,-13.91zm-25.28 363.98c30.9,0 56.17,-10.54 75.83,-31.6 19.66,-21.06 29.49,-48.16 29.49,-81.3l0 -21.91 -15.17 0c-43.8,0 -77.51,1.97 -101.1,5.9 -23.59,3.93 -40.44,10.53 -50.55,19.8 -10.11,9.27 -15.16,22.61 -15.16,40.02 0,19.66 7.16,36.09 21.48,49.29 14.32,13.2 32.72,19.8 55.18,19.8zm408.93 -353.86l112.9 0 0 65.71 -112.9 0 0 345.44 -85.1 0 0 -345.44 -80.04 0 0 -65.71 80.04 0 0 -7.59c0,-56.73 14.47,-99.41 43.39,-128.06 28.93,-28.64 73.16,-44.65 132.7,-48.02l37.91 -1.69 5.06 64.03 -38.76 2.53c-33.7,1.69 -57.99,10.39 -72.88,26.12 -14.88,15.73 -22.32,39.6 -22.32,71.61l0 21.07zm369.32 351.33c12.92,0 25.56,-0.84 37.92,-2.53l-4.22 64.88c-14.04,2.24 -28.64,3.37 -43.8,3.37 -53.37,0 -93.11,-13.06 -119.22,-39.18 -26.12,-26.12 -39.18,-63.89 -39.18,-113.32l0 -198.84 -80.04 0 0 -65.71 80.04 0 0 -123.85 85.09 0 0 123.85 112.9 0 0 65.71 -112.9 0 0 195.47c0,60.1 27.81,90.15 83.41,90.15z"/>
   </g>
   <g id="_1823516317888">
    <path class="fil4" d="M2425.69 2102.97c17.97,0 34.01,4.56 48.13,13.68 14.12,9.13 25.1,21.97 32.95,38.51 7.84,16.54 11.76,35.65 11.76,57.33 0,21.39 -3.85,40.21 -11.55,56.47 -7.7,16.26 -18.62,28.81 -32.73,37.65 -14.12,8.84 -30.31,13.26 -48.56,13.26 -15.69,0 -29.52,-3.35 -41.5,-10.05 -11.98,-6.7 -21.11,-16.33 -27.38,-28.88l0 112.95 -43.21 0 0 -285.79 43.21 0 0 34.22c6.27,-12.55 15.4,-22.24 27.38,-29.09 11.98,-6.85 25.81,-10.26 41.5,-10.26zm-10.27 182.68c18.83,0 33.37,-6.35 43.64,-19.04 10.27,-12.69 15.4,-30.73 15.4,-54.12 0,-23.67 -5.2,-42.07 -15.62,-55.19 -10.41,-13.12 -24.88,-19.68 -43.42,-19.68 -18.82,0 -33.3,6.41 -43.42,19.25 -10.13,12.83 -15.19,31.09 -15.19,54.76 0,23.67 5.06,41.93 15.19,54.77 10.12,12.83 24.6,19.25 43.42,19.25zm203.03 -182.68c27.95,0 48.7,6.98 62.25,20.96 13.55,13.97 20.32,35.22 20.32,63.74l0 129.21 -41.5 0 0 -34.65c-5.42,12.26 -13.48,21.6 -24.17,28.02 -10.7,6.42 -23.18,9.62 -37.44,9.62 -13.69,0 -26.24,-2.77 -37.65,-8.34 -11.41,-5.56 -20.32,-13.33 -26.74,-23.32 -6.41,-9.98 -9.62,-21.1 -9.62,-33.37 0,-15.11 3.92,-27.02 11.76,-35.72 7.85,-8.7 20.82,-14.9 38.94,-18.61 18.11,-3.71 42.99,-5.56 74.65,-5.56l9.84 0 0 -12.41c0,-15.97 -3.35,-27.52 -10.05,-34.66 -6.7,-7.12 -17.62,-10.69 -32.73,-10.69 -23.67,0 -47.35,7.28 -71.02,21.82l-12.84 -30.37c11.13,-7.71 24.6,-13.91 40.43,-18.62 15.83,-4.7 31.02,-7.05 45.57,-7.05zm-12.84 184.82c15.69,0 28.53,-5.35 38.51,-16.05 9.98,-10.69 14.97,-24.46 14.97,-41.28l0 -11.13 -7.7 0c-22.25,0 -39.36,1 -51.34,3 -11.98,2 -20.54,5.35 -25.67,10.05 -5.13,4.71 -7.7,11.48 -7.7,20.32 0,9.99 3.63,18.33 10.91,25.03 7.27,6.71 16.61,10.06 28.02,10.06zm246.24 -148.46l-26.1 2.56c-20.53,2 -35.29,8.28 -44.27,18.83 -8.99,10.55 -13.48,23.96 -13.48,40.22l0 115.94 -43.21 0 0 -208.78 41.92 0 0 36.37c11.13,-24.54 33.8,-38.09 68.03,-40.65l14.12 -0.85 2.99 36.36zm80.24 -36.36c27.95,0 48.7,6.98 62.25,20.96 13.55,13.97 20.32,35.22 20.32,63.74l0 129.21 -41.5 0 0 -34.65c-5.41,12.26 -13.48,21.6 -24.17,28.02 -10.69,6.42 -23.18,9.62 -37.44,9.62 -13.69,0 -26.24,-2.77 -37.65,-8.34 -11.41,-5.56 -20.32,-13.33 -26.73,-23.32 -6.42,-9.98 -9.63,-21.1 -9.63,-33.37 0,-15.11 3.92,-27.02 11.77,-35.72 7.84,-8.7 20.82,-14.9 38.93,-18.61 18.11,-3.71 42.99,-5.56 74.65,-5.56l9.85 0 0 -12.41c0,-15.97 -3.36,-27.52 -10.06,-34.66 -6.7,-7.12 -17.61,-10.69 -32.73,-10.69 -23.67,0 -47.34,7.28 -71.02,21.82l-12.83 -30.37c11.12,-7.71 24.6,-13.91 40.43,-18.62 15.83,-4.7 31.01,-7.05 45.56,-7.05zm-12.83 184.82c15.68,0 28.52,-5.35 38.5,-16.05 9.99,-10.69 14.98,-24.46 14.98,-41.28l0 -11.13 -7.71 0c-22.24,0 -39.36,1 -51.34,3 -11.98,2 -20.53,5.35 -25.67,10.05 -5.13,4.71 -7.7,11.48 -7.7,20.32 0,9.99 3.64,18.33 10.91,25.03 7.28,6.71 16.62,10.06 28.03,10.06zm868.39 -184.82c46.78,0 70.17,28.09 70.17,84.28l0 129.63 -43.21 0 0 -127.92c0,-17.69 -3.07,-30.59 -9.2,-38.72 -6.13,-8.13 -16.04,-12.2 -29.74,-12.2 -15.68,0 -28.09,5.42 -37.22,16.26 -9.12,10.84 -13.69,25.67 -13.69,44.5l0 118.08 -43.21 0 0 -127.92c0,-17.69 -3.14,-30.59 -9.41,-38.72 -6.27,-8.13 -16.12,-12.2 -29.52,-12.2 -15.97,0 -28.53,5.42 -37.65,16.26 -9.13,10.84 -13.69,25.67 -13.69,44.5l0 118.08 -43.21 0 0 -208.78 42.35 0 0 31.66c6.56,-11.7 15.4,-20.75 26.53,-27.17 11.12,-6.42 23.81,-9.62 38.07,-9.62 32.23,0 53.2,13.4 62.9,40.21 6.56,-12.55 15.97,-22.39 28.23,-29.52 12.27,-7.13 26.1,-10.69 41.5,-10.69zm184.64 216.9c-20.54,0 -38.58,-4.42 -54.12,-13.26 -15.55,-8.84 -27.53,-21.46 -35.94,-37.86 -8.42,-16.4 -12.62,-35.44 -12.62,-57.12 0,-21.96 4.2,-41.14 12.62,-57.54 8.41,-16.4 20.39,-29.02 35.94,-37.87 15.54,-8.84 33.58,-13.25 54.12,-13.25 20.53,0 38.57,4.41 54.12,13.25 15.54,8.85 27.52,21.47 35.93,37.87 8.42,16.4 12.63,35.58 12.63,57.54 0,21.68 -4.21,40.72 -12.63,57.12 -8.41,16.4 -20.39,29.02 -35.93,37.86 -15.55,8.84 -33.59,13.26 -54.12,13.26zm0 -34.22c19.11,0 33.72,-6.27 43.85,-18.83 10.12,-12.55 15.19,-30.94 15.19,-55.19 0,-23.96 -5.14,-42.28 -15.4,-54.97 -10.27,-12.7 -24.82,-19.04 -43.64,-19.04 -18.83,0 -33.37,6.34 -43.64,19.04 -10.27,12.69 -15.4,31.01 -15.4,54.97 0,24.25 5.06,42.64 15.19,55.19 10.12,12.56 24.74,18.83 43.85,18.83zm227.84 -182.68c49.91,0 74.87,28.09 74.87,84.28l0 129.63 -43.21 0 0 -127.5c0,-17.68 -3.49,-30.65 -10.48,-38.93 -6.99,-8.27 -17.9,-12.41 -32.73,-12.41 -17.4,0 -31.38,5.42 -41.93,16.26 -10.55,10.84 -15.83,25.39 -15.83,43.64l0 118.94 -43.21 0 0 -208.78 42.35 0 0 33.37c6.85,-12.55 16.41,-22.11 28.67,-28.66 12.27,-6.57 26.1,-9.84 41.5,-9.84zm172.22 216.9c-36.22,0 -65.17,-8.83 -86.84,-26.52l13.26 -31.23c21.39,16.54 46.35,24.81 74.87,24.81 13.97,0 24.67,-2.35 32.08,-7.06 7.42,-4.7 11.13,-11.34 11.13,-19.89 0,-7.42 -2.49,-13.27 -7.49,-17.54 -4.99,-4.28 -13.62,-7.85 -25.88,-10.7l-34.66 -7.7c-18.54,-4.28 -32.51,-11.27 -41.93,-20.96 -9.4,-9.7 -14.11,-21.97 -14.11,-36.8 0,-18.82 7.63,-34.08 22.89,-45.78 15.25,-11.69 35.29,-17.53 60.11,-17.53 14.83,0 28.95,2.35 42.35,7.05 13.41,4.71 24.96,11.34 34.66,19.9l-13.27 30.38c-20.53,-16.27 -41.78,-24.39 -63.74,-24.39 -13.12,0 -23.46,2.56 -31.02,7.7 -7.56,5.13 -11.34,12.12 -11.34,20.96 0,7.13 2.35,12.91 7.06,17.33 4.71,4.42 12.19,7.77 22.46,10.05l35.51 8.13c20.25,4.57 35.08,11.62 44.5,21.18 9.41,9.55 14.11,22.03 14.11,37.43 0,18.83 -7.63,33.73 -22.88,44.71 -15.26,10.98 -35.87,16.47 -61.83,16.47zm194.05 -33.37c6.55,0 12.98,-0.42 19.25,-1.28l-2.14 32.94c-7.13,1.15 -14.55,1.71 -22.25,1.71 -27.09,0 -47.27,-6.62 -60.54,-19.89 -13.26,-13.26 -19.89,-32.44 -19.89,-57.54l0 -100.97 -40.65 0 0 -33.37 40.65 0 0 -62.9 43.21 0 0 62.9 57.33 0 0 33.37 -57.33 0 0 99.26c0,30.52 14.12,45.77 42.36,45.77zm195.75 -66.74l-147.6 0c3.14,44.21 25.1,66.32 65.88,66.32 23.96,0 45.64,-7.85 65.04,-23.54l13.26 30.38c-9.7,8.27 -21.68,14.83 -35.94,19.68 -14.26,4.85 -28.81,7.27 -43.64,7.27 -33.37,0 -59.68,-9.55 -78.93,-28.66 -19.26,-19.11 -28.88,-45.49 -28.88,-79.15 0,-21.39 4.2,-40.36 12.62,-56.9 8.41,-16.54 20.25,-29.38 35.51,-38.51 15.26,-9.12 32.59,-13.68 51.98,-13.68 28.24,0 50.41,9.12 66.53,27.37 16.12,18.26 24.17,43.5 24.17,75.73l0 13.69zm-89.84 -85.14c-16.55,0 -29.74,5.21 -39.58,15.62 -9.84,10.41 -15.76,25.31 -17.75,44.71l109.95 0c-0.86,-19.4 -5.77,-34.3 -14.76,-44.71 -8.98,-10.41 -21.6,-15.62 -37.86,-15.62zm229.13 4.71l-26.1 2.56c-20.54,2 -35.3,8.28 -44.28,18.83 -8.99,10.55 -13.48,23.96 -13.48,40.22l0 115.94 -43.21 0 0 -208.78 41.93 0 0 36.37c11.12,-24.54 33.8,-38.09 68.02,-40.65l14.12 -0.85 3 36.36z"/>
    <path class="fil5" d="M3038.43 2316.88l0 -301.62 43.21 0 0 301.62 -43.21 0zm158.96 2.99c-20.53,0 -38.58,-4.42 -54.12,-13.26 -15.54,-8.84 -27.52,-21.46 -35.94,-37.86 -8.41,-16.4 -12.62,-35.44 -12.62,-57.12 0,-21.96 4.21,-41.14 12.62,-57.54 8.42,-16.4 20.4,-29.02 35.94,-37.87 15.54,-8.84 33.59,-13.25 54.12,-13.25 20.54,0 38.58,4.41 54.12,13.25 15.55,8.85 27.53,21.47 35.94,37.87 8.42,16.4 12.62,35.58 12.62,57.54 0,21.68 -4.2,40.72 -12.62,57.12 -8.41,16.4 -20.39,29.02 -35.94,37.86 -15.54,8.84 -33.58,13.26 -54.12,13.26zm0 -34.22c19.11,0 33.73,-6.27 43.85,-18.83 10.13,-12.55 15.19,-30.94 15.19,-55.19 0,-23.96 -5.13,-42.28 -15.4,-54.97 -10.27,-12.7 -24.82,-19.04 -43.64,-19.04 -18.82,0 -33.37,6.34 -43.64,19.04 -10.26,12.69 -15.4,31.01 -15.4,54.97 0,24.25 5.07,42.64 15.19,55.19 10.12,12.56 24.74,18.83 43.85,18.83zm188.91 34.22c-36.22,0 -65.17,-8.83 -86.85,-26.52l13.27 -31.23c21.39,16.54 46.34,24.81 74.87,24.81 13.97,0 24.67,-2.35 32.08,-7.06 7.42,-4.7 11.12,-11.34 11.12,-19.89 0,-7.42 -2.49,-13.27 -7.48,-17.54 -4.99,-4.28 -13.62,-7.85 -25.88,-10.7l-34.66 -7.7c-18.54,-4.28 -32.51,-11.27 -41.93,-20.96 -9.41,-9.7 -14.11,-21.97 -14.11,-36.8 0,-18.82 7.63,-34.08 22.88,-45.78 15.26,-11.69 35.3,-17.53 60.12,-17.53 14.83,0 28.94,2.35 42.35,7.05 13.41,4.71 24.96,11.34 34.66,19.9l-13.27 30.38c-20.53,-16.27 -41.78,-24.39 -63.74,-24.39 -13.13,0 -23.46,2.56 -31.02,7.7 -7.56,5.13 -11.34,12.12 -11.34,20.96 0,7.13 2.35,12.91 7.06,17.33 4.7,4.42 12.19,7.77 22.46,10.05l35.51 8.13c20.25,4.57 35.08,11.62 44.5,21.18 9.41,9.55 14.11,22.03 14.11,37.43 0,18.83 -7.63,33.73 -22.89,44.71 -15.26,10.98 -35.86,16.47 -61.82,16.47z"/>
    <polygon class="fil6" points="3476.81,2265.97 3527.72,2265.97 3527.72,2316.88 3476.81,2316.88 "/>
   </g>
   <path class="fil7" d="M1424.98 2248.26l-4.54 -15.47c-17.34,9.78 -15.16,11.8 4.54,15.47z"/>
   <path class="fil7" d="M4628.65 1290.05c-46.29,-19.5 -75.05,56.98 -28.77,73.09 50.99,17.77 76.27,-53.09 28.77,-73.09z"/>
   <path class="fil7" d="M2374.98 1566.5l10.59 8.86 28.12 1.88 9.71 -11.34 -0.35 -35.88c-34.33,-13.32 -56.39,-4.21 -48.07,36.48z"/>
   <path class="fil7" d="M1417.59 1489.2c-13.71,9.48 -7.16,9.99 -21,0 -0.8,-18.95 17.13,-26.77 21,0zm3.72 -30.7c-58.13,-5.13 -46.04,42.72 -25.87,50.78 30.67,12.26 53.07,-17.22 25.87,-50.78z"/>
   <path class="fil7" d="M2392.77 1677.46c23.74,-2.58 14.12,-1.41 37.11,-1.27 -2.83,-20.95 -1.71,-14.21 -0.99,-34.46 -20.35,0.43 -13.19,1.72 -34.66,-1.16 0.56,25.12 2.06,11.85 -1.46,36.89z"/>
   <path class="fil7" d="M2195.02 1525.78c6.68,5.08 -16.72,11.47 16.66,5.94 10.52,-1.75 9.97,-5.96 13.93,-11.14 -11.81,-9.92 -26.76,-4.08 -30.59,5.2z"/>
   <path class="fil7" d="M3203.96 1537.2c16.43,6.24 11.79,3.84 15.76,20.64 -10.62,6.11 -18.88,11.87 -25.7,-4.03 -6.19,-14.45 1.88,-14.21 9.94,-16.61zm-7.43 -17.87c-43.27,27.96 -13.63,65.14 25.47,58.17 16.56,-16.14 12.62,-15.48 12.9,-34.46l-17.74 -23.19 -20.63 -0.52z"/>
   <path class="fil7" d="M4250.81 1528.66c30.32,34.95 59.49,0.85 62.06,-26.35 -29.38,-14.97 -48.8,-1.28 -62.06,26.35z"/>
   <path class="fil7" d="M1244.73 1468.17l32.54 -3.62c1.73,-6.82 0.47,-17.51 2.87,-31.63 -22.67,-1.21 -12.63,1.59 -37.05,-2.26l1.64 37.51z"/>
   <path class="fil7" d="M3865.67 1445.24c6.9,18.08 1.78,17.22 1.29,33.37 19.42,0.63 11.86,-2.98 33.99,1.77 0.39,-20.01 -1.94,-16.52 2.86,-35.29l-38.14 0.15z"/>
   <path class="fil7" d="M4292.52 1427.44c2.03,9.9 1.59,10.66 11.35,17.25 21.17,14.32 11.24,6.54 22.9,1.48 -3.02,-8.91 -2.99,-10.24 -12.86,-16.34 -18.62,-11.51 -10.48,-6.41 -21.39,-2.39z"/>
   <path class="fil7" d="M3903.54 1546.5c-2.94,-12.8 -0.1,-8.38 -11.83,-11.75 0.21,18.64 -12.03,15.33 11.83,11.75z"/>
   <path class="fil7" d="M4327.37 1412.17c18.23,-4.24 10.04,-0.86 7.46,-12.35 -13.12,1.74 -12.04,-0.16 -7.46,12.35z"/>
   <path class="fil7" d="M4892.96 2036.36c-2.41,41.34 54.48,83.91 80.99,59.51 16.88,-15.56 -1.06,-41.17 -16.14,-49.83 -18.4,-10.57 -42.06,-12.87 -64.85,-9.68z"/>
   <path class="fil7" d="M1379.26 2122.15c3.54,22.02 4.73,15.73 -15.88,18.69l-0.35 -19.85 16.23 1.16zm-23.06 -16.41c-26.76,33.94 -2.79,64.06 28.63,49.31 22.28,-10.45 22.76,-59.06 -28.63,-49.31z"/>
   <path class="fil7" d="M2199.81 2140.62c3.16,-17.26 12.07,-26.5 19.56,-8.34 2.72,6.59 1.52,9.3 -4.22,11.93 -17.49,7.99 -14.04,-2.86 -15.34,-3.59zm1.54 22c40.18,0.26 44.64,-26.38 21.96,-52.64 -32.94,-3.31 -42.66,3.8 -40.57,36.2l18.61 16.44z"/>
   <path class="fil7" d="M1424.98 2248.26c-19.7,-3.67 -21.88,-5.69 -4.54,-15.47l4.54 15.47zm-21.82 13.72c32.87,5.92 41.1,-3.19 34.82,-35.06 -34.15,-22.58 -57.84,0.74 -34.82,35.06z"/>
   <path class="fil7" d="M2091.73 1472.22c-21.34,15.56 1.29,46.47 24.19,30.37 16.58,-11.65 2.02,-49.48 -24.19,-30.37z"/>
   <path class="fil7" d="M1269.35 2143.89c20.04,0.24 13.34,-1.79 34.83,1.59l0.49 -37.66c-24.11,3.51 -12.92,1.09 -36.17,1.84 2.37,20.09 1.66,14.86 0.85,34.23z"/>
   <path class="fil7" d="M1869.51 2107.39c-19.44,20.51 10.65,41.95 26.72,26.45 17.74,-17.11 -5.23,-49.14 -26.72,-26.45z"/>
   <path class="fil7" d="M2128.2 2197.15c4.73,17.91 1.23,18.4 1.57,35.16l34.31 0.79c0.19,-21.8 -1.46,-13.63 1.56,-36.51 -26.89,3.23 -11.07,2.34 -37.44,0.56z"/>
   <path class="fil7" d="M3929.91 1393.17c24.22,-3.24 11.81,-2.54 35.48,-0.46 -1.1,-22.97 -1.8,-13.18 0.86,-36.12 -26.78,2.11 -9.98,2.97 -37.25,-0.44 3.9,26.38 2.06,12.17 0.91,37.02z"/>
   <path class="fil7" d="M3289.48 1477.78c-2.77,4.44 -19.43,2.8 9.37,40.2 8.11,-11.73 10.98,-4.05 4.74,-23.72 -4,-12.63 -5.7,-11.85 -14.11,-16.48z"/>
   <path class="fil7" d="M3339.65 1446.02c-0.87,0.1 -6.9,-11.04 -15.19,6.66 -2.8,5.98 -3.69,8.4 4.1,12.82 16.09,9.15 19.12,-3.16 11.09,-19.48z"/>
   <path class="fil7" d="M1490.48 2143.34c10.66,17.72 22.86,13.53 29.96,0 -3.88,-2.95 0.79,-6.23 -13.61,-6.12 -24.39,0.2 -10.41,2.19 -16.35,6.12z"/>
   <path class="fil7" d="M1442.64 2143.34c10.19,15.57 19.21,16.2 29.34,0 -9.39,-5.99 10.42,-5.42 -12.25,-5.93 -26.69,-0.6 -10.1,1.62 -17.09,5.93z"/>
   <path class="fil7" d="M1312.53 1380.36c-2.72,-19 6.57,-13.55 -13.34,-13.25 -0.15,18.97 -5.98,10.99 13.34,13.25z"/>
   <path class="fil7" d="M2010.11 1516.62c-6.57,-12.92 8.69,-9.15 -14.24,-8.11 0.2,5.19 -3.85,6.14 2.08,9.98 16.16,10.48 9.3,-0.35 12.16,-1.87z"/>
   <path class="fil7" d="M3963.22 1525.87c9.78,-17.66 4.85,-9.21 -5.2,-14.82 -12,14.21 -7.3,10.36 5.2,14.82z"/>
   <path class="fil7" d="M3203.96 1537.2c-8.06,2.4 -16.13,2.16 -9.94,16.61 6.82,15.9 15.08,10.14 25.7,4.03 -3.97,-16.8 0.67,-14.4 -15.76,-20.64z"/>
   <path class="fil7" d="M2219.37 2132.28c-7.49,-18.16 -16.4,-8.92 -19.56,8.34 1.3,0.73 -2.15,11.58 15.34,3.59 5.74,-2.63 6.94,-5.34 4.22,-11.93z"/>
   <path class="fil7" d="M1363.38 2140.84c20.61,-2.96 19.42,3.33 15.88,-18.69l-16.23 -1.16 0.35 19.85z"/>
   <g id="_1823376474144">
    <g>
     <path class="fil8" d="M960.13 1228.08c6.07,8.74 10.71,14.42 16.06,20.7 5.51,-8.64 42.88,-26.37 46.59,-27.36 9.61,14.36 15.32,25.72 26.62,33.28 -0.47,-21.23 -11.47,-30.58 -19.96,-43.26 17.87,-11.97 44.35,-56.32 46.59,-83.2 25.23,18.49 33.24,97.66 -10.45,149.3 -0.63,0.74 -2.46,2.82 -3.12,3.53l-3.32 3.33c-0.49,0.48 -1.21,1.16 -1.71,1.63 -8.75,8.34 -8.65,10.88 -21.34,11.93 -3.67,-15.73 -11.56,-28.74 -23.3,-36.6 0.57,25.38 12.68,18.03 13.32,46.59 -8.56,5.72 -7.68,5.63 -18.25,9.98l4.93 7.61c53.07,-19.6 89.36,-67.25 93.19,-121.31l0 -18.96c-1.28,-18.13 -6.24,-36.68 -15.45,-54.89 -3.27,-6.44 -4.63,-9.86 -8.22,-15.08 -4.43,-6.48 -4.07,-7.99 -12.94,-10.35 -4.74,9.88 -5.32,35.49 -10.33,49.57 -10.66,30.02 -29.49,47.31 -54.26,65.54 -23.9,17.6 -26.61,14.42 -44.65,8.02z"/>
     <path class="fil8" d="M666.69 1148.81c11.96,-3.65 15.28,-3.38 24.02,-10.59l-14.03 0c0,-40.16 7.39,-61.11 27.39,-82.42 16.52,-17.6 39.39,-37.89 65.79,-44.04 -4.46,16.71 -22.5,29.49 -29.62,50.26 -3.61,10.54 -2.89,24.43 -10,29.93l-30.27 16.32c18.48,0 19.74,-3.32 36.61,-3.32 3.57,15.31 6.68,10.25 9.98,24.12l9.99 1.07c-3.26,-15.6 -14.43,-26.68 -12.15,-47.2 3.54,-31.95 26.91,-51.91 48.46,-75.38 28.98,-31.59 -48.83,-10.49 -97.05,43.3 -21.7,24.19 -29.12,52.5 -29.12,97.95z"/>
     <path class="fil8" d="M843.09 1141.55c11.36,10.29 39.19,20 53.23,27.87 20.3,-46.87 16.51,-42.61 13.31,-81.11 -19.03,0 -32.06,7.56 -41.78,18.12 -10.38,11.28 -17.87,22 -24.76,35.12z"/>
     <path class="fil8" d="M508.44 1243.5c29.81,1.1 36.96,-52.16 0.81,-62.49 -5.76,26.98 -4.41,34.62 -0.81,62.49z"/>
    </g>
    <g>
     <path class="fil9" d="M467.02 1228.08c0,-29.94 36.61,-23.22 36.61,-6.66 0,21.13 1.15,19.97 -19.97,19.97 -6.91,0 -16.64,-9.74 -16.64,-13.31zm41.42 15.42c-3.6,-27.87 -4.95,-35.51 0.81,-62.49 36.15,10.33 29,63.59 -0.81,62.49zm6.24 -102.76c-106.88,15.98 -77.75,153.1 12.29,144.62 95.82,-9.03 77.54,-158.04 -12.29,-144.62z"/>
     <path class="fil9" d="M812.52 1434.41c-19.51,-11.81 -111.07,-28.31 -138.21,-25.85 1.78,51.61 13.15,119.92 56.18,129.18 48.08,10.34 80.81,-59.69 82.03,-103.33z"/>
     <path class="fil9" d="M557.1 1596.25c11.25,-5.74 24.31,-16.34 35.03,-23.47 20.08,-13.35 15.65,-12.13 23.73,-36.18 13.2,-39.28 41.33,-45.96 45.32,-79.16 -19.36,6.77 -26.39,26.75 -53.07,31.3 -31.2,5.33 -35.98,-19.52 -51.24,-29.93 -32.61,22.75 -35.75,104.51 0.23,137.44z"/>
     <path class="fil9" d="M763.9 1681.6c1.71,-39.29 2.85,-99.72 -46.96,-91.29 -29.08,4.93 -59.01,42.68 -64.33,74.55 40.5,7.99 64.8,17.16 111.29,16.74z"/>
     <path class="fil9" d="M921.52 1487.66c-12.65,-24.36 -55.53,-40.27 -90.55,-48.68 -5.72,23.59 -10.47,64.68 17.55,73.17 39.97,12.12 59.59,-2.44 73,-24.49z"/>
     <path class="fil9" d="M653.58 1415.63c-7.43,-8.52 5.27,-4.13 -16.86,-4.14 -34.25,-1.5 -84.13,27.34 -49.77,56.21 27.56,23.15 63.24,-25.35 66.63,-52.07z"/>
     <path class="fil9" d="M865.5 1670.26c-2.52,-23.82 -4.1,-32.41 -17.01,-48.18 -38.98,-0.98 -57.42,23.34 -62.59,59.63l79.6 -11.45z"/>
     <path class="fil9" d="M896.09 1530.36c5.01,30.43 11.27,43.76 12.32,81.75 10.54,6.82 28.74,13.76 41.43,15.49l4.24 -33.21c-47.03,-16.31 -20.31,-40.28 -42.03,-72.49l-15.96 8.46z"/>
     <path class="fil9" d="M573.9 1614.12c7.64,10.43 37.57,37.4 57.64,35.25 3.9,-37.62 1.97,-37.78 -11.32,-65.05 -26.33,1.04 -40,8.89 -46.32,29.8z"/>
     <path class="fil9" d="M969.44 1575.59c0.65,-34.17 -6.11,-64.3 -32.73,-72.9 -2.6,36.72 -12.1,71.28 32.73,72.9z"/>
     <path class="fil9" d="M892.58 1658.16c18.95,-3.06 24.99,-4.4 32.13,-19.5 -5.83,-7.12 0.58,-1.39 -8.42,-7.5 -14.36,4.29 -18.33,12.03 -23.71,27z"/>
    </g>
    <path class="fil10" d="M423.76 1926.94l13.31 -69.89 0 86.53c-5.68,-3.8 -13.31,-7.24 -13.31,-16.64zm362.14 -245.23c5.17,-36.29 23.61,-60.61 62.59,-59.63 12.91,15.77 14.49,24.36 17.01,48.18l-79.6 11.45zm-22 -0.11c-46.49,0.42 -70.79,-8.75 -111.29,-16.74 5.32,-31.87 35.25,-69.62 64.33,-74.55 49.81,-8.43 48.67,52 46.96,91.29zm128.68 -23.44c5.38,-14.97 9.35,-22.71 23.71,-27 9,6.11 2.59,0.38 8.42,7.5 -7.14,15.1 -13.18,16.44 -32.13,19.5zm-318.68 -44.04c6.32,-20.91 19.99,-28.76 46.32,-29.8 13.29,27.27 15.22,27.43 11.32,65.05 -20.07,2.15 -50,-24.82 -57.64,-35.25zm395.54 -38.53c-44.83,-1.62 -35.33,-36.18 -32.73,-72.9 26.62,8.6 33.38,38.73 32.73,72.9zm-15.36 18.8l-4.24 33.21c-12.69,-1.73 -30.89,-8.67 -41.43,-15.49 -1.05,-37.99 -7.31,-51.32 -12.32,-81.75l15.96 -8.46c21.72,32.21 -5,56.18 42.03,72.49zm-32.56 -106.73c-13.41,22.05 -33.03,36.61 -73,24.49 -28.02,-8.49 -23.27,-49.58 -17.55,-73.17 35.02,8.41 77.9,24.32 90.55,48.68zm-364.42 108.59c-35.98,-32.93 -32.84,-114.69 -0.23,-137.44 15.26,10.41 20.04,35.26 51.24,29.93 26.68,-4.55 33.71,-24.53 53.07,-31.3 -3.99,33.2 -32.12,39.88 -45.32,79.16 -8.08,24.05 -3.65,22.83 -23.73,36.18 -10.72,7.13 -23.78,17.73 -35.03,23.47zm255.42 -161.84c-1.22,43.64 -33.95,113.67 -82.03,103.33 -43.03,-9.26 -54.4,-77.57 -56.18,-129.18 27.14,-2.46 118.7,14.04 138.21,25.85zm-175.8 -22.92c9.01,-5.46 8.17,-4.25 20.62,-3.92l-3.76 8.06c-3.39,26.72 -39.07,75.22 -66.63,52.07 -34.36,-28.87 15.52,-57.71 49.77,-56.21zm-122.04 -270.75c89.83,-13.42 108.11,135.59 12.29,144.62 -90.04,8.48 -119.17,-128.64 -12.29,-144.62zm498.11 184.8l-4.93 -7.61c-3.03,-14.99 -19.4,-53.65 -30.21,-67.5 -0.27,-0.34 -0.94,-1.14 -1.46,-1.65 -5.35,-6.28 -9.99,-11.96 -16.06,-20.7 -2.01,-14.98 -53.04,-52.22 -63.81,-58.66 -14.04,-7.87 -41.87,-17.58 -53.23,-27.87 -23.46,-5.45 -54.66,-18.46 -86.54,-11.41l-9.99 -1.07 -55.85 9.15c-8.74,7.21 -12.06,6.94 -24.02,10.59 -77.88,29.29 -66,-29.13 -137.22,-39.81 -58.91,-8.82 -106.6,41.3 -112.05,86.14 -7.75,63.87 35.24,103.53 39.52,159.5 2.65,34.62 -2.41,64.63 -3.17,96.47l-21.93 274.25c-9.4,41.7 -32.47,174.44 -55.37,194.23 -10.41,9 -23.31,7.49 -35.91,14.01 -30.64,15.84 -47.11,82.42 -1.03,90.88 17.13,3.14 22.56,4.26 39.04,10.88 51.68,20.75 33.9,-3.19 61.83,-21.9l8.01 111.79c5.33,37.84 16.5,99.51 18.47,134.62 0.97,17.23 15.62,58.09 31.53,62.05 19.95,4.97 24.48,-13.93 30.74,-26.68 19.42,-39.52 30.63,-97.3 41.07,-141.96 7.69,-32.91 12.73,-71.55 19.07,-104.06 6.73,-34.47 13.34,-71.14 17.22,-105.92 3.68,-32.88 7.91,-76.94 15.4,-107.73 15.81,-65.01 101,-36.47 131.25,-35.03 47.79,2.28 124.74,4.25 153.23,-33.25 17.73,-23.35 35.72,-44.54 54.13,-69.01 66.5,-88.36 97.81,-162.8 78,-276.28 -6.1,-34.96 -17.04,-64.28 -25.73,-96.46z"/>
    <path class="fil11" d="M653.58 1415.63l3.76 -8.06c-12.45,-0.33 -11.61,-1.54 -20.62,3.92 22.13,0.01 9.43,-4.38 16.86,4.14z"/>
   </g>
  </g>
 </g>
</svg>
