<?xml version="1.0" encoding="UTF-8"?>
<!DOCTYPE svg PUBLIC "-//W3C//DTD SVG 1.1//EN" "http://www.w3.org/Graphics/SVG/1.1/DTD/svg11.dtd">
<!-- Creator: CorelDRAW 2017 -->
<svg xmlns="http://www.w3.org/2000/svg" xml:space="preserve" width="50.7998mm" height="33.8666mm" version="1.1" style="shape-rendering:geometricPrecision; text-rendering:geometricPrecision; image-rendering:optimizeQuality; fill-rule:evenodd; clip-rule:evenodd"
viewBox="0 0 5079.98 3386.66"
 xmlns:xlink="http://www.w3.org/1999/xlink">
 <defs>
  <style type="text/css">
   <![CDATA[
    .fil0 {fill:#060606}
    .fil2 {fill:#2C2C2C}
    .fil1 {fill:white}
   ]]>
  </style>
 </defs>
 <g id="Capa_x0020_1">
  <metadata id="CorelCorpID_0Corel-Layer"/>
  <path class="fil0" d="M754.96 2151.59c-15.46,13.57 -32.97,29.07 -54,43.29 -50.52,34.18 -179.32,140.91 -211.75,177.82 -237.03,269.77 -153.09,520.46 229.73,548.1 -252.49,76.59 -137.64,33.42 -342.39,69.71l-3.76 13.46c-0.32,1.58 -1.03,5.71 -1.33,7.33l-64.21 47.79c-28.97,15.17 -35.39,40.02 -38.63,34.44 -1.26,-2.18 -4.96,4.68 -7.14,7.3l47.82 6.43 -44.3 38.56 55.82 37.28c11.36,-16.19 20.08,-29.83 37.6,-39.49 2.39,-1.32 5.31,-2.79 7.84,-3.93 25.65,-11.6 49.23,-12.97 66.56,2.76 -30.84,6.95 -56.15,4.65 -67.17,31.7l204.53 -40.18c38.56,-14.12 56.72,-28.65 95.41,-38.37 22.02,-5.53 67.04,-10.22 82.71,-3.5 6.76,2.89 11.46,13.12 12.87,10.33 1.07,-2.1 3.82,4.13 5.51,6.38 53.71,-66.81 51.14,-42.25 87.13,-75.83 -46.65,-20.12 -42.63,1.17 -98.43,9.21 -107.83,15.52 -189.99,60.33 -300.09,84.79 22.9,-21.13 62.53,-41.71 76.74,-64.3l-82.88 15.73c-53.51,9.31 -48.97,-4.53 -96.67,12.31l43.38 -61.57 437.7 -142.18 167.4 75.39c-55.4,42.71 -142.89,124 -199.88,157.4 -18.71,10.96 -58.17,21.22 -60.12,33.16 60.02,13.97 72.88,22.02 113.69,-24.48 47.58,-54.22 54.24,-24.87 117.36,-50.02 65.81,-26.24 69.05,-172.1 142.41,-192.22 22.71,-6.23 49.19,-5.07 76.87,-12.25 175.48,-45.55 363.91,-37.85 545.21,-37.22 107.11,0.38 207.48,-15.34 311.63,-17.58 110.83,-2.38 214.92,11.71 314.62,-20.35 95.2,-30.61 159.09,-62.45 276.3,-57.91 101.87,3.94 146.96,89.75 253.15,72.87 -8.42,-27.08 -14.22,-44.62 -30.89,-63.19 -35.17,-39.16 -25.2,-57.91 -47.74,-107.45 -14.79,-32.48 -31.75,-59.25 -52.63,-80.9 -75.13,-77.89 -131.93,-124.76 -245.22,-130.13 -62.33,-2.96 -167.56,12.2 -212.9,-38.2 89.67,-163.27 124.92,-78.23 226.23,-178.35l-67.48 -11.78c-52.53,11.56 -58.7,65.31 -260.15,85.69 -74.1,7.5 -137.07,17.38 -178,57.11 -49.47,48.03 -47.34,95.81 -86.35,147.98 -96.41,-5.8 -194.82,-7.07 -290.53,-19.18 -13.11,-1.66 -39.63,-6.52 -47.16,-9.34 -26.66,-9.99 -12.69,-1.54 -28.67,-17.87l120.09 -77.29c74.11,-48.07 197.76,-74.51 269.93,-131.45 151.16,-119.26 272.63,-129.45 473.67,-98 106.18,16.62 185.52,61.48 255.93,134.46 123.08,127.56 168.29,96.91 239.24,151.09 101.4,77.44 35.19,551.41 147.23,633.23 68.11,49.73 82.27,83.76 112.1,91.58 94.81,24.86 61.67,-45.91 51.74,-87.53l161.61 71.12c35.36,22.97 90.58,85.94 146.96,49.94 -30.27,-46.92 -59.67,-45.65 -37,-66.62 27.1,25.21 67.84,60.99 108.95,60.65 29.04,-0.23 94.12,-43.83 107.57,-60.91l-77.98 -48.46 101.08 -39.96 -221.71 -53.59c-241.56,-53.47 -274.32,-68.19 -309.89,-227.14 -14.01,-62.59 -32.83,-170.16 -36.08,-237.22l168.19 49.3c53.06,19.57 95.89,35.1 150.34,49.37 90.09,23.62 257.66,61.02 351.6,49.95l98.45 -112.56c24.65,-35.72 46.51,-84.62 70.16,-130.71 71.59,-139.52 120.19,-130.41 243.91,-168.26 78.71,-24.08 49.97,-46.62 167.31,-45.43 125.93,1.29 161.83,-89.38 274.38,-125.86 64.36,-20.87 109.07,-26.71 110.01,-96.39l-78.18 -61.48c-169.76,-113.32 -341.65,7.41 -511.24,32.72 -177.17,26.45 -136.12,-6.68 -144.65,-77.66 -173.06,118.06 -175.07,45.16 -172.45,205.32l-213.75 108.44 -332.67 -242.69c-48.11,-33.61 -143.18,-66.33 -178.35,-111.6 -3.74,-4.81 -75.79,-170.65 -92.05,-198.59l97.64 -99.69 -41.82 -67.51c31.76,-19.2 29.95,-25.04 51.77,-15.73 23.86,-87.26 47.52,-130.92 3.42,-217 -38.01,-74.19 -70.38,-120.73 -114.89,-185.86 -111.39,-163 -34.7,-265.16 -141.26,-472.05 -39.28,-76.28 -88.06,-121.23 -148.87,-162.56 -32.86,-22.34 -59.37,-39.3 -105.87,-50.72 -46.5,-11.42 -59.03,-16.74 -94.82,-49.64 -49.09,-45.14 -48.76,-32.43 -96.31,-60.27 -43.8,-25.66 -45.73,-50.73 -91.78,-63.48 -13.77,-3.81 -258.99,5.48 -284.65,8.85 -84.84,11.15 -166.05,-27.96 -252.55,14.01 -54.21,26.29 -47.28,39.03 -104.45,52.87 -50.32,12.18 -64.88,20.81 -92.59,50.94 -71.57,77.82 -191.84,124.65 -252.43,215.54 -22.72,34.09 -40.92,50.25 -61.29,83.7 -40.05,65.77 -64.48,151.45 -101.7,210.46 -50.41,79.9 -56.77,126.95 -70.03,228.2 -24.32,185.68 -95.81,184.57 -104.66,490.77l-92.23 27.59c-0.94,108.82 0.83,142.94 64,239.93l-39.37 110.08c-6.53,31.14 -8.36,99.08 -22.92,121.5 -10.81,16.64 -65.96,44.68 -86.52,57.73 -31.08,19.73 -57.47,37.28 -65.91,65.1l144.81 -43.42c-12.73,88.48 -35.27,370.42 -76.57,436.69 -32.97,52.9 -138.92,63.69 -166.2,130.49l155.6 -67.95c-37.39,127.48 -38.16,255.43 -213.92,240.13 -122.93,-10.71 -232.46,-56.04 -264.04,-174.05 -18.94,-70.81 2.81,-114.63 26.97,-179.12 18.3,-48.84 -0.34,-44.08 31.19,-88.98 53.88,-76.73 134.27,-124.42 200.83,-189.72 76.06,-74.62 88.98,-66.57 71.22,-81.15zm2668.53 892.17c-0.25,46.63 -6.32,-1.57 23.97,60.78l8.22 18.1c-146.21,-70.24 9.11,-39.56 -279.02,-112.94 -11.84,64.64 -17.01,-11.39 56.94,121.59 -51.57,-21.21 -86.48,-74.46 -155.98,-121.54l-20.18 -181.16c67.33,-40.44 110.07,-28.94 131.43,-23.27 32.11,101.4 2.11,110.6 211.52,178.24 149.86,48.41 -23.64,26.05 230.56,118.84l-66.88 -19.84c7.6,25.35 8.37,6.48 12.04,44.45 -15.72,-13.7 -122.48,-76.69 -152.62,-83.25zm-2276.66 -260.64c1.07,-128.53 60.43,-210.32 91.01,-306.48 85.02,9.06 135.88,17.15 223.18,7.26 10.15,69.65 59.05,271.57 -37.86,290.23 -3.35,0.64 -6.29,1.03 -9.8,1.57 -1.04,0.16 -38.73,3.3 -38.76,3.31 -29.77,2.7 -42.38,5.15 -74.26,4.95l13.06 -11.11c2.33,-1.76 10.61,-7.79 13.34,-9.65 21.87,-14.86 47.33,-23.64 60.95,-53.83l-240.86 73.75zm783.2 -231.32c56.4,-30.51 118.26,-15.46 185.73,-20.38 101.77,-7.42 94.15,-42.46 176.71,-2.75 67.41,32.42 142.49,7.7 192.86,29.65 16.84,7.34 72.93,77.23 79.69,86.8 10.88,15.41 13.43,27.73 19.53,39.19 -398.48,96.68 -225.34,61.1 -617.33,93.36l-37.19 -225.87zm-443.05 226.41c21.22,-88.26 59.16,-201.39 7.62,-291.6 138.1,53.28 196.98,54.14 364.45,53.98 39.47,90.38 54.98,116.92 54.49,231.56l-426.56 6.06zm686.66 -370.33c62.65,78.16 17.63,9.94 63.59,37.5 -23.24,29.83 -12.81,29.57 -64.8,21.86l1.21 -59.36zm-778.07 -197.2c92.84,-23.14 29.2,-15.46 95.64,-62.16l12.42 22.2c39.54,78.25 -22.89,-30.63 9.87,21.99 31.56,-23.99 45.8,-47.05 55.74,-47.77l149.5 42.94c-130.17,170.34 -110.99,83.76 -157.8,152.31l-8.45 -26.97c-10.57,-26.17 11.47,3.12 -12.36,-23.8 -32.71,62.87 -10.35,37.64 -5.8,69.86l-70.9 70.18 -194.59 -3.2c38.34,-118.94 56.43,-244.43 157.54,-261.91l-21.17 19.98c-1.33,1.73 -3.44,4.87 -4.51,6.48 -7.66,11.66 -6.65,2.18 -5.13,19.87zm1856.61 118.98c-53.48,-37.44 -41.35,-194.53 -41.28,-236.74 0.17,-96.48 -43.68,-224.07 116.37,-119.36 114.49,74.92 82.84,49.25 193.42,140.6 44.46,36.72 148.34,116.42 199.83,126.92l37.93 -54.49c15.35,-16.37 165.36,-80.01 175.7,-82.78 67.53,-18.11 169.13,39.79 176.53,134.02l-92.85 74.39c-49.05,56.81 -86.03,257.74 -211.23,280.18 -71.98,12.9 -480.43,-71.1 -510.5,-166.15l-18.72 -86.1 -25.2 -10.49zm739.83 -249.27c82.62,-84.25 172.23,-60.35 252.63,-77.34 43.62,-9.22 91.7,-35.49 127.83,-5.52 28.91,23.99 51.71,72.74 49.31,121.16 -166,51.45 -117.23,54.08 -177.37,74.95 -154.84,-170.77 -113.26,-132.88 -252.4,-113.25zm-3022.33 512.35c-4.04,-33.6 74.57,-589.51 93.58,-670.59 3.64,-15.56 5.57,-28.53 11.35,-44.07 1.39,-3.74 -19.08,10.84 15.33,-27.93l59.69 53.06c61.81,45.78 45.57,-43.67 118.66,56.24 31.63,43.23 44.82,25.33 72.66,44.3l-110.08 319.5c-16.2,52.73 -34.35,101.89 -55.43,156.14 -19.33,49.77 -33.53,99.53 -52.07,145.63l-153.69 -32.28zm535.71 -684.23c-37.88,4.01 -54.63,-9.3 -68.98,-38.3 63.9,2.59 53.76,0.5 68.98,38.3zm1545.31 875.81c-2.47,-114.6 -16.99,-242.38 -57.57,-342.96 -22.8,-56.5 -37.81,-79.14 -56.45,-145.19 -14.28,-50.61 -23.24,-108.14 -39.09,-160.58 -26.46,-87.59 -92.87,-331.6 -55.77,-420.3 30.61,-73.2 82.68,-104.49 177.5,-114.69l35.81 65.92c88.14,78.56 19.87,-16.17 86.49,158.19 51.03,133.56 13.28,175.62 18.8,312.8 2.97,73.9 26.2,270.68 6.9,327.85 -22.78,67.5 -32.38,39.57 -19.11,135.03l12.92 127.59 -110.43 56.34zm-1325.41 -2175.05c35.95,-52.89 16.73,-119.65 82.69,-194.6 56.51,-64.21 31.44,-93.35 129.89,-137.83 27.71,-12.52 61.73,-33.68 94.81,-37.88l27.65 3.63c-47.53,19.59 -116.23,29.66 -126.91,86.9l150.47 -39.11c-37.05,20.65 -82.41,25.77 -115.22,50.7l-120.71 79.74c-29.49,19.39 -46.68,28.17 -63.21,55.85l70.23 26.12 -76.64 109.96c-10.33,24.56 -7.88,90.91 -16.18,115.3l-21.14 -79.32 -73.17 12.4 33.07 -60.05 -10.41 -11.61c-16.75,-16.92 -12.64,-18.9 -36.15,-31.38 20.56,88.16 -13.68,68.86 9.66,108.74 -45.87,5.35 -99.16,12.11 -138.92,29.69 52.95,36.14 23.13,22.79 94.11,9.81 -16.62,40.42 -34.01,72.34 -35.89,115.88l-96.75 -107.27c-24.32,-31.03 4.16,-12.19 -28.8,-25.48 19.15,52.96 24.92,87.36 62.7,127.5l35.84 78.47c-54.32,130.12 -19.77,86.79 -35.97,143.75 -25.48,89.54 -35.54,1.13 14.12,173.16 -17.69,-4.52 -29,-8.84 -43.38,0 44.03,109.49 1.56,80.19 19.62,138.08l56.09 -3.38 -57.06 95.99c-45.99,34.16 -79.47,7.93 -66.58,62.73l137.15 -80.88c12.02,97.24 32.44,194.58 -14.91,285.04 -35.35,67.52 -139.8,57.69 -242.71,74.55 25.87,-31.08 46.79,-35.02 54.64,-70.53l-80.68 -36.03 -6.87 50.03c-22.83,-16.55 -35.49,-21.33 -64.96,-24.17 38.51,115.49 47.7,39.66 92.47,139.56l58.15 -5.35 41.19 101.03c-44.43,-2.55 -81.23,3.6 -114.2,-25.09 -18.28,-15.91 4.28,-0.45 -17.79,-15.72 -70.55,-48.82 -173.67,-19.41 -210.77,-122.13 -21.18,-58.65 -35.25,-59.27 -41.34,-84.64 -3.04,-12.7 -1.68,-21.99 -2.06,-34.47l99 29.93c1.91,0.29 5.61,0.72 7.3,1.01l20.68 5.7c-25.31,13.52 -51.86,26.96 -64.08,50.26 50.44,-19.11 113.37,-24.84 130.87,-75.08 0.64,-1.83 2.19,-5.1 2.71,-7.06 8.23,-31.03 4.66,-46.17 -25.54,-59.14l-6.4 39.65c2.11,12.42 13.68,9.41 2.29,21.48 -0.43,-2.87 -6.22,2.69 -8.91,4.7 -27.96,-53.32 -50.89,-67.23 -36.38,-123.98 17.23,-67.38 -0.84,-131.85 1.34,-198.85 1.95,-59.77 20.14,-69.99 24.44,-95.08 0.76,-4.38 3.53,-5.02 5.56,-7.3 6.51,55.03 20.55,300.01 40.35,324.92 31.69,-104.27 17.67,-196.75 2.72,-302.81 -15.09,-107.05 1.99,-203.56 9.94,-312.68l6.78 17.2c0.81,2.56 2.04,5.88 2.86,8.76l14.37 74.4c6.91,28.56 19.99,56.49 26.96,85.27 32.51,134.13 51.99,476.38 195.46,492.03l-86.02 -134.03c-42.43,-84.78 -69.73,-428.82 -80.27,-534.57 -10.43,-104.61 -9.48,-101.35 28.22,-174.35 35.07,-67.91 55.43,-139.53 106.81,-194.37 19.44,-20.75 13.87,-17.93 23.41,-31.68 17.26,-24.87 2.53,-9.2 20.42,-24.57l49.36 -51.59c19.47,-25.91 26.19,-24.54 54.67,-38.61l-23.68 57.62 26.5 -6.44c29.72,-3.24 -4.63,-15.67 23.75,2.55l-47.65 41.88c-16.23,30.26 -10.42,21.38 -3.36,62.99l51.32 -80.21 91.83 -9.92 7.2 94.28zm136.35 -249.3c-33.3,9.89 -9.41,14.72 3.7,10.19 7.32,-2.53 22.65,-18.01 -3.7,-10.19zm29.78 1254.76c9.92,-65.3 9.42,-100.54 62.51,-129.44l5.44 51.5c42.37,-30.61 47.41,-43.17 80.34,-51l-41.46 49.8c29.28,20.69 23.96,25.22 27.14,45.23 13.47,84.7 -3.09,59.65 75.99,43.99l-16.33 49.35c-68.85,6.44 -42.95,-1.14 -81.1,30.37l-38.02 -45.42 48.7 -6.76c-12.39,-34.4 -14.79,-46.9 -44.12,-63.79 -64.47,31.15 -38.84,25.35 -79.09,26.17zm-835.34 11.95c-69.08,-39.46 36.71,32.16 -22.86,-13.2 8.06,-7.11 46.76,-3.82 57.76,-0.42 38.35,11.83 26.86,5.02 33.33,45.99l-68.23 -32.37zm1750.65 -61.57c44.31,-60.44 79.47,-17.98 155.66,-21.42 56.93,-2.58 27.55,-26.68 85.53,-17.22 44.73,7.29 53.04,13.62 84.33,-5.77l-35.93 62.97 -22.58 -14.29c-92.43,-50.82 -229.82,69.65 -300.67,83.88l-51.87 -52.76c47.57,-60.09 20.95,-46.69 29.57,-65.8l55.96 30.41zm-1158.04 -67.81c101.25,43.78 135.54,63.63 214.72,-11.96 22.94,71.46 9.22,57.85 -21.03,73.97l25.21 -47.5 -61.78 34.44 35.8 60.85c-90.25,-70.12 -80.72,-56.62 -192.92,-109.8zm1171.08 -31.35c42.28,28.42 1.23,-3.62 24.99,30.36 -51.06,8.22 -54.55,8.04 -60.28,-42.62 24.84,6.13 18.47,0.95 35.29,12.26zm-637.76 246.71c14.42,-11.52 12.79,-4.23 25.73,-17.86 32.2,-33.93 45.32,-161.75 52.05,-203.32 4.72,-29.19 4.71,-43.91 8.1,-64.49 25.9,-157 20.16,-79.71 66.32,-155.98 -14.22,44.98 -33.38,85.34 -31.01,115.63 7.32,93.56 -17.15,317.5 -148,353.15l26.81 -27.13zm-61.24 -1352.49c38.95,-21.27 47.67,-40.11 71.21,-73.8 140.28,52.53 119.53,66.07 170.64,88.74 97.85,43.4 51.48,44.8 65.77,158.39 0.13,1.12 0.64,4.23 0.7,5.33l-1.46 65.51c-3.69,31.94 -1.75,-14.46 -5.19,21.57 -5.68,59.45 -0.71,14.44 6.03,39.91l6.15 48.39c7.79,66.16 1.79,-14.49 13.87,37.4 6.02,25.88 -12.2,6.21 -2.73,34.86 5.16,15.61 17.16,17.74 29.33,27.22 -45.52,-11.54 -76.98,-29.25 -111.86,-33.48l38.66 79.89c19.85,31.57 -9.25,-47.09 13.33,23.01l12.88 -13.01c2.01,-1.83 8.74,-8.78 10.83,-10.12 18.98,-12.14 12.81,-0.18 52.71,19.81 97.85,49.06 250,23.53 286.68,157.15 -92.32,-80.63 -137.24,-120.92 -271.85,-124.03 -70.07,-1.62 -23.41,-8.16 -83.45,-27.12l15.28 82.37c-20.47,19.62 -35.5,26.52 -42.44,56.68 -6.52,28.36 -7.08,62.24 -11.73,87.99 -12.54,69.4 -128.8,190.22 -138.46,243.88 -1.3,7.24 4.99,17.36 -4.09,38.36 -17.95,41.52 -1.17,8.69 -15.28,8.68 -21.3,-0.01 -43.41,-6.69 -54.03,-16.4l99.24 -171.85 -34.15 31.53 -5.54 -17.74c-11.48,-20.53 11.78,-6.87 -16.08,-14.01l-65.32 110.11c-27.47,52.97 -25.93,95.76 -59.57,124.64 -0.84,-81.95 14.04,-66.56 21.37,-112.57 0.14,-0.86 -0.06,-3.8 0.04,-4.67 0.33,-2.73 -0.41,-7.27 0.21,-10.13 7.8,-36.34 58.24,-58.88 72.51,-103.82 14.3,-45.02 84.6,-98.18 48.15,-135.76 -26.84,8.4 -58.49,19.22 -69.69,34.55 -10.77,14.72 29.84,-21.98 -11.26,21.24 -28.98,30.49 -83.4,28.99 -82.31,84.38 0.35,17.87 9.35,7.55 2.12,37.37 -10.37,42.77 -5.51,87.59 -34.6,108.8 -19.87,-40.24 -24.48,-59.93 -9.72,-100.21 24.03,-65.58 23.83,-43.45 10.92,-101.23l64.52 1.6 -9.4 -26.16c-5.44,-17.28 -5.2,14.12 -6.3,-22.57 -0.92,-30.97 48.36,-50.29 84.01,-97.81 34.62,-46.16 95.93,-82.18 129.08,-127.3 19.2,14.81 39,19.3 45.88,20.23l-8.16 151.47 47.21 -146.55 -45.94 -53.96c-29.28,-33.26 -4.61,-32.1 -30.78,-61.21 -175.55,191.51 -224.34,146.82 -259.1,207.02 -1.69,2.92 -5.51,12.3 -7.03,15.41 -1.17,2.38 -2.29,5.42 -3.46,7.82 -24.12,49.41 -35.99,54.6 -36.9,131.65l-29.51 -29.55c1.13,-13.29 3.59,-13.45 -1.3,-28.51l-15.25 -25.17 43.98 -11.2 71.18 -129.44 -75.98 55.69c55.31,-53.47 110.32,-115.89 180.29,-150.39 54.45,-26.84 54.66,-37.86 103.08,-64.26 54.51,-29.72 76.25,-29.46 92.23,-62.45 -44.81,-3.78 -55.84,-5.82 -93.39,15.85 -21.79,12.58 1.86,-4.62 -21.66,13.52l-61.05 38.34c-23.88,9.81 -30.2,10.88 -53.13,25.12 -47.74,29.66 -86.51,44.04 -145.88,62.55l81.68 -70.97c37.92,-26.31 14.66,-6.4 54.87,-24.17 33.59,-14.85 22.23,-17.41 21.72,-44.16 -0.58,-30.96 -21.16,-19.04 68.95,-42.41 41.48,-10.76 84.62,-20.95 106.18,-41l-29.86 0.34c-63.16,6.73 -205.51,53.4 -206.21,53.4 -3.71,0.06 -60.14,-4.9 -66.26,-22.6 -1.12,-3.23 -5.24,-1.84 -7.56,-3.31l19.14 -14.03c9.4,-8.83 4.72,-1.17 16.18,-18.4 20.25,-30.44 8.47,1.14 20.09,-46.49l-98.34 1.98c-67.96,111.28 -89.8,92.41 -111.63,221.12 -15.22,89.72 15.68,84.51 19.28,104.34l-7.15 130.13 -36.54 -32.84 0 -133.15c-20.28,-89.67 -21.74,-85.8 15.88,-165.15 41.85,-88.3 81.2,-116.29 173.72,-149.99 51.49,-18.75 9.34,-26.58 72.88,-2.08l9.12 -62.69c-161.1,18.44 -180.67,-3.39 -266.82,158.63l-23.37 40.98c16.19,-72.97 20.44,-139.94 91.64,-184.05 55.43,-34.33 127.58,-39.29 183.97,-76.78 -21.64,-25.06 -37.02,-45.25 -67.22,-58.5 -18.94,-8.31 -10.54,-1.17 -20.14,-8.38l146.5 29.93 -22.77 -41.78c-1.38,-1.85 -5.31,-2.99 -6.37,-7.66 -1.08,-4.8 -4.78,-4.93 -6.62,-7.81zm248.04 201.4c29.24,-18.61 23.9,12.66 46.67,-27.21 -96.66,2.69 -94.69,2.03 -65.98,92.17 44.94,-8.66 26.22,-17.2 19.31,-64.96zm-60.69 472.42c26.34,23.27 17.54,5.97 29.92,-12.3 -31.33,-11.22 -18.5,-14.08 -29.92,12.3zm517.16 395.04c14.72,-19.09 1.32,-8.01 25.79,-26.3 60.85,-45.49 95.26,-48.67 94.21,-160l58.73 -166.39 29.61 -48.4 6.96 182.8 18.65 -123.42 34.09 39.38c3.9,5.72 14.38,21.91 21.74,33.2 18.53,28.44 29.41,46.18 46.52,75.98 117.12,204.03 -187.97,252.66 -188.45,252.65 -38.77,-0.91 -12,-4.58 -48.93,-12.88 -107.25,-24.1 -9.5,3.99 -98.92,-46.62zm-55.08 -149.27c-4.84,15.7 0.39,8 -8.28,19.23 -41.28,-22.75 -31.76,-11.63 -58.02,-62.51l-10.2 -19.17c-1.07,-6.09 -4,-7.06 -6.05,-10.56l36.9 24.05c1.6,1.06 17.46,11.69 18.09,12.02 17.16,9.07 14.63,5.48 36.8,7.92l-7.83 23.34c-0.35,1.19 -1.06,4.56 -1.41,5.68zm-1111.25 -8.79c2.1,-83.83 30.22,-49.4 79.4,-90.45 26.73,-22.31 19.47,-26.51 36.17,-53.33 25.74,-41.37 -3.23,-18 37.62,-34.97 -12.9,28.37 -28.1,67.53 -51.54,88.94l-20.41 13.05c-1.94,1.36 -4.98,2.81 -6.87,4.2l-39.02 56.07 90.75 -38.07c25.03,-14.26 2.19,-3.78 30.79,-17.17l-33.35 58.04 -123.54 13.69zm-19 72.32c46.28,-11.43 61.62,26.09 126.95,-22.51 170.93,-127.14 98.75,-99.21 149.36,-273.12l0.87 130.49c-15.6,136.15 -28.25,115.86 -45.02,166.75 65.43,-16.82 70.17,-7.68 86.49,-67.73 5.78,-21.28 8.29,-39.23 14.02,-58.71 13.3,-45.2 -24.22,-24.35 30.04,-29.04l-94.62 250.89c-46.72,13.5 -116.24,41.17 -149.31,40.97 -75.3,-0.45 -104.5,-38.99 -123.28,-86.13l74.79 37.1 25.04 -63.32 -95.33 -25.64zm1200.98 25.1c-32.56,13.25 -19.86,10.38 -48.57,3.56l-119.61 -34.95 -7.52 -16.4c-20.28,-46.23 -15.57,-51.19 -58.78,-62.29l45.39 110.35c-74.46,-80.03 -37.56,-29.52 -81.68,-134.03l20.84 -12.02c9.73,-8.18 4.51,-1.84 8.99,-16.25l-38.57 1.12 -31.44 -96.22c35.79,-16.76 11.91,-14.08 54.93,-22.47l-24.54 56.67c79.66,39.94 25.38,21.07 70.7,64.1 66.49,63.12 16.45,23.49 51.09,71.54 39.02,54.12 97.85,59.68 143.56,77.82 1.88,0.75 6.39,6.89 7.72,4.5 1.35,-2.41 5.14,3.11 7.49,4.97zm-444.8 -158.59c12.45,-43.95 9.6,-59.43 27.31,-101.24 23.38,-55.17 15.14,-44.7 16.74,-106.49 25.14,142.33 42.62,163.86 -44.05,207.73zm420.45 -9.81c-71.17,8.21 -61.63,-4.85 -95.62,-47.19l-74.29 -75.46 81.81 43.98 21.32 -9.76c29.6,-9.23 20.97,2.52 56.71,23.49 53.86,-23.07 34.7,-16.24 46.9,-10.1 -35.44,44.58 -20.58,28.14 -36.83,75.04zm-181.87 -115.39c-47.35,3.59 -18.27,-2.06 -51.19,-39.33 -25.95,-29.38 -24.13,-11.9 -44.58,-44.58 57.51,30.02 96.16,40.4 95.77,83.91zm-1043.18 224.7c-21.79,-27.74 -13.74,-14.23 -6.6,-57.61 1.46,-8.89 8.79,-47.15 11.43,-57.68 7.57,-30.22 24.31,-62.61 36.04,-95.52 25.83,-72.49 65.46,-61.04 107.29,-105.6 14.91,-15.89 1.71,-1.56 14.77,-19.27l24.33 38.08 -47.67 15.51c8.85,29.6 6.14,21.39 23.95,41.61l-101.74 104.98c-44.28,58.51 -11.43,96.46 -61.8,135.5zm-47.3 -232.41c40.17,-110.56 4.79,-93.41 38.74,-140.4 12.54,-17.36 13.39,-13.29 28.05,-29.97l69.68 -69.96c17.94,30.05 14.14,16.64 15.21,56.49 17.16,-11.15 24.97,-18.07 33.22,-15.1l-64.03 50.03 -1.41 -33.43c-17.65,8.31 -20.25,8.88 -27.6,27.41 -11.23,28.27 4.49,9.42 -28.35,73.19 -31.86,61.84 25.43,91.82 -63.51,81.74zm1293.58 -200.28c3.43,-105.12 53.43,-126.72 87.7,-212.72 15.8,26.79 23.94,42.2 31.35,74.25 39.63,171.48 56.36,340.47 -52.51,482.71 -19,24.82 -7,6.43 -17.52,27.83 -27.94,56.84 17.53,-40.94 -6.9,16.69 -0.84,1.97 -2.72,10.34 -3.31,8.68 -0.59,-1.67 -1.76,6.04 -3.23,8.8l-56.87 -21.88 87.12 -82.07 -69.34 -144.91c37.57,-71.18 42.65,-94.11 90.42,-148.58 32.55,-37.12 19.84,-4.57 32.48,-57.18 -74.79,59.03 -74.6,48.41 -119.21,114.63 -0.48,0.71 -13.1,18.42 -14.05,19.56 -13.78,16.63 -2.18,5.79 -17.43,16.69 -39.93,-120.96 -32.76,-96.77 31.3,-102.5zm-1152.34 -75.76c2.01,-61.77 -0.56,-45.29 22.02,-71.06l-1.22 93.49 -62.66 3.52 -0.23 -63.93 12.37 15.37c24.62,25.45 -6.99,4.29 29.72,22.61zm965.03 -390.4c147.9,59.67 400.09,135.37 152.75,386.44 -38.77,-104.9 -22.38,-40.61 -50.79,-97.29l80.54 -28.05 -91.23 -25.1c7.16,-51.69 1.75,2.2 18.41,-44.54l-55.06 2.49c-14.2,-127.77 -3.09,-53.09 18.54,-133.84l-61.39 38.12c-16.04,-33.09 -8.56,-54.28 -11.77,-98.23zm-170.85 70.71c2.22,-2.53 5.16,-5.72 6.65,-7.62l11.76 -14.89c6.7,-9.2 6.19,-8.54 12.74,-21.71l72.1 -6.99c-31.7,29.61 -57.63,43.15 -103.25,51.21zm-841.5 -70.74c97.93,-24.53 22.34,-6.86 83.8,-43.17l-9.4 79.87c-39.16,11.51 -108.01,45.42 -92.17,-30.55l17.77 -6.15z"/>
  <path class="fil1" d="M1560.03 1604.72c-13.16,-24.65 -32,-37.55 -12.69,-56.85 22.23,-22.21 40.92,7.23 50.05,21.16l-37.36 35.69 17.73 28.3 -57.91 2.89 40.18 -31.19zm-284.93 -102.95c4.71,-43.62 -2.57,-24.83 20.86,-48.48 6.51,206.39 30.8,214.8 -43.24,196.71l22.38 -148.23zm590.24 -1131.61c-13.11,4.53 -37,-0.3 -3.7,-10.19 26.35,-7.82 11.02,7.66 3.7,10.19zm-140.05 239.11l-7.2 -94.28 -91.83 9.92 -51.32 80.21c-7.06,-41.61 -12.87,-32.73 3.36,-62.99l47.65 -41.88c-28.38,-18.22 5.97,-5.79 -23.75,-2.55l-26.5 6.44 23.68 -57.62c-28.48,14.07 -35.2,12.7 -54.67,38.61l-49.36 51.59c-17.89,15.37 -3.16,-0.3 -20.42,24.57 -9.54,13.75 -3.97,10.93 -23.41,31.68 -51.38,54.84 -71.74,126.46 -106.81,194.37 -37.7,73 -38.65,69.74 -28.22,174.35 10.54,105.75 37.84,449.79 80.27,534.57l86.02 134.03c-143.47,-15.65 -162.95,-357.9 -195.46,-492.03 -6.97,-28.78 -20.05,-56.71 -26.96,-85.27l-14.37 -74.4c-0.82,-2.88 -2.05,-6.2 -2.86,-8.76l-6.78 -17.2c-7.95,109.12 -25.03,205.63 -9.94,312.68 14.95,106.06 28.97,198.54 -2.72,302.81 -19.8,-24.91 -33.84,-269.89 -40.35,-324.92 -2.03,2.28 -4.8,2.92 -5.56,7.3 -4.3,25.09 -22.49,35.31 -24.44,95.08 -2.18,67 15.89,131.47 -1.34,198.85 -14.51,56.75 8.42,70.66 36.38,123.98 2.69,-2.01 8.48,-7.57 8.91,-4.7 11.39,-12.07 -0.18,-9.06 -2.29,-21.48l6.4 -39.65c30.2,12.97 33.77,28.11 25.54,59.14 -0.52,1.96 -2.07,5.23 -2.71,7.06 -17.5,50.24 -80.43,55.97 -130.87,75.08 12.22,-23.3 38.77,-36.74 64.08,-50.26l-20.68 -5.7c-1.69,-0.29 -5.39,-0.72 -7.3,-1.01l-99 -29.93c0.38,12.48 -0.98,21.77 2.06,34.47 6.09,25.37 20.16,25.99 41.34,84.64 37.1,102.72 140.22,73.31 210.77,122.13 22.07,15.27 -0.49,-0.19 17.79,15.72 32.97,28.69 69.77,22.54 114.2,25.09l-41.19 -101.03 -58.15 5.35c-44.77,-99.9 -53.96,-24.07 -92.47,-139.56 29.47,2.84 42.13,7.62 64.96,24.17l6.87 -50.03 80.68 36.03c-7.85,35.51 -28.77,39.45 -54.64,70.53 102.91,-16.86 207.36,-7.03 242.71,-74.55 47.35,-90.46 26.93,-187.8 14.91,-285.04l-137.15 80.88c-12.89,-54.8 20.59,-28.57 66.58,-62.73l57.06 -95.99 -56.09 3.38c-18.06,-57.89 24.41,-28.59 -19.62,-138.08 14.38,-8.84 25.69,-4.52 43.38,0 -49.66,-172.03 -39.6,-83.62 -14.12,-173.16 16.2,-56.96 -18.35,-13.63 35.97,-143.75l-35.84 -78.47c-37.78,-40.14 -43.55,-74.54 -62.7,-127.5 32.96,13.29 4.48,-5.55 28.8,25.48l96.75 107.27c1.88,-43.54 19.27,-75.46 35.89,-115.88 -70.98,12.98 -41.16,26.33 -94.11,-9.81 39.76,-17.58 93.05,-24.34 138.92,-29.69 -23.34,-39.88 10.9,-20.58 -9.66,-108.74 23.51,12.48 19.4,14.46 36.15,31.38l10.41 11.61 -33.07 60.05 73.17 -12.4 21.14 79.32c8.3,-24.39 5.85,-90.74 16.18,-115.3l76.64 -109.96 -70.23 -26.12c16.53,-27.68 33.72,-36.46 63.21,-55.85l120.71 -79.74c32.81,-24.93 78.17,-30.05 115.22,-50.7l-150.47 39.11c10.68,-57.24 79.38,-67.31 126.91,-86.9l-27.65 -3.63c-33.08,4.2 -67.1,25.36 -94.81,37.88 -98.45,44.48 -73.38,73.62 -129.89,137.83 -65.96,74.95 -46.74,141.71 -82.69,194.6z"/>
  <path class="fil1" d="M3277.38 2340.15l18.72 86.1c30.07,95.05 438.52,179.05 510.5,166.15 125.2,-22.44 162.18,-223.37 211.23,-280.18l92.85 -74.39c-7.4,-94.23 -109,-152.13 -176.53,-134.02 -10.34,2.77 -160.35,66.41 -175.7,82.78l-37.93 54.49c-51.49,-10.5 -155.37,-90.2 -199.83,-126.92 -110.58,-91.35 -78.93,-65.68 -193.42,-140.6 -160.05,-104.71 -116.2,22.88 -116.37,119.36 -0.07,42.21 -12.2,199.3 41.28,236.74l25.2 10.49z"/>
  <path class="fil1" d="M2296.13 1176.48c8.73,-31.31 19.36,-29.39 43.74,-39.43 -15.92,55.62 1.36,42.04 -43.74,39.43zm11.99 -142.49c11.42,-26.38 -1.41,-23.52 29.92,-12.3 -12.38,18.27 -3.58,35.57 -29.92,12.3zm-6.63 -487.08c-0.46,47.64 13.02,28.8 -27.18,27.29 1.93,-22.73 9.6,-21.29 27.18,-27.29zm67.32 14.66c6.91,47.76 25.63,56.3 -19.31,64.96 -28.71,-90.14 -30.68,-89.48 65.98,-92.17 -22.77,39.87 -17.43,8.6 -46.67,27.21zm-78.3 -31.71c-34.39,-1.33 -23.77,2.26 -45.38,-8.61 3.76,-40.09 41.32,-39.4 45.38,8.61zm49.46 -100.75c1.26,2.28 2.55,5.42 3.92,7.63 1.34,2.13 3.21,4.87 4.67,6.89 22.55,31.23 23.14,9.27 35.49,59.34l-56.86 -14.24c-15.03,-27.01 3.67,-11.81 6.33,-38.4 0.44,-4.42 2.19,-5.92 2.96,-8.97 -44.04,-10.89 -55.34,-23.67 -20.42,-49.92l23.91 37.67zm-97.93 57.06l-7.16 -11.58c-33.63,-76.42 -18.82,-0.39 -26.01,-60.57 32.59,5.93 46.99,4.55 69.61,21.77 14.11,10.73 8.13,7.73 17.27,18.58 -57.15,41.52 -8.37,-1.51 -53.71,31.8zm-121.27 -126c1.84,2.88 5.54,3.01 6.62,7.81 1.06,4.67 4.99,5.81 6.37,7.66l22.77 41.78 -146.5 -29.93c9.6,7.21 1.2,0.07 20.14,8.38 30.2,13.25 45.58,33.44 67.22,58.5 -56.39,37.49 -128.54,42.45 -183.97,76.78 -71.2,44.11 -75.45,111.08 -91.64,184.05l23.37 -40.98c86.15,-162.02 105.72,-140.19 266.82,-158.63l-9.12 62.69c-63.54,-24.5 -21.39,-16.67 -72.88,2.08 -92.52,33.7 -131.87,61.69 -173.72,149.99 -37.62,79.35 -36.16,75.48 -15.88,165.15l0 133.15 36.54 32.84 7.15 -130.13c-3.6,-19.83 -34.5,-14.62 -19.28,-104.34 21.83,-128.71 43.67,-109.84 111.63,-221.12l98.34 -1.98c-11.62,47.63 0.16,16.05 -20.09,46.49 -11.46,17.23 -6.78,9.57 -16.18,18.4l-19.14 14.03c2.32,1.47 6.44,0.08 7.56,3.31 6.12,17.7 62.55,22.66 66.26,22.6 0.7,0 143.05,-46.67 206.21,-53.4l29.86 -0.34c-21.56,20.05 -64.7,30.24 -106.18,41 -90.11,23.37 -69.53,11.45 -68.95,42.41 0.51,26.75 11.87,29.31 -21.72,44.16 -40.21,17.77 -16.95,-2.14 -54.87,24.17l-81.68 70.97c59.37,-18.51 98.14,-32.89 145.88,-62.55 22.93,-14.24 29.25,-15.31 53.13,-25.12l61.05 -38.34c23.52,-18.14 -0.13,-0.94 21.66,-13.52 37.55,-21.67 48.58,-19.63 93.39,-15.85 -15.98,32.99 -37.72,32.73 -92.23,62.45 -48.42,26.4 -48.63,37.42 -103.08,64.26 -69.97,34.5 -124.98,96.92 -180.29,150.39l75.98 -55.69 -71.18 129.44 -43.98 11.2 15.25 25.17c4.89,15.06 2.43,15.22 1.3,28.51l29.51 29.55c0.91,-77.05 12.78,-82.24 36.9,-131.65 1.17,-2.4 2.29,-5.44 3.46,-7.82 1.52,-3.11 5.34,-12.49 7.03,-15.41 34.76,-60.2 83.55,-15.51 259.1,-207.02 26.17,29.11 1.5,27.95 30.78,61.21l45.94 53.96 -47.21 146.55 8.16 -151.47c-6.88,-0.93 -26.68,-5.42 -45.88,-20.23 -33.15,45.12 -94.46,81.14 -129.08,127.3 -35.65,47.52 -84.93,66.84 -84.01,97.81 1.1,36.69 0.86,5.29 6.3,22.57l9.4 26.16 -64.52 -1.6c12.91,57.78 13.11,35.65 -10.92,101.23 -14.76,40.28 -10.15,59.97 9.72,100.21 29.09,-21.21 24.23,-66.03 34.6,-108.8 7.23,-29.82 -1.77,-19.5 -2.12,-37.37 -1.09,-55.39 53.33,-53.89 82.31,-84.38 41.1,-43.22 0.49,-6.52 11.26,-21.24 11.2,-15.33 42.85,-26.15 69.69,-34.55 36.45,37.58 -33.85,90.74 -48.15,135.76 -14.27,44.94 -64.71,67.48 -72.51,103.82 -0.62,2.86 0.12,7.4 -0.21,10.13 -0.1,0.87 0.1,3.81 -0.04,4.67 -7.33,46.01 -22.21,30.62 -21.37,112.57 33.64,-28.88 32.1,-71.67 59.57,-124.64l65.32 -110.11c27.86,7.14 4.6,-6.52 16.08,14.01l5.54 17.74 34.15 -31.53 -99.24 171.85c10.62,9.71 32.73,16.39 54.03,16.4 14.11,0.01 -2.67,32.84 15.28,-8.68 9.08,-21 2.79,-31.12 4.09,-38.36 9.66,-53.66 125.92,-174.48 138.46,-243.88 4.65,-25.75 5.21,-59.63 11.73,-87.99 6.94,-30.16 21.97,-37.06 42.44,-56.68l-15.28 -82.37c60.04,18.96 13.38,25.5 83.45,27.12 134.61,3.11 179.53,43.4 271.85,124.03 -36.68,-133.62 -188.83,-108.09 -286.68,-157.15 -39.9,-19.99 -33.73,-31.95 -52.71,-19.81 -2.09,1.34 -8.82,8.29 -10.83,10.12l-12.88 13.01c-22.58,-70.1 6.52,8.56 -13.33,-23.01l-38.66 -79.89c34.88,4.23 66.34,21.94 111.86,33.48 -12.17,-9.48 -24.17,-11.61 -29.33,-27.22 -9.47,-28.65 8.75,-8.98 2.73,-34.86 -12.08,-51.89 -6.08,28.76 -13.87,-37.4l-6.15 -48.39c-6.74,-25.47 -11.71,19.54 -6.03,-39.91 3.44,-36.03 1.5,10.37 5.19,-21.57l1.46 -65.51c-0.06,-1.1 -0.57,-4.21 -0.7,-5.33 -14.29,-113.59 32.08,-114.99 -65.77,-158.39 -51.11,-22.67 -30.36,-36.21 -170.64,-88.74 -23.54,33.69 -32.26,52.53 -71.21,73.8z"/>
  <path class="fil1" d="M3050.7 2784.32l110.43 -56.34 -12.92 -127.59c-13.27,-95.46 -3.67,-67.53 19.11,-135.03 19.3,-57.17 -3.93,-253.95 -6.9,-327.85 -5.52,-137.18 32.23,-179.24 -18.8,-312.8 -66.62,-174.36 1.65,-79.63 -86.49,-158.19l-35.81 -65.92c-94.82,10.2 -146.89,41.49 -177.5,114.69 -37.1,88.7 29.31,332.71 55.77,420.3 15.85,52.44 24.81,109.97 39.09,160.58 18.64,66.05 33.65,88.69 56.45,145.19 40.58,100.58 55.1,228.36 57.57,342.96z"/>
  <path class="fil1" d="M969.68 2592.74l153.69 32.28c18.54,-46.1 32.74,-95.86 52.07,-145.63 21.08,-54.25 39.23,-103.41 55.43,-156.14l110.08 -319.5c-27.84,-18.97 -41.03,-1.07 -72.66,-44.3 -73.09,-99.91 -56.85,-10.46 -118.66,-56.24l-59.69 -53.06c-34.41,38.77 -13.94,24.19 -15.33,27.93 -5.78,15.54 -7.71,28.51 -11.35,44.07 -19.01,81.08 -97.62,636.99 -93.58,670.59z"/>
  <path class="fil1" d="M1930.03 2551.8l37.19 225.87c391.99,-32.26 218.85,3.32 617.33,-93.36 -6.1,-11.46 -8.65,-23.78 -19.53,-39.19 -6.76,-9.57 -62.85,-79.46 -79.69,-86.8 -50.37,-21.95 -125.45,2.77 -192.86,-29.65 -82.56,-39.71 -74.94,-4.67 -176.71,2.75 -67.47,4.92 -129.33,-10.13 -185.73,20.38z"/>
  <path class="fil1" d="M1486.98 2778.21l426.56 -6.06c0.49,-114.64 -15.02,-141.18 -54.49,-231.56 -167.47,0.16 -226.35,-0.7 -364.45,-53.98 51.54,90.21 13.6,203.34 -7.62,291.6z"/>
  <path class="fil1" d="M2825.28 1429.03c89.42,50.61 -8.33,22.52 98.92,46.62 36.93,8.3 10.16,11.97 48.93,12.88 0.48,0.01 305.57,-48.62 188.45,-252.65 -17.11,-29.8 -27.99,-47.54 -46.52,-75.98 -7.36,-11.29 -17.84,-27.48 -21.74,-33.2l-34.09 -39.38 -18.65 123.42 -6.96 -182.8 -29.61 48.4 -58.73 166.39c1.05,111.33 -33.36,114.51 -94.21,160 -24.47,18.29 -11.07,7.21 -25.79,26.3z"/>
  <path class="fil1" d="M1146.83 2783.12l240.86 -73.75c-13.62,30.19 -39.08,38.97 -60.95,53.83 -2.73,1.86 -11.01,7.89 -13.34,9.65l-13.06 11.11c31.88,0.2 44.49,-2.25 74.26,-4.95 0.03,-0.01 37.72,-3.15 38.76,-3.31 3.51,-0.54 6.45,-0.93 9.8,-1.57 96.91,-18.66 48.01,-220.58 37.86,-290.23 -87.3,9.89 -138.16,1.8 -223.18,-7.26 -30.58,96.16 -89.94,177.95 -91.01,306.48z"/>
  <path class="fil1" d="M1395.57 2210.68c-1.52,-17.69 -2.53,-8.21 5.13,-19.87 1.07,-1.61 3.18,-4.75 4.51,-6.48l21.17 -19.98c-101.11,17.48 -119.2,142.97 -157.54,261.91l194.59 3.2 70.9 -70.18c-4.55,-32.22 -26.91,-6.99 5.8,-69.86 23.83,26.92 1.79,-2.37 12.36,23.8l8.45 26.97c46.81,-68.55 27.63,18.03 157.8,-152.31l-149.5 -42.94c-9.94,0.72 -24.18,23.78 -55.74,47.77 -32.76,-52.62 29.67,56.26 -9.87,-21.99l-12.42 -22.2c-66.44,46.7 -2.8,39.02 -95.64,62.16z"/>
  <path class="fil1" d="M3423.49 3043.76c30.14,6.56 136.9,69.55 152.62,83.25 -3.67,-37.97 -4.44,-19.1 -12.04,-44.45l66.88 19.84c-254.2,-92.79 -80.7,-70.43 -230.56,-118.84 -209.41,-67.64 -179.41,-76.84 -211.52,-178.24 -21.36,-5.67 -64.1,-17.17 -131.43,23.27l20.18 181.16c69.5,47.08 104.41,100.33 155.98,121.54 -73.95,-132.98 -68.78,-56.95 -56.94,-121.59 288.13,73.38 132.81,42.7 279.02,112.94l-8.22 -18.1c-30.29,-62.35 -24.22,-14.15 -23.97,-60.78z"/>
  <path class="fil1" d="M3992.01 2080.39c139.14,-19.63 97.56,-57.52 252.4,113.25 60.14,-20.87 11.37,-23.5 177.37,-74.95 2.4,-48.42 -20.4,-97.17 -49.31,-121.16 -36.13,-29.97 -84.21,-3.7 -127.83,5.52 -80.4,16.99 -170.01,-6.91 -252.63,77.34z"/>
  <path class="fil1" d="M1784.12 1431.86c-3.12,-50.85 -5.44,-19.69 51.95,-51.43 -10.28,27.12 4.02,10 -20.88,33.96 -13.64,13.14 -11.09,10.22 -31.07,17.47zm-144.17 -88.57l95.33 25.64 -25.04 63.32 -74.79 -37.1c18.78,47.14 47.98,85.68 123.28,86.13 33.07,0.2 102.59,-27.47 149.31,-40.97l94.62 -250.89c-54.26,4.69 -16.74,-16.16 -30.04,29.04 -5.73,19.48 -8.24,37.43 -14.02,58.71 -16.32,60.05 -21.06,50.91 -86.49,67.73 16.77,-50.89 29.42,-30.6 45.02,-166.75l-0.87 -130.49c-50.61,173.91 21.57,145.98 -149.36,273.12 -65.33,48.6 -80.67,11.08 -126.95,22.51z"/>
  <path class="fil1" d="M2806.73 1565.11l-55.96 -30.41c-8.62,19.11 18,5.71 -29.57,65.8l51.87 52.76c70.85,-14.23 208.24,-134.7 300.67,-83.88l22.58 14.29 35.93 -62.97c-31.29,19.39 -39.6,13.06 -84.33,5.77 -57.98,-9.46 -28.6,14.64 -85.53,17.22 -76.19,3.44 -111.35,-39.02 -155.66,21.42z"/>
  <path class="fil1" d="M1591.53 1309.3c50.37,-39.04 17.52,-76.99 61.8,-135.5l101.74 -104.98c-17.81,-20.22 -15.1,-12.01 -23.95,-41.61l47.67 -15.51 -24.33 -38.08c-13.06,17.71 0.14,3.38 -14.77,19.27 -41.83,44.56 -81.46,33.11 -107.29,105.6 -11.73,32.91 -28.47,65.3 -36.04,95.52 -2.64,10.53 -9.97,48.79 -11.43,57.68 -7.14,43.38 -15.19,29.87 6.6,57.61z"/>
  <path class="fil1" d="M1891.42 1614.73c40.25,-0.82 14.62,4.98 79.09,-26.17 29.33,16.89 31.73,29.39 44.12,63.79l-48.7 6.76 38.02 45.42c38.15,-31.51 12.25,-23.93 81.1,-30.37l16.33 -49.35c-79.08,15.66 -62.52,40.71 -75.99,-43.99 -3.18,-20.01 2.14,-24.54 -27.14,-45.23l41.46 -49.8c-32.93,7.83 -37.97,20.39 -80.34,51l-5.44 -51.5c-53.09,28.9 -52.59,64.14 -62.51,129.44z"/>
  <path class="fil1" d="M2155.2 1739.79c130.85,-35.65 155.32,-259.59 148,-353.15 -2.37,-30.29 16.79,-70.65 31.01,-115.63 -46.16,76.27 -40.42,-1.02 -66.32,155.98 -3.39,20.58 -3.38,35.3 -8.1,64.49 -6.73,41.57 -19.85,169.39 -52.05,203.32 -12.94,13.63 -11.31,6.34 -25.73,17.86l-26.81 27.13z"/>
  <path class="fil1" d="M1544.23 1076.89c88.94,10.08 31.65,-19.9 63.51,-81.74 32.84,-63.77 17.12,-44.92 28.35,-73.19 7.35,-18.53 9.95,-19.1 27.6,-27.41l1.41 33.43 64.03 -50.03c-8.25,-2.97 -16.06,3.95 -33.22,15.1 -1.07,-39.85 2.73,-26.44 -15.21,-56.49l-69.68 69.96c-14.66,16.68 -15.51,12.61 -28.05,29.97 -33.95,46.99 1.43,29.84 -38.74,140.4z"/>
  <path class="fil1" d="M1658.95 1270.97l123.54 -13.69 33.35 -58.04c-28.6,13.39 -5.76,2.91 -30.79,17.17l-90.75 38.07 39.02 -56.07c1.89,-1.39 4.93,-2.84 6.87,-4.2l20.41 -13.05c23.44,-21.41 38.64,-60.57 51.54,-88.94 -40.85,16.97 -11.88,-6.4 -37.62,34.97 -16.7,26.82 -9.44,31.02 -36.17,53.33 -49.18,41.05 -77.3,6.62 -79.4,90.45z"/>
  <path class="fil0" d="M1252.72 1650c74.04,18.09 49.75,9.68 43.24,-196.71 -23.43,23.65 -16.15,4.86 -20.86,48.48l-22.38 148.23z"/>
  <path class="fil1" d="M2206.15 3084.16c-17.27,-1.1 -17.24,-2.77 -34.67,-0.64 -36.73,4.47 -16.16,4.97 -25.78,10.19 -46.67,90.97 96.88,128.55 60.45,-9.55z"/>
  <path class="fil1" d="M1620.38 416.57c-15.84,75.97 53.01,42.06 92.17,30.55l9.4 -79.87c-61.46,36.31 14.13,18.64 -83.8,43.17l-17.77 6.15z"/>
  <path class="fil1" d="M2396.13 1209.8c86.67,-43.87 69.19,-65.4 44.05,-207.73 -1.6,61.79 6.64,51.32 -16.74,106.49 -17.71,41.81 -14.86,57.29 -27.31,101.24z"/>
  <polygon class="fil1" points="2458.64,3172.53 2515.43,3129.55 2503.01,3090.02 2443.31,3090.06 2429.3,3141.48 "/>
  <path class="fil1" d="M2736.46 3093.22l-1.64 63.66 62.59 8.34 -1.74 -79.81c-43.39,-4.35 -25.37,-9.21 -59.21,7.81z"/>
  <path class="fil1" d="M1648.69 1497.3c112.2,53.18 102.67,39.68 192.92,109.8l-35.8 -60.85 61.78 -34.44 -25.21 47.5c30.25,-16.12 43.97,-2.51 21.03,-73.97 -79.18,75.59 -113.47,55.74 -214.72,11.96z"/>
  <path class="fil1" d="M2735.42 2935.24c-21.74,108.69 101.67,76.29 48.98,-6.18l-48.98 6.18z"/>
  <path class="fil1" d="M2163.52 3001.68c53.13,-5.13 39.18,-21.61 32.46,-64.91 -22.59,-8.81 -36.84,-17.62 -51.78,9.92 -16.71,30.78 9.79,46.99 19.32,54.99z"/>
  <path class="fil0" d="M2336.48 441.36c-0.77,3.05 -2.52,4.55 -2.96,8.97 -2.66,26.59 -21.36,11.39 -6.33,38.4l56.86 14.24c-12.35,-50.07 -12.94,-28.11 -35.49,-59.34 -1.46,-2.02 -3.33,-4.76 -4.67,-6.89 -1.37,-2.21 -2.66,-5.35 -3.92,-7.63l-23.91 -37.67c-34.92,26.25 -23.62,39.03 20.42,49.92z"/>
  <path class="fil0" d="M2242.04 486.17c45.34,-33.31 -3.44,9.72 53.71,-31.8 -9.14,-10.85 -3.16,-7.85 -17.27,-18.58 -22.62,-17.22 -37.02,-15.84 -69.61,-21.77 7.19,60.18 -7.62,-15.85 26.01,60.57l7.16 11.58z"/>
  <path class="fil1" d="M1685.47 800.85c-36.71,-18.32 -5.1,2.84 -29.72,-22.61l-12.37 -15.37 0.23 63.93 62.66 -3.52 1.22 -93.49c-22.58,25.77 -20.01,9.29 -22.02,71.06z"/>
  <path class="fil0" d="M1560.03 1604.72l-40.18 31.19 57.91 -2.89 -17.73 -28.3 37.36 -35.69c-9.13,-13.93 -27.82,-43.37 -50.05,-21.16 -19.31,19.3 -0.47,32.2 12.69,56.85z"/>
  <path class="fil1" d="M2445.58 2988.97c5.65,2.99 -15.22,26.91 52.07,-1.47l-14.39 -56.23c-46.34,6.36 -52.51,17.19 -37.68,57.7z"/>
  <path class="fil1" d="M2172.43 2467.24c51.99,7.71 41.56,7.97 64.8,-21.86 -45.96,-27.56 -0.94,40.66 -63.59,-37.5l-1.21 59.36z"/>
  <path class="fil1" d="M1033.22 1613.48c59.57,45.36 -46.22,-26.26 22.86,13.2l68.23 32.37c-6.47,-40.97 5.02,-34.16 -33.33,-45.99 -11,-3.4 -49.7,-6.69 -57.76,0.42z"/>
  <path class="fil1" d="M2844.76 1496.31c-23.76,-33.98 17.29,-1.94 -24.99,-30.36 -16.82,-11.31 -10.45,-6.13 -35.29,-12.26 5.73,50.66 9.22,50.84 60.28,42.62z"/>
  <path class="fil1" d="M1505.39 1908.51c-15.22,-37.8 -5.08,-35.71 -68.98,-38.3 14.35,29 31.1,42.31 68.98,38.3z"/>
  <path class="fil2" d="M1784.12 1431.86c19.98,-7.25 17.43,-4.33 31.07,-17.47 24.9,-23.96 10.6,-6.84 20.88,-33.96 -57.39,31.74 -55.07,0.58 -51.95,51.43z"/>
  <path class="fil0" d="M2245.13 521.25c21.61,10.87 10.99,7.28 45.38,8.61 -4.06,-48.01 -41.62,-48.7 -45.38,-8.61z"/>
  <path class="fil2" d="M2296.13 1176.48c45.1,2.61 27.82,16.19 43.74,-39.43 -24.38,10.04 -35.01,8.12 -43.74,39.43z"/>
  <path class="fil2" d="M2274.31 574.2c40.2,1.51 26.72,20.35 27.18,-27.29 -17.58,6 -25.25,4.56 -27.18,27.29z"/>
 </g>
</svg>
