<?xml version="1.0" encoding="UTF-8"?>
<!DOCTYPE svg PUBLIC "-//W3C//DTD SVG 1.1//EN" "http://www.w3.org/Graphics/SVG/1.1/DTD/svg11.dtd">
<!-- Creator: CorelDRAW 2017 -->
<svg xmlns="http://www.w3.org/2000/svg" xml:space="preserve" width="38.649mm" height="38.649mm" version="1.1" style="shape-rendering:geometricPrecision; text-rendering:geometricPrecision; image-rendering:optimizeQuality; fill-rule:evenodd; clip-rule:evenodd"
viewBox="0 0 3864.9 3864.9"
 xmlns:xlink="http://www.w3.org/1999/xlink">
 <defs>
  <style type="text/css">
   <![CDATA[
    .str0 {stroke:#FEFEFE;stroke-width:20;stroke-miterlimit:22.9256}
    .fil0 {fill:#FEFEFE}
    .fil2 {fill:#00447A}
    .fil1 {fill:#E51B23}
   ]]>
  </style>
 </defs>
 <g id="Capa_x0020_1">
  <metadata id="CorelCorpID_0Corel-Layer"/>
  <circle class="fil0 str0" cx="1932.45" cy="1932.45" r="1932.44"/>
  <g id="_2563125107760">
   <path class="fil1" d="M730.95 1904.61c-17.1,47.3 -50.65,78.69 -77.47,120.01l122.21 0.57 141.07 -201.88c21.12,25.61 69.51,98.96 72.89,133.19 -137,0 -134.75,-17.25 -175.21,70.39l365.15 -0.52c-21.01,-44.06 -65.61,-95.51 -97.74,-141.46 -66.63,-95.28 -142.91,-267.12 -248.15,-115.65 -25.75,37.06 -71.39,107.62 -102.75,135.35z"/>
   <path class="fil1" d="M610.2 2144.25c37,14.5 445.2,11.14 522.82,4.3 18.61,-33.31 23.97,-25.59 41.75,-60.86l-527.13 -0.39c-19.34,23.18 -22.66,27.28 -37.44,56.95z"/>
   <path class="fil2" d="M1133.02 2148.55l2578.59 2.63 0 -63.82 -2536.84 0.33c-17.78,35.27 -23.14,27.55 -41.75,60.86z"/>
   <path class="fil2" d="M153.28 2010.37l0 13.71c207.43,5.56 94.78,-11.25 163.73,-136.91 45.22,39.06 66.15,146.97 151,138.64 77.19,-7.57 88.08,-108.91 133.05,-151.69l52.42 150.5c26.82,-41.32 60.37,-72.71 77.47,-120.01 -73.84,-103.84 -8.03,-194.39 -145.07,-192.61 -32.13,35.6 -43.56,47.44 -68.26,90.35 -20.13,34.96 -33.08,64.42 -58.72,93.19 -53.87,-42.03 -98.18,-232.78 -195.35,-173.38 -54.81,33.5 -71.02,227.03 -110.27,288.21z"/>
   <path class="fil2" d="M2481.36 1809.16c18.69,-20.92 -13.03,-9.59 40.02,-16.75 7.65,-1.03 44.57,0.02 54.78,0.18 197.13,3.1 148.64,2.66 213.94,-78.17l-311.89 -3.67c-135.2,0 -127.54,145.74 -67.43,176.46 38.71,19.78 107.41,9.63 154.75,9.43 117.65,-0.5 119.12,-14.14 143.53,21.67 -19.24,36 -38.67,25.94 -88.47,25.55 -172.71,-1.36 -186.36,-18.83 -242.22,81.56l263.65 0.89c74.53,0.13 136.15,10.54 157.1,-59.67 67.04,-224.61 -238.89,-126.96 -317.76,-157.48z"/>
   <path class="fil2" d="M3711.61 1968.15l0 -92.42c-47.77,-55.53 -42.61,-59.13 -141.61,-59.64 -53.94,-0.28 -138.9,13.52 -182.72,-6.93 14.74,-14.57 18.27,-14.89 61.36,-15.88 206.48,-4.72 175.69,34.78 248.12,-78.42 -70.51,-9.32 -172.65,-2.46 -247.17,-2.86 -85.52,-0.46 -150.1,-8.7 -168.49,70.58 -32.42,139.8 117.62,117.05 245.55,114.98 105.23,-1.7 81.95,8.11 88.24,31.66 -105.99,74.42 -241.4,-73.62 -331.47,97.72 80.88,0.16 161.78,-0.17 242.66,0.1 120.39,0.4 121.05,13.67 185.53,-58.89z"/>
   <path class="fil2" d="M2320.87 2022.83c-34.88,-26.94 -40.67,-43.96 -83.88,-69.61l44.95 -45.74c13.31,-17.11 22.33,-36.32 24.05,-65.85 9.9,-169.54 -189.23,-129.56 -373.54,-129.56 -34.54,13.57 -58.6,51.28 -63.79,81.54 64.91,0 129.89,0.31 194.78,-0.05 49.64,-0.27 151.65,-19.4 142.86,47.4 -6.76,51.35 -111.37,32.77 -164.7,32.81 -59.79,0.04 -122.84,-4.35 -181.97,4.81l0.1 147.02 92.84 0.69 5.99 -81.52c166.46,2.23 128.1,-10.54 221.64,82.61l140.67 -4.55z"/>
   <path class="fil2" d="M1775.91 1793.61c20.48,-23.55 42.67,-52.14 55.69,-80.48l-344.39 0.19 0.1 312.19 41.28 1.5c244.84,4.44 259.52,22.86 298.26,-70.75 -211.55,0 -249.46,26.65 -242.82,-45.9l188.76 -0.32c15.51,-34.9 30.69,-47.12 47.2,-78.49l-204.72 -2.45c-47.44,-9.44 -25.24,14.81 -34.84,-35.49l195.48 0z"/>
   <path class="fil2" d="M2819.5 1714.12c181.05,216.23 187.59,131.73 192.18,312.89l90.81 0c3.67,-138.4 -9.04,-98.86 69.83,-178.39 18.38,-18.53 105.86,-115.63 115.83,-137.07 -201.45,-1.06 -118.67,18.86 -231.44,114.15 -110.06,-71.72 -39.58,-131.36 -237.21,-111.58z"/>
   <path class="fil2" d="M1460.52 1712.34l-325.85 -0.16c-18.96,34.1 -29.81,35.97 -48.12,81.26l131.02 2.05 2.89 230.64 92.55 0.88 0.14 -231.5 102.44 -1.73 44.93 -81.44z"/>
   <path class="fil2" d="M153.28 2151.18c88.95,0 401.62,16.74 456.92,-6.93 14.78,-29.67 18.1,-33.77 37.44,-56.95l-494.36 0.06 0 63.82z"/>
  </g>
 </g>
</svg>
