<?xml version="1.0" encoding="UTF-8"?>
<!DOCTYPE svg PUBLIC "-//W3C//DTD SVG 1.1//EN" "http://www.w3.org/Graphics/SVG/1.1/DTD/svg11.dtd">
<!-- Creator: CorelDRAW 2017 -->
<svg xmlns="http://www.w3.org/2000/svg" xml:space="preserve" width="50.7998mm" height="33.8666mm" version="1.1" style="shape-rendering:geometricPrecision; text-rendering:geometricPrecision; image-rendering:optimizeQuality; fill-rule:evenodd; clip-rule:evenodd"
viewBox="0 0 5079.98 3386.66"
 xmlns:xlink="http://www.w3.org/1999/xlink">
 <defs>
  <style type="text/css">
   <![CDATA[
    .str12 {stroke:#373435;stroke-width:20;stroke-miterlimit:22.9256}
    .str8 {stroke:#3E4095;stroke-width:9.61;stroke-linecap:round;stroke-linejoin:round;stroke-miterlimit:22.9256}
    .str4 {stroke:#3E4095;stroke-width:9.61;stroke-linecap:round;stroke-linejoin:round;stroke-miterlimit:22.9256}
    .str6 {stroke:#3E4095;stroke-width:9.61;stroke-linecap:round;stroke-linejoin:round;stroke-miterlimit:22.9256}
    .str10 {stroke:#3E4095;stroke-width:9.61;stroke-linecap:round;stroke-linejoin:round;stroke-miterlimit:22.9256}
    .str5 {stroke:#3E4095;stroke-width:9.61;stroke-linecap:round;stroke-linejoin:round;stroke-miterlimit:22.9256}
    .str9 {stroke:#3E4095;stroke-width:9.61;stroke-linecap:round;stroke-linejoin:round;stroke-miterlimit:22.9256}
    .str7 {stroke:#3E4095;stroke-width:9.61;stroke-linecap:round;stroke-linejoin:round;stroke-miterlimit:22.9256}
    .str11 {stroke:#3E4095;stroke-width:9.61;stroke-linecap:round;stroke-linejoin:round;stroke-miterlimit:22.9256}
    .str3 {stroke:#3E4095;stroke-width:12.18;stroke-linecap:round;stroke-linejoin:round;stroke-miterlimit:22.9256}
    .str2 {stroke:#3E4095;stroke-width:12.18;stroke-linecap:round;stroke-linejoin:round;stroke-miterlimit:22.9256}
    .str0 {stroke:#3E4095;stroke-width:12.18;stroke-linecap:round;stroke-linejoin:round;stroke-miterlimit:22.9256}
    .str1 {stroke:#3E4095;stroke-width:12.18;stroke-linecap:round;stroke-linejoin:round;stroke-miterlimit:22.9256}
    .fil0 {fill:none}
    .fil3 {fill:#3E4095}
    .fil5 {fill:black}
    .fil7 {fill:#FCFCFC}
    .fil6 {fill:white}
    .fil1 {fill:black}
    .fil2 {fill:white}
    .fil4 {fill:#3E4095;fill-rule:nonzero}
   ]]>
  </style>
 </defs>
 <g id="Capa_x0020_1">
  <metadata id="CorelCorpID_0Corel-Layer"/>
  <rect class="fil0" x="-0" width="5079.99" height="3386.66"/>
  <g id="_2254354016048">
   <path class="fil1" d="M975.92 2055.08c20.46,-42.64 18.35,-101.84 56.93,-130.1 3.66,43.96 36.1,108.43 -56.93,130.1zm788.78 -276.48c0,-49.37 -7.29,-43.83 24.4,-65.05 -1.16,13.85 -3.92,30.85 -7.43,41.36 -7.45,22.29 -0.03,11.28 -16.97,23.69zm-1683.27 65.06c123.28,-82.56 206.64,-103.27 268.11,-138.48 120.94,-69.29 156.39,-76.09 273.99,-132.59 116.43,-55.94 231.31,-97.29 360.53,-127.39 0,69.04 -29.32,176.09 -22.61,233.38 10.57,90.36 47,180.6 47,213.87 0,60.96 -47.1,110.93 -48.79,187.02 29.38,-2.44 38.75,-10.13 65.05,-16.26 -10.63,22.17 -38.27,109.58 -40.65,138.24 -37.49,3.12 -22.18,6.57 -48.79,24.4 -0.71,-31.96 2.21,-19.07 -8.14,-40.66 -26.46,2.2 -49.45,11.63 -77.81,19.78 -28.44,8.18 -49.4,14.52 -76.7,20.88 0,-92.92 81.32,-166.74 81.32,-268.35 -69.82,1.55 -289.63,133.83 -375.68,185.42 -19.27,11.56 -38.29,23.88 -55.66,33.77l-56.56 32.9c-119.05,-79.72 -161.39,-189.99 -254.58,-314.65 -16.5,-22.06 -18.01,-28.55 -30.03,-51.28zm1439.32 -910.76c0,-76.18 10.32,-126.64 24.39,-187.04 55.76,29.5 53.84,50.9 95.52,91.52 42.05,40.97 50.09,49.25 50.84,128.06 0.41,43.56 9.91,52.35 7.99,88.73 -1.42,26.93 -6.18,44.35 -8.21,81.79 -1.45,26.65 -4.77,50.28 -8.89,80.55 -5.24,38.59 -15.65,37.03 -23.4,66.05 29.87,20.01 51.82,57.32 67.67,94.97 17.99,42.77 21.78,74.18 21.78,132.72l8.14 65.06c4.63,19.88 22.02,77.82 22.57,91.37 1.48,36.5 -30.71,45.01 -30.71,79.39 0,52.33 20.72,66.64 -7.39,106.34 -18.9,26.69 -48.4,37.87 -57.66,72.57 55.81,-14.91 113.84,-119.3 113.84,-195.17l-32.53 -219.56c16.76,-11.21 21.11,-24.39 40.67,-24.39 8.37,0 89.44,14.68 89.44,48.79 0,139.28 -67.95,338.71 -127.35,458.12 -12.38,24.88 -17.32,34.88 -31.81,57.65 -13.96,21.91 -17.97,38.34 -44.13,45.32 0,119.74 0.45,235.17 48.82,341.5 52.88,116.23 29.61,67.16 24.36,130.14 -58.02,-27.84 -136.9,-23.09 -200.15,-4.98 -112.73,32.28 -9.41,45.89 -190.17,45.65 -354.11,-0.47 -303.43,56.92 -422.85,56.92 -6.62,-24.77 -6.11,-14.44 -17.41,-39.52 -48.53,-107.76 -0.08,-218.12 27.26,-316.55 29.31,-105.54 35.43,-99.87 56.46,-163.12 64.08,-192.84 42.41,-185.79 -11.98,-323.93 -36.48,-92.63 -35.86,-289.52 -6.77,-361.62 10.84,-26.88 -0.82,-0.96 12.35,-20.18 14.39,-20.96 1.58,13.06 13.27,-19.24 -59.79,0 -123.78,40.65 -276.48,40.65 -68.54,0 -148.53,-69.53 -162.64,-130.11 29.25,-6.81 34.72,-15.75 64.88,-24.58 170.58,-49.88 356.92,-37.83 520.62,-24.21 -12.68,-17.31 -0.63,-10.57 -24.4,-16.26l0 -24.4c79.25,-6.59 147.98,-48.79 243.95,-48.79 150.84,0 111.21,19.44 170.77,24.4 -50.17,-74.93 -40.66,-180.19 -40.66,-284.61zm430.99 1626.36l0 -16.27c-80.29,0 -92.95,43 -162.64,48.79 0,-81.82 4.42,-89.97 -24.28,-146.48 -180.02,-354.39 146.25,-443.5 146.25,-951.31 -48.1,-25.45 -91.2,-45.45 -146.37,-16.27 0,-117.9 -67.7,-167.52 -70.38,-211.86 -3.98,-65.73 30.7,-176.47 18.22,-256.3 -6.9,-44.07 -1.74,-86.06 -8.08,-130.26 -12.3,-85.71 -26.97,-276.26 -110.53,-320.47 -72.36,48.46 -99.54,370.92 -87.22,461.3 6,43.99 14.04,121.05 14.04,172.98 -15.11,-7.25 -134.68,-18.31 -162.13,-16.13 -111.82,8.88 -260.45,78.78 -277.97,80.73 -34.19,3.81 -40.91,-7.52 -80.39,-8.27l-245.13 23.77c-96.63,15.78 -357.91,77.51 -380.96,163.86 79.99,6.65 90.72,45.48 257.88,38.55 34.22,-1.42 13.9,2.82 45.12,8 21.83,3.62 73.69,-5.9 111.72,-5.9 -23.13,20.12 -60.19,31.63 -88.42,41.7 -38.68,13.8 -62.8,21.46 -98.64,39.59 -71.38,36.1 -508.34,259.88 -544.8,268.38 3.33,40.08 38.77,80.41 61.62,109.15 38.92,48.94 51.29,92.83 111.19,157.15 18.92,20.31 23.65,27.84 41.05,48.41l87.02 91.88c121.04,-64.05 225.44,-137.22 352.37,-200.58l127.4 -59.63c-26.56,114 -89.45,191.05 -89.45,284.61 27.34,-2.28 53.08,-16.39 80.22,-25.49 27,-9.05 54.83,-22.51 90.55,-23.3l-40.66 146.37c33.55,-2.8 12.38,0.93 29.77,-10.89 33.68,-22.88 -13.34,-6.97 27.16,-21.64 -4.69,56.29 -65.41,177.18 -31.11,283.2 10.07,31.14 27.97,44.99 31.11,82.73 -82.32,6.86 -105.47,136.62 -235.5,138.57 -33.04,0.5 -54.28,-2.91 -85.4,4.06 -37.48,8.37 -35,14.59 -75.13,22.45 -20.25,3.97 -61.63,6.11 -83.45,14.13 -29.02,10.65 -33.43,25.1 -49.09,48.48 -64.18,-14.95 -136.8,-26.53 -207.79,-4.49l-38.52 18.41c-14.42,9.51 -5.91,3.53 -13.91,10.48 64.88,0 63.21,-13.83 113.64,-16.52 56.39,-3 75.6,3.7 120.37,11.1 76.06,12.58 15.35,-37.69 130.5,-52.92l167.48 -36.37c58.96,-8.65 68.28,21.57 104.75,-8.16 53.58,-43.69 29.45,-48.65 145.4,-123.33 218.57,-140.78 488.23,-52.17 564.81,-93.86 61.34,-33.4 94.07,-66.21 205.48,-53.29 55.15,6.41 56.34,25.41 90.19,48.07 64.57,-15.04 92.38,-51.07 162.64,-56.91z"/>
   <path class="fil1" d="M1260.53 2071.35c4.01,8.96 2.44,13.48 11.21,29.45 2.96,5.38 9.42,13.99 13.13,19.4 11.1,16.18 14.83,22.48 24.5,40.55 10.07,18.8 16.02,27.02 25.44,47.74 6.56,14.43 12.42,27.1 19.92,45.13 90.77,218.18 98,194.85 19.63,248.7 -26.36,18.12 -39.97,15.85 -48.77,48.8 -49.67,-4.13 -79.69,-77.2 -136.25,-140.23 -77.23,-86.05 -75.23,-133.45 -115.84,-160.65 4.63,55.68 74.07,142.19 104.41,180.21 23.8,29.83 46.72,42.39 69.75,76.63 27.39,40.74 26.69,45.63 69.8,68.44 24.21,-17.74 8.84,-13.37 31.26,-33.79 34.63,-31.55 64.26,-37.73 96.02,-74.75l10.96 -13.44c-8.63,-37.02 -28.4,-69.07 -43.08,-103.3 -31.47,-73.45 -84.93,-233.92 -152.09,-278.89z"/>
   <path class="fil1" d="M1171.09 1762.34c0,-61.96 178.9,-124.29 178.9,0 0,129.07 -178.9,113.25 -178.9,0zm81.32 105.71c151.55,0 125.83,-195.16 32.52,-195.16 -57.37,0 -117.82,30.49 -125.14,93.41 -5.82,50.03 38,101.75 92.62,101.75z"/>
   <path class="fil1" d="M1781.29 1511.25l-0.32 15.26c21.38,4.99 23.9,7.4 40.66,16.27 -4.32,-18.54 -6.3,-18.71 -8.14,-40.66l-32.2 9.13z"/>
   <path class="fil2" d="M1260.53 2071.35c67.16,44.97 120.62,205.44 152.09,278.89 14.68,34.23 34.45,66.28 43.08,103.3l-10.96 13.44c-31.76,37.02 -61.39,43.2 -96.02,74.75 -22.42,20.42 -7.05,16.05 -31.26,33.79 -43.11,-22.81 -42.41,-27.7 -69.8,-68.44 -23.03,-34.24 -45.95,-46.8 -69.75,-76.63 -30.34,-38.02 -99.78,-124.53 -104.41,-180.21 40.61,27.2 38.61,74.6 115.84,160.65 56.56,63.03 86.58,136.1 136.25,140.23 8.8,-32.95 22.41,-30.68 48.77,-48.8 78.37,-53.85 71.14,-30.52 -19.63,-248.7 -7.5,-18.03 -13.36,-30.7 -19.92,-45.13 -9.42,-20.72 -15.37,-28.94 -25.44,-47.74 -9.67,-18.07 -13.4,-24.37 -24.5,-40.55 -3.71,-5.41 -10.17,-14.02 -13.13,-19.4 -8.77,-15.97 -7.2,-20.49 -11.21,-29.45zm-8.12 -203.3c-54.62,0 -98.44,-51.72 -92.62,-101.75 7.32,-62.92 67.77,-93.41 125.14,-93.41 93.31,0 119.03,195.16 -32.52,195.16zm300.87 -121.98c55.91,0 68.52,-42.69 119.41,-13.69l14.46 9.93c0.71,-1.43 2.91,2.51 4.37,3.76 -40.74,0 -43.77,-11.99 -73.19,-0.63 -51.95,20.08 -71.07,32.09 -97.58,-7.49 23.08,5.37 13.9,8.12 32.53,8.12zm-178.9 -121.97c-86.64,0 -133.24,-154.5 40.66,-154.5 59.7,0 106.4,154.5 -40.66,154.5zm447.25 -81.32c-16.76,-8.87 -19.28,-11.28 -40.66,-16.27l0.32 -15.26 32.2 -9.13c1.84,21.95 3.82,22.12 8.14,40.66zm-300.88 -609.88c0,104.42 -9.51,209.68 40.66,284.61 -59.56,-4.96 -19.93,-24.4 -170.77,-24.4 -95.97,0 -164.7,42.2 -243.95,48.79l0 24.4c23.77,5.69 11.72,-1.05 24.4,16.26 -163.7,-13.62 -350.04,-25.67 -520.62,24.21 -30.16,8.83 -35.63,17.77 -64.88,24.58 14.11,60.58 94.1,130.11 162.64,130.11 152.7,0 216.69,-40.65 276.48,-40.65 -11.69,32.3 1.12,-1.72 -13.27,19.24 -13.17,19.22 -1.51,-6.7 -12.35,20.18 -29.09,72.1 -29.71,268.99 6.77,361.62 54.39,138.14 76.06,131.09 11.98,323.93 -21.03,63.25 -27.15,57.58 -56.46,163.12 -27.34,98.43 -75.79,208.79 -27.26,316.55 11.3,25.08 10.79,14.75 17.41,39.52 119.42,0 68.74,-57.39 422.85,-56.92 180.76,0.24 77.44,-13.37 190.17,-45.65 63.25,-18.11 142.13,-22.86 200.15,4.98 5.25,-62.98 28.52,-13.91 -24.36,-130.14 -48.37,-106.33 -48.82,-221.76 -48.82,-341.5 26.16,-6.98 30.17,-23.41 44.13,-45.32 14.49,-22.77 19.43,-32.77 31.81,-57.65 59.4,-119.41 127.35,-318.84 127.35,-458.12 0,-34.11 -81.07,-48.79 -89.44,-48.79 -19.56,0 -23.91,13.18 -40.67,24.39l32.53 219.56c0,75.87 -58.03,180.26 -113.84,195.17 9.26,-34.7 38.76,-45.88 57.66,-72.57 28.11,-39.7 7.39,-54.01 7.39,-106.34 0,-34.38 32.19,-42.89 30.71,-79.39 -0.55,-13.55 -17.94,-71.49 -22.57,-91.37 -1.11,1.73 -2.21,2.59 -2.48,5.65l-5.66 51.27c-66.42,-5.53 -52.1,-72.85 -40.65,-121.98 31.59,-6.69 9.04,-6.69 40.65,0 0,-58.54 -3.79,-89.95 -21.78,-132.72 -15.85,-37.65 -37.8,-74.96 -67.67,-94.97 7.75,-29.02 18.16,-27.46 23.4,-66.05 4.12,-30.27 7.44,-53.9 8.89,-80.55 2.03,-37.44 6.79,-54.86 8.21,-81.79 1.92,-36.38 -7.58,-45.17 -7.99,-88.73 -0.75,-78.81 -8.79,-87.09 -50.84,-128.06 -41.68,-40.62 -39.76,-62.02 -95.52,-91.52 -14.07,60.4 -24.39,110.86 -24.39,187.04z"/>
   <path class="fil2" d="M81.43 1843.66c12.02,22.73 13.53,29.22 30.03,51.28 93.19,124.66 135.53,234.93 254.58,314.65l56.56 -32.9c17.37,-9.89 36.39,-22.21 55.66,-33.77 86.05,-51.59 305.86,-183.87 375.68,-185.42 0,101.61 -81.32,175.43 -81.32,268.35 27.3,-6.36 48.26,-12.7 76.7,-20.88 28.36,-8.15 51.35,-17.58 77.81,-19.78 10.35,21.59 7.43,8.7 8.14,40.66 26.61,-17.83 11.3,-21.28 48.79,-24.4 2.38,-28.66 30.02,-116.07 40.65,-138.24 -26.3,6.13 -35.67,13.82 -65.05,16.26 1.69,-76.09 48.79,-126.06 48.79,-187.02 0,-33.27 -36.43,-123.51 -47,-213.87 -6.71,-57.29 22.61,-164.34 22.61,-233.38 -129.22,30.1 -244.1,71.45 -360.53,127.39 -117.6,56.5 -153.05,63.3 -273.99,132.59 -61.47,35.21 -144.83,55.92 -268.11,138.48z"/>
   <path class="fil2" d="M1171.09 1762.34c0,113.25 178.9,129.07 178.9,0 0,-124.29 -178.9,-61.96 -178.9,0z"/>
   <path class="fil2" d="M975.92 2055.08c93.03,-21.67 60.59,-86.14 56.93,-130.1 -38.58,28.26 -36.47,87.46 -56.93,130.1z"/>
   <path class="fil2" d="M3282.75 1990.27c-16.97,46.89 -173.39,101.23 -138.25,252.08l16.27 0c7.74,-33.23 16.97,-63.96 40.66,-81.31 0,149.36 -27.02,118.59 56.93,243.95 26.72,-7.14 11.68,-13.92 40.65,-24.4l62.35 84.03c19.46,22.81 1.66,12.48 27.1,21.68 14.97,-22.35 21.44,-29.46 24.39,-65.05 23.63,17.31 15.34,-1.13 16.27,40.66 116.58,-27.16 70.8,-61.89 138.24,-97.59 -5.57,23.94 -8.13,24.82 -8.13,56.93 32.27,-17.08 31.24,-23.46 56.92,-40.66 10.64,-45.67 24.4,-40 24.4,-105.71 37.79,27.69 37.52,99.98 89.44,113.84 -3.57,-43 -23.22,-45.13 -24.39,-97.58l16.27 0c4.92,59.15 20.39,75.4 54.68,107.95 15.83,15.03 27.66,23.03 44.98,36.34 20.25,15.55 26.28,24.1 54.84,26.48 0,-43.32 -9.03,-46.52 16.27,-65.05 6.67,28.67 8.12,26.72 8.12,65.05 39.81,-10.63 63.94,-47.12 65.06,-97.59 24.29,17.81 9.51,23.25 32.52,32.54 9.42,-40.4 40.05,-73.63 46.98,-107.58 13.13,-64.42 -10.82,-92.92 -14.45,-136.38 39.39,10.52 9.41,13.88 48.8,24.4 -49.49,-103.13 -50.64,-59.89 -81.33,-105.72 35.99,-0.8 57.46,-8.13 105.72,-8.13 -27.13,-23.57 -31.52,-10.65 -71.35,-50.62 -21.88,-21.97 -42.12,-45.63 -65.27,-64.86 -74.82,-62.12 -101.45,16.4 -150.14,56.41 -117.92,96.86 -323.11,50.93 -420.71,42.8 -18.69,35.34 -14.68,42.23 -48.79,65.07l32.53 -73.19c-31.69,-16.77 -59.29,-39.87 -97.58,-48.79z"/>
   <path class="fil2" d="M4274.83 1908.95c0,46.66 -14.95,113.95 -24.4,154.5 33.75,-16.19 49.8,-17.19 74.66,-47.32 19.81,-24.02 30.43,-49.77 55.46,-66.53 10.95,47.04 24.39,104.61 24.39,162.65 39.39,-26.39 30.28,-53.67 56.92,-73.19 22.3,16.33 19.42,24 32.53,48.79 16.76,-8.87 19.27,-11.29 40.65,-16.27 -10.47,-125.79 -81.31,-293.39 -81.31,-455.38 -25.39,5.92 -150.06,84.8 -232.28,117.39 -45.28,17.94 -77.98,30.86 -124.49,46.29 -58.12,19.29 -81.82,20.07 -123.01,55.88 63.64,-5.29 62.55,-33.89 138.25,-16.26 -29.97,44.74 -77.06,43.04 -89.46,89.45 28.82,-13.83 78.8,-24.36 113.85,-32.53 -10.96,47.04 -33.56,46.42 -56.92,81.32 158.64,-36.96 153.59,-90.28 211.42,-105.72l-16.26 56.93z"/>
   <path class="fil2" d="M3128.24 794.89l0 8.14c1.11,1.73 2.17,2.61 2.44,5.68 11.25,131.98 52.71,356.92 113.73,471.77 17.53,32.99 16.25,26.98 46.47,42.98l16.71 -32.29c-15.52,-22.75 -29.11,-32.2 -46,-60.4 -52.57,-87.77 -54.62,-147.33 -70.84,-254.43 -21.22,-140.14 18.81,-255.83 18.81,-401.01 25.41,6.78 11.6,-1.01 28.38,20.42l52.85 101.65c21.79,48.6 40.16,99.68 58.05,153.37 92.02,276.13 0.05,310.05 104.68,310.05 -2.33,-104.78 -47.99,-292.98 -73.11,-390.4 -22.29,-86.42 -102.07,-260.19 -162.72,-300.8 -7.8,29.23 -36.73,61.56 -52.4,150.88 -5.84,33.24 -8.92,61.23 -13.05,92.67 -11.24,85.21 -0.61,64.59 -24,81.72z"/>
   <path class="fil2" d="M3038.8 1559.28c-1.15,-1.64 -2.39,-6.51 -2.88,-5.25 -3.89,10 -4.99,-8.45 -6.19,-10.07 -8.51,-11.58 6.92,-0.9 -15.33,-17.21 -50.02,94.53 -40.79,119.83 -24.9,236.33 6.46,47.44 14.55,80.02 24.88,121.49 8.93,35.88 29.85,89.62 32.54,121.96 42.76,-11.42 11.78,-38.79 138.25,-105.72 -11.17,-41.83 -36.44,-39.51 -40.96,-89.52 -4.67,-51.58 11.16,-70.6 8.86,-121.78 -3.06,-68.33 -39.54,-158.88 -81.75,-187.15 -23.3,15.61 -29.51,20.64 -32.52,56.92z"/>
   <path class="fil2" d="M3152.64 2543.23l0 8.13c17.5,12.16 10.71,1.19 16.26,24.4 77.98,-6.49 64.66,-56.3 232.78,3.47 54.62,19.41 123.04,-1.99 123.96,-68.73 0.38,-28.12 -7.07,-26.87 -7.07,-64.85 -23.53,6.28 -34.7,17.81 -68.2,29.38 -43.8,15.12 -40.01,27.66 -70.04,35.67 -20.58,-13.78 -49.73,-54.38 -56.92,-81.31 -80.03,18.64 -30.21,-8.71 -97.58,-24.4 -66.15,48.46 -63.52,96.72 -73.19,138.24z"/>
   <path class="fil2" d="M3754.39 2535.09c0,0.68 125.7,113.85 187.04,113.85 31.39,0 64.23,-57.7 62.56,-88.42 -1.02,-18.8 -30.58,-82.3 -38.17,-114.87 -17.29,4.62 -9.35,1.41 -21.5,11.02 -24.46,19.36 -12.21,31.02 -76.08,45.9 -24.04,-17.61 -5.75,-3.19 -19.49,-21.18l-21.68 -27.09c-14.29,-13.24 -35.41,-27.44 -56.41,-33.05 0,96.55 -16.27,74.44 -16.27,113.84z"/>
   <path class="fil2" d="M3616.15 2380.59c-17.52,65.6 -70.44,40.04 -81.32,170.77 52.16,0 67.66,-8.61 122.14,-7.98 119.62,1.4 106.39,-77.73 65.26,-130.61 -18.95,-24.37 -39.87,-47.6 -65.42,-64.71l-40.66 32.53z"/>
   <path class="fil2" d="M3282.75 1990.27c-6.73,-18.61 -1.67,-6.38 -13.39,-19.14l-51.67 -54.05c-66.7,1.49 -110.94,48.7 -138.24,89.45l64.82 -9.52c-42.37,65.01 -76.76,104.38 -32.29,188.42 27.21,-19.94 64.48,-170.4 170.77,-195.16z"/>
   <path class="fil2" d="M3559.23 1640.6l0 24.39c27.62,-2.29 29.77,-6.19 48.79,-16.26l0 -16.26 0 -48.79c-34.58,2.87 -48.79,20.36 -48.79,56.92z"/>
   <path class="fil2" d="M3258.36 1591.81l16.26 0 0 -48.8c-23.52,17.24 -16.26,6.63 -16.26,48.8z"/>
   <path class="fil2" d="M3071.32 2063.45l16.27 0 9.12 -32.21c-26.27,6.44 -25.39,0.87 -25.39,32.21z"/>
   <path class="fil1" d="M3868.24 2502.57c63.87,-14.88 51.62,-26.54 76.08,-45.9 12.15,-9.61 4.21,-6.4 21.5,-11.02 7.59,32.57 37.15,96.07 38.17,114.87 1.67,30.72 -31.17,88.42 -62.56,88.42 -61.34,0 -187.04,-113.17 -187.04,-113.85 0,-39.4 16.27,-17.29 16.27,-113.84 21,5.61 42.12,19.81 56.41,33.05l21.68 27.09c13.74,17.99 -4.55,3.57 19.49,21.18zm-252.09 -121.98l40.66 -32.53c25.55,17.11 46.47,40.34 65.42,64.71 41.13,52.88 54.36,132.01 -65.26,130.61 -54.48,-0.63 -69.98,7.98 -122.14,7.98 10.88,-130.73 63.8,-105.17 81.32,-170.77zm0 0c-25.68,17.2 -24.65,23.58 -56.92,40.66 0,-32.11 2.56,-32.99 8.13,-56.93 -67.44,35.7 -21.66,70.43 -138.24,97.59 -0.93,-41.79 7.36,-23.35 -16.27,-40.66 -2.95,35.59 -9.42,42.7 -24.39,65.05 -25.44,-9.2 -7.64,1.13 -27.1,-21.68l-62.35 -84.03c-28.97,10.48 -13.93,17.26 -40.65,24.4 -83.95,-125.36 -56.93,-94.59 -56.93,-243.95 -23.69,17.35 -32.92,48.08 -40.66,81.31l-16.27 0c-35.14,-150.85 121.28,-205.19 138.25,-252.08 38.29,8.92 65.89,32.02 97.58,48.79l-32.53 73.19c34.11,-22.84 30.1,-29.73 48.79,-65.07 97.6,8.13 302.79,54.06 420.71,-42.8 48.69,-40.01 75.32,-118.53 150.14,-56.41 23.15,19.23 43.39,42.89 65.27,64.86 39.83,39.97 44.22,27.05 71.35,50.62 -48.26,0 -69.73,7.33 -105.72,8.13 30.69,45.83 31.84,2.59 81.33,105.72 -39.39,-10.52 -9.41,-13.88 -48.8,-24.4 3.63,43.46 27.58,71.96 14.45,136.38 -6.93,33.95 -37.56,67.18 -46.98,107.58 -23.01,-9.29 -8.23,-14.73 -32.52,-32.54 -1.12,50.47 -25.25,86.96 -65.06,97.59 0,-38.33 -1.45,-36.38 -8.12,-65.05 -25.3,18.53 -16.27,21.73 -16.27,65.05 -28.56,-2.38 -34.59,-10.93 -54.84,-26.48 -17.32,-13.31 -29.15,-21.31 -44.98,-36.34 -34.29,-32.55 -49.76,-48.8 -54.68,-107.95l-16.27 0c1.17,52.45 20.82,54.58 24.39,97.58 -51.92,-13.86 -51.65,-86.15 -89.44,-113.84 0,65.71 -13.76,60.04 -24.4,105.71zm-544.83 -317.14c0,-31.34 -0.88,-25.77 25.39,-32.21l-9.12 32.21 -16.27 0zm211.43 -73.18c-106.29,24.76 -143.56,175.22 -170.77,195.16 -44.47,-84.04 -10.08,-123.41 32.29,-188.42l-64.82 9.52c27.3,-40.75 71.54,-87.96 138.24,-89.45l51.67 54.05c11.72,12.76 6.66,0.53 13.39,19.14zm992.08 -81.32l16.26 -56.93c-57.83,15.44 -52.78,68.76 -211.42,105.72 23.36,-34.9 45.96,-34.28 56.92,-81.32 -35.05,8.17 -85.03,18.7 -113.85,32.53 12.4,-46.41 59.49,-44.71 89.46,-89.45 -75.7,-17.63 -74.61,10.97 -138.25,16.26 41.19,-35.81 64.89,-36.59 123.01,-55.88 46.51,-15.43 79.21,-28.35 124.49,-46.29 82.22,-32.59 206.89,-111.47 232.28,-117.39 0,161.99 70.84,329.59 81.31,455.38 -21.38,4.98 -23.89,7.4 -40.65,16.27 -13.11,-24.79 -10.23,-32.46 -32.53,-48.79 -26.64,19.52 -17.53,46.8 -56.92,73.19 0,-58.04 -13.44,-115.61 -24.39,-162.65 -25.03,16.76 -35.65,42.51 -55.46,66.53 -24.86,30.13 -40.91,31.13 -74.66,47.32 9.45,-40.55 24.4,-107.84 24.4,-154.5zm-292.75 -113.85l0 0zm-943.28 -235.82c3.01,-36.28 9.22,-41.31 32.52,-56.92 42.21,28.27 78.69,118.82 81.75,187.15 2.3,51.18 -13.53,70.2 -8.86,121.78 4.52,50.01 29.79,47.69 40.96,89.52 -126.47,66.93 -95.49,94.3 -138.25,105.72 -2.69,-32.34 -23.61,-86.08 -32.54,-121.96 -10.33,-41.47 -18.42,-74.05 -24.88,-121.49 -15.89,-116.5 -25.12,-141.8 24.9,-236.33 22.25,16.31 6.82,5.63 15.33,17.21 1.2,1.62 2.3,20.07 6.19,10.07 0.49,-1.26 1.73,3.61 2.88,5.25zm154.49 73.19c0,-83.25 16.99,-148.64 46.03,-206.07 10.86,-21.51 29.82,-65.54 42.04,-79.93 12.39,-14.6 56.72,-46.09 74.58,-55.53 -0.56,-24.78 -3.67,-29.65 -8.14,-48.8 43.2,0 49.23,5.46 81.32,8.13 -11.26,-48.35 -27.18,-49.03 -48.79,-81.31 52.42,12.21 73.06,32.52 138.24,32.52l0 -65.05c41.14,27.54 62.9,54.03 97.58,56.92 2.63,-31.6 7.34,-21.18 8.14,-56.92l87.69 83.1 10.88 -33.99c24.98,6.61 16.31,7.62 30.76,24.85 25.45,30.35 68.4,78.5 106.49,88.67 -8.87,16.76 -11.29,19.28 -16.26,40.67 42.03,-9.8 66.48,-32.25 101.01,-53.5 36.75,-22.62 66.79,-39.7 101.81,-60.82 165.6,-99.87 324.04,-115.58 533.78,-85.6 68.09,9.73 237.43,25.04 279.87,45.41 -10.73,40.15 -20.1,22.67 -83.69,70.8 -486.31,368.06 -660.04,224.24 -859.6,270.73l65.05 16.26c0,128.78 -4.74,249.16 -84.51,354.61 -61.82,81.75 -158.38,148.34 -297.35,149.9 -194.87,2.17 -258.12,-35.48 -388.9,-156.6 -16.91,-15.67 -38.49,-42.12 -46.13,-68.09 -10.57,-35.93 20.96,-179.09 28.1,-190.36zm-65.05 -837.58c23.39,-17.13 12.76,3.49 24,-81.72 4.13,-31.44 7.21,-59.43 13.05,-92.67 15.67,-89.32 44.6,-121.65 52.4,-150.88 60.65,40.61 140.43,214.38 162.72,300.8 25.12,97.42 70.78,285.62 73.11,390.4 -104.63,0 -12.66,-33.92 -104.68,-310.05 -17.89,-53.69 -36.26,-104.77 -58.05,-153.37l-52.85 -101.65c-16.78,-21.43 -2.97,-13.64 -28.38,-20.42 0,145.18 -40.03,260.87 -18.81,401.01 16.22,107.1 18.27,166.66 70.84,254.43 16.89,28.2 30.48,37.65 46,60.4l-16.71 32.29c-30.22,-16 -28.94,-9.99 -46.47,-42.98 -61.02,-114.85 -102.48,-339.79 -113.73,-471.77 -0.27,-3.07 -1.33,-3.95 -2.44,-5.68 -29.29,125.75 47.04,379.63 100.38,477 10.68,19.51 17.84,24.53 23.51,42.51 9.78,31 -17.56,48.38 -34.78,81.89 -21.05,40.96 -47.09,158.7 -48.45,219.91 -53.25,-61.27 -34.43,-136.09 -105.84,-139.02 -129.7,-5.31 -105.1,215.31 -88.37,308.83 15.85,88.64 82.51,305.41 121.12,391.19l56.83 113.93c23.58,-9.51 3.48,0.45 24.39,-32.53 1.29,57.63 28.08,68.42 32.53,121.98 -2.17,8.39 -127.6,105.39 -56.92,154.51 9.67,-41.52 7.04,-89.78 73.19,-138.24 67.37,15.69 17.55,43.04 97.58,24.4 7.19,26.93 36.34,67.53 56.92,81.31 30.03,-8.01 26.24,-20.55 70.04,-35.67 33.5,-11.57 44.67,-23.1 68.2,-29.38 0,37.98 7.45,36.73 7.07,64.85 -0.92,66.74 -69.34,88.14 -123.96,68.73 -168.12,-59.77 -154.8,-9.96 -232.78,-3.47 -5.55,-23.21 1.24,-12.24 -16.26,-24.4 -9.71,21.01 -5.77,15.86 0,40.66 -44.99,-21.59 -97.78,-22.69 -142.38,-44.65 -58.58,-28.86 -62.46,-44.8 -150.37,-44.8l0 24.4c72.64,0 260.67,85.41 285.91,86.98 22.61,1.4 98.92,-71.74 224.01,-27.66 42.56,14.99 29.13,18.04 59.31,38.26 101.24,-53.57 297.46,-126.12 407.54,-0.95 16.39,18.63 -1.79,7.03 21.35,19.3 16.17,8.58 18.5,4.91 37.7,11.1 37.03,11.92 26.41,17.23 53.84,35.6 118.05,-27.5 143.99,-40.47 223.21,12.62 31,20.77 29.02,21.96 45.14,52.43 46.09,-1.02 98.68,-20.58 147,-0.61 41.71,17.23 52.92,62.04 96.96,73.8 13.75,-51.5 77.44,-59.47 129.1,-74.3 28.58,-8.19 51.87,-14.4 76.34,-9.35 36.01,7.45 45.8,23.98 74.61,31.3 42.18,10.72 51.14,-9.5 80.33,17.24 17.15,15.72 23.16,37.65 48.07,57.65 30.28,24.31 44.38,12.62 75.41,30.3 44.35,25.26 2.41,28.48 77.23,28.48 -17.34,-25.9 -27.93,-27 -56.69,-40.88 -20.02,-9.65 -58.47,-20.81 -74.66,-31.06 -25.88,-16.39 -31.65,-36.88 -49.45,-56.26 -22.51,-24.51 -40.52,-21.1 -79.25,-26.47 -89.6,-12.43 -98.5,-83.08 -317.3,32.69 -31.22,-20.9 -49.09,-48.47 -94.04,-60.47 -48.85,-13.03 -100.11,7.72 -138.79,-15.71 -10.9,-6.6 -28.23,-21.94 -41.92,-31.26 -106.06,-72.28 -83.84,-22.67 -188.77,-22.67 15.6,-29.47 45.79,-59.67 40.44,-104.52 -5.35,-44.86 -45.7,-59.33 -29.32,-119.51 7.45,-27.39 40.35,-66.07 54.4,-92.65 23.28,-44.07 15.81,-74.13 15.81,-138.7 18.53,4.32 18.7,6.31 40.65,8.14 0,-70.74 -30,-73.65 -56.92,-113.85 18.72,-4.37 43.99,-9.66 59.27,-13.91 31.65,-8.82 30.35,-5.06 38.31,-34.89 -112.31,-26.16 -90.66,-54.69 -197.09,-136.3 -23.99,-18.4 -13.13,-0.51 -22.47,-26.33 21.12,-22.26 18.78,-16.44 54.9,-26.42 21.05,-5.83 36.64,-13.56 67.08,-14.23l-17.85 14.67c-25.45,21.69 -36.09,30.85 -39.07,66.64 35.38,-0.79 44.35,-8.13 89.45,-8.13 -10.95,40.99 -21.59,15.93 -32.53,56.92 76.42,0 126.73,-21.01 186.93,-57.77 9.92,-6.06 16.81,-13.17 24.9,-15.41 20.02,-5.53 7.44,-17.28 15.86,8.13 -1.09,1.72 -2.26,2.58 -2.61,5.51 -0.49,3.89 -4.14,9.27 -4.92,11.35 -17.65,47.4 -41.26,121.57 -41.26,170.17 39.1,-3.25 57.31,-19.95 79.45,-42.53 27.96,-28.52 34.6,-33.41 66.92,-55.06 0,52.3 15.21,99.29 16.26,146.38 50.66,-4.21 45.01,-40.74 81.32,-65.06 13.97,59.94 25.34,27.62 56.93,40.66 20.99,90.13 -59.48,275.33 -101.17,337.96 -60.08,90.28 -154.29,162.98 -272.9,190.61 16.98,23.18 -0.91,13.06 27.88,12.33 0.07,0 38.7,-7.08 41.38,-7.84 25.4,-7.16 46.37,-19.05 66.66,-31.2 222.49,-133.22 305.39,-443 241.45,-692.2 -14.83,-57.81 -24.77,-101.91 -34.71,-160.44l-25.52 -177.78c-56.01,1.24 -168.04,98.53 -352.72,159.58 -33.39,11.04 -108.16,41.47 -135.19,43.71 0,-42.14 11.64,-79.52 16.29,-121.95 5.15,-46.97 8.11,-73.74 8.11,-130.14 176.28,0 365.78,-7.52 520.11,-97.9 176.26,-103.23 136.58,-82.74 278.96,-184.54 35.28,-25.24 74.65,-29.2 79.17,-83.49 -51.82,-34.7 -192.3,-53.5 -252.32,-56.69 -296.42,-15.72 -402.09,-46.14 -642.17,113.63 -92.78,61.76 -114.74,82.54 -201.66,-9.79 -43.13,-45.81 -33.78,-84.97 -74.84,-95.94 -10.84,22.61 -8.13,15.75 -8.13,48.79 -45.87,-30.71 -33.98,-60.26 -89.45,-73.18 -4.51,19.38 -8.57,40.89 -16.26,56.92 -35.81,-18.95 -50.96,-44.91 -97.58,-48.79 -19.19,39.99 8.33,41.08 -24.4,65.05 -5.83,-12.13 -27.69,-182.32 -32.53,-211.42 -12.01,-72.45 -24.51,-131.24 -43.99,-199.96 -28.1,-99.05 -105.82,-273.77 -175.56,-320.48 -70.54,47.23 -97.59,226.51 -97.59,349.67z"/>
   <path class="fil1" d="M3868.24 1412.91c19.11,9.17 29.67,7.09 48.79,16.26 -3.46,41.6 -6.17,11.01 -16.27,48.79 54.4,0 88.44,1.98 131.41,7.05 92.28,10.89 262.01,-26.12 351.83,-60.51 77.61,-29.7 224.65,-84.28 285.94,-128.79 31.92,-23.19 58.55,-35.65 68.4,-77.96 -85.62,-41.09 -396.02,-47.47 -508.92,-21.02 -63.28,14.82 -219.43,106.83 -284.64,146.35 -23.63,14.32 -69.72,44.27 -76.54,69.83z"/>
   <path class="fil1" d="M3559.23 1640.6c0,-36.56 14.21,-54.05 48.79,-56.92l0 48.79 0 16.26c-19.02,10.07 -21.17,13.97 -48.79,16.26l0 -24.39zm-32.52 8.13c0,83.38 -10.96,187.03 89.44,187.03 107,0 123.98,-329.21 -17.57,-286.73 -44.65,13.4 -71.87,44.18 -71.87,99.7z"/>
   <path class="fil1" d="M3258.36 1591.81c0,-42.17 -7.26,-31.56 16.26,-48.8l0 48.8 -16.26 0zm-65.07 40.66c0,100.24 3.63,51.4 16.27,105.71 67.85,-1.51 68.15,-35.24 81.38,-89.38 17.38,-71.05 31.69,-78.76 -8.19,-138.31 -31.42,15.07 -41.91,8.45 -59.65,46.06 -5.58,11.83 -9.27,26.91 -12.4,36.4l-17.41 39.52z"/>
   <path class="fil1" d="M3461.64 1859.44c-0.32,-0.08 -187.26,-29.24 -195.16,-22.37 61.66,82.91 105.84,38.64 195.16,38.64l0 -16.27z"/>
   <path class="fil1" d="M3339.67 1494.22c-16.71,-34.83 5.36,-30.54 -32.52,-40.65 3.15,37.83 1.88,37.3 32.52,40.65z"/>
   <path class="fil1" d="M3323.41 1795.1c15.43,-33.37 14.27,-16.36 -16.26,-32.53 3.02,36.34 -8.9,15.04 16.26,32.53z"/>
   <g>
    <g>
     <g>
      <path class="fil0 str0" d="M2925.08 1008.16c9.27,-33.56 50.5,-76.21 72.79,-59.84 -71.09,29.54 -48.62,45.1 -72.79,59.84z"/>
      <path id="1" class="fil3" d="M2925.08 1008.16c9.27,-33.56 50.5,-76.21 72.79,-59.84 -71.09,29.54 -48.62,45.1 -72.79,59.84z"/>
     </g>
     <g>
      <path class="fil0 str1" d="M2581.49 854.98c3.73,-18.72 20.96,-44.06 35.67,-59.09l13.9 -15.38c0.81,-0.51 0.67,-1.21 0.94,-1.84 -23.9,-18.45 -77.41,-25.46 -118.02,-5.63 -39.53,19.31 -62.68,59.02 -68.28,88.05 16.2,6.59 30.52,-0.22 40.93,11.05 -16.56,4.21 -90.14,-16.4 -132.59,47.93 -29.45,44.64 -25.06,76.3 7.11,135.36 27.7,-6.9 39.13,-13.01 67.67,-12.77 52.28,0.44 31.45,20.65 54.85,4.49 -14.63,-29.82 -6.47,-59.39 20.52,-73.01 34.11,-17.2 55.8,-0.85 77.33,7.44 -24.37,-76.22 -6.62,-90.93 -6.46,-116.32 -68.03,12.37 -83.29,41.85 -90.81,92.99 -8.11,-27.96 3.76,-56.05 17.54,-72.6 31.61,-37.98 64.7,-28.75 79.7,-30.67zm326.69 628.27c-31.51,7.57 -42.23,19.47 -79.05,19.99 -48.51,0.68 -90.74,-19.56 -112.58,-64.08 -17.21,-35.09 -15.03,-39.35 -42.72,-60.45 -13.25,-7.35 -32.72,-13.78 -54.51,-7.28 -52.08,15.54 -13.88,62.39 -45.99,91.74 -7.42,6.78 -17.67,12.1 -28.67,13.61 -9.24,1.27 -20.67,-0.53 -27.84,-6.19 5.84,-9.55 14.66,-14.39 11.28,-28.22 -7.68,-31.38 -52.45,-26.24 -67.03,-72.67 6.48,3.64 1.55,-0.52 6.49,7.2 13.3,20.76 18.63,27.78 42.45,38.69 43.38,19.87 26.72,40.31 22.95,57.74 67.81,-6.26 46.34,-49.58 52.62,-79.63 8.29,-39.65 64.44,-40.13 92.13,-26.21 61.76,31.05 34.01,130.46 162.86,124.32 118.06,-5.64 164.13,-156.72 77.7,-191.24 -26.02,-10.4 -23.5,4.59 -50.49,16 -38.37,16.21 -84.88,9.15 -102.71,-13.48 17.85,1.5 33.42,10.22 55.03,10.61 41.13,0.73 86.25,-31.21 98.32,-68.62 7.34,-22.75 1.76,-40.58 6.15,-59.7 13.04,51.85 -7.31,75.88 -17.92,102.15 -0.23,0.59 -0.56,1.66 -0.75,2.15 -0.19,0.5 -0.51,1.46 -0.73,2.2 57.62,1.04 55.24,51.05 67.01,70.79 17.52,29.38 109.88,38.81 164.01,-21.67 25.47,-28.47 45.55,-79 29.48,-128.14 -13.47,-41.15 -46.84,-71.36 -86.48,-78.77 -12.23,-2.29 -10,2.16 -16.08,-6.62 6.5,-9.23 18.16,-14.64 25.26,-24.91 49.52,-71.67 -44.03,-190.06 -115.09,-186.56 1.07,15.34 -3.62,38.41 8.35,48.31 52.53,43.44 64.01,111.7 22.29,142.16l6.68 -15.35c21.18,-41.87 9.29,-82.49 -26.12,-113.83 -33.83,-29.93 -76.68,-37.77 -134.14,-17.44 6.65,-8.01 20.45,-12.46 30.61,-15.1 10.82,-2.82 20.35,-3.77 31.77,-3.43 27.8,0.8 36.4,9.17 54.28,11.9 9.99,-216.98 -275.88,-280.96 -364.67,-114.6 -48.96,91.72 7.19,142.3 7.56,175.05 -15.19,8.51 -25.51,-14.94 -37.38,-22.73 -28.15,-18.44 -70.71,-16.57 -83,18.06 -9.51,26.8 8,29.29 14.04,48.98 -14.73,3.89 -2.13,-2.34 -15.26,0.78 -10.43,2.49 -4.07,2.69 -14.11,7.98 -19.77,-14.79 -30.43,-18.43 -60.05,-15.46 -72.2,7.25 -131.4,65.69 -135.25,135.5 -6.1,110.34 98.02,173.72 185.83,145.52 -16.4,-23.22 -41.81,8.11 -89.11,-14.05 -25.17,-11.79 -54.07,-33.39 -66.68,-70.85 24.48,23.37 52.99,88.8 133.98,64.09 -17.2,-31.02 -33.43,-54.3 -30.24,-90.12 10.53,16.96 9.17,44.03 31.76,73.14 31.1,40.09 74.53,56.93 123.9,43.93 34.92,-9.18 46.67,-23.52 62.34,-44.68 0.35,23.26 -27.19,45.3 -55.59,55.11 -28.83,9.95 -58.44,6.77 -79.23,-1.96 -27.59,-11.58 -36.24,6.61 -81.49,4.71 -87.72,-3.7 -151.56,-79.68 -145.99,-165.2 5.52,-84.82 58.45,-101.72 79.96,-125.63 -32.26,-47.67 -35.8,-77.41 -20.4,-122.44 12.9,-37.7 48.74,-62.21 101.75,-75.09 12.89,-31 12.8,-69.96 77.33,-100.4 34.89,-16.45 71.81,-15.27 106.17,-5.07l24.52 13.35c0.52,0.34 1.45,0.93 1.88,1.22 0.43,0.28 1.25,0.84 1.9,1.22 121.4,-77.92 257.41,-34.77 312.41,76.54 11.02,22.29 12.09,40.34 19.95,59.55 111.09,16.01 163.05,118.65 132.54,188.14 -6.86,15.64 -13.46,17.78 -20.23,29.81 35.68,17.97 63.6,31.92 82.95,73.01 36.49,77.45 -7.89,164.1 -85.88,191.84 -21.05,7.49 -41.63,9.17 -61.14,6.59 -24.57,-3.25 -30.29,-11.04 -49.64,-17.63 -12.18,23.57 -1.92,43.12 -37.89,79.18 -8.27,8.28 -21.12,14.43 -26.36,22.64z"/>
      <path id="1" class="fil3" d="M2581.49 854.98c3.73,-18.72 20.96,-44.06 35.67,-59.09l13.9 -15.38c0.81,-0.51 0.67,-1.21 0.94,-1.84 -23.9,-18.45 -77.41,-25.46 -118.02,-5.63 -39.53,19.31 -62.68,59.02 -68.28,88.05 16.2,6.59 30.52,-0.22 40.93,11.05 -16.56,4.21 -90.14,-16.4 -132.59,47.93 -29.45,44.64 -25.06,76.3 7.11,135.36 27.7,-6.9 39.13,-13.01 67.67,-12.77 52.28,0.44 31.45,20.65 54.85,4.49 -14.63,-29.82 -6.47,-59.39 20.52,-73.01 34.11,-17.2 55.8,-0.85 77.33,7.44 -24.37,-76.22 -6.62,-90.93 -6.46,-116.32 -68.03,12.37 -83.29,41.85 -90.81,92.99 -8.11,-27.96 3.76,-56.05 17.54,-72.6 31.61,-37.98 64.7,-28.75 79.7,-30.67zm326.69 628.27c-31.51,7.57 -42.23,19.47 -79.05,19.99 -48.51,0.68 -90.74,-19.56 -112.58,-64.08 -17.21,-35.09 -15.03,-39.35 -42.72,-60.45 -13.25,-7.35 -32.72,-13.78 -54.51,-7.28 -52.08,15.54 -13.88,62.39 -45.99,91.74 -7.42,6.78 -17.67,12.1 -28.67,13.61 -9.24,1.27 -20.67,-0.53 -27.84,-6.19 5.84,-9.55 14.66,-14.39 11.28,-28.22 -7.68,-31.38 -52.45,-26.24 -67.03,-72.67 6.48,3.64 1.55,-0.52 6.49,7.2 13.3,20.76 18.63,27.78 42.45,38.69 43.38,19.87 26.72,40.31 22.95,57.74 67.81,-6.26 46.34,-49.58 52.62,-79.63 8.29,-39.65 64.44,-40.13 92.13,-26.21 61.76,31.05 34.01,130.46 162.86,124.32 118.06,-5.64 164.13,-156.72 77.7,-191.24 -26.02,-10.4 -23.5,4.59 -50.49,16 -38.37,16.21 -84.88,9.15 -102.71,-13.48 17.85,1.5 33.42,10.22 55.03,10.61 41.13,0.73 86.25,-31.21 98.32,-68.62 7.34,-22.75 1.76,-40.58 6.15,-59.7 13.04,51.85 -7.31,75.88 -17.92,102.15 -0.23,0.59 -0.56,1.66 -0.75,2.15 -0.19,0.5 -0.51,1.46 -0.73,2.2 57.62,1.04 55.24,51.05 67.01,70.79 17.52,29.38 109.88,38.81 164.01,-21.67 25.47,-28.47 45.55,-79 29.48,-128.14 -13.47,-41.15 -46.84,-71.36 -86.48,-78.77 -12.23,-2.29 -10,2.16 -16.08,-6.62 6.5,-9.23 18.16,-14.64 25.26,-24.91 49.52,-71.67 -44.03,-190.06 -115.09,-186.56 1.07,15.34 -3.62,38.41 8.35,48.31 52.53,43.44 64.01,111.7 22.29,142.16l6.68 -15.35c21.18,-41.87 9.29,-82.49 -26.12,-113.83 -33.83,-29.93 -76.68,-37.77 -134.14,-17.44 6.65,-8.01 20.45,-12.46 30.61,-15.1 10.82,-2.82 20.35,-3.77 31.77,-3.43 27.8,0.8 36.4,9.17 54.28,11.9 9.99,-216.98 -275.88,-280.96 -364.67,-114.6 -48.96,91.72 7.19,142.3 7.56,175.05 -15.19,8.51 -25.51,-14.94 -37.38,-22.73 -28.15,-18.44 -70.71,-16.57 -83,18.06 -9.51,26.8 8,29.29 14.04,48.98 -14.73,3.89 -2.13,-2.34 -15.26,0.78 -10.43,2.49 -4.07,2.69 -14.11,7.98 -19.77,-14.79 -30.43,-18.43 -60.05,-15.46 -72.2,7.25 -131.4,65.69 -135.25,135.5 -6.1,110.34 98.02,173.72 185.83,145.52 -16.4,-23.22 -41.81,8.11 -89.11,-14.05 -25.17,-11.79 -54.07,-33.39 -66.68,-70.85 24.48,23.37 52.99,88.8 133.98,64.09 -17.2,-31.02 -33.43,-54.3 -30.24,-90.12 10.53,16.96 9.17,44.03 31.76,73.14 31.1,40.09 74.53,56.93 123.9,43.93 34.92,-9.18 46.67,-23.52 62.34,-44.68 0.35,23.26 -27.19,45.3 -55.59,55.11 -28.83,9.95 -58.44,6.77 -79.23,-1.96 -27.59,-11.58 -36.24,6.61 -81.49,4.71 -87.72,-3.7 -151.56,-79.68 -145.99,-165.2 5.52,-84.82 58.45,-101.72 79.96,-125.63 -32.26,-47.67 -35.8,-77.41 -20.4,-122.44 12.9,-37.7 48.74,-62.21 101.75,-75.09 12.89,-31 12.8,-69.96 77.33,-100.4 34.89,-16.45 71.81,-15.27 106.17,-5.07l24.52 13.35c0.52,0.34 1.45,0.93 1.88,1.22 0.43,0.28 1.25,0.84 1.9,1.22 121.4,-77.92 257.41,-34.77 312.41,76.54 11.02,22.29 12.09,40.34 19.95,59.55 111.09,16.01 163.05,118.65 132.54,188.14 -6.86,15.64 -13.46,17.78 -20.23,29.81 35.68,17.97 63.6,31.92 82.95,73.01 36.49,77.45 -7.89,164.1 -85.88,191.84 -21.05,7.49 -41.63,9.17 -61.14,6.59 -24.57,-3.25 -30.29,-11.04 -49.64,-17.63 -12.18,23.57 -1.92,43.12 -37.89,79.18 -8.27,8.28 -21.12,14.43 -26.36,22.64z"/>
     </g>
     <g>
      <path class="fil0 str2" d="M2542.57 1459.96c-49.17,-33.17 38.67,26.08 0,0z"/>
      <path id="1" class="fil3" d="M2542.57 1459.96c-49.17,-33.17 38.67,26.08 0,0z"/>
     </g>
    </g>
    <g>
     <path class="fil0 str3" d="M2506.99 811.05c0.13,2.24 1.16,5.15 1.44,7.62 3.71,-0.1 5.68,-0.83 8.59,-2.07l-10.03 -5.55z"/>
     <path id="1" class="fil3" d="M2506.99 811.05c0.13,2.24 1.16,5.15 1.44,7.62 3.71,-0.1 5.68,-0.83 8.59,-2.07l-10.03 -5.55z"/>
    </g>
   </g>
   <g>
    <g>
     <path class="fil0 str4" d="M2012.61 1521.76l10.42 -2.92c-16.98,4.41 -20.48,-4.34 -34.65,1.51 -2.18,-6.48 -0.74,-5.96 -4.47,-0.23 -6.51,-4.8 1.01,-5.95 -9.07,-0.75 -7.92,-5.31 1.56,-3.46 -6.49,0.14l-8.28 -4.05c-5.81,-2.21 -1.4,-0.18 -8.29,-2.59l85.82 -9.59c6.94,-0.24 10.03,-0.09 17.79,-0.29 14.67,-0.38 24.87,-2.55 35.12,-0.11 -19.22,31.91 -41.26,22.11 -77.9,18.88zm51 11.6c-1.04,0.04 -3.67,0.42 -4.33,0.36 -7.57,-0.78 -1.39,1.06 -8.98,-1.9 14.84,-3.45 16.38,-3.06 13.31,1.54zm-118.8 -15.45c1.1,-3.78 1.73,-3.31 2.12,-7.99 0.81,-9.84 0.9,-2.57 -0.75,-8.76l-7.58 20.97 1.67 -11.01c0.14,-0.63 0.44,-1.51 0.58,-2.14 0.14,-0.62 0.42,-1.5 0.54,-2.13l1.83 -22.02c6.04,3.6 5.88,5.28 6.81,14.16l-0.68 11.24c-0.2,0.59 -0.6,1.47 -0.84,2.03 -0.52,1.18 -2.92,4.62 -3.7,5.65zm-11.95 8.78l-6.34 -10.01 0.18 -8.79 4.32 11.18 4.15 -15.1c0.11,0.71 -0.17,1.26 0.25,2.15 0.42,0.86 0.17,1.71 0.15,2.12l-2.71 18.45zm-6.85 -17.58l-1.21 3.61 1.21 -3.61zm39.16 13.77l-8.53 -0.26c0.75,-0.37 1.45,-1.72 2.29,-1.02 0.76,0.64 1.8,-0.47 2.21,-0.39l4.03 1.67zm15.48 0.51l-8.63 -0.54c8.84,-3.89 2.87,-3.19 8.63,0.54zm26.15 -2.01l-14.55 0.92 14.55 -0.92zm21.54 11.01l-17.74 -1.85c-0.57,-0.03 -1.69,0 -2.53,-0.09 9.75,-0.96 12.39,-3.5 20.27,1.94zm15.57 0.47c-7.89,2.21 -3.65,1.74 -9.24,-1.29l7.35 -0.29c0.46,0.18 1.29,1.02 1.89,1.58z"/>
     <path id="1" class="fil3" d="M2012.61 1521.76l10.42 -2.92c-16.98,4.41 -20.48,-4.34 -34.65,1.51 -2.18,-6.48 -0.74,-5.96 -4.47,-0.23 -6.51,-4.8 1.01,-5.95 -9.07,-0.75 -7.92,-5.31 1.56,-3.46 -6.49,0.14l-8.28 -4.05c-5.81,-2.21 -1.4,-0.18 -8.29,-2.59l85.82 -9.59c6.94,-0.24 10.03,-0.09 17.79,-0.29 14.67,-0.38 24.87,-2.55 35.12,-0.11 -19.22,31.91 -41.26,22.11 -77.9,18.88zm51 11.6c-1.04,0.04 -3.67,0.42 -4.33,0.36 -7.57,-0.78 -1.39,1.06 -8.98,-1.9 14.84,-3.45 16.38,-3.06 13.31,1.54zm-118.8 -15.45c1.1,-3.78 1.73,-3.31 2.12,-7.99 0.81,-9.84 0.9,-2.57 -0.75,-8.76l-7.58 20.97 1.67 -11.01c0.14,-0.63 0.44,-1.51 0.58,-2.14 0.14,-0.62 0.42,-1.5 0.54,-2.13l1.83 -22.02c6.04,3.6 5.88,5.28 6.81,14.16l-0.68 11.24c-0.2,0.59 -0.6,1.47 -0.84,2.03 -0.52,1.18 -2.92,4.62 -3.7,5.65zm-11.95 8.78l-6.34 -10.01 0.18 -8.79 4.32 11.18 4.15 -15.1c0.11,0.71 -0.17,1.26 0.25,2.15 0.42,0.86 0.17,1.71 0.15,2.12l-2.71 18.45zm-6.85 -17.58l-1.21 3.61 1.21 -3.61zm39.16 13.77l-8.53 -0.26c0.75,-0.37 1.45,-1.72 2.29,-1.02 0.76,0.64 1.8,-0.47 2.21,-0.39l4.03 1.67zm15.48 0.51l-8.63 -0.54c8.84,-3.89 2.87,-3.19 8.63,0.54zm26.15 -2.01l-14.55 0.92 14.55 -0.92zm21.54 11.01l-17.74 -1.85c-0.57,-0.03 -1.69,0 -2.53,-0.09 9.75,-0.96 12.39,-3.5 20.27,1.94zm15.57 0.47c-7.89,2.21 -3.65,1.74 -9.24,-1.29l7.35 -0.29c0.46,0.18 1.29,1.02 1.89,1.58z"/>
    </g>
    <g>
     <path class="fil4" d="M2366.35 1577.09l0.47 -6.75 6.81 0.47 7.01 8.12 -7.28 6.28 -7.01 -8.12zm7.28 -6.28l-7.28 6.28c-1.73,-2.01 -1.51,-5.05 0.5,-6.78 2.01,-1.73 5.05,-1.51 6.78,0.5zm9.44 -14.74l4.89 -0.88 1.45 8.1 -16.25 14.27 -6.34 -7.22 16.25 -14.27zm6.34 7.22l-6.34 -7.22c1.99,-1.75 5.03,-1.55 6.78,0.44 1.75,1.99 1.55,5.03 -0.44,6.78zm8.83 -4.15l1.86 7.7 -5.3 1.28 -10.28 -3.95 3.44 -8.98 10.28 3.95zm-3.44 8.98l3.44 -8.98c2.47,0.94 3.71,3.74 2.77,6.21 -0.94,2.47 -3.74,3.71 -6.21,2.77zm-14.16 10.81l-6.28 -0.88 1.07 -0.71 1.01 -0.67 0.92 -0.63 0.86 -0.59 0.78 -0.56 0.73 -0.53 0.65 -0.49 0.63 -0.48 0.56 -0.44 0.51 -0.43 0.49 -0.42 0.45 -0.4 0.42 -0.39 0.38 -0.36 0.38 -0.39 0.41 -0.41 0.36 -0.39 0.35 -0.38 0.38 -0.44 0.39 -0.45 0.39 -0.48 0.45 -0.53 0.43 -0.52 0.47 -0.57 0.5 -0.6 0.51 -0.61 0.58 -0.71 0.63 -0.73 0.64 -0.76 0.71 -0.81 0.74 -0.84 0.8 -0.91 7.16 6.42 -0.76 0.85 -0.72 0.82 -0.65 0.75 -0.62 0.72 -0.57 0.67 -0.52 0.63 -0.53 0.65 -0.5 0.6 -0.47 0.57 -0.47 0.56 -0.43 0.51 -0.45 0.54 -0.45 0.51 -0.44 0.52 -0.49 0.54 -0.48 0.51 -0.47 0.49 -0.5 0.51 -0.56 0.54 -0.56 0.51 -0.59 0.52 -0.61 0.52 -0.65 0.53 -0.7 0.56 -0.71 0.54 -0.77 0.59 -0.83 0.59 -0.86 0.62 -0.94 0.65 -0.98 0.67 -1.05 0.71 -1.13 0.75 -6.28 -0.88 7.28 -6.28zm-6.28 -0.88l5.28 8.04c-2.22,1.45 -5.21,0.84 -6.66,-1.38 -1.45,-2.22 -0.84,-5.21 1.38,-6.66z"/>
     <path id="1" class="fil3" d="M2377 1582.07l-7.01 -8.12 16.25 -14.27 10.28 3.95c-8.65,9.64 -7.36,10.46 -19.52,18.44z"/>
    </g>
    <g>
     <path class="fil0 str5" d="M2365.27 1563.57c9.79,-5.85 8.29,-11.77 16.88,-5.85 -2.1,6.82 -8.92,9.41 -14.53,11.39l-2.35 -5.54z"/>
     <path id="1" class="fil3" d="M2365.27 1563.57c9.79,-5.85 8.29,-11.77 16.88,-5.85 -2.1,6.82 -8.92,9.41 -14.53,11.39l-2.35 -5.54z"/>
    </g>
    <g>
     <path class="fil0 str6" d="M2275.43 1448.41c14.76,19.49 50.97,24.38 72.49,23.74l5.26 2.87 6.6 -1.56 17.24 -7.02 -5.47 -10.14 -30.32 -17.55c10.03,-0.83 -1.24,-2.71 13.75,1.28 7.14,1.9 6.24,2.75 11.77,5.49 6.39,8.52 21.05,9.32 14.83,29.62 -19.83,15.24 -41.15,7.49 -61.41,3.03 -23.6,-5.19 -41.16,-2.68 -57.83,-31.76l13.09 2z"/>
     <path id="1" class="fil3" d="M2275.43 1448.41c14.76,19.49 50.97,24.38 72.49,23.74l5.26 2.87 6.6 -1.56 17.24 -7.02 -5.47 -10.14 -30.32 -17.55c10.03,-0.83 -1.24,-2.71 13.75,1.28 7.14,1.9 6.24,2.75 11.77,5.49 6.39,8.52 21.05,9.32 14.83,29.62 -19.83,15.24 -41.15,7.49 -61.41,3.03 -23.6,-5.19 -41.16,-2.68 -57.83,-31.76l13.09 2z"/>
    </g>
    <g>
     <path class="fil0 str7" d="M2318.87 1615.93c-5.79,7.07 -17.58,4.9 -25.33,4.31 -16.28,-1.24 -30.56,-1.31 -46.85,-7.7l-10.22 -8.87c-14.81,-13.53 -23.79,-33.21 -28.08,-54.77l7.33 -1.8c10.14,26.52 13.82,37.14 33.55,57.9 21.13,10.4 48.51,13.02 71,6.82l-1.4 4.11zm-144.51 -133.36c15.27,-27.43 19.42,25.25 42.57,-17.14 3.23,-5.4 5.19,-10.19 8.49,-15.85 17.87,-30.64 53.54,-46.05 81.32,-48.66 36.31,-3.42 71.49,13.46 94.07,44.05 8.72,11.81 9.73,21.74 10.42,35.18 1.21,23.67 1.08,43.33 -2.59,66.79 -2.25,14.4 -5.32,19.53 -15.91,31.13 -18.74,20.52 -42.36,32.46 -69.45,33.56 -9.19,1.82 -16.35,2.83 -22.6,3.16l5.08 6.93c15.34,0.56 27.32,0.26 28.83,-0.01 16.82,-2.35 32.3,-8.89 45.66,-18.33l3.16 -2.32c20.22,-15.37 35.19,-37.53 42.05,-61.79 6.53,-23.12 5.77,-51.24 -5.97,-76.86 -16.61,-36.25 -31.77,-39.95 -58.47,-57.29 -1.56,-1.01 -2.4,-1.79 -3.88,-2.59l-9.66 -3.29c-2.31,0.11 -3.65,-0.13 -6.01,0.88 -5.63,-10.73 -43.87,-1.22 -85.58,13.52 -9.07,4.74 -46.08,49.04 -52,58.51 -5.85,9.35 -24.03,-8.83 -31.14,1.99 -1.1,1.67 -2.14,3.92 -3.16,6.53l4.77 1.9zm-195.29 -14.22l-0.28 -1.65c-3.14,1.34 -6.81,3.2 -10.14,5.58 -4.4,-8.8 4.41,-3.19 -35.31,-4.05 -46.69,-1 -14.93,-0.81 -36.08,-6.36 -16.35,13.71 -12.8,24.43 -13.41,39.8 -0.52,13.2 -2.98,27.42 8.79,38.13 5.26,2.85 59.29,-8.94 80.16,-0.07 9.75,-0.96 12.38,-3.5 20.26,1.93l6.34 -0.81 7.34 -0.29c0.47,0.18 1.3,1.02 1.9,1.57l6.39 -1.03c14.84,-3.45 16.38,-3.06 13.3,1.54l138.08 0.24 0.5 0.94c2.02,-1.24 24.39,-2.76 26.61,-2.64 9.59,2.85 14.45,6.27 16.58,10.03l5.62 -4.11c-0.02,-0.37 -0.05,-0.76 -0.08,-1.15 -4.27,-8.69 -10.7,-10.6 -18.26,-11.11 -22.67,-1.54 -12.69,5.07 -18.35,-2.67 -3.85,2.93 -1.43,3.09 -6.37,3.21 -1.74,0.04 -3.12,-0.1 -4.57,0.11l-0.48 2.27 -25.53 2.04 1.06 -2.77 -97.06 -3.84c-41.04,-8.84 -12.86,13.47 -68.74,-2.15l-5.81 -0.39 -14.55 0.93c-4.09,2.62 -2.66,2.93 -3.87,-1.95 -4.4,5.29 -3.15,6.55 -4.47,-0.24l-3.27 3.28 -8.63 -0.54c-8.26,4.27 1.13,-8.43 -6.85,0.02l-8.52 -0.25c-11.39,1.7 -2.21,2.34 -11.83,-4.71 1.09,-3.78 1.73,-3.31 2.12,-8 0.81,-9.84 0.9,-2.56 -0.75,-8.75l-7.58 20.96 -5.75 4.57 -6.33 -10.02 -1.72 -3.95 1.21 -3.62c-2.82,-13.41 -3.82,-36.64 6.73,-48.08 41.4,7.35 8.74,3.14 46.53,3.81l8.47 0.48 7.1 -0.01 9.31 -1.1c2.06,3.18 0.5,2.55 0.5,5.67 3.97,-2.43 7.1,-1.98 11.03,-2.15 4,-0.17 6.78,-0.28 10.74,-0.29 13.94,-0.06 3.26,0.43 9.47,1.42 0.37,0.06 8.95,-0.95 10.27,-1.08l79.45 2.76c10.11,0.99 5.92,-0.34 12.37,1.09 2.37,0.53 2.73,0.79 5.16,1.59 5.28,-2.83 1.05,-1.91 8.07,-2.28 8.56,-0.46 17.36,-1.61 26.63,-2.02 9.61,-0.43 15.64,1.03 22.4,1.94l0.43 -1.13 4.09 1.63 0.11 0.01 1.74 -4c-6.04,-2.03 -13.85,-6.07 -16.82,-5.67 -3.75,0.52 -7.07,0.96 -9.93,1.33l-22.87 -1.56c-5.87,-0.48 -2.62,-0.39 -7.9,0.12 -10.2,0.98 -18.59,0.3 -30.06,0.11 -13.87,-0.22 -79.5,-0.87 -90.3,-2.31 -9.98,-2.42 -5.05,-0.55 -14.39,-0.31z"/>
     <path id="1" class="fil3" d="M2318.87 1615.93c-5.79,7.07 -17.58,4.9 -25.33,4.31 -16.28,-1.24 -30.56,-1.31 -46.85,-7.7l-10.22 -8.87c-14.81,-13.53 -23.79,-33.21 -28.08,-54.77l7.33 -1.8c10.14,26.52 13.82,37.14 33.55,57.9 21.13,10.4 48.51,13.02 71,6.82l-1.4 4.11zm-144.51 -133.36c15.27,-27.43 19.42,25.25 42.57,-17.14 3.23,-5.4 5.19,-10.19 8.49,-15.85 17.87,-30.64 53.54,-46.05 81.32,-48.66 36.31,-3.42 71.49,13.46 94.07,44.05 8.72,11.81 9.73,21.74 10.42,35.18 1.21,23.67 1.08,43.33 -2.59,66.79 -2.25,14.4 -5.32,19.53 -15.91,31.13 -18.74,20.52 -42.36,32.46 -69.45,33.56 -9.19,1.82 -16.35,2.83 -22.6,3.16l5.08 6.93c15.34,0.56 27.32,0.26 28.83,-0.01 16.82,-2.35 32.3,-8.89 45.66,-18.33l3.16 -2.32c20.22,-15.37 35.19,-37.53 42.05,-61.79 6.53,-23.12 5.77,-51.24 -5.97,-76.86 -16.61,-36.25 -31.77,-39.95 -58.47,-57.29 -1.56,-1.01 -2.4,-1.79 -3.88,-2.59l-9.66 -3.29c-2.31,0.11 -3.65,-0.13 -6.01,0.88 -5.63,-10.73 -43.87,-1.22 -85.58,13.52 -9.07,4.74 -46.08,49.04 -52,58.51 -5.85,9.35 -24.03,-8.83 -31.14,1.99 -1.1,1.67 -2.14,3.92 -3.16,6.53l4.77 1.9zm-195.29 -14.22l-0.28 -1.65c-3.14,1.34 -6.81,3.2 -10.14,5.58 -4.4,-8.8 4.41,-3.19 -35.31,-4.05 -46.69,-1 -14.93,-0.81 -36.08,-6.36 -16.35,13.71 -12.8,24.43 -13.41,39.8 -0.52,13.2 -2.98,27.42 8.79,38.13 5.26,2.85 59.29,-8.94 80.16,-0.07 9.75,-0.96 12.38,-3.5 20.26,1.93l6.34 -0.81 7.34 -0.29c0.47,0.18 1.3,1.02 1.9,1.57l6.39 -1.03c14.84,-3.45 16.38,-3.06 13.3,1.54l138.08 0.24 0.5 0.94c2.02,-1.24 24.39,-2.76 26.61,-2.64 9.59,2.85 14.45,6.27 16.58,10.03l5.62 -4.11c-0.02,-0.37 -0.05,-0.76 -0.08,-1.15 -4.27,-8.69 -10.7,-10.6 -18.26,-11.11 -22.67,-1.54 -12.69,5.07 -18.35,-2.67 -3.85,2.93 -1.43,3.09 -6.37,3.21 -1.74,0.04 -3.12,-0.1 -4.57,0.11l-0.48 2.27 -25.53 2.04 1.06 -2.77 -97.06 -3.84c-41.04,-8.84 -12.86,13.47 -68.74,-2.15l-5.81 -0.39 -14.55 0.93c-4.09,2.62 -2.66,2.93 -3.87,-1.95 -4.4,5.29 -3.15,6.55 -4.47,-0.24l-3.27 3.28 -8.63 -0.54c-8.26,4.27 1.13,-8.43 -6.85,0.02l-8.52 -0.25c-11.39,1.7 -2.21,2.34 -11.83,-4.71 1.09,-3.78 1.73,-3.31 2.12,-8 0.81,-9.84 0.9,-2.56 -0.75,-8.75l-7.58 20.96 -5.75 4.57 -6.33 -10.02 -1.72 -3.95 1.21 -3.62c-2.82,-13.41 -3.82,-36.64 6.73,-48.08 41.4,7.35 8.74,3.14 46.53,3.81l8.47 0.48 7.1 -0.01 9.31 -1.1c2.06,3.18 0.5,2.55 0.5,5.67 3.97,-2.43 7.1,-1.98 11.03,-2.15 4,-0.17 6.78,-0.28 10.74,-0.29 13.94,-0.06 3.26,0.43 9.47,1.42 0.37,0.06 8.95,-0.95 10.27,-1.08l79.45 2.76c10.11,0.99 5.92,-0.34 12.37,1.09 2.37,0.53 2.73,0.79 5.16,1.59 5.28,-2.83 1.05,-1.91 8.07,-2.28 8.56,-0.46 17.36,-1.61 26.63,-2.02 9.61,-0.43 15.64,1.03 22.4,1.94l0.43 -1.13 4.09 1.63 0.11 0.01 1.74 -4c-6.04,-2.03 -13.85,-6.07 -16.82,-5.67 -3.75,0.52 -7.07,0.96 -9.93,1.33l-22.87 -1.56c-5.87,-0.48 -2.62,-0.39 -7.9,0.12 -10.2,0.98 -18.59,0.3 -30.06,0.11 -13.87,-0.22 -79.5,-0.87 -90.3,-2.31 -9.98,-2.42 -5.05,-0.55 -14.39,-0.31z"/>
    </g>
   </g>
   <g>
    <g>
     <path class="fil0 str8" d="M2837.58 1638.45l-10.43 -2.92c16.98,4.42 20.49,-4.33 34.65,1.51 2.19,-6.48 0.75,-5.95 4.47,-0.23 6.51,-4.79 -1,-5.94 9.08,-0.75 7.91,-5.31 -1.57,-3.45 6.49,0.14l8.27 -4.04c5.82,-2.22 1.4,-0.19 8.3,-2.59l-85.83 -9.6c-6.93,-0.24 -10.03,-0.09 -17.79,-0.29 -14.67,-0.37 -24.86,-2.54 -35.12,-0.11 19.23,31.92 41.27,22.12 77.91,18.88zm-51 11.61c1.03,0.03 3.67,0.42 4.32,0.35 7.57,-0.78 1.4,1.06 8.98,-1.89 -14.83,-3.45 -16.38,-3.06 -13.3,1.54zm118.8 -15.46c-1.1,-3.77 -1.73,-3.3 -2.12,-7.99 -0.82,-9.84 -0.91,-2.56 0.74,-8.75l7.59 20.96 -1.67 -11.01c-0.14,-0.62 -0.44,-1.5 -0.58,-2.13 -0.14,-0.63 -0.42,-1.51 -0.55,-2.14l-1.83 -22.01c-6.03,3.59 -5.87,5.27 -6.8,14.15l0.67 11.24c0.2,0.6 0.61,1.48 0.85,2.03 0.51,1.18 2.92,4.62 3.7,5.65zm11.95 8.79l6.33 -10.02 -0.17 -8.79 -4.32 11.19 -4.15 -15.11c-0.12,0.71 0.16,1.27 -0.26,2.15 -0.41,0.87 -0.17,1.71 -0.15,2.12l2.72 18.46zm6.84 -17.59l1.21 3.61 -1.21 -3.61zm-39.15 13.77l8.52 -0.25c-0.75,-0.37 -1.44,-1.73 -2.29,-1.02 -0.76,0.63 -1.8,-0.47 -2.21,-0.4l-4.02 1.67zm-15.48 0.52l8.63 -0.54c-8.84,-3.9 -2.87,-3.19 -8.63,0.54zm-26.16 -2.02l14.55 0.93 -14.55 -0.93zm-21.53 11.01l17.74 -1.85c0.56,-0.02 1.69,0 2.53,-0.08 -9.76,-0.96 -12.39,-3.5 -20.27,1.93zm-15.58 0.47c7.89,2.22 3.65,1.75 9.25,-1.29l-7.35 -0.28c-0.47,0.18 -1.29,1.02 -1.9,1.57z"/>
     <path id="1" class="fil3" d="M2837.58 1638.45l-10.43 -2.92c16.98,4.42 20.49,-4.33 34.65,1.51 2.19,-6.48 0.75,-5.95 4.47,-0.23 6.51,-4.79 -1,-5.94 9.08,-0.75 7.91,-5.31 -1.57,-3.45 6.49,0.14l8.27 -4.04c5.82,-2.22 1.4,-0.19 8.3,-2.59l-85.83 -9.6c-6.93,-0.24 -10.03,-0.09 -17.79,-0.29 -14.67,-0.37 -24.86,-2.54 -35.12,-0.11 19.23,31.92 41.27,22.12 77.91,18.88zm-51 11.61c1.03,0.03 3.67,0.42 4.32,0.35 7.57,-0.78 1.4,1.06 8.98,-1.89 -14.83,-3.45 -16.38,-3.06 -13.3,1.54zm118.8 -15.46c-1.1,-3.77 -1.73,-3.3 -2.12,-7.99 -0.82,-9.84 -0.91,-2.56 0.74,-8.75l7.59 20.96 -1.67 -11.01c-0.14,-0.62 -0.44,-1.5 -0.58,-2.13 -0.14,-0.63 -0.42,-1.51 -0.55,-2.14l-1.83 -22.01c-6.03,3.59 -5.87,5.27 -6.8,14.15l0.67 11.24c0.2,0.6 0.61,1.48 0.85,2.03 0.51,1.18 2.92,4.62 3.7,5.65zm11.95 8.79l6.33 -10.02 -0.17 -8.79 -4.32 11.19 -4.15 -15.11c-0.12,0.71 0.16,1.27 -0.26,2.15 -0.41,0.87 -0.17,1.71 -0.15,2.12l2.72 18.46zm6.84 -17.59l1.21 3.61 -1.21 -3.61zm-39.15 13.77l8.52 -0.25c-0.75,-0.37 -1.44,-1.73 -2.29,-1.02 -0.76,0.63 -1.8,-0.47 -2.21,-0.4l-4.02 1.67zm-15.48 0.52l8.63 -0.54c-8.84,-3.9 -2.87,-3.19 -8.63,0.54zm-26.16 -2.02l14.55 0.93 -14.55 -0.93zm-21.53 11.01l17.74 -1.85c0.56,-0.02 1.69,0 2.53,-0.08 -9.76,-0.96 -12.39,-3.5 -20.27,1.93zm-15.58 0.47c7.89,2.22 3.65,1.75 9.25,-1.29l-7.35 -0.28c-0.47,0.18 -1.29,1.02 -1.9,1.57z"/>
    </g>
    <g>
     <path class="fil4" d="M2483.83 1693.78l-7.01 8.13 -7.28 -6.28 7.01 -8.13 6.81 -0.47 0.47 6.75zm-7.28 -6.28c1.73,-2.01 4.77,-2.23 6.78,-0.5 2.01,1.73 2.23,4.77 0.5,6.78l-7.28 -6.28zm-9.44 -14.74l16.25 14.27 -6.34 7.22 -16.25 -14.27 1.45 -8.09 4.89 0.87zm-6.34 7.22c-1.99,-1.75 -2.19,-4.79 -0.44,-6.78 1.75,-1.99 4.79,-2.19 6.78,-0.44l-6.34 7.22zm-8.82 -4.14l10.27 -3.95 3.44 8.96 -10.27 3.95 -5.3 -1.27 1.86 -7.69zm3.44 8.96c-2.47,0.94 -5.26,-0.29 -6.2,-2.76 -0.94,-2.47 0.29,-5.26 2.76,-6.2l3.44 8.96zm14.15 10.83l7.28 6.28 -6.28 0.88 -1.13 -0.75 -1.05 -0.71 -0.98 -0.67 -0.94 -0.65 -0.86 -0.62 -0.83 -0.59 -0.79 -0.6 -0.71 -0.55 -0.68 -0.55 -0.65 -0.53 -0.61 -0.52 -0.59 -0.52 -0.57 -0.53 -0.54 -0.52 -0.49 -0.49 -0.49 -0.51 -0.5 -0.53 -0.46 -0.52 -0.44 -0.5 -0.46 -0.53 -0.45 -0.54 -0.43 -0.51 -0.47 -0.56 -0.48 -0.59 -0.49 -0.6 -0.51 -0.61 -0.54 -0.65 -0.58 -0.68 -0.6 -0.71 -0.65 -0.75 -0.72 -0.82 -0.76 -0.85 7.16 -6.42 0.8 0.91 0.74 0.84 0.71 0.81 0.66 0.77 0.6 0.72 0.58 0.69 0.53 0.65 0.49 0.6 0.46 0.55 0.43 0.52 0.45 0.53 0.39 0.48 0.38 0.43 0.4 0.46 0.36 0.4 0.34 0.37 0.39 0.39 0.41 0.41 0.38 0.38 0.41 0.37 0.45 0.4 0.49 0.42 0.51 0.43 0.58 0.45 0.63 0.49 0.63 0.48 0.73 0.53 0.78 0.56 0.86 0.59 0.92 0.63 1.01 0.67 1.07 0.71 -6.28 0.88zm6.28 -0.88c2.22,1.45 2.83,4.44 1.38,6.66 -1.45,2.22 -4.44,2.83 -6.66,1.38l5.28 -8.04z"/>
     <path id="1" class="fil3" d="M2473.18 1698.77l7.01 -8.13 -16.25 -14.27 -10.27 3.95c8.64,9.64 7.35,10.46 19.51,18.45z"/>
    </g>
    <g>
     <path class="fil0 str9" d="M2484.92 1680.27c-9.8,-5.86 -8.3,-11.78 -16.88,-5.86 2.1,6.82 8.91,9.41 14.53,11.39l2.35 -5.53z"/>
     <path id="1" class="fil3" d="M2484.92 1680.27c-9.8,-5.86 -8.3,-11.78 -16.88,-5.86 2.1,6.82 8.91,9.41 14.53,11.39l2.35 -5.53z"/>
    </g>
    <g>
     <path class="fil0 str10" d="M2574.76 1565.11c-14.77,19.48 -50.97,24.38 -72.5,23.74l-5.25 2.87 -6.6 -1.57 -17.25 -7.01 5.47 -10.15 30.33 -17.54c-10.04,-0.84 1.24,-2.72 -13.75,1.27 -7.14,1.9 -6.24,2.75 -11.78,5.49 -6.38,8.53 -21.04,9.32 -14.82,29.63 19.83,15.24 41.14,7.49 61.41,3.03 23.59,-5.2 41.16,-2.68 57.83,-31.77l-13.09 2.01z"/>
     <path id="1" class="fil3" d="M2574.76 1565.11c-14.77,19.48 -50.97,24.38 -72.5,23.74l-5.25 2.87 -6.6 -1.57 -17.25 -7.01 5.47 -10.15 30.33 -17.54c-10.04,-0.84 1.24,-2.72 -13.75,1.27 -7.14,1.9 -6.24,2.75 -11.78,5.49 -6.38,8.53 -21.04,9.32 -14.82,29.63 19.83,15.24 41.14,7.49 61.41,3.03 23.59,-5.2 41.16,-2.68 57.83,-31.77l-13.09 2.01z"/>
    </g>
    <g>
     <path class="fil0 str11" d="M2531.31 1732.62c5.79,7.07 17.59,4.9 25.33,4.32 16.29,-1.24 30.56,-1.32 46.85,-7.71l10.22 -8.87c14.82,-13.53 23.79,-33.2 28.09,-54.76l-7.33 -1.8c-10.14,26.52 -13.83,37.14 -33.56,57.9 -21.13,10.39 -48.5,13.02 -70.99,6.81l1.39 4.11zm144.51 -133.36c-15.26,-27.42 -19.42,25.25 -42.56,-17.13 -3.24,-5.41 -5.19,-10.2 -8.49,-15.86 -17.88,-30.63 -53.54,-46.05 -81.32,-48.66 -36.31,-3.41 -71.49,13.47 -94.07,44.05 -8.73,11.82 -9.74,21.74 -10.42,35.19 -1.22,23.66 -1.08,43.33 2.59,66.78 2.25,14.4 5.31,19.54 15.9,31.14 18.74,20.52 42.37,32.45 69.45,33.55 9.19,1.82 16.35,2.84 22.61,3.17l-5.08 6.93c-15.35,0.55 -27.32,0.25 -28.84,-0.01 -16.82,-2.36 -32.29,-8.89 -45.65,-18.34l-3.17 -2.31c-20.21,-15.38 -35.19,-37.54 -42.04,-61.8 -6.54,-23.12 -5.77,-51.24 5.96,-76.85 16.61,-36.26 31.77,-39.95 58.48,-57.29 1.56,-1.01 2.39,-1.8 3.88,-2.59l9.65 -3.3c2.32,0.12 3.65,-0.13 6.02,0.88 5.62,-10.72 43.87,-1.22 85.58,13.53 9.07,4.74 46.08,49.04 52,58.51 5.84,9.34 24.02,-8.83 31.14,1.99 1.09,1.66 2.13,3.91 3.15,6.52l-4.77 1.9zm195.29 -14.22l0.29 -1.65c3.14,1.34 6.8,3.2 10.14,5.59 4.4,-8.8 -4.41,-3.19 35.31,-4.05 46.69,-1.01 14.93,-0.82 36.08,-6.36 16.35,13.71 12.8,24.43 13.4,39.79 0.52,13.2 2.98,27.42 -8.79,38.14 -5.26,2.85 -59.28,-8.94 -80.15,-0.08 -9.75,-0.96 -12.39,-3.5 -20.27,1.94l-6.33 -0.82 -7.35 -0.29c-0.47,0.19 -1.29,1.02 -1.9,1.58l-6.38 -1.03c-14.84,-3.46 -16.38,-3.07 -13.31,1.54l-138.08 0.23 -0.5 0.94c-2.01,-1.23 -24.38,-2.75 -26.61,-2.64 -9.58,2.86 -14.44,6.28 -16.58,10.04l-5.61 -4.11c0.02,-0.38 0.04,-0.76 0.08,-1.15 4.27,-8.69 10.7,-10.61 18.26,-11.12 22.67,-1.53 12.68,5.07 18.35,-2.67 3.85,2.93 1.43,3.1 6.37,3.21 1.74,0.04 3.11,-0.09 4.57,0.12l0.48 2.26 25.53 2.05 -1.06 -2.77 97.06 -3.85c41.04,-8.84 12.85,13.48 68.74,-2.15l5.81 -0.38 14.55 0.92c4.09,2.62 2.65,2.93 3.86,-1.95 4.4,5.3 3.16,6.56 4.47,-0.23l3.27 3.27 8.63 -0.54c8.27,4.27 -1.13,-8.42 6.85,0.03l8.53 -0.26c11.38,1.7 2.21,2.34 11.83,-4.71 -1.1,-3.77 -1.73,-3.31 -2.12,-7.99 -0.82,-9.84 -0.91,-2.56 0.74,-8.76l7.59 20.97 5.74 4.56 6.33 -10.01 1.72 -3.96 -1.2 -3.61c2.82,-13.42 3.81,-36.65 -6.74,-48.09 -41.4,7.36 -8.73,3.14 -46.52,3.82l-8.48 0.48 -7.09 -0.02 -9.32 -1.09c-2.06,3.18 -0.5,2.55 -0.5,5.67 -3.97,-2.43 -7.1,-1.98 -11.03,-2.15 -3.99,-0.18 -6.77,-0.28 -10.74,-0.3 -13.93,-0.05 -3.26,0.43 -9.46,1.42 -0.37,0.06 -8.95,-0.94 -10.27,-1.07l-79.45 2.75c-10.12,0.99 -5.92,-0.34 -12.38,1.09 -2.37,0.53 -2.73,0.79 -5.15,1.6 -5.29,-2.83 -1.06,-1.91 -8.07,-2.29 -8.56,-0.46 -17.36,-1.6 -26.64,-2.01 -9.61,-0.43 -15.64,1.02 -22.39,1.94l-0.44 -1.13 -4.09 1.62 -0.11 0.01 -1.73 -3.99c6.04,-2.03 13.84,-6.08 16.81,-5.67 3.75,0.51 7.08,0.96 9.93,1.33l22.88 -1.57c5.87,-0.47 2.62,-0.38 7.89,0.12 10.21,0.98 18.6,0.3 30.07,0.12 13.87,-0.22 79.5,-0.87 90.29,-2.31 9.99,-2.43 5.06,-0.56 14.39,-0.32z"/>
     <path id="1" class="fil3" d="M2531.31 1732.62c5.79,7.07 17.59,4.9 25.33,4.32 16.29,-1.24 30.56,-1.32 46.85,-7.71l10.22 -8.87c14.82,-13.53 23.79,-33.2 28.09,-54.76l-7.33 -1.8c-10.14,26.52 -13.83,37.14 -33.56,57.9 -21.13,10.39 -48.5,13.02 -70.99,6.81l1.39 4.11zm144.51 -133.36c-15.26,-27.42 -19.42,25.25 -42.56,-17.13 -3.24,-5.41 -5.19,-10.2 -8.49,-15.86 -17.88,-30.63 -53.54,-46.05 -81.32,-48.66 -36.31,-3.41 -71.49,13.47 -94.07,44.05 -8.73,11.82 -9.74,21.74 -10.42,35.19 -1.22,23.66 -1.08,43.33 2.59,66.78 2.25,14.4 5.31,19.54 15.9,31.14 18.74,20.52 42.37,32.45 69.45,33.55 9.19,1.82 16.35,2.84 22.61,3.17l-5.08 6.93c-15.35,0.55 -27.32,0.25 -28.84,-0.01 -16.82,-2.36 -32.29,-8.89 -45.65,-18.34l-3.17 -2.31c-20.21,-15.38 -35.19,-37.54 -42.04,-61.8 -6.54,-23.12 -5.77,-51.24 5.96,-76.85 16.61,-36.26 31.77,-39.95 58.48,-57.29 1.56,-1.01 2.39,-1.8 3.88,-2.59l9.65 -3.3c2.32,0.12 3.65,-0.13 6.02,0.88 5.62,-10.72 43.87,-1.22 85.58,13.53 9.07,4.74 46.08,49.04 52,58.51 5.84,9.34 24.02,-8.83 31.14,1.99 1.09,1.66 2.13,3.91 3.15,6.52l-4.77 1.9zm195.29 -14.22l0.29 -1.65c3.14,1.34 6.8,3.2 10.14,5.59 4.4,-8.8 -4.41,-3.19 35.31,-4.05 46.69,-1.01 14.93,-0.82 36.08,-6.36 16.35,13.71 12.8,24.43 13.4,39.79 0.52,13.2 2.98,27.42 -8.79,38.14 -5.26,2.85 -59.28,-8.94 -80.15,-0.08 -9.75,-0.96 -12.39,-3.5 -20.27,1.94l-6.33 -0.82 -7.35 -0.29c-0.47,0.19 -1.29,1.02 -1.9,1.58l-6.38 -1.03c-14.84,-3.46 -16.38,-3.07 -13.31,1.54l-138.08 0.23 -0.5 0.94c-2.01,-1.23 -24.38,-2.75 -26.61,-2.64 -9.58,2.86 -14.44,6.28 -16.58,10.04l-5.61 -4.11c0.02,-0.38 0.04,-0.76 0.08,-1.15 4.27,-8.69 10.7,-10.61 18.26,-11.12 22.67,-1.53 12.68,5.07 18.35,-2.67 3.85,2.93 1.43,3.1 6.37,3.21 1.74,0.04 3.11,-0.09 4.57,0.12l0.48 2.26 25.53 2.05 -1.06 -2.77 97.06 -3.85c41.04,-8.84 12.85,13.48 68.74,-2.15l5.81 -0.38 14.55 0.92c4.09,2.62 2.65,2.93 3.86,-1.95 4.4,5.3 3.16,6.56 4.47,-0.23l3.27 3.27 8.63 -0.54c8.27,4.27 -1.13,-8.42 6.85,0.03l8.53 -0.26c11.38,1.7 2.21,2.34 11.83,-4.71 -1.1,-3.77 -1.73,-3.31 -2.12,-7.99 -0.82,-9.84 -0.91,-2.56 0.74,-8.76l7.59 20.97 5.74 4.56 6.33 -10.01 1.72 -3.96 -1.2 -3.61c2.82,-13.42 3.81,-36.65 -6.74,-48.09 -41.4,7.36 -8.73,3.14 -46.52,3.82l-8.48 0.48 -7.09 -0.02 -9.32 -1.09c-2.06,3.18 -0.5,2.55 -0.5,5.67 -3.97,-2.43 -7.1,-1.98 -11.03,-2.15 -3.99,-0.18 -6.77,-0.28 -10.74,-0.3 -13.93,-0.05 -3.26,0.43 -9.46,1.42 -0.37,0.06 -8.95,-0.94 -10.27,-1.07l-79.45 2.75c-10.12,0.99 -5.92,-0.34 -12.38,1.09 -2.37,0.53 -2.73,0.79 -5.15,1.6 -5.29,-2.83 -1.06,-1.91 -8.07,-2.29 -8.56,-0.46 -17.36,-1.6 -26.64,-2.01 -9.61,-0.43 -15.64,1.02 -22.39,1.94l-0.44 -1.13 -4.09 1.62 -0.11 0.01 -1.73 -3.99c6.04,-2.03 13.84,-6.08 16.81,-5.67 3.75,0.51 7.08,0.96 9.93,1.33l22.88 -1.57c5.87,-0.47 2.62,-0.38 7.89,0.12 10.21,0.98 18.6,0.3 30.07,0.12 13.87,-0.22 79.5,-0.87 90.29,-2.31 9.99,-2.43 5.06,-0.56 14.39,-0.32z"/>
    </g>
   </g>
   <path class="fil0 str12" d="M1909.2 2567.4c310.77,-111.29 474.73,-34.87 511.38,-46.77 38.48,-12.5 55.71,-87.26 245.07,-39.11 57.26,14.55 175.07,54.98 222.36,48.38"/>
   <path class="fil5" d="M1538.5 1777.8c1.05,34.55 18.29,81.17 34.5,102.46 32.18,42.24 54.92,12.63 71.81,-24.14 3.9,-8.49 17.56,-42.48 17.02,-51.69 -0.44,-7.42 -5.7,-19.28 -8.62,-25.93 -3.37,-7.66 -7.66,-16.51 -14.34,-19.91 -23.64,-12.02 -26.77,-9.61 -48.3,2.69 -14.87,8.49 -30.66,17.81 -52.07,16.52zm127.68 7.23c2.2,-4.01 2.83,-9.43 3.01,-14.79l-9.85 -2.15 6.84 16.94zm-150.9 -23.36c17.56,-2.17 17.93,21.11 66.64,-6.48 30.09,-17.04 31.1,-18.77 62.77,-3.87 9.18,4.32 21.6,11.57 33.82,9.04 5.38,-1.12 12.14,-6.37 14.56,-3.93 3.17,3.2 -5.37,8.89 -8.18,10.39 -4.62,2.47 -4.59,0.38 -6.14,5.14 -0.74,2.25 -5.86,34.53 -14.91,61.32 -54.52,161.45 -130.74,33.29 -135.22,-58.69 -5.83,-1.89 -11.99,-6.78 -13.34,-12.92z"/>
   <path class="fil5" d="M1592.01 1656.16c-7.78,-9.95 -52.06,-18.72 -40.12,6.99 10.79,23.22 38.17,10.22 40.12,-6.99z"/>
   <path class="fil6" d="M1538.5 1777.8c21.41,1.29 37.2,-8.03 52.07,-16.52 21.53,-12.3 24.66,-14.71 48.3,-2.69 6.68,3.4 10.97,12.25 14.34,19.91 2.92,6.65 8.18,18.51 8.62,25.93 0.54,9.21 -13.12,43.2 -17.02,51.69 -16.89,36.77 -39.63,66.38 -71.81,24.14 -16.21,-21.29 -33.45,-67.91 -34.5,-102.46z"/>
   <path class="fil7" d="M1659.34 1768.09l9.85 2.15c-0.18,5.36 -0.81,10.78 -3.01,14.79l-6.84 -16.94z"/>
   <path class="fil5" d="M1655.6 1457.27c34.34,-14.52 50.73,37.07 19.61,48.62 -31.27,11.61 -52.35,-34.78 -19.61,-48.62zm-3.72 -18.95c-99.09,24.73 -58.55,170 36.21,144.82 95.23,-25.3 56.86,-168.05 -36.21,-144.82z"/>
   <path class="fil6" d="M1655.6 1457.27c-32.74,13.84 -11.66,60.23 19.61,48.62 31.12,-11.55 14.73,-63.14 -19.61,-48.62z"/>
   <path class="fil5" d="M1449.45 1520.29c-20.89,39.52 -72.99,15.46 -58.94,-24.73 15.09,-43.13 79.29,-13.74 58.94,24.73zm-62.56 -69.52c-124.78,30.66 -79.49,213.7 38.9,182.62 114.2,-29.98 77.54,-211.22 -38.9,-182.62z"/>
   <path class="fil6" d="M1449.45 1520.29c20.35,-38.47 -43.85,-67.86 -58.94,-24.73 -14.05,40.19 38.05,64.25 58.94,24.73z"/>
  </g>
 </g>
</svg>
