<?xml version="1.0" encoding="UTF-8"?>
<!DOCTYPE svg PUBLIC "-//W3C//DTD SVG 1.1//EN" "http://www.w3.org/Graphics/SVG/1.1/DTD/svg11.dtd">
<!-- Creator: CorelDRAW 2017 -->
<svg xmlns="http://www.w3.org/2000/svg" xml:space="preserve" width="50.7998mm" height="33.8666mm" version="1.1" style="shape-rendering:geometricPrecision; text-rendering:geometricPrecision; image-rendering:optimizeQuality; fill-rule:evenodd; clip-rule:evenodd"
viewBox="0 0 5079.98 3386.66"
 xmlns:xlink="http://www.w3.org/1999/xlink">
 <defs>
  <style type="text/css">
   <![CDATA[
    .str1 {stroke:#FEFEFE;stroke-width:7.62;stroke-miterlimit:22.9256}
    .str0 {stroke:#373435;stroke-width:7.62;stroke-miterlimit:22.9256}
    .fil16 {fill:#FEFEFE}
    .fil1 {fill:#373435}
    .fil8 {fill:#EEECEC}
    .fil3 {fill:#E3C9D7}
    .fil5 {fill:#E6DD30}
    .fil12 {fill:#DCD6AE}
    .fil11 {fill:#C4B4B7}
    .fil9 {fill:#C4B2B4}
    .fil4 {fill:#AAA8A7}
    .fil10 {fill:#544E52}
    .fil6 {fill:#2A2B2B}
    .fil2 {fill:#2C3A36}
    .fil13 {fill:#395558}
    .fil15 {fill:#334647}
    .fil14 {fill:#364C51}
    .fil7 {fill:#169651}
    .fil0 {fill:#334976}
   ]]>
  </style>
 </defs>
 <g id="Capa_x0020_1">
  <metadata id="CorelCorpID_0Corel-Layer"/>
  <path class="fil0" d="M2843.86 386.11c6.47,-24.39 0.77,-64.49 -7.93,-90.88l-7.53 -26.35c-0.68,-1.07 -0.11,-1.82 -0.05,-2.72 39.1,-7.98 106.67,14.85 143.31,62.03 35.67,45.92 40.01,106.51 29.76,144.22 -23.07,-1.61 -36.09,-18.03 -55.01,-10.72 17.21,14.64 116.51,33.02 129.42,134.07 8.95,70.11 -14.69,105.11 -87.25,156.47 -28.84,-24.31 -38.84,-38.22 -72.85,-54.55 -62.29,-29.92 -49.34,6.19 -67.69,-26.61 34.72,-26.86 42.25,-66.7 18.15,-98.57 -30.45,-40.27 -65.71,-33.5 -96.08,-36.2 73.29,-76.25 60.79,-104.03 75.39,-134.25 73.51,54.29 74.46,98.14 53.6,163.2 25.9,-28.45 28.17,-68.69 21.46,-96.35 -15.39,-63.47 -60.03,-71.78 -76.7,-82.79zm-753.41 555.26c32.97,27.33 38.77,47.68 82.16,69.73 57.15,29.05 119.04,29.63 170.88,-10.48 40.85,-31.62 40.74,-37.95 85.88,-46.86 19.99,-1 46.85,2.7 68.91,23.1 52.76,48.76 -19.85,82.1 1.17,135.62 4.85,12.37 13.92,24.66 26.08,32.85 10.23,6.89 24.84,11.4 36.65,8.87 -1.37,-14.74 -9.02,-25.62 3.04,-40.05 27.39,-32.77 77.51,-0.61 121.84,-47.21 -9.81,0.54 -1.53,-1.52 -11.9,4.77 -27.85,16.88 -38.28,22.12 -72.89,21.19 -63.03,-1.68 -55.17,32.27 -60.84,55.15 -76.82,-46.9 -26.12,-85.81 -16.08,-125.12 13.25,-51.88 -53.1,-85.13 -94.05,-84.73 -91.36,0.88 -116.32,134.99 -265.62,52.68 -136.79,-75.42 -103.51,-281.51 19.16,-272.15 36.92,2.82 25.2,19.13 50.58,48.38 36.08,41.58 95.39,60.28 129.71,43.81 -22.05,-8.61 -45.6,-7.33 -71.46,-19.45 -49.23,-23.08 -84.18,-87.25 -76.71,-138.67 4.54,-31.26 21.54,-49.17 27.46,-74.42 -45.66,53.94 -35.51,94.31 -38.21,131.65 -0.07,0.83 -0.3,2.29 -0.36,2.99 -0.07,0.7 -0.25,2.02 -0.42,3.02 -68.97,-32.3 -95.26,28.42 -120.73,44.99 -37.88,24.65 -152.96,-17.92 -181.97,-121.2 -13.66,-48.61 -8.06,-120.26 39.62,-169.2 39.93,-40.99 97.12,-57.41 148.47,-43.12 15.84,4.41 10.61,8.4 22.94,1.51 -2.35,-14.74 -13.03,-27.95 -15.47,-44.26 -17.03,-113.86 162.89,-199.88 245.16,-154.36 -10.19,17.58 -18.06,47.68 -38.03,52.46 -87.62,20.97 -140.98,95.27 -109.2,155.7l1 -22.09c-0.76,-62.03 37,-103.3 97.27,-119.86 57.56,-15.83 112.97,-0.17 169.31,57.39 -3.22,-13.36 -17.02,-26.68 -27.52,-35.72 -11.21,-9.65 -21.97,-16.33 -35.71,-22.58 -33.45,-15.23 -48.53,-10.31 -71.33,-17.48 114.47,-263.27 490.91,-172.74 499.42,76.34 4.69,137.33 -91.4,164.66 -110.9,203.3 13.08,18.94 38.97,-2.88 57.59,-5.2 44.14,-5.5 93.55,21.5 87.96,69.75 -4.31,37.33 -26.53,30.1 -45.17,49.94 15.22,13.19 3.89,-1.55 17.65,9.81 10.93,9.02 3.26,5.56 12.1,17.67 32.07,-6.03 46.83,-4.14 80.25,16.63 81.45,50.63 117.66,154.44 81.6,239.51 -57.01,134.48 -217.45,149.06 -305.22,64.48 32.98,-18 44.88,33.97 113.91,35.21 36.73,0.66 83.59,-8.14 120.36,-45.25 -42.64,13.48 -114.56,74.52 -196.28,-1.96 38.46,-26.79 71.28,-44.97 88.35,-89.31 -22.36,13.98 -36.52,46.89 -80.26,68.28 -60.24,29.46 -121.58,24.16 -172.6,-20.01 -36.08,-31.22 -41.67,-55.07 -47.95,-89.31 -13.95,27.4 5.88,69.58 33.88,97.76 28.41,28.59 65.39,42.05 95.14,43.8 39.48,2.31 39.16,28.95 93.96,53.03 106.23,46.68 226.21,-6.31 269.4,-111.02 42.83,-103.85 -10.14,-154.72 -21.74,-195.61 66.03,-37.78 87.54,-71.01 95.49,-133.4 6.65,-52.24 -21.62,-102.19 -77.02,-148.34 2.76,-44.28 25.55,-90.46 -33.3,-164.14 -31.81,-39.84 -76.31,-59.93 -123.01,-67.84l-36.87 1.56c-0.81,0.11 -2.26,0.27 -2.94,0.36 -0.67,0.09 -1.97,0.28 -2.97,0.34 -98.68,-163.13 -285.17,-191.12 -415.24,-91.07 -26.05,20.04 -37.83,40.83 -58.34,59.04 -141.13,-45.68 -262.54,45.86 -266.8,146.07 -0.96,22.55 5.62,28.94 6.65,47.15 -52.81,0.55 -94.05,0.84 -140.93,38.33 -88.39,70.66 -86.18,199.3 -9.79,277.63 20.62,21.14 44.05,35.11 68.7,43.41 31.05,10.45 42.37,4.53 69.17,7.99 0.73,35.05 -22.83,52.28 -1.14,116 4.98,14.65 16.65,29.42 18.1,42.22z"/>
  <path class="fil1 str0" d="M2598.82 847.67c2.88,-1.52 -0.68,-6.35 12.14,-0.81 16.47,7.13 2,-4.08 9.46,8.44l18.08 14.19 10.06 -23.54 35.26 8.39 -16 -56.25 -50.68 -2.35 -18.32 51.93z"/>
  <path class="fil2" d="M2252.65 1044.66c6.24,6.46 7.45,11.32 9.02,13.67 -21.94,7.31 -28.71,7.14 -16.91,27.94 13.26,-12.08 18.81,-14.32 26.23,-10.55l35.41 0.01c0.43,-49.64 0.72,-51.34 -28.76,-44.22 -24.14,5.83 -22.21,-18.23 -24.99,13.15z"/>
  <path class="fil3" d="M1962.72 2011.98c1.54,-61.94 -45.12,-99 -94.48,-119.95 -18.53,36.29 -10.27,50.85 18.51,73.54 19.56,15.43 46.79,39.8 75.97,46.41z"/>
  <path class="fil4" d="M1973.07 2048.73l37.09 22.18c-32.21,17.18 -26.39,-24.49 -61.78,0.96 9.53,17.57 25.3,23.54 49.53,36.87 16.12,8.88 35.37,20.08 52.78,29.82 29.37,16.43 80.19,52.07 109.77,55.05l8.97 -24.11 -28.82 -21.49 27.03 -5.94c-17.03,-11.33 -11.78,-4.16 -19.98,-22.28 5.95,-0.12 21.43,0.75 25.53,0.37 53.09,-4.87 24.64,-45.36 16.88,-50.71 -27.22,-18.77 -45.75,-10.64 -79,-42.05 -67.53,-63.79 -84.51,-57.77 -138,21.33z"/>
  <path class="fil5" d="M2215.9 2041.49c89.12,-19.64 237.39,-201.49 260.43,-270.85 -115.83,35.42 -70.18,-44.99 -154.09,-40.42 -33.45,48.66 -30.52,157.63 -66.02,243.52 -13.87,33.53 -25.25,43.3 -40.32,67.75z"/>
  <path class="fil5" d="M2109.88 1991.59c39.35,-67.6 -20.46,-79.53 123.25,-193.29 15.12,-11.97 45.74,-33.61 59.12,-48.24 -16.22,-40.63 -39.46,-24.06 -41.63,-85.72 -40.38,25.23 -87.78,88.3 -113.14,133.66 -36.74,65.72 -55.7,112.69 -27.6,193.59z"/>
  <path class="fil6" d="M1383.42 2944.73c36.95,-20.63 98.01,-3.29 126.33,19.07 -8.94,47.42 -17.73,55.47 -73.46,49.45 -40.38,-4.37 -67.35,-26.28 -52.87,-68.52zm53.39 -84.47c12.12,30.6 27.42,37.42 36.42,63.73l-73.97 -11.13c8.93,-19.63 20.13,-41.01 37.55,-52.6zm0.64 -74.39c-8.3,-121.48 274.67,-13.65 136.25,81.73 -24.6,16.95 -31.92,16.14 -55.55,0.7 -26.57,-17.36 -78.53,-50.71 -80.7,-82.43zm114.63 -66.91c140.46,26.9 212.29,102.15 307.38,157.27 58.98,34.18 150.18,64.17 197.12,114.69 24.61,26.48 2.28,64.18 -23.61,106.68 -44.91,73.72 -128.23,97.65 -213.25,34.89l18.82 -31.03c-29.85,-13.46 -59.4,-36.63 -93.09,-54.1 -33.51,-17.38 -69.32,-31.74 -103.12,-49.33 -55.83,-29.05 -148.41,-91.72 -175.77,-130.38 49.23,2.93 51.49,32.7 82.29,31.35 56.73,-2.48 107.14,-83.95 68.79,-130.49 -16.89,-20.48 -49.25,-24.29 -65.56,-49.55zm-30.62 -32.24c5.05,-28.29 27.68,-70.12 47.08,-92.6 18.04,13.01 12.26,13.03 24.88,39.72l73.84 92.69c-21.64,-4.67 -41.88,-17.26 -65.85,-24.28 -25.83,-7.57 -52.22,-9.88 -79.95,-15.53zm243.05 -142.37c-45.67,177.98 -175.78,32.24 -176.51,31.01 -20.86,-35.01 14.94,-87.65 68.11,-80.63 33.8,4.47 85.15,35.47 108.4,49.62zm-46.39 -54.87c77.13,0.18 104.44,69.01 152.66,95.86 43.17,24.03 132.63,70.8 190.46,76.46l-23.1 -22.26c-7.4,-5.8 -15.85,-12.21 -22.69,-16.03 53.74,10.54 66.2,23.46 94.55,59.46 22.98,29.2 62.74,54.06 61.38,102.57 -2.72,96.62 -79.3,155.74 -173.63,117.69 -108.14,-43.61 -357.72,-209.36 -377.22,-276.14 46.06,13.06 139.02,80.78 162.83,-84.52l-65.24 -53.09zm49.29 -80.14c-3.98,-93.27 52.67,-121.68 139.33,-88.76 43.29,16.44 58.91,16.23 54.09,70.4 -12,134.88 -127.47,65.32 -193.42,18.36zm43.35 46.19c59.71,19.3 125.15,65.99 162.22,-2.39 34.23,-63.16 17.23,-116.53 -33.89,-141.2 52.18,7.6 82.65,42.98 128.41,57.76 54.41,17.58 95.67,15.86 147.97,42.56 42.68,21.79 80.06,52.41 66.27,114.3 -7.57,33.99 -34,108.08 -52.26,131.52 -76.22,-2.51 -383.08,-112.37 -418.72,-202.55zm11.21 -374.31c116.05,22.39 221.53,92.38 320.75,134.73l-72.12 125.99c-80.07,-21.51 -127.82,-86.8 -228.98,-58.34 -38.54,10.85 -76.47,31.23 -89.52,62.94 -18.74,45.55 9.21,83.89 19.37,118.05 -149.91,-8.14 -71.83,5.63 -142.01,8.84l192.51 -392.21zm-234.14 11.56c19.5,-10.11 35.95,-25.86 56.97,-38.39 69.69,32.88 50.84,39.64 151.17,36.91l-48.58 91.04c-32.63,-11.12 -139.76,-69 -159.56,-89.56zm559.83 27.01c8.2,18.12 2.95,10.95 19.98,22.28l-27.03 5.94 28.82 21.49 -8.97 24.11c-29.58,-2.98 -80.4,-38.62 -109.77,-55.05 -17.41,-9.74 -36.66,-20.94 -52.78,-29.82 -24.23,-13.33 -40,-19.3 -49.53,-36.87 35.39,-25.45 29.57,16.22 61.78,-0.96l-37.09 -22.18c53.49,-79.1 70.47,-85.12 138,-21.33 33.25,31.41 51.78,23.28 79,42.05 7.76,5.35 36.21,45.84 -16.88,50.71 -4.1,0.38 -19.58,-0.49 -25.53,-0.37zm-184.94 -107.81c-29.18,-6.61 -56.41,-30.98 -75.97,-46.41 -28.78,-22.69 -37.04,-37.25 -18.51,-73.54 49.36,20.95 96.02,58.01 94.48,119.95zm180.55 -16.06c4.95,-106.7 61.93,-145.39 122.52,-185.88 5.14,37.81 -9.25,93.49 -17.43,129.93 -12.14,54.13 -13.02,75.95 -62.9,89.63 21.72,-46.28 42.48,-44.87 32.46,-114.88 -43.24,8.2 -58.08,46.42 -74.65,81.2zm72.63 45.57c15.07,-24.45 26.45,-34.22 40.32,-67.75 35.5,-85.89 32.57,-194.86 66.02,-243.52 83.91,-4.57 38.26,75.84 154.09,40.42 -23.04,69.36 -171.31,251.21 -260.43,270.85zm-106.02 -49.9c-28.1,-80.9 -9.14,-127.87 27.6,-193.59 25.36,-45.36 72.76,-108.43 113.14,-133.66 2.17,61.66 25.41,45.09 41.63,85.72 -13.38,14.63 -44,36.27 -59.12,48.24 -143.71,113.76 -83.9,125.69 -123.25,193.29zm1312.82 -911.61c-26.97,36.96 -443.32,247.16 -545.97,300.62 -53.74,27.98 -55.51,29.88 -69.61,94.95 -14.1,65.04 -40.66,128.6 -85.42,169.35 -23.69,21.57 -28.94,28.88 -48.17,32.68 -28.73,42.34 -186.04,89.42 -239.43,44.37 -55.71,4.06 -149.27,-54.85 -159.26,-84.67 -17.01,-10.95 -10.6,-6.91 -23.98,-23.26 -5.14,-6.27 -11.51,-14.22 -16.57,-21.26 -15.32,-21.32 -17.48,-29.47 -24.08,-55.44 -30.58,-41.03 -32.9,-115.24 -20.43,-170.34 9.38,-41.45 34.94,-118.07 61.09,-138.31 -5.71,-6.81 15.21,-27.24 -21.62,-1.17 -35.26,24.97 -60.56,113.35 -64.69,160.07 -15.97,180.59 102.44,223.19 23.91,308.82 -100.82,109.92 -110.94,108.96 -120.23,260.97 -49.78,7.23 -47.28,8.07 -83.69,18.55 -37.32,-36.94 -47.31,-57.49 -94.13,-90.2 -136.64,-95.48 -117.74,-158.46 -190.42,-179.1 -32.04,-9.1 -53.74,1.35 -76.82,15.53 -26.25,16.13 -30.91,16.66 -59.65,29.08 -22.34,9.66 -35.21,24.57 -57.07,38.07 -59.33,36.65 -241.93,154.42 -289.17,168.41 -89.22,26.4 -271.15,149.23 -348.61,198.36 -112.99,71.67 -287.41,106.01 -421.73,131.25 -146.1,27.46 -301.17,79.73 -446.96,101.11l8.04 39.79c36.44,30.1 103.84,-5.82 144.9,-16.06 191.94,-47.91 521.57,-109.88 692.43,-196.79 80.02,-40.7 143.52,-94.54 214.9,-141.1 77.54,-50.57 164.5,-68.57 239.08,-116.8 73.49,-47.53 141.59,-92.16 217.51,-138.43 64.15,-39.09 158.52,-137.83 235.8,-56.17 172.12,181.87 4.48,150.82 120.27,223.27 -56.45,21.58 -38.48,-8.51 -56.64,69.12 -55.3,13.02 -104.7,14.26 -146.12,-19.23 11.14,-26.16 46.24,-66.01 25.48,-102.07 -22.98,13.12 -22.53,50.13 -33.42,82.62l-42.44 -9.8c8.68,67.85 -21.95,33.62 -69.46,94.29l178.23 98.67c-6.63,33.16 -215.98,471.8 -278.48,524.77 -39.18,33.2 -22.45,41.3 -38.56,95.04 -9.52,31.74 -24.33,67.73 -43.61,91.02 -12.51,-67.33 1.66,-163.66 -53.12,-203.5 0.2,65.77 15.55,127.54 14.08,193.24 -1.38,61.85 -23.28,136.8 -13.3,195.54 26.19,-22.46 18.42,-45.69 36.91,-67.35 42.07,70.11 59.83,84.53 130.26,122.78 61.39,33.33 96.46,95.52 144.93,111.58 -15.72,-30.99 -85.25,-99.29 -112.37,-118.79 -41.68,-29.96 -100.85,-65.47 -113.7,-119.95 26.75,5 60.25,19.86 86.74,11.97 32.21,-9.59 28.9,-37.33 48.43,-59.11 54.37,20.4 125.57,68.5 179.39,99.73 42.36,24.58 63.53,10.57 71.49,35.63 1.78,5.58 2.69,9.3 4.6,15.03 13.04,39.07 23.73,36.84 35.76,60.37 21.26,41.62 -38.67,184.04 -222.42,82.33 -112.9,-62.49 -36.56,-60.27 -202.29,-57.55 -146.53,2.4 -448.06,-189.3 -585.57,-196.73 -160.41,-8.67 -283.81,96.89 -416.46,105.2 -11.95,7.9 -21.37,4.04 -40.52,14.68 -1.24,16.92 83.87,41.37 110.47,38.5l106.59 -33.65c31.32,-16.79 120.16,-47.18 158.45,-50.38 51.7,-20 118.66,5.93 164.97,18.81 23.21,26.38 70.28,33.09 101.74,53.04 37.87,8.8 127.08,23.84 149.27,44.64l104.94 29.3c54.93,5.84 95.4,12.04 152.48,12 88.41,-0.05 73.45,-13.48 123.5,37.27 55.51,56.29 131.17,94.67 242.35,83.91 7.9,-5.03 29.08,-12.55 44.56,-26.7 10.05,-9.17 28.96,-39.12 33.43,-41.84l25.33 -105.11c28.13,-20 42.18,-9.69 75.12,-17.05 30.33,-6.77 45.88,-25.09 67.99,-33.2 17.91,-27.74 45.59,-48.91 58.56,-95.36 19.02,-68.15 -22.18,-62.44 -39.87,-103.45 129.81,-13.89 134.65,-68.48 142,-181.8 2.9,-44.69 -16.34,-38.57 -27.38,-74.18 58.83,0.7 97.61,0.2 119.59,-43.01 16.12,-31.69 27.58,-108.21 22.63,-146.54 -12.79,-99.21 -128.72,-124.26 -183.23,-159.82 5.84,-32.52 45.96,-104.7 62.61,-135.56 28.37,-52.61 37.45,-88.02 58.28,-142.95l32.45 -7.75 42.67 -29.19c17.11,-34.08 38.42,-37.78 62.13,-62.66l98.87 -142.68c18.75,-29.78 27.44,-59.26 63.43,-64.53 146.01,-21.38 238.35,-94.15 275.23,-219.41 47.62,-161.74 -29.98,-76.58 254.31,-235.27 106.49,-59.44 216.3,-111.11 320.81,-172.12 26.05,20.24 81.81,165.8 100.8,210.13 49.07,114.54 63.76,121.84 5.43,236.64 -40.89,80.45 -61.66,140.01 -71.75,240.25 -12.19,120.98 14.56,173.98 37.07,274.84l5.18 7.41c15.17,34.34 9.18,46.34 29.17,112.7 30.8,102.19 -28.4,265.11 -10.56,397.23 2.98,22.12 52.51,127.11 74,219.25 9.37,40.15 18.46,78.73 25.35,119.92 6.56,39.13 -5.17,114 9.77,135.6 19.56,-6.37 14.36,14.18 14,-69.18 -1.12,-168.81 -98.06,-339.26 -96.65,-488.39 0.8,-84.62 29.82,-109.02 21.75,-273.27 -10.3,-209.4 -175.37,-355.88 20.17,-714.34 57.67,-105.72 -91.96,-336.1 -125.36,-425.53 10.77,-6.11 18.12,-9.33 31.26,-18.45l26 -17.29c-9.73,-16.57 16.38,-16.93 -25.19,-1.84 -23.42,8.51 6.14,11.42 -32.76,5.38z"/>
  <path class="fil6" d="M4221.05 1532.19c-12.59,-44.38 14.93,-49.42 39.08,-71.15 23.49,-21.13 27.16,-36.44 62.51,-49.68 -7.99,49.59 -56.95,129.76 -101.59,120.83zm-413.13 -521.71c-2.77,-56.68 94.84,-106.39 149.55,-80.64 1.75,40.26 -13.91,28.81 -71.42,49.24 -29.82,10.59 -47.53,22.95 -78.13,31.4zm156.61 -111.94c28.06,-13.55 83.8,-27.81 117.5,-41.28 36.86,-14.74 69.61,-30.11 106.61,-45.89 77.85,-33.19 141.58,-82.06 233.38,-52.72 95,30.36 380.3,165.42 455.08,163.45 -31.03,-32.72 -79.5,-41.47 -112.63,-68.99 35.09,7.84 103.81,40.52 134.97,57.41 51.53,27.93 82.4,35.62 80.99,108.74 -1.26,65.36 -16.54,295.74 -43.66,336.08 -32.86,-26.89 -192.84,-157.12 -205.94,-185.78 24.02,-11.32 30.61,-15.69 47.31,-37.41 -92.94,6.32 -81.88,-0.86 -161.81,-14.99 -130.05,-22.98 -129.2,-2.18 -262.3,-93.44 -29.36,-20.13 -71.43,-58.07 -103.62,-70.04 -80.21,47.49 -320.07,192.55 -423.12,89.59 21.41,-36.41 51.59,-38.37 102,-52.77 63.59,-18.17 46.85,-37.92 35.24,-91.96zm-273.91 -226.37c-28.49,36.16 -36.02,46.95 -94.53,48.09 -30.28,0.6 -107.35,1.73 -122.75,-18.37 -32.01,-41.76 58.43,-47.41 90.67,-47.72l103.35 6.42c31.08,7.74 12.89,1.39 23.26,11.58zm-223.45 -24.33c-52.39,45.65 -20.99,126.4 2.93,182.79 -67.14,2.74 -107.32,-27.34 -131.33,39.6 -18.4,51.3 -43.62,58.87 -91.01,80.7 -80.73,37.19 -158.24,70.65 -236.99,106.17 -39.68,17.9 -78.01,34.66 -117.63,53.8 -190.78,92.18 -139.12,83.26 -224.61,28.61 -24.31,-15.53 -85.16,-55.57 -120.54,-32.38 143.57,31.66 164.16,106.52 196.3,95.88l412.71 -196.76c57.1,-26.39 153.47,-77.34 216.57,-90.57 25.17,-16.86 35.03,-36.05 76.03,-40.78 17.67,-21.68 35.89,-19.46 54.37,-39.17 -12.98,-25.54 -48.12,-44.09 -38.07,-105.24 124.88,-16.01 208.14,63.39 254.44,-76.18 164.7,9.48 398.12,-17.87 549.84,7.75 58.12,9.81 359.66,126.45 400.03,154.29 -59.34,-11.64 -155.51,-57.09 -218.26,-81.2 -104.44,-40.12 -137.61,-12.68 -225.54,25.11 -37.76,16.24 -284.02,133.96 -312.61,132.99 -57.81,-1.97 -51.04,-40.4 -114.87,3.05l62.06 16.66c-22.68,18.94 -38.33,21.99 -57.65,46.82 -54,69.4 12.11,166.21 133.57,152.68 152.7,-17.01 296.46,-113.8 313.5,-119.1 164.93,100.14 55.22,64.95 277.59,148.48 -33.54,43.44 -75.99,31.44 -117.93,94.26 -38.72,58 -36.98,76.14 -105.18,111.01 -306.31,156.63 -324.13,217.72 -481.83,-116.67 -53.84,-114.17 -41.49,-117.85 -122.98,-201.06 -45.92,-46.88 -30.39,-48.28 -42.91,-62.33l-11.32 2.25c-13.05,13.43 -20.47,15.09 -27.38,41.49 46.71,7.14 113.55,111.9 141.58,168.41 33.84,68.19 66.25,146.25 101.66,209.72 130.42,233.77 239.23,102 392.3,40.28 -148.17,125.69 17.53,173.42 53.71,174.7 107.41,3.79 188.3,-94.23 230.56,-136.82 20.96,20.88 72.16,63.41 107.63,78.23l-17.46 10.7c-96.28,48.08 -101.36,65.42 -130,80 -36.48,18.58 -124.85,12.74 -187.13,41.57 -98.34,45.51 -215.54,196.87 -217.98,241.4 26.5,5.27 23.91,0.42 38.73,-20.23l83.39 -107.49c25.97,-25.63 35.5,-38.68 68.44,-58.67 182.19,-110.58 159.03,21.63 272.01,-96.43 58.06,-60.66 77.26,-57.17 171.6,-82.32 -31.22,-22.97 -70.08,-19.89 -115.8,-56.89 -42.9,-34.72 -38.39,-67.13 -68.96,-94.93 -30.58,22.49 -31.51,57.51 -113.43,120.28 -36.2,27.72 -109.23,74.89 -164.58,37.12 11.8,-47.23 63.68,-61.07 81.9,-107.18 13.64,-34.5 -5.17,-52.43 6.79,-75.7l136.65 -149.39c23.93,-27.25 61.4,-65.16 120.94,-59.05 70.73,7.26 192.38,107.11 237.88,142.32 93.38,72.26 135.55,155.86 159.86,170.31l24.92 8.75c17.38,55.47 -73.46,121.29 -84.21,184.92 -10.1,59.77 -1.13,61.04 -31.47,107.75 -58.58,90.21 -233.53,313.52 -296.96,389.39l-195.82 223.42c-20.09,23.31 -40.27,49.22 -60.13,73.5 -138.96,169.84 -121.6,247.18 -140.91,407.02 25.72,30.67 -3.98,47 38.94,48.72 10.42,-14.75 -4.47,-141.2 -1.15,-178.51 21.16,-109.57 81.23,-200.59 136.99,-268.87 32.57,-39.89 60.07,-75.79 93,-110.32 32.26,-33.82 60.01,-71.42 95.39,-101.81l141.6 -175.97c72.23,-93.73 144.58,-160.37 203.89,-266.24 26.26,-46.88 38.65,-51.03 44.54,-114.45 9.05,-97.38 83.44,-131.1 102.61,-212.16 -15.67,-35.68 -48.38,-68.38 -72.19,-96.31 -39.91,-46.83 -36.61,-46.9 -28.33,-120.98 40.25,-360.09 66.93,-326.76 -168.18,-426.24 -78.34,-33.15 -143.71,-69.07 -217.06,-101.02 -75.95,-33.07 -149.36,-65.2 -226.68,-97.37 -95.83,-39.87 -179.59,-21.97 -294.98,-17.59 -101.64,3.85 -215.25,10.51 -318.13,6.04 -93.8,-4.06 -203.68,-32.54 -287.27,5.44z"/>
  <path class="fil6" d="M1508.16 2160.63c22.55,22.31 47.83,25.96 53.62,60.76 6.59,39.59 -18.1,55.25 -24.01,88.32 36.03,-19.41 76.56,-82.37 27.62,-137.1 -21.25,-23.76 -12.17,-22.63 -22.27,-53.79 -24.54,6.16 -23.74,17.27 -34.96,41.81z"/>
  <path class="fil7" d="M1629.46 2473.43c70.18,-3.21 -7.9,-16.98 142.01,-8.84 -10.16,-34.16 -38.11,-72.5 -19.37,-118.05 13.05,-31.71 50.98,-52.09 89.52,-62.94 101.16,-28.46 148.91,36.83 228.98,58.34l72.12 -125.99c-99.22,-42.35 -204.7,-112.34 -320.75,-134.73l-192.51 392.21z"/>
  <path class="fil8" d="M2274.84 1637.28c9.99,29.82 103.55,88.73 159.26,84.67 24.84,-1.73 54.94,7.13 73.42,-4.93 26.72,-17.82 7.58,-19.62 27.45,-42.68 27.94,-32.42 21.39,11.91 30.6,-32.31 -19.7,-16.32 -35.39,-12.09 -56.47,-7.32 -24.36,-58.33 -19.12,-61.92 -91.72,-78.75 -12.86,-2.97 -29.06,-6.31 -42.2,-5.4 -64.46,4.45 12.23,35.83 -95.04,32.49l-5.3 54.23z"/>
  <path class="fil9" d="M2210.21 1537.32c6.6,25.97 8.76,34.12 24.08,55.44 5.06,7.04 11.43,14.99 16.57,21.26 13.38,16.35 6.97,12.31 23.98,23.26l5.3 -54.23c107.27,3.34 30.58,-28.04 95.04,-32.49 13.14,-0.91 29.34,2.43 42.2,5.4 72.6,16.83 67.36,20.42 91.72,78.75 21.08,-4.77 36.77,-9 56.47,7.32 -9.21,44.22 -2.66,-0.11 -30.6,32.31 -19.87,23.06 -0.73,24.86 -27.45,42.68 -18.48,12.06 -48.58,3.2 -73.42,4.93 53.39,45.05 210.7,-2.03 239.43,-44.37 -22.42,-12.32 -36.52,-32.17 -57.24,-42.13 -54.76,-26.31 -8.17,47.57 -53.5,-14.85 -28.24,-38.9 -73.74,-49.41 -91.29,-98.93 -16.26,8.29 -18.13,15.8 -41.05,14.73 -16.16,-33.49 -19.45,-39.82 9.14,-51.12 -61.06,-8.65 -103.03,16.1 -126,49.36l-26.92 -24.3c-22.17,10.87 -52.27,26.2 -76.46,26.98z"/>
  <path class="fil10" d="M2650.98 1262.09c12.76,-48.35 16.15,-75.13 -21.15,-103.09 -94.75,-71 -192.7,6.17 -101.72,76.26 32.95,25.38 72.27,27.79 122.87,26.83z"/>
  <path class="fil11" d="M4261.97 2745.69c13.86,-13.3 43.33,-81.8 58.98,-106.77 13.52,-21.58 46.03,-79.06 64.05,-97.97 12.16,-25.09 182.76,-250.59 201.18,-257.13l1.17 -19.13c-35.38,30.39 -63.13,67.99 -95.39,101.81 -32.93,34.53 -60.43,70.43 -93,110.32 -55.76,68.28 -115.83,159.3 -136.99,268.87z"/>
  <path class="fil12" d="M2143.27 1995.92c16.57,-34.78 31.41,-73 74.65,-81.2 10.02,70.01 -10.74,68.6 -32.46,114.88 49.88,-13.68 50.76,-35.5 62.9,-89.63 8.18,-36.44 22.57,-92.12 17.43,-129.93 -60.59,40.49 -117.57,79.18 -122.52,185.88z"/>
  <path class="fil13" d="M2308.91 946.35c10.32,17.31 3.09,8 21.05,8.28l2.14 -24.29 -19.7 0.06 -3.49 15.95z"/>
  <path class="fil14" d="M2521.81 930.12c13.9,-18.65 16.13,-15.54 -6.35,-24.31 -17.83,19.1 -11.29,16.58 6.35,24.31z"/>
  <path class="fil15" d="M2463.76 862.31c-15.32,-9.08 -11.15,3.29 -13.36,4.46 8.04,9.67 -23.23,11.33 22.2,14.94 -3.44,-20.65 7.34,-9.81 -8.84,-19.4z"/>
  <path class="fil1 str0" d="M2382.68 272.52c8.35,-44.23 -15.22,-117.22 -50.42,-110.91 65.7,74.77 30.75,80.04 50.42,110.91z"/>
  <path class="fil16 str1" d="M2868.69 290.41c6.33,-23.85 0.76,-63.08 -7.75,-88.9l-7.37 -25.77c-0.66,-1.05 -0.1,-1.78 -0.04,-2.66 38.24,-7.81 104.34,14.53 140.18,60.68 34.89,44.91 39.13,104.19 29.1,141.07 -22.56,-1.57 -35.3,-17.64 -53.8,-10.49 16.83,14.33 113.96,32.3 126.59,131.15 8.76,68.57 -14.36,102.82 -85.34,153.05 -28.21,-23.78 -37.99,-37.39 -71.26,-53.36 -60.93,-29.26 -48.26,6.05 -66.22,-26.03 33.97,-26.27 41.34,-65.25 17.76,-96.42 -29.79,-39.39 -64.28,-32.76 -93.98,-35.4 71.69,-74.59 59.46,-101.77 73.74,-131.32 71.9,53.09 72.83,95.99 52.43,159.63 25.34,-27.83 27.55,-67.19 20.99,-94.24 -15.06,-62.09 -58.72,-70.22 -75.03,-80.99zm-736.96 543.14c32.25,26.73 37.92,46.64 80.36,68.21 55.91,28.42 116.45,28.98 167.16,-10.26 39.95,-30.92 39.85,-37.11 84.01,-45.83 19.55,-0.98 45.82,2.65 67.4,22.6 51.61,47.7 -19.42,80.31 1.14,132.66 4.75,12.1 13.62,24.12 25.52,32.13 10.01,6.74 24.29,11.16 35.84,8.67 -1.33,-14.41 -8.82,-25.05 2.98,-39.17 26.79,-32.05 75.82,-0.6 119.18,-46.18 -9.6,0.53 -1.5,-1.48 -11.64,4.66 -27.25,16.52 -37.44,21.64 -71.3,20.74 -61.65,-1.65 -53.96,31.56 -59.52,53.95 -75.14,-45.89 -25.55,-83.94 -15.72,-122.4 12.96,-50.74 -51.94,-83.27 -92,-82.88 -89.37,0.86 -113.78,132.04 -259.82,51.53 -133.81,-73.77 -101.25,-275.36 18.74,-266.21 36.12,2.76 24.65,18.71 49.48,47.32 35.29,40.68 93.3,58.97 126.88,42.86 -21.57,-8.43 -44.61,-7.17 -69.91,-19.03 -48.15,-22.58 -82.34,-85.34 -75.03,-135.64 4.44,-30.58 21.07,-48.09 26.86,-72.79 -44.67,52.76 -34.73,92.24 -37.38,128.77 -0.06,0.82 -0.29,2.24 -0.35,2.92 -0.06,0.69 -0.24,1.98 -0.41,2.96 -67.47,-31.59 -93.18,27.8 -118.09,44.01 -37.06,24.12 -149.62,-17.53 -178,-118.55 -13.36,-47.55 -7.89,-117.64 38.75,-165.51 39.06,-40.1 95,-56.16 145.23,-42.18 15.49,4.31 10.38,8.21 22.44,1.47 -2.29,-14.41 -12.75,-27.34 -15.13,-43.29 -16.66,-111.38 159.33,-195.52 239.81,-150.99 -9.97,17.2 -17.67,46.64 -37.2,51.32 -85.71,20.51 -137.91,93.19 -106.82,152.3l0.98 -21.61c-0.74,-60.67 36.19,-101.04 95.15,-117.25 56.3,-15.47 110.5,-0.16 165.61,56.15 -3.15,-13.08 -16.64,-26.1 -26.92,-34.95 -10.96,-9.44 -21.49,-15.97 -34.93,-22.08 -32.72,-14.9 -47.47,-10.09 -69.77,-17.1 111.97,-257.52 480.19,-168.97 488.51,74.67 4.59,134.34 -89.39,161.06 -108.47,198.86 12.79,18.53 38.12,-2.81 56.33,-5.08 43.18,-5.39 91.51,21.02 86.05,68.23 -4.23,36.51 -25.96,29.43 -44.19,48.85 14.88,12.9 3.8,-1.52 17.27,9.59 10.68,8.82 3.19,5.44 11.83,17.29 31.37,-5.9 45.81,-4.06 78.5,16.26 79.67,49.53 115.09,151.07 79.81,234.29 -55.76,131.54 -212.7,145.8 -298.55,63.07 32.25,-17.62 43.9,33.22 111.42,34.44 35.93,0.65 81.77,-7.96 117.74,-44.27 -41.72,13.19 -112.07,72.9 -192,-1.91 37.62,-26.21 69.72,-43.99 86.42,-87.37 -21.88,13.68 -35.72,45.87 -78.51,66.8 -58.93,28.82 -118.93,23.63 -168.83,-19.57 -35.29,-30.55 -40.76,-53.88 -46.91,-87.37 -13.64,26.81 5.76,68.07 33.14,95.63 27.79,27.97 63.97,41.13 93.07,42.84 38.62,2.27 38.3,28.32 91.9,51.87 103.92,45.67 221.28,-6.17 263.52,-108.59 41.9,-101.59 -9.91,-151.34 -21.25,-191.35 64.58,-36.95 85.62,-69.45 93.4,-130.48 6.5,-51.1 -21.15,-99.96 -75.34,-145.1 2.7,-43.32 24.99,-88.49 -32.57,-160.56 -31.12,-38.97 -74.65,-58.62 -120.33,-66.36l-36.06 1.53c-0.8,0.11 -2.22,0.26 -2.87,0.35 -0.67,0.08 -1.94,0.27 -2.91,0.33 -96.53,-159.56 -278.95,-186.95 -406.18,-89.08 -25.48,19.6 -37.01,39.94 -57.07,57.75 -138.05,-44.68 -256.81,44.86 -260.98,142.89 -0.93,22.05 5.51,28.3 6.51,46.11 -51.65,0.54 -91.99,0.82 -137.86,37.49 -86.45,69.13 -84.29,194.96 -9.57,271.58 20.17,20.68 43.09,34.35 67.2,42.46 30.37,10.22 41.45,4.43 67.66,7.81 0.71,34.29 -22.33,51.14 -1.11,113.47 4.87,14.33 16.29,28.79 17.7,41.3z"/>
  <path class="fil16 str1" d="M2569.32 1014.73c75.97,-10.49 -59.73,8.24 0,0z"/>
  <path class="fil16 str1" d="M2632.06 1117.06c-22.4,-19.19 -66.33,-15.69 -91.54,-9.42l-6.93 -2.04 -7.38 3.54 -18.54 12.69 9.05 10.56 40.24 12.91c-11.62,3.56 2.16,2.88 -16.54,2.02 -8.9,-0.41 -8.05,-1.64 -15.28,-3.46 -9.71,-8.42 -27.2,-5.59 -25.07,-31.12 19.48,-23.05 46.59,-19.37 71.63,-19.3 29.14,0.08 49.2,-7.39 76.3,22.64l-15.94 0.98z"/>
 </g>
</svg>
