<?xml version="1.0" encoding="UTF-8"?>
<!DOCTYPE svg PUBLIC "-//W3C//DTD SVG 1.1//EN" "http://www.w3.org/Graphics/SVG/1.1/DTD/svg11.dtd">
<!-- Creator: CorelDRAW 2017 -->
<svg xmlns="http://www.w3.org/2000/svg" xml:space="preserve" width="50.7998mm" height="33.8666mm" version="1.1" style="shape-rendering:geometricPrecision; text-rendering:geometricPrecision; image-rendering:optimizeQuality; fill-rule:evenodd; clip-rule:evenodd"
viewBox="0 0 5079.98 3386.66"
 xmlns:xlink="http://www.w3.org/1999/xlink">
 <defs>
  <style type="text/css">
   <![CDATA[
    .str0 {stroke:#3E4095;stroke-width:20;stroke-miterlimit:22.9256}
    .fil0 {fill:none}
    .fil1 {fill:#3E4095}
   ]]>
  </style>
 </defs>
 <g id="Capa_x0020_1">
  <metadata id="CorelCorpID_0Corel-Layer"/>
  <rect class="fil0" x="-0" width="5079.99" height="3386.66"/>
  <g id="_2254132037488">
   <g>
    <path class="fil1" d="M1700.27 2222.27l27.53 128.94c-12.21,-14.82 -21.2,-46.17 -29.39,-67.35 -11.01,-28.46 -14.84,-40.62 1.86,-61.59zm-73.57 47.98l49.13 -9.03 51.96 129.06 -101.09 -120.03zm-8.95 -15.21c0.52,-18.07 1.61,-68.61 6.98,-81.19 26.37,7.36 35.15,40.9 46.08,73.37 -15.57,6.63 -35.79,5.43 -53.06,7.82zm236.35 85.65c-2.14,-18.77 8.9,-146.89 13.13,-166.23 3.77,-6.03 32.48,-12 39.54,-13.09 -12.41,59.72 -38.93,120.51 -52.67,179.32zm-19.61 -1.71l-40.3 -206.83c12.51,2.96 18.44,7.77 28.38,16.31 10.57,9.09 16.2,12.13 28.05,19.01l-16.13 171.51zm-173.83 -158.86l32.68 7.38 -15.51 51.15 -17.17 -58.53zm211.46 -58.03c11.74,1.93 30.17,6.86 37.8,14.06l-38.61 10.58 0.81 -24.64zm-230.56 49.96c-7.72,-0.59 1.38,4.3 -8.89,-1.66 -13.24,-7.69 -0.35,1.75 -8.5,-9.23l18.2 -8.32 -0.81 19.21zm196.94 -79.25c7.29,10.66 14.73,12.88 15.04,27.59 0.13,6.47 -1.76,26.27 -6.04,33.13 -15.23,-8.06 -36.55,-26.54 -50.12,-39.8l41.12 -20.92zm51.03 5.87c-23.81,8.02 -27.16,7.88 -39.02,-11.35l26.29 -4.32 12.73 15.67zm26.08 208.73c-13.27,-45.76 -16.33,-49.82 -5.59,-91.98 4.85,-19.04 22.02,-66.71 14.4,-82.96 -18.11,-38.59 -28.15,-18.5 -30.24,-75.82 -1.23,-33.69 -3.21,-66.68 -3.88,-100.07 10.7,2.6 79.81,35.64 90.26,43.84 -0.08,17.89 -58.38,294.17 -64.95,306.99zm-314.3 -68.68c-14.45,-22.39 -44.3,-102.8 -57.48,-134.09 -14.7,-34.92 -22.87,-37.06 -6.9,-62.63 8.98,-14.38 22.77,-38.1 37.72,-51.19l26.66 247.91zm19.97 106.83c-9.85,-7.67 -206.93,-267.1 -216.71,-285.5 11.26,0.98 91.67,11.1 97.01,14.04 8.91,4.91 113.04,246.14 119.7,271.46zm316.71 -48.47c3.71,-34.35 47.28,-201.33 59.06,-256.66 4.59,-21.54 3.63,-30.49 20.44,-44.12 22.98,-18.63 55.76,-47.37 78.72,-60.91l-146 340.04c-1.83,3.98 -3.18,6.94 -5.33,10.86 -1.19,2.18 -2.46,4.23 -3.89,6.51 -0.3,0.47 -1.11,2.66 -1.48,2.14 -0.38,-0.51 -0.97,1.46 -1.52,2.14zm-510.29 -320.06l48.16 10.32 26.97 67.98 -100.93 -10.5 25.8 -67.8zm586.72 -3.87c1.63,-18.8 7.64,-41.5 12.06,-60.87 3.67,-16.05 7.76,-47.14 15.07,-57.56 13.5,10.35 51.23,43.89 60.68,56.87l-87.81 61.56zm-464.7 16.66c-10.38,11.81 -26.35,39.51 -39.47,45.49l-22.21 -56.5 74.83 -7.61c-3.52,9.48 -0.47,3.6 -6.56,11.5 -2.43,3.16 -3.82,3.97 -6.59,7.12zm337.95 -50.9c4.38,-14.09 88.32,-131.26 101.44,-147.87 4.36,4.33 22.24,37.43 25.87,45.14 9.26,19.7 -25.33,143.76 -29.03,150.05 -24.98,-9.81 -83.6,-44.26 -98.28,-47.32zm-409.34 -10.77c9.29,4.84 13.4,4.82 22.77,14.06l-26.05 25.54c-8.9,-1.25 -10.3,-2.04 -18.02,-5.04l-15.36 -8.4 36.66 -26.16zm546.41 -91.31l-22.62 -50.71c17.36,-0.45 39.79,-0.17 53.07,5.57 -6.38,14.12 -14.43,29.45 -30.45,45.14zm-474.65 -92.08l120.84 15.15c7.67,44.63 89.88,517.71 90.22,551.72l-211.06 -566.87zm258.76 -71.18l-6.5 344.63c-1.54,102.31 3.85,71.9 -23.09,96.74l3.93 105.05c0.37,5.6 3.35,28.93 -2.63,33.04l-85.57 -497.63 113.86 -81.83zm-126.27 -67.17c13.86,1.5 67.15,21.81 85.19,28.43 5.16,1.89 8.42,3.02 13.82,5.39l12.54 7.08 -102.24 78.35 -9.31 -119.25zm-131.69 120.24c8.15,-24.15 63.52,-114.77 68.14,-136.98 17.36,1.93 27.03,10.36 42.88,14.98l5.82 131.34 -116.84 -9.34zm132.66 -162.64c-2.57,8.8 -9.28,19.4 -12.67,28.99 -14.62,-3.79 -21.78,-8.47 -32.21,-16.08l44.88 -12.91zm-40.88 575.57c-10.56,-1.2 -4.13,2.52 -10.07,-7.56l-54.89 -167.18c-7.77,-11.36 -74.62,-41.3 -92.6,-46.75 -20.8,-6.3 -30.54,11.86 -43.92,24.87 -17.48,16.99 -17.87,20.74 -26.8,42.47 -28.56,69.55 -33.68,49.84 -4.06,98.15l147.91 238.82c18.59,29.85 8.95,23.22 39.44,35.18 16.02,6.29 35.89,16.19 53.24,18.85 0.21,-12.64 2.26,-25.25 6.95,-34.82 44.69,37.39 19.79,65.52 79.83,61.09 5.42,-16.08 12.99,-34.26 7.05,-55.85 38.99,2.71 20.9,17.38 60.91,-3.51 12.74,7.22 19.48,20 32.52,28.7 11.93,-5.82 26.01,-13.59 37.19,-20.28 20.32,-12.15 9.61,-13.05 15.77,-35.53 7.78,4.62 23.13,13.66 32.95,18.03 15.92,-13.07 63.06,-61.67 70.75,-82.93l63.28 -174.22c17.15,-47.17 33.35,-93.06 50.56,-139.46 13.75,-37.08 4.09,-38.83 -11.28,-77.95 -10.65,-27.1 -20.42,-52.94 -31.86,-80.13 -113.69,-5.46 -49.4,-29.95 -178.16,137.32 -21.08,27.38 -14.06,53.32 -16.36,110.87 -0.42,10.52 -0.14,19.31 -0.6,29.3 -0.84,18.28 -2.22,14.5 -20.19,19.1 -8.69,-105.39 -13.48,-213 -19.75,-317.83 -6.21,-103.89 4.04,-100.25 -38.38,-133.04l-96.07 -78.21c-17.75,4.49 -69.89,19.71 -80.08,31.43l-68.4 127.06c-21.32,37.71 -16.26,29.63 -1.61,80.06l98.87 342.67c0.05,1.29 6.22,-4.71 -2.14,11.28z"/>
    <path class="fil1" d="M2473.16 958.75c12.23,-64.8 -22.29,-171.72 -73.86,-162.48 96.24,109.54 45.05,117.25 73.86,162.48z"/>
    <path class="fil1" d="M3185.16 984.96c9.27,-34.95 1.11,-92.41 -11.36,-130.23l-10.79 -37.76c-0.97,-1.54 -0.15,-2.61 -0.07,-3.91 56.03,-11.42 152.86,21.3 205.37,88.9 51.1,65.8 57.33,152.64 42.63,206.67 -33.05,-2.3 -51.71,-25.84 -78.82,-15.36 24.66,20.98 166.95,47.32 185.45,192.12 12.83,100.47 -21.04,150.63 -125.01,224.22 -41.34,-34.84 -55.67,-54.77 -104.4,-78.17 -89.27,-42.87 -70.7,8.87 -97.01,-38.14 49.76,-38.49 60.55,-95.58 26.02,-141.24 -43.64,-57.71 -94.17,-48.01 -137.69,-51.87 105.03,-109.28 87.11,-149.09 108.03,-192.38 105.34,77.78 106.7,140.63 76.82,233.85 37.11,-40.77 40.36,-98.43 30.75,-138.06 -22.06,-90.96 -86.03,-102.86 -109.92,-118.64zm-1079.64 795.68c47.26,39.17 55.56,68.33 117.73,99.94 81.9,41.63 170.6,42.46 244.89,-15.03 58.53,-45.3 58.38,-54.37 123.06,-67.14 28.65,-1.44 67.14,3.87 98.75,33.1 75.6,69.87 -28.45,117.65 1.67,194.35 6.96,17.72 19.94,35.33 37.38,47.06 14.66,9.87 35.59,16.35 52.51,12.71 -1.96,-21.12 -12.93,-36.71 4.37,-57.39 39.24,-46.96 111.07,-0.87 174.59,-67.65 -14.06,0.78 -2.19,-2.17 -17.05,6.83 -39.92,24.2 -54.86,31.7 -104.45,30.38 -90.32,-2.42 -79.06,46.24 -87.19,79.03 -110.08,-67.22 -37.44,-122.97 -23.05,-179.3 19,-74.34 -76.08,-122 -134.76,-121.43 -130.93,1.27 -166.69,193.45 -380.64,75.49 -196.02,-108.07 -148.32,-403.39 27.45,-389.98 52.91,4.03 36.12,27.41 72.49,69.32 51.71,59.59 136.69,86.39 185.87,62.78 -31.6,-12.34 -65.35,-10.5 -102.4,-27.87 -70.54,-33.08 -120.63,-125.02 -109.92,-198.71 6.5,-44.8 30.86,-70.46 39.34,-106.64 -65.43,77.29 -50.88,135.13 -54.76,188.64 -0.09,1.2 -0.42,3.3 -0.51,4.29 -0.09,1 -0.35,2.9 -0.6,4.34 -98.84,-46.29 -136.51,40.72 -173,64.47 -54.29,35.32 -219.19,-25.69 -260.77,-173.68 -19.57,-69.66 -11.55,-172.34 56.77,-242.47 57.23,-58.74 139.18,-82.27 212.76,-61.8 22.7,6.32 15.21,12.04 32.87,2.17 -3.36,-21.12 -18.67,-40.05 -22.16,-63.42 -24.41,-163.17 233.42,-286.44 351.32,-221.2 -14.61,25.19 -25.89,68.33 -54.5,75.17 -125.56,30.05 -202.03,136.53 -156.49,223.12l1.44 -31.66c-1.09,-88.88 53.01,-148.02 139.39,-171.76 82.48,-22.67 161.88,-0.24 242.61,82.25 -4.61,-19.15 -24.38,-38.23 -39.44,-51.2 -16.05,-13.82 -31.47,-23.39 -51.16,-32.35 -47.94,-21.82 -69.55,-14.77 -102.22,-25.04 164.04,-377.27 703.48,-247.54 715.67,109.39 6.72,196.8 -130.97,235.95 -158.91,291.33 18.73,27.14 55.84,-4.12 82.52,-7.45 63.25,-7.89 134.05,30.8 126.05,99.95 -6.19,53.5 -38.03,43.13 -64.73,71.57 21.8,18.9 5.57,-2.22 25.29,14.06 15.66,12.92 4.68,7.96 17.33,25.32 45.96,-8.65 67.12,-5.94 115.01,23.82 116.72,72.56 168.61,221.31 116.92,343.23 -81.69,192.7 -311.6,213.6 -437.37,92.4 47.26,-25.81 64.31,48.67 163.23,50.45 52.63,0.95 119.79,-11.66 172.49,-64.85 -61.12,19.32 -164.18,106.79 -281.28,-2.8 55.11,-38.39 102.14,-64.44 126.6,-127.99 -32.04,20.04 -52.33,67.2 -115.01,97.86 -86.33,42.21 -174.23,34.61 -247.34,-28.68 -51.69,-44.74 -59.71,-78.93 -68.71,-127.99 -19.99,39.27 8.43,99.71 48.55,140.09 40.71,40.98 93.71,60.26 136.34,62.77 56.58,3.32 56.11,41.48 134.64,75.99 152.23,66.89 324.16,-9.04 386.05,-159.09 61.38,-148.82 -14.52,-221.71 -31.14,-280.32 94.61,-54.14 125.44,-101.75 136.83,-191.16 9.53,-74.86 -30.98,-146.43 -110.36,-212.57 3.95,-63.45 36.6,-129.62 -47.72,-235.21 -45.59,-57.09 -109.36,-85.88 -176.28,-97.21l-52.83 2.24c-1.17,0.16 -3.25,0.38 -4.21,0.51 -0.98,0.12 -2.84,0.39 -4.27,0.49 -141.4,-233.77 -408.64,-273.88 -595.04,-130.51 -37.33,28.72 -54.21,58.51 -83.6,84.61 -202.24,-65.47 -376.22,65.71 -382.33,209.32 -1.37,32.32 8.06,41.46 9.53,67.56 -75.67,0.79 -134.77,1.2 -201.95,54.92 -126.66,101.27 -123.49,285.61 -14.03,397.85 29.55,30.3 63.13,50.32 98.45,62.21 44.49,14.97 60.72,6.5 99.12,11.45 1.04,50.22 -32.72,74.91 -1.63,166.23 7.14,20.99 23.86,42.16 25.93,60.49z"/>
    <path class="fil1" d="M2068.71 2457.84l23.15 -8.41c-37.77,12.93 -47.23,-6.33 -78.37,9.37 -6.07,-14.32 -2.71,-13.39 -10.18,0.25 -15.59,-9.77 1.26,-13.67 -20.73,-0.15 -18.87,-10.68 2.96,-8.1 -14.7,1.43l-19.47 -7.76c-13.57,-4.03 -3.21,-0.18 -19.26,-4.44l193.09 -36.52c15.71,-1.73 22.76,-1.92 40.33,-3.7 33.22,-3.38 55.98,-10.06 79.67,-6.28 -38.14,75.71 -89.84,57.27 -173.53,56.21zm117.71 17.58c-2.34,0.26 -8.25,1.58 -9.74,1.54 -17.31,-0.46 -3,2.65 -20.71,-2.75 33.07,-10.38 36.64,-9.76 30.45,1.21zm-272.22 -14.67c1.84,-8.76 3.36,-7.8 3.44,-18.5 0.16,-22.47 1.61,-5.97 -3.2,-19.74l-13.61 48.88 1.9 -25.27c0.21,-1.44 0.73,-3.49 0.94,-4.95 0.21,-1.44 0.7,-3.48 0.88,-4.93l0.37 -50.28c14.31,7.13 14.23,10.96 17.87,30.96l0.39 25.62c-0.34,1.39 -1.11,3.45 -1.56,4.75 -0.96,2.76 -5.84,10.98 -7.42,13.46zm-25.62 21.98l-16.09 -21.64 -1.11 -19.97 11.72 24.64 6.83 -35c0.37,1.6 -0.16,2.91 0.94,4.84 1.09,1.9 0.68,3.85 0.7,4.79l-2.99 42.34zm-18.55 -38.73l-2.12 8.41 2.12 -8.41zm91.21 24.53l-19.38 0.88c1.63,-0.96 2.98,-4.15 5.02,-2.7 1.83,1.3 4,-1.38 4.95,-1.28l9.41 3.1zm35.22 -1.5l-19.68 0.27c19.4,-10.37 5.97,-7.74 19.68,-0.27zm59 -9.06l-32.86 4.6 32.86 -4.6zm50.76 21.29l-40.57 -1.15c-1.29,0.04 -3.83,0.29 -5.75,0.24 21.96,-3.85 27.51,-10.07 46.32,0.91zm35.43 -1.61c-17.53,6.39 -7.99,4.59 -21.2,-1.33l16.62 -1.91c1.1,0.33 3.11,2.09 4.58,3.24z"/>
    <path class="fil1" d="M1811.48 2457.87l-6.83 34.99 -11.72 -24.64c8.7,-28.37 -2.04,-16.12 -2.21,-47.72l7.39 -46.4c18.21,26.59 11.65,56.31 13.37,83.77z"/>
    <path class="fil1" d="M2755.75 2274.05c13.93,2.01 22.76,2.39 33.5,5.56 -45.54,9.79 -110.7,-3.92 -135.33,-29.31 23.53,7.79 47.05,15.57 70.58,23.36l31.25 0.39z"/>
    <path class="fil1" d="M2769.67 2317.54l21.21 -7.71c-34.6,11.84 -43.26,-5.79 -71.78,8.59 -5.56,-13.13 -2.48,-12.27 -9.33,0.22 -14.28,-8.95 1.16,-12.52 -18.98,-0.13 -17.28,-9.79 2.71,-7.43 -13.47,1.31l-17.83 -7.11c-12.44,-3.69 -2.94,-0.16 -17.64,-4.07l119.48 -8.75c44.1,13.2 133.31,-14.71 167.29,-33.84 -34.94,69.35 -82.29,52.45 -158.95,51.49zm107.83 16.1c-2.15,0.23 -7.56,1.45 -8.93,1.41 -15.86,-0.43 -2.74,2.42 -18.97,-2.52 30.3,-9.51 33.56,-8.94 27.9,1.11zm-249.35 -13.44c1.69,-8.02 3.08,-7.14 3.15,-16.94 0.15,-20.58 1.47,-5.47 -2.93,-18.09l-12.47 44.78 1.75 -23.15c0.19,-1.32 0.67,-3.2 0.86,-4.53 0.19,-1.33 0.64,-3.19 0.8,-4.52l0.34 -46.05c13.11,6.53 13.04,10.04 16.37,28.35l0.36 23.47c-0.31,1.27 -1.02,3.16 -1.44,4.35 -0.87,2.53 -5.34,10.06 -6.79,12.33zm-23.46 20.14l-14.74 -19.82 -1.02 -18.3 10.73 22.57 6.26 -32.05c0.35,1.46 -0.15,2.66 0.87,4.43 0.99,1.73 0.62,3.52 0.64,4.38l-2.74 38.79zm-17 -35.48l-1.94 7.7 1.94 -7.7zm83.55 22.47l-17.75 0.81c1.49,-0.89 2.73,-3.81 4.6,-2.48 1.67,1.19 3.66,-1.26 4.53,-1.17l8.62 2.84zm32.26 -1.37l-18.02 0.24c17.76,-9.49 5.46,-7.09 18.02,-0.24zm54.04 -8.3l-30.09 4.21 30.09 -4.21zm46.49 19.49l-37.16 -1.05c-1.18,0.03 -3.51,0.27 -5.26,0.22 20.11,-3.53 25.19,-9.22 42.42,0.83zm32.46 -1.47c-16.06,5.85 -7.32,4.21 -19.42,-1.22l15.23 -1.75c1,0.3 2.84,1.91 4.19,2.97z"/>
    <path class="fil1" d="M2905.93 2532.15l-17.3 -17.23 34.43 -35.18 24 7.19c-17.96,23.37 -14.9,25.01 -41.13,45.22z"/>
    <path class="fil1" d="M2876.14 2492.18c21.21,-14.97 16.79,-28.15 37.29,-16.19 -3.59,15.84 -18.61,22.89 -31.01,28.34l-6.28 -12.15z"/>
    <path class="fil1" d="M2746.59 2046.07c111.29,-15.37 -87.51,12.08 0,0z"/>
    <path class="fil1" d="M2838.5 2195.99c-32.82,-28.12 -97.18,-22.99 -134.11,-13.81l-10.16 -2.98 -10.8 5.18 -27.16 18.59 13.26 15.47 58.95 18.92c-17.02,5.2 3.16,4.22 -24.23,2.95 -13.04,-0.6 -11.8,-2.4 -22.39,-5.06 -14.22,-12.33 -39.84,-8.2 -36.72,-45.6 28.53,-33.76 68.25,-28.37 104.92,-28.27 42.7,0.11 72.09,-10.82 111.79,33.16l-23.35 1.45z"/>
    <path class="fil1" d="M2682.89 2215.47c32.81,28.11 97.17,22.99 134.11,13.8l10.15 2.98 10.81 -5.17 27.15 -18.59 -13.25 -15.47 -58.96 -18.92c17.02,-5.21 -3.16,-4.22 24.23,-2.96 13.04,0.61 11.8,2.41 22.39,5.07 14.23,12.33 39.85,8.19 36.72,45.6 -28.53,33.76 -68.24,28.37 -104.92,28.27 -42.7,-0.12 -72.09,10.82 -111.79,-33.17l23.36 -1.44z"/>
    <path class="fil1" d="M2779.85 2618.95c-11.93,17.03 -39.06,14.14 -56.74,14.13 -37.18,-0.01 -69.58,2.28 -107.63,-9.43l-24.73 -18.37c-35.93,-28.16 -59.67,-71.27 -73.13,-119.46l16.32 -5.34c27.57,58.44 37.75,81.91 86.1,125.62 49.73,19.97 112.3,21.22 162.26,3.28l-2.45 9.57zm-350.83 -277.81c29.94,-64.85 48.41,53.97 93.65,-46.19 6.42,-12.82 10.02,-24.03 16.55,-37.44 35.3,-72.58 113.58,-113.68 176.17,-124.38 81.81,-13.98 164.54,18.29 221.03,83.81 21.82,25.31 25.82,47.66 29.69,78.06 6.81,53.48 9.88,98.13 5.58,151.98 -2.63,33.06 -8.71,45.25 -30.75,73.38 -39,49.79 -90.55,80.93 -151.83,88.07 -20.54,5.71 -36.61,9.24 -50.74,11.06l12.71 14.86c34.91,-1.38 62.03,-4.11 65.43,-4.98 37.76,-8.23 71.75,-25.71 100.45,-49.43l6.78 -5.81c43.23,-38.36 73.41,-91.21 84.8,-147.43 10.86,-53.59 4.3,-117.27 -26.73,-173.38 -43.92,-79.42 -78.95,-85.2 -142.53,-119.96 -3.71,-2.03 -5.74,-3.67 -9.25,-5.21l-22.47 -5.82c-5.24,0.65 -8.31,0.33 -13.5,3.03 -14.6,-23.37 -99.75,4.76 -191.87,45.38 -19.77,12.31 -96.14,119.2 -107.96,141.7 -11.65,22.21 -56.03,-15.91 -70.32,9.86 -2.19,3.96 -4.17,9.25 -6.03,15.35l11.14 3.49zm-445.59 1.26l-0.92 -3.69c-6.9,3.58 -14.89,8.43 -22.05,14.41 -11.5,-19.22 9.45,-8 -80.82,-3.12 -106.13,5.73 -34.03,0.7 -82.96,-8.24 -34.76,33.91 -24.86,57.63 -23.6,92.6 1.09,30.04 -2.05,62.74 26.5,85.02 12.43,5.57 133,-30.46 181.87,-13.92 21.96,-3.86 27.51,-10.07 46.32,0.9l14.24 -2.94 16.62 -1.91c1.09,0.33 3.1,2.09 4.57,3.24l14.32 -3.43c33.08,-10.39 36.64,-9.76 30.46,1.21l313.36 -23.17 1.3 2.04c4.36,-3.14 54.86,-10.43 59.93,-10.55 22.24,4.83 33.85,11.76 39.35,19.93l12.02 -10.3c-0.1,-0.85 -0.23,-1.71 -0.37,-2.6 -11.18,-18.98 -26.1,-22.22 -43.35,-22.08 -51.69,0.4 -27.9,13.68 -42.1,-2.91 -8.22,7.31 -2.71,7.27 -13.9,8.38 -3.93,0.39 -7.08,0.31 -10.35,1.04l-0.69 5.22 -57.59 9.03 1.93 -6.46 -220.9 7.93c-94.65,-13.01 -26.86,32.79 -156.36,6.92l-13.25 0.13 -32.85 4.59c-8.83,6.65 -5.53,7.11 -9.12,-3.76 -9.07,12.78 -6.03,15.42 -10.18,0.24l-6.85 7.99 -19.67 0.26c-18.03,11.11 1.11,-19.31 -15.54,1.24l-19.39 0.88c-25.55,5.81 -4.61,5.68 -27.66,-8.67 1.84,-8.75 3.36,-7.79 3.44,-18.49 0.16,-22.47 1.61,-5.98 -3.2,-19.75l-13.61 48.88 -12.25 11.35 -16.08 -21.64 -4.59 -8.69 2.12 -8.41c-8.7,-29.95 -14.95,-82.49 7.02,-110.26 95.22,9.58 20.36,5.62 106.24,0.67l19.31 -0.37 16.1 -1.25 20.95 -4.08c5.22,6.86 1.57,5.69 2.11,12.77 8.58,-6.19 15.77,-5.71 24.65,-6.77 9.05,-1.08 15.34,-1.8 24.32,-2.51 31.62,-2.52 7.48,0.42 21.72,1.6 0.86,0.07 20.16,-3.69 23.12,-4.21l180.77 -7.39c23.12,0.52 13.36,-1.79 28.26,0.35 5.48,0.79 6.33,1.32 11.97,2.73 11.51,-7.33 2.07,-4.51 17.92,-6.57 19.35,-2.5 39.13,-6.62 60.1,-9.14 21.73,-2.62 35.67,-0.36 51.15,0.56l0.79 -2.64 9.56 2.99 0.26 0 3.25 -9.36c-14.06,-3.57 -32.46,-11.42 -39.13,-9.98 -8.43,1.81 -15.9,3.39 -22.31,4.71l-52.17 0.39c-13.41,-0.08 -6.02,-0.43 -17.9,1.63 -22.98,3.97 -42.15,3.87 -68.2,5.42 -31.51,1.87 -180.56,11.67 -205.3,10.26 -23.07,-3.8 -11.57,-0.39 -32.71,1.75z"/>
    <path class="fil1" d="M1549.01 2731.09c-5.57,7.27 -15.66,14.74 -22.28,22.46 -12.27,-8.81 -17.26,-15.77 -24.24,-26.62l46.52 4.16z"/>
   </g>
   <circle class="fil0 str0" cx="2539.99" cy="1693.33" r="1443.96"/>
   <circle class="fil0 str0" cx="2539.99" cy="1693.33" r="1552.59"/>
  </g>
 </g>
</svg>
