<?xml version="1.0" encoding="UTF-8"?>
<!DOCTYPE svg PUBLIC "-//W3C//DTD SVG 1.1//EN" "http://www.w3.org/Graphics/SVG/1.1/DTD/svg11.dtd">
<!-- Creator: CorelDRAW 2017 -->
<svg xmlns="http://www.w3.org/2000/svg" xml:space="preserve" width="50.7998mm" height="33.8666mm" version="1.1" style="shape-rendering:geometricPrecision; text-rendering:geometricPrecision; image-rendering:optimizeQuality; fill-rule:evenodd; clip-rule:evenodd"
viewBox="0 0 5079.98 3386.66"
 xmlns:xlink="http://www.w3.org/1999/xlink">
 <defs>
  <style type="text/css">
   <![CDATA[
    .fil0 {fill:none}
    .fil5 {fill:#FEFEFE}
    .fil4 {fill:#FEFEFE}
    .fil1 {fill:black}
    .fil2 {fill:#FEFEFE}
    .fil3 {fill:black;fill-rule:nonzero}
   ]]>
  </style>
 </defs>
 <g id="Capa_x0020_1">
  <metadata id="CorelCorpID_0Corel-Layer"/>
  <rect class="fil0" x="-0" width="5079.99" height="3386.66"/>
  <g id="_2254354064720">
   <path class="fil1" d="M1476.53 1365.59l-40.64 1286.39c18.84,142.13 -103.72,332.42 2.24,450.05 43.12,47.84 117.13,70.31 207.68,60.38 129.11,-14.17 86.63,-78.73 215.25,-2.72l176.21 2.83 1249.45 4.27 -74.53 -209.98c34.7,-126.23 50.98,-103.29 11.67,-292.11l-158.23 -135.54 631.05 -994.78 -85.85 -411.98 -243.09 -57.53 -459.41 349.35 179.9 -776.4 -369.29 -417.94 -309.83 94.54 -341.44 423.3 27.4 530.92 -262.84 -202.75 -355.7 299.7z"/>
   <path class="fil2" d="M1679.23 2599.3c-200.53,22.27 -180.88,207.19 -202.77,265.18 -99.85,264.55 165.91,314.04 305.52,169.81 61.23,34 46.86,56.26 147.35,77.09l140.58 -25.01c44.73,-2.48 57.55,42.59 236.98,16.56l147.87 3.6 723.76 4.48 -42.21 -163.36c27.44,-66.44 86.77,-137.51 27.63,-260.68 -46,-95.77 -192.34,-77.53 -300.92,-77.78 -108.3,-0.25 -672.19,13.11 -725.42,-11.57l-458.37 1.68z"/>
   <path class="fil3" d="M1733.01 3016.51c-17.84,6.78 -34.8,11.91 -51.01,15.27 -16.21,3.35 -31.59,4.95 -46.19,4.86 -38.63,-0.21 -66.27,-15.17 -83.32,-44.65 -8.54,-14.79 -14.72,-33.5 -18.21,-56.17 -3.49,-22.68 -4.21,-49.38 -2.7,-79.97 1.46,-29.3 4.8,-54.59 10.45,-75.77 5.66,-21.13 13.61,-38.28 23.55,-51.4 19.84,-26.2 50.31,-39.34 91.78,-39.21 15.1,0.04 30.31,1.65 45.4,4.72 15.12,3.07 30.47,7.72 45.59,13.83 -0.92,18.68 -1.88,37.42 -2.8,56.07 -0.91,18.61 -1.85,37.34 -2.79,56.03 -13.39,-2.57 -25.39,-4.56 -35.64,-5.86 -10.42,-1.32 -19.32,-1.93 -26.92,-1.96 -17.97,-0.07 -30.76,4 -38.46,12.2 -7.72,8.21 -11.94,22.24 -12.91,42.12 -1.02,20.58 1.95,35.65 9.2,45.15 7.21,9.46 19.33,14.33 36.18,14.4 9.21,0.03 18.98,-0.91 29.72,-2.91 10.44,-1.94 21.87,-4.88 34.15,-8.76 -0.85,17.04 -1.71,34.05 -2.53,51.04 -0.84,16.98 -1.68,33.95 -2.54,50.97zm135.96 -163.41c6.36,0.03 12.88,0.08 19.24,0.1 14.77,0.07 25.13,-2.69 31.4,-8.24 6.18,-5.47 9.52,-14.89 10.16,-28.06 0.55,-11.26 -1.63,-19.17 -6.62,-23.8 -4.86,-4.51 -14.61,-6.84 -29.06,-6.91 -7.15,-0.02 -14.47,-0.05 -21.78,-0.09 -1.11,22.32 -2.24,44.68 -3.34,67zm-101.08 175.04c2.73,-54.87 5.47,-109.78 8.19,-164.64 2.73,-54.89 5.45,-109.77 8.19,-164.68 54.2,0.22 108.9,0.44 163.27,0.62 28.11,0.1 48.45,7.59 60.73,22.42 12.3,14.87 17.81,38.28 16.23,70.12 -1.54,31.25 -8.44,55.16 -20.42,71.64 -12.05,16.56 -29.1,25.54 -51.12,27.07 11.73,23.18 23.41,46.37 35.04,69.48 11.66,23.16 23.63,46.3 35.34,69.48 -36.08,-0.22 -72.16,-0.42 -108.24,-0.64 -10.98,-25.53 -22.04,-50.9 -32.78,-76.51 -3.18,-7.6 -5.9,-15.56 -8.52,-23.56 -2.62,-8.04 -4.92,-16.33 -7.05,-24.87 -0.79,0 -1.43,0 -2.06,0 0.25,7.68 0.25,15.82 0.06,24.48 -0.18,8.71 -0.6,21.21 -1.39,37.54 -1.02,20.86 -2.06,41.71 -3.1,62.6 -30.85,-0.19 -61.53,-0.37 -92.37,-0.55zm279.77 1.64c2.74,-54.96 5.49,-109.97 8.21,-164.93 2.72,-54.98 5.45,-109.98 8.19,-164.97 31.63,0.12 63.43,0.23 95.07,0.33 -2.74,55.05 -5.47,110.08 -8.21,165.09 -2.72,55.01 -5.45,110.04 -8.19,165.05 -31.63,-0.18 -63.43,-0.37 -95.07,-0.57zm139.51 -4.13c1.39,-28.14 2.79,-56.24 4.2,-84.35 15.87,3.39 30.39,5.96 43.96,7.62 13.58,1.68 25.97,2.54 37.09,2.59 12.07,0.07 20.28,-1.43 24.87,-4.48 4.45,-2.96 6.95,-8.39 7.32,-16.18 0.67,-13.61 -9.63,-20.91 -31.06,-21.5 -9.35,-0.25 -16.68,-0.47 -22.21,-0.95 -14.09,-1.25 -24.48,-3.53 -31.14,-6.9 -6.65,-3.38 -12.34,-8.41 -16.9,-15.27 -5.47,-8.23 -9.3,-19.09 -11.73,-32.51 -2.42,-13.43 -3.01,-29.05 -2.12,-47.02 1.03,-20.7 3.83,-38.4 8.53,-53.15 4.71,-14.75 11.34,-26.57 19.72,-35.38 16.76,-17.67 44.25,-26.48 82.08,-26.35 12.7,0.05 26.98,1.11 42.64,2.94 15.94,1.88 34.74,4.73 56.81,8.73 -0.84,16.73 -1.68,33.53 -2.5,50.22 -0.82,16.72 -1.66,33.5 -2.5,50.22 -14.17,-2.89 -26.62,-5.02 -37.36,-6.33 -10.74,-1.31 -20.27,-1.95 -28.85,-1.98 -19.23,-0.1 -31.87,1.41 -37.59,4.48 -5.71,3.07 -8.89,9.1 -9.33,18.02 -0.34,6.78 1.51,11.72 5.47,14.77 3.83,2.97 10.59,4.5 20.29,4.53 4.28,0.02 8.74,0.05 13.19,0.07 30.98,0.14 52.01,7.1 63.05,21.05 10.94,13.81 15.57,38.54 13.81,74.05 -1.88,38.2 -11.21,65.77 -27.64,82.56 -16.56,16.9 -42.61,25.22 -78.03,25.02 -13.36,-0.07 -28.72,-1.38 -46.26,-3.78 -17.5,-2.4 -36.58,-6.01 -57.81,-10.74zm289.39 6.68c1.83,-36.74 3.64,-73.47 5.45,-110.19 1.82,-36.72 3.65,-73.46 5.48,-110.21 -21.15,-0.1 -42.3,-0.2 -63.42,-0.3 0.9,-18.38 1.83,-36.77 2.73,-55.16 0.91,-18.4 1.83,-36.82 2.75,-55.25 73.76,0.27 147.85,0.54 222.08,0.82 -0.91,18.45 -1.83,36.92 -2.73,55.33 -0.91,18.41 -1.83,36.84 -2.76,55.25 -21.31,-0.1 -42.44,-0.18 -63.75,-0.29 -1.83,36.79 -3.66,73.56 -5.47,110.31 -1.82,36.74 -3.64,73.51 -5.46,110.26 -31.8,-0.18 -63.43,-0.38 -94.9,-0.57zm146.56 0.86c14.01,-55.12 28.38,-110.28 42.39,-165.41 14.01,-55.13 28.53,-110.34 42.73,-165.54 46.57,0.17 93.15,0.34 139.57,0.52 8.71,55.34 17.51,110.72 26.12,166.01 8.62,55.33 17.55,110.71 26.43,166.06 -32.74,-0.18 -65.34,-0.38 -98.09,-0.59 -1.51,-17.53 -3.02,-35.07 -4.55,-52.66 -23.04,-0.13 -45.93,-0.25 -68.82,-0.37 -3.73,17.54 -7.47,35.04 -11.2,52.55 -31.63,-0.19 -63.1,-0.37 -94.58,-0.57zm168.1 -132.03c-3.35,-25.49 -6.59,-51 -9.88,-76.51 -1.63,-12.58 -2.92,-24.78 -3.91,-36.5 -1.01,-11.85 -1.41,-22.92 -1.53,-33.36 -0.95,0 -1.74,0 -2.53,0 -1.56,12.07 -3.49,23.91 -5.59,35.76 -2.08,11.77 -4.55,23.7 -7.35,35.6 -5.86,24.92 -11.53,49.86 -17.22,74.78 16.06,0.08 31.95,0.15 48.01,0.23zm130.92 133.81c2.72,-55.3 5.47,-110.63 8.21,-165.93 2.73,-55.3 5.5,-110.61 8.24,-165.94 31.8,0.1 63.58,0.22 95.55,0.34 -1.88,37.42 -3.74,74.84 -5.58,112.23 -1.85,37.38 -3.71,74.79 -5.56,112.18 31.63,0.15 63.27,0.31 95.07,0.48 -0.89,17.99 -1.81,35.95 -2.68,53.89 -0.88,17.94 -1.78,35.91 -2.66,53.87 -63.75,-0.39 -127.34,-0.76 -190.59,-1.12z"/>
   <path class="fil4" d="M2287.03 2150.4l-7.46 366.39c-23.63,-47.85 -28.03,-138.41 -36.73,-200.92 -11.7,-84.02 -14.35,-119.36 44.19,-165.47zm-229.6 83.06l138.69 6.8 58.46 317.15 -197.15 -323.95zm-14.53 -46.84c12.89,-48.59 47.97,-184.66 70.48,-215.27 66.67,36.68 69.11,133 78.05,227.83 -46.33,8.03 -100.29,-8.05 -148.53,-12.56zm585 316.88c6.13,-52.16 117.58,-326.72 141.3,-376.38 14.03,-13.91 95.51,-11.82 115.31,-10.29 -71.51,153.73 -182.05,236.27 -256.61,386.67zm-51.99 -17.1l22.55 -520.18c31.95,15.95 44.95,32.73 66.42,62.16 22.84,31.31 36.14,43.13 63.83,69.27l-152.8 388.75zm-369.29 -475.26l83.75 40.74 -74.5 128.58 -9.25 -169.32zm609.1 -22.63c30.54,12.69 77.29,37.74 93.36,62.08l-111.22 4.08 17.86 -66.16zm-655.65 -11.35c-20.51,-6.5 0.99,12.53 -23,-10.13 -30.96,-29.24 -2.06,4.52 -17.13,-30.39l54.53 -10.93 -14.4 51.45zm583.29 -89.27c12.96,33.48 31.69,44.21 23.16,84.22 -3.74,17.58 -21.46,69.96 -37.38,85.81 -36.1,-31.5 -82.05,-95.04 -110.35,-139.56l124.57 -30.47zm134.37 48.33c-69.55,6.56 -78.52,4.06 -98.38,-55.52l73.88 5.02 24.5 50.5zm-62.11 581.4c-6.82,-132.26 -12.51,-145.2 43.34,-252.47 25.22,-48.44 101.99,-166.52 91.69,-215.33 -24.47,-115.93 -64.41,-67.95 -33.64,-224.38 18.09,-91.95 33.7,-182.5 53.13,-273.28 27.28,13.84 193.3,147.17 216.36,176 -11.58,48.37 -344.93,758.94 -370.88,789.46zm-806.85 -385.62c-24.86,-69.77 -54.54,-306.33 -70.3,-399.39 -17.6,-103.83 -38.34,-114.83 21.13,-173.87 33.44,-33.2 85.81,-88.63 134.61,-114.55l-85.44 687.81zm-13.86 301.78c-21.77,-27.02 -390.21,-854.31 -404.97,-910.31 29.84,9.79 241.02,88.3 253.6,99.66 20.99,18.94 149.44,737.9 151.37,810.65zm887.83 70.13c31.89,-90.58 255.9,-514.75 322.96,-656.98 26.1,-55.38 29.21,-80.21 83.37,-106.41 74.01,-35.81 180.97,-92.74 251.71,-114.79l-611.21 827.35c-7.46,9.61 -13.01,16.78 -21.32,26.03 -4.6,5.12 -9.35,9.86 -14.66,15.13 -1.11,1.1 -4.69,6.48 -5.37,4.86 -0.69,-1.64 -3.55,3.34 -5.48,4.81zm-1177.44 -1190.44l123.77 58.54 29.77 201.11 -266.43 -92.56 112.89 -167.09zm1590.17 362.47c16.36,-49.85 47.03,-107.46 71.32,-157.06 20.13,-41.11 50.95,-122.65 77.35,-146.19 29.97,36.58 110.75,151.32 128.06,192.47l-276.73 110.78zm-1268.1 -250.29c-35.6,25.35 -96.4,90.16 -135.72,97.99l-24.2 -166.98 207.35 26.97c-15.54,23.39 -3.57,9.43 -25.07,26.95 -8.59,7 -12.87,8.3 -22.36,15.07zm946.87 77.05c20.8,-35.35 322.41,-299.05 368.48,-335.65 9.05,14.49 36.39,115.42 41.3,138.58 12.56,59.19 -159.92,372.93 -173.93,387.58 -61.34,-42.4 -198.08,-172.89 -235.85,-190.51zm-1100.87 -289.31c22.06,19.01 33.22,21.56 52.69,52.52l-86.73 52.55c-23.28,-9.03 -26.57,-12.06 -45.54,-25.1l-36.25 -32.47 115.83 -47.5zm1536.67 100.21l-28.98 -151.61c47.24,9.82 107.76,24.84 140.06,48.8 -26.24,34.16 -57.77,70.51 -111.08,102.81zm-1225.91 -550.87l317.37 117.81c-7.62,125.65 -85.82,1458.06 -106.54,1550.32l-210.83 -1668.13zm745.47 -28.13l-236.63 928.45c-69.2,275.88 -35.3,197 -123.99,247.09l-56.13 286.77c-2.55,15.39 -9.32,80.42 -28.12,87.75l84.75 -1401 360.12 -149.06zm-299.02 -262.04c36.57,12.87 167.85,101.69 212.48,131.08 12.75,8.39 20.87,13.52 33.95,23.36l29.43 27.15 -326.46 147.01 50.6 -328.6zm-432.77 241.69c37.4,-60.18 244.84,-270.21 271.44,-327.37 45.75,16.26 66.57,45.22 106.52,67.79l-67.73 359.11 -310.23 -99.53zm462.36 -355.8c-12.54,22.17 -37.44,46.59 -52.71,70.38 -37.17,-19.53 -53.57,-36.76 -76.96,-63.98l129.67 -6.4zm-476.46 1531.54c-27.8,-9.97 -12.78,4.19 -22.43,-26.87l-42.29 -487.29c-13.81,-35.69 -175.66,-159.18 -220.85,-185.35 -52.29,-30.27 -90.2,12.69 -134.67,39.38 -58.09,34.86 -61.54,44.76 -99.51,97.9 -121.48,170.05 -122.84,113.46 -73.38,263.01l248.47 740.26c31.31,92.59 9.46,68.54 84.36,120.29 39.36,27.19 86.83,66.6 132.09,84.82 8.61,-34.07 22.17,-66.89 40.93,-89.8 97.17,129.59 11.79,124.78 177.08,150.94 24.88,-40.06 57.05,-19.34 54.7,-81.53 103.79,32.11 45.37,-4.79 166.92,-35.9 29.88,27.65 40.01,66.51 69.76,98.34 35.99,-8.16 79.03,-20.24 113.54,-31.23 62.7,-19.97 34.43,35.88 65.38,-21.04 18.13,17.45 53.9,51.69 77.72,69.73 51.37,-25.23 209.83,-126.79 244.15,-179.43l281.98 -431.22c76.38,-116.75 149.39,-230.64 225.44,-345.25 60.78,-91.6 35.76,-102.48 19.02,-218.11 -11.59,-80.11 -21.62,-156.24 -35.29,-237.1 -304.17,-87.04 -114.64,-112.44 -569.39,258.36 -74.44,60.69 -71.93,135.34 -114.73,289.64 -7.83,28.19 -12.65,52.15 -20.24,78.89 -13.89,48.95 -15.23,37.84 -66.78,38.85 43.48,-290.72 98.91,-584.94 148.57,-872.6 49.21,-285.09 74.65,-268.71 -19.3,-384.4l-210.28 -272.73c-50.88,0.88 -201.64,8.93 -236.67,34.16l-265.85 300.37c-81.66,88.49 -62.83,69.84 -55.23,215.62l49.74 990.12c-0.67,3.53 19.84,-8.78 -12.96,29.17z"/>
   <polygon class="fil5" points="1463.68,1771.83 1767.82,2258.46 1878.5,2481.43 1977.34,2555.28 1684.63,2536.02 1383.31,2586.06 "/>
  </g>
 </g>
</svg>
