<?xml version="1.0" encoding="UTF-8"?>
<!DOCTYPE svg PUBLIC "-//W3C//DTD SVG 1.1//EN" "http://www.w3.org/Graphics/SVG/1.1/DTD/svg11.dtd">
<!-- Creator: CorelDRAW 2017 -->
<svg xmlns="http://www.w3.org/2000/svg" xml:space="preserve" width="50.7998mm" height="33.8666mm" version="1.1" style="shape-rendering:geometricPrecision; text-rendering:geometricPrecision; image-rendering:optimizeQuality; fill-rule:evenodd; clip-rule:evenodd"
viewBox="0 0 5079.98 3386.66"
 xmlns:xlink="http://www.w3.org/1999/xlink">
 <defs>
  <style type="text/css">
   <![CDATA[
    .fil1 {fill:black}
    .fil2 {fill:#0D0D0D}
    .fil0 {fill:white}
   ]]>
  </style>
 </defs>
 <g id="Capa_x0020_1">
  <metadata id="CorelCorpID_0Corel-Layer"/>
  <path class="fil0" d="M3086.16 1759.07c25.42,0 69.98,-15.36 92.84,-23.04 136.77,-46.02 104.25,-15.48 199.4,-32.36 37.23,-6.61 55.4,-12.89 55.4,-55.21l15.81 0c0,29.8 -1.58,40.46 -19.84,53.91 -13.96,10.29 -30.91,14.56 -53.91,14.56 9.35,19.48 -4.74,93.19 -9.56,106.32l-13.27 28.87c-55.27,118.51 -162.5,92.28 -212.14,26.05 -17.7,-23.62 -38.09,-65.55 -38.93,-103.3 -31.83,-0.71 -55.44,-12.08 -57.94,-42.13 30.02,2.49 29.09,26.33 42.14,26.33zm142.22 -184.36c0,-17.53 79.01,-26.54 79.01,5.27 0,18.36 -79.01,27.15 -79.01,-5.27zm-537.27 -110.61c0,-24.24 7.51,-65.12 13.81,-86.27 25.63,-86.11 134.68,-180.61 205.38,-96.04 75.54,90.35 81.25,263.92 -1.11,352.98 -7.2,7.78 -0.29,2.11 -8.57,7.24 -52.32,32.46 -138.11,22.81 -179.74,-49.66 -18.72,-32.61 -29.77,-79.4 -29.77,-128.25zm705.82 -121.15c0,-98.8 67.56,-203.23 145.71,-150.97 56.64,37.87 88.57,196.91 60,272.4l-23.1 34.84c-20.29,24.95 -25.78,43.89 -71.99,43.89 -37.82,0 -71.94,-41.18 -83.69,-69.06 -16.87,-40.01 -26.93,-76.92 -26.93,-131.1zm-1470.96 -525.35c-27.59,-28.32 -91.08,-117.83 -109.03,-149.07 -11.87,-20.67 -52.88,-90.03 -52.88,-115.68 0,-32.37 77.93,6.24 119.61,22.61 209.43,82.23 494.79,207.19 658.64,363.23 26.8,25.52 70.08,49.85 80.33,88.22 -29.28,6.82 -14.23,4.65 -19.51,20.24 -5.47,16.13 -17,17.45 -29.55,30.79 -42.37,45.04 -25.85,10.53 -43.58,56.49 -7.54,19.55 -13.32,30.52 -17.98,50.5 -47.91,0 -149.6,-45.28 -198,-65.36l-162.44 -95.66c-44.57,-33.76 -48.97,-32.75 -93.82,-74.73l-131.79 -131.58zm559.72 462.14c-23.77,11 -47.41,-41.12 -47.41,136.96 0,198.34 80.1,362.5 180.39,462.22 104.83,104.23 303.35,196.19 451.69,196.19 114.34,0 168.23,2.51 276.96,-39.07 92.59,-35.41 232.03,-112.04 289.8,-189.54 70.56,-94.67 88.2,-192.16 58.12,-306.73 0,-0.01 -3.29,-11.7 -3.49,-12.3 -9.94,-29.26 -14.52,-26.55 -8.2,-66.37 5.22,-32.92 3.09,-138.25 3.09,-176.09 0,-121.6 -51.02,-221.7 -100.08,-294.97l27.53 -25.14c-20.04,-1.2 -68.49,-6.11 -80.21,-11.73 14.36,-21.44 28.48,-18.22 42.14,-36.87 -14.25,0 -97.34,-6.7 -105.34,-10.54 6.91,-10.32 2.64,-5.7 12.76,-13.57l18.84 -12.76 -89.55 -21.07 0 -15.8 31.61 0c-10.71,-14.62 -59.13,-31.42 -75.34,-33.77 -15.25,-2.2 -8.52,4.39 -24.74,-3.1 15.67,-23.41 17.58,-9.57 36.87,-26.34 -27.97,0 -30.45,-5.32 -52.67,-5.32 -44.77,0 -25.84,12.44 -79.01,0.05 3.81,-14.26 -1.9,-9.25 22.23,-25.17 8.77,-5.79 1.74,0.2 9.37,-6.43 -41.92,0 -69.46,-0.07 -105.24,5.4 -69.75,10.68 -59.57,20.41 -31.71,-21.21 -97.86,22.8 -67.87,32.34 -166.5,54.74 -199.09,45.21 -242.63,100.79 -275.96,108.55 6.54,24.47 8.3,4.66 10.54,31.61 -21.56,-1.8 -17.59,-3.09 -29.58,-17.83l-74.98 -67.24c-214.75,-168.66 -560.24,-263.92 -821.83,-347.51 -43.26,-13.83 -109.75,-28.33 -148.15,-46.75 0,37.47 42.08,116.84 62.13,148.57 140.6,222.61 288.12,392.99 510.94,542.52 72.03,48.34 126.31,77.06 205.02,111.02 23.83,10.28 56.79,17.42 69.96,35.39z"/>
  <path class="fil0" d="M1527.03 947.9c-29.95,0 -100.5,-50.08 -131.68,-52.67l6.51 294.94c0.21,46.15 -87.6,-28.34 -103.56,-39.88 -20.27,-14.66 -85.62,-66.03 -103.11,-70.7 -5.62,67.52 -79.58,166.77 -84.28,184.35 -26.48,-0.59 -51.82,-35.03 -57.94,-57.94l-10.53 0c-4.85,20.8 -28,63.03 -39.94,81.21 -22.21,33.82 -27.68,44.54 -60.14,66.28 -16.12,-4.31 -24.65,-12.88 -36.87,-21.07 0.75,34.01 20.61,136.89 28.52,176.9 11.39,57.65 27.44,109.62 45.97,159.46 52.63,141.53 136.99,272.43 258.78,362.76l94.35 58.4c14.09,6.69 23.16,10.51 35.83,16.84 85.9,42.94 231.01,68.41 358.25,68.41 44.6,0 67.02,-5.27 110.61,-5.27 1.04,-46.62 53.03,-182.32 71.45,-228.78 44.89,-113.25 158.84,-289.75 258.07,-347.68 41.41,-24.18 33.57,-53.11 136.28,-127.08l24.06 -18.08c-25.5,0 -63.9,17.12 -71.41,2.74 -10.13,-19.38 24.76,-28.04 47.34,-37.35l124.15 -60.2c0,-38.05 2.58,-59.29 15.81,-84.28 -51.09,-4.25 -192.35,-90.13 -244.47,-124.24 -106.58,-69.74 -142.9,-106.35 -228.18,-187.95l-47.4 -47.41c-69.82,-72.96 -57.44,-79.49 -137.27,-99.76l-215.07 -64.09c-22.92,-7.64 -51.03,-19.83 -70.47,-24.35l33.87 176.91c4.3,21.6 15.79,49.58 -7.53,49.58z"/>
  <path class="fil1" d="M2701.64 2659.78c-9.98,2.4 -8.7,1.28 -15.8,5.27 -2.8,33.67 -14.2,78.91 -20.63,111.06 -24.39,121.96 -82.9,413.43 -174.06,479.09 -63.45,45.69 -130.21,23.5 -99.78,-31.14 14.72,-26.44 22.51,-7.1 25.84,-37.54 -43.5,3.62 -47.41,48.46 -47.41,84.28 -50.6,0 -82.64,-1.97 -107.03,-29.96 -11.31,-12.98 -18.03,-32.83 -9.4,-49.1 12.02,-22.64 23.51,-7.67 32.16,-31.56 -29.72,-13.74 -63.62,34.69 -47.41,68.48 -34.33,-8 -50.86,-23.89 -40.28,-71.73 13.5,-61.02 73.5,-52.11 82.38,-260.15 5.46,-127.93 52.71,-325.67 52.71,-405.55 22.48,32.35 13.57,63.21 68.48,63.21 17.18,-32.47 25.92,-74.13 66.39,-107.43 15.39,-12.67 35.18,-19.69 54.76,-24.25 1.46,17.6 6.92,44.91 12.21,61.52 7.22,22.67 8.12,32.73 29.92,38.55 10.19,-21.21 14.03,-53.63 27.89,-82.73l14.25 -22.61c0,74.19 19.84,141.23 57.89,194.94 11.23,15.85 26.89,32.37 36.92,47.35zm758.5 -121.14c24.76,-2.06 51.53,-36.12 64.38,-56.77 8.59,-13.8 14.85,-25.9 21.51,-41.7 6.19,-14.7 8.77,-30.22 14.87,-43.08 7.49,-15.79 46.46,-34.11 98.35,-112.33l11.58 -14.76 5.3 168.53c3.12,57.84 -1.3,246.54 51.22,296.43 48.57,46.15 101.28,151.58 11.96,172.39 14.21,-29.62 -6.68,-76.38 -26.34,-89.54 -12.11,26.18 52.11,81.71 -17.05,114.62 -20.75,9.88 -39.23,6.52 -67.23,6.52 2.53,-10.81 29.03,-65.82 -10.53,-94.81 -8.86,19.17 5.27,29.51 5.27,57.94 0,26.45 -34.31,59.73 -92.79,24.32 -125.43,-75.98 -104.58,-199.59 -160.04,-282.42 19.03,-13.94 71.04,-109.8 73.74,-142.21 4.09,5.88 0.83,-0.02 5.55,10.24l10.25 26.63zm15.8 -547.81c35.07,-9.36 112.7,-73.03 138.27,-98.75 37.72,-37.93 80.58,-88.08 93.5,-143.54 88.88,59.51 100.07,136.96 100.07,247.56 -15.52,-11.37 -23.39,-37.78 -36.22,-42.93 -27.52,-11.04 4.62,22.31 4.62,42.93 0,71.73 -14.61,168.61 -52.51,221.39 -6.4,8.9 -10.89,14.34 -19.76,22.94 -41.54,40.33 -15.28,-24.58 -12.58,-39.49 3.86,-21.3 9.11,-39.57 0.57,-57.35 -16.5,12.09 -8.58,7.23 -12.95,34.45 -6.68,41.67 -12.39,60.94 -30.88,95.54 -16.69,31.23 -52.57,71.14 -82.58,91.24 0,-125.1 -6.07,-193.87 -49.59,-298.06l-39.96 -75.93zm-1843.56 658.42c0,-57.92 4.61,-130.45 10.52,-184.37 6.41,-58.63 18.53,-109.25 43.65,-151.24 25.58,-42.76 57.92,-68.35 100.72,-94.17 12.54,-7.56 23.14,-12.21 34.91,-17.77 18.08,-8.54 20.87,-8.22 26.92,-20.48 5.35,-10.81 15.12,-59.69 19.67,-75.14 15.81,-53.77 29.74,-95.4 49.54,-145.36 44.74,-112.91 104.51,-210.2 189.44,-295.14 15.74,-15.74 28.58,-37.38 51.36,-43.46 -61.11,115.49 31.12,22.05 57.94,15.8 -10.18,21.23 -27.12,75.32 -30.59,101.09 -5.07,37.66 -2.48,21.65 -22.1,46.38 -26.39,33.26 -94.81,146.93 -81.23,172.02 11.28,20.82 22.17,-5.43 33.84,-13.98 -3.81,16.34 -14.8,41.89 -20.43,58.58 -48.26,142.97 -26.97,212.9 -26.97,320.67 37.7,-3.14 46.65,-79.19 89.54,-110.62 -8.41,101.03 -102.31,153.24 -110.61,184.36 18.39,4.28 17.73,10.53 36.87,10.53 107.88,0 83.26,-11.37 147.48,-26.33 -7.3,31.36 -19.86,46.86 -29.16,81.45 -6.25,23.22 -1.78,22.26 -19.58,33.09 -54.1,32.91 -156.54,38.21 -230.43,38.21 -3.06,11.49 -45.39,78.29 -67.93,142.83 -23.99,68.68 15.26,54.57 15.26,167.94 0,49.86 -19.16,73.75 -68.47,73.75 8.99,-13.44 50.85,-70.55 10.53,-100.08 -12.45,25.95 0,10.09 0,36.87 0,79.76 -76.2,54.66 -100.08,52.67 2.75,-10.28 45.13,-57.58 5.27,-84.28 -11.88,25.69 0,2.52 0,31.61 0,40.87 -51.71,65.85 -95.89,11.61 -17.13,-21.03 -15.21,-28.26 -14.81,-64.2 0.63,-56.03 -5.18,-94.54 -5.18,-152.84zm521.39 -821.78c37.69,-57.13 87.58,-110.82 143,-151.96 32.52,-24.14 77.42,-46.93 83.57,-63.92 -22.77,-10.53 -118.91,69.35 -138.37,88.12 -14.65,14.11 -24.65,27.53 -40.72,38.29 23.23,-99.73 71.19,-153.81 12.27,-120.03 -16.77,9.61 -28.41,17.04 -43.87,25.22 7.35,-31.57 61.88,-97.58 81.16,-113.72 20.11,-16.84 34.38,-30.04 54.96,-45.13 32.96,-24.16 46.11,-21.09 48.23,-46.58 -26.47,0 -23.58,-4.73 -47.4,-5.26 6.56,-5.71 1.96,-2.62 12.27,-8.8l103.61 -43.88c0,183.1 50.16,375.53 167.21,491.21 38.38,37.93 67.94,72.66 117.22,98.74 -8.09,12.09 -24.62,29.91 -35.68,43.32 -73.23,88.77 -148.67,266.07 -148.67,393.86 -36.95,8.61 -64.71,20.35 -85.25,46.44 -15.93,20.22 -38.58,54.07 -41.17,85.25 -27.45,-2.29 -35.13,-23.38 -43.76,-45.79 -9.86,-25.63 -8.91,-42.16 -8.91,-75.36 -37.82,3.14 -26.19,39.86 -126.42,63.21 0.55,-24.66 18.98,-60.12 27.78,-82.84 21.58,-55.73 36.96,-39.78 45.96,-64.65 -23.45,-10.84 -18.2,13.84 -90.18,41.5 -41.96,16.12 -68.89,16.44 -125.78,16.44 5.31,-19.89 19.64,-26.99 33.04,-40.7 28.44,-29.12 67.04,-98.55 67.04,-143.65 0,-0.61 -9.4,-18.93 -10.53,-21.07 -58.49,39.16 -51.62,91.35 -84.28,100.07 0,-124.38 11.29,-306.66 88.65,-401.21 14.11,-17.24 25.15,-16.24 27.23,-41.24 -27.75,2.31 -16.3,6.74 -49.44,40.1 -12.27,12.34 -29.99,36.76 -40.1,44.18 2.79,-33.58 31.99,-76.9 47.33,-100.16zm-1253.55 -658.34c0,-23.69 4.02,-28.97 8.27,-49.67 37.56,-182.96 74.69,-420.05 142.9,-594.53 9.88,-25.29 28.2,-56.04 33.19,-77.42 28.35,7.57 40.75,36.74 59.19,56.69 87.3,94.45 202.65,153.64 319.68,201.78 20.44,8.41 20.77,9.78 25.76,32.18l32.55 193.94c-18.89,-4.4 -31.72,-13.14 -47.38,-21.09 -16.24,-8.23 -30.37,-13.5 -47.36,-21.12 -77.24,-34.65 -42.21,-68.75 -42.21,300.31l-145.23 -102.33c-9.61,-7.25 -15.03,-12.09 -23.75,-18.39 -17.61,-12.7 -1.93,-8.97 -25.91,-10.96l-37.51 99.44c-7.41,18.45 -37.99,74.63 -52.03,84.91 -11.5,-7.7 -43.44,-48.35 -47.41,-63.2 -26.04,6.95 -32.16,40.88 -54.38,82.56 -27.1,50.85 -41.69,53.74 -56.23,75.45 -15.68,-8.29 -17.61,-14.19 -36.87,-15.8 0,-30.05 -5.27,-36.43 -5.27,-68.47l0 -84.28zm2517.78 -363.44c-32.62,-2.72 -30.02,-9.44 -31.6,-10.54 12.01,-2.8 12.11,-4.08 26.33,-5.27 2.72,10.23 0.97,8.15 5.27,15.81zm-1890.97 142.21c23.32,0 11.83,-27.98 7.53,-49.58l-33.87 -176.91c19.44,4.52 47.55,16.71 70.47,24.35l215.07 64.09c79.83,20.27 67.45,26.8 137.27,99.76l47.4 47.41c85.28,81.6 121.6,118.21 228.18,187.95 52.12,34.11 193.38,119.99 244.47,124.24 -13.23,24.99 -15.81,46.23 -15.81,84.28l-124.15 60.2c-22.58,9.31 -57.47,17.97 -47.34,37.35 7.51,14.38 45.91,-2.74 71.41,-2.74l-24.06 18.08c-102.71,73.97 -94.87,102.9 -136.28,127.08 -99.23,57.93 -213.18,234.43 -258.07,347.68 -18.42,46.46 -70.41,182.16 -71.45,228.78 -43.59,0 -66.01,5.27 -110.61,5.27 -127.24,0 -272.35,-25.47 -358.25,-68.41 -12.67,-6.33 -21.74,-10.15 -35.83,-16.84l-94.35 -58.4c-121.79,-90.33 -206.15,-221.23 -258.78,-362.76 -18.53,-49.84 -34.58,-101.81 -45.97,-159.46 -7.91,-40.01 -27.77,-142.89 -28.52,-176.9 12.22,8.19 20.75,16.76 36.87,21.07 32.46,-21.74 37.93,-32.46 60.14,-66.28 11.94,-18.18 35.09,-60.41 39.94,-81.21l10.53 0c6.12,22.91 31.46,57.35 57.94,57.94 4.7,-17.58 78.66,-116.83 84.28,-184.35 17.49,4.67 82.84,56.04 103.11,70.7 15.96,11.54 103.77,86.03 103.56,39.88l-6.51 -294.94c31.18,2.59 101.73,52.67 131.68,52.67zm911.25 468.8c0,-178.08 23.64,-125.96 47.41,-136.96 -13.17,-17.97 -46.13,-25.11 -69.96,-35.39 -78.71,-33.96 -132.99,-62.68 -205.02,-111.02 -222.82,-149.53 -370.34,-319.91 -510.94,-542.52 -20.05,-31.73 -62.13,-111.1 -62.13,-148.57 38.4,18.42 104.89,32.92 148.15,46.75 261.59,83.59 607.08,178.85 821.83,347.51l74.98 67.24c11.99,14.74 8.02,16.03 29.58,17.83 -2.24,-26.95 -4,-7.14 -10.54,-31.61 33.33,-7.76 76.87,-63.34 275.96,-108.55 98.63,-22.4 68.64,-31.94 166.5,-54.74 -27.86,41.62 -38.04,31.89 31.71,21.21 35.78,-5.47 63.32,-5.4 105.24,-5.4 -7.63,6.63 -0.6,0.64 -9.37,6.43 -24.13,15.92 -18.42,10.91 -22.23,25.17 53.17,12.39 34.24,-0.05 79.01,-0.05 22.22,0 24.7,5.32 52.67,5.32 -19.29,16.77 -21.2,2.93 -36.87,26.34 16.22,7.49 9.49,0.9 24.74,3.1 16.21,2.35 64.63,19.15 75.34,33.77l-31.61 0 0 15.8 89.55 21.07 -18.84 12.76c-10.12,7.87 -5.85,3.25 -12.76,13.57 8,3.84 91.09,10.54 105.34,10.54 -13.66,18.65 -27.78,15.43 -42.14,36.87 11.72,5.62 60.17,10.53 80.21,11.73l-27.53 25.14c49.06,73.27 100.08,173.37 100.08,294.97 0,37.84 2.13,143.17 -3.09,176.09 -6.32,39.82 -1.74,37.11 8.2,66.37 0.2,0.6 3.49,12.29 3.49,12.3 30.08,114.57 12.44,212.06 -58.12,306.73 -57.77,77.5 -197.21,154.13 -289.8,189.54 -108.73,41.58 -162.62,39.07 -276.96,39.07 -148.34,0 -346.86,-91.96 -451.69,-196.19 -100.29,-99.72 -180.39,-263.88 -180.39,-462.22zm1079.8 -521.47c22.41,-21.26 -5.91,1.12 16.34,-52l79.57 -141.79c10.38,-14.41 8.72,-8.38 18.13,-24.01 28.87,-47.94 72.21,-108.38 111.06,-147.04 67.57,-67.23 253.66,-249.93 327.97,-267.24 -5.18,62.3 -48.28,178.55 -71.97,228.27 -43.81,91.92 -51.16,109.53 -108.6,186.37l-97.31 129.18c-37.97,42.7 -67.9,69.29 -113.53,107.7 -60.34,50.79 -30.9,33.23 -103.72,33.23 9.09,-25.11 17.47,-7.09 26.34,-31.6 -21.74,-14.56 -48.04,-21.07 -84.28,-21.07zm-100.08 -89.54c12.52,-4.54 7.06,-1.9 14.25,-12.1 2.71,-3.85 58.16,-112.17 95.56,-162.53 81.14,-109.24 110.06,-156.24 219.78,-238.48l211.5 -157.21c37.33,-27.86 69.5,-49.14 108.87,-75.49 127.86,-85.58 132.99,-80.97 95.8,127.4 -27.59,154.53 -102.58,335.39 -192.68,455.2l-83.57 100.79c-61.78,83.34 -105.1,109.69 -196.65,172.06 -19.01,12.95 -34.08,26.17 -51.63,37.92 -3.47,-14.88 -23.48,-47.86 -31.6,-63.21 31.04,-16.43 58.36,-43.69 85.9,-66.84l81.4 -71.36c9.85,-10.68 9.79,-13.05 18.63,-23.51 65.2,-77.08 121.02,-151.02 173.3,-237.55 30.5,-50.48 75.52,-152.04 91.55,-208.69 33.31,-117.76 60.66,-182.32 -66.25,-92.59 -152.73,107.98 -308.04,262.28 -405.92,426.33 -20.28,33.99 -70.37,111.12 -73.43,147.79 -23.14,-0.51 -16.4,-3.56 -36.87,-5.26 -11.55,-24.53 6.17,21.55 -0.98,-8.39 -4.33,-18.15 -23.89,-27.85 -39.54,-35.36l-17.42 -8.92zm-716.36 1854.09c15.34,4.1 17.79,9.19 36.41,16.28 23.79,9.05 13.34,-1.24 28.18,19.22 40.29,55.57 79.96,115.71 161.91,122.53 5.03,21.56 5.27,24.73 5.27,52.67 36.4,3.03 23.88,-0.85 50.39,-6.29 15.87,-3.25 21.4,7.54 51.12,2.95 88.78,-13.71 206.51,-95.17 209.26,-194.2 -21.11,0.47 -10.9,-2.84 -18.3,15.75 -4.12,10.36 -4.79,18.35 -8.64,28.43 -22.03,57.7 -147.11,149.76 -204.55,136.08 -27.83,-6.63 39.98,-42.81 20.8,-82.8 -33.28,24.38 -15.23,73.46 -84.28,89.54 0,-64.19 -29.62,-134.96 -72.38,-175.8 -10.15,-9.71 -39.31,-30.05 -21.55,0.02 16.36,27.69 62.28,54.01 67.59,117.84 -160.82,-37.46 -166.04,-212.03 -200.15,-237.03 -12.14,26.23 18.51,64.12 21.06,94.81 -27.41,-6.38 -50.31,-33.81 -65.44,-55.7 -90.95,-131.69 -42.6,-264.46 -50.44,-281.4 -17.71,12.97 -14.43,21.42 -19.92,43.28l-53.82 130.54c-26.15,-112.23 -13.68,-186.68 30.09,-296.49 24.9,-62.48 83.63,-182.99 138.47,-219.71 71.08,47.6 238.91,111.27 358.14,110.65 157.81,-0.83 246.75,-19.45 379.28,-89.58 8.48,12.66 10.71,11.92 19.42,27.98 72.19,132.99 121.72,400.76 -8.88,488.22 -2.82,-5.86 -9.83,-27.16 -12.21,-35.2 -5.12,-17.3 -3.6,-23.77 -3.6,-43.81l-15.8 0c0,51.69 -12.07,77.06 -28.53,113.69 -6.59,14.67 -17.59,32.89 -26.3,47.43l-43.58 62.27c-25.47,32.76 -55.37,65.76 -92.89,85.71 -21.87,11.62 -27.42,8.53 -40.46,28.01 45.27,20.93 127.68,-93.65 158.02,-115.89 40.93,85.31 48.29,199.51 129.31,260.48 86.57,65.16 69.05,23.26 140.57,32.87 70.02,9.4 64.74,-18.42 112.31,-32.3 17.58,-5.13 20.28,-4.65 32.77,-14.64 45.42,-36.3 17.02,-108.06 -7.14,-143.29l-45.21 -54.87c-33.71,-51.75 -35.76,-188 -35.86,-253.85 -0.04,-34.43 -5.68,-50.75 -5.48,-89.33 0.16,-31.6 0.04,-63.24 0.04,-94.85 68.93,-18.4 105.34,-167.1 105.34,-263.36 10.05,11.56 14.15,11.76 15.8,31.6l15.81 0c0,-81.4 3.61,-123.77 -17.63,-187.8 -14.29,-43.04 -51.55,-101.37 -92.99,-112.44 14.83,-63.65 18.34,-148.71 -6.03,-215.19 -11.98,-32.67 -7.6,-46.47 -4.78,-80.05 5.82,-69.22 2.83,-173.77 -7.17,-234.58 -12.4,-75.43 -34.09,-96.6 -45.23,-144.4 19.88,-13.3 34.53,-25.2 54.89,-39.92 101.48,-73.4 116.12,-73.44 199.15,-174.83 16.62,-20.29 28.79,-31.4 44.67,-50.14 14.95,-17.64 26.23,-35 40.7,-54.11 27.4,-36.2 47.13,-75.62 70.43,-113.93 14.25,-23.44 19.59,-36.95 31.11,-63.71 10.25,-23.81 19.45,-41.01 28.52,-66.29 7.39,-20.58 15.64,-43.65 23.21,-66.34 23.3,-69.86 65.88,-247 54.21,-318.05 -9.55,-58.07 -86.16,-0.78 -110.69,14.01l-166.11 113.06c-80.56,60.11 -162.73,117.54 -240.25,181.53l-68.95 72.87c-70.16,89.79 -132.34,172.14 -187.38,276.15 -40.21,-19.29 -98.88,-10.53 -142.22,-10.53l42.14 -21.07 0 -15.81c-26.36,0 -52.72,0.09 -79.08,-0.07 -33.26,-0.19 -47.05,5.34 -73.67,5.34 15,-22.4 33.85,-11.09 42.14,-31.6 -20.11,-9.65 -46.56,4.81 -68.45,10.56 -23.57,6.2 -46.41,11.2 -70.06,19.48 -24.37,8.53 -38.92,20.72 -62.55,27 -71.05,18.86 -141.46,33.65 -207.58,61.06l-112.83 66.26c-18.55,-12.42 -36,-30.44 -54.84,-45.24 -54.44,-42.78 -112.52,-78.11 -171.89,-112.55 -196.06,-113.77 -485.36,-190.95 -698.34,-260.31 -32.96,-10.73 -110.51,-39.98 -144.2,-34.9 0,54.59 14.36,70.85 33.36,108.86 18.08,36.17 31.62,57.99 51.94,90.28l114.86 169.58c-73.88,-1.65 -340.94,-105.12 -420.66,-137.68 -60.66,-24.78 -123.27,-65.66 -174.65,-104.52 -33.46,-25.29 -109.29,-121.41 -142.11,-131.78 -50.58,75.52 -73.93,171.72 -100.72,262.72 -39.81,135.23 -64.66,278.37 -88.8,416.87 -22.13,126.99 -12.47,80.23 -5.53,205.47 6.03,108.81 29.06,211.33 55.04,303.14 54.84,193.86 177.03,367.95 349.64,472.06 105.63,63.72 224.27,89.94 348.36,99.37 91.84,6.98 97.84,-0.34 168.9,-0.34l-35.08 22.86c-120.56,64.03 -155.69,201.13 -154.46,335.4 0.35,37.82 -5.52,58.29 -5.37,99.98 0.09,25.93 3.81,196.2 7.83,208.15 4.67,13.86 40.48,52 53.56,57.07 18.08,7 32.05,0.68 52.15,5.78 14.7,3.74 21.79,10.98 39.89,13.03l44.53 0.28c0.82,0.17 2.18,0.73 3.02,0.95l10.8 3.44c8.89,1.69 -0.85,0.61 9.35,1.29 136.13,9.21 48.88,-208.69 56.86,-238.01 14.6,-53.64 44.9,-99.97 69.67,-146.78 72.67,0 139.69,-1.27 207.09,-29.93 54.16,-23.04 108.44,-43.33 156.35,-75.41 0,33.25 -12.87,83.54 -18.08,118.86l-35.54 238.36c-9.06,80.09 -6.9,219.87 -53.94,283.17 -105.46,141.9 11.23,154.18 29.2,164.86 33.61,19.97 33.08,39.7 94.19,37.84 39.64,-1.2 21.58,-11.56 54.32,3.16 34.53,15.52 76.39,-4.26 101.54,-21.42 45.68,-31.15 80.27,-109.44 100.3,-168.34 23.62,-69.47 100.2,-360.15 101.99,-440.54z"/>
  <path class="fil0" d="M2306.6 1432.5c23.82,0.53 20.93,5.26 47.4,5.26 -2.12,25.49 -15.27,22.42 -48.23,46.58 -20.58,15.09 -34.85,28.29 -54.96,45.13 -19.28,16.14 -73.81,82.15 -81.16,113.72 15.46,-8.18 27.1,-15.61 43.87,-25.22 58.92,-33.78 10.96,20.3 -12.27,120.03 16.07,-10.76 26.07,-24.18 40.72,-38.29 19.46,-18.77 115.6,-98.65 138.37,-88.12 -6.15,16.99 -51.05,39.78 -83.57,63.92 -55.42,41.14 -105.31,94.83 -143,151.96 -15.34,23.26 -44.54,66.58 -47.33,100.16 10.11,-7.42 27.83,-31.84 40.1,-44.18 33.14,-33.36 21.69,-37.79 49.44,-40.1 -2.08,25 -13.12,24 -27.23,41.24 -77.36,94.55 -88.65,276.83 -88.65,401.21 32.66,-8.72 25.79,-60.91 84.28,-100.07 1.13,2.14 10.53,20.46 10.53,21.07 0,45.1 -38.6,114.53 -67.04,143.65 -13.4,13.71 -27.73,20.81 -33.04,40.7 56.89,0 83.82,-0.32 125.78,-16.44 71.98,-27.66 66.73,-52.34 90.18,-41.5 -9,24.87 -24.38,8.92 -45.96,64.65 -8.8,22.72 -27.23,58.18 -27.78,82.84 100.23,-23.35 88.6,-60.07 126.42,-63.21 0,33.2 -0.95,49.73 8.91,75.36 8.63,22.41 16.31,43.5 43.76,45.79 2.59,-31.18 25.24,-65.03 41.17,-85.25 20.54,-26.09 48.3,-37.83 85.25,-46.44 0,-127.79 75.44,-305.09 148.67,-393.86 11.06,-13.41 27.59,-31.23 35.68,-43.32 -49.28,-26.08 -78.84,-60.81 -117.22,-98.74 -117.05,-115.68 -167.21,-308.11 -167.21,-491.21l-103.61 43.88c-10.31,6.18 -5.71,3.09 -12.27,8.8z"/>
  <path class="fil0" d="M1632.38 2649.25c0,58.3 5.81,96.81 5.18,152.84 -0.4,35.94 -2.32,43.17 14.81,64.2 44.18,54.24 95.89,29.26 95.89,-11.61 0,-29.09 -11.88,-5.92 0,-31.61 39.86,26.7 -2.52,74 -5.27,84.28 23.88,1.99 100.08,27.09 100.08,-52.67 0,-26.78 -12.45,-10.92 0,-36.87 40.32,29.53 -1.54,86.64 -10.53,100.08 49.31,0 68.47,-23.89 68.47,-73.75 0,-113.37 -39.25,-99.26 -15.26,-167.94 22.54,-64.54 64.87,-131.34 67.93,-142.83 73.89,0 176.33,-5.3 230.43,-38.21 17.8,-10.83 13.33,-9.87 19.58,-33.09 9.3,-34.59 21.86,-50.09 29.16,-81.45 -64.22,14.96 -39.6,26.33 -147.48,26.33 -19.14,0 -18.48,-6.25 -36.87,-10.53 8.3,-31.12 102.2,-83.33 110.61,-184.36 -42.89,31.43 -51.84,107.48 -89.54,110.62 0,-107.77 -21.29,-177.7 26.97,-320.67 5.63,-16.69 16.62,-42.24 20.43,-58.58 -11.67,8.55 -22.56,34.8 -33.84,13.98 -13.58,-25.09 54.84,-138.76 81.23,-172.02 19.62,-24.73 17.03,-8.72 22.1,-46.38 3.47,-25.77 20.41,-79.86 30.59,-101.09 -26.82,6.25 -119.05,99.69 -57.94,-15.8 -22.78,6.08 -35.62,27.72 -51.36,43.46 -84.93,84.94 -144.7,182.23 -189.44,295.14 -19.8,49.96 -33.73,91.59 -49.54,145.36 -4.55,15.45 -14.32,64.33 -19.67,75.14 -6.05,12.26 -8.84,11.94 -26.92,20.48 -11.77,5.56 -22.37,10.21 -34.91,17.77 -42.8,25.82 -75.14,51.41 -100.72,94.17 -25.12,41.99 -37.24,92.61 -43.65,151.24 -5.91,53.92 -10.52,126.45 -10.52,184.37z"/>
  <path class="fil0" d="M900.22 1169.13l0 84.28c0,32.04 5.27,38.42 5.27,68.47 19.26,1.61 21.19,7.51 36.87,15.8 14.54,-21.71 29.13,-24.6 56.23,-75.45 22.22,-41.68 28.34,-75.61 54.38,-82.56 3.97,14.85 35.91,55.5 47.41,63.2 14.04,-10.28 44.62,-66.46 52.03,-84.91l37.51 -99.44c23.98,1.99 8.3,-1.74 25.91,10.96 8.72,6.3 14.14,11.14 23.75,18.39l145.23 102.33c0,-369.06 -35.03,-334.96 42.21,-300.31 16.99,7.62 31.12,12.89 47.36,21.12 15.66,7.95 28.49,16.69 47.38,21.09l-32.55 -193.94c-4.99,-22.4 -5.32,-23.77 -25.76,-32.18 -117.03,-48.14 -232.38,-107.33 -319.68,-201.78 -18.44,-19.95 -30.84,-49.12 -59.19,-56.69 -4.99,21.38 -23.31,52.13 -33.19,77.42 -68.21,174.48 -105.34,411.57 -142.9,594.53 -4.25,20.7 -8.27,25.98 -8.27,49.67z"/>
  <path class="fil0" d="M2701.64 2659.78c-10.03,-14.98 -25.69,-31.5 -36.92,-47.35 -38.05,-53.71 -57.89,-120.75 -57.89,-194.94l-14.25 22.61c-13.86,29.1 -17.7,61.52 -27.89,82.73 -21.8,-5.82 -22.7,-15.88 -29.92,-38.55 -5.29,-16.61 -10.75,-43.92 -12.21,-61.52 -19.58,4.56 -39.37,11.58 -54.76,24.25 -40.47,33.3 -49.21,74.96 -66.39,107.43 -54.91,0 -46,-30.86 -68.48,-63.21 0,79.88 -47.25,277.62 -52.71,405.55 -8.88,208.04 -68.88,199.13 -82.38,260.15 -10.58,47.84 5.95,63.73 40.28,71.73 -16.21,-33.79 17.69,-82.22 47.41,-68.48 -8.65,23.89 -20.14,8.92 -32.16,31.56 -8.63,16.27 -1.91,36.12 9.4,49.1 24.39,27.99 56.43,29.96 107.03,29.96 0,-35.82 3.91,-80.66 47.41,-84.28 -3.33,30.44 -11.12,11.1 -25.84,37.54 -30.43,54.64 36.33,76.83 99.78,31.14 91.16,-65.66 149.67,-357.13 174.06,-479.09 6.43,-32.15 17.83,-77.39 20.63,-111.06 7.1,-3.99 5.82,-2.87 15.8,-5.27z"/>
  <path class="fil0" d="M2501.49 1169.13c1.63,-19.62 8.25,-27.87 15.8,-42.14l-21.07 -5.26c8.08,-12.07 10.92,-19.1 23.63,-29.41 30.1,-24.38 10.42,-6.53 15.71,-27.61 2.96,-11.82 4.4,-15.31 23.87,-27.25 10.55,-6.47 23.15,-12.62 36.87,-15.81 -9.49,-35.53 -134.06,-128.49 -168.52,-152.79 -200.11,-141.16 -359.73,-205.03 -586.93,-292.71 -23.94,-9.24 -40.62,-12.52 -60.99,-23.3 17.3,74.26 108.28,195.63 159.58,256.55 53.89,63.98 71.1,74.19 126.18,126.65 108.58,103.41 294.2,200.08 435.87,233.08z"/>
  <path class="fil0" d="M3418 805.69l17.42 8.92c15.65,7.51 35.21,17.21 39.54,35.36 7.15,29.94 -10.57,-16.14 0.98,8.39 20.47,1.7 13.73,4.75 36.87,5.26 3.06,-36.67 53.15,-113.8 73.43,-147.79 97.88,-164.05 253.19,-318.35 405.92,-426.33 126.91,-89.73 99.56,-25.17 66.25,92.59 -16.03,56.65 -61.05,158.21 -91.55,208.69 -52.28,86.53 -108.1,160.47 -173.3,237.55 -8.84,10.46 -8.78,12.83 -18.63,23.51l-81.4 71.36c-27.54,23.15 -54.86,50.41 -85.9,66.84 8.12,15.35 28.13,48.33 31.6,63.21 17.55,-11.75 32.62,-24.97 51.63,-37.92 91.55,-62.37 134.87,-88.72 196.65,-172.06l83.57 -100.79c90.1,-119.81 165.09,-300.67 192.68,-455.2 37.19,-208.37 32.06,-212.98 -95.8,-127.4 -39.37,26.35 -71.54,47.63 -108.87,75.49l-211.5 157.21c-109.72,82.24 -138.64,129.24 -219.78,238.48 -37.4,50.36 -92.85,158.68 -95.56,162.53 -7.19,10.2 -1.73,7.56 -14.25,12.1z"/>
  <path class="fil0" d="M3460.14 2538.64l-10.25 -26.63c-4.72,-10.26 -1.46,-4.36 -5.55,-10.24 -2.7,32.41 -54.71,128.27 -73.74,142.21 55.46,82.83 34.61,206.44 160.04,282.42 58.48,35.41 92.79,2.13 92.79,-24.32 0,-28.43 -14.13,-38.77 -5.27,-57.94 39.56,28.99 13.06,84 10.53,94.81 28,0 46.48,3.36 67.23,-6.52 69.16,-32.91 4.94,-88.44 17.05,-114.62 19.66,13.16 40.55,59.92 26.34,89.54 89.32,-20.81 36.61,-126.24 -11.96,-172.39 -52.52,-49.89 -48.1,-238.59 -51.22,-296.43l-5.3 -168.53 -11.58 14.76c-51.89,78.22 -90.86,96.54 -98.35,112.33 -6.1,12.86 -8.68,28.38 -14.87,43.08 -6.66,15.8 -12.92,27.9 -21.51,41.7 -12.85,20.65 -39.62,54.71 -64.38,56.77z"/>
  <path class="fil0" d="M3518.08 895.23c36.24,0 62.54,6.51 84.28,21.07 -8.87,24.51 -17.25,6.49 -26.34,31.6 72.82,0 43.38,17.56 103.72,-33.23 45.63,-38.41 75.56,-65 113.53,-107.7l97.31 -129.18c57.44,-76.84 64.79,-94.45 108.6,-186.37 23.69,-49.72 66.79,-165.97 71.97,-228.27 -74.31,17.31 -260.4,200.01 -327.97,267.24 -38.85,38.66 -82.19,99.1 -111.06,147.04 -9.41,15.63 -7.75,9.6 -18.13,24.01l-79.57 141.79c-22.25,53.12 6.07,30.74 -16.34,52z"/>
  <path class="fil0" d="M3475.94 1990.83l39.96 75.93c43.52,104.19 49.59,172.96 49.59,298.06 30.01,-20.1 65.89,-60.01 82.58,-91.24 18.49,-34.6 24.2,-53.87 30.88,-95.54 4.37,-27.22 -3.55,-22.36 12.95,-34.45 8.54,17.78 3.29,36.05 -0.57,57.35 -2.7,14.91 -28.96,79.82 12.58,39.49 8.87,-8.6 13.36,-14.04 19.76,-22.94 37.9,-52.78 52.51,-149.66 52.51,-221.39 0,-20.62 -32.14,-53.97 -4.62,-42.93 12.83,5.15 20.7,31.56 36.22,42.93 0,-110.6 -11.19,-188.05 -100.07,-247.56 -12.92,55.46 -55.78,105.61 -93.5,143.54 -25.57,25.72 -103.2,89.39 -138.27,98.75z"/>
  <path class="fil2" d="M2706.91 1448.3c0,210.02 159.26,248.45 217.84,133.56 58.13,-114 12.45,-256.52 -28.21,-286.31 -14.21,60.96 -15.68,99.26 -56.42,138.48 -37.01,35.63 -87.26,45.03 -133.21,14.27z"/>
  <path class="fil1" d="M2501.49 1169.13c-141.67,-33 -327.29,-129.67 -435.87,-233.08 -55.08,-52.46 -72.29,-62.67 -126.18,-126.65 -51.3,-60.92 -142.28,-182.29 -159.58,-256.55 20.37,10.78 37.05,14.06 60.99,23.3 227.2,87.68 386.82,151.55 586.93,292.71 34.46,24.3 159.03,117.26 168.52,152.79 -13.72,3.19 -26.32,9.34 -36.87,15.81 -19.47,11.94 -20.91,15.43 -23.87,27.25 -5.29,21.08 14.39,3.23 -15.71,27.61 -12.71,10.31 -15.55,17.34 -23.63,29.41l21.07 5.26c-7.55,14.27 -14.17,22.52 -15.8,42.14zm-737.43 -616.28c0,25.65 41.01,95.01 52.88,115.68 17.95,31.24 81.44,120.75 109.03,149.07l131.79 131.58c44.85,41.98 49.25,40.97 93.82,74.73l162.44 95.66c48.4,20.08 150.09,65.36 198,65.36 4.66,-19.98 10.44,-30.95 17.98,-50.5 17.73,-45.96 1.21,-11.45 43.58,-56.49 12.55,-13.34 24.08,-14.66 29.55,-30.79 5.28,-15.59 -9.77,-13.42 19.51,-20.24 -10.25,-38.37 -53.53,-62.7 -80.33,-88.22 -163.85,-156.04 -449.21,-281 -658.64,-363.23 -41.68,-16.37 -119.61,-54.98 -119.61,-22.61z"/>
  <path class="fil0" d="M3117.76 1769.61c0,70.22 56.88,147.48 121.15,147.48l21.07 0c42.02,0 118.09,-91.79 80.84,-133.12 -25.4,-28.19 -94.01,-51.23 -101.91,-51.23 -2.76,0 -51.72,18.12 -58.58,20.42 -19.07,6.38 -40.62,14.62 -62.57,16.45z"/>
  <path class="fil2" d="M3523.35 1263.94c0,78.11 -27.68,160.32 -105.35,142.22 13.3,57.07 54,155.77 127.19,106.12 11.12,-7.54 17.54,-16.52 24.73,-27.94l13.02 -23.85c17.33,-32.74 20.37,-91.45 9.49,-128.75 -5.17,-17.72 -10.2,-16.07 -13.21,-34.94 -3.34,-20.89 -6.95,-42.37 -21.68,-61.78 -0.66,-0.88 -1.67,-2.06 -2.36,-2.91l-5 -5.53c-19.11,-20.71 -20.78,-26.68 -37.37,-31.11 2.08,24.99 10.54,39.78 10.54,68.47z"/>
  <path class="fil1" d="M2706.91 1448.3c45.95,30.76 96.2,21.36 133.21,-14.27 40.74,-39.22 42.21,-77.52 56.42,-138.48 40.66,29.79 86.34,172.31 28.21,286.31 -58.58,114.89 -217.84,76.46 -217.84,-133.56zm5.27 -26.34c0,-64.8 45.51,-126.2 103.77,-149.13 39.18,-15.43 33.32,-5.68 64.78,1.65 0,54.81 -19.01,114.37 -45.95,143.67 -14.04,15.27 -35.98,28.79 -62.05,32.36 -19.91,2.73 -60.55,-4.09 -60.55,-28.55zm-21.07 42.14c0,48.85 11.05,95.64 29.77,128.25 41.63,72.47 127.42,82.12 179.74,49.66 8.28,-5.13 1.37,0.54 8.57,-7.24 82.36,-89.06 76.65,-262.63 1.11,-352.98 -70.7,-84.57 -179.75,9.93 -205.38,96.04 -6.3,21.15 -13.81,62.03 -13.81,86.27z"/>
  <path class="fil0" d="M2712.18 1421.96c0,24.46 40.64,31.28 60.55,28.55 26.07,-3.57 48.01,-17.09 62.05,-32.36 26.94,-29.3 45.95,-88.86 45.95,-143.67 -31.46,-7.33 -25.6,-17.08 -64.78,-1.65 -58.26,22.93 -103.77,84.33 -103.77,149.13z"/>
  <path class="fil1" d="M3412.73 1342.95c0,-64.19 28.21,-135.65 79.01,-147.48 25.32,47.85 18.11,134.65 -7.19,171.89 -15.55,22.9 -71.82,43.84 -71.82,7.2l0 -31.61zm5.27 63.21c77.67,18.1 105.35,-64.11 105.35,-142.22 0,-28.69 -8.46,-43.48 -10.54,-68.47 16.59,4.43 18.26,10.4 37.37,31.11l5 5.53c0.69,0.85 1.7,2.03 2.36,2.91 14.73,19.41 18.34,40.89 21.68,61.78 3.01,18.87 8.04,17.22 13.21,34.94 10.88,37.3 7.84,96.01 -9.49,128.75l-13.02 23.85c-7.19,11.42 -13.61,20.4 -24.73,27.94 -73.19,49.65 -113.89,-49.05 -127.19,-106.12zm-21.07 -63.21c0,54.18 10.06,91.09 26.93,131.1 11.75,27.88 45.87,69.06 83.69,69.06 46.21,0 51.7,-18.94 71.99,-43.89l23.1 -34.84c28.57,-75.49 -3.36,-234.53 -60,-272.4 -78.15,-52.26 -145.71,52.17 -145.71,150.97z"/>
  <path class="fil1" d="M3117.76 1769.61c21.95,-1.83 43.5,-10.07 62.57,-16.45 6.86,-2.3 55.82,-20.42 58.58,-20.42 7.9,0 76.51,23.04 101.91,51.23 37.25,41.33 -38.82,133.12 -80.84,133.12l-21.07 0c-64.27,0 -121.15,-77.26 -121.15,-147.48zm235.01 2.02c-18.3,-18.29 -50.54,-36.69 -76.99,-38.89 3.03,-17.71 51.09,-10.54 89.55,-10.54 0,29.24 -5.27,31.24 -5.27,57.94l-7.29 -8.51zm-266.61 -12.56c-13.05,0 -12.12,-23.84 -42.14,-26.33 2.5,30.05 26.11,41.42 57.94,42.13 0.84,37.75 21.23,79.68 38.93,103.3 49.64,66.23 156.87,92.46 212.14,-26.05l13.27 -28.87c4.82,-13.13 18.91,-86.84 9.56,-106.32 23,0 39.95,-4.27 53.91,-14.56 18.26,-13.45 19.84,-24.11 19.84,-53.91l-15.81 0c0,42.32 -18.17,48.6 -55.4,55.21 -95.15,16.88 -62.63,-13.66 -199.4,32.36 -22.86,7.68 -67.42,23.04 -92.84,23.04z"/>
  <path class="fil0" d="M3412.73 1342.95l0 31.61c0,36.64 56.27,15.7 71.82,-7.2 25.3,-37.24 32.51,-124.04 7.19,-171.89 -50.8,11.83 -79.01,83.29 -79.01,147.48z"/>
  <path class="fil0" d="M3275.78 1732.74c26.45,2.2 58.69,20.6 76.99,38.89l7.29 8.51c0,-26.7 5.27,-28.7 5.27,-57.94 -38.46,0 -86.52,-7.17 -89.55,10.54z"/>
  <path class="fil1" d="M3228.38 1574.71c0,32.42 79.01,23.63 79.01,5.27 0,-31.81 -79.01,-22.8 -79.01,-5.27z"/>
  <path class="fil0" d="M3418 805.69c-4.3,-7.66 -2.55,-5.58 -5.27,-15.81 -14.22,1.19 -14.32,2.47 -26.33,5.27 1.58,1.1 -1.02,7.82 31.6,10.54z"/>
 </g>
</svg>
