<?xml version="1.0" encoding="UTF-8"?>
<!DOCTYPE svg PUBLIC "-//W3C//DTD SVG 1.1//EN" "http://www.w3.org/Graphics/SVG/1.1/DTD/svg11.dtd">
<!-- Creator: CorelDRAW 2017 -->
<svg xmlns="http://www.w3.org/2000/svg" xml:space="preserve" width="50.7998mm" height="33.8666mm" version="1.1" style="shape-rendering:geometricPrecision; text-rendering:geometricPrecision; image-rendering:optimizeQuality; fill-rule:evenodd; clip-rule:evenodd"
viewBox="0 0 5079.98 3386.66"
 xmlns:xlink="http://www.w3.org/1999/xlink">
 <defs>
  <style type="text/css">
   <![CDATA[
    .fil0 {fill:#030303}
    .fil1 {fill:white}
   ]]>
  </style>
 </defs>
 <g id="Capa_x0020_1">
  <metadata id="CorelCorpID_0Corel-Layer"/>
  <g id="_2060653594400">
   <path class="fil0" d="M1875.11 2137.99c-11.41,26.53 -44.83,65.85 -62.83,95.93 -20.16,33.69 -38.87,66.65 -58.54,103.22 -99.65,185.32 -205.83,529.19 -235.36,735.66l-300.17 14.31 228.31 79.88c-16.16,12.77 -142.48,59.23 -187.98,82.24 -26.81,13.55 -45.12,18.85 -46.86,47.26 40.38,29.93 203.82,1.29 262.17,-3.51 -48.25,101.6 116.07,1.23 129.73,-5.9 14.89,20 11.63,48.92 30.35,69.94l179.96 -69.45c17.28,17.17 55.32,71.81 87.55,65.55 15.37,-2.98 64.29,-48.69 94.43,-60.68 35.78,12.66 71.37,32.24 107.18,47.59 56.71,24.3 66.56,24.99 92.4,-20.85 90.95,27.95 114.81,109.9 176.58,-14.32 54.91,10.34 162.98,55.37 250.8,75.3 56.97,12.93 59.55,10.35 61.48,-43.13 177.92,32.14 182.35,62.65 166.36,-72.31 66.47,0 159.98,8.54 209.05,-22.6 2.38,-33.04 -20.74,-42.5 -45.76,-57.87 -63.34,-38.94 -191.11,-81.43 -216.96,-99.86l116.33 -97.56c88.56,-76.86 46.51,-91.73 8.73,-128 40.2,-24.04 135.61,-30.66 162.96,-63.37 26.98,-32.26 -39.91,-125.08 -53.11,-152.04 42.54,-17.65 87.18,-31.73 129.61,-50.46 44.51,-19.66 84.12,-38.23 126.98,-59.67 43.23,-21.61 80.13,-40.72 121.91,-64.54 22.61,-12.89 101.11,-67.08 117.25,-69.14 13.47,-82.5 11.16,-132.98 2.7,-217.35 -5.15,-51.37 -11.42,-161.08 -53.01,-177.34 -84.97,-33.21 -379.2,159.5 -460.89,226.91 -71.03,58.6 -174.06,166.93 -214.22,251.65 -35.4,74.66 31.48,112.17 53.65,159.59 -14.65,40.43 -90.54,91.02 -121.99,130.2 -32.21,40.13 36.97,74.98 86.77,144.4 -6.6,20.12 -88.87,105.5 -104.16,113.34 -24.65,-163.93 -89.09,-323.14 -188.78,-444.15 -50,-60.68 -61.49,-63.56 -106.93,-110.52 8.66,-16.05 35.1,-33.29 27.37,-55.14 -4.92,-13.9 -33.5,-34.23 -45.17,-47.19 188.19,10.46 321.62,-4.04 439.67,-154.23 73.16,-93.08 117.49,-183.67 148,-302.7 8.85,-34.49 53.39,-52.87 82.23,-70.25 86.3,-51.99 199.8,-117.05 298.15,-152.43 60.9,-21.91 68.63,-15.03 113.17,14.48 62.47,41.38 119.01,82.79 180.05,123.84l180.26 124.57c72.82,-86.51 -41.54,-223.13 -78.23,-280.46 -188.12,-293.98 -161.56,-310.18 -515.11,-270.9 -59.86,6.65 -118.88,15.39 -179.07,24.13 -52.67,7.64 -128.89,23.84 -178.89,24.61l-71.02 -98.88c-128.87,-160.86 -231.63,-209.67 -267.46,-247.55 20.5,-149.63 26.04,-135.55 28.29,-304.02 0.83,-61.81 -6.03,-289.19 7.01,-328.19 10.28,-30.71 45.45,-91.9 47.27,-118.81 3.58,-52.9 -50.55,-93.16 -56.48,-109.41 -16.98,-46.56 89.12,-202.48 87.13,-247.71 -33.54,-2.59 -120.89,46.21 -153.52,62.34 -52.99,26.19 -101.15,44.04 -90.79,122.95 8.3,63.28 37.04,60.09 -38.44,150.05 -110.9,132.19 -163.26,94.65 -159.61,272.63 2.12,103.64 16.19,52.8 -47.06,167.96 -26.21,47.73 -98.07,318.58 -108.05,328.45l-255.37 176.08c-68.59,52.33 -172.15,128.55 -188.86,241.88 -32.59,221.07 93.52,424.04 221.44,582.27 9.12,11.29 20.38,21.59 27.4,33.28z"/>
   <path class="fil1" d="M1533.54 3091.74c-39.83,3.19 -190.46,1.67 -212.41,12.27 89.67,45.89 276.08,71.46 289.54,120.33 8.62,31.3 17.4,86.33 32.14,109.29 52.16,-12.74 213.24,-91.54 262.1,-99.74 35.67,-5.98 190.82,96.43 252.27,103.96l73.09 -102.34c80.66,13.66 314.96,123.2 435.36,131.43 -1.36,-48.66 -31.31,-95 -27.53,-125.63 33.8,-15.76 320.56,27.41 401.23,-9.81 -3.76,-14.56 4.19,-6.33 -30.02,-27.83 -42.53,-26.73 -162.42,-76.54 -212.52,-96.78 -155.19,-62.7 -61.15,6.51 -131.47,-216.73 -23.17,-73.57 -100.35,-251.33 -152.42,-288.74 -23.52,-16.89 -122.55,-54.09 -159.16,-66.22 -115.06,-38.12 -253.89,-59.97 -380.39,-28.02 -155.3,39.23 -188.1,92.98 -285.09,160.21 75.42,-96.5 230.46,-177.48 367.42,-188.77 86.49,-7.13 170.57,4.54 248.46,28.03 110.19,33.23 140.84,62.62 198.93,83.75 -38.75,-69.33 -116.29,-98.43 -119.99,-129.56 7.58,-3.27 36.06,4.28 46.47,-33.53 -7.21,-12.37 -48.13,-46.45 -64.76,-55.31 -33.54,-17.88 -82.91,-3.02 -82.82,-30.61 10.52,-9.42 8.65,-6.18 26.93,-2.45 302.49,61.63 483.09,-1.88 616.47,-291.33 17.71,-38.45 32.95,-79.06 44.53,-122.55 5.82,-21.84 10.78,-46.39 13.97,-70.01 1.66,-12.24 2.3,-23.06 2.41,-35.9 0.23,-25.11 -6.32,-26.55 9.93,-34.88 12.84,7.51 4.38,-9.09 9.01,15.38 0.8,4.27 0.38,19.48 0.15,24.42 -0.73,14.89 -2.63,28.09 -3.25,42.97 77.56,-46.47 282.43,-173.81 376.92,-194.58 -10.21,-36.59 -32.12,-52.54 -12.31,-105.5 14.23,-38.04 41,-51.76 59.73,-75.39 -5.58,-19.29 -48.48,-75.19 -52.68,-76.87 -24.34,-9.77 -410.51,50.63 -468.52,58.86 3.1,19.44 21.38,43.82 28.22,61.19 7.93,20.15 2.2,21.02 -1.02,25.49 -18.49,-4.47 -19.32,-24.38 -39.84,-64.04 -66.4,-128.32 -243.28,-314.2 -361.99,-377.54 23.64,-111.84 28.23,-127.65 32.1,-250.59 2.85,-90.57 7.58,-195.75 2.19,-285.54 -59.43,-33.8 -95.85,-46.89 -162.87,0.16 -28.8,20.22 -81.35,100.77 -141.95,60.5 38.65,0.16 65.48,-10.51 84.2,-29.91 30.29,-31.41 68.53,-84.85 146.28,-77.06 38.84,3.9 51.86,24.66 74.42,37.02 -1.86,-82.25 -1.13,-90.12 29.19,-156.25 29.97,-65.34 37.16,-74.2 -7.37,-130.16 -35.3,-44.37 -37.94,-49.52 -2.13,-134.34 18.7,-44.29 41.48,-85.79 56.6,-126.38 -35.05,8.18 -178.23,82.26 -191.18,99.47 -25.48,33.85 5.37,89.48 5.64,125.07 0.33,45.07 -92.54,138.02 -123.6,168.98 -43.87,43.73 -98.27,44.62 -87.01,208.05 4.77,69.09 2.11,67.71 -27.3,119.15 -52.4,91.63 -85.45,217.28 -114.32,326.69 -13.3,50.44 -7.61,38.53 -69.2,78.12 -115.1,74.01 -253.25,166.84 -332.49,255.89 -102.68,115.4 -58.89,329.33 10.27,460.15 36.55,69.14 71.65,123.22 114.37,179.81 10.1,13.38 63.43,76.01 65.73,82.9 6.93,20.77 -25.85,57.08 -50.54,93.66 -133.22,197.34 -228.9,502.02 -284.18,745.12 -7.99,35.12 -14.29,92.63 -23.94,122.57z"/>
   <path class="fil1" d="M2742.82 2799.07c134.28,168.32 133.31,84.61 -20.42,255.43 50.14,47.51 89.98,-7.18 156.62,-62.71 12.48,-10.4 60.94,-51.96 65.06,-67.44 9.78,-36.81 -47.41,-42.06 -56.32,-70.43 27.37,-31.11 146.25,-37.79 183.72,-72.08 7.97,-36.14 -54.83,-119.84 -69.38,-148.58 11.47,-8.33 102.89,-37.17 127.74,-47.73 93.97,-39.92 213.31,-97.89 300.63,-150.57 16.6,-10.01 42.85,-29.62 58.13,-35.43 -14.03,-27.1 -29.23,-27.21 -44.13,-67.54 -29.07,-78.73 -23.49,-226.3 -14.95,-308.39 -67.97,9.45 -215.43,96.29 -270.83,129.89 -85.33,51.77 -189.14,138.8 -243.67,202.4l-64.37 82.8c-33.47,47.88 -57.34,80.12 -18.12,137.53 39.2,57.38 65.28,61.89 7.43,121.47 -21.63,22.28 -87.71,78.02 -97.14,101.38z"/>
   <path class="fil0" d="M2105.47 1931.73c14.53,37.46 22.29,76.22 42.72,112.72 40.36,72.09 102.71,1.72 131.54,55.02 14.6,26.99 36.88,85.56 71.73,100.16 34.27,14.36 132.21,-19.92 152.78,-36.83 9.15,5.33 26.31,24.38 48.74,31.09l-101.32 1.98c12.33,13.23 31.92,21.13 49.81,29.95 8.64,4.26 17.02,7.99 26.28,12.88l23.04 18.47c-19.03,8.65 -53.23,18.73 -75.63,21.65 24.23,-9.24 62.01,-2.25 81.98,-23.14 -4.74,-20.99 -48.36,-33.25 -64.81,-48.26l171.1 8.52c-33.35,-34.13 -89.12,-26.88 -119.19,-48.52 33.26,-16.03 106.96,8.72 136.86,-5.78 1.75,-49.45 -88.71,-42.36 -119.36,-64.44 20.67,-9.83 163.59,11.97 203.07,9.79 -61.35,-28.92 -201.77,-49.82 -225.43,-78.11 42,-3.65 109.42,16.13 140.79,-8.57 -17.51,-13.43 -36.65,-19.22 -61.06,-18.05l43.87 15.32c-50.74,11.7 -93.91,-11.97 -142.16,2.73 4.3,35.82 58.4,46.61 91.64,56.87 -58.2,-0.11 -63.76,-10.8 -123.84,4.19 -43.98,10.97 -67.83,16.89 -105.37,29.83 -12.78,-11.5 -36.39,-66.24 -50.1,-84.93 -24.81,-33.8 -70.12,-21.58 -107.94,-33.62 -16.94,-23.67 -26.68,-64.26 -40.42,-92.53 -26.9,-55.32 -35.39,-56.86 -110.46,-55.41l-115.36 4.46c-5.47,-46.73 -2.54,-164.34 -19.58,-194.18 -13.2,-23.13 -52.69,-34.35 -68.29,-4.72 -9.62,18.28 -8.66,75.1 -7.97,100.34 7.32,268.62 41.42,162.36 242.34,181.12z"/>
   <path class="fil1" d="M3384.02 1666.86c66.64,-1.7 33.05,-26.05 131.65,39.98l323.84 223.94c42.43,-79.65 -78.2,-227.4 -130.74,-309.19 -119.83,-186.54 -125.23,-219.88 -324.09,-208.49 13.66,17.75 30.65,30.62 46.25,50.02 56.03,69.66 -86.41,46.08 -46.91,203.74z"/>
   <path class="fil0" d="M2582.91 1886.07c-65.5,-88.87 -32.56,-234.3 53.62,-279.27 83.8,-43.73 223.49,-5.14 151.96,171.33 -18.09,44.61 -53.56,94.85 -92.92,108.7 -56.88,20.01 -86.68,-49.84 -92.07,-96.91 -18.51,-161.66 174.79,-204.77 161.81,-41.85l-13.54 -23.51c-6.25,-17.37 -5.57,-12.25 0.65,-29.03 -34.49,10.87 -65.5,-36.76 -110.42,9.8 -66.74,69.19 1.58,211.84 69.5,138.11 21.14,-22.95 49.84,-49.81 61.38,-90.75 30.18,-107.09 -80.02,-157.45 -146.2,-92.1 -51.71,51.06 -53.44,165.81 -5.29,224.56 100.43,122.52 302.22,-204.65 152.45,-294.88 -83.43,-50.26 -174.1,10.72 -206.2,65.32 -46.07,78.34 -31.49,173.17 15.27,230.48z"/>
   <path class="fil0" d="M1971.8 1536.57l2.93 -7.93c0.27,-1.01 0.9,-2.81 1.21,-4.06 0.93,-3.68 1.71,-8.58 2.45,-12.46 10.82,-56.61 41.24,-96.56 94.57,-125.81 75.05,-41.15 147.45,-40.56 118.3,70.53 -14.02,-25.94 -4.71,-34.86 -31.6,-51.68 -53.73,-33.59 -139.85,19.32 -151.18,73.14 -9.71,46.13 11.3,105 47.55,114.64 60.19,16.01 160.7,-101.52 160.72,-175.79 0.03,-105.55 -116.17,-86.79 -196.47,-5 -32.4,33 -48.44,63.59 -48.48,124.42z"/>
   <path class="fil1" d="M1237.63 3287.85c93.18,10.28 184.09,-18.73 270.16,-13.88 -3.74,28.9 -11.8,16.02 -21.86,42.46 52.5,-1.99 77.72,-36.09 114.29,-47.55 -9.64,-61.04 -17.63,-52.75 -69.98,-72.03 -62.36,-22.97 -42.75,-23.03 -102.38,1.17 -34.83,14.13 -181.43,67 -190.23,89.83z"/>
   <path class="fil1" d="M3510.14 2377.23c18.25,-38.47 6.38,-146.3 1.25,-195.44 -3.86,-36.95 -11.38,-103.18 -23.94,-137.91 -7.86,-21.73 -8.93,-21.54 -35.21,-23.99 -16.08,29.34 -30.95,345.32 57.9,357.34z"/>
   <path class="fil0" d="M2203.88 2726.43c0,52.48 20.78,157.03 66.53,138.98 44.99,-17.74 17.34,-154.71 -4.91,-187.86 -35.47,-52.86 -61.62,-3.8 -61.62,48.88z"/>
   <path class="fil0" d="M1961.08 2755.85c0,192.44 116.77,110.59 77.57,-52.36 -6.91,-28.73 -25.66,-68.46 -55.37,-38.96 -14.23,14.14 -22.2,65.26 -22.2,91.32z"/>
   <path class="fil1" d="M2837.39 3342.21c4.29,-26.67 -3.16,-51.76 -5.6,-77.43l-173.04 -7.77c8.66,56.32 12.46,57.01 62.32,68.47 31.67,7.27 82.36,21.76 116.32,16.73z"/>
   <path class="fil1" d="M2736.31 1725.68c-24.83,11.54 -32.65,41.94 -87.97,69.39 14.72,-42.89 54.71,-56.48 71.57,-83.69 -66.66,-47.52 -114.52,79.98 -67.45,128.06 10.98,11.21 26.92,18.51 43.22,8.15 26.85,-17.05 38.02,-36.06 48.23,-69.75 7.02,-23.16 5.24,-35.23 -7.6,-52.16z"/>
   <path class="fil0" d="M1858.1 1521.63c-9.71,-8.98 -17.62,-21.9 -26.48,-33.42 -14.07,-18.29 -17.14,-21.69 -33.87,-29.39l23.56 131.47c-8.08,-5.34 -3.15,-1.42 -9.59,-8.03l-25.98 -28.51c-10.91,-12.98 -21.06,-26.67 -28.56,-42.45 5.03,31.41 35.06,62.79 50.1,84.71 16.75,24.42 10.9,20.97 18,50.02 8.25,33.76 6.85,40.3 19.95,48.94 12.94,-62.72 -10.59,-109.15 -15.08,-170.55 21.62,17.95 39.53,78.5 55.94,88.23 3.95,-64.17 -6.58,-62.06 -12.7,-111.68 16.23,16.23 23.04,41.05 39.06,54.35l-11.4 -38.32c-16.11,-22.83 -28.41,-55.22 -47.37,-71.98 -3.92,36.7 0.58,44.16 4.42,76.61z"/>
   <path class="fil1" d="M2109.76 1559.76c-7.5,-5.83 -0.65,-1.41 -11.39,-5.38 -32.95,-12.21 -56.19,-33.59 -29.39,-73.63 28.37,-42.39 72.95,-11.64 85.57,-59.88 -79.16,-28.61 -164.29,53 -114.8,133.72 21.22,34.6 42.42,16.38 70.01,5.17z"/>
   <path class="fil1" d="M2210.16 3303.51c30.19,15.21 74.01,46.02 109.06,49.05 13.57,-12.76 25.15,-30.4 33.48,-52.41 -11.2,-10.21 -93.76,-38.53 -111.65,-40.41l-30.89 43.77z"/>
   <path class="fil1" d="M1836.36 3280.54c54.59,83.13 61.86,51.99 115.85,15.12l18.89 -15.12c-15.58,-10.56 -48.35,-30.04 -65.96,-27.21 -8.79,1.41 -61.87,22.58 -68.78,27.21z"/>
   <path class="fil1" d="M2085.26 1513.15c5.46,-21.58 24.88,-34.23 33.1,-53.54 -74.89,11.61 -58.95,134.55 27.93,49.09 18.13,-17.83 28.45,-33.84 22.41,-67.99 -1.11,0.76 -2.71,0.72 -3.16,2.5 -0.45,1.75 -2.41,1.94 -3,2.56l-15.93 18.62c-0.17,0.18 -36.94,38.86 -61.35,48.76z"/>
  </g>
 </g>
</svg>
