<?xml version="1.0" encoding="UTF-8"?>
<!DOCTYPE svg PUBLIC "-//W3C//DTD SVG 1.1//EN" "http://www.w3.org/Graphics/SVG/1.1/DTD/svg11.dtd">
<!-- Creator: CorelDRAW 2017 -->
<svg xmlns="http://www.w3.org/2000/svg" xml:space="preserve" width="29mm" height="29mm" version="1.1" style="shape-rendering:geometricPrecision; text-rendering:geometricPrecision; image-rendering:optimizeQuality; fill-rule:evenodd; clip-rule:evenodd"
viewBox="0 0 2900 2900"
 xmlns:xlink="http://www.w3.org/1999/xlink">
 <defs>
  <style type="text/css">
   <![CDATA[
    .fil2 {fill:#221C1E}
    .fil3 {fill:#31302F}
    .fil5 {fill:#453738}
    .fil1 {fill:#E92D31}
    .fil4 {fill:#F7E9E9}
    .fil0 {fill:#FDFDFD}
   ]]>
  </style>
 </defs>
 <g id="Capa_x0020_1">
  <metadata id="CorelCorpID_0Corel-Layer"/>
  <g id="_2477574868816">
   <polygon class="fil0" points="10.37,2856.22 2889.63,2856.22 2889.63,43.78 10.37,43.78 "/>
   <path class="fil1" d="M67.65 1416.59c0,76.08 -5.08,241.41 19.35,299.6 8.17,19.46 12.56,43.49 17.69,66.04 20.63,90.59 43.6,173.18 88.18,253.49 29.61,53.36 58.59,122.99 94.91,172.66l63.52 88.58c12.87,16.32 26.15,28.36 39.38,45.56 55.98,72.79 185.84,189.8 266.11,237.42 152.8,90.65 228.53,133.26 408.19,186.62 14.11,4.19 23.77,3.38 38,5.9 18.94,3.37 20.6,7.23 30.33,10.37 10.18,3.3 61.32,12.18 70.35,13.8 12.47,2.25 27.09,3.07 37.69,4.85l33.28 9.61c49.06,16.76 174.64,8.49 236.28,5.49l194.77 -40.55c48.12,-10.3 73.67,-22.12 115.46,-34.11 89.24,-25.63 131.94,-51.47 216.76,-93.22 21.7,-10.68 35.77,-12.81 54.13,-25.52l178.29 -130.96c87.57,-58.61 187.36,-195.14 256.34,-284.44l116.25 -211.3 73.66 -216.9 26.21 -140.13 23.48 -10.26 0.92 -339.91c-57.97,-31.03 -14.07,18.88 -44.33,-112.65 -5.34,-23.21 -11.41,-36.13 -18.42,-60.19 -7.11,-24.42 -7.79,-43.77 -14.86,-64.34 -57.82,-168.24 -140.5,-321.61 -251.45,-459.91 -13.22,-16.49 -24.29,-26.55 -37.85,-40.83 -13.82,-14.55 -25.75,-24.87 -39.8,-39.03 -7.48,-7.54 -9.79,-10.83 -18.06,-18.69 -125.4,-119.29 -294.08,-234.89 -455.48,-296.31 -59.9,-22.79 -122.73,-36.08 -186.39,-52.16 -53.81,-13.6 -109.07,-16.58 -165.38,-29.01 -63.27,-13.97 -87.87,-11.66 -151.98,-11.66 -87.5,0 -125.45,14.34 -210.28,31.44 -26.66,5.38 -50.72,6.09 -75.36,11.84l-125.14 37.78c-23.56,7.24 -34.81,14.91 -57.73,21.05l-117.83 47.8c-8.3,4.2 -19.07,11.77 -25.86,15.83 -11.16,6.67 -16.73,8.05 -28.02,14.55l-68.78 45.36c-21.95,18.29 -56.86,31.22 -76.3,51.54 -47.26,49.39 -106.2,83.58 -151.67,134.12l-132.09 159.76c-21.5,25.18 -46.28,70.25 -65.32,98.39 -58.52,86.49 -82.89,189.29 -121.48,287.23 -41.39,105.06 -59.68,234.52 -59.67,355.4z"/>
   <path class="fil0" d="M517.51 1679.41c44.91,0.89 62.15,6.48 81.72,16.96l-76.29 24.02c-25.22,4.4 -71.29,9.8 -95.51,10.24l-73.57 10.47c-1.68,78.37 37.02,135.85 63.55,197.84 23.4,54.69 3.05,21.67 32.13,58.6l68.35 108.05c48.93,67.27 54.21,82.19 121.72,139.82 36.53,31.18 14.78,20.44 89.77,80.18 54.38,43.32 156.34,108.3 219.49,133.5 36.94,14.74 67.92,36.82 125.9,50.67 38.03,9.09 33.24,4.86 65.38,18.78 110.56,47.89 373.16,35.58 473.81,16.51 54.58,-10.35 157.19,-38.34 206.92,-65.05l51.51 -21.38c20.46,-7.43 29.78,-16.56 55.91,-28.87 54.15,-25.52 90.85,-55.82 131.81,-86.88 21.9,-16.6 48.65,-13.68 2.29,-56.65l-150.69 -153.02c-21.9,-21.55 -42.6,-43.9 -66.87,-57.29 -18.22,8.05 -3.78,-1.51 -17.68,9.61 1.66,73 -3.91,184.14 -16.16,256.72 -3.04,18.01 -1.55,34.6 -3.87,52.09 -10.73,81.18 -183.99,91.33 -231.45,38.39 -29.36,-32.74 -22.07,-37.27 -17.86,-80.95 3.43,-35.47 7.42,-66.66 10.89,-98.25 7.57,-69.02 12.65,-132.81 20.15,-198.05 3.61,-31.36 13.81,-61.68 -10.04,-87.18 -15.61,-16.69 -37.38,-37.2 -53.76,-55.62 -11.72,-13.17 -16.01,-16.09 -26.99,-27.77 -7.82,-8.3 -14.78,-20.66 -23.25,-31.85l-103.48 -114.86c-19.52,-20.59 -37.01,-48.26 -54.98,-53.75 -19.86,15.9 -235.89,396.04 -255.12,403.19 -30.55,-1.02 -185.58,-67.74 -222.66,-84.3 -69.01,-30.82 -146.16,-49.23 -192.68,-104.9 -26.15,-31.3 -22.36,-88.23 -0.07,-119.77 46.73,-66.14 142.84,-6.19 219.7,20.71 27.02,9.46 88.75,34.79 110.67,34.51 17.43,-21.39 36.36,-68.91 49.87,-94.3l150.66 -287.3c10.73,-39.28 11.04,-39.72 -16.46,-68.13l-322.27 -315.36c-16.11,-15.44 -7.12,-14.52 -36.02,-15.61 -57.02,5.32 -202.02,28.29 -241.56,25.88 0.66,-68.38 -1.79,-72.66 21.78,-76.5 14.25,-2.33 -4.05,-0.92 10.95,-0.8l71.76 13.62c34.14,6.43 65.17,9.22 99.63,12.01l23.72 -5.64 -41.83 -43.36c-35.13,-38.74 -89.24,-97.72 -130.26,-131.08 -81.98,-66.66 -59.78,-112.59 -188.84,124.59 -9.24,16.99 -19.72,23.03 -27.72,43.37l-55.48 171.4c-27.05,107.24 -44.7,290.23 -28.82,405.4l14.67 93.51c5.88,29.61 -2.54,16.8 14.48,29.82 9.85,-17.92 6.62,-33.98 9.14,-58.82 28.12,-7.51 148.61,12.77 163.91,22.83z"/>
   <path class="fil0" d="M1073.9 935.43l90.95 -77.71c31.06,-25.98 122.45,-1.1 168.61,2.67l306.92 30.78c40.26,4.12 121.06,2.3 147.04,24.06 68.4,57.27 89.64,131.34 121.6,219.34 20.75,57.12 37.58,145.87 48.29,205.61 14.71,82.09 -13.49,48.32 73.09,97.05l110.92 58.81c12.71,6.77 42.2,19.24 52.8,33.29 49.79,66.01 12.83,227.84 -117.85,154.03l-219.14 -120.38c-31.55,-17.31 -38.07,-7.85 -65.31,-105.18 -11.96,-42.73 -31.59,-99.24 -46.15,-130.86 -28.31,5.16 -27.38,7.53 -39.14,30.28l-74.38 125.12c-3.48,39.17 29.01,53.49 60.66,86.35l72.05 73.6c23.98,23.27 23.6,32.84 68.08,37.27 28.87,2.68 120.08,15.36 142.68,37.74l-102.44 12c-7.16,14.63 -4.71,7.9 -7.48,19.02 48.5,28.71 200.45,192.35 250.5,241.3l101.76 98.92c49.5,52.37 44.73,61.55 71.12,33.74 0.86,-0.91 2.07,-2.28 2.91,-3.22l61.88 -96.24c53.72,-75.45 71.41,-151.76 101.05,-234.04 80.98,-224.84 70.59,-562.3 -42.05,-776.27 -10.07,-19.14 -13.65,-25.61 -21.9,-45 -30.21,-71.01 -213.37,-327.2 -267.43,-336.99 7.51,23.47 34.89,38.72 46.97,78.41 10.21,33.53 10.76,86.18 0.44,122.59 -37.22,131.3 -228.58,175.58 -325.51,55.98 -20.24,-24.98 -34.35,-52.52 -40.47,-86.82 -9.86,-55.17 4.4,-71.35 16.22,-113.08 44.22,-105.69 143.45,-102.98 234.63,-99.65 -7.9,-19.39 -7.82,-21.54 -27.07,-35.87l-103 -61.09c-23.88,-10.83 -48.22,-22.24 -72.39,-36.34l-166.79 -58.2c-168.09,-40.59 -326.82,-53.98 -502.15,-15.95 -97.45,21.14 -195.22,57.61 -284.15,103.92l-138.61 86.02c-39.32,33.35 -43.45,32.75 4.72,77.95l45.23 39.93c21.02,19.42 3.69,11.14 63.73,63.94l104.87 107.19c30.3,35.08 63.74,76.89 93.69,75.98z"/>
   <path class="fil2" d="M1073.9 935.43l-1.19 20.21c25.65,13.86 84.75,84.34 118.59,112.26 7.03,5.8 3.33,3.16 10.54,7.84 0.5,0.32 11.61,6.33 11.71,6.39 33.3,-1.78 88.64,-5.93 118.01,6.57l-3.39 50.22 -9.39 61.16c26.7,17.25 17,9.56 36.32,31.69 14.67,16.81 19.95,18.75 35.51,37.61 19.55,23.71 51.58,49.54 75.16,70.79 12.36,11.14 4.99,4.25 15.16,14.98l19.11 17.78c15.01,12.46 22.05,21.16 36.74,36.04 13.01,13.18 21.84,24.23 35.02,37.67 24.61,25.1 7.76,-3.79 36.13,37.77l24.22 -2.07 74.38 -125.12c11.76,-22.75 10.83,-25.12 39.14,-30.28 14.56,31.62 34.19,88.13 46.15,130.86 27.24,97.33 33.76,87.87 65.31,105.18l219.14 120.38c130.68,73.81 167.64,-88.02 117.85,-154.03 -10.6,-14.05 -40.09,-26.52 -52.8,-33.29l-110.92 -58.81c-86.58,-48.73 -58.38,-14.96 -73.09,-97.05 -10.71,-59.74 -27.54,-148.49 -48.29,-205.61 -31.96,-88 -53.2,-162.07 -121.6,-219.34 -25.98,-21.76 -106.78,-19.94 -147.04,-24.06l-306.92 -30.78c-46.16,-3.77 -137.55,-28.65 -168.61,-2.67l-90.95 77.71z"/>
   <path class="fil2" d="M1176.73 1452.28l-150.66 287.3c-13.51,25.39 -32.44,72.91 -49.87,94.3 -21.92,0.28 -83.65,-25.05 -110.67,-34.51 -76.86,-26.9 -172.97,-86.85 -219.7,-20.71 -22.29,31.54 -26.08,88.47 0.07,119.77 46.52,55.67 123.67,74.08 192.68,104.9 37.08,16.56 192.11,83.28 222.66,84.3 19.23,-7.15 235.26,-387.29 255.12,-403.19 17.97,5.49 35.46,33.16 54.98,53.75l103.48 114.86c8.47,11.19 15.43,23.55 23.25,31.85 10.98,11.68 15.27,14.6 26.99,27.77 16.38,18.42 38.15,38.93 53.76,55.62 23.85,25.5 13.65,55.82 10.04,87.18 -7.5,65.24 -12.58,129.03 -20.15,198.05 -3.47,31.59 -7.46,62.78 -10.89,98.25 -4.21,43.68 -11.5,48.21 17.86,80.95 47.46,52.94 220.72,42.79 231.45,-38.39 2.32,-17.49 0.83,-34.08 3.87,-52.09 12.25,-72.58 17.82,-183.72 16.16,-256.72 -2.64,-49.83 3.59,-36.17 -61.61,-97.66l-164.95 -163.07c-17.14,-20.29 -17.86,-24.26 -37.75,-40.83 -21.94,-18.29 -25.06,-28.54 -41.54,-43.81 -31.76,-29.44 -34.24,-21.87 -84.3,-79.86 -12.27,-14.2 -24.82,-27.11 -40.06,-38.61l-164.81 -163.29c-20.53,-20.6 -31.8,-31.05 -55.41,-6.11z"/>
   <path class="fil2" d="M1821.19 687.6c-11.82,41.73 -26.08,57.91 -16.22,113.08 6.12,34.3 20.23,61.84 40.47,86.82 96.93,119.6 288.29,75.32 325.51,-55.98 10.32,-36.41 9.77,-89.06 -0.44,-122.59 -12.08,-39.69 -39.46,-54.94 -46.97,-78.41 -14.4,-2.8 -143.18,-95.9 -251.65,-1.16 -20.53,17.95 -31.62,39.65 -50.7,58.24z"/>
   <path class="fil3" d="M1258.34 2092.24c52.69,2.14 260.5,-19.87 280.49,-37.84 -28.5,-13.07 -233.89,-46.7 -275.87,-41.66l-4.62 79.5z"/>
   <path class="fil3" d="M1521.46 627.93c47.55,4.31 257.19,-18.29 280.35,-36.51 -30.41,-11.98 -235.31,-46.53 -277.88,-36.92l-2.47 73.43z"/>
   <path class="fil3" d="M710.25 1609.35c42.7,4.66 112.93,-16.65 192.96,-22.93 11.2,-0.87 21.45,-1.28 32.04,-2.38 3.85,-0.4 13.06,-1.39 16.4,-2.15l20.08 -7.37c-10.48,-22.61 -41.33,-16.1 -78.9,-21.58 -20.34,-2.96 -57.93,-12.37 -76.94,-16.64 -92.16,-20.71 -114.26,-29.08 -105.64,73.05z"/>
   <path class="fil2" d="M1222.61 2388.61l247.15 -30.13c8.43,-3.09 6.71,-3.09 11.24,-6.43 -5.86,-13.97 17.59,-12.65 -55.3,-17.94 -62.14,-4.51 -125.67,-29.73 -199,-29.16l-4.09 83.66z"/>
   <path class="fil2" d="M814.05 1406.98c56.8,-0.38 88.73,-10.54 143.92,-14.33 51.89,-3.56 88.81,-9.59 132.71,-19.64 -37.6,-18.56 -88.84,-11.66 -135.08,-22.87l-66.96 -12.66c-23.91,-3.41 -42.27,-9.35 -71.72,-7.55l-2.87 77.05z"/>
   <path class="fil2" d="M1232.69 781.5c46.09,0.23 91.52,-7.61 132.84,-13.38 18.73,-2.61 109.12,-14.45 122.46,-25.79 -22.69,-10.8 -213.28,-38.56 -251.94,-38.15l-3.36 77.32z"/>
   <path class="fil2" d="M801.98 1053.18c0.76,-0.74 10.29,-13.36 10.37,-13.45 -26.04,-2.4 -31.3,-0.27 -47.81,-12.34 -34.46,-2.79 -65.49,-5.58 -99.63,-12.01l-71.76 -13.62c-15,-0.12 3.3,-1.53 -10.95,0.8 -23.57,3.84 -21.12,8.12 -21.78,76.5 39.54,2.41 184.54,-20.56 241.56,-25.88z"/>
   <path class="fil2" d="M645.14 2172.07c79.19,5.07 169.7,-23.4 244.37,-28.79 -16.74,-17.37 2.85,-4.87 -25.63,-16.18l-94.06 -14.78c-45.93,-5.21 -73.22,-24.02 -120.43,-19.94l-4.25 79.69z"/>
   <path class="fil2" d="M427.43 1730.63c24.22,-0.44 70.29,-5.84 95.51,-10.24l76.29 -24.02c-19.57,-10.48 -36.81,-16.07 -81.72,-16.96 -29.42,-2.66 -51.28,-6.73 -79.76,-10.98 -43.7,-6.53 -57.43,-17.81 -77.82,-2.79l-5.94 67.95 73.44 -2.96z"/>
   <path class="fil4" d="M1328.17 1138.92l3.39 -50.22c-29.37,-12.5 -84.71,-8.35 -118.01,-6.57 1.98,27.9 37.41,47.93 67.94,77.6 21.63,21.02 -1.46,15.04 28.8,20.2l17.88 -41.01z"/>
   <path class="fil5" d="M1873.18 1729.3l102.44 -12c-22.6,-22.38 -113.81,-35.06 -142.68,-37.74l-24.46 7.61c16.17,22.31 32.38,35.22 64.7,42.13z"/>
  </g>
 </g>
</svg>
