<?xml version="1.0" encoding="UTF-8"?>
<!DOCTYPE svg PUBLIC "-//W3C//DTD SVG 1.1//EN" "http://www.w3.org/Graphics/SVG/1.1/DTD/svg11.dtd">
<!-- Creator: CorelDRAW 2017 -->
<svg xmlns="http://www.w3.org/2000/svg" xml:space="preserve" width="50.7998mm" height="33.8666mm" version="1.1" style="shape-rendering:geometricPrecision; text-rendering:geometricPrecision; image-rendering:optimizeQuality; fill-rule:evenodd; clip-rule:evenodd"
viewBox="0 0 5079.98 3386.66"
 xmlns:xlink="http://www.w3.org/1999/xlink">
 <defs>
  <style type="text/css">
   <![CDATA[
    .str0 {stroke:#373435;stroke-width:7.62;stroke-miterlimit:22.9256}
    .fil42 {fill:#020204}
    .fil45 {fill:#02090C}
    .fil61 {fill:#040309}
    .fil46 {fill:#04FB6D}
    .fil50 {fill:#050506}
    .fil44 {fill:#073856}
    .fil60 {fill:#07425B}
    .fil54 {fill:#153B53}
    .fil53 {fill:#194459}
    .fil39 {fill:#1B7A9C}
    .fil23 {fill:#201752}
    .fil14 {fill:#28196C}
    .fil48 {fill:#286987}
    .fil34 {fill:#29364D}
    .fil51 {fill:#29728C}
    .fil13 {fill:#352A6C}
    .fil52 {fill:#35D178}
    .fil19 {fill:#433972}
    .fil63 {fill:#444043}
    .fil75 {fill:#48556D}
    .fil70 {fill:#635C66}
    .fil1 {fill:#6B6A74}
    .fil62 {fill:#74B18F}
    .fil77 {fill:#7C7984}
    .fil73 {fill:#847C88}
    .fil25 {fill:#89946F}
    .fil9 {fill:#8F9689}
    .fil71 {fill:#93A892}
    .fil4 {fill:#98959A}
    .fil0 {fill:#993697}
    .fil31 {fill:#A59AA5}
    .fil18 {fill:#A6A6A9}
    .fil28 {fill:#AA9DAA}
    .fil36 {fill:#ABA8B4}
    .fil6 {fill:#AD8F95}
    .fil33 {fill:#ADA2AD}
    .fil57 {fill:#AFB6AD}
    .fil26 {fill:#B2A5B2}
    .fil35 {fill:#B2A7AB}
    .fil3 {fill:#B39AAC}
    .fil29 {fill:#B4AAB5}
    .fil69 {fill:#B4B3BC}
    .fil22 {fill:#B7ABB8}
    .fil24 {fill:#BAAEBA}
    .fil21 {fill:#BBB2BD}
    .fil37 {fill:#BEBDCA}
    .fil32 {fill:#BEC2C4}
    .fil17 {fill:#C1B5C3}
    .fil58 {fill:#C1BDDB}
    .fil40 {fill:#C1BECA}
    .fil41 {fill:#C1BECE}
    .fil56 {fill:#C1BED0}
    .fil55 {fill:#C1BFCD}
    .fil59 {fill:#C2C1CA}
    .fil68 {fill:#C2C2C5}
    .fil15 {fill:#C4BBC5}
    .fil74 {fill:#C5BCCC}
    .fil16 {fill:#C69094}
    .fil30 {fill:#C699A6}
    .fil27 {fill:#C77C86}
    .fil20 {fill:#CBC2CD}
    .fil67 {fill:#CCABB6}
    .fil64 {fill:#CCCAB5}
    .fil66 {fill:#D2C5D3}
    .fil12 {fill:#D9CDDA}
    .fil65 {fill:#E1D6DA}
    .fil72 {fill:#E5DAE5}
    .fil2 {fill:#E7DBE8}
    .fil8 {fill:#E8E8E9}
    .fil5 {fill:#EADDEB}
    .fil10 {fill:#EDE2ED}
    .fil38 {fill:#EDE8F5}
    .fil47 {fill:#EDEE86}
    .fil49 {fill:#EEEF8E}
    .fil7 {fill:#EFEEEF}
    .fil11 {fill:#F2E5F3}
    .fil76 {fill:#F6EAF9}
    .fil43 {fill:#FBEFFD}
    .fil78 {fill:#FEFEFE;fill-rule:nonzero}
    .fil79 {fill:#09A19B;fill-rule:nonzero}
   ]]>
  </style>
 </defs>
 <g id="Capa_x0020_1">
  <metadata id="CorelCorpID_0Corel-Layer"/>
  <g id="_2149941061968">
   <polygon class="fil0" points="-0.01,2220.27 5079.99,2220.27 5079.99,2557.18 -0.01,2557.18 "/>
   <path class="fil1" d="M4542.34 997.31l12.37 -13.38 -20.65 -2.02c3.88,6.98 4.95,9.14 8.28,15.4z"/>
   <path class="fil1" d="M4467.61 2414.16c18.46,13.07 6.72,2.09 11.87,0 -6.25,-3.17 12.12,-14.39 -11.87,0z"/>
   <path class="fil2" d="M4620.85 1644.44l-3.64 -1.12 -4.15 14.1c10.88,-1.28 6.03,8.7 12.63,-3.35 6.37,-11.59 0.31,-5.21 -4.84,-9.63z"/>
   <path class="fil2" d="M4225.82 1579.4l-12.39 5.04c1.74,10.15 -8.2,4.87 10.06,12.94l2.33 -17.98z"/>
   <path class="fil2" d="M4576.81 1325.81c4.2,18.48 9.78,6.3 14.34,-1.5 -9.34,-3.47 -3.2,-7 -14.34,1.5z"/>
   <path class="fil3" d="M4596.26 2246.16l-14.84 -1.25c3.68,20.59 10.31,21.58 14.84,1.25z"/>
   <path class="fil3" d="M4484.73 914.41c3.24,4.09 -2.15,13.35 19.33,4.83 -7.3,-6.87 3.34,-5.09 -9.96,-7.26 -9.64,-1.58 -3.91,-0.23 -9.37,2.43z"/>
   <path class="fil4" d="M4428.23 933.7c1,0.5 -0.14,7.79 10.32,1.8 12.12,-6.94 2.77,0.59 6.4,-10.67 -11.53,-0.92 -16.61,-3.59 -16.72,8.87z"/>
   <path class="fil4" d="M4339.79 2521.26l14.24 -1.89c-1.94,-6.58 1.46,-9.6 -5.78,-10.69 -13.49,-2.05 -9.18,1.01 -8.46,12.58z"/>
   <path class="fil4" d="M4128.35 2273.95c11.45,-5.51 6.98,5.6 7.74,-12.11 -10.75,0.54 -17.51,-0.27 -7.74,12.11z"/>
   <path class="fil5" d="M4696.26 1298c-6.06,-0.14 -7.18,1.89 -10.88,3.32 2.56,2.08 6.41,6.79 12.81,7.78 31.65,4.88 5.28,2.29 16.17,-4.08 -4.66,-3.1 -0.15,-6.61 -18.1,-7.02z"/>
   <path class="fil5" d="M4821.09 1623.8c0.11,-8.46 -5.38,-6.64 -13.35,-8.09l-0.29 17.29c9.82,-2.19 13.51,0.91 13.64,-9.2z"/>
   <path class="fil5" d="M4584.44 2106.6c-4.23,-19.4 4.53,-13.71 -16.23,-16.51 3.67,16.08 0.06,10.79 16.23,16.51z"/>
   <path class="fil5" d="M4673.77 1550.68c19.18,0.05 14.1,7.37 13.33,-12.48 -11.94,1.93 -6.91,-7.48 -13.33,12.48z"/>
   <path class="fil6" d="M4582.2 2287.85l16.99 0.63c0.35,-22.11 6.43,-8.46 -7.9,-17.74 -12.13,7.21 -10.17,-3.16 -9.09,17.11z"/>
   <path class="fil6" d="M4292.3 2210.81c17.62,-9.17 13.35,-11.41 0,-19.47 -6.78,7.79 -8.28,-10.84 -5.97,10.25 1.95,17.84 -1.57,2.75 5.97,9.22z"/>
   <path class="fil6" d="M4614.75 2264.67c2.02,1.52 -8.66,16.96 18.27,0 -5.79,-10.63 7.28,-8.44 -8.05,-9.1 -20.38,-0.88 -4.97,3.59 -10.22,9.1z"/>
   <path class="fil6" d="M4663.7 2496.14c5.83,12.05 3.04,10.81 13.75,4.83 -4.8,-13 -0.12,-12.89 -13.75,-4.83z"/>
   <path class="fil7" d="M4263.68 1612.43c-4.51,-1.52 -8.07,-9.27 -16.64,0.82 -13.27,15.64 -1.02,9.31 6.68,13.99 12.07,-9.7 2.66,3.43 9.96,-14.81z"/>
   <path class="fil7" d="M4300.77 1621.16l-13.24 -0.16c-1.62,27.21 -2.62,-7.84 -0.36,11.46l5.13 7.95c15.19,-8.74 9.96,9.78 8.47,-19.25z"/>
   <path class="fil8" d="M4367.64 1607.03l-1.95 19.53c16.71,-8.17 17.72,-5.98 16.87,-28.75 -14.12,3.55 -6.83,-0.24 -14.92,9.22z"/>
   <polygon class="fil8" points="4369.04,1530.59 4381.48,1531.78 4380.72,1511.76 4363.25,1515.18 "/>
   <path class="fil8" d="M4341.31 1618.71l-14.7 4.14c2.97,12.54 -0.48,15.5 13.92,13.86 3.66,-8.3 11.68,11.93 0.78,-18z"/>
   <path class="fil8" d="M4388.14 1577.89c22.02,3.96 8.31,2.02 13.84,-2.82 -1.76,-19.42 2.84,-8.52 -10.28,-13.84l-3.56 16.66z"/>
   <path class="fil9" d="M4853.3 2066.05c-26.99,-3.9 -4.52,-6.92 -22.52,-4.6 -0.88,11.28 -1.14,13.84 6.46,22.6 19.69,-5.43 10.24,1.04 16.06,-18z"/>
   <path class="fil9" d="M4824.04 2126.85c-4.05,-19.91 2.73,-17.57 -19.93,-15.02 -0.88,21.99 1.47,20.31 19.93,15.02z"/>
   <path class="fil9" d="M4932.59 1214.66c-10.61,-0.27 -6.95,4.21 -10.23,8.38 24.11,17.4 22.6,0.97 24.19,0 -11.79,-10.29 15.58,-7.63 -13.96,-8.38z"/>
   <path class="fil9" d="M4454.05 2483.89c20.95,-1.91 6.38,1.69 16.7,-7.04 0,0 -1.12,-10.89 -9.22,-7.28 -12.79,5.72 -4.75,2.24 -7.48,14.32z"/>
   <path class="fil9" d="M4398.48 948.17c15.67,7.36 14.44,2.62 19.34,-10.12 -11.11,0.7 -19.07,-0.26 -19.34,10.12z"/>
   <path class="fil9" d="M4375.85 960.17c22.25,-7.1 5.85,5.37 15.33,-14.62 -10.69,2.6 -4.68,-4.39 -10.87,4.11 -0.72,0.98 -3.42,9.29 -4.46,10.51z"/>
   <path class="fil9" d="M4201.78 2211.63c12.15,8.95 -18.01,11.4 7.04,4.27l6.04 -4.27c-7.8,-5.98 13.47,-7.55 -6.06,-3.4 -0.56,0.11 -2.84,0.83 -3.41,0.99 -0.69,0.18 -2.3,1.78 -3.61,2.41z"/>
   <path class="fil10" d="M4707.05 1141.72l-3.55 -4.87 -15.05 1.2 -7.98 12.68c11.77,7.71 11.21,7.7 28.12,5.66l-1.54 -14.67z"/>
   <path class="fil10" d="M4873.86 1388.9c21.14,7.58 14.59,6.83 19.43,-11.55 -0.21,-0.08 -1.32,-13.5 -16.94,-0.02 -5.9,5.09 -2.58,6.18 -2.49,11.57z"/>
   <path class="fil10" d="M4258.14 1888.55l-0.78 19.21c17.93,-1.59 17.17,-0.33 18.1,-17.17l-17.32 -2.04z"/>
   <path class="fil10" d="M4526.88 1501.91c-7.19,1.23 -30.81,2.85 -15.05,15.56 12.75,10.27 13.64,-8.35 15.05,-15.56z"/>
   <path class="fil10" d="M4789.01 1671.92c16.44,-8.27 16.95,-2.66 4.82,-19.44 -12.37,7.91 -16.05,4.33 -4.82,19.44z"/>
   <path class="fil10" d="M4633.42 1817.46c10.91,-0.77 4.43,7.84 13.01,-3.28 11.7,-15.18 0.85,-7.65 0.31,-9.88 -16.27,-0.5 -9.8,-4.13 -13.32,13.16z"/>
   <path class="fil10" d="M4639.52 1575.35c17.04,-11.49 12.01,-8.11 0,-19.2l-4.77 8.46c1.09,11.93 -1.85,3.82 4.77,10.74z"/>
   <path class="fil10" d="M4808.3 1595.77c6.86,-14.66 10.62,-8.27 -4.83,-15.32 -6.16,12.12 -7.1,8.33 4.83,15.32z"/>
   <path class="fil10" d="M4605.92 1615.05l11.24 -2.19c-1.49,-12.4 3.74,-7.79 -9.26,-13.13l-1.98 15.32z"/>
   <path class="fil11" d="M4157.59 1452.97l-0.57 9.03c7.23,4.02 9.31,5.03 19.38,7.09 4.69,-15.09 7.14,-10.25 0.17,-24.58 0,0 -1.91,-7.27 -18.98,8.46z"/>
   <path class="fil11" d="M4430.24 1105.92l-5.53 0.33c2.12,24.71 1.54,10.35 7.44,16.2l8.13 -4.9c-2.62,-21.32 3.79,-5.64 -10.04,-11.63z"/>
   <path class="fil11" d="M4142.62 1573.73l2.67 20.79c12.23,-15.71 8.68,-7.09 6.42,-24.27l-9.27 -2.94 0.18 6.42z"/>
   <path class="fil11" d="M4745.31 1692.58c19.86,-3.13 12.48,6.26 15.31,-15.97 -19.64,3.81 -12.38,-2.76 -15.31,15.97z"/>
   <path class="fil12" d="M4846.17 1651.14c6.04,5.31 7.35,6.02 15.17,9.63 20.54,-19.89 9.13,-10.41 -0.84,-18.26l12.87 -0.34c-0.06,-0.03 0.11,-8.62 -17.35,-5.56 -16.37,2.87 -7.99,2.49 -9.85,14.53z"/>
   <path class="fil12" d="M4770.49 1557.09c12.38,4.39 3.93,6.5 17.03,-1.31 -11.55,-22.89 -12.83,-6.97 -17.03,1.31z"/>
   <path class="fil13" d="M4267.56 2124.14l-21.65 -21.33c-7.92,14.56 -21.44,35.04 3.57,27.56l12.62 -4.78c1.53,-0.5 3.61,-1.08 5.46,-1.45z"/>
   <path class="fil13" d="M4713.68 956.38l-9.45 -0.23c-9.07,29.45 -20.7,10.12 -6.84,29.44 15.8,-4.97 5.84,3.96 12.02,-11.98 0.47,-1.2 0.58,-2.87 0.93,-4.05l3.34 -13.18z"/>
   <path class="fil13" d="M4694.8 2251.43c2.64,2.34 4.48,5.51 9.09,6.28 26.78,4.47 4.68,1.76 14.71,-2.69 -7.62,-11.36 7.54,-6.61 -11.09,-7.85 -4.09,-0.28 -12.21,3.71 -12.71,4.26z"/>
   <path class="fil13" d="M4688.87 2306.16c11.42,-3.64 8.27,-1.29 11.99,-11.52 -14.09,-7.52 -22.41,-4.56 -11.99,11.52z"/>
   <path class="fil13" d="M4451.44 2430.95c9.48,-16.99 2.76,-8.59 -4.82,-13.35 -4.74,9.8 -17.66,9.4 4.82,13.35z"/>
   <path class="fil13" d="M4454.24 2452.74l6.51 2.61c0.49,0.09 2.75,0.28 3.15,-0.76 0.44,-1.15 2.03,-1.27 3.08,-1.85 -7.1,-5.03 -6.17,-4.56 -12.74,0z"/>
   <path class="fil14" d="M4807.23 1068.73c19.53,10.16 34.05,17.01 30.46,-14.63 -14.19,0.06 -2.84,-4.1 -17.49,2.41 -5.73,2.53 -9.35,5.3 -12.97,12.22z"/>
   <path class="fil14" d="M4244.09 2183.02c55.03,-7.45 -31.88,-45.68 0,0z"/>
   <path class="fil15" d="M4491.55 1475.27c11.39,6.49 -13.78,6.14 12.44,4.64 8.6,-0.49 4.81,-0.73 11.8,-4.37 1.85,-25.57 -25.82,-33.5 -24.24,-0.27z"/>
   <path class="fil15" d="M4602.55 1623.14l3.37 -8.09 1.98 -15.32c13,5.34 7.77,0.73 9.26,13.13l14.51 -13.68c-3.96,-4.57 -6.13,-11.33 -19.89,-8.41 -8.83,1.88 -10.05,6.26 -14.74,13.24 -0.03,18.09 -3.07,7.14 5.51,19.13z"/>
   <path class="fil15" d="M4527.63 1471.86c1.55,6.09 3.97,19.21 15.86,19.44 11.93,0.23 21.05,-18.73 -0.14,-21.65 -1.2,-0.17 -15.37,2.04 -15.72,2.21z"/>
   <path class="fil15" d="M4496.91 1790.72c9.68,8.44 6.23,7.84 22.46,7.3 0.93,-30.63 -13.21,-27.68 -22.46,-7.3z"/>
   <path class="fil16" d="M4859.89 1119.27c1.88,3.32 -2.72,22.87 30.31,21.14 17.59,-0.92 1.07,1.57 8.76,-4.18 -8.47,-14.81 2.06,-4.63 -16.43,-11.37 -16.32,-5.92 -4.72,-3.62 -22.64,-5.59z"/>
   <path class="fil16" d="M4105.91 1954.82c10.73,17.52 4.31,13.91 22.05,10.27 1.36,-20.67 3.93,-11.8 -9.26,-20.28l-12.79 10.01z"/>
   <path class="fil17" d="M4586.04 1128.03c-16.35,-3.5 -35.2,1.89 -22.12,16.27 11.79,12.99 29.12,7.54 22.12,-16.27z"/>
   <path class="fil17" d="M4384.82 1700.02c23.42,4.98 27.25,-5.49 24.46,-25.09 -19,2.76 -21.18,6.07 -24.46,25.09z"/>
   <path class="fil17" d="M4731.14 1779.16c29.12,-2.24 24.62,-26.08 -1.87,-24.54 -1.77,5.08 -3.21,-6.97 -2.7,12.68 0.31,12.04 -0.85,1.56 4.57,11.86z"/>
   <path class="fil17" d="M4616.73 1887.15c-18,-6.02 -9.53,-5.05 -22.01,1.33l0.37 15.78c14.93,5.27 26.34,4.54 21.64,-17.11z"/>
   <path class="fil17" d="M4352.14 1324.31c11.82,16.23 16.44,13.41 25.84,0.72 -6.07,-5.42 2.68,-5.31 -9.21,-6.09 -23.44,-1.54 -9.13,0.71 -16.63,5.37z"/>
   <path class="fil18" d="M4204.45 1563.04l10.93 -6.89 10.55 9.25 1.59 -13.29c-27.47,0.43 -16.59,4.17 -21.54,-13.09 13.78,-7.02 3.32,-3.37 19.8,-1.06l3.79 -12.23 -28.03 4.37c-4.51,20.55 -5.57,14.89 2.91,32.94z"/>
   <path class="fil18" d="M4369.04 1530.59l15.39 15.15c0.64,0.57 1.86,1.59 2.44,2.11 0.57,0.53 1.84,1.88 2.29,2.33 0.48,0.46 1.47,1.71 2.21,2.58 2.81,-13.36 5.11,-12.63 2.63,-25.98 -2.56,-13.79 -7.02,-12.19 -13.28,-15.02l0.76 20.02 -12.44 -1.19z"/>
   <path class="fil19" d="M4800.49 2173.05c8.02,11.28 0.26,7.67 12.63,22.84 0.87,-1.34 2.24,-4.79 2.46,-4.1l2.79 -18.28c0.57,-12.73 -0.01,-13.03 2.54,-27.18 -20.34,6.1 -8.38,-3.43 -15,10.1l-5.42 16.62z"/>
   <path class="fil19" d="M4954.45 1253.9c1.98,-15.42 0.9,-12.33 -9.72,-6.58 5.07,6.87 0.6,5.45 9.72,6.58z"/>
   <path class="fil19" d="M4139.65 2043.93c-3.93,-12.44 4.65,-8.27 -9.61,-8.37l9.61 8.37z"/>
   <path class="fil20" d="M4233.01 1408.16c0.58,-8.7 1.63,-13.39 -0.87,-23.18 -5.44,-21.26 2.25,-8.47 -12.17,-16.42 -16.09,16.77 -15.04,35.4 13.04,39.6z"/>
   <path class="fil20" d="M4677.69 2053.61c7.18,-4.75 9.48,-6.66 17.61,-11.91l0.04 -16.9 -17.15 4c-6.48,6.46 -4.76,-8.93 -4.33,12.4 0.03,1.24 3.39,10.87 3.83,12.41z"/>
   <path class="fil20" d="M4630.13 1247.16c20.11,15.46 18.6,9.23 24.91,-12.27 -17.23,-2.18 -20.97,-4.51 -24.91,12.27z"/>
   <path class="fil20" d="M4378.98 1268.72l0.41 -20.52c-11.56,-1.13 -13.12,-9.9 -18.15,5.55 -5.03,15.53 16.01,14.48 17.74,14.97z"/>
   <path class="fil21" d="M4253.76 2023.36c18.53,-8.92 17.25,-7.51 24.49,-24.58l-9.75 -12.82c-18.91,5.39 -9.55,1.4 -19.47,10.76l4.73 26.64z"/>
   <path class="fil21" d="M4304.62 1747.5c-15.48,-6.39 -8.09,15.52 -8.08,15.64 23.94,13.76 41.73,-4.01 19.88,-20.46l-11.8 4.82z"/>
   <path class="fil21" d="M4171.91 1356.08c1.6,-0.17 8.35,-0.96 9.47,-1.39 23.13,-8.98 17.22,-27.88 4.04,-40.58l-13.51 41.97z"/>
   <path class="fil21" d="M4517.98 1449.69c8.23,14.2 25.15,24.53 27.8,4.18 2.34,-17.87 -24.08,-15.63 -27.8,-4.18z"/>
   <path class="fil21" d="M4171.67 1899.41c5.03,-20.5 2.65,-0.67 5.07,-16.73 1.12,-7.44 2.67,-2.32 0.21,-12.87 -3.4,-14.61 -11.23,-13.72 -20.36,-16.14l15.08 45.74z"/>
   <path class="fil21" d="M4577.89 1725.63c0.38,-0.88 10.98,-4.67 -0.24,-15.8 -9.92,-9.86 -7.88,-4.18 -17.88,-2.37 -2.39,20.66 0.31,23.4 18.12,18.17z"/>
   <path class="fil21" d="M4450.58 1707.43c24.55,-1.95 11.58,5.53 19.91,-11.8 -0.22,-0.15 -2.17,-11.12 -13.01,-4.54 -11.05,6.74 -4.93,2.25 -6.9,16.34z"/>
   <path class="fil21" d="M4427.23 1212.41c14.73,-2.39 13.18,-1.19 18.1,-13.48l-7.44 -10.43 -10.66 23.91z"/>
   <path class="fil22" d="M4473.42 1386.03l23.87 1.1c8.49,-15.55 5.8,-15.91 2.57,-29.04l-23.95 -0.42 -2.49 28.36z"/>
   <path class="fil22" d="M4714.71 1244.22l26.27 -2.31c0.85,-7.91 3.99,-3.05 0.87,-13.92 -5.37,-18.68 -3.47,-13 -19.42,-13.71 -8.62,12.84 -5.79,9.27 -7.72,29.94z"/>
   <path class="fil23" d="M4928.9 1280.24c3.12,14.77 4.29,11.95 9.85,23.96 1.93,4.14 4.05,11.12 5.53,14.05 7.24,14.29 5.15,9.17 10.86,15.65 -2.36,-18.41 -5.83,-21.82 -8.62,-36.07 -3.99,-20.37 3.55,-5.47 0.89,-31.72l-20.36 0.12 -0.88 4.12 2.73 9.89z"/>
   <path class="fil23" d="M4139.65 2043.93c-4.91,23.61 -1.23,8.56 3.16,14.98 16.29,-5.67 4.9,3.67 10.68,-11.25l-13.84 -3.73z"/>
   <path class="fil23" d="M4382.25 2525.07c-7.8,-11.31 -3.11,-13.48 -14.32,0 1.85,1.08 -5.02,15.64 14.32,0z"/>
   <path class="fil23" d="M4229.62 2145.9c6.31,-10.63 7.19,14.98 2.69,-5.67 -0.08,-0.33 -0.7,-2.24 -0.79,-2.57 -0.1,-0.38 -1.4,-1.53 -1.9,-2.43 -1.77,2 -19.47,5.02 0,10.67z"/>
   <path class="fil24" d="M4740.79 1920c23.11,-0.97 32.17,-10.35 19.29,-31.83 -13.93,-1.56 -12.05,-14.65 -22.78,7.48 -5.64,11.64 2.59,22.59 3.49,24.35z"/>
   <path class="fil24" d="M4793.83 1652.48c12.13,16.78 11.62,11.17 -4.82,19.44 -11.23,-15.11 -7.55,-11.53 4.82,-19.44zm-20.24 13.23l6.49 13.5 24.63 -0.38 7.26 -29.09 -21.66 -6.27c-12.01,8.57 -12.53,5.59 -16.72,22.24z"/>
   <path class="fil24" d="M4505.39 1613.71l28.57 2.33c-0.37,-16.85 1.19,-25.46 -15.43,-25.28 -13.91,0.14 -13.69,10.2 -13.14,22.95z"/>
   <path class="fil24" d="M4375.07 2094.59c23.33,-3.07 11.45,-0.97 28.74,-10.44 -7.66,-34.27 -24.04,-22.05 -28.74,10.44z"/>
   <path class="fil24" d="M4464.43 1279.13c3.8,-8.11 5.75,0.79 4.32,-13.16 -1.15,-11.06 -2.34,-7.81 -5.34,-12.82 -26.78,1.33 -30.48,31.24 1.02,25.98z"/>
   <path class="fil25" d="M4800.4 998.96c-1.79,9.19 -1.3,16.43 3.76,25.81 7.95,14.79 6.01,11.32 24.53,11.07 1.38,-32.47 -10.1,-38.52 -24.2,-38.06 -0.94,0.03 -2.72,0.79 -4.09,1.18z"/>
   <path class="fil25" d="M4288.44 994.11c17.3,-4.11 7.15,-1.42 21.26,-9.47 5.71,-3.26 11.61,-5.75 19.34,-9.3l3.23 -17.17 -15.85 0.44c-10.45,12.06 -16.65,23.02 -27.98,35.5z"/>
   <path class="fil25" d="M4567.51 879.88l-19.85 -1.26c-5.06,7.79 -4.97,1.33 -5.92,12.29 -1.78,20.93 0.46,7.48 2.33,13.01 1.41,0.26 3.53,-0.55 4.23,0.8 0.66,1.28 3.18,0.56 4.05,0.35 7.96,-1.88 5.44,1.21 10.55,-3.98 7.07,-7.18 5.06,-8.69 4.61,-21.21z"/>
   <path class="fil25" d="M4541.84 929.4c29.55,1.65 32.76,-15.85 6.05,-22.01 -8.96,12.3 -8.37,0.85 -6.05,22.01z"/>
   <path class="fil25" d="M4768.39 2111.39l20.19 6.37c4.21,-7.83 3.46,-2.98 4.88,-12.3 0.36,-2.36 -0.39,-7.26 -0.2,-14.16 -18,7.63 -15.28,2.62 -24.87,20.09z"/>
   <path class="fil25" d="M4533.92 2494c19.82,2.89 24.18,-1.12 20.64,-19.23l-18.73 -1.82 -1.91 21.05z"/>
   <path class="fil25" d="M4175.43 2489.41c3.58,27.1 -3.08,9.94 10.79,19.01 3.39,-2.33 15.66,0.71 8.71,-15.57 -3.88,-9.07 -13.44,-6.52 -19.5,-3.44z"/>
   <path class="fil26" d="M4814.68 1799.85c21.87,-7.43 38.31,-14.76 23.14,-41.52 -27.73,-9.08 -28.5,22.57 -23.14,41.52z"/>
   <path class="fil26" d="M4162.1 1739.87c17.23,-4.45 11.89,0.12 15.8,-19.13 2.15,-10.54 3.53,-14.66 0.46,-26.95l-15.4 -2.34c-9.61,15.92 -16.09,32.2 -0.86,48.42z"/>
   <path class="fil26" d="M4893.29 1377.35c-4.84,18.38 1.71,19.13 -19.43,11.55 -0.09,-5.39 -3.41,-6.48 2.49,-11.57 15.62,-13.48 16.73,-0.06 16.94,0.02zm11.65 24.01c-6.08,-19.03 -5.72,-29.41 -17.85,-44.5 -17.23,8.31 -22.12,10.49 -20.81,34.96 12.82,14.46 15.51,16.77 38.66,9.54z"/>
   <path class="fil26" d="M4258.14 1888.55l17.32 2.04c-0.93,16.84 -0.17,15.58 -18.1,17.17l0.78 -19.21zm0 0c-2.82,4.26 -5.57,-11.04 -5.57,14.42 0,24.65 17.65,19.96 32.39,11.96 4.37,-24.83 3.02,-24.75 -16.76,-34.84 -18.61,5.88 -5.39,1.19 -10.06,8.46z"/>
   <path class="fil26" d="M4278.08 1406.77c12,5.97 24.14,4.14 27.16,-14.02 -20.92,-7.61 -27.41,-9.26 -27.16,14.02z"/>
   <path class="fil26" d="M4232.77 1334.15c9.23,4.59 -11.78,6.11 11.29,3.9 23.69,-2.28 11.03,-20.32 9.66,-23.34l-4.77 5.5c-0.54,0.85 -4.78,8.83 -4.86,8.99l-4.83 -15.25c-6,8.02 -9.1,9.58 -6.49,20.2z"/>
   <path class="fil27" d="M4310.36 1029.19c-10.38,25.29 5.05,19.73 24.01,13.69 13.99,-4.44 13.85,-1.95 25.07,-4.05 25.16,-4.73 11.89,-1.79 15.47,-13.51 -21.39,-7.33 -7.71,4.33 -28.22,3.52 -17.59,-0.7 -16.34,-8.71 -36.33,0.35z"/>
   <polygon class="fil27" points="4194.78,1123.43 4209.51,1120.69 4224.52,1082.97 4197.64,1094.61 "/>
   <path class="fil27" d="M4502.13 971.84l8.08 33.64c3.58,-26.4 8.49,-10.64 11.29,-24.74 2.98,-14.93 -7.26,-12.56 -19.37,-8.9z"/>
   <path class="fil28" d="M4591.15 1324.31c-4.56,7.8 -10.14,19.98 -14.34,1.5 11.14,-8.5 5,-4.97 14.34,-1.5zm-23.94 -9.35c-6.85,20.19 0.3,27.98 14.83,36.45 41.93,-17.51 19.42,-38.94 -0.41,-39.33 -15.1,-0.29 -12.65,2.34 -14.42,2.88z"/>
   <path class="fil28" d="M4807.74 1615.71c7.97,1.45 13.46,-0.37 13.35,8.09 -0.13,10.11 -3.82,7.01 -13.64,9.2l0.29 -17.29zm-13 18.86c11.52,11.42 7.45,10.7 28.02,9.46 5.13,-7.07 18.52,-24.55 5.79,-30.4 -25.84,-5.04 -7.79,-3.82 -25.02,0l-9.88 2.08 1.09 18.86z"/>
   <path class="fil28" d="M4685.38 1301.32c3.7,-1.43 4.82,-3.46 10.88,-3.32 17.95,0.41 13.44,3.92 18.1,7.02 -10.89,6.37 15.48,8.96 -16.17,4.08 -6.4,-0.99 -10.25,-5.7 -12.81,-7.78zm-7.26 14.55c12.48,6.38 18.16,8.01 34.66,-0.2 9.13,-4.53 2.39,-1.25 8.33,-5.51l-11.29 -20.98c-23.61,0.68 -40.19,-0.47 -31.7,26.69z"/>
   <path class="fil28" d="M4348.87 1950.3c-8.74,22.15 -11.27,30.6 17.24,31.08 7.52,-23.14 7.47,-27.1 -17.24,-31.08z"/>
   <path class="fil28" d="M4206.7 1798.48c0.82,1.38 1.74,5.12 2.15,5.9l5.84 6.99c-11.19,-7.45 -9.16,9.48 -9.16,9.48 20.75,2.7 17.52,4.98 23.82,-14.31 -11.13,-11.92 -1.92,-9.4 -22.65,-8.06z"/>
   <path class="fil29" d="M4803.47 1580.45c15.45,7.05 11.69,0.66 4.83,15.32 -11.93,-6.99 -10.99,-3.2 -4.83,-15.32zm-15.3 -1.78c2.33,19.55 -0.15,12.42 12.73,31.2 0.66,0.97 1.79,2.47 2.63,3.76 17.23,-3.82 -0.82,-5.04 25.02,0 -6.99,-14.6 -3.13,-4.43 -4.44,-19.46 -1.26,-14.32 5.22,-1.7 -3.26,-21.57 -18.94,-2.32 -18.72,2.43 -32.68,6.07z"/>
   <path class="fil29" d="M4526.88 1501.91c-1.41,7.21 -2.3,25.83 -15.05,15.56 -15.76,-12.71 7.86,-14.33 15.05,-15.56zm-19.51 29.54c18.64,-4.3 14.13,-1.58 24.1,-14.25 -1.77,-12.51 -11.21,-29.2 -29.44,-20.97 -24.35,10.99 -2.7,24.44 5.34,35.22z"/>
   <path class="fil29" d="M4376.44 1451.37l-12.22 -12.36 2.53 21.47c22.05,-1.02 26.34,-6.8 24.4,-26.91 -28.65,10.96 2.28,-3.69 -14.71,17.8z"/>
   <path class="fil29" d="M4537.16 2023.94c-13.25,-4.65 -4.72,-0.3 -11.98,0.86 -0.45,6.77 -0.73,6.1 0.18,13.4l3.24 8.44c16.99,-6.19 9.76,-1.63 18.95,-13.44 -6.22,-8.33 9.18,-2.4 -10.39,-9.26z"/>
   <path class="fil29" d="M4806.6 1377.35c-1.29,-0.79 -2.98,-3.75 -3.82,-2.46l-18.39 -3.29c0.52,10.83 -4.57,14.28 6.7,19.26 18.13,8.02 13.25,-2.43 15.51,-13.51z"/>
   <path class="fil30" d="M5006.43 1440.09l-26.32 0.45c-7.69,4.67 -8.88,-7.27 -2.01,12.18 2.17,6.13 6.25,12.04 9.34,20.22 6.32,16.65 7.91,33.87 13,46.19l5.99 -79.04z"/>
   <path class="fil30" d="M4625.87 895.98c1.9,17.34 2.73,24.02 21.98,21.15 1.83,-17.41 1.01,-8.25 -3.54,-21.99l-18.44 0.84z"/>
   <path class="fil31" d="M4584.44 2106.6c-16.17,-5.72 -12.56,-0.43 -16.23,-16.51 20.76,2.8 12,-2.89 16.23,16.51zm2.03 -30.07c-10.85,0.74 -15,-0.06 -24.51,9.25 -6.88,6.71 -10.91,12.91 -7.95,23.07 7.56,25.85 30.39,6.66 41.01,-0.63l-8.55 -31.69z"/>
   <path class="fil31" d="M4722.72 1546.13c5.45,-5.14 2.66,-22.6 16.26,-0.52 -6.11,5.06 1.93,12.02 -16.26,0.52zm-10.47 -6.6l9.1 24.57 25.9 -1.05c18.27,-0.78 -3.84,-68.07 -35,-23.52z"/>
   <path class="fil31" d="M4157.59 1452.97c17.07,-15.73 18.98,-8.46 18.98,-8.46 6.97,14.33 4.52,9.49 -0.17,24.58 -10.07,-2.06 -12.15,-3.07 -19.38,-7.09l-3.61 16.6c11.47,-0.27 -1.34,0.04 10.54,3.33 16.53,4.58 0.54,5.07 22.8,1.17 9.49,-28.39 8.43,-48.52 -25.01,-49.04l-4.15 18.91z"/>
   <path class="fil31" d="M4787.52 1555.78c-13.1,7.81 -4.65,5.7 -17.03,1.31 4.2,-8.28 5.48,-24.2 17.03,-1.31zm-27.63 6.5l15.35 10.47 14.34 -1.59c14.74,-12.65 11.88,-18.98 6.3,-32.1l-29.52 -2.9 -6.47 26.12z"/>
   <path class="fil31" d="M4142.44 1567.31l9.27 2.94c2.26,17.18 5.81,8.56 -6.42,24.27l-2.67 -20.79c-7.26,14.77 -4.41,21.96 -4.49,41.72 1.08,-0.85 2.77,-3.51 3.27,-2.54l16.14 -13.26c14.72,-13.62 11.29,-10.93 10.34,-31.56 -8.81,-5.09 -14.13,-7.46 -25.73,-11l0.29 10.22z"/>
   <path class="fil31" d="M4274.83 1187.97c-5.2,15.13 -7.57,23.97 -0.33,39.87 9.04,-0.25 8.7,4.26 15.7,-6.65 5.7,-8.88 16.68,-55.03 -15.37,-33.22z"/>
   <path class="fil31" d="M4829.44 1272.38c-1.39,0.9 -3.33,0.68 -3.98,2.99 -2.33,8.15 -12.87,15.34 -24.75,15.9 2.62,-14.2 -2.42,-8.31 13.31,-18.72l-13.69 -7.89c-6.07,16.05 -24.35,27.28 -3.74,37.85 20.69,10.62 31.03,-11.54 32.85,-30.13z"/>
   <path class="fil31" d="M4617.16 1612.86l-11.24 2.19 -3.37 8.09c13.67,8.39 20.08,3.18 32.84,1.15l-0.11 -21.93 -3.61 -3.18 -14.51 13.68z"/>
   <path class="fil31" d="M4624.13 1476.86c2.37,21.22 -0.68,25.26 16.61,22.77 3.66,-7.03 10.03,9.97 2.35,-9.83 -0.52,-1.34 -6.26,-6.08 -6.64,-6.35 6.52,-3.07 10.66,-2.81 7.47,-12.21l-19.79 5.62z"/>
   <path class="fil31" d="M4647.23 1964.38c-11.82,-31.62 -23.5,-13.45 -23.55,-13.43 0.34,0.53 0.15,1.68 0.27,1.87l9.46 8.57c0.32,-0.85 1.8,1.22 2.57,1.99 -5.69,2.12 -9.19,3.87 -6.11,13.96 18.36,-5.89 6.72,1.75 17.36,-12.96z"/>
   <path class="fil31" d="M4725.25 1452.12c4.26,19.79 -1.68,15.89 21.69,17.6 5.66,-9.24 1.62,1.56 4.57,-15.21l-16.56 -1.53c-11.05,-2.42 0.33,-4.62 -9.7,-0.86z"/>
   <path class="fil32" d="M4853.3 2066.05c-5.82,19.04 3.63,12.57 -16.06,18 -7.6,-8.76 -7.34,-11.32 -6.46,-22.6 18,-2.32 -4.47,0.7 22.52,4.6zm-49.05 10.52c28.76,-0.77 -0.8,18.83 37.87,14.7 22.49,-2.4 19.6,-15.07 11.18,-25.22l4.23 -7.31c-17.66,-11.9 -16.65,-3.31 -22.82,-21.03 -6.64,4.68 -3.61,1.8 -9.4,7.42 -0.34,0.33 -6.09,6.62 -6.94,7.69 -7.18,8.97 -8.8,13.14 -14.12,23.75z"/>
   <path class="fil32" d="M4722.81 2090.2c7.75,5.94 9.92,13.33 31.15,-10.1 3.76,-4.16 6.29,-7.25 11.81,-11.89l15.79 -17.33c-11.65,6.5 -54.23,29.17 -58.75,39.32z"/>
   <path class="fil33" d="M4646.43 1814.18c-8.58,11.12 -2.1,2.51 -13.01,3.28 3.52,-17.29 -2.95,-13.66 13.32,-13.16 0.54,2.23 11.39,-5.3 -0.31,9.88zm-19.93 24.51c24.7,-0.85 29.12,-6.74 39.72,-18.96 -3.2,-35.11 -23.59,-35.58 -45.2,-21.27l5.48 40.23z"/>
   <path class="fil33" d="M4539.95 1197.11c-12.59,5.86 -9.58,8.18 -25.89,10.83 0.34,-14.29 -4.52,-4.75 3.67,-14.73 0.66,-0.81 1.97,-1.68 2.74,-2.4l6.53 -4.18c0.76,-0.52 2.42,-1.21 3.54,-1.96 -77.67,2.04 1.03,81.08 9.41,12.44z"/>
   <path class="fil33" d="M4717.07 1144.93l-10.02 -3.21 1.54 14.67c-16.91,2.04 -16.35,2.05 -28.12,-5.66l7.98 -12.68c-7.5,-7.89 11,-3.16 -13.93,-7.52l-5.54 19.95c17.02,19.48 17.93,20.37 44.55,15.63l3.54 -21.18z"/>
   <path class="fil33" d="M4846.17 1651.14l3.94 27.12 22.56 -0.13c6.62,-16.44 10.13,-18.86 0.7,-35.96l-12.87 0.34c9.97,7.85 21.38,-1.63 0.84,18.26 -7.82,-3.61 -9.13,-4.32 -15.17,-9.63z"/>
   <path class="fil33" d="M4430.24 1105.92c13.83,5.99 7.42,-9.69 10.04,11.63l-8.13 4.9c-5.9,-5.85 -5.32,8.51 -7.44,-16.2l-13.01 5.35c4.91,15.3 -1.63,4 5.87,14.2 16.38,5.96 14.56,7.81 29.87,1.63l7.66 -28.92 -24.86 7.41z"/>
   <path class="fil33" d="M4422.73 1820.85c18.51,-2.59 14.53,-1.45 23.98,-14.31 -6.43,-14.14 5.58,-2.83 -9.73,-12.05 -17.53,4.64 -17.91,7.75 -14.25,26.36z"/>
   <path class="fil33" d="M4615.41 1383.29c-50.18,30.45 49.71,33.87 0,0z"/>
   <path class="fil33" d="M4708.99 1883.02c3.37,-24.25 0.32,-4.07 -4.42,-12.41 -17.57,2.53 -14.17,5.47 -19.98,17.89 5.75,-0.46 4.81,0.94 8.84,3.42 26.51,16.25 -11.79,-3.42 7.43,5.28 7.3,-9.28 6.43,-1.99 8.13,-14.18z"/>
   <path class="fil33" d="M4385.42 1846.84c4.35,-2.78 6.74,-6.82 6.37,-11.65 -1.23,-16.09 -10.98,-9.83 -19.11,-6.78 -7.21,6.58 -2.57,15.49 -2.58,15.36 -0.01,-0.73 1.11,2.56 1.63,3.86l13.69 -0.79z"/>
   <path class="fil34" d="M4792.9 1972.31l-80.57 104.15c20.5,-2.21 22.79,-9.9 32.98,-24.49 37.01,-52.97 81.24,-47.94 94.54,-90.72 -15.52,4.9 -5.75,0.53 -14.07,7.44l-23.56 19.1c-11.04,-8.23 -9.05,12.09 -9.32,-15.48z"/>
   <path class="fil34" d="M4231.88 2496.14c16.67,14.05 10.54,0.93 11.89,0 -1.98,-1.33 4.38,-12.93 -11.89,0z"/>
   <path class="fil34" d="M4540.88 967.45l10.71 1.49c-3.14,-4.13 12.04,-17.01 -10.71,-1.49z"/>
   <path class="fil34" d="M4287.19 1051.48l10.92 -2.04c-1,-0.82 -2.29,-2.5 -2.79,-2.68 -21.2,-7.88 -1.54,-3.12 -8.13,4.72z"/>
   <path class="fil35" d="M4658.81 1687.28c-8.46,-6.58 -0.01,-14.03 0,-14.03 0.77,1.34 2.69,2.85 2.93,3.62 8,25.6 3.33,2.54 -2.93,10.41zm21.14 -16.59l-6.83 -12.25c-21.6,-3.49 -11.19,-3.48 -25.89,1.47 4.58,-11.89 0.78,-12.49 -6.53,-22.95 -11.66,-2.92 -19.85,-9.65 -19.85,7.48 5.15,4.42 11.21,-1.96 4.84,9.63 -6.6,12.05 -1.75,2.07 -12.63,3.35l4.15 -14.1c-2.62,-4.45 13.77,-12.52 -10.5,-0.76 -14.94,-1.46 -6.21,24.46 6.87,30.03 7.98,3.4 7.28,0.23 15.57,4.36l6.22 4.08c1.11,0.93 5.2,7.18 6.11,8.26 19.7,23.25 41.24,17.52 38.47,-18.6z"/>
   <path class="fil35" d="M4760.62 1676.61c-2.83,22.23 4.55,12.84 -15.31,15.97 2.93,-18.73 -4.33,-12.16 15.31,-15.97zm-66.86 -0.93c-14.58,25.73 6.81,37.94 26.43,30.72l12.99 -9.05c0.66,-0.52 1.78,-1.71 2.79,-2.42 29.52,21.08 44.98,6.66 33.68,-25.31 -6.79,-3.09 -6.08,-6.15 -22.2,-1.72 -6.41,1.77 -5.2,2.38 -10.15,5.05 -0.74,0.4 -2.59,3.05 -3.11,2.11 -0.53,-0.95 -1.99,1.56 -3.05,2.24 -7.8,-7.83 -26.22,-21.55 -37.38,-1.62z"/>
   <path class="fil35" d="M4639.52 1556.15c12.01,11.09 17.04,7.71 0,19.2 -6.62,-6.92 -3.68,1.19 -4.77,-10.74l4.77 -8.46zm-2.46 32.24l26.07 -8.06 -1.93 -24.02 -16.4 -8.38 -20.49 7.3 -2.98 23.33c9.65,8.32 4.54,4.01 15.73,9.83z"/>
   <path class="fil35" d="M4687.1 1538.2c0.77,19.85 5.85,12.53 -13.33,12.48 6.42,-19.96 1.39,-10.55 13.33,-12.48zm-16.71 27.49l29.28 -0.75 -0.49 -30.13c-21.04,-6.53 -20.76,-4.2 -34.43,6.68l5.64 24.2z"/>
   <path class="fil36" d="M4263.68 1612.43c-7.3,18.24 2.11,5.11 -9.96,14.81 -7.7,-4.68 -19.95,1.65 -6.68,-13.99 8.57,-10.09 12.13,-2.34 16.64,-0.82zm-37.86 -33.03l-2.33 17.98c-18.26,-8.07 -8.32,-2.79 -10.06,-12.94l12.39 -5.04zm161.55 19.52l-4.81 -1.11c0.85,22.77 -0.16,20.58 -16.87,28.75l1.95 -19.53c-9.36,7.47 -11.88,8.09 -26.33,11.68 10.9,29.93 2.88,9.7 -0.78,18 -14.4,1.64 -10.95,-1.32 -13.92,-13.86l-25.84 -1.69c1.49,29.03 6.72,10.51 -8.47,19.25l-5.13 -7.95c-2.26,-19.3 -1.26,15.75 0.36,-11.46 -11.49,-1.17 -4.59,-0.16 -14.01,-3.63 -7.93,-2.91 -0.83,-0.14 -9.84,-4.94 -11.58,-17.7 -8.77,2.59 -26.78,-16.46l-11.08 -16.57 0.11 -14 -10.55 -9.25 -10.93 6.89c9.97,2.41 4.87,4.94 10,9.59 -18.7,9.36 -15.54,8.62 -8.01,35.27l21.85 3.61c4.25,13.84 -5.05,16.17 12.77,23.82 10,4.31 19.48,-0.63 27.14,-5.85 0.62,0.84 1.14,1.39 1.39,2.8 1.88,11.41 8.13,16.3 22.58,16.31 17.69,0.01 20.27,-8.84 26.31,-18.46 0.5,4.34 -3.37,27.82 33.39,13.31 13.08,-5.17 0.36,-4.76 18.34,-7.81 20.85,-3.55 37.6,-11.23 17.16,-36.71z"/>
   <path class="fil36" d="M4391.7 1561.23c13.12,5.32 8.52,-5.58 10.28,13.84 -5.53,4.84 8.18,6.78 -13.84,2.82l0.55 15.5c28.1,-1.26 25.74,-17.6 21.08,-39.54l-18.4 -1.09 0.33 8.47z"/>
   <path class="fil37" d="M4316.4 2371.25l-97.52 3.37c-1.18,17.1 1.83,10.4 -6.8,24.64l-2.39 3.84c-4.96,7.54 12.25,7.32 -22.13,14.36 -16.09,3.29 4.49,-3.34 -13.85,1.53 0.74,19.19 -2.43,26.41 16.28,35.44l20.38 -0.7 14.61 -21.62c6.58,-5.94 -16.44,-5.95 20.39,-8.28 2.15,44.92 -25.78,25.92 -15.75,53.05 13.91,-4.33 -3.58,7.44 5.87,-7.65l5.36 -9.19c6.37,-8.93 13.91,-13.08 16.33,-20.39 5.57,-16.72 -3.98,-13.55 6.84,-32.94 12.75,-22.82 0.26,0.72 23.64,-16.66l-10.55 -6.31c-13.06,-9.27 -6.38,12.18 -8.89,-8.14 43.37,17.85 48.13,-4.3 48.18,-4.35z"/>
   <path class="fil37" d="M4933.76 1719.24c-1.41,7.49 -0.84,9.69 -4.45,18.9 -0.55,1.44 -2.4,5.59 -3.12,6.87 -8.68,15.33 -0.09,1.54 -7.1,9.06 0.65,16.25 -1.06,45.36 4.94,56.91 18.54,-8.39 3.55,-5.15 15.14,-57.38 12.23,-55.05 37.9,-92.64 31.46,-197.73 -6.72,24.9 -10.67,57.1 -15.64,83.67 -5.75,30.7 -15.15,54.4 -21.23,79.7z"/>
   <path class="fil38" d="M4420.79 919.27c32.79,-0.72 91.47,-33.35 126.87,-40.65l19.85 1.26 16.51 -1.74c8.85,33.38 21.26,22.99 41.85,17.84 6.12,-16.67 9.23,-11.61 12.62,-30.94 22.02,7.68 48.57,12.72 58.26,30.74 19.13,35.62 9.4,24.48 37.63,50.34 8.74,8.71 10.88,9.64 18.89,16.3l2.01 -4.27c-3.21,-16.32 -8.47,-22.2 -18.02,-30.59 -19.71,-17.28 -12.01,-8.86 -25.48,-31.96 -13.25,-22.72 -36.46,-40.21 -74.84,-36.53 -11.07,11.11 -18.23,28.32 -31.18,35.12 -17.95,-19.69 -3.57,-11.02 -14.47,-26.67 -47.33,1.72 -53.66,-2.39 -101.17,8.29 -27.82,6.25 -52.85,20.77 -69.33,43.46z"/>
   <path class="fil38" d="M4319.49 1499.61c19,-0.08 12.71,2.98 26.66,-6.52 -5.97,-15.38 5.63,-11.27 -23.29,-10.61l-3.37 17.13z"/>
   <path class="fil38" d="M4227.52 1552.11l-1.74 -14.15c-16.48,-2.31 -6.02,-5.96 -19.8,1.06 4.95,17.26 -5.93,13.52 21.54,13.09z"/>
   <path class="fil38" d="M4277.86 1490.88l12.32 1.82c3.84,-7.16 4.48,-8.32 6.75,-18.51l-16.9 0.29 -2.17 16.4z"/>
   <path class="fil39" d="M4118.79 1300.35c2.27,21.73 -17.77,57.99 -25.42,80.78 -12.15,36.25 -5.68,57.84 -3.1,93.72 1.93,3.36 2.21,1.39 6.19,12.82 0.49,1.41 2.54,10.58 2.65,11.07l31.37 -93.74c0.6,-0.85 1.65,-2.33 2.66,-3.32 -4.15,-32.59 60.57,-159.53 72.33,-190.93 7.74,-37.88 12.16,-32.28 24.24,-58.87 -46.18,32.74 -68.06,83.95 -95.4,129.92 -9.67,16.28 -2.77,8.47 -15.52,18.55z"/>
   <path class="fil39" d="M4625.86 1034.25l-65.14 -13.63 -19.96 7.6c-1.59,0.52 -6.22,1.74 -7.7,2.28 -12.51,4.59 -3.91,0.05 -10.99,5.11 57.59,18.39 88.52,40.2 164.57,27.12 -15.45,-15.21 -37.95,-18.03 -60.78,-28.48z"/>
   <path class="fil40" d="M4287.19 1051.48c6.59,-7.84 -13.07,-12.6 8.13,-4.72 0.5,0.18 1.79,1.86 2.79,2.68l-10.92 2.04zm23.17 -22.29c19.99,-9.06 18.74,-1.05 36.33,-0.35 20.51,0.81 6.83,-10.85 28.22,-3.52 -3.58,11.72 9.69,8.78 -15.47,13.51 -11.22,2.1 -11.08,-0.39 -25.07,4.05 -18.96,6.04 -34.39,11.6 -24.01,-13.69zm230.52 -61.74c22.75,-15.52 7.57,-2.64 10.71,1.49l-10.71 -1.49zm-165.03 -7.28c1.04,-1.22 3.74,-9.53 4.46,-10.51 6.19,-8.5 0.18,-1.51 10.87,-4.11 -9.48,19.99 6.92,7.52 -15.33,14.62zm22.63 -12c0.27,-10.38 8.23,-9.42 19.34,-10.12 -4.9,12.74 -3.67,17.48 -19.34,10.12zm185.82 -19.29c-14.21,5.21 -7.58,2.17 -12.71,-4.83 14.29,-7.48 7.77,-9.66 12.71,4.83zm-139.35 -4.05c-3.63,11.26 5.72,3.73 -6.4,10.67 -10.46,5.99 -9.32,-1.3 -10.32,-1.8 0.11,-12.46 5.19,-9.79 16.72,-8.87zm102.94 -17.44c26.71,6.16 23.5,23.66 -6.05,22.01 -2.32,-21.16 -2.91,-9.71 6.05,-22.01zm-63.16 7.02c5.46,-2.66 -0.27,-4.01 9.37,-2.43 13.3,2.17 2.66,0.39 9.96,7.26 -21.48,8.52 -16.09,-0.74 -19.33,-4.83zm141.14 -18.43l18.44 -0.84c4.55,13.74 5.37,4.58 3.54,21.99 -19.25,2.87 -20.08,-3.81 -21.98,-21.15zm0 0c-20.59,5.15 -33,15.54 -41.85,-17.84l-16.51 1.74c0.45,12.52 2.46,14.03 -4.61,21.21 -5.11,5.19 -2.59,2.1 -10.55,3.98 -0.87,0.21 -3.39,0.93 -4.05,-0.35 -0.7,-1.35 -2.82,-0.54 -4.23,-0.8 -1.87,-5.53 -4.11,7.92 -2.33,-13.01 0.95,-10.96 0.86,-4.5 5.92,-12.29 -35.4,7.3 -94.08,39.93 -126.87,40.65l-88.52 38.9 -3.23 17.17c-7.73,3.55 -13.63,6.04 -19.34,9.3 -14.11,8.05 -3.96,5.36 -21.26,9.47 -11.12,27.79 -49.92,65.3 -63.92,88.86l-15.01 37.72 -14.73 2.74 -8.27 35.32 13.12 -9.36c3.27,-10.49 3.86,-11.52 18.76,-19.76 85.46,-47.25 12.82,-31.89 174.78,-94.58l39.12 -17.51 -114.2 -11.99c54.29,-26.72 95.25,-7.64 131.93,1.9 16.96,4.41 28.43,0.38 47.51,0.15 -7.32,-24.65 -13.66,-31.75 -14.03,-60.16l18.63 24.4c12.11,-3.66 22.35,-6.03 19.37,8.9 -2.8,14.1 -7.71,-1.66 -11.29,24.74 11.34,6.85 6.12,4.54 22.83,3.9 5.32,-5.61 3.88,-3.3 9.3,-12.07 -3.33,-6.26 -4.4,-8.42 -8.28,-15.4l20.65 2.02c8.88,-10.92 13.16,-21.22 29.4,-24.28 -13,20.77 -19.53,33.19 -31.33,49.7 38.5,2.5 70.35,5.34 104.17,8.72 -12.82,-19.31 -16.04,-31.67 -23.94,-56.26 38.68,19.87 33.21,60.77 58.44,68.87l15.6 -24.67c-12.03,-9.3 -5.29,-2.68 -18.23,-7.79l-16.03 -8.31c-0.93,-2.32 -2.95,-2.01 -4.32,-3.17 6.29,-33.19 17.57,-29.03 35.76,-30.59l9.45 0.23c12.86,-16.84 -8.13,1.77 8.9,-7.49 2.38,-1.29 10.24,-2.41 11.8,-2.77 -28.23,-25.86 -18.5,-14.72 -37.63,-50.34 -9.69,-18.02 -36.24,-23.06 -58.26,-30.74 -3.39,19.33 -6.5,14.27 -12.62,30.94z"/>
   <path class="fil40" d="M4118.7 1944.81c13.19,8.48 10.62,-0.39 9.26,20.28 -17.74,3.64 -11.32,7.25 -22.05,-10.27l12.79 -10.01zm-19.88 25.68c10.93,15.85 -1.04,16.47 15.66,28.71l33.16 9.86c17.02,-9.89 2.87,-1.91 17.72,-13.19 -2.24,-30.79 -34.2,-88.58 -40.64,-132.47 -5.73,-39.12 3.19,-37.82 -11.88,-75.11 -8.47,-20.94 -8.1,-46.48 -20.91,-62.58l6.89 244.78z"/>
   <path class="fil40" d="M4804.16 1024.77c-5.06,-9.38 -5.55,-16.62 -3.76,-25.81 1.37,-0.39 3.15,-1.15 4.09,-1.18 14.1,-0.46 25.58,5.59 24.2,38.06 -18.52,0.25 -16.58,3.72 -24.53,-11.07zm-48.88 -66.62l-2.01 4.27c-15.74,13.1 6.38,-5.34 -7.67,5.97l-6.27 5.34c12.59,4.33 13.67,2.46 23.66,14.34l24.56 -18.16c-2.74,20.91 -19.17,27.63 -27.95,47.89 10.8,6.83 10.34,-1.45 6.87,12.35l1.27 5.68c0.04,0.35 0.32,2.07 0.36,2.49l0.23 10.09c-0.06,0.48 -0.11,1.86 -0.22,2.38 -2.93,13.28 -4.25,6.92 -12.49,22.74l20.7 -12.14c13.47,-11.01 0.1,10.7 2.76,-8.63 0.06,-0.43 -0.09,-2.09 0.29,-3.03 28.78,5.65 52.84,-12.59 61.65,-13.99 0.26,-0.04 1.46,-0.06 1.75,-0.06l3.92 0.69c0.4,0.06 1.76,0.52 2.18,0.55 11.39,0.87 11.05,-0.24 17.32,-6.75 -19.76,9.88 -1.39,1.86 -8.29,-1 -8.46,-3.51 15.8,8.24 -5.62,-2.93 -12.91,-6.73 1.14,-1.25 -10.19,-5.77 0,-18.62 -3.1,-2.68 10.46,-12.56 -20.49,-37.49 -60.48,-39.58 -58.01,-64.07 0.99,-9.92 -28.4,-16.86 -37.97,-19.11 7.65,9.55 16.06,25.86 17.83,40.97l-19.12 -7.55z"/>
   <path class="fil40" d="M4441.84 2240.94c16.53,-7.3 19.46,-13.19 36.1,-22 10.13,-5.35 28.18,-14.05 39.9,-19.8l-70.44 -2.26 -5.56 44.06z"/>
   <path class="fil41" d="M4104.24 2486.93c8.76,3.47 10.23,1.23 17.88,15 4.51,8.1 7.73,19.28 10.57,27.97l-13.47 13.41c-11.39,-15.21 -31.53,-31.6 -14.98,-56.38zm573.21 14.04c-10.71,5.98 -7.92,7.22 -13.75,-4.83 13.63,-8.06 8.95,-8.17 13.75,4.83zm-491.23 7.45c-13.87,-9.07 -7.21,8.09 -10.79,-19.01 6.06,-3.08 15.62,-5.63 19.5,3.44 6.95,16.28 -5.32,13.24 -8.71,15.57zm45.66 -12.28c16.27,-12.93 9.91,-1.33 11.89,0 -1.35,0.93 4.78,14.05 -11.89,0zm303.95 -23.19l18.73 1.82c3.54,18.11 -0.82,22.12 -20.64,19.23l1.91 -21.05zm-65.08 3.9c-10.32,8.73 4.25,5.13 -16.7,7.04 2.73,-12.08 -5.31,-8.6 7.48,-14.32 8.1,-3.61 9.22,7.28 9.22,7.28zm-37.97 -62.4c14.63,-12.71 39.13,-17.09 55.66,-1.19 -6.96,37.65 -3.01,8.98 -23.4,20.19 1.4,2.92 7.06,10.52 7.6,12.18l0.86 11.43c0.04,-0.74 -0.48,2.84 -0.96,3.3l-26.88 1.24c-4.63,-27.07 -0.86,-8.56 -9.39,-23.14 -9.18,-15.67 -5.47,-13.12 -3.49,-24.01zm-116.38 -43.2c-0.05,0.05 -4.81,22.2 -48.18,4.35 2.51,20.32 -4.17,-1.13 8.89,8.14l10.55 6.31c-23.38,17.38 -10.89,-6.16 -23.64,16.66 -10.82,19.39 -1.27,16.22 -6.84,32.94 -2.42,7.31 -9.96,11.46 -16.33,20.39l-5.36 9.19c-9.45,15.09 8.04,3.32 -5.87,7.65 -10.03,-27.13 17.9,-8.13 15.75,-53.05 -36.83,2.33 -13.81,2.34 -20.39,8.28l-14.61 21.62 -20.38 0.7c-18.71,-9.03 -15.54,-16.25 -16.28,-35.44 18.34,-4.87 -2.24,1.76 13.85,-1.53 34.38,-7.04 17.17,-6.82 22.13,-14.36l2.39 -3.84c8.63,-14.24 5.62,-7.54 6.8,-24.64 -54.2,0.86 -94.65,-6.73 -143.2,-8.67l-4.61 43.39c17.21,14.92 25.79,13.8 39.15,33.76 -7.4,14.22 -5.72,8.06 -15.62,19.17 -9.81,-3.15 -3.65,-0.25 -13.05,-6.47 -17.73,-11.72 -11.52,-17.46 -22.71,-11.4l-17.98 98.13c30.88,-4.64 44.26,-2.21 73.84,3.86l-21.33 7.62 158.45 0c20.17,-44.55 78.01,-111.46 136.26,-114.53 -11.29,9.38 -7.65,3.59 -13.59,17.59 31.27,17.91 50.44,54.67 64.82,96.94l258.29 0 94.46 -101.59 1.72 -14.08c-105.93,-0.81 -163.57,4.82 -258.84,-25.69 -39.64,-12.69 -67.4,-22.89 -109.82,-34.95 -71.41,-20.33 -36.34,-10.81 -108.72,-6.45z"/>
   <path class="fil41" d="M4700.86 2294.64c-3.72,10.23 -0.57,7.88 -11.99,11.52 -10.42,-16.08 -2.1,-19.04 11.99,-11.52zm-109.57 -23.9c14.33,9.28 8.25,-4.37 7.9,17.74l-16.99 -0.63c-1.08,-20.27 -3.04,-9.9 9.09,-17.11zm41.73 -6.07c-26.93,16.96 -16.25,1.52 -18.27,0 5.25,-5.51 -10.16,-9.98 10.22,-9.1 15.33,0.66 2.26,-1.53 8.05,9.1zm-51.6 -19.76l14.84 1.25c-4.53,20.33 -11.16,19.34 -14.84,-1.25zm122.47 12.8c-4.61,-0.77 -6.45,-3.94 -9.09,-6.28 0.5,-0.55 8.62,-4.54 12.71,-4.26 18.63,1.24 3.47,-3.51 11.09,7.85 -10.03,4.45 12.07,7.16 -14.71,2.69zm-356.61 76.06c13.49,5.93 18.97,-1.17 31.83,-1.14 94.09,0.19 208.26,66.29 298.79,67.37 21.5,0.25 42.06,-3.22 62.78,-0.84 24.14,2.77 32.3,5.68 60.16,6.06 -19.96,-79.77 -57.18,-183.54 -88.62,-255.62 -71.61,20.34 -60.77,26.12 -98.19,36.67 -95.92,27.03 -32.22,9.83 -92.72,46.9 -79.53,48.74 -69.49,6.27 -132.25,70.39 -16.01,16.35 -27.01,17.71 -41.78,30.21z"/>
   <path class="fil41" d="M4136.09 2261.84c-0.76,17.71 3.71,6.6 -7.74,12.11 -9.77,-12.38 -3.01,-11.57 7.74,-12.11zm65.69 -50.21c1.31,-0.63 2.92,-2.23 3.61,-2.41 0.57,-0.16 2.85,-0.88 3.41,-0.99 19.53,-4.15 -1.74,-2.58 6.06,3.4l-6.04 4.27c-25.05,7.13 5.11,4.68 -7.04,-4.27zm90.52 -20.29c13.35,8.06 17.62,10.3 0,19.47 -7.54,-6.47 -4.02,8.62 -5.97,-9.22 -2.31,-21.09 -0.81,-2.46 5.97,-10.25zm-48.21 -8.32c-31.88,-45.68 55.03,-7.45 0,0zm-14.47 -37.12c-19.47,-5.65 -1.77,-8.67 0,-10.67 0.5,0.9 1.8,2.05 1.9,2.43 0.09,0.33 0.71,2.24 0.79,2.57 4.5,20.65 3.62,-4.96 -2.69,5.67zm37.94 -21.76c-1.85,0.37 -3.93,0.95 -5.46,1.45l-12.62 4.78c-25.01,7.48 -11.49,-13 -3.57,-27.56 -15.57,-6.41 -11.25,-7.07 -21.11,-15.16 -15.48,16.13 -33.32,52.77 -65.56,77.56 -49.85,38.31 -25.91,34.21 -64.05,80.76 -22.92,27.96 -26.47,29.62 -18.49,79.92 72.1,14.57 167.87,15.28 244.54,16.82 6.67,-16.24 -5.76,-1.23 17.35,-26.56 40.95,-44.85 76.22,-66.35 83.02,-75.59 -5.24,-16.05 -55.04,-54.62 -70.76,-63.19 -30.31,-16.54 -76.49,-27.19 -83.29,-53.23z"/>
   <path class="fil41" d="M4944.73 1247.32c10.62,-5.75 11.7,-8.84 9.72,6.58 -9.12,-1.13 -4.65,0.29 -9.72,-6.58zm-22.37 -24.28c3.28,-4.17 -0.38,-8.65 10.23,-8.38 29.54,0.75 2.17,-1.91 13.96,8.38 -1.59,0.97 -0.08,17.4 -24.19,0zm-11.86 -48.22c4.23,-7.07 -8.11,-4.26 10.1,-9.15 21.5,-5.78 5.3,-1.04 14.27,1.09 -4.12,9.98 0.49,24.3 -24.37,8.06zm-50.61 -55.55c17.92,1.97 6.32,-0.33 22.64,5.59 18.49,6.74 7.96,-3.44 16.43,11.37 -7.69,5.75 8.83,3.26 -8.76,4.18 -33.03,1.73 -28.43,-17.82 -30.31,-21.14zm-39.69 -62.76c14.65,-6.51 3.3,-2.35 17.49,-2.41 3.59,31.64 -10.93,24.79 -30.46,14.63 3.62,-6.92 7.24,-9.69 12.97,-12.22zm-60.6 -38.71l-42.72 27.06c17.44,8.6 18.36,14.79 30.98,26.49 26.96,24.96 43.58,7.83 86.47,72.82 25.8,39.08 58.03,29 92.72,122.06l20.36 -0.12c2.66,26.25 -4.88,11.35 -0.89,31.72 2.79,14.25 6.26,17.66 8.62,36.07l8.16 23.07 12.64 55.48c4.94,-3.36 3.99,-1.72 8.98,-7.76 15.58,-18.88 11.62,-25.93 9.3,-38.73 -13.94,-76.81 -20.99,-80.82 -30.87,-176.71 -2.43,-23.68 -10.56,-30.79 -4.79,-47.02 0.12,-0.33 3.24,-1.84 -2.68,-17.95 -19.65,-53.52 -16.94,-36.45 -56.3,-46.06 -9.86,-2.41 -18.62,-1.29 -17.48,-14.08 1.76,-19.68 1.89,-1.99 22.8,-14.71 -12.75,-7.94 -14.4,-9.29 -26.42,-22.07 -4.16,-4.43 -6.63,-7.84 -12.02,-12.02 -1.05,-0.83 -4.27,-3.04 -5.33,-3.68 -9.28,-5.54 0.85,-1.3 -8.58,-3.75 -13.56,9.88 -10.46,-6.06 -10.46,12.56 11.33,4.52 -2.72,-0.96 10.19,5.77 21.42,11.17 -2.84,-0.58 5.62,2.93 6.9,2.86 -11.47,10.88 8.29,1 -6.27,6.51 -5.93,7.62 -17.32,6.75 -0.42,-0.03 -1.78,-0.49 -2.18,-0.55l-3.92 -0.69c-0.29,0 -1.49,0.02 -1.75,0.06 -8.81,1.4 -32.87,19.64 -61.65,13.99 -0.38,0.94 -0.23,2.6 -0.29,3.03 -2.66,19.33 10.71,-2.38 -2.76,8.63l-20.7 12.14c8.24,-15.82 9.56,-9.46 12.49,-22.74 0.11,-0.52 0.16,-1.9 0.22,-2.38l-0.23 -10.09c-0.04,-0.42 -0.32,-2.14 -0.36,-2.49l-1.27 -5.68c3.47,-13.8 3.93,-5.52 -6.87,-12.35z"/>
   <path class="fil41" d="M4800.49 2173.05l5.42 -16.62c6.62,-13.53 -5.34,-4 15,-10.1 -2.55,14.15 -1.97,14.45 -2.54,27.18l-2.79 18.28c-0.22,-0.69 -1.59,2.76 -2.46,4.1 -12.37,-15.17 -4.61,-11.56 -12.63,-22.84zm3.62 -61.22c22.66,-2.55 15.88,-4.89 19.93,15.02 -18.46,5.29 -20.81,6.97 -19.93,-15.02zm30.6 -74.12c6.17,17.72 5.16,9.13 22.82,21.03l-4.23 7.31c8.42,10.15 11.31,22.82 -11.18,25.22 -38.67,4.13 -9.11,-15.47 -37.87,-14.7l-10.99 14.73c-0.19,6.9 0.56,11.8 0.2,14.16 -1.42,9.32 -0.67,4.47 -4.88,12.3l-20.19 -6.37c-9.1,10.49 -8.68,7.52 -22.48,18.26 2.56,32.09 48.88,120.76 62.88,168.73 5.24,17.91 9.03,42.08 17.75,56.91 6.01,-36.45 1.52,-64.17 9.97,-101.59 13.87,-61.46 51.07,-234.38 53.79,-278.41 -9.47,10.94 -14.04,21.84 -25.11,32.78l-28.74 27.31c-0.32,0.41 -1.21,1.52 -1.74,2.33z"/>
   <path class="fil41" d="M4139.65 2043.93l13.84 3.73c-5.78,14.92 5.61,5.58 -10.68,11.25 -4.39,-6.42 -8.07,8.63 -3.16,-14.98zm0 0l-9.61 -8.37c14.26,0.1 5.68,-4.07 9.61,8.37zm25.71 -48.06c-14.85,11.28 -0.7,3.3 -17.72,13.19l-33.16 -9.86c-16.7,-12.24 -4.73,-12.86 -15.66,-28.71l-7.95 224.56c23.96,-19.6 58.62,-62.81 90.31,-94.66 12.97,-13.04 21.54,-17.13 32.92,-27.69l-48.74 -76.83z"/>
   <path class="fil41" d="M4367.93 2525.07c11.21,-13.48 6.52,-11.31 14.32,0 -19.34,15.64 -12.47,1.08 -14.32,0zm-19.68 -16.39c7.24,1.09 3.84,4.11 5.78,10.69l-14.24 1.89c-0.72,-11.57 -5.03,-14.63 8.46,-12.58zm-4.79 45.33l75.2 0c-19.26,-31.23 -34.73,-48.64 -53.1,-86.2 -28.71,12.17 -44.59,50.58 -81.14,64.87 22.37,17.96 36.46,5.72 59.04,21.33z"/>
   <path class="fil42 str0" d="M4061.97 2419.56c37.52,23.94 31.82,21.5 37.42,35.38 -1.68,-0.93 -4.05,-4.24 -4.93,-2.99 -5.1,7.19 -5.88,-4.2 -7.9,-5.82l-16.28 -12.17c-12.72,-14.1 5.06,18.06 -8.31,-14.4zm285.31 -85.79c14.77,-12.5 25.77,-13.86 41.78,-30.21 62.76,-64.12 52.72,-21.65 132.25,-70.39 60.5,-37.07 -3.2,-19.87 92.72,-46.9 37.42,-10.55 26.58,-16.33 98.19,-36.67 31.44,72.08 68.66,175.85 88.62,255.62 -27.86,-0.38 -36.02,-3.29 -60.16,-6.06 -20.72,-2.38 -41.28,1.09 -62.78,0.84 -90.53,-1.08 -204.7,-67.18 -298.79,-67.37 -12.86,-0.03 -18.34,7.07 -31.83,1.14zm-101.37 -230.96l21.65 21.33c6.8,26.04 52.98,36.69 83.29,53.23 15.72,8.57 65.52,47.14 70.76,63.19 -6.8,9.24 -42.07,30.74 -83.02,75.59 -23.11,25.33 -10.68,10.32 -17.35,26.56 -76.67,-1.54 -172.44,-2.25 -244.54,-16.82 -7.98,-50.3 -4.43,-51.96 18.49,-79.92 38.14,-46.55 14.2,-42.45 64.05,-80.76 32.24,-24.79 50.08,-61.43 65.56,-77.56 9.86,8.09 5.54,8.75 21.11,15.16zm201.49 94.07l70.44 2.26c-11.72,5.75 -29.77,14.45 -39.9,19.8 -16.64,8.81 -19.57,14.7 -36.1,22l5.56 -44.06zm-40.33 -11.02l30.33 7.24 -11.74 20.19 -18.59 -27.43zm203.08 -32.52c14.5,-14.77 62.34,-52.91 82.41,-61.43l6.91 29.21c-37.63,8.67 -41.28,27.88 -89.32,32.22zm112.66 -63.14c4.52,-10.15 47.1,-32.82 58.75,-39.32l-15.79 17.33c-5.52,4.64 -8.05,7.73 -11.81,11.89 -21.23,23.43 -23.4,16.04 -31.15,10.1zm45.58 21.19c9.59,-17.47 6.87,-12.46 24.87,-20.09l10.99 -14.73c5.32,-10.61 6.94,-14.78 14.12,-23.75 0.85,-1.07 6.6,-7.36 6.94,-7.69 5.79,-5.62 2.76,-2.74 9.4,-7.42 0.53,-0.81 1.42,-1.92 1.74,-2.33l28.74 -27.31c11.07,-10.94 15.64,-21.84 25.11,-32.78 -2.72,44.03 -39.92,216.95 -53.79,278.41 -8.45,37.42 -3.96,65.14 -9.97,101.59 -8.72,-14.83 -12.51,-39 -17.75,-56.91 -14,-47.97 -60.32,-136.64 -62.88,-168.73 13.8,-10.74 13.38,-7.77 22.48,-18.26zm15.77 -62.65c9.37,-14.08 25.99,-28.72 38.94,-44.21 11.49,-13.74 20.71,-32.54 32.4,-49.64 43.65,-63.91 36.17,-97.25 60.14,-104.12 17.31,35.5 -24.94,97.55 -40.56,118.91 -15.56,21.28 -65.95,62.31 -90.92,79.06zm-618.8 -52.87l48.74 76.83c-11.38,10.56 -19.95,14.65 -32.92,27.69 -31.69,31.85 -66.35,75.06 -90.31,94.66l7.95 -224.56 -6.89 -244.78c12.81,16.1 12.44,41.64 20.91,62.58 15.07,37.29 6.15,35.99 11.88,75.11 6.44,43.89 38.4,101.68 40.64,132.47zm536.34 33.02c-0.24,15.58 2.03,6.56 -6.4,12.81 -8.13,5.25 -10.43,7.16 -17.61,11.91 -4.24,9.79 1.85,-0.07 -5.53,7.76 -23.23,24.66 -96.58,73.39 -124.94,86.88 -41.46,19.73 -34.02,26.62 -87.85,16.84 -87.63,-15.92 -95.59,7.26 -165.29,-56.59 -54.7,-50.12 -118.42,-141.23 -122.41,-209.09l-15.08 -45.74c-31.74,-56.72 -17.44,-166.24 -18.46,-238.22 0.08,-19.76 -2.77,-26.95 4.49,-41.72l-0.18 -6.42 -0.29 -10.22 11.26 -78.49 3.61 -16.6 0.57 -9.03 4.15 -18.91 10.17 -77.98 13.51 -41.97c3.17,-30.16 25.02,-47.08 40.37,-70.72 18.21,-28.05 27.58,-38.02 48.96,-57.25 43.15,-38.8 72.15,-53.74 136.95,-74.54l13.01 -5.35 5.53 -0.33 24.86 -7.41c58.33,-17.58 160.39,20.87 219.42,32.02 24.93,4.36 6.43,-0.37 13.93,7.52l15.05 -1.2 3.55 4.87 10.02 3.21c26.96,6.9 80.22,70.8 99.41,94.12 19.24,23.36 63.44,87.24 70.61,117.81 12.13,15.09 11.77,25.47 17.85,44.5 1.84,70.85 -2.48,127.89 -13.86,194.13 -19.96,116.25 6.44,44.77 -38.39,168.42 -16.58,45.73 -50.48,144.3 -78.72,181.82l-72.27 83.16zm278.41 -588.35c6.63,-12.44 22.64,-20.53 23.38,-23.32 0.48,-1.74 1.98,-1.75 3.3,-2.6l-0.36 25.47 -5.99 79.04c-5.09,-12.32 -6.68,-29.54 -13,-46.19 -3.09,-8.18 -7.17,-14.09 -9.34,-20.22 -6.87,-19.45 -5.68,-7.51 2.01,-12.18zm-127.56 -432.63c9.43,2.45 -0.7,-1.79 8.58,3.75 1.06,0.64 4.28,2.85 5.33,3.68 5.39,4.18 7.86,7.59 12.02,12.02 12.02,12.78 13.67,14.13 26.42,22.07 -20.91,12.72 -21.04,-4.97 -22.8,14.71 -1.14,12.79 7.62,11.67 17.48,14.08 39.36,9.61 36.65,-7.46 56.3,46.06 5.92,16.11 2.8,17.62 2.68,17.95 -5.77,16.23 2.36,23.34 4.79,47.02 9.88,95.89 16.93,99.9 30.87,176.71 2.32,12.8 6.28,19.85 -9.3,38.73 -4.99,6.04 -4.04,4.4 -8.98,7.76l-12.64 -55.48c-4.1,6.54 -2.19,0.16 -4.1,11.49 -0.53,3.15 -0.68,9.73 -0.39,12.88 1.08,11.29 2.19,11.18 5.93,21.99 9.15,9.79 7.42,15.14 5.79,29.31 -5.23,45.48 15.79,60.93 -3.47,116.71 -12.57,36.42 -15,72.17 -22.52,108.12l-9.97 27.94 -0.81 33.83c6.08,-25.3 15.48,-49 21.23,-79.7 4.97,-26.57 8.92,-58.77 15.64,-83.67 6.44,105.09 -19.23,142.68 -31.46,197.73 -11.59,52.23 3.4,48.99 -15.14,57.38 -6,-11.55 -4.29,-40.66 -4.94,-56.91 -7.34,12 -65.71,156.52 -66.26,167.93l-11.26 36.6c-0.2,-0.65 -1.15,1.77 -1.72,2.65 -13.3,42.78 -57.53,37.75 -94.54,90.72 -10.19,14.59 -12.48,22.28 -32.98,24.49l80.57 -104.15c0.3,-4.93 -2.18,-0.67 1.74,-10.48 3.93,-9.86 3.5,-5.22 7.18,-9.37 30.55,-57.71 60.4,-135.1 87.45,-193.29 7.16,-19.11 15.49,-37.55 20.87,-57.37 5.32,-19.56 8.9,-45.69 13.56,-65.57 2.76,-67.24 21.26,-94.55 20.18,-210.8 -0.28,-30.84 -7.03,-40.92 -8.15,-63.18 -13.3,-10.2 -12.11,-15.02 -19.68,-30.45 -73.18,-149.3 -66.76,-102.98 -183.03,-206.98 -44.86,-40.14 -150.53,-46.86 -209.24,-40.98 -0.25,-0.64 0.27,-1.84 0.26,-2.05l-33.7 -6.59c-18.48,0.74 -39.88,-0.15 -54.44,2.98 -59,12.71 -122.71,33.62 -170.16,70.19 -47.94,36.96 -42.18,47.18 -60.27,62.38 -11.76,31.4 -76.48,158.34 -72.33,190.93 -8.76,51.86 -13.97,95.83 -20.65,147.04 -7.73,59.06 -2.12,126.59 -13.08,150.58 -7.46,-4.74 -1.75,2.6 -6.55,-6.92 -3.97,-7.87 -1.81,-2.52 -3.01,-11.04 -0.82,-5.81 -0.43,-22.22 -0.57,-29.01 -0.39,-19.89 -2.24,-38.01 -1.43,-57.97 1.78,-43.4 5.79,-75.27 2.42,-119.51 -2.58,-35.88 -9.05,-57.47 3.1,-93.72 7.65,-22.79 27.69,-59.05 25.42,-80.78 10.68,-32.03 23.99,-54.54 39.22,-81.2 9.74,-17.06 10.14,-22.46 18.15,-39.33 9.87,-20.81 14.49,-13.68 23.47,-30.43l-13.12 9.36 8.27 -35.32 2.86 -28.82 26.88 -11.64c14,-23.56 52.8,-61.07 63.92,-88.86 11.33,-12.48 17.53,-23.44 27.98,-35.5l15.85 -0.44 88.52 -38.9c16.48,-22.69 41.51,-37.21 69.33,-43.46 47.51,-10.68 53.84,-6.57 101.17,-8.29 10.9,15.65 -3.48,6.98 14.47,26.67 12.95,-6.8 20.11,-24.01 31.18,-35.12 38.38,-3.68 61.59,13.81 74.84,36.53 13.47,23.1 5.77,14.68 25.48,31.96 9.55,8.39 14.81,14.27 18.02,30.59l19.12 7.55c-1.77,-15.11 -10.18,-31.42 -17.83,-40.97 9.57,2.25 38.96,9.19 37.97,19.11 -2.47,24.49 37.52,26.58 58.01,64.07zm-806.93 1228l10.22 -1.68 3.82 -9.07c2.44,27.3 -16.34,132.08 -24.21,163.37 -13.6,54.09 11.3,101.4 -7.31,165.48l65.23 0 21.33 -7.62c-29.58,-6.07 -42.96,-8.5 -73.84,-3.86l17.98 -98.13c11.19,-6.06 4.98,-0.32 22.71,11.4 9.4,6.22 3.24,3.32 13.05,6.47 9.9,-11.11 8.22,-4.95 15.62,-19.17 -13.36,-19.96 -21.94,-18.84 -39.15,-33.76l4.61 -43.39c48.55,1.94 89,9.53 143.2,8.67l97.52 -3.37c72.38,-4.36 37.31,-13.88 108.72,6.45 42.42,12.06 70.18,22.26 109.82,34.95 95.27,30.51 152.91,24.88 258.84,25.69l17.48 -1.12 1.69 20.37c14.21,-13.67 20.69,-55.36 20.59,-70.63 -0.43,-62.37 27.83,-66.29 48.56,-184.11 3.49,-19.82 10.36,-32.26 15.35,-51.79 9.2,-36.01 13.76,-74.32 20.5,-109.5 6.6,-34.46 17.3,-75.37 26.91,-108.15 20.11,-68.62 39.57,-200.52 46.35,-223.9 9.77,-33.66 18.57,-66.71 27.22,-102.91 23.91,-100.06 20.29,-259.34 -8.91,-362.79 -14.64,-51.87 -10.07,-5.26 -29.36,-100.64 -15.66,-77.47 -19.09,-54.49 -41.85,-93.38 -24.5,-41.86 -17.01,-46.59 -52.21,-78.06 -38.61,-34.5 -104.12,-80.37 -154.62,-110.6 -28.29,-16.95 -57.46,-34.47 -100.39,-31.29 -85.35,6.32 -138.5,26.21 -211.86,57.17 -95.83,40.46 -93.61,18.74 -162.64,102.71 -10.94,13.32 -18.2,24.71 -28.67,38.76 -60.8,81.68 -33.22,50.25 -78.95,123.57 -104.53,167.62 -84.92,238.02 -82.96,452.04 0.35,38.6 -7.21,78.84 -7.89,120.35 -1.55,94.32 -5.53,166.65 3.55,260.41l-16.05 251.06z"/>
   <path class="fil42" d="M4697.6 2554.01l24.95 0c8.87,-9.48 10.76,-16.39 27.03,-22.9l-3.41 22.9 41.07 0c4.82,-26.44 14.87,-54.89 9.81,-81.58 -0.01,-1.4 -0.95,-11.88 -1.4,-13.98 -0.17,-0.83 -1.45,-1.45 -1.61,-3.24 -0.15,-1.71 -1.34,-1.84 -1.98,-2.79l-94.46 101.59z"/>
   <path class="fil43" d="M4586.47 2076.53l8.55 31.69c-10.62,7.29 -33.45,26.48 -41.01,0.63 -2.96,-10.16 1.07,-16.36 7.95,-23.07 9.51,-9.31 13.66,-8.51 24.51,-9.25zm-211.4 18.06c4.7,-32.49 21.08,-44.71 28.74,-10.44 -17.29,9.47 -5.41,7.37 -28.74,10.44zm153.53 -47.95l-3.24 -8.44c-0.91,-7.3 -0.63,-6.63 -0.18,-13.4 7.26,-1.16 -1.27,-5.51 11.98,-0.86 19.57,6.86 4.17,0.93 10.39,9.26 -9.19,11.81 -1.96,7.25 -18.95,13.44zm-274.84 -23.28l-4.73 -26.64c9.92,-9.36 0.56,-5.37 19.47,-10.76l9.75 12.82c-7.24,17.07 -5.96,15.66 -24.49,24.58zm95.11 -73.06c24.71,3.98 24.76,7.94 17.24,31.08 -28.51,-0.48 -25.98,-8.93 -17.24,-31.08zm274.81 0.65c0.05,-0.02 11.73,-18.19 23.55,13.43 -10.64,14.71 1,7.07 -17.36,12.96 -3.08,-10.09 0.42,-11.84 6.11,-13.96 -0.77,-0.77 -2.25,-2.84 -2.57,-1.99l-9.46 -8.57c-0.12,-0.19 0.07,-1.34 -0.27,-1.87zm117.11 -30.95c-0.9,-1.76 -9.13,-12.71 -3.49,-24.35 10.73,-22.13 8.85,-9.04 22.78,-7.48 12.88,21.48 3.82,30.86 -19.29,31.83zm-482.65 -31.45c4.67,-7.27 -8.55,-2.58 10.06,-8.46 19.78,10.09 21.13,10.01 16.76,34.84 -14.74,8 -32.39,12.69 -32.39,-11.96 0,-25.46 2.75,-10.16 5.57,-14.42zm336.58 -0.07c12.48,-6.38 4.01,-7.35 22.01,-1.33 4.7,21.65 -6.71,22.38 -21.64,17.11l-0.37 -15.78zm89.87 0.02c5.81,-12.42 2.41,-15.36 19.98,-17.89 4.74,8.34 7.79,-11.84 4.42,12.41 -1.7,12.19 -0.83,4.9 -8.13,14.18 -19.22,-8.7 19.08,10.97 -7.43,-5.28 -4.03,-2.48 -3.09,-3.88 -8.84,-3.42zm-312.86 -40.87c-0.52,-1.3 -1.64,-4.59 -1.63,-3.86 0.01,0.13 -4.63,-8.78 2.58,-15.36 8.13,-3.05 17.88,-9.31 19.11,6.78 0.37,4.83 -2.02,8.87 -6.37,11.65l-13.69 0.79zm249.29 -49.17c21.61,-14.31 42,-13.84 45.2,21.27 -10.6,12.22 -15.02,18.11 -39.72,18.96l-5.48 -40.23zm-198.29 22.39c-3.66,-18.61 -3.28,-21.72 14.25,-26.36 15.31,9.22 3.3,-2.09 9.73,12.05 -9.45,12.86 -5.47,11.72 -23.98,14.31zm-216.03 -22.37c20.73,-1.34 11.52,-3.86 22.65,8.06 -6.3,19.29 -3.07,17.01 -23.82,14.31 0,0 -2.03,-16.93 9.16,-9.48l-5.84 -6.99c-0.41,-0.78 -1.33,-4.52 -2.15,-5.9zm312.67 -0.46c-16.23,0.54 -12.78,1.14 -22.46,-7.3 9.25,-20.38 23.39,-23.33 22.46,7.3zm295.31 1.83c-5.36,-18.95 -4.59,-50.6 23.14,-41.52 15.17,26.76 -1.27,34.09 -23.14,41.52zm-83.54 -20.69c-5.42,-10.3 -4.26,0.18 -4.57,-11.86 -0.51,-19.65 0.93,-7.6 2.7,-12.68 26.49,-1.54 30.99,22.3 1.87,24.54zm-414.72 -36.48c21.85,16.45 4.06,34.22 -19.88,20.46 -0.01,-0.12 -7.4,-22.03 8.08,-15.64l11.8 -4.82zm261.23 -32.85c11.22,11.13 0.62,14.92 0.24,15.8 -17.81,5.23 -20.51,2.49 -18.12,-18.17 10,-1.81 7.96,-7.49 17.88,2.37zm-415.55 30.04c-15.23,-16.22 -8.75,-32.5 0.86,-48.42l15.4 2.34c3.07,12.29 1.69,16.41 -0.46,26.95 -3.91,19.25 1.43,14.68 -15.8,19.13zm295.38 -48.78c10.84,-6.58 12.79,4.39 13.01,4.54 -8.33,17.33 4.64,9.85 -19.91,11.8 1.97,-14.09 -4.15,-9.6 6.9,-16.34zm-72.66 8.93c3.28,-19.02 5.46,-22.33 24.46,-25.09 2.79,19.6 -1.04,30.07 -24.46,25.09zm461.35 -48.88c1.86,-12.04 -6.52,-11.66 9.85,-14.53 17.46,-3.06 17.29,5.53 17.35,5.56 9.43,17.1 5.92,19.52 -0.7,35.96l-22.56 0.13 -3.94 -27.12zm-327.64 -60.38c16.62,-0.18 15.06,8.43 15.43,25.28l-28.57 -2.33c-0.55,-12.75 -0.77,-22.81 13.14,-22.95zm180.65 -55.95l2.88 10.54 10.19 -5.82c31.16,-44.55 53.27,22.74 35,23.52l12.64 -0.77 6.47 -26.12 29.52 2.9c5.58,13.12 8.44,19.45 -6.3,32.1l-1.41 7.51c13.96,-3.64 13.74,-8.39 32.68,-6.07 8.48,19.87 2,7.25 3.26,21.57 1.31,15.03 -2.55,4.86 4.44,19.46 12.73,5.85 -0.66,23.33 -5.79,30.4 -20.57,1.24 -16.5,1.96 -28.02,-9.46 -2.11,4.66 0.36,3.28 -4.43,8.9l21.66 6.27 -7.26 29.09 -24.63 0.38 -6.49 -13.5 -3.94 3.91c11.3,31.97 -4.16,46.39 -33.68,25.31 -1.01,0.71 -2.13,1.9 -2.79,2.42l-12.99 9.05c-19.62,7.22 -41.01,-4.99 -26.43,-30.72 -6.4,-5.53 10.7,-5.77 -13.81,-4.99 2.77,36.12 -18.77,41.85 -38.47,18.6 -0.91,-1.08 -5,-7.33 -6.11,-8.26l-6.22 -4.08c-8.29,-4.13 -7.59,-0.96 -15.57,-4.36 -13.08,-5.57 -21.81,-31.49 -6.87,-30.03 -3.12,-17.75 0.34,-7.57 -4.16,-19.42 -8.58,-11.99 -5.54,-1.04 -5.51,-19.13 4.69,-6.98 5.91,-11.36 14.74,-13.24 13.76,-2.92 15.93,3.84 19.89,8.41l5.39 -10.79c-11.19,-5.82 -6.08,-1.51 -15.73,-9.83l2.98 -23.33 20.49 -7.3 16.4 8.38c2.51,20.04 -1.62,4 9.19,9.38l-5.64 -24.2c13.67,-10.88 13.39,-13.21 34.43,-6.68zm-197.15 -38.58c18.23,-8.23 27.67,8.46 29.44,20.97 -9.97,12.67 -5.46,9.95 -24.1,14.25 -8.04,-10.78 -29.69,-24.23 -5.34,-35.22zm-121.31 15.53c6.26,2.83 10.72,1.23 13.28,15.02 2.48,13.35 0.18,12.62 -2.63,25.98l18.4 1.09c4.66,21.94 7.02,38.28 -21.08,39.54l-1.32 5.53c20.44,25.48 3.69,33.16 -17.16,36.71 -17.98,3.05 -5.26,2.64 -18.34,7.81 -36.76,14.51 -32.89,-8.97 -33.39,-13.31 -6.04,9.62 -8.62,18.47 -26.31,18.46 -14.45,-0.01 -20.7,-4.9 -22.58,-16.31 -0.25,-1.41 -0.77,-1.96 -1.39,-2.8 -7.66,5.22 -17.14,10.16 -27.14,5.85 -17.82,-7.65 -8.52,-9.98 -12.77,-23.82l-21.85 -3.61c-7.53,-26.65 -10.69,-25.91 8.01,-35.27 -5.13,-4.65 -0.03,-7.18 -10,-9.59 -8.48,-18.05 -7.42,-12.39 -2.91,-32.94l28.03 -4.37 -0.02 -1.68c-20.51,-3.23 -23.05,-5.29 -23.89,-26.13 16.8,-16.88 6.31,-1.12 25.79,-17.1 20.77,-17.02 16.5,-2.78 37.54,-8 12.25,-3.05 10.96,-9.63 29.88,-1.06 28.18,12.76 3.97,4.27 58.42,9.45l4.34 25.33 19.09 5.22zm162.77 -20.46c-11.89,-0.23 -14.31,-13.35 -15.86,-19.44 0.35,-0.17 14.52,-2.38 15.72,-2.21 21.19,2.92 12.07,21.88 0.14,21.65zm100.43 -20.06c3.19,9.4 -0.95,9.14 -7.47,12.21 0.38,0.27 6.12,5.01 6.64,6.35 7.68,19.8 1.31,2.8 -2.35,9.83 -17.29,2.49 -14.24,-1.55 -16.61,-22.77l19.79 -5.62zm-128.13 4.3c-6.99,3.64 -3.2,3.88 -11.8,4.37 -26.22,1.5 -1.05,1.85 -12.44,-4.64 -1.58,-33.23 26.09,-25.3 24.24,0.27zm317.04 -12.8c-9.33,3.4 -11.52,-3.13 -15.78,-8.23 8.59,-10.34 -6.61,-4.61 15.36,-14.44 6.58,9.54 7.42,-3.75 6.84,14.28 -0.59,18.45 1.6,5.46 -6.42,8.39zm-107.58 -10.62c10.03,-3.76 -1.35,-1.56 9.7,0.86l16.56 1.53c-2.95,16.77 1.09,5.97 -4.57,15.21 -23.37,-1.71 -17.43,2.19 -21.69,-17.6zm-179.47 1.75c-2.65,20.35 -19.57,10.02 -27.8,-4.18 3.72,-11.45 30.14,-13.69 27.8,4.18zm-169.34 -2.5c16.99,-21.49 -13.94,-6.84 14.71,-17.8 1.94,20.11 -2.35,25.89 -24.4,26.91l-2.53 -21.47 12.22 12.36zm238.97 -68.08c49.71,33.87 -50.18,30.45 0,0zm-310.17 9.46c-3.02,18.16 -15.16,19.99 -27.16,14.02 -0.25,-23.28 6.24,-21.63 27.16,-14.02zm-85.27 -24.19c14.42,7.95 6.73,-4.84 12.17,16.42 2.5,9.79 1.45,14.48 0.87,23.18 -28.08,-4.2 -29.13,-22.83 -13.04,-39.6zm582.81 6.33c0.84,-1.29 2.53,1.67 3.82,2.46 -2.26,11.08 2.62,21.53 -15.51,13.51 -11.27,-4.98 -6.18,-8.43 -6.7,-19.26l18.39 3.29zm-326.87 -17.22l23.95 0.42c3.23,13.13 5.92,13.49 -2.57,29.04l-23.87 -1.1 2.49 -28.36zm105.72 -45.59c19.83,0.39 42.34,21.82 0.41,39.33 -14.53,-8.47 -21.68,-16.26 -14.83,-36.45 1.77,-0.54 -0.68,-3.17 14.42,-2.88zm-212.86 6.86c11.89,0.78 3.14,0.67 9.21,6.09 -9.4,12.69 -14.02,15.51 -25.84,-0.72 7.5,-4.66 -6.81,-6.91 16.63,-5.37zm-136 15.21c-2.61,-10.62 0.49,-12.18 6.49,-20.2l4.83 15.25c0.08,-0.16 4.32,-8.14 4.86,-8.99l4.77 -5.5c1.37,3.02 14.03,21.06 -9.66,23.34 -23.07,2.21 -2.06,0.69 -11.29,-3.9zm445.35 -18.28c-8.49,-27.16 8.09,-26.01 31.7,-26.69l11.29 20.98c-5.94,4.26 0.8,0.98 -8.33,5.51 -16.5,8.21 -22.18,6.58 -34.66,0.2zm-214.71 -62.72c3,5.01 4.19,1.76 5.34,12.82 1.43,13.95 -0.52,5.05 -4.32,13.16 -31.5,5.26 -27.8,-24.65 -1.02,-25.98zm366.03 19.23c-1.82,18.59 -12.16,40.75 -32.85,30.13 -20.61,-10.57 -2.33,-21.8 3.74,-37.85l13.69 7.89c-15.73,10.41 -10.69,4.52 -13.31,18.72 11.88,-0.56 22.42,-7.75 24.75,-15.9 0.65,-2.31 2.59,-2.09 3.98,-2.99zm-450.46 -3.66c-1.73,-0.49 -22.77,0.56 -17.74,-14.97 5.03,-15.45 6.59,-6.68 18.15,-5.55l-0.41 20.52zm251.15 -21.56c3.94,-16.78 7.68,-14.45 24.91,-12.27 -6.31,21.5 -4.8,27.73 -24.91,12.27zm92.3 -32.88c15.95,0.71 14.05,-4.97 19.42,13.71 3.12,10.87 -0.02,6.01 -0.87,13.92l-26.27 2.31c1.93,-20.67 -0.9,-17.1 7.72,-29.94zm-334.55 27.01c-19.6,-1.3 -8.01,2.82 -13.87,-8.6 15.81,-7.93 11.72,-7.55 13.87,8.6zm-113.05 -53.32c32.05,-21.81 21.07,24.34 15.37,33.22 -7,10.91 -6.66,6.4 -15.7,6.65 -7.24,-15.9 -4.87,-24.74 0.33,-39.87zm163.06 0.53l7.44 10.43c-4.92,12.29 -3.37,11.09 -18.1,13.48l10.66 -23.91zm102.06 8.61c-8.38,68.64 -87.08,-10.4 -9.41,-12.44 -1.12,0.75 -2.78,1.44 -3.54,1.96l-6.53 4.18c-0.77,0.72 -2.08,1.59 -2.74,2.4 -8.19,9.98 -3.33,0.44 -3.67,14.73 16.31,-2.65 13.3,-4.97 25.89,-10.83zm23.97 -52.81c-13.08,-14.38 5.77,-19.77 22.12,-16.27 7,23.81 -10.33,29.26 -22.12,16.27zm-108.82 -45.79l-7.66 28.92c-15.31,6.18 -13.49,4.33 -29.87,-1.63 -7.5,-10.2 -0.96,1.1 -5.87,-14.2 -64.8,20.8 -93.8,35.74 -136.95,74.54 -21.38,19.23 -30.75,29.2 -48.96,57.25 -15.35,23.64 -37.2,40.56 -40.37,70.72 13.18,12.7 19.09,31.6 -4.04,40.58 -1.12,0.43 -7.87,1.22 -9.47,1.39l-10.17 77.98c33.44,0.52 34.5,20.65 25.01,49.04 -22.26,3.9 -6.27,3.41 -22.8,-1.17 -11.88,-3.29 0.93,-3.6 -10.54,-3.33l-11.26 78.49c11.6,3.54 16.92,5.91 25.73,11 0.95,20.63 4.38,17.94 -10.34,31.56l-16.14 13.26c-0.5,-0.97 -2.19,1.69 -3.27,2.54 1.02,71.98 -13.28,181.5 18.46,238.22 9.13,2.42 16.96,1.53 20.36,16.14 2.46,10.55 0.91,5.43 -0.21,12.87 -2.42,16.06 -0.04,-3.77 -5.07,16.73 3.99,67.86 67.71,158.97 122.41,209.09 69.7,63.85 77.66,40.67 165.29,56.59 53.83,9.78 46.39,2.89 87.85,-16.84 28.36,-13.49 101.71,-62.22 124.94,-86.88 7.38,-7.83 1.29,2.03 5.53,-7.76 -0.44,-1.54 -3.8,-11.17 -3.83,-12.41 -0.43,-21.33 -2.15,-5.94 4.33,-12.4 2.3,-2.72 2.19,-4.84 9.55,-9.53l13.96 9.62 72.27 -83.16c28.24,-37.52 62.14,-136.09 78.72,-181.82 44.83,-123.65 18.43,-52.17 38.39,-168.42 11.38,-66.24 15.7,-123.28 13.86,-194.13 -23.15,7.23 -25.84,4.92 -38.66,-9.54 -1.31,-24.47 3.58,-26.65 20.81,-34.96 -7.17,-30.57 -51.37,-94.45 -70.61,-117.81 -19.19,-23.32 -72.45,-87.22 -99.41,-94.12l-3.54 21.18c-26.62,4.74 -27.53,3.85 -44.55,-15.63l5.54 -19.95c-59.03,-11.15 -161.09,-49.6 -219.42,-32.02z"/>
   <path class="fil44" d="M4393.17 1035.05c-161.96,62.69 -89.32,47.33 -174.78,94.58 -14.9,8.24 -15.49,9.27 -18.76,19.76 -8.98,16.75 -13.6,9.62 -23.47,30.43 -8.01,16.87 -8.41,22.27 -18.15,39.33 -15.23,26.66 -28.54,49.17 -39.22,81.2 12.75,-10.08 5.85,-2.27 15.52,-18.55 27.34,-45.97 49.22,-97.18 95.4,-129.92 -12.08,26.59 -16.5,20.99 -24.24,58.87 18.09,-15.2 12.33,-25.42 60.27,-62.38 47.45,-36.57 111.16,-57.48 170.16,-70.19 14.56,-3.13 35.96,-2.24 54.44,-2.98l33.7 6.59c0.01,0.21 -0.51,1.41 -0.26,2.05 58.71,-5.88 164.38,0.84 209.24,40.98 116.27,104 109.85,57.68 183.03,206.98 7.57,15.43 6.38,20.25 19.68,30.45 -7.28,-15.36 -37.7,-88.43 -40.6,-100.42 21.93,11.51 14.4,14.01 33.77,18.41l-2.73 -9.89c-6.4,-7.2 -8.48,-11.74 -14.26,-19.78 -40.76,-56.76 -25.48,-44.18 -78.25,-96.24 -53.69,-52.96 -35.54,-50.63 -73.35,-67.14 -31.18,-13.62 -57.59,-41.86 -82.77,-49.84 -15.59,-4.93 -44.49,-16.03 -51.68,-3.1 22.83,10.45 45.33,13.27 60.78,28.48 -76.05,13.08 -106.98,-8.73 -164.57,-27.12 7.08,-5.06 -1.52,-0.52 10.99,-5.11 1.48,-0.54 6.11,-1.76 7.7,-2.28l19.96 -7.6c-71.43,-24.94 -141.08,21.27 -167.55,14.43z"/>
   <path class="fil45" d="M4393.17 1035.05c26.47,6.84 96.12,-39.37 167.55,-14.43l65.14 13.63c7.19,-12.93 36.09,-1.83 51.68,3.1 25.18,7.98 51.59,36.22 82.77,49.84 37.81,16.51 19.66,14.18 73.35,67.14 52.77,52.06 37.49,39.48 78.25,96.24 5.78,8.04 7.86,12.58 14.26,19.78l0.88 -4.12c-34.69,-93.06 -66.92,-82.98 -92.72,-122.06 -42.89,-64.99 -59.51,-47.86 -86.47,-72.82 -12.62,-11.7 -13.54,-17.89 -30.98,-26.49l42.72 -27.06c8.78,-20.26 25.21,-26.98 27.95,-47.89l-24.56 18.16c-27.12,16.29 -36.05,26.4 -53.51,48.63l-18.03 -6.02c-25.23,-8.1 -19.76,-49 -58.44,-68.87 7.9,24.59 11.12,36.95 23.94,56.26 -33.82,-3.38 -65.67,-6.22 -104.17,-8.72 11.8,-16.51 18.33,-28.93 31.33,-49.7 -16.24,3.06 -20.52,13.36 -29.4,24.28l-12.37 13.38c-5.42,8.77 -3.98,6.46 -9.3,12.07 -16.71,0.64 -11.49,2.95 -22.83,-3.9l-8.08 -33.64 -18.63 -24.4c0.37,28.41 6.71,35.51 14.03,60.16 -19.08,0.23 -30.55,4.26 -47.51,-0.15 -36.68,-9.54 -77.64,-28.62 -131.93,-1.9l114.2 11.99 -39.12 17.51z"/>
   <path class="fil46" d="M4355 1602.52c32.58,-34.84 26.04,-36.32 1.03,-71.94 -8.71,-12.43 -19.09,-14.94 -37.09,-17.19 -50.09,-6.23 0.23,12.36 -31.4,2.18 -15.41,-4.95 15.24,-3.29 -19.27,-6.32 -34.02,-2.98 -31.25,19.78 -28.38,51.23 5.09,55.8 62.65,44.14 115.11,42.04z"/>
   <path class="fil47" d="M4649.14 1632.94c0.68,0.35 1.72,0.33 1.94,1.24 0.38,1.66 3.51,2.37 4.22,2.88l4.83 3.7c0.68,0.46 1.91,1.47 2.61,1.91 19.84,12.26 79.09,15.07 97.58,8.96 23.94,-7.91 24.8,-20.67 28.67,-42.78l-21.58 -7.97c-0.45,-0.51 -1.32,-1.8 -1.77,-2.37 -5.24,-6.79 -2.6,-3.29 -5.59,-8.37 -34.61,-1.07 -64.01,-6.83 -85.77,9.05 3.93,21.14 11.45,26.52 32.77,28.9l-23.43 -7.57c-1.62,-0.59 -3.63,-1.46 -5.5,-2.02 -6.29,19.92 5.51,18.32 -9.67,13.75l6.34 -42.42c-34.73,8.94 -25.65,6.86 -25.65,43.11z"/>
   <path class="fil48" d="M4935.73 1362.25c1.12,22.26 7.87,32.34 8.15,63.18 1.08,116.25 -17.42,143.56 -20.18,210.8l2.59 7.48c0.19,1.11 0.73,2.74 0.91,4.16l0.08 26.79c17.7,-25.05 19.8,-92.59 25.74,-133.34 -12.13,-4.81 8.71,-5.85 -4.28,1.62 -16.93,9.74 8.3,6.15 -4.42,3.19 -2.41,-22.11 9.01,-43.29 11.79,-69.09 1.89,-17.45 2.27,-63.81 8.63,-73.71 -3.74,-10.81 -4.85,-10.7 -5.93,-21.99 -0.29,-3.15 -0.14,-9.73 0.39,-12.88 1.91,-11.33 0,-4.95 4.1,-11.49l-8.16 -23.07c-5.71,-6.48 -3.62,-1.36 -10.86,-15.65 -1.48,-2.93 -3.6,-9.91 -5.53,-14.05 -5.56,-12.01 -6.73,-9.19 -9.85,-23.96 -19.37,-4.4 -11.84,-6.9 -33.77,-18.41 2.9,11.99 33.32,85.06 40.6,100.42z"/>
   <path class="fil49" d="M4649.14 1632.94c0,-36.25 -9.08,-34.17 25.65,-43.11l-6.34 42.42c15.18,4.57 3.38,6.17 9.67,-13.75 1.87,0.56 3.88,1.43 5.5,2.02l23.43 7.57c-21.32,-2.38 -28.84,-7.76 -32.77,-28.9 21.76,-15.88 51.16,-10.12 85.77,-9.05 2.99,5.08 0.35,1.58 5.59,8.37 0.45,0.57 1.32,1.86 1.77,2.37l21.58 7.97c-3.87,22.11 -4.73,34.87 -28.67,42.78 -18.49,6.11 -77.74,3.3 -97.58,-8.96 -0.7,-0.44 -1.93,-1.45 -2.61,-1.91l-4.83 -3.7c-0.71,-0.51 -3.84,-1.22 -4.22,-2.88 -0.22,-0.91 -1.26,-0.89 -1.94,-1.24zm-12.08 -44.55l-5.39 10.79 3.61 3.18 5.42 34.6c7.31,10.46 11.11,11.06 6.53,22.95 14.7,-4.95 4.29,-4.96 25.89,-1.47l6.83 12.25c24.51,-0.78 7.41,-0.54 13.81,4.99 11.16,-19.93 29.58,-6.21 37.38,1.62 1.06,-0.68 2.52,-3.19 3.05,-2.24 0.52,0.94 2.37,-1.71 3.11,-2.11 4.95,-2.67 3.74,-3.28 10.15,-5.05 16.12,-4.43 15.41,-1.37 22.2,1.72l3.94 -3.91c4.19,-16.65 4.71,-13.67 16.72,-22.24 4.79,-5.62 2.32,-4.24 4.43,-8.9l-1.09 -18.86 9.88 -2.08c-0.84,-1.29 -1.97,-2.79 -2.63,-3.76 -12.88,-18.78 -10.4,-11.65 -12.73,-31.2l1.41 -7.51 -14.34 1.59 -15.35 -10.47 -12.64 0.77 -25.9 1.05 -21.68 0.84 -29.28 0.75c-10.81,-5.38 -6.68,10.66 -9.19,-9.38l1.93 24.02 -26.07 8.06z"/>
   <path class="fil50" d="M4251.82 2554.01l91.64 0c-22.58,-15.61 -36.67,-3.37 -59.04,-21.33 36.55,-14.29 52.43,-52.7 81.14,-64.87 18.37,37.56 33.84,54.97 53.1,86.2l20.65 0c-14.38,-42.27 -33.55,-79.03 -64.82,-96.94 5.94,-14 2.3,-8.21 13.59,-17.59 -58.25,3.07 -116.09,69.98 -136.26,114.53z"/>
   <path class="fil51" d="M4889.27 1759.17c-27.05,58.19 -56.9,135.58 -87.45,193.29 8.65,13.11 16.02,2.57 23.45,-8.29 6.97,-10.19 12.21,-15.73 16.77,-28.54 0.37,0.34 9.67,5.62 10.79,6.37 0.55,-11.41 58.92,-155.93 66.26,-167.93 7.01,-7.52 -1.58,6.27 7.1,-9.06 0.72,-1.28 2.57,-5.43 3.12,-6.87 3.61,-9.21 3.04,-11.41 4.45,-18.9l0.81 -33.83c-16.61,4.68 -2.6,-6.95 -10.58,19.27 -6.81,22.36 -15.5,38.22 -34.72,54.49z"/>
   <path class="fil52" d="M4268.27 1509.25c34.51,3.03 3.86,1.37 19.27,6.32 31.63,10.18 -18.69,-8.41 31.4,-2.18 18,2.25 28.38,4.76 37.09,17.19 25.01,35.62 31.55,37.1 -1.03,71.94 -52.46,2.1 -110.02,13.76 -115.11,-42.04 -2.87,-31.45 -5.64,-54.21 28.38,-51.23zm-38.63 0.57l-0.09 14.23 0.02 1.68 -3.79 12.23 1.74 14.15 -1.59 13.29 -0.11 14 11.08 16.57c18.01,19.05 15.2,-1.24 26.78,16.46 9.01,4.8 1.91,2.03 9.84,4.94 9.42,3.47 2.52,2.46 14.01,3.63l13.24 0.16 25.84 1.69 14.7 -4.14c14.45,-3.59 16.97,-4.21 26.33,-11.68 8.09,-9.46 0.8,-5.67 14.92,-9.22l4.81 1.11 1.32 -5.53 -0.55 -15.5 3.56 -16.66 -0.33 -8.47c-0.74,-0.87 -1.73,-2.12 -2.21,-2.58 -0.45,-0.45 -1.72,-1.8 -2.29,-2.33 -0.58,-0.52 -1.8,-1.54 -2.44,-2.11l-15.39 -15.15 -5.79 -15.41c-20.96,-12.09 -18.72,-7.12 -45.49,-10.13 -10.23,-5.02 -32.8,-6.34 -45.28,-6.54 -16.55,-0.24 -29.66,4.96 -42.84,11.31z"/>
   <path class="fil53" d="M4923.7 1636.23c-4.66,19.88 -8.24,46.01 -13.56,65.57 -5.38,19.82 -13.71,38.26 -20.87,57.37 19.22,-16.27 27.91,-32.13 34.72,-54.49 7.98,-26.22 -6.03,-14.59 10.58,-19.27l9.97 -27.94c7.52,-35.95 9.95,-71.7 22.52,-108.12 19.26,-55.78 -1.76,-71.23 3.47,-116.71 1.63,-14.17 3.36,-19.52 -5.79,-29.31 -6.36,9.9 -6.74,56.26 -8.63,73.71 -2.78,25.8 -14.2,46.98 -11.79,69.09 12.72,2.96 -12.51,6.55 4.42,-3.19 12.99,-7.47 -7.85,-6.43 4.28,-1.62 -5.94,40.75 -8.04,108.29 -25.74,133.34l-0.08 -26.79c-0.18,-1.42 -0.72,-3.05 -0.91,-4.16l-2.59 -7.48z"/>
   <path class="fil54" d="M4090.27 1474.85c3.37,44.24 -0.64,76.11 -2.42,119.51 -0.81,19.96 1.04,38.08 1.43,57.97 0.14,6.79 -0.25,23.2 0.57,29.01 1.2,8.52 -0.96,3.17 3.01,11.04 4.8,9.52 -0.91,2.18 6.55,6.92 10.96,-23.99 5.35,-91.52 13.08,-150.58 6.68,-51.21 11.89,-95.18 20.65,-147.04 -1.01,0.99 -2.06,2.47 -2.66,3.32l-31.37 93.74c-0.11,-0.49 -2.16,-9.66 -2.65,-11.07 -3.98,-11.43 -4.26,-9.46 -6.19,-12.82z"/>
   <path class="fil55" d="M4784.16 2048.74c24.97,-16.75 75.36,-57.78 90.92,-79.06 15.62,-21.36 57.87,-83.41 40.56,-118.91 -23.97,6.87 -16.49,40.21 -60.14,104.12 -11.69,17.1 -20.91,35.9 -32.4,49.64 -12.95,15.49 -29.57,30.13 -38.94,44.21z"/>
   <path class="fil56" d="M4713.68 956.38l-3.34 13.18c-0.35,1.18 -0.46,2.85 -0.93,4.05 -6.18,15.94 3.78,7.01 -12.02,11.98 -13.86,-19.32 -2.23,0.01 6.84,-29.44 -18.19,1.56 -29.47,-2.6 -35.76,30.59 1.37,1.16 3.39,0.85 4.32,3.17l16.03 8.31c12.94,5.11 6.2,-1.51 18.23,7.79l-15.6 24.67 18.03 6.02c17.46,-22.23 26.39,-32.34 53.51,-48.63 -9.99,-11.88 -11.07,-10.01 -23.66,-14.34l6.27 -5.34c14.05,-11.31 -8.07,7.13 7.67,-5.97 -8.01,-6.66 -10.15,-7.59 -18.89,-16.3 -1.56,0.36 -9.42,1.48 -11.8,2.77 -17.03,9.26 3.96,-9.35 -8.9,7.49z"/>
   <path class="fil57" d="M4319.49 1499.61l3.37 -17.13c28.92,-0.66 17.32,-4.77 23.29,10.61 -13.95,9.5 -7.66,6.44 -26.66,6.52zm-89.94 24.44l0.09 -14.23 0.23 -17.66c26.11,7.55 20.66,-0.4 38.97,-8.66l9.02 7.38 2.17 -16.4 16.9 -0.29c-2.27,10.19 -2.91,11.35 -6.75,18.51l24.92 -1.91 4.39 8.82 -1.73 5.44c26.77,3.01 24.53,-1.96 45.49,10.13l17.47 -3.42 -19.09 -5.22 -4.34 -25.33c-54.45,-5.18 -30.24,3.31 -58.42,-9.45 -18.92,-8.57 -17.63,-1.99 -29.88,1.06 -21.04,5.22 -16.77,-9.02 -37.54,8 -19.48,15.98 -8.99,0.22 -25.79,17.1 0.84,20.84 3.38,22.9 23.89,26.13z"/>
   <path class="fil58" d="M4454.24 2452.74c6.57,-4.56 5.64,-5.03 12.74,0 -1.05,0.58 -2.64,0.7 -3.08,1.85 -0.4,1.04 -2.66,0.85 -3.15,0.76l-6.51 -2.61zm-2.8 -21.79c-22.48,-3.95 -9.56,-3.55 -4.82,-13.35 7.58,4.76 14.3,-3.64 4.82,13.35zm16.17 -16.79c23.99,-14.39 5.62,-3.17 11.87,0 -5.15,2.09 6.59,13.07 -11.87,0zm-34.83 0.29c-1.98,10.89 -5.69,8.34 3.49,24.01 8.53,14.58 4.76,-3.93 9.39,23.14l26.88 -1.24c0.48,-0.46 1,-4.04 0.96,-3.3l-0.86 -11.43c-0.54,-1.66 -6.2,-9.26 -7.6,-12.18 20.39,-11.21 16.44,17.46 23.4,-20.19 -16.53,-15.9 -41.03,-11.52 -55.66,1.19z"/>
   <path class="fil59" d="M4610.15 2153.34c48.04,-4.34 51.69,-23.55 89.32,-32.22l-6.91 -29.21c-20.07,8.52 -67.91,46.66 -82.41,61.43z"/>
   <path class="fil60" d="M4801.82 1952.46c-3.68,4.15 -3.25,-0.49 -7.18,9.37 -3.92,9.81 -1.44,5.55 -1.74,10.48 0.27,27.57 -1.72,7.25 9.32,15.48l23.56 -19.1c8.32,-6.91 -1.45,-2.54 14.07,-7.44 0.57,-0.88 1.52,-3.3 1.72,-2.65l11.26 -36.6c-1.12,-0.75 -10.42,-6.03 -10.79,-6.37 -4.56,12.81 -9.8,18.35 -16.77,28.54 -7.43,10.86 -14.8,21.4 -23.45,8.29z"/>
   <path class="fil61" d="M4132.69 2529.9c-2.84,-8.69 -6.06,-19.87 -10.57,-27.97 -7.65,-13.77 -9.12,-11.53 -17.88,-15 -16.55,24.78 3.59,41.17 14.98,56.38l13.47 -13.41z"/>
   <path class="fil62" d="M4229.64 1509.82c13.18,-6.35 26.29,-11.55 42.84,-11.31 12.48,0.2 35.05,1.52 45.28,6.54l1.73 -5.44 -4.39 -8.82 -24.92 1.91 -12.32 -1.82 -9.02 -7.38c-18.31,8.26 -12.86,16.21 -38.97,8.66l-0.23 17.66z"/>
   <path class="fil63" d="M4792.06 2452.42c0.64,0.95 1.83,1.08 1.98,2.79 0.16,1.79 1.44,2.41 1.61,3.24 0.45,2.1 1.39,12.58 1.4,13.98 16.91,-9.54 7.79,-2.91 15.9,-14.84l-1.69 -20.37 -17.48 1.12 -1.72 14.08z"/>
   <path class="fil64" d="M4602.55 1623.14c4.5,11.85 1.04,1.67 4.16,19.42 24.27,-11.76 7.88,-3.69 10.5,0.76l3.64 1.12c0,-17.13 8.19,-10.4 19.85,-7.48l-5.42 -34.6 0.11 21.93c-12.76,2.03 -19.17,7.24 -32.84,-1.15z"/>
   <polygon class="fil65" points="4699.67,1564.94 4721.35,1564.1 4712.25,1539.53 4702.06,1545.35 4699.18,1534.81 "/>
   <path class="fil66" d="M4817.05 1454.51c4.26,5.1 6.45,11.63 15.78,8.23 8.02,-2.93 5.83,10.06 6.42,-8.39 0.58,-18.03 -0.26,-4.74 -6.84,-14.28 -21.97,9.83 -6.77,4.1 -15.36,14.44z"/>
   <path class="fil67" d="M4980.11 1440.54l26.32 -0.45 0.36 -25.47c-1.32,0.85 -2.82,0.86 -3.3,2.6 -0.74,2.79 -16.75,10.88 -23.38,23.32z"/>
   <polygon class="fil68" points="4425.66,2213.29 4437.4,2193.1 4407.07,2185.86 "/>
   <path class="fil69" d="M4722.55 2554.01l23.62 0 3.41 -22.9c-16.27,6.51 -18.16,13.42 -27.03,22.9z"/>
   <path class="fil70" d="M4061.97 2419.56c13.37,32.46 -4.41,0.3 8.31,14.4l16.28 12.17c2.02,1.62 2.8,13.01 7.9,5.82 0.88,-1.25 3.25,2.06 4.93,2.99 -5.6,-13.88 0.1,-11.44 -37.42,-35.38z"/>
   <path class="fil71" d="M4910.5 1174.82c24.86,16.24 20.25,1.92 24.37,-8.06 -8.97,-2.13 7.23,-6.87 -14.27,-1.09 -18.21,4.89 -5.87,2.08 -10.1,9.15z"/>
   <path class="fil72" d="M4722.72 1546.13c18.19,11.5 10.15,4.54 16.26,-0.52 -13.6,-22.08 -10.81,-4.62 -16.26,0.52z"/>
   <path class="fil73" d="M4678.19 2028.8l17.15 -4 -0.04 16.9c8.43,-6.25 6.16,2.77 6.4,-12.81l-13.96 -9.62c-7.36,4.69 -7.25,6.81 -9.55,9.53z"/>
   <path class="fil74" d="M4374.01 1232.69c5.86,11.42 -5.73,7.3 13.87,8.6 -2.15,-16.15 1.94,-16.53 -13.87,-8.6z"/>
   <path class="fil75" d="M4571.59 924.05c5.13,7 -1.5,10.04 12.71,4.83 -4.94,-14.49 1.58,-12.31 -12.71,-4.83z"/>
   <path class="fil76" d="M4658.81 1687.28c6.26,-7.87 10.93,15.19 2.93,-10.41 -0.24,-0.77 -2.16,-2.28 -2.93,-3.62 -0.01,0 -8.46,7.45 0,14.03z"/>
   <polygon class="fil77" points="4055.84,2234.23 4045.62,2235.91 4048.96,2251.48 "/>
   <path class="fil78" d="M228.2 2317.52l111.45 0 0 24.91 -44.24 0 0 149.81 -26.14 2.21 0 -152.02 -47.91 0 6.84 -24.91zm155.68 -2.45l0 74.53 92.38 0 0 -72.08 25.89 -2.45 0 177.17 -25.89 2.21 0 -79.43 -92.38 0 0 77.22 -26.14 2.21 0 -176.93 26.14 -2.45zm153.68 2.45l85.44 0 6.44 23.69 -65.74 0 0 48.39 52.55 0 0 24.44 -52.55 0 0 53.27 73.31 0 -9.37 24.93 -90.08 0 0 -174.72zm268.28 20.03c-18.61,0 -34.18,6.47 -46.72,19.39 -12.51,12.95 -18.78,28.87 -18.78,47.82 0,19.02 6.24,34.98 18.74,47.85 12.46,12.92 28.07,19.36 46.76,19.36 18.53,0 34.09,-6.49 46.63,-19.48 12.59,-12.95 18.86,-28.87 18.86,-47.73 0,-18.95 -6.27,-34.87 -18.77,-47.82 -12.54,-12.92 -28.1,-19.39 -46.72,-19.39zm0 -24.69c11.44,0 22.32,1.88 32.62,5.62 10.31,3.75 19.48,9.08 27.53,16.1 10.35,9.24 18.25,19.91 23.75,31.97 5.5,12.1 8.22,24.85 8.22,38.21 0,11.53 -2.07,22.72 -6.27,33.6 -4.15,10.84 -10.14,20.57 -17.95,29.16 -8.68,9.57 -18.78,16.82 -30.35,21.84 -11.61,5 -24.12,7.52 -37.55,7.52 -11.53,0 -22.44,-1.87 -32.71,-5.62 -10.26,-3.75 -19.31,-9.08 -27.2,-16.08 -10.44,-9.33 -18.42,-20.05 -23.92,-32.1 -5.53,-12.09 -8.31,-24.89 -8.31,-38.32 0,-13.36 2.78,-26.11 8.36,-38.26 5.57,-12.13 13.52,-22.75 23.87,-31.92 7.89,-7.02 16.94,-12.35 27.2,-16.1 10.27,-3.74 21.18,-5.62 32.71,-5.62zm144.7 27.86l0 55.49 9.46 0c11.24,0 19.92,-2.5 26.07,-7.5 6.15,-5.01 9.2,-12.02 9.2,-21.01 0,-8.93 -2.93,-15.64 -8.79,-20.18 -5.87,-4.51 -14.46,-6.8 -25.87,-6.8l-10.07 0zm-26.13 -23.2l33.43 0c9.45,0 17.18,0.53 23.21,1.61 5.98,1.08 11.29,2.78 15.93,5.19 7.46,3.98 13.4,9.94 17.8,17.83 4.44,7.94 6.64,16.74 6.64,26.48 0,11.53 -3.74,21.46 -11.21,29.81 -7.45,8.39 -17.34,13.6 -29.64,15.64l53.3 72.3 -24.72 10.59 -58.61 -85.12 0 80.39 -26.13 2.21 0 -176.93zm128.26 -6.61l114.61 123.71 0 -117.1 25.91 -2.45 0 184.26 -114.38 -123.94 0 116.85 -26.14 2.21 0 -183.54zm250.27 47.95l-22.89 44.68 45.1 0 -22.21 -44.68zm1.2 -47.7l90.7 179.9 -24.93 6.32 -35.43 -71.86 -65.79 0 -36.37 71.86 -22.24 -6.32 94.06 -179.9zm204.44 6.89l4.16 26.59c-4.28,-1.59 -8.67,-2.81 -13.19,-3.63 -4.49,-0.86 -8.96,-1.27 -13.4,-1.27 -18.62,0 -34.09,6.08 -46.36,18.21 -12.3,12.1 -18.45,27.33 -18.45,45.63 0,19.3 6.56,35.22 19.64,47.69 13.07,12.51 29.94,18.73 50.55,18.73 3.26,0 6.63,-0.24 10.13,-0.77 3.51,-0.53 7.26,-1.34 11.34,-2.45l-5.38 26.45c-0.34,0.07 -0.79,0.15 -1.44,0.24 -6.1,0.81 -10.71,1.22 -13.72,1.22 -29.61,0 -53.27,-8.26 -71.07,-24.81 -17.8,-16.57 -26.69,-38.57 -26.69,-66.03 0,-25.53 8.4,-46.67 25.18,-63.41 16.83,-16.74 38.24,-25.13 64.35,-25.13 2.45,0 4.85,0.05 7.22,0.17 2.36,0.12 4.55,0.31 6.63,0.57 1.42,0.2 3.71,0.65 6.8,1.3 1.68,0.32 2.89,0.53 3.7,0.7zm58.16 -2.98l0 177.17 -25.9 2.21 0 -176.93 25.9 -2.45zm111.48 43.79l-22.89 44.68 45.1 0 -22.21 -44.68zm1.19 -47.7l90.7 179.9 -24.93 6.32 -35.43 -71.86 -65.78 0 -36.37 71.86 -22.24 -6.32 94.05 -179.9zm198.42 3.91l0 177.17 -25.9 2.21 0 -176.93 25.9 -2.45zm37.2 -4.16l114.61 123.71 0 -117.1 25.91 -2.45 0 184.26 -114.38 -123.94 0 116.85 -26.14 2.21 0 -183.54zm163.03 6.61l111.45 0 0 24.91 -44.24 0 0 149.81 -26.14 2.21 0 -152.02 -47.91 0 6.84 -24.91zm129.54 0l85.44 0 6.44 23.69 -65.74 0 0 48.39 52.55 0 0 24.44 -52.55 0 0 53.27 73.31 0 -9.37 24.93 -90.08 0 0 -174.72zm142.71 23.2l0 55.49 9.45 0c11.25,0 19.92,-2.5 26.07,-7.5 6.15,-5.01 9.2,-12.02 9.2,-21.01 0,-8.93 -2.93,-15.64 -8.79,-20.18 -5.87,-4.51 -14.46,-6.8 -25.87,-6.8l-10.06 0zm-26.14 -23.2l33.43 0c9.45,0 17.18,0.53 23.21,1.61 5.98,1.08 11.29,2.78 15.93,5.19 7.46,3.98 13.4,9.94 17.8,17.83 4.44,7.94 6.64,16.74 6.64,26.48 0,11.53 -3.74,21.46 -11.21,29.81 -7.45,8.39 -17.34,13.6 -29.64,15.64l53.3 72.3 -24.72 10.59 -58.6 -85.12 0 80.39 -26.14 2.21 0 -176.93zm135.38 0l48.56 121.13 48.95 -121.13 27.08 0 -77.47 181.33 -75.76 -181.33 28.64 0zm164.87 -2.45l0 177.17 -25.9 2.21 0 -176.93 25.9 -2.45zm37.2 2.45l85.45 0 6.43 23.69 -65.74 0 0 48.39 52.55 0 0 24.44 -52.55 0 0 53.27 73.31 0 -9.37 24.93 -90.08 0 0 -174.72zm120.92 0l49.41 123.65 24.96 -57.43 -29.85 -66.22 26.85 0 15.88 38.53 16 -38.53 24.11 0 -28.51 64.18 25.41 60.41 48.81 -124.59 26.39 0 -74.7 181.33 -39.18 -91.49 -38.33 91.73 -74.34 -181.57 27.09 0zm373.66 23.45l-17.07 17.1c-4.44,-6.95 -9.57,-12.3 -15.4,-15.96 -5.82,-3.71 -12.01,-5.54 -18.61,-5.54 -7.33,0 -13.41,2.33 -18.21,6.92 -4.81,4.61 -7.21,10.44 -7.21,17.53 0,11.6 11.82,22.19 35.43,31.8 4.54,1.83 8.03,3.27 10.52,4.32 9.94,4.28 17.63,10.43 23.09,18.41 5.45,8.02 8.19,17.19 8.19,27.53 0,15.2 -5.14,27.81 -15.45,37.92 -10.3,10.11 -23.2,15.16 -38.72,15.16 -10.67,0 -20.41,-2.45 -29.21,-7.3 -8.79,-4.85 -16.91,-12.26 -24.4,-22.27l19.79 -18.57c4.42,7.61 9.46,13.38 15.16,17.3 5.74,3.96 11.94,5.91 18.61,5.91 8.03,0 14.63,-2.53 19.72,-7.54 5.09,-5.01 7.62,-11.37 7.62,-19.06 0,-12.1 -11.17,-22.53 -33.53,-31.24l-1.3 -0.49c-15.03,-5.9 -25.7,-12.67 -32.02,-20.36 -6.27,-7.67 -9.4,-17.52 -9.4,-29.53 0,-15.2 4.84,-27.38 14.58,-36.46 9.69,-9.12 22.61,-13.69 38.78,-13.69 9.85,0 19.09,2.45 27.69,7.38 8.6,4.89 15.73,11.81 21.35,20.73zm52.3 -25.9l0 74.53 92.37 0 0 -72.08 25.9 -2.45 0 177.17 -25.9 2.21 0 -79.43 -92.37 0 0 77.22 -26.14 2.21 0 -176.93 26.14 -2.45zm237 22.48c-18.61,0 -34.17,6.47 -46.72,19.39 -12.51,12.95 -18.78,28.87 -18.78,47.82 0,19.02 6.24,34.98 18.74,47.85 12.46,12.92 28.07,19.36 46.76,19.36 18.53,0 34.09,-6.49 46.63,-19.48 12.59,-12.95 18.86,-28.87 18.86,-47.73 0,-18.95 -6.27,-34.87 -18.77,-47.82 -12.54,-12.92 -28.1,-19.39 -46.72,-19.39zm0 -24.69c11.44,0 22.32,1.88 32.62,5.62 10.31,3.75 19.48,9.08 27.53,16.1 10.35,9.24 18.26,19.91 23.76,31.97 5.5,12.1 8.22,24.85 8.22,38.21 0,11.53 -2.07,22.72 -6.27,33.6 -4.16,10.84 -10.14,20.57 -17.95,29.16 -8.69,9.57 -18.79,16.82 -30.36,21.84 -11.6,5 -24.11,7.52 -37.55,7.52 -11.53,0 -22.43,-1.87 -32.71,-5.62 -10.26,-3.75 -19.31,-9.08 -27.2,-16.08 -10.44,-9.33 -18.41,-20.05 -23.91,-32.1 -5.53,-12.09 -8.31,-24.89 -8.31,-38.32 0,-13.36 2.78,-26.11 8.35,-38.26 5.58,-12.13 13.52,-22.75 23.87,-31.92 7.89,-7.02 16.94,-12.35 27.2,-16.1 10.28,-3.74 21.18,-5.62 32.71,-5.62zm122.92 4.66l49.41 123.65 24.96 -57.43 -29.86 -66.22 26.85 0 15.88 38.53 16 -38.53 24.12 0 -28.51 64.18 25.41 60.41 48.8 -124.59 26.4 0 -74.7 181.33 -39.18 -91.49 -38.33 91.73 -74.34 -181.57 27.09 0z"/>
   <path class="fil79" d="M51.79 1794.55c0,-41.98 7.61,-80.69 22.84,-116.12 15.23,-35.45 36.38,-65.92 63.26,-91.41 26.75,-25.49 57.99,-45.24 93.59,-59.23 35.45,-13.99 72.91,-21.14 112.24,-21.61 54.09,0 104.3,13.69 150.77,41.04 46.5,27.51 83.33,64.36 110.53,110.84 27.21,46.48 40.89,96.54 40.89,150.33 0,59.84 -13.38,111.76 -39.95,156.06 -26.73,44.3 -62.5,78.04 -107.57,101.19 -45.08,23.16 -94.82,34.68 -148.92,34.68 -55.96,0 -106.49,-13.69 -151.73,-41.21 -45.23,-27.51 -80.67,-64.65 -106.47,-111.61 -25.66,-46.95 -38.87,-97.93 -39.48,-152.95zm69.94 -7.62c0,45.86 9.49,89.84 28.3,132.13 18.96,42.13 45.7,76.32 80.21,102.6 34.51,26.27 73.68,39.8 117.36,40.42 1.56,-0.79 2.64,-1.24 3.58,-1.56 0.94,-0.15 1.56,-0.32 1.86,-0.32 43.21,-1.24 81.45,-11.35 114.88,-30.46 33.27,-18.96 59.07,-47.26 77.57,-84.57 18.49,-37.3 27.66,-83.01 27.66,-136.78 0,-32.5 -5.44,-64.2 -16.47,-94.83 -11.04,-30.63 -26.59,-58.14 -46.64,-82.24 -20.2,-24.25 -43.98,-43.52 -71.66,-57.98 -27.67,-14.31 -57.21,-21.45 -89.07,-21.45 -44.46,0 -83.63,10.26 -117.83,30.62 -34.21,20.37 -60.62,48.34 -79.43,83.94 -18.81,35.44 -28.92,75.71 -30.32,120.48zm718.18 -1.71c4.05,0.46 10.26,1.09 18.5,1.71 8.08,0.62 14.15,1.24 17.87,1.86 27.52,-0.62 51.46,-5.29 71.98,-14.14 20.52,-8.71 36.37,-21.46 47.42,-37.93 11.19,-16.63 16.78,-36.22 16.78,-58.76 0,-14.61 -3.58,-31.25 -10.88,-49.91 -7.31,-18.64 -19.89,-35.13 -37.62,-49.27 -17.72,-14.14 -41.04,-21.3 -69.79,-21.3 -7.16,0 -18.34,0.31 -33.27,0.93 -15.08,0.62 -22.08,0.94 -20.99,0.94l0 225.87zm69.02 28.76l-70.88 0 0 158.56c0,25.18 4.82,44.3 14.3,57.35 9.49,13.06 27.04,20.05 52.85,20.99l32.65 0 0 36.38c-49.59,-4.98 -87.06,-7.46 -112.7,-7.46 -13.84,0 -29.22,0.47 -46.02,1.55 -16.94,0.93 -37.31,2.48 -61.24,4.51 -23.78,2.02 -37.31,3.11 -40.27,3.26l0 -32.48 52.39 0c16.48,0 27.98,-5.91 34.2,-17.43 6.38,-11.65 9.48,-30.14 9.48,-55.48l0 -20.52 0 -273.28c0,-71.52 -7.15,-113.79 -21.44,-126.7 -3.73,-5.12 -13.07,-7.61 -27.99,-7.61l-40.11 0 0 -34.51c13.52,1.55 26.89,2.49 40.11,2.96 13.21,0.45 27.05,0.92 41.34,1.09 14.31,0.3 25.81,0.45 34.21,0.62 42.28,0 76.79,-1.56 103.68,-4.67 9.79,-1.24 17.88,-1.86 24.1,-1.86 26.26,0 50.83,5.91 73.68,17.56 22.86,11.81 41.03,28.13 54.41,48.97 13.52,20.98 20.2,44.15 20.2,69.64 0,32.18 -7.77,60 -23.15,83.63 -15.4,23.63 -37.94,41.35 -67.31,53.32 63.73,128.55 144.57,244.52 242.66,348.05l-28.15 15.85c-28.61,-23.15 -57.04,-49.43 -85.18,-78.81 -27.98,-29.23 -55.19,-60.15 -81.3,-92.49 -26.27,-32.33 -48.65,-61.56 -67.31,-87.68 -18.81,-26.11 -37.78,-53.94 -57.21,-83.31zm469.92 -292.87l403.85 453.28 -17.71 -366.69c0,-20.37 -2.81,-33.59 -8.25,-39.49 -5.59,-6.06 -14.91,-9.01 -28.13,-9.01l-32.64 0 -27.98 0 1.86 -38.09c34.98,3.58 71.98,6.37 110.84,8.4 43.21,-1.87 82.7,-4.67 118.76,-8.4l0 36.22 -42.12 0c-15.55,0 -26.13,3.43 -31.72,10.1 -5.59,6.85 -8.4,18.03 -8.4,33.9l-1.86 504.73 -21.45 0 -437.44 -500.08 1.88 349.77c0,32.8 4.03,57.82 12.11,75.08 8.24,17.25 25.66,25.81 52.24,25.81l40.1 0 0 32.48c-33.58,-4.97 -72.44,-7.46 -116.42,-7.46 -39.03,0 -77.27,1.87 -114.73,5.6l0 -34.51 32.49 0c21.3,0 34.98,-5.75 41.19,-17.1 6.07,-11.35 9.17,-28.6 9.17,-51.92l0 -16.78 0 -359.1c0,-19.58 -2.8,-33.57 -8.39,-41.65 -5.59,-8.25 -17.1,-12.29 -34.36,-12.29l-39.16 0 0 -34.66c12.9,2.8 38.07,5.59 75.55,8.39 36.68,-2.8 60.3,-4.98 70.72,-6.53zm554.02 571.59l0 -34.36c3.12,0 9.48,1.24 19.59,3.58 37.62,-1.72 64.98,-24.25 82.22,-68.09 85.66,-214.83 131.98,-365.93 138.83,-452.97 13.37,-1.88 23.63,-3.27 30.93,-4.35 7.31,-1.26 14.78,-2.97 22.39,-5.61 7.77,-2.48 16.94,-6.38 27.67,-11.65 40.56,120.94 67.61,201.3 81.13,241.25 13.69,39.8 29.24,82.4 46.65,127.94 14.14,40.1 25.49,71.96 33.89,95.75 8.55,23.79 16.62,41.82 24.4,53.94 7.77,12.28 16.94,18.34 27.51,18.34l42.13 0 0 30.79c-28.13,-1.25 -65.14,-1.87 -111.15,-1.87 -25.49,0 -69.95,1.24 -133.37,3.73l0 -32.65 49.59 1.87c25.34,0 38.08,-8.7 38.08,-26.27 0,-1.56 -0.3,-3.89 -0.92,-7.3 -0.64,-3.26 -0.94,-5.44 -0.94,-6.53l-45.56 -137.12 -185.75 0 -47.27 123.9c-1.39,6.23 -3.26,14.31 -5.74,24.4 0,18.2 17.09,28.45 51.3,30.78 17.56,-2.48 29.69,-3.73 36.37,-3.73l0 36.23c-53.47,-4.82 -90.46,-7.31 -110.83,-7.31 -23.16,0 -60.17,2.49 -111.15,7.31zm275 -495.26l-74.48 249.17 159.35 0 -84.87 -249.17zm531.79 -45.55c-44.77,0 -84.72,9.49 -119.53,28.6 -34.98,18.96 -62.34,44.92 -82.09,77.87 -19.73,32.81 -30.93,69.49 -33.57,109.91 0,47.41 11.81,91.41 35.44,131.66 23.79,40.42 55.18,72.29 94.51,95.92 39.18,23.63 81.46,35.75 126.7,36.38 2.32,-1.25 5.44,-1.87 9.32,-1.87 30.63,-0.94 56.12,-3.73 76.48,-8.39 20.52,-4.82 37.78,-12.75 52.09,-23.79 14.29,-11.18 26.11,-26.88 35.43,-47.1l32.65 -69.96 30.78 16.64 -85.97 168.2c-10.88,24.1 -69.02,36.22 -174.41,36.22 -57.98,-1.09 -109.74,-15.08 -155.13,-41.98 -45.41,-27.04 -80.54,-63.11 -105.56,-108.5 -25.03,-45.39 -37.62,-94.98 -37.62,-148.77 0.62,-53.47 14.61,-102.74 41.82,-147.51 27.2,-44.77 63.89,-80.22 109.89,-106.33 46.03,-26.12 95.62,-39.18 148.62,-39.18 15.7,0 31.4,1.26 46.95,3.73 15.7,2.5 35.75,6.23 60.31,11.35 24.72,5.14 43.37,8.7 56.27,10.73 12.9,2.02 27.2,2.96 42.6,2.96l0 129.79 -29.85 0c-0.31,-2.02 -1.55,-9.47 -4.05,-22.38 -2.47,-13.05 -8.85,-26.42 -19.11,-40.41 -10.26,-13.99 -27.98,-26.28 -53.02,-37.01 -25.02,-10.72 -58.44,-16.31 -99.95,-16.78zm285.42 3.73l0 -34.36c13.36,1.25 54.24,3.26 122.18,6.38 66.22,-2.8 107.41,-4.82 123.89,-6.38l0 36.22 -38.39 0c-19.9,0 -33.74,6.07 -41.2,18.04 -7.47,11.96 -11.65,29.69 -12.74,53 1.24,2.5 1.86,6.06 1.86,11.2l0 283.38c0,39.33 2.96,71.36 8.85,96.23 5.91,24.7 20.37,37.14 43.23,37.14l43.99 0 0 32.65c-36.84,-4.97 -78.82,-7.46 -125.91,-7.46 -46.95,0 -88.92,2.49 -125.76,7.46l0 -34.66 41.81 0c32.95,0 49.44,-23.01 49.44,-69.02l0 -309.5c0,-34.36 -1.26,-62.35 -3.89,-83.79 -2.49,-21.45 -9.02,-32.95 -19.28,-34.67 -5.13,-1.24 -15.86,-1.86 -32.65,-1.86l-35.43 0zm289.91 537.08l0 -34.36c3.11,0 9.47,1.24 19.58,3.58 37.62,-1.72 64.99,-24.25 82.23,-68.09 85.65,-214.83 131.98,-365.93 138.82,-452.97 13.37,-1.88 23.63,-3.27 30.93,-4.35 7.31,-1.26 14.78,-2.97 22.39,-5.61 7.77,-2.48 16.94,-6.38 27.67,-11.65 40.57,120.94 67.61,201.3 81.14,241.25 13.69,39.8 29.23,82.4 46.64,127.94 14.14,40.1 25.49,71.96 33.89,95.75 8.55,23.79 16.62,41.82 24.4,53.94 7.77,12.28 16.94,18.34 27.52,18.34l42.12 0 0 30.79c-28.13,-1.25 -65.14,-1.87 -111.14,-1.87 -25.49,0 -69.96,1.24 -133.38,3.73l0 -32.65 49.59 1.87c25.34,0 38.08,-8.7 38.08,-26.27 0,-1.56 -0.3,-3.89 -0.92,-7.3 -0.64,-3.26 -0.94,-5.44 -0.94,-6.53l-45.55 -137.12 -185.76 0 -47.26 123.9c-1.39,6.23 -3.27,14.31 -5.74,24.4 0,18.2 17.08,28.45 51.29,30.78 17.56,-2.48 29.69,-3.73 36.37,-3.73l0 36.23c-53.47,-4.82 -90.46,-7.31 -110.83,-7.31 -23.16,0 -60.16,2.49 -111.14,7.31zm274.99 -495.26l-74.47 249.17 159.34 0 -84.87 -249.17z"/>
  </g>
 </g>
</svg>
