<?xml version="1.0" encoding="UTF-8"?>
<!DOCTYPE svg PUBLIC "-//W3C//DTD SVG 1.1//EN" "http://www.w3.org/Graphics/SVG/1.1/DTD/svg11.dtd">
<!-- Creator: CorelDRAW 2017 -->
<svg xmlns="http://www.w3.org/2000/svg" xml:space="preserve" width="5.4864mm" height="5.4864mm" version="1.1" style="shape-rendering:geometricPrecision; text-rendering:geometricPrecision; image-rendering:optimizeQuality; fill-rule:evenodd; clip-rule:evenodd"
viewBox="0 0 548.64 548.64"
 xmlns:xlink="http://www.w3.org/1999/xlink">
 <defs>
  <style type="text/css">
   <![CDATA[
    .fil0 {fill:#2B2A29}
   ]]>
  </style>
 </defs>
 <g id="Capa_x0020_1">
  <metadata id="CorelCorpID_0Corel-Layer"/>
  <path class="fil0" d="M251.46 164.5l-206.68 1.14c0,29.22 -18.94,180.51 75.99,149.09 23.29,-7.71 28.65,-29.2 41.35,-40.89 6.63,24.51 23.76,43.68 52.93,43.96 40.97,0.4 43.53,-21.91 59.26,-43.1 15.93,21.44 16.73,40.61 54.22,42.95 31.67,1.97 50.33,-18.38 57.97,-43.81 4.4,4.02 45.14,78.87 98.94,28.74 28.12,-26.21 18.41,-90.67 18.41,-135.16l-205.76 -2.39 -1.89 -49.35 -44.07 2.03 -0.67 46.79zm-191.16 158.63l-0.06 52.59c61.88,-15.33 59.5,-5.06 110.4,13.45 44.44,16.17 62.34,-21.33 109.19,-22.5 46.17,-1.17 69.13,30.45 102.38,31.45 32.46,0.98 53.83,-31.58 104.12,-35.49l2.15 -39.5c-60.1,21.71 -60.78,8.24 -101,-15.44 -34.61,30.54 -77.37,35.42 -113.17,1.1 -35.8,34.32 -78.55,29.44 -113.16,-1.1 -41.02,23.51 -39.28,37.74 -100.85,15.44zm163.93 225.51l100.16 0c50.51,-18.63 181.16,-2.44 206.35,-59.54l-512.85 1.6c25.19,55.5 155.84,39.31 206.34,57.94zm-162.91 -116.71l-0.18 40 426.18 0.26 0.9 -63.34c-40.33,0.41 -55.49,34.01 -101.43,34.99 -46.81,0.99 -67.2,-33.39 -106.96,-31.45 -42.36,2.08 -58.24,40.57 -116.41,21.57 -41.18,-13.45 -58.57,-39.19 -102.1,-2.03zm216.92 -431.93l-9.07 0c-85,137.85 95.73,141.14 9.07,0z"/>
 </g>
</svg>
