<?xml version="1.0" encoding="UTF-8"?>
<!DOCTYPE svg PUBLIC "-//W3C//DTD SVG 1.1//EN" "http://www.w3.org/Graphics/SVG/1.1/DTD/svg11.dtd">
<!-- Creator: CorelDRAW 2017 -->
<svg xmlns="http://www.w3.org/2000/svg" xml:space="preserve" width="84.667mm" height="84.667mm" version="1.1" style="shape-rendering:geometricPrecision; text-rendering:geometricPrecision; image-rendering:optimizeQuality; fill-rule:evenodd; clip-rule:evenodd"
viewBox="0 0 8466.7 8466.7"
 xmlns:xlink="http://www.w3.org/1999/xlink">
 <defs>
  <style type="text/css">
   <![CDATA[
    .str0 {stroke:#FEFEFE;stroke-width:20;stroke-miterlimit:22.9256}
    .fil0 {fill:#FEFEFE}
    .fil2 {fill:#4285F3}
    .fil4 {fill:#AAA36E}
    .fil3 {fill:#FABB05}
    .fil1 {fill:white}
   ]]>
  </style>
 </defs>
 <g id="Capa_x0020_1">
  <metadata id="CorelCorpID_0Corel-Layer"/>
  <ellipse class="fil0 str0" cx="4233.35" cy="4233.35" rx="4233.35" ry="4233.34"/>
  <g id="_2563038075600">
   <g>
    <path class="fil1" d="M4419.13 5820.41c52.79,-383.73 70.06,-252.92 -111.86,-486.49 -180.47,-231.77 -169.18,-56.23 -322.03,-378.9l704.83 -110.26 148.45 -456.3c-519.89,-96.8 -1227.92,-187.39 -1738.09,16.71 -431.87,172.78 -743.85,846.69 -532.23,1343.1 443.68,190.8 1296.96,72.14 1850.93,72.14z"/>
    <path class="fil1" d="M3681.18 2398.94c-1046.49,383.22 -522.97,1853.22 537.84,1567.62 1008.4,-271.5 563.67,-1971.01 -537.84,-1567.62z"/>
   </g>
   <path class="fil2" d="M5565.95 5863.84l94.68 380.34 -166.22 -125.74c-235.63,-72.49 -361.32,-210.43 -549.9,-179.46 -141.75,23.27 -356.46,191.06 -568.81,261.92l43.43 -380.49c-553.97,0 -1407.25,118.66 -1850.93,-72.14 -211.62,-496.41 100.36,-1170.32 532.23,-1343.1 510.17,-204.1 1218.2,-113.51 1738.09,-16.71l151.54 -142.05c467.7,559.9 16.22,562.22 968.69,672.41 -131.63,496.29 -429.98,125.39 -392.8,945.02zm-1884.77 -3464.9c1101.51,-403.39 1546.24,1296.12 537.84,1567.62 -1060.81,285.6 -1584.33,-1184.4 -537.84,-1567.62zm-2055.96 1205.65c-250.98,176.64 -523.47,368.8 -714.81,659.65l734.28 603.1 -251.89 1057.96 948.68 206.65 224.41 986.34 1053.38 -262.13c176.27,250.44 364.87,521.71 628.76,685.45 263.88,-163.74 452.49,-435.01 633.99,-704.92l1057.96 251.89 206.65 -948.68 986.33 -224.41 -262.13 -1053.39c250.45,-176.27 521.72,-364.87 685.45,-628.76 -163.73,-263.88 -435,-452.49 -704.92,-633.99l251.9 -1057.96 -948.68 -206.65 -224.41 -986.34 -1053.39 262.13c-176.26,-250.44 -364.87,-521.71 -628.75,-685.45 -263.89,163.74 -452.49,435.01 -633.99,704.92l-1057.97 -251.89 -206.65 948.68 -986.33 224.41 262.13 1053.39z"/>
   <path class="fil3" d="M4838.52 4388.46l-148.45 456.3 -704.83 110.26c152.85,322.67 141.56,147.13 322.03,378.9 181.92,233.57 164.65,102.76 111.86,486.49l-43.43 380.49c212.35,-70.86 427.06,-238.65 568.81,-261.92 188.58,-30.97 314.27,106.97 549.9,179.46 119.52,-113.16 110.15,158.23 71.54,-254.6 -37.18,-819.63 261.17,-448.73 392.8,-945.02 -952.47,-110.19 -500.99,-112.51 -968.69,-672.41l-151.54 142.05z"/>
   <path class="fil4" d="M5494.41 6118.44l166.22 125.74 -94.68 -380.34c38.61,412.83 47.98,141.44 -71.54,254.6z"/>
  </g>
 </g>
</svg>
