<?xml version="1.0" encoding="UTF-8"?>
<!DOCTYPE svg PUBLIC "-//W3C//DTD SVG 1.1//EN" "http://www.w3.org/Graphics/SVG/1.1/DTD/svg11.dtd">
<!-- Creator: CorelDRAW 2017 -->
<svg xmlns="http://www.w3.org/2000/svg" xml:space="preserve" width="126.403mm" height="159.004mm" version="1.1" style="shape-rendering:geometricPrecision; text-rendering:geometricPrecision; image-rendering:optimizeQuality; fill-rule:evenodd; clip-rule:evenodd"
viewBox="0 0 12640.3 15900.38"
 xmlns:xlink="http://www.w3.org/1999/xlink">
 <defs>
  <style type="text/css">
   <![CDATA[
    .fil0 {fill:#FEFEFE}
   ]]>
  </style>
    <clipPath id="id0">
     <rect x="0.02" y="0.34" width="12640.27" height="15899.71"/>
    </clipPath>
 </defs>
 <g id="Capa_x0020_1">
  <metadata id="CorelCorpID_0Corel-Layer"/>
  <g id="_1418987063280">
   <g style="clip-path:url(#id0)">
    <image x="0.02" y="0.35" width="12640.26" height="15899.7" xlink:href="photo-polaroid_Images\photo-polaroid_ImgID1.png"/>
   </g>
   <path class="fil0" d="M3419.2 8138.08c0.64,-63.1 35.6,-118.77 87.58,-136.23 -38.23,51.19 -20.13,49.41 -33.84,77.63 -4.61,9.49 -42.89,51.51 -53.74,58.6zm577.58 -200.9c10.46,-14.34 23.95,-21.65 38.99,-35.09 11.87,-10.61 24.95,-24.89 39.36,-32.3l9.21 55.17 -87.56 12.22zm-842.99 298.41c1.4,-65.18 -1.35,-75.66 20.19,-153.13 14.63,-52.62 44.23,-104.07 77.1,-123.96 -43.62,65.32 -87,188.56 -41.7,252.77 -1.06,-87.37 2.74,-165.75 77.24,-193.23 -21.94,44.95 -47.68,86.72 -33.07,153.39 9.66,-16.14 3.63,-5.37 6.4,-24.56 7.1,-49.07 33.72,-105.31 83.84,-122.43 -34.74,53.36 -46.01,59.2 -21.83,141.43 17.33,-36.87 -0.2,-54.44 67.21,-107.14 1.06,37.28 11.94,64.49 13.76,91.31 -20.81,15.96 -18.24,12.81 -39.5,23.89 -15.98,8.32 -19.47,14.23 -35.86,22.54 -25.24,12.79 -57.94,21.3 -80.13,41.91 -71.11,66.06 -71.74,285.33 -119.91,-16.64 -11.11,-69.66 -13.59,-116.78 17.89,-165.88 -3.36,30.16 -14.76,57.7 -12.98,97.54 0.92,20.44 8.49,86.53 17.53,101.77l3.82 -19.58zm1132.78 42.67l-0.58 -8.2c-7.62,-11.56 -9.2,-19.59 -12.95,-36.15 -7.22,-31.88 -5.34,-16.94 -14.77,-38.72 -17.41,-40.19 15.38,-39.77 0.47,-77.77 -28.88,-73.64 -24.98,-100.41 -36.41,-176.38 -34.42,-29.02 -23.72,-33.93 -79.79,-26.09 6.55,-69.21 7.94,-86.48 -46.22,-117.77 -34.04,-0.22 -65.81,22.62 -102.33,29.04 -20.14,-62.72 -79.29,-46.51 -98.4,-114.74 -10.99,-39.22 -45.6,-157.98 -27.18,-191.93 33.92,-5.36 12.02,17.51 56.7,0.51 18.67,-7.11 40.6,-10.43 62.11,-13.75l21.4 23.31c17.23,-8.66 7.54,-8.83 23.2,-14.39 12.35,-4.38 25.69,-3.3 39.99,-5.3 1.66,-36.31 14.56,-62.88 14.37,-88.22 -34.76,-12.01 -49.03,-34.59 -83.31,-53.21 -29.86,-16.22 -67.96,-37.02 -83.27,-62.01 23.6,-14.8 25.17,-17.55 24.57,-51.78 -19.17,13.47 -26.89,23.19 -50.57,33.15 23.89,-72.87 98.97,-206.92 109.55,-271.84l-25.2 33.92c-21.05,38.23 -98.53,170.31 -121.67,195.52 -11.23,12.23 -20.06,9.73 -36.1,22.27 -13.38,-18 -20.73,-15.9 -45.2,-23.3 -27.4,-8.29 -26.98,-12.64 -42.54,-27.61 -23.69,34.17 -0.9,62.09 27.31,78.76 -48.09,18.55 -101.39,-23.73 -134.71,58.88 23.37,-10.72 31.94,-19.6 68.69,-19.33 -48.4,25.36 -52.07,11.61 -100.69,60.86 -17,17.24 -55.4,51.77 -81.84,29.52 -22.74,-19.13 13.61,-11.43 -15.82,-16.58 -20.44,61.84 40.58,48.65 82.49,35.71 -11.35,11.45 -24.09,18.88 -35.59,28.92 -15.34,13.4 -23.13,17.16 -31.05,36.86 30.37,-16.44 51.95,-35.97 93.62,-39.53 -35.7,25.15 -81.04,49.11 -115.65,78.24 -27.46,23.11 -73.68,70.78 -81,116.5 21.34,-16.41 33.01,-47.75 66.55,-75.22 25.87,-21.18 65.29,-36.51 104.13,-39.57 -44.85,29.04 -81.02,59.76 -91.92,113.4 37.69,-34.45 24.81,-47.6 91.77,-66.77 -30.92,41.09 -84.95,69.07 -96.88,141.73l-37.88 -4.65c1.06,0.81 2.58,0.89 3.28,2.97 0.69,2.04 2.43,2.49 3.23,3.19l27.32 19.93c14.05,5.55 33.87,-0.55 47.66,-3.75 -15.76,22.63 -28.92,37.16 -12.91,76.82 19.06,-52.59 4.61,-56.62 69.89,-74.84 1.18,39.27 -38.96,76.77 -28.49,155.19 -48.46,-28.77 -264.7,-239.38 -154.41,-341.87 -16.56,51.97 -23.22,110.88 13.57,154.27 -22.92,-61.54 -8.37,-82.16 5.07,-137.29 51.04,-209.17 -256.24,-76.1 -327.91,-35.71 31.15,-42.55 94.13,-65.65 158.92,-82.52 -76.38,-4.55 -209.71,54.13 -293.81,66.71 -82.83,12.4 -165.69,-1.37 -228.98,-53.1l-31.67 -21.66c15.04,43.97 67.08,89.96 97.67,107.78 46.83,27.29 105.16,33.89 168.5,28.51 -126.53,49.29 -428.39,-13.1 -552.58,-112.74 -20.08,-16.12 -36.72,-38.03 -59.53,-51.59 38.4,106.05 206.95,161.13 313.03,185.86 42.38,9.88 100.18,14.24 139.11,24.55 -95.21,1.95 -199.25,-25.33 -284.13,-60.17 -34.45,-14.14 -55.91,-28.99 -86.53,-41.23 8.7,21.09 -3.66,2.63 13.06,20.24 14.58,15.35 29.91,21.37 48.08,34.01 65.22,45.35 170.12,64.85 250.82,69.66 -45.84,8.98 -88.49,-4.91 -131.22,-5.63l85.89 24.56c140.55,27.29 204.64,-5.21 328.82,-24.27 -163,85 -471.21,69.35 -645.95,24.39 -98.11,-25.24 -185.54,-54.68 -265.89,-96.85 -43.84,-23.01 -74.55,-41.66 -113.82,-70.22 -31.29,-22.75 -77.52,-70.31 -106.71,-86.65 31.22,72.08 98.9,103.72 156.53,141.61 189.96,124.88 450.81,193.03 691.41,181.28 -110.83,34.23 -329.38,-9.85 -427.13,-44.03 -61.88,-21.63 -114.36,-43.75 -171.5,-71.11 -28.26,-13.54 -53.13,-28.32 -79.64,-42.58 -24.86,-13.37 -58.43,-38.91 -81.94,-48.26 34.19,73.3 227.44,156.02 304.69,189.55 -35.33,-2.66 -69.51,-18.33 -100.07,-30.67 -36.93,-14.91 -62.68,-35.53 -97.19,-46.41 19.91,40.58 97.81,74.36 136.25,91.91 59.96,27.37 105.41,33.98 168.1,43.39 -61.86,18.97 -100.3,-12.04 -149.17,-19.3l20.37 15.13c9.97,5.42 11.12,4.78 21.04,9.18 131.3,58.23 248.89,57.95 393.48,36.21 109.92,-16.52 219.23,-44.72 316.86,-95.44 30.55,-15.87 60.66,-36.3 89.62,-50.02 -86.77,75.02 -324.29,193.05 -451.3,230.97 -88.97,26.55 -119.74,21.33 -203.67,4.13l5.91 9.28c9.45,12.78 17.66,22.45 32.95,28.34 15.62,6.02 43.95,7.11 62.1,6.56 81.19,-2.44 161.42,-28.84 234.51,-59.01 36.24,-14.97 70.9,-35.44 101.71,-47.86 -101.84,69.7 -202.28,128.35 -360.77,129.79l35.73 31.25c47.88,28.83 91.29,43.12 147.67,15.5 58.64,-28.73 106.55,-69.93 161.46,-104.63 -26.64,43.31 -91.44,81.41 -137.21,109.87 -15.71,9.76 -11.37,4.94 -22.1,17.89 132.73,-22.77 335.28,-256 363.72,-275.88 -39.17,71.01 -76.25,96.07 -104.37,192.81 -16.48,56.7 -36.63,106.13 -87.23,132.09 -17.86,9.16 -43.47,11.71 -56.91,27.68 32.66,8.8 67.03,23.51 109.61,16.89l52.88 -88.93c9.02,-18.21 36.77,-84.4 37.72,-97.76 2.56,40.71 -31.98,131.29 -44.7,170.5 77.15,-52.41 63.53,-196.49 130.26,-257.85 -32.83,74.38 -41.24,89.86 -43.94,187.87 -0.88,31.73 -7.26,68.38 -22.44,91.32 -29,43.85 -47.01,30.91 -68.4,54.51 38.94,-0.34 61.96,11.27 87.74,-13.65 57.83,-55.9 23.36,-161.27 78,-231.22 -25.15,80.78 -41.47,120.63 -27.64,213.62 6.63,44.55 10.11,78.91 21.6,122.25 9.47,35.73 24.23,72.77 32.34,105.78 -200.5,16.11 -111.33,106.13 -139.93,259.73 -11.99,64.39 -37.8,90.2 -64.9,133.12 -65.51,103.76 -37.36,50.17 -82.93,97.62 -15.16,15.78 -5.43,-0.14 -12.73,20.68 27.25,-14.12 43.23,-31.21 74.16,-43.45 -12.27,33.99 -29.83,63.29 -49.13,92.12 -13.24,19.78 -12.58,20.51 -31.9,40.25 -10.75,10.99 -27.62,29.83 -37.85,41.31 46.34,-14.4 69.21,-56.49 93.56,-86.58 -11.9,39.43 -34.38,72 -64.22,96.18 -13.22,10.7 -24.19,15.93 -33.12,29.34 89.39,-30.42 107.66,-106.26 155.8,-172.15 -2.22,44.95 -23.58,83.02 -51.3,112.48l-29.42 32.01c75.49,-28.86 121.01,-129.71 143.35,-203.13 0.29,53.38 -24.28,98.55 -54.92,134.96 -15.17,18.03 -23.35,16.8 -27.58,45.52l13.45 -13.87c5.93,-6.11 3.71,-4.14 10.75,-10.68 7.47,-6.93 12.98,-11.72 21.1,-20.02 47.79,-48.86 62.93,-107.45 81.07,-175.57 7.27,58.85 -12.76,75.3 -16.87,117.29 5.15,-5.16 3.59,-3.05 8.54,-9.88 40.95,-56.45 50.64,-156.72 50.6,-223 13.03,64.54 2.26,101.71 -7.81,159.91 17.23,-12.9 16.15,-18.95 21.74,-42.22 4.72,-19.66 7.2,-29.86 8.41,-50.8 4.62,-80.6 -33.05,-142.33 -40.71,-219.21 -5.15,-51.74 8.28,-58.79 46.8,-75.36 -7.7,56.33 -14.81,122.95 16.46,176.13 33.5,56.97 54.77,78.89 18.56,150.02 -9.56,18.78 -14.28,23.47 -27.96,38.6l-36.66 37.41c1.94,38.24 32.14,87.87 41.37,132.76 9.39,45.61 16.56,123.81 24.82,156.82 -6.17,7.23 -11.25,3.54 -13.45,9.55 -5.48,15.06 15.61,-5.2 -6.5,13.24 36.92,6.69 -3.36,5.08 34.52,7.68 -6.12,83.53 52.76,72.63 114.51,62.17 -41.32,-71.36 -59.13,-47.43 -83.48,-128.13 -13.36,-44.26 -32.96,-138.67 -30.87,-186.37 1.44,-32.95 22.3,-41.95 41.77,-59.46 23.03,-20.71 32.08,-29.01 49,-55.31 25.55,-39.74 56.46,-77.24 59.33,-140.35 110.18,58.7 -55.35,161.26 -42.77,210.52 13.39,22.28 38.94,32.73 57.81,47.83 39.36,31.48 76.22,71.57 108.24,110.22 27.12,32.74 24.58,31.03 24.46,80.59l17.35 -6.54c6.72,0.29 11.24,3.28 18.06,7.01 -3.59,20.64 -8.53,29.01 -6.53,52.52 36.28,23.28 70.44,30.47 119.48,15.03 -1.21,-42.02 -210.18,-211.85 -216.36,-289.3 -3.95,-49.5 49.14,-83.08 77.35,-108.26 17.26,-15.39 17.5,-17.44 32.58,-35.09 37.42,-43.79 36.74,-74.33 63.53,-120.4 10.38,-17.85 21.75,-20.55 25.07,-42.43 5.21,-34.36 -19.45,-70.87 -29.56,-100.15 -31.5,-91.24 86.02,-83.16 181.55,-194.43 33.98,-39.58 74.19,-103.33 101.8,-149.98 65.13,-110.07 39.64,-50.4 90.61,-76 16.8,-8.44 27.17,-17.9 43.05,-28.59 0.38,35.23 2.11,54.98 12.7,84.98l111.47 -111.64c8.17,-16.28 3.79,-39.87 15.18,-58.84 50.39,-3.26 64.28,73.3 71.7,124.28 -18.32,15.91 -7.59,9.54 -9.97,15.46 -1.78,4.44 -7.33,4.09 -12.71,15.62 19.73,15.19 48.59,20.19 21.38,45.48 -5.92,5.51 -11.72,8.29 -16.13,16.07 -30.72,54.21 42.89,78.38 91.51,77.29z"/>
   <path class="fil0" d="M4396.62 7095.04l-231.95 293.52c-30.17,37 -63.27,58.36 -76.64,104.38 143.15,104.55 247.86,358.33 210.22,605.86 -33.97,223.33 -147.44,426.27 -88.66,673.7 52.15,219.49 209.25,385.93 377.7,445.2 147.14,51.78 490.83,-3.82 623.13,168.72 55.03,-22.77 48.55,-84.04 228.58,-151.16 93.95,-35.03 209.06,-50.06 308.98,-76.08 182.78,-47.59 307.19,-224.51 360.55,-385.01 121.28,-364.76 -145.96,-613.91 -179.35,-901.89 -16.25,-140.06 4.24,-204.94 28.77,-325.76 15.66,-42.49 32.67,-79.11 52.64,-112.37 20.78,-34.59 43.74,-59.1 61.08,-91.03l-275.54 -262.95c-27.27,-27.92 -62.47,-55.4 -91.63,-81.52 -15.8,9.21 0.77,-3.82 -18.22,14.46 -4.68,4.51 -9.75,10.87 -14.74,16.77 -72.13,85.39 -177.3,121.17 -294.27,122.8 -189.18,2.63 -273.29,-102.49 -332.26,-115.48 -53.84,78.44 -171.14,149.06 -308.81,161.4 -69.74,6.26 -137.07,-1.73 -195.79,-24.61 -120.6,-46.99 -90.6,-81.43 -143.79,-78.95zm-208.04 393.14c24.16,-55.79 123.89,-159.13 167.74,-215.68 20.21,-26.05 34.59,-50.85 56.13,-73.62 45.78,16.67 76.41,48.91 145.29,68.89 65.89,19.11 120.12,22.54 192.31,15.92 154.03,-14.14 217.54,-77.39 311.88,-142.18 109.01,56.56 179.98,103.36 328.88,97.01 70.01,-2.99 130.31,-16.31 187.52,-43.46 78.99,-37.48 100.51,-71.21 133.02,-88.27l262.34 243.78c-16.27,61 -58.91,89.61 -101.35,275.81 -23.84,104.58 -21.39,237.56 4.16,346.33 59.78,254.47 327.67,549.99 110.89,898.6 -141.76,227.97 -221.04,197.81 -515.18,272.37 -188.39,47.76 -188.52,92.03 -258.82,137.02 -94.89,-54.81 -134.92,-84.76 -275.15,-98.95 -90.66,-9.17 -249.43,-14.24 -328.08,-37.19 -159.76,-46.62 -310.28,-223.9 -345.31,-429.34 -62.02,-363.66 328.35,-658.4 -76.27,-1227.04z"/>
   <path class="fil0" d="M6830.48 7896.55c-9.52,-62.37 -51.97,-112.56 -105.9,-122.52 45.06,45.29 26.9,46.07 44.45,72.08 5.9,8.75 49.71,44.96 61.45,50.44zm-600.12 -117.51c-12.38,-12.72 -26.76,-18.06 -43.55,-29.24 -13.24,-8.83 -28.2,-21.13 -43.52,-26.44l-1.34 55.92 88.41 -0.24zm876.63 176.66c-10.57,-64.33 -9.33,-75.09 -41.57,-148.76 -21.89,-50.03 -58.45,-96.79 -93.8,-111.86 52.4,58.53 112.7,174.43 76.9,244.38 -11.26,-86.65 -26.06,-163.71 -103.69,-180.43 28.05,41.41 59.42,79.14 54.35,147.21 -11.84,-14.62 -4.35,-4.81 -9.8,-23.41 -13.93,-47.59 -48.21,-99.51 -100.25,-109.4 41.92,47.93 53.89,52.13 41.54,136.94 -22.35,-34.06 -7.47,-53.92 -81.64,-96.6 4.21,37.06 -2.73,65.53 -0.76,92.34 22.86,12.87 19.86,10.11 42.48,18.08 16.99,5.99 21.28,11.35 38.67,17.26 26.8,9.11 60.37,12.93 85.24,30.21 79.71,55.38 111.23,272.37 116.37,-33.37 1.18,-70.53 -3,-117.53 -41.08,-161.71 7.57,29.39 22.74,55.05 26.59,94.75 1.98,20.36 3.78,86.86 -3.02,103.22l-6.53 -18.85zm-1115.47 201.85l-0.58 -8.2c5.91,-12.52 6.34,-20.69 7.72,-37.61 2.66,-32.58 2.9,-17.53 9.17,-40.42 11.58,-42.24 -20.82,-37.2 -11.42,-76.93 18.22,-76.97 10.59,-102.93 11.2,-179.75 29.98,-33.58 18.69,-36.93 75.31,-37.07 -16.23,-67.6 -20.04,-84.5 29.17,-123.11 33.66,-5.01 68.34,13.13 105.4,14.34 11.1,-64.93 71.94,-57.22 81.25,-127.46 5.36,-40.38 22.89,-162.83 -0.14,-193.85 -34.33,-0.52 -9.43,19.03 -56.05,8.49 -19.49,-4.4 -41.67,-4.6 -63.43,-4.86l-17.9 26.09c-18.28,-6.14 -8.72,-7.68 -25,-10.97 -12.84,-2.6 -25.9,0.35 -40.34,0.38 -6.76,-35.71 -23.28,-60.19 -26.66,-85.31 32.73,-16.79 43.67,-41.15 74.98,-64.42 27.28,-20.27 62.08,-46.23 73.71,-73.12 -25.45,-11.33 -27.39,-13.83 -31.62,-47.8 20.88,10.63 29.89,19.17 54.73,25.69 -33.91,-68.78 -127.14,-190.91 -146.75,-253.69l29.73 30.03c26.22,34.88 121.53,154.72 148,176.43 12.84,10.52 21.23,6.8 38.88,16.96 10.71,-19.71 18.28,-18.66 41.46,-29.44 25.96,-12.07 24.93,-16.32 38.23,-33.32 28.26,30.49 9.64,61.33 -15.94,81.81 50.22,11.59 97.03,-37.78 141.66,39.32 -24.65,-7.32 -34.38,-14.91 -70.73,-9.46 51.49,18.28 53.19,4.15 108.26,46.07 19.27,14.66 62.14,43.44 85.18,17.69 19.82,-22.14 -15.09,-9.4 13.33,-18.65 28.95,58.35 -33.32,53.89 -76.63,46.98 12.84,9.74 26.51,15.3 39.3,23.62 17.07,11.1 25.32,13.73 35.94,32.12 -32.39,-12 -56.5,-28.29 -98.26,-25.95 38.89,19.87 87.15,37.2 125.52,61.16 30.45,19.01 82.91,59.7 96.6,103.93 -23.43,-13.23 -39.4,-42.62 -76.48,-65.09 -28.59,-17.32 -69.78,-26.95 -108.66,-24.5 48.49,22.42 88.63,47.74 106.97,99.32 -42.16,-28.8 -31.26,-43.64 -100.25,-53.18 36.4,36.32 93.83,56.41 115.88,126.67l36.84 -9.95c-0.93,0.96 -2.42,1.25 -2.82,3.41 -0.4,2.11 -2.06,2.8 -2.75,3.61l-24.24 23.58c-13.13,7.48 -33.61,4.22 -47.71,3 18.78,20.19 33.86,32.72 23.6,74.24 -26.28,-49.38 -12.54,-55.41 -79.74,-64.25 4.37,39.04 49.39,70.52 50.07,149.63 43.92,-35.31 228.33,-274.28 104.7,-360.22 23.73,49.13 38.62,106.5 8.31,154.65 14.02,-64.16 -3.29,-82.53 -24.37,-135.2 -80,-199.9 242.97,-111.45 319.61,-81.57 -36.83,-37.73 -102.43,-51.73 -168.96,-59.3 74.98,-15.26 215.25,24.04 300.28,24.65 83.75,0.6 163.84,-24.7 219.22,-84.84l28.3 -25.9c-8.7,45.65 -53.74,98.51 -81.51,120.47 -42.52,33.61 -99.34,48.36 -162.81,51.97 132.22,30.96 422.27,-73.33 531.19,-189.48 17.6,-18.78 30.99,-42.82 51.66,-59.46 -23.07,110.4 -182.17,188.68 -283.71,228.11 -40.57,15.75 -97.18,28.21 -134.27,43.9 94.53,-11.48 193.7,-53.15 272.82,-99.6 32.11,-18.85 51.26,-36.58 79.85,-53 -5.64,22.1 4,2.08 -10.07,21.87 -12.28,17.25 -26.6,25.37 -42.81,40.44 -58.18,54.09 -159.29,88.18 -238.51,104.31 46.65,2.43 86.93,-17.33 129.12,-24.06l-81.57 36.42c-135.3,46.82 -203.33,23.67 -328.96,22.29 173.35,61.2 476.28,2.27 642.94,-66.86 93.58,-38.81 175.99,-80.28 249.6,-133.35 40.16,-28.95 67.93,-51.75 102.79,-85.55 27.77,-26.94 66.84,-80.53 93.43,-100.83 -20.74,75.77 -83.3,116.63 -135.01,162.26 -170.47,150.4 -419.12,254.62 -658.97,276.88 114.55,18.28 324.7,-56.15 416.67,-103.76 58.21,-30.14 107.05,-59.43 159.76,-94.57 26.07,-17.39 48.62,-35.52 72.85,-53.37 22.72,-16.74 52.36,-46.76 74.33,-59.33 -23.53,77.38 -203.19,186.51 -274.95,230.59 34.6,-7.61 66.24,-27.94 94.75,-44.46 34.46,-19.97 57.05,-44.01 89.68,-59.65 -13.99,42.99 -86.35,87.41 -121.94,110.2 -55.51,35.54 -99.58,48.49 -160.31,66.64 63.91,10.07 97.6,-26.06 144.96,-40.13l-18.04 17.86c-9.1,6.76 -10.33,6.29 -19.53,12.04 -121.79,76.15 -238.24,92.44 -384.46,91.3 -111.14,-0.88 -223.34,-13.39 -327.14,-49.85 -32.48,-11.41 -65.16,-27.39 -95.77,-36.9 96.47,62.05 348.25,145.44 479.34,165.08 91.82,13.76 121.55,4.25 202.22,-24.6l-4.55 10.02c-7.55,13.98 -14.32,24.72 -28.62,32.7 -14.62,8.16 -42.51,13.23 -60.56,15.24 -80.72,9.03 -163.88,-5.81 -240.48,-25.38 -37.99,-9.71 -75.19,-25.09 -107.44,-33.05 110.64,54.65 218.34,98.57 375.46,77.66l-30.97 35.98c-43.35,35.28 -84.31,55.54 -144.02,36.15 -62.1,-20.18 -115.34,-54.22 -174.59,-80.84 32.48,39.13 102,67.72 151.32,89.44 16.93,7.45 11.95,3.29 24.4,14.6 -134.61,-3.84 -368,-206.21 -398.97,-221.88 48.8,64.78 89.03,84.36 130.5,176.18 24.3,53.81 51.22,99.91 104.97,118.48 18.97,6.55 44.69,5.47 60.25,19.38 -31.1,13.32 -63.05,32.73 -106.14,32.17l-64.88 -80.59c-11.5,-16.76 -48.3,-78.38 -51.12,-91.47 3.2,40.67 50.16,125.48 68.28,162.5 -83.77,-41.02 -90.59,-185.58 -165.3,-236.93 42.99,69.02 53.49,83.16 69.98,179.81 5.34,31.29 16.82,66.67 35.08,87.25 34.89,39.33 50.9,23.98 75.39,44.32 -38.59,5.15 -59.74,19.89 -88.78,-1.15 -65.12,-47.18 -45.85,-156.37 -109.8,-217.92 36.28,76.43 58.06,113.58 57.46,207.59 -0.28,45.05 1.12,79.55 -4.15,124.08 -4.35,36.71 -13.74,75.45 -17.12,109.29 200.77,-12.31 125.17,89.38 175.13,237.42 20.94,62.06 50.13,83.97 83,122.64 79.48,93.5 44.07,44.41 95.87,84.96 17.22,13.49 5.35,-0.9 15.51,18.69 -28.96,-10.15 -47.2,-24.81 -79.54,-32.57 16.93,31.92 38.45,58.45 61.61,84.28 15.9,17.71 15.35,18.53 37.26,35.35 12.19,9.36 31.55,25.65 43.29,35.57 -47.9,-7.74 -76.48,-46.18 -104.83,-72.53 17.35,37.35 44.19,66.43 77.14,86.16 14.6,8.74 26.2,12.37 36.93,24.38 -92.79,-17.52 -121.56,-90.03 -178.51,-148.48 8.53,44.2 35.04,78.87 66.64,104.13l33.63 27.54c-78.8,-17.92 -138.07,-111.36 -170.54,-180.9 7.23,52.89 37.93,94.15 73.4,125.88 17.55,15.71 25.47,13.34 33.71,41.18l-15.27 -11.83c-6.73,-5.22 -4.26,-3.59 -12.15,-9.07 -8.37,-5.81 -14.5,-9.77 -23.71,-16.84 -54.2,-41.64 -77.44,-97.51 -104.99,-162.4 1.08,59.29 23.23,72.75 33.22,113.74 -5.83,-4.38 -3.98,-2.51 -9.85,-8.57 -48.49,-50.12 -72.21,-148.02 -81.52,-213.65 -3.8,65.73 12.1,101.02 30.27,157.21 -18.88,-10.34 -18.66,-16.49 -27.47,-38.73 -7.44,-18.81 -11.34,-28.55 -15.48,-49.11 -15.93,-79.15 12.66,-145.56 9.41,-222.76 -2.19,-51.95 -16.48,-57.04 -56.95,-68.02 15.56,54.68 31.99,119.65 8.52,176.7 -25.13,61.11 -43.11,85.82 2.77,151.14 12.11,17.24 17.44,21.21 33.11,34.27l41.57 31.87c3.46,38.13 -19.43,91.52 -22.26,137.26 -2.86,46.48 1.06,124.92 -2.46,158.76 7.12,6.29 11.63,1.92 14.65,7.56 7.55,14.13 -16.18,-2.95 8.3,12.19 -35.61,11.82 4.04,4.56 -33.09,12.47 17.82,81.83 -42,79.34 -104.6,77.68 30.85,-76.47 51.85,-55.29 64.59,-138.62 6.98,-45.69 13.09,-141.92 4.3,-188.85 -6.07,-32.42 -27.98,-38.39 -49.73,-52.98 -25.72,-17.27 -35.85,-24.21 -56.3,-47.86 -30.9,-35.74 -66.78,-68.52 -78.52,-130.59 -100.81,73.64 77.52,151.86 72.01,202.39 -10.12,23.94 -33.94,37.9 -50.5,55.5 -34.53,36.71 -65.38,81.6 -91.63,124.38 -22.24,36.23 -19.96,34.18 -12.86,83.23l-18.1 -4.04c-6.61,1.24 -10.67,4.84 -16.89,9.49 6.46,19.93 12.53,27.52 13.86,51.08 -32.63,28.16 -65.44,40.09 -116.16,31.71 -4.73,-41.77 178.23,-239.35 173.43,-316.9 -3.06,-49.56 -60.35,-75.32 -91.83,-96.28 -19.25,-12.81 -19.78,-14.8 -37.2,-30.15 -43.21,-38.08 -46.84,-68.41 -79.86,-110.25 -12.79,-16.21 -24.43,-17.27 -30.8,-38.48 -9.99,-33.27 9.28,-72.89 15.16,-103.31 18.33,-94.76 -96.88,-70.21 -207.14,-166.9 -39.22,-34.4 -88.01,-91.86 -121.91,-134.15 -79.99,-99.79 -46.34,-44.31 -100.41,-62.47 -17.83,-5.99 -29.43,-13.9 -46.65,-22.24 4.58,34.93 5.66,54.72 -0.6,85.92l-126.09 -94.82c-10.38,-14.97 -9.37,-38.94 -23.32,-56.12 -50.34,3.88 -53.31,81.63 -53.48,133.15 20.38,13.17 8.86,8.38 12.05,13.9 2.39,4.15 7.84,3.01 14.79,13.67 -17.4,17.82 -45.26,26.84 -14.76,48.04 6.64,4.62 12.77,6.56 18.23,13.63 38.05,49.35 -31.42,83.65 -79.7,89.42z"/>
   <path class="fil0" d="M5518.54 6438.81c18.74,-1.33 31.04,-0.71 47.24,11.07l10.23 9.76c12.36,13.55 18.15,32.84 22.02,50.02 6.03,26.77 2.54,59.87 -3.21,86.52 -6.83,31.73 -20.38,62.48 -37.07,90.11 -3.35,5.54 -6.4,9.87 -10.12,15.36 -10.62,15.7 -29.18,36.38 -43.35,47.28 -28.33,21.77 -65.31,41.57 -101.34,23.35 -37.57,-18.99 -46.03,-75.38 -42.06,-117.46 2.12,-22.51 7.76,-48.92 15.7,-69.72 0.91,-2.36 1.77,-4.16 2.64,-6.28 0.91,-2.26 1.33,-4.07 2.28,-6.59 1.62,-4.25 3.9,-7.52 5.6,-11.5l5.82 -12.09c2.25,-3.34 2.89,-1.1 7.39,-5.26 4.76,-4.4 6.2,-9.29 8.88,-14.1 7.07,-12.67 25.08,-32.79 39.16,-33.78 9.2,-0.65 14.83,-1.26 24.03,6.41 7.83,6.52 8.83,10.29 9.55,20.4 1.5,21.12 -12.59,34.21 -29.65,42.03 -3.83,1.76 -6.64,3.06 -10.71,4.73 -25.66,10.46 -40.42,24.37 -55.85,46.55 -2.21,3.17 -4.08,5.75 -5.74,9.04 -2.83,5.61 -7.39,13.87 -6.8,22.14 0.75,10.65 11.92,17.3 22.1,14.57 14.56,-3.92 14.4,-13.52 18.35,-20.74 4.98,-9.1 18.99,-25.26 28.33,-29.93l27.55 -12.7c17.79,-9.99 19.92,-10.35 33.65,-26.09 14.51,-16.64 20.22,-41.2 18.6,-64.09 -0.94,-13.28 -8.38,-25.14 -16.23,-34.26 -6.7,-7.77 -20.38,-15.81 -30.79,-17.47 1.01,-1.01 0.25,-0.41 1.85,-1.51l6.91 -4.13c8.54,-4.99 24.67,-10.91 35.04,-11.64zm130.59 66.08l1.32 18.72c0.51,17.39 -0.8,34.79 -2.77,48.35 -1.14,7.88 -3.48,22.4 -5.68,29.76 -0.14,0.47 -1.01,2.32 -1.33,3.04 -9.03,19.94 -14.06,42.35 -20.76,63.05 -1.59,4.9 -4.99,9.4 -7.46,13.78 -18.21,32.25 -38.76,63.78 -46.23,100.86 -1.16,5.73 -2.19,11.13 -3.5,17.21 -1.02,4.74 -1.18,8.6 -3.11,12.94 -1.51,3.41 -0.03,7.68 -1.31,12.05 -0.42,1.42 -2.56,5.73 -3.46,7.13 -6.75,10.55 -18.65,13.39 -30.77,11.83 -18.32,-2.35 -133.17,-11.21 -152.73,-10.65 -19.47,0.55 -38.44,-1.52 -58.41,-1.79l-60.15 -0.68c-12.82,0.73 -37.52,-0.71 -50.87,0.29 -4.82,0.36 -5.68,-0.35 -9.97,-0.17 -35.6,1.45 -178.66,5.62 -210.29,11.46 -10.04,1.85 -21.94,1.51 -32.26,2.37 -4.61,0.38 -5.22,1.21 -9.83,1.59 -14.49,1.21 -27.99,2 -42.29,3.8l-81.71 10.08c-6.18,1.13 -12.96,2.14 -19.92,2.96l-39.6 6.13c-19.49,2.31 -39.31,6.03 -57.9,9.71 -3.37,0.67 -7.19,1.12 -9.81,1.61 -47.44,8.81 -94.88,17.34 -141.95,28.68 -9.5,2.29 -28.79,8.2 -37.77,7.36 -9.94,-0.93 -21.16,-9.13 -23.77,-19.29 -1.99,-7.79 1.03,-6.22 -2.29,-13.47l-7.08 -20.59c-8.23,-23.4 -20.82,-43.56 -35.81,-62.86l-42.98 -55.49c-9.68,-13.78 -8.55,-12.25 -15.34,-28.99l-12.12 -32.72c-6.37,-16.39 -12.18,-35.12 -14.48,-53.33 -0.84,-6.63 -1.66,-13.45 -2.3,-20.33l-1 -14.09c-0.67,-14.88 0,-29.82 3.67,-43.89 5.18,-19.86 5.01,-18.96 14.44,-38.09 1.55,-3.13 2.3,-4 4.08,-6.59 23.57,-34.29 61.52,-51.49 106.38,-45.67 16.79,2.18 34.75,5.97 49.17,13.34 2.33,1.19 12.39,5.72 14.25,6.02 -2.78,-4.45 -6.14,-6.69 -9.57,-10.52 -11.12,-12.4 -25.99,-21.83 -42.12,-25.95 -19.07,-4.87 -26.7,-31.82 -9.9,-40.37 6.34,-3.23 8.98,-2.88 15.85,-1.5 9.8,1.95 19.59,5.6 27.86,10.97 4.04,2.62 7.85,4.3 11.7,7.16 9.45,7 17.66,14.89 26.24,22.71 1.93,1.76 3.09,3.2 4.9,5.13 3.08,3.31 5.55,7.78 9.3,9.93 -1.76,-24.89 -4.02,-45.63 2.52,-68.71 4.78,-16.88 17.27,-42.09 38.42,-29.67 7,4.12 14.35,13.51 11.86,26.59 -2.64,13.92 -15.36,11.75 -11.96,59.72 0.98,13.93 4.55,28.98 4.95,34.68l0.83 -0.06c-0.7,-9.89 2.88,-22.71 4.47,-31.17 2.71,-14.45 6.91,-28.77 11.98,-42.58 7.64,-20.8 16.94,-42.28 30.16,-60.28 1.68,-2.28 2.57,-3.23 4.25,-5.66 6.22,-8.97 13.68,-17.48 21.58,-24.89 12.29,-11.52 28.62,-24.15 44.53,-30.67 20.16,-8.25 41.51,-13.9 64.04,-12.53 14.47,0.87 30.55,3.34 44.17,8.33 4.29,1.58 8.81,3.31 13.25,5.37 15.78,7.31 42.57,23.45 55.36,36.72 1.98,2.06 2.23,2.69 4.53,4.66 4.46,3.81 9.01,10.87 13.7,13.83 -2.2,-7.11 -6.81,-14 -10.34,-20.4l-17.21 -27.74c-6.06,-8.62 -13.15,-16.58 -20.11,-24.4 -20.43,-22.98 -38.27,-23.09 -45.96,-26.91 -17.71,-8.78 -17.94,-38.44 3.3,-44.45 16.44,-4.65 54.3,18.4 66.95,32.59 2.72,3.05 4.81,4.2 7.56,7.43l37.94 51.43c-0.41,-5.88 0.51,-4.82 -0.95,-10.54 -4.01,-15.73 -8.82,-31.64 -14.45,-47.12 -5.95,-16.36 -13.73,-34.11 -25.59,-46.8 -7.66,-8.18 -10.86,-9.81 -19.21,-15.57 -12.52,-8.63 -13.21,-31.03 -0.72,-40.37 16.51,-12.35 35.06,6.03 46.44,17.3 2.5,2.48 3.27,3.6 5.5,6.22 1.97,2.33 3.47,3.78 5.33,6.42 3.11,4.42 7.3,9.7 9.49,14.2 2.1,4.32 7.21,11.48 7.91,16.02l1.66 -0.12c1.35,-8.47 5.89,-17.73 9.31,-25.41 6.86,-15.4 17.36,-29.24 29.86,-40.3 2.42,-2.14 3.87,-3.3 7,-4.82 19.58,-9.49 37.3,12.47 29.03,32.99 -3.09,7.65 -5.86,7.96 -11.22,12.85 -3.89,3.55 -7.5,8.24 -10.4,12.78 -15.61,24.52 -27.05,80.38 -25.02,109.15l4.87 -9.8c9.44,-22.83 21.96,-43.98 38.15,-62.69 9.43,-10.88 37.62,-35.95 54.6,-33.83 17.84,2.23 23.74,22.19 16.6,35.66 -4.25,8.03 -9.55,8.69 -16.91,12.58 -7.5,3.96 -11.5,7.28 -17.17,12.36 -15.32,13.73 -32.15,42.43 -39.42,62.37 -2.53,6.96 -10.56,24.95 -10.64,31.27 3.23,-2.51 5.73,-7.51 8.15,-10.84 1.65,-2.28 1.88,-3.01 3.83,-5.24l6.44 -7.66c11.02,-12.17 22.22,-24.09 35.84,-33.53 3.58,-2.49 7.03,-5.12 10.91,-7.67 8,-5.28 16.76,-8.99 25.74,-12.71 38.85,-16.1 84.42,-13.33 120.12,5.83 4.18,2.24 7.36,4.09 11.48,6.52 11.41,6.73 21.28,15.47 31.2,24.18 17.18,15.08 37.31,43.64 47.86,64.21 8.29,16.15 25.17,51.49 26.78,68.78l1.66 -0.12c-0.46,-6.59 0.55,-11.69 0.43,-17.54 -0.36,-17.96 -1.3,-34.01 -7.97,-50.97 -1.55,-3.94 -4.3,-9.15 -7.01,-12.56 -7.36,-9.23 -10.88,-15.45 -5.69,-27.64 1.56,-3.67 4.78,-7.69 8.2,-10.02 30.16,-20.6 46.95,38.24 50.87,57.82 2.33,11.66 1.93,24.2 2.73,35.45l17.35 -24.66c11.01,-15.11 25.69,-27.54 41.64,-37.08 34.09,-20.39 45.22,6.27 37.58,21.72 -6,12.15 -12.13,11.57 -22.86,17.54 -3.96,2.2 -8.21,5.77 -11.57,8.66l-10.1 9.92c-4.01,4.05 -13.91,18.55 -16.5,23.07 2.86,-0.98 1.32,-0.63 3.57,-2.36 7.46,-5.72 15.39,-10.01 23.83,-14.36 4.97,-2.57 9.74,-5.27 15.09,-7.15 24.01,-8.45 48.09,-14.91 74.73,-8.92 28.12,6.31 47.04,19.44 64.71,42.1 6.55,8.41 11.58,17.99 15.76,28.51 4.41,11.09 7.52,23.54 9.88,35.3 0.8,4 1.44,8.16 1.94,12.4zm-1171.66 80.2c2.61,36.86 28.67,66.42 62.55,77.81 19.74,6.63 33.14,6.27 47.92,19.26 23.62,20.75 18.43,22.52 24.77,28.01 7.24,6.29 17.15,7.97 24.74,2.91 3.6,-2.4 6.3,-5.02 7.3,-10.03 3.73,-18.72 -22.16,-39.76 -34.74,-50.81l-9.9 -7.44c-7.01,-4.34 -14.49,-7.29 -23.02,-10.27l-25.92 -7.82c-7.18,-2.37 -16.9,-6.98 -21.5,-12.93 -26.13,-33.75 0.93,-53.31 11.87,-54.08 12.65,-0.9 19.04,0.85 31.15,8.98 6.15,4.13 13.84,11.5 18.42,17.36 4.23,5.41 6.76,10.85 12.48,14.34 6.8,4.15 4.02,-1.66 13.92,12.68 1.51,2.19 2.1,3.54 3.61,5.72 1.37,1.99 2.49,3.44 3.86,5.42 1.58,2.28 1.73,3.06 2.99,5.53 8.1,15.88 13.3,21.5 20.98,43.14 4.92,13.87 4.97,12.9 8.98,28.26 8.79,33.67 11.53,76 -6.01,105.52 -5.42,9.11 -9.87,14.75 -18.41,20.63 -25.61,17.64 -57.39,11.96 -83.58,0.15l-8.88 -4.12c-13.04,-6.29 -35.06,-22.59 -45.9,-32.37 -2.68,-2.42 -3.77,-4.13 -6.71,-6.63 -2.85,-2.42 -3.99,-4.14 -6.72,-6.62l-18.44 -20.94c-10.02,-14.18 -11.43,-14.7 -21.74,-31.49 -2.06,-3.36 -3.05,-4.25 -5.13,-8.45 -1.7,-3.45 -2.96,-5.18 -4.79,-8.83 -16.04,-32.04 -26.38,-59.6 -29.07,-97.57 -1.71,-24.08 2.76,-48.33 11.35,-63.37 9.37,-16.43 24.48,-31.75 46.01,-33.28 24.66,-1.74 29.84,0.02 50.87,7.78 2.62,0.97 3.28,0.56 4.89,2.45 -10.61,3.28 -21.53,13.94 -27.71,22.7 -6.28,8.91 -11.55,23.42 -10.49,38.4zm66.84 -104l0 0zm0 0l-0.88 -0.77 0.88 0.77zm294.87 -4.19c1.04,14.6 4.73,33.22 14.48,43.46 3.22,3.38 5.07,5.12 8.54,8.1 21.25,18.26 60.11,24.4 82.06,3.82 22.69,-21.26 14.17,-47.98 -8.55,-46.37 -6.35,0.45 -11.98,3.8 -14.64,7.55 -3.72,5.25 -5.65,19.13 -30.26,5.62 -13.09,-7.18 -15.29,-29.05 -0.32,-43.07 17.33,-16.24 45.82,-14.61 58.84,6.13 8.21,13.08 13.07,35.61 14.27,52.66 0.77,10.86 -0.73,21.97 -3.69,31.86 -0.96,3.23 -2.49,5.84 -3.67,9.27 -5.13,14.86 5.1,28.78 19.77,28.06l0.46 18.32c-15.18,-15.15 -36.35,-25.28 -58.08,-29.09 -27.36,-4.79 -60.32,1.18 -82.18,17.16 -2.46,1.8 -4.13,3.22 -6.64,5.14 -5.89,4.51 -13.03,12.36 -16.86,18.87 -3,5.11 -5.94,9.89 -7.95,15.69 -12.12,35.1 -7.66,58.24 15.23,87.1 2.08,2.62 2.9,2.81 5.07,4.93 9.21,9 18.82,15.78 31.01,20.81 22.35,9.23 47.89,9.27 68.26,-5.15 3.96,-2.81 7.6,-5.52 10.85,-9.28 5.83,-6.73 7.9,-14.42 3.03,-22.81 -4.24,-7.3 -14.08,-10.64 -22.48,-8.13 -11.84,3.54 -12.51,14.55 -29.32,14.79 -22.66,0.33 -47.33,-24.9 -48.41,-40.16 -4.43,-62.66 74.51,-76.37 108.05,-44.67 0.77,0.73 0.87,0.9 1.68,1.65 9.25,8.58 15.25,15.94 20.04,28.08 3.34,8.47 1.33,10.4 -0.79,18.63 -3.04,11.86 -6.02,24.44 -11.51,35.19 -7.3,14.3 -6.84,15.69 -15.83,30.66 -5.81,9.68 -12.68,19.34 -21.08,26.87 -20.26,18.18 -36.4,30.59 -67.24,32.77 -25.68,1.82 -57.76,-10.84 -76.78,-27.28 -1.49,-1.28 -2.42,-2.3 -4.02,-3.45 -2.14,-1.54 -2.81,-1.45 -4.78,-3.48l-15.5 -15.34c-14.82,-16.91 -28.01,-34.76 -38.22,-55.59 -9.62,-19.65 -11.53,-23.12 -19.23,-44.26 -7.29,-20.05 -12.53,-42.58 -15.93,-64.28 -1.44,-9.21 1.03,-5.81 0.89,-12.56 -0.31,-14.77 -2.19,-26.9 2.93,-40.3 4.03,-10.53 11.89,-21.68 25.09,-22.62 7.82,-0.55 17.32,1.75 22.38,4.72 12.26,7.2 19.41,23.53 18.08,38.18 -0.69,7.66 -4.91,13.46 -8.76,18.9 -4.2,5.95 -8.48,9.89 -12.39,15.73 -2.07,3.1 -3.79,4.85 -5.87,8.14 -1.71,2.72 -3.72,6.13 -5.05,8.86 -8.17,16.68 -20.13,83.98 16.58,81.38 6.79,-0.48 12.33,-5.1 14.61,-9.9 3.27,-6.87 0.41,-13.38 -0.2,-21.98 -1.01,-14.27 3.44,-29.5 11.07,-39.47 0.1,-0.14 0.26,-0.33 0.37,-0.46 0.1,-0.14 0.26,-0.32 0.37,-0.45 6.82,-8.46 14.14,-16.42 19.52,-25.9 2.62,-4.63 4.52,-8.02 6.4,-13.15 3.32,-9.06 5.87,-21.29 3.67,-32.93 -4.12,-21.74 -11.88,-40.08 -27.95,-53.97 -18.65,-16.13 -46.57,-24.04 -71.78,-16.75 -4.05,1.18 -6.05,3 -9.41,3.52 0.73,-4.6 1.69,-7.9 2.63,-12.52 2.91,-14.37 7.68,-28.21 13,-41.68l7.43 -16.92c1.76,-3.78 3.5,-7.15 5.69,-10.64l12.7 -19.36c2.23,-3.08 5.11,-5.97 7.66,-8.92 5.68,-6.55 10.29,-10.67 17.33,-16.12 39.33,-30.41 85.26,-26.09 125.87,2.31 9.06,6.34 18.24,14.27 25.76,22.37 11.09,11.94 13.04,15.68 21.79,26.94 -25.79,1.83 -38.51,6.13 -56.1,22.19 -11.32,10.33 -23.49,31.33 -21.99,52.58zm325.43 -173.19c22.85,-1.62 40.01,1.8 59.1,12.66l14.43 9.4c2.1,1.52 2.74,1.68 4.8,3.45l12.92 12.03c13.55,13.2 25.89,31.27 34.42,48.3l8.47 17.17c1.93,4.35 8.74,20.45 9.19,25.31 -3.23,-0.51 -4.87,-1.64 -8.98,-2.22 -15.55,-2.19 -34.78,2.74 -47.15,8.8 -12.56,6.14 -23.96,17.54 -30.26,29.82 -13.64,26.61 -16.26,58.39 1.27,84.18l30.88 31.74c7.25,8.08 10.93,18.08 13.41,29.43 2.91,13.36 0.2,9.81 0.77,17.95 1.94,27.38 60.43,28.46 32.42,-47.25 -4.06,-10.99 -7.47,-17.68 -14.23,-25.79l-14.58 -14.61c-1.96,-1.72 -3.41,-2.84 -5.36,-4.59 -3.31,-2.99 -6.22,-6.68 -9.02,-10.25 -12.94,-16.53 -4.5,-45.1 12.78,-53.91 28.26,-14.4 48.12,11.37 51.29,37.51 0.69,5.74 -0.24,13.15 1.79,18.57 1.59,4.21 2.21,2.74 2.51,6.99 1.01,14.31 -1.02,30.05 -2.44,43.06 -4.14,38.06 -14.34,74.84 -31.68,108.83 -6.58,12.89 -14.52,25.2 -23.52,36.44l-17.12 18.64c-6.32,5.95 -12.84,11.41 -20.36,15.82 -14.38,8.44 -29.1,15.4 -48.84,16.8 -17.38,1.23 -38.27,-4.83 -49.5,-11.17 -13.64,-7.69 -17.27,-10.2 -27.49,-19.48l-23.08 -24.56 -13.02 -19.1c-5.07,-7.72 -20.8,-38.41 -21.24,-44.64 -1.1,-15.53 10.41,-31.27 19.35,-41.64 15.56,-18.04 48.72,-26.67 72.86,-18.89 23.16,7.47 36.97,24.32 38.88,51.25 0.77,10.89 -10.94,26.31 -18.72,33.6 -10.45,9.79 -28.29,15.56 -41.46,7.04 -5.93,-3.83 -4.56,-5.35 -13.89,-6.49 -17.78,-2.18 -36.89,23.93 -1.45,41.23 43.64,21.31 90.09,-10.37 107.78,-49.71 11.39,-25.34 6.91,-50.48 -5.7,-74.26 -2.63,-4.97 -6.24,-9.5 -9.89,-13.74 -11.27,-13.1 -26.12,-21.91 -43.37,-27.2 -25.38,-7.78 -58.52,-4.55 -82.41,7.27 -1.99,0.98 -3.28,1.88 -5.49,3.02 -10.91,5.61 -21.01,13.89 -28.82,23.31 -4.92,5.93 -5.35,3.88 -6.59,-13.54 10.58,-0.98 19.37,-9.12 18.62,-19.67 -0.43,-6.13 -1.94,-9.92 -4.95,-14.94 -14.12,-23.56 -15.67,-64.5 -4.95,-89.47 2.51,-5.87 6.45,-10.33 11.37,-14.28 21.18,-17 58.24,-3.66 59.98,20.92 0.44,6.2 -0.48,14.34 -4.75,18.46 -3.51,3.4 -10.19,8.02 -15.17,9.45 -19.77,5.65 -12.59,-14.77 -35.73,-13.13 -18.75,1.33 -25.56,26.74 -3.99,44.11 1.09,0.87 2.13,1.52 3.32,2.44 16.74,12.92 42.79,9.62 60.62,0.83 5.28,-2.61 10.6,-6.31 14.96,-10.39l12.41 -13.37c2.72,-3.7 3.66,-7.38 5.26,-11.8 7.14,-19.74 4.13,-44.25 -6.34,-61.87 -5.07,-8.54 -11.57,-14.51 -18.88,-20.42 -17.16,-13.84 -37.01,-17.6 -60.14,-15.96 2.45,-12.71 30.67,-46.8 39.22,-54.76 14.5,-13.5 38.33,-30.81 65.48,-32.73zm-132.1 30.2l0 0z"/>
   <path class="fil0" d="M4556.84 7046.61l0.29 4.15c0.64,9.07 12.16,18.32 21.26,17.67l18.23 -2.09c4.39,-0.61 8.35,-1.08 13.05,-1.91l152.36 -23.53c8.24,-1.85 18.52,-2.17 26.16,-3.77 4.22,-0.89 8.7,-0.53 12.99,-1.2l52.17 -6.11c4.95,-0.41 7.35,-1.43 13.18,-1.81 9.58,-0.62 17.13,-2 27.35,-2.74 5.24,-0.37 6.83,-1.39 12.34,-1.75 31.44,-2.1 63.65,-6.16 96.14,-8.46l78.81 -5.58c18.59,-1.31 35.39,-1.67 53.16,-2.93l90.78 -3.21c4.46,0.18 9.42,-0.92 13.88,-0.74l38.66 -0.58c4.55,0.29 9.2,-0.82 13.78,-0.63 7.8,0.32 16.61,-0.42 25.01,-0.1l37.89 0.3c3.5,0.21 9.44,0.26 12.3,0.19l50.29 0.38c8.56,0.48 17.37,0.31 25.06,0.73 8.63,0.46 17.27,0.29 25.06,0.73l29.77 -0.21c12,-0.85 20.88,-11.3 20.05,-23.11 -1.35,-19.01 -29.56,-14.95 -42.34,-15.82l-83.18 -1.96c-18.62,0.29 -38.39,-1.6 -56.71,-0.16 -5.51,0.43 -8.29,-0.11 -14.16,0.17l-14.86 0.08c-18.23,-0.73 -37.49,0.48 -56.77,0.81 -26.49,0.45 -61.06,0.98 -87.34,2.84 -10.89,0.77 -18.89,0.5 -29.93,1.28 -20.21,1.43 -38.93,1.93 -59.79,3.4l-66.38 4.7c-20.86,1.48 -39.47,3.63 -59.67,5.06 -18.21,1.29 -41.83,4.65 -59.62,5.89 -11.05,0.77 -18.92,2.21 -29.81,2.94l-144.62 18.56c-10.81,1.03 -43.32,7.36 -56.07,8.97 -19.08,2.42 -37.55,5.97 -55.95,9.07l-27.51 4.94c-8.89,2.09 -15.81,8.48 -15.31,15.54z"/>
   <path class="fil0" d="M5364.15 6884.34c1,14.17 0.37,23.14 -6.65,35.52 -2.31,4.08 -4.22,7.13 -7.38,10.73 -1.4,1.6 -2.78,3.51 -4.27,4.86 -2.91,2.64 -3.73,1.09 -4.43,4.72 17.72,-1.25 65.77,1.53 85.95,1.45 5.56,-0.02 11.28,0.34 17.44,0.55l50.32 2.14c5.07,0.19 12.82,1.18 16.99,1.09 6.93,-0.13 8.21,-13.51 11.73,-24.46l8.54 -27.64c1.48,-4.67 2.68,-9.48 4.1,-14.36 0.6,-2.09 3.78,-10.15 3.61,-12.13 -0.15,-1.91 -0.7,-2.48 -2.1,-3.35 -2.37,-1.47 -41.59,-4.58 -44.17,-4.74 -16.78,-1 -32.1,-2.86 -48.36,-3.49l-73.87 -3.72c-8.56,-0.48 -17.29,0.24 -24.86,-0.97 0.97,3.11 3.2,5.1 5.34,7.32 6.01,6.24 11.39,16.9 12.07,26.48z"/>
   <path class="fil0" d="M4787.92 6883.43c3.05,3.93 8.22,5.32 12.1,8.5 6.42,5.27 15.6,16.89 18.74,25.07 12.85,33.43 -5.62,49.27 -6.36,53.12 8.4,-0.6 13.6,-1.79 21.54,-2.33 5,-0.35 5.95,-1.26 10.67,-1.65 3.84,-0.32 7.86,-0.38 11.68,-0.77l43.82 -4.8c8.29,-0.57 13.22,-1.78 21.51,-2.36l67.98 -5.64c-1.24,-3.6 -4.63,-2.95 -9.97,-8.27l-8.57 -9.86c-13.79,-19.95 -14.29,-46 -1.19,-63.66 2.23,-3.01 4.83,-5.9 6.62,-9.04 -8.02,0.57 -16.04,1.14 -24.06,1.7l-82.77 9.15c-3.93,0.61 -8.43,0.42 -12.41,0.92l-69.33 9.92z"/>
   <path class="fil0" d="M4517.43 6937.62c0.29,3.96 3.56,10.03 5.11,12.96 4.66,8.73 12.6,28.51 17.66,38 15.32,28.73 -0.26,24.14 46.31,16.01 11.23,-1.95 21.75,-3.68 32.14,-5.59l32.82 -5.78c16.92,-2.15 54.4,-8.88 66.82,-9.76 -1.84,-5.37 -36.52,-21.7 -27.45,-64.34 3.17,-14.86 9.64,-16.45 10.56,-21.22 -21.61,1.53 -146.11,28.54 -174.76,35.25 -3.03,0.71 -9.4,1.72 -9.21,4.47z"/>
   <path class="fil0" d="M5070.9 6946.81c30.14,-2.13 59.89,-3.49 89.75,-4.71 4.25,-0.17 5.16,0.52 9.96,0.18 16.25,-1.12 31.34,-0.6 44.97,-1.57 6.43,-0.45 22.67,0.09 33.28,-0.66 -1.21,-3.5 -4.74,-3.71 -10.77,-14.52 -12.55,-22.5 -4.64,-47.85 11.52,-65.84 3.44,-3.82 8.94,-6.7 11.15,-10.57 -7.2,0.51 -16.11,0.3 -22.63,0.06l-47.38 0.75c-5.13,0.36 -6.49,-0.42 -11.62,-0.07 -3.88,0.27 -8.64,0.92 -12.43,0.87l-71.57 2.61c-9.13,0.65 -15.09,0.23 -24.11,0.87 0.96,2.79 1.71,2.64 3.86,4.52 23.24,20.24 24.73,56.36 4.81,79.35 -2.69,3.11 -7.18,5.91 -8.79,8.73z"/>
   <path class="fil0" d="M4971.65 6133.85c10.85,-0.76 20.88,-9.44 25.77,-15.8 8.47,-11.03 10.89,-19.95 9.82,-35.1 -1.27,-17.88 -10.79,-43.28 -19.43,-58.41l-28.27 -49.99 0 0c-0.14,0.82 -19.98,51.03 -23.2,62.43 -1.05,3.71 -1.64,7.44 -2.71,11.67 -4.66,18.5 -7.98,46.47 1.92,62.18 6.25,9.92 21.05,24.09 36.1,23.02z"/>
   <path class="fil0" d="M4503.56 6353.01c1.51,21.33 5.64,38.87 22.21,49.81 8.34,5.51 21.8,7.5 31.38,0.61 4.83,-3.47 10.58,-15.59 9.98,-24.05 -1.21,-17.09 -14.74,-34.65 -27.2,-45.85 -8.53,-7.66 -17.68,-17.05 -26.75,-23.93 -6.4,-4.86 -4.39,-5.02 -9.89,-7.45 1.26,17.69 -0.98,33.16 0.27,50.86z"/>
   <path class="fil0" d="M5403 6314.36c0.77,10.91 4.07,22.7 13.15,27.93 15.27,8.8 34.32,-4.3 39.99,-14.52 14.21,-25.63 0.49,-68.64 -1.24,-93 -2.76,2.15 -5.97,5.51 -8.37,8.31l-22.68 27.06c-7.78,10.17 -21.66,32.74 -20.85,44.22z"/>
   <path class="fil0" d="M5028.36 6934.81c26.35,-1.87 42.86,-25.46 31.31,-47.77 -5.04,-9.73 -20.16,-18.08 -30.92,-17.32 -8.41,0.59 -13.24,0.43 -21.05,5.09 -10.67,6.36 -18.84,19.16 -16.78,31.33 3.24,19.11 20.36,29.88 37.44,28.67z"/>
   <path class="fil0" d="M5262.57 6898.21c0.6,8.53 -0.02,10.16 4.85,17.75 2.29,3.56 4.14,5.16 7.5,7.51 25.53,17.84 61.73,-3.53 59.83,-30.37 -2.46,-34.74 -53.96,-37.01 -68.62,-8.16 -1.57,3.08 -3.86,9.05 -3.56,13.27z"/>
   <path class="fil0" d="M4719.75 6933.3c0.94,13.27 3.77,17.97 14.16,26.76 7.28,6.16 18.17,8.49 28.3,7.77 18.44,-1.3 34.72,-18.19 29.93,-37.18 -5.5,-21.79 -38.72,-38.44 -62.66,-17.72 -4.24,3.66 -10.25,13.14 -9.73,20.37z"/>
   <path class="fil0" d="M5199.43 9656.06l-2.18 35.02c1.44,5.77 9.9,312.88 15.27,330.76 -9.7,3.9 -48.03,5.76 -59.21,4.36 -1.92,-1.25 -4.09,-2.25 -7.1,-4.58 -6.45,-4.98 -2.52,0.35 -5.65,-6.43 -3.68,-14.36 -16.61,-341.66 -34.42,-361.25 -7.99,-8.78 -15.45,-13.69 -24.32,-8.27 -19.6,11.95 -28.74,24.66 -39.34,41.98 -19.97,32.62 -36.25,69.81 -54.14,106.66 -20.98,43.19 -6,15.96 -30.85,50.86 -37.67,52.9 -72.52,96.73 -139.11,108.78 -77.08,13.95 -227.06,14.44 -300.17,-2.21 -15.75,-106.13 96.42,-81.58 149.48,-120.77 5.71,4.78 8.17,13.09 14.01,17.65 28.81,22.54 101.35,14.44 129.37,-0.8 9.21,-5.01 27.29,-24.64 32.46,-30.73 40.33,-47.53 64.26,-98.57 89.73,-156.89 41.31,-94.56 23.77,-72.4 83.48,-162.32 12.42,-18.72 96.24,-138.74 103.76,-143.14 45.13,17.13 76.96,62.2 91.11,121.82 23.72,99.98 -14.4,135.49 -12.18,179.5z"/>
   <path class="fil0" d="M4852.5 10049.51c-104.97,16.95 -196.98,7.36 -295.65,-19.23 -10.73,-2.9 -9.78,-0.85 -14.72,-10.9 -8.76,-17.83 -17.58,-36.59 -20.6,-56.98 125.45,7.44 132.34,20.98 276.24,2.79 66.09,-8.35 91.15,-25.08 125.29,-65.27 6.36,-7.48 11.38,-11.41 17.03,-19.76l30.73 -40.89c-6.3,12.19 -17.33,43.26 -22.57,58.34 -13.28,38.21 -22.27,100.03 -36.52,125.37 -11.1,19.73 -28.1,24.53 -59.23,26.53z"/>
   <path class="fil0" d="M3918.48 9648.73c103.98,-69.7 158.27,-95.1 308.98,-110.21 -104.13,-47.64 -268.73,50.5 -308.98,110.21zm11.53 -112.46l-22.08 20.47c47.02,-14.85 9.93,1.23 22.08,-20.47zm228.98 -26.75c-160.59,-19.01 -215.82,57.93 -216.87,59.02l-9.76 11.56c81.79,-35.83 122.57,-64.47 226.63,-70.58zm-228.98 26.75l90.2 -46.93c-30.66,4.16 -27.71,0.06 -56.68,15.16l-33.52 31.77zm-230.14 -82.26c-35.57,16.32 -37.05,24.95 -53.16,54.72 19.7,-20.33 -1.45,-1.77 23.38,-18.73 39.53,-27.02 22.98,0.22 29.78,-35.99zm0 0c90.16,-18.61 42.77,-80.49 366.69,-103.64 -59.18,-21.76 -152.9,-17.98 -219.54,6.59 -38.28,14.11 -133.15,55.81 -147.15,97.05zm12.6 -96.96c83.02,-39.68 101.67,-42.53 204.65,-53.92 -82.33,-32.19 -156.12,7.03 -204.65,53.92zm672.16 -56.25c-45.68,29.46 14.15,52.96 -71,38.64 -29.41,-118.65 116.29,-119.56 111.09,-14.44 -4.43,89.36 -85.57,98.72 -176.02,114.32 32.58,13.83 71.17,21.6 104.73,34.22 108.47,40.78 218.53,126.39 341.07,76.85 62.28,-25.17 138.39,-96.39 96.14,-178.65 -36.05,-70.17 -195.99,-66.48 -181.94,40.41 18.27,7.44 98.24,-2.64 60.21,60.5 -30.11,50 -78.83,20.62 -104.68,-8.19 -70.28,-125.93 254.88,-286.17 259.16,-12.09 27.33,-23.33 66.39,-65.85 103.29,-77.13 61.89,-18.91 80.35,22.53 70.18,70.54 -39.37,14.8 -44.08,22.52 -71.07,-6.92 16.74,-45.35 3.92,-6.06 44.83,-32.67 -5.58,-5.01 17.67,-23.68 -36.43,-8.3 -16.68,4.74 -23.56,17.65 -33.14,29.09 -18.44,22 -30.32,38.81 -46.37,60.83 -29.39,40.31 -68.07,75.16 -115.01,102.38 -114.38,66.33 -247.73,45.02 -366.32,14.83 66.1,240.97 -201.98,214.23 -137.42,62.36 106.54,-42.86 43.95,46.03 47.4,65.12l57.18 -3.85c57.83,-219.13 -407.76,-276.9 -546.78,305.72 -12.95,-53.62 -19.14,-139.49 -55.42,-169.61 -50.69,-42.08 -95.91,22.95 -156.94,33.21 -22.17,-29.63 -9.68,-15.53 -12.92,-58.22 -11.43,-3.44 -43.04,9.58 -56.56,-40.94 -8.09,-30.27 -17.57,5.01 4.14,-34.01l-37.88 -13.34c-1.69,-0.65 -4.98,-1.85 -7.31,-3.12 49.1,-149.5 10.14,-78.41 17.09,-129.27 6.33,-46.39 7.33,26.48 3.31,-15.33 -2.63,-27.41 -3.99,-0.78 -8.69,-33.47 -4.59,-31.9 6.67,-50.11 -2.87,-84.76 -29.67,-107.78 -234.51,-28.78 -165.41,61.95l18.77 -54.62c58.26,-1.28 69.6,26.71 62.71,79.6 -179.61,103.26 -165.91,-239.16 81.1,-143.24 29.7,-97.27 66,-149.99 161.35,-189.58 86.32,-35.84 217.16,-46.86 313.11,-31.93 97.99,15.25 167.45,66.31 236.29,107.66 190.77,114.58 217.26,16.33 197.03,-14.55z"/>
   <path class="fil0" d="M6497.43 9468.39c-112.76,-54.36 -170.09,-71.85 -321.43,-65.58 96.38,-61.84 273.17,12.13 321.43,65.58zm-27.26 -109.71l24.74 17.15c-48.64,-8.08 -9.65,2.62 -24.74,-17.15zm-230.47 5.77c156.32,-41.45 221.83,26.95 223.03,27.88l11.29 10.07c-86.02,-23.95 -130.43,-46.56 -234.32,-37.95zm230.47 -5.77l-95.91 -33.76c30.94,-0.2 27.44,-3.84 58.25,7.03l37.66 26.73zm216.25 -113.87c37.52,11.15 40.2,19.48 60.34,46.68 -22.37,-17.35 1.19,-1.95 -25.78,-15.25 -42.94,-21.18 -22.72,3.46 -34.56,-31.43zm0 0c-91.88,-5.73 -53.68,-73.66 -377.63,-50.94 55.52,-29.88 148.84,-39.35 218.28,-24.41 39.89,8.58 139.69,36.49 159.35,75.35zm-26.12 -94.21c-87.79,-27.6 -106.66,-27.79 -210.21,-24.55 76.97,-43.48 155.55,-15.05 210.21,24.55zm-673.39 39.01c49.37,22.73 -6.55,54.42 75.73,28.25 12.41,-121.62 -131.97,-101.98 -112.01,1.36 16.98,87.84 98.63,85.67 190.37,88.38 -30.31,18.27 -67.42,31.41 -98.86,48.62 -101.64,55.66 -198.54,155.92 -326.85,124.15 -65.2,-16.15 -150.59,-75.93 -120.34,-163.32 25.8,-74.55 184.67,-93.44 185.81,14.37 -17.04,9.94 -97.63,11.23 -51.08,68.38 36.85,45.25 80.95,9.3 102.48,-22.86 51.84,-134.58 -292.66,-247.4 -258.28,24.55 -30.35,-19.26 -75,-55.85 -113.12,-61.82 -63.94,-10 -76.37,33.64 -59.55,79.73 41.07,9.1 46.82,16.08 69.39,-16.86 -22.96,-42.54 -4.74,-5.45 -48.98,-26.03 4.81,-5.75 -20.84,-20.95 34.89,-13.36 17.19,2.35 25.82,14.17 36.91,24.14 21.35,19.18 35.49,34.15 54.48,53.69 34.78,35.76 77.98,64.82 128.29,85.15 122.58,49.55 251.6,9.67 364.75,-36.93 -31.49,247.88 230.15,183.64 144.84,42.37 -111.52,-27.41 -37.03,51.78 -37.76,71.16l-57.15 4.24c-88.12,-208.79 364.68,-331.58 584.4,225.63 5.27,-54.91 -0.7,-140.79 30.97,-175.72 44.25,-48.81 98.19,9.2 160.06,10.76 17.77,-32.45 7.39,-16.74 4.59,-59.46 10.82,-5.01 43.96,3.43 50.22,-48.5 3.75,-31.11 18.1,2.49 -8.89,-33.08l35.62 -18.54c1.59,-0.89 4.68,-2.54 6.8,-4.13 -69.67,-141.09 -21.09,-76.2 -35.13,-125.57 -12.81,-45.04 -3.53,27.25 -5.44,-14.71 -1.25,-27.5 3.84,-1.33 3.89,-34.36 0.05,-32.23 -13.67,-48.67 -9.11,-84.32 14.2,-110.88 228.13,-61.53 172.5,38.03l-26.28 -51.43c-57.87,6.94 -65.15,36.24 -50.88,87.64 192.38,76.92 130.57,-260.15 -100.46,-130.39 -43.11,-92.11 -86.48,-139.19 -186.46,-164.95 -90.5,-23.32 -221.59,-15.8 -314.48,12.5 -94.87,28.91 -156.44,89.25 -218.76,139.88 -172.73,140.32 -212.8,46.78 -197.12,13.36z"/>
   <path class="fil0" d="M5276.07 9650.64l7.1 34.36c-0.61,5.91 34.27,311.15 31.48,329.61 10.15,2.49 48.36,-1.07 59.23,-4.03 1.73,-1.51 3.73,-2.8 6.39,-5.53 5.68,-5.84 2.54,-0.01 4.68,-7.16 1.62,-14.73 -31.69,-340.6 -16.82,-362.5 6.67,-9.82 13.37,-15.73 22.92,-11.62 21.08,9.08 31.92,20.37 44.86,36.03 24.36,29.47 45.72,64 68.63,97.96 26.85,39.81 8.18,14.96 37.7,46.01 44.75,47.06 85.43,85.54 153.05,88.09 78.28,2.96 226.83,-17.69 296.86,-44.48 0.65,-107.28 -106.95,-67.17 -165,-98.51 -4.97,5.55 -6.24,14.12 -11.38,19.46 -25.35,26.37 -98.31,28.58 -128.19,17.43 -9.83,-3.66 -30.49,-20.54 -36.47,-25.85 -46.62,-41.37 -77.51,-88.53 -110.94,-142.68 -54.22,-87.8 -33.73,-68.32 -105.51,-148.94 -14.95,-16.78 -114.84,-123.79 -122.9,-127.1 -42.27,23.33 -67.43,72.43 -73.03,133.45 -9.4,102.33 33.34,132.11 37.34,176z"/>
   <path class="fil0" d="M5674.98 9991.28c106.3,1.99 196.05,-20.47 289.99,-60.7 10.21,-4.37 9.56,-2.21 13.03,-12.86 6.16,-18.88 12.25,-38.71 12.37,-59.31 -123.15,25.04 -128.07,39.41 -273.1,41.68 -66.6,1.04 -93.76,-11.99 -133.23,-46.97 -7.34,-6.51 -12.87,-9.69 -19.64,-17.16l-36.19 -36.16c7.96,11.18 23.26,40.4 30.57,54.58 18.53,35.96 36.14,95.9 53.82,118.98 13.77,17.97 31.28,20.33 62.38,17.92z"/>
   <path class="fil0" d="M3596.22 10612.25c13.12,158.18 -31.34,296.19 -133.36,414.28 -102.05,117.85 -232.78,183.02 -392.22,195.27l-355.1 28.02 -80.53 -1137.52 352.43 -24.96c157.6,-11.15 295.19,34.3 412.79,136.12 117.61,102.06 182.94,231.57 195.99,388.79zm-193.31 15.13c-8.37,-104.76 -51.16,-190.52 -128.38,-257.52 -77.2,-66.77 -168.34,-96.55 -273.4,-89.11l-159.02 11.26 52.94 747.85 160.46 -11.36c105,-8.4 191.24,-51.23 258.74,-128.23 67.48,-77.25 97.05,-168.13 88.66,-272.89zm593.54 -25.94c-52.53,3.72 -96.13,25.28 -130.77,64.69 -34.65,39.41 -50.13,85.14 -46.41,137.67l25.61 361.74 -193.4 13.7 -25.62 -361.75c-7.55,-106.73 23.31,-199.63 92.57,-278.92 69.27,-79.06 157.39,-122.49 264.36,-130.07l13.66 192.94zm916.48 488.49l-205.59 14.55 -48.5 -108.88c-70.05,95.19 -164.29,146.98 -282.96,155.39 -106.97,7.57 -200.11,-23.28 -279.41,-92.53 -79.29,-69.26 -122.69,-156.9 -130.2,-262.91 -5.75,-81.18 11.99,-156.11 53.2,-224.78 41.21,-68.67 99.04,-119.56 173.49,-152.67 43.75,-19.41 87.1,-30.65 130.09,-33.69 81.17,-5.75 156.12,12.23 224.82,53.92 68.71,41.68 119.61,99.76 152.72,174.2l212.34 477.4zm-373.64 -335.67c-4.75,-67.1 -35.67,-117.46 -92.76,-150.85 -33.08,-19.98 -70.15,-28.39 -111.22,-25.48 -66.87,4.73 -116.55,35.12 -149.04,91.42 -20.54,35.29 -29.42,72.39 -26.63,111.79 4.68,66.14 35.57,116.03 92.64,149.42 35.07,20.79 71.7,29.72 109.91,27.02 52.52,-3.72 96.11,-25.28 130.74,-64.93 34.65,-39.41 50.1,-85.62 46.36,-138.39zm1114.21 474.73c9.74,137.54 -39.1,247.54 -146.53,330.02 -61.91,47.57 -131.54,74.1 -208.9,79.58 -135.62,9.6 -245.67,-39.72 -330.12,-147.97 -48.6,-62.79 -75.58,-131.91 -80.92,-207.36 -3.52,-49.67 2.66,-98.1 18.51,-145.3l184.16 58.96c-7.94,23.59 -11.01,47.81 -9.25,72.64 3.72,52.54 25.49,95.86 65.35,130 39.85,34.13 86.04,49.34 138.58,45.62 51.57,-3.65 94.67,-25.42 129.25,-65.54 34.6,-40.12 50.09,-85.86 46.42,-137.67 -5.97,-84.29 -49.78,-140.47 -131.21,-168.53 -23.47,7.42 -46.9,11.96 -70.78,13.65 -107.69,7.62 -201.05,-22.97 -280.06,-91.76 -79.03,-68.8 -122.48,-157.15 -130.12,-265.07 -7.58,-106.98 23.03,-200.1 92.05,-279.37 69.02,-79.28 156.89,-122.7 263.39,-130.24l92.98 -272.95 157.65 54.1 -84.91 244.55c69.64,27.71 126.7,71.19 170.97,130.44 44.27,59.26 69.13,125.65 74.34,199.2 7.71,108.88 -25.44,203.37 -99.43,283.48 84.61,69.85 130.81,159.68 138.58,269.52zm-232.55 -539.31c-3.66,-51.58 -25.43,-94.68 -65.32,-129.28 -39.88,-34.62 -85.61,-50.09 -137.18,-46.44 -52.54,3.72 -96.13,25.28 -130.77,64.69 -34.65,39.41 -50.11,85.38 -46.39,137.91 3.72,52.53 25.52,96.1 65.41,130.71 39.88,34.62 86.09,50.06 138.63,46.34 52.52,-3.71 95.86,-25.5 129.99,-65.36 34.14,-39.85 49.34,-86.04 45.63,-138.57zm783.18 -438.45l-301.22 768.6 -410.81 -718.19 229.23 -16.23 151.97 295.93 108.77 -314.39 222.06 -15.72zm699.64 333.7c1.33,18.87 1.25,38.08 -0.26,57.38l-560.17 39.66c15.26,39.23 40.47,69.85 75.62,91.83 35.15,21.99 73.74,31.5 115.77,28.52 58.25,-4.12 104.9,-29.99 139.92,-77.58l128.54 147.84c-68.61,74.93 -153.54,115.98 -254.77,123.15 -107.94,7.64 -201.53,-22.93 -280.77,-91.46 -79.26,-68.79 -122.7,-156.9 -130.32,-264.59 -7.56,-106.73 23.3,-199.63 92.56,-278.92 69.27,-79.06 157.39,-122.5 264.36,-130.07 106.97,-7.57 200.07,22.79 279.32,91.33 79.24,68.55 122.64,156.18 130.2,262.91zm-222.54 -72.31c-40.07,-64.35 -97.83,-93.86 -173.28,-88.52 -76.41,5.41 -129.92,42.8 -160.53,112.16l333.81 -23.64zm773.46 176.57c3.25,45.85 -9.09,88.48 -37,128.13 -55.84,79.06 -140.22,121.04 -253.12,126.15 -44.96,2.22 -94.62,-4.34 -148.98,-19.7 -54.36,-15.34 -99.27,-36.16 -134.73,-62.45l97.62 -146.57c55.02,45.05 111.66,65.52 169.93,61.4l4.29 -0.31c23.88,-1.69 45.06,-7.51 63.56,-17.45 24.02,-13.23 35.28,-30.34 33.8,-51.35l-0.41 -5.73c-4.42,-21.76 -20.34,-36.48 -47.76,-44.13 -10.64,-1.17 -33.39,-3.88 -68.25,-8.13 -43.58,-5.55 -80.62,-13.48 -111.11,-23.81 -89.55,-31.1 -137.64,-93.44 -144.27,-187.05 -6.35,-89.77 33.29,-160.25 118.94,-211.43 37.74,-22.83 79.49,-36.34 125.27,-40.55 47.69,-4.33 97.94,0.27 150.73,13.81 60.63,15.86 104.51,39.15 131.65,69.87l-120.72 125.18c-35.86,-32.03 -73.38,-46.65 -112.54,-43.88 -61.13,4.33 -90.27,26.55 -87.41,66.91l0.2 2.86c1.35,19.1 27.34,33.59 77.94,43.44 3.9,0.68 35.85,4.66 95.88,11.93 121.98,14.64 187.36,83.92 196.19,208.57l0.3 4.29zm358.68 195.38c-106.97,7.58 -200.33,-23.01 -280.05,-91.51 -79.74,-68.76 -123.4,-156.62 -130.95,-263.35l-53.19 -751.18 193.41 -13.69 27.59 389.67 190.55 -13.49 11.67 164.76 -190.56 13.49 13.9 196.28c3.72,52.52 25.51,95.86 65.36,129.99 39.85,34.14 86.05,49.35 138.58,45.63l13.69 193.4zm102.59 -920.12c2.3,32.48 -6.74,60.71 -27.11,84.71 -20.38,24.01 -46.81,37.15 -79.28,39.45 -32.47,2.3 -60.72,-6.97 -84.76,-27.84 -24.04,-20.85 -37.21,-47.51 -39.51,-79.99 -2.29,-32.47 7,-60.49 27.89,-84.04 20.9,-23.56 47.58,-36.49 80.05,-38.79 31.52,-2.23 59.29,7.08 83.32,27.94 24.05,20.86 37.17,47.04 39.4,78.56zm47.12 909.52l-193.41 13.7 -52.64 -743.56 193.4 -13.69 52.65 743.55z"/>
   <path class="fil0" d="M4247.41 7522.84c22.59,-53.01 115.95,-151.17 157,-204.89 18.91,-24.76 32.36,-48.32 52.53,-69.96 42.91,15.9 71.65,46.59 136.22,65.65 61.77,18.24 112.6,21.55 180.25,15.32 144.33,-13.29 203.79,-73.37 292.14,-134.88 102.22,53.88 168.77,98.46 308.31,92.55 65.6,-2.77 122.1,-15.38 175.69,-41.14 73.99,-35.56 94.13,-67.6 124.58,-83.79l246.09 232.04c-15.19,57.98 -55.12,85.14 -94.72,262.13 -22.24,99.41 -19.82,225.85 4.24,329.3 56.27,242.01 307.61,523.24 104.79,854.48 -132.63,216.62 -206.96,187.86 -482.54,258.47 -176.5,45.23 -176.58,87.33 -242.43,130.03 -88.98,-52.21 -126.52,-80.72 -257.95,-94.35 -84.98,-8.81 -233.77,-13.78 -307.5,-35.68 -149.77,-44.48 -291,-213.19 -324.03,-408.54 -58.48,-345.83 307.07,-625.68 -72.67,-1166.74zm172.52 -10.12l39.83 -2.82c10.93,27.36 27.35,46.21 48.96,56.57 28.26,13.96 72.97,18.62 133.87,14.31 38.96,-2.76 162.22,-15.26 369.74,-38.07 125.49,-13.82 203.52,-21.95 234.69,-24.16 93.51,-6.62 174.31,3.9 242.39,31.28 68.07,27.38 124.96,72.95 170.95,136.7 45.68,63.48 79.6,153.32 101.42,268.96 15.3,81 36.14,260.52 62.49,538.57 -105.05,77.05 -185.37,143.07 -240.94,198.05 -182.46,-36.97 -342.37,-50.59 -479.18,-40.91 -92.93,6.58 -178.43,23.95 -256.23,51.79 -78.08,27.86 -159.84,69.33 -245.26,124.69l-27.38 -30.26c111.79,-67.96 209.35,-136.35 292.65,-205.2 83.3,-68.84 137.06,-128.92 161.54,-180.54 24.51,-51.33 34.21,-114.97 28.82,-191.16 -1.97,-27.71 -5.44,-68.65 -10.42,-122.54 -3.83,-37.72 -7.18,-76.93 -10.06,-117.63 -5.07,-71.58 -4.77,-124.68 0.63,-159 5.67,-34.63 19.65,-74.77 42.23,-120.46l-21.64 1.53c-65.61,44.38 -108.68,83.4 -128.9,117.32 -20.49,34.23 -28.82,76.3 -25.27,126.51l28.16 299.38c5.68,80.24 -13.21,153.51 -56.91,220.42 -43.42,66.89 -152.4,166.26 -326.64,298.68l-27.5 -31.99c87.84,-70.32 145.02,-127.16 171.54,-170.52 26.54,-43.06 38.21,-87.11 35.04,-131.84 -2.76,-38.97 -17.5,-70.99 -44.53,-96.35 -26.76,-25.65 -55.42,-37.26 -85.44,-35.13 -15.3,1.08 -29.42,6.43 -41.82,15.72 -12.37,9.58 -28.73,28.43 -49.05,56.85l-28.75 -24.94c15.89,-50.15 39.33,-87.78 69.77,-112.56 30.71,-25.09 68.59,-39.08 113.62,-42.27 12.98,-0.92 27.51,-0.5 43.59,1.26 15.77,1.5 33.11,4.62 51.7,9.11 -3.49,-32.82 -6.09,-61.35 -7.8,-85.6 -6.28,-88.6 6.51,-162.02 38.07,-220.24 31.55,-58.22 95.84,-121.07 192.28,-188.81 -92.54,16.13 -173.01,26.75 -240.83,31.55 -71.87,5.09 -134.06,-0.66 -186.86,-17.22 -39.81,-13.14 -69.87,-36.24 -90.19,-69.32 -20.64,-33.35 -34.67,-79.93 -42.38,-139.71zm702.3 185.23c-21.32,42.98 -34.95,79.92 -41.17,110.81 -8.29,42.65 -11.31,82.02 -8.76,118.09l30.55 333.16c3.03,42.71 -4.55,87.33 -22.47,133.27 -13.79,34.63 -41.52,77.2 -82.58,128.25 80.72,-19.34 142.9,-30.12 186.23,-32.61l47.97 -2.53 -56.09 -792.25 -53.68 3.81zm120.03 318.68c36.08,22.11 67.28,36.72 93.62,44.14 26.32,7.13 54.35,9.78 84.08,7.68 30.02,-2.13 57.4,-8.71 82.7,-20.07 25.32,-11.08 54.44,-29.96 87.67,-56.39 -19.69,-126.52 -58.4,-210.22 -116.4,-251.07 -57.74,-41.16 -142.74,-57.77 -254.72,-49.84l23.05 325.55zm19.74 278.81c36.54,-24.64 68.09,-41.95 94.65,-51.95 26.26,-9.99 55.42,-16.11 87.46,-18.38 30.88,-2.18 59.71,-0.46 86.8,5.17 26.8,5.64 59.55,17.54 97.96,35.7l-29.75 -227.62c-34.24,24.47 -64.35,41.68 -90.03,51.62 -25.41,9.92 -53.7,15.99 -84.87,18.2 -29.72,2.1 -59.51,-0.72 -89.62,-8.16 -29.83,-7.47 -59.4,-19.58 -89.03,-36.63l16.43 232.05zm13.48 190.48c68.79,0.64 124.99,3.63 168.56,8.66 43.58,5.04 112.01,17.02 205.32,36.23 -4.88,-85.23 -7.4,-129.14 -7.61,-132.02 -0.47,-6.64 -2.97,-33.73 -7.47,-80.98 -37.55,-22.29 -70.5,-37.07 -98.3,-44.67 -28.1,-7.59 -57.89,-10.41 -89.92,-8.14 -32.61,2.31 -62.28,9.34 -89.61,20.85 -27.02,11.49 -57.28,30.74 -91.02,58.07l10.05 142z"/>
  </g>
 </g>
</svg>
