<?xml version="1.0" encoding="UTF-8"?>
<!DOCTYPE svg PUBLIC "-//W3C//DTD SVG 1.1//EN" "http://www.w3.org/Graphics/SVG/1.1/DTD/svg11.dtd">
<!-- Creator: CorelDRAW 2017 -->
<svg xmlns="http://www.w3.org/2000/svg" xml:space="preserve" width="50.7998mm" height="33.8666mm" version="1.1" style="shape-rendering:geometricPrecision; text-rendering:geometricPrecision; image-rendering:optimizeQuality; fill-rule:evenodd; clip-rule:evenodd"
viewBox="0 0 5079.98 3386.66"
 xmlns:xlink="http://www.w3.org/1999/xlink">
 <defs>
  <style type="text/css">
   <![CDATA[
    .fil5 {fill:#201E1E}
    .fil6 {fill:#075837}
    .fil4 {fill:#075837;fill-rule:nonzero}
    .fil0 {fill:#307ABD;fill-rule:nonzero}
    .fil3 {fill:#EE423B;fill-rule:nonzero}
    .fil2 {fill:#EF4B43;fill-rule:nonzero}
    .fil1 {fill:#FFDD2F;fill-rule:nonzero}
   ]]>
  </style>
 </defs>
<symbol id="Fm1-8-0" viewBox="11475.58 250.67 3386.59 3386.66">
 <path class="fil0" d="M14862.17 1949.14c-2.77,932.84 -759.79,1688.19 -1693.28,1688.19 -935.22,0 -1693.31,-758.12 -1693.31,-1693.35 0,-935.19 758.09,-1693.31 1693.31,-1693.31 933.49,0 1690.51,755.35 1693.28,1688.16l0 10.31z"/>
</symbol>
<symbol id="Fm0-38-0" viewBox="93936 -60961.29 3386.69 3386.66">
 <path class="fil0" d="M97322.69 -59267.99c0,935.23 -758.1,1693.36 -1693.33,1693.36 -935.23,0 -1693.36,-758.13 -1693.36,-1693.36 0,-934.35 756.73,-1691.89 1690.78,-1693.3l5.16 0c934.06,1.4 1690.75,758.95 1690.75,1693.3z"/>
</symbol>
<symbol id="Fm0-6-0" viewBox="1212.14 -3113.87 3665.34 3386.67">
 <path class="fil1" d="M4877.48 -3113.87c-35.18,67.35 -70.36,134.7 -105.52,202.05 -1.67,3.2 -3.28,6.26 -7.53,6.57 -21.61,1.55 -43.21,3.17 -64.89,4.77 -0.56,-3.87 1.84,-6.42 3.22,-9.2 14.04,-28.23 28.21,-56.39 42.29,-84.59 1.3,-2.6 3.22,-4.99 3.2,-8.12 0.2,-0.09 0.43,-0.14 0.59,-0.27 0.09,-0.08 0.07,-0.29 0.1,-0.44 -0.21,0.25 -0.42,0.51 -0.64,0.76 -15.93,1.52 -30.78,7.44 -45.99,11.71 -136.97,38.47 -273.85,77.25 -410.74,116 -110.87,31.38 -221.7,62.89 -332.58,94.25 -122.75,34.72 -245.54,69.32 -368.3,103.99 -9.05,2.56 -18.07,5.22 -27.1,7.87 -4.57,1.34 -7.41,1.33 -8.5,-4.89 -3.63,-20.52 -7.76,-40.97 -12.28,-61.32 -1.39,-6.26 -0.02,-8.74 6.19,-10.42 50.2,-13.64 100.34,-27.51 150.47,-41.43 79.58,-22.1 159.13,-44.3 238.7,-66.44 83.53,-23.24 167.08,-46.44 250.62,-69.65 87.22,-24.23 174.44,-48.47 261.67,-72.7 88.92,-24.7 177.83,-49.43 266.76,-74.12 51.54,-14.31 103.1,-28.55 154.64,-42.86 0.77,-0.21 1.39,-1 2.08,-1.52l3.54 0z"/>
 <path class="fil1" d="M1212.14 -3103.25c104.46,30.39 208.91,60.81 313.38,91.17 113.5,32.99 227.03,65.87 340.52,98.89 101.07,29.41 202.09,59 303.15,88.45 84.4,24.6 168.8,49.19 253.27,73.55 6.36,1.84 8.19,3.76 5.1,10.16 -4.21,8.73 -7.73,17.83 -10.99,26.97 -2.31,6.46 -5.74,8.5 -12.6,6.61 -56.7,-15.53 -113.46,-30.83 -170.21,-46.18 -72.07,-19.51 -144.13,-39 -216.2,-58.5 -91.36,-24.72 -182.72,-49.44 -274.09,-74.16 -146.69,-39.69 -293.37,-79.39 -440.05,-119.07 -0.83,-0.22 -1.72,-0.2 -4.15,-0.47 4.56,12.34 8.78,24 13.16,35.6 12.04,31.95 24,63.92 36.32,95.76 2.54,6.57 -0.25,7.35 -5.38,6.49 -16.79,-2.81 -33.52,-6.04 -50.36,-8.55 -5.42,-0.81 -5.35,-4.8 -6.49,-8.14 -21.77,-63.78 -43.41,-127.62 -65.26,-191.38 -2.73,-7.98 -4.6,-16.35 -9.11,-23.67l0 -3.54 -0.01 0.01z"/>
 <path class="fil1" d="M3026.85 -1677.3c0.37,0.02 0.73,0.04 1.09,0.06 1.93,-22.26 3.81,-44.52 5.81,-66.78 5.09,-56.62 10.29,-113.22 15.33,-169.85 4.41,-49.58 8.58,-99.19 13.01,-148.77 4.99,-56.04 10.14,-112.06 15.24,-168.07 0.36,-3.92 -0.03,-7.33 -2.56,-10.76 -15.55,-21.12 -30.99,-42.32 -46.16,-63.71 -3.37,-4.75 -4.97,-5.01 -8.53,-0.12 -16.09,22.18 -32.47,44.16 -48.96,66.05 -2.78,3.69 -2.99,7.18 -2.52,11.49 5.18,47.73 10.16,95.46 15.19,143.2 4.38,41.59 8.74,83.18 13.15,124.76 5.03,47.44 10.1,94.88 15.13,142.32 4.95,46.72 9.86,93.44 14.78,140.16l0 0.02zm-159.52 -847.59c-4.75,-21.88 -12.29,-42.96 -18.74,-64.34 -39.87,-132.13 -80,-264.18 -120.03,-396.27 -0.67,-2.2 -1.17,-4.45 -2.05,-7.81 4.09,1.79 5.27,4.82 6.97,7.16 91.81,126.02 183.56,252.08 275.32,378.14 0.86,1.19 1.86,2.31 2.57,3.6 3.65,6.65 6.34,7.28 11.27,0.26 78.27,-111.42 156.85,-222.61 235.24,-333.95 22.55,-32.02 44.68,-64.34 67,-96.52 0.47,0.39 0.94,0.79 1.41,1.18 -14.15,44.6 -28.19,89.24 -42.46,133.81 -38.52,120.25 -77.13,240.48 -115.69,360.72 -0.69,2.15 -1.14,4.37 -2.13,8.24 38.7,-14.95 76.12,-29.4 115.24,-44.5 -4.68,19.03 -8.99,36.59 -13.32,54.14 -2.75,11.15 -5.11,22.41 -8.43,33.38 -2.21,7.32 -0.64,8.76 6.59,6.93 31.67,-8.02 63.42,-15.75 95.14,-23.54 46.56,-11.43 93.12,-22.84 140.33,-34.41 -2.22,4.16 -5.79,5.73 -8.7,7.91 -90.06,67.62 -180.11,135.26 -270.4,202.59 -6.7,5 -6.13,7.28 -0.69,12.74 55.79,55.99 111.42,112.14 165.98,169.34 3.39,3.55 6.51,7.34 8.87,12.78 -18.69,-3.18 -37.43,-6.03 -56.04,-9.58 -52.63,-10.05 -105.21,-20.3 -157.76,-30.71 -6.05,-1.2 -7.34,0.76 -8.21,6.39 -4.51,29.36 -9.53,58.64 -14.61,89.31 -23.67,-17.2 -46.64,-33.89 -69.62,-50.58 -0.75,-0.43 -1.5,-0.86 -2.25,-1.29 -0.29,-0.41 -0.58,-0.83 -0.87,-1.25 -0.11,0.26 -0.23,0.51 -0.34,0.76 0.46,0.12 0.92,0.23 1.37,0.35 -0.78,1.09 -0.13,1.91 0.52,2.74 25.68,41.28 51.35,82.57 77.04,123.85 3.73,5.99 7.49,11.95 11.6,18.5 3.55,-3.47 3.41,-7.77 4.4,-11.42 10.45,-38.34 20.89,-76.68 30.91,-115.13 1.8,-6.89 4.1,-8.82 11.44,-7.14 104.46,23.86 208.99,47.38 313.5,71 2.28,0.52 4.5,1.41 6.94,0.45 0.06,-3.5 -2.94,-4.93 -4.87,-6.93 -83.38,-86.36 -166.74,-172.74 -250.39,-258.83 -6.08,-6.27 -4.78,-8.33 1.72,-12.48 117.44,-75.13 234.73,-150.47 352.08,-225.74 2.17,-1.39 4.09,-3.45 7.81,-3.34 -3.55,17.09 -7.12,33.99 -10.56,50.93 -2.4,11.85 -2.32,11.85 8.86,8.21 85.1,-27.69 170.19,-55.36 255.29,-83.05 221.98,-72.22 443.96,-144.44 665.94,-216.64 2.75,-0.89 5.56,-1.58 9.38,-0.7 -272.63,199.67 -545.25,399.34 -819.43,600.15 126.98,2.45 251.96,4.87 376.95,7.28l0.4 1.75c-192.96,81.5 -385.92,163 -580.58,245.22 34.6,22.15 67.99,43.53 101.34,64.89 0.08,2.94 -2.45,3.17 -3.99,4.06 -205.94,117.67 -411.93,235.26 -617.8,353.08 -5.85,3.35 -9.68,1.46 -14.43,-1.2 -99.73,-55.88 -199.51,-111.68 -299.24,-167.54 -105.91,-59.31 -211.79,-118.68 -317.69,-178.02 -1.03,-0.57 -2.02,-1.24 -3.1,-1.69 -6.82,-2.84 -5.07,-5.27 0.05,-8.33 23.77,-14.21 47.44,-28.61 71.15,-42.94 16.11,-9.74 32.23,-19.47 50.14,-30.28 -215.23,-79.34 -428.78,-158.06 -642.32,-236.78 0.12,-0.51 0.23,-1.02 0.35,-1.53 124.98,-4.48 249.97,-8.96 375.65,-13.46 -1.23,-3.71 -4.33,-4.99 -6.73,-6.77 -92.29,-68.59 -186.18,-134.96 -280.08,-201.31 -185.38,-130.99 -371.04,-261.61 -556.57,-392.4 -1.88,-1.33 -3.52,-2.99 -5.28,-4.49l-0.15 0.12c4.06,-1.18 7.53,1.04 11.07,2.18 323.19,104.42 646.35,208.93 969.53,313.38 4.4,1.42 10.26,5.5 13.09,2.86 3.67,-3.42 -0.7,-9.29 -1.77,-14.01 -2.61,-11.41 -5.69,-22.71 -8.63,-34.2 3.89,-0.86 5.64,1.51 7.67,2.82 111.79,71.88 223.51,143.86 335.39,215.61 6.21,3.98 6.02,6.18 1.29,11.37 -73.97,81.4 -147.73,163 -221.53,244.55 -0.77,0.85 -1.45,1.77 -3.5,4.29 17.92,-3.55 34.09,-6.72 50.25,-9.96 86.57,-17.38 173.16,-34.7 259.69,-52.32 6.71,-1.37 8.95,0.36 10.65,6.72 10.3,38.37 21.02,76.63 31.62,114.92 0.62,2.26 1.33,4.5 2.01,6.75 2.92,0.05 3.2,-2.41 4.13,-3.94 26.06,-42.79 52.05,-85.6 78.02,-128.43 0.76,-1.25 1.24,-2.66 1.85,-3.99 0.5,-0.68 1.11,-1.42 -0.02,-1.99 -0.21,-0.11 -0.8,0.56 -1.22,0.87 -21.93,8.49 -43.96,16.74 -65.73,25.64 -5.99,2.45 -8.3,2.02 -10.37,-4.53 -5.67,-17.95 -12.31,-35.59 -18.22,-53.47 -1.6,-4.82 -3.48,-6 -8.8,-5.16 -61.64,9.7 -123.34,19.03 -185.02,28.42 -3.18,0.49 -6.41,0.65 -11.78,1.18 6.66,-7.27 11.98,-13.27 17.51,-19.09 48.71,-51.32 97.38,-102.67 146.32,-153.77 5.37,-5.61 6.41,-8.23 -0.67,-13.61 -93.64,-71.13 -187.01,-142.61 -280.43,-214.02 -2.49,-1.9 -4.85,-3.98 -8.84,-7.27 11.18,0.69 19.67,3.83 28.29,5.98 70.52,17.55 140.98,35.33 211.46,53.04 10.8,2.71 10.84,2.65 8.05,-7.78 -6.68,-25.01 -13.36,-50.03 -19.99,-75.06 -0.5,-1.89 -2.02,-3.73 -0.2,-6.66 6.26,2.67 12.66,5.33 19,8.11 30.47,13.34 60.91,26.73 91.39,40.04 2.12,0.93 4.43,1.4 6.65,2.08 0.32,0.32 0.86,0.94 0.92,0.91 0.93,-0.67 0.55,-1.16 -0.3,-1.54l-0.04 0.01z"/>
 <path class="fil1" d="M4220.69 -2012.27c-77.43,147.42 -154.38,293.95 -231.34,440.48l1.25 2.04c39.19,-12.57 78.39,-25.14 119.09,-38.19 -4.85,13.28 -12.3,23.47 -18.47,34.22 -38.45,66.91 -77.25,133.62 -115.94,200.4 -55.52,95.83 -111.09,191.63 -166.55,287.5 -68.57,118.56 -137,237.22 -205.59,355.78 -61.8,106.83 -123.8,213.55 -185.6,320.38 -70.94,122.65 -141.69,245.39 -212.65,368.03 -56.94,98.41 -114.06,196.72 -171.09,295.08 -2.81,4.84 -5.88,9.57 -8.21,14.64 -3.38,7.29 -5.92,5.21 -9.02,-0.12 -21.31,-36.67 -42.68,-73.31 -64.06,-109.95 -29.7,-50.88 -59.43,-101.73 -89.13,-152.61 -40.39,-69.19 -80.73,-138.41 -121.14,-207.6 -33.27,-56.98 -66.62,-113.9 -99.9,-170.88 -40.55,-69.44 -81.03,-138.92 -121.6,-208.35 -37.44,-64.09 -74.98,-128.12 -112.42,-192.22 -40.41,-69.18 -80.71,-138.42 -121.12,-207.61 -37.43,-64.1 -74.97,-128.14 -112.41,-192.23 -40.41,-69.18 -80.73,-138.42 -121.13,-207.6 -33.27,-56.98 -66.62,-113.91 -99.92,-170.87 -7.59,-12.97 -15.15,-25.95 -22.63,-38.98 -0.84,-1.46 -2.01,-3.69 -1.47,-4.78 1.2,-2.43 3.52,-0.68 5.42,-0.31 36.85,7.21 73.7,14.42 111.96,21.9 -1.63,-3.61 -2.77,-6.41 -4.11,-9.1 -70.2,-140.56 -140.44,-281.1 -210.47,-421.74 -1.7,-3.41 -8.43,-7.88 0.12,-12.03 13.89,-6.74 17,-6.67 21.59,1.3 45.89,79.62 91.85,159.21 137.74,238.83 47.95,83.2 95.78,166.47 143.78,249.64 46.96,81.39 94.12,162.65 141.1,244.04 45.65,79.08 91.11,158.27 136.77,237.36 38.28,66.32 76.76,132.54 115.07,198.85 38.02,65.81 75.88,131.7 113.89,197.5 58.78,101.77 117.66,203.49 176.43,305.27 64.66,111.99 129.23,224.02 193.83,336.04 4.27,7.41 4.86,7.44 9.35,-0.25 64.54,-110.69 129.01,-221.42 193.6,-332.08 56.42,-96.67 113.01,-193.24 169.45,-289.91 66.24,-113.45 132.37,-226.96 198.57,-340.44 53.58,-91.85 107.2,-183.68 160.77,-275.53 66.2,-113.47 132.35,-226.97 198.55,-340.44 51.07,-87.51 102.21,-174.99 153.26,-262.51 30.12,-51.65 60.2,-103.33 90.09,-155.12 2.87,-4.98 6.11,-7.19 11.88,-7.04 7,0.19 13.9,-2.6 22.41,-0.78l0 -0.01z"/>
 <path class="fil1" d="M3619.23 -1258.87c-29.04,-2.66 -58.08,-5.27 -87.11,-7.99 -41.08,-3.84 -82.14,-7.76 -123.21,-11.65 -18.77,-1.77 -37.57,-3.32 -56.32,-5.37 -7.91,-0.87 -8.9,1.13 -5.91,8.34 32.43,78.35 64.6,156.81 96.82,235.25 1.41,3.44 2.61,6.97 4.76,12.75 -92.07,-56.89 -182.13,-112.54 -273.02,-168.7 -46.73,169.99 -93.2,339.01 -139.67,508.04 -0.58,-0.01 -1.16,-0.01 -1.74,-0.01 -7.24,-24.31 -14.52,-48.63 -21.74,-72.95 -41.31,-139.11 -82.61,-278.23 -123.92,-417.34 -3.1,-10.44 -3.11,-10.45 -12.78,-5.01 -86.26,48.57 -172.52,97.15 -258.81,145.67 -3.46,1.94 -6.63,4.72 -12.45,5.32 40.34,-86.34 80.26,-171.75 121.05,-259.05 -90.42,14.2 -178.96,28.1 -267.64,42.03 -0.12,-3.49 2.34,-3.85 3.9,-4.86 139.88,-90.37 279.82,-180.64 419.56,-271.2 6.78,-4.39 11.41,-4.12 18.14,-0.23 41.29,23.94 82.93,47.27 124.28,71.13 5.1,2.94 8.74,2.71 13.68,-0.01 44.13,-24.3 88.44,-48.28 132.57,-72.58 4.97,-2.74 8.63,-2.85 13.65,0.22 143.83,87.91 287.77,175.64 431.69,263.4 1.67,1.01 3.26,2.13 4.89,3.2 -0.23,0.54 -0.46,1.07 -0.69,1.6l0.02 0z"/>
 <path class="fil1" d="M3324.89 -3034.62c0.54,-0.78 1.07,-1.56 1.61,-2.34 1.14,1.25 0.48,2.39 -0.2,3.53 -0.46,-0.39 -0.93,-0.79 -1.4,-1.18l-0.01 -0.01z"/>
 <path class="fil1" d="M1408.65 -2805.95c-0.44,-0.26 -0.89,-0.53 -1.33,-0.79 1.08,-0.58 1.49,-0.29 1.18,0.92 0,0 0.15,-0.12 0.15,-0.12l0 -0.01z"/>
 <path class="fil1" d="M2867.33 -2524.89c0.84,0.38 1.22,0.87 0.3,1.54 -0.06,0.04 -0.6,-0.59 -0.92,-0.91 0.2,-0.21 0.41,-0.42 0.62,-0.63z"/>
 <path class="fil1" d="M3088.28 -2129.92l-1.37 -0.35c0.11,-0.25 0.22,-0.51 0.34,-0.76 0.29,0.41 0.58,0.83 0.87,1.24l0.16 -0.13z"/>
 <path class="fil1" d="M2948.1 -2128.34c0.42,-0.31 1.01,-0.97 1.22,-0.87 1.13,0.56 0.52,1.31 0.02,1.99 -0.45,-0.33 -0.87,-0.7 -1.24,-1.12z"/>
 <path class="fil1" d="M3088.12 -2129.79c0.74,0.43 1.5,0.86 2.24,1.29 -0.52,0.44 -1.03,0.88 -1.55,1.31 -0.65,-0.82 -1.31,-1.64 -0.53,-2.74 0,0 -0.16,0.13 -0.16,0.13l0 0.01z"/>
</symbol>
<symbol id="Fm2-18-0" viewBox="59855.93 250.68 3386.66 3386.66">
 <path class="fil0" d="M63242.59 1943.99c0,935.22 -758.12,1693.35 -1693.31,1693.35 -935.22,0 -1693.35,-758.12 -1693.35,-1693.35 0,-935.19 758.12,-1693.31 1693.35,-1693.31 935.19,0 1693.31,758.12 1693.31,1693.31z"/>
</symbol>
<symbol id="Fm1-63-0" viewBox="59814.27 250.66 3386.62 3386.68">
 <path class="fil0" d="M63200.89 1943.99c0,935.22 -758.12,1693.35 -1693.31,1693.35 -934.38,0 -1691.91,-756.72 -1693.31,-1690.77l0 -5.16c1.4,-934.02 758.94,-1690.74 1693.31,-1690.74 935.19,0 1693.31,758.12 1693.31,1693.31l0 0.01z"/>
</symbol>
<symbol id="Fm1-16-0" viewBox="-4066.6 -4035.54 5079.98 2337.84">
 <path class="fil1" d="M1013.38 -4035.54c-51.51,98.63 -103.03,197.25 -154.52,295.89 -2.45,4.69 -4.8,9.17 -11.03,9.62 -31.64,2.28 -63.27,4.64 -95.02,6.99 -0.81,-5.67 2.69,-9.39 4.72,-13.48 20.56,-41.34 41.3,-82.58 61.93,-123.87 1.9,-3.81 4.72,-7.31 4.69,-11.89 0.29,-0.13 0.63,-0.2 0.86,-0.4 0.14,-0.11 0.1,-0.43 0.14,-0.65 -0.31,0.37 -0.62,0.75 -0.93,1.12 -23.33,2.23 -45.07,10.89 -67.34,17.15 -200.58,56.34 -401.02,113.13 -601.49,169.87 -162.35,45.95 -324.67,92.09 -487.03,138.01 -179.76,50.84 -359.56,101.52 -539.34,152.29 -13.25,3.74 -26.47,7.64 -39.68,11.52 -6.69,1.96 -10.84,1.95 -12.45,-7.15 -5.31,-30.05 -11.36,-60 -17.98,-89.8 -2.04,-9.17 -0.03,-12.8 9.06,-15.27 73.51,-19.97 146.94,-40.28 220.34,-60.67 116.53,-32.36 233.03,-64.88 349.55,-97.3 122.33,-34.03 244.67,-68 367,-102 127.73,-35.49 255.45,-70.97 383.18,-106.46 130.22,-36.18 260.42,-72.39 390.65,-108.54 75.48,-20.95 150.98,-41.8 226.46,-62.76 1.13,-0.31 2.04,-1.46 3.05,-2.22l5.18 0z"/>
 <path class="fil1" d="M-1696.68 -1931.83c0.54,0.03 1.07,0.06 1.6,0.09 2.83,-32.59 5.57,-65.2 8.5,-97.79 7.45,-82.91 15.07,-165.81 22.45,-248.73 6.46,-72.61 12.57,-145.25 19.05,-217.86 7.31,-82.06 14.85,-164.09 22.32,-246.13 0.53,-5.74 -0.05,-10.73 -3.75,-15.76 -22.77,-30.92 -45.38,-61.97 -67.61,-93.29 -4.93,-6.95 -7.28,-7.34 -12.48,-0.17 -23.56,32.49 -47.55,64.67 -71.69,96.73 -4.07,5.4 -4.38,10.51 -3.7,16.82 7.58,69.89 14.88,139.8 22.25,209.71 6.42,60.9 12.81,121.81 19.25,182.71 7.36,69.47 14.79,138.94 22.16,208.42 7.25,68.42 14.44,136.84 21.65,205.26l0 -0.01zm-233.61 -1241.21c-6.95,-32.04 -17.99,-62.91 -27.44,-94.21 -58.39,-193.49 -117.15,-386.87 -175.76,-580.29 -0.98,-3.22 -1.72,-6.52 -3,-11.44 5.99,2.62 7.73,7.06 10.22,10.48 134.44,184.55 268.8,369.15 403.18,553.75 1.26,1.75 2.73,3.39 3.76,5.27 5.34,9.74 9.29,10.66 16.51,0.38 114.62,-163.16 229.7,-325.99 344.48,-489.03 33.01,-46.9 65.43,-94.22 98.12,-141.35 0.69,0.58 1.38,1.16 2.06,1.73 -20.71,65.31 -41.27,130.69 -62.18,195.95 -56.41,176.1 -112.95,352.16 -169.42,528.24 -1.01,3.14 -1.67,6.41 -3.13,12.07 56.67,-21.89 111.48,-43.05 168.76,-65.17 -6.86,27.87 -13.17,53.58 -19.5,79.28 -4.02,16.32 -7.49,32.82 -12.35,48.89 -3.24,10.72 -0.94,12.83 9.64,10.15 46.38,-11.74 92.87,-23.06 139.33,-34.48 68.18,-16.74 136.37,-33.44 205.49,-50.39 -3.25,6.1 -8.48,8.39 -12.74,11.58 -131.89,99.02 -263.75,198.08 -395.97,296.67 -9.82,7.32 -8.97,10.66 -1.01,18.65 81.69,81.99 163.17,164.22 243.06,247.98 4.96,5.2 9.54,10.75 12.98,18.72 -27.36,-4.65 -54.81,-8.83 -82.07,-14.03 -77.06,-14.72 -154.07,-29.73 -231.03,-44.97 -8.85,-1.76 -10.75,1.11 -12.02,9.35 -6.6,42.99 -13.96,85.87 -21.39,130.78 -34.66,-25.18 -68.3,-49.63 -101.95,-74.07 -1.1,-0.63 -2.19,-1.26 -3.29,-1.89 -0.42,-0.61 -0.85,-1.22 -1.28,-1.83 -0.16,0.38 -0.33,0.75 -0.49,1.12 0.67,0.17 1.34,0.34 2,0.51 -1.14,1.6 -0.19,2.8 0.76,4.01 37.6,60.46 75.2,120.92 112.82,181.37 5.46,8.77 10.97,17.5 16.99,27.09 5.19,-5.09 4.99,-11.38 6.44,-16.73 15.31,-56.14 30.59,-112.29 45.26,-168.6 2.63,-10.09 6,-12.91 16.76,-10.46 152.97,34.93 306.05,69.38 459.09,103.97 3.33,0.76 6.58,2.06 10.17,0.66 0.09,-5.12 -4.31,-7.22 -7.13,-10.14 -122.11,-126.47 -244.17,-252.97 -366.67,-379.04 -8.91,-9.18 -7,-12.19 2.51,-18.28 171.98,-110.02 343.74,-220.35 515.58,-330.58 3.18,-2.03 5.99,-5.06 11.44,-4.89 -5.2,25.03 -10.43,49.78 -15.47,74.58 -3.52,17.35 -3.4,17.36 12.97,12.03 124.62,-40.55 249.23,-81.08 373.85,-121.61 325.07,-105.76 650.14,-211.52 975.21,-317.25 4.02,-1.3 8.15,-2.31 13.73,-1.02 -399.23,292.39 -798.46,584.79 -1199.97,878.86 185.94,3.59 368.97,7.13 552,10.66 0.19,0.86 0.39,1.7 0.59,2.56 -282.57,119.35 -565.14,238.7 -850.21,359.1 50.67,32.44 99.56,63.75 148.4,95.02 0.11,4.3 -3.58,4.64 -5.85,5.95 -301.58,172.32 -603.23,344.52 -904.71,517.05 -8.56,4.9 -14.18,2.14 -21.14,-1.76 -146.04,-81.83 -292.16,-163.54 -438.21,-245.34 -155.1,-86.86 -310.15,-173.79 -465.23,-260.69 -1.5,-0.84 -2.96,-1.81 -4.54,-2.47 -9.99,-4.17 -7.43,-7.72 0.07,-12.2 34.81,-20.82 69.47,-41.9 104.19,-62.88 23.6,-14.26 47.2,-28.51 73.43,-44.34 -315.18,-116.19 -627.9,-231.46 -940.62,-346.74 0.17,-0.75 0.34,-1.49 0.51,-2.24 183.03,-6.56 366.05,-13.12 550.09,-19.72 -1.8,-5.43 -6.33,-7.31 -9.85,-9.91 -135.14,-100.45 -272.65,-197.64 -410.15,-294.8 -271.48,-191.83 -543.35,-383.1 -815.04,-574.63 -2.75,-1.94 -5.16,-4.37 -7.73,-6.58l-0.22 0.18c5.94,-1.72 11.03,1.52 16.21,3.19 473.29,152.92 946.52,305.95 1419.79,458.91 6.44,2.08 15.03,8.05 19.18,4.19 5.38,-5.01 -1.02,-13.6 -2.6,-20.52 -3.82,-16.71 -8.34,-33.25 -12.63,-50.08 5.7,-1.26 8.25,2.21 11.23,4.13 163.7,105.26 327.31,210.67 491.14,315.74 9.1,5.83 8.81,9.04 1.89,16.66 -108.33,119.2 -216.34,238.69 -324.41,358.12 -1.13,1.24 -2.13,2.59 -5.13,6.28 26.24,-5.2 49.92,-9.84 73.58,-14.59 126.78,-25.45 253.58,-50.81 380.29,-76.61 9.83,-2.01 13.11,0.53 15.6,9.84 15.09,56.19 30.79,112.21 46.3,168.29 0.91,3.31 1.96,6.58 2.94,9.88 4.28,0.08 4.69,-3.53 6.05,-5.77 38.16,-62.66 76.22,-125.36 114.26,-188.07 1.11,-1.83 1.82,-3.89 2.7,-5.85 0.73,-0.99 1.63,-2.08 -0.03,-2.91 -0.31,-0.16 -1.18,0.82 -1.78,1.27 -32.12,12.43 -64.38,24.51 -96.25,37.54 -8.78,3.59 -12.15,2.96 -15.19,-6.64 -8.3,-26.29 -18.03,-52.12 -26.69,-78.3 -2.34,-7.06 -5.09,-8.78 -12.89,-7.55 -90.26,14.21 -180.62,27.87 -270.95,41.62 -4.66,0.71 -9.38,0.95 -17.26,1.72 9.75,-10.65 17.55,-19.43 25.64,-27.95 71.34,-75.15 142.6,-150.36 214.26,-225.18 7.86,-8.21 9.38,-12.06 -0.98,-19.92 -137.12,-104.17 -273.85,-208.84 -410.67,-313.41 -3.65,-2.79 -7.11,-5.83 -12.95,-10.65 16.37,1.01 28.8,5.62 41.43,8.76 103.27,25.7 206.45,51.74 309.66,77.68 15.82,3.97 15.87,3.89 11.79,-11.39 -9.78,-36.63 -19.56,-73.27 -29.28,-109.91 -0.73,-2.77 -2.96,-5.46 -0.3,-9.75 9.17,3.91 18.53,7.8 27.83,11.88 44.61,19.53 89.2,39.14 133.83,58.63 3.1,1.36 6.49,2.05 9.74,3.05 0.47,0.46 1.26,1.38 1.35,1.33 1.36,-0.98 0.8,-1.7 -0.43,-2.25l0.04 0z"/>
</symbol>
<symbol id="Fm0-14-0" viewBox="675.84 -3262.45 3454.76 3386.61">
 <path class="fil2" d="M675.84 -1418.69c12.24,11.9 20.47,26.81 30.08,40.62 35.56,51.12 68.84,103.82 106.98,153.14 20.57,26.59 42.15,52.3 66.5,75.58 1.58,1.51 2.74,3.77 6.39,3.7 -4.21,-16.16 -8.37,-32.1 -12.48,-48.04 -18.47,-71.56 -31.91,-144.09 -42.88,-217.14 -8.15,-54.21 -13.01,-108.61 -11.94,-163.47 0.2,-10.02 -2.96,-19.96 0.1,-30.1 1.69,-5.61 4.98,-9.02 10.14,-10.96 19.49,-7.32 43.3,7.2 45.11,27.78 2.67,30.46 3.67,61.01 7.51,91.42 11.13,88.14 23.77,175.89 48.75,261.5 28.97,99.27 68.17,194.3 116.12,285.74 36.3,69.22 80.63,133.26 128.63,194.83 29.67,38.05 60.45,75.21 92.44,111.3 23.82,26.87 50.63,50.84 77.78,74.35 29.31,25.38 57.17,52.58 88.83,75.07 72.85,51.77 147.43,100.92 225.23,145.02 10.82,6.13 14.84,14.07 11.57,28.19 -6.45,27.89 -13.61,55.61 -20.35,83.44 -2.05,8.46 -7.32,11.75 -15.71,11.18 -8.28,-0.56 -16.07,-3.14 -23.37,-6.65 -68.48,-32.96 -137.16,-65.96 -200.82,-107.5 -77.53,-50.6 -152.37,-105.28 -223.81,-164.26 -55.17,-45.55 -104.25,-97.41 -152.14,-150.57 -59.72,-66.29 -105.54,-141.4 -146.54,-219.96 -52.4,-100.43 -96.71,-204.43 -137.63,-309.95 -26.5,-68.35 -51.39,-137.28 -73.26,-207.28 -0.18,-0.57 -0.8,-0.99 -1.22,-1.48l0 -25.47 -0.01 -0.03z"/>
 <path class="fil3" d="M2454.77 -1766.11c0.02,-14.2 -4.43,-21.43 -16.47,-29.83 -6.64,-4.64 -14.04,-8.3 -19.21,-14.85 -9.51,-12.02 -20.84,-12.46 -30.88,-0.78 -5.15,5.99 -10.81,11.26 -17.25,15.77 -14.47,10.11 -19.55,23.31 -14.62,40.72 4.04,14.28 7.24,28.83 10.14,43.4 9.39,47.29 18.45,94.64 27.69,141.96 0.8,4.1 1.35,7.99 7.44,8.26 5.77,0.25 7.06,-2.76 8.4,-7.1 3.71,-12.03 8.14,-23.85 11.48,-35.98 10.51,-38.11 15.61,-77.35 23.56,-115.99 3.32,-16.14 6.88,-32.23 9.74,-45.57l-0.02 -0.01zm1061.83 135.88c-7.95,0.38 -15.26,-2.87 -22.93,-4.11 -38.54,-6.23 -73.78,2.96 -106.88,22.33 -24.01,14.05 -45.75,31.31 -67.32,48.73 -8.25,6.66 -14.28,15.12 -18.49,24.9 -17.07,39.71 -47.5,57.85 -90.41,56.65 -21.48,-0.61 -42.99,1.1 -64.24,-4.36 -9.58,-2.46 -18.88,1.05 -26.66,6.95 -6.22,4.7 -11.88,10.18 -17.54,15.57 -5.68,5.41 -11.39,10.7 -17.78,15.32 -3.54,2.56 -9.72,1.91 -10.7,7.27 -1.17,6.42 -0.8,13.03 1.75,19.24 4.38,10.63 14.26,15.11 26.63,12.19 9.19,-2.16 18.29,-5.04 27.61,-6.25 17.15,-2.23 34.5,-3.85 51.52,0.94 23.19,6.52 35.74,24.36 44.52,44.88 4.85,11.33 -2.86,22.34 -15.46,24.07 -8.69,1.19 -17.58,0.88 -26.35,1.57 -18.93,1.49 -26.73,10.45 -25.76,29.4 0.13,2.6 0.48,5.2 0.88,7.77 4.04,25.72 -9.92,46.29 -35.78,48.7 -33.78,3.14 -58.51,20.08 -78.75,45.68 -10.72,13.57 -21.13,27.4 -34.66,38.48 -22.53,18.47 -47.21,22.15 -74.15,11.3 -15.84,-6.38 -30.35,-15.04 -43.63,-25.75 -2.29,-1.85 -4.45,-3.85 -6.73,-5.7 -18.08,-14.65 -28.42,-11.76 -36.19,10.09 -5.24,14.76 -6.2,15.33 -22.07,12.82 -4.18,-0.66 -8.35,-1.44 -12.53,-2.1 -19.65,-3.06 -35.25,1.36 -49.42,17.61 -24.39,27.96 -54.31,30.84 -86.26,11.59 -14.51,-8.74 -28.63,-18.12 -44.42,-24.56 -25.75,-10.52 -51.32,-10.54 -76.96,0.51 -12.34,5.32 -23.55,12.53 -35.07,19.28 -78.32,45.83 -156.89,46.73 -235.17,0.08 -20.31,-12.11 -40.76,-23.31 -64.56,-26.59 -33.21,-4.58 -61.59,6.79 -87.19,26.87 -9.34,7.33 -19.21,13.59 -30.93,16.13 -26.89,5.84 -48.73,-3.68 -64.51,-24.88 -11.93,-16.04 -26.88,-19.12 -44.72,-16.77 -4.52,0.59 -8.94,1.84 -13.45,2.54 -15.12,2.33 -20.53,-1.77 -22.34,-16.76 -1.62,-13.41 -3.62,-14.82 -17.17,-12.3 -10.89,2.03 -20.04,7.5 -28.62,14.2 -13.41,10.48 -27.43,19.87 -43.76,25.38 -25.97,8.76 -49.43,4.1 -70.78,-12.7 -11.94,-9.39 -21.05,-21.31 -30.19,-33.25 -16.3,-21.28 -34.65,-40.12 -61.61,-47.46 -8.45,-2.31 -17.27,-3.22 -25.83,-5.21 -23.45,-5.44 -33.9,-20.73 -30.69,-44.39 0.39,-2.9 0.62,-5.85 0.71,-8.77 0.53,-19.34 -6.9,-28.41 -25.92,-31.28 -9.33,-1.41 -18.89,-1.69 -28.07,-3.71 -15.05,-3.32 -19.68,-12.49 -12.56,-26.04 18.61,-35.41 52.62,-58.99 99.41,-41.85 6.72,2.46 13.3,5.49 20.2,7.25 15.56,3.95 32.3,-8.38 33.65,-24.26 0.41,-4.84 -0.5,-9.07 -5.17,-11.73 -10.92,-6.21 -19.61,-15.12 -28.55,-23.71 -16.22,-15.56 -34.11,-21.26 -57.14,-16.06 -29.57,6.67 -59.81,4.04 -89.31,-2.62 -18.82,-4.24 -32.57,-15.06 -39.4,-34.29 -6.83,-19.28 -20.25,-34.22 -36.19,-46.56 -22.19,-17.16 -44.43,-34.32 -67.53,-50.21 -31.05,-21.37 -64.53,-26.93 -100.08,-11.24 -2.37,1.05 -4.91,2.16 -7.43,2.34 -5.27,0.37 -8.55,-2.88 -10.34,-7.44 -1.43,-3.64 0.25,-6.65 3.73,-7.92 32.74,-11.91 62.03,-31.89 96,-40.94 22.63,-6.02 44.57,-4.27 65.99,4.96 7.79,3.36 15.58,6.74 23.93,8.4 14.24,2.83 24.05,-2.52 29.77,-15.94 4.4,-10.32 6.86,-21.19 6.99,-32.32 0.24,-21.62 -10.45,-36.32 -30.04,-44.95 -29.83,-13.15 -61.05,-20.99 -93.48,-23.2 -41.28,-2.81 -82.17,0.44 -122.29,11.09 -19.2,5.1 -36.48,14.03 -51.01,27.76 -12.15,11.5 -26.06,13.94 -41.64,8.75 -11.81,-3.94 -22.5,-10.24 -33.54,-15.83 -7.84,-3.96 -15.67,-8.01 -23.76,-11.4 -13.92,-5.83 -27.08,-4.06 -38.02,6.56 -5.14,4.99 -7.31,3.06 -9.69,-1.94 -3.47,-7.31 -3.91,-15.04 -3.38,-22.95 1.83,-27.51 -7.85,-38.38 -35.34,-40.11 -5.19,-0.33 -10.43,-0.94 -15.51,-2.03 -19.78,-4.24 -30.72,-18.26 -27.9,-38.38 2.29,-16.41 -1.91,-27.92 -17.29,-35.27 -7.13,-3.41 -12.18,-9.78 -16.72,-16.23 -9.92,-14.11 -18.33,-29.29 -30.65,-41.72 -5.03,-5.09 -6.2,-11.57 -0.59,-17.5 5.38,-5.69 11.77,-4.56 16.74,-0.28 29.33,25.28 66.69,26.32 101.78,33.39 17.27,3.48 35.19,-0.63 52.17,-5.6 15.77,-4.62 23.2,-14.96 23.25,-29.94 0.06,-16.46 -7.25,-27.27 -23.08,-32.34 -18.19,-5.83 -37.32,-5.8 -56.11,-7.52 -51.92,-4.76 -103.71,-0.57 -155.52,2.73 -37.4,2.39 -74.41,1.13 -109.41,-14.66 -10.61,-4.79 -20.92,-10.11 -30.8,-18.74 16.88,-2.32 32.5,-4.42 48.1,-6.64 2.56,-0.36 5.1,-1.09 7.57,-1.87 20.98,-6.71 24.79,-21.85 9.19,-37.45 -15.05,-15.06 -32.14,-27.69 -49.36,-40.08 -14.08,-10.14 -26.97,-21.52 -39.26,-33.78 -12.4,-12.37 -16.71,-27 -15.81,-43.94 0.26,-4.82 3.01,-5.24 6.51,-4.96 5.64,0.44 10.85,2.46 15.53,5.5 14.12,9.2 30.24,11.74 46.39,13.94 11.16,1.52 20.74,-2.22 27.33,-11.65 2.96,-4.22 6.82,-6.65 11.2,-8.99 18.71,-10.03 38.18,-18.15 58.27,-24.99 10.8,-3.68 20.42,-9.35 20.34,-23.12 -0.05,-9.39 -4.53,-15.27 -13.49,-18 -8.62,-2.63 -17.46,-2.05 -26.25,-2.09 -12.14,-0.04 -24.05,-1.61 -35.7,-5.04 -16.21,-4.77 -26.07,-15.85 -26.82,-32.38 -1.4,-30.63 -16.14,-50.6 -43.06,-64.53 -27.69,-14.32 -33.57,-38.46 -17.19,-64.95 7.68,-12.43 17.66,-23.42 26.26,-35.31 13.27,-18.34 12.03,-25.25 -6.51,-38.48 -5.57,-3.97 -11.29,-7.76 -17.15,-11.29 -2.96,-1.79 -3.97,-4.08 -3.74,-7.27 0.35,-4.79 4.25,-3.18 6.72,-3.43 7.78,-0.79 15.61,-1.22 23.42,-1.71 16.65,-1.06 26.24,-8.05 29.02,-21.24 3.21,-15.23 -1.08,-24.88 -16.55,-32.66 -19.56,-9.85 -38.12,-21.26 -56.54,-33 -4.4,-2.81 -6.96,-6.28 -8.69,-11.13 -13.35,-37.52 -21,-75.6 -18.22,-115.96 3.03,-43.8 -1.1,-87.25 -12.19,-130.04 -4.88,-18.83 -2.79,-37.13 14.32,-50.5 5.23,-4.08 7.94,-5.11 9.95,3.27 6.77,28.26 16.46,55.57 29.75,81.47 3.1,6.05 7.06,11.72 11.14,17.19 3.89,5.2 8.87,8.98 15.97,5.96 6.75,-2.88 9.96,-8.27 9.75,-15.5 -0.46,-15.31 -1.1,-30.62 -1.69,-45.94 -0.1,-2.6 -0.6,-5.23 -0.43,-7.81 0.46,-7.31 5.85,-10.95 12.06,-7.22 9.05,5.44 17.08,11.09 20.57,23.05 13.98,48.05 39.75,90.48 66.42,132.3 16.5,25.87 34.19,50.95 54.78,73.8 4.72,5.24 9.42,10.68 17.2,14.22 -4.16,-20.13 -9.95,-38.72 -15.96,-57.25 -7.04,-21.71 -14.94,-43.08 -25.83,-63.21 -4.84,-8.95 -10.58,-17.16 -18.3,-23.98 -9.49,-8.38 -15.47,-19.34 -20.6,-30.64 -8.06,-17.79 -15.72,-35.76 -23.36,-53.74 -9.75,-22.95 -23.38,-42.51 -44.13,-57.3 -19.92,-14.19 -25.61,-39.57 -15.24,-61.9 13.14,-28.3 10.27,-54.48 -9.65,-78.52 -11.67,-14.08 -23.98,-27.53 -39.67,-37.49 -5.19,-3.29 -10.87,-7.2 -7.58,-14.93 3.26,-7.67 8.94,-12.07 17.66,-10.71 3.48,0.54 7.03,1.63 10.17,3.21 12.52,6.28 25.02,12.61 37.29,19.36 13.88,7.64 23,18.99 25.33,35.11 0.89,6.09 3.9,10.85 10.47,10.92 7.3,0.08 11.63,-5.11 12.45,-11.6 0.93,-7.36 0.22,-14.96 -0.15,-22.44 -2.31,-47.04 10.1,-88.19 47.5,-119.41 4.76,-3.97 9.35,-8.21 14.45,-11.67 5.09,-3.45 10.98,-5.24 16.12,-0.12 4.67,4.65 3.94,10.44 0.61,15.32 -11.88,17.4 -12.42,38.15 -17.21,57.58 -3.73,15.13 1.66,28.17 14.3,36.89 19.37,13.38 21.15,31.43 15.9,51.94 -0.81,3.15 -1.81,6.29 -3.11,9.26 -10.17,23.21 -5.61,43.76 10.68,62.52 12.81,14.74 28.25,27.21 38.21,44.44 2.43,4.2 5.99,3.44 8.99,0.45 4.55,-4.54 6.7,-10.12 7.41,-16.58 2.28,-20.79 3.26,-41.64 3.65,-62.53 0.24,-13.46 2.47,-26.57 7.39,-39.2 7.38,-18.91 20.84,-30.05 40.98,-33.58 28.06,-4.92 35.17,-12.69 38.37,-40.64 0.52,-4.54 1.02,-9.08 1.53,-13.62 4.27,-38.25 41.84,-70.57 80.42,-69.44 4.76,0.15 6.27,1.01 4.98,6.12 -7.72,30.59 -18.65,58.94 -40,83.66 -55.64,64.42 -75.02,140.59 -65.74,224.18 11.79,106.14 53.07,201.65 108.82,291.47 52.21,84.12 115.83,159.34 183.17,231.51 134.69,144.35 287.28,267.66 447.84,381.73 134.65,95.66 275.91,180.95 416.19,267.81 16.71,10.34 32.95,21 46.24,35.79 6.59,7.33 14.7,12.24 25.2,7.21 9.92,-4.75 14.98,-14.87 13.13,-27.01 -1.35,-8.78 -5.34,-16.7 -8.95,-24.73 -12.22,-27.22 -21.76,-55.14 -22.52,-85.41 -0.62,-24.75 6.67,-46.82 21.39,-66.64 16.71,-22.5 15.23,-39.79 -6.11,-57.97 -46.92,-40 -70.63,-92.59 -83.56,-151.23 -11.02,-49.99 -17.16,-100.88 -27.73,-150.97 -5.04,-23.92 5.74,-43.11 27.63,-53.73 2.92,-1.42 5.95,-2.64 8.98,-3.84 32.92,-12.98 48.81,-37.58 49.47,-72.53 0.23,-12.4 0.3,-24.78 3.2,-36.97 7.23,-30.5 28.12,-48.19 55.61,-59.81 33.74,-14.27 56.37,-39.21 69.35,-73.08 16.98,-44.3 14.67,-88.97 0.69,-133.34 -11.01,-34.93 -17.29,-70.18 -13.03,-106.91 4.17,-35.98 21.93,-55 61.13,-67.71 4.23,-1.37 5.08,0.64 6.25,3.62 3.42,8.67 -0.36,16.05 -4.37,23.15 -9.08,16.06 -13.65,33.09 -11.91,51.57 2.09,22.18 10.25,42.36 21.43,61.3 5.36,9.08 12.3,9.55 20.3,2.43 3.14,-2.79 5.71,-6.24 8.45,-9.47 4.42,-5.19 8.54,-12.14 16.51,-9.76 7.81,2.33 8.49,10.38 8.9,17.11 1.27,20.52 2,41.08 2.81,61.63 0.78,19.57 1.17,39.15 5.78,58.34 3.61,15.04 8.36,30.01 18.16,41.84 22.56,27.22 24.25,58.02 18.45,90.65 -3.66,20.61 -5.83,41.25 -4.98,62.3 1.39,34.43 -5.74,68.2 -9.17,102.26 -1.83,18.15 -2.08,35.91 9.13,51.71 3.04,4.28 6.17,8.49 10.96,10.97 9.42,4.88 17.5,1.18 20.17,-9.11 3.27,-12.6 6.25,-25.29 9.98,-37.76 4.43,-14.84 13.77,-25.42 29.67,-31.07 -8.46,49.5 6.35,95.4 18.41,141.24 9.53,36.21 3.62,67.94 -16.62,98.52 -19.8,29.92 -42.25,57.26 -71.42,78.48 -14.49,10.54 -30.04,18.48 -49,15.14 -4.62,-0.81 -8.79,-2.48 -12.56,-5.13 -14.85,-10.47 -15.08,-19.25 1.14,-25.96 25.63,-10.61 34.07,-29.77 26.71,-60.1 -7.08,-29.19 -18.21,-57.05 -27.74,-85.44 -2.05,-6.12 -4,-4.23 -7.05,-1.17 -13.9,13.94 -19.3,31.37 -20.84,50.4 -0.68,8.46 -1.42,16.92 -1.72,25.4 -0.16,4.32 -1.93,5.32 -5.99,5.42 -15.6,0.37 -27.12,-8.12 -31.68,-25.16 -8.49,-31.71 -10.18,-63.5 -0.95,-95.59 8.74,-30.38 21.64,-59.35 29.5,-90.01 9.12,-35.57 11.99,-71.32 5,-107.6 -0.6,-3.12 -0.75,-6.36 -3.18,-9.61 -8.12,16.32 -15.89,32.39 -24.07,48.25 -10.57,20.5 -16.13,23.1 -38.86,19.13 -17.91,-3.13 -30.24,2.41 -33.87,19.54 -12.49,58.85 -30.89,116.85 -27.73,178.18 2.35,45.44 21.2,84.97 44.24,122.84 22.72,37.35 54.54,64.48 94.96,81.44 35.43,14.85 63.62,37.48 76.05,75.26 12.05,36.61 6.02,72.21 -9.25,106.59 -5.43,12.21 -11.16,24.29 -14.98,37.1 -4.27,14.37 -0.58,24.88 10.17,31.74 6.9,4.4 14.04,4.87 19.84,-0.75 31.81,-30.8 71.57,-49.85 108.4,-73.05 128.04,-80.65 256.59,-160.46 379.35,-249.16 132.76,-95.92 261.14,-197.44 376.04,-314.24 89.41,-90.89 176.48,-184.52 242.52,-295.09 48.94,-81.95 84.46,-168.89 100.05,-263.35 15.17,-91.88 -3.02,-175.07 -66.12,-246.09 -15.73,-17.72 -23.96,-39.35 -31.4,-61.35 -2.71,-8.01 -5.65,-15.96 -8.5,-23.96 28.24,-3.43 65.99,18.55 79.96,46.23 6.69,13.25 10.11,27.5 13.07,41.84 3.85,18.65 13.73,30.22 32.93,35.54 30.85,8.56 47.7,30.83 49.6,62.92 1.13,19.16 4.32,38.2 2.59,57.59 -0.91,10.21 2.05,20.06 9.5,27.95 3.38,3.57 6.75,5.15 10.74,0.95 20.85,-21.97 37.71,-46.58 48.85,-74.86 2.09,-5.29 0.35,-10.98 -0.06,-16.5 -1,-13.33 -2.56,-26.6 -1.76,-40.05 1.28,-21.4 10.38,-38.7 25.98,-53 11.23,-10.3 12.68,-16.67 7.08,-31.33 -5.26,-13.76 -13.71,-25.89 -20.31,-38.98 -3.03,-6 -4.62,-11.86 -2.41,-18.7 3.05,-9.44 7.56,-11.5 15.82,-5.51 11.67,8.45 21.49,19.03 31.74,29.08 1.31,1.28 2.21,3.27 2.67,5.09 3.53,14.01 10,26.84 15.9,39.88 8.87,19.56 12.54,39.61 7.81,60.94 -1.99,8.99 -2.19,18.18 0.77,27.1 2.74,8.27 8.33,13.14 17.3,13.28 9.1,0.15 10.94,-6.76 12.61,-13.58 1.24,-5.06 2.13,-10.2 3.32,-15.27 4.96,-21.19 31.46,-34.11 51.49,-25.23 3.39,1.51 5.82,4.02 4.79,7.51 -2.29,7.69 -3.62,15.86 -9.95,21.87 -7.11,6.74 -13.58,14.09 -19.09,22.26 -12.75,18.88 -13.31,38.06 -2.41,58.05 11.03,20.22 9.32,39.76 -4.9,57.94 -65.39,83.62 -117.85,174.28 -150.35,275.8 -0.97,3.04 -4.69,7.07 -1.15,9.63 3.68,2.65 9,2.58 13.05,-0.15 4.56,-3.09 8.75,-6.8 12.83,-10.55 51.98,-47.73 83.84,-107.45 103.63,-174.33 2.86,-9.68 5.12,-19.55 8.27,-29.13 3.9,-11.87 11.69,-19.98 24.09,-23.59 5.97,-1.74 7.39,-0.15 7,5.71 -1.25,18.89 -2.12,37.8 -3.16,56.7 -0.46,8.33 -0.74,16.58 8.33,21.14 8.99,4.52 15.98,0.6 23.31,-4.65 20.58,-14.76 26.55,-36.12 28.31,-59.69 0.68,-9.11 1.69,-18.16 7.38,-25.94 4.51,-6.16 9.22,-6.65 14.55,-1.24 7.2,7.3 11.77,14.3 9.72,26.35 -10.77,63.22 -13.15,127.17 -14.19,191.17 -0.86,53.36 -22.93,85.79 -72.42,106.06 -3.31,1.36 -6.64,2.72 -9.84,4.3 -13.67,6.76 -18.09,15.17 -15.45,29.14 2.43,12.84 10,19.48 25.13,19.82 15.99,0.35 31.86,0.81 47.74,5.18 -2.19,6.41 -6.83,9.98 -12.65,12.65 -8.57,3.94 -17.24,7.8 -25.43,12.45 -14.91,8.46 -16.55,15.28 -6.58,29 7.08,9.75 15.14,18.8 22.85,28.09 5.87,7.08 10.83,14.66 13.79,23.46 6.4,19.03 2.05,35.29 -12.47,48.94 -6.25,5.88 -13.86,9.63 -21.37,13.62 -18.87,10.04 -30.95,25.07 -31.59,47.12 -0.81,28.03 -7.39,47.1 -52.15,48.64 -12.04,0.41 -24.11,1.37 -36.06,2.95 -13.74,1.83 -18.47,15.36 -9.56,26.2 4.07,4.94 9.54,7.94 15.48,9.87 26.02,8.46 49.64,21.2 70.96,38.4 11.69,9.44 25.02,9.92 38.89,5.3 16.56,-5.52 30.93,-15.22 45.89,-23.81 3.59,-2.06 7.18,-4.11 11.69,-6.7 1.15,14.6 -1.52,27.41 -6.97,39.67 -4.68,10.53 -10.9,20.35 -19.4,27.99 -25.41,22.84 -47.96,48.93 -76.76,67.96 -7.07,4.67 -12.79,10.34 -11.26,19.98 1.54,9.73 7.58,15.79 16.39,19.02 14.77,5.4 30.27,3.78 45.56,4.23 4.03,0.12 9.62,-2.63 11.12,4.43 1.59,7.52 -4.24,8.31 -9,10.27 -9.63,3.98 -19.47,7.57 -28.73,12.28 -35.35,17.95 -71.5,22.3 -110.88,14.06 -52.05,-10.9 -105.15,-9.62 -158.02,-4.98 -14.28,1.25 -28.62,2.76 -42.7,5.36 -20.91,3.87 -30.05,15.86 -29.15,36.19 0.69,15.58 9.52,25.71 27.21,30.06 28.59,7.04 57.01,4.99 85.09,-2.96 21.39,-6.05 41.85,-14.41 60.96,-25.92 1.95,-1.17 4.05,-2.08 6.11,-3.06 5.54,-2.65 10.16,-1.15 13.97,3.31 4.03,4.71 3.75,9.87 0.07,14.32 -8.52,10.32 -17.1,20.61 -26.27,30.33 -13.56,14.37 -25.05,29.88 -32.59,48.35 -4.17,10.21 -9.55,19.99 -15.05,29.58 -12.65,22.08 -31.8,34.21 -57.4,34.82 -8.7,0.21 -10.99,3.64 -9.2,11.49 0.65,2.85 0.78,5.82 1,8.75 1.27,17.12 -5.32,28.12 -22.2,28.17 -29.36,0.07 -54.31,11.56 -79.62,23.79 -15.06,7.27 -31.17,9.47 -47.58,4.31 -3.62,-1.14 -7.27,-2.18 -9.36,-6.3 -6.3,-12.42 -17.28,-19.21 -30.06,-23.4 -42.36,-13.92 -85.84,-18.97 -130.27,-16.05 -27.4,1.81 -54.4,6.37 -80.97,13.26 -39.21,10.16 -57.03,36.64 -49.82,73.51 5.13,26.24 24.17,35.85 47.87,23.62 11.31,-5.84 22.34,-12.13 34.87,-14.99 24.17,-5.54 46.21,0.66 65.98,14.12 14.73,10.03 30.29,17.49 47,23.39 13.07,4.62 25.8,10.61 33.86,23l-0.09 0.09 0.13 -0.04z"/>
 <path class="fil3" d="M1808.85 -382.66c3.82,2.63 7.21,5.08 10.72,7.36 26.45,17.19 52.89,16.36 74.71,-6.31 17.1,-17.75 38.35,-26.57 59.74,-35.84 9.11,-3.95 14.14,-8.37 14.13,-19.21 -0.03,-28.07 13.26,-50.49 32.16,-70.19 14.7,-15.31 31.6,-28.2 48.14,-43.37 -12.77,-5.57 -25.67,-6.17 -38.18,-8.25 -11.59,-1.93 -23.19,-3.66 -33.91,-8.83 -2.88,-1.39 -6.52,-2.54 -6.63,-6.42 -0.11,-3.92 3.38,-5.09 6.33,-6.55 12.71,-6.27 12.62,-6.28 5.12,-18.56 -2.3,-3.76 -5.96,-7.58 -3.25,-12.48 2.64,-4.78 7.67,-4.31 12.2,-4.39 10.44,-0.17 21.03,0.92 31.29,-0.48 29.57,-4.04 49.13,-21.2 52.51,-52.14 3.87,-35.4 23.67,-56.08 52.58,-72.31 43.2,-24.25 87.92,-45.57 131.5,-69.06 18.08,-9.74 36.06,-19.7 53.03,-31.3 27.3,-18.66 32.4,-31.69 25.28,-64.06 -2.52,-11.46 -5.57,-22.8 -7.76,-34.32 -3.37,-17.8 2.31,-32.12 17.69,-42.22 2.72,-1.79 5.5,-3.5 8.22,-5.29 22.3,-14.72 21.13,-40.94 -2.52,-53.82 -11.82,-6.44 -25.04,-9.15 -37.65,-13.49 -4.79,-1.65 -9.63,-3.14 -14.77,-4.8 2.7,-5.59 7.22,-7.79 11.86,-8.88 14.36,-3.4 27.42,-10.08 40.95,-15.55 9.95,-4.02 20.18,-5.93 30.63,-3.82 34.09,6.87 68.76,6.92 103.22,9.46 26.36,1.94 52.73,3.91 79.06,6.13 9.11,0.77 17.07,4.43 22.49,12.2 2.32,3.33 5.45,5.52 8.66,7.78 91.04,64.23 140.86,152.21 152.77,262.69 3.19,29.59 -6.15,53.84 -24.84,75.47 -22.57,26.11 -49.72,47.07 -77.35,67.41 -19.7,14.5 -39.69,28.63 -59.68,42.72 -13.94,9.82 -26.32,9.4 -41.07,-1.38 34.65,-20.4 59.34,-50.74 83.9,-81.2 2.45,-3.04 4.81,-6.18 6.97,-9.44 4.48,-6.74 6.09,-13.82 0.95,-20.92 -5.16,-7.12 -12.05,-10.72 -21.14,-9.36 -5.98,0.9 -11.09,3.75 -16.04,6.88 -10.81,6.85 -21.1,14.67 -29.16,24.49 -29.5,35.94 -68.31,59.21 -108.61,80.19 -22.62,11.78 -35.86,27.86 -36.34,54.22 -0.42,23.32 -11.68,39.46 -35.11,45.88 -8.14,2.23 -12.32,8.44 -13.32,16.46 -2.09,16.82 1.27,33.13 5.73,49.21 1.99,7.19 7.7,9.31 14.6,8.33 5.81,-0.83 11.51,-2.45 17.33,-2.98 10.08,-0.91 12.57,2.3 9.81,11.97 -2.87,10.08 -7.72,19.31 -12.29,28.68 -8.42,17.25 -5.3,25.19 12.94,30.81 5.99,1.84 8.7,5.03 9.56,10.68 0.59,3.86 1.11,7.73 1.74,11.59 4.18,25.3 18.36,33.92 42.62,25.66 6.83,-2.33 13.53,-4.65 20.92,-4.09 7.35,0.56 13.44,3.17 16.35,10.34 2.85,6.98 -1.5,11.86 -5.87,16.35 -19.07,19.59 -42.73,30 -69.59,31.92 -53.36,3.81 -101.29,-10.88 -142.66,-45.21 -20.91,-17.34 -33.67,-40.39 -42.42,-65.59 -6.07,-17.48 -14.02,-21.17 -29.67,-11.41 -14.3,8.92 -22.51,22.47 -22.87,38.94 -0.79,36.7 -8.18,72.59 -11.62,108.95 -1.05,11.08 -1.41,22.19 -0.1,33.24 3.46,29.24 19.75,49.46 46.04,60.99 17.88,7.85 33.14,18.13 47.19,31.91 23.35,22.89 49.26,24.38 72.37,7.01 15.96,-12 21.03,-27.56 15.12,-46.64 -3.41,-11.01 -9.52,-20.62 -16.19,-29.97 36.7,-14.58 72.88,-0.81 89.24,34 4.29,9.12 7.51,18.74 11.77,27.89 5.5,11.8 11.94,14.88 24.4,11.28 6.97,-2.01 12.67,-0.41 18.52,2.99 9.86,5.71 19.61,11.57 30.72,14.8 13.33,3.86 25.08,1.42 35.66,-7.44 8.11,-6.79 14.51,-15.08 20.06,-23.92 9.52,-15.16 17.73,-31.08 28.11,-45.79 7.93,-11.24 5.39,-21.35 -5.63,-29.84 -5.67,-4.37 -12.07,-7.83 -17.53,-12.43 -7.84,-6.61 -9.23,-15.28 -4.27,-22.58 5.44,-8 12.75,-6.21 20.12,-3.52 1.53,0.56 3.01,1.24 4.5,1.89 17.09,7.47 19.96,6.84 27.17,-10.66 3.39,-8.22 11.68,-11.68 15.05,-20.04 5.12,-12.73 10.09,-25.76 18.53,-37.46 -0.88,9.47 6.14,15.83 8.45,24.11 4.53,16.18 -1.7,30.82 -4.01,46.07 -3.93,25.97 -2.31,52.13 -2.24,78.22 0.06,18.3 -0.42,36.52 -3.55,54.62 -4.99,28.82 -19.98,50.45 -45.21,65.22 -16.98,9.94 -35.52,16.19 -53.64,23.44 -10.91,4.37 -21.56,9.19 -31.56,15.42 -77.93,48.53 -162.2,59.48 -251.18,42.32 -23.35,-4.51 -46.57,-9.48 -68.04,-20.49 -6.82,-3.5 -14.42,-5.41 -20.94,0.91 -6.81,6.6 -8.81,15.56 -4.95,23.49 11.88,24.42 29.86,47.77 62.34,43.86 4.5,-0.54 9.25,-1.21 11.78,4.28 2.8,6.09 0.42,10.98 -3.84,14.95 -14.43,13.42 -31.58,18.68 -50.6,13.42 -17.6,-4.87 -33.7,-12.78 -47.91,-25.14 -39.67,-34.48 -80.67,-67.42 -124.74,-96.14 -17.24,-11.24 -34.93,-21.1 -47.26,-38.41 -5.99,-8.42 -16.01,-10.52 -26.08,-11.51 -19.39,-1.89 -34.34,-15.5 -34.61,-34.85 -0.51,-37.12 -12.33,-71.01 -26.15,-104.58 -7.56,-18.38 -15.03,-36.78 -20.1,-56.05 -3.64,-13.85 -13.34,-20.35 -26.9,-21.78 -14.92,-1.57 -29.87,-2.95 -44.83,-4.14 -17.21,-1.37 -36.18,-23.1 -34.72,-40.17 0.35,-4.05 2.57,-6.66 6.81,-6.99 3.25,-0.25 6.53,-0.11 9.78,-0.41 10.69,-0.98 16,-7.32 14.03,-17.87 -1.49,-7.97 -4.22,-15.71 -6.31,-23.57 -2.04,-7.65 -2.66,-15.25 1.21,-23.22l0.03 0.03z"/>
 <path class="fil2" d="M3815.54 -1148.81c16.56,-15.03 31.48,-31.27 45.75,-48.13 47.96,-56.65 87.45,-119.37 129.39,-180.33 13.45,-19.56 27.32,-38.82 41,-58.21 0.77,0.31 1.55,0.62 2.32,0.92 -2.87,10.26 -5.49,20.61 -8.63,30.79 -22.5,72.9 -48.38,144.6 -75.87,215.74 -38.43,99.51 -80.21,197.57 -128.64,292.65 -33.33,65.45 -69.27,129.42 -114.25,187.81 -19.52,25.33 -40.81,49.19 -62.36,72.76 -27.08,29.61 -55.24,58.17 -84.49,85.73 -44.76,42.15 -93.39,79.37 -142.87,115.57 -38.16,27.92 -76.56,55.53 -115.5,82.33 -45.24,31.14 -94.71,55.02 -143.16,80.58 -24.51,12.93 -49.23,25.48 -74.7,36.44 -3.26,1.4 -6.77,2.31 -10.24,3.17 -16.36,4.06 -21.04,1.24 -25,-14.98 -6.1,-24.97 -12.23,-49.93 -18.23,-74.93 -4.44,-18.48 -0.87,-24.65 15.67,-33.84 41.07,-22.83 80.36,-48.6 119.69,-74.26 46.42,-30.29 93.52,-59.68 135.46,-96.22 44.25,-38.55 90.5,-75.22 129.51,-119.21 75.15,-84.75 145.83,-173.09 202.8,-271.46 39.15,-67.58 71.38,-138.5 99.33,-211.39 28.52,-74.37 50.38,-150.64 65.21,-228.9 7.21,-38.04 11.39,-76.52 16.95,-114.81 5.85,-40.32 8.79,-80.83 11.55,-121.42 1.37,-20.16 27.05,-34.49 45.84,-26.55 9.22,3.9 11.05,12.09 10.5,20.24 -2.65,39.01 -0.79,78.12 -4.85,117.17 -7.67,73.88 -20.61,146.81 -35.84,219.4 -7.48,35.68 -16.12,71.09 -26.42,106.08 -0.64,2.16 -1.62,4.25 0.06,7.28l0.02 -0.02z"/>
 <path class="fil2" d="M3495.1 -2656.27c-0.19,15.36 -13.14,32.94 -25.09,36.18 -11.68,3.17 -20.43,-2.6 -27.62,-10.7 -62.92,-70.88 -136.82,-129.02 -211.86,-186.31 -74.75,-57.08 -159.55,-94.69 -243.59,-134.26 -46.61,-21.95 -93.59,-43.03 -141.44,-62.16 -47.95,-19.17 -98.3,-30.12 -148.16,-42.6 -52.71,-13.2 -106.14,-23.2 -160.15,-29.39 -29.09,-3.33 -58.33,-5.33 -87.63,-6.76 -39.74,-1.93 -79.48,-4.28 -119.24,-3.11 -56.94,1.68 -113.73,5.28 -170.31,12.82 -103.96,13.86 -205.39,37.76 -304.2,72.76 -107.09,37.94 -208.43,87.69 -304.11,148.99 -72.66,46.55 -140.69,99.02 -204.11,157.6 -21.36,19.73 -41.66,40.47 -62.35,60.85 -21.03,20.7 -36.48,18.42 -50.62,-7.58 -6.37,-11.73 -5.38,-17.11 3.96,-28.18 35.26,-41.8 75.65,-78.29 117.55,-113.16 54.4,-45.28 109.93,-89.12 169.41,-127.65 91.77,-59.43 188.89,-108.15 291.68,-145.63 84.61,-30.85 170.99,-55.24 259.51,-71.74 44.75,-8.34 89.84,-14.55 135.26,-18.55 43.55,-3.83 87.12,-5.39 130.81,-6.03 43.69,-0.63 87.34,-0.04 130.87,2.89 62.98,4.23 125.5,12.3 187.63,23.98 101.02,18.99 198.02,51.24 292.75,89.86 112.16,45.73 216.63,105.89 314.69,177.2 77.57,56.41 148.03,120.73 214.71,189.42 6.53,6.73 11.53,14.13 11.66,21.28l-0.01 -0.02z"/>
 <path class="fil3" d="M2217.8 -904.18c7.91,-17.72 16.56,-34.48 22.37,-52.51 7.39,-22.93 8.97,-45.8 1.43,-69.11 -4.74,-14.69 -2.18,-17.12 13.02,-17.39 18.18,-0.32 31.1,7.04 39.79,23.06 6.44,11.86 12.1,23.88 13.28,37.43 2.4,27.51 -10.58,48.79 -36.92,61.95 -16.71,8.35 -35.65,9.33 -52.98,16.57l0.01 0z"/>
 <path class="fil3" d="M3516.69 -1630.32c0.47,0.19 0.94,0.38 1.41,0.58 -0.31,0.26 -0.62,0.52 -0.93,0.79 -0.19,-0.43 -0.38,-0.85 -0.57,-1.28 0,0 0.09,-0.08 0.09,-0.08l0 -0.01z"/>
</symbol>
 <g id="Capa_x0020_1">
  <metadata id="CorelCorpID_0Corel-Layer"/>
  <g id="_1806888063168">
   <g>
    <path class="fil4" d="M4190.67 1693.34l-129.36 0 0 0 -1.97 -78 -5.88 -76.95 -9.67 -75.8 -13.38 -74.57 -16.98 -73.25 -20.49 -71.85 -23.91 -70.36 -27.23 -68.76 -30.46 -67.07 -33.59 -65.3 -36.62 -63.43 -39.57 -61.46 -42.41 -59.38 -45.18 -57.24 -47.83 -54.97 -50.38 -52.63 -52.84 -50.15 -55.22 -47.63 -57.47 -44.98 -59.65 -42.24 -61.73 -39.39 -63.71 -36.48 -65.58 -33.44 -67.38 -30.34 -69.07 -27.11 -70.66 -23.81 -72.18 -20.41 -73.59 -16.91 -74.9 -13.32 -76.15 -9.64 -77.28 -5.85 -78.36 -1.97 0 -129 84.88 2.13 83.8 6.35 82.59 10.46 81.3 14.44 79.87 18.37 78.36 22.15 76.72 25.85 74.97 29.43 73.14 32.92 71.18 36.3 69.13 39.58 66.97 42.75 64.71 45.82 62.35 48.78 59.88 51.65 57.32 54.41 54.64 57.07 51.87 59.63 49 62.08 46.03 64.44 42.93 66.68 39.76 68.85 36.45 70.88 33.06 72.83 29.57 74.66 25.97 76.4 22.25 78.03 18.44 79.55 14.52 80.97 10.49 82.26 6.38 83.45 2.15 84.52 0 0zm-1650.68 1643.7l0 -129 0 0 78.36 -1.97 77.28 -5.85 76.15 -9.64 74.9 -13.32 73.59 -16.91 72.18 -20.41 70.66 -23.81 69.07 -27.11 67.38 -30.34 65.58 -33.44 63.71 -36.48 61.73 -39.39 59.65 -42.24 57.47 -44.98 55.22 -47.62 52.84 -50.17 50.38 -52.62 47.83 -54.97 45.18 -57.24 42.41 -59.38 39.57 -61.47 36.63 -63.42 33.58 -65.3 30.45 -67.07 27.24 -68.77 23.91 -70.35 20.49 -71.84 16.98 -73.27 13.38 -74.56 9.67 -75.81 5.88 -76.94 1.97 -78.01 129.36 0 -2.15 84.53 -6.38 83.44 -10.49 82.27 -14.52 80.96 -18.44 79.55 -22.25 78.04 -25.97 76.39 -29.56 74.67 -33.07 72.83 -36.46 70.88 -39.75 68.84 -42.93 66.69 -46.03 64.44 -49 62.08 -51.87 59.63 -54.64 57.06 -57.32 54.41 -59.88 51.66 -62.35 48.78 -64.71 45.82 -66.97 42.75 -69.13 39.58 -71.18 36.3 -73.14 32.92 -74.97 29.43 -76.72 25.85 -78.36 22.15 -79.87 18.37 -81.3 14.44 -82.59 10.46 -83.8 6.35 -84.88 2.13 0 0zm-1650.69 -1643.7l129.36 0 0 0 1.97 78.01 5.88 76.94 9.67 75.81 13.38 74.56 16.98 73.27 20.49 71.84 23.91 70.35 27.24 68.77 30.45 67.07 33.58 65.3 36.63 63.42 39.58 61.47 42.41 59.38 45.17 57.24 47.83 54.97 50.38 52.62 52.84 50.17 55.22 47.62 57.47 44.98 59.66 42.23 61.73 39.4 63.7 36.48 65.59 33.44 67.37 30.34 69.08 27.11 70.66 23.81 72.17 20.41 73.58 16.91 74.92 13.32 76.15 9.64 77.28 5.85 78.36 1.97 0 129 -84.88 -2.13 -83.8 -6.35 -82.59 -10.46 -81.3 -14.44 -79.88 -18.37 -78.35 -22.15 -76.72 -25.85 -74.98 -29.43 -73.13 -32.92 -71.19 -36.3 -69.12 -39.58 -66.97 -42.74 -64.72 -45.83 -62.35 -48.78 -59.88 -51.66 -57.32 -54.41 -54.64 -57.06 -51.87 -59.63 -49.01 -62.08 -46.01 -64.44 -42.94 -66.69 -39.75 -68.84 -36.46 -70.88 -33.07 -72.83 -29.56 -74.67 -25.97 -76.39 -22.25 -78.04 -18.44 -79.55 -14.52 -80.96 -10.49 -82.27 -6.38 -83.44 -2.15 -84.53 0 0zm1650.69 -1643.69l0 129 0 0 -78.36 1.97 -77.28 5.85 -76.15 9.64 -74.92 13.32 -73.58 16.91 -72.17 20.41 -70.66 23.81 -69.08 27.11 -67.37 30.34 -65.59 33.44 -63.7 36.48 -61.73 39.4 -59.66 42.23 -57.47 44.98 -55.22 47.63 -52.84 50.15 -50.38 52.63 -47.83 54.97 -45.17 57.24 -42.41 59.38 -39.58 61.46 -36.62 63.43 -33.59 65.3 -30.46 67.07 -27.23 68.76 -23.91 70.36 -20.49 71.85 -16.98 73.25 -13.38 74.57 -9.67 75.8 -5.88 76.95 -1.97 78 -129.36 0 2.15 -84.52 6.38 -83.45 10.49 -82.26 14.52 -80.97 18.44 -79.55 22.25 -78.03 25.97 -76.4 29.57 -74.66 33.06 -72.83 36.45 -70.88 39.76 -68.85 42.94 -66.68 46.01 -64.44 49.01 -62.08 51.87 -59.63 54.64 -57.07 57.32 -54.41 59.88 -51.65 62.35 -48.78 64.72 -45.83 66.97 -42.74 69.12 -39.58 71.19 -36.3 73.13 -32.92 74.98 -29.43 76.72 -25.85 78.35 -22.15 79.88 -18.37 81.3 -14.44 82.59 -10.46 83.8 -6.35 84.88 -2.13 0 0z"/>
   </g>
   <path class="fil5" d="M2598.49 1528.23c73.92,-13.39 134.23,-99.46 201.15,-47.14 56.55,44.22 43.28,137.91 11.11,213.12 -102.17,238.86 -198.5,9.39 -212.26,-165.98zm-458.66 693.3c5.08,-38.11 6.25,-49.06 28.96,-76.85 15.28,12.93 -3.21,5.93 26.55,4.1 -13.06,45.88 -20.85,53.91 -55.51,72.75zm907.33 -476.21l28.16 -26.33c72.04,-95.31 7.26,-170.73 130.06,-194.59 36.59,-53.6 84.57,-52.66 88.36,-52.75l8.23 0.1c56.22,-9.67 -19.69,-10.11 16.85,-9.47 19.16,24.07 29.4,16.84 45.26,58.46 1.25,3.27 4.28,13.43 4.87,16.77 0.44,2.48 0.88,5.91 1.05,8.36 1.98,29.27 -16.08,48.95 -33.67,81.21 -32.89,60.36 -53.67,114.46 -102.36,155.39 -14.98,54.64 -179.99,241.39 -221,270.24l11.84 -138.41c-20.48,32.13 -22.44,77.85 -26.2,116.37 -8.05,82.59 -30.26,286.51 -18.93,348.86 100.31,-73.98 159.92,-116.55 236.8,-223.61 190.15,-264.84 131.59,-404.57 155.97,-545.51 9.09,-52.6 29.4,-38.37 21.49,-85.75 -9.09,-54.47 -12.87,-30.71 -45.94,-68.98 -35.45,-41.03 -48.28,-113.75 -75.84,-162.57 -30.42,-53.88 -69.05,-91.94 -85.61,-135.56l-92.47 -100.74c-31.76,-6.31 -125.81,-83.17 -181.66,-109.35 -36.42,-17.07 -76.96,-28.99 -99.68,-48.2 -37.48,-31.71 -24.7,-33.65 -71.9,-61.94l-17.19 2.92c-24.15,-34.45 -64.7,-56.88 -102.3,-76.85l-47.9 -28.15c-35.79,-22.18 -121.92,-55.4 -171.96,-60.15l-51.82 1.84 14.54 45.63c2,1.71 4.94,1.98 5.7,5.47l81.16 91.59c8.01,20.14 12.82,24.64 23.07,46.89 -131.98,16 -217.51,43.05 -321.56,100.4 -45.86,25.27 -91.07,56.76 -129.47,87 -56.61,44.57 -40.19,54.35 -135.1,65.66 -20.33,14.27 2.54,2.51 -26.36,11.68 -8.98,2.85 -29.05,6.79 -36.81,8.45 -30.15,6.47 -44.2,10.6 -74.61,19.61l-45.64 31.31 7.58 22.55 62.5 36.54 62.29 16.9 -18.07 53.4 -66.28 -15.06c-50.24,-2.73 -58.46,-12.39 -59.26,41.38 -0.33,21.85 11.98,68.23 16.38,92.03 1.22,77.13 21.03,146.81 15.33,240.09 -19.4,317.61 165.62,456.82 236.8,583.97 36.13,25.45 109.63,99.68 160.49,109.83 12.73,-60.21 119.99,-292.16 148.47,-329.74 -52.16,-72.92 -110.19,-134.4 -160.62,-213.04 -65.03,-101.39 -99.97,-229.62 -133.57,-254.98 65.55,-135.54 39.43,-44.21 81.04,-100.78 69.49,33.02 -54.81,-34.82 17.37,15.09 4.11,2.84 76.89,18.39 161.68,88.73 38.04,31.55 25.86,59.8 45.81,113.58 12.19,32.87 35.78,87.48 67.39,100.43 19.73,37.4 62.34,83.69 110.14,85.3 -93.32,-65.8 -51.12,-73.4 -110.14,-85.3 -14.69,-43.29 -40.36,-60.31 -55.99,-122.89l8.64 2.7c15.71,-58.56 19.37,-114.64 90.24,-100.91 63.44,12.3 59.56,73.14 39.89,131.8 -47.62,10.3 -64.5,8.92 -111.86,1.74 1.28,1.4 10.12,29.56 63.86,27.74 61.43,-2.09 47.99,-29.46 48,-29.48 14.58,-2.89 21.94,14.39 32.8,-36.77 28.45,-134.06 -176.52,-177.22 -171.57,3.18 -38.7,-94.9 -25.48,-226.75 -14.09,-335.84l56.31 -22.01c-277.45,-21.9 -405.09,44.73 -448.53,-168.89 83.19,-20.02 179.56,-23.4 268.82,-18.27 78.62,4.51 198.24,40.56 247.19,39.42l-51.64 -25.65c216.67,-109.72 267.5,-113.52 525.96,-73.85 -101.4,-72.99 -152.66,10.21 -263.31,-91.06 -86.51,-79.17 -122.21,-66.13 -111.06,-239.54 85.18,1.81 154.74,78.96 220.07,107.28 21.19,27.04 34.32,27.06 65.77,59.55 184.41,190.58 107.11,143.71 153.91,209.48 40.79,57.31 63.74,53.62 90.16,149.18 17.5,63.3 38.68,134.21 52.35,197.36 -83.43,29.93 -68.78,104.25 -43.97,183.13 18.32,-27.7 5.02,9.57 6.39,-23.59 0.89,-21.5 -11.87,-37.51 -9.76,-71.26 2.69,-42.88 18.13,-61.02 52.94,-70.26 47.6,126.82 -9.23,161.71 -11.96,181.71l-0.02 16.43c-6.15,30.75 -22.7,38.16 -32.3,73.35 -22.85,8.76 -10.58,0.34 -30.16,17.8l-152.1 128.3c47.05,-6.7 76.62,-32.55 107.16,-58.8 31.44,-27.01 60.01,-39.12 75.1,-87.3zm-870 263.05c40.53,-54.59 22.8,-32.48 43.01,0l-17.15 6.06c-28.4,-1.43 -20.2,-3.85 -25.86,-6.06zm-30.93 22.76l96.39 7.02 -27.93 86.31c-97.79,-22.3 48.98,-35.06 -183.85,-19.22l82.97 -235.54 34.34 35.73c14.97,17.86 20.3,27.49 34.04,46.06 -15,43.99 -27.04,38.2 -35.96,79.64zm-31.32 -570.69c37.14,8.26 45.69,17.96 78,35.69 56.1,30.78 56.77,10.74 62.23,70.74 -31.47,-13.21 -9.08,-1.26 -42.92,-22.43 -77.54,-48.51 -85.39,-39.88 -97.31,-84zm-292 -106.7c70.75,-0.51 250.87,64 292,106.7 -31.62,3.72 -82.53,-12.35 -132.42,55.04 -11.22,15.16 -4.06,14.25 -21.9,37.82 15.28,49.74 -1.54,3.74 16.04,21.19 18.95,72.91 64.52,134.11 82.29,199.75l-207.35 -45.69c-84.8,-19.72 -75.87,6.54 -106.61,-160.08 -15.17,-82.2 -25.03,-159.22 -30.92,-246.59 38.76,5.32 85.66,8.94 108.87,31.86zm901 28.91c9.67,12.82 -11.15,15.19 16.83,16.6 44.62,2.25 11.54,-1.91 21.74,-16.6 -30.12,-14.72 -3.29,-14.33 -38.57,0zm-224.42 -15.39c-9.78,31.53 -2.45,6.48 -22.41,17.61 -62.98,-37.61 -13.32,-51.2 -13.29,-54.56l27.46 2.36c4.98,8.46 25.19,-20.08 8.24,34.59zm-59.53 94.46l61.41 0.29c131.73,-145.35 -86.9,-208.91 -103.99,-89.36 -7.15,49.99 17.48,64.32 42.58,89.07zm505.95 -144.02c-77.44,18.02 -73.01,-57.65 -4.61,-43.89l4.61 43.89zm24.85 -72.4l-74.54 -0.96c-82.24,111.13 -0.86,155.92 46.35,150.7 36.39,-4.03 59.08,-31.55 64.43,-61.77 8.68,-49.05 -13.94,-58.33 -36.24,-87.97zm-389.13 280.94c2.16,222.83 175.78,524.04 287.92,8.97 14.11,-64.8 10.84,-19.61 42.46,-73.38 -120.24,48.3 -101.82,-36.78 -186.33,-13.27 -92.13,25.62 -62.65,81.91 -192.63,45.42 15.07,20.06 0.52,19.85 48.58,32.26z"/>
   <path class="fil6" d="M1966.6 2560.64c59.35,0 107.46,48.11 107.46,107.46 0,59.34 -48.11,107.45 -107.46,107.45 -59.34,0 -107.45,-48.11 -107.45,-107.45 0,-59.35 48.11,-107.46 107.45,-107.46zm-661.28 -1140.73l83.78 4.91 -5.73 -58.23c-19.83,-35.27 -9.81,-35.22 -66.68,-31.14 -14.56,36.68 -24.52,39.48 -11.37,84.46zm796.33 -784.9l43.23 -15.78c-12.7,-27.2 -43.55,-58.98 -62.08,-76.18 0.88,14.18 1.18,34.94 3.45,48.62l15.4 43.34zm-161.12 1836.17c289.7,-3.37 285.07,319.29 117.25,372.18 -5.43,3.15 -3.35,5.58 -21.05,10.7 -14.11,4.08 -23.26,5.18 -38.05,5.8 -28.71,1.22 -47.1,-0.97 -71.31,-8.58 -196.34,-44.65 -217.03,-319.79 13.16,-380.1zm395.86 287.85c33.63,17.91 81.43,23.7 125.43,28.33l-0.31 80.6 -142.64 -15.79 -31.21 115.83 -112.55 -19.81c2.6,-47.57 66.91,-326.62 85.81,-355.75l252.61 43.04 -7.54 84.57 -160.99 -17.68 -8.61 56.66zm350.14 -52.69l2.7 55.25 142.26 -8.08 9.7 84.56 -135.92 22.49 3.33 125.68 -123.06 10.58 -26.15 -362.44 258.69 -42.97 26.09 94.31 -157.64 20.62zm390.74 71.13c62.52,-1.54 99.35,-41.92 162.07,-53.62l34.81 56.98c-44.49,44.64 -148.34,86.88 -215.36,106.09l-50.7 20.56 -132.18 -331.66 229.64 -112.28 31.64 56.8c-27.03,22.67 -48.7,30 -80.22,45.15 -46.85,22.52 -60.04,16.21 -38.2,75.51 43.83,12.22 92.37,-22.73 132.74,-40.02l30.07 60.71 -118.31 52.03 14 63.75zm-1375.11 -132.18c-176.36,5.81 -281.86,-201.55 -158.69,-330.13 110.46,-115.31 311.06,-36.19 337.63,110.67l-63.88 26.92c-27.2,-40.89 -32.8,-72.53 -85.92,-85.92 -45.78,-11.54 -85.1,12.52 -106.88,41.15 -39.39,51.79 -25.49,127.24 43.85,157.99l58.78 23.59 -24.89 55.73zm1447.8 -214.59c58.66,-39.06 132.87,-118.95 182.38,-171.59l54.39 45.07c-23.32,50.33 -72.2,66.28 -104.91,113.76l28.6 43.71c66.43,-27.62 61.89,-64.52 123.5,-78.23l31.38 45.9c-21.71,28.43 -67.3,59.74 -91.14,91.02 14.35,28.03 21.58,30.15 37.78,52.27l137.99 -100.49c11.02,19.61 30.32,36.8 40.63,47.66 -31.51,41.47 -162.51,164.45 -214.7,193.96 -32.09,-22.84 -206.74,-240.39 -225.9,-283.04zm695.2 -400.68c-52.33,224.84 -350.16,209.97 -390.31,-0.32 222.27,0.72 95.98,46.83 194.12,48.11 105.28,1.38 -35.93,-41.77 196.19,-47.79zm-169.24 4.61c-17.63,16.77 -48.02,11.13 -59.64,-8.05 -27.06,-44.63 16.02,-46.62 17.03,-47.4 39.55,-30.5 74.44,25.17 42.61,55.45zm-2317.61 -15.5c2.48,1.71 5.5,4.36 7.06,5.61l27.3 21.9c78.11,44.67 109.03,-29.35 117.37,-32.77l112.59 -0.2c5.86,149.98 -241.9,202.19 -266.19,135.78 -42.26,-5.13 -57.86,-25.15 -81.02,-54.21 -24.05,-30.18 -27.85,-45.11 -33.81,-83.35l116.7 7.24zm37.73 -7.95c-1.68,-53.86 14.61,-80.57 69.27,-48.31 28.88,69.11 -28.58,72.78 -69.27,48.31zm2055.11 -33.64c42.81,-239.97 359.1,-243.11 395.58,-1.26 -204.7,10.2 -100.44,-48.58 -197.67,-47.35 -87.66,1.1 8.77,54.46 -197.91,48.61zm-2077.57 -50.3c-0.92,3.85 -3.38,13.06 -4.56,18.11l-128.4 13.05c2.87,-80.15 50,-138.5 109.14,-153.21 7.61,-5.98 6.97,-7.69 21.45,-14.34 10.37,-4.76 14.27,-6.13 26.61,-8.53 82.54,-16.09 165.81,19.72 208.01,96.22 21.56,39.09 25.13,37.9 22.24,78.87l-118.03 -1.53c-43.37,-54.53 -68.62,-52.96 -136.46,-28.64zm-90.13 -698c21.51,-21.62 -22.4,-1.65 28.77,-20.69 13.41,-4.99 23.88,-4.88 37.71,-4.27 23.9,1.07 39.86,7.97 61.81,15.14 83.65,50.4 72.6,105.34 79.21,216.5l126.59 15.19 -7.06 116.16c-61.72,5.94 -309.06,-4.39 -345.82,-30.51l-61.79 -0.16c-15.34,-32.22 -22.66,-290.01 80.58,-307.36zm2342.7 339.21c41.26,-49.78 -0.75,-94.53 35.28,-161.95 48.19,-90.16 260.85,-90.51 227.8,218.18l-73.1 -3.19c8.19,-63.61 23.68,-146.42 -45.64,-154.92 -53.79,64.2 0.1,103.81 -37.52,169.23 -26.09,45.36 -82.96,72.45 -145.14,46.87 -93.52,-38.47 -107.82,-175.6 -81.87,-283.72l80.1 4.33c-11.31,59.43 -42.39,155.82 40.09,165.17zm-29.05 -479.25c-1.58,30.27 -11.02,5.99 17.21,19.84l108.41 16.94c43.27,14.54 55.16,71.21 70.61,116.19l-189.93 -20.62c-62.51,73.37 -102.95,171.68 -139.81,196.22 -78.44,-162.67 -47.86,-113.73 32.88,-257.2l-19.65 0.14 -100.96 67.16c-2.24,-1.99 -5.09,-4.83 -6.43,-6.31l-11.89 -13c-1.58,-1.98 -3.6,-4.75 -5.16,-6.84 -7.32,-9.86 -7.17,-11.87 -13.48,-21.17 -15.08,-22.23 -7.62,-14.79 -29.32,-35.4 25.33,-38.65 75.35,-68.27 119.24,-92.82l68.58 -53.25c43.32,-20.74 70.85,-51.45 117.38,-72.1 2.09,1.79 4.99,4.26 6.2,5.44 1.22,1.16 4.63,4.05 6.09,5.52 1.46,1.46 4.24,4.08 5.81,5.74l52.56 78.3 -88.34 67.22zm-272.59 -8.14c-84.95,-11.06 -152.11,-57.64 -180.4,-127.2 -33.55,-82.47 2.2,-181.8 46.88,-222.41 131.12,-119.15 334.44,-4.03 345.88,150.08 -39.37,16.2 -32.69,19.18 -78.23,30.86 -13.69,-102.22 -104.73,-157.27 -180.89,-82.82 -108.3,105.86 41.26,170.49 75.98,189.01l-29.22 62.48zm-1489.95 -216.12c55.78,-1.95 112.06,17.31 164.82,28.14 -18.94,40.93 -53.36,68.89 -92.06,98.49l-112.91 -31.8c-60.97,-2.04 -25.88,-8.9 -51.64,13.31 11.91,42.86 7.45,25.51 40.75,56.47 35.56,33.07 17.75,4.37 38.52,45.92 -22.48,35.83 -44.5,48.75 -71.81,83.84 -36.49,-25.64 -256.38,-248.29 -275.98,-279.37l81.3 -73.68c29.48,30.41 51.68,56.19 93.85,81.54 -4.74,-47.45 -32.9,-127.05 -14.83,-165.77 1,-2.14 58.63,-81.45 97.61,-85.63l17.35 201.11c35.89,7.67 62.78,6.79 85.03,27.43zm738.89 -129.7l47.9 28.15c37.6,19.97 78.15,42.4 102.3,76.85l17.19 -2.92c38.66,-20.58 207.96,66.52 249.04,89.25 67.31,37.23 158.04,112.49 193.94,157.33 20.9,-1.73 14.12,-6.08 18.17,15.82 9.72,23.36 57.53,75.63 77.7,105.75 205.54,306.92 178.63,732.28 -43.64,1004.46 -273.57,335.01 -706.22,455.74 -1088.05,257.82 -60.54,-25.04 -163.79,-92.12 -190.91,-130.46 -58.43,-40.26 -109.85,-110.41 -149.49,-171.15 -41.66,-63.82 -75.17,-127.07 -101.06,-205.42 -41.01,-124.12 -70.64,-444.29 3.19,-522.36 -4.4,-23.8 -16.71,-70.18 -16.38,-92.03 0.8,-53.77 9.02,-44.11 59.26,-41.38l22.06 -55.24 -62.5 -36.54c-20.6,24.67 -32.15,46.49 -54.23,77.77 -72.98,-9.75 -200.94,-143.1 -324.34,-196.73 16.17,-40.29 42.02,-79 65.6,-104.16 91.18,48.75 240.21,169.32 305.39,200.57l45.64 -31.31c30.41,-9.01 44.46,-13.14 74.61,-19.61 7.76,-1.66 27.83,-5.6 36.81,-8.45 28.9,-9.17 6.03,2.59 26.36,-11.68 -9.12,-14.28 -10.17,-1.77 5.08,-24.49 28.83,-43 173.92,-147.15 216.09,-171.07 81.74,-46.35 229.45,-107.43 341.89,-104.39l-81.16 -91.59c-0.76,-3.49 -3.7,-3.76 -5.7,-5.47 -31.02,20.18 -72.5,36.34 -115.33,35.76l-39.09 -61.55c-39.78,5.74 -63.73,13.81 -96.72,37.42l2.32 93.64 -110.4 35.72 -27.4 -401.46c53.22,-16.58 89.92,-42.5 149.6,-49.84 21.35,40.97 77.32,102.53 110.98,140.09 44.03,49.14 71.75,82 111.5,124.59l51.82 -1.84 -25.73 -20.57 1.62 -296.27c79.51,-9.16 199.91,-8.77 270.82,12.63 107.41,32.42 67.46,105.42 29.87,169.87 93.74,130.02 34.87,206.55 -104.62,194.49zm480.6 -141.34l39.92 -95.88 103.5 54.11c-7.27,42.23 -22.18,64.12 -39.77,100.64 -6.84,14.22 -14.47,34.88 -21.09,47.05 -11.27,20.74 0.17,2.03 -14.56,22.07l-12.83 13.22c-18.74,152.38 -209.41,132.58 -307.69,38.86 -100.3,-95.65 19.44,-256.59 49.26,-362.62 47.91,6.33 85.41,26.06 124.41,40.8 -67.1,187.01 -163.37,295.74 -5.15,294.08l84 -152.33zm-1549.29 112.09l-135.55 172.4c-9.34,11.11 -10.05,10.76 -18.91,19.02 -23.5,54.45 -63.58,110.83 -93.9,174.76 -30.6,64.51 -51.92,117.13 -74.33,187.36 -221.28,693.45 110.98,1405.7 759.04,1716.41 1268.1,608.02 2591,-897.27 1760.41,-2100.55 -94.63,-137.09 -173.07,-195.53 -287.04,-306.13 -1.87,-2.02 -4.31,-4.93 -6,-6.82l-12.08 -14.52c-17.69,-4.51 -6.95,-0.32 -27.69,-11.96 -0.19,-0.1 -17.85,-11.78 -19.99,-13.23 -236.91,-160.85 -506.19,-256 -803.39,-257.81 -177.54,-1.07 -332.2,33.16 -486.21,85.8 -180.34,61.64 -425.67,208.91 -554.36,355.27zm992.8 -273.73l-5.97 83.72 58.3 -5c35.51,-19.38 35.33,-9.35 31.98,-66.27 -36.49,-15.03 -39.17,-25.03 -84.31,-12.45zm-4.23 143.4l-5.97 83.72 58.3 -4.99c35.51,-19.39 35.33,-9.36 31.98,-66.28 -36.49,-15.03 -39.17,-25.03 -84.31,-12.45z"/>
  </g>
 </g>
</svg>
