<?xml version="1.0" encoding="UTF-8"?>
<!DOCTYPE svg PUBLIC "-//W3C//DTD SVG 1.1//EN" "http://www.w3.org/Graphics/SVG/1.1/DTD/svg11.dtd">
<!-- Creator: CorelDRAW 2017 -->
<svg xmlns="http://www.w3.org/2000/svg" xml:space="preserve" width="50.7998mm" height="33.8666mm" version="1.1" style="shape-rendering:geometricPrecision; text-rendering:geometricPrecision; image-rendering:optimizeQuality; fill-rule:evenodd; clip-rule:evenodd"
viewBox="0 0 5079.98 3386.66"
 xmlns:xlink="http://www.w3.org/1999/xlink">
 <defs>
  <style type="text/css">
   <![CDATA[
    .str1 {stroke:black;stroke-width:68.21;stroke-linecap:round;stroke-miterlimit:22.9256}
    .str0 {stroke:#292929;stroke-width:102.31;stroke-linecap:round;stroke-miterlimit:22.9256}
    .fil0 {fill:none}
    .fil7 {fill:#FEFEFE}
    .fil8 {fill:#ED3238}
    .fil10 {fill:#B4B4B4}
    .fil9 {fill:#555559}
    .fil1 {fill:#292929}
    .fil2 {fill:black}
    .fil6 {fill:#DE1818}
    .fil5 {fill:#DEDEDE}
    .fil4 {fill:#FD1B1B}
    .fil3 {fill:#FEFEFE}
   ]]>
  </style>
 </defs>
 <g id="Capa_x0020_1">
  <metadata id="CorelCorpID_0Corel-Layer"/>
  <rect class="fil0" x="-0" width="5079.99" height="3386.66"/>
  <g id="_2060418437808">
   <g>
    <path class="fil0 str0" d="M190.97 1940.72l0 0.77c0.08,15.86 2.74,16.62 5.29,30.64l41.87 158.3c25.36,63.36 60.4,126.92 104.48,179.12l16.15 20.55c42.43,50.31 93.18,92.85 147.66,129.25 49.48,33.06 103.81,60.31 160.29,79.92l33.43 9.95c0.85,0.24 1.72,0.51 2.56,0.76 62.86,18.97 109.64,23.66 164.68,24.64l97.61 0 0.81 0c16.69,-0.07 19.25,-2.06 34.42,-4.81 14.28,-2.59 21.7,-2.21 34.45,-5.59l64.39 -15.68c3.33,-0.88 4.54,-0.87 8.14,-1.87l15.02 -5c80.28,-26.23 157.12,-67.91 221.84,-121.79 38.5,-32.05 74.8,-68.37 106.76,-106.76l58.05 -82.08c5.25,-8.17 9.06,-16.55 13.84,-26.2 18.16,-36.63 36.88,-73.72 49.91,-113.57l1.65 -5.02c0.27,-0.8 0.62,-1.65 0.88,-2.46 2.9,-8.71 -0.07,1.6 2.47,-7.54l3.31 -13.36c0.25,-0.84 0.6,-1.67 0.85,-2.49l8.76 -31.28c9.43,-38.2 15.02,-78.49 15.02,-118.43 0,-15.44 -26.63,-10.07 -43.37,-10.01l-397.02 0c-1.89,22.72 -18.58,70.11 -28.36,88.42l-31.63 48.44c-0.44,0.53 -1.07,1.29 -1.52,1.81 -33.27,39.47 -76.83,67.89 -126.1,84.09 -10.94,3.6 -12.06,2.85 -24.35,5.68 -40.21,9.27 -95.34,9.07 -134.67,-5.25 -0.76,-0.28 -1.6,-0.69 -2.36,-0.97l-7.26 -2.75c-4.14,-1.5 -6.47,-2.08 -12.21,-4.47 -9.14,-3.81 -11.43,-5.12 -20.22,-9.81 -14.23,-7.6 -24.14,-14.06 -37.08,-22.98l-13.18 -10.17c-40.53,-34.17 -70.9,-79.37 -85.78,-131.08 -3.47,-12.05 -3.39,-40.96 -19.1,-40.96l-430.38 0 0 40.04z"/>
   </g>
   <g>
    <path class="fil0 str1" d="M204.32 1790.58l427.04 0c16.91,0 25.18,-66.22 87.7,-122.48 18.53,-16.67 39.43,-30.15 61.82,-41.61l32.92 -13.79c0.76,-0.29 1.61,-0.66 2.38,-0.95 37.23,-14.03 78.6,-11.33 118.79,-11.33l40.62 9.42c31.28,10.38 61.26,26.17 87.38,46.07 19.52,14.88 37.01,32.44 50.87,52.56l29.65 50.41c5.53,11.95 8.4,31.7 21.68,31.7l427.05 0c21.55,0 2.13,-62 -0.14,-76.59l-32.72 -107.41 -38.87 -81.24c-16.99,-34.38 -39.38,-67.01 -63.5,-96.63 -58.72,-72.09 -132.13,-142.04 -216.76,-183.61 -34.18,-16.78 -67.14,-33.56 -103.15,-46.97l-69.45 -20.64c-10.71,-3.06 -2.16,-1.83 -16.03,-3.99 -10.71,-1.66 -8.83,-0.93 -16.93,-3.08 -19.1,-5.07 -47.39,-8.54 -79.04,-10.4l-114.72 0c-31.65,1.86 -59.94,5.33 -79.05,10.4l-124.34 35.8c-25.57,10.14 -47.28,18.51 -70.82,32.61l-10.46 6.21c-81.44,44.48 -154.65,105.34 -212.1,178.25l-22.05 27.99c-40.96,49.87 -80.52,138.83 -100.71,199.57l-25.89 114.62c-2.41,11.24 -7.07,25.11 8.83,25.11z"/>
    <path id="1" class="fil1" d="M204.32 1790.58l427.04 0c16.91,0 25.18,-66.22 87.7,-122.48 18.53,-16.67 39.43,-30.15 61.82,-41.61l32.92 -13.79c0.76,-0.29 1.61,-0.66 2.38,-0.95 37.23,-14.03 78.6,-11.33 118.79,-11.33l40.62 9.42c31.28,10.38 61.26,26.17 87.38,46.07 19.52,14.88 37.01,32.44 50.87,52.56l29.65 50.41c5.53,11.95 8.4,31.7 21.68,31.7l427.05 0c21.55,0 2.13,-62 -0.14,-76.59l-32.72 -107.41 -38.87 -81.24c-16.99,-34.38 -39.38,-67.01 -63.5,-96.63 -58.72,-72.09 -132.13,-142.04 -216.76,-183.61 -34.18,-16.78 -67.14,-33.56 -103.15,-46.97l-69.45 -20.64c-10.71,-3.06 -2.16,-1.83 -16.03,-3.99 -10.71,-1.66 -8.83,-0.93 -16.93,-3.08 -19.1,-5.07 -47.39,-8.54 -79.04,-10.4l-114.72 0c-31.65,1.86 -59.94,5.33 -79.05,10.4l-124.34 35.8c-25.57,10.14 -47.28,18.51 -70.82,32.61l-10.46 6.21c-81.44,44.48 -154.65,105.34 -212.1,178.25l-22.05 27.99c-40.96,49.87 -80.52,138.83 -100.71,199.57l-25.89 114.62c-2.41,11.24 -7.07,25.11 8.83,25.11z"/>
   </g>
   <path class="fil1" d="M884.92 1703.84c-15.56,3.75 -18.39,-4.48 -50.59,9.47l-71.16 55.62c-4.53,5.64 -5.27,7.05 -7.92,12.09 -5.26,9.98 -9.91,19.18 -13.8,29.57 -39.95,106.98 43.91,234.09 170.63,220.83 24.43,-2.56 10.33,3.39 35.02,-5.17l30.57 -12.79c27.43,-15.35 47.26,-33.74 63.09,-60.36 12.13,-20.39 19.67,-39.19 21.19,-62.24 1.53,-23.14 3.25,-51.22 -4.23,-72.9l-20.05 -43.33 -41.01 -42.4 -41.67 -21.72c-9.32,-3.48 -47.91,-11.33 -59.8,-9.95 -20.29,2.34 7.91,-2.31 -5.43,1.24 -0.74,0.19 -1.89,0.78 -2.47,0.97 -0.56,0.18 -1.53,0.87 -2.37,1.07z"/>
   <g>
    <path class="fil2" d="M1878.57 1847.32c0.08,185.36 52.56,347.89 166.08,482.19 139.23,164.72 328.65,255.54 529.29,262.89l52.95 0c94.37,-3.43 190.43,-25.18 284.24,-66.28 78.48,-34.39 145.63,-91.36 207.85,-145.52 8.99,-7.82 13.37,-12.76 20.98,-22.59 35.47,-45.83 58.36,-68.87 91.99,-125.84 64.71,-109.66 96.52,-231.26 98.83,-352.25l0 -30.3c-5.36,-248.85 -134.91,-490.7 -359.7,-615.97 -108.99,-60.74 -216.19,-92.73 -324.51,-98.3l-69.12 0c-91.05,4.63 -183.31,27.41 -278.51,67 -32.29,13.43 -81.54,43.22 -110.55,63.71 -106.04,74.87 -185.14,174.69 -242.12,290.36 -34.82,70.68 -67.62,184.56 -67.7,290.15l0 0.75z"/>
    <path class="fil3" d="M2667.63 2495.27c1.24,-0.87 2.88,-1.76 3.93,-2.32 24.77,-13.01 13.02,-3.96 44.04,-17.18 15.75,-6.72 28.23,-12.88 42.23,-20.7 188.45,-105.22 287.62,-319.82 311.55,-540.39l-205.6 0c-24.12,76.95 -39.73,104 -87.8,147.12 -152.98,137.2 -407.88,46.07 -436.5,-154.25l-368.41 1.35c8.27,102.76 32.55,172.86 72.75,251.93 33.64,66.15 96.96,146.98 143.14,181.25 69.51,51.58 106.21,86.6 204.05,120.44 78.05,27 187.42,47.18 276.62,32.75z"/>
    <path class="fil4" d="M3066.28 1814.09c-10.03,-207.3 -74.01,-376.33 -223.62,-495.63 -67.1,-53.51 -112.89,-58.1 -155.26,-77.45 -1.21,-0.55 -2.84,-1.58 -3.82,-2.07 -1.02,-0.5 -2.7,-1.35 -3.89,-2.26 -138,-13.49 -272.92,10.03 -388.59,78.69 -158.02,93.8 -300.97,265.27 -316.68,494.53l364.02 0c16.78,-117.54 132.21,-217.63 266.28,-217.03 98.11,0.44 183.22,57.85 227.77,132.66 18.08,30.36 19.61,58.33 33.58,86.22l200.21 2.34z"/>
    <path class="fil3" d="M2563.9 1684.34c-232.59,55.02 -156.34,396.91 71.45,352.52 86.86,-16.93 164.58,-102.29 141.89,-212.62 -17.84,-86.77 -104.13,-165.73 -213.34,-139.9z"/>
    <path class="fil5" d="M2667.63 2495.27c78.89,-4.36 163.96,-32.77 225.13,-64.83 127.41,-66.77 224.77,-163.98 286.99,-294.12 21.97,-45.97 66.52,-169.24 56.86,-229.11l-351.17 -1.47c-26.46,0.66 -14.13,-1.92 -21.66,8.94l205.6 0c-23.93,220.57 -123.1,435.17 -311.55,540.39 -14,7.82 -26.48,13.98 -42.23,20.7 -31.02,13.22 -19.27,4.17 -44.04,17.18 -1.05,0.56 -2.69,1.45 -3.93,2.32z"/>
    <path class="fil6" d="M3066.28 1814.09l165.5 0.65c-12.26,-289.96 -265.44,-554.97 -552.09,-578.06 1.19,0.91 2.87,1.76 3.89,2.26 0.98,0.49 2.61,1.52 3.82,2.07 42.37,19.35 88.16,23.94 155.26,77.45 149.61,119.3 213.59,288.33 223.62,495.63z"/>
    <path class="fil2" d="M2587.85 1769.08c-132.8,33.26 -74.72,215.4 44.3,182.88 118.65,-32.42 68.38,-211.1 -44.3,-182.88z"/>
   </g>
   <g>
    <path class="fil1" d="M3603.99 1804.65c0,134.44 44.49,284.82 116.27,387.51 47.38,67.77 80.73,101.72 139.87,153.72 92.94,81.71 271.98,152.72 401.11,152.72 77.65,0 135.02,0.81 212.17,-21.37 41.27,-11.86 83.91,-26.4 119.26,-44.22 46.56,-23.47 60.44,-32.02 102.99,-60.49 162.99,-109.03 289.56,-331.57 289.56,-527.84 0,-120.89 -1.56,-157.63 -41.32,-272.29 -57.55,-165.96 -194.39,-313.44 -353.46,-387.19 -232.67,-107.89 -522.04,-80.19 -720.61,81.25l-68.17 61.94c-121.55,121.56 -197.67,303.45 -197.67,476.26z"/>
    <path class="fil7" d="M3673.51 1760.73c47,-8.46 302.75,8.96 318.93,-4.12 7.95,-6.81 13.06,-50.19 40.33,-97 15.95,-27.4 25.57,-39.07 45.49,-57.93 6.24,-5.9 10.87,-13.04 17.27,-19.36l40.55 -29.66c119.56,-79.99 253.79,-58.08 360.16,30.34 21.65,18 45.57,47.03 63.77,76.63 10.92,17.77 16.83,30.53 22.96,47.43 4.83,13.3 10.27,43.51 17.5,51.85 29.28,2.61 315.61,2.89 328.19,-0.97 3.49,-37.53 -24.67,-132.32 -37.16,-166.5 -19.22,-52.6 -40.46,-92.87 -68.09,-135.45 -29.97,-46.22 -58.67,-73.18 -93.28,-110.17 -11.77,-12.57 -92.79,-75.76 -117.67,-83.92 -43.1,-14.55 -63.41,-34.49 -143.21,-55.55 -263.95,-69.69 -544.35,39.01 -690.17,259.59 -45.6,68.98 -101.66,194.75 -105.57,294.79z"/>
    <path class="fil7" d="M3739.74 2110.11c6.31,34.89 87.9,131.06 107.97,151.42 19.03,19.3 44.9,41.14 70.48,59.64 206.06,148.97 476.55,168.47 703.51,34.12 25.59,-15.15 57.03,-35.93 76.67,-53.4l68.66 -64.86c36.86,-36.42 82.53,-111.81 104.31,-159.23 31.43,-68.43 45.33,-127.06 58.27,-206.81l-322.79 0.22c-28.2,110.17 -74.36,166.56 -153.88,215.2 -35.98,22.02 -91.17,40.21 -141.64,41.07 -35.01,0.6 -123.15,-15.34 -143.85,-41.27 -35.11,-11.57 -85.84,-61.3 -106.08,-85.02 -30.85,-36.13 -48.14,-74.41 -63.53,-129.26l-325.51 -0.9c0.22,38.74 15.32,95.66 25.41,130.2 17.27,59.15 30.97,75.71 42,108.88z"/>
    <path class="fil8" d="M4126.33 1244.15c26.37,11.66 76.32,7.78 101.7,23.12 -51.17,14.9 -212.92,34.58 -247.1,50.28 2.52,2.08 1.11,1.62 6.87,3.85 12.7,4.94 125.04,20.22 142.11,29.06 -13.96,6.97 -152.97,31.73 -187.85,38.52l-61.51 15.32c32.49,14.76 143.99,21.2 166.3,33.36 -19.99,12.25 -197.75,40.29 -238.5,50.76 27.04,15.83 145.32,21.58 174.5,39.32l-219.11 42.49c9.09,8.54 69.11,16.78 82.23,19.38 20.97,4.16 71.18,9.71 84.67,17.86 -38.95,13.43 -183.52,31.99 -204.87,47.05 23.31,12.72 124.67,16.43 155.7,33.36 -25.17,15.02 -137.7,19.34 -166.8,35.6l239.63 2.09c19.61,-29.95 25.06,-105.58 118.15,-183.11 123.35,-102.73 320.12,-111.03 443.72,-2.71 39.59,34.69 105.15,108.03 118.22,185.6l249.7 0.47c-7.49,-107.86 -64.01,-207.26 -121.92,-285.27 -113.88,-153.4 -308.57,-231.38 -500.87,-223.26 -28.6,1.21 -118.85,12.76 -134.97,26.86z"/>
    <path class="fil7" d="M4123.01 1914.99c9.38,40.38 80.31,87.38 137.65,97.36 130.25,22.68 253.85,-77.08 236.45,-236.95 -6.54,-60.12 -57.27,-123.86 -97.68,-140.3 -23.02,-5.13 -35.42,-13.95 -64.13,-17.83 -66.56,-9.02 -130.95,14.25 -173.83,57.59 -72.77,73.57 -67.09,154.07 -38.46,240.13z"/>
    <path class="fil9" d="M4648.9 1940.14l140.83 26.55c3.08,0.62 8.09,1.52 10.83,2.6 8.68,3.42 4.54,1.44 8.97,5.43l-195.32 38.17c16.5,14.93 136.25,20.92 162.34,35.31l-29.29 9c-10.15,2.14 -19.58,4.31 -30.54,6.64l-183.71 36.65c44.41,16.85 158.18,24.39 188.77,41.13 -12.19,6.73 -237,46.33 -287.35,59.67 25.38,15.09 158.23,22.46 190.73,43.75 -13.36,6.3 -117.83,21.4 -143.57,26.57 -24.13,4.84 -128.59,22.21 -142.41,29.17 34.35,10.09 132.9,21.91 146.3,31.92 -44.1,11.22 -97.64,19.86 -144.29,28.55 -23.34,4.34 -49.09,9.39 -72.98,14.42 -14.38,3.03 -60.07,9.33 -70.28,19.6 255.75,37.87 488.6,-82.98 608.1,-282.71 35.58,-59.47 70.23,-140.84 78.51,-220.26 -25.39,2.3 -214.64,39.78 -235.64,47.84z"/>
    <path class="fil9" d="M4270.39 1689.58c-162.58,39.07 -103.24,278.26 55,242.71 161.59,-36.3 104.14,-280.95 -55,-242.71z"/>
    <path class="fil10" d="M3673.51 1760.73c3.91,-100.04 59.97,-225.81 105.57,-294.79 145.82,-220.58 426.22,-329.28 690.17,-259.59 79.8,21.06 100.11,41 143.21,55.55 -2.82,-3.39 -1.64,-2.44 -5.95,-5.64 -1.6,-1.19 -6.07,-3.82 -8.71,-5.22 -94.88,-50.21 -192.52,-75.82 -303.21,-75.84 -213.67,-0.05 -419.5,113.12 -527.43,282.18 -49.82,78.03 -99.96,190.37 -105.81,300.84l12.16 2.51z"/>
    <path class="fil10" d="M4167.45 2086.21c20.7,25.93 108.84,41.87 143.85,41.27 50.47,-0.86 105.66,-19.05 141.64,-41.07 79.52,-48.64 125.68,-105.03 153.88,-215.2l322.79 -0.22c0.65,-19.41 1.09,-4.37 -4.44,-10.38l-326.96 0.02c-16.63,28.07 -17.31,126.68 -147.66,210.09 -37.52,24.01 -82.94,40.76 -134.37,45.41 -64.92,5.87 -97.36,-11.33 -148.73,-29.92z"/>
    <path class="fil10" d="M4123.01 1914.99c-28.63,-86.06 -34.31,-166.56 38.46,-240.13 42.88,-43.34 107.27,-66.61 173.83,-57.59 28.71,3.88 41.11,12.7 64.13,17.83l-12.65 -9.5c-3.69,-2 -10.3,-4.71 -13.74,-6.13 -95.51,-39.3 -203.86,-0.85 -256.33,90.59 -28.82,50.23 -31.43,123.19 -10.95,176.72 1.79,4.67 3.62,9.93 5.77,14.22l11.48 13.99z"/>
    <path class="fil7" d="M4246.39 1900.1c-24.06,-29.32 -36.11,-81.05 -11.89,-122.19 23.68,-40.21 51.28,-50.96 113.27,-50.78 -30.13,-28.41 -108.38,-17.95 -138.13,35.91 -30.05,54.43 -4.49,119.22 36.75,137.06z"/>
    <path class="fil10" d="M3739.74 2110.11c-11.03,-33.17 -24.73,-49.73 -42,-108.88 -10.09,-34.54 -25.19,-91.46 -25.41,-130.2l325.51 0.9 -2.74 -10.17 -333.71 -1.12c2.57,57.39 26.91,141.93 48.78,194.84 4.14,10.03 7.26,16.95 12.42,27.62 5.31,10.98 7.12,20.37 17.15,27.01z"/>
   </g>
  </g>
 </g>
</svg>
