<?xml version="1.0" encoding="UTF-8"?>
<!DOCTYPE svg PUBLIC "-//W3C//DTD SVG 1.1//EN" "http://www.w3.org/Graphics/SVG/1.1/DTD/svg11.dtd">
<!-- Creator: CorelDRAW 2017 -->
<svg xmlns="http://www.w3.org/2000/svg" xml:space="preserve" width="50.7998mm" height="33.8666mm" version="1.1" style="shape-rendering:geometricPrecision; text-rendering:geometricPrecision; image-rendering:optimizeQuality; fill-rule:evenodd; clip-rule:evenodd"
viewBox="0 0 5079.98 3386.66"
 xmlns:xlink="http://www.w3.org/1999/xlink">
 <defs>
  <style type="text/css">
   <![CDATA[
    .fil0 {fill:none}
    .fil2 {fill:#FEFEFE}
    .fil3 {fill:#334976}
    .fil1 {fill:#00608D}
    .fil5 {fill:#284579}
    .fil6 {fill:#566A89}
    .fil4 {fill:#A7C6D5}
   ]]>
  </style>
 </defs>
 <g id="Capa_x0020_1">
  <metadata id="CorelCorpID_0Corel-Layer"/>
  <rect class="fil0" x="-0" width="5079.99" height="3386.66"/>
  <g id="_1689553256656">
   <path class="fil1" d="M1378.07 2751.75l82.15 188.55c-23.28,-18.85 -46.76,-63.99 -65.86,-93.82 -25.68,-40.09 -35.32,-57.49 -16.29,-94.73zm-97.57 96.21l72.3 -29.07 119.54 181.14 -191.84 -152.07zm-18.4 -20.47c-4.82,-27.8 -18.86,-105.4 -14.56,-126.29 42.6,3.06 66.43,51.6 93.23,97.85 -21.73,14.96 -53.01,19.42 -78.67,28.44zm387.93 57.49c-9.11,-28.04 -32.04,-227.32 -31.59,-258.2 3.89,-10.38 45.92,-28.44 56.37,-32.3 -0.4,95.15 -22.05,196.33 -24.78,290.5zm-30.52 3.47l-125.87 -303.65c20.03,0.63 30.6,6.14 48.45,16.11 18.99,10.61 28.54,13.51 48.79,20.34l28.63 267.2zm-315.1 -188.83l52.25 1.12 -7.82 83.03 -44.43 -84.15zm305.23 -154.42c18.54,-0.7 48.26,1.11 62.16,9.75l-55.75 28.17 -6.41 -37.92zm-336.94 148.01c-11.98,1.5 3.45,6.16 -14.1,0.24 -22.64,-7.65 0.01,2.78 -15.86,-11.48l25.24 -18.37 4.72 29.61zm276.45 -182.33c14.45,14.02 26.52,15.1 31.56,37.5 2.22,9.84 5.47,40.7 1.07,52.52 -25.79,-7.6 -64.13,-29.21 -89,-45.27l56.37 -44.75zm79.83 -6.89c-33.91,19.66 -39.07,20.49 -63.17,-5.22l38.84 -14.77 24.33 19.99zm104.73 310.99c-34.51,-65.83 -40.44,-71.1 -37.13,-138.88 1.49,-30.62 12.93,-108.83 -3.77,-131.3 -39.67,-53.36 -48.78,-19.53 -69.79,-106.5 -12.34,-51.12 -25.63,-100.95 -37.01,-151.79 17.15,0.66 133.07,29.69 151.59,38.98 5.45,27.37 2.17,467.84 -3.89,489.49zm-501.82 -7.33c-29.04,-29.74 -99.66,-143.39 -129.53,-187.13 -33.33,-48.81 -46.48,-49.55 -30.01,-93.6 9.26,-24.77 22.96,-65.32 41.76,-89.98l117.78 370.71zm63.73 157.1c-17.44,-8.67 -399.34,-344.01 -420.01,-369.1 17.51,-2.01 143.59,-11.52 152.67,-8.68 15.15,4.73 249.29,341.15 267.34,377.78zm469.09 -172.51c-4.99,-53.66 9.72,-322.46 10.54,-410.71 0.32,-34.35 -3.92,-47.74 17.54,-73.8 29.33,-35.62 70.51,-89.73 101.41,-117.57l-117.54 565.18c-1.55,6.65 -2.7,11.61 -4.77,18.27 -1.14,3.69 -2.45,7.22 -3.92,11.16 -0.31,0.82 -0.87,4.4 -1.6,3.73 -0.73,-0.67 -1.02,2.54 -1.66,3.74zm-879.55 -330.72l76.84 0.82 62.35 95.55 -157.55 15.3 18.36 -111.67zm895.74 -188.22c-3.35,-29.25 -1.22,-65.82 -0.48,-96.8 0.63,-25.68 -2.79,-74.48 5.14,-92.68 23.87,11.62 91.97,51.17 110.44,68.09l-115.1 121.39zm-705.22 169.86c-12.2,21.28 -28,68.59 -46.21,81.8l-51.51 -79.45 112.04 -34.89c-2.43,15.57 0.4,5.64 -6.45,19.62 -2.74,5.58 -4.62,7.25 -7.87,12.92zm500.82 -182.83c2.31,-22.9 94.22,-228.09 109.12,-257.56 8.01,5.26 45.63,50.31 53.57,60.97 20.29,27.23 5.95,227.64 2.24,238.4 -41.22,-7.23 -141.55,-41.68 -164.93,-41.81zm-629.13 110.75c15.71,4.51 22,3.19 39.19,14.41l-31.89 47.13c-13.99,0.86 -16.38,0.09 -29.11,-2.1l-26.1 -8.06 47.91 -51.38zm806.95 -309.39l-50.34 -70.49c26.39,-6.08 60.77,-12.61 82.85,-7.98 -5.36,23.57 -12.91,49.5 -32.51,78.47zm-754.22 6.73l189.43 -14.39c25.59,65.85 298.28,763.5 309.36,815.39l-498.79 -801zm373.45 -189.22l97.16 528.86c29.44,156.89 28.22,108.72 -5.25,155.06l38.65 159.37c2.31,8.45 14.11,43.19 6.25,51.34l-285.44 -734.15 148.63 -160.48zm-213.91 -63.45c21.66,-2.01 109.43,12.48 139.08,16.99 8.47,1.29 13.81,1.99 22.79,3.95l21.37 6.93 -131.95 151.53 -51.29 -179.4zm-163.95 224.74c4.96,-39.46 61.44,-195.19 61.6,-230.57 27.14,-2.45 44.55,7.43 70.21,9.57l49.71 198.97 -181.52 22.03zm152.27 -289.85c-1.2,14.24 -8.16,32.53 -10.36,48.24 -23.54,-1.24 -35.94,-6.18 -54.25,-14.56l64.61 -33.68zm116.35 892.59c-16.51,1.43 -5.53,5.13 -17.74,-8.44l-135.87 -238.51c-15.41,-14.96 -126.89,-39.95 -156.07,-42.69 -33.76,-3.17 -43.01,27.62 -59.42,51.66 -21.44,31.4 -20.88,37.26 -27.77,73.26 -22.05,115.19 -36.01,86.66 24.28,151.3l300.33 319.12c37.69,39.86 20.9,32.72 71.23,41.54 26.44,4.63 59.89,13.59 87.24,12.26 -3.6,-19.39 -4.39,-39.3 -0.2,-55.39 79.94,43.28 50.62,94.01 141.03,68.58 3.28,-26.26 9.21,-56.4 -6.58,-87.56 60.45,-7.98 37.35,20.08 92.02,-24.29 21.72,7.08 36,24.51 58.63,33.76 16.44,-12.6 35.55,-28.85 50.56,-42.55 27.28,-24.89 10.63,-22.95 13.06,-59.23 13.34,4.65 39.6,13.71 55.98,17.33 20.27,-24.92 77.23,-113.87 82.39,-148.76l42.6 -285.99c11.56,-77.45 22.06,-152.63 33.95,-228.91 9.5,-60.95 -5.81,-60.63 -41.47,-115.66 -24.7,-38.12 -47.67,-74.58 -73.61,-112.6 -175.49,26.98 -84.82,-30.43 -229.68,265.29 -23.71,48.4 -4.92,85.87 9.45,174.58 2.62,16.21 5.78,29.55 8.19,44.97 4.39,28.21 1.11,22.86 -24.94,35.47 -46.03,-158.42 -86.78,-321.42 -128.95,-479.73 -41.78,-156.89 -24.97,-154.51 -100.01,-191.45l-171.18 -89.72c-25.73,12.39 -100.71,51.86 -112.65,72.94l-65.08 215.5c-20.87,64.27 -15.64,50.34 22.42,122.88l257.62 493.13c0.49,1.95 8.06,-9.14 0.24,17.91z"/>
   <path class="fil2" d="M2652.89 2957.92c43,91.17 58.88,127.78 134.29,195.98 56.21,22.57 122.93,29.8 185.06,21.43l-0.46 -0.54c13.91,-1.8 29.03,-4.66 46.34,-8.76 7.54,-2.08 14.96,-4.42 22.2,-7.02l-0.39 1.52c3.58,-0.96 7.25,-1.96 11.01,-3.01 95.59,-11.14 176.01,-59.71 236.86,-137.38 34.37,-43.89 43.85,-62.89 47.97,-114.47 6.69,-84.01 1.9,-153.65 -8.72,-237.09 -6.04,-47.42 -12.28,-82.28 -46.31,-121.77 -88.13,-102.22 -217.19,-152.54 -344.8,-130.73 -97.64,16.68 -219.76,80.79 -274.84,194.02 -10.17,20.92 -15.79,38.4 -25.8,58.41 -70.58,156.24 -99.38,-29.11 -146.09,72.05l-17.39 -5.45 0.06 -0.19 -0.03 0.09 -0.39 0 -14.92 -4.67 -1.23 4.12c-24.16,-1.43 -45.89,-4.96 -79.8,-0.88 -32.72,3.94 -63.56,10.36 -93.75,14.27 -24.73,3.21 -9.99,-1.19 -27.96,10.25 -8.79,-2.2 -10.13,-3.03 -18.67,-4.26 -23.24,-3.34 -8.02,0.26 -44.09,-0.55l-281.99 11.53c-4.62,0.81 -34.73,6.67 -36.07,6.56 -22.21,-1.84 15.44,-6.42 -33.88,-2.49 -14.02,1.11 -23.83,2.23 -37.94,3.91 -13.86,1.66 -25.07,0.91 -38.46,10.57 -0.84,-11.05 4.85,-9.23 -3.29,-19.93l-32.68 6.36 -25.11 1.95 -30.13 0.59c-133.96,7.72 -17.19,13.9 -165.72,-1.05 -34.28,43.32 -24.53,125.28 -10.96,172.01l-3.3 13.12 7.15 13.55 25.09 33.76 19.11 -17.7 21.23 -76.26c7.51,21.49 5.24,-4.25 4.99,30.8 -0.12,16.7 -2.49,15.2 -5.36,28.86 35.94,22.37 3.29,22.58 43.14,13.51l30.25 -1.37c25.98,-32.06 -3.89,15.4 24.24,-1.93l30.69 -0.4 10.69 -12.47c6.47,23.68 1.73,19.56 15.88,-0.38 5.6,16.96 0.45,16.25 14.22,5.88l51.26 -7.17 20.66 -0.2c202.01,40.35 96.26,-31.1 243.91,-10.79l344.61 -12.38 -3.02 10.09 89.84 -14.09 1.08 -8.14c5.1,-1.14 10.01,-1.02 16.15,-1.63 17.46,-1.73 8.85,-1.67 21.68,-13.08 22.15,25.89 -14.97,5.18 65.68,4.54 26.9,-0.21 50.17,4.85 67.62,34.45 0.22,1.38 0.41,2.73 0.59,4.05z"/>
   <path class="fil2" d="M2989.59 3195.59c-14.55,1.27 -29.51,0.4 -41.62,0.39 -57.99,-0.01 -108.53,3.55 -167.9,-14.71l-38.56 -28.66c-56.06,-43.92 -93.1,-111.17 -114.09,-186.35 -10.18,-9.39 -27.24,-17.4 -54.68,-23.36 -7.91,0.2 -86.69,11.56 -93.49,16.47l-2.03 -3.19 -488.84 36.14c9.65,-17.11 4.09,-18.09 -47.5,-1.89l-22.35 5.36c-2.29,-1.79 -5.43,-4.54 -7.13,-5.05l-25.93 2.98 -22.21 4.58c-29.34,-17.12 -37.99,-7.43 -72.25,-1.41 -76.25,-25.79 -264.33,30.4 -283.72,21.72 -44.54,-34.76 -39.63,-85.77 -41.33,-132.63 -1.98,-54.55 -17.41,-91.55 36.8,-144.45 76.34,13.95 -36.13,21.79 129.42,12.85 140.82,-7.61 108.14,-25.11 126.07,4.87 11.18,-9.33 23.64,-16.89 34.41,-22.49l1.44 5.76c32.98,-3.34 15.03,-8.65 51.02,-2.73 38.59,2.2 271.11,-13.08 320.26,-16 40.64,-2.42 70.54,-2.26 106.39,-8.46 18.54,-3.21 7.01,-2.66 27.92,-2.54l81.38 -0.6c10.02,-2.07 21.67,-4.53 34.81,-7.36 10.41,-2.24 39.12,10 61.04,15.57 1.39,-3.43 2.81,-6.53 4.31,-9.22 22.3,-40.21 91.52,19.25 109.7,-15.39 18.43,-35.11 137.57,-201.85 168.42,-221.05 143.7,-63.37 276.54,-107.26 299.3,-70.79 8.11,-4.21 12.9,-3.71 21.07,-4.73l35.05 9.08c5.47,2.41 8.64,4.96 14.43,8.13 99.19,54.22 153.84,63.25 222.35,187.13 48.4,87.53 58.63,186.87 41.69,270.47 -17.76,87.7 -64.85,170.15 -132.28,229.99l-10.58 9.05c-44.77,37.02 -97.8,64.28 -156.7,77.12 -5.31,1.36 -47.61,5.63 -102.07,7.77l-2.02 -2.37z"/>
   <path class="fil3" d="M2554.49 586.83c19.09,-101.1 -34.77,-267.89 -115.21,-253.47 150.14,170.88 70.27,182.91 115.21,253.47z"/>
   <path class="fil3" d="M3665.21 627.7c14.46,-54.5 1.73,-144.15 -17.73,-203.15l-16.83 -58.89c-1.51,-2.41 -0.24,-4.07 -0.1,-6.1 87.4,-17.83 238.44,33.21 320.36,138.68 79.73,102.64 89.43,238.1 66.51,322.39 -51.56,-3.59 -80.68,-40.31 -122.96,-23.96 38.47,32.73 260.44,73.82 289.3,299.71 20.02,156.72 -32.82,234.97 -195.02,349.77 -64.48,-54.35 -86.84,-85.44 -162.86,-121.94 -139.26,-66.88 -110.29,13.83 -151.34,-59.49 77.63,-60.04 94.47,-149.11 40.59,-220.35 -68.07,-90.02 -146.9,-74.88 -214.78,-80.9 163.84,-170.47 135.89,-232.58 168.52,-300.12 164.33,121.35 166.45,219.38 119.84,364.81 57.89,-63.6 62.96,-153.55 47.97,-215.37 -34.42,-141.89 -134.21,-160.47 -171.47,-185.09zm-1684.22 1241.26c73.72,61.1 86.67,106.59 183.66,155.89 127.76,64.95 266.13,66.24 382.01,-23.44 91.31,-70.66 91.07,-84.82 191.98,-104.74 44.69,-2.24 104.73,6.04 154.05,51.64 117.93,109 -44.38,183.54 2.6,303.18 10.85,27.64 31.11,55.12 58.32,73.42 22.86,15.4 55.51,25.5 81.91,19.83 -3.05,-32.95 -20.17,-57.27 6.81,-89.53 61.22,-73.26 173.27,-1.36 272.36,-105.53 -21.93,1.21 -3.42,-3.4 -26.6,10.65 -62.27,37.75 -85.57,49.45 -162.94,47.38 -140.9,-3.76 -123.33,72.14 -136.02,123.3 -171.72,-104.87 -58.39,-191.83 -35.94,-279.72 29.63,-115.96 -118.69,-190.3 -210.24,-189.42 -204.24,1.98 -260.02,301.78 -593.78,117.77 -305.79,-168.6 -231.38,-629.29 42.82,-608.37 82.55,6.3 56.34,42.76 113.08,108.15 80.66,92.95 213.24,134.76 289.96,97.93 -49.29,-19.25 -101.94,-16.38 -159.75,-43.48 -110.04,-51.6 -188.17,-195.03 -171.47,-309.98 10.14,-69.89 48.14,-109.92 61.37,-166.36 -102.07,120.58 -79.37,210.81 -85.42,294.28 -0.14,1.87 -0.66,5.14 -0.8,6.68 -0.14,1.57 -0.55,4.53 -0.93,6.78 -154.19,-72.22 -212.96,63.53 -269.88,100.56 -84.7,55.11 -341.94,-40.07 -406.8,-270.93 -30.53,-108.66 -18.01,-268.84 88.57,-378.25 89.27,-91.62 217.1,-128.33 331.89,-96.39 35.42,9.85 23.73,18.77 51.29,3.37 -5.24,-32.95 -29.13,-62.48 -34.58,-98.93 -38.08,-254.55 364.13,-446.83 548.05,-345.06 -22.79,39.29 -40.38,106.58 -85.01,117.26 -195.88,46.87 -315.17,212.97 -244.13,348.07l2.24 -49.4c-1.69,-138.64 82.71,-230.9 217.45,-267.94 128.67,-35.37 252.53,-0.38 378.47,128.31 -7.19,-29.88 -38.03,-59.64 -61.52,-79.87 -25.05,-21.56 -49.09,-36.49 -79.81,-50.46 -74.79,-34.05 -108.49,-23.05 -159.47,-39.08 255.91,-588.52 1097.41,-386.15 1116.43,170.66 10.49,306.99 -204.3,368.07 -247.89,454.46 29.22,42.34 87.12,-6.43 128.73,-11.62 98.67,-12.3 209.12,48.05 196.64,155.92 -9.66,83.45 -59.33,67.28 -100.99,111.65 34.02,29.48 8.7,-3.47 39.47,21.93 24.42,20.16 7.29,12.42 27.03,39.5 71.7,-13.49 104.7,-9.27 179.4,37.16 182.09,113.19 263.03,345.24 182.41,535.43 -127.44,300.61 -486.1,333.2 -682.3,144.14 73.72,-40.26 100.33,75.92 254.63,78.7 82.11,1.48 186.88,-18.19 269.08,-101.16 -95.33,30.14 -256.11,166.59 -438.79,-4.37 85.99,-59.89 159.35,-100.52 197.51,-199.66 -50,31.26 -81.64,104.83 -179.42,152.65 -134.67,65.85 -271.8,54 -385.84,-44.73 -80.65,-69.8 -93.15,-123.12 -107.19,-199.66 -31.19,61.26 13.15,155.55 75.73,218.54 63.51,63.92 146.19,94 212.69,97.91 88.26,5.18 87.54,64.71 210.03,118.54 237.48,104.36 505.69,-14.1 602.24,-248.17 95.75,-232.16 -22.66,-345.86 -48.58,-437.29 147.59,-84.45 195.68,-158.72 213.44,-298.21 14.87,-116.78 -48.31,-228.43 -172.15,-331.6 6.16,-98.98 57.1,-202.21 -74.45,-366.93 -71.11,-89.06 -170.6,-133.97 -274.99,-151.65l-82.41 3.5c-1.82,0.25 -5.07,0.59 -6.57,0.8 -1.52,0.19 -4.42,0.61 -6.65,0.76 -220.59,-364.67 -637.48,-427.25 -928.26,-203.59 -58.23,44.8 -84.56,91.28 -130.41,131.99 -315.49,-102.13 -586.89,102.51 -596.43,326.54 -2.14,50.41 12.58,64.68 14.87,105.39 -118.04,1.23 -210.23,1.87 -315.04,85.68 -197.59,157.97 -192.64,445.53 -21.88,620.63 46.09,47.26 98.47,78.5 153.58,97.05 69.4,23.35 94.72,10.13 154.62,17.85 1.63,78.35 -51.04,116.87 -2.55,259.32 11.15,32.74 37.23,65.78 40.46,94.37z"/>
   <path class="fil4" d="M1923.56 2925.38l36.12 -13.13c-58.93,20.17 -73.68,-9.87 -122.25,14.63 -9.47,-22.36 -4.23,-20.89 -15.89,0.37 -24.32,-15.23 1.97,-21.31 -32.33,-0.22 -29.44,-16.67 4.62,-12.64 -22.93,2.23l-30.38 -12.11c-21.18,-6.28 -5,-0.28 -30.05,-6.93l301.23 -56.97c24.5,-2.69 35.49,-2.98 62.9,-5.77 51.83,-5.27 87.34,-15.69 124.29,-9.8 -59.51,118.11 -140.16,89.34 -270.71,87.7zm183.64 27.42c-3.66,0.4 -12.88,2.47 -15.21,2.4 -27.01,-0.72 -4.67,4.13 -32.3,-4.29 51.59,-16.2 57.15,-15.22 47.51,1.89zm-424.67 -22.89c2.87,-13.66 5.24,-12.16 5.36,-28.85 0.25,-35.06 2.51,-9.32 -4.98,-30.8l-21.24 76.25 2.97 -39.42c0.32,-2.25 1.14,-5.45 1.47,-7.72 0.32,-2.25 1.09,-5.44 1.36,-7.7l0.58 -78.43c22.33,11.12 22.2,17.1 27.88,48.29l0.61 39.97c-0.53,2.17 -1.74,5.39 -2.44,7.42 -1.5,4.31 -9.1,17.13 -11.57,20.99zm-39.96 34.3l-25.1 -33.76 -1.74 -31.17 18.28 38.44 10.66 -54.58c0.59,2.49 -0.25,4.53 1.47,7.54 1.7,2.96 1.07,6.01 1.09,7.47l-4.66 66.06zm-28.94 -60.43l-3.31 13.12 3.31 -13.12zm142.29 38.27l-30.24 1.38c2.55,-1.51 4.65,-6.49 7.84,-4.22 2.85,2.03 6.23,-2.15 7.71,-2l14.69 4.84zm54.93 -2.33l-30.69 0.4c30.25,-16.16 9.3,-12.06 30.69,-0.4zm92.05 -14.14l-51.26 7.17 51.26 -7.17zm79.18 33.2l-63.3 -1.78c-2,0.05 -5.97,0.45 -8.96,0.37 34.26,-6.01 42.91,-15.71 72.26,1.41zm55.27 -2.51c-27.35,9.97 -12.46,7.17 -33.07,-2.07l25.93 -2.98c1.7,0.51 4.84,3.26 7.14,5.05z"/>
   <path class="fil5" d="M1522.3 2925.42l-10.66 54.58 -18.29 -38.43c13.58,-44.27 -3.17,-25.15 -3.44,-74.44l11.52 -72.39c28.41,41.48 18.18,87.84 20.87,130.68z"/>
   <path class="fil6" d="M2995.33 2638.66c21.74,3.13 35.51,3.74 52.27,8.67 -71.05,15.27 -172.71,-6.1 -211.12,-45.71 36.7,12.15 73.4,24.29 110.1,36.44l48.75 0.6z"/>
   <path class="fil4" d="M3017.05 2706.51l33.09 -12.03c-53.98,18.47 -67.49,-9.04 -111.98,13.4 -8.67,-20.48 -3.87,-19.14 -14.55,0.34 -22.28,-13.95 1.8,-19.52 -29.62,-0.2 -26.96,-15.27 4.23,-11.58 -21,2.04l-27.82 -11.09c-19.4,-5.75 -4.59,-0.25 -27.53,-6.35l186.4 -13.65c68.79,20.59 207.96,-22.95 260.97,-52.79 -54.5,108.19 -128.37,81.83 -247.96,80.33zm168.21 25.11c-3.36,0.36 -11.79,2.26 -13.93,2.21 -24.74,-0.67 -4.28,3.77 -29.59,-3.93 47.26,-14.84 52.35,-13.95 43.52,1.72zm-388.98 -20.96c2.63,-12.51 4.8,-11.15 4.91,-26.43 0.23,-32.11 2.3,-8.54 -4.57,-28.21l-19.45 69.84 2.72 -36.11c0.3,-2.05 1.05,-4.99 1.35,-7.07 0.29,-2.06 1,-4.98 1.25,-7.05l0.53 -71.84c20.45,10.19 20.34,15.66 25.54,44.24l0.56 36.61c-0.49,1.98 -1.6,4.93 -2.24,6.79 -1.37,3.95 -8.34,15.69 -10.6,19.23zm-36.6 31.41l-22.99 -30.92 -1.6 -28.55 16.75 35.21 9.76 -50c0.54,2.29 -0.23,4.16 1.35,6.91 1.55,2.71 0.98,5.51 1,6.84l-4.27 60.51zm-26.51 -55.35l-3.03 12.02 3.03 -12.02zm130.33 35.06l-27.7 1.26c2.34,-1.39 4.26,-5.94 7.18,-3.87 2.62,1.86 5.71,-1.96 7.07,-1.83l13.45 4.44zm50.32 -2.14l-28.11 0.37c27.71,-14.8 8.52,-11.05 28.11,-0.37zm84.31 -12.95l-46.95 6.57 46.95 -6.57zm72.52 30.41l-57.97 -1.63c-1.84,0.04 -5.47,0.41 -8.21,0.34 31.38,-5.51 39.3,-14.39 66.18,1.29zm50.63 -2.29c-25.05,9.12 -11.41,6.56 -30.29,-1.91l23.75 -2.73c1.56,0.48 4.44,2.99 6.54,4.64z"/>
   <path class="fil4" d="M3229.62 3041.29l-26.99 -26.88 53.7 -54.88 37.44 11.23c-28.02,36.45 -23.24,39 -64.15,70.53z"/>
   <path class="fil4" d="M3183.14 2978.95c33.09,-23.36 26.19,-43.92 58.17,-25.26 -5.6,24.7 -29.03,35.71 -48.38,44.21l-9.79 -18.95z"/>
   <path class="fil5" d="M2981.05 2283.02c173.6,-23.98 -136.52,18.84 0,0z"/>
   <path class="fil5" d="M3124.42 2516.89c-51.19,-43.86 -151.59,-35.86 -209.21,-21.53l-15.84 -4.66 -16.86 8.07 -42.36 29 20.67 24.14 91.97 29.51c-26.55,8.13 4.94,6.59 -37.79,4.62 -20.35,-0.94 -18.41,-3.76 -34.93,-7.91 -22.19,-19.23 -62.16,-12.78 -57.29,-71.13 44.51,-52.66 106.47,-44.26 163.68,-44.1 66.61,0.18 112.46,-16.88 174.39,51.73l-36.43 2.26z"/>
   <path class="fil5" d="M2881.67 2547.28c51.19,43.86 151.58,35.86 209.21,21.53l15.83 4.65 16.87 -8.07 42.35 -29 -20.67 -24.13 -91.97 -29.52c26.55,-8.12 -4.93,-6.59 37.8,-4.61 20.34,0.94 18.41,3.76 34.93,7.9 22.19,19.24 62.15,12.79 57.28,71.14 -44.51,52.66 -106.46,44.25 -163.68,44.1 -66.61,-0.18 -112.46,16.88 -174.39,-51.74l36.44 -2.25z"/>
   <path class="fil3" d="M3032.92 3176.7c-18.6,26.57 -60.93,22.06 -88.51,22.05 -57.99,-0.02 -108.54,3.54 -167.9,-14.71l-38.57 -28.67c-56.05,-43.92 -93.1,-111.17 -114.08,-186.35l25.46 -8.33c43.01,91.16 58.89,127.77 134.3,195.97 77.58,31.15 175.19,33.1 253.13,5.12l-3.83 14.92zm-547.27 -433.38c46.7,-101.16 75.5,84.19 146.09,-72.05 10.01,-20 15.63,-37.49 25.8,-58.41 55.08,-113.23 177.19,-177.34 274.84,-194.02 127.61,-21.81 256.67,28.52 344.79,130.74 34.04,39.48 40.28,74.34 46.31,121.76 10.63,83.44 15.42,153.09 8.72,237.1 -4.11,51.57 -13.59,70.58 -47.97,114.46 -60.84,77.68 -141.26,126.25 -236.86,137.39 -32.04,8.91 -57.11,14.41 -79.16,17.26l19.84 23.17c54.46,-2.14 96.76,-6.41 102.07,-7.76 58.9,-12.85 111.93,-40.11 156.7,-77.12l10.58 -9.06c67.43,-59.83 114.51,-142.29 132.29,-229.99 16.93,-83.6 6.7,-182.94 -41.7,-270.47 -68.51,-123.88 -123.17,-132.91 -222.35,-187.13 -5.79,-3.17 -8.96,-5.72 -14.43,-8.13l-35.05 -9.08c-8.18,1.02 -12.96,0.52 -21.07,4.73 -22.77,-36.46 -155.61,7.43 -299.31,70.79 -30.84,19.21 -149.98,185.94 -168.41,221.06 -18.18,34.64 -87.4,-24.83 -109.7,15.38 -3.42,6.17 -6.5,14.42 -9.41,23.94l17.39 5.44zm-695.12 1.96l-1.43 -5.75c-10.77,5.59 -23.24,13.15 -34.41,22.48 -17.93,-29.98 14.75,-12.48 -126.08,-4.87 -165.55,8.94 -53.07,1.1 -129.41,-12.85 -54.22,52.91 -38.78,89.91 -36.8,144.46 1.69,46.85 -3.21,97.86 41.33,132.63 19.38,8.68 207.47,-47.52 283.72,-21.73 34.25,-6.01 42.91,-15.7 72.25,1.42l22.21 -4.59 25.93 -2.98c1.7,0.52 4.84,3.26 7.13,5.06l22.34 -5.36c51.6,-16.2 57.16,-15.23 47.51,1.88l488.84 -36.14 2.02 3.19c6.81,-4.91 85.58,-16.27 93.5,-16.47 34.69,7.54 52.8,18.35 61.38,31.09l18.76 -16.06c-0.17,-1.33 -0.36,-2.68 -0.58,-4.05 -17.45,-29.61 -40.73,-34.67 -67.62,-34.46 -80.65,0.64 -43.54,21.36 -65.68,-4.53 -12.83,11.41 -4.23,11.34 -21.68,13.08 -6.14,0.6 -11.05,0.48 -16.15,1.62l-1.09 8.14 -89.83 14.09 3.02 -10.09 -344.61 12.39c-147.65,-20.31 -41.9,51.14 -243.92,10.78l-20.66 0.2 -51.26 7.17c-13.77,10.37 -8.61,11.09 -14.21,-5.87 -14.15,19.94 -9.41,24.06 -15.88,0.38l-10.69 12.46 -30.7 0.41c-28.12,17.32 1.74,-30.13 -24.24,1.92l-30.24 1.38c-39.86,9.06 -7.2,8.86 -43.14,-13.52 2.87,-13.65 5.23,-12.16 5.36,-28.85 0.25,-35.05 2.51,-9.32 -4.99,-30.8l-21.23 76.25 -19.11 17.7 -25.1 -33.76 -7.15 -13.55 3.31 -13.12c-13.57,-46.73 -23.33,-128.69 10.96,-172 148.53,14.94 31.76,8.76 165.72,1.04l30.12 -0.58 25.11 -1.95 32.69 -6.37c8.14,10.7 2.45,8.89 3.29,19.94 13.39,-9.67 24.6,-8.92 38.45,-10.57 14.12,-1.69 23.93,-2.81 37.95,-3.92 49.32,-3.93 11.66,0.66 33.88,2.49 1.34,0.11 31.44,-5.75 36.07,-6.56l281.99 -11.53c36.07,0.81 20.85,-2.79 44.09,0.55 8.54,1.23 9.88,2.06 18.67,4.26 17.96,-11.43 3.22,-7.04 27.96,-10.25 30.18,-3.91 61.03,-10.33 93.75,-14.27 33.9,-4.08 55.64,-0.55 79.79,0.89l1.24 -4.13 14.91 4.67 0.4 0 5.07 -14.61c-21.93,-5.57 -50.64,-17.8 -61.05,-15.56 -13.14,2.82 -24.79,5.29 -34.8,7.35l-81.38 0.6c-20.91,-0.12 -9.38,-0.67 -27.93,2.54 -35.84,6.2 -65.74,6.04 -106.38,8.46 -49.16,2.93 -281.67,18.21 -320.26,16.01 -36,-5.93 -18.04,-0.61 -51.03,2.72z"/>
   <path class="fil2" d="M1112.85 3351.64c-8.69,11.34 -24.43,22.99 -34.76,35.03 -19.14,-13.74 -26.92,-24.59 -37.82,-41.53l72.58 6.5z"/>
  </g>
 </g>
</svg>
