<?xml version="1.0" encoding="UTF-8"?>
<!DOCTYPE svg PUBLIC "-//W3C//DTD SVG 1.1//EN" "http://www.w3.org/Graphics/SVG/1.1/DTD/svg11.dtd">
<!-- Creator: CorelDRAW Standard 2021 (64-Bit Versión de evaluación) -->
<svg xmlns="http://www.w3.org/2000/svg" xml:space="preserve" width="76.7842mm" height="73.152mm" version="1.1" style="shape-rendering:geometricPrecision; text-rendering:geometricPrecision; image-rendering:optimizeQuality; fill-rule:evenodd; clip-rule:evenodd"
viewBox="0 0 7678.42 7315.2"
 xmlns:xlink="http://www.w3.org/1999/xlink"
 xmlns:xodm="http://www.corel.com/coreldraw/odm/2003">
 <defs>
  <style type="text/css">
   <![CDATA[
    .fil0 {fill:#060709}
   ]]>
  </style>
 </defs>
 <g id="Capa_x0020_1">
  <metadata id="CorelCorpID_0Corel-Layer"/>
  <g id="_2218060982992">
   <path class="fil0" d="M5585.87 1421.92c-34.97,-179.35 -22.67,-88.49 21.58,-207.36 27.89,-74.95 -21.3,-89.42 -37.28,-169.07 118.35,-27.69 107.93,-173.36 14.02,-245.9 22.61,-24.78 43.15,-45.89 66.04,-70.69l67.29 62.73c125.5,7.28 132.05,-7.96 210.14,-77.47 18.85,-125.74 15.66,-94.03 -31.3,-198.3 -180.25,-75.92 -147.55,-13.88 -275.56,37.33 -31.6,-85.02 -22.8,-41.48 9.65,-123.94 30.46,-77.43 34.5,-117.66 -11.07,-174.97 -25.61,-32.21 -184.22,-150.36 -275.38,70.43l10.58 85.11c33.8,72.08 -3.25,32.81 48.57,62.19 -65.63,74.94 -4.32,-2.13 -28.5,63.69 -65.23,-8.03 -29.84,-1.47 -97.61,-38.96 -390.2,-105.05 -189.12,497.69 38.3,246.25 3.82,-0.64 10.43,-5.72 11.5,-1.8 1.04,3.78 9.86,-0.85 11.21,-0.76 35.61,2.22 -1.29,-3.86 30.22,4.57 44.73,33.8 18.52,25.42 35.7,63.49 -60.83,61.16 -123.19,201.87 19.73,233.21 -24.77,69.37 -97.6,169.9 7.05,225.16l-20.72 98.07c3.67,94.55 -66.7,257.54 -108.31,353.03 -52.19,119.74 -75.79,205.73 -195.1,239.83l-38.17 8.57c-195.72,-61.59 -219.47,-221.55 -336.13,-380.2 33.42,-76.78 99.85,-90.59 81.99,-204.98 -12.6,-80.73 -82.47,-137.45 -173.37,-132.49 -153.55,8.37 -264.36,276.52 22.35,325.23 -11.96,235.08 8.34,644.15 -286.58,596.64 -7.66,-6.41 -78.36,-48.2 -109.73,-76.37 -48.54,-43.58 -67.41,-72.2 -116.45,-116.97 -80.32,-73.36 -174.39,-172.47 -197.95,-269.44l-73.44 -54.5c31.48,-113.46 98.07,-111.83 9.08,-240.93 -99.62,-65.27 -30.19,-4.64 -68.07,-82.72l-24.62 -0.12c-28.6,-148.08 -0.79,-159.02 -161.4,-155.19 -79.63,78.23 -47.5,69.75 -81.03,188.43l30.24 62.2c121.75,38.39 48.73,-30.15 59.04,89.49 38.89,248.79 129.79,28.93 221.06,242.22 48.62,113.63 93.54,224.61 142.75,343.27 74.37,179.33 300.61,528.69 219.6,689.73 -190.34,378.44 -114.33,419.37 -201.13,794.68 -55.73,240.97 -365.65,406.01 -372.13,614.45 74.74,106.84 188.57,104.06 223.09,200.74 61.25,171.5 -116.33,47.71 76.75,283.87l-86.54 137.73c290.45,118.2 -29.24,429.63 280.42,513.92 186.05,50.63 550.29,-66.99 744.74,-79.13l54.32 170.02 33.5 116.58c369.57,2.32 344.69,-252.88 493.08,-573.27l30.33 -172.45 14.94 -136.42 0.59 -169.73 61.04 167.7c-4.4,1845.96 -2436.2,1588.16 -2201.02,2463.03 389.87,-513.68 2536.25,-788.04 2891.61,-2322.22 103.31,1197.73 -2779.17,2260.29 -2779.34,2266.14 1834.29,-173.13 4949.35,-1917.47 3237.24,-4351.05l311.19 -714.08c23.75,-83.3 55.13,-151.05 90.87,-236.39 97.53,-232.97 268.82,-36.6 207.29,-326.04 327.99,-91.04 -16.74,-491.03 -156.37,-200.86l-11.74 142.01 -56.91 15.54c-4.09,15.16 -20.19,24.17 -23.59,35.6 -35.96,120.92 -20.9,58.71 29.28,237.97 -63.03,29.44 -276.29,349.05 -391.11,423.26 -183.22,172.37 -282.19,76.94 -337,-61.54l-64.8 -411.33 85.03 -68.19c27.09,-16.47 52.57,-29.65 85.76,-45.84 14.78,-153.67 -39.78,-312.29 -219.61,-247.16 -134.46,48.7 -141.87,216.54 -18.31,288.48l-18.11 38.39 -12 39.41c-72.79,152.76 -146.64,332.36 -341.56,339.02l-162.6 -147.37 -137.12 -393.21z"/>
   <path class="fil0" d="M2437.82 5358.7l42.13 424.17 10.12 91.73 -228.66 -131.69 -24.32 -17.22 -95.32 -43.28c-76.31,-17.15 -121.62,-30.56 -187.49,-72.35l-105.76 -32.45 -4.17 -2.28 -72.47 -14.91 -53 -17.21c-389.75,-71.2 -552.54,-105.51 -956.27,-59.24 214.74,-788.95 -347.1,-1160.49 -389.74,-1953.27 -16.9,-314.23 146.74,-774.48 131.27,-912.14 -0.42,-3.76 -0.87,-7.55 -1.35,-11.37 -0.47,-3.82 -0.96,-7.68 -1.48,-11.56l-1.64 -11.75 -1.78 -11.92 -1.91 -12.11c-0.65,-4.06 -1.34,-8.15 -2.04,-12.26l-2.16 -12.44 -2.28 -12.58 -2.39 -12.73 -2.5 -12.88 -2.6 -13.01 -2.7 -13.14 -2.78 -13.27 -2.88 -13.37 -2.95 -13.5 -3.04 -13.59 -3.1 -13.69 -3.16 -13.78 -3.22 -13.86 0 -0.01 -3.28 -13.94 -3.33 -14.01 0 0 -3.37 -14.08 -3.41 -14.14 -3.44 -14.19 0 0 -3.47 -14.23 0 -0.01 -3.49 -14.27 0 -0.01 -3.51 -14.3 0 0 -3.52 -14.34 -3.53 -14.35 0 -0.01 -3.52 -14.36 0 -0.01 -3.53 -14.36 0 -0.01 -3.51 -14.37 0 -0.01 -3.49 -14.36 0 -0.02 -3.48 -14.35 0 -0.01 -3.45 -14.33 0 0 -3.42 -14.32 -0.01 0 -3.38 -14.28 0 -0.01 -3.34 -14.24 0 -0.02 -3.3 -14.19 0 -0.01 -3.24 -14.15 0 0 -3.19 -14.09 0 -0.02 -3.12 -14.02 0 -0.01 -3.05 -13.96 0 -0.01 -2.99 -13.88 0 -0.01 -2.9 -13.8 0 0 -2.81 -13.71 0 -0.02 -2.73 -13.61 -0.01 -0.01 -2.63 -13.52 0 -0.01 -2.54 -13.4 0 -0.01 -2.42 -13.29 0 -0.01c-0.79,-4.41 -1.58,-8.8 -2.32,-13.17l0 -0.02 -2.2 -13.04 -0.01 0c-0.71,-4.33 -1.41,-8.63 -2.07,-12.91l0 -0.02c-0.68,-4.27 -1.33,-8.53 -1.96,-12.76l0 -0.01 -1.82 -12.63 0 -0.01c-0.58,-4.18 -1.15,-8.34 -1.69,-12.47l0 -0.01c-0.53,-4.13 -1.05,-8.23 -1.54,-12.31l0 -0.01c-0.49,-4.07 -0.95,-8.13 -1.39,-12.15l0 -0.01c-0.44,-4.02 -0.86,-8.01 -1.24,-11.97l0 -0.01c-0.39,-3.96 -0.75,-7.89 -1.08,-11.79l-0.01 -0.02c-0.34,-3.89 -0.64,-7.77 -0.91,-11.61l-0.01 -0.01c-0.27,-3.84 -0.52,-7.65 -0.74,-11.42l-0.01 -0.01c-0.21,-3.77 -0.4,-7.51 -0.57,-11.22l0 -0.01c-0.16,-3.71 -0.29,-7.38 -0.39,-11.02l-0.01 -0.01 -0.16 -0.77 -0.01 -0.01 -0.15 -0.77 -0.01 -0.01 -0.16 -0.77 0 -0.01 -0.15 -0.76 -0.01 -0.01 -0.15 -0.76 0 -0.01 -0.14 -0.75 -0.01 -0.02 -0.13 -0.75 0 -0.01 -0.14 -0.75 0 -0.02 -0.13 -0.74 0 -0.02 -0.13 -0.74 0 -0.02 -0.12 -0.74 0 -0.01 -0.12 -0.74 0 -0.01 -0.11 -0.74 0 -0.01 -0.11 -0.74 0 -0.01 -0.1 -0.73 0 -0.02 -0.09 -0.72 -0.01 -0.02 -0.09 -0.73 0 -0.01 -0.08 -0.73 -0.01 0 -0.08 -0.73 0 -0.01 -0.07 -0.72 0 -0.01 -0.07 -0.72 0 -0.02 -0.06 -0.71 -0.01 -0.01 -0.05 -0.72 -0.01 -0.01 -0.04 -0.71 -0.01 -0.01 -0.04 -0.71 0 -0.01 -0.04 -0.71 0 -0.02 -0.04 -0.7 0 -0.01 -0.02 -0.71 -0.01 0 -0.02 -0.71 0 -0.01 -0.01 -0.7 -0.01 -0.01 0 -0.7 0 -0.01 -0.01 -0.7 0 0 0 -0.7 0 0 0.03 -1.4 0 -0.01 0.02 -0.69 0 -0.01 0.02 -0.69 0 0 0.03 -0.69 0 -0.01 0.04 -0.68 0 -0.01 0.05 -0.69 0 0 0.05 -0.68 0 -0.01 0.06 -0.68 0 0 0.07 -0.69 0 0 0.08 -0.68 0 0 0.07 -0.68 0 -0.01 0.09 -0.67 0 -0.01 0.1 -0.67 0 0 0.1 -0.67 0 -0.01 0.11 -0.67 0 0 0.11 -0.67 0 -0.01 0.12 -0.66 0 -0.01 0.13 -0.67 0.14 -0.67 0.15 -0.66 0 0 0.15 -0.67 0.15 -0.66 0.17 -0.66 0.18 -0.66 0.18 -0.66 0 -0.01 0.19 -0.65 0.2 -0.66 0.21 -0.65 0.21 -0.65 0 -0.01 0.22 -0.65 -133.79 -560.73c465.19,-52.44 309.38,-242.93 436.8,-162.08 72.93,46.29 9.08,125.19 0.59,137.77l-90.06 -2.82 -20.64 350.51c333.09,-113.36 242.32,-239.48 255.47,-281.63 20.66,-66.3 48.45,-58.52 93.01,-29.82 49.26,47.45 56.23,3.7 22.68,99.11 -27.99,79.57 -27.13,-54.51 -31.97,75.74 -0.38,10.32 37.6,185.82 42.2,214.81 45.54,109.62 -5.92,119.64 85.14,218.18 83.44,90.29 74.32,78.11 23.5,125.56 -104.89,79.74 -89.25,-45.2 -134.7,-101.09l-278.23 -38.3 93.77 252.15 2.26 6.1c271.24,104.16 302.91,28.42 616.61,-1.92 327.73,-31.69 309.9,-83.18 389.94,-368.16l2.67 -31.37c-82.55,-10.98 -153.78,8.71 -232.95,46.75 -146.77,70.52 -44.51,50.04 -97.4,199.59l-108.84 -0.88c-58.41,-201.97 54.34,-74.24 62.77,-281.23 4.83,-118.76 -3.49,-250.43 -0.62,-372.22 -45.88,-45.41 -101.94,-45.09 -61.17,-183.5 98.47,-10.72 135.21,-5.25 119.94,91.09 19.4,99.91 -9.72,35.76 56.95,84.79 1.81,1.33 60.91,28.41 61.84,28.83 73.9,32.49 100.08,36.9 181.9,46.52 28.93,-45.61 -33.2,-259.82 -64.45,-303.38 -56.19,-78.32 -78.35,4.94 -144.27,-64.19 -45.39,-47.6 7.83,-117.68 23.12,-145.9 207.31,65.76 -11.49,92.86 229.03,102.21 113.05,4.4 242.59,-2.88 358.44,-1.63l15.87 -58.55 83.54 -22.75c21.14,21.68 72.85,69.32 26.48,122.28 -59.35,67.79 -54.33,18.98 -134.14,37.57l-45.16 150.84 -48.33 178.55c90.46,2.59 161.37,-11.65 238.3,-54.51 201.54,-112.3 -32.98,-91.84 132.47,-202.11 64.73,14.19 110.72,23.16 79.68,108.74 -46.38,127.88 -47.06,-62.95 -69.44,151.99 -11.86,113.94 -15.6,301.48 11.85,395.83 69.8,81.16 89.57,70.68 50.61,184.31l-107.3 14.09c-62.95,-170.53 61.05,-116.63 -87.4,-190.52l-237.4 -81.19 51.17 281.26c256.67,213.43 416.52,107.31 747.81,198.56 191.08,-4.07 286.23,-118.25 298.7,-310.2 -384.1,20.69 -267.46,20.62 -296.13,70.87 -27.51,48.2 -47.89,127.05 -118.6,65 -66.09,-95.18 -19.67,-73.9 29.03,-129.19 43.67,-49.58 44.5,-45.09 65.05,-148.69 22.8,-114.98 73.83,-262.24 52.09,-352.94l-6.82 -100.6c56.22,21.27 76.06,-22.53 86.49,82.9 28.58,66.61 -17.46,40.78 32.26,65.21l63.28 53.08c4.3,48.46 -4.95,42.78 174.66,106.45l-14.93 -291.57c-23.84,-88.26 -78.26,1.34 -123.58,-109.83 -37.17,-91.15 39.91,-95.48 105.14,-93.78l23.45 99.3 322.16 73.19 -93.34 514.06 -150.19 727.09c-141.76,463.37 158.24,687.48 99.86,1001.55 -55.26,297.18 -95.93,142.82 40.2,457.4 53.97,124.71 181.51,320.67 178.82,462.76l-156.91 92.83 -135 38.9 37.62 295.79 -90.81 74.09c32.68,101.49 61.07,118.15 -11.32,146.75 -24.82,42.5 -40.12,61.12 -62.49,120.79 137.16,517.31 -567.92,297.24 -717.33,261.21z"/>
  </g>
 </g>
</svg>
