<?xml version="1.0" encoding="UTF-8"?>
<!DOCTYPE svg PUBLIC "-//W3C//DTD SVG 1.1//EN" "http://www.w3.org/Graphics/SVG/1.1/DTD/svg11.dtd">
<!-- Creator: CorelDRAW 2017 -->
<svg xmlns="http://www.w3.org/2000/svg" xml:space="preserve" width="5.5878mm" height="5.5878mm" version="1.1" style="shape-rendering:geometricPrecision; text-rendering:geometricPrecision; image-rendering:optimizeQuality; fill-rule:evenodd; clip-rule:evenodd"
viewBox="0 0 558.78 558.78"
 xmlns:xlink="http://www.w3.org/1999/xlink">
 <defs>
  <style type="text/css">
   <![CDATA[
    .fil0 {fill:none}
    .fil2 {fill:#020202}
    .fil1 {fill:#EFEFEF}
   ]]>
  </style>
 </defs>
 <g id="Capa_x0020_1">
  <metadata id="CorelCorpID_0Corel-Layer"/>
  <rect class="fil0" x="-0" y="-0" width="558.79" height="558.79"/>
  <g id="_1766875281712">
   <g>
    <path class="fil1" d="M91.54 284.17c0,19.26 5.67,17.16 14.27,27.94l1.95 -1.79c-5.06,-11.99 -8.01,-17.87 -1.95,-31.11 -9.78,0.19 -10.54,-1.27 -14.27,4.96z"/>
    <path class="fil1" d="M112.94 303.65c2.94,-2.27 3.9,-1.61 4.55,-7.92 0.65,-6.27 -0.5,-5.55 -2.17,-8.27 -0.34,0.32 -1.05,0.19 -1.18,0.76 -0.14,0.62 -1.03,0.74 -1.2,0.89 -4.54,3.9 -1.81,10.33 0,14.54z"/>
    <path class="fil1" d="M99.23 267.52c5.54,4.16 8.5,4.18 16.77,4.76l-7.81 -9.25c-3.47,1.61 -5.54,2.39 -8.96,4.49z"/>
   </g>
   <g>
    <path class="fil2" d="M250.86 372.15c2.53,-2.53 9.02,3.77 2.65,1.23 -0.06,-0.02 -6.63,2.75 -2.65,-1.23zm-49.93 21.4c0.25,-11.54 4.49,-24.13 4.75,-35.67 17.7,8.49 34.65,8.76 40.42,16.64 -19.72,0.44 -28.25,15.08 -45.17,19.03zm-4.76 -38.05c2.53,-2.53 9.02,3.78 2.65,1.24 -0.05,-0.03 -6.63,2.74 -2.65,-1.24zm-9.51 -2.38c2.57,-2.57 12.98,3.57 3.91,1.23 -2.1,-0.54 -7.93,2.79 -3.91,-1.23zm-7.14 -2.37c2.53,-2.53 9.03,3.77 2.65,1.23 -0.05,-0.02 -6.63,2.75 -2.65,-1.23zm9.52 -35.67c2.57,-2.57 12.98,3.56 3.91,1.22 -2.1,-0.54 -7.93,2.79 -3.91,-1.22zm-26.16 16.64c0.35,-15.81 5.3,-19.02 21.4,-19.02l-21.4 19.02zm-87.98 -26.15l0 0zm38.04 -1.92c-1.72,6.51 0.01,3.46 -5.18,6.67l-1.95 1.79c-7.45,-0.85 -15.68,-2.7 -19.27,-8.88 -1.5,-2.57 -3.11,-6.14 -1.9,-11.42 2.19,-9.61 2.14,-5.87 6.9,-7.64 3.73,-6.23 4.49,-4.77 14.27,-4.96 9.45,5.47 4.35,-0.63 9.51,8.25 1.67,2.72 2.82,2 2.17,8.27 -0.65,6.31 -1.61,5.65 -4.55,7.92zm-38.04 1.92c-10.9,-7.3 -14.24,-23.93 -4.31,-35.23 6.74,-7.66 21.36,-12.06 32.28,-9.52 5.82,1.36 1.91,-0.19 5.32,2.21l7.81 9.25c-8.27,-0.58 -11.23,-0.6 -16.77,-4.76 -22.79,1.73 -29.47,15.98 -24.33,38.05zm-35.67 -23.78c0,30.5 4.38,21.99 16.65,45.18 -22.23,11.76 -40.43,28.25 -40.43,59.44 0,24.86 13.11,46.81 24.1,61.51 12.44,16.65 33.59,31.23 54.37,31.23 12.3,0 24.63,-9.69 33.29,-14.27 6.86,4.59 19.08,17.45 21.4,26.16 -40.56,0 -71.33,-5.68 -71.33,28.53 0,34.4 73.05,26.16 109.38,26.16 95.85,0 18.9,-65.85 14.27,-83.23 4.38,-5.98 23.39,-17.42 30.91,-21.4 3.88,7.35 25.38,65.16 20.77,75.45l-1.75 3.02c18.3,9.68 15.89,28.54 40.42,28.54 11.53,0 18.75,-11.49 19.03,-23.78l214 0c8.62,0 13.27,-2 19.02,-4.76 -8.54,-11.67 -48.2,-7.14 -73.71,-7.13 -29.62,0 -50.74,-2.38 -80.85,-2.38l0 -92.74c0,-29.18 2.45,-51.48 2.38,-78.46 -0.02,-10.18 1.61,-94 -1.11,-98.7 -6.83,-11.78 2.97,2.86 -14.68,-1.86 -39.53,-10.57 -25.24,13.8 -24.63,41.11l11.89 0c0,13.57 2.38,16.45 2.38,30.91 0,80.62 1.83,122.89 -4.76,202.12 -11.05,-5.3 -34.72,-2.38 -49.93,-2.38l-32.97 -104.95c-4.04,-12.26 -6.76,-24.85 -19.35,-28.21 18,-12.51 12.5,-7.81 28.57,-40.39 10.84,-21.97 15.03,-44.1 18.99,-52.34 -37.21,-24.92 -31.26,1.15 -57.07,49.93 -20.97,-1.74 -35.29,-13.05 -49.93,-14.27l11.89 -2.38c-6.72,-28.83 -23.62,-23.77 -42.8,-23.77 -7.02,-14.62 -8.74,-23.76 -25.55,-38.66 -50,-44.3 -102.86,3.61 -102.86,26.77z"/>
    <path class="fil2" d="M445.84 110.59l-154.56 0c-8.2,0 -9.2,-1.76 -16.64,-2.38l-2.38 -68.96 185.47 0c7.53,0 13.05,10.75 17.39,15.91 5.8,6.91 10.99,10.28 13.52,19.76 -4.34,6.49 -11.66,14.43 -17.16,20.89 -7.99,9.39 -8.44,14.78 -25.64,14.78zm-114.13 -80.85l-68.96 0 0 90.36c32.26,0 54.88,-1.02 86.02,1.99 16.67,1.61 14.72,0.7 11.47,14.65 -41.05,0 -68.22,-11.73 -88.04,14.21 -23.42,30.67 -27.83,26.38 -8.79,49.33 5.77,6.94 8.87,10.34 18.36,12.55 -3.98,-17.11 -11.29,-16.99 -19.02,-28.53 22.86,-43.21 28.79,-38.05 90.36,-38.05 23.89,0 40.01,-2.5 61.8,-2.39 24.19,0.12 42.75,2.39 64.22,2.39l0 71.34 -64.2 0c-11.95,0 -10.65,2.14 -21.4,2.37l0 4.76c39.96,9.31 53.19,2.38 95.11,2.38l0 -90.36 -90.36 0c-9.48,0 -1.17,0.42 -4.83,-2.29l-4.68 -4.84c15.91,-23.76 58.01,5.59 80.4,-14.72 9.98,-9.05 25.05,-28.04 31.36,-39.97 -2.83,-10.63 -18.99,-29.88 -26.64,-37.56 -16.58,-16.65 -27.19,-7.62 -54.21,-7.62 -14.46,0 -17.34,-2.38 -30.91,-2.38 0.96,-11.52 2.18,-3.99 0,-14.27 -31.54,-7.34 -20.14,3.63 -30.79,12.01 -5.66,4.45 -16.7,4.64 -26.27,4.64z"/>
    <path class="fil2" d="M170.01 238.99c0,60.29 58.64,58.8 80.12,37.31 48.67,-48.67 -34.51,-104.49 -67.65,-65.27 -4.47,5.29 -12.47,19.38 -12.47,27.96z"/>
    <path class="fil2" d="M298.42 262.77c0,10.62 12.76,6.69 21.01,12.27 11.64,7.86 2.79,14.88 19.41,16.26l0 -66.58 -40.42 0 0 38.05z"/>
   </g>
  </g>
 </g>
</svg>
