<?xml version="1.0" encoding="UTF-8"?>
<!DOCTYPE svg PUBLIC "-//W3C//DTD SVG 1.1//EN" "http://www.w3.org/Graphics/SVG/1.1/DTD/svg11.dtd">
<!-- Creator: CorelDRAW 2017 -->
<svg xmlns="http://www.w3.org/2000/svg" xml:space="preserve" width="50.7998mm" height="33.8666mm" version="1.1" style="shape-rendering:geometricPrecision; text-rendering:geometricPrecision; image-rendering:optimizeQuality; fill-rule:evenodd; clip-rule:evenodd"
viewBox="0 0 5079.98 3386.66"
 xmlns:xlink="http://www.w3.org/1999/xlink">
 <defs>
  <style type="text/css">
   <![CDATA[
    .fil2 {fill:none;fill-rule:nonzero}
    .fil0 {fill:#CD7505}
    .fil6 {fill:#EA2E25}
    .fil7 {fill:#F37D22}
    .fil8 {fill:#FBC312}
    .fil3 {fill:#373435;fill-rule:nonzero}
    .fil4 {fill:#373435;fill-rule:nonzero}
    .fil1 {fill:#CD7505;fill-rule:nonzero}
    .fil5 {fill:#EA2E25;fill-rule:nonzero}
   ]]>
  </style>
 </defs>
 <g id="Capa_x0020_1">
  <metadata id="CorelCorpID_0Corel-Layer"/>
  <g id="_1467910100336">
   <path class="fil0" d="M667.13 2866.65l-25.4 -4.65c-28.69,-5.58 -48.99,-24.73 -62.6,-39.43 -36.02,-38.92 -40.87,-110.63 -22.76,-160.04 7.19,-19.6 24.96,-48.25 41.52,-57.76 -1.16,28.29 9.87,56.48 32.67,62.58 -1.39,-8.73 -5.72,-15.74 -6.62,-27.58 -2.83,-37.07 17.84,-91.9 46.43,-115.33 7.12,-5.84 29.57,-21.1 43.28,-20.26 -32.22,26.62 -40.48,78.38 -21.02,115.73 4.43,8.5 16.35,24.41 25.97,25.96 -0.39,-17.65 2.75,-28.41 10.61,-40 5.74,-8.46 18.45,-20.49 27.2,-23.58 -15.57,79.09 32.39,95.87 52.59,150.28 10.39,27.97 5.02,59.99 -9.1,82.03 -10.39,16.23 -24.44,27.03 -42.1,35.8 -5.85,2.9 -12.94,4.99 -16.69,8.14 43.21,-7 75.18,-35.4 102.08,-64.1 28.09,-29.99 43.45,-72.94 49.33,-114.26 6.43,-45.17 0.46,-106.45 -15.55,-145.97 -12.44,-30.73 -33.31,-65.53 -59.33,-85.82 -4.64,-3.61 -6.95,-6.36 -12.41,-8.44 7.64,34.04 -13.63,95.21 -50.8,102.78 4.51,-15.32 9.07,-22.87 10.65,-42.35 1.23,-15.26 -0.39,-33.17 -3.83,-47.99 -12.62,-54.31 -34.79,-103.81 -75.32,-138.39 -14.06,-12 -60.08,-36.9 -72.67,-30.83 14.07,7.63 30.06,29.58 38.62,47.03 19.66,40.12 22.1,99.3 0.91,139.38 -12.6,23.81 -19.94,29.64 -39.61,43.83 -2.72,-12.96 -0.5,-22.25 -5.26,-37.32 -8.65,-27.42 -35.16,-57.16 -60.14,-65.47 10.2,38.77 9.38,86.59 -8.4,123.28 -24.31,50.16 -71.57,95 -75.75,159.21 -1.86,28.67 5.34,57.31 16.47,79.4 31.92,63.41 112.35,94.85 187.03,94.14z"/>
   <path class="fil0" d="M2939.03 2824.3l-25.4 -4.65c-28.69,-5.58 -48.99,-24.73 -62.59,-39.43 -36.02,-38.92 -40.88,-110.63 -22.77,-160.04 7.19,-19.6 24.96,-48.25 41.52,-57.76 -1.16,28.29 9.87,56.48 32.67,62.58 -1.39,-8.73 -5.72,-15.74 -6.62,-27.58 -2.83,-37.07 17.84,-91.9 46.43,-115.33 7.12,-5.84 29.57,-21.09 43.28,-20.26 -32.22,26.62 -40.48,78.38 -21.02,115.73 4.43,8.5 16.35,24.41 25.97,25.96 -0.39,-17.65 2.75,-28.41 10.61,-40 5.74,-8.46 18.45,-20.49 27.2,-23.58 -15.57,79.09 32.39,95.87 52.59,150.28 10.39,27.97 5.02,59.99 -9.1,82.03 -10.39,16.23 -24.44,27.03 -42.1,35.8 -5.85,2.9 -12.94,5 -16.69,8.14 43.21,-7 75.18,-35.4 102.08,-64.1 28.09,-29.99 43.45,-72.94 49.33,-114.26 6.43,-45.17 0.46,-106.45 -15.55,-145.97 -12.44,-30.73 -33.31,-65.53 -59.33,-85.82 -4.64,-3.61 -6.95,-6.36 -12.41,-8.44 7.64,34.04 -13.63,95.21 -50.8,102.78 4.51,-15.32 9.07,-22.87 10.65,-42.35 1.23,-15.26 -0.39,-33.17 -3.83,-47.99 -12.62,-54.31 -34.79,-103.81 -75.32,-138.39 -14.06,-12 -60.08,-36.9 -72.67,-30.83 14.07,7.63 30.06,29.58 38.62,47.03 19.66,40.12 22.1,99.3 0.91,139.38 -12.6,23.81 -19.94,29.64 -39.61,43.83 -2.72,-12.96 -0.5,-22.25 -5.26,-37.32 -8.65,-27.42 -35.16,-57.16 -60.14,-65.47 10.2,38.77 9.38,86.59 -8.4,123.28 -24.31,50.16 -71.57,95 -75.75,159.21 -1.86,28.67 5.35,57.31 16.47,79.4 31.92,63.41 112.36,94.85 187.03,94.14z"/>
   <g>
    <path class="fil1" d="M722.33 3047.16c0.93,60.55 -29.92,91.31 -92.53,92.27 -107.35,1.64 -190.46,-55.25 -249.36,-170.66 -16.54,-46.55 -33.08,-93.1 -49.62,-139.64 -28.47,-61.51 -69.2,-91.86 -122.19,-91.05l-73.28 1.12 3.3 215.72 -44.38 0.68 -9.62 -628.57 117.67 -1.8c66.74,-1.03 123.99,18.23 171.74,57.76 47.75,39.53 72.06,87.51 72.92,143.93 0.67,44.04 -14.52,85.23 -45.6,123.56 -33.08,41.8 -76.03,68.95 -128.83,81.46 33.93,13.25 64.71,45.81 92.34,97.7 17.82,39.64 35.97,79.28 54.48,118.92 29.07,55.99 64.15,99.5 105.23,130.53 38.31,29.7 76.73,44.25 115.27,43.66 19.26,-0.29 35.69,-6.05 49.29,-17.27 16.3,-14.01 24.26,-33.41 23.88,-58.18 -0.3,-19.95 -9.5,-36.16 -27.58,-48.61 -18.09,-12.46 -38.49,-18.51 -61.19,-18.17l-0.14 -9.29c24.08,-0.36 46.38,6.69 66.91,21.18 20.52,14.48 30.95,32.73 31.29,54.75zm-319.73 -519.56c-0.82,-53.67 -20.62,-99.13 -59.56,-136.39 -38.94,-37.26 -85.68,-55.47 -140.21,-54.64l-73.62 1.13 5.97 390.15 73.63 -1.13c54.53,-0.83 100.68,-20.64 138.46,-59.41 37.77,-38.78 56.16,-85.35 55.33,-139.71zm895.15 409.58c1.07,70.18 -22.78,130.26 -71.57,180.21 -48.79,49.96 -108.28,75.48 -178.47,76.55 -69.49,1.06 -129.39,-22.63 -179.69,-71.07 -50.29,-48.44 -75.98,-107.75 -77.05,-177.93 -0.55,-35.79 5.82,-69.26 19.11,-100.44l8.3 2.97c-12.59,31.85 -18.63,64.3 -18.12,97.32 1.03,67.44 25.82,124.7 74.38,171.79 48.55,47.09 106.2,70.12 172.95,69.1 57.8,-0.88 106.63,-25.55 146.5,-73.99 39.86,-48.44 59.28,-106.38 58.25,-173.82 -1.78,-116.28 -61.33,-184.54 -178.64,-204.77 -35.2,-6.34 -63.27,-19.16 -84.22,-38.46 -20.94,-19.29 -30.94,-43.4 -30.01,-72.32 0.94,-28.92 10.88,-53.51 29.84,-73.76 18.96,-20.25 42.55,-30.59 70.76,-31.02 28.22,-0.43 52.45,9.35 72.72,29.34 20.26,20 30.61,44.1 31.05,72.31 0.25,16.51 -3.29,32.4 -10.63,47.65l-5.21 -3.02c6.68,-13.17 9.9,-28.02 9.64,-44.53 -0.4,-26.15 -10.03,-48.55 -28.9,-67.18 -18.87,-18.64 -41.03,-27.77 -66.49,-27.38 -17.2,0.27 -31.88,8.06 -44.04,23.39 -12.15,15.33 -18.03,36.07 -17.63,62.21 0.71,46.11 26.59,73.58 77.66,82.44 65.56,11.38 117.58,37.43 156.06,78.13 41.26,42.73 62.41,98.16 63.45,166.28zm135.23 -405.73l-33.03 0.5 6.18 403.57 -44.39 0.68 -6.17 -403.57 -35.1 0.54 -0.14 -9.29 35.09 -0.54 -1.67 -109.4 44.38 -0.68 1.68 109.4 33.02 -0.5 0.15 9.29zm74.38 -64.12c0.23,15.14 -7.57,22.83 -23.39,23.07 -13.76,0.21 -20.76,-7.25 -20.99,-22.39 -0.23,-15.13 6.53,-22.81 20.29,-23.02 15.83,-0.24 23.86,7.21 24.09,22.34zm7.14 466.53l-44.38 0.68 -6.32 -412.86 44.38 -0.67 6.32 412.85zm264.1 -416.99l-178.57 406.39 182.69 -2.8 0.14 9.29 -235.33 3.61 177.54 -406.38 -162.04 2.48 -0.15 -9.29 215.72 -3.3zm473.88 405.7l-44.38 0.67 -1.11 -72.25c-43.32,58.48 -101.54,88.28 -174.65,89.4 -60.72,0.93 -113.01,-19.95 -157.19,-62.64 -44.19,-42.68 -66.66,-94.3 -67.58,-154.85 -0.94,-61.24 19.93,-113.7 62.63,-157.37 42.69,-43.66 94.31,-65.96 154.86,-66.89 61.24,-0.94 113.7,19.77 157.36,62.12 43.66,42.34 65.96,94.14 66.9,155.38l3.16 206.43zm-47.54 -205.75c-0.9,-58.49 -18.86,-108.11 -53.9,-148.87 -35.03,-40.76 -76.98,-60.77 -125.84,-60.02 -48.16,0.74 -89.13,22.01 -122.9,63.82 -33.78,41.82 -50.22,91.97 -49.32,150.45 0.89,58.49 18.86,108.12 53.9,148.87 35.03,40.76 76.64,60.77 124.8,60.04 48.86,-0.75 90.17,-22.03 123.94,-63.84 33.78,-41.82 50.22,-91.97 49.32,-150.45zm509.88 -7.81c0.92,60.55 -19.78,112.83 -62.13,156.84 -42.34,44.01 -94.13,66.48 -155.37,67.42 -60.55,0.93 -112.83,-19.95 -156.85,-62.64 -44.01,-42.68 -66.48,-94.3 -67.41,-154.86 -0.94,-61.24 19.94,-113.69 62.63,-157.36 42.69,-43.67 94.32,-65.97 154.87,-66.89 75,-1.15 134.28,27.19 177.84,85.03l-4.43 -289 44.39 -0.68 6.46 422.14zm-44.38 0.68c-0.9,-58.49 -18.87,-108.11 -53.9,-148.87 -35.04,-40.76 -76.98,-60.76 -125.84,-60.02 -48.17,0.74 -89.14,22.02 -122.91,63.83 -33.77,41.81 -50.21,91.96 -49.31,150.45 0.89,58.49 18.86,108.11 53.89,148.87 35.04,40.76 76.64,60.77 124.81,60.03 48.85,-0.75 90.17,-22.03 123.94,-63.84 33.77,-41.81 50.21,-91.96 49.32,-150.45zm883.57 192.95c1.08,70.19 -22.78,130.26 -71.57,180.22 -48.79,49.95 -108.28,75.47 -178.46,76.54 -69.5,1.07 -129.4,-22.62 -179.69,-71.06 -50.3,-48.44 -75.98,-107.75 -77.06,-177.94 -0.55,-35.78 5.82,-69.26 19.11,-100.43l8.31 2.97c-12.59,31.85 -18.63,64.29 -18.13,97.32 1.03,67.43 25.83,124.69 74.38,171.78 48.55,47.09 106.2,70.13 172.95,69.11 57.8,-0.89 106.63,-25.55 146.5,-74 39.86,-48.44 59.28,-106.38 58.25,-173.81 -1.78,-116.29 -61.33,-184.55 -178.64,-204.78 -35.2,-6.34 -63.27,-19.16 -84.21,-38.45 -20.95,-19.3 -30.95,-43.41 -30.02,-72.33 0.94,-28.92 10.88,-53.5 29.85,-73.75 18.96,-20.25 42.54,-30.59 70.76,-31.03 28.21,-0.43 52.45,9.35 72.71,29.35 20.27,19.99 30.62,44.09 31.05,72.31 0.25,16.51 -3.29,32.39 -10.63,47.65l-5.21 -3.02c6.68,-13.18 9.9,-28.03 9.65,-44.54 -0.41,-26.15 -10.04,-48.54 -28.91,-67.18 -18.87,-18.64 -41.03,-27.76 -66.49,-27.37 -17.2,0.26 -31.88,8.06 -44.03,23.38 -12.16,15.33 -18.03,36.07 -17.63,62.22 0.7,46.1 26.59,73.58 77.65,82.43 65.56,11.39 117.58,37.43 156.06,78.14 41.26,42.73 62.41,98.15 63.45,166.27z"/>
    <path class="fil2" d="M934.39 2737.3c0.93,60.55 -19.78,112.66 -62.13,156.32 -42.35,43.67 -93.8,65.96 -154.35,66.89 -60.55,0.92 -112.66,-19.79 -156.33,-62.13 -43.66,-42.35 -65.96,-93.8 -66.88,-154.35 -0.94,-61.24 19.77,-113.52 62.12,-156.84 42.35,-43.32 93.81,-65.45 154.36,-66.37 61.24,-0.94 113.52,19.59 156.83,61.6 43.32,42.01 65.44,93.64 66.38,154.88zm-44.38 0.68c-0.9,-58.49 -18.69,-107.95 -53.38,-148.37 -34.68,-40.42 -76.46,-60.25 -125.31,-59.5 -48.17,0.73 -88.97,21.83 -122.4,63.3 -33.44,41.46 -49.7,91.43 -48.81,149.92 0.89,57.8 18.67,107.08 53.37,147.85 34.69,40.76 76.12,60.78 124.29,60.04 48.16,-0.74 89.13,-22.01 122.9,-63.83 33.78,-41.81 50.22,-91.61 49.34,-149.41zm2300.64 -35.22c0.93,60.55 -19.78,112.66 -62.13,156.33 -42.35,43.66 -93.8,65.96 -154.35,66.88 -60.55,0.93 -112.66,-19.78 -156.32,-62.13 -43.67,-42.35 -65.96,-93.8 -66.89,-154.35 -0.94,-61.24 19.77,-113.52 62.12,-156.84 42.36,-43.32 93.81,-65.44 154.36,-66.37 61.24,-0.94 113.52,19.6 156.83,61.61 43.32,42.01 65.44,93.63 66.38,154.87zm-44.38 0.68c-0.9,-58.49 -18.69,-107.94 -53.37,-148.36 -34.69,-40.42 -76.46,-60.26 -125.32,-59.51 -48.16,0.74 -88.96,21.84 -122.4,63.3 -33.43,41.46 -49.7,91.44 -48.81,149.93 0.89,57.8 18.68,107.08 53.37,147.84 34.69,40.77 76.12,60.78 124.29,60.04 48.16,-0.73 89.13,-22.01 122.91,-63.82 33.77,-41.81 50.21,-91.62 49.33,-149.42z"/>
    <path class="fil3" d="M3941.61 2644.12c1.05,68.65 -22.69,128.28 -71.24,178.88 -48.54,50.61 -107.69,76.45 -177.43,77.52l-101.34 1.55 -7.59 -496.08 93.99 -1.44c70.82,-1.08 132.21,21.68 184.15,68.3 51.94,46.62 78.43,103.71 79.46,171.27zm-35.14 0.54c-1,-65.66 -24.06,-121.03 -69.03,-166.25 -44.97,-45.23 -98.17,-67.44 -159.47,-66.5l-58.71 0.9 7.37 481.36 66.07 -1.01c60.75,-0.93 111.87,-25.69 153.22,-74.14 41.36,-48.46 61.59,-106.53 60.55,-174.36z"/>
    <polygon class="fil4" points="3999.68,2325.23 3915.98,2411.52 3901.02,2395.4 3984.74,2310.74 "/>
    <path class="fil5" d="M4495.44 2259.51l-110.38 679.97 -81.87 -425.12 -68.82 427.42 -130.11 -676.28 46.45 -0.71 99.93 526.02 48.02 -302.19 -42.68 -225.44 45.42 -0.7 18 96.77 16.06 -97.29 9.29 -0.14 -19.8 123.16 76.38 403.52 84.82 -528.84 9.29 -0.15zm253.1 212.93l-143.14 630.91 -8.26 0.13 40.51 -186.45 -112.06 -441.18 45.42 -0.69 89.94 345.5 78.3 -348.08 9.29 -0.14zm246.79 408.14l-43.35 0.67 -5.07 -331.32c-0.34,-22.02 -5.28,-41.04 -14.81,-57.07 -9.54,-16.03 -20.16,-23.95 -31.85,-23.78 -20.65,0.32 -38.43,7.3 -53.37,20.95 -14.93,13.65 -23.96,30.83 -27.08,51.52l5.23 341.64 -44.39 0.68 -6.3 -411.83 44.38 -0.67 0.62 40.25c16.68,-33.98 43.61,-51.26 80.76,-51.82 24.09,-0.37 45.04,8.43 62.87,26.39 17.82,17.97 26.92,38.99 27.29,63.08l5.07 331.31z"/>
   </g>
   <g>
    <path class="fil6" d="M2523.95 2149.13l-85.02 -15.54c-96.06,-18.68 -164.02,-82.81 -209.57,-132.03 -120.58,-130.26 -136.85,-370.33 -76.21,-535.76 24.06,-65.61 83.57,-161.51 139,-193.36 -3.9,94.71 33.05,189.09 109.35,209.51 -4.64,-29.23 -19.14,-52.71 -22.16,-92.34 -9.46,-124.11 59.73,-307.67 155.45,-386.1 23.84,-19.55 98.98,-70.61 144.89,-67.83 -107.85,89.14 -135.53,262.4 -70.38,387.46 14.83,28.45 54.73,81.69 86.94,86.91 -1.28,-59.11 9.22,-95.13 35.53,-133.94 19.21,-28.31 61.77,-68.59 91.06,-78.91 -52.12,264.77 108.43,320.93 176.07,503.09 34.77,93.63 16.78,200.81 -30.47,274.6 -34.8,54.35 -81.81,90.5 -140.93,119.84 -19.61,9.74 -43.35,16.74 -55.87,27.27 144.65,-23.44 251.66,-118.51 341.71,-214.61 94.05,-100.38 145.46,-244.16 165.15,-382.48 21.53,-151.22 1.53,-356.39 -52.05,-488.69 -41.65,-102.87 -111.51,-219.38 -198.63,-287.28 -15.54,-12.12 -23.26,-21.3 -41.55,-28.27 25.58,113.97 -45.63,318.74 -170.05,344.08 15.1,-51.3 30.35,-76.56 35.63,-141.76 4.13,-51.11 -1.27,-111.08 -12.79,-160.67 -42.25,-181.81 -116.5,-347.53 -252.16,-463.3 -47.08,-40.17 -201.14,-123.52 -243.29,-103.2 47.1,25.54 100.65,99.02 129.29,157.44 65.82,134.31 73.98,332.41 3.04,466.59 -42.16,79.72 -66.74,99.22 -132.6,146.75 -9.1,-43.4 -1.68,-74.51 -17.6,-124.95 -28.95,-91.78 -117.71,-191.35 -201.33,-219.17 34.13,129.78 31.4,289.88 -28.14,412.72 -81.37,167.9 -239.6,318.02 -253.58,532.99 -6.24,95.97 17.89,191.85 55.14,265.82 106.86,212.26 376.13,317.52 626.13,315.12z"/>
    <path class="fil7" d="M2438.93 2133.59c-11.43,-19.88 -63.2,-21.51 -104.12,-89.94 -27.33,-45.7 -32.8,-108.35 -11.41,-160.15 46.79,-113.27 113.14,-118.15 90.73,-282.61 52.05,8.48 70.85,73.07 77.43,117.84 53.79,-16.1 86.64,-129.97 47,-216.79 -14,-30.66 -25.93,-35.74 -42.26,-55.86 24.95,-13.69 106.2,43.49 137.1,101.32 22.89,42.84 41.43,98.93 41.25,148.74 -0.11,29.52 -8.01,37.64 -9.71,59.84 58.09,-19.35 56.38,-89.3 61.47,-124.82 5.58,9.39 140.2,103.7 98.88,312 -19.13,96.43 -82.48,170.22 -175.71,195.26 -11.37,3.06 -34.58,6.5 -43.68,10.09 24.5,-0.59 140.21,-12.05 165.73,-26.51 12.52,-10.53 36.26,-17.53 55.87,-27.27 59.12,-29.34 106.13,-65.49 140.93,-119.84 47.25,-73.79 65.24,-180.97 30.47,-274.6 -67.64,-182.16 -228.19,-238.32 -176.07,-503.09 -29.29,10.32 -71.85,50.6 -91.06,78.91 -26.31,38.81 -36.81,74.83 -35.53,133.94 -32.21,-5.22 -72.11,-58.46 -86.94,-86.91 -65.15,-125.06 -37.47,-298.32 70.38,-387.46 -45.91,-2.78 -121.05,48.28 -144.89,67.83 -95.72,78.43 -164.91,261.99 -155.45,386.1 3.02,39.63 17.52,63.11 22.16,92.34 -76.3,-20.42 -113.25,-114.8 -109.35,-209.51 -55.43,31.85 -114.94,127.75 -139,193.36 -60.64,165.43 -44.37,405.5 76.21,535.76 45.55,49.22 113.51,113.35 209.57,132.03z"/>
    <path class="fil8" d="M2438.93 2133.59l85.02 15.54 81.95 -0.62c9.1,-3.59 32.31,-7.03 43.68,-10.09 93.23,-25.04 156.58,-98.83 175.71,-195.26 41.32,-208.3 -93.3,-302.61 -98.88,-312 -5.09,35.52 -3.38,105.47 -61.47,124.82 1.7,-22.2 9.6,-30.32 9.71,-59.84 0.18,-49.81 -18.36,-105.9 -41.25,-148.74 -30.9,-57.83 -112.15,-115.01 -137.1,-101.32 16.33,20.12 28.26,25.2 42.26,55.86 39.64,86.82 6.79,200.69 -47,216.79 -6.58,-44.77 -25.38,-109.36 -77.43,-117.84 22.41,164.46 -43.94,169.34 -90.73,282.61 -21.39,51.8 -15.92,114.45 11.41,160.15 40.92,68.43 92.69,70.06 104.12,89.94z"/>
   </g>
   <path class="fil0" d="M667.13 2866.65l-25.4 -4.65c-28.69,-5.58 -48.99,-24.73 -62.6,-39.43 -36.02,-38.92 -40.87,-110.63 -22.76,-160.04 7.19,-19.6 24.96,-48.25 41.52,-57.76 -1.16,28.29 9.87,56.48 32.67,62.58 -1.39,-8.73 -5.72,-15.74 -6.62,-27.58 -2.83,-37.07 17.84,-91.9 46.43,-115.33 7.12,-5.84 29.57,-21.1 43.28,-20.26 -32.22,26.62 -40.48,78.38 -21.02,115.73 4.43,8.5 16.35,24.41 25.97,25.96 -0.39,-17.65 2.75,-28.41 10.61,-40 5.74,-8.46 18.45,-20.49 27.2,-23.58 -15.57,79.09 32.39,95.87 52.59,150.28 10.39,27.97 5.02,59.99 -9.1,82.03 -10.39,16.23 -24.44,27.03 -42.1,35.8 -5.85,2.9 -12.94,4.99 -16.69,8.14 43.21,-7 75.18,-35.4 102.08,-64.1 28.09,-29.99 43.45,-72.94 49.33,-114.26 6.43,-45.17 0.46,-106.45 -15.55,-145.97 -12.44,-30.73 -33.31,-65.53 -59.33,-85.82 -4.64,-3.61 -6.95,-6.36 -12.41,-8.44 7.64,34.04 -13.63,95.21 -50.8,102.78 4.51,-15.32 9.07,-22.87 10.65,-42.35 1.23,-15.26 -0.39,-33.17 -3.83,-47.99 -12.62,-54.31 -34.79,-103.81 -75.32,-138.39 -14.06,-12 -60.08,-36.9 -72.67,-30.83 14.07,7.63 30.06,29.58 38.62,47.03 19.66,40.12 22.1,99.3 0.91,139.38 -12.6,23.81 -19.94,29.64 -39.61,43.83 -2.72,-12.96 -0.5,-22.25 -5.26,-37.32 -8.65,-27.42 -35.16,-57.16 -60.14,-65.47 10.2,38.77 9.38,86.59 -8.4,123.28 -24.31,50.16 -71.57,95 -75.75,159.21 -1.86,28.67 5.34,57.31 16.47,79.4 31.92,63.41 112.35,94.85 187.03,94.14z"/>
   <path class="fil0" d="M2939.03 2824.3l-25.4 -4.65c-28.69,-5.58 -48.99,-24.73 -62.59,-39.43 -36.02,-38.92 -40.88,-110.63 -22.77,-160.04 7.19,-19.6 24.96,-48.25 41.52,-57.76 -1.16,28.29 9.87,56.48 32.67,62.58 -1.39,-8.73 -5.72,-15.74 -6.62,-27.58 -2.83,-37.07 17.84,-91.9 46.43,-115.33 7.12,-5.84 29.57,-21.09 43.28,-20.26 -32.22,26.62 -40.48,78.38 -21.02,115.73 4.43,8.5 16.35,24.41 25.97,25.96 -0.39,-17.65 2.75,-28.41 10.61,-40 5.74,-8.46 18.45,-20.49 27.2,-23.58 -15.57,79.09 32.39,95.87 52.59,150.28 10.39,27.97 5.02,59.99 -9.1,82.03 -10.39,16.23 -24.44,27.03 -42.1,35.8 -5.85,2.9 -12.94,5 -16.69,8.14 43.21,-7 75.18,-35.4 102.08,-64.1 28.09,-29.99 43.45,-72.94 49.33,-114.26 6.43,-45.17 0.46,-106.45 -15.55,-145.97 -12.44,-30.73 -33.31,-65.53 -59.33,-85.82 -4.64,-3.61 -6.95,-6.36 -12.41,-8.44 7.64,34.04 -13.63,95.21 -50.8,102.78 4.51,-15.32 9.07,-22.87 10.65,-42.35 1.23,-15.26 -0.39,-33.17 -3.83,-47.99 -12.62,-54.31 -34.79,-103.81 -75.32,-138.39 -14.06,-12 -60.08,-36.9 -72.67,-30.83 14.07,7.63 30.06,29.58 38.62,47.03 19.66,40.12 22.1,99.3 0.91,139.38 -12.6,23.81 -19.94,29.64 -39.61,43.83 -2.72,-12.96 -0.5,-22.25 -5.26,-37.32 -8.65,-27.42 -35.16,-57.16 -60.14,-65.47 10.2,38.77 9.38,86.59 -8.4,123.28 -24.31,50.16 -71.57,95 -75.75,159.21 -1.86,28.67 5.35,57.31 16.47,79.4 31.92,63.41 112.36,94.85 187.03,94.14z"/>
   <polygon class="fil0" points="1291.24,2514.71 1455.13,2514.71 1455.13,2544.59 1291.24,2544.59 "/>
  </g>
 </g>
</svg>
