<?xml version="1.0" encoding="UTF-8"?>
<!DOCTYPE svg PUBLIC "-//W3C//DTD SVG 1.1//EN" "http://www.w3.org/Graphics/SVG/1.1/DTD/svg11.dtd">
<!-- Creator: CorelDRAW 2017 -->
<svg xmlns="http://www.w3.org/2000/svg" xml:space="preserve" width="50.7998mm" height="33.8666mm" version="1.1" style="shape-rendering:geometricPrecision; text-rendering:geometricPrecision; image-rendering:optimizeQuality; fill-rule:evenodd; clip-rule:evenodd"
viewBox="0 0 5079.98 3386.66"
 xmlns:xlink="http://www.w3.org/1999/xlink">
 <defs>
  <style type="text/css">
   <![CDATA[
    .str0 {stroke:#373435;stroke-width:7.62;stroke-miterlimit:22.9256}
    .fil4 {fill:#373435}
    .fil1 {fill:#920501}
    .fil3 {fill:#C43302}
    .fil2 {fill:#FD9C0B}
    .fil0 {fill:#373435;fill-rule:nonzero}
    .fil5 {fill:#373435;fill-rule:nonzero}
   ]]>
  </style>
 </defs>
 <g id="Capa_x0020_1">
  <metadata id="CorelCorpID_0Corel-Layer"/>
  <g id="_1895847158816">
   <path class="fil0" d="M580.55 1272.1l221.85 99.66c2.64,-0.43 7.73,-7.37 15.33,-20.81 4.33,-7.88 10.87,-19.64 19.56,-35.17 11.86,-20.68 18.17,-36.99 18.82,-48.99 -2.58,-19.71 -12.18,-39.63 -28.85,-59.66 -13.75,-16.48 -30.52,-31.24 -50.34,-44.18 -9.48,-6.17 -18.51,-11.24 -26.98,-15.1 -31.67,-14.41 -58.85,-16.86 -81.71,-7.34 -18.01,7.51 -36.36,23.23 -54.91,47.24 -8.73,16.25 -16.55,32.76 -23.45,49.56 -8.14,19.84 -11.29,31.46 -9.32,34.79zm-72.77 73.77l36.56 -76.92 40.18 -93.13c6.84,-16 15.95,-30.82 27.41,-44.42 38.45,-46.06 86.98,-59.75 145.57,-41 36.98,16.09 64.48,37.21 82.57,63.21 11.82,17.02 19.85,31.11 24.14,42.33l17.87 46.21 345.93 -76.39c44.01,-9.6 72.87,-18.03 86.46,-25.25l12.59 -6.65c16.96,-8.94 31.62,-25.37 44.15,-49.3 2.34,-1.39 4.65,-1.59 6.79,-0.62 1.67,0.75 3.23,2.36 4.77,4.83l-2.67 11.09c-12.61,29.3 -29.71,58.41 -51.28,87.41 -7.85,10.57 -15.69,17.68 -23.36,21.23 -9.94,4.06 -19.93,7.96 -29.9,11.79 -18.02,3.95 -38.95,9.09 -62.83,15.48 -5.18,2.1 -26.67,7.49 -64.62,16.15l-251.74 57.12c-8.32,2 -13.44,4.48 -15.42,7.5 -11.01,21.59 -19.37,38.67 -25.11,51.26 -5.74,12.64 -8.87,20.78 -9.42,24.44 51.84,24.94 109.42,51.44 172.66,79.49 72.31,32.03 115.51,49.77 129.63,53.09 12.3,-0.33 19.14,-2.03 20.51,-5.03l14.74 -16.26c2.6,0.14 4.64,0.55 6.18,1.25 3.13,1.42 4.12,3.95 3.1,7.49 -8.02,16.65 -18.67,38.1 -32.02,64.48 -7.99,15.77 -16.02,33.08 -24.09,51.93l-6.07 2.94c-1.37,-3.82 -2.54,-5.98 -3.52,-6.43 -1.41,-0.64 -2.24,-0.13 -2.39,1.5l6.2 -13.62c3.49,-7 -2.82,-16.09 -18.86,-27.24 -29.83,-17.14 -52.17,-29.1 -67.08,-35.88 -5.04,-2.29 -9.15,-4.01 -12.39,-5.19l-449.41 -206.81c-18.22,-8.3 -31.62,-10.62 -40.26,-6.92 -3.15,1.89 -5.77,2.42 -7.86,1.46 -0.67,-0.31 -1.42,-0.95 -2.17,-1.88 -0.27,-0.56 -0.62,-1.09 -1,-1.56 -0.16,0.37 -0.4,0.7 -0.68,1.02l-12.83 25.42c-2.97,3.1 -6,3.57 -8.98,1.33 -3.51,-4.49 -4.22,-8.15 -2.05,-10.95zm493.09 -378.92c21.83,20.84 42.13,37.47 60.81,49.91 24.78,16.51 53.44,28.99 86.18,37.41 44.46,11.5 80.29,11.97 107.46,1.23 17.55,-6.89 27.4,-11 29.69,-12.4 0.6,-0.47 11.28,-9.04 31.94,-25.54 8.35,-8.13 18.01,-19.2 28.95,-33.18 14.39,-18.24 24.8,-38.68 31.24,-61.35 7.17,-25.05 6.87,-55.38 -0.96,-91.01 -7.83,-35.65 -25.52,-67.17 -53.19,-94.63 -7.27,-7.05 -14.76,-13.96 -22.54,-20.73 -49.65,-43.31 -99.66,-67.52 -150,-72.69 -24.54,-2.52 -52.89,3.71 -85.07,18.76 -30.38,14.21 -54.83,31.89 -73.36,53.13 -16.53,18.95 -27.96,39.94 -34.27,63.08 -10.46,37.84 -11.86,72.06 -4.03,102.59 5.11,20.39 10.31,35.66 15.59,45.81 6.69,12.64 17.2,25.83 31.56,39.61zm-37.21 -263.84c4.63,-5.9 9.3,-11.57 13.96,-16.9 23.62,-27.08 48.66,-48.1 75.12,-62.95 88.13,-49.65 174.49,-41.15 259.03,25.44 4.14,3.25 8.81,7.13 14.09,11.74 58.34,50.89 90.4,111.16 96.16,180.87 5.68,67.85 -16.74,130.7 -67.23,188.58 -22.96,26.31 -47.4,46.24 -73.34,59.76 -90.23,46.92 -180.1,36.61 -269.64,-31.02 -5.88,-4.42 -11.35,-8.83 -16.33,-13.16 -51.17,-44.64 -80.13,-100.78 -86.89,-168.31 -6.06,-61.38 12.26,-119.41 55.07,-174.05zm504 -3.92c0.31,-0.51 0.75,-0.95 1.26,-1.27 2.05,-1.31 4.93,-1.54 8.57,-0.74 42.49,59.59 91.54,77.52 147.13,53.73 6.76,-2.95 13.34,-6.42 19.77,-10.51 11.21,-7.14 20.49,-15.53 27.88,-25.26 17.05,-22.44 26.82,-43.37 29.31,-62.7 1.95,-14.9 -0.66,-32.43 -7.79,-52.67 -6.2,-10.99 -13.38,-20.89 -21.61,-29.81 -4.9,-5.18 -14.54,-12.16 -28.98,-20.79l-20.79 -8.66 -75.61 -10.31c-30.54,-3.02 -69.12,-7.87 -115.71,-14.51 -22.35,-5.1 -43.46,-12.29 -63.36,-21.44 -21.12,-9.81 -39.04,-26.31 -53.82,-49.51 -13.51,-21.22 -19.9,-43.2 -19.25,-65.92 1.59,-49.85 27.01,-93.04 76.4,-129.59 23.18,-17.08 49.75,-31.83 79.7,-44.19 18.93,-7.8 29.62,-8.46 32.19,-2.03l33.27 37.58 28.71 45.1c3.18,8.13 3.75,12.8 1.88,13.99 -1.12,0.89 -2.23,1.66 -3.25,2.31 -2.96,1.88 -4.97,2.13 -5.88,0.7l-22.63 -24.91c-40.1,-30.34 -85.28,-29.48 -135.67,2.6 -2.23,1.41 -4.29,2.81 -6.21,4.18 -18.71,17.2 -30.69,35.29 -35.86,54.17 -5.92,21.59 -2.45,42.48 10.4,62.68l8.62 13.54c5.44,6.52 17.06,13.35 34.9,20.53l26.2 10.51 35.12 7.61c72.13,6.2 112.66,10.61 121.55,13.26 32.04,3.51 63.34,12.61 93.96,27.32 26.77,12.94 47.17,30.4 61.18,52.41 10.31,16.21 16.87,31.78 19.58,46.6 12.77,68.52 -14.89,127.77 -82.91,177.63 -16.83,12.23 -34.91,22.87 -54.22,31.71 -17.93,8.14 -32.53,13.45 -43.77,15.88 -18.53,4.04 -28.35,5.18 -29.4,3.53l-8.77 -4.97c-18.28,-26.96 -38.58,-61.13 -60.87,-102.41 -2.76,-5.11 -3.14,-10.22 -1.22,-15.37zm570.46 -699.19c0.79,0.02 2.98,0.84 6.55,2.56 3.56,1.72 5.47,2.93 5.68,3.57l27.11 70.77c-0.28,3.8 -1.24,6.46 -3.05,7.86l-6.49 -0.09 -3.5 -3.39 -8.96 -20.53c-9.66,-13.96 -29.66,-18.64 -59.8,-13.92 -4.81,1.34 -44.61,14.57 -119.39,39.69l108.83 327.76c11.62,34.58 22,60.4 31.21,77.44 6.1,9.04 12.53,14 19.33,14.77l15.95 -0.8 27.61 -8.21c5.97,-1.72 9.91,-1.63 11.98,0.31 2.23,4.52 1.22,8.27 -2.93,11.16 -11.81,3.82 -47.98,15.33 -108.64,34.43 -20.5,6.53 -33.73,11.19 -39.65,14.11 -6.52,2.18 -11.25,1.86 -14.31,-0.89 -0.39,-0.73 -0.71,-1.47 -0.94,-2.17 -0.95,-2.82 -0.55,-5 1.15,-6.72 18.1,-6.08 28.13,-12.43 30.02,-19.05 6.25,-8.5 2.69,-32.84 -10.68,-73.09l-118.68 -356.03 -124.73 45.03c-16.85,8.01 -27.05,15.56 -30.49,22.69l-5.83 21.17 0.47 21.11c-2.38,2.85 -4.49,4.63 -6.41,5.27 -2.11,0.71 -3.94,-0.1 -5.54,-2.33 -3.13,-3.15 -7.03,-20.89 -11.71,-53.47 -1.41,-9.48 -2.1,-15.15 -2.14,-16.98 -0.27,-3.12 0.26,-6.2 1.44,-9.25l396.54 -132.78zm175.01 64.06l65.07 -9.44 27.05 -2.18 6.57 1.55c0.93,3.48 0.73,5.81 -0.73,7.08l-9.13 1.97c-1.3,0.98 -2.75,1.91 -4.19,2.91 -6.83,4.6 -8.81,18.51 -5.87,41.86l41.74 323.33c3.16,25.01 7.59,39.2 13.3,42.42l6.81 3.89 19.5 2.18c1.25,0.72 2.01,1.85 2.19,3.25 0.13,1.07 -0.06,2.25 -0.5,3.66l-8.13 3.41 -103.58 10.69 -4.33 -2.59 -0.5 -3.88 2.85 -2.74c9.37,-1.17 14.68,-2.18 16.06,-3.04 5.82,-3.52 8.7,-9.73 8.67,-18.56 -0.31,-29.93 -1.89,-51.07 -4.78,-63.28l-41.09 -312.81c-2.57,-8.03 -5.97,-13.92 -10.17,-17.6l-7.46 -3.07 -11.77 1.48c-2.55,-0.9 -3.97,-2.42 -4.26,-4.7 -0.09,-0.73 -0.06,-1.62 0.08,-2.58l6.6 -3.21zm211.96 75.54c0.72,-28.99 4.12,-59.52 10.18,-91.55l4.84 -9.99 8.7 0.22 14.04 4.73 44.44 3.21 264.02 6.62c3.75,1.38 6.27,3.13 7.57,5.12 -0.09,3.64 -2.81,9.64 -8.15,18.01l-151.27 238.47 -120.56 184.42 163.12 4.09c19.34,0.48 34.29,-1.43 44.99,-5.76l20.1 -8.19 8.68 -6.86c7.78,-9.38 13.06,-17.95 15.88,-25.78 4.17,-18.17 7.23,-27.47 9.2,-27.96 1.09,-0.24 1.97,-0.36 2.78,-0.33 4.25,0.1 6.32,3.26 6.31,9.47 0.09,25.83 -5.09,57.53 -15.68,95.17 -1.26,4.55 -3.84,8.06 -7.75,10.46l-5.78 1.82 -309.2 -10.12c-5.79,-0.15 -9.2,-1.45 -10.35,-3.97l0.19 -7.88 2.94 -6.61 275.83 -428.93 -175.58 -5.07c-16.81,1.33 -31.1,3.26 -42.83,5.87 -3.32,0.58 -8.27,1.41 -14.7,2.59 -4.95,0.89 -9.4,3.67 -13.5,8.37l-11.8 21.41 -4.2 19.26c-2,4.53 -4.61,6.5 -7.89,5.74l-2.95 -1.09 -1.62 -4.96zm581.29 205.87l0.03 3.5 141.9 47.67 -8.41 -207.68 -5.85 2.59 -127.67 153.92zm183.62 -259.03c0.55,0.04 2.55,-0.21 5.86,-0.73 -0.32,1.8 -0.26,5.23 0.1,10.27l33.53 477.37c0.33,6.66 0.88,16.66 1.68,30.16 0.39,6.67 1.57,12.05 3.52,16.18 0.23,0.59 1.78,5.94 4.68,15.95 2.07,7.38 4.47,11.88 7.09,13.62 3.82,2.57 8.56,6.07 14.15,10.59 4.83,3.83 9.98,6.7 15.61,8.58l2.57 4.21c-2.12,6.33 -6.31,8.4 -12.47,6.2l-8.56 -3.09 -30.64 -10.66c-31.06,-10.85 -61.77,-21.88 -92.22,-33.1l2.12 -6.34c4.7,-1.47 9.38,-1.46 13.99,0.08 3.75,-1.23 6.85,-4.11 9.34,-8.53l-9.48 -177.6 -3.87 -3.28 -167.47 -56.26 -8.36 6.29 -130.9 152.06 -13.29 21.35c-5.68,14.38 -5.83,23.72 -0.64,27.95l8.06 6.49c6.97,2.34 10.91,3.52 11.7,3.5 -0.7,-0.24 -1.16,-0.11 -1.33,0.4 0.17,1.98 -0.02,3.63 -0.47,4.96 -1.01,3.01 -3.4,4.63 -7.24,4.84 -15.89,-5.63 -33.62,-11.73 -53.24,-18.32 -19.43,-6.53 -40.69,-13.53 -63.8,-21l-3.09 -5.6 3.58 -6.83 8.55 0.6c3.3,1.6 5.96,2.78 8,3.46 3.58,1.21 6.97,1.27 10.26,0.18 3.2,-1.06 8.15,-2.67 14.88,-4.89 14.54,-4.14 33.79,-20.16 57.74,-48.03l354.17 -411.43c4.32,-5.03 9.59,-8.23 15.89,-9.6zm362.83 365c-29.37,38.79 -56.36,75.61 -81.03,110.52 -49.24,69.73 -76.71,112.24 -82.26,127.47 -5.32,14.32 4.45,32.03 29.27,53.11 4.65,3.94 9.78,7.9 15.34,11.83 35.96,25.4 70.74,36.58 104.37,33.5 21.67,-1.94 41.2,-8.79 58.52,-20.58 14.52,-9.79 29.85,-24.73 46.06,-44.97 4.02,-5.01 7.73,-9.9 11.07,-14.64 28.51,-40.37 41.34,-81.43 38.4,-123.2 -1.03,-16.08 -4.45,-30.88 -10.18,-44.5 -12.61,-30.29 -32.91,-57.08 -60.89,-80.23 -21.62,-18 -37.67,-27.77 -48.17,-29.15l-5.8 1.44 -14.7 19.4zm-54.21 -109.67l57.91 42.37 92.34 63.74c16.63,11.4 33.42,25.5 50.29,42.28 33.98,33.82 53.38,71.46 58.17,112.73 4.73,41.32 -5.96,82.06 -32.12,122.02 -12.02,18.42 -25.28,33.91 -39.6,46.5 -39.2,34.22 -80.68,52.39 -124.4,54.45 -43.71,2.06 -86.86,-11.89 -129.48,-42 -4.19,-2.96 -8.97,-6.58 -14.35,-10.88l-45.87 -36.52 -26.33 -22.32 -69.59 -48.4 -1.53 -4.71c0.31,-0.69 0.69,-1.33 1.08,-1.88 1.05,-1.49 2.21,-2.08 3.43,-1.71l21.92 11.85c5.44,2.94 12.95,-0.09 22.38,-9.12 15.5,-17.86 26.63,-31.63 33.4,-41.21 2.45,-3.47 4.39,-6.22 5.94,-8.43l145.79 -206.42c8.06,-11.41 11.33,-20.48 9.78,-27.27 -3.3,-8.78 -6.67,-14.05 -10.02,-15.74l-17.36 -13.18c-1.94,-2.52 -2.01,-4.64 -0.09,-6.41 3.74,-1.9 6.56,-1.81 8.31,0.26zm408.8 455.61c-24.47,17.64 -44.54,34.56 -60.19,50.63 -20.77,21.35 -38.28,47.24 -52.56,77.88 -19.43,41.6 -26.45,76.75 -20.88,105.43 3.56,18.5 5.8,28.94 6.76,31.45 0.36,0.67 6.83,12.75 19.27,36.08 6.46,9.69 15.58,21.22 27.32,34.53 15.29,17.48 33.49,31.46 54.59,41.94 23.32,11.63 53.18,16.89 89.65,15.72 36.48,-1.18 70.71,-12.79 102.77,-34.97 8.26,-5.86 16.41,-11.96 24.51,-18.36 51.65,-40.88 84.61,-85.62 98.91,-134.17 6.97,-23.66 6.03,-52.67 -2.87,-87.06 -8.41,-32.47 -21.31,-59.75 -38.8,-81.85 -15.61,-19.72 -34.15,-34.8 -55.74,-45.23 -35.29,-17.22 -68.68,-24.85 -100.11,-22.75 -20.99,1.3 -36.95,3.61 -47.91,6.94 -13.64,4.27 -28.53,12.18 -44.72,23.79zm266.2 11.71c4.95,5.62 9.67,11.26 14.06,16.81 22.31,28.18 38.38,56.64 48.14,85.39 32.67,95.72 8.51,179.06 -72.43,249.99 -3.95,3.47 -8.62,7.35 -14.12,11.69 -60.71,48.04 -125.83,68.53 -195.42,61.43 -67.74,-6.84 -125.42,-40.38 -173.08,-100.61 -21.67,-27.39 -36.78,-55.07 -45.33,-83.04 -29.61,-97.29 -3.02,-183.76 79.85,-259.4 5.44,-4.98 10.76,-9.55 15.94,-13.65 53.25,-42.13 113.74,-60.34 181.37,-54.61 61.45,5.27 115.14,33.91 161.02,86zm-91.04 495.63c0.45,0.41 0.8,0.92 1.02,1.48 0.9,2.26 0.59,5.14 -0.88,8.56 -66.51,30.54 -93.34,75.35 -80.41,134.41 1.62,7.2 3.79,14.32 6.61,21.4 4.9,12.34 11.39,23.05 19.57,32.13 18.84,20.96 37.55,34.49 56.07,40.57 14.27,4.71 31.97,5.43 53.2,2.23 11.96,-4.03 23.04,-9.22 33.34,-15.62 6.01,-3.85 14.67,-11.99 25.86,-24.56l12.42 -18.79 24.32 -72.33c8.7,-29.42 20.72,-66.41 35.98,-110.92 9.22,-21 20.25,-40.38 32.97,-58.21 13.61,-18.89 33.17,-33.41 58.74,-43.56 23.38,-9.28 46.17,-11.44 68.35,-6.53 48.67,10.93 86.32,44.01 112.94,99.39 12.42,25.97 21.92,54.84 28.44,86.58 4.11,20.05 2.74,30.68 -4.06,32l-43.15 25.62 -49.7 19.73c-8.58,1.59 -13.27,1.27 -14.09,-0.79 -0.66,-1.27 -1.22,-2.5 -1.66,-3.63 -1.29,-3.25 -1.16,-5.27 0.41,-5.9l28.72 -17.55c37.33,-33.69 44.98,-78.23 22.94,-133.75 -0.97,-2.44 -1.96,-4.73 -2.95,-6.87 -13.37,-21.62 -28.89,-36.78 -46.46,-45.4 -20.1,-9.88 -41.28,-10.4 -63.52,-1.56l-14.92 5.92c-7.43,4.12 -16.32,14.24 -26.72,30.42l-15.25 23.75 -14.07 33.08c-19.64,69.68 -31.58,108.66 -35.86,116.89 -9.46,30.81 -24.28,59.83 -44.48,87.16 -17.73,23.86 -38.71,40.62 -62.97,50.24 -17.86,7.1 -34.39,10.6 -49.44,10.49 -69.71,-0.34 -122.71,-38.63 -158.9,-114.81 -8.85,-18.82 -15.9,-38.59 -20.97,-59.21 -4.62,-19.14 -7.08,-34.48 -7.37,-45.97 -0.48,-18.96 0.25,-28.83 2.06,-29.55l6.54 -7.67c29.91,-12.89 67.27,-26.42 112.01,-40.55 5.54,-1.76 10.63,-1.17 15.32,1.68z"/>
   <path class="fil1" d="M1194.86 1096.39c-5.13,-9.35 -0.91,-5.23 -12.53,-10.35 -12.29,2.66 -14.97,2.97 -37.23,-7.06 -73.31,-33.02 -163.02,-122.29 -175.9,-191.36 19.82,-11.35 79.11,-36.18 98,-19.4 -32.63,-49.29 -54.49,-61.08 -72.11,-116.25 -14.89,-46.61 -29.09,-78.85 -71.84,-115.94l52.19 -4.02c63.81,-5.72 124.32,16.3 178.18,53.11 -9.51,-22.58 -49.35,-81.86 -50.94,-106.68l1.26 -21.08c109.65,43 169.7,84.09 234.94,192.06 8.28,13.7 12.47,17.03 15.27,34.41l0.83 9.85c12.84,38.9 26.92,89.92 14.86,136.12l-0.75 20.61c79.82,-141.46 11.7,-275.18 -99.5,-351.21 -60.17,-41.16 -125.3,-70.7 -190.97,-83.13 -54.53,-10.32 -147.03,-13.46 -183.62,10.85 31.82,8.94 88.82,11.52 104.97,46.78 -73.83,-18.81 -154.33,-29.61 -230.24,3.84 -32.02,14.1 -45.17,30.5 -70.3,45.45 -0.69,0.82 -16.45,19.2 -16.65,19.56 -11.48,21.11 -10.55,7.46 -3.78,24.99 15.17,-16.64 144.75,-44.25 205.65,51.52 24.78,38.99 22.76,67 25.85,106.06 2.17,27.55 28.6,90.76 23.58,110.06 -22.84,-12.87 -32.04,-29.64 -48.93,-47.12 -4.84,51.55 64.71,135.29 114.02,165.56 55.14,33.84 141.24,48.96 195.69,42.77z"/>
   <path class="fil2" d="M1182.33 1086.04c11.62,5.12 7.4,1 12.53,10.35l17.51 -1.52c-41.55,-33.29 -123.13,-91.3 -119.71,-141.2 43.89,-15.37 82.02,2.2 127.44,8.96 -2.11,-5.69 -155.65,-165.58 -145.07,-238.66 30.98,-0.47 66.51,24.67 93.69,45.08 33.82,25.39 43.31,52.2 67.46,74.74 7.99,-22.38 7.17,-46.86 12.88,-66.7l10.58 -19.89c35.67,10.4 66.61,48.2 81.93,75.89 21.65,39.12 16.67,70.29 28.27,96.71 12.06,-46.2 -2.02,-97.22 -14.86,-136.12 -43.04,-47.99 -32.93,-73.59 -121.27,-134.72 -15.1,-10.45 -37.12,-28.1 -56.82,-26.55 24.05,39.35 46.16,95.01 41.24,138.65 -76.74,-65.01 -128.08,-101.08 -224.53,-103.7 5.23,15.47 23.65,42.8 31.38,58.45 10.32,20.9 17.38,39.64 27.24,62.55 38.65,90 60.35,85.99 74.18,116.73 -36.13,-14.08 -83.25,-16.05 -113.87,-0.53 6.5,72.93 95.08,143.32 169.8,181.48z"/>
   <path class="fil3" d="M1182.33 1086.04c-74.72,-38.16 -163.3,-108.55 -169.8,-181.48 30.62,-15.52 77.74,-13.55 113.87,0.53 -13.83,-30.74 -35.53,-26.73 -74.18,-116.73 -9.86,-22.91 -16.92,-41.65 -27.24,-62.55 -7.73,-15.65 -26.15,-42.98 -31.38,-58.45 96.45,2.62 147.79,38.69 224.53,103.7 4.92,-43.64 -17.19,-99.3 -41.24,-138.65 19.7,-1.55 41.72,16.1 56.82,26.55 88.34,61.13 78.23,86.73 121.27,134.72l-0.83 -9.85c-2.8,-17.38 -6.99,-20.71 -15.27,-34.41 -65.24,-107.97 -125.29,-149.06 -234.94,-192.06l-1.26 21.08c1.59,24.82 41.43,84.1 50.94,106.68 -53.86,-36.81 -114.37,-58.83 -178.18,-53.11l-52.19 4.02c42.75,37.09 56.95,69.33 71.84,115.94 17.62,55.17 39.48,66.96 72.11,116.25 -18.89,-16.78 -78.18,8.05 -98,19.4 12.88,69.07 102.59,158.34 175.9,191.36 22.26,10.03 24.94,9.72 37.23,7.06z"/>
   <path class="fil4 str0" d="M2854.18 1718.2c-15.16,7.17 -220.59,210.84 -232.55,231.62 23.87,11.31 156.7,149.2 194.38,188.34l19.58 25.21c-25.66,-10.89 -36.09,-30.05 -55.41,-48.78l-159.62 -162.21c-20.66,8.97 -82.08,74.19 -97.46,90.78l-286.27 280.4c-8.14,19.73 -56.96,60.56 -56.56,67.34 1.01,16.75 11.75,17.97 38.86,46.16l217.38 218.87c97.32,98.02 50.14,48.64 116.18,60.94 50.08,10.24 157.35,-17.34 203.89,-32.47 4.08,-23.56 65.3,-77.23 84.64,-95.48 141.2,-133.17 396.37,-395.3 541.85,-540.88 26.19,-26.21 65.73,-77.67 100.44,-89 3.04,-8.34 9.23,-20.37 6.78,-39.18l-59.24 -60.69c-25.52,-23.67 -11.47,-2.17 -19.14,-27.78 23.03,9.76 30.63,23.95 44.71,37.81 6.33,6.23 11,10.71 17.28,17.01l25.24 23.34c15.78,-118.52 31.43,-191.13 23.42,-320.86 -19.3,-312.76 -190.55,-605.13 -439.16,-781.13 -189.67,-134.27 -427.38,-209.99 -665.84,-196.23 -82.84,4.79 -229.17,26.15 -288.23,56.86 124.49,-15.02 160.28,-50.31 349.22,-37.93 288.75,18.92 601.74,182.19 748.81,424.5 -17.24,-28.23 -62.59,-68.01 -91.76,-96.03 -100.97,-97 -216.93,-167.98 -358.38,-215.66 -642.96,-216.76 -1293.51,287.06 -1281.76,913.63 20.03,-49.48 -0.74,-213.62 140.78,-441.01 268.92,-432.08 868.81,-565.38 1295.47,-262.37 87.16,61.89 151.97,124.95 216.24,214.24 238.66,331.55 225.49,767.98 -20.8,1091.28 -29.8,39.11 -109.54,125.86 -143.26,142.32 -19.87,-73.49 -59.4,-137.82 -64.04,-157.89 21.15,10.28 18.39,16.23 48.49,23.85 0.48,-49.4 -14.23,-102.94 -26.53,-145.94 -20.77,-72.62 -18.72,-68.25 -12.54,-144.27 7.66,-94.08 -48.22,-181.89 -75.09,-258.71zm-246.69 218.03c-20.92,-8.83 -71.3,-55.76 -79.48,-80.95 22.8,3.25 46.64,38.89 61.74,55.37 3.37,3.65 3.4,2.63 8.53,9.56l5.11 7.62c0.66,1.08 1.61,3.3 2.12,4.2 0.5,0.89 1.33,2.8 1.98,4.2zm-532.23 -640.71c-8.09,32.37 -3.73,6.58 5.71,15.09 228.47,-87.94 383.31,193.47 251.48,332.54 -15.96,16.84 -10.56,15.3 -31.42,16.99 3.16,-45.68 32.43,-72.14 35.84,-125.25 9.1,-141.79 -155.64,-235.27 -285.64,-141.15l0.27 72.88c32.32,-21.6 29.79,-56.85 96.44,-67.61 57.41,-9.27 97.69,19.28 118.09,47.35 24.71,6.69 43.47,20.9 51.23,44.22 14.84,44.63 -10.65,52.48 -15.16,75.96 -25.52,69.91 -53.53,103.85 -117.41,125.52 -62.01,21.03 -158.21,7.08 -184.5,-40.33 -25.93,-2.49 -3.57,-2.21 -14.35,9.26 24.33,52.79 117.12,63.11 167.7,95.34 5.81,50.8 -19.03,67.49 -28.89,109.29 -7.55,31.95 -6.18,37.15 0.95,67.67 6.03,25.79 -30.92,186.76 185.41,126.22 -9.94,79.91 -34.47,158.81 -72.14,225.55 -13.17,23.33 -31.38,38.63 -36.67,57.85 12.78,3.91 -4.97,6.13 11.32,-5.63 18.78,-13.58 3.73,-8.72 23.31,-13.72 2.8,-19.07 -6.51,-3.05 16.32,-24.21l225.58 -228.32c1.14,-1.32 4.35,-5.34 5.51,-6.67 0.85,-0.96 1.97,-2.33 2.84,-3.28 0.87,-0.94 2.05,-2.27 2.94,-3.2 9.44,-9.81 14.02,-11.66 25.26,-22.43l92.21 -99.22c46.25,-35.05 82.13,-82.48 117.63,-115.7 19.58,-18.31 40.09,-41.41 57.55,-55.89 29.88,-24.77 29.73,-42.86 64.32,-54.87 -7.89,-26.36 -29.87,-64.2 -41.57,-86.13 -46.82,-87.88 -44.42,-141.59 -116.62,-243.88 1.43,-0.78 3.42,-1.53 4.47,-1.96l13.51 -5.37c4.9,-1.8 8.61,-2.82 13.68,-4.62 11.39,-4.04 20.46,-7.66 29.18,-12.57 22.27,-12.59 32.87,-22.27 45.28,-38.48 97.97,-127.86 61.3,-132.54 12.86,-221.42 -31.08,-57.02 -66.72,-30.19 -109.51,-9.97 8.33,-22.87 18.28,-37.49 5.88,-59.39 -47.39,-45.02 -100.55,61.2 -128.02,56.73 -12.69,-32.29 36.47,-16.23 18.41,-80.09 -88.18,-39.87 -103.38,55.96 -142.98,82.41 -14.21,-31.35 29.88,-81.46 -1.8,-105.68 -42.16,-32.24 -113.06,103.59 -129.7,113.89 -23.36,-20.06 -6.3,-39.95 -26.38,-76.08 -79.83,-9.01 -93.49,168.94 -98.13,207.18 -23.73,-10.82 -7.1,-4.14 -24.94,-23.97 -9.86,-10.95 -12.81,-13.76 -29.39,-15.92 -21.4,17.21 -20.86,39.65 -23.28,69.79l-9.5 3.12c-17.65,5.97 -27.09,1.72 -33.18,38.16zm407.51 1429.93c-6.06,-24.74 -56.92,-67.17 -76.74,-86.84l-219.9 -222.61c-20.69,-17.99 -10.23,-12.05 -27.63,-10.48 -29.29,15.88 -60.87,103.33 -83.5,135.81 -93.59,-22.32 -223.73,-115.75 -302.69,-177.3 -42.17,-32.88 -82.77,-80.12 -118.66,-120.45 -107.3,-120.59 -196.4,-327.35 -216.62,-500.4 -29.64,-253.57 26.66,-329.49 33.72,-421.55 -65.18,128.05 -71.13,397.4 -39.64,552.58 36.01,177.42 107.77,318.38 197.66,435.78 94.6,123.57 189.95,204.04 343.13,290.62 160.33,90.62 306.31,114.4 510.87,124.84zm310.31 -53.98c105.29,-8.72 337.67,-164.87 423.41,-257.92 46.37,-50.32 30.54,-27.15 81.81,-91.39 55.67,-69.75 176.05,-263.91 173.03,-333.99 1.07,-23.76 -1.24,-6.79 -4.98,-14.02 -11.6,29.59 -76.89,82.02 -102.3,108.92l-558.74 558.48c-20.29,20.64 -3.64,14.05 -26.58,22.49 11.55,15.37 -5.39,3.64 14.35,7.43zm-741.85 -1277.73c130,-94.12 294.74,-0.64 285.64,141.15 -3.41,53.11 -32.68,79.57 -35.84,125.25 20.86,-1.69 15.46,-0.15 31.42,-16.99 131.83,-139.07 -23.01,-420.48 -251.48,-332.54 -9.44,-8.51 -13.8,17.28 -5.71,-15.09 -12.6,15.94 -3.68,0.07 -9.57,22.19 -1.61,6.09 -3.2,17.44 -4.72,24.76 -3.6,17.39 -6.82,33.26 -9.74,51.27zm-6.15 118.32c-20.84,2.27 -34.93,5.49 -47.82,17.96 20.5,9.85 -0.62,17.59 34.97,66.35 65.67,89.95 193.11,50.43 210.04,-17.1l-17.91 -6.64 23.97 -6.52c1.27,-38.26 2.61,-63.51 -24.24,-89.14l-16.23 5.99c-19.41,-5.66 -2.77,12.55 -11.88,-8.39l6.51 -13.04c-65.15,-34.74 -137.21,32.17 -81.05,109.65 63.46,7.28 28.85,-21.27 41.99,-55.01 69.68,-22.57 50.9,84.2 -17.18,87.95 -63.18,3.49 -94.82,-49.32 -99.34,-88.05 -0.24,-2.11 -1.03,-2.77 -1.83,-4.01zm-112.93 54.73c20.29,-1.17 11.01,-2.25 19.05,14.14 2.28,4.67 4.04,12.72 8.63,21.97 9.1,18.33 14.95,19.69 19.54,39.87 -0.68,16.81 -4.39,8.22 6.47,18.22 10.78,-11.47 -11.58,-11.75 14.35,-9.26 26.29,47.41 122.49,61.36 184.5,40.33 63.88,-21.67 91.89,-55.61 117.41,-125.52 -18.71,7.1 -34.71,14.15 -59.83,12.73 -16.93,67.53 -144.37,107.05 -210.04,17.1 -35.59,-48.76 -14.47,-56.5 -34.97,-66.35 -23.94,5.83 -52.82,16.73 -65.11,36.77zm119.35 -100.17l11.93 35.23 -18.35 10.21c0.8,1.24 1.59,1.9 1.83,4.01 4.52,38.73 36.16,91.54 99.34,88.05 68.08,-3.75 86.86,-110.52 17.18,-87.95 -13.14,33.74 21.47,62.29 -41.99,55.01 -56.16,-77.48 15.9,-144.39 81.05,-109.65 16.94,-8.2 35.87,-16.73 63.54,-15.17 -20.4,-28.07 -60.68,-56.62 -118.09,-47.35 -66.65,10.76 -64.12,46.01 -96.44,67.61zm555.99 469.61l-92.21 99.22c-11.24,10.77 -15.82,12.62 -25.26,22.43 -0.89,0.93 -2.07,2.26 -2.94,3.2 -0.87,0.95 -1.99,2.32 -2.84,3.28 -1.16,1.33 -4.37,5.35 -5.51,6.67l-225.58 228.32c-22.83,21.16 -13.52,5.14 -16.32,24.21l286.27 -280.4c15.38,-16.59 76.8,-81.81 97.46,-90.78l159.62 162.21c19.32,18.73 29.75,37.89 55.41,48.78l-19.58 -25.21c-37.68,-39.14 -170.51,-177.03 -194.38,-188.34 11.96,-20.78 217.39,-224.45 232.55,-231.62l-7.19 -8.43c-34.59,12.01 -34.44,30.1 -64.32,54.87 -17.46,14.48 -37.97,37.58 -57.55,55.89 -35.5,33.22 -71.38,80.65 -117.63,115.7zm149.09 748.17l36.5 -12.93c-19.74,-3.79 -2.8,7.94 -14.35,-7.43 22.94,-8.44 6.29,-1.85 26.58,-22.49l558.74 -558.48c25.41,-26.9 90.7,-79.33 102.3,-108.92 3.74,7.23 6.05,-9.74 4.98,14.02 13.49,-13.48 8.64,-5.56 12.18,-29.13 -34.71,11.33 -74.25,62.79 -100.44,89 -145.48,145.58 -400.65,407.71 -541.85,540.88 -19.34,18.25 -80.56,71.92 -84.64,95.48zm-554.38 -341.49c-19.25,15 -33.81,36.67 -43.7,62.61 17.4,-1.57 6.94,-7.51 27.63,10.48l219.9 222.61c19.82,19.67 70.68,62.1 76.74,86.84 25.9,-1.03 51.83,2.8 69.92,-8.58 -66.04,-12.3 -18.86,37.08 -116.18,-60.94l-217.38 -218.87c-27.11,-28.19 -37.85,-29.41 -38.86,-46.16 -0.4,-6.78 48.42,-47.61 56.56,-67.34 -19.58,5 -4.53,0.14 -23.31,13.72 -16.29,11.76 1.46,9.54 -11.32,5.63zm-222.83 -700.14c-4.59,-20.18 -10.44,-21.54 -19.54,-39.87 -4.59,-9.25 -6.35,-17.3 -8.63,-21.97 -8.04,-16.39 1.24,-15.31 -19.05,-14.14 -20.17,11.19 -22.52,15.48 -37.65,33.12 -5.28,6.16 -26.77,27.81 -16.93,37.93l47.92 -0.52c20.69,-0.67 35.52,2.38 53.88,5.45zm268.96 -76.66c25.93,-16.09 29.8,-27.27 22.6,-67.36 -5.18,-5.53 -12.92,-15.07 -25.67,-20.11 -19.91,-7.9 -26.81,-8.45 -37.4,4.32l16.23 -5.99c26.85,25.63 25.51,50.88 24.24,89.14zm1241.96 353.75l8.85 -10.31 -25.24 -23.34c-6.28,-6.3 -10.95,-10.78 -17.28,-17.01 -14.08,-13.86 -21.68,-28.05 -44.71,-37.81 7.67,25.61 -6.38,4.11 19.14,27.78l59.24 60.69zm-882.8 16.37c-0.65,-1.4 -1.48,-3.31 -1.98,-4.2 -0.51,-0.9 -1.46,-3.12 -2.12,-4.2l-5.11 -7.62c-5.13,-6.93 -5.16,-5.91 -8.53,-9.56 -15.1,-16.48 -38.94,-52.12 -61.74,-55.37 8.18,25.19 58.56,72.12 79.48,80.95z"/>
   <path class="fil5" d="M1419.02 3377.07l-518.28 -913.77 -1.98 -85.38 122.45 0 397.81 700.96 307.79 -534.16 333.93 542.44 393.18 -701.3 118.81 0 3.98 85.39 -516.3 915.42 -322.35 -575.2 -319.04 565.6zm1362.21 -848.24c0,60.9 -30.45,91.35 -91.35,91.35 -62.21,0 -93.32,-30.45 -93.32,-91.35 0,-60.9 31.11,-91.35 93.32,-91.35 60.9,0 91.35,30.45 91.35,91.35zm-35.75 851.88l-119.13 0 0 -665.22 119.13 0 0 665.22zm732.74 0l-119.14 0 0 -325.66c0,-60.9 -19.2,-110.21 -57.58,-147.94 -38.4,-37.73 -88.04,-56.59 -148.93,-56.59 -59.58,0 -108.89,19.2 -147.94,57.58 -39.05,38.4 -58.58,87.38 -58.58,146.95l0 325.66 -119.15 0 0 -665.22 119.15 0 0 89.36c59.57,-48.98 128.41,-73.47 206.52,-73.47 90.02,0 166.8,31.77 230.34,94.98 63.54,63.54 95.31,139.99 95.31,229.68l0 324.67z"/>
  </g>
 </g>
</svg>
