<?xml version="1.0" encoding="UTF-8"?>
<!DOCTYPE svg PUBLIC "-//W3C//DTD SVG 1.1//EN" "http://www.w3.org/Graphics/SVG/1.1/DTD/svg11.dtd">
<!-- Creator: CorelDRAW 2017 -->
<svg xmlns="http://www.w3.org/2000/svg" xml:space="preserve" width="50.7998mm" height="33.8666mm" version="1.1" style="shape-rendering:geometricPrecision; text-rendering:geometricPrecision; image-rendering:optimizeQuality; fill-rule:evenodd; clip-rule:evenodd"
viewBox="0 0 5079.98 3386.66"
 xmlns:xlink="http://www.w3.org/1999/xlink">
 <defs>
  <style type="text/css">
   <![CDATA[
    .fil2 {fill:#920501}
    .fil4 {fill:#C43302}
    .fil3 {fill:#FD9C0B}
    .fil1 {fill:#373435;fill-rule:nonzero}
    .fil0 {fill:#373435;fill-rule:nonzero}
   ]]>
  </style>
 </defs>
 <g id="Capa_x0020_1">
  <metadata id="CorelCorpID_0Corel-Layer"/>
  <g id="_1895703208992">
   <path class="fil0" d="M1941.6 2784.04l-555.39 -979.19 -2.12 -91.5 131.22 0 426.29 751.15 329.83 -572.41 357.84 581.28 421.33 -751.51 127.32 0 4.26 91.5 -553.26 980.97 -345.43 -616.39 -341.89 606.1zm1459.75 -908.97c0,65.26 -32.63,97.88 -97.89,97.88 -66.67,0 -100.01,-32.62 -100.01,-97.88 0,-65.26 33.34,-97.89 100.01,-97.89 65.26,0 97.89,32.63 97.89,97.89zm-38.31 912.87l-127.67 0 0 -712.84 127.67 0 0 712.84zm785.21 0l-127.67 0 0 -348.98c0,-65.25 -20.58,-118.09 -61.71,-158.52 -41.15,-40.43 -94.34,-60.65 -159.6,-60.65 -63.84,0 -116.68,20.57 -158.53,61.71 -41.85,41.14 -62.77,93.63 -62.77,157.46l0 348.98 -127.68 0 0 -712.84 127.68 0 0 95.75c63.84,-52.49 137.6,-78.73 221.3,-78.73 96.47,0 178.75,34.04 246.84,101.78 68.09,68.09 102.14,150.02 102.14,246.13l0 347.91z"/>
   <g>
    <path class="fil1" d="M138.55 898.54l1.57 316.11c1.93,2.9 12.88,5.17 32.86,6.93 11.66,0.87 29.1,2.28 52.15,4.2 30.85,2.89 53.55,1.58 68.1,-4.12 21.91,-13.67 40.31,-35.76 55.04,-66.25 12.09,-25.15 20.5,-52.93 25.15,-83.35 2.18,-14.54 3.33,-27.95 3.33,-40.05 0,-45.22 -11.75,-78.7 -35.32,-100.6 -18.58,-17.27 -47.07,-30.51 -85.45,-39.53 -23.93,-1.58 -47.68,-1.93 -71.25,-1.05 -27.87,1.05 -43.3,3.59 -46.18,7.71zm-126.47 -46.36l110.69 1.83 131.81 -2.62c22.61,-0.53 45.04,2.28 67.3,8.5 75.2,20.68 117.53,70.73 126.9,150.12 0.88,52.41 -9.29,96.32 -30.32,131.72 -13.76,23.14 -26.11,40.23 -37.07,51.36l-45.04 46.01 276.67 368.09c35.06,46.88 60.56,76.5 76.43,88.68l14.63 11.31c19.72,15.25 47.06,23.75 82.11,25.68 2.9,2.01 4.39,4.64 4.39,7.71 0,2.37 -1.06,5.09 -3.16,8.24l-14.55 2.8c-41.45,0.88 -85.1,-3.68 -131.02,-13.58 -16.73,-3.6 -29.35,-9.03 -37.68,-16.22 -10.17,-9.55 -20.16,-19.27 -30.06,-29.01 -14.37,-19.19 -31.73,-41.18 -52.15,-65.98 -5.26,-5 -23.22,-27.52 -53.89,-67.75l-203.15 -267.03c-6.84,-8.77 -12.53,-13.5 -17.18,-14.2 -31.46,-1.41 -56.17,-2.11 -74.14,-2.11 -18.06,0 -29.36,0.7 -34,2.02 -1.58,74.76 -1.93,157.13 -1.05,247.05 1.05,102.81 3.32,163.45 7.01,181.94 7.01,14.37 12.7,21.56 17,21.56l27.17 8.67c1.22,3.17 1.84,5.79 1.84,7.98 0,4.47 -2.46,7.02 -7.19,7.71 -24.02,-0.52 -55.13,-1.58 -93.51,-3.15 -22.96,-0.97 -47.76,-1.14 -74.41,-0.52l-6.75 -5.61c3.77,-3.69 5.7,-6.23 5.7,-7.63 0,-2.02 -1.05,-2.72 -3.06,-2.02l19.45 0c10.16,0.36 17.53,-12 22.08,-36.98 4.21,-44.52 6.31,-77.39 6.31,-98.68 0,-7.19 -0.17,-12.97 -0.52,-17.44l2.63 -643c0,-26.03 -4.47,-43.12 -13.5,-51.36 -3.94,-2.72 -5.96,-5.52 -5.96,-8.5 0,-0.97 0.35,-2.19 1.06,-3.6 0.52,-0.61 0.96,-1.31 1.31,-2.01 -0.53,0 -1.05,-0.09 -1.58,-0.26l-36.99 -1.5c-5.25,-1.83 -7.44,-5.16 -6.39,-9.89 3.42,-6.58 7.36,-9.38 11.83,-8.33zm584.47 347.04c-1.75,39.18 -0.7,73.27 3.07,102.19 4.99,38.39 17.27,77.13 36.99,116.39 26.73,53.37 56.87,88.86 90.61,106.3 21.74,11.31 34.18,17.45 37.51,18.5 0.97,0.17 18.5,3.32 52.32,9.46 15.08,1.22 34.18,1.22 57.23,0 30.15,-1.49 59.07,-8.76 86.76,-21.82 30.68,-14.38 60.13,-40.58 88.34,-78.7 28.22,-38.13 44,-82.38 47.24,-132.95 0.7,-13.15 1.05,-26.38 1.05,-39.79 0,-85.62 -19.01,-155.3 -56.96,-209.02 -18.49,-26.2 -48.81,-48.64 -91.06,-67.3 -39.88,-17.62 -78.08,-26.47 -114.72,-26.47 -32.69,0 -63.01,6.75 -91.05,20.33 -46.01,22.09 -80.72,49.95 -103.95,83.7 -15.6,22.44 -26.11,40.58 -31.55,54.42 -6.65,17.35 -10.6,38.92 -11.83,64.76zm226.64 -261.86c9.73,-0.52 19.28,-0.79 28.48,-0.79 46.71,0 88.69,6.58 125.85,19.81 123.92,43.91 189.39,135.76 196.4,275.45 0.35,6.83 0.52,14.72 0.52,23.84 0,100.61 -31.63,183.51 -94.99,248.71 -61.62,63.54 -142.33,95.27 -242.15,95.27 -45.4,0 -85.8,-6.92 -121.2,-20.77 -123.05,-48.29 -189.75,-145.13 -200,-290.61 -0.7,-9.56 -1.05,-18.67 -1.05,-27.26 0,-88.25 30.23,-164.58 90.62,-228.91 54.95,-58.37 127.42,-90.01 217.52,-94.74zm358.45 462.21c0.7,-0.35 1.49,-0.53 2.28,-0.53 3.16,0 6.49,1.75 9.91,5.17 4.99,95 46.27,148.9 123.83,161.61 9.47,1.49 19.1,2.28 29.01,2.28 17.26,0 33.3,-2.72 48.2,-8.24 34.35,-12.71 59.68,-28.84 75.9,-48.29 12.53,-14.98 21.91,-36.02 28.22,-63.19 0.87,-16.38 -0.09,-32.24 -2.9,-47.76 -1.75,-9.12 -7.44,-23.49 -17.26,-43.03l-16.74 -24.01 -75.72 -64.06c-31.38,-24.64 -70.29,-56.89 -116.74,-96.67 -20.94,-21.21 -39.09,-43.82 -54.51,-67.75 -16.3,-25.5 -24.45,-56.09 -24.45,-91.85 0,-32.68 8.32,-61.25 24.89,-85.7 36.55,-53.55 94.56,-83.17 174.22,-88.78 37.34,-2.54 76.78,-0.18 118.23,7.18 26.2,4.65 38.39,11.4 36.72,20.25l10.26 64.42 0 69.49c-2.2,11.13 -4.82,16.65 -7.72,16.65 -1.83,0.18 -3.59,0.26 -5.17,0.26 -4.55,0 -6.92,-1.13 -6.92,-3.32l-7.45 -43.12c-22.79,-61.26 -72.91,-91.85 -150.57,-91.85 -3.41,0 -6.65,0.09 -9.72,0.26 -32.51,5.79 -58.28,17.27 -77.12,34.36 -21.56,19.55 -32.34,44.87 -32.34,75.98l0 20.86c1.4,10.95 9.38,26.55 23.92,46.89l21.39 29.79 33.21 32.87c74.75,57.14 116.12,90.27 124.01,99.38 32.69,26.21 60.65,58.02 83.96,95.53 20.33,32.86 30.5,66.25 30.5,100.17 0,24.98 -3.69,46.62 -11.05,64.76 -33.83,84.05 -105.51,129.71 -214.88,136.9 -27,1.66 -54.25,0.7 -81.6,-3.07 -25.32,-3.6 -45.04,-7.98 -59.07,-13.15 -23.13,-8.5 -34.7,-14.11 -34.7,-16.65l-6.14 -11.57c-1.22,-42.33 0.36,-93.95 4.73,-154.77 0.53,-7.54 3.69,-13.41 9.38,-17.7zm941.52 -507.69c0.97,0.35 3.33,2.27 7.01,5.87 3.68,3.6 5.52,5.87 5.52,6.75l4.13 98.41c-1.94,4.56 -4.22,7.46 -7.02,8.42l-7.97 -2.81 -2.89 -5.61 -2.54 -29c-6.14,-21.21 -28.84,-35.23 -67.92,-41.9 -6.49,-0.34 -61,-0.52 -163.54,-0.52l-1.58 448.88c0,47.42 2.11,83.52 6.4,108.33 3.77,13.67 9.64,22.43 17.7,26.2l19.98 5.61 37.43 1.32c8.06,0.34 12.88,2.1 14.63,5.34 0.88,6.49 -1.92,10.69 -8.23,12.53 -16.13,-0.17 -65.47,-0.96 -148.12,-2.54 -27.96,-0.44 -46.18,-0.17 -54.69,0.96 -8.93,0 -14.63,-2.36 -17.26,-7.01 -0.18,-1.05 -0.26,-2.1 -0.26,-3.07 0,-3.85 1.4,-6.39 4.21,-7.79 24.8,0 39.78,-3.68 44.86,-11.04 11.23,-7.89 16.92,-39.35 17.1,-94.48l1.14 -487.8 -172.3 3.86c-24.11,2.89 -39.79,7.97 -46.98,15.33l-15.95 23.67 -8.15 26.21c-4.11,2.54 -7.45,3.85 -10.08,3.85 -2.89,0 -4.82,-1.76 -5.87,-5.17 -2.54,-5.17 0,-28.66 7.71,-70.73 2.19,-12.26 3.68,-19.54 4.39,-21.82 0.96,-3.94 2.89,-7.54 5.6,-10.78l543.54 0.53zm64.78 112.52l85.44 -1.57 35.23 1.57 8.25 3.07c0.6,4.65 0,7.63 -2.11,9.03l-12.09 1.05c-1.85,1.05 -3.86,2.01 -5.88,3.07 -9.55,4.82 -14.37,22.43 -14.37,53.02l1.22 423.74c0,32.77 3.43,51.79 10.26,56.87l8.15 6.13 24.8 5.96c1.49,1.15 2.28,2.72 2.28,4.56 0,1.41 -0.43,2.9 -1.22,4.65l-11.04 3.07 -135.32 -3.07 -5.18 -4.03 0 -5.09 4.13 -3.07c12.26,0 19.28,-0.43 21.2,-1.31 8.07,-3.59 12.8,-11.13 14.2,-22.52 4.47,-38.65 5.87,-66.17 4.12,-82.38l-2.1 -410.07c-2.02,-10.77 -5.44,-18.93 -10.26,-24.36l-9.11 -5.17 -15.42 0c-3.16,-1.58 -4.74,-3.77 -4.74,-6.75 0,-0.96 0.18,-2.1 0.53,-3.33l9.03 -3.07zm181.33 136.11c0,-37.69 3.42,-77.47 10.26,-119.28l5.96 -13.14 11.3 0 18.4 5.69 57.85 2.72 343.28 0c4.91,1.67 8.24,3.85 9.99,6.4 0,4.73 -3.33,12.62 -9.99,23.66l-188.77 314.8 -150.65 243.55 212.08 0c25.15,0 44.52,-2.99 58.28,-8.94l25.85 -11.31 11.04 -9.2c9.82,-12.44 16.39,-23.75 19.81,-34.01 4.82,-23.75 8.5,-35.93 11.04,-36.63 1.41,-0.35 2.55,-0.53 3.6,-0.53 5.52,0 8.33,4.04 8.5,12.1 0.96,33.56 -4.73,74.93 -17.27,124.18 -1.49,5.97 -4.73,10.61 -9.73,13.85l-7.44 2.54 -402.09 -3.07c-7.54,0 -12.01,-1.57 -13.58,-4.81l0 -10.26 3.59 -8.67 344.42 -566.32 -228.3 -0.88c-21.82,2.27 -40.32,5.26 -55.48,9.03 -4.29,0.87 -10.69,2.1 -19.01,3.85 -6.4,1.32 -12.1,5.08 -17.27,11.31l-14.63 28.22 -4.82 25.15c-2.46,5.96 -5.79,8.59 -10.08,7.71l-3.86 -1.31 -2.28 -6.4zm653.8 192.45l1.49 4.29 194.55 0 -96.31 -252.39 -6.14 5.6 -93.59 242.5zm119.01 -395.16c0.71,-0.17 3.07,-1.31 6.93,-3.33 0.35,2.37 1.84,6.57 4.38,12.62l238.9 574.3c3.16,8.06 7.98,20.16 14.55,36.45 3.24,8.06 6.92,14.2 11.04,18.5 0.53,0.61 4.64,6.57 12.36,17.7 5.61,8.24 10.43,12.79 14.37,13.85 5.79,1.57 13.06,3.94 21.82,7.18 7.54,2.72 15.08,4.12 22.79,4.12l4.91 4.12c0,8.67 -4.3,12.97 -12.8,12.8l-11.83 -0.27 -42.15 -0.43c-42.77,-0.53 -85.19,-1.41 -127.34,-2.64l0 -8.67c5.17,-3.77 10.95,-5.7 17.26,-5.7 4.12,-3.07 6.75,-7.89 7.98,-14.37l-85.19 -214.89 -6.13 -2.46 -229.62 0 -7.71 11.22 -98.33 241.54 -7.54 31.81c-1.05,20.07 2.63,31.63 10.79,34.7l12.62 4.65c9.55,0 14.89,-0.18 15.86,-0.53 -0.97,0 -1.49,0.35 -1.49,1.06 1.05,2.36 1.49,4.46 1.49,6.31 0,4.11 -2.28,7.09 -6.93,8.93 -21.91,-0.35 -46.27,-0.53 -73.18,-0.53 -26.64,0 -55.74,0.18 -87.29,0.53l-6.13 -5.61 1.58 -9.9 10.78 -2.8c4.73,0.61 8.5,0.96 11.31,0.96 4.9,0 9.11,-1.32 12.7,-4.03 3.51,-2.63 8.94,-6.66 16.3,-12.19 16.22,-11.13 33.31,-38.82 51.27,-83.07l266.07 -653.53c3.24,-7.97 8.42,-14.11 15.6,-18.4zm451.88 244.95c-2.1,63.19 -3.15,122.52 -3.15,178.08 0,110.95 2.71,176.68 8.23,197.01 5.09,19.2 28.75,30.68 70.9,34.45 7.89,0.7 16.31,1.05 25.16,1.05 57.23,0 102.53,-14.2 135.92,-42.68 21.56,-18.32 37.17,-40.23 46.72,-65.73 8.06,-21.3 13.14,-48.64 15.16,-82.3 0.52,-8.32 0.79,-16.29 0.79,-23.83 0,-64.24 -17.18,-117.44 -51.63,-159.59 -13.14,-16.3 -27.86,-29.45 -44.17,-39.62 -36.1,-22.69 -77.73,-35.93 -124.79,-39.52 -36.46,-2.89 -60.82,-1.23 -73,5.17l-5.09 5.87 -1.05 31.64zm-139.79 -75.81l93.26 1.58 145.83 -1.58c26.2,-0.35 54.59,2.02 85.09,7.19 61.44,10.43 110.26,35.84 146.27,76.07 36.02,40.31 55.21,91.58 57.41,153.63 1.05,28.57 -1.41,54.95 -7.19,79.05 -15.95,65.73 -46.36,116.12 -91.23,151.09 -44.88,34.97 -101.14,52.49 -168.97,52.49 -6.66,0 -14.46,-0.26 -23.4,-0.79l-76.07 -4.37 -44.7 -3.95 -110.16 0.79 -5.17 -3.86c-0.18,-0.96 -0.26,-1.93 -0.26,-2.8 0,-2.37 0.78,-3.86 2.36,-4.38l32.17 -3.86c7.97,-0.96 13.67,-9.82 16.91,-26.47 3.07,-30.59 4.56,-53.55 4.56,-68.79 0,-5.52 0,-9.91 0,-13.41l0 -328.47c0,-18.14 -3.33,-30.24 -10.08,-36.29 -10.08,-6.83 -17.62,-9.9 -22.44,-9.19l-28.3 -0.97c-3.95,-1.23 -5.61,-3.42 -4.91,-6.75 2.54,-4.82 5.61,-6.83 9.02,-5.96zm647.4 139.61c-1.75,39.18 -0.7,73.27 3.07,102.19 4.99,38.39 17.27,77.12 36.99,116.38 26.73,53.37 56.87,88.87 90.61,106.3 21.74,11.31 34.18,17.45 37.51,18.5 0.97,0.17 18.5,3.33 52.33,9.46 15.07,1.23 34.17,1.23 57.22,0 30.15,-1.49 59.07,-8.76 86.76,-21.82 30.68,-14.37 60.13,-40.57 88.34,-78.7 28.22,-38.12 44,-82.38 47.24,-132.94 0.7,-13.15 1.06,-26.39 1.06,-39.79 0,-85.62 -19.02,-155.3 -56.97,-209.02 -18.49,-26.2 -48.81,-48.64 -91.06,-67.31 -39.88,-17.62 -78.08,-26.47 -114.72,-26.47 -32.69,0 -63.01,6.76 -91.05,20.34 -46.01,22.08 -80.72,49.95 -103.95,83.69 -15.6,22.44 -26.11,40.58 -31.55,54.42 -6.65,17.36 -10.6,38.92 -11.83,64.77zm226.64 -261.86c9.73,-0.53 19.28,-0.79 28.48,-0.79 46.71,0 88.69,6.57 125.85,19.8 123.92,43.91 189.39,135.76 196.4,275.45 0.35,6.84 0.52,14.72 0.52,23.84 0,100.61 -31.63,183.52 -94.99,248.72 -61.62,63.54 -142.33,95.26 -242.15,95.26 -45.4,0 -85.8,-6.92 -121.2,-20.77 -123.05,-48.29 -189.74,-145.13 -200,-290.61 -0.7,-9.55 -1.05,-18.66 -1.05,-27.25 0,-88.25 30.23,-164.59 90.62,-228.92 54.95,-58.37 127.42,-90 217.52,-94.73zm358.45 462.21c0.7,-0.36 1.49,-0.53 2.28,-0.53 3.16,0 6.49,1.75 9.91,5.17 4.99,95 46.27,148.89 123.83,161.6 9.47,1.49 19.11,2.28 29.01,2.28 17.26,0 33.3,-2.71 48.2,-8.23 34.35,-12.71 59.68,-28.84 75.9,-48.29 12.53,-14.99 21.91,-36.02 28.22,-63.19 0.87,-16.39 -0.09,-32.25 -2.9,-47.76 -1.75,-9.12 -7.44,-23.49 -17.26,-43.04l-16.74 -24.01 -75.72 -64.06c-31.38,-24.63 -70.29,-56.88 -116.74,-96.67 -20.94,-21.21 -39.08,-43.82 -54.51,-67.74 -16.3,-25.5 -24.45,-56.09 -24.45,-91.85 0,-32.69 8.33,-61.26 24.89,-85.71 36.55,-53.54 94.56,-83.17 174.23,-88.78 37.33,-2.54 76.77,-0.17 118.22,7.19 26.2,4.64 38.39,11.39 36.72,20.24l10.26 64.42 0 69.5c-2.19,11.13 -4.82,16.65 -7.72,16.65 -1.83,0.17 -3.59,0.26 -5.17,0.26 -4.55,0 -6.92,-1.14 -6.92,-3.33l-7.45 -43.12c-22.79,-61.26 -72.91,-91.84 -150.56,-91.84 -3.42,0 -6.66,0.08 -9.73,0.26 -32.51,5.79 -58.28,17.26 -77.12,34.36 -21.56,19.54 -32.34,44.87 -32.34,75.98l0 20.86c1.4,10.95 9.38,26.55 23.92,46.88l21.39 29.8 33.21 32.87c74.76,57.13 116.12,90.26 124.01,99.38 32.69,26.2 60.65,58.01 83.96,95.52 20.33,32.86 30.5,66.26 30.5,100.17 0,24.98 -3.69,46.63 -11.05,64.77 -33.82,84.04 -105.51,129.71 -214.88,136.89 -27,1.67 -54.25,0.7 -81.6,-3.07 -25.32,-3.59 -45.04,-7.97 -59.07,-13.15 -23.13,-8.5 -34.7,-14.11 -34.7,-16.65l-6.14 -11.57c-1.22,-42.32 0.36,-93.94 4.73,-154.76 0.53,-7.54 3.69,-13.41 9.38,-17.7z"/>
    <path class="fil2" d="M589.48 1475.51c6.17,-12.4 4.9,-4.85 1.75,-21.04 -11.95,-11.15 -14.27,-13.78 -20.09,-44.97 -19.15,-102.74 9.57,-264.71 73.73,-329.7 26.82,12.75 97.29,57.6 93.4,90.2 28.4,-71.39 24.76,-103.46 70.57,-163.2 38.7,-50.46 62.57,-89.54 70.44,-162.68l43.01 52.72c53.44,63.85 74.83,144.77 75.51,229.55 17.03,-26.89 50.75,-113.4 76.06,-133.5l23.42 -14.3c35.46,148.92 36.15,243.49 -30.67,393.21 -8.48,19.01 -8.93,25.95 -25.39,41.83l-9.9 8.2c-31.99,42.56 -75.99,95.44 -134.24,116.84l-22.55 14.48c210.18,-19.76 302.34,-191.66 301,-366.73 -0.72,-94.75 -17.51,-186.18 -52.97,-265.49 -29.44,-65.84 -94.7,-166.89 -147.79,-187.91 14.06,40.6 53.59,103.34 27.94,146.74 -34.7,-92.75 -82.89,-186.67 -174.9,-242.87 -38.81,-23.7 -66.07,-25.57 -100.66,-41.3 -1.39,-0.12 -32.69,-3.31 -33.23,-3.25 -31.04,3.4 -15.79,-5.73 -29.47,14.5 29.01,3.83 154.61,121.65 97.58,257.68 -23.23,55.38 -54.61,74.01 -94.01,106.28 -27.79,22.75 -75.64,97.85 -99.97,106.82 -3.2,-33.93 7.87,-56.18 13.99,-87.19 -58.6,33.09 -96.38,169.43 -92.09,244.51 4.79,83.96 52.53,187.06 99.53,240.57z"/>
    <path class="fil3" d="M591.23 1454.47c3.15,16.19 4.42,8.64 -1.75,21.04l14.61 17.57c4.71,-69.04 6.08,-199.15 61.88,-232.51 48.96,35.43 58.5,89.17 84.98,142.66 4.51,-6.48 61.23,-288.96 147.08,-331.88 23.49,32.71 23.01,89.28 21.4,133.43 -2.01,54.92 -23.58,84.93 -29.72,127.43 29.8,-8.07 55.33,-27.11 80.74,-35.73l29.07 -3.47c15.36,45.78 -2.02,106.85 -20.2,143.74 -25.69,52.13 -62.66,69.94 -82.24,101.92 58.25,-21.4 102.25,-74.28 134.24,-116.84 19.29,-81.55 54.11,-89.74 53.81,-229.37 -0.05,-23.87 2.45,-60.45 -13.82,-80.34 -24.15,54.86 -67.14,119.75 -117.37,146.88 12.44,-130.13 12.85,-211.68 -55.91,-316.55 -12.62,17.05 -28.13,56.99 -39.09,76.85 -14.66,26.51 -29.41,47.95 -46.56,75.47 -67.37,108.01 -46.98,128.2 -69.53,165.77 -11.78,-49 -44.63,-100.76 -83.91,-121.92 -73.02,61.04 -82.42,207.79 -67.71,315.85z"/>
    <path class="fil4" d="M591.23 1454.47c-14.71,-108.06 -5.31,-254.81 67.71,-315.85 39.28,21.16 72.13,72.92 83.91,121.92 22.55,-37.57 2.16,-57.76 69.53,-165.77 17.15,-27.52 31.9,-48.96 46.56,-75.47 10.96,-19.86 26.47,-59.8 39.09,-76.85 68.76,104.87 68.35,186.42 55.91,316.55 50.23,-27.13 93.22,-92.02 117.37,-146.88 16.27,19.89 13.77,56.47 13.82,80.34 0.3,139.63 -34.52,147.82 -53.81,229.37l9.9 -8.2c16.46,-15.88 16.91,-22.82 25.39,-41.83 66.82,-149.72 66.13,-244.29 30.67,-393.21l-23.42 14.3c-25.31,20.1 -59.03,106.61 -76.06,133.5 -0.68,-84.78 -22.07,-165.7 -75.51,-229.55l-43.01 -52.72c-7.87,73.14 -31.74,112.22 -70.44,162.68 -45.81,59.74 -42.17,91.81 -70.57,163.2 3.89,-32.6 -66.58,-77.45 -93.4,-90.2 -64.16,64.99 -92.88,226.96 -73.73,329.7 5.82,31.19 8.14,33.82 20.09,44.97z"/>
   </g>
  </g>
 </g>
</svg>
