<?xml version="1.0" encoding="UTF-8"?>
<!DOCTYPE svg PUBLIC "-//W3C//DTD SVG 1.1//EN" "http://www.w3.org/Graphics/SVG/1.1/DTD/svg11.dtd">
<!-- Creator: CorelDRAW 2017 -->
<svg xmlns="http://www.w3.org/2000/svg" xml:space="preserve" width="50.7998mm" height="33.8666mm" version="1.1" style="shape-rendering:geometricPrecision; text-rendering:geometricPrecision; image-rendering:optimizeQuality; fill-rule:evenodd; clip-rule:evenodd"
viewBox="0 0 5079.98 3386.66"
 xmlns:xlink="http://www.w3.org/1999/xlink">
 <defs>
  <style type="text/css">
   <![CDATA[
    .str0 {stroke:#C30314;stroke-width:7.62;stroke-miterlimit:22.9256}
    .fil13 {fill:#181618}
    .fil8 {fill:#2C2B32}
    .fil17 {fill:#5A0202}
    .fil12 {fill:#740202}
    .fil4 {fill:#9C0213}
    .fil15 {fill:#9D7255}
    .fil9 {fill:#BA1C32}
    .fil10 {fill:#C30314}
    .fil16 {fill:#C7C1BF}
    .fil6 {fill:#DA0627}
    .fil7 {fill:#DBD4D4}
    .fil11 {fill:#E6354C}
    .fil5 {fill:#EAE4E4}
    .fil14 {fill:#FBFBFB}
    .fil0 {fill:#307ABD;fill-rule:nonzero}
    .fil3 {fill:#EE423B;fill-rule:nonzero}
    .fil2 {fill:#EF4B43;fill-rule:nonzero}
    .fil1 {fill:#FFDD2F;fill-rule:nonzero}
   ]]>
  </style>
 </defs>
<symbol id="Fm1-8-0" viewBox="11475.58 250.67 3386.59 3386.66">
 <path class="fil0" d="M14862.17 1949.14c-2.77,932.84 -759.79,1688.19 -1693.28,1688.19 -935.22,0 -1693.31,-758.12 -1693.31,-1693.35 0,-935.19 758.09,-1693.31 1693.31,-1693.31 933.49,0 1690.51,755.35 1693.28,1688.16l0 10.31z"/>
</symbol>
<symbol id="Fm1-16-0" viewBox="-4066.6 -4035.54 5079.98 2337.84">
 <path class="fil1" d="M1013.38 -4035.54c-51.51,98.63 -103.03,197.25 -154.52,295.89 -2.45,4.69 -4.8,9.17 -11.03,9.62 -31.64,2.28 -63.27,4.64 -95.02,6.99 -0.81,-5.67 2.69,-9.39 4.72,-13.48 20.56,-41.34 41.3,-82.58 61.93,-123.87 1.9,-3.81 4.72,-7.31 4.69,-11.89 0.29,-0.13 0.63,-0.2 0.86,-0.4 0.14,-0.11 0.1,-0.43 0.14,-0.65 -0.31,0.37 -0.62,0.75 -0.93,1.12 -23.33,2.23 -45.07,10.89 -67.34,17.15 -200.58,56.34 -401.02,113.13 -601.49,169.87 -162.35,45.95 -324.67,92.09 -487.03,138.01 -179.76,50.84 -359.56,101.52 -539.34,152.29 -13.25,3.74 -26.47,7.64 -39.68,11.52 -6.69,1.96 -10.84,1.95 -12.45,-7.15 -5.31,-30.05 -11.36,-60 -17.98,-89.8 -2.04,-9.17 -0.03,-12.8 9.06,-15.27 73.51,-19.97 146.94,-40.28 220.34,-60.67 116.53,-32.36 233.03,-64.88 349.55,-97.3 122.33,-34.03 244.67,-68 367,-102 127.73,-35.49 255.45,-70.97 383.18,-106.46 130.22,-36.18 260.42,-72.39 390.65,-108.54 75.48,-20.95 150.98,-41.8 226.46,-62.76 1.13,-0.31 2.04,-1.46 3.05,-2.22l5.18 0z"/>
 <path class="fil1" d="M-1696.68 -1931.83c0.54,0.03 1.07,0.06 1.6,0.09 2.83,-32.59 5.57,-65.2 8.5,-97.79 7.45,-82.91 15.07,-165.81 22.45,-248.73 6.46,-72.61 12.57,-145.25 19.05,-217.86 7.31,-82.06 14.85,-164.09 22.32,-246.13 0.53,-5.74 -0.05,-10.73 -3.75,-15.76 -22.77,-30.92 -45.38,-61.97 -67.61,-93.29 -4.93,-6.95 -7.28,-7.34 -12.48,-0.17 -23.56,32.49 -47.55,64.67 -71.69,96.73 -4.07,5.4 -4.38,10.51 -3.7,16.82 7.58,69.89 14.88,139.8 22.25,209.71 6.42,60.9 12.81,121.81 19.25,182.71 7.36,69.47 14.79,138.94 22.16,208.42 7.25,68.42 14.44,136.84 21.65,205.26l0 -0.01zm-233.61 -1241.21c-6.95,-32.04 -17.99,-62.91 -27.44,-94.21 -58.39,-193.49 -117.15,-386.87 -175.76,-580.29 -0.98,-3.22 -1.72,-6.52 -3,-11.44 5.99,2.62 7.73,7.06 10.22,10.48 134.44,184.55 268.8,369.15 403.18,553.75 1.26,1.75 2.73,3.39 3.76,5.27 5.34,9.74 9.29,10.66 16.51,0.38 114.62,-163.16 229.7,-325.99 344.48,-489.03 33.01,-46.9 65.43,-94.22 98.12,-141.35 0.69,0.58 1.38,1.16 2.06,1.73 -20.71,65.31 -41.27,130.69 -62.18,195.95 -56.41,176.1 -112.95,352.16 -169.42,528.24 -1.01,3.14 -1.67,6.41 -3.13,12.07 56.67,-21.89 111.48,-43.05 168.76,-65.17 -6.86,27.87 -13.17,53.58 -19.5,79.28 -4.02,16.32 -7.49,32.82 -12.35,48.89 -3.24,10.72 -0.94,12.83 9.64,10.15 46.38,-11.74 92.87,-23.06 139.33,-34.48 68.18,-16.74 136.37,-33.44 205.49,-50.39 -3.25,6.1 -8.48,8.39 -12.74,11.58 -131.89,99.02 -263.75,198.08 -395.97,296.67 -9.82,7.32 -8.97,10.66 -1.01,18.65 81.69,81.99 163.17,164.22 243.06,247.98 4.96,5.2 9.54,10.75 12.98,18.72 -27.36,-4.65 -54.81,-8.83 -82.07,-14.03 -77.06,-14.72 -154.07,-29.73 -231.03,-44.97 -8.85,-1.76 -10.75,1.11 -12.02,9.35 -6.6,42.99 -13.96,85.87 -21.39,130.78 -34.66,-25.18 -68.3,-49.63 -101.95,-74.07 -1.1,-0.63 -2.19,-1.26 -3.29,-1.89 -0.42,-0.61 -0.85,-1.22 -1.28,-1.83 -0.16,0.38 -0.33,0.75 -0.49,1.12 0.67,0.17 1.34,0.34 2,0.51 -1.14,1.6 -0.19,2.8 0.76,4.01 37.6,60.46 75.2,120.92 112.82,181.37 5.46,8.77 10.97,17.5 16.99,27.09 5.19,-5.09 4.99,-11.38 6.44,-16.73 15.31,-56.14 30.59,-112.29 45.26,-168.6 2.63,-10.09 6,-12.91 16.76,-10.46 152.97,34.93 306.05,69.38 459.09,103.97 3.33,0.76 6.58,2.06 10.17,0.66 0.09,-5.12 -4.31,-7.22 -7.13,-10.14 -122.11,-126.47 -244.17,-252.97 -366.67,-379.04 -8.91,-9.18 -7,-12.19 2.51,-18.28 171.98,-110.02 343.74,-220.35 515.58,-330.58 3.18,-2.03 5.99,-5.06 11.44,-4.89 -5.2,25.03 -10.43,49.78 -15.47,74.58 -3.52,17.35 -3.4,17.36 12.97,12.03 124.62,-40.55 249.23,-81.08 373.85,-121.61 325.07,-105.76 650.14,-211.52 975.21,-317.25 4.02,-1.3 8.15,-2.31 13.73,-1.02 -399.23,292.39 -798.46,584.79 -1199.97,878.86 185.94,3.59 368.97,7.13 552,10.66 0.19,0.86 0.39,1.7 0.59,2.56 -282.57,119.35 -565.14,238.7 -850.21,359.1 50.67,32.44 99.56,63.75 148.4,95.02 0.11,4.3 -3.58,4.64 -5.85,5.95 -301.58,172.32 -603.23,344.52 -904.71,517.05 -8.56,4.9 -14.18,2.14 -21.14,-1.76 -146.04,-81.83 -292.16,-163.54 -438.21,-245.34 -155.1,-86.86 -310.15,-173.79 -465.23,-260.69 -1.5,-0.84 -2.96,-1.81 -4.54,-2.47 -9.99,-4.17 -7.43,-7.72 0.07,-12.2 34.81,-20.82 69.47,-41.9 104.19,-62.88 23.6,-14.26 47.2,-28.51 73.43,-44.34 -315.18,-116.19 -627.9,-231.46 -940.62,-346.74 0.17,-0.75 0.34,-1.49 0.51,-2.24 183.03,-6.56 366.05,-13.12 550.09,-19.72 -1.8,-5.43 -6.33,-7.31 -9.85,-9.91 -135.14,-100.45 -272.65,-197.64 -410.15,-294.8 -271.48,-191.83 -543.35,-383.1 -815.04,-574.63 -2.75,-1.94 -5.16,-4.37 -7.73,-6.58l-0.22 0.18c5.94,-1.72 11.03,1.52 16.21,3.19 473.29,152.92 946.52,305.95 1419.79,458.91 6.44,2.08 15.03,8.05 19.18,4.19 5.38,-5.01 -1.02,-13.6 -2.6,-20.52 -3.82,-16.71 -8.34,-33.25 -12.63,-50.08 5.7,-1.26 8.25,2.21 11.23,4.13 163.7,105.26 327.31,210.67 491.14,315.74 9.1,5.83 8.81,9.04 1.89,16.66 -108.33,119.2 -216.34,238.69 -324.41,358.12 -1.13,1.24 -2.13,2.59 -5.13,6.28 26.24,-5.2 49.92,-9.84 73.58,-14.59 126.78,-25.45 253.58,-50.81 380.29,-76.61 9.83,-2.01 13.11,0.53 15.6,9.84 15.09,56.19 30.79,112.21 46.3,168.29 0.91,3.31 1.96,6.58 2.94,9.88 4.28,0.08 4.69,-3.53 6.05,-5.77 38.16,-62.66 76.22,-125.36 114.26,-188.07 1.11,-1.83 1.82,-3.89 2.7,-5.85 0.73,-0.99 1.63,-2.08 -0.03,-2.91 -0.31,-0.16 -1.18,0.82 -1.78,1.27 -32.12,12.43 -64.38,24.51 -96.25,37.54 -8.78,3.59 -12.15,2.96 -15.19,-6.64 -8.3,-26.29 -18.03,-52.12 -26.69,-78.3 -2.34,-7.06 -5.09,-8.78 -12.89,-7.55 -90.26,14.21 -180.62,27.87 -270.95,41.62 -4.66,0.71 -9.38,0.95 -17.26,1.72 9.75,-10.65 17.55,-19.43 25.64,-27.95 71.34,-75.15 142.6,-150.36 214.26,-225.18 7.86,-8.21 9.38,-12.06 -0.98,-19.92 -137.12,-104.17 -273.85,-208.84 -410.67,-313.41 -3.65,-2.79 -7.11,-5.83 -12.95,-10.65 16.37,1.01 28.8,5.62 41.43,8.76 103.27,25.7 206.45,51.74 309.66,77.68 15.82,3.97 15.87,3.89 11.79,-11.39 -9.78,-36.63 -19.56,-73.27 -29.28,-109.91 -0.73,-2.77 -2.96,-5.46 -0.3,-9.75 9.17,3.91 18.53,7.8 27.83,11.88 44.61,19.53 89.2,39.14 133.83,58.63 3.1,1.36 6.49,2.05 9.74,3.05 0.47,0.46 1.26,1.38 1.35,1.33 1.36,-0.98 0.8,-1.7 -0.43,-2.25l0.04 0z"/>
</symbol>
<symbol id="Fm0-14-0" viewBox="675.84 -3262.45 3454.76 3386.61">
 <path class="fil2" d="M675.84 -1418.69c12.24,11.9 20.47,26.81 30.08,40.62 35.56,51.12 68.84,103.82 106.98,153.14 20.57,26.59 42.15,52.3 66.5,75.58 1.58,1.51 2.74,3.77 6.39,3.7 -4.21,-16.16 -8.37,-32.1 -12.48,-48.04 -18.47,-71.56 -31.91,-144.09 -42.88,-217.14 -8.15,-54.21 -13.01,-108.61 -11.94,-163.47 0.2,-10.02 -2.96,-19.96 0.1,-30.1 1.69,-5.61 4.98,-9.02 10.14,-10.96 19.49,-7.32 43.3,7.2 45.11,27.78 2.67,30.46 3.67,61.01 7.51,91.42 11.13,88.14 23.77,175.89 48.75,261.5 28.97,99.27 68.17,194.3 116.12,285.74 36.3,69.22 80.63,133.26 128.63,194.83 29.67,38.05 60.45,75.21 92.44,111.3 23.82,26.87 50.63,50.84 77.78,74.35 29.31,25.38 57.17,52.58 88.83,75.07 72.85,51.77 147.43,100.92 225.23,145.02 10.82,6.13 14.84,14.07 11.57,28.19 -6.45,27.89 -13.61,55.61 -20.35,83.44 -2.05,8.46 -7.32,11.75 -15.71,11.18 -8.28,-0.56 -16.07,-3.14 -23.37,-6.65 -68.48,-32.96 -137.16,-65.96 -200.82,-107.5 -77.53,-50.6 -152.37,-105.28 -223.81,-164.26 -55.17,-45.55 -104.25,-97.41 -152.14,-150.57 -59.72,-66.29 -105.54,-141.4 -146.54,-219.96 -52.4,-100.43 -96.71,-204.43 -137.63,-309.95 -26.5,-68.35 -51.39,-137.28 -73.26,-207.28 -0.18,-0.57 -0.8,-0.99 -1.22,-1.48l0 -25.47 -0.01 -0.03z"/>
 <path class="fil3" d="M2454.77 -1766.11c0.02,-14.2 -4.43,-21.43 -16.47,-29.83 -6.64,-4.64 -14.04,-8.3 -19.21,-14.85 -9.51,-12.02 -20.84,-12.46 -30.88,-0.78 -5.15,5.99 -10.81,11.26 -17.25,15.77 -14.47,10.11 -19.55,23.31 -14.62,40.72 4.04,14.28 7.24,28.83 10.14,43.4 9.39,47.29 18.45,94.64 27.69,141.96 0.8,4.1 1.35,7.99 7.44,8.26 5.77,0.25 7.06,-2.76 8.4,-7.1 3.71,-12.03 8.14,-23.85 11.48,-35.98 10.51,-38.11 15.61,-77.35 23.56,-115.99 3.32,-16.14 6.88,-32.23 9.74,-45.57l-0.02 -0.01zm1061.83 135.88c-7.95,0.38 -15.26,-2.87 -22.93,-4.11 -38.54,-6.23 -73.78,2.96 -106.88,22.33 -24.01,14.05 -45.75,31.31 -67.32,48.73 -8.25,6.66 -14.28,15.12 -18.49,24.9 -17.07,39.71 -47.5,57.85 -90.41,56.65 -21.48,-0.61 -42.99,1.1 -64.24,-4.36 -9.58,-2.46 -18.88,1.05 -26.66,6.95 -6.22,4.7 -11.88,10.18 -17.54,15.57 -5.68,5.41 -11.39,10.7 -17.78,15.32 -3.54,2.56 -9.72,1.91 -10.7,7.27 -1.17,6.42 -0.8,13.03 1.75,19.24 4.38,10.63 14.26,15.11 26.63,12.19 9.19,-2.16 18.29,-5.04 27.61,-6.25 17.15,-2.23 34.5,-3.85 51.52,0.94 23.19,6.52 35.74,24.36 44.52,44.88 4.85,11.33 -2.86,22.34 -15.46,24.07 -8.69,1.19 -17.58,0.88 -26.35,1.57 -18.93,1.49 -26.73,10.45 -25.76,29.4 0.13,2.6 0.48,5.2 0.88,7.77 4.04,25.72 -9.92,46.29 -35.78,48.7 -33.78,3.14 -58.51,20.08 -78.75,45.68 -10.72,13.57 -21.13,27.4 -34.66,38.48 -22.53,18.47 -47.21,22.15 -74.15,11.3 -15.84,-6.38 -30.35,-15.04 -43.63,-25.75 -2.29,-1.85 -4.45,-3.85 -6.73,-5.7 -18.08,-14.65 -28.42,-11.76 -36.19,10.09 -5.24,14.76 -6.2,15.33 -22.07,12.82 -4.18,-0.66 -8.35,-1.44 -12.53,-2.1 -19.65,-3.06 -35.25,1.36 -49.42,17.61 -24.39,27.96 -54.31,30.84 -86.26,11.59 -14.51,-8.74 -28.63,-18.12 -44.42,-24.56 -25.75,-10.52 -51.32,-10.54 -76.96,0.51 -12.34,5.32 -23.55,12.53 -35.07,19.28 -78.32,45.83 -156.89,46.73 -235.17,0.08 -20.31,-12.11 -40.76,-23.31 -64.56,-26.59 -33.21,-4.58 -61.59,6.79 -87.19,26.87 -9.34,7.33 -19.21,13.59 -30.93,16.13 -26.89,5.84 -48.73,-3.68 -64.51,-24.88 -11.93,-16.04 -26.88,-19.12 -44.72,-16.77 -4.52,0.59 -8.94,1.84 -13.45,2.54 -15.12,2.33 -20.53,-1.77 -22.34,-16.76 -1.62,-13.41 -3.62,-14.82 -17.17,-12.3 -10.89,2.03 -20.04,7.5 -28.62,14.2 -13.41,10.48 -27.43,19.87 -43.76,25.38 -25.97,8.76 -49.43,4.1 -70.78,-12.7 -11.94,-9.39 -21.05,-21.31 -30.19,-33.25 -16.3,-21.28 -34.65,-40.12 -61.61,-47.46 -8.45,-2.31 -17.27,-3.22 -25.83,-5.21 -23.45,-5.44 -33.9,-20.73 -30.69,-44.39 0.39,-2.9 0.62,-5.85 0.71,-8.77 0.53,-19.34 -6.9,-28.41 -25.92,-31.28 -9.33,-1.41 -18.89,-1.69 -28.07,-3.71 -15.05,-3.32 -19.68,-12.49 -12.56,-26.04 18.61,-35.41 52.62,-58.99 99.41,-41.85 6.72,2.46 13.3,5.49 20.2,7.25 15.56,3.95 32.3,-8.38 33.65,-24.26 0.41,-4.84 -0.5,-9.07 -5.17,-11.73 -10.92,-6.21 -19.61,-15.12 -28.55,-23.71 -16.22,-15.56 -34.11,-21.26 -57.14,-16.06 -29.57,6.67 -59.81,4.04 -89.31,-2.62 -18.82,-4.24 -32.57,-15.06 -39.4,-34.29 -6.83,-19.28 -20.25,-34.22 -36.19,-46.56 -22.19,-17.16 -44.43,-34.32 -67.53,-50.21 -31.05,-21.37 -64.53,-26.93 -100.08,-11.24 -2.37,1.05 -4.91,2.16 -7.43,2.34 -5.27,0.37 -8.55,-2.88 -10.34,-7.44 -1.43,-3.64 0.25,-6.65 3.73,-7.92 32.74,-11.91 62.03,-31.89 96,-40.94 22.63,-6.02 44.57,-4.27 65.99,4.96 7.79,3.36 15.58,6.74 23.93,8.4 14.24,2.83 24.05,-2.52 29.77,-15.94 4.4,-10.32 6.86,-21.19 6.99,-32.32 0.24,-21.62 -10.45,-36.32 -30.04,-44.95 -29.83,-13.15 -61.05,-20.99 -93.48,-23.2 -41.28,-2.81 -82.17,0.44 -122.29,11.09 -19.2,5.1 -36.48,14.03 -51.01,27.76 -12.15,11.5 -26.06,13.94 -41.64,8.75 -11.81,-3.94 -22.5,-10.24 -33.54,-15.83 -7.84,-3.96 -15.67,-8.01 -23.76,-11.4 -13.92,-5.83 -27.08,-4.06 -38.02,6.56 -5.14,4.99 -7.31,3.06 -9.69,-1.94 -3.47,-7.31 -3.91,-15.04 -3.38,-22.95 1.83,-27.51 -7.85,-38.38 -35.34,-40.11 -5.19,-0.33 -10.43,-0.94 -15.51,-2.03 -19.78,-4.24 -30.72,-18.26 -27.9,-38.38 2.29,-16.41 -1.91,-27.92 -17.29,-35.27 -7.13,-3.41 -12.18,-9.78 -16.72,-16.23 -9.92,-14.11 -18.33,-29.29 -30.65,-41.72 -5.03,-5.09 -6.2,-11.57 -0.59,-17.5 5.38,-5.69 11.77,-4.56 16.74,-0.28 29.33,25.28 66.69,26.32 101.78,33.39 17.27,3.48 35.19,-0.63 52.17,-5.6 15.77,-4.62 23.2,-14.96 23.25,-29.94 0.06,-16.46 -7.25,-27.27 -23.08,-32.34 -18.19,-5.83 -37.32,-5.8 -56.11,-7.52 -51.92,-4.76 -103.71,-0.57 -155.52,2.73 -37.4,2.39 -74.41,1.13 -109.41,-14.66 -10.61,-4.79 -20.92,-10.11 -30.8,-18.74 16.88,-2.32 32.5,-4.42 48.1,-6.64 2.56,-0.36 5.1,-1.09 7.57,-1.87 20.98,-6.71 24.79,-21.85 9.19,-37.45 -15.05,-15.06 -32.14,-27.69 -49.36,-40.08 -14.08,-10.14 -26.97,-21.52 -39.26,-33.78 -12.4,-12.37 -16.71,-27 -15.81,-43.94 0.26,-4.82 3.01,-5.24 6.51,-4.96 5.64,0.44 10.85,2.46 15.53,5.5 14.12,9.2 30.24,11.74 46.39,13.94 11.16,1.52 20.74,-2.22 27.33,-11.65 2.96,-4.22 6.82,-6.65 11.2,-8.99 18.71,-10.03 38.18,-18.15 58.27,-24.99 10.8,-3.68 20.42,-9.35 20.34,-23.12 -0.05,-9.39 -4.53,-15.27 -13.49,-18 -8.62,-2.63 -17.46,-2.05 -26.25,-2.09 -12.14,-0.04 -24.05,-1.61 -35.7,-5.04 -16.21,-4.77 -26.07,-15.85 -26.82,-32.38 -1.4,-30.63 -16.14,-50.6 -43.06,-64.53 -27.69,-14.32 -33.57,-38.46 -17.19,-64.95 7.68,-12.43 17.66,-23.42 26.26,-35.31 13.27,-18.34 12.03,-25.25 -6.51,-38.48 -5.57,-3.97 -11.29,-7.76 -17.15,-11.29 -2.96,-1.79 -3.97,-4.08 -3.74,-7.27 0.35,-4.79 4.25,-3.18 6.72,-3.43 7.78,-0.79 15.61,-1.22 23.42,-1.71 16.65,-1.06 26.24,-8.05 29.02,-21.24 3.21,-15.23 -1.08,-24.88 -16.55,-32.66 -19.56,-9.85 -38.12,-21.26 -56.54,-33 -4.4,-2.81 -6.96,-6.28 -8.69,-11.13 -13.35,-37.52 -21,-75.6 -18.22,-115.96 3.03,-43.8 -1.1,-87.25 -12.19,-130.04 -4.88,-18.83 -2.79,-37.13 14.32,-50.5 5.23,-4.08 7.94,-5.11 9.95,3.27 6.77,28.26 16.46,55.57 29.75,81.47 3.1,6.05 7.06,11.72 11.14,17.19 3.89,5.2 8.87,8.98 15.97,5.96 6.75,-2.88 9.96,-8.27 9.75,-15.5 -0.46,-15.31 -1.1,-30.62 -1.69,-45.94 -0.1,-2.6 -0.6,-5.23 -0.43,-7.81 0.46,-7.31 5.85,-10.95 12.06,-7.22 9.05,5.44 17.08,11.09 20.57,23.05 13.98,48.05 39.75,90.48 66.42,132.3 16.5,25.87 34.19,50.95 54.78,73.8 4.72,5.24 9.42,10.68 17.2,14.22 -4.16,-20.13 -9.95,-38.72 -15.96,-57.25 -7.04,-21.71 -14.94,-43.08 -25.83,-63.21 -4.84,-8.95 -10.58,-17.16 -18.3,-23.98 -9.49,-8.38 -15.47,-19.34 -20.6,-30.64 -8.06,-17.79 -15.72,-35.76 -23.36,-53.74 -9.75,-22.95 -23.38,-42.51 -44.13,-57.3 -19.92,-14.19 -25.61,-39.57 -15.24,-61.9 13.14,-28.3 10.27,-54.48 -9.65,-78.52 -11.67,-14.08 -23.98,-27.53 -39.67,-37.49 -5.19,-3.29 -10.87,-7.2 -7.58,-14.93 3.26,-7.67 8.94,-12.07 17.66,-10.71 3.48,0.54 7.03,1.63 10.17,3.21 12.52,6.28 25.02,12.61 37.29,19.36 13.88,7.64 23,18.99 25.33,35.11 0.89,6.09 3.9,10.85 10.47,10.92 7.3,0.08 11.63,-5.11 12.45,-11.6 0.93,-7.36 0.22,-14.96 -0.15,-22.44 -2.31,-47.04 10.1,-88.19 47.5,-119.41 4.76,-3.97 9.35,-8.21 14.45,-11.67 5.09,-3.45 10.98,-5.24 16.12,-0.12 4.67,4.65 3.94,10.44 0.61,15.32 -11.88,17.4 -12.42,38.15 -17.21,57.58 -3.73,15.13 1.66,28.17 14.3,36.89 19.37,13.38 21.15,31.43 15.9,51.94 -0.81,3.15 -1.81,6.29 -3.11,9.26 -10.17,23.21 -5.61,43.76 10.68,62.52 12.81,14.74 28.25,27.21 38.21,44.44 2.43,4.2 5.99,3.44 8.99,0.45 4.55,-4.54 6.7,-10.12 7.41,-16.58 2.28,-20.79 3.26,-41.64 3.65,-62.53 0.24,-13.46 2.47,-26.57 7.39,-39.2 7.38,-18.91 20.84,-30.05 40.98,-33.58 28.06,-4.92 35.17,-12.69 38.37,-40.64 0.52,-4.54 1.02,-9.08 1.53,-13.62 4.27,-38.25 41.84,-70.57 80.42,-69.44 4.76,0.15 6.27,1.01 4.98,6.12 -7.72,30.59 -18.65,58.94 -40,83.66 -55.64,64.42 -75.02,140.59 -65.74,224.18 11.79,106.14 53.07,201.65 108.82,291.47 52.21,84.12 115.83,159.34 183.17,231.51 134.69,144.35 287.28,267.66 447.84,381.73 134.65,95.66 275.91,180.95 416.19,267.81 16.71,10.34 32.95,21 46.24,35.79 6.59,7.33 14.7,12.24 25.2,7.21 9.92,-4.75 14.98,-14.87 13.13,-27.01 -1.35,-8.78 -5.34,-16.7 -8.95,-24.73 -12.22,-27.22 -21.76,-55.14 -22.52,-85.41 -0.62,-24.75 6.67,-46.82 21.39,-66.64 16.71,-22.5 15.23,-39.79 -6.11,-57.97 -46.92,-40 -70.63,-92.59 -83.56,-151.23 -11.02,-49.99 -17.16,-100.88 -27.73,-150.97 -5.04,-23.92 5.74,-43.11 27.63,-53.73 2.92,-1.42 5.95,-2.64 8.98,-3.84 32.92,-12.98 48.81,-37.58 49.47,-72.53 0.23,-12.4 0.3,-24.78 3.2,-36.97 7.23,-30.5 28.12,-48.19 55.61,-59.81 33.74,-14.27 56.37,-39.21 69.35,-73.08 16.98,-44.3 14.67,-88.97 0.69,-133.34 -11.01,-34.93 -17.29,-70.18 -13.03,-106.91 4.17,-35.98 21.93,-55 61.13,-67.71 4.23,-1.37 5.08,0.64 6.25,3.62 3.42,8.67 -0.36,16.05 -4.37,23.15 -9.08,16.06 -13.65,33.09 -11.91,51.57 2.09,22.18 10.25,42.36 21.43,61.3 5.36,9.08 12.3,9.55 20.3,2.43 3.14,-2.79 5.71,-6.24 8.45,-9.47 4.42,-5.19 8.54,-12.14 16.51,-9.76 7.81,2.33 8.49,10.38 8.9,17.11 1.27,20.52 2,41.08 2.81,61.63 0.78,19.57 1.17,39.15 5.78,58.34 3.61,15.04 8.36,30.01 18.16,41.84 22.56,27.22 24.25,58.02 18.45,90.65 -3.66,20.61 -5.83,41.25 -4.98,62.3 1.39,34.43 -5.74,68.2 -9.17,102.26 -1.83,18.15 -2.08,35.91 9.13,51.71 3.04,4.28 6.17,8.49 10.96,10.97 9.42,4.88 17.5,1.18 20.17,-9.11 3.27,-12.6 6.25,-25.29 9.98,-37.76 4.43,-14.84 13.77,-25.42 29.67,-31.07 -8.46,49.5 6.35,95.4 18.41,141.24 9.53,36.21 3.62,67.94 -16.62,98.52 -19.8,29.92 -42.25,57.26 -71.42,78.48 -14.49,10.54 -30.04,18.48 -49,15.14 -4.62,-0.81 -8.79,-2.48 -12.56,-5.13 -14.85,-10.47 -15.08,-19.25 1.14,-25.96 25.63,-10.61 34.07,-29.77 26.71,-60.1 -7.08,-29.19 -18.21,-57.05 -27.74,-85.44 -2.05,-6.12 -4,-4.23 -7.05,-1.17 -13.9,13.94 -19.3,31.37 -20.84,50.4 -0.68,8.46 -1.42,16.92 -1.72,25.4 -0.16,4.32 -1.93,5.32 -5.99,5.42 -15.6,0.37 -27.12,-8.12 -31.68,-25.16 -8.49,-31.71 -10.18,-63.5 -0.95,-95.59 8.74,-30.38 21.64,-59.35 29.5,-90.01 9.12,-35.57 11.99,-71.32 5,-107.6 -0.6,-3.12 -0.75,-6.36 -3.18,-9.61 -8.12,16.32 -15.89,32.39 -24.07,48.25 -10.57,20.5 -16.13,23.1 -38.86,19.13 -17.91,-3.13 -30.24,2.41 -33.87,19.54 -12.49,58.85 -30.89,116.85 -27.73,178.18 2.35,45.44 21.2,84.97 44.24,122.84 22.72,37.35 54.54,64.48 94.96,81.44 35.43,14.85 63.62,37.48 76.05,75.26 12.05,36.61 6.02,72.21 -9.25,106.59 -5.43,12.21 -11.16,24.29 -14.98,37.1 -4.27,14.37 -0.58,24.88 10.17,31.74 6.9,4.4 14.04,4.87 19.84,-0.75 31.81,-30.8 71.57,-49.85 108.4,-73.05 128.04,-80.65 256.59,-160.46 379.35,-249.16 132.76,-95.92 261.14,-197.44 376.04,-314.24 89.41,-90.89 176.48,-184.52 242.52,-295.09 48.94,-81.95 84.46,-168.89 100.05,-263.35 15.17,-91.88 -3.02,-175.07 -66.12,-246.09 -15.73,-17.72 -23.96,-39.35 -31.4,-61.35 -2.71,-8.01 -5.65,-15.96 -8.5,-23.96 28.24,-3.43 65.99,18.55 79.96,46.23 6.69,13.25 10.11,27.5 13.07,41.84 3.85,18.65 13.73,30.22 32.93,35.54 30.85,8.56 47.7,30.83 49.6,62.92 1.13,19.16 4.32,38.2 2.59,57.59 -0.91,10.21 2.05,20.06 9.5,27.95 3.38,3.57 6.75,5.15 10.74,0.95 20.85,-21.97 37.71,-46.58 48.85,-74.86 2.09,-5.29 0.35,-10.98 -0.06,-16.5 -1,-13.33 -2.56,-26.6 -1.76,-40.05 1.28,-21.4 10.38,-38.7 25.98,-53 11.23,-10.3 12.68,-16.67 7.08,-31.33 -5.26,-13.76 -13.71,-25.89 -20.31,-38.98 -3.03,-6 -4.62,-11.86 -2.41,-18.7 3.05,-9.44 7.56,-11.5 15.82,-5.51 11.67,8.45 21.49,19.03 31.74,29.08 1.31,1.28 2.21,3.27 2.67,5.09 3.53,14.01 10,26.84 15.9,39.88 8.87,19.56 12.54,39.61 7.81,60.94 -1.99,8.99 -2.19,18.18 0.77,27.1 2.74,8.27 8.33,13.14 17.3,13.28 9.1,0.15 10.94,-6.76 12.61,-13.58 1.24,-5.06 2.13,-10.2 3.32,-15.27 4.96,-21.19 31.46,-34.11 51.49,-25.23 3.39,1.51 5.82,4.02 4.79,7.51 -2.29,7.69 -3.62,15.86 -9.95,21.87 -7.11,6.74 -13.58,14.09 -19.09,22.26 -12.75,18.88 -13.31,38.06 -2.41,58.05 11.03,20.22 9.32,39.76 -4.9,57.94 -65.39,83.62 -117.85,174.28 -150.35,275.8 -0.97,3.04 -4.69,7.07 -1.15,9.63 3.68,2.65 9,2.58 13.05,-0.15 4.56,-3.09 8.75,-6.8 12.83,-10.55 51.98,-47.73 83.84,-107.45 103.63,-174.33 2.86,-9.68 5.12,-19.55 8.27,-29.13 3.9,-11.87 11.69,-19.98 24.09,-23.59 5.97,-1.74 7.39,-0.15 7,5.71 -1.25,18.89 -2.12,37.8 -3.16,56.7 -0.46,8.33 -0.74,16.58 8.33,21.14 8.99,4.52 15.98,0.6 23.31,-4.65 20.58,-14.76 26.55,-36.12 28.31,-59.69 0.68,-9.11 1.69,-18.16 7.38,-25.94 4.51,-6.16 9.22,-6.65 14.55,-1.24 7.2,7.3 11.77,14.3 9.72,26.35 -10.77,63.22 -13.15,127.17 -14.19,191.17 -0.86,53.36 -22.93,85.79 -72.42,106.06 -3.31,1.36 -6.64,2.72 -9.84,4.3 -13.67,6.76 -18.09,15.17 -15.45,29.14 2.43,12.84 10,19.48 25.13,19.82 15.99,0.35 31.86,0.81 47.74,5.18 -2.19,6.41 -6.83,9.98 -12.65,12.65 -8.57,3.94 -17.24,7.8 -25.43,12.45 -14.91,8.46 -16.55,15.28 -6.58,29 7.08,9.75 15.14,18.8 22.85,28.09 5.87,7.08 10.83,14.66 13.79,23.46 6.4,19.03 2.05,35.29 -12.47,48.94 -6.25,5.88 -13.86,9.63 -21.37,13.62 -18.87,10.04 -30.95,25.07 -31.59,47.12 -0.81,28.03 -7.39,47.1 -52.15,48.64 -12.04,0.41 -24.11,1.37 -36.06,2.95 -13.74,1.83 -18.47,15.36 -9.56,26.2 4.07,4.94 9.54,7.94 15.48,9.87 26.02,8.46 49.64,21.2 70.96,38.4 11.69,9.44 25.02,9.92 38.89,5.3 16.56,-5.52 30.93,-15.22 45.89,-23.81 3.59,-2.06 7.18,-4.11 11.69,-6.7 1.15,14.6 -1.52,27.41 -6.97,39.67 -4.68,10.53 -10.9,20.35 -19.4,27.99 -25.41,22.84 -47.96,48.93 -76.76,67.96 -7.07,4.67 -12.79,10.34 -11.26,19.98 1.54,9.73 7.58,15.79 16.39,19.02 14.77,5.4 30.27,3.78 45.56,4.23 4.03,0.12 9.62,-2.63 11.12,4.43 1.59,7.52 -4.24,8.31 -9,10.27 -9.63,3.98 -19.47,7.57 -28.73,12.28 -35.35,17.95 -71.5,22.3 -110.88,14.06 -52.05,-10.9 -105.15,-9.62 -158.02,-4.98 -14.28,1.25 -28.62,2.76 -42.7,5.36 -20.91,3.87 -30.05,15.86 -29.15,36.19 0.69,15.58 9.52,25.71 27.21,30.06 28.59,7.04 57.01,4.99 85.09,-2.96 21.39,-6.05 41.85,-14.41 60.96,-25.92 1.95,-1.17 4.05,-2.08 6.11,-3.06 5.54,-2.65 10.16,-1.15 13.97,3.31 4.03,4.71 3.75,9.87 0.07,14.32 -8.52,10.32 -17.1,20.61 -26.27,30.33 -13.56,14.37 -25.05,29.88 -32.59,48.35 -4.17,10.21 -9.55,19.99 -15.05,29.58 -12.65,22.08 -31.8,34.21 -57.4,34.82 -8.7,0.21 -10.99,3.64 -9.2,11.49 0.65,2.85 0.78,5.82 1,8.75 1.27,17.12 -5.32,28.12 -22.2,28.17 -29.36,0.07 -54.31,11.56 -79.62,23.79 -15.06,7.27 -31.17,9.47 -47.58,4.31 -3.62,-1.14 -7.27,-2.18 -9.36,-6.3 -6.3,-12.42 -17.28,-19.21 -30.06,-23.4 -42.36,-13.92 -85.84,-18.97 -130.27,-16.05 -27.4,1.81 -54.4,6.37 -80.97,13.26 -39.21,10.16 -57.03,36.64 -49.82,73.51 5.13,26.24 24.17,35.85 47.87,23.62 11.31,-5.84 22.34,-12.13 34.87,-14.99 24.17,-5.54 46.21,0.66 65.98,14.12 14.73,10.03 30.29,17.49 47,23.39 13.07,4.62 25.8,10.61 33.86,23l-0.09 0.09 0.13 -0.04z"/>
 <path class="fil3" d="M1808.85 -382.66c3.82,2.63 7.21,5.08 10.72,7.36 26.45,17.19 52.89,16.36 74.71,-6.31 17.1,-17.75 38.35,-26.57 59.74,-35.84 9.11,-3.95 14.14,-8.37 14.13,-19.21 -0.03,-28.07 13.26,-50.49 32.16,-70.19 14.7,-15.31 31.6,-28.2 48.14,-43.37 -12.77,-5.57 -25.67,-6.17 -38.18,-8.25 -11.59,-1.93 -23.19,-3.66 -33.91,-8.83 -2.88,-1.39 -6.52,-2.54 -6.63,-6.42 -0.11,-3.92 3.38,-5.09 6.33,-6.55 12.71,-6.27 12.62,-6.28 5.12,-18.56 -2.3,-3.76 -5.96,-7.58 -3.25,-12.48 2.64,-4.78 7.67,-4.31 12.2,-4.39 10.44,-0.17 21.03,0.92 31.29,-0.48 29.57,-4.04 49.13,-21.2 52.51,-52.14 3.87,-35.4 23.67,-56.08 52.58,-72.31 43.2,-24.25 87.92,-45.57 131.5,-69.06 18.08,-9.74 36.06,-19.7 53.03,-31.3 27.3,-18.66 32.4,-31.69 25.28,-64.06 -2.52,-11.46 -5.57,-22.8 -7.76,-34.32 -3.37,-17.8 2.31,-32.12 17.69,-42.22 2.72,-1.79 5.5,-3.5 8.22,-5.29 22.3,-14.72 21.13,-40.94 -2.52,-53.82 -11.82,-6.44 -25.04,-9.15 -37.65,-13.49 -4.79,-1.65 -9.63,-3.14 -14.77,-4.8 2.7,-5.59 7.22,-7.79 11.86,-8.88 14.36,-3.4 27.42,-10.08 40.95,-15.55 9.95,-4.02 20.18,-5.93 30.63,-3.82 34.09,6.87 68.76,6.92 103.22,9.46 26.36,1.94 52.73,3.91 79.06,6.13 9.11,0.77 17.07,4.43 22.49,12.2 2.32,3.33 5.45,5.52 8.66,7.78 91.04,64.23 140.86,152.21 152.77,262.69 3.19,29.59 -6.15,53.84 -24.84,75.47 -22.57,26.11 -49.72,47.07 -77.35,67.41 -19.7,14.5 -39.69,28.63 -59.68,42.72 -13.94,9.82 -26.32,9.4 -41.07,-1.38 34.65,-20.4 59.34,-50.74 83.9,-81.2 2.45,-3.04 4.81,-6.18 6.97,-9.44 4.48,-6.74 6.09,-13.82 0.95,-20.92 -5.16,-7.12 -12.05,-10.72 -21.14,-9.36 -5.98,0.9 -11.09,3.75 -16.04,6.88 -10.81,6.85 -21.1,14.67 -29.16,24.49 -29.5,35.94 -68.31,59.21 -108.61,80.19 -22.62,11.78 -35.86,27.86 -36.34,54.22 -0.42,23.32 -11.68,39.46 -35.11,45.88 -8.14,2.23 -12.32,8.44 -13.32,16.46 -2.09,16.82 1.27,33.13 5.73,49.21 1.99,7.19 7.7,9.31 14.6,8.33 5.81,-0.83 11.51,-2.45 17.33,-2.98 10.08,-0.91 12.57,2.3 9.81,11.97 -2.87,10.08 -7.72,19.31 -12.29,28.68 -8.42,17.25 -5.3,25.19 12.94,30.81 5.99,1.84 8.7,5.03 9.56,10.68 0.59,3.86 1.11,7.73 1.74,11.59 4.18,25.3 18.36,33.92 42.62,25.66 6.83,-2.33 13.53,-4.65 20.92,-4.09 7.35,0.56 13.44,3.17 16.35,10.34 2.85,6.98 -1.5,11.86 -5.87,16.35 -19.07,19.59 -42.73,30 -69.59,31.92 -53.36,3.81 -101.29,-10.88 -142.66,-45.21 -20.91,-17.34 -33.67,-40.39 -42.42,-65.59 -6.07,-17.48 -14.02,-21.17 -29.67,-11.41 -14.3,8.92 -22.51,22.47 -22.87,38.94 -0.79,36.7 -8.18,72.59 -11.62,108.95 -1.05,11.08 -1.41,22.19 -0.1,33.24 3.46,29.24 19.75,49.46 46.04,60.99 17.88,7.85 33.14,18.13 47.19,31.91 23.35,22.89 49.26,24.38 72.37,7.01 15.96,-12 21.03,-27.56 15.12,-46.64 -3.41,-11.01 -9.52,-20.62 -16.19,-29.97 36.7,-14.58 72.88,-0.81 89.24,34 4.29,9.12 7.51,18.74 11.77,27.89 5.5,11.8 11.94,14.88 24.4,11.28 6.97,-2.01 12.67,-0.41 18.52,2.99 9.86,5.71 19.61,11.57 30.72,14.8 13.33,3.86 25.08,1.42 35.66,-7.44 8.11,-6.79 14.51,-15.08 20.06,-23.92 9.52,-15.16 17.73,-31.08 28.11,-45.79 7.93,-11.24 5.39,-21.35 -5.63,-29.84 -5.67,-4.37 -12.07,-7.83 -17.53,-12.43 -7.84,-6.61 -9.23,-15.28 -4.27,-22.58 5.44,-8 12.75,-6.21 20.12,-3.52 1.53,0.56 3.01,1.24 4.5,1.89 17.09,7.47 19.96,6.84 27.17,-10.66 3.39,-8.22 11.68,-11.68 15.05,-20.04 5.12,-12.73 10.09,-25.76 18.53,-37.46 -0.88,9.47 6.14,15.83 8.45,24.11 4.53,16.18 -1.7,30.82 -4.01,46.07 -3.93,25.97 -2.31,52.13 -2.24,78.22 0.06,18.3 -0.42,36.52 -3.55,54.62 -4.99,28.82 -19.98,50.45 -45.21,65.22 -16.98,9.94 -35.52,16.19 -53.64,23.44 -10.91,4.37 -21.56,9.19 -31.56,15.42 -77.93,48.53 -162.2,59.48 -251.18,42.32 -23.35,-4.51 -46.57,-9.48 -68.04,-20.49 -6.82,-3.5 -14.42,-5.41 -20.94,0.91 -6.81,6.6 -8.81,15.56 -4.95,23.49 11.88,24.42 29.86,47.77 62.34,43.86 4.5,-0.54 9.25,-1.21 11.78,4.28 2.8,6.09 0.42,10.98 -3.84,14.95 -14.43,13.42 -31.58,18.68 -50.6,13.42 -17.6,-4.87 -33.7,-12.78 -47.91,-25.14 -39.67,-34.48 -80.67,-67.42 -124.74,-96.14 -17.24,-11.24 -34.93,-21.1 -47.26,-38.41 -5.99,-8.42 -16.01,-10.52 -26.08,-11.51 -19.39,-1.89 -34.34,-15.5 -34.61,-34.85 -0.51,-37.12 -12.33,-71.01 -26.15,-104.58 -7.56,-18.38 -15.03,-36.78 -20.1,-56.05 -3.64,-13.85 -13.34,-20.35 -26.9,-21.78 -14.92,-1.57 -29.87,-2.95 -44.83,-4.14 -17.21,-1.37 -36.18,-23.1 -34.72,-40.17 0.35,-4.05 2.57,-6.66 6.81,-6.99 3.25,-0.25 6.53,-0.11 9.78,-0.41 10.69,-0.98 16,-7.32 14.03,-17.87 -1.49,-7.97 -4.22,-15.71 -6.31,-23.57 -2.04,-7.65 -2.66,-15.25 1.21,-23.22l0.03 0.03z"/>
 <path class="fil2" d="M3815.54 -1148.81c16.56,-15.03 31.48,-31.27 45.75,-48.13 47.96,-56.65 87.45,-119.37 129.39,-180.33 13.45,-19.56 27.32,-38.82 41,-58.21 0.77,0.31 1.55,0.62 2.32,0.92 -2.87,10.26 -5.49,20.61 -8.63,30.79 -22.5,72.9 -48.38,144.6 -75.87,215.74 -38.43,99.51 -80.21,197.57 -128.64,292.65 -33.33,65.45 -69.27,129.42 -114.25,187.81 -19.52,25.33 -40.81,49.19 -62.36,72.76 -27.08,29.61 -55.24,58.17 -84.49,85.73 -44.76,42.15 -93.39,79.37 -142.87,115.57 -38.16,27.92 -76.56,55.53 -115.5,82.33 -45.24,31.14 -94.71,55.02 -143.16,80.58 -24.51,12.93 -49.23,25.48 -74.7,36.44 -3.26,1.4 -6.77,2.31 -10.24,3.17 -16.36,4.06 -21.04,1.24 -25,-14.98 -6.1,-24.97 -12.23,-49.93 -18.23,-74.93 -4.44,-18.48 -0.87,-24.65 15.67,-33.84 41.07,-22.83 80.36,-48.6 119.69,-74.26 46.42,-30.29 93.52,-59.68 135.46,-96.22 44.25,-38.55 90.5,-75.22 129.51,-119.21 75.15,-84.75 145.83,-173.09 202.8,-271.46 39.15,-67.58 71.38,-138.5 99.33,-211.39 28.52,-74.37 50.38,-150.64 65.21,-228.9 7.21,-38.04 11.39,-76.52 16.95,-114.81 5.85,-40.32 8.79,-80.83 11.55,-121.42 1.37,-20.16 27.05,-34.49 45.84,-26.55 9.22,3.9 11.05,12.09 10.5,20.24 -2.65,39.01 -0.79,78.12 -4.85,117.17 -7.67,73.88 -20.61,146.81 -35.84,219.4 -7.48,35.68 -16.12,71.09 -26.42,106.08 -0.64,2.16 -1.62,4.25 0.06,7.28l0.02 -0.02z"/>
 <path class="fil2" d="M3495.1 -2656.27c-0.19,15.36 -13.14,32.94 -25.09,36.18 -11.68,3.17 -20.43,-2.6 -27.62,-10.7 -62.92,-70.88 -136.82,-129.02 -211.86,-186.31 -74.75,-57.08 -159.55,-94.69 -243.59,-134.26 -46.61,-21.95 -93.59,-43.03 -141.44,-62.16 -47.95,-19.17 -98.3,-30.12 -148.16,-42.6 -52.71,-13.2 -106.14,-23.2 -160.15,-29.39 -29.09,-3.33 -58.33,-5.33 -87.63,-6.76 -39.74,-1.93 -79.48,-4.28 -119.24,-3.11 -56.94,1.68 -113.73,5.28 -170.31,12.82 -103.96,13.86 -205.39,37.76 -304.2,72.76 -107.09,37.94 -208.43,87.69 -304.11,148.99 -72.66,46.55 -140.69,99.02 -204.11,157.6 -21.36,19.73 -41.66,40.47 -62.35,60.85 -21.03,20.7 -36.48,18.42 -50.62,-7.58 -6.37,-11.73 -5.38,-17.11 3.96,-28.18 35.26,-41.8 75.65,-78.29 117.55,-113.16 54.4,-45.28 109.93,-89.12 169.41,-127.65 91.77,-59.43 188.89,-108.15 291.68,-145.63 84.61,-30.85 170.99,-55.24 259.51,-71.74 44.75,-8.34 89.84,-14.55 135.26,-18.55 43.55,-3.83 87.12,-5.39 130.81,-6.03 43.69,-0.63 87.34,-0.04 130.87,2.89 62.98,4.23 125.5,12.3 187.63,23.98 101.02,18.99 198.02,51.24 292.75,89.86 112.16,45.73 216.63,105.89 314.69,177.2 77.57,56.41 148.03,120.73 214.71,189.42 6.53,6.73 11.53,14.13 11.66,21.28l-0.01 -0.02z"/>
 <path class="fil3" d="M2217.8 -904.18c7.91,-17.72 16.56,-34.48 22.37,-52.51 7.39,-22.93 8.97,-45.8 1.43,-69.11 -4.74,-14.69 -2.18,-17.12 13.02,-17.39 18.18,-0.32 31.1,7.04 39.79,23.06 6.44,11.86 12.1,23.88 13.28,37.43 2.4,27.51 -10.58,48.79 -36.92,61.95 -16.71,8.35 -35.65,9.33 -52.98,16.57l0.01 0z"/>
 <path class="fil3" d="M3516.69 -1630.32c0.47,0.19 0.94,0.38 1.41,0.58 -0.31,0.26 -0.62,0.52 -0.93,0.79 -0.19,-0.43 -0.38,-0.85 -0.57,-1.28 0,0 0.09,-0.08 0.09,-0.08l0 -0.01z"/>
</symbol>
<symbol id="Fm0-6-0" viewBox="1212.14 -3113.87 3665.34 3386.67">
 <path class="fil1" d="M4877.48 -3113.87c-35.18,67.35 -70.36,134.7 -105.52,202.05 -1.67,3.2 -3.28,6.26 -7.53,6.57 -21.61,1.55 -43.21,3.17 -64.89,4.77 -0.56,-3.87 1.84,-6.42 3.22,-9.2 14.04,-28.23 28.21,-56.39 42.29,-84.59 1.3,-2.6 3.22,-4.99 3.2,-8.12 0.2,-0.09 0.43,-0.14 0.59,-0.27 0.09,-0.08 0.07,-0.29 0.1,-0.44 -0.21,0.25 -0.42,0.51 -0.64,0.76 -15.93,1.52 -30.78,7.44 -45.99,11.71 -136.97,38.47 -273.85,77.25 -410.74,116 -110.87,31.38 -221.7,62.89 -332.58,94.25 -122.75,34.72 -245.54,69.32 -368.3,103.99 -9.05,2.56 -18.07,5.22 -27.1,7.87 -4.57,1.34 -7.41,1.33 -8.5,-4.89 -3.63,-20.52 -7.76,-40.97 -12.28,-61.32 -1.39,-6.26 -0.02,-8.74 6.19,-10.42 50.2,-13.64 100.34,-27.51 150.47,-41.43 79.58,-22.1 159.13,-44.3 238.7,-66.44 83.53,-23.24 167.08,-46.44 250.62,-69.65 87.22,-24.23 174.44,-48.47 261.67,-72.7 88.92,-24.7 177.83,-49.43 266.76,-74.12 51.54,-14.31 103.1,-28.55 154.64,-42.86 0.77,-0.21 1.39,-1 2.08,-1.52l3.54 0z"/>
 <path class="fil1" d="M1212.14 -3103.25c104.46,30.39 208.91,60.81 313.38,91.17 113.5,32.99 227.03,65.87 340.52,98.89 101.07,29.41 202.09,59 303.15,88.45 84.4,24.6 168.8,49.19 253.27,73.55 6.36,1.84 8.19,3.76 5.1,10.16 -4.21,8.73 -7.73,17.83 -10.99,26.97 -2.31,6.46 -5.74,8.5 -12.6,6.61 -56.7,-15.53 -113.46,-30.83 -170.21,-46.18 -72.07,-19.51 -144.13,-39 -216.2,-58.5 -91.36,-24.72 -182.72,-49.44 -274.09,-74.16 -146.69,-39.69 -293.37,-79.39 -440.05,-119.07 -0.83,-0.22 -1.72,-0.2 -4.15,-0.47 4.56,12.34 8.78,24 13.16,35.6 12.04,31.95 24,63.92 36.32,95.76 2.54,6.57 -0.25,7.35 -5.38,6.49 -16.79,-2.81 -33.52,-6.04 -50.36,-8.55 -5.42,-0.81 -5.35,-4.8 -6.49,-8.14 -21.77,-63.78 -43.41,-127.62 -65.26,-191.38 -2.73,-7.98 -4.6,-16.35 -9.11,-23.67l0 -3.54 -0.01 0.01z"/>
 <path class="fil1" d="M3026.85 -1677.3c0.37,0.02 0.73,0.04 1.09,0.06 1.93,-22.26 3.81,-44.52 5.81,-66.78 5.09,-56.62 10.29,-113.22 15.33,-169.85 4.41,-49.58 8.58,-99.19 13.01,-148.77 4.99,-56.04 10.14,-112.06 15.24,-168.07 0.36,-3.92 -0.03,-7.33 -2.56,-10.76 -15.55,-21.12 -30.99,-42.32 -46.16,-63.71 -3.37,-4.75 -4.97,-5.01 -8.53,-0.12 -16.09,22.18 -32.47,44.16 -48.96,66.05 -2.78,3.69 -2.99,7.18 -2.52,11.49 5.18,47.73 10.16,95.46 15.19,143.2 4.38,41.59 8.74,83.18 13.15,124.76 5.03,47.44 10.1,94.88 15.13,142.32 4.95,46.72 9.86,93.44 14.78,140.16l0 0.02zm-159.52 -847.59c-4.75,-21.88 -12.29,-42.96 -18.74,-64.34 -39.87,-132.13 -80,-264.18 -120.03,-396.27 -0.67,-2.2 -1.17,-4.45 -2.05,-7.81 4.09,1.79 5.27,4.82 6.97,7.16 91.81,126.02 183.56,252.08 275.32,378.14 0.86,1.19 1.86,2.31 2.57,3.6 3.65,6.65 6.34,7.28 11.27,0.26 78.27,-111.42 156.85,-222.61 235.24,-333.95 22.55,-32.02 44.68,-64.34 67,-96.52 0.47,0.39 0.94,0.79 1.41,1.18 -14.15,44.6 -28.19,89.24 -42.46,133.81 -38.52,120.25 -77.13,240.48 -115.69,360.72 -0.69,2.15 -1.14,4.37 -2.13,8.24 38.7,-14.95 76.12,-29.4 115.24,-44.5 -4.68,19.03 -8.99,36.59 -13.32,54.14 -2.75,11.15 -5.11,22.41 -8.43,33.38 -2.21,7.32 -0.64,8.76 6.59,6.93 31.67,-8.02 63.42,-15.75 95.14,-23.54 46.56,-11.43 93.12,-22.84 140.33,-34.41 -2.22,4.16 -5.79,5.73 -8.7,7.91 -90.06,67.62 -180.11,135.26 -270.4,202.59 -6.7,5 -6.13,7.28 -0.69,12.74 55.79,55.99 111.42,112.14 165.98,169.34 3.39,3.55 6.51,7.34 8.87,12.78 -18.69,-3.18 -37.43,-6.03 -56.04,-9.58 -52.63,-10.05 -105.21,-20.3 -157.76,-30.71 -6.05,-1.2 -7.34,0.76 -8.21,6.39 -4.51,29.36 -9.53,58.64 -14.61,89.31 -23.67,-17.2 -46.64,-33.89 -69.62,-50.58 -0.75,-0.43 -1.5,-0.86 -2.25,-1.29 -0.29,-0.41 -0.58,-0.83 -0.87,-1.25 -0.11,0.26 -0.23,0.51 -0.34,0.76 0.46,0.12 0.92,0.23 1.37,0.35 -0.78,1.09 -0.13,1.91 0.52,2.74 25.68,41.28 51.35,82.57 77.04,123.85 3.73,5.99 7.49,11.95 11.6,18.5 3.55,-3.47 3.41,-7.77 4.4,-11.42 10.45,-38.34 20.89,-76.68 30.91,-115.13 1.8,-6.89 4.1,-8.82 11.44,-7.14 104.46,23.86 208.99,47.38 313.5,71 2.28,0.52 4.5,1.41 6.94,0.45 0.06,-3.5 -2.94,-4.93 -4.87,-6.93 -83.38,-86.36 -166.74,-172.74 -250.39,-258.83 -6.08,-6.27 -4.78,-8.33 1.72,-12.48 117.44,-75.13 234.73,-150.47 352.08,-225.74 2.17,-1.39 4.09,-3.45 7.81,-3.34 -3.55,17.09 -7.12,33.99 -10.56,50.93 -2.4,11.85 -2.32,11.85 8.86,8.21 85.1,-27.69 170.19,-55.36 255.29,-83.05 221.98,-72.22 443.96,-144.44 665.94,-216.64 2.75,-0.89 5.56,-1.58 9.38,-0.7 -272.63,199.67 -545.25,399.34 -819.43,600.15 126.98,2.45 251.96,4.87 376.95,7.28l0.4 1.75c-192.96,81.5 -385.92,163 -580.58,245.22 34.6,22.15 67.99,43.53 101.34,64.89 0.08,2.94 -2.45,3.17 -3.99,4.06 -205.94,117.67 -411.93,235.26 -617.8,353.08 -5.85,3.35 -9.68,1.46 -14.43,-1.2 -99.73,-55.88 -199.51,-111.68 -299.24,-167.54 -105.91,-59.31 -211.79,-118.68 -317.69,-178.02 -1.03,-0.57 -2.02,-1.24 -3.1,-1.69 -6.82,-2.84 -5.07,-5.27 0.05,-8.33 23.77,-14.21 47.44,-28.61 71.15,-42.94 16.11,-9.74 32.23,-19.47 50.14,-30.28 -215.23,-79.34 -428.78,-158.06 -642.32,-236.78 0.12,-0.51 0.23,-1.02 0.35,-1.53 124.98,-4.48 249.97,-8.96 375.65,-13.46 -1.23,-3.71 -4.33,-4.99 -6.73,-6.77 -92.29,-68.59 -186.18,-134.96 -280.08,-201.31 -185.38,-130.99 -371.04,-261.61 -556.57,-392.4 -1.88,-1.33 -3.52,-2.99 -5.28,-4.49l-0.15 0.12c4.06,-1.18 7.53,1.04 11.07,2.18 323.19,104.42 646.35,208.93 969.53,313.38 4.4,1.42 10.26,5.5 13.09,2.86 3.67,-3.42 -0.7,-9.29 -1.77,-14.01 -2.61,-11.41 -5.69,-22.71 -8.63,-34.2 3.89,-0.86 5.64,1.51 7.67,2.82 111.79,71.88 223.51,143.86 335.39,215.61 6.21,3.98 6.02,6.18 1.29,11.37 -73.97,81.4 -147.73,163 -221.53,244.55 -0.77,0.85 -1.45,1.77 -3.5,4.29 17.92,-3.55 34.09,-6.72 50.25,-9.96 86.57,-17.38 173.16,-34.7 259.69,-52.32 6.71,-1.37 8.95,0.36 10.65,6.72 10.3,38.37 21.02,76.63 31.62,114.92 0.62,2.26 1.33,4.5 2.01,6.75 2.92,0.05 3.2,-2.41 4.13,-3.94 26.06,-42.79 52.05,-85.6 78.02,-128.43 0.76,-1.25 1.24,-2.66 1.85,-3.99 0.5,-0.68 1.11,-1.42 -0.02,-1.99 -0.21,-0.11 -0.8,0.56 -1.22,0.87 -21.93,8.49 -43.96,16.74 -65.73,25.64 -5.99,2.45 -8.3,2.02 -10.37,-4.53 -5.67,-17.95 -12.31,-35.59 -18.22,-53.47 -1.6,-4.82 -3.48,-6 -8.8,-5.16 -61.64,9.7 -123.34,19.03 -185.02,28.42 -3.18,0.49 -6.41,0.65 -11.78,1.18 6.66,-7.27 11.98,-13.27 17.51,-19.09 48.71,-51.32 97.38,-102.67 146.32,-153.77 5.37,-5.61 6.41,-8.23 -0.67,-13.61 -93.64,-71.13 -187.01,-142.61 -280.43,-214.02 -2.49,-1.9 -4.85,-3.98 -8.84,-7.27 11.18,0.69 19.67,3.83 28.29,5.98 70.52,17.55 140.98,35.33 211.46,53.04 10.8,2.71 10.84,2.65 8.05,-7.78 -6.68,-25.01 -13.36,-50.03 -19.99,-75.06 -0.5,-1.89 -2.02,-3.73 -0.2,-6.66 6.26,2.67 12.66,5.33 19,8.11 30.47,13.34 60.91,26.73 91.39,40.04 2.12,0.93 4.43,1.4 6.65,2.08 0.32,0.32 0.86,0.94 0.92,0.91 0.93,-0.67 0.55,-1.16 -0.3,-1.54l-0.04 0.01z"/>
 <path class="fil1" d="M4220.69 -2012.27c-77.43,147.42 -154.38,293.95 -231.34,440.48l1.25 2.04c39.19,-12.57 78.39,-25.14 119.09,-38.19 -4.85,13.28 -12.3,23.47 -18.47,34.22 -38.45,66.91 -77.25,133.62 -115.94,200.4 -55.52,95.83 -111.09,191.63 -166.55,287.5 -68.57,118.56 -137,237.22 -205.59,355.78 -61.8,106.83 -123.8,213.55 -185.6,320.38 -70.94,122.65 -141.69,245.39 -212.65,368.03 -56.94,98.41 -114.06,196.72 -171.09,295.08 -2.81,4.84 -5.88,9.57 -8.21,14.64 -3.38,7.29 -5.92,5.21 -9.02,-0.12 -21.31,-36.67 -42.68,-73.31 -64.06,-109.95 -29.7,-50.88 -59.43,-101.73 -89.13,-152.61 -40.39,-69.19 -80.73,-138.41 -121.14,-207.6 -33.27,-56.98 -66.62,-113.9 -99.9,-170.88 -40.55,-69.44 -81.03,-138.92 -121.6,-208.35 -37.44,-64.09 -74.98,-128.12 -112.42,-192.22 -40.41,-69.18 -80.71,-138.42 -121.12,-207.61 -37.43,-64.1 -74.97,-128.14 -112.41,-192.23 -40.41,-69.18 -80.73,-138.42 -121.13,-207.6 -33.27,-56.98 -66.62,-113.91 -99.92,-170.87 -7.59,-12.97 -15.15,-25.95 -22.63,-38.98 -0.84,-1.46 -2.01,-3.69 -1.47,-4.78 1.2,-2.43 3.52,-0.68 5.42,-0.31 36.85,7.21 73.7,14.42 111.96,21.9 -1.63,-3.61 -2.77,-6.41 -4.11,-9.1 -70.2,-140.56 -140.44,-281.1 -210.47,-421.74 -1.7,-3.41 -8.43,-7.88 0.12,-12.03 13.89,-6.74 17,-6.67 21.59,1.3 45.89,79.62 91.85,159.21 137.74,238.83 47.95,83.2 95.78,166.47 143.78,249.64 46.96,81.39 94.12,162.65 141.1,244.04 45.65,79.08 91.11,158.27 136.77,237.36 38.28,66.32 76.76,132.54 115.07,198.85 38.02,65.81 75.88,131.7 113.89,197.5 58.78,101.77 117.66,203.49 176.43,305.27 64.66,111.99 129.23,224.02 193.83,336.04 4.27,7.41 4.86,7.44 9.35,-0.25 64.54,-110.69 129.01,-221.42 193.6,-332.08 56.42,-96.67 113.01,-193.24 169.45,-289.91 66.24,-113.45 132.37,-226.96 198.57,-340.44 53.58,-91.85 107.2,-183.68 160.77,-275.53 66.2,-113.47 132.35,-226.97 198.55,-340.44 51.07,-87.51 102.21,-174.99 153.26,-262.51 30.12,-51.65 60.2,-103.33 90.09,-155.12 2.87,-4.98 6.11,-7.19 11.88,-7.04 7,0.19 13.9,-2.6 22.41,-0.78l0 -0.01z"/>
 <path class="fil1" d="M3619.23 -1258.87c-29.04,-2.66 -58.08,-5.27 -87.11,-7.99 -41.08,-3.84 -82.14,-7.76 -123.21,-11.65 -18.77,-1.77 -37.57,-3.32 -56.32,-5.37 -7.91,-0.87 -8.9,1.13 -5.91,8.34 32.43,78.35 64.6,156.81 96.82,235.25 1.41,3.44 2.61,6.97 4.76,12.75 -92.07,-56.89 -182.13,-112.54 -273.02,-168.7 -46.73,169.99 -93.2,339.01 -139.67,508.04 -0.58,-0.01 -1.16,-0.01 -1.74,-0.01 -7.24,-24.31 -14.52,-48.63 -21.74,-72.95 -41.31,-139.11 -82.61,-278.23 -123.92,-417.34 -3.1,-10.44 -3.11,-10.45 -12.78,-5.01 -86.26,48.57 -172.52,97.15 -258.81,145.67 -3.46,1.94 -6.63,4.72 -12.45,5.32 40.34,-86.34 80.26,-171.75 121.05,-259.05 -90.42,14.2 -178.96,28.1 -267.64,42.03 -0.12,-3.49 2.34,-3.85 3.9,-4.86 139.88,-90.37 279.82,-180.64 419.56,-271.2 6.78,-4.39 11.41,-4.12 18.14,-0.23 41.29,23.94 82.93,47.27 124.28,71.13 5.1,2.94 8.74,2.71 13.68,-0.01 44.13,-24.3 88.44,-48.28 132.57,-72.58 4.97,-2.74 8.63,-2.85 13.65,0.22 143.83,87.91 287.77,175.64 431.69,263.4 1.67,1.01 3.26,2.13 4.89,3.2 -0.23,0.54 -0.46,1.07 -0.69,1.6l0.02 0z"/>
 <path class="fil1" d="M3324.89 -3034.62c0.54,-0.78 1.07,-1.56 1.61,-2.34 1.14,1.25 0.48,2.39 -0.2,3.53 -0.46,-0.39 -0.93,-0.79 -1.4,-1.18l-0.01 -0.01z"/>
 <path class="fil1" d="M1408.65 -2805.95c-0.44,-0.26 -0.89,-0.53 -1.33,-0.79 1.08,-0.58 1.49,-0.29 1.18,0.92 0,0 0.15,-0.12 0.15,-0.12l0 -0.01z"/>
 <path class="fil1" d="M2867.33 -2524.89c0.84,0.38 1.22,0.87 0.3,1.54 -0.06,0.04 -0.6,-0.59 -0.92,-0.91 0.2,-0.21 0.41,-0.42 0.62,-0.63z"/>
 <path class="fil1" d="M3088.28 -2129.92l-1.37 -0.35c0.11,-0.25 0.22,-0.51 0.34,-0.76 0.29,0.41 0.58,0.83 0.87,1.24l0.16 -0.13z"/>
 <path class="fil1" d="M2948.1 -2128.34c0.42,-0.31 1.01,-0.97 1.22,-0.87 1.13,0.56 0.52,1.31 0.02,1.99 -0.45,-0.33 -0.87,-0.7 -1.24,-1.12z"/>
 <path class="fil1" d="M3088.12 -2129.79c0.74,0.43 1.5,0.86 2.24,1.29 -0.52,0.44 -1.03,0.88 -1.55,1.31 -0.65,-0.82 -1.31,-1.64 -0.53,-2.74 0,0 -0.16,0.13 -0.16,0.13l0 0.01z"/>
</symbol>
<symbol id="Fm2-18-0" viewBox="59855.93 250.68 3386.66 3386.66">
 <path class="fil0" d="M63242.59 1943.99c0,935.22 -758.12,1693.35 -1693.31,1693.35 -935.22,0 -1693.35,-758.12 -1693.35,-1693.35 0,-935.19 758.12,-1693.31 1693.35,-1693.31 935.19,0 1693.31,758.12 1693.31,1693.31z"/>
</symbol>
<symbol id="Fm0-38-0" viewBox="93936 -60961.29 3386.69 3386.66">
 <path class="fil0" d="M97322.69 -59267.99c0,935.23 -758.1,1693.36 -1693.33,1693.36 -935.23,0 -1693.36,-758.13 -1693.36,-1693.36 0,-934.35 756.73,-1691.89 1690.78,-1693.3l5.16 0c934.06,1.4 1690.75,758.95 1690.75,1693.3z"/>
</symbol>
<symbol id="Fm1-63-0" viewBox="59814.27 250.66 3386.62 3386.68">
 <path class="fil0" d="M63200.89 1943.99c0,935.22 -758.12,1693.35 -1693.31,1693.35 -934.38,0 -1691.91,-756.72 -1693.31,-1690.77l0 -5.16c1.4,-934.02 758.94,-1690.74 1693.31,-1690.74 935.19,0 1693.31,758.12 1693.31,1693.31l0 0.01z"/>
</symbol>
 <g id="Capa_x0020_1">
  <metadata id="CorelCorpID_0Corel-Layer"/>
  <g id="_1806785110960">
   <path class="fil4" d="M2482.3 1218.49c-17.34,5.8 -102.73,86.95 -253.85,130.06 -23.16,6.61 -75.36,1.94 -83.3,23.16 -0.34,-0.61 0.93,-1.71 1.09,-1.77 22.73,-8.46 34.17,20.45 34.18,20.46 67.65,-23.66 96.28,-20.25 177.48,-27.26 50.53,-4.13 3.55,-10.38 79.16,-8.26 40.58,1.14 38.88,-7 86.38,-1.47 64.14,7.47 131.95,10.72 197.18,10.77l101.89 7.44 12.92 -3.38c21.34,-16.82 21.1,-14.05 30.75,-45.55 3.45,-11.27 5.71,-23.33 8.16,-31.16l53.73 -149.81c20.13,-18.08 61.3,-22.37 97.72,-35.93 29.09,-10.84 38.37,-41.43 39.84,-43.59 0.52,-0.76 1.95,-2.5 2.55,-3.26 0.64,-0.81 2.33,-2.44 3.06,-3.28 41.53,-47.53 63.83,-152.42 63.83,-218.16 -27.12,15.37 -25.22,3.03 -45.62,61.39 -0.39,-44.56 6.05,-24.31 -15.72,-47.52 -22.66,-24.15 -19.76,-7.76 -29.24,-32.54l-2.43 -27.28c-0.05,-0.73 -0.1,-2.84 -0.2,-3.57l-13.31 -37.74c-0.15,0.3 -6.41,14.4 -8.42,18.38 -18.39,36.34 -9.55,23.18 -25.71,31.49 -7.49,-23.57 -18.67,-27.85 -26.43,-50.43l-9.83 -48.84c-27.13,-10.52 -46.59,-22.39 -73.41,-20.07 -59.68,5.18 -17.9,14.83 -81.85,-5.37 -44.77,-2.96 -32.97,10.29 -76.89,-2.78 -71.7,-21.34 -39.26,31.35 -58.55,-12.5 -6.63,11.54 -8.06,17.19 -9.49,37.47l-17.94 -16.91c-13.64,-8.71 -4.63,-3.41 -22.67,-9.18l-12.32 -3.54c-26.03,-6.29 -12.75,-12 -26.44,0.57l9.63 12.85c10.46,31.7 -5.45,6.34 25.18,32.08l8.36 8.67c0.83,0.89 4.5,5.83 6.73,7.2 21.22,-5.89 21.46,0.22 45.26,-32.27l5.71 -9.02c7.62,22.17 12.07,42.43 21.46,59.23l28.45 32.12c73.51,69.19 76.73,284.54 66.53,308.56 -14.8,34.89 -9.25,10.09 -19.69,6.98 -1.32,-0.39 -4.44,-1.92 -5.59,-2.34 -35.15,-12.6 25.34,1.12 -12.63,-5.21 -34.25,34.48 -32.65,41.14 -33.09,86.26 -12.51,-15.94 -4.91,-13.84 -44.72,-7.79 -24.04,3.65 -38.41,8.74 -57.25,16.54l3 80.76c-60.49,0.26 -36.68,-8.25 -79.86,-16.75 -79.36,-15.62 -54.68,-3.24 -63.78,-27.91z"/>
   <path class="fil5" d="M2105.9 1765.7l6.39 8.92c0.79,0.73 2.7,3.11 3.74,3.95 18.44,14.99 23.24,7.53 43.87,18.43 -14.18,26.12 -1.56,30.51 -11.4,49.46 -12.78,24.59 3.27,3.57 -32.83,-1.95 6.21,17.41 -12.87,77.17 -17.09,98.08 -8.74,43.26 5.05,73.39 25.94,93.05 -4.96,39.26 -16.21,55.66 -5.8,97.91 7.97,-9.15 11.12,-7.66 13.61,-30.11 2.45,-22.17 -12.46,-12.82 5,-38.26l47.1 -2c48.89,-4.86 78.46,9.98 118.31,15.24 49.04,6.47 90.41,-4.8 145.26,4.91 11.51,-11.99 185.94,-19.95 221.18,-24.01 32.85,-3.78 79.95,-6.18 112.79,-11.81 17.95,-3.08 29.1,-8.14 51.97,-4.6 64.72,10.03 44.82,50.57 32.38,157.57 11.9,-6.25 26.12,13.34 25.78,-74.43 -0.13,-32.72 2.37,-51.99 -8.44,-81.41 15.12,-23.77 1.61,5.55 11.78,-15.82 19.64,-41.3 -2.29,-202.47 -10.8,-252.89 -3.2,-18.95 -11.38,-7.41 0.71,-26.26l-9.54 6.98c-16.84,38.07 -7.16,28.22 -44.5,25.58 2.36,2.92 13.24,14.32 13.42,14.62l4.61 9.91c6.95,32.27 -2.49,12.58 -7.01,25.69 -4.56,13.2 -7.79,12.57 -6.61,34.16 3.86,70.28 6.59,-27.53 25.91,88.24 7.3,43.77 14.71,33.77 16.31,53.24 -12.18,4.51 -18.93,-7.87 -33.34,-10.59l-20.54 22.91c-21.07,-0.91 -44.25,-3.87 -58.21,13.69l-13.17 -38.17c-0.52,-3.6 -1.92,-4.47 -3.47,-6.31 -2.85,33.76 -5.29,26.38 -19.77,52.91l-10.12 -41.69c-7.58,37.13 13.39,8.88 -37.62,20.54 -19.87,4.55 -24.7,7.08 -38.91,8.49 -3.5,-24.88 -0.25,-14.15 2.17,-30.74l2.09 -11.82c0.44,-2.53 1.6,-9.92 2.12,-12.57 3.23,-16.66 2.31,-11.83 6.22,-26.96 18.45,-71.23 5.78,-16.51 -8.25,-41.74l-6.87 -49.07c7.52,-64.45 12.5,-35.39 -11.6,-53.03 9.55,-15.21 -12.98,1.3 9.75,-9.79 24.57,-11.98 0.91,-4.22 10.88,2.45l-56.8 -5.9 -308.22 -6.57c-55.22,-12.2 -112.53,-11.91 -160,-29.57 -10.19,-75.31 11.51,-44.68 20.49,-99.85 6,-36.87 14.9,-71.05 19.66,-105.67l-10.62 -69.87c-0.36,-3.16 -1.73,-3.9 -3,-5.59 -13.12,48.17 3.61,67.61 -16.27,108.98 -21.87,45.5 -20.74,39.1 -20.74,98.54 13.21,-14.12 7.6,-3.69 5.75,-33.04l-13.65 117.64z"/>
   <path class="fil6" d="M1772.98 1172.41l2.95 338.16c10.87,-24.59 15.01,-166.27 0.04,-179.23 0,38.93 -6.14,51.87 22.68,79.62l10.32 -101.99c-18.27,12.45 -7.49,28.44 -1.58,46.99 16,-12.88 40.66,-70.66 47.01,-93.54 -14.5,-7.66 -21.28,-12.39 -31.37,-23.59 19.25,41.34 23.16,-6.84 32.67,-22.15 9.26,-14.9 -4.02,-3 11.08,-13.62 29.43,-20.71 20.86,18.5 91.1,-65.51 21.47,-25.68 22.52,-26.58 64.8,-29.43 7.55,-76.52 -6.62,-59.41 126.59,-62.61l4.05 -50.9c23.67,-15.39 19.03,-4.85 42.47,-28.23 15.96,-15.92 16.31,-19.05 27.96,-37.78l57.57 8.61c28.99,-8.11 22.15,-22.49 56.47,-21.15 27.06,1.06 42.18,7.22 58.8,17.27l22.29 -24.64c14.48,-14.23 12.52,-11.27 31.59,-25.4 -13,-31.98 3.17,3.32 -14.29,-15.1l-14.37 -17.48c-15.14,-27.91 -40.38,-82.79 -33.53,-115.73l-43.53 -0.74 -163.38 28.24c-34.5,15.41 3.37,9.41 -44.08,19.68 -51.25,11.08 -45.09,5.67 -75.72,34.22 -7.23,6.74 -11.23,9.4 -17.59,15.22 -36.11,33.02 -8.34,28.05 -24.18,16.81 -1,-0.71 -6.34,-5.33 -7,-8.67 -0.59,-2.96 -2.44,-4 -2.48,-5.27l-10.92 46.75c-12.59,-28.32 -9.83,-14.53 -21.71,-23.73 -14.53,46.91 -30.03,37.55 -37.28,41.03 -49.96,23.97 -37.48,36.8 -75.61,67.09 -1.13,0.9 -2.9,2.43 -4.07,3.26 -17.98,12.7 -30.56,13.39 -57.43,13.62 5.27,-17.18 8.17,-17.87 7.33,-42.87 -1.37,-40.77 2.33,-29.58 -18.99,-43.97l-8.61 36.46c-4.77,78.07 -27.71,156.37 -24.07,176.78 7.28,40.77 16.68,25.68 14.02,63.52z"/>
   <path class="fil7" d="M2628.92 300.7c18.79,5.8 2.68,-10.07 17.87,10.37 -10.48,51.99 -57.16,45.38 -114.09,36.84 -124.39,-18.66 -64.24,-25.89 -176.67,103.14 -61.22,70.27 -38.21,64.58 -73.77,59.79 8.38,45.75 7.37,20.67 -27.08,52.46 -12.23,-4.61 -17.55,-7.77 -27.54,-15.34 -1.06,1.23 -1.5,2.52 -1.62,4.61 -0.16,2.71 -2.05,6.97 -2.26,7.84 -0.11,0.42 -0.35,2.61 -0.47,3.02l-22.8 31.32c-0.97,1.27 -2.29,3.21 -3.29,4.46l-41.45 37.29c8.89,6.75 -0.34,6.9 18.34,6 19.77,-0.96 34.42,-18.51 46.29,-29.34 13.55,-12.36 10.57,-9.26 16.2,-9.57 52.66,-2.87 -31.22,12 15.76,1.98 39.65,-8.47 -1.75,0.18 30.86,-21.06l15.64 -8.16c13.01,-6.35 18.45,-8.51 27.04,-12.43 31.35,88.18 64.16,26.31 98.81,72.56 20.18,-0.35 22.1,-0.77 40.18,3.39 37.63,8.66 24.7,0.2 37.9,22.4 51.71,27.49 21.57,-1.96 75.83,6.26 13.69,-12.57 0.41,-6.86 26.44,-0.57l12.32 3.54c18.04,5.77 9.03,0.47 22.67,9.18l17.94 16.91c1.43,-20.28 2.86,-25.93 9.49,-37.47 19.29,43.85 -13.15,-8.84 58.55,12.5 43.92,13.07 32.12,-0.18 76.89,2.78 -33.74,-30.51 -3.16,-42.22 -48.03,-46.62l18.27 -19.48c12.97,-23.52 -6.47,-32.6 -16.33,-45.58 -33.4,-43.98 -1,-45.88 -34.4,-91.01 -37.74,-51 -8.12,-165.55 -106.9,-203.81 6.23,15.01 6.9,17.83 13.41,31.8z"/>
   <path class="fil8" d="M2467.89 3188.12c-1.4,-49.37 -1.24,-119.19 -5.38,-166.08 -7.96,-90.09 6.86,-72.21 12.8,-141.8 6.05,-70.99 -24.02,-93.02 -14.96,-147 10.52,-62.71 10.1,-93.91 5.6,-159.47 -29.2,-18.6 -56.45,-16.71 -75.39,-19.52l-48.82 -13.92c-52.51,-8.58 -106.86,-8.28 -107.92,48.67 -0.93,50.23 25.7,80.43 30.27,126.06 6.13,61.24 -5.53,79.1 13.65,142.73 58.84,195.23 -24.44,182.59 -18.72,239.86 2.96,29.61 53.27,64.33 75.28,80.74 35.31,26.32 93.49,20.05 133.59,9.73z"/>
   <path class="fil9" d="M2344.75 734.24l43.53 0.74c-6.85,32.94 18.39,87.82 33.53,115.73l14.37 17.48c17.46,18.42 1.29,-16.88 14.29,15.1l57.82 -0.81 37.55 -5.7 15.98 39.25c-39.16,25 -5.53,-3.41 -40.97,3.75 31.48,9.54 35.99,22.08 60.53,28.5 -21.27,26.84 -8.06,-17.6 -26.46,30.6l29.83 6.15c31.73,-5.74 5.75,12.39 25.44,-24.21l-11.17 56.43c-26.8,-19.88 -38.17,-13.45 -58.97,1.87l-11.2 8.6c-18.21,9.73 -8.2,-9.71 -31.23,14.02l31.52 3.27c1.85,0.16 4.12,0.14 6.03,0.36 18.09,2.14 28.96,5.56 42.68,12.08 -14.58,18.74 -21.63,26.95 -49.97,28.96 -43.01,3.05 -38.54,-1.52 -49.81,-14.95 -0.7,-0.84 -1.79,-3.31 -2.91,-4.82 -22.89,26.31 -10,7.39 -42.12,27.41 -9.8,6.11 -11.51,8.13 -18.02,13.17 -120.84,93.49 -44.93,68.27 -259,172.06l-10.04 5.07c-20.95,11.07 5.56,1.45 -27.02,15.22 -32.25,15.43 -96.55,39.02 -131.2,42.75 -65.48,7.06 -26.46,-2.62 -64.96,26.4 -24.36,18.37 -34.8,8.6 -44.7,56.07 110.89,-53.53 79.78,-63.62 243.51,-69.42 1.31,1.71 2.64,2.56 3.09,5.64 0.45,3.05 2.34,4.36 2.94,5.64l25.65 45.02c10.34,-23.07 -12.57,-6.41 27.13,-21.27 -0.01,-0.01 -11.45,-28.92 -34.18,-20.46 -0.16,0.06 -1.43,1.16 -1.09,1.77 7.94,-21.22 60.14,-16.55 83.3,-23.16 151.12,-43.11 236.51,-124.26 253.85,-130.06 67.92,-28.38 161.99,-174.64 180,-272.6 13.55,-73.68 -29.94,-119.46 -68.1,-156.71l-62.22 -78.44c-7.96,-12.03 -1.91,-5.61 -14.4,-18.39 -32.09,-32.83 -30.97,-11.4 -14.81,-30.08 -13.2,-22.2 -0.27,-13.74 -37.9,-22.4 -18.08,-4.16 -20,-3.74 -40.18,-3.39 23.34,37.58 22.49,0.03 37.32,48.45 -73.31,-15.79 -120.8,-73.04 -131.03,13.44 9.18,5.92 11.98,6.51 20.66,10.99 19.74,10.2 3.21,-1.51 20.85,13.97l-27.74 10.91z"/>
   <path class="fil10" d="M2145.77 2364.85c1.76,24.07 8.62,57.77 11.18,95.32 38.19,6.03 123.57,-7.63 184.53,-2.17 14.74,1.32 34.4,5.77 41.11,5.84 40.96,0.45 20.45,-4.49 35.25,-9.52 29.7,-10.09 61.45,-3.46 96.6,-8.96 10.33,-17.76 19.68,-34.03 26.66,-50.05l30.07 6.17 19.91 5.17c61.47,5.37 15.29,3.12 33.32,-13.58 -1.47,-2.17 -3.34,-9.1 -3.76,-10.79 -0.33,-1.3 -1.18,-4.2 -1.57,-5.84l-71.18 -161.05c-23.96,-4.91 -7.64,5.22 -22.67,-7.78 -13.84,24.49 -11.58,29.24 -34.35,39.81 -16.81,-23.06 -12.94,-43.29 -11.47,-74.72 1.92,-40.85 9.02,-43 -14.16,-60.02 37.3,-37.98 26.24,8.56 8.45,-22.46l-0.35 -5.58 -25.34 -1.31c-54.85,-9.71 -96.22,1.56 -145.26,-4.91 -39.85,-5.26 -69.42,-20.1 -118.31,-15.24 -17.72,14.76 24.7,8.62 -26.78,15.62 8.45,8.05 5.24,2.34 39.44,7.81 19.74,3.16 25.45,3.77 49.62,6.53 48.53,5.55 11.8,10.62 90.81,17.05l-30.49 28.23c-62.68,72.01 -7.97,35.05 -53.38,88.16 -29.01,33.92 -48.92,75.8 -49.08,75.32 -0.38,-1.12 -1.84,3.16 -2.46,4.87 -37.11,0.5 -36.09,-7.14 -57.09,1.35 -9.36,33.87 -7.4,24.19 0.75,56.73z"/>
   <path class="fil10" d="M1775.93 1510.57c28.77,-0.78 12.99,1.76 23.2,-13.11l29.43 -5.49c13.26,-28.83 3.79,-18.07 30.27,-33.59 0.66,-1.52 2.16,-5.4 2.49,-4.3l16.78 -29.29c9.9,-47.47 20.34,-37.7 44.7,-56.07 38.5,-29.02 -0.52,-19.34 64.96,-26.4 34.65,-3.73 98.95,-27.32 131.2,-42.75 -25.39,-27.11 2.24,5.24 -36.5,-22.74l-9.44 -8.74c24.37,-11.75 37.91,-23.43 78.43,-23.65 12.29,-25.51 8.41,-22.7 25.76,-44.98 68.3,-87.68 23.47,-67.22 77.52,-88.53 18.42,-7.27 10.53,-2.78 19.81,-10.55 67.45,-56.47 105.6,-61.97 132.94,-86.45 11.79,-10.56 7.25,-7.77 17.59,-14.03 -15.18,-31.97 -21.39,12.26 -9.88,-39.3 15.35,-68.82 91.15,-77.18 93.1,-78.12l-57.82 0.81c-19.07,14.13 -17.11,11.17 -31.59,25.4l-22.29 24.64c-16.62,-10.05 -31.74,-16.21 -58.8,-17.27 -34.32,-1.34 -27.48,13.04 -56.47,21.15l-57.57 -8.61c-11.65,18.73 -12,21.86 -27.96,37.78 -23.44,23.38 -18.8,12.84 -42.47,28.23l-4.05 50.9c-133.21,3.2 -119.04,-13.91 -126.59,62.61 -42.28,2.85 -43.33,3.75 -64.8,29.43 -70.24,84.01 -61.67,44.8 -91.1,65.51 -15.1,10.62 -1.82,-1.28 -11.08,13.62 -9.51,15.31 -13.42,63.49 -32.67,22.15 10.09,11.2 16.87,15.93 31.37,23.59 -6.35,22.88 -31.01,80.66 -47.01,93.54 -5.91,-18.55 -16.69,-34.54 1.58,-46.99l-10.32 101.99c-28.82,-27.75 -22.68,-40.69 -22.68,-79.62 14.97,12.96 10.83,154.64 -0.04,179.23z"/>
   <path class="fil10" d="M2448 2083.33l25.34 1.31c84.01,-16.5 47.04,-2.37 72.73,26.75 -22.24,26.9 -13.62,56.3 1.82,104l71.18 161.05c0.39,1.64 1.24,4.54 1.57,5.84 0.42,1.69 2.29,8.62 3.76,10.79 -18.03,16.7 28.15,18.95 -33.32,13.58l14.18 42.16c53.36,-1.28 117.43,5.85 153.79,-14.87 34.37,-19.59 89.43,-44.39 124.61,-58.12 1.24,-15.88 9.41,-41.14 4.18,-73.13 -2.63,-1.13 -20.73,-6.68 -22.25,-7.28l-26.62 -12.34c2.3,-26.81 3.18,-27.29 10.94,-48.77l16.41 -33.82c12.44,-107 32.34,-147.54 -32.38,-157.57 -22.87,-3.54 -34.02,1.52 -51.97,4.6 -32.84,5.63 -79.94,8.03 -112.79,11.81 -35.24,4.06 -209.67,12.02 -221.18,24.01z"/>
   <path class="fil8" d="M2641.69 2562.62c7.62,50.8 5.87,62.31 17.23,111.05 9.92,42.55 -16.42,71.55 -13.67,120.37 3.84,68.03 40.1,22.37 19.12,107.72 -10.17,41.36 -9.91,79.33 -15.33,119.87l-1.22 39.64c82.12,32.3 152.35,-13.12 209.15,-38.77 7.63,-20.1 24.54,-23.5 16.64,-54.74 -11.98,-47.31 -7.5,-0.4 -32.86,11.08 -26.8,-60.36 -2.14,-337.56 10.9,-412.97l2.05 -57.79c-35.69,0.48 -58.33,16.18 -90.45,24.19 -54.35,13.55 -63.85,-4.21 -108.03,2.91l-0.02 31.53c-6.65,-8.26 11.1,-10.97 -13.51,-4.09z"/>
   <path class="fil11" d="M2155.75 636.5c-98.1,12.74 -128.32,14.82 -191.47,67.18 -38.07,31.57 -167.2,145.41 -188.99,188.38 -4.58,9.01 -31.65,85.58 -33.12,90.55 -8.41,28.31 -22.45,75.23 -15.36,100.32 2.85,10.07 13.08,33.09 18.4,45.09 9.9,22.32 12.12,30.11 27.77,44.39 2.66,-37.84 -6.74,-22.75 -14.02,-63.52 -3.64,-20.41 19.3,-98.71 24.07,-176.78l8.61 -36.46c21.32,14.39 17.62,3.2 18.99,43.97 0.84,25 -2.06,25.69 -7.33,42.87 26.87,-0.23 39.45,-0.92 57.43,-13.62 1.17,-0.83 2.94,-2.36 4.07,-3.26 38.13,-30.29 25.65,-43.12 75.61,-67.09 7.25,-3.48 22.75,5.88 37.28,-41.03 11.88,9.2 9.12,-4.59 21.71,23.73l10.92 -46.75c0.04,1.27 1.89,2.31 2.48,5.27 0.66,3.34 6,7.96 7,8.67 15.84,11.24 -11.93,16.21 24.18,-16.81 6.36,-5.82 10.36,-8.48 17.59,-15.22 30.63,-28.55 24.47,-23.14 75.72,-34.22 47.45,-10.27 9.58,-4.27 44.08,-19.68l163.38 -28.24 27.74 -10.91c-17.64,-15.48 -1.11,-3.77 -20.85,-13.97 -8.68,-4.48 -11.48,-5.07 -20.66,-10.99 10.23,-86.48 57.72,-29.23 131.03,-13.44 -14.83,-48.42 -13.98,-10.87 -37.32,-48.45 -34.65,-46.25 -67.46,15.62 -98.81,-72.56 -8.59,3.92 -14.03,6.08 -27.04,12.43l-15.64 8.16c-32.61,21.24 8.79,12.59 -30.86,21.06 -46.98,10.02 36.9,-4.85 -15.76,-1.98 -5.63,0.31 -2.65,-2.79 -16.2,9.57 -11.87,10.83 -26.52,28.38 -46.29,29.34 -18.68,0.9 -9.45,0.75 -18.34,-6z"/>
   <path class="fil9" d="M3106.31 701.12c-6.85,31.98 -28.82,39.51 -63.09,38.42 -62.89,-2 -45.39,-9.81 -85.06,-38.7l9.83 48.84c7.76,22.58 18.94,26.86 26.43,50.43 16.16,-8.31 7.32,4.85 25.71,-31.49 2.01,-3.98 8.27,-18.08 8.42,-18.38l13.31 37.74c0.1,0.73 0.15,2.84 0.2,3.57l2.43 27.28c9.48,24.78 6.58,8.39 29.24,32.54 21.77,23.21 15.33,2.96 15.72,47.52 20.4,-58.36 18.5,-46.02 45.62,-61.39 0,65.74 -22.3,170.63 -63.83,218.16 -0.73,0.84 -2.42,2.47 -3.06,3.28 -0.6,0.76 -2.03,2.5 -2.55,3.26 -1.47,2.16 -10.75,32.75 -39.84,43.59 -36.42,13.56 -77.59,17.85 -97.72,35.93 124.26,-20.36 147.3,-25.54 241.37,-81.68 37.72,-22.52 65.69,-36.41 100.36,-57.07 52.61,-31.35 52.91,-27.97 58.79,-99.65 2.69,-85.31 5.54,-157.3 -46.74,-212.37 -21.74,-22.89 -50.19,-41.13 -91.57,-37.52 -40.87,3.57 -54.79,31.39 -83.97,47.69z"/>
   <path class="fil12" d="M2482.3 1218.49c9.1,24.67 -15.58,12.29 63.78,27.91 43.18,8.5 19.37,17.01 79.86,16.75l-3 -80.76c18.84,-7.8 33.21,-12.89 57.25,-16.54 39.81,-6.05 32.21,-8.15 44.72,7.79 0.44,-45.12 -1.16,-51.78 33.09,-86.26 37.97,6.33 -22.52,-7.39 12.63,5.21 1.15,0.42 4.27,1.95 5.59,2.34 10.44,3.11 4.89,27.91 19.69,-6.98 10.2,-24.02 6.98,-239.37 -66.53,-308.56l-28.45 -32.12c-9.39,-16.8 -13.84,-37.06 -21.46,-59.23l-5.71 9.02c-23.8,32.49 -24.04,26.38 -45.26,32.27 -2.23,-1.37 -5.9,-6.31 -6.73,-7.2l-8.36 -8.67c-30.63,-25.74 -14.72,-0.38 -25.18,-32.08l-9.63 -12.85c-54.26,-8.22 -24.12,21.23 -75.83,-6.26 -16.16,18.68 -17.28,-2.75 14.81,30.08 12.49,12.78 6.44,6.36 14.4,18.39l62.22 78.44c38.16,37.25 81.65,83.03 68.1,156.71 -18.01,97.96 -112.08,244.22 -180,272.6z"/>
   <path class="fil4" d="M2331.35 1509.24c-40.55,0.03 -50.69,8.12 -84.65,12.77 -51.63,7.08 -29.05,-6.45 -63.13,22.9l24.43 2.03c2.6,-0.23 9.48,-0.08 10.99,0.02 1.51,0.11 11.76,1.51 14.05,1.48 31.52,-0.54 18.02,-0.62 53.52,-15.21l0.02 -4.43c36.69,0 73.35,-0.02 110.01,0.01l114.5 -7.78c21.16,13.11 135.13,-6.14 174.35,17.18 12.8,11.24 -13.07,6.38 -7.07,45.81 0.05,0.32 0.92,1.53 1.06,2.39l-91.95 12.15 9.53 48.09c97.21,0 70.76,-7.55 129.52,23.61 -1.16,55.99 -16.68,63.83 -54.96,70.67 1.06,2.4 4.85,6.99 4.78,7.86 -1.73,20.63 27.21,-20.02 -4.78,7.86 -29.9,-26.05 -22.89,-15.72 -110.03,-15.72l0.02 39.29 142.78 -1.84c49.56,-7.32 119.83,1.25 156.41,-21.73 3.78,-46.79 3,-102.13 -7.19,-141.57 -3.97,-15.38 -7.57,-40.51 -13.06,-59.9 -5.53,-19.48 -12.91,-26.16 -19.04,-45.64 -18.05,0.15 -28.47,3.31 -40.83,2.31 -41.39,-3.33 3.71,-2.64 -28.84,-8.24 -12.18,15.68 2.81,4.83 -15.39,6.64l-80.47 -3.25c-110.16,-0.22 -209.93,-5.86 -324.58,2.24z"/>
   <path class="fil4" d="M2508.29 882.48c-1.95,0.94 -77.75,9.3 -93.1,78.12 -11.51,51.56 -5.3,7.33 9.88,39.3 -10.34,6.26 -5.8,3.47 -17.59,14.03 -27.34,24.48 -65.49,29.98 -132.94,86.45 -9.28,7.77 -1.39,3.28 -19.81,10.55 -54.05,21.31 -9.22,0.85 -77.52,88.53 -17.35,22.28 -13.47,19.47 -25.76,44.98 -40.52,0.22 -54.06,11.9 -78.43,23.65l9.44 8.74c38.74,27.98 11.11,-4.37 36.5,22.74 32.58,-13.77 6.07,-4.15 27.02,-15.22l10.04 -5.07c214.07,-103.79 138.16,-78.57 259,-172.06 6.51,-5.04 8.22,-7.06 18.02,-13.17 32.12,-20.02 19.23,-1.1 42.12,-27.41 1.12,1.51 2.21,3.98 2.91,4.82 11.27,13.43 6.8,18 49.81,14.95 28.34,-2.01 35.39,-10.22 49.97,-28.96 -13.72,-6.52 -24.59,-9.94 -42.68,-12.08 -1.91,-0.22 -4.18,-0.2 -6.03,-0.36l-31.52 -3.27c23.03,-23.73 13.02,-4.29 31.23,-14.02l11.2 -8.6c20.8,-15.32 32.17,-21.75 58.97,-1.87l11.17 -56.43c-19.69,36.6 6.29,18.47 -25.44,24.21l-29.83 -6.15c18.4,-48.2 5.19,-3.76 26.46,-30.6 -24.54,-6.42 -29.05,-18.96 -60.53,-28.5 35.44,-7.16 1.81,21.25 40.97,-3.75l-15.98 -39.25 -37.55 5.7z"/>
   <path class="fil13" d="M2357.9 1363.14c-19.9,22.31 -41.43,24.97 -70.96,25.56 -37.6,0.76 -67.64,-1.08 -99.79,-1.24 2.15,29.81 5.59,54.36 10.23,82.86 4.09,-17.65 3.72,-0.14 20.27,-13.84l10.16 -13.46c33.01,-52.93 103.07,-55.91 132.15,-39.88 -10.88,24.98 -13.22,10.22 -40.94,23.57 27.32,22.81 18.98,0.62 41.72,38.18 20.73,1.06 40.03,-0.24 59.65,0.81 3.15,0.17 26.9,3.56 28,3.96 25.76,9.28 9.41,0.38 26.73,16.25 -73.16,-13.48 -73.53,-2.5 -141.38,3.61l-2.39 19.72c114.65,-8.1 214.42,-2.46 324.58,-2.24l80.47 3.25c18.2,-1.81 3.21,9.04 15.39,-6.64 -36.91,-3.46 -46.39,-17 -87.93,-20.66 -11.06,-0.97 -32.04,0.09 -46.62,-0.21 -12.61,-0.26 -20.7,-0.49 -32.37,-2.41 -20.16,-3.33 -13.28,-2.46 -22.55,-6.48l148.54 -12.05 -5.69 -28.84c-3.62,-18.27 -6.91,-32.87 3.84,-54.78 0.96,-1.96 6.69,-6.01 7.38,-9.67 0.53,-2.83 2.81,-2.89 4.23,-4.33 -65.23,-0.05 -133.04,-3.3 -197.18,-10.77 -47.5,-5.53 -45.8,2.61 -86.38,1.47 -75.61,-2.12 -28.63,4.13 -79.16,8.26z"/>
   <path class="fil7" d="M2704.34 1778.38c-18.16,0.48 -37.7,1.51 -56.38,2.05l-44.04 4.99c-1.5,0.4 -4.78,4.3 -5.82,2.51 -1.03,-1.76 -3.9,1.57 -5.6,2.77l56.8 5.9c-9.97,-6.67 13.69,-14.43 -10.88,-2.45 -22.73,11.09 -0.2,-5.42 -9.75,9.79 24.1,17.64 19.12,-11.42 11.6,53.03l6.87 49.07c14.03,25.23 26.7,-29.49 8.25,41.74 -3.91,15.13 -2.99,10.3 -6.22,26.96 -0.52,2.65 -1.68,10.04 -2.12,12.57l-2.09 11.82c-2.42,16.59 -5.67,5.86 -2.17,30.74 14.21,-1.41 19.04,-3.94 38.91,-8.49 51.01,-11.66 30.04,16.59 37.62,-20.54l10.12 41.69c14.48,-26.53 16.92,-19.15 19.77,-52.91 1.55,1.84 2.95,2.71 3.47,6.31l13.17 38.17c13.96,-17.56 37.14,-14.6 58.21,-13.69l20.54 -22.91c14.41,2.72 21.16,15.1 33.34,10.59 -1.6,-19.47 -9.01,-9.47 -16.31,-53.24 -19.32,-115.77 -22.05,-17.96 -25.91,-88.24 -1.18,-21.59 2.05,-20.96 6.61,-34.16 4.52,-13.11 13.96,6.58 7.01,-25.69l-4.61 -9.91c-0.18,-0.3 -11.06,-11.7 -13.42,-14.62 37.34,2.64 27.66,12.49 44.5,-25.58l-15.06 0c-36.58,22.98 -106.85,14.41 -156.41,21.73z"/>
   <path class="fil5" d="M3152.97 366.96c13.01,41.2 10.93,50.31 15.59,92.38 6.08,54.91 24.16,42.03 26.17,107.87 -39.78,15.79 -27.64,2.89 -40.45,50.27 2,1.18 4.92,0.71 5.96,3.62 1.03,2.85 4.55,2.75 5.9,3.48l17.29 9.15c-72.46,-9.7 -69.85,26.61 -77.12,67.39 29.18,-16.3 43.1,-44.12 83.97,-47.69 41.38,-3.61 69.83,14.63 91.57,37.52 52.28,55.07 49.43,127.06 46.74,212.37 16.13,-21.53 10.56,-48.58 20.76,-86.72 29.36,-109.82 -63.52,-202.22 -61.99,-245.83 2.44,-69.56 59.25,-98.82 7.23,-159.2 -21.28,-24.7 -32.74,-29.74 -40.96,-59.88 -10.67,-39.11 10.11,-39.99 -24.7,-79.86 2.36,46.62 3.82,81.21 -29.02,120.98l-9.8 9.1c-20.15,-14.34 -19.78,-25.64 -37.14,-34.95z"/>
   <path class="fil10" d="M2511.09 1521.03c-0.21,54.77 6.31,82.88 -43,110.11 -73.96,40.84 -94.34,11.62 -94.06,78.41 15.53,10.59 0.56,7 30.08,12.33l117.97 -2.05c1.85,60.6 -6.54,-2.34 -10.19,51.23l35.71 -1.58c3.67,-54.82 -4.31,7.39 -11.02,-51.45 58.62,-1.94 121.2,8.86 142.27,-8.22l20.65 -28.73 -27.26 -36.37 -75.23 1.94 -9.53 -48.09 91.95 -12.15c-0.14,-0.86 -1.01,-2.07 -1.06,-2.39 -6,-39.43 19.87,-34.57 7.07,-45.81 -39.22,-23.32 -153.19,-4.07 -174.35,-17.18z"/>
   <path class="fil10 str0" d="M2286.56 1533.23c44.84,0.9 104.14,-8 148.05,5.05 21.72,6.46 35.41,40.93 -22.82,63.91 -91.64,36.16 -101.66,4.92 -101.66,174.19l-25.85 7.75 308.22 6.57c1.7,-1.2 4.57,-4.53 5.6,-2.77 1.04,1.79 4.32,-2.11 5.82,-2.51l44.04 -4.99c18.68,-0.54 38.22,-1.57 56.38,-2.05l-142.78 1.84 -0.02 -39.29c87.14,0 80.13,-10.33 110.03,15.72 31.99,-27.88 3.05,12.77 4.78,-7.86 0.07,-0.87 -3.72,-5.46 -4.78,-7.86 38.28,-6.84 53.8,-14.68 54.96,-70.67 -58.76,-31.16 -32.31,-23.61 -129.52,-23.61l75.23 -1.94 27.26 36.37 -20.65 28.73c-21.07,17.08 -83.65,6.28 -142.27,8.22 6.71,58.84 14.69,-3.37 11.02,51.45l-35.71 1.58c3.65,-53.57 12.04,9.37 10.19,-51.23l-117.97 2.05c-29.52,-5.33 -14.55,-1.74 -30.08,-12.33 -0.28,-66.79 20.1,-37.57 94.06,-78.41 49.31,-27.23 42.79,-55.34 43,-110.11l-114.5 7.78c-36.66,-0.03 -73.32,-0.01 -110.01,-0.01l-0.02 4.43z"/>
   <path class="fil14" d="M1878.1 1424.79l-16.78 29.29c-0.33,-1.1 -1.83,2.78 -2.49,4.3 6.05,26.34 115.27,15.33 172.26,15.61 89.21,141.69 79.04,25.13 88.46,174.07 1.85,29.35 7.46,18.92 -5.75,33.04 0,-59.44 -1.13,-53.04 20.74,-98.54 19.88,-41.37 3.15,-60.81 16.27,-108.98l2.48 -61.91 -25.65 -45.02c-0.6,-1.28 -2.49,-2.59 -2.94,-5.64 -0.45,-3.08 -1.78,-3.93 -3.09,-5.64 -163.73,5.8 -132.62,15.89 -243.51,69.42z"/>
   <path class="fil10" d="M2208 1546.94c8.28,9.84 14.22,-5.02 16.36,36.04l-0.57 184.66c1.52,0.05 17.05,0.52 31.27,4.24l29.22 12.25 25.85 -7.75c0,-169.27 10.02,-138.03 101.66,-174.19 58.23,-22.98 44.54,-57.45 22.82,-63.91 -43.91,-13.05 -103.21,-4.15 -148.05,-5.05 -35.5,14.59 -22,14.67 -53.52,15.21 -2.29,0.03 -12.54,-1.37 -14.05,-1.48 -1.51,-0.1 -8.39,-0.25 -10.99,-0.02z"/>
   <path class="fil6" d="M2118.72 2133.55c16.66,84.53 -4.18,187.36 27.05,231.3 -8.15,-32.54 -10.11,-22.86 -0.75,-56.73 21,-8.49 19.98,-0.85 57.09,-1.35 0.62,-1.71 2.08,-5.99 2.46,-4.87 0.16,0.48 20.07,-41.4 49.08,-75.32 45.41,-53.11 -9.3,-16.15 53.38,-88.16l30.49 -28.23c-79.01,-6.43 -42.28,-11.5 -90.81,-17.05 -24.17,-2.76 -29.88,-3.37 -49.62,-6.53 -34.2,-5.47 -30.99,0.24 -39.44,-7.81 51.48,-7 9.06,-0.86 26.78,-15.62l-47.1 2c-17.46,25.44 -2.55,16.09 -5,38.26 -2.49,22.45 -5.64,20.96 -13.61,30.11z"/>
   <path class="fil10" d="M2244.42 444.63c-24.44,52.54 -38.12,65.95 -27.03,84.74l7.91 13.95c0.48,0.88 1.82,2.99 2.34,4.64 9.99,7.57 15.31,10.73 27.54,15.34 34.45,-31.79 35.46,-6.71 27.08,-52.46 35.56,4.79 12.55,10.48 73.77,-59.79 112.43,-129.03 52.28,-121.8 176.67,-103.14 56.93,8.54 103.61,15.15 114.09,-36.84 -15.19,-20.44 0.92,-4.57 -17.87,-10.37 -47.06,-10.06 -33.82,-42.49 -122.39,-37.97 -64.16,3.28 -121.8,76.09 -160.23,122.49 -8.65,10.45 -7.85,7.11 -17.22,22.71l-73.86 106.76c2.73,-41.55 -0.6,-39.06 18.1,-66.52 -24.29,5.3 -7.04,5.85 -28.9,-3.54z"/>
   <path class="fil7" d="M2591.08 2406.65l-19.91 -5.17c5.54,158.95 14.86,74.33 55.55,138.17 1.09,1.71 1.93,3.87 3.01,5.61l7.62 11.5c1,1.51 2.48,4.3 4.34,5.86 24.61,-6.88 6.86,-4.17 13.51,4.09l0.02 -31.53c44.18,-7.12 53.68,10.64 108.03,-2.91 32.12,-8.01 54.76,-23.71 90.45,-24.19l-2.05 57.79c27.51,-32.45 17.46,-64.05 3.6,-101.46 54.49,-23.62 8.34,-30.55 28.41,-88.59 -35.18,13.73 -90.24,38.53 -124.61,58.12 -36.36,20.72 -100.43,13.59 -153.79,14.87l-14.18 -42.16z"/>
   <path class="fil11" d="M2244.42 444.63c21.86,9.39 4.61,8.84 28.9,3.54 -18.7,27.46 -15.37,24.97 -18.1,66.52l73.86 -106.76c9.37,-15.6 8.57,-12.26 17.22,-22.71 38.43,-46.4 96.07,-119.21 160.23,-122.49 88.57,-4.52 75.33,27.91 122.39,37.97 -6.51,-13.97 -7.18,-16.79 -13.41,-31.8 -62.36,-23.84 -80.24,-107.82 -190.34,-64.11 -65.09,25.83 -51.16,34.71 -57.76,49.58 36.56,-4.88 79.15,-27.97 105.14,-14 -22.87,11.34 -54.01,6.03 -83.94,23.44l-60.92 32.81c-17.85,15.92 -73.27,121.36 -83.27,148.01z"/>
   <path class="fil8" d="M2180.42 1390.4c-39.7,14.86 -16.79,-1.8 -27.13,21.27l-2.48 61.91c1.27,1.69 2.64,2.43 3,5.59l10.62 69.87 19.14 -4.13c34.08,-29.35 11.5,-15.82 63.13,-22.9 33.96,-4.65 44.1,-12.74 84.65,-12.77l2.39 -19.72c67.85,-6.11 68.22,-17.09 141.38,-3.61 -17.32,-15.87 -0.97,-6.97 -26.73,-16.25 -1.1,-0.4 -24.85,-3.79 -28,-3.96 -19.62,-1.05 -38.92,0.25 -59.65,-0.81 -22.74,-37.56 -14.4,-15.37 -41.72,-38.18 27.72,-13.35 30.06,1.41 40.94,-23.57 -29.08,-16.03 -99.14,-13.05 -132.15,39.88l-10.16 13.46c-16.55,13.7 -16.18,-3.81 -20.27,13.84 -4.64,-28.5 -8.08,-53.05 -10.23,-82.86 32.15,0.16 62.19,2 99.79,1.24 29.53,-0.59 51.06,-3.25 70.96,-25.56 -81.2,7.01 -109.83,3.6 -177.48,27.26z"/>
   <path class="fil6" d="M2164.43 1549.04c-4.76,34.62 -13.66,68.8 -19.66,105.67 -8.98,55.17 -30.68,24.54 -20.49,99.85 47.47,17.66 104.78,17.37 160,29.57l-29.22 -12.25c-14.22,-3.72 -29.75,-4.19 -31.27,-4.24l0.57 -184.66c-2.14,-41.06 -8.08,-26.2 -16.36,-36.04l-24.43 -2.03 -19.14 4.13z"/>
   <path class="fil8" d="M2751.79 1503.61c32.55,5.6 -12.55,4.91 28.84,8.24 12.36,1 22.78,-2.16 40.83,-2.31l1.05 -137.92 -101.89 -7.44c-1.42,1.44 -3.7,1.5 -4.23,4.33 -0.69,3.66 -6.42,7.71 -7.38,9.67 -10.75,21.91 -7.46,36.51 -3.84,54.78l5.69 28.84 -148.54 12.05c9.27,4.02 2.39,3.15 22.55,6.48 11.67,1.92 19.76,2.15 32.37,2.41 14.58,0.3 35.56,-0.76 46.62,0.21 41.54,3.66 51.02,17.2 87.93,20.66z"/>
   <path class="fil15" d="M3152.97 366.96c17.36,9.31 16.99,20.61 37.14,34.95l9.8 -9.1c32.84,-39.77 31.38,-74.36 29.02,-120.98 -28.81,9.29 -5.26,-69.17 -3.23,-82.2 -30.59,3.29 -39.67,10.95 -75.52,12.44 2.66,92.58 -12.66,39.87 -25,81.34 -3.01,10.1 3.9,34.65 7.7,46.64 10.66,33.63 0.73,18.43 20.09,36.91z"/>
   <path class="fil5" d="M2649.04 3021.63c-2.21,1.92 -3.61,3.09 -4.11,7.75 -0.48,4.47 -2.94,5.37 -3.45,7.67 -0.48,2.16 -1.92,4.94 -2.3,7.58 -2.38,16.79 -1.47,9.62 2.64,28.75 11.55,53.9 23.39,102.23 115.98,72.32l59.52 -33.95c2.86,-2.84 18.87,-34.62 21.85,-40.46 19.97,-39.15 18.9,-6.68 17.8,-48.79 -56.8,25.65 -127.03,71.07 -209.15,38.77l1.22 -39.64z"/>
   <path class="fil16" d="M2606.89 497.41l-36.44 -14.06c8.2,13.59 7.06,7.18 9.69,28.37 17.87,1.9 21.87,0.62 36.23,1.71 15.92,1.2 30.38,3.77 48.67,4.8 6.69,-26.93 19.67,-39.41 24.93,-62.12 12.68,-54.75 -9.57,-8.89 -10.89,-66.12 -40.36,12.37 -22.26,3.15 -61.66,-0.67 -3.09,81.23 -44.15,35.28 -10.53,108.09z"/>
   <path class="fil14" d="M2864.73 1526.52c-0.19,25.97 -6.36,71.5 12.98,82.72 7.76,4.5 74.11,4.4 87.94,-5.89 19.1,-14.21 21.26,-58.5 1.2,-72.69 -19.06,-13.49 -77.71,-5.79 -102.12,-4.14z"/>
   <path class="fil17" d="M2547.89 2215.39c-15.44,-47.7 -24.06,-77.1 -1.82,-104 -25.69,-29.12 11.28,-43.25 -72.73,-26.75l0.35 5.58c17.79,31.02 28.85,-15.52 -8.45,22.46 23.18,17.02 16.08,19.17 14.16,60.02 -1.47,31.43 -5.34,51.66 11.47,74.72 22.77,-10.57 20.51,-15.32 34.35,-39.81 15.03,13 -1.29,2.87 22.67,7.78z"/>
  </g>
 </g>
</svg>
