<?xml version="1.0" encoding="UTF-8"?>
<!DOCTYPE svg PUBLIC "-//W3C//DTD SVG 1.1//EN" "http://www.w3.org/Graphics/SVG/1.1/DTD/svg11.dtd">
<!-- Creator: CorelDRAW 2017 -->
<svg xmlns="http://www.w3.org/2000/svg" xml:space="preserve" width="55mm" height="55mm" version="1.1" style="shape-rendering:geometricPrecision; text-rendering:geometricPrecision; image-rendering:optimizeQuality; fill-rule:evenodd; clip-rule:evenodd"
viewBox="0 0 5500 5500"
 xmlns:xlink="http://www.w3.org/1999/xlink">
 <defs>
  <style type="text/css">
   <![CDATA[
    .fil0 {fill:#D0433B}
   ]]>
  </style>
 </defs>
 <g id="Capa_x0020_1">
  <metadata id="CorelCorpID_0Corel-Layer"/>
  <path class="fil0" d="M1601.12 1987.87l66.55 -6.7 -7.91 -70.83c-35.02,21.29 -20.17,-1.87 -41.93,31.24 -7.65,11.65 -12.88,31.11 -16.71,46.29zm628.88 -282.08l-110.94 28.8 82.36 49.78 -14.66 128.29c83.48,-86.97 88.45,-57.29 177.36,-33.94 -12.59,-202.2 -24.79,-41.73 55.97,-178.88l-109.17 4.83c-18.51,-47.64 -26.43,-64.48 -56.77,-100.38l-24.15 101.5zm-529.48 1660.68c-81.06,51.41 -111.21,-30.3 -163.75,59.82 31.35,52.31 -36.06,29.36 77.85,32.62 20.86,0.6 85.32,-8.8 112.08,-11.31 295.91,-27.79 1340.53,-88.61 1446.41,-158.83 35.94,8.6 17.3,4.15 23.91,11.04l8.6 13.21c0.57,0.87 1.45,5.45 2.88,7.83 50.11,-0.65 95.11,-4.8 144.29,-8.02 12.08,-0.79 79.97,-5.87 86.81,-7.64 54.54,-14.1 39.45,2.55 61.06,-38.11 -35.22,-32.05 32.85,-19.59 -79.7,-26.31l-1358.23 116.91c-2.72,0.42 -7.49,1.3 -10.2,1.57l-352.01 7.22zm1405.84 -1692.86c54.6,31.35 22,-1.4 80.16,21.99 -100.97,36.88 -9.6,-3.2 -53.02,52.26 -26.8,34.23 -30.15,-31.65 -45.41,85.7 38.03,-19.92 64.07,-50.59 81.7,-68.78 35.2,10.4 68.36,25.8 97.85,38.31 -28.21,-150.85 -15.26,-87.62 59.31,-174.62l-123.16 2.96 -31.84 -100.15c-11.55,16.13 -4.62,-0.37 -20.17,35.39l-45.42 106.94zm-1320.52 2436.04c71.52,17.41 149.18,92.02 229.48,137.86 88.97,50.78 171.74,85.98 272.91,120.5 23.84,-34.23 9.49,16.11 14.95,-39.43 2.61,-26.51 -1.04,-25.13 -7.16,-48.17 40.79,53.59 49.7,24.27 71.36,78.4 46.67,116.65 -32,-26.45 9.34,36.95 72.79,50.21 586.17,89.98 820.44,9.51l294.08 -94.58c76.47,-38.42 58.08,-34.13 82.2,-117.56 -5.5,107.69 -0.24,51.08 39.3,58.98 6.53,-63.46 -40.58,-127.26 5.08,-95.99 24.5,16.77 -16.54,117.54 244,-76.83 104.63,-78.05 206.66,-228.41 295.45,-314.71l42.98 -94.65c6.77,-75.68 -22.2,-8.05 46.94,-52.37l-47.63 -121.16c-27.15,18.02 -189.63,266.81 -223.41,308.41 -563.43,693.74 -1704.35,737.66 -2324.49,-7.17 -71.72,-86.14 -57.36,-93.43 -194.18,-71.75 30.51,37.71 41.3,66.73 71.67,105.23 82.01,103.98 236.37,236.53 256.69,278.53zm86.19 -2786.62c-1.73,2.93 -5.26,3.82 -6.14,8.15l-170.47 140.52c-76.03,62.35 -104.84,111.55 -169.79,185.64 15.3,95.56 -3.46,-25.52 18.7,49.63 10.94,37.06 -30.84,81.28 -62.4,87.01 10.66,-28.26 16.28,-65.19 25,-97.78 -72.24,64.08 -148.95,245.76 -189.09,279.63 11.95,36.18 -16.49,47.77 81.89,33.21 42.38,-6.27 47.82,-24.64 68.03,-57.03 37.73,-60.46 43.52,-88.8 93.99,-154.55 34.93,-45.51 68.77,-82.71 103.59,-125.84 35.45,-43.92 88.48,-94.41 117.62,-138.11 -3.15,-1.71 -9.05,-6.4 -10.21,-3.34 -1.15,3.01 -8.34,-2.95 -9.89,-3.69 -1.51,-0.73 -7.63,-3.14 -9.41,-4.09 -15.4,-8.18 3.3,20.85 -31.98,-22.64l70.93 -29.54c0.02,0.09 -3.11,36.82 19.41,62.24 113.03,-108.43 53.33,-48.22 98.37,-140.46 3.1,-0.66 8.29,-1.68 9.35,1.68 1.08,3.39 7.92,1.54 9.42,1.79 110.39,18 11.26,1.09 206.03,-85.92 508.19,-227.04 1019.8,-217.74 1501.87,96.71 165.79,108.15 281.17,217.31 389.2,372.16l132.08 -1.6 -15.32 -57.12c-2.74,-1.79 -6.63,-8.71 -7.56,-6.24l-87.88 -66.17c-190.14,-105.62 98.25,50.32 -113.77,-148.44 -222.26,-208.36 -434.45,-326.29 -734.93,-398.79l-52.55 -17.98c10.96,37.1 37.51,53.55 -31.15,74.46 -98.27,29.92 -30.74,-18.32 -88.54,-35.6l80.7 -8.75c2.56,-0.64 8.54,-1.97 12.33,-4.03 -29.69,-35.01 -38.99,-43.26 -104.36,-51.16 -233.02,-28.15 -689.47,18.58 -830.89,107.67 -74.32,46.82 -7.84,-13.73 1.69,111.26l-65.76 -57.37c-42.86,-16.66 -45.78,-6.97 -91.76,17.37 -61.09,32.35 -92.68,63.59 -156.35,87.11zm-550.34 2282.11l-11.42 11.57c74.1,30.8 103.75,11.26 176.73,-1.34l947.49 -73.26c254.57,-20.08 253.05,5.49 313.88,-87.44 37.74,31.83 13.27,7.37 18.63,25.95l1.15 13.64c3.87,70.15 -24.82,-40.91 -2.08,20.37 118.59,-3.81 362.72,-9.11 460.32,-52.74 70.47,-31.5 -2.76,16.2 158.56,5.16 49.08,-3.36 104.66,-10.3 148.08,-14.15 98.61,-8.74 197.59,-15.09 294.88,-24.9 1.73,-2.79 1.82,-12.07 2.07,-9.62l9.33 -25.61c30.22,-13.68 -7.19,-0.21 43.39,13.08 65.92,17.33 107.04,10.58 175.88,4.39 115.06,-10.34 227.96,-18.63 343.78,-30.17 -4.43,-36.08 -9.66,-20.9 -44.66,-41.73 68.11,-9.64 62.48,18.46 46.75,-63.43 -59.69,-1.41 -115.78,-5.24 -164.72,16.64 -64.25,28.72 39.88,1.31 -34.12,21.37 -15.51,4.2 3.04,28.55 -41.45,-22.24 -319.67,5.73 -1117.4,95.27 -1496.2,121.68l-1251.26 117.06c-65.68,-4.9 -97.96,-38.24 -95.01,75.72zm3190.08 -1646.51c30.36,-51.38 14.82,-57.26 77.15,-80.24l126.16 -32.54c-19.95,-11.88 -3.35,-8.39 -40.66,-13.22 -23,-2.99 -25.71,-2.45 -49.4,-1.68l-558.61 46.45c-153.75,17.14 -94.93,70.75 -96.92,77.76 -47.14,24.13 -63.06,46.03 -111.93,20.59 16.35,-63.82 -1.15,-36.22 83.51,-63.57 -0.23,-0.14 -8.99,-36.35 -115.11,-11.34 -102.58,24.18 -214.23,18.99 -381.26,31.38l-1570.85 136.95c-36.98,4.7 -68.84,-0.38 -126.67,5.38l-4.06 109.32 815.89 -72.94c87.49,-17.84 -45.31,-2.46 41.37,-4.32 227.53,-4.87 -13.7,-60.1 174.69,-18.96 110.48,24.12 667.06,-36.58 810.58,-72.8 99,-24.99 30.74,2.61 96.47,-0.29 85.25,-3.76 35.68,2.86 92.7,-55.66 115.33,31.53 -81.27,61.69 350.9,28.99 124.7,-9.43 257.41,-27.65 386.05,-29.26zm-2625.69 1731.91l-139.24 9.87c35.33,73.53 43.24,29.88 83.92,86.45 60.12,83.59 109.43,124.29 208.52,189.32 75.44,49.51 235.05,137.35 319.24,160.18 139.67,37.88 21.71,9.06 106.69,-10.91 52.72,60.93 -57.52,5.14 44.23,47.15 30.21,12.48 86.72,21.42 117.97,26.3 304.53,47.47 667.26,-18.19 909.41,-196.35 93.91,-69.09 90.99,-34.55 217.81,-154.87 104.78,-99.41 209.09,-213.2 264.46,-332.35 -199.51,-15.25 -127.92,77.85 -452.36,339.6 -138.95,112.1 -374.47,203.03 -583.38,233.46 -130.66,19.03 -254.98,-1.14 -362.65,8.18l-278.7 -87.54c-255.85,-116.98 -88.16,-8.15 -242.39,-128.12 -92.19,-71.71 -144.88,-105.5 -213.53,-190.37zm-146.47 -1733.81l130.49 -151.62c131.45,-154.66 248.63,-208.88 414.83,-292.8 88.49,-44.68 27.65,-2.79 74.09,-78.5 127,0.68 -61.69,39.59 206,-12.8 138.27,-27.06 222.42,-23.95 350.41,-19.57 173.7,5.94 3.86,-22.07 194.67,35.85 38.71,11.75 74.43,20.91 109.31,32.88 132.31,45.41 238.13,104.38 339.06,173.28 93.04,63.52 176.43,221.22 317.64,140.27 -263.29,-269.45 -563.11,-466.16 -969.69,-494.99 -136.91,-9.71 -80.25,-8.97 -158.05,55.39 -64.24,-67.86 -26.09,-60.71 -157.92,-40.8l-358.09 103.31c-160,62.38 -436.32,278.42 -522.01,400.98 -48.31,69.08 -18.49,81.9 29.26,149.12zm-955.57 196.25c-47.33,6.21 -189.06,4.5 -221.86,27.15 -34.07,23.54 -36.09,75.85 10.44,96 35.71,15.46 41.89,2.72 113.38,9.15 -22.9,-107.84 -10.51,-35.21 9.47,-61.67 4.35,1.79 9.32,2.57 11.29,8.47 1.98,5.92 8.77,6.65 11.57,8.19 57.42,31.82 119.81,22.71 221.76,11.74 91.02,-9.78 183.51,-12.65 286.3,-22.79l9.9 -50.81c52.66,66.98 66.12,47.51 172.56,36.77 78.27,-7.9 156.98,-12.28 235.23,-20.07 27.78,-51.37 36.81,-56.35 40.57,-112.48 -302.21,1.7 -610.03,53.49 -900.61,70.35zm985.34 151.11c126.55,-24.02 925.46,-97.45 1010.83,-76.59 58.95,-31.95 97.39,-30.12 163.49,-29.62 177.79,1.35 155.62,-9.64 153.39,-45.24 -22.38,-54.67 -65.96,-30.34 -141.48,-23.05l-1162.91 97.64c-30.78,43.21 -34.35,-59.24 -23.32,76.86zm1030.79 1468.77c-33.1,86.29 -55.16,62.55 -107.22,136.77l160.24 -6.02 54.94 146.64 35.64 -77.42c11.46,-38.56 6.54,-40.15 22.3,-79.95l161.04 -16.39 -134.92 -93.28 28 -152.73 -130.17 86.51 -141.82 -76.83c8.29,54.56 31.91,92.04 51.97,132.7zm-258.09 -2150.9l86.59 81.35 -33.29 173.76c28.66,-29.27 69.22,-43.78 110.49,-101.12 90.75,20.59 95.13,46.51 166.55,75.76l-56.19 -156.93c53.99,-55.59 82.66,-62.02 114.2,-114.22 -239.94,14.39 -168.65,57.74 -238.6,46.04 -2.32,-0.39 -83.55,-34.9 -149.75,-4.64zm-1527.19 749.94l53.59 -1.04c67.58,-40.04 477.52,-38.63 529.99,-58.77 62.53,-24.01 20.28,13.44 47.04,-50.78 -65.64,-26.73 -339.8,-1.51 -419.53,15.29 -28.38,5.97 -36.4,11.49 -41.58,12.94 -59.72,16.63 -19.97,1.67 -80.26,-2.41 -30.69,-2.07 -65.39,2.36 -99.3,4.86l10.05 79.91zm2600 -232.25l184.94 2.1c88.71,-58.85 276.9,-1 364.92,-61.47 -36.33,-61.73 -31.22,-50.29 -195.54,-35.9 -91.53,8.02 -145.73,29.4 -229.79,19.58l-47.71 57.36c-19.6,-6.41 -62.66,-17.63 -62.88,-17.66l-137 13.7c18.04,40.76 1.02,9.71 17.53,33.93l105.53 -11.64zm248.5 1057.76l-200.92 8.6c-2.35,62.44 16.84,30.49 -21.59,72.17l435.4 -26.76c72.8,-6.6 84.94,0.97 100.9,-55.09 -61.46,-45.62 -228.78,-4.74 -313.79,1.08zm-1410.35 530.58c-60.09,-17.81 -52.56,-27.02 -113.2,-46.85l27.92 169.7c58.61,32.76 55.16,30.82 79.03,109.15 34.02,-44.54 21.68,-34.28 41.47,-103.54l111.25 -16.49c-42.12,-45.39 -30.05,-36.45 -88,-54.39l17.8 -123.64c-55.42,23.87 -48.56,20.02 -76.27,66.06zm882.05 -73.53l-92.72 -55.18 32.17 109.36c-41.82,45.87 -49.69,40.11 -77.72,82.28l122.26 -4.06 31.6 101.61c29.26,-41.67 25.41,-49.06 37.9,-107.33l88.4 -35.6 -42.17 -35.08c-2.93,-2.51 -8.11,-7.23 -10.48,-9.29 -2.38,-2.06 -7.02,-6.21 -10.34,-9.54l19.11 -104.91 -98.01 67.74zm838.15 -1607.95c47,73.55 -27.05,47.16 229.47,32.83 40.09,-83.81 -5.01,-11.26 88.14,-39.63 -20.42,-20.43 51.64,-61.76 -238.99,-19.79l-78.62 26.59zm-961.01 70.75c19,50.46 31.38,73.72 163.17,48.47 104.77,-20.08 36.61,-5.75 64.06,-30.78 -39.46,-52.45 -12.21,-42.83 -106.5,-37.86 -43.04,2.27 -88.72,5.89 -120.73,20.17zm286.12 1104.86c9.57,106.46 10.7,47.62 28.7,73.35 98.83,-9.22 67.19,18.33 84.21,-65.17l-112.91 -8.18zm-1772 -945.65c-19.22,-47.52 43.68,-30.35 -38.75,-37.47 -85,-7.35 -17.45,4.23 -44.63,26.92 79.42,58.52 58.84,28.65 83.38,10.55zm3079.82 -463.78l-0.84 8.01 -64.27 -12.6c-5.96,47.11 13.94,26.3 -25.98,37.75l-126.16 32.54c-62.33,22.98 -46.79,28.86 -77.15,80.24 72.17,-15.08 29.32,-11.66 95.42,-14.88l344.27 -29.75c15.02,-76.4 19.53,-60.5 -13.46,-109.07l-43.64 72.13c-40.13,-28.1 -16.04,-27.31 -88.19,-64.37z"/>
 </g>
</svg>
