<?xml version="1.0" encoding="UTF-8"?>
<!DOCTYPE svg PUBLIC "-//W3C//DTD SVG 1.1//EN" "http://www.w3.org/Graphics/SVG/1.1/DTD/svg11.dtd">
<!-- Creator: CorelDRAW 2017 -->
<svg xmlns="http://www.w3.org/2000/svg" xml:space="preserve" width="55mm" height="55mm" version="1.1" style="shape-rendering:geometricPrecision; text-rendering:geometricPrecision; image-rendering:optimizeQuality; fill-rule:evenodd; clip-rule:evenodd"
viewBox="0 0 5500 5500"
 xmlns:xlink="http://www.w3.org/1999/xlink">
 <defs>
  <style type="text/css">
   <![CDATA[
    .fil0 {fill:#531374}
   ]]>
  </style>
 </defs>
 <g id="Capa_x0020_1">
  <metadata id="CorelCorpID_0Corel-Layer"/>
  <path class="fil0" d="M1457.8 4685.31c98.23,-4.78 29.55,16.82 86.41,56.48 29.47,20.55 46.05,9.1 80.02,0.35 0.72,40.4 16.03,69.7 58.82,68.85 75.84,-1.5 10.67,-64.2 10.56,-64.39 33.57,20.34 28.11,25.82 40.72,62.51 28.8,-29.99 38.73,45.08 14.11,-55.27 36.75,25.25 21.12,26.59 53.93,12.9 -25.45,-37.76 -15.86,-24.21 -57.07,-31.96 -45.84,-8.63 11.77,4.57 -38.56,-30.14 -100.1,-69.05 -258.29,-137.66 -389.24,-256.79 -113.22,-103 -337.66,-304.47 -401.24,-445.43 -50.35,-42.36 -155.25,-230.31 -182.87,-282.59 -308.68,-584.43 -312.7,-1334.15 -65.5,-1933.75 38.8,-94.12 233.62,-442.2 294.65,-485.18 -2.38,-1.98 -6.23,-3.67 -7.91,-4.86l-46.71 -41.39c61.26,18.09 18.49,22.42 76,15.85 48.24,-71.91 177.74,-212.23 264.06,-288.44 1.39,3.92 4.22,3.65 17.47,6.13 36.77,6.89 89.04,-96.84 8.27,-106.35 4.9,-6.69 11.18,-14.25 19.18,-22.86l-5.74 -44.62c-35.88,20.79 -43.57,16.45 -37,88.59l-51.42 -8.75c-43.5,11.84 -15.65,72.19 -50.8,81.27 -30.22,7.8 -104.76,-24.34 -79.37,85.72 -47.55,-1.7 -31.86,-9.2 -70.9,14.28l-4.15 45.88c0.13,41.7 18.07,-18.76 -0.89,18.87l-19.71 24.55c-9.12,19.44 -5.1,5.98 -3.43,28.13 -49.64,-14.44 -51.18,-43.22 -68.57,18.82l15.36 4.53c40.21,9.75 1.86,-15.97 39.7,7.86 -6.57,40.16 10.43,4.9 -18.2,22.06 -1.27,0.76 -4.81,1.97 -6.2,2.57l-13.77 3.35c-1.72,0.42 -5.48,0.99 -7.26,1.36l-58.75 11.36c-8.12,24.49 -13.08,-29.83 8.58,9.76l28.26 58.62c-0.26,0.15 -3.99,58.24 -65.55,-38.31l20.48 65.48c-2.24,1.44 -27.01,17.26 -27.8,17.99 -1.43,1.32 -4.1,4.49 -5.35,5.81 -1.13,1.19 -3.34,4.63 -4.29,5.72 -0.81,0.92 -2.61,4.34 -3.29,5.09 -5.18,5.64 14.57,27.32 -24.21,-11 -2.32,74.68 23.97,76.1 -67.46,74.85 2.65,2.4 6.79,5.04 8.56,6.48 1.66,1.33 6.01,4.66 7.85,6.19l20.15 20.1c-79.39,21.45 -2.99,-1.66 -48.42,77.1 -31.23,54.15 -42.28,14.98 -53.94,88.48 -2.74,17.25 6.86,12.89 -23.99,44.25 -18.18,18.49 -34.51,15.35 -39.94,19.96 6.06,35.6 1.88,16.33 17.57,47.74l-32.55 27.87c-40.34,48.03 -21.44,62.31 -10.65,96.83 -80.85,14.32 -69.3,65.97 -41.54,110.64 -46.61,28.81 -93.92,62.76 -28.8,114 -15.78,15.08 -21.12,12.84 -33.92,30.58 -2.43,3.36 -8.89,16.08 -9.93,18.72 -0.59,1.48 -1.83,5.04 -2.29,6.55 -16.68,55.27 -0.43,38.66 26.12,53.11 -31.52,47.18 -43.19,7.23 -54.62,69.44 -6.65,36.16 -4.19,19.93 9.04,39.93l29.21 28.96c-77.49,26.89 -77.33,70.84 -16.13,121.79 -71.7,46.42 -73.06,55.48 -18.84,123.86 -25.05,16.98 -37.95,20.55 -36.39,61.27 1.63,42.52 18.91,36.75 34.88,62.6 -81.78,65.07 0.55,119.6 4.17,123.86 -60.05,49.91 -34.75,86.92 17.81,109.95 -28.31,44.51 -67.97,93.64 14.27,118.6 -35.3,64.02 -47.44,96.79 23.14,124.51 -30.17,66.46 -34.83,76.05 8.76,114.36l20.34 15.66c-39.75,59.68 -12.88,84.4 40.27,111.47 -23.55,52.16 -26.67,93.83 45.66,114.02 -33.57,58.37 -30.32,89.47 43.63,109.69l-6.05 94.81 67.65 11.8c-32.23,95.1 -12.67,87.22 51.29,115.5l1.71 80.63c24.02,12.66 30.95,15.38 69.76,17.84 -15.85,76.09 -1.27,100.32 69.47,96.79l2.09 80.44c32.45,19.55 28.5,19.63 71.94,19.55l9.91 85.88 75.03 3.99 0.94 82.84 90.11 6.66c-20.99,64.05 19.89,94.88 88.95,83.45 -4.41,54.56 -0.39,92.86 94.57,70.38 -3.84,95.82 5.27,78.33 80.53,84.69 105.67,8.93 -59.08,14.18 59.25,72.67zm467.35 -2921.9c17.62,11.73 42.27,7.8 59.98,1.1 -11.72,-26.65 -52.56,-28.34 -59.98,-1.1zm-506.14 -244.25c13.12,6.46 30.14,14.29 38.68,19.93 23.34,-40.5 9.37,-3.65 24.37,-51.99l12.36 12.51c24.34,12.99 9.73,25.88 56.91,-32.13l355.67 -275.64c137.95,-82.58 50.34,-22.97 116.61,-125.54 -64.62,5.89 -58.7,26.72 -61.91,34.92 -14.88,37.98 14.79,18.62 -26.05,55.21 -63.15,-7.73 -2.45,-3.81 -56.58,-27.71 -56.78,42.67 -225.31,136.36 -267.8,189.76 -23.19,29.14 -6.35,27.75 -31.49,37.55 -56.85,22.15 -142.06,118.1 -160.77,163.13zm752.15 -801.67c17.43,12.48 23.43,17.18 51.8,27.29 -33.15,18.41 -36.94,3.66 -16,73.96 37.85,1.3 63.26,-6.37 90.68,-17.24l0.33 -61.85c-20.67,-22.68 -9.75,-17.12 -43.27,-29.2 36.31,-26.77 40.42,-71.97 -29.34,-74.15 -55.41,-1.74 -51.59,36.22 -54.2,81.19zm-175.54 -7.72l-1.52 -4.18c-6.07,76.47 -10.56,24.05 23.47,43.15 14.38,-12.46 5.59,-10.13 14.91,-30.82l-36.86 -8.15zm24.71 457.47c9.87,-13.7 13.56,5.57 13.83,-28.6 0.37,-46.44 -13.26,-32.27 -13.83,-33.02 -28.61,40.01 -26.4,33.72 0,61.62zm-166.23 -262.2l30.04 7.66c7.06,57.63 3.31,74.1 41.16,70.94 4.92,-10.8 38.77,20.82 -9.61,-73.67 -17.53,-34.24 -23.54,-38.89 -24.76,-73.98 23.27,13.67 15.99,58.2 53.68,21.21 14.19,-13.93 -13.84,-57.26 -20.37,-70.01l-83.14 42.56 13 75.29zm-61.42 557.69l-0.66 -78.4c-63.15,-15.58 -45.33,-8.6 -96.49,8.67 -2.35,88.06 24.06,85.61 97.15,69.73zm8.34 -88.39c21.3,4.28 73.6,62.36 96.57,-12.38 -5.27,-36.67 -0.1,-57.23 -39.14,-59.89 -31.75,-2.17 -43.52,18.5 -54.67,29.01l-2.76 43.26zm493.13 -188.82c118.98,36.69 119.8,-100.03 11.07,-81.98l-11.07 81.98zm-1030.09 -21.75c-8.12,22.13 13.67,16.89 -4.66,46.56 -1.2,1.94 -5.11,5.91 -6.29,7.54 -1.29,1.77 -4.99,5.11 -7.2,7.9l17.64 5.17c49.43,14.93 9.33,3.37 50.74,33.03 1.85,-4.04 14.34,-27.34 17.81,-30.53 49.4,-45.38 -29.26,19.4 15.63,-10.73l1.53 -19.15c-13.2,-12.29 -17.63,6.13 -5.43,-56.14 -58.03,19.65 -22.32,17.9 -62.21,14.32 -10.63,-0.96 -6.96,-2.83 -17.56,2.03zm1149.8 -78.67l5.19 84.57c134.93,10.5 106.13,-104.23 37.54,-99.67 -9.85,0.65 -39.1,12.28 -42.73,15.1zm-806.31 469.66c84.65,1.98 51.13,6.01 85.99,-31.78 -7.61,-57.33 -2.17,-68.67 -69.58,-64.77 -44.04,38.24 -35.77,50.34 -16.41,96.55zm-4.97 -384.26l22.66 25.46c37.5,-21.23 35.64,-18.84 15.74,-55.08 37.05,-22.7 19.8,-8.68 40.92,-38.98 -24.27,-45.77 -22.38,-70.18 -87.07,-76.73 11.91,57.81 23.14,47.03 42.29,94.21 -34.16,-23.44 -57.15,-63.59 -66.88,-95.88l-67.18 -16.36c30.06,68.36 67.07,103.93 99.52,163.36zm475.76 -251.77c18.52,-23.03 40.71,44.06 -5.86,-91.73 -28.67,-83.58 -13.67,-66.47 -52.15,-76.64 -18.5,30.09 -27.62,-39.24 -8.73,48.38 6.54,30.34 35.08,127.29 66.74,119.99zm-578.62 703.35c75.07,52.17 97.38,13.45 95.84,-67.45 -43.55,-12.8 -41.1,-22.7 -83.08,3.85 -11.18,28.27 -6.7,20.66 13.64,37.54 -52.88,-4.7 -13.66,-8 -26.4,26.06zm-224.31 -682.13l-1.9 -2.38c-4.29,-5.9 -26.58,-11.44 -7.22,-44.52 16.03,34.61 26.5,12.9 10.78,46.39l-1.66 0.51zm505.56 48.93c13.67,-67.54 11.57,-27.25 -45.21,-76.27 20.1,36.53 1.9,31.02 9.14,52.86 7.12,21.47 8.78,14.44 36.07,23.41zm145.55 308.42l22.54 -2.24c14.45,-34.24 7.18,-13.21 21.44,-33.96 10.44,-15.2 6.15,-2.81 17.54,-27.2 -50.22,6.94 -68.64,12.82 -61.52,63.4zm1863.43 256.77l68.79 -37.75c-2.33,19.28 -5.8,36.76 -8.4,53.92 -1.64,10.84 -11.85,5.23 -1.82,34.15 10.12,29.15 34.36,29.91 66.95,29.9l45.13 -46.8c-4.43,-5.62 -7.3,-13.51 -8.03,-11.53l-17.99 -41.98c-37.79,-10.01 -13.72,12.74 -30.55,-16.05 -26.58,10.99 -23.58,13.78 -43.49,-12.91 -35.27,-47.27 23.26,-25.2 -44.17,-35.32l-4.92 15.5c-0.35,1.55 -0.84,5.61 -1.22,7.31l-1.74 13.69c-4.6,16.92 -8.86,16.7 -18.54,47.87zm671.57 -304.59c5.34,-25.66 -0.99,-19.29 15.69,-43.65 33.65,-49.16 7.17,23.07 36.26,-47.58l-49.26 -46.81c-38.92,19.91 -21.61,4.72 -40.52,42.12 -1.22,-3.02 -1.38,-11.65 -2.35,-9.47 -1.98,4.42 5.61,-22.6 -41.5,-23.86l39.4 -28.82c3.02,-2.77 6.5,-7.1 9.7,-10.69 -59.58,11.38 -27.15,16.42 -67.26,-1.5l-37.46 -100.66c-11.46,16.59 -6.93,27.18 -31.57,40.55 5.38,-24.82 6.23,-1.63 2.1,-26.92 -1.65,-10.11 -7.8,-16.46 -11.9,-43.42l-35.33 2.39c-0.56,54.27 -7.19,37.1 -38.49,66.17 2.65,1.73 6.69,1.32 7.82,5.38l118.77 105.04c31.36,31.45 86.27,104.37 125.9,121.73 17.73,67.8 154.96,179.09 163.66,255.47 53.78,23.9 118.83,157.03 122.04,193.29 35.25,23.84 -13.52,-1.1 53.72,7.17l-33.23 33.07c37.09,4.62 35.97,3.36 48.83,32.3 -9.17,1.03 -4.8,-9.88 -24.47,0 20.21,64.33 31.09,58.15 55.59,132.89 131.59,401.27 210.49,694.64 137.06,1160.82 -47.07,298.85 -134.95,594.29 -292.28,846.11 -38.07,60.92 -120.97,163.18 -130.57,249.47 79.66,6.87 7.19,-3.71 52.05,-11.12 26.43,-4.37 7.94,4.27 63.61,0.21 9.87,-30.92 18.83,-54.76 4.01,-98.09 69.37,2.59 106.03,-16.9 68.52,-89.61 57.5,-36.64 84,-11.86 63.92,-120.51 74.79,-13.69 79.05,-50.89 48.97,-104.25 66.91,-27.46 92.34,-32.7 49.89,-111.64 43.64,-20.71 104.23,-52.23 41.52,-103.21 20.22,-21.43 102,-48.34 39.85,-128.44 2.27,-1.8 5.96,-3.53 7.41,-4.53l21.68 -15.56c36.14,-36.05 26.57,-64.82 -1.62,-102.49 65.63,-29.66 73.7,-66.74 24.15,-113.52 38.98,-34.67 90.6,-59 22.27,-123.11 44.3,-46.42 66.9,-76.67 11.06,-123.87 50.42,-49.77 62.36,-72.44 4.65,-123.86 56.28,-54.45 51.52,-75.48 -2.22,-123.86 24.28,-24.31 53.46,-48.39 21.95,-96.67l-27.66 -27.2c78.88,-85.12 -10.36,-118.76 -14.97,-123.87 21.79,-17.9 37.35,-29.21 25.82,-68.15 -9.26,-31.27 -25.09,-27.96 -44.4,-55.71 30.15,-34.33 22.17,-29.14 23.81,-75.67 -26.27,-27.57 -12.02,-19.56 -52.89,-30.24 1.63,-3.62 4.26,-7.75 5.6,-10.51 44.66,-92.53 -0.63,-83.9 -38.24,-118.93 39.14,-54.25 25.81,-91.78 -42.31,-106.54 29.75,-66.2 30.13,-77.44 -20.16,-115.97l-23.82 -17.38c27.22,-32.79 15.95,-14.69 14.84,-57.38l-86.43 -49.55c45.18,-6.62 35.87,-51.87 36.59,-67.8 -115.15,-59.03 -65.99,-1.3 -115.17,-18.91 40.42,-56.22 16.62,10.75 59.87,-49.32 -14.03,-47.78 -24.12,-58.1 -82.25,-62.14 25.02,-77.96 16.76,-88.54 -61.11,-111.49 8.8,-78.08 -1.38,-95.13 -76.63,-92.89 14.97,-108.69 -23.65,-81.08 -98.18,-108 -2.96,79 -13.51,23.1 34.25,39.16 -29.53,13.99 -30.5,16.06 -58.58,12.03zm-1728.16 3104.06c-57.15,-6.75 -107.8,7.36 -81.32,77.34 40.37,23.09 54.95,12.14 89.2,-9.84l-7.88 -67.5zm872.96 -216.88l-72.32 -15.62c-38.92,78.09 -0.07,135.28 74.96,77.48l-2.64 -61.86zm-564.44 191.1c-19.47,69.8 42.63,117.5 78.1,64.02 32.44,-48.92 -10.92,-104.17 -78.1,-64.02zm-263.74 34.41c-15.43,84.26 55.43,111.5 88.05,62.54 32.3,-48.47 -26.7,-87.95 -88.05,-62.54zm1468.15 -2145.75l11 73.91 66.61 6.53c39,-66.65 26.05,-58.71 -12.06,-95.31 -31.34,0.38 -44.12,5.37 -65.55,14.87zm-1576.74 -1104.26l25.98 32.79c98.44,8.86 112.91,-100.87 -6.64,-91.48 -14.49,25.15 -15.6,20.65 -19.34,58.69zm321.75 3314.5c7.21,-24.7 32.9,-87.2 -40.64,-89.02 -4.92,-0.12 -35.42,6.75 -40.38,7.87 -16.65,72.55 5.25,95.99 81.02,81.15zm1673.31 -1745.34c39.1,7.23 65.4,2.29 106.09,1.15 62.59,-1.74 62.91,13.33 76.37,-32.25 -26.15,-17.15 -184.98,-37.98 -182.46,31.1zm-2384.17 1615.99c-42.14,56.53 -27.41,119.73 44.36,93.11 56.4,-20.92 38.62,-99.92 -44.36,-93.11zm1732.14 -2535.14l6.74 59.12c82.78,24.95 106.29,10.59 85.54,-79.85 -46.79,-10.2 -62.97,1.42 -92.28,20.73zm-703.61 -503.04c20.78,10.43 56.35,14.41 85.35,10.66 9.57,-39.86 26.3,-85.68 -24.57,-94.17 -66.14,-11.03 -61.85,40.38 -60.78,83.51zm774.25 2326.2c-49.11,148.75 145.16,114.46 66.81,-8.36l-66.81 8.36zm-1195.9 -2435.04c-10.65,-28.93 -3.03,-8.13 10.22,-15.92 6.59,-59.23 -25.64,-102.07 -74.6,-72.52 -16.23,9.8 -31.34,34.19 -22.82,63.41 10.95,37.59 48.14,26.82 87.2,25.03zm-318.32 -88.22c-2.54,1.35 -56.05,16.14 -22.79,69.87 17.19,27.77 51.3,30.8 74.48,14.52 45.08,-31.65 8.31,-116.17 -51.69,-84.39zm877.95 3580.13c-31.5,-84.36 -10.93,-65.2 -51.72,-73.6 -21.96,22.13 -23.22,3.65 -6.98,55.4l35.31 91.23c24.01,48.02 -8.59,12.14 35.87,31.78 12.76,-25.54 20.4,2.69 5.32,-59.15 -3.16,-12.97 -12.89,-32.49 -17.8,-45.66zm-1315.14 185.31c48.55,-9.09 14.54,23.91 36.07,-37.09 16.99,-48.15 50.75,-137.89 28.42,-178.25 -39.78,-2.07 -19.88,-22.54 -39.22,33.34l-32.92 131.33c-8.59,42.53 -25.5,11.23 7.65,50.67zm2519.37 -2355.03l-0.72 39.33 131.83 -0.3c-52.8,45.2 9.32,-22.62 -14,11.2 -12.59,18.26 -6.32,12.6 -7.08,36.29l69.42 -4.46 -2.53 -97.06 -176.92 15zm-3750.31 -822.26l-25.14 72.2c18.06,22.17 31.3,28.61 51.32,39.12 -21.17,-5.27 -43.11,-7.34 -64.67,-4.91 -22.21,41.68 -24.11,46.19 -14,88.69 2.4,0.93 27.64,8.15 27.72,8.14l39.96 -17.55c10.26,47.58 19.69,61.12 77.23,63.07l40.1 -79.43c-4.3,-4.04 -8.88,-8.01 -13.72,-11.86 6.49,-0.82 14.02,-3.03 23.57,-6.85 -11.89,-42.61 -60.23,-66.92 -116.81,-90.13 44.95,-21.03 34.14,32.77 57.24,-44.58l-53.29 -17.97 -29.51 2.06zm121.83 2161.87c-2.6,31.29 7.63,4.46 -6.56,39.62l-62.07 7.35 -0.7 68.68c41.89,25 68.24,38.83 95.05,3.39 21.21,-63.79 -13.54,-75.88 40.73,-89.7 -40.63,40.86 -32.72,-1.17 -18.99,54.97 88.17,11.21 80.53,-138.53 -47.46,-84.31zm3701.03 -1521.08c50.37,96.6 -64.67,-27.02 43.48,37.16 -37.08,11.37 -34.15,-7.63 -71.39,-36.02l-72.86 9.72 9.68 99.68c276.24,-21.33 153.49,-123.02 136.09,-125.54 -77.97,-11.28 -28.8,4.65 -45,15zm-573.39 -260.18c19.01,20.72 4.11,10.55 25.31,26 69.34,-3.2 73.78,4.29 68.01,-68.72 -28.49,-30.11 -18.54,-25.07 -74.36,-37.99l11.68 -37.94c4.83,-22.02 1.71,-35.41 -2.68,-55.99 -89.25,-23.39 -128.31,33.57 -58.16,82.18 26.2,18.16 9,-0.49 33.02,23.51l-2.82 68.95zm-1674.03 -1131.28c-63.85,41.99 -358.72,63.62 -476.27,148.21 104.31,14.85 467.55,-241.94 1148.63,-82.73 223.53,52.25 618.99,226.02 777.49,398.86 38.39,41.86 57.43,38.89 85.39,82.61 -66.3,-1.9 -0.15,5.02 -46.09,-20.78l-31.04 -15.75c-2.06,-1.11 -8.53,-4.8 -11.12,-6.24l-22.55 -12.22c-41.09,-26.13 -102.18,-88.22 -231.38,-167.28 -380.71,-232.96 -811.99,-317.92 -1259.33,-241.56 -94.79,16.18 -178.25,51.59 -260.52,65.46 12.5,24.78 15.7,27.16 17.25,64.51 68.09,-20.96 -0.38,-21 86.61,-27.45 76.74,-5.69 200.17,-50.95 386.16,-60.87 160.23,-8.54 383.69,14.74 530.21,55.11 22.39,6.17 43.54,12.35 63.61,18.52 -3.75,8.04 -7.23,17.85 -10.7,29.68l44 42.06 50.02 -19.9c3.78,-8.49 6.27,-15.38 7.75,-21.38 200.56,73.22 265.32,141.47 366.91,178.56 1.45,0.53 5.03,1.22 6.37,1.78l163.33 139.93c33.38,58.87 6.46,-37.39 2.21,18 -0.06,0.66 -0.87,4.32 -0.95,4.86 -0.07,0.57 -1.59,3.39 -1.15,5.06 2.59,0.91 7.09,-1.29 8.03,1.74l71 43.67c33.64,49.34 62.33,54.61 96.01,107.8 34.31,37.44 38.86,38.26 66.67,77.24 26.16,36.67 37.92,54.43 61.36,87.71 40.69,57.79 78.4,117.02 103.46,178.48l38.98 -9.84 1.66 36.68c0.36,1.5 1.91,5.41 3.1,8.01 1.42,0.2 3.73,-2.59 4.11,-1.23 13.08,46.41 8,-1.97 9.78,-2.14 13.09,-1.22 -4.31,-9.97 30.96,-0.02l4.04 78.47c-45.69,-44.07 4.72,-26.22 -46,-36.37 3.21,26.06 16.64,75.89 44.29,88.83 27.1,12.67 -7.6,14.43 41.72,2.76l-38.78 39.51c17.56,11.93 -5.36,9.89 26.05,3.07 27.83,-6.04 11.89,-0.99 29.07,-13.83 -7.63,-34.96 -30.94,-102.9 -44.54,-136.33 -20.18,-49.63 -47.41,-64.92 -60.45,-130.61 -48.24,13.81 -14.97,3.37 -48.6,17.27 13.48,-23.68 4.31,-8.17 15.05,-19.63l-9.57 -22.89c-1.79,-0.4 -6.09,-1.27 -7.83,-1.65l-0.86 -23.85c14.18,-39.95 -89.21,-159.41 -110.23,-188.92 -52.02,-73.02 -142.8,-159.67 -162.92,-199.19 67.3,3.31 55.63,11.01 89.03,49.99 57.07,66.61 100.15,103.83 165.36,193.91 16.14,22.3 4.76,17.48 30.16,42.3 -11.81,-45.81 -10.25,-44.12 -39.61,-77.63 -99.39,-199.6 -502.03,-489.92 -509.07,-500.45 -42.87,-6.29 -74.44,-33.16 -134.91,-62.55 -648.09,-315.02 -856.1,-167.22 -1111.36,-207.36zm-535.79 4034.19c5.04,12.35 5.43,14.3 12.38,44.28 5.84,-3.36 28.6,-16.1 30.27,-17.18l11.32 30.72c5.02,11.81 3.05,31.15 33.21,43.83 34.23,14.41 59.15,-6.59 81.26,-17.34 13.04,65.65 64.99,75.86 109.55,34.16 39.15,44.1 66.73,70.49 123.87,24.16 53.84,55.46 59.05,66.92 123.86,16.2 28.67,49.95 52.01,64.35 111.89,19.25l16.58 -15c24.55,87.79 86.12,41.16 121.43,6.81 13.92,30.59 7.99,43.02 58.74,40.61 55.56,-2.64 12.55,3.73 38.37,-14.71 3.16,-2.25 11.99,-12.3 14.03,-14.3l12.31 -16.26c36.43,66.91 76.97,45.95 118.67,-3.82 35.27,44.69 87.82,51.64 114.27,-18.73 56.45,44.27 84.1,56.85 124.52,-17.45 80.79,51.33 87.26,14.32 123.86,-26.96 30.76,26.05 24.13,23.71 79.54,21.67l27.62 -57.41c42.18,14.66 46.58,20.81 95.73,18.42 14.42,-19.31 -0.37,-1.54 15.01,-28.34l20.42 -31.8c77.79,56.01 80.19,-4.99 108.51,-45.54 73.8,41.79 79.3,10.3 111.47,-48.78 65.6,26.92 91.79,10.99 104.48,-63.19 44.53,18.65 27.32,18.1 79.94,5.67 31.75,-66.44 -14.38,-1.42 8.41,-33.16 62.91,-87.57 119.34,38.42 114.57,-103.98 70.9,21.26 101.78,14.14 99.3,-73.75 88.06,23.11 68.77,2.74 98.01,-48.07 20.77,-36.09 34.75,-33.55 81.34,-60.32l-37.03 -47.74c-20.26,-10.81 -17.9,-7.78 -41.17,-15.69 -38.3,22.08 -202.69,181.35 -455.06,325.56 -359.36,205.35 -850.02,321.54 -1276.66,278.67 -259.15,-26.04 -260.61,-28.61 -489.01,-91.91 -81.44,-22.56 -74.72,-35.9 -125.81,1.42zm-317.64 -4305.98l121.69 58.17c48.66,0.53 577.04,-324.45 1385.62,-184.4 110.65,19.16 389.43,91.91 463.29,142.91 193.45,41.31 437.79,230.71 602.43,353.59 -7.7,-45 -0.2,-26.99 -27.84,-50.34 38.07,15.62 11.24,26.49 69.81,-10.68 17.94,-81.29 -52.29,-72.78 -101.56,-54.7l-14.25 5.84c-1.43,0.68 -20.84,11.95 -24.86,14.2 20.25,-41.6 25.08,-0.23 6.02,-48.18 1.72,-1.01 5.33,-2.49 5.93,-0.72 0.08,0.24 24.95,1.52 36.52,-24.05 -24.28,-35.76 4.81,-16.84 -38.32,-30.05 -24.56,-7.53 -38.18,-1.12 -59.16,4.15 -3,-71.32 -28.99,-88.95 -103.89,-68.31 -10.6,-78.8 -41.41,-82.41 -106.74,-59.35 -8.82,-72.47 -51.04,-77 -107.9,-58.74l-20.71 -59.74c-48.84,-7.69 -39.27,-18.01 -74.26,12.33l-23.61 -30.86c-29.7,-34.82 -46.15,-41.95 -104.38,-14.15l-31.86 -55.27c-58.64,-6.61 -36.84,-14.2 -79.62,16.13 -2.39,-2.22 -5.76,-9.23 -6.77,-7.08 -0.99,2.11 -5.27,-5.48 -6.61,-6.99l-32.14 -38.38c-54,-0.83 -48.24,-0.41 -78.34,21.67 -45.55,-75.89 -61.14,-58.38 -126.62,-22.69l-29.69 -47.72c-61.48,-1.88 -47.26,-11.74 -85.59,29.26 -33.29,-39.67 -70.32,-89.83 -111.59,-12.09l-32.68 -28.74c-16.83,-10.89 -10.25,-12.8 -36.88,-14.87 -46.88,-3.66 -47.95,15.03 -58.04,39.45 -47.99,-42 -91.69,-74.32 -122.54,-0.57 -50.03,-38.88 -80.02,-62.67 -127.18,0.35l-23.92 -15.9c-20.17,-9.35 -5.23,-11.6 -38.93,-11.37 -42.72,0.29 -42.75,15.06 -53.3,43.47l-41.39 -22c-62.25,-22.51 -62.94,-0.57 -90.19,40.49 -46.5,-42.77 -88.67,-41.21 -111.85,28.3 -52.15,-32.2 -93.54,-44.3 -123.49,22.61 -72.6,-16.71 -73.16,-32.58 -116.23,33.11l-10.43 16.17c-52.6,-51.23 -85.46,-21.17 -104.6,43.31 -85.31,-43.1 -80.85,-20.32 -115.57,44.24 -53.87,-14.87 -49.88,-17.7 -87.78,8.19zm2681.44 1710.08c-16.14,20.14 -19.16,35.98 -20.4,71.82l53.7 29.99c-27.23,47.11 -39.5,44.13 -19.46,110.42l77.55 -6.54c0.02,48.22 6.92,40 -29.96,41.81 -55.71,2.71 -16.47,2.27 -62.98,-20.37 60.46,57.91 -12.02,36.38 33.47,98.26 18.55,25.25 62.65,16.76 81.36,24.15 -21.96,41.11 -1.86,13.13 -41.53,28.01 -1.68,0.63 -23.08,2.12 -38.31,8.89 -35.32,103.23 69.8,128.69 86.88,37.47 10.63,-56.72 -5.62,-120.58 -1.12,-160.56l12.18 -42.17c16.96,44.09 5.96,37.01 9.98,88.88 15.44,198.94 -2.61,411.67 -68.62,599.76 -11.89,33.89 -26.7,81.84 -38.99,110.64 -31.37,73.54 -54.41,142.98 -94.41,214.81 -53.13,95.4 -121.94,205.6 -198.56,284.31 -22.21,22.82 -38.7,47.72 -68.9,79.46 -72.7,76.42 -250.32,228.32 -339.13,279.43 -501.35,341.46 -1266.8,345.79 -1806.3,10.68 -257.24,-159.78 -332.58,-322.65 -439.7,-286.79 149.61,164.78 186.99,203.47 407.85,343.6 149.22,94.67 346.16,168.15 539.15,215.76 493,121.62 1081.21,-18.68 1471.19,-320.57 430.32,-333.11 470.46,-592.05 559.96,-704.27 47.24,-59.24 112.76,-350.86 124.96,-431.39 70.34,-464.58 -14.54,-559.11 -15.4,-602.39 -0.07,-3.45 1.44,-14.65 1.79,-17.97 0.12,-1.21 5.1,-15.46 5.5,-32.87 -1.89,-1.13 -5.25,-2 -6.19,-2.31l-12.58 -4.01c-1.16,-0.36 0.59,42.52 -13.01,-3.92 -0.76,-2.59 -4.66,-1.05 -6.76,-2.14 39.84,-23.5 18.74,-2.23 36.93,-37.17l-89.89 -40.93c22.88,59.47 24.48,24.72 32.97,76.08 5.03,30.41 -42.88,16.15 37.47,30.36 -2.1,3.86 -4.71,8.24 -6.52,11.44l-17.35 30.76c-7.92,16.55 -5.64,6.03 -8.44,22.92 -9.53,57.5 38.16,-15.28 3.38,37.61 -28.23,15.29 0.94,9.75 -18.49,1.44 -27.62,-11.81 -8.48,-19.79 -20.49,-39.13 -13.54,-21.82 -28.64,-19.4 -51.36,-31.45 0.02,-0.04 88.52,-146.85 -41.42,-101.81zm-882.48 -1068.16l18.32 58.41c38.98,1.55 55.41,-7.31 79.17,-15.68l1.85 -68.51c-43.51,-27.71 -62.97,-26.06 -99.34,25.78zm648.14 2513.19c37.08,-33.4 36.95,-26.1 24.51,-85.37 -61.18,-14.02 -96.45,-21.51 -95.83,55.12 22.77,28.32 20.46,34.24 71.32,30.25zm291.4 -942.4c-65.74,40.79 -36.45,79.44 -36.44,79.33 0,-0.01 -7.32,27.58 68.57,22.96 35.12,-43.63 46.58,-92.44 -32.13,-102.29zm-166.06 -735.84c12.67,39.42 7.71,48.02 44.97,71.96 36.4,-3.69 55.13,-3.91 59.69,-48.09 5.03,-48.71 -19.42,-47.44 -62.46,-53.45 -25.05,12.92 -24.86,12.7 -42.2,29.58zm-283.53 1867.86c21.14,-43.49 21.3,-35.48 1.54,-85.22l-71.42 1.54c-31.4,60.69 -21.42,115.83 69.88,83.68zm-329.53 -2680.96c-46.92,6.49 -42.68,47.41 -37.36,85.42 44.05,23.27 42.57,20.91 89.05,0.94 6.37,-51.98 9.36,-94.81 -51.69,-86.36zm-2805.09 1420.48l8.6 -12.73 -1.64 -82.72c-68.03,-11.69 -69.05,-17.41 -89.62,22.94l-11.54 -15.89c-34.7,-24.25 -25.91,-16.47 -64.81,-12.19 -32.9,104.39 36.36,135.12 81.45,75.35l77.56 25.24zm2533.04 1975.88c16.82,-19.56 27.92,-48.39 1.18,-70 -59.19,-47.83 -151.91,41.19 -45.8,95.99 -42.39,86.2 14.43,82.42 84.59,61.74 -0.56,-60.32 6.54,-62.71 -39.97,-87.73zm1366.14 -1832.61c97.5,14.36 72.56,-9.79 81.46,-25.41 44.26,53.97 95.93,47.62 86.77,-56.15 -49.49,-21.11 -56.41,-31.95 -99.21,10.7 -23.16,-46.31 18.72,-29.16 -71.42,-28.85 -11.93,43.02 -18.67,53.76 2.4,99.71zm-2685.18 1716.83c-0.78,37.79 -4.5,57.38 7.1,88.43 -32.61,2.44 -20.72,-3.56 -36.77,8.74 -3.06,46.95 -9.35,66.16 36.42,74.1 89.76,15.56 52.35,-54.34 78.46,-93.6 1.18,-1.78 4.49,-3.9 5.7,-5.8 1.3,-2.03 4.09,-4.78 5.28,-6.95l10.55 -42.13c-44.77,-38.69 -46.59,-37.39 -106.74,-22.79zm523.94 211.96c66.41,-75.9 41.21,-119.47 -67.92,-109.01 -9.5,95.05 -56.81,206.55 77.44,174.75 24.03,-50.07 25.05,-45.84 -9.52,-65.74zm1284.71 -216.28c-2.48,-79.3 -20.25,-44.3 -34.57,-66.5 -3.91,-6.07 -26.41,-72.64 -30.34,-82.77 -59.54,10.23 -48.81,23.2 -99.53,32.83 31.82,59.8 46.64,102.36 81.71,152.88 56.64,0.12 57.11,-2.55 82.73,-36.44zm-3022.48 -1306.29l-88.52 27.5c-12.51,50.69 -1.16,36.24 8.65,88.53 66.91,2.91 163.04,-29.49 211.75,-58.44 -21.29,-50.74 4.91,29.48 -59.44,-75.9l-72.44 18.31zm115.88 -1118.91l36.97 -6.63c-5.31,-70.13 -5.02,-9.81 -15.34,-47.77 -8.5,-31.24 2.37,-2.76 -2.65,-51.52l-163.52 -55.64c-6.6,18.55 -23.17,57.95 -23,94.14l167.54 67.42zm2947.93 2148.15c-27.5,21.65 -15.39,28.23 -22.13,45.18l-10.1 16.55c-2.73,3.25 -14.01,10.55 -17.63,14.24 9.13,42.67 68.27,128.78 82.01,135.81 28.26,7.08 25.8,13.85 57.29,-2.7l38.73 -41.17c-25.06,-39.27 -92.98,-143.97 -128.17,-167.91zm691.07 -946.88c-32.5,102.34 14.8,-55.22 15.57,98.04 5.18,1.93 10.43,3.96 15.73,6.04 -28.89,24.67 -30.28,37.03 -41.95,80.06 32.63,30.27 110.83,69.35 168.64,62.76 10.45,-27.28 19.65,-49.92 15.73,-87.27 -45.19,-16.54 -44.68,-8.99 -69.28,-5.3 -5.76,-12.46 -10.47,-21.29 -15.51,-27.82 28.74,10.32 57.74,18.35 85.24,18.45l38.16 -81.64c-35.15,-21.31 -147.49,-72.09 -187.42,-70.92 -28.31,0.84 -5.65,-2.32 -24.91,7.6zm-3086.47 1111.38c66.5,-4.17 12.6,-13.92 68.62,-38.01 21.01,-66.43 108.19,-107.82 72.43,-146.17 -62.39,-32.09 11.09,8.07 -45.86,4.51 -5.01,-0.32 -25.42,-11.49 -55.02,-15.13 -23.8,40.83 -46.95,54.27 -70.1,90.14 -38.35,59.38 4.5,47.67 29.93,104.66zm-514.62 -1730.64l11.61 171.03c-0.92,1.3 -16.1,-13.7 -2.36,15.34 15.31,32.37 -1.44,-10.95 33.26,11.75 -8.19,8.93 -14.38,1.09 -19.53,37.49l4.05 29.65c0.54,1.27 2.04,4.61 2.76,5.88 32.18,57.14 23.26,0.3 41.23,50.85 -5.84,4.18 -1.62,1.88 -15.03,5.85 -11.18,3.32 4,-4.36 -24.61,6.53l13.59 18.99c0.75,1.3 2.81,4.97 3.56,6.4l10.73 29.12c0.1,1.1 0.22,4.34 0.19,5.51 -1.7,66.48 -12.04,-8.58 -10,54.26 2.51,-2.08 5.96,-9.67 6.98,-6.85 1.3,3.56 7.91,-7.78 13.15,-8.42 19.73,-2.41 -7.11,-12.17 16.24,7.19l-6.95 17.85c-17.77,59.21 -14.96,37.39 0.45,81.42l63.59 169.09c1.09,2.89 2.1,6.24 3.14,9.21l45.4 104.98c13.38,24.29 23.35,46.77 34.12,67.01l45.69 24.77c-0.1,-0.27 -2.07,-21.25 -1.95,-21.76l7.75 -16.05c2.6,-6.75 35.66,6.39 -9.78,-44.01l-27.64 -28.31c-0.2,-0.78 0.14,-4.14 -0.06,-5.02l-14.34 -31.73c-51.15,-70.36 5.18,-0.82 -27.85,-83.42l-100.45 -299.37c-13.51,-47.06 7.06,-19.34 -27.61,-144.12 -14.01,-50.43 3.15,-54.59 -1.63,-116.16 -3.65,-47.03 -25.62,-22.48 1.91,-41.34 -0.98,-68.55 0.11,-72.86 2.78,-145.67l14.38 -170.32 -48.3 -14.29 53.58 -14.29c19.4,-161.24 69.39,-300.24 132.35,-431.21l147.64 -271.95c27,-52.72 44.53,-42.36 47.66,-57.32 0.86,-4.1 4,-4.88 5.5,-7.64 -6.96,-16.01 -5.01,3.73 -18.55,-36.22 1.93,-0.88 5.49,0.08 6.35,0.09 21.68,0.4 52.87,-6.96 56.29,-21 0.79,-3.2 4.66,-2.68 7.07,-3.87 -3.08,-2.3 -7.14,-5.41 -9.32,-6.82l-23.06 -44.95c-51.18,34.95 -155.02,189.25 -184.77,238.15 -49.77,81.81 -101.32,183.04 -126.46,271.57 -19.78,69.66 -55.88,59.19 -95.67,322.05l-37.08 310.08zm741.73 1886.73c8.27,38.09 -10.19,13.36 13.03,33.44 41.38,-30.77 21.18,-19.42 72.98,-11.22 -23.64,-54.36 -25.32,-26.68 9.44,-63.42 3.53,-33.96 8.07,-21.28 -32.81,-16.12 -17.47,-3.57 3.49,5.79 -14.24,-9.14 -20.32,-17.11 3.01,-6.95 -22.98,-18.6 -22.75,52.95 -14.03,26.15 -48.89,56.25l23.47 28.81zm924.09 -181.89c28.11,-65.32 8.07,-95.42 -69.1,-81.75 -21.42,45.89 -28.45,33.85 -4.75,79.5 41.62,20.2 26.78,19.87 73.85,2.25zm1798.79 -1442.33c-120.76,-52.29 -131.97,93.46 -10.28,83.31 12.9,-28.15 20.71,-44.02 10.28,-83.31zm-982.14 1268.46c77.05,87.75 156.42,-82.25 7.17,-70.19l-0.32 -4.43 -70.93 -7.81 -20.6 17.01c-2.72,47.68 -3.06,93.66 58.54,80.01 12.51,-2.77 20.78,-7.76 26.14,-14.59zm934.93 -958.91c-14.2,-47.49 -4.6,-44.1 -42.1,-75.03l-61.15 17.19 -5.63 55.5c19.47,23.02 34.17,28.72 54.37,43.85l54.51 -41.51zm-3298.43 -1859.21c6.79,44.42 8.02,42.46 32.94,64.57l46.45 6.17c9.76,14.41 -0.38,-8.52 1.46,35.72 107.44,76.73 147.6,-115.85 9.02,-84.01 21.16,-46.72 10.93,-38.03 -36.25,-57.63 -24.49,11.61 -34.58,20.8 -53.62,35.18zm301.62 2823.14c70.86,-0.75 69.11,-7.67 86.71,-67.33 -26.02,-17.79 -49.19,-41.42 -60.68,-55.76 -29.97,17.7 -113.18,91.29 -115.19,123.24 -4.93,78.38 137.23,89.77 89.16,-0.15zm190.27 -447.47c-27.61,-11.05 -43.88,-17.06 -81.63,-11.22 -23.84,68.61 1.63,97.6 77.12,94.16l4.51 -82.94zm1178.4 1058.64c6.03,-86.22 16.44,-176.49 -6.42,-221.98 -21.89,4.68 -12.63,3.9 -27.61,12.95 -3.36,2.03 -13,9.76 -16.39,11.98l-46.13 28.03c-22.22,149.96 -29.11,158.17 96.55,169.02zm1798.87 -2684c71.73,-11.25 51.73,7.62 89.85,48.16 36.1,-11.9 62.36,-18.11 88.27,-31.7 3.05,-1.6 10.11,-7.32 12.76,-8.57 1.33,-0.62 4.27,-2.25 5.58,-2.74l44.83 -7.48 -16.33 -95.63 -54.45 -2.6c-34.52,34.47 -84.11,45.82 -117.82,17.42 -14.34,23.19 1.68,49.68 -44.69,27.21 17.8,72.26 3.89,20.22 -8,55.93zm-3263 1288.03l-16.48 -19.54c39.75,-40.5 29.52,-43 10.39,-93.07l-57.13 -17.99c5.78,-10.48 62.5,-56.52 15.33,-91.97 -18.94,-14.24 32.58,-23.37 -34.42,-7.09l-38.47 -1.17c-2.23,11.78 -21.03,6.18 -13.53,83.44 45.14,8.21 17.28,-7.54 54.87,15.46 10.06,43.6 -14.47,32.66 -9.7,73.26 4.6,39.14 20.19,22.09 59.29,50.61 1.75,55.99 -9.57,42.75 4.84,90.3 9.86,-56.1 -1.54,-34.32 25.01,-82.24zm2406.07 -2622.91l24.44 31.57c-14.98,42.13 -9.06,-8.26 -26.75,42.16l39.57 9.16c2.16,1.13 4.93,3.95 6.82,5.17 69.96,45.23 -34.32,-4.3 23.26,18.48 37.55,-82.13 36.92,-13.23 41.52,-64.36l-27.88 -6.37c13.36,-34.44 3.56,-39.65 -1.25,-49.21 -2.25,2.26 -5.51,2.51 -6.85,6.67l-26.15 18.77c-2.43,1.56 -7.04,3.85 -10.56,5.79 -19.3,-30.62 12.84,-9.2 -36.17,-17.83zm596.45 3167.03l53.06 2.15c1.12,2 2.17,5.4 2.58,6.37 15.4,37.11 11.06,32.07 46.96,49.3 38.31,-20.06 33.6,-20.39 54.02,-44.31l-1.57 -49.29c-37,-12.84 -38.04,-20.52 -81.76,-11.73 16.65,-40 16.71,-14.94 4.59,-44.76l-52.76 -20.04 -45.6 51.4c5.31,33.82 8.51,38.51 20.48,60.91zm-249.1 -2291.13l10.25 -83.48 -64.5 -13.14 -26.56 50.5 31.33 43.41 49.48 2.71zm371.77 -180.9l-0.39 41.63 -14.29 -16.86c-42.71,8.02 -37.69,11.77 -54.46,37.1 5.1,34.14 10.34,36.2 28.21,57.15l34.13 12.97c27.01,-22.77 19.27,-19.43 34.01,-79.33 -3.97,2.46 -9.19,1.55 -11.63,7.8l-6.91 -8.15 60.33 -37.46c-1.75,2.66 -5.49,2.95 -6.24,7.26 -1.59,9.28 -23.88,11.57 -11.76,43.29 23.2,7.63 8.56,6.62 48.2,-7.65l6.3 -45.37 -36.3 -39.89 -69.2 27.51zm-1904.37 2848.84c8.68,-102.61 -72.05,-88.04 -90.02,-41.77 -26.1,67.22 37.34,77.5 90.02,41.77zm1669.48 -837.73c80.61,21.53 94.9,-6.32 85.5,-90.07l-90.62 7.54 5.12 82.53zm-3365.79 -718.83l7.75 -41.04 -43.58 -12.36c-27.97,0.79 -61.35,0.27 -88.39,1.72 -60.29,3.23 -41.38,-8.92 -50.69,35.15 57.9,31.86 82.15,-7.61 174.91,16.53zm2361.89 -1646.17c15.5,-40.17 23.04,-47.85 2.42,-88.3l-74.82 -11.44c-20.87,76.84 -13.05,101.78 72.4,99.74zm615.81 2874.32c5.28,0.73 12.08,1.09 20.92,0.89 56.47,-1.29 54.99,-46.91 34.06,-90.67 -37.27,-10.49 -62.9,-6.37 -75.49,8.59 -35.27,-12.27 -86.32,19.44 -63.95,73.5 14.4,34.81 62.89,34.14 84.46,7.69zm581 -861.32c63.13,-54.32 40.01,-116.29 -27.2,-103.15 -59.29,11.6 -57.46,84.05 27.2,103.15zm-3372.64 -1640.92l25.65 27.21c41.1,27.31 80.7,69.65 132.59,65.66 5.86,-54.46 -9.65,-41.69 -50.57,-69.25 -35.57,-23.96 -37.22,-32.96 -82.26,-49.64 -9.2,9.44 -8.34,3.56 -25.41,26.02zm88.5 2493.17c42.04,-2.8 13,12.32 92.09,-52.09 48.41,-39.43 68.12,-23.99 41.52,-80.82 -46.36,13.42 -42.8,26.37 -80.58,53.61 -42.46,30.62 -38.26,14.28 -63.89,61.91l10.86 17.39c-31.22,-20.01 11.44,-5.16 -44.53,-14.71 6.81,40.11 -1.61,19.56 12.17,47.99 48.87,-20.68 19.54,9.57 32.36,-33.28zm3414.18 -178.98c-64.37,-46.97 -94.4,-78.89 -131.38,-53.32 17.55,24.49 -35.97,-4.78 30.14,42.46 50.56,36.12 99.77,82.75 120.66,59.03 1.48,6.16 7.83,15.99 21.09,32.45 0.02,-0.04 18.65,-22.94 19.9,-26.3 10.38,-28.03 2.34,-4.67 0.12,-25.25 -15.18,6.59 -29.6,6.79 -36.76,10.08 3.14,-41.76 16.5,-9.76 -23.77,-39.15zm-826.3 776.58c-12.97,-41.92 -37.79,-143.48 -86.95,-154.4 -34.91,34.94 22.67,96.95 32.09,148.97 -31.87,-33.75 -16.24,-42.33 -65.39,-14.2l33.3 53.67c42.76,-3.22 52.7,-12.08 86.95,-34.04zm-1296.42 177.56c3.47,-32.58 9.43,-62.41 17.22,-94.19 28.36,-115.76 12.24,-68.94 3.14,-86.47 -64.25,9.12 -20.1,-3.61 -61.93,134.53 -15.66,-26.39 1.79,-30.48 -37.16,-47.72 -24.76,30.59 -18.47,29.18 -18.06,64.92 38.41,25.29 45.97,19.84 96.79,28.93zm-1550.84 -1825.03l5.16 -53.42 -56.09 4.54 -93.64 5.68c5.52,-6.28 24.9,-5.53 38.97,-43.45 -13.03,-7.08 -4.95,-7.74 -31.57,-11.73 -7.43,-1.11 -24.45,3.11 -32.68,4.67 -15.99,47.83 -9.82,51.15 -1.26,101.53l171.11 -7.82zm-76.15 74.55l-76.58 19.66 0.17 75c24.85,13.04 39.25,17.82 78.67,14.94 -3.22,-26.93 8.65,-25.11 -42.08,-47.84 57.05,-17.63 41.14,61.11 138.85,24.83 12.08,-31.22 2.04,-66.47 -12.38,-96.52l-86.65 9.93zm3205.33 794.78c42.52,13.22 90.21,20.11 90.83,-39.99 0.57,-54.08 -50.49,-57.5 -88.11,-36.83 -21.11,41.59 -13.57,39.06 -2.72,76.82zm-2626.45 228.05c19.67,-22.48 7.39,-38.28 -2.66,-40.08l-17.33 -3.46c-24.6,4.46 -29.11,26.8 -59.63,63.71l-53.4 -42.28c-56.66,52.59 -42.84,77.53 24.77,118.72l108.25 -96.61zm1631.7 -2947.69c59.4,10.1 122.25,22.53 88.53,-75.74 -42.3,-23.4 -47.24,-15.48 -81.41,3.3l-7.12 72.44zm1351.87 2188.83c-98.83,-11.65 -100.26,21.47 -75.29,97.35 92.7,8.74 103.84,-19.37 75.29,-97.35zm-1254.07 1477.71c-29.98,-33.94 -14.31,16.44 1.58,-52.86 -61.49,28.45 -17.31,33.52 -82.64,7.52 8.7,70.45 -9.59,78.28 -9.63,78.16 -0.87,-2.27 -3.54,7.12 -4.78,10.89 28,-7.5 28.15,-13.32 44.56,-4.19l21.59 28.26c1.53,-2.79 2.8,-6.99 3.86,-8.73l15.31 -22.91c51.9,-51.52 -42.17,30.36 15.33,-10.78 1.73,-1.24 7.57,-0.21 8.88,-4.34 1.35,-4.22 6.31,-2.41 9.29,-3.99l-23.35 -17.03zm-2240.5 -1233.9c-0.42,-1.61 -2.97,1.13 -4.29,2l-19.77 77c60.75,-15.05 34.37,-11.66 67.6,24.41 19.61,-42.09 42.55,-46.88 43.21,-48.95 1.43,-4.5 6.4,-3.05 9.34,-5.02l-30.87 -23.64c-0.17,-0.62 5.24,-29.51 7.16,-42.7 -0.24,0.11 -66.85,38.25 -72.38,16.9zm3433.22 639.67l-11.01 10.48 -46.69 -28.18 -44.02 52.64c-1.33,-2.53 -6.03,4.08 -8.7,6.54 46.78,25.67 28.93,4.64 23.25,62.54 3.33,-1.62 7.15,-4.68 9.36,-5.98l73.14 -3.66c-29.96,-115.86 2.68,0.89 4.67,-94.38zm-3615.6 -1903.2c2.26,2.7 6.87,2.16 7.79,7.15 8.95,48.58 4.48,-8.21 12.6,15.37 11.37,33 9.98,-3.31 0.18,48.13l23.34 -12.66c30.08,-15.61 -3.87,-19.91 61.96,4.33 -12.21,-60.02 -11.64,-33.93 12.48,-74.71 -2.47,-1.07 -6.78,-4.73 -7.74,-2.23l-58.1 -35.41c-0.46,0.84 -17.79,30.87 -18.71,31.72l-24.41 14.75c-1.95,1.05 -6.36,2.13 -9.39,3.56zm1920.36 -1615.27c13.33,-71.73 -40.94,-9.27 22.38,-69.3 -41.46,-33.23 -6.63,6.37 -40.48,-13.48 -17.34,-10.17 4.74,-8.92 -28.93,-29.13 -30.98,58.55 -19.52,28.01 -47.02,55 50.96,36.09 32.02,-12.15 19.99,61.35 41.25,-10.13 15.98,-7.73 28.5,-12.25 2.11,-0.76 5.47,-2.98 7.51,-3.52 1.72,-0.46 5.09,-1.85 6.7,-2.03 19.45,-2.25 -5.74,-6.3 31.35,13.36zm2217.67 2368.46c23.82,92.21 21.28,14.16 -7.96,76.71 37.8,14.7 16.22,-28 59.54,33.49 31.76,-33.72 -0.36,-21.67 57.61,-45.88 -28.57,-62.18 -31.41,32.47 -27.22,-68.13 -72.07,12.25 27.92,31.59 -81.97,3.81zm-3288.17 624.7l-79.6 -5.58c16.39,26.88 -20.2,23.1 18.91,22.45l-23.14 50.66c11.93,-3.97 9.74,-1.5 23.91,-14.78l18.15 -23.51c16.8,40.46 6.57,19.11 -9.04,62.41 57.99,-10.11 60.62,-37.29 50.81,-91.65zm2225.15 -2340.61l30.94 62.4c-37.54,-15.08 -40.77,-34.21 -61.49,-48.55 -2.68,49.94 -3.35,52.72 22.38,69.64 1.47,0.96 4.31,3.65 6,4.54 1.99,1.05 5.27,3.85 7.5,4.67 52.54,19.35 58.93,-18.63 52.28,-75.52l-57.61 -17.18zm710.62 59.94c3.95,1.71 8.9,3.7 10.02,3.96l12.3 -3.1c0.01,-0.03 41.34,-11.5 2.97,-27.92 9.9,-13.24 15.89,-26.41 15.37,-37.98 -7.96,-4.35 -24.8,-9.89 -26.31,-10.69 -69.65,69.52 -113.24,70.66 -123.2,109.15l5.66 18.37c21.93,3.65 68.87,-21.09 103.19,-51.79zm-1100.43 -607.2c26.58,-34.26 19.97,-42.64 35.61,-91.03 34.83,-107.79 8.89,-78.58 1.54,-89.82 -49.57,14.04 -15.09,-34.63 -39.12,41.01 -32.73,102.99 -41.09,132.27 1.97,139.84zm1183.65 2795.78c-10.21,40.47 -20.53,15.22 24.27,43.43 27.36,17.23 42.18,21.82 71.66,34.09 -36.39,24.29 -31.23,19.42 -39.79,47.08l59.21 26.99c27.2,-28.5 33.71,-40.55 45.17,-76.53l-109.2 -72.69c-66.62,-35.64 -38.56,-9.6 -51.32,-2.37zm-1552.8 -2862.11l102.42 11.8c1.48,-67.3 26.16,-116.03 4.05,-179.11 -34.38,-10.21 -64.05,-21.74 -86.89,4.97 -33.57,39.25 3.94,56.78 13.21,64.81 -40.21,32.26 -34.46,36.91 -32.79,97.53z"/>
 </g>
</svg>
