<?xml version="1.0" encoding="UTF-8"?>
<!DOCTYPE svg PUBLIC "-//W3C//DTD SVG 1.1//EN" "http://www.w3.org/Graphics/SVG/1.1/DTD/svg11.dtd">
<!-- Creator: CorelDRAW 2017 -->
<svg xmlns="http://www.w3.org/2000/svg" xml:space="preserve" width="55mm" height="55mm" version="1.1" style="shape-rendering:geometricPrecision; text-rendering:geometricPrecision; image-rendering:optimizeQuality; fill-rule:evenodd; clip-rule:evenodd"
viewBox="0 0 5500 5500"
 xmlns:xlink="http://www.w3.org/1999/xlink">
 <defs>
  <style type="text/css">
   <![CDATA[
    .fil3 {fill:#335CAC}
    .fil2 {fill:#3762B4}
    .fil4 {fill:#3862AA}
    .fil0 {fill:#4769B5}
    .fil5 {fill:#5272AE}
    .fil8 {fill:#5877B7}
    .fil1 {fill:#6886B8}
    .fil6 {fill:#869BCA}
    .fil7 {fill:#90AED2}
   ]]>
  </style>
 </defs>
 <g id="Capa_x0020_1">
  <metadata id="CorelCorpID_0Corel-Layer"/>
  <g id="_2685581859440">
   <path class="fil0" d="M3682.18 3991.55l-48.54 46.42c-26.05,16.21 -44.67,25.27 -72.22,36.79l28.41 77.11c1.98,4.54 5.21,10.55 6.88,14.24 1.67,3.68 4.65,9.43 7.15,14.05 90.4,-19.32 168.83,-118.01 273,-183.22 20.81,-80.43 47.45,-73.94 5.03,-158.07 -36.28,55.46 -9.97,38.11 -26.51,90.17l-21.45 45.02 -41.33 -29.27c-49.95,-13.45 -30.19,8.67 -110.42,46.76z"/>
   <path class="fil0" d="M1792.55 1723.36l-2.31 -73.06 -88.7 -14.69c30.24,75.53 30.35,86.66 91.01,87.75z"/>
   <path class="fil1" d="M2718.77 4239.63l-7.44 -88.52c67.6,-76.07 47.13,11.66 67.09,-106.16l-41.82 -28.42c-89.5,-42.68 -53.66,-51.89 -112.56,-128.95l-9.91 126.56c30.97,24.41 -0.05,10.58 53.71,25.74 -88.88,13.44 -128.29,95.27 -130.47,112.25 -52.12,-81.13 9.08,-81.78 -30.75,-152.53 -13.95,19.73 -49.04,218.67 -46.88,249.3 34.54,-17.54 49.69,-6.17 85.51,-22.76 77.91,-36.1 35.36,32.33 44.79,-69.89 -2.75,76.53 -21.45,40.89 56.21,89.33 84.44,52.67 56.77,34.22 72.52,-5.95z"/>
   <path class="fil2" d="M3439.36 3676.31c98.36,31.05 51.3,109.57 64.9,187.48 92.16,12.58 124.18,-55.82 176.84,39.86l50.69 -0.21c0.32,-130.31 19.95,-159.53 81.24,-226.09 -202.73,-52.76 -79.26,-42.19 -172.31,-159.54 -65.96,95.1 -42.84,119.8 -202.08,127.2l0.72 31.3z"/>
   <path class="fil2" d="M1753.16 1884.71c70.74,-0.35 83.38,-29.78 132.82,-27.93 59.56,2.23 69.06,40.3 124.03,65.32 -2.2,-60.83 -17.22,-111.66 11.45,-162.83 32.53,-58.05 -9.24,4.94 36.99,-28.32l46.82 -49.15c-172.69,-44.4 -121.89,3.13 -170.75,-157.63l-72.58 73.68c-68.86,90.52 -28.44,-7.36 -51.4,92.83 -10.97,47.87 -2.5,48.99 -21.63,98.34 -12.27,31.66 -23.35,48.23 -35.75,95.69z"/>
   <path class="fil3" d="M3619.04 1848.9c72.93,160.87 102.21,2.66 51.53,252.7 177.78,-50.63 107.14,-53.11 252.68,25.25l1.91 -145.57 100.77 -76.28c-51.97,-40.66 -94.14,-21.28 -132.08,-60.68 -35.4,-36.76 -12.72,-62.83 -62.22,-114.78 -21.3,35.04 -42.08,75.48 -75.9,113.05l-136.69 6.31z"/>
   <path class="fil3" d="M1810.33 3560.11c21.23,-11.42 33.59,-15.99 54.35,-32.72 21.41,-17.26 16.54,-15.68 26.99,-27.14l15.15 -21.36c-52.38,-24.51 -91.24,-17.5 -123.78,-54.3 -21.29,-24.07 -26.48,-67.91 -55.1,-107.75 -40.91,35.29 -49.44,52.65 -72.21,107.42l-141.39 5.44c70.25,167.1 90.02,14.35 47.58,252.98 209.84,-53.93 76.22,-53.5 254.82,27.86l-6.41 -150.43z"/>
   <path class="fil4" d="M1993.4 3460.62l-65.97 -68.7 17.7 -152.87 82.25 8.54c9.3,67.66 -6.39,162.57 -33.98,213.03zm-274.66 -282.46c34.95,73.15 39.15,-1.2 101.47,101.91 65.11,107.7 184.2,265.2 297,323.08 -77.72,-184.97 -11.02,-85.13 -4.07,-318.85l-16.15 -9.49c-0.7,-0.44 -5.42,-3.56 -6.06,-3.97 -0.68,-0.43 -4.25,-2.77 -6.32,-4.23 105.99,-69.18 28.45,86.79 105.95,-53.07 -50.11,-30.09 -39.56,-23.45 -102.48,-26.03l-102.92 -15.8c-101.45,-17.38 -211.39,-41.26 -266.42,6.45z"/>
   <path class="fil4" d="M2699.42 1356.88l60.65 99.68c18.24,53.07 -0.13,98.21 -19.09,148.81 63.52,-6.59 92.07,-36.21 135.25,-31.96 40.65,4 79.18,44.23 122.97,63.71l-4.08 -139.37c37.94,-30.76 66.1,-54.13 98.06,-88.54 -154.18,-101.13 -84.95,30.95 -179.48,-173.51 -69.09,59.83 -1.19,40.47 -60.27,94.7 -40.94,37.59 -79.28,22.38 -154.01,26.48z"/>
   <path class="fil4" d="M1213.2 3142.4c48.99,32.57 441.39,79.68 501.52,44.58 -19.43,-58.56 70.09,-43.72 -181.46,-65.06 -92.87,-7.88 -134,-13.53 -230.06,-24.18 -3.24,3.35 -7.81,4.77 -9.32,10.41 -1.39,5.18 -7.7,7.38 -9.63,8.46l-59.21 20.2c-2.3,0.82 -8.32,3.01 -11.84,5.59z"/>
   <path class="fil5" d="M3256.94 3435.16c5.74,-1.34 25.79,-3.82 28.84,-3.61l38.97 82.33 26.66 -140.81c28.68,7.8 14.41,-15.91 45.61,10.97 48.36,41.64 21.97,73.4 86.42,149.19 24.47,-54.19 19.85,-13.57 1.42,-62.85 80.59,37.92 82.24,-49.41 95.85,-72.74 38.17,28.15 274.21,47.01 329.98,51.8l-18.2 -85.84c-65.4,19.51 -22.18,3.67 -39.59,33.88 -127.51,-110.47 -142.85,13.73 -142.85,13.74 -17.24,-50.13 3.74,5.73 -7.31,-28.97 -3.48,-10.95 -5.03,-17.7 -10.39,-27.61 -56.01,-6.27 -83.78,4.81 -102.11,2.05 -0.19,-0.03 -449.79,-110.4 -287.82,12.48l-28.46 29.75c-13.28,20.52 -8.34,7.87 -17.02,36.24z"/>
   <path class="fil6" d="M4023.12 3876.79c4.04,-65.04 -32.81,-6.99 28.29,-60.2l-47.17 5.2c23.88,-46.6 98.21,-116.25 33.59,-156.76 -57.71,15.6 -41.1,6.92 -70.04,54.37 -34.8,57.05 -2.19,26.28 -60.25,77.9 21.02,76.9 11.72,70.41 10.08,145.56 113.02,-36.36 -12.31,-22.46 105.5,-66.07z"/>
   <path class="fil7" d="M3256.94 3435.16c-0.78,3.7 -1.45,6.23 -1.66,11.23l-9.76 50.04c-0.19,2.47 -1.01,7.68 -1,10.48 0.02,4.7 0.06,22.15 1.12,27.65 10.77,56.19 14.54,32.94 30.69,62.47 14.25,26.06 14.03,18.37 16.15,62.48 46.11,-20.67 64.17,-31.93 95.13,-56.8 -21.38,-10.64 -20.86,-10.26 -58.15,10.43l-4.71 -99.26 -38.97 -82.33c-3.05,-0.21 -23.1,2.27 -28.84,3.61z"/>
   <path class="fil8" d="M3510.88 4173.14c-2.32,-4.05 -5.21,-16.01 -6.55,-12.37 -0.43,1.16 -3.78,-12.45 -15.5,-16.82 -72.13,-26.92 -29.05,73.28 -27.96,77.87 0.47,1.97 2.7,6.65 3.02,8.4l-0.44 14.09c-0.05,2.88 -3.32,10.99 -3.43,13.29l2.27 12.53c47.05,-23.09 59.32,-19.36 100.13,-54.07 -9.2,-36.05 -8.79,-20.72 -20.81,-29.59 44.47,-46.25 23.38,18.1 25.36,-71.11 -71.56,16.25 -38.41,-20.13 -56.09,57.78z"/>
   <path class="fil4" d="M3491.77 2029.1l74.33 63.12 -11.65 161.26 -75.81 1.49 13.13 -225.87zm-1409.88 70.84c-22.74,-45.85 -36.69,-176.86 90.89,-215.38 -3.54,70.44 3.16,104.45 1.28,148.01l-10.43 42.8c-35.57,43.17 5.52,32.55 -81.74,24.57zm778.47 87.74l-85.39 -15.24 31.64 -390.53c14.85,-112.52 -8.1,-72.89 71.66,-71.26 53.41,70.26 -32.51,302.34 -17.91,477.03zm-389.87 -460.01c31.6,1.07 76.47,-6.04 105.85,70.71 -27.18,60.1 -45.95,15.62 -52.18,158.69 -3.29,75.7 -11.23,124.74 -27.86,199.83 -76.64,-23 -76.75,5.63 -74.91,-87.64 0.84,-42.7 14.28,-113.26 17.69,-161.81 -48.06,1.8 -56.67,-16.04 -87.47,-28.5 -19.35,279.7 5.89,218.83 8.31,237.84l-101.08 7.89c-20.62,-56.81 -2.96,-137.75 -3.2,-216.14 -0.26,-82.02 11.46,-88.3 91.71,-123.86l40.69 115.28c101.84,-46.26 -0.12,51.45 82.45,-172.29zm199.82 445.31c-68.86,-11.89 -78.91,-2.2 -75.95,-87.59l33.78 -288.59c9.14,-90.08 -4.91,-80.07 73.16,-92.77 16.37,25.18 9.97,-0.64 16.65,43.68l-47.64 425.27zm-199.82 -445.31c-161.02,-0.46 -385.75,174.8 -484.73,275.48 -133.4,135.68 -216.36,56.77 -452.37,39.54 -73.6,-5.37 -107.09,-3.57 -162.65,-32.04 145.56,-319.63 97.44,-170.28 178.7,-265.63 230.95,-271 523.94,-463.73 899.01,-535.33 165.82,-31.66 279.82,-36.48 446.72,-21.11 78.13,7.2 61.1,24.87 106.98,-23.07 2.42,2.87 5.57,4.25 6.69,9.05 12.31,53.09 447.16,115.89 506.63,216.51 313.59,127.61 501.61,469.5 573.01,527.84 66.75,54.53 -11.6,-18.14 40.42,95.12 49.15,106.99 103.38,187.82 127.03,317.96 -113.6,-5.51 -226.77,-21.55 -341.27,-34 -249.61,-27.13 -188.96,-0.39 -255.76,-111.83 -142.95,-238.45 -308.11,-294.53 -370.49,-378.36l-40.89 8.55c-88.75,-114.94 -493.16,-159.93 -686.25,-122.94l-79.34 27.3c-2.61,1.31 -7.9,4.23 -11.44,6.96zm-1377.96 1326.58c138.5,404.48 132.96,543.34 474.75,885.87 351.77,352.56 535.62,343.79 896.88,467.8l289.55 21.3c106.58,0.02 208.24,-25.43 306.37,-20.1 -2.77,-4.93 -8.04,-17.04 -9.49,-14.06 -1.41,2.9 -7.11,-10.41 -8.86,-13.98 -52.44,-107.42 -26.08,-58.33 -9.77,-85.31 -124.18,3.04 67.05,23.85 -312.97,18.9 -312.85,-4.07 -630.53,-110.77 -869.92,-285.11 -329.22,-239.77 -452.64,-457.35 -635.87,-887.16 -7.48,-27.54 5.53,2.6 7.83,-39.5l0.19 -21.14c-5.73,-60.19 -58.24,-197.74 -39.84,-310.46 -2.07,-1.26 -6.58,-2.93 -7.26,-0.5 -0.7,2.48 -6.46,-0.36 -7.47,-0.35l-45.8 0.85c7.03,-33.49 14.88,-22.38 36.83,-55.2 2.29,-3.43 5.96,-6.9 8.11,-10.58 27.62,-47.26 21.56,-89.65 26.46,-146.49l-35.48 -30.87c-51.66,-47.43 -23.42,16.96 -38.72,-49.29 49.36,26.75 64.9,129.62 93.64,-43.67 -23.55,-12.98 6.62,-4.13 -24.8,-3.93 -87.33,0.58 37.68,26.92 -19.09,3.93 17.46,-123.84 26.92,71.23 11.77,-157.28l56.66 79.32 28.93 -174.89c18.77,-28.76 25.89,-2.06 54.45,-88.33 32.86,-0.19 110.8,-3.4 127.58,-2.44 118.17,6.77 457.23,82.44 693.93,73.66 87.87,-3.27 95.04,-9.92 114.27,16.44 0.61,0.84 1.94,5.45 3.47,7.88l372.18 18.52c20.65,4.36 5.17,26.79 43.34,1.57l27.75 -26.43c15.13,82.98 46.17,65.97 140.74,62.96l17.49 -58.5c36.85,83.12 -16,63.08 82.63,68.21l-16.27 -107.42c-9.68,-80.5 10.41,35.08 32.23,-93.76 16.82,-99.3 7.72,-226.16 43.2,-314.17 83.43,9.76 61.24,-12.39 69.41,57.07l-41.61 389.41c28.67,14.74 50.21,32.48 55.01,35.91l8.49 -24.12c1.47,-3.52 3.48,-9.89 5.36,-14.19 2.1,-4.84 4.63,-10.58 6.9,-15.59 2.49,-5.51 6.11,-11.97 8.37,-16.77 2.4,-5.11 5.59,-12.07 9.12,-17.69l39.5 -339.85 84.82 21.63 -16.12 221.88 8.17 44.68 75.59 -72.17 15.8 -116.83 83.21 36.07 -35.38 298.26 -68.21 9.22c-79.95,22.67 -92.1,-48.58 -113.84,20.85 91.02,0.46 -5.28,-12.01 35.39,32.12l256.72 31.97c2.51,-65.93 -10.8,-1.62 128.41,13.49 69.95,7.6 144.1,15.14 217.48,23.09 147.98,16.05 292.1,30.24 438.04,47.77 61.58,172.52 48.52,461.69 13.66,647.59 3.45,1.78 10.08,-0.74 11.04,3.71 18.39,85.47 21.95,-57.21 24.02,23.66 -77.64,9.94 -12.26,-53.58 -81.49,148.53 -16.67,48.66 -40.07,133.51 -61.79,167.02 -99.96,15.76 -183.76,13.26 -248.77,-29.48l-6.68 71.78c32.73,9.71 67.23,16.47 110.38,18.04l81.85 -12.96c63.27,44.66 -34.22,43.72 25.86,198.41 -75.06,-56.03 -73.81,-97.59 -103.03,21.98 64.62,40.51 -9.71,110.16 -33.59,156.76l47.17 -5.2c30.54,-46.48 26.61,-30.98 15.78,-90.05l37.41 6.71c19.5,-48.36 -34.99,-51.97 4.35,-50.07 30.04,-59.61 -3.98,81.58 105.57,-123.47 211.33,-395.61 267.98,-745.39 167.84,-1212.95 -100.13,-30.35 25.44,35.48 -29.7,0 32.83,-87.36 -78.68,-325.14 -143.41,-411.8 -14.53,-19.44 -7.51,-5.99 -21.67,-31.1 -79.6,-141.24 -48.09,-143.77 -238.97,-326.27 -78.61,-75.16 -123.22,-129.28 -224.92,-199.99 -349.2,-242.77 -814.8,-370.93 -1328.7,-274.66 -71.14,13.33 -255.53,69.71 -308.76,100.16 -73.99,42.33 -7.48,28.77 -79.24,46.91 -15.95,4.03 -15.67,0.95 -37.33,8.55 -98.82,34.66 -226.83,149.11 -306.58,210.43 -175.33,134.82 -312.82,312.46 -417.84,519.5 -35,69 -34.45,110.44 -45.83,142.65 -13.85,39.16 -40.12,30.88 -59.85,145.73 -19.45,113.25 -61.63,220.08 -67.67,352.24 -7.03,153.98 2.8,274.8 20.64,425.14z"/>
  </g>
 </g>
</svg>
