<?xml version="1.0" encoding="UTF-8"?>
<!DOCTYPE svg PUBLIC "-//W3C//DTD SVG 1.1//EN" "http://www.w3.org/Graphics/SVG/1.1/DTD/svg11.dtd">
<!-- Creator: CorelDRAW 2017 -->
<svg xmlns="http://www.w3.org/2000/svg" xml:space="preserve" width="55mm" height="55mm" version="1.1" style="shape-rendering:geometricPrecision; text-rendering:geometricPrecision; image-rendering:optimizeQuality; fill-rule:evenodd; clip-rule:evenodd"
viewBox="0 0 5500 5500"
 xmlns:xlink="http://www.w3.org/1999/xlink">
 <defs>
  <style type="text/css">
   <![CDATA[
    .fil6 {fill:#F4CF8B}
    .fil1 {fill:#F6C469}
    .fil5 {fill:#F6C878}
    .fil3 {fill:#F7B647}
    .fil0 {fill:#F7B956}
    .fil2 {fill:#F8AB36}
    .fil4 {fill:#F8B237}
   ]]>
  </style>
 </defs>
 <g id="Capa_x0020_1">
  <metadata id="CorelCorpID_0Corel-Layer"/>
  <g id="_2685744397136">
   <path class="fil0" d="M2112.11 1469.91l-66.26 60.36c-10.97,5.41 -63.58,21.31 -76.99,25.61l45.27 72.72 89.98 -62.74c52,-36.18 27.5,21.11 28.86,-63.66 84.01,41.19 187.93,-22.87 182.18,-65.42 -12.12,-8.71 23.35,-62.26 -106.45,1.57 -30.06,14.77 -60.03,30.07 -96.59,31.56z"/>
   <path class="fil0" d="M2363.55 4087.88c47.21,70.92 164.57,63.89 181.37,58.64 96.33,-30.1 31.26,-17.55 50.83,-40.95l-168.33 -49.45c-99.4,-1.22 -32.33,13.32 -63.87,31.76z"/>
   <path class="fil1" d="M1469.84 1750.29l24.35 -4.29c0,-44.48 -14.42,-41.25 19.8,-34.93 34.39,48.13 -1.07,16.78 57.16,29.41 18.8,-88.64 20.04,-57.01 126.6,-146.83l-17.96 -21.79c-23.82,-23.73 -13.73,-4.13 -24.26,-21.86 -30.22,-50.83 46.93,-27.68 -31.19,-69.88 -16.52,49.36 -13.9,13.61 -0.46,77.39 -61.3,-3.41 -71.72,-2.27 -112.94,49.81l-71.49 89.13c-17.39,23.73 -8.5,11.98 -23.73,38.72l54.12 15.12z"/>
   <path class="fil1" d="M1882.52 1749.49c19.99,-74.56 31.09,-32.1 12.4,-113.73 -54.77,35.9 -38.27,-13.36 -40.73,89.76l-47.26 -32.29c-64.72,79.64 -67.22,16.29 -74.61,160.68 117.14,-63.56 61.9,-75.65 150.2,-104.42z"/>
   <path class="fil2" d="M3222.04 1452.14c25.92,78.74 240.9,95.64 497.08,360.84 124.14,128.52 79.66,131.63 169.97,138.61 -3.13,-76.42 14.62,-33.62 -75.24,-144.74 -50.89,-62.93 -238.26,-227.27 -300.13,-252.37 -68.3,-27.7 -38.84,-23.73 -63.61,19 0.18,-123.91 -185.83,-144.47 -228.07,-121.34z"/>
   <path class="fil2" d="M3920.84 3515.3c63.18,-28.53 51.38,-28.98 115.57,-161.5 31.6,-65.23 52.04,-122.72 72.89,-191.77l60.43 -331.02c3.73,-82.72 17.17,-77.23 -36.53,-113.36 -66.79,57.59 -1.84,277.68 -161.61,608.06 -45.9,94.91 -88.33,127.87 -50.75,189.59z"/>
   <path class="fil3" d="M2024.43 1806.02l-12.38 48.18c-29.84,-5.93 -146.77,69.58 -192.9,206.75 -31.53,93.76 23.9,23.88 2.5,100.6 -74.91,-25.34 -19.33,-36.85 -82.66,-46.78 3.13,64.54 -32.14,50.63 -54.45,142.58 57.29,-41.53 35.15,-45.45 77.57,-65.03 -14.57,31.78 -21.98,60.74 -26.47,108.92 -40.89,7.47 4.17,-56.29 -37.03,10.72 -31.48,51.19 -11.34,44.36 10.01,74.14l15.3 -20.24c2.29,-2.35 -2.75,-18.69 57.1,-37.84l-4.8 -97.35c0.33,-2.12 1.23,-7.06 1.82,-8.81 8.2,-24.48 29.43,-14.73 104.71,-83.18l-46.65 -66.92c3.9,-2.58 55.43,3.04 55.6,3.03 57.37,-4.03 -22.12,16.39 31.77,-7.94 14.54,-6.57 -3.12,-20.12 52.79,-31.04 15.73,-24.2 79.61,-147.34 100.43,-158.96 95.44,-53.27 -68.31,10.96 21.21,-0.75 4.65,-0.61 -6.32,40.9 27.45,-10.73 25.9,-39.6 15.91,-63.88 14.36,-115.41 -67.06,43.62 -51.15,9.32 -85.25,85.31l-30.03 -29.25z"/>
   <path class="fil3" d="M2870.3 4110.63c15.09,30.43 9.49,22.3 23.35,46.9l78.82 8.79 175.9 -64c24.18,-3.11 11.7,7.13 46.93,-7.67 -12.31,-49.48 1.5,-59.34 -60.24,-50.21l-264.76 66.19z"/>
   <path class="fil4" d="M1689.4 1441.42l20.4 127.56c88.78,-41.98 128.73,-117.31 264.23,-168.38 44.01,-67.04 148.67,-86.52 261.03,-128.06 109.41,-40.44 222.97,-67.09 344.86,-79.6 454.09,-46.6 722.49,64.46 1085.55,285.14 76.97,46.79 32.36,1.8 100.98,74.77 165.33,175.79 261.82,232.14 410.51,545.35 199.46,420.17 180.85,984.15 -35.32,1378.8 -79.34,144.84 -243.83,365.25 -367.36,464.54 -151.82,122.03 -352.6,261.34 -578.95,307.11l-233.05 71.75c-40,14.07 -43.95,9.04 -83.13,104.15 1019.41,-77.29 1704.4,-1007.75 1521.52,-1985.09l-85.74 -303.48c-36.86,-60.26 -5.56,-15.59 -28.9,-18.85 -104.93,-14.66 31.45,39.14 -21.81,7.21 22.57,-37.44 12.2,-87.34 -25.05,-158.02 -441.15,-837 -1483.61,-1147.1 -2343.63,-663.97 -133.26,74.86 -86.25,38.4 -87.82,142.93l-32.46 -26.92c-1.67,-2.05 -5.56,-8.2 -6.94,-10.02 -1.45,-1.92 -4.04,-7.57 -6.57,-11.02 -41.98,69.97 0.07,29.78 -72.35,44.1z"/>
   <path class="fil4" d="M3057.16 1740.07c255.81,-14.24 703.08,409.87 757.52,896.76 31.29,279.85 -44.5,478.75 -154.25,677.87l-84.71 126.93c-5.46,7.27 -19.5,28.34 -21.28,30.52l-206.37 167.72c-76.63,47.06 -72.73,7.99 -93.94,120.58 -7.92,-61.99 -2.51,-31.59 -21.49,-56.83 -49.1,35.49 -11.76,34.41 -66.35,47.61 -35.59,8.6 -45.47,-9.76 -95.3,36.02l9.34 78.23c51.96,17.53 106.66,-12.29 158.44,-34.58 76.91,-33.11 99.25,-32.53 93.24,-116.11 4.96,0.95 11.75,0.38 13.83,6.18l24.97 10.12c2.35,0.56 8.06,2.72 10.53,3.03l54.66 -24.01c141.98,-104.65 164.24,-75.57 145.58,-242.66l23.06 52.76c1.8,4.18 4.07,9.68 5.77,13.61 1.71,3.95 4.62,10.32 6.04,13.56 1.42,3.26 3.24,9.53 6.11,13.59 6.86,-13.73 9.09,-24.87 17.4,-38.21 31.6,-50.7 37.22,-30.51 94.02,-117.26 35.95,-54.89 73,-112.75 103.13,-180.21 405.73,-908.43 -453.6,-1888.7 -1403.26,-1615.53 -130.76,37.62 -169.09,55.6 -240.01,115.55 -57.43,48.55 -42.6,-66.8 -43.36,48.61 -0.6,89.62 1.34,27.13 18.31,54.3 131.37,-6.18 14.72,-27.82 119.95,-53.07 17.75,-4.25 34.49,-7.17 46.92,-10.99 88.06,-27 121.87,-47.5 222.18,-65.51 87.76,-15.75 175.41,-20.08 266.53,-14.08l232.79 55.5z"/>
   <path class="fil4" d="M1388.6 1993.42c10.14,-127.56 26.11,-54.35 43.27,-132.28 13.47,-61.16 -25.91,-54.29 -45.49,-71.52 82.51,-2.7 71.96,27.9 93.39,58.33 10.78,-90.46 -10.71,-39.08 48.3,-81.65l-33.88 -20.3 -24.35 4.29c-56.39,31.68 -80.33,4.92 -122.52,84.56 -2.07,3.91 -4.25,8.4 -6.08,12.52 -31.99,71.61 -7.7,137.51 -29.6,177.57 -17.91,-28.36 -8.19,-26.29 -10.99,-38.56 -0.58,-2.52 -0.95,-8.03 -1.67,-10.74 -14.34,-53.99 19.72,-6.96 -19.95,-49.45 -32.93,121.03 -107.88,231.17 -148.78,380.37 -126.12,460.09 -49.75,920.68 180.52,1311.59 258.37,438.6 866.03,842.95 1351.25,806.02l5.09 -88.58c-124.97,-72.79 -759.85,-33.32 -1209.83,-703.68 -192.46,-286.72 -90.18,-110.03 -155.41,-285.75 -43.82,-118.08 -82.2,-236.74 -102.43,-374.77 -13.28,-90.64 -16.26,-458.82 1.5,-512.74 70.31,-213.47 -2.73,-61.41 1.71,-293.1 80.82,45.3 2.62,73.35 48.94,136.57l43.87 -153.59c-50.71,-21.24 -18.37,-0.99 -51.92,-34.89 141.02,25.71 65.65,-61.73 145.06,-120.22z"/>
   <path class="fil4" d="M2218.85 3803.94c87.9,26.95 21.49,13.07 40,-16.78 -57.41,-47.84 -6.04,5.82 -38.46,-53.16 -17.81,-32.41 -9.73,-1.95 -32.65,-67.95l-10.44 24.46c-27.33,-87.7 -146.41,-114.12 -292.77,-309.94l-14.24 -20.86c-21.29,-28.14 -7.97,-10.55 -32.4,-37.29 -34.05,-37.27 -9.22,6.49 -31.14,-38.22 -17.25,-35.2 -0.86,-51.46 -75.31,-184.41 -18.3,247.47 45.37,50.22 44.03,202.19 -10.37,-17.71 -22.69,-95.46 -55.74,-20.29 -35.8,81.42 -11.93,3.3 4.91,44.79l150.35 223.97c79.41,86.11 231.81,213.18 343.86,253.49z"/>
   <path class="fil4" d="M1638.51 3559.94c-1.16,-107.59 -31,-64.95 -70.13,-146.69l-122.22 -280.99c-48.77,-137.15 -10.66,-63.37 -29.01,-167.77 -28.12,52.58 -46.69,102.77 -32.76,156.42l131.42 328.05c40.51,74.66 36.16,110.49 122.7,110.98z"/>
   <path class="fil5" d="M2743.71 3847.48l-6.48 77.69c92.61,1.61 92.72,-23.82 147.94,-12.99 17.7,3.48 32.27,-37.86 12.3,16.41 64.93,-12.18 58.87,-2.05 104.1,-11.21 121.67,-24.67 49.61,-15.15 83.52,-59.37l-41.42 -70.76c-42.42,0.97 -92.13,14.4 -167.4,22.79 -38.66,4.31 -41.47,0.17 -76.03,11.97 -67.45,23.02 -9.92,22.01 -56.53,25.47z"/>
   <path class="fil6" d="M2218.85 3803.94c3.97,3.46 10.21,3.09 12.54,9.62 2.24,6.28 9.52,6.93 12.62,8.48l207.94 86.05 55.34 -124.12 -62.02 -13.31c-49.39,39.81 -12.52,-20.5 -34.04,44.17 -3.43,10.31 -0.85,25.6 -1.47,34.43l6.26 -92.94 -38.96 23.71c-9.35,7.1 -25.17,21.12 -31.29,26.65 -44.49,-117.4 28.43,-61.26 -102.84,-109.98l-55.19 -30.65c22.92,66 14.84,35.54 32.65,67.95 32.42,58.98 -18.95,5.32 38.46,53.16 -18.51,29.85 47.9,43.73 -40,16.78z"/>
  </g>
 </g>
</svg>
