<?xml version="1.0" encoding="UTF-8"?>
<!DOCTYPE svg PUBLIC "-//W3C//DTD SVG 1.1//EN" "http://www.w3.org/Graphics/SVG/1.1/DTD/svg11.dtd">
<!-- Creator: CorelDRAW 2017 -->
<svg xmlns="http://www.w3.org/2000/svg" xml:space="preserve" width="32.0038mm" height="32.0038mm" version="1.1" style="shape-rendering:geometricPrecision; text-rendering:geometricPrecision; image-rendering:optimizeQuality; fill-rule:evenodd; clip-rule:evenodd"
viewBox="0 0 3200.38 3200.38"
 xmlns:xlink="http://www.w3.org/1999/xlink">
 <defs>
  <style type="text/css">
   <![CDATA[
    .fil0 {fill:#D2D3D5}
   ]]>
  </style>
 </defs>
 <g id="Capa_x0020_1">
  <metadata id="CorelCorpID_0Corel-Layer"/>
  <path class="fil0" d="M2693.14 2233.92c-25.5,-64.99 -101.2,-127.51 -191.83,-137.07 -8.77,50.08 27.6,56.99 -6.1,134.8 -48.1,8.96 -75.5,-0.05 -112.09,27.08 -88.05,65.29 -42.24,357.85 -30.09,378.91 41.12,71.3 138.93,59.84 231.63,59.82 98.96,-0.01 197.91,0 296.86,0 273.9,0 274.08,8.03 268.96,-323.09 -3.02,-195.25 -189.07,-128.09 -457.34,-140.45zm-1248.83 -506.79l-6.54 68.28c96.12,7.86 931.93,9.67 962.34,-4.54 30.72,-27 -18.02,-89.41 -34.54,-108.76 -52.5,-61.46 -262.09,-134.64 -352.61,-127.76l0 0c-15.33,-27.55 -16.08,-69.71 -10.42,-108.97 60.84,-30.13 87.72,-38.69 131.76,-90.23l810.91 108.4c-14.62,25.25 -722.76,504.26 -812.99,566.47 -155.37,107.11 -119.3,103.09 -233.82,79.6 -131.91,-27.05 -833.15,-151.85 -855.2,-172.08 59.77,-35.42 359.24,-200.98 401.11,-210.41zm750.57 -422.18l-25.82 -12.44c20.3,-13.94 16.03,-10.99 28.53,-39.97 21.84,-50.71 1.92,-26.44 42.52,-45.55 29.53,-13.88 63.46,-69.74 11.15,-117.41 48.71,-232.21 70.82,-433.05 -146.39,-545.23 -138.15,-71.36 -309.45,-47.76 -435.51,38.64 -52.8,36.19 -87.79,33.71 -125.91,-8.75 -1.59,50.75 21.58,53.7 31.6,81.18 7.09,19.47 21.16,20.03 -18.44,26.98 -22.73,3.99 -42.21,-6.65 -58.46,-11.85 1.7,58.91 15,53.48 33.55,87.48 15.56,28.53 8.22,71.81 9.91,106.98 3.91,81.02 28.14,146.33 32.65,208.41 3.02,36.23 -19.85,35.41 -10.77,89.42 7.77,46.21 23.14,40.56 67.17,52.07 28.26,94.97 115.94,204.15 211.95,224.74 -0.36,17.76 1.4,9.25 -5.87,22.59 -75.13,49.07 -175.45,92.81 -249.33,132.41 -229.25,122.92 -531.44,285.11 -753.38,392.69 12.5,20.21 0.68,9.16 20.47,20.33 7.59,4.28 19.74,4.52 27.36,5.97 -33.25,-3.41 -43.44,-13.27 -71.82,-3.67 -11.31,125.27 65.82,110.31 271.29,151.45l717.06 143.96c208.87,39.18 160.61,45.31 309.07,-57.99 13.25,-9.23 1001.1,-698.56 1010.19,-716.08 7.09,-41.84 5.19,-60.59 -5.14,-101.55 -23.4,-16.12 2.83,0.72 -14.21,-3.97l-430.41 -61.28c-157.31,-19.7 -314.54,-43.78 -473.01,-59.56zm-195.74 271.53c-1.73,2.08 -3.52,4.05 -5.37,5.9 1.85,-1.85 3.64,-3.82 5.37,-5.9zm-46.53 28.61c-2.29,0.54 -4.61,0.99 -6.94,1.36 2.33,-0.37 4.65,-0.82 6.94,-1.36zm658.53 -761.58l43.86 -0.01 -0.21 -63c3.19,0.78 13.12,12.36 17.5,16.68l17.04 17.07c2.55,-1.05 5.91,-5.79 7.97,-7.93 6.78,-7.03 14.23,-14.7 21.59,-21.1 1.53,-1.33 1.34,-0.8 1.92,-2.56 -1.64,-2.29 -6.33,-6.15 -8.64,-8.4l-21.15 -20.91c-0.95,-0.87 -1.55,-1.19 -2.36,-1.99 -2.18,-2.13 -1.28,-0.45 -1.8,-3.79l63.25 0.5 -0.2 -43.74 -138.91 0.13 0.14 139.05zm0 174.41l138.77 -0.05 -0.05 -43.84 -62.81 0.21c1.03,-3.32 13.46,-14.22 16.73,-17.62 2.98,-3.1 5.3,-5.49 8.45,-8.52 1.61,-1.55 2.37,-2.36 4.39,-4.4 1.58,-1.59 3.35,-2.35 4.34,-4.68l-23.41 -23.29c-2.28,-2.34 -5.07,-6.1 -7.6,-8.13l-25.73 25.77c-2.24,2.38 -5.72,7.74 -9.55,8.48l0.36 -62.94 -44.02 0.01 0.13 139zm267.22 -77.31c-0.96,-2.72 -5.08,-5.71 -7.34,-8.27 -2.19,-1.1 -1.99,-1.34 -3.66,-3.06l-9.44 -9.42c-1.93,-1.98 -10.55,-11.58 -12.86,-12.54l-23.57 23.79c-1.73,1.61 -6.97,5.78 -7.73,7.91l30.75 30.13c2.76,2.17 3.45,2.64 3.89,5.1l-63.15 -0.24 0.24 44.06 139.18 -0.22 -0.15 -139.05 -43.81 0 0.16 63.02 -2.51 -1.21zm-31.61 -190.42c-4.06,4.07 -6.22,6.27 -10.07,9.64 -3.41,2.99 -6.71,6.05 -10.01,9.43 -3.46,3.53 -6.69,6.73 -9.88,9.62l-12.02 11.85c-4.43,5.17 -5.8,4.03 -9.08,2.49 -23.95,-11.3 -53.53,-7.48 -74.48,8.8 -9.11,7.09 -12.03,11.34 -17.99,20.18 -11.36,16.8 -13.79,42.07 -6.8,62.8 11.98,35.51 54.2,62.52 98.82,43.64 27.3,-11.56 45.53,-39.46 44.31,-71.26 -0.73,-19.19 -6.57,-24.19 -7.8,-30.77l23.53 -23.08c4.19,-3.88 7.97,-7.19 12.01,-11.21 2.32,-2.31 9.38,-10.7 11.07,-10.9l1.82 -1.73c2.48,3.12 -0.78,54.66 0.69,63.94l43.86 -0.26c0.44,-10.64 -0.23,-23.33 -0.23,-34.34l0.15 -104.7 -139.14 0.13 -0.02 43.63 62.47 -0.35 -1.21 2.45zm-156.64 353.85c-25.51,64.99 -101.21,127.51 -191.85,137.06 -8.75,-50.08 27.61,-56.98 -6.09,-134.79 -48.11,-8.96 -75.51,0.05 -112.1,-27.09 -88.04,-65.28 -42.22,-357.84 -30.08,-378.91 41.11,-71.3 138.93,-59.83 231.64,-59.82 98.95,0.01 197.89,0 296.85,0 273.89,0 274.09,-8.03 268.96,323.09 -3.02,195.25 -189.06,128.1 -457.33,140.46zm-14.74 -21.46c-15.13,23.88 -43.3,110.18 -149.03,124.74 12.77,-80.32 -15.48,-113.34 -45.29,-157.58 -37.52,21.21 -4.95,3.51 -16.6,29.98 -99.6,0.18 -108.34,-61.66 -107.93,-155.41 1.34,-311.77 -43.25,-261.09 545.39,-261.12 85.65,0 180.3,-17.3 212.74,56.08 15.48,35.02 14.03,222.71 9.41,267.98 -14.83,145.07 -230.45,77.46 -448.69,95.33zm-2284.87 1418.56l0 -0.69 -0.82 0.58 0.82 0.11c1.15,2.19 1.53,2.55 3.08,4.58l6.88 9.16c11.89,15.93 26.95,34.75 38.11,50.36 2.35,3.28 4.78,7.59 7.66,8.36 0.06,-0.17 0.2,-0.56 0.24,-0.46l34.91 -41.03c1.25,-1.75 2.01,-2.13 3.34,-3.63 2.69,-3.02 11.7,-12.96 12.37,-15.49 -5.07,0 -9.69,-1 -14.61,-1.41 -2.65,-0.22 -3.79,-0.53 -6.56,-0.89l-46.03 -5.05c-5.18,-0.78 -7.97,-0.74 -13.15,-1.5 -4.9,-0.72 -7.85,-0.75 -13.16,-1.49 -4.19,-0.58 -8.12,-1.09 -13.08,-1.51zm-34.14 -264.73l0 -0.7 -0.81 0.58 0.81 0.12c0.33,2.97 14.84,21.57 17.52,24.98 1,1.27 1.63,2.38 2.58,3.68 1.09,1.47 1.27,1.89 2.24,3.35l8.03 10.78c2.44,3.41 7.81,11.68 10.74,13.64 6.82,-1.59 13.08,-3.87 19.69,-6.09 12.63,-4.26 8.88,-5.15 24.8,7.58 13.6,10.88 38.19,29.23 48.61,38.47l30.91 24.14c-0.67,-2.85 -25.62,-58.64 -28.28,-60.91 -2.4,-2.04 -8.78,-4.45 -12.14,-5.96l-25.31 -10.92c-15.74,-7.62 -41.12,-17.89 -58.63,-25.67l-33.18 -14.25c-0.12,-0.06 -0.31,-0.16 -0.43,-0.22 -0.11,-0.06 -0.29,-0.17 -0.4,-0.22l-6.75 -2.38zm252.9 160.24c2.97,-1.09 8.9,-10.61 10.6,-13.09 2.19,-3.21 2.83,-3.72 1.66,-8.18 -0.87,-3.33 -1.75,-6.15 -2.51,-9.39 -2.14,1.57 -4.22,11.66 -5.18,15.03 -0.81,2.84 -1.24,4.75 -2.07,7.68 -0.57,1.99 -1.84,6.54 -2.5,7.95zm-158.85 181.83l24.51 5.83c1.89,0.23 3.49,0.66 5.49,1.09 17.12,3.66 29.26,-0.31 43.96,-1.93 6.07,-0.68 10.99,-1.37 16.65,-2.17 2.83,-0.4 4.9,-0.58 8.03,-1.03 2.94,-0.41 5.83,-1.09 8.65,-1.09l-8.57 -4.67c-1.99,-1.1 -1.93,-1.11 -4.16,-2.11l-57.63 -28.76c-4,0 -2.91,-0.32 -5.29,2.37 -0.1,0.11 -0.23,0.27 -0.32,0.39 0,0 -0.73,0.77 -1,1.08l-0.99 1.1c-0.24,0.28 -0.57,0.7 -0.97,1.13l-19.81 19.89c-2.6,2.62 -7.59,5.28 -8.55,8.88zm105.9 -161.63c0,4.24 10.12,39.97 11.85,47.37 1.71,-0.82 2.29,-0.58 4.42,-1.14 16.71,-4.48 25.53,-17.92 32.15,-32.64 2.39,-5.33 7.8,-18.21 3.32,-23.53l-22.48 -26.29c-3.55,2.37 -4.9,5.22 -7.56,8.46l-21.7 27.77zm-165.81 73.85c1.3,0.53 23.2,3.13 25.31,3.33l47.81 5.77c2.57,0.32 1.4,0.27 3.41,0.68 2.24,0.45 0.59,0.08 2.79,0.28 7.21,0.64 23.22,3.17 28.66,3.17 0,-9.46 2.79,-20.69 2.79,-29.96 0,-3.12 -16.03,-9.44 -20.11,-11.94l-3.18 -1.69c-13.41,-6.45 -20.05,-12.83 -36.92,-9.66 -15.6,2.92 -23.6,12.66 -33.67,22.78 -4.4,4.41 -14.61,13.84 -16.89,17.24zm-73.15 -168.6l95.07 16.46c16.18,3.33 51.12,7.66 64.94,10.99l4.83 0.76c6.2,0.58 18.42,3.83 24.65,3.83 -1.58,-2.34 -2.16,-2.38 -4.27,-4.08l-35.35 -28.05c-0.07,-0.06 -0.61,-0.38 -1.24,-0.84l-18.66 -14.79c-3.55,-2.65 -18.41,-15.63 -20.59,-15.63 -4.68,0 -31.87,7.61 -37.97,10.1 -1.81,0.74 -1.71,0.71 -3.67,1.19 -4.47,1.13 -9.03,2.66 -13.48,3.95l-54.26 16.11zm188.1 141.43c2.55,0 12.23,-13.57 14.1,-15.87l50.15 -61.31c1.51,-1.73 2.97,-3.48 4.43,-5.32 1.84,-2.33 2.92,-3.66 4.47,-5.98 -2.53,-0.21 -8.25,-1.41 -10.59,-1.95l-33.2 -6.51c-13.64,-2.25 -35.42,-8.26 -48.86,-8.26 -5.73,0 -11.08,8.42 -16.22,13.74 -1.49,1.55 -1.51,1.93 -2.8,3.47 -4.31,5.15 -15.24,13.79 -15.62,20.32 -0.16,2.99 11.06,41.68 13.33,47.87 1.66,4.56 17.27,9.97 23.14,12.39 2.34,0.96 16.83,7.41 17.67,7.41zm2398.04 -127.82c-0.04,63.43 -9.33,131.08 -27.66,186.47 -10.78,32.55 -11.99,41.75 -44.59,61.47 -52.86,31.95 -112.82,33.24 -165.92,-0.05 -32.62,-20.47 -33.23,-27.47 -44.51,-61.43 -17.55,-52.85 -30.56,-140.18 -27.49,-200.86 0.26,-5.25 1.77,-5.81 4.98,-8.38 4.87,-3.88 9.3,-7.81 14.11,-11.69 12.81,-10.32 3.49,-7.85 38.92,-2.17 71.44,11.45 145.4,11.34 216.2,-3.95 10.93,-2.36 9.7,0.38 17.24,6.44 4.94,4 9.35,7.86 14.08,11.72 6.26,5.11 4.65,7.82 4.64,22.43zm-221.72 104.1c54.37,9.53 50.79,48.88 33.8,64.62 -9.15,8.48 -17.33,6.95 -30.47,3.92 -21.1,-4.87 -39.37,-15.72 -44.79,-34.17 -1.74,-5.89 -1.65,-12.9 -0.58,-18.53 2.71,-14.26 27.68,-18.37 42.04,-15.84zm148.88 0.36c9.53,1.42 22.86,5.82 25.2,14.43 6.02,22.25 -8.57,39.96 -29.45,48.88 -6.49,2.78 -24.52,8.08 -32.2,7.66 -19.16,-1.05 -32.6,-29.85 -20.11,-49.47 8.42,-13.21 33.83,-24.87 56.56,-21.5zm-2323.44 -251.62c25.51,-64.99 101.21,-127.51 191.85,-137.07 8.76,50.08 -27.6,56.99 6.1,134.8 48.1,8.95 75.5,-0.06 112.09,27.08 88.05,65.29 42.23,357.85 30.08,378.92 -41.11,71.3 -138.93,59.82 -231.63,59.81 -98.95,-0.01 -197.9,0 -296.85,0 -273.9,0 -274.09,8.02 -268.97,-323.08 3.03,-195.26 189.08,-128.11 457.33,-140.46zm14.74 21.46c15.13,-23.9 43.31,-110.18 149.04,-124.75 -12.77,80.32 15.47,113.34 45.29,157.58 37.51,-21.2 4.94,-3.5 16.6,-29.97 99.59,-0.18 108.33,61.65 107.93,155.41 -1.34,311.77 43.24,261.08 -545.4,261.11 -85.63,0.01 -180.29,17.3 -212.74,-56.08 -15.47,-35.02 -14.02,-222.7 -9.4,-267.97 14.82,-145.07 230.44,-77.47 448.68,-95.33zm2156.45 45.37c-15.12,-23.89 -43.3,-110.18 -149.03,-124.75 12.78,80.33 -15.47,113.34 -45.29,157.59 -37.51,-21.21 -4.94,-3.52 -16.59,-29.98 -99.61,-0.19 -108.34,61.66 -107.94,155.41 1.35,311.77 -43.24,261.09 545.41,261.12 85.63,0 180.28,17.3 212.72,-56.09 15.49,-35.01 14.04,-222.7 9.41,-267.96 -14.83,-145.08 -230.43,-77.48 -448.69,-95.34z"/>
 </g>
</svg>
