<?xml version="1.0" encoding="UTF-8"?>
<!DOCTYPE svg PUBLIC "-//W3C//DTD SVG 1.1//EN" "http://www.w3.org/Graphics/SVG/1.1/DTD/svg11.dtd">
<!-- Creator: CorelDRAW 2017 -->
<svg xmlns="http://www.w3.org/2000/svg" xml:space="preserve" width="50.7998mm" height="33.8666mm" version="1.1" style="shape-rendering:geometricPrecision; text-rendering:geometricPrecision; image-rendering:optimizeQuality; fill-rule:evenodd; clip-rule:evenodd"
viewBox="0 0 5079.98 3386.66"
 xmlns:xlink="http://www.w3.org/1999/xlink">
 <defs>
  <style type="text/css">
   <![CDATA[
    .str1 {stroke:#FEFEFE;stroke-width:7.62;stroke-miterlimit:22.9256}
    .str0 {stroke:#ED3237;stroke-width:15.03;stroke-linecap:round;stroke-linejoin:round;stroke-miterlimit:22.9256}
    .fil6 {fill:none;fill-rule:nonzero}
    .fil22 {fill:#6E4D8B}
    .fil1 {fill:#6E4D8B}
    .fil5 {fill:#201E1E}
    .fil12 {fill:black}
    .fil17 {fill:#13A10E}
    .fil13 {fill:#4BD97A}
    .fil14 {fill:#5CB8E6}
    .fil10 {fill:#5D4A9D}
    .fil9 {fill:#73AA24}
    .fil8 {fill:#886CE4}
    .fil20 {fill:#D68F04}
    .fil18 {fill:#F03917}
    .fil19 {fill:#F7894A}
    .fil0 {fill:#FFC83D}
    .fil4 {fill:#FEFEFE;fill-rule:nonzero}
    .fil21 {fill:#FEFEFE;fill-rule:nonzero}
    .fil11 {fill:#FEFEFE;fill-rule:nonzero}
    .fil15 {fill:#ED3237;fill-rule:nonzero}
    .fil2 {fill:#292929;fill-rule:nonzero}
    .fil3 {fill:#201E1E;fill-rule:nonzero}
    .fil7 {fill:#201E1E;fill-rule:nonzero}
    .fil16 {fill:white;fill-rule:nonzero}
   ]]>
  </style>
 </defs>
 <g id="Capa_x0020_1">
  <metadata id="CorelCorpID_0Corel-Layer"/>
  <rect class="fil0" x="209.59" y="362.34" width="4758.55" height="2563.24" rx="122.87" ry="154.43"/>
  <path class="fil1" d="M562.96 2545.24l4541.11 0 0 482.81 -4541.11 0c-132.74,0 -241.41,-108.63 -241.41,-241.41l0 0c0,-132.78 108.63,-241.4 241.41,-241.4z"/>
  <path class="fil2" d="M1477.8 729.57c0,22.79 -9.67,41.33 -29.01,55.57 -19.34,14.29 -45.58,21.41 -78.74,21.41 -19.18,0 -35.91,-1.7 -50.15,-5.04 -14.3,-3.35 -27.63,-7.65 -40.06,-12.81l0 -55.47 6.53 0c12.33,9.83 26.14,17.38 41.39,22.69 15.3,5.26 29.97,7.92 44.05,7.92 3.66,0 8.39,-0.32 14.34,-0.96 5.9,-0.58 10.68,-1.65 14.45,-3.08 4.52,-1.91 8.29,-4.25 11.27,-7.01 2.92,-2.82 4.41,-7.02 4.41,-12.49 0,-5.1 -2.13,-9.46 -6.43,-13.18 -4.3,-3.66 -10.63,-6.48 -18.92,-8.45 -8.71,-2.07 -17.9,-4.03 -27.62,-5.84 -9.67,-1.81 -18.81,-4.14 -27.31,-6.91 -19.5,-6.32 -33.48,-14.93 -42.03,-25.77 -8.56,-10.83 -12.86,-24.28 -12.86,-40.38 0,-21.57 9.67,-39.15 29.01,-52.81 19.34,-13.65 44.21,-20.45 74.6,-20.45 15.25,0 30.28,1.48 45.16,4.41 14.93,2.97 27.79,6.69 38.68,11.15l0 53.29 -6.38 0c-9.29,-7.43 -20.77,-13.65 -34.27,-18.65 -13.54,-4.99 -27.36,-7.49 -41.44,-7.49 -4.99,0 -9.93,0.32 -14.82,1.01 -4.94,0.69 -9.67,1.92 -14.24,3.78 -4.04,1.59 -7.49,3.93 -10.42,7.06 -2.92,3.14 -4.35,6.75 -4.35,10.79 0,6.11 2.34,10.78 7.01,14.08 4.68,3.24 13.44,6.21 26.41,8.92 8.5,1.76 16.68,3.51 24.54,5.16 7.81,1.64 16.21,3.93 25.24,6.85 17.75,5.79 30.82,13.71 39.27,23.7 8.44,9.99 12.69,23 12.69,39zm140.75 72.84l-135.8 0 0 -41.12 37.93 0 0 -149.52 -37.93 0 0 -41.12 135.8 0 0 41.12 -37.93 0 0 149.52 37.93 0 0 41.12zm341.96 -231.76l-84.48 231.76 -66.95 0 -84.47 -231.76 62.8 0 56 162.74 56 -162.74 61.1 0zm221.46 231.76l-61.85 0 -16.1 -46.86 -85.17 0 -16.15 46.86 -60.46 0 85.48 -231.76 68.76 0 85.49 231.76zm-92.29 -89.26l-28.27 -82.41 -28.27 82.41 56.54 0zm310.77 89.26l-57.65 0 -98.24 -159.08 0 159.08 -54.83 0 0 -231.76 71.46 0 84.43 132.78 0 -132.78 54.83 0 0 231.76zm356.25 0l-61.85 0 -16.1 -46.86 -85.17 0 -16.15 46.86 -60.46 0 85.48 -231.76 68.76 0 85.49 231.76zm-92.29 -89.26l-28.27 -82.41 -28.27 82.41 56.54 0zm390.41 -97.55l-72.37 0 0 186.81 -59.93 0 0 -186.81 -72.36 0 0 -44.95 204.66 0 0 44.95zm177.78 186.81l-167.68 0 0 -231.76 167.68 0 0 44.95 -107.75 0 0 39.85 100.1 0 0 44.95 -100.1 0 0 57.06 107.75 0 0 44.95zm235.01 0l-57.65 0 -98.24 -159.08 0 159.08 -54.83 0 0 -231.76 71.46 0 84.43 132.78 0 -132.78 54.83 0 0 231.76zm201.05 0l-167.68 0 0 -231.76 167.68 0 0 44.95 -107.75 0 0 39.85 100.1 0 0 44.95 -100.1 0 0 57.06 107.75 0 0 44.95zm153.72 -160.99c0,-5.74 -1.17,-10.68 -3.51,-14.77 -2.39,-4.14 -6.43,-7.38 -12.17,-9.72 -3.98,-1.65 -8.6,-2.66 -13.92,-3.03 -5.31,-0.37 -11.53,-0.53 -18.59,-0.53l-21.31 0 0 61.84 18.12 0c9.4,0 17.27,-0.48 23.59,-1.38 6.37,-0.96 11.69,-3.03 15.99,-6.32 4.09,-3.19 7.07,-6.7 8.98,-10.57 1.86,-3.88 2.82,-9.04 2.82,-15.52zm93.72 160.99l-73.11 0 -63.07 -85.12 -27.04 0 0 85.12 -59.93 0 0 -231.76 100.15 0c13.71,0 25.45,0.8 35.28,2.34 9.88,1.54 19.07,4.94 27.68,10.09 8.72,5.21 15.68,11.9 20.78,20.14 5.15,8.23 7.7,18.6 7.7,31.03 0,17.11 -3.93,31.03 -11.85,41.81 -7.91,10.79 -19.23,19.77 -33.95,26.94l77.36 99.41z"/>
  <path class="fil2" d="M1594.68 1031.95c0,22.79 -9.67,41.33 -29.01,55.57 -19.34,14.29 -45.58,21.41 -78.74,21.41 -19.18,0 -35.91,-1.7 -50.15,-5.04 -14.3,-3.35 -27.63,-7.65 -40.06,-12.81l0 -55.47 6.53 0c12.33,9.83 26.14,17.38 41.39,22.69 15.3,5.26 29.97,7.92 44.05,7.92 3.66,0 8.39,-0.32 14.34,-0.96 5.9,-0.58 10.68,-1.65 14.45,-3.08 4.52,-1.91 8.29,-4.25 11.27,-7.01 2.92,-2.82 4.41,-7.02 4.41,-12.49 0,-5.1 -2.13,-9.46 -6.43,-13.18 -4.3,-3.66 -10.63,-6.48 -18.92,-8.45 -8.71,-2.07 -17.9,-4.03 -27.62,-5.84 -9.67,-1.81 -18.81,-4.14 -27.31,-6.91 -19.5,-6.32 -33.48,-14.93 -42.03,-25.77 -8.56,-10.83 -12.86,-24.28 -12.86,-40.38 0,-21.57 9.67,-39.15 29.01,-52.81 19.34,-13.65 44.21,-20.45 74.6,-20.45 15.25,0 30.28,1.48 45.16,4.41 14.93,2.97 27.79,6.69 38.68,11.15l0 53.29 -6.38 0c-9.29,-7.43 -20.77,-13.65 -34.27,-18.65 -13.54,-4.99 -27.36,-7.49 -41.44,-7.49 -4.99,0 -9.93,0.32 -14.82,1.01 -4.94,0.69 -9.67,1.92 -14.24,3.78 -4.04,1.59 -7.49,3.93 -10.42,7.06 -2.92,3.14 -4.35,6.75 -4.35,10.79 0,6.11 2.34,10.78 7.01,14.08 4.68,3.24 13.44,6.21 26.41,8.92 8.5,1.76 16.68,3.51 24.54,5.16 7.81,1.64 16.21,3.93 25.24,6.85 17.75,5.79 30.82,13.71 39.27,23.7 8.44,9.99 12.69,23 12.69,39zm183.15 72.84l-167.68 0 0 -231.76 167.68 0 0 44.95 -107.75 0 0 39.85 100.1 0 0 44.95 -100.1 0 0 57.06 107.75 0 0 44.95zm234.37 0l-69.07 0 -49.94 -76.08 -50.85 76.08 -66.04 0 82.14 -116.73 -80.55 -115.03 68.91 0 48.3 72.21 49.57 -72.21 66.25 0 -80.86 112.64 82.14 119.12zm232.93 -115.83c0,36.93 -10.57,66.26 -31.77,87.99 -21.2,21.73 -50.48,32.62 -87.83,32.62 -37.3,0 -66.52,-10.89 -87.72,-32.62 -21.2,-21.73 -31.77,-51.06 -31.77,-87.99 0,-37.19 10.57,-66.62 31.77,-88.25 21.2,-21.62 50.42,-32.46 87.72,-32.46 37.14,0 66.36,10.84 87.67,32.46 21.31,21.63 31.93,51.06 31.93,88.25zm-79.27 58.71c5.79,-7.06 10.09,-15.35 12.91,-24.97 2.82,-9.62 4.2,-20.88 4.2,-33.9 0,-13.86 -1.6,-25.71 -4.84,-35.49 -3.18,-9.72 -7.44,-17.64 -12.59,-23.64 -5.31,-6.22 -11.42,-10.73 -18.33,-13.55 -6.91,-2.82 -14.08,-4.2 -21.52,-4.2 -7.6,0 -14.72,1.33 -21.41,4.04 -6.75,2.71 -12.86,7.17 -18.49,13.39 -5.21,5.84 -9.4,13.81 -12.7,24.07 -3.24,10.2 -4.89,22.05 -4.89,35.54 0,13.82 1.6,25.61 4.73,35.28 3.19,9.73 7.39,17.64 12.54,23.75 5.21,6.11 11.27,10.63 18.23,13.55 6.96,2.92 14.29,4.36 21.99,4.36 7.65,0 14.99,-1.49 21.95,-4.47 6.96,-2.92 13.01,-7.54 18.22,-13.76zm165.71 -4.09l-56.1 118.91 -34.75 0 30.71 -118.91 60.14 0zm277.83 4.09c5.79,-7.06 10.09,-15.35 12.91,-24.97 2.82,-9.62 4.2,-20.88 4.2,-33.9 0,-13.86 -1.6,-25.71 -4.84,-35.49 -3.18,-9.72 -7.44,-17.64 -12.59,-23.64 -5.31,-6.22 -11.42,-10.73 -18.33,-13.55 -6.91,-2.82 -14.08,-4.2 -21.52,-4.2 -7.6,0 -14.72,1.33 -21.41,4.04 -6.75,2.71 -12.86,7.17 -18.49,13.39 -5.21,5.84 -9.4,13.81 -12.7,24.07 -3.24,10.2 -4.89,22.05 -4.89,35.54 0,13.82 1.6,25.61 4.73,35.28 3.19,9.73 7.39,17.64 12.54,23.75 5.21,6.11 11.27,10.63 18.23,13.55 6.96,2.92 14.29,4.36 21.99,4.36 7.65,0 14.99,-1.49 21.95,-4.47 6.96,-2.92 13.01,-7.54 18.22,-13.76zm6.27 54.25c0.42,10.47 3.24,17.96 8.39,22.53 5.21,4.51 14.08,6.8 26.68,6.8 4.25,0 9.29,-0.74 15.09,-2.18 5.79,-1.43 9.88,-2.76 12.16,-3.88l5.9 0 0 40.81c-5.79,1.33 -12.11,2.49 -18.91,3.56 -6.81,1.01 -17.22,1.54 -31.25,1.54 -12.38,0 -23.16,-1.54 -32.35,-4.62 -9.2,-3.09 -16.85,-7.39 -22.96,-13.02 -6.05,-5.53 -10.57,-12.06 -13.54,-19.55 -3.03,-7.5 -4.79,-15.84 -5.32,-24.98 -34.59,-1.96 -61.58,-13.54 -80.92,-34.74 -19.39,-21.26 -29.06,-49.63 -29.06,-85.23 0,-37.24 10.57,-66.62 31.77,-88.25 21.2,-21.62 50.42,-32.46 87.72,-32.46 37.14,0 66.36,10.84 87.67,32.46 21.31,21.63 31.93,51.01 31.93,88.25 0,27.53 -6.21,51.22 -18.7,71.2 -12.43,19.98 -30.55,33.9 -54.3,41.76zm295.57 -81.08c0,28.64 -8.72,50.58 -26.09,65.83 -17.43,15.25 -43.09,22.9 -76.93,22.9 -33.9,0 -59.51,-7.65 -76.89,-22.9 -17.37,-15.25 -26.03,-37.14 -26.03,-65.67l0 -147.97 59.93 0 0 144.46c0,16.1 3.35,28.06 10.1,35.97 6.74,7.87 17.69,11.8 32.89,11.8 14.93,0 25.82,-3.77 32.72,-11.37 6.91,-7.54 10.37,-19.71 10.37,-36.4l0 -144.46 59.93 0 0 147.81zm197.97 83.95l-167.68 0 0 -231.76 167.68 0 0 44.95 -107.75 0 0 39.85 100.1 0 0 44.95 -100.1 0 0 57.06 107.75 0 0 44.95zm318.47 -72.84c0,22.79 -9.67,41.33 -29.01,55.57 -19.34,14.29 -45.58,21.41 -78.74,21.41 -19.18,0 -35.91,-1.7 -50.15,-5.04 -14.3,-3.35 -27.63,-7.65 -40.06,-12.81l0 -55.47 6.53 0c12.33,9.83 26.14,17.38 41.39,22.69 15.3,5.26 29.97,7.92 44.05,7.92 3.66,0 8.39,-0.32 14.34,-0.96 5.9,-0.58 10.68,-1.65 14.45,-3.08 4.52,-1.91 8.29,-4.25 11.27,-7.01 2.92,-2.82 4.41,-7.02 4.41,-12.49 0,-5.1 -2.13,-9.46 -6.43,-13.18 -4.3,-3.66 -10.63,-6.48 -18.92,-8.45 -8.71,-2.07 -17.9,-4.03 -27.62,-5.84 -9.67,-1.81 -18.81,-4.14 -27.31,-6.91 -19.5,-6.32 -33.48,-14.93 -42.03,-25.77 -8.56,-10.83 -12.86,-24.28 -12.86,-40.38 0,-21.57 9.67,-39.15 29.01,-52.81 19.34,-13.65 44.21,-20.45 74.6,-20.45 15.25,0 30.28,1.48 45.16,4.41 14.93,2.97 27.79,6.69 38.68,11.15l0 53.29 -6.38 0c-9.29,-7.43 -20.77,-13.65 -34.27,-18.65 -13.54,-4.99 -27.36,-7.49 -41.44,-7.49 -4.99,0 -9.93,0.32 -14.82,1.01 -4.94,0.69 -9.67,1.92 -14.24,3.78 -4.04,1.59 -7.49,3.93 -10.42,7.06 -2.92,3.14 -4.35,6.75 -4.35,10.79 0,6.11 2.34,10.78 7.01,14.08 4.68,3.24 13.44,6.21 26.41,8.92 8.5,1.76 16.68,3.51 24.54,5.16 7.81,1.64 16.21,3.93 25.24,6.85 17.75,5.79 30.82,13.71 39.27,23.7 8.44,9.99 12.69,23 12.69,39zm183.15 72.84l-167.68 0 0 -231.76 167.68 0 0 44.95 -107.75 0 0 39.85 100.1 0 0 44.95 -100.1 0 0 57.06 107.75 0 0 44.95zm238.2 0l-61.85 0 -16.1 -46.86 -85.17 0 -16.15 46.86 -60.46 0 85.48 -231.76 68.76 0 85.49 231.76zm-92.29 -89.26l-28.27 -82.41 -28.27 82.41 56.54 0z"/>
  <path class="fil2" d="M1097.56 1943.44l-167.68 0 0 -231.76 167.68 0 0 44.95 -107.75 0 0 39.85 100.1 0 0 44.95 -100.1 0 0 57.06 107.75 0 0 44.95zm209.5 -72.84c0,22.79 -9.67,41.33 -29.01,55.57 -19.34,14.29 -45.58,21.41 -78.74,21.41 -19.18,0 -35.91,-1.7 -50.15,-5.04 -14.3,-3.35 -27.63,-7.65 -40.06,-12.81l0 -55.47 6.53 0c12.33,9.83 26.14,17.38 41.39,22.69 15.3,5.26 29.97,7.92 44.05,7.92 3.66,0 8.39,-0.32 14.34,-0.96 5.9,-0.58 10.68,-1.65 14.45,-3.08 4.52,-1.91 8.29,-4.25 11.27,-7.01 2.92,-2.82 4.41,-7.02 4.41,-12.49 0,-5.1 -2.13,-9.46 -6.43,-13.18 -4.3,-3.66 -10.63,-6.48 -18.92,-8.45 -8.71,-2.07 -17.9,-4.03 -27.62,-5.84 -9.67,-1.81 -18.81,-4.14 -27.31,-6.91 -19.5,-6.32 -33.48,-14.93 -42.03,-25.77 -8.56,-10.83 -12.86,-24.28 -12.86,-40.38 0,-21.57 9.67,-39.15 29.01,-52.81 19.34,-13.65 44.21,-20.45 74.6,-20.45 15.25,0 30.28,1.48 45.16,4.41 14.93,2.97 27.79,6.69 38.68,11.15l0 53.29 -6.38 0c-9.29,-7.43 -20.77,-13.65 -34.27,-18.65 -13.54,-4.99 -27.36,-7.49 -41.44,-7.49 -4.99,0 -9.93,0.32 -14.82,1.01 -4.94,0.69 -9.67,1.92 -14.24,3.78 -4.04,1.59 -7.49,3.93 -10.42,7.06 -2.92,3.14 -4.35,6.75 -4.35,10.79 0,6.11 2.34,10.78 7.01,14.08 4.68,3.24 13.44,6.21 26.41,8.92 8.5,1.76 16.68,3.51 24.54,5.16 7.81,1.64 16.21,3.93 25.24,6.85 17.75,5.79 30.82,13.71 39.27,23.7 8.44,9.99 12.69,23 12.69,39zm322.72 1.8c0,11.21 -2.23,21.26 -6.74,30.08 -4.52,8.82 -10.74,16.15 -18.6,21.94 -9.14,6.85 -19.18,11.74 -30.12,14.66 -10.95,2.93 -24.87,4.36 -41.66,4.36l-101.16 0 0 -231.76 90 0c18.7,0 32.36,0.64 41.07,1.86 8.66,1.27 17.22,3.98 25.77,8.23 8.82,4.47 15.36,10.47 19.66,17.96 4.3,7.55 6.48,16.1 6.48,25.77 0,11.21 -2.92,21.1 -8.82,29.65 -5.89,8.55 -14.24,15.2 -25.02,19.98l0 1.22c15.09,3.03 27.04,9.24 35.92,18.7 8.81,9.46 13.22,21.89 13.22,37.35zm-76.5 -95.26c0,-3.83 -0.96,-7.71 -2.87,-11.53 -1.92,-3.83 -5.26,-6.7 -10.1,-8.56 -4.36,-1.7 -9.72,-2.6 -16.2,-2.76 -6.43,-0.16 -15.47,-0.21 -27.1,-0.21l-5.58 0 0 49.09 9.3 0c9.35,0 17.32,-0.16 23.96,-0.48 6.59,-0.31 11.8,-1.32 15.62,-3.13 5.31,-2.34 8.82,-5.47 10.47,-9.25 1.65,-3.77 2.5,-8.18 2.5,-13.17zm14.34 94.36c0,-7.44 -1.43,-13.12 -4.25,-17.16 -2.82,-3.99 -7.65,-7.02 -14.4,-8.98 -4.62,-1.33 -11,-2.07 -19.13,-2.18 -8.12,-0.11 -16.63,-0.16 -25.45,-0.16l-12.96 0 0 58.02 4.3 0c16.69,0 28.59,-0.05 35.81,-0.16 7.18,-0.1 13.82,-1.43 19.88,-4.09 6.16,-2.6 10.41,-6.06 12.75,-10.36 2.28,-4.36 3.45,-9.3 3.45,-14.93zm206.15 71.94l-135.8 0 0 -41.12 37.93 0 0 -149.52 -37.93 0 0 -41.12 135.8 0 0 41.12 -37.93 0 0 149.52 37.93 0 0 41.12zm190.59 0l-167.68 0 0 -231.76 167.68 0 0 44.95 -107.75 0 0 39.85 100.1 0 0 44.95 -100.1 0 0 57.06 107.75 0 0 44.95zm235.01 0l-57.65 0 -98.24 -159.08 0 159.08 -54.83 0 0 -231.76 71.46 0 84.43 132.78 0 -132.78 54.83 0 0 231.76zm308.11 -186.81l-105.84 0 0 43.04 98.19 0 0 44.95 -98.19 0 0 98.82 -59.93 0 0 -231.76 165.77 0 0 44.95zm183.41 186.81l-167.68 0 0 -231.76 167.68 0 0 44.95 -107.75 0 0 39.85 100.1 0 0 44.95 -100.1 0 0 57.06 107.75 0 0 44.95zm249.67 -115.83c0,36.93 -10.57,66.26 -31.77,87.99 -21.2,21.73 -50.48,32.62 -87.83,32.62 -37.3,0 -66.52,-10.89 -87.72,-32.62 -21.2,-21.73 -31.77,-51.06 -31.77,-87.99 0,-37.19 10.57,-66.62 31.77,-88.25 21.2,-21.62 50.42,-32.46 87.72,-32.46 37.14,0 66.36,10.84 87.67,32.46 21.31,21.63 31.93,51.06 31.93,88.25zm-79.27 58.71c5.79,-7.06 10.09,-15.35 12.91,-24.97 2.82,-9.62 4.2,-20.88 4.2,-33.9 0,-13.86 -1.6,-25.71 -4.84,-35.49 -3.18,-9.72 -7.44,-17.64 -12.59,-23.64 -5.31,-6.22 -11.42,-10.73 -18.33,-13.55 -6.91,-2.82 -14.08,-4.2 -21.52,-4.2 -7.6,0 -14.72,1.33 -21.41,4.04 -6.75,2.71 -12.86,7.17 -18.49,13.39 -5.21,5.84 -9.4,13.81 -12.7,24.07 -3.24,10.2 -4.89,22.05 -4.89,35.54 0,13.82 1.6,25.61 4.73,35.28 3.19,9.73 7.39,17.64 12.54,23.75 5.21,6.11 11.27,10.63 18.23,13.55 6.96,2.92 14.29,4.36 21.99,4.36 7.65,0 14.99,-1.49 21.95,-4.47 6.96,-2.92 13.01,-7.54 18.22,-13.76zm354.17 0c5.79,-7.06 10.09,-15.35 12.91,-24.97 2.82,-9.62 4.2,-20.88 4.2,-33.9 0,-13.86 -1.6,-25.71 -4.84,-35.49 -3.18,-9.72 -7.44,-17.64 -12.59,-23.64 -5.31,-6.22 -11.42,-10.73 -18.33,-13.55 -6.91,-2.82 -14.08,-4.2 -21.52,-4.2 -7.6,0 -14.72,1.33 -21.41,4.04 -6.75,2.71 -12.86,7.17 -18.49,13.39 -5.21,5.84 -9.4,13.81 -12.7,24.07 -3.24,10.2 -4.89,22.05 -4.89,35.54 0,13.82 1.6,25.61 4.73,35.28 3.19,9.73 7.39,17.64 12.54,23.75 5.21,6.11 11.27,10.63 18.23,13.55 6.96,2.92 14.29,4.36 21.99,4.36 7.65,0 14.99,-1.49 21.95,-4.47 6.96,-2.92 13.01,-7.54 18.22,-13.76zm6.27 54.25c0.42,10.47 3.24,17.96 8.39,22.53 5.21,4.51 14.08,6.8 26.68,6.8 4.25,0 9.29,-0.74 15.09,-2.18 5.79,-1.43 9.88,-2.76 12.16,-3.88l5.9 0 0 40.81c-5.79,1.33 -12.11,2.49 -18.91,3.56 -6.81,1.01 -17.22,1.54 -31.25,1.54 -12.38,0 -23.16,-1.54 -32.35,-4.62 -9.2,-3.09 -16.85,-7.39 -22.96,-13.02 -6.05,-5.53 -10.57,-12.06 -13.54,-19.55 -3.03,-7.5 -4.79,-15.84 -5.32,-24.98 -34.59,-1.96 -61.58,-13.54 -80.92,-34.74 -19.39,-21.26 -29.06,-49.63 -29.06,-85.23 0,-37.24 10.57,-66.62 31.77,-88.25 21.2,-21.62 50.42,-32.46 87.72,-32.46 37.14,0 66.36,10.84 87.67,32.46 21.31,21.63 31.93,51.01 31.93,88.25 0,27.53 -6.21,51.22 -18.7,71.2 -12.43,19.98 -30.55,33.9 -54.3,41.76zm295.57 -81.08c0,28.64 -8.72,50.58 -26.09,65.83 -17.43,15.25 -43.09,22.9 -76.93,22.9 -33.9,0 -59.51,-7.65 -76.89,-22.9 -17.37,-15.25 -26.03,-37.14 -26.03,-65.67l0 -147.97 59.93 0 0 144.46c0,16.1 3.35,28.06 10.1,35.97 6.74,7.87 17.69,11.8 32.89,11.8 14.93,0 25.82,-3.77 32.72,-11.37 6.91,-7.54 10.37,-19.71 10.37,-36.4l0 -144.46 59.93 0 0 147.81zm197.97 83.95l-167.68 0 0 -231.76 167.68 0 0 44.95 -107.75 0 0 39.85 100.1 0 0 44.95 -100.1 0 0 57.06 107.75 0 0 44.95zm314.65 -186.81l-72.37 0 0 186.81 -59.93 0 0 -186.81 -72.36 0 0 -44.95 204.66 0 0 44.95zm177.78 186.81l-167.68 0 0 -231.76 167.68 0 0 44.95 -107.75 0 0 39.85 100.1 0 0 44.95 -100.1 0 0 57.06 107.75 0 0 44.95z"/>
  <path class="fil3" d="M1605.21 1471.08l75.08 -7.45c4.52,25.12 13.57,43.49 27.33,55.29 13.76,11.8 32.3,17.66 55.64,17.66 24.68,0 43.31,-5.24 55.83,-15.71 12.51,-10.47 18.81,-22.72 18.81,-36.74 0,-9.05 -2.66,-16.68 -7.9,-23.07 -5.23,-6.3 -14.46,-11.81 -27.6,-16.42 -8.96,-3.2 -29.37,-8.7 -61.32,-16.69 -41.09,-10.29 -69.93,-22.89 -86.53,-37.89 -23.34,-21.03 -34.97,-46.68 -34.97,-76.94 0,-19.44 5.51,-37.72 16.42,-54.67 11.01,-16.95 26.8,-29.82 47.48,-38.7 20.68,-8.87 45.53,-13.31 74.81,-13.31 47.66,0 83.6,10.56 107.65,31.77 24.14,21.21 36.75,49.44 37.99,84.85l-77.21 2.66c-3.29,-19.7 -10.3,-33.81 -21.03,-42.42 -10.74,-8.61 -26.89,-12.96 -48.37,-12.96 -22.19,0 -39.58,4.61 -52.1,13.84 -8.07,5.95 -12.15,13.85 -12.15,23.79 0,9.05 3.81,16.77 11.44,23.16 9.68,8.25 33.2,16.77 70.56,25.65 37.36,8.78 64.96,18.01 82.8,27.42 17.93,9.5 31.95,22.37 42.06,38.78 10.12,16.42 15.18,36.66 15.18,60.71 0,21.83 -6.03,42.33 -18.19,61.41 -12.16,19.08 -29.29,33.28 -51.48,42.51 -22.18,9.32 -49.87,13.93 -82.97,13.93 -48.19,0 -85.2,-11.09 -111.03,-33.37 -25.82,-22.18 -41.17,-54.58 -46.23,-97.09zm375.39 123.54l0 -381.26 282.22 0 0 64.43 -205.01 0 0 84.67 190.63 0 0 64.43 -190.63 0 0 103.3 212.46 0 0 64.43 -289.67 0zm532.48 -140.04l0 -64.43 165.6 0 0 152.11c-16.06,15.71 -39.41,29.46 -70.02,41.44 -30.53,11.9 -61.5,17.84 -92.92,17.84 -39.85,0 -74.55,-8.34 -104.19,-25.11 -29.55,-16.78 -51.83,-40.83 -66.74,-71.98 -14.91,-31.15 -22.36,-65.14 -22.36,-101.79 0,-39.76 8.34,-75.08 24.94,-106.05 16.68,-30.89 41,-54.67 73.04,-71.18 24.49,-12.69 54.84,-18.99 91.23,-18.99 47.3,0 84.31,9.94 110.93,29.82 26.54,19.97 43.66,47.39 51.3,82.54l-76.68 14.37c-5.33,-18.72 -15.44,-33.54 -30.26,-44.46 -14.74,-10.83 -33.2,-16.24 -55.38,-16.24 -33.55,0 -60.26,10.65 -80.05,32.04 -19.79,21.39 -29.73,53.07 -29.73,95.04 0,45.35 10.03,79.34 30.08,101.97 20.15,22.64 46.42,33.99 78.99,33.99 16.06,0 32.21,-3.19 48.37,-9.49 16.24,-6.3 30.08,-14.02 41.71,-23.08l0 -48.36 -87.86 0zm236.86 -241.22l77.21 0 0 206.61c0,32.83 0.98,54.04 2.84,63.72 3.28,15.62 11.01,28.22 23.25,37.63 12.34,9.49 29.11,14.19 50.41,14.19 21.57,0 37.9,-4.43 48.9,-13.4 11,-8.96 17.57,-19.88 19.79,-32.92 2.22,-13.05 3.37,-34.61 3.37,-64.79l0 -211.04 77.21 0 0 200.48c0,45.8 -2.04,78.19 -6.21,97.09 -4.17,18.9 -11.8,34.88 -22.99,47.93 -11.09,13.04 -26,23.34 -44.64,31.06 -18.72,7.72 -43.04,11.62 -73.12,11.62 -36.3,0 -63.81,-4.17 -82.54,-12.6 -18.72,-8.43 -33.54,-19.35 -44.46,-32.84 -10.91,-13.49 -18.01,-27.51 -21.48,-42.33 -5.05,-21.83 -7.54,-54.13 -7.54,-96.82l0 -203.59zm384.54 381.26l0 -381.26 162.14 0c40.74,0 70.38,3.47 88.84,10.3 18.54,6.83 33.28,18.99 44.37,36.47 11.09,17.58 16.68,37.54 16.68,60.09 0,28.66 -8.34,52.27 -25.11,70.9 -16.77,18.64 -41.8,30.36 -75.17,35.24 16.6,9.67 30.26,20.32 41,31.95 10.83,11.62 25.38,32.3 43.66,61.94l46.51 74.37 -92.03 0 -55.2 -83.24c-19.79,-29.56 -33.37,-48.19 -40.74,-55.91 -7.27,-7.64 -15,-12.96 -23.16,-15.8 -8.25,-2.84 -21.21,-4.26 -38.96,-4.26l-15.62 0 0 159.21 -77.21 0zm77.21 -219.91l56.98 0c36.91,0 59.9,-1.6 69.13,-4.71 9.14,-3.1 16.42,-8.52 21.57,-16.15 5.23,-7.63 7.8,-17.22 7.8,-28.66 0,-12.87 -3.46,-23.17 -10.29,-31.15 -6.83,-7.9 -16.51,-12.87 -28.93,-14.91 -6.3,-0.89 -25.03,-1.34 -56.18,-1.34l-60.08 0 0 96.92zm291.36 31.59c0,-38.87 5.85,-71.53 17.48,-97.98 8.61,-19.43 20.5,-36.92 35.5,-52.36 15,-15.44 31.41,-26.89 49.25,-34.43 23.79,-10.03 51.21,-15.09 82.27,-15.09 56.27,0 101.17,17.49 134.98,52.36 33.73,34.97 50.59,83.51 50.59,145.72 0,61.68 -16.77,109.96 -50.23,144.75 -33.46,34.88 -78.27,52.27 -134.27,52.27 -56.71,0 -101.89,-17.3 -135.34,-52 -33.46,-34.61 -50.23,-82.36 -50.23,-143.24zm79.34 -2.57c0,43.22 10.02,75.96 29.99,98.33 19.97,22.27 45.35,33.45 76.06,33.45 30.79,0 56,-11.09 75.79,-33.19 19.7,-22.18 29.55,-55.37 29.55,-99.66 0,-43.75 -9.58,-76.41 -28.84,-97.89 -19.17,-21.56 -44.64,-32.3 -76.5,-32.3 -31.77,0 -57.42,10.92 -76.86,32.66 -19.43,21.83 -29.19,54.67 -29.19,98.6z"/>
  <path class="fil4" d="M1569.93 1435.8l75.08 -7.45c4.52,25.12 13.57,43.49 27.33,55.29 13.76,11.8 32.3,17.66 55.64,17.66 24.68,0 43.31,-5.24 55.83,-15.71 12.51,-10.47 18.81,-22.72 18.81,-36.74 0,-9.05 -2.66,-16.68 -7.9,-23.07 -5.23,-6.3 -14.46,-11.81 -27.6,-16.42 -8.96,-3.2 -29.37,-8.7 -61.32,-16.69 -41.09,-10.29 -69.93,-22.89 -86.53,-37.89 -23.34,-21.03 -34.97,-46.68 -34.97,-76.94 0,-19.44 5.51,-37.72 16.42,-54.67 11.01,-16.95 26.8,-29.82 47.48,-38.7 20.68,-8.87 45.53,-13.31 74.81,-13.31 47.66,0 83.6,10.56 107.65,31.77 24.14,21.21 36.75,49.44 37.99,84.85l-77.21 2.66c-3.29,-19.7 -10.3,-33.81 -21.03,-42.42 -10.74,-8.61 -26.89,-12.96 -48.37,-12.96 -22.19,0 -39.58,4.61 -52.1,13.84 -8.07,5.95 -12.15,13.85 -12.15,23.79 0,9.05 3.81,16.77 11.44,23.16 9.68,8.25 33.2,16.77 70.56,25.65 37.36,8.78 64.96,18.01 82.8,27.42 17.93,9.5 31.95,22.37 42.06,38.78 10.12,16.42 15.18,36.66 15.18,60.71 0,21.83 -6.03,42.33 -18.19,61.41 -12.16,19.08 -29.29,33.28 -51.48,42.51 -22.18,9.32 -49.87,13.93 -82.97,13.93 -48.19,0 -85.2,-11.09 -111.03,-33.37 -25.82,-22.18 -41.17,-54.58 -46.23,-97.09zm375.39 123.54l0 -381.26 282.22 0 0 64.43 -205.01 0 0 84.67 190.63 0 0 64.43 -190.63 0 0 103.3 212.46 0 0 64.43 -289.67 0zm532.48 -140.04l0 -64.43 165.6 0 0 152.11c-16.06,15.71 -39.41,29.46 -70.02,41.44 -30.53,11.9 -61.5,17.84 -92.92,17.84 -39.85,0 -74.55,-8.34 -104.19,-25.11 -29.55,-16.78 -51.83,-40.83 -66.74,-71.98 -14.91,-31.15 -22.36,-65.14 -22.36,-101.79 0,-39.76 8.34,-75.08 24.94,-106.05 16.68,-30.89 41,-54.67 73.04,-71.18 24.49,-12.69 54.84,-18.99 91.23,-18.99 47.3,0 84.31,9.94 110.93,29.82 26.54,19.97 43.66,47.39 51.3,82.54l-76.68 14.37c-5.33,-18.72 -15.44,-33.54 -30.26,-44.46 -14.74,-10.83 -33.2,-16.24 -55.38,-16.24 -33.55,0 -60.26,10.65 -80.05,32.04 -19.79,21.39 -29.73,53.07 -29.73,95.04 0,45.35 10.03,79.34 30.08,101.97 20.15,22.64 46.42,33.99 78.99,33.99 16.06,0 32.21,-3.19 48.37,-9.49 16.24,-6.3 30.08,-14.02 41.71,-23.08l0 -48.36 -87.86 0zm236.86 -241.22l77.21 0 0 206.61c0,32.83 0.98,54.04 2.84,63.72 3.28,15.62 11.01,28.22 23.25,37.63 12.34,9.49 29.11,14.19 50.41,14.19 21.57,0 37.9,-4.43 48.9,-13.4 11,-8.96 17.57,-19.88 19.79,-32.92 2.22,-13.05 3.37,-34.61 3.37,-64.79l0 -211.04 77.21 0 0 200.48c0,45.8 -2.04,78.19 -6.21,97.09 -4.17,18.9 -11.8,34.88 -22.99,47.93 -11.09,13.04 -26,23.34 -44.64,31.06 -18.72,7.72 -43.04,11.62 -73.12,11.62 -36.3,0 -63.81,-4.17 -82.54,-12.6 -18.72,-8.43 -33.54,-19.35 -44.46,-32.84 -10.91,-13.49 -18.01,-27.51 -21.48,-42.33 -5.05,-21.83 -7.54,-54.13 -7.54,-96.82l0 -203.59zm384.54 381.26l0 -381.26 162.14 0c40.74,0 70.38,3.47 88.84,10.3 18.54,6.83 33.28,18.99 44.37,36.47 11.09,17.58 16.68,37.54 16.68,60.09 0,28.66 -8.34,52.27 -25.11,70.9 -16.77,18.64 -41.8,30.36 -75.17,35.24 16.6,9.67 30.26,20.32 41,31.95 10.83,11.62 25.38,32.3 43.66,61.94l46.51 74.37 -92.03 0 -55.2 -83.24c-19.79,-29.56 -33.37,-48.19 -40.74,-55.91 -7.27,-7.64 -15,-12.96 -23.16,-15.8 -8.25,-2.84 -21.21,-4.26 -38.96,-4.26l-15.62 0 0 159.21 -77.21 0zm77.21 -219.91l56.98 0c36.91,0 59.9,-1.6 69.13,-4.71 9.14,-3.1 16.42,-8.52 21.57,-16.15 5.23,-7.63 7.8,-17.22 7.8,-28.66 0,-12.87 -3.46,-23.17 -10.29,-31.15 -6.83,-7.9 -16.51,-12.87 -28.93,-14.91 -6.3,-0.89 -25.03,-1.34 -56.18,-1.34l-60.08 0 0 96.92zm291.36 31.59c0,-38.87 5.85,-71.53 17.48,-97.98 8.61,-19.43 20.5,-36.92 35.5,-52.36 15,-15.44 31.41,-26.89 49.25,-34.43 23.79,-10.03 51.21,-15.09 82.27,-15.09 56.27,0 101.17,17.49 134.98,52.36 33.73,34.97 50.59,83.51 50.59,145.72 0,61.68 -16.77,109.96 -50.23,144.75 -33.46,34.88 -78.27,52.27 -134.27,52.27 -56.71,0 -101.89,-17.3 -135.34,-52 -33.46,-34.61 -50.23,-82.36 -50.23,-143.24zm79.34 -2.57c0,43.22 10.02,75.96 29.99,98.33 19.97,22.27 45.35,33.45 76.06,33.45 30.79,0 56,-11.09 75.79,-33.19 19.7,-22.18 29.55,-55.37 29.55,-99.66 0,-43.75 -9.58,-76.41 -28.84,-97.89 -19.17,-21.56 -44.64,-32.3 -76.5,-32.3 -31.77,0 -57.42,10.92 -76.86,32.66 -19.43,21.83 -29.19,54.67 -29.19,98.6z"/>
  <path class="fil5" d="M4469.82 2892.9c12.28,16.3 20.47,32.67 36.48,39.99 15.14,-6.95 61.12,-64.97 64.77,-91.16l-40.82 -3.3c-1.96,-101.47 -0.98,-117.28 -106.88,-118.18 -16.8,-0.14 -45.42,-3.55 -54.39,5.47 -6.86,6.9 -9.66,31.17 3.49,39.26 26.22,16.12 80.65,-3.74 105.44,7.56 7.62,17.23 4.89,42.27 4.34,65.04l-40.55 5.92c3.15,22.28 14.51,31.33 28.12,49.4z"/>
  <path class="fil5" d="M4293.25 2720.88c-15.11,6.93 -61.13,64.99 -64.76,91.12l40.8 3.33c1.4,71.99 -4.6,118.04 77.22,118.04 72.63,0 95.68,9.26 89.64,-29.01 -3.67,-23.25 -8.6,-18.8 -35.65,-18.91 -94.84,-0.4 -85.05,19.72 -83.21,-69.27l40.55 -5.92c-3.38,-23.74 -49.49,-82.46 -64.59,-89.38z"/>
  <path class="fil5" d="M3860.49 2820.96c6.95,16.51 109.59,99.56 118.12,98.51 18.47,-2.29 11.4,-32.46 11.93,-56.71 109.67,2.89 84.76,56.67 126.19,70.64 16.33,-53.19 -15.08,-141.37 -126.26,-153.97 -0.43,-24.97 7.93,-60.4 -15.38,-56.65l-79.28 62.94c-17.18,15.17 -27.52,16.71 -35.32,35.24z"/>
  <g>
   <path class="fil6 str0" d="M4824.37 2741.65c17.92,-30.14 35.84,-45.21 71.69,-45.21 39.58,0 71.69,27 71.69,60.28 0,60.29 -71.69,120.58 -143.38,180.87 -71.69,-60.29 -143.38,-120.58 -143.38,-180.87 0,-33.28 32.11,-60.28 71.69,-60.28 35.85,0 53.77,15.07 71.69,45.21z"/>
   <path id="1" class="fil7" d="M4824.37 2741.65c17.92,-30.14 35.84,-45.21 71.69,-45.21 39.58,0 71.69,27 71.69,60.28 0,60.29 -71.69,120.58 -143.38,180.87 -71.69,-60.29 -143.38,-120.58 -143.38,-180.87 0,-33.28 32.11,-60.28 71.69,-60.28 35.85,0 53.77,15.07 71.69,45.21z"/>
  </g>
  <g>
   <path class="fil8" d="M312.55 2592.43l3.47 41.38c3.04,5.37 28.77,30.14 34.65,34.99 24.14,19.93 58.95,44.28 88.14,63.29 42.09,27.41 142.15,94.15 193.45,69.61 -16.64,-56.86 -55.68,-37.32 -167.94,-109.09 -46.4,-29.66 -113.67,-108.89 -151.77,-100.18z"/>
   <path class="fil9" d="M167.95 2631.71c35.1,-83.39 0.04,-36.83 55.78,-97.94 56.81,-62.29 -1.22,-49.51 95.03,-57.21 31.52,-33.48 18.13,-11.82 30.49,-68.9 -48.04,0 -97.98,1.76 -145.52,1.28 -86.32,-0.86 -39.99,-12.09 -112.06,-22.03 3.78,80.93 20.81,27.33 20,112.43 -0.44,47.1 -1.44,93.99 -0.9,144.45l57.18 -12.08z"/>
   <path class="fil10" d="M350.67 2668.8c-5.88,-4.85 -31.61,-29.62 -34.65,-34.99l-3.47 -41.38c38.1,-8.71 105.37,70.52 151.77,100.18 112.26,71.77 151.3,52.23 167.94,109.09 -51.3,24.54 -151.36,-42.2 -193.45,-69.61 -29.19,-19.01 -64,-43.36 -88.14,-63.29zm-182.72 -37.09c258.33,652.28 664.27,398.44 565.06,177.17 -50.68,-113.04 -338.2,-133.21 -414.25,-332.32 -96.25,7.7 -38.22,-5.08 -95.03,57.21 -55.74,61.11 -20.68,14.55 -55.78,97.94z"/>
   <g>
    <path class="fil11" d="M770.33 2792.15l-74.64 33.46 0 0 -3.13 -5.93 -4.22 -6.14 -5.45 -6.42 -6.74 -6.66 -8.05 -6.84 -9.32 -6.98 -10.49 -7.08 -11.57 -7.12 -12.56 -7.2 -13.45 -7.24 -14.22 -7.34 -14.91 -7.44 -15.5 -7.6 -15.98 -7.78 -16.38 -8.01 -16.7 -8.29 -16.94 -8.64 -17.07 -9.02 -17.12 -9.47 -17.09 -9.97 -16.99 -10.54 -16.79 -11.19 -16.49 -11.9 -16.11 -12.67 -15.64 -13.53 -15.04 -14.44 -14.35 -15.43 -13.52 -16.47 -12.58 -17.57 -11.51 -18.71 -10.28 -19.85 -8.95 -20.99 76.42 -29.18 6.53 15.31 7.5 14.45 8.43 13.71 9.34 13.03 10.22 12.43 11.05 11.89 11.84 11.36 12.58 10.89 13.29 10.43 13.89 10.02 14.43 9.61 14.91 9.26 15.31 8.93 15.62 8.63 15.87 8.38 16 8.16 16.1 7.99 16.1 7.87 16.02 7.8 15.86 7.78 15.65 7.82 15.36 7.92 15.01 8.1 14.6 8.36 14.11 8.7 13.59 9.16 12.96 9.74 12.27 10.46 11.46 11.34 10.47 12.38 9.26 13.54 7.73 14.73 0 0zm0 0c9.23,20.61 0.02,44.82 -20.59,54.05 -20.61,9.23 -44.82,0.02 -54.05,-20.59l74.64 -33.46zm-593.93 -120.42l-16.9 -80.04 46.48 24.96 23.94 56.9 24.55 51.64 25.02 46.59 25.33 41.69 25.5 36.99 25.53 32.47 25.38 28.14 25.08 24.02 24.65 20.12 24.07 16.44 23.37 13.02 22.52 9.84 21.61 6.92 20.65 4.24 19.64 1.82 18.57 -0.39 17.5 -2.41 16.44 -4.25 15.31 -5.93 14.14 -7.47 12.92 -8.88 11.61 -10.14 10.22 -11.27 8.75 -12.26 7.2 -13.09 5.58 -13.81 3.88 -14.37 2.09 -14.83 0.25 -15.24 -1.72 -15.56 -3.8 -15.85 -6.07 -16.13 74.64 -33.46 9.61 25.49 6.2 25.81 2.84 25.8 -0.39 25.46 -3.51 24.87 -6.46 24.01 -9.24 22.89 -11.86 21.57 -14.31 20.04 -16.62 18.33 -18.77 16.38 -20.74 14.26 -22.56 11.91 -24.21 9.37 -25.66 6.63 -26.92 3.69 -27.95 0.57 -28.74 -2.66 -29.35 -6.04 -29.77 -9.52 -29.98 -13.1 -30.05 -16.76 -30.01 -20.5 -29.85 -24.36 -29.58 -28.32 -29.24 -32.42 -28.81 -36.65 -28.28 -41.03 -27.69 -45.55 -26.98 -50.27 -26.21 -55.12 -25.32 -60.16 46.48 24.96zm-46.48 -24.96c-8.31,-21 1.97,-44.78 22.97,-53.09 21,-8.31 44.78,1.97 53.09,22.97l-76.06 30.12zm-27.6 -43l57.18 -12.08 16.9 80.04 -57.18 12.08 -49.35 -39.58 32.45 -40.46zm16.9 80.04c-22.1,4.66 -43.81,-9.47 -48.47,-31.57 -4.66,-22.1 9.47,-43.81 31.57,-48.47l16.9 80.04zm-48.45 -184.86l81.8 0.78 0 -0.01 -0.04 4.46 -0.05 4.45 -0.05 4.41 -0.05 4.42 -0.05 4.42 -0.05 4.47 -0.06 4.42 -0.05 4.42 -0.06 4.43 -0.05 4.44 -0.06 4.44 -0.05 4.4 -0.05 4.45 -0.05 4.46 -0.05 4.48 -0.05 4.43 -0.04 4.43 -0.04 4.5 -0.04 4.48 -0.03 4.47 -0.03 4.5 -0.02 4.49 -0.02 4.52 -0.01 4.54 -0.01 4.54 0 4.53 0.01 4.53 0.02 4.6 0.02 4.62 0.03 4.64 0.03 4.61 0.05 4.63 -81.8 0.88 -0.05 -4.81 -0.03 -4.79 -0.03 -4.72 -0.02 -4.7 -0.02 -4.7 -0.01 -4.71 0 -4.69 0.01 -4.64 0.01 -4.62 0.02 -4.62 0.02 -4.59 0.03 -4.58 0.03 -4.57 0.04 -4.56 0.04 -4.5 0.04 -4.53 0.05 -4.53 0.05 -4.48 0.05 -4.46 0.05 -4.45 0.05 -4.5 0.06 -4.44 0.05 -4.44 0.06 -4.43 0.05 -4.42 0.06 -4.42 0.05 -4.37 0.05 -4.42 0.05 -4.42 0.05 -4.41 0.05 -4.37 0.04 -4.38 0 -0.01zm0 0.01c0.2,-22.58 18.7,-40.72 41.28,-40.52 22.58,0.2 40.72,18.7 40.52,41.28l-81.8 -0.76zm26.49 -152.57l-11.18 81.04 46.45 -42.43 0.35 6.54 0.42 5.7 0.45 4.94 0.48 4.15 0.47 3.37 0.47 2.68 0.43 2.07 0.35 1.41 0.25 0.81 0.17 0.46 0.05 0.15 -0.03 -0.09 0.02 0.02 0.24 0.4 0.55 0.89 0.88 1.39 1.3 2.11 1.58 2.76 1.75 3.38 1.73 3.83 1.58 4.11 1.41 4.38 1.19 4.53 1 4.7 0.82 4.94 0.66 5.16 0.52 5.42 0.41 5.84 0.29 6.3 0.19 6.83 0.08 7.44 -0.02 8.11 -81.8 -0.78 0.02 -7.05 -0.06 -6.2 -0.15 -5.37 -0.21 -4.58 -0.27 -3.82 -0.3 -3.12 -0.3 -2.36 -0.28 -1.64 -0.22 -1.06 -0.13 -0.49 -0.01 -0.04 0.08 0.23 0.17 0.37 0.11 0.24 -0.1 -0.16 -0.42 -0.67 -0.86 -1.37 -1.21 -1.95 -1.54 -2.62 -1.74 -3.26 -1.77 -3.75 -1.65 -3.99 -1.51 -4.26 -1.37 -4.59 -1.19 -4.75 -1.05 -4.97 -0.93 -5.36 -0.81 -5.71 -0.7 -6.13 -0.61 -6.62 -0.52 -7.22 -0.43 -7.86 46.45 -42.43zm-46.45 42.43c-1.05,-22.56 16.39,-41.72 38.95,-42.77 22.56,-1.05 41.72,16.39 42.77,38.95l-81.72 3.82zm153.33 -20.78l-0.82 81.8 0 0 -8.08 -0.12 -7.43 -0.18 -6.81 -0.25 -6.24 -0.3 -5.75 -0.38 -5.37 -0.45 -5.02 -0.54 -4.71 -0.64 -4.45 -0.73 -4.27 -0.86 -4.15 -1.01 -3.96 -1.15 -3.8 -1.29 -3.49 -1.38 -3.13 -1.38 -2.69 -1.31 -2.18 -1.13 -1.75 -0.94 -1.23 -0.65 -0.98 -0.5 -0.77 -0.38 -0.8 -0.36 -0.97 -0.39 -1.1 -0.41 -1.57 -0.5 -2.05 -0.6 -2.48 -0.64 -3.11 -0.72 -3.72 -0.76 -4.33 -0.79 -5.07 -0.83 -5.78 -0.84 11.18 -81.04 7.06 1.04 6.47 1.05 5.99 1.09 5.52 1.14 5.09 1.16 4.8 1.24 4.39 1.28 4.13 1.34 3.94 1.43 3.51 1.43 3.22 1.42 2.87 1.38 2.38 1.22 1.93 1.03 1.31 0.7 0.88 0.45 0.45 0.23 0.17 0.08 0.09 0.04 0.14 0.05 0.44 0.13 0.79 0.19 1.29 0.26 1.85 0.31 2.41 0.32 3 0.32 3.67 0.31 4.37 0.28 5.06 0.26 5.79 0.21 6.53 0.16 7.34 0.1 0 0zm0 0c22.58,0.22 40.71,18.73 40.49,41.31 -0.22,22.58 -18.73,40.71 -41.31,40.49l0.82 -81.8zm185.09 48.28l-79.96 -17.32 39.98 49.56 -4.42 0.01 -4.47 0.01 -4.44 0.02 -4.45 0.03 -4.46 0.04 -4.5 0.05 -4.52 0.05 -4.52 0.06 -4.57 0.06 -4.53 0.06 -4.53 0.07 -4.58 0.07 -4.54 0.07 -4.58 0.08 -4.64 0.07 -4.57 0.07 -4.58 0.07 -4.63 0.07 -4.57 0.06 -4.61 0.07 -4.62 0.05 -4.6 0.06 -4.64 0.04 -4.55 0.04 -4.63 0.04 -4.62 0.02 -4.62 0.02 -4.6 0 -4.59 0 -4.58 -0.02 -4.57 -0.02 -4.6 -0.04 0.82 -81.8 4.32 0.04 4.39 0.02 4.4 0.02 4.41 0 4.42 0 4.44 -0.02 4.44 -0.02 4.45 -0.04 4.55 -0.04 4.46 -0.04 4.52 -0.06 4.52 -0.05 4.53 -0.07 4.57 -0.06 4.53 -0.07 4.58 -0.07 4.59 -0.07 4.54 -0.07 4.58 -0.08 4.62 -0.07 4.58 -0.07 4.63 -0.07 4.61 -0.06 4.57 -0.06 4.62 -0.06 4.6 -0.05 4.6 -0.05 4.62 -0.04 4.63 -0.03 4.62 -0.02 4.57 -0.01 4.6 -0.01 39.98 49.56zm-39.98 -49.56c22.58,0 40.9,18.32 40.9,40.9 0,22.58 -18.32,40.9 -40.9,40.9l0 -81.8zm7.72 95.21l-76.42 29.18 8.43 -42.63 3.02 -3.17 2.72 -2.85 2.48 -2.54 2.2 -2.27 1.96 -1.98 1.63 -1.66 1.34 -1.37 1.01 -1.06 0.63 -0.67 0.19 -0.22 -0.05 0.06 -0.4 0.55 -0.78 1.17 -0.82 1.42 -0.78 1.61 -0.64 1.61 -0.34 1.01 -0.16 0.6 -0.07 0.3 0.08 -0.46 0.18 -1.07 0.23 -1.5 0.29 -1.91 0.36 -2.44 0.43 -2.76 0.47 -3.03 0.58 -3.52 0.67 -3.9 0.79 -4.3 0.89 -4.62 1.02 -5.06 1.16 -5.49 79.96 17.32 -1.02 4.75 -0.86 4.32 -0.77 3.94 -0.63 3.48 -0.55 3.14 -0.46 2.86 -0.43 2.71 -0.37 2.4 -0.32 2.18 -0.33 2.25 -0.35 2.22 -0.38 2.27 -0.48 2.54 -0.67 3 -0.84 3.08 -1.08 3.31 -1.5 3.77 -1.78 3.67 -1.98 3.44 -2.14 3.21 -1.98 2.63 -1.85 2.26 -1.89 2.14 -1.75 1.89 -1.67 1.74 -1.7 1.75 -1.77 1.8 -1.86 1.9 -2.02 2.05 -2.2 2.28 -2.42 2.51 -2.64 2.79 8.43 -42.63zm-8.43 42.63c-15.48,16.44 -41.38,17.22 -57.82,1.74 -16.44,-15.48 -17.22,-41.38 -1.74,-57.82l59.56 56.08zm-325.91 187.23l0 -178.54 81.8 0 0 178.54 -42.44 40.87 -39.36 -40.87zm81.8 0c0,22.58 -18.32,40.9 -40.9,40.9 -22.58,0 -40.9,-18.32 -40.9,-40.9l81.8 0zm37.51 43.89l-79.95 -3.02 3.08 -81.74 79.95 3.02 36.54 25.94 -39.62 55.8zm3.08 -81.74c22.57,0.85 40.18,19.84 39.33,42.41 -0.85,22.57 -19.84,40.18 -42.41,39.33l3.08 -81.74zm586.31 316.82l69.34 43.38 0 0.01 -12.47 18 -14.05 16.71 -15.51 15.35 -16.87 13.92 -18.1 12.42 -19.23 10.89 -20.27 9.29 -21.2 7.64 -22.02 5.97 -22.77 4.25 -23.42 2.47 -23.96 0.67 -24.41 -1.18 -24.79 -3.06 -25.07 -4.99 -25.26 -6.95 -25.37 -8.95 -25.39 -10.96 -25.33 -13.04 -25.18 -15.13 -24.97 -17.26 -24.66 -19.43 -24.29 -21.61 -23.85 -23.84 -23.34 -26.11 -22.77 -28.4 -22.11 -30.75 -21.41 -33.13 -20.62 -35.56 -19.79 -38.02 -18.88 -40.53 -17.91 -43.09 76.16 -29.86 16.63 40.01 17.4 37.35 18.09 34.76 18.7 32.24 19.23 29.77 19.69 27.37 20.05 25.02 20.34 22.75 20.55 20.54 20.69 18.41 20.74 16.33 20.71 14.32 20.66 12.41 20.47 10.54 20.27 8.76 19.99 7.05 19.64 5.39 19.23 3.83 18.79 2.32 18.25 0.88 17.68 -0.49 17.04 -1.81 16.37 -3.05 15.64 -4.23 14.84 -5.36 13.99 -6.41 13.13 -7.43 12.2 -8.36 11.21 -9.26 10.23 -10.13 9.19 -10.93 8.13 -11.72 0 0.01zm0 -0.01c11.98,-19.14 37.23,-24.95 56.37,-12.97 19.14,11.98 24.95,37.23 12.97,56.37l-69.34 -43.4zm1.27 -175.66l70.24 -41.92 0 0 4.16 7.32 3.87 7.51 3.57 7.67 3.26 7.78 2.98 7.91 2.69 8.01 2.44 8.16 2.14 8.21 1.89 8.3 1.62 8.38 1.36 8.41 1.1 8.47 0.86 8.53 0.58 8.56 0.34 8.56 0.08 8.58 -0.17 8.59 -0.44 8.58 -0.68 8.56 -0.95 8.5 -1.2 8.49 -1.47 8.47 -1.74 8.38 -2.01 8.33 -2.29 8.24 -2.55 8.14 -2.86 8.07 -3.14 7.92 -3.43 7.8 -3.74 7.67 -4.06 7.53 -4.38 7.34 -69.34 -43.38 2.56 -4.32 2.44 -4.51 2.3 -4.73 2.17 -4.92 2.02 -5.12 1.86 -5.25 1.71 -5.44 1.55 -5.58 1.37 -5.67 1.2 -5.82 1.03 -5.87 0.84 -5.99 0.67 -6.08 0.5 -6.1 0.3 -6.12 0.13 -6.15 -0.06 -6.14 -0.24 -6.16 -0.42 -6.1 -0.6 -6.05 -0.78 -6.01 -0.96 -5.93 -1.12 -5.82 -1.31 -5.72 -1.46 -5.61 -1.62 -5.42 -1.79 -5.31 -1.94 -5.15 -2.08 -4.96 -2.19 -4.73 -2.35 -4.55 -2.46 -4.34 0 0zm0 0c-11.57,-19.39 -5.23,-44.51 14.16,-56.08 19.39,-11.57 44.51,-5.23 56.08,14.16l-70.24 41.92zm-321.71 -208.12l51.62 -63.46 0 0 13.85 10.99 13.58 10.25 13.3 9.55 13.05 8.89 12.8 8.32 12.56 7.77 12.31 7.26 12.11 6.83 11.88 6.43 11.67 6.06 11.48 5.77 11.29 5.51 11.11 5.3 10.95 5.15 10.78 5.02 10.64 4.97 10.51 4.96 10.36 5.01 10.24 5.1 10.12 5.26 9.98 5.48 9.85 5.74 9.73 6.09 9.56 6.5 9.35 6.93 9.14 7.44 8.9 7.98 8.59 8.57 8.25 9.18 7.89 9.82 7.47 10.44 7.03 11.09 -70.24 41.92 -4.65 -7.31 -4.81 -6.74 -5.01 -6.24 -5.25 -5.82 -5.51 -5.49 -5.8 -5.22 -6.16 -5 -6.53 -4.83 -6.92 -4.7 -7.33 -4.59 -7.81 -4.56 -8.26 -4.52 -8.68 -4.52 -9.16 -4.56 -9.6 -4.63 -10.01 -4.74 -10.46 -4.87 -10.88 -5.08 -11.27 -5.29 -11.67 -5.56 -12.05 -5.89 -12.4 -6.23 -12.77 -6.64 -13.1 -7.09 -13.43 -7.57 -13.75 -8.12 -14.04 -8.69 -14.34 -9.3 -14.63 -9.99 -14.88 -10.69 -15.16 -11.43 -15.39 -12.21 0 0zm0 0c-17.52,-14.25 -20.17,-40.02 -5.92,-57.54 14.25,-17.52 40.02,-20.17 57.54,-5.92l-51.62 63.46zm-14.31 -183.9l0 -81.8 40.9 41.45 -0.33 12.56 -0.61 11.83 -0.88 11.08 -1.07 10.35 -1.24 9.7 -1.38 9 -1.45 8.35 -1.49 7.72 -1.47 7.04 -1.4 6.37 -1.27 5.75 -1.12 5.05 -0.88 4.29 -0.65 3.61 -0.42 2.85 -0.2 2.1 -0.06 1.34 0.03 0.76 0.04 0.39 0.03 0.13 0.1 0.3 0.33 0.74 0.69 1.25 1.22 1.85 1.9 2.52 2.63 3.1 3.47 3.71 4.32 4.31 5.18 4.83 6.1 5.42 6.99 5.96 7.92 6.53 -51.62 63.46 -8.84 -7.29 -8.13 -6.94 -7.46 -6.62 -6.88 -6.43 -6.3 -6.27 -5.83 -6.25 -5.37 -6.36 -4.9 -6.48 -4.44 -6.79 -3.91 -7.11 -3.29 -7.44 -2.6 -7.74 -1.81 -7.89 -1.02 -7.69 -0.35 -7.46 0.22 -7.08 0.62 -6.62 0.9 -6.25 1.07 -5.95 1.2 -5.83 1.24 -5.67 1.27 -5.69 1.28 -5.87 1.27 -6.06 1.23 -6.34 1.17 -6.75 1.1 -7.22 1 -7.74 0.87 -8.35 0.7 -8.98 0.51 -9.69 0.27 -10.5 40.9 41.45zm-40.9 -41.45c0.3,-22.58 18.87,-40.65 41.45,-40.35 22.58,0.3 40.65,18.87 40.35,41.45l-81.8 -1.1zm-251.25 151.63l-81.8 0 0 0 -0.25 -19.8 -0.66 -18.08 -0.99 -16.48 -1.2 -15.02 -1.3 -13.66 -1.32 -12.46 -1.24 -11.47 -1.06 -10.71 -0.74 -10.27 -0.22 -10.25 0.7 -10.88 2.5 -12.14 5.7 -13.29 9.89 -12.58 12.61 -9.16 12.73 -5.23 11.92 -2.61 11.39 -1.11 11.48 -0.25 12.14 0.3 13.24 0.71 14.65 1.01 16.28 1.24 18.13 1.39 20.15 1.5 22.31 1.52 24.63 1.47 27.09 1.37 29.67 1.19 32.37 0.93 35.2 0.62 38.15 0.22 0 81.8 -39.09 -0.22 -36.14 -0.64 -33.29 -0.95 -30.55 -1.23 -27.89 -1.41 -25.35 -1.51 -22.91 -1.56 -20.51 -1.52 -18.23 -1.41 -15.96 -1.22 -13.75 -0.95 -11.5 -0.61 -9.18 -0.24 -6.68 0.13 -3.79 0.33 -0.52 0.07 2.79 -1.21 4.95 -3.64 4.29 -5.42 1.94 -4.35 0.32 -1.26 -0.08 2.08 0.12 4.91 0.54 7.25 0.92 9.33 1.22 11.21 1.38 13.02 1.4 14.74 1.3 16.46 1.09 18.22 0.74 20 0.27 21.78 0 0zm0 0c0,22.58 -18.32,40.9 -40.9,40.9 -22.58,0 -40.9,-18.32 -40.9,-40.9l81.8 0z"/>
    <path id="1" class="fil12" d="M318.76 2476.56c76.05,199.11 363.57,219.28 414.25,332.32 99.21,221.27 -306.73,475.11 -565.06,-177.17l-57.18 12.08c-0.54,-50.46 0.46,-97.35 0.9,-144.45 0.81,-85.1 -16.22,-31.5 -20,-112.43 72.07,9.94 25.74,21.17 112.06,22.03 47.54,0.48 97.48,-1.28 145.52,-1.28 -12.36,57.08 1.03,35.42 -30.49,68.9zm-255.23 36.73l0 178.54 79.95 3.02c179.26,457.21 520,461.49 622.52,297.64 38.22,-61.09 38.22,-157.17 1.72,-218.32 -60.63,-101.59 -173.65,-90.85 -331.02,-218.89 -93.87,-76.38 -41.83,-65.9 -40.12,-193.07 -428.12,0 -333.05,-80.29 -333.05,151.08z"/>
   </g>
  </g>
  <path class="fil13" d="M4456.94 2873.58c12.28,16.3 20.48,32.68 36.48,39.99 15.14,-6.94 61.12,-64.97 64.77,-91.16l-40.81 -3.3c-1.97,-101.47 -0.99,-117.28 -106.89,-118.18 -16.8,-0.14 -45.42,-3.55 -54.39,5.47 -6.86,6.9 -9.66,31.17 3.49,39.26 26.22,16.12 80.65,-3.74 105.45,7.56 7.61,17.23 4.88,42.27 4.34,65.04l-40.55 5.92c3.14,22.28 14.5,31.33 28.11,49.4z"/>
  <path class="fil13" d="M4280.37 2701.56c-15.11,6.93 -61.13,64.99 -64.75,91.12l40.8 3.33c1.39,71.99 -4.6,118.04 77.21,118.04 72.64,0 95.68,9.26 89.64,-29.01 -3.67,-23.25 -8.6,-18.8 -35.65,-18.91 -94.84,-0.39 -85.05,19.72 -83.2,-69.27l40.55 -5.92c-3.39,-23.73 -49.49,-82.46 -64.6,-89.38z"/>
  <path class="fil14" d="M3847.61 2801.64c6.95,16.51 109.59,99.57 118.12,98.51 18.47,-2.28 11.4,-32.46 11.94,-56.71 109.67,2.89 84.75,56.68 126.19,70.64 16.32,-53.19 -15.09,-141.37 -126.27,-153.97 -0.43,-24.97 7.94,-60.39 -15.37,-56.65l-79.29 62.94c-17.17,15.17 -27.52,16.72 -35.32,35.24z"/>
  <g>
   <path class="fil6 str0" d="M4811.49 2722.33c17.92,-30.14 35.85,-45.21 71.69,-45.21 39.58,0 71.69,27.01 71.69,60.29 0,60.28 -71.69,120.57 -143.38,180.86 -71.69,-60.29 -143.38,-120.58 -143.38,-180.86 0,-33.28 32.12,-60.29 71.69,-60.29 35.85,0 53.77,15.07 71.69,45.21z"/>
   <path id="1" class="fil15" d="M4811.49 2722.33c17.92,-30.14 35.85,-45.21 71.69,-45.21 39.58,0 71.69,27.01 71.69,60.29 0,60.28 -71.69,120.57 -143.38,180.86 -71.69,-60.29 -143.38,-120.58 -143.38,-180.86 0,-33.28 32.12,-60.29 71.69,-60.29 35.85,0 53.77,15.07 71.69,45.21z"/>
  </g>
  <g>
   <g>
    <path class="fil16" d="M4995.37 1748.77l-163.62 -92.22 0 0.01 2.7 -5.08 2.31 -4.88 1.88 -4.52 1.51 -4.29 1.24 -4.16 0.94 -3.88 0.68 -3.74 0.46 -3.6 0.25 -3.49 0.07 -3.41 -0.13 -3.31 -0.32 -3.41 -0.49 -3.37 -0.68 -3.41 -0.89 -3.49 -1.09 -3.51 -1.34 -3.68 -1.56 -3.73 -1.84 -3.84 -2.12 -3.99 -2.34 -3.97 -2.67 -4.12 -2.92 -4.15 -3.24 -4.2 -3.55 -4.29 -3.84 -4.29 -4.12 -4.31 -4.39 -4.28 -4.73 -4.3 -4.99 -4.28 -5.21 -4.18 -5.52 -4.15 110.82 -151.64 9.98 7.53 9.77 7.84 9.47 8.1 9.19 8.38 8.97 8.74 8.64 9.01 8.32 9.33 7.97 9.61 7.66 9.98 7.28 10.31 6.87 10.6 6.48 11.01 5.96 11.23 5.52 11.6 5 11.93 4.46 12.2 3.89 12.59 3.25 12.79 2.62 13.05 1.93 13.27 1.22 13.39 0.51 13.65 -0.25 13.69 -0.99 13.75 -1.78 13.78 -2.52 13.74 -3.3 13.72 -4.02 13.54 -4.79 13.49 -5.52 13.34 -6.17 13.04 -6.88 12.92 0 0.01zm0 -0.01c-25.46,45.18 -82.73,61.17 -127.91,35.71 -45.18,-25.46 -61.17,-82.73 -35.71,-127.91l163.62 92.2zm-189.73 233.42l-73.76 -172.72 -22.81 13.87 -1.86 1.61 0.34 -0.35 1.65 -1.73 2.42 -2.68 3.17 -3.64 3.67 -4.32 4.06 -4.93 4.47 -5.52 4.7 -5.89 4.97 -6.34 5.18 -6.66 5.27 -6.88 5.41 -7.14 5.53 -7.37 5.59 -7.49 5.56 -7.53 5.54 -7.56 5.51 -7.58 5.44 -7.53 5.3 -7.39 5.15 -7.23 4.97 -7.05 4.75 -6.79 4.52 -6.51 4.22 -6.14 3.89 -5.72 3.52 -5.24 3.14 -4.74 2.65 -4.07 2.02 -3.2 1.43 -2.31 0.5 -0.86 163.62 92.22 -3.1 5.3 -3.11 5.09 -3.4 5.36 -3.61 5.53 -3.86 5.86 -4.2 6.24 -4.45 6.56 -4.74 6.88 -4.94 7.13 -5.19 7.41 -5.39 7.63 -5.55 7.81 -5.7 7.95 -5.8 8.03 -5.89 8.1 -5.98 8.16 -6.02 8.13 -5.99 8.05 -5.99 7.97 -5.97 7.88 -5.95 7.76 -5.82 7.5 -5.71 7.28 -5.64 7.07 -5.45 6.72 -5.38 6.51 -5.25 6.2 -5.15 5.92 -5.26 5.8 -5.33 5.59 -5.86 5.75 -7.24 6.37 -22.81 13.87zm22.81 -13.87c-40.03,32.96 -99.22,27.23 -132.18,-12.8 -32.96,-40.03 -27.23,-99.22 12.8,-132.18l119.38 144.98zm-447.18 -456.89l162.16 94.76 0 0 -8.88 16.86 -5.82 14.3 -3.35 11.82 -1.49 9.56 -0.19 7.73 0.72 6.48 1.52 5.98 2.42 6.09 3.56 6.5 4.94 7.07 6.52 7.59 8.16 7.97 9.76 8.16 11.21 8.17 12.47 8.01 13.57 7.74 14.44 7.39 15.03 6.94 15.45 6.47 15.64 5.95 15.55 5.42 15.24 4.86 14.76 4.3 14 3.75 13.02 3.18 11.86 2.64 10.38 2.11 8.53 1.54 6.44 1 3.47 0.45 -2.11 -0.12 -38.37 7.37 73.76 172.72 -42.53 7.59 -11.09 -0.84 -9.95 -1.27 -11.06 -1.74 -12.61 -2.28 -14.08 -2.85 -15.48 -3.46 -16.84 -4.12 -17.98 -4.81 -18.98 -5.54 -19.84 -6.32 -20.49 -7.14 -20.98 -8.01 -21.39 -8.95 -21.59 -9.98 -21.62 -11.09 -21.51 -12.3 -21.27 -13.67 -20.79 -15.19 -20.12 -16.9 -19.22 -18.85 -17.96 -21.03 -16.24 -23.39 -13.96 -25.84 -11.04 -28.19 -7.52 -30.24 -3.46 -31.76 0.83 -32.57 5.13 -32.84 9.25 -32.7 13.16 -32.42 16.86 -32.06 0 0zm0 0c26.16,-44.77 83.69,-59.86 128.46,-33.7 44.77,26.16 59.86,83.69 33.7,128.46l-162.16 -94.76zm165.5 -84.13l162.86 93.54 -68.97 46.31 -6.42 0.87 -6.21 0.87 -5.88 0.85 -5.69 0.88 -5.43 0.89 -5.16 0.91 -4.95 0.92 -4.58 0.93 -4.32 0.96 -4.1 0.99 -3.75 0.98 -3.52 1.01 -3.23 1.01 -2.99 1.03 -2.69 1.01 -2.44 1.01 -2.3 1.04 -1.93 0.95 -1.87 1.01 -1.7 1 -1.51 0.99 -1.48 1.03 -1.4 1.08 -1.41 1.18 -1.32 1.21 -1.37 1.37 -1.43 1.55 -1.48 1.74 -1.58 2.03 -1.61 2.23 -1.7 2.58 -1.78 2.93 -162.16 -94.76 5.34 -8.77 5.64 -8.52 5.93 -8.27 6.2 -7.93 6.48 -7.66 6.77 -7.33 7.01 -6.99 7.3 -6.67 7.41 -6.22 7.62 -5.88 7.76 -5.49 7.93 -5.13 7.96 -4.7 7.99 -4.35 8.15 -4.03 7.98 -3.6 8.04 -3.33 8.01 -3.01 7.91 -2.73 7.87 -2.47 7.8 -2.25 7.77 -2.04 7.62 -1.83 7.6 -1.68 7.54 -1.53 7.39 -1.4 7.38 -1.29 7.31 -1.19 7.25 -1.12 7.26 -1.07 7.13 -0.99 7.12 -0.97 -68.97 46.31zm68.97 -46.31c51.4,-6.88 98.66,29.22 105.54,80.62 6.88,51.4 -29.22,98.66 -80.62,105.54l-24.92 -186.16zm54.56 -83.96l77.38 171.14 0 0 -2.82 1.31 -2.46 1.23 -2.09 1.11 -1.68 0.97 -1.33 0.81 -1.03 0.68 -0.88 0.63 -0.51 0.38 -0.38 0.32 -0.29 0.26 -0.13 0.12 -0.07 0.07 -0.11 0.14 -0.15 0.17 -0.18 0.24 -0.34 0.46 -0.37 0.54 -0.52 0.81 -0.68 1.11 -0.78 1.32 -0.94 1.68 -1.06 1.96 -1.21 2.29 -1.41 2.72 -1.5 2.91 -1.58 3.11 -1.88 3.69 -1.98 3.82 -2.12 4.07 -2.37 4.41 -2.49 4.53 -2.71 4.8 -162.86 -93.54 1.47 -2.6 1.49 -2.73 1.45 -2.71 1.52 -2.91 1.56 -3 1.54 -3.03 1.76 -3.45 1.82 -3.55 1.87 -3.6 2.07 -3.93 2.26 -4.14 2.42 -4.3 2.68 -4.58 2.88 -4.67 3.16 -4.87 3.49 -5.06 3.7 -5.04 4.06 -5.18 4.35 -5.17 4.63 -5.12 4.97 -5.11 5.23 -5 5.41 -4.78 5.68 -4.68 5.95 -4.54 6 -4.25 6.29 -4.16 6.47 -3.97 6.6 -3.77 6.73 -3.59 6.9 -3.45 7.12 -3.33 0 0zm0 0c47.25,-21.36 102.9,-0.37 124.26,46.88 21.36,47.25 0.37,102.9 -46.88,124.26l-77.38 -171.14zm280.64 26.97l-185.26 30.82 104.15 77.79 -2.59 0.34 -2.88 0.43 -3.06 0.49 -3.32 0.58 -3.53 0.66 -3.62 0.72 -3.82 0.8 -4.01 0.88 -3.95 0.9 -4.19 1 -4.28 1.05 -4.19 1.08 -4.33 1.14 -4.36 1.19 -4.42 1.24 -4.41 1.27 -4.39 1.3 -4.44 1.35 -4.38 1.36 -4.33 1.39 -4.28 1.39 -4.14 1.39 -4.13 1.43 -4.01 1.42 -3.97 1.44 -3.79 1.4 -3.68 1.42 -3.57 1.39 -3.21 1.3 -3.16 1.32 -3.04 1.3 -2.67 1.19 -77.38 -171.14 4.95 -2.19 4.88 -2.1 5.02 -2.1 5.25 -2.12 5.13 -2.01 5.24 -2 5.33 -1.98 5.33 -1.94 5.45 -1.92 5.49 -1.89 5.62 -1.89 5.58 -1.83 5.61 -1.79 5.66 -1.76 5.62 -1.71 5.73 -1.7 5.73 -1.65 5.7 -1.6 5.76 -1.57 5.75 -1.52 5.81 -1.48 5.68 -1.39 5.65 -1.36 5.79 -1.32 5.59 -1.22 5.62 -1.18 5.66 -1.12 5.57 -1.04 5.58 -0.98 5.6 -0.91 5.54 -0.81 5.57 -0.74 104.15 77.79zm-104.15 -77.79c51.47,-6.36 98.36,30.21 104.72,81.68 6.36,51.47 -30.21,98.36 -81.68,104.72l-23.04 -186.4zm100.35 183.25l-179.22 -56.16 -1.7 6.13 0.48 -2.03 0.45 -1.89 0.31 -1.39 0.29 -1.33 0.27 -1.32 0.17 -0.85 0.1 -0.57 0.11 -0.62 0.02 -0.11 -0.02 0.13 0 0.04 -0.02 0.23 -0.03 0.33 -0.02 0.46 -0.02 0.52 -0.01 0.22 0.01 0.49 0.01 0.42 0 0.02 0.01 0.16 -0.03 -0.28 -0.04 -0.45 -0.08 -0.66 -0.1 -0.87 -0.16 -1.1 -0.2 -1.48 -0.22 -1.46 -0.3 -1.92 -0.31 -1.93 -0.34 -2.1 -0.44 -2.64 -0.43 -2.63 185.26 -30.82 0.47 2.85 0.42 2.54 0.48 2.86 0.43 2.77 0.4 2.56 0.42 2.8 0.38 2.62 0.38 2.82 0.36 2.89 0.34 2.96 0.3 3.05 0.27 3.12 0.23 3.48 0.16 3.26 0.11 3.62 0.03 3.65 -0.05 3.36 -0.12 3.66 -0.2 3.6 -0.27 3.53 -0.34 3.47 -0.38 3.34 -0.48 3.53 -0.52 3.37 -0.51 3 -0.58 3.17 -0.61 3.05 -0.57 2.74 -0.63 2.93 -0.69 3.05 -0.65 2.79 -0.68 2.89 -1.7 6.13zm1.7 -6.13c-12.12,50.42 -62.84,81.48 -113.26,69.36 -50.42,-12.12 -81.48,-62.84 -69.36,-113.26l182.62 43.9zm-197.23 2.03l16.31 -52.06 179.22 56.16 -16.31 52.06 -145.02 47.74 -34.2 -103.9zm179.22 56.16c-15.5,49.49 -68.19,77.03 -117.68,61.53 -49.49,-15.5 -77.04,-68.2 -61.54,-117.69l179.22 56.16zm-433.34 219.34l-177.32 61.92 0 0 -5.42 -16.87 -4.54 -17 -3.62 -17.11 -2.71 -17.22 -1.77 -17.25 -0.81 -17.25 0.16 -17.25 1.14 -17.17 2.12 -17.04 3.11 -16.89 4.11 -16.69 5.11 -16.44 6.08 -16.11 7.04 -15.73 8 -15.33 8.89 -14.82 9.84 -14.39 10.68 -13.79 11.5 -13.22 12.32 -12.61 13.09 -11.98 13.82 -11.3 14.5 -10.62 15.2 -9.94 15.82 -9.23 16.44 -8.52 17 -7.79 17.61 -7.09 18.14 -6.35 18.66 -5.62 19.21 -4.9 19.69 -4.16 35.12 184.5 -12.23 2.58 -11.51 2.94 -10.86 3.28 -10.16 3.55 -9.51 3.83 -8.88 4.07 -8.24 4.26 -7.6 4.43 -7 4.58 -6.46 4.74 -5.9 4.82 -5.35 4.9 -4.88 4.99 -4.42 5.08 -3.98 5.13 -3.52 5.17 -3.19 5.32 -2.8 5.35 -2.44 5.47 -2.12 5.57 -1.75 5.68 -1.45 5.87 -1.11 6.03 -0.78 6.22 -0.42 6.41 -0.06 6.61 0.33 6.85 0.71 7.05 1.15 7.28 1.6 7.51 2.06 7.74 2.56 7.95 0 0zm0 0c17.09,48.96 -8.74,102.53 -57.7,119.62 -48.96,17.09 -102.53,-8.74 -119.62,-57.7l177.32 -61.92zm243.21 136.75l-57.3 178.86 0.01 0 -10.81 -3.44 -11.07 -3.49 -11.38 -3.59 -11.56 -3.66 -11.84 -3.78 -12.04 -3.93 -12.14 -4.04 -12.34 -4.22 -12.47 -4.41 -12.53 -4.6 -12.62 -4.83 -12.72 -5.1 -12.78 -5.4 -12.76 -5.7 -12.71 -6.01 -12.74 -6.41 -12.72 -6.84 -12.61 -7.26 -12.51 -7.75 -12.4 -8.29 -12.18 -8.84 -11.96 -9.41 -11.75 -10.1 -11.42 -10.78 -11 -11.46 -10.55 -12.17 -10.05 -12.95 -9.42 -13.65 -8.75 -14.4 -7.99 -15.11 -7.16 -15.74 -6.26 -16.33 177.32 -61.92 2.22 5.79 2.46 5.42 2.73 5.15 3.03 4.96 3.36 4.87 3.69 4.75 4.09 4.71 4.5 4.68 4.9 4.62 5.35 4.6 5.86 4.61 6.3 4.56 6.72 4.49 7.19 4.45 7.63 4.4 8 4.3 8.44 4.23 8.85 4.19 9.14 4.08 9.42 3.98 9.74 3.9 10.06 3.85 10.29 3.78 10.47 3.71 10.66 3.64 10.88 3.62 10.96 3.57 11.08 3.54 11.24 3.56 11.26 3.55 11.33 3.57 11.35 3.62 0.01 0zm-0.01 0c49.39,15.81 76.6,68.68 60.79,118.07 -15.81,49.39 -68.68,76.6 -118.07,60.79l57.28 -178.86zm46.57 -55.22l152.16 110.1 0 0 -3.03 4.25 -3.14 4.51 -3.23 4.73 -3.38 4.98 -3.51 5.19 -3.63 5.36 -3.88 5.66 -4.12 5.87 -4.32 6.01 -4.63 6.2 -4.93 6.33 -5.31 6.47 -5.77 6.61 -6.24 6.65 -6.76 6.67 -7.36 6.63 -8.04 6.56 -8.72 6.33 -9.45 6.04 -10.16 5.6 -10.84 5.05 -11.4 4.35 -11.87 3.57 -12.3 2.73 -12.5 1.84 -12.73 0.94 -12.72 0.04 -12.56 -0.77 -12.5 -1.56 -12.49 -2.3 -12.33 -2.97 -12.17 -3.59 57.3 -178.86 3.65 1.07 2.79 0.69 1.97 0.36 1.34 0.16 0.66 0.05 -0.08 0 -0.63 0.04 -0.92 0.14 -1.22 0.27 -1.27 0.37 -1.22 0.47 -1.08 0.49 -0.76 0.42 -0.43 0.26 -0.02 0.01 0.36 -0.3 0.78 -0.71 1.12 -1.11 1.44 -1.55 1.73 -1.99 2.01 -2.45 2.27 -2.91 2.47 -3.32 2.7 -3.75 2.86 -4.09 3.06 -4.48 3.33 -4.9 3.49 -5.17 3.7 -5.46 3.93 -5.73 4.14 -5.93 4.39 -6.17 0 0zm0 0c30.4,-42.01 89.12,-51.43 131.13,-21.03 42.01,30.4 51.43,89.12 21.03,131.13l-152.16 -110.1zm67.34 -239.58l146.94 -116.96 0 -0.01 12.93 17.26 11.65 17.72 10.26 18.07 8.86 18.36 7.44 18.67 6 18.83 4.54 18.86 3.14 18.88 1.74 18.69 0.44 18.39 -0.78 18.03 -1.87 17.52 -2.87 17.11 -3.75 16.51 -4.5 15.94 -5.18 15.41 -5.73 14.87 -6.2 14.31 -6.57 13.79 -6.89 13.3 -7.14 12.84 -7.32 12.4 -7.44 11.96 -7.5 11.53 -7.48 11.09 -7.46 10.74 -7.33 10.29 -7.17 9.91 -6.96 9.49 -6.65 9.03 -6.35 8.65 -5.98 8.2 -152.16 -110.1 6.58 -9.02 6.59 -8.97 6.61 -8.99 6.52 -8.89 6.41 -8.85 6.29 -8.83 6.08 -8.74 5.88 -8.73 5.62 -8.63 5.3 -8.52 4.98 -8.42 4.6 -8.28 4.21 -8.12 3.79 -7.93 3.34 -7.69 2.87 -7.43 2.4 -7.13 1.94 -6.88 1.51 -6.57 1.05 -6.21 0.65 -6.04 0.26 -5.75 -0.14 -5.63 -0.5 -5.53 -0.92 -5.54 -1.38 -5.76 -1.9 -5.99 -2.52 -6.31 -3.28 -6.8 -4.12 -7.27 -5.11 -7.76 -6.27 -8.36 0 -0.01zm0 0.01c-32.3,-40.57 -25.59,-99.66 14.98,-131.96 40.57,-32.3 99.66,-25.59 131.96,14.98l-146.94 116.98zm52.72 -164.06l-55.78 -179.34 113.99 52.19 6.37 15.23 5.53 14.53 4.72 13.91 3.98 13.5 3.23 13.19 2.45 12.93 1.65 12.71 0.84 12.52 -0.01 12.33 -0.86 11.92 -1.62 11.25 -2.18 10.25 -2.47 8.89 -2.38 7.24 -1.99 5.46 -1.22 3.18 -0.37 0.99 0.39 -1.31 0.91 -3.73 0.83 -5.32 0.36 -6.49 -0.34 -6.54 -0.89 -5.57 -1.08 -4.09 -0.79 -2.21 -0.16 -0.38 0.68 1.3 1.72 2.9 2.89 4.43 4.03 5.77 5.26 7.06 6.53 8.39 -146.94 116.96 -8.95 -11.47 -8.14 -10.96 -7.39 -10.57 -6.71 -10.33 -6.18 -10.44 -5.64 -10.76 -5.02 -11.26 -4.35 -12.07 -3.44 -13.05 -2.19 -13.75 -0.72 -14.12 0.8 -13.57 1.93 -12.04 2.55 -10.21 2.47 -7.71 1.97 -5.45 1.3 -3.42 0.55 -1.46 0.06 -0.12 -0.25 0.95 -0.32 1.61 -0.24 1.75 -0.1 1.46 0.01 0.77 -0.02 -0.3 -0.19 -1.47 -0.53 -2.77 -1.01 -4.17 -1.66 -5.62 -2.42 -7.11 -3.25 -8.55 -4.19 -10.03 113.99 52.19zm-113.99 -52.19c-20.69,-47.55 1.07,-102.89 48.62,-123.58 47.55,-20.69 102.89,1.07 123.58,48.62l-172.2 74.96zm-167.63 203.03l-35.12 -184.5 -69.72 57.61 5.89 -13.78 6.58 -13.32 7.23 -12.8 7.95 -12.34 8.55 -11.68 9.09 -11.01 9.61 -10.34 10.06 -9.66 10.43 -8.95 10.68 -8.22 10.86 -7.54 10.98 -6.87 11.07 -6.3 11.18 -5.78 11.17 -5.28 11.12 -4.82 11.08 -4.45 11.16 -4.16 11.08 -3.86 11.03 -3.63 11.1 -3.46 11.06 -3.3 11.04 -3.19 11.07 -3.11 11.09 -3.06 11.1 -3.05 11.1 -3.04 11.17 -3.1 11.21 -3.14 11.25 -3.24 11.31 -3.34 11.38 -3.47 55.78 179.34 -13.12 4.01 -12.79 3.78 -12.47 3.58 -12.09 3.4 -11.71 3.24 -11.36 3.12 -10.94 2.99 -10.49 2.9 -10.05 2.83 -9.62 2.77 -9.12 2.72 -8.58 2.68 -8.17 2.69 -7.62 2.64 -7.02 2.62 -6.56 2.63 -6 2.6 -5.39 2.54 -4.84 2.5 -4.37 2.48 -3.88 2.43 -3.42 2.36 -3.02 2.32 -2.65 2.27 -2.4 2.3 -2.21 2.38 -2.11 2.55 -2.01 2.74 -1.95 3.02 -1.99 3.52 -1.98 4 -1.97 4.62 -69.72 57.61zm69.72 -57.61c-19.13,48.2 -73.72,71.77 -121.92,52.64 -48.2,-19.13 -71.77,-73.72 -52.64,-121.92l174.56 69.28z"/>
    <path id="1" class="fil12" d="M4841.22 1453.43c83.95,61.35 126.49,153.13 72.34,249.23 -16.6,29.45 -118.41,171.43 -144.8,193.16 -8.57,3.66 -462.41,-70.06 -306.41,-337.02 37.42,-64.04 93.08,-75 165.85,-84.74 22.92,-39.91 26.2,-66.79 80.79,-91.47 39.81,-18 106.53,-37.9 149.32,-43.19 4.98,29.94 5.68,35.1 -0.78,61.97l-16.31 52.06zm-233.08 -16.09c-173.36,33 -245.57,161.99 -199.31,294.47 42.09,120.54 185.86,157.63 303.22,195.22 86.24,27.63 111.23,-34.24 151.29,-89.6 65.7,-90.81 173.84,-216.06 64.73,-353.11 -88.38,-111.03 12.63,-54.5 -48.64,-195.24 -131.64,40.94 -231.19,47.23 -271.29,148.26z"/>
   </g>
   <path class="fil17" d="M4628.2 1474.06l1.43 12.87 7.4 49.84c95.94,-29.83 125.68,-34.51 204.19,-83.34l16.31 -52.06c6.46,-26.87 5.76,-32.03 0.78,-61.97 -42.79,5.29 -109.51,25.19 -149.32,43.19 -54.59,24.68 -57.87,51.56 -80.79,91.47z"/>
   <path class="fil18" d="M4637.03 1536.77l-7.4 -49.84c-42.48,33.97 -97.3,161.44 -27.86,193.47 33.33,-48.96 -25.59,-82.87 35.26,-143.63z"/>
   <path class="fil19" d="M4841.22 1453.43c-78.51,48.83 -108.25,53.51 -204.19,83.34 -60.85,60.76 -1.93,94.67 -35.26,143.63 -69.44,-32.03 -14.62,-159.5 27.86,-193.47l-1.43 -12.87c-72.77,9.74 -128.43,20.7 -165.85,84.74 -156,266.96 297.84,340.68 306.41,337.02 26.39,-21.73 128.2,-163.71 144.8,-193.16 54.15,-96.1 11.61,-187.88 -72.34,-249.23z"/>
  </g>
  <g>
   <path class="fil20" d="M439.2 462.04c39.51,48.52 41.77,0.63 117.27,14.07 28.43,5.06 86.41,43.84 90.35,-0.61 4.63,-52.38 -162.09,-84.72 -207.62,-13.46z"/>
   <path class="fil20" d="M198.84 646.54c52.46,-24.98 30.5,-34.88 65.59,-71.89 45.55,-48.05 65.41,-16.85 77.4,-78.76 -45.74,-14.73 -79.61,5.79 -119.38,46.23 -41.8,42.51 -55.58,61.06 -23.61,104.42z"/>
   <g>
    <path class="fil11" d="M692.5 1004.72l-38 -51.76 0 0 28.82 -23.39 24.76 -24.66 20.95 -25.76 17.34 -26.7 13.9 -27.5 10.63 -28.15 7.5 -28.68 4.49 -29.07 1.61 -29.28 -1.21 -29.32 -3.9 -29.17 -6.49 -28.82 -8.98 -28.25 -11.34 -27.46 -13.61 -26.46 -15.7 -25.24 -17.7 -23.81 -19.52 -22.15 -21.21 -20.3 -22.75 -18.25 -24.17 -16 -25.42 -13.6 -26.56 -11.02 -27.56 -8.27 -28.51 -5.35 -29.35 -2.29 -30.17 0.99 -30.94 4.46 -31.64 8.17 -32.32 12.14 -32.93 16.39 -33.44 20.93 -36.54 -52.78 38.52 -24.11 38.67 -19.25 38.62 -14.52 38.38 -9.91 37.92 -5.46 37.25 -1.23 36.37 2.81 35.25 6.63 33.96 10.17 32.48 13.46 30.86 16.5 29.11 19.28 27.23 21.83 25.21 24.12 23.1 26.21 20.86 28.07 18.5 29.72 16.01 31.16 13.4 32.42 10.62 33.45 7.73 34.3 4.66 34.91 1.45 35.34 -1.95 35.52 -5.49 35.45 -9.2 35.14 -13.05 34.53 -17.02 33.66 -21.1 32.48 -25.23 31.04 -29.46 29.32 -33.7 27.37 0 0zm0 0c-14.29,10.49 -34.39,7.41 -44.88,-6.88 -10.49,-14.29 -7.41,-34.39 6.88,-44.88l38 51.76zm-439.96 -620.41l36.54 52.78 0 0 -32.19 24.59 -27.59 25.74 -23.24 26.69 -19.14 27.49 -15.29 28.13 -11.63 28.63 -8.18 29.01 -4.88 29.28 -1.73 29.42 1.29 29.39 4.19 29.2 6.98 28.8 9.63 28.21 12.16 27.41 14.53 26.39 16.76 25.14 18.83 23.69 20.74 22.02 22.47 20.14 24.03 18.07 25.42 15.78 26.64 13.34 27.71 10.71 28.61 7.91 29.4 4.96 30.06 1.83 30.64 -1.47 31.14 -4.97 31.58 -8.69 31.92 -12.65 32.19 -16.89 32.37 -21.43 38 51.76 -37.61 24.89 -38.09 19.99 -38.34 15.19 -38.36 10.57 -38.14 6.09 -37.68 1.81 -36.96 -2.25 -36.02 -6.06 -34.85 -9.63 -33.53 -12.95 -32.02 -16.02 -30.34 -18.84 -28.53 -21.43 -26.55 -23.8 -24.44 -25.96 -22.17 -27.89 -19.76 -29.64 -17.17 -31.19 -14.42 -32.53 -11.49 -33.67 -8.38 -34.62 -5.07 -35.36 -1.57 -35.85 2.13 -36.12 6.04 -36.12 10.1 -35.85 14.35 -35.27 18.69 -34.39 23.16 -33.25 27.72 -31.83 32.33 -30.16 37.01 -28.27 0 0zm0 0c14.57,-10.09 34.57,-6.45 44.66,8.12 10.09,14.57 6.45,34.57 -8.12,44.66l-36.54 -52.78zm375.82 642l27.86 57.84 0 0 -21.55 9.71 -21.71 8.48 -21.83 7.27 -21.91 6.06 -21.96 4.87 -21.94 3.72 -21.9 2.57 -21.81 1.45 -21.71 0.36 -21.54 -0.72 -21.34 -1.77 -21.13 -2.8 -20.86 -3.81 -20.56 -4.79 -20.21 -5.77 -19.85 -6.69 -19.44 -7.62 -18.99 -8.52 -18.54 -9.38 -18.01 -10.26 -17.47 -11.07 -16.9 -11.9 -16.27 -12.68 -15.64 -13.46 -14.95 -14.22 -14.22 -14.94 -13.47 -15.65 -12.68 -16.35 -11.84 -17.02 -10.96 -17.65 -10.08 -18.29 -9.1 -18.88 58.54 -26.34 7.62 15.78 8.42 15.29 9.2 14.81 9.94 14.28 10.66 13.75 11.35 13.19 12 12.62 12.65 12.02 13.24 11.4 13.81 10.76 14.36 10.1 14.87 9.43 15.33 8.72 15.78 8 16.21 7.26 16.56 6.5 16.93 5.71 17.25 4.91 17.52 4.09 17.78 3.25 18.01 2.38 18.2 1.51 18.36 0.62 18.49 -0.3 18.61 -1.25 18.68 -2.19 18.72 -3.16 18.74 -4.17 18.73 -5.18 18.71 -6.23 18.67 -7.28 18.57 -8.37 0 0zm0 0c15.97,-7.69 35.16,-0.98 42.85,14.99 7.69,15.97 0.98,35.16 -14.99,42.85l-27.86 -57.84zm165.75 -496.35l57.78 -27.98 0 0 9.77 21.56 8.51 21.71 7.3 21.82 6.08 21.89 4.89 21.93 3.72 21.91 2.58 21.87 1.46 21.79 0.36 21.66 -0.71 21.51 -1.77 21.31 -2.79 21.08 -3.8 20.82 -4.76 20.52 -5.72 20.19 -6.66 19.83 -7.55 19.42 -8.43 19 -9.3 18.54 -10.14 18.04 -10.94 17.51 -11.73 16.95 -12.5 16.37 -13.26 15.73 -13.97 15.07 -14.69 14.39 -15.36 13.65 -16.02 12.89 -16.67 12.09 -17.27 11.25 -17.87 10.39 -18.43 9.48 -27.86 -57.84 15.47 -7.96 15.03 -8.73 14.55 -9.49 14.07 -10.21 13.54 -10.89 13.02 -11.57 12.47 -12.21 11.89 -12.83 11.28 -13.39 10.66 -13.95 10.01 -14.47 9.36 -14.97 8.66 -15.42 7.94 -15.84 7.21 -16.24 6.47 -16.62 5.68 -16.93 4.88 -17.25 4.08 -17.52 3.24 -17.76 2.37 -17.98 1.51 -18.17 0.61 -18.33 -0.3 -18.44 -1.24 -18.55 -2.2 -18.63 -3.18 -18.69 -4.17 -18.71 -5.2 -18.71 -6.24 -18.68 -7.31 -18.65 -8.41 -18.56 0 0zm0 0c-7.72,-15.95 -1.05,-35.16 14.9,-42.88 15.95,-7.72 35.16,-1.05 42.88,14.9l-57.78 27.98zm-659.72 328.1l-58.54 26.34 0 0 -19.22 -48.54 -13.74 -47.66 -8.47 -46.62 -3.39 -45.39 1.44 -43.97 6.01 -42.36 10.32 -40.55 14.31 -38.58 18 -36.44 21.37 -34.16 24.44 -31.77 27.19 -29.25 29.64 -26.67 31.85 -23.98 33.74 -21.18 35.38 -18.31 36.75 -15.32 37.88 -12.25 38.74 -9.03 39.34 -5.73 39.68 -2.27 39.77 1.3 39.57 5.02 39.08 8.86 38.28 12.87 37.17 16.96 35.71 21.2 33.93 25.49 31.79 29.85 29.35 34.26 26.58 38.69 23.55 43.11 -57.78 27.98 -20.51 -37.55 -22.8 -33.17 -24.85 -29.02 -26.69 -25.05 -28.31 -21.27 -29.75 -17.64 -30.99 -14.14 -32.04 -10.75 -32.88 -7.46 -33.49 -4.24 -33.89 -1.1 -34.02 1.95 -33.88 4.93 -33.48 7.81 -32.82 10.61 -31.87 13.28 -30.66 15.87 -29.18 18.32 -27.43 20.66 -25.44 22.87 -23.21 24.97 -20.72 26.93 -18.03 28.8 -15.1 30.56 -11.97 32.26 -8.62 33.89 -5.05 35.46 -1.22 37.05 2.89 38.57 7.27 40.1 12 41.58 17.02 43.02 0 0zm0 0c7.27,16.16 0.06,35.17 -16.1,42.44 -16.16,7.27 -35.17,0.06 -42.44,-16.1l58.54 -26.34z"/>
    <path id="1" class="fil12" d="M270.81 410.7c384.37,-266.1 758.7,306.79 402.69,568.14 -371.81,272.93 -797.13,-295.07 -402.69,-568.14zm-165.69 460.53c84.44,187.66 323.93,286.73 537.17,184 183.47,-88.38 283.97,-325.94 180.71,-539.26 -219.77,-454.02 -940.2,-138.82 -717.88,355.26z"/>
   </g>
   <path class="fil12" d="M553.06 931.42c105.34,-36.63 178.61,-117.27 156.32,-204.74 -107.17,29.95 36.58,72.62 -187.73,160.65 -77.6,30.46 -45.92,13.92 -43.6,61.98l75.01 -17.89z"/>
   <path class="fil12" d="M263.71 764.58c14.65,-35.27 14.86,-57.88 59.79,-84.54l51.4 98.97 44.54 -26.72c12.77,-193.82 -253.33,-81.29 -155.73,12.29z"/>
   <path class="fil12" d="M515.22 678.57c45.02,-47.2 -16.47,-41.19 70.17,-89.69l49.61 100.69 44.79 -28.7c1.81,-160.73 -211.61,-137.53 -164.57,17.7z"/>
   <path class="fil0" d="M553.06 931.42l-75.01 17.89c-2.32,-48.06 -34,-31.52 43.6,-61.98 224.31,-88.03 80.56,-130.7 187.73,-160.65 22.29,87.47 -50.98,168.11 -156.32,204.74zm-37.84 -252.85c-47.04,-155.23 166.38,-178.43 164.57,-17.7l-44.79 28.7 -49.61 -100.69c-86.64,48.5 -25.15,42.49 -70.17,89.69zm-251.51 86.01c-97.6,-93.58 168.5,-206.11 155.73,-12.29l-44.54 26.72 -51.4 -98.97c-44.93,26.66 -45.14,49.27 -59.79,84.54zm-64.87 -118.04c-31.97,-43.36 -18.19,-61.91 23.61,-104.42 39.77,-40.44 73.64,-60.96 119.38,-46.23 -11.99,61.91 -31.85,30.71 -77.4,78.76 -35.09,37.01 -13.13,46.91 -65.59,71.89zm240.36 -184.5c45.53,-71.26 212.25,-38.92 207.62,13.46 -3.94,44.45 -61.92,5.67 -90.35,0.61 -75.5,-13.44 -77.76,34.45 -117.27,-14.07zm-168.39 -51.34c-394.44,273.07 30.88,841.07 402.69,568.14 356.01,-261.35 -18.32,-834.24 -402.69,-568.14z"/>
  </g>
  <path class="fil2" d="M574.18 2321.71c-17.27,0 -33.15,-2.55 -47.77,-7.65 -14.61,-5.1 -27.15,-12.7 -37.61,-22.79 -10.52,-10.04 -18.65,-22.64 -24.39,-37.73 -5.79,-15.09 -8.66,-32.51 -8.66,-52.28 0,-18.38 2.76,-35.06 8.23,-50.05 5.53,-14.98 13.55,-27.84 24.02,-38.52 10.1,-10.31 22.58,-18.28 37.46,-23.85 14.93,-5.64 31.19,-8.45 48.88,-8.45 9.72,0 18.54,0.53 26.41,1.64 7.81,1.07 15.09,2.5 21.73,4.26 6.96,2.01 13.23,4.19 18.91,6.64 5.69,2.44 10.63,4.67 14.88,6.8l0 56.21 -6.86 0c-2.92,-2.5 -6.58,-5.42 -10.99,-8.82 -4.41,-3.4 -9.41,-6.75 -15.04,-10.04 -5.69,-3.29 -11.9,-6.06 -18.54,-8.34 -6.64,-2.29 -13.76,-3.4 -21.31,-3.4 -8.45,0 -16.42,1.33 -24.01,3.98 -7.6,2.61 -14.62,7.02 -21.04,13.13 -6.11,5.95 -11.11,13.76 -14.88,23.48 -3.77,9.78 -5.69,21.62 -5.69,35.49 0,14.56 2.08,26.67 6.17,36.45 4.09,9.72 9.24,17.43 15.51,23.01 6.32,5.73 13.39,9.77 21.15,12.22 7.81,2.44 15.51,3.66 23.06,3.66 7.28,0 14.5,-1.06 21.62,-3.24 7.07,-2.12 13.66,-5.05 19.71,-8.77 5.05,-2.97 9.78,-6.11 14.14,-9.51 4.35,-3.4 7.97,-6.32 10.78,-8.76l6.22 0 0 55.36c-5.79,2.55 -11.37,4.99 -16.68,7.28 -5.26,2.28 -10.84,4.25 -16.69,5.9 -7.54,2.18 -14.66,3.82 -21.3,4.99 -6.65,1.12 -15.78,1.7 -27.42,1.7zm314.07 -4.78l-61.85 0 -16.1 -46.86 -85.17 0 -16.15 46.86 -60.46 0 85.48 -231.76 68.76 0 85.49 231.76zm-92.29 -89.26l-28.27 -82.41 -28.27 82.41 56.54 0zm310.77 89.26l-57.65 0 -98.24 -159.08 0 159.08 -54.83 0 0 -231.76 71.46 0 84.43 132.78 0 -132.78 54.83 0 0 231.76zm138.09 4.78c-17.27,0 -33.15,-2.55 -47.77,-7.65 -14.61,-5.1 -27.15,-12.7 -37.61,-22.79 -10.52,-10.04 -18.65,-22.64 -24.39,-37.73 -5.79,-15.09 -8.66,-32.51 -8.66,-52.28 0,-18.38 2.76,-35.06 8.23,-50.05 5.53,-14.98 13.55,-27.84 24.02,-38.52 10.1,-10.31 22.58,-18.28 37.46,-23.85 14.93,-5.64 31.19,-8.45 48.88,-8.45 9.72,0 18.54,0.53 26.41,1.64 7.81,1.07 15.09,2.5 21.73,4.26 6.96,2.01 13.23,4.19 18.91,6.64 5.69,2.44 10.63,4.67 14.88,6.8l0 56.21 -6.86 0c-2.92,-2.5 -6.58,-5.42 -10.99,-8.82 -4.41,-3.4 -9.41,-6.75 -15.04,-10.04 -5.69,-3.29 -11.9,-6.06 -18.54,-8.34 -6.64,-2.29 -13.76,-3.4 -21.31,-3.4 -8.45,0 -16.42,1.33 -24.01,3.98 -7.6,2.61 -14.62,7.02 -21.04,13.13 -6.11,5.95 -11.11,13.76 -14.88,23.48 -3.77,9.78 -5.69,21.62 -5.69,35.49 0,14.56 2.08,26.67 6.17,36.45 4.09,9.72 9.24,17.43 15.51,23.01 6.32,5.73 13.39,9.77 21.15,12.22 7.81,2.44 15.51,3.66 23.06,3.66 7.28,0 14.5,-1.06 21.62,-3.24 7.07,-2.12 13.66,-5.05 19.71,-8.77 5.05,-2.97 9.78,-6.11 14.14,-9.51 4.35,-3.4 7.97,-6.32 10.78,-8.76l6.22 0 0 55.36c-5.79,2.55 -11.37,4.99 -16.68,7.28 -5.26,2.28 -10.84,4.25 -16.69,5.9 -7.54,2.18 -14.66,3.82 -21.3,4.99 -6.65,1.12 -15.78,1.7 -27.42,1.7zm267.84 -4.78l-167.68 0 0 -231.76 167.68 0 0 44.95 -107.75 0 0 39.85 100.1 0 0 44.95 -100.1 0 0 57.06 107.75 0 0 44.95zm191.33 0l-167.04 0 0 -231.76 59.93 0 0 186.81 107.11 0 0 44.95zm177.94 0l-167.68 0 0 -231.76 167.68 0 0 44.95 -107.75 0 0 39.85 100.1 0 0 44.95 -100.1 0 0 57.06 107.75 0 0 44.95zm235.01 0l-57.65 0 -98.24 -159.08 0 159.08 -54.83 0 0 -231.76 71.46 0 84.43 132.78 0 -132.78 54.83 0 0 231.76zm356.25 0l-61.85 0 -16.1 -46.86 -85.17 0 -16.15 46.86 -60.46 0 85.48 -231.76 68.76 0 85.49 231.76zm-92.29 -89.26l-28.27 -82.41 -28.27 82.41 56.54 0zm411.77 5.31c0,28.64 -8.72,50.58 -26.09,65.83 -17.43,15.25 -43.09,22.9 -76.93,22.9 -33.9,0 -59.51,-7.65 -76.89,-22.9 -17.37,-15.25 -26.03,-37.14 -26.03,-65.67l0 -147.97 59.93 0 0 144.46c0,16.1 3.35,28.06 10.1,35.97 6.74,7.87 17.69,11.8 32.89,11.8 14.93,0 25.82,-3.77 32.72,-11.37 6.91,-7.54 10.37,-19.71 10.37,-36.4l0 -144.46 59.93 0 0 147.81zm-57.07 -234.84l0 3.13 -54.77 58.08 -38.31 0 38.47 -61.21 54.61 0zm254.4 318.79l-167.04 0 0 -231.76 59.93 0 0 186.81 107.11 0 0 44.95zm191.65 -186.81l-72.37 0 0 186.81 -59.93 0 0 -186.81 -72.36 0 0 -44.95 204.66 0 0 44.95zm135.38 186.81l-135.8 0 0 -41.12 37.93 0 0 -149.52 -37.93 0 0 -41.12 135.8 0 0 41.12 -37.93 0 0 149.52 37.93 0 0 41.12zm265.83 0l-59.94 0 0 -155.2 -42.77 100.69 -41.02 0 -42.77 -100.69 0 155.2 -56.42 0 0 -231.76 69.44 0 51.91 116.25 51.7 -116.25 69.87 0 0 231.76zm247.33 0l-61.85 0 -16.1 -46.86 -85.17 0 -16.15 46.86 -60.46 0 85.48 -231.76 68.76 0 85.49 231.76zm-92.29 -89.26l-28.27 -82.41 -28.27 82.41 56.54 0zm416.55 89.26l-59.93 0 0 -102.01 -87.67 0 0 102.01 -59.93 0 0 -231.76 59.93 0 0 84.8 87.67 0 0 -84.8 59.93 0 0 231.76zm258.96 -115.83c0,36.93 -10.57,66.26 -31.77,87.99 -21.2,21.73 -50.48,32.62 -87.83,32.62 -37.3,0 -66.52,-10.89 -87.72,-32.62 -21.2,-21.73 -31.77,-51.06 -31.77,-87.99 0,-37.19 10.57,-66.62 31.77,-88.25 21.2,-21.62 50.42,-32.46 87.72,-32.46 37.14,0 66.36,10.84 87.67,32.46 21.31,21.63 31.93,51.06 31.93,88.25zm-79.27 58.71c5.79,-7.06 10.09,-15.35 12.91,-24.97 2.82,-9.62 4.2,-20.88 4.2,-33.9 0,-13.86 -1.6,-25.71 -4.84,-35.49 -3.18,-9.72 -7.44,-17.64 -12.59,-23.64 -5.31,-6.22 -11.42,-10.73 -18.33,-13.55 -6.91,-2.82 -14.08,-4.2 -21.52,-4.2 -7.6,0 -14.72,1.33 -21.41,4.04 -6.75,2.71 -12.86,7.17 -18.49,13.39 -5.21,5.84 -9.4,13.81 -12.7,24.07 -3.24,10.2 -4.89,22.05 -4.89,35.54 0,13.82 1.6,25.61 4.73,35.28 3.19,9.73 7.39,17.64 12.54,23.75 5.21,6.11 11.27,10.63 18.23,13.55 6.96,2.92 14.29,4.36 21.99,4.36 7.65,0 14.99,-1.49 21.95,-4.47 6.96,-2.92 13.01,-7.54 18.22,-13.76zm228.52 -103.87c0,-5.74 -1.17,-10.68 -3.51,-14.77 -2.39,-4.14 -6.43,-7.38 -12.17,-9.72 -3.98,-1.65 -8.6,-2.66 -13.92,-3.03 -5.31,-0.37 -11.53,-0.53 -18.59,-0.53l-21.31 0 0 61.84 18.12 0c9.4,0 17.27,-0.48 23.59,-1.38 6.37,-0.96 11.69,-3.03 15.99,-6.32 4.09,-3.19 7.07,-6.7 8.98,-10.57 1.86,-3.88 2.82,-9.04 2.82,-15.52zm93.72 160.99l-73.11 0 -63.07 -85.12 -27.04 0 0 85.12 -59.93 0 0 -231.76 100.15 0c13.71,0 25.45,0.8 35.28,2.34 9.88,1.54 19.07,4.94 27.68,10.09 8.72,5.21 15.68,11.9 20.78,20.14 5.15,8.23 7.7,18.6 7.7,31.03 0,17.11 -3.93,31.03 -11.85,41.81 -7.91,10.79 -19.23,19.77 -33.95,26.94l77.36 99.41zm214.29 0l-61.85 0 -16.1 -46.86 -85.17 0 -16.15 46.86 -60.46 0 85.48 -231.76 68.76 0 85.49 231.76zm-92.29 -89.26l-28.27 -82.41 -28.27 82.41 56.54 0z"/>
  <g>
   <path class="fil6 str1" d="M2497.24 2688.82l85.49 -4.15 -2.4 24.29 -60.6 2.95 -4.57 46.51 60.4 -2.94 -2.38 24.88 -60.5 2.94 -8.72 88.58 -25.29 1.23 18.57 -184.29zm111.56 -5.42l24.51 -1.19 -12.05 125.94c-0.14,1.38 -0.14,3.45 0,6.2 0.51,10.53 4.35,18.65 11.5,24.3 7.1,5.64 16.76,8.18 28.91,7.59 14.03,-0.68 25.27,-4.91 33.83,-12.76 8.57,-7.78 13.5,-18.39 14.87,-31.77l11.97 -123.83 24.86 -1.2 -13.49 130.04c-1.84,18.61 -9.08,33.65 -21.69,45.03 -12.57,11.42 -28.73,17.61 -48.44,18.57 -19.61,0.95 -35.4,-3.44 -47.37,-13.18 -11.97,-9.74 -18.38,-23.33 -19.23,-40.73 -0.14,-2.99 -0.02,-6.54 0.37,-10.69l11.45 -122.32zm293.08 2.27l-6.54 29.22c-16.8,-16.09 -35.6,-23.63 -56.34,-22.62 -20.73,1 -37.79,8.86 -51.23,23.57 -13.44,14.71 -19.66,32.25 -18.67,52.65 0.94,19.56 8.37,35.85 22.27,48.89 13.9,12.99 30.41,19.01 49.53,18.09 15.04,-0.74 30.84,-6.32 47.39,-16.75l-2.7 30.5c-15.06,7.61 -29.2,11.74 -42.39,12.38 -27.21,1.32 -50.35,-6.75 -69.53,-24.19 -19.18,-17.45 -29.4,-39.8 -30.73,-67.11 -1.38,-28.34 7.19,-52.44 25.68,-72.35 18.54,-19.92 42.3,-30.56 71.27,-31.96 21.08,-1.03 41.74,5.54 61.99,19.68zm20.07 -17.48l24.36 -1.19 -7.01 73.12 70.01 -76.17 34.32 -1.67 -81.7 89.42 86.17 93.75 -31.62 1.54 -79.17 -86.09 -8.68 90.36 -24.36 1.18 17.68 -184.25zm126.23 -6.13l101.47 -4.93 1.22 25 -76.48 3.71 2.2 45.31 76.48 -3.71 1.22 25 -76.48 3.71 3.04 62.65 76.48 -3.71 1.21 25 -101.47 4.93 -8.89 -182.96zm262.04 -20.39l59.41 188.16 -24.22 1.18 -36.41 -115.38 -45.94 126.46 -58.26 -121.74 -24.94 118.7 -24.36 1.19 40.6 -193.03 63.92 133.6 50.2 -139.14zm53.92 95.46c-1.29,-26.42 7.56,-49.5 26.55,-69.3 19.04,-19.79 42.51,-30.37 70.45,-31.73 27.31,-1.32 51.25,7.05 71.94,25.07 20.62,18 31.57,40.03 32.83,66.16 1.34,27.6 -7.28,51.41 -25.81,71.43 -18.59,20.01 -41.99,30.73 -70.34,32.11 -27.98,1.36 -52.24,-7.1 -72.78,-25.36 -20.59,-18.27 -31.52,-41.08 -32.84,-68.38zm253.47 -102.73l25 -1.21 6.51 134.13c1.78,36.47 -12.54,55.45 -42.93,56.92 -10.54,0.51 -21.07,-1.72 -31.58,-6.72l11.37 -20.89c8.17,2.36 14.81,3.4 19.9,3.15 13.14,-0.64 19.29,-9.78 18.43,-27.37l-6.7 -138.01zm50.73 -2.47l25 -1.21 8.88 182.96 -24.99 1.22 -8.89 -182.97z"/>
   <path id="1" class="fil21" d="M2497.24 2688.82l85.49 -4.15 -2.4 24.29 -60.6 2.95 -4.57 46.51 60.4 -2.94 -2.38 24.88 -60.5 2.94 -8.72 88.58 -25.29 1.23 18.57 -184.29zm111.56 -5.42l24.51 -1.19 -12.05 125.94c-0.14,1.38 -0.14,3.45 0,6.2 0.51,10.53 4.35,18.65 11.5,24.3 7.1,5.64 16.76,8.18 28.91,7.59 14.03,-0.68 25.27,-4.91 33.83,-12.76 8.57,-7.78 13.5,-18.39 14.87,-31.77l11.97 -123.83 24.86 -1.2 -13.49 130.04c-1.84,18.61 -9.08,33.65 -21.69,45.03 -12.57,11.42 -28.73,17.61 -48.44,18.57 -19.61,0.95 -35.4,-3.44 -47.37,-13.18 -11.97,-9.74 -18.38,-23.33 -19.23,-40.73 -0.14,-2.99 -0.02,-6.54 0.37,-10.69l11.45 -122.32zm293.08 2.27l-6.54 29.22c-16.8,-16.09 -35.6,-23.63 -56.34,-22.62 -20.73,1 -37.79,8.86 -51.23,23.57 -13.44,14.71 -19.66,32.25 -18.67,52.65 0.94,19.56 8.37,35.85 22.27,48.89 13.9,12.99 30.41,19.01 49.53,18.09 15.04,-0.74 30.84,-6.32 47.39,-16.75l-2.7 30.5c-15.06,7.61 -29.2,11.74 -42.39,12.38 -27.21,1.32 -50.35,-6.75 -69.53,-24.19 -19.18,-17.45 -29.4,-39.8 -30.73,-67.11 -1.38,-28.34 7.19,-52.44 25.68,-72.35 18.54,-19.92 42.3,-30.56 71.27,-31.96 21.08,-1.03 41.74,5.54 61.99,19.68zm20.07 -17.48l24.36 -1.19 -7.01 73.12 70.01 -76.17 34.32 -1.67 -81.7 89.42 86.17 93.75 -31.62 1.54 -79.17 -86.09 -8.68 90.36 -24.36 1.18 17.68 -184.25zm126.23 -6.13l101.47 -4.93 1.22 25 -76.48 3.71 2.2 45.31 76.48 -3.71 1.22 25 -76.48 3.71 3.04 62.65 76.48 -3.71 1.21 25 -101.47 4.93 -8.89 -182.96zm262.04 -20.39l59.41 188.16 -24.22 1.18 -36.41 -115.38 -45.94 126.46 -58.26 -121.74 -24.94 118.7 -24.36 1.19 40.6 -193.03 63.92 133.6 50.2 -139.14zm53.92 95.46c-1.29,-26.42 7.56,-49.5 26.55,-69.3 19.04,-19.79 42.51,-30.37 70.45,-31.73 27.31,-1.32 51.25,7.05 71.94,25.07 20.62,18 31.57,40.03 32.83,66.16 1.34,27.6 -7.28,51.41 -25.81,71.43 -18.59,20.01 -41.99,30.73 -70.34,32.11 -27.98,1.36 -52.24,-7.1 -72.78,-25.36 -20.59,-18.27 -31.52,-41.08 -32.84,-68.38zm253.47 -102.73l25 -1.21 6.51 134.13c1.78,36.47 -12.54,55.45 -42.93,56.92 -10.54,0.51 -21.07,-1.72 -31.58,-6.72l11.37 -20.89c8.17,2.36 14.81,3.4 19.9,3.15 13.14,-0.64 19.29,-9.78 18.43,-27.37l-6.7 -138.01zm50.73 -2.47l25 -1.21 8.88 182.96 -24.99 1.22 -8.89 -182.97z"/>
  </g>
  <path class="fil22" d="M3454.71 2665.06c10.07,12.67 10.57,-0.14 29.7,2.9 7.2,1.14 21.93,11.08 22.86,-0.83 1.1,-14.03 -41.15,-21.45 -52.56,-2.07z"/>
  <path class="fil22" d="M3394.15 2716.12c13.24,-7.06 7.67,-9.55 16.5,-19.69 11.45,-13.18 16.52,-4.98 19.47,-21.62 -11.6,-3.6 -20.14,2.13 -30.15,13.23 -10.51,11.67 -13.97,16.73 -5.82,28.08z"/>
  <path class="fil22" d="M3484.23 2789.65c26.6,-10.56 45.03,-32.64 39.25,-55.85 -27.07,8.79 9.37,19.13 -47.27,44.3 -19.59,8.71 -11.6,4.06 -10.94,16.88l18.96 -5.33z"/>
  <path class="fil22" d="M3410.75 2747.19c3.66,-9.53 3.67,-15.58 15,-23.03l13.16 26.07 11.23 -7.47c2.94,-51.88 -64.23,-19.86 -39.39,4.43z"/>
  <path class="fil22" d="M3474.27 2722.36c11.32,-12.94 -4.23,-10.88 17.63,-24.48l12.71 26.54 11.29 -7.99c0.21,-42.97 -53.76,-35.2 -41.63,5.93z"/>
 </g>
</svg>
