<?xml version="1.0" encoding="UTF-8"?>
<!DOCTYPE svg PUBLIC "-//W3C//DTD SVG 1.1//EN" "http://www.w3.org/Graphics/SVG/1.1/DTD/svg11.dtd">
<!-- Creator: CorelDRAW 2017 -->
<svg xmlns="http://www.w3.org/2000/svg" xml:space="preserve" width="4.2332mm" height="4.2332mm" version="1.1" style="shape-rendering:geometricPrecision; text-rendering:geometricPrecision; image-rendering:optimizeQuality; fill-rule:evenodd; clip-rule:evenodd"
viewBox="0 0 423.32 423.32"
 xmlns:xlink="http://www.w3.org/1999/xlink">
 <defs>
  <style type="text/css">
   <![CDATA[
    .fil0 {fill:none}
    .fil4 {fill:#1D040A}
    .fil32 {fill:#210506}
    .fil16 {fill:#230B0B}
    .fil31 {fill:#250205}
    .fil56 {fill:#270912}
    .fil7 {fill:#2A040A}
    .fil8 {fill:#2B0303}
    .fil60 {fill:#2B0B02}
    .fil57 {fill:#330301}
    .fil11 {fill:#767B8A}
    .fil6 {fill:#7D8393}
    .fil12 {fill:#9195A7}
    .fil59 {fill:#9CA1B1}
    .fil54 {fill:#A7AABA}
    .fil58 {fill:#ACADC5}
    .fil14 {fill:#ADB2C6}
    .fil61 {fill:#AEA39C}
    .fil22 {fill:#B4B6C9}
    .fil42 {fill:#BBBED1}
    .fil45 {fill:#BDC2D3}
    .fil27 {fill:#C3C5D4}
    .fil9 {fill:#C6C9D6}
    .fil29 {fill:#C6C9D9}
    .fil55 {fill:#CACBD5}
    .fil21 {fill:#CACDDA}
    .fil48 {fill:#CBCCDC}
    .fil35 {fill:#CED1DD}
    .fil41 {fill:#D5DAE4}
    .fil24 {fill:#D6D9E2}
    .fil1 {fill:#DA9E18}
    .fil20 {fill:#DADDE6}
    .fil26 {fill:#DEE1E9}
    .fil34 {fill:#E1E5EC}
    .fil2 {fill:#E69B1A}
    .fil15 {fill:#E8A519}
    .fil17 {fill:#E99826}
    .fil53 {fill:#E9A725}
    .fil30 {fill:#EAEDF0}
    .fil28 {fill:#F4E534}
    .fil43 {fill:#F5E53B}
    .fil46 {fill:#F5E646}
    .fil52 {fill:#F5FAF5}
    .fil40 {fill:#F69825}
    .fil44 {fill:#F6A825}
    .fil39 {fill:#F6E631}
    .fil5 {fill:#F6FDFA}
    .fil18 {fill:#F7B827}
    .fil50 {fill:#F7C535}
    .fil51 {fill:#F7C728}
    .fil49 {fill:#F89818}
    .fil13 {fill:#F8F5F9}
    .fil37 {fill:#F9E432}
    .fil3 {fill:#FAF7EC}
    .fil19 {fill:#FAFAF5}
    .fil23 {fill:#FCBC23}
    .fil38 {fill:#FCC824}
    .fil10 {fill:#FCF6D0}
    .fil47 {fill:#FCFDF7}
    .fil33 {fill:#FCFDF8}
    .fil25 {fill:#FDB523}
    .fil36 {fill:#FDC324}
   ]]>
  </style>
 </defs>
 <g id="Capa_x0020_1">
  <metadata id="CorelCorpID_0Corel-Layer"/>
  <rect class="fil0" x="-0" y="-0" width="423.33" height="423.33"/>
  <g id="_3131396366592">
   <path class="fil1" d="M364.62 284.54c-1.82,-1.29 -0.07,-1.28 -3.59,-0.55l0.25 3.26 2.9 0.13 0.44 -2.84z"/>
   <path class="fil1" d="M310.63 312.3c1.33,0.59 1.71,0.67 3.57,0.85l0.11 -3.32c-3.17,-0.37 -2.94,-0.41 -3.68,2.47z"/>
   <path class="fil2" d="M273.7 343.42c2.39,1.61 0.24,0.96 3.41,0.82l0.09 -3.59c-3.03,-0.16 -3.8,-0.66 -3.5,2.77z"/>
   <path class="fil2" d="M363.99 280.54c1.24,-2.1 1.17,-1.44 0.23,-3.58l-3.11 0.13c-0.12,0.85 -0.29,0.74 -0.16,1.51 0.49,2.89 0.22,0.99 0.57,1.67l2.47 0.27z"/>
   <path class="fil2" d="M277.24 350.99l-1.15 -3.13c-1.46,-0.18 -0.54,-0.15 -2.13,0 -0.23,1 -0.82,2.1 0.01,3.08 0.73,0.86 0,0.63 1.47,0.71 3.33,0.18 0.84,-0.15 1.8,-0.66z"/>
   <path class="fil2" d="M364.49 292.06c0,-1.08 -1.54,-1.23 -3.31,-0.84 -0.44,1.88 -0.24,0.7 -0.15,1.97l0.49 1.05c0.59,0.55 2.86,1.22 3.11,-1.63 0.01,-0.11 -0.14,-0.28 -0.14,-0.55z"/>
   <path class="fil2" d="M270.1 336.79l0.36 -2.95c-5.59,-1.21 -4.71,4.79 -0.36,2.95z"/>
   <path class="fil2" d="M263.27 326.89c-2.38,-1 -0.25,-0.8 -3.06,-0.21 -0.81,5.35 4.16,4.41 3.06,0.21z"/>
   <path class="fil2" d="M267.23 329.6l2.96 0.12c0.25,-2.72 0.7,-1.24 -0.62,-3.3 -2.4,-0.08 -3.67,-0.02 -2.34,3.18z"/>
   <path class="fil3" d="M324.45 266.34l-0.54 -3.79c-4.97,-0.52 -4.2,2.79 -1.87,3.48 0.19,0.05 0.53,0.11 0.7,0.16 0.18,0.05 1.46,0.13 1.71,0.15z"/>
   <polygon class="fil3" points="343.67,346.24 346.17,347.24 347.47,345.86 347.72,343.55 343.8,343.52 "/>
   <path class="fil3" d="M327.99 259.19c3.77,0.52 3.93,-0.84 2.88,-3.68l-3.06 0.3 0.18 3.38z"/>
   <path class="fil3" d="M350.76 345.84c1.2,2.2 2.35,1.23 3.72,0.55l-0.25 -3 -3.29 0.34 -0.18 2.11z"/>
   <path class="fil3" d="M321.41 255.85c-1.26,0.68 -2.3,4.01 2.49,3.27l-0.16 -3.05c-0.04,-0.01 -0.34,-1.28 -2.33,-0.22z"/>
   <path class="fil4" d="M367.17 266.89c0.79,-2.75 0.32,-5.16 -3.46,-3.09l0.27 3.01 3.19 0.08z"/>
   <path class="fil4" d="M275.47 100.11l2.72 -0.2c0.13,-0.04 0.35,-0.22 0.53,-0.33l0.26 -2.6c-2.45,-1.27 -0.65,-0.53 -3.51,-0.46l0 3.59z"/>
   <path class="fil5" d="M230.4 218.7l0.67 1.06c4.31,1.52 5.01,-4.9 -0.7,-3.2 -0.25,1.8 -0.2,0.79 0.03,2.14z"/>
   <path class="fil5" d="M356.81 241.24c-1.47,4.01 4.14,5.55 3.31,-0.17l-3.31 0.17z"/>
   <line class="fil5" x1="176.25" y1="177.1" x2="176.25" y2= "177.1" />
   <path class="fil6" d="M114.9 123.2l3.59 -0.13 -0.03 -3.58 -3.37 -0.14c-0.23,0.93 -0.35,2.62 -0.19,3.85z"/>
   <path class="fil6" d="M334 202.73c-1.84,1.09 -1.53,3.91 2.52,3.34 0.81,-1.92 0.78,-5.29 -2.52,-3.34z"/>
   <path class="fil6" d="M326.38 205.56c1.76,1.92 4.41,0.7 3.07,-2.34 -0.42,-0.26 -1.15,-2.23 -3.11,0.04 -0.74,0.85 -0.67,1.53 0.04,2.3z"/>
   <path class="fil6" d="M322.57 205.99l-0.16 -3.42 -3.06 0.38c-1.01,2.95 0.19,3.62 3.22,3.04z"/>
   <path class="fil7" d="M320.98 373.23c7.78,2.34 -0.38,-8.34 -0.68,-1.83 -0.17,3.64 -0.08,0.48 0.68,1.83z"/>
   <path class="fil7" d="M336.2 345.4c2.49,3.94 4.38,1.58 3.62,-2.4l-3.23 0.37 -0.39 2.03z"/>
   <path class="fil7" d="M276.26 286.84c3.03,-1 3.09,-0.39 2.93,-3.97l-3.13 -0.49c-0.69,1.67 -0.45,2.82 0.2,4.46z"/>
   <path class="fil7" d="M350.69 361.86l0.37 3.08 3.2 -0.12 0.1 -3.7c-2.91,0 -1.4,-0.42 -3.67,0.74z"/>
   <path class="fil7" d="M292.11 365.56l4 0.75c0.53,-2.85 0.91,-3.73 -3.04,-3.73l-0.96 2.98z"/>
   <path class="fil7" d="M313.67 370.65c-1.3,4.08 4.54,4.21 3.25,-0.03 -1.06,-0.79 1.53,-1.12 -1.63,-0.81 -1.69,0.16 -0.73,0.16 -1.62,0.84z"/>
   <path class="fil7" d="M299.79 369.78l0.26 3.49 3.35 -0.1c0.21,-3.89 -0.91,-3.79 -3.61,-3.39z"/>
   <path class="fil8" d="M344.04 365l3.13 -0.01 0.55 -2.39c-1.23,-2.2 -0.58,-1.63 -3.49,-1.32 -0.65,1.55 -0.65,2 -0.19,3.72z"/>
   <path class="fil8" d="M339.73 337.42c-0.01,-0.01 -0.43,-1.81 -2.71,-0.37 -0.84,0.53 -1.22,1.77 -0.35,2.73 1.72,1.89 4.3,0.85 3.06,-2.36z"/>
   <path class="fil8" d="M299.72 363.33l0.05 2.82 3.14 0.26c1,-2.93 0.44,-5.24 -3.19,-3.08z"/>
   <path class="fil8" d="M289.88 362.83c-1.44,-0.23 -2.43,-0.53 -4.08,0.5l0.03 2.8c0.98,0.14 0.53,0.32 1.48,0.18 1.54,-0.24 1.06,-0.24 1.68,-0.53l0.89 -2.95z"/>
   <path class="fil8" d="M307.19 373.58l2.41 -0.11c0.27,-1.57 0.93,-0.4 0.49,-3.5 -3.25,-0.92 -4.33,0.54 -2.9,3.61z"/>
   <path class="fil8" d="M325.6 340.21l0.51 -3.08c-5.07,-1.41 -4.17,2.13 -3.59,2.75l1.01 0.47c1.41,0.09 0.51,0.12 2.07,-0.14z"/>
   <path class="fil9" d="M135.84 144.61l3.81 -0.16c0.15,-2.11 0.43,-3.33 -1.46,-3.69 -2.62,-0.5 -2.37,1.68 -2.35,3.85z"/>
   <path class="fil9" d="M121.54 136.7c1.22,0.8 3.57,1.95 4.1,-0.63 0.52,-2.52 -1.62,-2.36 -3.78,-2.28l-0.32 2.91z"/>
   <path class="fil9" d="M132.12 151.43c0.78,-3.09 -0.03,-3.86 -3.4,-3.17l0.3 3.48 3.1 -0.31z"/>
   <path class="fil10" d="M317.22 255.93c-5.57,-1.66 -5.57,4.73 0.22,3.21l-0.22 -3.21z"/>
   <path class="fil10" d="M330.56 373.38l0.15 -3.73c-4.93,-0.86 -5.75,4.4 -0.15,3.73z"/>
   <path class="fil11" d="M107.52 122.41l0.07 0.73 3.6 -0.07c1.26,-4.96 -3.64,-5.91 -3.67,-0.66z"/>
   <path class="fil11" d="M114.84 129.97l0.62 0.45 3 -0.83c0.2,-4.62 -3.93,-4.87 -3.62,0.38z"/>
   <path class="fil12" d="M274.7 111.53l-0.29 1.91c1.88,1.06 1.42,1.02 4.26,0.9 0.37,-1.7 0.23,-2.4 -0.42,-3.79 -1.91,0.08 -2.31,0.35 -3.55,0.98z"/>
   <path class="fil12" d="M282.39 114.1c4.28,1.61 5.5,-4.45 0.05,-3.31 -1.2,2.67 -1.2,0.42 -0.05,3.31z"/>
   <polygon class="fil12" points="275.48,121.33 278.52,121.65 278.65,117.86 275.12,117.77 "/>
   <path class="fil13" d="M300.95 149.49l0.5 -2.67c-1.58,-0.82 -2.33,-1.28 -4.05,-0.5 -1.03,2.17 -1.28,0.73 0.19,3.26l3.36 -0.09z"/>
   <path class="fil13" d="M300.29 156.41c0.92,-1.78 0.71,-1.61 0.71,-3.48 -4.17,-1.2 -4.34,0.27 -4.01,3.11l3.3 0.37z"/>
   <path class="fil13" d="M336.8 195.95c-5.24,-2.47 -5.24,5.24 0.33,2.95l-0.33 -2.95z"/>
   <path class="fil13" d="M364.4 251.84c3.65,0.7 3.2,-0.74 3.23,-3.57l-4 0.03 0.77 3.54z"/>
   <path class="fil13" d="M359.97 248.59c-1.56,-0.5 -0.52,-0.31 -1.95,-0.38l-1.23 0.36c-0.39,1.14 -0.28,0.59 -0.18,1.83 0.01,0.13 0.22,0.69 0.23,0.58 0.02,-0.11 0.23,0.38 0.35,0.91l3.31 -0.38 -0.53 -2.92z"/>
   <path class="fil13" d="M359.73 236.78c0.32,-0.63 0.25,0.43 0.56,-1.7 0.17,-1.19 -0.01,-0.35 -0.27,-1.59l-3.46 0.35 0.3 3.39 2.87 -0.45z"/>
   <path class="fil14" d="M319.52 290.33l3.51 0.49 1.09 -2.09c-0.28,-2.27 0.09,-2.3 -1.54,-3.76l0.27 1.6 -3.41 0.81 0.08 2.95z"/>
   <path class="fil14" d="M237.64 219.78c6.28,1.31 4.91,-4.93 0.13,-3.2l-0.13 3.2z"/>
   <path class="fil14" d="M312.59 276.06l-0.25 0.23 3.73 0.04c0.71,-5.32 -3.73,-5.66 -3.48,-0.27z"/>
   <path class="fil14" d="M305.36 282.98l3.5 0.13 0.42 -2.13 -0.56 -1.44c-3.65,-0.25 -3.33,0.85 -3.36,3.44z"/>
   <path class="fil15" d="M344.96 271.27c0.29,0.81 0.53,1.76 0.87,2.49 0.92,1.95 0.67,1.17 1.41,1.98 0.16,-1.82 1.19,0.19 -0.35,-2.18 3.67,0.3 2.88,0.55 3.67,-2.4 -1.33,-1.62 -0.93,-2.32 -3.91,-0.81l-1.09 0.6c-0.14,0.07 -0.4,0.21 -0.6,0.32z"/>
   <path class="fil15" d="M278.5 334.75c-0.85,-2.41 -0.33,-1.66 -1.97,-2.89l0.69 1.81c-3.11,-0.14 -4.51,0.3 -2.87,3.71 1.99,0.14 1.18,0.86 2.91,-0.93l0.6 -0.88c0.08,-0.1 0.25,-0.33 0.31,-0.42 0.06,-0.08 0.21,-0.28 0.33,-0.4z"/>
   <path class="fil15" d="M302.32 311.43c0.41,0.98 0.38,1.18 0.94,1.98 0.71,1.04 0.49,0.57 1.29,1.23l-0.27 -1.5c2.2,0.46 1.51,0.67 3.12,-0.46l0.13 -1.87c-0.29,-1.51 0.17,-0.55 -0.81,-1.32 -3.49,0.74 -0.64,0.23 -2.3,1.05 -2.21,1.09 2.71,-0.41 -2.1,0.89z"/>
   <path class="fil15" d="M354.04 280.28l3.69 0.38c-0.02,-1.59 0.23,-1.07 -0.1,-2.02 -0.49,-1.41 -0.37,-1.04 -1.06,-2.02 -2.63,0.32 -3.62,0.35 -2.53,3.66z"/>
   <path class="fil15" d="M349.98 266.67l0.64 -3.93 -3.7 0.17c-0.49,3.61 -0.51,3.83 3.06,3.76z"/>
   <path class="fil15" d="M259.71 319.18l0.35 3.36c3.6,0.78 3.56,0.25 3.76,-2.95l-4.11 -0.41z"/>
   <path class="fil15" d="M306.2 306.73l1.7 -1.53 -0.86 -1.86 -2.86 0.46c-0.31,1.79 0.53,1.82 2.02,2.93z"/>
   <path class="fil16" d="M74.89 164.88c0.31,2.54 0.21,2.76 2.97,2.76 4.02,-0.01 4.14,0.56 4.51,-2.85 -1.78,-0.27 -5.9,-1.1 -7.48,0.09z"/>
   <path class="fil16" d="M245.91 310.24c0.05,-2.52 0.23,-2.99 -3.63,-2.86 -3.86,0.13 -2.98,0.45 -2.91,2.86 1.92,0.9 4.55,0.9 6.54,0z"/>
   <path class="fil16" d="M343.86 212.91c1.51,-1.74 -0.67,-4.97 -2.8,-2.98 -2.08,1.95 0.89,5.19 2.8,2.98z"/>
   <path class="fil16" d="M276.07 106.94c5.55,1.99 2.82,-5.74 -0.05,-3.26 -0.81,0.7 -0.62,-1.08 -0.68,1.51 -0.08,3.4 0,0.56 0.73,1.75z"/>
   <path class="fil17" d="M316.96 313.46c-1.12,5.53 -1,2.57 -5.75,2.56l-0.16 3.77 -1.48 0.41c5.28,6.64 14.79,-9.28 8.66,-12.07 0.07,2.37 -0.19,3.35 -1.27,5.33z"/>
   <path class="fil17" d="M354.36 361.12l-0.1 3.7 -3.2 0.12 -0.37 -3.08 -2.97 0.74 -0.55 2.39 -3.13 0.01 0.16 0.21c1.41,1.18 3.78,1.45 5.92,1.67 4.76,0.51 10.12,-3.56 12.27,-7.64 -1.58,0.33 -2.58,0.67 -4.18,1.29 -2.91,1.12 -0.94,1.27 -3.85,0.59z"/>
   <path class="fil18" d="M337.02 337.05c2.28,-1.44 2.7,0.36 2.71,0.37 1.24,3.21 -1.34,4.25 -3.06,2.36 -0.87,-0.96 -0.49,-2.2 0.35,-2.73zm-4.38 3.09c-3.12,0.77 -4.04,0.09 -2.9,-2.91 2.13,-0.84 0.11,-0.87 3.2,-0.15l-0.3 3.06zm3.77 -8.94c-1.87,2.76 -5.74,3.37 -9.33,4.21l-0.71 1.16c-0.02,0.05 -0.15,0.29 -0.18,0.34 -0.01,0.03 -0.05,0.15 -0.08,0.22l-0.51 3.08c2.03,3.34 6.06,4.58 10.6,5.19l0.39 -2.03 3.23 -0.37 1.01 3.13 2.84 0.11 0.13 -2.72 3.92 0.03c-1.13,-4.18 0.95,-1.19 -3.7,-3.03 4.15,-6.71 -5.67,-1.28 -2.65,-9.52 4.34,2.28 0.83,1.91 4.14,3.8l0.19 -1.41c-0.02,-0.12 -0.08,-0.34 -0.11,-0.47 -0.71,-3.06 -1.86,-2.36 0.66,-5.47 4.54,1.93 -0.89,-0.42 2.89,2.6 -0.28,-2.33 -2.74,-5.59 -3.35,-7.38 -3.57,2.74 -5.29,7.85 -9.38,8.53z"/>
   <path class="fil18" d="M302.32 311.43c4.81,-1.3 -0.11,0.2 2.1,-0.89 1.66,-0.82 -1.19,-0.31 2.3,-1.05l-0.52 -2.76c-1.49,-1.11 -2.33,-1.14 -2.02,-2.93l2.86 -0.46 -0.96 -0.68c-2,-1.7 -1.2,-0.24 -1.92,-2 0.16,-0.11 0.45,-0.39 0.54,-0.23l2.59 -1.25c1.67,-1.86 0.92,-1.33 0.09,-3.61l4.95 -0.72 0.26 0.02c-3.11,-0.04 -7.35,0.54 -9.76,-1.66 -0.18,-0.17 -0.36,-1.39 -2.3,-2.3 -2.47,5.62 0.14,15 1.79,20.52z"/>
   <path class="fil19" d="M303.29 279.75l0.31 3.12c-3.06,0.96 -5.92,2.03 -7.98,3.23 6.5,3.43 10.87,-0.35 13.11,0.37 1.3,2.91 -1.69,2.63 -2.61,4.88 3.88,0.49 10.76,-1.3 13.39,1.2 -1,2.97 -3.47,2.14 -6.92,2.32l-0.26 -0.02c-0.53,1.23 -1.29,2.67 -1.42,3.81 -0.13,1.14 -0.14,0.74 0.13,1.83 0.43,1.77 0.01,0.62 0.79,1.63 0.05,-1.84 0.21,-3.19 1.25,-4.49 0.4,-0.5 0.98,-1.06 1.66,-1.14 7.65,-0.98 -7.52,8.25 6.65,7.8l0.62 1.4c2.33,-0.46 1.56,0.07 2.09,-2.21 -1.21,-3.44 4.57,-5.08 0.02,-14.75l-1.09 2.09 -3.51 -0.49c-0.15,-0.18 -0.3,-0.43 -0.4,-0.58 -0.1,-0.13 -0.28,-0.38 -0.4,-0.55l-0.7 -0.99c-0.52,-0.66 -0.21,-0.48 -1.02,-1.12 -1.2,-0.95 -2.19,-1.04 -3.58,-1.6 -7.62,-3.05 -6.39,0.36 -8.06,-2.51 0.03,-2.59 -0.29,-3.69 3.36,-3.44 -2.08,-2.28 -3.3,-0.86 -5.43,0.21z"/>
   <path class="fil19" d="M160.44 202.48c1.18,-1.23 -0.72,-1.17 1.72,-1.63 -4.73,-0.01 -16.51,-5.33 -18.21,-11.53l-1.33 -0.28c-3.71,-1.02 -2.27,-0.28 -3.54,-1.59l-4.55 -1.03c1.82,7.28 15.85,19.56 25.91,16.06z"/>
   <path class="fil19" d="M137.48 159.63c1.37,-0.42 0.92,-0.46 0.84,-0.19 -6.43,-2.93 -21.93,-12.07 -24.89,-18.67l-5.87 -3.7c2.24,8.37 18.57,24.47 29.92,22.56z"/>
   <path class="fil19" d="M120.05 138.06c2.35,-0.14 0.84,0.86 1.49,-1.36 -3.43,-2.65 -0.16,-3.08 -6.08,-6.28l-0.62 -0.45 -6.83 -6.38c-0.07,-0.27 -0.3,-0.29 -0.42,-0.45l-0.07 -0.73 -4.63 -6.08c-0.43,-0.67 -0.5,-1.04 -1.29,-2.23l2.07 -1.54c-0.62,-0.93 -4.77,-3.79 -6.05,-4.39 0.75,5.6 5.78,14.03 8.44,17.55 1.99,2.63 4.21,5.08 6.29,6.99 2.53,2.32 4.87,4.86 7.7,5.35z"/>
   <path class="fil19" d="M178.55 225.67c0.75,-1.71 -1.16,-2.06 0.86,-1.33 -2.28,-0.78 -2.98,-1 -4.72,-2.2 -2.69,-1.86 -1.28,-2.1 -4.57,-1.52l-10.92 3.18c7.5,6.09 16.1,6.28 19.35,1.87z"/>
   <path class="fil19" d="M169.83 215.46c-1.64,-2.22 0.2,-1.31 -5.67,-2.68 -7.13,-1.67 -5.1,-6.12 -15.22,-4.1 1.25,4.88 12.42,7.96 20.89,6.78z"/>
   <path class="fil20" d="M267.04 169.14c2.01,-0.57 1.87,1.31 1.73,-0.66l3 3.14c0.03,-4.58 0.99,0.03 2.15,-6.56 0.23,-1.26 0.65,0.52 0.07,-0.82 1.35,2.39 -1.33,-0.27 3.42,3.29l2.5 1.45c1.05,0.57 1.04,0.13 1.61,1.16 -1.02,2.34 -1.48,-1.23 -3.1,5.16 8.82,0 3.22,-0.57 6.63,-2.58 1.33,1.27 1.12,0.48 1.72,2.4 5.49,0.37 0.57,0.41 2.48,-1.75 -0.87,-0.64 -17.63,-12.68 -9.81,-15.66 1.54,-4.61 4.54,-4.34 1.07,-8.79 -2.01,-2.58 -4,-3.45 -5.54,-6.59 -2.25,2.7 -0.34,0.68 -2.21,1.73 -3.61,0.91 -7.08,-2.72 -9.13,-4.04 -0.31,6.47 3.13,12.18 7.32,16.22 1.99,1.92 3.26,2.06 2.59,4.59 -3.56,1.22 -6.56,-0.9 -10.03,-2.16 0.61,5.13 1.74,6.58 3.53,10.47z"/>
   <path class="fil20" d="M269.18 136.42c2.19,-1.79 1.13,-2.93 4.66,-3.71 2.24,-0.49 2.64,-0.26 5.54,-1.22 0.73,-7.77 -2.85,-9.06 -3.9,-10.16l-0.36 -3.56c0.4,-1.87 0.16,-1.16 0,-2.14 -0.09,-0.5 0.1,0.91 -0.71,-2.19l0.29 -1.91c1.05,-2.89 -0.39,-0.72 2.39,-2.73l-3.77 -1.75c0.24,-3.75 1.33,-5.99 4.45,-5.48 -4.73,0 -0.36,0.27 -2.3,-1.46l0 -3.59c1.84,-2.02 0.13,0.74 -2.56,-2.45l-2.05 -3.37c-0.8,-1.14 -0.91,-2.04 -2.45,-2.96 -0.87,6.14 -0.79,11.67 0.23,17.56 0.64,3.73 3.88,11.82 3.14,13.94 -4.5,0.33 -4.33,-3.13 -7.91,-5.02 -0.24,8.26 1.8,16.26 5.31,22.2z"/>
   <path class="fil21" d="M301.45 146.82l-0.5 2.67c0.09,0.23 0.36,1.23 0.36,1.4 0.04,1.31 0.15,0.26 -0.31,2.04 0,1.87 0.21,1.7 -0.71,3.48 1.16,2.03 -0.53,0.33 1.61,2.26 1.54,3.88 3.85,5.86 7.23,8.01 3.08,1.96 1.96,-0.27 2.97,3.46 -1.38,0.94 -0.15,0.46 -2,0.82 -2.41,0.46 -4.11,-0.19 -6.51,-0.04 1.76,2.13 5.89,4.72 8.74,5.81 -1.51,-2.86 -0.55,-0.74 0,-1.28 3.68,2.42 5.19,2.89 6.93,-0.69 2.15,-4.41 1.54,-4.83 1.92,-6.01l1.79 0.16c-0.46,-2.58 -7.95,-12.49 -10.01,-15.62 -1.87,-2.85 -3.12,-4.55 -4.98,-7.56 -1.61,-2.59 -3.04,-6.17 -5.51,-8.07 -0.29,1.23 -0.78,2.24 -0.45,3.53 0.44,1.69 1.39,1.53 2.2,4.47l-2.77 1.16z"/>
   <path class="fil21" d="M322.66 220.04c1.5,1.08 0.09,0.48 2.69,1.14 6.12,1.54 8.17,-0.95 8.4,3.53 -2.73,1.44 -5.03,-0.1 -8.56,0.15 3.25,2.77 11.03,7.03 16.13,6.93l3.26 -0.96c-2.95,-0.82 -1.46,0.03 -3.39,-1.82 -5.96,-5.71 -5.01,-4.02 -5.6,-9.67l-8.51 -3.24c0.7,3.13 -0.21,0.09 -0.18,4.17 -3.07,-1 -1.36,-0.88 -4.24,-0.23z"/>
   <path class="fil22" d="M289.25 173.37c1.62,1.32 1.98,1.6 3.73,2.81 2.73,1.9 2.64,1.73 3.47,3.55 -2.41,1.21 -6.25,1.41 -6.43,4.43 -0.3,5.12 17.32,12.42 19.79,12.99 -1.79,2.29 -5.03,2.98 -3.37,6.86 2.08,4.89 16.3,9.36 20.64,12.09l8.51 3.24c0.59,5.65 -0.36,3.96 5.6,9.67 1.93,1.85 0.44,1 3.39,1.82l-3.26 0.96c1.55,1.34 2.29,1.15 4.26,1.67l0.02 2.73c0.76,-0.79 1.38,-1.22 1.39,-2.6 3.26,2.28 4.2,4.21 9.13,4.32 -0.97,-5.38 -4.29,-5.99 -8.19,-8.28 -1.83,-1.07 -2.92,-1.9 -4.26,-3.16 -1.59,-1.49 -2.95,-2.35 -4.39,-3.97 2.6,-2.96 2.18,0.18 3.52,-3.69 -4.07,-3.58 -12.12,-5.13 -17.29,-7.36 -5.97,-2.58 -14.53,-5.34 -15.95,-9.95 3.25,-0.86 7.31,-0.68 9.5,-1.86 0.08,-3.62 1.84,-1.6 -7.33,-5.23 -3.04,-1.2 -7.02,-2.41 -9.18,-4.41 -3.72,-1.15 -7.64,-2.98 -9.3,-6.24l10.87 -1.08c0.11,-5.35 -5.54,-3.83 -8.65,-9.22 -4.81,-0.99 -10.37,-8.42 -14.27,-10.89 -1.72,-2.24 -0.89,-2.3 -1.36,-4.5 5.79,1.07 -1.68,1.35 6.9,1.14 -2.53,-0.75 -0.63,-0.69 -1.69,-1.49l-5.61 -0.01c-7.82,2.98 8.94,15.02 9.81,15.66z"/>
   <path class="fil22" d="M245.8 213.12c3.91,0.48 5.29,-3.43 -0.56,-3.86l-0.68 2.87 1.24 0.99z"/>
   <path class="fil22" d="M244.74 219.19c2.78,2.35 4.15,0.87 3.88,-2.33l-2.52 -0.69c-1.03,1.03 -1.28,1.05 -1.36,3.02z"/>
   <path class="fil22" d="M312.48 282.28c4.06,3.74 6.38,-3.53 0.79,-2.63l-0.79 2.63z"/>
   <path class="fil23" d="M273.96 347.86c1.59,-0.15 0.67,-0.18 2.13,0l1.15 3.13c-0.96,0.51 1.53,0.84 -1.8,0.66 -1.47,-0.08 -0.74,0.15 -1.47,-0.71 -0.83,-0.98 -0.24,-2.08 -0.01,-3.08zm-0.26 -4.44c-0.3,-3.43 0.47,-2.93 3.5,-2.77l-0.09 3.59c-3.17,0.14 -1.02,0.79 -3.41,-0.82zm-3.6 -6.63c-4.35,1.84 -5.23,-4.16 0.36,-2.95l-0.36 2.95zm-0.53 -10.37c1.32,2.06 0.87,0.58 0.62,3.3l-2.96 -0.12c-1.33,-3.2 -0.06,-3.26 2.34,-3.18zm-9.36 0.26c2.81,-0.59 0.68,-0.79 3.06,0.21 1.1,4.2 -3.87,5.14 -3.06,-0.21zm3.61 -7.09c-0.2,3.2 -0.16,3.73 -3.76,2.95l-0.35 -3.36 4.11 0.41zm14.68 15.16c-0.12,0.12 -0.27,0.32 -0.33,0.4 -0.06,0.09 -0.23,0.32 -0.31,0.42l-0.6 0.88c-1.73,1.79 -0.92,1.07 -2.91,0.93 -1.64,-3.41 -0.24,-3.85 2.87,-3.71l-0.69 -1.81c-0.79,-5.82 -12.25,-15.78 -19.1,-17.54 0.07,11.73 2.24,20.09 6.85,29.24 2.24,4.46 11.57,18.5 16.35,19.04 3,-7.81 1.78,-21.32 -2.13,-27.85z"/>
   <path class="fil23" d="M282.83 335.32l0.73 2.21 1.17 1.73c0.06,0.1 0.97,1.95 0.99,1.99 0.56,1.14 0.98,1.81 1.59,3.48 0.85,2.33 1.53,5.45 1.76,8.32l1.88 2.78c2.18,-0.26 3.31,-0.48 6,-0.28 3.24,0.25 3.67,-0.33 7.27,-0.33l0.21 -2.95c2.35,1.88 2.36,3.03 3.85,-0.02 -1.02,-1.77 -7.41,-7.52 -10.99,-12.23l-2.83 -3.41c-0.04,-0.17 -0.21,-0.18 -0.33,-0.25 -2.93,-1.36 -2.76,-2.31 -4.53,-5.37l-2.34 0.73c-0.16,-0.12 -0.38,-0.3 -0.47,-0.36l-1.47 -1.02c-0.51,1.59 -1.13,3.7 -2.49,4.98z"/>
   <path class="fil23" d="M354.89 344.03c8.04,-2.77 13.88,-7.52 18.25,-12.79 2.43,-2.92 4.25,-5.72 6.11,-9.42 2.43,-4.84 -0.09,-8.47 1.3,-14.18 0.28,-2.2 0.67,-1.24 -0.41,-2.75 -0.59,17.68 -13.2,30.61 -25.12,36.38l-0.13 2.76z"/>
   <path class="fil24" d="M267.04 169.14c2.5,3.23 4.4,5.55 7.7,7.64 1.65,1.05 3.29,1.92 5.5,2.63 6.44,2.05 4.05,0 5.66,2.53 -1.2,2.28 -2.12,2.31 -5.46,2.78 -2.62,0.36 -5.03,0.25 -7.6,0.57 17.38,14.85 26.17,8.96 30.29,12.14 -0.71,4.33 -6.61,2.96 -9.92,5.16 5.37,6.43 19.06,9.03 24.33,10.85 -0.62,5.09 -1.12,0.96 -3.69,4.65 2.79,1.1 5.61,2.24 8.81,1.95 2.88,-0.65 1.17,-0.77 4.24,0.23 -0.03,-4.08 0.88,-1.04 0.18,-4.17 -4.34,-2.73 -18.56,-7.2 -20.64,-12.09 -1.66,-3.88 1.58,-4.57 3.37,-6.86 -2.47,-0.57 -20.09,-7.87 -19.79,-12.99 0.18,-3.02 4.02,-3.22 6.43,-4.43 -0.83,-1.82 -0.74,-1.65 -3.47,-3.55 -1.75,-1.21 -2.11,-1.49 -3.73,-2.81 -1.91,2.16 3.01,2.12 -2.48,1.75 -0.6,-1.92 -0.39,-1.13 -1.72,-2.4 -3.41,2.01 2.19,2.58 -6.63,2.58 1.62,-6.39 2.08,-2.82 3.1,-5.16 -0.57,-1.03 -0.56,-0.59 -1.61,-1.16l-2.5 -1.45c-4.75,-3.56 -2.07,-0.9 -3.42,-3.29 0.58,1.34 0.16,-0.44 -0.07,0.82 -1.16,6.59 -2.12,1.98 -2.15,6.56l-3 -3.14c0.14,1.97 0.28,0.09 -1.73,0.66z"/>
   <path class="fil24" d="M213.46 220.2c1.17,0.27 5.31,2.68 9.85,3.82 4.47,1.12 7.76,1.4 12.62,1.92 -3.63,0.5 -4.47,6.05 4.1,6.16 4.42,0.05 10.61,-0.46 14.94,-1.04 3.12,-0.37 4.63,0.6 6.48,-1.93 -1.49,-2.95 1.95,-2.67 -9.84,-1.42 -4.7,0.5 -7.28,1.57 -12.22,1.17 3.8,-5.86 7.78,-0.95 7.91,-6.46l-5.45 -0.28c-4.6,0.37 -15.58,-0.64 -19.64,-2.59 1.96,-0.95 3.81,-1.72 5.66,-2.7 2.7,-1.45 3.28,-1.72 3.54,-4.68 -2.39,-1.48 -3.59,-0.66 -6.81,-0.28 -2.83,0.33 -5.02,0.4 -7.66,-0.07 -4.35,-0.77 -8.79,-2.58 -11.72,-4.81l2.75 -1.22c3.95,-1.16 6.3,0.09 7.02,-3.94 -1.51,-1.13 -10.47,-2.2 -11.2,-4.69 -0.08,-0.3 -0.31,-0.31 -0.46,-0.47l1.32 -0.69c3.3,-1.76 2.85,-1.02 2.39,-3.18 -2.33,-0.81 -7.32,-0.45 -10.29,-0.37 -0.67,5.45 5.53,6.36 7.91,10.61l-6.57 0.27c-0.12,3.16 2.1,4.17 3.93,5.53 6.31,4.72 11.31,5.57 19.42,6.86 -2.91,1.19 -5.36,1.04 -8.14,1.72l0.16 2.76z"/>
   <path class="fil25" d="M330.56 373.38c-5.6,0.67 -4.78,-4.59 0.15,-3.73l-0.15 3.73zm-9.58 -0.15c-0.76,-1.35 -0.85,1.81 -0.68,-1.83 0.3,-6.51 8.46,4.17 0.68,1.83zm-4.06 -2.61c1.29,4.24 -4.55,4.11 -3.25,0.03 0.89,-0.68 -0.07,-0.68 1.62,-0.84 3.16,-0.31 0.57,0.02 1.63,0.81zm-6.83 -0.65c0.44,3.1 -0.22,1.93 -0.49,3.5l-2.41 0.11c-1.43,-3.07 -0.35,-4.53 2.9,-3.61zm-10.37 -6.64c3.63,-2.16 4.19,0.15 3.19,3.08l-3.14 -0.26 -0.05 -2.82zm-10.65 -10.28l0.81 9.78c1.58,2.5 1.06,4.92 2.23,2.73l0.96 -2.98c3.95,0 3.57,0.88 3.04,3.73l-2.85 1.38c3.11,1.71 3.9,2.73 6.53,2.09 2.7,-0.4 3.82,-0.5 3.61,3.39l-3.35 0.1c0.64,1.48 0.87,1.24 -0.67,0.77 3.21,0.32 7.65,2.07 12.03,2.66 4.33,0.59 9.49,0.66 14.13,0.29 6.63,-0.52 18.56,-3.18 22.2,-7.1 -28.58,-5.74 -31.41,-14.09 -39.46,-17.64 -1.49,3.05 -1.5,1.9 -3.85,0.02l-0.21 2.95c-3.6,0 -4.03,0.58 -7.27,0.33 -2.69,-0.2 -3.82,0.02 -6,0.28l-1.88 -2.78z"/>
   <path class="fil25" d="M315.21 342.37c1.51,3.06 3.84,5.61 6.27,8.14 2.36,2.47 5.36,3.91 7.8,6.23 -4.33,-0.13 -8.29,-2.18 -12.46,-3.36 2.21,3.53 7.63,5.55 12.52,7.67 3.83,1.66 10.28,4.51 14.86,4.16l-0.16 -0.21c-0.46,-1.72 -0.46,-2.17 0.19,-3.72 2.91,-0.31 2.26,-0.88 3.49,1.32l2.97 -0.74c2.27,-1.16 0.76,-0.74 3.67,-0.74 2.91,0.68 0.94,0.53 3.85,-0.59 1.6,-0.62 2.6,-0.96 4.18,-1.29 2.1,-0.8 1.8,-1.02 4.14,-3.65 1.51,-1.71 2.35,-2.72 3.59,-4.52 1.86,-2.69 4.28,-6.41 5.39,-9.82 -8.69,5.52 -15.06,10.69 -29.25,11.03 -18.2,0.45 -25.39,-9.02 -31.05,-9.91z"/>
   <path class="fil26" d="M255.56 216.69c0.79,2.32 0.83,1.63 -0.5,3.13 -2.58,0.66 -4.03,-0.17 -2.43,-3.62l2.93 0.49zm-10.32 -7.43c5.85,0.43 4.47,4.34 0.56,3.86 -0.28,2.36 -0.45,1.32 0.3,3.05l2.52 0.69c0.27,3.2 -1.1,4.68 -3.88,2.33l-1.73 2c-0.63,0.63 -0.36,0.26 -1.16,0.95l5.45 0.28c-0.13,5.51 -4.11,0.6 -7.91,6.46 4.94,0.4 7.52,-0.67 12.22,-1.17 11.79,-1.25 8.35,-1.53 9.84,1.42 -1.85,2.53 -3.36,1.56 -6.48,1.93 2.83,3.7 9.07,7.77 13.55,9.51 -1.76,2.57 -1.16,1.34 -0.63,4.26 6.66,1.79 13.42,-0.26 20.11,1.33 1.56,3.52 1.53,3.7 4.74,5.56 4.53,2.63 2.89,0.35 8.52,0.29 -0.15,4.42 -0.47,4.63 4.85,7.15l2.48 0.94c-6.38,-12.77 -31.71,-32.82 -43.72,-41.75 -3.66,-2.72 -13.57,-10.13 -17.67,-11.63 -0.36,3.8 1.42,-1.34 -0.65,1.72 -0.09,0.13 -0.51,0.58 -0.59,0.43 -0.09,-0.16 -0.48,0.26 -0.72,0.39z"/>
   <path class="fil26" d="M135.84 144.61c-0.02,-2.17 -0.27,-4.35 2.35,-3.85 1.89,0.36 1.61,1.58 1.46,3.69l-3.81 0.16zm-20.75 -25.26l3.37 0.14 0.03 3.58 -3.59 0.13c3.16,2.38 3.56,-0.58 5.75,4.53 0.09,0.2 0.17,0.42 0.25,0.6l1.02 1.99 0.17 -3.68c5.37,-0.29 4.3,3.79 -0.04,3.49 0.16,0.13 0.39,0.26 0.51,0.34l1.45 0.98c0.14,0.09 0.32,0.21 0.45,0.31 2.54,1.89 2.68,3.23 4.07,5.2 0.21,-1.78 0.02,-3.78 2.32,-3.51 2.01,0.23 1.67,1.63 1.67,3.55 -1.26,0.7 -1.05,0.42 -3.05,0.82 1.41,1.71 -1.78,1.13 2.05,1.51l-0.09 1.05c0.5,0.74 0.43,1.19 1.2,1.77l-0.63 1.97c1.95,-1.71 0.86,-0.64 2.26,-1.53 0.36,0.77 -0.07,0.13 0.73,1.19l0.85 0.83c0.65,0.88 -0.03,0.11 1.11,1.15l8.89 7.23c2.15,2.24 -0.02,1.09 2.27,3.87l-0.01 -2.58c1.81,0.05 16.89,7.53 21.01,9.42 3.94,1.81 5.4,0.95 6.03,4.3 -4.53,1.75 -15.4,-6.36 -20.31,-7.08 2.22,4.17 11.63,13.38 16.66,15.25 -2.83,-4.4 -0.95,-0.96 0.01,-2.34 6.04,1.15 1.17,1.75 4.75,3.27l0.69 -0.53c0.99,-1.87 0.14,-0.23 -0.91,-3.36l4.54 0.62c5,1.41 2.06,2.14 2.95,3.19l3.62 -0.97c-0.83,0.23 -0.38,0.83 -1.42,-0.5 -0.33,-0.42 -0.15,-0.05 -0.32,-0.72 -1.01,-3.85 -0.03,-1.03 0.11,-1.22 -1.13,0.05 -0.41,1.33 -3.25,-1.31 -0.24,-0.23 -0.38,-0.47 -0.58,-0.68 -0.21,-0.22 -0.41,-0.48 -0.59,-0.73 3.33,-0.43 -0.48,0.31 2.85,-1.89 -1.81,-2.43 -15.16,-10.09 -18.72,-12.49 -9.62,-6.51 -27.98,-19.95 -35.8,-27.62l-15.87 -16.06c-0.23,4.23 1.24,2.83 1.54,6.52z"/>
   <path class="fil27" d="M148.11 156.86c6.16,11.45 13.42,14.48 15.27,19.12 -3.18,-0.55 -6.26,-1.97 -9.28,-1.11 -0.05,6.5 13.51,11.38 16.69,14.39 -4.42,0.9 -11.74,0.41 -8.08,4.31 4.33,4.63 15.73,8.08 22.3,8.81 -1.59,3.55 -6.84,7.97 -4.81,12.74 3.76,3.52 8.1,1.27 13.17,0.89 -6.49,11.2 -2.46,11.75 7.38,10.95 -2.59,6.74 -2.64,9.52 5.69,10.84 6.1,0.96 12.39,-0.24 17.98,0.41 -0.45,0.58 -0.53,0.71 -1.16,1.39l-1.7 1.61c-0.31,3.86 0.64,4.65 3.72,5.71 6.46,2.21 20.5,1.86 27.77,2.34 -2.1,1.3 -3.37,2.28 -3.18,5.68 4.58,6.05 21.75,4.85 29.56,5.13 -1.83,2.55 -1.83,2.21 -1.36,5.62l6.27 1.7c4.08,0.34 19.59,2.58 21.32,-1.39 -2.01,-3.58 -18.24,0.26 -23.56,-2.95 4.9,-4.11 6.91,-0.75 6.72,-5.9 -2.71,-1.45 -21.35,-0.21 -34.94,-2.74 2.2,-5.57 10.19,-3.3 9.34,-8.7 -7.2,-2.49 -30.14,2.51 -38.46,-2.77 2.83,-4.46 8.71,-3.97 9.34,-7.91 -4.7,-3.27 -24.27,3.21 -31.82,-2.21 0.89,-6.87 8.36,-6.22 8.61,-10.77 -2.62,-1.6 -11.08,2.81 -17.55,2.11 0.14,-2.8 0.78,-4.31 2.63,-5.35 1.72,-3.11 3.76,-3.71 4.31,-7.53 -5.64,-0.35 -9.73,3.18 -17.38,2.51 -0.17,-7.08 6.9,-8.74 7.55,-13.41 -2.25,-1.55 -8.49,-1.07 -12.25,-2.16 -4.14,-1.19 -6.96,-2.84 -10.1,-4.04 0.17,-0.19 0.4,-0.38 0.56,-0.51 0.16,-0.11 0.36,-0.33 0.56,-0.46 3.72,-2.44 8.61,-0.44 9.39,-4.63 -1.66,-1.53 -6.37,-2.58 -8.63,-3.65 -1.61,-0.75 -2.81,-1.44 -4.25,-2.31l-3.43 -3.2 10.7 0.38c-0.15,-3.32 0.33,-1.36 -1.51,-3.63 -5.03,-1.87 -14.44,-11.08 -16.66,-15.25 4.91,0.72 15.78,8.83 20.31,7.08 -0.63,-3.35 -2.09,-2.49 -6.03,-4.3 -4.12,-1.89 -19.2,-9.37 -21.01,-9.42l0.01 2.58z"/>
   <path class="fil27" d="M121.92 130.32l0.13 -0.19c4.34,0.3 5.41,-3.78 0.04,-3.49l-0.17 3.68z"/>
   <path class="fil28" d="M324.45 266.34c-1.15,0.95 -3.85,1.08 -5.11,1.06l0.63 2.34c0.27,2.06 5.68,12.88 7.06,16.94 1.08,3.18 2.62,6.31 2.18,10.21 -0.15,1.28 -0.9,3.71 -1.36,4.55 -1.01,1.83 -1.19,2.45 -3.75,2.04 -0.53,2.28 0.24,1.75 -2.09,2.21 2.62,9.05 -0.74,19.71 -10.34,19.08 -4.08,-0.27 -7.39,-3.57 -9.17,-6.17 -2.4,-3.49 -3.18,-7.85 -4.79,-10.79 -3.99,-2.51 -0.41,2.38 -1.77,-0.96 -0.14,-0.34 -0.44,-0.32 -0.56,-0.56l-0.82 2.61c-0.15,-2.59 0.48,-3.24 -1.4,-4.05 -2.32,2.58 0.28,3.28 -2.12,6.36l-0.83 -6.77c-2.14,1.99 -2.11,4.27 -2.79,6.74 -0.75,6.41 7.97,20.44 10.99,24.79 2.45,3.53 5.55,7.18 8.06,9.63 2.65,2.6 6.47,6.87 10.35,7.78 4.17,1.18 8.13,3.23 12.46,3.36 -2.44,-2.32 -5.44,-3.76 -7.8,-6.23 -2.43,-2.53 -4.76,-5.08 -6.27,-8.14 -7.13,0.09 -7.62,0.9 -8.05,-2.71l5.71 -0.77c-4.23,-7.71 -3.94,-8.97 6.09,-7.33l-2.2 -3.62c2.17,-1.39 1.71,-2.19 4.4,-2.54 1.62,-0.21 3.01,0.63 4.7,-0.33 1.52,-0.86 3.56,-5.56 3.66,-6.07 1.2,-6.49 0.38,-1.89 -0.97,-3.12l-3.68 7.63c-1.85,-3.04 0.87,-4.18 0.62,-7.13 -0.26,-2.97 -0.63,-4.74 -0.63,-8.35l2.8 1.47c-0.72,-7.59 -1.22,-4.5 -1.32,-4.42 0.14,0.04 0.36,-0.07 0.41,0.1 0.05,0.19 0.34,0.13 0.42,0.19l1.38 1.18c0.2,-0.24 0.42,-0.92 0.53,-0.77 0.09,0.13 0.36,-0.53 0.48,-0.74 0.11,-0.18 0.28,-0.45 0.4,-0.66l8.81 -0.94c0.62,3.65 1.28,3.31 3.06,3.64 1.92,-4.72 -0.66,-1.21 -1.18,-11.58 -0.11,-2.1 0.18,-4.43 0.16,-6.69 -0.01,-1.14 -0.15,-2.4 -0.36,-3.08 -0.07,-0.22 -0.15,-0.36 -0.23,-0.58l-1.34 -2.92 3.97 -0.07c0.09,0 0.31,0.01 0.45,0.06 0,3.07 -0.69,1.44 -0.44,4.39 0.28,3.26 0.74,1.71 0.66,5.83 -0.06,2.95 0.53,3.96 0.27,6.73 -0.46,4.97 -1.57,1.97 0.35,7.12 2.79,-5.96 -0.15,-5.6 1.37,-9.32 0.03,3.95 -0.44,8.28 0.57,11.97 2.17,-3.17 1.46,-11.64 1.09,-15.17 -0.5,-4.88 -1.26,-9.01 -2.72,-13.46 -3.46,-0.28 -11.84,1.43 -13.5,-1.77 1.6,-3.05 8.87,-1.6 12.34,-1.75l-1.1 -3.89c-4.16,-1.34 -4.88,0.9 -6.25,-2.48 1.56,-1.87 1,-1.3 4.7,-1.49l-4.72 -8.83c-5.81,-1.99 0.68,-0.35 -4.57,0.21 -3.38,0.36 -2.71,-0.49 -5.74,0.53 -1.79,5.45 2.06,4.89 -1.16,5.5z"/>
   <path class="fil28" d="M307.04 303.34l0.86 1.86 -1.7 1.53 0.52 2.76c0.98,0.77 0.52,-0.19 0.81,1.32 1.7,1.47 0,-1.29 1.85,2.03l1.25 -0.54c0.74,-2.88 0.51,-2.84 3.68,-2.47l-0.11 3.32c-0.9,1.06 1.39,1.77 -1.6,1.1l4.36 -0.79c1.08,-1.98 1.34,-2.96 1.27,-5.33 -4.11,-1.39 -5.09,-1.72 -6.4,-6.01 -0.78,-1.01 -0.36,0.14 -0.79,-1.63 -0.27,-1.09 -0.26,-0.69 -0.13,-1.83 0.13,-1.14 0.89,-2.58 1.42,-3.81l-4.95 0.72c0.83,2.28 1.58,1.75 -0.09,3.61l-2.59 1.25c-0.09,-0.16 -0.38,0.12 -0.54,0.23 0.72,1.76 -0.08,0.3 1.92,2l0.96 0.68z"/>
   <path class="fil29" d="M356.79 248.57l1.23 -0.36c1.43,0.07 0.39,-0.12 1.95,0.38l0.53 2.92 -3.31 0.38c-0.12,-0.53 -0.33,-1.02 -0.35,-0.91 -0.01,0.11 -0.22,-0.45 -0.23,-0.58 -0.1,-1.24 -0.21,-0.69 0.18,-1.83zm0.02 -7.33l3.31 -0.17c0.83,5.72 -4.78,4.18 -3.31,0.17zm0.05 -4.01l-0.3 -3.39 3.46 -0.35c0.26,1.24 0.44,0.4 0.27,1.59 -0.31,2.13 -0.24,1.07 -0.56,1.7l-2.87 0.45zm-23.7 -25.06c-0.85,-3.02 3.28,-3.47 3.9,-1.22 0.74,2.69 -3.28,3.42 -3.9,1.22zm10.7 0.74c-1.91,2.21 -4.88,-1.03 -2.8,-2.98 2.13,-1.99 4.31,1.24 2.8,2.98zm-7.34 -6.84c-4.05,0.57 -4.36,-2.25 -2.52,-3.34 3.3,-1.95 3.33,1.42 2.52,3.34zm-7.07 -2.85c1.34,3.04 -1.31,4.26 -3.07,2.34 -0.71,-0.77 -0.78,-1.45 -0.04,-2.3 1.96,-2.27 2.69,-0.3 3.11,-0.04zm-10.1 -0.27l3.06 -0.38 0.16 3.42c-3.03,0.58 -4.23,-0.09 -3.22,-3.04zm17.78 -4.05c-5.57,2.29 -5.57,-5.42 -0.33,-2.95l0.33 2.95zm-24.8 -22.17c1.09,0.9 2.51,1.62 4.12,2.49 3.25,1.74 3.11,1.01 4.44,3.46 -1.4,2.57 0.39,1.14 -3.51,2.16 -2.48,0.65 -2.45,0.12 -4.21,1.53 1.46,1.93 9.79,5.56 13.09,6.68 3.87,1.3 3.88,0.27 4,3.64 -2.89,1.29 -8.23,-1.61 -11.3,-2.95 -1.66,-0.72 -3.67,-1.47 -5.12,-2.26 -1.82,-0.99 -2.83,-2.44 -4.33,-2.96 -4.94,0.14 2.39,4.38 -6.96,1.48 2.16,2 6.14,3.21 9.18,4.41 9.17,3.63 7.41,1.61 7.33,5.23 -2.19,1.18 -6.25,1 -9.5,1.86 1.42,4.61 9.98,7.37 15.95,9.95 5.17,2.23 13.22,3.78 17.29,7.36 -1.34,3.87 -0.92,0.73 -3.52,3.69 1.44,1.62 2.8,2.48 4.39,3.97 1.34,1.26 2.43,2.09 4.26,3.16 3.9,2.29 7.22,2.9 8.19,8.28 -4.93,-0.11 -5.87,-2.04 -9.13,-4.32 -0.01,1.38 -0.63,1.81 -1.39,2.6l-7.29 1.46c6.05,7.25 13.59,7.71 16.32,11.39 -0.81,1.58 0.07,0.45 -1.98,1.81l-2.17 1.34c2.15,1.27 6.43,4.97 8.89,5.42 2.16,-1.67 -0.48,-0.64 2.86,-0.97 -0.89,-2.15 -0.02,-0.2 -0.96,-1.8 -1.3,-2.2 -1.71,0.4 -0.27,-0.39 1.56,0.77 0.06,0.77 1.53,-0.23 2.82,-1.93 1.04,-0.79 1.87,-2.38l-0.77 -3.54 4 -0.03 -2.2 -1.13c-2.25,-1.3 -1.17,0.34 -0.5,-0.79 1.89,-3.16 1.68,0.62 0.55,-1l0.26 -0.99c0.01,-0.12 0.07,-0.39 0.08,-0.55l-0.04 -3.27c-0.23,-7.89 -14.91,-31.31 -18.97,-37.78 -3.36,-5.38 -20.76,-32.07 -23.84,-33.85l-1.79 -0.16c-0.38,1.18 0.23,1.6 -1.92,6.01 -1.74,3.58 -3.25,3.11 -6.93,0.69 -0.55,0.54 -1.51,-1.58 0,1.28z"/>
   <path class="fil29" d="M276.04 94.19c1.95,-2.18 1.62,2.83 1.64,-2.76l1.63 0.87c0.79,0.62 -0.19,-1.04 0.95,1.13 0.02,-2.41 -0.58,-1.43 0.77,-2.33 0.91,-0.61 2.06,-0.01 2.97,0.42 -2.43,-19.22 -1.48,-21.68 1.9,-39.39 -4.34,3.28 -7.7,10.14 -9.59,17.2 -2.96,11.1 -0.56,14.76 -0.27,24.86z"/>
   <path class="fil29" d="M128.53 136.96l0.94 0.86c2,-0.4 1.79,-0.12 3.05,-0.82 0,-1.92 0.34,-3.32 -1.67,-3.55 -2.3,-0.27 -2.11,1.73 -2.32,3.51z"/>
   <path class="fil30" d="M128.72 148.26c3.37,-0.69 4.18,0.08 3.4,3.17l-3.1 0.31 -0.3 -3.48zm-7.18 -11.56l0.32 -2.91c2.16,-0.08 4.3,-0.24 3.78,2.28 -0.53,2.58 -2.88,1.43 -4.1,0.63zm-22.85 -45.45c0.75,4.47 2.29,7.99 4.3,11.74 1.88,3.52 5.82,6.65 5.94,10.51l-5.26 -0.94 -2.07 1.54c0.79,1.19 0.86,1.56 1.29,2.23l4.63 6.08c0.03,-5.25 4.93,-4.3 3.67,0.66l-3.6 0.07c0.12,0.16 0.35,0.18 0.42,0.45l6.83 6.38c-0.31,-5.25 3.82,-5 3.62,-0.38l-3 0.83c5.92,3.2 2.65,3.63 6.08,6.28 -0.65,2.22 0.86,1.22 -1.49,1.36 2.32,3.58 2.07,-0.07 2.79,4.06 -2.67,1.9 -6.23,-0.53 -9.41,-1.35 2.96,6.6 18.46,15.74 24.89,18.67 0.08,-0.27 0.53,-0.23 -0.84,0.19l5.25 1.5c-0.41,2.96 -0.52,2.89 -4.32,3.15 -2.72,0.19 -5.49,0.02 -8.2,-0.13 1.67,2.13 -0.29,0.44 2.16,1.26 2.39,0.79 4.78,0.31 7.61,0.31 -6.63,6.15 1.17,9.04 8.24,12.32 -0.18,0.06 -0.43,-0.04 -0.54,0.18 -0.11,0.23 -0.44,0.14 -0.59,0.17 -0.07,0.01 -2.2,0.4 -2.3,0.42 3.37,2.31 7.84,0.24 9.12,2.45 1.09,4.24 -9.37,6.51 -14.83,6.19 1.27,1.31 -0.17,0.57 3.54,1.59l1.33 0.28c1.7,6.2 13.48,11.52 18.21,11.53 -2.44,0.46 -0.54,0.4 -1.72,1.63 3.44,-0.62 4.97,-2.11 7.55,-0.63 -0.52,2.8 -0.79,2.89 -8.44,4.34 -4.22,0.8 -7.78,0.77 -12.12,1.02 0.81,2.69 -0.1,0.33 1.51,1.47 10.12,-2.02 8.09,2.43 15.22,4.1 5.87,1.37 4.03,0.46 5.67,2.68l3.72 -0.58c0.06,4.9 -1.02,2.03 -3.43,5.74 3.29,-0.58 1.88,-0.34 4.57,1.52 1.74,1.2 2.44,1.42 4.72,2.2 -2.02,-0.73 -0.11,-0.38 -0.86,1.33 2.1,0.05 2.03,0.04 3.5,0.69l1.34 -1.26c1.78,1.44 2.97,1.34 4.78,2.7l-1.38 4.35c8.97,6.41 19.38,6.69 30,7.52 3.94,0.31 3.74,0.46 4.77,1.54l1.7 -1.61c0.63,-0.68 0.71,-0.81 1.16,-1.39 -5.59,-0.65 -11.88,0.55 -17.98,-0.41 -8.33,-1.32 -8.28,-4.1 -5.69,-10.84 -9.84,0.8 -13.87,0.25 -7.38,-10.95 -5.07,0.38 -9.41,2.63 -13.17,-0.89 -2.03,-4.77 3.22,-9.19 4.81,-12.74 -6.57,-0.73 -17.97,-4.18 -22.3,-8.81 -3.66,-3.9 3.66,-3.41 8.08,-4.31 -3.18,-3.01 -16.74,-7.89 -16.69,-14.39 3.02,-0.86 6.1,0.56 9.28,1.11 -1.85,-4.64 -9.11,-7.67 -15.27,-19.12 -2.29,-2.78 -0.12,-1.63 -2.27,-3.87l-8.89 -7.23c-1.14,-1.04 -0.46,-0.27 -1.11,-1.15l-0.85 -0.83c-0.8,-1.06 -0.37,-0.42 -0.73,-1.19 -1.4,0.89 -0.31,-0.18 -2.26,1.53 -2.36,1.56 -3.05,0.61 -3.59,-2 0.87,-1 0.03,-0.55 1.31,-1.22 0.26,-0.13 1.37,-0.44 1.71,-0.52l0.09 -1.05c-3.83,-0.38 -0.64,0.2 -2.05,-1.51l-0.94 -0.86c-1.39,-1.97 -1.53,-3.31 -4.07,-5.2 -0.13,-0.1 -0.31,-0.22 -0.45,-0.31l-1.45 -0.98c-0.12,-0.08 -0.35,-0.21 -0.51,-0.34l-0.13 0.19 -1.02 -1.99c-0.08,-0.18 -0.16,-0.4 -0.25,-0.6 -2.19,-5.11 -2.59,-2.15 -5.75,-4.53 -0.16,-1.23 -0.04,-2.92 0.19,-3.85 -0.3,-3.69 -1.77,-2.29 -1.54,-6.52 -0.64,-2.66 -5.96,-9.13 -8.1,-13.07 -2.33,-4.29 -4.31,-13.72 -5.69,-15.88 -0.7,2.82 0,4.91 0.09,8.1l-1.16 -0.73z"/>
   <path class="fil30" d="M300.47 262.99c-2.76,0.33 -0.86,0.73 -3.1,-0.42 -0.8,-2.19 -0.68,-1.09 0.2,-3.37l3.21 0.91 -0.31 2.88zm-7.07 -0.47c-2.86,2.34 -4.48,0.53 -3.22,-3.28l3.2 0.12 0.02 3.16zm-9.06 4.87c6.82,4.93 15.63,-2.16 23.41,3.87l4.84 4.8c-0.25,-5.39 4.19,-5.05 3.48,0.27l-3.73 -0.04 0.93 3.36c5.59,-0.9 3.27,6.37 -0.79,2.63 -2.99,-0.42 -1.25,0.33 -3.2,-1.3l-0.42 2.13 -3.5 -0.13c1.67,2.87 0.44,-0.54 8.06,2.51 1.39,0.56 2.38,0.65 3.58,1.6 0.81,0.64 0.5,0.46 1.02,1.12l0.7 0.99c0.12,0.17 0.3,0.42 0.4,0.55 0.1,0.15 0.25,0.4 0.4,0.58l-0.08 -2.95 3.41 -0.81 -0.27 -1.6c-0.94,-5.24 -10.84,-23.21 -13.99,-24.87l-2.48 -0.94c-5.32,-2.52 -5,-2.73 -4.85,-7.15 -5.63,0.06 -3.99,2.34 -8.52,-0.29 -3.21,-1.86 -3.18,-2.04 -4.74,-5.56 -6.69,-1.59 -13.45,0.46 -20.11,-1.33 -0.53,-2.92 -1.13,-1.69 0.63,-4.26 -4.48,-1.74 -10.72,-5.81 -13.55,-9.51 -4.33,0.58 -10.52,1.09 -14.94,1.04 -8.57,-0.11 -7.73,-5.66 -4.1,-6.16 -4.86,-0.52 -8.15,-0.8 -12.62,-1.92 -4.54,-1.14 -8.68,-3.55 -9.85,-3.82 -3.87,-1.74 -5.46,-0.24 -9.55,-0.56 -2.63,-0.2 -2.84,-0.79 -4.45,-1.17 -3.76,-0.89 -0.68,-1.13 -3.49,0.34 -1.85,1.04 -2.49,2.55 -2.63,5.35 6.47,0.7 14.93,-3.71 17.55,-2.11 -0.25,4.55 -7.72,3.9 -8.61,10.77 7.55,5.42 27.12,-1.06 31.82,2.21 -0.63,3.94 -6.51,3.45 -9.34,7.91 8.32,5.28 31.26,0.28 38.46,2.77 0.85,5.4 -7.14,3.13 -9.34,8.7 13.59,2.53 32.23,1.29 34.94,2.74 0.19,5.15 -1.82,1.79 -6.72,5.9 5.32,3.21 21.55,-0.63 23.56,2.95 -1.73,3.97 -17.24,1.73 -21.32,1.39z"/>
   <path class="fil31" d="M276.53 331.86c1.64,1.23 1.12,0.48 1.97,2.89 3.91,6.53 5.13,20.04 2.13,27.85 -4.78,-0.54 -14.11,-14.58 -16.35,-19.04 -4.61,-9.15 -6.78,-17.51 -6.85,-29.24 6.85,1.76 18.31,11.72 19.1,17.54zm-12.29 -44.1c1.19,-3.89 3.78,-7.37 6.07,-10.12l3.9 0.23 3.47 0.21c2.07,3.23 -0.35,3.12 4.07,4.42 -1.18,16.38 -0.1,27.79 6.41,42.33 1.71,3.82 4.68,7.92 5.97,11.53 0.12,0.07 0.29,0.08 0.33,0.25l2.83 3.41c3.58,4.71 9.97,10.46 10.99,12.23 8.05,3.55 10.88,11.9 39.46,17.64 -3.64,3.92 -15.57,6.58 -22.2,7.1 -4.64,0.37 -9.8,0.3 -14.13,-0.29 -4.38,-0.59 -8.82,-2.34 -12.03,-2.66 -5.59,-2.25 -12.21,-5.05 -15.78,-8.5 1.92,-14.38 2.53,-13.18 -0.04,-28.01l-0.73 -2.21c-1.93,-1.91 -3.72,-11.34 -16.63,-20.24 -2.82,-1.95 -5.73,-2.83 -8.34,-4.84 -0.14,-6.34 3.16,-19.39 6.38,-22.48zm4.41 -13.38c-2.53,0.93 -0.46,-0.67 -2.04,2.02l-4.58 7.89c-14.73,0.96 -35.15,-0.52 -49.33,0.07 -3.36,0.14 -3.22,-0.42 -4.06,2.2 2.3,1.99 8.43,1.15 12.26,1.15l39.08 0.17 -1.85 4.28c-5.18,0.21 -10.63,0.07 -15.85,0.07 -3.64,0 -12.32,-1.54 -13.95,1.79 1.52,2.23 2.9,1.57 6.56,1.52l22 0.1 -2.36 12.39 -3.32 0.78c-2.12,0.47 0.63,-1.4 -2.3,0.69 0.82,3.8 1.61,1.28 5.17,3.69 0.93,21.3 5.87,33.67 16.9,45.77 31.3,34.31 83.96,25.16 104.15,-9.53 1.95,-3.34 3.61,-6.49 5.12,-10.32 1.21,-3.08 2.21,-9.54 3.92,-11.59 -0.71,-7.58 1.3,-14.46 -0.42,-23.83 -0.97,-5.26 -4.05,-15.36 -6.18,-17.53 -2.12,1.54 2.69,-0.14 -2.08,0.89l-1.22 -1.32c1.75,5.58 6.38,12.25 5.87,19.16 1.08,1.51 0.69,0.55 0.41,2.75 2.96,4.11 0.07,22.25 -2.35,25.71 -8.6,12.32 -29.01,18.81 -45.28,13.86 -6.91,-2.1 -16.43,-7.91 -18.59,-12.91 5.16,0.49 6.77,1.4 12.75,1.11 3.59,-0.84 7.46,-1.45 9.33,-4.21 -4.13,-0.8 -1.79,0.2 -2.83,-1.25 -4.62,1.79 -9.45,3.47 -14.62,1.61 -10.03,-1.64 -10.32,-0.38 -6.09,7.33l-5.71 0.77c0.43,3.61 0.92,2.8 8.05,2.71 5.66,0.89 12.85,10.36 31.05,9.91 14.19,-0.34 20.56,-5.51 29.25,-11.03 -1.11,3.41 -3.53,7.13 -5.39,9.82 -1.24,1.8 -2.08,2.81 -3.59,4.52 -2.34,2.63 -2.04,2.85 -4.14,3.65 -2.15,4.08 -7.51,8.15 -12.27,7.64 -2.14,-0.22 -4.51,-0.49 -5.92,-1.67 -4.58,0.35 -11.03,-2.5 -14.86,-4.16 -4.89,-2.12 -10.31,-4.14 -12.52,-7.67 -3.88,-0.91 -7.7,-5.18 -10.35,-7.78 -2.51,-2.45 -5.61,-6.1 -8.06,-9.63 -3.02,-4.35 -11.74,-18.38 -10.99,-24.79 -0.64,-0.88 -0.02,0.46 -0.88,-1.6l-1.89 -11.16c-0.34,-4.76 -0.15,-9.46 0.21,-14.21 2.46,-1.08 3.44,-0.43 6.09,-0.2l0.79 2.53c2.16,5.39 4.42,0.75 4.88,5.27 -3.68,1.47 -6.12,-1.35 -7.93,2.21 1.77,2.68 3.64,1.01 7.81,1.82l0.15 3.34c-3.03,2.36 -2.52,-1.01 -3.78,2.95 3.68,3.63 4.08,-2.65 4.84,5.68 1.61,2.94 2.39,7.3 4.79,10.79 1.78,2.6 5.09,5.9 9.17,6.17 9.6,0.63 12.96,-10.03 10.34,-19.08l-0.62 -1.4c-14.17,0.45 1,-8.78 -6.65,-7.8 -0.68,0.08 -1.26,0.64 -1.66,1.14 -1.04,1.3 -1.2,2.65 -1.25,4.49 1.31,4.29 2.29,4.62 6.4,6.01 6.13,2.79 -3.38,18.71 -8.66,12.07 -1.95,-0.31 -1.49,0.26 -3.23,-1.75 -1.07,-1.22 -1.5,-2.15 -1.79,-3.81 -0.8,-0.66 -0.58,-0.19 -1.29,-1.23 -0.56,-0.8 -0.53,-1 -0.94,-1.98 -1.65,-5.52 -4.26,-14.9 -1.79,-20.52 1.94,0.91 2.12,2.13 2.3,2.3 2.41,2.2 6.65,1.62 9.76,1.66 3.45,-0.18 5.92,0.65 6.92,-2.32 -2.63,-2.5 -9.51,-0.71 -13.39,-1.2 0.92,-2.25 3.91,-1.97 2.61,-4.88 -2.24,-0.72 -6.61,3.06 -13.11,-0.37 2.06,-1.2 4.92,-2.27 7.98,-3.23l-0.31 -3.12c-5.26,1.19 -15.47,2.21 -20.29,-0.48 1.74,-1.39 1.65,-0.92 3.89,-1.82 3.55,-1.42 2.65,-0.12 2.51,-3.34 -2.16,-0.84 -5.58,0.88 -9.5,0.81 -3.81,-0.06 -7.62,-0.86 -11.25,-0.54z"/>
   <path class="fil31" d="M329.74 337.23c-1.14,3 -0.22,3.68 2.9,2.91l0.3 -3.06c-3.09,-0.72 -1.07,-0.69 -3.2,0.15z"/>
   <path class="fil32" d="M284 91.52c1.25,3.67 2.22,8.93 3.49,12.74 1.44,4.31 2.77,7.82 4.47,11.75 1.9,4.39 10.27,19.68 10.51,21.65 2.47,1.9 3.9,5.48 5.51,8.07 1.86,3.01 3.11,4.71 4.98,7.56 2.06,3.13 9.55,13.04 10.01,15.62 3.08,1.78 20.48,28.47 23.84,33.85 4.06,6.47 18.74,29.89 18.97,37.78 4.48,4.08 7.95,28.58 6.55,36.07 -2.96,-4.19 -10.7,-11.52 -14.92,-14.42l3.87 -1.35c-0.49,-1.74 -0.1,-0.77 -0.72,-1.75l-0.75 -1.01c-0.1,-0.12 -0.3,-0.31 -0.44,-0.47 -2.46,-0.45 -6.74,-4.15 -8.89,-5.42l2.17 -1.34c2.05,-1.36 1.17,-0.23 1.98,-1.81 -2.73,-3.68 -10.27,-4.14 -16.32,-11.39l7.29 -1.46 -0.02 -2.73c-1.97,-0.52 -2.71,-0.33 -4.26,-1.67 -5.1,0.1 -12.88,-4.16 -16.13,-6.93 3.53,-0.25 5.83,1.29 8.56,-0.15 -0.23,-4.48 -2.28,-1.99 -8.4,-3.53 -2.6,-0.66 -1.19,-0.06 -2.69,-1.14 -3.2,0.29 -6.02,-0.85 -8.81,-1.95 2.57,-3.69 3.07,0.44 3.69,-4.65 -5.27,-1.82 -18.96,-4.42 -24.33,-10.85 3.31,-2.2 9.21,-0.83 9.92,-5.16 -4.12,-3.18 -12.91,2.71 -30.29,-12.14 2.57,-0.32 4.98,-0.21 7.6,-0.57 3.34,-0.47 4.26,-0.5 5.46,-2.78 -1.61,-2.53 0.78,-0.48 -5.66,-2.53 -2.21,-0.71 -3.85,-1.58 -5.5,-2.63 -3.3,-2.09 -5.2,-4.41 -7.7,-7.64 -1.79,-3.89 -2.92,-5.34 -3.53,-10.47 3.47,1.26 6.47,3.38 10.03,2.16 0.67,-2.53 -0.6,-2.67 -2.59,-4.59 -4.19,-4.04 -7.63,-9.75 -7.32,-16.22 2.05,1.32 5.52,4.95 9.13,4.04 0.28,-3.04 -2.07,-4.45 -3.58,-7.64 -3.51,-5.94 -5.55,-13.94 -5.31,-22.2 3.58,1.89 3.41,5.35 7.91,5.02 0.74,-2.12 -2.5,-10.21 -3.14,-13.94 -1.02,-5.89 -1.1,-11.42 -0.23,-17.56 1.54,0.92 1.65,1.82 2.45,2.96l2.05 3.37 3.13 0.12c-0.29,-10.1 -2.69,-13.76 0.27,-24.86 1.89,-7.06 5.25,-13.92 9.59,-17.2 -3.38,17.71 -4.33,20.17 -1.9,39.39zm-184.24 -7.64c1.38,2.16 3.36,11.59 5.69,15.88 2.14,3.94 7.46,10.41 8.1,13.07l15.87 16.06c7.82,7.67 26.18,21.11 35.8,27.62 3.56,2.4 16.91,10.06 18.72,12.49 2.37,0.24 2.18,0.57 4.42,1.98l12.1 7.08c5.39,3.12 10.38,6.13 15.78,9.27 2.04,1.18 29.5,17.06 30.96,19.39 4.1,1.5 14.01,8.91 17.67,11.63 12.01,8.93 37.34,28.98 43.72,41.75 3.15,1.66 13.05,19.63 13.99,24.87 1.63,1.46 1.26,1.49 1.54,3.76 4.55,9.67 -1.23,11.31 -0.02,14.75 2.56,0.41 2.74,-0.21 3.75,-2.04 0.46,-0.84 1.21,-3.27 1.36,-4.55 0.44,-3.9 -1.1,-7.03 -2.18,-10.21 -1.38,-4.06 -6.79,-14.88 -7.06,-16.94l-10.81 -15.7c5.45,-0.61 10.04,-1.03 15.74,-0.55 7.61,0.65 8.64,0.37 11.02,6.61l4.72 8.83c-3.7,0.19 -3.14,-0.38 -4.7,1.49 1.37,3.38 2.09,1.14 6.25,2.48l1.1 3.89c-3.47,0.15 -10.74,-1.3 -12.34,1.75 1.66,3.2 10.04,1.49 13.5,1.77 1.46,4.45 2.22,8.58 2.72,13.46 0.37,3.53 1.08,12 -1.09,15.17 0.73,4.24 -1.97,9.26 -4.09,12.52 -3.06,4.69 -4.19,5.26 -8.41,8.49 1.04,1.45 -1.3,0.45 2.83,1.25 4.09,-0.68 5.81,-5.79 9.38,-8.53 0.21,-4.05 5.03,-7.15 4.99,-22.73 -0.02,-8.56 -3.71,-19.38 -3.54,-24.2 -0.74,-0.81 -0.49,-0.03 -1.41,-1.98 -0.34,-0.73 -0.58,-1.68 -0.87,-2.49 -1.63,-5.71 -4.72,-9.99 -6.63,-14.72 4.29,0.56 13.32,5.26 16.34,7.66 1.62,1.28 1.04,0.75 1.97,2.03 1.73,0.49 -0.14,-0.3 1.36,0.6 7.86,4.74 13.88,16.16 16.27,18.89l1.22 1.32c4.77,-1.03 -0.04,0.65 2.08,-0.89 -1.64,-5.5 -2.25,-2.56 -1.74,-9.82 0.68,-9.78 -0.87,-19.69 -3.65,-28.95 -9.03,-30.04 -29.5,-57.42 -46.65,-81.6 -16.67,-23.51 -38.91,-56.49 -39.8,-88.54 -0.58,-21.08 7.24,-29.04 6.99,-34.47 -3.96,0.11 -7.12,4.25 -9.54,6.78 -9.07,9.47 -11.18,21.51 -11.77,34.81 -0.7,-1.97 -1.12,-4.55 -2.58,-6.01 -6.8,2.25 -3.45,25.39 -2.91,31.47 -3.6,-3.89 -0.77,-3.06 -4.36,-2.93 -2.62,7.83 -0.31,18.45 2.12,25.64 -0.17,0.08 -0.43,0.11 -0.55,0.16l-2.34 1.25c-3.87,4.89 3.47,19.28 4.23,21.16 -1.72,-1.23 -1.52,-1.88 -4.3,-1.89 -1.23,2.21 -0.75,3.1 -0.78,5.77 -4.82,0.25 -9.86,0.11 -14.71,0.11 -3.55,0 -10.72,-1.33 -12.76,1.46 1.22,2.4 -0.88,0.92 2.42,1.76l25.68 0.07 1.29 4.44c-3.08,0.13 -6.18,0.1 -9.26,0.06 -8.98,-0.13 -6.68,0 -7.7,1.78 1.82,2.42 5.74,1.52 9.18,1.5 14.57,-0.09 7.16,-0.8 15.45,6.64 2.24,2.02 4.46,3.27 6.75,4.94 -3.06,0.05 -7.02,-0.84 -9.27,-0.09 -1,5.67 14.33,14.81 22.3,16.83 -3.15,1.16 -1.26,-0.35 -2.83,1.89 1.41,3.57 6.69,6.74 10.32,8.89 3.67,2.18 12.89,5.16 13.13,6.31 0.5,2.42 -0.6,4.18 4.02,6.08 9.33,3.86 8.82,8.31 21.16,12.16 -2.86,1.15 -1.62,-0.29 -3.35,1.95 1.12,3.55 11.2,9.83 14.68,12.28l0.33 3.59c0.88,3.59 4.5,3.96 6.54,7.25 -3.21,-0.95 -5.15,-2.39 -8.1,-3.65 -9.42,-4.01 -8.14,-0.83 -13.14,-7.5 -1.82,-2.45 -2.59,-4.79 -6.04,-3.48 -0.03,2.28 2.4,4.42 3.71,6.14 -8.29,0.59 -6.48,-1.14 -23.57,0.83 -1.98,-2.16 -3.37,-4.44 -5.59,-6.66 -24.34,-24.34 -46.65,-38.82 -76.8,-56.66 -10.29,-6.08 -20.38,-11.84 -30.72,-17.95 -26.78,-15.81 -62.85,-39.26 -80.67,-65.31 -3.35,-4.9 -6.29,-10.13 -7.93,-16.43 -3.43,-13.17 3.05,-16.85 0.68,-20.43 -2.26,0.26 -2.7,-0.25 -4.27,6.68 -0.77,3.39 -0.41,6.3 -1.11,9.41z"/>
   <path class="fil32" d="M143.88 182.31l2.64 1.32 -2.63 0.81c-13.21,-0.66 -8.78,-3.99 -14.29,-3.76 -1.58,8.23 10.64,19.98 15.6,21.86 -0.17,0.13 -0.42,0.26 -0.53,0.34l-1.41 1.04c-2.97,2.98 5.27,12.75 19.23,15.34 -3.19,0.94 -4.11,0.42 -6.34,1.02 -5.48,1.46 2.85,7.91 4.32,8.83 4.24,2.68 6.16,2.47 11.6,3.08 -3.13,2.12 -6.39,1.36 -8.32,3.58 1.56,4.88 8.99,5.14 13.47,5.26 -1.81,2.66 -3.19,1.8 -4.8,4.32 1.41,3.63 6.15,3.96 10.04,4.6 -2.06,1.57 -1.61,0.46 -1.26,3.4 6.61,3.4 6.11,2.06 10.23,2.82 4.91,0.91 0.92,1.35 5.4,2.92 3.65,1.27 7.99,0.54 11.54,0.18 2.23,3.48 3.33,3.82 8.82,3.91 3.85,0.06 7.32,-0.49 11.08,-0.68 3.67,5.72 6.79,4.62 18.44,4.11 0.09,0.18 0.16,0.44 0.21,0.57 2.29,5.27 6.96,4.58 15.63,4.55 0.43,3.4 1.11,3.59 4.06,4.67 1.58,-2.69 -0.49,-1.09 2.04,-2.02 -2.73,-2.42 -1.1,0.18 -2.11,-2.48 2.9,-2.82 5.41,-2.2 5.82,-5.85 -4.31,-1.82 -6.06,5.38 -21.13,1.54 2.57,-3.63 5.38,-1.86 5.91,-6.01 -2.72,-1.5 -2.42,-0.22 -5.14,0.81 -1.97,0.74 -3.97,0.81 -6.13,0.95 -4.51,0.3 -9.29,0.28 -13.45,-0.27 2.28,-4.69 7.34,-3.74 6.44,-7.59 -2.78,-1.15 -3.26,0.28 -5.86,1.97 -4.09,2.65 -16.2,2.94 -20.72,1.72 2.5,-4.26 6.82,-4.84 6.85,-8.39 -4.46,-1.26 -7.44,6.38 -18.89,5.62 1.38,-2.6 4.06,-3.77 3.17,-6.75l-1.07 -0.28c-0.12,-0.01 -0.37,-0.05 -0.51,-0.04 -0.14,0.01 -0.37,0.03 -0.51,0.05 -0.48,0.09 -1.11,0.48 -1.44,0.66 -1.35,0.74 -1.66,1.25 -3.32,1.89 -2.79,1.06 -6.11,1.01 -9.34,0.45 1.61,-3.04 4.85,-2.33 4.95,-7.87 -5.35,-0.26 -5.39,3.14 -13.84,1.31 0.92,-2.77 4.78,-4.27 3.93,-9.01 -3.75,-0.54 -5.45,1.49 -11.45,0.32 4.68,-4.36 6.12,-1.07 11.24,-10.77 -1.47,-0.65 -1.4,-0.64 -3.5,-0.69 -3.25,4.41 -11.85,4.22 -19.35,-1.87l10.92 -3.18c2.41,-3.71 3.49,-0.84 3.43,-5.74l-3.72 0.58c-8.47,1.18 -19.64,-1.9 -20.89,-6.78 -1.61,-1.14 -0.7,1.22 -1.51,-1.47 4.34,-0.25 7.9,-0.22 12.12,-1.02 7.65,-1.45 7.92,-1.54 8.44,-4.34 -2.58,-1.48 -4.11,0.01 -7.55,0.63 -10.06,3.5 -24.09,-8.78 -25.91,-16.06l4.55 1.03c5.46,0.32 15.92,-1.95 14.83,-6.19 -1.28,-2.21 -5.75,-0.14 -9.12,-2.45 -9.39,1.31 -22.89,-11.93 -25.36,-17.38l10.78 2.72c2.71,0.15 5.48,0.32 8.2,0.13 3.8,-0.26 3.91,-0.19 4.32,-3.15l-5.25 -1.5c-11.35,1.91 -27.68,-14.19 -29.92,-22.56l5.87 3.7c3.18,0.82 6.74,3.25 9.41,1.35 -0.72,-4.13 -0.47,-0.48 -2.79,-4.06 -2.83,-0.49 -5.17,-3.03 -7.7,-5.35 -2.08,-1.91 -4.3,-4.36 -6.29,-6.99 -2.66,-3.52 -7.69,-11.95 -8.44,-17.55 1.28,0.6 5.43,3.46 6.05,4.39l5.26 0.94c-0.12,-3.86 -4.06,-6.99 -5.94,-10.51 -2.01,-3.75 -3.55,-7.27 -4.3,-11.74 -1.67,-5.61 0.26,-7.82 -2.4,-9.86 -2.53,1.26 -1.02,-1.03 -1.83,2.46l1.18 9.54c1.01,4.11 2.64,7.01 3.68,10.69 -3.9,-2.55 -2.58,-5.33 -6.37,-5.1 -1.4,4.42 1.74,10.04 2.09,14.37 -7.78,0.01 -52.74,-1.11 -56.19,0.75 0.11,3.32 0.96,2.74 5.02,2.68 10.22,-0.16 48.54,-0.62 53.16,0.35 2.32,4.07 4.42,9.07 7.51,11.46l-2.52 2.47c1.93,12.04 11.79,22.61 19.22,26.99 -2.93,-1.05 -4,-2.5 -7.07,-2.43 -0.88,3.69 1.44,5.42 2.39,8.7 -6.32,0.03 -24.85,-0.99 -29.09,0.59 0.45,4.23 3.45,2.71 13.98,2.7 12.67,0 19.04,-1.94 21.32,4.49 -3.66,0.03 -7.33,0.03 -11,0.02 -8.25,-0.03 -8.24,-1.08 -9.98,1.71 1.27,1.99 -1.6,0.71 2.57,1.6l8.89 0c3.75,0 8.97,-0.31 12.54,-0.02 4.53,0.37 10.07,6.51 18.09,6.9z"/>
   <path class="fil32" d="M200.29 284.35c-3.11,-0.17 -3.33,-0.34 -4.85,1.56 1.08,1.1 -1,1.93 4.08,1.91 2.37,-0.01 2.49,0.16 4.12,-1.17 -0.5,-2.47 -0.11,-2.13 -3.35,-2.3z"/>
   <path class="fil32" d="M220.6 161.3c0.8,0.54 0.41,0.64 1.79,0.96 0.18,0.04 2.07,0.21 2.23,0.2 2.38,-0.07 1.81,0.12 3.37,-1.16 -0.46,-2.41 -0.07,-2.21 -3.39,-2.3 -3.3,-0.1 -3.53,-0.28 -4,2.3z"/>
   <path class="fil32" d="M363.58 257.74c0.4,2.48 5.12,2.68 3.57,-1.54 -0.09,-0.04 -0.56,-1.64 -2.8,-0.2 -0.28,0.18 -0.87,1.11 -0.77,1.74z"/>
   <path class="fil33" d="M268.65 274.38c3.63,-0.32 7.44,0.48 11.25,0.54 3.92,0.07 7.34,-1.65 9.5,-0.81 0.14,3.22 1.04,1.92 -2.51,3.34 -2.24,0.9 -2.15,0.43 -3.89,1.82 4.82,2.69 15.03,1.67 20.29,0.48 2.13,-1.07 3.35,-2.49 5.43,-0.21l0.56 1.44c1.95,1.63 0.21,0.88 3.2,1.3l0.79 -2.63 -0.93 -3.36 0.25 -0.23 -4.84 -4.8c-7.78,-6.03 -16.59,1.06 -23.41,-3.87l-6.27 -1.7c-0.47,-3.41 -0.47,-3.07 1.36,-5.62 -7.81,-0.28 -24.98,0.92 -29.56,-5.13 -0.19,-3.4 1.08,-4.38 3.18,-5.68 -7.27,-0.48 -21.31,-0.13 -27.77,-2.34 -3.08,-1.06 -4.03,-1.85 -3.72,-5.71 -1.03,-1.08 -0.83,-1.23 -4.77,-1.54 -10.62,-0.83 -21.03,-1.11 -30,-7.52l1.38 -4.35c-1.81,-1.36 -3,-1.26 -4.78,-2.7l-1.34 1.26c-5.12,9.7 -6.56,6.41 -11.24,10.77 6,1.17 7.7,-0.86 11.45,-0.32 0.85,4.74 -3.01,6.24 -3.93,9.01 8.45,1.83 8.49,-1.57 13.84,-1.31 -0.1,5.54 -3.34,4.83 -4.95,7.87 3.23,0.56 6.55,0.61 9.34,-0.45 1.66,-0.64 1.97,-1.15 3.32,-1.89 0.33,-0.18 0.96,-0.57 1.44,-0.66 0.14,-0.02 0.37,-0.04 0.51,-0.05 0.14,-0.01 0.39,0.03 0.51,0.04l1.07 0.28c0.89,2.98 -1.79,4.15 -3.17,6.75 11.45,0.76 14.43,-6.88 18.89,-5.62 -0.03,3.55 -4.35,4.13 -6.85,8.39 4.52,1.22 16.63,0.93 20.72,-1.72 2.6,-1.69 3.08,-3.12 5.86,-1.97 0.9,3.85 -4.16,2.9 -6.44,7.59 4.16,0.55 8.94,0.57 13.45,0.27 2.16,-0.14 4.16,-0.21 6.13,-0.95 2.72,-1.03 2.42,-2.31 5.14,-0.81 -0.53,4.15 -3.34,2.38 -5.91,6.01 15.07,3.84 16.82,-3.36 21.13,-1.54 -0.41,3.65 -2.92,3.03 -5.82,5.85 1.01,2.66 -0.62,0.06 2.11,2.48z"/>
   <path class="fil34" d="M237.77 216.58c4.78,-1.73 6.15,4.51 -0.13,3.2l0.13 -3.2zm-7.4 -0.02c5.71,-1.7 5.01,4.72 0.7,3.2l-0.67 -1.06c-0.23,-1.35 -0.28,-0.34 -0.03,-2.14zm-46.85 -39.54l3.46 0.47c2.25,4.58 -4.14,6.77 -3.46,-0.47zm-7.27 0.08l0 0zm7.27 -0.08c-0.89,-1.05 2.05,-1.78 -2.95,-3.19l-4.54 -0.62c1.05,3.13 1.9,1.49 0.91,3.36l-0.69 0.53c-3.58,-1.52 1.29,-2.12 -4.75,-3.27 -0.96,1.38 -2.84,-2.06 -0.01,2.34 1.84,2.27 1.36,0.31 1.51,3.63l-10.7 -0.38 3.43 3.2c1.44,0.87 2.64,1.56 4.25,2.31 2.26,1.07 6.97,2.12 8.63,3.65 -0.78,4.19 -5.67,2.19 -9.39,4.63 -0.2,0.13 -0.4,0.35 -0.56,0.46 -0.16,0.13 -0.39,0.32 -0.56,0.51 3.14,1.2 5.96,2.85 10.1,4.04 3.76,1.09 10,0.61 12.25,2.16 -0.65,4.67 -7.72,6.33 -7.55,13.41 7.65,0.67 11.74,-2.86 17.38,-2.51 -0.55,3.82 -2.59,4.42 -4.31,7.53 2.81,-1.47 -0.27,-1.23 3.49,-0.34 1.61,0.38 1.82,0.97 4.45,1.17 4.09,0.32 5.68,-1.18 9.55,0.56l-0.16 -2.76c2.78,-0.68 5.23,-0.53 8.14,-1.72 -8.11,-1.29 -13.11,-2.14 -19.42,-6.86 -1.83,-1.36 -4.05,-2.37 -3.93,-5.53l6.57 -0.27c-2.38,-4.25 -8.58,-5.16 -7.91,-10.61 2.97,-0.08 7.96,-0.44 10.29,0.37 0.46,2.16 0.91,1.42 -2.39,3.18l-1.32 0.69c0.15,0.16 0.38,0.17 0.46,0.47 0.73,2.49 9.69,3.56 11.2,4.69 -0.72,4.03 -3.07,2.78 -7.02,3.94l-2.75 1.22c2.93,2.23 7.37,4.04 11.72,4.81 2.64,0.47 4.83,0.4 7.66,0.07 3.22,-0.38 4.42,-1.2 6.81,0.28 -0.26,2.96 -0.84,3.23 -3.54,4.68 -1.85,0.98 -3.7,1.75 -5.66,2.7 4.06,1.95 15.04,2.96 19.64,2.59 0.8,-0.69 0.53,-0.32 1.16,-0.95l1.73 -2c0.08,-1.97 0.33,-1.99 1.36,-3.02 -0.75,-1.73 -0.58,-0.69 -0.3,-3.05l-1.24 -0.99 0.68 -2.87c0.24,-0.13 0.63,-0.55 0.72,-0.39 0.08,0.15 0.5,-0.3 0.59,-0.43 2.07,-3.06 0.29,2.08 0.65,-1.72 -1.46,-2.33 -28.92,-18.21 -30.96,-19.39 -5.4,-3.14 -10.39,-6.15 -15.78,-9.27l-12.1 -7.08c-2.24,-1.41 -2.05,-1.74 -4.42,-1.98 -3.33,2.2 0.48,1.46 -2.85,1.89 0.18,0.25 0.38,0.51 0.59,0.73 0.2,0.21 0.34,0.45 0.58,0.68 2.84,2.64 2.12,1.36 3.25,1.31 -0.14,0.19 -1.12,-2.63 -0.11,1.22 0.17,0.67 -0.01,0.3 0.32,0.72 1.04,1.33 0.59,0.73 1.42,0.5l-3.62 0.97z"/>
   <path class="fil35" d="M282.39 114.1c-1.15,-2.89 -1.15,-0.64 0.05,-3.31 5.45,-1.14 4.23,4.92 -0.05,3.31zm-7.05 -8.91c0.06,-2.59 -0.13,-0.81 0.68,-1.51 2.87,-2.48 5.6,5.25 0.05,3.26 -0.73,-1.19 -0.81,1.65 -0.73,-1.75zm0.7 -11l-3.13 -0.12c2.69,3.19 4.4,0.43 2.56,2.45 2.86,-0.07 1.06,-0.81 3.51,0.46l-0.26 2.6c-0.18,0.11 -0.4,0.29 -0.53,0.33l-2.72 0.2c1.94,1.73 -2.43,1.46 2.3,1.46 -3.12,-0.51 -4.21,1.73 -4.45,5.48l3.77 1.75c-2.78,2.01 -1.34,-0.16 -2.39,2.73 1.24,-0.63 1.64,-0.9 3.55,-0.98 0.65,1.39 0.79,2.09 0.42,3.79 -2.84,0.12 -2.38,0.16 -4.26,-0.9 0.81,3.1 0.62,1.69 0.71,2.19 0.16,0.98 0.4,0.27 0,2.14l3.53 0.09 -0.13 3.79 -3.04 -0.32c1.05,1.1 4.63,2.39 3.9,10.16 -2.9,0.96 -3.3,0.73 -5.54,1.22 -3.53,0.78 -2.47,1.92 -4.66,3.71 1.51,3.19 3.86,4.6 3.58,7.64 1.87,-1.05 -0.04,0.97 2.21,-1.73 1.54,3.14 3.53,4.01 5.54,6.59 3.47,4.45 0.47,4.18 -1.07,8.79l5.61 0.01c2.67,-0.55 0.96,0.62 2.36,-0.85 -2.3,-1.84 -5.44,-7.77 -7,-10.11 -1.59,-2.39 -4.8,-6.73 -3.47,-10.91 3.21,-0.81 5.03,-0.04 7.7,1.18 -0.63,-1.51 -7.41,-13.32 -1.72,-13.3l3.37 1.05c5.27,2.9 8.98,4.86 8.2,8.93 -7.7,-2.44 -4.56,-4.98 -10.46,-6.13 1.8,6.59 6.97,10.96 7.02,16.12 -4.13,-0.04 -7.17,-4.07 -11.49,-5.07 3.2,10.49 13.68,17 13.85,23.62 -14.57,-2.24 -12.32,-2.53 -12.21,0.32 3.9,2.47 9.46,9.9 14.27,10.89l2.5 0.76c-1.41,-2.57 -0.39,-2.46 -0.38,-2.46 0.36,2.48 -0.32,0.11 1.6,0.96 -1,-3.23 -2.05,-4.02 2.13,-5.39l2.18 -0.87c-2.1,-2.7 -4.35,-2.72 -4.53,-6.64l2.93 -1.15c-2.14,-1.93 -0.45,-0.23 -1.61,-2.26l-3.3 -0.37c-0.33,-2.84 -0.16,-4.31 4.01,-3.11 0.46,-1.78 0.35,-0.73 0.31,-2.04 0,-0.17 -0.27,-1.17 -0.36,-1.4l-3.36 0.09c-1.47,-2.53 -1.22,-1.09 -0.19,-3.26 1.72,-0.78 2.47,-0.32 4.05,0.5l2.77 -1.16c-0.81,-2.94 -1.76,-2.78 -2.2,-4.47 -0.33,-1.29 0.16,-2.3 0.45,-3.53 -0.24,-1.97 -8.61,-17.26 -10.51,-21.65 -1.7,-3.93 -3.03,-7.44 -4.47,-11.75 -1.27,-3.81 -2.24,-9.07 -3.49,-12.74 -0.91,-0.43 -2.06,-1.03 -2.97,-0.42 -1.35,0.9 -0.75,-0.08 -0.77,2.33 -1.14,-2.17 -0.16,-0.51 -0.95,-1.13l-1.63 -0.87c-0.02,5.59 0.31,0.58 -1.64,2.76z"/>
   <path class="fil36" d="M361.18 291.22c1.77,-0.39 3.31,-0.24 3.31,0.84 0,0.27 0.15,0.44 0.14,0.55 -0.25,2.85 -2.52,2.18 -3.11,1.63l-0.49 -1.05c-0.09,-1.27 -0.29,-0.09 0.15,-1.97zm3.44 -6.68l-0.44 2.84 -2.9 -0.13 -0.25 -3.26c3.52,-0.73 1.77,-0.74 3.59,0.55zm-10.58 -4.26c-1.09,-3.31 -0.1,-3.34 2.53,-3.66 0.69,0.98 0.57,0.61 1.06,2.02 0.33,0.95 0.08,0.43 0.1,2.02l-3.69 -0.38zm3.27 -6.95c-0.97,0.44 -1.62,1.38 -3,0.05 -1.73,-1.67 -0.27,-2.56 0,-3.07 2.7,-1.37 4.32,-0.07 3,3.02zm-7.33 -6.66c-3.57,0.07 -3.55,-0.15 -3.06,-3.76l3.7 -0.17 -0.64 3.93zm-5.02 4.6c0.2,-0.11 0.46,-0.25 0.6,-0.32l1.09 -0.6c2.98,-1.51 2.58,-0.81 3.91,0.81 -0.79,2.95 0,2.7 -3.67,2.4 1.54,2.37 0.51,0.36 0.35,2.18 -0.17,4.82 3.52,15.64 3.54,24.2 0.04,15.58 -4.78,18.68 -4.99,22.73 0.61,1.79 3.07,5.05 3.35,7.38 -3.78,-3.02 1.65,-0.67 -2.89,-2.6 -2.52,3.11 -1.37,2.41 -0.66,5.47 0.03,0.13 0.09,0.35 0.11,0.47l-0.19 1.41c-3.31,-1.89 0.2,-1.52 -4.14,-3.8 -3.02,8.24 6.8,2.81 2.65,9.52 4.65,1.84 2.57,-1.15 3.7,3.03l-0.25 2.31 3.29 -0.02 0.18 -2.11 -2.62 -0.69c3.66,-6.06 10.24,-7.7 14.83,-24.06 2.06,-7.33 5.29,-27.48 1.47,-34.44l-0.63 -4 -2.47 -0.27c-0.35,-0.68 -0.08,1.22 -0.57,-1.67 -0.13,-0.77 0.04,-0.66 0.16,-1.51l3.11 -0.13c-3.34,-1.66 -2.7,-2.19 -4.38,-5.37 -0.76,-1.43 -1.24,-1.89 -2.16,-3.08 -2.25,-2.93 -1.66,-1.08 -1.04,-2.27 -0.93,-1.28 -0.35,-0.75 -1.97,-2.03 -3.02,-2.4 -12.05,-7.1 -16.34,-7.66 1.91,4.73 5,9.01 6.63,14.72z"/>
   <path class="fil37" d="M364.22 276.96c0.94,2.14 1.01,1.48 -0.23,3.58l0.63 4c3.82,6.96 0.59,27.11 -1.47,34.44 -4.59,16.36 -11.17,18 -14.83,24.06l2.62 0.69 3.29 -0.34 0.25 3 0.41 -2.36 0.13 -2.76c11.92,-5.77 24.53,-18.7 25.12,-36.38 0.51,-6.91 -4.12,-13.58 -5.87,-19.16 -2.39,-2.73 -8.41,-14.15 -16.27,-18.89 -1.5,-0.9 0.37,-0.11 -1.36,-0.6 -0.62,1.19 -1.21,-0.66 1.04,2.27 0.92,1.19 1.4,1.65 2.16,3.08 1.68,3.18 1.04,3.71 4.38,5.37z"/>
   <path class="fil38" d="M264.24 287.76c-3.22,3.09 -6.52,16.14 -6.38,22.48 2.61,2.01 5.52,2.89 8.34,4.84 12.91,8.9 14.7,18.33 16.63,20.24 1.36,-1.28 1.98,-3.39 2.49,-4.98l1.47 1.02c0.09,0.06 0.31,0.24 0.47,0.36l2.34 -0.73c-1.77,-0.43 -0.38,1.35 -3.56,-4.84 -1.03,-2.02 -1.74,-4.16 -2.59,-6.33 -1.62,-4.12 -2.81,-8.26 -4.2,-12.7 -3.13,0.43 -2.36,0.63 -4.02,-1.3 0.52,-3.65 0.57,-1.87 3.03,-3.69 -1.04,-1.97 -1.4,-1.38 -2.97,-2.95 0.39,-5.49 2.29,-0.49 0.97,-5.93 -1.2,-1.9 -0.96,-0.59 -0.67,-3.4l0.67 -3.01 -2.94 0.67c-0.38,1.51 -0.29,2.35 -0.57,3.32 -0.52,1.81 0.04,0.66 -0.97,1.85 -1.82,-2.01 -0.92,-0.27 0.08,-5.22l-7.62 0.3z"/>
   <path class="fil39" d="M318.96 331.56c5.17,1.86 10,0.18 14.62,-1.61 4.22,-3.23 5.35,-3.8 8.41,-8.49 2.12,-3.26 4.82,-8.28 4.09,-12.52 -1.01,-3.69 -0.54,-8.02 -0.57,-11.97 -1.52,3.72 1.42,3.36 -1.37,9.32 -1.92,-5.15 -0.81,-2.15 -0.35,-7.12 0.26,-2.77 -0.33,-3.78 -0.27,-6.73 0.08,-4.12 -0.38,-2.57 -0.66,-5.83 -0.25,-2.95 0.44,-1.32 0.44,-4.39 -0.14,-0.05 -0.36,-0.06 -0.45,-0.06l-3.97 0.07 1.34 2.92c0.08,0.22 0.16,0.36 0.23,0.58 0.21,0.68 0.35,1.94 0.36,3.08 0.02,2.26 -0.27,4.59 -0.16,6.69 0.52,10.37 3.1,6.86 1.18,11.58 -1.78,-0.33 -2.44,0.01 -3.06,-3.64l-8.81 0.94c-0.12,0.21 -0.29,0.48 -0.4,0.66 -0.12,0.21 -0.39,0.87 -0.48,0.74 -0.11,-0.15 -0.33,0.53 -0.53,0.77l-1.38 -1.18c-0.08,-0.06 -0.37,0 -0.42,-0.19 -0.05,-0.17 -0.27,-0.06 -0.41,-0.1 0.1,-0.08 0.6,-3.17 1.32,4.42l-2.8 -1.47c0,3.61 0.37,5.38 0.63,8.35 0.25,2.95 -2.47,4.09 -0.62,7.13l3.68 -7.63c1.35,1.23 2.17,-3.37 0.97,3.12 -0.1,0.51 -2.14,5.21 -3.66,6.07 -1.69,0.96 -3.08,0.12 -4.7,0.33 -2.69,0.35 -2.23,1.15 -4.4,2.54l2.2 3.62z"/>
   <path class="fil40" d="M354.89 344.03l-0.41 2.36c-1.37,0.68 -2.52,1.65 -3.72,-0.55l-3.29 0.02 -1.3 1.38 -2.5 -1 -2.84 -0.11 -1.01 -3.13c0.76,3.98 -1.13,6.34 -3.62,2.4 -4.54,-0.61 -8.57,-1.85 -10.6,-5.19 -1.56,0.26 -0.66,0.23 -2.07,0.14l-1.01 -0.47c-0.58,-0.62 -1.48,-4.16 3.59,-2.75 0.03,-0.07 0.07,-0.19 0.08,-0.22 0.03,-0.05 0.16,-0.29 0.18,-0.34l0.71 -1.16c-5.98,0.29 -7.59,-0.62 -12.75,-1.11 2.16,5 11.68,10.81 18.59,12.91 16.27,4.95 36.68,-1.54 45.28,-13.86 2.42,-3.46 5.31,-21.6 2.35,-25.71 -1.39,5.71 1.13,9.34 -1.3,14.18 -1.86,3.7 -3.68,6.5 -6.11,9.42 -4.37,5.27 -10.21,10.02 -18.25,12.79z"/>
   <path class="fil41" d="M299.19 172.72c2.9,1.54 12.4,7.58 13.94,9.22 -2.56,2.09 -4.38,1.81 -3.62,6.58 1.5,0.52 2.51,1.97 4.33,2.96 1.45,0.79 3.46,1.54 5.12,2.26 3.07,1.34 8.41,4.24 11.3,2.95 -0.12,-3.37 -0.13,-2.34 -4,-3.64 -3.3,-1.12 -11.63,-4.75 -13.09,-6.68 1.76,-1.41 1.73,-0.88 4.21,-1.53 3.9,-1.02 2.11,0.41 3.51,-2.16 -1.33,-2.45 -1.19,-1.72 -4.44,-3.46 -1.61,-0.87 -3.03,-1.59 -4.12,-2.49 -2.85,-1.09 -6.98,-3.68 -8.74,-5.81 2.4,-0.15 4.1,0.5 6.51,0.04 1.85,-0.36 0.62,0.12 2,-0.82 -1.01,-3.73 0.11,-1.5 -2.97,-3.46 -3.38,-2.15 -5.69,-4.13 -7.23,-8.01l-2.93 1.15c0.18,3.92 2.43,3.94 4.53,6.64l-2.18 0.87c-4.18,1.37 -3.13,2.16 -2.13,5.39z"/>
   <path class="fil42" d="M285.05 157.72c1.06,0.8 -0.84,0.74 1.69,1.49 -8.58,0.21 -1.11,-0.07 -6.9,-1.14 0.47,2.2 -0.36,2.26 1.36,4.5 -0.11,-2.85 -2.36,-2.56 12.21,-0.32 -0.17,-6.62 -10.65,-13.13 -13.85,-23.62 4.32,1 7.36,5.03 11.49,5.07 -0.05,-5.16 -5.22,-9.53 -7.02,-16.12 5.9,1.15 2.76,3.69 10.46,6.13 0.78,-4.07 -2.93,-6.03 -8.2,-8.93l-3.37 -1.05c-5.69,-0.02 1.09,11.79 1.72,13.3 -2.67,-1.22 -4.49,-1.99 -7.7,-1.18 -1.33,4.18 1.88,8.52 3.47,10.91 1.56,2.34 4.7,8.27 7,10.11 -1.4,1.47 0.31,0.3 -2.36,0.85z"/>
   <path class="fil43" d="M287.42 311.18c0.68,-2.47 0.65,-4.75 2.79,-6.74l0.83 6.77c2.4,-3.08 -0.2,-3.78 2.12,-6.36 1.88,0.81 1.25,1.46 1.4,4.05l0.82 -2.61c0.12,0.24 0.42,0.22 0.56,0.56 1.36,3.34 -2.22,-1.55 1.77,0.96 -0.76,-8.33 -1.16,-2.05 -4.84,-5.68 1.26,-3.96 0.75,-0.59 3.78,-2.95l-0.15 -3.34c-4.17,-0.81 -6.04,0.86 -7.81,-1.82 1.81,-3.56 4.25,-0.74 7.93,-2.21 -0.46,-4.52 -2.72,0.12 -4.88,-5.27l-0.79 -2.53c-2.65,-0.23 -3.63,-0.88 -6.09,0.2 -0.36,4.75 -0.55,9.45 -0.21,14.21l1.89 11.16c0.86,2.06 0.24,0.72 0.88,1.6z"/>
   <path class="fil44" d="M276.06 282.38l3.13 0.49c0.16,3.58 0.1,2.97 -2.93,3.97l-0.67 3.01c2.76,-1.09 3.67,-0.89 3.69,3.02l-3.02 0.38c1.32,5.44 -0.58,0.44 -0.97,5.93 1.57,1.57 1.93,0.98 2.97,2.95 -2.46,1.82 -2.51,0.04 -3.03,3.69 1.66,1.93 0.89,1.73 4.02,1.3 1.39,4.44 2.58,8.58 4.2,12.7 0.85,2.17 1.56,4.31 2.59,6.33 3.18,6.19 1.79,4.41 3.56,4.84 1.77,3.06 1.6,4.01 4.53,5.37 -1.29,-3.61 -4.26,-7.71 -5.97,-11.53 -6.51,-14.54 -7.59,-25.95 -6.41,-42.33 -4.42,-1.3 -2,-1.19 -4.07,-4.42l-3.47 -0.21c3.29,2.7 0.4,0.26 1.85,4.51z"/>
   <path class="fil45" d="M367.17 266.89l-3.19 -0.08 -0.27 -3.01c3.78,-2.07 4.25,0.34 3.46,3.09zm-0.02 -10.69c1.55,4.22 -3.17,4.02 -3.57,1.54 -0.1,-0.63 0.49,-1.56 0.77,-1.74 2.24,-1.44 2.71,0.16 2.8,0.2zm0.48 -7.93c-0.03,2.83 0.42,4.27 -3.23,3.57 -0.83,1.59 0.95,0.45 -1.87,2.38 -1.47,1 0.03,1 -1.53,0.23 -1.44,0.79 -1.03,-1.81 0.27,0.39 0.94,1.6 0.07,-0.35 0.96,1.8 -3.34,0.33 -0.7,-0.7 -2.86,0.97 0.14,0.16 0.34,0.35 0.44,0.47l0.75 1.01c0.62,0.98 0.23,0.01 0.72,1.75l-3.87 1.35c4.22,2.9 11.96,10.23 14.92,14.42 1.4,-7.49 -2.07,-31.99 -6.55,-36.07l0.04 3.27c-0.01,0.16 -0.07,0.43 -0.08,0.55l-0.26 0.99c1.13,1.62 1.34,-2.16 -0.55,1 -0.67,1.13 -1.75,-0.51 0.5,0.79l2.2 1.13z"/>
   <path class="fil46" d="M324.45 266.34c-0.25,-0.02 -1.53,-0.1 -1.71,-0.15 -0.17,-0.05 -0.51,-0.11 -0.7,-0.16 -2.33,-0.69 -3.1,-4 1.87,-3.48l0.54 3.79zm3.54 -7.15l-0.18 -3.38 3.06 -0.3c1.05,2.84 0.89,4.2 -2.88,3.68zm-4.25 -3.12l0.16 3.05c-4.79,0.74 -3.75,-2.59 -2.49,-3.27 1.99,-1.06 2.29,0.21 2.33,0.22zm-6.52 -0.14l0.22 3.21c-5.79,1.52 -5.79,-4.87 -0.22,-3.21zm2.75 13.81l-0.63 -2.34c1.26,0.02 3.96,-0.11 5.11,-1.06 3.22,-0.61 -0.63,-0.05 1.16,-5.5 3.03,-1.02 2.36,-0.17 5.74,-0.53 5.25,-0.56 -1.24,-2.2 4.57,-0.21 -2.38,-6.24 -3.41,-5.96 -11.02,-6.61 -5.7,-0.48 -10.29,-0.06 -15.74,0.55l10.81 15.7z"/>
   <path class="fil47" d="M144.79 178.81c0.1,-0.02 2.23,-0.41 2.3,-0.42 0.15,-0.03 0.48,0.06 0.59,-0.17 0.11,-0.22 0.36,-0.12 0.54,-0.18 -7.07,-3.28 -14.87,-6.17 -8.24,-12.32 -2.83,0 -5.22,0.48 -7.61,-0.31 -2.45,-0.82 -0.49,0.87 -2.16,-1.26l-10.78 -2.72c2.47,5.45 15.97,18.69 25.36,17.38z"/>
   <path class="fil48" d="M295.47 173.46c3.11,5.39 8.76,3.87 8.65,9.22l-10.87 1.08c1.66,3.26 5.58,5.09 9.3,6.24 9.35,2.9 2.02,-1.34 6.96,-1.48 -0.76,-4.77 1.06,-4.49 3.62,-6.58 -1.54,-1.64 -11.04,-7.68 -13.94,-9.22 -1.92,-0.85 -1.24,1.52 -1.6,-0.96 -0.01,0 -1.03,-0.11 0.38,2.46l-2.5 -0.76z"/>
   <path class="fil49" d="M289.88 362.83l-0.89 2.95c-0.62,0.29 -0.14,0.29 -1.68,0.53 -0.95,0.14 -0.5,-0.04 -1.48,-0.18l-0.03 -2.8c1.65,-1.03 2.64,-0.73 4.08,-0.5zm9.5 11.21c1.54,0.47 1.31,0.71 0.67,-0.77l-0.26 -3.49c-2.63,0.64 -3.42,-0.38 -6.53,-2.09l2.85 -1.38 -4 -0.75c-1.17,2.19 -0.65,-0.23 -2.23,-2.73l-0.81 -9.78c-0.23,-2.87 -0.91,-5.99 -1.76,-8.32 -0.61,-1.67 -1.03,-2.34 -1.59,-3.48 -0.02,-0.04 -0.93,-1.89 -0.99,-1.99l-1.17 -1.73c2.57,14.83 1.96,13.63 0.04,28.01 3.57,3.45 10.19,6.25 15.78,8.5z"/>
   <path class="fil50" d="M272.14 282.92l-0.37 3.29 -3.22 -0.4 0.27 -3.18 3.32 0.29zm-7.9 4.84l7.62 -0.3c-1,4.95 -1.9,3.21 -0.08,5.22 1.01,-1.19 0.45,-0.04 0.97,-1.85 0.28,-0.97 0.19,-1.81 0.57,-3.32l2.94 -0.67c-0.65,-1.64 -0.89,-2.79 -0.2,-4.46 -1.45,-4.25 1.44,-1.81 -1.85,-4.51l-3.9 -0.23c-2.29,2.75 -4.88,6.23 -6.07,10.12z"/>
   <path class="fil51" d="M304.55 314.64c0.29,1.66 0.72,2.59 1.79,3.81 1.74,2.01 1.28,1.44 3.23,1.75l1.48 -0.41 0.16 -3.77c4.75,0.01 4.63,2.97 5.75,-2.56l-4.36 0.79c2.99,0.67 0.7,-0.04 1.6,-1.1 -1.86,-0.18 -2.24,-0.26 -3.57,-0.85l-1.25 0.54c-1.85,-3.32 -0.15,-0.56 -1.85,-2.03l-0.13 1.87c-1.61,1.13 -0.92,0.92 -3.12,0.46l0.27 1.5z"/>
   <path class="fil52" d="M183.52 177.02c-0.68,7.24 5.71,5.05 3.46,0.47l-3.46 -0.47z"/>
   <path class="fil53" d="M354.31 270.31c-0.27,0.51 -1.73,1.4 0,3.07 1.38,1.33 2.03,0.39 3,-0.05 1.32,-3.09 -0.3,-4.39 -3,-3.02z"/>
   <path class="fil54" d="M293.4 262.52l-0.02 -3.16 -3.2 -0.12c-1.26,3.81 0.36,5.62 3.22,3.28z"/>
   <path class="fil55" d="M132 144.12l0.63 -1.97c-0.77,-0.58 -0.7,-1.03 -1.2,-1.77 -0.34,0.08 -1.45,0.39 -1.71,0.52 -1.28,0.67 -0.44,0.22 -1.31,1.22 0.54,2.61 1.23,3.56 3.59,2z"/>
   <path class="fil56" d="M333.16 212.17c0.62,2.2 4.64,1.47 3.9,-1.22 -0.62,-2.25 -4.75,-1.8 -3.9,1.22z"/>
   <path class="fil57" d="M275.59 289.85c-0.29,2.81 -0.53,1.5 0.67,3.4l3.02 -0.38c-0.02,-3.91 -0.93,-4.11 -3.69,-3.02z"/>
   <path class="fil58" d="M252.63 216.2c-1.6,3.45 -0.15,4.28 2.43,3.62 1.33,-1.5 1.29,-0.81 0.5,-3.13l-2.93 -0.49z"/>
   <path class="fil59" d="M297.37 262.57c2.24,1.15 0.34,0.75 3.1,0.42l0.31 -2.88 -3.21 -0.91c-0.88,2.28 -1,1.18 -0.2,3.37z"/>
   <polygon class="fil60" points="268.82,282.63 268.55,285.81 271.77,286.21 272.14,282.92 "/>
   <polygon class="fil61" points="143.89,184.44 146.52,183.63 143.88,182.31 "/>
  </g>
 </g>
</svg>
