<?xml version="1.0" encoding="UTF-8"?>
<!DOCTYPE svg PUBLIC "-//W3C//DTD SVG 1.1//EN" "http://www.w3.org/Graphics/SVG/1.1/DTD/svg11.dtd">
<!-- Creator: CorelDRAW 2017 -->
<svg xmlns="http://www.w3.org/2000/svg" xml:space="preserve" width="38.649mm" height="38.649mm" version="1.1" style="shape-rendering:geometricPrecision; text-rendering:geometricPrecision; image-rendering:optimizeQuality; fill-rule:evenodd; clip-rule:evenodd"
viewBox="0 0 3864.9 3864.9"
 xmlns:xlink="http://www.w3.org/1999/xlink">
 <defs>
  <style type="text/css">
   <![CDATA[
    .str0 {stroke:#FEFEFE;stroke-width:20;stroke-miterlimit:22.9256}
    .fil0 {fill:#FEFEFE}
    .fil3 {fill:#F37A2A}
    .fil1 {fill:#F5995A}
    .fil2 {fill:#F7AF7D}
    .fil5 {fill:#4B4B4D;fill-rule:nonzero}
    .fil4 {fill:#F37A2A;fill-rule:nonzero}
   ]]>
  </style>
 </defs>
 <g id="Capa_x0020_1">
  <metadata id="CorelCorpID_0Corel-Layer"/>
  <circle class="fil0 str0" cx="1932.45" cy="1932.45" r="1932.44"/>
  <g id="_2562967761024">
   <path class="fil1" d="M2115.47 952.11c25.94,15.28 5.7,16.16 58.76,24.6 22.81,3.63 53.73,1.95 77.42,1.95l-21.14 -85.74c-3.8,-5.84 -10.27,-21.23 -11.26,-17.6l-20.27 -94.54c-2.09,-39.18 1.93,-102.77 2.18,-145.03 0.62,-102.23 0.05,-204.64 0.05,-306.9l-171.47 -20.4 0 43.31 146.51 6.48 1.72 563.26c-34.56,41.27 53,40.92 -62.5,30.61z"/>
   <path class="fil1" d="M2144.05 2079.96l0 44.24 142.9 4.98c0,-96.02 -4,-57.39 25.45,-93.09l-25.45 -55.69 -28.62 -1.46 7.17 120.72 -121.45 -19.7z"/>
   <path class="fil1" d="M3045.15 1407.35l40.39 0 -1.52 -142.9 -54.01 29.31c38.86,71.51 27.29,7.64 15.14,113.59z"/>
   <path class="fil1" d="M1715.36 420.08l-28.58 -68.4c-71.46,0 -57.02,-19.83 -57.02,45.21 105.99,19.31 56.14,-17.92 85.6,23.19z"/>
   <path class="fil1" d="M2401.26 1036.87l82.62 56.11 24.82 -57.16 -21.69 -13.16c-44.34,24.46 -6.16,14.38 -85.75,14.21z"/>
   <polygon class="fil1" points="2972.85,1582.52 3043.26,1607.4 3055.29,1544.98 "/>
   <polygon class="fil1" points="2316.33,835.76 2344.11,854.29 2370.24,807.18 2344.11,783.96 "/>
   <path class="fil1" d="M1743.94 1264.45l55.65 -31.02c1.51,-63.82 9.76,2.46 -27.07,-18.62l-15.14 21.06 -13.44 28.58z"/>
   <path class="fil1" d="M1858.26 1075.96l56.82 18.93 0.34 -59.07 -17.44 0c0,53.37 13.42,40.14 -39.72,40.14z"/>
   <polygon class="fil1" points="2288.02,950.07 2315.53,936.03 2340.55,892.92 2315.53,897.86 "/>
   <path class="fil2" d="M1674.33 1350.19l23.21 -85.74c-115.5,-22.8 -216.02,-47.17 -337.09,-73.79 -120.95,-26.59 -247.21,-66.6 -359.58,-69.11 -53.77,230.8 -3.74,152.13 220.71,179.4 112.73,13.69 319.53,49.24 452.75,49.24z"/>
   <path class="fil2" d="M1612.76 1607.4l-2.87 -114.32 -609.02 142.9c1.94,87.07 12.9,104.2 28.58,171.48l583.31 -200.06z"/>
   <path class="fil2" d="M1757.38 1235.87l15.14 -21.06 0 -36.1 -28.58 -28.57c-87.02,-7.25 -563.14,-235.96 -657.33,-285.8 -31.17,58.91 -39.65,67.74 -57.16,142.89 267.32,62.28 550.14,216.29 727.93,228.64z"/>
   <path class="fil2" d="M1627.72 1464.5l8.57 -85.73 -664 0 0 142.89c143.97,0 220.54,-6.89 322.18,-20.77 99.32,-13.57 256.94,-34.64 333.25,-36.39z"/>
   <path class="fil2" d="M1697.84 1864.62l-39.64 -50.45c-93.51,14.17 -46.76,4.88 -127.53,65.37 -58.34,43.68 -59.1,49.5 -109.83,90.68 -88.42,71.81 -159.57,89.78 -191.33,208.77l82.3 61.3c104.56,-31.13 346.05,-288.28 386.03,-375.67z"/>
   <path class="fil2" d="M2286.95 2129.18l-142.9 -4.98 0 454.9 200.06 0c-21.33,-91.53 -57.16,-344.91 -57.16,-449.92z"/>
   <path class="fil2" d="M1634.46 1721.71l-33.42 -54.84c-158.4,30.78 -378.99,154.67 -514.43,226.32 17.51,75.16 25.99,84 57.16,142.9 96.63,-51.14 149.8,-91.73 245.43,-154.67 97.97,-64.49 155.12,-89.93 245.26,-159.71z"/>
   <path class="fil2" d="M1812.17 1978.94c-25.86,-37.52 -16.61,-34.57 -68.23,-62 -74.13,57.76 -288.26,307.11 -314.38,404.95 27.52,37.55 -6.46,1 39.81,45.92l29.99 27.17c3.01,2.7 10.83,8.19 15.95,12.64 105.38,-70.57 179.68,-274.35 296.86,-428.68z"/>
   <path class="fil2" d="M1953.24 2064.67l-94.98 -65.76c-37.97,84.57 -77.13,159.33 -110.4,241.18 -39.64,97.52 -80.64,144.88 -89.66,253.28 77.16,6.41 77.75,13.39 142.9,28.57 7.26,-87.31 114.11,-359.22 152.14,-457.27z"/>
   <path class="fil2" d="M2115.47 2086.98l-114.32 -21.05c-15.86,187.07 -85.73,304.43 -85.73,513.17l142.89 0c0,-139.19 31.92,-372.4 57.16,-492.12z"/>
   <path class="fil2" d="M2344.11 2106.75c0,99.4 29.75,519.16 186.1,433.58 81.92,-44.84 10.76,-161.51 -10.4,-222.07l-89.96 -228.3 -85.74 16.79z"/>
   <path class="fil2" d="M2505.55 2093.25l181.79 371.39c74.88,-17.37 83.7,-25.84 142.62,-57.02l-228.63 -376.74 -95.78 62.37z"/>
   <path class="fil2" d="M2658.49 2000.2c37.75,65.75 67.53,90.79 114.41,150.29 56.72,71.98 89.94,80.47 114.22,171.4 122.88,-10.23 51.49,4.04 142.89,-57.16 -25.2,-94.4 -53.23,-97.73 -121.08,-164.63 -95.83,-94.48 -74.56,-97.73 -181.09,-149.75l-69.35 49.85z"/>
   <path class="fil2" d="M2826.41 1893.19c62.98,83.96 188.88,201.81 289.35,228.64l91.86 -79.61c-70.99,-102.99 -220.86,-172.94 -327.19,-234.76l-54.02 85.73z"/>
   <path class="fil2" d="M3055.29 1544.98l-12.03 62.42c64.05,6.62 165.25,43.05 228.76,49.14 123.1,11.82 100.95,-45.91 100.95,-163.46 -162.19,0 -191.81,-25.99 -325.06,-28.58l7.38 80.48z"/>
   <path class="fil2" d="M2940.33 1750.3l223.76 126.77c106.08,52.95 139.29,51.16 151.72,-98.2 -54.7,-26.24 -272.89,-108.47 -338.82,-114.31l-36.66 85.74z"/>
   <path class="fil2" d="M3084.02 1264.45l1.52 142.9 287.43 0c26.05,-111.85 26.05,-59.63 0,-171.48 -92.36,44.31 -158.58,28.58 -288.95,28.58z"/>
   <path class="fil2" d="M2858.54 711.09l63.64 96.09c29.88,-18.27 52.27,-31 82.98,-52.98 73.11,-52.32 18.22,-36.67 110.6,-61.34 -9.48,-113.83 -11.55,-93.22 -85.75,-142.9 -75.86,20.26 -32.71,-7.91 -94.85,46.71 -59.44,52.25 -48.69,55.47 -76.62,114.42z"/>
   <path class="fil2" d="M2988.18 892.92l26.58 85.74c79.28,-14.71 179.43,-54.82 243.89,-85.74 -10.23,-122.88 4.05,-51.49 -57.16,-142.9 -80.08,42.37 -142.15,74.77 -213.31,142.9z"/>
   <path class="fil2" d="M3052.97 1092.98l10.9 114.31c93,-23.76 167.2,-54.64 280.52,-57.15l0 -142.91 -291.42 85.75z"/>
   <path class="fil2" d="M2714.57 549.96l86.81 84.74 142.9 -170.47 -109.92 -90.61c-83.26,62.65 -71.52,88.78 -119.79,176.34z"/>
   <path class="fil2" d="M2515.58 443.59l114.32 55.08 86.5 -176.96c-59.68,-31.55 -68.5,-40.03 -143.66,-57.54 -29.74,61.97 -41.21,101.86 -57.16,179.42z"/>
   <path class="fil2" d="M2286.95 368.66l142.9 25.7c14.79,-80.41 64.29,-163.15 -32.94,-186.61 -119.57,-28.83 -109.96,65.5 -109.96,160.91z"/>
   <polygon class="fil2" points="2029.74,308.45 2201.21,328.85 2201.21,207.01 2029.74,207.01 "/>
   <path class="fil2" d="M1801.1 357.47l142.89 -19.96c-7.12,-67.96 -6.16,-56.69 -28.57,-101.92 -141.36,3.15 -157.84,13.01 -114.32,121.88z"/>
   <path class="fil2" d="M1543.88 444.89l85.88 -48c0,-65.04 -14.44,-45.21 57.02,-45.21 -28.91,-35.01 7.5,-26.21 -51.46,-23.97 -27.97,1.07 -36.99,9.52 -91.44,22.2l0 94.98z"/>
   <path class="fil2" d="M1354.5 578.55c54.8,-73.57 28.52,-45.84 103.65,-80.92 -29.34,-41.05 46.1,-33.4 -57.16,-33.4l-82.31 61.29c-3.44,110.84 -10.66,8.29 35.82,53.03z"/>
   <path class="fil3" d="M2687.06 1664.56l-57.16 -28.58 57.16 28.58zm-57.16 -28.58l0 0zm28.59 -114.32c30.37,-30.37 108.39,45.37 31.83,14.86 -0.66,-0.27 -79.7,33.01 -31.83,-14.86zm-142.91 171.48l28.59 28.57c124.42,33.24 160.1,136.75 282.24,171.48l54.02 -85.73c-79.11,-62.44 -138.79,-68.42 -193.37,-142.9 109.12,25.43 159.5,62.35 253.27,85.74l36.66 -85.74c-97.75,-76.89 -148.6,-55.83 -232.77,-114.32 105.05,2.34 124.02,24.57 228.63,32.28l82.44 -37.54 -7.38 -80.48c-117.97,-3.08 -195.99,-28.58 -360.85,-28.58l0 -28.57 358.09 0c12.15,-105.95 23.72,-42.08 -15.14,-113.59 -193.74,-1.94 -260.67,27.85 -428.68,27.85 0,92.46 9.31,130.85 -17.76,210.87 -60.59,179.06 -47,-31.17 -67.99,160.66z"/>
   <path class="fil3" d="M2401.26 1921.78l-32.86 -55.74 32.86 55.74zm-371.52 -85.75l8.52 8.53c-0.56,-0.55 -11.36,-5.69 -8.52,-8.53zm314.37 -28.57l8.52 8.51c-0.56,-0.55 -11.37,-5.67 -8.52,-8.51zm-400.12 0c-18.89,81.11 -46.94,131.23 -85.73,191.45l94.98 65.76 66.11 -152.93c2.07,-4.02 6.34,-12.73 10.39,-18.55 -1.96,87.58 -13.01,104.48 -28.59,172.74l114.32 21.05 0 -136.63 28.58 0 0 129.61 121.45 19.7 -7.17 -120.72c0.07,-145.85 -0.38,-47.41 28.62,-85.75l0 87.21 25.45 55.69c7.92,150.38 -6.49,49.58 31.71,70.66l85.74 -16.79 -28.59 -168.18 104.29 171.47 95.78 -62.37c-35.24,-59.38 -66.04,-92.46 -85.75,-166.26l-28.57 -57.16 -28.59 -28.59 -28.57 -28.57c-140.13,11.66 -93.71,49.62 -230.34,57.33 -141.32,7.97 -151.27,-50.2 -255.52,-0.17z"/>
   <path class="fil3" d="M2001.15 978.66c65.72,-5.61 73.94,-8.23 114.32,-26.55 115.5,10.31 27.94,10.66 62.5,-30.61l-1.72 -563.26 -146.51 -6.48c12.16,142.24 57.16,363.48 57.16,512.58l-73.76 -240.57c-24.04,-113.64 -34.96,-197.24 -69.15,-286.26l-142.89 19.96c45.84,171.84 184.42,433.36 200.05,621.19z"/>
   <path class="fil3" d="M2429.85 950.07l0 0zm28.57 -57.15l-28.57 57.15 28.57 -57.15zm-88.18 -85.74l-26.13 47.11 -3.56 38.63 -25.02 43.11c28.69,90.15 -7.94,19.11 34.37,64.27 3.7,3.95 11.7,11.05 15.58,14.68 3.82,3.56 13.98,9.03 17.37,11.81 3.37,2.77 12.73,5.99 18.41,10.08 79.59,0.17 41.41,10.25 85.75,-14.21l28.57 -15.43 28.59 -28.57 28.57 -28.59 28.59 -28.57c26.97,-101.07 26.93,-63.2 89,-139.59 36.44,-44.85 81.79,-102.53 111.05,-147.21l-86.81 -84.74c-116.59,87.62 -138.62,256.85 -256.15,342.96 20.19,-86.65 128.75,-323.33 171.48,-394.25l-114.32 -55.08 -145.34 363.59z"/>
   <path class="fil3" d="M2687.06 1178.71l-55.73 32.86 55.73 -32.86zm376.81 28.58l-10.9 -114.31c-163.94,3.95 -210.93,72.83 -365.91,85.73l291.74 -163.15c48.59,-36.59 13.52,-5.06 35.96,-36.9l-26.58 -85.74c-110.49,33.08 -320.56,191.88 -444.01,257.22 17.7,48.92 48.98,46.55 28.57,142.89 178.79,0 335.46,-52.42 491.13,-85.74z"/>
   <path class="fil3" d="M1743.94 1150.14l28.58 28.57c55.48,-14.71 44.21,-5.25 85.74,-28.57 -54.62,-81.57 -50.89,-65.62 -130.78,-126.44l-469.4 -387.99 -120.67 107.96c60.43,80.14 209.26,154.87 293.6,204.96l312.93 201.51z"/>
   <path class="fil3" d="M1543.88 444.89c67.45,79.61 290.14,401.14 314.38,505.18l57.16 85.75 85.73 0 0 -57.16c-80.91,-107.85 -76.92,-153.58 -132.81,-267.3 -53.78,-109.41 -87.26,-185.78 -152.98,-291.28 -29.46,-41.11 20.39,-3.88 -85.6,-23.19l-85.88 48z"/>
   <path class="fil3" d="M1354.5 578.55c21.88,51.17 -22.25,-11.38 39.49,64.31l464.27 433.1c53.14,0 39.72,13.23 39.72,-40.14 -47.54,-55.01 -25.75,-10.19 -39.72,-85.75 -136.5,-91.39 -272.67,-381.03 -400.11,-452.44 -75.13,35.08 -48.85,7.35 -103.65,80.92z"/>
   <path class="fil3" d="M2230.51 892.92l21.14 85.74 36.37 -28.59 27.51 -52.21 0.8 -62.1 27.78 -51.8c23.61,-110.44 74.76,-288.53 85.74,-389.6l-142.9 -25.7c-32.25,80.5 -57.68,398.22 -56.44,524.26z"/>
   <path class="fil3" d="M1658.2 1578.82l8.52 8.52c-0.56,-0.56 -11.36,-5.68 -8.52,-8.52zm16.13 -228.63c80.71,0 12.06,-6.1 41.03,28.58l-79.07 0 -8.57 85.73 63.23 15.43 -81.06 13.15 2.87 114.32c12.62,35.91 13.82,11.92 -11.72,59.47l33.42 54.84 109.48 -28.57 28.58 -28.58c51.1,-106.52 17.45,-76.25 -11.73,-189.53 -46.25,-179.61 44.92,-77.01 -16.85,-210.58l-46.4 0 -23.21 85.74z"/>
   <path class="fil3" d="M2601.33 921.5l-28.59 28.57 -28.57 28.59 -28.59 28.57 -6.88 28.59 -24.82 57.16 438.3 -285.8 -63.64 -96.09c-38.47,9.85 -21.12,-2.75 -64.54,31.19 -19.64,15.35 -37.41,37.01 -56.97,57.23 -54.51,56.39 -74.69,81.12 -135.7,121.99z"/>
   <path class="fil3" d="M2429.85 1750.3l28.57 28.57 28.59 28.59 28.57 57.16 142.91 135.58 69.35 -49.85c-13.64,-45.74 13.02,-3 -20.69,-49.77 -13.71,-19.03 -36.96,-39.95 -55.02,-57.59 -53.77,-52.58 -68.21,-61.89 -107.96,-121.28l-28.59 -28.57 -85.73 0 0 57.16z"/>
   <path class="fil3" d="M1772.52 1664.56l-28.58 28.58 -85.74 121.03 39.64 50.45 74.68 -28.59 28.58 -28.57 28.57 -28.59 28.59 -28.57 28.57 -28.59c-14.71,-55.48 -5.25,-44.2 -28.57,-85.73 -38.51,21.64 -31.59,15.61 -85.74,28.58z"/>
   <path class="fil3" d="M1858.26 1750.3l-28.59 28.57 -28.57 28.59 -28.58 28.57c-10.02,54.16 -6.16,46.6 -28.58,80.91 51.62,27.43 42.37,24.48 68.23,62 37.29,-63.42 73.06,-128.43 131.82,-171.48l0 -85.75 -57.16 0 -28.57 28.59z"/>
  </g>
  <path class="fil4" d="M737.66 2976.57c0,19.05 -3.53,35.98 -10.58,50.94 -7.06,14.82 -16.94,27.38 -29.92,37.54 -12.98,10.16 -28.36,17.92 -46.28,23.14 -17.92,5.22 -37.68,7.9 -59.13,7.9 -13.26,0 -25.82,-0.99 -37.82,-3.1 -11.99,-1.98 -22.72,-4.52 -32.31,-7.77 -9.46,-3.1 -17.5,-6.35 -24.13,-9.73 -6.63,-3.39 -11.43,-6.49 -14.39,-9.17 -3.11,-2.69 -5.37,-6.64 -6.64,-11.58 -1.41,-4.93 -2.11,-11.71 -2.11,-20.32 0,-5.22 0.28,-9.59 0.84,-13.12 0.57,-3.67 1.27,-6.49 1.98,-8.75 0.85,-2.26 2.12,-3.81 3.53,-4.8 1.55,-0.98 3.24,-1.41 5.22,-1.41 2.96,0 7.48,1.84 13.4,5.65 5.93,3.67 13.27,7.76 21.88,12.13 8.6,4.38 18.9,8.47 30.76,12.14 11.85,3.81 25.4,5.64 40.78,5.64 11.57,0 22.01,-1.27 31.33,-3.81 9.45,-2.4 17.49,-6.06 24.41,-11 6.91,-4.8 12.13,-11.01 15.94,-18.49 3.67,-7.48 5.51,-16.37 5.51,-26.67 0,-10.44 -2.68,-19.33 -8.05,-26.39 -5.36,-7.19 -12.41,-13.54 -21.16,-19.05 -8.89,-5.5 -18.77,-10.44 -29.78,-14.67 -11,-4.24 -22.29,-8.75 -34.01,-13.41 -11.57,-4.8 -23,-10.02 -34.14,-15.94 -11.15,-5.93 -21.03,-13.13 -29.92,-21.74 -8.75,-8.6 -15.8,-18.76 -21.17,-30.62 -5.36,-11.85 -8.04,-25.96 -8.04,-42.61 0,-14.54 2.82,-28.51 8.47,-41.91 5.64,-13.41 14.11,-25.12 25.4,-35.14 11.43,-10.02 25.54,-18.2 42.47,-24.27 16.93,-6.07 36.69,-9.03 59.41,-9.03 9.88,0 19.76,0.85 29.77,2.54 9.88,1.69 18.77,3.95 26.82,6.49 8.04,2.54 14.81,5.36 20.46,8.33 5.64,3.1 10.02,5.64 12.84,8.04 2.96,2.26 4.8,4.23 5.78,5.78 0.99,1.7 1.7,3.53 2.12,5.65 0.42,1.97 0.85,4.51 1.27,7.48 0.42,3.1 0.56,6.77 0.56,11.15 0,4.65 -0.14,8.74 -0.56,12.13 -0.42,3.39 -1.13,6.21 -2.12,8.33 -0.98,2.25 -2.11,3.81 -3.52,4.79 -1.42,0.99 -2.97,1.42 -4.52,1.42 -2.54,0 -6.07,-1.56 -10.87,-4.66 -4.65,-2.96 -10.72,-6.21 -18.2,-9.74 -7.48,-3.53 -16.23,-6.77 -26.25,-9.73 -10.01,-3.11 -21.59,-4.66 -34.57,-4.66 -11.57,0 -21.87,1.27 -30.62,3.95 -8.89,2.54 -16.09,6.21 -21.73,11.01 -5.65,4.79 -10.02,10.44 -12.84,17.07 -2.97,6.49 -4.38,13.69 -4.38,21.31 0,10.72 2.83,19.75 8.33,27.09 5.5,7.34 12.56,13.69 21.45,19.19 8.75,5.51 18.91,10.45 30.2,14.96 11.29,4.38 22.72,8.89 34.43,13.55 11.71,4.8 23.28,10.02 34.71,15.8 11.43,5.79 21.59,12.84 30.34,21.03 8.89,8.32 15.95,18.2 21.31,29.77 5.36,11.57 8.04,25.4 8.04,41.35zm442.95 -88.9c0,30.34 -3.95,58.28 -11.99,83.82 -7.91,25.4 -19.9,47.41 -35.7,65.9 -15.81,18.48 -35.71,32.88 -59.41,43.18 -23.85,10.3 -51.51,15.52 -82.83,15.52 -30.63,0 -57.3,-4.52 -80.02,-13.69 -22.71,-9.03 -41.62,-22.29 -56.72,-39.65 -15.1,-17.36 -26.39,-38.52 -33.87,-63.22 -7.48,-24.83 -11.15,-52.92 -11.15,-84.38 0,-30.34 3.95,-58.28 11.72,-83.68 7.9,-25.54 19.75,-47.56 35.56,-66.04 15.8,-18.49 35.56,-32.74 59.26,-43.04 23.71,-10.16 51.37,-15.24 82.98,-15.24 30.62,0 57.29,4.51 80.01,13.69 22.72,9.03 41.62,22.29 56.72,39.65 15.1,17.36 26.53,38.38 34.15,63.22 7.48,24.83 11.29,52.77 11.29,83.96zm-71.12 4.37c0,-20.18 -1.83,-39.23 -5.64,-57.15 -3.67,-17.92 -9.88,-33.58 -18.49,-47.13 -8.47,-13.55 -20.18,-24.27 -34.85,-32.03 -14.54,-7.9 -32.88,-11.85 -54.75,-11.85 -20.18,0 -37.54,3.52 -52.07,10.72 -14.54,7.2 -26.39,17.36 -35.85,30.48 -9.45,13.12 -16.37,28.65 -20.88,46.57 -4.66,17.92 -6.92,37.53 -6.92,58.7 0,20.46 1.84,39.65 5.65,57.57 3.67,17.92 9.88,33.59 18.62,46.99 8.75,13.27 20.47,23.99 35,31.75 14.68,7.91 33.02,11.86 54.89,11.86 19.9,0 37.12,-3.53 51.79,-10.73 14.68,-7.19 26.67,-17.21 36.13,-30.2 9.45,-12.98 16.36,-28.5 20.74,-46.42 4.37,-17.92 6.63,-37.68 6.63,-59.13zm258.52 -139.7l0 325.83c0,2.26 -0.56,4.09 -1.69,5.64 -1.13,1.41 -2.97,2.83 -5.51,3.95 -2.68,0.99 -6.21,1.84 -10.58,2.4 -4.37,0.57 -9.88,0.85 -16.51,0.85 -6.63,0 -12.14,-0.28 -16.51,-0.85 -4.37,-0.56 -7.9,-1.41 -10.58,-2.4 -2.54,-1.12 -4.38,-2.54 -5.51,-3.95 -1.13,-1.55 -1.69,-3.38 -1.69,-5.64l0 -325.83 -52.78 0c-4.37,0 -7.76,-2.26 -9.87,-6.63 -2.26,-4.37 -3.39,-11.57 -3.39,-21.59 0,-5.22 0.28,-9.6 0.85,-13.12 0.56,-3.67 1.41,-6.64 2.54,-9.03 0.98,-2.26 2.4,-3.96 4.09,-4.94 1.69,-0.99 3.67,-1.41 5.78,-1.41l52.78 0 0 -38.53c0,-26.1 2.4,-48.4 7.2,-67.03 4.94,-18.62 12.13,-34 22.01,-45.86 9.74,-11.85 22.15,-20.74 37.25,-26.39 14.96,-5.64 32.74,-8.46 53.2,-8.46 10.16,0 20.04,0.99 29.78,3.1 9.59,2.12 16.51,3.95 20.6,5.79 4.23,1.83 7.06,3.53 8.75,5.22 1.69,1.55 2.96,3.81 3.95,6.35 0.99,2.68 1.69,5.78 2.12,9.59 0.42,3.67 0.56,8.19 0.56,13.41 0,5.22 -0.14,9.45 -0.56,12.7 -0.43,3.1 -1.13,5.64 -1.98,7.62 -0.7,1.83 -1.69,3.25 -2.82,3.95 -1.13,0.57 -2.4,0.99 -3.81,0.99 -2.12,0 -4.66,-0.57 -7.34,-1.84 -2.82,-1.27 -6.21,-2.68 -10.44,-4.23 -4.09,-1.41 -9.03,-2.82 -14.68,-4.09 -5.64,-1.27 -12.27,-1.84 -19.75,-1.84 -10.16,0 -18.77,1.7 -25.83,4.94 -7.05,3.39 -12.84,8.61 -17.21,15.67 -4.38,7.05 -7.62,16.08 -9.74,27.37 -2.11,11.15 -3.1,24.84 -3.1,40.92l0 40.65 168.06 0 0 -89.19c0,-1.83 0.57,-3.67 1.69,-5.36 1.13,-1.69 2.83,-3.1 5.37,-4.37 2.54,-1.27 5.92,-2.12 10.44,-2.69 4.37,-0.56 10.02,-0.84 17.07,-0.84 6.64,0 12.14,0.28 16.51,0.84 4.52,0.57 7.91,1.42 10.45,2.69 2.54,1.27 4.23,2.68 5.36,4.37 1.13,1.69 1.69,3.53 1.69,5.36l0 89.19 94.41 0c2.25,0 4.23,0.42 5.92,1.41 1.84,0.98 3.25,2.68 4.38,4.94 1.13,2.39 1.97,5.36 2.68,9.03 0.7,3.52 0.99,7.9 0.99,13.12 0,10.02 -1.27,17.22 -3.67,21.59 -2.54,4.37 -5.79,6.63 -9.88,6.63l-94.83 0 0 207.01c0,25.54 3.67,44.88 11.15,57.86 7.34,13.12 20.88,19.61 40.64,19.61 5.93,0 11.43,-0.56 16.51,-1.83 5.08,-1.27 9.6,-2.54 13.41,-3.95 3.81,-1.41 7.19,-2.68 10.01,-3.95 2.97,-1.27 5.37,-1.84 7.2,-1.84 1.69,0 2.96,0.28 4.09,0.99 1.13,0.71 1.98,1.98 2.68,3.95 0.71,1.98 1.27,4.52 1.84,7.9 0.56,3.25 0.85,7.48 0.85,12.42 0,8.04 -0.57,14.39 -1.84,19.05 -1.27,4.66 -2.96,8.19 -5.22,10.3 -2.12,2.26 -5.36,4.38 -9.45,6.21 -4.1,1.98 -9.04,3.53 -14.68,4.8 -5.64,1.27 -11.57,2.26 -18.06,3.1 -6.49,0.85 -12.7,1.27 -18.77,1.27 -19.62,0 -36.27,-2.54 -49.95,-7.62 -13.69,-5.08 -24.98,-12.84 -33.87,-23.14 -8.75,-10.3 -15.1,-23.42 -19.19,-39.23 -3.95,-15.8 -5.93,-34.43 -5.93,-55.88l0 -217.03 -167.64 0zm955.19 -47.27c0,1.98 -0.28,4.23 -0.85,7.06 -0.56,2.68 -1.55,6.2 -2.96,10.3l-109.5 353.62c-0.85,3.11 -2.12,5.65 -3.95,7.48 -1.7,1.98 -4.24,3.53 -7.34,4.52 -3.25,1.13 -7.62,1.97 -13.13,2.4 -5.5,0.42 -12.41,0.56 -20.6,0.56 -8.61,0 -15.8,-0.28 -21.59,-0.85 -5.78,-0.56 -10.3,-1.41 -13.83,-2.4 -3.38,-1.12 -5.92,-2.68 -7.62,-4.65 -1.69,-1.84 -2.82,-4.24 -3.67,-7.06l-78.17 -270.09 -0.85 -3.66 -0.85 3.66 -72.39 270.09c-0.7,3.11 -2.11,5.65 -3.81,7.48 -1.83,1.98 -4.51,3.53 -8.04,4.52 -3.67,1.13 -8.32,1.97 -13.97,2.4 -5.64,0.42 -12.56,0.56 -20.88,0.56 -8.47,0 -15.38,-0.28 -20.89,-0.85 -5.36,-0.56 -9.73,-1.41 -13.12,-2.4 -3.53,-1.12 -6.07,-2.68 -7.62,-4.65 -1.7,-1.84 -2.97,-4.24 -3.81,-7.06l-108.66 -353.62c-1.41,-4.1 -2.4,-7.62 -2.96,-10.3 -0.57,-2.83 -0.85,-5.08 -0.85,-7.06 0,-2.54 0.57,-4.52 1.7,-6.07 1.12,-1.41 2.96,-2.68 5.64,-3.67 2.54,-0.98 6.07,-1.55 10.44,-1.83 4.52,-0.28 9.88,-0.42 16.23,-0.42 7.62,0 13.83,0.14 18.49,0.56 4.79,0.42 8.32,1.13 10.86,2.12 2.4,0.98 4.23,2.4 5.36,4.09 0.99,1.83 1.98,3.95 2.83,6.49l89.74 307.34 0.85 3.67 0.85 -3.67 82.26 -307.34c0.57,-2.54 1.42,-4.66 2.69,-6.49 1.12,-1.69 3.1,-3.11 5.5,-4.09 2.54,-0.99 5.93,-1.7 10.16,-2.12 4.23,-0.42 9.88,-0.56 16.79,-0.56 6.63,0 12,0.14 16.23,0.56 4.37,0.42 7.76,1.13 10.16,2.12 2.54,0.98 4.23,2.25 5.36,3.95 1.13,1.69 1.98,3.53 2.54,5.78l88.9 308.19 0.85 3.67 0.42 -3.67 88.48 -307.34c0.42,-2.54 1.41,-4.66 2.68,-6.49 1.13,-1.69 3.1,-3.11 5.79,-4.09 2.54,-0.99 6.06,-1.7 10.72,-2.12 4.52,-0.42 10.3,-0.56 17.5,-0.56 6.63,0 11.99,0.14 15.94,0.42 3.95,0.28 7.2,0.99 9.46,2.12 2.4,0.98 4.09,2.25 5.08,3.66 0.84,1.42 1.41,3.25 1.41,5.79zm355.74 373.52c0,3.25 -1.13,5.79 -3.25,7.48 -2.26,1.69 -5.22,2.82 -9.17,3.67 -3.81,0.85 -9.45,1.27 -16.93,1.27 -7.06,0 -12.84,-0.42 -17.08,-1.27 -4.23,-0.85 -7.34,-1.98 -9.31,-3.67 -1.98,-1.69 -2.96,-4.09 -2.96,-7.48l0 -37.25c-16.23,17.36 -34.29,30.9 -54.33,40.5 -20.04,9.45 -41.21,14.25 -63.5,14.25 -19.62,0 -37.4,-2.54 -53.2,-7.62 -15.81,-5.08 -29.35,-12.56 -40.5,-22.15 -11.15,-9.6 -19.9,-21.59 -26.11,-35.56 -6.21,-14.12 -9.31,-30.06 -9.31,-47.98 0,-21.03 4.23,-39.23 12.84,-54.61 8.47,-15.53 20.74,-28.37 36.83,-38.53 15.95,-10.16 35.56,-17.92 58.7,-23 23.15,-5.08 49.25,-7.62 78.18,-7.62l51.36 0 0 -29.07c0,-14.25 -1.55,-26.95 -4.51,-38.1 -3.11,-11 -7.9,-20.18 -14.68,-27.51 -6.77,-7.34 -15.52,-12.84 -26.24,-16.51 -10.73,-3.81 -23.99,-5.65 -39.66,-5.65 -16.79,0 -31.89,1.98 -45.15,6.07 -13.41,4.09 -25.12,8.47 -35.14,13.41 -10.02,4.93 -18.48,9.31 -25.26,13.4 -6.63,4.09 -11.71,6.07 -14.96,6.07 -2.25,0 -4.23,-0.57 -5.78,-1.69 -1.69,-0.99 -3.11,-2.69 -4.38,-4.94 -1.27,-2.12 -2.11,-4.94 -2.68,-8.33 -0.56,-3.53 -0.84,-7.2 -0.84,-11.43 0,-6.77 0.42,-12.28 1.41,-16.23 0.99,-3.95 3.38,-7.76 7.05,-11.29 3.67,-3.52 10.16,-7.76 19.19,-12.7 9.04,-4.79 19.62,-9.31 31.47,-13.4 11.71,-3.95 24.7,-7.34 38.81,-10.02 13.97,-2.68 28.22,-3.95 42.47,-3.95 26.67,0 49.39,2.96 68.16,9.03 18.77,6.07 33.87,15.1 45.44,26.81 11.57,11.71 19.89,26.25 25.12,43.6 5.22,17.36 7.9,37.68 7.9,60.82l0 251.18zm-67.74 -170.46l-58.27 0c-18.63,0 -34.86,1.55 -48.69,4.8 -13.69,3.1 -25.12,7.9 -34.29,14.11 -9.03,6.21 -15.66,13.54 -20.04,22.29 -4.23,8.75 -6.35,18.77 -6.35,30.06 0,19.33 6.07,34.71 18.35,46.14 12.27,11.43 29.35,17.22 51.5,17.22 17.78,0 34.44,-4.52 49.68,-13.69 15.24,-9.03 31.32,-23 48.11,-41.77l0 -79.16zm410.63 -178.08c0,6.06 -0.14,11.14 -0.42,15.24 -0.28,4.09 -0.85,7.33 -1.69,9.73 -0.71,2.4 -1.84,4.1 -3.11,5.37 -1.13,1.27 -2.82,1.83 -5.08,1.83 -2.25,0 -4.94,-0.56 -8.04,-1.83 -3.25,-1.27 -6.77,-2.54 -10.72,-3.67 -3.96,-1.27 -8.47,-2.4 -13.41,-3.53 -4.94,-1.13 -10.3,-1.69 -16.09,-1.69 -6.91,0 -13.68,1.41 -20.32,4.09 -6.49,2.82 -13.54,7.34 -20.74,13.83 -7.34,6.35 -14.96,14.81 -23,25.26 -7.9,10.58 -16.79,23.42 -26.39,38.66l0 244.83c0,2.26 -0.56,4.09 -1.69,5.64 -1.13,1.41 -2.83,2.83 -5.37,3.95 -2.54,0.99 -5.92,1.84 -10.44,2.4 -4.37,0.57 -10.02,0.85 -16.93,0.85 -6.77,0 -12.28,-0.28 -16.65,-0.85 -4.52,-0.56 -8.05,-1.41 -10.59,-2.4 -2.68,-1.12 -4.51,-2.54 -5.5,-3.95 -0.99,-1.55 -1.41,-3.38 -1.41,-5.64l0 -372.25c0,-2.26 0.42,-4.1 1.27,-5.65 0.85,-1.41 2.4,-2.82 4.94,-4.09 2.54,-1.27 5.64,-2.12 9.59,-2.54 3.81,-0.42 9.04,-0.56 15.39,-0.56 6.06,0 11.14,0.14 15.09,0.56 4.1,0.42 7.2,1.27 9.46,2.54 2.12,1.27 3.81,2.68 4.8,4.09 0.84,1.55 1.41,3.39 1.41,5.65l0 54.18c10.16,-14.95 19.75,-27.09 28.64,-36.54 9.04,-9.32 17.5,-16.8 25.4,-22.16 8.05,-5.36 15.95,-9.03 23.71,-11.15 7.9,-2.11 15.81,-3.1 23.85,-3.1 3.53,0 7.62,0.14 12.13,0.56 4.52,0.43 9.32,1.27 14.26,2.26 4.94,1.13 9.45,2.4 13.4,3.81 3.95,1.41 6.78,2.68 8.47,4.09 1.69,1.41 2.82,2.68 3.24,3.95 0.57,1.27 1.13,2.83 1.56,4.66 0.42,1.98 0.7,4.8 0.84,8.47 0.14,3.81 0.14,8.75 0.14,15.1zm383.12 145.76c0,10.73 -2.68,18.35 -8.04,23.01 -5.36,4.51 -11.57,6.77 -18.48,6.77l-244.41 0c0,20.74 2.12,39.37 6.21,55.88 4.09,16.65 11.01,30.9 20.74,42.76 9.6,11.85 22.16,20.88 37.54,27.23 15.52,6.35 34.43,9.6 56.73,9.6 17.63,0 33.44,-1.41 47.13,-4.38 13.83,-2.82 25.82,-6.07 35.84,-9.59 10.02,-3.53 18.34,-6.78 24.83,-9.6 6.5,-2.96 11.29,-4.37 14.68,-4.37 1.98,0 3.67,0.42 5.22,1.41 1.41,0.99 2.68,2.4 3.39,4.37 0.84,1.84 1.55,4.52 1.97,7.9 0.43,3.53 0.57,7.62 0.57,12.56 0,3.53 -0.14,6.64 -0.43,9.32 -0.28,2.54 -0.56,4.94 -0.98,6.91 -0.43,2.12 -1.13,3.95 -2.12,5.65 -0.99,1.55 -2.12,3.1 -3.67,4.65 -1.55,1.55 -6.07,3.95 -13.4,7.34 -7.48,3.53 -17.08,6.77 -28.93,10.16 -11.86,3.25 -25.54,6.21 -41.07,8.75 -15.52,2.68 -32.03,3.95 -49.67,3.95 -30.62,0 -57.29,-4.23 -80.29,-12.84 -23,-8.47 -42.33,-21.17 -58,-37.96 -15.66,-16.93 -27.51,-37.96 -35.42,-63.36 -8.04,-25.26 -11.99,-54.75 -11.99,-88.48 0,-31.89 4.09,-60.67 12.42,-86.22 8.18,-25.4 20.18,-47.13 35.7,-64.91 15.52,-17.78 34.43,-31.32 56.44,-40.92 22.02,-9.45 46.71,-14.25 73.95,-14.25 29.21,0 54.04,4.66 74.5,14.11 20.61,9.31 37.4,22.01 50.66,37.82 13.13,15.8 22.86,34.43 29.07,55.88 6.21,21.31 9.31,44.17 9.31,68.44l0 12.41zm-68.58 -20.17c0.85,-35.85 -7.05,-64.07 -23.84,-84.53 -16.8,-20.46 -41.49,-30.62 -74.37,-30.62 -16.93,0 -31.75,3.1 -44.45,9.45 -12.7,6.35 -23.28,14.82 -31.89,25.4 -8.61,10.45 -15.24,22.72 -19.9,36.55 -4.65,13.97 -7.34,28.51 -7.9,43.75l202.35 0z"/>
  <path class="fil5" d="M1270.36 3467.08c0,9.81 -1.63,16.3 -4.87,19.55 -3.25,3.24 -9.1,4.86 -17.64,4.86 -8.33,0 -14.04,-1.62 -17.22,-4.79 -3.17,-3.18 -4.72,-9.53 -4.72,-19.05 0,-9.81 1.62,-16.3 4.86,-19.55 3.25,-3.24 9.11,-4.87 17.64,-4.87 8.33,0 14.04,1.56 17.22,4.73 3.1,3.18 4.73,9.6 4.73,19.12zm196.63 -11.08c0,2.33 -0.07,4.38 -0.21,6.07 -0.14,1.77 -0.35,3.18 -0.71,4.38 -0.35,1.2 -0.77,2.18 -1.27,3.1 -0.49,0.92 -1.55,2.26 -3.31,3.95 -1.69,1.77 -4.66,3.88 -8.75,6.49 -4.16,2.54 -8.82,4.87 -13.97,6.85 -5.22,2.04 -10.79,3.67 -16.86,4.86 -6.07,1.27 -12.35,1.91 -18.84,1.91 -13.41,0 -25.26,-2.19 -35.56,-6.63 -10.37,-4.38 -19.05,-10.8 -25.96,-19.26 -6.99,-8.47 -12.28,-18.91 -15.95,-31.19 -3.67,-12.35 -5.5,-26.53 -5.5,-42.68 0,-18.28 2.25,-34.01 6.7,-47.21 4.51,-13.12 10.65,-23.91 18.41,-32.31 7.84,-8.4 17.01,-14.61 27.52,-18.7 10.58,-4.02 22.01,-6.07 34.29,-6.07 5.93,0 11.64,0.57 17.22,1.7 5.64,1.06 10.72,2.54 15.45,4.3 4.65,1.84 8.89,3.88 12.49,6.28 3.66,2.33 6.35,4.38 7.97,6 1.69,1.69 2.82,3.03 3.46,3.95 0.56,0.99 1.12,2.12 1.55,3.46 0.35,1.27 0.63,2.75 0.77,4.44 0.14,1.62 0.22,3.74 0.22,6.21 0,5.36 -0.64,9.1 -1.84,11.29 -1.27,2.12 -2.75,3.17 -4.59,3.17 -2.04,0 -4.44,-1.12 -7.12,-3.45 -2.68,-2.26 -6.07,-4.8 -10.23,-7.55 -4.16,-2.75 -9.17,-5.29 -15.03,-7.55 -5.86,-2.33 -12.77,-3.46 -20.74,-3.46 -16.44,0 -29.07,6.28 -37.82,18.91 -8.75,12.56 -13.12,30.83 -13.12,54.75 0,11.92 1.13,22.44 3.38,31.47 2.33,8.96 5.65,16.51 10.09,22.58 4.38,5.99 9.81,10.51 16.23,13.47 6.42,2.97 13.76,4.45 22.01,4.45 7.91,0 14.82,-1.27 20.75,-3.74 5.92,-2.47 11,-5.22 15.38,-8.26 4.37,-2.96 8.04,-5.64 11,-8.04 2.97,-2.47 5.22,-3.67 6.92,-3.67 0.92,0 1.76,0.28 2.47,0.85 0.7,0.56 1.27,1.48 1.76,2.75 0.5,1.34 0.85,2.96 1.06,5.01 0.21,1.97 0.28,4.37 0.28,7.12zm214.42 -66.6c0,15.17 -1.98,29.14 -6,41.91 -3.95,12.7 -9.95,23.71 -17.85,32.95 -7.9,9.24 -17.85,16.44 -29.7,21.59 -11.93,5.15 -25.76,7.76 -41.42,7.76 -15.31,0 -28.64,-2.26 -40,-6.84 -11.36,-4.52 -20.82,-11.15 -28.37,-19.83 -7.55,-8.68 -13.19,-19.26 -16.93,-31.61 -3.74,-12.42 -5.57,-26.46 -5.57,-42.19 0,-15.17 1.97,-29.14 5.85,-41.84 3.95,-12.77 9.88,-23.78 17.78,-33.02 7.9,-9.24 17.78,-16.37 29.64,-21.52 11.85,-5.08 25.68,-7.62 41.48,-7.62 15.31,0 28.65,2.26 40.01,6.85 11.36,4.51 20.81,11.14 28.36,19.82 7.55,8.68 13.26,19.19 17.07,31.61 3.74,12.42 5.65,26.39 5.65,41.98zm-35.56 2.19c0,-10.09 -0.92,-19.62 -2.82,-28.58 -1.84,-8.96 -4.94,-16.79 -9.25,-23.56 -4.23,-6.78 -10.09,-12.14 -17.42,-16.02 -7.27,-3.95 -16.44,-5.93 -27.38,-5.93 -10.09,0 -18.77,1.77 -26.03,5.37 -7.27,3.6 -13.2,8.68 -17.92,15.24 -4.73,6.56 -8.19,14.32 -10.45,23.28 -2.32,8.96 -3.45,18.77 -3.45,29.35 0,10.23 0.91,19.83 2.82,28.79 1.83,8.96 4.94,16.79 9.31,23.49 4.38,6.63 10.23,12 17.5,15.88 7.34,3.95 16.51,5.92 27.45,5.92 9.94,0 18.55,-1.76 25.89,-5.36 7.34,-3.6 13.33,-8.61 18.06,-15.1 4.73,-6.49 8.19,-14.25 10.37,-23.21 2.19,-8.96 3.32,-18.84 3.32,-29.56zm362.09 93.06c0,1.13 -0.28,2.05 -0.85,2.82 -0.56,0.71 -1.41,1.41 -2.68,1.98 -1.2,0.49 -2.96,0.91 -5.15,1.2 -2.18,0.28 -4.94,0.42 -8.25,0.42 -3.46,0 -6.28,-0.14 -8.47,-0.42 -2.19,-0.29 -3.95,-0.71 -5.29,-1.2 -1.27,-0.57 -2.19,-1.27 -2.75,-1.98 -0.57,-0.77 -0.85,-1.69 -0.85,-2.82l0 -113.1c0,-7.9 -0.7,-15.1 -2.04,-21.52 -1.42,-6.49 -3.6,-12.06 -6.64,-16.79 -3.03,-4.66 -6.84,-8.26 -11.5,-10.73 -4.65,-2.47 -10.16,-3.74 -16.51,-3.74 -7.83,0 -15.73,3.04 -23.56,9.11 -7.9,6.06 -16.65,14.95 -26.11,26.67l0 130.1c0,1.13 -0.28,2.05 -0.84,2.82 -0.57,0.71 -1.49,1.41 -2.83,1.98 -1.27,0.49 -3.03,0.91 -5.29,1.2 -2.19,0.28 -4.94,0.42 -8.25,0.42 -3.25,0 -5.93,-0.14 -8.26,-0.42 -2.26,-0.29 -4.09,-0.71 -5.36,-1.2 -1.34,-0.57 -2.26,-1.27 -2.75,-1.98 -0.5,-0.77 -0.71,-1.69 -0.71,-2.82l0 -113.1c0,-7.9 -0.77,-15.1 -2.26,-21.52 -1.55,-6.49 -3.81,-12.06 -6.84,-16.79 -3.03,-4.66 -6.84,-8.26 -11.43,-10.73 -4.66,-2.47 -10.09,-3.74 -16.44,-3.74 -7.83,0 -15.8,3.04 -23.78,9.11 -7.97,6.06 -16.65,14.95 -26.03,26.67l0 130.1c0,1.13 -0.28,2.05 -0.85,2.82 -0.56,0.71 -1.41,1.41 -2.68,1.98 -1.27,0.49 -2.96,0.91 -5.22,1.2 -2.19,0.28 -5.01,0.42 -8.47,0.42 -3.38,0 -6.13,-0.14 -8.32,-0.42 -2.26,-0.29 -4.02,-0.71 -5.29,-1.2 -1.34,-0.57 -2.26,-1.27 -2.75,-1.98 -0.5,-0.77 -0.71,-1.69 -0.71,-2.82l0 -186.12c0,-1.13 0.21,-2.05 0.63,-2.83 0.43,-0.7 1.2,-1.41 2.47,-2.04 1.27,-0.64 2.83,-1.06 4.8,-1.27 1.91,-0.21 4.52,-0.29 7.69,-0.29 3.04,0 5.58,0.08 7.55,0.29 2.05,0.21 3.6,0.63 4.73,1.27 1.06,0.63 1.9,1.34 2.4,2.04 0.42,0.78 0.7,1.7 0.7,2.83l0 24.62c10.45,-11.78 20.68,-20.39 30.55,-25.82 9.81,-5.44 19.83,-8.19 29.85,-8.19 7.76,0 14.67,0.92 20.81,2.68 6.14,1.84 11.57,4.31 16.23,7.55 4.73,3.25 8.75,7.13 11.99,11.64 3.32,4.45 6.07,9.46 8.33,15.03 6.21,-6.77 12.06,-12.49 17.64,-17.21 5.57,-4.73 10.93,-8.47 16.08,-11.43 5.16,-2.9 10.16,-5.01 15.03,-6.28 4.94,-1.34 9.81,-1.98 14.75,-1.98 11.99,0 22.01,2.12 30.13,6.28 8.11,4.23 14.67,9.88 19.75,16.86 5.01,7.06 8.54,15.31 10.73,24.77 2.11,9.45 3.17,19.4 3.17,29.91l0 117.69zm106.19 -17.57c0,9.81 -1.63,16.3 -4.87,19.55 -3.25,3.24 -9.1,4.86 -17.64,4.86 -8.33,0 -14.04,-1.62 -17.22,-4.79 -3.17,-3.18 -4.72,-9.53 -4.72,-19.05 0,-9.81 1.62,-16.3 4.86,-19.55 3.25,-3.24 9.11,-4.87 17.64,-4.87 8.33,0 14.04,1.56 17.22,4.73 3.1,3.18 4.73,9.6 4.73,19.12zm338.87 17.57c0,1.13 -0.28,2.05 -0.85,2.82 -0.56,0.71 -1.41,1.41 -2.68,1.98 -1.2,0.49 -2.96,0.91 -5.15,1.2 -2.18,0.28 -4.94,0.42 -8.25,0.42 -3.46,0 -6.28,-0.14 -8.47,-0.42 -2.19,-0.29 -3.95,-0.71 -5.29,-1.2 -1.27,-0.57 -2.19,-1.27 -2.75,-1.98 -0.57,-0.77 -0.85,-1.69 -0.85,-2.82l0 -113.1c0,-7.9 -0.7,-15.1 -2.04,-21.52 -1.42,-6.49 -3.6,-12.06 -6.64,-16.79 -3.03,-4.66 -6.84,-8.26 -11.5,-10.73 -4.65,-2.47 -10.16,-3.74 -16.51,-3.74 -7.83,0 -15.73,3.04 -23.56,9.11 -7.9,6.06 -16.65,14.95 -26.11,26.67l0 130.1c0,1.13 -0.28,2.05 -0.84,2.82 -0.57,0.71 -1.49,1.41 -2.83,1.98 -1.27,0.49 -3.03,0.91 -5.29,1.2 -2.19,0.28 -4.94,0.42 -8.25,0.42 -3.25,0 -5.93,-0.14 -8.26,-0.42 -2.26,-0.29 -4.09,-0.71 -5.36,-1.2 -1.34,-0.57 -2.26,-1.27 -2.75,-1.98 -0.5,-0.77 -0.71,-1.69 -0.71,-2.82l0 -113.1c0,-7.9 -0.77,-15.1 -2.26,-21.52 -1.55,-6.49 -3.81,-12.06 -6.84,-16.79 -3.03,-4.66 -6.84,-8.26 -11.43,-10.73 -4.66,-2.47 -10.09,-3.74 -16.44,-3.74 -7.83,0 -15.8,3.04 -23.78,9.11 -7.97,6.06 -16.65,14.95 -26.03,26.67l0 130.1c0,1.13 -0.28,2.05 -0.85,2.82 -0.56,0.71 -1.41,1.41 -2.68,1.98 -1.27,0.49 -2.96,0.91 -5.22,1.2 -2.19,0.28 -5.01,0.42 -8.47,0.42 -3.38,0 -6.13,-0.14 -8.32,-0.42 -2.26,-0.29 -4.02,-0.71 -5.29,-1.2 -1.34,-0.57 -2.26,-1.27 -2.75,-1.98 -0.5,-0.77 -0.71,-1.69 -0.71,-2.82l0 -186.12c0,-1.13 0.21,-2.05 0.63,-2.83 0.43,-0.7 1.2,-1.41 2.47,-2.04 1.27,-0.64 2.83,-1.06 4.8,-1.27 1.91,-0.21 4.52,-0.29 7.69,-0.29 3.04,0 5.58,0.08 7.55,0.29 2.05,0.21 3.6,0.63 4.73,1.27 1.06,0.63 1.9,1.34 2.4,2.04 0.42,0.78 0.7,1.7 0.7,2.83l0 24.62c10.45,-11.78 20.68,-20.39 30.55,-25.82 9.81,-5.44 19.83,-8.19 29.85,-8.19 7.76,0 14.67,0.92 20.81,2.68 6.14,1.84 11.57,4.31 16.23,7.55 4.73,3.25 8.75,7.13 11.99,11.64 3.32,4.45 6.07,9.46 8.33,15.03 6.21,-6.77 12.06,-12.49 17.64,-17.21 5.57,-4.73 10.93,-8.47 16.08,-11.43 5.16,-2.9 10.16,-5.01 15.03,-6.28 4.94,-1.34 9.81,-1.98 14.75,-1.98 11.99,0 22.01,2.12 30.13,6.28 8.11,4.23 14.67,9.88 19.75,16.86 5.01,7.06 8.54,15.31 10.73,24.77 2.11,9.45 3.17,19.4 3.17,29.91l0 117.69zm198.9 -3.95c1.13,1.97 1.69,3.6 1.69,4.87 0,1.34 -0.71,2.4 -1.98,3.24 -1.34,0.78 -3.31,1.41 -5.99,1.77 -2.68,0.35 -6.21,0.49 -10.45,0.49 -4.16,0 -7.4,-0.07 -9.8,-0.28 -2.47,-0.21 -4.38,-0.57 -5.79,-1.06 -1.48,-0.49 -2.61,-1.13 -3.31,-1.83 -0.78,-0.78 -1.41,-1.63 -1.98,-2.62l-44.66 -73.87 -44.45 73.87c-0.56,0.99 -1.2,1.84 -1.98,2.62 -0.7,0.7 -1.83,1.34 -3.31,1.83 -1.41,0.49 -3.32,0.85 -5.65,1.06 -2.32,0.21 -5.43,0.28 -9.31,0.28 -4.02,0 -7.27,-0.14 -9.81,-0.49 -2.54,-0.36 -4.44,-0.99 -5.57,-1.77 -1.2,-0.84 -1.76,-1.9 -1.69,-3.24 0.07,-1.27 0.77,-2.9 1.97,-4.87l57.93 -90.74 -54.82 -87.48c-1.06,-1.98 -1.7,-3.6 -1.77,-4.87 -0.07,-1.34 0.57,-2.4 1.91,-3.32 1.27,-0.92 3.24,-1.48 5.99,-1.76 2.69,-0.28 6.21,-0.43 10.59,-0.43 4.02,0 7.19,0.08 9.66,0.29 2.4,0.21 4.31,0.56 5.65,0.98 1.41,0.36 2.4,0.92 3.1,1.63 0.71,0.7 1.34,1.55 1.91,2.47l42.33 69.28 43.04 -69.28c0.49,-0.85 1.13,-1.56 1.83,-2.26 0.71,-0.71 1.63,-1.27 2.76,-1.76 1.19,-0.5 2.82,-0.85 5,-1.06 2.12,-0.21 5.08,-0.29 8.75,-0.29 4.02,0 7.27,0.15 9.81,0.43 2.61,0.28 4.45,0.77 5.72,1.55 1.27,0.78 1.76,1.83 1.62,3.18 -0.14,1.41 -0.78,3.1 -2.05,5.22l-54.33 86.43 57.44 91.79z"/>
 </g>
</svg>
