<?xml version="1.0" encoding="UTF-8"?>
<!DOCTYPE svg PUBLIC "-//W3C//DTD SVG 1.1//EN" "http://www.w3.org/Graphics/SVG/1.1/DTD/svg11.dtd">
<!-- Creator: CorelDRAW 2017 -->
<svg xmlns="http://www.w3.org/2000/svg" xml:space="preserve" width="50.7998mm" height="33.8666mm" version="1.1" style="shape-rendering:geometricPrecision; text-rendering:geometricPrecision; image-rendering:optimizeQuality; fill-rule:evenodd; clip-rule:evenodd"
viewBox="0 0 5079.98 3386.66"
 xmlns:xlink="http://www.w3.org/1999/xlink">
 <defs>
  <style type="text/css">
   <![CDATA[
    .fil0 {fill:#4B4B4D;fill-rule:nonzero}
   ]]>
  </style>
    <clipPath id="id0">
     <rect x="82.11" y="594.32" width="2198.02" height="2198.03"/>
    </clipPath>
    <clipPath id="id1">
     <rect x="2799.85" y="594.31" width="2198.02" height="2198.02"/>
    </clipPath>
 </defs>
 <g id="Capa_x0020_1">
  <metadata id="CorelCorpID_0Corel-Layer"/>
  <g id="_2060418418320">
   <g style="clip-path:url(#id0)">
    <image x="82.11" y="594.33" width="2198.01" height="2198.02" xlink:href="tatto dignidad orgullo coraje_Images\tatto dignidad orgullo coraje_ImgID1.png"/>
   </g>
   <g style="clip-path:url(#id1)">
    <image x="2799.85" y="594.31" width="2198.02" height="2198.02" xlink:href="tatto dignidad orgullo coraje_Images\tatto dignidad orgullo coraje_ImgID2.png"/>
   </g>
   <g>
    <path class="fil0" d="M1492.76 945.61c2.18,-7.38 0.33,-12.48 -5.53,-15.3 -5.86,-2.82 -15.95,-4.23 -30.28,-4.23 -23.44,0 -47.31,4.99 -71.62,14.97 -24.31,9.99 -46.34,22.25 -66.08,36.79 -19.76,14.54 -35.92,30.17 -48.51,46.88 -12.59,16.71 -18.88,31.8 -18.88,45.25 0,7.38 1.3,13.35 3.9,17.91 2.61,4.56 5.75,8.35 9.44,11.39 3.69,3.04 7.71,5.1 12.05,6.19 4.34,1.08 8.25,1.62 11.72,1.62 6.07,0 10.85,-1.08 14.32,-3.25 3.48,-2.17 6.08,-4.99 7.82,-8.47 3.03,-6.07 7.26,-11.6 12.69,-16.6 5.43,-4.99 13.57,-7.49 24.42,-7.49 7.81,0 14.32,3.04 19.53,9.12 5.21,6.08 7.82,14.11 7.82,24.09 0,12.59 -5.87,23.33 -17.58,32.23 -11.72,8.9 -26.92,13.35 -45.58,13.35 -11.29,0 -22.25,-1.85 -32.88,-5.54 -10.64,-3.69 -20.29,-9.22 -28.98,-16.6 -8.68,-7.38 -15.62,-16.93 -20.83,-28.65 -5.21,-11.72 -7.81,-25.83 -7.81,-42.32 0,-28.22 7.16,-54.26 21.48,-78.13 14.33,-23.88 35.16,-42.33 62.51,-55.34 14.32,-6.95 29.41,-12.27 45.25,-15.96 15.84,-3.69 33.42,-6.4 52.74,-8.14 19.31,-1.73 40.91,-2.71 64.78,-2.93 23.88,-0.21 50.79,-0.32 80.74,-0.32 21.27,0 43.51,0.54 66.74,1.62 23.22,1.09 45.68,3.37 67.39,6.84 21.7,3.48 41.99,8.47 60.87,14.98 18.89,6.51 34.62,15.41 47.21,26.69 19.1,16.5 33.53,34.73 43.3,54.7 9.76,19.96 14.65,45.57 14.65,76.83 0,28.64 -5.75,57.4 -17.26,86.27 -11.5,28.86 -29.62,55.66 -54.36,80.41 -28.65,28.21 -65.55,50.24 -110.69,66.08 -45.14,15.85 -101.35,23.77 -168.64,23.77 -12.59,0 -25.17,-0.33 -37.76,-0.98 -12.59,-0.65 -25.18,-0.97 -37.76,-0.97 -6.08,0 -10.86,-0.33 -14.33,-0.98 -3.47,-0.65 -5.64,-3.15 -6.51,-7.49 -0.87,-4.34 -0.43,-11.5 1.3,-21.48 1.74,-9.99 4.78,-24.32 9.12,-42.98l80.08 -313.83zm10.42 328.81c-3.47,14.32 -2.93,24.09 1.63,29.3 4.56,5.21 11.39,7.81 20.51,7.81 13.45,0 27.35,-1.63 41.67,-4.88 14.32,-3.26 28.1,-7.71 41.34,-13.35 13.24,-5.64 25.83,-12.37 37.77,-20.18 11.94,-7.82 22.46,-16.06 31.58,-24.75 27.34,-26.48 47.2,-54.8 59.57,-84.96 12.37,-30.17 18.77,-62.18 19.21,-96.04 0,-22.58 -3.47,-42.87 -10.42,-60.88 -6.94,-18.01 -16.82,-33.32 -29.62,-45.9 -12.81,-12.59 -28,-22.14 -45.58,-28.65 -17.58,-6.51 -37.22,-9.77 -58.92,-9.77 -8.68,0 -14.65,1.08 -17.91,3.26 -3.26,2.17 -5.97,7.59 -8.14,16.27l-82.69 332.72zm463.59 16.93c7.81,0 11.5,2.17 11.06,6.51 -0.43,4.34 -3.79,9 -10.09,14 -6.29,4.99 -15.19,9.65 -26.69,14 -11.51,4.34 -24.64,6.51 -39.4,6.51 -9.98,0 -16.71,-2.06 -20.18,-6.19 -3.47,-4.12 -5.21,-8.57 -5.21,-13.35 0,-3.03 0.76,-7.27 2.28,-12.69 1.52,-5.43 3.8,-12.92 6.84,-22.46 3.03,-9.56 6.94,-21.27 11.72,-35.16 4.77,-13.9 10.63,-30.82 17.58,-50.79l17.58 -51.44c3.04,-8.68 5.42,-15.95 7.16,-21.81 1.73,-5.86 2.61,-10.74 2.61,-14.65 0,-5.64 -2.83,-8.46 -8.47,-8.46 -1.3,0 -3.26,-0.65 -5.86,-1.96 -2.61,-1.3 -4.78,-3.15 -6.51,-5.53 -1.74,-2.39 -2.5,-5.1 -2.28,-8.14 0.22,-3.04 2.82,-6.4 7.81,-10.09 4.99,-3.69 12.7,-7.38 23.12,-11.07 10.42,-3.69 25.17,-7.27 44.27,-10.74 9.99,-2.17 17.58,-0.44 22.79,5.21 5.21,5.64 7.81,11.71 7.81,18.23 0,7.38 -1.84,16.38 -5.53,27.02 -3.69,10.63 -8.79,25.5 -15.3,44.6l-35.16 99.62c-4.34,12.15 -7.16,20.94 -8.46,26.37 -1.31,5.42 -1.96,9.87 -1.96,13.34 0,2.17 0.55,4.24 1.63,6.19 1.08,1.95 3.36,2.93 6.84,2.93zm34.5 -388.71c15.63,0 27.24,3.58 34.84,10.75 7.6,7.15 11.39,15.73 11.39,25.71 0,5.21 -1.19,10.31 -3.58,15.3 -2.39,4.99 -5.64,9.55 -9.77,13.67 -4.12,4.13 -8.89,7.5 -14.32,10.1 -5.42,2.6 -11.18,3.9 -17.25,3.9 -12.59,0 -22.69,-3.47 -30.28,-10.41 -7.59,-6.95 -11.39,-16.71 -11.39,-29.3 0,-9.99 3.9,-19.1 11.71,-27.35 7.82,-8.24 17.37,-12.37 28.65,-12.37zm180.36 623.1c-20.83,0 -40.26,-2.17 -58.27,-6.51 -18.01,-4.34 -33.53,-10.31 -46.56,-17.91 -13.02,-7.59 -23.22,-16.27 -30.6,-26.04 -7.38,-9.76 -11.06,-20.08 -11.06,-30.93 0,-10.85 1.41,-19.64 4.23,-26.36 2.82,-6.73 9.87,-14.65 21.16,-23.77 13.45,-10.85 28.1,-19.75 43.95,-26.7 15.84,-6.94 28.97,-12.58 39.39,-16.92 -9.98,-7.38 -16.71,-14.11 -20.19,-20.19 -3.47,-6.07 -5.2,-12.8 -5.2,-20.18 0,-7.38 5.31,-15.52 15.95,-24.42 10.63,-8.89 24.85,-17.04 42.64,-24.42l0 -1.3c-9.98,-4.77 -18.44,-9.65 -25.39,-14.64 -6.94,-5 -12.59,-10.53 -16.93,-16.61 -4.34,-6.07 -7.59,-13.35 -9.77,-21.81 -2.16,-8.47 -3.25,-18.56 -3.25,-30.28 0,-11.72 2.93,-24.63 8.79,-38.74 5.86,-14.1 14.65,-27.34 26.37,-39.72 11.72,-12.37 26.15,-22.79 43.3,-31.25 17.15,-8.46 37,-12.69 59.57,-12.69 10.86,0 20.41,1.08 28.65,3.25 8.25,2.17 15.2,4.89 20.84,8.14 5.64,3.26 10.2,6.62 13.67,10.09 3.48,3.47 6.08,6.51 7.81,9.12 6.95,-5.21 15.2,-10.42 24.75,-15.63 9.55,-5.21 19.31,-7.81 29.3,-7.81 10.42,0 18.01,3.25 22.78,9.76 4.78,6.52 7.38,13.24 7.82,20.19 -0.44,8.68 -3.15,15.51 -8.14,20.51 -4.99,4.99 -11.39,7.49 -19.21,7.49 -3.91,0 -7.71,-0.98 -11.39,-2.93 -3.69,-1.96 -6.84,-4.24 -9.44,-6.84 -1.74,-1.74 -3.47,-3.37 -5.21,-4.88 -1.74,-1.52 -3.69,-2.28 -5.86,-2.28 -5.64,0 -10.42,1.95 -14.33,5.85 1.74,3.91 2.82,8.8 3.26,14.65 0.43,5.87 0.65,12.49 0.65,19.86 0,7.82 -2.28,17.91 -6.84,30.28 -4.55,12.37 -11.5,24.74 -20.83,37.11 -9.34,12.37 -21.05,23.44 -35.16,33.21 -14.11,9.77 -30.49,15.95 -49.16,18.55 -7.38,0.88 -13.89,1.64 -19.53,2.29 -5.65,0.65 -8.9,1.19 -9.77,1.62 -6.94,3.04 -12.37,7.17 -16.28,12.38 -3.9,5.2 -5.86,10.19 -5.86,14.97 0,3.47 1.96,7.05 5.86,10.74 3.91,3.69 7.38,6.41 10.42,8.14 6.51,3.48 17.8,9.33 33.86,17.58 16.06,8.25 36.03,19.1 59.9,32.55 19.97,11.29 33.42,22.68 40.37,34.19 6.94,11.5 10.42,22.25 10.42,32.23 0,5.64 -0.65,11.61 -1.96,17.91 -1.3,6.29 -3.8,12.69 -7.48,19.2 -3.7,6.51 -8.91,12.92 -15.63,19.21 -6.73,6.29 -15.3,12.04 -25.72,17.25 -13.89,7.38 -29.19,13.14 -45.9,17.26 -16.71,4.12 -38.31,6.18 -64.79,6.18zm12.38 -315.78c0,11.28 1.51,19.21 4.55,23.76 3.04,4.56 8.03,6.84 14.98,6.84 8.24,0 16.06,-4.02 23.44,-12.05 7.38,-8.03 13.78,-18.12 19.21,-30.27 5.42,-12.15 9.65,-25.39 12.69,-39.72 3.04,-14.32 4.56,-27.78 4.56,-40.37 0,-13.45 -0.76,-23.65 -2.28,-30.6 -1.52,-6.94 -6.84,-10.41 -15.95,-10.41 -7.38,0 -13.57,2.27 -18.56,6.83 -4.99,4.56 -10.52,12.48 -16.6,23.76 -6.95,12.59 -12.27,23.33 -15.95,32.24 -3.7,8.89 -6.3,16.92 -7.82,24.09 -1.52,7.16 -2.27,14.32 -2.27,21.48 0,7.17 0,15.3 0,24.42zm5.85 291.69c6.95,0 14.22,-0.86 21.82,-2.6 7.59,-1.74 14.65,-4.56 21.16,-8.47 6.5,-3.9 11.93,-8.79 16.27,-14.65 4.35,-5.85 6.52,-12.91 6.52,-21.16 0,-6.94 -0.76,-12.8 -2.29,-17.58 -1.51,-4.77 -4.01,-9.11 -7.48,-13.02 -3.47,-3.91 -8.36,-7.92 -14.65,-12.04 -6.29,-4.13 -14,-8.79 -23.11,-14 -1.74,-0.87 -5.32,-2.82 -10.75,-5.86 -5.43,-3.04 -11.28,-6.3 -17.58,-9.77 -6.29,-3.47 -12.37,-6.84 -18.23,-10.09 -5.86,-3.26 -10.31,-5.97 -13.35,-8.14 -13.45,8.25 -24.95,17.58 -34.51,28 -9.55,10.42 -14.32,24.31 -14.32,41.67 0,23.44 8.57,40.58 25.72,51.44 17.14,10.85 38.74,16.27 64.78,16.27zm222.68 -169.28c-5.65,0 -7.6,-2.39 -5.86,-7.17l44.92 -125.01c3.91,-10.42 7.6,-20.62 11.07,-30.6 3.47,-9.98 6.51,-19.21 9.12,-27.67 2.6,-8.47 4.77,-15.63 6.51,-21.49 1.74,-5.86 2.6,-9.87 2.6,-12.05 0,-6.94 -2.82,-10.41 -8.46,-10.41 -1.31,0 -2.5,-2.28 -3.58,-6.84 -1.09,-4.55 -0.22,-9.55 2.6,-14.97 2.82,-5.43 8.9,-10.42 18.23,-14.98 9.33,-4.56 23.98,-6.83 43.95,-6.83 9.99,0 16.82,2.93 20.51,8.79 3.69,5.86 5.54,11.39 5.54,16.6 0,4.77 -3.04,14.97 -9.12,30.6 -6.08,15.63 -13.46,33.64 -22.14,54.04l5.86 4.56c4.78,-6.94 11.61,-16.93 20.51,-29.95 8.9,-13.02 19.43,-25.72 31.58,-38.09 12.15,-12.37 25.5,-23.22 40.04,-32.56 14.55,-9.33 29.84,-13.99 45.9,-13.99 6.95,0 13.03,1.41 18.24,4.23 5.21,2.82 9.55,6.4 13.02,10.74 3.47,4.34 6.07,9.12 7.81,14.32 1.74,5.21 2.61,9.99 2.61,14.33 0,3.47 -0.65,8.03 -1.96,13.67 -1.3,5.65 -3.36,13.13 -6.18,22.47 -2.83,9.33 -6.73,20.94 -11.72,34.83 -4.99,13.89 -10.96,30.82 -17.91,50.78 -7.81,22.14 -13.24,37.77 -16.27,46.88 -3.04,9.12 -4.56,15.63 -4.56,19.54 0,7.38 2.82,11.07 8.46,11.07 1.31,0 3.37,1.41 6.19,4.23 2.82,2.82 3.25,6.29 1.3,10.42 -1.95,4.12 -7.81,8.57 -17.58,13.34 -9.77,4.78 -26.59,9.34 -50.46,13.67 -9.99,1.74 -16.82,-0.32 -20.51,-6.18 -3.69,-5.86 -5.54,-12.04 -5.54,-18.56 0,-6.07 3.15,-18.44 9.44,-37.11 6.3,-18.66 14.44,-42.32 24.42,-70.97 2.61,-7.38 5.43,-15.41 8.47,-24.09 3.04,-8.68 5.86,-17.14 8.46,-25.39 2.61,-8.25 4.77,-15.52 6.51,-21.81 1.74,-6.3 2.61,-10.96 2.61,-14 0,-9.55 -4.35,-14.33 -13.03,-14.33 -3.9,0 -9.44,2.93 -16.6,8.79 -7.16,5.86 -15.08,13.35 -23.76,22.46 -8.68,9.12 -17.37,19.32 -26.05,30.61 -8.68,11.28 -16.27,22.13 -22.79,32.55 -7.37,11.29 -13.99,21.81 -19.86,31.58 -5.86,9.77 -9.87,17.47 -12.04,23.12l-25.39 72.92c-0.87,1.3 -1.85,2.28 -2.93,2.93 -1.09,0.65 -3.37,0.98 -6.84,0.98l-55.34 0zm431.03 -34.51c7.81,0 11.5,2.17 11.07,6.51 -0.44,4.34 -3.8,9 -10.09,14 -6.29,4.99 -15.2,9.65 -26.7,14 -11.5,4.34 -24.63,6.5 -39.39,6.5 -9.98,0 -16.71,-2.06 -20.18,-6.18 -3.48,-4.12 -5.21,-8.57 -5.21,-13.35 0,-3.03 0.76,-7.27 2.28,-12.69 1.52,-5.43 3.79,-12.92 6.83,-22.47 3.04,-9.55 6.95,-21.26 11.72,-35.15 4.78,-13.9 10.64,-30.82 17.58,-50.79l17.58 -51.44c3.04,-8.68 5.43,-15.95 7.17,-21.81 1.73,-5.86 2.6,-10.74 2.6,-14.65 0,-5.64 -2.82,-8.46 -8.47,-8.46 -1.3,0 -3.25,-0.65 -5.86,-1.96 -2.6,-1.3 -4.77,-3.15 -6.51,-5.53 -1.73,-2.39 -2.49,-5.1 -2.28,-8.14 0.22,-3.04 2.83,-6.4 7.82,-10.09 4.99,-3.69 12.7,-7.38 23.11,-11.07 10.42,-3.69 25.18,-7.27 44.28,-10.74 9.98,-2.18 17.58,-0.44 22.79,5.2 5.2,5.65 7.81,11.72 7.81,18.24 0,7.38 -1.85,16.38 -5.54,27.02 -3.69,10.63 -8.78,25.5 -15.3,44.6l-35.16 99.62c-4.34,12.15 -7.16,20.94 -8.46,26.36 -1.3,5.43 -1.95,9.88 -1.95,13.35 0,2.17 0.54,4.24 1.62,6.19 1.09,1.95 3.37,2.93 6.84,2.93zm34.51 -388.71c15.63,0 27.24,3.58 34.83,10.74 7.6,7.16 11.4,15.74 11.4,25.72 0,5.21 -1.19,10.31 -3.58,15.3 -2.39,4.99 -5.64,9.55 -9.77,13.67 -4.13,4.13 -8.9,7.49 -14.32,10.1 -5.43,2.6 -11.18,3.9 -17.26,3.9 -12.59,0 -22.68,-3.47 -30.27,-10.41 -7.6,-6.95 -11.4,-16.71 -11.4,-29.3 0,-9.99 3.91,-19.1 11.72,-27.35 7.81,-8.25 17.36,-12.37 28.65,-12.37zm406.94 -18.23c4.77,0 7.71,1.41 8.79,4.23 1.09,2.82 0.98,5.97 -0.32,9.44 -0.88,3.04 -3.15,9.98 -6.84,20.84 -3.69,10.85 -8.14,24.3 -13.35,40.36 -5.21,16.07 -10.96,34.08 -17.25,54.05 -6.3,19.96 -12.7,40.47 -19.21,61.53 -6.51,21.05 -12.91,41.78 -19.21,62.18 -6.29,20.4 -12.05,39.28 -17.26,56.64 -5.2,17.37 -9.54,32.23 -13.02,44.6 -3.47,12.37 -5.86,21.16 -7.16,26.37 -2.17,9.12 -3.03,16.06 -2.6,20.84 0.43,4.77 2.82,7.16 7.16,7.16 2.6,0 5.86,0.97 9.77,2.93 3.9,1.95 5.1,4.77 3.58,8.46 -1.52,3.69 -7.38,7.93 -17.58,12.7 -10.2,4.77 -27.89,9.98 -53.07,15.62 -7.81,1.74 -13.89,0.44 -18.23,-3.9 -4.34,-4.34 -6.51,-9.55 -6.51,-15.63 0,-8.68 2.39,-20.83 7.16,-36.46 4.78,-15.63 10.2,-32.55 16.28,-50.78l-7.81 -3.91c-7.82,12.59 -16.17,25.5 -25.07,38.74 -8.9,13.24 -18.45,25.17 -28.65,35.81 -10.2,10.63 -21.05,19.32 -32.55,26.04 -11.51,6.73 -23.55,10.09 -36.14,10.09 -8.25,0 -15.52,-1.95 -21.81,-5.85 -6.3,-3.91 -11.61,-8.9 -15.95,-14.98 -4.34,-6.08 -7.71,-12.7 -10.09,-19.86 -2.39,-7.16 -3.59,-14 -3.59,-20.51 0,-10.42 1.42,-22.35 4.24,-35.81 2.82,-13.45 7.38,-27.78 13.67,-42.97 6.29,-15.19 14.22,-30.6 23.76,-46.23 9.55,-15.63 20.84,-30.82 33.86,-45.58 4.78,-5.2 10.53,-10.85 17.25,-16.93 6.73,-6.07 14.22,-11.71 22.47,-16.92 8.24,-5.21 17.25,-9.66 27.02,-13.35 9.77,-3.69 20.29,-5.53 31.58,-5.53 9.11,0 18.12,1.73 27.02,5.2 8.89,3.48 16.39,8.68 22.46,15.63l50.14 -184.26 67.06 0zm-138.68 229.84c0,-12.16 -2.61,-22.36 -7.82,-30.61 -5.21,-8.24 -13.45,-12.36 -24.74,-12.36 -5.64,0 -11.83,3.58 -18.56,10.74 -6.72,7.16 -13.34,16.49 -19.86,28 -6.5,11.5 -12.8,24.41 -18.88,38.74 -6.07,14.32 -11.5,28.64 -16.27,42.97 -4.78,14.32 -8.58,27.78 -11.4,40.37 -2.82,12.58 -4.23,23 -4.23,31.25 0,7.81 1.41,13.56 4.23,17.25 2.82,3.69 6.62,5.54 11.4,5.54 3.03,0 7.05,-2.28 12.04,-6.84 4.99,-4.56 10.42,-10.53 16.28,-17.9 5.86,-7.38 11.94,-15.52 18.23,-24.42 6.29,-8.9 12.48,-17.69 18.55,-26.37 4.35,-6.51 9.01,-14 14,-22.46 5,-8.47 9.44,-17.04 13.35,-25.72 3.91,-8.68 7.16,-17.26 9.77,-25.72 2.6,-8.46 3.91,-15.95 3.91,-22.46zm414.09 -69.67c4.78,0 6.52,2.61 5.21,7.81 -2.6,6.95 -6.18,16.93 -10.74,29.95 -4.56,13.03 -9.22,26.48 -14,40.37 -4.77,13.89 -9.22,26.91 -13.35,39.07 -4.12,12.15 -6.83,20.83 -8.13,26.04 -0.87,2.61 -2.61,8.58 -5.21,17.91 -2.61,9.33 -5.43,19.21 -8.47,29.62 -3.03,10.42 -5.75,20.08 -8.14,28.98 -2.38,8.9 -3.58,14.65 -3.58,17.25 0,5.21 2.61,7.81 7.82,7.81 2.6,0 5.53,1.63 8.79,4.89 3.25,3.25 4.12,7.16 2.6,11.72 -1.52,4.56 -6.95,9.33 -16.28,14.32 -9.33,4.99 -25.28,9.01 -47.85,12.04 -9.98,1.31 -16.93,-0.53 -20.84,-5.53 -3.9,-4.99 -5.86,-10.09 -5.86,-15.3 0,-2.17 0.33,-4.77 0.98,-7.81 0.65,-3.04 1.84,-7.6 3.58,-13.68 1.74,-6.07 4.23,-14.1 7.49,-24.09 3.26,-9.98 7.7,-23 13.35,-39.06l-5.86 -3.26c-6.52,9.99 -14,21.16 -22.47,33.54 -8.46,12.36 -18.12,24.19 -28.97,35.48 -10.85,11.29 -22.79,20.73 -35.81,28.32 -13.02,7.6 -27.13,11.39 -42.32,11.39 -4.34,0 -9.12,-1.41 -14.33,-4.23 -5.21,-2.82 -10.09,-6.62 -14.65,-11.39 -4.56,-4.77 -8.35,-10.2 -11.39,-16.28 -3.04,-6.07 -4.56,-12.37 -4.56,-18.88 0,-13.46 2.17,-28.65 6.51,-45.58 4.34,-16.92 10.31,-34.07 17.9,-51.43 7.6,-17.37 16.83,-34.29 27.68,-50.79 10.85,-16.49 22.68,-31.03 35.48,-43.62 12.81,-12.59 26.48,-22.79 41.02,-30.61 14.54,-7.81 29.63,-11.71 45.25,-11.71 14.76,0 25.83,2.49 33.21,7.48 7.38,4.99 13.24,10.1 17.58,15.31l10.42 -18.89c3.04,-4.77 6.94,-7.16 11.72,-7.16l46.22 0zm-215.51 215.51c0,7.38 1.3,12.48 3.91,15.3 2.6,2.83 6.51,4.24 11.72,4.24 4.34,0 10.96,-4.56 19.86,-13.68 8.89,-9.11 18.01,-19.86 27.34,-32.22 9.34,-12.38 18.13,-24.85 26.37,-37.44 8.25,-12.59 13.89,-22.14 16.93,-28.65 3.91,-8.68 7.38,-18.45 10.42,-29.3 3.04,-10.85 4.56,-21.92 4.56,-33.21 0,-7.38 -3.15,-14.11 -9.44,-20.18 -6.3,-6.08 -12.7,-9.12 -19.21,-9.12 -16.06,0 -32.34,14.76 -48.84,44.28 -16.49,29.08 -27.89,55.67 -34.18,79.76 -6.29,24.09 -9.44,44.16 -9.44,60.22zm572.32 -375.68c4.77,0 7.71,1.41 8.79,4.23 1.09,2.82 0.98,5.97 -0.32,9.44 -0.87,3.04 -3.15,9.98 -6.84,20.84 -3.69,10.85 -8.14,24.3 -13.35,40.36 -5.21,16.07 -10.96,34.08 -17.25,54.05 -6.3,19.96 -12.7,40.47 -19.21,61.53 -6.51,21.05 -12.91,41.78 -19.21,62.18 -6.29,20.4 -12.05,39.28 -17.25,56.64 -5.21,17.37 -9.55,32.23 -13.03,44.6 -3.47,12.37 -5.86,21.16 -7.16,26.37 -2.17,9.12 -3.03,16.06 -2.6,20.84 0.43,4.77 2.82,7.16 7.16,7.16 2.6,0 5.86,0.97 9.77,2.93 3.91,1.95 5.1,4.77 3.58,8.46 -1.52,3.69 -7.38,7.93 -17.58,12.7 -10.2,4.77 -27.89,9.98 -53.07,15.62 -7.81,1.74 -13.88,0.44 -18.23,-3.9 -4.34,-4.34 -6.51,-9.55 -6.51,-15.63 0,-8.68 2.39,-20.83 7.16,-36.46 4.78,-15.63 10.2,-32.55 16.28,-50.78l-7.81 -3.91c-7.82,12.59 -16.17,25.5 -25.07,38.74 -8.9,13.24 -18.45,25.17 -28.65,35.81 -10.2,10.63 -21.05,19.32 -32.55,26.04 -11.51,6.73 -23.55,10.09 -36.14,10.09 -8.25,0 -15.52,-1.95 -21.81,-5.85 -6.29,-3.91 -11.61,-8.9 -15.95,-14.98 -4.34,-6.08 -7.71,-12.7 -10.09,-19.86 -2.39,-7.16 -3.58,-14 -3.58,-20.51 0,-10.42 1.41,-22.35 4.23,-35.81 2.82,-13.45 7.38,-27.78 13.67,-42.97 6.29,-15.19 14.22,-30.6 23.76,-46.23 9.55,-15.63 20.84,-30.82 33.86,-45.58 4.78,-5.2 10.53,-10.85 17.25,-16.93 6.73,-6.07 14.22,-11.71 22.47,-16.92 8.24,-5.21 17.25,-9.66 27.02,-13.35 9.77,-3.69 20.29,-5.53 31.58,-5.53 9.11,0 18.12,1.73 27.02,5.2 8.9,3.48 16.39,8.68 22.46,15.63l50.14 -184.26 67.06 0zm-138.68 229.84c0,-12.16 -2.61,-22.36 -7.82,-30.61 -5.21,-8.24 -13.45,-12.36 -24.74,-12.36 -5.64,0 -11.83,3.58 -18.56,10.74 -6.72,7.16 -13.34,16.49 -19.86,28 -6.5,11.5 -12.8,24.41 -18.88,38.74 -6.07,14.32 -11.5,28.64 -16.27,42.97 -4.78,14.32 -8.58,27.78 -11.4,40.37 -2.82,12.58 -4.23,23 -4.23,31.25 0,7.81 1.41,13.56 4.23,17.25 2.82,3.69 6.62,5.54 11.4,5.54 3.03,0 7.05,-2.28 12.04,-6.84 4.99,-4.56 10.42,-10.53 16.28,-17.9 5.86,-7.38 11.94,-15.52 18.23,-24.42 6.29,-8.9 12.48,-17.69 18.55,-26.37 4.35,-6.51 9.01,-14 14,-22.46 5,-8.47 9.44,-17.04 13.35,-25.72 3.91,-8.68 7.16,-17.26 9.77,-25.72 2.6,-8.46 3.91,-15.95 3.91,-22.46zm-2008.66 753.81c-18.23,0 -38.09,-2.71 -59.57,-8.14 -21.49,-5.42 -41.35,-16.38 -59.58,-32.88 -21.7,-19.96 -37,-42.75 -45.9,-68.36 -8.9,-25.61 -13.35,-52.74 -13.35,-81.39 0,-34.29 5.53,-67.39 16.6,-99.29 11.07,-31.9 27.13,-60.12 48.19,-84.64 21.05,-24.53 46.66,-44.17 76.83,-58.93 30.16,-14.76 64.56,-22.14 103.19,-22.14 26.48,0 50.9,3.91 73.25,11.72 22.36,7.82 41.57,19.64 57.63,35.49 16.06,15.84 28.54,35.48 37.43,58.92 8.9,23.44 13.35,50.79 13.35,82.04 0,34.29 -6.07,67.5 -18.23,99.62 -12.15,32.12 -29.08,60.66 -50.78,85.62 -21.71,24.96 -47.75,44.92 -78.14,59.9 -30.38,14.97 -64.02,22.46 -100.92,22.46zm-8.46 -32.55c21.7,0 42.65,-8.47 62.83,-25.39 20.18,-16.94 38.09,-39.18 53.72,-66.74 15.62,-27.56 28.21,-59.04 37.76,-94.41 9.55,-35.38 14.33,-71.73 14.33,-109.06 0,-30.82 -6.84,-54.37 -20.52,-70.64 -13.67,-16.29 -32.44,-24.42 -56.31,-24.42 -19.54,0 -37.23,4.88 -53.07,14.65 -15.84,9.77 -28.76,21.37 -38.74,34.83 -12.59,15.19 -24.42,32.23 -35.49,51.11 -11.06,18.88 -20.62,38.42 -28.65,58.6 -8.03,20.19 -14.32,40.8 -18.88,61.86 -4.56,21.05 -6.83,41.34 -6.83,60.87 0,35.17 7.81,62.08 23.44,80.74 15.62,18.67 37.76,28 66.41,28zm302.11 22.79c-5.64,0 -7.59,-1.96 -5.86,-5.86l31.25 -105.48c2.61,-9.12 5.76,-19.53 9.44,-31.26 3.7,-11.71 7.17,-23.11 10.42,-34.18 3.26,-11.06 5.97,-21.05 8.14,-29.95 2.17,-8.9 3.26,-14.87 3.26,-17.9 0,-3.48 -0.98,-6.41 -2.93,-8.79 -1.95,-2.39 -4.67,-3.59 -8.14,-3.59 -0.87,0 -3.04,-0.65 -6.51,-1.95 -3.47,-1.3 -4.89,-3.47 -4.24,-6.51 0.65,-3.04 4.89,-7.27 12.7,-12.7 7.81,-5.42 22.79,-12.04 44.93,-19.85 6.08,-2.17 11.29,-2.61 15.62,-1.31 4.35,1.31 7.82,3.48 10.42,6.52 2.61,3.03 4.56,6.5 5.86,10.41 1.3,3.91 1.95,7.38 1.95,10.42 0,6.08 -2.71,16.61 -8.13,31.58 -5.43,14.97 -12.05,33.1 -19.86,54.36l7.16 3.91c3.91,-9.11 9.33,-20.18 16.28,-33.2 6.94,-13.03 14.76,-25.72 23.44,-38.09 8.68,-12.37 18.44,-22.9 29.29,-31.58 10.86,-8.68 22.15,-13.02 33.86,-13.02 9.55,0 18.13,3.25 25.72,9.76 7.6,6.51 11.4,14.98 11.4,25.39 0,5.65 -0.98,11.07 -2.93,16.28 -1.96,5.21 -4.45,9.77 -7.49,13.68 -3.04,3.9 -6.18,6.94 -9.44,9.11 -3.26,2.17 -6.41,3.26 -9.44,3.26 -9.12,0 -16.28,-1.74 -21.49,-5.21 -2.6,-1.74 -5.21,-3.47 -7.81,-5.21 -2.61,-1.74 -6.08,-2.61 -10.42,-2.61 -5.21,0 -11.07,2.82 -17.58,8.47 -6.51,5.64 -13.02,12.7 -19.53,21.16 -6.51,8.46 -12.7,17.69 -18.56,27.67 -5.86,9.99 -10.53,19.1 -14,27.35 -3.47,7.81 -6.94,16.5 -10.42,26.04 -3.47,9.55 -7.16,20.4 -11.06,32.56l-20.84 65.76c-1.3,3.04 -4.12,4.56 -8.46,4.56l-56 0z"/>
    <path class="fil0" d="M2404.96 2058.18c-20.83,0 -40.26,-2.17 -58.27,-6.51 -18.01,-4.34 -33.53,-10.31 -46.56,-17.9 -13.02,-7.6 -23.21,-16.28 -30.59,-26.05 -7.38,-9.76 -11.07,-20.07 -11.07,-30.93 0,-10.85 1.41,-19.64 4.23,-26.36 2.82,-6.73 9.87,-14.65 21.16,-23.77 13.45,-10.85 28.1,-19.75 43.95,-26.7 15.84,-6.94 28.97,-12.58 39.39,-16.92 -9.98,-7.38 -16.71,-14.11 -20.19,-20.19 -3.47,-6.07 -5.2,-12.8 -5.2,-20.18 0,-7.38 5.32,-15.52 15.95,-24.42 10.63,-8.89 24.85,-17.03 42.64,-24.41l0 -1.3c-9.98,-4.78 -18.44,-9.66 -25.39,-14.65 -6.94,-5 -12.58,-10.53 -16.93,-16.61 -4.33,-6.07 -7.59,-13.35 -9.76,-21.81 -2.17,-8.46 -3.26,-18.56 -3.26,-30.28 0,-11.72 2.93,-24.63 8.79,-38.74 5.86,-14.1 14.65,-27.34 26.37,-39.71 11.72,-12.38 26.15,-22.8 43.3,-31.26 17.15,-8.46 37,-12.69 59.57,-12.69 10.86,0 20.41,1.08 28.65,3.25 8.25,2.17 15.2,4.89 20.84,8.14 5.64,3.26 10.2,6.62 13.67,10.09 3.48,3.47 6.08,6.52 7.81,9.12 6.95,-5.21 15.2,-10.42 24.75,-15.63 9.55,-5.21 19.31,-7.81 29.3,-7.81 10.42,0 18.01,3.25 22.78,9.76 4.78,6.52 7.38,13.24 7.82,20.19 -0.44,8.68 -3.15,15.52 -8.14,20.51 -4.99,4.99 -11.39,7.49 -19.21,7.49 -3.91,0 -7.7,-0.98 -11.39,-2.93 -3.69,-1.96 -6.84,-4.24 -9.44,-6.84 -1.74,-1.74 -3.47,-3.36 -5.21,-4.88 -1.74,-1.52 -3.69,-2.28 -5.86,-2.28 -5.64,0 -10.42,1.95 -14.33,5.86 1.74,3.9 2.82,8.79 3.26,14.65 0.43,5.86 0.65,12.48 0.65,19.85 0,7.82 -2.28,17.91 -6.84,30.28 -4.55,12.37 -11.5,24.75 -20.83,37.11 -9.34,12.38 -21.05,23.44 -35.16,33.21 -14.11,9.77 -30.49,15.95 -49.16,18.56 -7.38,0.87 -13.89,1.63 -19.53,2.28 -5.65,0.65 -8.9,1.19 -9.77,1.62 -6.94,3.04 -12.37,7.17 -16.28,12.38 -3.9,5.21 -5.86,10.19 -5.86,14.97 0,3.47 1.96,7.05 5.86,10.74 3.91,3.69 7.38,6.41 10.42,8.14 6.51,3.48 17.8,9.34 33.86,17.58 16.06,8.25 36.03,19.1 59.9,32.56 19.97,11.28 33.42,22.68 40.37,34.18 6.95,11.5 10.42,22.25 10.42,32.23 0,5.64 -0.65,11.61 -1.96,17.91 -1.3,6.29 -3.8,12.69 -7.48,19.2 -3.7,6.51 -8.91,12.92 -15.63,19.21 -6.73,6.3 -15.3,12.04 -25.72,17.25 -13.89,7.38 -29.19,13.14 -45.9,17.26 -16.71,4.12 -38.31,6.18 -64.79,6.18zm12.38 -315.78c0,11.29 1.51,19.21 4.55,23.76 3.04,4.56 8.03,6.84 14.98,6.84 8.24,0 16.06,-4.02 23.44,-12.05 7.38,-8.03 13.78,-18.12 19.21,-30.27 5.42,-12.15 9.65,-25.39 12.69,-39.72 3.04,-14.32 4.56,-27.78 4.56,-40.37 0,-13.45 -0.76,-23.65 -2.28,-30.6 -1.52,-6.94 -6.84,-10.41 -15.95,-10.41 -7.38,0 -13.57,2.27 -18.56,6.83 -4.99,4.56 -10.52,12.48 -16.6,23.77 -6.95,12.58 -12.27,23.33 -15.95,32.23 -3.7,8.89 -6.3,16.92 -7.82,24.09 -1.52,7.16 -2.27,14.32 -2.27,21.48 0,7.17 0,15.3 0,24.42zm5.85 291.69c6.95,0 14.22,-0.86 21.82,-2.6 7.59,-1.74 14.65,-4.56 21.16,-8.46 6.51,-3.91 11.94,-8.8 16.27,-14.65 4.35,-5.86 6.52,-12.92 6.52,-21.17 0,-6.94 -0.76,-12.8 -2.28,-17.57 -1.52,-4.78 -4.02,-9.12 -7.49,-13.03 -3.47,-3.91 -8.36,-7.92 -14.65,-12.04 -6.29,-4.13 -14,-8.79 -23.11,-14 -1.74,-0.87 -5.32,-2.82 -10.75,-5.86 -5.42,-3.04 -11.28,-6.3 -17.58,-9.77 -6.29,-3.47 -12.37,-6.83 -18.23,-10.09 -5.86,-3.26 -10.31,-5.97 -13.35,-8.14 -13.45,8.25 -24.95,17.58 -34.51,28 -9.55,10.42 -14.32,24.31 -14.32,41.67 0,23.44 8.57,40.59 25.72,51.44 17.14,10.85 38.74,16.27 64.78,16.27zm524.14 -440.79c6.51,0 8.68,2.82 6.51,8.46l-45.58 139.34c-8.68,26.04 -14.76,45.25 -18.23,57.62 -3.47,12.37 -5.21,19.86 -5.21,22.46 0.44,3.04 1.41,5.1 2.94,6.19 1.51,1.08 3.36,1.62 5.53,1.62 -0.44,0 0.32,0.22 2.27,0.66 1.96,0.43 3.8,1.19 5.54,2.28 1.74,1.08 2.61,2.6 2.61,4.55 0,1.96 -2.18,4.45 -6.51,7.49 -4.35,3.04 -11.29,6.84 -20.84,11.4 -9.55,4.55 -23.01,9.87 -40.37,15.95 -8.25,3.04 -14.87,1.84 -19.86,-3.58 -4.99,-5.43 -7.49,-11.61 -7.49,-18.56 0,-3.04 1.31,-9.01 3.91,-17.9 2.61,-8.91 5.75,-18.56 9.44,-28.98 3.69,-10.42 7.27,-20.51 10.74,-30.28 3.48,-9.76 6.08,-17.03 7.82,-21.81l-7.17 -3.9c-6.07,9.11 -13.88,20.72 -23.43,34.83 -9.55,14.11 -20.73,27.89 -33.54,41.34 -12.8,13.46 -26.69,24.96 -41.66,34.51 -14.98,9.55 -30.5,14.33 -46.56,14.33 -4.34,0 -8.57,-1.19 -12.7,-3.58 -4.12,-2.39 -7.81,-5.21 -11.06,-8.47 -3.26,-3.25 -5.86,-6.73 -7.82,-10.42 -1.95,-3.69 -2.71,-6.83 -2.28,-9.44 0,-6.94 0.77,-14.1 2.28,-21.48 1.52,-7.38 3.91,-15.85 7.17,-25.39 3.25,-9.56 7.38,-20.3 12.37,-32.24 4.99,-11.93 10.74,-25.93 17.25,-41.99 8.68,-21.71 15.19,-39.39 19.53,-53.07 4.35,-13.67 6.51,-22.68 6.51,-27.02 0,-7.37 -3.69,-11.07 -11.07,-11.07 0.88,0 0.22,-0.21 -1.95,-0.65 -2.17,-0.43 -4.23,-1.19 -6.18,-2.27 -1.96,-1.09 -3.26,-2.5 -3.91,-4.24 -0.65,-1.73 0.87,-4.12 4.56,-7.16 3.69,-3.04 10.31,-6.73 19.86,-11.07 9.55,-4.34 23.22,-9.33 41.01,-14.97 5.21,-1.74 9.88,-1.85 14,-0.33 4.13,1.52 7.6,3.91 10.42,7.16 2.82,3.26 5.1,7.06 6.84,11.4 1.74,4.34 2.6,8.46 2.6,12.37 0,7.38 -2.6,19.75 -7.81,37.11 -5.21,17.36 -14.32,42.1 -27.35,74.23 -8.24,19.96 -14.86,36.89 -19.85,50.78 -5,13.89 -7.49,23.88 -7.49,29.95 0,3.47 1.19,6.29 3.58,8.47 2.38,2.17 4.88,3.25 7.49,3.25 2.6,0 7.81,-3.79 15.62,-11.39 7.82,-7.6 16.28,-16.71 25.39,-27.35 9.12,-10.63 18.02,-21.49 26.7,-32.55 8.68,-11.07 14.98,-19.86 18.88,-26.37 5.65,-9.55 10.53,-18.99 14.65,-28.33 4.13,-9.33 8.57,-20.94 13.35,-34.83l20.84 -62.51c0.86,-3.03 4.12,-4.55 9.76,-4.55l57.95 0zm218.12 -169.94c6.07,0 7.6,3.91 4.56,11.72l-130.23 365.27c-3.47,9.11 -4.77,16.06 -3.9,20.83 0.87,4.78 4.34,7.16 10.42,7.16 1.74,0 4.01,0.76 6.83,2.29 2.82,1.51 5.1,3.47 6.84,5.85 1.74,2.39 2.17,5.1 1.3,8.14 -0.87,3.04 -3.9,6.19 -9.11,9.44 -5.21,3.26 -13.13,6.4 -23.77,9.45 -10.63,3.03 -25.28,5.64 -43.95,7.81 -3.47,0.43 -6.84,-0.22 -10.09,-1.95 -3.26,-1.74 -6.19,-4.02 -8.79,-6.84 -2.61,-2.82 -4.77,-5.97 -6.51,-9.44 -1.74,-3.48 -2.6,-6.51 -2.6,-9.12 0,-2.6 0.65,-6.4 1.95,-11.39 1.3,-5 2.93,-10.42 4.88,-16.28 1.96,-5.86 3.91,-11.61 5.86,-17.26 1.95,-5.64 3.8,-10.85 5.54,-15.62l124.36 -360.06 66.41 0zm162.78 0c6.07,0 7.59,3.91 4.56,11.72l-130.23 365.27c-3.47,9.11 -4.77,16.06 -3.9,20.83 0.86,4.78 4.34,7.16 10.41,7.16 1.74,0 4.02,0.76 6.84,2.29 2.82,1.51 5.1,3.47 6.84,5.85 1.74,2.39 2.17,5.1 1.3,8.14 -0.87,3.04 -3.91,6.19 -9.12,9.44 -5.21,3.26 -13.12,6.4 -23.76,9.45 -10.63,3.03 -25.28,5.64 -43.95,7.81 -3.47,0.43 -6.84,-0.22 -10.09,-1.95 -3.26,-1.74 -6.19,-4.02 -8.79,-6.84 -2.61,-2.82 -4.78,-5.97 -6.51,-9.44 -1.74,-3.48 -2.61,-6.51 -2.61,-9.12 0,-2.6 0.65,-6.4 1.96,-11.39 1.3,-5 2.92,-10.42 4.88,-16.28 1.95,-5.86 3.91,-11.61 5.86,-17.26 1.95,-5.64 3.8,-10.85 5.53,-15.62l124.36 -360.06 66.42 0zm52.09 447.96c-9.56,0 -19.32,-1.74 -29.3,-5.21 -9.99,-3.47 -19.21,-9.12 -27.68,-16.93 -8.46,-7.81 -15.41,-18.12 -20.83,-30.93 -5.43,-12.8 -8.14,-28.32 -8.14,-46.55 0,-26.48 4.02,-52.63 12.05,-78.46 8.03,-25.83 21.16,-48.72 39.39,-68.69 13.45,-13.89 27.89,-23.66 43.3,-29.3 15.41,-5.64 32.01,-8.46 49.8,-8.46 8.69,0 18.35,1.3 28.98,3.9 10.64,2.61 20.62,7.38 29.95,14.33 9.33,6.94 17.14,16.6 23.44,28.97 6.29,12.37 9.44,28.54 9.44,48.51 0,9.55 -0.98,20.72 -2.93,33.53 -1.95,12.8 -4.99,26.15 -9.11,40.04 -4.13,13.89 -9.66,27.56 -16.61,41.02 -6.94,13.46 -15.62,25.61 -26.04,36.46 -12.59,13.89 -26.48,23.66 -41.67,29.3 -15.19,5.64 -33.21,8.47 -54.04,8.47zm-9.12 -37.77c4.77,0 9.77,-0.97 14.97,-2.92 5.21,-1.96 10.53,-5.32 15.96,-10.1 5.42,-4.78 11.18,-11.39 17.25,-19.86 6.08,-8.46 12.38,-18.99 18.88,-31.57 5.21,-9.56 10.21,-19.86 14.98,-30.93 4.77,-11.07 9.01,-22.03 12.7,-32.88 3.68,-10.85 6.62,-20.95 8.79,-30.28 2.17,-9.33 3.25,-17.04 3.25,-23.11 0,-7.82 -1.84,-14.43 -5.53,-19.86 -3.69,-5.43 -9.88,-8.14 -18.56,-8.14 -12.59,0 -24.2,5.97 -34.83,17.9 -10.64,11.94 -23.33,31.15 -38.09,57.63 -11.29,19.53 -19.54,38.63 -24.74,57.29 -5.21,18.67 -7.82,34.73 -7.82,48.18 0,6.52 1.96,12.92 5.86,19.21 3.91,6.3 9.55,9.44 16.93,9.44zm-1485.49 744.71c-16.06,0 -32.56,-2.82 -49.49,-8.47 -16.92,-5.64 -32.33,-15.41 -46.22,-29.3 -13.89,-13.89 -25.29,-32.44 -34.19,-55.67 -8.89,-23.22 -13.34,-52.41 -13.34,-87.57 0,-24.31 2.27,-50.46 6.83,-78.46 4.56,-27.99 11.61,-56.21 21.16,-84.64 9.55,-28.43 21.27,-56.54 35.16,-84.32 13.89,-27.78 30.39,-53.82 49.48,-78.13 18.24,-23.44 35.27,-41.78 51.12,-55.02 15.84,-13.24 30.38,-23.33 43.62,-30.28 13.24,-6.94 24.96,-11.28 35.16,-13.02 10.2,-1.73 18.56,-2.6 25.07,-2.6 17.36,0 33.2,3.14 47.53,9.44 14.32,6.29 26.69,14.76 37.11,25.39 10.42,10.64 18.45,22.79 24.09,36.46 5.64,13.68 8.47,27.89 8.47,42.65 0,6.08 -0.87,12.15 -2.61,18.23 -1.73,6.08 -4.23,11.51 -7.48,16.28 -3.26,4.77 -7.27,8.79 -12.05,12.05 -4.78,3.25 -10.2,4.88 -16.28,4.88 -9.98,0 -18.66,-4.13 -26.04,-12.37 -7.38,-8.25 -11.07,-18.89 -11.07,-31.91 0,-7.81 0.98,-15.3 2.93,-22.46 1.95,-7.16 2.93,-12.7 2.93,-16.6 0,-17.36 -3.37,-31.58 -10.09,-42.65 -6.73,-11.07 -20.08,-16.6 -40.05,-16.6 -7.38,0 -15.3,2.6 -23.76,7.81 -8.47,5.21 -17.04,12.7 -25.72,22.46 -8.68,9.77 -17.14,21.38 -25.39,34.84 -8.25,13.45 -15.84,28.43 -22.79,44.92 -10.85,25.18 -20.94,52.2 -30.28,81.07 -9.33,28.86 -17.47,57.07 -24.42,84.64 -6.94,27.56 -12.36,53.39 -16.27,77.48 -3.91,24.09 -5.86,43.95 -5.86,59.58 0,44.7 5.86,77.69 17.58,98.96 11.72,21.27 33.85,31.91 66.41,31.91 10.85,0 21.38,-2.17 31.58,-6.51 10.2,-4.35 19.53,-9.77 28,-16.28 8.46,-6.51 15.84,-13.67 22.13,-21.49 6.3,-7.81 11.18,-15.41 14.65,-22.79 3.47,-7.38 6.52,-15.3 9.12,-23.76 2.61,-8.47 4.34,-15.95 5.21,-22.46 5.21,-12.16 11.72,-18.23 19.53,-18.23 6.95,0 11.29,2.06 13.02,6.18 1.74,4.12 2.61,9.23 2.61,15.3 0,4.78 -1.85,11.72 -5.54,20.84 -3.69,9.11 -8.89,19.31 -15.62,30.6 -6.73,11.29 -15.19,22.79 -25.39,34.5 -10.21,11.73 -21.93,22.47 -35.17,32.24 -13.24,9.76 -27.78,17.68 -43.62,23.76 -15.84,6.08 -33.1,9.12 -51.76,9.12zm297.55 -154.97c-9.55,0 -19.31,-1.73 -29.3,-5.21 -9.98,-3.47 -19.21,-9.11 -27.67,-16.92 -8.46,-7.82 -15.41,-18.12 -20.84,-30.93 -5.42,-12.81 -8.13,-28.32 -8.13,-46.55 0,-26.48 4.01,-52.64 12.04,-78.46 8.03,-25.83 21.16,-48.73 39.39,-68.69 13.46,-13.89 27.89,-23.66 43.3,-29.3 15.41,-5.65 32.02,-8.47 49.81,-8.47 8.68,0 18.34,1.3 28.98,3.91 10.63,2.6 20.61,7.38 29.94,14.32 9.34,6.95 17.15,16.61 23.44,28.98 6.3,12.37 9.45,28.54 9.45,48.5 0,9.56 -0.98,20.73 -2.94,33.54 -1.95,12.8 -4.99,26.15 -9.11,40.04 -4.13,13.89 -9.66,27.56 -16.6,41.02 -6.95,13.45 -15.63,25.61 -26.05,36.46 -12.58,13.89 -26.48,23.66 -41.67,29.3 -15.19,5.64 -33.2,8.46 -54.04,8.46zm-9.11 -37.76c4.77,0 9.76,-0.98 14.97,-2.93 5.21,-1.95 10.53,-5.32 15.95,-10.09 5.43,-4.78 11.18,-11.4 17.26,-19.86 6.07,-8.46 12.37,-18.99 18.88,-31.58 5.21,-9.55 10.2,-19.86 14.98,-30.92 4.77,-11.08 9,-22.03 12.69,-32.89 3.69,-10.85 6.62,-20.94 8.79,-30.27 2.17,-9.34 3.26,-17.04 3.26,-23.11 0,-7.82 -1.85,-14.44 -5.54,-19.86 -3.69,-5.43 -9.87,-8.14 -18.55,-8.14 -12.59,0 -24.21,5.97 -34.84,17.9 -10.63,11.94 -23.33,31.15 -38.09,57.63 -11.28,19.53 -19.53,38.63 -24.74,57.29 -5.21,18.66 -7.81,34.72 -7.81,48.18 0,6.51 1.95,12.92 5.86,19.21 3.9,6.3 9.55,9.44 16.93,9.44zm209 31.25c-5.65,0 -7.6,-1.95 -5.86,-5.86l31.25 -105.47c2.61,-9.12 5.75,-19.54 9.44,-31.26 3.69,-11.72 7.16,-23.11 10.42,-34.18 3.25,-11.07 5.97,-21.05 8.14,-29.95 2.17,-8.9 3.25,-14.87 3.25,-17.91 0,-3.47 -0.97,-6.4 -2.93,-8.79 -1.95,-2.39 -4.66,-3.58 -8.13,-3.58 -0.87,0 -3.04,-0.65 -6.52,-1.95 -3.47,-1.3 -4.88,-3.48 -4.23,-6.51 0.65,-3.04 4.89,-7.27 12.7,-12.7 7.81,-5.42 22.79,-12.04 44.92,-19.86 6.08,-2.17 11.29,-2.6 15.63,-1.3 4.34,1.3 7.81,3.47 10.42,6.51 2.6,3.04 4.56,6.51 5.86,10.42 1.3,3.9 1.95,7.38 1.95,10.42 0,6.07 -2.71,16.6 -8.14,31.57 -5.42,14.98 -12.04,33.1 -19.85,54.37l7.16 3.91c3.9,-9.12 9.33,-20.19 16.28,-33.21 6.94,-13.02 14.75,-25.72 23.43,-38.09 8.69,-12.37 18.45,-22.89 29.3,-31.57 10.86,-8.68 22.14,-13.03 33.86,-13.03 9.55,0 18.13,3.26 25.72,9.77 7.59,6.51 11.39,14.97 11.39,25.39 0,5.64 -0.97,11.07 -2.92,16.28 -1.96,5.21 -4.45,9.77 -7.5,13.68 -3.03,3.9 -6.18,6.94 -9.44,9.11 -3.25,2.17 -6.4,3.25 -9.44,3.25 -9.11,0 -16.27,-1.73 -21.48,-5.21 -2.61,-1.73 -5.21,-3.47 -7.82,-5.2 -2.6,-1.74 -6.07,-2.61 -10.41,-2.61 -5.21,0 -11.07,2.82 -17.58,8.47 -6.51,5.64 -13.02,12.69 -19.54,21.16 -6.51,8.46 -12.69,17.68 -18.55,27.67 -5.86,9.98 -10.53,19.1 -14,27.34 -3.47,7.82 -6.95,16.5 -10.42,26.05 -3.47,9.55 -7.16,20.4 -11.07,32.55l-20.83 65.76c-1.31,3.04 -4.13,4.56 -8.47,4.56l-55.99 0zm523.48 -281.27c4.78,0 6.52,2.6 5.21,7.81 -2.6,6.94 -6.18,16.93 -10.74,29.95 -4.56,13.02 -9.22,26.48 -14,40.37 -4.77,13.89 -9.22,26.91 -13.35,39.07 -4.12,12.15 -6.83,20.83 -8.13,26.04 -0.87,2.6 -2.61,8.57 -5.21,17.9 -2.61,9.34 -5.43,19.21 -8.47,29.63 -3.03,10.42 -5.75,20.08 -8.14,28.97 -2.39,8.9 -3.58,14.65 -3.58,17.26 0,5.21 2.61,7.81 7.81,7.81 2.61,0 5.54,1.63 8.79,4.89 3.26,3.25 4.13,7.16 2.61,11.71 -1.52,4.56 -6.95,9.34 -16.28,14.33 -9.33,4.99 -25.28,9 -47.86,12.04 -9.98,1.31 -16.92,-0.54 -20.83,-5.53 -3.91,-4.99 -5.86,-10.09 -5.86,-15.3 0,-2.17 0.33,-4.77 0.98,-7.81 0.65,-3.04 1.84,-7.6 3.58,-13.68 1.74,-6.07 4.23,-14.11 7.48,-24.09 3.26,-9.98 7.71,-23 13.35,-39.06l-5.85 -3.26c-6.52,9.98 -14,21.16 -22.47,33.53 -8.47,12.37 -18.12,24.2 -28.97,35.49 -10.86,11.28 -22.79,20.72 -35.81,28.32 -13.02,7.6 -27.13,11.39 -42.32,11.39 -4.35,0 -9.12,-1.41 -14.33,-4.23 -5.21,-2.82 -10.09,-6.62 -14.65,-11.39 -4.56,-4.78 -8.35,-10.2 -11.4,-16.28 -3.03,-6.08 -4.55,-12.37 -4.55,-18.88 0,-13.46 2.17,-28.65 6.51,-45.58 4.34,-16.93 10.31,-34.07 17.9,-51.43 7.6,-17.37 16.82,-34.3 27.68,-50.79 10.85,-16.5 22.67,-31.04 35.48,-43.63 12.81,-12.58 26.48,-22.79 41.02,-30.6 14.54,-7.81 29.62,-11.72 45.25,-11.72 14.76,0 25.83,2.5 33.21,7.49 7.38,4.99 13.24,10.09 17.58,15.3l10.41 -18.88c3.05,-4.77 6.95,-7.16 11.73,-7.16l46.22 0zm-215.51 215.51c0,7.38 1.3,12.48 3.9,15.3 2.61,2.83 6.52,4.24 11.73,4.24 4.34,0 10.96,-4.56 19.86,-13.68 8.89,-9.11 18.01,-19.86 27.34,-32.23 9.33,-12.37 18.13,-24.85 26.37,-37.44 8.25,-12.59 13.89,-22.13 16.93,-28.65 3.91,-8.68 7.38,-18.44 10.42,-29.29 3.03,-10.86 4.56,-21.92 4.56,-33.21 0,-7.38 -3.15,-14.11 -9.44,-20.18 -6.3,-6.08 -12.7,-9.12 -19.21,-9.12 -16.06,0 -32.34,14.76 -48.84,44.27 -16.49,29.09 -27.89,55.68 -34.18,79.77 -6.29,24.09 -9.44,44.16 -9.44,60.22zm143.24 215.52c-10.85,0 -20.4,-1.31 -28.65,-3.91 -8.24,-2.6 -15.08,-5.97 -20.51,-10.09 -5.42,-4.13 -9.44,-8.68 -12.04,-13.67 -2.61,-5 -3.91,-9.88 -3.91,-14.65 -0.43,-10.42 2.5,-19.65 8.79,-27.68 6.3,-8.03 14.43,-12.04 24.42,-12.04 12.15,0 21.27,3.8 27.34,11.39 6.08,7.6 9.12,15.3 9.12,23.12 0,6.51 1.08,11.83 3.26,15.95 2.17,4.12 4.77,6.18 7.81,6.18 8.25,0 16.17,-4.34 23.77,-13.02 7.59,-8.68 15.19,-21.05 22.78,-37.11 7.6,-16.06 15.41,-35.59 23.44,-58.6 8.03,-23.01 16.39,-48.83 25.07,-77.48l41.67 -134.78c1.73,-5.21 2.71,-9.66 2.93,-13.35 0.22,-3.69 0.33,-6.83 0.33,-9.44 0,-2.6 -0.98,-4.88 -2.94,-6.83 -1.95,-1.96 -4.44,-2.94 -7.48,-2.94 -1.74,0 -4.02,-0.75 -6.84,-2.27 -2.82,-1.52 -5.1,-3.59 -6.83,-6.19 -1.74,-2.6 -2.29,-5.64 -1.63,-9.11 0.65,-3.48 3.8,-6.95 9.44,-10.42 5.64,-3.47 14.22,-7.05 25.72,-10.75 11.5,-3.68 27.45,-7.05 47.85,-10.09 6.51,-0.86 12.59,1.2 18.23,6.19 5.65,4.99 8.47,11.18 8.47,18.55 0,5.21 -1.85,16.61 -5.54,34.19 -3.68,17.58 -9.87,38.96 -18.55,64.13l-37.77 112.64c-2.6,7.82 -6.4,17.91 -11.39,30.28 -4.99,12.37 -11.29,25.72 -18.88,40.04 -7.6,14.32 -16.39,28.65 -26.37,42.97 -9.99,14.33 -21.17,27.35 -33.53,39.07 -12.38,11.72 -25.83,21.27 -40.37,28.65 -14.54,7.38 -30.28,11.07 -47.21,11.07zm223.98 -577.53c15.63,0 27.13,3.91 34.51,11.72 7.38,7.81 11.07,16.49 11.07,26.04 0,12.16 -4.78,22.9 -14.32,32.23 -9.56,9.34 -20.62,14 -33.21,14 -12.59,0 -23.55,-3.9 -32.88,-11.72 -9.33,-7.81 -14,-16.71 -14,-26.69 -0.44,-11.29 3.58,-21.71 12.04,-31.26 8.47,-9.55 20.73,-14.32 36.79,-14.32zm238.96 362.66c2.17,1.74 2.6,3.91 1.3,6.51 -3.04,6.08 -8.25,12.81 -15.63,20.19 -7.38,7.38 -16.38,14.43 -27.02,21.16 -10.63,6.73 -22.9,12.37 -36.78,16.93 -13.89,4.56 -28.87,6.83 -44.93,6.83 -22.14,0 -40.37,-6.29 -54.69,-18.88 -14.33,-12.58 -21.49,-30.6 -21.49,-54.04 0,-12.15 1.41,-25.28 4.23,-39.39 2.82,-14.11 7.27,-28.54 13.35,-43.3 6.08,-14.76 14.22,-29.3 24.42,-43.62 10.2,-14.33 22.46,-27.57 36.78,-39.72 16.06,-13.89 33.32,-24.96 51.77,-33.2 18.44,-8.25 37.44,-12.38 56.97,-12.38 18.23,0 31.25,4.35 39.06,13.03 7.82,8.68 11.72,19.31 11.72,31.9 0,18.23 -5.1,34.18 -15.3,47.86 -10.2,13.67 -24.85,25.93 -43.95,36.78 -18.23,9.99 -35.59,17.04 -52.09,21.16 -16.49,4.13 -31.03,6.62 -43.62,7.49 -1.3,3.04 -2.5,8.35 -3.58,15.95 -1.09,7.6 -1.63,15.96 -1.63,25.07 0,11.28 3.04,21.16 9.12,29.63 6.07,8.46 14.76,12.69 26.04,12.69 16.06,0 29.95,-3.58 41.67,-10.74 11.72,-7.16 21.27,-14.87 28.65,-23.12 1.74,-2.6 3.47,-3.25 5.21,-1.95l10.42 7.16zm-110.69 -78.78c5.64,0.43 14.54,-1.52 26.7,-5.86 12.15,-4.34 23,-11.07 32.55,-20.18 5.21,-4.78 9.98,-12.16 14.32,-22.14 4.35,-9.98 6.52,-20.4 6.52,-31.25 0,-5.21 -1.09,-10.2 -3.26,-14.98 -2.17,-4.78 -6.95,-7.16 -14.33,-7.16 -6.07,0 -12.36,3.25 -18.88,9.76 -6.51,6.51 -12.59,14.87 -18.23,25.07 -5.64,10.2 -10.63,21.27 -14.97,33.21 -4.34,11.94 -7.81,23.11 -10.42,33.53z"/>
   </g>
  </g>
 </g>
</svg>
