<?xml version="1.0" encoding="UTF-8"?>
<!DOCTYPE svg PUBLIC "-//W3C//DTD SVG 1.1//EN" "http://www.w3.org/Graphics/SVG/1.1/DTD/svg11.dtd">
<!-- Creator: CorelDRAW 2017 -->
<svg xmlns="http://www.w3.org/2000/svg" xml:space="preserve" width="50.7998mm" height="33.8666mm" version="1.1" style="shape-rendering:geometricPrecision; text-rendering:geometricPrecision; image-rendering:optimizeQuality; fill-rule:evenodd; clip-rule:evenodd"
viewBox="0 0 5079.98 3386.66"
 xmlns:xlink="http://www.w3.org/1999/xlink">
 <defs>
  <style type="text/css">
   <![CDATA[
    .fil0 {fill:#020001}
    .fil2 {fill:#676767}
    .fil1 {fill:#989898}
    .fil3 {fill:#373435;fill-rule:nonzero}
   ]]>
  </style>
 </defs>
 <g id="Capa_x0020_1">
  <metadata id="CorelCorpID_0Corel-Layer"/>
  <g id="_2060653617120">
   <path class="fil0" d="M4863.69 910.17l-27.14 33.02c-63.09,37.16 -162.76,35.91 -219.87,24.28l-8.68 21.37c-2.15,10.63 -6.47,12.39 -2.56,35.32 1.29,7.53 9.7,31.24 12.55,39.4l-27.45 21.22c-62.51,-6.98 -94.86,-25.54 -133.37,-60.19 34.77,-49.43 59.5,-34.06 93.69,-84.67 -3.2,-1.06 -9.4,-4.86 -9.9,-2.02 -1.48,8.33 -72.37,-17.68 -134.03,-96.21 -68.34,-87.04 -59.95,-95.67 -31.02,-159.07 58.93,43.81 40.2,38.92 103.83,64.09 80.18,31.72 43.82,28.49 110.19,80.12 2.07,-2.46 3.66,-9.96 5.27,-8.07 5.38,6.3 4.35,-33.59 54.15,-73.87l17.42 100.74c64.69,-11.95 185.35,7.48 232.93,23.64l-36.01 40.9z"/>
   <path class="fil0" d="M3838.74 901.85l17.92 44.32 14.06 34.06c74.97,-10.57 138.12,10.4 212.27,16.15l-1.21 30.67c-56.59,48.88 -28.04,103.12 -273.41,77.41 2.33,76.59 51.23,131.84 -31.56,117.37 -49.65,-8.67 -95.22,-34.29 -121.6,-71.78l99.82 -68.75 -50.02 -17.68c-11.96,-5.89 -14.58,-7.29 -32.14,-21.87 -173,-143.64 -96.38,-202.83 -97.12,-210.72 -0.44,-4.66 2.13,-6.6 3.24,-9.89 162.67,120.35 51.47,-6.21 209.03,147.37 2.21,-3.15 4.25,-7.8 5.63,-10.08l17.41 -27.94c14.76,-20.04 4.66,-13.1 27.68,-28.64z"/>
   <path class="fil0" d="M4325.39 1207.03c29.05,4.59 22.94,-34.49 34.48,47.75 26.37,38.91 12.35,16.79 116.49,31.07 42.24,5.79 86.7,14.31 124.05,18.05 -55.42,45.55 -27.44,74.85 -109.41,99.12 -64.26,19.01 -133.09,1.57 -186.36,5.79l25.31 114.12c-55.65,3.83 -85.44,0.98 -131.75,-32.95 -41.01,-30.04 -16,-8.02 -36.87,-33.96l96.09 -70.77c-43.43,-39.62 -10.06,5.42 -71.85,-33.18 -42.2,-26.36 -111.08,-113.5 -121.36,-143.23 -26.18,-75.65 -10.42,-7.43 0.38,-48.39l14.59 -36.55 214.95 145.86c20.72,-36.3 3.92,-25.83 31.26,-62.73z"/>
   <g>
    <path class="fil0" d="M4285.91 500.1c56.4,-16.47 -13.41,-24.79 -25.79,-24.57 -90.3,1.45 -127.83,-92.11 -178.7,-124.31 52.74,-9.68 87.59,-1.99 130.4,9.95l44.7 14.76 -26.46 -42.69c-1.74,-1.69 -6.79,-3.2 -9.81,-5.4 -32.62,-59.05 -58.33,-138.44 -51.96,-181.57 70.96,30.92 157.61,105.12 209.1,206.92 35.33,-16.16 46.29,-35.46 97.27,-36.54l-74 163.95c-36.79,34.64 -49.72,18.24 -72.67,59.71 -15.52,28.06 -9.55,55.96 -28.92,97.88 -63.32,-1.13 -87.88,-27.39 -108.09,-95.26l94.93 -42.83z"/>
    <path class="fil1" d="M4211.82 361.17c23.67,-18.44 35.7,18.32 8.43,-33.33 3.02,2.2 8.07,3.71 9.81,5.4l26.46 42.69 -44.7 -14.76z"/>
    <path class="fil2" d="M4285.91 500.1c-21.2,-23.19 10.62,-7.17 -25.79,-24.57 12.38,-0.22 82.19,8.1 25.79,24.57z"/>
   </g>
   <path class="fil3" d="M181.23 2529.59c1.41,4.83 -9.53,18.05 -32.67,39.61 -7.36,6.92 -14.82,11.33 -22.15,13.47 -9.24,2.7 -14.77,0.65 -16.78,-6.24 -2.83,-9.67 3.77,-21.94 19.94,-36.85 13.77,-12.77 24.05,-20.07 30.94,-22.08 10.56,-3.08 17.46,0.94 20.72,12.09zm97.34 164.4c1.76,6.01 -3.8,20.2 -16.82,42.62 -35.52,61.45 -68.26,108.4 -98.15,141.16 -26.91,29.34 -41.19,44.17 -42.95,44.68 -6.01,1.76 -12.94,0.92 -20.93,-2.48 -7.99,-3.39 -12.89,-8.17 -14.65,-14.18 -7.02,-24.04 -6.03,-73.49 2.86,-148.16 7.48,-63.76 14.69,-106.6 21.65,-128.52 1.81,-5.78 7.68,-10.2 17.65,-13.11 4.26,-1.24 9.06,-0.58 14.32,2.18 5.37,2.57 8.62,6.08 9.86,10.33 0.69,2.34 -4.58,34.43 -15.5,96.17 -11.07,61.78 -14.05,101.16 -9.12,118.02 2.27,7.77 6.31,10.72 12.32,8.97 13.78,-4.03 38,-31.15 72.8,-81.41 22.03,-31.89 39.63,-59.31 52.86,-82.11l4.84 -1.41c4.77,0.52 7.68,2.85 8.96,7.25zm263 -51.21c1.5,5.13 -5.91,19.55 -22.36,43.28 -35.49,51.74 -62.9,88.07 -82.29,108.84 -7.1,7.81 -12.09,11.97 -14.88,12.78 -8.06,2.36 -13.79,-2.01 -17.05,-13.15 -0.64,-9.84 -1.34,-31.28 -2.01,-64.65 -1.12,-46.29 -2.36,-75.05 -3.68,-86.11 -0.36,-3.4 -1.57,-5.91 -3.72,-7.83 -1.13,-0.62 -2.58,-0.68 -4.19,-0.2 -8.95,2.61 -22.87,20.84 -41.93,54.73 -29,51.58 -52.07,110.98 -69,178.3 -0.86,3.59 -4.2,6.32 -9.92,7.99 -10.55,3.08 -17.16,0.08 -19.86,-9.16 -2.39,-8.21 -2.83,-26.06 -1.17,-53.59 1.72,-17.53 4.45,-49.03 8.19,-94.52 3.7,-41.81 7.38,-79.32 11,-112.67 1.1,-9.87 9.45,-17.24 24.98,-21.78 10.56,-3.08 17.23,-0.42 19.67,7.94 0.64,2.2 -1.28,21.22 -5.52,56.82 -4.39,35.65 -6.16,54.63 -5.52,56.82l1.08 4.78 2.84 1.56c10.52,-18.99 26.72,-47.43 48.25,-85.38 31.88,-53.7 56.57,-83.03 74.02,-88.12 9.38,-2.74 15.34,0.77 17.87,10.53 2.4,9.32 2.05,35.35 -1.01,78.25 -3.17,43.09 -2.77,71.14 1.04,84.18 0.6,2.06 2.42,3.91 5.7,5.34 11.54,-7.35 24.57,-19.91 39.3,-37.57l37.75 -45.08 4.69 -1.37c3.93,2.04 6.53,4.94 7.73,9.04zm298.11 -127.65c2.35,8.06 -7.53,25.43 -29.42,52.35l-64.15 78.88c-22.81,28.14 -38.55,43.4 -47.2,45.93 -9.09,2.65 -16.01,-3.6 -20.55,-19.14 -2.44,-8.36 -4.42,-21.14 -6.08,-38.8 -2.03,-20.57 -2.28,-59 -0.6,-115.33l-1.62 -5.57c-2.28,-1.25 -4.15,-1.66 -5.61,-1.23 -5.13,1.5 -12.69,8.32 -22.77,20.65 -32.54,38.94 -55.16,87.87 -68.19,146.73l-17.69 81.06c-1.8,8 -8.89,19.14 -21.6,33.36 -1.27,1.64 -3.74,3 -7.11,3.98 0.58,-0.17 -1.16,-0.14 -5.23,0.1 -2.8,-1.41 -4.74,-3.71 -5.77,-7.23 -1.75,-6.01 6.06,-64.77 23.55,-176.48 18.82,-121.33 41.53,-253.82 68,-397.42 0.85,-4.71 4.65,-8.04 11.54,-10.06 13.93,-4.07 23.53,2.68 28.63,20.12 0.77,2.64 -2.95,25.84 -10.98,69.71l-17.41 90.21c-6.56,36.92 -15.02,88.55 -25.58,154.8 -0.12,0.68 0.34,1.18 1.48,1.8l44.7 -57.77c25.93,-32.71 43.8,-50.5 53.77,-53.41 10.7,-3.12 17.69,1.2 21.11,12.93 -6.5,-22.29 -8.34,-2.98 -5.17,57.99 2.98,60.86 5.68,95.71 8.17,104.21 1.67,5.72 5.5,7.94 11.3,6.57 4.55,-1.33 20.5,-16.97 47.96,-46.63 23.48,-25.79 40.41,-45.21 50.61,-58.22 1.23,-0.68 3.58,-0.25 6.53,1.12 3.13,1.47 4.86,3.03 5.38,4.79zm279.22 -45.76c1.2,4.1 -4.21,14.44 -16.45,31.37 -15.5,21.56 -37.6,48.86 -66.48,81.79 -27.11,30.83 -42.21,46.7 -45.29,47.6 -10.11,2.95 -18.13,-6 -24.21,-26.82 -2.19,-7.47 -4.55,-19.35 -7.22,-35.6l-6.13 -20.96c-9.98,17.55 -24.89,43.86 -44.82,79.12 -27.81,48.06 -46.94,73.54 -57.2,76.53 -7.04,2.06 -13.99,0.59 -20.67,-4.3 -6.67,-4.89 -11.03,-11.1 -13.17,-18.43 -8.65,-29.61 -9.79,-66.19 -3.57,-109.69 5.5,-38.36 16.34,-72.08 32.41,-100.95 20.39,-35.87 46.27,-58.39 77.79,-67.59 11.72,-3.43 22.9,-3.83 33.64,-1.4 3.29,0.95 9.37,2.67 18.26,5.33 9.13,-16.67 16.33,-25.78 21.9,-27.4 5.72,-1.68 9.39,-1.63 11.17,0.08 3.73,3.52 4.68,8.97 2.86,16.34 -17.61,66.08 -21.34,116.5 -11.23,151.09 3.76,12.9 8.43,18.54 13.86,16.96 9.59,-9.65 38.26,-39.5 86.05,-89.42 5.69,-6.11 9.68,-9.35 12.02,-10.03 2.79,-0.82 4.98,1.25 6.48,6.38zm-147.35 -38.74c-9.74,-5.59 -22.44,-6.02 -38.12,-1.43 -29.32,8.56 -51.97,28.54 -68.38,60.06 -9.35,18.64 -15.72,40.4 -19.08,65.4 -3.58,25.87 -2.54,48.47 3.06,67.68 3.17,10.85 8.02,15.48 14.62,13.55 14.08,-4.11 35.29,-34.97 63.84,-92.47 30.79,-61.82 45.4,-99.5 44.06,-112.79zm232.27 -399.9c1.15,3.96 -0.39,15.55 -4.73,34.47 -12.1,53.34 -22.62,102.87 -31.64,148.78 -15.72,80.17 -25.36,164.29 -28.72,252.46 -1.16,27.07 -0.6,44.25 1.59,51.72 1.32,4.55 4.05,7.89 8.38,9.65 13.45,-10.61 32.52,-31.94 57.36,-64.01 4.7,-6.79 20.46,-30.16 47.29,-70.14 2.9,-2.6 4.69,-4.07 5.57,-4.33 1.76,-0.52 4.2,0.2 7.67,1.74 3.37,1.72 5.28,3.38 5.8,5.14 1.67,5.72 -1.86,15.98 -10.49,31.07 -16.33,28 -40.57,64.83 -72.68,110.17 -39.71,56.31 -62.7,85.46 -68.71,87.21 -15.39,4.5 -25.52,-1.29 -30.19,-17.27 -4.02,-13.78 -2.57,-66.55 4.46,-158.5 12.05,-155.94 32.76,-296.92 62.39,-423.15 1.44,-5.99 5.5,-10.04 12.4,-12.05 6.3,-1.84 13.08,-0.96 20.44,2.46 7.36,3.42 11.97,8.28 13.81,14.58zm285.85 314.1c3.34,11.44 -13.31,44.31 -49.95,98.61 -31.57,46.61 -54.93,77.77 -70.17,93.68 -21.28,22.45 -37.13,35.19 -47.1,38.1 -28.29,8.26 -49.84,-12.65 -64.44,-62.64 -17.55,-60.1 -13.48,-119.68 12.23,-178.74 17.92,-41.04 38.78,-64.95 62.68,-71.93 11.43,-3.34 22.75,-2.19 34.13,3.55 11.34,5.6 18.61,14.14 21.95,25.57 10.27,35.18 -9.41,70.21 -59.05,105.08 -5.15,4.68 -14.24,11.16 -27.36,19.6 -1.68,0.81 -6.51,2.22 -14.66,4.28 -2.94,17.73 -1.12,37.56 5.26,59.41 9.12,31.22 22.2,44.42 39.06,39.5 11.73,-3.43 32.53,-23.18 62.4,-59.27 23.35,-28.46 39.87,-50.32 49.6,-66.04 5.76,-9.16 14.77,-25.16 27.47,-48.12l8.72 -8.28c5.02,1.4 8.16,3.98 9.23,7.64zm-144.38 -30.21c-2.74,-9.38 -8.65,-12.75 -17.89,-10.05 -9.24,2.7 -17.95,14.79 -26.16,36.28 -6.67,18.02 -9.88,31.53 -9.83,40.42l6.16 -1.8c7.77,-2.27 20.58,-13.97 38.54,-35.28 8.81,-10.69 11.84,-20.48 9.18,-29.57zm503.87 -361.18c0.1,2.52 -0.07,8.46 -0.37,17.77 -3.67,4.89 -7.51,11.9 -11.63,21.22 -9.51,58.94 -13.47,91.12 -11.97,96.25l1.24 4.25c2.27,1.25 7.07,0.8 14.55,-1.38 2.34,-0.69 5.92,-2.05 10.59,-4.05 4.67,-2 8.25,-3.36 10.44,-4.01 11.59,-3.38 18.76,-0.06 21.63,9.76 3.47,11.87 -8.46,21.72 -35.72,29.68 -1.17,0.35 -1.7,0.18 -1.77,-0.59 -0.02,-0.63 -0.55,-0.8 -1.72,-0.46 -6.3,1.85 -13.29,5.16 -21.01,9.8 -4.66,17.27 -9.13,51.51 -13.42,102.72 -5.21,60.08 -6.84,93.17 -5,99.47 1.58,5.43 4.85,7.34 9.69,5.93 10.85,-3.17 43.52,-44.38 98.16,-123.66 6.01,-1.76 9.76,0.17 11.43,5.89 2.01,6.89 -4.61,23.46 -19.91,50.04 -9.31,16.08 -18.1,30.11 -26.38,42.07 -11,16.26 -27.87,40.76 -50.35,73.26 -17.93,25.76 -32.93,40.33 -44.95,43.84 -10.85,3.17 -17.83,-0.04 -20.66,-9.72 -2.01,-6.89 -2.47,-34.6 -1.33,-82.98 1.24,-56.21 4.41,-117.28 9.31,-183.3l-1.12 -3.81c-3,-1.04 -7.07,-0.8 -12.35,0.74 -4.54,1.33 -11.79,3.76 -21.59,7.26 -22.52,7.85 -39.61,13.64 -51.39,17.4 -2.8,-1.41 -4.66,-3.41 -5.52,-6.34 -3.51,-12.03 9.24,-24.5 38.13,-37.24 19.01,-6.82 38.31,-13.73 57.67,-20.98 4.64,-38.58 13.78,-93.92 27.6,-165.89 0.75,-4.52 4.55,-7.85 11,-9.74 7.47,-2.18 14.94,-1.66 22.37,1.42 7.42,3.08 12.26,8.2 14.35,15.38zm365.16 160.16c2.35,8.06 -7.53,25.43 -29.42,52.35l-64.15 78.87c-22.81,28.15 -38.56,43.41 -47.21,45.93 -9.09,2.66 -16,-3.59 -20.54,-19.13 -2.44,-8.36 -4.43,-21.15 -6.08,-38.8 -2.03,-20.57 -2.28,-59 -0.6,-115.34l-1.63 -5.57c-2.27,-1.24 -4.14,-1.65 -5.6,-1.22 -5.14,1.5 -12.69,8.32 -22.77,20.65 -32.54,38.94 -55.16,87.87 -68.2,146.73l-17.69 81.05c-1.8,8.01 -8.88,19.15 -21.6,33.36 -1.27,1.65 -3.73,3 -7.1,3.99 0.58,-0.17 -1.16,-0.14 -5.23,0.09 -2.8,-1.41 -4.74,-3.7 -5.77,-7.22 -1.75,-6.01 6.06,-64.78 23.55,-176.48 18.81,-121.33 41.53,-253.82 68,-397.43 0.85,-4.7 4.65,-8.04 11.54,-10.05 13.92,-4.07 23.53,2.67 28.63,20.12 0.77,2.64 -2.96,25.84 -10.98,69.71l-17.41 90.21c-6.56,36.92 -15.02,88.55 -25.58,154.8 -0.12,0.67 0.34,1.18 1.48,1.8l44.7 -57.77c25.92,-32.71 43.8,-50.5 53.76,-53.41 10.71,-3.13 17.7,1.19 21.12,12.92 -6.51,-22.28 -8.34,-2.97 -5.17,58 2.98,60.86 5.68,95.71 8.17,104.21 1.67,5.72 5.49,7.94 11.3,6.57 4.54,-1.33 20.5,-16.97 47.95,-46.63 23.49,-25.79 40.41,-45.22 50.62,-58.22 1.23,-0.68 3.58,-0.25 6.53,1.11 3.13,1.48 4.86,3.04 5.38,4.8zm217.97 -44.1c3.34,11.43 -13.31,44.3 -49.95,98.6 -31.57,46.61 -54.93,77.77 -70.17,93.68 -21.28,22.45 -37.13,35.19 -47.1,38.1 -28.3,8.27 -49.84,-12.65 -64.44,-62.64 -17.56,-60.1 -13.48,-119.68 12.23,-178.74 17.92,-41.04 38.78,-64.95 62.68,-71.93 11.43,-3.34 22.74,-2.19 34.13,3.55 11.34,5.6 18.6,14.14 21.94,25.57 10.28,35.18 -9.4,70.21 -59.04,105.08 -5.15,4.68 -14.24,11.16 -27.36,19.6 -1.68,0.81 -6.52,2.23 -14.66,4.28 -2.94,17.73 -1.13,37.56 5.26,59.41 9.12,31.22 22.2,44.42 39.06,39.5 11.73,-3.42 32.52,-23.18 62.4,-59.27 23.34,-28.46 39.87,-50.32 49.6,-66.04 5.76,-9.16 14.77,-25.16 27.47,-48.12l8.72 -8.28c5.02,1.4 8.16,3.98 9.23,7.65zm-144.38 -30.22c-2.74,-9.38 -8.66,-12.75 -17.89,-10.05 -9.24,2.7 -17.96,14.79 -26.16,36.28 -6.67,18.02 -9.88,31.53 -9.83,40.42l6.16 -1.8c7.77,-2.27 20.58,-13.97 38.54,-35.28 8.81,-10.69 11.83,-20.48 9.18,-29.57zm525.35 -486.46l-53.1 372.7c-1.5,9.03 -3.73,23.2 -6.57,42.33l1.42 5.95c1.05,0.33 2.16,0.32 3.33,-0.02l128.39 -79.03c8.01,-3.61 13.36,-0.56 16.1,8.83 2.1,7.18 -0.55,13.36 -8.05,18.73 -21.96,11.99 -49.34,29.37 -82.1,52.3l1.29 4.4c4.02,3.44 9.63,8.48 16.53,15.22 15.17,18.16 26.95,41.61 35.3,70.19 4.63,15.84 7.24,36.23 7.71,61.24 0.07,22.57 -2,41.63 -6.3,56.89 -0.6,4.47 -2.84,12.6 -6.9,24.29 -27.48,54.64 -43.94,86.5 -49.41,95.57 -22.66,37.33 -45.05,59.3 -67.48,65.85 -4.54,1.33 -11.26,1.23 -20.09,-0.17 -8.7,-1.44 -14.65,-3.84 -17.77,-6.9 -6.44,-6.24 -11.93,-16.88 -16.39,-32.13 -4.32,-14.81 -6.45,-26.44 -6.52,-34.85 0.19,-47.31 2.98,-99.83 8.05,-157.64 1.93,-17.9 4.81,-45.63 8.39,-82.95l-1.54 -5.28c-4.05,0.86 -10.22,4.26 -18.36,10.14 -8.34,5.77 -13.88,9.14 -16.66,9.95 -9.83,2.87 -15.73,0.62 -17.92,-6.86 -2.61,-8.94 6.01,-19.73 26.01,-32.41 20.9,-13.43 31.39,-21.1 31.59,-22.6 0.43,-6.17 3.09,-26.99 8.3,-62.56 22.06,-157.59 40.32,-277.01 54.65,-358.68 0.08,-11.16 0.96,-21.76 2.22,-32.15 1.21,-8.94 7.23,-15 18.08,-18.17 13.78,-4.02 23.13,1.84 27.8,17.82zm21.17 534.93c-11.56,-39.58 -27.79,-66.82 -48.88,-81.82 -7.67,-5.56 -12.65,-7.92 -15,-7.23 -13.05,3.81 -20.69,9.22 -22.85,16.53 -5.19,17.11 -9.6,47.2 -13.21,90.41l-11.23 120.07c-3.54,36.35 -2.85,63.2 2.16,80.35 5.26,18.04 14.47,25.05 27.66,21.2 20.23,-5.91 41.42,-31.99 63.25,-78.14 21.16,-44.69 29.92,-78.43 26.52,-100.98 1.04,-17.65 -1.82,-37.81 -8.42,-60.39zm388.55 -258.13c2.44,8.36 -8.43,28.88 -32.71,61.75 -6.64,9.42 -18.63,26.12 -36.25,50.2 -43.02,59.19 -70.44,90.59 -82.46,94.1 -11.14,3.25 -18.98,-2.89 -23.48,-18.28 -1.97,-6.75 -3.65,-17.39 -4.89,-31.99 -1.19,-14.45 -2.73,-25.13 -4.74,-32.03 -0.81,-2.78 -1.77,-5.52 -2.92,-8.37 -8.55,16.5 -19.73,37.59 -33.4,63.22 -0.54,1.43 -10.74,18.25 -30.86,50.7 -12.51,20.35 -21.09,31.29 -25.92,32.71 -10.12,2.95 -16.65,-0.87 -19.73,-11.43 -2.1,-7.18 -3.09,-23.12 -2.88,-48 0.86,-113.06 13.47,-195.18 37.71,-246.17 0.59,-0.17 1.64,-0.96 3.47,-2.29 1.84,-1.33 3.52,-2.14 4.83,-2.52 13.2,-3.86 21.64,0.52 25.32,13.13 1.58,5.42 1.78,10.45 0.74,15.05 -8,31.46 -13.14,56.35 -15.65,74.42 -4.14,31.6 -6.66,66.54 -7.65,104.54l2.84 1.56c27.07,-33.68 53.87,-85.74 80.24,-156.14 5.16,-15.02 14.63,-41.97 28.25,-80.32 1.65,-4.14 5.68,-7.23 12.28,-9.16 11.73,-3.42 18.92,-0.59 21.62,8.65 -19.94,115.28 -28.4,178.38 -25.24,189.22l2.53 8.65c1.94,1.19 4.25,1.47 7.18,0.61 9.67,-2.82 29.98,-24.82 60.72,-66.1 9.94,-13.89 25.26,-34.43 45.62,-61.7l6.54 -1.59c5.09,2.17 8.08,4.8 8.89,7.58zm82.92 -301.69c0.1,2.51 -0.08,8.45 -0.38,17.77 -3.66,4.89 -7.5,11.89 -11.62,21.21 -9.52,58.95 -13.48,91.13 -11.98,96.26l1.24 4.25c2.27,1.25 7.07,0.8 14.55,-1.38 2.35,-0.69 5.93,-2.05 10.59,-4.05 4.67,-2 8.25,-3.37 10.45,-4.01 11.58,-3.38 18.75,-0.07 21.62,9.75 3.47,11.88 -8.45,21.72 -35.72,29.69 -1.17,0.34 -1.7,0.18 -1.76,-0.6 -0.03,-0.63 -0.56,-0.79 -1.73,-0.45 -6.3,1.84 -13.29,5.16 -21,9.8 -4.66,17.27 -9.14,51.51 -13.43,102.72 -5.21,60.07 -6.84,93.17 -5,99.47 1.59,5.43 4.85,7.34 9.69,5.92 10.85,-3.17 43.52,-44.37 98.16,-123.66 6.01,-1.75 9.76,0.17 11.43,5.89 2.01,6.89 -4.6,23.46 -19.91,50.05 -9.3,16.08 -18.09,30.11 -26.37,42.07 -11.01,16.26 -27.87,40.76 -50.36,73.26 -17.93,25.76 -32.93,40.33 -44.95,43.84 -10.85,3.17 -17.83,-0.04 -20.66,-9.72 -2.01,-6.89 -2.47,-34.6 -1.33,-82.98 1.25,-56.21 4.41,-117.28 9.31,-183.31l-1.11 -3.81c-3.01,-1.03 -7.08,-0.79 -12.36,0.75 -4.54,1.33 -11.79,3.76 -21.58,7.26 -22.53,7.85 -39.61,13.63 -51.4,17.4 -2.8,-1.41 -4.66,-3.41 -5.52,-6.35 -3.51,-12.02 9.24,-24.49 38.13,-37.23 19.01,-6.82 38.31,-13.73 57.68,-20.98 4.64,-38.59 13.77,-93.92 27.59,-165.89 0.75,-4.52 4.55,-7.86 11,-9.74 7.48,-2.18 14.95,-1.66 22.37,1.42 7.43,3.08 12.26,8.19 14.36,15.38zm357.32 173.1c2.44,8.36 -8.44,28.88 -32.72,61.75 -6.64,9.41 -18.63,26.12 -36.25,50.2 -43.02,59.19 -70.44,90.58 -82.46,94.09 -11.14,3.26 -18.98,-2.88 -23.48,-18.27 -1.97,-6.75 -3.65,-17.4 -4.89,-31.99 -1.19,-14.45 -2.72,-25.14 -4.74,-32.03 -0.81,-2.78 -1.77,-5.53 -2.92,-8.37 -8.55,16.5 -19.73,37.58 -33.4,63.22 -0.54,1.43 -10.74,18.25 -30.86,50.69 -12.51,20.36 -21.09,31.3 -25.92,32.71 -10.12,2.96 -16.64,-0.86 -19.73,-11.42 -2.09,-7.18 -3.09,-23.12 -2.88,-48 0.86,-113.06 13.47,-195.18 37.71,-246.17 0.59,-0.18 1.64,-0.96 3.48,-2.29 1.83,-1.33 3.51,-2.14 4.83,-2.53 13.19,-3.85 21.63,0.53 25.31,13.13 1.59,5.43 1.78,10.46 0.74,15.06 -8,31.46 -13.14,56.35 -15.65,74.42 -4.14,31.6 -6.66,66.54 -7.65,104.54l2.84 1.56c27.07,-33.69 53.87,-85.74 80.25,-156.14 5.15,-15.03 14.62,-41.98 28.24,-80.32 1.65,-4.14 5.69,-7.23 12.28,-9.16 11.73,-3.42 18.92,-0.59 21.62,8.64 -19.94,115.29 -28.4,178.38 -25.24,189.23l2.53 8.65c1.94,1.18 4.25,1.47 7.18,0.61 9.68,-2.83 29.98,-24.83 60.72,-66.11 9.95,-13.88 25.26,-34.42 45.62,-61.69l6.54 -1.59c5.09,2.17 8.08,4.8 8.9,7.58zm158.11 -135.76c5.01,17.16 -1.7,28.5 -20.32,33.94 -5.42,1.58 -10.46,1.78 -15.29,0.49 -4.64,-1.19 -7.63,-1.59 -8.65,-1.29 -11,3.21 -22.75,13.64 -35.69,31.42 -33.69,46.44 -55.14,101.55 -64.54,165.23 -1.91,13.61 -3.08,26.52 -3.49,38.73 3.41,29.08 -4.11,46.39 -22.72,51.82 -3.38,0.99 -7.56,0.3 -12.35,-1.96 -4.99,-2.36 -7.88,-5.18 -8.91,-8.69 -2.74,-9.39 4.49,-74.5 21.74,-195.21l11.76 -82.83c0.79,-5.48 3.8,-13.68 8.65,-24.32 1.33,-1.98 4.49,-3.7 9.33,-5.11 17.44,-5.1 27.55,-2.64 30.5,7.47 0.26,0.88 -1.89,10.42 -6.4,28.76 -4.65,18.38 -6.24,29.83 -4.91,34.37 0.51,1.76 0.96,2.74 1.34,2.95 36.08,-50.79 65.53,-79.6 88.1,-86.19 17.74,-5.19 28.29,-1.75 31.85,10.42zm239.07 28.66c3.34,11.43 -13.31,44.3 -49.96,98.6 -31.57,46.61 -54.92,77.77 -70.16,93.68 -21.29,22.45 -37.14,35.19 -47.11,38.1 -28.29,8.27 -49.83,-12.65 -64.44,-62.64 -17.55,-60.1 -13.48,-119.68 12.23,-178.74 17.93,-41.04 38.78,-64.95 62.68,-71.93 11.44,-3.34 22.75,-2.19 34.13,3.55 11.34,5.6 18.61,14.14 21.95,25.57 10.28,35.19 -9.4,70.21 -59.04,105.08 -5.16,4.68 -14.25,11.15 -27.37,19.6 -1.67,0.81 -6.51,2.22 -14.66,4.29 -2.94,17.72 -1.12,37.55 5.26,59.4 9.12,31.22 22.2,44.42 39.06,39.5 11.73,-3.43 32.53,-23.18 62.4,-59.28 23.35,-28.45 39.88,-50.31 49.6,-66.04 5.76,-9.15 14.77,-25.15 27.48,-48.11l8.71 -8.28c5.03,1.4 8.17,3.98 9.24,7.65zm-144.39 -30.22c-2.73,-9.38 -8.65,-12.75 -17.89,-10.05 -9.23,2.7 -17.95,14.79 -26.15,36.28 -6.67,18.02 -9.89,31.52 -9.83,40.42l6.15 -1.8c7.77,-2.27 20.58,-13.97 38.54,-35.28 8.81,-10.69 11.84,-20.48 9.18,-29.57z"/>
   <path class="fil3" d="M1731 3008.25c3.34,11.44 -13.32,44.3 -49.96,98.6 -31.57,46.61 -54.92,77.78 -70.16,93.69 -21.29,22.44 -37.14,35.18 -47.11,38.1 -28.29,8.26 -49.83,-12.65 -64.44,-62.64 -17.55,-60.11 -13.48,-119.69 12.23,-178.75 17.93,-41.03 38.78,-64.95 62.68,-71.93 11.43,-3.34 22.75,-2.19 34.13,3.56 11.34,5.6 18.61,14.13 21.95,25.57 10.28,35.18 -9.4,70.2 -59.04,105.07 -5.16,4.69 -14.25,11.16 -27.37,19.61 -1.67,0.81 -6.51,2.22 -14.66,4.28 -2.94,17.72 -1.12,37.56 5.26,59.4 9.12,31.23 22.2,44.43 39.06,39.51 11.73,-3.43 32.53,-23.19 62.4,-59.28 23.35,-28.46 39.88,-50.31 49.6,-66.04 5.76,-9.16 14.77,-25.15 27.47,-48.12l8.72 -8.27c5.03,1.39 8.17,3.98 9.24,7.64zm-144.39 -30.22c-2.74,-9.38 -8.65,-12.74 -17.89,-10.04 -9.23,2.69 -17.95,14.79 -26.15,36.27 -6.67,18.02 -9.89,31.53 -9.83,40.43l6.15 -1.8c7.77,-2.27 20.58,-13.97 38.54,-35.29 8.81,-10.68 11.84,-20.48 9.18,-29.57zm270.17 -158.47c0.9,3.08 -8.43,39.22 -27.99,108.42 -16.92,59.19 -25.03,89.72 -24.51,91.48 3.06,7.22 12.38,29.32 28.33,66.51l27.71 66.52c4.54,15.54 -0.08,25.32 -14.16,29.44 -10.55,3.08 -17.46,1.75 -20.68,-3.83 -8.6,-21.83 -22.52,-51.49 -41.98,-89.24 -1.55,0.13 -3.03,2.15 -4.73,6.15 -22.94,58.73 -39.27,89.43 -48.94,92.26 -4.69,1.37 -9.79,0.79 -15.41,-1.55 -5.66,-2.48 -9.2,-5.9 -10.53,-10.45 -1.11,-3.81 -0.84,-7.23 0.59,-10.51 4.38,-8.44 11.82,-23.82 22.03,-46.05 22.1,-51.8 31.82,-82.8 28.91,-92.77 -3.83,-7.63 -16.17,-30.28 -37.22,-68.05l-37.47 -67.81c-3.86,-13.19 1.84,-22.01 16.94,-26.43 13.19,-3.85 25.23,2.5 36.21,18.86 12.6,25.12 27.99,52.76 46.06,82.49 4.4,-3.99 9.03,-15.37 13.79,-33.94 5.04,-19.77 15.03,-55.31 29.62,-106.66 2.6,-7.45 7.42,-12.19 14.75,-14.33 9.82,-2.87 15.99,0.26 18.68,9.49zm364.45 25.92c2.35,8.07 -7.53,25.43 -29.42,52.35l-64.15 78.88c-22.8,28.14 -38.55,43.4 -47.2,45.93 -9.09,2.65 -16.01,-3.6 -20.55,-19.14 -2.44,-8.35 -4.42,-21.14 -6.08,-38.79 -2.03,-20.57 -2.28,-59 -0.6,-115.34l-1.62 -5.57c-2.28,-1.25 -4.15,-1.65 -5.61,-1.23 -5.13,1.5 -12.69,8.32 -22.77,20.65 -32.54,38.94 -55.16,87.87 -68.19,146.73l-17.69 81.06c-1.8,8.01 -8.89,19.14 -21.6,33.36 -1.27,1.64 -3.74,3 -7.11,3.99 0.59,-0.18 -1.16,-0.15 -5.23,0.09 -2.79,-1.41 -4.74,-3.71 -5.77,-7.22 -1.75,-6.01 6.06,-64.78 23.55,-176.49 18.82,-121.32 41.53,-253.81 68,-397.42 0.85,-4.7 4.65,-8.04 11.54,-10.05 13.93,-4.07 23.54,2.67 28.63,20.12 0.77,2.63 -2.95,25.84 -10.98,69.71l-17.41 90.2c-6.55,36.92 -15.02,88.56 -25.58,154.81 -0.12,0.67 0.34,1.17 1.48,1.79l44.7 -57.76c25.93,-32.71 43.8,-50.5 53.77,-53.41 10.7,-3.13 17.69,1.19 21.11,12.92 -6.5,-22.28 -8.34,-2.97 -5.17,57.99 2.98,60.86 5.68,95.72 8.17,104.22 1.67,5.71 5.5,7.94 11.3,6.56 4.55,-1.33 20.5,-16.97 47.96,-46.63 23.49,-25.79 40.41,-45.21 50.61,-58.21 1.23,-0.68 3.59,-0.26 6.53,1.11 3.14,1.47 4.86,3.04 5.38,4.79zm279.22 -45.76c1.2,4.11 -4.21,14.44 -16.45,31.38 -15.5,21.55 -37.6,48.85 -66.48,81.79 -27.11,30.83 -42.2,46.69 -45.28,47.59 -10.12,2.95 -18.14,-6 -24.22,-26.81 -2.19,-7.48 -4.54,-19.36 -7.22,-35.6l-6.12 -20.97c-9.99,17.56 -24.9,43.87 -44.83,79.12 -27.81,48.06 -46.94,73.54 -57.2,76.54 -7.03,2.05 -13.99,0.58 -20.67,-4.31 -6.67,-4.89 -11.03,-11.09 -13.17,-18.43 -8.65,-29.61 -9.79,-66.19 -3.56,-109.69 5.49,-38.36 16.33,-72.08 32.4,-100.95 20.39,-35.87 46.27,-58.39 77.79,-67.59 11.72,-3.43 22.9,-3.83 33.64,-1.4 3.3,0.95 9.37,2.68 18.26,5.33 9.13,-16.67 16.34,-25.77 21.91,-27.4 5.71,-1.67 9.38,-1.63 11.16,0.08 3.73,3.52 4.69,8.97 2.86,16.35 -17.61,66.08 -21.34,116.49 -11.23,151.09 3.77,12.9 8.44,18.53 13.86,16.95 9.59,-9.64 38.26,-39.5 86.05,-89.41 5.69,-6.12 9.68,-9.36 12.03,-10.04 2.78,-0.81 4.98,1.25 6.47,6.38zm-147.35 -38.74c-9.74,-5.58 -22.44,-6.01 -38.12,-1.43 -29.32,8.56 -51.97,28.54 -68.37,60.07 -9.36,18.64 -15.73,40.39 -19.09,65.39 -3.58,25.87 -2.54,48.48 3.07,67.68 3.16,10.85 8.02,15.48 14.61,13.55 14.08,-4.11 35.29,-34.96 63.84,-92.47 30.79,-61.82 45.4,-99.5 44.06,-112.79zm232.27 -399.9c1.15,3.96 -0.39,15.55 -4.73,34.48 -12.1,53.33 -22.61,102.86 -31.64,148.78 -15.72,80.16 -25.36,164.28 -28.72,252.45 -1.16,27.07 -0.6,44.25 1.59,51.73 1.32,4.54 4.05,7.88 8.38,9.64 13.45,-10.61 32.52,-31.93 57.36,-64.01 4.7,-6.78 20.46,-30.16 47.29,-70.13 2.9,-2.6 4.69,-4.08 5.57,-4.34 1.76,-0.51 4.2,0.21 7.67,1.74 3.37,1.72 5.29,3.39 5.8,5.15 1.67,5.72 -1.85,15.97 -10.49,31.06 -16.33,28 -40.57,64.84 -72.67,110.17 -39.72,56.31 -62.71,85.46 -68.72,87.22 -15.39,4.49 -25.52,-1.3 -30.18,-17.28 -4.03,-13.78 -2.58,-66.55 4.45,-158.5 12.05,-155.94 32.76,-296.91 62.4,-423.15 1.43,-5.98 5.49,-10.04 12.39,-12.05 6.3,-1.84 13.08,-0.96 20.44,2.46 7.37,3.42 11.97,8.28 13.81,14.58zm285.85 314.11c3.35,11.43 -13.31,44.3 -49.95,98.6 -31.57,46.61 -54.92,77.78 -70.16,93.68 -21.29,22.45 -37.14,35.19 -47.11,38.11 -28.29,8.26 -49.83,-12.66 -64.44,-62.64 -17.55,-60.11 -13.48,-119.69 12.23,-178.75 17.93,-41.04 38.78,-64.95 62.68,-71.93 11.43,-3.34 22.75,-2.19 34.13,3.56 11.34,5.59 18.61,14.13 21.95,25.57 10.28,35.18 -9.41,70.2 -59.04,105.07 -5.16,4.69 -14.25,11.16 -27.37,19.61 -1.67,0.8 -6.51,2.22 -14.66,4.28 -2.94,17.72 -1.12,37.56 5.26,59.4 9.12,31.23 22.2,44.43 39.06,39.5 11.73,-3.42 32.53,-23.18 62.4,-59.27 23.35,-28.46 39.88,-50.31 49.6,-66.04 5.76,-9.16 14.77,-25.16 27.47,-48.12l8.72 -8.27c5.03,1.39 8.17,3.97 9.23,7.64zm-144.38 -30.22c-2.74,-9.38 -8.65,-12.74 -17.89,-10.05 -9.23,2.7 -17.95,14.79 -26.15,36.28 -6.68,18.02 -9.89,31.53 -9.84,40.42l6.16 -1.8c7.77,-2.27 20.58,-13.96 38.54,-35.28 8.81,-10.69 11.84,-20.48 9.18,-29.57zm503.87 -361.18c0.1,2.52 -0.07,8.46 -0.37,17.77 -3.67,4.89 -7.51,11.9 -11.63,21.22 -9.51,58.94 -13.47,91.13 -11.97,96.25l1.24 4.26c2.27,1.24 7.07,0.8 14.55,-1.39 2.35,-0.68 5.93,-2.05 10.59,-4.05 4.67,-2 8.25,-3.36 10.44,-4 11.59,-3.38 18.76,-0.07 21.63,9.75 3.47,11.88 -8.45,21.72 -35.72,29.69 -1.17,0.34 -1.7,0.17 -1.77,-0.6 -0.02,-0.63 -0.55,-0.79 -1.72,-0.45 -6.3,1.84 -13.29,5.15 -21,9.79 -4.66,17.27 -9.14,51.52 -13.43,102.73 -5.21,60.07 -6.84,93.16 -5,99.47 1.59,5.42 4.85,7.33 9.69,5.92 10.85,-3.17 43.52,-44.38 98.16,-123.66 6.01,-1.76 9.76,0.17 11.43,5.89 2.01,6.89 -4.61,23.46 -19.91,50.05 -9.3,16.08 -18.09,30.1 -26.37,42.07 -11.01,16.26 -27.88,40.75 -50.36,73.26 -17.93,25.76 -32.93,40.32 -44.95,43.83 -10.85,3.17 -17.83,-0.04 -20.66,-9.71 -2.01,-6.89 -2.47,-34.6 -1.33,-82.99 1.24,-56.21 4.41,-117.27 9.31,-183.3l-1.12 -3.81c-3,-1.03 -7.07,-0.8 -12.35,0.74 -4.54,1.33 -11.79,3.77 -21.59,7.26 -22.52,7.86 -39.61,13.64 -51.39,17.4 -2.8,-1.41 -4.66,-3.41 -5.52,-6.34 -3.51,-12.02 9.24,-24.5 38.13,-37.23 19.01,-6.83 38.31,-13.74 57.67,-20.98 4.64,-38.59 13.78,-93.92 27.6,-165.9 0.75,-4.51 4.55,-7.85 11,-9.73 7.47,-2.19 14.95,-1.67 22.37,1.42 7.42,3.08 12.26,8.19 14.35,15.37zm365.16 160.16c2.35,8.06 -7.53,25.43 -29.42,52.35l-64.15 78.88c-22.81,28.14 -38.56,43.4 -47.2,45.93 -9.09,2.65 -16.01,-3.6 -20.55,-19.14 -2.44,-8.36 -4.43,-21.14 -6.08,-38.8 -2.03,-20.56 -2.28,-59 -0.6,-115.33l-1.63 -5.57c-2.27,-1.25 -4.14,-1.66 -5.6,-1.23 -5.13,1.5 -12.69,8.32 -22.77,20.65 -32.54,38.94 -55.16,87.87 -68.19,146.73l-17.69 81.06c-1.8,8 -8.89,19.14 -21.61,33.36 -1.26,1.64 -3.73,3 -7.1,3.98 0.58,-0.17 -1.16,-0.14 -5.23,0.1 -2.8,-1.41 -4.74,-3.71 -5.77,-7.23 -1.75,-6.01 6.06,-64.77 23.55,-176.48 18.82,-121.33 41.53,-253.82 68,-397.42 0.85,-4.71 4.65,-8.04 11.54,-10.06 13.93,-4.06 23.53,2.68 28.63,20.12 0.77,2.64 -2.95,25.84 -10.98,69.71l-17.41 90.21c-6.56,36.92 -15.02,88.56 -25.58,154.81 -0.12,0.67 0.34,1.17 1.48,1.79l44.7 -57.77c25.92,-32.71 43.8,-50.5 53.77,-53.41 10.7,-3.12 17.69,1.2 21.11,12.93 -6.5,-22.29 -8.34,-2.98 -5.17,57.99 2.98,60.86 5.68,95.71 8.17,104.21 1.67,5.72 5.5,7.94 11.3,6.57 4.54,-1.33 20.5,-16.97 47.96,-46.63 23.48,-25.79 40.41,-45.21 50.61,-58.22 1.23,-0.67 3.58,-0.25 6.53,1.12 3.13,1.47 4.86,3.03 5.38,4.79zm217.97 -44.1c3.34,11.44 -13.31,44.3 -49.95,98.6 -31.57,46.61 -54.93,77.78 -70.17,93.68 -21.28,22.45 -37.13,35.19 -47.1,38.11 -28.29,8.26 -49.84,-12.65 -64.44,-62.64 -17.55,-60.11 -13.48,-119.69 12.23,-178.75 17.92,-41.04 38.78,-64.95 62.68,-71.93 11.43,-3.34 22.74,-2.19 34.13,3.56 11.34,5.59 18.61,14.13 21.94,25.57 10.28,35.18 -9.4,70.2 -59.04,105.07 -5.15,4.69 -14.24,11.16 -27.36,19.61 -1.68,0.81 -6.52,2.22 -14.66,4.28 -2.94,17.72 -1.12,37.56 5.26,59.4 9.12,31.23 22.2,44.43 39.06,39.51 11.73,-3.43 32.53,-23.19 62.4,-59.28 23.35,-28.46 39.87,-50.31 49.6,-66.04 5.76,-9.16 14.77,-25.16 27.47,-48.12l8.72 -8.27c5.02,1.39 8.16,3.98 9.23,7.64zm-144.38 -30.22c-2.74,-9.38 -8.66,-12.74 -17.89,-10.05 -9.24,2.7 -17.95,14.79 -26.16,36.28 -6.67,18.02 -9.88,31.53 -9.83,40.42l6.16 -1.79c7.77,-2.27 20.58,-13.97 38.54,-35.29 8.81,-10.69 11.84,-20.48 9.18,-29.57zm557.84 -167.71c9.63,32.98 7.38,73.73 -6.54,122.51 -12.91,45.13 -30.88,82.2 -53.93,111.69 -21.22,27.04 -47.2,45.93 -77.91,56.81 -2.85,19.12 -5.46,42.32 -7.79,69.73 -0.92,19.2 -2.68,48.04 -5.34,86.84 -5.03,51.43 -16.05,79.63 -32.91,84.55 -4.83,1.41 -10.87,1.43 -18.08,0.19l-4.41 -15.1 18.5 -207.94 -1.63 -5.57c-11.6,-3.77 -18.26,-8.03 -19.67,-12.87 -2.83,-9.68 4.99,-18.32 23.45,-25.94 0.91,-1.22 1.56,-2.84 2.26,-4.8 3.77,-25.76 9.54,-81.7 17.38,-168.16 1.22,-10.54 3.37,-29.31 6.41,-55.97 2.4,-22.81 4.04,-35.71 4.72,-38.29 3.39,-11.81 10.73,-19.36 21.87,-22.62 5.43,-1.58 10.87,-0.94 16.42,1.73 3.78,8.6 4.56,22.69 2.52,42.38 -2.33,20.89 -2.47,34.61 -0.54,41.21 0.43,1.46 1.02,2.41 1.78,2.82 2.41,-7.55 12.06,-25.16 28.62,-52.91 20.09,-33.07 34.73,-51.03 43.82,-53.69 8.5,-2.48 17.17,2.14 25.86,13.93 7.05,9.39 12.14,19.2 15.14,29.47zm-32.25 46.48c-5.86,-20.08 -14.34,-28.42 -25.49,-25.17 -2.05,0.6 -6.65,7.2 -13.79,19.79 -18.43,32.75 -31.4,57.53 -38.89,74.36 -14.58,32.9 -21.12,57.88 -19.41,75.2 0.4,3.54 -0.3,13.13 -2.32,28.52 -2.04,14.28 -2.87,22.32 -2.36,24.08l1.76 6.01 15.09 -4.41c4.84,-1.42 13.57,-8.58 26.14,-21.64 9.8,-10.02 16.41,-17.36 19.63,-22.12 15.21,-21.47 26.77,-46.16 34.73,-73.95 9.48,-32.36 11.17,-59.26 4.91,-80.67zm404.08 -61.7c1.2,4.1 -4.21,14.43 -16.45,31.37 -15.5,21.55 -37.6,48.85 -66.48,81.79 -27.11,30.83 -42.2,46.69 -45.28,47.59 -10.12,2.96 -18.14,-6 -24.22,-26.81 -2.19,-7.48 -4.54,-19.36 -7.22,-35.6l-6.12 -20.96c-9.99,17.55 -24.9,43.86 -44.83,79.12 -27.81,48.06 -46.94,73.53 -57.2,76.53 -7.03,2.06 -13.99,0.59 -20.67,-4.31 -6.67,-4.89 -11.03,-11.09 -13.17,-18.42 -8.65,-29.61 -9.79,-66.19 -3.56,-109.7 5.49,-38.36 16.33,-72.07 32.4,-100.95 20.39,-35.87 46.27,-58.38 77.79,-67.59 11.72,-3.42 22.9,-3.82 33.64,-1.39 3.3,0.94 9.37,2.67 18.26,5.32 9.13,-16.66 16.34,-25.77 21.91,-27.4 5.71,-1.67 9.39,-1.63 11.16,0.08 3.73,3.53 4.69,8.98 2.86,16.35 -17.61,66.08 -21.34,116.49 -11.23,151.09 3.77,12.9 8.44,18.54 13.86,16.95 9.59,-9.64 38.26,-39.49 86.05,-89.41 5.69,-6.12 9.68,-9.35 12.03,-10.04 2.78,-0.81 4.98,1.25 6.47,6.39zm-147.35 -38.74c-9.74,-5.59 -22.44,-6.02 -38.12,-1.44 -29.32,8.57 -51.97,28.55 -68.37,60.07 -9.35,18.64 -15.73,40.39 -19.09,65.4 -3.58,25.86 -2.54,48.47 3.07,67.68 3.16,10.85 8.02,15.47 14.61,13.55 14.08,-4.11 35.29,-34.97 63.84,-92.47 30.79,-61.82 45.4,-99.5 44.06,-112.79zm318.29 10.6c3.47,11.88 0.09,19.39 -10.32,22.43 -1.9,0.55 -6.45,0.77 -13.5,0.6 -7.05,-0.17 -11.6,0.05 -13.66,0.65 -6.3,1.84 -9.68,4.42 -10.29,7.78 -1.14,5.9 -1.4,11.54 -1.08,17.02 4.35,50.28 -0.22,93.46 -14.04,129.48 -15.95,42.36 -36.11,67.03 -60.45,74.13 -23.31,6.81 -38.61,-2.56 -46.06,-28.07 -0.31,-2.13 -0.49,-7.65 -0.69,-16.5 -0.63,-25.59 6.85,-56.1 22.29,-91.47 14.94,-33.81 31.95,-60.57 50.75,-80.06 2.15,-1.9 4.78,-4.9 7.5,-9.19 3.02,-12.02 1.3,-29.34 -5.34,-52.06l-7.15 -24.48c-1.98,-1.34 -4.1,-1.51 -6.3,-0.87 -2.05,0.6 -14.12,18.12 -36.23,52.43 -22.08,34.45 -35.9,52.49 -41.33,54.07 -6.59,1.93 -10.8,-0.5 -12.73,-7.09 -0.9,-3.08 7.27,-19.79 24.54,-49.97l36.38 -63.93c3.88,-7.97 9.64,-19.84 17.39,-35.79 2.36,-6.09 5.74,-15.2 10.31,-27.35 4.07,-10.58 8.69,-16.54 13.82,-18.04 6.01,-1.76 12.2,2 18.57,11.28 5.29,7.21 9.02,14.55 11.21,22.02 -0.6,-2.05 4.92,33.73 16.85,107.25l27.21 -6.51c11.75,-2.8 19.14,1.25 22.35,12.24zm-84.99 73.99c-1.03,-3.52 -2.44,-5.65 -4.34,-6.69 -12.66,12.77 -24.9,35.12 -36.25,67.08 -11.66,33.63 -15.29,58.24 -10.66,74.07 2.52,8.65 7.58,11.79 15.05,9.6 7.04,-2.05 15.03,-10.11 23.63,-24.24 8.64,-13.98 13.17,-25.17 13.52,-33.23 1.01,-17.79 1.44,-34.3 0.99,-49.45 -0.31,-21.22 -0.95,-33.77 -1.94,-37.14zm238.98 -443.38c0.09,2.51 -0.08,8.45 -0.38,17.77 -3.66,4.89 -7.51,11.89 -11.63,21.21 -9.51,58.95 -13.47,91.13 -11.97,96.26l1.24 4.25c2.27,1.25 7.08,0.8 14.55,-1.39 2.35,-0.68 5.93,-2.04 10.59,-4.04 4.67,-2 8.25,-3.37 10.45,-4.01 11.58,-3.38 18.75,-0.07 21.62,9.75 3.47,11.88 -8.45,21.72 -35.72,29.69 -1.17,0.34 -1.7,0.18 -1.76,-0.6 -0.03,-0.63 -0.56,-0.79 -1.73,-0.45 -6.3,1.84 -13.29,5.16 -21,9.8 -4.66,17.27 -9.14,51.51 -13.43,102.72 -5.21,60.07 -6.84,93.17 -5,99.47 1.59,5.43 4.85,7.34 9.69,5.92 10.85,-3.17 43.52,-44.37 98.16,-123.66 6.01,-1.75 9.76,0.17 11.43,5.89 2.01,6.89 -4.6,23.46 -19.91,50.05 -9.3,16.08 -18.09,30.11 -26.37,42.07 -11,16.26 -27.87,40.76 -50.36,73.26 -17.93,25.76 -32.93,40.33 -44.95,43.84 -10.85,3.17 -17.83,-0.04 -20.66,-9.72 -2.01,-6.89 -2.47,-34.6 -1.33,-82.98 1.25,-56.21 4.41,-117.28 9.31,-183.31l-1.11 -3.81c-3.01,-1.03 -7.08,-0.79 -12.36,0.75 -4.54,1.33 -11.79,3.76 -21.58,7.26 -22.53,7.85 -39.61,13.63 -51.4,17.4 -2.8,-1.41 -4.66,-3.41 -5.52,-6.35 -3.51,-12.02 9.24,-24.49 38.13,-37.23 19.01,-6.82 38.31,-13.73 57.68,-20.98 4.64,-38.59 13.77,-93.92 27.59,-165.89 0.75,-4.52 4.55,-7.86 11,-9.74 7.48,-2.18 14.95,-1.66 22.37,1.42 7.42,3.08 12.26,8.19 14.36,15.38z"/>
  </g>
 </g>
</svg>
