<?xml version="1.0" encoding="UTF-8"?>
<!DOCTYPE svg PUBLIC "-//W3C//DTD SVG 1.1//EN" "http://www.w3.org/Graphics/SVG/1.1/DTD/svg11.dtd">
<!-- Creator: CorelDRAW 2017 -->
<svg xmlns="http://www.w3.org/2000/svg" xml:space="preserve" width="50.7998mm" height="33.8666mm" version="1.1" style="shape-rendering:geometricPrecision; text-rendering:geometricPrecision; image-rendering:optimizeQuality; fill-rule:evenodd; clip-rule:evenodd"
viewBox="0 0 5079.98 3386.66"
 xmlns:xlink="http://www.w3.org/1999/xlink">
 <defs>
  <style type="text/css">
   <![CDATA[
    .fil6 {fill:#FEFEFE;fill-rule:nonzero}
    .fil7 {fill:#848688;fill-rule:nonzero}
    .fil1 {fill:#FFDD2F;fill-rule:nonzero}
    .fil2 {fill:#EF4B43;fill-rule:nonzero}
    .fil3 {fill:#EE423B;fill-rule:nonzero}
    .fil5 {fill:#F8E4B7;fill-rule:nonzero}
    .fil0 {fill:#307ABD;fill-rule:nonzero}
    .fil4 {fill:#2A7171;fill-rule:nonzero}
   ]]>
  </style>
 </defs>
<symbol id="Fm2-18-0" viewBox="18079 76.8 1037.59 1037.59">
 <path class="fil0" d="M19116.59 595.59c0,286.53 -232.27,518.8 -518.79,518.8 -286.53,0 -518.8,-232.27 -518.8,-518.8 0,-286.52 232.27,-518.79 518.8,-518.79 286.52,0 518.79,232.27 518.79,518.79z"/>
</symbol>
<symbol id="Fm0-61-0" viewBox="-1016.3 -22451.33 23455.42 23211.09">
 <image x="-1016.3" y="-22457.9" width="23462.06" height="23217.66" xlink:href="te has encontrado con un snarlax no puedes pasar_Images\te has encontrado con un snarlax no puedes pasar_ImgID1.png"/>
</symbol>
<symbol id="Fm0-38-0" viewBox="28520.03 -18676.87 1037.59 1037.58">
 <path class="fil0" d="M29557.62 -18158.09c0,286.53 -232.26,518.8 -518.79,518.8 -286.53,0 -518.8,-232.27 -518.8,-518.8 0,-286.26 231.84,-518.35 518.01,-518.78l1.58 0c286.17,0.43 518,232.52 518,518.78z"/>
</symbol>
<symbol id="Fm0-6-0" viewBox="3655.85 -22550.26 26543.96 24525.81">
 <path class="fil1" d="M30199.81 -22550.26c-254.74,487.75 -509.52,975.46 -764.16,1463.25 -12.1,23.17 -23.74,45.33 -54.53,47.55 -156.5,11.26 -312.92,22.97 -469.9,34.57 -4.03,-28.04 13.3,-46.46 23.31,-66.64 101.67,-204.43 204.26,-408.37 306.29,-612.59 9.41,-18.84 23.35,-36.13 23.17,-58.81 1.45,-0.64 3.14,-0.99 4.27,-1.98 0.67,-0.56 0.5,-2.11 0.71,-3.21 -1.52,1.84 -3.07,3.71 -4.62,5.54 -115.36,11.01 -222.89,53.87 -333.03,84.81 -991.9,278.62 -1983.17,559.47 -2974.51,840.07 -802.89,227.26 -1605.56,455.43 -2408.52,682.52 -888.97,251.42 -1778.14,502.03 -2667.21,753.11 -65.55,18.52 -130.88,37.78 -196.25,56.97 -33.09,9.7 -53.63,9.63 -61.56,-35.38 -26.29,-148.63 -56.17,-296.72 -88.9,-444.08 -10.09,-45.37 -0.18,-63.29 44.8,-75.49 363.54,-98.75 726.65,-199.22 1089.66,-300.04 576.3,-160.02 1152.38,-320.85 1728.65,-481.16 604.94,-168.27 1209.95,-336.3 1814.93,-504.4 631.65,-175.5 1263.3,-350.98 1894.95,-526.48 643.96,-178.9 1287.85,-357.97 1931.84,-536.75 373.28,-103.61 746.66,-206.73 1119.9,-310.38 5.61,-1.55 10.09,-7.23 15.06,-11l25.65 0z"/>
 <path class="fil1" d="M3655.85 -22473.37c756.47,220.1 1512.89,440.38 2269.46,660.23 821.94,238.9 1644.12,476.99 2465.99,716.17 731.94,213.01 1463.53,427.25 2195.4,640.58 611.23,178.15 1222.45,356.23 1834.17,532.62 46.07,13.3 59.3,27.2 36.93,73.59 -30.51,63.22 -55.95,129.15 -79.62,195.3 -16.76,46.81 -41.56,61.52 -91.26,47.9 -410.6,-112.5 -821.66,-223.27 -1232.61,-334.46 -521.9,-141.26 -1043.8,-282.4 -1565.7,-423.62 -661.63,-179.03 -1323.27,-358.03 -1984.9,-537.07 -1062.29,-287.44 -2124.54,-574.92 -3186.82,-862.26 -6,-1.62 -12.45,-1.48 -30.09,-3.39 33.02,89.4 63.6,173.82 95.28,257.81 87.17,231.36 173.82,462.88 263,693.46 18.41,47.59 -1.8,53.23 -38.98,46.99 -121.61,-20.36 -242.75,-43.71 -364.67,-61.91 -39.23,-5.86 -38.73,-34.75 -46.99,-58.92 -157.69,-461.92 -314.36,-924.2 -472.62,-1385.92 -19.79,-57.82 -33.33,-118.43 -65.97,-171.45l0 -25.65z"/>
 <path class="fil1" d="M16797.78 -12146.81c2.65,0.14 5.29,0.31 7.9,0.46 14.01,-161.19 27.56,-322.44 42.06,-483.59 36.83,-410 74.54,-819.96 111.02,-1230.03 31.96,-359.06 62.15,-718.29 94.19,-1077.39 36.16,-405.8 73.41,-811.49 110.38,-1217.18 2.61,-28.37 -0.25,-53.06 -18.56,-77.93 -112.6,-152.93 -224.43,-306.46 -334.32,-461.37 -24.38,-34.39 -36.02,-36.3 -61.74,-0.84 -116.52,160.65 -235.13,319.83 -354.54,478.36 -20.11,26.71 -21.66,51.97 -18.27,83.19 37.5,345.62 73.59,691.34 110.03,1037.06 31.75,301.17 63.32,602.37 95.21,903.53 36.41,343.57 73.17,687.11 109.57,1030.68 35.85,338.35 71.41,676.7 107.07,1015.05zm-1155.27 -6138.16c-34.4,-158.47 -88.97,-311.11 -135.68,-465.91 -288.75,-956.88 -579.33,-1913.19 -869.21,-2869.71 -4.83,-15.94 -8.5,-32.24 -14.85,-56.58 29.59,12.98 38.2,34.92 50.51,51.85 664.85,912.64 1329.31,1825.56 1993.83,2738.44 6.25,8.64 13.48,16.76 18.6,26.04 26.42,48.15 45.93,52.7 81.63,1.87 566.81,-806.88 1135.91,-1612.13 1703.56,-2418.4 163.27,-231.92 323.57,-465.95 485.21,-699 3.39,2.86 6.81,5.72 10.2,8.58 -102.45,323 -204.12,646.29 -307.48,969.04 -278.94,870.87 -558.59,1741.52 -837.85,2612.29 -4.97,15.55 -8.26,31.68 -15.45,59.69 280.24,-108.24 551.28,-212.91 834.56,-322.3 -33.9,137.83 -65.12,264.97 -96.45,392.04 -19.89,80.72 -37.04,162.28 -61.06,241.76 -16.02,53.02 -4.66,63.43 47.69,50.2 229.38,-58.07 459.25,-114.05 689.01,-170.5 337.15,-82.8 674.37,-165.38 1016.22,-249.2 -16.06,30.16 -41.95,41.49 -63.01,57.29 -652.22,489.69 -1304.33,979.56 -1958.2,1467.1 -48.54,36.19 -44.38,52.7 -5.01,92.25 404,405.48 806.91,812.09 1202.02,1226.33 24.52,25.71 47.17,53.16 64.21,92.56 -135.33,-23 -271.08,-43.67 -405.87,-69.39 -381.11,-72.78 -761.93,-147.04 -1142.51,-222.39 -43.78,-8.68 -53.16,5.5 -59.44,46.25 -32.67,212.62 -69.04,424.67 -105.77,646.75 -171.41,-124.53 -337.78,-245.43 -504.19,-366.29 -5.43,-3.14 -10.83,-6.25 -16.26,-9.35 -2.08,-3 -4.2,-6.03 -6.31,-9.03 -0.81,1.87 -1.63,3.7 -2.44,5.54 3.32,0.84 6.63,1.69 9.92,2.54 -5.65,7.9 -0.92,13.86 3.77,19.82 185.95,298.98 371.9,597.96 557.92,896.91 26.99,43.35 54.22,86.53 83.99,133.98 25.69,-25.15 24.66,-56.27 31.86,-82.73 75.71,-277.63 151.31,-555.3 223.84,-833.75 13.02,-49.88 29.67,-63.85 82.87,-51.72 756.46,172.76 1513.48,343.11 2270.33,514.14 16.48,3.74 32.56,10.2 50.27,3.28 0.46,-25.33 -21.3,-35.7 -35.27,-50.16 -603.85,-625.41 -1207.49,-1250.99 -1813.32,-1874.45 -44.06,-45.41 -34.64,-60.29 12.42,-90.38 850.48,-544.06 1699.89,-1089.7 2549.7,-1634.81 15.74,-10.06 29.63,-25.01 56.59,-24.17 -25.72,123.76 -51.58,246.17 -76.49,368.8 -17.39,85.79 -16.82,85.83 64.14,59.48 616.27,-200.52 1232.53,-400.94 1848.8,-601.42 1607.58,-522.99 3215.11,-1046.02 4822.69,-1568.91 19.89,-6.45 40.28,-11.43 67.91,-5.04 -1974.33,1445.96 -3948.61,2891.96 -5934.19,4346.22 919.56,17.74 1824.68,35.24 2729.8,52.74l2.93 12.66c-1397.39,590.2 -2794.78,1180.43 -4204.51,1775.85 250.57,160.41 492.37,315.24 733.88,469.9 0.56,21.27 -17.71,22.97 -28.93,29.42 -1491.4,852.17 -2983.16,1703.74 -4474.03,2556.94 -42.34,24.23 -70.13,10.58 -104.53,-8.72 -722.21,-404.67 -1444.8,-808.74 -2167.08,-1213.27 -767.01,-429.54 -1533.77,-859.44 -2300.67,-1289.19 -7.45,-4.16 -14.64,-8.96 -22.48,-12.21 -49.38,-20.6 -36.72,-38.17 0.36,-60.32 172.15,-102.94 343.53,-207.22 515.23,-310.94 116.7,-70.52 233.43,-140.97 363.11,-219.29 -1558.64,-574.57 -3105.15,-1144.62 -4651.62,-1714.71 0.85,-3.7 1.69,-7.37 2.54,-11.08 905.12,-32.45 1810.24,-64.87 2720.38,-97.5 -8.93,-26.85 -31.33,-36.13 -48.72,-49.01 -668.34,-496.74 -1348.32,-977.37 -2028.33,-1457.85 -1342.53,-948.65 -2687.04,-1894.52 -4030.63,-2841.73 -13.62,-9.6 -25.51,-21.63 -38.21,-32.53l-1.09 0.89c29.39,-8.51 54.54,7.51 80.19,15.8 2340.54,756.21 4680.83,1513.03 7021.26,2269.45 31.86,10.31 74.33,39.8 94.83,20.71 26.6,-24.8 -5.05,-67.27 -12.84,-101.46 -18.91,-82.62 -41.24,-164.43 -62.48,-247.65 28.19,-6.24 40.82,10.94 55.56,20.43 809.56,520.52 1618.65,1041.82 2428.84,1561.43 44.98,28.82 43.57,44.73 9.35,82.37 -535.69,589.49 -1069.83,1180.4 -1604.29,1771.02 -5.57,6.14 -10.51,12.8 -25.37,31.04 129.76,-25.71 246.88,-48.65 363.89,-72.14 626.96,-125.84 1254.02,-251.28 1880.63,-378.88 48.61,-9.92 64.8,2.64 77.15,48.68 74.61,277.88 152.26,554.92 228.99,832.24 4.51,16.37 9.66,32.56 14.53,48.86 21.17,0.39 23.18,-17.47 29.92,-28.54 188.7,-309.85 376.91,-619.94 565.04,-930.07 5.47,-9.03 9,-19.26 13.37,-28.92 3.64,-4.91 8.05,-10.3 -0.14,-14.4 -1.52,-0.77 -5.82,4.06 -8.82,6.28 -158.82,61.49 -318.38,121.22 -476,185.67 -43.39,17.74 -60.08,14.64 -75.11,-32.84 -41.03,-130 -89.14,-257.74 -131.97,-387.21 -11.57,-34.93 -25.19,-43.43 -63.75,-37.36 -446.37,70.27 -893.2,137.83 -1339.92,205.84 -23.04,3.53 -46.39,4.7 -85.34,8.51 48.23,-52.67 86.79,-96.1 126.79,-138.22 352.78,-371.62 705.21,-743.55 1059.61,-1113.58 38.87,-40.61 46.39,-59.62 -4.84,-98.53 -678.11,-515.13 -1354.28,-1032.76 -2030.87,-1549.9 -18.03,-13.79 -35.14,-28.82 -64.03,-52.67 80.93,5.01 142.42,27.77 204.86,43.33 510.68,127.1 1020.97,255.87 1531.37,384.14 78.21,19.65 78.5,19.22 58.32,-56.31 -48.37,-181.15 -96.73,-362.34 -144.78,-543.56 -3.64,-13.69 -14.64,-26.99 -1.48,-48.22 45.33,19.33 91.65,38.59 137.61,58.73 220.63,96.6 441.12,193.54 661.85,289.95 15.35,6.71 32.1,10.13 48.19,15.07 2.33,2.29 6.24,6.84 6.67,6.56 6.7,-4.83 3.95,-8.43 -2.15,-11.15z"/>
 <path class="fil1" d="M25443.45 -14572.65c-560.71,1067.61 -1118.02,2128.76 -1675.34,3189.92l9.03 14.78c283.84,-91.02 567.72,-182.07 862.43,-276.58 -35.13,96.2 -89.04,169.97 -133.77,247.79 -278.45,484.58 -559.47,967.67 -839.65,1451.26 -402.06,694.02 -804.51,1387.79 -1206.11,2082.06 -496.6,858.63 -992.11,1717.92 -1488.83,2576.51 -447.56,773.68 -896.55,1546.51 -1344.08,2320.15 -513.75,888.19 -1026.12,1777.12 -1539.98,2665.24 -412.33,712.71 -825.99,1424.66 -1238.99,2136.95 -20.32,35.07 -42.55,69.32 -59.48,106.01 -24.45,52.81 -42.9,37.75 -65.33,-0.88 -154.34,-265.57 -309.07,-530.93 -463.94,-796.22 -215.05,-368.48 -430.39,-736.74 -645.48,-1105.19 -292.49,-501.08 -584.66,-1002.38 -877.29,-1503.39 -240.94,-412.61 -482.49,-824.87 -723.44,-1237.48 -293.69,-502.88 -586.84,-1006.05 -880.6,-1508.86 -271.15,-464.15 -543.03,-927.84 -814.14,-1392.03 -292.63,-501.01 -584.52,-1002.45 -877.15,-1503.47 -271.07,-464.18 -542.92,-927.94 -814.03,-1392.09 -292.63,-501.02 -584.63,-1002.39 -877.22,-1503.44 -240.95,-412.61 -482.42,-824.9 -723.58,-1237.4 -54.93,-93.91 -109.68,-187.92 -163.87,-282.26 -6.07,-10.58 -14.53,-26.7 -10.62,-34.64 8.72,-17.57 25.51,-4.94 39.23,-2.26 266.84,52.25 533.72,104.42 810.79,158.61 -11.78,-26.17 -20.04,-46.42 -29.77,-65.93 -508.36,-1017.91 -1017.03,-2035.67 -1524.18,-3054.21 -12.31,-24.73 -61.03,-57.05 0.85,-87.1 100.57,-48.83 123.12,-48.3 156.38,9.38 332.35,576.62 665.2,1152.95 997.52,1729.56 347.24,602.55 693.63,1205.55 1041.22,1807.85 340.11,589.39 681.64,1177.92 1021.86,1767.28 330.58,572.69 659.83,1146.17 990.46,1718.91 277.24,480.3 555.9,959.83 833.33,1440.07 275.31,476.57 549.52,953.73 824.79,1430.3 425.66,737.02 852.1,1473.62 1277.66,2210.72 468.24,811 935.88,1622.32 1403.7,2433.57 30.94,53.65 35.21,53.86 67.7,-1.84 467.36,-801.62 934.26,-1603.48 1402.01,-2404.88 408.58,-700.06 818.44,-1399.4 1227.13,-2099.46 479.68,-821.58 958.61,-1643.62 1438,-2465.42 388.02,-665.16 776.32,-1330.18 1164.31,-1995.35 479.39,-821.76 958.46,-1643.69 1437.88,-2465.42 369.82,-633.76 740.2,-1267.25 1109.88,-1901.08 218.15,-374.05 435.99,-748.31 652.42,-1123.35 20.82,-36.09 44.28,-52.07 86.01,-51.01 50.66,1.34 100.68,-18.81 162.28,-5.68z"/>
 <path class="fil1" d="M21087.73 -9116.63c-210.29,-19.26 -420.61,-38.2 -630.83,-57.89 -297.47,-27.83 -594.82,-56.23 -892.25,-84.35 -135.96,-12.84 -272.1,-24.02 -407.85,-38.91 -57.25,-6.31 -64.45,8.15 -42.82,60.4 234.88,567.4 467.85,1135.59 701.18,1703.63 10.23,24.91 18.91,50.48 34.5,92.32 -666.75,-412.01 -1318.93,-815.02 -1977.18,-1221.74 -338.42,1231.06 -674.93,2455.09 -1011.48,3679.16 -4.2,-0.04 -8.4,-0.04 -12.63,-0.04 -52.46,-176.07 -105.13,-352.14 -157.41,-528.28 -299.19,-1007.43 -598.28,-2014.89 -897.4,-3022.32 -22.43,-75.57 -22.54,-75.71 -92.53,-36.27 -624.7,351.72 -1249.36,703.58 -1874.27,1054.95 -25.05,14.08 -48.02,34.15 -90.17,38.56 292.17,-625.23 581.23,-1243.82 876.65,-1876 -654.79,102.83 -1296,203.52 -1938.2,304.37 -0.88,-25.25 16.97,-27.9 28.26,-35.2 1012.97,-654.44 2026.39,-1308.21 3038.44,-1964.02 49.07,-31.82 82.65,-29.85 131.34,-1.63 299.05,173.36 600.6,342.34 900,515.1 36.91,21.27 63.29,19.65 99.1,-0.08 319.58,-176 640.47,-349.67 960.05,-525.63 36.02,-19.83 62.51,-20.61 98.85,1.58 1041.61,636.63 2084.03,1271.94 3126.24,1907.51 12.07,7.34 23.64,15.45 35.42,23.18 -1.66,3.88 -3.35,7.72 -5.01,11.6z"/>
 <path class="fil1" d="M18956.12 -21976.38c3.88,-5.64 7.76,-11.32 11.64,-16.96 8.26,9.03 3.46,17.28 -1.48,25.54 -3.35,-2.86 -6.77,-5.72 -10.16,-8.58z"/>
 <path class="fil1" d="M5078.96 -20320.37c-3.21,-1.9 -6.45,-3.84 -9.66,-5.75 7.79,-4.2 10.79,-2.11 8.57,6.64 0,0 1.09,-0.89 1.09,-0.89z"/>
 <path class="fil1" d="M15642.51 -18284.99c6.11,2.72 8.86,6.32 2.15,11.15 -0.42,0.32 -4.33,-4.27 -6.66,-6.56 1.48,-1.52 3,-3.07 4.51,-4.59z"/>
 <path class="fil1" d="M17242.65 -15424.62l-9.91 -2.54c0.81,-1.84 1.62,-3.67 2.43,-5.51 2.08,3 4.2,6 6.32,9l1.16 -0.95z"/>
 <path class="fil1" d="M16227.47 -15413.21c3.03,-2.26 7.34,-7.06 8.85,-6.28 8.15,4.09 3.78,9.49 0.14,14.39 -3.24,-2.36 -6.28,-5.08 -8.99,-8.11z"/>
 <path class="fil1" d="M17241.49 -15423.67c5.39,3.1 10.83,6.24 16.22,9.35 -3.74,3.17 -7.48,6.35 -11.25,9.52 -4.73,-5.96 -9.49,-11.89 -3.81,-19.82 0,0 -1.16,0.95 -1.16,0.95z"/>
</symbol>
<symbol id="Fm1-16-0" viewBox="-20110.46 -22550.26 25121.93 11561.24">
 <path class="fil1" d="M5011.47 -22550.26c-254.74,487.75 -509.51,975.46 -764.15,1463.25 -12.1,23.17 -23.74,45.33 -54.54,47.55 -156.49,11.26 -312.91,22.97 -469.9,34.57 -4.02,-28.04 13.3,-46.46 23.32,-66.64 101.67,-204.43 204.26,-408.37 306.28,-612.59 9.42,-18.84 23.36,-36.13 23.18,-58.81 1.45,-0.64 3.14,-0.99 4.27,-1.98 0.67,-0.56 0.49,-2.11 0.7,-3.21 -1.51,1.84 -3.07,3.71 -4.62,5.54 -115.36,11.01 -222.88,53.87 -333.02,84.81 -991.9,278.62 -1983.18,559.47 -2974.52,840.07 -802.88,227.26 -1605.56,455.43 -2408.52,682.52 -888.96,251.42 -1778.14,502.03 -2667.21,753.11 -65.54,18.52 -130.88,37.78 -196.25,56.97 -33.09,9.7 -53.62,9.63 -61.56,-35.38 -26.28,-148.63 -56.16,-296.72 -88.9,-444.08 -10.09,-45.37 -0.17,-63.29 44.81,-75.49 363.53,-98.75 726.65,-199.22 1089.66,-300.04 576.29,-160.02 1152.38,-320.85 1728.64,-481.16 604.95,-168.27 1209.96,-336.3 1814.94,-504.4 631.65,-175.5 1263.29,-350.98 1894.94,-526.48 643.96,-178.9 1287.85,-357.97 1931.85,-536.75 373.27,-103.61 746.65,-206.73 1119.89,-310.38 5.61,-1.55 10.09,-7.23 15.07,-11l25.64 0z"/>
 <path class="fil1" d="M-8390.55 -12146.81c2.65,0.14 5.29,0.31 7.9,0.46 14.01,-161.19 27.55,-322.44 42.05,-483.59 36.83,-410 74.54,-819.96 111.02,-1230.03 31.96,-359.06 62.16,-718.29 94.19,-1077.39 36.16,-405.8 73.42,-811.49 110.39,-1217.18 2.61,-28.37 -0.25,-53.06 -18.56,-77.93 -112.61,-152.93 -224.44,-306.46 -334.33,-461.37 -24.37,-34.39 -36.01,-36.3 -61.73,-0.84 -116.52,160.65 -235.13,319.83 -354.54,478.36 -20.11,26.71 -21.66,51.97 -18.28,83.19 37.5,345.62 73.59,691.34 110.03,1037.06 31.75,301.17 63.33,602.37 95.22,903.53 36.41,343.57 73.16,687.11 109.57,1030.68 35.84,338.35 71.4,676.7 107.07,1015.05zm-1155.28 -6138.16c-34.39,-158.47 -88.97,-311.11 -135.68,-465.91 -288.74,-956.88 -579.33,-1913.19 -869.2,-2869.71 -4.84,-15.94 -8.51,-32.24 -14.86,-56.58 29.6,12.98 38.21,34.92 50.52,51.85 664.85,912.64 1329.3,1825.56 1993.83,2738.44 6.24,8.64 13.48,16.76 18.59,26.04 26.42,48.15 45.93,52.7 81.63,1.87 566.81,-806.88 1135.91,-1612.13 1703.57,-2418.4 163.26,-231.92 323.57,-465.95 485.21,-699 3.39,2.86 6.81,5.72 10.19,8.58 -102.44,323 -204.11,646.29 -307.48,969.04 -278.94,870.87 -558.59,1741.52 -837.84,2612.29 -4.98,15.55 -8.26,31.68 -15.46,59.69 280.25,-108.24 551.29,-212.91 834.57,-322.3 -33.9,137.83 -65.12,264.97 -96.45,392.04 -19.9,80.72 -37.04,162.28 -61.06,241.76 -16.02,53.02 -4.66,63.43 47.69,50.2 229.38,-58.07 459.25,-114.05 689.01,-170.5 337.15,-82.8 674.37,-165.38 1016.21,-249.2 -16.05,30.16 -41.94,41.49 -63,57.29 -652.22,489.69 -1304.33,979.56 -1958.2,1467.1 -48.54,36.19 -44.38,52.7 -5.01,92.25 404,405.48 806.91,812.09 1202.02,1226.33 24.52,25.71 47.16,53.16 64.2,92.56 -135.32,-23 -271.07,-43.67 -405.87,-69.39 -381.1,-72.78 -761.93,-147.04 -1142.5,-222.39 -43.78,-8.68 -53.17,5.5 -59.45,46.25 -32.66,212.62 -69.03,424.67 -105.76,646.75 -171.41,-124.53 -337.78,-245.43 -504.19,-366.29 -5.43,-3.14 -10.83,-6.25 -16.26,-9.35 -2.08,-3 -4.2,-6.03 -6.32,-9.03 -0.81,1.87 -1.62,3.7 -2.43,5.54 3.32,0.84 6.63,1.69 9.91,2.54 -5.64,7.9 -0.92,13.86 3.78,19.82 185.95,298.98 371.9,597.96 557.91,896.91 26.99,43.35 54.23,86.53 84,133.98 25.68,-25.15 24.66,-56.27 31.86,-82.73 75.7,-277.63 151.3,-555.3 223.83,-833.75 13.02,-49.88 29.67,-63.85 82.87,-51.72 756.46,172.76 1513.49,343.11 2270.34,514.14 16.47,3.74 32.56,10.2 50.27,3.28 0.46,-25.33 -21.31,-35.7 -35.28,-50.16 -603.85,-625.41 -1207.49,-1250.99 -1813.31,-1874.45 -44.06,-45.41 -34.64,-60.29 12.42,-90.38 850.47,-544.06 1699.89,-1089.7 2549.7,-1634.81 15.73,-10.06 29.63,-25.01 56.58,-24.17 -25.71,123.76 -51.57,246.17 -76.48,368.8 -17.39,85.79 -16.83,85.83 64.14,59.48 616.26,-200.52 1232.53,-400.94 1848.8,-601.42 1607.57,-522.99 3215.11,-1046.02 4822.68,-1568.91 19.9,-6.45 40.29,-11.43 67.91,-5.04 -1974.32,1445.96 -3948.6,2891.96 -5934.18,4346.22 919.55,17.74 1824.67,35.24 2729.8,52.74 0.95,4.23 1.94,8.43 2.92,12.66 -1397.38,590.2 -2794.77,1180.43 -4204.51,1775.85 250.58,160.41 492.37,315.24 733.89,469.9 0.56,21.27 -17.71,22.97 -28.93,29.42 -1491.4,852.17 -2983.16,1703.74 -4474.04,2556.94 -42.33,24.23 -70.13,10.58 -104.52,-8.72 -722.21,-404.67 -1444.8,-808.74 -2167.08,-1213.27 -767.01,-429.54 -1533.77,-859.44 -2300.68,-1289.19 -7.44,-4.16 -14.64,-8.96 -22.47,-12.21 -49.39,-20.6 -36.72,-38.17 0.35,-60.32 172.16,-102.94 343.54,-207.22 515.24,-310.94 116.69,-70.52 233.43,-140.97 363.11,-219.29 -1558.64,-574.57 -3105.15,-1144.62 -4651.62,-1714.71 0.84,-3.7 1.69,-7.37 2.54,-11.08 905.12,-32.45 1810.24,-64.87 2720.37,-97.5 -8.92,-26.85 -31.32,-36.13 -48.72,-49.01 -668.33,-496.74 -1348.31,-977.37 -2028.33,-1457.85 -1342.53,-948.65 -2687.03,-1894.52 -4030.62,-2841.73 -13.62,-9.6 -25.51,-21.63 -38.21,-32.53l-1.09 0.89c29.38,-8.51 54.54,7.51 80.18,15.8 2340.54,756.21 4680.83,1513.03 7021.27,2269.45 31.85,10.31 74.33,39.8 94.83,20.71 26.59,-24.8 -5.05,-67.27 -12.85,-101.46 -18.9,-82.62 -41.24,-164.43 -62.47,-247.65 28.18,-6.24 40.81,10.94 55.56,20.43 809.55,520.52 1618.65,1041.82 2428.84,1561.43 44.98,28.82 43.57,44.73 9.35,82.37 -535.7,589.49 -1069.84,1180.4 -1604.29,1771.02 -5.58,6.14 -10.52,12.8 -25.37,31.04 129.75,-25.71 246.87,-48.65 363.89,-72.14 626.96,-125.84 1254.02,-251.28 1880.62,-378.88 48.62,-9.92 64.81,2.64 77.16,48.68 74.61,277.88 152.26,554.92 228.98,832.24 4.52,16.37 9.67,32.56 14.54,48.86 21.17,0.39 23.18,-17.47 29.91,-28.54 188.71,-309.85 376.91,-619.94 565.05,-930.07 5.47,-9.03 8.99,-19.26 13.37,-28.92 3.63,-4.91 8.04,-10.3 -0.14,-14.4 -1.52,-0.77 -5.82,4.06 -8.82,6.28 -158.82,61.49 -318.38,121.22 -476,185.67 -43.4,17.74 -60.08,14.64 -75.11,-32.84 -41.03,-130 -89.15,-257.74 -131.97,-387.21 -11.58,-34.93 -25.19,-43.43 -63.75,-37.36 -446.37,70.27 -893.2,137.83 -1339.92,205.84 -23.04,3.53 -46.39,4.7 -85.34,8.51 48.23,-52.67 86.78,-96.1 126.79,-138.22 352.78,-371.62 705.2,-743.55 1059.6,-1113.58 38.88,-40.61 46.39,-59.62 -4.83,-98.53 -678.11,-515.13 -1354.28,-1032.76 -2030.87,-1549.9 -18.03,-13.79 -35.14,-28.82 -64.03,-52.67 80.93,5.01 142.42,27.77 204.86,43.33 510.68,127.1 1020.97,255.87 1531.37,384.14 78.21,19.65 78.49,19.22 58.31,-56.31 -48.36,-181.15 -96.73,-362.34 -144.78,-543.56 -3.63,-13.69 -14.64,-26.99 -1.48,-48.22 45.33,19.33 91.65,38.59 137.62,58.73 220.63,96.6 441.11,193.54 661.85,289.95 15.34,6.71 32.1,10.13 48.19,15.07 2.33,2.29 6.24,6.84 6.66,6.56 6.71,-4.83 3.96,-8.43 -2.15,-11.15z"/>
</symbol>
<symbol id="Fm0-14-0" viewBox="-932.16 -22246.01 23557.89 23092.68">
 <path class="fil2" d="M-932.16 -9673.67c83.47,81.11 139.56,182.78 205.1,276.97 242.5,348.54 469.37,707.95 729.44,1044.19 140.23,181.32 287.41,356.65 453.46,515.33 10.76,10.27 18.7,25.69 43.57,25.23 -28.68,-110.21 -57.08,-218.87 -85.12,-327.56 -125.91,-487.92 -217.6,-982.52 -292.42,-1480.61 -55.56,-369.64 -88.73,-740.55 -81.39,-1114.67 1.34,-68.3 -20.18,-136.13 0.67,-205.24 11.54,-38.24 33.97,-61.53 69.15,-74.72 132.92,-49.92 295.27,49.07 307.58,189.4 18.21,207.68 25.02,416.04 51.19,623.4 75.92,601.03 162.07,1199.34 332.42,1783.11 197.52,676.91 464.82,1324.86 791.81,1948.39 247.51,471.99 549.81,908.65 877.12,1328.46 202.31,259.47 412.18,512.83 630.34,758.9 162.42,183.19 345.23,346.64 530.33,506.94 199.88,173.07 389.82,358.53 605.72,511.91 496.71,352.99 1005.27,688.13 1535.75,988.87 73.76,41.81 101.21,95.96 78.91,192.23 -43.99,190.15 -92.81,379.2 -138.74,568.93 -13.97,57.68 -49.89,80.11 -107.14,76.23 -56.48,-3.84 -109.58,-21.41 -159.32,-45.36 -466.97,-224.72 -935.25,-449.76 -1369.34,-733.04 -528.64,-345.02 -1038.97,-717.9 -1526.12,-1120.07 -376.16,-310.59 -710.84,-664.21 -1037.41,-1026.72 -407.21,-452.02 -719.67,-964.15 -999.21,-1499.87 -357.29,-684.78 -659.45,-1393.97 -938.46,-2113.46 -180.73,-466.06 -350.41,-936.1 -499.57,-1413.37 -1.2,-3.88 -5.46,-6.77 -8.32,-10.12l0 -173.68z"/>
 <path class="fil3" d="M11197.86 -12042.6c0.11,-96.8 -30.23,-146.12 -112.29,-203.41 -45.29,-31.65 -95.71,-56.62 -131.02,-101.29 -64.84,-81.98 -142.1,-84.95 -210.57,-5.32 -35.14,40.85 -73.7,76.8 -117.65,107.52 -98.64,68.97 -133.28,158.93 -99.7,277.64 27.55,97.37 49.39,196.6 69.15,295.94 64.03,322.48 125.8,645.34 188.8,967.99 5.47,27.94 9.21,54.47 50.7,56.31 39.37,1.72 48.12,-18.84 57.25,-48.41 25.33,-82.02 55.5,-162.63 78.28,-245.32 71.65,-259.89 106.44,-527.4 160.62,-790.93 22.62,-110.03 46.92,-219.74 66.43,-310.72zm7240.31 926.53c-54.19,2.58 -104.04,-19.58 -156.35,-28.04 -262.82,-42.51 -503.1,20.18 -728.77,152.29 -163.73,95.82 -311.93,213.47 -459.07,332.28 -56.27,45.41 -97.37,103.08 -126.05,169.8 -116.38,270.75 -323.88,394.47 -616.51,386.25 -146.48,-4.13 -293.16,7.52 -438.01,-29.7 -65.3,-16.76 -128.73,7.19 -181.82,47.41 -42.41,32.07 -81,69.39 -119.6,106.15 -38.73,36.87 -77.64,72.99 -121.21,104.46 -24.13,17.43 -66.29,13.02 -72.99,49.56 -8.01,43.78 -5.47,88.83 11.96,131.2 29.88,72.5 97.26,103.01 181.61,83.15 62.65,-14.74 124.71,-34.36 188.24,-42.61 116.95,-15.21 235.27,-26.25 351.33,6.38 158.15,44.49 243.7,166.13 303.6,306.04 33.09,77.26 -19.51,152.36 -105.44,164.14 -59.27,8.12 -119.84,6 -179.64,10.69 -129.11,10.13 -182.24,71.26 -175.68,200.45 0.92,17.71 3.25,35.46 6,52.99 27.55,175.36 -67.67,315.66 -243.95,332.07 -230.33,21.41 -398.99,136.95 -537,311.5 -73.13,92.5 -144.11,186.8 -236.36,262.36 -153.63,125.91 -321.94,151.06 -505.63,77.05 -107.99,-43.53 -206.94,-102.52 -297.47,-175.61 -15.59,-12.6 -30.34,-26.25 -45.89,-38.84 -123.26,-99.91 -193.82,-80.19 -246.74,68.82 -35.7,100.65 -42.26,104.5 -150.46,87.39 -28.53,-4.52 -56.93,-9.81 -85.47,-14.29 -133.99,-20.89 -240.35,9.28 -336.98,120.08 -166.33,190.68 -370.34,210.26 -588.15,79.06 -98.95,-59.58 -195.22,-123.54 -302.86,-167.5 -175.61,-71.75 -349.92,-71.89 -524.79,3.46 -84.14,36.26 -160.55,85.44 -239.15,131.44 -534.03,312.53 -1069.8,318.67 -1603.55,0.53 -138.5,-82.55 -277.92,-158.96 -440.2,-181.32 -226.44,-31.23 -419.94,46.32 -594.53,183.23 -63.68,49.95 -130.99,92.64 -210.93,109.99 -183.37,39.83 -332.28,-25.11 -439.88,-169.68 -81.38,-109.36 -183.3,-130.39 -304.94,-114.37 -30.79,4.05 -60.96,12.56 -91.68,17.32 -103.12,15.91 -139.99,-12.07 -152.3,-114.27 -11.04,-91.44 -24.66,-101.03 -117.05,-83.85 -74.26,13.83 -136.63,51.15 -195.12,96.84 -91.44,71.43 -187.04,135.5 -298.38,173.07 -177.1,59.72 -337.04,27.97 -482.6,-86.57 -81.39,-64.03 -143.55,-145.28 -205.85,-226.7 -111.12,-145.13 -236.25,-273.54 -420.12,-323.6 -57.64,-15.73 -117.79,-21.98 -176.14,-35.52 -159.88,-37.08 -231.14,-141.33 -209.3,-302.69 2.68,-19.79 4.26,-39.86 4.83,-59.83 3.63,-131.9 -47.03,-193.71 -176.74,-213.29 -63.64,-9.59 -128.8,-11.5 -191.42,-25.29 -102.62,-22.62 -134.2,-85.16 -85.65,-177.56 126.92,-241.47 358.77,-402.27 677.82,-285.39 45.83,16.79 90.67,37.46 137.73,49.42 106.11,26.95 220.27,-57.11 229.44,-165.45 2.79,-33.02 -3.42,-61.84 -35.24,-79.98 -74.44,-42.33 -133.74,-103.11 -194.7,-161.64 -110.59,-106.11 -232.58,-144.99 -389.6,-109.54 -201.62,45.48 -407.85,27.52 -608.97,-17.88 -128.31,-28.93 -222.11,-102.66 -268.64,-233.82 -46.6,-131.45 -138.08,-233.37 -246.8,-317.47 -151.31,-116.98 -302.97,-234 -460.45,-342.37 -211.7,-145.73 -439.98,-183.66 -682.41,-76.66 -16.16,7.13 -33.45,14.71 -50.63,15.95 -35.91,2.54 -58.27,-19.65 -70.48,-50.7 -9.74,-24.8 1.73,-45.36 25.4,-54.01 223.24,-81.24 422.94,-217.48 654.61,-279.19 154.31,-41.06 303.89,-29.1 449.94,33.8 53.09,22.9 106.25,45.93 163.19,57.26 97.09,19.29 163.97,-17.15 202.99,-108.69 29.99,-70.38 46.81,-144.47 47.66,-220.35 1.62,-147.42 -71.26,-247.65 -204.82,-306.53 -203.38,-89.64 -416.28,-143.12 -637.4,-158.18 -281.48,-19.19 -560.32,3.03 -833.83,75.63 -130.91,34.79 -248.74,95.64 -347.8,189.3 -82.87,78.39 -177.7,95.08 -283.92,59.66 -80.54,-26.88 -153.42,-69.85 -228.7,-107.92 -53.48,-27.02 -106.82,-54.64 -162,-77.75 -94.93,-39.76 -184.64,-27.69 -259.25,44.7 -35.04,34.01 -49.85,20.85 -66.04,-13.23 -23.68,-49.85 -26.64,-102.52 -23.04,-156.49 12.45,-187.61 -53.52,-261.69 -240.95,-273.48 -35.42,-2.22 -71.12,-6.38 -105.76,-13.83 -134.9,-28.89 -209.45,-124.53 -190.25,-261.72 15.62,-111.87 -13.02,-190.4 -117.9,-240.53 -48.62,-23.24 -83.08,-66.71 -114.02,-110.7 -67.66,-96.24 -125.02,-199.7 -209.02,-284.48 -34.33,-34.68 -42.26,-78.88 -3.99,-119.31 36.69,-38.8 80.26,-31.11 114.16,-1.9 199.96,172.37 454.73,179.46 694.02,227.65 117.79,23.7 239.96,-4.27 355.74,-38.21 107.53,-31.5 158.19,-101.99 158.54,-204.15 0.39,-112.26 -49.42,-185.95 -157.41,-220.52 -124.04,-39.73 -254.49,-39.52 -382.62,-51.26 -354.01,-32.46 -707.18,-3.92 -1060.45,18.62 -255.02,16.27 -507.4,7.69 -746.02,-99.97 -72.32,-32.64 -142.66,-68.97 -210.01,-127.78 115.11,-15.8 221.58,-30.13 327.98,-45.26 17.46,-2.47 34.75,-7.41 51.61,-12.77 143.05,-45.76 169.02,-149.01 62.69,-255.34 -102.62,-102.66 -219.15,-188.81 -336.59,-273.3 -96.02,-69.14 -183.9,-146.75 -267.68,-230.33 -84.57,-84.38 -113.92,-184.11 -107.78,-299.61 1.77,-32.85 20.5,-35.7 44.38,-33.83 38.45,3.03 74.01,16.75 105.87,37.53 96.27,62.76 206.23,80.05 316.3,95.08 76.09,10.37 141.39,-15.17 186.37,-79.41 20.15,-28.79 46.5,-45.34 76.38,-61.32 127.6,-68.37 260.31,-123.75 397.33,-170.42 73.63,-25.09 139.21,-63.75 138.71,-157.66 -0.35,-64.03 -30.9,-104.1 -92,-122.73 -58.77,-17.92 -119.06,-13.97 -179,-14.22 -82.8,-0.28 -163.97,-11.01 -243.42,-34.39 -110.52,-32.5 -177.73,-108.1 -182.88,-220.77 -9.56,-208.85 -110.03,-345.05 -293.61,-439.99 -188.81,-97.61 -228.88,-262.22 -117.2,-442.87 52.39,-84.74 120.41,-159.71 179.07,-240.78 90.49,-125.05 82.06,-172.15 -44.41,-262.36 -37.99,-27.09 -77.01,-52.91 -116.95,-77.01 -20.21,-12.2 -27.05,-27.8 -25.47,-49.6 2.4,-32.63 28.97,-21.69 45.79,-23.42 53.06,-5.4 106.44,-8.29 159.71,-11.68 113.52,-7.2 178.89,-54.86 197.87,-144.85 21.91,-103.86 -7.34,-169.62 -112.82,-222.67 -133.38,-67.14 -259.96,-144.96 -385.55,-225.04 -30.02,-19.16 -47.48,-42.79 -59.27,-75.88 -91.01,-255.87 -143.22,-515.52 -124.21,-790.72 20.67,-298.63 -7.51,-594.92 -83.15,-886.71 -33.27,-128.37 -19.01,-253.15 97.65,-344.34 35.63,-27.84 54.15,-34.86 67.87,22.33 46.15,192.69 112.22,378.92 202.85,555.55 21.13,41.24 48.12,79.94 75.95,117.2 26.53,35.45 60.51,61.24 108.91,40.64 46.03,-19.62 67.94,-56.41 66.5,-105.7 -3.14,-104.42 -7.48,-208.81 -11.5,-313.23 -0.71,-17.74 -4.06,-35.63 -2.93,-53.23 3.14,-49.85 39.9,-74.68 82.23,-49.25 61.7,37.08 116.49,75.64 140.23,157.2 95.32,327.66 271.07,616.97 452.93,902.09 112.54,176.42 233.12,347.38 373.56,503.23 32.21,35.74 64.2,72.85 117.26,96.95 -28.36,-137.23 -67.87,-264.02 -108.8,-390.39 -47.97,-148.06 -101.88,-293.72 -176.14,-431.02 -33.02,-61.03 -72.11,-117.02 -124.78,-163.51 -64.73,-57.12 -105.48,-131.84 -140.44,-208.92 -54.96,-121.28 -107.21,-243.87 -159.28,-366.43 -66.46,-156.49 -159.42,-289.88 -300.92,-390.7 -135.82,-96.77 -174.62,-269.8 -103.92,-422.06 89.6,-192.94 70.02,-371.51 -65.8,-535.41 -79.58,-96.03 -163.54,-187.75 -270.47,-255.63 -35.39,-22.43 -74.09,-49.07 -51.68,-101.77 22.22,-52.28 60.99,-82.31 120.43,-73.06 23.75,3.7 47.91,11.11 69.36,21.87 85.37,42.79 170.6,85.97 254.25,132.04 94.65,52.11 156.81,129.47 172.75,239.43 6.04,41.56 26.57,73.95 71.37,74.44 49.78,0.53 79.27,-34.82 84.88,-79.09 6.35,-50.2 1.48,-102.03 -1.02,-153.04 -15.77,-320.78 68.89,-601.34 323.92,-814.21 32.45,-27.06 63.74,-55.95 98.56,-79.55 34.72,-23.53 74.86,-35.7 109.89,-0.85 31.82,31.68 26.85,71.16 4.13,104.43 -81,118.67 -84.7,260.13 -117.33,392.64 -25.4,103.15 11.32,192.05 97.5,251.56 132.08,91.23 144.22,214.32 108.41,354.19 -5.5,21.45 -12.35,42.86 -21.2,63.11 -69.32,158.26 -38.24,298.42 72.81,426.34 87.35,100.54 192.66,185.56 260.57,303.03 16.54,28.61 40.85,23.46 61.27,3.07 31.01,-30.94 45.69,-69 50.52,-113.03 15.52,-141.75 22.26,-283.91 24.87,-426.4 1.66,-91.76 16.83,-181.19 50.41,-267.27 50.34,-128.97 142.1,-204.92 279.4,-228.98 191.35,-33.52 239.79,-86.51 261.66,-277.11 3.56,-30.98 6.95,-61.91 10.41,-92.89 29.1,-260.84 285.29,-481.22 548.35,-473.46 32.46,0.99 42.76,6.91 33.98,41.7 -52.67,208.56 -127.15,401.92 -272.74,570.44 -379.41,439.24 -511.56,958.67 -448.24,1528.62 80.4,723.76 361.88,1375.02 742,1987.48 355.99,573.58 789.8,1086.49 1249.01,1578.61 918.39,984.25 1958.87,1825.1 3053.72,2602.9 918.14,652.29 1881.36,1233.84 2837.85,1826.15 113.94,70.52 224.65,143.2 315.27,244.02 44.91,49.99 100.26,83.47 171.84,49.14 67.63,-32.38 102.17,-101.42 89.54,-184.18 -9.18,-59.9 -36.41,-113.88 -61,-168.63 -83.32,-185.6 -148.38,-375.96 -153.56,-582.4 -4.24,-168.77 45.51,-319.23 145.87,-454.41 113.91,-153.43 103.86,-271.29 -41.63,-395.29 -319.93,-272.73 -481.61,-631.33 -569.77,-1031.21 -75.17,-340.89 -116.98,-687.88 -189.09,-1029.44 -34.39,-163.09 39.13,-293.93 188.39,-366.36 19.93,-9.66 40.57,-18.02 61.24,-26.17 224.47,-88.48 332.84,-256.26 337.29,-494.53 1.55,-84.56 2.05,-168.94 21.8,-252.06 49.32,-207.96 191.74,-328.57 379.2,-407.84 230.08,-97.3 384.39,-267.34 472.9,-498.34 115.75,-302.08 100.05,-606.63 4.69,-909.21 -75.07,-238.2 -117.9,-478.54 -88.83,-728.98 28.44,-245.32 149.55,-375 416.81,-461.68 28.86,-9.35 34.61,4.37 42.62,24.69 23.35,59.09 -2.44,109.43 -29.78,157.84 -61.88,109.53 -93.06,225.6 -81.21,351.64 14.25,151.24 69.89,288.86 146.12,417.98 36.55,61.91 83.89,65.12 138.4,16.58 21.41,-19.05 38.91,-42.58 57.64,-64.56 30.16,-35.42 58.24,-82.8 112.61,-66.54 53.23,15.91 57.89,70.81 60.71,116.7 8.64,139.95 13.65,280.11 19.19,420.23 5.29,133.42 8.01,266.95 39.41,397.79 24.62,102.52 57.01,204.62 123.86,285.3 153.84,185.63 165.34,395.64 125.83,618.1 -24.97,140.51 -39.75,281.3 -33.97,424.78 9.49,234.77 -39.12,465.06 -62.51,697.3 -12.45,123.79 -14.18,244.86 62.26,352.6 20.75,29.17 42.09,57.89 74.76,74.79 64.2,33.3 119.31,8.04 137.51,-62.13 22.33,-85.93 42.65,-172.47 68.05,-257.49 30.23,-101.21 93.91,-173.32 202.28,-211.84 -57.71,337.54 43.32,650.49 125.52,963.05 64.95,246.91 24.7,463.23 -113.35,671.76 -135.04,204.01 -288.11,390.42 -487.01,535.12 -98.77,71.9 -204.85,126.02 -334.11,103.26 -31.47,-5.54 -59.97,-16.93 -85.62,-34.99 -101.25,-71.37 -102.83,-131.24 7.76,-177.03 174.73,-72.35 232.31,-202.99 182.1,-409.78 -48.29,-199.04 -124.17,-389.01 -189.12,-582.58 -13.97,-41.73 -27.3,-28.86 -48.08,-8.01 -94.79,95.04 -131.62,213.93 -142.1,343.64 -4.66,57.68 -9.67,115.4 -11.71,173.18 -1.06,29.46 -13.13,36.27 -40.82,36.94 -106.4,2.5 -184.93,-55.39 -216.04,-171.56 -57.89,-216.25 -69.39,-432.96 -6.46,-651.83 59.59,-207.15 147.53,-404.67 201.16,-613.76 62.19,-242.53 81.77,-486.34 34.07,-733.71 -4.12,-21.3 -5.08,-43.39 -21.66,-65.51 -55.38,111.27 -108.33,220.84 -164.11,329 -72.07,139.81 -109.99,157.48 -264.97,130.46 -122.1,-21.31 -206.2,16.44 -230.96,133.24 -85.16,401.25 -210.65,796.79 -189.06,1214.94 16.02,309.84 144.57,579.4 301.63,837.6 154.9,254.7 371.86,439.7 647.52,555.3 241.62,101.29 433.81,255.59 518.59,513.15 82.16,249.63 41.02,492.38 -63.08,726.83 -37.01,83.29 -76.13,165.6 -102.13,252.98 -29.14,98 -3.95,169.65 69.32,216.46 47.03,30.02 95.71,33.2 135.29,-5.11 216.89,-210.01 488.03,-339.9 739.18,-498.09 873.09,-549.91 1749.6,-1094.14 2586.7,-1698.98 905.23,-654.05 1780.61,-1346.27 2564.13,-2142.7 609.67,-619.72 1203.36,-1258.22 1653.68,-2012.14 333.73,-558.76 575.91,-1151.6 682.24,-1795.74 103.47,-626.53 -20.57,-1193.77 -450.85,-1678.02 -107.28,-120.8 -163.4,-268.29 -214.13,-418.36 -18.49,-54.65 -38.53,-108.8 -57.93,-163.41 192.55,-23.42 450,126.51 545.25,315.21 45.62,90.34 68.94,187.5 89.15,285.32 26.25,127.18 93.59,206.03 224.51,242.33 210.36,58.35 325.26,210.25 338.21,429.04 7.72,130.67 29.45,260.5 17.67,392.68 -6.21,69.64 14.01,136.81 64.81,190.57 23.03,24.34 46,35.1 73.2,6.49 142.17,-149.82 257.14,-317.6 333.09,-510.43 14.22,-36.09 2.36,-74.9 -0.42,-112.5 -6.81,-90.88 -17.47,-181.36 -12,-273.09 8.72,-145.94 70.8,-263.91 177.17,-361.42 76.58,-70.2 86.46,-113.66 48.26,-213.64 -35.88,-93.84 -93.49,-176.53 -138.47,-265.78 -20.64,-40.92 -31.5,-80.89 -16.44,-127.5 20.78,-64.38 51.58,-78.42 107.88,-37.6 79.55,57.61 146.51,129.75 216.43,198.29 8.93,8.75 15.1,22.3 18.24,34.68 24.09,95.5 68.16,183.02 108.44,271.92 60.5,133.39 85.48,270.12 53.27,415.5 -13.58,61.32 -14.92,123.94 5.26,184.82 18.7,56.41 56.8,89.58 117.93,90.56 62.06,0.99 74.61,-46.07 86.01,-92.57 8.47,-34.5 14.5,-69.56 22.61,-104.14 33.83,-144.49 214.53,-232.62 351.12,-172.01 23.14,10.27 39.69,27.41 32.63,51.22 -15.62,52.46 -24.65,108.16 -67.83,149.12 -48.51,45.97 -92.57,96.06 -130.14,151.77 -86.93,128.76 -90.77,259.5 -16.41,395.85 75.21,137.86 63.54,271.11 -33.41,395.07 -445.91,570.16 -803.59,1188.34 -1025.17,1880.59 -6.63,20.71 -32,48.19 -7.87,65.65 25.09,18.1 61.39,17.57 88.97,-1.05 31.12,-21.06 59.66,-46.39 87.46,-71.94 354.47,-325.43 571.71,-732.64 706.61,-1188.68 19.51,-66 34.93,-133.28 56.38,-198.61 26.56,-80.97 79.72,-136.21 164.28,-160.84 40.68,-11.85 50.38,-1.05 47.74,38.92 -8.51,128.8 -14.43,257.74 -21.52,386.64 -3.11,56.8 -5.05,113.03 56.83,144.15 61.28,30.83 108.94,4.12 158.92,-31.68 140.34,-100.65 181.02,-246.31 193.01,-407 4.66,-62.09 11.5,-123.83 50.34,-176.89 30.76,-42.01 62.9,-45.36 99.24,-8.43 49.07,49.78 80.25,97.51 66.25,179.64 -73.41,431.06 -89.68,867.16 -96.73,1303.55 -5.86,363.82 -156.35,585.01 -493.82,723.16 -22.58,9.24 -45.26,18.52 -67.1,29.31 -93.24,46.11 -123.37,103.44 -105.37,198.72 16.54,87.52 68.19,132.86 171.38,135.15 109.04,2.4 217.27,5.54 325.5,35.35 -14.95,43.74 -46.6,68.05 -86.29,86.29 -58.45,26.88 -117.54,53.16 -173.42,84.88 -101.67,57.68 -112.82,104.21 -44.84,197.76 48.3,66.47 103.26,128.17 155.79,191.53 40.04,48.29 73.83,99.94 94.01,159.98 43.64,129.75 13.97,240.6 -85.05,333.69 -42.65,40.11 -94.51,65.66 -145.7,92.89 -128.66,68.44 -211.07,170.92 -215.41,321.31 -5.53,191.1 -50.37,321.17 -355.63,331.65 -82.13,2.82 -164.43,9.31 -245.85,20.1 -93.7,12.46 -125.94,104.74 -65.16,178.62 27.73,33.69 65.02,54.11 105.55,67.27 177.41,57.72 338.46,144.57 483.84,261.87 79.69,64.34 170.63,67.66 265.21,36.12 112.93,-37.64 210.93,-103.75 312.92,-162.35 24.45,-14.04 48.93,-28.04 79.73,-45.68 7.83,99.55 -10.38,186.9 -47.52,270.51 -31.93,71.79 -74.33,138.78 -132.29,190.89 -173.25,155.75 -327.03,333.62 -523.39,463.37 -48.22,31.86 -87.2,70.49 -76.8,136.21 10.48,66.32 51.69,107.7 111.73,129.68 100.68,36.83 206.41,25.75 310.69,28.82 27.45,0.81 65.62,-17.96 75.81,30.23 10.83,51.26 -28.93,56.63 -61.35,70.03 -65.65,27.13 -132.75,51.61 -195.93,83.71 -241.02,122.42 -487.57,152.09 -756.07,95.89 -354.93,-74.3 -717.02,-65.62 -1077.49,-33.97 -97.4,8.53 -195.12,18.8 -291.18,36.58 -142.6,26.42 -204.9,108.13 -198.79,246.8 4.69,106.23 64.94,175.33 185.52,205 194.95,48.02 388.73,34.01 580.22,-20.18 145.83,-41.27 285.39,-98.28 415.67,-176.77 13.27,-7.98 27.63,-14.15 41.63,-20.89 37.78,-18.06 69.25,-7.86 95.29,22.58 27.48,32.1 25.54,67.28 0.49,97.61 -58.07,70.35 -116.59,140.55 -179.14,206.84 -92.46,97.96 -170.78,203.73 -222.21,329.7 -28.44,69.61 -65.13,136.28 -102.63,201.69 -86.29,150.56 -216.82,233.29 -391.37,237.45 -59.3,1.41 -74.93,24.8 -62.72,78.32 4.44,19.4 5.32,39.69 6.81,59.65 8.64,116.77 -36.27,191.77 -151.35,192.06 -200.23,0.49 -370.31,78.81 -542.92,162.2 -102.7,49.6 -212.51,64.56 -324.45,29.42 -24.7,-7.76 -49.57,-14.88 -63.82,-42.96 -42.97,-84.71 -117.86,-130.96 -204.96,-159.57 -288.82,-94.93 -585.33,-129.36 -888.3,-109.43 -186.86,12.31 -370.94,43.46 -552.09,90.42 -267.34,69.29 -388.84,249.84 -339.73,501.26 34.96,178.93 164.78,244.48 326.43,161.04 77.11,-39.82 152.33,-82.69 237.8,-102.23 164.82,-37.75 315.07,4.52 449.9,96.31 100.44,68.37 206.55,119.24 320.5,159.52 89.11,31.47 175.89,72.32 230.86,156.81l-0.6 0.6z"/>
 <path class="fil3" d="M6793.5 -2609.24c26.03,17.92 49.17,34.64 73.09,50.17 180.34,117.19 360.61,111.54 509.41,-43.01 116.59,-121.04 261.48,-181.15 407.32,-244.4 62.12,-26.95 96.45,-57.05 96.38,-131.02 -0.18,-191.39 90.45,-344.28 219.32,-478.58 100.22,-104.42 215.44,-192.27 328.26,-295.7 -87.07,-38 -175.05,-42.09 -260.32,-56.27 -79.05,-13.16 -158.15,-24.98 -231.21,-60.22 -19.61,-9.45 -44.48,-17.32 -45.22,-43.81 -0.74,-26.74 23.07,-34.68 43.18,-44.63 86.64,-42.72 86.08,-42.79 34.89,-126.58 -15.7,-25.64 -40.64,-51.68 -22.16,-85.09 18,-32.56 52.32,-29.42 83.22,-29.91 71.19,-1.13 143.41,6.28 213.33,-3.28 201.61,-27.55 335,-144.57 358.07,-355.5 26.42,-241.37 161.39,-382.37 358.53,-493.04 294.6,-165.38 599.51,-310.76 896.69,-470.92 123.29,-66.43 245.85,-134.3 361.59,-213.4 186.13,-127.21 220.91,-216.07 172.41,-436.84 -17.15,-78.11 -38,-155.47 -52.89,-234 -23,-121.36 15.77,-219.04 120.62,-287.9 18.56,-12.21 37.5,-23.85 56.06,-36.09 152.08,-100.37 144.07,-279.19 -17.15,-367 -80.61,-43.88 -170.74,-62.4 -256.72,-91.96 -32.63,-11.26 -65.68,-21.38 -100.68,-32.71 18.38,-38.1 49.25,-53.09 80.86,-60.53 97.93,-23.15 186.97,-68.76 279.26,-106.01 67.84,-27.38 137.58,-40.43 208.88,-26.07 232.44,46.85 468.87,47.16 703.86,64.52 179.77,13.26 359.52,26.67 539.11,41.8 62.13,5.26 116.42,30.2 153.32,83.22 15.81,22.69 37.15,37.61 59.02,53.06 620.75,437.94 960.47,1037.91 1041.68,1791.2 21.77,201.78 -41.94,367.13 -169.4,514.59 -153.88,178.05 -339.02,320.99 -527.4,459.64 -134.34,98.88 -270.62,195.19 -406.97,291.29 -95.04,66.99 -179.46,64.13 -280.03,-9.39 236.25,-139.1 404.6,-345.97 572.06,-553.68 16.72,-20.75 32.81,-42.16 47.56,-64.35 30.55,-45.97 41.55,-94.26 6.49,-142.66 -35.21,-48.58 -82.16,-73.1 -144.15,-63.79 -40.81,6.14 -75.63,25.58 -109.39,46.92 -73.73,46.71 -143.87,100.05 -198.83,166.97 -201.15,245.04 -465.81,403.76 -740.55,546.77 -154.27,80.3 -244.51,189.97 -247.76,369.68 -2.89,159 -79.65,269.1 -239.43,312.84 -55.52,15.21 -83.99,57.54 -90.84,112.22 -14.28,114.72 8.65,225.92 39.06,335.56 13.58,49.04 52.52,63.5 99.58,56.8 39.59,-5.64 78.5,-16.72 118.15,-20.32 68.76,-6.21 85.69,15.7 66.92,81.6 -19.54,68.72 -52.63,131.66 -83.82,195.54 -57.43,117.62 -36.12,171.74 88.23,210.08 40.85,12.56 59.34,34.29 65.19,72.82 3.99,26.31 7.55,52.74 11.89,79.02 28.47,172.51 125.2,231.28 290.62,174.98 46.6,-15.88 92.29,-31.68 142.67,-27.87 50.12,3.81 91.61,21.62 111.51,70.52 19.4,47.59 -10.2,80.85 -40.04,111.51 -130,133.6 -291.33,204.58 -474.49,217.66 -363.85,26 -690.7,-74.22 -972.78,-308.29 -142.56,-118.25 -229.56,-275.38 -289.25,-447.25 -41.38,-119.17 -95.63,-144.36 -202.31,-77.79 -97.51,60.82 -153.5,153.21 -155.93,265.54 -5.36,250.22 -55.78,494.98 -79.24,742.88 -7.16,75.53 -9.59,151.3 -0.7,226.66 23.56,199.35 134.65,337.22 313.94,415.85 121.95,53.52 225.95,123.65 321.76,217.56 159.21,156.07 335.92,166.23 493.47,47.8 108.8,-81.81 143.37,-187.89 103.08,-318.03 -23.25,-75.1 -64.94,-140.62 -110.42,-204.33 250.26,-99.45 496.96,-5.5 608.51,231.81 29.24,62.2 51.22,127.81 80.26,190.15 37.5,80.43 81.42,101.49 166.37,76.94 47.52,-13.72 86.36,-2.79 126.29,20.39 67.2,38.95 133.7,78.92 209.48,100.93 90.88,26.35 170.99,9.7 243.13,-50.76 55.28,-46.32 98.92,-102.8 136.78,-163.09 64.91,-103.4 120.89,-211.95 191.66,-312.25 54.05,-76.65 36.72,-145.59 -38.42,-203.48 -38.66,-29.77 -82.3,-53.37 -119.52,-84.74 -53.48,-45.08 -62.97,-104.17 -29.14,-153.95 37.08,-54.54 86.93,-42.33 137.2,-23.99 10.4,3.81 20.53,8.47 30.69,12.91 116.56,50.95 136.1,46.61 185.28,-72.67 23.11,-56.05 79.66,-79.62 102.59,-136.66 34.89,-86.79 68.79,-175.62 126.36,-255.45 -6.03,64.56 41.84,107.91 57.64,164.43 30.87,110.31 -11.6,210.15 -27.37,314.15 -26.81,177.09 -15.77,355.46 -15.24,533.36 0.39,124.78 -2.86,248.99 -24.24,372.47 -34,196.49 -136.27,344.02 -308.29,444.71 -115.75,67.77 -242.22,110.38 -365.79,159.84 -74.37,29.78 -147.04,62.69 -215.2,105.13 -531.35,330.9 -1105.99,405.59 -1712.7,288.54 -159.24,-30.73 -317.57,-64.67 -463.97,-139.7 -46.53,-23.85 -98.36,-36.87 -142.81,6.2 -46.46,44.98 -60.04,106.12 -33.72,160.17 81.03,166.51 203.62,325.72 425.09,299.08 30.7,-3.67 63.08,-8.25 80.3,29.21 19.08,41.56 2.89,74.86 -26.21,101.95 -98.39,91.48 -215.31,127.39 -345.02,91.51 -119.98,-33.23 -229.77,-87.13 -326.71,-171.41 -270.47,-235.13 -550.09,-459.71 -850.55,-655.57 -117.54,-76.66 -238.19,-143.86 -322.22,-261.93 -40.86,-57.4 -109.15,-71.76 -177.84,-78.46 -132.22,-12.88 -234.17,-105.69 -235.97,-237.6 -3.49,-253.08 -84.07,-484.19 -178.3,-713.1 -51.54,-125.31 -102.51,-250.79 -137.05,-382.17 -24.84,-94.44 -90.98,-138.75 -183.44,-148.52 -101.75,-10.72 -203.66,-20.14 -305.65,-28.25 -117.33,-9.35 -246.7,-157.52 -236.75,-273.9 2.36,-27.62 17.53,-45.44 46.46,-47.63 22.16,-1.69 44.56,-0.74 66.68,-2.78 72.91,-6.71 109.11,-49.89 95.67,-121.82 -10.13,-54.36 -28.75,-107.1 -43.04,-160.72 -13.93,-52.14 -18.13,-103.97 8.26,-158.33z"/>
 <path class="fil2" d="M20476.54 -7833.4c112.92,-102.48 214.63,-213.22 311.99,-328.19 327.03,-386.26 596.3,-813.93 882.26,-1229.64 91.69,-133.35 186.31,-264.69 279.58,-396.95 5.26,2.08 10.55,4.2 15.84,6.28 -19.54,69.99 -37.43,140.51 -58.84,209.94 -153.39,497.06 -329.92,985.98 -517.32,1471.08 -262.04,678.5 -546.94,1347.15 -877.18,1995.52 -227.26,446.3 -472.33,882.48 -779.07,1280.62 -133.07,172.72 -278.27,335.42 -425.21,496.11 -184.64,201.93 -376.66,396.67 -576.12,584.56 -305.22,287.44 -636.8,541.23 -974.16,788.03 -260.21,190.36 -522.04,378.64 -787.57,561.38 -308.51,212.33 -645.8,375.14 -976.14,549.45 -167.11,88.16 -335.67,173.74 -509.38,248.5 -22.26,9.56 -46.18,15.76 -69.81,21.59 -111.55,27.65 -143.44,8.46 -170.5,-102.17 -41.59,-170.25 -83.4,-340.46 -124.28,-510.93 -30.27,-126.04 -5.96,-168.06 106.85,-230.75 280.07,-155.64 547.94,-331.36 816.12,-506.38 316.51,-206.51 637.68,-406.96 923.68,-656.09 301.76,-262.89 617.08,-512.87 883.07,-812.84 512.45,-577.88 994.34,-1180.25 1382.86,-1851.02 266.94,-460.84 486.69,-944.42 677.29,-1441.42 194.45,-507.12 343.5,-1027.18 444.68,-1560.79 49.14,-259.36 77.68,-521.8 115.57,-782.85 39.86,-274.92 59.97,-551.18 78.74,-827.94 9.31,-137.47 184.43,-235.19 312.6,-181.04 62.9,26.56 75.38,82.44 71.61,138.01 -18.06,265.99 -5.36,532.66 -33.06,798.93 -52.31,503.8 -140.54,1001.08 -244.36,1496.06 -51.02,243.28 -109.89,484.75 -180.13,723.3 -4.34,14.75 -11.04,29 0.39,49.64z"/>
 <path class="fil2" d="M18291.55 -18112.35c-1.31,104.71 -89.57,224.62 -171.06,246.7 -79.62,21.59 -139.31,-17.75 -188.35,-72.99 -429.05,-483.34 -932.96,-879.72 -1444.63,-1270.42 -509.69,-389.22 -1087.93,-645.66 -1660.94,-915.5 -317.79,-149.65 -638.18,-293.4 -964.43,-423.82 -326.95,-130.74 -670.31,-205.36 -1010.25,-290.48 -359.44,-90 -723.72,-158.22 -1091.99,-200.41 -198.33,-22.72 -397.75,-36.34 -597.53,-46.08 -270.97,-13.16 -541.94,-29.21 -813.08,-21.23 -388.27,11.43 -775.48,36.01 -1161.31,87.41 -708.84,94.48 -1400.53,257.5 -2074.26,496.15 -730.22,258.69 -1421.24,597.96 -2073.67,1015.89 -495.47,317.43 -959.34,675.22 -1391.74,1074.6 -145.63,134.51 -284.09,275.98 -425.17,414.9 -143.37,141.18 -248.78,125.63 -345.19,-51.68 -43.46,-79.97 -36.66,-116.66 27.02,-192.16 240.42,-285.04 515.83,-533.82 801.51,-771.59 370.95,-308.75 749.55,-607.7 1155.14,-870.41 625.72,-405.27 1288.02,-737.45 1988.85,-993 576.94,-210.36 1165.93,-376.7 1769.5,-489.2 305.15,-56.87 612.6,-99.23 922.3,-126.47 296.97,-26.14 594.05,-36.76 891.97,-41.1 297.88,-4.3 595.56,-0.28 892.38,19.69 429.44,28.86 855.74,83.85 1279.39,163.51 688.83,129.51 1350.25,349.36 1996.19,612.74 764.79,311.82 1477.15,722 2145.81,1208.26 528.95,384.67 1009.4,823.25 1464.06,1291.59 44.52,45.87 78.63,96.38 79.48,145.1z"/>
 <path class="fil3" d="M9582.04 -6165.37c53.91,-120.83 112.89,-235.09 152.55,-358.03 50.41,-156.32 61.13,-312.28 9.77,-471.24 -32.35,-100.16 -14.85,-116.77 88.76,-118.61 123.96,-2.19 212.05,47.98 271.35,157.23 43.89,80.86 82.52,162.85 90.56,255.24 16.34,187.61 -72.11,332.67 -251.74,422.45 -113.91,56.97 -243.1,63.64 -361.25,112.96z"/>
 <path class="fil3" d="M18438.77 -11116.66c3.21,1.31 6.42,2.61 9.63,3.95 -2.12,1.8 -4.2,3.57 -6.32,5.36 -1.3,-2.92 -2.61,-5.82 -3.91,-8.74 0,0 0.6,-0.57 0.6,-0.57z"/>
</symbol>
<symbol id="Fm1-8-0" viewBox="3256.43 76.8 1037.57 1037.59">
 <path class="fil0" d="M4294 597.17c-0.85,285.8 -232.78,517.22 -518.78,517.22 -286.53,0 -518.79,-232.27 -518.79,-518.8 0,-286.52 232.26,-518.79 518.79,-518.79 286,0 517.93,231.42 518.78,517.21l0 3.16z"/>
</symbol>
<symbol id="Fm1-63-0" viewBox="18066.23 76.8 1037.58 1037.59">
 <path class="fil0" d="M19103.81 595.59c0,286.53 -232.27,518.8 -518.79,518.8 -286.27,0 -518.36,-231.84 -518.79,-518.01l0 -1.58c0.43,-286.16 232.52,-518 518.79,-518 286.52,0 518.79,232.27 518.79,518.79z"/>
</symbol>
 <g id="Capa_x0020_1">
  <metadata id="CorelCorpID_0Corel-Layer"/>
  <g id="_1806751352528">
   <path class="fil4" d="M2507.98 1144.88c-243.98,0.05 -448,-192.18 -454.8,-436.07 -0.13,-4.61 -0.2,-9.24 -0.2,-13.9 0,-255.71 215.47,-463.02 481.28,-463.02 123.94,0 236.92,45.11 322.23,119.15l0.15 -0.14c18.57,18.67 44.67,30.36 73.66,30.36 56.34,0 102.01,-43.93 102.01,-98.14 0,-31.46 -15.45,-59.4 -39.39,-77.36l0.06 -0.06c-130.98,-106.02 -272.83,-145.78 -458.72,-145.78 -413.84,0 -749.31,317.33 -749.31,708.78l0 1950.55c0,249.72 202.43,452.15 452.15,452.15l594.31 0c249.72,0 452.15,-202.43 452.15,-452.15l0 -1358.87 0 -64.4 0 -79.85c0,-39.42 -31.96,-71.39 -71.39,-71.39l-704.19 0.14z"/>
   <path class="fil5" d="M1860.23 1689.38l69.51 0 0 79.96c0,7.94 4.82,11.9 14.46,11.9 9.32,0 13.97,-3.96 13.97,-11.9l0 -41.32c0,-12.64 -8.42,-27.46 -25.27,-44.48 -32.57,-31.59 -52.82,-52.82 -60.76,-63.68 -7.94,-10.85 -11.91,-22.76 -11.91,-35.73l0 -39.12c0,-45.21 29.53,-67.82 88.59,-67.82 52.9,0 79.35,20.58 79.35,61.74l0 60.27 -69.51 0 0 -64.16c0,-6.97 -3.89,-10.45 -11.66,-10.45 -9.08,0 -13.61,6.72 -13.61,20.17l1.45 22.61c0,12.96 8.63,28.03 25.85,45.21 32,30.61 52.34,52.01 61,64.16 8.71,12.15 13.04,25.92 13.04,41.32l0 44.47c0,46.34 -29.61,69.52 -88.83,69.52 -57.11,0 -85.67,-21.07 -85.67,-63.2l0 -79.47z"/>
   <polygon class="fil5" points="2245.7,1828.88 2166.95,1828.88 2114.94,1643.2 2114.94,1828.88 2051.02,1828.88 2051.02,1480.36 2138.03,1480.36 2181.78,1639.31 2181.78,1480.36 2245.7,1480.36 "/>
   <path class="fil5" d="M2361.63 1772.98l0 -237.45c0,-6.97 -4.13,-10.46 -12.39,-10.46 -8.59,0 -12.88,3.49 -12.88,10.46l0 237.45c0,6.97 4.29,10.45 12.88,10.45 8.26,0 12.39,-3.48 12.39,-10.45zm-99.89 -3.64l0 -224.33c0,-45.21 29.29,-67.82 87.86,-67.82 57.77,0 86.65,22.45 86.65,67.33l0 224.33c0,20.26 -8.06,35.85 -24.15,46.79 -16.12,10.94 -37.1,16.4 -62.98,16.4 -58.26,0 -87.38,-20.9 -87.38,-62.7z"/>
   <path class="fil5" d="M2553.64 1600.87l0 -57.53c0,-12.17 -7.86,-18.27 -23.58,-18.27l0 94.31c15.72,0 23.58,-6.18 23.58,-18.51zm87.98 228.5l-76.56 0c-8.26,-9.88 -12.39,-37.92 -12.39,-84.1l0 -0.48 0.48 -20.9c0.49,-29.01 0.74,-43.83 0.74,-44.48 0,-11.83 -7.95,-17.74 -23.83,-17.74l0 167.21 -76.56 0 0 -348.52 94.55 0c21.55,0 40.31,4.94 56.27,14.82 15.96,9.88 23.94,25.52 23.94,46.91l0 41.8c0,27.06 -15.81,45.37 -47.4,54.93 31.76,7.45 47.64,26.66 47.64,57.6l-1.22 38.16c0,55.74 4.78,87.34 14.34,94.79z"/>
   <polygon class="fil5" points="2796.44,1828.88 2652.8,1828.88 2652.8,1480.36 2729.36,1480.36 2729.36,1784.16 2796.44,1784.16 "/>
   <path class="fil5" d="M2920.23 1686.95l-11.01 -104.03 -10.41 104.03 21.42 0zm94.95 141.93l-75.86 0 -12.92 -93.57 -33.95 0 -13.08 93.57 -75.88 0 57.24 -348.52 97.1 0 57.35 348.52z"/>
   <polygon class="fil5" points="3243.89,1828.88 3161.74,1828.88 3126.74,1716.84 3093.94,1828.88 3020.78,1828.88 3081.05,1630.8 3036.33,1480.36 3109.98,1480.36 3137.19,1581.46 3167.58,1480.36 3236.36,1480.36 3184.1,1641.74 "/>
   <path class="fil6" d="M1582.6 2858.32c5.58,-6.36 10.27,-11.91 15.17,-17.26 3.63,-3.96 8.22,-5.25 13.26,-3.1 4.64,1.98 5.53,6.18 5.22,10.68 -0.36,5.29 -2.55,9.34 -8.1,10.81 -7.66,2.02 -15.33,3.38 -25.55,-1.13z"/>
   <path class="fil6" d="M1602.24 2903.78c4.78,-11.45 6.62,-24.98 19.25,-27.28 6.36,-1.17 13.22,10.94 11.32,16.27 -4.77,13.29 -18.18,10.31 -30.57,11.01z"/>
   <path class="fil6" d="M1641.59 2928.32c2.56,-6.12 -2.42,-17.15 7.95,-17.62 7.19,-0.33 17.86,5.04 17.47,13.07 -0.47,9.51 -11.69,14.65 -19.77,16.58 -9.18,2.2 -3.32,-7.81 -5.65,-12.03z"/>
   <path class="fil6" d="M1604.9 2801.98c2.31,16.65 -8.32,18.42 -19.23,19.2 -3.59,0.26 -9.26,2.38 -9.68,-4.73 -0.34,-5.81 18.64,-23.24 24.62,-22.91 7.9,0.43 1.98,7.12 4.29,8.44z"/>
   <path class="fil4" d="M1702.21 2928.73c-2.71,10.97 4.02,17.86 10.48,28.34 0.12,-13.05 -4.83,-20.91 -10.48,-28.34zm1670.59 26.45c5.1,-8.74 13.1,-12.98 9.11,-20.48 -3.76,-7.06 -11.16,-4.92 -18.49,-3.08 2.84,7.12 5.46,13.69 9.38,23.56zm-1768.23 -153.96c-2.31,-1.32 3.6,-8 -4.29,-8.44 -5.98,-0.32 -24.97,17.1 -24.62,22.92 0.42,7.11 6.08,4.98 9.67,4.73 10.91,-0.79 21.54,-2.56 19.24,-19.21zm1899.89 14.32c-6.6,-5.35 -13.07,-10.87 -19.84,-16 -3.71,-2.81 -7.21,-7.9 -12.64,-5.29 -4.48,2.16 -3.37,7.61 -3.64,11.64 -0.38,5.54 0.16,10.82 7.49,12.72 8.35,2.16 16.52,3.79 28.63,-3.07zm-1863.2 112.03c2.32,4.21 -3.53,14.23 5.64,12.03 8.08,-1.94 19.31,-7.08 19.77,-16.58 0.39,-8.03 -10.27,-13.41 -17.47,-13.08 -10.37,0.48 -5.39,11.5 -7.94,17.63zm-39.36 -24.55c12.4,-0.7 25.8,2.29 30.57,-11.01 1.91,-5.33 -4.96,-17.43 -11.32,-16.27 -12.63,2.31 -14.47,15.84 -19.25,27.28zm1862.41 -57.27c-0.68,19.84 15.23,15.31 25.84,18.33 3.91,1.12 7.49,0.85 7.68,-4.4 0.2,-5.23 -21.59,-26.24 -27.01,-25.96 -8.99,0.46 -4.65,8.12 -6.51,12.03zm-21.8 86.89c-3.77,-7.46 2.53,-20.95 -10.25,-23.14 -5.83,-1 -15.68,5.64 -14.41,13.73 1.57,10 10.82,16.75 20.05,19.56 6.14,1.87 3.23,-5.98 4.61,-10.15zm-1860.25 -75.07c10.23,4.51 17.89,3.14 25.56,1.12 5.55,-1.46 7.73,-5.51 8.09,-10.8 0.31,-4.51 -0.57,-8.71 -5.21,-10.68 -5.04,-2.15 -9.63,-0.86 -13.26,3.1 -4.9,5.35 -9.6,10.9 -15.18,17.26zm1901.51 49.08c-1.91,-11.1 -7.86,-18.73 -12.97,-26.67 -2.36,-3.66 -5.42,-7.4 -10.47,-5.29 -5.56,2.32 -7.59,7.84 -9.39,13.04 -1.75,5.08 1.43,8.21 5.65,10.07 8.17,3.61 15.93,8.65 27.18,8.85zm-1656.59 -31.14c5.92,7.1 11.97,13.4 12.12,21.67 1,53.93 -12.85,95.43 -76.67,93.54 -9.63,-0.28 -21.47,-9.9 -28.76,0.31 -5.76,8.05 -6.37,19.78 -9.24,29.88 -0.18,0.59 -0.05,1.28 -0.28,1.84 -5.26,12.48 -2.21,18.02 11.71,23.53 26.26,10.39 44.08,31.27 46.06,60.24 1.79,26.34 -8.94,48.86 -33.82,61.3 -8.65,4.33 -8.92,7.85 -4.91,15.38 8.8,16.52 19.05,32.01 31.76,45.68 63.59,68.41 143.31,87.54 233.4,77.73 130.5,-14.22 236.75,-125.16 230.33,-270.12 -4.93,-111.37 -96.48,-206.04 -206.8,-210.86 -13.73,-0.6 -22.56,1.21 -30.56,15.59 -27.77,49.92 -77.47,48.9 -109.33,24.69 -18.87,-14.35 -28.77,-8.45 -43.36,-1.67 -6.69,3.11 -13.11,6.8 -21.65,11.27zm1516.99 59.42c-5.4,4.82 -9.31,9.28 -16.22,10.29 -42.64,6.23 -88.69,-40.01 -82.72,-82.84 1.14,-8.17 11.2,-16.54 4.25,-23.49 -6.06,-6.08 -16.48,-7.96 -25.16,-11.2 -6.37,-2.37 -13.13,-3.67 -19.52,-5.97 -7.94,-2.86 -10.44,-0.64 -11.67,7.93 -3.19,22.02 -12.58,31.77 -33.15,33.15 -36.16,2.43 -67.82,-7.81 -89.22,-38.91 -5.47,-7.95 -10.31,-10.75 -19.3,-9.02 -50.88,9.76 -95.68,30.08 -127.5,72.97 -52.66,70.98 -70.42,150.87 -56.67,237.25 10.87,68.29 43.97,123.29 106.68,156.92 165.05,88.52 336.69,-34.74 375.5,-149.15 5.37,-15.82 7.22,-26.49 -6.52,-40.59 -23.44,-24.05 -14.82,-70.7 14.16,-87.21 6.77,-3.87 7.32,-7.22 6.03,-12.8 -4.47,-19.27 -8.37,-38.75 -18.97,-57.33zm-802.29 -788.09c118.83,-0.69 251.14,18.36 347.57,59.14 9.85,4.16 13.48,1.16 16.51,-8.32 5.9,-18.38 10.48,-36.86 10.74,-56.24 1.58,-114.19 -94.24,-235.49 -206.65,-261.41 -13.39,-3.09 -26.31,-2.67 -39.69,3.04 -35.24,15.04 -71.15,28.5 -106.61,43.05 -15.87,6.51 -30.51,6.44 -46.25,-1.45 -29.84,-14.94 -60.77,-27.72 -90.45,-42.95 -13.18,-6.76 -25.78,-7.74 -39.35,-4.8 -75.08,16.27 -128.74,61.85 -166.85,126.16 -34.96,59.03 -48.77,122.5 -30.77,190.74 2.44,9.27 4.88,12.06 14.63,8.32 108.55,-41.69 221.91,-54.37 337.17,-55.28zm12.41 11.29c-130.38,0.57 -249.74,19.01 -363.01,67.93 -80.44,34.74 -151.56,82.08 -199.6,158.05 -34.31,54.26 -50.77,113.91 -41.67,177.33 12.91,89.97 97.28,139.76 191.34,131.02 90.21,-8.38 178.27,-30.22 266.83,-48.31 76.54,-15.64 152.5,-23.34 230.51,-10.06 84.28,14.34 169.14,25.54 253.97,36.28 60.22,7.62 114.73,-7.61 159.06,-50.85 71.49,-69.73 77.05,-177.29 14.42,-264.72 -36.32,-50.7 -85.02,-86.4 -139.79,-114.39 -119.28,-60.95 -247.63,-80.33 -372.06,-82.28zm-592.17 698.23c34.54,-20.99 39.27,-43.12 15.51,-74.36 -16.82,-22.12 -39.29,-37.14 -63.73,-49.65 -10.65,-5.46 -16.51,-5.34 -18.18,9.11 -2.43,20.95 -4.19,41.8 -2.97,62.86 -2.06,50.88 2.76,55.88 52.6,54.42 1.84,-0.05 3.66,-0.46 5.49,-0.7 3.11,-0.1 6.22,-0.2 9.32,-0.3l1.43 -0.03 0.53 -1.35zm1218.49 -82.26c0.13,-12.4 0.65,-24.81 0.24,-37.19 -0.21,-6.5 1.93,-15.47 -4.65,-18.59 -5.54,-2.62 -11.18,4.07 -15.94,7.75 -20.08,15.55 -40.4,30.86 -59.63,47.42 -31.52,27.13 -28.27,45.29 10.44,62.73 5,2.25 10.52,3.36 15.8,5 11.62,4.12 23.21,6.68 35.77,3.68 8.91,-2.13 14.37,-6.13 15.03,-15.69 1.26,-18.36 4.92,-36.58 2.94,-55.11zm182.75 74.7c2.18,-5.09 4.2,-10.26 6.56,-15.28 5.34,-11.35 -0.8,-12.95 -9.77,-11.13 -27.83,5.62 -55.52,11.98 -82.01,22.38 -14.27,5.6 -18.47,17.8 -16.05,31.84 2.11,12.32 7.09,23.68 17.5,31.72 5.5,8.11 14.31,10.71 22.69,14.58 16.78,7.76 27.57,4.18 34.58,-13.48 8.14,-20.49 17.61,-40.44 26.5,-60.63zm81.83 208.52c6.91,-5.32 0.44,-6.66 -2.75,-8.14 -16.64,-7.73 -33.12,-15.89 -50.19,-22.55 -32.1,-12.53 -46.73,-1.4 -44.97,33.53 0.21,4.14 2.25,8.2 3.44,12.29 11.91,23.64 21.08,27.21 43.7,15.71 15.32,-7.8 31.17,-14.87 44.28,-26.43 1.74,-1.04 3.47,-2.07 5.2,-3.11l1.13 -0.08 0.16 -1.22zm-1735.84 -170.67c-0.15,1.14 0.15,2.14 0.91,3 3.42,22.16 13.13,42.28 20.18,63.28 4.71,14.04 14.86,20.11 28.02,19.75 15.17,-0.42 31.07,-0.64 43.43,-12.15 13.55,-8.35 16.58,-22.4 19.25,-36.38 5.35,-28.04 3.16,-32.5 -22.62,-44.93 -21.25,-10.23 -43.55,-17.51 -66.74,-22.01 -29.33,-5.69 -32.07,-2.93 -24.71,25.25 0.76,1.4 1.52,2.79 2.28,4.19zm-75.13 220.81c0.17,0.93 0.66,1.65 1.46,2.16 19.66,26.51 47.33,40.4 78.52,46.82 17.75,3.66 32.58,-3.98 41.51,-20.73 3.36,-4.58 5.16,-9.65 5.9,-15.35 4.48,-34.03 -23.57,-68.19 -51.41,-61.68 -22.3,5.23 -43.5,13.91 -62.57,26.67 -7.06,4.72 -17.26,8.64 -14.9,20.74l0.21 1.29 1.28 0.08zm1301.6 -1351.72l41 0c6.1,7.91 10.28,16.43 11.76,26.63 9.19,63.72 6.06,127.38 -2.62,190.68 -4.01,29.23 -7.76,56.45 0.08,86.73 15.19,58.76 16.48,118.84 -8.73,176.38 -4.53,10.34 1.64,12.59 7.98,16.32 28.37,16.7 54.7,36.26 79.75,57.56 12.21,10.39 23.75,21.31 37.87,29.54 139.77,81.45 251.48,192.18 338.54,327.93 20.67,32.23 37.61,66.76 40.18,106.27 0.33,5.09 1.61,9.65 6.47,12.57 11.84,7.13 19.53,18.64 29.23,28.05l0 14.91c-6.99,1.87 -13.98,3.75 -21.49,5.77 4.72,9.01 14.1,16.17 14.28,27.31 0.26,16.1 -14.97,9.85 -22.71,13.23 1.28,13.75 15.59,26.58 3.99,37.6 -10.66,10.12 -25.54,-0.1 -38.59,-0.86 -0.33,14.34 8.37,31.47 -5.35,40.35 -13.54,8.75 -24.64,-4.78 -35.08,-13.14 -5.07,-4.06 -11.61,-4.11 -14.87,0.83 -6.14,9.3 -12.76,18.14 -19.26,27.13 -6.77,9.38 6.23,38.6 17.36,42.82 20.79,7.88 41.66,15.68 60.51,27.69 16.91,10.77 17.49,18.34 1.62,31.14 -20.34,16.41 -42.99,29.68 -67.44,38.47 -11.17,4.01 -15.32,9.97 -18.18,19.99 -9.23,32.41 -23.13,62.78 -45.21,88.43 -71.42,82.97 -162.22,120.68 -270.92,108.4 -65.42,-7.38 -122.09,-36.02 -162.92,-89.77 -7.58,-9.99 -14.21,-11.23 -24.7,-8.68 -100.42,24.38 -202.71,33.67 -305.66,35.05 -118.06,1.57 -235.03,-9.68 -350.35,-35.92 -9.77,-2.22 -17.18,-1.07 -23.91,8.01 -12.25,16.53 -27.69,30.18 -44.82,41.63 -66.4,44.39 -139.63,57.42 -217.9,47.07 -90.06,-11.9 -158.74,-55.83 -202.83,-136 -4.61,-8.39 -9.61,-11.58 -18.91,-14.31 -29.96,-8.78 -57.47,-23.2 -78.66,-46.93 -14.45,-16.17 -13.15,-28.7 2.54,-43.42 9.59,-9 20.35,-17.04 32.65,-20.91 28.07,-8.81 46.79,-24.08 47.13,-55.93 0.05,-4.7 2.51,-9.59 4.65,-14 5.37,-11.09 1.07,-16.79 -6.12,-27.15 -17.73,-25.53 -33.44,-31.06 -58.03,-10.22 -10.1,8.56 -17.43,1.76 -18.26,-10.31 -0.68,-9.68 -0.14,-19.44 -0.14,-29.18 -13.46,1.58 -30.23,7.87 -38.54,-1.51 -8,-9.03 3.56,-22.89 7.81,-34.32 0.29,-0.78 -0.41,-1.92 -0.59,-2.65 -9.96,-3.01 -24.52,4.88 -29.28,-6.65 -5.59,-13.54 9.91,-22.2 15.24,-33.57 -23.42,-2.92 -27.77,-13.4 -13.79,-32.68 6.23,-8.59 12.95,-17.21 23.16,-20.87 6.07,-2.17 6.77,-5.66 7.59,-10.89 5.91,-37.8 20.67,-72.46 40.08,-104.97 67.7,-113.39 161.15,-202.36 267.71,-278.32 27.64,-19.7 60.3,-32.95 85.93,-54.72 36.96,-31.4 73.7,-62.51 115.95,-86.56 5.96,-3.39 9.93,-6.7 7.29,-14.52 -24.91,-73.89 -15.08,-146.41 9.17,-218.22 1.47,-4.35 1.37,-7.86 0.75,-12.31 -5.5,-39.85 -11.53,-79.68 -15.2,-119.72 -2.7,-29.59 -3.6,-59.51 2.37,-89.07 4.55,-22.51 12.47,-29.26 35.31,-29.16 7.44,0.03 15.06,-0.22 22.27,1.26 52.77,10.83 103.86,27.04 152.81,49.65 7.6,3.51 13.88,4.63 22.58,1.95 113.85,-35.02 229.44,-35.99 345.03,-12.01 34.93,7.24 65.72,7.22 99.61,-5.52 46.36,-17.43 95.09,-28.55 142.81,-42.38z"/>
   <path class="fil5" d="M2554.29 2158.13c124.43,1.95 252.78,21.33 372.06,82.28 54.77,27.99 103.47,63.7 139.79,114.39 62.64,87.43 57.07,194.99 -14.42,264.72 -44.33,43.25 -98.84,58.47 -159.06,50.84 -84.84,-10.73 -169.69,-21.93 -253.97,-36.27 -78.02,-13.28 -153.97,-5.58 -230.51,10.06 -88.56,18.09 -176.62,39.93 -266.83,48.31 -94.06,8.74 -178.43,-41.05 -191.34,-131.02 -9.1,-63.42 7.36,-123.07 41.67,-177.33 48.04,-75.96 119.16,-123.31 199.6,-158.05 113.26,-48.92 232.63,-67.36 363.01,-67.93z"/>
   <path class="fil5" d="M2691.77 1972.32c-22.78,2.35 -46.43,2.48 -68.99,10.19 -4.4,1.5 -11.42,1.83 -9.43,8.35 1.88,6.19 8.29,3.24 12.96,2.44 58.14,-9.87 115.66,-11.81 171.15,13.02 2.87,1.27 5.93,2.85 8.44,-0.14 3.43,-4.1 -0.01,-6.82 -2.73,-9.09 -8.75,-7.28 -19.3,-10.97 -29.97,-14.22 -26.35,-8.03 -53.73,-8.06 -81.43,-10.55zm-421.6 36.1c62.7,-12.61 125.58,-20.29 189.55,-10.37 -28.24,-27.71 -158.96,-20.93 -189.55,10.37zm411.17 85.14c-0.57,-4.92 -1.07,-9.85 -1.72,-14.76 -1.7,-12.82 -1.36,-29.11 -16.4,-32.25 -15.72,-3.29 -22.66,11.79 -29.74,23.41 -0.32,0.52 -0.59,1.1 -0.75,1.69 -2.3,8.36 -8.05,9.16 -15.7,8.33 -49.51,-5.38 -99.08,-5.08 -148.59,0 -8.73,0.89 -12.7,-2.4 -17.14,-9.63 -7.17,-11.64 -12.71,-29.96 -29.38,-26.85 -16.81,3.14 -17.43,21.84 -20.63,36.19 -0.28,1.21 -0.45,2.45 -0.82,3.64 -3.92,12.41 -1.47,18.77 13.46,15.96 11.54,-2.18 23.34,-3.2 35.08,-4.06 74.34,-5.42 148.63,-8.13 222.39,6.62 6.47,1.29 11.32,-0.02 9.94,-8.29zm-139.46 53.28c-115.26,0.91 -228.62,13.6 -337.17,55.28 -9.75,3.75 -12.19,0.95 -14.63,-8.32 -18,-68.25 -4.19,-131.71 30.77,-190.73 38.11,-64.33 91.77,-109.9 166.85,-126.16 13.57,-2.94 26.17,-1.97 39.35,4.79 29.68,15.23 60.61,28 90.45,42.96 15.74,7.88 30.38,7.96 46.25,1.44 35.46,-14.55 71.37,-28.01 106.61,-43.05 13.38,-5.71 26.3,-6.13 39.69,-3.05 112.41,25.93 208.23,147.23 206.65,261.42 -0.26,19.38 -4.84,37.86 -10.74,56.24 -3.03,9.48 -6.66,12.49 -16.51,8.32 -96.43,-40.77 -228.74,-59.83 -347.57,-59.14z"/>
   <path class="fil5" d="M2931.54 3123.72c-0.27,44.63 19.27,78.38 57.34,101.13 49.79,29.74 121.09,22.92 165.06,-15.12 10.55,-9.13 17.6,-20.44 21.47,-33.99 20.66,-72.49 -32.71,-147.5 -110.18,-156.96 -74.71,-9.12 -133.93,26.83 -133.69,104.94zm412.63 -188.79c10.6,18.59 14.5,38.06 18.97,57.33 1.29,5.58 0.74,8.93 -6.03,12.8 -28.98,16.51 -37.6,63.16 -14.16,87.21 13.74,14.1 11.89,24.77 6.52,40.59 -38.81,114.41 -210.44,237.67 -375.5,149.15 -62.71,-33.63 -95.81,-88.63 -106.68,-156.93 -13.74,-86.37 4.01,-166.26 56.67,-237.24 31.82,-42.89 76.62,-63.22 127.49,-72.97 9,-1.73 13.84,1.07 19.31,9.02 21.39,31.1 53.07,41.33 89.21,38.91 20.59,-1.37 29.97,-11.13 33.16,-33.14 1.23,-8.58 3.73,-10.8 11.67,-7.94 6.39,2.31 13.15,3.6 19.51,5.97 8.69,3.24 19.11,5.12 25.18,11.2 6.94,6.95 -3.12,15.32 -4.26,23.48 -5.97,42.84 40.08,89.08 82.72,82.85 6.91,-1.01 10.82,-5.47 16.22,-10.29z"/>
   <path class="fil5" d="M2066.19 3038.14c-46.72,1.84 -87.86,12.86 -121.72,43.74 -36.46,33.25 -48.22,88.4 -27.92,130.85 19.45,40.67 63.89,61.29 113.93,54.91 54.6,-6.96 92.91,-38 123.45,-80.73 12.41,-17.38 19.78,-37.44 16.17,-59.33 -10.7,-64.75 -40.49,-89.57 -103.91,-89.44zm-239.01 -162.63c8.54,-4.47 14.96,-8.16 21.65,-11.27 14.59,-6.78 24.49,-12.68 43.37,1.67 31.85,24.21 81.56,25.23 109.31,-24.69 8.01,-14.38 16.84,-16.19 30.56,-15.59 110.33,4.82 201.88,99.49 206.81,210.86 6.42,144.96 -99.83,255.89 -230.33,270.12 -90.09,9.81 -169.81,-9.32 -233.4,-77.73 -12.71,-13.67 -22.96,-29.16 -31.76,-45.68 -4.01,-7.53 -3.74,-11.05 4.92,-15.38 24.87,-12.44 35.6,-34.96 33.81,-61.3 -1.98,-28.97 -19.8,-49.85 -46.06,-60.24 -13.92,-5.51 -16.97,-11.06 -11.71,-23.53 0.23,-0.56 0.1,-1.25 0.27,-1.84 2.88,-10.1 3.49,-21.83 9.25,-29.88 7.29,-10.21 19.13,-0.59 28.77,-0.31 63.81,1.89 77.66,-39.62 76.66,-93.54 -0.15,-8.27 -6.2,-14.57 -12.12,-21.67z"/>
   <path class="fil6" d="M1960.16 2857.74c-3.1,0.1 -6.21,0.2 -9.3,0.3 -12.85,-11.9 -25.39,-24.2 -38.72,-35.56 -6.78,-5.78 -8.53,-16.88 -19.39,-18.16 -1.22,-21.06 0.54,-41.91 2.97,-62.86 1.67,-14.45 7.53,-14.57 18.18,-9.11 24.44,12.51 46.91,27.53 63.73,49.65 23.76,31.24 19.03,53.37 -15.5,74.34 -0.98,-0.02 -1.64,0.45 -1.97,1.4z"/>
   <path class="fil6" d="M3126.86 2841.22c-5.28,-1.64 -10.79,-2.74 -15.8,-5 -38.7,-17.44 -41.96,-35.6 -10.44,-62.74 19.24,-16.55 39.56,-31.86 59.64,-47.41 4.76,-3.68 10.4,-10.38 15.94,-7.75 6.58,3.13 4.44,12.09 4.65,18.58 0.4,12.39 -0.11,24.8 -0.25,37.19 -9.87,4.03 -10.53,14.44 -14.76,22.16 -9.8,17.91 -19.96,35.19 -38.98,44.97z"/>
   <path class="fil6" d="M1707.07 2882.46c-7.36,-28.18 -4.62,-30.94 24.71,-25.25 23.19,4.51 45.5,11.78 66.74,22.02 25.78,12.42 27.97,16.89 22.62,44.92 -2.67,13.99 -5.7,28.03 -19.23,36.37 -16.46,-11.92 -35.13,-20.4 -50.46,-34.19 -13.67,-12.29 -23.91,-28.47 -41.19,-36.68 -0.76,-0.86 -1.07,-1.86 -0.9,-2.98 -0.76,-1.39 -1.52,-2.8 -2.29,-4.21z"/>
   <path class="fil6" d="M1632.72 3106.09c-2.35,-12.11 7.86,-16.02 14.9,-20.74 19.08,-12.76 40.28,-21.45 62.58,-26.66 27.84,-6.52 55.89,27.65 51.42,61.67 -0.75,5.7 -2.55,10.77 -5.9,15.33 -27.29,-3.95 -54.43,-8.63 -81.07,-16.05 -12.92,-3.58 -24.97,-10.66 -38.97,-10.02 -0.8,-0.51 -1.29,-1.23 -1.45,-2.15 -0.01,-0.96 -0.52,-1.43 -1.51,-1.38z"/>
   <path class="fil6" d="M3279.59 2908.33c-10.41,-8.04 -15.39,-19.4 -17.5,-31.72 -2.42,-14.04 1.78,-26.24 16.05,-31.84 26.49,-10.4 54.18,-16.76 82.01,-22.38 8.97,-1.82 15.11,-0.22 9.77,11.13 -2.36,5.01 -4.38,10.19 -6.55,15.27 -10.07,5.58 -15.05,15.86 -22.32,24.05 -16.5,18.58 -32.85,37.74 -61.46,35.49z"/>
   <path class="fil6" d="M3350.71 3072.45c-1.19,-4.1 -3.21,-8.15 -3.42,-12.29 -1.78,-34.93 12.86,-46.06 44.97,-33.53 17.06,6.66 33.54,14.82 50.18,22.54 3.19,1.49 9.66,2.83 2.75,8.14 0.01,-0.01 -1.03,0.29 -1.03,0.29l-0.26 1.02c-1.73,1.04 -3.46,2.08 -5.19,3.09 -29.8,-0.32 -58.38,9.48 -88,10.74z"/>
   <path class="fil5" d="M1710.26 2889.65c17.28,8.21 27.53,24.39 41.19,36.68 15.33,13.79 34,22.27 50.45,34.19 -12.37,11.52 -28.27,11.74 -43.44,12.16 -13.16,0.36 -23.31,-5.71 -28.02,-19.75 -7.05,-21 -16.76,-41.12 -20.18,-63.28z"/>
   <path class="fil5" d="M1635.67 3109.62c14.01,-0.64 26.06,6.43 38.98,10.03 26.64,7.4 53.78,12.09 81.07,16.04 -8.94,16.76 -23.77,24.4 -41.51,20.75 -31.21,-6.42 -58.87,-20.31 -78.54,-46.82z"/>
   <path class="fil5" d="M3279.59 2908.33c28.61,2.25 44.96,-16.91 61.46,-35.49 7.27,-8.19 12.25,-18.47 22.32,-24.05 -8.9,20.2 -18.37,40.15 -26.51,60.64 -7.01,17.66 -17.8,21.24 -34.58,13.48 -8.38,-3.87 -17.19,-6.47 -22.69,-14.58z"/>
   <path class="fil5" d="M3126.86 2841.22c19.02,-9.78 29.18,-27.06 38.98,-44.97 4.23,-7.72 4.89,-18.13 14.76,-22.16 1.98,18.54 -1.67,36.76 -2.94,55.12 -0.65,9.56 -6.11,13.57 -15.02,15.69 -12.56,3 -24.15,0.44 -35.78,-3.68z"/>
   <path class="fil5" d="M1892.75 2804.31c10.86,1.29 12.61,12.39 19.39,18.17 13.33,11.36 25.87,23.65 38.72,35.56 -1.84,0.24 -3.67,0.65 -5.5,0.7 -49.86,1.46 -54.67,-3.54 -52.61,-54.43z"/>
   <path class="fil5" d="M3350.71 3072.45c29.62,-1.26 58.2,-11.06 88,-10.74 -13.12,11.57 -28.97,18.65 -44.29,26.44 -22.62,11.51 -31.79,7.94 -43.71,-15.7z"/>
   <path class="fil6" d="M3483.77 2906.65c-11.25,-0.2 -19.02,-5.25 -27.18,-8.85 -4.22,-1.86 -7.4,-4.98 -5.65,-10.07 1.8,-5.2 3.83,-10.73 9.39,-13.05 5.06,-2.1 8.11,1.64 10.47,5.3 5.11,7.94 11.06,15.57 12.97,26.67z"/>
   <path class="fil6" d="M3442.51 2932.64c-1.38,4.18 1.52,12.02 -4.62,10.15 -9.22,-2.81 -18.47,-9.56 -20.04,-19.56 -1.27,-8.08 8.57,-14.73 14.41,-13.73 12.78,2.19 6.48,15.67 10.25,23.14z"/>
   <path class="fil6" d="M3464.31 2845.76c1.85,-3.92 -2.48,-11.58 6.51,-12.04 5.42,-0.28 27.2,20.72 27.01,25.95 -0.19,5.27 -3.77,5.53 -7.68,4.41 -10.61,-3.02 -26.52,1.51 -25.84,-18.32z"/>
   <path class="fil6" d="M3504.45 2815.54c-12.09,6.85 -20.27,5.23 -28.62,3.06 -7.33,-1.89 -7.87,-7.17 -7.49,-12.71 0.27,-4.03 -0.83,-9.49 3.64,-11.64 5.43,-2.61 8.93,2.48 12.64,5.29 6.77,5.14 13.24,10.65 19.83,16z"/>
   <path class="fil6" d="M3372.8 2955.18c-3.93,-9.87 -6.54,-16.45 -9.37,-23.56 7.32,-1.84 14.73,-3.98 18.48,3.08 3.99,7.5 -4.01,11.74 -9.11,20.48z"/>
   <path class="fil6" d="M1702.21 2928.73c5.65,7.43 10.6,15.29 10.48,28.34 -6.46,-10.48 -13.19,-17.37 -10.48,-28.34z"/>
   <path class="fil5" d="M1707.07 2882.46c0.77,1.41 1.53,2.82 2.29,4.21 -0.77,-1.41 -1.52,-2.81 -2.29,-4.21z"/>
   <path class="fil5" d="M1960.16 2857.74c0.33,-0.95 0.99,-1.42 1.97,-1.4 -0.01,0.02 -0.54,1.37 -0.54,1.37l-1.43 0.03z"/>
   <path class="fil5" d="M3443.9 3058.62l0.25 -1.03c0,0 1.06,-0.29 1.04,-0.28 0,0.01 -0.15,1.22 -0.15,1.22l-1.14 0.09z"/>
   <path class="fil4" d="M2639.92 2082.36c10.94,2.76 19.36,6.37 29.91,5.55 -2.06,-9.22 -0.73,-21.19 -10.59,-23.62 -10.76,-2.66 -13.5,9.53 -19.32,18.07zm-193.93 2.71c-7.85,-12.25 -9.04,-26.86 -21.31,-25.01 -7.92,1.19 -14.22,16.65 -10.51,23 6.42,11 17.89,-2.12 31.82,2.01zm235.35 8.49c1.38,8.27 -3.47,9.58 -9.94,8.29 -73.76,-14.75 -148.05,-12.04 -222.39,-6.62 -11.74,0.86 -23.54,1.88 -35.08,4.05 -14.94,2.82 -17.38,-3.54 -13.46,-15.95 0.37,-1.18 0.54,-2.42 0.81,-3.64 3.21,-14.36 3.83,-33.04 20.64,-36.19 16.67,-3.11 22.21,15.22 29.38,26.85 4.45,7.23 8.41,10.53 17.14,9.63 49.51,-5.08 99.08,-5.38 148.59,0 7.65,0.83 13.4,0.03 15.69,-8.33 0.17,-0.59 0.44,-1.16 0.76,-1.69 7.08,-11.62 14.02,-26.7 29.74,-23.41 15.04,3.14 14.71,19.43 16.4,32.25 0.65,4.91 1.16,9.84 1.72,14.76z"/>
   <path class="fil4" d="M2270.17 2008.42c30.59,-31.3 161.31,-38.08 189.55,-10.37 -63.96,-9.92 -126.85,-2.24 -189.55,10.37z"/>
   <path class="fil4" d="M2691.77 1972.32c27.7,2.49 55.08,2.52 81.43,10.55 10.67,3.25 21.22,6.94 29.97,14.22 2.72,2.27 6.16,4.99 2.73,9.09 -2.51,2.99 -5.57,1.41 -8.44,0.14 -55.49,-24.83 -113.01,-22.89 -171.15,-13.02 -4.67,0.8 -11.08,3.75 -12.96,-2.44 -1.99,-6.52 5.03,-6.85 9.43,-8.35 22.56,-7.71 46.21,-7.84 68.99,-10.19z"/>
   <path class="fil4" d="M2931.54 3123.72c-0.24,-78.11 58.98,-114.06 133.69,-104.94 77.47,9.46 130.84,84.47 110.18,156.96 -3.87,13.55 -10.92,24.86 -21.47,33.99 -43.97,38.04 -115.27,44.86 -165.06,15.12 -38.07,-22.75 -57.61,-56.5 -57.34,-101.13z"/>
   <path class="fil4" d="M2066.19 3038.14c63.42,-0.13 93.21,24.69 103.91,89.44 3.61,21.89 -3.76,41.95 -16.17,59.33 -30.54,42.73 -68.85,73.77 -123.45,80.73 -50.04,6.38 -94.48,-14.24 -113.93,-54.91 -20.3,-42.45 -8.54,-97.6 27.92,-130.85 33.86,-30.88 75,-41.9 121.72,-43.74z"/>
   <path class="fil6" d="M2445.98 2085.07c-13.92,-4.13 -25.39,8.99 -31.81,-2.01 -3.7,-6.35 2.59,-21.81 10.52,-23 12.26,-1.85 13.45,12.77 21.29,25.01z"/>
   <path class="fil6" d="M2639.92 2082.36c5.82,-8.54 8.56,-20.73 19.32,-18.07 9.86,2.43 8.53,14.4 10.59,23.62 -10.55,0.82 -18.97,-2.79 -29.91,-5.55z"/>
   <polygon class="fil5" points="2005.58,1246.95 1992.95,1246.95 1992.95,1336.42 1970.35,1336.42 1970.35,1246.95 1957.72,1246.95 1957.72,1233.54 2005.58,1233.54 "/>
   <polygon class="fil5" points="2054.08,1336.42 2009.88,1336.42 2009.88,1233.54 2053.79,1233.54 2053.79,1246.74 2032.48,1246.74 2032.48,1274.57 2051.71,1274.57 2051.71,1287.06 2032.48,1287.06 2032.48,1323.22 2054.08,1323.22 "/>
   <polygon class="fil5" points="1938.59,1449.93 1916.62,1449.93 1916.62,1401.94 1910.48,1401.94 1910.48,1449.93 1888.51,1449.93 1888.51,1349.9 1910.48,1349.9 1910.48,1389.8 1916.62,1389.8 1916.62,1349.9 1938.59,1349.9 "/>
   <path class="fil5" d="M1975.23 1409.19l-3.16 -29.85 -2.98 29.85 6.14 0zm27.26 40.74l-21.78 0 -3.71 -26.85 -9.74 0 -3.76 26.85 -21.77 0 16.43 -100.03 27.86 0 16.47 100.03z"/>
   <path class="fil5" d="M2005.9 1409.89l19.95 0 0 22.95c0,2.28 1.39,3.42 4.15,3.42 2.67,0 4.01,-1.14 4.01,-3.42l0 -11.86c0,-3.62 -2.42,-7.88 -7.25,-12.76 -9.35,-9.07 -15.16,-15.16 -17.44,-18.27 -2.28,-3.12 -3.42,-6.54 -3.42,-10.26l0 -11.23c0,-12.97 8.48,-19.46 25.43,-19.46 15.18,0 22.77,5.91 22.77,17.71l0 17.31 -19.95 0 0 -18.42c0,-2 -1.11,-3 -3.35,-3 -2.6,0 -3.9,1.93 -3.9,5.79l0.42 6.49c0,3.71 2.47,8.04 7.42,12.97 9.18,8.79 15.01,14.93 17.5,18.41 2.5,3.49 3.74,7.44 3.74,11.86l0 12.77c0,13.3 -8.49,19.95 -25.49,19.95 -16.39,0 -24.59,-6.05 -24.59,-18.14l0 -22.81z"/>
   <polygon class="fil5" points="2163.9,1449.32 2092,1449.32 2092,1281.95 2163.43,1281.95 2163.43,1303.42 2128.76,1303.42 2128.76,1348.71 2160.05,1348.71 2160.05,1369.02 2128.76,1369.02 2128.76,1427.85 2163.9,1427.85 "/>
   <polygon class="fil5" points="2263.46,1449.32 2225.64,1449.32 2200.66,1360.15 2200.66,1449.32 2169.96,1449.32 2169.96,1281.95 2211.75,1281.95 2232.76,1358.28 2232.76,1281.95 2263.46,1281.95 "/>
   <path class="fil5" d="M2351.93 1340.42l-33.39 0 0 -33.14c0,-2.73 -1.69,-4.09 -5.07,-4.09 -3.54,0 -5.31,1.36 -5.31,4.09l0 116.13c0,2.73 1.77,4.08 5.31,4.08 3.38,0 5.07,-1.35 5.07,-4.08l0 -41.32 33.39 0 0 42.49c0,7.93 -3.9,14.29 -11.68,19.08 -7.78,4.79 -16.57,7.18 -26.37,7.18 -28.33,0 -42.49,-10.04 -42.49,-30.12l0 -107.72c0,-21.71 14.16,-32.57 42.49,-32.57 25.37,0 38.05,9.89 38.05,29.65l0 30.34z"/>
   <path class="fil5" d="M2407.6 1422.48l0 -114.03c0,-3.35 -1.98,-5.03 -5.95,-5.03 -4.13,0 -6.19,1.68 -6.19,5.03l0 114.03c0,3.34 2.06,5.01 6.19,5.01 3.97,0 5.95,-1.67 5.95,-5.01zm-47.97 -1.76l0 -107.73c0,-21.7 14.07,-32.56 42.19,-32.56 27.74,0 41.61,10.78 41.61,32.33l0 107.73c0,9.72 -3.87,17.22 -11.59,22.47 -7.74,5.25 -17.82,7.87 -30.25,7.87 -27.98,0 -41.96,-10.03 -41.96,-30.11z"/>
   <polygon class="fil5" points="2544.74,1449.32 2506.93,1449.32 2481.95,1360.15 2481.95,1449.32 2451.25,1449.32 2451.25,1281.95 2493.03,1281.95 2514.05,1358.28 2514.05,1281.95 2544.74,1281.95 "/>
   <polygon class="fil5" points="2629.48,1303.78 2608.93,1303.78 2608.93,1449.32 2572.17,1449.32 2572.17,1303.78 2551.63,1303.78 2551.63,1281.95 2629.48,1281.95 "/>
   <path class="fil5" d="M2685.03 1339.82l0 -27.62c0,-5.85 -3.77,-8.78 -11.32,-8.78l0 45.29c7.55,0 11.32,-2.96 11.32,-8.89zm42.25 109.73l-36.76 0c-3.97,-4.75 -5.96,-18.2 -5.96,-40.38l0 -0.24 0.24 -10.03c0.23,-13.93 0.35,-21.05 0.35,-21.36 0,-5.68 -3.81,-8.52 -11.44,-8.52l0 80.3 -36.77 0 0 -167.37 45.4 0c10.36,0 19.37,2.37 27.03,7.12 7.66,4.75 11.49,12.25 11.49,22.53l0 20.07c0,12.99 -7.59,21.79 -22.75,26.38 15.25,3.58 22.87,12.8 22.87,27.66l-0.58 18.32c0,26.77 2.3,41.95 6.88,45.52z"/>
   <path class="fil5" d="M2786.03 1381.16l-5.29 -49.96 -5 49.96 10.29 0zm45.59 68.16l-36.43 0 -6.2 -44.94 -16.3 0 -6.29 44.94 -36.43 0 27.48 -167.37 46.63 0 27.54 167.37z"/>
   <path class="fil5" d="M2884.15 1418.96l0 -106.77c0,-5.84 -3.5,-8.77 -10.5,-8.77l0 124.43c7,0 10.5,-2.96 10.5,-8.89zm-47.27 30.36l0 -167.37 45.89 0c9.98,0 18.87,2.7 26.66,8.11 7.81,5.41 11.72,13.72 11.72,24.92l0 101.31c0,10.43 -3.66,18.54 -10.95,24.34 -7.3,5.79 -16.36,8.69 -27.2,8.69l-46.12 0z"/>
   <path class="fil5" d="M2976.35 1422.48l0 -114.03c0,-3.35 -1.98,-5.03 -5.95,-5.03 -4.12,0 -6.18,1.68 -6.18,5.03l0 114.03c0,3.34 2.06,5.01 6.18,5.01 3.97,0 5.95,-1.67 5.95,-5.01zm-47.97 -1.76l0 -107.73c0,-21.7 14.07,-32.56 42.2,-32.56 27.74,0 41.6,10.78 41.6,32.33l0 107.73c0,9.72 -3.87,17.22 -11.59,22.47 -7.74,5.25 -17.82,7.87 -30.25,7.87 -27.97,0 -41.96,-10.03 -41.96,-30.11z"/>
   <path class="fil5" d="M3094.16 1281.52l-19.47 0 0 -19.33c0,-1.59 -0.99,-2.39 -2.97,-2.39 -2.06,0 -3.1,0.8 -3.1,2.39l0 67.75c0,1.59 1.04,2.39 3.1,2.39 1.98,0 2.97,-0.8 2.97,-2.39l0 -24.11 19.47 0 0 24.79c0,4.63 -2.27,8.34 -6.81,11.13 -4.54,2.79 -9.67,4.19 -15.39,4.19 -16.52,0 -24.78,-5.86 -24.78,-17.57l0 -62.85c0,-12.66 8.26,-18.99 24.78,-18.99 14.8,0 22.2,5.76 22.2,17.29l0 17.7z"/>
   <path class="fil5" d="M3126.64 1329.39l0 -66.52c0,-1.96 -1.16,-2.93 -3.47,-2.93 -2.41,0 -3.62,0.97 -3.62,2.93l0 66.52c0,1.95 1.21,2.93 3.62,2.93 2.31,0 3.47,-0.98 3.47,-2.93zm-27.99 -1.01l0 -62.86c0,-12.66 8.2,-19 24.62,-19 16.18,0 24.27,6.29 24.27,18.87l0 62.84c0,5.68 -2.26,10.05 -6.76,13.11 -4.52,3.07 -10.4,4.6 -17.65,4.6 -16.32,0 -24.48,-5.85 -24.48,-17.56z"/>
   <polygon class="fil5" points="3206.65,1345.06 3184.59,1345.06 3170.01,1293.03 3170.01,1345.06 3152.11,1345.06 3152.11,1247.41 3176.48,1247.41 3188.74,1291.94 3188.74,1247.41 3206.65,1247.41 "/>
   <path class="fil5" d="M3046.23 1356.07l20.67 0 0 79c0,1.88 1.15,2.82 3.47,2.82 2.28,0 3.42,-0.94 3.42,-2.82l0 -79 20.66 0 0 77.88c0,5.42 -2.25,9.63 -6.75,12.6 -4.51,2.98 -10.28,4.46 -17.33,4.46 -6.51,0 -12.17,-1.33 -16.96,-4 -4.79,-2.66 -7.18,-6.97 -7.18,-12.93l0 -78.01z"/>
   <polygon class="fil5" points="3151.47,1450.16 3130.21,1450.16 3116.17,1400.03 3116.17,1450.16 3098.92,1450.16 3098.92,1356.07 3122.4,1356.07 3134.21,1398.98 3134.21,1356.07 3151.47,1356.07 "/>
   <polygon class="fil5" points="2547.51,2871.52 2500.95,2871.52 2470.19,2761.73 2470.19,2871.52 2432.39,2871.52 2432.39,2665.44 2483.84,2665.44 2509.71,2759.43 2509.71,2665.44 2547.51,2665.44 "/>
   <path class="fil5" d="M2616.06 2838.47l0 -140.41c0,-4.12 -2.44,-6.18 -7.33,-6.18 -5.07,0 -7.61,2.06 -7.61,6.18l0 140.41c0,4.12 2.54,6.18 7.61,6.18 4.89,0 7.33,-2.06 7.33,-6.18zm-59.06 -2.16l0 -132.65c0,-26.73 17.31,-40.1 51.95,-40.1 34.15,0 51.23,13.28 51.23,39.82l0 132.65c0,11.97 -4.76,21.19 -14.27,27.66 -9.54,6.47 -21.94,9.7 -37.25,9.7 -34.44,0 -51.66,-12.36 -51.66,-37.08z"/>
   <path class="fil5" d="M2371.92 2951.41l0 -34.49c0,-5.08 -3.52,-7.63 -10.53,-7.63l0 49.74c7.01,0 10.53,-2.54 10.53,-7.62zm-10.53 28.18l0 52.95 -30.79 0 0 -143.8 33.2 0c13.16,0 22.94,1.67 29.33,5.01 6.38,3.34 9.57,10.16 9.57,20.46l0 39.91c0,9.43 -2.61,16.1 -7.82,20.01 -5.21,3.91 -16.38,5.73 -33.49,5.46z"/>
   <path class="fil5" d="M2408.22 2888.74l31.58 0 0 120.74c0,2.87 1.78,4.3 5.32,4.3 3.48,0 5.22,-1.43 5.22,-4.3l0 -120.74 31.58 0 0 119.03c0,8.29 -3.44,14.71 -10.33,19.25 -6.88,4.55 -15.7,6.82 -26.47,6.82 -9.96,0 -18.6,-2.04 -25.92,-6.12 -7.32,-4.07 -10.98,-10.66 -10.98,-19.75l0 -119.23z"/>
   <polygon class="fil5" points="2550.51,3032.54 2488.74,3032.54 2488.74,2888.74 2550.11,2888.74 2550.11,2907.19 2520.33,2907.19 2520.33,2946.1 2547.21,2946.1 2547.21,2963.55 2520.33,2963.55 2520.33,3014.08 2550.51,3014.08 "/>
   <path class="fil5" d="M2595.84 3006.46l0 -91.74c0,-5.03 -3.01,-7.53 -9.03,-7.53l0 106.9c6.02,0 9.03,-2.55 9.03,-7.63zm-40.61 26.08l0 -143.8 39.42 0c8.58,0 16.21,2.32 22.92,6.97 6.7,4.64 10.06,11.78 10.06,21.41l0 87.04c0,8.96 -3.14,15.93 -9.41,20.91 -6.27,4.98 -14.06,7.47 -23.36,7.47l-39.63 0z"/>
   <polygon class="fil5" points="2695.92,3032.54 2634.15,3032.54 2634.15,2888.74 2695.51,2888.74 2695.51,2907.19 2665.73,2907.19 2665.73,2946.1 2692.61,2946.1 2692.61,2963.55 2665.73,2963.55 2665.73,3014.08 2695.92,3014.08 "/>
   <path class="fil5" d="M2701.03 2974.98l28.68 0 0 32.99c0,3.28 1.99,4.92 5.97,4.92 3.84,0 5.77,-1.64 5.77,-4.92l0 -17.05c0,-5.21 -3.48,-11.33 -10.44,-18.35 -13.43,-13.04 -21.79,-21.79 -25.06,-26.27 -3.28,-4.48 -4.92,-9.4 -4.92,-14.75l0 -16.14c0,-18.65 12.19,-27.98 36.55,-27.98 21.83,0 32.75,8.49 32.75,25.47l0 24.87 -28.68 0 0 -26.47c0,-2.88 -1.61,-4.31 -4.82,-4.31 -3.74,0 -5.61,2.77 -5.61,8.32l0.6 9.33c0,5.35 3.56,11.56 10.66,18.65 13.21,12.64 21.59,21.46 25.17,26.47 3.6,5.02 5.38,10.7 5.38,17.05l0 18.35c0,19.13 -12.22,28.68 -36.65,28.68 -23.56,0 -35.35,-8.69 -35.35,-26.07l0 -32.79z"/>
   <path class="fil5" d="M2367.09 3119.59l0 -38.32c0,-5.65 -3.9,-8.47 -11.7,-8.47l0 55.26c7.8,0 11.7,-2.83 11.7,-8.47zm-11.7 31.31l0 58.83 -34.2 0 0 -159.77 36.88 0c14.63,0 25.49,1.85 32.59,5.56 7.09,3.72 10.63,11.3 10.63,22.74l0 44.34c0,10.47 -2.89,17.88 -8.68,22.22 -5.8,4.35 -18.2,6.37 -37.22,6.08z"/>
   <path class="fil5" d="M2458.93 3144.66l-5.05 -47.69 -4.77 47.69 9.82 0zm43.53 65.07l-34.78 0 -5.92 -42.9 -15.56 0 -6 42.9 -34.78 0 26.24 -159.77 44.51 0 26.29 159.77z"/>
   <path class="fil5" d="M2507.92 3145.77l31.87 0 0 36.66c0,3.64 2.2,5.46 6.62,5.46 4.28,0 6.41,-1.82 6.41,-5.46l0 -18.94c0,-5.8 -3.86,-12.59 -11.59,-20.39 -14.93,-14.49 -24.21,-24.22 -27.85,-29.19 -3.64,-4.98 -5.46,-10.44 -5.46,-16.38l0 -17.94c0,-20.72 13.54,-31.08 40.61,-31.08 24.25,0 36.38,9.43 36.38,28.3l0 27.63 -31.87 0 0 -29.41c0,-3.2 -1.78,-4.8 -5.34,-4.8 -4.17,0 -6.24,3.09 -6.24,9.25l0.66 10.36c0,5.95 3.96,12.86 11.85,20.72 14.67,14.04 23.99,23.85 27.97,29.42 3.99,5.57 5.98,11.88 5.98,18.94l0 20.39c0,21.24 -13.58,31.86 -40.73,31.86 -26.18,0 -39.27,-9.65 -39.27,-28.96l0 -36.44z"/>
   <path class="fil5" d="M2646.67 3144.66l-5.05 -47.69 -4.78 47.69 9.83 0zm43.53 65.07l-34.78 0 -5.93 -42.9 -15.56 0 -6 42.9 -34.78 0 26.24 -159.77 44.51 0 26.3 159.77z"/>
   <path class="fil5" d="M2742.11 3105.2l0 -26.37c0,-5.58 -3.6,-8.37 -10.8,-8.37l0 43.22c7.2,0 10.8,-2.82 10.8,-8.48zm40.34 104.75l-35.1 0c-3.79,-4.53 -5.68,-17.38 -5.68,-38.55l0 -0.23 0.22 -9.57c0.22,-13.3 0.33,-20.1 0.33,-20.39 0,-5.43 -3.64,-8.14 -10.91,-8.14l0 76.66 -35.1 0 0 -159.77 43.34 0c9.88,0 18.48,2.26 25.79,6.79 7.32,4.53 10.98,11.7 10.98,21.51l0 19.16c0,12.41 -7.25,20.79 -21.73,25.18 14.56,3.42 21.84,12.22 21.84,26.4l-0.56 17.5c0,25.55 2.19,40.03 6.58,43.45z"/>
   <path class="fil7" d="M3271.03 2388.23c0.21,-0.94 0.29,-2.24 0.29,-3.49 0,-3.17 -0.93,-5.77 -2.96,-7.56 -1.88,-1.75 -5.29,-3.29 -11.54,-3.29 -5.74,0 -9.27,1.59 -11.09,3.69 -1.35,1.51 -2.08,3.54 -2.08,6.42 0,1.59 0.17,3.01 0.53,4.23l26.85 0zm-24.66 -3.12c-0.12,-0.42 -0.16,-0.98 -0.16,-1.47 0,-4.39 3.78,-6.51 10.69,-6.51 9.31,0 11.78,3.35 11.78,6.79 0,0.29 0,0.74 -0.08,1.19l-22.23 0zm-2.6 -14.97l27.39 0 0 -3.12 -27.39 0 0 3.12zm26.46 -6.78c0.56,-0.77 1.17,-2.76 1.17,-4.63 0,-4.34 -2.96,-7.68 -7.68,-7.68 -3.04,0 -5.56,1.46 -7.88,4.75 -1.87,2.61 -2.92,4.02 -5.64,4.02 -1.88,0 -3.91,-1.25 -3.91,-3.93 0,-1.42 0.45,-2.56 0.93,-3.25l-2.68 -0.77c-0.48,0.64 -1.01,2.15 -1.01,3.85 0,4.35 3.05,7.24 7.2,7.24 3.52,0 6.09,-3.01 7.59,-5.16 1.62,-2.16 3.16,-3.62 5.69,-3.62 2.76,0 4.63,1.71 4.63,4.55 0,1.38 -0.49,3.01 -1.1,3.94l2.69 0.69zm-14.71 -25.97l0 6.87 -9.02 0 0 -7.31 -2.73 0 0 10.44 27.39 0 0 -10.94 -2.72 0 0 7.81 -10.28 0 0 -6.87 -2.64 0zm15.64 -7.24l-9.47 0c-5.85,0 -9.34,0.09 -13,0.34l0 -0.08c3.41,-0.98 6.54,-2.16 9.3,-3.26l13.17 -5.2 0 -2.97 -27.39 0 0 2.81 9.79 0c4.76,0 8.29,-0.12 12.6,-0.36l0 0.07c-2.96,0.94 -6.62,2.37 -9.55,3.49l-12.84 5.05 0 2.96 27.39 0 0 -2.85zm-29.18 -1.62c-1.06,-0.11 -1.58,-0.36 -1.58,-0.97 0,-0.49 0.33,-0.94 0.69,-1.5 0.33,-0.54 0.69,-1.18 0.69,-2 0,-1.78 -1.38,-2.56 -3.65,-2.52l0 1.64c1.09,0.11 1.46,0.43 1.46,1.09 0,0.53 -0.37,1.01 -0.74,1.58 -0.32,0.57 -0.69,1.14 -0.69,1.96 0,1.49 1.54,2.43 3.82,2.39l0 -1.67zm20.97 -23.76l8.21 -1.83 0 -3.09 -27.39 6.09 0 3.46 27.39 6.25 0 -3 -8.21 -1.82 0 -6.06zm-2.51 5.61l-6.96 -1.43c-1.82,-0.36 -4.18,-0.77 -6.26,-1.09l0 -0.16c2.04,-0.33 4.31,-0.69 6.26,-1.1l6.96 -1.43 0 5.21zm10.59 -13.95c0.21,-0.93 0.29,-2.23 0.29,-3.49 0,-3.17 -0.93,-5.77 -2.96,-7.55 -1.88,-1.75 -5.29,-3.3 -11.54,-3.3 -5.74,0 -9.27,1.59 -11.09,3.7 -1.35,1.51 -2.08,3.54 -2.08,6.42 0,1.58 0.17,3 0.53,4.22l26.85 0zm-24.66 -3.12c-0.12,-0.41 -0.16,-0.98 -0.16,-1.46 0,-4.39 3.78,-6.51 10.69,-6.51 9.31,0 11.78,3.34 11.78,6.78 0,0.29 0,0.74 -0.08,1.19l-22.23 0zm-2.92 -21.86c0,4.79 4.91,8.04 13.98,8.04 9.21,0 14.05,-3.04 14.05,-7.6 0,-4.39 -3.94,-7.93 -14.22,-7.93 -8.73,0 -13.81,2.81 -13.81,7.49zm2.76 0.28c0,-3.57 6.06,-4.51 11.17,-4.51 5.37,0 11.34,0.94 11.34,4.47 0,3.46 -5.61,4.55 -11.26,4.55 -5.56,0 -11.25,-1.09 -11.25,-4.51zm24.95 -17.88l0 -3.12 -11.22 0c0.05,-0.45 0.05,-0.85 0.05,-1.38 0,-2.44 -1.02,-4.97 -3.06,-6.46 -1.38,-1.06 -3.08,-1.67 -5.6,-1.67 -2.35,0 -4.35,0.69 -5.65,2.04 -1.41,1.41 -2.03,3.52 -2.03,6.04 0,1.79 0.2,3.3 0.53,4.55l26.98 0zm-24.74 -3.12c-0.13,-0.42 -0.21,-1.03 -0.21,-1.75 0,-3.46 2.52,-4.63 5.32,-4.63 3.86,0 5.9,2.07 5.9,5.16 0,0.53 -0.05,0.85 -0.13,1.22l-10.88 0zm-2.97 -20c0,4.8 4.91,8.04 13.98,8.04 9.21,0 14.05,-3.04 14.05,-7.6 0,-4.39 -3.94,-7.92 -14.22,-7.92 -8.73,0 -13.81,2.81 -13.81,7.48zm2.76 0.28c0,-3.57 6.06,-4.5 11.17,-4.5 5.37,0 11.34,0.93 11.34,4.47 0,3.45 -5.61,4.55 -11.26,4.55 -5.56,0 -11.25,-1.1 -11.25,-4.52zm24.95 -11.49l0 -3.12 -11.95 0 0 -1.23c0,-2.68 1.42,-3.85 5.16,-4.47 3.38,-0.52 5.97,-1.05 6.79,-1.46l0 -3.17c-0.85,0.36 -3.17,0.94 -6.95,1.55 -3.58,0.61 -5.52,1.66 -6.14,3.7l-0.08 0c-1.25,-2.77 -3.53,-4.39 -7.02,-4.39 -2.16,0 -3.99,0.56 -5.37,1.91 -1.38,1.42 -1.95,3.44 -1.95,6.17 0,1.55 0.17,3.17 0.53,4.51l26.98 0zm-24.82 -3.12c-0.13,-0.42 -0.17,-1.03 -0.17,-1.63 0.04,-3.37 1.99,-4.67 5.16,-4.67 3.29,0 5.49,1.99 5.49,4.99l0 1.31 -10.48 0zm24.82 -37.02l0 -2.93 -27.39 1.58 0 3.5 12.52 3.09c3.7,0.88 6.3,1.5 9.42,2.02l0 0.13c-3.12,0.56 -5.8,1.26 -9.42,2.19l-12.52 3.21 0 3.38 27.39 1.62 0 -2.81 -11.58 -0.53c-3.9,-0.16 -7.73,-0.32 -10.93,-0.32l0 -0.12c3.17,-0.53 6.55,-1.34 10.04,-2.23l12.31 -3.21 0 -2 -12.84 -3.37c-3.22,-0.85 -6.47,-1.58 -9.51,-2.19l0 -0.16c3.09,0.11 7.11,-0.08 10.73,-0.29l11.78 -0.56zm-8.21 -16.26l8.21 -1.83 0 -3.09 -27.39 6.1 0 3.45 27.39 6.26 0 -3.01 -8.21 -1.82 0 -6.06zm-2.51 5.61l-6.96 -1.43c-1.82,-0.36 -4.18,-0.77 -6.26,-1.09l0 -0.16c2.04,-0.33 4.31,-0.69 6.26,-1.1l6.96 -1.43 0 5.21zm10.72 -18.94l-11.7 0 -15.69 -6.3 0 3.29 6.75 2.32c2.11,0.72 4.18,1.41 6.3,1.99l0 0.08c-2.12,0.61 -4.27,1.34 -6.18,2.03l-6.87 2.44 0 3.29 15.81 -6.01 11.58 0 0 -3.13zm-0.13 -15.29c0.21,-0.93 0.29,-2.23 0.29,-3.49 0,-3.16 -0.93,-5.77 -2.96,-7.55 -1.88,-1.75 -5.29,-3.3 -11.54,-3.3 -5.74,0 -9.27,1.59 -11.09,3.7 -1.35,1.51 -2.08,3.54 -2.08,6.42 0,1.59 0.17,3 0.53,4.22l26.85 0zm-24.66 -3.12c-0.12,-0.41 -0.16,-0.98 -0.16,-1.46 0,-4.39 3.78,-6.51 10.69,-6.51 9.31,0 11.78,3.34 11.78,6.79 0,0.29 0,0.73 -0.08,1.18l-22.23 0zm24.79 -14.96l0 -3.12 -11.95 0 0 -1.22c0,-2.68 1.42,-3.86 5.16,-4.47 3.38,-0.53 5.97,-1.06 6.79,-1.46l0 -3.17c-0.85,0.36 -3.17,0.93 -6.95,1.54 -3.58,0.61 -5.52,1.66 -6.14,3.7l-0.08 0c-1.25,-2.76 -3.53,-4.39 -7.02,-4.39 -2.16,0 -3.99,0.57 -5.37,1.91 -1.38,1.42 -1.95,3.45 -1.95,6.18 0,1.54 0.17,3.17 0.53,4.5l26.98 0zm-24.82 -3.12c-0.13,-0.41 -0.17,-1.03 -0.17,-1.62 0.04,-3.38 1.99,-4.68 5.16,-4.68 3.29,0 5.49,1.99 5.49,5l0 1.3 -10.48 0zm16.61 -23.09l8.21 -1.83 0 -3.08 -27.39 6.09 0 3.45 27.39 6.26 0 -3.01 -8.21 -1.82 0 -6.06zm-2.51 5.61l-6.96 -1.43c-1.82,-0.35 -4.18,-0.77 -6.26,-1.09l0 -0.16c2.04,-0.32 4.31,-0.69 6.26,-1.1l6.96 -1.42 0 5.2zm10.72 -18.57l-13.21 -2.73c-3.04,-0.64 -6.01,-1.09 -9.1,-1.49l0 -0.09c3,-0.32 6.09,-0.85 8.98,-1.38l13.33 -2.63 0 -3.06 -27.39 -5.32 0 3.04 13.05 2.28c3.12,0.53 6.09,1.02 10.03,1.47l0 0.12c-3.82,0.36 -6.94,0.97 -10.19,1.58l-12.89 2.52 0 2.69 13.16 2.51c3.51,0.65 6.47,1.3 9.92,1.63l0 0.16c-3.37,0.33 -6.41,0.78 -9.87,1.34l-13.21 2.32 0 3.24 27.39 -5.27 0 -2.93z"/>
   <path class="fil7" d="M1826.42 2015.18l-27.69 6.75 0 3.71 13.27 3.33c2.64,0.63 5.21,1.15 8.48,1.61l0 0.11c-3.14,0.45 -5.61,0.86 -8.3,1.54l-13.45 3.21 0 3.61 27.69 6.97 0 -4.39 -13.45 -2.65c-3.15,-0.62 -6,-1.13 -8.92,-1.47l0 -0.23c3.1,-0.47 6.02,-1.09 9.1,-1.79l13.27 -3.03 0 -3.38 -13.68 -3.19c-2.62,-0.64 -5.84,-1.33 -8.69,-1.72l0 -0.23c2.85,-0.36 5.84,-0.97 8.81,-1.49l13.56 -2.7 0 -4.57zm0 33.55l-27.69 6.74 0 3.72 13.27 3.33c2.64,0.63 5.21,1.15 8.48,1.6l0 0.12c-3.14,0.45 -5.61,0.86 -8.3,1.54l-13.45 3.21 0 3.6 27.69 6.98 0 -4.4 -13.45 -2.64c-3.15,-0.62 -6,-1.14 -8.92,-1.48l0 -0.23c3.1,-0.47 6.02,-1.08 9.1,-1.78l13.27 -3.04 0 -3.37 -13.68 -3.2c-2.62,-0.63 -5.84,-1.33 -8.69,-1.72l0 -0.22c2.85,-0.36 5.84,-0.98 8.81,-1.5l13.56 -2.69 0 -4.57zm0 33.54l-27.69 6.75 0 3.72 13.27 3.32c2.64,0.63 5.21,1.15 8.48,1.61l0 0.11c-3.14,0.46 -5.61,0.86 -8.3,1.54l-13.45 3.22 0 3.6 27.69 6.97 0 -4.39 -13.45 -2.65c-3.15,-0.61 -6,-1.13 -8.92,-1.47l0 -0.23c3.1,-0.47 6.02,-1.09 9.1,-1.79l13.27 -3.03 0 -3.37 -13.68 -3.2c-2.62,-0.63 -5.84,-1.33 -8.69,-1.72l0 -0.23c2.85,-0.35 5.84,-0.97 8.81,-1.49l13.56 -2.69 0 -4.58zm-28.15 34.92c0,1.84 1.32,2.92 3.31,2.92 2.01,0 3.33,-1.15 3.33,-2.92 0,-1.6 -1.38,-2.92 -3.33,-2.92 -1.99,0 -3.31,1.25 -3.31,2.92zm0.46 12.87l27.69 0 0 -4.4 -27.69 0 0 4.4zm37.72 -2.29c0,-1.43 -1.15,-2.58 -2.87,-2.58 -1.71,0 -2.86,1.09 -2.86,2.53 0,1.66 1.15,2.74 2.86,2.68 1.72,0 2.87,-1.02 2.87,-2.63zm-37.72 8.42l0 4.4 39.6 0 0 -4.4 -39.6 0zm27.69 27.54l0 -4.42 -18.25 0c-0.91,0 -1.77,-0.06 -2.52,-0.22 -1.26,-0.23 -3.66,-1.38 -3.66,-3.96 0,-3.04 3.21,-3.72 7.56,-3.72l16.87 0 0 -4.41 -17.5 0c-6.87,0 -10.65,1.9 -10.65,6.76 0,2.97 2,5.1 3.38,5.96l0 0.11 -2.92 0.28 0 3.84c2.06,-0.06 4.46,-0.22 7.56,-0.22l20.13 0zm-26.43 4.35c-0.97,1.2 -1.6,3.42 -1.6,5.48 0,4.53 2.69,8.31 8.24,8.31 3.83,0 6.34,-2.52 8.4,-5.73 1.9,-2.74 2.92,-3.44 4.82,-3.44 1.77,0 3.49,1.2 3.49,3.62 0,1.43 -0.52,2.63 -1.2,3.65l3.31 1.2c0.7,-1.14 1.44,-2.79 1.44,-4.97 0,-4.3 -3.21,-7.62 -7.67,-7.62 -3.21,0 -5.55,1.95 -7.9,5.56 -1.88,2.79 -3.31,3.54 -5.44,3.54 -2.47,0 -4.01,-1.54 -4.01,-4.06 0,-1.78 0.8,-3.48 1.43,-4.46l-3.31 -1.08zm32.5 19.33l-6.07 0 0 -3.37 -3.37 0 0 3.37 -16.02 0c-3.84,0 -5.72,0.59 -6.99,1.68 -1.2,1.08 -1.65,2.62 -1.65,4.34 0,1.43 0.16,2.47 0.45,3.27l3.37 -0.18c-0.11,-0.51 -0.16,-1.09 -0.16,-1.77 0,-1.61 0.98,-2.92 4.58,-2.92l16.42 0 0 5.32 3.37 0 0 -5.32 7.34 0 -1.27 -4.42zm-33.76 13.58l0 4.42 15.33 0c0.92,0 1.78,0.05 2.53,0.16 3.2,0.45 5.78,2.52 5.78,5.32 0,0.34 0,0.63 -0.07,0.93l4.53 0c0,-0.3 0.06,-0.59 0.06,-0.93 0,-2.56 -2.17,-4.91 -4.82,-5.84l0 -0.11 4.35 -0.23 0 -3.94c-2.06,0.05 -4.8,0.22 -7.15,0.22l-20.54 0zm0 28.85c1.77,-0.27 4.18,-0.27 6.29,-0.27l11.96 0c6.25,0 9.91,-2.42 9.91,-7.97 0,-2.74 -0.97,-5.32 -1.83,-6.46l-3.1 0.97c0.86,1.32 1.43,2.86 1.43,4.58 0,3.49 -2.57,4.4 -6.3,4.4l-0.84 0c-0.07,-6.23 -3.17,-11.78 -10.08,-11.78 -4.75,0 -7.9,2.85 -7.9,6.57 0,2.35 1.25,4.3 3.38,5.5l0 0.18 -2.92 0.27 0 4.01zm8.69 -4.62c-0.45,0 -1.02,0 -1.54,-0.13 -2.74,-0.51 -4.18,-2.18 -4.18,-4.12 0,-1.55 1.33,-3.38 4.93,-3.38 6,0 6.41,5.32 6.41,7.63l-5.62 0zm-8.69 14.92l27.69 0 0 -4.39 -27.69 0 0 4.39zm37.72 -2.29c0,-1.42 -1.15,-2.57 -2.87,-2.57 -1.71,0 -2.86,1.08 -2.86,2.53 0,1.65 1.15,2.74 2.86,2.67 1.72,0 2.87,-1.02 2.87,-2.63zm1.88 20.72l-14.76 0 0 -0.11c2.35,-1.09 3.32,-3.03 3.32,-5.05 0,-4.28 -4.59,-8.35 -14.42,-8.35 -9.1,0 -14.2,3.39 -14.2,8.08 0,2.92 1.95,4.87 3.94,5.77l0 0.18 -3.48 0.28 0 3.78c1.6,-0.05 4.75,-0.23 6.63,-0.23l32.97 0 0 -4.35zm-29.82 0c-0.68,0 -1.32,-0.06 -1.83,-0.17 -4.01,-0.98 -4.74,-2.86 -4.74,-4.24 0,-3.19 4.69,-4.69 10.53,-4.69 5.55,0 10.64,1.27 10.64,4.92 0,2.13 -2.51,3.84 -5.38,4.12 -0.64,0.06 -1.25,0.06 -1.84,0.06l-7.38 0zm3.67 26.52c0.68,0.05 1.42,0.05 2.46,0.05 6.3,0 12.25,-2.23 12.25,-7.91 0,-5.54 -5.61,-9.33 -14.6,-9.33 -8.47,0 -13.9,3.44 -13.9,10.08 0,2.18 0.45,4.53 1.31,6.07l3.26 -0.68c-0.63,-1.09 -1.09,-2.7 -1.09,-4.58 0,-3.21 1.84,-6.52 10.31,-6.59l0 12.89zm3.26 -12.82c3.78,0.16 8.01,1.65 8.01,4.51 0,2.13 -2.46,4.24 -8.01,4.12l0 -8.63zm-16.71 32.56c1.77,-0.27 4.18,-0.27 6.29,-0.27l11.96 0c6.25,0 9.91,-2.42 9.91,-7.97 0,-2.74 -0.97,-5.32 -1.83,-6.46l-3.1 0.98c0.86,1.31 1.43,2.85 1.43,4.57 0,3.49 -2.57,4.4 -6.3,4.4l-0.84 0c-0.07,-6.23 -3.17,-11.78 -10.08,-11.78 -4.75,0 -7.9,2.85 -7.9,6.57 0,2.35 1.25,4.3 3.38,5.5l0 0.18 -2.92 0.28 0 4zm8.69 -4.62c-0.45,0 -1.02,0 -1.54,-0.13 -2.74,-0.5 -4.18,-2.18 -4.18,-4.12 0,-1.54 1.33,-3.38 4.93,-3.38 6,0 6.41,5.32 6.41,7.63l-5.62 0zm-7.43 8.7c-0.97,1.2 -1.6,3.42 -1.6,5.48 0,4.53 2.69,8.31 8.24,8.31 3.83,0 6.34,-2.52 8.4,-5.73 1.9,-2.74 2.92,-3.44 4.82,-3.44 1.77,0 3.49,1.2 3.49,3.62 0,1.43 -0.52,2.63 -1.2,3.65l3.31 1.2c0.7,-1.14 1.44,-2.79 1.44,-4.97 0,-4.3 -3.21,-7.62 -7.67,-7.62 -3.21,0 -5.55,1.95 -7.9,5.56 -1.88,2.79 -3.31,3.54 -5.44,3.54 -2.47,0 -4.01,-1.54 -4.01,-4.06 0,-1.78 0.8,-3.48 1.43,-4.46l-3.31 -1.08zm-1.72 20.26c0,1.83 1.32,2.92 3.31,2.92 2.01,0 3.33,-1.16 3.33,-2.92 0,-1.61 -1.38,-2.93 -3.33,-2.93 -1.99,0 -3.31,1.25 -3.31,2.93zm4.51 21.4c-0.45,-1.04 -0.73,-2.02 -0.73,-3.22 0,-4.05 3.9,-6.52 10.35,-6.52 5.44,0 10.71,2.01 10.71,6.41 0,1.43 -0.45,2.58 -0.74,3.15l3.6 0.86c0.45,-0.8 0.86,-2.4 0.86,-3.9 0,-6.92 -6.46,-10.93 -14.43,-10.93 -9.15,0 -14.01,4.07 -14.01,10.14 0,1.95 0.45,3.6 1.02,4.57l3.37 -0.56zm24.11 12.06c0,-4.75 -4.23,-9.28 -14.37,-9.28 -9.74,0 -14.25,4.01 -14.25,8.99 0,4.24 3.6,9.22 14.31,9.22 9.67,0 14.31,-4.01 14.31,-8.93zm-3.55 -0.17c0,3.89 -6.52,4.64 -10.76,4.64 -4.3,0 -10.82,-0.75 -10.82,-4.53 0,-4.01 6.25,-4.8 10.82,-4.8 4.24,0 10.76,0.74 10.76,4.69zm-24.61 14.03l0 4.35 17.57 0c0.86,0 1.65,0.05 2.4,0.16 2.92,0.52 4.46,2.35 4.46,4.12 0,3.26 -3.19,3.85 -6.29,3.85l-18.14 0 0 4.35 17.79 0c0.93,0 1.79,0.04 2.52,0.16 2.58,0.63 4.12,2.24 4.12,4.07 0,3.37 -3.49,3.89 -7.09,3.89l-17.34 0 0 4.35 18.36 0c7.04,0 9.8,-2.92 9.8,-6.63 0,-1.45 -0.34,-2.76 -1.08,-3.85 -0.7,-1.02 -1.79,-1.99 -3.15,-2.74l0 -0.11c2.97,-1.04 4.23,-3.22 4.23,-5.8 0,-2.9 -1.67,-5.03 -3.89,-6.23l0 -0.11 3.42 -0.23 0 -3.84c-2.22,0.06 -3.88,0.24 -7.15,0.24l-20.54 0z"/>
   <polygon class="fil5" points="2780.8,1272.16 2796.45,1272.16 2815.85,1241.9 2798.32,1241.9 "/>
  </g>
 </g>
</svg>
