<?xml version="1.0" encoding="UTF-8"?>
<!DOCTYPE svg PUBLIC "-//W3C//DTD SVG 1.1//EN" "http://www.w3.org/Graphics/SVG/1.1/DTD/svg11.dtd">
<!-- Creator: CorelDRAW 2017 -->
<svg xmlns="http://www.w3.org/2000/svg" xml:space="preserve" width="5.5878mm" height="5.5878mm" version="1.1" style="shape-rendering:geometricPrecision; text-rendering:geometricPrecision; image-rendering:optimizeQuality; fill-rule:evenodd; clip-rule:evenodd"
viewBox="0 0 558.78 558.78"
 xmlns:xlink="http://www.w3.org/1999/xlink">
 <defs>
  <style type="text/css">
   <![CDATA[
    .fil0 {fill:none}
    .fil3 {fill:#282627}
    .fil1 {fill:#2C2A2B}
    .fil2 {fill:#2C2A2B}
    .fil5 {fill:#363536}
    .fil6 {fill:#393738}
    .fil4 {fill:#4A4949}
   ]]>
  </style>
 </defs>
 <g id="Capa_x0020_1">
  <metadata id="CorelCorpID_0Corel-Layer"/>
  <rect class="fil0" x="-0" y="-0" width="558.79" height="558.79"/>
  <g id="_2211414369808">
   <path class="fil1" d="M77.71 319.5c2.09,3.69 8.79,1.66 16.42,1.44 3.32,-0.1 5.4,0.47 8.65,0.44 2.77,-0.02 4.5,-0.62 7.2,0.19 1.51,0.46 1.27,0.47 2.03,0.98 -3.72,0.21 -7.49,0.33 -10.92,0.4 -7.6,0.14 -4.39,-0.8 -8.59,0.83 -0.21,0.08 -0.51,0.2 -0.75,0.35l33.53 -0.17c-0.82,1.07 -0.12,0.74 -1.44,1.24 -6.18,2.36 -33.23,-1.23 -39.79,1.91 13.55,1.25 40.72,-0.81 47.44,1.8 0.2,0.08 0.48,0.21 0.69,0.36 -9.4,-0.34 -8.53,0.6 -19.49,-0.73l-14.58 1.29c4.77,3.99 12.5,0.9 15.94,1.46l-21.07 0.88c1.5,-2.31 1.64,-1.08 3.68,-2.41 -1.86,-0.55 -16.86,0.04 -19.74,-1.61 0.05,-0.04 -0.95,-1.05 4.72,-1.14 -1.83,-1.62 2.2,-0.6 -3.32,-1.76l10.08 -1.28c1.77,-0.54 1.34,-0.51 1.93,-0.82l-13.82 -0.53c1.01,-2.44 2.42,-3.25 1.52,-5 0.24,0.08 0.6,-0.12 0.75,0.15 0.64,1.17 0.74,0.18 1.52,0.24l9.34 -0.8c2.82,-0.45 7.72,0.2 11.56,0.11 1.02,-0.02 21.42,3.21 22.37,3.6 -3.07,1.32 -23.66,-2.74 -33.61,-1.66 -5.48,0.6 -6.85,-0.87 -12.25,0.24zm0.17 -21.54c-0.99,-1.24 -6.68,-8.15 -3.52,-1.21 -12.99,-12.51 -1.92,-18.32 3.52,1.21zm103.43 -25.58l4 1.66c0.18,0.07 0.48,0.16 0.68,0.31 -1.02,1.24 -1.36,1.91 -2.23,2.81 -0.56,-1.41 1.02,-0.9 -0.5,-1.84 -4.12,-2.55 -2.9,1.08 -3.07,1.44 0.75,1.63 2.96,3.06 4.55,3.93 2.68,1.48 2.08,-1.44 3.71,3.67l-1.4 -0.82c-1.55,-1.16 -0.19,-0.29 -1.49,-1.25 -2.06,-1.54 -0.64,-1.01 -3.68,-1.34l2.24 4.1c-1.24,0.48 -0.8,-0.14 -1.66,0.78 -1.7,1.82 0.01,0.93 -2.11,4.91l-2.61 4.73c-1.56,1.81 0.46,-0.44 -0.93,0.92 -0.15,0.15 -0.41,0.36 -0.54,0.48 -0.14,0.13 -0.37,0.34 -0.56,0.5 3.49,-11.99 8.41,-11.17 3.7,-14.44 -0.78,3.09 -1.71,4.58 -3.18,6.99 -1.24,-1.82 -1.56,2.29 -0.65,-2.21l3.65 -6.13c-0.18,-0.16 -0.5,-0.58 -0.61,-0.4 -0.11,0.18 -0.47,-0.28 -0.62,-0.36l-3.72 -2.37c-3.01,2.77 -4.55,5.89 -5.8,9.43 -0.65,1.87 -0.94,2.6 -1.44,4.61 1.63,0.24 1.98,-0.12 3.29,-0.85 0.13,3.99 -1.2,1.59 1.54,3.3 2.07,-1.51 0.27,-2.2 3.88,-4.17 -0.59,4.48 -1.15,3.85 -3.08,7.08l-1.06 -0.67c-0.11,-0.08 -0.38,-0.24 -0.51,-0.34 -0.12,-0.09 -0.34,-0.24 -0.47,-0.35 -2.44,-1.92 -1.59,-2.55 -4.51,-2.85 -0.03,-0.01 -0.18,0.02 -0.26,-0.02l-0.49 -4.82c3.4,-1.65 0.72,0.85 4.06,-5.67 2.06,-4.04 3.44,-1.94 2.79,-7.96l3.59 0.76c5.33,0.36 3.82,-3.43 8.91,-10.41 1.88,-2.57 0.75,-3.75 2.41,-5.83 1.41,0.87 2.23,-0.61 0.81,2.51l-3.93 7.47c-1.73,3.21 0.35,1.19 -2.7,2.71zm-6.11 -22.3c3.53,5.12 3.51,0.64 7.69,6.6l-4.6 4.65c-0.12,-0.23 -0.21,-0.88 -0.21,-0.75 0,0 -0.48,-1.12 0.15,-2.39 0.73,-1.5 0.2,0.6 1.74,-1.68 -1.61,-0.13 -0.89,-0.15 -1.84,0.33l-3.68 4.65c-6.08,8.29 0.78,3.36 -4.83,6.46l4.15 4.54 -5.56 -1.56c-0.15,-0.11 -0.31,-0.26 -0.45,-0.37l-2.01 -2.25c-1.34,-1.53 -0.36,0.61 -1.11,-1.19 -0.74,1.87 0.63,-1.04 5.03,5.62 -2.85,2.15 -2.24,1.43 -3.91,5.01l-3.1 5.63c-0.89,1.84 -1.43,3.87 -2.83,5.08l-11.07 -10.93c-1.24,-0.94 -1.2,-0.92 -2.58,-1.58 2.56,-9.96 7.44,-11.6 7.22,-16.58l4.29 1.28c-2.71,-1.17 0.73,-5.47 1.43,-6.83 0.8,-1.55 0.43,-4.41 4.5,-2.76 -1.46,4.99 -1.22,0.56 -2.3,4.6l8.02 -8.8c0.03,-0.13 0.04,-0.42 0.12,-0.61 6.07,2.35 1.99,1.94 5.74,3.83zm2.6 -2.55c0.61,-3.53 5.17,-6.42 5.06,-10.75l-1.33 0.8c-2.62,2.5 -3.47,6.2 -5.53,8.83l-0.92 0.86c-2.25,-1.29 -4.79,-3.4 -5.38,-5.55 2.66,0.32 1.22,3.58 2.49,0.97 0.09,-0.17 0.38,0.2 0.58,0.27 1.05,-2.74 1.01,-1.8 2.28,-3.97l2.49 -3.71c-1.93,1.6 -0.28,2.09 -4.98,4.03 0.63,-4.44 3.55,-4.05 1.95,-7.46l5.13 1.33 -1.31 5.39c3.2,-1.5 1.95,-0.74 3.18,-3.1 1.82,1.6 6.54,1.91 5.53,4.36 -2.16,0.16 2.39,-0.78 -3.43,-0.93l-4.78 7.8c-0.06,0.09 -0.25,0.3 -0.3,0.37l-0.73 0.46zm258.3 -11.68c0.67,-4.42 0.36,-1.34 1.58,-2.06l1.69 -0.92c0.1,-0.28 0.34,-0.3 0.48,-0.48 -1.19,-2.53 -2.68,-4.56 -3.42,-6.51 0.81,1.03 1.7,1.36 2.69,2.85 1.63,2.47 0.01,1.8 2.56,3.79 0.38,-0.6 1.5,1.05 0.35,-2.64 -0.92,-2.95 -4.79,-5.95 -4.91,-6.51 -0.08,-0.33 -0.28,-0.4 -0.3,-0.39l4.86 -2.3c2.17,6.03 2.19,2.3 3.86,6.25 -2.37,-0.43 -0.41,0.84 -1.89,-1.16 -0.62,-0.84 0.43,-0.17 -0.73,-1.7 -1.41,-1.86 -0.78,-1.53 -3.39,-0.96l4.62 8.02 4.97 -1.14c-0.67,0.73 -0.45,0.6 -1.47,1.36 -0.63,0.47 -0.76,0.46 -1.51,0.91l-10.04 3.59zm-253.08 -8.98c1.19,-1.41 1.31,-1.94 2.36,-3.27 0.94,-1.17 1.76,-1.75 3.13,-2.46l3.43 -1.48 10.85 6.13c1.19,0.62 1.67,1.09 3.46,1.47 -0.19,0.15 -0.46,0.33 -0.6,0.41 -0.13,0.07 -0.41,0.3 -0.55,0.37l-1.93 5.28 -4.22 0.53c-1.08,4.88 0.69,3.89 -3.07,4.33l6.33 -10.47 -3.77 -1.32 -3.53 6.72c-3.35,4.46 -1.86,3.04 -4.57,4.3l-3.77 -3.21c1.05,-2.25 1.93,-1.98 2.87,-4.42 -2.88,1.87 -0.67,1.05 -1.87,2.38 -3.09,3.42 -3.09,0.64 -3.13,0.62 -0.21,-2.42 4.04,-5.31 7.57,-9.1 1.31,-1.42 1.61,-0.5 -0.07,-2.55l-2.4 2.66c-0.12,0.12 -0.28,0.28 -0.4,0.4 -7.29,7.22 0.89,6.15 -8.25,7.6 0.71,-4.94 -0.09,-2.3 2.13,-4.92zm29.43 -14.49c-3.85,-0.9 -2.77,-0.2 -3.53,0.51l-1.72 -2.89c-2.26,0.04 -1.34,-0.39 -2.98,0.99 0.28,-0.32 1,-1.7 1.38,-2.38 4.5,1.27 9.4,3.79 12.32,7.12 -1.42,2.31 -9.27,8.84 -6.14,10.61 0.13,0.08 0.39,0.27 0.55,0.35l1.21 0.51c1,0.45 0.44,-0.16 2.06,0.98 -1.55,1.08 -0.06,1.64 -3.93,-0.22 -2.63,-1.26 -1.42,-0.19 -3.42,-1.79 1.09,-2.36 1.63,-1.6 5.23,-7.32 3.37,-5.36 2.59,-2.94 1.77,-3.95 -0.5,-0.37 1.12,-1.69 -2.03,-0.56l-4.41 4.63c-2.16,2.47 -1.99,3.98 -2.41,6.41 -2.85,-0.73 -9.78,-5.99 -12.46,-8.14l1.81 -2.43c0.1,0.14 0.23,0.36 0.26,0.45 0.04,0.08 0.18,0.35 0.22,0.44l0.53 1.8c0.23,0.37 1.66,1.32 2.68,1.91l5.48 3.4c1.3,-3.44 5.34,-5.13 7.53,-10.43zm49.11 -35.46c2.3,-2.46 0,-1.5 2.24,-1.66 0.02,1.37 0.66,0.79 -2.1,3.29l-4.78 3.72c-0.08,-0.15 -0.3,0.35 -0.45,0.54 0.88,0.59 -1.1,0.68 2.58,1.24 2.34,0.37 7.77,-4.23 8.14,-7.18 0.04,-0.28 0.15,-0.36 0.25,-0.58l2.02 0.55 -3.92 4.1c-1.13,1.02 -2.35,1.89 -2.96,3.67 -0.02,0.05 0.04,0.41 0.03,0.33 -0.01,-0.08 0.06,0.23 0.1,0.34 3.09,1.89 2.29,-0.06 5.51,-1.59 -1.58,2.09 -1.57,2.44 -0.5,4.59l-7.74 -1.94c-3.24,-1.29 -3.4,-1.75 -7.4,-2.62l8.98 -6.8zm66.21 -8.63c0.11,-4.08 3.2,-9.62 5.5,-11.19 2.68,1.47 4.32,3.94 6.08,5.96 3.39,3.88 4.08,3.65 4.57,6.89 -4.69,0.65 -12.1,-0.52 -16.15,-1.66zm-7.99 -4.56c0.56,-0.85 1.3,-1.77 1.98,-2.88 3.48,-5.64 1.36,-4.16 4.39,-5.39 -0.35,2.88 -2.35,5.96 -3.17,9.55 5.96,-5.98 2.56,-6.97 6.81,-8.63l-4.33 11.83c-0.02,-0.11 -0.14,0.28 -0.25,0.64l-7.7 -1.06 2.27 -4.06zm-6.63 3.78c0.52,-4.07 2.09,-3.82 4.16,-6.3 2.82,-3.39 1.79,-3.77 4.93,-5.62 -2.07,9.62 -4.4,10.86 -9.09,11.92zm-208.71 133.66l-20.9 -1.13 20.9 1.13zm-32.08 -2.82c2.98,6.46 4.88,15.8 1.03,20.94 -0.86,6.86 -4.42,9.34 -7.49,12.96 -2.78,3.27 0.16,2.54 -2.8,5.94l-12.11 11.25c-0.42,0.44 -0.66,0.8 -1.13,1.26l-4.8 34.31 20.66 0.8c7,-0.79 15.35,-0.19 22.61,0.26 -0.14,-0.12 -0.36,-0.49 -0.43,-0.34 -0.14,0.28 0.06,-0.54 -2.15,-0.94l-11.68 -0.28c-7.95,-0.23 -21.38,0.84 -28.02,-1.1 -12.23,-3.57 -52.11,3.01 1.63,-4.46 -2.57,1.18 -3.1,-0.78 -3.43,-1.01 1.21,-1.75 -1.89,-1.32 2.81,-1.98 -67.39,5.5 1.37,-4.99 3.07,-6.05 -13.77,-3.74 -55.67,-11.1 6.86,-1.65 6.76,1.02 8.36,-0.69 14.5,-0.79 4.22,-0.07 10.62,1.31 14.1,-0.77 -2.05,-0.77 -5.91,-0.52 -8.47,-0.59 -3.84,-0.09 -6.59,0.99 -8.9,-1.02 3.1,-2.05 7.77,-0.32 12.41,-1.35 -4.82,0.33 -13.81,-1.45 -20.25,-0.82 -4.53,0.44 -18.4,1.53 -21.57,-0.24 1.65,-3.95 5.06,-3.04 6.23,-3.17l27.3 -1.12c3.91,0.22 3.84,0.45 5.09,1.57 -2.9,-0.36 -11.22,-0.8 -13.83,0.31 0.56,0.39 -0.08,0.31 1.65,0.6l8.65 -0.1c4.2,-0.09 7.58,1.17 11.6,-0.07 -3.26,-0.82 -3.03,-0.37 -4.99,-2.69 2.68,0.13 5.01,0.33 7.7,0.05 3.45,-0.37 2.89,-1.55 6.06,0.1 -1.76,1.59 -4.98,1.5 -6.54,2.18 4.51,1.94 6.88,-2.38 12.67,2.15 2.19,-2.39 0.68,-1.52 4.28,-2.22l-4.98 -2.43c-0.17,-0.09 -0.37,-0.2 -0.54,-0.29 -0.17,-0.09 -0.37,-0.2 -0.53,-0.29 -1.83,-0.96 0.23,-0.08 -1.56,-0.8 -1.93,-0.76 -1.7,-0.73 -3.88,-0.65 -5.1,0.2 -1.2,1.51 -11.28,1.59 -8.19,0.07 -6.67,-1.05 -10.03,-0.85l-15.24 0.29c-3.12,-0.01 -3.51,0.52 -6.26,-0.33 -0.13,-0.04 -0.4,-0.13 -0.57,-0.25 4.74,-3.01 33,0.07 41.84,-4.02l-22.18 0.7 3.72 -1.94c-3.26,-0.61 -2.68,0 -4.17,-1.72l6.49 -0.56c0.08,0.09 0.06,0.22 0.06,0.42l0.08 1.35c0.12,0.26 1.18,0.3 2.17,0.3l25.88 -0.91c-1.48,0.59 -20.65,-0.26 -25.49,-0.25 2.97,-2.39 8.85,-1.85 13.36,-1.84l27.3 0.55c3.35,0.2 8.12,0.08 11.3,-0.97 1.42,-0.47 1.05,-0.39 1.64,-0.68 -4.53,0.54 -7.58,0.41 -12.14,0.25 -2.71,-0.09 -10.29,-0.08 -8.82,-2.24l4.81 -1.28c-3.71,-0.09 -8.87,0.41 -12.86,0.4 -4.45,-0.02 -7.95,-0.75 -12.84,-0.81 -9.04,-0.12 -18,0.66 -27.11,-0.12 2.24,-1.43 0.92,-1.1 7.05,-1.03 2.89,0.04 4.9,-0.31 7.68,-0.7 -0.76,-0.55 -0.61,-0.56 -2,-1.05 -2.54,-0.9 -6.54,-0.53 -9.24,-0.48 5.86,-5.82 -2.91,-2.11 3.55,-4.61 1.49,1.77 -1.91,3.08 4.78,3.56 3.03,0.22 7.51,-0.29 10.02,0.42 -0.26,0.07 -1.27,0.3 -1.38,0.37 -2.46,1.67 -1.24,-0.64 -0.81,1.21 2.9,0.56 22.52,1.59 26.35,0.81 0.1,-0.02 1.12,-0.3 1.18,-0.32 1.75,-0.65 0.87,-0.29 1.5,-0.87 -5.04,-1.16 -20.03,0.3 -22.92,-1.61 4.93,-1.59 11.97,-1.38 17.36,-1.48 -3.24,-2.24 -13.07,-1.46 -21.69,-1.29l-2.43 -0.27c-0.11,-0.02 -0.36,-0.08 -0.51,-0.17 6.71,-2.15 51.62,-1.67 62.75,-0.67l-2.73 -0.15c2.02,-5.39 -1.79,0.93 0.95,-2.18l2.25 -1.82c-4.86,-0.09 -2.58,0.54 -4,-2.4 0.43,0.07 3.17,0.63 3.22,0.63l2.54 -1.27c0.05,-0.05 0.22,-0.24 0.27,-0.28l1.97 -0.45c0.07,-0.02 0.3,-0.09 0.37,-0.13 1.12,-0.5 2.97,-3.67 6.88,-2.53 -3.74,-3.45 -3.6,-1.72 -5.62,-5.61 -1.34,4.32 -0.84,3.86 -3.2,4.13 -3.71,0.43 -2.99,-0.81 -3.23,-3.33l-2 1.76c-1.35,0.86 -1.19,0.79 -2.81,1.45l-0.81 -3.21 -5.61 -0.01 4.81 -8.03c-0.2,-0.18 -1.33,-1.32 -1.39,-1.54l0 -2.46c-1.5,-0.09 -0.68,0.34 -0.95,-1.03 -0.88,-4.44 0.86,-0.76 1.35,-4.77 0.66,-5.28 0.28,-1.02 -0.62,-2.3l-1.58 3.86c-2.98,-2.8 1.89,-9.75 3.72,-11.53 0.15,-0.14 0.41,-0.34 0.53,-0.46 0.13,-0.12 0.37,-0.32 0.55,-0.48l5.14 3.07c-0.29,5.13 0.18,1.15 -1.01,3.98l-2.77 7.86c-0.06,0.16 -0.2,0.37 -0.25,0.52l-0.31 1.88c1.65,-0.96 0.18,0.43 1.29,-1.05l1 -1.79 -0.79 -3.37c1.31,-1.02 0.49,-0.15 1.72,-0.02l1.29 -5.44c2.9,1.21 0.73,0.18 2.69,1.34 3.26,1.92 0.07,-0.06 2.37,1.76 3.36,2.67 2.46,0.62 4.08,3.88 0.81,-2.89 -1.41,-0.32 1.83,-6.01 1.11,-1.94 2.7,-4.88 2.19,-6.3 -4.56,2.29 1.04,6.95 -7.2,9.16 -2.87,-4.64 -0.89,-3.21 -6.12,-6.42 0.26,-5.88 0.01,-1.27 0.73,-3.52l2.95 -7.72c1.19,1.01 -0.08,0.96 -1.63,2.91 -1.93,2.42 -1.19,2.84 -3.19,5 -3.6,-3.79 -3.44,-1.3 -4.81,-8.71 7.45,3.48 -5.69,-3.43 2.1,1.48 2.61,1.64 -0.01,2.38 1.97,-1.98l3.16 -3.06c3.76,-0.65 3.06,1.12 8.18,5.79 2.57,2.34 2.36,1.51 4.93,4.64 2.99,3.62 2.65,1.24 7.6,6.94l3.78 3.47c0.69,0.64 1.32,1.57 3.28,2.11 2.13,0.58 -0.36,-0.95 2.04,0.55 0.24,0.15 1.96,0.76 0.69,1.49 1.74,-0.65 1.46,-1.04 1.55,-1.94 0.57,-5.71 -1.65,3.24 0.06,-1.52 5.6,0.34 6.94,3.12 7.23,3.29 1.79,-2.29 1.32,-2.75 2.34,-5.13 1.72,-4 0.77,-2.87 4.88,-4.89l-2.41 5.62c2.88,0.32 3.64,-2.96 4.64,-5.62 -2.12,-0.93 -4.44,0.53 -2.23,-3.67l5.34 3.54c0.04,0.06 0.19,0.24 0.26,0.38 5.42,0.56 0.62,-0.33 4.98,2.81 1.67,1.2 2.64,1.23 4.7,2.48 -0.52,-2.95 -7.73,-7.1 -10.64,-8.66 -4.14,-2.21 -2.32,-0.58 -5.91,-4.9l3.86 1.48c1.08,-4.72 3.51,-7.68 4.88,-12.23 1.34,-4.42 -1.4,-2.01 2.17,-3.12 3.23,4.09 1.72,1.16 -2.65,8.7 -1.44,2.51 -3.68,6.74 -2.8,9.05 1.8,-0.55 0.92,1.55 3.52,-5.72 0.99,-2.77 1.59,-4.95 3.28,-7.39 0.4,0.54 3.86,-1.64 -0.91,7.12 -0.81,1.48 -0.09,0.22 -0.86,1.54 -0.16,0.27 -0.81,1.23 -0.94,1.5 -1.29,2.49 -0.9,1 -1.36,4.3 2.17,-1.29 1.36,0.72 4.18,-6.98 1.12,-3.07 2.12,-4.41 4.16,-7.18l5.62 0.09 -9.63 -5.63 5.17 -10.71c0.36,-0.63 -0.12,-1.67 2.06,-2.94l-8.85 12.24c-0.24,0.2 -0.52,0.42 -0.79,0.61 -2.39,-3.76 -6.64,-3.11 -3.9,-6.28 0.1,-0.12 0.49,-0.45 0.6,-0.56l0.48 -0.43c0.05,-0.06 0.16,-0.23 0.2,-0.3l0.93 -1.88c0.09,-0.16 0.22,-0.38 0.31,-0.54l2.44 -3.95c1.57,-2.93 -0.9,-1.45 2.15,-2.92 -1.39,-3.71 2.81,3.71 -1.61,-1.61l-2.01 3.36c-5.76,9.7 -3.61,7.4 -7.62,8.68 -1.24,-1.85 -1.58,-1.97 -3.41,-3.76 -2.44,-2.38 -1.14,-1.49 -4.62,-3.32l-9.52 -5.94c0.7,-3.52 -0.9,-2.34 2.6,-2.55 1.26,0.78 0.71,0.04 1.3,1.32l1.57 -1.27c0.23,-0.15 0.46,-0.27 0.71,-0.42 0.28,-0.17 0.58,-0.3 0.83,-0.45 0.27,-0.15 0.58,-0.34 0.9,-0.46l-0.82 4.81 4.9 -7.76c2.57,-3.34 3.9,-4.81 12,1.22 3.51,2.62 6.22,3.75 8.01,7.35 -1.23,3.3 -4.94,11.3 -7.23,12.84 1.83,0.78 0.03,-1.02 0.81,0.81 1.93,-1.99 2.33,-3.92 3.6,-6.55l4.03 -6.4c0.11,-0.18 0.25,-0.47 0.4,-0.7 1.7,0.63 1.96,0.47 3.21,1.61 1.34,-0.26 0.49,0.85 1.34,-1.95 -4.48,0 -8.17,-4.3 -10.77,-6.89l0.88 -0.52c0.1,-0.08 0.33,-0.23 0.44,-0.32 2.82,-2.47 1.19,-3.66 3.06,-5.8 1.92,-2.18 2.85,-2.96 3.74,-5.47l0.36 -1.11c0.01,-0.15 0.08,-0.22 0.15,-0.32 1.51,0.66 1.98,1.09 2.81,1.93 -3.89,0 -1.27,-0.71 -2.99,1.68 -2.14,2.99 -3.55,7.37 -6.16,9.64 1.38,2.12 0.21,1.44 3.19,2.47 1.23,-3.96 5.94,-9.62 8.77,-12.81 4.11,1.63 8.94,4.91 12.27,5.58 -2.62,8.54 -7.91,12.25 -7.29,17.19 2.14,-1.16 5.14,-8.16 7.16,-11.99l2.31 -3.95c3.07,1.04 7.3,3.86 9.68,3.22 -0.87,-1.91 -1.79,-2.31 -4.47,-3.76l-15.18 -7.75 1.9 -4.06c0.94,1.59 0.36,0.98 -0.59,4.35 6.67,1.63 3.05,1.53 7.06,2.79 2.2,-1.8 5.52,-8.96 6.69,-11.07 -2.62,-2.34 -2.14,0.68 -5.21,-3.62l-4.16 2.48c0.7,-2.78 0.86,-1.81 -0.03,-3.86 3.58,0.57 15.4,5.91 22.44,7.83 -0.2,0.18 -0.5,0.3 -0.68,0.42l-6.87 13.49c1.63,-0.68 0.93,-0.34 1.96,-1.81 0.13,-0.18 1.02,-1.95 1.29,-2.67 0.87,-2.25 1.45,-4.41 2.01,-6.56l0.86 4.4c-0.31,2.22 -3.05,6.43 -2.24,7.77 3.94,-5.39 4.81,-14.45 4.81,-14.46 4.1,0.78 1.44,0.84 4.55,1.73 4,1.13 1.66,0.77 3.95,0.01 -1.07,-1.86 -0.51,-1.29 -2.45,-2.27 -0.19,-0.1 -3.02,-0.89 -3.21,-0.93 -6.79,-1.63 0.39,1.38 -4.66,-1.75 -0.13,-0.08 -0.34,-0.22 -0.49,-0.3 -5.38,-2.93 -10.04,-2.87 -10.73,-2.97 -1.29,-0.18 0.26,0.49 -1.92,-1.15 -4.22,-3.19 -3.55,-1.07 -11.64,-5.48l-1.65 -2.48c0.15,-0.09 0.37,-0.21 0.51,-0.31 3.87,-2.8 0.62,-3.8 4.09,-4.82 4.42,-1.31 0.95,-1.26 2.54,0.93l-5.53 6.53c6.61,-0.01 3.45,-1.5 7.36,-4.6 -0.95,3.61 -2.09,3.14 -2,6.09l6.17 2.81c3.37,-1.27 4.19,-4.03 5.81,-6.94 4.04,-7.3 1.7,-3.08 5.17,-6.66 1.46,-1.38 0.36,-1.05 5.02,0.52l3.17 0.82c0.21,0.06 0.43,0.11 0.63,0.18 0.2,0.06 0.41,0.14 0.61,0.21 0.18,0.07 0.39,0.17 0.57,0.25 4.38,1.93 4.23,3.46 8.59,1.02l2.94 3.21 25.97 3.32 4.4 0.05c-0.98,-2.07 0.35,-0.72 -1.74,-1.78l-17.47 -2.51c-6.24,-1.03 -13.54,-2.44 -18.21,-4.5l8.67 -12.84c-3.81,0.39 -9.17,8.27 -10.15,12.72l-15.97 -6.41 3.23 -2.19c0.71,1.86 0.06,0.88 0.21,1.67 0.36,1.88 -0.13,0.5 0.45,1.68 6.12,1.4 6.51,2.52 10.44,3.43l6.93 -9.01c0.23,-0.4 0.34,-0.18 0.69,-1.57 0.37,-1.51 0.15,-1.15 -0.04,-1.8 -4.56,-0.02 -1.53,2.62 -6.11,4.82 1.55,-4.9 0.31,-2.13 3.19,-4.97 -1.73,-1.85 -1.52,-1.27 -4.19,-2.2 -4.96,-1.74 -1.65,0.03 -4.31,-2.44 6.26,1.58 12.15,5.92 18.33,4.96 -1.23,-3.84 1.39,-0.73 -3.27,-2.82 2.89,-3.62 7.63,-7.5 7.7,-9.97 -0.71,-0.37 1.47,-1.46 -2.65,-0.47 -2.02,0.48 -0.52,-0.68 -1.85,1.69l-1.71 -3.14c4.45,0.02 13.38,2.49 19.44,3.12l9.55 2.33c0.18,-0.24 0.57,0.18 0.85,0.27 3.78,-1.07 8.32,1.11 12.83,1.36 11.88,0.66 0.77,-1.11 13.89,1.49 4.06,0.81 9.57,0.5 14.26,0.78 16.73,0.99 14.31,-1.72 16.89,4.97 0.09,-0.18 0.14,-0.46 0.19,-0.59 0.05,-0.12 0.13,-0.43 0.2,-0.58 0.96,-2.11 1.02,-2.83 5.4,-3.52 3.35,-0.52 6.16,-0.17 9.25,-0.43 5.57,-0.47 10.19,-2.07 16.23,-2.69 1.33,2.21 -4.11,-2 0.43,2.46 1.62,1.58 1.83,0.4 3.79,2.71 2.98,3.5 1.92,5.79 7.48,6.24 -1.13,-2.6 -2.46,-4.39 -4.07,-5.8 6.7,7.22 6.65,4.61 9.64,3.78l2.03 -0.33c0.16,-0.03 0.4,-0.06 0.56,-0.09 0.17,-0.03 0.41,-0.1 0.57,-0.13 2.28,-0.52 2.26,-1.12 4.02,-0.25 -2.37,1.75 -19.86,5.3 -23.79,5.96 -9.2,1.56 -17.47,3 -26.08,1.93 -1.69,-4.52 -1.83,-5.58 -4.38,-7.27 1.62,3.55 2.61,3.3 2.94,7.74 -18.05,-2.21 -39.93,-0.91 -58.26,-5.07l-21.97 -3.17c-2.99,-0.85 -2.91,-2.52 -4.94,0.69 3.04,2.42 0.38,-0.42 4.85,1.21 9.75,3.56 9.47,0.42 13.67,2.32l2.94 1.52c3.82,-0.64 8.11,0.03 11.88,0.81 5.34,0.06 9.25,-0.54 14.36,0.35 1.78,0.31 11.63,1.46 12.67,2.16 7.27,-1.24 21.8,2.4 31.59,2.08 11.35,-0.38 19.65,-2.75 29.71,-3.42l5.46 8.36c1.51,1.65 0.8,1.22 3.06,2.05 -0.77,-3.92 -2.2,-5.58 -3.75,-8.62 4.14,2.03 2.83,4.71 6.7,6.84 -0.62,-4.37 -3.7,-7.82 -6.23,-9.57 5.38,-1.82 5.2,-1.52 8.64,1.69 4.66,4.36 1.66,5.89 5.72,5.6 0.1,-0.23 0.19,-0.54 0.21,-0.71 0.47,-3.84 -0.17,-2.56 -1.39,-3.71 -0.85,-0.82 -1.9,-1.25 -2.82,-2.96 3.79,1.34 3.2,2.47 4.68,5.52 4.17,0.33 5.68,-0.41 8.81,-2.09 -1.44,1.82 -2.79,1.68 -4.94,2.52 -1.95,0.77 -3.31,1.33 -5.2,2.02 -3.77,1.37 -9.44,3.83 -13.89,3.72 -1.64,-0.05 0.14,-0.71 -1.43,0.02l-1.93 1.53c-2.65,1.46 -11.23,2.87 -14.72,2.55 -0.88,-4.74 -3.85,-7.33 -6.6,-10.12 -0.04,2.35 1.16,3.82 2.49,5.43 2.43,2.95 1.96,1.83 3.73,5.43 -3.76,0.74 -4.7,0.06 -6.03,3.16l1.26 0.59c3.1,0.82 4.66,-0.53 6.93,-2.27 1.11,0.56 1.21,-0.47 0.8,0.8 4.24,-0.44 1.35,-0.3 4.23,-0.82l7.81 -1.42 2.22 3.37c0.57,1.19 0.95,2.1 1.51,3.29 0.77,1.6 1.18,2.89 1.72,3.93 1.71,3.27 -0.72,1.49 2.58,2.54l0.29 -1.2c0.24,-4.16 -3.64,-9.8 -6.19,-12.77l4.3 -1.46c3.42,2.87 1.18,3.62 5.19,5.49 -1.12,-2.8 -1.58,-2.5 -2.59,-6.06 4.04,-0.3 3.93,-1.92 6.85,1.33 2.23,2.48 1.32,3.32 3.99,4.8 -0.65,-3.7 -1.13,-2.56 -4.77,-8.11l4.18 -1.19c0.14,0.16 0.31,0.39 0.41,0.5l2.33 2.78c5.57,5.7 2.8,4.62 6.25,8.03 2.19,-1.48 0.73,-0.35 1.99,-2.8 2.89,3.75 1.72,0.68 6.22,0.26 -2.86,1.1 -5.41,3.17 -9.98,4.28 -2.22,-3.02 1.35,3.44 -0.36,-1.5 -1.14,-3.3 0.62,0.86 -0.6,-1.4 -0.25,-0.49 -1.59,-2.56 -2.15,-3.49 -1.69,-2.76 -3.23,-4.02 -5.9,-5.1 1.16,4.01 2.13,2.77 4.15,6.07 2,3.27 0.51,3.92 3.86,4.9 -0.17,0.22 -0.43,0.41 -0.59,0.58 -0.16,0.17 -0.39,0.38 -0.58,0.58 -0.18,0.2 -0.86,0.94 -1.03,1.14 -0.88,1.04 -0.36,-0.62 -1.21,1.8 6.63,1.62 4.69,-0.74 9.14,-0.59l-0.73 0.84c-0.19,0.08 -0.45,0.18 -0.62,0.26 -2.76,1.21 0.49,-1.4 -1.74,1.13 5.52,6.29 2.22,6.72 7.24,7.8 -0.12,0.14 -0.31,0.33 -0.39,0.4l-14.91 5.24 -1.56 -3.41c-0.1,0.18 -0.15,0.45 -0.19,0.59l-0.98 3.96c-3.69,0.65 -4.39,1.89 -8.8,2.1 -3.19,2.95 -8.42,1.68 -11.4,5.53 1.64,1.24 -0.23,0.46 2.12,0.88 2.38,0.42 -0.87,0.18 1.46,0.07l8.18 -2.5c9.85,-2.67 6.07,-2.16 10.93,-3.75 2.46,-2.89 3.09,-2 7.32,-2.99 4.35,-1.03 19.28,-8.18 22.63,-8.75l2.27 5.18c1.55,2.82 1.24,2.18 2.92,4.57l1.93 -4.75c1.27,2.15 0.46,1.9 2.52,2.71 1.32,-1.35 0.52,-0.89 3.23,-1 -0.52,-3.76 -1.33,-3.99 -4.34,-5.15l-1.91 -2.32c-3.34,1.22 -1.51,1.18 -5.81,1.74 2.04,-6.54 -0.43,0.03 1.27,-2.63l2.8 -3.07c0.12,0.14 0.3,0.36 0.45,0.48l2.59 0.72c0.11,-0.01 0.67,-0.21 0.91,-0.32 0.46,-1.37 -0.85,-3.24 -1.11,-5.07 -5.53,-6.92 -6.12,-8.02 -13.72,-14.62l-14.88 -12.42c-3.61,-3.1 -5.55,-4.86 -9.77,-7.91 -8.38,-6.06 -38.19,-23.45 -47.5,-24.84 -3.17,-0.07 -0.4,-1.05 -2,1.22l0.97 6.97c0.09,0.09 0.33,0.27 0.45,0.38 0.15,0.15 0.77,0.69 0.93,0.87 1.51,1.65 -0.04,-0.72 1.33,1.93 -4.13,-1.04 -3.28,-1.56 -4.85,-0.8 2,1.2 0.92,-0.01 2.09,2.41 -3.66,-2.27 -2.94,-2.07 -4.29,-1.12 2.59,2.37 4.79,4.39 5.89,7.09 -9.66,1.59 -23.71,0.21 -26.3,0.6l-13.14 0.19c-3.19,-0.24 -3.38,-1.05 -12.21,-1.39 -3.18,-0.13 -4.96,-0.76 -8.82,-1.06l-4.47 -0.99c-0.19,-0.07 -0.42,-0.19 -0.59,-0.27l-1.85 -0.96c0.69,-5.53 2.98,-5.06 3.75,-7.7l-0.07 -1.44c-2.2,1.88 -1.12,3.29 -5.62,9.64 -3.78,-0.03 -18.74,-2.25 -20.54,-3.71 2.59,-3.76 5.82,-4.95 6.5,-9.76 -3.52,1.37 -2.04,1.8 -5.41,3.47l1.99 -3.89 14.8 1.65c-0.88,3.51 -4.33,7.11 -5.94,10.07 2.72,0.29 1.45,0.35 2.95,-1.51l4.88 -7.94 10.11 1.07c-0.33,2.13 -2.08,3.43 -2.58,7.26 1.36,-1.85 3.36,-4.21 4.33,-6.81l19.63 2.13c4.63,1.13 1.31,-0.25 3.81,2.18l0.58 -1.87c0.03,-0.26 0.14,-0.37 0.22,-0.56 6.17,0.94 9.96,-0.18 16.06,0.76 1.25,1.62 0.6,1.35 1.89,2.66 1.3,1.33 1.62,1.17 2.69,2.13 3.33,2.99 1.11,3.63 4.26,5.93 0.74,-1.19 3.62,1.8 -2.07,-5.7 -1.43,-1.89 -2.49,-2.9 -4.01,-4.93l1.91 0.03c-1.98,-3.71 -1.12,-1.71 -7.88,-2.43l-5 -5.71c-3.4,-3.94 -1.04,0.64 -4.45,-6.35 2.92,0.87 4.08,0.87 5.44,4.21l0.8 -2.52c1.85,2.33 -0.04,0.99 2.59,1.92 0.17,-0.21 0.86,-1.36 1.05,-1.55 2.41,1.54 3,3.1 5.88,1.86 -1.64,2.29 -0.88,0.92 -0.34,3.58l4.38 0.99 0.19 5.91c1.23,0.4 3.53,-0.14 5.92,-1.05l0.47 -2.27 -3.92 -0.26c3.17,-3.23 0.03,0.1 3.58,-1.53 -2.66,-3.89 -11.24,-5.98 -13.24,-10.08 -4.53,-1.1 -9.13,-2.55 -13.54,-3.29 -4.68,-0.78 -8.52,-2.71 -13.07,-2.88 -5.23,-0.19 -10.3,1.24 -15.34,1.62 -8.65,0.65 -16.23,3.84 -20.24,4.71 -3.1,0.67 -3.27,0.52 -6.47,1.59 -31.81,10.66 -40.4,15.54 -67.33,31.44l-27.22 21.76c-2.16,2.01 -2.92,3.13 -4.49,4.38 -7.13,5.73 -4.15,4.93 -7.88,8.15 -2.47,2.12 -2.77,1.39 -4.06,4.81 3.72,-1.24 1.8,-1.02 4.76,-3.36 2.23,-1.76 1.16,-0.23 3.5,-2.52 -2.8,2.09 -0.88,3.1 -5.4,5.51 -3.67,1.96 -2.57,-0.99 -6.58,3.05 -3.62,3.66 -6.55,8.03 -9.93,11.78 -1.83,2.04 -3.22,4.16 -4.59,6.71l-9.2 13.23c-3.66,5.88 -1.34,4.68 -0.32,6.89 -3.4,-0.48 -4.16,0.37 -5.59,2.42 -2.5,3.6 -9.81,21 -12.09,25.68 -1.84,3.79 -2.74,4.43 -9.53,5.57 -0.65,4.4 1.7,-2.09 0.82,1.86l-3.53 -1.33c0.4,-2.26 -0.25,-1.85 -1.28,-2.64 -2.25,-1.73 -4.05,-1.51 -5.68,-0.96 0.16,0.14 0.43,0.24 0.55,0.31l1.52 1c1.95,1.51 -0.04,-1.31 1.23,1.25 -1.05,0.71 -1.63,1.35 -2.47,2.34 -0.09,-0.18 -0.17,-0.46 -0.25,-0.57 -0.07,-0.11 -0.19,-0.42 -0.29,-0.54l-2.38 -1.52c-3.16,-0.78 -10.78,0.39 -13.61,-0.88l13.42 -0.23 -36.17 -4.46zm258.73 87.68c7.6,0.15 13.74,-1.66 19.5,0.9l-0.1 5.64c-3.69,0.9 -13.01,0.76 -16.85,0.25 -1.34,-3.3 -1.01,-4.17 -2.55,-6.79zm-15.22 10.8c4.23,-4.06 6.23,-11.54 8.57,-16.46 2.55,0.43 0.63,-0.92 2.97,1.58l-0.9 0.4c-3.69,2.35 -1.78,3.07 -4.03,6.39 -1.78,2.63 -0.05,-1.01 -1.66,2.42 -2.29,4.86 -2.7,7.16 -5.71,11.17 -0.14,0.02 -0.38,-0.14 -0.43,0.01 -0.94,2.86 -0.5,0 -0.89,0.09 -1.14,0.24 -0.05,-0.32 -1.43,0.46 -0.62,-2.65 -0.17,-1.55 -1.86,-3.27 1.81,-0.89 1.33,0.07 2.56,-1.7l3.34 -8.72c0.92,-2.11 2.23,-3.02 2.94,-5.15 2.45,-7.41 0.56,-1.38 2.69,-5.87 0.62,1.1 1.07,-2.17 0.4,1.82 -0.16,0.95 -6.63,13.08 -6.56,16.83zm-52.83 -41.67c2.51,-0.2 7.44,0.48 9.11,2.15 -2.32,-0.11 -1.61,-0.15 -3.79,-0.58 -2,-0.4 -1.38,-0.81 -3.62,0.15 -0.68,3.71 0.43,2.16 0.47,4.31 0.04,2.05 -0.36,-0.27 -0.48,1.81 -0.19,3.44 0.22,1.42 1.09,2.06 1.64,-2.1 0.64,-3.11 1.61,-5.46 1.88,2.45 1.17,2.52 0.57,6.08 -4.65,0.61 -5.24,-0.77 -9.41,-1.19l1.37 -3.97c0.04,0.14 0.14,0.43 0.19,0.61l0.65 3.58c3.37,-1.35 1.87,-0.21 2.16,-4.06 0.16,-2.16 0.7,-3.96 0.08,-5.49zm26.69 -11.75c5.72,-3.14 15.18,-0.51 22.67,-0.78 17.77,-0.67 12.07,3.94 18.12,5.31 -1.3,-2.91 -1.57,-2.36 -3.42,-4.22 26.39,1.65 23.41,-1.59 23.14,8.18l1.85 -3.51c0.07,-0.14 0.21,-0.29 0.26,-0.62 0.04,-0.33 0.14,-0.43 0.24,-0.63 -1.63,12.88 2.15,7.93 -22.53,8.44l-24.12 -0.58c-3.49,-0.22 -4.84,-0.31 -6.3,1.26 6.96,2.16 45.53,0.1 52,2.06l-0.58 9.17c-0.12,0.06 -0.32,0.13 -0.38,0.15 -0.06,0.02 -0.31,0.12 -0.39,0.14l-5.46 0.75c-2.8,0.19 -4.51,-0.13 -7.5,-0.25 -11.42,-0.45 -23.14,0.3 -34.31,1.12 -4.68,0.34 -2.17,-1.17 -6.66,-0.92 -3.79,0.21 -2.95,1.38 -4.84,3.1 -4.9,-3.65 -2.56,-4.65 -2.54,-11.31 0.8,-0.75 0.27,-0.53 1.5,-1.17 1.26,-0.64 -0.08,-0.08 1.95,-0.45 -0.16,-0.13 -0.37,-0.32 -0.46,-0.43l-0.81 -0.92c-2.77,-3.84 -2.44,-9.64 -1.43,-13.89zm-35.62 6.72c-5.26,-0.94 -8.14,-2.14 -13.85,-2.94 -4.04,-0.56 -7.3,-3.03 -11.82,-4.06 -10.16,-2.33 -5.31,-1.98 -8.07,-2.9 -8.98,-2.99 -7.37,-3.11 -13.58,-5.49l3.62 -5.43c0.41,1.32 -0.6,3.73 0.76,5.33l3.13 -6.73c0.05,4.31 -1.93,6.63 0.13,8.91 1.6,-3.71 0.03,-4.18 3.21,-8.5 1.38,3.72 -0.81,6.79 0.91,9.87 0.92,-11.56 2.47,-8.48 11.14,-6.79 3.27,0.64 6.17,1.9 9.3,2.75 3.18,0.87 6.41,1.64 9.76,2.35 9.76,2.05 6.85,0.36 8.24,-1.67 2.41,2.96 0.2,3.65 6.46,3.67 -0.75,-3.33 1.51,-0.85 -3.11,-2.32l2.31 -0.3c2.68,-0.07 -0.82,0.26 1.86,0.01 0.11,2.28 1.26,2.8 0.13,4.05 -2.09,2.33 0.8,0.06 -4.06,-0.69l0.23 12.02c-2.84,-0.33 -2.32,-0.63 -5.86,-0.53 1.35,-2.69 2.03,-8.18 0.43,-11.51 -2.07,2.42 -1.65,7.89 -1.27,10.9zm29.88 -20.07c4.31,-0.43 1.39,0.53 5.23,1.46 0.28,0.07 1.15,0.21 1.45,0.24 2.64,0.31 6.18,-0.01 8.88,-0.07 6.07,-0.15 10.96,-0.41 16.18,0.06 10.31,0.94 23.67,1.05 33.93,0.99 -0.13,0.2 -0.33,0.44 -0.41,0.58l-0.69 1.16c-1.05,2.48 -0.26,2.62 -0.03,3.23 0.11,-0.17 0.14,-0.45 0.21,-0.57 1.96,-3.83 0.1,-2.05 2.69,-3.21 0.89,9.46 3.82,8.37 -5.81,8.39 0.2,-2.77 0.77,-4.68 -0.7,-6.75l0.04 6.38c-12.05,0.36 -26.87,-1.21 -33.04,-0.83 0.04,-1.61 0.25,-3.15 0.08,-4.71 -0.31,-2.9 -0.06,-1.84 -1.55,-3.22l0.12 7.5c-5.92,-0.1 -16.71,0.93 -20.99,-0.58l0.53 -6.34 -3.41 -1.78 -2.11 3.04 -0.6 -4.97zm-86.91 2.7c7.41,1.01 3.65,1.57 10.87,4.22 0.11,3.18 0.16,0.5 -0.57,3.22 -1.55,5.79 -1.98,7.19 -0.98,9l2.86 -9.52c0.05,-0.39 0.2,-0.47 0.35,-0.68 3.66,0.99 1.78,0.32 2.83,1.78 1.17,0.62 0.86,-1.43 0.84,2.17 -0.02,3.14 -2.62,5.78 -0.46,8.68 1.58,-2.34 2.09,-7.19 1.63,-10.51 2.65,0.37 4.45,0.81 6.26,1.72 10.59,5.32 3.24,-0.59 9.32,4.17 6.09,4.76 22.64,6.07 30.6,7.3 -1.62,1.07 0.05,0.2 -2.34,0.89 -2.34,0.67 1.14,-0.73 -1.52,0.25l-0.81 4.76c-0.79,-3.45 0.97,-2.72 -1.38,-5.56 -1.76,1.6 -1.04,-1.91 -1.3,3.98 -0.06,1.22 0.12,3.22 0.21,4.53 -3.56,0.24 -15.31,-2.79 -19.03,-4.4 -2.4,-1.04 -3.31,-0.76 -6.37,-1.04 -0.77,-3.57 0.47,-4.8 -1.15,-6.94l-0.76 5.88c-6.06,-0.06 -1.24,-0.26 -2.07,-10.67 -1.64,2.05 -1.13,7.57 -1.05,10.07 -5.68,-0.78 -8.64,-2.07 -13.36,-4.62 0.69,-2.61 1.39,-7.06 2.6,-10.47 -3.15,1.2 -3.09,2.96 -3.5,10.47 -6.24,-1.78 -9.72,-4.32 -15.66,-4.89l-5.33 -3.17c-0.39,-1.17 -1.03,0.98 0.3,-2.88 0.81,-2.35 0.51,-1.04 0.84,-3.51 1.36,-2.63 0.75,-4.58 1.38,-5.63 -0.51,1.63 -1.2,3.6 -1.81,5.89 -1.08,4.06 -1.27,4.16 -3.8,6.16 -0.99,-2.89 -2.07,-3 -2.6,-3.5l-1.37 -1.32c2.89,-1.71 1.9,-1.34 2.56,-4.92 0.46,-2.46 1.35,-4.26 1.41,-7.12 4.47,0.72 4.42,1.04 6.82,2.62 5.31,3.5 4.65,0.43 5.54,3.59zm81.99 1.45c-5.63,-7.03 -7.44,-1.98 -7.49,-8.4 2.62,0.89 1.53,0.21 2.62,2.82l1.26 -2.49c0.03,0.03 1.1,0.85 1.12,0.85 4.54,0.89 -2.68,-3.1 3.37,-0.1 -2.45,0.95 -0.75,2.28 -3.38,2.91 2.43,2.42 2.5,0.85 2.5,4.41zm-112.51 -9.54c0.07,-0.22 0.3,-1.14 0.36,-1.26 0.09,-0.16 0.18,-0.39 0.3,-0.53 2.42,-2.88 4.37,1.14 6.26,-2.5l7.72 3.44c0.33,7.65 -0.81,7.42 -2.1,8.54 -1.64,-1.71 -1.43,0.27 -1.56,-3.49 -0.15,-4.5 -0.38,-0.52 1.07,-3.13 -2.3,-0.94 -0.27,-0.33 -1.45,-0.8 -0.99,1.65 -1.72,5.36 -1.29,7.09 0.92,3.72 1.37,-0.09 1.62,3.44l-0.41 1.5c-0.03,-0.14 -0.22,0.56 -0.39,0.81 -2.98,-1.87 -0.93,1.28 -1.83,-4.03 -1.7,2.33 1.69,1.42 -3.74,1.27 -3.44,-0.09 -4.69,-1.91 -7.73,-5.56l3.17 -4.79zm31.72 -3.99c0.23,-4.15 0.11,-1.04 -0.71,-2.52 -2.14,1.41 -0.33,-0.1 -1.85,1.75 -0.12,0.14 -0.24,0.39 -0.34,0.52 -0.1,0.14 -0.28,0.4 -0.36,0.51l-0.95 0.91 1.49 -5.45 10.36 5.11c1.59,0.79 1.06,0.81 3.3,1.46l-2.09 5.29c-0.5,2.22 -0.47,3.53 -0.32,5.72 -2.59,-0.73 -7.16,-3.13 -8.89,-4.46 1.88,-2.69 4.26,-5.71 2.86,-9.6 -2.94,1.2 -1.11,1.54 -3.17,4.04 0.17,-2.75 0.6,-1.99 0.67,-3.28zm98.91 -11.08c0.97,0.78 -0.21,0.43 1.66,0.87l4.6 0.18c2.74,0.75 2.1,3.6 2.17,5.83 -4.69,0.09 -7.42,-0.45 -11.63,-2.09 -3.09,-1.21 -1.39,-0.59 -2.35,-1.51l1.19 -2.95 4.36 -0.33zm37.71 -9.62c0.21,2.33 0.84,3.27 1.38,6.17 0.25,1.39 -0.08,0.07 0.32,1.94l0.3 1.22c0.19,0.74 0.53,1.57 0.78,2.4 2.73,-3.06 0.16,-2.29 -0.26,-4.88 -0.06,-0.37 -0.31,-0.4 -0.41,-0.73l2.69 -0.23c0.37,0.53 0.77,2.57 1.59,4.68l1.52 -4.05 0.9 4.08 -2.46 3.17c0.44,0.21 1.02,0.74 1.14,0.53 0.09,-0.17 0.38,0.15 0.56,0.26 -3.52,0.25 -5.46,1.26 -7.78,0.6l-0.84 -0.29c-1.58,-0.78 -1.05,-0.73 -2.01,-3.42 -0.85,2.36 0.27,0.62 -0.12,3.52 -4.31,1.73 -8.54,1.5 -11.77,2.76 0.75,0.7 0.3,1 3.95,1.11 15.76,0.45 14.74,-8.03 25.07,1.03l-5.54 1.25 5.46 1.43 0.31 7.23c-1.66,0.8 0.24,0.15 -1.47,0.14l-1.34 -0.14c-3.24,-0.08 -5.5,1.31 -10.35,1.12 -16.14,-0.64 -31.43,-2.2 -47.65,-0.79 1.82,-5.05 2.43,-4.58 0.29,-8.61l13.24 -1.04c-0.75,-2.38 -0.48,0.08 -3.86,-2.13l7.43 0.5c0.66,1.46 0.82,-0.78 -0.69,0.89 -0.5,0.55 -0.55,0.17 -1.37,1.7l7.81 -1.68c-1.18,-0.2 -1.86,-0.17 -3.23,-0.46 3.05,-0.94 3.69,1.31 7.82,-0.74 -2.71,-2.2 -6.01,-0.72 -10.02,-1.15 -0.77,-3.16 0.22,-1.3 0.12,-5.73l7.79 0.54c-1.2,-3.85 -0.29,-0.11 -1.16,-2.35 -3.14,-8.05 3.51,-5.92 11.42,-7.24 3.76,-0.63 6.71,-1.61 10.44,-2.61zm145.88 7.7c0.2,-0.05 0.45,-0.11 0.66,-0.18l5.2 -2.38c0.15,0.18 0.36,0.4 0.46,0.53l1.26 1.61c1.16,1.78 0.2,0.18 1.11,2.22 1.27,2.85 0.03,1.6 2.28,3.67 -0.39,-3.47 -1.14,-4.62 -2.85,-7.39l-1.06 -1.7 7 -4.75c1.09,-0.59 1.1,-0.51 2.24,-1.26l5.43 10.02c-4.73,1.09 -0.56,1.42 -8.23,5.18 -3.35,1.65 -4.88,3.68 -8.87,4.55l-2.84 -8.5c-1.22,1.37 -0.24,2.17 0.56,4.04 2.18,5.13 0.65,5.03 -0.5,5.97 -3.06,-1.8 -4.1,-7.68 -3.21,-11.23l1.36 -0.4zm-145.88 -7.7l1.96 -1.53 1.07 3.72 1.87 -2.71 2.08 3.8 -3.79 1.6c-1.66,-2.18 -1.51,-3.38 -3.19,-4.88zm175.47 0.87c-2.96,2.37 -1.11,4.12 -8.21,5.62 -0.56,-2.03 -0.92,-3.02 -1.84,-4.83l-2.43 -4.73c2.06,-0.97 5.37,-3.13 7.13,-0.76 4.77,6.43 0.08,2.8 5.35,4.7zm-213.18 8.75c-0.95,-1.68 -1.38,-1.98 -0.53,-5.17 1.01,-3.82 1.12,-2.88 3.97,-2.68 -1.48,1.6 -2.12,2.97 -2.5,5.52 1.97,-0.91 1.01,-0.24 2.21,-2.38 3.44,-6.16 2.83,-2.93 4.25,-2.92l2.44 -0.15c0.1,-0.21 0.4,-0.08 0.58,-0.17 -2.59,-1.38 -3.58,-0.29 -6.74,-1.19 -2.42,-0.7 -3.72,-1.46 -6.52,-2.21 0.03,0.09 3.93,4.3 -0.42,8.85 -2.61,-3.61 -0.42,0.16 0.13,-2.87l-0.55 -1.61c-0.08,0.17 -0.15,0.42 -0.24,0.6 -1.48,2.89 -1.22,2.26 -2.96,3 -0.16,-2.96 2.56,-5.63 4.15,-11.69l1.07 2.37c0.15,-0.15 0.34,-0.38 0.43,-0.48l1.98 -2.12 0.66 2.96c0.02,-0.11 0.05,0.35 0.14,0.49 1.7,-4.27 -1.17,-2.18 2.81,-2.36 1.33,-0.06 8.08,1.82 13.81,0.37 -4.45,-2.81 -15.93,1.37 -18.9,-5.35l0.95 0.28c2.8,0.42 1.63,0.42 2.94,-1.04l0.27 1.69c0.48,1.84 -0.71,-0.08 0.53,1.31 2.04,-2.93 -0.03,-2.99 11.47,-1.54 4.02,0.51 8.16,-0.81 12.62,-0.95 1.72,2.12 0.56,0.83 1.62,3.86l6.06 -0.91c-1.35,-0.82 -3.59,-0.45 -4.72,-0.67l-1.37 -2.83c2.6,-1.84 4.01,-1.48 5.56,0.04 0.31,0.31 1.04,1.26 1.13,1.35 3.08,3.22 1.23,-0.11 2.9,2.62 -1.56,0.77 -0.53,0.54 -3.16,-0.02 0.53,5.64 -5.74,7.57 -11.76,7.58 -0.15,-2.66 0.17,-2.29 -1.08,-4.5l0.17 5 -9.86 0.88c1.28,3.7 0.95,3.23 -0.07,7.11 -3.43,0.47 -4.4,0.52 -7.66,-0.01 -3.55,-0.58 -2.04,-0.17 -5.81,-0.06zm198.04 -25.13c2.06,0.93 2.63,1.48 3.83,3.26 2.15,3.22 2.05,2.31 0.43,4.22 -0.13,-0.15 -0.31,-0.35 -0.37,-0.46 -2.48,-4 -0.72,-5.13 -5.55,-6 0.59,1.89 0.33,1.13 1.25,2.47l3.07 4.86c-0.86,1.03 -3.19,3.35 -3.53,3.62 -2.6,2.07 -1.71,-0.17 -4.13,2.91 -1.19,-1.3 -0.74,-0.63 -1.69,-2.97 -2.19,-5.35 -1.86,-2.85 -3.53,-6.09 1.53,-1.31 3.2,-2.22 5.96,-3.12l3.7 6.06c0.59,-1.65 -0.33,-3.04 -1.61,-5.28 -0.11,-0.19 -0.58,-0.67 -0.65,-1.04 -0.05,-0.29 -0.23,-0.34 -0.4,-0.62l3.22 -1.82zm-10.31 -19.64c1.85,3.81 -0.77,4.84 -6.11,5.79 3.93,-6.63 -3.98,-8.03 -2.04,-13.41 4.93,-1.19 7.14,5.53 8.15,7.62zm-25.88 -30.05c1.02,-2.78 -1.82,-1.23 1.62,-2.18 3.01,2.9 1.79,2.55 3.93,5.33 2.9,-0.16 -0.06,0.61 1.5,-0.92 0.09,-0.09 0.19,-0.65 0.39,-0.83 0.1,0.18 3.09,-0.58 -0.49,2.95l-7.46 4.9c-5.17,1.85 -7.5,-2.74 -7.01,1.58 0.01,0.06 0.06,0.57 0.07,0.46 0.01,-0.11 0.1,0.32 0.07,0.48 -4.36,1.17 -5.76,3.57 -11.95,4.67l-2.7 -7.76c0.43,3.35 1.48,6.03 2.13,8.81l-10.83 5.08c-0.18,0.07 -0.39,0.15 -0.57,0.22 -0.16,0.07 -0.38,0.15 -0.54,0.22l-3.45 2.11c0.05,0.03 0.77,2.12 4.27,-0.67 0.76,-0.6 0.97,-1.15 1.76,-1.71 1.59,-1.14 0.49,-0.49 2.39,-1.14 2.47,-0.84 6.8,-1.48 10.04,-3.22 3.89,-1.56 8.53,-3.98 11.5,-1.32 6.45,5.77 1.78,8.45 6.32,9.22 1.33,-1.29 0.64,0.24 0.71,-1.93 0.04,-1.25 -0.03,-0.81 -0.31,-1.82 -0.23,-0.79 -1.23,-2.82 -1.53,-3.31l-3.93 -4.31c-0.34,-0.28 -0.85,-0.06 -1.08,-0.8 -0.1,-0.31 -0.39,-0.26 -0.58,-0.4 2.59,-0.94 6.73,-5.37 8.02,1.24 -0.04,-0.06 1.06,-0.64 -1.4,-0.93 -2.7,-0.33 -0.82,-0.58 -2.17,0.66 4.76,4.11 1.9,8.12 6.4,10.07 1.65,-1.44 0.71,-1.35 1.59,-3.04 1.54,1.23 2.89,0.41 3.78,-0.21 -0.16,3.24 -4.7,4.44 -8.13,5.7 -3.85,1.42 -7.53,2.57 -8.23,5.72 2.32,-0.01 1.73,-0.47 3.46,-1.62l11.18 -4.18 5.99 -3.61c0.14,0.23 0.34,0.53 0.42,0.69l0.59 1.14c0.08,0.2 0.11,0.78 0.36,1.27 1.35,2.7 0.71,-0.77 3.23,5.99 0.51,1.38 1.04,0.2 0.77,5.27 -1.68,-0.02 -0.95,-0.09 -2.43,0.08l-0.83 0.17c-0.07,0.01 -0.39,0.22 -0.44,0.08 -0.06,-0.15 -0.31,0.06 -0.47,0.08 -2.59,3.2 -6.19,3.13 -6.43,7.22 -3.51,-1.69 -2.69,-2.47 -5.81,-0.21 -3.95,2.85 -11.99,7.89 -16.53,8.74 -0.71,0.41 -1.69,1.13 -2.37,1.44 -1.9,0.86 -5.51,1.71 -8.37,3.71l-4.66 3.38c-1.73,0.99 -2.59,1.24 -4.87,2.54l2.86 0.22c1.77,-1.89 5.84,-2.51 8.28,-3.81 3.88,-2.08 3.52,-2.71 7.95,-3.94l7.81 -4.44c12.8,-3.81 10.48,-4.21 18.92,-9.21l14.86 -9.31c1.69,1.35 0.42,-0.08 1.56,1.86 0.44,0.75 0.24,0.79 0.46,1.46 -1.95,-0.9 -2.01,-1.73 -4.26,-0.04l-1.34 2.06c-0.35,1.19 -0.5,-0.48 -0.02,2.31 -5.28,-2.19 -2.32,-1.23 -3.63,0.02 1.82,2.71 3.06,4.7 3.83,8.55 6.08,-1.44 3.29,-3.74 6.26,-3.58 3.68,0.19 0.71,0.08 2.06,1.02 -4.15,1.76 -1.93,1.72 -6.85,4.54 -6.1,3.51 -7.59,5.39 -9.59,6.61 -1.27,0.78 -1.65,0.77 -3.16,1.67 -2.87,1.7 -6.55,3.4 0.23,3.46 1.35,-2.33 7.18,-5.01 10.34,-7.12 1.36,1.4 0.34,-0.11 1.56,2.38l2.55 7.08c-1.93,-0.66 -0.9,-0.01 -2,-1.98 -0.41,-0.74 -0.57,-1.69 -0.87,-2.4 -1.33,-3.18 -0.31,-2.7 -3.14,-2.46 1.31,7.54 5.69,6.36 2,8.99 -1.7,-1.76 -1.41,-5.29 -4.02,-7.82 -1.26,2.07 -0.74,-0.43 -0.3,2.62 0.04,0.25 0.58,2.1 0.69,2.48l0.98 2.86c0.03,0.07 0.11,0.3 0.13,0.35l0.2 0.55c-3.06,3.79 -17.75,10.59 -23.43,13.56 -6.42,3.37 -20.32,11.55 -25.13,11.75 -3.81,4.65 -10.1,4.29 -14.56,9.01 3.5,0.52 12.58,-4.29 15.79,-6.05 5.01,-2.73 9.76,-4.7 14.87,-7.63 6.85,-3.94 17.91,-7.26 24.82,-12.11l5.45 -1.85c0.69,2.52 1.17,4.36 1.92,6.63 0.91,2.75 2,2.14 -1.66,3.67 -0.95,-3.9 -0.55,-6.8 -2.98,-8.15 -1.96,3.27 0.39,6.12 1.22,9.64 -1.82,1.69 -3.51,2.72 -5.6,3.4 -0.39,-1.81 -0.75,-2.96 -1.18,-4.96 -1.08,-5 -1.19,-3.68 -2.47,-3.91 -1.23,2.77 1.52,2.24 2.01,8.78 0.01,0.11 -0.02,0.64 -0.01,0.54 0,0 1.63,0.11 -6.01,4.19 -0.12,-0.18 -0.21,-0.44 -0.26,-0.57 -0.06,-0.13 -0.19,-0.42 -0.26,-0.57l-1.19 -2.96c-2.65,6.05 4.05,3.35 -2.29,6.43l-20.09 9.01c1.51,0.83 2.01,-0.27 4.21,0.52 -6.55,1.97 -20.44,10.86 -32.31,12.96 -1.22,0.9 -22.25,7.71 -25.15,8.57 -10.01,2.96 -15.04,2.77 -24.33,3.96l-7.16 0.93c-1.46,-6.33 0.71,-24.43 -0.67,-37.48l-0.31 -8.84c-0.65,-5.93 -0.01,-1.01 -1.59,-4.34 -3.56,-7.5 -2.41,-1.56 -4.97,-6.98 -1.76,-3.72 -2.75,-8.22 -4.34,-11.7 -1.2,-2.61 -4.4,-7.92 -6.15,-9.91 -3.11,-3.54 -5.67,-4.57 -8.05,-8 -1.67,2.16 0.02,0.38 -0.31,3.83 -5.23,3.45 -14.36,3.43 -22.17,2.15 -0.1,-0.17 -0.19,-0.44 -0.22,-0.57 -0.81,-3.62 -0.22,0.16 0.06,-3.81 -3.13,2.29 -1.34,2.96 -3.16,-0.99 2.48,0.29 5.27,0.37 7.22,1.22 3.41,1.48 -0.35,2.04 5.27,1.11 5.74,-0.95 6.24,-2.69 11.93,-3.54 -1.32,-2.64 -1.6,-2.14 -4.24,-3.93l-1.31 2.5c-1.46,1.73 1.09,1 -4.48,1.17 -3.11,0.1 -7.16,2.12 -10.31,-0.77 4.42,-2.23 -0.41,1.56 4.09,-0.85l-4.05 -3.08c-4.35,1.86 -18.08,18.47 -20.68,19.2l-5.58 10.69c-0.03,-0.12 -0.12,0.38 -0.2,0.56l-1.1 -0.57c-0.2,-0.1 -0.89,-0.41 -1.11,-0.52 -6.51,-3.26 -1.4,-2.88 -6.66,-3.1 -1.58,3.54 -1.46,12.82 -0.64,17.19 -2.31,-0.58 -4.81,-1.38 -6.37,-2.04 0.97,-1.76 1.48,-3.73 1.78,-6.12 0.65,-5.16 0.15,-5.45 -1.19,-6.74 -1.77,2.48 -1.16,2.31 -1.84,5.99 -1.78,-2.58 -0.04,-2.36 -2.13,-1.7 -1.03,2.23 -1.46,5.18 -0.05,7.5 1.51,-1.77 1.43,-3.08 2.03,-5.02 0.59,8.25 -1.48,3.39 -1.31,8.82 0.14,4.52 0.22,6.82 -1.29,10.24 -0.07,-1.91 0.02,-3.65 -0.01,-5.5 -0.02,-0.74 -0.12,-2.44 -0.26,-3.13 -0.34,-1.67 -0.14,-1.05 -0.76,-2.07 -1.95,1.24 -0.9,0.09 -1.34,2.42 -0.14,0.72 -0.11,6.82 -1.07,9.04 -1.09,-2.8 -0.15,-8.91 -0.27,-10.32 -0.16,-1.87 0.33,-0.83 -0.68,-1.99 -1.81,2.98 -1.85,12.83 -0.66,15.89 -4.77,-0.14 -28.95,-8.01 -35.36,-9.94 -4.54,-0.97 -5.65,-2.41 -9.39,-3.5 0.71,-2.15 4.96,-14.38 4.63,-16.47 -0.85,1.88 -1.62,5.01 -2.39,7.16 -0.93,2.59 -1.41,6.42 -3.26,8.44 -2.51,-1.09 -5.15,-1.88 -5.29,-5.45 -0.42,0.81 2.11,0.08 -1.94,1.11l-2.98 -2.41c-3.34,-0.59 -11.95,-6.63 -12.22,-7.48 -0.44,-1.41 5.92,-5.32 1.55,-6.17 0.99,2.79 -0.32,1.22 -0.95,2.06l-2.89 3.04c-4.4,-3.31 -4.59,-1.91 -7.43,-1.89 7.94,3.81 7.96,5.1 12.24,7.72l-2.59 3.12c-3.38,-3.14 -2.68,-3.78 -4.8,-4.42 -1.4,1.27 -1.65,1.46 -2.62,3.65 -0.37,0.84 -0.65,1.75 -0.93,2.42 -0.1,0.25 -0.5,1.12 -0.58,1.3l-0.69 1.36c-2.89,-1.24 -2.47,-1.78 -5.26,-3.36 -1.36,-0.78 -3.88,-1.89 -4.52,-4.13 -0.03,-0.11 -0.08,-0.34 -0.09,-0.46l0.15 -1.54c0.19,-0.89 0.62,-2.03 0.99,-2.94 1.05,-2.6 1.64,-2.96 2.66,-5.48 -5.18,0.52 -4.01,0.75 -4.96,-3.64l-1.68 2.46c-0.02,0.03 -0.66,2.06 -0.78,2.37l-1.5 3.28c-0.08,0.14 -0.27,0.4 -0.33,0.51l-6.47 -2.74c0.22,1.53 1.79,2.39 3.06,3.73 -0.51,1.63 -0.92,2.46 -1.72,4.36l-2.03 3.58c-1.04,-1.98 -0.8,-2.4 0.22,-5.2 0.97,-2.68 1.55,-1.44 0.16,-2.74 -2.49,0.34 -0.79,3.37 -3.6,6.42l-1.3 -0.91c-0.06,-0.07 -0.2,-0.28 -0.25,-0.35 -0.04,-0.08 -0.06,-1.16 -0.05,-1.44l-3.93 2.24c0.71,-4.05 1.84,-7.77 3.13,-10.78 -1.53,-0.11 -4.37,6.89 -4.83,9.64 -2.26,-2.42 -2.52,2.45 -1.17,-4.04 0.01,0 2.13,-4.58 2.78,-8.48 -0.04,0.26 -0.25,1.18 -0.54,1.41l-2.66 0.67c-1.23,-0.13 -0.41,-1 -1.72,0.02l0.79 3.37c0.06,3.12 0.19,3.93 -1.48,5.98l-4.61 -3.74 0 2.46c0.06,0.22 1.19,1.36 1.39,1.54l-4.81 8.03 5.61 0.01 0.81 3.21c1.62,-0.66 1.46,-0.59 2.81,-1.45l2 -1.76c0.24,2.52 -0.48,3.76 3.23,3.33 2.36,-0.27 1.86,0.19 3.2,-4.13 2.02,3.89 1.88,2.16 5.62,5.61 -3.91,-1.14 -5.76,2.03 -6.88,2.53 -0.07,0.04 -0.3,0.11 -0.37,0.13l-1.97 0.45c-0.05,0.04 -0.22,0.23 -0.27,0.28l-2.54 1.27c-0.05,0 -2.79,-0.56 -3.22,-0.63 1.42,2.94 -0.86,2.31 4,2.4l-2.25 1.82c-2.74,3.11 1.07,-3.21 -0.95,2.18l2.73 0.15 1.69 1.87c-9.03,0.01 -29.66,-2.23 -37.86,-0.03 9.59,3.13 32.03,-0.25 43.73,1.8 -2.23,1.7 0.35,0.67 -3.06,1.1 -0.06,0.01 -2.32,-0.09 -2.39,-0.1 -14.53,-1.29 -18.72,0.26 -32.77,0.89 2.53,1.55 17.1,1.58 21.54,1.32l18.45 -0.18c0.89,0.03 2.25,0.19 3.1,0.45 1.99,0.6 0.71,0.04 1.96,1.02 -7.45,0.24 -14.58,-1.21 -21.94,-0.25 -7.45,0.96 -12.85,1.71 -20.88,0.82l-4.81 1.28c6.63,-0.25 8.99,0.61 15.04,0.94 3.87,0.21 8.32,-0.74 12.34,-0.99l20.82 0.2c2.5,-0.05 4.6,-0.22 6.33,0.97l-32.09 0.8c6.22,2.17 45.29,-0.52 52.87,1.23 -6.83,0.19 -13.9,0.14 -20.75,0.22 -3.69,0.04 -8.81,2 -19.99,1.71 -6.2,-0.16 -11.71,-1.11 -18.06,-0.19 -7.21,1.04 -11.13,-1.5 -18.54,0.61 13.57,1.87 22.11,0.61 38.94,2.12 6.33,0.56 14,3.1 18.5,3.26 4.08,0.15 4.4,-1.12 9.03,-0.36 4.24,0.69 7.29,0.8 11.55,0.67 -1.85,-1.66 -2.95,-1.52 -4.07,-2.04l12.35 1c-1.64,1.02 -4.19,-0.76 -7.01,1.67l10.84 0.56c-2.95,1.97 -16.65,0.88 -21.2,0.27 -4.62,-0.62 -4.94,-0.69 -9.31,-0.38 -2.75,0.2 -6.29,-0.94 -9.22,-0.02 3.2,2.1 8.01,0.58 12.7,0.82 5.17,0.26 5.08,1.73 12.03,1.48 3.26,-0.12 22.03,0.39 24.47,1.02l-13.31 1.19c-6.48,-0.29 -6.49,-1.48 -14.32,-0.16 8.52,2.8 29.9,0.64 41.37,2.99 -1.03,4.11 -1.11,0.2 -3.58,2.88l9.63 0.35 -7.7 2.1 15.28 0.74c-2,3.87 -0.42,-0.32 -4.21,1.96 3.56,1.82 7.27,0.99 10.19,0.26 3.47,2.75 -2.17,2.97 7.15,2.84 -2.06,-7.85 -2.61,-1.87 -4.15,-4.63 -1.34,-2.39 1.97,-2.63 4.19,-2.57 1.63,0.04 3.3,0.34 4.75,0.89 -3.29,2.44 -4.57,-1.05 -6.05,2.88 6.41,2.66 15.29,0.43 17.66,1.93 -2.03,1.13 -3.02,-0.09 -5.92,0.66 -4.15,1.06 -1.37,0.08 -3.12,1.48l5.91 0.65c-13.14,0.2 -31.85,1.22 -44.17,-0.51l5.18 -1.28c-1.4,0.12 -3.19,0.39 -4.48,0.45 -5.98,0.28 -2.87,-2.47 -6.84,-1 -4.84,1.81 -1.61,0.4 -2.97,2.75 5.43,-0.33 10.48,1.65 14.88,1.35 8.52,-0.59 41.51,0.2 49.05,2.38 -3.97,-0.14 -7.04,-0.7 -11.01,-0.84 -4.64,-0.17 -8.06,0.9 -12.64,0.24 -6.09,-0.89 -5.78,-0.2 -10.9,0.46 -9.55,1.23 -52.57,-2.14 -57.33,-0.76 -2.82,0.81 -0.97,0.14 -1.85,1.2 4.09,1.48 29.1,-0.6 34.5,-0.11 4.98,0.45 4.33,1.67 10.75,0.96l14.9 0.92c3.75,-0.14 1.53,-0.4 5.38,-1.22 7.41,-1.57 14.39,0.86 22.21,0.82l9.94 1.08c-0.15,2.64 2.6,0.88 -2.58,2.55 9.86,-0.93 -2.22,-0.59 6.35,2.84 -0.9,-4.3 -3.11,-7.78 -3.49,-10.99 -0.44,-3.73 2.02,-10.86 -0.01,-13.05l-0.61 9.01c-0.66,4.08 1.11,1.23 -1.79,3.97 -0.43,-0.83 -1.25,-1.94 -1.2,-3.33 0,-0.14 0.06,-0.37 0.08,-0.51 0.33,-2.14 2.11,-9.37 0.31,-10.61 -0.02,-4.21 1.01,-0.31 -1.15,-0.09 -0.12,0.01 -0.48,0.04 -0.59,0.05 -0.13,0.01 -0.46,0.11 -0.66,0.04l0.7 -5.42c2.32,0.77 7.43,5.8 7.49,5.95 0.22,3.97 -0.25,9.75 -0.17,13.82 0.09,-0.14 0.21,-0.53 0.23,-0.43 0.02,0.1 0.19,-0.35 0.22,-0.44l0.38 -5.45c-0.1,-4.3 -0.69,-4.68 2.38,-5.32 0.13,0.19 0.23,0.3 0.25,0.65 0.25,4.25 0.14,11.46 -1.65,15.1l2.02 2.65 1.46 -12.73c1.05,1.67 -0.4,11.12 0.59,15.43 1.62,-0.45 1.25,-1.14 2.64,-1.1l5.05 0.6c4.44,0.03 7.62,0.79 10.37,-1.62 -0.5,-0.51 -0.14,-1.17 -3.81,-1.12 -3.7,0.05 -5.67,1.27 -9,0.19 -0.14,-0.04 -0.36,-0.14 -0.5,-0.19l-1.03 -0.43c-1.34,-0.56 0.17,0.58 -1.98,-0.86 0.3,-3.3 0.45,-8.29 2.05,-10.41l0.57 10.86c3.04,-4.98 0.22,-6.66 2.61,-10.12 2.95,3.7 -1.34,7.4 2.41,9.58 0.85,-1.76 0.94,-4.07 1.06,-6.34l-0.26 -5.24c2.75,-0.89 0.44,-0.04 1.56,-1.42l3.34 1.84c0.92,0.31 0.91,0.25 1.48,0.23 3.38,-0.13 9.77,-1.72 21.69,-1.64 5.93,0.03 16.6,1.18 22.32,0.4 1.41,-0.2 3.26,-0.71 5.1,0.23l-0.23 12.71c-5.22,2.1 -8.19,-0.2 -15.94,0.12 -5.69,0.24 -0.68,0.17 -4.79,1.59l0.19 -1.42c-0.01,-1.1 0.28,-0.78 -0.65,-2.07l-3.46 -3.82c-5.2,-4.92 -15.21,-2.93 -19.52,4.82 -3.62,6.51 -0.52,5 -2.58,10.09l-14.13 0.24c-1.32,-1.92 -0.73,-0.22 -0.61,-3.13l-1.11 1.53c-0.79,0.79 0.41,0.08 -1.6,1.29 -0.48,-3.5 -0.29,-2.15 -1.06,-2.99 -3.41,-1.17 -1.09,-0.33 -1.75,0.29 0.92,3.5 0.24,4.95 3.53,5.79l-1.85 1.37c3.52,1.79 1.59,1.45 2.04,2.27l1.08 -1.08c1.69,-2.49 1.9,-2.46 3.52,-1.63l1.02 0.74c2.41,-1.03 0.52,0.17 2.41,-2.83 2.84,6.84 5.06,-0.19 12.1,5.05 1.68,1.24 0.78,-0.39 1.71,1.49l-25.13 -0.65c4.57,3.81 22.75,3.08 26.13,3.69 7.1,1.3 6.3,1 11.32,-2.55 3.64,-2.58 8.3,-2.43 12.32,-3.44 0.3,-0.69 3.17,-0.19 -1.54,-1.41 5.82,-0.7 4.79,2.03 7.4,0.14 0.01,-0.01 0.57,-2.78 8.17,-1.2 0.44,0.09 -0.86,0.53 2.93,0.64 2.7,-3.68 2.17,-1.87 2.81,-4.3 -0.9,-3.97 -0.37,-16.26 2.01,-20.39 13.2,1.73 13.71,0.02 21.66,0.21 3.39,0.08 7.2,0.69 11.19,0.45 3.65,-0.23 3.27,-0.93 8.08,0.04l2.92 0.74c-4.13,2.94 -16.27,1.61 -21.39,1.6 -4.25,-0.02 -7.53,0.62 -11.17,0.41 -3.48,-0.21 -8.01,-0.29 -11.46,0.4 4.69,3.46 17.64,-2.51 23.14,-0.28 3.28,1.32 1.35,-0.02 3.52,2.68 -2.76,0 -5.41,-0.68 -7.2,-0.66 -0.49,0.01 -12.78,2.52 -18.5,1.48 2.83,1.73 9.33,0.72 13.18,0.48 3.61,-0.63 4.18,0.25 7.57,0.02l43.28 -1.21c5.9,1.16 10.1,-0.98 16.96,-0.22 -4.93,-3.06 -49.94,0.45 -55.38,-1.49 2.75,-1.68 6.57,-0.64 10.56,-0.82 3.5,-0.16 7.54,-1.28 9.95,-1.01 7.5,0.82 15.11,0.98 22.51,-0.26 7.01,-1.18 15.6,0.78 22.12,0.59 3.17,-0.09 7.83,-0.81 11.21,-1.11 4.27,-0.38 7.48,0.11 11.93,-0.29 -2.72,-1.78 -4.2,-2.01 -7.76,-1.71l-16.19 1.83c-2.65,0.13 -6.03,-0.81 -8.84,-1.1 -7.78,-0.82 -32.3,2.2 -36.9,-0.13l1.74 -0.87c2.13,-0.42 5.24,0.58 11.09,0.21 4.91,-0.3 8.71,-0.61 13.62,-0.62 4.09,-0.01 9.97,-1.12 13.24,-0.62 3.86,0.58 6.77,1.58 11.39,-1.4 -13.35,-0.66 -26.25,1.14 -39.06,0.68 -14.78,-0.53 -8.43,0.03 -18.87,1.54 -3.12,0.44 -15.28,0.6 -18.45,-0.53l65.42 -4.1c6.49,-0.23 15.6,1.22 21.21,-1.52 -3.27,-1.46 -17.48,1.28 -22.98,-1.41 4.97,0.01 19.71,-2.21 24.61,0.31 4.53,2.33 8.61,2.68 14.18,1.24l-9.75 0.16c-3.88,-0.06 2.76,0.76 -1.59,-0.12 -0.31,-0.06 -0.5,-0.16 -0.78,-0.24l-1.51 -0.74c0.25,-0.12 0.62,-0.47 0.78,-0.24l2.29 -0.58c1.35,-0.29 2.01,-0.25 3.29,-0.69 -3.22,-1.84 -31.39,-1.76 -36.17,-0.88 1.55,2.61 0.45,0.55 4.09,2.25 -5.74,1.66 -53.52,3.96 -54.56,3.35 7.24,-4.09 36.7,-0.59 45.94,-4.85 -6.6,-0.33 -10.6,0.47 -16.93,0.71 -4.32,0.17 -8.83,-1.95 -13.07,-0.35 0.25,-0.04 1.01,-1.15 4.15,-1.1l45.85 -2.16c12.32,-1.81 12.3,1.42 16.87,-1.08 -1.42,-0.6 -10.38,-1.73 -13.07,-1.86 -4.45,-0.21 -8.11,1.72 -13.48,1.48 -5.88,-0.27 -7.83,0.16 -13.82,0.73 -2.46,0.23 -4.6,0.03 -7.02,0.14 -2.89,0.12 -4.65,0.64 -6.85,-0.7l26.71 -2.09c9.95,-0.15 18.03,-1.43 28.7,0.15 5.06,0.75 5.09,-0.02 10.16,-0.54 7.14,-0.73 15.68,0.69 23.42,0.32 -2.57,-1.58 -14.11,-2.28 -18.36,-2.7 -3.77,-0.36 -4.89,0.74 -8.25,1.36 -8.73,1.61 -21.56,-1.26 -27.47,-1 -3.78,0.17 -5.35,1.26 -9.79,1.2 -3.7,-0.05 -7.5,-0.55 -11.26,-0.69 7.91,-3.3 40.12,-0.03 42.01,-0.29 1.72,-0.24 10.08,-2.6 11.47,-3.32 -3.74,-1.14 -6.78,-0.42 -10.55,0.17l-33.53 -0.16c3.71,0.25 11.13,-1.54 15.51,-1.56 6.1,-0.03 12.45,0.83 18.46,0.37 4.23,-0.32 2.35,-1.02 7.2,-1.28 2.84,-0.14 6.33,-0.67 8.5,-0.38 12.04,1.58 13.29,-1.13 16.78,0.92 3.19,-0.23 5.49,-0.41 7.49,-2.05l-34.89 -0.85c-6.98,1.11 -26.86,2.2 -34.57,1.19 5.2,-2.42 16.46,-0.6 22.4,-0.6 4.06,0.01 7.53,-1.32 10.42,-1.75 3.39,-0.5 8.72,0.48 12.76,0.17l23.13 -1.66c9.39,-1.7 12.37,-0.47 22.5,-1.78 -6.06,-3.07 -32.78,1.97 -40.64,0.7 -3.59,-0.58 -4.86,-0.73 -9.01,-0.44 -4.37,0.31 -12.95,1.86 -16.9,1.51 0.17,-0.12 0.45,-0.46 0.54,-0.3 0.09,0.17 0.42,-0.22 0.55,-0.27 0.13,-0.05 0.41,-0.18 0.58,-0.24 0.16,-0.05 0.41,-0.14 0.6,-0.19 8.13,-2.3 15.3,-1.24 21.07,-2.31 -4.11,-2.48 -8.49,-0.61 -13.97,-0.6 0.2,-0.16 0.53,-0.54 0.65,-0.34 0.13,0.19 0.49,-0.25 0.66,-0.31l4.17 -0.68c3.97,-0.35 15.86,-1.27 18.04,-0.35l-7.84 1.3c4.1,2.79 7.54,-0.1 12,-0.65 0.61,-2.5 -1.56,0.55 -0.1,-2.44 5.83,0.88 -0.74,0.24 3.08,1.99 2.69,1.24 14.92,-0.86 16.88,-2.44 -1.47,-0.17 -2.82,-0.06 -3.93,-0.19l-3.55 -1.01c3.65,-0.88 8.84,-0.28 12.42,0.49l3.98 -0.09c-2.05,-2.26 -2.86,-1.91 -7.29,-2.6 -2.6,-0.4 -3.7,-0.27 -6.97,0.24 -7.34,1.15 -13.81,0.16 -16.2,1.05 0.81,-1.67 -1.48,-0.39 1.96,-1.62 2.12,-0.75 20.41,-1.77 23.6,-2.87 -6.5,-3.76 -10.71,1.77 -16.61,0.31l2.21 -1.53c-0.18,-0.11 -0.39,-0.23 -0.59,-0.35l-3.09 -2.02 16.37 -1.04c-4.71,-2.27 -32.05,-1.12 -33.13,-1.79 13.36,-3.94 31.72,2.88 43.73,-2.04 -4.24,-0.32 -7.11,0.18 -10.55,0.38 -3.58,0.22 -6.15,-1.01 -8.77,-1.55 -7.8,-1.59 -12.6,-0.12 -19.77,-0.33 5.53,-2.66 14.52,-1.68 21.04,-0.97l23.11 -1.11c-5.84,-3.22 -15.03,2.65 -18.97,0 5.06,-3.34 4.61,-1.35 10.12,-2.99l-1.89 -0.83c-0.25,-0.06 -0.44,-0.11 -0.71,-0.16l-7.67 -0.46c-1.04,-0.18 -9.16,-1.98 -9.18,-1.98 1.96,-0.81 15.45,1 20.65,0.68l-6.03 -1.54 12.39 -0.75 -1.67 1.78c-2.11,2.46 -0.49,-1.24 -0.44,0.87l3.77 -0.11 -0.06 -3.8c-8.12,-1.41 -28.91,1.11 -31.75,0.39 3.85,-2.8 24.23,-2.22 31.51,-2.45l1.35 -5.53 0 -1.68c-3.06,-1.92 -13.15,-1.48 -18.47,-1.57 -6.56,-0.1 -11.74,0.94 -14.62,-4.56 -3.61,-6.89 -5.47,-7.67 -8.28,-11.82l-23.39 -35.21c-2.51,-3.33 -14.31,-18.69 -18.26,-20.88 0.26,1.83 1.57,3.7 1.11,5.07 -0.24,0.11 -0.8,0.31 -0.91,0.32l-2.59 -0.72c-0.15,-0.12 -0.33,-0.34 -0.45,-0.48l-2.8 3.07c-1.7,2.66 0.77,-3.91 -1.27,2.63 4.3,-0.56 2.47,-0.52 5.81,-1.74l1.91 2.32z"/>
   <path class="fil2" d="M426.32 315.57l0.74 -1.07c-0.9,-2.45 -1.57,-6.16 -1.19,-8.78 -1.57,-1.68 -0.57,-3.33 -4.67,-2.06 0.28,1.67 0.12,0.74 1.11,2.05 2.57,3.41 1.7,4.42 2.31,9.94l1.7 -0.08z"/>
   <path class="fil2" d="M415.72 207.59c-0.33,-2.39 -1.66,-3.49 -3.12,-5.34 -1.98,-2.53 -1.52,-3.28 -5.57,-3.64 0.59,3 -0.19,1.23 1.39,3.03 5.36,6.14 2.66,6.57 7.3,5.95z"/>
   <path class="fil2" d="M393.52 232.84c-0.77,2.33 1.33,0.61 -2.16,2.3 -3.16,1.53 -9.66,1.76 -12.51,2.15 -4.99,0.67 -10.89,2.4 -15.74,1.73 1.15,3.68 -0.88,0.33 1.65,1.48 0.73,0.34 2.19,0.48 2.68,0.51 1.34,0.08 3.09,-0.02 4.49,0 5.33,-1.02 11.88,-1.89 17.48,-2.93 4.7,-0.88 12.48,-4.11 16.07,-3.66 -1.96,3.68 -0.33,9.04 3.79,10.31l-2.34 -10.53 7.44 -3.15c5.13,-1.98 7.27,-2.22 7.86,-4.08 -1.17,-0.97 -0.15,-0.74 -2.04,-0.57l-24.66 6.69c-0.01,0 -1,-0.21 -2.01,-0.25z"/>
   <path class="fil2" d="M456.13 323.43c-3.37,1.41 -3.11,1.99 -2.56,6.37 0.48,3.73 0.78,4.13 3.68,3.62 0.67,-1.27 0.84,1.81 0.78,-2.84l-1.9 -7.15z"/>
   <path class="fil2" d="M412.06 333.78l0.06 -4.44c-1.03,-0.49 -1.1,-0.22 -2.56,-1.33 -1.21,1.71 -0.77,5.85 -0.45,7.93l2.97 1.78 -0.02 -3.94z"/>
   <path class="fil3" d="M310.78 238.9l-2.88 0.31c2.82,2.1 3.34,-0.76 6.84,1.74 2.72,0.13 3.28,2.03 4.21,4.49 -1.08,4.7 -3.23,5.82 2.46,7.49 -1.75,-7.71 0.41,-7.53 -0.55,-12.99 -4.4,-0.54 -6.08,-1.25 -10.08,-1.04z"/>
   <path class="fil3" d="M303.51 242.54c2.57,0.42 -0.21,-0.38 1.72,0.48 0.06,0.03 1.44,1.02 1.54,1.09 0.87,-1.02 1.02,1.65 0.7,-1.16 -0.36,-4.25 1.18,-1.36 -2.16,-3.39 -1.19,-0.72 -1.37,-0.22 -1.98,-1.49 -0.63,-1.28 0.73,-3.32 -2.6,-3.58 0.64,3.9 1.03,5.92 2.78,8.05z"/>
   <path class="fil4" d="M168.88 399.86c2.18,3.11 1.53,1.62 4.2,2.97 -0.48,2.34 -0.29,1.71 -1.33,3.39 4.35,0.5 9.52,2.71 12.12,-0.18 -1.49,-0.61 -8.74,-0.44 -10.5,-1.6 3.67,-4.53 3.48,-0.25 7.82,-2.23 -2.52,-1.41 -8.64,-2.26 -12.31,-2.35z"/>
   <path class="fil2" d="M471.39 301.09c-1.16,1.56 0.6,5.54 1.6,7 0.16,-0.12 0.35,-0.3 0.45,-0.36l4.45 -1.88c-0.27,-3.55 -0.5,-5.69 -2.65,-7.45 -1.49,1.9 -2.05,3.09 -1.02,5.47 -3.51,-1.99 1.41,-0.86 -2.83,-2.78z"/>
   <path class="fil2" d="M455.79 303.32c-3.15,1.59 -3.4,0.11 -4.48,2.88 -3.2,-0.05 -12.36,3.98 -13.4,6.42 3.71,0.92 5.5,0.1 8.04,-1.94 3.7,-2.96 16.57,-6.23 21.87,-9.18 0.11,-2.39 0.96,-0.41 -0.45,-1.45l-5.71 1.79c-1.3,0.07 -3.53,1.13 -5.87,1.48z"/>
   <path class="fil2" d="M427.08 348c5.53,-1.47 2.46,-7.1 0.95,-10.2l-2.96 2.42 2.01 7.78z"/>
   <path class="fil2" d="M454.09 293.71l1.18 7.73 1.75 -0.37c0.39,-2.9 -0.5,-1.89 -0.46,-4.56 0.04,-2.47 0.16,-3.97 -0.24,-6.22l-2.82 0.13 0.59 3.29z"/>
   <path class="fil5" d="M309.64 227.33l2.5 -2.32c0.84,-1.1 -0.12,-4.62 7.63,-1.54 0.2,4.1 -0.39,4.03 -2.56,6.17l-7.57 -2.31zm14.69 -18.82c-0.14,0.2 -0.32,0.5 -0.4,0.63l-0.83 1.31c-0.08,-0.14 -0.26,0.47 -0.43,0.67 5.2,0.04 2.03,0.46 4.85,-1.61 2.01,1.73 1.9,1.15 4.07,2.27l-1.53 4.64c-3.66,0.66 -5.8,-0.71 -6.21,-4.26 -0.04,-0.32 -0.11,-0.43 -0.21,-0.63 -9.82,-1.13 -6.61,1.44 -9.46,0.07l5.38 -2.99c-2.79,0.44 -3.43,0.84 -6.65,0.86 -3.95,0.01 -8.75,3.22 -10.38,6.85 -2.7,6.04 -0.76,5.51 -0.68,5.64 2.52,-4.34 2.09,-11.03 9.64,-9.41 -10.65,7.44 -5.84,6.32 -8.06,11.97 -0.52,1.32 -1.08,1.9 -1.44,2.58 -1.14,2.14 -1.54,2.99 -0.84,5.45 2.47,-1.33 1.22,-2.64 3.37,-5.43 3.81,-4.95 3.08,-3.67 4.66,-3.18l-1.2 5.89c0.35,3.71 0.03,1.1 1.2,2.2 3.18,-0.49 2.47,-1.5 8.84,-1.35 0.14,-0.18 0.38,-0.64 0.45,-0.49l1.64 -1.85c1.13,-1.64 0.88,-1.53 1.48,-3.78 -2.11,-2.39 -1.51,-0.91 -3.41,-3.99l-10.39 -1.49c0.26,1.1 0.84,0.69 0.84,2.53 0,0.16 -0.09,0.5 -0.1,0.65 -0.02,0.15 -0.06,0.47 -0.15,0.69l-3.29 -0.1c1.28,-1.9 2.91,-6.34 3.95,-7.32 3.03,-2.83 3.24,1.11 6.77,-3.18 8.37,1.14 6.33,4.79 12.64,6.22 5.63,-3.41 2.87,-3.83 5.67,-8.03 -2.2,-0.93 -6.44,-2.49 -9.68,-3l-0.11 0.97z"/>
   <path class="fil6" d="M298.36 217.29c-0.26,10.55 -5.12,6.05 -8.86,11.68 -3.54,5.3 0.31,13.05 3.05,15.43 1.86,1.62 4.45,2.11 6.48,3.97 3.53,3.25 0.28,3.15 5.29,5.19 5.36,2.19 2.79,0.15 5.38,4.85 2.27,4.12 3.4,0.9 2.76,6.43 -0.72,-0.96 0.4,-2.02 -3.99,-3 -1.39,-0.32 -3.63,-0.45 -5.28,-0.78l-29.34 -6.9c-8.41,-0.15 -0.79,0.87 -9.42,-1.61 -5.44,-1.57 -4.2,-1.79 -7.96,-3.4 -2.02,-0.87 -1.99,-0.46 -4.1,-1.55 -2.26,-1.16 -7.62,-4.34 -10.95,-2.96l3.98 1.82c1.45,0.6 1.05,0.34 2.34,1.2 6.63,4.42 14.54,5.05 22.66,8.77 2.14,0.03 2.23,-0.29 3.45,-1.16 1.86,2.13 0.7,1.9 4.26,2.8 4.52,1.14 24.57,3.87 29.82,5.62 2.04,0.67 1.22,0.18 2.33,1.5l0.88 1.52c1.21,3.03 -0.77,2.19 1.78,5.23 -1.07,1 -2.32,1.91 -3.91,3.21 1.33,1.22 3.45,1.35 4.3,1.61l-2.49 3.16c0.5,2.01 -0.2,1.03 1.57,1.7 3.52,-8.37 -0.08,-0.74 4.8,-4.62l2.09 3.64 0.62 -4.73 -3.62 -3.17c1.66,-5 2.46,-4.96 4.23,-12.04 0.5,-1.9 1.11,-2.65 0.52,-5.29 -2.97,0.74 -0.77,0.11 -2.21,1.24 -0.67,0.52 0.07,0.32 -1.72,1.59 -1.53,-3.25 -3.4,-3.43 -6.35,-4.81l0.76 -5c-1.5,-0.91 -1.19,-0.45 -2.49,-1.19l-6.9 -4.63c-2.36,-2.2 -1.25,-0.94 -2.28,-4.75 -0.13,-0.48 -0.53,-1.97 -0.73,-2.46l-1.17 -2.07c-1.78,2.66 -1.19,3.13 -0.35,6.25 -3.01,-1.86 -1.94,-7.63 -0.07,-10.62l1.22 3.57c1.03,-3.05 0.16,-4.71 0.15,-4.8 -0.51,-2.72 1.75,-10.98 2.38,-13.82l-0.84 0.92c-1.65,1.9 -0.91,3.39 -1.64,1.96 -0.07,-0.14 -0.26,0.35 -0.43,0.5z"/>
  </g>
 </g>
</svg>
