<?xml version="1.0" encoding="UTF-8"?>
<!DOCTYPE svg PUBLIC "-//W3C//DTD SVG 1.1//EN" "http://www.w3.org/Graphics/SVG/1.1/DTD/svg11.dtd">
<!-- Creator: CorelDRAW 2017 -->
<svg xmlns="http://www.w3.org/2000/svg" xml:space="preserve" width="50.7998mm" height="33.8666mm" version="1.1" style="shape-rendering:geometricPrecision; text-rendering:geometricPrecision; image-rendering:optimizeQuality; fill-rule:evenodd; clip-rule:evenodd"
viewBox="0 0 5079.98 3386.66"
 xmlns:xlink="http://www.w3.org/1999/xlink">
 <defs>
  <style type="text/css">
   <![CDATA[
    .fil0 {fill:#83A2D0}
    .fil1 {fill:#9D2523}
    .fil2 {fill:#EBA42A}
   ]]>
  </style>
 </defs>
 <g id="Capa_x0020_1">
  <metadata id="CorelCorpID_0Corel-Layer"/>
  <path class="fil0" d="M3532.31 1028.87c-12.98,47.72 17.55,-37.02 -12.63,17.93 -5.83,10.62 -14.4,-11.72 -5.39,25.49 4.53,18.68 28.07,37.76 36.66,46.16 -21.19,18.74 -23.35,-1.63 -18.85,81.65 2.38,44.03 18.66,55.75 3.97,99.21 -18.34,54.29 -61.1,106.54 -62.15,167.56l83.94 -4.84c10.64,-27.34 18.34,-54.88 34.73,-74.42 53.55,16.4 -10.98,11.09 70.64,47.7 47.34,21.23 -4.41,14.16 80.36,41.05 67.16,21.3 47.18,43.8 149.21,56.24 9.43,1.15 11.28,-0.17 18.6,4.39l-64.02 67.03 -414.93 94.19c-30.79,8.44 -41.88,7.29 -52.58,30.7 42.45,24.28 72.16,8.91 118.95,8.66 -69.76,168.02 28.11,322.72 99.88,409.52 25.02,-8.76 30.78,-17.32 48.39,-41.86 -10.37,-35.32 -116.79,-103.5 -92.77,-302.37l146.52 -3.96 29.25 87.21 68.45 -7.54c5.5,-21.53 -5.53,-20.25 -14.41,-55.29 32.71,10.84 10.99,-1.67 36.34,21.61 50.61,46.47 7.19,65.95 1.41,78.39 -20,43.12 -5.25,124.49 8.1,166.97 15.65,49.82 60.33,129.97 108.1,143.93l6.6 -54.86 25.31 -5.02 12.58 -439.8c1.41,-60.8 14.96,-74.04 54.22,-94.97 24.7,20.08 34.97,30.49 59.37,36.16l-9.8 50.79c16.59,9.45 18.36,6.05 33.36,15.87 35.6,23.3 -6.95,5.71 53.38,37l63.01 43.62c27.86,29.47 54.12,31.16 110.01,37.58 10.28,28.87 15.5,28.74 22.34,60.66 5.6,26.18 7.41,49.61 7.64,76.28l68.16 3.78c2.01,-40.64 -2.96,-79.25 -12.6,-110.6 101.64,-8.19 40.9,11.12 90.58,0.98 23.11,-4.71 -5.63,-5.44 57.47,6.47 28.95,-23.25 -8.84,-16.17 32.02,-19.88 26.49,-2.4 10.02,25.2 39.06,-6.42 19.34,-21.16 -11.94,-20.91 -25.05,-75.28 48.56,15.65 71.95,47.92 135.71,43.83 1.08,-38.52 -2.43,-16.38 -17.91,-50.48 29.88,1.2 67.54,8.85 91.82,-6.4 4.1,-26.75 -60.59,-23.18 -75.84,-63.23 32.7,6.09 72.05,11.99 108.8,5.85 -6.04,-44.7 -20.98,-20.11 -24.31,-54.48 -0.39,-4.06 2.59,-19.87 2.54,-20.7 -34.04,-43.13 -185.63,-77.6 -258.14,-82.53 11.24,-56.13 -62.83,-50.15 -126.62,-46.91 -8.69,-50.46 -88.01,-139.44 -137.09,-148.47 -20.55,17.55 -32.17,33.95 -38.79,56.61 30.32,26.2 58.72,42.72 79.37,80.27 -79.75,21.21 -240.57,-66.54 -218.03,-141.17 6.03,-19.95 33.28,-40.17 44.75,-54.18 27.61,-33.76 7.62,-20.23 59.01,-40.07 47.24,-18.24 86.29,-40.92 135.35,-53.47 -53.29,-3.08 -110.88,33.19 -160.38,34.6 -71.01,2.02 -105.86,-10.5 -179.57,12.46 22.15,19.29 18.32,1.98 31.77,32.42 -15.33,12.86 -41.59,32.06 -66.06,38.8l-193.05 -200.91c-7.6,-15.81 -10.91,-32.43 -18.05,-48.21 -4.96,-10.96 -4.48,-12.63 -11.69,-21.38 -10.28,-12.47 -3.78,-7.11 -13.94,-8.21 -10.6,-1.15 -5.8,50.43 -57.97,-50.89 -28.56,-55.45 -64.5,-110.42 -107.49,-155.65 -30.11,-31.67 -54.12,0.62 -59.62,7.31l-7.74 10.34c-10.31,-26.02 -6.29,-22.83 -33.84,-32.53 -4.87,42.65 14.33,58.15 2.83,84.07 -14.67,33.1 -34.15,12.9 20.75,105.64z"/>
  <path class="fil0" d="M3906.15 2426.11c74.52,28.1 101.26,47.13 200.05,54.22 74.63,5.35 170.11,-3.36 207.48,-46.06l-28.79 -64.46c-61.63,12.23 -84.21,29.49 -165.92,27.74 -74.98,-1.61 -107.95,-27.25 -166.27,-29.83 -17.8,26.14 -35.4,29.93 -46.55,58.39z"/>
  <path class="fil0" d="M4219.99 2228.62l-2.67 66.29c134.13,-20.84 247.29,-201.4 144.07,-177.54 -36.69,8.48 -44.77,67.92 -141.4,111.25z"/>
  <path class="fil0" d="M3695.33 2203.95c10.29,37.61 47.96,88.52 70.01,111.83 23.51,-2.01 12,-0.25 36.82,-8.88 24.55,-8.52 21.11,-4.75 41,-20.69 -11.75,-27.14 -27.88,-37.6 -46.54,-64.16 -18.08,-25.71 -23.66,-43.64 -39.51,-65.81 -42.94,8.41 -41.67,12.91 -61.78,47.71z"/>
  <path class="fil0" d="M3712.76 2011.36l80.14 -10.61c-16.57,-62.36 -43.42,-117.24 -114.22,-113.89 -3.96,50.61 22.52,83.49 34.08,124.5z"/>
  <path class="fil1" d="M2616.76 2093.07c11.09,-6.74 40.73,-22.71 54.52,-26.24 26.22,16.26 43.95,48.9 48.21,79.61 -45.29,18.13 -144.48,58.93 -196.73,57.94l-35.73 -8.66c33.08,-19.94 53.75,-1.64 83.37,-24.68l-87.31 0.81 -1.81 -117.41 83.26 4.21c-5.44,16.89 -6.83,18.7 -19.48,25.03 35.75,-0.97 38.09,-37 103.29,-35.18 -12.87,46.38 -17.75,10.78 -31.59,44.57zm-142.34 -37.19l1.02 115.74 -79.79 -2.65c5.3,18.21 -2.19,10.67 29.71,16.34 8.92,1.59 15.35,1.07 22.77,2.45l25.8 7.96c-54.59,32.82 -162.18,-17.3 -214.18,-33.66 6.54,-85.99 70.91,-158.61 156.52,-164.99 2.99,7.37 -0.15,23.79 13.01,37 20.21,20.29 20.4,7.04 45.14,21.81zm146.87 -115.16c11.33,-17.71 73.03,-66.73 91.12,-81.81l191.23 101.68c-14,56.29 -114.07,159.65 -177.26,171.98 -13.65,-28.01 -24.2,-34.67 -33.01,-68.47 36.31,-18.15 70.13,-3.6 91.24,-37.59l-54.66 14.08c21.67,-23.8 38.64,-17.86 56.93,-50.16l-40.94 -3.28c-0.04,-0.37 -0.03,-2.32 -0.63,-3.24 -21.53,17.8 -43.78,43.39 -65.81,53.35 -15.31,-16.03 -0.44,0.14 -12.85,-19.32 -33.52,-52.55 -29.77,-29.09 -45.36,-77.22zm297.32 12.18c-46.43,-8.18 -67.43,-31.02 -103.67,-49.07 -33.34,-16.61 -65.31,-34.06 -93.29,-52.59 38.33,-64.55 112.13,-124.43 187.55,-107.51 56.04,12.57 10.41,21.96 33.54,62.72l10.32 -28.12c12.16,-20.52 -6.35,-4.92 18.09,-20.19 -0.43,79.61 -34.1,138.59 -52.54,194.76zm-979.45 -321.05l27.88 11.63c1.71,0.82 3.87,1.95 5.58,2.8 78.5,38.97 56.34,49.97 93.17,77.16 22.37,16.51 21.84,13.93 41.72,32.74 79.07,74.83 144.64,70.92 227.25,66.45l-82.28 102.33c-12.67,14.48 -20.35,20.6 -32.46,33.23l-108.11 150.35c-44.89,-17.15 -79.12,-66.33 -101.56,-107.85l-15.03 -25.64c-15.63,-23.01 -21.89,-33.14 -32.36,-58.59 -28.76,-69.95 -59.43,-239.45 -23.8,-284.61zm400.4 -423.25c7.92,-4.95 -0.48,-2.18 19.1,-8.86 45.31,-15.46 144.44,-14.27 186.96,-10.08 65.96,6.49 134.59,30.05 190.78,61.58 66.78,37.48 49.11,17.06 120.68,83.86 24.58,22.94 35.56,31.78 57.97,57.66 19.29,22.27 43.25,44.21 23.04,71.79 41.94,1.19 56.29,65.59 67.41,101.87 7.94,25.88 10.69,40.45 15.16,66.98 4.96,29.47 12.64,57.77 -3.89,79.47 -43.05,-27.72 11.32,-32.03 -44.5,-73.76 -57.08,-42.68 -63.75,-79.15 -103.57,-108.48 -44.04,57.14 39.38,89.08 -213.87,104.21l-2.37 -5.25c-4.6,-3.21 21.71,-0.13 -3.32,-2.48 -0.04,0 -56.97,17.15 -83.06,-1.88 -5.01,-7.95 -10.09,-22.55 -16.2,-32.66 -23.77,-39.3 -33.28,-43.07 -44.44,-112.51 9.08,-9.14 -10.28,-11.19 20.47,-11.99 -48.37,-27.59 -23.5,-9.74 -44.69,-61 -9.49,-22.94 -30.38,-51.48 -42.03,-73.63l-99.63 -124.84zm134.06 -88.08c-107.52,3.8 -219.73,46.87 -245.35,37.37 -45.6,-16.9 -171.98,-88.71 -219.7,-64.45l46.51 19.04 -75.26 11.16 97.82 32.49c-36.74,21.02 -81.95,-4.73 -117.96,23.38l70.85 15.53c-76.59,32.23 -76.41,22.96 -113.85,8.27l41.95 77.4c1.56,1.5 16.72,9.09 26.13,18.38 -59.92,32.45 -137,-80.08 -173.88,-87.35 43.75,93.23 62.06,73.14 90.71,121.89 -78.11,-5.5 -121.5,-53.18 -180.07,-70.18 16.29,65.86 78.74,92.16 126.91,126.22 -47.6,3.22 -105.55,-24.61 -127.31,-8.32 35.29,34.6 81.49,42.9 125.72,62.7 -46.9,2.88 -84.48,-3.54 -115.25,19.56 8.05,6.88 -5.16,3.26 22.08,12.48 29.12,9.86 75.02,4.11 103.76,20.71 -69.94,26.61 -151.72,74.93 -4.91,56.3l-15.86 33.62 18.27 9.66c1.29,0.77 4.21,2.76 5.33,3.44 1.17,0.72 3.77,2.31 5.54,3.63l-11.3 105.8 -52.94 6.02 54.95 12.36c-0.11,127.59 45.71,239.17 102.92,324.27 83.72,124.55 143.45,107.18 131.69,179.08 -4.82,29.46 -19.24,68.41 -3.89,93.03 24.27,-50.29 -3.54,-50.78 41.13,-96.71 110.6,8.02 81.02,175.85 138.8,320.21 -5.98,-87.66 -29.09,-164.94 -23.99,-270.76 82.52,19.45 129.16,41.27 230.91,42.83l2.87 94.88c13.76,-25.24 8.89,-59.39 10.55,-95 174.19,-9.88 281,-58.49 392.36,-145.38 43.22,-33.71 91.19,-87.25 127.36,-144.46 51.87,-82.06 62.58,-158.86 83.53,-185.5 18.49,16.59 44.95,26.38 62.23,43.04 -62.51,-93.66 -61.44,-10.62 -57.9,-156.6l67.35 -8.64 -64.72 -11.96c-11.87,-186.4 -84.13,-316.61 -185.72,-413.16 -112.5,-106.92 -224.07,-155.72 -424.58,-175.65l-13.79 -0.63z"/>
  <path class="fil2" d="M701.98 2064.1c1.53,-1.57 3.78,-3.42 4.94,-4.34 33.01,-26.1 140.26,-75.09 175.64,-80.63l-14.11 168.58c52.55,-29.24 38.98,-117.41 149.26,-111.27 39.84,2.22 130.38,66.63 156.68,102.06 -49.79,22.72 -75.5,48.51 -141.96,71.72 -179.78,62.79 -354,23.03 -497.45,-74.1 162.52,-106.59 139.07,-25.56 196.07,-3.01 1.92,-53.53 -8.9,-26.89 -29.07,-69.01zm121.23 -158.72c26.17,23.29 29.07,7.53 49.87,18.88 3.04,42.19 5.22,37.33 -23.97,53.58l-160.3 66.27c-43.18,-34.06 -110.96,-148 -90.49,-209.18 11.18,-1.57 169.77,20.83 189.2,24.97 10.95,12.29 27.51,38.21 35.69,45.48zm236.08 -14.02c40.09,-17.4 73.66,-0.67 102.26,-37.64 36.89,-47.68 94.78,-35.46 140.65,-48.03 31.14,-8.53 44.92,-23.84 77.7,-31.13 -13.14,126.01 -93.52,293.8 -181.08,337.46 -29.57,-37.82 -136.06,-187.35 -139.53,-220.66zm-137.03 -98.71c14.92,-69.07 113.22,-155.59 154.28,-204.36 18.43,-21.89 13.18,-28.27 38.68,-51.84 40.78,-37.67 109.86,-87.2 165.86,-103.24 52.91,53.57 93.41,169.17 99.49,262.86 -118.57,23.07 -145.55,95.64 -156.95,105.04 -36.54,30.14 -60.54,18.05 -88.51,27.57 -117.8,40.09 -9.82,114.53 -212.85,-36.03zm-273.25 271.45c-23.95,21.51 -57.87,34.95 -93.47,49.12 -128.02,50.96 -345.48,-414.02 -156.27,-640.74 8.33,77.18 10.84,73.32 54.91,110.71 77.22,65.55 127.2,63.69 45.43,161.58 -34.07,-1.87 -20.79,-3.75 -51.39,-12.36 4.01,107.62 -71.31,121.59 35.95,207.11 56.46,45.02 136.21,67.77 164.84,124.58zm35.88 -818.09c111.56,-31.67 194.75,-37.9 311.57,-8 117.58,30.08 156.5,79.31 231.25,124.01l-87.26 68.61 -227.09 68.32c-40.59,13.83 -69.02,39.29 -112.51,40.64 -20.28,-49.81 -62.94,-88.26 -94.54,-127.29 -22.53,-27.83 -24.07,-123.02 -21.42,-166.29zm-252.13 927.81c-123.45,37.14 -66.82,-14.35 -121.13,30.81 -32.01,26.62 -73.13,48.71 -99.98,74.74 59.77,-14.98 95.78,-28.73 164.57,-34.61 5.96,-13.78 3.54,-16.97 6.88,-24.49 12.56,-28.3 27.62,-31.87 58.93,-42.52 84.99,44.6 149.47,140.35 386.48,153.36 147.14,8.08 340.94,-62.88 408.38,-136.73l66.2 34.71c-12.26,-15.52 -30.59,-28.68 -47.48,-39.67 26.06,-46.38 292.86,-247.88 185.93,-622.95 -25.1,-88.06 -62.62,-128.8 -95.5,-193.35 16.6,-31.76 38.13,-51.45 50.23,-89.41 -76.63,37.83 -39.86,17.05 -100.04,39.91 -81.72,-109.3 -267,-188.2 -426.31,-189.62 -82.66,-0.74 -121.71,13.71 -190.45,18.88l-11.72 -74.55c-73.7,25.73 -147.85,140.97 -216.92,204.88 -225.93,209.06 -277.76,511.95 -112.69,769.34 28.42,44.31 80.5,90.34 94.62,121.27z"/>
 </g>
</svg>
