<?xml version="1.0" encoding="UTF-8"?>
<!DOCTYPE svg PUBLIC "-//W3C//DTD SVG 1.1//EN" "http://www.w3.org/Graphics/SVG/1.1/DTD/svg11.dtd">
<!-- Creator: CorelDRAW 2017 -->
<svg xmlns="http://www.w3.org/2000/svg" xml:space="preserve" width="50.7998mm" height="33.8666mm" version="1.1" style="shape-rendering:geometricPrecision; text-rendering:geometricPrecision; image-rendering:optimizeQuality; fill-rule:evenodd; clip-rule:evenodd"
viewBox="0 0 5079.98 3386.66"
 xmlns:xlink="http://www.w3.org/1999/xlink">
 <defs>
  <style type="text/css">
   <![CDATA[
    .fil0 {fill:none}
    .fil2 {fill:#195E95}
    .fil1 {fill:url(#id0)}
   ]]>
  </style>
  <radialGradient id="id0" gradientUnits="userSpaceOnUse" gradientTransform="matrix(1 -0 -0 1 0 0)" cx="2539.99" cy="1693.33" r="9031.11" fx="2539.99" fy="1693.33">
   <stop offset="0" style="stop-opacity:1; stop-color:#393185"/>
   <stop offset="1" style="stop-opacity:1; stop-color:#195E95"/>
  </radialGradient>
 </defs>
 <g id="Capa_x0020_1">
  <metadata id="CorelCorpID_0Corel-Layer"/>
  <rect class="fil0" x="-0" width="5079.99" height="3386.66"/>
  <g id="_1612259826768">
   <path class="fil1" d="M1734.89 1350.86c66.78,35.34 136.63,52.72 221.39,41.15 13.49,-1.85 25.23,-6.92 38.99,-8.46 34.09,-3.82 136.99,25.48 280.35,-38.7l150.21 -78.11c19.86,0 252.26,132.85 285.83,152.77 46.98,27.86 90.72,51.39 138.69,77.61l631.01 354.33c80.6,44.59 87.16,36.47 -20.97,215.53l-358.16 639.2c-54.65,94.2 -58.21,33.79 -339.91,-111.66 -46.08,-23.79 -93.97,-52.07 -138.49,-77.8 -197.96,-114.43 -446.82,-241.84 -635.43,-355.92 -102.39,-61.93 -252.5,-136.62 -354.5,-198.26 -46.4,-28.03 -91.76,-50.05 -138.17,-78.12 -85.3,-51.59 -115.32,-43.73 -81.43,-109.05l275.97 -493.16c8.13,-13.7 11.64,-21.86 19.47,-34.6 9.73,-15.84 14.46,-20.85 19.14,-40.95 8.69,10 2.07,2.5 9.96,14.08 6.56,9.64 5.6,8.63 12.29,17.74 9.56,13 18.06,22.69 25.82,34.27 -5.47,20.49 -31.44,58.03 -42.06,78.11zm860.01 1880.56l-116.18 0c-107.59,-3.95 -214.98,-18.96 -319.74,-45.57 -278.51,-70.75 -453.69,-184.03 -662.65,-358.75 -162.19,-135.61 -334.06,-406.46 -406.64,-614.75 -75.06,-215.4 -87.8,-341.14 -87.8,-573.1 0,-291.36 125.98,-625.34 281.45,-836.07 54.02,-73.22 103.66,-134.84 167.66,-198.84 259.14,-259.13 651.47,-449.11 1034.91,-449.11l108.15 0c278.55,0 615.76,117.98 836.05,281.47 258.08,191.53 450.64,423.28 560.17,737.6 75.07,215.4 87.8,341.14 87.8,573.1 0,291.1 -125.8,625.1 -281.45,836.07 -114.58,155.32 -212.71,255.29 -369.96,369.05 -236.96,171.43 -531.77,267.79 -831.77,278.9zm-211.13 -2487.39c92.67,0 394.91,55.45 432.38,53.25 49.73,-2.93 249.66,-161.4 318.65,-161.4 47.75,0 293.18,272.53 339.11,333.81 12.62,16.84 21.81,29.74 33.33,44.78 38.97,50.85 174.3,232.55 174.3,276.31 0,64.35 -109.44,164.82 -169.38,203.13 -73.58,47.04 -201.79,97.28 -293.25,97.28 -53,0 -319.32,-157.07 -388.56,-194.24l-375.41 -213.77c-45.14,-17.67 -210.73,131.63 -389.6,131.63 -141.36,0 -331.71,-120.57 -255.92,-243.91 29.48,-47.98 161.28,-111.83 215.04,-145.45l163.52 -106.84c57.22,-37.45 104.2,-74.58 195.79,-74.58z"/>
   <path class="fil2" d="M2473.89 2089.87c-26.22,0 -46.95,-9.93 -72.09,-12.02 7.34,-31.53 29.47,-59.31 44.07,-88.1 12.55,-24.73 31.87,-66.61 52.06,-80.13 118.22,79.16 33.1,180.25 -24.04,180.25zm0 -306.42c-38.09,-8.88 -78.1,-62.4 -78.1,-96.13 0,-25.52 37.84,-60.09 78.1,-60.09 34.44,0 42.97,9.6 72.1,12.02 -9.08,39.01 -63.24,106.18 -72.1,144.2zm114.16 -210.29c-137.9,-66.17 -270.37,15.81 -270.37,102.14 0,47.11 1.67,72.03 41.02,121.21 17.57,21.96 44.27,43.73 67.13,59.04 -5.14,22.06 -10.67,26.67 -21.46,44.63l-47.18 84.99c-10.83,17.91 -16.35,22.57 -21.48,44.61 -26.57,-7.09 -72.1,-53.33 -72.1,-96.13 0,-28.05 11.51,-36.37 10.21,-53.54 -2.54,-33.66 -88.32,-90.59 -88.32,71.57 0,75.83 72.11,111.36 102.14,156.21 -7.03,13.3 -18.02,29.31 -18.02,48.07 0,6.16 38.29,85.94 90.12,-12.02 202.03,96.94 382.87,-122.51 211.86,-277.95 -18.84,-17.13 -22.12,-11.32 -37.62,-34.48 15.62,-29.53 72.62,-120.67 78.1,-144.19 45.16,12.06 60.09,72.89 60.09,114.15 0,20.13 -31.88,84.12 30.04,84.12 66.46,0 63.42,-118.19 24.22,-192.45 -12.39,-23.47 -39.53,-64.77 -66.28,-71.91 2.45,-29.49 18.02,-36.26 18.02,-54.08 0,-20.36 -21.69,-42.05 -42.05,-42.05 -29.65,0 -37.84,28.73 -48.07,48.06z"/>
   <path class="fil2" d="M2738.26 2498.42c51.18,27.09 101.18,55.36 150.47,83.85l149.94 84.38c30.69,-45.84 55.54,-99.89 85.27,-149.04 14.23,-23.52 28.35,-50.09 40.9,-73.26 14.15,-26.13 27.71,-51 42.05,-78.11 -68.69,-46 -185.97,-58.63 -278.81,-26.47 -45.08,15.62 -78.48,35.85 -110.47,63.77 -40.1,34.98 -48.19,48.34 -79.35,94.88z"/>
   <path class="fil2" d="M3110.76 1921.64c0,68.72 27.21,142.82 55.11,185.21 35.11,53.34 69.93,85.98 125.14,115.2l124.15 -224.33c13.3,-26.21 35.51,-51.28 38.07,-82.09 -18.06,-4.21 -22.69,-7.8 -37.28,-16.79l-263.13 -145.43c-5.99,25.73 -19.46,46.36 -27.71,74.43 -7.63,25.93 -14.35,63.54 -14.35,93.8z"/>
   <path class="fil2" d="M1488.55 1795.46c46.26,30.98 99.83,55.37 149.05,85.28l151.36 82.95c11.24,-48.24 42.06,-54.85 42.06,-180.24 0,-122.31 -100.96,-267.22 -180.25,-288.4 -4.2,18.06 -7.79,22.69 -16.79,37.29l-145.43 263.12z"/>
  </g>
 </g>
</svg>
