<?xml version="1.0" encoding="UTF-8"?>
<!DOCTYPE svg PUBLIC "-//W3C//DTD SVG 1.1//EN" "http://www.w3.org/Graphics/SVG/1.1/DTD/svg11.dtd">
<!-- Creator: CorelDRAW 2017 -->
<svg xmlns="http://www.w3.org/2000/svg" xml:space="preserve" width="5.5878mm" height="5.5878mm" version="1.1" style="shape-rendering:geometricPrecision; text-rendering:geometricPrecision; image-rendering:optimizeQuality; fill-rule:evenodd; clip-rule:evenodd"
viewBox="0 0 558.78 558.78"
 xmlns:xlink="http://www.w3.org/1999/xlink">
 <defs>
  <style type="text/css">
   <![CDATA[
    .fil0 {fill:none}
    .fil1 {fill:#282829}
   ]]>
  </style>
 </defs>
 <g id="Capa_x0020_1">
  <metadata id="CorelCorpID_0Corel-Layer"/>
  <rect class="fil0" x="-0" y="-0" width="558.79" height="558.79"/>
  <g id="_1766877655808">
   <g>
    <path class="fil1" d="M198.36 376.88l74.74 0 0 11.68 -74.74 0 0 -11.68zm254.6 142.49l-35.57 0c-27.43,-0.91 -27.5,-7.54 -27.5,-46.72l-205.55 0c-17.86,0 7.92,46.72 -28.03,46.72l-35.56 0c-27.43,-0.91 -27.5,-7.54 -27.5,-46.72l-35.04 0c0,-11.96 2.56,-47.35 -2.33,-56.06l11.68 0c0,-47.1 -1.27,-137.04 2.45,-182.07 1.14,-13.77 3.29,-35.51 4.43,-49.29 0.74,-8.95 -0.37,-18.92 0.11,-27.92 0.57,-10.57 2.35,-11.05 2.35,-23.35 -27.31,2.28 -35.04,14.49 -35.04,39.71 8.45,2.26 14.02,8.15 14.02,18.69 0,44.9 5.82,58.39 -25.7,58.39 -25.37,0 -24.72,-12.77 -25.1,-22.89 -0.01,-0.4 -0.25,-4.51 -0.29,-5.41 -0.09,-1.65 -0.19,-3.35 -0.3,-5.09l0 -26.58c1.07,-6.89 3.57,-12.53 8.82,-15.29 10.16,-5.35 10.74,3.58 12.32,-15.71 0.85,-10.33 1.41,-14.38 6.29,-21.74 10.6,-15.99 23.65,-16.97 36.06,-20 18.32,-4.47 4.02,-11.73 19,-37.06l4.85 -6.82c0.31,-0.38 0.75,-0.91 1.07,-1.28 7.87,-9.19 13.11,-9.44 28.36,-13.67 97.35,-27.03 206,-24.21 301.14,-4.47 38.27,7.94 50.21,13.61 59.76,52.36 3.63,14.74 1.8,8.46 15.96,12.06 30.67,7.8 36.59,26.21 36.59,54.51 9.3,0.21 18.68,2.71 18.68,11.68 0,37.31 7.06,65.4 -18.68,65.4 -37.11,0 -30.37,-7.1 -30.37,-60.73 0,-17.69 11.68,-10.45 11.68,-21.02 0,-23.21 -2.71,-28.05 -32.7,-35.04 2.97,6.19 11.68,198.33 11.68,200.88l0 81.75 9.34 0 0 56.06 -23.35 0c-16.75,0 2.57,28.97 -14.23,41.84 -3.72,2.85 -7.49,4.88 -13.8,4.88zm-158.84 -135.48c1.39,-5.2 0.55,-7.01 7.01,-7.01 66.05,0 69.68,-5.89 70.07,11.68l-70.07 0c-6.58,0 -4.32,-1.01 -7.01,-4.67zm144.82 9.34c-22.57,0 -28.03,-5.46 -28.03,-28.02 0,-27.68 51.4,-31.33 50.98,4.71 -0.14,12.27 -9.59,23.31 -22.95,23.31zm-317.66 -49.05c22.2,0 32.7,1.67 32.7,28.03 0,20.03 -26.51,29.61 -41.69,16 -21.12,-18.94 -0.8,-44.03 8.99,-44.03zm172.84 9.35l77.08 0 0 9.34 -77.08 0 0 -9.34zm-95.76 0c27.15,-6.33 56.97,-0.4 74.74,0l0 9.34 -74.74 0 0 -9.34zm95.76 -212.56l168.18 0c0,10.56 1.17,11.65 1.99,19.03l7.35 149.15 -177.52 0 0 -168.18zm-196.2 0l165.84 0c5.38,0 7.01,1.63 7.01,7.01l0 154.16c0,5.38 -1.63,7.01 -7.01,7.01l-168.17 0c-10.02,0 -4.74,-5.96 -4.75,-35.12 -0.02,-32.06 7.08,-99.48 7.08,-133.06zm100.44 -67.74c0,-5.38 1.62,-7 7.01,-7l144.81 0c10.97,0 7.01,14.35 7.01,42.04l-158.83 0 0 -35.04z"/>
    <path class="fil1" d="M347.85 295.13l2.33 -2.33 2.34 -2.34 2.34 -2.34c-0.55,-6.41 -0.23,-5.07 -2.34,-9.34 16.93,-8.96 40.01,-15.88 62.64,-4.06 12.5,6.52 1.99,4.4 7.43,15.74 8.4,5.63 9.83,5.09 18.69,9.34 0.71,-32.07 12.87,-28 -16.02,-49.38l-14.35 -11.35c-27.64,18.51 -28.78,13.58 -49.05,0l-2.53 2.14c-1.93,1.51 -2.05,1.63 -3.99,3.02 -38.5,27.39 -27.39,12.91 -23.84,55.57l16.35 -4.67z"/>
    <path class="fil1" d="M380.55 241.41c11.64,0 19.51,-0.33 27.13,-12.57 33.25,-53.46 -34.82,-81.58 -49.48,-40.11 -5.21,14.75 -6.96,13.87 3.7,36.29 2.4,5.04 11.78,16.39 18.65,16.39z"/>
    <path class="fil1" d="M354.86 288.12l-2.34 2.34 -2.34 2.34 -2.33 2.33 0 7.01 79.41 0c-2.31,-8.66 -2.36,-3.02 -4.67,-11.68 -11.95,-3.19 -14.21,-10.96 -32.71,-11.84 -16.73,-0.79 -24.87,4.13 -35.02,9.5z"/>
   </g>
  </g>
 </g>
</svg>
