<?xml version="1.0" encoding="UTF-8"?>
<!DOCTYPE svg PUBLIC "-//W3C//DTD SVG 1.1//EN" "http://www.w3.org/Graphics/SVG/1.1/DTD/svg11.dtd">
<!-- Creator: CorelDRAW 2017 -->
<svg xmlns="http://www.w3.org/2000/svg" xml:space="preserve" width="50.7998mm" height="33.8666mm" version="1.1" style="shape-rendering:geometricPrecision; text-rendering:geometricPrecision; image-rendering:optimizeQuality; fill-rule:evenodd; clip-rule:evenodd"
viewBox="0 0 5079.98 3386.66"
 xmlns:xlink="http://www.w3.org/1999/xlink">
 <defs>
  <style type="text/css">
   <![CDATA[
    .fil6 {fill:#1F1B1B}
    .fil0 {fill:#211D1E}
    .fil4 {fill:#AA1D21}
    .fil1 {fill:#CA141D}
    .fil2 {fill:#D82929}
    .fil5 {fill:white}
    .fil3 {fill:#373435;fill-rule:nonzero}
   ]]>
  </style>
 </defs>
 <g id="Capa_x0020_1">
  <metadata id="CorelCorpID_0Corel-Layer"/>
  <g id="_2237569291648">
   <path class="fil0" d="M2697.86 3147.04c-33.64,0 -83.48,4.13 -83.48,-46.37l0 -417.38 61.83 -3.09c156.44,0 207.15,110.92 207.15,244.24 0,115.55 -66.18,222.6 -185.5,222.6zm-853.3 -479.21c0,13.47 12.45,8.63 24.56,9.46 25.69,1.74 52.73,27.5 52.73,58.56l0 340.09c0,22.5 -7.63,47.15 -17.95,59.34 -10.69,12.63 -36.49,17.95 -59.34,17.95l0 24.73 117.48 -3.09c32.05,0 51.85,3.09 83.47,3.09l0 -24.73c-92.18,0 -83.47,-36.59 -83.47,-154.59 0,-79.35 0,-158.71 0,-238.06 20.11,13.47 212.12,239.01 249.61,275.97l99.29 110.96c8.48,10.63 16.95,16.25 25.09,27.46 12.57,17.32 15.28,12.26 43.39,12.26 -10.82,-46.38 -6.19,-345.27 -6.19,-408.1 0,-115.33 37.1,-102.02 108.21,-102.02 21.65,0 34.01,17.84 34.01,40.2l0 392.64c0,38.48 -29.76,43.28 -68.01,43.28 0,39.75 5.09,21.64 80.37,21.64 34.33,0 131.84,-1.41 158.52,2.24 66.04,9.06 144.2,-12.55 193.97,-48.59 175.77,-127.28 152.28,-439.95 -133.79,-475.33 -47.36,-5.86 -140.11,-0.81 -200.14,-0.81 -35.55,0 -63.96,-3.14 -95.85,-3.14l-120.57 3.14c-30.07,0 -47.69,-3.1 -77.29,-3.1l0 27.83c31.22,0 70.16,-3.59 79.26,47.49 3.34,18.79 1.12,267.49 1.12,298.78l-312.25 -349.37c-26.7,-34.99 -21.66,-21.63 -111.31,-21.63 -26.18,0 -39.34,-3.1 -64.92,-3.1l0 18.55z"/>
   <path class="fil0" d="M3183.25 2902.8l-52.55 0 0 -219.51 46.37 -3.09c63.76,0 104.48,45.95 104.22,108.2 -0.28,68.55 -27.58,114.4 -98.04,114.4zm-219.51 -244.24c0,35.29 22.2,9.43 46.49,21.53 11.92,5.94 21.53,22.04 21.53,40.3l0 395.74c0,32.87 -41.93,37.1 -68.02,37.1 0,39.91 2.74,21.64 98.94,21.64l142.21 3.09 0 -24.73c-51.43,0 -74.19,-4.4 -74.19,-61.83l0 -157.68c67.33,0 38.23,-7.54 81.33,45.41l140.53 162.47c52.21,56.35 18.54,35.98 87.28,36.34l247.36 -3.07c164.32,0 149.77,18.85 157.95,-24.46 2.08,-11.07 4,-21.15 6.66,-33.53 4.19,-19.59 10,-42.42 14.7,-62.59l-24.65 -3.61c-23.57,101.45 -87.7,90.18 -179.4,90.18 -14.77,0 -31.19,-2.52 -41.43,-8.03 -10.18,-5.48 -20.4,-18.25 -20.4,-32.16l0 -179.32c109.79,0 145.31,-16.42 145.31,74.2 11.52,-2.68 24.73,-0.57 24.73,-12.36l0 -170.05 -24.73 0c0,22.07 -5,40.13 -16.03,51.99 -21.63,23.22 -86.23,16.03 -129.28,16.03l0 -194.77c120.64,0 191.69,-18.76 191.69,86.56 10.03,-0.22 21.08,-2.95 27.81,-6.18 -0.3,-13.98 -3.09,-12.28 -3.09,-27.82l0 -89.67c-45.85,0 -80.65,3.1 -126.76,3.1l-132.93 0c-44.09,0 -76.76,-3.1 -120.58,-3.1l0 27.83c36.48,0 74.2,-7.15 74.2,49.46l0 371.01c0,44.78 -14.26,55.65 -58.74,55.65 -10.31,0 -81,-107.81 -87.19,-116.87 -13.03,-19.12 -79.33,-107.99 -82.86,-121.18 26.69,-6.23 51.39,-28.23 68.84,-45.57 50.01,-49.66 55.51,-176.68 -60.79,-209.82 -77.98,-22.22 -221.76,0.79 -293.35,-9.68 -13.24,-1.94 -33.14,-4.95 -33.14,8.45z"/>
   <polygon class="fil1" points="811.94,2550.35 4265.34,2550.35 4265.34,2510.16 811.94,2510.16 "/>
   <path class="fil0" d="M1411.72 2902.8c0,-86.19 17.88,-171.5 91.69,-211.3 68.78,-37.09 159.78,-16.14 209.46,55.45 62.31,89.75 66.11,235.84 18.37,330.06 -45.91,90.65 -196.34,114.32 -272.61,-1.61 -25.8,-39.22 -46.91,-108.09 -46.91,-172.6zm-108.2 3.09c0,115.76 49.29,207.57 152.5,255.6 75.53,35.16 182.15,35.05 257.7,0.03 31.95,-14.82 55.63,-33.77 79.06,-56.97 39.85,-39.45 68.37,-102.7 75.75,-159.23 10.81,-82.73 -11.25,-170.05 -69.47,-225.81l-37.93 -30.08c-14.07,-9.23 -26.47,-16.81 -44.2,-23.81 -101.03,-39.91 -207.11,-37.4 -298.48,24.4 -66.13,44.74 -114.93,135.06 -114.93,215.87z"/>
   <path class="fil0" d="M3897.43 2794.59c0,150.45 151.94,150.48 202.83,217.63 27.45,36.2 25.77,86.71 -8.71,118.72 -34.31,31.83 -129.71,38.8 -165.32,-37.43 -6.76,-14.47 -7.64,-30.41 -13.34,-42.31 -12.01,1 -8.06,2.79 -21.64,3.09 0,34.02 9.27,63.37 9.27,98.94 58.49,30.95 79.12,34 142.22,34 84.65,0 163.86,-65.46 163.86,-157.67 0,-119.29 -100.73,-144.28 -174.14,-187.59 -35.25,-20.79 -51.56,-43.23 -51.56,-84.47 0,-26.69 9.64,-52.78 23.87,-65.8 37.67,-34.49 111.05,-40.02 145.23,35.83 18.5,41.06 -8.14,36.39 31.86,33.05 0,-28.22 -6.19,-64.92 -6.19,-111.3 -72.06,0 -161.33,-36.66 -234.27,34.7 -24.52,23.98 -43.97,63.26 -43.97,110.61z"/>
   <path class="fil0" d="M870.68 2667.83c0,24.64 68.01,-14.76 68.01,49.48l0 389.54c0,41.79 -32.65,46.38 -68.01,46.38l0 24.73 234.97 -3.09c58.31,0 105.73,3.09 163.86,3.09 4.26,-8.88 27.82,-115.69 27.82,-129.85l-24.73 0c-0.57,25.42 -21.3,56.96 -39.66,71.65 -36.57,29.25 -85.55,24.19 -136.57,24.19 -29.58,0 -58.74,-8.22 -58.74,-37.1l0 -395.73c0,-66.87 71.11,-5.1 71.11,-52.56 0,-17.71 -49.16,-6.18 -86.57,-6.18l-151.49 -3.1 0 18.55z"/>
   <path class="fil0" d="M2166.09 2327.75c-25.82,6.02 -17.7,6.18 -46.38,6.18l0 -40.19c28.68,0 20.56,0.17 46.38,6.18 1.6,6.68 6.18,14 0,27.83zm-83.48 -61.83l0 160.76c46.39,0 37.1,11.31 37.1,-64.92 22.71,0 18.2,-1.23 50.36,42.4 20.09,27.26 14.24,22.52 57.85,22.52 -3.23,-12.12 -41.16,-54.08 -52.56,-71.11 45.78,-24.22 35.1,-69.76 8.43,-82.62 -32.35,-15.59 -66.55,-7.03 -101.18,-7.03z"/>
   <path class="fil0" d="M3863.42 2395.77l-27.83 0 0 -102.03c44.61,0 68.02,6.43 68.02,52.56 0,24.07 -16.68,49.47 -40.19,49.47zm-30.91 -129.85l-34.01 0 0 160.76c38.35,0 84.32,4.52 114.11,-18.82 41.83,-32.8 46.11,-130.6 -40.38,-141.52 -35.07,-4.42 -20.98,-0.42 -39.72,-0.42z"/>
   <path class="fil0" d="M2790.61 2395.77l-21.64 0 0 -102.03 12.36 0c34.81,0 53.62,15.03 54.53,46.69 0.82,28.87 -14.46,55.34 -45.25,55.34zm-24.74 -129.85l-34 0 0 160.76c66.6,0 142.21,4.67 142.21,-89.66 0,-49.95 -44.34,-70.06 -87.67,-72.78 -11.66,-0.72 -6.77,1.68 -20.54,1.68z"/>
   <path class="fil0" d="M3337.83 2395.77l-27.82 0 0 -102.03c44.6,0 68.02,6.43 68.02,52.56 0,24.07 -16.69,49.47 -40.2,49.47zm-30.91 -129.85l-34.01 0 0 160.76c41.24,0 80.4,4.71 113.93,-19 41.56,-29.39 46.41,-130.41 -40.2,-141.34 -3.61,-0.45 -17.27,-1.97 -19.18,-2.1 -11.66,-0.74 -6.76,1.68 -20.54,1.68z"/>
   <path class="fil0" d="M1152.02 2426.68l34.01 0 0 -98.93c15.27,17.57 31.28,33.88 47.12,51.81 5.47,6.19 5.4,7.69 10.88,13.86 4.51,5.08 7.71,7.2 12.19,12.54 6.11,7.28 14.87,23.82 25.65,23.82 7.12,0 9.28,-2.16 9.28,-9.28l0 -154.58 -34.01 0 0 95.84 -44 -48.76c-36.84,-37.17 -31.07,-47.08 -61.12,-47.08l0 160.76z"/>
   <path class="fil0" d="M1841.47 2275.19l0 142.22c0,7.13 2.14,9.27 9.27,9.27l105.12 0c13.81,0 13.81,-30.91 0,-30.91l-77.3 0 0 -40.2c71.5,0 61.84,7.69 61.84,-30.91l-61.84 0 0 -27.83 77.3 0c13.81,0 13.81,-30.91 0,-30.91l-105.12 0c-7.13,0 -9.27,2.15 -9.27,9.27z"/>
   <path class="fil0" d="M889.23 2275.19c0,53.23 -9.03,113.59 19.15,138.53 27.97,24.75 126.16,29.59 126.16,-45.78l0 -92.75c0,-12.91 -10.73,-9.27 -37.1,-9.27l0 105.11c0,35.02 -71.11,43.74 -71.11,-6.18l0 -98.93c-26.38,0 -37.1,-3.64 -37.1,9.27z"/>
   <path class="fil0" d="M4064.38 2429.78l114.39 0c13.81,0 13.81,-30.92 0,-30.92l-77.29 0 0 -43.29 61.83 0c0,-34.8 8.99,-27.82 -61.83,-27.82l0 -30.92 86.57 0 0 -27.82 -123.67 0 0 160.77z"/>
   <path class="fil0" d="M3078.14 2324.66c1.76,21.2 19.87,40.63 21.63,61.83l-52.56 0c7.16,-14.91 20.17,-53.95 30.93,-61.83zm-89.65 102.03c66.22,-0.01 28.77,-4.47 50.27,-11.56l76.48 -0.81c1.07,12.9 1.59,12.12 15.06,12.75 8.12,0.38 19.6,-0.39 28.22,-0.39 -3.18,-13.62 -12.98,-27.79 -18.51,-40.22 -6.32,-14.22 -12.65,-26.94 -18.55,-40.2 -6.54,-14.69 -11.81,-26.25 -18.64,-40.11 -3.57,-7.25 -5.9,-14.15 -9.29,-21.63 -3.72,-8.22 -6.89,-11.7 -9.21,-21.7l-15.46 0 -80.37 163.87z"/>
   <path class="fil0" d="M1643.6 2429.78c17.54,0 18.47,-17.73 26.79,-35.05 6.77,-14.11 13.84,-29.65 19.15,-42.68 5.78,-14.21 12.55,-29.6 18.98,-42.85 4.44,-9.16 16.41,-34.07 18.55,-43.28l-40.19 0c-5.71,24.51 -33.53,73.42 -40.19,102.02l-46.38 -102.02 -40.19 0c14.25,26.93 24.92,56.21 39.17,84.49 7.37,14.59 12.76,28.33 19.62,42.22 5.34,10.81 11.38,37.15 24.69,37.15z"/>
   <path class="fil0" d="M2342.32 2306.11c0,60.13 80.38,41.65 80.38,77.29 0,30.65 -65.74,6.72 -68.02,6.18 -4.64,8.78 -9.89,17.21 -12.36,27.83 52.34,27.7 117.48,4.33 117.48,-34.01 0,-60.61 -80.38,-44.27 -80.38,-77.29 0,-26.85 48.74,-7.27 61.83,-6.19 3.16,-13.56 8.04,-12.91 9.27,-27.81 -18.76,-4.38 -17.52,-9.29 -49.46,-9.29 -28.92,0 -58.74,16.33 -58.74,43.29z"/>
   <polygon class="fil0" points="2577.29,2426.68 2614.38,2426.68 2614.38,2265.92 2577.29,2265.92 "/>
   <polygon class="fil0" points="1408.63,2426.68 1445.73,2426.68 1445.73,2265.92 1408.63,2265.92 "/>
  </g>
  <g id="_2237569273216">
   <path class="fil2" d="M2569.64 1920.44c-466.25,-67.98 -540.26,-193.49 -664.68,-222.48 115.55,172.55 617.49,290.9 846.13,309.29 590.52,47.5 1545.76,-437.79 1258.45,-1114.07 -50.19,-118.12 -185.35,-338.04 -309.62,-371.22 70.67,105.55 380.17,374.61 206.46,784.15 -26.02,61.34 -56.21,115.98 -96.83,171.37 -21.51,29.32 -30.16,43.87 -53.69,70.11 -14.29,15.95 -18.08,18.73 -31.2,30.69 -3.15,2.87 -7.92,6.7 -11.14,9.5 -290.37,253.64 -767.53,387.53 -1143.88,332.66zm575.7 -1627.9c288.98,60.11 473.03,192.52 533.94,208.79 -100.07,-149.46 -559.05,-308.4 -803.84,-310.26 -370.92,-2.83 -518.99,16.05 -824.27,145.64 -52.4,22.24 -141.6,81.45 -191.17,118.47 -30.14,22.5 -66.19,48.66 -93.87,72.36 -400.25,342.71 -90.14,673.74 -356.33,695.89l0 -268.21c124.97,-2.78 60.48,13.37 82.53,-41.26l-288.85 0c77.52,105.8 103.16,-71.54 103.16,309.47 -279.36,-6.22 7.55,-309.47 -288.84,-309.47 83.77,125.1 11.2,150.78 70.42,259.68 59.59,109.57 125.81,67.25 218.42,111.69l-1.4 207.61 -98.77 -0.48 -2.99 40.45 288.85 0 -2.64 -39.74 -79.89 -1.53 0 -226.94c457.19,0 -36.82,-389.19 599.43,-782.71 329.82,-204.01 752.46,-269.27 1136.11,-189.45z"/>
   <path class="fil3" d="M2160.65 1476.48l2.31 -8.74c18.65,-1.85 34.53,-4.49 47.75,-7.86 -3.04,8.99 -6.28,20.69 -9.79,35.19l-14.55 54.42 17.79 0.4c8.28,0.4 17.27,-1.65 27,-6.14 9.72,-4.51 18.44,-12.37 26.12,-23.62 7.67,-11.31 11.51,-23.48 11.51,-36.51 0,-12.96 -4.7,-23.15 -14.02,-30.75 -9.4,-7.55 -23.68,-11.32 -42.93,-11.32 -21.97,0 -43.46,5.43 -64.49,16.34 -21.1,10.84 -37.31,24.8 -48.74,41.74 -11.45,16.93 -17.14,33.66 -17.14,50.13 0,8.14 1.45,15.21 4.43,21.17 2.97,6.02 8.27,11.91 15.88,17.73 6.28,4.62 9.45,9.12 9.45,13.49 0,2.84 -1.06,5.23 -3.11,7.14 -2.04,1.92 -4.49,2.91 -7.33,2.91 -7.68,0 -15.02,-5.22 -22.17,-15.67 -7.07,-10.45 -10.65,-23.68 -10.65,-39.63 0,-29.3 11.25,-55.95 33.74,-80.1 29.43,-31.68 68.99,-47.55 118.67,-47.55 18.84,0 34.32,2.45 46.35,7.34 12.11,4.89 21.17,11.58 27.19,20.11 6.03,8.47 9,17.73 9,27.64 0,12.57 -4.24,25.01 -12.7,37.18 -8.47,12.17 -20.9,22.02 -37.38,29.5 -16.39,7.47 -34.72,11.18 -54.82,11.18 -3.11,0 -7.94,-0.13 -14.56,-0.39l-15.67 60.24c-2.52,10.19 -5.36,20.31 -8.47,30.24 10.05,2.37 18.86,3.57 26.33,3.57 9.45,0 19.57,-1.73 30.43,-5.16l-2.32 10.71c-10.06,2.65 -18.59,3.97 -25.6,3.97 -6.68,0 -16.54,-0.66 -29.44,-2.04 -10.31,-1.27 -18.71,-1.93 -25.19,-1.93 -12.5,0 -25.33,1.46 -38.5,4.37l2.31 -10.32c13.43,-2.18 22.55,-5.35 27.46,-9.46 7.01,-5.82 12.69,-17.46 17.06,-34.92l29.23 -116.01c1.33,-5.3 1.99,-9.06 1.99,-11.18 0,-2.05 -0.87,-3.85 -2.52,-5.43 -1.72,-1.58 -3.7,-2.38 -6.01,-2.38 -0.93,0 -2.25,0.13 -3.9,0.4zm211.32 21.83c11.51,0 20.43,2.24 26.72,6.74 6.29,4.5 9.4,9.65 9.4,15.48 0,3.51 -1.33,6.62 -3.98,9.19 -2.64,2.58 -5.82,3.91 -9.59,3.91 -2.44,0 -4.56,-0.53 -6.41,-1.66 -1.79,-1.12 -4.37,-3.91 -7.74,-8.27 -6.35,-8.47 -12.57,-12.7 -18.78,-12.7 -5.29,0 -9.99,2.05 -14.1,6.09 -4.03,4.03 -6.08,9.13 -6.08,15.14 0,5.3 1.26,10.46 3.84,15.42 2.58,4.95 9.12,12.96 19.58,24.01 14.29,15.21 21.43,29.62 21.43,43.32 0,13.63 -5.82,25.6 -17.47,35.85 -11.64,10.25 -26.59,15.35 -44.91,15.35 -15.41,0 -26.85,-3.11 -34.32,-9.34 -7.48,-6.27 -11.25,-13.95 -11.25,-23.08 0,-4.49 1.39,-8.19 4.24,-11.18 2.84,-2.97 6.27,-4.42 10.44,-4.42 3.58,0 6.69,1.18 9.27,3.57 2.57,2.38 3.83,5.15 3.83,8.39 0,1.33 -0.06,2.98 -0.27,5.04 -0.06,1.65 -0.13,3.11 -0.13,4.23 0,4.3 1.79,7.86 5.43,10.84 3.51,2.99 8.33,4.43 14.42,4.43 6.94,0 13.1,-1.18 18.45,-3.56 5.3,-2.39 9.39,-6.03 12.37,-10.86 2.98,-4.82 4.49,-9.65 4.49,-14.42 0,-4.62 -1.38,-9.25 -4.15,-13.95 -2.86,-4.62 -9.07,-12.3 -18.86,-23.02 -13.49,-14.95 -20.24,-29.37 -20.24,-43.13 0,-12.62 5.09,-23.74 15.34,-33.2 10.25,-9.45 23.23,-14.21 39.03,-14.21zm124.75 -83.34c3.98,0 7.28,1.31 9.86,3.9 2.57,2.64 3.84,6.01 3.84,10.12 0,5.61 -1.99,10.58 -5.89,14.88 -3.91,4.3 -8.27,6.42 -13.17,6.42 -3.83,0 -7.07,-1.33 -9.65,-4.04 -2.58,-2.71 -3.84,-6.21 -3.84,-10.59 0,-5.74 1.85,-10.65 5.55,-14.68 3.77,-4.04 8.21,-6.01 13.3,-6.01zm-76.79 128.57l-8.33 -6.74c12.83,-14.22 24.6,-24.28 35.19,-30.29 10.57,-6.02 19.63,-9 27.04,-9 4.11,0 7.28,0.93 9.46,2.71 2.19,1.79 3.31,4.23 3.31,7.34 0,3.71 -4.17,19.65 -12.5,47.69 -13.56,45.84 -20.37,73.49 -20.37,82.88 0,1.92 0.46,3.44 1.39,4.7 0.92,1.26 1.85,1.92 2.91,1.92 4.09,0 14.68,-8.21 31.75,-24.61l7.53 7.54c-17.66,16.8 -30.62,27.58 -38.75,32.28 -8.14,4.69 -14.75,7.01 -19.92,7.01 -4.55,0 -8.13,-1.45 -10.78,-4.3 -2.64,-2.84 -3.96,-6.81 -3.96,-11.91 0,-16.13 9.72,-55.62 29.16,-118.4 0.93,-2.97 1.4,-5.61 1.4,-7.92 0,-2.59 -1.19,-3.91 -3.51,-3.91 -2.57,0 -5.56,1.05 -8.86,3.11 -3.31,2.11 -10.72,8.72 -22.16,19.9zm195.92 76.2l4.36 11.12c-30.96,24.07 -57.08,36.11 -78.38,36.11 -11.31,0 -19.51,-4.03 -24.67,-12.04 -5.09,-8 -7.67,-18.19 -7.67,-30.49 0,-20.43 5.42,-41.47 16.33,-63.03 10.85,-21.64 24.08,-38.17 39.56,-49.74 12.16,-8.93 25.93,-13.36 41.21,-13.36 9.53,0 16.79,1.78 21.69,5.42 4.97,3.64 7.41,8 7.41,13.16 0,4.03 -1.32,7.28 -3.9,9.79 -2.58,2.51 -6.22,3.77 -10.85,3.77 -4.5,0 -10.32,-2.05 -17.46,-6.16 -7.35,-4.36 -13.49,-6.54 -18.46,-6.54 -6.28,0 -12.63,2.84 -18.91,8.6 -6.22,5.75 -12.24,16.93 -17.93,33.47 -5.68,16.54 -8.54,33.2 -8.54,49.87 0,12.24 2.39,21.76 7.22,28.51 3.5,5.15 8.4,7.74 14.74,7.74 15.16,0 33.28,-8.73 54.25,-26.2zm124.34 -121.43c12.7,0 23.22,5.02 31.62,15.14 8.39,10.06 12.63,24.08 12.63,42.07 0,28.63 -10.12,54.44 -30.3,77.25 -20.16,22.82 -41.46,34.2 -64.02,34.2 -13.82,0 -25,-4.5 -33.47,-13.56 -8.47,-9.06 -12.7,-21.43 -12.7,-37.04 0,-27.12 7.74,-52.19 23.29,-75.2 19.5,-28.58 43.85,-42.86 72.95,-42.86zm-16.54 14.68c-10.97,0 -21.56,7.87 -31.81,23.54 -10.25,15.69 -15.35,37.37 -15.35,64.96 0,16.8 3.18,30.03 9.46,39.75 4.63,7.07 10.85,10.65 18.59,10.65 10.78,0 20.63,-6.74 29.57,-20.18 11.3,-17.39 17,-39.02 17,-64.88 0,-19.38 -2.58,-33.2 -7.81,-41.48 -5.23,-8.26 -11.78,-12.36 -19.65,-12.36zm159.41 101.59l6.61 7.15c-10.12,11.37 -22.02,21.75 -35.72,31.15 -13.76,9.4 -25.13,14.09 -33.99,14.09 -4.04,0 -7.28,-1.52 -9.86,-4.56 -2.58,-3.05 -3.9,-7.22 -3.9,-12.51 0,-10.38 3.97,-31.81 11.97,-64.42l20.9 -85.13c7.61,-30.69 13.97,-51.33 19.12,-61.77 8,-15.88 19.31,-28.25 33.93,-37.05 14.62,-8.79 30.1,-13.16 46.3,-13.16 5.56,0 9.92,1.32 13.03,4.03 3.18,2.71 4.77,5.97 4.77,9.74 0,4.22 -1.52,7.66 -4.57,10.37 -3.11,2.72 -7.54,4.04 -13.43,4.04 -3.77,0 -9.19,-0.67 -16.2,-1.98 -6.15,-1.06 -11.77,-1.59 -17,-1.59 -5.23,0 -9.19,1.12 -11.9,3.3 -3.64,3.05 -7.02,9.53 -9.99,19.45 -3.05,9.92 -7.88,29.44 -14.63,58.67l-19.63 81.16c-9.59,40.75 -14.36,61.97 -14.36,63.77 0,4.15 1.46,6.21 4.43,6.21 2.84,0 6.95,-1.66 12.37,-5.03 10.58,-6.75 21.17,-15.41 31.75,-25.93zm110.92 -116.27c12.7,0 23.22,5.02 31.62,15.14 8.4,10.06 12.63,24.08 12.63,42.07 0,28.63 -10.12,54.44 -30.3,77.25 -20.16,22.82 -41.46,34.2 -64.01,34.2 -13.83,0 -25.01,-4.5 -33.48,-13.56 -8.46,-9.06 -12.7,-21.43 -12.7,-37.04 0,-27.12 7.75,-52.19 23.29,-75.2 19.51,-28.58 43.85,-42.86 72.95,-42.86zm-16.54 14.68c-10.97,0 -21.56,7.87 -31.81,23.54 -10.25,15.69 -15.35,37.37 -15.35,64.96 0,16.8 3.18,30.03 9.47,39.75 4.62,7.07 10.84,10.65 18.59,10.65 10.77,0 20.63,-6.74 29.56,-20.18 11.31,-17.39 17,-39.02 17,-64.88 0,-19.38 -2.58,-33.2 -7.81,-41.48 -5.23,-8.26 -11.77,-12.36 -19.65,-12.36zm209.35 -15.88l15.28 -3.63c-9.4,30.22 -17.93,60.52 -25.73,90.94 -5.69,21.69 -9.59,39.82 -11.77,54.31 -1.12,7.21 -1.79,16.4 -1.92,27.51 -0.26,18.66 -2.31,33.6 -6.15,44.98 -5.43,15.94 -15.55,28.71 -30.3,38.43 -14.81,9.72 -32.28,14.55 -52.59,14.55 -17.39,0 -31.08,-4.1 -41.07,-12.31 -9.98,-8.19 -15.02,-17.59 -15.02,-28.17 0,-10.52 4.04,-20.24 12.05,-29.3 5.95,-6.88 18.38,-15.15 37.3,-24.81 9.53,-5.02 18.52,-10.18 26.92,-15.54 -9.53,4.89 -17,7.34 -22.29,7.34 -4.83,0 -9.06,-2.24 -12.69,-6.68 -3.71,-4.43 -5.57,-10.38 -5.57,-17.73 0,-23.74 7.08,-47.28 21.17,-70.76 14.15,-23.42 31.15,-41.02 51.06,-52.72 12.24,-7.21 27.59,-10.85 46.05,-10.85 3.62,0 8.06,0.07 13.36,0.26l1.91 -5.82zm-21.63 28.31c-6.15,-1.13 -11.64,-1.72 -16.4,-1.72 -12.24,0 -22.76,3.24 -31.55,9.72 -8.73,6.49 -16.2,17.4 -22.43,32.69 -8.66,21.68 -12.96,39.87 -12.96,54.69 0,6.08 1.72,11.18 5.09,15.35 3.45,4.16 7.28,6.21 11.58,6.21 5.09,0 11.5,-2.51 19.12,-7.47 7.6,-5.03 13.82,-11.25 18.65,-18.79 4.83,-7.54 9.79,-20.5 14.81,-38.89l14.09 -51.79zm-26.25 106.03c-8.81,7.88 -25.74,20.5 -50.81,37.77 -22.15,14.95 -35.71,25.73 -40.81,32.34 -5.02,6.69 -7.54,13.83 -7.54,21.3 0,7.35 3.24,13.96 9.79,19.84 6.56,5.89 14.48,8.81 23.82,8.81 8.79,0 17.32,-2.19 25.59,-6.49 8.27,-4.37 15.48,-10.58 21.63,-18.79 6.15,-8.2 10.39,-17.45 12.7,-27.78 2.31,-10.38 3.57,-24.01 3.7,-41.08 0.13,-3.77 0.79,-12.36 1.93,-25.92zm82.14 -87.91l-8.33 -6.74c12.83,-14.22 24.61,-24.28 35.19,-30.29 10.58,-6.02 19.64,-9 27.05,-9 4.1,0 7.28,0.93 9.46,2.71 2.18,1.79 3.3,4.23 3.3,7.34 0,3.71 -4.17,19.65 -12.49,47.69 -13.57,45.84 -20.37,73.49 -20.37,82.88 0,1.92 0.45,3.44 1.38,4.7 0.86,1.26 1.86,1.92 2.85,1.92 1.25,0 3.31,-0.93 6.15,-2.78 7.14,-4.9 13.42,-10.18 18.91,-15.88 2.58,-2.51 4.7,-4.5 6.35,-5.95l7.94 7.54c-15.74,14.49 -25.27,22.95 -28.57,25.4 -7.35,5.49 -14.16,9.46 -20.51,11.91 -3.24,1.32 -6.35,1.98 -9.45,1.98 -4.64,0 -8.28,-1.39 -10.92,-4.24 -2.65,-2.77 -3.97,-6.74 -3.97,-11.97 0,-9.32 2.58,-23.81 7.8,-43.38 8.93,-34.79 16.01,-59.8 21.17,-75.02 1.06,-3.1 1.59,-5.74 1.59,-7.92 0,-2.59 -1.19,-3.91 -3.51,-3.91 -2.57,0 -5.55,1.05 -8.86,3.11 -3.3,2.11 -10.71,8.72 -22.16,19.9zm79.11 -125.01l36.77 0 -65.54 56.36 -11.45 0 40.22 -56.36zm142.21 76.54l12.96 -2.65 -14.48 49.01c-5.76,19.51 -11.24,42 -16.41,67.47 -2.84,13.82 -4.23,22.75 -4.23,26.72 0,3.96 1.59,5.95 4.83,5.95 1.98,0 5.29,-1.33 9.72,-3.97 7.94,-4.69 15.54,-10.51 22.82,-17.46l6.22 7.54c-14.69,13.3 -24.07,21.37 -28.24,24.14 -8.28,5.63 -16.07,9.79 -23.55,12.43 -4.97,1.8 -9.72,2.72 -14.35,2.72 -3.31,0 -5.83,-0.79 -7.54,-2.32 -1.66,-1.52 -2.52,-3.83 -2.52,-6.75 0,-1.91 0.53,-4.55 1.59,-7.92l7.74 -26.07c-11.11,13.3 -24.41,24.67 -39.76,34.2 -9.39,5.89 -18.06,8.86 -25.92,8.86 -7.55,0 -13.23,-2.65 -17.27,-7.93 -5.42,-7.15 -8.13,-16.47 -8.13,-27.99 0,-13.68 3.64,-28.97 10.91,-45.77 7.34,-16.8 17.06,-32.08 29.36,-45.77 12.24,-13.69 25.14,-23.81 38.7,-30.29 10.45,-4.9 23.89,-7.35 40.28,-7.35 4.17,0 8.34,0.27 12.57,0.8l4.7 -7.6zm-24.01 29.96c-6.94,-1.39 -12.83,-2.12 -17.59,-2.12 -11.58,0 -21.7,3.18 -30.36,9.59 -8.67,6.42 -16.67,17.92 -24.08,34.52 -7.41,16.6 -11.11,33.21 -11.11,49.74 0,8.81 1.45,15.09 4.42,18.99 2.99,3.9 6.88,5.82 11.65,5.82 8.87,0 18.38,-4.83 28.58,-14.42 10.18,-9.65 17.66,-23.54 22.42,-41.6l16.07 -60.52z"/>
   <g>
    <path class="fil0" d="M1892.14 1270.98l0 0zm436.86 -104.94c10.04,11.56 10.79,31.79 -2.45,41.49 1.14,-13.69 2.45,-24.09 2.45,-41.49zm-2.45 -7.32c2.5,2.69 2.45,-4.27 2.45,7.32 -2.5,-2.7 -2.45,4.26 -2.45,-7.32zm-2.44 -4.89l2.44 4.89 -2.44 -4.89zm-90.3 2.44l-2.44 2.45 2.44 -2.45zm2.44 -2.44l-2.44 2.44 2.44 -2.44zm0 0c4.28,-6.39 1.24,-5.04 9.77,-7.32 -4.29,6.4 -1.24,5.05 -9.77,7.32zm9.77 -7.32c4.73,-7.08 5.04,-7.53 14.64,-9.76 -3.61,4.92 -7.81,7.94 -14.64,9.76zm19.52 -12.2l-4.88 2.44 4.88 -2.44zm-200.12 7.32l0 -7.32 7.32 -4.88c-1.86,6.95 -3.21,7.46 -7.32,12.2zm0 -7.32l-2.81 -4.76 2.81 4.76zm200.12 0c2.25,-1.95 -0.21,-1.02 5.81,-3.96 19.53,-9.54 50.83,0.29 52.76,23.48l-4.44 -5.31c-26.21,-30.16 -33.94,-15.89 -54.13,-14.21zm-192.8 -4.88l0 0zm-9.76 -9.76l-2.44 0c0,-24.37 2.44,-31.4 2.44,-41.49 7.1,7.49 7.62,4.09 4.28,16.07 -2.52,9.03 -4.28,15.03 -4.28,25.42zm2.44 -48.81c0,-6.24 3.86,-0.39 1.45,0 -0.03,0 -1.45,6.81 -1.45,0zm141.54 -107.39c0,11.6 0.06,4.63 -2.43,7.32 0,-11.59 -0.06,-4.62 2.43,-7.32zm0 0l0 -12.19 2.45 0c0,1.8 0.17,5.43 -0.22,7.1 -1.09,4.72 -0.62,2.56 -2.23,5.09zm-75.65 -87.86l0.73 0.74c-0.05,-0.05 -0.97,-0.49 -0.73,-0.74zm9.76 -2.43l-4.76 2.8 4.76 -2.8zm63.46 97.61c1.58,5.97 -1.09,3.31 4.88,4.88 10.48,-9.1 19.2,-20.54 18.65,-38.76 -0.46,-15.33 -6.93,-33.1 -21.1,-36.89 4.33,-2.74 7.09,-0.7 9.77,-7.32 -4.77,-3.49 -2.8,-2.6 -6.3,-5.9 -1.22,-1.15 -5.79,-5.25 -6.45,-5.76 -20.75,-15.67 -48.95,-7.86 -62.91,-7.86 0.3,-0.23 4.58,-4.66 4.88,-4.88 -17.64,0 -26.71,1.47 -37.06,9.3 -13.65,10.34 -17.52,21.28 -21.29,25.07 -2.49,2.5 -10.74,5.59 -23.21,15.84l-38.02 18.12c0,18.42 6.16,29.29 17.08,36.6 0.22,-9.68 -0.03,-7.54 4.88,-12.19 11.77,2.73 12.21,5.37 12.21,19.52 -5.74,2.75 -8.91,2.12 -14.65,4.88 1.82,3.44 4.16,7.2 5.2,11.63 2.07,8.79 -6.48,30.97 16.77,37.18 0,-5.17 -1.03,-11.62 1.19,-16.03 2.47,-4.88 1.54,-2.79 6.13,3.82 0.46,-20.83 17.69,-26.79 38.36,-34.85 41,-15.99 26.64,-26.32 39.74,-35.91 -1.1,49 -65.41,28.81 -85.42,114.69 -12.23,-1.01 -41.8,-16.84 -52.9,-22.75 -11.19,-5.97 -25,-15.61 -33.52,-25.06 -10.05,-11.16 -13.11,-23.8 -21.08,-37.49 -16.87,-29.02 -13.57,-48.72 -33.25,-43.23 -10.51,2.93 -5.95,6.92 -6.18,8.45 -0.67,4.48 3.72,-2.16 -1.64,3.49 -1.8,1.9 -0.03,-2.71 -5.18,4.33 1.92,7.22 0.99,3.96 4.87,9.76 -8.52,2.28 -9.65,4.59 -8.18,12.83 1.42,7.97 2.56,-4.62 1.08,7.15 -0.91,7.24 -0.73,1.03 -2.65,9.31l2.55 0.24c0.01,0 2.9,0.16 4.42,0.65 5.2,1.69 2.36,-0.86 6.76,4.73 3.2,4.08 7.24,13.91 7.93,19.09 4.12,31.37 -2.09,19.19 19.82,33.86 -0.87,10.5 0.35,4.4 -4.87,12.2 12.89,0 14.6,-4.45 25.16,-0.95 5.11,1.7 13.87,8.13 18.33,11.14 10.39,7.03 26.03,18.72 27.28,33.74 -5.61,3.76 -4.91,4.67 -14.65,4.88l9.67 7.63c-3.33,6.16 -4.57,6.79 -4.79,16.78 29.51,-33.95 20.41,25.08 58.58,4.88 -4.97,18.59 -47.62,70.82 -72.39,86.25 -11.45,7.13 -55.57,26.39 -71.67,25.88 -1.4,-0.04 -26.98,-10.13 -30.85,8.44 -2.25,10.77 0.58,7.17 1.63,8.78 -2.6,11.17 -2.6,5.9 0,17.08 12.68,-2.95 8.8,-3.71 14.64,7.32 5.4,-3.74 3.04,-0.4 4.88,-7.32 10.14,7.42 -0.49,6.37 12.21,9.77 7.77,-5.71 1.98,-4.07 9.76,-9.77 25.22,13.35 38.96,0.99 53.03,-12.86 18.77,-18.46 73.03,-40.61 47.03,-1.78 16.62,-1.39 25.46,-15.12 26.85,-31.73l14.64 -4.88c-7.99,-2.89 -1.77,3.17 -7.32,-7.32 8.19,-15.49 7.19,-13.94 22.95,-23.42 8.83,-5.3 21.27,-12.92 33.18,-13.19 -6.18,26.51 -5.04,5.2 0,26.85l4.88 0c0,-13.73 3.12,-14.76 9.31,-22.42 7.72,-9.58 1.87,-0.57 4.79,-9.85 3.75,-11.93 -6.14,-7.69 7.87,-9.22 -2.03,-7.58 -6.67,-10.9 -7.05,-19.66 -0.35,-7.89 3.85,-15.16 4.61,-24.27 7.02,10.11 4.17,32.32 30.72,40.16 24.15,7.14 36.01,-11.42 52.25,-15.75 -1.99,3.54 -1.18,2.58 -2.44,7.32 11.3,2.63 28.46,15.87 34.17,24.4 -6.73,12.71 -17.41,23.22 -28.66,32.35 -5.99,4.87 -13.36,9.59 -20.76,11.08 -11.94,2.42 -18.39,-1.71 -28.68,-1.94 5.35,7.99 7.91,8.79 14.65,14.64 -8.76,0.73 -14.41,3.77 -22.26,4.59 -10.46,1.11 -19.34,-1.2 -26.72,2.57 -17.73,9.09 -10.96,45.51 -4.72,22.13l4.89 0c2.27,8.53 0.92,5.48 7.32,9.76 0.55,-6.59 1.14,-6.64 2.43,-12.2 2,2.86 2.12,6.72 7.08,8.14 0.21,0.06 0.92,0.04 1.13,0.07 0.2,0.03 0.9,-0.07 1.1,-0.07l5.25 -0.52c32.33,-6.23 33.01,10.33 57.41,-16.2 7.4,-8.04 22.96,-19.37 33.19,-22.94 20.69,-7.2 26.89,-0.74 41.27,-17.29 -0.75,9.09 -3.82,12.91 -7.32,19.52 20.53,-5.48 18.72,-31.14 26.91,-32.09 31.97,-3.68 22.66,9.83 48.51,9.3 7.15,-0.14 13.18,-0.83 17.32,-6.49 -13.36,0 -11.24,1.39 -17.07,-7.32 10.78,-14.73 44,-13.35 64.4,-8.29 9.86,2.45 13.59,6.3 21.01,8.29 0,18.11 -1.07,17.46 -7.32,29.28l7.32 0c-19.25,36.38 -32.3,9.91 -52.94,22.72 -8.05,5 -6.9,8.79 -10.52,16.33 6.6,-0.55 6.64,-1.14 12.21,-2.44l-1.22 12.2c14.11,-3.44 3.72,-6.11 18.3,-7.32 0.82,9.76 1.45,10.34 7.32,14.64 2.14,-8.02 3.55,-8.03 9.76,-12.2 9.18,6.72 2.21,8.88 14.65,12.2 8.86,-33.19 70.31,15.52 41.09,-55.73 -6.18,-15.08 -6.92,-22.58 -6.92,-44.33 7.45,3.95 3.42,0.88 8.27,6.37l6.37 8.28c0,-26.35 -2.51,-19.68 -12.2,-34.17 7.2,0.59 9.83,1.29 14,5.52l7.96 11.56c0,-80.21 -78.86,-15.99 -111.52,-37.35 -26.53,-17.36 10.75,-58.53 -11.43,-98.4 -5.62,-10.11 -11.52,-15.21 -23.48,-18l0 -4.88c9.06,-2.42 14.77,-10.2 19.61,-16.99 11.63,-16.33 -0.53,-7.6 14.86,-21.75 6.51,-5.99 11.15,-13.76 7.99,-25.55 -4.66,-17.38 -5.45,-12.03 3.91,-26.01 -12.45,2.9 -14.64,6.73 -14.64,21.96 -44.52,-51.21 -95.19,8.35 -95.19,-41.49 -10.88,7.98 -5.95,11.48 -4.88,24.41 -22.77,-0.5 -36.21,-17.33 -26.02,-40.66 7.67,-17.57 26.62,-22.21 43.11,-30.12 16.26,10.89 20.94,17.1 52.31,8.29 10.29,-2.88 10.19,-3.91 11.32,-8.11 0.58,-2.17 -2.93,1.19 1.54,-3.57 5.04,-5.36 3.67,-1.38 9.05,-7.76 4.22,-5 4.79,-6.7 6.32,-13.25 -13.77,9.22 -14.82,9.39 -34.17,4.88 3.13,-8.65 5.18,-4.18 7.32,-12.2 -36.3,8.46 -19.31,-7.15 -55.71,17.51 -12.81,8.68 -20.69,3.96 -45.01,28.2 -10.26,10.22 -8.47,8.78 -14.69,21.92l-2.41 4.91c-0.22,0.41 -0.7,1.23 -0.88,1.56 -0.18,0.33 -0.54,1.07 -0.89,1.56 0,-19.29 2.44,-31.3 -17.08,-31.73 7.65,14.45 9.27,9.4 3.96,28.41 -3.11,11.12 -2.78,23.62 9.39,29.02 11.61,5.16 2.99,-3.21 12.16,7.36 13.71,15.79 23.1,15.74 47.71,15.74 -6.83,10.2 -7.33,9.6 -7.33,26.85 6.9,-5.06 3.29,-3.66 8.89,-10.64 3.44,-4.3 0.91,-1.35 3.46,-3.86 30.6,-30.03 94.44,-19.95 58.87,27.14 -23.36,30.92 -86.31,45.23 -126.81,35.64 -45.54,-10.79 -35.76,-45.16 -66.43,-45.84 7.14,-10.66 9.39,-5.27 18.49,-18.11 1.42,-2.02 1.42,-2.31 2.87,-4.46 2.9,-4.28 0.27,-1.07 3.05,-4.28z"/>
    <path class="fil0" d="M3646.86 1270.98l0 0zm-436.84 -104.94c0,17.4 1.3,27.8 2.43,41.49 -13.24,-9.7 -12.48,-29.93 -2.43,-41.49zm2.43 -7.32c0,11.58 0.06,4.62 -2.43,7.32 0,-11.59 -0.06,-4.63 2.43,-7.32zm95.18 0l-2.44 -2.45 2.44 2.45zm-92.73 -4.89l-2.45 4.89 2.45 -4.89zm90.29 2.44l-2.44 -2.44 2.44 2.44zm-2.44 -2.44c-8.52,-2.27 -5.48,-0.92 -9.75,-7.32 8.52,2.28 5.47,0.93 9.75,7.32zm-9.75 -7.32c-6.84,-1.82 -11.04,-4.84 -14.65,-9.76 9.6,2.23 9.9,2.68 14.65,9.76zm-14.65 -9.76l-4.88 -2.44 4.88 2.44zm195.24 -2.44l1.34 -5.25 -1.34 5.25zm-7.32 -4.88l7.32 4.88 0 7.32c-4.12,-4.74 -5.46,-5.25 -7.32,-12.2zm0 0l0 0zm-251.37 24.4c2.12,-25.44 40.24,-35.45 58.57,-19.52 -20.5,-1.71 -27.95,-16.45 -55.25,15.53 -0.3,0.37 -0.83,0.99 -1.11,1.33 -0.28,0.33 -0.89,1.06 -1.11,1.33 -0.23,0.26 -0.72,0.9 -1.1,1.33zm261.13 -75.65c0,10.09 2.44,17.12 2.44,41.49l-2.44 0c0,-35.03 -14.75,-25.95 0,-41.49zm-4.88 -7.32c0,-6.24 3.86,-0.39 1.45,0 -0.03,0 -1.45,6.81 -1.45,0zm-139.11 -107.39c2.5,2.7 2.45,-4.27 2.45,7.32 -2.5,-2.69 -2.45,4.28 -2.45,-7.32zm0 0c-1.66,-2.62 -1.39,-0.04 -2.23,-5.09 -0.36,-2.21 -0.21,-4.85 -0.21,-7.1l2.44 0 0 12.19zm73.22 -87.86l0.72 0.74c-0.04,-0.05 -0.97,-0.49 -0.72,-0.74zm-7.33 -2.43l5.25 1.33 -5.25 -1.33zm-43.93 358.75c-25.04,0.56 -27.55,8.18 -48.11,-8.01 -11.53,-9.09 -23.21,-20.69 -29.98,-33.48 5.71,-8.53 22.87,-21.77 34.16,-24.4 -1.71,-6.46 0.2,-2.01 -2.44,-7.32 8.24,2.19 48.54,36.1 72.34,1.55 5.67,-8.25 4.68,-13.9 8.87,-22.85l1.77 -3.11c1.52,18.19 11.59,22.91 -2.44,39.05 5.03,12.45 -5.68,-9.06 3.29,4.02 2.89,4.21 1.37,0.67 3.43,6.34 3.67,10.09 -2.69,2.07 4.8,12.29 6.76,9.24 10.45,7.89 10.45,23.72l4.88 0c4.61,-19.8 5.83,-1.8 0,-26.85 11.91,0.27 24.35,7.89 33.17,13.19 15.77,9.48 14.76,7.93 22.96,23.42 -5.55,10.49 0.66,4.43 -7.32,7.32l14.64 4.88c1.38,16.61 10.23,30.34 26.85,31.73 -25.37,-37.88 26.18,-17.98 45.8,0.57 7.96,7.52 10.3,13.26 22.02,17.03 13.25,4.26 21.72,2.61 32.23,-2.96 7.78,5.7 1.99,4.06 9.77,9.77 12.7,-3.4 2.07,-2.35 12.2,-9.77 1.71,7.14 -0.31,3.51 4.88,7.32 5.85,-11.03 1.97,-10.27 14.64,-7.32 2.61,-11.18 2.61,-5.91 0,-17.08 0.01,-0.01 7.87,-2.14 -0.74,-13.66 -10.95,-14.65 -19.57,0.36 -42.74,-6.27 -56.32,-16.12 -64.76,-24.75 -97.44,-61.24 -7.47,-8.34 -29.66,-38.1 -32.35,-48.18 38.16,20.2 29.07,-38.83 58.57,-4.88 -0.22,-9.99 -1.46,-10.62 -4.88,-17.08l9.76 -7.33c-9.73,-0.21 -9.03,-1.12 -14.64,-4.88 1.53,-18.4 32.9,-39.6 43.87,-44.16 9.6,-3.99 14.87,0.23 26.91,0.23 -5.23,-7.8 -4.01,-1.7 -4.88,-12.2 17.58,-11.77 17.16,-4.33 19.63,-31.61 1.12,-12.37 5.97,-24.53 17.9,-26.57 14.61,-2.5 -6.22,4.4 3.95,-0.39 -1.92,-8.27 -1.77,-2.1 -2.66,-9.31 -1.31,-10.77 7.9,-15.97 -7.1,-19.98 3.89,-5.8 2.95,-2.54 4.88,-9.76 -5.51,-7.52 -4.59,1.27 -6.82,-6.86 -0.08,-0.27 6.16,-4.09 -4.35,-8.77 -12.54,-5.57 -20.22,5.57 -22.43,13.76 -4.42,16.43 -25.06,57.78 -36.13,68.81 -17.41,17.35 -66.61,43.87 -84.02,45.32 -20.01,-85.88 -84.33,-65.69 -85.42,-114.69 8.71,6.37 1.79,0.42 6.7,10.38 17.16,34.78 70.57,23.11 71.4,60.38 5.45,-7.83 2.62,-10.76 6.12,-3.82 2.22,4.41 1.2,10.86 1.2,16.03 9.1,-2.43 15.88,-9.73 16.92,-19.84 0.99,-9.63 -1.45,-9.37 -0.5,-15.7 0.79,-5.18 3.62,-9.63 5.54,-13.27 -5.73,-2.76 -8.9,-2.13 -14.64,-4.88 0,-14.15 0.44,-16.79 12.2,-19.52 4.91,4.65 4.67,2.51 4.89,12.19 10.93,-7.31 17.08,-18.18 17.08,-36.6l-38.01 -18.12c-14.6,-11.97 -17.33,-10.8 -21.95,-14.67 -10.82,-9.07 -12.73,-35.54 -59.63,-35.54 0.07,0.04 4.79,4.79 4.88,4.88 -18.24,0 -23.72,-5.34 -44.06,-0.14 -15.52,3.97 -17.23,6.21 -27.78,16.15 -4.34,4.1 0.19,0.57 -3.81,3.51 2.85,7.08 -0.13,1.04 9.76,7.32 -18.38,4.91 -35.82,46.65 -2.44,75.65 6.34,-1.68 2.72,0.91 4.89,-4.88l4.95 7.26c10.34,15.21 12,8.47 19.45,19.59 -29.68,0.66 -22.12,34.46 -64.45,45.38 -83.63,21.57 -163.35,-46.04 -132.69,-74.11 11.87,-10.86 45.47,-3.95 61.49,10.62 10.18,9.26 4.63,9.08 13.62,15.67 0,-17.25 -0.49,-16.65 -7.32,-26.85 41.37,0 37.19,-7.07 49.94,-18.39 8.29,-7.37 26.39,-4.27 19.9,-31.75 -5.39,-22.85 -6.65,-11.44 3.37,-30.39 -19.5,0.43 -17.08,12.44 -17.08,31.73l-1.76 -3.12c-0.42,-0.81 -2.36,-4.78 -2.42,-4.91 -18.45,-39.08 -43.7,-39.28 -59.7,-50.12 -36.4,-24.66 -19.41,-9.05 -55.71,-17.51 1.41,5.26 1.09,2.52 3.45,6.32 5.12,8.2 -0.13,-5.19 3.88,5.88 -19.35,4.51 -20.4,4.34 -34.17,-4.88 1.47,6.27 1.76,7.17 5.23,11.88 6.19,8.38 2.36,2.15 9.04,8.2 3.76,3.4 2.27,4.21 2.66,5.43 1.43,4.51 3.51,4.77 9.33,6.62 31.38,10.02 38.28,2.99 54.28,-7.73 16.48,7.91 35.43,12.55 43.11,30.12 10.19,23.33 -3.25,40.16 -26.03,40.66 1.07,-12.93 6.01,-16.43 -4.88,-24.41 0,49.84 -50.66,-9.72 -95.18,41.49 0,-15.23 -2.2,-19.06 -14.64,-21.96 9.36,13.98 8.56,8.63 3.91,26.01 -5.22,19.49 9.21,21.91 15.98,34.63 5.84,10.98 12.54,25.94 26.48,29.66l0 4.88c-22.36,5.21 -31.44,29.3 -31.87,48.86 -0.34,15.66 16.69,51.41 -1.64,66.5 -29.96,24.67 -112.92,-43.32 -112.92,38.39 4.02,-4.62 0.51,-0.63 3.94,-5.82 4.49,-6.79 5.6,-10.23 18.02,-11.26 -9.7,14.49 -12.2,7.82 -12.2,34.17 2.36,-2.72 0.54,-0.61 3.23,-4.1 2.08,-2.71 1.07,-1.84 3.14,-4.18 4.85,-5.49 0.82,-2.42 8.27,-6.37 0,48.92 -24.28,70.9 -12.2,82.98 15.87,7.62 41.12,-2.56 46.37,17.08 12.44,-3.32 5.46,-5.48 14.64,-12.2 6.23,4.17 7.62,4.18 9.76,12.2 5.87,-4.3 6.51,-4.88 7.33,-14.64 14.58,1.21 4.18,3.88 17.07,7.32l1.23 -12.2c4.34,1.3 4.39,1.89 10.98,2.44 -6.74,-14.05 -4.25,-19.59 -31.74,-19.51 -24.17,0.07 -23.49,-3.99 -31.71,-19.54l7.32 0c-6.26,-11.82 -7.32,-11.17 -7.32,-29.28 14.72,-3.94 5.89,-7.01 42.21,-11.66 15.81,-2.02 36.93,3.09 43.21,11.66 -5.84,8.71 -3.73,7.32 -17.09,7.32 7.08,9.66 24.38,7.1 34.87,3.17 16.15,-6.07 7.49,-8.66 29.53,-6.15 11.45,1.31 6.66,26.47 28.34,32.26 -3.49,-6.61 -6.57,-10.43 -7.32,-19.52 19.56,22.5 41.74,4.67 74.47,40.23 24.99,27.17 31.65,10.52 56.22,15.93 0.26,0.06 0.94,0.23 1.19,0.27 0.22,0.05 0.89,0.12 1.1,0.16 10.19,1.57 -1.3,4.45 7.5,0.05l5.95 -7.83c1.29,5.56 1.9,5.61 2.44,12.2 6.4,-4.28 5.05,-1.23 7.32,-9.76l4.88 0c6.24,23.38 13.02,-13.04 -4.72,-22.13 -6.65,-3.4 -14.67,-1.72 -24.45,-2.38 -9.88,-0.67 -14.74,-3.97 -24.52,-4.78 6.26,-5.44 9.24,-6.58 14.64,-14.64z"/>
    <path class="fil1" d="M2448.58 937.08c41.04,-16.32 74.69,-32.63 121.18,-45.3 46.12,-12.56 93.31,-20.39 143.91,-24.7 6.12,-22.19 1.53,-186.78 1.53,-223.31 -94.65,0 -221.43,45.86 -300.79,87.86 0,66.68 8.64,120.99 25.99,181.44l8.18 24.01z"/>
    <path class="fil4" d="M3080.67 933.49c4.44,-5.72 11.81,-36.81 13.66,-44.21 12.49,-49.93 20.51,-104.09 20.51,-157.65 -40.05,-21.19 -79.11,-39.09 -125.96,-54.64 -22.46,-7.46 -126.74,-36.52 -152.26,-28.91l-23.73 -2.26 -0.05 220.32c27.49,7.11 75.43,6.22 144.66,25.31 28.9,7.97 66.75,20.75 94.04,32.82 9.26,4.1 21.94,12.21 29.13,9.22z"/>
    <path class="fil4" d="M2819.53 1283.97c25.44,-3.23 126.45,-109.95 135.94,-121.1 15.63,-18.38 99.19,-135.54 97.47,-160.35 -1.94,-6.47 -0.76,-4.52 -10.13,-8.47 -4.51,-1.89 -9.08,-3.49 -14.13,-5.44l-84.99 -27.19c-32.95,-8.39 -96.44,-21.86 -130.85,-20.2l0.15 346.03 6.54 -3.28z"/>
    <path class="fil1" d="M2472.98 999.47c1.56,7.47 5.73,15.47 9.05,23.29 4.15,9.78 7.43,13.32 12.11,22.05 50.54,94.13 116.1,167.89 200.58,231.4 7.5,5.64 12.41,9.67 20.53,14.29l-0.05 -349.9c-65.42,3.39 -127.47,17.87 -188.01,38.05 -19.14,6.38 -37.33,15.71 -54.21,20.82z"/>
    <path class="fil5" d="M2715.2 643.77c0,36.53 4.59,201.12 -1.53,223.31 -50.6,4.31 -97.79,12.14 -143.91,24.7 -46.49,12.67 -80.14,28.98 -121.18,45.3 0.82,9.12 7.21,23.29 10.79,32.68l13.61 29.71c16.88,-5.11 35.07,-14.44 54.21,-20.82 60.54,-20.18 122.59,-34.66 188.01,-38.05l0.05 349.9c7.25,5.9 39.3,26.93 48.18,29.29l-0.02 -678.46c-7.79,0 -16.8,-0.43 -24.43,-0.01 -11.03,0.59 -11.16,2.45 -23.78,2.45z"/>
    <path class="fil0" d="M2458.34 612.04c0.49,-0.34 1.32,-1.35 1.55,-0.88l45.51 -20.4c17.79,-7.14 33.61,-13.25 53,-17.76 -4.99,9.41 -11.03,15.36 -17.08,24.4 4.26,6.37 13.87,20.26 19.52,24.4 5.83,-8.7 12.75,-16.61 19.52,-24.4 -6.55,-9.79 -12.96,-17.05 -19.52,-26.85 33.57,-2.79 87.64,-29.29 200.12,-29.29 -3.11,11.68 -13.9,14.95 -17.08,26.86 4.75,7.1 12,14.36 17.08,21.96 7.32,-4.91 17.19,-17.28 21.96,-24.41 -7.98,-11.93 -14.72,-15.57 -17.08,-24.41 27.46,0 174.91,12.52 202.56,31.74 16.28,0.36 57.94,18.64 72.91,24.72l66.21 31.4 0 -34.16c-165.72,-87.69 -345.38,-113.75 -531.55,-62.97 -40.89,11.15 -79.39,26.49 -117.6,43.48 -13.19,5.86 -24.45,13.04 -36.64,19.49l0 34.16c12.53,-2.92 21.67,-13.6 36.61,-17.08z"/>
    <path class="fil0" d="M3063.59 658.41l0 0zm-602.81 2.44l-39.05 21.97 0 21.96 73.54 -33.84c74.51,-30.7 161.46,-51.4 243.81,-51.49 12.26,-0.01 15.98,-2.16 24.46,-2.41 9.44,-0.27 11.92,2.26 24.17,2.42 8.73,0.11 18.33,-0.57 26.95,-0.11 80.9,4.34 183.25,31.65 254.62,67.53 10.34,5.2 28.14,15.55 38.24,17.9l0 -21.96c-8.5,-5.69 -28.23,-17 -39.05,-19.53 1.15,-13.87 13.69,-16.6 17.08,-29.28 -5.37,-8.02 -11.54,-16.63 -19.52,-21.97 -5.33,7.96 -14.2,16.45 -19.53,24.41 4.76,7.1 12,14.37 17.09,21.96 -10.31,-0.86 -13.84,-4.89 -22.99,-8.75 -16.26,-6.85 -60.81,-24.27 -74.64,-25.42 2.31,-8.64 13.95,-20.42 19.53,-26.84 -6.05,-9.04 -12.1,-14.99 -17.09,-24.4 -7.1,1.89 -7.62,5.14 -11.72,10.24 -4.35,5.42 -6.57,8.67 -10.24,14.16 6.3,11.91 10.78,12.49 17.08,24.4 -8.69,-0.72 -14.03,-3.51 -23.4,-5.88 -8.5,-2.16 -16.71,-4.28 -23.56,-5.73 -15.26,-3.24 -34.1,-7.91 -50.66,-7.91 3.2,-11.96 9.35,-12.23 17.09,-26.85 -3.74,-7.05 -13.36,-20.27 -19.53,-24.4 -6.56,9.79 -12.96,17.05 -19.52,26.85 5.55,4.06 15.37,15.54 17.08,21.96 -17.78,0 -35.77,-4.76 -53.59,-4.98 -19.44,-0.24 -39.18,0.1 -58.67,0.1 -65.9,-0.01 -141.73,13.34 -201.05,33.24l-86.93 32.65z"/>
    <path class="fil0" d="M2968.4 516.87l139.12 58.56 0 -58.56c-11.28,-2.64 -82.05,-42.84 -139.12,-56.14l0 56.14z"/>
    <path class="fil0" d="M2421.73 516.87l0 58.56c7.6,-1.77 23.59,-11.84 32.51,-16.3l68.95 -28.66c12.01,-4.61 27.54,-8.75 37.65,-13.6l0 -56.14c-57.06,13.3 -127.84,53.5 -139.11,56.14z"/>
    <path class="fil0" d="M2695.07 433.89l0 56.13c26.18,0 42.78,-2.45 68.33,-2.45 26.57,0 43.91,2.45 70.78,2.45l0 -56.13c-12.38,0 -13.3,-2.44 -26.85,-2.44l-85.41 0c-13.55,0 -14.48,2.44 -26.85,2.44z"/>
    <path class="fil0" d="M2460.78 660.85c3.12,-11.66 13.65,-14.01 17.08,-26.84 -5.36,-8.02 -11.54,-16.63 -19.52,-21.97 -5.33,7.96 -14.19,16.45 -19.53,24.41 3.23,4.81 6.1,7.46 9.74,12.23 4.54,5.95 5.85,7.9 12.23,12.17z"/>
    <path class="fil0" d="M2641.38 577.88c5.55,4.06 15.37,15.54 17.08,21.96 8.93,-2.39 17.66,-16.28 21.97,-24.41 -4.99,-9.41 -11.04,-15.36 -17.09,-24.4 -6.66,4.46 -17.13,19.63 -21.96,26.85z"/>
    <polygon class="fil6" points="3354,1231.93 3356.44,1231.93 3354.41,1229.09 "/>
    <polygon class="fil6" points="2185,1231.93 2185,1229.49 2182.15,1231.52 "/>
   </g>
  </g>
 </g>
</svg>
