<?xml version="1.0" encoding="UTF-8"?>
<!DOCTYPE svg PUBLIC "-//W3C//DTD SVG 1.1//EN" "http://www.w3.org/Graphics/SVG/1.1/DTD/svg11.dtd">
<!-- Creator: CorelDRAW 2017 -->
<svg xmlns="http://www.w3.org/2000/svg" xml:space="preserve" width="50.7998mm" height="33.8666mm" version="1.1" style="shape-rendering:geometricPrecision; text-rendering:geometricPrecision; image-rendering:optimizeQuality; fill-rule:evenodd; clip-rule:evenodd"
viewBox="0 0 5079.98 3386.66"
 xmlns:xlink="http://www.w3.org/1999/xlink">
 <defs>
  <style type="text/css">
   <![CDATA[
    .str0 {stroke:#373435;stroke-width:20;stroke-miterlimit:22.9256}
    .str1 {stroke:#373435;stroke-width:20;stroke-miterlimit:22.9256}
    .fil1 {fill:none}
    .fil4 {fill:#98D8FB}
    .fil3 {fill:#ABD8EF}
    .fil2 {fill:#CFD0D5}
    .fil5 {fill:#D1E4EB}
    .fil0 {fill:#F8E96C}
    .fil6 {fill:#373435;fill-rule:nonzero}
   ]]>
  </style>
 </defs>
 <g id="Capa_x0020_1">
  <metadata id="CorelCorpID_0Corel-Layer"/>
  <path class="fil0 str0" d="M2504.49 512.14c300.49,0 544.08,243.6 544.08,544.09 0,300.49 -243.59,544.08 -544.08,544.08 -300.49,0 -544.08,-243.59 -544.08,-544.08 0,-300.49 243.59,-544.09 544.08,-544.09z"/>
  <line class="fil1 str0" x1="3042.15" y1="972.38" x2="3571.81" y2= "963.65" />
  <line class="fil1 str0" x1="3264.19" y1="782.92" x2="3008.65" y2= "851.29" />
  <line class="fil1 str0" x1="3383.39" y1="479.15" x2="2959.48" y2= "757.78" />
  <line class="fil1 str0" x1="1470.83" y1="825.22" x2="1949.52" y2= "934.56" />
  <line class="fil1 str0" x1="3071.93" y1="440.69" x2="2886.26" y2= "668.56" />
  <line class="fil1 str0" x1="3083.47" y1="183.07" x2="2757.31" y2= "574.33" />
  <line class="fil1 str0" x1="1787.61" y1="713.71" x2="2013.4" y2= "821.72" />
  <line class="fil1 str0" x1="2695.09" y1="294.58" x2="2636.73" y2= "528.33" />
  <line class="fil1 str0" x1="2510.52" y1="63.86" x2="2507.83" y2= "512.16" />
  <line class="fil1 str0" x1="1668.41" y1="486.84" x2="2056.78" y2= "709.87" />
  <line class="fil1 str0" x1="2072.16" y1="129.23" x2="2274.62" y2= "562.94" />
  <line class="fil1 str0" x1="2345.17" y1="290.73" x2="2393.44" y2= "523.48" />
  <polygon class="fil2 str0" points="2516.73,1173.44 4137.68,2719.97 865.24,2712.97 "/>
  <line class="fil1 str0" x1="2051.51" y1="1391.63" x2="1749.49" y2= "1702.27" />
  <line class="fil1 str0" x1="2908.84" y1="1391.05" x2="3245.31" y2= "1702.27" />
  <line class="fil1 str0" x1="1994.07" y1="1301.35" x2="1778.82" y2= "1428.53" />
  <line class="fil1 str0" x1="2958.74" y1="1314.86" x2="3157.32" y2= "1448.09" />
  <line class="fil1 str0" x1="1949.85" y1="1179.37" x2="1482.36" y2= "1344.33" />
  <line class="fil1 str0" x1="1935.86" y1="1056.23" x2="1690.01" y2= "1059.78" />
  <line class="fil1 str0" x1="3047.38" y1="1094.39" x2="3301.17" y2= "1175.14" />
  <line class="fil1 str0" x1="3475.68" y1="1421.24" x2="3021.88" y2= "1225.02" />
  <path class="fil3 str0" d="M2320.21 1532.69l572.14 12.97 -20.71 319.55c182.91,336.52 510.62,768.4 295.73,842.96l-837.45 4.51 6.61 -619.9 94.83 -130.05 20.42 -335.96 -131.57 -94.08z"/>
  <path class="fil4 str1" d="M1570.88 2410.22l87.43 0 0 238c0,24.06 -19.66,43.71 -43.71,43.71l-0.01 0c-24.05,0 -43.71,-19.65 -43.71,-43.71l0 -238z"/>
  <path class="fil5 str0" d="M1823.45 2076.7l506.47 3.24 0 632.74 -473.74 -3.24 15.85 -503.22c-91.2,-84.69 -109.97,-129.29 -48.58,-129.52z"/>
  <line class="fil1 str0" x1="2024.27" y1="427.89" x2="2174.18" y2= "623.84" />
  <path class="fil6" d="M718.52 3176.14l0 0 0 0 52.61 14.55c-2.61,10.45 -5.87,20.43 -9.79,29.95 -3.92,9.52 -8.49,18.38 -13.72,26.59 -4.85,8.21 -10.26,15.86 -16.23,22.95 -5.97,7.09 -12.5,13.43 -19.59,19.03 -7.09,5.97 -14.74,11.01 -22.95,15.11 -8.21,4.11 -16.8,7.66 -25.75,10.64 -8.96,2.24 -18.19,4.01 -27.71,5.32 -9.52,1.3 -19.5,1.96 -29.95,1.96l-22.39 0.56c-10.07,-0.38 -19.78,-1.03 -29.11,-1.96 -9.33,-0.93 -18.28,-2.33 -26.87,-4.2 -8.21,-1.49 -16.14,-3.73 -23.79,-6.72 -7.65,-2.98 -14.83,-6.34 -21.55,-10.07 -7.09,-4.11 -13.62,-8.59 -19.59,-13.44 -5.97,-4.85 -11.57,-10.26 -16.79,-16.23 -5.23,-6.35 -10.08,-12.97 -14.56,-19.87 -4.47,-6.91 -8.58,-14.46 -12.31,-22.67 -1.87,-4.11 -3.64,-8.4 -5.32,-12.88 -1.68,-4.48 -3.45,-9.14 -5.32,-13.99 -1.49,-4.48 -2.89,-9.05 -4.2,-13.72 -1.3,-4.66 -2.33,-9.42 -3.07,-14.27 -1.12,-4.85 -1.96,-9.7 -2.52,-14.56 -0.56,-4.85 -1.22,-9.7 -1.96,-14.55 -0.38,-4.85 -0.66,-9.8 -0.84,-14.83 -0.19,-5.04 -0.28,-9.99 -0.28,-14.84 0,-15.3 1.02,-29.94 3.08,-43.94 2.05,-13.99 5.31,-27.15 9.79,-39.46 4.11,-12.32 9.43,-23.89 15.96,-34.71 6.53,-10.82 14.08,-20.9 22.67,-30.23 8.58,-9.33 17.82,-17.44 27.71,-24.35 9.88,-6.9 20.61,-12.78 32.18,-17.63 11.57,-4.48 23.79,-7.93 36.67,-10.35 12.87,-2.43 26.59,-3.64 41.14,-3.64l22.39 0c9.7,0 19.22,0.65 28.55,1.96 9.33,1.3 18.1,3.26 26.31,5.87 8.58,2.62 16.61,5.69 24.07,9.24 7.46,3.55 14.74,7.93 21.83,13.15 6.72,4.86 12.87,10.36 18.47,16.52 5.6,6.16 10.82,12.97 15.68,20.43 4.85,7.09 9.23,14.74 13.15,22.95 3.92,8.21 7.18,16.79 9.8,25.75l-52.06 13.43 -22.39 0c-2.62,-7.09 -5.32,-13.71 -8.12,-19.87 -2.8,-6.16 -5.88,-11.85 -9.24,-17.07 -3.35,-5.23 -6.99,-10.08 -10.91,-14.55 -3.92,-4.48 -7.93,-8.4 -12.04,-11.76 -4.1,-3.36 -8.58,-6.34 -13.43,-8.96 -4.85,-2.61 -10.08,-4.66 -15.67,-6.15 -3.74,-1.12 -7.84,-2.06 -12.32,-2.8 -4.48,-0.75 -9.14,-1.31 -13.99,-1.68 -8.21,0.37 -16.14,1.4 -23.79,3.08 -7.65,1.68 -14.84,4.01 -21.55,6.99 -8.21,3.36 -15.77,7.65 -22.68,12.88 -6.9,5.22 -13.34,11.38 -19.31,18.47 -5.97,7.09 -11.1,14.74 -15.39,22.95 -4.29,8.21 -7.93,17.17 -10.92,26.87 -2.98,9.7 -5.22,20.15 -6.71,31.35 -1.5,11.19 -2.24,22.95 -2.24,35.26 0,13.06 0.74,25.47 2.24,37.23 1.49,11.75 3.54,22.67 6.15,32.74 2.99,10.08 6.53,19.41 10.64,27.99 4.1,8.59 9.14,16.61 15.11,24.07 5.6,7.09 11.76,13.44 18.48,19.04 6.71,5.59 13.99,10.07 21.83,13.43 6.34,2.98 13.15,5.32 20.43,7 7.27,1.68 15.02,2.7 23.23,3.08 5.22,-0.38 10.45,-1.03 15.67,-1.96 5.23,-0.94 10.26,-2.15 15.12,-3.64 6.34,-2.24 12.5,-5.04 18.47,-8.4 5.97,-3.36 11.57,-7.28 16.79,-11.75 5.23,-4.11 9.89,-8.87 14,-14.28 4.1,-5.41 7.83,-11.29 11.19,-17.63 3.36,-6.34 6.34,-13.25 8.96,-20.71 2.61,-7.47 4.66,-15.49 6.15,-24.07l22.4 0zm332.49 47.02l0 0 0 0 50.94 7.28c-2.24,7.46 -4.76,14.55 -7.55,21.27 -2.8,6.71 -6.25,12.87 -10.36,18.47 -3.73,5.97 -7.93,11.29 -12.59,15.95 -4.67,4.67 -9.61,9.05 -14.84,13.16 -5.6,3.73 -11.47,7.09 -17.63,10.07 -6.16,2.99 -12.6,5.23 -19.31,6.72 -7.09,1.87 -14.37,3.27 -21.83,4.2 -7.47,0.93 -15.3,1.4 -23.51,1.4l-22.4 0.56c-10.82,-0.38 -20.99,-1.4 -30.5,-3.08 -9.52,-1.68 -18.57,-3.83 -27.15,-6.44 -8.21,-2.98 -15.96,-6.9 -23.23,-11.75 -7.28,-4.86 -14.09,-10.64 -20.43,-17.36 -5.97,-6.34 -11.39,-13.43 -16.24,-21.27 -4.85,-7.83 -8.77,-16.23 -11.75,-25.19 -2.99,-8.95 -5.23,-18.66 -6.72,-29.11 -1.49,-10.44 -2.24,-21.45 -2.24,-33.02 0,-11.94 0.75,-23.14 2.24,-33.59 1.49,-10.45 3.73,-20.34 6.72,-29.67 2.98,-9.7 6.81,-18.56 11.47,-26.59 4.67,-8.02 9.99,-15.58 15.96,-22.67 6.34,-7.09 13.06,-13.24 20.15,-18.47 7.09,-5.22 14.74,-9.51 22.95,-12.87 8.58,-3.36 17.44,-5.97 26.59,-7.84 9.14,-1.87 18.94,-2.8 29.39,-2.8l22.39 0c10.07,0 19.59,0.93 28.54,2.8 8.96,1.87 17.54,4.48 25.75,7.84 7.84,3.36 15.3,7.65 22.39,12.87 7.1,5.23 13.63,11.2 19.6,17.91 5.97,7.09 11.19,14.65 15.67,22.68 4.48,8.02 8.21,16.51 11.2,25.46 2.98,8.96 5.22,18.57 6.71,28.83 1.5,10.27 2.24,21.18 2.24,32.75l0 2.8 0 2.8 0 1.68 0 1.68 0 2.23 0 1.12 -216.63 1.12c0.37,7.84 1.12,15.12 2.24,21.83 1.12,6.72 2.8,13.25 5.04,19.6 2.24,5.97 4.94,11.57 8.11,16.79 3.18,5.22 6.63,9.89 10.36,13.99 4.11,4.48 8.4,8.4 12.88,11.76 4.47,3.36 9.14,6.16 13.99,8.4 3.36,1.49 7,2.7 10.92,3.63 3.91,0.94 7.93,1.59 12.03,1.96 2.99,-0.37 5.69,-0.84 8.12,-1.4 2.42,-0.56 4.94,-1.02 7.55,-1.4 4.11,-1.11 7.93,-2.61 11.48,-4.47 3.54,-1.87 7,-4.11 10.35,-6.72 2.99,-2.24 5.88,-4.95 8.68,-8.12 2.8,-3.17 5.51,-6.62 8.12,-10.35 2.24,-3.73 4.38,-7.84 6.44,-12.32 2.05,-4.48 3.82,-9.51 5.31,-15.11l22.39 0zm-161.21 -80.05l0 0 0 0 139.38 1.12c0,-1.49 0,-2.89 0,-4.2 0,-1.3 0,-2.7 0,-4.2 0,-0.74 0,-1.4 0,-1.96 0,-0.55 0,-1.02 0,-1.39 -0.37,-0.75 -0.56,-1.4 -0.56,-1.96 0,-0.56 0,-1.03 0,-1.4l-1.12 -2.8 0 -2.8 -1.12 -2.8 -0.56 -2.8 -1.12 -2.24 -1.11 -2.8 -1.12 -2.24 -0.56 -2.79c-1.5,-3.36 -3.18,-6.72 -5.04,-10.08 -1.87,-3.36 -3.92,-6.34 -6.16,-8.96 -2.24,-2.98 -4.76,-5.59 -7.56,-7.83 -2.8,-2.24 -5.87,-4.48 -9.23,-6.72 -3.36,-1.87 -6.81,-3.64 -10.36,-5.32 -3.54,-1.68 -7.18,-3.08 -10.91,-4.2 -1.87,-0.74 -3.83,-1.3 -5.88,-1.68 -2.05,-0.37 -4.2,-0.74 -6.44,-1.12 -3.73,0.38 -7.28,1.03 -10.63,1.96 -3.36,0.94 -6.54,2.15 -9.52,3.64 -4.85,1.87 -9.33,4.2 -13.44,7 -4.1,2.8 -8.02,6.06 -11.75,9.8 -3.73,3.73 -7.18,7.83 -10.36,12.31 -3.17,4.48 -5.69,9.33 -7.55,14.55 -2.24,4.86 -3.92,9.99 -5.04,15.4 -1.12,5.41 -1.87,10.91 -2.24,16.51zm271.49 172.97l0 0 0 0 0 -289.96 22.39 0 44.22 0 0 12.31c0.74,-0.74 1.4,-1.4 1.96,-1.96 0.56,-0.55 1.21,-1.21 1.96,-1.95 0.37,-0.38 0.93,-0.94 1.68,-1.68 0.74,-0.75 1.49,-1.31 2.23,-1.68 1.87,-1.12 3.64,-2.24 5.32,-3.36 1.68,-1.12 3.27,-2.05 4.76,-2.8 1.87,-0.75 3.64,-1.4 5.32,-1.96 1.68,-0.56 3.45,-1.03 5.32,-1.4 1.86,-0.37 3.82,-0.65 5.87,-0.84 2.06,-0.19 4.2,-0.28 6.44,-0.28l22.39 0 2.24 0 2.24 0 1.68 0.56 2.24 0c0.37,0 0.74,0 1.12,0 0.37,0 0.74,0 1.12,0 0.37,0.37 0.74,0.56 1.12,0.56 0.37,0 0.74,0 1.12,0 0.37,0 0.74,0 1.12,0 0.37,0 0.74,0 1.12,0 0.37,0.37 0.74,0.56 1.12,0.56 0.37,0 0.74,0 1.11,0 1.5,0.37 2.9,0.65 4.2,0.84 1.31,0.19 2.71,0.65 4.2,1.4 0.75,0.37 1.49,0.65 2.24,0.84 0.75,0.19 1.49,0.28 2.24,0.28 0.37,0.37 0.93,0.65 1.68,0.84 0.75,0.19 1.49,0.47 2.24,0.84 0.74,0.37 1.49,0.75 2.24,1.12 0.74,0.37 1.49,0.56 2.24,0.56 0.37,0.37 0.93,0.74 1.68,1.12 0.74,0.37 1.49,0.74 2.23,1.12 1.12,0.74 2.34,1.49 3.64,2.24 1.31,0.74 2.71,1.49 4.2,2.24l-16.79 46.46 -22.39 0c-1.5,-0.75 -2.99,-1.59 -4.48,-2.52 -1.49,-0.94 -2.99,-1.59 -4.48,-1.96 -1.49,-0.75 -2.98,-1.4 -4.48,-1.96 -1.49,-0.56 -2.98,-1.03 -4.48,-1.4 -0.74,0 -1.39,-0.09 -1.95,-0.28 -0.56,-0.19 -1.22,-0.47 -1.96,-0.84 -0.75,0 -1.4,-0.09 -1.96,-0.28 -0.56,-0.19 -1.22,-0.28 -1.96,-0.28 -2.24,0.37 -4.39,1.03 -6.44,1.96 -2.05,0.93 -4.01,1.96 -5.88,3.08 -3.36,2.24 -6.53,4.85 -9.51,7.83 -2.99,2.99 -5.6,6.54 -7.84,10.64 -2.61,4.11 -4.76,8.68 -6.44,13.71 -1.68,5.04 -3.08,10.36 -4.2,15.96 -1.12,5.6 -1.95,11.57 -2.51,17.91 -0.56,6.34 -0.84,13.25 -0.84,20.71l0 151.7 -22.39 0 -49.26 0zm208.23 0l0 0 0 0 0 -289.96 22.39 0 44.22 0 0 12.31c0.74,-0.74 1.4,-1.4 1.96,-1.96 0.56,-0.55 1.21,-1.21 1.96,-1.95 0.37,-0.38 0.93,-0.94 1.68,-1.68 0.74,-0.75 1.49,-1.31 2.23,-1.68 1.87,-1.12 3.64,-2.24 5.32,-3.36 1.68,-1.12 3.27,-2.05 4.76,-2.8 1.87,-0.75 3.64,-1.4 5.32,-1.96 1.68,-0.56 3.45,-1.03 5.32,-1.4 1.86,-0.37 3.82,-0.65 5.87,-0.84 2.06,-0.19 4.2,-0.28 6.44,-0.28l22.39 0 2.24 0 2.24 0 1.68 0.56 2.24 0c0.37,0 0.74,0 1.12,0 0.37,0 0.74,0 1.12,0 0.37,0.37 0.74,0.56 1.12,0.56 0.37,0 0.74,0 1.12,0 0.37,0 0.74,0 1.12,0 0.37,0 0.74,0 1.12,0 0.37,0.37 0.74,0.56 1.12,0.56 0.37,0 0.74,0 1.11,0 1.5,0.37 2.9,0.65 4.2,0.84 1.31,0.19 2.71,0.65 4.2,1.4 0.75,0.37 1.49,0.65 2.24,0.84 0.75,0.19 1.49,0.28 2.24,0.28 0.37,0.37 0.93,0.65 1.68,0.84 0.75,0.19 1.49,0.47 2.24,0.84 0.74,0.37 1.49,0.75 2.24,1.12 0.74,0.37 1.49,0.56 2.24,0.56 0.37,0.37 0.93,0.74 1.68,1.12 0.74,0.37 1.49,0.74 2.23,1.12 1.12,0.74 2.34,1.49 3.64,2.24 1.31,0.74 2.71,1.49 4.2,2.24l-16.79 46.46 -22.39 0c-1.5,-0.75 -2.99,-1.59 -4.48,-2.52 -1.49,-0.94 -2.99,-1.59 -4.48,-1.96 -1.49,-0.75 -2.98,-1.4 -4.48,-1.96 -1.49,-0.56 -2.98,-1.03 -4.48,-1.4 -0.74,0 -1.39,-0.09 -1.95,-0.28 -0.56,-0.19 -1.22,-0.47 -1.96,-0.84 -0.75,0 -1.4,-0.09 -1.96,-0.28 -0.56,-0.19 -1.22,-0.28 -1.96,-0.28 -2.24,0.37 -4.39,1.03 -6.44,1.96 -2.05,0.93 -4.01,1.96 -5.88,3.08 -3.36,2.24 -6.53,4.85 -9.51,7.83 -2.99,2.99 -5.6,6.54 -7.84,10.64 -2.61,4.11 -4.76,8.68 -6.44,13.71 -1.68,5.04 -3.08,10.36 -4.2,15.96 -1.12,5.6 -1.95,11.57 -2.51,17.91 -0.56,6.34 -0.84,13.25 -0.84,20.71l0 151.7 -22.39 0 -49.26 0zm401.91 -19.03c-0.38,0 -0.75,0.09 -1.12,0.28 -0.38,0.18 -0.75,0.46 -1.12,0.84 -0.38,0.37 -0.66,0.65 -0.84,0.84 -0.19,0.18 -0.47,0.28 -0.84,0.28 -1.5,1.12 -3.08,2.24 -4.76,3.36 -1.68,1.12 -3.45,2.05 -5.32,2.79 -1.49,1.12 -3.08,2.06 -4.76,2.8 -1.68,0.75 -3.26,1.5 -4.75,2.24 -1.5,0.75 -3.08,1.4 -4.76,1.96 -1.68,0.56 -3.45,1.21 -5.32,1.96 -1.49,0.37 -3.08,0.75 -4.76,1.12 -1.68,0.37 -3.45,0.56 -5.32,0.56 -3.35,0.75 -6.81,1.49 -10.35,2.24 -3.55,0.75 -7.19,1.31 -10.92,1.68 -3.73,0.74 -7.37,1.21 -10.91,1.4 -3.55,0.18 -7.19,0.28 -10.92,0.28l-22.39 0.56c-7.46,-0.38 -14.55,-1.03 -21.27,-1.96 -6.72,-0.93 -13.25,-2.33 -19.59,-4.2 -5.97,-1.12 -11.57,-2.99 -16.8,-5.6 -5.22,-2.61 -10.07,-5.78 -14.55,-9.51 -4.48,-3.74 -8.4,-7.75 -11.75,-12.04 -3.36,-4.29 -6.16,-8.86 -8.4,-13.71 -2.24,-5.23 -3.92,-10.64 -5.04,-16.24 -1.12,-5.59 -1.68,-11.57 -1.68,-17.91 0,-5.22 0.37,-10.08 1.12,-14.55 0.75,-4.48 1.87,-8.96 3.36,-13.44 1.49,-4.48 3.36,-8.67 5.6,-12.59 2.24,-3.92 4.85,-7.75 7.83,-11.48 2.99,-3.73 6.35,-7.09 10.08,-10.07 3.73,-2.99 7.65,-5.79 11.75,-8.4 4.11,-2.61 8.68,-4.94 13.72,-7 5.04,-2.05 10.36,-3.82 15.95,-5.32l1.12 0 1.12 -0.55 0.56 0 1.12 -0.56 1.12 0 1.12 -0.56 0.56 0 1.12 -0.56 1.68 0 1.68 -0.56 1.12 0 1.68 -0.56 3.36 -0.56c0.74,0 1.49,-0.1 2.23,-0.28 0.75,-0.19 1.5,-0.47 2.24,-0.84 0.75,0 1.4,0 1.96,0 0.56,0 1.22,0 1.96,0 0.75,0 1.59,-0.1 2.52,-0.28 0.93,-0.19 1.96,-0.47 3.08,-0.84 0.37,0 0.75,0 1.12,0 0.37,0 0.93,-0.19 1.68,-0.56 0.37,0 0.84,0 1.4,0 0.56,0 1.02,0 1.4,0 1.12,0 2.24,-0.1 3.36,-0.28 1.12,-0.19 2.42,-0.47 3.91,-0.84 2.24,-0.38 4.48,-0.65 6.72,-0.84 2.24,-0.19 4.48,-0.47 6.72,-0.84 1.12,0 2.24,-0.09 3.36,-0.28 1.12,-0.19 2.24,-0.47 3.36,-0.84 0.74,0 1.68,-0.09 2.8,-0.28 1.11,-0.19 2.23,-0.28 3.35,-0.28 1.87,-0.37 3.83,-0.75 5.88,-1.12 2.05,-0.37 4.01,-0.75 5.88,-1.12 1.86,-0.37 3.82,-0.84 5.88,-1.4 2.05,-0.56 4.01,-1.03 5.87,-1.4 1.87,-0.37 3.83,-0.74 5.88,-1.12 2.05,-0.37 3.83,-0.74 5.32,-1.12 1.87,-0.37 3.64,-0.74 5.32,-1.12 1.68,-0.37 3.26,-0.74 4.76,-1.12 1.49,-0.37 2.89,-0.74 4.19,-1.12 1.31,-0.37 2.71,-0.74 4.2,-1.12 1.49,-0.37 2.89,-0.65 4.2,-0.84 1.31,-0.18 2.71,-0.46 4.2,-0.84l0 -1.67 0.56 -2.24 0 -1.12 0 -1.68 0 -2.24 0 -2.24 0 0 0 -0.56 0 0 0 0 0 0 0 -1.12 0 0 0 0 0 0 0 -0.56 0 0 0 0c0,-5.22 -0.37,-10.08 -1.12,-14.55 -0.75,-4.48 -1.87,-8.59 -3.36,-12.32 -1.49,-3.73 -3.17,-7.09 -5.04,-10.07 -1.86,-2.99 -4.29,-5.6 -7.27,-7.84 -2.62,-2.24 -5.79,-4.2 -9.52,-5.88 -3.73,-1.68 -7.84,-3.08 -12.32,-4.2 -2.98,-0.74 -6.25,-1.4 -9.79,-1.96 -3.55,-0.56 -7.37,-1.02 -11.48,-1.4 -2.98,0.38 -5.97,0.75 -8.95,1.12 -2.99,0.38 -5.97,0.94 -8.96,1.68 -4.48,1.12 -8.4,2.43 -11.75,3.92 -3.36,1.49 -6.54,3.17 -9.52,5.04 -2.61,1.87 -5.23,4.2 -7.84,7 -2.61,2.8 -4.85,5.87 -6.72,9.23 -1.86,3.73 -3.63,7.65 -5.31,11.76 -1.68,4.1 -3.08,8.58 -4.2,13.43l-22.39 0 -48.14 -5.04c0,-0.74 0,-1.49 0,-2.23 0,-0.75 0.18,-1.68 0.56,-2.8 0,-0.75 0.09,-1.5 0.28,-2.24 0.18,-0.75 0.28,-1.5 0.28,-2.24 0.37,-1.49 0.65,-2.89 0.84,-4.2 0.18,-1.31 0.46,-2.52 0.84,-3.64 0,-0.74 0.09,-1.3 0.28,-1.68 0.18,-0.37 0.46,-0.93 0.84,-1.68 0,-0.37 0.09,-0.84 0.28,-1.4 0.18,-0.56 0.46,-1.02 0.84,-1.4 0.37,-0.74 0.65,-1.3 0.84,-1.68 0.18,-0.37 0.46,-0.93 0.84,-1.67 0.37,-0.38 0.65,-0.84 0.83,-1.4 0.19,-0.56 0.47,-1.03 0.84,-1.4l1.12 -1.68 1.12 -1.68 1.12 -2.24 1.12 -2.24c2.61,-4.1 5.41,-8.02 8.4,-11.76 2.98,-3.73 6.34,-7.27 10.07,-10.63 3.74,-2.99 7.75,-5.88 12.04,-8.68 4.29,-2.8 8.86,-5.31 13.71,-7.55 4.86,-2.24 9.99,-4.2 15.4,-5.88 5.41,-1.68 11.1,-3.08 17.07,-4.2 6.35,-1.12 12.88,-1.96 19.59,-2.52 6.72,-0.56 13.62,-0.84 20.71,-0.84l22.4 0c7.09,0 13.8,0.28 20.15,0.84 6.34,0.56 12.5,1.4 18.47,2.52 5.97,1.12 11.57,2.43 16.79,3.92 5.23,1.49 10.08,3.17 14.56,5.04 4.47,2.24 8.58,4.66 12.31,7.27 3.73,2.62 7.09,5.41 10.08,8.4 2.98,2.99 5.69,6.16 8.11,9.52 2.43,3.35 4.39,7.09 5.88,11.19l0 2.24 1.12 2.24 0.56 2.24 1.12 2.24c0.37,1.49 0.65,2.89 0.84,4.2 0.19,1.3 0.47,2.89 0.84,4.75 0,0.75 0,1.59 0,2.52 0,0.94 0.19,1.78 0.56,2.52 0,1.12 0.09,2.15 0.28,3.08 0.19,0.93 0.28,1.77 0.28,2.52 0,1.12 0,2.15 0,3.08 0,0.93 0.19,1.96 0.56,3.08 0,1.12 0,2.33 0,3.64 0,1.3 0,2.51 0,3.63 0,1.5 0,2.9 0,4.2 0,1.31 0.19,2.71 0.56,4.2 0,1.49 0,2.99 0,4.48 0,1.49 0,3.17 0,5.04l0 66.61c0,7.09 0,13.71 0,19.87 0,6.16 0,11.85 0,17.07 0,4.86 0,9.24 0,13.16 0,3.92 0.19,7.37 0.56,10.35 0,2.62 0,5.23 0,7.84 0,2.61 0.19,5.04 0.56,7.28 0.37,2.24 0.74,4.29 1.12,6.16 0.37,1.86 0.74,3.73 1.12,5.59l0 1.12 0 0 0 1.12 0 0.56 0 1.12 1.12 1.12c0,0.75 0.09,1.49 0.28,2.24 0.18,0.75 0.46,1.49 0.84,2.24l1.12 3.92 1.12 3.36 1.67 3.36 1.12 3.35 1.12 3.36 1.68 3.36 2.24 2.8 -22.39 0 -51.5 0 -1.12 -0.56 -1.12 -1.68 -1.12 -2.24 0 -2.24c-0.37,-0.74 -0.74,-1.58 -1.12,-2.52 -0.37,-0.93 -0.74,-1.96 -1.11,-3.07 -0.38,-1.12 -0.66,-2.24 -0.84,-3.36 -0.19,-1.12 -0.47,-2.24 -0.84,-3.36 0,0 0,0 0,0 0,0 0,0 0,0zm-6.72 -118.11c-0.37,0.37 -0.65,0.56 -0.84,0.56 -0.19,0 -0.47,0 -0.84,0 -2.61,0.74 -5.32,1.4 -8.12,1.96 -2.8,0.56 -5.69,1.21 -8.67,1.95 -2.99,0.75 -6.07,1.4 -9.24,1.96 -3.17,0.56 -6.44,1.22 -9.8,1.96 -3.35,0.38 -6.71,0.84 -10.07,1.4 -3.36,0.56 -6.72,1.03 -10.08,1.4 -6.72,0.75 -12.78,1.68 -18.19,2.8 -5.41,1.12 -10.36,2.43 -14.83,3.92 -4.48,1.49 -8.49,2.98 -12.04,4.48 -3.54,1.49 -6.62,3.17 -9.24,5.04 -2.61,1.86 -4.85,3.91 -6.71,6.15 -1.87,2.24 -3.36,4.85 -4.48,7.84 -1.49,2.61 -2.52,5.5 -3.08,8.68 -0.56,3.17 -0.84,6.62 -0.84,10.35 0,3.73 0.28,7.09 0.84,10.08 0.56,2.98 1.59,5.97 3.08,8.95 1.12,2.62 2.7,5.23 4.76,7.84 2.05,2.61 4.38,4.85 6.99,6.72 2.62,2.24 5.42,4.1 8.4,5.6 2.99,1.49 6.34,2.79 10.08,3.91 1.86,0.38 3.92,0.75 6.15,1.12 2.24,0.38 4.48,0.75 6.72,1.12 0.75,0 1.49,0 2.24,0 0.75,0 1.68,-0.18 2.8,-0.56 0.75,0 1.49,-0.09 2.24,-0.28 0.74,-0.18 1.49,-0.28 2.24,-0.28 3.36,-0.74 6.62,-1.49 9.79,-2.24 3.18,-0.74 6.25,-1.68 9.24,-2.79 2.99,-1.12 5.78,-2.43 8.4,-3.92 2.61,-1.5 5.22,-2.99 7.83,-4.48 2.62,-1.87 5.04,-3.73 7.28,-5.6 2.24,-1.86 4.48,-3.92 6.72,-6.16l0 0 1.12 -1.12 0.56 -0.56 1.12 -1.12c1.86,-1.86 3.45,-3.82 4.75,-5.87 1.31,-2.06 2.52,-4.2 3.64,-6.44 1.12,-2.24 2.24,-4.48 3.36,-6.72 1.12,-2.24 2.05,-4.66 2.8,-7.27 0.37,-1.12 0.65,-2.34 0.84,-3.64 0.19,-1.31 0.47,-2.71 0.84,-4.2 0,-1.49 0.09,-3.08 0.28,-4.76 0.19,-1.68 0.47,-3.26 0.84,-4.76 0.37,-3.36 0.65,-6.9 0.84,-10.63 0.19,-3.73 0.28,-7.84 0.28,-12.32l0 -10.07zm148.33 137.14l0 0 0 0 0 -289.96 22.4 0 44.22 0 0 17.91c2.61,-1.86 5.31,-3.82 8.11,-5.88 2.8,-2.05 5.69,-3.82 8.68,-5.31 4.11,-1.87 8.21,-3.55 12.32,-5.04 4.1,-1.49 8.39,-2.8 12.87,-3.92 4.48,-1.12 9.14,-1.96 13.99,-2.52 4.86,-0.56 9.71,-0.84 14.56,-0.84l22.39 0c4.85,0 9.51,0.28 13.99,0.84 4.48,0.56 8.96,1.21 13.44,1.96 4.1,1.12 8.3,2.43 12.59,3.92 4.29,1.49 8.31,3.17 12.04,5.04 4.1,1.86 7.83,3.92 11.19,6.15 3.36,2.24 6.35,4.86 8.96,7.84 2.98,2.61 5.6,5.41 7.84,8.4 2.23,2.98 4.29,5.97 6.15,8.95l0.56 1.68 1.12 1.68 0 1.68 1.12 1.12 0.56 1.68 1.12 1.12 0 1.68 1.12 1.12c0.75,1.49 1.4,3.26 1.96,5.32 0.56,2.05 1.03,4.01 1.4,5.87 0.75,1.87 1.21,3.83 1.4,5.88 0.19,2.05 0.47,4.2 0.84,6.44 0,1.12 0,2.33 0,3.64 0,1.3 0.19,2.52 0.56,3.64 0,1.49 0,2.98 0,4.47 0,1.5 0,3.18 0,5.04 0,1.5 0,3.17 0,5.04 0,1.87 0.19,3.73 0.56,5.6 0,1.86 0,3.73 0,5.6 0,1.86 0,3.91 0,6.15l0 178.01 -22.39 0 -49.26 0 0 -175.21c0,-1.49 0,-2.98 0,-4.48 0,-1.49 0,-2.98 0,-4.47 -0.38,-1.5 -0.56,-2.9 -0.56,-4.2 0,-1.31 0,-2.52 0,-3.64 0,-2.61 -0.1,-5.04 -0.28,-7.28 -0.19,-2.24 -0.47,-4.1 -0.84,-5.6 0,-0.74 -0.09,-1.49 -0.28,-2.23 -0.19,-0.75 -0.47,-1.68 -0.84,-2.8 0,-0.75 -0.09,-1.5 -0.28,-2.24 -0.19,-0.75 -0.47,-1.5 -0.84,-2.24 -0.37,-0.75 -0.65,-1.49 -0.84,-2.24 -0.19,-0.75 -0.28,-1.49 -0.28,-2.24 -0.37,-0.75 -0.65,-1.49 -0.84,-2.24 -0.19,-0.75 -0.47,-1.49 -0.84,-2.24l-1.12 -1.68 -0.56 -1.68 -1.12 -1.68 -1.12 -1.68c-1.12,-1.86 -2.42,-3.45 -3.92,-4.75 -1.49,-1.31 -3.17,-2.71 -5.03,-4.2 -1.5,-1.49 -3.27,-2.89 -5.32,-4.2 -2.05,-1.31 -4.2,-2.52 -6.44,-3.64 -2.24,-0.74 -4.57,-1.58 -7,-2.52 -2.42,-0.93 -4.94,-1.58 -7.55,-1.96 -0.38,0 -0.75,-0.09 -1.12,-0.28 -0.38,-0.18 -0.56,-0.28 -0.56,-0.28 -0.38,0 -0.75,0 -1.12,0 -0.38,0 -0.75,0 -1.12,0 -0.75,0 -1.49,0.1 -2.24,0.28 -0.75,0.19 -1.49,0.28 -2.24,0.28 -0.37,0 -0.75,0.1 -1.12,0.28 -0.37,0.19 -0.56,0.28 -0.56,0.28 -0.75,0 -1.31,0.1 -1.68,0.28 -0.37,0.19 -0.93,0.28 -1.68,0.28 -3.36,1.12 -6.62,2.24 -9.79,3.36 -3.18,1.12 -6.25,2.61 -9.24,4.48 -2.99,1.49 -5.78,3.26 -8.4,5.32 -2.61,2.05 -5.03,4.2 -7.27,6.43 -2.24,2.24 -4.2,4.58 -5.88,7 -1.68,2.43 -3.27,4.95 -4.76,7.56 -1.12,1.86 -2.05,3.82 -2.8,5.88 -0.74,2.05 -1.49,4.01 -2.24,5.87 -0.37,1.12 -0.74,2.24 -1.12,3.36 -0.37,1.12 -0.74,2.06 -1.12,2.8 0,1.12 -0.18,2.24 -0.56,3.36 -0.37,1.12 -0.56,2.24 -0.56,3.36 -0.37,2.24 -0.74,4.57 -1.12,7 -0.37,2.42 -0.56,5.13 -0.56,8.11 -0.37,2.61 -0.55,5.51 -0.55,8.68 0,3.17 0,6.25 0,9.24l0 158.41 -22.4 0 -48.7 0z"/>
  <path class="fil6" d="M2434.19 3316.08l0 0 0 0 0 -10.64c-1.87,1.5 -3.83,2.8 -5.88,3.92 -2.05,1.12 -4.2,2.24 -6.44,3.36 -2.24,0.75 -4.57,1.49 -6.99,2.24 -2.43,0.75 -4.76,1.31 -7,1.68 -1.49,0.37 -2.8,0.75 -3.92,1.12 -1.12,0.37 -2.43,0.75 -3.92,1.12 -3.73,0.75 -7.74,1.4 -12.03,1.96 -4.3,0.56 -8.49,0.84 -12.6,0.84l-22.39 0.56c-9.33,-0.38 -18.1,-1.5 -26.31,-3.36 -8.21,-1.87 -16.05,-4.11 -23.51,-6.72 -7.46,-3.36 -14.55,-7.65 -21.27,-12.87 -6.72,-5.23 -13.06,-11.39 -19.03,-18.48 -5.97,-7.09 -11.1,-14.64 -15.4,-22.67 -4.29,-8.02 -7.93,-16.51 -10.91,-25.47 -2.61,-8.95 -4.67,-18.37 -6.16,-28.26 -1.49,-9.89 -2.24,-20.44 -2.24,-31.63 0,-11.57 0.65,-22.49 1.96,-32.75 1.31,-10.26 3.27,-20.06 5.88,-29.39 2.98,-9.33 6.53,-18 10.63,-26.02 4.11,-8.03 8.96,-15.59 14.56,-22.68 5.6,-6.71 11.66,-12.68 18.19,-17.91 6.53,-5.22 13.53,-9.51 20.99,-12.87 7.47,-3.36 15.4,-5.97 23.79,-7.84 8.4,-1.87 17.26,-2.8 26.59,-2.8l22.39 0c4.11,0 8.12,0.28 12.04,0.84 3.92,0.56 7.74,1.21 11.47,1.96 3.73,1.12 7.37,2.24 10.92,3.36 3.54,1.12 7.18,2.61 10.91,4.48 2.24,1.12 4.39,2.33 6.44,3.64 2.05,1.3 4.01,2.7 5.88,4.19l0 -123.15 22.39 0 49.26 0 0 400.24 -22.39 0 -45.9 0zm-133.23 -144.42l0 0 0 1.12c0,8.21 0.47,16.14 1.4,23.79 0.93,7.65 2.15,14.83 3.64,21.55 1.87,6.72 4.1,12.97 6.72,18.75 2.61,5.79 5.78,11.29 9.51,16.52 3.73,4.85 7.65,9.23 11.76,13.15 4.1,3.92 8.58,7.18 13.43,9.8 2.99,1.49 6.25,2.8 9.8,3.91 3.54,1.12 7.18,2.06 10.91,2.8 4.11,-0.74 7.84,-1.68 11.2,-2.8 3.36,-1.11 6.72,-2.42 10.08,-3.91 4.85,-2.24 9.32,-5.13 13.43,-8.68 4.1,-3.55 7.84,-7.74 11.2,-12.59 3.35,-4.86 6.34,-10.08 8.95,-15.68 2.61,-5.6 4.67,-11.75 6.16,-18.47 1.87,-6.34 3.26,-13.25 4.2,-20.71 0.93,-7.47 1.4,-15.3 1.4,-23.51 0,-8.96 -0.47,-17.45 -1.4,-25.47 -0.94,-8.03 -2.33,-15.58 -4.2,-22.67 -1.49,-7.09 -3.64,-13.72 -6.44,-19.87 -2.8,-6.16 -5.88,-11.67 -9.23,-16.52 -3.74,-5.22 -7.65,-9.7 -11.76,-13.43 -4.1,-3.73 -8.58,-6.91 -13.43,-9.52 -3.36,-1.86 -6.81,-3.36 -10.36,-4.48 -3.55,-1.12 -7.37,-2.05 -11.48,-2.8 -3.73,0.38 -7.37,1.22 -10.91,2.52 -3.55,1.31 -7,2.9 -10.36,4.76 -4.85,2.61 -9.23,5.69 -13.15,9.24 -3.92,3.54 -7.56,7.74 -10.92,12.59 -3.36,4.85 -6.25,10.17 -8.67,15.96 -2.43,5.78 -4.57,12.03 -6.44,18.75 -1.49,6.72 -2.71,13.9 -3.64,21.55 -0.93,7.65 -1.4,15.77 -1.4,24.35zm259.73 0.56c0,-7.84 0.28,-15.3 0.84,-22.39 0.56,-7.09 1.4,-14 2.52,-20.71 1.12,-6.72 2.61,-13.06 4.48,-19.04 1.86,-5.97 4.1,-11.56 6.72,-16.79 2.61,-5.22 5.5,-10.26 8.67,-15.11 3.17,-4.85 6.63,-9.52 10.36,-14 3.73,-4.1 7.83,-8.02 12.31,-11.75 4.48,-3.73 9.15,-7.28 14,-10.64 2.98,-1.86 5.87,-3.45 8.67,-4.76 2.8,-1.3 5.69,-2.7 8.68,-4.19 2.99,-1.5 5.97,-2.8 8.96,-3.92 2.98,-1.12 6.15,-2.05 9.51,-2.8 2.99,-0.75 6.16,-1.49 9.52,-2.24 3.36,-0.75 6.72,-1.31 10.07,-1.68 3.36,-0.75 6.72,-1.21 10.08,-1.4 3.36,-0.19 6.9,-0.28 10.64,-0.28l22.39 0c10.45,0 20.34,0.84 29.66,2.52 9.33,1.68 18.1,4.2 26.31,7.56 8.21,3.36 15.96,7.55 23.23,12.59 7.28,5.04 13.91,10.92 19.88,17.63 6.34,6.72 11.75,14 16.23,21.84 4.48,7.83 8.21,16.23 11.19,25.19 2.99,8.95 5.32,18.47 7,28.54 1.68,10.08 2.52,20.72 2.52,31.91 0,8.58 -0.37,16.79 -1.12,24.63 -0.74,7.84 -1.68,15.11 -2.8,21.83 -1.12,7.09 -2.61,13.72 -4.48,19.87 -1.86,6.16 -3.91,11.85 -6.15,17.08 -2.62,5.22 -5.41,10.26 -8.4,15.11 -2.99,4.85 -6.53,9.52 -10.64,13.99 -3.73,4.48 -7.83,8.59 -12.31,12.32 -4.48,3.73 -9.33,7.09 -14.55,10.08 -1.5,0.74 -2.99,1.58 -4.48,2.51 -1.5,0.94 -2.8,1.78 -3.92,2.52 -1.49,0.75 -2.99,1.4 -4.48,1.96 -1.49,0.56 -2.98,1.22 -4.48,1.96 -2.98,1.12 -6.06,2.05 -9.23,2.8 -3.18,0.75 -6.25,1.31 -9.24,1.68 -1.49,0.37 -3.08,0.75 -4.76,1.12 -1.68,0.37 -3.45,0.75 -5.32,1.12 -1.49,0.37 -3.07,0.65 -4.75,0.84 -1.68,0.19 -3.27,0.46 -4.76,0.84 -0.75,0 -1.59,0 -2.52,0 -0.93,0 -1.77,0.18 -2.52,0.56 -0.75,0 -1.59,0 -2.52,0 -0.93,0 -1.77,0 -2.52,0 -0.74,0 -1.58,0 -2.52,0 -0.93,0 -1.77,0.18 -2.52,0.56 -0.74,0 -1.58,0 -2.51,0 -0.94,0 -1.78,0 -2.52,0l-22.39 0.56c-7.47,-0.38 -14.74,-1.03 -21.83,-1.96 -7.1,-0.93 -13.81,-2.33 -20.16,-4.2 -6.71,-1.12 -13.15,-3.08 -19.31,-5.88 -6.16,-2.8 -12.22,-6.06 -18.19,-9.79 -5.97,-3.74 -11.29,-7.84 -15.95,-12.32 -4.67,-4.48 -9.05,-9.14 -13.16,-13.99 -3.73,-5.23 -7.18,-10.73 -10.36,-16.52 -3.17,-5.78 -5.69,-11.84 -7.55,-18.19 -0.75,-2.24 -1.49,-4.66 -2.24,-7.28 -0.75,-2.61 -1.49,-5.22 -2.24,-7.83 -0.37,-2.61 -0.84,-5.32 -1.4,-8.12 -0.56,-2.8 -1.03,-5.69 -1.4,-8.68 -0.37,-2.98 -0.75,-5.87 -1.12,-8.67 -0.37,-2.8 -0.56,-5.69 -0.56,-8.68 -0.37,-2.98 -0.56,-5.97 -0.56,-8.95 0,-2.99 0,-5.98 0,-8.96zm72.77 -1.12l0 0 0 1.12c0,8.58 0.47,16.79 1.4,24.63 0.93,7.84 2.33,15.11 4.2,21.83 1.87,7.09 4.29,13.53 7.28,19.31 2.98,5.79 6.34,11.1 10.07,15.96 3.73,4.85 7.84,9.23 12.32,13.15 4.48,3.92 9.33,7 14.55,9.24 3.73,1.49 7.56,2.8 11.48,3.91 3.92,1.12 8.11,2.06 12.59,2.8 4.48,-0.74 8.77,-1.68 12.88,-2.8 4.1,-1.11 8.02,-2.42 11.75,-3.91 5.23,-2.24 10.08,-5.32 14.56,-9.24 4.47,-3.92 8.58,-8.3 12.31,-13.15 3.73,-5.23 7,-10.73 9.8,-16.52 2.8,-5.78 5.13,-12.22 6.99,-19.31 1.87,-6.72 3.36,-14.09 4.48,-22.11 1.12,-8.02 1.68,-16.51 1.68,-25.47 0,-8.58 -0.56,-16.51 -1.68,-23.79 -1.12,-7.28 -2.61,-14.27 -4.48,-20.99 -1.86,-6.72 -4.19,-12.97 -6.99,-18.75 -2.8,-5.79 -6.07,-11.11 -9.8,-15.96 -3.73,-4.85 -7.84,-9.05 -12.31,-12.59 -4.48,-3.55 -9.33,-6.63 -14.56,-9.24 -3.73,-1.86 -7.65,-3.45 -11.75,-4.76 -4.11,-1.3 -8.21,-2.14 -12.32,-2.52 -4.48,0.38 -8.77,1.22 -12.87,2.52 -4.11,1.31 -8.03,2.9 -11.76,4.76 -5.22,2.61 -10.07,5.69 -14.55,9.24 -4.48,3.54 -8.59,7.74 -12.32,12.59 -3.73,4.85 -7.09,10.26 -10.07,16.24 -2.99,5.97 -5.41,12.31 -7.28,19.03 -1.87,6.72 -3.27,13.81 -4.2,21.27 -0.93,7.46 -1.4,15.3 -1.4,23.51zm770.25 5.04l0 0 0 0 52.61 14.55c-2.61,10.45 -5.87,20.43 -9.79,29.95 -3.92,9.52 -8.49,18.38 -13.72,26.59 -4.85,8.21 -10.26,15.86 -16.23,22.95 -5.97,7.09 -12.5,13.43 -19.59,19.03 -7.09,5.97 -14.74,11.01 -22.95,15.11 -8.21,4.11 -16.8,7.66 -25.75,10.64 -8.96,2.24 -18.19,4.01 -27.71,5.32 -9.52,1.3 -19.5,1.96 -29.95,1.96l-22.39 0.56c-10.07,-0.38 -19.78,-1.03 -29.11,-1.96 -9.33,-0.93 -18.28,-2.33 -26.87,-4.2 -8.21,-1.49 -16.14,-3.73 -23.79,-6.72 -7.65,-2.98 -14.83,-6.34 -21.55,-10.07 -7.09,-4.11 -13.62,-8.59 -19.59,-13.44 -5.97,-4.85 -11.57,-10.26 -16.79,-16.23 -5.23,-6.35 -10.08,-12.97 -14.56,-19.87 -4.47,-6.91 -8.58,-14.46 -12.31,-22.67 -1.87,-4.11 -3.64,-8.4 -5.32,-12.88 -1.68,-4.48 -3.45,-9.14 -5.32,-13.99 -1.49,-4.48 -2.89,-9.05 -4.2,-13.72 -1.3,-4.66 -2.33,-9.42 -3.07,-14.27 -1.12,-4.85 -1.96,-9.7 -2.52,-14.56 -0.56,-4.85 -1.22,-9.7 -1.96,-14.55 -0.38,-4.85 -0.66,-9.8 -0.84,-14.83 -0.19,-5.04 -0.28,-9.99 -0.28,-14.84 0,-15.3 1.02,-29.94 3.08,-43.94 2.05,-13.99 5.31,-27.15 9.79,-39.46 4.11,-12.32 9.43,-23.89 15.96,-34.71 6.53,-10.82 14.08,-20.9 22.67,-30.23 8.58,-9.33 17.82,-17.44 27.71,-24.35 9.88,-6.9 20.61,-12.78 32.18,-17.63 11.57,-4.48 23.79,-7.93 36.67,-10.35 12.87,-2.43 26.59,-3.64 41.14,-3.64l22.39 0c9.7,0 19.22,0.65 28.55,1.96 9.33,1.3 18.1,3.26 26.31,5.87 8.58,2.62 16.61,5.69 24.07,9.24 7.46,3.55 14.74,7.93 21.83,13.15 6.72,4.86 12.87,10.36 18.47,16.52 5.6,6.16 10.82,12.97 15.68,20.43 4.85,7.09 9.23,14.74 13.15,22.95 3.92,8.21 7.18,16.79 9.8,25.75l-52.06 13.43 -22.39 0c-2.62,-7.09 -5.32,-13.71 -8.12,-19.87 -2.8,-6.16 -5.88,-11.85 -9.24,-17.07 -3.35,-5.23 -6.99,-10.08 -10.91,-14.55 -3.92,-4.48 -7.93,-8.4 -12.04,-11.76 -4.1,-3.36 -8.58,-6.34 -13.43,-8.96 -4.85,-2.61 -10.08,-4.66 -15.67,-6.15 -3.74,-1.12 -7.84,-2.06 -12.32,-2.8 -4.48,-0.75 -9.14,-1.31 -13.99,-1.68 -8.21,0.37 -16.14,1.4 -23.79,3.08 -7.65,1.68 -14.84,4.01 -21.55,6.99 -8.21,3.36 -15.77,7.65 -22.68,12.88 -6.9,5.22 -13.34,11.38 -19.31,18.47 -5.97,7.09 -11.1,14.74 -15.39,22.95 -4.29,8.21 -7.93,17.17 -10.92,26.87 -2.98,9.7 -5.22,20.15 -6.71,31.35 -1.5,11.19 -2.24,22.95 -2.24,35.26 0,13.06 0.74,25.47 2.24,37.23 1.49,11.75 3.54,22.67 6.15,32.74 2.99,10.08 6.53,19.41 10.64,27.99 4.1,8.59 9.14,16.61 15.11,24.07 5.6,7.09 11.76,13.44 18.48,19.04 6.71,5.59 13.99,10.07 21.83,13.43 6.34,2.98 13.15,5.32 20.43,7 7.27,1.68 15.02,2.7 23.23,3.08 5.22,-0.38 10.45,-1.03 15.67,-1.96 5.23,-0.94 10.26,-2.15 15.12,-3.64 6.34,-2.24 12.5,-5.04 18.47,-8.4 5.97,-3.36 11.57,-7.28 16.79,-11.75 5.23,-4.11 9.89,-8.87 14,-14.28 4.1,-5.41 7.83,-11.29 11.19,-17.63 3.36,-6.34 6.34,-13.25 8.96,-20.71 2.61,-7.47 4.66,-15.49 6.15,-24.07l22.4 0zm111.38 139.94l0 0 0 0 0 -289.96 22.4 0 49.26 0 0 289.96 -22.4 0 -49.26 0zm0 -343.7l0 0 0 0 0 -56.54 22.4 0 49.26 0 0 56.54 -22.4 0 -49.26 0zm357.14 237.9l0 0 0 0 48.14 7.28c-1.49,8.21 -3.36,16.05 -5.6,23.51 -2.24,7.46 -5.04,14.37 -8.4,20.71 -3.35,6.35 -7.27,12.32 -11.75,17.91 -4.48,5.6 -9.33,10.64 -14.56,15.12 -5.22,4.85 -10.82,8.96 -16.79,12.31 -5.97,3.36 -12.31,6.16 -19.03,8.4 -6.72,1.87 -13.81,3.36 -21.27,4.48 -7.47,1.12 -15.3,1.68 -23.51,1.68l-22.39 0.56c-10.45,-0.38 -20.25,-1.4 -29.39,-3.08 -9.14,-1.68 -17.63,-3.83 -25.47,-6.44 -8.21,-2.98 -15.77,-6.9 -22.67,-11.75 -6.9,-4.86 -13.34,-10.64 -19.31,-17.36 -5.97,-6.34 -11.11,-13.43 -15.4,-21.27 -4.29,-7.83 -7.93,-16.42 -10.91,-25.75 -2.99,-9.33 -5.23,-19.31 -6.72,-29.95 -1.49,-10.63 -2.24,-21.73 -2.24,-33.3 0,-11.94 0.75,-23.23 2.24,-33.87 1.49,-10.63 3.73,-20.62 6.72,-29.95 2.98,-9.32 6.62,-18 10.91,-26.02 4.29,-8.03 9.43,-15.4 15.4,-22.12 5.97,-6.71 12.41,-12.59 19.31,-17.63 6.9,-5.04 14.46,-9.23 22.67,-12.59 8.21,-3.36 16.89,-5.97 26.03,-7.84 9.14,-1.87 18.94,-2.8 29.39,-2.8l22.39 0c5.22,0 10.26,0.28 15.11,0.84 4.85,0.56 9.7,1.4 14.56,2.52 4.85,1.12 9.51,2.43 13.99,3.92 4.48,1.49 8.96,3.17 13.43,5.04 4.11,1.86 8.12,3.91 12.04,6.15 3.92,2.24 7.56,4.86 10.91,7.84 3.36,2.61 6.54,5.6 9.52,8.96 2.99,3.36 5.79,6.71 8.4,10.07l1.68 2.8 1.68 2.24 0.56 1.12 1.12 1.12 0 1.68 1.11 1.12c0.38,0.75 0.75,1.49 1.12,2.24 0.38,0.74 0.75,1.3 1.12,1.68 0,0.74 0.19,1.4 0.56,1.96 0.38,0.56 0.75,1.21 1.12,1.96 0.75,1.11 1.4,2.33 1.96,3.63 0.56,1.31 1.03,2.71 1.4,4.2 0.37,1.49 0.75,2.89 1.12,4.2 0.37,1.31 0.75,2.89 1.12,4.76 0.37,0.74 0.65,1.58 0.84,2.52 0.19,0.93 0.28,1.77 0.28,2.52 0.37,1.12 0.65,2.14 0.84,3.08 0.19,0.93 0.28,1.77 0.28,2.51l-48.14 8.96 -22.39 0c-1.49,-4.85 -3.08,-9.33 -4.76,-13.43 -1.68,-4.11 -3.45,-8.03 -5.32,-11.76 -1.86,-3.73 -3.92,-7.09 -6.15,-10.08 -2.24,-2.98 -4.67,-5.78 -7.28,-8.39 -2.61,-2.61 -5.6,-4.85 -8.96,-6.72 -3.36,-1.86 -6.71,-3.36 -10.07,-4.48 -2.24,-0.74 -4.48,-1.4 -6.72,-1.96 -2.24,-0.56 -4.48,-1.02 -6.72,-1.4 -4.1,0.38 -8.21,1.22 -12.31,2.52 -4.11,1.31 -7.84,2.71 -11.2,4.2 -4.85,2.61 -9.51,5.69 -13.99,9.24 -4.48,3.54 -8.59,7.74 -12.32,12.59 -3.73,4.85 -6.9,10.17 -9.51,15.96 -2.62,5.78 -4.86,12.03 -6.72,18.75 -1.49,7.09 -2.71,14.55 -3.64,22.39 -0.93,7.84 -1.4,16.05 -1.4,24.63 0,8.96 0.47,17.45 1.4,25.47 0.93,8.02 2.15,15.39 3.64,22.11 1.86,7.09 4.01,13.53 6.44,19.31 2.42,5.79 5.5,11.1 9.23,15.96 3.36,4.85 7.19,9.04 11.48,12.59 4.29,3.55 8.86,6.44 13.71,8.68 3.73,1.49 7.47,2.8 11.2,3.91 3.73,1.12 7.83,2.06 12.31,2.8 0.75,0 1.5,-0.09 2.24,-0.28 0.75,-0.18 1.49,-0.46 2.24,-0.84 0.75,0 1.49,-0.09 2.24,-0.28 0.75,-0.18 1.49,-0.28 2.24,-0.28 2.98,-0.74 6.06,-1.86 9.24,-3.35 3.17,-1.5 6.25,-3.18 9.23,-5.04 2.99,-1.87 5.69,-3.73 8.12,-5.6 2.42,-1.87 4.76,-3.92 7,-6.16 2.23,-2.24 4.19,-4.76 5.87,-7.55 1.68,-2.8 3.27,-5.7 4.76,-8.68l1.12 -2.24 1.12 -2.24 0 -1.12 1.12 -1.12 0 -0.56 0.56 -1.12c0.37,-0.74 0.65,-1.58 0.84,-2.52 0.19,-0.93 0.47,-1.77 0.84,-2.52 0.37,-0.74 0.65,-1.58 0.84,-2.51 0.18,-0.94 0.46,-1.78 0.84,-2.52 0.37,-0.75 0.65,-1.68 0.84,-2.8 0.18,-1.12 0.28,-2.43 0.28,-3.92 0,-0.75 0,-1.4 0,-1.96 0,-0.56 0.18,-1.21 0.56,-1.96 0,-1.12 0,-2.05 0,-2.8 0,-0.74 0,-1.68 0,-2.8l22.39 0zm89.57 105.8l0 0 0 0 0 -400.24 22.39 0 49.26 0 0 400.24 -22.4 0 -49.25 0zm129.3 -143.86c0,-7.84 0.28,-15.3 0.84,-22.39 0.56,-7.09 1.4,-14 2.52,-20.71 1.12,-6.72 2.61,-13.06 4.48,-19.04 1.86,-5.97 4.1,-11.56 6.72,-16.79 2.61,-5.22 5.5,-10.26 8.67,-15.11 3.17,-4.85 6.63,-9.52 10.36,-14 3.73,-4.1 7.83,-8.02 12.31,-11.75 4.48,-3.73 9.15,-7.28 14,-10.64 2.98,-1.86 5.87,-3.45 8.67,-4.76 2.8,-1.3 5.69,-2.7 8.68,-4.19 2.99,-1.5 5.97,-2.8 8.96,-3.92 2.98,-1.12 6.15,-2.05 9.51,-2.8 2.99,-0.75 6.16,-1.49 9.52,-2.24 3.36,-0.75 6.72,-1.31 10.07,-1.68 3.36,-0.75 6.72,-1.21 10.08,-1.4 3.36,-0.19 6.9,-0.28 10.64,-0.28l22.39 0c10.45,0 20.34,0.84 29.66,2.52 9.33,1.68 18.1,4.2 26.31,7.56 8.21,3.36 15.96,7.55 23.23,12.59 7.28,5.04 13.91,10.92 19.88,17.63 6.34,6.72 11.75,14 16.23,21.84 4.48,7.83 8.21,16.23 11.19,25.19 2.99,8.95 5.32,18.47 7,28.54 1.68,10.08 2.52,20.72 2.52,31.91 0,8.58 -0.37,16.79 -1.12,24.63 -0.74,7.84 -1.68,15.11 -2.8,21.83 -1.12,7.09 -2.61,13.72 -4.48,19.87 -1.86,6.16 -3.91,11.85 -6.15,17.08 -2.62,5.22 -5.41,10.26 -8.4,15.11 -2.99,4.85 -6.53,9.52 -10.64,13.99 -3.73,4.48 -7.83,8.59 -12.31,12.32 -4.48,3.73 -9.33,7.09 -14.55,10.08 -1.5,0.74 -2.99,1.58 -4.48,2.51 -1.5,0.94 -2.8,1.78 -3.92,2.52 -1.49,0.75 -2.99,1.4 -4.48,1.96 -1.49,0.56 -2.98,1.22 -4.48,1.96 -2.98,1.12 -6.06,2.05 -9.23,2.8 -3.18,0.75 -6.25,1.31 -9.24,1.68 -1.49,0.37 -3.08,0.75 -4.76,1.12 -1.68,0.37 -3.45,0.75 -5.32,1.12 -1.49,0.37 -3.07,0.65 -4.75,0.84 -1.68,0.19 -3.27,0.46 -4.76,0.84 -0.75,0 -1.59,0 -2.52,0 -0.93,0 -1.77,0.18 -2.52,0.56 -0.75,0 -1.59,0 -2.52,0 -0.93,0 -1.77,0 -2.52,0 -0.74,0 -1.58,0 -2.52,0 -0.93,0 -1.77,0.18 -2.52,0.56 -0.74,0 -1.58,0 -2.51,0 -0.94,0 -1.78,0 -2.52,0l-22.39 0.56c-7.47,-0.38 -14.74,-1.03 -21.83,-1.96 -7.1,-0.93 -13.81,-2.33 -20.16,-4.2 -6.71,-1.12 -13.15,-3.08 -19.31,-5.88 -6.16,-2.8 -12.22,-6.06 -18.19,-9.79 -5.97,-3.74 -11.29,-7.84 -15.95,-12.32 -4.67,-4.48 -9.05,-9.14 -13.16,-13.99 -3.73,-5.23 -7.18,-10.73 -10.36,-16.52 -3.17,-5.78 -5.69,-11.84 -7.55,-18.19 -0.75,-2.24 -1.49,-4.66 -2.24,-7.28 -0.75,-2.61 -1.49,-5.22 -2.24,-7.83 -0.37,-2.61 -0.84,-5.32 -1.4,-8.12 -0.56,-2.8 -1.03,-5.69 -1.4,-8.68 -0.37,-2.98 -0.75,-5.87 -1.12,-8.67 -0.37,-2.8 -0.56,-5.69 -0.56,-8.68 -0.37,-2.98 -0.56,-5.97 -0.56,-8.95 0,-2.99 0,-5.98 0,-8.96zm72.77 -1.12l0 0 0 1.12c0,8.58 0.47,16.79 1.4,24.63 0.93,7.84 2.33,15.11 4.2,21.83 1.87,7.09 4.29,13.53 7.28,19.31 2.98,5.79 6.34,11.1 10.07,15.96 3.73,4.85 7.84,9.23 12.32,13.15 4.48,3.92 9.33,7 14.55,9.24 3.73,1.49 7.56,2.8 11.48,3.91 3.92,1.12 8.11,2.06 12.59,2.8 4.48,-0.74 8.77,-1.68 12.88,-2.8 4.1,-1.11 8.02,-2.42 11.75,-3.91 5.23,-2.24 10.08,-5.32 14.56,-9.24 4.47,-3.92 8.58,-8.3 12.31,-13.15 3.73,-5.23 7,-10.73 9.8,-16.52 2.8,-5.78 5.13,-12.22 6.99,-19.31 1.87,-6.72 3.36,-14.09 4.48,-22.11 1.12,-8.02 1.68,-16.51 1.68,-25.47 0,-8.58 -0.56,-16.51 -1.68,-23.79 -1.12,-7.28 -2.61,-14.27 -4.48,-20.99 -1.86,-6.72 -4.19,-12.97 -6.99,-18.75 -2.8,-5.79 -6.07,-11.11 -9.8,-15.96 -3.73,-4.85 -7.84,-9.05 -12.31,-12.59 -4.48,-3.55 -9.33,-6.63 -14.56,-9.24 -3.73,-1.86 -7.65,-3.45 -11.75,-4.76 -4.11,-1.3 -8.21,-2.14 -12.32,-2.52 -4.48,0.38 -8.77,1.22 -12.87,2.52 -4.11,1.31 -8.03,2.9 -11.76,4.76 -5.22,2.61 -10.07,5.69 -14.55,9.24 -4.48,3.54 -8.59,7.74 -12.32,12.59 -3.73,4.85 -7.09,10.26 -10.07,16.24 -2.99,5.97 -5.41,12.31 -7.28,19.03 -1.87,6.72 -3.27,13.81 -4.2,21.27 -0.93,7.46 -1.4,15.3 -1.4,23.51z"/>
  <path class="fil6" d="M4421.36 3229.88l0 0 0 0 48.7 -6.72 22.39 0c0.75,4.85 1.87,9.42 3.36,13.71 1.5,4.29 3.36,8.31 5.6,12.04 1.87,3.73 4.11,7.18 6.72,10.35 2.61,3.18 5.41,6.07 8.39,8.68 2.99,2.61 6.35,4.94 10.08,7 3.73,2.05 7.65,3.64 11.76,4.75 2.98,0.75 5.97,1.4 8.95,1.96 2.99,0.56 6.35,1.03 10.08,1.4 2.61,0 5.13,-0.28 7.55,-0.84 2.43,-0.56 4.95,-1.02 7.56,-1.4 4.11,-1.12 7.93,-2.42 11.48,-3.91 3.54,-1.5 6.81,-3.36 9.79,-5.6 2.99,-1.87 5.69,-4.11 8.12,-6.72 2.42,-2.61 4.38,-5.22 5.88,-7.84 1.49,-2.98 2.61,-5.97 3.36,-8.95 0.74,-2.99 1.11,-6.35 1.11,-10.08 0,-2.61 -0.28,-5.04 -0.83,-7.27 -0.56,-2.24 -1.22,-4.3 -1.96,-6.16 -1.12,-1.87 -2.34,-3.64 -3.64,-5.32 -1.31,-1.68 -2.89,-3.27 -4.76,-4.76 -1.87,-1.49 -4.11,-2.89 -6.72,-4.2 -2.61,-1.3 -5.41,-2.7 -8.39,-4.19 -3.36,-1.12 -6.91,-2.43 -10.64,-3.92 -3.73,-1.5 -7.65,-2.99 -11.76,-4.48l-32.46 -7.28c-0.75,0 -1.49,-0.09 -2.24,-0.28 -0.75,-0.18 -1.49,-0.46 -2.24,-0.84l-3.36 -1.12 -3.92 -0.56 -3.36 -1.12c-1.12,-0.37 -2.23,-0.65 -3.35,-0.84 -1.12,-0.18 -2.24,-0.46 -3.36,-0.84 -1.12,-0.37 -2.24,-0.74 -3.36,-1.12 -1.12,-0.37 -2.05,-0.74 -2.8,-1.12 -2.24,-0.74 -4.29,-1.39 -6.16,-1.95 -1.86,-0.56 -3.73,-1.03 -5.6,-1.4 -1.86,-0.75 -3.63,-1.4 -5.31,-1.96 -1.68,-0.56 -3.27,-1.22 -4.76,-1.96 -1.49,-0.75 -2.99,-1.4 -4.48,-1.96 -1.49,-0.56 -2.99,-1.21 -4.48,-1.96 -1.49,-0.75 -2.89,-1.49 -4.2,-2.24 -1.3,-0.75 -2.52,-1.49 -3.63,-2.24 -2.62,-1.49 -5.14,-3.08 -7.56,-4.76 -2.43,-1.68 -4.76,-3.64 -7,-5.87 -2.24,-2.24 -4.2,-4.67 -5.88,-7.28 -1.68,-2.61 -3.26,-5.23 -4.75,-7.84 -1.5,-2.98 -2.9,-5.88 -4.2,-8.67 -1.31,-2.8 -2.33,-5.7 -3.08,-8.68 -0.75,-2.99 -1.31,-6.16 -1.68,-9.52 -0.37,-3.36 -0.56,-6.71 -0.56,-10.07 0,-6.35 0.56,-12.32 1.68,-17.92 1.12,-5.59 2.98,-10.82 5.6,-15.67 2.24,-5.22 5.31,-10.07 9.23,-14.55 3.92,-4.48 8.31,-8.59 13.16,-12.32 4.85,-3.73 10.07,-7 15.67,-9.79 5.6,-2.8 11.57,-5.14 17.91,-7 6.35,-1.87 13.16,-3.36 20.44,-4.48 7.27,-1.12 15.02,-1.68 23.23,-1.68l22.39 0c6.34,0 12.5,0.28 18.47,0.84 5.97,0.56 11.75,1.4 17.35,2.52 5.6,1.12 10.92,2.52 15.96,4.2 5.03,1.68 9.79,3.45 14.27,5.32 4.48,2.24 8.68,4.57 12.59,6.99 3.92,2.43 7.56,5.13 10.92,8.12 3.36,2.99 6.34,6.16 8.96,9.52 2.61,3.35 4.85,7.09 6.71,11.19l0.56 2.24 1.12 1.68 0 1.12 1.12 0.56 0 1.12 1.12 1.12c0.37,0.74 0.65,1.58 0.84,2.52 0.19,0.93 0.47,1.77 0.84,2.52 0.37,0.74 0.65,1.58 0.84,2.52 0.19,0.93 0.47,1.77 0.84,2.51 0.37,1.12 0.65,2.24 0.84,3.36 0.19,1.12 0.28,2.24 0.28,3.36 0,0.37 0,0.93 0,1.68 0,0.75 0.19,1.31 0.56,1.68 0,0.75 0.09,1.4 0.28,1.96 0.19,0.56 0.28,1.21 0.28,1.96l-48.14 7.28 -22.39 0c-0.37,-4.11 -1.12,-7.84 -2.24,-11.2 -1.12,-3.36 -2.61,-6.53 -4.48,-9.52 -1.49,-2.98 -3.36,-5.69 -5.6,-8.11 -2.24,-2.43 -4.66,-4.57 -7.27,-6.44 -2.62,-1.87 -5.51,-3.55 -8.68,-5.04 -3.17,-1.49 -6.62,-2.8 -10.36,-3.92 -2.23,-0.74 -4.47,-1.21 -6.71,-1.4 -2.24,-0.18 -4.67,-0.46 -7.28,-0.84 -2.61,0.38 -5.13,0.66 -7.56,0.84 -2.42,0.19 -4.75,0.66 -6.99,1.4 -3.74,0.75 -7.19,1.68 -10.36,2.8 -3.17,1.12 -6.25,2.61 -9.24,4.48 -2.61,1.49 -5.03,3.27 -7.27,5.32 -2.24,2.05 -4.11,4.2 -5.6,6.44 -1.49,2.23 -2.52,4.57 -3.08,6.99 -0.56,2.43 -0.84,5.13 -0.84,8.12 0,1.49 0,3.08 0,4.76 0,1.68 0.19,3.26 0.56,4.76 0.37,1.49 0.84,2.79 1.4,3.91 0.56,1.12 1.03,2.06 1.4,2.8 0.75,1.12 1.49,2.15 2.24,3.08 0.74,0.93 1.68,1.77 2.8,2.52 1.12,1.12 2.52,2.15 4.2,3.08 1.68,0.93 3.45,1.77 5.31,2.52 0.75,0.37 1.4,0.65 1.96,0.84 0.56,0.18 1.22,0.46 1.96,0.84 0.75,0.37 1.49,0.74 2.24,1.12 0.75,0.37 1.68,0.56 2.8,0.56 0.75,0.37 1.49,0.74 2.24,1.12 0.75,0.37 1.68,0.74 2.8,1.12 0.74,0.37 1.68,0.65 2.8,0.84 1.12,0.18 2.24,0.46 3.36,0.84 1.11,0.37 2.14,0.74 3.07,1.11 0.94,0.38 1.96,0.56 3.08,0.56 1.12,0.38 2.34,0.75 3.64,1.12 1.31,0.38 2.52,0.75 3.64,1.12 2.61,0.38 5.32,1.03 8.12,1.96 2.8,0.94 5.69,1.78 8.67,2.52 3.73,1.12 7.28,2.24 10.64,3.36 3.36,1.12 6.53,2.05 9.51,2.8 2.99,0.75 5.88,1.4 8.68,1.96 2.8,0.56 5.51,1.21 8.12,1.96 1.12,0.37 2.24,0.74 3.36,1.12 1.12,0.37 2.24,0.74 3.35,1.12 0.75,0.37 1.68,0.74 2.8,1.12 1.12,0.37 2.24,0.74 3.36,1.12 1.87,0.37 3.83,0.84 5.88,1.4 2.05,0.55 3.83,1.21 5.32,1.95l2.24 1.12 3.36 1.12 2.23 1.12 3.36 1.12c3.73,1.5 7.28,3.17 10.64,5.04 3.36,1.87 6.34,3.92 8.96,6.16 2.98,2.24 5.59,4.57 7.83,7 2.24,2.42 4.29,5.13 6.16,8.11 1.87,2.99 3.45,6.16 4.76,9.52 1.3,3.36 2.52,6.72 3.64,10.07 0.74,3.36 1.4,6.91 1.96,10.64 0.55,3.73 0.83,7.65 0.83,11.75 0,7.09 -0.65,13.72 -1.95,19.88 -1.31,6.15 -3.46,11.84 -6.44,17.07 -2.61,5.6 -6.07,10.82 -10.36,15.67 -4.29,4.85 -9.05,9.33 -14.27,13.44 -5.6,4.1 -11.48,7.65 -17.63,10.63 -6.16,2.99 -12.79,5.41 -19.88,7.28 -7.09,1.49 -14.46,2.8 -22.11,3.92 -7.65,1.12 -15.76,1.68 -24.35,1.68l-22.39 0.56c-9.33,-0.38 -18,-1.03 -26.03,-1.96 -8.02,-0.93 -15.76,-2.33 -23.23,-4.2 -7.09,-1.12 -13.62,-2.99 -19.59,-5.6 -5.97,-2.61 -11.57,-5.78 -16.79,-9.51 -4.85,-3.74 -9.43,-7.93 -13.72,-12.6 -4.29,-4.66 -7.93,-9.98 -10.91,-15.95 -3.36,-5.97 -6.16,-12.5 -8.4,-19.59 -2.24,-7.09 -4.1,-14.74 -5.6,-22.95z"/>
 </g>
</svg>
