<?xml version="1.0" encoding="UTF-8"?>
<!DOCTYPE svg PUBLIC "-//W3C//DTD SVG 1.1//EN" "http://www.w3.org/Graphics/SVG/1.1/DTD/svg11.dtd">
<!-- Creator: CorelDRAW 2017 -->
<svg xmlns="http://www.w3.org/2000/svg" xml:space="preserve" width="50.7998mm" height="33.8666mm" version="1.1" style="shape-rendering:geometricPrecision; text-rendering:geometricPrecision; image-rendering:optimizeQuality; fill-rule:evenodd; clip-rule:evenodd"
viewBox="0 0 5079.98 3386.66"
 xmlns:xlink="http://www.w3.org/1999/xlink">
 <defs>
  <style type="text/css">
   <![CDATA[
    .fil10 {fill:#0777BA}
    .fil7 {fill:#0859A7}
    .fil3 {fill:#125C8C}
    .fil14 {fill:#164A78}
    .fil4 {fill:#165B96}
    .fil16 {fill:#176498}
    .fil27 {fill:#185887}
    .fil35 {fill:#255A86}
    .fil42 {fill:#275777}
    .fil26 {fill:#4E97CB}
    .fil30 {fill:#6A96A9}
    .fil9 {fill:#6AAAD8}
    .fil40 {fill:#86AAC7}
    .fil45 {fill:#98C7E7}
    .fil8 {fill:#A8C7D9}
    .fil31 {fill:#CD792A}
    .fil32 {fill:#D7C751}
    .fil23 {fill:#D8C933}
    .fil24 {fill:#D8E6E9}
    .fil29 {fill:#DC9958}
    .fil2 {fill:#E6D7B7}
    .fil43 {fill:#E7B88C}
    .fil37 {fill:#E7D997}
    .fil36 {fill:#E7D9C7}
    .fil0 {fill:#E9D887}
    .fil15 {fill:#EA9927}
    .fil33 {fill:#ECEB93}
    .fil5 {fill:#ECF3F4}
    .fil39 {fill:#EDEDAD}
    .fil25 {fill:#EFCA8D}
    .fil20 {fill:#F5CF0A}
    .fil38 {fill:#F5E64F}
    .fil19 {fill:#F5FBF4}
    .fil11 {fill:#F69926}
    .fil34 {fill:#F6E72F}
    .fil28 {fill:#F7D687}
    .fil22 {fill:#F8C33A}
    .fil13 {fill:#F8C349}
    .fil12 {fill:#F8C558}
    .fil21 {fill:#F8C867}
    .fil1 {fill:#F8DB97}
    .fil17 {fill:#F9B838}
    .fil41 {fill:#F9EBD7}
    .fil6 {fill:#F9FAF4}
    .fil44 {fill:#FAC916}
    .fil46 {fill:#FAE8C7}
    .fil18 {fill:#FAFAFA}
   ]]>
  </style>
 </defs>
 <g id="Capa_x0020_1">
  <metadata id="CorelCorpID_0Corel-Layer"/>
  <g id="_1806705337680">
   <g>
    <path class="fil0" d="M2103.32 1461.59c27.53,50.86 87.21,80.5 129.63,122.11 1.63,1.6 5.47,9.84 6.65,7.67 1.24,-2.28 4.61,5.41 6.92,8.1l43.81 26.32c70.38,2.26 18.41,5.96 38.22,-21.93l-68.55 -57.67c-25.34,-33.92 9.4,14.39 -9.54,-31.64l-22.93 -43.99c-47.51,-50.73 -100.35,-174.77 -123.44,-200.2 -3.24,45.16 -16.88,56.41 -0.04,87.12 28.6,52.15 34.21,31.96 41.17,89.29 -23.93,24.25 36.54,31.11 -41.9,14.82z"/>
    <path class="fil0" d="M1932.26 1008.13c44.95,-14.94 12.84,-7.2 24.68,4.23l-1.07 54.11 113.23 -241.91 0.17 -20.8c-53.76,40.75 -123.7,121.3 -137.01,204.37z"/>
    <path class="fil0" d="M2087.11 639.51c84.77,-5.59 22.97,-7.8 44.79,20.62l-41.04 39.59 27.1 -4.64 164.45 -117.13c-10.15,-6.67 3.44,-7.73 -22.01,-8.99l-173.29 70.55z"/>
   </g>
   <g>
    <path class="fil1" d="M2673.74 1203.24c8.27,-23.86 13.01,-177.52 3.61,-208.49 -32.44,-106.81 -183.86,-54.8 -131.75,193.37 15.4,73.32 105.61,80.12 128.14,15.12z"/>
    <path class="fil1" d="M2244.44 1370.53l-12.76 -49.33c-77.68,-67.95 -48.12,-286.7 47.48,-411.6 18.31,-23.91 17.25,-23.2 33.66,-49.27 45.09,-71.66 200.41,-121.22 313.71,-120.07 102.96,1.05 198.64,7.32 273.17,77.59 16.5,3.31 7.12,1 21.26,7.37 21.24,9.56 -8.99,-2.68 28.16,14.05 -19.42,-44.95 -10.37,-31.5 -48.96,-55.06 -110.47,-67.45 -102.74,-68.77 -238.24,-70.69 -197.64,-2.81 -182.73,5.09 -320.29,84.57 -110.88,64.05 -201.22,247.08 -169.82,422.5 10.28,57.45 26.92,122.5 72.63,149.94z"/>
   </g>
   <g>
    <path class="fil2" d="M1979.47 565.54c-49.28,57.84 -99.39,46.82 -198.16,186.3 -24.31,-9.18 -26.49,29.75 -14.93,-31.3 -42.15,39.83 -111.63,204.08 -112.99,235.67 -2.83,65.48 -3.95,26.58 15.04,49.93 16.48,-51.23 20.63,-83 53.4,-125.13l58.55 -64.61c0.84,-0.42 5.54,2.24 19.71,-3.64 6.42,-65.21 18.05,-82.17 73.33,-132.08 13.61,-12.29 8.64,-9.74 26.45,-21.67 21.31,-14.27 28.15,-12.51 50.72,-29.21 71.02,-52.57 25.65,-63.97 224.38,-121.71 -34.96,57.89 -64.89,35.91 -109.72,89.24 63.82,-18.15 164.63,-79.26 219,-93.77 74.74,-19.95 170.49,-18.91 234.1,-33.53 28.82,-6.61 13.02,-1.31 26.24,-9.49 -144.96,-64.64 -471.11,31.6 -565.12,105z"/>
    <path class="fil2" d="M2061.24 1124.34c3.42,27.12 5.53,58.8 11.95,78.25 8.37,25.3 3.25,11.14 10.8,22.85 14.58,22.62 15.88,19.16 25.98,29.63 -18.62,-181.45 -6.95,-210.18 50.05,-332.8 11.57,-24.9 8.02,-30.12 24.27,-56.66 17.76,-28.98 46.29,-49.89 73.42,-81.61l84.46 -69.74c136.4,-85.98 234.82,-65.93 386.23,-65.93 -18.8,-19.47 -0.61,-8.95 -32.04,-17.55 -1.51,-0.42 -30.56,-4.02 -33.53,-4.31 -150.11,-14.4 -287.29,22.3 -401.74,114.54 -163.2,131.51 -162.15,290.95 -186.58,362.41 -13.44,39.31 11.58,0.7 -13.27,20.92z"/>
    <path class="fil2" d="M1947.21 789.22c58.21,-24.94 5.03,-3.39 33.6,-22.14 13.76,-9.03 -4.76,-8.1 32.55,-15.43 -14.61,20.86 -7.89,16.78 -18.68,40.78l31.84 -4.04c9.36,-43.77 3.61,-29.75 29.76,-52.4 26.07,-22.58 9.04,-3.72 34.58,-36.27l41.04 -39.59c-21.82,-28.42 39.98,-26.21 -44.79,-20.62 -38.92,53.25 -107.97,59.87 -139.9,149.71z"/>
   </g>
   <g>
    <path class="fil3" d="M1855.57 3020.05c-62.62,-636.05 151.52,-506.33 168.04,-384.41 9.62,71.02 6.59,295.23 1.48,372.1 -9.57,143.97 -157.43,135.14 -169.52,12.31zm208.58 -93.93c-0.14,-148.23 31.79,-388.42 -79.14,-427.3 -189.67,-66.46 -169.65,191.4 -169.5,262.93 0.25,122.4 -27.41,316.62 58.13,377.64 59.37,42.36 126.92,14.16 156.08,-23.38 37.58,-48.35 34.48,-120.36 34.43,-189.89z"/>
    <path class="fil3" d="M2133.54 2505.43c-46.23,13.22 -29.49,1.05 -28.52,150.65l-0.23 498.2c41.25,0.12 81.88,-0.02 123.12,0.86 96.27,2.03 79.5,-10 88.62,-29.42 -29.7,-35.48 -73.05,-18.35 -172.18,-20.32 -3.22,-100.74 17.67,-550.62 -10.81,-599.97z"/>
   </g>
   <g>
    <path class="fil4" d="M3134.47 3101.25l-0.55 -547.7c200.34,-10.34 169.88,88.65 169.49,266.9 -0.39,181.07 44.38,299.75 -168.94,280.8zm-39.25 50.42c280.91,11.29 251.01,-70.21 248.19,-331.21 -3.29,-304 -21.45,-319.78 -247.92,-317.82l-0.27 649.03z"/>
    <path class="fil4" d="M3503.04 2633.57l48.11 253.35 -101.03 -2.15 52.92 -251.2zm-124.97 519.51c36.73,-24.67 46.44,-139.08 61.09,-213.35l127.45 -1.86c5.92,51.78 20.76,197.62 69.76,214.91 24.44,-42.9 -91.7,-496.16 -107.07,-577.1 -7.77,-40.91 -1.27,-55.66 -33.82,-70.21 -31.2,82.34 -50.49,224.29 -71.43,314.68l-50.76 242.9c-1.4,5.95 -8.47,38.16 -8.54,40.59 -1.78,63.79 -7.42,23.91 13.32,49.44z"/>
    <path class="fil4" d="M2767.55 3145.89l46.72 7.3c34.53,-56.14 53.69,-254 70.1,-334.79 11.58,-56.99 19.94,-109.6 31.55,-167.44 23.86,-118.86 43.6,-127.58 4.26,-148.92 -36.91,23.88 -58.45,224.99 -67.81,275.04 -18.21,97.31 -34.24,189.42 -55.59,285.55 -17.42,-95.74 -42.44,-183.13 -61.04,-280.63l-39.34 -218.13c-9.43,-47.58 -2.63,-45.07 -34.52,-61.53 -16.49,22.57 -14.78,28.16 -6.14,76.82l111.81 566.73z"/>
   </g>
   <g>
    <path class="fil5" d="M3317.36 460.48c31.95,19.32 71.06,89.12 86.13,131.58 103.21,151.49 149.17,446.29 111.1,671.21 -20.2,119.29 -52.04,213.47 -101.08,311.59 -34.65,69.33 -122.19,198.15 -170.89,233.3 0.03,0.03 -5.61,22.97 34.83,-13.75 264.91,-240.53 373.65,-618.53 310.43,-983.47 1.06,-100.16 -79.15,-277.09 -123.93,-353.6 -31.27,-53.44 -58.49,-92.15 -95.85,-139.73 -47.93,-61.04 -66.84,-79.35 -113.46,-127.11l-207.03 0c23.85,24.45 49.2,39.59 79.62,63.26 29.75,23.16 48.58,44.5 67.78,61.49 57.57,50.94 96.15,90.06 122.35,145.23z"/>
    <path class="fil5" d="M3437.97 935.5c-6.9,-159.42 -78.23,-322.78 -150.66,-433.01 -49.23,-75.96 -79.1,-114.07 -133.84,-169.8 -33.63,-34.23 -43.32,-42.71 -80.23,-71.98 -20.13,-15.96 -66.29,-51 -82.54,-70.21l-243.97 0c3.08,2.41 7.92,1.45 9.8,6.48 1.8,4.83 7.04,4.72 9.5,6.12l56.21 27.59c24.1,11.8 43.99,20.65 71.94,34.55 120.74,60.08 254.21,176.73 338.72,293.15 147.59,203.31 184.02,381.15 182.72,665.05 22.69,-106.08 25.07,-172.96 22.35,-287.94z"/>
    <polygon class="fil5" points="3450.12,2884.77 3551.15,2886.92 3503.04,2633.57 "/>
   </g>
   <path class="fil6" d="M2949.12 839.27c23.84,28.62 39.41,40.08 60.53,85.18l45.17 109.47c27.33,15.87 6.68,-3.93 21.09,22.96 11.03,20.56 4.84,4.88 9.64,27.65 25.2,119.76 -42.58,316.42 -148.28,389.73 -64.57,44.78 -113.83,78.16 -202.65,102.91 -62.01,17.27 -222.2,24.82 -272.28,-34.18 -23.39,-11.29 -52.73,-22.7 -73.38,-33.91 -15.94,-8.64 -20.68,-10.84 -35.82,-23.2 -34.19,-27.91 -15.96,-7.38 -36.22,-39.99 -22.66,-7.45 0.4,5.43 -20.22,-10.89 -11.19,-8.85 -13.9,-12.66 -22.73,-23.49 -10.11,-12.38 -23.72,-32.63 -29.53,-40.98 -45.71,-27.44 -62.35,-92.49 -72.63,-149.94 -31.4,-175.42 58.94,-358.45 169.82,-422.5 137.56,-79.48 122.65,-87.38 320.29,-84.57 135.5,1.92 127.77,3.24 238.24,70.69 38.59,23.56 29.54,10.11 48.96,55.06zm-1532.9 -273.53c-4.95,48.42 -38.83,122.89 -52.06,179.74 -46.79,201 -36.2,247.1 -11.72,421.22 9.34,66.4 33.06,145.28 35.35,199.48 15.13,15.38 3.54,-0.06 16.02,21.86 37.29,65.54 102.05,256.04 198.78,332.82 42.69,8.55 41.35,12.17 73.91,41.79l118.86 103.26c17.39,12.97 23.02,11.84 37.69,22.53 32.68,23.8 16.23,10.91 24.98,32.6 47.17,1.22 129.65,53.1 193.32,69.46 4.58,-12.8 1.61,-10.76 1.4,-16.08 -1.53,-37.9 -15.88,23.72 -1.4,-7.95l56.38 21.3c66.04,1.31 127.64,29.66 201.94,34.07 229.11,13.6 290.97,-59.01 387.79,-90.37 13.85,-4.48 33.69,-9.32 45.13,-13.97l125.4 -67.03c39.81,-25.02 110.77,-111.01 142.26,-149.14 27.18,-32.91 82.61,-109.84 94.19,-151.09 0.89,-3.15 1.35,-6.41 2.19,-9.6l9.99 -36.43c73.7,-235.76 39.56,-74 46.24,-332.29 2.92,-54.79 -63.39,-208.45 -87.86,-255.57 -14.3,-27.53 -52.9,-73.18 -74.43,-101.01 -31.02,-40.09 -67.56,-53.91 -85.37,-101.19l-6.82 4.01c-53.37,-20.27 -104.2,-65.84 -179.98,-69.83 -151.41,0 -249.83,-20.05 -386.23,65.93l-84.46 69.74c-27.13,31.72 -55.66,52.63 -73.42,81.61 -16.25,26.54 -12.7,31.76 -24.27,56.66 -57,122.62 -68.67,151.35 -50.05,332.8l-5.88 15.29c23.09,25.43 75.93,149.47 123.44,200.2 43.41,17.23 78.57,62.47 127.38,93.64 66.09,9.34 113.51,31.78 172.19,44.7 58.59,12.9 153.45,-8.13 205.09,13.98 -15.55,32.22 20.34,9.75 -42.02,26.13l-180.42 44.62c-75.86,-1.2 -61.28,1.58 -121.89,-20.66 -65.1,-23.9 -51.74,-0.24 -97.53,-47.18l-43.81 -26.32c-73.26,-15.76 -32.68,-13.16 -45.95,21.69l103.51 65.28c-36.07,14.24 -54.4,-3.92 -76.44,-17.25 -19.73,-11.93 -62.94,-36.41 -80.36,-48.76 -166.85,-118.31 -259.5,-470.87 -186.35,-543.72l-5.06 -10.24 1.07 -54.11c-11.84,-11.43 20.27,-19.17 -24.68,-4.23l-18.06 92.81c3.9,319.52 -31.55,90.85 44.24,365.4 11.8,42.74 29.66,64.66 34.17,108.19 -102.7,-93.04 -165.69,-346.05 -136.01,-457.04l19.35 -43c-1.29,-61.44 28.13,-110.87 48.34,-153.75 7.67,-16.28 63.57,-120.19 70.39,-128.31 10.79,-24 4.07,-19.92 18.68,-40.78 -37.31,7.33 -18.79,6.4 -32.55,15.43 -28.57,18.75 24.61,-2.8 -33.6,22.14 -128.5,94.37 -182.27,345.14 -181.37,526.27 -48.71,-122.3 5.33,-331.52 56.95,-440.3 28.78,-60.68 122.82,-175.79 173.92,-223.26 20.61,-19.13 51.27,-33.63 68.54,-54.6 44.83,-53.33 74.76,-31.35 109.72,-89.24 -198.73,57.74 -153.36,69.14 -224.38,121.71 -22.57,16.7 -29.41,14.94 -50.72,29.21 -17.81,11.93 -12.84,9.38 -26.45,21.67 -55.28,49.91 -66.91,66.87 -73.33,132.08 -14.17,5.88 -18.87,3.22 -19.71,3.64l-58.55 64.61c-32.77,42.13 -36.92,73.9 -53.4,125.13 -18.99,-23.35 -17.87,15.55 -15.04,-49.93 1.36,-31.59 70.84,-195.84 112.99,-235.67 31.5,-28.52 58.29,-69.79 91.84,-101.91 105.11,-100.6 226.66,-173.76 369.17,-203.84 75.36,-30.41 272.02,-24.56 364.23,-14.11 191.39,21.67 257.99,107.99 279.55,65.97 -31.63,-11.63 -105.18,-50.28 -133.63,-70.7 -87.78,-16.67 -141.88,-51.79 -248.51,-65 -202.17,-25.03 -330.6,-0.14 -514.77,76.47 -72.42,30.12 -125.18,82.04 -184.19,113.58 59.56,-113.25 357.18,-232.92 519.01,-247.54 159.56,-14.42 532.27,34.59 614.45,155.65 62.02,12.46 195.41,156.98 232.29,206.54 31.02,41.67 64.33,92.48 83.92,139.19 14.88,35.46 54.7,143.36 58.72,173.6 2.49,-255.81 -288.28,-594.71 -557.01,-694.54 -47.71,-17.73 -108.94,-33.57 -137.93,-63.4l-938.66 0c-37.94,61.21 -91.23,105.85 -137.34,179.71 -19.44,31.13 -37.31,62.76 -54.4,98.11l-56.9 97.42z"/>
   <path class="fil7" d="M1377.92 563.52c-116.38,192.77 -152.64,539.79 -97.48,808.89 26.53,129.41 75.79,245.78 134.12,347.15 46.19,80.3 154.35,235.42 210.43,269.97 15.47,-22.68 -28.42,-23.4 29.73,-16.31 18.75,27.21 51.73,56.86 86.4,79.68 50.51,33.23 -7.06,-24.28 30.69,27.55 20.83,28.58 17.28,28.02 53.06,40.06 73.38,24.7 50.6,53.18 142.21,81.85 35.44,11.08 30.09,-0.41 60.07,12.52 24.07,10.38 68.64,47.44 172.83,72.24 31.42,7.48 48.33,7.12 75.1,14.8 196.8,56.44 594.2,8.59 743.18,-68.49 105,-54.33 154.56,-60.68 275,-156.35l176.27 -160.74c1.56,-1.77 3.69,-4.52 5.24,-6.34l39.59 -44.55c-57.81,22.39 -391.75,470.66 -1001.02,398.8l-4.04 -9.78c-77.43,5.46 -334.27,-66.63 -410.82,-90.64 -109.65,-34.39 -238.69,-124.19 -319.45,-186.69 -114.46,-88.58 -108.44,-95.42 -161.08,-140.48 -82.62,-70.71 -223.97,-344.55 -230.16,-470.48 -2.29,-54.2 -26.01,-133.08 -35.35,-199.48 -24.48,-174.12 -35.07,-220.22 11.72,-421.22 13.23,-56.85 47.11,-131.32 52.06,-179.74l-9.26 -20.96c-10.3,29.32 3.99,15.13 -29.04,18.74z"/>
   <path class="fil8" d="M3298.46 948.44c41.53,59.58 9.23,296.68 -5.09,368.22 -11.72,58.59 -38.25,106.61 -56.74,155.01l-60.29 129.54 -66.18 93.99c-38.48,43.76 6.96,-9.87 -22.04,24.35 -48.92,57.72 -95.02,92.59 -154.65,138.27l-20.89 15.11c-2.27,1.52 -5.21,3.36 -7.52,4.84 -119.89,76.77 -182.63,84.44 -303.18,130.08 -96.29,36.45 -407.98,41.95 -494.15,-20.08l-56.38 -21.3c-14.48,31.67 -0.13,-29.95 1.4,7.95 0.21,5.32 3.18,3.28 -1.4,16.08 -63.67,-16.36 -146.15,-68.24 -193.32,-69.46 1.7,2.22 4.52,2.76 5.4,6.42 8.44,35.24 217.28,104.88 247.39,111.97 86.57,20.4 230.68,32.56 327.33,27.78 232.9,-11.5 501.52,-124.2 650.59,-252.08 31.38,-26.91 57.79,-65.45 89.71,-97.88 83.69,-85.05 171.1,-223.01 212.57,-330.79 18.59,-48.3 31.51,-88.36 50.98,-133.66 24.08,-56.06 54.49,-273.54 -4.03,-317.3 2.72,114.98 0.34,181.86 -22.35,287.94 1.3,-283.9 -35.13,-461.74 -182.72,-665.05 -84.51,-116.42 -217.98,-233.07 -338.72,-293.15 -27.95,-13.9 -47.84,-22.75 -71.94,-34.55l-56.21 -27.59c-2.46,-1.4 -7.7,-1.29 -9.5,-6.12 -1.88,-5.03 -6.72,-4.07 -9.8,-6.48l-143.21 0c28.99,29.83 90.22,45.67 137.93,63.4 268.73,99.83 559.5,438.73 557.01,694.54z"/>
   <path class="fil9" d="M3287.31 502.49c72.43,110.23 143.76,273.59 150.66,433.01 58.52,43.76 28.11,261.24 4.03,317.3 -19.47,45.3 -32.39,85.36 -50.98,133.66 -41.47,107.78 -128.88,245.74 -212.57,330.79 -31.92,32.43 -58.33,70.97 -89.71,97.88 -149.07,127.88 -417.69,240.58 -650.59,252.08 -96.65,4.78 -240.76,-7.38 -327.33,-27.78 -30.11,-7.09 -238.95,-76.73 -247.39,-111.97 -0.88,-3.66 -3.7,-4.2 -5.4,-6.42l-48.38 -5.75c64.55,81.86 302.07,162.85 421.33,187.23 282.33,57.72 511.55,13.14 762.43,-98.92 190.29,-85 303.07,-147.43 425.16,-316.55 25.49,-35.3 41.19,-67.3 71.05,-88.76 8.7,-82.8 145.5,-197 135.92,-574.19 -0.96,-38.01 -1.84,-79.76 -4.67,-117.42 -2.77,-36.8 -5.38,-69.4 -32.99,-95.74 63.22,364.94 -45.52,742.94 -310.43,983.47 -40.44,36.72 -34.8,13.78 -34.83,13.75 -39.72,17.56 -64.72,48.78 -103.56,75.85 9.59,-45.7 18.61,-46.07 47.53,-76.92 166.53,-177.58 194.37,-249.89 275.09,-490.3 28.05,-83.54 47.34,-311.78 28.66,-407.08 -8.01,-40.83 -28.15,-132.24 -39.86,-178.39 -23.8,-93.73 -62.56,-113.18 -46.99,-139.26 -15.07,-42.46 -54.18,-112.26 -86.13,-131.58 -30.2,-8.09 -5.77,-11.91 -29.89,-0.03l-0.16 42.04z"/>
   <path class="fil10" d="M2509.3 2254.47c26.06,-35.24 -3.65,-6.1 33.34,-23.44 19.11,-8.96 21.23,-8.38 41.41,-11.32 29.69,-4.34 46.79,-5.8 76.32,-2.45l60.27 -6.08c5.56,-74.42 -15.14,-15.51 242.76,-113.87 86.74,-33.08 207.21,-108.75 278.73,-177.36l26.02 -22.05c64,-50.4 79.73,-86.73 134.4,-143.97l28.03 -30.03c19.68,-25.23 50.44,-86.41 59.04,-125.61 -29.86,21.46 -45.56,53.46 -71.05,88.76 -122.09,169.12 -234.87,231.55 -425.16,316.55 -250.88,112.06 -480.1,156.64 -762.43,98.92 -119.26,-24.38 -356.78,-105.37 -421.33,-187.23 -62.96,-30.87 -179.86,-131.71 -207.06,-194.43 -96.73,-76.78 -161.49,-267.28 -198.78,-332.82 -12.48,-21.92 -0.89,-6.48 -16.02,-21.86 6.19,125.93 147.54,399.77 230.16,470.48 52.64,45.06 46.62,51.9 161.08,140.48 80.76,62.5 209.8,152.3 319.45,186.69 76.55,24.01 333.39,96.1 410.82,90.64z"/>
   <path class="fil11" d="M2228.7 1082.74c-0.65,51.84 -17.83,53.87 -12.97,115.59 2.77,35.06 12.72,75.18 15.95,122.87l12.76 49.33c5.81,8.35 19.42,28.6 29.53,40.98 8.83,10.83 11.54,14.64 22.73,23.49 20.62,16.32 -2.44,3.44 20.22,10.89 81.78,-0.81 213.36,135.38 418.36,50.99 62.05,-25.55 72.77,-16.21 132.7,-58.16 36.35,-25.44 54.37,-45.02 85.19,-88.82 136.76,-194.38 67.84,-312.73 56.48,-425.45 -43.3,-10.48 -17.58,19.25 -42.51,-20.08 -50.07,29.11 36.02,-21.71 -18.77,18.33 -25.39,18.55 21.59,0.79 -17.99,10.33 -59.74,14.39 27.23,-8.25 -38.32,-7.79 -26.14,116.34 14.93,232.47 -88.36,415.55l-69.3 85.25c-5.96,8.92 -7.62,14.28 -13.82,23.37 -82.12,6.9 -189.43,24.88 -239.83,-21.13l-146.57 -122.4c-5.44,-56.49 -15.15,-80.39 -29.78,-117.41 -0.73,-0.11 -1.58,0.67 -1.7,1.44 -0.27,1.83 -3.46,2.2 -5.1,2.22 -0.44,0.01 -3.25,0.39 -3.81,0.31 -64.43,-8.66 -42.13,-49.01 -41.36,-47.28 0.03,0.07 31.49,-21.43 22,-86.91l-45.73 24.49z"/>
   <path class="fil12" d="M2729.07 1235.38l8.25 -3.6c1.62,37.94 -62.66,244.65 -215.38,108.08l-42.71 -36.16c-8.64,-11.28 -19.13,-44.83 -27.44,-67.07 -46.61,-124.86 -21.54,-186.27 -14.92,-329.94 57.64,-23.23 9.71,-17.46 53.59,-39.59 1.45,-0.72 31.55,-9.67 32.45,-9.8 55.09,-7.63 136.86,-4.82 204.25,32.25 98.97,54.46 46.31,293.53 38.49,307.57 -15.97,28.68 -7.87,20.32 -36.58,38.26zm-497.39 85.82c-3.23,-47.69 -13.18,-87.81 -15.95,-122.87 -4.86,-61.72 12.32,-63.75 12.97,-115.59 9.35,-66.38 10.56,-84.88 80.95,-86.12l13.03 29.59c0.95,3.16 1.8,6.78 2.74,10.24l24.62 74.6c25.05,68.56 85.22,209.03 133.67,255.54 87.64,84.11 142.42,52.72 240.09,23.92 41.07,-156.41 44.43,-8.6 72.71,-135.17 15.43,-69.04 19.11,-119.97 19.73,-196 1.89,-231.21 -3.48,-127.21 -29.81,-185.27 -47.8,-105.43 58.52,-61.76 113.27,-56.22 -74.53,-70.27 -170.21,-76.54 -273.17,-77.59 -113.3,-1.15 -268.62,48.41 -313.71,120.07 -16.41,26.07 -15.35,25.36 -33.66,49.27 -95.6,124.9 -125.16,343.65 -47.48,411.6z"/>
   <path class="fil13" d="M2227.39 414.79c-18.68,21.14 1.73,5.09 -25,20.59l-50.48 22.01c-32.54,16.82 -167.53,58.88 -181.12,90.01 -9.37,21.45 -22.24,0.94 8.68,18.14 94.01,-73.4 420.16,-169.64 565.12,-105 -13.22,8.18 2.58,2.88 -26.24,9.49 -63.61,14.62 -159.36,13.58 -234.1,33.53 -54.37,14.51 -155.18,75.62 -219,93.77 -17.27,20.97 -47.93,35.47 -68.54,54.6 -51.1,47.47 -145.14,162.58 -173.92,223.26 -51.62,108.78 -105.66,318 -56.95,440.3 -0.9,-181.13 52.87,-431.9 181.37,-526.27 31.93,-89.84 100.98,-96.46 139.9,-149.71l173.29 -70.55c25.45,1.26 11.86,2.32 22.01,8.99l-164.45 117.13c36.28,-9.64 29.25,-12.09 71.33,-27.31 54.01,-19.54 25.59,-1.83 58.13,-34.81 38.53,-39.05 75.91,-67.01 131.84,-68.51 -20.88,-19.33 -17.04,-6.32 -21.33,-44.85 116.11,-10.06 92.74,-37.67 287.54,-10.33 139.21,19.54 31.94,-31.66 166.11,35.94 22.44,11.31 29.43,17 62.65,16.51 45.5,19.64 27.32,14.78 81.17,16.17 72.65,0 6.27,4.62 28.95,-24.42 -17.85,-18.32 -27.54,-32.24 -47.07,-52.3 -13.4,-13.77 -7.04,-11.68 -26.36,-21.86 -31.09,-16.38 2.81,-3.61 -39.75,-12.66 -21.56,42.02 -88.16,-44.3 -279.55,-65.97 -92.21,-10.45 -288.87,-16.3 -364.23,14.11z"/>
   <path class="fil14" d="M3756.27 1371.14c-9.59,94.36 -59.71,201.57 -98.88,272.27 -26.46,47.75 -41.3,71.42 -71.73,116.85 -28.99,43.29 -54.76,69.25 -71.3,105.19l-39.59 44.55c-1.55,1.82 -3.68,4.57 -5.24,6.34l-176.27 160.74c-120.44,95.67 -170,102.02 -275,156.35 -148.98,77.08 -546.38,124.93 -743.18,68.49 -26.77,-7.68 -43.68,-7.32 -75.1,-14.8 -104.19,-24.8 -148.76,-61.86 -172.83,-72.24 -29.98,-12.93 -24.63,-1.44 -60.07,-12.52 -91.61,-28.67 -68.83,-57.15 -142.21,-81.85 -35.78,-12.04 -32.23,-11.48 -53.06,-40.06 -37.75,-51.83 19.82,5.68 -30.69,-27.55 -34.67,-22.82 -67.65,-52.47 -86.4,-79.68 -58.15,-7.09 -14.26,-6.37 -29.73,16.31 140.7,175.82 480.35,326.49 734.66,360.97 776.17,105.24 1469.42,-477.2 1465.15,-1256.07 -1.34,-245.14 -57.21,-304.85 -88.52,-452.67 3.62,40.46 24.67,101.35 34.44,154.52 11.17,60.77 20.86,124.17 23.54,192.48 2.71,69.18 0.35,141.03 -8.04,209.75 -6.7,54.77 -31.02,124.45 -29.95,172.63z"/>
   <path class="fil15" d="M2737.54 395.95c28.45,20.42 102,59.07 133.63,70.7 42.56,9.05 8.66,-3.72 39.75,12.66 19.32,10.18 12.96,8.09 26.36,21.86 19.53,20.06 29.22,33.98 47.07,52.3l143.74 202.76c41.64,91.7 69.39,151.84 91.19,248.85 31.13,138.55 8.61,496.42 -91.72,572.63l-5.79 42.83c32.58,-10.23 29.36,-7.32 54.57,-19.33l60.29 -129.54c18.49,-48.4 45.02,-96.42 56.74,-155.01 14.32,-71.54 46.62,-308.64 5.09,-368.22 -4.02,-30.24 -43.84,-138.14 -58.72,-173.6 -19.59,-46.71 -52.9,-97.52 -83.92,-139.19 -36.88,-49.56 -170.27,-194.08 -232.29,-206.54 -74.94,-6.86 -105.74,-56.62 -202.41,-76.83l16.42 43.67z"/>
   <path class="fil16" d="M3587.88 810.94c27.61,26.34 30.22,58.94 32.99,95.74 2.83,37.66 3.71,79.41 4.67,117.42 9.58,377.19 -127.22,491.39 -135.92,574.19 -8.6,39.2 -39.36,100.38 -59.04,125.61l-28.03 30.03c-54.67,57.24 -70.4,93.57 -134.4,143.97l-26.02 22.05c-71.52,68.61 -191.99,144.28 -278.73,177.36 -257.9,98.36 -237.2,39.45 -242.76,113.87 522.06,-70.31 1037.17,-630.69 941.48,-1266.84 -0.12,-137.8 -79.17,-333.28 -135.57,-432.62 -38.09,-67.08 -72.53,-116.16 -114.66,-167.33 -43.92,-53.33 -120.85,-117.54 -143.31,-153.89l-13.94 0c46.62,47.76 65.53,66.07 113.46,127.11 37.36,47.58 64.58,86.29 95.85,139.73 44.78,76.51 124.99,253.44 123.93,353.6z"/>
   <path class="fil17" d="M2228.7 1082.74l45.73 -24.49c9.49,65.48 -21.97,86.98 -22,86.91 -0.77,-1.73 -23.07,38.62 41.36,47.28 0.56,0.08 3.37,-0.3 3.81,-0.31 1.64,-0.02 4.83,-0.39 5.1,-2.22 0.12,-0.77 0.97,-1.55 1.7,-1.44 14.63,37.02 24.34,60.92 29.78,117.41l146.57 122.4c50.4,46.01 157.71,28.03 239.83,21.13 6.2,-9.09 7.86,-14.45 13.82,-23.37l69.3 -85.25c103.29,-183.08 62.22,-299.21 88.36,-415.55 65.55,-0.46 -21.42,22.18 38.32,7.79 39.58,-9.54 -7.4,8.22 17.99,-10.33 54.79,-40.04 -31.3,10.78 18.77,-18.33 24.93,39.33 -0.79,9.6 42.51,20.08 -21.12,-45.1 -36.69,-56.56 -60.53,-85.18 -37.15,-16.73 -6.92,-4.49 -28.16,-14.05 -14.14,-6.37 -4.76,-4.06 -21.26,-7.37 -54.75,-5.54 -161.07,-49.21 -113.27,56.22 26.33,58.06 31.7,-45.94 29.81,185.27 -0.62,76.03 -4.3,126.96 -19.73,196 -28.28,126.57 -31.64,-21.24 -72.71,135.17 -97.67,28.8 -152.45,60.19 -240.09,-23.92 -48.45,-46.51 -108.62,-186.98 -133.67,-255.54l-24.62 -74.6c-0.94,-3.46 -1.79,-7.08 -2.74,-10.24l-13.03 -29.59c-70.39,1.24 -71.6,19.74 -80.95,86.12z"/>
   <path class="fil18" d="M1855.57 3020.05c12.09,122.83 159.95,131.66 169.52,-12.31 5.11,-76.87 8.14,-301.08 -1.48,-372.1 -16.52,-121.92 -230.66,-251.64 -168.04,384.41z"/>
   <path class="fil19" d="M3134.47 3101.25c213.32,18.95 168.55,-99.73 168.94,-280.8 0.39,-178.25 30.85,-277.24 -169.49,-266.9l0.55 547.7z"/>
   <path class="fil20" d="M2117.96 695.08l12.99 58.04c2.77,11.07 -10.08,33.72 26.07,69.87 10.93,-22.47 34.24,-53.26 53.54,-75.02l73.72 -66.8c32.26,-25.94 151.92,-71.73 202.24,-80.66 75.9,-13.48 235.85,3.6 298.08,22.24 22.6,6.77 -3.13,-2.1 24.92,10.29 2.57,1.13 5.5,2.83 8.03,3.98 93.89,42.84 81.54,31.37 90.83,81.14l6.82 -4.01 46.69 -1.75c11.44,24.22 16.91,42.98 38.79,58.21 9.91,-13.57 17.79,-20.07 27.89,-28.29 -9.27,-116.72 -33.63,-30.84 -120.28,-129.67 -36.57,-41.71 -22.09,16.42 -34.06,-50.93 -33.22,0.49 -40.21,-5.2 -62.65,-16.51 -134.17,-67.6 -26.9,-16.4 -166.11,-35.94 -194.8,-27.34 -171.43,0.27 -287.54,10.33 4.29,38.53 0.45,25.52 21.33,44.85 -55.93,1.5 -93.31,29.46 -131.84,68.51 -32.54,32.98 -4.12,15.27 -58.13,34.81 -42.08,15.22 -35.05,17.67 -71.33,27.31z"/>
   <path class="fil21" d="M2737.32 1231.78c-47.28,2.27 -32.57,17.63 -60.03,55.23 -14.29,19.57 -34.37,42.63 -50.64,53.74 -46.25,-12.53 -120.89,-94.77 -135.59,-146.56 -18.69,-65.9 -5.5,-203.87 24.02,-244.47 2.35,-3.24 17.81,-17.56 19.11,-18.6 54.94,-43.81 127.23,-44.94 175.4,21.71 44.54,61.63 19.68,185.86 19.48,282.55 28.71,-17.94 20.61,-9.58 36.58,-38.26 7.82,-14.04 60.48,-253.11 -38.49,-307.57 -67.39,-37.07 -149.16,-39.88 -204.25,-32.25 -0.9,0.13 -31,9.08 -32.45,9.8 -43.88,22.13 4.05,16.36 -53.59,39.59 -6.62,143.67 -31.69,205.08 14.92,329.94 8.31,22.24 18.8,55.79 27.44,67.07l42.71 36.16c152.72,136.57 217,-70.14 215.38,-108.08z"/>
   <path class="fil22" d="M3196.26 1035.64c5.59,33.03 -2.44,40.22 -16.73,68.32 -20.4,-69.64 -42.21,-124.1 -66.55,-173.71 -41.13,-83.81 -86.51,-111.21 -99.28,-152.47 97.6,-11.71 13.45,1.22 87.59,50.87 56.42,37.79 9.12,14.74 45.93,100.65l49.04 106.34zm-322.03 -473.92c11.97,67.35 -2.51,9.22 34.06,50.93 86.65,98.83 111.01,12.95 120.28,129.67 -10.1,8.22 -17.98,14.72 -27.89,28.29 -21.88,-15.23 -27.35,-33.99 -38.79,-58.21l-46.69 1.75c17.81,47.28 54.35,61.1 85.37,101.19 21.53,27.83 60.13,73.48 74.43,101.01 24.47,47.12 90.78,200.78 87.86,255.57l10.47 19.19c20.88,55.17 21.02,207.22 3.02,254.08l-48.79 132.52c100.33,-76.21 122.85,-434.08 91.72,-572.63 -21.8,-97.01 -49.55,-157.15 -91.19,-248.85l-143.74 -202.76c-22.68,29.04 43.7,24.42 -28.95,24.42 -53.85,-1.39 -35.67,3.47 -81.17,-16.17z"/>
   <path class="fil23" d="M2117.96 695.08l-27.1 4.64c-25.54,32.55 -8.51,13.69 -34.58,36.27 -26.15,22.65 -20.4,8.63 -29.76,52.4l-31.84 4.04c-6.82,8.12 -62.72,112.03 -70.39,128.31 -20.21,42.88 -49.63,92.31 -48.34,153.75l-1.82 61.9 40.07 -35.45 18.06 -92.81c13.31,-83.07 83.25,-163.62 137.01,-204.37l-0.17 20.8 62.96 -6.48c-10.66,48.25 -95.83,164.53 -70.82,306.26 24.85,-20.22 -0.17,18.39 13.27,-20.92 24.43,-71.46 23.38,-230.9 186.58,-362.41 114.45,-92.24 251.63,-128.94 401.74,-114.54 2.97,0.29 32.02,3.89 33.53,4.31 31.43,8.6 13.24,-1.92 32.04,17.55 75.78,3.99 126.61,49.56 179.98,69.83 -9.29,-49.77 3.06,-38.3 -90.83,-81.14 -2.53,-1.15 -5.46,-2.85 -8.03,-3.98 -28.05,-12.39 -2.32,-3.52 -24.92,-10.29 -62.23,-18.64 -222.18,-35.72 -298.08,-22.24 -50.32,8.93 -169.98,54.72 -202.24,80.66l-73.72 66.8c-19.3,21.76 -42.61,52.55 -53.54,75.02 -36.15,-36.15 -23.3,-58.8 -26.07,-69.87l-12.99 -58.04z"/>
   <path class="fil24" d="M3662.12 944.34c95.69,636.15 -419.42,1196.53 -941.48,1266.84l-60.27 6.08c68.6,45.81 359.06,-48.34 430.94,-81.41 1.38,-0.63 23.67,-11.95 24.36,-12.41 29.49,-19.74 12.23,-5.24 27.33,-25.23 -24.45,0.27 2.88,-25.08 -34.97,6.11 0.61,11.44 57.61,-34.58 84.8,-54.32 171.85,-124.72 329.74,-285.1 405.65,-489.42 19.52,-52.55 38.85,-82.73 43.62,-100.94 9.29,-35.47 17.85,-76.9 23.69,-130.78l11.54 46.34c8.12,-76.65 46.21,-406.62 -10.87,-475.83l-4.34 44.97z"/>
   <path class="fil25" d="M2107.73 1987.77c86.17,62.03 397.86,56.53 494.15,20.08 120.55,-45.64 183.29,-53.31 303.18,-130.08 2.31,-1.48 5.25,-3.32 7.52,-4.84l20.89 -15.11c59.63,-45.68 105.73,-80.55 154.65,-138.27 29,-34.22 -16.44,19.41 22.04,-24.35l66.18 -93.99c-25.21,12.01 -21.99,9.1 -54.57,19.33l5.79 -42.83 48.79 -132.52c18,-46.86 17.86,-198.91 -3.02,-254.08l-10.47 -19.19c-6.68,258.29 27.46,96.53 -46.24,332.29l-9.99 36.43c-0.84,3.19 -1.3,6.45 -2.19,9.6 -11.58,41.25 -67.01,118.18 -94.19,151.09 -31.49,38.13 -102.45,124.12 -142.26,149.14l-125.4 67.03c-11.44,4.65 -31.28,9.49 -45.13,13.97 -96.82,31.36 -158.68,103.97 -387.79,90.37 -74.3,-4.41 -135.9,-32.76 -201.94,-34.07z"/>
   <path class="fil26" d="M3143 2098.21c-15.1,19.99 2.16,5.49 -27.33,25.23 -0.69,0.46 -22.98,11.78 -24.36,12.41 -71.88,33.07 -362.34,127.22 -430.94,81.41 -29.53,-3.35 -46.63,-1.89 -76.32,2.45 -20.18,2.94 -22.3,2.36 -41.41,11.32 -36.99,17.34 -7.28,-11.8 -33.34,23.44l4.04 9.78c609.27,71.86 943.21,-376.41 1001.02,-398.8 16.54,-35.94 42.31,-61.9 71.3,-105.19 30.43,-45.43 45.27,-69.1 71.73,-116.85 39.17,-70.7 89.29,-177.91 98.88,-272.27l-31.64 59.32c-55.39,150.56 -104.91,252.09 -208.92,376.31 -58.85,70.3 -265.81,275.53 -372.71,291.44z"/>
   <path class="fil27" d="M1511.27 3011.04c-31.34,37.28 0.95,102.77 33.33,128.68 136.75,109.41 305.42,-89.9 199.4,-258.15 -48.67,-77.25 -171.28,-100.53 -199.3,-177 -18.32,-50.01 0.89,-113.03 31.31,-136.37 43.34,-33.26 93.75,-4.8 141.11,-9.68 1.74,-36.36 -0.97,-42.87 -32.26,-53.32 -163.91,-54.71 -293.03,199.27 -71.33,330.77 46.34,27.48 84.34,42.27 104.05,83.63 40.52,85.06 1.01,233 -128.96,187.01 -76.91,-27.22 -25.84,-74.26 -77.35,-95.57z"/>
   <path class="fil28" d="M2673.74 1203.24c-22.53,65 -112.74,58.2 -128.14,-15.12 -52.11,-248.17 99.31,-300.18 131.75,-193.37 9.4,30.97 4.66,184.63 -3.61,208.49zm63.58 28.54l-8.25 3.6c0.2,-96.69 25.06,-220.92 -19.48,-282.55 -48.17,-66.65 -120.46,-65.52 -175.4,-21.71 -1.3,1.04 -16.76,15.36 -19.11,18.6 -29.52,40.6 -42.71,178.57 -24.02,244.47 14.7,51.79 89.34,134.03 135.59,146.56 16.27,-11.11 36.35,-34.17 50.64,-53.74 27.46,-37.6 12.75,-52.96 60.03,-55.23z"/>
   <path class="fil29" d="M2737.54 395.95l-16.42 -43.67c96.67,20.21 127.47,69.97 202.41,76.83 -82.18,-121.06 -454.89,-170.07 -614.45,-155.65 -161.83,14.62 -459.45,134.29 -519.01,247.54 59.01,-31.54 111.77,-83.46 184.19,-113.58 184.17,-76.61 312.6,-101.5 514.77,-76.47 106.63,13.21 160.73,48.33 248.51,65z"/>
   <path class="fil30" d="M3242.62 1808.16c48.7,-35.15 136.24,-163.97 170.89,-233.3 49.04,-98.12 80.88,-192.3 101.08,-311.59 38.07,-224.92 -7.89,-519.72 -111.1,-671.21 -15.57,26.08 23.19,45.53 46.99,139.26 11.71,46.15 31.85,137.56 39.86,178.39 18.68,95.3 -0.61,323.54 -28.66,407.08 -80.72,240.41 -108.56,312.72 -275.09,490.3 -28.92,30.85 -37.94,31.22 -47.53,76.92 38.84,-27.07 63.84,-58.29 103.56,-75.85z"/>
   <path class="fil31" d="M2316.92 1445.89c20.26,32.61 2.03,12.08 36.22,39.99 15.14,12.36 19.88,14.56 35.82,23.2 20.65,11.21 49.99,22.62 73.38,33.91 206.28,31.47 313.56,21.35 448.09,-82.11 123.58,-95.04 166.25,-236.41 144.39,-426.96l-45.17 -109.47c11.36,112.72 80.28,231.07 -56.48,425.45 -30.82,43.8 -48.84,63.38 -85.19,88.82 -59.93,41.95 -70.65,32.61 -132.7,58.16 -205,84.39 -336.58,-51.8 -418.36,-50.99z"/>
   <path class="fil32" d="M2619.57 3196.17l41.2 0c-1.12,-55.62 -0.12,-109.12 -1.11,-164.4 -2.12,-118.52 19.02,-116.03 -21.26,-144.8 -31.44,25.32 -17.18,-3.65 -23.52,50.24 -4.55,38.61 9.46,140.47 -7.61,169.84 -38.47,49.08 -144.98,59.23 -184.42,-4.81 -33.56,-56.91 19.53,-175.69 -31.01,-215.06 -28.19,17.18 -25.04,-16.17 -25.55,121.25 -0.53,141.84 38.1,224.45 240.07,162.26l13.21 25.48z"/>
   <path class="fil33" d="M2200.57 1621.16l-24.52 -18c-44.55,-31.58 -135.03,-174.24 -140.36,-233.26 23.31,14.78 14.53,3.08 30.24,29.85l-59.38 -213.35c-36.1,46.62 1.59,60.19 -6.74,174.36 -9.55,-14.17 -3.22,0.67 -15.97,-30.93 -1.56,-3.86 -7.58,-24.42 -8.57,-28.39 -5.6,-22.35 -8.62,-42.86 -12.15,-65.95l-2.19 -158.78c-73.15,72.85 19.5,425.41 186.35,543.72 17.42,12.35 60.63,36.83 80.36,48.76 22.04,13.33 40.37,31.49 76.44,17.25l-103.51 -65.28z"/>
   <path class="fil34" d="M2069.1 824.56l-113.23 241.91 5.06 10.24 2.19 158.78c1.89,2.26 6.37,2.64 6.55,5.91 0.11,2.11 3.83,3.91 3.91,4.14 6.76,19.52 1.53,0.54 -2.22,1.64l13.47 -101.47c1.45,-3.19 3.72,-6 5.3,-8.77l14.26 -16.81c22.5,40.83 16.69,68.72 35.22,143.2 29.15,-34.18 12.69,-76.66 14.96,-109.94l6.67 -29.05c-25.01,-141.73 60.16,-258.01 70.82,-306.26l-62.96 6.48z"/>
   <path class="fil35" d="M3045.71 3079.4l-0.01 -574.63 -65.89 -0.69c-4.55,92.59 6.72,9.13 23.09,71.72l3 432.51c-0.13,119.29 -15.89,119.21 19.95,144.99 30.06,-23.11 20.25,-21.71 19.86,-73.9z"/>
   <path class="fil36" d="M2462.34 1542.99c50.08,59 210.27,51.45 272.28,34.18 88.82,-24.75 138.08,-58.13 202.65,-102.91 105.7,-73.31 173.48,-269.97 148.28,-389.73 -4.8,-22.77 1.39,-7.09 -9.64,-27.65 -14.41,-26.89 6.24,-7.09 -21.09,-22.96 21.86,190.55 -20.81,331.92 -144.39,426.96 -134.53,103.46 -241.81,113.58 -448.09,82.11z"/>
   <path class="fil37" d="M1914.2 1100.94l-40.07 35.45 1.82 -61.9 -19.35 43c-29.68,110.99 33.31,364 136.01,457.04 -4.51,-43.53 -22.37,-65.45 -34.17,-108.19 -75.79,-274.55 -40.34,-45.88 -44.24,-365.4z"/>
   <path class="fil38" d="M1963.12 1235.49c3.53,23.09 6.55,43.6 12.15,65.95 0.99,3.97 7.01,24.53 8.57,28.39 12.75,31.6 6.42,16.76 15.97,30.93 8.33,-114.17 -29.36,-127.74 6.74,-174.36l59.38 213.35 37.39 61.84c78.44,16.29 17.97,9.43 41.9,-14.82 -6.96,-57.33 -12.57,-37.14 -41.17,-89.29 -16.84,-30.71 -3.2,-41.96 0.04,-87.12l5.88 -15.29c-10.1,-10.47 -11.4,-7.01 -25.98,-29.63 -7.55,-11.71 -2.43,2.45 -10.8,-22.85 -6.42,-19.45 -8.53,-51.13 -11.95,-78.25l-6.67 29.05c-2.27,33.28 14.19,75.76 -14.96,109.94 -18.53,-74.48 -12.72,-102.37 -35.22,-143.2l-14.26 16.81c-1.58,2.77 -3.85,5.58 -5.3,8.77l-13.47 101.47c3.75,-1.1 8.98,17.88 2.22,-1.64 -0.08,-0.23 -3.8,-2.03 -3.91,-4.14 -0.18,-3.27 -4.66,-3.65 -6.55,-5.91z"/>
   <path class="fil39" d="M2290.33 1625.79c45.79,46.94 32.43,23.28 97.53,47.18 60.61,22.24 46.03,19.46 121.89,20.66 -16.47,-33.22 -45.75,-35.45 -87.82,-47.26 19.07,-15.84 5.57,-3.21 26.53,-13.23l43.27 -22.73c-43.38,-8.91 -106.21,-24.6 -136.82,-46.21 -48.81,-31.17 -83.97,-76.41 -127.38,-93.64l22.93 43.99c18.94,46.03 -15.8,-2.28 9.54,31.64l68.55 57.67c-19.81,27.89 32.16,24.19 -38.22,21.93z"/>
   <path class="fil40" d="M3287.31 502.49l0.16 -42.04c24.12,-11.88 -0.31,-8.06 29.89,0.03 -26.2,-55.17 -64.78,-94.29 -122.35,-145.23 -19.2,-16.99 -38.03,-38.33 -67.78,-61.49 -30.42,-23.67 -55.77,-38.81 -79.62,-63.26l-56.91 0c16.25,19.21 62.41,54.25 82.54,70.21 36.91,29.27 46.6,37.75 80.23,71.98 54.74,55.73 84.61,93.84 133.84,169.8z"/>
   <path class="fil41" d="M2509.75 1693.63l180.42 -44.62c62.36,-16.38 26.47,6.09 42.02,-26.13 -51.64,-22.11 -146.5,-1.08 -205.09,-13.98 -58.68,-12.92 -106.1,-35.36 -172.19,-44.7 30.61,21.61 93.44,37.3 136.82,46.21l-43.27 22.73c-20.96,10.02 -7.46,-2.61 -26.53,13.23 42.07,11.81 71.35,14.04 87.82,47.26z"/>
   <path class="fil42" d="M1377.92 563.52c33.03,-3.61 18.74,10.58 29.04,-18.74l9.26 20.96 56.9 -97.42c17.09,-35.35 34.96,-66.98 54.4,-98.11 46.11,-73.86 99.4,-118.5 137.34,-179.71l-28.37 0c-78.28,79.3 -205.96,241.36 -258.57,373.02z"/>
   <path class="fil43" d="M1766.38 720.54c-11.56,61.05 -9.38,22.12 14.93,31.3 98.77,-139.48 148.88,-128.46 198.16,-186.3 -30.92,-17.2 -18.05,3.31 -8.68,-18.14 13.59,-31.13 148.58,-73.19 181.12,-90.01l50.48 -22.01c26.73,-15.5 6.32,0.55 25,-20.59 -142.51,30.08 -264.06,103.24 -369.17,203.84 -33.55,32.12 -60.34,73.39 -91.84,101.91z"/>
   <path class="fil44" d="M3179.53 1103.96c14.29,-28.1 22.32,-35.29 16.73,-68.32l-49.04 -106.34c-36.81,-85.91 10.49,-62.86 -45.93,-100.65 -74.14,-49.65 10.01,-62.58 -87.59,-50.87 12.77,41.26 58.15,68.66 99.28,152.47 24.34,49.61 46.15,104.07 66.55,173.71z"/>
   <path class="fil45" d="M1809.65 1915.29l48.38 5.75c-8.75,-21.69 7.7,-8.8 -24.98,-32.6 -14.67,-10.69 -20.3,-9.56 -37.69,-22.53l-118.86 -103.26c-32.56,-29.62 -31.22,-33.24 -73.91,-41.79 27.2,62.72 144.1,163.56 207.06,194.43z"/>
   <path class="fil46" d="M2200.57 1621.16c13.27,-34.85 -27.31,-37.45 45.95,-21.69 -2.31,-2.69 -5.68,-10.38 -6.92,-8.1 -1.18,2.17 -5.02,-6.07 -6.65,-7.67 -42.42,-41.61 -102.1,-71.25 -129.63,-122.11l-37.39 -61.84c-15.71,-26.77 -6.93,-15.07 -30.24,-29.85 5.33,59.02 95.81,201.68 140.36,233.26l24.52 18z"/>
  </g>
 </g>
</svg>
