<?xml version="1.0" encoding="UTF-8"?>
<!DOCTYPE svg PUBLIC "-//W3C//DTD SVG 1.1//EN" "http://www.w3.org/Graphics/SVG/1.1/DTD/svg11.dtd">
<!-- Creator: CorelDRAW 2017 -->
<svg xmlns="http://www.w3.org/2000/svg" xml:space="preserve" width="158.75mm" height="105.833mm" version="1.1" style="shape-rendering:geometricPrecision; text-rendering:geometricPrecision; image-rendering:optimizeQuality; fill-rule:evenodd; clip-rule:evenodd"
viewBox="0 0 15874.98 10583.32"
 xmlns:xlink="http://www.w3.org/1999/xlink">
 <defs>
  <style type="text/css">
   <![CDATA[
    .str0 {stroke:#2B2A29;stroke-width:20;stroke-miterlimit:22.9256}
    .fil0 {fill:none}
    .fil3 {fill:#2B2A29}
    .fil1 {fill:#171717}
    .fil2 {fill:#2B2A29;fill-rule:nonzero}
   ]]>
  </style>
 </defs>
 <g id="Capa_x0020_1">
  <metadata id="CorelCorpID_0Corel-Layer"/>
  <rect class="fil0" x="-0.01" y="-0.01" width="15874.99" height="10583.33"/>
  <g id="_1612433059584">
   <path class="fil1" d="M3406.02 3940.47c211.07,350.64 441.17,371.74 632.63,704.03 -159.45,361.25 -538.87,707.71 -607.66,1181.97 -163.48,1127.6 918.97,1461.68 1782.56,1470.12 553.81,5.43 1173.78,-24.36 1717.15,24.49 611.79,870.07 215.21,1890.44 -847.46,1986.01 -1866.33,167.89 -1743.33,-582.06 -2047.79,-1117.85 -177.72,-312.78 -827.24,-347.25 -1232.68,-214.8 82.63,1184.12 853.54,1723.76 1957.43,1935.64 531.84,102.1 1145.89,105.62 1619.5,26.46 1377.98,-230.37 2583.8,-1358.32 1905.14,-2765.73l-415.77 -574.71c-407.66,-336.96 -1202.38,-486.78 -1790.83,-488.53 -2844.49,-8.53 -1216.04,-995.82 -582.68,-947.49 3211.11,244.95 1829.04,-2747.42 2228.36,-3362.99l216.71 -249.66c90.07,-112.8 55.51,-17.57 119.24,-188.64 -20.1,-708.26 -39.65,-713.54 -758.13,-703.53 -726.83,10.11 -2528.88,-217.04 -3208.68,130.17 -1128.21,576.2 -1296.28,2142.83 -687.04,3155.04zm2104.81 -2415.05c592.04,0 1071.99,559.92 1071.99,1250.65 0,690.73 -479.95,1250.66 -1071.99,1250.66 -592.06,0 -1071.99,-559.93 -1071.99,-1250.66 0,-690.73 479.93,-1250.65 1071.99,-1250.65z"/>
   <path class="fil2" d="M9350.56 4482.15l441.91 0c87.71,0 152.79,3.6 195.75,10.8 43.21,7.46 81.53,22.63 115.49,45.53 33.95,23.15 62.25,53.76 84.88,92.08 22.64,38.33 33.95,81.54 33.95,129.13 0,51.44 -13.89,99.03 -41.67,141.98 -27.78,43.22 -65.59,75.37 -113.17,96.98 67.13,19.8 118.58,53.24 154.84,100.57 36.02,47.33 54.02,102.89 54.02,166.94 0,50.41 -11.57,99.28 -34.98,146.87 -23.41,47.59 -55.3,85.66 -95.94,114.21 -40.39,28.29 -90.29,45.78 -149.71,52.47 -37.04,3.86 -126.81,6.43 -269.05,7.46l-376.32 0 0 -1105.02zm223.79 183.65l0 254.65 146.1 0c86.68,0 140.7,-1.28 161.79,-3.86 38.07,-4.37 68.16,-17.49 90.03,-39.35 21.86,-21.87 32.67,-50.42 32.67,-85.91 0,-34.21 -9.52,-61.74 -28.3,-83.09 -18.78,-21.35 -46.81,-34.21 -83.85,-38.58 -22.12,-2.57 -85.66,-3.86 -190.35,-3.86l-128.09 0zm0 438.31l0 296.32 206.8 0c80.26,0 131.44,-2.32 153.05,-6.69 33.18,-6.17 60.19,-20.84 81.02,-44.24 20.84,-23.67 31.38,-54.79 31.38,-94.15 0,-33.43 -7.97,-61.47 -24.17,-84.62 -15.95,-23.15 -39.36,-40.13 -69.71,-50.67 -30.35,-10.55 -96.46,-15.95 -198.06,-15.95l-180.31 0zm1807.47 483.06l-241.02 0 -95.42 -251.56 -443.2 0 -91.83 251.56 -236.64 0 429.05 -1105.02 236.38 0 442.68 1105.02zm-408.98 -438.31l-153.56 -408.98 -149.19 408.98 302.75 0zm449.34 438.31l0 -1105.02 469.95 0c118.06,0 203.97,10.03 257.48,29.83 53.76,19.81 96.45,55.05 128.61,105.72 32.15,50.93 48.35,108.81 48.35,174.14 0,83.08 -24.17,151.5 -72.79,205.52 -48.61,54.02 -121.15,87.97 -217.87,102.12 48.1,28.03 87.72,58.9 118.84,92.6 31.38,33.69 73.57,93.63 126.55,179.54l134.79 215.55 -266.74 0 -159.99 -241.27c-57.36,-85.66 -96.72,-139.68 -118.07,-162.05 -21.09,-22.12 -43.47,-37.56 -67.13,-45.79 -23.92,-8.23 -61.48,-12.35 -112.92,-12.35l-45.27 0 0 461.46 -223.79 0zm223.79 -637.4l165.13 0c107.01,0 173.63,-4.63 200.38,-13.63 26.49,-9 47.58,-24.69 62.5,-46.81 15.18,-22.12 22.64,-49.9 22.64,-83.08 0,-37.3 -10.03,-67.14 -29.84,-90.29 -19.81,-22.89 -47.84,-37.3 -83.85,-43.21 -18.27,-2.58 -72.54,-3.86 -162.82,-3.86l-174.14 0 0 280.88z"/>
   <path class="fil3 str0" d="M10767.81 2738.79c1272.68,0 2304.4,1031.72 2304.4,2304.37 0,1272.68 -1031.72,2304.4 -2304.4,2304.4 -1272.65,0 -2304.38,-1031.72 -2304.38,-2304.4 0,-1272.65 1031.73,-2304.37 2304.38,-2304.37zm0 515.3c988.1,0 1789.1,801.02 1789.1,1789.07 0,988.1 -801,1789.1 -1789.1,1789.1 -988.05,0 -1789.08,-801 -1789.08,-1789.1 0,-988.05 801.03,-1789.07 1789.08,-1789.07z"/>
  </g>
 </g>
</svg>
