<?xml version="1.0" encoding="UTF-8"?>
<!DOCTYPE svg PUBLIC "-//W3C//DTD SVG 1.1//EN" "http://www.w3.org/Graphics/SVG/1.1/DTD/svg11.dtd">
<!-- Creator: CorelDRAW 2017 -->
<svg xmlns="http://www.w3.org/2000/svg" xml:space="preserve" width="50mm" height="30mm" version="1.1" style="shape-rendering:geometricPrecision; text-rendering:geometricPrecision; image-rendering:optimizeQuality; fill-rule:evenodd; clip-rule:evenodd"
viewBox="0 0 5000 3000"
 xmlns:xlink="http://www.w3.org/1999/xlink">
 <defs>
  <style type="text/css">
   <![CDATA[
    .fil4 {fill:none}
    .fil0 {fill:#1F1F1D}
    .fil3 {fill:#424241}
    .fil1 {fill:#626260}
    .fil2 {fill:#858585}
   ]]>
  </style>
 </defs>
 <g id="Capa_x0020_1">
  <metadata id="CorelCorpID_0Corel-Layer"/>
  <g id="_2685605893712">
   <path class="fil0" d="M336.47 1282.44c-8.65,24.25 -0.19,24.63 -18.71,14.27l-28.05 24.89c-29.69,-124.38 -72.98,-311.95 -7.44,-490.57 101.56,-276.78 415.54,-378.62 633.16,-316.75 100.5,28.57 176.63,76.09 242.6,153.8 110.61,130.29 211.23,299.92 396.91,381.09 -52.51,35.81 -84.9,29.57 -146.39,39.56 -517.47,84.06 -275.66,-79.09 -658.32,-50.95 -59.37,4.36 -94.4,20.44 -148.01,45.84 -61.66,29.22 -219.72,121.16 -265.75,198.82zm1783.5 532.63l14.41 11c14.09,-15.99 -3.59,-8.8 21.26,-18.23l14.12 -1.36c15.64,6.59 11.29,8.99 12.47,-8.11l13.2 6.28c16.23,-6.7 6.2,-4.99 23.32,-8.73 19.86,-4.35 1.9,-0.92 25.84,-0.52 55.58,-10.3 112.26,-21.56 152.34,-26.81 62.26,-8.17 140.4,-5.16 221.2,-25.24l46.7 -14.77c54.09,-14.17 46,2.68 97.74,-14.86 29.79,-10.09 27.45,-21.21 69.12,-13.22 -17.48,42.44 -46.47,36.98 -53.73,38.04l-386.16 96c12.68,-5.08 15.23,-6.3 29.56,-9.45l102.91 -24.03c3.11,-1.21 11.78,-5.01 14.99,-6.08l63.29 -9.29c31.49,-24.3 65.93,-23.14 100.26,-24.35 21.89,-4.48 -1.94,-2.71 30.08,-4.95l20.19 0.75c4.8,1.65 6.75,0.81 10.13,1.03l0.71 -10.28 12.62 3.93 43.45 -0.71 -1.24 -6.59c-16.1,48.12 -11.13,4.52 -12.58,45.66l-6.26 34.39c-45.29,5.25 -116.63,18.13 -159.49,26.47 -57.16,11.13 -94.85,17.41 -151.8,27.23 -22.94,10.9 -5.47,4.04 -32.55,11.92 -18.01,5.23 -13.26,3.25 -31.12,6.99 -23.41,4.91 -35.65,8.08 -59.15,11.51 -15.43,3.07 -27.52,6.74 -45.22,9.99 -42.28,7.75 -9.16,10.88 -47.82,0.54 -31.18,20.6 -169.17,54.98 -196.43,63.96l-195.94 67.13c-54.16,16.76 -137.11,41.15 -178.01,77.61 -33.51,38.04 -4.85,14.37 -34.43,16.27 -33.07,3.14 -58.94,29.27 -84.54,62.84 77.76,-2.97 164.68,-103.79 233.79,-98.24 22.67,-12.21 22.48,-13.69 43.05,-23.43l37.56 -15.59c29.55,-11.25 40.77,-11.36 70.08,-20.25 34.54,-10.47 43.85,-20.25 75.29,-32.34l373.02 -87.18c17.08,-15.82 154.11,-37.48 183.92,-42.26 56.18,-9.01 136.82,-34.89 188.1,-32.46l-3.08 54.44c-2.14,11.53 -7.22,30.71 -10.14,44.79 -6.61,31.86 -11,60.7 -16.45,89.69 -12.92,68.61 -37.5,112.45 -19.93,175.04 16.74,59.63 68.05,116.89 139.85,83.01 62.97,-29.73 78.88,-102.21 103.98,-169.09 75.55,17.03 169.68,21.23 256.56,37.8 291.51,55.57 429.58,115.71 736.91,89.6 287.41,-24.42 335.72,-113.65 638.52,-257.28 382.59,-181.48 229.03,-314.04 34.82,-561.58 -279.01,-355.61 -186.23,-464.37 -814.15,-579.01 -194.19,-35.46 -327.29,-73.51 -521.23,-143.71 59.87,-166.83 -158.69,-240.94 -229.24,-64.69l-3.1 14.65c-7.08,45.17 0.69,55.91 -16.35,112.33 -10.79,35.67 -25.34,77.25 -40.99,115.09l-126.32 -26.1 -24.11 9.12 -7.11 -7.51 -21.61 3.03c-93.22,-8.76 -190.77,-11.5 -281.71,-7.96 -23.35,5.19 -8.17,4.24 -45.02,-3.09 -41.4,6.97 -242.63,9.02 -368.47,30.38 -118.33,20.08 -227.39,34.09 -345.08,68.33 -80.31,23.36 -138.39,57.15 -224.51,77.12 -108.45,-76.41 -157.6,-96.29 -246.76,-194.08 -63.41,-69.54 -105.59,-141.28 -166.62,-207.11 -151.04,-162.9 -355.64,-184.19 -512.14,-149.51 -144.89,32.11 -328.49,129.73 -400.76,349.34 -55.84,169.64 -29.89,403.7 27.35,498.11 -143.21,229.79 -172.31,497.08 -74.06,709.08 105.43,227.46 256.73,427.5 535.38,493.21 97.76,23.06 366.51,41.97 439.46,-30.32 -72.82,-9.17 -207.54,24.33 -360.44,9.43 -399.42,-38.93 -666.17,-456.96 -640.1,-828.97 22.94,-327.35 264.28,-508.93 481.28,-601.21 289.35,-123.07 536.48,149.57 688.47,191.6l91.28 -3.06c-73.61,-15.58 -189.45,-65.03 -280.07,-128.24 159.11,-27.49 240.71,2.81 459.38,-83.49 230.76,-91.07 242.62,-70.57 439.26,-123.37 92.15,-24.74 362.7,-38.63 469.91,-45.27 79.59,-4.93 397.95,1.98 488.07,31.76l-26.72 56.45c6.97,52.24 6.16,16.22 -11.41,50.34 -14.81,44.71 -23.38,91.03 -45.64,124.35l-98.81 19.54c-11.36,20.33 -4.41,21.21 -19.53,5.48 -7.69,22.26 -2.28,18.91 -17.58,0.29l-2.84 -3.75c42.31,28.32 16.4,33.66 38.85,5.71 4.64,-16.1 0.46,-13.7 13.81,-2.7l41.26 -11.37c32.64,-1.44 10.52,0.04 39.46,4.71 4.76,54.02 3.1,51.86 -16.27,104.51 -56.25,116.81 -44.22,283.6 -83.51,375.82 6.95,29.91 5.64,15.24 -10.09,18.49l-71.58 14.72c-55.78,33.9 -100.28,9.39 -167.38,15.93 -41.75,10.46 -45.35,18.84 -91.17,14.39 -19.09,15.08 -47.87,23.3 -76.19,22.1l-34.18 16.76c-13.08,-23.5 -5.06,-5.19 6.05,-11.06l-6.59 -19.65 -12.02 12.25c0.28,3.91 -0.69,29.78 0.06,35.42l-176.72 16.65c1.45,2.25 -5.49,3.55 -8.18,5.41l-12.47 8.11 -14.12 1.36c-33.25,-2.16 -41.64,-2.09 -69.03,0.03 -10.46,0.8 -27.72,2.67 -33.12,3.12l-27.4 1.75c-40.92,26.09 -17.56,22.27 -59.44,22.87 9.58,21.38 -25.68,2 19.75,26.14l73.42 -14.05 20.53 -6.51 13.24 5.65 9.45 -1.27 6.4 -9.39 -8.8 -4.92 -7.05 15.58c-44.2,-14.57 3.4,-1.07 -34.23,-5.76 -23.46,-2.92 13.46,6.36 -23.33,-3.11l36.46 -19.48c2.17,-0.85 5.32,-2.38 7.51,-3.06 24.05,-7.42 11.69,-5.29 39.97,-0.36zm1053.87 -1149.21l-32.6 70.82c66.31,-52.36 -13.52,13.62 55.86,-11.52 -22.68,25.55 -35.32,25.23 -19.31,62.96l21.96 -53.25c29.06,68.67 28.51,19.18 29.69,14.16l-15.25 99.79c28.18,-40.45 54.5,-145.18 47.4,-173.8 -6.31,-25.47 -42.94,-28.98 -42.34,-28.56 1.22,0.86 -4.11,-1.87 -6.17,-2.2l-27.63 77.59 -11.61 -55.99zm-21.48 79.28c0.49,-29.15 -6.19,8.53 -6.83,9.44l6.83 -9.44zm78.32 -161.94c129.45,29.5 37.82,166.3 17.01,247.13 -8.2,31.88 -14.58,59.56 -31.41,96.12l-168.37 -32.35c27.92,-94.12 55.29,-339.95 182.77,-310.9zm-260.48 614.76l12.77 -42.61 2.15 -1.17 1.69 -24.32 20.68 -68.85 27.81 -119.53c43.49,-28.2 126.15,5.57 176.12,18.55l-7.51 30.4 -10.33 19.68 -25.74 99.11 -19.96 73.87 2.2 -2.45c-9.86,31.74 -5.36,12.31 -13.77,46.97l-117.04 471.77c-0.43,3.82 -0.66,9.29 -0.85,11.63l-0.69 14.27c-4.64,32.69 2.4,8.8 -10.84,39.62l-8.77 39.21c-55.25,4.24 -96.99,16.65 -153.42,10.41l9.89 -31.91c-4.15,-14.05 -23.14,9.43 13.87,-32.63l-2.37 3.7c4.77,-19.94 -1.84,-18.83 14.66,-12.36l14.98 -6.54 24.7 0.39c31.32,-14.64 4.89,-9.81 35.27,-1.54l3.39 -3.14c8.62,-15.41 2.57,-13.68 18.1,-5.4l12.31 6.49 13.52 -0.81c0.51,-25.99 20.4,-12.92 -22.47,-23.82l-17.7 -2.7 -17.01 -0.64c-4.86,22.5 0.85,21.29 -16.27,6.2l-38.55 8.04c-6.71,15.28 -1.37,14.11 -15.16,6 -0.43,-1.43 -35.33,-6 15.42,-43.33l17.65 -7.73c-51.13,-8.33 -32.37,-25.82 -21.98,-96.61 17.85,-121.54 41.53,-262.6 83.25,-378.22zm737.8 -67.26c8.14,68.3 6.99,28.96 36.67,60.69 1.84,1.96 4.82,11.92 9.16,15.18 20.67,15.54 -11.73,9.95 -15.79,9.52 -7.44,-60.56 -10.46,-19.02 -21.49,-18.75l21.35 28.28c3.38,2.54 3.33,4.88 4.89,7.38l7.46 11.68 5.35 -8.24 -12.81 -3.44 20.26 -8.54 15.45 15.82c-17.25,-58.79 -0.95,-23.45 5.05,-28.23l10.53 73.87c0.39,2.36 0.99,5.71 1.31,8.08l17.37 62.86c2.09,-20.92 -0.05,11.17 0.94,-17.36l-1.54 -42.18c-0.28,-2.41 -0.81,-5.76 -1.17,-8.15l-3.02 -16.07c-8.77,-44.65 -11.76,-56.91 -35.77,-79.9 -13.51,-12.94 -3.8,-5.13 -24.57,-21.52 -34.08,0.14 -15.43,1.22 -35.4,-15.81 11.87,-61.3 8.49,-20.13 18.63,-28.12l37.77 23.02 15.71 10.87c195.99,-220.14 441.88,22.97 543.81,184.91 34.89,55.42 80.61,126.06 67.9,183.98l-22.27 -70.26c-4.43,-18.15 -3.21,-8.86 -4.81,-23.8 -57.82,-10.57 41.41,3.12 -17.31,1.57 -7.9,-0.21 4.65,18.83 -8.19,-1.83 -31.24,-50.22 8.38,41.93 1.85,-21.45 -3.11,-30.19 -21.52,-48.63 -55.12,-75.41 12.19,20.2 27.81,45.32 44.79,64.37 -8.61,20.93 -27.15,-7.9 -4.07,50.68 1.22,3.13 5.4,12.74 6.95,15.88 53.55,108.02 81.8,12.61 59.25,131.26 -58.03,-64.31 -203.47,-200.4 -292.05,-207.51 1.22,2.57 3.63,5.6 4.83,7.04 1.21,1.46 3.61,5.18 5.2,6.95 1.64,1.82 3.93,4.77 5.9,6.75 2.05,2.06 4.47,4.4 6.78,6.48l94.92 64.9c101.98,74.28 233.16,191.23 181.56,329.54 -76.59,205.3 -468.85,297.49 -677.14,284.7 -143.58,-8.82 -143.23,-54.44 -166.13,-89.04 -23.65,-35.71 -35.1,-29.79 -59.38,-58.96 -41.34,-49.65 -2.01,-64.64 -73.32,-107.47 -44.2,-26.56 -91.42,-32.96 -139.86,-39.11 -90.06,-11.43 -169.32,-7.17 -245.19,-9.14l7.09 -35.7c-4.54,-27.79 -24.49,26.78 -0.62,-32.63 24.02,-25.78 67.07,-8.24 113.21,-7.73 58.7,0.65 -21.84,0.86 25.78,2l54.92 2.75 5.41 1.91c4.23,-27.02 -1.25,-24.09 17.76,-4.4l11.01 0.91c11.95,-15.31 4.56,-12.51 23.28,0.16 31.68,8.62 1.43,11.37 31.08,-0.93l-39.2 -18.26 -23.71 0.17 -16.38 -12.75 -77.3 15.74 -52.04 -4.83 -15.67 5.65 -41.45 2.16 -1.13 -14 28.64 -6.3 1.62 -6.12 23.46 -4.78 59.94 12 3.18 -4.62 -60.9 -8.02 -20.31 4.31 -6.99 7.23 -14.52 -2.77 100.85 -480.13c50.34,-11.67 -46.6,5.38 16.03,0.8l171.3 -21.18c-62.09,-31.15 -119.93,-16.85 -174.5,-32.2l42.68 -143.93c62.58,21.43 174.82,29.25 224.17,55.08 -54.69,-30.73 -141.92,-34.74 -185.84,-49.56 -58.23,-19.66 -38.47,-26.26 -38.48,-26.28 23.87,-29.93 -9.78,-28.17 54.46,-15.36 138.92,27.68 312.83,117.01 417.93,155.64zm413.78 1079.27c-29.89,11.74 3.35,6.17 -39.53,9.96 -11.37,1.01 -18.31,-1.47 -33.81,-1.58l-10.2 -2.5 -8.9 4.52 -18.83 9.33c-2.5,0.66 -6.72,1.69 -9.2,2.16 -5.47,1.04 -18.78,-4.15 -26.27,-3.37l-20.64 1.62c-10.38,18.55 -3.31,17.68 -20.11,6.81l-19.33 -1.76c-11.7,20.92 -4.01,20.42 -21.95,6.51l-21.58 -5.49c-10.56,18.89 -3.48,17.56 -20.9,5.38l-27.14 -8.55 -16.21 5.25c-81.42,-7.08 29.35,2.8 -28.26,-10.56l-27.13 4.97c-10.25,18.32 -3.28,16.07 -21.5,4.22 -119.29,-22.69 -245.73,-44.56 -373.65,-70.32 -205.86,-41.44 -240.69,-27.53 -373.75,-48.96l56.61 -293.73c108.65,18.94 287.54,-28.28 418.33,62.04 33.11,85.89 -16.02,53.34 70.03,133.87 77.63,72.65 35.35,145.11 416.13,98.85 228.36,-27.75 607.91,-220.44 494.24,-447.36 -30.01,-59.93 -25.56,-4.99 -10.07,-73.92 24.88,-110.77 -31.53,-220.94 -110.85,-324.31 -131.91,-171.92 -394.56,-353.68 -541,-137.03 -144.2,-89.44 -381.53,-151.98 -524.84,-202.26l56.16 -200.44c129.13,71.59 574.57,261.08 705.45,245.6 -106.31,-18.34 -357.11,-87.92 -449.06,-137.7 72.81,1.14 552.73,113.39 651.77,160.98 234.5,112.66 276.18,306.72 419.21,477.88 164.66,197.04 298.35,330.05 0.29,476.61 -47.52,23.37 -84.55,33 -135.59,59.51l-255.36 146.48c-41.57,20.01 -100.94,25.82 -122.56,47.29zm-1194.64 -55.13l2.66 1.95 5.74 16.36 -3.64 7.31 4.32 15.57 -6.05 18.5 -24.31 23.09c-34.35,34.16 -79.49,61.96 -118.01,11.15 -46.88,-61.83 36.87,-357.76 60.88,-406.63 48.05,-3.45 87.72,-9.54 136.8,-9.06 5.66,35.02 -4.63,65.44 -12.33,99.37 -8.12,35.74 -12.3,64.7 -23.27,96.72l-11.86 93.88c-14.21,16.75 -9.04,19.04 -6.27,-3.51l-8.65 -7.26 -17.89 51.85c-1.44,12.77 29.52,-3.56 -10.98,14.81l-0.24 -37.27c3.62,-37.53 8.69,-19.28 -14.46,-49.6l-9.4 55.45c33.01,26.85 27.75,18.99 27.99,50.82 7.8,-32.78 1.13,-9.1 26.3,-14.19l5.75 -8.16c-20.42,-9.49 -17.77,-2.8 -3.08,-21.15z"/>
   <path class="fil1" d="M1589.1 1179.25c-17.76,23.83 -17.85,13.49 -24.41,18.28 -21.5,15.71 -9.82,-7.49 -14.38,12.78 4.33,-9.13 -14.16,-5.17 38.79,-31.06zm85.88 -61.19l39.2 -25.67c16.19,-7.84 21.42,-8.59 45.93,-19.08l-35.62 32.48c22.93,6.14 -3.2,35.56 51.43,-15.3l-0.27 16.53c-0.49,-0.06 -36.43,14.78 -42.19,15.09 -46.92,2.51 12.92,8.51 -13.15,-3.9 -0.75,-0.36 -3.51,-2.43 -4.18,-2.83l-8.99 20.67c-37.16,13.12 -29.75,11.08 -60.17,33.58 10.12,-8.85 25.16,-19.02 30.25,-28.29 9.69,-17.62 1.79,-23.97 -2.24,-23.28zm105.68 19.04c-26.58,24.9 -64.02,45.57 -91.68,49.19l59.54 -37.88c2.28,-1.04 5.51,-2.42 7.75,-3.35l16.14 -5.54c1.71,-0.6 5.48,-1.67 8.25,-2.42zm285.08 -133.47l3.2 16.67c-1.57,4.15 -68.7,13.33 -82.65,10.7 42.46,-11.69 42.67,3.35 79.45,-27.37zm112.29 -15.64c-3.09,-1.84 -6.61,3.81 -10.11,2.76 -3.54,-1.06 -6.27,1.58 -7.91,1.95l-69.25 15.79c-10.33,0.28 -35.18,-13.59 -88.45,-6.13 -84.65,11.86 -307.92,74.18 -362.48,118.84l-46.08 24.92c-2.31,1.06 -5.59,2.4 -7.91,3.64 -21.09,11.27 -1.74,0.18 -21.75,15.2l-79.05 70.96c35.81,-6.7 28.62,2.6 64.54,-4.25l68.9 -20.53 -44.84 40.2c50.63,-43 67.78,4.3 212.5,-110.49 93.88,-74.47 40.23,-9.02 149.94,-70.05 83.27,-46.33 42.68,20.78 182.94,-44.63 53.4,-24.91 20.11,-17.68 61.03,-22.84l-2.02 -15.34z"/>
   <path class="fil0" d="M275.83 1571l27.34 -4.95 10.24 -25.66c9.51,-21.17 81.34,-173.03 120.22,-164.31l-84.02 123.47c4.01,19.38 3.9,9.45 -4.6,35.71 -6.28,19.41 -0.1,6.13 -16.57,19.96l-13.48 20.75 30.87 -38.91 7.11 29.74c14.17,23.69 37.8,-20.06 -0.77,55.34l-0.33 -39.35c-52.93,16.45 -33.77,13.54 -43.56,26.67 -18.02,24.16 -3.68,8.09 -20.44,21.42 5.02,-25.95 4.81,-24.98 14.67,-63.86l-24.21 26.31 -9.05 12.97c26.11,1.87 19.69,-1.89 1.6,16.85 2.73,11.33 4.31,24.56 5.61,30.13 3.76,16.15 2.13,11.68 7.27,24.9l9.61 -12.67 7.47 -33.04c8.61,14.69 16.86,-18.1 2.4,31.42 5.33,9.55 20.56,29.81 21.72,31.79 21.27,-20.88 9.81,-13.26 28.44,-35 18.72,-21.83 11.72,-13.57 20.86,-21.41l-6.06 31.84 -7.22 10.54 6.09 13.55 2.28 3.08c5.49,17.26 8.85,-5.4 5.05,37.41l3.56 41.73c42.32,7.16 13.28,-26.67 33.42,8.47 7.25,12.67 4.41,28.48 5.55,38.71l87.49 235.55c-5.23,-43.43 -18.25,-73.6 -27.09,-116 -47.84,-229.31 -53.18,-91.92 -60.59,-351.27 -21.5,64.92 -0.96,85.43 -16.42,149.68l-15.64 -51.45c-16.31,-6.67 -15.34,-1.34 -5.4,-15.25l2.41 -7.25 -2.85 -19.37c67.99,-161.15 -23.12,-103.03 89.67,-194.21l-96.03 70.74c44.98,-122.71 111.68,-154.76 174.94,-247.83 -32.46,16.42 -40.75,25.55 -63.69,48.98 -16.44,16.79 -18.14,20.02 -25.5,26.69l-28.21 19.95c44.01,-82.3 120.61,-95.89 138.03,-112.88l75.11 -59.03c46.96,-23.63 26.91,-25.97 51.98,-20.3 4.94,1.12 6.84,-2.17 10.25,-3.28 -35.98,-3.97 -36.67,-5.89 -72.7,11.95 -170.36,84.32 -277.79,209.46 -356.83,380.98z"/>
   <path class="fil2" d="M3115.13 2027.1c-13.89,-15.74 16.07,1 16.4,1.04 33.07,3.42 -5.81,10.95 -16.4,-1.04zm182.77 8.45l0 0zm-58.33 -42.73c35.75,16.34 -2.63,5.43 -2.71,5.52 -10.54,12.71 -35.16,-22.82 2.71,-5.52zm41.58 93.86l-62.48 -17.99 62.48 17.99zm-184.66 -36.04c-0.24,0.58 -1.56,2.7 -1.78,3.29 -0.24,0.66 -2.04,2.71 -2.23,3.42l0.01 33.05c10.43,-6.53 5.97,-9.18 42.14,-9.31 47.33,-0.17 114.25,20.54 162.51,29.85l208.38 30.76c-14.42,-26.89 -33.38,-20.92 -78.86,-27.06l-52.57 -8.75c-2.91,-0.51 -6.02,-1.23 -8.96,-1.75l-61.31 -14.82c-26.1,-15.58 -4.17,1.83 -17.39,-20.5 24.74,-0.93 56.91,2.35 92.23,3.9l79.28 -5.22c4.62,1.23 6.24,-2.67 9.32,-4.11 -53.24,-17.75 -64.79,-5.78 -118.31,-11.03 -52.77,-5.17 -40.09,-24.98 -98.87,-51.24 22.84,-13.57 29.22,-6.48 49.92,-28.37l-79.05 -56.82c3.37,0.48 1.07,-7.17 1.26,-9.23l-141.42 -29.88c16.83,34.86 37.44,23.44 88.05,39.58 -6.89,-0.55 -56.36,-3.54 -51.85,7.44 1.27,3.08 -8.72,3.67 -12.94,5.19l138.61 50.87c-50.71,7.16 -111.1,-13.14 -139.4,12.88l40.95 26.65c-22.53,-1.82 -6.19,-4.07 -32.94,-3.37l-14.78 34.58z"/>
   <path class="fil3" d="M478.88 695.27c-31.87,48.31 -65.19,90.03 -101.78,157.83 9.06,-63.62 58.31,-135.55 101.78,-157.83zm81.62 -80.05c-2.16,27.55 0.35,-4.48 0,0zm-81.93 351.72c1.61,7.21 -4.71,-21.16 0,0zm7.12 -56.35l-9.28 43.44c-47.24,-57.84 -21.38,-147.7 21.94,-216.6 -9.07,-10.17 15.34,-32.21 -35.46,9.43 22.57,-40.22 35.41,-67.55 69.32,-92.3l22.67 -13.78c25.56,-16.25 15.48,-0.49 21.09,-27.34l41.23 -27.64c2.15,-0.68 6.37,-2.09 9.53,-3.22 -45.79,-18.58 -22.71,-19.1 -57.36,-1.25l-122.14 106.17c-68.18,66.32 -117.15,106.11 -137.29,194.57l45.92 -82.59c1.42,74.71 -25.29,126.65 15.25,189.77 3.22,-61.9 -11.48,-59.77 5.99,-136.15l36.19 92.23c6.71,11.08 10.8,17.41 14.42,25.71l-4.51 -67.6c3.83,2.97 7.01,9.45 4.42,9.44 -18.57,-0.05 1.79,15.13 2.52,18.5 8.03,36.77 27.77,69.78 68.31,59.04 0.98,2.29 4.13,7.31 2.38,7.09l25.36 46.75c2.73,-32.68 -4.97,-47.79 -9.11,-76.89 -6.95,-48.8 15.45,-43.22 -31.39,-56.78z"/>
   <path class="fil1" d="M892.04 1417.54l3.94 3.76 29.63 139.93c-0.44,-3.38 1.89,-6.75 -1.27,-10.14 -13.88,-14.91 -1.49,-11.1 -3.81,-37.06 -0.31,-3.49 -1.48,-12.86 -1.6,-16.3 -1.37,-40.35 -0.64,-31 16.3,-66.9 -11.31,-13.54 -10.58,-16.15 -11.71,-19.82 10.18,-14.35 21.24,-27.45 30.6,-37.58 24.11,-47.12 4.57,-9.26 50.48,-38.03 37,-23.19 6.63,-27.27 87.16,-46.38 43.99,-10.44 58.96,-14.25 104.18,10 -11.35,-21.3 -0.09,-14.49 -32.49,-31.25 21.79,10.45 39.48,20.08 60.58,31.44 5.41,2.91 20.51,11.95 25.78,14.17l-40.01 -59.4c-28.75,-18.14 -60.97,-36.4 -92.63,-47.97 -33.36,-12.18 -96.14,-27.75 -129.47,-22.87l-49.1 16.73 125.95 32.98c-9.32,10.23 -25.58,-7.99 -49.61,5.7l-37.14 32.04 45.29 15.35c-52.78,5.33 -37.96,-2.89 -66.6,-28.12l-13.03 27.86c-0.9,2.3 -2.32,6.1 -3.21,8.5l-48.21 123.36zm58.62 65.44l-12.92 -1 -9.74 24.68 22.66 -23.68z"/>
   <path class="fil1" d="M2183.52 1506.01c14.42,-4 20.06,-6.28 35.58,-8.67 4.22,-0.65 30.78,-2.42 32.33,-2.99 62.44,-22.9 -25.53,2.67 17.2,-25.44 20.76,-13.66 84.25,-31.63 119.19,-41.4 17.46,-2.43 34.67,-9.23 44.7,-12.57 -14.38,-13.18 -1.47,-3.29 -12.75,2.55l-19.11 6.36 -15.31 3.97c-41.77,8.26 -65.84,17.35 -93.47,17.29 34.76,-30.26 16.46,-28.12 58.28,-40.65l8.04 -18.24c37.87,-37.18 22.82,-11.81 64.82,-33.18 2.27,-1.16 5.27,-2.96 7.44,-4.19 24.67,-13.96 1.75,-18.64 22.28,-15.08 3.93,0.69 5.03,-3.61 7.52,-5.45l-13.89 -9.07c-2.24,1.59 -5.29,3.89 -6.9,4.48l-18.14 3.84c1.47,2.25 -7.42,-0.36 -11.12,-0.66l-5.44 11.25 -33.45 -10.5c-15.96,15.59 -32.81,10.78 -44.4,18.34 -23.88,15.54 -15.26,1.48 -11.64,32.46 20.65,-13.03 12.84,-28.23 45.66,-25.55l15.84 10.86c-39.5,38.2 -94.67,71.79 -138.75,101.78l-7.4 -2.29c-69.13,10.42 34.48,-6.96 -19.09,4.55l-50.48 3.59c-45.92,51.99 -266.37,27.13 -367.47,177.92 21.63,-14.39 33.74,-30.04 51.4,-45.43l-4 60.15 131.68 -76.02c-57.8,29.27 -90.1,82.01 -125.71,131.77 37.85,-20.91 48.6,-40.73 73.8,-70.83 36.52,-43.61 48.18,-40.66 84.07,-68.95 53.83,-42.44 27.17,-24.39 89.35,-45.41 35.41,-11.97 54.09,-21.54 89.34,-28.59z"/>
   <path class="fil3" d="M989.68 2398.35l9.3 16.02 -98.77 -2.91c22.18,2.08 63.07,-0.91 89.47,-13.11zm18.98 -2.06c22.57,-11.29 55.86,-23.58 75.41,-14.12 -22.05,-15.61 -85.83,-2.98 -121.85,1.55 -153.29,19.31 -308.88,-35.86 -440.79,-120.65 30.24,118.37 318.69,191.25 431.34,183.04 27.17,-1.98 43.51,-3.06 66.98,-4.53l50.18 -9.43c23.16,-9.27 -2.8,3.74 26.84,-14.44l-71.87 -12.54c-26.72,-12.72 -4.11,12.7 -16.24,-8.88z"/>
   <path class="fil3" d="M3809.43 2062.08c-3.8,1.25 -4.35,4.38 -22.56,5.59 -34.56,2.3 -7.03,0.12 -35.99,-1.87 30.64,-14.05 11.5,-20.77 58.55,-3.72zm17.68 -23.57c-90.52,-2.38 -190.54,39.46 -127.73,-62.84 22.39,-36.47 -3.94,-27.18 38.08,-31.22 -29.2,-6.95 -22.91,-10.33 -38.67,4.6l-118.27 33.35c53.02,-92.84 142.45,-171.92 161.63,-309.16l2.61 -43.65c-0.24,-18.17 0.69,-24.89 -8.68,-43.32 -7.97,80.88 -36.49,191.79 -87.84,266.16l16.6 -46.74c-55.05,15.78 -103.87,115.6 -129.29,163.57 42.47,-15.61 24.75,-7.85 66.16,-73.08l-9.43 42.53c-2.39,6.17 -13.3,25.24 -17.64,35.1l10.91 13.41c1.3,1.37 3.98,5.06 5.67,6.67 44.86,42.63 50.09,9.3 73.36,54.79l-65.8 -21.11c91.97,67.84 164.08,57.73 239.6,50.64 -16.95,-22.71 -34.02,4.21 -11.27,-39.7z"/>
   <path class="fil1" d="M1487.03 2187.67l-119.02 164.21c47.63,-45.08 119,-116.84 146.02,-192.78 -2.39,3 -3.74,9.47 -12.45,11.48 -22.98,5.3 -3.37,4.77 -17.39,-2.28l2.47 -20.71c15.72,-41.82 23.3,-39.71 54.26,-78.07 -40.14,10.8 -9.53,-7.93 -75.02,62.11 -30.09,32.18 -35.83,41.46 -59.16,78 -31.4,49.19 -48.01,48.93 -66.49,73.82 -32.42,43.63 6.32,31.29 -45.97,40.15l26.64 -56.29 -42.71 24.63c4.98,-2.4 17.65,-16.88 18.57,-19.18 11.58,-29.03 12.87,1.45 1.58,-30.62l-99.52 140.69c15.39,-0.27 23.67,0.87 31.16,2.16l38.53 6.56c-28.51,-58.26 -15.74,41.14 -28.5,-28.78 45.71,-2.88 26.38,42.94 119.68,-39.11 78.85,-69.35 76.62,-114.2 127.32,-135.99z"/>
   <path class="fil1" d="M1439.07 1717.27c67.88,48.95 -37.36,-26.94 0,0zm22.08 31.37c1.99,-25.05 -2.97,0.4 14.91,-19.09 -33.43,-39.89 -34.57,-70.88 -112.9,-136.31 -18.47,4.87 -10.03,2.96 -31.3,6.76l-34.78 5.56 35.76 26.65 -36.92 5.65c-1.36,0.12 -4.85,0.15 -7.26,0.35 119.04,85.85 138.26,117.26 226.37,209.59 49.72,52.09 11.28,0.74 44.54,44.43l41.06 91.89c0.74,1.88 2.11,5.73 3.16,8.59 5.94,-40.87 -3.24,-65.97 -22.8,-98.17 -1.38,-2.26 -3.54,-4.94 -4.97,-7.21 -32.75,-51.94 -61.76,-91.61 -114.87,-138.69z"/>
   <path class="fil1" d="M906.85 1979.64c1.28,20.44 -27.37,0.19 19,23.51l-4.21 -18.67c33.98,28.83 8.62,12.22 38.9,12.22l-53.17 -76.04 -0.52 58.98zm-19.24 31.81l4.71 31.26 53.35 19.41c119.43,54.96 14.81,27 162.37,58.18 105.83,22.36 32.91,48.09 157.98,15.64 -101.11,-40.49 -70.71,17.24 -248.97,-126.77 28.44,58.12 25.44,6.56 12.06,60.87 -45.61,-45.01 -38.6,-126.87 -78.37,-128.75 16.37,27.8 15.71,20.05 28.9,54.54l15.64 60.56 -52.75 -33.47c-0.2,0.72 -1.11,4.43 -1.54,6.67l-7.05 12.98c-21.73,-39.21 -17.2,-29.1 -43.88,-54.95 2.12,20.25 -0.42,3.04 -2.45,23.83zm3.09 25.05l-9.42 -21.52c-9.45,16.91 -9.61,8.92 9.42,21.52zm-12.83 -26.65l0.39 -19.13c-13.13,18.62 -18.91,13.92 -0.39,19.13zm21.79 -29.82l-7.95 -21.67c-8.49,19.94 -11.47,12.84 7.95,21.67z"/>
   <path class="fil2" d="M692.54 1682.1l-5.65 10.64c-1.25,0.95 10.28,27.61 -4.56,2.53 -1.6,-2.71 -30.06,-41.72 10.21,-13.17zm72.88 -20.33c-0.34,1.84 -3.15,3.83 -4.79,2.92 -0.67,-0.37 -2.04,1.26 -1.96,1.21 0.39,-0.24 10.52,-24.98 6.75,-4.13zm-54.58 -197.94c-75.8,71.64 -83.03,157.85 -30.5,252.03l40.5 -4.21c57.07,-0.29 54.21,24.77 103.12,24.49 -2.41,-64.88 -124.47,-92.65 -122.24,-167.91 1.03,-35.08 3.49,-25.83 6.59,-42.94 0.76,-4.17 4.51,-16.99 4.91,-21.55l-2.38 -39.91z"/>
   <path class="fil1" d="M1206.03 1787.76c-2.05,-3.12 -0.84,-6.72 -5.06,-9.99 -3.94,-3.05 -3.71,-7.57 -4.94,-9.22 -1.03,-1.39 -3.54,-5.95 -4.75,-7.4 -23.7,-28.33 25.43,0.59 -14.43,-10.38l-18.94 75.42c-15.35,-13.71 -3.98,-64.55 -1.53,-82.21 4.25,-30.54 7.78,-60.29 8.91,-80.2 33.1,45.62 7.57,31 21.68,78.99 19.82,-49.67 5.87,-36.82 11.69,-84.57 20.75,57.13 17.56,2.86 26.56,42.73 5.3,23.45 -9.07,62.11 -19.19,86.83zm26.74 -142.22c5.96,48.8 -17.63,30.5 -21.92,32.84 -3.23,-20.95 -5.51,-35.18 -17.49,-64.58 -34.81,-85.47 -36.5,-35.23 -44.37,-35.77 -27.92,-1.91 14.17,33.59 9.43,79.92l-33.53 206.04c-9.21,48.38 -39.87,59.71 -74.59,84.59 41.8,13.38 48.44,22.55 81.27,-24.45 28.37,-40.62 19.17,-62.39 58.3,-88.8l-55.24 76.53c20.35,-6.11 20.99,1.36 44.09,-21.74 13.21,-13.21 62.49,-183.34 54.05,-244.58z"/>
   <path class="fil2" d="M4377.03 2034.68l-26.96 21.13c14.75,-25.89 -4.6,-7.7 26.96,-21.13zm178.51 -114.39c-2.24,1.86 -3.09,6.26 -6.72,5.56 -3.59,-0.68 -5.32,4.27 -6.84,5.22l-36.27 20.05c-2.07,1.14 -5.01,2.76 -7.08,3.92 -2.09,1.17 -4.98,2.92 -7.07,4.11l-21.66 12.29c-2.31,1.35 -5.23,3.15 -7.54,4.52l-43.92 25.68c17.2,-18.34 -5.86,1.06 29.88,-21.98 43.72,-28.17 46.86,-43.66 107.22,-59.37zm3.33 -24.04c0.19,1.52 -2.76,2.82 -4.11,2.07 -0.54,-0.3 -1.72,0.88 -1.67,0.85 0.34,-0.17 2.95,-26.71 5.78,-2.92zm0 0c57.68,-43.84 69.2,-31.97 118.14,-97.87 -38.39,-4.98 -89.67,47.85 -118.03,72.46 -59.41,51.55 -86.99,33.66 -144.94,102.92l-177.1 137.93c-2.48,1.87 -5.31,4.34 -7.56,6.2 -2.5,2.06 -5.7,5.79 -7.74,7.58 -2.07,1.81 -5.11,5.2 -7.77,7.67l479.02 -271.77c-47.42,29.54 -83.59,36.54 -134.02,34.88z"/>
   <path class="fil3" d="M625.68 2250.77c38.18,9.05 -43.86,-10.4 0,0zm216.89 -10.97c-14.88,-31.27 -155.69,-49.06 -185.37,-125.65 -25.45,97.6 44.89,49.08 116.05,141.11 -20.69,6.28 -124.27,-23.73 -178.19,-31.21 -47.61,-6.61 -37.64,-5.85 -66.7,14.38 26.17,28.13 120.83,76.97 186.65,88.77l1.1 -31.8 -81.28 -39.28c137.5,-15.42 154.38,64 158.33,-13.37l49.41 -2.95z"/>
   <path class="fil1" d="M1810.69 2052.32c2.96,-1.97 6.64,-4.48 8.88,-5.93 2.19,-1.42 6.02,-4.11 8.67,-5.79l55.77 -48.77c-24.76,19.86 -33.93,29.91 -68.98,31.66 -18.86,0.93 11.59,2.96 -18.73,-3.57l-52.11 20.89c46.04,-56.84 80.35,-54.33 122.63,-98.59 -53.28,11.46 -79.55,-6.04 -130.88,38.48 -24.42,21.17 -32.14,25.02 -56.67,42.61 -27.3,19.58 -46.99,45.34 -62.26,59.11 39.6,-1.53 55.14,-12.84 96.05,-34.82 13.67,21.76 5.51,7.75 -20.07,21.23 -2.07,1.08 -5.45,2.9 -7.68,4.18l-89.73 66.89c14.5,-3.55 14.83,-2.45 31.35,-9.02l46.28 -19.21c1.82,-0.7 5.07,-1.42 6.87,-2.17l13.66 -6.59c41.54,-21.23 71.34,-56.36 116.95,-50.59zm-142.74 91.87c29.58,-1.9 0.92,21.77 34.43,-16.27 -68.88,-2.7 33.6,-28.47 -17.5,2.47 -2.11,1.27 -6.44,4.38 -8.54,5.78 -2.36,1.58 -5.66,5.28 -8.39,8.02z"/>
   <path class="fil1" d="M2678.72 1167.46c-19.88,12.33 -3.1,9.13 -32.33,15.48 -13.46,2.92 -20.61,1.09 -35.31,0.88 11.49,21.43 151.17,23.86 185.54,-3.54l2.84 3.75c15.3,18.62 9.89,21.97 17.58,-0.29 15.12,15.73 8.17,14.85 19.53,-5.48 -19.53,-8.54 -14.09,-12.88 -19.53,5.48 -19.5,-16.72 -16.29,-24.71 -17.58,0.29 -46.12,-19.68 -40.56,-5.17 -88.75,-11.97 27.82,-20.74 51.67,-24.1 92.36,-35.17 31.3,-8.51 39.84,1.46 25.77,-17.66 -33.8,8.1 -58.08,12.24 -92.17,26.28 -50.46,20.79 -15.26,24.93 -46.93,23.4 -0.55,-0.03 -6.32,-1.65 -5.21,-0.84 1.22,0.9 -3.88,-0.84 -5.81,-0.61zm159.55 94.53c40.77,-0.48 31.33,3.44 64.43,-17.59l6.93 20.04c0.69,2.17 3.97,12.87 4.1,16.7 19.37,-52.65 21.03,-50.49 16.27,-104.51 -28.94,-4.67 -6.82,-6.15 -39.46,-4.71l-41.26 11.37c-13.35,-11 -9.17,-13.4 -13.81,2.7l13.81 -2.7c37.89,11.36 43.86,4.6 78.4,17.43 -16.59,43.11 -15.89,36.32 -55.98,36.91 -32.92,0.49 -50.33,-8.63 -67.1,-25.68 -0.74,0.49 -0.27,2.73 -1.11,2.43 -0.86,-0.31 -0.86,2.38 -0.97,2.57 -12.07,21.87 29.42,-15.42 -5.24,9.32 -17.87,12.76 -8.95,4.22 -31.97,8.63l22.55 -23.38c-3.12,-3.49 -8.12,4.64 -12.39,3.65 -20.32,-4.66 -46.24,55.29 -46.96,62 64.6,1.54 50.54,-10.44 109.76,-15.18zm-134.08 7.31c-17.23,-21.16 -12.48,-23.97 -15.65,3.4 -21.36,-25.81 -13.23,-21.6 -15.39,10.32 18.47,10.33 12.22,11.64 15.39,-10.32 16.08,18.41 11.15,20.64 15.65,-3.4l14.97 17.87c-14.46,-62.51 -6.25,-24.83 -14.97,-17.87zm-15.56 -20.38c-16.38,-19.39 -10.69,-17.19 -11.59,7.08l7.51 -2.47 4.08 -4.61 8.52 11.53 51.03 -16.37c-22.78,-4.66 -15.17,-12.53 -59.55,4.84z"/>
   <path class="fil1" d="M3730.29 2236.89c18.22,11.85 11.25,14.1 21.5,-4.22 -1.5,-1.62 -2.18,-2.96 -4.61,-4.77l-16.72 -26.9 69.79 13.15c32.16,-1.24 37.49,-4.58 69.28,-1.91l-72.26 19.68c66.24,1.83 156.62,-2.36 208.12,-21.7 -71.81,-6.82 -78.49,14.51 -135.86,2.02 68.32,-51.62 81.85,35.92 52.92,-49.86 30.1,11.83 13.86,11.11 43.38,-0.45 10.1,33.55 -1.32,3.35 -12.01,15.95 -20.22,23.8 -10.06,-30.03 -2.82,15.73 2.25,-1.28 7.91,-2.38 6.64,-4.05l54.03 -10.16c62.25,1.24 28.87,15.31 69.61,-28.09l-167.24 5.17c-1.03,1.37 -0.39,5.13 -2.02,4.71 -27.66,-7.11 39.06,49.85 -77.04,19.85l-273.06 -36.15c9.82,30.56 -8.44,9.14 64.71,18.27l208.35 17.88c-36.34,14.67 -108.53,10.2 -137.91,12.31 0.95,2.51 4.93,7.92 3.19,7.4 -1.62,-0.49 2.85,5.62 3.64,6.57l26.39 29.57zm244.75 -8.4c7.49,-0.78 20.8,4.41 26.27,3.37 2.48,-0.47 6.7,-1.5 9.2,-2.16l18.83 -9.33 8.9 -4.52 47.08 -21.79c-92.5,0.31 -50.48,21.18 -110.28,34.43zm73.4 -10.14c15.5,0.11 22.44,2.59 33.81,1.58 42.88,-3.79 9.64,1.78 39.53,-9.96 -40.74,-1.16 -37.66,-6.09 -73.34,8.38zm-94.04 11.76l-20.11 6.81c16.8,10.87 9.73,11.74 20.11,-6.81zm-39.44 5.05l-21.95 6.51c17.94,13.91 10.25,14.41 21.95,-6.51zm-43.53 1.02l-20.9 5.38c17.42,12.18 10.34,13.51 20.9,-5.38zm-48.04 -3.17l-16.21 5.25 16.21 -5.25z"/>
   <path class="fil2" d="M3252.87 1692.17l-70.75 -5.1 -3.18 4.62 -3.37 16.22 77.3 -15.74zm-202.54 68.8c20.7,1.19 35.72,1.9 56.95,2.9l43.24 -3.23c93.46,-27.46 246.84,21.92 310.65,65.72 -46.43,-83.2 -127.96,-72.31 -160.09,-102.42 -18.72,-12.67 -11.33,-15.47 -23.28,-0.16l8.03 9.11 -19.04 -10.02c-19.01,-19.69 -13.53,-22.62 -17.76,4.4l-5.41 -1.91 -54.92 -2.75c-47.62,-1.14 32.92,-1.35 -25.78,-2 -46.14,-0.51 -89.19,-18.05 -113.21,7.73 -23.87,59.41 -3.92,4.84 0.62,32.63zm218.92 -56.05l23.71 -0.17 -23.71 0.17zm-150.25 -25.23l-23.46 4.78c21.41,13.05 19.85,4.03 12.32,24.26l15.67 -5.65c-15.07,-11.39 -12.18,-3.96 -4.53,-23.39zm-18.09 3.67c-16.89,-18.32 -9.49,-18.22 -21.51,4.46l14.52 2.77 6.99 -7.23 20.31 -4.31c-19.17,-9.32 -13.29,-13.29 -20.31,4.31z"/>
   <path class="fil2" d="M3633.9 1169.2c-3.36,47.17 -19.57,60.16 -16.17,89.29 10.3,88.37 65.49,89.09 21.9,144.64 -39.8,50.72 -80.45,99.04 -24.06,155.79 3.47,-22.07 3.77,-45.74 8.04,-63.31 6.02,-24.79 -1.38,-4.16 7.83,-18.97 1.16,-1.86 3.58,-4.06 4.95,-6.01l57.53 -112.37c7.44,-53.82 -31.79,-145.09 -60.02,-189.06z"/>
   <path class="fil0" d="M1321.46 933.75c-42.56,-29.25 -16.1,-12.64 -43.51,-7.05l110.24 77.72 -122.77 -56.48c14.05,9.75 24.57,19.85 36.59,32.29l36.82 47.41c-49.9,-5.36 -84.57,-5.62 -120.31,-8.12 9.61,25.11 -9.02,13.89 64.84,16.33 20.27,0.68 41.89,0.71 58.26,-2.6 55.83,-11.28 -2,-17.87 59.34,-4.05 28.55,6.43 31.78,19.84 63.17,0.62l-142.67 -96.07zm-86.65 -91.15c-2.94,-2.31 -3.85,-3.93 -8.73,-7.05l-32.28 -25.73c5.33,26.44 50.38,112.83 110.78,97.26l-69.77 -64.48zm-90.09 -86.24l5.53 15.81 8.59 5.4 17.87 17.21c35.82,30.02 0.16,8.23 28.9,4.64l-79.52 -102.46 18.63 59.4z"/>
   <path class="fil1" d="M2155.64 1807.84l14.12 -1.36 12.47 -8.11c2.69,-1.86 9.63,-3.16 8.18,-5.41l176.72 -16.65c-0.75,-5.64 0.22,-31.51 -0.06,-35.42l-18.19 -15.39c-72.94,18.31 -149.27,51.2 -220.53,62.68 -20.04,3.22 -27.86,6.76 -45.16,9.46 -45.19,7.04 -18.88,-8.88 -57.1,15.1l27.4 -1.75c5.4,-0.45 22.66,-2.32 33.12,-3.12 27.39,-2.12 35.78,-2.19 69.03,-0.03zm-62.05 39l7.05 -15.58c31.21,-19.6 -15.07,9.16 19.33,-16.19 -28.28,-4.93 -15.92,-7.06 -39.97,0.36 -2.19,0.68 -5.34,2.21 -7.51,3.06l-36.46 19.48c36.79,9.47 -0.13,0.19 23.33,3.11 37.63,4.69 -9.97,-8.81 34.23,5.76zm9.45 -1.27l45.97 10.52c-1.84,-28.77 15.66,-16.18 -14.63,-30.02 -8.71,4.75 -10.11,9.74 -24.94,10.11l-6.4 9.39zm99.9 3.48c-1.74,-22.57 39.25,-19.37 -19.04,-24.82 -75.11,-7.03 -18.1,11.37 -14.24,27.07l33.28 -2.25zm-122.59 -7.86l-20.53 6.51c17.95,7.62 11.22,10.14 20.53,-6.51zm115.08 -36.54c37.6,2.8 15.85,7.1 49.16,-9.25 -23.94,-0.4 -5.98,-3.83 -25.84,0.52 -17.12,3.74 -7.09,2.03 -23.32,8.73zm32.42 16.48l-0.13 -6.05 0.13 6.05z"/>
   <path class="fil1" d="M4258.56 1909.53l-110.79 37.76c48.08,-3.23 26.19,-3.17 63.76,-23.14l47.03 -14.62zm23.01 -54.8c5.41,24.44 -51.55,48.67 -16.11,13.53 0.08,-0.07 1.89,-1.91 2.1,-2.09 0.8,-0.7 6.8,-44.01 14.01,-11.44zm94 -38.96c-44.7,-27.9 -113.16,36 -151.34,59.61l-10.95 26.66c-34.1,11.45 -40.01,1.74 -74.99,28.51l-9.48 7.64c-17.1,12.75 6.08,-5.93 -22.65,15.85 71.46,14.14 -60.74,-0.21 20.99,1.91l65.56 -4.38c2.34,-0.67 5.59,-1.76 7.93,-2.52l119.16 -64.58c35.84,-31.12 44.47,-29.65 55.77,-68.7z"/>
   <path class="fil3" d="M768.39 690.92c-0.02,1.04 -1.79,2.1 -2.7,1.59 -0.38,-0.21 -1.14,0.66 -1.11,0.65 0.22,-0.14 4.1,-20.81 3.81,-2.24zm63.22 -84.54c1.01,-0.21 3.71,1.81 2.78,1.36 -0.44,-0.22 1.21,0.93 1.18,0.96l-2.95 2.32c-20.95,2.68 -3.06,37.61 -2.97,-2.3 0,-0.09 0.97,-2.13 1.96,-2.34zm-96.86 21.27c52.29,2.23 16.91,8.89 69.53,-29.21l9.32 21.68c-2.39,4.89 -14.75,2.94 -19.34,4.7l-42.85 22.37c-14.57,12.23 -7.42,5.11 -19.75,22.61l20.84 51.27c-28.19,57.36 -38.92,96.34 -26.65,140.85 31.38,-90.17 69.01,-154.41 44.41,-180.09 -5.01,-5.23 3.31,10.8 -10.32,-9.42 27.41,-25.48 -2.96,-1.27 26.6,-17.56 52.24,-28.79 48.57,-36 92.29,-37.6l-27.36 -25.31c31.94,2.5 77.88,13.69 115.31,12.51 -51.05,-29.94 -73.01,-20.06 -115.95,-21.43 -62.28,-2 -62.3,-4.19 -116.08,44.63z"/>
   <path class="fil2" d="M1234.81 842.6l-29.2 -43.18c-28.74,3.59 6.92,25.38 -28.9,-4.64l-17.87 -17.21c-33.08,-2.4 -39.98,-19.15 -79.81,-52.38 4.15,76.81 122.12,175.39 182.46,217.24l16.46 -15.73c27.41,-5.59 0.95,-22.2 43.51,7.05l-16.88 -26.67c-60.4,15.57 -105.45,-70.82 -110.78,-97.26l32.28 25.73c4.88,3.12 5.79,4.74 8.73,7.05zm-90.09 -86.24c-13.37,14.39 -13.5,8.67 5.53,15.81l-5.53 -15.81z"/>
   <path class="fil2" d="M3147.88 1183.09l19.96 -73.87c-45.83,-1.69 -140.41,12.36 -168.13,38.19 51.7,5.06 111.33,-22.35 168.45,-33.42 -18.11,48.04 -33.27,44.57 -41.89,52.12l21.61 16.98zm-164.91 -27.74l-12.77 42.61 136.66 14.57 6.35 -50.66c0.04,-0.88 0.34,-4.12 0.18,-6.17l-17.06 0.57c-1.8,0.06 -6.32,0.24 -8.54,0.3l-104.82 -1.22zm153.34 72.26c8.41,-34.66 3.91,-15.23 13.77,-46.97l-28.48 -10.89c10.43,35.71 20.1,28.31 -11.79,35.84l26.5 22.02zm-149.5 -97.75l-1.69 24.32c16.6,18.98 10.68,18 14.59,-6.77l-12.9 -17.55z"/>
   <path class="fil1" d="M317.76 1296.71c18.52,10.36 10.06,9.98 18.71,-14.27l-5.83 -30.1 146.25 -139.92c-48.89,-20.57 -41.35,5.35 -127.02,72.86 -77.31,-47.05 8.13,-12.83 -58.54,-61.29 -20.17,60 25.96,93.91 26.43,172.72z"/>
   <path class="fil1" d="M312.21 2024.63c-59.94,-126.2 -25.27,-63.35 -62.5,-94.32 -26.61,-22.12 -9.54,-8.53 -26.65,-42.55 2.66,51.8 25.57,102.84 53.28,147.16 37.69,60.29 55.07,73.44 125.48,113.06 -14.85,-41.95 -7.94,-40.78 -41.11,-79.2 -48.03,-55.63 -14.7,-26.31 -48.5,-44.15z"/>
   <path class="fil2" d="M3869.67 1125.95c6.13,27.92 4.8,-0.11 5.1,-0.12 5.72,-0.21 -10.69,-25.33 -5.1,0.12zm-27.36 56.15c3.48,-2.27 16.57,-15.72 19.46,-18.24 -3.73,22.35 -3.95,28.08 -4.09,44.08l14.87 38.7c0.49,-2.68 -0.06,-5.92 0.29,-8.64 8.03,-62.55 2.62,-35.43 40.19,-88.7l-14.75 -3.11c39.86,-7.59 73.02,-10.05 116.53,-39.49 -36.61,-19.16 -91.22,-15.34 -121.21,-5.82l-51.62 30.57c-24.03,25.62 -15.82,29.94 -34.05,68.65l34.38 -18z"/>
   <path class="fil2" d="M3594.21 1639.09c19.68,-9.14 -1.59,13.56 -1.65,13.84 -5.63,28.06 -17.33,-5.01 1.65,-13.84zm-1.65 -13.07c-34.4,15.39 7.57,-14.28 -17.25,7.95 -26.25,23.5 -87.9,123.31 -87.22,177.98l45.57 -78.06c-0.92,25.57 -16.17,38.77 19.18,25.27 44.1,-16.83 60.16,-106.02 78.25,-150.59l-31.67 14.21c-1.99,0.88 -5.1,2.46 -6.86,3.24z"/>
   <path class="fil1" d="M4363.7 1210.68c24.86,14.21 -4.37,14.78 -2.72,5.4 0.03,-0.13 -24.75,-21.11 2.72,-5.4zm-101.07 -141.98l49.22 71.23c10.29,11.8 12.31,12.48 22.68,26.48 1.57,2.12 3.72,4.71 5.16,6.87l15.03 31.02c-95.88,-62.08 23.29,-25.93 -178.58,-149.36l201.1 183.54c18.81,15.82 9.17,17.79 30.14,38.08 22.96,22.21 12.25,0.56 44.93,42.85 35,45.29 54.3,68.13 61.31,113.8 13.78,-29.71 20.57,-19.47 -27.94,-89.82 -36.64,-53.13 -183.96,-244.58 -223.05,-274.69z"/>
   <path class="fil3" d="M722.54 978.56c97.67,17.65 60.73,-15.95 142.5,-14.68 63.92,0.98 80.17,17.04 139.75,32.65 -5.65,-24.94 4.62,-8.72 -17.66,-29.29 -0.31,-0.29 -34.53,-21.52 -37.63,-22.64 -37.7,-13.55 -128.92,-24.85 -181.95,2.72 -41.66,21.66 -7.4,-2.77 -45.01,31.24z"/>
   <path class="fil2" d="M871.69 1945.99l-1.88 -3.75 7.01 -18.61c-11.19,-13.58 -27.65,-8.75 8.34,-10.41l-9.14 -17.38c-17.59,1.15 -3.52,4.64 -16.44,-3.34 -16.36,-10.08 -0.95,-0.26 -13.82,-17.79 14.74,-6.43 3.48,-10.27 36.15,-7.39 3.46,-28.21 13.72,-56.95 34.72,-90.38 -8.88,-6.92 -2.14,-6.88 -23.62,3.73 14.4,-39.09 -4.35,-19.43 28.47,-40.64 0.61,-45.72 -124.5,71.81 -88.05,166.32l17.89 -5.36c-9.75,29.81 -3.9,17.27 9.27,18.79 -11.18,30 -8.28,5.54 11.1,26.21z"/>
   <path class="fil1" d="M2654.54 1313.98c-0.51,-1.6 -0.81,-3.1 -2.39,-4.44 -2.77,-2.35 -3.2,-8.71 -3.34,-10.4 -0.19,-2.18 -2.6,-3.3 1.41,-23.68 -45.22,-25.29 -20.55,2.44 -25.72,11.78 -11.69,21.1 28.5,16.74 -62.56,23.6 -2.96,22.73 -6.56,13.16 13.38,27.59 56.05,-36.14 26.87,2.14 79.22,-24.45zm-255.03 75.24l55.6 -14.52c3.8,1.28 5.75,0.26 8.64,0.33 2.71,-0.59 9.38,-0.27 8.13,-1.88l23.79 -5c38.89,-8.18 27.02,-3.31 34.26,-17.11 0.27,-0.5 1.57,-3.85 1.9,-4.43l10.36 -13.97c2.66,-11.68 15.94,29.36 -2.24,-23.56 -2.38,1.82 -4.23,14.58 -41.05,12.45 -36.34,-2.11 5.05,3.61 -26.99,-6.67 1.33,2.88 5.9,9.25 4.18,8.57 -0.31,-0.13 -24.2,6.33 45.48,17l-72.31 17.77c-25.2,5.61 -45.9,2.87 -49.75,31.02zm174.99 -30.31c47.97,-18.04 65.21,-0.89 105.09,-20.97 -45.2,-7.71 -74.68,-3.78 -114.63,7l-17.58 -3.83 4.04 20.79c9.86,-18.36 2.84,-14.71 23.08,-2.99zm98.62 -65.82c-13.23,10.68 -13.15,5.55 1.01,15.35l-1.01 -15.35z"/>
   <path class="fil1" d="M2924.47 2184.15c-25.17,5.09 -18.5,-18.59 -26.3,14.19 -0.24,-31.83 5.02,-23.97 -27.99,-50.82l-20.82 -36.51 -12.98 131.53c-34.52,-82.6 11.35,-61.95 -30.8,-106.86l3.08 81.93c8.93,37.84 18.44,30.02 36.17,32.39l28.15 -8.99c23.53,-30.2 -4.94,-17.53 50.1,-29.47l1.39 -27.39zm-19.21 -20.02c-6.93,-14.54 -7.98,-8.17 -11.22,-22.46l0.24 37.27c40.5,-18.37 9.54,-2.04 10.98,-14.81zm21.88 -9.29c-14.69,18.35 -17.34,11.66 3.08,21.15l-3.08 -21.15zm2.66 1.95l5.74 16.36 -5.74 -16.36zm2.1 23.67l4.32 15.57 -4.32 -15.57zm-26.04 57.16l24.31 -23.09 -24.31 23.09z"/>
   <path class="fil1" d="M4158.34 1462.13c12.24,27.73 -40.69,-1.22 26.55,35.34 -55.46,-19.54 -4.27,-21.56 -59.03,17.11 124.52,106.78 75.15,-28.89 205.01,112.23 -16.67,-55.36 -122.01,-136.55 -172.53,-164.68z"/>
   <path class="fil3" d="M1403.65 1324.8c-11.5,20.57 -4.25,18.19 -22.56,1.57l3.12 5.88c47.98,25.92 22.18,6.3 73.84,17.81 -17.65,-39.1 15.81,-39.26 -54.4,-25.26zm-5.3 40.07c-11.44,20.45 -4.29,20.46 -20.59,5.07l-10.5 7.71c22.61,6.33 16.73,0.28 2.95,23.11l12.78 -11.58c12.12,-8.69 -24.77,-11.74 7.91,-6.33 21.51,3.56 3.65,-0.62 -6.98,20.63 0.14,-0.02 32.15,-17.84 47.09,14.04 1.15,-2.66 6.13,-18.3 5.3,-24.14l-11.01 -18.74c54.83,-20.07 -1.19,-32.31 70.46,-15.59l-5.37 -21.94c0.5,-0.56 3.84,-2.14 4.49,-2.57l13.93 11.41c1.19,3.1 -1.81,3.64 12.98,21.64 17.33,-12.82 18.39,-5.61 30.45,-7l-28.83 -37.76c53.05,13.08 40,8.64 68.19,-17.42l-102.48 6.61c-2.74,0.41 -11.69,1.86 -15.52,2.11 -1.2,2.07 -1.65,6.43 -3.78,6.11l3.37 28.32c-37.41,-6.4 -40.44,-14.11 -74.84,16.31z"/>
   <path class="fil3" d="M1301.99 1158.49c13.15,39.02 17.79,31.15 70.11,73.78 16.42,13.39 -0.53,7.7 28.06,16.11l28.61 -39.34c-39.1,-16.37 -27.75,-10.32 -38,-29.49 54.14,11.81 48.02,6.03 105.57,-16.3 -51.87,-7.06 -126.3,2.16 -194.35,-4.76z"/>
   <path class="fil2" d="M1367.26 1377.65l10.5 -7.71c16.3,15.39 9.15,15.38 20.59,-5.07 -22.41,-18.05 -18.96,-6.71 -14.14,-32.62l-3.12 -5.88c18.31,16.62 11.06,19 22.56,-1.57l-22.56 1.57c-19.13,-1.14 -5.58,-32.12 -19.3,11.46 39.14,25.26 5.11,-1.58 15.97,32.11 -23.75,-22.59 -6.22,-14.34 -12.22,-0.82 -11.61,26.16 -18.06,-18.24 1.72,8.53l-64.93 71.82 48.42 -4.04 -36.92 47.93c43.63,-10.66 82.41,-45.26 117.18,-75.84 -14.94,-31.88 -46.95,-14.06 -47.09,-14.04 10.63,-21.25 28.49,-17.07 6.98,-20.63 -32.68,-5.41 4.21,-2.36 -7.91,6.33l-12.78 11.58c13.78,-22.83 19.66,-16.78 -2.95,-23.11z"/>
   <path class="fil3" d="M3758.44 1429.31c-4.97,40.38 -18.84,84.85 -51.39,108.19l47.94 -151.06c-24.69,11.53 -7.13,-10.39 -29.85,19.02 -16.43,21.26 -57.13,201.34 -56.12,245.79 30.83,-15.62 28.1,-8.29 40.06,-108.87 36.06,-9.69 26.35,0.33 36.25,-38.86 8.23,-32.55 19.91,-48.09 13.11,-74.21z"/>
   <path class="fil1" d="M3565.47 902.28c-217.63,-128.59 -127.09,-77.39 -210.83,-68.52 45.31,27.84 107.11,44.84 157.14,61.58 18.78,6.27 11.25,5.03 31.14,8.53l22.55 -1.59z"/>
   <path class="fil2" d="M3193.58 1010.11l10.33 -19.68 -86.35 -16.55c10.01,21.83 2.37,6.63 13.64,25.96 0.72,1.23 1.57,3.67 4.15,5.69 2.27,1.78 2.71,3.11 4.05,4.66 -48.09,-35.38 -33.98,-33.4 -94.98,-38.17l-9.12 -30.54 -27.81 119.53 16.2 -32.86c22.31,1.54 15.8,2.65 40.87,6.17 -11.54,-17.27 -6.27,-13.87 -38.98,-18.72 62.15,-29.97 -13.24,-15.98 23.64,-24.25 27.81,-6.24 40.61,0.66 63.38,5.84l-62.91 5.13c3.43,1.46 7.61,3.32 10.38,4.17l90.58 11.73c29.43,-7.52 -23.96,-25.51 7.74,-12.61l35.19 4.5z"/>
   <path class="fil1" d="M4602.33 1610.53c31.99,23.95 -31.18,-23.36 0,0zm9.16 -21.7l-60.15 -10.12c17.21,32.16 -9.37,-6.5 11.56,23.45 29.43,42.13 102.91,70.41 135.48,121.25 -1,-53.33 -57.99,-90.93 -86.89,-134.58z"/>
   <path class="fil1" d="M3852.1 1524.43c88.73,-95.1 100.57,-76.63 170.92,-88.7l26.96 -7.08c-33.95,-4.88 -99.16,-12.77 -131.81,-1.47 -41.07,14.22 -60.77,55.11 -66.07,97.25z"/>
   <path class="fil0" d="M833.43 1906.35c0.11,23.22 -0.67,29.24 7.98,52.65 11.02,29.79 17.29,38.98 39.87,55.98l9.42 21.52 1.62 6.21 -4.71 -31.26 -9.74 -1.6c-18.52,-5.21 -12.74,-0.51 0.39,-19.13l-6.57 -44.73c-19.38,-20.67 -22.28,3.79 -11.1,-26.21 -13.17,-1.52 -19.02,11.02 -9.27,-18.79l-17.89 5.36zm36.38 35.89c1.85,2.69 6.88,5.12 8.39,5.09l18.54 -2.51c-1.57,-3.1 -3.83,-4.44 -7.68,-7.07 -3.58,-2.45 -5.82,-6.12 -6.64,-7.06 -0.77,-0.89 -3.81,-4.64 -5.6,-7.06l8.34 -10.41c-35.99,1.66 -19.53,-3.17 -8.34,10.41l-7.01 18.61zm12.1 -74.92c-32.67,-2.88 -21.41,0.96 -36.15,7.39 12.87,17.53 -2.54,7.71 13.82,17.79 12.92,7.98 -1.15,4.49 16.44,3.34l5.89 -28.52zm8.15 120.3c26.68,25.85 22.15,15.74 43.88,54.95l7.05 -12.98 -15.14 -26.44c-46.37,-23.32 -17.72,-3.07 -19,-23.51l-7.19 0.39c-19.42,-8.83 -16.44,-1.73 -7.95,-21.67l-17.97 5.13 16.32 24.13z"/>
   <path class="fil1" d="M3896.75 1539.19c28.18,-37.97 30.69,-12.2 22.86,-55.63 -57.84,51.03 -83.51,118.4 -77.96,182.72 67.49,-107.96 22.97,-114.38 82.99,-115.69 -10.74,-25.76 -2.51,-9.84 -27.89,-11.4z"/>
   <path class="fil2" d="M314.96 1575.97c4.62,-51.26 6.45,-17.48 13.48,-20.75 16.47,-13.83 10.29,-0.55 16.57,-19.96 8.5,-26.26 8.61,-16.33 4.6,-35.71l-36.2 40.84 -10.24 25.66 -27.34 4.95 2.47 22.33 24.21 -26.31c-9.86,38.88 -9.65,37.91 -14.67,63.86 16.76,-13.33 2.42,2.74 20.44,-21.42 9.79,-13.13 -9.37,-10.22 43.56,-26.67l0.33 39.35c38.57,-75.4 14.94,-31.65 0.77,-55.34l-7.11 -29.74 -30.87 38.91zm-44.11 47.18c18.09,-18.74 24.51,-14.98 -1.6,-16.85l1.6 16.85z"/>
   <path class="fil2" d="M2955.7 1733.63c-30.38,-8.27 -3.95,-13.1 -35.27,1.54l-13.02 18.98c-27.44,-16.92 -7.31,-6.82 -11.68,-19.37l-14.98 6.54c-3.56,8.42 5.33,5.11 -12.29,8.66l-2.37 3.7 2.37 -3.7c-37.01,42.06 -18.02,18.58 -13.87,32.63 23.18,-26.92 8.02,-16.95 39.28,-22.08 3.17,-0.52 22.12,0.37 41.89,-0.63 30.38,-1.54 40.52,-8.18 71.13,5 13.24,-30.82 6.2,-6.93 10.84,-39.62l0.69 -14.27c0.19,-2.34 0.42,-7.81 0.85,-11.63l-38.72 7.57 -17.7 -2.7 -17.01 -0.64 -16.27 6.2c17.12,15.09 11.41,16.3 16.27,-6.2l17.01 0.64 17.7 2.7c42.87,10.9 22.98,-2.17 22.47,23.82l-13.52 0.81c-22.03,8.71 -9.81,8.82 -12.31,-6.49 -15.53,-8.28 -9.48,-10.01 -18.1,5.4 12.81,26.42 18.97,-31.58 8.39,18.31l-36.98 -10.77 25.2 -4.4zm-79.84 -9.78c13.79,8.11 8.45,9.28 15.16,-6l-15.16 6z"/>
   <path class="fil2" d="M3747.63 1171.68c19.76,-6.39 14.2,-7.16 36.71,-10.04l-15.71 -10.87c-15.08,2.09 -65.33,18.6 -37.77,-23.02 -10.14,7.99 -6.76,-33.18 -18.63,28.12 19.97,17.03 1.32,15.95 35.4,15.81zm30.87 68.6l-15.45 -15.82 -7.45 11.98c16.46,15.79 22.93,9.38 -5.35,8.24l-7.46 -11.68c-1.56,-2.5 -1.51,-4.84 -4.89,-7.38l-21.35 -28.28c11.03,-0.27 14.05,-41.81 21.49,18.75 4.06,0.43 36.46,6.02 15.79,-9.52 -4.34,-3.26 -7.32,-13.22 -9.16,-15.18 -29.68,-31.73 -28.53,7.61 -36.67,-60.69 -8.13,53.03 9.62,108.79 47.34,143.5l23.16 -33.92z"/>
   <path class="fil2" d="M374.37 1735.69c3.8,-42.81 0.44,-20.15 -5.05,-37.41l-15.24 15.22c3.04,-41.91 -1.89,-13.73 12.96,-18.3l-6.09 -13.55 -9.08 7.51 16.3 -18.05 6.06 -31.84c-9.14,7.84 -2.14,-0.42 -20.86,21.41 -18.63,21.74 -7.17,14.12 -28.44,35 -1.16,-1.98 -16.39,-22.24 -21.72,-31.79l-9.87 1.62 -9.61 12.67 7.53 2.22c27.32,8.48 9.23,-15.94 32.38,62.88 14.98,-45.9 10.63,-12.9 -0.89,-51.81 38.03,41.24 27.67,11.72 51.62,44.22zm4.44 -86.45l2.85 19.37 -2.85 -19.37zm0.44 26.62c-9.94,13.91 -10.91,8.58 5.4,15.25l-5.4 -15.25z"/>
   <path class="fil2" d="M954.12 1373.43c-9.36,10.13 -20.42,23.23 -30.6,37.58 1.13,3.67 0.4,6.28 11.71,19.82l1.73 -34.9 29.64 34.4 -28.86 51.65 12.92 1 37.34 -56.44 -33.88 -53.11zm-58.14 47.87l-3.94 -3.76 3.94 3.76z"/>
   <path class="fil2" d="M2949.93 2029.17c-3.07,0.11 -7.75,-39.74 -27.92,32.3 -1.02,3.68 -2.39,16.12 -2.59,20 -0.88,17.68 1.84,18.56 3.73,30.81l8.65 7.26 6.27 3.51 11.86 -93.88z"/>
   <path class="fil0" d="M3510.36 1886.32l14.08 36.32c21.64,-12.43 37.48,-26.28 53.62,-57.93l-67.7 21.61z"/>
  </g>
  <rect class="fil4" width="5000" height="3000"/>
 </g>
</svg>
