<?xml version="1.0" encoding="UTF-8"?>
<!DOCTYPE svg PUBLIC "-//W3C//DTD SVG 1.1//EN" "http://www.w3.org/Graphics/SVG/1.1/DTD/svg11.dtd">
<!-- Creator: CorelDRAW 2017 -->
<svg xmlns="http://www.w3.org/2000/svg" xml:space="preserve" width="50mm" height="30mm" version="1.1" style="shape-rendering:geometricPrecision; text-rendering:geometricPrecision; image-rendering:optimizeQuality; fill-rule:evenodd; clip-rule:evenodd"
viewBox="0 0 5000 3000"
 xmlns:xlink="http://www.w3.org/1999/xlink">
 <defs>
  <style type="text/css">
   <![CDATA[
    .fil0 {fill:none}
    .fil1 {fill:#727376}
    .fil2 {fill:#4B4B4D}
   ]]>
  </style>
 </defs>
 <g id="Capa_x0020_1">
  <metadata id="CorelCorpID_0Corel-Layer"/>
  <rect class="fil0" width="5000" height="3000"/>
  <path class="fil1" d="M1776.56 1134.04c-22.65,18.6 -20.29,8.68 -27.7,11.71 -24.31,9.95 -7.63,-9.49 -16.8,8.83 6.31,-7.72 -12.32,-8.31 44.5,-20.54zm96.7 -38.23l43.61 -15.29c17.35,-3.68 22.54,-3.15 48.5,-7.39l-41.8 22.66c20.49,11.31 -11.49,33.28 52.86,-2.46l-4.18 15.75c-0.45,-0.17 -38.38,5.52 -43.96,4.45 -45.51,-8.7 10.35,11.21 -11.66,-6.84 -0.64,-0.53 -2.79,-3.16 -3.34,-3.7l-13.5 17.66c-38.68,3.75 -31.11,3.56 -65.56,17.88 11.79,-6.07 28.6,-12.24 35.67,-19.9 13.44,-14.58 7.39,-22.53 3.36,-22.82zm96.66 43.26c-31.35,17.54 -72.08,28.45 -99.41,25.36l65.96 -22.15c2.44,-0.46 5.85,-1.01 8.22,-1.37l16.76 -1.48c1.78,-0.17 5.65,-0.3 8.47,-0.36zm304.52 -60.23l-0.88 16.71c-2.48,3.6 -68.92,-3.51 -81.65,-9.34 43.41,-1.13 40.05,13.32 82.53,-7.37zm111.2 11.63c-2.51,-2.5 -7.22,2.07 -10.33,0.24 -3.13,-1.86 -6.37,0.03 -8.03,-0.01l-70.03 -1.28c-9.96,-2.18 -30.46,-21.35 -83.22,-26.82 -83.85,-8.71 -312.35,-1.94 -375.16,27.89l-50.02 12.93c-2.46,0.47 -5.92,0.98 -8.43,1.61 -22.86,5.79 -1.71,-0.23 -24.42,9.4l-92.49 49.2c35.87,2.08 26.78,9.27 62.8,11.23l70.82 -3.34 -52.45 27.86c58.65,-29.17 63.87,20.18 229.6,-55.43 107.51,-49.04 40.65,0.9 160.13,-31.53 90.69,-24.63 35.94,30 185.7,0.61 57.02,-11.19 23.44,-12.16 63.84,-7.41l1.69 -15.15z"/>
  <path class="fil1" d="M426.56 1197.94l27.34 1.73 15.88 -22.14c14.12,-18.01 118.86,-146.37 154.02,-128.81l-109.69 98.29c-0.75,19.51 1.49,9.98 -12.86,33.1 -10.61,17.09 -1.55,5.84 -20.59,15.19l-17.82 16.66 38.77 -29.94 -0.25 30.16c7.96,26.03 40.94,-10.25 -13.84,52.8l9 -37.76c-54.56,3.21 -35.53,4.97 -48.02,15.22 -22.97,18.86 -5.43,6.88 -24.64,15.66 10.96,-23.65 10.53,-22.78 29.18,-57.65l-29.41 19.44 -11.74 10.28c24.56,7.97 19.3,2.85 -2.45,16.51 -0.08,11.49 -1.7,24.53 -1.78,30.17 -0.22,16.35 -0.72,11.69 1.06,25.56l12.21 -9.86 14.97 -29.86c4.77,16.11 20.44,-13.33 -5.14,30.65 2.84,10.41 12.62,33.41 13.26,35.58 25.31,-14.95 12.53,-10.36 35.52,-26.76 23.09,-16.47 14.43,-10.22 25.04,-15.56l-13.35 29.04 -9.4 8.38 2.61 14.41 1.46 3.5c1.17,17.82 9.76,-3.08 -4.03,37l-6.48 40.8c38.82,16.88 19.04,-22.39 29.99,16.03 3.94,13.84 -2.52,28.3 -3.86,38.36l27.95 246.22c5.29,-42.81 -0.03,-74.77 1.55,-117.46 8.53,-230.86 -29.13,-100.59 25.22,-350.63 -35.97,57.06 -21.16,81.56 -51.18,139.4l-2.79 -52.96c-14.03,-10.24 -14.36,-4.91 -1.56,-15.87l4.04 -6.37 1.85 -19.22c103.27,-138.16 2.28,-104.11 131.85,-164.67l-108.69 44.96c72.13,-106.81 143.58,-121.69 226.19,-195.79 -34.97,8.02 -45.07,14.8 -72.57,31.79 -19.72,12.18 -22.11,14.87 -30.74,19.51l-31.73 12.42c61.63,-68.36 138.18,-63.23 158.88,-75.36l85.89 -38.71c50.54,-11.5 31.9,-18.49 54.56,-7.13 4.47,2.24 7.06,-0.46 10.59,-0.71 -33.5,-12.32 -33.7,-14.32 -72.43,-5.79 -183.05,40.37 -315.55,134.71 -431.84,280.19z"/>
  <path class="fil1" d="M828.4 407.7c-41.95,38.7 -83.73,70.75 -134.82,126.98 23.74,-58.75 87.93,-115.95 134.82,-126.98zm97.1 -57.29c-8.59,25.86 1.4,-4.21 0,0zm-161.75 317.29c-0.17,7.28 0.5,-21.37 0,0zm20.16 -52.26l-19.18 39.39c-31.51,-66.56 14.53,-146.46 72.32,-202.15 -6.27,-11.88 22.32,-27.2 -36.17,0.62 31.13,-33.15 49.9,-56.28 88.22,-71.93l24.97 -7.82c28.32,-9.51 14.93,3.19 26.67,-21.18l46.01 -16.69c2.22,-0.15 6.6,-0.5 9.89,-0.82 -39.43,-28.64 -17.22,-23.68 -54.62,-14.8l-142.08 72.71c-80.97,47.33 -137.28,73.82 -177.52,153.74l63.53 -68.19c-16.34,71.85 -54.21,115.25 -30.37,185.28 17.75,-58.49 3.18,-59.94 38,-128.92l12.79 96.87c3.81,12.19 6.22,19.22 7.72,28.02l11.7 -65.78c2.95,3.75 4.46,10.71 1.99,10.09 -17.76,-4.45 -1.87,14.91 -1.97,18.31 -1.03,37.09 10.05,73.37 51.4,72.7 0.4,2.42 2.23,7.97 0.6,7.35l13.2 50.76c10.36,-30.64 6.57,-46.93 9.49,-75.77 4.91,-48.36 25.04,-37.71 -16.59,-61.79z"/>
  <path class="fil1" d="M1052.81 1197.01l2.88 4.54 -4.79 140.96c0.38,-3.33 3.41,-6.01 1.19,-10 -9.76,-17.56 1.2,-10.98 5.14,-36.38 0.53,-3.42 1.62,-12.66 2.33,-15.98 8.24,-38.96 6.73,-29.83 31.44,-60.19 -7.61,-15.64 -6.3,-17.96 -6.51,-21.74 13.15,-11.33 26.84,-21.24 38.2,-28.73 34.24,-39.39 6.57,-7.78 57.33,-24.45 40.92,-13.43 12.8,-24.53 94.43,-23.75 44.58,0.43 59.82,0.34 97.36,34.25 -5.82,-23.07 3.35,-13.89 -23.7,-37.61 18.38,15.17 33.04,28.58 50.55,44.46 4.48,4.06 16.8,16.3 21.32,19.67l-24.23 -66.34c-23.23,-24.18 -49.74,-49.29 -77.32,-67.87 -29.05,-19.56 -85.45,-49.34 -118.51,-52.57l-50.97 4.39 112.76 61.4c-11.35,7.59 -22.59,-13.71 -48.84,-6.29l-43.15 21.87 39.72 25.43c-51.79,-7.4 -35.66,-11.77 -57.1,-42.69l-19.07 23.58c-1.4,1.98 -3.67,5.28 -5.09,7.37l-75.37 106.67zm40.61 76.53l-12.13 -4.01 -15.17 21.32 27.3 -17.31z"/>
  <path class="fil1" d="M2268.18 1587.66c14.75,-0.41 20.7,-1.26 36.12,0.14 4.19,0.37 30.03,4.97 31.66,4.79 65.19,-7.12 -25.08,-3.49 22.49,-20.28 23.11,-8.16 88.14,-10.31 123.91,-11.39 17.28,1.81 35.37,-0.62 45.77,-1.45 -10.65,-16.02 -0.63,-3.49 -12.82,-0.57l-19.8 1.56 -15.59 0.17c-41.95,-1.99 -67.15,1.01 -93.58,-5.6 40.45,-20.73 22.43,-23.01 65.42,-25.1l12.02 -15.55c45.06,-26.63 24.64,-5.91 69.91,-16.41 2.45,-0.57 5.75,-1.59 8.12,-2.25 26.92,-7.52 6.09,-17.43 24.9,-9.15 3.6,1.58 5.67,-2.27 8.49,-3.45l-11.15 -11.97c-2.52,0.99 -5.99,2.48 -7.66,2.65l-18.28 -0.62c0.87,2.51 -7.01,-2.1 -10.48,-3.26l-7.89 9.48 -29.53 -17.98c-18.97,11.14 -33.96,2.55 -46.85,7.04 -26.54,9.22 -14.96,-2.2 -18.83,28.32 22.86,-7.58 18.98,-23.99 49.76,-13.64l12.59 14.14c-46.86,27.21 -107.63,46.3 -156.93,64.57l-6.55 -3.95c-68.64,-6.4 34.67,1.51 -19.34,-0.17l-49.18 -8.52c-56.27,38.9 -261.42,-37.13 -393.93,83.27 24.11,-8.65 39.41,-20.77 59.97,-31.32l-18.08 56.64 144.06 -41.58c-62.26,14.33 -105.68,57.16 -151.55,96.36 41.19,-11.05 56.17,-27.48 87.42,-50.32 45.3,-33.09 55.76,-27.51 96.82,-46.09 61.59,-27.87 31.79,-16.91 96.29,-22.3 36.74,-3.07 56.89,-7.81 92.3,-6.21z"/>
  <path class="fil1" d="M913.92 2159.08l5.11 17.53 -93.86 -26.19c20.74,7.25 60.58,14.07 88.75,8.66zm18.66 2.52c24.28,-5.46 59.05,-9.35 75.53,4.34 -17.41,-20.17 -81.46,-23.18 -117.01,-27.38 -151.32,-17.83 -287.2,-107.5 -393.39,-219.93 0.9,120.49 259.77,258.59 369.56,277.42 26.48,4.54 42.38,7.38 65.19,11.53l50.27 2.86c24.37,-3.39 -3.56,2.91 29.12,-7.46l-65.83 -29.04c-22.57,-18.51 -6.95,11.19 -13.44,-12.34z"/>
  <path class="fil1" d="M3692.92 2505.18c-3.93,0.3 -5.2,3.17 -22.92,0.01 -33.63,-5.98 -6.75,-1.56 -34.01,-10.32 32.67,-6.19 15.93,-17.15 56.93,10.31zm22.51 -18.38c-86.09,-23.72 -191.75,-7.36 -107.39,-90.41 30.08,-29.61 2.67,-26.95 43.85,-20.86 -26.31,-13.58 -19.48,-15.32 -38.1,-4.76l-121.13 3.9c72.75,-76.31 177.1,-130.83 227.97,-257.67l12.85 -41.16c4.07,-17.46 6.55,-23.66 1.95,-43.53 -26.79,75.54 -80.37,174.95 -147.14,233.99l26.96 -40.81c-56.44,2.06 -126.82,86.06 -162.52,125.95 44.35,-4.88 25.55,-1.65 80.65,-54.28l-19.11 38.48c-3.75,5.34 -18.71,21.01 -25.2,29.42l7.27 15.42c0.92,1.62 2.61,5.79 3.85,7.73 32.85,51.43 45.74,20.77 57.25,69.82l-57.99 -35.79c71.97,86.73 143.39,94.13 217.36,105.24 -10.84,-25.75 -33.56,-4.03 -1.38,-40.68z"/>
  <path class="fil1" d="M1439.95 2075.21l-152.85 129.01c56.28,-31.87 141.6,-83.66 185.45,-149.96 -3,2.31 -5.82,8.18 -14.63,8.04 -23.25,-0.37 -4.36,3.77 -16.11,-6.3l7.27 -19.24c24.96,-36.31 31.72,-32.5 70.44,-61.88 -40.98,0.82 -7.25,-9.85 -86.53,41.68 -36.42,23.68 -44.12,31.2 -75.11,60.66 -41.72,39.64 -57.55,35.46 -81.14,54.91 -41.37,34.09 -1.36,31.45 -53.52,27.55l38.84 -47.58 -46.72 13.46c5.33,-1.12 20.89,-11.98 22.31,-13.96 17.97,-25.05 11.99,4.43 8.77,-28.95l-128.6 111.11c14.8,3.39 22.46,6.45 29.32,9.46l35.33 15.4c-13.49,-62.53 -24.81,35.65 -20.47,-34.3 44.44,8.07 15.09,47.36 123.84,-9.08 91.92,-47.71 100.41,-91.18 154.11,-100.03z"/>
  <path class="fil1" d="M1505.47 1613.54c53.38,62.94 -29.38,-34.64 0,0zm13.7 35.26c7.85,-23.51 -2.93,-0.32 18.8,-14.75 -22.55,-46.1 -16.3,-76.03 -75.78,-157.23 -18.83,0.28 -10.31,0.46 -31.57,-0.94l-34.61 -2.92 27.92 33.99 -36.68 -3.34c-1.33,-0.21 -4.68,-1.01 -7.04,-1.39 93.62,110.39 104.58,145.01 167.06,254.27 35.25,61.64 10.62,3.38 32.11,53.09l17.54 97.69c0.25,1.97 0.65,5.98 0.98,8.97 15.37,-37.72 12.53,-63.92 1.43,-99.38 -0.78,-2.49 -2.21,-5.57 -3.04,-8.08 -19.06,-57.48 -37.42,-102.33 -77.12,-159.98z"/>
  <path class="fil1" d="M2766.49 1956.71l11.15 6.76 -11.15 -6.76 -3.11 9.68 -12.88 -0.46c3.32,4.16 -5.86,4.52 15.99,-9.22zm-61.68 -1.6c-33.16,-6.97 -65.85,-16.24 -101.75,-0.44 -33.61,12.2 2.27,4.17 -37.15,7.56 -15.28,1.31 -29.54,-1.35 -41.98,2.56 -29.52,9.27 -46.1,30.43 -51.87,51.52 56.85,4.09 94.41,7.01 151.77,9.9 43.01,2.17 114.35,6.73 158.95,12.44l14.14 -31.44c-1.33,-30.37 -29.75,9.88 9.97,-37.3 -21.99,30.09 1.69,16.62 -32.12,19.77l-48 -1.59c-1.53,0.06 -5.16,0.52 -7.72,0.91 -62.5,-52.23 -8.81,-3.21 -14.24,-33.89zm114.59 17.98l0.38 -6.61 -0.38 6.61z"/>
  <path class="fil1" d="M933.82 1738.62c-3.62,19.87 -26.25,-6.3 12.62,27l0.39 -18.87c25.7,35.65 5.36,13.75 34.34,20.92l-32.88 -85.39 -14.47 56.34zm-25.95 25.89l-2.9 31.05 46.47 31.22c101.31,80.9 7.78,29.34 141.66,94.15 96.01,46.48 20.1,53.84 147.52,52.4 -87.19,-62.71 -71.77,-0.24 -208.31,-180.34 13.46,62.38 22.81,12.31 -2.87,61.14 -32.99,-53.9 -6.89,-130.61 -44.52,-141.83 9.09,30.49 10.29,22.92 14.74,59.06l0.64 61.68 -42.58 -44.54c-0.36,0.64 -2.11,3.98 -3.05,6.02l-9.83 10.76c-11.51,-42.69 -9.56,-31.94 -28.99,-63 -2.76,19.89 -1.11,2.81 -7.98,22.23zm-2.98 24.72l-3.92 -22.84c-13.06,13.95 -11.31,6.27 3.92,22.84zm-5.97 -28.55l4.9 -18.23c-16.98,14.72 -21.39,8.84 -4.9,18.23zm27.92 -23.39l-2.47 -22.63c-12.85,17.08 -14.02,9.58 2.47,22.63z"/>
  <path class="fil1" d="M799.15 1403.01l-7.93 8.85c-1.42,0.61 3.3,28.87 -4.96,1.34 -0.89,-2.98 -18.89,-47.06 12.89,-10.19zm74.58 -2.2c-0.75,1.69 -3.91,2.93 -5.27,1.67 -0.55,-0.51 -2.25,0.72 -2.16,0.69 0.43,-0.14 15.99,-21.42 7.43,-2.36zm-5.35 -202.41c-89.53,50.62 -116.88,131.44 -88.91,234.04l39.77 5.57c54.7,13.23 46.03,36.55 92.92,47.86 13.06,-62.67 -97.21,-118.17 -77.25,-189.69 9.31,-33.34 9.46,-23.91 16.49,-39.55 1.71,-3.81 8.34,-15.19 9.8,-19.46l7.18 -38.77z"/>
  <path class="fil1" d="M1265.68 1625.81c-1.22,-3.47 0.8,-6.63 -2.47,-10.76 -3.05,-3.85 -1.77,-8.13 -2.55,-10 -0.65,-1.57 -1.98,-6.53 -2.8,-8.21 -15.97,-32.74 24.21,6.59 -11.35,-13.36l-36 67.72c-11.44,-16.76 11.48,-62.74 18.01,-79.06 11.31,-28.24 21.74,-55.88 27.53,-74.66 20.88,51.5 -0.1,31.46 2.05,80.74 30.73,-42.85 14.34,-33.85 31.22,-78.19 6.33,59.61 16.13,6.91 15.31,47.2 -0.49,23.71 -23.41,57.31 -38.95,78.58zm59.29 -129.81c-5.85,48.12 -24.1,25.01 -28.76,26.24 1.87,-20.82 3.06,-34.98 -1.44,-65.96 -13.08,-90.07 -26.6,-42.38 -34,-44.76 -26.28,-8.44 5.61,35.51 -9.91,78.75l-80.92 189.29c-20.27,44.14 -52.31,47.71 -91.44,63.31 36.85,22.71 41.03,33.06 83.59,-4.15 36.78,-32.17 33.14,-55.19 76.85,-71.2l-71.01 60.18c20.93,-1.04 19.78,6.27 47.36,-10.37 15.77,-9.52 103.26,-160.71 109.68,-221.33z"/>
  <path class="fil1" d="M600.43 1931.56c34.4,17.7 -39.53,-20.35 0,0zm210.22 40.88c-6.84,-33.46 -137.42,-83.85 -147.68,-164.2 -47.49,87.4 31.34,57.62 77.66,162.58 -21.29,1.11 -113.34,-52.16 -163.19,-72.1 -44.01,-17.6 -34.64,-14.52 -67.25,-2.03 18.38,33.13 97.43,102.31 157.64,129.2l8.59 -30.18 -68.5 -56.86c135.28,17.82 132.62,97.84 154.73,24.71l48 8.88z"/>
  <path class="fil1" d="M1781.85 2022.32c3.3,-1.19 7.41,-2.71 9.9,-3.57 2.43,-0.84 6.74,-2.51 9.68,-3.49l64.93 -33.48c-28.4,13.15 -39.56,20.6 -73.53,13.96 -18.28,-3.56 10.39,5.59 -17.09,-7.85l-54.83 7.65c57.54,-43.5 89.79,-32.97 140.75,-65.32 -53.72,-1.66 -74.72,-24.63 -134.4,5.83 -28.4,14.48 -36.7,16.33 -64.35,27.36 -30.77,12.28 -55.73,32.28 -73.61,41.84 38.27,7.92 55.83,0.77 100.21,-10.58 7.92,24.07 3.43,8.73 -24.25,15.57 -2.23,0.55 -5.9,1.49 -8.35,2.19l-101.73 42.77c14.72,0.04 14.77,1.17 32.14,-1.2l48.86 -7.43c1.9,-0.24 5.19,-0.16 7.08,-0.45l14.65 -3.08c44.8,-10.48 81.64,-37.05 123.94,-20.72zm-158.41 54.13c28.77,5.19 -4.28,21.06 36.81,-7.42 -65.29,-18.9 38.91,-19.29 -17.34,-1.78 -2.31,0.72 -7.2,2.67 -9.55,3.51 -2.62,0.95 -6.66,3.72 -9.92,5.69z"/>
  <path class="fil1" d="M2822.44 1380.89c-21.95,7.09 -5.13,8.01 -34.62,7.16 -13.58,-0.39 -19.98,-3.84 -34.01,-7.53 5.93,23.24 139.06,58.66 178.46,40.57l1.83 4.27c10.23,21.44 4.27,23.37 16.9,3.88 10.74,18.65 4.3,16.15 19.99,-0.61 -16.67,-12.81 -10.44,-15.67 -19.99,0.61 -14.71,-20.62 -9.75,-27.51 -16.9,-3.88 -39.49,-29.77 -37.61,-14.56 -82.13,-32.49 31.55,-13.26 55.18,-10.83 96.75,-11.79 31.98,-0.73 37.8,10.84 28.85,-10.8 -34.27,-0.25 -58.5,-2.04 -94.45,3.33 -53.24,7.95 -20.51,20.24 -50.47,11.27 -0.53,-0.15 -5.67,-3.07 -4.8,-2.03 0.96,1.15 -3.51,-1.72 -5.41,-1.96zm130.34 128.29c39.14,9.2 29.18,10.71 65.85,-1.57l1.89 20.83c0.14,2.23 0.75,13.25 -0.04,16.95 31.02,-45.81 32.09,-43.36 40.34,-96.19 -26.6,-11.33 -5.07,-7.5 -36.66,-13.86l-42.2 1.11c-10.17,-13.7 -5.6,-15 -13.85,-0.69l13.85 0.69c33.59,19.85 40.9,14.8 70.92,35.26 -26.09,37.34 -23.81,31 -62.32,22.07 -31.63,-7.32 -46.14,-20.18 -58.16,-40.48 -0.82,0.3 -0.9,2.55 -1.63,2.07 -0.76,-0.51 -1.39,2.06 -1.54,2.22 -16.74,18.08 31.81,-7.78 -7.22,7.68 -20.13,7.98 -9.58,1.92 -32.66,0.69l27.13 -17.03c-2.16,-4.08 -8.87,2.51 -12.73,0.56 -18.34,-9.28 -57.36,41.97 -59.64,48.22 61.48,16.78 50.86,1.98 108.67,11.47zm-130.09 -24.76c-11.48,-24.34 -6.26,-25.91 -15.78,-0.46 -14.33,-29.77 -7.55,-23.82 -17.18,6.23 15.24,14.27 8.94,14.05 17.18,-6.23 11.03,21.43 5.78,22.4 15.78,0.46l10.1 20.65c0.97,-63.27 -0.1,-25.25 -10.1,-20.65zm-10.06 -23.2c-11.09,-22.45 -6.17,-18.99 -12.77,4.03l7.77 -0.58 5 -3.45 5.42 13.06 52.74 -3.58c-20.72,-9.86 -11.56,-15.59 -58.16,-9.48z"/>
  <path class="fil1" d="M3736.42 1608.84c-14.4,44.37 -32.98,52.96 -36.63,81.65 -11.08,87.04 41.58,100.8 -13.3,143.66 -50.12,39.12 -100.48,75.75 -59.94,143.43 8.54,-20.3 14.44,-42.89 22.69,-58.7 11.64,-22.31 -0.34,-4.31 11.99,-16.31 1.55,-1.5 4.39,-3.03 6.16,-4.58l81.69 -93.94c19.88,-49.76 3.95,-146.42 -12.66,-195.21z"/>
  <path class="fil1" d="M1578.5 835.62c-33.81,-38.09 -12.41,-15.92 -39.98,-17.07l87.12 100.53 -104.14 -83.16c11.13,12.67 18.82,24.82 27.37,39.58l24.02 54.11c-46.5,-16.95 -79.63,-25.42 -113.25,-36.28 3.25,26.32 -11.92,11.16 58.21,31 19.23,5.45 39.93,10.6 56.38,11.31 56.12,2.43 2.32,-17.58 57.76,10.18 25.82,12.92 25.73,26.52 60.33,15.56l-113.82 -125.76zm-61.35 -107.8c-2.27,-2.9 -2.76,-4.67 -6.68,-8.81l-24.81 -32.28c-1.17,26.58 21.5,119.95 83,119.35l-51.51 -78.26zm-65.81 -103.89l1.55 16.44 6.94 7.2 13.03 20.71c27.18,37.23 -1.79,7.92 26.57,11.29l-51.86 -116.92 3.77 61.28z"/>
  <path class="fil1" d="M2169.99 1870.01l13.83 2.04 13.86 -4.81c3.02,-1.15 9.97,-0.75 9.11,-3.25l173.13 25.94c0.61,-5.59 7.67,-30.12 8.33,-33.93l-13.77 -19.04c-74.16,0.25 -155.02,13.65 -225.96,7.76 -19.95,-1.67 -28.28,-0.13 -45.48,-1.65 -44.93,-3.96 -15.97,-12.97 -58.24,0.93l26.65 4.82c5.28,0.85 22.24,3.14 32.45,4.85 26.72,4.47 34.77,6.38 66.09,16.34zm-68.64 22.63l10.43 -13.25c34.53,-11.36 -16.59,5.2 22.35,-10.91 -25.91,-11.42 -13.57,-10.54 -38.36,-9.13 -2.25,0.13 -5.63,0.85 -7.91,1.15l-39.51 10.01c32.97,17.78 -0.18,0.15 21.59,8.51 34.91,13.39 -7.46,-10.81 31.41,13.62zm9.34 1.02l41.52 20.97c5.05,-27.99 18.82,-11.79 -6.89,-32.21 -9.47,2.48 -12,6.93 -26.27,3.77l-8.36 7.47zm94.81 27c3.68,-22.02 42.16,-9.25 -12.34,-28.27 -70.25,-24.53 -20.02,6.6 -20.05,22.54l32.39 5.73zm-115.49 -36.57l-21.2 1.37c15.38,11.55 8.34,12.37 21.2,-1.37zm118.82 -7.72c35.33,11.59 13.49,10.56 49.26,2.8 -22.83,-6.06 -4.82,-5.08 -24.87,-5.63 -17.27,-0.47 -7.27,0.27 -24.39,2.83zm27.14 23.47l1.3 -5.83 -1.3 5.83z"/>
  <path class="fil1" d="M1106.58 472.12c-0.26,1 -2.21,1.59 -2.97,0.89 -0.31,-0.29 -1.24,0.36 -1.21,0.35 0.24,-0.07 8.85,-18.94 4.18,-1.24zm80.55 -65.95c1.02,0.04 3.12,2.62 2.34,1.96 -0.37,-0.31 0.93,1.18 0.9,1.2l-3.38 1.53c-20.68,-2.4 -11.83,35.28 -2.29,-2.91 0.02,-0.09 1.43,-1.81 2.43,-1.78zm-97.76 -2.58c49.52,14.52 14.08,12.51 73.48,-11.49l3.78 22.96c-3.44,4.11 -14.81,-0.68 -19.63,-0.08l-46.31 11.26c-16.85,8.25 -8.32,3.13 -24.26,16.97l7.8 54.02c-40.58,48.23 -60.09,82.99 -58.88,128.51 51.4,-78.88 102.64,-131.46 85.18,-161.87 -3.56,-6.2 0.6,11.12 -7.65,-11.47 32.27,-17.9 -2.54,-1.92 29.62,-10.51 56.83,-15.17 55.03,-22.95 97.26,-14.12l-20.19 -30.71c29.98,9.96 71.3,31.55 107.42,39.29 -41.78,-40.76 -65.15,-36.5 -105.93,-47.99 -59.15,-16.66 -58.65,-18.76 -121.69,15.23z"/>
  <path class="fil1" d="M1517.15 727.82l-17.72 -48.25c-28.36,-3.37 0.61,25.94 -26.57,-11.29l-13.03 -20.71c-31.1,-10.13 -33.74,-27.79 -64,-69.04 -14.21,74.5 75.36,196.82 123.21,251.19l19.48 -11.17c27.57,1.15 6.17,-21.02 39.98,17.07l-9.84 -29.54c-61.5,0.6 -84.17,-92.77 -83,-119.35l24.81 32.28c3.92,4.14 4.41,5.91 6.68,8.81zm-65.81 -103.89c-16.21,10.61 -14.98,5.1 1.55,16.44l-1.55 -16.44z"/>
  <path class="fil1" d="M3267.86 1507l36.61 -65.98c-43.47,-12.48 -137.34,-21.44 -170,-3.28 48.3,17.09 111.87,4.98 169.17,7.92 -28.71,41.69 -42.4,34.78 -52.45,39.97l16.67 21.37zm-151.29 -65.62l-22.32 37.76 127.37 46.32 18.08 -46.99c0.25,-0.83 1.3,-3.86 1.64,-5.86l-16.47 -3.49c-1.74,-0.37 -6.11,-1.28 -8.25,-1.74l-100.05 -26zm129.67 105.5c16.26,-31.19 7.35,-13.66 24.3,-41.7l-24.68 -17.18c1.53,36.65 12.54,31.87 -19.78,31.52l20.16 27.36zm-119.96 -128.99l-7.38 22.88c11.4,22.09 5.96,19.75 15.57,-3.03l-8.19 -19.85z"/>
  <path class="fil1" d="M531.68 945.29c15.27,14.3 7.26,11.93 21.29,-9.23l1.54 -30.2 173.16 -99.29c-41.93,-31.28 -40.86,-4.67 -138.86,39.65 -62.86,-63.35 10.82,-10.35 -41.52,-72.53 -33.52,52.66 2.61,96.04 -15.61,171.6z"/>
  <path class="fil1" d="M2237.27 1894.01l-1.3 5.83c-28.54,59.55 -7.44,21.67 -30.47,20.82l-32.39 -5.73c-14.56,15.55 -7.6,16 -20.9,-0.3l103.51 89.74c34.56,19.06 3.59,8.21 45.91,10.81 17.71,1.09 30.15,0.44 45.64,1.15 -52.57,-47.99 -66.37,-54.13 -51.97,-108.9l-58.03 -13.42z"/>
  <path class="fil1" d="M353.91 1640.81c-27.48,-135.01 -9.17,-66.63 -37.49,-105.1 -20.22,-27.47 -7.11,-10.42 -15.42,-47.05 -9.73,50.22 0.11,104.52 16.14,153.5 21.8,66.65 35.31,83.35 93.34,137.96 -4.28,-43.67 2.05,-40.91 -20.6,-85.55 -32.79,-64.64 -7.84,-28.67 -35.97,-53.76z"/>
  <path class="fil1" d="M3972.37 1623.3c-0.74,28.17 4.62,1.03 4.91,1.09 5.52,1.15 -4.24,-26.78 -4.91,-1.09zm-39.5 47.27c3.88,-1.35 19.59,-11.13 22.96,-12.85 -8.87,20.51 -10.44,25.94 -14.36,41.23l5.07 40.56c1.1,-2.44 1.34,-5.67 2.32,-8.19 22.5,-57.98 10.9,-33.31 59.49,-75.4l-13.39 -6.47c39.96,2.18 72.28,7.68 120.91,-10.2 -30.51,-27.01 -83.69,-36.29 -114.66,-34.29l-56.65 17.04c-29.07,18.83 -22.24,24.92 -48.86,57.65l37.17 -9.08z"/>
  <path class="fil1" d="M3587.1 2049.27c21.01,-4.09 -4.73,12.6 -4.86,12.85 -12.04,25.53 -15.4,-8.9 4.86,-12.85zm1.52 -12.9c-36.58,6.58 10.63,-11.89 -18.39,3.51 -30.7,16.29 -113.36,97.23 -125.67,149.72l62.12 -63.93c-6.94,24.26 -24.67,33.28 12.37,28.74 46.21,-5.66 82.71,-87.25 110.59,-125.62l-33.68 6.09c-2.12,0.38 -5.47,1.15 -7.34,1.49z"/>
  <path class="fil1" d="M994.54 736.62c89.33,40.04 61.92,-0.88 139.9,19.7 60.95,16.09 72.71,35.31 126.05,64.38 0.49,-25.22 6.48,-7.27 -9.98,-32.23 -0.22,-0.35 -27.95,-28.78 -30.65,-30.59 -32.88,-21.91 -117.53,-54.34 -174.83,-40.51 -45.01,10.87 -6.43,-4.39 -50.49,19.25z"/>
  <path class="fil1" d="M908.13 1698.07l-0.91 -4.03 11.12 -16.15c-7.49,-15.66 -24.4,-14.93 10.45,-8l-4.63 -18.79c-17.12,-3.07 -4.47,3.6 -14.95,-7.1 -13.27,-13.53 -0.84,-0.47 -9.01,-20.3 15.63,-2.66 5.76,-9.01 36.36,1.49 9.99,-26.19 26.62,-51.28 54.64,-78.3 -6.86,-8.73 -0.41,-7.1 -23.49,-2.02 23.05,-34.01 0.44,-19.64 36.88,-32.16 11.42,-43.63 -136.19,39.24 -123.69,138.36l18.39 -0.9c-16.39,26.22 -7.82,15.6 4.42,20.19 -17.8,26.07 -9.23,3.34 4.42,27.71z"/>
  <path class="fil1" d="M2764.58 1515.43c-0.11,-1.66 -0.04,-3.17 -1.23,-4.83 -2.1,-2.9 -1.01,-9.09 -0.74,-10.74 0.33,-2.13 -1.7,-3.77 6.96,-22.34 -37.29,-34.92 -20.25,-2.53 -27.41,5.18 -16.19,17.44 23.31,22.79 -65.49,7.78 -8.21,21.06 -9.39,11.04 6.28,29.58 62.22,-21.32 25.21,8.41 81.63,-4.63zm-261.97 11.61l56.67 -0.74c3.33,2.13 5.45,1.61 8.19,2.37 2.74,0.08 9.04,1.96 8.23,0.12l23.96 0.85c39.17,1.39 26.65,3.24 36.85,-8.26 0.37,-0.41 2.42,-3.31 2.87,-3.79l13.23 -10.92c5.31,-10.55 8.3,31.88 3.43,-23.09 -2.71,1.19 -7.5,12.96 -42.24,2.2 -34.29,-10.63 3.98,4.65 -24.26,-12.78 0.59,3.08 3.46,10.25 1.97,9.19 -0.26,-0.19 -24.66,0.33 39.51,27.05l-73.43 -0.12c-25.45,-0.6 -44.62,-8.13 -54.98,17.92zm174.7 12.44c50.2,-5.91 62.63,14.59 105.58,4.82 -41.45,-18.09 -70.6,-21.31 -111.4,-20.46l-15.92 -7.83 -1.05 20.86c13.78,-15.25 6.2,-13.42 22.79,2.61zm110.01 -39.65c-15.2,7.09 -13.9,2.19 -2.67,14.94l2.67 -14.94z"/>
  <path class="fil1" d="M4169.07 2013.51c5.15,29.44 -38.67,-10.81 17.04,40.12 -48.46,-31.84 1.02,-21.65 -60.56,2.4 93.9,131.71 78.79,-9.86 169.67,156 -2.85,-56.94 -84.46,-159.62 -126.15,-198.52z"/>
  <path class="fil1" d="M1564.54 1229.44c-15.88,16.96 -8.37,16.4 -21.97,-3.85l1.6 6.37c39.79,36.18 19.74,11.29 66.47,34.54 -7.63,-41.61 24.43,-33.83 -46.1,-37.06zm-14.57 37.1c-15.79,16.87 -8.94,18.57 -20.9,-0.02l-11.89 4.88c20.15,11.42 15.95,4.24 -2.65,22.83l14.98 -8.06c13.67,-5.45 -20.93,-17.11 9.07,-4.19 19.75,8.51 3.65,0.28 -11.57,18.1 0.15,0.01 35,-9.46 41.76,24.6 1.73,-2.28 10.2,-16.07 10.79,-21.85l-6.1 -20.55c57.24,-6.23 6.51,-31.22 71.15,1.76l0.05 -22.27c0.61,-0.41 4.18,-1.14 4.91,-1.39l10.63 14.22c0.41,3.24 -2.59,3.05 7.3,23.79 19.63,-8.17 18.93,-1.01 30.81,0.51l-18.65 -42.97c47.68,25.08 36.24,17.74 69.4,-0.53l-99.67 -17.95c-2.72,-0.26 -11.63,-0.99 -15.36,-1.66 -1.64,1.7 -3.1,5.76 -5.06,4.96l-3.49 27.91c-34.3,-14.99 -35.37,-23.09 -75.51,-2.12z"/>
  <path class="fil1" d="M1506.62 1046.15c3.35,40.47 9.65,34.03 49.64,87.24 12.55,16.7 -2.33,7.24 23.04,22.07l36.72 -30.89c-33.56,-24.94 -24.12,-16.45 -29.39,-37.23 49.02,24.13 44.53,17.15 104.91,9.41 -47.97,-19.05 -121.42,-27.86 -184.92,-50.6z"/>
  <path class="fil1" d="M1517.18 1271.4l11.89 -4.88c11.96,18.59 5.11,16.89 20.9,0.02 -17.17,-22.59 -16.55,-10.91 -5.8,-34.58l-1.6 -6.37c13.6,20.25 6.09,20.81 21.97,3.85l-21.97 -3.85c-18.04,-5.62 2.27,-32.06 -21.19,6.4 31.49,33.45 5.27,-0.3 7.69,34.53 -17.39,-27.25 -2.56,-15.2 -11.51,-3.69 -17.31,22.3 -12.97,-21.74 -0.38,8.57l-79.17 53.38 47.31 7.6 -46.7 37.14c44.29,0.13 89.62,-23.8 130.15,-44.84 -6.76,-34.06 -41.61,-24.59 -41.76,-24.6 15.22,-17.82 31.32,-9.59 11.57,-18.1 -30,-12.92 4.6,-1.26 -9.07,4.19l-14.98 8.06c18.6,-18.59 22.8,-11.41 2.65,-22.83z"/>
  <path class="fil1" d="M3794.02 1887.35c-14.33,37.48 -38.14,76.77 -74.83,91.39l81.69 -133.25c-26.38,5.19 -4.37,-11.63 -33.09,11.14 -20.77,16.46 -102.39,179.21 -111.96,222 33.22,-7.65 28.87,-1.28 64.15,-94.73 36.82,-0.74 25.14,6.56 43.91,-28.61 15.58,-29.21 30.45,-41.32 30.13,-67.94z"/>
  <path class="fil1" d="M3352.59 1352.23l14.55 -16.39 -78.74 -36.3c4.41,23.27 0.7,6.91 6.91,28.08 0.4,1.35 0.63,3.89 2.63,6.43 1.75,2.24 1.85,3.62 2.77,5.42 -37.65,-45.26 -24.62,-40.02 -81.89,-59.04l-1.49 -31.4 -54.94 107.85 23.29 -27.63c20.99,6.76 14.5,6.28 37.67,15.59 -6.96,-19.27 -2.72,-14.76 -32.89,-27.15 66.61,-13.97 -8.89,-18.44 28.39,-17.62 28.09,0.62 38.71,10.25 59.28,20.61l-61.44 -10c2.94,2.21 6.5,4.99 8.95,6.45l83.93 32.7c29.96,-0.23 -16.89,-30.1 10.4,-10.24l32.62 12.64z"/>
  <path class="fil1" d="M2510.76 1865.59c42.81,15.12 48.24,7.95 90.69,7.82l21.12 -32.65 -48.91 -46.32 -62.9 71.15z"/>
  <path class="fil1" d="M3861.15 2000.6c107.46,-70.02 114.42,-49.53 184.63,-44.42l27.49 -0.39c-31.35,-12.71 -91.9,-35.72 -125.83,-32.63 -42.69,3.88 -71.24,38.36 -86.29,77.44z"/>
  <path class="fil1" d="M880.9 1651.07c-5.4,22.25 -7.57,27.82 -4.83,52.29 3.48,31.13 7.31,41.41 24.9,63.03l3.92 22.84 0.08 6.33 2.9 -31.05 -8.95 -3.83c-16.49,-9.39 -12.08,-3.51 4.9,-18.23l4.31 -44.38c-13.65,-24.37 -22.22,-1.64 -4.42,-27.71 -12.24,-4.59 -20.81,6.03 -4.42,-20.19l-18.39 0.9zm26.32 42.97c1.14,3.01 5.38,6.53 6.82,6.86l18.35 1.99c-0.77,-3.35 -2.61,-5.16 -5.68,-8.59 -2.85,-3.19 -4.12,-7.24 -4.68,-8.33 -0.52,-1.03 -2.55,-5.35 -3.69,-8.08l10.45 -8c-34.85,-6.93 -17.94,-7.66 -10.45,8l-11.12 16.15zm29.34 -68.85c-30.6,-10.5 -20.73,-4.15 -36.36,-1.49 8.17,19.83 -4.26,6.77 9.01,20.3 10.48,10.7 -2.17,4.03 14.95,7.1l12.4 -25.91zm-20.71 117.09c19.43,31.06 17.48,20.31 28.99,63l9.83 -10.76 -8.23 -28.9c-38.87,-33.3 -16.24,-7.13 -12.62,-27l-6.98 -1.33c-16.49,-13.05 -15.32,-5.55 -2.47,-22.63l-18.42 0.65 9.9 26.97z"/>
  <path class="fil1" d="M2490.21 1461.42l29.53 17.98 7.89 -9.48c30.16,-8.22 -5.66,-20.49 36.42,1.23l11.15 11.97c15.55,-16.89 12.29,-13.08 19.53,-26.63l-56.37 -54.19c-45.23,51.51 -24.39,9.87 -25.06,54.52 11.68,-38.17 -6,-34.24 -23.09,4.6z"/>
  <path class="fil1" d="M3900.39 2025.31c35.97,-29.68 32.27,-4.42 35.07,-47.85 -67.46,35.15 -108,93.57 -117.92,156.45 90.18,-87.35 49.08,-104.04 106.85,-91.09 -4.18,-27.2 -0.07,-10 -24,-17.51z"/>
  <path class="fil1" d="M462.84 1211.96c16.57,-47.98 10.31,-15.2 17.82,-16.66 19.04,-9.35 9.98,1.9 20.59,-15.19 14.35,-23.12 12.11,-13.59 12.86,-33.1l-44.33 30.52 -15.88 22.14 -27.34 -1.73 -2.93 21.95 29.41 -19.44c-18.65,34.87 -18.22,34 -29.18,57.65 19.21,-8.78 1.67,3.2 24.64,-15.66 12.49,-10.25 -6.54,-12.01 48.02,-15.22l-9 37.76c54.78,-63.05 21.8,-26.77 13.84,-52.8l0.25 -30.16 -38.77 29.94zm-53.4 34.72c21.75,-13.66 27.01,-8.54 2.45,-16.51l-2.45 16.51z"/>
  <path class="fil1" d="M3844.71 1638.16c20.42,-1.43 15.28,-3.49 37.52,-0.92l-12.47 -14.12c-14.93,-1.57 -66.94,2.33 -30.7,-30.99 -11.6,5.25 1.39,-33.36 -24.5,22.51 15.09,21.04 -2.51,15.59 30.15,23.52zm13.3 72.98l-11.04 -18.8 -9.98 9.71c12.02,19.01 19.73,14.41 -7.07,6.61l-4.37 -12.94c-0.91,-2.77 -0.3,-4.99 -2.94,-8.23l-13.74 -32.12c10.63,2.35 23.35,-36.7 16.13,23.03 3.79,1.37 33.48,14.41 17.38,-5.37 -3.39,-4.15 -3.88,-14.39 -5.17,-16.7 -20.9,-37.4 -29.12,0.52 -20.74,-66.78 -20.34,48.84 -16.56,106.42 11.33,148.58l30.21 -26.99z"/>
  <path class="fil1" d="M481.87 1378.93c13.79,-40.08 5.2,-19.18 4.03,-37l-18.2 10.95c12.84,-39.39 1.45,-13.58 16.74,-14.45l-2.61 -14.41 -10.47 5.04 19.87 -13.42 13.35 -29.04c-10.61,5.34 -1.95,-0.91 -25.04,15.56 -22.99,16.4 -10.21,11.81 -35.52,26.76 -0.64,-2.17 -10.42,-25.17 -13.26,-35.58l-9.83 -0.79 -12.21 9.86 6.69 3.91c24.15,14.59 12.61,-13.07 16.1,67.86 25.21,-40.38 13.23,-9.82 11.43,-49.81 26.63,48.5 23.71,17.78 38.93,54.56zm24.73 -81.7l-1.85 19.22 1.85 -19.22zm-5.89 25.59c-12.8,10.96 -12.47,5.63 1.56,15.87l-1.56 -15.87z"/>
  <path class="fil1" d="M1122.69 1169.49c-11.36,7.49 -25.05,17.4 -38.2,28.73 0.21,3.78 -1.1,6.1 6.51,21.74l9.93 -33 20.23 39.96 -39.87 42.61 12.13 4.01 49.12 -45.18 -19.85 -58.87zm-67 32.06l-2.88 -4.54 2.88 4.54z"/>
  <path class="fil1" d="M3448.26 2266.07l4.88 38.11c23.66,-6.78 42.1,-16.28 65.05,-42.76l-69.93 4.65z"/>
  <path class="fil2" d="M3413.11 1074.37l44.83 -67.74c1.89,0.81 6.35,4.68 5.38,3.56 -0.46,-0.53 33.76,11.5 33.78,37.37 0,29.08 -50.01,123.11 -86.57,155.15l38.24 -91.92c-2.33,4.53 -13.51,52.05 -25.07,-20.59l-33.63 45.77c-6.39,-39.9 5.64,-36.6 33.4,-55.7 -72.38,7.66 19.66,-36.6 -56.2,-2.2l47.98 -60.07 -2.14 56.37zm-37.21 14.44l-8.78 7.43c0.82,-0.74 16.16,-35.22 8.78,-7.43zm-135.28 117.86l153.52 70.86c24.77,-31 37.44,-56.02 52.86,-84.58 39.06,-72.46 159.19,-181.7 42.23,-240.61 -115.14,-58.01 -199.59,170.83 -248.61,254.33zm-2687.65 -270.61c-14.02,21.17 -6.02,23.54 -21.29,9.23l-32.75 17.2c1.04,-126.13 4.04,-315.94 109.09,-471.41 162.8,-240.91 487.51,-264.01 681.15,-153.22 89.45,51.16 151.07,114.69 195.83,204.72 75.03,150.92 131.14,337.15 289.68,458.84 -58.77,21.83 -88.28,8.2 -149.52,3.2 -515.29,-42.13 -245.14,-141.03 -618.14,-204.74 -57.87,-9.9 -95.21,-2.8 -152.55,8.81 -65.96,13.35 -239.03,63.92 -301.5,127.37zm1581.16 932.41l11.19 13.96c17.26,-11.99 -1.35,-9.3 24.68,-12.44l13.82 2.06c13.41,9.99 8.68,11.27 13.87,-4.81l11.14 9.13c17.13,-2.56 7.11,-3.31 24.39,-2.83 20.06,0.54 2.04,-0.43 24.86,5.62 55.65,3.31 112.59,5.95 152.18,10.43 61.54,6.94 135.63,28.33 217.74,28.24l48.2 -3.07c55.15,-0.76 43.41,13.46 97.09,8.94 30.92,-2.61 31.3,-13.8 69.31,3.7 -26.8,36.49 -53.24,24.4 -60.46,23.7l-392.39 0.4c13.34,-1.84 16.07,-2.41 30.53,-2.03l104.21 1.38c3.25,-0.43 12.44,-2.02 15.77,-2.27l62.8 6.1c35.9,-15.8 68.59,-6.54 101.75,0.45 22,0.88 -1.23,-3.05 29.96,2.38l19.17 5.49c4.19,2.71 6.24,2.37 9.44,3.38l3.11 -9.67 11.14 6.75 41.78 9.62 0.38 -6.59c-26.83,42.24 -11.73,1.68 -22.87,40.72l-14.15 31.44c-44.59,-5.71 -115.93,-10.26 -158.93,-12.44 -57.36,-2.88 -94.93,-5.8 -151.78,-9.89 -24.55,5 -6.19,2.56 -33.99,3.68 -18.47,0.76 -13.45,-0.02 -31.45,-0.67 -23.56,-0.86 -36.04,-0.71 -59.35,-2.99 -15.5,-0.73 -27.93,-0.06 -45.65,-1.16 -42.31,-2.59 -11.33,8.25 -45.89,-10.81 -34.75,12.33 -174.99,12.56 -203.21,14.7l-203.47 17.85c-55.83,3.2 -141.01,6.9 -188.8,32.1 -41.08,28.51 -8.05,12.62 -36.81,7.44 -32.41,-4.84 -63.38,14.06 -95.83,40.12 75.15,15.58 182.25,-60.35 247.09,-38.67 24.58,-6.31 24.75,-7.77 46.75,-12.22l39.67 -6.03c30.95,-3.77 41.71,-1.2 71.88,-2.77 35.55,-1.84 46.75,-9 79.72,-13.13l377.77 4.91c20.09,-11.1 156.39,0.64 186.07,3.11 55.92,4.69 139.24,-0.97 187.75,13.5l-15.84 51.39c-4.79,10.54 -14.18,27.69 -20.32,40.46 -13.87,28.94 -24.9,55.52 -36.99,81.97 -28.64,62.63 -62.54,98.78 -60.55,162.85 1.89,61.06 37.44,128.03 114.2,112.59 67.34,-13.52 99.74,-79.15 139.61,-137.23 68.29,34.2 157.41,60.52 236.64,96.95 265.9,122.27 383.83,212.57 684.22,260.38 280.93,44.69 348.31,-29.27 672.22,-95.03 409.24,-83.1 293.62,-246.38 166.37,-529.36 -182.85,-406.52 -68.27,-488.65 -642.22,-747.16 -177.49,-79.96 -295.9,-147.91 -464.92,-261.07 96.84,-145.52 -94.84,-268.24 -204.13,-116.23l-6.43 13.3c-17.5,41.55 -12.58,53.68 -42.27,103.66 -18.78,31.58 -42.56,67.94 -66.51,100.47l-114.74 -54.93 -25.24 3.02 -5.02 -8.87 -21.41 -2.22c-87.16,-30.47 -179.91,-56.2 -267.8,-74.34 -23.57,-0.58 -8.83,2.11 -42.35,-13.64 -41.3,-3.14 -234.43,-48.85 -359.95,-58.21 -118.04,-8.81 -225.75,-21.24 -346.53,-16.35 -82.42,3.35 -146.01,21.95 -233.19,20.65 -85.71,-98.85 -128.06,-129.51 -190.25,-244.26 -44.23,-81.59 -67.61,-160.24 -110.43,-237.73 -106,-191.74 -296.82,-260.57 -454.86,-264.46 -146.29,-3.59 -345.19,46.38 -466.39,239.48 -93.66,149.17 -124.26,379.37 -91.85,483.33 -191.52,186.05 -282.7,435.03 -238.87,661.27 47.03,242.7 144.5,470.05 395.68,598.97 88.13,45.23 340.91,127 427.86,75.08 -67.53,-26.04 -204.43,-25.87 -347.27,-76.38 -373.15,-131.88 -529.48,-595.25 -416.38,-945.2 99.51,-307.93 373.56,-424.58 603.17,-461.53 306.15,-49.25 478.12,270.29 613.66,346.52l88.11 18.71c-66.76,-32.34 -165.94,-107.14 -237.73,-189.12 158.84,11.39 229.77,59.72 459.54,28.92 242.5,-32.52 249,-10.08 449.73,-14.04 94.09,-1.86 356.38,48.94 460.58,67.98 77.35,14.15 380.47,96.18 459.69,146.04l-38.94 47.71c-5.71,51.64 2.05,16.98 -22.85,45.48 -24.77,39.3 -43.95,81.61 -73.15,108.22l-99.21 -4.7c-15.69,16.77 -9.25,19.28 -20.01,0.61 -12.62,19.51 -6.65,17.56 -16.89,-3.87l-1.83 -4.27c33.8,37.14 7.73,36.13 35.83,14.67 8.25,-14.32 3.68,-13 13.87,0.7l42.18 -1.13c31.59,6.36 10.08,2.55 36.67,13.88 -8.26,52.83 -9.31,50.37 -40.34,96.18 -81.51,98.5 -109.51,261.02 -168.97,339.98 -0.45,30.3 1.78,15.94 -14.04,15.31l-72.01 -2.85c-61.43,19.21 -98.24,-14.77 -164,-24.42 -42.46,0.13 -47.88,7.31 -90.7,-7.81 -21.85,9.9 -51.35,10.96 -78.18,3.11l-36.69 7.94c-6.94,-25.61 -3.61,-6.16 8.42,-9.15l-1.65 -20.39 -14.42 8.89c-0.65,3.81 -7.7,28.35 -8.31,33.92l-173.14 -25.94c0.85,2.53 -6.1,2.12 -9.1,3.26l-13.87 4.81 -13.82 -2.06c-31.32,-9.95 -39.39,-11.85 -66.09,-16.31 -10.23,-1.73 -27.17,-4.01 -32.47,-4.86l-26.63 -4.83c-45.36,15.29 -22.08,17.18 -62.32,7.81 4.11,22.75 -25.05,-4.16 12.7,29.72l73.63 3.94 21.19 -1.36 11.33 8.54 9.36 1.03 8.35 -7.48 -7.26 -6.79 -10.45 13.24c-38.85,-24.42 3.52,-0.22 -31.4,-13.63 -21.77,-8.33 11.37,9.28 -21.6,-8.5l39.52 -10.02c2.28,-0.3 5.67,-1.01 7.92,-1.14 24.77,-1.41 12.44,-2.29 38.35,9.12zm1281.12 -850.47l-47.98 60.07c75.86,-34.4 -16.18,9.86 56.2,2.2 -27.76,19.1 -39.79,15.8 -33.4,55.7l33.63 -45.77c11.56,72.64 22.74,25.12 25.07,20.59l-38.24 91.92c36.56,-32.04 86.57,-126.07 86.57,-155.15 -0.02,-25.87 -34.24,-37.9 -33.78,-37.37 0.97,1.12 -3.49,-2.75 -5.38,-3.56l-44.83 67.74 2.14 -56.37zm-39.35 70.81c7.38,-27.79 -7.96,6.69 -8.78,7.43l8.78 -7.43zm113.33 -136.47c116.96,58.91 -3.17,168.15 -42.23,240.61 -15.42,28.56 -28.09,53.58 -52.86,84.58l-153.52 -70.86c49.02,-83.5 133.47,-312.34 248.61,-254.33zm-394.99 526.79l22.32 -37.76 2.34 -0.61 7.38 -22.87 36.1 -61 54.95 -107.85c48.32,-16.68 119.44,35.22 164.21,59.48l-14.4 27.32 -14.54 16.38 -48.13 88.8 -36.62 65.97 2.69 -1.81c-16.96,28.05 -8.05,10.51 -24.3,41.71l-223.81 423.88c-1.31,3.55 -2.84,8.74 -3.58,10.92l-4.02 13.52c-12.2,30.2 0.19,8.98 -19.77,35.35l-17.69 35.45c-53.89,-9.02 -96.79,-7.03 -149.35,-26.36l17.05 -28.21c-0.65,-14.43 -24.39,3.54 21.01,-27.95l-3.16 2.97c9.3,-17.96 2.72,-18.44 16.97,-8.34l15.9 -2.74 23.54 6.25c33.46,-6.6 7.01,-8.24 34.13,6.86l3.99 -2.2c11.89,-12.71 5.7,-12.47 18.61,-0.87l10.24 9.13 13.13 2.41c6.66,-24.75 22.6,-7.52 -15.85,-28.12l-16.31 -6.77 -16.13 -4.64c-10,20.39 -4.23,20.58 -17.04,2.07l-38.82 -1.43c-10.04,13.04 -4.66,13.18 -15.93,2.15 -0.08,-1.46 -32.4,-14.09 25.03,-37.82l18.72 -3.22c-46.97,-20.09 -24.88,-32.39 1.85,-97.69 45.88,-112.13 101.95,-241.55 169.29,-342.36zm722.23 110.43c-8.38,67.29 -0.16,29.36 20.74,66.76 1.28,2.33 1.77,12.56 5.17,16.71 16.11,19.78 -13.58,6.75 -17.37,5.37 7.22,-59.73 -5.51,-20.68 -16.14,-23.03l13.74 32.12c2.63,3.24 2.04,5.47 2.92,8.24l4.39 12.93 7.07 -6.6 -11.46 -6.33 21.44 -3.39 11.03 18.81c-2.58,-60.37 4.65,-22.69 11.54,-25.84l-7.43 73.22c-0.19,2.35 -0.41,5.7 -0.66,8.04l1.74 64.29c6.94,-19.52 -2.69,10.7 5.02,-16.4l8.5 -40.75c0.3,-2.36 0.58,-5.69 0.82,-8.07l0.91 -16.09c2.19,-44.82 2.21,-57.28 -15.32,-84.97 -9.86,-15.58 -2.41,-5.8 -18.42,-26.43 -32.65,-7.92 -15.06,-2.47 -30.13,-23.5 25.88,-55.89 12.89,-17.28 24.48,-22.51l30.7 30.97 12.47 14.13c239.77,-164.29 417.58,126.67 476.78,305.86 20.29,61.31 47.33,139.77 21.43,192.2l-4.68 -72.53c0.06,-18.41 -0.98,-9.24 1.03,-23.92 -52.84,-23.82 38.9,12.78 -16.93,-2.6 -7.52,-2.08 -0.03,19.14 -7.42,-3.7 -18.02,-55.47 -1.9,42.12 6.87,-20.09 4.16,-29.64 -9.08,-51.64 -34.93,-85.25 6.88,22.21 15.92,49.98 27.64,72.23 -13.21,17.99 -24.12,-14 -15.9,47.56 0.42,3.28 2.16,13.47 2.9,16.83 25.66,116.11 75.32,31.47 25.62,139.72 -40.32,-75.32 -147.31,-240.07 -230.42,-267.85 0.54,2.73 2.16,6.23 2.96,7.88 0.8,1.69 2.23,5.8 3.33,7.88 1.13,2.14 2.62,5.51 4.04,7.87 1.48,2.46 3.24,5.28 4.96,7.8l75.48 84.63c80.05,95.24 177.91,238.29 95.73,358.47 -121.95,178.38 -519.29,173.72 -715.65,112.12 -135.37,-42.45 -124.23,-86.05 -137.96,-124.58 -14.17,-39.8 -26.52,-36.85 -42.87,-70.52 -27.8,-57.32 13.4,-62.36 -44.72,-120.25 -36.02,-35.9 -79.71,-53.21 -124.62,-70.58 -83.51,-32.27 -160.39,-46.96 -232.56,-66.83l15.24 -32.5c2.25,-27.68 -29.79,19.84 7.14,-31.38 29.09,-19 66.15,8 110.21,19.42 56.04,14.52 -21.1,-4.35 24.2,8.02l51.93 15.65 4.72 3.11c10.47,-24.88 4.51,-23.38 18.04,-0.02l10.34 3.5c15.08,-11.85 7.32,-10.91 22.26,5.65 28.26,15.77 -1.34,11.24 29.96,6.48l-33.21 -26.77 -22.74 -5.44 -12.66 -16.09 -77.74 -3.24 -48.66 -16.96 -16.35 1.69 -40.19 -7.75 2.25 -13.68 28.9 0.77 3.01 -5.47 23.59 0.97 54.54 25.69 4.13 -3.67 -56.39 -22.1 -20.47 -0.68 -8.41 5.26 -13.26 -6.1 210.32 -435.72c50.94,0.74 -45.88,-5.89 15.16,4.55l168.99 20.31c-52.06,-44.54 -110.82,-44.55 -159.42,-72.17l74.97 -127.68c54.81,35.36 160.42,69.43 201.54,105.85 -45.08,-42.37 -127.63,-66.89 -166.17,-91.47 -51.09,-32.62 -30.61,-34.27 -30.61,-34.29 29.94,-22.99 -2.69,-29.28 55.77,-1.8 126.43,59.42 271.75,186.13 363.21,248.03zm140.43 1131.21c-31.39,4.15 1.75,6.69 -40.2,0.17 -11.12,-1.74 -17.17,-5.77 -32,-9.53l-9.16 -4.83 -9.6 2.25 -20.23 4.44c-2.55,0.04 -6.83,0.04 -9.33,-0.11 -5.49,-0.29 -16.99,-8.42 -24.33,-9.44l-20.16 -3.35c-14.34,15.32 -7.35,16.14 -20.85,1.76l-18.09 -6.26c-16.15,17.25 -8.69,18.61 -22.55,1.03l-19.36 -10.37c-14.58,15.58 -7.49,16.01 -21.29,0.21l-23.95 -14.62 -16.78 1.17c-76.25,-26.04 27.45,9.65 -24.54,-16.79l-27.14 -1.68c-14.15,15.12 -6.95,14.62 -21.61,-1.04 -108.81,-49.99 -224.66,-100.89 -341.02,-155.84 -187.24,-88.44 -223.88,-83.38 -346.19,-135.41l123.8 -267.79c99.51,43.89 281.94,41.05 385.76,158.51 11.35,90.05 -27.98,47.25 35.32,144.74 57.11,87.95 -0.53,147.3 374.94,193.21 225.18,27.54 634.18,-67 579.12,-311.17 -14.53,-64.48 -23.29,-10.82 7.88,-73.14 50.06,-100.16 22.15,-218.97 -29.29,-336.73 -85.55,-195.82 -293.93,-432.04 -485.44,-259.34 -116.86,-119.77 -329.24,-235.87 -454.52,-317.97l101.26 -178.57c106.64,99.13 488.17,386.07 617.13,402.25 -97.43,-42.76 -321.04,-168.77 -397.27,-238.2 69.43,18.34 502.27,239.48 585.83,308.49 197.78,163.42 191.7,359.07 288.09,556.8 110.93,227.63 207.4,386.64 -112.63,456.32 -51.03,11.12 -88.78,11.57 -143.91,24.86l-279.18 79.73c-44.52,9.29 -102.73,0.8 -128.51,16.24zm-1130.57 -335.82l2.1 2.5 1.61 17.03 -5.21 6.14 0.44 15.92 -10.18 16.29 -28.73 16.31c-40.97,24.59 -90.78,40.49 -115.62,-17.27 -30.24,-70.28 120.04,-333.74 154.62,-374.84 46.81,8.09 86.22,11.64 133.08,23.73 -2.86,34.89 -19.92,61.56 -35.34,92.21 -16.21,32.3 -27.11,59.03 -45.19,87.09l-33.58 87.05c-17.58,12.68 -13.17,16.09 -5.19,-4.85l-6.54 -8.98 -29.41 45.38c-4.41,11.9 29.09,3.6 -14.02,11.58l8.59 -35.72c12.35,-35.06 12.9,-16.41 -2.09,-50.93l-22.13 50.87c25.24,33.51 22.06,24.75 14.76,55.29 15.23,-29.55 3.23,-8.46 28.54,-7.38l7.44 -6.44c-17.3,-13.93 -16.37,-6.88 2.05,-20.98zm-52.79 -20.49l22.13 -50.87c14.99,34.52 14.44,15.87 2.09,50.93 -0.26,14.44 2.23,8.59 5.43,24.14l29.41 -45.38c1.11,-12.18 -1.31,-13.66 3.73,-30.39 1.1,-3.66 5.36,-15.25 7.22,-18.52 36.37,-64.19 31.4,-24.95 34.36,-24.31 18.08,-28.06 28.98,-54.79 45.19,-87.09 15.42,-30.65 32.48,-57.32 35.34,-92.21 -46.86,-12.09 -86.27,-15.64 -133.08,-23.73 -34.58,41.1 -184.86,304.56 -154.62,374.84 24.84,57.76 74.65,41.86 115.62,17.27l28.73 -16.31 10.18 -16.29 -0.44 -15.92 5.21 -6.14 -1.61 -17.03 -2.1 -2.5 -2.05 20.98 -7.44 6.44 -7.83 25.9c-55.52,-1.61 -25.26,-6.99 -54.95,16.35l-29.07 1.95c-16.41,-6.49 -27.36,-1.26 -26.93,-39.61l16.44 -79.15c29.72,52.98 -9.3,22.35 4.18,109.61l43.58 -122.84 11.28 39.88zm70.79 -7.35l-5.19 -4.85c-7.98,20.94 -12.39,17.53 5.19,4.85zm75 -375.48l-23.54 -6.25c1.2,13.07 -15.68,-1.37 6.58,21.33l16.96 -15.08zm-56.41 4.83l3.16 -2.97c17.7,0.77 8.41,1.82 13.81,-5.37 -14.25,-10.1 -7.67,-9.62 -16.97,8.34zm-17.85 24.98l-17.05 28.21c52.56,19.33 95.46,17.34 149.35,26.36l17.69 -35.45c-26.18,-19.86 -37.46,-15.92 -66.9,-21.63 -19.18,-3.73 -37.12,-9.07 -40.25,-9.32 -31.14,-2.5 -14.27,-8.45 -42.84,11.83zm112.38 -25.15l-3.99 2.2 -25.17 -1.76 32.85 19.08c21.95,-45.25 2.32,8.81 -3.69,-19.52zm28.85 8.26l13.13 2.41 -13.13 -2.41 -10.24 -9.13c-1.25,15.25 -12.89,12.24 10.24,9.13zm-169.46 417.82c-25.31,-1.08 -13.31,-22.17 -28.54,7.38 7.3,-30.54 10.48,-21.78 -14.76,-55.29l-11.28 -39.88 -43.58 122.84c-13.48,-87.26 25.54,-56.63 -4.18,-109.61l-16.44 79.15c-0.43,38.35 10.52,33.12 26.93,39.61l29.07 -1.95c29.69,-23.34 -0.57,-17.96 54.95,-16.35l7.83 -25.9zm-13.65 -23.71c-3.2,-15.55 -5.69,-9.7 -5.43,-24.14l-8.59 35.72c43.11,-7.98 9.61,0.32 14.02,-11.58zm23.14 -3.71c-18.42,14.1 -19.35,7.05 -2.05,20.98l2.05 -20.98zm2.1 2.5l1.61 17.03 -1.61 -17.03zm-3.6 23.17l0.44 15.92 -0.44 -15.92zm-38.47 48.52l28.73 -16.31 -28.73 16.31zm947.78 -1122.04c-177.86,-174.65 -103.33,-104.2 -185.6,-115.53 36.79,37.38 91.93,68.29 135.87,96.19 16.48,10.43 9.56,7.47 27.77,15.54l21.96 3.8zm0 0l-21.96 -3.8c-18.21,-8.07 -11.29,-5.11 -27.77,-15.54 -43.94,-27.9 -99.08,-58.81 -135.87,-96.19 82.27,11.33 7.74,-59.12 185.6,115.53zm-698.66 958.62c25.77,5.68 9.59,3.96 30.75,11.03l-32.91 -35.21c33.27,-18.22 86.27,15.54 136.52,20.71l-120.66 -81.55c4.4,-0.47 14.1,1.36 13.61,-1.9 -1.71,-11.59 44.94,3.01 51.42,5.17 -44.64,-27.45 -67.06,-21.39 -74.92,-58.77l128.3 62.13c-0.67,1.9 -0.28,9.79 -3.39,8.54l62.21 73.11c-25.01,16.05 -29.43,7.75 -54.52,15.34 50.06,39.06 33.22,55.01 82.51,72.47 50,17.69 63.89,8.99 110.64,38.58 -3.28,0.64 -5.75,4.01 -9.88,1.74l-77.12 -13.78c-33.46,-9.87 -63.49,-20.62 -87.37,-25.6 7.37,24.52 -9.51,2.64 11.79,23.76l55.16 28.7c2.69,1.19 5.51,2.62 8.18,3.79l48.26 20.85c42.07,16.64 61.64,15.43 69.07,44.56l-192.18 -78.8c-44.01,-20.36 -103.17,-56.03 -148.5,-67.06 -34.67,-8.46 -31.03,-4.88 -42.55,-1.08l7.79 -31.65c0.37,-0.63 2.57,-2.18 2.97,-2.75 0.34,-0.51 2.12,-2.22 2.48,-2.72l22.34 -29.61zm90.34 75.83l55.55 32.02 -55.55 -32.02zm37.98 -67.68c-32.14,-25.53 -16.98,14.32 -3.89,4.64 0.09,-0.06 34.25,19.48 3.89,-4.64zm45.71 54.72l0 0zm-172.96 -51.37c7.31,13.98 46.31,15.99 15.47,4.87 -0.33,-0.11 -25.03,-23.23 -15.47,-4.87zm539.18 346.56l-18.25 -34.57c-0.53,-1.08 -3.36,-8 -1.93,-7.14 1.55,0.91 -0.97,-5.21 -1.28,-7.83 28.62,4.93 96.66,26.32 134.92,20.88l-195.21 -66.49c-67.85,-26.07 -55.46,-1.23 -57.62,-32.82l252.83 99.31c104.06,56.22 53.66,-14.1 78.45,-0.76 1.47,0.78 1.76,-2.97 3.05,-4.02l161.33 34.65c-49.27,31.91 -13.99,26.35 -73.28,10.4l-54.15 -3.07c0.83,1.91 -4.84,1.61 -7.31,2.31 3.91,-45.53 -18.56,3.62 6.43,-14.4 13.23,-9.51 17,22.09 15.29,-12.41 -31,4.07 -15.64,8.62 -41.66,-9.84 7.39,88.98 15.18,1.94 -62.46,35.19 51.96,25.56 63.41,6.71 130.55,30.26 -53.88,6.31 -141.42,-11.1 -204.39,-28.55l73.84 -1.71c-29.8,-10.08 -35.71,-8.16 -66.77,-14.59l-63.69 -29.11 9.63 29.7c1.91,2.31 2.23,3.75 3.29,5.65l27.14 1.68c51.99,26.44 -51.71,-9.25 24.54,16.79l16.78 -1.17 23.95 14.62 21.29 -0.21 19.36 10.37 22.55 -1.03 18.09 6.26 20.85 -1.76 20.16 3.35c60.37,1.48 25.09,-28.46 113.71,-6.83l-50.22 9.69 -9.6 2.25 9.6 -2.25 9.16 4.83c37.59,-5.41 33.48,-1.43 72.2,9.36 25.78,-15.44 83.99,-6.95 128.51,-16.24l279.18 -79.73c55.13,-13.29 92.88,-13.74 143.91,-24.86 320.03,-69.68 223.56,-228.69 112.63,-456.32 -96.39,-197.73 -90.31,-393.38 -288.09,-556.8 -83.56,-69.01 -516.4,-290.15 -585.83,-308.49 76.23,69.43 299.84,195.44 397.27,238.2 -128.96,-16.18 -510.49,-303.12 -617.13,-402.25l-101.26 178.57c125.28,82.1 337.66,198.2 454.52,317.97 191.51,-172.7 399.89,63.52 485.44,259.34 51.44,117.76 79.35,236.57 29.29,336.73 -31.17,62.32 -22.41,8.66 -7.88,73.14 55.06,244.17 -353.94,338.71 -579.12,311.17 -375.47,-45.91 -317.83,-105.26 -374.94,-193.21 -63.3,-97.49 -23.97,-54.69 -35.32,-144.74 -103.82,-117.46 -286.25,-114.62 -385.76,-158.51l-123.8 267.79c122.31,52.03 158.95,46.97 346.19,135.41 116.36,54.95 232.21,105.85 341.02,155.84zm786.38 -992.19c30.31,38.08 125.97,256.27 148.46,315.8 29.77,78.84 25.68,67.43 5.46,92.6 4.11,-45.38 -8.96,-71.82 -31.74,-123.47 -21.26,-48.21 -16.14,-24.96 -32.86,-51.66 -15.27,-24.4 -5.57,-24 -19.82,-43.58l-149.03 -223.35c164,165.98 58.49,103.14 135.56,185.28l-7.03 -33.25c-0.87,-2.42 -2.31,-5.4 -3.33,-7.79 -6.6,-15.88 -8.38,-17 -15.43,-30.73l-30.24 -79.85zm59.25 164.38c-3.81,8.58 24.29,14.97 3.88,-4.52 -22.6,-21.54 -3.84,4.39 -3.88,4.52zm28.29 698.02c47.88,13.52 84.17,15.39 136.55,-1.66l-522.95 146.7c3.13,-1.75 6.86,-4.27 9.25,-5.5 2.4,-1.25 6.33,-4.04 9.21,-5.42 2.61,-1.25 5.91,-2.95 8.7,-4.15l202.23 -90.1c71.88,-52.56 94.05,-28.9 163.12,-64.18 33,-16.83 94.59,-55.27 130.17,-41.4 -62.47,51.5 -70.68,37.4 -136.28,65.71zm-206.88 89.44c-33.39,5.35 -10.55,-7.45 -30.81,13.83l30.81 -13.83zm198 -67.23c-61.5,0.74 -68.2,14.82 -116.71,31.44 -39.66,13.6 -13,0.49 -33.82,13.95l48.13 -14.15c2.55,-0.79 5.77,-1.81 8.3,-2.55l23.64 -6.64c2.28,-0.65 5.46,-1.64 7.75,-2.27 2.24,-0.61 5.43,-1.47 7.7,-2.08l39.48 -10.58c1.66,-0.56 4.5,-4.9 7.76,-3.39 3.33,1.54 5.19,-2.49 7.77,-3.73zm4.45 -21.22c1.13,1.04 4.24,0.49 4.43,-0.99l-4.43 0.99zm127.63 -282.83c17.34,48.64 62.97,98.12 51.31,149.43 -19.15,-56.39 -82.8,-100.88 -100.99,-148.19 -12.94,-33.62 3.34,9.69 -5.5,-25.17l55.18 23.93zm-13.89 18.61c-24.33,-29.75 24.94,30.5 0,0zm0 0c24.94,30.5 -24.33,-29.75 0,0zm13.89 -18.61l-55.18 -23.93c8.84,34.86 -7.44,-8.45 5.5,25.17 18.19,47.31 81.84,91.8 100.99,148.19 11.66,-51.31 -33.97,-100.79 -51.31,-149.43zm-330.08 371.28l-30.81 13.83c20.26,-21.28 -2.58,-8.48 30.81,-13.83zm198 -67.23c-2.58,1.24 -4.44,5.27 -7.77,3.73 -3.26,-1.51 -6.1,2.83 -7.76,3.39l-39.48 10.58c-2.27,0.61 -5.46,1.47 -7.7,2.08 -2.29,0.63 -5.47,1.62 -7.75,2.27l-23.64 6.64c-2.53,0.74 -5.75,1.76 -8.3,2.55l-48.13 14.15c20.82,-13.46 -5.84,-0.35 33.82,-13.95 48.51,-16.62 55.21,-30.7 116.71,-31.44zm8.88 -22.21c-0.19,1.48 -3.3,2.03 -4.43,0.99 -0.45,-0.42 -1.86,0.44 -1.79,0.42 0.35,-0.08 9.15,-24.86 6.22,-1.41zm0 0c65.6,-28.31 73.81,-14.21 136.28,-65.71 -35.58,-13.87 -97.17,24.57 -130.17,41.4 -69.07,35.28 -91.24,11.62 -163.12,64.18l-202.23 90.1c-2.79,1.2 -6.09,2.9 -8.7,4.15 -2.88,1.38 -6.81,4.17 -9.21,5.42 -2.39,1.23 -6.12,3.75 -9.25,5.5l522.95 -146.7c-52.38,17.05 -88.67,15.18 -136.55,1.66zm-290.63 -58.45l-115 9.91c46.78,8.31 25.81,3.18 66.51,-7.05l48.49 -2.86zm35 -47c-0.61,24.68 -60.87,34.39 -18.63,9.15 0.11,-0.07 2.27,-1.41 2.5,-1.53 0.95,-0.46 16.93,-40.51 16.13,-7.62zm99.21 -15.04c-36.17,-37.29 -116.84,7.66 -158.98,21.22l-16.81 22.93c-35.34,2.88 -38.71,-7.81 -78.54,9.53l-10.88 5.06c-19.4,8.15 7.21,-4.23 -25.44,9.81 65.05,30.46 -58.1,-14.6 19.63,6.79l63.82 11.35c2.39,-0.08 5.76,-0.36 8.18,-0.53l129.38 -33.59c41.66,-21.31 49.58,-17.87 69.64,-52.57zm132.01 -582.05c20.41,19.49 -7.69,13.1 -3.88,4.52 0.04,-0.13 -18.72,-26.06 3.88,-4.52zm-63.13 -159.86l30.24 79.85c7.05,13.73 8.83,14.85 15.43,30.73 1.02,2.39 2.46,5.37 3.33,7.79l7.03 33.25c-77.07,-82.14 28.44,-19.3 -135.56,-185.28l149.03 223.35c14.25,19.58 4.55,19.18 19.82,43.58 16.72,26.7 11.6,3.45 32.86,51.66 22.78,51.65 35.85,78.09 31.74,123.47 20.22,-25.17 24.31,-13.76 -5.46,-92.6 -22.49,-59.53 -118.15,-277.72 -148.46,-315.8zm-1325.56 645.63c-9.56,-18.36 15.14,4.76 15.47,4.87 30.84,11.12 -8.16,9.11 -15.47,-4.87zm172.96 51.37l0 0zm-45.71 -54.72c30.36,24.12 -3.8,4.58 -3.89,4.64 -13.09,9.68 -28.25,-30.17 3.89,-4.64zm17.57 99.7l-55.55 -32.02 55.55 32.02zm-168.23 -78.24c-0.36,0.5 -2.14,2.21 -2.48,2.72 -0.4,0.57 -2.6,2.12 -2.97,2.75l-7.79 31.65c11.52,-3.8 7.88,-7.38 42.55,1.08 45.33,11.03 104.49,46.7 148.5,67.06l192.18 78.8c-7.43,-29.13 -27,-27.92 -69.07,-44.56l-48.26 -20.85c-2.67,-1.17 -5.49,-2.6 -8.18,-3.79l-55.16 -28.7c-21.3,-21.12 -4.42,0.76 -11.79,-23.76 23.88,4.98 53.91,15.73 87.37,25.6l77.12 13.78c4.13,2.27 6.6,-1.1 9.88,-1.74 -46.75,-29.59 -60.64,-20.89 -110.64,-38.58 -49.29,-17.46 -32.45,-33.41 -82.51,-72.47 25.09,-7.59 29.51,0.71 54.52,-15.34l-62.21 -73.11c3.11,1.25 2.72,-6.64 3.39,-8.54l-128.3 -62.13c7.86,37.38 30.28,31.32 74.92,58.77 -6.48,-2.16 -53.13,-16.76 -51.42,-5.17 0.49,3.26 -9.21,1.43 -13.61,1.9l120.66 81.55c-50.25,-5.17 -103.25,-38.93 -136.52,-20.71l32.91 35.21c-21.16,-7.07 -4.98,-5.35 -30.75,-11.03l-22.34 29.61zm-59.68 -336.84c-27.12,-15.1 -0.67,-13.46 -34.13,-6.86l-16.96 15.08c-22.26,-22.7 -5.38,-8.26 -6.58,-21.33l-15.9 2.74c-5.4,7.19 3.89,6.14 -13.81,5.37l-3.16 2.97 3.16 -2.97c-45.4,31.49 -21.66,13.52 -21.01,27.95 28.57,-20.28 11.7,-14.33 42.84,-11.83 3.13,0.25 21.07,5.59 40.25,9.32 29.44,5.71 40.72,1.77 66.9,21.63 19.96,-26.37 7.57,-5.15 19.77,-35.35l4.02 -13.52c0.74,-2.18 2.27,-7.37 3.58,-10.92l-38.85 -1.93 -16.31 -6.77 -16.13 -4.64 -17.04 2.07c12.81,18.51 7.04,18.32 17.04,-2.07l16.13 4.64 16.31 6.77c38.45,20.6 22.51,3.37 15.85,28.12l-13.13 -2.41c-23.13,3.11 -11.49,6.12 -10.24,-9.13 -12.91,-11.6 -6.72,-11.84 -18.61,0.87 6.01,28.33 25.64,-25.73 3.69,19.52l-32.85 -19.08 25.17 1.76zm-74.11 -28.27c11.27,11.03 5.89,10.89 15.93,-2.15l-15.93 2.15zm368.41 59l-66.52 -21.65 -4.13 3.67 -7.09 14.74 77.74 3.24zm-210.19 17.87c19.55,6.06 33.76,10.29 53.83,16.29l42.16 7.13c95.98,-4.15 231.11,79.46 281.82,136.52 -24.73,-90.65 -105.37,-99.55 -128.97,-135.99 -14.94,-16.56 -7.18,-17.5 -22.26,-5.65l5.52 10.62 -15.86 -14.12c-13.53,-23.36 -7.57,-24.86 -18.04,0.02l-4.72 -3.11 -51.93 -15.65c-45.3,-12.37 31.84,6.5 -24.2,-8.02 -44.06,-11.42 -81.12,-38.42 -110.21,-19.42 -36.93,51.22 -4.89,3.7 -7.14,31.38zm222.85 -1.78l22.74 5.44 -22.74 -5.44zm-137.85 -59.76l-23.59 -0.97c17.41,17.56 18.04,8.56 6.03,26.13l16.35 -1.69c-11.72,-14.47 -10.71,-6.68 1.21,-23.47zm-18.19 -0.76c-11.83,-21.56 -4.76,-19.69 -21.67,-0.84l13.26 6.1 8.41 -5.26 20.47 0.68c-16.14,-13.46 -9.58,-15.88 -20.47,-0.68zm-226.47 295.27c-2.96,-0.64 2.01,-39.88 -34.36,24.31 -1.86,3.27 -6.12,14.86 -7.22,18.52 -5.04,16.73 -2.62,18.21 -3.73,30.39l6.54 8.98 5.19 4.85 33.58 -87.05zm697.82 383.72c14.66,15.66 7.46,16.16 21.61,1.04 -1.06,-1.9 -1.38,-3.34 -3.29,-5.65l-9.63 -29.7 63.69 29.11c31.06,6.43 36.97,4.51 66.77,14.59l-73.84 1.71c62.97,17.45 150.51,34.86 204.39,28.55 -67.14,-23.55 -78.59,-4.7 -130.55,-30.26 77.64,-33.25 69.85,53.79 62.46,-35.19 26.02,18.46 10.66,13.91 41.66,9.84 1.71,34.5 -2.06,2.9 -15.29,12.41 -24.99,18.02 -2.52,-31.13 -6.43,14.4 2.47,-0.7 8.14,-0.4 7.31,-2.31l54.15 3.07c59.29,15.95 24.01,21.51 73.28,-10.4l-161.33 -34.65c-1.29,1.05 -1.58,4.8 -3.05,4.02 -24.79,-13.34 25.61,56.98 -78.45,0.76l-252.83 -99.31c2.16,31.59 -10.23,6.75 57.62,32.82l195.21 66.49c-38.26,5.44 -106.3,-15.95 -134.92,-20.88 0.31,2.62 2.83,8.74 1.28,7.83 -1.43,-0.86 1.4,6.06 1.93,7.14l18.25 34.57zm236.32 49.94c7.34,1.02 18.84,9.15 24.33,9.44 2.5,0.15 6.78,0.15 9.33,0.11l20.23 -4.44 9.6 -2.25 50.22 -9.69c-88.62,-21.63 -53.34,8.31 -113.71,6.83zm72.65 7.69c14.83,3.76 20.88,7.79 32,9.53 41.95,6.52 8.81,3.98 40.2,-0.17 -38.72,-10.79 -34.61,-14.77 -72.2,-9.36zm-92.81 -11.04l-20.85 1.76c13.5,14.38 6.51,13.56 20.85,-1.76zm-38.94 -4.5l-22.55 1.03c13.86,17.58 6.4,16.22 22.55,-1.03zm-41.91 -9.34l-21.29 0.21c13.8,15.8 6.71,15.37 21.29,-0.21zm-45.24 -14.41l-16.78 1.17 16.78 -1.17z"/>
 </g>
</svg>
