<?xml version="1.0" encoding="UTF-8"?>
<!DOCTYPE svg PUBLIC "-//W3C//DTD SVG 1.1//EN" "http://www.w3.org/Graphics/SVG/1.1/DTD/svg11.dtd">
<!-- Creator: CorelDRAW 2017 -->
<svg xmlns="http://www.w3.org/2000/svg" xml:space="preserve" width="50.7998mm" height="33.8666mm" version="1.1" style="shape-rendering:geometricPrecision; text-rendering:geometricPrecision; image-rendering:optimizeQuality; fill-rule:evenodd; clip-rule:evenodd"
viewBox="0 0 5079.98 3386.66"
 xmlns:xlink="http://www.w3.org/1999/xlink">
 <defs>
  <style type="text/css">
   <![CDATA[
    .str3 {stroke:#373435;stroke-width:20;stroke-miterlimit:22.9256}
    .str2 {stroke:#ED3237;stroke-width:20;stroke-miterlimit:22.9256}
    .str4 {stroke:#201E1E;stroke-width:20;stroke-miterlimit:22.9256}
    .str1 {stroke:#201E1E;stroke-width:7.62;stroke-miterlimit:22.9256}
    .str0 {stroke:#FFCC06;stroke-width:7.62;stroke-miterlimit:22.9256}
    .fil10 {fill:none}
    .fil9 {fill:#373435}
    .fil6 {fill:#ED2F59}
    .fil11 {fill:#ED3237}
    .fil5 {fill:#201E1E}
    .fil7 {fill:#AD8882}
    .fil4 {fill:#FFCC06}
    .fil12 {fill:#201E1E;fill-rule:nonzero}
    .fil8 {fill:#201E1E;fill-rule:nonzero}
    .fil0 {fill:#307ABD;fill-rule:nonzero}
    .fil3 {fill:#EE423B;fill-rule:nonzero}
    .fil2 {fill:#EF4B43;fill-rule:nonzero}
    .fil1 {fill:#FFDD2F;fill-rule:nonzero}
   ]]>
  </style>
 </defs>
<symbol id="Fm1-63-0" viewBox="59814.27 250.66 3386.62 3386.68">
 <path class="fil0" d="M63200.89 1943.99c0,935.22 -758.12,1693.35 -1693.31,1693.35 -934.38,0 -1691.91,-756.72 -1693.31,-1690.77l0 -5.16c1.4,-934.02 758.94,-1690.74 1693.31,-1690.74 935.19,0 1693.31,758.12 1693.31,1693.31l0 0.01z"/>
</symbol>
<symbol id="Fm1-16-0" viewBox="-4066.6 -4035.54 5079.98 2337.84">
 <path class="fil1" d="M1013.38 -4035.54c-51.51,98.63 -103.03,197.25 -154.52,295.89 -2.45,4.69 -4.8,9.17 -11.03,9.62 -31.64,2.28 -63.27,4.64 -95.02,6.99 -0.81,-5.67 2.69,-9.39 4.72,-13.48 20.56,-41.34 41.3,-82.58 61.93,-123.87 1.9,-3.81 4.72,-7.31 4.69,-11.89 0.29,-0.13 0.63,-0.2 0.86,-0.4 0.14,-0.11 0.1,-0.43 0.14,-0.65 -0.31,0.37 -0.62,0.75 -0.93,1.12 -23.33,2.23 -45.07,10.89 -67.34,17.15 -200.58,56.34 -401.02,113.13 -601.49,169.87 -162.35,45.95 -324.67,92.09 -487.03,138.01 -179.76,50.84 -359.56,101.52 -539.34,152.29 -13.25,3.74 -26.47,7.64 -39.68,11.52 -6.69,1.96 -10.84,1.95 -12.45,-7.15 -5.31,-30.05 -11.36,-60 -17.98,-89.8 -2.04,-9.17 -0.03,-12.8 9.06,-15.27 73.51,-19.97 146.94,-40.28 220.34,-60.67 116.53,-32.36 233.03,-64.88 349.55,-97.3 122.33,-34.03 244.67,-68 367,-102 127.73,-35.49 255.45,-70.97 383.18,-106.46 130.22,-36.18 260.42,-72.39 390.65,-108.54 75.48,-20.95 150.98,-41.8 226.46,-62.76 1.13,-0.31 2.04,-1.46 3.05,-2.22l5.18 0z"/>
 <path class="fil1" d="M-1696.68 -1931.83c0.54,0.03 1.07,0.06 1.6,0.09 2.83,-32.59 5.57,-65.2 8.5,-97.79 7.45,-82.91 15.07,-165.81 22.45,-248.73 6.46,-72.61 12.57,-145.25 19.05,-217.86 7.31,-82.06 14.85,-164.09 22.32,-246.13 0.53,-5.74 -0.05,-10.73 -3.75,-15.76 -22.77,-30.92 -45.38,-61.97 -67.61,-93.29 -4.93,-6.95 -7.28,-7.34 -12.48,-0.17 -23.56,32.49 -47.55,64.67 -71.69,96.73 -4.07,5.4 -4.38,10.51 -3.7,16.82 7.58,69.89 14.88,139.8 22.25,209.71 6.42,60.9 12.81,121.81 19.25,182.71 7.36,69.47 14.79,138.94 22.16,208.42 7.25,68.42 14.44,136.84 21.65,205.26l0 -0.01zm-233.61 -1241.21c-6.95,-32.04 -17.99,-62.91 -27.44,-94.21 -58.39,-193.49 -117.15,-386.87 -175.76,-580.29 -0.98,-3.22 -1.72,-6.52 -3,-11.44 5.99,2.62 7.73,7.06 10.22,10.48 134.44,184.55 268.8,369.15 403.18,553.75 1.26,1.75 2.73,3.39 3.76,5.27 5.34,9.74 9.29,10.66 16.51,0.38 114.62,-163.16 229.7,-325.99 344.48,-489.03 33.01,-46.9 65.43,-94.22 98.12,-141.35 0.69,0.58 1.38,1.16 2.06,1.73 -20.71,65.31 -41.27,130.69 -62.18,195.95 -56.41,176.1 -112.95,352.16 -169.42,528.24 -1.01,3.14 -1.67,6.41 -3.13,12.07 56.67,-21.89 111.48,-43.05 168.76,-65.17 -6.86,27.87 -13.17,53.58 -19.5,79.28 -4.02,16.32 -7.49,32.82 -12.35,48.89 -3.24,10.72 -0.94,12.83 9.64,10.15 46.38,-11.74 92.87,-23.06 139.33,-34.48 68.18,-16.74 136.37,-33.44 205.49,-50.39 -3.25,6.1 -8.48,8.39 -12.74,11.58 -131.89,99.02 -263.75,198.08 -395.97,296.67 -9.82,7.32 -8.97,10.66 -1.01,18.65 81.69,81.99 163.17,164.22 243.06,247.98 4.96,5.2 9.54,10.75 12.98,18.72 -27.36,-4.65 -54.81,-8.83 -82.07,-14.03 -77.06,-14.72 -154.07,-29.73 -231.03,-44.97 -8.85,-1.76 -10.75,1.11 -12.02,9.35 -6.6,42.99 -13.96,85.87 -21.39,130.78 -34.66,-25.18 -68.3,-49.63 -101.95,-74.07 -1.1,-0.63 -2.19,-1.26 -3.29,-1.89 -0.42,-0.61 -0.85,-1.22 -1.28,-1.83 -0.16,0.38 -0.33,0.75 -0.49,1.12 0.67,0.17 1.34,0.34 2,0.51 -1.14,1.6 -0.19,2.8 0.76,4.01 37.6,60.46 75.2,120.92 112.82,181.37 5.46,8.77 10.97,17.5 16.99,27.09 5.19,-5.09 4.99,-11.38 6.44,-16.73 15.31,-56.14 30.59,-112.29 45.26,-168.6 2.63,-10.09 6,-12.91 16.76,-10.46 152.97,34.93 306.05,69.38 459.09,103.97 3.33,0.76 6.58,2.06 10.17,0.66 0.09,-5.12 -4.31,-7.22 -7.13,-10.14 -122.11,-126.47 -244.17,-252.97 -366.67,-379.04 -8.91,-9.18 -7,-12.19 2.51,-18.28 171.98,-110.02 343.74,-220.35 515.58,-330.58 3.18,-2.03 5.99,-5.06 11.44,-4.89 -5.2,25.03 -10.43,49.78 -15.47,74.58 -3.52,17.35 -3.4,17.36 12.97,12.03 124.62,-40.55 249.23,-81.08 373.85,-121.61 325.07,-105.76 650.14,-211.52 975.21,-317.25 4.02,-1.3 8.15,-2.31 13.73,-1.02 -399.23,292.39 -798.46,584.79 -1199.97,878.86 185.94,3.59 368.97,7.13 552,10.66 0.19,0.86 0.39,1.7 0.59,2.56 -282.57,119.35 -565.14,238.7 -850.21,359.1 50.67,32.44 99.56,63.75 148.4,95.02 0.11,4.3 -3.58,4.64 -5.85,5.95 -301.58,172.32 -603.23,344.52 -904.71,517.05 -8.56,4.9 -14.18,2.14 -21.14,-1.76 -146.04,-81.83 -292.16,-163.54 -438.21,-245.34 -155.1,-86.86 -310.15,-173.79 -465.23,-260.69 -1.5,-0.84 -2.96,-1.81 -4.54,-2.47 -9.99,-4.17 -7.43,-7.72 0.07,-12.2 34.81,-20.82 69.47,-41.9 104.19,-62.88 23.6,-14.26 47.2,-28.51 73.43,-44.34 -315.18,-116.19 -627.9,-231.46 -940.62,-346.74 0.17,-0.75 0.34,-1.49 0.51,-2.24 183.03,-6.56 366.05,-13.12 550.09,-19.72 -1.8,-5.43 -6.33,-7.31 -9.85,-9.91 -135.14,-100.45 -272.65,-197.64 -410.15,-294.8 -271.48,-191.83 -543.35,-383.1 -815.04,-574.63 -2.75,-1.94 -5.16,-4.37 -7.73,-6.58l-0.22 0.18c5.94,-1.72 11.03,1.52 16.21,3.19 473.29,152.92 946.52,305.95 1419.79,458.91 6.44,2.08 15.03,8.05 19.18,4.19 5.38,-5.01 -1.02,-13.6 -2.6,-20.52 -3.82,-16.71 -8.34,-33.25 -12.63,-50.08 5.7,-1.26 8.25,2.21 11.23,4.13 163.7,105.26 327.31,210.67 491.14,315.74 9.1,5.83 8.81,9.04 1.89,16.66 -108.33,119.2 -216.34,238.69 -324.41,358.12 -1.13,1.24 -2.13,2.59 -5.13,6.28 26.24,-5.2 49.92,-9.84 73.58,-14.59 126.78,-25.45 253.58,-50.81 380.29,-76.61 9.83,-2.01 13.11,0.53 15.6,9.84 15.09,56.19 30.79,112.21 46.3,168.29 0.91,3.31 1.96,6.58 2.94,9.88 4.28,0.08 4.69,-3.53 6.05,-5.77 38.16,-62.66 76.22,-125.36 114.26,-188.07 1.11,-1.83 1.82,-3.89 2.7,-5.85 0.73,-0.99 1.63,-2.08 -0.03,-2.91 -0.31,-0.16 -1.18,0.82 -1.78,1.27 -32.12,12.43 -64.38,24.51 -96.25,37.54 -8.78,3.59 -12.15,2.96 -15.19,-6.64 -8.3,-26.29 -18.03,-52.12 -26.69,-78.3 -2.34,-7.06 -5.09,-8.78 -12.89,-7.55 -90.26,14.21 -180.62,27.87 -270.95,41.62 -4.66,0.71 -9.38,0.95 -17.26,1.72 9.75,-10.65 17.55,-19.43 25.64,-27.95 71.34,-75.15 142.6,-150.36 214.26,-225.18 7.86,-8.21 9.38,-12.06 -0.98,-19.92 -137.12,-104.17 -273.85,-208.84 -410.67,-313.41 -3.65,-2.79 -7.11,-5.83 -12.95,-10.65 16.37,1.01 28.8,5.62 41.43,8.76 103.27,25.7 206.45,51.74 309.66,77.68 15.82,3.97 15.87,3.89 11.79,-11.39 -9.78,-36.63 -19.56,-73.27 -29.28,-109.91 -0.73,-2.77 -2.96,-5.46 -0.3,-9.75 9.17,3.91 18.53,7.8 27.83,11.88 44.61,19.53 89.2,39.14 133.83,58.63 3.1,1.36 6.49,2.05 9.74,3.05 0.47,0.46 1.26,1.38 1.35,1.33 1.36,-0.98 0.8,-1.7 -0.43,-2.25l0.04 0z"/>
</symbol>
<symbol id="Fm0-14-0" viewBox="675.84 -3262.45 3454.76 3386.61">
 <path class="fil2" d="M675.84 -1418.69c12.24,11.9 20.47,26.81 30.08,40.62 35.56,51.12 68.84,103.82 106.98,153.14 20.57,26.59 42.15,52.3 66.5,75.58 1.58,1.51 2.74,3.77 6.39,3.7 -4.21,-16.16 -8.37,-32.1 -12.48,-48.04 -18.47,-71.56 -31.91,-144.09 -42.88,-217.14 -8.15,-54.21 -13.01,-108.61 -11.94,-163.47 0.2,-10.02 -2.96,-19.96 0.1,-30.1 1.69,-5.61 4.98,-9.02 10.14,-10.96 19.49,-7.32 43.3,7.2 45.11,27.78 2.67,30.46 3.67,61.01 7.51,91.42 11.13,88.14 23.77,175.89 48.75,261.5 28.97,99.27 68.17,194.3 116.12,285.74 36.3,69.22 80.63,133.26 128.63,194.83 29.67,38.05 60.45,75.21 92.44,111.3 23.82,26.87 50.63,50.84 77.78,74.35 29.31,25.38 57.17,52.58 88.83,75.07 72.85,51.77 147.43,100.92 225.23,145.02 10.82,6.13 14.84,14.07 11.57,28.19 -6.45,27.89 -13.61,55.61 -20.35,83.44 -2.05,8.46 -7.32,11.75 -15.71,11.18 -8.28,-0.56 -16.07,-3.14 -23.37,-6.65 -68.48,-32.96 -137.16,-65.96 -200.82,-107.5 -77.53,-50.6 -152.37,-105.28 -223.81,-164.26 -55.17,-45.55 -104.25,-97.41 -152.14,-150.57 -59.72,-66.29 -105.54,-141.4 -146.54,-219.96 -52.4,-100.43 -96.71,-204.43 -137.63,-309.95 -26.5,-68.35 -51.39,-137.28 -73.26,-207.28 -0.18,-0.57 -0.8,-0.99 -1.22,-1.48l0 -25.47 -0.01 -0.03z"/>
 <path class="fil3" d="M2454.77 -1766.11c0.02,-14.2 -4.43,-21.43 -16.47,-29.83 -6.64,-4.64 -14.04,-8.3 -19.21,-14.85 -9.51,-12.02 -20.84,-12.46 -30.88,-0.78 -5.15,5.99 -10.81,11.26 -17.25,15.77 -14.47,10.11 -19.55,23.31 -14.62,40.72 4.04,14.28 7.24,28.83 10.14,43.4 9.39,47.29 18.45,94.64 27.69,141.96 0.8,4.1 1.35,7.99 7.44,8.26 5.77,0.25 7.06,-2.76 8.4,-7.1 3.71,-12.03 8.14,-23.85 11.48,-35.98 10.51,-38.11 15.61,-77.35 23.56,-115.99 3.32,-16.14 6.88,-32.23 9.74,-45.57l-0.02 -0.01zm1061.83 135.88c-7.95,0.38 -15.26,-2.87 -22.93,-4.11 -38.54,-6.23 -73.78,2.96 -106.88,22.33 -24.01,14.05 -45.75,31.31 -67.32,48.73 -8.25,6.66 -14.28,15.12 -18.49,24.9 -17.07,39.71 -47.5,57.85 -90.41,56.65 -21.48,-0.61 -42.99,1.1 -64.24,-4.36 -9.58,-2.46 -18.88,1.05 -26.66,6.95 -6.22,4.7 -11.88,10.18 -17.54,15.57 -5.68,5.41 -11.39,10.7 -17.78,15.32 -3.54,2.56 -9.72,1.91 -10.7,7.27 -1.17,6.42 -0.8,13.03 1.75,19.24 4.38,10.63 14.26,15.11 26.63,12.19 9.19,-2.16 18.29,-5.04 27.61,-6.25 17.15,-2.23 34.5,-3.85 51.52,0.94 23.19,6.52 35.74,24.36 44.52,44.88 4.85,11.33 -2.86,22.34 -15.46,24.07 -8.69,1.19 -17.58,0.88 -26.35,1.57 -18.93,1.49 -26.73,10.45 -25.76,29.4 0.13,2.6 0.48,5.2 0.88,7.77 4.04,25.72 -9.92,46.29 -35.78,48.7 -33.78,3.14 -58.51,20.08 -78.75,45.68 -10.72,13.57 -21.13,27.4 -34.66,38.48 -22.53,18.47 -47.21,22.15 -74.15,11.3 -15.84,-6.38 -30.35,-15.04 -43.63,-25.75 -2.29,-1.85 -4.45,-3.85 -6.73,-5.7 -18.08,-14.65 -28.42,-11.76 -36.19,10.09 -5.24,14.76 -6.2,15.33 -22.07,12.82 -4.18,-0.66 -8.35,-1.44 -12.53,-2.1 -19.65,-3.06 -35.25,1.36 -49.42,17.61 -24.39,27.96 -54.31,30.84 -86.26,11.59 -14.51,-8.74 -28.63,-18.12 -44.42,-24.56 -25.75,-10.52 -51.32,-10.54 -76.96,0.51 -12.34,5.32 -23.55,12.53 -35.07,19.28 -78.32,45.83 -156.89,46.73 -235.17,0.08 -20.31,-12.11 -40.76,-23.31 -64.56,-26.59 -33.21,-4.58 -61.59,6.79 -87.19,26.87 -9.34,7.33 -19.21,13.59 -30.93,16.13 -26.89,5.84 -48.73,-3.68 -64.51,-24.88 -11.93,-16.04 -26.88,-19.12 -44.72,-16.77 -4.52,0.59 -8.94,1.84 -13.45,2.54 -15.12,2.33 -20.53,-1.77 -22.34,-16.76 -1.62,-13.41 -3.62,-14.82 -17.17,-12.3 -10.89,2.03 -20.04,7.5 -28.62,14.2 -13.41,10.48 -27.43,19.87 -43.76,25.38 -25.97,8.76 -49.43,4.1 -70.78,-12.7 -11.94,-9.39 -21.05,-21.31 -30.19,-33.25 -16.3,-21.28 -34.65,-40.12 -61.61,-47.46 -8.45,-2.31 -17.27,-3.22 -25.83,-5.21 -23.45,-5.44 -33.9,-20.73 -30.69,-44.39 0.39,-2.9 0.62,-5.85 0.71,-8.77 0.53,-19.34 -6.9,-28.41 -25.92,-31.28 -9.33,-1.41 -18.89,-1.69 -28.07,-3.71 -15.05,-3.32 -19.68,-12.49 -12.56,-26.04 18.61,-35.41 52.62,-58.99 99.41,-41.85 6.72,2.46 13.3,5.49 20.2,7.25 15.56,3.95 32.3,-8.38 33.65,-24.26 0.41,-4.84 -0.5,-9.07 -5.17,-11.73 -10.92,-6.21 -19.61,-15.12 -28.55,-23.71 -16.22,-15.56 -34.11,-21.26 -57.14,-16.06 -29.57,6.67 -59.81,4.04 -89.31,-2.62 -18.82,-4.24 -32.57,-15.06 -39.4,-34.29 -6.83,-19.28 -20.25,-34.22 -36.19,-46.56 -22.19,-17.16 -44.43,-34.32 -67.53,-50.21 -31.05,-21.37 -64.53,-26.93 -100.08,-11.24 -2.37,1.05 -4.91,2.16 -7.43,2.34 -5.27,0.37 -8.55,-2.88 -10.34,-7.44 -1.43,-3.64 0.25,-6.65 3.73,-7.92 32.74,-11.91 62.03,-31.89 96,-40.94 22.63,-6.02 44.57,-4.27 65.99,4.96 7.79,3.36 15.58,6.74 23.93,8.4 14.24,2.83 24.05,-2.52 29.77,-15.94 4.4,-10.32 6.86,-21.19 6.99,-32.32 0.24,-21.62 -10.45,-36.32 -30.04,-44.95 -29.83,-13.15 -61.05,-20.99 -93.48,-23.2 -41.28,-2.81 -82.17,0.44 -122.29,11.09 -19.2,5.1 -36.48,14.03 -51.01,27.76 -12.15,11.5 -26.06,13.94 -41.64,8.75 -11.81,-3.94 -22.5,-10.24 -33.54,-15.83 -7.84,-3.96 -15.67,-8.01 -23.76,-11.4 -13.92,-5.83 -27.08,-4.06 -38.02,6.56 -5.14,4.99 -7.31,3.06 -9.69,-1.94 -3.47,-7.31 -3.91,-15.04 -3.38,-22.95 1.83,-27.51 -7.85,-38.38 -35.34,-40.11 -5.19,-0.33 -10.43,-0.94 -15.51,-2.03 -19.78,-4.24 -30.72,-18.26 -27.9,-38.38 2.29,-16.41 -1.91,-27.92 -17.29,-35.27 -7.13,-3.41 -12.18,-9.78 -16.72,-16.23 -9.92,-14.11 -18.33,-29.29 -30.65,-41.72 -5.03,-5.09 -6.2,-11.57 -0.59,-17.5 5.38,-5.69 11.77,-4.56 16.74,-0.28 29.33,25.28 66.69,26.32 101.78,33.39 17.27,3.48 35.19,-0.63 52.17,-5.6 15.77,-4.62 23.2,-14.96 23.25,-29.94 0.06,-16.46 -7.25,-27.27 -23.08,-32.34 -18.19,-5.83 -37.32,-5.8 -56.11,-7.52 -51.92,-4.76 -103.71,-0.57 -155.52,2.73 -37.4,2.39 -74.41,1.13 -109.41,-14.66 -10.61,-4.79 -20.92,-10.11 -30.8,-18.74 16.88,-2.32 32.5,-4.42 48.1,-6.64 2.56,-0.36 5.1,-1.09 7.57,-1.87 20.98,-6.71 24.79,-21.85 9.19,-37.45 -15.05,-15.06 -32.14,-27.69 -49.36,-40.08 -14.08,-10.14 -26.97,-21.52 -39.26,-33.78 -12.4,-12.37 -16.71,-27 -15.81,-43.94 0.26,-4.82 3.01,-5.24 6.51,-4.96 5.64,0.44 10.85,2.46 15.53,5.5 14.12,9.2 30.24,11.74 46.39,13.94 11.16,1.52 20.74,-2.22 27.33,-11.65 2.96,-4.22 6.82,-6.65 11.2,-8.99 18.71,-10.03 38.18,-18.15 58.27,-24.99 10.8,-3.68 20.42,-9.35 20.34,-23.12 -0.05,-9.39 -4.53,-15.27 -13.49,-18 -8.62,-2.63 -17.46,-2.05 -26.25,-2.09 -12.14,-0.04 -24.05,-1.61 -35.7,-5.04 -16.21,-4.77 -26.07,-15.85 -26.82,-32.38 -1.4,-30.63 -16.14,-50.6 -43.06,-64.53 -27.69,-14.32 -33.57,-38.46 -17.19,-64.95 7.68,-12.43 17.66,-23.42 26.26,-35.31 13.27,-18.34 12.03,-25.25 -6.51,-38.48 -5.57,-3.97 -11.29,-7.76 -17.15,-11.29 -2.96,-1.79 -3.97,-4.08 -3.74,-7.27 0.35,-4.79 4.25,-3.18 6.72,-3.43 7.78,-0.79 15.61,-1.22 23.42,-1.71 16.65,-1.06 26.24,-8.05 29.02,-21.24 3.21,-15.23 -1.08,-24.88 -16.55,-32.66 -19.56,-9.85 -38.12,-21.26 -56.54,-33 -4.4,-2.81 -6.96,-6.28 -8.69,-11.13 -13.35,-37.52 -21,-75.6 -18.22,-115.96 3.03,-43.8 -1.1,-87.25 -12.19,-130.04 -4.88,-18.83 -2.79,-37.13 14.32,-50.5 5.23,-4.08 7.94,-5.11 9.95,3.27 6.77,28.26 16.46,55.57 29.75,81.47 3.1,6.05 7.06,11.72 11.14,17.19 3.89,5.2 8.87,8.98 15.97,5.96 6.75,-2.88 9.96,-8.27 9.75,-15.5 -0.46,-15.31 -1.1,-30.62 -1.69,-45.94 -0.1,-2.6 -0.6,-5.23 -0.43,-7.81 0.46,-7.31 5.85,-10.95 12.06,-7.22 9.05,5.44 17.08,11.09 20.57,23.05 13.98,48.05 39.75,90.48 66.42,132.3 16.5,25.87 34.19,50.95 54.78,73.8 4.72,5.24 9.42,10.68 17.2,14.22 -4.16,-20.13 -9.95,-38.72 -15.96,-57.25 -7.04,-21.71 -14.94,-43.08 -25.83,-63.21 -4.84,-8.95 -10.58,-17.16 -18.3,-23.98 -9.49,-8.38 -15.47,-19.34 -20.6,-30.64 -8.06,-17.79 -15.72,-35.76 -23.36,-53.74 -9.75,-22.95 -23.38,-42.51 -44.13,-57.3 -19.92,-14.19 -25.61,-39.57 -15.24,-61.9 13.14,-28.3 10.27,-54.48 -9.65,-78.52 -11.67,-14.08 -23.98,-27.53 -39.67,-37.49 -5.19,-3.29 -10.87,-7.2 -7.58,-14.93 3.26,-7.67 8.94,-12.07 17.66,-10.71 3.48,0.54 7.03,1.63 10.17,3.21 12.52,6.28 25.02,12.61 37.29,19.36 13.88,7.64 23,18.99 25.33,35.11 0.89,6.09 3.9,10.85 10.47,10.92 7.3,0.08 11.63,-5.11 12.45,-11.6 0.93,-7.36 0.22,-14.96 -0.15,-22.44 -2.31,-47.04 10.1,-88.19 47.5,-119.41 4.76,-3.97 9.35,-8.21 14.45,-11.67 5.09,-3.45 10.98,-5.24 16.12,-0.12 4.67,4.65 3.94,10.44 0.61,15.32 -11.88,17.4 -12.42,38.15 -17.21,57.58 -3.73,15.13 1.66,28.17 14.3,36.89 19.37,13.38 21.15,31.43 15.9,51.94 -0.81,3.15 -1.81,6.29 -3.11,9.26 -10.17,23.21 -5.61,43.76 10.68,62.52 12.81,14.74 28.25,27.21 38.21,44.44 2.43,4.2 5.99,3.44 8.99,0.45 4.55,-4.54 6.7,-10.12 7.41,-16.58 2.28,-20.79 3.26,-41.64 3.65,-62.53 0.24,-13.46 2.47,-26.57 7.39,-39.2 7.38,-18.91 20.84,-30.05 40.98,-33.58 28.06,-4.92 35.17,-12.69 38.37,-40.64 0.52,-4.54 1.02,-9.08 1.53,-13.62 4.27,-38.25 41.84,-70.57 80.42,-69.44 4.76,0.15 6.27,1.01 4.98,6.12 -7.72,30.59 -18.65,58.94 -40,83.66 -55.64,64.42 -75.02,140.59 -65.74,224.18 11.79,106.14 53.07,201.65 108.82,291.47 52.21,84.12 115.83,159.34 183.17,231.51 134.69,144.35 287.28,267.66 447.84,381.73 134.65,95.66 275.91,180.95 416.19,267.81 16.71,10.34 32.95,21 46.24,35.79 6.59,7.33 14.7,12.24 25.2,7.21 9.92,-4.75 14.98,-14.87 13.13,-27.01 -1.35,-8.78 -5.34,-16.7 -8.95,-24.73 -12.22,-27.22 -21.76,-55.14 -22.52,-85.41 -0.62,-24.75 6.67,-46.82 21.39,-66.64 16.71,-22.5 15.23,-39.79 -6.11,-57.97 -46.92,-40 -70.63,-92.59 -83.56,-151.23 -11.02,-49.99 -17.16,-100.88 -27.73,-150.97 -5.04,-23.92 5.74,-43.11 27.63,-53.73 2.92,-1.42 5.95,-2.64 8.98,-3.84 32.92,-12.98 48.81,-37.58 49.47,-72.53 0.23,-12.4 0.3,-24.78 3.2,-36.97 7.23,-30.5 28.12,-48.19 55.61,-59.81 33.74,-14.27 56.37,-39.21 69.35,-73.08 16.98,-44.3 14.67,-88.97 0.69,-133.34 -11.01,-34.93 -17.29,-70.18 -13.03,-106.91 4.17,-35.98 21.93,-55 61.13,-67.71 4.23,-1.37 5.08,0.64 6.25,3.62 3.42,8.67 -0.36,16.05 -4.37,23.15 -9.08,16.06 -13.65,33.09 -11.91,51.57 2.09,22.18 10.25,42.36 21.43,61.3 5.36,9.08 12.3,9.55 20.3,2.43 3.14,-2.79 5.71,-6.24 8.45,-9.47 4.42,-5.19 8.54,-12.14 16.51,-9.76 7.81,2.33 8.49,10.38 8.9,17.11 1.27,20.52 2,41.08 2.81,61.63 0.78,19.57 1.17,39.15 5.78,58.34 3.61,15.04 8.36,30.01 18.16,41.84 22.56,27.22 24.25,58.02 18.45,90.65 -3.66,20.61 -5.83,41.25 -4.98,62.3 1.39,34.43 -5.74,68.2 -9.17,102.26 -1.83,18.15 -2.08,35.91 9.13,51.71 3.04,4.28 6.17,8.49 10.96,10.97 9.42,4.88 17.5,1.18 20.17,-9.11 3.27,-12.6 6.25,-25.29 9.98,-37.76 4.43,-14.84 13.77,-25.42 29.67,-31.07 -8.46,49.5 6.35,95.4 18.41,141.24 9.53,36.21 3.62,67.94 -16.62,98.52 -19.8,29.92 -42.25,57.26 -71.42,78.48 -14.49,10.54 -30.04,18.48 -49,15.14 -4.62,-0.81 -8.79,-2.48 -12.56,-5.13 -14.85,-10.47 -15.08,-19.25 1.14,-25.96 25.63,-10.61 34.07,-29.77 26.71,-60.1 -7.08,-29.19 -18.21,-57.05 -27.74,-85.44 -2.05,-6.12 -4,-4.23 -7.05,-1.17 -13.9,13.94 -19.3,31.37 -20.84,50.4 -0.68,8.46 -1.42,16.92 -1.72,25.4 -0.16,4.32 -1.93,5.32 -5.99,5.42 -15.6,0.37 -27.12,-8.12 -31.68,-25.16 -8.49,-31.71 -10.18,-63.5 -0.95,-95.59 8.74,-30.38 21.64,-59.35 29.5,-90.01 9.12,-35.57 11.99,-71.32 5,-107.6 -0.6,-3.12 -0.75,-6.36 -3.18,-9.61 -8.12,16.32 -15.89,32.39 -24.07,48.25 -10.57,20.5 -16.13,23.1 -38.86,19.13 -17.91,-3.13 -30.24,2.41 -33.87,19.54 -12.49,58.85 -30.89,116.85 -27.73,178.18 2.35,45.44 21.2,84.97 44.24,122.84 22.72,37.35 54.54,64.48 94.96,81.44 35.43,14.85 63.62,37.48 76.05,75.26 12.05,36.61 6.02,72.21 -9.25,106.59 -5.43,12.21 -11.16,24.29 -14.98,37.1 -4.27,14.37 -0.58,24.88 10.17,31.74 6.9,4.4 14.04,4.87 19.84,-0.75 31.81,-30.8 71.57,-49.85 108.4,-73.05 128.04,-80.65 256.59,-160.46 379.35,-249.16 132.76,-95.92 261.14,-197.44 376.04,-314.24 89.41,-90.89 176.48,-184.52 242.52,-295.09 48.94,-81.95 84.46,-168.89 100.05,-263.35 15.17,-91.88 -3.02,-175.07 -66.12,-246.09 -15.73,-17.72 -23.96,-39.35 -31.4,-61.35 -2.71,-8.01 -5.65,-15.96 -8.5,-23.96 28.24,-3.43 65.99,18.55 79.96,46.23 6.69,13.25 10.11,27.5 13.07,41.84 3.85,18.65 13.73,30.22 32.93,35.54 30.85,8.56 47.7,30.83 49.6,62.92 1.13,19.16 4.32,38.2 2.59,57.59 -0.91,10.21 2.05,20.06 9.5,27.95 3.38,3.57 6.75,5.15 10.74,0.95 20.85,-21.97 37.71,-46.58 48.85,-74.86 2.09,-5.29 0.35,-10.98 -0.06,-16.5 -1,-13.33 -2.56,-26.6 -1.76,-40.05 1.28,-21.4 10.38,-38.7 25.98,-53 11.23,-10.3 12.68,-16.67 7.08,-31.33 -5.26,-13.76 -13.71,-25.89 -20.31,-38.98 -3.03,-6 -4.62,-11.86 -2.41,-18.7 3.05,-9.44 7.56,-11.5 15.82,-5.51 11.67,8.45 21.49,19.03 31.74,29.08 1.31,1.28 2.21,3.27 2.67,5.09 3.53,14.01 10,26.84 15.9,39.88 8.87,19.56 12.54,39.61 7.81,60.94 -1.99,8.99 -2.19,18.18 0.77,27.1 2.74,8.27 8.33,13.14 17.3,13.28 9.1,0.15 10.94,-6.76 12.61,-13.58 1.24,-5.06 2.13,-10.2 3.32,-15.27 4.96,-21.19 31.46,-34.11 51.49,-25.23 3.39,1.51 5.82,4.02 4.79,7.51 -2.29,7.69 -3.62,15.86 -9.95,21.87 -7.11,6.74 -13.58,14.09 -19.09,22.26 -12.75,18.88 -13.31,38.06 -2.41,58.05 11.03,20.22 9.32,39.76 -4.9,57.94 -65.39,83.62 -117.85,174.28 -150.35,275.8 -0.97,3.04 -4.69,7.07 -1.15,9.63 3.68,2.65 9,2.58 13.05,-0.15 4.56,-3.09 8.75,-6.8 12.83,-10.55 51.98,-47.73 83.84,-107.45 103.63,-174.33 2.86,-9.68 5.12,-19.55 8.27,-29.13 3.9,-11.87 11.69,-19.98 24.09,-23.59 5.97,-1.74 7.39,-0.15 7,5.71 -1.25,18.89 -2.12,37.8 -3.16,56.7 -0.46,8.33 -0.74,16.58 8.33,21.14 8.99,4.52 15.98,0.6 23.31,-4.65 20.58,-14.76 26.55,-36.12 28.31,-59.69 0.68,-9.11 1.69,-18.16 7.38,-25.94 4.51,-6.16 9.22,-6.65 14.55,-1.24 7.2,7.3 11.77,14.3 9.72,26.35 -10.77,63.22 -13.15,127.17 -14.19,191.17 -0.86,53.36 -22.93,85.79 -72.42,106.06 -3.31,1.36 -6.64,2.72 -9.84,4.3 -13.67,6.76 -18.09,15.17 -15.45,29.14 2.43,12.84 10,19.48 25.13,19.82 15.99,0.35 31.86,0.81 47.74,5.18 -2.19,6.41 -6.83,9.98 -12.65,12.65 -8.57,3.94 -17.24,7.8 -25.43,12.45 -14.91,8.46 -16.55,15.28 -6.58,29 7.08,9.75 15.14,18.8 22.85,28.09 5.87,7.08 10.83,14.66 13.79,23.46 6.4,19.03 2.05,35.29 -12.47,48.94 -6.25,5.88 -13.86,9.63 -21.37,13.62 -18.87,10.04 -30.95,25.07 -31.59,47.12 -0.81,28.03 -7.39,47.1 -52.15,48.64 -12.04,0.41 -24.11,1.37 -36.06,2.95 -13.74,1.83 -18.47,15.36 -9.56,26.2 4.07,4.94 9.54,7.94 15.48,9.87 26.02,8.46 49.64,21.2 70.96,38.4 11.69,9.44 25.02,9.92 38.89,5.3 16.56,-5.52 30.93,-15.22 45.89,-23.81 3.59,-2.06 7.18,-4.11 11.69,-6.7 1.15,14.6 -1.52,27.41 -6.97,39.67 -4.68,10.53 -10.9,20.35 -19.4,27.99 -25.41,22.84 -47.96,48.93 -76.76,67.96 -7.07,4.67 -12.79,10.34 -11.26,19.98 1.54,9.73 7.58,15.79 16.39,19.02 14.77,5.4 30.27,3.78 45.56,4.23 4.03,0.12 9.62,-2.63 11.12,4.43 1.59,7.52 -4.24,8.31 -9,10.27 -9.63,3.98 -19.47,7.57 -28.73,12.28 -35.35,17.95 -71.5,22.3 -110.88,14.06 -52.05,-10.9 -105.15,-9.62 -158.02,-4.98 -14.28,1.25 -28.62,2.76 -42.7,5.36 -20.91,3.87 -30.05,15.86 -29.15,36.19 0.69,15.58 9.52,25.71 27.21,30.06 28.59,7.04 57.01,4.99 85.09,-2.96 21.39,-6.05 41.85,-14.41 60.96,-25.92 1.95,-1.17 4.05,-2.08 6.11,-3.06 5.54,-2.65 10.16,-1.15 13.97,3.31 4.03,4.71 3.75,9.87 0.07,14.32 -8.52,10.32 -17.1,20.61 -26.27,30.33 -13.56,14.37 -25.05,29.88 -32.59,48.35 -4.17,10.21 -9.55,19.99 -15.05,29.58 -12.65,22.08 -31.8,34.21 -57.4,34.82 -8.7,0.21 -10.99,3.64 -9.2,11.49 0.65,2.85 0.78,5.82 1,8.75 1.27,17.12 -5.32,28.12 -22.2,28.17 -29.36,0.07 -54.31,11.56 -79.62,23.79 -15.06,7.27 -31.17,9.47 -47.58,4.31 -3.62,-1.14 -7.27,-2.18 -9.36,-6.3 -6.3,-12.42 -17.28,-19.21 -30.06,-23.4 -42.36,-13.92 -85.84,-18.97 -130.27,-16.05 -27.4,1.81 -54.4,6.37 -80.97,13.26 -39.21,10.16 -57.03,36.64 -49.82,73.51 5.13,26.24 24.17,35.85 47.87,23.62 11.31,-5.84 22.34,-12.13 34.87,-14.99 24.17,-5.54 46.21,0.66 65.98,14.12 14.73,10.03 30.29,17.49 47,23.39 13.07,4.62 25.8,10.61 33.86,23l-0.09 0.09 0.13 -0.04z"/>
 <path class="fil3" d="M1808.85 -382.66c3.82,2.63 7.21,5.08 10.72,7.36 26.45,17.19 52.89,16.36 74.71,-6.31 17.1,-17.75 38.35,-26.57 59.74,-35.84 9.11,-3.95 14.14,-8.37 14.13,-19.21 -0.03,-28.07 13.26,-50.49 32.16,-70.19 14.7,-15.31 31.6,-28.2 48.14,-43.37 -12.77,-5.57 -25.67,-6.17 -38.18,-8.25 -11.59,-1.93 -23.19,-3.66 -33.91,-8.83 -2.88,-1.39 -6.52,-2.54 -6.63,-6.42 -0.11,-3.92 3.38,-5.09 6.33,-6.55 12.71,-6.27 12.62,-6.28 5.12,-18.56 -2.3,-3.76 -5.96,-7.58 -3.25,-12.48 2.64,-4.78 7.67,-4.31 12.2,-4.39 10.44,-0.17 21.03,0.92 31.29,-0.48 29.57,-4.04 49.13,-21.2 52.51,-52.14 3.87,-35.4 23.67,-56.08 52.58,-72.31 43.2,-24.25 87.92,-45.57 131.5,-69.06 18.08,-9.74 36.06,-19.7 53.03,-31.3 27.3,-18.66 32.4,-31.69 25.28,-64.06 -2.52,-11.46 -5.57,-22.8 -7.76,-34.32 -3.37,-17.8 2.31,-32.12 17.69,-42.22 2.72,-1.79 5.5,-3.5 8.22,-5.29 22.3,-14.72 21.13,-40.94 -2.52,-53.82 -11.82,-6.44 -25.04,-9.15 -37.65,-13.49 -4.79,-1.65 -9.63,-3.14 -14.77,-4.8 2.7,-5.59 7.22,-7.79 11.86,-8.88 14.36,-3.4 27.42,-10.08 40.95,-15.55 9.95,-4.02 20.18,-5.93 30.63,-3.82 34.09,6.87 68.76,6.92 103.22,9.46 26.36,1.94 52.73,3.91 79.06,6.13 9.11,0.77 17.07,4.43 22.49,12.2 2.32,3.33 5.45,5.52 8.66,7.78 91.04,64.23 140.86,152.21 152.77,262.69 3.19,29.59 -6.15,53.84 -24.84,75.47 -22.57,26.11 -49.72,47.07 -77.35,67.41 -19.7,14.5 -39.69,28.63 -59.68,42.72 -13.94,9.82 -26.32,9.4 -41.07,-1.38 34.65,-20.4 59.34,-50.74 83.9,-81.2 2.45,-3.04 4.81,-6.18 6.97,-9.44 4.48,-6.74 6.09,-13.82 0.95,-20.92 -5.16,-7.12 -12.05,-10.72 -21.14,-9.36 -5.98,0.9 -11.09,3.75 -16.04,6.88 -10.81,6.85 -21.1,14.67 -29.16,24.49 -29.5,35.94 -68.31,59.21 -108.61,80.19 -22.62,11.78 -35.86,27.86 -36.34,54.22 -0.42,23.32 -11.68,39.46 -35.11,45.88 -8.14,2.23 -12.32,8.44 -13.32,16.46 -2.09,16.82 1.27,33.13 5.73,49.21 1.99,7.19 7.7,9.31 14.6,8.33 5.81,-0.83 11.51,-2.45 17.33,-2.98 10.08,-0.91 12.57,2.3 9.81,11.97 -2.87,10.08 -7.72,19.31 -12.29,28.68 -8.42,17.25 -5.3,25.19 12.94,30.81 5.99,1.84 8.7,5.03 9.56,10.68 0.59,3.86 1.11,7.73 1.74,11.59 4.18,25.3 18.36,33.92 42.62,25.66 6.83,-2.33 13.53,-4.65 20.92,-4.09 7.35,0.56 13.44,3.17 16.35,10.34 2.85,6.98 -1.5,11.86 -5.87,16.35 -19.07,19.59 -42.73,30 -69.59,31.92 -53.36,3.81 -101.29,-10.88 -142.66,-45.21 -20.91,-17.34 -33.67,-40.39 -42.42,-65.59 -6.07,-17.48 -14.02,-21.17 -29.67,-11.41 -14.3,8.92 -22.51,22.47 -22.87,38.94 -0.79,36.7 -8.18,72.59 -11.62,108.95 -1.05,11.08 -1.41,22.19 -0.1,33.24 3.46,29.24 19.75,49.46 46.04,60.99 17.88,7.85 33.14,18.13 47.19,31.91 23.35,22.89 49.26,24.38 72.37,7.01 15.96,-12 21.03,-27.56 15.12,-46.64 -3.41,-11.01 -9.52,-20.62 -16.19,-29.97 36.7,-14.58 72.88,-0.81 89.24,34 4.29,9.12 7.51,18.74 11.77,27.89 5.5,11.8 11.94,14.88 24.4,11.28 6.97,-2.01 12.67,-0.41 18.52,2.99 9.86,5.71 19.61,11.57 30.72,14.8 13.33,3.86 25.08,1.42 35.66,-7.44 8.11,-6.79 14.51,-15.08 20.06,-23.92 9.52,-15.16 17.73,-31.08 28.11,-45.79 7.93,-11.24 5.39,-21.35 -5.63,-29.84 -5.67,-4.37 -12.07,-7.83 -17.53,-12.43 -7.84,-6.61 -9.23,-15.28 -4.27,-22.58 5.44,-8 12.75,-6.21 20.12,-3.52 1.53,0.56 3.01,1.24 4.5,1.89 17.09,7.47 19.96,6.84 27.17,-10.66 3.39,-8.22 11.68,-11.68 15.05,-20.04 5.12,-12.73 10.09,-25.76 18.53,-37.46 -0.88,9.47 6.14,15.83 8.45,24.11 4.53,16.18 -1.7,30.82 -4.01,46.07 -3.93,25.97 -2.31,52.13 -2.24,78.22 0.06,18.3 -0.42,36.52 -3.55,54.62 -4.99,28.82 -19.98,50.45 -45.21,65.22 -16.98,9.94 -35.52,16.19 -53.64,23.44 -10.91,4.37 -21.56,9.19 -31.56,15.42 -77.93,48.53 -162.2,59.48 -251.18,42.32 -23.35,-4.51 -46.57,-9.48 -68.04,-20.49 -6.82,-3.5 -14.42,-5.41 -20.94,0.91 -6.81,6.6 -8.81,15.56 -4.95,23.49 11.88,24.42 29.86,47.77 62.34,43.86 4.5,-0.54 9.25,-1.21 11.78,4.28 2.8,6.09 0.42,10.98 -3.84,14.95 -14.43,13.42 -31.58,18.68 -50.6,13.42 -17.6,-4.87 -33.7,-12.78 -47.91,-25.14 -39.67,-34.48 -80.67,-67.42 -124.74,-96.14 -17.24,-11.24 -34.93,-21.1 -47.26,-38.41 -5.99,-8.42 -16.01,-10.52 -26.08,-11.51 -19.39,-1.89 -34.34,-15.5 -34.61,-34.85 -0.51,-37.12 -12.33,-71.01 -26.15,-104.58 -7.56,-18.38 -15.03,-36.78 -20.1,-56.05 -3.64,-13.85 -13.34,-20.35 -26.9,-21.78 -14.92,-1.57 -29.87,-2.95 -44.83,-4.14 -17.21,-1.37 -36.18,-23.1 -34.72,-40.17 0.35,-4.05 2.57,-6.66 6.81,-6.99 3.25,-0.25 6.53,-0.11 9.78,-0.41 10.69,-0.98 16,-7.32 14.03,-17.87 -1.49,-7.97 -4.22,-15.71 -6.31,-23.57 -2.04,-7.65 -2.66,-15.25 1.21,-23.22l0.03 0.03z"/>
 <path class="fil2" d="M3815.54 -1148.81c16.56,-15.03 31.48,-31.27 45.75,-48.13 47.96,-56.65 87.45,-119.37 129.39,-180.33 13.45,-19.56 27.32,-38.82 41,-58.21 0.77,0.31 1.55,0.62 2.32,0.92 -2.87,10.26 -5.49,20.61 -8.63,30.79 -22.5,72.9 -48.38,144.6 -75.87,215.74 -38.43,99.51 -80.21,197.57 -128.64,292.65 -33.33,65.45 -69.27,129.42 -114.25,187.81 -19.52,25.33 -40.81,49.19 -62.36,72.76 -27.08,29.61 -55.24,58.17 -84.49,85.73 -44.76,42.15 -93.39,79.37 -142.87,115.57 -38.16,27.92 -76.56,55.53 -115.5,82.33 -45.24,31.14 -94.71,55.02 -143.16,80.58 -24.51,12.93 -49.23,25.48 -74.7,36.44 -3.26,1.4 -6.77,2.31 -10.24,3.17 -16.36,4.06 -21.04,1.24 -25,-14.98 -6.1,-24.97 -12.23,-49.93 -18.23,-74.93 -4.44,-18.48 -0.87,-24.65 15.67,-33.84 41.07,-22.83 80.36,-48.6 119.69,-74.26 46.42,-30.29 93.52,-59.68 135.46,-96.22 44.25,-38.55 90.5,-75.22 129.51,-119.21 75.15,-84.75 145.83,-173.09 202.8,-271.46 39.15,-67.58 71.38,-138.5 99.33,-211.39 28.52,-74.37 50.38,-150.64 65.21,-228.9 7.21,-38.04 11.39,-76.52 16.95,-114.81 5.85,-40.32 8.79,-80.83 11.55,-121.42 1.37,-20.16 27.05,-34.49 45.84,-26.55 9.22,3.9 11.05,12.09 10.5,20.24 -2.65,39.01 -0.79,78.12 -4.85,117.17 -7.67,73.88 -20.61,146.81 -35.84,219.4 -7.48,35.68 -16.12,71.09 -26.42,106.08 -0.64,2.16 -1.62,4.25 0.06,7.28l0.02 -0.02z"/>
 <path class="fil2" d="M3495.1 -2656.27c-0.19,15.36 -13.14,32.94 -25.09,36.18 -11.68,3.17 -20.43,-2.6 -27.62,-10.7 -62.92,-70.88 -136.82,-129.02 -211.86,-186.31 -74.75,-57.08 -159.55,-94.69 -243.59,-134.26 -46.61,-21.95 -93.59,-43.03 -141.44,-62.16 -47.95,-19.17 -98.3,-30.12 -148.16,-42.6 -52.71,-13.2 -106.14,-23.2 -160.15,-29.39 -29.09,-3.33 -58.33,-5.33 -87.63,-6.76 -39.74,-1.93 -79.48,-4.28 -119.24,-3.11 -56.94,1.68 -113.73,5.28 -170.31,12.82 -103.96,13.86 -205.39,37.76 -304.2,72.76 -107.09,37.94 -208.43,87.69 -304.11,148.99 -72.66,46.55 -140.69,99.02 -204.11,157.6 -21.36,19.73 -41.66,40.47 -62.35,60.85 -21.03,20.7 -36.48,18.42 -50.62,-7.58 -6.37,-11.73 -5.38,-17.11 3.96,-28.18 35.26,-41.8 75.65,-78.29 117.55,-113.16 54.4,-45.28 109.93,-89.12 169.41,-127.65 91.77,-59.43 188.89,-108.15 291.68,-145.63 84.61,-30.85 170.99,-55.24 259.51,-71.74 44.75,-8.34 89.84,-14.55 135.26,-18.55 43.55,-3.83 87.12,-5.39 130.81,-6.03 43.69,-0.63 87.34,-0.04 130.87,2.89 62.98,4.23 125.5,12.3 187.63,23.98 101.02,18.99 198.02,51.24 292.75,89.86 112.16,45.73 216.63,105.89 314.69,177.2 77.57,56.41 148.03,120.73 214.71,189.42 6.53,6.73 11.53,14.13 11.66,21.28l-0.01 -0.02z"/>
 <path class="fil3" d="M2217.8 -904.18c7.91,-17.72 16.56,-34.48 22.37,-52.51 7.39,-22.93 8.97,-45.8 1.43,-69.11 -4.74,-14.69 -2.18,-17.12 13.02,-17.39 18.18,-0.32 31.1,7.04 39.79,23.06 6.44,11.86 12.1,23.88 13.28,37.43 2.4,27.51 -10.58,48.79 -36.92,61.95 -16.71,8.35 -35.65,9.33 -52.98,16.57l0.01 0z"/>
 <path class="fil3" d="M3516.69 -1630.32c0.47,0.19 0.94,0.38 1.41,0.58 -0.31,0.26 -0.62,0.52 -0.93,0.79 -0.19,-0.43 -0.38,-0.85 -0.57,-1.28 0,0 0.09,-0.08 0.09,-0.08l0 -0.01z"/>
</symbol>
<symbol id="Fm2-18-0" viewBox="59855.93 250.68 3386.66 3386.66">
 <path class="fil0" d="M63242.59 1943.99c0,935.22 -758.12,1693.35 -1693.31,1693.35 -935.22,0 -1693.35,-758.12 -1693.35,-1693.35 0,-935.19 758.12,-1693.31 1693.35,-1693.31 935.19,0 1693.31,758.12 1693.31,1693.31z"/>
</symbol>
<symbol id="Fm0-6-0" viewBox="1212.14 -3113.87 3665.34 3386.67">
 <path class="fil1" d="M4877.48 -3113.87c-35.18,67.35 -70.36,134.7 -105.52,202.05 -1.67,3.2 -3.28,6.26 -7.53,6.57 -21.61,1.55 -43.21,3.17 -64.89,4.77 -0.56,-3.87 1.84,-6.42 3.22,-9.2 14.04,-28.23 28.21,-56.39 42.29,-84.59 1.3,-2.6 3.22,-4.99 3.2,-8.12 0.2,-0.09 0.43,-0.14 0.59,-0.27 0.09,-0.08 0.07,-0.29 0.1,-0.44 -0.21,0.25 -0.42,0.51 -0.64,0.76 -15.93,1.52 -30.78,7.44 -45.99,11.71 -136.97,38.47 -273.85,77.25 -410.74,116 -110.87,31.38 -221.7,62.89 -332.58,94.25 -122.75,34.72 -245.54,69.32 -368.3,103.99 -9.05,2.56 -18.07,5.22 -27.1,7.87 -4.57,1.34 -7.41,1.33 -8.5,-4.89 -3.63,-20.52 -7.76,-40.97 -12.28,-61.32 -1.39,-6.26 -0.02,-8.74 6.19,-10.42 50.2,-13.64 100.34,-27.51 150.47,-41.43 79.58,-22.1 159.13,-44.3 238.7,-66.44 83.53,-23.24 167.08,-46.44 250.62,-69.65 87.22,-24.23 174.44,-48.47 261.67,-72.7 88.92,-24.7 177.83,-49.43 266.76,-74.12 51.54,-14.31 103.1,-28.55 154.64,-42.86 0.77,-0.21 1.39,-1 2.08,-1.52l3.54 0z"/>
 <path class="fil1" d="M1212.14 -3103.25c104.46,30.39 208.91,60.81 313.38,91.17 113.5,32.99 227.03,65.87 340.52,98.89 101.07,29.41 202.09,59 303.15,88.45 84.4,24.6 168.8,49.19 253.27,73.55 6.36,1.84 8.19,3.76 5.1,10.16 -4.21,8.73 -7.73,17.83 -10.99,26.97 -2.31,6.46 -5.74,8.5 -12.6,6.61 -56.7,-15.53 -113.46,-30.83 -170.21,-46.18 -72.07,-19.51 -144.13,-39 -216.2,-58.5 -91.36,-24.72 -182.72,-49.44 -274.09,-74.16 -146.69,-39.69 -293.37,-79.39 -440.05,-119.07 -0.83,-0.22 -1.72,-0.2 -4.15,-0.47 4.56,12.34 8.78,24 13.16,35.6 12.04,31.95 24,63.92 36.32,95.76 2.54,6.57 -0.25,7.35 -5.38,6.49 -16.79,-2.81 -33.52,-6.04 -50.36,-8.55 -5.42,-0.81 -5.35,-4.8 -6.49,-8.14 -21.77,-63.78 -43.41,-127.62 -65.26,-191.38 -2.73,-7.98 -4.6,-16.35 -9.11,-23.67l0 -3.54 -0.01 0.01z"/>
 <path class="fil1" d="M3026.85 -1677.3c0.37,0.02 0.73,0.04 1.09,0.06 1.93,-22.26 3.81,-44.52 5.81,-66.78 5.09,-56.62 10.29,-113.22 15.33,-169.85 4.41,-49.58 8.58,-99.19 13.01,-148.77 4.99,-56.04 10.14,-112.06 15.24,-168.07 0.36,-3.92 -0.03,-7.33 -2.56,-10.76 -15.55,-21.12 -30.99,-42.32 -46.16,-63.71 -3.37,-4.75 -4.97,-5.01 -8.53,-0.12 -16.09,22.18 -32.47,44.16 -48.96,66.05 -2.78,3.69 -2.99,7.18 -2.52,11.49 5.18,47.73 10.16,95.46 15.19,143.2 4.38,41.59 8.74,83.18 13.15,124.76 5.03,47.44 10.1,94.88 15.13,142.32 4.95,46.72 9.86,93.44 14.78,140.16l0 0.02zm-159.52 -847.59c-4.75,-21.88 -12.29,-42.96 -18.74,-64.34 -39.87,-132.13 -80,-264.18 -120.03,-396.27 -0.67,-2.2 -1.17,-4.45 -2.05,-7.81 4.09,1.79 5.27,4.82 6.97,7.16 91.81,126.02 183.56,252.08 275.32,378.14 0.86,1.19 1.86,2.31 2.57,3.6 3.65,6.65 6.34,7.28 11.27,0.26 78.27,-111.42 156.85,-222.61 235.24,-333.95 22.55,-32.02 44.68,-64.34 67,-96.52 0.47,0.39 0.94,0.79 1.41,1.18 -14.15,44.6 -28.19,89.24 -42.46,133.81 -38.52,120.25 -77.13,240.48 -115.69,360.72 -0.69,2.15 -1.14,4.37 -2.13,8.24 38.7,-14.95 76.12,-29.4 115.24,-44.5 -4.68,19.03 -8.99,36.59 -13.32,54.14 -2.75,11.15 -5.11,22.41 -8.43,33.38 -2.21,7.32 -0.64,8.76 6.59,6.93 31.67,-8.02 63.42,-15.75 95.14,-23.54 46.56,-11.43 93.12,-22.84 140.33,-34.41 -2.22,4.16 -5.79,5.73 -8.7,7.91 -90.06,67.62 -180.11,135.26 -270.4,202.59 -6.7,5 -6.13,7.28 -0.69,12.74 55.79,55.99 111.42,112.14 165.98,169.34 3.39,3.55 6.51,7.34 8.87,12.78 -18.69,-3.18 -37.43,-6.03 -56.04,-9.58 -52.63,-10.05 -105.21,-20.3 -157.76,-30.71 -6.05,-1.2 -7.34,0.76 -8.21,6.39 -4.51,29.36 -9.53,58.64 -14.61,89.31 -23.67,-17.2 -46.64,-33.89 -69.62,-50.58 -0.75,-0.43 -1.5,-0.86 -2.25,-1.29 -0.29,-0.41 -0.58,-0.83 -0.87,-1.25 -0.11,0.26 -0.23,0.51 -0.34,0.76 0.46,0.12 0.92,0.23 1.37,0.35 -0.78,1.09 -0.13,1.91 0.52,2.74 25.68,41.28 51.35,82.57 77.04,123.85 3.73,5.99 7.49,11.95 11.6,18.5 3.55,-3.47 3.41,-7.77 4.4,-11.42 10.45,-38.34 20.89,-76.68 30.91,-115.13 1.8,-6.89 4.1,-8.82 11.44,-7.14 104.46,23.86 208.99,47.38 313.5,71 2.28,0.52 4.5,1.41 6.94,0.45 0.06,-3.5 -2.94,-4.93 -4.87,-6.93 -83.38,-86.36 -166.74,-172.74 -250.39,-258.83 -6.08,-6.27 -4.78,-8.33 1.72,-12.48 117.44,-75.13 234.73,-150.47 352.08,-225.74 2.17,-1.39 4.09,-3.45 7.81,-3.34 -3.55,17.09 -7.12,33.99 -10.56,50.93 -2.4,11.85 -2.32,11.85 8.86,8.21 85.1,-27.69 170.19,-55.36 255.29,-83.05 221.98,-72.22 443.96,-144.44 665.94,-216.64 2.75,-0.89 5.56,-1.58 9.38,-0.7 -272.63,199.67 -545.25,399.34 -819.43,600.15 126.98,2.45 251.96,4.87 376.95,7.28l0.4 1.75c-192.96,81.5 -385.92,163 -580.58,245.22 34.6,22.15 67.99,43.53 101.34,64.89 0.08,2.94 -2.45,3.17 -3.99,4.06 -205.94,117.67 -411.93,235.26 -617.8,353.08 -5.85,3.35 -9.68,1.46 -14.43,-1.2 -99.73,-55.88 -199.51,-111.68 -299.24,-167.54 -105.91,-59.31 -211.79,-118.68 -317.69,-178.02 -1.03,-0.57 -2.02,-1.24 -3.1,-1.69 -6.82,-2.84 -5.07,-5.27 0.05,-8.33 23.77,-14.21 47.44,-28.61 71.15,-42.94 16.11,-9.74 32.23,-19.47 50.14,-30.28 -215.23,-79.34 -428.78,-158.06 -642.32,-236.78 0.12,-0.51 0.23,-1.02 0.35,-1.53 124.98,-4.48 249.97,-8.96 375.65,-13.46 -1.23,-3.71 -4.33,-4.99 -6.73,-6.77 -92.29,-68.59 -186.18,-134.96 -280.08,-201.31 -185.38,-130.99 -371.04,-261.61 -556.57,-392.4 -1.88,-1.33 -3.52,-2.99 -5.28,-4.49l-0.15 0.12c4.06,-1.18 7.53,1.04 11.07,2.18 323.19,104.42 646.35,208.93 969.53,313.38 4.4,1.42 10.26,5.5 13.09,2.86 3.67,-3.42 -0.7,-9.29 -1.77,-14.01 -2.61,-11.41 -5.69,-22.71 -8.63,-34.2 3.89,-0.86 5.64,1.51 7.67,2.82 111.79,71.88 223.51,143.86 335.39,215.61 6.21,3.98 6.02,6.18 1.29,11.37 -73.97,81.4 -147.73,163 -221.53,244.55 -0.77,0.85 -1.45,1.77 -3.5,4.29 17.92,-3.55 34.09,-6.72 50.25,-9.96 86.57,-17.38 173.16,-34.7 259.69,-52.32 6.71,-1.37 8.95,0.36 10.65,6.72 10.3,38.37 21.02,76.63 31.62,114.92 0.62,2.26 1.33,4.5 2.01,6.75 2.92,0.05 3.2,-2.41 4.13,-3.94 26.06,-42.79 52.05,-85.6 78.02,-128.43 0.76,-1.25 1.24,-2.66 1.85,-3.99 0.5,-0.68 1.11,-1.42 -0.02,-1.99 -0.21,-0.11 -0.8,0.56 -1.22,0.87 -21.93,8.49 -43.96,16.74 -65.73,25.64 -5.99,2.45 -8.3,2.02 -10.37,-4.53 -5.67,-17.95 -12.31,-35.59 -18.22,-53.47 -1.6,-4.82 -3.48,-6 -8.8,-5.16 -61.64,9.7 -123.34,19.03 -185.02,28.42 -3.18,0.49 -6.41,0.65 -11.78,1.18 6.66,-7.27 11.98,-13.27 17.51,-19.09 48.71,-51.32 97.38,-102.67 146.32,-153.77 5.37,-5.61 6.41,-8.23 -0.67,-13.61 -93.64,-71.13 -187.01,-142.61 -280.43,-214.02 -2.49,-1.9 -4.85,-3.98 -8.84,-7.27 11.18,0.69 19.67,3.83 28.29,5.98 70.52,17.55 140.98,35.33 211.46,53.04 10.8,2.71 10.84,2.65 8.05,-7.78 -6.68,-25.01 -13.36,-50.03 -19.99,-75.06 -0.5,-1.89 -2.02,-3.73 -0.2,-6.66 6.26,2.67 12.66,5.33 19,8.11 30.47,13.34 60.91,26.73 91.39,40.04 2.12,0.93 4.43,1.4 6.65,2.08 0.32,0.32 0.86,0.94 0.92,0.91 0.93,-0.67 0.55,-1.16 -0.3,-1.54l-0.04 0.01z"/>
 <path class="fil1" d="M4220.69 -2012.27c-77.43,147.42 -154.38,293.95 -231.34,440.48l1.25 2.04c39.19,-12.57 78.39,-25.14 119.09,-38.19 -4.85,13.28 -12.3,23.47 -18.47,34.22 -38.45,66.91 -77.25,133.62 -115.94,200.4 -55.52,95.83 -111.09,191.63 -166.55,287.5 -68.57,118.56 -137,237.22 -205.59,355.78 -61.8,106.83 -123.8,213.55 -185.6,320.38 -70.94,122.65 -141.69,245.39 -212.65,368.03 -56.94,98.41 -114.06,196.72 -171.09,295.08 -2.81,4.84 -5.88,9.57 -8.21,14.64 -3.38,7.29 -5.92,5.21 -9.02,-0.12 -21.31,-36.67 -42.68,-73.31 -64.06,-109.95 -29.7,-50.88 -59.43,-101.73 -89.13,-152.61 -40.39,-69.19 -80.73,-138.41 -121.14,-207.6 -33.27,-56.98 -66.62,-113.9 -99.9,-170.88 -40.55,-69.44 -81.03,-138.92 -121.6,-208.35 -37.44,-64.09 -74.98,-128.12 -112.42,-192.22 -40.41,-69.18 -80.71,-138.42 -121.12,-207.61 -37.43,-64.1 -74.97,-128.14 -112.41,-192.23 -40.41,-69.18 -80.73,-138.42 -121.13,-207.6 -33.27,-56.98 -66.62,-113.91 -99.92,-170.87 -7.59,-12.97 -15.15,-25.95 -22.63,-38.98 -0.84,-1.46 -2.01,-3.69 -1.47,-4.78 1.2,-2.43 3.52,-0.68 5.42,-0.31 36.85,7.21 73.7,14.42 111.96,21.9 -1.63,-3.61 -2.77,-6.41 -4.11,-9.1 -70.2,-140.56 -140.44,-281.1 -210.47,-421.74 -1.7,-3.41 -8.43,-7.88 0.12,-12.03 13.89,-6.74 17,-6.67 21.59,1.3 45.89,79.62 91.85,159.21 137.74,238.83 47.95,83.2 95.78,166.47 143.78,249.64 46.96,81.39 94.12,162.65 141.1,244.04 45.65,79.08 91.11,158.27 136.77,237.36 38.28,66.32 76.76,132.54 115.07,198.85 38.02,65.81 75.88,131.7 113.89,197.5 58.78,101.77 117.66,203.49 176.43,305.27 64.66,111.99 129.23,224.02 193.83,336.04 4.27,7.41 4.86,7.44 9.35,-0.25 64.54,-110.69 129.01,-221.42 193.6,-332.08 56.42,-96.67 113.01,-193.24 169.45,-289.91 66.24,-113.45 132.37,-226.96 198.57,-340.44 53.58,-91.85 107.2,-183.68 160.77,-275.53 66.2,-113.47 132.35,-226.97 198.55,-340.44 51.07,-87.51 102.21,-174.99 153.26,-262.51 30.12,-51.65 60.2,-103.33 90.09,-155.12 2.87,-4.98 6.11,-7.19 11.88,-7.04 7,0.19 13.9,-2.6 22.41,-0.78l0 -0.01z"/>
 <path class="fil1" d="M3619.23 -1258.87c-29.04,-2.66 -58.08,-5.27 -87.11,-7.99 -41.08,-3.84 -82.14,-7.76 -123.21,-11.65 -18.77,-1.77 -37.57,-3.32 -56.32,-5.37 -7.91,-0.87 -8.9,1.13 -5.91,8.34 32.43,78.35 64.6,156.81 96.82,235.25 1.41,3.44 2.61,6.97 4.76,12.75 -92.07,-56.89 -182.13,-112.54 -273.02,-168.7 -46.73,169.99 -93.2,339.01 -139.67,508.04 -0.58,-0.01 -1.16,-0.01 -1.74,-0.01 -7.24,-24.31 -14.52,-48.63 -21.74,-72.95 -41.31,-139.11 -82.61,-278.23 -123.92,-417.34 -3.1,-10.44 -3.11,-10.45 -12.78,-5.01 -86.26,48.57 -172.52,97.15 -258.81,145.67 -3.46,1.94 -6.63,4.72 -12.45,5.32 40.34,-86.34 80.26,-171.75 121.05,-259.05 -90.42,14.2 -178.96,28.1 -267.64,42.03 -0.12,-3.49 2.34,-3.85 3.9,-4.86 139.88,-90.37 279.82,-180.64 419.56,-271.2 6.78,-4.39 11.41,-4.12 18.14,-0.23 41.29,23.94 82.93,47.27 124.28,71.13 5.1,2.94 8.74,2.71 13.68,-0.01 44.13,-24.3 88.44,-48.28 132.57,-72.58 4.97,-2.74 8.63,-2.85 13.65,0.22 143.83,87.91 287.77,175.64 431.69,263.4 1.67,1.01 3.26,2.13 4.89,3.2 -0.23,0.54 -0.46,1.07 -0.69,1.6l0.02 0z"/>
 <path class="fil1" d="M3324.89 -3034.62c0.54,-0.78 1.07,-1.56 1.61,-2.34 1.14,1.25 0.48,2.39 -0.2,3.53 -0.46,-0.39 -0.93,-0.79 -1.4,-1.18l-0.01 -0.01z"/>
 <path class="fil1" d="M1408.65 -2805.95c-0.44,-0.26 -0.89,-0.53 -1.33,-0.79 1.08,-0.58 1.49,-0.29 1.18,0.92 0,0 0.15,-0.12 0.15,-0.12l0 -0.01z"/>
 <path class="fil1" d="M2867.33 -2524.89c0.84,0.38 1.22,0.87 0.3,1.54 -0.06,0.04 -0.6,-0.59 -0.92,-0.91 0.2,-0.21 0.41,-0.42 0.62,-0.63z"/>
 <path class="fil1" d="M3088.28 -2129.92l-1.37 -0.35c0.11,-0.25 0.22,-0.51 0.34,-0.76 0.29,0.41 0.58,0.83 0.87,1.24l0.16 -0.13z"/>
 <path class="fil1" d="M2948.1 -2128.34c0.42,-0.31 1.01,-0.97 1.22,-0.87 1.13,0.56 0.52,1.31 0.02,1.99 -0.45,-0.33 -0.87,-0.7 -1.24,-1.12z"/>
 <path class="fil1" d="M3088.12 -2129.79c0.74,0.43 1.5,0.86 2.24,1.29 -0.52,0.44 -1.03,0.88 -1.55,1.31 -0.65,-0.82 -1.31,-1.64 -0.53,-2.74 0,0 -0.16,0.13 -0.16,0.13l0 0.01z"/>
</symbol>
<symbol id="Fm0-38-0" viewBox="93936 -60961.29 3386.69 3386.66">
 <path class="fil0" d="M97322.69 -59267.99c0,935.23 -758.1,1693.36 -1693.33,1693.36 -935.23,0 -1693.36,-758.13 -1693.36,-1693.36 0,-934.35 756.73,-1691.89 1690.78,-1693.3l5.16 0c934.06,1.4 1690.75,758.95 1690.75,1693.3z"/>
</symbol>
<symbol id="Fm1-8-0" viewBox="11475.58 250.67 3386.59 3386.66">
 <path class="fil0" d="M14862.17 1949.14c-2.77,932.84 -759.79,1688.19 -1693.28,1688.19 -935.22,0 -1693.31,-758.12 -1693.31,-1693.35 0,-935.19 758.09,-1693.31 1693.31,-1693.31 933.49,0 1690.51,755.35 1693.28,1688.16l0 10.31z"/>
</symbol>
 <g id="Capa_x0020_1">
  <metadata id="CorelCorpID_0Corel-Layer"/>
  <path class="fil4" d="M3235.66 1005.02l-9.64 12.23c-23.08,-22.33 -10.96,-12.62 0,-30.4 11.27,12.39 6.86,-6.15 9.64,18.17zm-114.31 -2.16l54.36 -1.27 -33.5 50.65c17.94,-8.33 17.13,-14.69 16.02,39.17 -0.05,1.99 -0.99,6.09 -1.16,8.01 -6.48,70.08 15.37,13.57 5.91,92.04 107.99,15.39 -0.16,42.45 100.91,19.03 1.05,3.09 -0.07,7.98 -0.14,9.79 -0.05,1.64 -0.43,7 -0.46,8.87l-0.23 18.85c0.18,0.74 1.19,3.36 1.48,4.04 5.19,11.9 14.76,-28.03 24.65,34.14l12.5 0.04c-15.62,-9.78 20.95,-14.93 -35.66,-6.06 -4.89,0.77 -29.12,13.9 -31.32,16.41 -21.99,25.12 -7.99,-10.03 -10.17,31.8 -0.16,3.1 0.55,7.39 0.61,10.38l4.08 35.76c-40.81,22.68 -46.67,42.56 -58.05,89.49 -0.93,3.85 -3.47,16.43 -4.07,19.14l-4.26 17.52c-23.97,-2.81 -36.02,-58.44 -37.74,-63.11 3.85,36.89 -117.07,4.99 -175.41,-7.14 -62.39,-12.97 -145.98,55.72 -152.82,-43.34l-75.72 0c-16.09,28.25 1.42,16.27 -30.36,32.86 -1.75,0.92 -8.3,5.43 -9.66,2.68 -1.45,-2.92 -6.86,2.36 -10.41,2.32 -4.08,-6.06 -25.67,0.27 -11.37,-67.24 5.8,-27.34 11.36,-0.98 11.37,-58.91l-63.11 -50.43c26.29,-10.9 27.99,-29.22 56.31,-54.76 134.46,-121.24 74.78,-59.05 139.99,-100.34l56.36 -66.68c0.15,-2.36 0.63,-3.9 -0.22,-5.53 35.7,13.58 120.87,11.24 160.9,-2.95 89.53,-31.73 -65.01,-36.3 78.85,-66.44 1.32,1.99 2.24,5.51 2.71,6.65 0.47,1.17 2.2,5.38 2.79,6.83l16.04 37.73zm-633.22 318.47c-8.33,45.13 -104.15,129.43 -28.81,189.15 23.79,18.85 60.23,20.62 94.03,43.88 44.17,30.4 29.49,38.6 66.83,70.98 32.08,-34.09 99.95,-82.76 151.22,-112.63 70.33,-40.97 156.2,-33.91 244.15,-18.11 -2.32,-28.49 12.44,-47.56 -4.1,-19.18 55.72,1.48 25.2,7.76 41.83,18.53l25 15.13c8.73,2.93 34.11,3.8 46.71,4.33l2.43 26.3c4.81,98.68 -5.63,29.13 -65.48,24.12l0.2 164.25c15.07,7.57 -27.35,13.19 -47.49,50.32 31.92,25.77 -4.9,15.76 47.23,26.63 39.3,-61.65 93.14,-61.91 125.43,-152.78l-22.52 -86.89c8.21,-3.74 13.57,-9.69 15.56,-6.51 1.94,3.11 7.78,-3.59 10.45,-4.49 2.62,-0.89 7.45,-2.49 10.6,-3.52 3.55,-1.17 17.14,-4.48 20.56,-5.59l18.39 -6.66c-21.26,-47.92 -30.48,-21.86 -33.34,-75.73l51.67 -18.17 20.15 -109.58c118.65,-71.84 145.07,-38.97 174.87,-99.44 -44.13,-70.47 -125.68,-32.61 -203.11,-22.66 14.77,-18.11 1.91,-7.79 28.51,-26.07 2.8,-1.93 20.57,-10.27 24.86,-12.65 -31.27,9.94 -52.04,29.55 -46.29,-18.25l-56.89 -8.94c-29.1,-65.84 17.78,-105.36 71.52,-64.09 40.97,-43.53 -1.95,-2.5 33.08,-23.86l30.26 4.78 7.94 31.33 2.83 18.04 13.16 8.6c2.89,-2.22 6.74,-5.36 8.64,-6.66l31.74 -18.46 16.31 -1.62c-67.8,-128.66 -69.91,-141.43 -147.1,-152.57 -43.33,-6.26 -28.59,-13 -55.76,-38.5 -75.1,33.48 -23.97,35.11 -109.8,12.14 -64.86,-17.37 -262.66,83.58 -306.12,118.24l-166.86 135.86c-46.88,44.29 -84.61,111.1 -142.49,151z"/>
  <path class="fil4 str0" d="M3142.21 1052.24c-7.85,-53.4 -1.96,-26.53 -20.86,-49.38l-16.04 -37.73c-0.59,-1.45 -2.32,-5.66 -2.79,-6.83 -0.47,-1.14 -1.39,-4.66 -2.71,-6.65 -143.86,30.14 10.68,34.71 -78.85,66.44 -40.03,14.19 -125.2,16.53 -160.9,2.95 0.85,1.63 0.37,3.17 0.22,5.53l-56.36 66.68c-65.21,41.29 -5.53,-20.9 -139.99,100.34 -28.32,25.54 -30.02,43.86 -56.31,54.76l63.11 50.43c-0.01,57.93 -5.57,31.57 -11.37,58.91 -14.3,67.51 7.29,61.18 11.37,67.24 3.55,0.04 8.96,-5.24 10.41,-2.32 1.36,2.75 7.91,-1.76 9.66,-2.68 31.78,-16.59 14.27,-4.61 30.36,-32.86l75.72 0c6.84,99.06 90.43,30.37 152.82,43.34 58.34,12.13 179.26,44.03 175.41,7.14 1.72,4.67 13.77,60.3 37.74,63.11l4.26 -17.52c0.6,-2.71 3.14,-15.29 4.07,-19.14 11.38,-46.93 17.24,-66.81 58.05,-89.49l-4.08 -35.76c-0.06,-2.99 -0.77,-7.28 -0.61,-10.38 2.18,-41.83 -11.82,-6.68 10.17,-31.8 2.2,-2.51 26.43,-15.64 31.32,-16.41 56.61,-8.87 20.04,-3.72 35.66,6.06l-12.5 -0.04c-9.89,-62.17 -19.46,-22.24 -24.65,-34.14 -0.29,-0.68 -1.3,-3.3 -1.48,-4.04l0.23 -18.85c0.03,-1.87 0.41,-7.23 0.46,-8.87 0.07,-1.81 1.19,-6.7 0.14,-9.79 -101.07,23.42 7.08,-3.64 -100.91,-19.03 9.46,-78.47 -12.39,-21.96 -5.91,-92.04 0.17,-1.92 1.11,-6.02 1.16,-8.01 1.11,-53.86 1.92,-47.5 -16.02,-39.17z"/>
  <path class="fil4" d="M3556.01 1667.68l-94.57 1.18 68.44 4.8c-65.82,63.51 -17.23,-17.78 -50.17,46.5 106.19,6.35 -10.85,39.15 102.34,26.27 59.75,-6.8 105.11,-8.92 140.57,19.35 -13.53,49.04 14.78,16.27 -32.45,48.75 -48.97,33.67 -95.39,40.55 -151.5,41.54 1.2,1.06 25.71,54.39 28.06,10.63l-69.62 11.41 -18.65 16.56c-0.16,47.35 6.53,2.29 -32.54,20.76l98.64 34.27 24.63 18c91.35,12.5 252.98,133.59 327.46,145.61 9.02,-30.1 47.56,-67.53 61.67,-104.89 15.91,-42.11 110.79,-317.74 75.56,-343.68 17.77,-24.27 9.35,-1.79 -7.93,-2.51l-83.79 5.15c-139.29,24.7 -107.89,10.54 -261.78,17.08 -98.37,4.19 -127.59,14.14 -124.37,-16.78z"/>
  <path class="fil5 str1" d="M2499.04 1647.33c62.1,13.33 11.88,-4.91 53.34,22.69 2.62,1.74 34.75,25.05 36.12,26.16 30.49,24.83 38.15,52.75 47.01,94.79 -67.38,-2.28 -100.97,-23.92 -140.78,-58.91l4.31 -84.73zm497.38 -135.06l0 14.01c62.19,9.63 14.42,6.45 33.57,-12.93 0.58,-44.08 5.82,1.37 -20.36,-19.14l5.92 0.39c-87.95,-15.8 -173.82,-22.86 -244.15,18.11 -51.27,29.87 -119.14,78.54 -151.22,112.63 -37.34,-32.38 -22.66,-40.58 -66.83,-70.98 -33.8,-23.26 -70.24,-25.03 -94.03,-43.88 -75.34,-59.72 20.48,-144.02 28.81,-189.15l-5.93 -2.96c-47.91,19.93 -38.27,52.96 -76.59,95.22 -25.69,-37.15 -17.04,-52.33 -50.49,-83.48 -55.56,31.23 -61.62,75.92 -41.37,144.48 -158.7,30.73 -262.54,78.84 -374.49,153.03 -81.87,54.25 -215.17,182.99 -254.85,289.56l-54.53 99.96c-140.31,252.71 -53.14,607.81 74.79,826.24 328.25,489.06 985.08,509.04 1313.03,203.65l33.16 -37.33c33.39,-12.94 26.87,-22.98 68.82,-43.66 7.73,-33.36 1.01,-10.67 18.56,-38.28 17.43,-27.43 10.12,-5.68 24.74,-36.81 108.67,-101.32 130.57,-250.84 177.68,-418.41 7.46,-126.34 8.22,-242.34 -29.88,-363.09 -15.14,-48.01 -27.94,-90.19 -50.39,-137.32 -21.96,-46.11 -53.81,-87.93 -73.61,-131.94 -36.46,-31.85 -36.79,-26.64 -51.2,-75.69 61.4,-14.09 58.99,-7.49 76.02,60.84 84.23,14.46 62.36,-8.64 118.92,-13.03 32.15,66.03 12.67,82.66 72.19,103.83 39.04,10.02 30.38,18.24 73.38,43.82 3.5,2.09 29.55,19.15 32.74,19.65 21.14,3.31 32.57,3.05 38.29,0.76 6.08,2.72 15.65,6.37 26.36,11.9l18.99 39.72c20.38,-12.16 19.24,-10.41 37.45,-21.53 30.75,20.61 15.47,9.78 45.75,25.64 35.21,18.45 14.96,-2.72 37.36,26.06 11.73,24.73 0.03,17.35 55.29,45.38 24.38,12.36 43.94,23.73 54.77,26.79 27.85,7.84 4.97,-9.33 57.33,12.1 31.49,12.9 24.44,17.51 65.04,28.08 44.28,-53.35 98.76,-195.25 115.2,-257.33 31.96,-120.69 52.4,-187.03 38.54,-317.01 -140.15,-3.18 -425.88,23.13 -583.37,36.97 -127.4,11.19 -93.81,11.54 -138.35,62.53 -47.98,-18.94 -12.56,-22.24 -83.07,-25.15l-19.68 29.88c-43.91,-25.69 -7.48,-12.43 -42.69,-47.1 -12.08,40.36 -20.23,18.46 -44.73,-5.05 -32.29,90.87 -86.13,91.13 -125.43,152.78l-20.67 -4.54c-30.46,32.34 -68.79,41.83 -117.61,45.83 -47.32,3.87 -97.44,-2.02 -143.06,-14.35 -90.77,-24.53 -149.57,-63.74 -152.82,-167.16 81.24,-104.92 190.09,-174.96 368.7,-152.54zm272.58 213.35l57.59 -24.3 58.82 36.76c22.67,-30.74 29.59,-59.43 76.03,-69.22l94.57 -1.18c57.52,-27.65 439.83,-44.78 525.44,-38.61 -15.82,164.32 -54.51,399.58 -148.61,510.71 -39.48,-12.4 -18.37,-3.94 -36.19,-26.47 -74.48,-12.02 -236.11,-133.11 -327.46,-145.61 -7.34,1.24 -13.09,2.3 -17.47,3.25 -1.89,-7.38 -9.63,-16.55 -7.16,-21.25l-98.64 -34.27c-76.75,-42.14 -62.65,-58.4 -94.49,-137.27 -52.9,-4.53 -66.31,11.13 -117.45,25.99l-8.04 -20.39 -13.16 -32.56 27.99 15.79c8.75,-8.59 8.29,-4.18 18.36,-19.82 13.66,-21.21 4.88,-9.26 9.87,-21.55zm-82.77 1066.65c-49.96,-117.91 -88.75,-190.2 -159.08,-272.88 -46.79,-54.99 -151.97,-172.5 -222.61,-196.2 -14.53,-26.03 -8.53,-17.55 -34.79,-37.84 -15.73,-12.16 -36.38,-25.19 -51.8,-36.72 -28.35,-21.21 -59.28,-44.47 -95.05,-60.17 -71.31,-48.8 -65.64,-38.91 -108.41,-115.76 -163.53,-140.06 -121.09,-45.27 -299.01,-88.04 -125.73,-30.22 -264.87,-10.37 -360.01,-30.95 -10.85,6.02 -2.31,4.83 -31.23,13.13l-150.12 20.7 31.39 -71.71c8.8,-9.37 9.33,-9.49 18.72,-22.97 8.9,-12.79 13.18,-21.09 20.01,-31.42l39.02 -53.77c27.83,-19.9 59.83,-60.02 86.31,-85.17 37.69,-35.8 58.79,-50.04 98.3,-77.47 62.8,-43.61 163.22,-105.79 254.28,-112.44 59.94,-55.14 165.9,-17.9 235.05,6.27 89.81,31.41 106.38,50.32 141.35,126.01 -28.31,-17.5 -53.56,-34.24 -79.96,-48.86l-55.39 47.27c26.58,169.56 54.15,137.16 194.29,152.13 68.56,7.32 108.24,77.17 290.97,55.28 69.49,-8.32 110.56,-46.74 163.97,-69.2l35.57 42.41c215.63,279.19 219.79,646.07 46.98,956.87l-8.75 -8.5zm-846.29 -1431.55c10.03,11.02 6.38,4.01 17.87,22.95l29.9 46.7c21.72,26.25 17.97,4.7 25.28,67.09 -85.05,-5.33 -100.68,-60.77 -73.05,-136.74zm700.79 1640.41c-74.8,43.97 -134.39,108.34 -244.69,151.41 -98.12,38.31 -208.53,70.06 -327.28,72.6 -252.15,5.39 -432.67,-97.64 -572.34,-203.38 -41.59,-47.4 -76.19,-68.93 -113.68,-115.44 -19.3,-23.94 -75.1,-120.75 -95.11,-131.15l-27.52 -71.32c-70.36,-152.97 -78.43,-301.85 -65.72,-475.24 140.53,-18.84 218.11,-32.75 368.69,-23.26 43.37,6.91 101.79,9.32 133.77,32.06 21.07,23.52 25.32,65.78 48.97,103.27 32.26,51.12 49.03,43.04 82.19,86.75 102.8,6.45 87.38,30.22 202.57,-7.26 68.64,-22.32 85.07,28.63 156.23,57.99l23.82 19.79c30.99,36.35 95.72,75.73 129.98,106.56 51.34,46.21 72.54,62.69 114.61,112.88 154.4,184.17 80.92,67.79 185.51,283.74zm-529.78 -668.53c-23.27,15.61 -9.04,5.99 -31.52,24.07 -102.99,82.83 -217.32,81.89 -295.11,-3.05 -102.5,-111.91 -39.05,-252.53 53.99,-319.38 150.45,-56.61 270.07,17.66 295.51,148 6.33,33.49 8.6,74.39 -13.26,101.61l-9.61 48.75z"/>
  <path class="fil4" d="M2787.76 1612.66l11.15 3.62c-118.43,-42.03 27.47,14.46 -55.44,8.98 -52.15,-3.45 -53.57,4.62 -77.82,39.55 -11.01,179.36 276.06,108.31 320.62,129.69 12,-6.84 75.09,-21.91 -6.67,-60.25 -43.47,-20.38 1.67,15.25 -31.32,-6.33l0 -174.13c-129.96,-6.65 -76.45,4.02 -160.52,58.87z"/>
  <path class="fil4" d="M3041.21 1800.49l-54.94 -5.99c-44.56,-21.38 -331.63,49.67 -320.62,-129.69 24.25,-34.93 25.67,-43 77.82,-39.55 82.91,5.48 -62.99,-51.01 55.44,-8.98l-11.15 -3.62c-20.09,-106.42 143.44,-39.52 208.66,-86.38l0 -14.01c-178.61,-22.42 -287.46,47.62 -368.7,152.54 3.25,103.42 62.05,142.63 152.82,167.16 45.62,12.33 95.74,18.22 143.06,14.35 48.82,-4 87.15,-13.49 117.61,-45.83z"/>
  <path class="fil4 str0" d="M3015.55 1494.6l-5.92 -0.39c26.18,20.51 20.94,-24.94 20.36,19.14 -19.15,19.38 28.62,22.56 -33.57,12.93 -65.22,46.86 -228.75,-20.04 -208.66,86.38 84.07,-54.85 30.56,-65.52 160.52,-58.87l0 174.13c32.99,21.58 -12.15,-14.05 31.32,6.33 81.76,38.34 18.67,53.41 6.67,60.25l54.94 5.99 20.67 4.54c-52.13,-10.87 -15.31,-0.86 -47.23,-26.63 20.14,-37.13 62.56,-42.75 47.49,-50.32l-0.2 -164.25c59.85,5.01 70.29,74.56 65.48,-24.12l-2.43 -26.3c-12.6,-0.53 -37.98,-1.4 -46.71,-4.33l-25 -15.13c-16.63,-10.77 13.89,-17.05 -41.83,-18.53 16.54,-28.38 1.78,-9.31 4.1,19.18z"/>
  <path class="fil4" d="M3269 1725.62c-4.99,12.29 3.79,0.34 -9.87,21.55 -10.07,15.64 -9.61,11.23 -18.36,19.82 -19.9,-1.43 -13.42,-5.34 -14.83,16.77l8.04 20.39c51.14,-14.86 64.55,-30.52 117.45,-25.99 31.84,78.87 17.74,95.13 94.49,137.27 39.07,-18.47 32.38,26.59 32.54,-20.76l18.65 -16.56 69.62 -11.41c-2.35,43.76 -26.86,-9.57 -28.06,-10.63 56.11,-0.99 102.53,-7.87 151.5,-41.54 47.23,-32.48 18.92,0.29 32.45,-48.75 -35.46,-28.27 -80.82,-26.15 -140.57,-19.35 -113.19,12.88 3.85,-19.92 -102.34,-26.27 32.94,-64.28 -15.65,17.01 50.17,-46.5l-68.44 -4.8c-46.44,9.79 -53.36,38.48 -76.03,69.22l-58.82 -36.76 -57.59 24.3zm287.01 -57.94c-3.22,30.92 26,20.97 124.37,16.78 153.89,-6.54 122.49,7.62 261.78,-17.08l83.79 -5.15c17.28,0.72 25.7,-21.76 7.93,2.51 35.23,25.94 -59.65,301.57 -75.56,343.68 -14.11,37.36 -52.65,74.79 -61.67,104.89 17.82,22.53 -3.29,14.07 36.19,26.47 94.1,-111.13 132.79,-346.39 148.61,-510.71 -85.61,-6.17 -467.92,10.96 -525.44,38.61z"/>
  <path class="fil5" d="M3359.57 1121.9c-18.54,34.06 -24.8,33.45 -55.61,52.39 -4.29,2.38 -22.06,10.72 -24.86,12.65 -26.6,18.28 -13.74,7.96 -28.51,26.07 77.43,-9.95 158.98,-47.81 203.11,22.66 -29.8,60.47 -56.22,27.6 -174.87,99.44l-20.15 109.58c1.39,3.16 3.93,4.36 4.31,9.4 0.36,4.95 3.09,7.44 3.5,9.52 0.89,4.53 3.03,28.39 3.04,29.59 28.24,-28.81 23.81,-96.87 36.51,-142.35 24.35,-15.96 47.76,-30.24 84.06,-33.16l24.71 32.56 15.65 -1.05 -9.89 -37.95c60.01,-65.93 56.08,-10.4 50.89,-119.51l-113.15 -25.28c26.79,-23.27 34.21,-29.65 41.64,-69.68l-31.74 18.46c-1.9,1.3 -5.75,4.44 -8.64,6.66z"/>
  <path class="fil4" d="M3389.2 982.35c15.16,22 17.22,42.14 26.19,64.47 17.83,44.36 102.48,142.78 153.91,90.38 68,-69.28 -114.86,-143.6 -180.1,-154.85z"/>
  <path class="fil5" d="M3521.09 1246.12l-2.52 97.07 -88.11 6.01 -15.65 1.05c11.18,43.06 57.83,124.98 113.97,135.36 28.64,-45.92 19.83,-120.11 28.61,-185.13l-28.47 -64.87 -7.83 10.51z"/>
  <path class="fil4" d="M3430.46 1349.2l88.11 -6.01 2.52 -97.07c-49.77,-57.39 -39.39,-113.02 -104.83,-150.96l-16.31 1.62c-7.43,40.03 -14.85,46.41 -41.64,69.68l113.15 25.28c5.19,109.11 9.12,53.58 -50.89,119.51l9.89 37.95z"/>
  <path class="fil5" d="M3187.31 1652.25c24.5,23.51 32.65,45.41 44.73,5.05l12.52 -49.9 7.69 -26.37 17.28 -87.83c-0.01,-1.2 -2.15,-25.06 -3.04,-29.59 -0.41,-2.08 -3.14,-4.57 -3.5,-9.52 -0.38,-5.04 -2.92,-6.24 -4.31,-9.4l-51.67 18.17c2.86,53.87 12.08,27.81 33.34,75.73l-18.39 6.66c-3.42,1.11 -17.01,4.42 -20.56,5.59 -3.15,1.03 -7.98,2.63 -10.6,3.52 -2.67,0.9 -8.51,7.6 -10.45,4.49 -1.99,-3.18 -7.35,2.77 -15.56,6.51l22.52 86.89z"/>
  <path class="fil4" d="M2588.5 1696.18c-1.37,-1.11 -33.5,-24.42 -36.12,-26.16 -41.46,-27.6 8.76,-9.36 -53.34,-22.69l-4.31 84.73c39.81,34.99 73.4,56.63 140.78,58.91 -8.86,-42.04 -16.52,-69.96 -47.01,-94.79z"/>
  <path class="fil4" d="M2645.56 1097.77c38.17,-0.85 27.47,-2.85 49.73,-14.88 77.62,-41.96 64.38,-53.46 72.81,-69.05 -211.3,14.56 -174.63,5.95 -179.39,70.37l56.85 13.56z"/>
  <path class="fil4" d="M2412.99 1497.46c-7.31,-62.39 -3.56,-40.84 -25.28,-67.09l-29.9 -46.7c-11.49,-18.94 -7.84,-11.93 -17.87,-22.95 -27.63,75.97 -12,131.41 73.05,136.74z"/>
  <path class="fil6" d="M1705.51 1915.83l-31.39 71.71 150.12 -20.7c28.92,-8.3 20.38,-7.11 31.23,-13.13 95.14,20.58 234.28,0.73 360.01,30.95 177.92,42.77 135.48,-52.02 299.01,88.04 42.77,76.85 37.1,66.96 108.41,115.76 35.77,15.7 66.7,38.96 95.05,60.17 15.42,11.53 36.07,24.56 51.8,36.72 26.26,20.29 20.26,11.81 34.79,37.84 70.64,23.7 175.82,141.21 222.61,196.2 70.33,82.68 109.12,154.97 159.08,272.88l8.75 8.5c172.81,-310.8 168.65,-677.68 -46.98,-956.87l-35.57 -42.41c-53.41,22.46 -94.48,60.88 -163.97,69.2 -182.73,21.89 -222.41,-47.96 -290.97,-55.28 -140.14,-14.97 -167.71,17.43 -194.29,-152.13l55.39 -47.27c26.4,14.62 51.65,31.36 79.96,48.86 -34.97,-75.69 -51.54,-94.6 -141.35,-126.01 -69.15,-24.17 -175.11,-61.41 -235.05,-6.27 -91.06,6.65 -191.48,68.83 -254.28,112.44 -39.51,27.43 -60.61,41.67 -98.3,77.47 -26.48,25.15 -58.48,65.27 -86.31,85.17l-39.02 53.77c-6.83,10.33 -11.11,18.63 -20.01,31.42 -9.39,13.48 -9.92,13.6 -18.72,22.97z"/>
  <path class="fil5 str1" d="M3582.5 1185.72l79.09 3.83c4.34,-73.25 1.75,-81.69 -67.18,-66.15 -42.93,80.57 -14.19,46.53 -11.91,62.32z"/>
  <path class="fil4 str0" d="M3259.03 1095.35c-20.04,48.64 -0.52,34.96 -41.47,32.98 14.61,-47.8 -11.07,-23.35 41.47,-32.98zm-1.36 60.69l14.21 -23.54 0.42 -49.49c-53.74,-41.27 -100.62,-1.75 -71.52,64.09l56.89 8.94z"/>
  <path class="fil4" d="M3271.88 1132.5l-14.21 23.54c-5.75,47.8 15.02,28.19 46.29,18.25 30.81,-18.94 37.07,-18.33 55.61,-52.39l-13.16 -8.6c-42.73,-2.83 -39.87,-7.37 -60.72,7.09l-13.81 12.11z"/>
  <path class="fil4 str0" d="M3272.3 1083.01l-0.42 49.49 13.81 -12.11c20.85,-14.46 17.99,-9.92 60.72,-7.09l-2.83 -18.04 -48.34 5.06 10.14 -41.17c-35.03,21.36 7.89,-19.67 -33.08,23.86z"/>
  <polygon class="fil4 str0" points="3343.58,1095.26 3335.64,1063.93 3305.38,1059.15 3295.24,1100.32 "/>
  <path class="fil4 str0" d="M3142.21 1052.24l33.5 -50.65 -54.36 1.27c18.9,22.85 13.01,-4.02 20.86,49.38z"/>
  <path class="fil4 str0" d="M3217.56 1128.33c40.95,1.98 21.43,15.66 41.47,-32.98 -52.54,9.63 -26.86,-14.82 -41.47,32.98z"/>
  <path class="fil4" d="M2544.45 1083.86c3.25,-5.29 5.65,-3.01 7.75,-19.74l-6.18 -11.89c-40.02,18.7 -8.03,18.13 -1.57,31.63z"/>
  <path class="fil4 str0" d="M3226.02 1017.25l9.64 -12.23c-2.78,-24.32 1.63,-5.78 -9.64,-18.17 -10.96,17.78 -23.08,8.07 0,30.4z"/>
  <path class="fil7" d="M3225.94 1783.76c1.41,-22.11 -5.07,-18.2 14.83,-16.77l-27.99 -15.79 13.16 32.56z"/>
  <g>
   <path class="fil8" d="M2441.51 2221.26l-26.84 0 0 0 -0.1 -3.48 -0.29 -3.42 -0.48 -3.39 -0.67 -3.3 -0.85 -3.26 -1.03 -3.23 -1.19 -3.15 -1.36 -3.07 -1.55 -3.03 -1.69 -2.94 -1.86 -2.87 -2.02 -2.8 -2.17 -2.72 -2.32 -2.61 -2.45 -2.53 -2.6 -2.42 -2.75 -2.33 -2.85 -2.2 -2.99 -2.08 -3.12 -1.98 -3.24 -1.84 -3.35 -1.71 -3.42 -1.57 -3.54 -1.42 -3.65 -1.27 -3.73 -1.13 -3.81 -0.96 -3.88 -0.8 -3.97 -0.62 -4.05 -0.46 -4.11 -0.28 -4.16 -0.09 0 -26.84 5.38 0.13 5.29 0.36 5.23 0.58 5.17 0.82 5.08 1.04 4.99 1.26 4.87 1.47 4.77 1.67 4.68 1.88 4.56 2.07 4.41 2.27 4.28 2.44 4.16 2.62 4.01 2.8 3.87 2.98 3.69 3.13 3.54 3.3 3.37 3.45 3.18 3.61 2.99 3.74 2.8 3.88 2.62 4.03 2.39 4.16 2.17 4.27 1.96 4.41 1.71 4.51 1.47 4.59 1.23 4.72 0.95 4.8 0.7 4.87 0.43 4.94 0.14 5 0 0zm-106.09 95.79l0 -26.84 0 0 4.16 -0.09 4.11 -0.28 4.05 -0.46 3.97 -0.62 3.88 -0.8 3.81 -0.96 3.73 -1.13 3.65 -1.27 3.54 -1.42 3.42 -1.57 3.35 -1.71 3.25 -1.85 3.11 -1.96 2.98 -2.08 2.86 -2.21 2.75 -2.33 2.6 -2.42 2.45 -2.53 2.32 -2.61 2.17 -2.72 2.02 -2.8 1.86 -2.87 1.69 -2.94 1.55 -3.03 1.36 -3.07 1.19 -3.15 1.03 -3.23 0.85 -3.25 0.67 -3.31 0.48 -3.39 0.29 -3.41 0.1 -3.48 26.84 0 -0.14 5 -0.43 4.95 -0.7 4.85 -0.95 4.81 -1.23 4.71 -1.47 4.59 -1.71 4.51 -1.96 4.41 -2.17 4.27 -2.39 4.16 -2.62 4.03 -2.8 3.88 -2.99 3.74 -3.18 3.61 -3.37 3.45 -3.54 3.3 -3.69 3.13 -3.86 2.97 -4.02 2.82 -4.17 2.62 -4.27 2.43 -4.41 2.27 -4.56 2.07 -4.68 1.88 -4.77 1.67 -4.87 1.47 -4.99 1.26 -5.08 1.04 -5.17 0.82 -5.23 0.58 -5.29 0.36 -5.38 0.13 0 0zm-106.09 -95.79l26.84 0 0 0 0.1 3.48 0.29 3.41 0.48 3.39 0.67 3.31 0.85 3.25 1.03 3.23 1.19 3.15 1.36 3.07 1.55 3.03 1.69 2.94 1.86 2.87 2.02 2.8 2.17 2.72 2.32 2.61 2.45 2.53 2.6 2.42 2.75 2.33 2.86 2.21 2.98 2.08 3.11 1.96 3.25 1.85 3.35 1.71 3.42 1.57 3.54 1.42 3.65 1.27 3.73 1.13 3.81 0.96 3.88 0.8 3.97 0.62 4.05 0.46 4.11 0.28 4.16 0.09 0 26.84 -5.38 -0.13 -5.29 -0.36 -5.23 -0.58 -5.17 -0.82 -5.08 -1.04 -4.99 -1.26 -4.87 -1.47 -4.77 -1.67 -4.68 -1.88 -4.56 -2.07 -4.41 -2.27 -4.27 -2.43 -4.17 -2.62 -4.02 -2.82 -3.86 -2.97 -3.69 -3.13 -3.54 -3.3 -3.37 -3.45 -3.18 -3.61 -2.99 -3.74 -2.8 -3.88 -2.62 -4.03 -2.39 -4.16 -2.17 -4.27 -1.96 -4.41 -1.71 -4.51 -1.47 -4.59 -1.23 -4.71 -0.95 -4.81 -0.7 -4.85 -0.43 -4.95 -0.14 -5 0 0zm106.09 -95.8l0 26.84 0 0 -4.16 0.09 -4.11 0.28 -4.05 0.46 -3.97 0.62 -3.88 0.8 -3.81 0.96 -3.73 1.13 -3.65 1.27 -3.54 1.42 -3.42 1.57 -3.35 1.71 -3.24 1.84 -3.12 1.98 -2.99 2.08 -2.85 2.2 -2.75 2.33 -2.6 2.42 -2.45 2.53 -2.32 2.61 -2.17 2.72 -2.02 2.8 -1.86 2.87 -1.69 2.94 -1.55 3.03 -1.36 3.07 -1.19 3.15 -1.03 3.23 -0.85 3.26 -0.67 3.3 -0.48 3.39 -0.29 3.42 -0.1 3.48 -26.84 0 0.14 -5 0.43 -4.94 0.7 -4.87 0.95 -4.8 1.23 -4.72 1.47 -4.59 1.71 -4.51 1.96 -4.41 2.17 -4.27 2.39 -4.16 2.62 -4.03 2.8 -3.88 2.99 -3.74 3.18 -3.61 3.37 -3.45 3.54 -3.3 3.69 -3.13 3.87 -2.98 4.01 -2.8 4.16 -2.62 4.28 -2.44 4.41 -2.27 4.56 -2.07 4.68 -1.88 4.77 -1.67 4.87 -1.47 4.99 -1.26 5.08 -1.04 5.17 -0.82 5.23 -0.58 5.29 -0.36 5.38 -0.13 0 0z"/>
   <path id="1" class="fil5" d="M2335.42 2138.88c51.18,0 92.67,36.88 92.67,82.38 0,45.49 -41.49,82.37 -92.67,82.37 -51.18,0 -92.67,-36.88 -92.67,-82.37 0,-45.5 41.49,-82.38 92.67,-82.38z"/>
  </g>
  <g>
   <path class="fil9" d="M3129.51 1002.35c4.55,4.34 17.18,20.34 19.89,21.46 -0.8,3.87 8.93,19.87 11.24,25.24 -39.1,16.69 -59.89,-16.13 -31.13,-46.7z"/>
  </g>
  <path class="fil10" d="M3129.51 1002.35c0,30.21 2.45,36.78 31.13,46.7"/>
  <ellipse class="fil11 str2" cx="3156.6" cy="932.03" rx="25.83" ry="25.97"/>
  <ellipse class="fil11 str2" cx="3233.67" cy="1111.49" rx="43.4" ry="41.16"/>
  <path class="fil5" d="M3594.41 1123.4c68.93,-15.54 71.52,-7.1 67.18,66.15l-79.09 -3.83c-2.28,-15.79 -31.02,18.25 11.91,-62.32zm-1006.08 54.38c-15.51,-70.28 -9.52,-56.89 52.12,-59.19 -21.64,50.15 -6.98,27.93 -52.12,59.19zm-42.31 -125.55l6.18 11.89c-2.1,16.73 -4.5,14.45 -7.75,19.74 -6.46,-13.5 -38.45,-12.93 1.57,-31.63zm42.69 31.98c4.76,-64.42 -31.91,-55.81 179.39,-70.37 -8.43,15.59 4.81,27.09 -72.81,69.05 -22.26,12.03 -11.56,14.03 -49.73,14.88l-56.85 -13.56zm800.49 -101.86c65.24,11.25 248.1,85.57 180.1,154.85 -51.43,52.4 -136.08,-46.02 -153.91,-90.38 -8.97,-22.33 -11.03,-42.47 -26.19,-64.47zm-907 336.02l5.93 2.96c57.88,-39.9 95.61,-106.71 142.49,-151l166.86 -135.86c43.46,-34.66 241.26,-135.61 306.12,-118.24 85.83,22.97 34.7,21.34 109.8,-12.14 27.17,25.5 12.43,32.24 55.76,38.5 77.19,11.14 79.3,23.91 147.1,152.57 65.44,37.94 55.06,93.57 104.83,150.96l7.83 -10.51 -14.96 -56.11c69.58,8.73 116.28,41.77 170.16,34.97 25.3,-171.23 -316.99,-265.23 -330.44,-271.96 -231.58,-115.83 -227.67,-66.59 -466.53,6.47 -114.65,61.24 -147.26,39.01 -290.74,57.75 0.45,-122.94 26.56,-293.31 33.42,-427.97 6.98,-136.76 -0.07,-309.12 11.96,-441.18l-13.21 0c-46.69,195.87 -26.62,473.91 -53.26,712.86 -28.12,252.27 -0.46,132.81 -61.73,208.52 14.52,79.58 51.82,12.23 24.96,134.63 -14.04,63.98 -38.67,73.67 -56.35,124.78z"/>
  <ellipse class="fil5 str3" cx="3317.56" cy="1082.59" rx="14.53" ry="13.88"/>
  <ellipse class="fil5 str4" cx="3250.92" cy="947.87" rx="14.53" ry="13.88"/>
  <path class="fil12" d="M1310.99 920.65l17.56 44.77c5.75,14.37 11.48,29.19 17.09,44.61 8.3,22.23 13.24,35.7 15.07,40.32 1.83,4.63 6.33,14.37 13.31,29.13 -0.83,-16.72 -4.6,-46.86 -11.14,-90.36l-10.37 -76.47 -3.58 -25.79 -3.36 -24.44 -3.47 -25.38c-5.47,-51.61 -6.72,-89.28 -4,-112.81 2.39,-15.88 10.25,-25.69 23.77,-29.36 19.1,-5.18 38.11,-4.36 56.91,2.49 18.8,6.86 30.14,17.16 33.84,30.81 0.65,2.39 2.54,26.65 5.53,72.81 1.11,20.34 4.68,55.53 10.72,105.57 2.59,22.64 5.3,48.38 8.15,77.22 2.71,28.87 4.72,50.96 5.89,66.3 0,0 1.67,21.33 5.28,64.04l3.42 34.1 2.62 34.31c1.84,21.42 4.72,43.55 8.3,66.22 0.97,8.27 0.09,14.49 -2.36,18.57 -2.61,3.99 -8.02,7.16 -16.25,9.39 -8.08,2.19 -16.51,3.63 -25.3,4.31 -8.88,0.84 -22.01,0.71 -39.46,-0.11 -1.01,-0.58 -7.27,-0.59 -18.87,-0.29 -11.97,-0.02 -19.74,-0.34 -23.58,-0.86 -3.71,-0.56 -7.24,-2.02 -10.28,-4.33 -3.18,-2.27 -5.81,-5.68 -7.96,-9.93 -2.16,-4.25 -4.69,-10.98 -7.67,-19.85 -2.26,-8.34 -5.63,-18.11 -10.29,-29.52 -4.66,-11.4 -9.88,-23.79 -15.82,-37.27 -2.19,-4.96 -9.42,-22.64 -21.75,-52.89 -10.68,-25.71 -19.99,-46.39 -28.13,-61.68 0.4,26.64 4.32,66.29 11.95,119.03 5.71,35.18 9.46,59.49 11.36,72.79 3.34,31.69 5.26,48.26 5.7,49.85 2.17,12.21 1.89,21.12 -0.83,26.84 -2.85,5.75 -8.56,9.87 -17.32,12.25 -5.43,1.47 -10.92,2.24 -16.35,2.15 -5.44,-0.08 -14.15,-1.28 -26.16,-3.57 -11.09,-2.54 -20.73,-2.92 -29.22,-1.18 -17.22,2.11 -30.2,1.51 -39.1,-1.92 -8.77,-3.45 -14.53,-10 -17.12,-19.55l-6.19 -25.93c-1.11,-4.11 -9.58,-22.18 -25.15,-54.39 -5.27,-9.96 -14.7,-31.59 -28.57,-64.84l-13.49 -29.8 -12.26 -29.97c-26.94,-63.59 -44.81,-107.42 -53.6,-131.37 -19.17,-53.3 -30.28,-82.18 -33.14,-86.96 -3.9,-10.18 -6.27,-16.8 -7.21,-20.25 -1.76,-6.49 -0.41,-12.55 4.18,-18.21 4.58,-5.65 11.3,-9.76 20.18,-12.17 3.32,-0.9 8.76,-1.8 16.34,-2.72 13.7,-1.44 26.75,-3.71 39.1,-6.49 12.07,-2.71 20.39,-3.54 25.08,-2.54 4.77,0.84 8.8,5.17 11.98,12.69 3.35,7.63 8.42,22.63 14.94,45.07 4.35,16.04 12.57,39 24.61,69.18 10.19,28.13 18.34,51.83 24.5,71.37 8.46,30.15 14.22,49.8 17.34,58.63 3.11,8.84 8.3,20.1 15.57,33.79 -0.25,-12.47 -0.69,-20.88 -1,-25.21 -0.33,-4.33 -1.13,-10.94 -2.4,-19.85 -1.24,-8.77 -4.14,-26.78 -8.38,-53.96 -3.67,-26.61 -6.31,-49.96 -7.88,-70.45 -4.67,-46.57 -7.73,-73.07 -9.49,-79.56l-4.3 -12.65c-4.85,-17.89 -1.7,-28.29 9.44,-31.32 3.05,-0.82 7.24,-1.1 12.31,-0.78 4.63,-0.25 9.82,-1.09 15.52,-2.64 12.73,-3.45 21.59,-5.43 26.7,-5.97 5.12,-0.53 15.56,-0.38 31,0.41 12.57,0.15 20.56,1.25 23.76,3.09 3.38,1.93 5.94,6.65 7.96,14.08l4.3 18.47c0.9,3.32 5.96,18.31 15.39,44.65 3.04,7 5.08,12.42 6.13,16.28zm305.51 265.97l-6.23 -22.94 -42.13 -143.15 -12.52 -48.71 -17.48 -64.43c-3.82,-14.06 -3.73,-24.76 0.09,-32.2 3.81,-7.44 12.04,-12.81 24.36,-16.15 16.98,-4.61 35.37,-5.04 55.2,-1.17 10.61,1.81 18.55,5.36 24.08,10.55 5.4,5.21 9.53,13.07 12.4,23.67 1.62,5.97 2.66,10.82 3.1,14.54 1.13,5.24 2.23,9.78 3.2,13.36 0.78,3.92 2.21,10.22 4.41,18.87 2.03,8.57 4.37,18.75 7.01,30.56 2.4,9.88 4.03,16.42 4.86,19.47 0.93,3.45 2.09,8.25 3.52,14.56 1.43,6.3 2.68,11.94 3.85,17.31 8.31,36.89 14.71,63.63 19.2,80.2 9.07,33.41 16.24,56.67 21.57,70.03 1.36,2.9 2.71,6.81 4.08,11.85 2.3,8.48 0.66,16.61 -5.05,24.42 -5.7,7.82 -14.2,13.25 -25.59,16.34 -4.25,1.16 -9.61,1.33 -16.26,0.43 -6.62,-0.76 -18.74,-3.45 -36.29,-7.8 -9.24,-2.05 -15.69,-4.85 -19.57,-8.64 -3.77,-3.95 -7.08,-10.89 -9.81,-20.97zm-118.9 -438.06l-2.28 -5.21c-1.26,-4.64 1.65,-13.84 8.92,-27.48 5,-9.89 13.2,-16.4 24.34,-19.42 5.69,-1.55 10.69,-2.04 14.87,-1.33 4.14,0.58 11.91,2.46 23,5.58 5.29,1.12 14.26,6.37 26.86,16.05 6.72,4.3 10.69,8.49 11.81,12.6 0.5,1.85 0.66,6.65 0.65,14.48 -0.23,3.34 -0.21,5.47 -0.03,6.13 0.43,1.59 2.87,5.34 7.22,11.42 2.04,3.29 3.32,5.93 3.83,7.79 2.88,10.61 0.87,22.12 -5.88,34.47 -6.88,12.41 -14.97,19.87 -24.65,22.5 -5.69,1.54 -12.78,2.18 -21.08,2.02 -5.34,-0.26 -14.11,0.98 -26.19,3.69 -12.68,2.59 -22.02,-2.99 -28.33,-16.8 -8.32,-17.52 -13.71,-30.58 -16.12,-39.46 -1.19,-4.38 -0.86,-9.45 0.99,-15.22 1.99,-5.81 2.64,-9.68 2.07,-11.81zm283.57 393.37l-6.23 -22.94 -42.13 -143.15 -12.51 -48.72 -17.49 -64.43c-3.82,-14.06 -3.73,-24.75 0.09,-32.19 3.81,-7.44 12.04,-12.82 24.37,-16.16 16.97,-4.61 35.36,-5.04 55.2,-1.17 10.6,1.81 18.54,5.36 24.07,10.55 5.41,5.22 9.53,13.07 12.41,23.68 1.62,5.96 2.65,10.81 3.09,14.53 1.13,5.24 2.23,9.78 3.2,13.36 0.78,3.93 2.21,10.22 4.41,18.88 2.04,8.56 4.38,18.75 7.01,30.56 2.4,9.87 4.03,16.42 4.86,19.46 0.94,3.45 2.09,8.25 3.53,14.56 1.42,6.31 2.67,11.95 3.84,17.32 8.31,36.89 14.71,63.63 19.21,80.2 9.06,33.41 16.24,56.66 21.56,70.02 1.36,2.91 2.71,6.81 4.08,11.85 2.3,8.48 0.66,16.61 -5.05,24.42 -5.7,7.82 -14.2,13.26 -25.59,16.35 -4.25,1.15 -9.61,1.32 -16.26,0.42 -6.62,-0.76 -18.74,-3.45 -36.29,-7.79 -9.24,-2.06 -15.69,-4.85 -19.57,-8.65 -3.77,-3.95 -7.08,-10.89 -9.81,-20.96zm-118.9 -438.06l-2.28 -5.22c-1.26,-4.64 1.66,-13.83 8.92,-27.47 5,-9.9 13.2,-16.4 24.34,-19.43 5.69,-1.54 10.69,-2.04 14.87,-1.33 4.14,0.59 11.91,2.47 23,5.58 5.29,1.12 14.26,6.38 26.86,16.06 6.72,4.3 10.69,8.48 11.81,12.59 0.5,1.86 0.66,6.65 0.66,14.49 -0.24,3.33 -0.22,5.46 -0.04,6.12 0.43,1.59 2.87,5.34 7.22,11.43 2.04,3.29 3.32,5.92 3.83,7.79 2.88,10.6 0.87,22.11 -5.88,34.47 -6.88,12.4 -14.97,19.86 -24.65,22.49 -5.69,1.55 -12.78,2.19 -21.08,2.02 -5.34,-0.26 -14.11,0.98 -26.19,3.69 -12.67,2.59 -22.02,-2.98 -28.33,-16.79 -8.32,-17.52 -13.71,-30.59 -16.12,-39.47 -1.19,-4.38 -0.85,-9.44 0.99,-15.22 1.99,-5.8 2.64,-9.68 2.07,-11.8zm283.57 393.36l-6.23 -22.94 -42.13 -143.15 -12.51 -48.71 -17.49 -64.43c-3.82,-14.06 -3.73,-24.76 0.09,-32.2 3.81,-7.44 12.04,-12.81 24.37,-16.16 16.97,-4.6 35.36,-5.04 55.2,-1.17 10.6,1.82 18.54,5.36 24.07,10.55 5.41,5.22 9.53,13.08 12.41,23.68 1.62,5.97 2.65,10.81 3.09,14.54 1.13,5.23 2.23,9.78 3.2,13.36 0.78,3.92 2.21,10.22 4.41,18.87 2.04,8.57 4.38,18.75 7.01,30.56 2.4,9.88 4.03,16.42 4.86,19.47 0.94,3.44 2.1,8.25 3.53,14.55 1.42,6.31 2.67,11.95 3.84,17.32 8.31,36.89 14.71,63.63 19.21,80.2 9.07,33.41 16.24,56.67 21.56,70.03 1.36,2.9 2.71,6.8 4.08,11.84 2.3,8.49 0.66,16.62 -5.05,24.43 -5.7,7.81 -14.19,13.25 -25.59,16.34 -4.25,1.15 -9.61,1.33 -16.26,0.43 -6.62,-0.77 -18.74,-3.46 -36.29,-7.8 -9.24,-2.05 -15.69,-4.85 -19.57,-8.65 -3.77,-3.95 -7.07,-10.88 -9.81,-20.96zm-118.9 -438.06l-2.28 -5.21c-1.26,-4.65 1.66,-13.84 8.92,-27.48 5,-9.89 13.2,-16.4 24.34,-19.42 5.69,-1.55 10.69,-2.04 14.87,-1.34 4.14,0.59 11.91,2.47 23,5.58 5.29,1.13 14.26,6.38 26.86,16.06 6.72,4.3 10.69,8.48 11.81,12.6 0.5,1.85 0.66,6.64 0.66,14.48 -0.24,3.34 -0.22,5.47 -0.04,6.12 0.43,1.6 2.87,5.35 7.23,11.43 2.03,3.29 3.31,5.93 3.82,7.79 2.88,10.61 0.87,22.11 -5.88,34.47 -6.88,12.41 -14.96,19.87 -24.64,22.49 -5.7,1.55 -12.79,2.19 -21.09,2.03 -5.34,-0.26 -14.11,0.98 -26.19,3.69 -12.67,2.59 -22.02,-2.99 -28.33,-16.8 -8.32,-17.52 -13.71,-30.58 -16.12,-39.46 -1.19,-4.39 -0.85,-9.45 0.99,-15.22 1.99,-5.81 2.65,-9.69 2.07,-11.81zm283.57 393.37l-6.22 -22.94 -42.13 -143.16 -12.52 -48.71 -17.49 -64.43c-3.82,-14.06 -3.72,-24.76 0.09,-32.2 3.81,-7.43 12.04,-12.81 24.37,-16.15 16.97,-4.61 35.36,-5.04 55.2,-1.17 10.6,1.81 18.54,5.36 24.07,10.55 5.41,5.21 9.53,13.07 12.41,23.68 1.62,5.96 2.65,10.81 3.1,14.53 1.13,5.24 2.22,9.78 3.2,13.36 0.77,3.92 2.2,10.22 4.4,18.87 2.04,8.57 4.38,18.75 7.01,30.57 2.4,9.87 4.04,16.41 4.86,19.46 0.94,3.45 2.1,8.25 3.53,14.56 1.42,6.3 2.67,11.94 3.84,17.32 8.31,36.89 14.71,63.62 19.21,80.19 9.07,33.42 16.24,56.67 21.56,70.03 1.36,2.91 2.71,6.81 4.08,11.85 2.3,8.48 0.67,16.61 -5.05,24.42 -5.7,7.82 -14.19,13.25 -25.59,16.35 -4.25,1.15 -9.61,1.32 -16.26,0.42 -6.62,-0.76 -18.74,-3.45 -36.29,-7.8 -9.24,-2.05 -15.68,-4.85 -19.56,-8.64 -3.78,-3.95 -7.08,-10.89 -9.82,-20.96zm-118.9 -438.06l-2.27 -5.22c-1.26,-4.64 1.65,-13.84 8.91,-27.48 5,-9.89 13.2,-16.4 24.34,-19.42 5.7,-1.55 10.69,-2.04 14.87,-1.33 4.14,0.59 11.91,2.46 23.01,5.58 5.29,1.12 14.25,6.38 26.85,16.05 6.72,4.3 10.7,8.49 11.81,12.6 0.5,1.85 0.67,6.65 0.66,14.48 -0.24,3.34 -0.22,5.47 -0.04,6.13 0.43,1.59 2.87,5.34 7.23,11.42 2.03,3.3 3.32,5.93 3.82,7.79 2.88,10.61 0.87,22.12 -5.87,34.48 -6.88,12.4 -14.97,19.86 -24.65,22.49 -5.7,1.54 -12.79,2.18 -21.09,2.02 -5.33,-0.26 -14.11,0.98 -26.19,3.69 -12.67,2.59 -22.02,-2.98 -28.33,-16.79 -8.32,-17.53 -13.71,-30.59 -16.12,-39.47 -1.19,-4.38 -0.85,-9.45 0.99,-15.22 1.99,-5.8 2.65,-9.68 2.07,-11.8zm369.38 243.8l0.87 3.18 7.43 17.91c1.69,6.24 -4.08,11.22 -17.2,14.78 -3.72,1.01 -12.98,1.53 -28,1.76 -3,-0.03 -7.72,0.4 -13.91,1.22 -7.17,0.8 -13.53,-0.03 -18.85,-2.86 -5.28,-2.7 -8.69,-6.32 -9.95,-10.96l-5.31 -35.29c-0.43,-1.59 -2.48,-6.01 -6.2,-13.41 -2.1,-3.55 -9.9,-25.49 -23.64,-65.61 -6.06,-18.14 -12.19,-35.98 -18.27,-53.68 -6.23,-17.68 -10.61,-30.16 -13.19,-37.57 -2.55,-7.28 -4.75,-14.37 -6.59,-21.13 -2.03,-6.43 -3.97,-13.02 -5.87,-20.04 -6.34,-23.34 -10.18,-42.22 -11.5,-56.53 -1.75,-10.63 -2.79,-16.04 -2.86,-16.31 0.07,0.27 0.11,0.41 0.11,0.41 0,0 -2.09,-6.13 -6.54,-18.31l-4.96 -18.29c-3.49,-12.86 -5.29,-23.19 -5.28,-31.03 -0.13,-7.79 2.08,-14.36 6.26,-19.91 4.23,-5.42 11.95,-12.08 23.23,-19.83 2.78,-0.76 5.48,-0.78 8.1,-0.06 2.61,0.71 10.29,3.32 23.22,7.93 9.22,3.04 16.93,5.22 23.13,6.53 17.49,3.09 29.24,6.01 35.26,8.79 6.06,2.92 9.91,7.13 11.46,12.84 0.82,3.05 0.73,6.92 -0.1,11.69 -0.78,7.62 -0.16,17.28 1.94,28.66 5.19,41.15 8.54,65.02 9.81,71.79 1.23,6.64 7.15,32.65 17.86,77.86 5.4,23.02 11.01,52.1 16.97,87.21 5.84,35.14 10.1,64.45 12.57,88.26zm57.14 90.4l1.58 5.84c0.73,4.78 2.29,12.61 4.77,23.33 3.22,16.06 1.96,31.35 -3.88,46.04 -2.3,4.6 -4.56,7.79 -6.8,9.53 -2.07,1.84 -8.66,5.34 -19.48,10.55 -1.33,0.37 -5.03,3.5 -11.28,9.32 -5.13,5.24 -9.53,8.43 -12.85,9.34 -5.69,1.54 -14.01,-0.76 -24.84,-7.08 -6.62,-2.89 -14.42,-6.47 -23.4,-10.72 -13.98,-5.32 -22.18,-12.49 -24.55,-21.24 -0.37,-1.33 -0.36,-7.59 -0.11,-18.77 -0.21,-1.78 -0.45,-3.72 -0.82,-5.61 -0.33,-1.75 -1.31,-5.33 -2.71,-10.5 -2.82,-15.61 -0.49,-28.05 6.95,-37.34 7.58,-9.32 21.26,-16.59 41.29,-22.02 22,-5.98 38.85,-6.85 50.56,-2.48 5.3,1.7 10.56,4.82 16,9.61 5.56,4.75 8.67,8.89 9.57,12.2z"/>
 </g>
</svg>
