<?xml version="1.0" encoding="UTF-8"?>
<!DOCTYPE svg PUBLIC "-//W3C//DTD SVG 1.1//EN" "http://www.w3.org/Graphics/SVG/1.1/DTD/svg11.dtd">
<!-- Creator: CorelDRAW 2017 -->
<svg xmlns="http://www.w3.org/2000/svg" xml:space="preserve" width="50.7998mm" height="33.8666mm" version="1.1" style="shape-rendering:geometricPrecision; text-rendering:geometricPrecision; image-rendering:optimizeQuality; fill-rule:evenodd; clip-rule:evenodd"
viewBox="0 0 5079.98 3386.66"
 xmlns:xlink="http://www.w3.org/1999/xlink">
 <defs>
  <style type="text/css">
   <![CDATA[
    .fil0 {fill:none}
    .fil1 {fill:#606062;fill-rule:nonzero}
   ]]>
  </style>
 </defs>
 <g id="Capa_x0020_1">
  <metadata id="CorelCorpID_0Corel-Layer"/>
  <rect class="fil0" x="-0" width="5079.99" height="3386.66"/>
  <path class="fil1" d="M2211.15 1556.74l66.6 -1428.98 83.67 -12.55 -39.65 1638.99 -311.64 -267.94 -217.26 346.39 -503.29 -1557.58 84.8 -12.72 466.69 1353.29 149.8 -240.77 220.28 181.87zm322.06 -1000.37l56.69 -8.5 173.84 1159.48 -56.68 8.51 -173.85 -1159.49zm565.18 538.15c-85.93,12.88 -163.23,-6.05 -232.06,-56.58 -68.86,-50.72 -109.49,-118.06 -122.07,-201.97 -12.58,-83.92 6.51,-160.21 57.3,-228.67 50.78,-68.46 118.15,-108.88 202.06,-121.46 83.51,-12.52 159.57,6.4 228.2,56.95 68.43,50.59 109.05,117.92 121.63,201.84l-57.89 8.68c-10.1,-67.38 -42.98,-121.64 -98.69,-162.99 -55.67,-41.16 -117.19,-56.68 -184.57,-46.58 -68.18,10.22 -122.64,43.13 -163.6,98.78 -40.72,55.81 -56.04,117.3 -45.94,184.68 10.22,68.18 43.14,122.64 98.78,163.59 55.87,41.13 118.58,56.28 188.77,45.75 85.94,-12.89 161.79,6.05 227.54,56.64 65.74,50.57 104.89,117.71 117.47,201.62 12.59,83.92 -6.3,160.18 -56.88,228.62 -50.59,68.42 -117.76,108.81 -201.67,121.39 -83.85,12.99 -160.11,-5.9 -228.77,-56.65 -68.66,-50.76 -109.55,-118.47 -122.65,-203.13l58.49 -8.77c10.29,68.58 43.27,123.45 98.7,164.44 55.44,40.98 117.37,56.44 185.55,46.22 67.38,-10.1 121.68,-42.79 162.89,-98.06 41.18,-55.46 56.68,-117.19 46.46,-185.37 -10.1,-67.38 -41.55,-121.65 -94.74,-162.76 -52.99,-41.15 -114.51,-56.68 -184.31,-46.21zm-1117.38 720.77l-157.26 238.47 -214.65 -186.13 208.69 1391.98 -78.95 11.84 -238.63 -1597.27 308.05 266.78 219.48 -346.72 238.63 1597.26 -78.12 11.71 -207.24 -1387.92zm779.6 1242.56c25.62,-3.84 40.29,7.37 44.2,33.38 3.84,25.63 -6.96,40.24 -32.58,44.08 -26.02,3.9 -41.04,-6.84 -44.88,-32.46 -3.91,-26.03 7.24,-41.1 33.26,-45zm-370.83 134.8l208.69 -1216.22 563.68 1100.41 -64.95 9.74 -471.26 -926.99 -175.25 1023.93 -60.91 9.13zm938.36 -198.65l295.92 -44.37 8.5 56.69 -382.17 57.91 130.17 -1147.11 -296.72 44.49 -8.5 -56.68 384.17 -56.98 -131.37 1146.05zm231.73 -1161.71l56.68 -8.5 173.85 1159.48 -56.69 8.5 -173.84 -1159.48z"/>
 </g>
</svg>
