<?xml version="1.0" encoding="UTF-8"?>
<!DOCTYPE svg PUBLIC "-//W3C//DTD SVG 1.1//EN" "http://www.w3.org/Graphics/SVG/1.1/DTD/svg11.dtd">
<!-- Creator: CorelDRAW 2017 -->
<svg xmlns="http://www.w3.org/2000/svg" xml:space="preserve" width="50.7998mm" height="33.8666mm" version="1.1" style="shape-rendering:geometricPrecision; text-rendering:geometricPrecision; image-rendering:optimizeQuality; fill-rule:evenodd; clip-rule:evenodd"
viewBox="0 0 5079.98 3386.66"
 xmlns:xlink="http://www.w3.org/1999/xlink">
 <defs>
  <style type="text/css">
   <![CDATA[
    .str0 {stroke:#373435;stroke-width:20;stroke-miterlimit:22.9256}
    .fil0 {fill:none}
    .fil16 {fill:#FEFEFE}
    .fil18 {fill:#FEFEFE}
    .fil2 {fill:black}
    .fil9 {fill:#102671}
    .fil3 {fill:#1E84F0}
    .fil4 {fill:#31541B}
    .fil5 {fill:#427A23}
    .fil17 {fill:#717DA9}
    .fil6 {fill:#7CED3B}
    .fil11 {fill:#A91E3B}
    .fil7 {fill:#B7BDD3}
    .fil1 {fill:#DFE0DC}
    .fil13 {fill:#ED5128}
    .fil10 {fill:#ED8E91}
    .fil14 {fill:#FAC893}
    .fil8 {fill:#FDFDFE}
    .fil12 {fill:#FED453}
    .fil15 {fill:#102671;fill-rule:nonzero}
   ]]>
  </style>
 </defs>
 <g id="Capa_x0020_1">
  <metadata id="CorelCorpID_0Corel-Layer"/>
  <rect class="fil0" x="-0" width="5079.99" height="3386.66"/>
  <g id="_2254672015488">
   <ellipse class="fil1 str0" transform="matrix(1.47277 -0.208755 0.208755 1.47277 2513.38 1772.55)" rx="893.15" ry="932.83"/>
   <ellipse class="fil2" transform="matrix(1.383 -0.196031 0.196031 1.383 2511.86 1764.25)" rx="893.15" ry="932.83"/>
   <ellipse class="fil3" transform="matrix(0.942985 -0.133662 0.133662 0.942985 2432.43 1470.46)" rx="893.15" ry="932.83"/>
   <path class="fil4" d="M1758.44 2577.89c-30.39,-18.52 -142.95,-123.6 -161.29,-172.23 -34.36,-100.29 28.16,-150.06 90.39,-197.31 69.89,-53.08 134.27,-77.23 216.96,-119.34l6.66 -20.38c-106.01,30.06 -232.88,99.88 -312.7,170.18 -31.2,27.48 -48.62,46.47 -75.85,75.96 1.89,89.72 191.58,238.78 235.83,263.12z"/>
   <path class="fil4" d="M2804.43 2067.34l8.85 -16c25.35,-48.02 82.5,-101.14 151.04,-129.48 105.67,-43.69 148.48,-25.46 246.54,-35.85 -65.46,-24.83 -203.21,-14.07 -272.77,15.91 -40.86,17.61 -68.81,39.36 -93.73,65.25 -11.97,12.42 -59.87,74.12 -39.93,100.17z"/>
   <path class="fil5" d="M1597.15 2405.66c18.34,48.63 130.9,153.71 161.29,172.23 22.31,19.39 77.9,57.07 109.03,64.45 -10.38,-94.55 -11.77,-183.9 -5.87,-276.22 5.87,-91.71 24.13,-165.44 38.22,-251.34 -40,35.9 -81.37,248.84 -86.45,291.36 -8.15,68.43 -43.41,106.64 -100.39,83.52 -24.35,-9.89 -91.48,-65.07 -115.83,-84z"/>
   <path class="fil5" d="M2813.28 2051.34l-8.85 16c102.82,43.45 157.87,84.37 202.41,103.59 21.21,-139.58 251.22,-245.07 275.14,-269.94l-25.3 -6.6c7.32,14.07 11.9,3.39 -17.36,17 -70.92,32.99 -112.77,53.77 -175.41,106.74 -98.84,83.56 -146.79,23.02 -250.63,33.21z"/>
   <path class="fil5" d="M2300.34 2477.56c-56.75,36.8 -61.04,45.01 -140.52,40.7 -7.58,9.22 4.31,4.44 -13.15,5.72 -0.28,0.02 -17.72,-3.01 -18.02,-3.09 -25.45,-7.22 -43.94,-19.79 -62.45,-32.38 -20.61,-14.02 -20.62,-7.25 -24.15,-14.75 -1.05,-2.23 -3.17,-1.72 -4.81,-2.45 60.42,150.41 365.96,127.81 347.06,-113.16 -17.77,27.31 -10.13,54.05 -54.94,105.39 -29.54,33.85 -29,14.05 -29.02,14.02z"/>
   <path class="fil6" d="M1597.15 2405.66c24.35,18.93 91.48,74.11 115.83,84 56.98,23.12 92.24,-15.09 100.39,-83.52 5.08,-42.52 46.45,-255.46 86.45,-291.36l4.68 -25.77c-82.69,42.11 -147.07,66.26 -216.96,119.34 -62.23,47.25 -124.75,97.02 -90.39,197.31z"/>
   <path class="fil6" d="M2813.28 2051.34c103.84,-10.19 151.79,50.35 250.63,-33.21 62.64,-52.97 104.49,-73.75 175.41,-106.74 29.26,-13.61 24.68,-2.93 17.36,-17l-45.82 -8.38c-98.06,10.39 -140.87,-7.84 -246.54,35.85 -68.54,28.34 -125.69,81.46 -151.04,129.48z"/>
   <path class="fil6" d="M2037.24 2471.31c1.64,0.73 3.76,0.22 4.81,2.45 3.53,7.5 3.54,0.73 24.15,14.75 18.51,12.59 37,25.16 62.45,32.38 0.3,0.08 17.74,3.11 18.02,3.09 17.46,-1.28 5.57,3.5 13.15,-5.72 -53.23,-23.93 -102.31,-49.34 -107.63,-133.31 -4.11,-64.92 40.82,-125.17 97.89,-143.36 156.08,-49.74 248.67,146.88 150.26,235.97 0.02,0.03 -0.52,19.83 29.02,-14.02 44.81,-51.34 37.17,-78.08 54.94,-105.39 -24.68,-113.99 -121.55,-197.43 -247.92,-153.64 -100.57,34.86 -161.27,154.22 -99.14,266.8z"/>
   <path class="fil7" d="M2892.8 2548.5c-144.02,219.32 -706.74,189.67 -824.25,123.99 -186.1,-104.02 -146.7,-337.78 -147.89,-481.27l-10.32 27.69c-22.92,114.14 -29.17,337.65 -8.04,443.96 140.52,75.3 378.03,120.5 570.87,120.78 163.43,0.24 341.39,-31.22 486.54,-106.65 28.2,-14.66 38.71,-16.41 50.54,-43.4 9.52,-21.72 18.98,-42.37 18.99,-64.28 -66.01,3.38 -83.74,-10.05 -136.44,-20.82z"/>
   <path class="fil7" d="M2176.23 1861.48c6.98,20.74 10.38,34.76 5.41,53.59 9.34,4.77 3.32,-0.22 14.92,10.18 7.24,6.52 6.13,7.15 12.17,12.96 10.07,9.69 15.24,13.03 24.6,19.02 130.61,24.38 126.28,23.14 251.54,24.06 25.95,0.19 27.54,0.03 36.48,8.96l-55.95 17.78c8.83,73.75 98.62,201.2 102.09,222.81 8.76,54.6 -37.31,195.05 89.58,206.7 74.29,6.82 110.27,-34.02 120.21,-93.76 -21.11,23.35 -71.63,95.01 -147.34,57.23 -52.71,-26.31 -47.93,-110.99 -30.4,-157.92 12.19,-32.6 3.71,-41.86 -15.18,-69.49 -90.65,-132.54 -12.3,-220.43 -8.03,-256.71 -98.73,27.97 -216.48,49.24 -299.2,10.01 64.86,-5.89 149.29,5.96 214.15,-9.79 78,-18.94 64.04,-87.93 59.48,-167.55l30.33 -1.26c-15.88,-6.84 -9.97,-5.3 -32.18,-3.11 -30.67,69.04 -3.44,96.64 -168.28,102.43 -182.44,6.41 -151.75,-4.94 -209.87,-49.66l5.47 63.52z"/>
   <path class="fil7" d="M2775.81 2475.58c-8.24,-10.06 -13.16,-14.01 -20.18,-26.28 -128.73,34.81 -216.92,25.86 -221.22,-141.89 -2.7,-105.48 9.3,-54.74 -39.22,-145.14 -25.49,-47.51 -42.36,-105.29 -65.91,-149.53 -61.94,-2.83 -343.27,-12.53 -380.04,22.42 64.28,8.36 76.39,-30.62 130.38,-0.89 10.11,5.57 23.22,10.63 38.84,13.72 50.17,9.91 143.89,-6.61 182.25,9.21 13.66,15.93 53.62,129.53 69.55,160.26 68.69,132.38 23.55,32.92 39.1,170.36 8.6,76.03 32.77,115.02 92.46,129.7 28.41,6.98 66.23,7.72 99.34,-1.94 53.06,-15.48 40.82,-34.54 74.65,-40z"/>
   <path class="fil7" d="M2121.46 1475.98c21.22,-8.29 7.52,-14.55 13,7.75 9.06,-19.17 2.91,-34.01 20.58,-38.47 23.21,-5.84 15.42,24.81 13.9,38.75 115.91,18.41 203.1,10.25 317.07,-41 86.18,-38.73 172.72,-108.84 194.26,-176.74 -94.8,25.66 -25.65,3.93 -113.73,75.06 -75.15,60.7 -173.15,98.98 -272.04,101.66 -63.05,1.71 -94.35,-12.75 -143.52,-17.8 -18.25,21.84 -20.31,21.48 -29.52,50.79z"/>
   <path class="fil7" d="M2671.31 1601.18l32.08 -17.62c-7.26,-34.04 -29.65,-83.47 -19.61,-109.57 1.09,-1.31 2.87,-4.61 3.83,-3.42l137.78 -70.24c113.2,-81.22 217.83,-235.72 223.93,-388.25 -11.26,13.56 -13.23,30.06 -17.71,44.99 -30.1,100.15 -90.48,191.91 -172.4,255.05 -58.64,45.19 -95.26,59.53 -164.17,93.39 -93.23,45.8 -27.39,108.5 -23.73,195.67z"/>
   <path class="fil7" d="M2006.26 1254.95l-2.87 -0.62c23.84,64.59 102.45,123.16 163.32,141.42 78.34,23.48 173.4,20.78 258.11,-9.27 147.77,-52.44 265.3,-180.5 240.04,-357.01 -0.59,-1.44 -5.49,-10.55 -6.73,-12.43 -0.77,-1.2 -3.05,-1.84 -3.98,-4.82 -1.01,-3.25 -3.04,-3.36 -4.54,-5.06 31.25,176.57 -75.68,280.8 -227.2,339.48 -78.17,30.27 -169.55,40.24 -248.17,24.92 -122.27,-23.83 -144.74,-102.7 -167.98,-116.61z"/>
   <path class="fil7" d="M2758.7 1747.2c-2.48,54.96 -13.05,81.02 -24.41,126.11 76.06,-8 138.55,-36.22 150.62,-97.67 11.12,-56.64 6.32,-151.56 -0.91,-212.63 -12.89,22.88 -8.57,87.13 -28.08,120.4 -16.61,28.34 -54.17,51.5 -97.22,63.79z"/>
   <path class="fil7" d="M2001.14 2485.65c38.48,105.6 176.48,191.97 310.68,121.42 124.71,-65.56 152.1,-216.7 100.4,-304.63l-5.56 -8.16c-6.23,-7.81 -5.44,-6.49 -11.34,-10.85 22.83,71.92 30.53,115.65 2.91,182.55 -17.29,41.93 -52.73,85.84 -105.01,110.8 -175.83,83.96 -274.5,-80.51 -292.08,-91.13z"/>
   <path class="fil7" d="M2209.72 1787.03c24.97,37.66 56.98,30.2 111.92,30.56 162.68,1.05 197.94,1.29 188.54,-108.19 -1.85,-21.56 -2.82,-44.2 -2.61,-65.6 0.31,-30.79 4.86,-50.2 -19.76,-63.6 8.63,25.25 11.43,97.93 11.75,128.04 0.38,35.95 -19.66,64.54 -51.15,75.06 -43.81,14.63 -198,14.63 -238.69,3.73z"/>
   <path class="fil7" d="M2059.01 1997.95l76.61 -11.86c4.33,-16.64 15.37,-69.82 17.13,-83.59 1.98,-15.42 -17.72,-63.68 -24.67,-87.12 -3.29,8.16 -1.93,-6.01 -3.43,15.18 -0.52,7.28 0.14,10.48 0.73,17.63 2.23,27.06 8.14,46.38 -5.72,78.01 -13.34,30.43 -43.41,45.9 -60.65,71.75z"/>
   <path class="fil7" d="M2687.69 1727.05c26.36,29.72 -1.35,137.57 -12.5,166.96 45.37,-33.21 57.77,-114.03 51.33,-185.85l-38.83 18.89z"/>
   <path class="fil7" d="M1964.11 1260.3l-2.42 10.16 -42.82 -9.74c17.91,42 33.26,60.34 80.94,54.48 -15.27,-33.68 -27.84,-48.79 -35.7,-54.9z"/>
   <path class="fil7" d="M2672.75 1634.65c17.33,7.71 14.84,32.65 17.6,54.62l32.75 -17.25 -10.42 -55.65 -39.93 18.28z"/>
   <path class="fil8" d="M2395.32 2283.43c5.9,4.36 5.11,3.04 11.34,10.85l5.56 8.16c51.7,87.93 24.31,239.07 -100.4,304.63 -134.2,70.55 -272.2,-15.82 -310.68,-121.42 -10.26,-74.51 -39.28,-107.24 -4.92,-186.35 67.25,-154.82 276.98,-203.35 399.1,-15.87zm-474.66 -92.21c1.19,143.49 -38.21,377.25 147.89,481.27 117.51,65.68 680.23,95.33 824.25,-123.99 -19.03,-10.96 -43.16,-21.25 -61.3,-33.54 -24.88,-16.87 -28.67,-25.91 -55.69,-39.38 -33.83,5.46 -21.59,24.52 -74.65,40 -33.11,9.66 -70.93,8.92 -99.34,1.94 -59.69,-14.68 -83.86,-53.67 -92.46,-129.7 -15.55,-137.44 29.59,-37.98 -39.1,-170.36 -15.93,-30.73 -55.89,-144.33 -69.55,-160.26 -38.36,-15.82 -132.08,0.7 -182.25,-9.21 -15.62,-3.09 -28.73,-8.15 -38.84,-13.72 -53.99,-29.73 -66.1,9.25 -130.38,0.89 -34.75,0.18 -64.98,11.01 -98.57,19.43 -9.25,24.53 -33.1,108.37 -30.01,136.63z"/>
   <path class="fil8" d="M2680.27 1266.27c-21.54,67.9 -108.08,138.01 -194.26,176.74 -113.97,51.25 -201.16,59.41 -317.07,41 -6.99,26.49 -26.04,127.49 -13.36,148.22 18.85,-30.49 7.79,-67.49 56.33,-82.34 27.3,-8.35 96.28,0.4 130.59,-0.36 35.3,-0.77 103.18,-11.34 132.14,-8.24 53.21,5.69 47.49,42.51 69.27,81.35 51.7,-0.42 79.35,-10.76 127.4,-21.46 -3.66,-87.17 -69.5,-149.87 23.73,-195.67 68.91,-33.86 105.53,-48.2 164.17,-93.39 81.92,-63.14 142.3,-154.9 172.4,-255.05 4.48,-14.93 6.45,-31.43 17.71,-44.99 -11.88,-55.27 -27.69,-100.63 -79.87,-107.96 -68,-9.53 -48.23,80 -79.09,108.04 -33.01,-6.94 -46.98,-86.34 -75.51,-53.19 -13.08,30.96 12.85,75.48 26.31,102.1 20.15,39.86 3.56,61.24 -13.4,91.73 -30.09,54.11 -72.95,78.96 -147.49,113.47z"/>
   <path class="fil8" d="M2581.09 1748.3l-30.33 1.26c4.56,79.62 18.52,148.61 -59.48,167.55 -64.86,15.75 -149.29,3.9 -214.15,9.79 82.72,39.23 200.47,17.96 299.2,-10.01 -4.27,36.28 -82.62,124.17 8.03,256.71 18.89,27.63 27.37,36.89 15.18,69.49 -17.53,46.93 -22.31,131.61 30.4,157.92 75.71,37.78 126.23,-33.88 147.34,-57.23 26.37,-212.4 -63.26,-243.75 -93.81,-409.74l-41.04 13.51c9.14,-13.38 31.94,-42.16 32.76,-53.54 11.15,-29.39 38.86,-137.24 12.5,-166.96l-106.6 21.25z"/>
   <path class="fil8" d="M2209.72 1787.03c40.69,10.9 194.88,10.9 238.69,-3.73 31.49,-10.52 51.53,-39.11 51.15,-75.06 -0.32,-30.11 -3.12,-102.79 -11.75,-128.04 -29.15,-18.19 -86.65,-2.25 -123.58,-0.55 -134.17,6.23 -172.38,-39.87 -173.93,86.05 -0.38,30.63 -5.23,102.57 19.42,121.33z"/>
   <path class="fil8" d="M2758.7 1747.2c43.05,-12.29 80.61,-35.45 97.22,-63.79 19.51,-33.27 15.19,-97.52 28.08,-120.4l-20.62 -148.59c-64.11,31.46 -36.41,31.41 -148.51,76.14 1.68,73.61 44.76,154.11 43.83,256.64z"/>
   <path class="fil8" d="M2059.01 1997.95c17.24,-25.85 47.31,-41.32 60.65,-71.75 13.86,-31.63 7.95,-50.95 5.72,-78.01 -0.59,-7.15 -1.25,-10.35 -0.73,-17.63 1.5,-21.19 0.14,-7.02 3.43,-15.18 -14.25,-53.1 -12.68,-117.9 -10.28,-172.39 2.34,-52.85 17.02,-114.65 16.66,-159.26 -5.48,-22.3 8.22,-16.04 -13,-7.75 -65.99,101.57 -18.2,387.23 -26.56,426.41 -9.61,45.07 -46.58,65.55 -70.89,97.45l35 -1.89z"/>
   <path class="fil8" d="M2690.35 1689.27c-2.76,-21.97 -0.27,-46.91 -17.6,-54.62l-132.67 23.26 3.76 55.47c52.7,2.27 99.06,-7.15 146.51,-24.11z"/>
   <path class="fil8" d="M2233.33 1957.23c-9.36,-5.99 -14.53,-9.33 -24.6,-19.02 -6.04,-5.81 -4.93,-6.44 -12.17,-12.96 -11.6,-10.4 -5.58,-5.41 -14.92,-10.18 -8.55,22.39 -12.37,41.88 -9.13,67.57l73.82 -5.26 -13 -20.15z"/>
   <path class="fil8" d="M2176.23 1861.48l-5.47 -63.52c-0.44,-10.14 -0.63,-19.12 -3.04,-30.33 -6.16,-28.78 -1.19,-16.69 -14.52,-21.31 -7.99,33.41 9.01,85.23 23.03,115.16z"/>
   <path class="fil8" d="M2153.86 1713.17c5.58,-9.02 5.71,2.76 6.4,-22.48 0.48,-17.46 -0.88,-16.28 -6.19,-25.51 -9.95,18.38 -7.93,33.82 -0.21,47.99z"/>
   <path class="fil9" d="M2384.3 2358.15c18.9,240.97 -286.64,263.57 -347.06,113.16 -62.13,-112.58 -1.43,-231.94 99.14,-266.8 126.37,-43.79 223.24,39.65 247.92,153.64zm-383.16 127.5c17.58,10.62 116.25,175.09 292.08,91.13 52.28,-24.96 87.72,-68.87 105.01,-110.8 27.62,-66.9 19.92,-110.63 -2.91,-182.55 -122.12,-187.48 -331.85,-138.95 -399.1,15.87 -34.36,79.11 -5.34,111.84 4.92,186.35z"/>
   <path class="fil9" d="M2301.01 2417.7c-12.04,34.27 -36.57,63.8 -86.06,71.94 -21.49,3.54 -41.86,0.63 -59.32,-5.47 -25.87,-9.02 -35.36,-13.84 -41.84,-36.55 -27.52,-14.25 -35.09,-56.81 -26.3,-86.63 8.02,-106.64 166.45,-137.04 213.69,-22.6 16.78,42.76 2.5,77.79 1.63,75.96 -0.36,-0.77 -1.11,2.29 -1.8,3.35zm-141.19 100.56c79.48,4.31 83.77,-3.9 140.52,-40.7 98.41,-89.09 5.82,-285.71 -150.26,-235.97 -57.07,18.19 -102,78.44 -97.89,143.36 5.32,83.97 54.4,109.38 107.63,133.31z"/>
   <path class="fil6" d="M3078.1 2286.71c43.59,9.08 77.76,28.08 86,78.08 6.16,7.11 -3.56,-58.14 -20.46,-77.64 -17.24,-19.91 -46.26,-27.32 -70.5,-32.78l4.96 32.34z"/>
   <path class="fil4" d="M2794.27 2414.32c92.56,-24.58 125.82,-61.04 240.96,-40.35 64.56,11.61 158.94,54.14 191.37,84.45l12.89 3.85c-0.42,-12.37 -61.34,-50.33 -83.2,-62.23 -35.13,-19.13 -65.28,-33.43 -107.52,-44.34 -71.19,-18.39 -220.82,6.82 -254.5,58.62z"/>
   <path class="fil10" d="M3649.69 2473.88l63.24 32.48 28.47 -5.89c-59.98,-7.45 -107.31,-61.73 -137.76,-72.96 16.19,23.96 30.12,25.84 46.05,46.37z"/>
   <path class="fil5" d="M3239.49 2462.27l-12.89 -3.85c-58.86,2.86 -159.47,-11.31 -220.63,-16.25 -34.91,-2.8 -74.49,-5.77 -112.22,-9.36 -27.84,-2.64 -85.64,3.64 -99.48,-18.49 -13.33,7 -9.03,1.54 -16.59,11.21 25.4,46.94 122.8,102.06 199.7,111.96 47.46,6.09 101.45,-3.18 146.87,-18.24 25.83,-8.55 82.54,-30.77 104.44,-46.93 15.83,-11.68 3.64,-1.79 10.8,-10.05z"/>
   <path class="fil11" d="M3457.03 2658.37c48.88,-21.58 82.55,-54.54 123.89,-82.69 25.04,-17.05 123.57,-61.47 132.01,-69.32l-63.24 -32.48c-48.65,13.37 -16.98,13.99 -63.63,32.44 -59.37,23.49 -91.97,66.86 -153.41,106.04 0.23,9.88 -15.58,-10.1 14.45,8.29 -13.32,3.05 -15.31,3.01 -21.71,8.68 -14.67,13.01 -0.02,-3.66 -0.78,15.01l-2.82 15.64c11.22,-5.08 9.01,-6.35 17.63,-7.05 19.55,-1.56 5.73,-4.6 17.61,5.44z"/>
   <path class="fil6" d="M2794.27 2414.32c13.84,22.13 71.64,15.85 99.48,18.49 37.73,3.59 77.31,6.56 112.22,9.36 61.16,4.94 161.77,19.11 220.63,16.25 -32.43,-30.31 -126.81,-72.84 -191.37,-84.45 -115.14,-20.69 -148.4,15.77 -240.96,40.35z"/>
   <path class="fil7" d="M2942.56 2319.72c47.27,-5.63 67.02,-1.3 108.74,3.26 -13.04,-103.43 -21.81,-98.02 -103.95,-149.21l-22.9 -14.59c11.68,42.73 29.78,124.3 18.11,160.54z"/>
   <path class="fil5" d="M3164.1 2364.79c-8.24,-50 -42.41,-69 -86,-78.08l6.33 44.35 79.67 33.73z"/>
   <path class="fil4" d="M3065.97 2581.21c13,4.42 29.37,1.36 43.19,-4.22 3.2,-1.3 11.85,-7.03 15.41,-9.48 13.71,-9.42 5.81,-6.72 22.99,-12.9l3.34 -9.79c-19.42,4.5 -33.88,9.52 -53.85,14.02 -21.66,4.87 -35.43,2.46 -31.08,22.37z"/>
   <path class="fil8" d="M2942.56 2319.72c11.67,-36.24 -6.43,-117.81 -18.11,-160.54 -81.34,-41.62 -54.36,-31.5 -145.53,-66.47 24.01,79.52 53.98,190.48 27.83,268.8 41.7,-7.64 75.24,-34.54 135.81,-41.79z"/>
   <path class="fil12" d="M3217.63 2619.62c92.65,20.46 117.81,1.88 188.77,-45.4 61.8,-41.17 93.57,-61.06 178.51,-77.11 -42,-25.54 -70.57,-15.6 -145.78,-84.05 -25.12,-22.87 -94.96,-82.75 -135.99,-85.79l-69.11 8.7c-21.31,8.15 -33.57,16.64 -34.26,46.78 21.05,38.55 75.4,37.74 87.44,86.57 -22.27,28.87 -76.15,40.46 -93.34,58.4 -31.14,32.5 -2.29,75.09 23.76,91.9z"/>
   <path class="fil13" d="M3217.63 2619.62c18.2,26.21 63.58,48.48 105.08,55.71 59.03,10.32 81.99,-1.16 134.32,-16.96 -11.88,-10.04 1.94,-7 -17.61,-5.44 -8.62,0.7 -6.41,1.97 -17.63,7.05l2.82 -15.64c0.76,-18.67 -13.89,-2 0.78,-15.01 6.4,-5.67 8.39,-5.63 21.71,-8.68 -30.03,-18.39 -14.22,1.59 -14.45,-8.29 61.44,-39.18 94.04,-82.55 153.41,-106.04 46.65,-18.45 14.98,-19.07 63.63,-32.44 -15.93,-20.53 -29.86,-22.41 -46.05,-46.37l-36.91 -32.88c-17.81,-17.22 -18.82,-18.96 -41.35,-32.02 -19.05,-7.83 -24.78,-15.22 -45.74,-25.19 -8.03,-3.82 -14.09,-6.41 -24.74,-9.65l-17.99 -4.73c-48.62,-12.19 -80.72,-8.62 -133.77,4.23 41.03,3.04 110.87,62.92 135.99,85.79 75.21,68.45 103.78,58.51 145.78,84.05 -84.94,16.05 -116.71,35.94 -178.51,77.11 -70.96,47.28 -96.12,65.86 -188.77,45.4z"/>
   <path class="fil14" d="M3234.03 2335.97l69.11 -8.7c53.05,-12.85 85.15,-16.42 133.77,-4.23l17.99 4.73c10.65,3.24 16.71,5.83 24.74,9.65 20.96,9.97 26.69,17.36 45.74,25.19 -21.93,-28.86 -78.94,-61.91 -131.5,-69.49 -51.17,-7.37 -131.52,2.14 -159.85,42.85z"/>
   <path class="fil6" d="M3065.97 2581.21l-15.65 34.14c-3.9,12.44 -6.08,15.36 -6.1,27.77 66.14,-10.76 96.7,-23.69 103.34,-88.51 -17.18,6.18 -9.28,3.48 -22.99,12.9 -3.56,2.45 -12.21,8.18 -15.41,9.48 -13.82,5.58 -30.19,8.64 -43.19,4.22z"/>
   <ellipse class="fil0 str0" transform="matrix(1.47277 -0.208755 0.208755 1.47277 2513.38 1772.55)" rx="893.15" ry="932.83"/>
   <path class="fil9" d="M3060.46 2903.83c44.9,41.71 96.17,98.99 137.23,125.44 -148.1,31.31 -392.81,-42.81 -414.25,-130.82 -27.47,-17.85 -38.42,-66.15 -45.89,-103.8l116.77 -39.46c33.92,-11.39 79.23,-34.59 108.66,-41 5.4,45.46 16.68,72.16 38.18,108.58 20.2,34.2 42.43,55.36 59.3,81.06zm5.51 -322.62c-4.35,-19.91 9.42,-17.5 31.08,-22.37 19.97,-4.5 34.43,-9.52 53.85,-14.02l-3.34 9.79c-6.64,64.82 -37.2,77.75 -103.34,88.51 0.02,-12.41 2.2,-15.33 6.1,-27.77l15.65 -34.14zm168.06 -245.24c28.33,-40.71 108.68,-50.22 159.85,-42.85 52.56,7.58 109.57,40.63 131.5,69.49 22.53,13.06 23.54,14.8 41.35,32.02l36.91 32.88c30.45,11.23 77.78,65.51 137.76,72.96l-28.47 5.89c-8.44,7.85 -106.97,52.27 -132.01,69.32 -41.34,28.15 -75.01,61.11 -123.89,82.69 -52.33,15.8 -75.29,27.28 -134.32,16.96 -41.5,-7.23 -86.88,-29.5 -105.08,-55.71 -26.05,-16.81 -54.9,-59.4 -23.76,-91.9 17.19,-17.94 71.07,-29.53 93.34,-58.4 -12.04,-48.83 -66.39,-48.02 -87.44,-86.57 0.69,-30.14 12.95,-38.63 34.26,-46.78zm-439.76 78.35c33.68,-51.8 183.31,-77.01 254.5,-58.62 42.24,10.91 72.39,25.21 107.52,44.34 21.86,11.9 82.78,49.86 83.2,62.23 -7.16,8.26 5.03,-1.63 -10.8,10.05 -21.9,16.16 -78.61,38.38 -104.44,46.93 -45.42,15.06 -99.41,24.33 -146.87,18.24 -76.9,-9.9 -174.3,-65.02 -199.7,-111.96 7.56,-9.67 3.26,-4.21 16.59,-11.21zm283.83 -127.61l-4.96 -32.34c24.24,5.46 53.26,12.87 70.5,32.78 16.9,19.5 26.62,84.75 20.46,77.64l-79.67 -33.73 -6.33 -44.35zm-302.29 188.87c27.02,13.47 30.81,22.51 55.69,39.38 18.14,12.29 42.27,22.58 61.3,33.54 52.7,10.77 70.43,24.2 136.44,20.82 -0.01,21.91 -9.47,42.56 -18.99,64.28 -11.83,26.99 -22.34,28.74 -50.54,43.4 -145.15,75.43 -323.11,106.89 -486.54,106.65 -192.84,-0.28 -430.35,-45.48 -570.87,-120.78 -21.13,-106.31 -14.88,-329.82 8.04,-443.96l10.32 -27.69c-3.09,-28.26 20.76,-112.1 30.01,-136.63 33.59,-8.42 63.82,-19.25 98.57,-19.43 36.77,-34.95 318.1,-25.25 380.04,-22.42 23.55,44.24 40.42,102.02 65.91,149.53 48.52,90.4 36.52,39.66 39.22,145.14 4.3,167.75 92.49,176.7 221.22,141.89 7.02,12.27 11.94,16.22 20.18,26.28zm148.64 -316.4l22.9 14.59c82.14,51.19 90.91,45.78 103.95,149.21 -41.72,-4.56 -61.47,-8.89 -108.74,-3.26 -60.57,7.25 -94.11,34.15 -135.81,41.79 26.15,-78.32 -3.82,-189.28 -27.83,-268.8 91.17,34.97 64.19,24.85 145.53,66.47zm-120.02 -91.84c-19.94,-26.05 27.96,-87.75 39.93,-100.17 24.92,-25.89 52.87,-47.64 93.73,-65.25 69.56,-29.98 207.31,-40.74 272.77,-15.91l45.82 8.38 25.3 6.6c-23.92,24.87 -253.93,130.36 -275.14,269.94 -44.54,-19.22 -99.59,-60.14 -202.41,-103.59zm-904.61 47.44c-14.09,85.9 -32.35,159.63 -38.22,251.34 -5.9,92.32 -4.51,181.67 5.87,276.22 -31.13,-7.38 -86.72,-45.06 -109.03,-64.45 -44.25,-24.34 -233.94,-173.4 -235.83,-263.12 27.23,-29.49 44.65,-48.48 75.85,-75.96 79.82,-70.3 206.69,-140.12 312.7,-170.18l-6.66 20.38 -4.68 25.77zm270.94 -316.82c58.12,44.72 27.43,56.07 209.87,49.66 164.84,-5.79 137.61,-33.39 168.28,-102.43 22.21,-2.19 16.3,-3.73 32.18,3.11l106.6 -21.25 38.83 -18.89c6.44,71.82 -5.96,152.64 -51.33,185.85 -0.82,11.38 -23.62,40.16 -32.76,53.54l41.04 -13.51c30.55,165.99 120.18,197.34 93.81,409.74 -9.94,59.74 -45.92,100.58 -120.21,93.76 -126.89,-11.65 -80.82,-152.1 -89.58,-206.7 -3.47,-21.61 -93.26,-149.06 -102.09,-222.81l55.95 -17.78c-8.94,-8.93 -10.53,-8.77 -36.48,-8.96 -125.26,-0.92 -120.93,0.32 -251.54,-24.06l13 20.15 -73.82 5.26c-3.24,-25.69 0.58,-45.18 9.13,-67.57 4.97,-18.83 1.57,-32.85 -5.41,-53.59 -14.02,-29.93 -31.02,-81.75 -23.03,-115.16 13.33,4.62 8.36,-7.47 14.52,21.31 2.41,11.21 2.6,20.19 3.04,30.33zm519.59 -108.69c-47.45,16.96 -93.81,26.38 -146.51,24.11l-3.76 -55.47 132.67 -23.26 39.93 -18.28 10.42 55.65 -32.75 17.25zm-480.63 97.76c-24.65,-18.76 -19.8,-90.7 -19.42,-121.33 1.55,-125.92 39.76,-79.82 173.93,-86.05 36.93,-1.7 94.43,-17.64 123.58,0.55 24.62,13.4 20.07,32.81 19.76,63.6 -0.21,21.4 0.76,44.04 2.61,65.6 9.4,109.48 -25.86,109.24 -188.54,108.19 -54.94,-0.36 -86.95,7.1 -111.92,-30.56zm-55.86 -73.86c-7.72,-14.17 -9.74,-29.61 0.21,-47.99 5.31,9.23 6.67,8.05 6.19,25.51 -0.69,25.24 -0.82,13.46 -6.4,22.48zm730.14 -150.16c7.23,61.07 12.03,155.99 0.91,212.63 -12.07,61.45 -74.56,89.67 -150.62,97.67 11.36,-45.09 21.93,-71.15 24.41,-126.11 0.93,-102.53 -42.15,-183.03 -43.83,-256.64 112.1,-44.73 84.4,-44.68 148.51,-76.14l20.62 148.59zm-919.89 -302.71c7.86,6.11 20.43,21.22 35.7,54.9 -47.68,5.86 -63.03,-12.48 -80.94,-54.48 -14.97,-62.4 -57.64,-117.09 0.8,-154.98 9.06,34.32 42.39,135.35 44.44,154.56zm1085.21 -248.22c-6.1,152.53 -110.73,307.03 -223.93,388.25l-137.78 70.24c-0.96,-1.19 -2.74,2.11 -3.83,3.42 -10.04,26.1 12.35,75.53 19.61,109.57l-32.08 17.62c-48.05,10.7 -75.7,21.04 -127.4,21.46 -21.78,-38.84 -16.06,-75.66 -69.27,-81.35 -28.96,-3.1 -96.84,7.47 -132.14,8.24 -34.31,0.76 -103.29,-7.99 -130.59,0.36 -48.54,14.85 -37.48,51.85 -56.33,82.34 -12.68,-20.73 6.37,-121.73 13.36,-148.22 1.52,-13.94 9.31,-44.59 -13.9,-38.75 -17.67,4.46 -11.52,19.3 -20.58,38.47 0.36,44.61 -14.32,106.41 -16.66,159.26 -2.4,54.49 -3.97,119.29 10.28,172.39 6.95,23.44 26.65,71.7 24.67,87.12 -1.76,13.77 -12.8,66.95 -17.13,83.59l-76.61 11.86 -35 1.89c24.31,-31.9 61.28,-52.38 70.89,-97.45 8.36,-39.18 -39.43,-324.84 26.56,-426.41 9.21,-29.31 11.27,-28.95 29.52,-50.79 49.17,5.05 80.47,19.51 143.52,17.8 98.89,-2.68 196.89,-40.96 272.04,-101.66 88.08,-71.13 18.93,-49.4 113.73,-75.06 74.54,-34.51 117.4,-59.36 147.49,-113.47 16.96,-30.49 33.55,-51.87 13.4,-91.73 -13.46,-26.62 -39.39,-71.14 -26.31,-102.1 28.53,-33.15 42.5,46.25 75.51,53.19 30.86,-28.04 11.09,-117.57 79.09,-108.04 52.18,7.33 67.99,52.69 79.87,107.96zm-326.26 -49.41c1.06,1.53 2.3,3.47 2.95,4.71 6.33,12.15 39.47,78 -24.52,105.39l-7.95 -57.26c-14.96,-67.7 -34.93,-100.01 -56.48,-157.08 33.37,0.11 47.64,4.23 61.69,31.19 8.04,15.43 21.11,54.85 24.31,73.05zm-688.62 162.46c-17.59,-56.55 4.68,-111.29 28.07,-146.49 17.54,-26.39 58.64,-89.06 108.97,-79.03 19.49,39.37 3.73,44.29 -17.03,66.95l-73.93 112.23c-10.74,17.83 -16.91,41.49 -46.08,46.34zm179.88 -266.34c21.02,-24.64 54.95,-32.15 94.09,-26.4 16.56,33.71 13.89,52.82 -28.16,63.3 -42.65,10.65 -60.72,2.18 -65.93,-36.9zm450.54 170.68c25.26,176.51 -92.27,304.57 -240.04,357.01 -84.71,30.05 -179.77,32.75 -258.11,9.27 -60.87,-18.26 -139.48,-76.83 -163.32,-141.42 -25.65,-27.98 -48.27,-121.95 -53.31,-166.79 -7.81,-69.41 2.63,-112.55 18.35,-168.16 69.68,33.96 19.62,70.99 8.29,140.82 -16.23,99.98 25.32,154.02 29.54,194.75 23.24,13.91 45.71,92.78 167.98,116.61 78.62,15.32 170,5.35 248.17,-24.92 151.52,-58.68 258.45,-162.91 227.2,-339.48 -13.99,-52.26 -38.26,-94.85 -66.64,-128.84 -23.43,-28.04 -71.55,-64.97 -106.44,-75.08 -2,-24.03 -0.89,-43.4 6.39,-60.26 104.76,77.03 149.13,143 181.94,286.49zm-683.97 -129.03c12.62,-69.43 104.41,-147.02 184.65,-180.45 102.43,-42.69 210.37,-31.91 291.81,6.83l-6.19 63.23c-204.52,-32.86 -321.35,24.94 -425.46,144.04 -24.17,-15.72 -10.41,-19.84 -44.81,-33.65zm901.61 50.74c-7.95,-4.63 -65.84,-66.31 -96.87,-3.27 -41.59,84.48 91.32,107.76 -8.69,221.04 -39.21,44.41 -42.01,40.5 -100.05,38.52l24.18 -93.61c17.6,-36.66 104.07,-14.79 51.85,-165.86 -26.12,-75.52 -45.28,-135.07 -134.9,-117.28 -124.14,-174.81 -355.04,-238.94 -564.22,-80.87 -102.99,77.83 -133.95,185.09 -137.06,317.86 -66.76,61.25 -76.29,55.47 -35.66,174.88 27.11,79.65 48.77,119.76 140.5,98.81 32.01,24.83 58.27,51.56 96.36,66.32 -6.88,24.06 -21.14,39.9 -32.57,70.27 -8.85,23.51 -13.77,45.81 -19.44,72.04 -11.58,53.61 -12.91,106.06 -11.71,164.06 0.87,42.12 16.98,157.86 9.02,186.11 -14.46,51.34 -34.29,20.95 -78.6,114.23 -172.84,37.83 -340.04,134.85 -440.88,231.9 -85.52,82.28 -57.74,118.13 19.77,204.02 219.53,243.26 528.07,350.73 854.35,363.24 125.25,4.81 257.59,-18.78 288.87,-17.13 53.84,318.32 492.91,280.92 539.43,253.23 0.72,-31.51 -16.33,-35.4 -32.65,-48.27 -79.59,-62.81 -233.97,-200.35 -217.97,-308.37 43.96,-27.32 61.77,-14.5 106.99,-28.84 40.89,-12.97 40.54,-28.34 62.66,-51.75 47.06,47.35 70.15,79.37 150.72,94.19 216.13,39.76 260.26,-186.87 528.48,-182.5 25.28,0.41 24.57,2.42 43.01,-5.12l9.1 -6.18c-8.17,-26.1 -12.54,-19.39 -44.46,-21.82 -19.84,-1.51 -35.43,-4.16 -53.75,-7.94 -113.09,-23.29 -160.94,-71.23 -239.21,-135.69 -135.4,-111.49 -221.03,-120.43 -366.73,-24.11 -17.89,-85.84 -70.16,-85.73 -117.85,-102.54 -25.8,-9.1 -18.67,-12.52 -40.74,-21.93 3.02,-111.54 167.95,-217.74 261.65,-266.37 118.17,-61.33 -53.86,-77.28 -109.55,-83.78 -116.11,-13.54 -256.14,-4.81 -344.99,78.1 -22.44,20.94 -34.69,33.6 -47.1,56.54 -17.32,31.99 -19.8,53.11 -37.06,68.21 -16.56,-42.62 -44.97,-91.11 -41.29,-144.66 92.29,-27.75 191.88,-13.11 201.97,-171.88 7.68,-120.83 -14.97,-220.92 -30.28,-340.9 20.5,-24.59 43.63,-45.53 63.55,-67.6 21.8,-24.16 33.65,-48.39 50.61,-75.62 30.53,-49.02 58.04,-103.54 71.44,-168.45 44.85,-217.34 -168.62,-274.9 -190.23,-131.23z"/>
   <path class="fil6" d="M2783.44 2898.45c0.53,-0.27 93.65,15.47 121.34,16.45 52.26,1.85 106.36,-12.19 155.68,-11.07 -16.87,-25.7 -39.1,-46.86 -59.3,-81.06 -21.5,-36.42 -32.78,-63.12 -38.18,-108.58 -29.43,6.41 -74.74,29.61 -108.66,41l-116.77 39.46c7.47,37.65 18.42,85.95 45.89,103.8z"/>
   <path class="fil5" d="M3060.46 2903.83c-49.32,-1.12 -103.42,12.92 -155.68,11.07 -27.69,-0.98 -120.81,-16.72 -121.34,-16.45 21.44,88.01 266.15,162.13 414.25,130.82 -41.06,-26.45 -92.33,-83.73 -137.23,-125.44z"/>
   <g>
    <path class="fil15" d="M2215.55 624.97l23.42 -4.34 -0.03 -0.12 0.25 1.22 0.25 1.2 0.27 1.2 0.27 1.23 0.28 1.17 0.28 1.15 0.3 1.19 0.31 1.18 0.31 1.15 0.32 1.2 0.31 1.14 0.32 1.12 0.31 1.1 0.34 1.13 0.33 1.11 0.34 1.09 0.34 1.13 0.32 1.06 0.33 1.05 0.32 1.02 0.34 1.04 0.35 1.1 0.3 0.97 0.32 0.99 0.33 1.04 0.3 0.94 0.31 0.98 0.31 0.99 0.28 0.89 0.29 0.92 0.29 0.97 0.26 0.89 -22.84 6.72 -0.24 -0.81 -0.23 -0.75 -0.27 -0.86 -0.28 -0.93 -0.27 -0.87 -0.29 -0.9 -0.32 -1 -0.29 -0.94 -0.34 -1.01 -0.34 -1.09 -0.31 -0.98 -0.34 -1.06 -0.36 -1.14 -0.35 -1.13 -0.36 -1.16 -0.34 -1.11 -0.36 -1.19 -0.35 -1.19 -0.36 -1.21 -0.37 -1.26 -0.36 -1.28 -0.35 -1.28 -0.34 -1.24 -0.35 -1.31 -0.33 -1.32 -0.34 -1.31 -0.34 -1.39 -0.32 -1.39 -0.31 -1.35 -0.31 -1.4 -0.29 -1.42 -0.29 -1.42 -0.03 -0.12zm0.03 0.12c-1.26,-6.45 2.94,-12.71 9.39,-13.97 6.45,-1.26 12.71,2.94 13.97,9.39l-23.36 4.58zm-20.65 -158.94l23.8 -0.68 0 0.01 0.21 6.94 0.23 6.56 0.25 6.24 0.27 5.91 0.3 5.61 0.31 5.34 0.34 5.08 0.36 4.85 0.38 4.64 0.41 4.45 0.44 4.31 0.46 4.16 0.48 4.05 0.52 3.94 0.55 3.9 0.58 3.88 0.6 3.83 0.65 3.86 0.67 3.89 0.7 3.93 0.75 4.01 0.78 4.14 0.82 4.24 0.86 4.38 0.9 4.58 0.93 4.74 0.98 4.97 1.01 5.19 1.07 5.45 1.09 5.72 1.15 6.01 1.19 6.35 -23.42 4.34 -1.17 -6.27 -1.13 -5.97 -1.09 -5.66 -1.05 -5.41 -1.01 -5.17 -0.98 -4.95 -0.93 -4.76 -0.9 -4.56 -0.88 -4.44 -0.82 -4.32 -0.8 -4.2 -0.77 -4.13 -0.74 -4.09 -0.69 -4.03 -0.67 -4.02 -0.64 -4.05 -0.6 -4.06 -0.59 -4.1 -0.54 -4.2 -0.52 -4.29 -0.48 -4.38 -0.46 -4.51 -0.43 -4.69 -0.4 -4.84 -0.38 -5.05 -0.34 -5.26 -0.33 -5.5 -0.3 -5.77 -0.27 -6.05 -0.27 -6.36 -0.23 -6.7 -0.21 -7.04 0 0.01zm0 -0.01c-0.18,-6.57 5,-12.05 11.57,-12.23 6.57,-0.18 12.05,5 12.23,11.57l-23.8 0.66zm35.64 -170.36l16.4 17.26 0 0 -1.9 2 -1.92 2.4 -1.91 2.82 -1.88 3.21 -1.83 3.57 -1.75 3.9 -1.67 4.21 -1.59 4.49 -1.49 4.75 -1.41 4.98 -1.3 5.18 -1.22 5.34 -1.12 5.49 -1.03 5.62 -0.94 5.7 -0.85 5.78 -0.77 5.84 -0.69 5.85 -0.6 5.85 -0.54 5.83 -0.46 5.78 -0.39 5.72 -0.33 5.62 -0.27 5.49 -0.2 5.36 -0.16 5.21 -0.11 5 -0.06 4.81 -0.01 4.57 0.01 4.31 0.06 4.03 0.09 3.72 -23.8 0.68 -0.09 -3.96 -0.06 -4.25 -0.03 -4.53 0.03 -4.77 0.06 -5.01 0.11 -5.22 0.16 -5.41 0.22 -5.58 0.27 -5.73 0.35 -5.86 0.41 -5.96 0.48 -6.06 0.56 -6.11 0.64 -6.15 0.73 -6.17 0.81 -6.18 0.91 -6.16 1 -6.12 1.11 -6.06 1.22 -5.99 1.34 -5.88 1.46 -5.76 1.59 -5.64 1.73 -5.47 1.87 -5.33 2.05 -5.13 2.21 -4.92 2.41 -4.71 2.62 -4.47 2.87 -4.22 3.14 -3.94 3.46 -3.62 0 0zm0 0c4.76,-4.52 12.31,-4.33 16.83,0.43 4.52,4.76 4.33,12.31 -0.43,16.83l-16.4 -17.26zm77.39 -18.63l-1.24 23.78 -0.01 0 -2.6 -0.14 -2.55 -0.16 -2.46 -0.16 -2.4 -0.15 -2.35 -0.15 -2.28 -0.13 -2.23 -0.12 -2.15 -0.1 -2.07 -0.07 -2.08 -0.05 -1.96 -0.01 -1.91 0.02 -1.85 0.06 -1.79 0.11 -1.8 0.16 -1.72 0.19 -1.63 0.23 -1.64 0.31 -1.61 0.35 -1.55 0.41 -1.55 0.47 -1.52 0.53 -1.54 0.61 -1.53 0.69 -1.53 0.76 -1.56 0.87 -1.56 0.96 -1.6 1.07 -1.63 1.19 -1.66 1.32 -1.69 1.45 -1.74 1.59 -16.4 -17.26 2.34 -2.15 2.35 -2.01 2.38 -1.88 2.37 -1.73 2.4 -1.63 2.44 -1.48 2.42 -1.35 2.47 -1.24 2.45 -1.09 2.46 -0.99 2.48 -0.87 2.47 -0.75 2.49 -0.65 2.45 -0.53 2.44 -0.45 2.49 -0.37 2.42 -0.27 2.38 -0.2 2.43 -0.15 2.41 -0.08 2.41 -0.04 2.4 0.03 2.34 0.05 2.39 0.07 2.39 0.12 2.37 0.12 2.4 0.15 2.39 0.15 2.42 0.15 2.44 0.16 2.43 0.14 2.48 0.14 -0.01 0zm0.01 0c6.56,0.34 11.6,5.96 11.26,12.52 -0.34,6.56 -5.96,11.6 -12.52,11.26l1.26 -23.78zm172.01 54.73l-18.24 15.3 0 0 -2.56 -2.84 -2.84 -2.75 -3.14 -2.69 -3.4 -2.6 -3.66 -2.51 -3.93 -2.42 -4.16 -2.33 -4.37 -2.22 -4.59 -2.11 -4.77 -2.03 -4.94 -1.91 -5.08 -1.83 -5.24 -1.7 -5.34 -1.63 -5.43 -1.51 -5.53 -1.41 -5.59 -1.33 -5.64 -1.23 -5.68 -1.14 -5.67 -1.06 -5.69 -0.96 -5.68 -0.9 -5.62 -0.81 -5.58 -0.73 -5.52 -0.66 -5.44 -0.6 -5.33 -0.54 -5.21 -0.47 -5.09 -0.41 -4.95 -0.35 -4.76 -0.32 -4.59 -0.25 1.24 -23.78 4.79 0.27 4.96 0.32 5.13 0.37 5.29 0.43 5.45 0.49 5.57 0.56 5.66 0.62 5.78 0.7 5.84 0.77 5.94 0.85 5.96 0.94 6.01 1.02 6.05 1.12 6.02 1.22 6.04 1.31 6.01 1.43 5.97 1.53 5.93 1.65 5.86 1.77 5.78 1.9 5.7 2.03 5.58 2.17 5.45 2.31 5.33 2.47 5.19 2.64 5.02 2.81 4.83 2.98 4.64 3.17 4.44 3.38 4.2 3.61 3.94 3.83 3.66 4.06 0 0zm0 0c4.22,5.03 3.56,12.55 -1.47,16.77 -5.03,4.22 -12.55,3.56 -16.77,-1.47l18.24 -15.3zm35.16 108.43l-23.58 3.34 0 0 -0.45 -3.15 -0.45 -3.21 -0.47 -3.23 -0.48 -3.25 -0.51 -3.3 -0.52 -3.31 -0.54 -3.34 -0.56 -3.34 -0.59 -3.35 -0.63 -3.37 -0.65 -3.34 -0.68 -3.35 -0.72 -3.32 -0.76 -3.33 -0.79 -3.27 -0.84 -3.25 -0.89 -3.24 -0.92 -3.17 -0.98 -3.15 -1.01 -3.07 -1.08 -3.04 -1.12 -2.97 -1.17 -2.89 -1.22 -2.82 -1.29 -2.75 -1.33 -2.66 -1.4 -2.58 -1.44 -2.5 -1.49 -2.37 -1.56 -2.29 -1.62 -2.19 -1.66 -2.07 18.24 -15.3 2.3 2.85 2.16 2.95 2.06 3.01 1.95 3.11 1.84 3.16 1.74 3.22 1.65 3.3 1.55 3.33 1.48 3.4 1.39 3.43 1.3 3.45 1.24 3.5 1.17 3.53 1.1 3.55 1.04 3.57 0.97 3.56 0.94 3.61 0.87 3.61 0.82 3.59 0.78 3.6 0.74 3.59 0.69 3.58 0.65 3.55 0.63 3.53 0.6 3.52 0.56 3.46 0.54 3.43 0.51 3.4 0.5 3.35 0.47 3.29 0.47 3.23 0.45 3.17 0 0zm0 0c0.92,6.51 -3.61,12.54 -10.12,13.46 -6.51,0.92 -12.54,-3.61 -13.46,-10.12l23.58 -3.34zm-26.34 135.79l-21.08 -11.06 0 0 1.53 -2.98 1.5 -3.06 1.48 -3.18 1.47 -3.29 1.42 -3.35 1.4 -3.46 1.37 -3.53 1.32 -3.6 1.29 -3.68 1.23 -3.73 1.19 -3.82 1.15 -3.84 1.07 -3.89 1.04 -3.95 0.96 -3.97 0.9 -4.01 0.83 -4.04 0.77 -4.06 0.7 -4.07 0.61 -4.08 0.54 -4.08 0.46 -4.09 0.37 -4.09 0.3 -4.07 0.2 -4.04 0.11 -4.02 0.02 -4.02 -0.08 -3.96 -0.18 -3.92 -0.27 -3.88 -0.38 -3.85 -0.48 -3.78 23.58 -3.34 0.56 4.46 0.44 4.49 0.33 4.52 0.2 4.54 0.08 4.56 -0.02 4.54 -0.11 4.58 -0.24 4.58 -0.32 4.57 -0.43 4.55 -0.5 4.55 -0.6 4.54 -0.69 4.52 -0.76 4.51 -0.85 4.46 -0.91 4.44 -1 4.41 -1.06 4.37 -1.12 4.31 -1.19 4.27 -1.25 4.24 -1.31 4.14 -1.35 4.11 -1.41 4.04 -1.46 3.98 -1.51 3.89 -1.54 3.82 -1.6 3.75 -1.63 3.65 -1.66 3.56 -1.7 3.48 -1.73 3.36 0 0zm0 0c-3.05,5.82 -10.25,8.06 -16.07,5.01 -5.82,-3.05 -8.06,-10.25 -5.01,-16.07l21.08 11.06zm-61.93 55.43l-3.34 -23.58 0 0 1.11 -0.2 1.18 -0.29 1.25 -0.41 1.37 -0.52 1.41 -0.63 1.46 -0.74 1.52 -0.85 1.58 -0.97 1.59 -1.06 1.59 -1.14 1.64 -1.26 1.64 -1.33 1.63 -1.41 1.65 -1.49 1.63 -1.55 1.61 -1.6 1.6 -1.65 1.55 -1.68 1.55 -1.74 1.51 -1.77 1.47 -1.78 1.43 -1.79 1.39 -1.82 1.34 -1.8 1.28 -1.78 1.23 -1.79 1.17 -1.75 1.1 -1.72 1.04 -1.69 0.97 -1.64 0.89 -1.56 0.81 -1.5 21.08 11.06 -1.05 1.96 -1.13 2 -1.19 2 -1.26 2.05 -1.34 2.08 -1.39 2.09 -1.45 2.09 -1.52 2.14 -1.58 2.12 -1.63 2.12 -1.69 2.13 -1.75 2.12 -1.79 2.07 -1.83 2.08 -1.91 2.06 -1.94 2.01 -1.99 1.98 -2.03 1.91 -2.05 1.87 -2.13 1.83 -2.16 1.75 -2.18 1.68 -2.27 1.64 -2.31 1.52 -2.32 1.43 -2.4 1.35 -2.46 1.24 -2.51 1.11 -2.55 0.98 -2.65 0.85 -2.72 0.67 -2.75 0.5 0 0zm0 0c-6.51,0.92 -12.54,-3.61 -13.46,-10.12 -0.92,-6.51 3.61,-12.54 10.12,-13.46l3.34 23.58zm-77.75 -32.41l17.32 -16.34 0 0 1.84 1.92 1.82 1.87 1.79 1.78 1.75 1.7 1.73 1.62 1.72 1.56 1.67 1.45 1.68 1.38 1.65 1.32 1.62 1.21 1.62 1.15 1.63 1.09 1.59 1 1.56 0.91 1.59 0.85 1.61 0.79 1.58 0.71 1.61 0.64 1.63 0.59 1.64 0.52 1.67 0.45 1.72 0.4 1.73 0.33 1.81 0.26 1.87 0.22 1.88 0.13 1.99 0.07 2.08 0 2.13 -0.07 2.2 -0.15 2.29 -0.22 2.39 -0.31 3.34 23.58 -3.05 0.39 -3.03 0.3 -2.98 0.19 -2.91 0.09 -2.86 0 -2.83 -0.09 -2.82 -0.21 -2.75 -0.3 -2.69 -0.4 -2.69 -0.51 -2.62 -0.6 -2.59 -0.71 -2.54 -0.8 -2.47 -0.89 -2.45 -0.98 -2.42 -1.09 -2.33 -1.15 -2.31 -1.23 -2.3 -1.33 -2.23 -1.4 -2.17 -1.45 -2.16 -1.53 -2.14 -1.61 -2.09 -1.66 -2.08 -1.72 -2.07 -1.81 -2.04 -1.84 -2.03 -1.9 -2.03 -1.96 -2.01 -2.02 -2.02 -2.05 -2.04 -2.14 0 0zm0 0c-4.51,-4.78 -4.29,-12.32 0.49,-16.83 4.78,-4.51 12.32,-4.29 16.83,0.49l-17.32 16.34zm-69.84 -128.79l22.66 -7.3 0 -0.01 1.3 3.96 1.34 3.98 1.4 4.02 1.45 4.03 1.5 4.05 1.54 4.05 1.59 4.06 1.65 4.08 1.68 4.07 1.74 4.05 1.78 4.04 1.85 4.06 1.87 4.02 1.92 3.99 1.98 3.98 2 3.92 2.07 3.91 2.11 3.88 2.14 3.82 2.19 3.77 2.23 3.71 2.29 3.68 2.31 3.61 2.35 3.53 2.4 3.47 2.43 3.39 2.47 3.32 2.53 3.25 2.54 3.16 2.57 3.04 2.63 2.98 2.65 2.88 -17.32 16.34 -3.03 -3.28 -2.95 -3.36 -2.93 -3.46 -2.84 -3.54 -2.79 -3.59 -2.75 -3.68 -2.69 -3.75 -2.62 -3.81 -2.59 -3.87 -2.51 -3.93 -2.47 -3.96 -2.41 -4.03 -2.37 -4.07 -2.3 -4.12 -2.25 -4.12 -2.21 -4.17 -2.16 -4.22 -2.08 -4.22 -2.06 -4.25 -1.99 -4.28 -1.93 -4.26 -1.9 -4.28 -1.84 -4.31 -1.78 -4.29 -1.73 -4.28 -1.69 -4.3 -1.62 -4.27 -1.58 -4.27 -1.51 -4.23 -1.48 -4.22 -1.42 -4.2 -1.36 -4.16 0 -0.01zm0 0.01c-2.02,-6.25 1.42,-12.97 7.67,-14.99 6.25,-2.02 12.97,1.42 14.99,7.67l-22.66 7.32zm-11.3 -101.32l-3.36 -23.58 13.47 10.12 0.63 4.39 0.6 4.2 0.57 4.03 0.56 3.86 0.54 3.69 0.53 3.53 0.53 3.43 0.51 3.28 0.52 3.19 0.51 3.11 0.52 3 0.52 2.94 0.54 2.88 0.55 2.83 0.56 2.81 0.59 2.79 0.61 2.8 0.64 2.79 0.66 2.83 0.71 2.87 0.74 2.91 0.78 2.98 0.83 3.07 0.87 3.14 0.95 3.27 0.98 3.38 1.05 3.51 1.11 3.66 1.18 3.82 1.24 3.97 1.32 4.15 1.4 4.36 -22.66 7.3 -1.42 -4.42 -1.34 -4.23 -1.28 -4.07 -1.2 -3.9 -1.15 -3.76 -1.09 -3.65 -1.02 -3.5 -0.97 -3.41 -0.93 -3.32 -0.87 -3.23 -0.84 -3.16 -0.78 -3.11 -0.75 -3.05 -0.72 -3.03 -0.68 -2.99 -0.65 -2.98 -0.63 -2.99 -0.6 -2.99 -0.59 -3.01 -0.56 -3.06 -0.56 -3.08 -0.54 -3.16 -0.53 -3.21 -0.54 -3.29 -0.53 -3.4 -0.53 -3.49 -0.55 -3.63 -0.54 -3.75 -0.56 -3.88 -0.59 -4.05 -0.6 -4.22 -0.63 -4.41 13.47 10.12zm-13.47 -10.12c-0.92,-6.51 3.61,-12.54 10.12,-13.46 6.51,-0.92 12.54,3.61 13.46,10.12l-23.58 3.34zm1.95 -12.3l8.16 -1.16 3.36 23.58 -8.16 1.16 -13.47 -10.12 10.11 -13.46zm3.36 23.58c-6.51,0.92 -12.55,-3.6 -13.47,-10.11 -0.92,-6.51 3.6,-12.55 10.11,-13.47l3.36 23.58zm63.64 164.52l-21.28 10.7 0 0 -2.77 -5.57 -2.67 -5.51 -2.61 -5.48 -2.52 -5.46 -2.44 -5.43 -2.37 -5.4 -2.29 -5.4 -2.23 -5.39 -2.15 -5.4 -2.08 -5.4 -2.01 -5.4 -1.95 -5.41 -1.88 -5.44 -1.82 -5.47 -1.76 -5.5 -1.69 -5.53 -1.65 -5.58 -1.58 -5.63 -1.53 -5.68 -1.48 -5.74 -1.42 -5.8 -1.38 -5.86 -1.34 -5.96 -1.29 -6.04 -1.24 -6.1 -1.21 -6.22 -1.16 -6.31 -1.12 -6.4 -1.1 -6.52 -1.06 -6.66 -1.03 -6.76 -1 -6.89 23.58 -3.34 0.98 6.73 0.99 6.6 1.04 6.46 1.06 6.34 1.1 6.22 1.12 6.11 1.17 6 1.2 5.9 1.23 5.8 1.28 5.7 1.32 5.64 1.38 5.56 1.4 5.48 1.47 5.42 1.5 5.37 1.57 5.3 1.61 5.27 1.68 5.24 1.72 5.19 1.8 5.18 1.85 5.15 1.91 5.16 1.98 5.12 2.05 5.14 2.13 5.15 2.19 5.16 2.27 5.18 2.34 5.21 2.42 5.22 2.51 5.28 2.59 5.33 2.67 5.37 0 0zm0 0c2.95,5.87 0.58,13.04 -5.29,15.99 -5.87,2.95 -13.04,0.58 -15.99,-5.29l21.28 -10.7zm58.57 81.79l-22.4 -8.08 6.03 14.76 -2.51 -1.33 -2.44 -1.51 -2.33 -1.64 -2.3 -1.77 -2.29 -1.91 -2.27 -2.03 -2.25 -2.14 -2.27 -2.25 -2.26 -2.37 -2.24 -2.45 -2.23 -2.53 -2.23 -2.59 -2.22 -2.68 -2.2 -2.73 -2.17 -2.76 -2.15 -2.81 -2.13 -2.85 -2.09 -2.86 -2.05 -2.86 -2.01 -2.87 -1.95 -2.85 -1.9 -2.82 -1.85 -2.82 -1.78 -2.75 -1.71 -2.72 -1.64 -2.65 -1.55 -2.58 -1.48 -2.52 -1.38 -2.41 -1.29 -2.33 -1.21 -2.25 -1.1 -2.13 21.28 -10.7 0.9 1.77 1.01 1.89 1.15 2.05 1.24 2.17 1.34 2.28 1.43 2.36 1.5 2.45 1.59 2.5 1.66 2.59 1.71 2.6 1.78 2.64 1.83 2.67 1.87 2.67 1.91 2.68 1.93 2.64 1.97 2.63 1.99 2.59 1.99 2.54 2 2.49 1.98 2.38 1.99 2.33 1.97 2.23 1.94 2.11 1.88 1.97 1.85 1.85 1.79 1.7 1.71 1.53 1.61 1.35 1.52 1.17 1.37 0.96 1.16 0.73 0.97 0.51 6.03 14.76zm-6.03 -14.76c5.92,2.85 8.4,9.97 5.55,15.89 -2.85,5.92 -9.97,8.4 -15.89,5.55l10.34 -21.44zm-37.11 81.07l2.88 -23.64 -11.98 6.28 0.9 -1.67 0.89 -1.66 0.94 -1.7 0.94 -1.67 0.96 -1.7 0.99 -1.71 0.98 -1.68 0.98 -1.68 1.01 -1.74 1.01 -1.72 1.01 -1.72 1.02 -1.73 1.01 -1.75 1.02 -1.75 0.99 -1.73 1.02 -1.8 1.01 -1.78 0.99 -1.79 0.99 -1.79 0.96 -1.8 0.97 -1.82 0.94 -1.82 0.94 -1.85 0.91 -1.85 0.9 -1.85 0.86 -1.86 0.85 -1.85 0.82 -1.9 0.8 -1.9 0.77 -1.91 0.75 -1.92 0.71 -1.93 22.4 8.08 -0.85 2.29 -0.87 2.24 -0.89 2.23 -0.94 2.2 -0.94 2.16 -0.97 2.17 -1 2.12 -1 2.09 -1.03 2.07 -1.02 2.01 -1.04 2.02 -1.05 1.98 -1.06 1.98 -1.07 1.93 -1.05 1.91 -1.07 1.88 -1.04 1.84 -1.07 1.87 -1.06 1.81 -1.03 1.77 -1.04 1.77 -1.01 1.74 -1.01 1.7 -0.97 1.66 -0.98 1.7 -0.96 1.64 -0.91 1.59 -0.9 1.58 -0.88 1.57 -0.84 1.52 -0.83 1.52 -0.78 1.47 -11.98 6.28zm11.98 -6.28c-3.05,5.82 -10.26,8.05 -16.08,5 -5.82,-3.05 -8.05,-10.26 -5,-16.08l21.08 11.08zm-112.13 -29.91l103.03 12.55 -2.88 23.64 -103.03 -12.55 -9.98 -8.46 12.86 -15.18zm-2.88 23.64c-6.52,-0.79 -11.17,-6.74 -10.38,-13.26 0.79,-6.52 6.74,-11.17 13.26,-10.38l-2.88 23.64z"/>
    <path id="1" class="fil16" d="M2237.3 658.43c-2.62,-8.9 -7.27,-21.52 -10.04,-35.63 -12.81,-69.02 -18.28,-80.42 -20.43,-156.99 -1.11,-39.29 2.56,-133.49 31.94,-161.4 21.79,-20.7 41.27,-16.81 68.57,-15.37 48.94,2.57 131.94,12.83 163.52,50.49 21.59,25.75 27.75,69.02 32.49,102.45 6.2,43.74 -7.63,95.34 -25.09,128.59 -9.51,18.13 -32.51,46.25 -53.06,49.17 -29.42,4.17 -46.66,-6.8 -67.42,-28.79 -30.51,-32.31 -53.25,-81.12 -67.17,-124.27 -15.42,-47.82 -17.5,-61.46 -24.31,-109.45l-8.16 1.16c10.4,73.4 25.23,123.09 54.68,181.66 10.08,20.04 39.83,63.63 58.01,72.4 -8.14,22.56 -21.71,41.81 -30.5,58.53l-103.03 -12.55z"/>
   </g>
   <path class="fil17" d="M2034.44 1125.13c29.17,-4.85 35.34,-28.51 46.08,-46.34l73.93 -112.23c20.76,-22.66 36.52,-27.58 17.03,-66.95 -50.33,-10.03 -91.43,52.64 -108.97,79.03 -23.39,35.2 -45.66,89.94 -28.07,146.49z"/>
   <path class="fil17" d="M2214.32 858.79c5.21,39.08 23.28,47.55 65.93,36.9 42.05,-10.48 44.72,-29.59 28.16,-63.3 -39.14,-5.75 -73.07,1.76 -94.09,26.4z"/>
   <path class="fil7" d="M2693.54 1015.51l7.95 57.26c63.99,-27.39 30.85,-93.24 24.52,-105.39 -0.65,-1.24 -1.89,-3.18 -2.95,-4.71l3.95 29.07c-9.92,11.39 -15.46,19.56 -33.47,23.77z"/>
   <path class="fil8" d="M1980.89 900.44c34.4,13.81 20.64,17.93 44.81,33.65 104.11,-119.1 220.94,-176.9 425.46,-144.04l6.19 -63.23c-81.44,-38.74 -189.38,-49.52 -291.81,-6.83 -80.24,33.43 -172.03,111.02 -184.65,180.45z"/>
   <path class="fil8" d="M2003.39 1254.33l2.87 0.62c-4.22,-40.73 -45.77,-94.77 -29.54,-194.75 11.33,-69.83 61.39,-106.86 -8.29,-140.82 -15.72,55.61 -26.16,98.75 -18.35,168.16 5.04,44.84 27.66,138.81 53.31,166.79z"/>
   <path class="fil8" d="M2649.61 1007.16c1.5,1.7 3.53,1.81 4.54,5.06 0.93,2.98 3.21,3.62 3.98,4.82 1.24,1.88 6.14,10.99 6.73,12.43 -32.81,-143.49 -77.18,-209.46 -181.94,-286.49 -7.28,16.86 -8.39,36.23 -6.39,60.26 34.89,10.11 83.01,47.04 106.44,75.08 28.38,33.99 52.65,76.58 66.64,128.84z"/>
   <path class="fil8" d="M1918.87 1260.72l42.82 9.74 2.42 -10.16c-2.05,-19.21 -35.38,-120.24 -44.44,-154.56 -58.44,37.89 -15.77,92.58 -0.8,154.98z"/>
   <path class="fil8" d="M2693.54 1015.51c18.01,-4.21 23.55,-12.38 33.47,-23.77l-3.95 -29.07c-3.2,-18.2 -16.27,-57.62 -24.31,-73.05 -14.05,-26.96 -28.32,-31.08 -61.69,-31.19 21.55,57.07 41.52,89.38 56.48,157.08z"/>
   <path class="fil18" d="M2024.37 267.91c87.62,86.86 135.14,234.25 131.73,361.64l-4.67 69.47c-2.08,0.12 -3.22,0.1 -4.23,0.01 1.51,5.65 1.55,6.76 -2.29,11.23 -6.48,7.54 -66.99,33.21 -82.05,40.93 -18.2,-8.77 -99.5,-123.47 -113.75,-152.03 -41.2,-82.52 -55.3,-118.23 -68.56,-211.79 -18.14,-128.03 47.79,-214.66 143.82,-119.46z"/>
   <g>
    <path class="fil15" d="M2068.29 761.78c-5.84,2.99 -13.03,0.68 -16.02,-5.16 -2.99,-5.84 -0.68,-13.03 5.16,-16.02l10.86 21.18zm67.59 -59.28l18.06 15.52 0 0 -1.87 1.89 -1.83 1.49 -1.84 1.3 -1.96 1.27 -2.11 1.27 -2.27 1.31 -2.45 1.35 -2.59 1.38 -2.75 1.43 -2.87 1.46 -3.01 1.5 -3.11 1.53 -3.19 1.54 -3.27 1.56 -3.32 1.57 -3.36 1.58 -3.38 1.57 -3.38 1.56 -3.36 1.55 -3.33 1.52 -3.28 1.51 -3.2 1.46 -3.12 1.43 -3.02 1.38 -2.88 1.31 -2.74 1.26 -2.58 1.19 -2.37 1.1 -2.18 1.04 -1.98 0.94 -1.65 0.81 -1.4 0.7 -10.86 -21.18 1.68 -0.86 1.93 -0.93 2.06 -0.98 2.28 -1.08 2.49 -1.16 2.62 -1.21 2.78 -1.28 2.9 -1.33 3.02 -1.38 3.12 -1.43 3.2 -1.46 3.26 -1.49 3.31 -1.52 3.32 -1.53 3.34 -1.54 3.32 -1.55 3.3 -1.54 3.24 -1.53 3.17 -1.52 3.09 -1.5 2.99 -1.45 2.83 -1.42 2.71 -1.38 2.53 -1.31 2.35 -1.26 2.11 -1.15 1.87 -1.09 1.59 -0.95 1.24 -0.81 0.86 -0.6 0.29 -0.23 -0.35 0.37 0 0zm-0.18 -0.4l23 -6.14 0.14 0.52 0.18 0.67 0.13 0.56 0.11 0.45 0.13 0.56 0.16 0.7 0.11 0.59 0.11 0.6 0.11 0.77 0.07 0.62 0.07 0.84 0.03 0.86 0 0.7 -0.03 0.89 -0.11 1.11 -0.15 0.91 -0.2 0.91 -0.23 0.84 -0.27 0.83 -0.37 0.96 -0.31 0.69 -0.39 0.81 -0.43 0.76 -0.31 0.52 -0.4 0.63 -0.45 0.67 -0.44 0.59 -0.43 0.57 -0.32 0.4 -0.41 0.51 -0.47 0.56 -0.39 0.46 -18.06 -15.52 0.31 -0.36 0.19 -0.22 0.19 -0.25 0.24 -0.3 0.11 -0.13 0.04 -0.07 -0.01 0.03 0 -0.01 0.05 -0.08 -0.09 0.16 -0.11 0.23 -0.05 0.11 -0.15 0.4 -0.09 0.25 -0.07 0.28 -0.08 0.33 -0.05 0.33 -0.05 0.51 -0.01 0.29 0 0.08 0.01 0.22 0.01 0.18 -0.01 -0.06 0.01 0.05 -0.03 -0.14 -0.03 -0.19 -0.02 -0.1 -0.07 -0.3 -0.11 -0.43 -0.09 -0.38 -0.08 -0.31 -0.14 -0.52zm0 0c-1.69,-6.35 2.08,-12.88 8.43,-14.57 6.35,-1.69 12.88,2.08 14.57,8.43l-23 6.14z"/>
   </g>
   <g>
    <path class="fil15" d="M1959.76 593.84l-21.3 10.64 0 0 -3.8 -7.63 -3.64 -7.39 -3.5 -7.15 -3.37 -6.95 -3.23 -6.75 -3.09 -6.6 -2.97 -6.44 -2.85 -6.31 -2.74 -6.2 -2.62 -6.11 -2.51 -6.05 -2.4 -5.97 -2.32 -5.94 -2.2 -5.94 -2.13 -5.93 -2.03 -5.96 -1.95 -5.98 -1.87 -6.03 -1.79 -6.1 -1.73 -6.19 -1.66 -6.3 -1.6 -6.43 -1.55 -6.57 -1.49 -6.73 -1.44 -6.9 -1.4 -7.1 -1.36 -7.31 -1.34 -7.55 -1.31 -7.81 -1.28 -8.08 -1.27 -8.37 -1.26 -8.67 23.58 -3.34 1.24 8.53 1.23 8.21 1.26 7.88 1.27 7.61 1.3 7.33 1.32 7.09 1.36 6.84 1.38 6.64 1.43 6.43 1.47 6.27 1.52 6.11 1.58 5.98 1.63 5.87 1.71 5.78 1.77 5.71 1.83 5.66 1.93 5.62 2.01 5.63 2.1 5.62 2.2 5.66 2.3 5.73 2.41 5.79 2.52 5.87 2.64 6 2.77 6.13 2.89 6.28 3.03 6.44 3.17 6.63 3.31 6.85 3.46 7.07 3.62 7.31 3.76 7.57 0 0zm0 0c2.93,5.88 0.55,13.04 -5.33,15.97 -5.88,2.93 -13.04,0.55 -15.97,-5.33l21.3 -10.64zm95.86 147.9l14.48 18.9 -12.41 1.27 -3.48 -2.05 -3.07 -2.34 -3.08 -2.72 -3.19 -3.11 -3.37 -3.51 -3.55 -3.9 -3.74 -4.26 -3.93 -4.63 -4.07 -4.93 -4.23 -5.23 -4.34 -5.49 -4.44 -5.71 -4.52 -5.89 -4.57 -6.06 -4.6 -6.18 -4.62 -6.27 -4.6 -6.34 -4.56 -6.35 -4.5 -6.32 -4.43 -6.3 -4.31 -6.2 -4.18 -6.1 -4.03 -5.94 -3.85 -5.76 -3.67 -5.54 -3.43 -5.3 -3.2 -5.01 -2.93 -4.7 -2.65 -4.36 -2.34 -4.01 -2.03 -3.64 -1.72 -3.28 21.3 -10.64 1.34 2.56 1.77 3.16 2.14 3.65 2.47 4.08 2.79 4.48 3.08 4.83 3.33 5.14 3.57 5.4 3.77 5.64 3.95 5.82 4.12 5.98 4.23 6.1 4.35 6.18 4.44 6.24 4.48 6.25 4.52 6.22 4.54 6.15 4.52 6.08 4.47 5.92 4.42 5.77 4.32 5.57 4.2 5.31 4.07 5.03 3.89 4.71 3.69 4.35 3.48 3.96 3.19 3.5 2.89 3.01 2.51 2.45 2.04 1.8 1.39 1.08 0.3 0.21 -12.41 1.27zm12.41 -1.27c5.92,2.85 8.4,9.97 5.55,15.89 -2.85,5.92 -9.97,8.4 -15.89,5.55l10.34 -21.44zm-48.26 -26.51l18.52 -14.98 0 0 1.41 1.7 1.46 1.72 1.51 1.71 1.57 1.73 1.6 1.72 1.64 1.73 1.64 1.7 1.67 1.71 1.68 1.7 1.67 1.69 1.66 1.67 1.66 1.66 1.6 1.63 1.58 1.59 1.59 1.63 1.51 1.6 1.46 1.57 1.41 1.57 1.37 1.57 1.29 1.56 1.25 1.6 1.18 1.65 1.1 1.7 1.01 1.79 0.95 1.98 0.81 2.3 0.57 2.6 0.16 3.04 -0.5 3.32 -1.28 3.33 -2.01 2.93 -2.41 2.26 -14.48 -18.9 -1.09 1.02 -1.07 1.57 -0.7 1.81 -0.26 1.68 0.06 1.28 0.15 0.7 0.09 0.28 -0.07 -0.14 -0.27 -0.47 -0.42 -0.64 -0.58 -0.81 -0.75 -0.96 -0.89 -1.08 -1.03 -1.19 -1.15 -1.27 -1.26 -1.35 -1.33 -1.4 -1.41 -1.45 -1.52 -1.55 -1.58 -1.59 -1.62 -1.64 -1.66 -1.67 -1.73 -1.73 -1.72 -1.76 -1.77 -1.79 -1.78 -1.86 -1.78 -1.87 -1.78 -1.92 -1.75 -1.93 -1.77 -1.99 -1.72 -2.02 -1.69 -2.04 0 0zm0 0c-4.13,-5.11 -3.34,-12.62 1.77,-16.75 5.11,-4.13 12.62,-3.34 16.75,1.77l-18.52 14.98zm-48.76 -69.42l20.14 -12.7 0 -0.01 1.24 1.95 1.26 2 1.32 2.03 1.33 2.08 1.37 2.09 1.4 2.15 1.41 2.15 1.44 2.16 1.48 2.21 1.49 2.23 1.5 2.23 1.51 2.24 1.53 2.24 1.54 2.24 1.55 2.25 1.54 2.22 1.59 2.25 1.56 2.24 1.56 2.2 1.57 2.2 1.56 2.17 1.57 2.16 1.55 2.13 1.53 2.08 1.53 2.06 1.52 2.02 1.5 1.99 1.49 1.95 1.46 1.88 1.44 1.84 1.41 1.79 1.39 1.72 -18.52 14.98 -1.49 -1.86 -1.51 -1.91 -1.52 -1.94 -1.54 -2 -1.55 -2.03 -1.58 -2.07 -1.58 -2.12 -1.59 -2.14 -1.61 -2.18 -1.59 -2.19 -1.61 -2.22 -1.62 -2.25 -1.61 -2.26 -1.62 -2.28 -1.6 -2.28 -1.59 -2.27 -1.62 -2.32 -1.59 -2.31 -1.58 -2.3 -1.57 -2.32 -1.55 -2.28 -1.54 -2.29 -1.51 -2.25 -1.5 -2.25 -1.48 -2.24 -1.47 -2.23 -1.42 -2.17 -1.41 -2.17 -1.37 -2.12 -1.34 -2.09 -1.32 -2.06 -1.28 -2.01 0 -0.01zm0 0.01c-3.51,-5.56 -1.85,-12.92 3.71,-16.43 5.56,-3.51 12.92,-1.85 16.43,3.71l-20.14 12.72zm-89.22 -222.35l23.58 -3.34 0 0 1.01 6.58 1.16 6.65 1.31 6.73 1.46 6.76 1.6 6.82 1.74 6.86 1.86 6.89 2 6.93 2.13 6.95 2.24 6.97 2.35 6.98 2.46 6.98 2.57 6.97 2.66 6.97 2.76 6.96 2.85 6.93 2.93 6.9 3.02 6.88 3.08 6.83 3.16 6.78 3.22 6.74 3.27 6.68 3.33 6.6 3.39 6.55 3.42 6.48 3.46 6.38 3.5 6.29 3.54 6.2 3.55 6.1 3.57 6 3.58 5.87 3.6 5.77 -20.14 12.7 -3.72 -5.97 -3.72 -6.09 -3.69 -6.2 -3.67 -6.3 -3.64 -6.4 -3.62 -6.51 -3.58 -6.6 -3.54 -6.68 -3.49 -6.75 -3.45 -6.84 -3.39 -6.9 -3.32 -6.96 -3.26 -7.02 -3.2 -7.07 -3.12 -7.12 -3.05 -7.16 -2.95 -7.21 -2.86 -7.22 -2.78 -7.25 -2.67 -7.27 -2.56 -7.28 -2.47 -7.3 -2.34 -7.29 -2.23 -7.29 -2.1 -7.29 -1.98 -7.27 -1.84 -7.26 -1.7 -7.24 -1.54 -7.2 -1.41 -7.17 -1.24 -7.13 -1.09 -7.1 0 0zm0 0c-0.92,-6.51 3.61,-12.54 10.12,-13.46 6.51,-0.92 12.54,3.61 13.46,10.12l-23.58 3.34zm-4.52 -116.46l23.52 3.74 0 0 -0.58 3.81 -0.52 3.73 -0.44 3.62 -0.38 3.55 -0.33 3.51 -0.26 3.43 -0.21 3.37 -0.15 3.32 -0.11 3.29 -0.05 3.24 0 3.24 0.03 3.18 0.09 3.18 0.12 3.15 0.17 3.17 0.21 3.17 0.24 3.16 0.27 3.18 0.31 3.21 0.34 3.22 0.37 3.26 0.4 3.3 0.43 3.35 0.44 3.37 0.47 3.44 0.49 3.49 0.51 3.56 0.51 3.62 0.54 3.68 0.55 3.79 0.56 3.85 0.56 3.94 -23.58 3.34 -0.56 -3.9 -0.54 -3.83 -0.55 -3.75 -0.54 -3.72 -0.53 -3.66 -0.51 -3.6 -0.49 -3.55 -0.49 -3.52 -0.46 -3.51 -0.43 -3.47 -0.42 -3.44 -0.39 -3.44 -0.36 -3.42 -0.33 -3.43 -0.31 -3.42 -0.26 -3.44 -0.21 -3.43 -0.19 -3.45 -0.14 -3.49 -0.09 -3.5 -0.05 -3.54 0.02 -3.54 0.05 -3.6 0.11 -3.65 0.17 -3.68 0.23 -3.75 0.3 -3.79 0.35 -3.85 0.42 -3.91 0.5 -4 0.56 -4.05 0.62 -4.13 0 0zm0 0c1.03,-6.49 7.14,-10.92 13.63,-9.89 6.49,1.03 10.92,7.14 9.89,13.63l-23.52 -3.74zm26.66 -63.05l17.32 16.34 -0.01 0.01 -0.83 0.91 -0.84 1 -0.87 1.09 -0.84 1.12 -0.83 1.17 -0.85 1.29 -0.84 1.34 -0.8 1.35 -0.81 1.44 -0.8 1.48 -0.76 1.51 -0.78 1.6 -0.75 1.6 -0.72 1.65 -0.71 1.66 -0.68 1.72 -0.68 1.73 -0.63 1.73 -0.63 1.78 -0.6 1.81 -0.58 1.8 -0.55 1.81 -0.52 1.8 -0.5 1.8 -0.47 1.84 -0.46 1.82 -0.42 1.81 -0.4 1.79 -0.37 1.76 -0.34 1.77 -0.31 1.73 -0.28 1.73 -23.52 -3.74 0.34 -2.03 0.37 -2.05 0.4 -2.07 0.43 -2.1 0.46 -2.09 0.5 -2.11 0.52 -2.1 0.55 -2.1 0.58 -2.14 0.62 -2.12 0.65 -2.13 0.68 -2.1 0.7 -2.09 0.73 -2.1 0.77 -2.11 0.8 -2.07 0.82 -2.04 0.87 -2.06 0.9 -2.03 0.93 -2 0.94 -1.94 1 -1.97 1.04 -1.92 1.05 -1.88 1.12 -1.87 1.14 -1.8 1.17 -1.77 1.23 -1.77 1.28 -1.7 1.29 -1.63 1.36 -1.6 1.43 -1.57 -0.01 0.01zm0.01 -0.01c4.51,-4.77 12.06,-4.98 16.83,-0.47 4.77,4.51 4.98,12.06 0.47,16.83l-17.3 -16.36zm127.56 26.27l-16.82 16.86 0 0 -2.09 -2.06 -2.24 -2.16 -2.37 -2.21 -2.54 -2.3 -2.65 -2.34 -2.75 -2.34 -2.86 -2.34 -2.96 -2.32 -3.04 -2.28 -3.11 -2.22 -3.21 -2.16 -3.22 -2.06 -3.26 -1.93 -3.32 -1.83 -3.3 -1.66 -3.31 -1.5 -3.33 -1.33 -3.28 -1.15 -3.22 -0.93 -3.19 -0.72 -3.11 -0.51 -3.05 -0.27 -2.98 -0.05 -2.91 0.18 -2.83 0.42 -2.78 0.67 -2.75 0.94 -2.73 1.22 -2.73 1.54 -2.76 1.9 -2.76 2.29 -2.79 2.73 -17.32 -16.34 4.15 -4.07 4.34 -3.59 4.5 -3.1 4.63 -2.62 4.75 -2.12 4.83 -1.64 4.86 -1.17 4.89 -0.74 4.85 -0.3 4.8 0.07 4.75 0.43 4.69 0.75 4.59 1.04 4.52 1.31 4.4 1.53 4.31 1.73 4.23 1.92 4.14 2.08 4.02 2.21 3.94 2.33 3.82 2.44 3.69 2.5 3.61 2.56 3.48 2.62 3.34 2.62 3.22 2.64 3.09 2.62 2.93 2.58 2.78 2.52 2.65 2.47 2.46 2.38 2.31 2.26 0 0zm0 0c4.65,4.64 4.66,12.19 0.02,16.84 -4.64,4.65 -12.19,4.66 -16.84,0.02l16.82 -16.86zm72.89 107.25l-21.32 10.62 0 -0.01 -1.75 -3.48 -1.79 -3.49 -1.81 -3.5 -1.84 -3.49 -1.88 -3.48 -1.91 -3.47 -1.96 -3.5 -1.96 -3.47 -2 -3.46 -2.04 -3.45 -2.05 -3.43 -2.07 -3.39 -2.11 -3.39 -2.13 -3.35 -2.15 -3.33 -2.16 -3.28 -2.21 -3.27 -2.21 -3.23 -2.22 -3.17 -2.25 -3.13 -2.26 -3.1 -2.29 -3.04 -2.29 -2.99 -2.31 -2.94 -2.31 -2.88 -2.32 -2.81 -2.35 -2.76 -2.34 -2.7 -2.34 -2.6 -2.36 -2.55 -2.36 -2.48 -2.36 -2.39 16.82 -16.86 2.64 2.69 2.62 2.74 2.6 2.81 2.58 2.88 2.56 2.94 2.53 2.98 2.54 3.07 2.49 3.1 2.49 3.16 2.45 3.21 2.43 3.24 2.42 3.3 2.39 3.33 2.38 3.39 2.33 3.41 2.31 3.43 2.3 3.48 2.27 3.51 2.23 3.53 2.21 3.55 2.19 3.57 2.15 3.59 2.12 3.61 2.1 3.62 2.06 3.63 2.02 3.62 2.01 3.65 1.96 3.66 1.94 3.65 1.89 3.64 1.85 3.63 1.83 3.64 0 -0.01zm0 0.01c2.92,5.88 0.52,13.04 -5.36,15.96 -5.88,2.92 -13.04,0.52 -15.96,-5.36l21.32 -10.6zm54.4 289.87l-23.72 -2.18 0 0.01 0.71 -8.61 0.53 -8.68 0.37 -8.74 0.21 -8.81 0.05 -8.87 -0.1 -8.89 -0.27 -8.94 -0.42 -8.97 -0.57 -8.99 -0.74 -9.01 -0.88 -9.03 -1.03 -9.02 -1.18 -9.02 -1.32 -9.01 -1.48 -8.99 -1.62 -8.97 -1.76 -8.93 -1.9 -8.9 -2.05 -8.85 -2.17 -8.81 -2.32 -8.73 -2.46 -8.69 -2.58 -8.6 -2.72 -8.52 -2.86 -8.44 -2.97 -8.34 -3.1 -8.25 -3.23 -8.14 -3.36 -8.02 -3.47 -7.91 -3.6 -7.77 -3.71 -7.64 21.32 -10.62 3.91 8.06 3.78 8.19 3.65 8.31 3.52 8.42 3.39 8.54 3.26 8.63 3.11 8.72 2.98 8.82 2.84 8.92 2.7 8.98 2.56 9.05 2.42 9.13 2.27 9.17 2.13 9.23 1.98 9.26 1.84 9.31 1.68 9.35 1.54 9.37 1.38 9.39 1.24 9.4 1.07 9.42 0.92 9.41 0.76 9.41 0.61 9.39 0.44 9.39 0.27 9.34 0.12 9.33 -0.07 9.29 -0.21 9.23 -0.39 9.2 -0.57 9.14 -0.73 9.07 0 0.01zm0 -0.01c-0.59,6.55 -6.39,11.37 -12.94,10.78 -6.55,-0.59 -11.37,-6.39 -10.78,-12.94l23.72 2.16zm-14.72 20.62l-2.1 23.72 -10.3 -15.45 0.15 -0.49 0.17 -0.64 0.16 -0.63 0.14 -0.66 0.16 -0.74 0.15 -0.8 0.15 -0.84 0.13 -0.8 0.13 -0.89 0.13 -0.96 0.12 -0.93 0.11 -0.95 0.11 -1.02 0.1 -1.04 0.1 -1 0.09 -1.05 0.1 -1.11 0.08 -1.02 0.07 -1.08 0.08 -1.13 0.08 -1.13 0.08 -1.13 0.08 -1.08 0.07 -1.12 0.08 -1.12 0.07 -1.1 0.08 -1.1 0.07 -1.08 0.09 -1.14 0.08 -1.12 0.1 -1.11 0.09 -1.05 23.72 2.18 -0.09 0.97 -0.08 0.95 -0.08 0.98 -0.07 1 -0.07 1.06 -0.08 1.08 -0.07 1.1 -0.08 1.1 -0.07 1.12 -0.08 1.16 -0.08 1.13 -0.08 1.13 -0.08 1.13 -0.09 1.18 -0.1 1.24 -0.1 1.13 -0.09 1.17 -0.12 1.22 -0.12 1.16 -0.13 1.16 -0.13 1.21 -0.16 1.19 -0.15 1.12 -0.17 1.17 -0.19 1.22 -0.21 1.14 -0.21 1.14 -0.24 1.14 -0.26 1.16 -0.3 1.15 -0.29 1.08 -0.35 1.17 -10.3 -15.45zm10.3 15.45c-1.98,6.26 -8.68,9.74 -14.94,7.76 -6.26,-1.98 -9.74,-8.68 -7.76,-14.94l22.7 7.18zm-14.82 -3.92l23.76 1.6 -11.19 11.09 -0.5 0.02 -0.34 0.02 -0.49 0.02 -0.49 0.02 -0.49 0.01 -0.49 0.01 -0.28 0 -0.27 0 -0.49 -0.01 -0.26 -0.01 -0.24 0 -0.79 -0.03 -0.23 -0.03 -0.21 -0.01 -0.52 -0.04 -0.22 -0.02 -0.23 -0.03 -0.49 -0.05 -0.13 -0.02 -0.21 -0.02 -0.48 -0.07 -0.14 -0.02 -0.14 -0.02 -0.17 -0.02 -0.18 -0.02 -0.19 -0.03 -0.18 -0.02 -0.22 -0.02 -0.42 -0.05 -0.22 -0.03 -0.09 0 -0.35 -0.03 2.1 -23.72 0.35 0.03 0.57 0.06 0.4 0.05 0.16 0.01 0.34 0.04 0.34 0.04 0.31 0.03 0.3 0.04 0.29 0.04 0.3 0.04 0.28 0.04 -0.08 -0.01 0.21 0.02 0.27 0.04 -0.11 -0.01 0.17 0.01 0.18 0.02 -0.1 0 0.21 0.01 0.19 0.01 -0.35 -0.01 0.22 0 0.24 0.01 0.01 -0.01 0.27 0 0.28 0 0.11 0.01 0.15 -0.01 0.19 0 0.23 -0.02 0.42 -0.02 0.32 -0.02 -11.19 11.09zm11.19 -11.09c6.56,-0.38 12.2,4.64 12.58,11.2 0.38,6.56 -4.64,12.2 -11.2,12.58l-1.38 -23.78zm17.24 -56.78l-4.67 69.47 -23.76 -1.6 4.67 -69.47 23.78 1.12 -0.02 0.48zm-23.76 -1.6c0.44,-6.56 6.12,-11.52 12.68,-11.08 6.56,0.44 11.52,6.12 11.08,12.68l-23.76 -1.6zm-128.23 -352.39l16.76 -16.9 0 0 8.39 8.62 8.14 8.96 7.87 9.28 7.62 9.59 7.35 9.88 7.1 10.16 6.83 10.43 6.57 10.67 6.3 10.9 6.05 11.12 5.77 11.33 5.51 11.51 5.25 11.69 4.97 11.85 4.7 12 4.43 12.13 4.16 12.24 3.88 12.35 3.6 12.44 3.32 12.51 3.04 12.56 2.77 12.62 2.47 12.65 2.19 12.67 1.9 12.66 1.62 12.66 1.31 12.64 1.03 12.59 0.73 12.54 0.43 12.48 0.13 12.38 -0.18 12.3 -23.8 -0.64 0.16 -11.7 -0.11 -11.82 -0.41 -11.9 -0.71 -11.98 -0.97 -12.05 -1.27 -12.1 -1.54 -12.12 -1.82 -12.14 -2.11 -12.15 -2.37 -12.13 -2.65 -12.1 -2.92 -12.06 -3.18 -12.01 -3.46 -11.92 -3.72 -11.83 -3.98 -11.74 -4.23 -11.61 -4.5 -11.46 -4.75 -11.33 -5.01 -11.15 -5.25 -10.99 -5.49 -10.77 -5.75 -10.58 -5.98 -10.34 -6.23 -10.11 -6.45 -9.85 -6.7 -9.58 -6.91 -9.3 -7.14 -8.99 -7.37 -8.68 -7.58 -8.36 -7.81 -8.02 0 0zm0 0c-4.66,-4.62 -4.69,-12.17 -0.07,-16.83 4.62,-4.66 12.17,-4.69 16.83,-0.07l-16.76 16.9zm-123.65 109.34l-23.58 3.34 0 0 -1.51 -12.32 -1.01 -12.08 -0.52 -11.78 -0.04 -11.5 0.44 -11.17 0.9 -10.8 1.37 -10.45 1.81 -10.06 2.29 -9.65 2.73 -9.2 3.18 -8.74 3.64 -8.26 4.11 -7.75 4.57 -7.21 5.05 -6.63 5.54 -6.01 6.02 -5.32 6.5 -4.6 6.97 -3.79 7.4 -2.93 7.77 -1.99 8.07 -1.04 8.3 -0.04 8.47 0.95 8.63 1.93 8.73 2.9 8.84 3.88 8.94 4.84 9.04 5.81 9.14 6.81 9.26 7.79 9.36 8.83 -16.76 16.9 -8.46 -7.97 -8.2 -6.91 -7.92 -5.89 -7.6 -4.89 -7.28 -3.94 -6.94 -3.04 -6.55 -2.18 -6.19 -1.39 -5.81 -0.65 -5.46 0.02 -5.15 0.66 -4.87 1.25 -4.66 1.85 -4.47 2.43 -4.3 3.04 -4.14 3.68 -3.96 4.29 -3.75 4.93 -3.53 5.57 -3.27 6.17 -2.98 6.76 -2.66 7.34 -2.35 7.86 -1.97 8.37 -1.61 8.86 -1.21 9.33 -0.82 9.74 -0.4 10.13 0.04 10.5 0.48 10.84 0.93 11.14 1.41 11.44 0 0zm0 0c0.92,6.51 -3.61,12.54 -10.12,13.46 -6.51,0.92 -12.54,-3.61 -13.46,-10.12l23.58 -3.34z"/>
    <path id="1" class="fil9" d="M1880.55 387.37c13.26,93.56 27.36,129.27 68.56,211.79 14.25,28.56 95.55,143.26 113.75,152.03 8.1,-6.2 -17.61,-24.67 -33.83,-44.72 -15.2,-18.8 -34.73,-47.35 -47.95,-68.28 -39.06,-61.91 -77.2,-145.04 -87.5,-217.66 -5.99,-42.26 -11.37,-70.13 -4.55,-112.92 3.17,-19.88 11.42,-43.9 23.56,-56.75 36.6,-38.78 87.97,4.04 110.5,26.52 26.71,26.66 51.79,66.25 70.64,104.13 41.32,83.01 61.75,189.55 53.2,283.48 -0.98,10.69 -1.17,24.89 -3.91,33.56 3.85,0.34 3.94,0.73 8.41,0.47l4.67 -69.47c3.41,-127.39 -44.11,-274.78 -131.73,-361.64 -96.03,-95.2 -161.96,-8.57 -143.82,119.46z"/>
   </g>
   <g>
    <path class="fil15" d="M2235.42 639.12l-22.9 6.52 0 0.01 -0.63 -2.27 -0.66 -2.4 -0.65 -2.49 -0.66 -2.57 -0.67 -2.65 -0.66 -2.73 -0.67 -2.8 -0.68 -2.87 -0.67 -2.92 -0.68 -2.98 -0.67 -3.03 -0.67 -3.07 -0.66 -3.09 -0.65 -3.11 -0.66 -3.15 -0.64 -3.15 -0.63 -3.14 -0.63 -3.16 -0.61 -3.14 -0.6 -3.11 -0.59 -3.13 -0.57 -3.06 -0.55 -3.02 -0.54 -3.01 -0.52 -2.94 -0.5 -2.9 -0.46 -2.81 -0.46 -2.74 -0.43 -2.69 -0.4 -2.59 -0.38 -2.49 -0.35 -2.42 23.58 -3.34 0.33 2.26 0.36 2.39 0.38 2.49 0.41 2.55 0.44 2.68 0.46 2.75 0.48 2.78 0.5 2.86 0.52 2.91 0.55 2.96 0.55 3.02 0.57 3.01 0.6 3.07 0.59 3.08 0.61 3.06 0.63 3.1 0.62 3.07 0.64 3.05 0.65 3.07 0.64 3.01 0.65 2.97 0.65 2.93 0.66 2.9 0.65 2.84 0.64 2.75 0.65 2.7 0.64 2.61 0.63 2.53 0.62 2.43 0.61 2.31 0.6 2.2 0.59 2.09 0 0.01zm0 -0.01c1.8,6.32 -1.86,12.92 -8.18,14.72 -6.32,1.8 -12.92,-1.86 -14.72,-8.18l22.9 -6.54zm-5.11 19.37l3.84 23.5 -13.67 -9.81 -0.09 -0.53 -0.1 -0.52 -0.13 -0.62 -0.17 -0.72 -0.15 -0.67 -0.17 -0.66 -0.18 -0.68 -0.21 -0.76 -0.23 -0.84 -0.21 -0.72 -0.25 -0.8 -0.26 -0.86 -0.27 -0.86 -0.26 -0.85 -0.26 -0.8 -0.29 -0.87 -0.3 -0.93 -0.3 -0.92 -0.28 -0.86 -0.31 -0.92 -0.32 -0.94 -0.3 -0.91 -0.3 -0.91 -0.29 -0.89 -0.31 -0.94 -0.32 -1 -0.29 -0.91 -0.29 -0.9 -0.29 -0.95 -0.28 -0.9 -0.28 -0.95 -0.27 -0.94 22.9 -6.52 0.21 0.74 0.24 0.77 0.24 0.82 0.25 0.79 0.27 0.86 0.27 0.87 0.26 0.8 0.29 0.86 0.31 0.93 0.3 0.91 0.3 0.91 0.28 0.88 0.31 0.92 0.32 0.96 0.3 0.92 0.3 0.89 0.31 0.95 0.32 1 0.3 0.95 0.29 0.94 0.28 0.92 0.29 0.96 0.29 1.02 0.25 0.88 0.27 0.94 0.26 1 0.25 1 0.23 0.97 0.19 0.88 0.21 0.94 0.2 1.02 0.17 0.97 -13.67 -9.81zm13.67 9.81c1.07,6.48 -3.33,12.62 -9.81,13.69 -6.48,1.07 -12.62,-3.33 -13.69,-9.81l23.5 -3.88zm-16.94 -1.84l23.3 -4.94 0 0.03 0.09 0.4 0.11 0.51 0.08 0.4 0.12 0.5 0.09 0.49 0.1 0.51 0.12 0.71 0.07 0.53 0.1 1.05 0.02 1.2 -0.06 1.08 -0.23 1.55 -0.54 1.88 -0.79 1.72 -1.07 1.66 -1.5 1.65 -1.21 1 -1.18 0.78 -1.23 0.65 -1.18 0.49 -0.9 0.3 -0.81 0.23 -0.77 0.18 -0.46 0.1 -0.66 0.13 -0.67 0.12 -0.65 0.11 -0.58 0.09 -0.54 0.09 -0.69 0.11 -0.66 0.1 -0.71 0.12 -3.84 -23.5 0.77 -0.12 0.72 -0.12 0.59 -0.09 0.64 -0.11 0.52 -0.07 0.37 -0.07 0.27 -0.04 0.18 -0.05 0.3 -0.06 -0.07 0.02 -0.19 0.05 -0.34 0.12 -0.7 0.29 -0.81 0.43 -0.82 0.54 -0.89 0.74 -1.26 1.39 -0.87 1.34 -0.63 1.38 -0.44 1.52 -0.17 1.15 -0.04 0.62 0.02 0.72 0.04 0.53 -0.01 -0.05 0.02 0.07 -0.04 -0.17 -0.05 -0.25 -0.06 -0.3 -0.1 -0.46 -0.09 -0.41 -0.13 -0.6 0 0.03zm0 -0.03c-1.34,-6.43 2.78,-12.75 9.21,-14.09 6.43,-1.34 12.75,2.78 14.09,9.21l-23.3 4.88zm-11.62 -41.62l23.42 -4.34 -0.01 -0.01 0.29 1.49 0.31 1.49 0.31 1.47 0.34 1.47 0.35 1.46 0.36 1.46 0.37 1.43 0.38 1.4 0.39 1.43 0.39 1.38 0.4 1.37 0.4 1.35 0.43 1.39 0.4 1.32 0.42 1.32 0.4 1.3 0.4 1.24 0.42 1.26 0.42 1.3 0.4 1.24 0.37 1.16 0.38 1.17 0.39 1.19 0.38 1.21 0.35 1.14 0.33 1.09 0.33 1.11 0.31 1.1 0.3 1.07 0.29 1.1 0.26 1.08 0.24 1.07 -23.3 4.94 -0.14 -0.61 -0.16 -0.68 -0.19 -0.72 -0.22 -0.83 -0.25 -0.86 -0.27 -0.91 -0.31 -1.01 -0.31 -1.02 -0.32 -1.01 -0.35 -1.09 -0.38 -1.17 -0.41 -1.24 -0.38 -1.22 -0.4 -1.2 -0.42 -1.32 -0.44 -1.36 -0.44 -1.38 -0.44 -1.4 -0.44 -1.44 -0.43 -1.43 -0.46 -1.51 -0.44 -1.53 -0.45 -1.56 -0.43 -1.57 -0.44 -1.62 -0.41 -1.65 -0.42 -1.64 -0.39 -1.68 -0.4 -1.71 -0.37 -1.73 -0.37 -1.75 -0.33 -1.79 -0.01 -0.01zm0.01 0.01c-1.2,-6.46 3.06,-12.68 9.52,-13.88 6.46,-1.2 12.68,3.06 13.88,9.52l-23.4 4.36zm-20.63 -158.84l23.8 -0.68 0 0.01 0.21 6.94 0.23 6.56 0.25 6.24 0.27 5.91 0.3 5.61 0.31 5.34 0.34 5.08 0.36 4.85 0.38 4.65 0.41 4.45 0.44 4.31 0.46 4.16 0.48 4.04 0.52 3.95 0.55 3.89 0.58 3.88 0.6 3.83 0.65 3.86 0.67 3.9 0.7 3.93 0.75 4.01 0.78 4.14 0.82 4.24 0.86 4.38 0.9 4.58 0.93 4.74 0.98 4.97 1.01 5.19 1.07 5.45 1.09 5.72 1.15 6.01 1.19 6.35 -23.42 4.34 -1.17 -6.27 -1.13 -5.97 -1.09 -5.66 -1.05 -5.41 -1.01 -5.17 -0.98 -4.95 -0.93 -4.76 -0.9 -4.56 -0.88 -4.44 -0.82 -4.32 -0.8 -4.2 -0.77 -4.13 -0.74 -4.09 -0.69 -4.04 -0.67 -4.02 -0.64 -4.05 -0.6 -4.04 -0.59 -4.11 -0.54 -4.21 -0.52 -4.28 -0.48 -4.38 -0.46 -4.51 -0.43 -4.69 -0.4 -4.85 -0.38 -5.05 -0.34 -5.26 -0.33 -5.5 -0.3 -5.77 -0.27 -6.05 -0.27 -6.36 -0.23 -6.7 -0.21 -7.04 0 0.01zm0 -0.01c-0.18,-6.57 5,-12.05 11.57,-12.23 6.57,-0.18 12.05,5 12.23,11.57l-23.8 0.66zm35.64 -170.36l16.4 17.26 0 0 -1.9 2 -1.92 2.4 -1.91 2.82 -1.88 3.21 -1.82 3.56 -1.75 3.91 -1.68 4.22 -1.59 4.48 -1.49 4.76 -1.41 4.97 -1.3 5.19 -1.22 5.34 -1.12 5.49 -1.03 5.61 -0.94 5.71 -0.85 5.79 -0.77 5.82 -0.69 5.86 -0.6 5.85 -0.54 5.83 -0.46 5.78 -0.39 5.71 -0.33 5.62 -0.27 5.49 -0.2 5.37 -0.16 5.2 -0.11 5.01 -0.06 4.8 -0.01 4.57 0.01 4.31 0.06 4.03 0.09 3.72 -23.8 0.68 -0.09 -3.96 -0.06 -4.25 -0.03 -4.53 0.03 -4.77 0.06 -5 0.11 -5.23 0.16 -5.4 0.22 -5.57 0.27 -5.75 0.35 -5.86 0.41 -5.95 0.48 -6.06 0.56 -6.11 0.64 -6.15 0.73 -6.18 0.81 -6.18 0.91 -6.15 1 -6.13 1.11 -6.05 1.22 -5.99 1.34 -5.88 1.46 -5.77 1.59 -5.63 1.73 -5.48 1.87 -5.32 2.04 -5.12 2.21 -4.93 2.42 -4.72 2.62 -4.47 2.87 -4.22 3.14 -3.94 3.46 -3.62 0 0zm0 0c4.76,-4.52 12.31,-4.33 16.83,0.43 4.52,4.76 4.33,12.31 -0.43,16.83l-16.4 -17.26zm77.39 -18.62l-1.24 23.78 -0.01 0 -2.6 -0.14 -2.55 -0.16 -2.46 -0.16 -2.4 -0.15 -2.35 -0.15 -2.28 -0.13 -2.23 -0.12 -2.17 -0.11 -2.05 -0.07 -2.05 -0.04 -1.99 -0.01 -1.91 0.02 -1.88 0.06 -1.79 0.1 -1.74 0.15 -1.73 0.2 -1.68 0.25 -1.61 0.29 -1.61 0.36 -1.58 0.4 -1.52 0.47 -1.52 0.53 -1.54 0.61 -1.53 0.69 -1.53 0.76 -1.54 0.86 -1.58 0.98 -1.61 1.07 -1.62 1.18 -1.66 1.32 -1.69 1.45 -1.74 1.59 -16.4 -17.26 2.34 -2.15 2.35 -2.01 2.38 -1.88 2.38 -1.74 2.39 -1.61 2.42 -1.48 2.44 -1.36 2.47 -1.24 2.45 -1.09 2.46 -0.99 2.48 -0.87 2.5 -0.75 2.46 -0.64 2.45 -0.54 2.47 -0.45 2.44 -0.35 2.41 -0.28 2.44 -0.21 2.43 -0.14 2.38 -0.08 2.41 -0.04 2.37 0.03 2.37 0.04 2.41 0.09 2.37 0.11 2.37 0.12 2.4 0.15 2.39 0.15 2.42 0.15 2.44 0.16 2.43 0.14 2.48 0.14 -0.01 0zm0.01 0c6.56,0.34 11.6,5.96 11.26,12.52 -0.34,6.56 -5.96,11.6 -12.52,11.26l1.26 -23.78zm172.01 54.72l-18.24 15.3 0 0 -2.56 -2.84 -2.84 -2.75 -3.13 -2.68 -3.42 -2.61 -3.66 -2.51 -3.91 -2.41 -4.17 -2.32 -4.38 -2.23 -4.59 -2.13 -4.76 -2.02 -4.93 -1.91 -5.09 -1.82 -5.24 -1.71 -5.33 -1.62 -5.45 -1.51 -5.52 -1.42 -5.59 -1.32 -5.64 -1.24 -5.67 -1.13 -5.69 -1.06 -5.68 -0.97 -5.67 -0.89 -5.64 -0.81 -5.58 -0.74 -5.51 -0.66 -5.43 -0.6 -5.33 -0.53 -5.22 -0.47 -5.09 -0.41 -4.95 -0.35 -4.76 -0.32 -4.59 -0.25 1.24 -23.78 4.79 0.27 4.96 0.32 5.13 0.37 5.29 0.43 5.44 0.49 5.57 0.55 5.67 0.62 5.79 0.7 5.84 0.78 5.92 0.85 5.97 0.93 6.02 1.03 6.03 1.12 6.03 1.21 6.04 1.32 6.01 1.42 5.98 1.54 5.91 1.65 5.87 1.76 5.78 1.91 5.69 2.02 5.59 2.17 5.46 2.32 5.33 2.47 5.18 2.63 5.01 2.8 4.85 2.99 4.64 3.19 4.42 3.37 4.21 3.6 3.94 3.83 3.66 4.06 0 0zm0 0c4.22,5.03 3.56,12.55 -1.47,16.77 -5.03,4.22 -12.55,3.56 -16.77,-1.47l18.24 -15.3zm35.16 108.43l-23.58 3.34 0 0 -0.45 -3.15 -0.45 -3.21 -0.47 -3.23 -0.48 -3.25 -0.51 -3.3 -0.52 -3.31 -0.54 -3.34 -0.56 -3.34 -0.59 -3.35 -0.63 -3.37 -0.65 -3.34 -0.68 -3.35 -0.72 -3.32 -0.76 -3.33 -0.79 -3.27 -0.84 -3.25 -0.89 -3.24 -0.92 -3.17 -0.98 -3.15 -1.01 -3.07 -1.08 -3.04 -1.12 -2.97 -1.17 -2.89 -1.22 -2.82 -1.29 -2.75 -1.33 -2.66 -1.4 -2.58 -1.44 -2.5 -1.49 -2.37 -1.56 -2.29 -1.62 -2.19 -1.66 -2.07 18.24 -15.3 2.3 2.85 2.16 2.95 2.06 3.01 1.95 3.11 1.84 3.16 1.74 3.22 1.65 3.3 1.55 3.33 1.48 3.4 1.39 3.43 1.3 3.45 1.24 3.5 1.17 3.53 1.1 3.55 1.04 3.57 0.97 3.56 0.94 3.61 0.87 3.61 0.82 3.59 0.78 3.6 0.74 3.59 0.69 3.58 0.65 3.55 0.63 3.53 0.6 3.52 0.56 3.46 0.54 3.43 0.51 3.4 0.5 3.35 0.47 3.29 0.47 3.23 0.45 3.17 0 0zm0 0c0.92,6.51 -3.61,12.54 -10.12,13.46 -6.51,0.92 -12.54,-3.61 -13.46,-10.12l23.58 -3.34zm-26.34 135.8l-21.08 -11.06 0 0 1.53 -2.98 1.49 -3.05 1.49 -3.2 1.47 -3.28 1.42 -3.35 1.4 -3.46 1.37 -3.53 1.32 -3.6 1.29 -3.68 1.23 -3.73 1.19 -3.82 1.15 -3.84 1.07 -3.9 1.04 -3.95 0.96 -3.97 0.9 -4.01 0.83 -4.03 0.77 -4.07 0.7 -4.06 0.61 -4.08 0.54 -4.09 0.46 -4.09 0.37 -4.09 0.3 -4.07 0.2 -4.04 0.11 -4.02 0.02 -4.02 -0.08 -3.96 -0.18 -3.92 -0.27 -3.88 -0.38 -3.85 -0.48 -3.78 23.58 -3.34 0.56 4.46 0.44 4.49 0.33 4.52 0.2 4.54 0.08 4.56 -0.02 4.54 -0.11 4.58 -0.24 4.58 -0.32 4.57 -0.43 4.55 -0.5 4.55 -0.6 4.55 -0.69 4.52 -0.76 4.5 -0.85 4.47 -0.91 4.43 -1 4.41 -1.06 4.37 -1.12 4.31 -1.19 4.28 -1.25 4.24 -1.31 4.14 -1.35 4.11 -1.41 4.04 -1.46 3.98 -1.51 3.89 -1.54 3.82 -1.6 3.75 -1.63 3.64 -1.65 3.56 -1.71 3.49 -1.73 3.36 0 0zm0 0c-3.05,5.82 -10.25,8.06 -16.07,5.01 -5.82,-3.05 -8.06,-10.25 -5.01,-16.07l21.08 11.06zm-61.93 55.42l-3.34 -23.58 0 0 1.11 -0.2 1.21 -0.3 1.24 -0.4 1.33 -0.5 1.43 -0.65 1.48 -0.74 1.5 -0.84 1.57 -0.96 1.6 -1.08 1.6 -1.14 1.61 -1.24 1.66 -1.35 1.64 -1.41 1.63 -1.47 1.63 -1.55 1.62 -1.62 1.6 -1.65 1.56 -1.69 1.54 -1.72 1.51 -1.77 1.47 -1.79 1.44 -1.8 1.39 -1.81 1.33 -1.79 1.28 -1.78 1.22 -1.77 1.18 -1.78 1.11 -1.72 1.03 -1.68 0.97 -1.64 0.89 -1.56 0.81 -1.5 21.08 11.06 -1.05 1.96 -1.13 2 -1.19 2 -1.27 2.06 -1.33 2.06 -1.38 2.08 -1.46 2.11 -1.52 2.14 -1.59 2.13 -1.63 2.11 -1.68 2.12 -1.75 2.11 -1.79 2.09 -1.84 2.08 -1.9 2.05 -1.94 2.01 -1.98 1.96 -2.03 1.93 -2.07 1.89 -2.12 1.81 -2.14 1.75 -2.21 1.7 -2.26 1.62 -2.3 1.52 -2.33 1.44 -2.42 1.36 -2.44 1.22 -2.49 1.11 -2.59 1 -2.66 0.84 -2.69 0.66 -2.75 0.5 0 0zm0 0c-6.51,0.92 -12.54,-3.61 -13.46,-10.12 -0.92,-6.51 3.61,-12.54 10.12,-13.46l3.34 23.58zm-77.75 -32.4l17.32 -16.34 0 0 1.84 1.92 1.82 1.87 1.79 1.78 1.75 1.7 1.73 1.62 1.71 1.55 1.68 1.45 1.69 1.4 1.64 1.31 1.62 1.21 1.62 1.15 1.61 1.08 1.59 0.99 1.6 0.93 1.59 0.86 1.57 0.77 1.6 0.71 1.63 0.66 1.59 0.57 1.63 0.51 1.7 0.46 1.72 0.4 1.73 0.33 1.81 0.26 1.87 0.22 1.88 0.13 1.99 0.07 2.08 0 2.13 -0.07 2.2 -0.15 2.29 -0.22 2.39 -0.31 3.34 23.58 -3.05 0.39 -3.03 0.3 -2.98 0.19 -2.91 0.09 -2.86 0 -2.83 -0.09 -2.82 -0.21 -2.75 -0.3 -2.69 -0.4 -2.69 -0.51 -2.62 -0.6 -2.56 -0.7 -2.55 -0.79 -2.51 -0.91 -2.43 -0.98 -2.4 -1.07 -2.37 -1.17 -2.31 -1.24 -2.26 -1.31 -2.23 -1.39 -2.19 -1.46 -2.16 -1.53 -2.14 -1.61 -2.1 -1.67 -2.07 -1.72 -2.06 -1.79 -2.05 -1.85 -2.03 -1.9 -2.03 -1.96 -2.01 -2.02 -2.02 -2.05 -2.04 -2.14 0 0zm0 0c-4.51,-4.78 -4.29,-12.32 0.49,-16.83 4.78,-4.51 12.32,-4.29 16.83,0.49l-17.32 16.34zm-69.84 -128.79l22.66 -7.32 0 0 1.3 3.96 1.34 3.98 1.4 4.02 1.45 4.03 1.5 4.05 1.54 4.05 1.59 4.06 1.65 4.08 1.68 4.07 1.74 4.05 1.78 4.05 1.84 4.04 1.88 4.03 1.92 3.99 1.98 3.98 2 3.92 2.07 3.91 2.11 3.89 2.14 3.81 2.19 3.77 2.23 3.71 2.29 3.68 2.31 3.61 2.35 3.53 2.4 3.48 2.43 3.4 2.47 3.31 2.53 3.24 2.54 3.16 2.58 3.06 2.62 2.97 2.65 2.88 -17.32 16.34 -3.03 -3.28 -2.96 -3.37 -2.92 -3.46 -2.84 -3.52 -2.79 -3.6 -2.75 -3.69 -2.69 -3.76 -2.62 -3.8 -2.59 -3.87 -2.51 -3.93 -2.47 -3.96 -2.41 -4.03 -2.37 -4.07 -2.3 -4.11 -2.25 -4.13 -2.21 -4.17 -2.16 -4.22 -2.08 -4.22 -2.06 -4.25 -1.98 -4.27 -1.94 -4.26 -1.9 -4.29 -1.84 -4.31 -1.78 -4.29 -1.73 -4.28 -1.69 -4.3 -1.62 -4.27 -1.58 -4.27 -1.51 -4.23 -1.48 -4.22 -1.42 -4.2 -1.36 -4.16 0 0zm0 0c-2.02,-6.25 1.42,-12.97 7.67,-14.99 6.25,-2.02 12.97,1.42 14.99,7.67l-22.66 7.32zm-11.32 -101.31l-3.32 -23.58 13.45 10.12 0.63 4.39 0.6 4.2 0.57 4.03 0.56 3.86 0.54 3.69 0.53 3.53 0.53 3.43 0.51 3.3 0.51 3.17 0.52 3.08 0.52 3.02 0.52 2.95 0.54 2.89 0.54 2.83 0.57 2.8 0.58 2.8 0.61 2.78 0.63 2.78 0.68 2.84 0.7 2.87 0.74 2.9 0.79 3 0.83 3.06 0.88 3.16 0.93 3.25 0.98 3.38 1.06 3.52 1.1 3.65 1.18 3.8 1.25 3.99 1.32 4.16 1.4 4.34 -22.66 7.32 -1.42 -4.42 -1.34 -4.24 -1.27 -4.05 -1.22 -3.92 -1.14 -3.77 -1.08 -3.62 -1.04 -3.52 -0.97 -3.41 -0.92 -3.32 -0.87 -3.22 -0.83 -3.16 -0.8 -3.12 -0.74 -3.05 -0.72 -3 -0.69 -3.02 -0.65 -3 -0.62 -2.96 -0.61 -3 -0.58 -3.03 -0.56 -3.03 -0.56 -3.09 -0.54 -3.14 -0.54 -3.22 -0.53 -3.31 -0.53 -3.38 -0.53 -3.49 -0.55 -3.63 -0.54 -3.75 -0.56 -3.88 -0.59 -4.05 -0.6 -4.22 -0.63 -4.41 13.45 10.12zm-13.45 -10.12c-0.92,-6.51 3.61,-12.54 10.12,-13.46 6.51,-0.92 12.54,3.61 13.46,10.12l-23.58 3.34zm1.97 -12.31l8.16 -1.15 3.32 23.58 -8.16 1.15 -13.45 -10.12 10.13 -13.46zm3.32 23.58c-6.51,0.91 -12.54,-3.62 -13.45,-10.13 -0.91,-6.51 3.62,-12.54 10.13,-13.45l3.32 23.58zm63.66 164.53l-21.28 10.7 0 0 -2.77 -5.57 -2.67 -5.51 -2.61 -5.48 -2.52 -5.46 -2.44 -5.43 -2.37 -5.42 -2.29 -5.39 -2.23 -5.39 -2.15 -5.39 -2.08 -5.41 -2.01 -5.39 -1.95 -5.42 -1.88 -5.44 -1.82 -5.47 -1.76 -5.5 -1.69 -5.53 -1.65 -5.58 -1.58 -5.63 -1.53 -5.68 -1.48 -5.74 -1.42 -5.8 -1.38 -5.86 -1.34 -5.96 -1.29 -6.04 -1.24 -6.1 -1.21 -6.22 -1.16 -6.31 -1.12 -6.4 -1.1 -6.52 -1.06 -6.66 -1.03 -6.76 -1 -6.89 23.58 -3.34 0.98 6.73 0.99 6.6 1.04 6.46 1.06 6.34 1.1 6.22 1.12 6.11 1.17 6 1.2 5.9 1.23 5.8 1.28 5.7 1.32 5.64 1.38 5.56 1.4 5.48 1.47 5.42 1.5 5.37 1.57 5.3 1.61 5.27 1.68 5.24 1.72 5.19 1.8 5.18 1.85 5.16 1.91 5.15 1.98 5.13 2.05 5.13 2.13 5.15 2.19 5.17 2.27 5.18 2.34 5.21 2.42 5.22 2.51 5.28 2.59 5.33 2.67 5.37 0 0zm0 0c2.95,5.87 0.58,13.04 -5.29,15.99 -5.87,2.95 -13.04,0.58 -15.99,-5.29l21.28 -10.7zm58.57 81.78l-22.4 -8.08 6.03 14.77 -2.51 -1.34 -2.42 -1.5 -2.33 -1.62 -2.32 -1.79 -2.3 -1.92 -2.27 -2.04 -2.24 -2.13 -2.27 -2.25 -2.25 -2.36 -2.24 -2.44 -2.24 -2.54 -2.24 -2.6 -2.21 -2.68 -2.2 -2.72 -2.17 -2.78 -2.14 -2.79 -2.14 -2.84 -2.09 -2.87 -2.05 -2.86 -2.01 -2.87 -1.95 -2.85 -1.9 -2.82 -1.85 -2.82 -1.78 -2.75 -1.71 -2.72 -1.64 -2.65 -1.55 -2.58 -1.48 -2.52 -1.38 -2.41 -1.29 -2.33 -1.21 -2.25 -1.1 -2.13 21.28 -10.7 0.9 1.77 1.01 1.89 1.15 2.05 1.24 2.17 1.34 2.28 1.43 2.36 1.5 2.45 1.59 2.5 1.66 2.59 1.71 2.6 1.78 2.64 1.83 2.67 1.87 2.67 1.91 2.68 1.93 2.63 1.96 2.62 2 2.61 1.99 2.54 2 2.48 1.99 2.4 1.98 2.32 1.96 2.22 1.94 2.1 1.89 1.98 1.85 1.85 1.8 1.71 1.71 1.54 1.6 1.34 1.5 1.15 1.37 0.96 1.18 0.74 0.97 0.5 6.03 14.77zm-6.03 -14.77c5.92,2.85 8.41,9.98 5.56,15.9 -2.85,5.92 -9.98,8.41 -15.9,5.56l10.34 -21.46zm-34.2 62.4l-7.44 22.62 -7 -16.48 0.89 -1.82 0.92 -1.82 0.96 -1.84 1 -1.85 1 -1.8 1.01 -1.82 1.05 -1.84 1.05 -1.85 1.08 -1.86 1.09 -1.85 1.09 -1.88 1.09 -1.85 1.1 -1.89 1.12 -1.9 1.1 -1.9 1.12 -1.93 1.09 -1.9 1.08 -1.93 1.1 -1.96 1.07 -1.95 1.05 -1.96 1.06 -2 1.02 -1.96 1.01 -2.02 1 -2.03 0.96 -2.01 0.93 -2.03 0.92 -2.07 0.87 -2.04 0.84 -2.08 0.82 -2.12 0.78 -2.09 22.4 8.08 -0.92 2.49 -0.96 2.44 -0.98 2.42 -1.03 2.4 -1.04 2.35 -1.07 2.33 -1.1 2.31 -1.1 2.23 -1.11 2.22 -1.14 2.22 -1.14 2.16 -1.15 2.14 -1.17 2.11 -1.14 2.06 -1.16 2.05 -1.17 2.04 -1.14 1.97 -1.14 1.96 -1.12 1.92 -1.1 1.89 -1.11 1.89 -1.09 1.84 -1.05 1.81 -1.02 1.76 -1.01 1.75 -0.97 1.72 -0.95 1.7 -0.92 1.68 -0.86 1.59 -0.82 1.58 -0.8 1.56 -0.75 1.52 -7 -16.48zm7 16.48c-2.85,5.92 -9.97,8.4 -15.89,5.55 -5.92,-2.85 -8.4,-9.97 -5.55,-15.89l21.44 10.34zm-13.3 -11.46l15.9 17.72 -14.38 1.16 -0.16 -0.1 -0.36 -0.23 -0.05 -0.04 -0.24 -0.14 -0.22 -0.16 -0.08 -0.05 -0.07 -0.04 0.2 0.12 -0.03 -0.01 -0.3 -0.18 -0.01 -0.01 0.18 0.1 -0.31 -0.16 -0.12 -0.07 0.37 0.19 -0.13 -0.06 -0.13 -0.07 0.35 0.17 0.01 0 0 0 -0.02 -0.01 -0.03 -0.01 -0.22 -0.08 0.04 0.01 0.02 0.01 -0.36 -0.13 0.08 0.03 -0.21 -0.07 -0.29 -0.11 -0.03 0 -0.25 -0.08 -0.29 -0.1 7.44 -22.62 0.25 0.08 0.25 0.08 0.45 0.16 0.15 0.05 0.23 0.07 0.46 0.17 0.02 0.01 0.38 0.13 0.38 0.15 0.1 0.04 0.27 0.11 0.28 0.11 0.28 0.12 0.29 0.12 0.61 0.29 0.13 0.07 0.13 0.06 0.63 0.33 0.12 0.07 -0.05 -0.02 0.44 0.24 0.25 0.15 -0.02 -0.02 0.25 0.15 0.5 0.3 0.23 0.16 0.24 0.15 0.1 0.06 0.12 0.08 0.31 0.2 0.04 0.03 0.26 0.16 -14.38 1.16zm14.38 -1.16c5.53,3.55 7.14,10.92 3.59,16.45 -3.55,5.53 -10.92,7.14 -16.45,3.59l12.86 -20.04zm1.19 -23.87l21.32 10.6 0 0 -0.41 0.81 -0.42 0.86 -0.49 0.95 -0.48 0.94 -0.52 0.98 -0.51 0.96 -0.53 1 -0.58 1.08 -0.58 1.06 -0.58 1.04 -0.59 1.05 -0.61 1.09 -0.65 1.14 -0.66 1.11 -0.62 1.05 -0.64 1.08 -0.7 1.13 -0.69 1.11 -0.66 1.03 -0.71 1.11 -0.72 1.07 -0.69 1.02 -0.75 1.06 -0.73 1.01 -0.7 0.95 -0.77 1.01 -0.78 0.97 -0.79 0.93 -0.82 0.94 -0.82 0.87 -0.86 0.88 -0.93 0.86 -15.9 -17.72 0.21 -0.2 0.3 -0.3 0.38 -0.41 0.38 -0.42 0.43 -0.53 0.46 -0.57 0.47 -0.61 0.54 -0.73 0.55 -0.75 0.51 -0.74 0.57 -0.84 0.56 -0.83 0.55 -0.85 0.6 -0.95 0.57 -0.89 0.54 -0.91 0.58 -0.96 0.6 -1.01 0.56 -0.95 0.53 -0.92 0.55 -0.97 0.55 -0.99 0.54 -0.98 0.52 -0.94 0.48 -0.88 0.49 -0.94 0.49 -0.92 0.44 -0.86 0.44 -0.84 0.39 -0.77 0.4 -0.8 0.39 -0.77 0 0zm0 0c2.92,-5.88 10.08,-8.28 15.96,-5.36 5.88,2.92 8.28,10.08 5.36,15.96l-21.32 -10.6zm8.02 -15.64l21.48 10.26 0.01 -0.02 -0.3 0.63 -0.28 0.59 -0.26 0.53 -0.3 0.61 -0.28 0.56 -0.25 0.5 -0.27 0.55 -0.25 0.49 -0.29 0.57 -0.27 0.51 -0.22 0.43 -0.27 0.51 -0.24 0.46 -0.24 0.46 -0.26 0.5 -0.27 0.5 -0.21 0.4 -0.24 0.46 -0.29 0.54 -0.2 0.37 -0.24 0.47 -0.27 0.5 -0.2 0.39 -0.25 0.48 -0.25 0.48 -0.24 0.45 -0.28 0.55 -0.26 0.51 -0.21 0.4 -0.27 0.54 -0.26 0.51 -0.27 0.55 -21.32 -10.6 0.29 -0.59 0.3 -0.59 0.27 -0.54 0.33 -0.66 0.28 -0.51 0.24 -0.47 0.28 -0.55 0.25 -0.48 0.25 -0.48 0.3 -0.57 0.23 -0.42 0.24 -0.47 0.3 -0.55 0.19 -0.36 0.24 -0.46 0.27 -0.5 0.21 -0.4 0.22 -0.42 0.24 -0.46 0.24 -0.46 0.21 -0.41 0.26 -0.51 0.23 -0.43 0.19 -0.39 0.25 -0.49 0.23 -0.45 0.25 -0.5 0.24 -0.48 0.22 -0.45 0.26 -0.55 0.26 -0.51 0.24 -0.51 0.01 -0.02zm-0.01 0.02c2.82,-5.93 9.93,-8.46 15.86,-5.64 5.93,2.82 8.46,9.93 5.64,15.86l-21.5 -10.22zm24.38 -21.16l-10.34 21.46 13.48 -2.21 -0.05 0.05 -0.04 0.05 0 -0.01 -0.11 0.15 -0.17 0.22 -0.09 0.12 -0.17 0.26 -0.12 0.18 -0.14 0.23 -0.18 0.29 -0.17 0.31 -0.22 0.4 -0.2 0.38 -0.2 0.37 -0.17 0.34 -0.17 0.36 -0.25 0.53 -0.21 0.43 -0.17 0.37 -0.24 0.54 -0.24 0.53 -0.22 0.51 -0.24 0.54 -0.22 0.49 -0.25 0.57 -0.24 0.53 -0.23 0.53 -0.25 0.56 -0.25 0.56 -0.26 0.56 -0.27 0.59 -0.29 0.61 -21.48 -10.26 0.19 -0.39 0.19 -0.43 0.22 -0.48 0.21 -0.48 0.23 -0.5 0.23 -0.53 0.24 -0.53 0.21 -0.49 0.26 -0.59 0.24 -0.54 0.26 -0.57 0.24 -0.53 0.24 -0.54 0.31 -0.69 0.29 -0.61 0.25 -0.53 0.33 -0.68 0.35 -0.68 0.32 -0.63 0.34 -0.62 0.32 -0.58 0.37 -0.65 0.38 -0.65 0.42 -0.69 0.46 -0.7 0.43 -0.62 0.51 -0.72 0.45 -0.58 0.51 -0.65 0.64 -0.75 0.62 -0.67 0.63 -0.63 13.48 -2.21zm-13.48 2.21c4.7,-4.58 12.25,-4.49 16.83,0.21 4.58,4.7 4.49,12.25 -0.21,16.83l-16.62 -17.04zm51.43 7.05l3.34 23.58 0 0 -2.22 0.29 -2.17 0.24 -2.15 0.19 -2.04 0.13 -2 0.08 -2.01 0.03 -1.89 -0.04 -1.84 -0.07 -1.87 -0.14 -1.8 -0.19 -1.77 -0.24 -1.69 -0.29 -1.67 -0.33 -1.64 -0.38 -1.61 -0.43 -1.54 -0.46 -1.51 -0.48 -1.49 -0.54 -1.41 -0.53 -1.43 -0.58 -1.4 -0.6 -1.32 -0.59 -1.35 -0.62 -1.31 -0.63 -1.29 -0.63 -1.31 -0.65 -1.28 -0.64 -1.29 -0.65 -1.29 -0.64 -1.33 -0.67 -1.35 -0.66 -1.36 -0.66 10.34 -21.46 1.52 0.74 1.43 0.72 1.37 0.67 1.35 0.68 1.29 0.65 1.24 0.62 1.17 0.59 1.15 0.55 1.09 0.53 1.05 0.48 1.04 0.47 0.98 0.42 0.95 0.38 0.97 0.37 0.91 0.32 0.93 0.3 0.92 0.28 0.91 0.23 0.92 0.22 0.97 0.19 0.99 0.17 1.01 0.14 1.06 0.11 1.09 0.08 1.2 0.05 1.27 0.02 1.29 -0.01 1.4 -0.06 1.5 -0.09 1.53 -0.13 1.67 -0.2 1.78 -0.23 0 0zm0 0c6.51,-0.92 12.54,3.61 13.46,10.12 0.92,6.51 -3.61,12.54 -10.12,13.46l-3.34 -23.58zm36.94 -24.74l18.78 14.64 0 0 -0.95 1.19 -1.01 1.21 -1.1 1.27 -1.1 1.22 -1.14 1.23 -1.24 1.28 -1.25 1.25 -1.31 1.28 -1.38 1.29 -1.4 1.27 -1.46 1.28 -1.5 1.26 -1.5 1.23 -1.58 1.26 -1.64 1.24 -1.64 1.19 -1.68 1.18 -1.75 1.19 -1.77 1.13 -1.79 1.09 -1.82 1.05 -1.87 1.04 -1.92 0.98 -1.92 0.92 -1.96 0.89 -2.02 0.83 -2.03 0.75 -2.03 0.68 -2.12 0.64 -2.12 0.53 -2.17 0.47 -2.21 0.36 -3.34 -23.58 1.13 -0.18 1.17 -0.25 1.22 -0.31 1.22 -0.36 1.29 -0.44 1.31 -0.49 1.28 -0.53 1.34 -0.59 1.36 -0.66 1.32 -0.68 1.35 -0.74 1.36 -0.79 1.35 -0.83 1.33 -0.85 1.31 -0.87 1.3 -0.92 1.32 -0.97 1.24 -0.94 1.24 -0.98 1.24 -1.01 1.18 -1 1.14 -1 1.12 -1.01 1.06 -0.99 1.03 -1 0.99 -0.99 0.92 -0.96 0.9 -0.97 0.84 -0.92 0.74 -0.85 0.69 -0.85 0.65 -0.81 0 0zm0 0c4.04,-5.18 11.53,-6.11 16.71,-2.07 5.18,4.04 6.11,11.53 2.07,16.71l-18.78 -14.64zm41.14 -151l23.58 -3.34 0 0 0.7 5.53 0.54 5.59 0.37 5.59 0.22 5.62 0.07 5.64 -0.1 5.66 -0.23 5.65 -0.39 5.66 -0.53 5.66 -0.68 5.64 -0.8 5.64 -0.94 5.64 -1.09 5.59 -1.2 5.56 -1.34 5.56 -1.47 5.51 -1.59 5.46 -1.72 5.42 -1.83 5.36 -1.95 5.33 -2.07 5.25 -2.18 5.18 -2.3 5.13 -2.41 5.05 -2.52 4.96 -2.61 4.87 -2.73 4.8 -2.84 4.7 -2.92 4.58 -3.03 4.5 -3.14 4.39 -3.23 4.26 -18.78 -14.64 2.83 -3.74 2.76 -3.85 2.67 -3.98 2.62 -4.08 2.52 -4.18 2.43 -4.28 2.35 -4.37 2.26 -4.46 2.17 -4.53 2.06 -4.61 1.96 -4.68 1.87 -4.75 1.77 -4.79 1.65 -4.86 1.56 -4.9 1.43 -4.94 1.33 -4.97 1.2 -5 1.1 -5.04 0.97 -5.05 0.86 -5.06 0.72 -5.06 0.6 -5.08 0.47 -5.06 0.35 -5.06 0.21 -5.03 0.08 -5.02 -0.05 -4.98 -0.2 -4.96 -0.33 -4.93 -0.46 -4.87 -0.62 -4.83 0 0zm0 0c-0.92,-6.51 3.61,-12.54 10.12,-13.46 6.51,-0.92 12.54,3.61 13.46,10.12l-23.58 3.34zm-78.01 -127.31l8.56 -22.22 -0.01 0 6.43 2.6 6.14 2.72 5.83 2.86 5.55 3 5.27 3.13 5 3.29 4.73 3.43 4.46 3.57 4.22 3.71 3.96 3.87 3.7 3.99 3.46 4.13 3.23 4.27 2.99 4.38 2.78 4.5 2.57 4.62 2.37 4.73 2.18 4.84 2.01 4.93 1.84 5.05 1.7 5.13 1.56 5.23 1.45 5.34 1.33 5.45 1.24 5.53 1.16 5.64 1.09 5.77 1.03 5.86 0.98 5.98 0.95 6.09 0.92 6.21 0.91 6.34 -23.58 3.34 -0.89 -6.24 -0.9 -6.07 -0.93 -5.91 -0.94 -5.76 -0.97 -5.58 -1.03 -5.41 -1.08 -5.26 -1.14 -5.11 -1.21 -4.93 -1.29 -4.76 -1.38 -4.61 -1.46 -4.45 -1.58 -4.29 -1.67 -4.13 -1.8 -3.98 -1.93 -3.85 -2.05 -3.7 -2.2 -3.56 -2.37 -3.46 -2.51 -3.33 -2.7 -3.21 -2.9 -3.13 -3.1 -3.03 -3.32 -2.93 -3.58 -2.87 -3.83 -2.77 -4.1 -2.69 -4.39 -2.61 -4.71 -2.54 -5.01 -2.46 -5.34 -2.38 -5.69 -2.3 -0.01 0zm0.01 0c-6.13,-2.35 -9.19,-9.25 -6.84,-15.38 2.35,-6.13 9.25,-9.19 15.38,-6.84l-8.54 22.22zm-67.68 -16.44l3.22 -23.6 -0.01 0 2.48 0.34 2.45 0.36 2.41 0.36 2.45 0.37 2.39 0.39 2.38 0.39 2.39 0.42 2.36 0.42 2.36 0.43 2.32 0.46 2.31 0.45 2.35 0.48 2.31 0.5 2.27 0.51 2.26 0.51 2.26 0.53 2.29 0.56 2.26 0.57 2.21 0.58 2.23 0.59 2.24 0.62 2.22 0.64 2.2 0.64 2.21 0.67 2.19 0.69 2.2 0.71 2.19 0.73 2.14 0.73 2.18 0.76 2.2 0.79 2.15 0.8 2.16 0.82 -8.56 22.22 -1.96 -0.74 -1.99 -0.74 -1.94 -0.71 -1.98 -0.68 -2.02 -0.69 -1.99 -0.67 -1.98 -0.63 -2.01 -0.63 -2.01 -0.61 -2.02 -0.6 -2.04 -0.58 -2.02 -0.56 -2.05 -0.55 -2.09 -0.54 -2.06 -0.53 -2.07 -0.5 -2.1 -0.49 -2.12 -0.49 -2.15 -0.47 -2.13 -0.46 -2.11 -0.44 -2.19 -0.43 -2.2 -0.42 -2.18 -0.41 -2.22 -0.4 -2.23 -0.38 -2.26 -0.37 -2.27 -0.37 -2.27 -0.35 -2.33 -0.34 -2.33 -0.34 -2.34 -0.32 -0.01 0zm0.01 0c-6.51,-0.88 -11.08,-6.89 -10.2,-13.4 0.88,-6.51 6.89,-11.08 13.4,-10.2l-3.2 23.6zm-38.74 -3.47l1.34 -23.78 0 0 1.32 0.07 1.29 0.09 1.29 0.07 1.32 0.08 1.27 0.08 1.26 0.08 1.25 0.08 1.29 0.08 1.25 0.09 1.23 0.08 1.32 0.1 1.22 0.1 1.22 0.09 1.28 0.1 1.21 0.11 1.26 0.1 1.26 0.11 1.22 0.11 1.26 0.12 1.25 0.12 1.22 0.12 1.26 0.13 1.27 0.13 1.26 0.14 1.27 0.14 1.28 0.15 1.28 0.15 1.3 0.16 1.29 0.16 1.29 0.16 1.3 0.18 1.32 0.17 -3.22 23.6 -1.24 -0.17 -1.24 -0.16 -1.23 -0.16 -1.21 -0.16 -1.2 -0.14 -1.2 -0.15 -1.2 -0.13 -1.19 -0.14 -1.18 -0.12 -1.17 -0.13 -1.18 -0.11 -1.22 -0.12 -1.17 -0.12 -1.16 -0.1 -1.2 -0.11 -1.18 -0.11 -1.16 -0.1 -1.21 -0.09 -1.16 -0.1 -1.22 -0.09 -1.22 -0.1 -1.12 -0.08 -1.23 -0.08 -1.23 -0.09 -1.19 -0.08 -1.25 -0.08 -1.24 -0.08 -1.27 -0.08 -1.22 -0.08 -1.27 -0.07 -1.29 -0.07 -1.28 -0.07 0 0zm0 0c-6.56,-0.37 -11.59,-6 -11.22,-12.56 0.37,-6.56 6,-11.59 12.56,-11.22l-1.34 23.78zm-86.94 35.74l-21.9 -9.36 0 0 2.19 -4.84 2.28 -4.57 2.41 -4.31 2.52 -4.06 2.65 -3.81 2.76 -3.54 2.87 -3.29 3 -3.08 3.14 -2.81 3.22 -2.57 3.33 -2.33 3.41 -2.07 3.49 -1.86 3.57 -1.62 3.6 -1.4 3.66 -1.21 3.71 -1.02 3.71 -0.82 3.73 -0.67 3.79 -0.54 3.8 -0.39 3.8 -0.27 3.84 -0.19 3.87 -0.07 3.87 -0.01 3.91 0.06 3.92 0.11 3.97 0.16 3.99 0.19 4.02 0.21 4.06 0.23 4.09 0.23 -1.34 23.78 -4.09 -0.23 -4.02 -0.23 -3.92 -0.21 -3.83 -0.19 -3.73 -0.14 -3.66 -0.11 -3.53 -0.06 -3.45 0.01 -3.33 0.07 -3.22 0.15 -3.14 0.23 -3 0.31 -2.89 0.4 -2.81 0.51 -2.69 0.6 -2.57 0.7 -2.48 0.81 -2.4 0.94 -2.29 1.04 -2.23 1.18 -2.17 1.33 -2.11 1.47 -2.08 1.65 -2.02 1.83 -2 2.04 -1.99 2.29 -1.96 2.52 -1.93 2.77 -1.9 3.06 -1.87 3.35 -1.84 3.67 -1.79 3.98 0 0zm0 0c-2.58,6.04 -9.59,8.85 -15.63,6.27 -6.04,-2.58 -8.85,-9.59 -6.27,-15.63l21.9 9.36zm-14.03 64.18l-23.68 -2.48 0 0 0.26 -2.52 0.28 -2.51 0.27 -2.42 0.26 -2.42 0.29 -2.4 0.28 -2.32 0.29 -2.32 0.31 -2.3 0.31 -2.24 0.33 -2.27 0.34 -2.23 0.35 -2.18 0.37 -2.2 0.39 -2.18 0.41 -2.15 0.42 -2.14 0.45 -2.14 0.47 -2.14 0.51 -2.15 0.52 -2.1 0.54 -2.13 0.58 -2.11 0.61 -2.12 0.65 -2.14 0.66 -2.1 0.7 -2.15 0.74 -2.12 0.75 -2.13 0.82 -2.19 0.85 -2.18 0.89 -2.18 0.91 -2.18 21.9 9.36 -0.81 1.92 -0.77 1.9 -0.73 1.86 -0.68 1.83 -0.67 1.87 -0.64 1.86 -0.6 1.81 -0.58 1.84 -0.55 1.82 -0.51 1.82 -0.5 1.83 -0.48 1.83 -0.46 1.86 -0.43 1.85 -0.41 1.86 -0.39 1.88 -0.38 1.92 -0.37 1.95 -0.35 1.94 -0.33 1.98 -0.33 2.04 -0.32 2.03 -0.29 2.05 -0.29 2.14 -0.29 2.16 -0.27 2.18 -0.28 2.26 -0.27 2.26 -0.26 2.32 -0.27 2.42 -0.26 2.41 -0.26 2.48 0 0zm0 0c-0.68,6.53 -6.55,11.28 -13.08,10.6 -6.53,-0.68 -11.28,-6.55 -10.6,-13.08l23.68 2.48zm3.32 157.31l-23.58 3.34 0 0 -0.74 -5.4 -0.7 -5.41 -0.65 -5.4 -0.62 -5.38 -0.55 -5.37 -0.53 -5.34 -0.48 -5.36 -0.43 -5.33 -0.4 -5.31 -0.34 -5.29 -0.32 -5.28 -0.26 -5.26 -0.23 -5.23 -0.19 -5.21 -0.14 -5.19 -0.11 -5.15 -0.07 -5.14 -0.04 -5.12 0.02 -5.07 0.04 -5.06 0.09 -5.01 0.11 -4.98 0.15 -4.96 0.2 -4.92 0.22 -4.89 0.26 -4.84 0.3 -4.81 0.34 -4.77 0.35 -4.71 0.4 -4.7 0.44 -4.64 0.46 -4.6 23.68 2.48 -0.44 4.42 -0.42 4.46 -0.38 4.48 -0.35 4.55 -0.32 4.59 -0.28 4.63 -0.26 4.66 -0.22 4.71 -0.18 4.74 -0.15 4.76 -0.11 4.82 -0.09 4.85 -0.04 4.86 0 4.91 0.02 4.92 0.07 4.96 0.11 4.99 0.14 5.01 0.19 5.03 0.21 5.07 0.26 5.06 0.3 5.1 0.34 5.11 0.38 5.13 0.41 5.15 0.46 5.14 0.51 5.18 0.55 5.19 0.58 5.2 0.63 5.2 0.68 5.21 0.72 5.22 0 0zm0 0c0.92,6.51 -3.61,12.54 -10.12,13.46 -6.51,0.92 -12.54,-3.61 -13.46,-10.12l23.58 -3.34z"/>
    <path id="1" class="fil9" d="M2205.51 552.35c3.46,24.4 11.98,67.35 18.46,90.03 2.54,8.92 6.95,19.93 8.26,27.85 8.15,-1.33 7.61,-0.76 6.46,-6.25 -1.86,-8.78 -8.3,-23.82 -11.56,-41.35 -12.81,-69.02 -18.28,-80.42 -20.43,-157 -1.11,-39.28 2.56,-133.48 31.94,-161.4 21.79,-20.7 41.27,-16.8 68.57,-15.36 48.94,2.56 131.94,12.83 163.52,50.48 21.59,25.75 27.75,69.02 32.49,102.45 6.2,43.75 -7.63,95.34 -25.09,128.6 -9.51,18.12 -32.51,46.25 -53.06,49.16 -29.42,4.17 -46.66,-6.79 -67.42,-28.78 -30.51,-32.32 -53.25,-81.13 -67.17,-124.28 -15.43,-47.81 -17.5,-61.46 -24.31,-109.44l-8.16 1.15c10.4,73.4 25.23,123.09 54.68,181.67 10.08,20.04 39.83,63.63 58.01,72.39 -8.87,24.6 -24.19,45.24 -32.75,62.98 2.95,0.97 3.08,1.1 5.37,2.57 6.03,-5.41 14.19,-20.36 18.28,-28.59 3.05,-6.13 5.18,-9.67 8.1,-15.81 2.54,-5.32 4.83,-12 8.46,-15.54 15.57,7.5 23.04,13.41 44.79,10.32 17.74,-2.51 36.48,-18.72 44.66,-29.21 32.78,-42.07 51.35,-104.93 43.54,-159.99 -9.61,-67.81 -19.11,-111.21 -85.52,-136.75 -21.99,-8.47 -44.55,-13.63 -70.34,-17.13 -13.69,-1.87 -25.74,-2.78 -39.67,-3.56 -43.99,-2.47 -77.77,-5.71 -98.56,42.95 -9.41,22.02 -12.1,40.65 -14.92,67.62 -5.01,47.81 -4.67,103.5 3.37,160.22z"/>
   </g>
  </g>
 </g>
</svg>
